<svg height="960" viewBox="0 0 960 960" width="960" xmlns="http://www.w3.org/2000/svg"><path d="m658.877308 83.0437848c197.983543 31.3540132 328.127921 235.1596522 293.557392 453.4050222-31.776809 200.608488-192.912133 348.361611-374.906707 344.480456l-4.734993-.142263-.434464.045821c-2.958284.27849-5.997902.229168-9.077918-.182147l-.711472-.10136-3.561146-.539314-.505035-.038235c-7.766756-.617424-15.525975-1.513197-23.268959-2.688177l-2.111314-.327373c-7.437443-1.177844-14.810313-2.605831-22.111515-4.280893l-.562177-.131322-161.362-24.799-.762869-.065943c-5.934233-.532731-11.862943-1.226799-17.78205-2.082598l-2.219207-.328507c-7.397001-1.120479-14.728505-2.486296-21.987142-4.094424l-3.482648-.539988c-3.140911-.485595-6.143291-1.325942-8.971229-2.474876l-.023855-.009664-4.85964-1.31415c-168.765869-47.138782-274.5818348-222.242197-246.4735546-408.47427l.9121069-5.763175c28.2555815-170.618999 161.7085027-301.632897 321.6498727-318.722647l.216807-.022984.161465-.035528c1.091836-.227115 2.20027-.410102 3.323375-.547022l.562765-.064612 186.556803-20.097612.451987-.0728867c33.87949-5.3553464 68.319813-5.4060772 102.517321.0096715zm-369.301397 348.7259792c-30.423253 192.084862 82.635776 369.154662 251.805747 395.948554 169.169971 26.793891 331.413075-106.672336 361.836328-298.757197 30.423253-192.084862-82.635775-369.154663-251.805747-395.948554-169.169971-26.793891-331.413074 106.672336-361.836328 298.757197zm211.562714-302.540497-127.503126 13.745243-.02513.248714c-141.549016 13.038008-264.727972 129.013442-290.7109351 285.909423-28.6682956 173.111139 71.2925851 333.814327 226.1011061 371.594218l-.035942.376314 4.780362.739059c6.756638 1.528239 13.614864 2.823528 20.568674 3.876874 6.527946.988837 13.044673 1.749998 19.543051 2.289091l108.15819 16.627558c-136.687021-61.917258-219.497421-223.599654-192.19273-395.994686 22.666164-143.108528 115.217488-255.748028 231.31648-299.411808zm157.929499 100.662234c123.989757 19.638048 205.915641 147.948014 184.064577 285.910203-21.851064 137.96219-139.41717 234.675728-263.406927 215.03768s-205.915642-147.948014-184.064578-285.910203c21.851065-137.96219 139.417171-234.675728 263.406928-215.03768zm-233.776277 219.730713c-19.376615 122.339131 52.349586 234.674645 159.126961 251.58652 106.777374 16.911875 209.706628-67.760933 229.083243-190.100064 19.376615-122.33913-52.349586-234.674644-159.126961-251.586519s-209.706629 67.760933-229.083243 190.100063zm237.264328 108.588811v45.840623l-58.424104 2.873202v-47.046688c0-16.779902 13.078681-30.581545 29.212052-30.826831 16.133371-.245287 29.212052 12.809953 29.212052 29.159694zm-492.556175-142.211025c22.793498 0 38 29.598369 38 64.5s-15.206502 64.5-38 64.5-38-29.598369-38-64.5 15.206502-64.5 38-64.5zm0 20c-3.127945 0-7.226639 3.374331-10.904216 10.532472-4.451025 8.663603-7.095784 20.834449-7.095784 33.967528s2.644759 25.303925 7.095784 33.967528c3.677577 7.158141 7.776271 10.532472 10.904216 10.532472s7.226639-3.374331 10.904216-10.532472c4.451025-8.663603 7.095784-20.834449 7.095784-33.967528s-2.644759-25.303925-7.095784-33.967528c-3.677577-7.158141-7.776271-10.532472-10.904216-10.532472zm516.92749-49.91781 25.076644 1.350752v103.062166l-25.076644-.054711zm-134.81854-5.15734 27.466364 1.350752v108.010611l-27.466364-.054711z"/></svg>