<svg height="960" viewBox="0 0 960 960" width="960" xmlns="http://www.w3.org/2000/svg"><g><path d="m367.020321 137.22913v686.104456c0 57.44534 46.760876 101.274833 104.185358 97.674961l275.302102-17.258359c56.801967-3.560847 102.934038-49.521965 102.934038-103.193399v-640.550863c0-53.671433-46.132071-99.6325511-102.934038-103.1933984l-275.302102-17.2583589c-57.424482-3.599872-104.185358 40.2296205-104.185358 97.6749613zm102.934039-77.7141447 275.302101 17.2583589c46.541222 2.9176135 84.185358 40.4222498 84.185358 83.2325818v640.550863c0 42.810332-37.644136 80.314969-84.185358 83.232582l-275.302101 17.258359c-45.918707 2.878589-82.934039-31.816296-82.934039-77.714144v-686.104456c0-45.8978485 37.015332-80.5927334 82.934039-77.7141447z"/><path d="m454.255869 8.23372772c-2.320456.1318943-4.625.46578209-6.887474.99787322l-243.051597 57.16114326c-.384112.0903358-.766866.1863504-1.148136.2880123l-1.802306.4807792c-35.345339 9.5458727-62.900377 23.710912-83.106983 44.8264623-22.6797616 23.699954-34.1331767 54.395541-34.359977 91.00402l-.0024885.835792-3.8959597 565.921766v.609173l.0155558 1.644882c.5260214 31.567491 13.5803531 63.236605 35.8991174 88.481948l.697345.783372c23.097775 25.769291 54.637351 43.411188 90.378113 49.2816l231.900921 37.929449.400005.081253c2.672578.524433 5.366572.965176 8.078723 1.32136l.419272.052387 2.312346.376603c1.463976.238186 2.940067.39476 4.421434.468996l1.684859.083531 1.554806.059115c1.554137.050753 3.106189.081829 4.655455.081829l1.1111-.011074-.395536-.001356c3.271083.034344 6.554478-.051549 9.845252-.258064l275.051163-17.261016c72.152929-4.528005 130.969121-63.188733 130.969121-133.148812v-640.649504l-.017599-2.09537c-1.160059-69.0325104-59.520123-126.5707171-130.951522-131.0534416l-261.068879-16.3854364-.714862-.1255612c-10.430687-1.79365179-21.155263-2.39762786-31.991269-1.78171108zm27.760874 41.67641368 263.508838 16.5377615c51.624496 3.2397292 93.474419 44.9790331 93.474419 93.2273451v640.649504c0 48.248312-41.849923 89.987616-93.474419 93.227345l-275.051162 17.261017c-2.327518.146065-4.635167.205723-6.920007.187262-1.85528.01362-3.726815-.01687-5.612106-.098659l-1.416508-.070986-3.005752-.489029c-2.51883-.303928-5.002368-.711142-7.446263-1.217559l-232.599581-38.044709c-56.346392-9.254883-92.740993-56.398277-93.463251-99.742246l-.010951-1.312248 3.89596-565.921765c0-55.691154 32.734362-83.426449 87.899709-98.325199l1.678533-.447564 243.051596-57.1611435c8.837029-.5022952 17.38764.1235732 25.490945 1.7408729z"/><path d="m707.034866 521c5.906746 3.06184 11.719734 6.634241 17.157691 11.115352 3.469041 2.903572 7.406872 4.623149 10.59464 8.173716.843821 3.159339-1.031337 6.209646-1.968915 9.08235-6.65681 15.780435-13.032345 31.717508-19.501639 47.70464-7.50063 16.231846-13.21986 34.066038-21.283038 49.923942-6.094262-2.775208-11.344703-7.827673-17.063933-11.689349-3.750315-2.714968-7.781904-5.024227-10.969672-8.830764 2.250189-8.880056 6.375536-16.447683 9.469546-24.843505 9.000756-23.028919 18.282786-45.855561 27.752331-68.213482 1.687642-4.346982 3.469042-8.69543 5.812989-12.4229zm-179.008688-1.347232c2.808901 4.391262 4.455497 9.932088 6.683246 14.891181 12.010471 27.274287 22.471204 55.871911 34.965969 82.434808 1.065445 2.5116 1.743455 5.32104 2.324607 8.136481-5.424084 5.962929-11.623037 10.358691-17.337696 15.821069-3.486911 2.986947-6.586388 6.905685-10.460733 8.972603-1.423822.489749-2.183194-1.081681-2.909343-2.649382l-.207113-.446103c-.241849-.516206-.486686-1.010136-.75789-1.405283-9.589005-21.921739-18.693717-44.375975-28.379581-66.468378-4.164921-9.534249-8.136126-19.371783-12.10733-29.087592-.871728-2.161827-1.356021-4.759141-1.840314-7.080821 8.039267-7.8651 16.562827-14.353596 24.89267-21.49851 1.549738-.898788 3.58377-3.467566 5.133508-1.620073zm89.303828-220.546096c5.071121.10796 10.051686-.204095 15.122807.463446.815001 20.001665.181111 40.018423.362223 60.02461 0 13.572529.271667 26.998073.090555 40.575036-.090555 9.657316.452779 19.433779-.362222 29.116272-10.685576.660528-21.280596.616171-31.966172.713964-.181112-2.530489-.543335-5.054963-.543335-7.59208.090556-38.622837-.181111-77.097152.090556-115.721447 0-2.537065.543334-4.796018.996113-7.053841 5.433344-1.020332 10.776132-.491365 16.209475-.52596zm-64.901344-4.882942c.934916 9.129262.415519 18.151673.519398 27.365337v99.369198c0 3.068755-.207759 5.981153-.415518 9.039928-5.193978.040012-10.284076-1.232238-15.478054-1.192378-6.648292-.617372-13.296583.821822-19.840996-.525067-.831036-4.749467-1.350434-9.484713-1.765952-14.362746-9.037522-1.643586-18.282802.685843-27.008685-3.753994-17.763404-7.748454-29.917313-35.918554-27.008685-61.623025 1.558193-12.686102 5.817255-25.032473 13.088824-32.548203 5.090098-5.277527 11.011233-9.300472 17.347886-10.770032 7.790967-1.360032 15.789693.39615 23.684539-.066428.415519-4.38513.831037-8.76956 1.350435-13.145537 11.842269-.143881 23.684539 1.181676 35.526808 2.212947zm155.323502 12.077994c.787585 3.935698 1.181377 7.975004 1.476721 12.006537 9.64791 2.2977 19.689611 1.688591 29.042177 6.614982 15.850137 10.001375 26.187183 35.821821 21.658572 58.145797-2.756545 18.229556-14.865656 31.089932-27.959248 34.924457-7.5805.40807-15.161001.68523-22.741501.296186-.295344 3.861367-.49224 7.594427-.689136 11.46148-6.792916.738706-13.585832-.396447-20.378748-.459846-4.528611-.355399-9.057221.095993-13.585832-1.201592-1.772065-1.43352-1.378273-4.511617-1.575169-6.810959.098448-36.357397 0-72.726188 0-109.089283 0-2.82824.196896-5.50721.393792-8.051293 11.419975-.759738 22.938398 1.846244 34.358372 2.163534z"/></g></svg>