<svg height="960" viewBox="0 0 960 960" width="960" xmlns="http://www.w3.org/2000/svg"><path d="m728.798325 18.5229893 24.312531 1.2432789c.241976.012374.483835.0269463.725546.0437152 16.984065 1.1782805 30.070546 3.4359662 40.707278 7.7289005 9.087897 3.6678319 17.264577 9.190949 24.480114 16.2588666.904994.8864786 1.793925 1.8123423 2.660989 2.7585565 9.085091 9.886668 14.128337 22.8247808 14.128337 36.2536778v802.8072692c0 17.506817-9.668817 33.582198-25.093184 41.765929-5.550496 2.953096-10.220784 5.100853-14.867573 6.613225-5.998797 1.952406-11.876138 3.211154-17.813514 3.975353-2.209995.284448-4.329124.488551-6.524781.646819-.78888.056864-1.543233.10486-2.395494.154388-.286101.016626-1.074363.060954-1.43863.081664l-.160271.009182c-.172255.010066-.30183.018031-.407267.024988l-7.255586.477148c-199.069296 13.045979-353.489003 19.349853-426.265123 19.349853-22.326015 0-51.338784-.802739-77.62684-2.071605-31.635964-1.526997-48.455897-2.858838-57.136275-5.650246-16.974797-5.4587-30.508844-17.669355-35.173509-36.03784-.817216-3.218031-1.230594-6.52529-1.230594-9.845465v-847.8152475c0-12.7689128 5.405207-23.49734 13.549957-31.2910156 4.604024-4.4055702 9.574835-7.458891 15.068868-9.892348 6.589105-2.9184947 14.122545-4.9646114 23.34085-6.67869239l.135802-.02500904 1.101043-.20080145.132328-.02390342.473705-.08436922.943676-.16578309c.941426-.16384318 1.876589-.3219272 2.809839-.47479758l.932773-.15115272c.15541-.02490921.310806-.04967864.46621-.07431083l.932673-.14616638c.311028-.04818662.622246-.09584444.933815-.1429937l.935923-.13994223c11.872461-1.7537875 24.485031-2.80236487 46.679382-4.25438868 6.257968-.4094158 8.998516-.58987726 11.525098-.76400283l.387463-.02676859c.77333-.05355729 1.542443-.10759557 2.403568-.16859986l3.236904-.23401819c34.32564-2.53599055 178.520558 2.8368438 440.383969 16.1666536zm-437.436787 23.7246251-3.299139.2385674c-23.079914 1.6352952-45.817757 2.5931653-65.264813 6.0722927l-1.101043.2008015c-12.848042 2.389006-19.272064 5.2343805-19.272064 8.5361235v847.8152475c.925885 3.645944 3.80908 6.247213 8.649585 7.803807 5.300352 1.70447 43.763004 4.011953 81.950288 5.133738l3.137373.089494c13.064074.361464 25.98841.578117 37.429972.578117 47.650711 0 185.527219-3.658932 423.64934-19.264232l7.246516-.476553c3.873052-.255585 10.81263-.354819 18.985331-3.014757 1.970054-.641186 4.789734-1.937891 8.459039-3.890114 2.3881-1.267063 3.881197-3.749476 3.881197-6.452893v-802.8072692c0-3.4033867-1.278548-6.6825926-3.581371-9.1885943-.45013-.4911903-.849855-.9071493-1.198413-1.2485771-3.606533-3.5327483-7.426591-6.11309-11.460175-7.7410251-5.86472-2.3669732-15.366431-4.0062126-28.505131-4.9177184l-24.312531-1.2432788c-258.527948-13.1600215-403.659269-18.5677471-435.393961-16.2231767zm439.891339 575.1779966c1.815968 104.036712-75.862977 190.015926-173.850446 191.726304s-178.619725-81.505504-180.435692-185.542216c-1.815968-104.036712 75.862977-190.015926 173.850446-191.726304 97.987469-1.710377 178.619725 81.505504 180.435692 185.542216zm-177.492082-165.567993-2.594562.022731c-86.63535 1.512226-155.83073 78.101376-154.20254 171.380302 1.62819 93.278925 73.454341 167.406536 160.08969 165.89431 86.63535-1.512226 155.83073-78.101376 154.20254-171.380302-1.595625-91.413346-70.609373-164.433771-154.909783-165.894728zm126.023829 163.423123c1.23187 70.573826-51.538563 128.982967-118.215729 130.146821-66.677167 1.163854-121.453903-55.368043-122.685774-125.94187-1.231871-70.573826 51.538563-128.982966 118.215729-130.146821 66.677166-1.163854 121.453903 55.368044 122.685774 125.94187zm-120.679816-105.9594-1.65691.014484c-55.325047.965703-99.611916 49.98478-98.567823 109.800819 1.044093 59.81604 47.014724 107.259666 102.339772 106.293964 55.325047-.965702 99.611916-49.98478 98.567823-109.800819-1.023211-58.619719-45.19387-105.356972-99.031779-106.294103zm65.153856-26.976857c.147651 8.45891-6.267811 15.559887-14.504169 15.703653s-14.895732-6.728989-15.043383-15.187898c-.147651-8.45891 6.267811-15.559887 14.504169-15.703653s14.895732 6.728988 15.043383 15.187898zm-14.868859-5.189421c-2.560298.04469-4.733978 2.450635-4.680216 5.530651.053762 3.080017 2.310084 5.408636 4.870382 5.363946s4.733978-2.450635 4.680216-5.530652c-.053762-3.080016-2.310083-5.408635-4.870382-5.363945zm-224.19658-344.872323 336.689385 14.37559c5.352057.228516 9.573419 4.633963 9.573419 9.990897v168.828835c0 5.624351-4.636724 10.142416-10.259186 9.996641l-2.305044-.058817c-.452623.050619-.914203.070926-1.38263.058861l-333-8.576757c-5.420754-.139617-9.742525-4.574132-9.742525-9.996685v-174.627668c0-5.690234 4.741526-10.233631 10.426581-9.990897zm9.573419 23.628322v151.093575l312.999835 8.113017.000165-145.930592z"/></svg>