<svg id="Layer_1" data-name="Layer 1" xmlns="http://www.w3.org/2000/svg" viewBox="0 0 1417.32 446.16"><title>LED Driver</title><path d="M1375.74,0H41.59A41.63,41.63,0,0,0,0,41.59v363a41.63,41.63,0,0,0,41.59,41.59H1375.74a41.63,41.63,0,0,0,41.59-41.59v-363A41.63,41.63,0,0,0,1375.74,0Zm25.42,404.58A25.42,25.42,0,0,1,1375.74,430H41.59a25.42,25.42,0,0,1-25.42-25.42v-363A25.42,25.42,0,0,1,41.59,16.17H1375.74a25.42,25.42,0,0,1,25.42,25.42Z"/><path d="M1375.74,31H327V16.17h-8.08V31H41.59A10.55,10.55,0,0,0,31,41.59v363a10.55,10.55,0,0,0,10.54,10.54H318.94V430H327V415.12H1375.74a10.55,10.55,0,0,0,10.54-10.54v-363A10.55,10.55,0,0,0,1375.74,31ZM41.59,407a2.46,2.46,0,0,1-2.45-2.45v-363a2.46,2.46,0,0,1,2.45-2.46H281.11V407Zm1336.61-2.45a2.46,2.46,0,0,1-2.46,2.45H289.2V39.13H1375.74a2.46,2.46,0,0,1,2.46,2.46Z"/></svg>
