<?xml version="1.0" encoding="utf-8"?>
<svg version="1.1" id="Layer_1" xmlns="http://www.w3.org/2000/svg" xmlns:xlink="http://www.w3.org/1999/xlink" x="0px" y="0px"
	 viewBox="0 0 1417.3 367.9" style="enable-background:new 0 0 1417.3 367.9;" xml:space="preserve">
<g>
	<g>
		<g>
			<path d="M287.5,120.7c0,74.2-35.2,112.6-105.7,114.5h-10.1l42.8,40.9c23.9,24.5,25.8,49.1,5.7,73.6c-20.1,23.9-45.9,23.9-76.1,0
				L39.7,245.9c-25.8-20.1-39-37.1-39-50.9c0-39.6,18.9-59.1,56-59.1h124.5c13.2,0,20.1-5,20.1-15.1s-6.9-15.1-20.1-15.1H47.9
				C16.4,105.7,0.7,89.3,0.1,56C-1.2,22.6,15.2,6.3,47.2,6.3h128.3C250.4,6.3,287.5,44,287.5,120.7z"/>
			<path d="M315.8,184.3c0-25.2,5-49.1,14.5-71.7c9.4-22.6,22.6-42.1,39-58.5s35.8-29.6,58.5-39.6C450.4,5,473.6,0,499.4,0
				c25.2,0,49.1,5,71.7,14.5c22.6,9.4,42.1,22.6,58.5,39.6c16.4,16.4,29.6,35.8,39,58.5c9.4,22.6,14.5,45.9,14.5,71.7
				c0,25.2-5,49.1-14.5,71.7c-9.4,22.6-22.6,41.5-39,58.5c-16.4,16.4-35.8,29.6-58.5,39c-22.6,9.4-46.5,14.5-71.7,14.5
				c-25.2,0-49.1-5-71.7-14.5c-22.6-9.4-41.5-22.6-58.5-39c-16.4-16.4-29.6-35.8-39-58.5C320.8,233.3,315.8,209.4,315.8,184.3z
				 M416.4,185.5c0,11.3,1.9,22.6,6.3,32.1c4.4,10.1,10.1,18.9,17.6,26.4c7.5,7.5,16.4,13.2,26.4,17.6c10.1,4.4,20.8,6.3,32.7,6.3
				c11.3,0,22.6-1.9,32.7-6.3c10.1-4.4,18.9-10.1,26.4-17.6c7.5-7.5,13.2-16.4,17.6-26.4c4.4-10.1,6.9-20.8,6.9-32.1
				c0-11.3-2.5-22.6-6.9-32.7s-10.1-18.9-17.6-26.4s-16.4-13.2-26.4-17.6c-10.1-4.4-21.4-6.3-32.7-6.3c-11.9,0-22.6,2.5-32.7,6.3
				c-10.1,4.4-18.9,10.1-26.4,17.6c-7.5,7.5-13.8,16.4-17.6,26.4C418.9,162.9,416.4,174.2,416.4,185.5z"/>
			<path d="M767.3,235.2c-31.4,0-47.2-16.4-47.2-49.7s15.7-49.7,46.5-49.7h152.8c13.2,0,20.1-5,20.1-15.1s-6.9-15.1-20.1-15.1H766.1
				c-30.2,0-45.9-16.4-45.9-49.7s15.1-49.7,45.3-49.7h189.3c42.8,0,69.2,15.1,80.5,45.3c11.9,30.2,12.6,59.1,2.5,86.2
				c-10.1,27-30.8,42.8-62.3,47.2c31.4,5,52.2,20.8,62.3,48.4c10.7,27,9.4,56-2.5,86.2c-11.3,30.2-37.7,45.9-79.2,45.9h-188
				c-31.4,0-47.2-16.4-47.2-49.7s15.7-49.7,47.8-49.7h151.6c13.2,0,20.1-5,20.1-15.1c0-10.1-6.9-15.1-20.1-15.1
				C919.5,235.2,767.3,235.2,767.3,235.2z"/>
			<path d="M1139.6,235.2c-31.4,0-47.2-16.4-47.2-49.7s15.7-49.7,46.5-49.7h152.8c13.2,0,19.5-5,19.5-15.1s-6.9-15.1-19.5-15.1
				h-153.4c-30.2,0-45.9-16.4-45.9-49.7s15.1-49.7,45.3-49.7H1327c42.1,0,69.2,15.1,80.5,45.3c11.9,30.2,12.6,59.1,2.5,86.2
				c-10.1,27-30.8,42.8-62.3,47.2c31.4,5,52.2,20.8,62.3,48.4c10.7,27,9.4,56-2.5,86.2c-11.3,30.2-37.7,45.9-79.2,45.9h-188
				c-31.4,0-47.2-16.4-47.2-49.7s15.7-49.7,47.8-49.7h151.6c13.2,0,19.5-5,19.5-15.1c0-10.1-6.9-15.1-19.5-15.1
				C1291.8,235.2,1139.6,235.2,1139.6,235.2z"/>
		</g>
	</g>
</g>
</svg>
