<svg height="960" viewBox="0 0 960 960" width="960" xmlns="http://www.w3.org/2000/svg"><path d="m263.978579 3.25845233 472.113734 1.60274231.01131.00004154c29.65913.11731678 54.17268 22.22900312 54.17268 51.38905342v826.7264354c0 28.882734-24.194624 52.727283-53.56178 53.744335l-470.486965 16.241701-2.11501.073013-2.083453-.371242c-28.184294-5.022038-51.259482-15.612866-67.608976-30.672174-16.175562-14.8991-25.151665-33.751126-25.143816-53.106851.232024-352.44741.405934-616.600137.521737-792.4581801.017186-26.0981296 15.144108-45.7461468 38.895414-58.5507703 15.469738-8.33992753 34.690224-13.48916653 48.360146-14.22736864l.481698-.02373563 5.110061-.32478049.665943-.04221951zm-14.64349 41.86650697-.269262.0623062c-6.91749 1.6217337-14.848264 4.3715008-21.390617 7.8985647-12.010137 6.4748135-17.871067 14.0874434-17.877178 23.3678368-.115803 175.85804-.289714 440.010765-.521732 792.45312 0 7.680656 3.985756 16.058266 12.243397 23.664272 9.170245 8.446594 22.746881 15.181004 40.24277 19.227169-11.665724-11.941762-18.854829-28.276365-18.854829-46.290074v-797.05768c0-8.5264879 2.345888-16.5050643 6.427451-23.3255147zm13.572549 23.3255147v797.05768c0 24.211444 18.602653 44.078005 42.294485 46.086211l430.13016-14.849416c8.136295-.281778 14.762757-6.70781 14.944017-13.489345v-827.0053144c0-6.1199296-5.804432-11.3556399-14.330896-11.3893663l.011309.0000415-451.889402-1.5335318c-12.015139 2.0559071-21.159673 12.5215639-21.159673 25.123041z"/></svg>