<svg height="960" viewBox="0 0 960 960" width="960" xmlns="http://www.w3.org/2000/svg"><path d="m413.382381-.03888984.261619.04290821 1.04316.00649995c5.104188.0575272 10.22492.35100681 15.354585.88099512l1.539159.16609231c62.354043 7.01502347 117.756363 41.96546935 156.829192 97.55735405 38.615349 54.9409932 59.589904 127.3758762 59.589904 208.3723792v343.025322c0 81.467144-20.954529 153.945861-59.620311 208.804453-38.641456 54.824078-93.303609 89.409662-154.92922 96.906405l-1.438469.167777-.43903.150173c-4.591008 1.512842-9.539983 2.212942-14.670436 1.933541l-.700716-.044187-183.019669-13.114721c-.416057-.029814-.83026-.065921-1.242516-.108225l-.209633-.023859-1.195892-.067467c-61.380884-3.761142-116.981424-35.003907-157.1935826-86.321715l-1.238758-1.593541c-39.9583345-51.814555-62.1017674-120.631505-62.1017674-195.094316v-367.213958c0-73.339453 21.4769886-141.214401 60.3383441-192.781172 38.7282589-51.3901602 92.6140629-83.678744 152.5864709-89.618618l.043185-.0032126.189637-.0417114c1.609073-.3349983 3.254957-.5740721 4.93166-.7108122l.630197-.0464681 175.934282-11.60034063c2.979198-.1964353 5.900311-.06223007 8.728605.37042409zm-10.591033 39.83471954-38.154464 2.5132015c-90.08098 17.8093713-157.380945 118.5110538-157.380945 247.1407998v377.100338c0 130.54477 69.31879 232.323708 161.419292 247.880931l28.243433 2.023613c4.013021-.093729 8.057601-.347528 12.130362-.765569 111.447245-11.439277 198.266011-114.286926 198.266011-266.178055v-343.022178c0-150.854148-86.818766-254.7387783-198.266011-266.1780553-2.093491-.2148823-4.179537-.3863687-6.257678-.515026zm-101.400084 6.6889349-70.040058 4.6195944.000605.3122457c-102.381429 7.3012669-181.351811 109.7573473-181.351811 242.9764163v367.213958c0 135.245775 81.391465 238.785426 186.040559 243.24335l.000557.068075 65.504836 4.694523c-68.544816-43.242082-114.290013-134.472984-114.290013-243.062758v-377.100338c0-108.508068 45.676382-199.6833757 114.135325-242.9650664zm111.608736 752.5152354c4.970563 0 9 4.029437 9 9v24c0 4.970563-4.029437 9-9 9s-9-4.029437-9-9v-24c0-4.970563 4.029437-9 9-9zm-3.978594-744.094312c55.776764 5.7250931 105.492404 34.6533478 140.364515 81.4702 33.320439 44.733688 51.476033 103.807324 51.476033 170.113023v173.022178c0 66.611323-18.060712 125.649459-51.297424 170.27074-34.827815 46.757384-84.589617 75.569249-140.543124 81.312483-53.630845 5.50483-103.764249-17.573903-140.044213-62.366086-35.36867-43.667077-55.268172-104.994086-55.268172-172.178057v-207.100338c0-67.183971 19.899502-128.51098 55.268172-172.178057 36.279964-44.7921828 86.413368-67.8709157 140.044213-62.366086zm-124.502646 74.954164c-31.544738 38.945951-50.809739 95.314856-50.809739 159.589979v207.100338c0 64.275123 19.265001 120.644028 50.809739 159.589979 31.343604 38.697626 74.680149 59.963014 122.460516 55.058695 50.21925-5.154654 94.966874-30.968574 126.545786-73.364209 29.630825-39.780269 47.336892-94.073759 47.336892-158.323545v-173.022178c0-63.925045-17.796237-118.266826-47.515501-158.165827-31.564884-42.376803-76.233173-68.3760231-126.367177-73.5219266-47.780367-4.9043191-91.116912 16.3610689-122.460516 55.0586946zm547.51624 42.551659c57.404306 4.606736 102.635518 55.089283 102.635518 113.350535v377.475908c0 58.261252-45.231212 108.743799-102.635518 113.350535-3.292265.264207-6.579707.368629-9.914219.312387l-.243242-.004512c-2.990825-.059431-5.96695-.252033-8.921594-.576751l-1.204945-.140858-62.026859-4.797881c-3.53562-.273481-6.934603-1.001052-10.141459-2.122905l-.196682-.070214-.852216-.186783c-45.584468-10.355793-77.841623-51.406129-78.522786-100.471216l-.010998-1.585497v-384.888518c0-49.764233 32.459161-91.589567 78.533784-102.056713l.856216-.187273.192797-.069765c3.018228-1.055854 6.206644-1.762447 9.518987-2.069914l.622505-.052961 61.994711-4.79436 1.237519-.144431c2.539883-.27912 5.095637-.460613 7.662954-.543809l.494527-.01276.482202-.020163.76056-.016724c3.225378-.040243 6.452262.065756 9.678238.324643zm-9.945782 39.698625-.600986.020736c-.149224.005894-.298297.012338-.447218.019331l.447293-.019334c-.363223.014347-.725554.031951-1.086969.05279l.639676-.033456c-.319663.015009-.638626.032544-.95687.052589l.317194-.019133c-.325737.018781-.65073.040189-.974961.064207l.657767-.045074c-.38095.023994-.760871.051584-1.139734.082741l.481967-.037667c-.31887.02362-.637003.049763-.954381.078413l.472414-.040746c-.333556.02743-.666293.057626-.99819.090566l.525776-.04982c-.368034.033222-.735053.069815-1.101032.109751l.575256-.059931c-.315568.03132-.630377.065121-.94441.101387l.369154-.041456c-.334636.036516-.668402.075827-1.001277.117914l.632123-.076458c-.354145.040899-.707302.084931-1.059448.132074l.427325-.055616c-30.399178 3.843453-53.369687 30.830087-53.369687 65.446056v393c0 34.832129 23.258285 61.939343 53.940037 65.515347.1586.018485.317291.036329.476177.053543l-.476177-.053543c.341421.039793.683761.076672 1.026999.110616l-.550822-.057073c.325799.035298.652421.067947.979848.097927l-.429026-.040854c.348868.034501.698664.065968 1.049363.094381l-.620337-.053527c.349755.032026.700429.061006 1.051998.08692l-.431661-.033393c.312215.025294.625147.048166.938779.068601l-.507118-.035208c.335159.024704.671132.04662 1.007899.065729l-.500781-.030521c.373029.024305.747049.045161 1.122032.062541l-.621251-.03202c.331293.018798.663355.034879.996167.048225l-.374916-.016205c.319291.014799.639281.027077.959952.036819l-.585036-.020614c.371057.014879.743046.026357 1.11594.034409l-.530904-.013795c.711029.021601 1.425411.030729 2.142962.027203.157487-.000774.315358-.00216.47338-.004159l-.47338.004159c.340493-.001674.6817-.006197 1.023601-.013589l-.550221.00943c.362955-.004592.726708-.01242 1.091235-.023506l-.541014.014076c.38577-.00834.772423-.020333 1.159931-.036007l-.618917.021931c.318986-.009702.638566-.0219.958722-.036609l-.339805.014678c.331461-.013406.663548-.029506.996244-.048316l-.656439.033638c.707836-.03252 1.418492-.077317 2.131798-.13456 36.35981-2.917901 65.835259-35.815444 65.835259-73.47872v-377.475908c0-37.663276-29.475449-70.560819-65.835259-73.47872l-1.070203-.07677c-.045716-.002893-.091421-.005736-.137114-.00853-.3156-.019097-.631009-.035882-.945861-.050239l.945861.050239c-.340825-.020835-.681014-.038906-1.020544-.054299l.074683.00406c-1.544991-.070448-3.076537-.082408-4.592863-.037651zm-55.128024 4.292718-14.152263 1.097146-.001214.532761c-30.119856 4.018352-52.807717 30.330703-52.807717 64.02298v384.888518c0 33.692277 22.687861 60.004628 52.807717 64.02298l.001214.532761 14.151301 1.096142c-14.857982-15.491548-23.960232-37.198023-23.960232-61.596142v-393c0-24.398646 9.102643-46.105532 23.961194-61.597146zm63.462977 10.893264.270378.019629c32.959402 2.392874 59.347786 31.776499 59.347786 65.729098v249.983431c0 34.080221-26.584455 62.749049-59.697147 63.990786l-.270378.01014c-33.49103 1.255924-60.446627-26.667185-60.446627-61.862085v-257.78568c0-35.329778 27.174916-62.526231 60.795988-60.085319zm-40.795988 60.085319v257.78568c0 24.172199 17.880298 42.694272 39.697147 41.876133l.270378-.01014c22.195187-.832327 40.446627-20.514784 40.446627-44.004834v-249.983431c0-23.61767-18.447511-44.159085-40.795988-45.781599l-.270377-.019629c-21.686808-1.574476-39.347787 16.1005-39.347787 40.13782z"/></svg>