<svg height="960" viewBox="0 0 960 960" width="960" xmlns="http://www.w3.org/2000/svg"><g fill="#000" fill-rule="evenodd"><path d="m327.890043 112.647748 420.842062 249.570771c13.435355 7.967531 21.003685 23.0269 19.380204 38.562492l-5.529076 52.902839 176.435765 109.310025c14.176558 8.783041 21.401481 25.42703 18.175604 41.753025l-.100956.494621-12.649927 60.055034c-1.570199 7.454459-5.236459 14.305518-10.567564 19.747375-40.922598 41.772752-57.782709 58.983126-73.73282 75.264595l-.975597.995865-1.624149 1.65789c-.293949.300055-.588017.600232-.88235.90068l-.883939.902303c-.147505.150569-.295112.301243-.44284.45204l-.887965.906412c-9.341934 9.536009-19.308446 19.709573-34.455123 35.170916-17.399064 17.760524-17.399064 17.760524-28.471195 29.062675-2.304422 2.352295-3.388005 3.45839-4.309112 4.398633l-.210161.214526-.10382.105978-.230843.235638c-.616769.629582-1.257306 1.283426-2.263863 2.310894-1.087442 1.110033-1.087442 1.110033-1.77945 1.816417-.27186.277508-.27186.277508-.444862.454104-.067965.069377-.067965.069377-.111216.113526l-.035768.036512c-13.841123 14.128668-35.927651 16.021343-51.969285 4.454656l-.013692-.009873c-.015975-.011518-.015975-.011518-.041078-.029618-.063898-.046074-.063898-.046074-.164311-.118475-.255594-.184294-.255594-.184294-.657242-.473899-1.022377-.737177-1.022377-.737177-2.628969-1.895597-1.36317-.982902-2.271949-1.63817-3.115816-2.246633l-.295774-.213265-.294189-.212123-.138433-.099816-.279897-.201817c-1.366391-.985225-2.965947-2.138572-6.39177-4.608732-6.216052-4.482033-10.070004-7.260893-13.869966-10.000824l-.599882-.43254-.636435-.458896-.640089-.46153-.429939-.310005-.433339-.312455c-5.440945-3.923148-11.845079-8.540795-25.453862-18.353295-22.239901-16.035896-36.920623-26.621308-50.648962-36.520012l-1.096361-.790522c-.18243-.131539-.364722-.26298-.546891-.394331l-1.064413-.767486c-.708833-.511098-1.41627-1.02119-2.123239-1.530944l-2.399527-1.730159-.612277-.441477-1.225964-.883971-1.191825-.859356c-19.493114-14.055347-40.421946-29.145907-81.958588-59.095557l-.473834-.341132-38.706959 31.617565c-14.083058 11.50361-34.130477 12.048187-48.806316 1.389127l-.443067-.326431-413.6584739-309.130534c-8.1251813-6.072018-13.6400811-15.00413-15.42855-24.988586-3.70140524-20.663772-7.46388761-41.93537-11.28748077-63.814925-.3973562-2.273772-.59715283-4.577671-.59715283-6.885901 0-35.708319 18.0674164-64.066473 50.0892237-79.317627l.7077763-.332688 234.8904995-136.44865c12.534348-7.281269 28.027117-7.21143 40.49531.182548zm204.204652 492.925033-.008546.449878c-.129291 6.806061-.215093 11.322811-.295021 15.530354l-.015918.837973c-.002644.139171-.005284.278144-.007922.416995l-.028203 1.484684-.005833.307018-.011703.616085-.011778.619988c-.114244 6.013998-.242607 12.771218-.493391 25.972902l-2.098874-1.513382c119.501016 86.165212 191.260078 137.906486 215.277184 155.22382l8.486149-51.879793-220.670848-154.135892c-.026454 1.39258-.060457 3.182541-.115296 6.06937zm375.565538 40.284069-139.693 139.434-2.349672 14.348031c20.540917-20.967647 67.102602-68.496636 139.685055-142.586965zm-208.64868-184.527042-1.458832 1.156467c-43.281471 34.292272-61.645233 48.842034-79.532556 63.01431l-1.882172 1.491261-1.491738 1.181916-.997025.789951c-.166404.131844-.332938.26379-.499621.395854l-1.002042.793927c-10.710848 8.486294-22.191316 17.582365-39.527593 31.318043-10.943964 8.670994-15.947881 12.635639-20.28751 16.073963l-.411458.326002-.473887.375464c-.472391.374279-.941086.745631-1.413213 1.119701l-.473534.375185c-1.533387 1.214915-3.127237 2.477736-5.020992 3.978174l218.129853 152.360824 146.536-144.503-172.060961-106.59974c-1.095218-.24843-2.16691-.68699-3.167949-1.326079zm-466.17732 4.942042.000807 52.665716c0 2.308381-.782151 4.434081-2.095894 6.12654l225.598087 168.590744v-68.938zm279.567994 122.922048-36.064994 29.990952v74.222l36.542449-29.84791c-1.178581-1.701105-1.81951-3.753339-1.780135-5.88525.327975-17.177856.478142-25.07553.607737-31.896988l.010191-.53645c.003385-.178171.006758-.355746.010123-.532875l.043298-2.279256c.087042-4.582054.176641-9.298654.318861-16.785321.092926-4.891793.128667-6.773252.164808-8.675762l.006795-.357708c.020484-1.078303.042233-2.223213.075496-3.974253.038657-2.034921.055542-2.923811.065371-3.441179zm401.816006 25.528952-3.477926 3.428994c.906708-.046683 1.818538.02945 2.708427.228372zm-606.73135-467.67-236.6004314 137.442451c-5.9323872 2.604342-10.9601952 5.780626-15.083424 9.528852-1.3392526 2.125808-1.7716395 4.397911-1.4804203 7.014014.6597409 5.926634 4.948143 13.876194 13.1928534 23.46335l.1285075.148289 394.9279998 279.971 256.627265-213.411956zm-254.5216928 245.159382 159.8690428 119.471618v-50.943685l-168.6875074-118.251987c2.9773963 16.950767 5.9168845 33.525451 8.8184646 49.724054zm673.8750428 18.654618-73.734125 61.318168c10.594587-8.39418 23.288594-18.451748 39.070924-30.95622 3.342539-2.648322 7.996787-2.885516 11.591241-.590723l18.71296 11.945775zm-342.059283-12.748159c3.065998 4.593637 1.827602 10.802998-2.766035 13.868996l-36.713043 24.503922c-4.593637 3.065998-10.802998 1.827602-13.868996-2.766035s-1.827602-10.802998 2.766035-13.868996l36.713043-24.503922c4.593637-3.065998 10.802998-1.827602 13.868996 2.766035z" fill-rule="nonzero"/><path d="m697.676174 659.029992c-22.770321-14.613612-34.155482-21.920418-34.155482-21.920418s10.349997-10.2654 31.049991-30.7962l33.758262 23.547432z"/><path d="m739.65096 568.121837c18.703115-17.570566 28.054672-26.355849 28.054672-26.355849s10.935289 7.004487 32.805867 21.01346l-28.537661 27.509712z"/></g></svg>