<svg height="960" viewBox="0 0 960 960" width="960" xmlns="http://www.w3.org/2000/svg"><path d="m317.612675 120.99981c53.801707.167909 128.738739.860329 224.844583 2.079826l-.138699-.001519 186.895265 1.72336c20.349201.187639 35.66293 14.968657 39.003024 32.739246l.033152.192053 23.349642 26.636067c.111406.127093.222004.25489.331789.383383l.326902.387557 6.046667 7.260993.76924.173329c15.708227 3.717837 29.204213 16.588787 30.749155 35.604191l.075802 1.103838c.067156 1.19517.100803 2.392617.100803 3.590975v467.253185c0 14.865454-5.174766 29.267278-14.635976 40.733194l-36.360623 44.064962c-12.026401 14.574638-29.878715 23.08982-48.773652 23.264082l-4.229749.038278v315.77319c0 10.93064-8.768729 19.81323-19.655511 20h-46.344489c-11.045695 0-20-8.95431-20-20v-314.98019l-5 .047v314.93319c0 10.93064-8.768729 19.81323-19.655511 20h-46.344489c-11.045695 0-20-8.95431-20-20v-314.14019l-6.28204.058763.139388-.001529c-9.14277.116219-18.095962.227659-26.859609.334323l.002261 313.748583c.000028 10.93065-8.768708 19.81327-19.65551 20.00005h-46.34449c-11.045674 0-19.99997-8.95427-20-19.99995l-.002102-312.794853c-1.676413.016458-3.343161.032672-5.000242.048642l.002344 312.746141c0 10.93064-8.768722 19.81324-19.65551 20.00002h-46.34449c-11.045669 0-19.999963-8.95426-20-19.99993l-.00272-312.088753c-1.682672.008527-3.348648.016635-4.99793.024323l.00065 312.06436c0 10.93064-8.768729 19.81323-19.655511 20h-46.344489c-11.045709 0-20.00002-8.95433-20-20.00004l.000512-313.428629c-5.546481-.184765-11.325567-.387398-17.338014-.607892l-.597498-.022663-.26633-.002699c-18.843446-.308089-36.670063-8.721175-48.834811-23.14468l-.403389-.483007-35.716042-43.205203c-9.592286-11.608154-14.844428-26.182763-14.844428-41.239139v-470.732693c0-15.056377 5.252142-29.630985 14.886122-41.289511l.132939-.160342c6.069374-7.32048 14.500774-12.18753 23.736071-13.842578l.412868-.071148 2.23-2.772-.006901-.547801c-.063469-9.176579 3.033462-18.130475 8.816933-25.328525l.357443-.43849c12.167218-14.712631 30.18038-23.310124 49.233195-23.621634l.23133-.00255.659911-.024461c35.084458-1.304556 62.445242-1.983291 82.263556-2.034505zm-49.611639 690.18878-.001036 312.81141h46l.00096-311.998219c-12.108647-.019795-27.428688-.291016-45.999924-.813191zm90.996454.606734.00251 312.204676h46l-.001992-312.561054c-16.374822.14498-31.708184.263761-46.000518.356378zm91.00189-.793218.00062 312.997894h46l-.000934-313.509661c-16.010236.187641-31.343389.358224-45.999686.511767zm165.00062-1.751296-46 .425v314.32419h46zm91-.839-46 .424v315.16419h46zm-378.496673-647.375737-.324541.023888c-6.266005.518834-12.107202 3.481779-16.231703 8.287182l4.161917 2.046667 17.979528 8.468959c.870433.409957 1.650404.925598 2.333993 1.523119l8.640641 4.250887-7.911162 10.175035-21.249728 28.367406c-.774147 1.033459-1.716458 1.879738-2.764401 2.523742l-2.715441 3.492516-4.041136-2.126088c-.976306-.149844-1.943475-.447023-2.869703-.899215l-27.952591-13.647361-.085255.105126c-3.538738 4.296998-5.473745 9.690476-5.473745 15.25706v475.230008c0 5.566584 1.935007 10.960062 5.473745 15.25706l36.158169 43.905935c4.19974 5.099637 10.295028 8.220335 16.829451 8.683764 5.628329-.023389 11.464927-.051419 17.508246-.084656l152.963976-1.412258c.19921-.002346.398524-.004695.597943-.007046l-2.532446.029769c3.269298-.038349 6.566869-.077411 9.892712-.117185.105149-.00125.208778-.00249.312435-.00373 3.608373-.043185 7.251319-.087217 10.927535-.132086 1.518816-.018536 3.041988-.037201 4.570829-.056009l2.936269-.036212c.810694-.010022 1.622967-.020084 2.436819-.030186.611196-.007586 1.223909-.015202 1.837514-.022842.947006-.01179 1.896641-.023639 2.848403-.035542 2.317482-.028984 4.64724-.058281 6.989609-.087895 1.240709-.015687 2.484997-.031463 3.732824-.047328l26.515967-.245781v.001034l46-.424 45-.416034v.001034l46-.425 23.860713-.219575c7.085655-.065349 13.780273-3.258542 18.290173-8.724032l36.360623-44.064961c3.547954-4.299719 5.488491-9.700403 5.488491-15.274948v-467.253185c0-.320715-.006423-.640856-.019206-.960244-.002097-.052427-.00438-.105121-.006835-.157794l.006835.157794c-.00515-.128688-.011333-.257255-.018544-.385688l-4.77416 6.209154-7.19009-8.203521-.396293.515802-.162707-.194802-.111757.14619-19.290243-23.23919-32.037-36.546579 2.845-5.414421-186.895265-1.723394c-15.34279-.194686-30.144747-.375916-44.405872-.543702l-153.240757-1.415502c-5.795514-.031891-11.395441-.058937-16.799779-.081139zm-75.568423 52.045839-62.792904 1.671898-.075324.094383-13.254676.365238-.132939.160687c-3.673074 4.44499-5.679061 10.011635-5.679061 15.759237v470.732693c0 5.747602 2.005987 11.314247 5.679061 15.759237l35.711193 43.199335c4.79197 5.794463 11.971812 9.143467 19.553496 9.122124.927237.034193 1.848853.067958 2.764848.101297.378129.013762.755806.02747 1.132524.041105.311236.011265.620876.022446.929864.033578l1.001509.035989c.412424.014783.823677.029477 1.233759.044081.549889.019583 1.096326.038959 1.640667.058175.542515.019154 1.083474.038167 1.622348.057021.145573.005091.289133.010108.432544.015113l-.432544-.015113c.291801.01021.582991.020373.873569.03049l-.441025-.015377c2.658236.092779 5.265498.181685 7.821788.266718.061207.002051.121517.004056.181799.006059l-.181799-.006059c1.237657.041169 2.463365.081431 3.677125.120785.658516.02138 1.314748.042506 1.967451.063364 1.777393.056757 3.528577.111559 5.253583.164371.348201.010728.695786.021324 1.042301.031838.085093.002509.169565.005069.253974.007624l-.253974-.007624c.839426.025472 1.672575.050466 2.499449.074985.726193.021433 1.448707.042626 2.166365.06345.600949.017559 1.19935.034769 1.794336.05172.025305.000584.050866.001312.076422.002039l.553401.015844c8.399999.23769 16.113778.42332 23.141337.556948l-32.660172-39.658885c-6.487685-7.877829-10.035199-17.765873-10.035199-27.971276v-475.230008c0-5.44443 1.009645-10.798536 2.934904-15.803084zm477.85892-16.471865c2.818869 0 5.508007 1.184213 7.405421 3.268883l33.460144 36.762309c1.675851 1.84124 2.604592 4.24141 2.604592 6.731117v445.82385c0 2.321947-.808015 4.571525-2.285424 6.362808l-23.720563 28.759957c-1.879104 2.278316-4.669174 3.609518-7.62231 3.636766l-378.026974 3.488476c-3.01881.027428-5.88863-1.309998-7.808804-3.639574l-23.384952-28.370876c-1.476183-1.790921-2.283461-4.039541-2.283461-6.360427v-457.723647c0-2.320887.807278-4.569506 2.283461-6.360427l23.384952-28.370876c1.89739-2.301935 4.723408-3.636581 7.706525-3.639568zm-4.407331 20.003-359.15.36-18.105 21.966v450.544l18.065 21.917 368.596-3.401 18.471-22.395v-438.363zm-428.586427-31.73442-.139563.003658c-27.263905.616281-48.796996 1.178515-65.227586 1.676745l-.743334.022603c-5.947783.181358-10.773437.34092-14.566629.477257-1.323541.047571-2.422653.088801-3.308536.123509-.526078.020612-.861388.034344-1.017119.041017-.171905.007366-.342982.010347-.513123.009042l-5.694176 7.076352 67.402263-1.793556c3.963973-.506025 8.09657.170138 11.841452 2.140801l19.079285 10.040003 9.29-11.951-6.791-3.340248zm-4.144195-23.649391-.107587.001983c-5.207331.094886-10.775887.218775-16.705669.371675-.568107.014648-1.139525.029563-1.714259.044744-3.979933.105127-8.119632.223045-12.418381.353739-.640661.019478-1.284248.039221-1.931361.059247-4.687611.145067-9.560655.305011-14.618756.479821-.716782.024772-1.437472.04985-2.161881.075226-3.05396.106982-6.173527.219255-9.359158.336836-.893252.03297-1.791564.066353-2.695069.100152-4.913534-.013832-9.658292 1.387905-13.69368 3.95346 3.510008-.12206 7.768809-.260872 12.829961-.415195 15.610212-.475984 35.87156-1.010312 61.334001-1.594363.282955-1.279767.695713-2.541895 1.241839-3.767325z"/></svg>