<svg height="960" viewBox="0 0 960 960" width="960" xmlns="http://www.w3.org/2000/svg"><path d="m409 39.0480549c77.363811 0 151.413786 11.948351 213.979293 34.0674382 62.006561 21.92148 111.122759 53.2223129 140.642279 91.5918989 1.481444 1.55041 2.833212 3.245575 4.050601 5.060634.300205.447588.598723.894473.894589 1.340251 3.009841 4.247911 5.77478 8.588107 8.290431 13.013814 13.568066 22.251371 22.814525 42.918746 27.54832 62.380001 4.973142 20.445242 7.829324 51.852305 9.06085 95.795577.182791 2.653787.270479 5.320037.270479 7.998074 0 .664837 0 1.329461-.018047 1.993753.003065.135531.006.272075.00892.408733.035932 1.681707-.034251 3.364006-.210131 5.036876-.015947.151684-.031945.303212-.048306.453609-.280139 4.542207-.825915 9.061391-1.632543 13.548753-1.988152 14.749487-4.540067 27.88875-7.711135 39.499709-.820883 3.005687-1.770928 6.227405-2.850966 9.669702 1.245385-.307937 2.474677-.597669 3.695648-.870761 12.279581-2.746546 23.949256-3.856326 39.665304-3.856326 19.236203 0 39.791274 7.695951 58.465255 20.744017 17.637261 12.323678 32.597612 28.793863 41.425524 46.078754 4.937286 9.667115 7.94271 19.523943 8.639538 29.252298.799772 11.165539-1.474165 21.885658-7.023046 31.396165-5.694424 9.75996-14.504433 17.679458-25.99279 23.552497-10.997113 5.621907-24.500567 9.411777-40.526702 11.425655-61.305634 7.703796-113.417934 33.423335-156.916148 77.570883 3.046414 3.315724 5.625566 7.076634 7.634767 11.185884 4.241351 8.674478 5.697903 18.400134 4.21327 27.851012 10.851578 6.647929 20.574397 14.468631 28.920217 23.2776 20.080549 21.194914 31.524529 47.418191 31.524529 75.485444 0 19.022463-5.285114 37.379345-15.134993 53.930955-9.039258 15.189452-21.719875 28.52996-37.132089 39.484096-29.517313 20.979247-68.123294 32.584949-108.732918 32.584949s-79.215605-11.605702-108.732918-32.584949c-15.412214-10.954136-28.092831-24.294644-37.132089-39.484096-9.849879-16.55161-15.134993-34.908492-15.134993-53.930955s5.285114-37.379345 15.134993-53.930955c9.039258-15.189452 21.719875-28.52996 37.132089-39.484096 26.2802-18.678489 59.764903-29.926658 95.466674-32.111482l3.994899-7.111487c9.665933-17.20679 29.052028-26.542062 48.531295-23.36999l10.117341 1.646209c51.732874-57.468554 115.726253-91.205313 191.258812-100.696894 11.697915-1.469985 20.787747-4.021131 27.306541-7.353647 4.958567-2.534902 8.004706-5.273139 9.650773-8.094415 1.34546-2.306053 1.916863-4.99984 1.674706-8.380561-.287932-4.0198-1.736458-8.7705-4.364646-13.916444-5.70889-11.177904-16.231017-22.761948-28.713168-31.483598-12.442173-8.693717-25.366985-13.532849-35.554723-13.532849-12.950591 0-21.744038.836252-30.934323 2.891823-7.488932 1.675032-15.035885 4.004655-29.721022 9.146313-.384717.963129-.774675 1.935734-1.169337 2.91675-1.320878 3.28332-3.046761 6.323258-5.126607 9.053696-2.695719 5.218686-5.882598 10.27764-9.5071 15.183145-.092737 3.156366-.57483 6.411582-1.483819 9.730557l-1.057352 3.811688c-2.442607 8.689343-4.71619 15.952159-6.879293 21.907019-1.430077 3.936897-2.854367 7.426139-4.352401 10.573687-2.165065 4.549058-4.514309 8.532745-7.668643 12.376606-3.90814 4.762447-8.366036 8.828982-14.019534 13.288762-3.414034 2.693172-6.459522 4.926336-12.300091 9.103126l-.38825.27762c-2.668335 1.907843-3.615355 2.587372-4.888731 3.512364-3.125969 2.270731-5.368529 3.851626-7.679371 5.37951-3.21619 2.126482-6.26713 3.937696-9.476265 5.559803-7.805994 3.94566-15.813284 6.354401-24.758028 7.444348-8.165709.995019-16.355874.312473-24.54194-1.73448-5.922165-1.480858-11.837522-3.675692-17.832486-6.527888-14.952216 5.63778-30.719065 10.658499-47.199838 14.992179-1.887771 6.546182-5.191862 12.740856-9.859883 18.22965-4.365266 5.132805-9.527907 9.216558-15.306125 12.505416-4.501342 2.562083-9.345627 4.620306-14.580325 6.313752-14.419668 4.664819-42.889939 9.771904-70.666602 12.905067-6.500886.73329-15.041884 1.416072-24.599085 2.032202-7.222054.46559-14.269618.844477-16.288352.855734-2.306113.012859-4.508855.027487-7.806627.051071-13.66797.091713-17.795196.114514-23.812234.063829-8.325296-.07013-15.083088-.297451-21.258676-.767249-7.645684-.581633-14.423745-1.542846-20.811122-3.07009-7.876906-1.883395-15.108318-4.624909-21.819964-8.496499-4.535738-2.616425-8.571195-5.820135-12.249878-9.515407-2.970267-2.98366-5.696685-6.279856-8.266548-9.897142-1.284338-1.807809-2.538526-3.708841-3.765471-5.71898-41.902829-5.530991-81.406593-14.837338-116.925761-27.461028-2.649995 1.506139-5.371728 2.790171-8.238245 3.967019-2.424213.995261-4.721561 1.818631-7.274044 2.656192-.399166.13098-.787552.256745-1.224724.397059-.212006.068045-.817517.261668-.883908.28295-.103036.033031-.185916.0597-.251017.080747-.390227.142587-.683137.254905-1.193566.454421-.251879.098453-.361139.141032-.528014.205388-.327951.126474-.635794.24273-.984745.36984-1.768244.644106-3.419011 1.161739-5.714978 1.652715-9.486159 2.028543-18.799578.580824-26.75733-3.47919-12.655704-5.762782-22.325517-10.728867-29.504759-15.279433-8.388255-5.316898-17.9835304-12.978852-29.3562045-23.229353-3.1953747-2.880079-5.9052435-6.256746-8.0251865-9.999888l-19.4057162-34.264295c-3.7282218-6.582848-5.3877394-13.341324-5.3612263-19.834474-10.3454081-14.194577-18.0085833-29.280547-22.6648971-45.08238-6.2753812-16.466777-10.8609703-29.95611-13.8107701-40.756887-2.5381873-9.293646-4.67735731-19.557492-6.4366834-30.868145-2.49650682-9.869664-3.75533001-19.926255-3.75533001-30.073288 0-5.47548.3666062-10.930529 1.11785177-16.347707 1.34691085-39.603393 4.13344831-68.28478 8.79424844-87.445944 4.1363673-17.005153 11.7127546-34.907138 22.5814361-53.96168 11.6703798-23.993632 30.4040833-45.794949 54.9519583-65.020522 23.5857705-18.472066 52.5192395-34.5372367 85.6056895-47.7477589 65.93281-26.3251828 146.782674-40.7240762 231.685658-40.7240762zm225 668.9519451c-66.826455 0-121 38.503512-121 86s54.173545 86 121 86 121-38.503512 121-86l-.01302-1.274627c-.011756-.575131-.031456-1.148894-.059024-1.721238-.040489-.840545-.097935-1.677862-.17211-2.51195-.048856-.549444-.105032-1.098004-.168414-1.645114-.097972-.845744-.213217-1.68836-.345443-2.527327-.086306-.547635-.179953-1.094287-.280781-1.639333-.154147-.833266-.325076-1.662762-.512538-2.488322-.122483-.539395-.251989-1.076969-.38848-1.612816-.209731-.823395-.43605-1.643023-.678622-2.458389-.155947-.524199-.318685-1.046855-.488078-1.5677-.259625-.798271-.534796-1.592046-.825353-2.381397-.193469-.525592-.393768-1.049247-.600817-1.57089-.310829-.783115-.636979-1.561936-.978111-2.336048-.232301-.527147-.471499-1.052002-.717566-1.574621l-.527964-1.096535c-.443888-.901879-.908321-1.796901-1.392898-2.684782l-.622273-1.11682c-.030014-.05278-.060099-.105535-.090256-.158263l-.558513-.95977c-.287787-.486157-.581679-.970039-.881609-1.451597-.250833-.40272-.505543-.803284-.764424-1.202198-.011547-.017793-.023266-.035834-.034993-.053872l-.614465-.930403c-.327245-.487865-.660766-.973195-1.000489-1.455936l-.747665-1.044506c-.059378-.081569-.118935-.163062-.17867-.244478l-.660951-.888118c-.34754-.460445-.700809-.918381-1.059738-1.373758l-.769023-.961104c-.380844-.468919-.767735-.935046-1.160598-1.398325l-.765782-.890766c-.044344-.050885-.08876-.101734-.133249-.152547l-.902255-1.014683c-.041989-.0465-.08404-.09297-.126152-.139409l-.825058-.897517c-.40007-.429346-.805418-.855991-1.215976-1.27989l-.966781-.98347c-.036112-.036197-.072263-.072374-.108453-.108529l-.931686-.918008c-.056216-.054631-.11252-.109214-.168913-.163747l-.881594-.841761c-.067427-.063571-.134976-.127072-.202646-.190505l-1.006877-.930632c-.813149-.741094-1.643005-1.472474-2.489167-2.193855l-1.076263-.90487c-.839434-.696026-1.694248-1.382406-2.564068-2.058873l-1.122709-.861331c-.89704-.678903-1.809418-1.347448-2.73674-2.005356-.776331-.550794-1.563891-1.09464-2.361713-1.630853-.541812-.36415-1.088451-.72484-1.639752-1.081957l-1.261855-.806024c-2.354943-1.483287-4.791848-2.90231-7.305277-4.253201l-1.37213-.726736c-.607711-.317161-1.219743-.630384-1.836021-.939617-.902821-.453009-1.814401-.897288-2.734853-1.332844-1.099308-.520189-2.211145-1.02788-3.335237-1.522849l-1.412731-.612605c-.081812-.034932-.163686-.069798-.245623-.104597l-1.25918-.527463c-.111278-.045972-.222669-.091822-.334172-.137548-.999158-.409748-2.00718-.809584-3.023946-1.199379-.094886-.036376-.18976-.072631-.28471-.108799l-1.300007-.48797c-.112267-.04152-.224637-.082919-.33711-.124197l-1.364224-.492903c-.056787-.020196-.113599-.040362-.170437-.060496l-1.512229-.526358c-1.194611-.408475-2.400114-.803415-3.616113-1.184541-12.525415-3.925853-26.165387-6.386047-40.489019-7.074576-2.122661-.10203-4.259906-.165148-6.410759-.188378zm-17 108c3.313708 0 6 1.790861 6 4s-2.686292 4-6 4-6-1.790861-6-4 2.686292-4 6-4zm70-25.5c4.188654 0 8.202878.848937 11.39217 2.443583 1.833457.916728 3.4092 2.082932 4.627372 3.522973 1.563043 1.847724 2.480458 4.089371 2.480458 6.533444v7c0 2.444073-.917415 4.68572-2.480458 6.533444-1.218172 1.440041-2.793915 2.606245-4.627372 3.522973-3.189292 1.594646-7.203516 2.443583-11.39217 2.443583-4.112918 0-8.057869-.818604-11.218248-2.357756-1.801464-.877341-3.361136-1.991421-4.587908-3.363476-1.567174-1.75277-2.546875-3.88318-2.678937-6.245068-.00338-.060441-.005915-.120927-.007604-.181439l-.00477-.170829c-.001689-.060462-.002533-.120946-.002533-.181432v-7c0-2.444073.917415-4.68572 2.480458-6.533444 1.218172-1.440041 2.793915-2.606245 4.627372-3.522973 3.189292-1.594646 7.203516-2.443583 11.39217-2.443583zm0 13c-2.220155 0-4.218438.413669-5.5 1.036111v3.929938c1.29078.622831 3.286043 1.033951 5.5 1.033951 2.220155 0 4.218438-.413669 5.5-1.036111v-3.927778c-1.281562-.622442-3.279845-1.036111-5.5-1.036111zm-122-35c4.188654 0 8.202878.848937 11.39217 2.443583 1.833457.916728 3.4092 2.082932 4.627372 3.522973 1.563043 1.847724 2.480458 4.089371 2.480458 6.533444v7c0 2.444073-.917415 4.68572-2.480458 6.533444-1.218172 1.440041-2.793915 2.606245-4.627372 3.522973-3.189292 1.594646-7.203516 2.443583-11.39217 2.443583-4.112918 0-8.057869-.818604-11.218248-2.357756-1.801464-.877341-3.361136-1.991421-4.587908-3.363476-1.567174-1.75277-2.546875-3.88318-2.678937-6.245068-.00338-.060441-.005915-.120927-.007604-.181439l-.00477-.170829c-.001689-.060462-.002533-.120946-.002533-.181432v-7c0-2.444073.917415-4.68572 2.480458-6.533444 1.218172-1.440041 2.793915-2.606245 4.627372-3.522973 3.189292-1.594646 7.203516-2.443583 11.39217-2.443583zm0 13c-2.220155 0-4.218438.413669-5.5 1.036111v3.929938c1.29078.622831 3.286043 1.033951 5.5 1.033951 2.220155 0 4.218438-.413669 5.5-1.036111v-3.927778c-1.281562-.622442-3.279845-1.036111-5.5-1.036111zm140-25.5c3.313708 0 6 1.790861 6 4s-2.686292 4-6 4-6-1.790861-6-4 2.686292-4 6-4zm-55-43.5c4.188654 0 8.202878.848937 11.39217 2.443583 1.833457.916728 3.4092 2.082932 4.627372 3.522973 1.563043 1.847724 2.480458 4.089371 2.480458 6.533444v7c0 2.444073-.917415 4.68572-2.480458 6.533444-1.218172 1.440041-2.793915 2.606245-4.627372 3.522973-3.189292 1.594646-7.203516 2.443583-11.39217 2.443583-4.112918 0-8.057869-.818604-11.218248-2.357756-1.801464-.877341-3.361136-1.991421-4.587908-3.363476-1.567174-1.75277-2.546875-3.88318-2.678937-6.245068-.00338-.060441-.005915-.120927-.007604-.181439l-.00477-.170829c-.001689-.060462-.002533-.120946-.002533-.181432v-7c0-2.444073.917415-4.68572 2.480458-6.533444 1.218172-1.440041 2.793915-2.606245 4.627372-3.522973 3.189292-1.594646 7.203516-2.443583 11.39217-2.443583zm-75 21.5c3.313708 0 6 1.790861 6 4s-2.686292 4-6 4-6-1.790861-6-4 2.686292-4 6-4zm75-8.5c-2.220155 0-4.218438.413669-5.5 1.036111v3.929938c1.29078.622831 3.286043 1.033951 5.5 1.033951 2.220155 0 4.218438-.413669 5.5-1.036111v-3.927778c-1.281562-.622442-3.279845-1.036111-5.5-1.036111zm9.60283-44.547413-4.608925 8.201937c12.578738 1.39503 24.746439 4.035855 36.215283 7.821888l3.053299-5.590657c1.224708-2.242671 1.081543-4.769797-.031234-6.766849-6.439922 2.406781-13.949222 1.424747-19.659605-3.23473-1.171105-.955582-2.205864-2.016317-3.10177-3.157463l-4.638983-.754763c-2.901167-.472436-5.788458.917923-7.228065 3.480637zm-250.60283-73.968272c-19.986834 0-39.722178-.84708-59.054944-2.499043 2.354629 3.080745 4.649153 5.266288 6.884013 6.555459 13.79931 7.960085 36.21123 7.086096 75.298663 6.868131 1.273604-.007102 23.685499-1.176712 36.626985-2.636491 25.761583-2.905865 51.725868-7.620325 62.838171-11.215199 8.312219-2.689036 12.930564-6.325899 13.855035-10.91059-42.698147 9.035684-88.860196 13.837733-136.447923 13.837733zm343.301785-171.02871-.559507.495431c-18.716602 16.484688-42.786958 31.441934-71.318885 44.407211-71.810179 32.631476-168.449464 51.205592-271.423393 51.205592s-199.613214-18.574116-271.423393-51.205592c-28.816649-13.094658-53.0822376-28.22124-71.8774121-44.899864 4.0191605 14.149188 11.4997779 27.990394 22.3198958 41.305045 16.9958693 20.914197 41.9370113 40.129037 73.3169543 56.461576 64.97447 33.817717 153.287862 53.259311 247.663955 53.259311s182.689485-19.441594 247.663955-53.259311c31.379943-16.332539 56.321085-35.547379 73.316954-56.461576 10.820628-13.315279 18.301441-27.157162 22.320876-41.307823zm-647.616484 85.234799 5.818036 10.272547c9.845896 8.874374 17.84269 15.25992 23.990384 19.156638 5.436543 3.445954 13.879297 7.767645 25.328263 12.965072 1.497632.679872.032477.83156 4.647214-.832147 1.169952-.421792 3.695327-1.142068 6.409335-2.169338-6.438006-2.914962-12.700909-5.95525-18.776204-9.117302-17.704603-9.214838-33.590972-19.356152-47.417028-30.27547zm561.21237 30.27547c-3.525637 1.835013-7.114456 3.629019-10.764013 5.381336 4.988552 1.656981 9.406654 2.251837 13.253415 1.783096 8.965676-1.092498 14.091619-4.392139 23.243431-11.040096s19.641675-13.658669 24.183814-19.193705c1.808604-2.203959 3.999571-7.11797 6.572903-14.742034-15.797297 13.81502-34.775979 26.509989-56.48955 37.811403zm-617.4329825-266.204142c-1.4559263 14.202125-2.5199078 31.611627-3.191071 52.228424l-.0119848-.001211c-.6617434 4.228215-.9984748 8.498987-.9984748 12.806798 0 7.428042 1.0011961 14.745959 2.9506936 21.925078.6047581 3.993686 1.2550008 7.821254 1.9507281 11.482705 4.4736921 9.044957 10.7713651 17.948443 18.8603559 26.638874 18.0072486 19.346139 44.4921125 37.160381 77.8257305 52.307609 69.052322 31.378269 162.889554 49.41383 263.149334 49.41383s194.097012-18.035561 263.149334-49.41383c33.333618-15.147228 59.818482-32.96147 77.82573-52.307609 8.67998-9.325361 15.297329-18.896047 19.811047-28.624821.934283-5.116774 1.782724-10.548947 2.545119-16.295375l.010615.000795c.648125-3.498068 1.073607-7.026181 1.269733-10.581179l-.011867-.001402c.04613-.427706.091841-.856947.137131-1.287723-.010351-.48447-.02089-.967415-.031614-1.448835l.011806.000834c.019808-.602246.019808-1.205235.019808-1.808951 0-2.021855-.074177-4.03555-.226736-6.041102-.066619-2.419534-.138303-4.797708-.215052-7.134524-3.024755 4.711633-7.2611 9.855129-12.805955 15.752792-9.225031 9.812-25.314788 7.886366-31.963831-3.825456-.41204-.725779-.809746-1.421887-1.191124-2.084525-29.695462 27.382331-72.046071 50.234061-123.052417 66.772576-57.843131 18.755304-125.116868 28.848743-195.281727 28.848743-99.4448 0-192.565773-20.341491-260.073441-56.02073-1.866947 2.77184-4.061426 6.278482-6.552031 10.480307-6.037852 10.186279-19.554667 12.925471-29.081819 5.893451l-34.0722158-25.148808c-5.7592875-4.250948-8.8075614-11.255764-7.9929403-18.367469 1.0805741-9.433494 2.5216636-16.879478 4.5391389-22.698378.3881247-1.119448.8290623-2.2699 1.3316237-3.460001-13.3628859-15.046476-23.0385104-31.156613-28.633627-48.000887zm665.8458645 36.765978c-.391747.446291-.787235.891507-1.18645 1.335636-17.795456 19.797589-42.88642 37.330228-73.76491 51.928583-61.360727 29.009373-143.267331 45.406807-230.359193 45.406807-87.327707 0-169.438774-16.486763-230.846599-45.637779-6.097725-2.894661-11.968462-5.904004-17.600559-9.022855-.498619 1.287563-.990325 2.496861-1.474311 3.628062 63.003899 32.613291 151.683909 52.918083 249.921469 52.918083 136.314555 0 254.226648-39.095598 310.679242-95.921729-2.92173-2.414879-4.704467-3.954044-5.353098-4.618627zm-542.013189 27.634525c57.613144 31.280516 142.297827 51.036501 236.702636 51.036501 94.39945 0 179.079878-19.753743 236.699454-51.02877-1.930971.957236-3.880033 1.905762-5.852855 2.842284-61.407825 29.151015-143.518892 45.637779-230.846599 45.637779s-169.438774-16.486764-230.846599-45.637779c-1.975981-.938021-3.928125-1.888085-5.856037-2.850015zm-67.767206-12.96618-3.803476 2.902089c-1.6372091 1.248404-3.5361338 1.913912-5.4476093 2.030098-.2279573.57019-.4331502 1.118847-.6159148 1.645986-1.44885 4.178844-2.6373623 10.319783-3.5655369 18.422818l34.072216 25.148808c1.429502-2.411671 2.779529-4.628404 4.05008-6.650201-4.218282-2.480391-7.642001-4.762956-10.272647-6.847628-5.173402-4.099693-8.111407-8.093196-8.814016-11.980509zm304.469842-256.9848029-5.198134.0199912c-2.57094.0197878-5.134376.0542278-7.689954.1031517-2.58899.049563-5.170074.1139959-7.742724.1931209-158.875583 4.8862789-285.587109 65.8046951-293.3309264 141.5487811-.2490982 2.436411-.3751037 4.888392-.3751037 7.354343 0 82.411593 140.7333981 149.219389 314.3368421 149.219389s314.336842-66.807796 314.336842-149.219389c0-82.411592-140.733398-149.2193879-314.336842-149.2193879zm341.112147 209.8107969-.071408.378978c-.749879 3.984325-1.222961 7.386435-1.419246 10.20633-.309923 4.452465-1.191626 10.882019-2.64511 19.288663l-6.491595 8.966465c1.630779 2.525484 3.775131 6.129098 6.433055 10.810844 5.999105-6.380816 9.986307-11.472195 11.961605-15.274137 1.975299-3.801942 2.976187-7.863111 3.002666-12.183506-2.300661-7.61396-4.205225-13.101816-5.713693-16.463569-.212721-.474067-.435879-.946668-.669473-1.417803-1.589401-1.651933-3.054577-3.090347-4.386801-4.312265zm-669.6923537-92.903581c-3.3236518 4.964017-6.2031918 10.028611-8.6152453 15.182184l-.1858074.390124c-5.749458 12.415252-8.7871617 25.344289-8.7871617 38.625375 0 24.857576 10.6413269 48.481894 29.7878732 69.81278l6.0632173-4.624109c-14.9249661-18.988329-23.2353516-39.753231-23.8618902-61.453904-.0956977-.677923-.1433495-1.371045-.1405901-2.076893l-.004843-.094267c-.0121882-.077082-.0121882-.157091-.0121882-.237213v-22.548707-.126328-.204896-.331974c0-1.782054.051224-3.558211.1531284-5.328002.091642-1.592152.2243097-3.17905.3975882-4.760433.0712998-.649979.1493727-1.298894.2342766-1.946857.0772212-.590129.1602751-1.179952.248983-1.768964.0593869-.393532.1212597-.787179.1856564-1.18046.1445134-.883404.3017915-1.764429.471718-2.643538.1178862-.608994.241706-1.217202.3715753-1.824473.0878767-.411792.1785403-.822356.2719674-1.232482.021605-.093954.0430883-.1876.0647156-.281223.0829419-.359956.1683123-.719965.255812-1.079631.0913167-.374446.1846154-.748092.2802112-1.121362.0260695-.102683.0525396-.205337.0791833-.307962.0985526-.378705.1993127-.757287.3024357-1.135476.5095051-1.869456 1.0768901-3.729 1.7012899-5.578321.0270738-.079368.0538465-.158334.0807231-.237281.1856764-.546222.3766373-1.091638.5725576-1.636143zm333.8854697-49.976331c36.586145 0 71.000206 6.249125 96.791833 17.321945 13.076568 5.614012 23.722536 12.379258 31.318399 20.089232 8.504688 8.632452 13.195031 18.472918 13.195031 28.960592s-4.690343 20.32814-13.195031 28.960591c-7.595863 7.709975-18.241831 14.475221-31.318399 20.089232-25.791627 11.072821-60.205688 17.321946-96.791833 17.321946s-71.000206-6.249125-96.791833-17.321946c-13.076567-5.614011-23.722535-12.379257-31.318399-20.089232-8.504688-8.632451-13.195031-18.472917-13.195031-28.960591s4.690343-20.32814 13.195031-28.960592c7.595864-7.709974 18.241832-14.47522 31.318399-20.089232 25.791627-11.07282 60.205688-17.321945 96.791833-17.321945zm323.264992 49.959834.094765.266061c3.739113 10.391805 5.671822 21.115353 5.671822 32.062608v.66383 22.545375.187006c-.032903 3.557453-.269824 7.09062-.706393 10.595835l-.502973-.142515c4.243041 1.177986 8.066769 2.686459 11.461092 4.548685 1.045452-5.433633 1.579853-10.942202 1.579853-16.512705 0-17.048713-5.005661-33.517304-14.327499-49.063652-.051469-.085672-.103044-.171422-.154751-.257144l-1.377903-2.228281c-.088126-.139079-.176602-.278081-.265429-.417006l-1.338012-2.047052c-.044775-.067034-.089632-.134049-.134572-.201045zm-323.264992-29.959834c-34.010827 0-65.762294 5.765634-88.901851 15.699872-10.861015 4.662834-19.363852 10.066174-24.961206 15.747615-5.055317 5.131262-7.442206 10.13902-7.442206 14.924282s2.386889 9.79302 7.442206 14.924281c5.597354 5.681441 14.100191 11.084782 24.961206 15.747616 23.139557 9.934238 54.891024 15.699872 88.901851 15.699872 34.010828 0 65.762294-5.765634 88.901851-15.699872 10.861015-4.662834 19.363853-10.066175 24.961207-15.747616 5.055316-5.131261 7.442205-10.139019 7.442205-14.924281s-2.386889-9.79302-7.442205-14.924282c-5.597354-5.681441-14.100192-11.084781-24.961207-15.747615-23.139557-9.934238-54.891023-15.699872-88.901851-15.699872z"/></svg>