<svg width="960" height="960" viewBox="0 0 960 960" fill="none" xmlns="http://www.w3.org/2000/svg">
<path d="M157.062 43.7261C197.701 16.134 247.589 4.03791 297.364 10.8706C323.015 14.3918 345.899 14.6199 373.862 16.9038L741.819 46.9565C846.158 55.4784 926.5 142.628 926.5 247.301V710.655C926.5 814.825 846.905 901.732 743.125 910.889L375.168 943.357C346.811 945.859 319.341 948.204 291.125 951.282C290.945 951.301 290.764 951.319 290.583 951.333C255.349 954.209 220.494 947.724 189.274 933.174C186.409 931.839 183.574 930.436 180.772 928.965C180.475 928.809 180.182 928.646 179.893 928.475L133.264 900.925C72.0543 864.76 34.5001 798.96 34.5 727.872V230.639C34.5002 159.089 72.541 92.9339 134.382 56.9312L157.062 43.7261ZM287.681 49.9751C249.013 45.7066 210.505 55.6048 179.004 77.1753C178.601 77.451 178.188 77.712 177.767 77.9575L154.507 91.4995C104.969 120.34 74.5002 173.331 74.5 230.639V727.872C74.5001 784.81 104.579 837.517 153.611 866.487L199.752 893.749C201.869 894.852 204.009 895.911 206.171 896.918C231.12 908.546 258.959 913.741 287.108 911.482C288.2 911.363 289.29 911.246 290.379 911.129C224.418 884.722 177.015 820.436 176.504 744.204L176.5 742.959V217.04C176.5 141.347 222.745 77.197 287.681 49.9751ZM360.718 56.0396C271.251 54.1671 196.5 126.276 196.5 217.04V742.959C196.501 837.479 277.533 911.673 371.693 903.363L739.622 870.892C822.75 863.556 886.5 793.933 886.5 710.488V247.301C886.5 163.464 822.149 93.6507 738.563 86.8237L370.605 56.771C367.364 56.5062 364.065 56.2658 360.718 56.0396Z" fill="black"/>
</svg>
