<svg height="960" viewBox="0 0 960 960" width="960" xmlns="http://www.w3.org/2000/svg"><path d="m666.256417 54.6103558c44.835846 40.5759437 80.700885 100.8543752 100.529611 169.8092942l1.044501 3.693834c33.202322 119.438416 11.151223 239.084657-58.781875 293.706376l-2.000598 1.532131-.187663.177669c-27.365807 25.626273-62.4582 41.443993-101.324452 46.94626l-.123885.016071.000076 134.180155.000897.383118.003636.762179.006164.761838c.027343 2.80022.107397 5.716306.259111 10.09832.578752 16.716358.538968 22.373374-1.079354 31.918293l-.133795.767822c-1.600038 8.939857-4.570071 17.247757-9.04703 24.977191l-.172705.294084.069284.099254c6.616739 9.506734 10.709271 20.354731 11.534488 32.226924l.051609.821032c.292186 5.197972-.073622 10.358754-1.0569 15.412731l-.082481.414059 1.14 32.925.021319.407347c.883755 18.049391-5.997514 34.641666-18.166845 48.493236-9.45881 10.766358-22.073745 19.861098-37.168717 27.462346-27.192851 13.693274-62.788796 22.608902-100.722397 25.277462-37.936218 2.668715-74.42367-1.1768-103.253697-10.932047-16.008972-5.416973-29.769294-12.662232-40.635874-22.008422-14.319332-12.315852-23.539281-28.259528-24.829734-46.824946l-.064027-1.049884c-.091822-1.750031-.109228-3.500976-.052695-5.249622l.016667-.39247.004-43.735-.016166-.391229c-.450813-12.84612 3.088266-25.182925 9.792096-36.246926 5.70484-9.415269 13.531536-17.678657 23.068449-24.963019l.752677-.570154c14.877757-11.177165 34.178581-20.236323 56.359575-26.884839l.527369-.157833.704011-.342164c18.026474-8.694494 40.640931-14.211696 64.527986-15.892107l1.309003-.086729.435536-.203021c4.789292-2.250397 8.251672-4.377754 10.406337-6.185563l.088127-.075416v-46.686l-.638578.317344c-59.312841 28.845142-139.480571 10.039761-198.298756-44.653469-34.379286-31.968568-57.507061-72.441526-65.243909-113.700966l-.244569-1.333169c-7.809084-43.53361 2.04074-85.410345 29.82268-115.746451l.258132-.279289 72.495-83.789-.008295-.162249c-2.208859-45.819551 10.67768-88.930477 38.512059-123.20582l1.041935-1.270418c2.444674-2.951495 4.983666-5.813192 7.614155-8.582954l.032146-.033559 96.155-115.3849996.066728-.0902026c3.749-5.0339895 7.718717-9.7992155 11.90356-14.2778751l.030712-.0329223.554599-.6621803.629585-.7353054c1.48235-1.6921487 3.057097-3.219533 4.706689-4.5860386l.071127-.0564757.412129-.396357c16.638327-15.8494285 36.10022-27.2606583 57.716245-33.44140678 53.336514-15.25066588 110.148701 3.51495218 158.659987 47.41712818zm-123.656132 811.4130522c-24.672779 12.429304-57.707382 20.706749-93.133797 23.199931-35.427796 2.493279-69.28797-1.076782-95.443408-9.930615-12.705941-4.301067-23.523378-9.817829-31.974416-16.552821l-.000342 9.91477c-.065612.991094-.064701 1.984942.004509 2.98065 1.967464 28.305403 58.383431 47.394926 126.008594 42.637671 67.62516-4.757308 120.851242-31.55991 118.883783-59.865312l-.281365-8.164028c-6.635944 5.808498-14.731656 11.078661-24.063558 15.779754zm-7.258048-87.493271-.04015-.178736c.345705 1.4704.585209 2.986109.711375 4.546354.116765 1.443984.131358 2.865175.049272 4.261733l.010049.183442c.058075 1.218103.048484 2.435984-.027931 3.650102l-.044624.586269.001 14.439.028584.351072c.697688 9.977399-3.06308 19.1978-9.906645 26.940776-5.306619 6.004039-12.468299 11.136355-21.09762 15.455744-15.801517 7.909417-36.632405 13.095649-58.876098 14.65108-22.243694 1.55543-43.593641-.681231-60.342157-6.314528-9.146484-3.076384-16.952746-7.162038-23.043323-12.369108l-.418049-.361549c-7.337118-6.419237-12.100548-14.524921-13.05044-23.874562l-.009252-.106925-.054303-.330973c-.152666-.996584-.231925-2.018185-.231925-3.059328v-21.552326l.003003-.349522c.011079-.644435.052737-1.281818.123626-1.910704-.011637-.539565-.009144-1.075877.007347-1.608729-16.922021 9.795754-27.044582 21.572191-27.133388 33.701086.003937.445334.021236.89127.052246 1.33758 1.967477 28.317121 58.383897 47.414549 126.009599 42.655299 66.520406-4.681464 119.10846-30.702335 118.93715-58.50289-.010683-.344518-.026471-.689638-.050475-1.034981-.882451-12.695595-12.718589-23.537202-31.606871-31.204676zm-23.225125 40.362823-.490276.268942c-2.389662 1.303277-4.929029 2.532716-7.608668 3.692607-15.579513 6.743645-36.115036 11.164896-58.056657 12.491702-21.917376 1.32534-42.923003-.577639-59.363979-5.359634-5.800718-1.687187-11.05338-3.731788-15.679727-6.175048 7.559218 13.612347 38.087218 22.153997 73.836514 19.654163 31.434507-2.198115 57.683198-12.288319 67.362793-24.572732zm-59.593272-56.7465-.801688.00308c-3.673652.022593-7.428288.163617-11.242356.430323-19.457551 1.360605-36.928184 5.745023-49.712219 11.801936-1.180651.566755-2.32092 1.148039-3.41849 1.742675l-.088338.023694c-10.051143 5.386435-16.559188 11.879993-17.88556 18.66049 3.179055 13.812783 36.132693 22.947245 75.37913 20.574019 38.489906-2.327479 69.204865-14.887122 71.247677-28.633506l-.001996-1.749171-.479899.033989c-4.134478-13.382689-29.526252-22.653045-61.524436-22.883299l-.346443-.002139-.212019-.001063-.254792-.000764c-.219223-.000454-.438748-.000543-.658571-.000264zm112.887363-209.152972-75.404 65.429.000125 101.082009c0 8.915857-3.72048 17.010601-11.16144 24.284234.857138.125518 1.708332.258346 2.553254.397726l.66477.112251c5.893168.920131 11.454134 2.129851 16.572671 3.61862 1.078087.31357 2.137243.639486 3.176965.978013 19.727634 2.964201 37.157387 8.136115 50.931393 15.27339 17.401805-16.269564 12.666895-31.727445 12.666895-59.882071zm-250.615687-212.534965-69.318961 80.117971c-39.935254 42.704146-25.235554 121.095235 32.832621 175.091598 52.004018 48.356944 121.154894 60.749034 163.715892 32.136776l.050004.052098.90922-.707029c2.501153-1.734291 4.907549-3.613049 7.210052-5.637328l39.813712-31.138618-.000853 1.568497 50.875422-44.140966c-44.587116-7.067733-90.319629-27.010786-130.646389-59.624609-50.637084-40.952339-83.482095-94.387608-95.44072-147.71839zm101.01138-197.674923-50.620437 60.751164c-2.596665 2.681583-5.090118 5.489875-7.473723 8.425038-7.846308 9.661969-14.096601 20.199099-18.805784 31.381726-26.445457 71.059477 5.354425 165.756662 83.905888 229.284533 54.759061 44.285785 119.632375 63.228934 175.624914 56.886077-74.014213-15.905699-145.044524-97.062156-176.172066-205.616793-18.573422-64.773221-19.929539-128.802424-6.458792-181.111745zm15.473562 23.581595c-.952849 5.410162-1.750084 10.937815-2.388214 16.5706 55.110783-19.855706 128.867192-1.856661 188.41181 46.319578 81.348131 65.816981 111.145631 167.342885 61.713432 228.333342-24.391369 30.094569-63.187984 43.844989-106.739849 41.080537 26.275046 13.05707 53.450621 17.01777 79.083024 9.67057 9.168072-2.627911 17.736677-6.587217 25.665315-11.733622 1.433724-1.273353 2.841246-2.580874 4.221763-3.922297 1.232876-.890094 2.449124-1.809884 3.648578-2.758774 2.186002-2.329346 4.298089-4.748999 6.330255-7.261326 57.405962-70.969896 29.296661-189.017259-62.783882-263.666166-61.976546-50.243855-137.137027-68.02124-197.162232-52.632442zm87.172912-120.4303663c-40.113715 11.5024226-68.747784 48.5103098-82.463598 98.8509533 66.000556-13.191762 142.917479 8.307283 205.047838 58.675833 58.549099 47.465252 93.43498 111.842625 99.164318 173.22395 5.614155-42.330745 2.092145-90.973157-12.105379-140.485808-36.638772-127.774583-130.499221-212.9590931-209.643179-190.2649283zm-91.310413 161.7072463-.000754.009413-.011.391-.005.169-.001.031-.002.077-.005.16-.005.202-.001.029-.005066.212832-.000934.000168-.001.033-.000243.051257-.010757.441743-.005.189-.000628.035254-.016437.734098-.028114 1.488099c-.00822.496452-.015292.993493-.021212 1.491116l-.002609.161433-.001.122-.010284 1.154727c-.003564.47992-.006061.960373-.007489 1.441352-.005749 1.937575.005844 3.883063.034893 5.83666l.001227.081803c.017396 1.150791.04085 2.304393.070384 3.460721.046145 1.806683.107137 3.620083.183067 5.439811.028137.674329.058315 1.349304.090547 2.02513l.053221 1.079995.05673 1.081633-.000296.008168.006.092v.014l.002.031.013278.239168.011722.210832.012.224.006.108.086739 1.462342.102919 1.624316.000342.017342.006.082.017701.26359.007299.11241.001.021.023.33.011.167.037642.537286.057397.804859-.000039.000855.013302.18149.008698.11651.004677.06605.001323.02695.009.123.009782.122029-.000782.001971.014.182.012.161.013.177.044.561.012.146.005.076.058155.73238c.037443.467027.075853.934409.115234 1.40214.072722.863756.148772 1.728931.228138 2.595264.277274 3.02662.595042 6.067452.953696 9.120998l.160935 1.3484.068591.562034c.107724.877019.218812 1.755027.333277 2.634022.093465.717726.189164 1.435987.28712 2.154888l.023854.175874.014.104.025.176h-.001l.036.258.02762.198446.06338.456554.154872 1.091641c.073912.516386.148986 1.03309.225225 1.550106.097761.662969.197445 1.326506.299047 1.990541.131037.856393.265161 1.712972.40248 2.570348l.059376.374364.06165.376385.011014.067849.006336.044766.009.055.019.112.072.441.014.085.013647.081311.016353.102689.02.122.003.014.029.176.025221.150709c.031346.188504.062846.377044.094501.565622l.021278.130669.007.041.064.374.001.008.031.181.15408.901463c.188155 1.09136.381478 2.183923.579987 3.277625.05889.324459.118231.64899.178029.97362l.253514 1.362292c.10844.576862.218322 1.154027.329649 1.731487.446354 2.315288.915974 4.635529 1.408983 6.959935l.242565 1.135192.246348 1.136125.180818.823564.076027.344697.003.014.103749.465193.031808.142519-.031808-.142519c.113181.507563.227478 1.015307.342892 1.523228.183189.806189.369201 1.612864.558034 2.419959l.004325.02262.072458.304919c.02565.109205.051355.21843.077111.327663l.013431.059418.057.24.056.237.033.139.01.04.014386.06059.026872.112853.025742.109557.028.117.005.02.086.36.078.325.567213 2.321807c.195021.78842.392736 1.577195.593152 2.366301l.020635.083892.033.129.015144.057513.045856.179487.023161.091048.028034.109659.033805.132293.360656 1.396951c.142127.546452.285549 1.093054.43027 1.639798l.351939 1.320337.357051 1.321088c.096391.354207.193327.708468.290809 1.062782.295348 1.073484.595575 2.146985.900824 3.220912.087428.307587.175305.615341.263595.923129 1.798158 6.268557 3.734101 12.4346 5.79933 18.490417.553028 1.621629 1.115326 3.235353 1.686732 4.841025l.863918 2.402451.362876.98811.924 2.498.147.396-.095-.256.197219.526798.074781.196202 1.108 2.902.157.408.121.309.924 2.353.335.846.033.083.077.192.133.329 1.057 2.607.072.176.011044.028635.244956.593365 1.138 2.727.076.181.282.664 1.015 2.367-.078-.179.234168.542193-.083168-.194193.145.335.096.221.203.464 1.026 2.326.243.546.087.195.051.113.145.322-.126-.281 1.126 2.484-.31-.678.473 1.038-.163-.36.353079.772965 1.327921 2.850035.208.443.075.159 1.24 2.593.108146.225884-.083146-.174884.189.391.372.766 1.083 2.202.24.485.080105.161377.649635 1.297022.15826.313601-.807895-1.610623 1.296895 2.574623.193989.382243-.113989-.225243.292744.574832 1.456256 2.813168-.156-.298.231085.444248.058915.111752.027.051 1.441 2.717-.214-.399-.47-.881.175924.331233.294076.549767.305037.572887-.048037-.091887.174.324.385.715.033.061 1.086 1.992.322.588.131.237.058.104 1.122 2.012.516.916.174.308.047.082 1.206 2.106.277.48.245.422.038.065.01.017 1.125 1.92.471.796.005.009.091.153 1.249 2.08.531412.876634.121588.197366 1.202 1.954-.217-.349-.255-.413.074611.121486.180389.291514.374.604-.062-.102.357.576.107.171.077.123 1.37 2.172.266.419.23.359.12.186-.059-.091.552484.861189.242551.374332-.727035-1.130521 1.162 1.798.543945.835839 1.350055 2.041161.542.812.092274.138312.590685.877598.324041.47609-.624-.924.98 1.446-.106-.155.389352.572694-.123352-.182694.382.559.251.364.043.062.07.101 1.206 1.736-.279-.399.496293.711672-.195293-.281672.461305.6587.069695.0983 1.32 1.857.647.902.627642.868616.221358.302384-.769-1.061 1.255 1.724.666076.907032c.694474.939881 1.392428 1.872861 2.093783 2.798868l.176141.2311-.035-.045.682808.898176.184192.239824-.007028-.010063-.824972-1.082937 1.244 1.627.468.607.11.142.008633.011499 1.280367 1.637501.938305 1.186976.057695.072024.613704.770333.637296.791667-.274856-.342603c.345357.42882.691458.855985 1.038291 1.281486.465952.573962.933627 1.143117 1.402607 1.709246l-.357042-.435129.963975 1.162781.107025.128219.681242.814543.699758.827457-.318-.378 1.048222 1.232912c.4254.499678.852555.995118 1.280715 1.488066l-.637937-.741978.467572.542928c.370876.427805.742508.85374 1.114885 1.277795l.554317.631738.481226.542539-.572-.649.573961.649179c.34647.389865.693573.778108 1.0413 1.164722.467592.522914.937188 1.040853 1.407899 1.555817l-1.407899-1.555817c.741198.824085 1.485233 1.640765 2.232029 2.449971.753374.816333 1.509556 1.625059 2.268467 2.426104l.060243.063024.977313 1.025581c.346413.361274.693382.720951 1.040901 1.079025.438169.45511.87826.905148 1.319213 1.352611l-1.036427-1.063217.859755.880057c.381499.387891.763646.773855 1.146431 1.157881l.037814.037062.506403.510573c.181724.18165.363723.362519.545863.542951l-.962266-.963524 1.083575 1.079683c.404497.400093.80969.798028 1.215568 1.193794.775141.755829 1.552779 1.503746 2.332835 2.24368.788831.748258 1.580135 1.488351 2.373826 2.220204.715237.65951 1.432413 1.312328 2.151468 1.958399.176755.163604.354743.323031.532844.482045 52.861735 16.38556 103.913624 8.322761 131.594619-25.830616 41.269079-50.918632 14.963274-140.547652-58.755661-200.192017-58.268935-47.144112-128.719064-61.443899-176.072063-40.221867l-1.427813.653431c-.021421.56826-.041316 1.137353-.059681 1.707267l-.008517.252997-.004.144-.001.02-.004.127z"/></svg>