<svg height="960" viewBox="0 0 960 960" width="960" xmlns="http://www.w3.org/2000/svg"><g fill="#000" fill-rule="evenodd"><path d="m333.122099 264.803943c70.389898 6.641881 140.923797 17.095449 207.792156 31.679054 80.255991 17.50337 152.540463 40.352365 214.31435 69.16154 72.52298 33.822175 129.466935 75.327628 168.010641 125.778223 16.354042 21.406118 26.25425 42.483372 28.994654 63.658778 3.00761 23.240138-2.89647 45.168942-16.675974 63.700367-19.48257 26.201217-52.61848 43.819546-98.013026 56.123589l-1.4839.398506-.556169.452269c-17.584969 14.157148-41.020966 22.049805-65.5942 22.240204l-.910631.003527c-11.911547 0-23.588397-1.80358-34.511759-5.288979l-.740241-.240021-1.771752.169385c-50.115065 4.726949-107.09209 6.232371-166.770439 4.90195l-3.748809-.088335-.206923.231066c-17.775105 19.541723-45.461335 30.989506-74.983731 31.308103l-1.266346.006831c-22.79766 0-44.706902-6.618003-62.00664-18.855468-9.113713-6.446847-16.765474-14.325995-22.487624-23.274716l-.117736-.185816-4.105124-.48879c-29.277227-3.547855-51.690342-7.520817-64.2998-11.651961l-.494302-.163709c-19.406392-6.497998-35.712035-15.59802-50.086448-27.598954-5.805845-4.847194-11.057728-9.903796-16.28369-15.623398-25.662706 24.428849-58.710338 38.842812-94.479391 38.842812-82.5884643 0-146.639245-75.571431-146.639245-165.820173 0-10.481287.8602545-20.841445 2.5474419-30.972562-6.7022578-5.93689-11.2285578-13.136525-14.2596958-21.158435-3.83811271-10.157569-5.2877461-21.666938-5.2877461-35.620106 0-1.027667.03960373-2.054952.11872302-3.079569 7.80327698-101.054606 71.67187588-156.349155 177.82878498-156.349155 39.802563 0 92.667553 2.566385 148.174591 7.803943zm105.380389 406.053828.033847.035796c10.060029 10.922876 27.116026 18.106433 46.463665 18.106433l.795029-.004048c15.431549-.157217 29.35427-4.884305 39.357462-12.416285-16.138258-.699427-32.251507-1.598036-48.204134-2.685231l-1.941086-.133303c-12.630924-.874047-24.860384-1.849791-36.504783-2.903362zm472.682129-91.183082-.821211.505845c-26.945576 16.577045-61.824314 27.797286-104.598253 33.803524-71.736331 10.073086-207.005872 2.511744-339.193692-19.595623l-4.004679-.67437c-43.993701-7.45919-77.059636-7.45919-98.881298-.351016-19.902767 6.483114-29.876058 18.52852-31.408385 37.527497-.023797.295063-.060174.586097-.108561.872619 3.74795 1.688448 7.742066 3.25355 12.020701 4.6862l.758689.247457c12.756818 4.05665 43.341432 8.830722 84.070439 12.830133l.019642-.002173.001213.35023c31.868266 3.129676 69.947338 5.785505 110.558541 7.253209l.11471-.34696 5.869334.20364c19.601063.646543 39.743004 1.011222 60.018988 1.015001l2.897438-.001923c44.440003-.067404 89.430212-1.884529 130.694661-6.28207.221712.102255.444473.203403.668267.303434 27.364995-2.927129 53.082552-6.992239 75.907952-12.435614l-.015775-.007811c.149771-.16592.297939-.332683.444487-.500279 50.478596-12.129573 86.675086-31.049363 94.986792-59.40095zm-669.511057-10.546378-.409939 1.088271c-9.107123 23.71671-24.019054 43.059537-42.360077 55.31454 21.562775-6.973751 40.395718-21.735239 54.192621-41.561561l-3.053612-4.087105c-2.965868-3.923837-5.698379-7.442323-8.368993-10.754145zm-56.786033-271.89405c-62.671176 0-104.1078529 21.218222-124.3100309 63.654664-7.4007007 15.639832-11.9260964 34.153715-13.5774961 55.539799v1.134222c.1443011 18.15137 3.6785948 27.319664 10.6072102 27.504882l.9174366.007706c4.8643245.06488 16.2649066.828468 32.9941839 5.053106 2.6998684-.405851 5.541525.288931 7.7960993 2.119793 13.293336 3.861119 29.312628 9.771306 47.590764 18.790819 18.771443 8.37021 38.396783 19.071006 58.728764 32.368886 5.631073 3.682933 10.975906 7.445213 16.069422 11.299019 2.283506 1.727723 3.695765 4.33276 3.931321 7.136802 6.871756 5.748545 13.272162 11.709423 19.349482 17.955966 1.374102 1.412365 2.278572 3.174326 2.646316 5.052404 17.804314 20.032992 29.43788 38.871273 43.026204 54.782224l.925259 1.075261c6.51572 7.514209 13.516303 14.355385 21.879498 20.336499 4.445076-22.802684 19.47819-38.702615 44.029088-46.699808 25.487995-8.302443 61.522174-8.302443 108.419044-.351016 131.604455 22.313708 266.993555 30.02344 337.073981 20.182873 44.604864-6.263334 79.432989-18.349775 104.536448-36.063435 1.356348-.957075 2.86871-1.52919 4.407225-1.738758-2.414373-12.162546-9.019421-25.676923-20.473803-40.669783-4.278986-5.600846-8.812686-11.061867-13.585582-16.38643-156.371447-173.922722-568.087302-202.085695-692.980834-202.085695zm-110.8811603 217.937924c-.0042422.442169-.0063667.884781-.0063667 1.327815 0 57.629656 35.766744 103.5 78.5 103.5 33.028508 0 62.656244-27.617364 73.843337-68.386384-1.398771-1.461659-2.813608-2.904016-4.248763-4.330353-.24597.734723-.499148 1.444794-.759523 2.131732-.789674 2.08337-1.830746 4.440169-3.126628 7.085587-12.330755 31.661779-38.06145 53.499418-68.208423 53.499418l.878878-.007509c-3.398718.388817-6.355244.364251-8.957494-.113485-2.036735-.373915-4.318057-.942695-6.862303-1.706002-35.240109-8.761955-61.059081-47.963155-61.059081-94.173004zm59.1911213-26.630706-.024394.217885c-.319453 2.547677-1.613292 4.986864-3.85483 6.697554l-33.883264 25.858082.0347902.266203c.7473447 5.822248 1.526104 9.9264 2.2514596 12.106111l.7194121 2.089509c.2265294.664085.4598982 1.354833.7001286 2.072296l.3762095 1.126881 37.732614-11.393625c6.968106-2.104201 13.745477 3.697322 12.808043 10.858439l-.036302.253299-7.872361 50.547261c2.572549.500203 5.194333.758626 7.851006.758626l-.451419-.005053c.286246-.041249.581487-.08721.885638-.1379l.472781-.082047 14.140883-55.105073c1.78893-6.971635 10.113029-9.8017 15.772326-5.449407l.210957.166584 19.909104 16.140153c1.110563-3.280012 2.054829-6.691542 2.816399-10.217005l-27.262165-19.081739c-2.50025-1.750015-3.95497-4.436943-4.221826-7.254419-13.372901-8.021378-26.412139-14.802559-39.07519-20.432615zm47.347512 66.197521-7.257746 28.290434c7.152722-4.482976 13.554037-10.965707 18.757145-18.969084zm-52.732-3.416-23.227072 7.015594c4.919799 9.213826 11.313026 16.856806 18.658082 22.323808zm119.865594-6.210951.028059.176563c6.01388 6.77328 11.323949 13.409577 16.244341 19.841919l.048699-.10288-1.903406-2.470698c-4.405347-5.680031-9.140808-11.510007-14.417693-17.444904zm-147.6796557-65.231249c-1.9195694 5.132679-3.4012981 10.547773-4.4119086 16.159845l12.0609703-9.204645zm-.2829086-27.288194.0291906.025699.1118772.102498c11.4398435 3.358246 24.8628875 8.223642 39.9794015 15.258865.63399.266435 1.268541.534966 1.904102.806185-15.95543-7.545793-30.073381-12.691283-42.0245713-16.193247zm-24.0898858-5.592636-.039147.086589c4.4058382.726418 9.4967239 1.747198 15.2231357 3.175604l.1903315-.040747c-5.7844157-1.449676-10.9260053-2.485053-15.3743202-3.221446z" fill-rule="nonzero"/><ellipse cx="154.455664" cy="503.34169" rx="16.781968" ry="23.471284"/></g></svg>