<svg height="960" viewBox="0 0 960 960" width="960" xmlns="http://www.w3.org/2000/svg"><path d="m136.652804 121.92669 607.913444 46.816628c45.865993 3.532231 84.341145 35.9851 95.555748 80.598984l108.29548 430.820571c1.099749 4.375015 1.845279 8.831511 2.229357 13.326251 3.949823 46.223469-30.319738 86.896958-76.542602 90.846729l-31.395612 2.682697-.643876.08598c-.734106.091954-1.469945.174345-2.207365.247135l-1.107296.101982-607.648902 51.954444c-54.928165 4.6964-104.883465-28.808135-122.482646-79.283664l-.539915-1.583877-1.298902-.929426c-6.488659-4.668957-12.8144315-9.527834-18.9760977-14.57604l-1.6763848-1.381478c-32.2360819-26.720283-55.0370489-68.91299-69.9837356-125.780052-.1349018-.513255-.2595761-1.029145-.3739488-1.547362-11.47537155-51.994338-12.94840559-99.313064-3.9663551-141.839339 5.9533558-28.186665 16.1983538-61.568485 30.7198552-100.371929l.0255689-.068374-20.8564639-125.876753c-1.1106104-6.702877-1.449838-13.509715-1.0118515-20.287492l.0756155-1.069914c1.6905486-22.031632 11.4032423-42.279233 26.9973556-57.292624l.0913443-.088217 12.688-12.633.3086647-.382747c4.2848814-5.249399 9.1558375-9.994686 14.513422-14.14158l.1839133-.140673.6904893-.554464c.9536544-.74801 1.9282858-1.44398 2.9209192-2.088792l.0685915-.043744.2308408-.159954c16.5975662-11.403435 36.6752031-16.940819 57.2033441-15.359906zm-47.6765044 84.987755c-.3135225 4.025766-.1282214 8.074851.5516884 12.055154l87.588006 512.754505c6.413825 37.547578 38.517634 64.725539 75.782288 65.675964l565.474102-48.350449 18.110443-1.562742c.593107-.066016 1.18226-.143612 1.767253-.232541l32.447934-2.77319c24.212293-2.068955 42.163015-23.374116 40.09406-47.586409-.201184-2.354388-.591699-4.688743-1.167758-6.980418l-105.228932-418.6177-3.077228-12.24536.01068.042489c-7.022228-27.935796-31.114146-48.256751-59.833973-50.468522l-607.34709-46.774698c-23.727606 1.757513-43.2673094 20.613618-45.1714734 45.063917zm-19.7956633-3.162476-.2375766.349579c-4.6475658 6.83471-7.6266926 14.939355-8.3043815 23.771158-.3012527 3.925998-.1281859 7.873995.5154558 11.758572l81.872034 494.122985.075216.439356.161706.918221c.025608.139646.051573.279146.077894.418498.04957.262458.100515.524963.15272.786939l-.15272-.786939c.072469.383687.147635.766257.225474 1.147696l-.072754-.360757c.077983.391336.158777.781489.242358 1.170443l-.169604-.809686c.090487.443419.184587.885308.282265 1.325639l-.112661-.515953c.083348.38787.169468.774547.258335 1.160011l-.145674-.644058c.092743.41809.188713.834775.287877 1.250032l-.142203-.605974c.092376.400688.187722.800066.28601 1.198112l-.143807-.592138c.1062.444717.216064.887796.329557 1.329209l-.18575-.737071c.097652.395476.198209.789637.301644 1.182465l-.115894-.445394c.086549.336623.175208.672277.265961 1.006948l-.150067-.561554c.10695.406175.216976.810924.33005 1.214223l-.179983-.652669c.100021.368853.202586.736512.307671 1.102962l-.127688-.450293c.10921.389519.221264.777686.336134 1.164481l-.208446-.714188c.116309.405591.235707.8097.358163 1.212304l-.149717-.498116c.105617.355637.213616.710114.323975 1.063416l-.174258-.5653c.125901.413931.255035.82627.38737 1.236994l-.213112-.671694c.130326.417219.263943.832799.400821 1.246713l-.187709-.575019c.096963.300942.195645.601016.296032.900213l-.108323-.325194c.117772.356142.237957.71105.360534 1.064709l-.252211-.739515c.147969.441012.299645.880118.454985 1.317286l-.202774-.577771c.132569.382488.267935.763515.406072 1.143059l-.203298-.565288c.108558.305514.218907.610081.331032.91369l-.127734-.348402c.139385.382972.28159.764435.426588 1.144367l-.298854-.795965c.154292.417789.311947.833766.472929 1.247901l-.174075-.451936c.139151.364611.280875.727813.425146 1.089585l-.251071-.637649c.12287.316091.247678.63111.374409.945043l-.123338-.307394c.152937.383503.308738.7654.467372 1.145669l-.344034-.838275c.136797.338871.275833.676478.417089 1.012805l-.073055-.17453c.140012.335627.282231.669985.426637 1.00306l-.353582-.82853c.192291.457842.388695.913313.589161 1.366373l-.235579-.537843c.163079.376142.328948.750646.497578 1.123491l-.261999-.585648c.181074.409233.365461.816499.553124 1.221767l-.291125-.636119c.157053.347249.316502.693058.478322 1.037409l-.187197-.40129c.147687.318937.297402.636637.449128.953086l-.261931-.551796c.183953.391449.370971.781014.561019 1.168669l-.299088-.616873c.132296.275926.266121.5509.401462.824914l-.102374-.208041c.170476.347731.34339.693924.518718 1.038561l-.416344-.83052c.184654.373853.372131.745918.5624 1.116172l-.146056-.285652c.175462.344901.353342.688242.533614 1.030005l-.387558-.744353c.205765.400407.414795.798695.627051 1.194834l-.239493-.450481c.175816.333314.353907.665128.534252.995422l-.294759-.544941c.211882.395442.42698.788743.645254 1.179871l-.350495-.63493c.186765.342054.375946.682478.567518 1.021254l-.217023-.386324c.165745.297002.333322.592752.502712.887236l-.285689-.500912c.194424.343818.39131.685938.590632 1.026339l-.304943-.525427c.197337.343067.397136.684416.59937 1.024027l-.294427-.4986c.193889.331123.390082.66062.588556.98847l-.294129-.48987c.196474.329938.395247.658235.596293.984871l-.302164-.495001c.214614.354511.431893.707098.651808 1.057736l-.349644-.562735c.176213.286291.354173.571306.533864.855033l-.18422-.292298c.200854.320249.403907.638871.609134.95585l-.424914-.663552c.186245.294076.374348.586768.564292.878062l-.139378-.21451c.210341.324879.422967.648031.63785.969436l-.498472-.754926c.252079.386581.507398.7707.765915 1.152322l-.267443-.397396c.222676.333059.447776.664242.675274.993527l-.407831-.596131c.207935.306953.417939.61229.62999.915995l-.222159-.319864c.210089.304089.422223.606559.636378.907393l-.414219-.587529c.244426.350075.491571.69798.741401 1.04369l-.327182-.456161c.225571.316871.453385.631926.683416.945147l-.356234-.488986c.229661.3178.461591.633745.695763.947814l-.339529-.458828c.225637.307236.453406.612708.683284.916394l-.343755-.457566c.261291.35044.525373.698544.792209 1.044282l-.448454-.586716c.236912.312979.476064.624063.717428.933229l-.268974-.346513c.201761.261421.405097.52149.609991.780194l-.341017-.433681c.241992.309972.486208.618016.732621.924113l-.391604-.490432c.242535.306231.487254.610549.734129.912934l-.342525-.422502c.226459.281309.454773.560974.684921.838976l-.342396-.416474c.223924.274273.449623.546956.677076.818033l-.33468-.401559c.260699.314906.523751.627679.789126.938297l-.454446-.536738c.297935.355076.598879.707396.90279 1.056927l-.448344-.520189c.246493.288516.49499.575172.745466.859949l-.297122-.33976c.200762.230898.402818.460578.606155.689032l-.309033-.349272c.262188.298093.526545.594127.793042.88808l-.484009-.538808c.275012.30898.552368.615716.832035.920182l-.348026-.381374c.256665.283106.515315.564283.775925.84351l-.427899-.462136c.551016.599872 1.111006 1.190933 1.679727 1.772992.115287.117992.231192.235876.347456.353387l-.347456-.353387c.233007.238471.467478.47543.703399.710866l-.355943-.357479c.272015.274934.545991.547824.821903.818652l-.46596-.461173c.316651.316.635912.629255.957743.939733l-.491783-.47856c.265984.261083.533766.520248.803324.777478l-.311541-.298918c.284402.274371.570811.546572.859199.816583l-.547658-.517665c.282052.269154.566048.536189.851961.801084l-.304303-.283419c.251575.235544.504656.469422.759224.701618l-.454921-.418199c.287436.266306.576808.530449.86809.792408l-.413169-.374209c.28645.261277.574784.520425.864974.777423l-.451805-.403214c.280878.252602.563531.503173.847936.751694l-.396131-.34848c.242057.214372.485406.427248.730032.638616l-.333901-.290136c.296109.25875.594117.515277.893996.769562l-.560095-.479426c.303025.261829.608009.521345.914923.778526l-.354828-.2991c.290769.246559.583298.49101.877559.733332l-.522731-.434232c.2804.234963.562411.467977.84601.699024l-.323279-.264792c.292309.240713.586329.479326.882034.715819l-.558755-.451027c.670999.54666 1.350889 1.08231 2.039373 1.606718.112894.08599.226179.171799.339694.257303l-.339694-.257303c.300053.228546.601738.454957.905031.679213l-.565337-.42191c.309258.232945.620226.463633.932878.692043l-.367541-.270133c.25279.186915.506698.372333.761708.556244l-.394167-.286111c.316242.231033.634206.459735.953867.686086l-.5597-.399975c.281058.202696.563455.403561.847174.602581l-.287474-.202606c.317533.224845.636739.44737.957591.667553l-.670117-.464947c.726627.509705 1.461918 1.007304 2.205555 1.49255.115886.075618.231468.150609.347249.225302l-.347249-.225302c.605904.395372 1.21735.782542 1.834164 1.161377.161169.098987.322498.197279.48419.295002l-.48419-.295002c.366304.224977.734501.447015 1.104556.666085l-.620366-.371083c.324235.19596.649928.389628.977055.580985l-.356689-.209902c.274873.162723.550772.32381.82768.483247l-.470991-.273345c.336501.196841.674519.391236 1.014027.583166l-.543036-.309821c.361859.20835.725443.413884 1.090718.616578l-.547682-.306757c.333456.188509.66835.374638 1.004656.558369l-.456974-.251612c.255951.142028.512733.282662.770334.421892l-.31336-.17028c1.01326.553565 2.039336 1.085354 3.07753 1.594827.223127.109496.447292.218192.672013.325846l-.672013-.325846c.348961.171245.699292.339969 1.050965.506152l-.378952-.180306c.643378.308217 1.291307.607904 1.943624.898934.183009.081649.366205.162548.549742.242763l-.549742-.242763c.284908.127112.570652.252572.857221.37637l-.307479-.133607c.525972.229877 1.054746.454145 1.586237.672738-17.199834-14.580055-29.495001-35.049674-33.559123-58.841708l-87.5880063-512.754504c-.957424-5.604917-1.2183581-11.306689-.7768672-16.975625.0419363-.538481.089947-1.075034.1439598-1.609599zm83.4205087-.909739 585.834851 45.624211c5.67702.442121 11.023674 2.659713 15.32072 6.287338s7.38011 8.526517 8.768279 14.048927l103.737008 412.68608c3.002937 11.946269-5.403113 23.741403-17.675323 24.801518l-590.24218 50.987103c-9.849358.850821-19.513258-2.055247-27.197719-7.991178s-12.93729-14.552426-14.601898-24.297313l-85.21106-498.839469c-2.193541-12.841347 8.2793-24.31871 21.267322-23.307217zm-1.552877 19.939623 85.211059 498.839469c.832014 4.870748 3.461511 9.015951 7.113745 11.837153 3.652235 2.821201 8.327207 4.3184 13.250171 3.893138l590.24218-50.987104-103.737008-412.68608c-.366562-1.458256-1.178345-2.717974-2.273257-3.642314-1.094913-.92434-2.472956-1.513303-3.972039-1.63005zm-100.1084981 257.971106c-7.7223921 36.562316-6.4257995 78.213158 3.8897777 124.952526 13.0052425 49.480527 31.9466707 84.531238 56.8242844 105.152135 2.770924 2.2968 5.579666 4.550679 8.426205 6.761636l-50.2365464-303.188681c-8.562996 25.089643-14.8642362 47.197104-18.9037207 66.322384z"/></svg>