<svg height="960" viewBox="0 0 960 960" width="960" xmlns="http://www.w3.org/2000/svg"><path d="m375.645736 2.99903193c55.057186.28820794 101.398151 1.15312412 139.048016 2.60023053 38.194271 1.46803114 83.565548 4.55900734 136.134522 9.26818424l1.907432.1711407c37.881816 3.4097156 72.556977 20.6829329 97.998711 48.0779174 25.438285 27.3912714 40.109902 63.2478502 40.731147 101.2831512 1.689624 103.313451 2.534436 206.829689 2.534436 310.548687 0 37.144844-.108353 74.28954-.325077 111.435387l38.028819-12.479981.236074-.077471.24167-.057687 4.095276-.977557c9.395408-2.235888 18.188981-4.444477 26.955656-6.747049 4.64594-1.220259 9.065554-2.408168 14.217989-3.814149.55817-.152312 3.076907-.842272 5.655564-1.547922l.672802-.184095c2.126931-.581921 4.181967-1.143576 5.09364-1.390716 6.701878-1.816774 10.926323-2.880259 14.304086-3.548362l.555362-.107951c.456805-.086644.898987-.166244 1.330953-.23956 10.152185-1.723091 16.03553.639103 18.805422 8.69099 2.820873 8.200085-.578221 14.525773-10.151259 20.600767-.446313.283228-.886276.559344-1.326008.831134l-.527959.324251c-8.193789 4.999232-17.154609 8.887733-66.264039 29.599447l-.226844.09567-.233919.076765-51.787402 16.994969c-.112965 13.701161-.240674 27.402551-.383127 41.104237l100.091844-32.846462.236074-.077471.24167-.057687 4.095277-.977557c9.395407-2.235888 18.18898-4.444477 26.955655-6.747049 4.64594-1.220259 9.065554-2.408168 14.217989-3.814149.55817-.152312 3.076907-.842272 5.655564-1.547922l.672802-.184095c2.126931-.581921 4.181967-1.143576 5.09364-1.390716 6.701879-1.816774 10.926323-2.880259 14.304086-3.548362l.555362-.107951c.456805-.086644.898987-.166244 1.330953-.23956 10.152185-1.723091 16.03553.639103 18.805422 8.69099 2.820873 8.200085-.578221 14.525774-10.151259 20.600768-.446313.283228-.886276.559343-1.326008.831134l-.527959.32425c-.088105.053755-.176299.107382-.264631.160903l-.532033.320028c-8.017021 4.786678-17.94212 9.074922-65.467375 29.118516l-.226843.095671-.23392.076764-114.061376 37.431676c-.2292 17.891535-.483539 35.783698-.763021 53.676634l-.251403 15.679291c-.617501 37.484602-14.888477 72.883765-39.698796 100.140598-24.813649 27.260492-58.718465 44.782319-95.976725 48.894445-54.10802 5.970508-101.890713 8.967853-143.362705 8.967853-40.526503 0-89.105112-1.540903-145.748293-4.615655-15.79357-.856818-31.176902-4.125736-45.711763-9.628913l-.862907-.329924-.031279-.005033c-2.960621-.534896-5.926437-1.419939-8.852364-2.684177l-.796957-.354216-43.663508-19.95005-123.349789 40.479501c-12.663089 4.155577-26.053906-.399545-33.977927-10.365998l-111.16102365 36.403492c-7.8728744 2.578177-16.34512585-1.714023-18.92330325-9.586897-2.5781775-7.872874 1.7140225-16.345126 9.5868969-18.923303l109.6565979-35.910347c-2.6445766-15.294727 6.0367431-30.597952 20.9735171-35.499671l73.798807-24.217927c-.965288-1.411861-1.904597-2.839194-2.817541-4.281359l-108.4918047 35.602761c-12.9398886 4.246412-26.6396655-.602845-34.489653-11.027282l-47.62137324 16.971639c-7.80350816 2.781081-16.38401286-1.290401-19.16509366-9.093909s1.290401-16.384013 9.0939091-19.165094l47.2402243-16.835887c-2.229168-15.036302 6.4098228-29.912465 21.0967446-34.732191l110.3138116-36.201528-.123402-7.40892c-1.568351-95.118815-2.35249-192.014738-2.35249-290.687779 0-95.769459.738668-191.538198 2.216343-287.33088l.252594-15.934862c.64072-39.431178 17.678895-76.1045265 46.584003-102.7992422 16.828774-15.5418657 37.156261-27.1919624 59.427977-33.9981699l.735083-.2216706 20.279-9.382c23.30462-14.2387713 50.085814-22.01982262 77.917785-22.28547637zm-50.72755 887.33284607-.503445.165596c13.361605 6.663646 28.255356 10.753019 44.0471 11.609291 56.034994 3.040148 103.902055 4.555138 143.600314 4.555138 39.82611 0 86.157936-2.896034 138.993835-8.723123 3.144008-.346817 6.246201-.821226 9.301597-1.417761-2.384216.424983-4.797233.773044-7.235763 1.043364-53.124345 5.889184-99.791781 8.841184-140.046852 8.841184-40.055408 0-88.277894-1.539802-144.700511-4.615348l-1.741118-.108201c-14.933382-1.045337-29.024192-5.021734-41.715157-11.35014zm407.713608-151.066344-383.40039 125.81789-.008268.051327c-.797438 4.255026-2.436849 8.250637-4.770971 11.76421 7.888135 2.74883 16.27981 4.445412 25.010854 4.921059l1.887397.102316c55.272162 2.98882 102.51368 4.483231 141.724556 4.483231 39.459003 0 85.406741-2.906483 137.843219-8.719413 45.525643-5.046682 80.204809-43.144739 80.961325-88.943001l.252634-15.698197c.176545-11.259808.343093-22.519615.499644-33.779422zm-484.705985 89.418165-17.739503 5.820792c1.08461 1.394513 2.204624 2.76319 3.358829 4.10484l15.917932-5.22352c-.541346-1.556332-1.053895-3.123943-1.537258-4.702112zm19.931672-6.556356-.02729.010552c-.14813.053456-.296861.10585-.446185.157171l-.409755.137638-.041724.014108c.478713 1.582167.991357 3.149749 1.537102 4.701884l.886152-.290821c-.533556-1.561606-1.033274-3.138746-1.4983-4.730532zm465.78727-170.107888-445.769128 146.28472-.008268.051327c-.57912 3.090108-1.602299 6.0434-3.013134 8.774607.827637 4.625824 2.00795 9.131741 3.509913 13.489246l16.120656-5.290126c11.369298-3.731 23.60471-.461977 31.782811 7.880504l.141331.146692 396.808272-130.218464c.157329-13.706169.299844-27.412338.427547-41.118506zm-469.73521-569.4337866-.037364.021881c-7.894393 4.3849821-15.172871 9.6539961-21.680855 15.6643104-20.421001 18.8593932-33.255695 45.0176492-33.727665 74.0636082l-.252339 15.918964c-1.474252 95.571018-2.211318 191.134099-2.211318 286.696901 0 96.732412.755221 191.745837 2.265556 285.040277l33.239198-10.908805c-1.237166-89.94445-1.855743-181.378971-1.855743-274.30349 0-101.491043.737883-202.981329 2.213841-304.487001l.252486-16.897668c.392991-25.657626 8.117129-50.075561 21.794203-70.8089776zm110.936682-19.3351674c-49.889916-.2506494-90.680472 39.714404-91.448557 89.599042l-.241743 16.096536c-1.491839 101.944712-2.237759 203.889124-2.237759 305.833236 0 94.632618.642761 187.713079 1.928286 279.241381l451.171678-148.059804c.301541-43.727199.452311-87.454391.452311-131.181577 0-103.70407-.848017-207.20343-2.544062-310.498081-.763974-46.511341-36.482957-84.9584612-82.812473-89.1375083l-1.862236-.16739c-52.054752-4.6741792-96.780318-7.7295748-134.176696-9.1661869-37.22806-1.430146-83.304309-2.2829722-138.228749-2.5596478zm.255413-20.250501-.719744-.0009681-.78572.0063663c-21.695971.2380667-41.941033 6.634892-59.050151 17.5390319l-1.259835.5827815c-6.273191 4.0819683-12.115124 8.7734329-17.441095 13.9915256-20.423686 20.0099992-33.260067 47.7641628-33.732099 78.5822078l-.252372 16.890175c-1.474446 101.401778-2.211609 202.795135-2.211609 304.188195 0 92.665538.615722 183.8443 1.847088 273.536286.427216.128226.852209.265503 1.274135.41189-1.234484-89.826907-1.85207-181.14294-1.85207-273.948176 0-107.412281.827295-214.824889 2.481882-322.237676.936883-60.8482953 50.692397-109.5968806 111.546492-109.2911465 55.130575.2779696 101.420905 1.1347546 138.896184 2.5743977 37.768499 1.4509075 82.823997 4.528808 135.194985 9.2313533l1.873457.1688195 1.690941.1649682c2.188388.2307169 4.356737.5242167 6.503299.8786172-3.365942-.6161479-6.786613-1.0837046-10.255399-1.3957644l-1.896337-.1700546c-51.989042-4.6547912-96.692915-7.6965279-134.113923-9.1340862-37.146344-1.4270068-83.059011-2.2841633-137.738109-2.5687432zm140.077427 36.4675832c49.971873 1.5617298 93.706743 5.6496465 131.167737 12.2778238 48.846377 8.57367 85.200391 49.400743 85.200391 96.820516v331.595097c0 50.204512-40.235245 92.704099-92.340531 98.731754-37.972517 4.425228-78.232056 7.303952-120.759452 8.633025-45.385469 1.418395-88.88659.893865-130.543773-1.585576-51.165294-3.090578-91.153559-43.386232-93.171286-94.129356-3.33569-84.015349-5.02198-143.061996-5.055373-177.23517l-.000505-1.027937c0-34.744118 1.759524-93.697906 5.27439-176.955533 2.009455-47.622909 37.903553-86.2937418 85.589989-92.3641835 38.169016-4.8044448 83.007197-6.3740482 134.638413-4.7604603zm-132.140664 24.6038788c-38.034376 4.841759-66.509088 35.529429-68.105518 73.363917-.986825 23.375179-1.834706 44.824399-2.543645 64.34649 1.815413-5.904098 6.16816-10.061233 11.249121-10.061233 6.71236 0 12.153802 7.255257 12.153802 16.205069s-5.441442 16.205069-12.153802 16.205069c-5.487576 0-10.125721-4.849126-11.635633-11.508974-1.527596 43.738533-2.302964 77.038769-2.325928 99.88723l-.000525 2.056336c.022902 22.946394.802953 57.392317 2.340349 103.322262 1.523258-6.629136 6.150272-11.44983 11.621737-11.44983 6.71236 0 12.153802 7.255256 12.153802 16.205068 0 8.949813-5.441442 16.205069-12.153802 16.205069-5.082112 0-9.435681-4.159018-11.250626-10.063615.657158 18.935734 1.43326 39.680529 2.328673 62.233106 1.6072 40.418916 33.422556 72.484419 74.392909 74.959183 41.094903 2.445967 83.999289 2.956356 128.713157 1.55895 42.046041-1.31403 81.735741-4.1576 119.069104-8.508342 42.276501-4.890646 74.655617-39.082835 74.655617-78.866197v-331.595097c0-37.462695-29.153797-70.187757-68.657997-77.121659-36.414967-6.44308-79.193257-10.450658-128.33487-11.9864407-50.579904-1.5807321-94.418547-.055916-131.515925 4.6136387zm-34.944416 45.739158 327.139826 4.844038c5.464528.080896 9.851978 4.533777 9.851978 9.998904l-.00019 87.320105c1.803594-5.937063 6.169676-10.124863 11.269342-10.124863 6.71236 0 12.153802 7.255257 12.153802 16.205069s-5.441442 16.205069-12.153802 16.205069c-5.099666 0-9.465748-4.1878-11.269342-10.124863v92.159719c1.803594-5.937064 6.169676-10.124863 11.269342-10.124863 6.71236 0 12.153802 7.255256 12.153802 16.205068 0 8.949813-5.441442 16.205069-12.153802 16.205069-5.099666 0-9.465748-4.1878-11.269342-10.124863v92.159719c1.803594-5.937063 6.169676-10.124863 11.269342-10.124863 6.71236 0 12.153802 7.255256 12.153802 16.205069 0 8.949812-5.441442 16.205068-12.153802 16.205068-5.099666 0-9.465748-4.187799-11.269342-10.124863l.00019 73.14067c0 5.465128-4.38745 9.918009-9.851978 9.998905l-327.139826 4.844038c-5.580134.081488-10.148022-4.419279-10.148022-10.000024v-390.947284c0-5.39472 4.268438-9.780261 9.593514-9.993028l.276361-.006996zm9.851978 20.148024v370.65l307.139-4.547v-361.556zm-34.307604 169.120573c6.71236 0 12.153802 7.255256 12.153802 16.205069 0 8.949812-5.441442 16.205069-12.153802 16.205069-6.712359 0-12.153801-7.255257-12.153801-16.205069 0-8.949813 5.441442-16.205069 12.153801-16.205069z"/></svg>