<svg height="960" viewBox="0 0 960 960" width="960" xmlns="http://www.w3.org/2000/svg"><g fill="none" fill-rule="evenodd"><path d="m436.121876 27.8476118c30.658628-9.3405129 65.321618-7.1840897 96.711413 8.80981 31.389796 15.9938997 53.508773 42.7693337 63.972829 73.0629002 10.587314 30.650404 9.271794 64.892183-6.308994 95.471202-2.266519 4.448293-4.773843 8.696834-7.498841 12.739151l.001717 202.680854c0 7.286917-2.919949 13.970064-7.701322 18.860092-4.780429 4.889063-11.395333 7.958758-18.679818 8.123414l-150.342999 3.400069c-7.531541.166686-14.329053-2.77077-19.256974-7.589183-4.929968-4.820414-8.018887-11.552099-8.018887-19.087363l-.000405-199.568461c-14.951664-17.946532-24.59806-39.413087-28.098045-61.82387-3.839337-24.583684-.310673-50.303683 11.690835-73.857968 15.580788-30.5790191 42.509726-51.7701097 73.529491-61.2206472z" stroke="#000" stroke-linejoin="round" stroke-width="40"/><path d="m429.33603 239.78223c53.092369 27.051914 117.268305 7.499957 143.340963-43.670516 26.072659-51.170474 4.168856-114.5822482-48.923514-141.6341617s-117.268305-7.4999572-143.340964 43.6705167c-26.072658 51.170474-4.168855 114.582248 48.923515 141.634161z" stroke="#13de90"/><g stroke="#000" stroke-linecap="round" stroke-linejoin="round" stroke-width="20"><path d="m439.036241 37.4135136c28.29912-8.621661 60.289153-6.6059548 89.257143 8.1539734 28.96799 14.7599283 49.402001 39.4556062 59.060736 67.417761 9.720364 28.140572 8.541498 59.584243-5.767061 87.666371-2.545052 4.994945-5.4208 9.715526-8.588803 14.15056l.001744 205.80935c0 4.587059-1.842398 8.791547-4.851379 11.868907-3.00851 3.076877-7.170129 5.013501-11.755891 5.117156l-16.393424.37069.000694 469.031718c0 5.79899-2.350505 11.04899-6.150758 14.849242-3.800252 3.800253-9.050252 6.150758-14.849242 6.150758s-11.04899-2.350505-14.849242-6.150758c-3.800253-3.800252-6.150758-9.050252-6.150758-14.849227l-.000693-468.082444-40.000001.904666.000694 467.177763c0 5.79899-2.350505 11.04899-6.150758 14.849242-3.800252 3.800253-9.050252 6.150758-14.849242 6.150758s-11.04899-2.350505-14.849242-6.150758c-3.800253-3.800252-6.150758-9.050252-6.150758-14.849227l-.000693-466.227411-9.94471.224948c-4.709306.104225-8.96227-1.727927-12.044533-4.741697-3.083221-3.014706-5.010064-7.226135-5.010064-11.937318l-.000412-203.271001c-15.098979-17.062722-24.815066-37.876251-28.217804-59.664347-3.522949-22.557824-.292587-46.160298 10.720666-67.775025 14.308559-28.082128 39.054102-47.5179771 67.533791-56.1946504z"/><path d="m439.036241 37.4135136c28.29912-8.621661 60.289153-6.6059548 89.257143 8.1539734 28.96799 14.7599283 49.402001 39.4556062 59.060736 67.417761 9.720364 28.140572 8.541498 59.584243-5.767061 87.666371s-39.054102 47.517977-67.533791 56.19465c-28.29912 8.621661-60.289153 6.605955-89.257143-8.153974-28.96799-14.759928-49.402001-39.455606-59.060736-67.41776-9.720365-28.140573-8.541498-59.584243 5.767061-87.666371s39.054102-47.5179771 67.533791-56.1946504z"/><path d="m385.382491 74.2153125c-15.326317 35.1678375 14.531367 82.7897905 69.037392 108.4289435 54.971032 25.857887 114.800013 19.848392 136.14802-12.998041"/><path d="m574.735982 220.923565v209.257424c0 3.957006-3.49359 7.237291-7.803151 7.326723l-171.669329 3.564335c-4.309561.087565-7.803151-3.047723-7.803151-7.004729 0-90.121197 0-157.712095 0-202.772694"/></g></g></svg>