<svg width="960" height="960" viewBox="0 0 960 960" fill="none" xmlns="http://www.w3.org/2000/svg">
<path d="M93.3037 209.022C99.777 205.747 107.024 204.291 114.269 204.819C270.62 216.205 392.503 225.725 514.296 235.237C636.084 244.749 757.782 254.254 913.905 265.624C934.814 267.146 951 284.554 951 305.518V345.547C951 356.617 946.412 367.192 938.329 374.755C930.246 382.319 919.39 386.194 908.345 385.459L229.984 340.324V713.298C229.984 734.999 212.682 752.741 190.988 753.286L112.367 755.259C110.716 755.301 109.063 755.24 107.419 755.077L46.0566 748.997C25.5928 746.969 10 729.756 10 709.192V277.127C10.0001 262.298 18.2049 248.686 31.3174 241.759L92.6797 209.344L93.3037 209.022ZM121.861 691.79V715.008L189.984 713.298V691.79H121.861ZM50 709.192L101.861 714.33V691.79H50V709.192ZM121.861 671.79H189.984V308.884L121.861 304.324V671.79ZM50 330.629V671.79H101.861V308.524L50 330.629ZM873.336 334.596L900.999 336.449V304.787C891.658 304.105 882.439 303.43 873.336 302.761V334.596ZM283.125 295.076L853.336 333.256V301.289C723.974 291.735 617.578 283.425 511.182 275.116C437.686 269.376 364.19 263.636 283.125 257.486V295.076ZM50 277.127V308.889L101.861 286.784V249.732L50 277.127ZM121.861 284.278L263.125 293.737V255.972C218.802 252.625 172.108 249.149 121.861 245.48V284.278Z" fill="black"/>
</svg>
