<?xml version="1.0" encoding="utf-8"?>
<!-- Generator: Adobe Illustrator 21.0.0, SVG Export Plug-In . SVG Version: 6.00 Build 0)  -->
<svg version="1.1" id="Layer_1" xmlns="http://www.w3.org/2000/svg" xmlns:xlink="http://www.w3.org/1999/xlink" x="0px" y="0px"
	 viewBox="0 0 484.8 277.8" style="enable-background:new 0 0 484.8 277.8;" xml:space="preserve">
<style type="text/css">
	.st0{enable-background:new    ;}
</style>
<path d="M201.9,179.2c0-16.7,0-32.9,0-49.2c-13.1,0-25.7,0-38.3,0c-15.1,32.3-48.8,44.7-77.3,37.3C58.5,160.1,38,135,36.8,106.5
	c-1.2-29.4,16.7-56.2,44-65.6c13.9-4.8,27.9-5.2,42-0.7c18.5,5.9,31.7,18.1,40.1,35.1c13.4,0,26.4,0,39.5,0
	c-0.2-1.1-0.2-1.9-0.4-2.6c-11.6-35-34.9-58.2-70.1-69.2c-3-0.9-14.1-3-25.6-3.4C95.7-0.3,84.5,1,83.3,1.3
	c-43.8,9-75.8,42.9-82.4,87.6c-0.1,0.3-1,6.8-0.9,13.8c0.1,7.9,1.4,16.5,1.5,17.4c12.5,76.4,103.8,112,164.6,64.1
	c1.6-1.3,3.2-2.5,5.4-4.1c0,9.3,0,17.8,0,26.1c104.6,0,208.9,0,313.2,0c0-9.1,0-17.8,0-27.1C390.4,179.2,296.4,179.2,201.9,179.2z"
	/>
<path d="M340.4,76.5c9.2,0,18.2,0,27.5,0c0,3.6,0,7,0,11.7c18.7-16,36.7-16.3,54.2,0.9c3.2-2.6,6.3-5.3,9.9-7.3
	c11.3-6.3,23.1-8.4,35.2-2.9c11.8,5.4,17.1,15.6,17.3,28c0.5,22.4,0.1,44.8,0.1,67.2c0,0.4-0.2,0.7-0.3,1.3c-9.6,0-19.1,0-28.7,0
	c-1-1.3-0.5-2.8-0.5-4.2c0-19.1,0-38.1,0-57.2c0-1.7-0.1-3.4-0.5-5.1c-1.1-4.6-3.1-8.7-8.1-10c-5.1-1.3-9.1,1-12.4,4.7
	c-5.5,6-6.5,13.3-6.4,21.2c0.2,16.8,0.1,33.5,0.1,50.6c-10,0-19.7,0-29.6,0c-0.9-1.3-0.5-2.8-0.5-4.3c0-18.1,0-36.3,0-54.4
	c0-1.6,0-3.2,0-4.8c-0.3-7.1-3.4-11.6-8.8-12.6c-6.6-1.2-13.4,2.4-15.9,8.6c-2.2,5.5-3.1,11.3-3.1,17.2c0,15.2,0,30.4,0,45.6
	c0,1.5,0,2.9,0,4.7c-9.9,0-19.5,0-29.4,0C340.4,142.5,340.4,109.7,340.4,76.5z"/>
<path d="M288.5,112.1c1.8-9.1-3.3-12.5-10.3-13.5c-5-0.7-10.2-0.7-15.1,0c-6.6,0.9-11.4,4.9-13.3,12.1c-11.2-1.4-22.3-2.8-33.6-4.2
	c6.1-16.6,17.3-26.9,34.7-29c16.5-2,33.3-2.5,49.7,1.2c16.7,3.7,24.5,13.9,24.6,31c0.1,12.4-1.2,24.8-0.6,37.2
	c0.4,10.1,2,19.8,8.7,28.6c-12.3,0-24,0-36,0c-1-3.4-2-7-3.2-10.9c-4.1,1.7-7.9,3.4-11.9,4.9c-13.8,5.1-27.9,8.1-42.6,4.4
	c-7.8-2-14.6-5.8-19.6-12.3c-9-11.8-6.5-26.9,5.9-35.2c7.3-4.9,15.8-6,24.2-7.6c6.4-1.3,12.8-2.3,19.3-3.4
	C275.5,114.2,282,113.1,288.5,112.1z M288.7,131.2c-8,1-15.7,1.7-23.2,3.5c-4.4,1.1-8.6,2.8-12.3,5.5c-4.2,3-4.6,6.6-1.2,10.5
	c2.2,2.4,5,4,8.2,4.7c11.8,2.7,20.6-2.6,28.5-10.2C288.7,140.5,288.7,136.1,288.7,131.2z"/>
<path d="M103.3,65.4c20.6,0.1,37.4,17,37.3,37.5c-0.2,20.6-17.2,37.3-37.7,37.1c-20.4-0.2-37-16.9-37-37.4
	C65.8,82.2,82.8,65.3,103.3,65.4z M103,121.8c10.6,0.1,19.2-8.3,19.4-18.8c0.2-10.6-8.5-19.5-19.1-19.5c-10.4,0-19.1,8.6-19.2,19.1
	C84,113.1,92.5,121.7,103,121.8z"/>
<path d="M204.2,103.2c0.1,13-10.2,23.4-23.2,23.4c-12.7,0-23.2-10.3-23.3-23C157.5,91,168,80.3,180.6,80.2
	C193.7,80,204.1,90.2,204.2,103.2z M180.9,115.5c6.7,0,12.2-5.3,12.3-12c0.1-6.6-5.5-12.2-12.1-12.2c-6.7,0-12.2,5.4-12.3,12
	C168.8,110,174.2,115.5,180.9,115.5z"/>
<g class="st0">
	<path d="M5.3,224h11.5l20.8,36.5V224h10.2v52.3H36.8l-21.3-37.1v37.1H5.3V224z"/>
	<path d="M96.7,233.3H69v11.1h25.4v9.1H69V267h29v9.4H58.3V224h38.4V233.3z"/>
	<path d="M146.8,271.7c-4,4.1-9.7,6.1-17.1,6.1c-7.5,0-13.2-2-17.1-6.1c-5.3-5-8-12.2-8-21.6c0-9.6,2.7-16.8,8-21.6
		c4-4.1,9.7-6.1,17.1-6.1c7.5,0,13.2,2,17.1,6.1c5.3,4.8,7.9,12,7.9,21.6C154.7,259.5,152,266.7,146.8,271.7z M139.9,263.8
		c2.5-3.2,3.8-7.7,3.8-13.6c0-5.9-1.3-10.4-3.8-13.6c-2.5-3.2-6-4.8-10.3-4.8c-4.3,0-7.8,1.6-10.4,4.8s-3.9,7.7-3.9,13.6
		c0,5.9,1.3,10.4,3.9,13.6s6,4.8,10.4,4.8C133.9,268.6,137.4,267,139.9,263.8z"/>
	<path d="M188.2,229.5c4.2-4.3,9.6-6.5,16.1-6.5c8.7,0,15.1,2.9,19.1,8.7c2.2,3.2,3.4,6.5,3.6,9.8h-10.9c-0.7-2.5-1.6-4.4-2.7-5.7
		c-1.9-2.3-4.8-3.4-8.7-3.4c-3.9,0-7,1.6-9.2,4.8c-2.2,3.2-3.4,7.7-3.4,13.6c0,5.9,1.2,10.3,3.6,13.2c2.4,2.9,5.4,4.4,9,4.4
		c3.8,0,6.6-1.3,8.6-3.8c1.1-1.3,2-3.4,2.7-6.1h10.9c-0.9,5.7-3.3,10.3-7.2,13.9c-3.9,3.6-8.8,5.4-14.8,5.4
		c-7.4,0-13.3-2.4-17.6-7.2c-4.3-4.9-6.4-11.5-6.4-20C181,241.5,183.4,234.4,188.2,229.5z"/>
	<path d="M267.2,271.6c-3.3,4-8.2,6-14.9,6c-6.7,0-11.6-2-14.9-6s-4.9-8.9-4.9-14.6c0-5.6,1.6-10.4,4.9-14.5s8.2-6.1,14.9-6.1
		c6.7,0,11.6,2,14.9,6.1s4.9,8.9,4.9,14.5C272.1,262.7,270.5,267.6,267.2,271.6z M259.1,266c1.6-2.1,2.4-5.1,2.4-9
		c0-3.9-0.8-6.9-2.4-9c-1.6-2.1-3.9-3.1-6.8-3.1s-5.2,1-6.8,3.1c-1.6,2.1-2.4,5.1-2.4,9c0,3.9,0.8,6.9,2.4,9
		c1.6,2.1,3.9,3.2,6.8,3.2S257.5,268.1,259.1,266z"/>
	<path d="M311.6,271.6c-3.3,4-8.2,6-14.9,6s-11.6-2-14.9-6s-4.9-8.9-4.9-14.6c0-5.6,1.6-10.4,4.9-14.5s8.2-6.1,14.9-6.1
		s11.6,2,14.9,6.1s4.9,8.9,4.9,14.5C316.5,262.7,314.9,267.6,311.6,271.6z M303.5,266c1.6-2.1,2.4-5.1,2.4-9c0-3.9-0.8-6.9-2.4-9
		c-1.6-2.1-3.9-3.1-6.8-3.1c-3,0-5.2,1-6.8,3.1c-1.6,2.1-2.4,5.1-2.4,9c0,3.9,0.8,6.9,2.4,9s3.9,3.2,6.8,3.2
		C299.7,269.2,301.9,268.1,303.5,266z"/>
	<path d="M334.1,276.4H324V224h10.1V276.4z"/>
	<path d="M367.1,251.6c-0.2-1.4-0.7-2.7-1.5-3.9c-1.1-1.6-2.9-2.3-5.3-2.3c-3.4,0-5.8,1.7-7,5.1c-0.7,1.8-1,4.2-1,7.2
		c0,2.8,0.3,5.1,1,6.8c1.2,3.2,3.5,4.8,6.8,4.8c2.4,0,4.1-0.6,5.1-1.9s1.6-2.9,1.8-5h10.3c-0.2,3.1-1.4,6-3.3,8.7
		c-3.2,4.4-7.9,6.6-14.1,6.6c-6.2,0-10.8-1.8-13.8-5.5c-2.9-3.7-4.4-8.5-4.4-14.4c0-6.6,1.6-11.8,4.9-15.5c3.2-3.7,7.7-5.5,13.4-5.5
		c4.9,0,8.8,1.1,11.9,3.3s4.9,6,5.5,11.5H367.1z"/>
	<path d="M399.7,252.8c1.9-0.2,3.2-0.5,4-0.9c1.5-0.6,2.2-1.6,2.2-2.9c0-1.6-0.6-2.7-1.7-3.3c-1.1-0.6-2.8-0.9-4.9-0.9
		c-2.4,0-4.1,0.6-5.1,1.8c-0.7,0.9-1.2,2.1-1.4,3.6H383c0.2-3.4,1.2-6.2,2.9-8.3c2.7-3.4,7.3-5.1,13.8-5.1c4.3,0,8,0.8,11.3,2.5
		s5,4.9,5,9.5v17.8c0,1.2,0,2.7,0.1,4.5c0.1,1.3,0.3,2.2,0.6,2.7c0.3,0.5,0.8,0.9,1.5,1.2v1.5h-11c-0.3-0.8-0.5-1.5-0.6-2.2
		c-0.1-0.7-0.2-1.5-0.3-2.3c-1.4,1.5-3,2.8-4.9,3.9c-2.2,1.3-4.7,1.9-7.4,1.9c-3.5,0-6.4-1-8.7-3s-3.4-4.8-3.4-8.5
		c0-4.8,1.8-8.2,5.5-10.3c2-1.2,5-2,8.9-2.5L399.7,252.8z M405.9,257.6c-0.6,0.4-1.3,0.7-2,1c-0.7,0.2-1.6,0.5-2.7,0.7l-2.3,0.4
		c-2.2,0.4-3.7,0.8-4.7,1.4c-1.6,0.9-2.4,2.4-2.4,4.3c0,1.7,0.5,3,1.5,3.7c1,0.8,2.2,1.2,3.6,1.2c2.2,0,4.2-0.6,6.1-1.9
		c1.9-1.3,2.8-3.6,2.9-7V257.6z"/>
	<path d="M473.1,237.8c1.7,0.7,3.2,1.8,4.5,3.5c1.1,1.3,1.8,3,2.2,5c0.2,1.3,0.4,3.2,0.4,5.7l-0.1,24.4h-10.4v-24.6
		c0-1.5-0.2-2.7-0.7-3.6c-0.9-1.8-2.6-2.7-5-2.7c-2.8,0-4.7,1.2-5.8,3.5c-0.5,1.2-0.8,2.7-0.8,4.4v23h-10.2v-23c0-2.3-0.2-4-0.7-5
		c-0.9-1.9-2.5-2.8-5-2.8c-2.9,0-4.8,0.9-5.8,2.8c-0.5,1.1-0.8,2.7-0.8,4.8v23.3h-10.3v-38.6h9.8v5.6c1.3-2,2.4-3.4,3.5-4.3
		c2-1.5,4.5-2.3,7.6-2.3c3,0,5.3,0.7,7.2,2c1.5,1.2,2.6,2.8,3.3,4.7c1.3-2.3,3-3.9,4.9-5c2.1-1.1,4.4-1.6,7-1.6
		C469.8,236.8,471.5,237.1,473.1,237.8z"/>
</g>
<path d="M201.9,179.2c0-16.7,0-32.9,0-49.2c-13.1,0-25.7,0-38.3,0c-15.1,32.3-48.8,44.7-77.3,37.3C58.5,160.1,38,135,36.8,106.5
	c-1.2-29.4,16.7-56.2,44-65.6c13.9-4.8,27.9-5.2,42-0.7c18.5,5.9,31.7,18.1,40.1,35.1c13.4,0,26.4,0,39.5,0
	c-0.2-1.1-0.2-1.9-0.4-2.6c-11.6-35-34.9-58.2-70.1-69.2c-3-0.9-14.1-3-25.6-3.4C95.7-0.3,84.5,1,83.3,1.3
	c-43.8,9-75.8,42.9-82.4,87.6c-0.1,0.3-1,6.8-0.9,13.8c0.1,7.9,1.4,16.5,1.5,17.4c12.5,76.4,103.8,112,164.6,64.1
	c1.6-1.3,3.2-2.5,5.4-4.1c0,9.3,0,17.8,0,26.1c104.6,0,208.9,0,313.2,0c0-9.1,0-17.8,0-27.1C390.4,179.2,296.4,179.2,201.9,179.2z"
	/>
<path d="M340.4,76.5c9.2,0,18.2,0,27.5,0c0,3.6,0,7,0,11.7c18.7-16,36.7-16.3,54.2,0.9c3.2-2.6,6.3-5.3,9.9-7.3
	c11.3-6.3,23.1-8.4,35.2-2.9c11.8,5.4,17.1,15.6,17.3,28c0.5,22.4,0.1,44.8,0.1,67.2c0,0.4-0.2,0.7-0.3,1.3c-9.6,0-19.1,0-28.7,0
	c-1-1.3-0.5-2.8-0.5-4.2c0-19.1,0-38.1,0-57.2c0-1.7-0.1-3.4-0.5-5.1c-1.1-4.6-3.1-8.7-8.1-10c-5.1-1.3-9.1,1-12.4,4.7
	c-5.5,6-6.5,13.3-6.4,21.2c0.2,16.8,0.1,33.5,0.1,50.6c-10,0-19.7,0-29.6,0c-0.9-1.3-0.5-2.8-0.5-4.3c0-18.1,0-36.3,0-54.4
	c0-1.6,0-3.2,0-4.8c-0.3-7.1-3.4-11.6-8.8-12.6c-6.6-1.2-13.4,2.4-15.9,8.6c-2.2,5.5-3.1,11.3-3.1,17.2c0,15.2,0,30.4,0,45.6
	c0,1.5,0,2.9,0,4.7c-9.9,0-19.5,0-29.4,0C340.4,142.5,340.4,109.7,340.4,76.5z"/>
<path d="M288.5,112.1c1.8-9.1-3.3-12.5-10.3-13.5c-5-0.7-10.2-0.7-15.1,0c-6.6,0.9-11.4,4.9-13.3,12.1c-11.2-1.4-22.3-2.8-33.6-4.2
	c6.1-16.6,17.3-26.9,34.7-29c16.5-2,33.3-2.5,49.7,1.2c16.7,3.7,24.5,13.9,24.6,31c0.1,12.4-1.2,24.8-0.6,37.2
	c0.4,10.1,2,19.8,8.7,28.6c-12.3,0-24,0-36,0c-1-3.4-2-7-3.2-10.9c-4.1,1.7-7.9,3.4-11.9,4.9c-13.8,5.1-27.9,8.1-42.6,4.4
	c-7.8-2-14.6-5.8-19.6-12.3c-9-11.8-6.5-26.9,5.9-35.2c7.3-4.9,15.8-6,24.2-7.6c6.4-1.3,12.8-2.3,19.3-3.4
	C275.5,114.2,282,113.1,288.5,112.1z M288.7,131.2c-8,1-15.7,1.7-23.2,3.5c-4.4,1.1-8.6,2.8-12.3,5.5c-4.2,3-4.6,6.6-1.2,10.5
	c2.2,2.4,5,4,8.2,4.7c11.8,2.7,20.6-2.6,28.5-10.2C288.7,140.5,288.7,136.1,288.7,131.2z"/>
<path d="M103.3,65.4c20.6,0.1,37.4,17,37.3,37.5c-0.2,20.6-17.2,37.3-37.7,37.1c-20.4-0.2-37-16.9-37-37.4
	C65.8,82.2,82.8,65.3,103.3,65.4z M103,121.8c10.6,0.1,19.2-8.3,19.4-18.8c0.2-10.6-8.5-19.5-19.1-19.5c-10.4,0-19.1,8.6-19.2,19.1
	C84,113.1,92.5,121.7,103,121.8z"/>
<path d="M204.2,103.2c0.1,13-10.2,23.4-23.2,23.4c-12.7,0-23.2-10.3-23.3-23C157.5,91,168,80.3,180.6,80.2
	C193.7,80,204.1,90.2,204.2,103.2z M180.9,115.5c6.7,0,12.2-5.3,12.3-12c0.1-6.6-5.5-12.2-12.1-12.2c-6.7,0-12.2,5.4-12.3,12
	C168.8,110,174.2,115.5,180.9,115.5z"/>
</svg>
