<?xml version="1.0" encoding="utf-8"?>
<!-- Generator: Adobe Illustrator 21.0.0, SVG Export Plug-In . SVG Version: 6.00 Build 0)  -->
<svg version="1.1" id="Layer_1" xmlns="http://www.w3.org/2000/svg" xmlns:xlink="http://www.w3.org/1999/xlink" x="0px" y="0px"
	 viewBox="0 0 1280.9 1417.3" style="enable-background:new 0 0 1280.9 1417.3;" xml:space="preserve">
<g>
	<path d="M816.7,1417.3H464.2c-255.7,0-463.8-208-463.9-463.6C0.1,946.1-4.9,795,33.9,617.5c44.8-204.4,110.6-352.2,201.2-452
		C336.2,54.1,468.8,0,640.5,0s304.3,54.1,405.4,165.5c90.6,99.8,156.4,247.7,201.2,452v0c38.9,177.4,33.9,328.5,33.6,336.1
		C1280.5,1209.4,1072.4,1417.3,816.7,1417.3z M640.5,25C328.5,25,149,209.4,58.3,622.9c-39,178.1-33.1,328.5-33,330l0,0.5
		c0,242,196.9,438.9,438.9,438.9h352.5c242,0,438.9-196.9,438.9-438.9l0-0.5c0.1-1.5,6-152.2-33-330v0C1132,209.4,952.4,25,640.5,25
		z"/>
</g>
<g>
	<path d="M640.5,235.4c-66.7,0-118.9-28.4-118.9-64.6s52.2-64.6,118.9-64.6s118.9,28.4,118.9,64.6S707.2,235.4,640.5,235.4z
		 M640.5,114.5c-61,0-110.6,25.3-110.6,56.3s49.6,56.3,110.6,56.3c61,0,110.6-25.3,110.6-56.3S701.5,114.5,640.5,114.5z"/>
</g>
<g>
	<path d="M640.5,179.6c-44.5,0-79.4-16.1-79.4-36.7s34.9-36.7,79.4-36.7c44.5,0,79.4,16.1,79.4,36.7S685,179.6,640.5,179.6z
		 M640.5,114.5c-33.6,0-71.1,11.7-71.1,28.4s37.5,28.4,71.1,28.4c33.6,0,71.1-11.7,71.1-28.4S674.1,114.5,640.5,114.5z"/>
</g>
<g>
	<path d="M726.2,1160H531.1c-97,0-175.8-72.1-175.8-160.7c0-187.9,61.6-359.8,118.9-440.1c31.5-51.4,91-83.2,155.4-83.2
		c37.3,0,73.1,10.5,103.4,30.3l0.8,0.5c4.1,2.6,8.3,5.6,12.5,9.1c16.3,12.9,29.7,28.2,40,45.5c68.2,99.1,115.8,278.2,115.8,435.7
		l0,6.2C899.7,1090,821.8,1160,726.2,1160z M629.6,488.4c-60.1,0-115.6,29.7-144.8,77.5l-0.2,0.4c-56.2,78.7-116.7,247.8-116.7,433
		c0,81.7,73.3,148.2,163.3,148.2h195.1c90.1,0,163.3-66.5,163.3-148.2c0-0.4,0-0.7,0-1.1l-0.1-7.5h0.1
		c-1.2-153.8-47.6-326.7-113.7-422.5l-0.2-0.4c-9.5-16-22-30.2-37.2-42.3c-3.3-2.7-6.5-5.1-9.7-7.2l0,0l-1.7-1.1
		C698.5,498.3,664.8,488.4,629.6,488.4z"/>
</g>
<g>
	<path d="M786.8,1290.4H470.5c-153.9,0-279.1-102.8-279.1-229.1c0-233.8,79-496.4,192.1-638.6c49.8-73.1,144.4-118.7,246.7-118.7
		c59.6,0,116.5,15.1,164.8,43.6l0.8,0.4c6.4,3.6,13,7.9,19.6,12.8c26,18.5,47.5,40.4,63.7,65.2C989,569.1,1066,829,1066,1057.8v4
		C1065.6,1187.9,940.5,1290.4,786.8,1290.4z M630.1,312.2c-99.6,0-191.6,44.2-240,115.4C298.3,543,199.7,790.4,199.7,1061.2
		c0,121.8,121.5,220.8,270.8,220.8h316.4c149.3,0,270.8-99.1,270.8-220.8c0-0.6,0-1.2-0.1-1.8l-0.1-5.6l0.2,0
		c-0.9-226.1-76.9-481.8-185.4-623.1c-15.9-24.1-36.6-45.3-61.8-63.2c-6-4.5-12-8.4-17.8-11.7h0l-1.1-0.6
		C744.3,327,688.5,312.2,630.1,312.2z"/>
</g>
<g>
	<g>
		<path d="M481,877.6h11.9v2c0,6.3,0.5,11,1.4,14c1,3,2.5,5.1,4.7,6.4c1.7,1,4.4,1.6,7.9,2c3.6,0.4,10.9,0.6,22.1,0.6
			c6.1,0,10.8-0.4,14.1-1.2c3.3-0.8,5.8-2.1,7.4-3.8c0.9-1,1.6-2.6,2-4.9c0.4-2.3,0.6-5.4,0.6-9.3c0-7.9-0.8-12.9-2.4-14.9
			c-1.6-2-4.8-3.2-9.5-3.6l-32.8-2.6c-9.8-0.8-16.6-3.2-20.4-7.4c-3.8-4.1-5.7-11.1-5.7-21c0-6.2,0.6-11.2,1.9-15
			c1.2-3.8,3.2-6.9,6-9.4c2.1-1.9,5.2-3.3,9-4c3.9-0.8,10.7-1.2,20.5-1.2h3.8c10.9,0,18.6,0.5,23.1,1.6c4.5,1.1,8.2,2.9,11.2,5.4
			c2,1.7,3.6,4.2,4.5,7.3c1,3.2,1.5,7.1,1.5,11.8c0,1.4,0,2.4,0,3.2c0,0.7-0.1,1.4-0.1,2h-11.9v-2.6c0-3.9-0.2-6.9-0.7-9
			c-0.5-2.1-1.2-3.6-2.2-4.6c-1.5-1.5-4.1-2.5-7.9-3.1c-3.8-0.6-11-0.9-21.6-0.9c-11,0-17.9,1.2-20.7,3.7c-2.8,2.5-4.2,7.4-4.2,14.9
			c0,6.1,0.9,10.3,2.8,12.6c1.8,2.3,5.4,3.7,10.6,4.1l33.5,2.8c8.8,0.8,14.9,3.2,18.5,7.3c3.5,4.1,5.3,10.9,5.3,20.4
			c0,7-0.5,12.2-1.4,15.7c-0.9,3.5-2.4,6.4-4.5,8.8c-2.6,2.9-6,4.9-10.4,6.1c-4.4,1.2-12.3,1.8-23.9,1.8h-5.3
			c-9.8,0-16.8-0.5-20.9-1.5c-4.1-1-7.5-2.7-10.2-5.2c-2.7-2.3-4.6-5.4-5.9-9.3c-1.3-3.9-1.9-8.9-1.9-14.9V877.6z"/>
	</g>
	<g>
		<path d="M585,841c0-13.6,2.8-23.1,8.4-28.4c5.6-5.4,15.6-8,30-8h13.5c14.5,0,24.5,2.6,30.1,7.9c5.6,5.3,8.3,14.8,8.3,28.5v36.1
			c0,13.6-2.8,23.1-8.5,28.5c-5.7,5.3-15.6,8-29.9,8h-13.5c-14.4,0-24.4-2.7-30-8c-5.6-5.3-8.4-14.8-8.4-28.5V841z M633.4,815.6
			h-6.6c-7.5,0-12.8,0.4-15.9,1.2c-3.1,0.8-5.8,2.2-8,4.1c-2.1,1.8-3.6,4.3-4.4,7.3c-0.9,3.1-1.3,8.4-1.3,15.8v30.2
			c0,7.4,0.4,12.7,1.3,15.7c0.9,3,2.3,5.4,4.4,7.3c2.2,1.9,4.9,3.3,8,4.1c3.1,0.8,8.4,1.2,15.9,1.2h6.6c7.5,0,12.8-0.4,16-1.2
			c3.2-0.8,5.8-2.2,8.1-4.1c2.1-1.8,3.5-4.1,4.3-7.1c0.8-3,1.3-8.3,1.3-15.9v-30.3c0-7.5-0.4-12.8-1.3-15.8
			c-0.9-3.1-2.3-5.5-4.4-7.3c-2.2-1.9-4.8-3.2-7.9-4C646.2,816,640.9,815.6,633.4,815.6z"/>
	</g>
	<g>
		<path d="M694.6,877.6h11.9v2c0,6.3,0.5,11,1.4,14c1,3,2.5,5.1,4.7,6.4c1.7,1,4.4,1.6,7.9,2c3.6,0.4,10.9,0.6,22.1,0.6
			c6.1,0,10.8-0.4,14.1-1.2c3.3-0.8,5.8-2.1,7.4-3.8c0.9-1,1.6-2.6,2-4.9c0.4-2.3,0.6-5.4,0.6-9.3c0-7.9-0.8-12.9-2.4-14.9
			c-1.6-2-4.8-3.2-9.5-3.6l-32.8-2.6c-9.8-0.8-16.6-3.2-20.4-7.4c-3.8-4.1-5.7-11.1-5.7-21c0-6.2,0.6-11.2,1.9-15s3.2-6.9,6-9.4
			c2.1-1.9,5.2-3.3,9-4c3.9-0.8,10.7-1.2,20.5-1.2h3.8c10.9,0,18.6,0.5,23.1,1.6c4.5,1.1,8.2,2.9,11.2,5.4c2,1.7,3.6,4.2,4.5,7.3
			c1,3.2,1.5,7.1,1.5,11.8c0,1.4,0,2.4,0,3.2c0,0.7-0.1,1.4-0.1,2h-11.9v-2.6c0-3.9-0.2-6.9-0.7-9c-0.5-2.1-1.2-3.6-2.2-4.6
			c-1.5-1.5-4.1-2.5-7.9-3.1c-3.8-0.6-11-0.9-21.6-0.9c-11,0-17.9,1.2-20.7,3.7c-2.8,2.5-4.2,7.4-4.2,14.9c0,6.1,0.9,10.3,2.8,12.6
			s5.4,3.7,10.6,4.1l33.5,2.8c8.8,0.8,14.9,3.2,18.5,7.3c3.5,4.1,5.3,10.9,5.3,20.4c0,7-0.5,12.2-1.4,15.7c-0.9,3.5-2.4,6.4-4.5,8.8
			c-2.6,2.9-6,4.9-10.4,6.1c-4.4,1.2-12.3,1.8-23.9,1.8h-5.3c-9.8,0-16.8-0.5-20.9-1.5c-4.1-1-7.5-2.7-10.2-5.2
			c-2.7-2.3-4.6-5.4-5.9-9.3c-1.3-3.9-1.9-8.9-1.9-14.9V877.6z"/>
	</g>
</g>
</svg>
