<?xml version="1.0" encoding="utf-8"?>
<!-- Generator: Adobe Illustrator 21.0.0, SVG Export Plug-In . SVG Version: 6.00 Build 0)  -->
<svg version="1.1" id="Layer_1" xmlns="http://www.w3.org/2000/svg" xmlns:xlink="http://www.w3.org/1999/xlink" x="0px" y="0px"
	 viewBox="0 0 1280.9 1417.3" style="enable-background:new 0 0 1280.9 1417.3;" xml:space="preserve">
<g>
	<path d="M816.7,1417.3H464.2c-255.7,0-463.8-208-463.9-463.6C0.1,946-4.9,794.9,33.9,617.5c44.8-204.4,110.6-352.2,201.2-452
		C336.2,54.1,468.8,0,640.5,0c171.7,0,304.3,54.1,405.4,165.5c90.6,99.8,156.4,247.7,201.2,452l0,0
		c38.9,177.4,33.9,328.5,33.6,336.1C1280.5,1209.4,1072.4,1417.3,816.7,1417.3z M640.5,25C328.5,25,149,209.4,58.3,622.9
		c-39,177.9-33.1,328.5-33,330l0,0.5c0,242,196.9,438.9,438.9,438.9h352.5c242,0,438.9-196.9,438.9-438.9l0-0.5
		c0.1-1.5,6-152.2-33-330l0,0C1132,209.4,952.4,25,640.5,25z"/>
</g>
<g>
	<path d="M640.5,203c-57.8,0-103.1-24.7-103.1-56.3c0-31.6,45.3-56.3,103.1-56.3c57.8,0,103.1,24.7,103.1,56.3
		C743.5,178.3,698.3,203,640.5,203z M640.5,98.8c-51.4,0-94.7,22-94.7,48s43.4,48,94.7,48c51.4,0,94.8-22,94.8-48
		S691.8,98.8,640.5,98.8z"/>
</g>
<g>
	<path d="M640.5,154.9c-38.7,0-69-14.2-69-32.2s30.3-32.2,69-32.2s69,14.2,69,32.2S679.2,154.9,640.5,154.9z M640.5,98.8
		c-35.8,0-60.7,12.6-60.7,23.9s24.9,23.9,60.7,23.9c35.8,0,60.7-12.6,60.7-23.9S676.3,98.8,640.5,98.8z"/>
</g>
<g>
	<ellipse cx="640.5" cy="1281.8" rx="55.4" ry="26.1"/>
</g>
<g>
	<g>
		<path d="M640.5,763.8c-170.9,0-310-116.7-310-260.2c0-68.4,31.4-133,88.3-181.9c56.6-48.6,132.3-76.4,213.2-78.3l0.5,0
			c5.4-0.1,10.7-0.1,16.1,0l0.5,0c80.9,1.8,156.6,29.6,213.2,78.3c56.9,48.9,88.3,113.5,88.3,181.9
			C950.5,647.1,811.4,763.8,640.5,763.8z M640.5,251.6c-2.7,0-5.3,0-7.9,0.1l-0.5,0c-78.9,1.8-152.8,28.9-207.9,76.3
			c-55.1,47.3-85.4,109.7-85.4,175.6c0,138.9,135.3,251.9,301.7,251.9c166.4,0,301.7-113,301.7-251.9c0-65.9-30.3-128.3-85.4-175.6
			c-55.2-47.4-129-74.5-208-76.3l-0.5,0C645.7,251.7,643.1,251.6,640.5,251.6z"/>
	</g>
</g>
<g>
	<path d="M640.5,608c-69.1,0-125.2-56.2-125.2-125.2c0-69.1,56.2-125.2,125.2-125.2c69.1,0,125.2,56.2,125.2,125.2
		C765.7,551.9,709.5,608,640.5,608z M640.5,370.1c-62.2,0-112.7,50.6-112.7,112.7c0,62.2,50.6,112.8,112.7,112.8
		c62.2,0,112.8-50.6,112.8-112.8C753.2,420.6,702.6,370.1,640.5,370.1z"/>
</g>
<g>
	<g>
		<path d="M753.8,1240.5H527.2c-162.3,0-294.3-144.7-294.3-322.5c0-0.9-3.9-108.7,21.5-235.9c6.2-30.9,13.1-60.3,20.4-87.3
			c2.1-7.9,8.8-13.2,17-13.5c8.1-0.4,15.3,4.4,18.1,12C355,714.9,487.8,796.7,640.5,796.7S925.9,714.9,971,593.2
			c2.8-7.7,10-12.4,18.1-12c8.2,0.4,14.8,5.7,17,13.5c7.4,27,14.2,56.4,20.4,87.3l0,0c25.4,127.2,21.5,234.9,21.5,236
			C1048,1095.8,916,1240.5,753.8,1240.5z M292.6,589.5c-0.2,0-0.3,0-0.5,0c-3.6,0.2-7.9,2.2-9.3,7.4c-7.3,26.8-14.1,56-20.3,86.8
			c-25.2,126.2-21.4,233-21.3,234.1c0,173.4,128.3,314.4,286,314.4h226.6c157.7,0,286-141,286-314.2c0-1.2,3.9-108.1-21.3-234.2
			c-6.2-30.7-13-59.9-20.3-86.8c-1.4-5.2-5.7-7.3-9.3-7.4c-3.7-0.1-8.1,1.5-10,6.6C932.5,721.1,796.6,805,640.5,805
			c-156.1,0-292.1-84-338.3-208.9C300.3,591.2,296.1,589.5,292.6,589.5z"/>
	</g>
</g>
<g>
	<path d="M640.5,1208.2c-78.7,0-174.6-10.8-184.4-62.3c-0.9-4.6-1.3-9.7-1.3-15.2c0-43.9,30.8-108.8,77.4-207
		c5-10.6,10.2-21.5,15.6-33c8.8-18.5,27.6-28.2,41.7-28.2h102.1c14.1,0,32.9,9.7,41.7,28.2l0,0c5.4,11.4,10.6,22.4,15.6,32.9
		c46.6,98.3,77.4,163.2,77.4,207.1c0,5.4-0.5,10.6-1.3,15.2C815.1,1197.4,719.2,1208.2,640.5,1208.2z M589.4,875
		c-9.9,0-24,7.4-30.4,21.1c-5.4,11.4-10.6,22.4-15.6,33c-45.9,96.7-76.2,160.6-76.2,201.7c0,4.7,0.4,9,1.1,12.8
		c6.3,33.1,69.1,52.1,172.2,52.1s165.9-19,172.2-52.1c0.7-3.9,1.1-8.2,1.1-12.8c0-41.1-30.3-105-76.2-201.7
		c-5-10.6-10.2-21.5-15.6-32.9c-6.5-13.7-20.5-21-30.4-21H589.4z"/>
</g>
<g>
	<path d="M372,1087.8c-2,0-4-0.2-6-0.5c-38.4-5.8-63.5-41.2-74.9-105.2c-8.9-50-6.5-103.4-5.1-124.1c2.8-41.1,75.4-40.7,106.5-38.6
		l0,0c50.5,3.4,89.2,19,103.6,41.9c6.5,10.4,7.7,21.6,3.4,32.4c-2.7,6.7-5.5,14.1-8.6,21.9C464.2,984.8,424.3,1087.8,372,1087.8z
		 M370.8,831.2c-37,0-70.9,7.2-72.3,27.7c-1.4,20.2-3.7,72.3,5,121c10.3,58.2,32,90.1,64.4,95c45.3,6.9,86.7-100,111.4-163.8
		c3.1-7.9,5.9-15.3,8.6-22.1c2.8-7.1,2-14.2-2.4-21.1c-9.5-15.1-39.1-32.4-93.9-36.1C384.7,831.5,377.7,831.2,370.8,831.2z"/>
</g>
<g>
	<path d="M908.9,1087.8c-52.3,0-92.2-103-118.9-172.1c-3-7.9-5.9-15.2-8.6-21.9c-4.3-10.8-3.1-22,3.4-32.4
		c14.4-22.9,53.2-38.5,103.6-41.9l0,0c31.1-2.1,103.7-2.5,106.5,38.6c1.4,20.6,3.7,74-5.1,124.1c-11.3,64-36.5,99.4-74.9,105.2
		C912.9,1087.6,910.9,1087.8,908.9,1087.8z M889.3,831.9c-54.8,3.7-84.4,21-93.9,36.1c-4.4,7-5.2,14.1-2.4,21.1
		c2.7,6.7,5.6,14.1,8.6,22C826.3,975,867.8,1082,913.1,1075c32.5-4.9,54.2-36.9,64.4-95c8.6-48.7,6.3-100.9,5-121
		C980.8,834.5,933.2,829,889.3,831.9L889.3,831.9z"/>
</g>
</svg>
