<?xml version="1.0" encoding="utf-8"?>
<!-- Generator: Adobe Illustrator 21.0.0, SVG Export Plug-In . SVG Version: 6.00 Build 0)  -->
<svg version="1.1" id="Layer_1" xmlns="http://www.w3.org/2000/svg" xmlns:xlink="http://www.w3.org/1999/xlink" x="0px" y="0px"
	 viewBox="0 0 1417.3 1119.1" style="enable-background:new 0 0 1417.3 1119.1;" xml:space="preserve">
<g>
	<path d="M581.6,100.4c-253.2,0-459.2,206-459.2,459.2s206,459.2,459.2,459.2s459.2-206,459.2-459.2S834.8,100.4,581.6,100.4z
		 M581.6,1008.6c-247.6,0-449-201.4-449-449c0-247.6,201.4-449,449-449c247.6,0,449,201.4,449,449
		C1030.7,807.2,829.2,1008.6,581.6,1008.6z"/>
	<path d="M581.6,348c-116.6,0-211.6,94.9-211.6,211.6c0,116.7,94.9,211.6,211.6,211.6s211.6-94.9,211.6-211.6
		C793.2,442.9,698.3,348,581.6,348z M581.6,766c-113.8,0-206.5-92.6-206.5-206.5c0-113.8,92.6-206.5,206.5-206.5
		s206.5,92.6,206.5,206.5C788.1,673.4,695.5,766,581.6,766z"/>
	<circle cx="581.6" cy="893.3" r="11.1"/>
	<path d="M581.6,870.5c-12.6,0-22.8,10.2-22.8,22.8c0,12.6,10.2,22.8,22.8,22.8c12.6,0,22.8-10.2,22.8-22.8
		C604.4,880.7,594.2,870.5,581.6,870.5z M581.6,911c-9.8,0-17.7-7.9-17.7-17.7c0-9.8,7.9-17.7,17.7-17.7c9.8,0,17.7,7.9,17.7,17.7
		C599.3,903,591.4,911,581.6,911z"/>
	<path d="M1414.6,970c-5.4-20-18.2-36.8-36.2-47.1c-31.4-18.1-70.4-11.7-94.5,13.2c-0.9-1-2-1.8-3.3-2.4l-27.4-13.4
		c-5.6-2.7-12.2-0.8-15.2,4.3l-2.5,4.3c-54.3,3.9-71.4-56.4-86.5-109.7c-10.2-36.1-19.3-68.1-38.6-76.2
		c20.1-58.2,30.6-120,30.6-183.4c0-149.5-58.2-290-163.9-395.7c-9.3-9.3-18.9-18.2-28.7-26.8c2.6-29-52.5-72.5-109.9-101.3
		c-59.7-30-130.3-48.1-149-25.4C654.5,3.5,618.3,0,581.6,0C432.2,0,291.7,58.2,186,163.9C105.4,244.5,52.4,345.3,31.8,455
		C6.7,469.4-2.9,537.2,0.8,599.8c3.8,65.8,23,135.1,51.4,141.5C79.4,821,124.7,894,186,955.2c105.7,105.7,246.2,163.9,395.7,163.9
		c63.7,0,125.7-10.6,184.2-30.9c5.1,3.5,12,5,20.2,5c30.7,0,80.1-22,122.2-49.7c56.4-37.1,108-90,96.1-117.3
		c45.6-52.4,80.5-111.9,103.6-175.9c15.8,7.3,24.3,37.2,33.8,71c14.6,51.7,32.7,115.5,88.7,115.5c0.3,0,0.5,0,0.8,0
		c-2.1,5-0.3,11,4.6,14.1l25.5,16.7c1.1,0.7,2.3,1.2,3.6,1.6c-3.8,13.3-3.9,27.4-0.2,41.1c5.4,20,18.2,36.8,36.2,47.1
		c12,6.9,25.2,10.4,38.7,10.4c6.7,0,13.5-0.9,20.2-2.7c20-5.4,36.8-18.2,47.1-36.2C1417.3,1010.9,1420,990,1414.6,970z M834.2,44.9
		c56.5,28.4,92.8,60.6,102,81C868.4,70.5,788.2,31.7,703.1,13C721.9,5,773.7,14.5,834.2,44.9z M10.9,599.2
		c-3.6-61.3,5.5-107.8,18-127.1c-4.5,28.7-6.8,57.9-6.8,87.5c0,57.9,8.8,114.5,25.6,168.2C31.7,714,14.8,665.2,10.9,599.2z
		 M45,559.6C45,263.6,285.7,22.9,581.6,22.9c295.9,0,536.7,240.7,536.7,536.7s-240.7,536.7-536.7,536.7
		C285.7,1096.2,45,855.5,45,559.6z M902.6,1035c-52.8,34.8-98.9,50-121.1,47.9c81.8-31.1,155.5-81.1,214.3-145.5
		C993.3,957.7,959.2,997.8,902.6,1035z M1265.5,961.1l-25.5-16.7c-1.9-1.2-2.6-3.5-1.6-5.2l6.3-10.9c0.6-1.1,1.9-1.7,3.2-1.7
		c0.7,0,1.4,0.2,2,0.5l27.4,13.4c0.6,0.3,1.2,0.8,1.6,1.3c-1.1,1.4-2.2,2.8-3.2,4.3c-0.2,0.2-0.3,0.5-0.5,0.7
		c-1,1.4-1.9,2.9-2.8,4.4c0,0,0,0.1-0.1,0.1c0,0,0,0.1,0,0.1c-0.9,1.5-1.7,3.1-2.5,4.7c-0.1,0.2-0.2,0.5-0.3,0.7
		c-0.8,1.7-1.6,3.4-2.2,5.1C1266.7,961.7,1266.1,961.5,1265.5,961.1z M1400.3,1025.1c-19.3,33.4-62.2,44.9-95.6,25.6
		c-16.2-9.4-27.8-24.4-32.6-42.5c-3.6-13.4-3.1-27.2,1.1-40l0.5-1.5c1.4-4.1,3.2-8,5.3-11.6c2.1-3.6,4.5-7,7.3-10.3l1.1-1.3
		c9-10.1,20.8-17.5,34.2-21c6-1.6,12.2-2.4,18.2-2.4c12.1,0,24.1,3.2,34.9,9.4c16.2,9.4,27.8,24.4,32.6,42.5
		C1412.1,990,1409.6,1008.9,1400.3,1025.1z"/>
	<path d="M558.3,544.8c-7.5,0-14.8,0-22.1,0c-8.7,18.7-28.2,25.8-44.6,21.5c-16.1-4.2-27.9-18.7-28.6-35.1
		c-0.7-17,9.7-32.4,25.4-37.9c8-2.8,16.1-3,24.2-0.4c10.7,3.4,18.3,10.4,23.2,20.3c7.7,0,15.2,0,22.8,0c-0.1-0.6-0.1-1.1-0.3-1.5
		c-6.7-20.2-20.1-33.6-40.4-40c-1.7-0.5-8.1-1.8-14.8-2c-6.2-0.2-12.6,0.6-13.4,0.7c-25.3,5.2-43.7,24.8-47.6,50.6
		c0,0.2-0.6,3.9-0.5,8c0.1,4.6,0.8,9.5,0.9,10c7.2,44.1,59.9,64.7,95,37c0.9-0.7,1.9-1.4,3.1-2.4c0,5.4,0,10.3,0,15.1
		c60.4,0,120.6,0,180.8,0c0-5.2,0-10.3,0-15.6c-54.4,0-108.6,0-163.2,0C558.3,563.5,558.3,554.1,558.3,544.8z"/>
	<path d="M711.4,515.2c-7-3.2-13.8-2-20.3,1.7c-2.1,1.2-3.8,2.7-5.7,4.2c-10.1-9.9-20.5-9.7-31.3-0.5c0-2.7,0-4.7,0-6.8
		c-5.3,0-10.5,0-15.9,0c0,19.2,0,38.1,0,57c5.7,0,11.3,0,17,0c0-1,0-1.9,0-2.7c0-8.8,0-17.5,0-26.3c0-3.4,0.5-6.7,1.8-9.9
		c1.4-3.6,5.3-5.7,9.2-5c3.1,0.6,4.9,3.2,5.1,7.3c0,0.9,0,1.8,0,2.8c0,10.5,0,20.9,0,31.4c0,0.8-0.2,1.7,0.3,2.5
		c5.7,0,11.3,0,17.1,0c0-9.9,0.1-19.5,0-29.2c-0.1-4.5,0.6-8.8,3.7-12.2c1.9-2.1,4.3-3.4,7.2-2.7c2.9,0.7,4,3.1,4.7,5.8
		c0.2,1,0.3,2,0.3,3c0,11,0,22,0,33c0,0.8-0.3,1.7,0.3,2.4c5.5,0,11.1,0,16.6,0c0.1-0.3,0.2-0.5,0.2-0.8c0-12.9,0.2-25.9-0.1-38.8
		C721.3,524.3,718.3,518.3,711.4,515.2z"/>
	<path d="M597.1,536.2c-3.7,0.6-7.4,1.2-11.1,1.9c-4.8,0.9-9.7,1.5-14,4.4c-7.1,4.8-8.6,13.5-3.4,20.3c2.9,3.8,6.8,6,11.3,7.1
		c8.5,2.2,16.6,0.4,24.6-2.5c2.3-0.8,4.5-1.9,6.8-2.8c0.7,2.2,1.2,4.3,1.8,6.3c6.9,0,13.7,0,20.8,0c-3.8-5.1-4.7-10.7-5-16.5
		c-0.3-7.2,0.4-14.3,0.4-21.5c-0.1-9.9-4.6-15.7-14.2-17.9c-9.5-2.1-19.1-1.8-28.7-0.7c-10,1.2-16.5,7.2-20,16.8
		c6.5,0.8,13,1.6,19.4,2.4c1.1-4.1,3.9-6.4,7.7-7c2.9-0.4,5.9-0.4,8.7,0c4,0.6,7,2.5,5.9,7.8C604.5,535,600.8,535.6,597.1,536.2z
		 M608.4,553.5c-4.6,4.4-9.7,7.4-16.5,5.9c-1.8-0.4-3.5-1.3-4.7-2.7c-2-2.2-1.7-4.3,0.7-6c2.2-1.5,4.6-2.6,7.1-3.2
		c4.3-1,8.8-1.5,13.4-2C608.4,548.3,608.4,550.8,608.4,553.5z"/>
	<path d="M479.7,529c0,11.8,9.6,21.5,21.4,21.6c11.8,0.1,21.6-9.6,21.7-21.4c0.1-11.8-9.6-21.6-21.5-21.7
		C489.5,507.4,479.7,517.2,479.7,529z M512.4,529.2c-0.1,6.1-5.1,10.9-11.2,10.8c-6,0-11-5-10.9-11.1c0-6,5.1-11,11.1-11
		C507.4,517.9,512.4,523,512.4,529.2z"/>
	<path d="M546,516c-7.3,0.1-13.3,6.2-13.2,13.5c0.1,7.3,6.1,13.3,13.5,13.3c7.5,0,13.4-6,13.4-13.5C559.6,521.8,553.5,515.9,546,516
		z M546.2,536.4c-3.9,0-7-3.2-7-7c0-3.8,3.2-7,7.1-6.9c3.8,0,7,3.2,7,7C553.2,533.3,550.1,536.4,546.2,536.4z"/>
	<polygon points="463.4,620.1 451.4,599 444.8,599 444.8,629.2 450.7,629.2 450.7,607.8 463,629.2 469.3,629.2 469.3,599 463.4,599 
			"/>
	<polygon points="481.5,616 496.2,616 496.2,610.8 481.5,610.8 481.5,604.4 497.5,604.4 497.5,599 475.4,599 475.4,629.2 
		498.3,629.2 498.3,623.8 481.5,623.8 	"/>
	<path d="M516.6,598.1c-4.3,0-7.6,1.2-9.9,3.5c-3.1,2.8-4.6,6.9-4.6,12.5c0,5.4,1.5,9.6,4.6,12.5c2.3,2.3,5.6,3.5,9.9,3.5
		s7.6-1.2,9.9-3.5c3-2.9,4.6-7,4.6-12.5c0-5.5-1.5-9.7-4.6-12.5C524.2,599.3,520.9,598.1,516.6,598.1z M522.5,622
		c-1.5,1.8-3.5,2.8-6,2.8c-2.5,0-4.5-0.9-6-2.8c-1.5-1.8-2.2-4.5-2.2-7.9c0-3.4,0.7-6,2.2-7.9c1.5-1.8,3.5-2.8,6-2.8
		c2.5,0,4.5,0.9,6,2.8c1.5,1.9,2.2,4.5,2.2,7.9C524.7,617.5,524,620.1,522.5,622z"/>
	<path d="M559.9,603.8c2.2,0,3.9,0.7,5,2c0.6,0.7,1.1,1.8,1.5,3.3h6.3c-0.1-1.9-0.8-3.8-2.1-5.6c-2.3-3.3-6-5-11-5
		c-3.8,0-6.9,1.2-9.3,3.7c-2.8,2.9-4.2,6.9-4.2,12.2c0,4.9,1.2,8.7,3.7,11.5c2.5,2.8,5.8,4.2,10.1,4.2c3.5,0,6.3-1,8.5-3.1
		c2.2-2.1,3.6-4.7,4.1-8h-6.3c-0.4,1.6-0.9,2.7-1.6,3.5c-1.1,1.5-2.8,2.2-5,2.2c-2.1,0-3.9-0.8-5.2-2.5c-1.4-1.7-2.1-4.2-2.1-7.6
		c0-3.4,0.6-6,1.9-7.9C555.9,604.8,557.7,603.8,559.9,603.8z"/>
	<path d="M587.4,606.2c-3.8,0-6.7,1.2-8.6,3.5c-1.9,2.4-2.8,5.2-2.8,8.4c0,3.3,0.9,6.1,2.8,8.4c1.9,2.3,4.7,3.5,8.6,3.5
		c3.8,0,6.7-1.2,8.6-3.5c1.9-2.3,2.8-5.1,2.8-8.4c0-3.2-0.9-6-2.8-8.4C594.1,607.4,591.2,606.2,587.4,606.2z M591.3,623.3
		c-0.9,1.2-2.2,1.8-3.9,1.8c-1.7,0-3-0.6-3.9-1.8c-0.9-1.2-1.4-2.9-1.4-5.2s0.5-4,1.4-5.2c0.9-1.2,2.2-1.8,3.9-1.8
		c1.7,0,3,0.6,3.9,1.8c0.9,1.2,1.4,2.9,1.4,5.2S592.2,622.1,591.3,623.3z"/>
	<path d="M613,606.2c-3.8,0-6.7,1.2-8.6,3.5c-1.9,2.4-2.8,5.2-2.8,8.4c0,3.3,0.9,6.1,2.8,8.4c1.9,2.3,4.7,3.5,8.6,3.5
		s6.7-1.2,8.6-3.5c1.9-2.3,2.8-5.1,2.8-8.4c0-3.2-0.9-6-2.8-8.4C619.7,607.4,616.9,606.2,613,606.2z M617,623.3
		c-0.9,1.2-2.2,1.8-3.9,1.8c-1.7,0-3-0.6-3.9-1.8c-0.9-1.2-1.4-2.9-1.4-5.2s0.5-4,1.4-5.2c0.9-1.2,2.2-1.8,3.9-1.8
		c1.7,0,3,0.6,3.9,1.8c0.9,1.2,1.4,2.9,1.4,5.2S617.9,622.1,617,623.3z"/>
	<rect x="628.8" y="599" width="5.8" height="30.2"/>
	<path d="M649.8,611.3c1.4,0,2.4,0.5,3.1,1.4c0.5,0.7,0.7,1.4,0.8,2.3h6c-0.3-3.2-1.4-5.4-3.2-6.7c-1.8-1.3-4.1-1.9-6.9-1.9
		c-3.3,0-5.9,1.1-7.8,3.2c-1.9,2.1-2.8,5.1-2.8,8.9c0,3.4,0.8,6.2,2.5,8.3c1.7,2.1,4.3,3.2,7.9,3.2c3.6,0,6.3-1.3,8.1-3.8
		c1.1-1.6,1.8-3.3,1.9-5h-6c-0.1,1.2-0.5,2.1-1,2.9c-0.6,0.7-1.5,1.1-2.9,1.1c-1.9,0-3.2-0.9-3.9-2.8c-0.4-1-0.6-2.3-0.6-3.9
		c0-1.7,0.2-3.1,0.6-4.1C646.4,612.3,647.8,611.3,649.8,611.3z"/>
	<path d="M681.9,626.2c0-1,0-1.9,0-2.6v-10.2c0-2.7-1-4.5-2.9-5.5c-1.9-1-4.1-1.5-6.5-1.5c-3.8,0-6.4,1-8,3c-1,1.3-1.5,2.9-1.6,4.8
		h5.6c0.1-0.9,0.4-1.5,0.8-2c0.6-0.7,1.6-1,3-1c1.2,0,2.2,0.2,2.8,0.5c0.6,0.3,1,1,1,1.9c0,0.8-0.4,1.3-1.3,1.7
		c-0.5,0.2-1.2,0.4-2.3,0.5l-2,0.2c-2.3,0.3-4,0.8-5.2,1.4c-2.1,1.2-3.2,3.2-3.2,6c0,2.1,0.7,3.8,2,4.9s3,1.7,5,1.7
		c1.6,0,3-0.4,4.3-1.1c1.1-0.6,2-1.4,2.8-2.2c0,0.5,0.1,1,0.2,1.4c0.1,0.4,0.2,0.8,0.4,1.3h6.4v-0.9c-0.4-0.2-0.7-0.4-0.9-0.7
		C682.1,627.4,682,626.9,681.9,626.2z M676.1,620.6c0,2-0.6,3.3-1.7,4s-2.3,1.1-3.5,1.1c-0.8,0-1.5-0.2-2.1-0.7
		c-0.6-0.4-0.8-1.2-0.8-2.2c0-1.1,0.5-1.9,1.4-2.5c0.5-0.3,1.4-0.6,2.7-0.8l1.3-0.2c0.7-0.1,1.2-0.3,1.6-0.4
		c0.4-0.1,0.8-0.3,1.1-0.6V620.6z"/>
	<path d="M717.5,609c-0.8-1-1.6-1.6-2.6-2c-1-0.4-1.9-0.6-2.9-0.6c-1.5,0-2.8,0.3-4,0.9c-1.1,0.6-2.1,1.6-2.8,2.9
		c-0.4-1.1-1.1-2-1.9-2.7c-1.1-0.8-2.4-1.1-4.1-1.1c-1.8,0-3.3,0.4-4.4,1.3c-0.6,0.5-1.3,1.3-2.1,2.5v-3.3h-5.7v22.3h5.9v-13.4
		c0-1.2,0.2-2.1,0.5-2.7c0.6-1.1,1.7-1.6,3.4-1.6c1.4,0,2.4,0.5,2.9,1.6c0.3,0.6,0.4,1.6,0.4,2.9v13.3h5.9v-13.3
		c0-1,0.2-1.9,0.5-2.6c0.6-1.3,1.7-2,3.3-2c1.4,0,2.3,0.5,2.9,1.6c0.3,0.5,0.4,1.2,0.4,2.1v14.2h6l0-14.1c0-1.4-0.1-2.5-0.2-3.3
		C718.5,610.7,718.1,609.8,717.5,609z"/>
	<ellipse transform="matrix(0.5 -0.866 0.866 0.5 -187.6034 1717.1562)" cx="1393.3" cy="1021" rx="6.9" ry="6.9"/>
	<path d="M1378.8,1000.3c-5.1-3-11.7-1.2-14.7,3.9c-1.4,2.5-1.8,5.4-1.1,8.1c0.7,2.8,2.5,5.1,5,6.5c1.7,1,3.5,1.4,5.4,1.4
		c0.9,0,1.9-0.1,2.8-0.4c2.8-0.7,5.1-2.5,6.5-5c1.4-2.5,1.8-5.4,1.1-8.1C1383.1,1004.1,1381.3,1001.7,1378.8,1000.3z"/>
	<path d="M1339.7,940.3c-5.9,0-10.7,4.8-10.7,10.7s4.8,10.7,10.7,10.7s10.7-4.8,10.7-10.7S1345.6,940.3,1339.7,940.3z"/>
	<path d="M1300.5,1000.3c-2.5,1.4-4.3,3.7-5,6.5c-0.7,2.8-0.4,5.7,1.1,8.1c1.4,2.5,3.7,4.3,6.5,5c0.9,0.2,1.9,0.4,2.8,0.4
		c1.9,0,3.7-0.5,5.4-1.4c2.5-1.4,4.3-3.7,5-6.5c0.7-2.8,0.4-5.7-1.1-8.1C1312.2,999.1,1305.6,997.4,1300.5,1000.3z"/>
	<ellipse transform="matrix(0.5 -0.866 0.866 0.5 -221.438 1658.5493)" cx="1325.6" cy="1021" rx="6.9" ry="6.9"/>
	<ellipse transform="matrix(0.5 -0.866 0.866 0.5 -153.7766 1658.5493)" cx="1359.5" cy="962.4" rx="6.9" ry="6.9"/>
</g>
</svg>
