<?xml version="1.0" encoding="utf-8"?>
<!-- Generator: Adobe Illustrator 21.0.0, SVG Export Plug-In . SVG Version: 6.00 Build 0)  -->
<svg version="1.1" id="Layer_1" xmlns="http://www.w3.org/2000/svg" xmlns:xlink="http://www.w3.org/1999/xlink" x="0px" y="0px"
	 viewBox="0 0 979.9 1417.3" style="enable-background:new 0 0 979.9 1417.3;" xml:space="preserve">
<g>
	<path d="M664.9,60.4C617.6-1.2,540-0.1,534.6,0c-0.6,0-1.3,0-1.9,0c-67.1,0-128,15.7-181,46.5c-42.8,24.9-80.4,59.8-111.9,103.6
		c-52.7,73.3-69.8,145.8-70.9,150.5l-154.3,599c-8.9,34.5-13.8,70.1-14.5,105.7c-1.3,65.6,3.9,161.3,36,244.4
		c39.8,103.1,109.8,159.3,208,167c4.6,0.4,9.2,0.5,13.6,0.5c55.9,0,101.4-28.1,138.9-85.6c33.2-51,60.7-126,86.4-235.9l193.5-781.5
		C711,200.6,707.1,115.1,664.9,60.4z M659.8,309.8l-193.7,782c-25.3,108-52,181.2-84.1,230.4c-36.7,56.3-81.3,81.5-136.5,77.2
		c-90.9-7.1-155.9-59.5-193.1-155.9c-31.1-80.5-36.1-173.7-34.8-237.8c0.7-34.3,5.4-68.5,13.9-101.7l154.4-599.1l0.1-0.3
		c0.2-0.7,16.8-72.9,68.1-144.3c30-41.8,65.9-75,106.5-98.7c50.2-29.3,108.2-44.2,172.2-44.2c0.7,0,1.3,0,2,0l0.3,0
		c0.7,0,73.7-1.7,116.2,53.7c38.4,50.1,41.3,130.3,8.6,238.4L659.8,309.8z"/>
	<path d="M960.8,378.7c-25.8-33.6-67.9-33.3-71.6-33.2c-82.1-0.3-129.6,38.1-155,70.3c-26.7,34-34.9,67.9-35.5,70.9l-90.5,351.4
		c-2.3,9-3.9,18.3-4.8,27.6c-3.1,34.6-5.5,120.7,38.7,172.9c21.3,25.1,50.4,39.3,86.7,42.1c3.1,0.2,6.1,0.4,9.1,0.4
		c61.7,0,103.8-51.3,128.4-156.4l101.4-409.3C986,454.5,983.7,408.5,960.8,378.7z M950.9,510.6l-0.1,0.2L849.3,920.6
		c-23.8,101.9-61.7,147.2-119.2,142.7c-31.5-2.5-56.6-14.6-74.7-36c-39.9-47.2-37.5-127.7-34.6-160.1c0.7-8.4,2.2-16.7,4.3-24.8
		L715.6,491l0.1-0.3c0.1-0.3,7.5-32.8,32.7-64.6c33.2-41.9,80.2-63.1,139.7-63.1c0.4,0,0.8,0,1.2,0l0.2,0l0.2,0
		c0.4,0,36.3-0.9,57.4,26.4C966.3,414.5,967.6,455.3,950.9,510.6z"/>
	<path d="M545.7,301.1c-27.8,65.2-55.4,157.7-89.3,299.9c-5.7,23.9-11.4,47.2-16.9,70.1c-54,223-96.7,399.1-50.9,532.4l7.3-2.5
		c-45-131.1-2.6-306.2,51.1-528c5.5-22.9,11.2-46.3,16.9-70.1C521.6,361.2,573.4,206,653.5,178.6l-2.5-7.3
		C611.1,184.9,577.7,226.2,545.7,301.1z"/>
	<path d="M400,614.2c0.7-1.1,2.5-5.3,3.8-9.9c1.1-4.2,1.7-8.9,1.7-9.4c0.5-18.4-10-34.4-27.3-41.3c-0.1-0.1-2.6-1.1-5.4-1.7
		c-3.2-0.7-6.7-1-7.1-1c-31.8-2.2-54.7,31-41.3,59.9c0.4,0.8,0.7,1.5,1.1,2.6c-3.7-0.9-7.1-1.7-10.5-2.5
		c-9.9,41.9-19.7,83.7-29.6,125.5c3.6,0.9,7.1,1.7,10.9,2.6c8.9-37.7,17.8-75.4,26.7-113.3c6.7,1.6,13.2,3.1,19.7,4.6
		c1.2-5.2,2.4-10.3,3.6-15.4c-11.5-9.1-13.3-23.8-7.7-34.5c5.5-10.5,17.5-16.3,29-14.1c11.9,2.3,20.9,12,22.1,23.9
		c0.6,6-0.6,11.7-3.7,16.9c-4.1,6.8-10.2,11-17.9,12.8c-1.3,5.4-2.5,10.6-3.7,15.8c0.4,0,0.8,0.1,1.1,0.1
		C380.8,634.4,392.2,627.3,400,614.2z"/>
	<path d="M308.7,693.3c0.7,0.2,1.3,0.3,1.9,0.4c6.1,1.4,12.2,2.9,18.3,4.3c2.4,0.6,4.6,1.5,6.6,2.9c2.2,1.6,3.1,4.6,1.9,7.2
		c-0.9,2.1-3,2.9-5.9,2.3c-0.6-0.1-1.3-0.3-1.9-0.4c-7.3-1.7-14.5-3.4-21.8-5.1c-0.6-0.1-1.1-0.4-1.8-0.2c-0.9,3.9-1.9,7.9-2.8,11.8
		c6.8,1.6,13.6,3.3,20.3,4.8c3.2,0.7,6,1.8,7.9,4.6c1.1,1.7,1.7,3.5,0.7,5.4c-1,1.9-2.8,2.3-4.8,2.3c-0.7,0-1.4-0.1-2.1-0.3
		c-7.6-1.8-15.3-3.6-22.9-5.4c-0.6-0.1-1.1-0.5-1.7-0.2c-0.9,3.8-1.8,7.7-2.7,11.5c0.2,0.1,0.3,0.2,0.5,0.3c9,2.1,17.9,4.4,26.9,6.3
		c5,1.1,9.6-0.1,12.9-4.3c3.3-4.3,3.6-9.3,2.2-14.4c-0.5-1.6-1.3-3.1-2-4.6c8.6-5.4,10.1-12.6,5.5-21.7c1.9,0.4,3.2,0.8,4.7,1.1
		c0.9-3.7,1.7-7.3,2.6-11c-13.3-3.1-26.4-6.2-39.6-9.3C310.5,685.5,309.6,689.3,308.7,693.3z"/>
	<path d="M350.8,638.2c-1.6,4.4-3.2,8.7-4.9,13.1c2.7,1.5,3.8,3.7,3.6,6.5c-0.2,2.1-0.7,4.1-1.4,6.1c-1.1,2.7-2.9,4.5-6.4,2.9
		c0.2-2.7,0.4-5.4,0.5-8c0.2-2.7,0.4-5.4,0.5-8c0.1-3.5,0.5-7-0.8-10.4c-2.2-5.7-7.9-8.2-13.5-5.7c-3.1,1.4-5.2,3.7-6.8,6.7
		c-2.9,5.5-3,11.5-2.3,17.5c0.2,1.7,0.5,3.4,0.8,5.2c-1.7,0.1-3.2,0.2-4.6,0.2c-1.1,4.8-2.2,9.5-3.4,14.4c4.1-1.8,8.2-1.5,12.3-0.8
		c5,1,9.9,2.6,14.8,3.8c6.9,1.6,11.7-0.6,14.8-6.9c3-6.2,4.4-13,5.2-19.8C359.9,647.7,356.9,642.2,350.8,638.2z M334,665
		c-2-0.5-3.7-0.9-5.6-1.3c-2.3-3.9-3.6-7.9-1.4-12.4c0.6-1.2,1.5-2.2,2.7-2.8c1.9-1,3.3-0.5,4.1,1.5c0.7,1.8,1,3.6,1,5.5
		C334.8,658.5,334.4,661.7,334,665z"/>
	<path d="M359.3,608.3c8.2,2,16.6-3.1,18.6-11.4c2-8.2-3.2-16.6-11.4-18.5c-8.2-1.9-16.5,3.2-18.5,11.3
		C346,597.8,351.1,606.2,359.3,608.3z M355.3,591.4c1-4.2,5.3-6.8,9.5-5.8c4.2,1,6.8,5.3,5.8,9.5c-1,4.2-5.4,6.9-9.6,5.8
		C356.8,599.9,354.3,595.7,355.3,591.4z"/>
	<path d="M357.5,615.1c-5.1-1.1-10.3,2.1-11.4,7.2c-1.2,5.2,2,10.3,7.2,11.5c5.2,1.2,10.3-2,11.5-7.3
		C365.8,621.4,362.5,616.2,357.5,615.1z M360.2,625.6c-0.6,2.7-3.4,4.4-6,3.7c-2.7-0.7-4.3-3.4-3.7-6.1c0.7-2.7,3.3-4.4,6-3.7
		C359.2,620.2,360.8,622.9,360.2,625.6z"/>
	<polygon points="320.5,555.5 305.9,552.1 322.5,547.2 323.6,542.6 302.6,537.6 301.6,541.7 316.5,545.2 299.6,550.3 298.6,554.7 
		319.6,559.6 	"/>
	<polygon points="300.4,564.1 305.8,565.3 303.3,575.5 307,576.4 309.4,566.2 313.8,567.2 311.2,578.3 314.9,579.2 318.6,563.8 
		297.6,558.9 293.9,574.8 297.6,575.7 	"/>
	<path d="M299,600c3.8,0.9,7,0.5,9.4-1.1c2-1.2,3.4-3.3,4.1-6.3c0.7-3,0.4-5.5-0.8-7.4c-1.4-2.6-4.1-4.3-7.9-5.2
		c-3.8-0.9-6.9-0.5-9.4,1.1c-2,1.2-3.4,3.3-4.1,6.3c-0.7,3-0.4,5.5,0.8,7.4C292.6,597.4,295.2,599.1,299,600z M294,588.2
		c0.4-1.7,1.4-3,2.9-3.7c1.5-0.7,3.5-0.8,5.8-0.3c2.4,0.6,4.1,1.5,5.1,2.8c1,1.3,1.4,2.9,0.9,4.6c-0.4,1.7-1.4,3-2.9,3.7
		c-1.5,0.7-3.5,0.8-5.8,0.2c-2.4-0.6-4.1-1.5-5.1-2.8C293.9,591.5,293.6,590,294,588.2z"/>
	<path d="M288.8,628.2l1-4.4c-1-0.5-1.7-1.1-2.2-1.7c-0.8-1-1.1-2.3-0.7-3.8c0.3-1.5,1.2-2.5,2.6-3.2c1.4-0.7,3.3-0.7,5.6-0.2
		c2.4,0.6,4.1,1.4,5.1,2.6c1.1,1.2,1.4,2.6,1.1,4.1c-0.4,1.5-1.1,2.6-2.2,3.1c-0.6,0.3-1.5,0.5-2.5,0.5l-1,4.4
		c1.3,0.2,2.7,0.1,4.3-0.5c2.7-1.1,4.5-3.3,5.3-6.8c0.6-2.6,0.3-5-1.1-7.1c-1.5-2.4-4.1-4-7.8-4.9c-3.4-0.8-6.3-0.6-8.6,0.7
		c-2.3,1.3-3.9,3.4-4.6,6.4c-0.6,2.4-0.3,4.6,0.7,6.4C285,625.8,286.6,627.2,288.8,628.2z"/>
	<path d="M285.1,646.4c2.2,0.5,4.3,0.3,6.3-0.6c1.9-0.9,3.2-2.7,3.9-5.4c0.6-2.7,0.3-4.8-1.1-6.5s-3.1-2.8-5.4-3.3
		c-2.3-0.5-4.4-0.3-6.3,0.6s-3.2,2.7-3.8,5.4c-0.6,2.7-0.3,4.8,1,6.5C281.1,644.8,282.8,645.9,285.1,646.4z M282.1,637.3
		c0.3-1.2,0.9-2,1.9-2.4c1-0.4,2.3-0.5,3.8-0.1c1.6,0.4,2.7,1,3.4,1.8c0.7,0.8,0.9,1.8,0.6,3c-0.3,1.2-0.9,2-1.9,2.4
		c-1,0.4-2.3,0.5-3.8,0.1c-1.6-0.4-2.7-1-3.4-1.8C282.1,639.5,281.9,638.5,282.1,637.3z"/>
	<path d="M280.9,664.2c2.2,0.5,4.3,0.3,6.3-0.6s3.2-2.7,3.9-5.4c0.6-2.7,0.3-4.8-1.1-6.5s-3.1-2.8-5.4-3.3c-2.3-0.5-4.4-0.3-6.3,0.6
		s-3.2,2.7-3.8,5.4c-0.6,2.7-0.3,4.8,1,6.5S278.6,663.7,280.9,664.2z M277.9,655.1c0.3-1.2,0.9-2,1.9-2.4c1-0.4,2.3-0.5,3.8-0.1
		c1.6,0.4,2.7,1,3.4,1.8c0.7,0.8,0.9,1.8,0.6,3c-0.3,1.2-0.9,2-1.9,2.4c-1,0.4-2.3,0.5-3.8,0.1c-1.6-0.4-2.7-1-3.4-1.8
		C277.9,657.3,277.7,656.3,277.9,655.1z"/>
	<rect x="280.4" y="659.1" transform="matrix(0.2296 -0.9733 0.9733 0.2296 -434.3335 791.0489)" width="4.2" height="21.5"/>
	<path d="M278.3,674.3c-2.4-0.6-4.4-0.4-6.2,0.4c-1.8,0.8-2.9,2.5-3.5,5s-0.1,4.6,1.3,6.3c0.9,1.1,2,1.8,3.2,2.2l1-4.1
		c-0.8-0.3-1.4-0.7-1.8-1.2c-0.4-0.5-0.5-1.3-0.3-2.2c0.3-1.3,1.2-2.1,2.6-2.3c0.8-0.1,1.7,0,2.8,0.2c1.2,0.3,2.1,0.6,2.8,1.1
		c1.2,0.8,1.7,1.9,1.4,3.3c-0.2,1-0.7,1.6-1.4,1.9c-0.5,0.2-1.1,0.3-1.7,0.2l-1,4.2c2.3,0.3,4-0.1,5.1-1.1s2-2.5,2.4-4.5
		c0.5-2.3,0.2-4.3-0.9-5.9C282.8,676,280.9,674.9,278.3,674.3z"/>
	<path d="M277.4,691.5l-0.9,3.9c0.6,0.2,1,0.5,1.3,0.9c0.4,0.5,0.5,1.3,0.2,2.2c-0.2,0.9-0.5,1.5-0.8,1.9c-0.3,0.4-0.8,0.5-1.5,0.4
		c-0.5-0.1-0.8-0.5-0.9-1.1c-0.1-0.4-0.1-0.9,0-1.7l0.2-1.4c0.2-1.6,0.1-2.9-0.2-3.8c-0.5-1.7-1.7-2.7-3.6-3.2
		c-1.5-0.3-2.7-0.2-3.7,0.6c-1,0.7-1.7,1.8-2,3.2c-0.3,1.1-0.2,2.2,0.1,3.2c0.3,0.8,0.6,1.6,1.1,2.3c-0.4-0.1-0.7-0.1-1-0.1
		c-0.3,0-0.6,0-0.9,0l-1,4.4l0.6,0.1c0.2-0.2,0.4-0.4,0.6-0.5c0.2-0.1,0.6-0.1,1.1,0c0.7,0.1,1.3,0.3,1.8,0.4l7.1,1.7
		c1.9,0.4,3.3,0.1,4.3-1.1c1-1.2,1.7-2.6,2.1-4.3c0.6-2.6,0.4-4.6-0.7-6C279.8,692.6,278.7,691.9,277.4,691.5z M270.8,699.6
		c-1.3-0.3-2.2-1-2.5-1.8c-0.3-0.9-0.4-1.7-0.2-2.6c0.1-0.6,0.4-1,0.8-1.3c0.4-0.3,0.9-0.4,1.6-0.2c0.8,0.2,1.3,0.6,1.5,1.4
		c0.1,0.4,0.2,1.1,0.1,2l0,1c0,0.5,0,0.9,0,1.2c0,0.3,0.1,0.6,0.2,0.9L270.8,699.6z"/>
	<path d="M262,709.8l9.3,2.2c0.8,0.2,1.5,0.5,1.8,0.8c0.7,0.6,0.8,1.4,0.6,2.6c-0.2,1-0.8,1.6-1.6,1.7c-0.5,0.1-1.2,0-2.1-0.2
		l-9.2-2.2l-1,4.1l9.2,2.2c0.7,0.2,1.3,0.4,1.7,0.7c0.8,0.6,1.1,1.5,0.8,2.6c-0.2,1-0.7,1.5-1.6,1.7c-0.4,0.1-0.9,0.1-1.5-0.1
		l-9.9-2.3l-1,4.2l9.8,2.3c1,0.2,1.8,0.4,2.3,0.4c0.8,0,1.6-0.1,2.2-0.4c0.8-0.4,1.4-0.9,1.8-1.5c0.4-0.6,0.7-1.2,0.9-1.9
		c0.2-1,0.2-2,0-2.9c-0.2-0.9-0.8-1.7-1.5-2.5c0.8-0.1,1.6-0.4,2.2-0.9c0.7-0.6,1.2-1.5,1.5-2.7c0.3-1.3,0.2-2.3-0.2-3.3
		c-0.2-0.5-0.7-1.1-1.4-1.8l2.3,0.5l0.9-3.9l-15.5-3.7L262,709.8z"/>
	<path d="M834.6,678.4c-3.2,12.8-6.4,25.3-9.6,37.6c-30.7,119.9-54.9,214.6-28.8,286.6l7.3-2.6c-25.3-69.7-1.3-163.4,29-282
		c3.1-12.3,6.3-24.8,9.6-37.6c32.5-128.9,61.6-211.7,106.3-226.2l-2.4-7.4C897.8,462.3,868.6,543.5,834.6,678.4z"/>
</g>
</svg>
