<svg height="960" viewBox="0 0 960 960" width="960" xmlns="http://www.w3.org/2000/svg"><g fill="#000" fill-rule="evenodd"><path d="m557.710021 5.56551474c63.828264 0 127.544324 11.30444356 190.973545 33.81128836 21.149112 7.502341 35.2812 27.5107398 35.280856 49.950334l.001578 414.9203779 1.251956 1.344976c46.273383 50.251529 67.935753 122.528151 56.964625 195.697438l-.377802 2.439277c-7.47766 46.785462-27.575105 89.511702-57.267413 123.397053l-.572366.648256-.000578 16.52667c-.002628 17.592659-9.249233 33.8751-24.322336 42.895435l-.463237.273858c-67.397129 39.358821-124.384301 61.395205-172.290476 65.441228-5.717802.48291-11.714936.694901-18.003022.654589h-.233903c-.625292 0-1.253583 0-1.884518-.024445l-.39893-.017335-.771354-.013493c-4.99591-.107228-10.181511-.372366-15.561513-.792516l-.951133-.076991-2.194997-.115316c-89.560295-4.727457-146.102736-9.448649-172.390704-14.631627l-.795286-.158808c-27.330627-5.528182-72.318437-21.313183-136.977906-47.711903-18.816303-7.672-31.115667-25.968541-31.119929-46.294845l-.001178-95.351501-.307075-.288585c-2.424853-2.295704-4.724013-4.66126-6.895175-7.098962l-.718976-.815242c-.05077-.058141-.101372-.116428-.151804-.174862l-.527318-.610976c-.050717-.058764-.101263-.117675-.151638-.176732-7.687012-9.012098-16.401782-22.254046-26.921121-40.47006-3.511961-6.081554-5.360893-12.980545-5.360893-20.003306v-17.995275l-.070498-.060275c-8.114081-7.181053-13.301084-17.613083-13.499502-29.287537l-.000643-1.557188-13.726659.857611c-.119601.004005-.239232.007009-.35888.009012l-.358982.003004c-11.846772 0-21.450479-9.603707-21.450479-21.45048 0-12.375323 9.799275-22.528508 22.166813-22.967391l16.861616-1.115951c2.31053-5.474596 5.806002-10.333431 10.171895-14.249034l.265319-.234771v-18.230077c0-6.402101 1.536654-12.707364 4.476638-18.387247l.309137-.585322c9.117914-16.923396 16.163003-28.55524 22.228508-36.160199l.091112-.11381.19613-.244079.093771-.116251c4.160415-5.138115 8.611266-9.876211 13.345614-14.196263l.29409-.267752.000179-344.66614c.00327-19.264652 9.906993-37.160343 26.19387-47.3993048l.495492-.3079214c31.553969-19.382277 70.274701-35.589211 116.201526-48.8663404 27.110945-7.8375879 53.876929-14.5912721 80.298237-20.2588015l2.792696-.5954922 2.215859-.5144047c15.323952-3.5192056 30.660856-6.386401 46.008304-8.5999838l2.255837-.3196115 2.348635-.3774848c.924961-.147216 1.849275-.2930201 2.772938-.4374108l2.769041-.42893131c1.834867-.28161323 3.65804-.434004 5.460615-.46420444l.031771.00003139.453556-.05338787c19.801233-2.26534258 39.612904-3.44220473 59.428567-3.53461213zm64.598336 900.17800026.08-.022.050182-.013345.338818-.095655-.34.095-.049.014-.067.018.116-.032.635871-.177206c.280207-.078877.560795-.158332.841762-.238365l.129863-.037015c.535053-.152685 1.071482-.307467 1.609288-.464346l.207852-.060728.640211-.188055c.804605-.237359 1.612274-.479387 2.423007-.726082l.447634-.136588.071896-.022008.926283-.285303.332703-.103238c.350453-.10898.701473-.218823 1.053059-.329528l.87825-.277977.391321-.125561 1.014-.326.445275-.143334-.344555.111684c.459128-.148564.919208-.298579 1.38024-.450044l-.19696.063694.719684-.23589.707974-.234797c1.286584-.428302 2.580528-.867814 3.881832-1.318536l.82649-.287426.070967-.024788c1.221116-.426669 2.448678-.863158 3.682686-1.309467l.470946-.170692c.414893-.150695.830513-.302497 1.24686-.455407l1.476875-.545913c.139056-.05173.278193-.103582.41741-.155557l.790202-.296046.689514-.259854 1.029863-.391011.002697-.001616.29772-.113055.12228-.047945-.122.047.364084-.138464.432916-.167536.324624-.123767.205376-.080233-.297236.115695.475236-.184695.439695-.16922.238305-.09378.59523-.230833.34077-.134167.182919-.070807c.284876-.111756.570079-.224008.855607-.336756l.711375-.281665c.579623-.230115 1.160583-.462267 1.74288-.696456l.380442-.153281.65736-.265749.156417-.064286-.795.322 1.021-.414-.226.092.502075-.203186.511925-.209814 1.109419-.45412-.678419.27812.117857-.047646c.248664-.102007.497569-.20438.746714-.307119l-.159571.064765.789-.326-.403.167.539835-.222586.215165-.090414.169-.07.018-.008.279231-.114796.030769-.013204.055611-.022711.224389-.094289.741-.31.194-.081.776769-.326868.68132-.28829c.380231-.161249.76101-.323333 1.142337-.486251l.572931-.245231c.313887-.1346.628144-.269764.942771-.405491l.658245-.28455c.464118-.201047.929039-.403316 1.394762-.606809l.020959-.009158.624277-.273327.451629-.199025.057-.025.118-.052.403-.178.132-.058-.087.038.235767-.103083.514233-.228917-.177.079.349074-.154152-.150074.065152 1.248398-.554443c.522202-.233338 1.045396-.468185 1.569581-.704543l.196021-.089014.120739-.053847.045261-.021153-.04.018.574305-.259178c.299097-.135554.598515-.271597.898254-.408129l.461005-.210143c.320374-.146306.641114-.29317.96222-.440592l.576963-.265429.489253-.226529.058538-.026138.262462-.121862.149-.069.36-.167-.124.058.790485-.36695.479515-.22405.17659-.081774.09541-.045226.141-.066.463-.217.008-.004.179-.084.139341-.064224.001659-.001776.401-.188-.116.054.514-.242.076-.036-.064.031.092-.044.047991-.02174.153009-.07326.042-.02.085-.04-.007.003.051-.024.11-.052.042-.02.178-.084.169-.08.027-.013.072-.034.032744-.014459.102256-.049541.013-.006.646898-.306634c.254274-.121064.50877-.242467.763489-.364209l.420426-.201151c.291522-.139624.583335-.279691.875438-.420201l.240878-.116091c.266264-.128233.532769-.256834.799515-.385802l.278787-.134722.539909-.261731c3.109256-1.509413 6.251098-3.068387 9.42561-4.677125l1.169417-.594121.548479-.279682.175757-.08955c.250661-.128062.501523-.256431.752587-.385108l.868237-.445807.260229-.133933.074344-.039133-.333731.172415c2.87221-1.477473 5.770765-2.995074 8.695664-4.552802l.066373-.035089c.427964-.227979.856492-.456816 1.285583-.686512l.469267-.251424.425844-.229588-.17.091 1.515995-.814994c.591788-.319449 1.184639-.640516 1.778553-.963203.927711-.503747 1.857269-1.011329 2.789416-1.522855.893627-.490702 1.789534-.984664 2.68782-1.48225l.017216-.010698.092-.051 1.961142-1.089197c4.149108-2.31457 8.348559-4.705821 12.598351-7.173753l1.8784-1.093463c3.069392-1.79244 4.956641-5.079457 4.957172-8.633892l.002117-5.720624c-8.797713 7.142775-18.133159 13.50084-27.914387 18.982928-.238305.134414-.476913.268204-.715774.401469-.041296.020609-.081889.043113-.12249.065602-18.965251 10.565759-39.522001 17.818187-60.939811 21.144914l.365835-.23147c-2.991012 1.882802-6.515706 2.995257-10.295591 3.061971h-64.344321c-2.648585 0-5.176812-.514809-7.490143-1.449777l-.196857-.082223-1.014944-.078028c-3.703538-.304043-7.40413-.721906-11.098541-1.253971l-1.582931-.235021c-106.810517-16.334401-177.372435-123.03978-158.588028-237.554591 15.472768-94.326168 87.624942-167.297182 174.998502-178.784943l.531942-.065446.087559-.020795c1.292184-.286853 2.631381-.448702 4.004234-.472216l.113207-.000989.256153-.027983c12.453432-1.292463 25.01191-1.303074 37.542175-.005706l.258672.028689 1.734331-.004225c15.433632-1.795788 31.268986-1.552667 47.239444.953948 15.772598 2.47556 30.732261 7.010277 44.702213 13.319745 11.528472 5.179201 22.385635 11.565885 32.471312 19.001686l-.003878-405.9408569c.000085-5.5042409-3.466277-10.4119614-8.653795-12.2521583-59.200299-21.0062792-118.400452-31.5096241-177.600606-31.5096241l-2.128021.004-.524771.0030302c-1.353227.0071724-2.706454.0198329-4.059681.0379816l-.148545.0020142c-.176946.0024256-.353893.004945-.530839.0075583l-1.359456.0219238c-.159321.0027857-.318642.0056475-.477963.0085853l-.793937.0152699-1.175451.0246367-.099.003-.06.001h.013l.047-.001.072-.002.027-.001h.01l.314-.007-.192365.0043552-.121635.0026448-.037.001-.119.003h-.048l-.144.004-2.30475.0583911c-.823102.0227627-1.646204.0475559-2.469306.0743796l-.779939.0260246c-.472963.0161502-.945925.0329707-1.418888.0504617l-.801937.0302994c-1.347895.0520071-2.695789.1094591-4.043683.172356l-.94017.0447543-1.27173.0633461-.012597.0009872-2.500522.1336997c-.837471.0469851-1.674942.0960722-2.512413.1472612-.188815.0115387-.378149.0232186-.567483.0350059l-.146461.009142c-.594953.0372142-1.189907.0754892-1.78486.1148251l-.286977.019056c-.720944.0480792-1.441887.0977161-2.162831.1489107l-.156987.0111724c-1.538879.1097593-3.077757.2266158-4.616635.3505696l-.018001.0014503c-1.442887.1162738-2.885774.238787-4.328661.3675396l-.557672.0500671-.241497.0213004-.154256.0146173-.563744.0513827-.64846.0605549c-.350001.0327458-.700002.0658587-1.050003.0993387l-.498076.0479008c-1.562544.1510239-3.125088.3093651-4.687632.4750235l-.930309.0994824-.896548.097532c-.603286.0661614-1.206572.1334135-1.809858.2017565-.793271.0898652-1.586542.1816164-2.379813.2752536l-.433966.0514131c-.514626.0611924-1.029253.1231784-1.543879.1859581l-.136957.0167088c-2.878675.3519575-5.75735.7287498-8.636025 1.130377l-2.431831.3447006-.128565.0190987c-.837124.1210773-1.674249.2442548-2.511374.3695323l-.205985.0308685c-.785821.1179232-1.571642.237697-2.357463.3593213l-.287977.044654c-.661765.1028045-1.32353.2069213-1.985295.3123504-1.048498.1670415-2.096996.3373773-3.145494.5110074l-.130994.0217096c-1.669915.276973-3.33983.5623022-5.009744.8559871l-.291023.0512664c-.595864.1051399-1.191729.2113437-1.787592.3186114l-.673728.1217134-.50314.0915301-.012002.0021889c-.657097.1198514-1.314195.2409965-1.971292.3634353l-.400025.0746977c-.800817.1498584-1.601634.3016382-2.402451.4553395l-.55202.1062539-1.063157.2063535-.116322.0220806 1.17939-.2284175-2.126225.414948-.589165.1164695-1.945.389-.221.045-.779.159-1.355.279-.42.087-.729.152-1.778.375-.423645.0909743-2.350811.5078862-.314982.0689013-.813119.1787833c-.537745.1186725-1.07549.2382113-1.613235.3586163l-.40606.0910842-1.112162.2511581-1.072156.244462-.255997.0587094c-.816811.1875329-1.633622.3770644-2.450433.5685944l2.450926-.5684986c-20.892742 4.7971634-41.785496 10.9024872-62.678268 18.3159532-5.187697 1.8402604-8.653795 6.7482448-8.653795 12.2526756v771.8211176c0 4.311857 2.76284 8.138499 6.856291 9.493408 75.65436 25.074957 134.232329 39.163655 175.733907 42.266095l1.116407.081097c.151039.01065.301848.021152.452428.031507l.184754.012639.648806.043326c.256604.016809.512534.033184.76779.049125l1.452605.086448.221199.012406c.391133.021757.780645.042472 1.168537.062144l.309261.01548c.162634.008033.324983.015883.487045.023548l.677786.031058.187479.008235c.542677.023615 1.082104.04514 1.618281.064573l.11135.004008.812356.027507c.248847.007957.496985.015457.744413.0225l.652586.01756.397641.009694c.53786.012594 1.07231.022993 1.60335.0312.470312.007268.938313.012819 1.403635.016647l1.12301.005905.278033.00042 1.266316-.003437.090377-.000585c.852577-.005738 1.695733-.017537 2.529469-.035396l.361432-.008136 1.012445-.027033c.044593-.00133.089157-.002678.133694-.004044l.009932-.000305.343122-.012011.326802-.009987.256198-.009013.048-.002h-.005l-.043.002-.126.004-.30363.01098-.15337.00402-.342086.011979.799086-.026979.169-.006.021561-.000531-.016561.000531.360508-.013645.176658-.007034c.366428-.014801.73093-.030841 1.093508-.04812l.082199-.00394.954731-.049138c.975085-.053393 1.935959-.115928 2.882624-.187604.379192-.028713.755474-.058839 1.129484-.090426.488362-.041246.978273-.084852 1.469733-.130817.332719-.031119.665895-.063294.99978-.096549l.194499-.019486c.972542-.098006 1.951089-.205159 2.935641-.321459.494984-.05847.991529-.119257 1.489592-.182357l.01595-.002021c.127146-.01612.254391-.03239.381734-.048811l1.214443-.160764.287965-.039333.200951-.028496.176984-.023826c.222223-.030998.444744-.062449.667561-.094351l1.217604-.178388c.424341-.063575.849748-.128775 1.276221-.195597.410214-.064275.82164-.130089 1.234054-.197406l.53209-.087594c.392402-.065146.785695-.131648 1.179878-.199505l.186915-.032267.378236-.065844.123457-.022222-.183.032.432-.076-.196.035.198743-.034819.299257-.054181.369264-.065266c.221925-.040029.444129-.080482.666612-.12136l.377584-.069734c.183739-.034107.367668-.068503.551787-.103188l.401622-.076061.447588-.085705c.216176-.041633.432612-.083662.649308-.126086l.231202-.045396.200222-.039521c1.239712-.245319 2.487894-.50354 3.744548-.774663l1.116396-.243766.018014-.003981.244291-.054131.645548-.144366.184967-.041717c.568229-.128396 1.138163-.25939 1.709802-.392981l.076972-.018005.570273-.134073-.051439.012041-.518662.121995 1.03843-.24545c.399536-.095358.799899-.191976 1.201088-.289852l.605612-.148545c.301277-.074298.603019-.149303.905224-.225015l.493431-.12415c.243963-.061638.488228-.123735.732794-.186292l.059807-.015299.70009-.180292.473273-.123055.436701-.114382c.136005-.035748.272103-.071636.408293-.107664l.958354-.255438c.083358-.022383.16675-.044819.250176-.067307l.792979-.215045.896489-.246221c.136159-.037643.272409-.075424.408749-.113342l.054611-.015687.033-.01-.013.004-.02.006-.022.006zm-269.966024-824.0225024-.195028.0588678c-39.373707 11.8910329-72.345589 25.9981966-98.916727 42.3197296-3.913486 2.403963-6.564291 6.343814-7.368476 10.775749l-.059951.350893c-.130095.821046-.196973 1.657859-.196973 2.503913l.001022 407.774451c.563708 1.15301.91338 2.434356.994391 3.79555.106138 1.783389-.261891 3.485382-.995039 4.98313l.000321 40.229522c.647952 1.32373 1.012382 2.813135 1.012382 4.390633v30.613184c0 1.57257-.363549 3.062306-1.01214 4.388329l-.000295 40.495475c.648441 1.325164 1.012435 2.814889 1.012435 4.38963 0 1.57481-.364026 3.064597-1.012521 4.389805l-.000556 160.549011c.000572 2.728317 1.109602 5.274284 2.977367 7.11702.913945.901671 2.009098 1.63465 3.244734 2.138458 62.424705 25.486321 105.693358 40.668117 129.805958 45.545387 7.533955 1.523898 18.477859 3.045437 32.831881 4.564662l-.122415-.037012c-13.486552-4.071018-27.589836-8.547469-42.315364-13.428113-12.281816-4.065211-20.571719-15.546152-20.571719-28.480355v-771.8200155c0-2.601975.305106-5.1514472.886713-7.6079039zm185.322553 411.1149304-.824432.332422c-58.85475 23.732206-105.388621 80.168107-117.075661 151.415452-14.964261 91.226169 32.176905 176.404069 108.472055 205.703762-61.794429-42.563619-96.503721-123.581911-82.874521-208.855697 10.173916-63.655122 45.221885-116.792746 92.302559-148.595939zm118.409767 37.361077c70.432925 11.054674 116.945836 83.24358 104.549859 160.801459-12.392796 77.537982-79.102784 131.919796-149.512047 120.868836-42.877224-6.729718-76.889763-36.115598-94.143878-75.576599-.04818-.104002-.095781-.209259-.14217-.316017-6.23951-14.359604-10.18902-29.878491-11.638555-45.929894-.008914-.098706-.01639-.197107-.022446-.295187-1.036666-11.706197-.751429-23.782353.992584-36.008378.008048-.054664.01541-.108979.023223-.163346l.031119-.214401-.009985.067022.011-.078.153443-1.030793c.063539-.418682.128759-.837319.195661-1.255909l.010896-.067298v-.001l.324-1.944-.006.04.080366-.46716c.116758-.665833.237788-1.330448.3629-1.993735.023301-.1225.046459-.244479.069752-.366397.128058-.671419.260627-1.342085.397373-2.011344l.043752-.212108c.768698-3.737673 1.667992-7.431366 2.694737-11.07493.024515-.083553.048127-.167054.071804-.250521 1.707725-6.025568 3.765446-11.91392 6.159075-17.637101.051849-.123971.105332-.245961.1604-.365979 24.173503-57.373358 80.369501-93.741931 139.143137-84.51722zm25.888093 206.166882c-15.892465 26.003381-39.591703 45.634223-66.860897 55.877024l-.888284-.131727c41.15849 6.459957 81.314016-14.176031 105.476762-50.032241zm-75.037006-182.559401-.420857.137741c-30.310362 10.121452-56.322537 34.455404-70.511007 67.039742l.005234 29.508154c.209042.023527.418398.051702.627978.084596 8.710104 1.367079 14.509567 10.367955 12.953465 20.10402-1.382447 8.649552-8.105268 14.969474-15.695905 15.313749 1.337119 1.712845 2.115352 3.859331 2.115352 6.149244l-.004295 37.733086c9.516033 20.933197 24.520812 38.313433 43.296549 49.555546l.697103.413136.534211-.043332c34.183732-2.987571 65.486874-23.088093 84.259772-53.679419-.032687-.318189-.048308-.640076-.048308-.965172v-46.391602c0-5.522848 4.477152-10 10-10l7.856218.000231c.19725-3.522532.242365-7.03658.13675-10.534261l-8.382506-.327275c-5.367215-.209233-9.610462-4.621119-9.610462-9.992411v-44.286488c0-1.297463.247516-2.538685.698503-3.678139-13.630485-22.130967-34.220178-38.564285-58.507795-46.141146zm167.349617 219.710014.019-.032h.001l1.153-1.918-.028.048.062-.104.103-.173.047-.079.721288-1.227265c.258538-.444017.515553-.889301.771034-1.335846l.021678-.038889.006-.011.016686-.027691-.044364.07758c.453338-.792367.901849-1.588703 1.345478-2.388961l.0252-.047928.318-.579.889-1.634-.052.097.184-.34-.092.169.205-.38.025-.047.835997-1.578941c.612477-1.170716 1.214654-2.349373 1.806363-3.535837l.05064-.103222.02-.04.012-.025.058932-.116201.003068-.009799.032-.064.052-.105-.006.011.922-1.885-.118.245.2347-.481773-.0597.119773.143-.296.091999-.188825-.068999.139825.555201-1.162082.652022-1.394126c.824599-1.780407 1.625981-3.577297 2.40362-5.39024l.077723-.181437.008434-.022115-.01.022.111-.261.042-.099.856-2.042.202926-.487167.912074-2.267833-.054.137.096-.241v-.001l.156319-.39108.988717-2.562183c.358639-.947896.710909-1.899787 1.05674-2.855616l-.000776-.001121.014-.037.01-.028.045063-.122898-.019063.049898.181-.507.731-2.074-.062.18.109-.312-.033.093.03962-.110685c.783466-2.267673 1.530886-4.556842 2.241352-6.866767l.525906-1.736323c.296162-.99312.585512-1.990007.86798-2.990606l.058142-.207619-.022.075.508881-1.834101c.357441-1.314295.703041-2.634865 1.036641-3.961581l.052493-.209207.002985-.012111-.004.012.131-.529.484-1.995.113-.476.354931-1.529664c.784107-3.44824 1.48763-6.936092 2.107864-10.461351l.006205-.042985.282246-1.635005c.094054-.560262.186007-1.121455.275849-1.683568l.424244-2.768522.099775-.688014c.271509-1.893539.517106-3.784622.73702-5.672372l.001866-.020519.018-.154.004-.039.202839-1.816178c.144547-1.352246.275934-2.702695.394268-4.051182l.007893-.09164.001-.019.006-.064.058-.692.027-.321-.018.207.155-1.969.041425-.551855.173255-2.668845-.00068-.0033.002-.03.008-.142.034-.622-.002.054.015-.292v-.006l.003-.064.099-2.006.015681-.336212.002319-.080788.002-.052.006-.151-.003.062.076-2.116-.005.184.015-.453-.007.187.02-.653-.006.239.009-.341.011-.442v.024l.001-.054.003-.144.036-1.769.005-.237-.002.064.003449-.127659-.000449-.015341.005-.437v.046l.001-.092-.001.034.001-.074.001-.069.002-.197-.002.14.013-1.936v.102l.00277-.440174-.00277.231174.001-.593.001.234-.001-.269v-.047l-.002-.527.001.129-.001-.159v-.007l-.016-1.853.002.096-.002-.157-.001-.072-.001-.078-.003-.214-.002-.122-.002-.109.001.012-.001-.015-.001-.055v-.02l-.001-.055v.04l-.002-.108.002.068-.002-.078-.044-1.992.003.081-.007-.254.003.137-.012-.445.001.016-.007-.224v-.005l-.005-.174.002.09-.005-.172-.011-.342.003.077-.007-.198-.063-1.672-.004-.116-.008285-.226234.004285.139234-.014-.333.007.145-.009-.193-.009-.198-.01-.202-.096-1.878.007.113-.025-.467.011.219-.04-.707-.003-.047-.029-.475.002.022-.019-.299.002.044-.111-1.662-.013-.188-.004-.058-.015-.216-.02-.255v-.004l-.173-2.148-.057-.675-.009-.101-.002-.019-.04-.437-.004-.044-.164-1.726-.051-.507-.01-.102-.022-.206.0155.135023-.0165-.149023-.243-2.208-.056-.491.012.097-.033-.278-.01-.082-.038-.318-.25-2.005-.011-.084-.048837-.378148.033837.266148-.066-.494.021.146-.04-.289-.035-.258.034.255-.265-1.908-.141-.966-.022-.148-.017-.113-.008-.052-.235-1.52-.053-.337-.061-.38-.038-.231.025801.146636-.053801-.320636.003.022-.33-1.959-.094-.54-.076-.434.072.415-.132-.74-.178-.969.055.293-.0528-.292631-.0662-.349369.019.107-.024-.131-.016-.088-.008-.042-.028265-.1561-.036735-.1899-.138-.712.02.099-.028-.142-.358-1.803.02.098-.033-.163-.121-.594-.119-.565-.393-1.832.034.154-.034-.157-.074-.337-.277095-1.237603c-.105815-.464221-.213217-.927786-.322199-1.390686l-.165022-.695367-.463684-1.889344-.129-.519.013.049-.035444-.141106.021444.088106-.298724-1.17198-.361141-1.37517c-.238307-.894444-.482573-1.786208-.732757-2.675226l-.07018-.248762-.026198-.090862.025.09-.115-.404-.012-.041-.548-1.883-.045-.153-.139-.468-.148-.49-.022-.072-.494-1.607.014.043-.05-.162.031.103-.048-.156-.047-.148-.55315-1.737943c-.199418-.615005-.401714-1.228558-.606873-1.840635l-.624052-1.831781-.212925-.606641-.033-.093-.665-1.869-.001-.002-.157-.434-.221-.603-.093-.25-.343-.921-.018-.047.013.032-.014-.036-.019-.051-.075-.199-.188-.497.11.287-.18-.473.038.102-.092-.24-.123-.319.077.201-.66-1.698-.053-.136-.061-.156.029.076-.153-.388-.018-.045-.209-.52-.57-1.402.023.055-.084-.205.037.092-.171-.416.037.087-.103-.246-.146-.351-.108-.257.099.237-.813-1.919.054.125-.07-.163-.068-.159-.09-.209.027.064-.437765-1.006684c-.184581-.420078-.370578-.839282-.557985-1.257605l-.053369-.119018c-.041262-.091937-.082593-.183831-.123992-.275683l-.020889-.04401-.066-.145-.009-.019-.819-1.787-.007-.016-.105-.228.033.073-.128-.274-.728033-1.54141c-.536734-1.121136-1.083771-2.235524-1.641-3.342993l-.070967-.139597-.052959-.106253-.055041-.107747.024.049-.453401-.893854c-.204119-.398574-.409564-.796235-.616331-1.192976l-.179113-.342817c-.02773-.052942-.055484-.105867-.083261-.158775-.378056-.7201-.760301-1.436822-1.146877-2.150442l-.002017-.003136-.108782-.201097-.019218-.034903.018.034-.480432-.879943c-.198597-.360888-.398308-.72097-.599127-1.080239l-.107334-.191757c-.080524-.143658-.161224-.287187-.242102-.430584-.805656-1.428433-1.628712-2.84358-2.469086-4.245352-.943278-1.57342-1.908374-3.12999-2.894923-4.669141l-.107996-.166984-.407-.629.042.063-.168-.258.049.077-.884-1.348.045.067-.137-.208.027.042-.346-.521.048.071-.106-.158-.187-.278.084.123-.304-.45.168.25-.775-1.144-.029-.043-.013-.019-.361-.526-.029-.042-.597911-.863005c-.280211-.401303-.561938-.801292-.845174-1.199957l-.061915-.086038-.058-.082.015.022-.291-.406.062.085-.082-.114-.019-.026-.861-1.191.135.185-.297-.409.138.191-.357-.489-.012-.016-.259-.35-1.178-1.576-.383-.506-.112-.147-.012-.016-.079-.103.053.07-.928-1.205-.441-.564-.233-.297.068896.085475-.098896-.123475-1.376-1.725.797.993-.134973-.170316-.672142-.836522-.335885-.412162.188113.229645-.201113-.245645-1.146-1.393.122.146-.204-.246.01.013-.122-.147.050528.059044-.087528-.104044-1.052717-1.250474c-.764414-.898762-1.53731-1.788999-2.318587-2.670552l-.171696-.192974.044.05-.123-.138-.377-.422-1.27-1.401.106.115-.240102-.26342.099102.11042-.127-.14-.023-.025-.028-.031-.36-.389.035.037-.198-.213.116.126-.986-1.056.107.113-.298-.317.16.171-.59335-.628915c-.634061-.666223-1.273151-1.326956-1.917217-1.982122l-1.323433-1.329963-.324-.321-1.138834-1.118355c-.876847-.851482-1.762405-1.692891-2.656557-2.524044l-.093609-.086601-.119-.11.005.004-.11-.102.078.073-.622503-.57415c-12.394774-11.360313-26.413818-20.763091-41.752849-27.736077-12.354561-5.580168-25.562964-9.584944-39.466296-11.767116-13.976659-2.193682-27.859775-2.420577-41.417935-.869334l-1.751058-.006909c-76.125752 9.377722-141.745704 74.736754-155.788049 162.595464-16.623835 104.010312 45.331797 200.16661 138.381777 214.771103 13.66425 2.144648 27.239186 2.411413 40.509017.976204l-.001177-.187292c24.777107-2.615164 48.497884-11.170884 69.756628-24.521233 11.492507-7.251291 22.262295-15.904487 32.087154-25.777705l.024291-.025955.439-.445 1.389-1.419.041-.042.169-.175.912593-.950252c.334723-.351761.668277-.704974 1.000653-1.05963l.038754-.042118.025-.027.013935-.013828-.077689.082946c.841978-.89842 1.676394-1.806107 2.503097-2.722936l1.23425-1.382086.426407-.486096-.082.095.403-.461-.231.263 1.265-1.456.156-.181.027-.031.850625-.997818c.308329-.364598.615478-.730522.921437-1.097763.812946-.975777 1.617492-1.96086 2.413475-2.955118l1.187533-1.49825.19993-.257051-.007374.011265.064374-.084265 1.232-1.595-.023.031.206-.269-.12.156.257-.336.237-.314-.098.131.398-.528-.235.311 1.267-1.692.033-.044.216161-.290823.770807-1.053502.764648-1.059667.268384-.378008.074-.104-.032.044.035-.049 1.213-1.722-.152.218.192-.274-.033.046.164-.235-.078702.115108.135702-.197108.656932-.951892c.263014-.384135.524827-.7694.785433-1.155792 1.089156-1.614854 2.157215-3.249368 3.203617-4.903084l.007018-.012232v-.001l.091-.143-.04.062.371-.59.009-.015 1.013-1.633-.166.27.188-.305.175-.285.131-.215.006-.01.019-.032h.001l.105-.173-.131.215zm-86.716325-84.750525h-2.824v27.791l25.532968 3.864525.511-28.725zm-461.954032.025525-15.095397.001258c5.890017 9.714916 10.922121 17.189593 15.096312 22.424031zm516.843935-29.801373-.06231.035739c-1.569773.905981-3.410699 1.398316-5.377282 1.321652l-34.255455-1.336025c.077935 3.816992.001821 7.648049-.229535 11.485378l35.174013 4.439976c1.679768.212047 3.209432.829279 4.503193 1.741256.471525-5.973963.545367-11.881127.247376-17.687976zm-516.843935-19.139627-21.035.627v28.314h21.035zm487.129-27.479-27.998968.928671v24.994l6.581968.256329.041194-.003861c.78938-.059122 1.5653-.024459 2.316467.0948l18.574339.724061zm-487.129-2.996-34.605 1.452v10.045l34.605-1.032zm417.493431-60.455895.251484.166423c16.889906 11.022647 31.077258 26.151143 41.385579 44.202899l34.883854-1.157012c-15.94551-22.240011-39.203593-37.867652-66.645795-42.174793-3.300734-.518061-6.595019-.861858-9.875122-1.037517zm-417.493431 11.649895-21.035 1.251v28.421l21.035-.883zm.000049-41.565313c-.864707.981286-1.715668 1.988909-2.552884 3.022871l-.19613.244079c-3.027729 3.796182-7.091316 10.180214-12.19076 19.152096l14.939725-.889733zm434.22067-219.745155c19.854264 0 35.290157 17.956039 35.290157 39.419163 0 21.463125-15.435893 39.419163-35.290157 39.419163-19.854265 0-35.290158-17.956038-35.290158-39.419163 0-21.463124 15.435893-39.419163 35.290158-39.419163zm0 20c-8.080472 0-15.290158 8.386778-15.290158 19.419163 0 11.032386 7.209686 19.419163 15.290158 19.419163s15.290157-8.386777 15.290157-19.419163c0-11.032385-7.209685-19.419163-15.290157-19.419163zm0-100.838326c19.854264 0 35.290157 17.956039 35.290157 39.419163 0 21.463125-15.435893 39.419163-35.290157 39.419163-19.854265 0-35.290158-17.956038-35.290158-39.419163 0-21.463124 15.435893-39.419163 35.290158-39.419163zm0 20c-8.080472 0-15.290158 8.386778-15.290158 19.419163 0 11.032386 7.209686 19.419163 15.290158 19.419163s15.290157-8.386777 15.290157-19.419163c0-11.032385-7.209685-19.419163-15.290157-19.419163zm0-100.838326c19.854264 0 35.290157 17.956039 35.290157 39.419163 0 21.463125-15.435893 39.419163-35.290157 39.419163-19.854265 0-35.290158-17.956038-35.290158-39.419163 0-21.463124 15.435893-39.419163 35.290158-39.419163zm0 20c-8.080472 0-15.290158 8.386778-15.290158 19.419163 0 11.032386 7.209686 19.419163 15.290158 19.419163s15.290157-8.386777 15.290157-19.419163c0-11.032385-7.209685-19.419163-15.290157-19.419163z" fill-rule="nonzero"/><path d="m671.163551 681.030372c7.963524 1.249901 15.572579-4.952982 16.995302-13.854527 1.422722-8.901545-3.879645-17.130917-11.843168-18.380818-7.963524-1.2499-15.572579 4.952983-16.995302 13.854527-1.422722 8.901545 3.879645 17.130918 11.843168 18.380818z"/></g></svg>