<svg height="960" viewBox="0 0 960 960" width="960" xmlns="http://www.w3.org/2000/svg"><g fill="#000" fill-rule="evenodd"><path d="m244.809679 824.671439 84.374056 120.888561 51.927754-69.111319c-41.031142-15.586582-58.844143-22.353242-76.610898-29.102335l-1.91563-.727695-1.127477-.428296c-11.477778-4.360087-23.483525-8.920734-42.191466-16.027357-6.542167-2.485186-10.998049-4.177851-14.456339-5.491559zm362.335056-10.345439-190.92 61.815 72.493 68.502zm-449.019199 107.945047c-.051658.028872-.103685.057335-.155975.085344l-.086285.045664c-.046046.024109-.092241.047825-.13863.071188-.062003.031209-.124348.061801-.187031.091756-.154227.073721-.310591.143596-.468868.209484-.018952.007868-.037657.015587-.056389.023251-.075689.030992-.152123.061171-.228976.090421-.038491.014625-.076773.028925-.115158.042993-.057431.021076-.115398.041717-.173589.06183-.039763.013719-.079356.027123-.119049.040282-.270365.089667-.54567.168004-.825025.234417-.021821.005164-.043803.01031-.065809.015383-.172423.039767-.346237.074949-.521417.105475-.075246.013091-.150934.025374-.226864.036784-.032784.004947-.065177.009648-.097612.014189-.041191.005748-.082874.011314-.124624.016617-.080064.010188-.160237.01937-.240649.027574-.010776.001079-.021112.002116-.031451.003138-.190078.018805-.381996.032146-.57506.039841-.045459.001799-.091783.003323-.138171.00452-.075486.001962-.150816.003042-.2263.003258-.118242.000337-.236866-.001449-.355831-.005392-.005005-.000178-.010001-.000347-.014997-.00052-.092292-.003188-.184819-.007687-.277532-.013502l-.133916-.009315c-.050532-.003847-.100838-.008069-.151193-.01268-.045781-.004197-.092106-.008763-.13847-.013659-.197644-.020872-.39584-.047745-.594561-.080781-.02593-.004314-.051918-.008738-.077914-.013267-.294307-.051274-.589879-.116137-.885962-.195051l-87.2385166-23.251126c-.2770323-.073835-.5488974-.15895-.8151297-.254789l-.265297-.099769c-.1409001-.05528-.2801308-.113598-.4176201-.174869-.3343708-.149017-.6583718-.315454-.971044-.498117-.0799836-.046716-.1596851-.094784-.2386189-.143905-.1147389-.071411-.2276287-.144889-.3388492-.22052-.268015-.182363-.5240471-.37533-.7698215-.579695-.1213583-.100917-.2401315-.204533-.3563194-.31082-.2324896-.212666-.454768-.436182-.6659734-.669563-.0985502-.108897-.1947109-.219967-.288388-.3331-.0719662-.086917-.1423482-.174899-.2112368-.264055-.0482663-.062467-.0957648-.125464-.1425202-.189024-.2776686-.377477-.5290665-.774691-.7519352-1.188966-.0645814-.120056-.1266176-.241238-.1862137-.363779-.1743489-.35916-.3252819-.7229-.4546901-1.096272-.0518042-.149481-.1001471-.300455-.1449567-.45287-.1175425-.401087-.2091537-.803252-.2758576-1.213214-.0390414-.240001-.069533-.482468-.0912104-.727255l-25.8852615-292.302888c-.0771732-.871467-.0422206-1.719201.0912489-2.531753l-.092172-1.045738c-.4585858-5.241661 3.2231536-9.942057 8.4220799-10.752287l47.4687226-7.397786c1.3444877-.209532 2.7175938-.142469 4.035264.197084l87.2385166 22.480657c4.105063 1.057842 7.097081 4.589048 7.46655 8.812089l8.045676 91.95349c.367329.241924.722952.510884 1.064216.807068l28.607865 24.828483 127.079704-226.124974c5.518261-9.819232 13.080479-17.766717 21.854124-23.608994l-.000563-120.290032-230.603267-45.347007c-17.176284-3.377692-29.61003-18.319594-29.860733-35.774983v-51.487677c0-.467694.032109-.927896.094243-1.37852l.032757-.208813.030723-.750455c.880934-20.190691 2.700666-35.369988 5.576341-45.786732l.13997-.500321c2.236219-7.887473 6.095612-16.52256 11.561335-25.961306-.34769.008776-.697149.012814-1.047055.012814l-.078314-.001-.119468.001c-4.695856 0-8.441738-2.327308-11.240855-5.886422l-.231069-.299421c-1.826878-2.412339-3.276473-5.428705-4.466577-9.004569-.825516-2.480396-1.532208-5.26473-2.109969-8.279061-3.604713 11.190865-9.9229834 20.357615-18.4259304 26.342148-6.4946332 4.860405-14.1092429 7.664519-22.3944384 7.664519-.3991287 0-.7967011-.006508-1.192667-.019439-.4605389.012884-.9249051.019439-1.3920536.019439-29.2045194 0-52.4292373-25.805242-52.4292373-57.143597 0-31.3383549 23.2247179-57.143597 52.4292373-57.143597.4671485 0 .9315147.0065547 1.3930655.0195909.394954-.0130834.7925264-.0195909 1.1916551-.0195909 8.2851955 0 15.8998052 2.8041136 22.3944239 7.6645493 8.9306424 6.2855122 15.4512969 16.0814408 18.9507189 28.0464865.391131-1.741417.830532-3.3904073 1.313813-4.9310571l.193486-.6038379c1.188196-3.6302401 2.639-6.6923491 4.468162-9.1389057 2.655823-3.5522413 6.20346-5.9739625 10.65856-6.259007.375211-.030216.75749-.045854 1.146764-.045854.300435 0 .596704.0093147.888836.0276736 19.743505.4137074 36.739237 13.718741 42.005439 32.4375126l69.916876-.0007023c4.776392-23.7790626 25.704705-41.6967717 50.816417-41.6967717 28.640922 0 51.839942 23.3079361 51.839942 52.0363737 0 28.728438-23.19902 52.036374-51.839942 52.036374-25.349845 0-46.436573-18.259145-50.947932-42.374829l-49.127522-.001005.000265 27.007.35243.579068c7.917322 13.064306 13.258591 24.500351 15.997016 34.439347l.171258.632372c2.688801 10.105157 4.425648 25.391626 5.32182 46.137353l.031476.74686.032374.210423c.049385.359341.079675.724752.089815 1.095172l.003811.278738v40.740667l409.225 73.929-.166-7.788-.009407-.084424c-.036036-.360774-.052806-.727056-.049277-1.097781l.006468-.278861.013216-.371934-.017776-.837755c-.011813-.560009.022596-1.110067.099704-1.64657l.024072-.156675.031723-.745455c.880934-20.190691 2.700666-35.369988 5.576341-45.786732l.13997-.500321c2.668047-9.410594 7.646688-19.885419 14.907312-31.519662l.218654-.34983-.000265-28.079h-3.999735c-1.763077 0-3.418642-.455987-4.855965-1.255955l-.142035-.081045-.008795-.004888c-3.054973-1.53749-5.061341-4.135846-6.63781-7.467108l-.167291-.35971c-1.181282-2.584141-2.134736-5.765173-2.907387-9.491021-1.440688-6.947234-2.247879-15.839514-2.280717-25.275912v-.564361c0-9.535557.793762-18.565566 2.236885-25.62735.771653-3.776013 1.726905-7.0002 2.910989-9.615513 1.604878-3.544728 3.647719-6.302441 6.831157-7.908516l.021969-.009621.143035-.083045c1.361674-.757864 2.919223-1.207004 4.578494-1.252182l.277471-.003773h43.038735l-4.175965-11.4319c-2.457356-6.726549 2.74531-13.780102 9.897543-13.418666l125.919378 6.36331c3.807625.192418 7.174558 2.533131 8.681249 6.035261l10.182669 23.670685 62.977225.000492c.125964 0 .250867.001985.3747.005915.198986.006312.395415.017663.589048.033885l.009443.000794c.28636.024235.566597.059125.840611.104141l.069524.011664.018055.003105.158307.028648c.043268.008176.086375.016607.129322.025292l.084134.017378c.172001.036276.341882.07676.509114.121205.16133.042883.319701.089295.475598.139243.022271.007138.044171.014242.066021.021414l.105946.035453c.154546.052718.3063.108828.455543.168307.135547.054023.268777.110717.399924.170085.036797.016657.073735.033667.110507.050888.030319.014198.060385.028474.090338.042893.05058.024348.10098.049169.151056.074391l.096518.049313c.133887.069391.265395.141654.394518.216683.04791.027837.095527.056079.142815.084696.026809.016226.053717.032696.080517.049289l.173462.11006c.015488.010071.031033.020243.046541.030456.054245.035727.107936.071903.161162.108575l.079775.055583c.036483.025699.072968.051799.109227.078133.033397.02426.066256.04846.098927.072852.125118.093413.247512.189688.367117.288658.021042.017414.041656.034623.062187.051912.034253.02884.06875.058318.103007.088021.036496.031648.072383.063251.108003.095101.105042.093922.207851.190094.308302.288316.024187.023651.048261.047444.072198.071354.09395.093831.186235.189963.276369.287837.095769.103997.188978.209804.279745.317465.01607.019062.031901.037987.047657.056968.038248.046073.076279.092761.113861.139777l.035939.045233c.037603.047613.074955.095828.111842.144367l.093026.124436c.022106.030062.043918.060078.065557.090209.029265.04075.058219.08172.086856.122899.023795.034213.047592.068897.071166.103725.020082.029673.039679.058962.059118.08835.027244.041182.054432.082956.081305.124923.075916.118561.149299.238649.220135.360168l.056366.097941c.030023.052848.059487.105804.088475.159012.005896.010821.011876.021846.017837.032882.028786.053304.057006.106682.084752.160299.020626.039858.041018.079903.061145.120078.008943.017851.017739.035533.026483.053241.106194.215017.205048.434095.29626.656288l.033872.083532c.085376.213142.163891.429481.235296.648142.011999.036743.023868.073777.035534.110875.011258.035801.022281.071513.033115.107283.013046.043062.025972.086738.038617.130495.041365.143129.079759.287259.115121.432129.004722.019347.009309.038371.013845.057408.076942.322876.138929.64993.185555.979154.003734.026363.007359.052667.010886.078984.006123.045687.011945.09137.017471.137089.005994.049585.011646.099271.016949.148994.013956.130864.025496.262062.034594.393429l.012541.211721.008306.21209c.002185.075018.003571.15006.004155.225109l.000212.129088c-.000191.042698-.000643.085393-.001355.128085-.002185.130766-.006806.261322-.013882.391756-.001932.035599-.004028.070902-.006305.106194-.00339.052538-.00719.105192-.011392.157818-.010514.131682-.02356.263257-.039147.394558-.014512.122316-.031346.245142-.050426.367653-.036633.235226-.081562.469347-.134876.701785-.025464.111013-.052844.22166-.082149.331866-.015819.059484-.032075.118405-.048886.17719-.003312.01158-.006674.023253-.010057.034921-.018598.06414-.037792.1279-.057645.191487-.011586.037107-.023389.074132-.035415.111095-.016048.049327-.032511.098585-.049375.147728-.016638.048479-.033649.0968-.051051.145004l-.035895.097783c-.00947.025371-.019047.050703-.028733.076001-.023681.061853-.047991.123439-.072955.18481-.00785.019292-.015512.037954-.023235.056596-.02367.057153-.04808.1145-.073071.171644-.01237.028285-.024927.056621-.037626.084907-.096643.215233-.201438.427245-.3146.635821l-.087954.158443c-.013892.024468-.027836.04877-.041896.073022-.012961.022354-.026217.045001-.039575.067603l-.109132.179997c-.009345.015023-.018542.02972-.027783.044397-.0385.061152-.077891.122131-.11806.182742-.074081.111766-.150518.221885-.229598.33068-.060125.082731-.122165.165193-.18576.246841-.042646.054749-.085866.10898-.129782.162836-.036924.04528-.074187.090112-.111939.134675-.015851.018709-.03189.03749-.048016.056222-.04265.049542-.08573.098539-.129419.147188-.023063.025679-.046132.051085-.069368.076394l-.127289.135915c-.093932.098341-.190994.195648-.290708.291322-.035997.034542-.072561.069076-.109476.103391l-.082356.07566c-.041575.037752-.08376.075384-.126383.112734-.11614.101775-.235653.201556-.358444.299128-.090336.071784-.18253.142435-.276509.211844-.293929.217089-.605447.422104-.934697.613609-.043015.025019-.086303.049791-.129894.074329-.143167.080594-.289665.158704-.439452.234189-.317463.160007-.650329.308465-.998218.444064l-54.624871 21.291258-11.079992 48.883059c-1.012006 4.464397-4.920737 7.659373-9.473069 7.785386l-.279499.003865h-120.195314l.001778 7.448199c7.287155 12.270064 12.244143 23.073871 14.847933 32.524216l.171258.632372c2.688801 10.105157 4.425648 25.391626 5.32182 46.137353l.031476.74086c.057633.361918.095865.727395.113957 1.098255l.009776.279139 1.252616 58.70296v.391828c0 .536273-.038696 1.06345-.113303 1.579412l-.054046.329406c-.234208 14.142411-11.303535 25.881954-25.562613 26.802145l-.451338.025453c-2.079309.100368-4.163278-.037116-6.21138-.409777l-248.591669-45.232821.000735 104.584.015194.009052c8.311274 4.802129 15.531948 11.287251 21.197616 19.04314l182.11819 249.306808 112.96684-30.171605.902192-.241182-3.10121-1.679144c-5.167394-2.797906-9.062726-7.464399-10.896056-13.035363l-.136944-.430304-.289822-.941402-58.324536-23.081254c-5.429325-2.148637-9.64607-6.56154-11.547731-12.076399l-.049725-.14794-.097284-.297094-.047391-.148635-7.802335-25.14723c-1.400052-4.51242-1.157418-9.374788.684901-13.725412l3.065434-7.239001-2.78838-4.873124c-3.789416-6.622585-3.480552-14.824265.796219-21.143089l7.548677-11.152984c5.162426-7.627358 14.866245-10.743055 23.503962-7.546638l211.352392 78.211666c.979072.362309 1.919885.797324 2.816406 1.298309 1.364186.182699 2.712216.651447 3.955963 1.426705 2.96471 1.847977 4.626726 4.994888 4.708425 8.244273.400344.947291.729998 1.931114.983032 2.945055l3.938083 15.780476c.840772 3.369096.789883 6.899047-.14766 10.242506l-2.502107 8.923004c-1.642667 5.858069-5.86252 10.649898-11.465894 13.02003l-30.751223 13.007241c-4.33365 1.83306-9.159922 2.07388-13.631827.708286l-.051531-.016229c-.233535.178608-.473437.345676-.718887.50115l-7.1907 6.421804c-5.542252 4.950108-13.362035 6.412321-20.304533 3.825318l-.377793-.145129-19.328957-7.649665-10.235398 21.706274c-2.716658 5.760646-7.700429 10.136883-13.763923 12.086067l-119.83583 38.523271c2.090793 8.193284 3.16694 16.662665 3.16694 25.219687l-.000789 136.305701h-40l.000789-136.305701c0-5.524585-.737962-10.989071-2.169091-16.256193l-137.172698 150.943894 1.712 1.618h-30.208l.502-.552-76.899-72.667-55.015 73.219h-28.477l-89.873-128.768v128.768h-40v-42.068l-26.521692 4.132678-.125281.075552-.059027.03377.166334-.098342-.233717.138326zm8.055163-297.147581c-7.396969 1.255366-11.374921 1.930478-15.199954 2.579638l-.762417.129392c-.084701.014375-.169434.028755-.254234.043147l-.509893.086536c-2.982414.506155-6.134557 1.041117-10.98401 1.864134l-.283456.047687 24.031 271.365 22.782-3.549v-57.457zm-114.5129637-13.730466 23.7120566 271.025858 66.6659431 17.768142-23.992558-270.934529c-.078929-.074451-.156684-.150213-.233229-.22726zm370.1563817-103.880843-14.728382.000843v350.561l222.722-72.111-196.637994-269.182837c-2.449258-3.352857-5.589948-6.140667-9.209673-8.174898-.706388-.396979-1.422289-.761185-2.145951-1.093108zm-34.728149 8.27773c-.959709 1.205064-1.835742 2.502619-2.614837 3.888945l-151.530704 269.634783c-1.455033 2.589095-2.717246 5.27055-3.78091 8.022479.866934.328992 1.984207.753413 3.62891 1.37819 4.177582 1.586946 7.018338 2.66607 9.622284 3.655236l.485734.184517c.231237.08784.461122.175167.690449.262282l1.145658.435203c.076556.029082.153198.058196.229954.087353l.462141.175555c4.485159 1.703786 9.552319 3.628658 20.933635 7.952102 17.545844 6.665174 29.196284 11.090851 40.044949 15.211955l1.159521.440469c.385639.146494.770488.292687 1.154778.438668l1.151425.437394 1.7239.654862 1.915988.72783 1.094744.415862c.182708.069406.365558.138866.548574.208388l1.100298.417973c16.222868 6.162613 34.132226 12.965877 70.832281 26.9072zm378.467799 172.390326.885473 2.876059c.231046.7514.747797 1.382089 1.439087 1.756391l13.743095 7.441253c7.375177 3.993319 10.116714 13.209305 6.123396 20.584482-1.988278 3.672109-5.400949 6.363427-9.435369 7.440968l-12.594039 3.363704-105.474675 28.16893 2.71329 3.715123c3.722646 5.096033 6.944511 10.498852 9.640922 16.132857l120.542703-38.749023c.724983-.233055 1.331626-.732118 1.700636-1.392437l.094658-.184007 14.243791-30.205513.302908-.640617c.706712-1.498575.06478-3.286312-1.433794-3.993023-.067163-.031674-.135479-.060842-.204807-.087446l-8.568307-3.288914zm-570.210032 40.922787 3.442 39.338 13.731-24.434zm494.18-102.909-1.258295 2.973833 7.77336 25.056363.029.09 50.372 19.935.027019-.044124c.056975-.091594.114741-.182511.173286-.272745l-.08637.135673.133639-.208121c.074773-.113967.150794-.226832.228035-.338584.040956-.059254.082269-.118216.123923-.176863.026088-.036733.052408-.073479.078862-.1101.031099-.04305.062215-.085701.093512-.128181.03437-.046652.069132-.093329.104111-.139796.044221-.058742.08876-.11711.133643-.175141l.069486-.089223c.036643-.046729.073706-.093481.110993-.140008.035551-.044361.071336-.088554.107324-.132542l.145636-.17558c.051121-.060794.10293-.121527.155129-.181847.112712-.130246.227209-.258534.34347-.384877l.097926-.105512.136184-.143792c.109539-.114312.220702-.2271.3333-.33819.051673-.050981.103713-.101668.156053-.151995l.115826-.110326c.028859-.027228.057462-.054028.086151-.080722.20516-.190894.414696-.376372.628368-.556327.330441-.278287.670559-.543213 1.019659-.794546.047101-.03391.09443-.067618.14192-.101077.043318-.03052.086984-.060981.130783-.091231.040466-.027945.08045-.055307.120544-.082494.154159-.104544.310684-.206974.468775-.306765.029049-.018337.058416-.03675.087836-.055072.156946-.097738.315216-.192776.47493-.2852l.076691-.044116.024307-.013873c.285915-.162866.576373-.317399.870971-.463417.026146-.012959.052136-.025758.078158-.038492l.090862-.04413.091244-.043652c.061103-.02901.122085-.057523.183232-.085675.038099-.017542.076739-.03516.115445-.052634l.157284-.070057c.05291-.023251.106245-.046365.159697-.069207.044257-.018913.088583-.037635.132988-.056171l.151243-.062285c.056306-.022875.11303-.045567.169876-.067957.296972-.116953.59678-.225468.899545-.325571.028014-.009264.056641-.018646.085294-.027953.083405-.027089.166449-.053361.249704-.079002.021066-.006488.042715-.01311.064378-.019688.077985-.023679.155628-.046654.233446-.06908.059949-.017278.120298-.034311.180748-.051015.033295-.0092.066621-.0183.099977-.0273l.174352-.046054c.056281-.01455.11294-.028888.169682-.042937.051705-.012801.103034-.025256.154429-.037475.075346-.017915.151352-.035437.227495-.052442l.072916-.016117c.070854-.015497.14162-.030504.212499-.045063.039712-.008159.0801-.016305.120524-.024305.061731-.012214.122703-.023931.183753-.035318.099363-.018536.199492-.03629.299818-.053151.164945-.027723.330667-.053069.49687-.075973.026742-.003685.053392-.007293.080055-.010838.084622-.011252.169367-.021871.254227-.031854.049482-.005821.099164-.011444.148883-.016848.050138-.005451.10046-.010694.15082-.015713l.166312-.015749c.078423-.007037.157024-.013538.235707-.019493.015665-.001185.031332-.002349.047002-.003491.075439-.005498.151046-.0105.226723-.014996.189402-.011246.378687-.01931.56833-.024191.08488-.002186.170046-.003736.255277-.004642l.332124-.00027c.025292.000228.050589.000513.07589.000854.088497.001195.177095.003087.265745.00568.041755.001221.083432.002594.12512.004123l.157941.00653.214125.011219c.04947.002906.099476.006066.149492.00945.0507.003432.101016.007064.151342.010924.062072.004761.124148.009867.186237.015321l.167846.015587c.04114.004028.082146.008194.123156.012512.076236.008028.15256.01659.22889.025681.05141.006124.102631.012463.153854.01904l.137689.018257c.063276.008654.126598.01768.189919.027073l.142439.021751.02865.004525c.332544.052812.66496.115777.996858.189068.039688.008766.078643.017514.117591.026404.069345.015827.139079.032207.208784.049045l.169752.041929c.043278.010926.086259.021956.129228.033162.075472.01968.151165.039975.226814.060818.030232.00833.060559.016775.090878.025309l.22645.065424c.047367.014037.095109.028412.142831.043008.052502.01606.104548.032251.156566.048706.327607.103624.654479.217841.979883.342712l47.989816 18.415742c.35434.135976.705234.280691 1.05236.434009l.517822.236411.332126.160033-.151-.074.04204.02065c.07411.035909.147942.072165.221495.108765.231085.114995.459045.233191.684223.354685.0329.017751.066009.035718.099058.053757.064436.035171.128466.070515.192266.106126.062787.035047.125105.070212.187202.105632.197909.112879.393952.228581.587719.346819.315747.192672.625551.392144.929204.598077.054141.036711.108086.073634.161835.110759.049668.034314.099366.068934.148895.103728.053837.037813.107099.075571.160163.113531.060439.043244.121091.087082.181482.131183.037895.027663.075163.055054.112331.082544.071118.052612.142125.105773.212761.159299.033765.025571.067487.051273.101125.077058.172342.13213.342284.266295.509972.402581.284568.231254.562505.468512.833856.711582.043612.039112.08661.077929.129441.116891.270204.245747.53373.497318.790502.754406.028158.028265.056837.057132.085432.086069.272173.275346.536472.556796.792964.84412l.03752.042258c.249292.280514.491443.567067.726036.858872.028272.03535.056527.070713.084672.106152.052402.065787.104423.132033.156058.198539.02771.035899.055252.071592.082682.10736l.119148.156518c.193026.256443.380488.516465.562244.779999.068773.099404.136505.199279.203422.299642.015283.023264.031042.046995.046755.070753.059901.090216.118931.180848.177301.271862.0182.028763.036496.057433.054726.086141.107592.169018.212729.339444.315579.511125.031959.053812.064274.108265.09636.162841.325709.553475.627497 1.119676.905063 1.696948l.034109.072067c.042323.087988.08374.176329.124592.264919.02672.058831.053631.117848.080292.176974l.043496.096224.042816.096584c.326291.741506.613403 1.499645.860107 2.271001.009045.030063.01859.060125.028074.090206l.045402.143795c.013338.043279.026549.086598.039634.129957.016132.055428.032616.110813.048893.166261.447255 1.521281.738024 3.090175.863709 4.681075.001229.026255.003236.052237.005199.078226.044265.574546.066152 1.152005.066067 1.731071l20.072078 7.943368-4.05425-3.553165c-6.310933-5.530964-7.962662-14.688998-3.981633-22.076206l2.814883-5.224629zm220.011371 52.807374c-.683325.27762-1.384446.518415-2.100676.720367l-24.470135 6.899729-12.063308 3.401435c-2.289952.645687-4.661655.873584-7.004392.688328l-3.727358 6.915435 6.397738 5.605716c3.302784-.762363 6.81937-.553883 10.10307.707263l.400587.153851 30.751223-13.007241 2.502108-8.923003zm-214.501619-90.830263-7.548676 11.152984 2.78838 4.873124c.215753.377061.418392.759626.607878 1.147042l174.592248 65.429218 12.063308-3.401435 17.89111-5.045044zm-607.9296951 9.035747-6.9530566 1.082142 48.4736727 12.920596.167649-.028452.319822-.054278c.052964-.008989.10585-.017964.158798-.02695l.319544-.054231c1.182549-.200695 2.529757-.429334 5.523551-.937421.426391-.072365.839659-.142502 1.240845-.210588zm62.6554851-444.807535c-6.898915 10.822447-11.439165 20.193729-13.653627 28.004461-2.443836 8.619769-4.143783 22.607976-4.976162 41.685435l-.079524 1.901824c-.007717.18454-.0204.36774-.037918.549474l-.022046.198483v49.792299c0 8.006449 5.582866 14.910135 13.37462 16.608976l.345176.071559 238.674353 46.934975c4.689121.922109 8.070456 5.033127 8.070469 9.812053l-.000065 119.398036c10.564956-2.906065 21.820136-3.311859 32.802694-.94738l-.000629-108.843581c-.00003-6.146467 5.483908-10.81438 11.515621-9.884642l.274529.046131 260.381201 47.377468c.549603.100003 1.10883.136896 1.666807.109963 4.046503-.195324 7.1685-3.634003 6.973176-7.680506-.036608-.758413.013442-1.514294.148048-2.253662v-.010689l-1.199-56.314-.020221-.149353c-.022563-.182957-.04021-.367483-.052804-.553444l-.015083-.280001c-.816409-20.379627-2.438931-35.056331-4.745697-43.725712-1.981021-7.445148-6.124761-16.599789-12.446322-27.340464l-26.299938-.000386c-6.718189 10.608224-11.151498 19.808715-13.331285 27.497144-2.443836 8.619769-4.143783 22.607976-4.976162 41.685435l-.079524 1.901824c-.007717.18454-.0204.36774-.037918.549474l.001644.249204-.00169.025279.004077.057358.009656.276731.445 20.896c.134585 6.319749-5.555034 11.177389-11.775523 10.053615l-429.483-77.589c-4.760049-.859935-8.22221-5.003601-8.22221-9.840704v-47.918l-.023361-.219948c-.008807-.092246-.016367-.184868-.022664-.277849l-.015083-.280001c-.816409-20.379627-2.438931-35.056331-4.745697-43.725712-2.01212-7.562026-6.255395-16.887638-12.745649-27.847473zm532.230723 66.600677h-17v17.906h16.999735zm141.428735-34.562-97.724815.00092c-.352328 5.783906-1.01196 11.142649-1.940432 15.686607-.771498 3.775727-1.726553 6.999778-2.910336 9.615069-1.604098 3.543877-3.645698 6.30109-6.827142 7.908088l-.03001.014316-.105998.06186c-.114592.064363-.23058.126533-.347907.186454-.196288.10027-.397169.194607-.601561.282327-.075301.032315-.150732.063592-.226621.093967-.050429.020183-.101023.039953-.151816.059322-.117043.044637-.235551.087278-.35507.12772l-.046671.015662c-.010915.003634-.021839.007249-.032771.010845l103.580024-.001467zm-119.945-34.438-58.190076.000065c1.38497 6.298549 2.206341 14.932138 2.206341 24.499935 0 9.568306-.821458 18.202303-2.206562 24.500939l57.215581-.001017.97559-.000232.085834-.310573c.17394-.652543.346985-1.377794.514592-2.167372l.08333-.40011c1.154053-5.647955 1.831635-13.356996 1.831635-21.621635l-.002265-.649-.001322-.383845c-.004569-.648945-.013598-1.295056-.027633-1.937738l.000599-.063007c-.143997-7.103623-.789477-13.637566-1.801014-18.588045-.19328-.945918-.394993-1.806181-.597922-2.567482zm-59.568489 2.476932-.083337.400092c-1.154213 5.648032-1.831923 13.357652-1.831923 21.606077l.000882.530542c.027576 8.153771.715335 15.730356 1.863193 21.265518.16705.805538.340075 1.546954.514321 2.215653 1.290113-6.16377 2.121618-14.65924 2.121618-23.994814 0-9.335072-.831415-17.83013-2.121235-23.993889l.04997-.194111c-.172813.650194-.345869 1.375393-.513489 2.164932zm198.409489 8.742068-78.618942.000182-7.303 3.219h77.667zm-140.497126-35.33331 1.503 4.114 5.669636.00031c.732154.000018 1.445956.078726 2.1334.228135.84583.183833 1.651738.474688 2.402836.857687.119486.06093.237437.12411.353945.189556l.108183.062312.027401.013626c3.071739 1.551584 5.080889 4.175426 6.659611 7.544301l.167531.363787c1.183783 2.615291 2.138838 5.839342 2.910336 9.615069.474951 2.324417.879553 4.862042 1.208659 7.560721l32.597617-14.366692c1.270775-.560071 2.644273-.84932 4.032995-.84932l49.168976-.000182-4.322126-10.04631zm-633.5059158-56.9034886c-11.1358777 0-21.6254963 14.3987933-21.6254963 33.4113956 0 19.012602 10.4896186 33.411396 21.6254963 33.411396s21.6254963-14.398794 21.6254963-33.411396c0-19.0126023-10.4896186-33.4113956-21.6254963-33.4113956zm222.7534958 1.7678849c-13.982198 0-25.870159 9.0725238-30.145623 21.6970483l12.386735.0000307c5.522847 0 10 4.4771525 10 9.9999997 0 5.522848-4.477153 10-10 10l-12.608082.000158c4.073663 12.976664 16.135535 22.375511 30.36697 22.375511 17.574202 0 31.839942-14.332715 31.839942-32.036374 0-17.7036584-14.26574-32.0363737-31.839942-32.0363737zm-120.352454 44.2499137h-18.5l.00027 17.399435h18.5z" fill-rule="nonzero"/><path d="m863.889017 684.607124 10.668961 2.099461v22l-10.668961-2.099461z" transform="matrix(.8571673 .51503807 -.51503807 .8571673 482.958367 -348.177813)"/></g></svg>