<svg height="960" viewBox="0 0 960 960" width="960" xmlns="http://www.w3.org/2000/svg"><path d="m342.005114 58.9088784c15.513768-1.3653362 29.943415-1.2034575 43.309448.5588226 17.103086 2.2550017 35.279364 8.2186891 54.713195 17.6826469 25.854102 12.5905246 38.203942 42.5151791 28.787505 69.6599021l-.207391.586295-2.396117 6.604077c-.338838.936117-.676696 1.870646-1.013489 2.80335l-2.007303 5.572415-.992791 2.76621-2.481742 6.945025-2.282948 6.427939c-1.134098 3.202802-2.257131 6.388853-3.369101 9.558145l-2.209187 6.316236c-1.097218 3.146944-2.183372 6.277125-3.258462 9.390535l-2.13543 6.204459c-1.767232 5.151746-3.503733 10.256896-5.209503 15.315418l-2.032174 6.047843c-1.681187 5.021215-3.331644 9.99579-4.951371 14.923693l-1.928924 5.89108c-.638058 1.956224-1.2712 3.904979-1.899425 5.846263l-1.869926 5.801433-1.840428 5.756593c-.60856 1.911389-1.212203 3.815303-1.810931 5.711739l-1.781433 5.666874c-3.238921 10.348136-6.32913 20.470015-9.270638 30.365302l-1.589711 5.374955c-1.574965 5.352479-3.105689 10.637525-4.592173 15.855082l-1.471739 5.195059c-10.44178 37.070005-18.611437 70.672803-24.509712 100.788362-14.87948 75.972025-21.210126 165.927283-19.835849 251.415368l.001636.105 1.410522-2.058009c38.964778-57.253206 73.475282-134.660627 99.568283-223.279168l1.097501-3.751092.820271-2.825284 2.460641-8.521172 2.056976-7.175573 1.654814-5.806404 2.927115-10.341317 3.415061-12.171618 3.516849-12.641451 3.647169-13.208676 4.888108-17.830605 2.964715-10.866942 10.08853-37.073891 2.808759-10.291398 3.385683-12.34974 2.402923-8.709856 1.758021-6.336548 1.151744-4.133267 2.256675-8.053089 2.196974-7.776177 1.610512-5.655957 1.580139-5.509273 1.037231-3.593278 1.532573-5.273444 1.505867-5.137133.989754-3.350949 1.464412-4.918595.963391-3.20886 1.426779-4.710864.939575-3.073974 1.392964-4.513939.918306-2.946294 1.36297-4.327822.899583-2.825817.892807-2.779644.886439-2.734624.880477-2.690756.874924-2.648041.869778-2.606479.865039-2.566069.860708-2.526813.856784-2.488708.853268-2.451758.850159-2.415958c.141457-.399741.282801-.798038.424041-1.194915l.84626-2.364423.84417-2.331505.842488-2.299742.841212-2.26913.840345-2.239672.839884-2.211366c.139965-.366266.279928-.731401.419897-1.095428l.839958-2.171069.840517-2.145644c.140155-.355553.28035-.710095.420595-1.063649l.842118-2.10967.843695-2.087128.845681-2.065738.891556-2.149242c8.734632-20.903818 17.55953-37.435243 27.222752-50.1818313 12.732319-16.7949806 27.543923-27.8551018 45.480847-31.3063049 11.158316-2.1469467 24.193392-2.6412276 38.705347-1.8134046l1.98802.1210488c.33285.0215302.666453.0437356 1.000805.0666123l2.01506.1452841 2.032805.1612081 2.050325.176946 2.067619.1924974 1.040225.1020224 2.093138.2154754 2.109869.2305614 2.126376.2454609c.355759.0421414.712196.0848959 1.069307.1282596l2.150711.267461c.359787.0457848.720238.0921711 1.081349.1391549l2.17454.289042c.36373.0493584.728111.0993066 1.093137.1498406l2.197863.310204 2.213129.3240791 2.228171.3377679c.372603.0574251.745823.1154127 1.119655.1739591l2.250311.357952 1.130598.1839463c1.782004.2920568 3.561534.5947163 5.332048.9063312l2.648191.473933 2.629761.4861306c2.182425.409848 4.340542.8311149 6.461573 1.2605834l2.526618.5190929c2.925045.6097208 5.767385 1.2329942 8.491961 1.8609915l2.305693.5392345 1.228123.2925548 2.872108.6957624 2.107476.5263374.994885.2552013 1.423417.3750143 1.345688.3679855.856702.2427057.826292.2415122c.135273.0401954.269348.0803733.40226.1205497l.783781.2411696.757511.2419064.732893.2434152.709932.2456964c.1165.0411824.232113.0824919.346872.1239448l.678592.2505657.659767.2547771.642597.2597607c.105761.0437516.210875.0877431.315378.1319904l.619945.2686837c.102193.0453353.203842.0909588.304983.1368863l.601017.2793441.590468.2874162.581572.2962604.287967.1516881.571333.3109745.566574.3217491.28202.1651563.56254.3393588c23.431864 14.4097973 36.059858 41.7533703 31.309186 69.2422633l-3.31186 19.393549-4.875934 28.387066-5.041873 29.060604-3.117198 17.740207-2.824881 15.836512-1.343127 7.415539 2.015181-2.293189 2.741725-3.108754 2.743622-3.098516 2.745153-3.087882 2.746317-3.076849 2.747114-3.065419 2.747545-3.053591 2.74761-3.041366 2.747307-3.028742 2.746639-3.015722 2.745605-3.002303c.457494-.499243.91493-.997911 1.372299-1.495995l2.743365-2.98143 2.741414-2.967017 2.739096-2.952207 2.736412-2.937 2.733361-2.921393 2.729945-2.905391 2.726161-2.88899 2.722011-2.872191 2.717494-2.854996 2.712612-2.837402c.451675-.471412.90313-.942074 1.35436-1.411979l2.7046-2.810265 4.045912-4.180423 2.689416-2.76305 2.682699-2.743469 2.675619-2.723489 2.668169-2.703112 2.660355-2.682337 2.652174-2.661165 2.643626-2.639595c.439872-.438113.879372-.87531 1.318494-1.311584l2.630117-2.606494c.437574-.432547.874755-.864153 1.311533-1.294811l2.615784-2.572498c.43514-.426831.869862-.852697 1.30416-1.277589l2.600626-2.537608 2.590063-2.513852 2.579133-2.489696 2.567837-2.465144 2.556175-2.440195 2.544145-2.414846c.423001-.40034.845486-.799607 1.267447-1.197794l2.525414-2.376079c.419834-.393829.839128-.786561 1.257875-1.178186l2.505859-2.336418c.416528-.387169.832495-.773216 1.247891-1.158131l2.485479-2.295862c.413086-.380359.825587-.759572 1.237495-1.137629l2.464273-2.25441 2.44968-2.226279c.407043-.36868.813463-.736171 1.219252-1.102466l2.4271-2.183336 2.411589-2.154211 1.964888-1.743747c.352164-.311595.717596-.626258 1.101471-.949038l.793872-.657877c.136922-.111949.276275-.225174.418253-.339861l.884887-.707172.468933-.369556c21.142302-16.594244 52.085113-1.309388 51.757563 25.565449l-1.330215 108.062104c-.085033 6.921455-2.412086 13.628733-6.632048 19.115598l-1.288685 1.669584-1.82725 2.333059-49.765008 62.338804-.584001.80312-33.36417 46.016807-25.229067 34.890675-3.952062 5.502866-1.504553 2.199518c-42.726594 63.156225-100.87412 192.27628-173.27818 385.79824-3.302645 8.827327-8.02057 18.286491-14.148621 28.49686l-1.096058 1.809652c-1.480925 2.423332-3.039902 4.888641-4.676865 7.397484l-1.242343 1.889818-1.271582 1.906289c-.643099.957287-1.29716 1.920805-1.96218 2.890635-.695022 1.013585-1.447858 1.986288-2.254766 2.913276-14.734177 16.926834-36.669254 26.094822-59.490081 24.341199l-1.830897-.146209-1.99635-.171179-1.972112-.18169-1.948174-.192359-1.459941-.152738c-6.728365-.722435-12.939534-1.638048-18.654496-2.761348l-1.699572-.343225-1.506344-.320472-1.50298-.334656c-2.645467-.604045-5.195399-1.263313-7.705515-1.996968l-.536554-.158382-1.489167-.451832-1.269433-.399354-1.432477-.464803-.856342-.284654-.719828-.24348-1.317277-.454881-.490898-.172088-1.707827-.61166-1.481027-.544573-.856468-.320551-1.389733-.529395-1.51488-.588696-2.010192-.799169-1.933379-.787288-2.353291-.981291-2.391158-1.021375-2.354432-1.028207-1.645445-.730971-1.663538-.748932-1.749645-.797924-2.554394-1.183135-2.536836-1.195161-1.845803-.881401-.856474-.412264c-13.631646-6.578025-24.451419-16.869769-31.689957-29.16458l-.382635-.659548-.407594.446873c-16.495002 17.950099-34.481558 32.160168-53.994376 42.076668l-.54803.275459-.80494.484784c-31.026176 18.290939-81.583441 12.264661-140.49778-19.274352l-1.843781-.993901c-29.95633-16.259337-50.080968-47.396836-62.541023-90.302638-3.727759-12.836421-6.787227-26.806874-9.207107-41.845797l-.164369-1.026096-.921794 1.077928c-1.60921 1.869897-3.214852 3.702759-4.817027 5.498609l-1.200982 1.339948-1.762755 1.943866-1.311764 1.429527c-4.521953 4.901103-9.020769 9.509613-13.499629 13.825634l-2.5468 2.447961-2.532628 2.421834-2.518568 2.395845-2.504624 2.369994-2.490792 2.344282-2.477075 2.318707-2.46347 2.293271-2.44998 2.267972c-.407212.375894-.813866.750741-1.219966 1.124542l-2.429956 2.230282-2.41675 2.205329-2.403657 2.180512-2.390677 2.155835-2.377812 2.131295-2.365059 2.106894c-.39312.349123-.785714.697235-1.177783 1.044339l-2.346144 2.070549-2.333676 2.046492-2.32132 2.022573c-.385864.33511-.771218.669229-1.156063 1.002361l-2.303002 1.986953-2.290932 1.96338-2.278974 1.939944-2.267131 1.916645-2.255401 1.893486-2.243784 1.870463c-.373003.309833-.745526.618713-1.117572.926642l-2.226573 1.836189c-.370149.304138-.739824.607331-1.10903.909582l-2.209618 1.802225-2.198456 1.779756-2.1874072 1.757423-2.1764729 1.735228-2.1656518 1.713173c-.3600465.283698-.7196469.566484-1.0788035.848358l-2.1496332 1.680347c-.357391.278245-.7143429.555585-1.0708582.832024l-2.1338703 1.647831-2.1235036 1.626328-2.1132506 1.604961-2.1031112 1.583733-1.0477888.783949-2.0881151 1.55215-2.0782596 1.531266c-.3455616.253478-.6907173.506092-1.0354695.757844l-2.0636895 1.5002-2.054118 1.479661c-1.0246851.734719-2.0458235 1.461788-3.0634792 2.181284l-2.0306865 1.428919-2.0215126 1.408863-2.0124525 1.388946-2.0035058 1.369167c-.3331784.226553-.6659887.452289-.9984334.677209l-1.9902989 1.339755-1.4331229.955934-4.0295503 2.650304c-21.2721145 13.917806-49.49761706-1.328974-49.52000428-26.749589l-.07772663-88.244252c0-7.930569 2.93115906-15.581202 8.24471741-21.468483l3.1523174-3.497158 2.6937716-3.004769c2.6904193-3.010371 5.344607-6.005736 7.9625655-8.986057l3.1241603-3.569163c47.6371485-54.616376 83.0088248-104.13484 106.1290618-148.328564 18.524303-35.40872 35.161772-71.739535 50.254123-110.348476l.387972-.998575.597471-1.560244.615942-1.634571.634248-1.708303.43292-1.179537.889832-2.455879.688176-1.925919.705822-1.997266.968261-2.772973.998949-2.897336 1.029248-3.020286 1.328569-3.946103.819255-2.457665 1.401751-4.2442 1.153655-3.527052 1.783324-5.506753 2.159115-6.746713 1.59293-5.027524 1.966085-6.257942 1.682983-5.399141 2.775056-8.979635 2.14613-7.004281 3.194633-10.512886 2.078099-6.889363 1.908991-6.36092 2.429935-8.137701 3.067534-10.33484 3.107431-10.534807 3.154223-10.75532 3.207908-10.996375 1.953382-6.722079 3.978148-13.744436 11.838127-41.105768 35.901679-120.697453.17803-.578352c7.729915-24.292315 29.294831-41.5640612 54.688583-43.7989156zm9.951109 31.3683435-.809142.0445345c-2.081524.1206862-4.193708.2753231-6.336554.4639107-6.017523.5295904-11.599675 2.7696163-16.200097 6.2824868-.836638 1.3535512-1.512157 2.8236152-1.998879 4.3876171-48.922442 157.204177-79.356785 286.420279-91.315883 387.56427-10.106141 85.472631-12.681441 163.595696-6.249953 224.933952 5.547888 52.911191 17.621774 91.798612 36.014656 114.42575 4.576474 4.421675 9.538022 8.123332 14.905131 11.036427 41.181144 22.351807 71.318565 27.942531 90.96037 26.323297-3.232858-1.384202-6.337728-3.002038-9.366852-4.922986-19.449888-12.334336-31.836685-34.791681-34.931191-70.370688l-.286374-3.359023-.277752-3.392711-.269076-3.425631-.260343-3.457786-.251554-3.489173c-.041191-.584102-.082012-1.16948-.122465-1.756117l-.238268-3.534816-.22934-3.564286-.220357-3.592988-.211319-3.620924-.202224-3.648093-.193074-3.674495-.183868-3.70013-.174607-3.724998-.16529-3.7491c-.026768-.626815-.053147-1.254603-.079133-1.883347l-.15121-3.783813-.141753-3.805997-.132242-3.827414-.122674-3.848063-.11305-3.867946c-.036074-1.292544-.070534-2.588274-.103372-3.887063l-.093637-3.905411c-.014792-.652388-.029176-1.305509-.043151-1.959347l-.07893-3.931497c-.012334-.65664-.024257-1.313965-.035767-1.971958l-.064099-3.955857-.054142-3.971138-.044129-3.985652-.034061-3.9994-.023936-4.01238-.013757-4.024594c-.001441-.671741-.002456-1.343958-.003043-2.016637l.001618-4.041476.011937-4.051772.022312-4.061301c.004586-.677635.009607-1.355635.015063-2.033984l.037979-4.074157c.007204-.679682.014846-1.359681.022928-2.039981l.05377-4.085287.064367-4.091748c.023228-1.364908.048232-2.730764.075021-4.097443l.085729-4.10237c.015183-.684096.030816-1.368366.046898-2.052793l.101896-4.108323c.017885-.684993.036223-1.370111.055013-2.055339l.118189-4.112551.063191-2.057021c2.161311-68.871553 8.75038-135.380932 20.06263-194.590713 12.527044-65.56817 34.710042-145.902338 66.548607-241.044141l2.346883-6.988023c1.182057-3.507225 2.377039-7.034271 3.584944-10.581141l2.433042-7.12017c4.492168-13.102106 9.15809-26.470742 13.997765-40.106009l1.335074-3.755808c1.231196-3.458425.981252-7.121053-.45982-10.251353-1.887832-1.874947-4.1064-3.47196-6.617578-4.694862-6.791459-3.307329-13.317332-6.0843647-19.577618-8.3311061-3.862257 4.8956251-14.464992 8.4108641-26.939672 8.4108641-15.740115 0-28.5-5.596441-28.5-12.5 0-1.1143285.332451-2.1946008.956223-3.2227781zm308.889013 8.2742178-.872327.0287924c-2.312383.084226-4.6284.2131947-6.94811.3869078-9.795678.7335565-17.742781 8.2201161-19.059164 17.9549281l-.271506 2.006199-4.689071 34.347022-3.363964 25.571619-1.32471 9.898542-.719317 5.285958-1.097871 7.965178-1.122941 8.020671c-.126263.894769-.253041 1.790815-.380349 2.688223l-.770352 5.401447-.783887 5.438116-.798219 5.478787-.813349 5.523459c-.136864.924521-.274391 1.851071-.412598 2.779732l-.83754 5.59797-.854664 5.652648c-9.209728 60.595107-19.86536 120.577432-32.226567 178.208563-.240483 1.121193-.481791 2.243993-.723924 3.368397l-1.462696 6.765693-1.482496 6.804224-1.502293 6.842756-1.522093 6.881288-1.541891 6.919821c-.258632 1.156514-.518088 2.314634-.77837 3.47436l-1.571589 6.97762c-.263581 1.166148-.527987 2.333901-.793219 3.50326l-1.601286 7.035421c-.268531 1.175781-.537887 2.353168-.808068 3.532161l-1.630985 7.093222-1.650783 7.131758-1.670582 7.170292-1.690381 7.208829c-.28338 1.204683-.567585 2.410971-.852614 3.618865l-1.720079 7.266633c-.28833 1.214317-.577484 2.43024-.867464 3.647768l-1.749776 7.324439c-.293279 1.223951-.587384 2.449508-.882313 3.676671l-1.779474 7.382245-1.799274 7.420783-1.819071 7.459322-1.838871 7.497861-1.858669 7.5364-1.878468 7.57494c-.314728 1.265702-.630281 2.53301-.946658 3.801923l-1.908166 7.632751-1.927965 7.671292c-.322977 1.281761-.646779 2.565127-.971407 3.8501l-1.957662 7.729104c-.327927 1.291396-.656679 2.584398-.986256 3.879006l-1.987361 7.786917-2.007159 7.825461-2.026958 7.864004-2.046757 7.902547-2.066556 7.941092c-.346076 1.326727-.692977 2.65506-1.040702 3.985l-2.096254 7.998908-2.116053 8.037454-2.135851 8.075999-2.15565 8.114545-2.175449 8.153092c-.364225 1.36206-.729274 2.725727-1.095149 4.091l-2.205147 8.210913-2.224946 8.249459-2.244744 8.288008-2.264544 8.326556-2.284342 8.365105-2.304141 8.403654-2.32394 8.442204c-.388973 1.410247-.778771 2.822099-1.169394 4.235558l-2.353638 8.50003c-.393923 1.419884-.788671 2.841374-1.184244 4.264471l-2.383336 8.557856-2.403135 8.596407-2.422934 8.634959c-.416847 1.482834-.70975 2.9754-.884043 4.465651 2.533283 12.633297 10.795307 23.830774 23.055353 29.746926l.827795.398442 1.637759.782186 1.613985.762589.798076.373945 1.578322.733194 2.322906 1.063047 1.518885.684202 1.495111.664606 1.471335.645009.726752.315155 1.790877.766455 2.100016.879328 1.709151.699092 2.001945.798491 1.304912.507832 1.281137.488235 1.877127.695609 1.2217.439244.601934.212273 1.186038.409848 1.162262.390252 1.138488.370655 1.114713.351058 1.090938.331462.536554.158382c2.117513.618816 4.389918 1.193786 6.817214 1.724911l1.339341.285356 1.370063.276659c5.079889.998474 10.779343 1.821564 17.098363 2.469271l1.73873.172299 1.769453.163602 1.800174.154905 1.830897.146209c6.376567.489955 12.556358-.571699 18.138109-2.889725 5.150347-3.651107 8.986547-9.13481 10.476473-15.678338l3.671413-16.140761 4.77476-21.042847 3.503553-15.479838 4.568044-20.236708 4.449918-19.776038 3.259915-14.529703 4.243189-18.969827 3.104866-13.925027 3.038415-13.665871 3.947848-17.818016 2.883356-13.061145 2.8169-12.801966 3.652491-16.666111 2.661833-12.197191 2.595374-11.937991 2.528914-11.678785 1.649019-7.64185 3.209423-14.938076 2.329525-10.901128 2.263061-10.641895 1.471781-6.950577 2.152284-10.209828 2.085815-9.95058 2.019346-9.691324 1.952876-9.432062 1.264988-6.144004 1.235446-6.028772 1.205902-5.913538 1.753458-8.654239 1.686983-8.394952 1.620508-8.135658 1.55403-7.876358 1.487552-7.617052 1.294274-6.674108 2.590878-13.424128 1.945198-10.13452 1.946944-10.191454 2.598643-13.67717 1.95102-10.324301 2.604078-13.854297 1.955096-10.457145 1.956842-10.514079 1.305532-7.041015 2.613393-14.15794 1.962082-10.684876 1.309025-7.15488 3.275958-17.997901 2.624258-14.512183 1.313293-7.294046 1.971394-10.988512 1.973141-11.045443 1.974886-11.102374 1.317561-7.43321 2.637449-14.942328 1.980123-11.273164 2.642879-15.119443 2.645983-15.220651 2.649085-15.321858 2.652187-15.423066 1.327257-7.749485c1.364925-7.980094-1.521887-15.712272-7.024598-20.865068-.293319-.192969-.590161-.38166-.890146-.566141-.373084-.229434-1.385948-.600365-2.941645-1.075517l-.997782-.2973c-.176895-.051535-.359024-.104037-.546291-.15747l-1.184476-.331463-1.303122-.352004-1.417114-.370753c-.245427-.063255-.495409-.127217-.74985-.191849l-1.579377-.395523-1.681736-.4098-1.77944-.422288-1.872492-.432986c-.319577-.072956-.642838-.146284-.969686-.219946l-2.003343-.445678-2.08476-.451903-2.161525-.456338-2.233635-.458985c-.756046-.153237-1.523335-.306617-2.301092-.459841l-2.363895-.458909-2.422045-.456187c-14.494053-2.687668-31.797514-5.1384264-47.572307-5.6842393zm-40.972774 8.9091383-.105324.085085c-27.443908 22.488797-49.645469 90.610258-75.139014 182.028142l-1.92073 6.908362-1.93391 6.993841-1.947891 7.077218-2.768772 10.105276-2.800346 10.26063-10.082247 37.050839-2.970195 10.887052-3.982717 14.538178-1.951525 7.090974-1.971084 7.136159-1.991222 7.179828-2.011938 7.221986-2.033233 7.26263-2.055105 7.30176c-.344372 1.220137-.68968 2.441841-1.035936 3.665081l-2.088998 7.357618c-.350094 1.229257-.701159 2.459987-1.053208 3.692158l-2.124193 7.410071c-1.068095 3.71343-2.145259 7.439265-3.231819 11.176652-35.234581 121.194725-88.623563 231.503863-153.871003 295.768389l.198703 3.022904c.039194.58176.078753 1.162276.118676 1.74153l.243906 3.460271.252596 3.429245c.04282.568913.086 1.136501.129539 1.702748l.265528 3.381269c.089937 1.121642.1813 2.237794.274078 3.348327l.282574 3.314617c2.681823 30.834195 12.550762 48.726645 27.560169 58.245007 4.223158 2.678157 8.727636 4.615923 13.810239 6.129829l.71393.204322.856351.231728 1.659639.428778 2.393506.593938 1.286918.312075 4.733017 1.1167.817431.2186c.277442.077264.545992.154833.806274.233413 37.109818-20.25356 67.001011-60.218718 89.651962-106.170104l.854622-3.123616 2.279306-8.346572 2.259519-8.30798 2.239733-8.269389 2.219946-8.230797c.368342-1.368583.73586-2.735559 1.102553-4.100926l2.190267-8.172908 2.17048-8.134315 2.150693-8.095721 2.130907-8.057128 2.11112-8.018533 2.091333-7.979938 2.071547-7.941342c.343609-1.320341.686394-2.639074 1.028354-3.956198l2.041867-7.883449c.338662-1.310692.6765-2.619775 1.013513-3.927251l2.012187-7.825554 1.992401-7.786957 1.972613-7.74836c.32712-1.288176.653416-2.574745.978887-3.859705l1.942934-7.690463 1.923147-7.651864c.318876-1.272094.636927-2.54258.954154-3.811457l1.893467-7.593965 1.873681-7.555366 1.853894-7.516766 1.834107-7.478165c.304035-1.243144.607247-2.484679.909633-3.724607l1.804428-7.420263 1.78464-7.381662c.295791-1.22706.590758-2.452512.8849-3.676355l1.754961-7.323759 1.735174-7.285155 1.715387-7.246553 1.6956-7.207949c.280951-1.198108.561078-2.394608.84038-3.589498l1.66592-7.150043c.276005-1.188457.551185-2.375305.825541-3.560545l1.63624-7.092136 1.616453-7.05353 1.596667-7.014925c.264462-1.165937.5281-2.330266.790913-3.492985l1.566987-6.957016c.259515-1.156285.518206-2.310962.776073-3.46403l1.537306-6.899105 1.51752-6.860497c.251271-1.140199.501718-2.278789.75134-3.415771l1.487839-6.802585 1.468053-6.763977 1.448266-6.725368c12.286844-57.284427 22.887817-116.959068 32.052417-177.257264l.427647-2.821033.842315-5.600295.825672-5.547922.809825-5.499535.794771-5.455134.780512-5.414719.767047-5.378291.754377-5.345848.742501-5.317392.731419-5.292922.721132-5.272438.711638-5.255941.610503-4.564659 3.4716-26.372646 5.212068-38.256975c.342599-2.533563.939069-4.981058 1.762477-7.317113zm-386.2104 288.620734-1.110691 3.522247-1.645579 5.173772c-6.266454 19.616855-12.032557 36.665023-16.541249 48.199066-7.140511 18.266707-14.485561 35.693646-21.984479 52.378769l-1.877906 4.155882c-9.091755 20.012619-18.402003 38.954052-27.841349 56.997113-23.583838 45.079888-58.75044 94.718947-105.4998052 148.917177l-3.16919 3.66072c-4.7801062 5.501441-9.6786575 11.049504-14.6956539 16.644189l-4.2961599 4.770234.0777142 88.244252 2.8799558-1.890476 2.2122816-1.469912 1.7015867-1.144407 1.7180633-1.16627 1.7346921-1.188454 1.7514732-1.210954 1.7684064-1.233774 1.7854919-1.256912 1.8027295-1.280369 1.8201193-1.304143 1.8376615-1.328236 1.8553556-1.352648c.310709-.227493.6221615-.456017.9343608-.685578l1.8821824-1.389862 1.9002573-1.415071 1.9184841-1.440596 1.9368634-1.46644 1.9553947-1.492604 1.9740783-1.519085 1.9929141-1.545885c.3337304-.259898.6682521-.520926 1.003568-.783091l2.0214531-1.586682c.338506-.266737.6778127-.534625 1.0179232-.803669l2.0503346-1.628194 2.0697793-1.656268 2.089376-1.68466 2.109125-1.713369c.3531751-.287972.7071793-.577154 1.062016-.867551l2.1390339-1.757032 2.1591634-1.786539 2.1794451-1.816363 2.199879-1.846506 2.2204651-1.876968c.743603-.630768 1.4906623-1.266666 2.2412035-1.907747l2.2620936-1.938846 2.283137-1.970263 2.304332-2.001998 2.325678-2.034052 2.347178-2.066423 2.36883-2.099114c.396618-.352594.794144-.706564 1.192582-1.061915l2.401592-2.148747c.402097-.360906.805112-.723207 1.209049-1.086911l2.434697-2.199095c.407634-.369338.816195-.74009 1.225687-1.112265l2.468145-2.250161 2.490634-2.284603 2.513274-2.319363 2.536068-2.354441c.424585-.395348.850127-.792171 1.276628-1.190475l2.570543-2.407656c.430351-.404257.861667-.810008 1.293952-1.217261l2.60536-2.461588 2.628762-2.49794 2.652315-2.53461 2.676023-2.571599c4.385872-4.226414 8.823535-8.796667 13.312986-13.710757l1.685971-1.858902c5.909397-6.562565 11.908005-13.717445 17.995817-21.464634l1.741802-2.2296.872721-1.126888 1.669475-2.173709c5.850903-7.659381 11.783083-15.858448 17.796534-24.597198l7.56291-11.446077c-.83622-41.656059 1.299619-88.042587 6.097364-137.325133l.502929-5.079923c.939207-9.331649 1.972718-18.764069 3.098452-28.284956 3.337784-28.229296 8.089778-58.582041 14.25571-91.060003zm693.337938-240.108567-.976003.775896-.783131.644209-.319239.272721-2.031543 1.801309c-59.790747 53.219116-136.51547 136.355811-201.654676 219.494516l-.62814 3.351306-1.953953 10.355704-1.952222 10.298803-1.300521 6.834257-1.949339 10.203969-1.298598 6.771036-1.946455 10.109136-1.296676 6.707814-1.785569 9.198889-1.001465 5.119049-1.03099 5.234144-1.601842 8.067022-1.668272 8.325997-1.149089 5.694543-1.778992 8.757635-1.222903 5.982308-1.889716 9.189292-1.956152 9.448294-1.341011 6.442756-2.06688 9.87998-2.133319 10.138999-1.459124 6.903236-2.244053 10.570713-1.532947 7.191051-2.35479 11.002445-2.421233 11.261493-1.65107 7.651581-3.390733 15.648574-2.620572 12.038676-2.687019 12.297749-2.75347 12.556829-2.81992 12.815916-3.863263 17.490923-2.974976 13.420477-4.070009 18.297028-3.130038 14.025073-4.276763 19.103179-3.285107 14.629705-4.483526 19.909378-4.601679 20.370085-4.122358 18.198457c1.033097-2.272204 1.944198-4.462866 2.733301-6.571987l2.215944-5.914629c72.981347-194.526477 131.626771-324.082189 175.936272-388.667137l.090608-.130767 3.590072-5.015551 29.077949-40.214424 30.978915-42.719539.560517-.766146 50.161105-62.837532 1.60673-2.052927 1.180339-1.529409zm-646.5 588.027255c14.635546 0 26.5 9.849736 26.5 22s-11.864454 22-26.5 22-26.5-9.849736-26.5-22 11.864454-22 26.5-22zm286.841085-7.682038c14.206027 2.506125 23.90541 14.846777 21.664179 27.563618-2.241232 12.716841-15.574369 20.994262-29.780396 18.488137s-23.905411-14.846777-21.664179-27.563618 15.574369-20.994262 29.780396-18.488137zm-294.841085-81.317962c14.635546 0 26.5 10.521308 26.5 23.5s-11.864454 23.5-26.5 23.5-26.5-10.521308-26.5-23.5 11.864454-23.5 26.5-23.5zm316.836113-9.455677c14.206027 2.506125 23.90541 14.846777 21.664178 27.563618-2.241231 12.716841-15.574369 20.994262-29.780396 18.488137s-23.90541-14.846777-21.664179-27.563618c2.241232-12.716841 15.57437-20.994262 29.780397-18.488137zm-318.836113-78.544323c14.635546 0 26.5 10.521308 26.5 23.5s-11.864454 23.5-26.5 23.5-26.5-10.521308-26.5-23.5 11.864454-23.5 26.5-23.5zm341.631869-12.9905c14.109953 3.000623 23.372954 15.672426 20.689493 28.303264-2.683462 12.630838-16.297215 20.437671-30.407168 17.437048-14.109953-3.000622-23.372955-15.672425-20.689493-28.303264 2.683462-12.630838 16.297214-20.43767 30.407168-17.437048zm-336.631869-71.0095c14.635546 0 26.5 10.521308 26.5 23.5s-11.864454 23.5-26.5 23.5-26.5-10.521308-26.5-23.5 11.864454-23.5 26.5-23.5zm352-19c14.635546 0 26.5 10.521308 26.5 23.5s-11.864454 23.5-26.5 23.5-26.5-10.521308-26.5-23.5 11.864454-23.5 26.5-23.5zm-339-69c14.635546 0 26.5 10.521308 26.5 23.5s-11.864454 23.5-26.5 23.5-26.5-10.521308-26.5-23.5 11.864454-23.5 26.5-23.5zm358-14c14.635546 0 26.5 10.521308 26.5 23.5s-11.864454 23.5-26.5 23.5-26.5-10.521308-26.5-23.5 11.864454-23.5 26.5-23.5zm-337-74c14.635546 0 26.5 10.521308 26.5 23.5s-11.864454 23.5-26.5 23.5-26.5-10.521308-26.5-23.5 11.864454-23.5 26.5-23.5zm353-8c14.635546 0 26.5 10.521308 26.5 23.5s-11.864454 23.5-26.5 23.5-26.5-10.521308-26.5-23.5 11.864454-23.5 26.5-23.5zm-330-76c14.635546 0 26.5 10.521308 26.5 23.5s-11.864454 23.5-26.5 23.5-26.5-10.521308-26.5-23.5 11.864454-23.5 26.5-23.5zm344-6c14.635546 0 26.5 10.521308 26.5 23.5s-11.864454 23.5-26.5 23.5-26.5-10.521308-26.5-23.5 11.864454-23.5 26.5-23.5zm-323-73c14.635546 0 26.5 10.521308 26.5 23.5s-11.864454 23.5-26.5 23.5-26.5-10.521308-26.5-23.5 11.864454-23.5 26.5-23.5zm335-8c14.635546 0 26.5 10.521308 26.5 23.5s-11.864454 23.5-26.5 23.5-26.5-10.521308-26.5-23.5 11.864454-23.5 26.5-23.5z"/></svg>