<svg height="960" viewBox="0 0 960 960" width="960" xmlns="http://www.w3.org/2000/svg"><path d="m88.4598627 9.0026231 805.3940233 14.7442453c21.802469.3989538 39.26818 18.1871858 39.26818 39.9933049v790.5149557c0 21.017067-16.265105 38.449601-37.231781 39.904097l-803.6046921 55.747494c-10.6365531.737877-21.1275151-2.801308-29.1434027-9.83169l-23.2800546-20.417911c-8.6595517-7.594911-13.6248159-18.554138-13.6248159-30.072407v-838.8688798c0-20.8587286 16.0285788-38.2159329 36.8213426-39.8735017l21.4907232-1.7132091c1.300758-.10369453 2.605811-.14367675 3.9104772-.1264983zm9.267457 40.182 1.788 860.1239999 793.6067463-55.053494v-790.5149557zm-19.999.614-11.491.9172091v838.8688798l13.261 11.630911zm154.2600433 121.2540539 569.051659 3.120986c11.002721.060339 19.890322 8.996812 19.890322 19.999699v542.067114c0 10.639343-8.329578 19.416407-18.954369 19.972648l-539.891266 28.265019c-3.621082.189575-7.225578-.608856-10.427875-2.309876l-29.160393-15.489637c-6.533674-3.470606-10.617756-10.264529-10.617756-17.662772v-557.963181c0-11.088545 9.021293-20.060501 20.109678-20zm37.238957 20.203946 1.809 572.724 529.894024-27.740147v-542.067114zm-37.348635-.203939v557.963174l19.142635 10.167765-1.794-568.036zm324.556355 497.538895c.143154 2.757711-1.976363 5.109326-4.734074 5.25248l-37.149164 1.92843c-2.757711.143154-5.109326-1.976363-5.25248-4.734074-.143154-2.75771 1.976363-5.109326 4.734073-5.25248l37.149165-1.928429c2.75771-.143154 5.109326 1.976363 5.25248 4.734073zm130.216716-49.464454c2.761424 0 5 2.238577 5 5l-.000436 11.815498 13.059693-.644646c2.758054-.136396 5.104468 1.988877 5.240864 4.74693.136396 2.758054-1.988877 5.104468-4.74693 5.240864l-13.553627.669852.000436 16.039761c0 2.761424-2.238576 5-5 5s-5-2.238576-5-5l-.000436-15.545761-13.595537.673314c-2.758053.136396-5.104468-1.988877-5.240864-4.74693-.136396-2.758054 1.988877-5.104468 4.74693-5.240864l14.089471-.69752.000436-12.310498c0-2.761423 2.238576-5 5-5zm-281.468908 35.989753c.136397 2.758053-1.988876 5.104467-4.74693 5.240863l-37.149164 1.837166c-2.758053.136396-5.104468-1.988877-5.240864-4.74693s1.988877-5.104468 4.746931-5.240864l37.149164-1.837166c2.758053-.136396 5.104467 1.988877 5.240863 4.746931zm151.252802-7.134482c.136507 2.758047-1.988671 5.104548-4.746719 5.241055l-37.149164 1.838671c-2.758047.136507-5.104548-1.988671-5.241055-4.746719-.136508-2.758047 1.98867-5.104548 4.746718-5.241055l37.149164-1.838671c2.758048-.136507 5.104548 1.988671 5.241056 4.746719zm.000581-20.60918c.129859 2.758369-2.00097 5.09974-4.759338 5.229599l-37.149164 1.74891c-2.758369.129859-5.09974-2.000969-5.229599-4.759338-.129858-2.758369 2.00097-5.09974 4.759339-5.229598l37.149164-1.748911c2.758369-.129859 5.099739 2.00097 5.229598 4.759338z"/></svg>