<svg height="960" viewBox="0 0 960 960" width="960" xmlns="http://www.w3.org/2000/svg"><g fill="#000" fill-rule="evenodd"><path d="m793.559466 551.660593.3271-1.436996c1.741197-7.755199 3.195655-15.572191 4.359464-23.434214 1.61746-10.926629 11.786452-18.473201 22.71308-16.855741 10.926628 1.617459 18.4732 11.786452 16.855741 22.71308-1.546034 10.444115-3.548174 20.816494-5.999122 31.086252-.308845 1.294096-.737006 2.528522-1.270033 3.694398l.040041.023784c43.088647 25.840777 71.926857 73.00485 71.926857 126.904447 0 80.849397-64.885972 146.543863-145.424185 147.849668l-2.445292.01981c-40.813344 0-77.764755-16.534902-104.520803-43.271275-.685765.477819-1.410015.917986-2.170539 1.316097-4.970882 2.602108-10.011884 5.095238-15.120653 7.477496-176.646093 82.371426-385.817781 9.774975-474.24823-162.00479l-26.059879 75.857244c-3.589539 10.446176-14.967735 16.004577-25.41391 12.415037-10.4461758-3.589539-16.0045772-14.967735-12.4150374-25.41391l42.3455104-123.232684c3.504354-10.198271 14.462862-15.782134 24.773346-12.623158l128.201629 39.279034c10.561117 3.235766 16.499488 14.42035 13.263722 24.981467s-14.42035 16.499488-24.981467 13.263722l-85.915059-26.315692c77.607262 155.257887 265.257918 221.351731 423.544645 147.541418 3.283403-1.531076 6.534735-3.113199 9.753274-4.745743-12.039775-21.396776-18.906026-46.093409-18.906026-72.393741 0-81.666057 66.20342-147.869477 147.869477-147.869477 13.468562 0 26.516549 1.800693 38.916349 5.174467zm-38.916349-4.174467c-81.113773 0-146.869477 65.755705-146.869477 146.869477 0 26.136295 6.827037 50.67805 18.795108 71.939262.949264-.483362 1.89216-.971091 2.83219-1.463168 9.78599-5.122672 21.871849-1.342306 26.994521 8.443684 4.563209 8.717231 2.061848 19.259409-5.456075 25.079036l1.458135 1.436061c26.441573 25.646658 62.499849 41.434603 102.245598 41.434603 81.113772 0 146.869477-65.755705 146.869477-146.869478 0-53.521675-28.628832-100.356729-71.408268-126.02693-4.13116 7.951571-13.274036 12.389608-22.385006 10.215212-10.74396-2.564119-17.37503-13.352449-14.810911-24.096408l.427264-1.811155c-11.581011-3.154479-23.731621-4.927329-36.263801-5.13052zm47.03749-232.715887 26.244056-76.390076c3.58954-10.446176 14.967736-16.004577 25.413911-12.415037 10.446176 3.58954 16.004577 14.967735 12.415037 25.41391l-42.34551 123.232684c-2.713078 7.895522-9.894091 13.025219-17.783242 13.473303-4.665382.653664-9.312215-.384418-13.183341-2.747117l-122.008392-37.382062c-10.561117-3.235766-16.499488-14.42035-13.263722-24.981467s14.42035-16.499487 24.981467-13.263721l85.374547 26.1501c-77.663985-155.124968-265.228162-221.136742-423.45181-147.355843-98.128464 45.758054-165.183622 136.479246-181.820621 241.449628-1.729076 10.909522-11.974684 18.351744-22.884206 16.622669-10.909522-1.729076-18.351745-11.974683-16.622669-22.884206 18.696873-117.967064 94.115279-220.003177 204.422766-271.440403 176.821785-82.4533522 386.233895-9.630413 474.511729 162.517638z" fill-rule="nonzero"/><path d="m754.5 547c81.462001 0 147.5 66.037999 147.5 147.5s-66.037999 147.5-147.5 147.5-147.5-66.037999-147.5-147.5 66.037999-147.5 147.5-147.5zm85.5 123.031h-173v82.969c0 14.911688 12.088312 27 27 27h119c14.911688 0 27-12.088312 27-27zm-144.469492 71.077527c6.869033 0 12.437484 5.704031 12.437484 12.74031s-5.568451 12.74031-12.437484 12.74031-12.437485-5.704031-12.437485-12.74031 5.568452-12.74031 12.437485-12.74031zm37.853213 0c6.869033 0 12.437484 5.704031 12.437484 12.74031s-5.568451 12.74031-12.437484 12.74031-12.437484-5.704031-12.437484-12.74031 5.568451-12.74031 12.437484-12.74031zm37.853213 0c6.869033 0 12.437485 5.704031 12.437485 12.74031s-5.568452 12.74031-12.437485 12.74031-12.437484-5.704031-12.437484-12.74031 5.568451-12.74031 12.437484-12.74031zm-75.613145-29.503876c6.92055 0 12.530765 5.704031 12.530765 12.74031s-5.610215 12.74031-12.530765 12.74031c-6.920551 0-12.530766-5.704031-12.530766-12.74031s5.610215-12.74031 12.530766-12.74031zm38.137112 0c6.920551 0 12.530766 5.704031 12.530766 12.74031s-5.610215 12.74031-12.530766 12.74031-12.530765-5.704031-12.530765-12.74031 5.610214-12.74031 12.530765-12.74031zm38.137113 0c6.92055 0 12.530765 5.704031 12.530765 12.74031s-5.610215 12.74031-12.530765 12.74031c-6.920551 0-12.530766-5.704031-12.530766-12.74031s5.610215-12.74031 12.530766-12.74031zm38.137112 0c6.920551 0 12.530765 5.704031 12.530765 12.74031s-5.610214 12.74031-12.530765 12.74031-12.530766-5.704031-12.530766-12.74031 5.610215-12.74031 12.530766-12.74031zm-75.613146-30.844961c6.869033 0 12.437485 5.704031 12.437485 12.74031s-5.568452 12.74031-12.437485 12.74031c-6.869032 0-12.437484-5.704031-12.437484-12.74031s5.568452-12.74031 12.437484-12.74031zm37.853214 0c6.869033 0 12.437484 5.704031 12.437484 12.74031s-5.568451 12.74031-12.437484 12.74031-12.437485-5.704031-12.437485-12.74031 5.568452-12.74031 12.437485-12.74031zm37.853213 0c6.869033 0 12.437484 5.704031 12.437484 12.74031s-5.568451 12.74031-12.437484 12.74031-12.437484-5.704031-12.437484-12.74031 5.568451-12.74031 12.437484-12.74031zm-99.401992-73.75969h-1.496855c-4.694421 0-8.5 3.80558-8.5 8.5l-.00056 4.556-6.729.000604c-14.911688 0-27 12.088312-27 27v10.904396h173v-10.904396c0-14.911688-12.088312-27-27-27l-6.73-.000604.00044-4.556c0-4.69442-3.805579-8.5-8.5-8.5h-1.496855c-4.69442 0-8.5 3.80558-8.5 8.5l-.000585 4.556h-68.547l.000415-4.556c0-4.69442-3.80558-8.5-8.5-8.5z"/></g></svg>