<?xml version="1.0" encoding="UTF-8"?>
<svg width="600px" height="600px" viewBox="0 0 600 600" version="1.1" xmlns="http://www.w3.org/2000/svg" xmlns:xlink="http://www.w3.org/1999/xlink">
    <title>icon</title>
    <g id="icon" stroke="none" fill="none" fill-rule="evenodd">
        <path d="M430.81761,196.682171 C532.075472,229.400517 600,289.174419 600,357.127907 C600,460.316537 443.396226,544 250.314465,544 C152.201258,544 63.5220126,521.978036 0,487.372093 C52.8301887,504.360465 114.465409,514.427649 180.503145,514.427649 C373.584906,514.427649 530.188679,430.744186 530.188679,327.555556 C530.188679,276.590439 492.45283,230.658915 430.81761,196.682171 Z M347.798742,57 C416.981132,57 480.503145,70.8423773 531.446541,93.4935401 C495.597484,85.3139535 456.603774,80.9095607 415.72327,80.9095607 C248.427673,80.9095607 113.207547,155.155039 113.207547,247.647287 C113.207547,325.667959 209.433962,390.475452 339.622642,409.351421 C176.100629,406.205426 45.2830189,328.813953 45.2830189,233.175711 C45.2830189,135.649871 180.503145,57 347.798742,57 Z" id="Shape" fill="#000000"></path>
    </g>
</svg>