<svg id="Layer_1" data-name="Ambiclimate1" xmlns="http://www.w3.org/2000/svg" viewBox="0 0 1417.32 1099.59"><title>Ambiclimate</title><path d="M737.08,809.57h0c-22.3-12.15-48-9.32-65.41,7.23S650,858.53,660.85,881.1a48,48,0,0,0,22.54,22.5,58.62,58.62,0,0,0,25.32,5.92,53.22,53.22,0,0,0,24.49-5.94h26.27a2.91,2.91,0,0,0,2.91-2.91V852.44A48.72,48.72,0,0,0,737.08,809.57Zm-1.61,65.55a1.55,1.55,0,0,1-1.55,1.55h-3.78a15.08,15.08,0,0,0-7.75,2.15c-8.15,4.88-17.88,5.06-27.39.51a21,21,0,0,1-9.88-9.85c-6.88-14.36-1.89-26.55,5.07-33.15A27,27,0,0,1,708.73,829a32.16,32.16,0,0,1,15.47,4.21,21.83,21.83,0,0,1,11.27,19.24Z"/><path d="M1404.2,963.56c15.74-19.81,13.61-44.24,12.07-62-.42-4.94-42.6-500.71-63.42-697.59-4.73-44.71-19.33-83-43.4-113.88-20.19-25.88-47.09-46.59-80-61.56C1187.85,9.61,1137.69,0,1080.4,0H336.93C279.64,0,229.48,9.61,187.85,28.57c-32.87,15-59.78,35.68-80,61.56C83.8,121,69.19,159.3,64.46,204c-20.8,196.88-63,692.64-63.41,697.63-1.54,17.69-3.67,42.11,12.07,61.92-5,4.94-9.14,10.93-10.82,18l-.52,2.17v2.23c0,2.33,0,4.13.13,5.84,2.74,67,57.75,86.57,145.61,96.49,100.39,11.33,273.82,11.33,561.13,11.33s460.77,0,561.16-11.33c87.84-9.92,142.85-29.52,145.59-96.5.09-1.71.13-3.52.13-5.82V983.7l-.52-2.17C1413.34,974.48,1409.2,968.5,1404.2,963.56ZM26.32,903.79c.42-5,42.58-500.49,63.35-697.11C106.37,48.91,251.75,25.36,336.93,25.36H1080.4c85.17,0,230.55,23.56,247.23,181.33,20.8,196.62,63,692.13,63.38,697.12,2,23,3.73,42.79-21.84,55.58-7.05,3.53-16.06,6.42-26.79,8.65-.11-.32-.19-.64-.31-1l-5.41,2.07-1.56.28c-7.73,1.31-16.26,2.3-26.07,3.06-97.3,7.37-304.9,11.26-600.36,11.26s-503.07-3.9-600.36-11.26c-9.91-.76-18.44-1.77-26.11-3.08l-1.65-.3-5.32-2c-.12.32-.2.63-.31,1-10.7-2.21-19.7-5.1-26.77-8.63C22.59,946.59,24.32,926.76,26.32,903.79Zm1291.54,80.64c-30.53,11.38-105.42,14.37-133,15.47-91.42,3.65-224.69,3.6-409.14,3.56H641.61c-184.45,0-317.73.08-409.15-3.56-27.59-1.1-102.48-4.09-133-15.47,2.54.25,5.17.48,7.89.69,97.61,7.39,305.54,11.3,601.32,11.3s503.71-3.91,601.33-11.3C1312.71,984.9,1315.32,984.67,1317.86,984.43ZM20.81,986v0L27,987.4c1.21-5.08,10.86-11.65,18.34-15.34,8.28,3.77,18.16,6.73,30,9a18.35,18.35,0,0,0,1.69,3.1c21.15,30.69,152.5,32.08,564.63,32H810c385.11,0,509.79-2.19,530.33-32A18.34,18.34,0,0,0,1342,981c11.85-2.26,21.73-5.22,30-9,7.48,3.7,17.13,10.27,18.34,15.35a3.23,3.23,0,0,1,0,1.71c-.41,1.42-3.09,6.47-20.26,12-54.27,17.46-173.78,19.24-661.4,19.24s-607.14-1.77-661.4-19.24c-17.18-5.55-19.86-10.58-20.28-12a3.07,3.07,0,0,1,0-1.66L20.81,986Zm687.86,94.62c-550.47,0-673.22,0-686.54-77.76,4.82,3.91,11.88,7.34,21.26,10.37,59,19,196.75,19.85,665.29,19.85s606.24-.85,665.29-19.85c9.38-3,16.43-6.46,21.25-10.37C1381.87,1080.57,1259.15,1080.57,708.66,1080.57Z"/><path d="M282.84,280.81h851.65s166.95,3,170.09-78.18S1261.2,88.28,1261.2,88.28c-9.42-8.79-29.64-19.08-29.64-19.08-56.94-30.11-122.49-32.79-153.27-32.79H339c-30.79,0-96.33,2.68-153.27,32.79,0,0-20.22,10.29-29.67,19.08,0,0-46.49,33.19-43.36,114.35S282.84,280.81,282.84,280.81Z"/></svg>
