<svg id="Layer_1" data-name="Ambiclimate" xmlns="http://www.w3.org/2000/svg" viewBox="0 0 1417.32 1417.32"><title>Ambiclimate</title><path d="M1001.49,244.14h0c-226.2-123.31-486.66-94.52-663.56,73.36C161.59,484.83,118.5,740.89,228.16,969.82a487.43,487.43,0,0,0,228.65,228.27c83.8,40.08,171.11,60,256.88,60a539.93,539.93,0,0,0,248.48-60.25h266.53a29.49,29.49,0,0,0,29.49-29.49V679.06C1258.18,497.11,1159.82,330.46,1001.49,244.14Zm-16.31,665a15.69,15.69,0,0,1-15.69,15.69H931.14a153,153,0,0,0-78.65,21.77C769.8,996.12,671.11,998,574.6,951.81a213.54,213.54,0,0,1-100.23-99.93c-69.81-145.73-19.18-269.31,51.48-336.35a273.75,273.75,0,0,1,188.07-74.41c48.25,0,101.28,12.4,156.91,42.73,70.54,38.45,114.36,113.26,114.36,195.22Z"/></svg>
