<svg height="960" viewBox="0 0 960 960" width="960" xmlns="http://www.w3.org/2000/svg"><path d="m583.666667 78c13.276492 0 24.039215 10.7585306 24.039215 24.029851v276.343283c0 13.27132 10.762724 24.029851 24.039216 24.029851h132.215686c13.276493 0 24.039216 10.758531 24.039216 24.029851v432.537313c0 13.27132-10.762723 24.029851-24.039216 24.029851h-102.166666v-156.19403c0-35.605981-28.171317-64.634761-63.44902-66.029618l-2.658823-.052471h-228.37255c-36.510353 0-66.107843 29.585959-66.107843 66.082089v156.19403h-102.166666c-13.276493 0-24.039216-10.758531-24.039216-24.029851v-756.940298c0-13.2713204 10.762723-24.029851 24.039216-24.029851zm-120.196079 618.768657v186.231343h-126.205882v-156.19403c0-15.925584 12.398657-28.956435 28.073288-29.973422l1.975731-.063891zm132.215687 0c16.595615 0 30.049019 13.448163 30.049019 30.037313v156.19403h-126.205882v-186.231343zm-300.490197-186.231344c-26.552984 0-48.078431 21.517062-48.078431 48.059702s21.525447 48.059701 48.078431 48.059701c26.552985 0 48.078432-21.517061 48.078432-48.059701s-21.525447-48.059702-48.078432-48.059702zm180.294118 0c-26.552984 0-48.078431 21.517062-48.078431 48.059702s21.525447 48.059701 48.078431 48.059701c26.552985 0 48.078431-21.517061 48.078431-48.059701s-21.525446-48.059702-48.078431-48.059702zm180.294118 0c-26.552985 0-48.078432 21.517062-48.078432 48.059702s21.525447 48.059701 48.078432 48.059701c26.552984 0 48.078431-21.517061 48.078431-48.059701s-21.525447-48.059702-48.078431-48.059702zm-360.588236-168.208955c-26.552984 0-48.078431 21.517061-48.078431 48.059702 0 26.54264 21.525447 48.059701 48.078431 48.059701 26.552985 0 48.078432-21.517061 48.078432-48.059701 0-26.542641-21.525447-48.059702-48.078432-48.059702zm180.294118 0c-26.552984 0-48.078431 21.517061-48.078431 48.059702 0 26.54264 21.525447 48.059701 48.078431 48.059701 26.552985 0 48.078431-21.517061 48.078431-48.059701 0-26.542641-21.525446-48.059702-48.078431-48.059702zm-180.294118-168.208955c-26.552984 0-48.078431 21.517061-48.078431 48.059701 0 26.542641 21.525447 48.059702 48.078431 48.059702 26.552985 0 48.078432-21.517061 48.078432-48.059702 0-26.54264-21.525447-48.059701-48.078432-48.059701zm180.294118 0c-26.552984 0-48.078431 21.517061-48.078431 48.059701 0 26.542641 21.525447 48.059702 48.078431 48.059702 26.552985 0 48.078431-21.517061 48.078431-48.059702 0-26.54264-21.525446-48.059701-48.078431-48.059701z" fill-rule="evenodd"/></svg>