<svg height="960" viewBox="0 0 960 960" width="960" xmlns="http://www.w3.org/2000/svg"><path d="m100.462059 519.309943 3.704549.69108c.614214.115397 1.226822.230902 1.837827.346516l3.646771.694993 3.608279.69762c.598173.116489 1.194743.233089 1.789711.3498l3.55058.701589 3.512141.704255c.582155.117599 1.162709.235309 1.741663.353132l3.454521.708281 3.416135.710985 3.37777.713703c.559766.119178 1.117934.23847 1.674505.357876l3.320261.71781c.550184.119864 1.098771.239843 1.645763.359937l3.262801.72195c.540609.120556 1.079624.241228 1.617043.362016l3.205388.726125c.531043.121254 1.060493.242624 1.588349.364112l3.148023.730333c.521485.121958 1.041377.244032 1.559678.366225l3.090704.734577 3.052519.737424 3.014354.740286c.998427.247241 1.990496.494962 2.976212.743165l2.938089.746058c.973012.24917 1.939673.498824 2.899988.748966l2.861909.75189c.473812.125559.946039.251241 1.416681.377046l2.804828.756303 2.766802.759265c1.831864.507167 3.63839 1.016319 5.419607 1.527475l2.652848.768241 2.614906.771263 2.576985.7743c16.627202 5.042857 30.852495 10.279173 42.702018 15.727717 16.495185 7.584671 28.882782 15.775904 37.222621 25.090693 10.194147 11.385871 14.474831 24.789518 11.417521 38.714615-2.597757 11.831981-10.177366 24.292805-20.906875 36.631816-8.720955 10.02916-19.09338 19.316804-27.845761 24.932276l-1.083595.682807-1.739257 1.069681-2.858795 1.72995-2.461982 1.475933-4.510048 2.687124-7.665463 4.550099c-3.809025 8.193013-9.607386 16.56021-16.835099 24.87213-4.317614 4.965287-9.040019 9.748822-13.770217 13.994969.952506 1.133227 2.16459 2.362894 3.645916 3.659296 2.368607 2.072917 5.240624 4.159284 8.590871 6.228635l1.07384.652878c3.995488 2.391552 8.628595 4.755991 13.860232 7.046024l1.44162.622674c2.912802 1.241517 6.002622 2.459617 9.263117 3.646625 36.599153 13.324206 89.634683 21.193107 154.286394 21.349153l1.962693.002365c10.497829 0 19.008 8.510171 19.008 19.008s-8.510171 19.008-19.008 19.008c-69.67904 0-127.72095-8.524708-169.254086-23.645168-19.575585-7.126644-35.223588-15.651977-46.261034-25.311542-3.928005-3.437645-7.320273-7.064341-10.109352-10.852401l-9.410157 5.586079-4.046565 2.426866-1.821584 1.114753-.569683.358598-.971509.625727-.941706.616341-.912318.607538c-.149627.100556-.298047.200768-.445269.30065l-.869015.595424c-.142462.098609-.283742.196911-.42385.29492l-.826646.584619-.798919.578143-.771607.572249-.74471.566937-.718227.562206-.692161.558058c-.566055.463482-1.10539.923248-1.619085 1.380815l-.604196.548121c-.296014.273629-.582953.546685-.861051.819494l-.544477.545387c-.355219.363501-.694997.726952-1.019887 1.091129l-.47624.546906c-3.023881 3.55969-4.658852 7.225236-5.417907 11.715725l-.109936.69745c-.017194.117358-.03383.235284-.049915.353788l-.089983.718066c-.069602.604337-.125888 1.223749-.169938 1.859751l-.021987.330371.019831.05331c.072623.297304.238114.718903.533257 1.26578.954694 1.768978 2.780294 3.953361 5.541145 6.369556 2.368607 2.072917 5.240624 4.159284 8.590871 6.228635l1.07384.652878c3.995488 2.391552 8.628595 4.755991 13.860232 7.046024l1.44162.622674c2.912802 1.241517 6.002622 2.459617 9.263117 3.646625 36.599153 13.324206 89.634683 21.193107 154.286394 21.349153l1.962693.002365c10.497829 0 19.008 8.510171 19.008 19.008s-8.510171 19.008-19.008 19.008c-69.67904 0-127.72095-8.524708-169.254086-23.645168-19.575585-7.126644-35.223588-15.651977-46.261034-25.311542-12.7661039-11.172423-19.873404-24.341719-19.006349-38.557452.8296946-13.603193 4.9569798-25.11782 12.4338298-35.025747 5.3340272-7.068371 11.9375942-12.920785 20.8560432-18.99154l1.390474-.935879 1.427846-.940484c.482271-.314391.970912-.629744 1.466064-.946251l.909125-.571458 1.482538-.910521 3.043442-1.837398 2.708787-1.619638 17.968967-10.676705 3.095149-1.856006c1.997713-8.424 5.542708-15.944133 10.651565-22.71412 5.334027-7.068371 11.937594-12.920785 20.856043-18.99154l1.390474-.935879 1.427846-.940484.47623-.306844c-.134818-.175573-.280947-.358895-.439097-.550712l-.383834-.454841-.427836-.486591c-2.599138-2.902984-6.619769-6.035333-12.048971-9.285374l-1.002646-.592189c-.169693-.098906-.34068-.197914-.512958-.297021l-1.049178-.595799-1.080178-.598021c-.730448-.399388-1.481551-.800156-2.253285-1.202107l-1.173074-.603789-1.204003-.605413c-1.422708-.707204-2.90853-1.41742-4.457344-2.129582-5.389096-2.477966-11.432816-4.933916-18.127635-7.365318l-2.027976-.728681-2.06702-.727194c-.347756-.121074-.697138-.242085-1.048145-.363034l-2.125548-.724933c-.715015-.24139-1.43653-.482527-2.164539-.723406l-2.203511-.721866-2.242459-.720309c-3.392892-1.079289-6.917167-2.153274-10.572505-3.221724l-2.456304-.711478c-.412619-.118442-.826856-.236815-1.242709-.355119l-2.514515-.708989c-.422318-.118026-.846252-.235981-1.271801-.353866l-2.572678-.706467c-.864018-.235206-1.734495-.470129-2.611426-.704766l-2.650154-.70305c-.4449183-.117031-.8914495-.233991-1.339593-.350877l-2.7082055-.700448c-.9091821-.233191-1.82481-.46609-2.7468801-.698694l-2.7855336-.696925c-.4674756-.116006-.9365608-.231938-1.4072553-.347795l-2.8434741-.694243-2.8820748-.692436c-.4835613-.115254-.9687302-.230433-1.455506-.345535l-2.939936-.689698c-.4932023-.114796-.9880106-.229515-1.4844247-.344157l-2.9977497-.686924-3.0362657-.685057-3.0747605-.683173c-.5156668-.113704-1.0329367-.22733-1.5518092-.340876l-3.1324631-.68032-3.1709051-.6784c-1.063373-.225812-2.1331495-.4513-3.2093259-.676464l-3.2477256-.674512c-.5444863-.112255-1.0905718-.224429-1.638256-.33652l-3.3052854-.671557-3.3436321-.669568-3.3819578-.667563c-.5668523-.111093-1.1353006-.222102-1.7053444-.333026l-3.4394066-.664528-3.4776793-.662486-3.5159309-.660429c-.589175-.109899-1.1799428-.219711-1.7723032-.329437-10.3222332-1.912043-17.1400401-11.829882-15.227998-22.152116 1.9120422-10.322233 11.829882-17.14004 22.1521152-15.227998l3.7045492.69108c.6142139.115397 1.2268227.230902 1.8378267.346516l3.6467712.694993 3.6082789.69762c.5981734.116489 1.1947437.233089 1.7897115.3498l3.5505803.701589 3.512141.704255c.5821547.117599 1.1627087.235309 1.7416623.353132l3.4545216.708281 3.4161352.710985 3.3777698.713703c.5597657.119178 1.1179338.23847 1.6745046.357876l3.3202615.71781c.5501837.119864 1.098771.239843 1.6457623.359937l3.2628009.72195c.5406095.120556 1.079624.241228 1.6170438.362016l3.2053878.726125c.5310433.121254 1.0604929.242624 1.5883492.364112l3.1480222.730333c.521485.121958 1.0413776.244032 1.5596783.366225l3.0907043.734577 3.0525188.737424 3.0143545.740286c.9984265.247241 1.9904955.494962 2.9762115.743165l2.938089.746058c.973012.24917 1.939673.498824 2.899988.748966l2.861909.75189c.473812.125559.946039.251241 1.416681.377046l2.804828.756303 2.766802.759265c1.831864.507167 3.63839 1.016319 5.419607 1.527475l2.652848.768241 2.614906.771263 2.576985.7743c16.627202 5.042857 30.852495 10.279173 42.702018 15.727717 16.495185 7.584671 28.882782 15.775904 37.222621 25.090693 2.099206 2.344609 3.947656 4.77478 5.532912 7.277446l1.325639-.819201c1.540589-.967109 3.152886-2.114206 4.800659-3.400703l.826675-.654677c.276432-.221972.553682-.447629.831582-.676783l.835481-.697761.838375-.717612c.279829-.242387.559973-.487895.840263-.736335l.841143-.753932c.140208-.127059.280411-.254804.420588-.383211l.840577-.778212c.139988-.130964.279908-.262545.419738-.394717l.837748-.799954c.13939-.134448.27865-.269441.417757-.404955l.832653-.819161.414643-.413924.825294-.835829c.137063-.140145.27387-.280695.410398-.421625l.815671-.849962.807997-.857975c.13397-.143601.267579-.287489.400806-.43164l.794599-.867879.78441-.873074c.25966-.291764.517454-.584207.773214-.877139l.761011-.880078c.251525-.293724.500849-.58775.747803-.88189l.733588-.882574c.242048-.294179.481559-.588285.718366-.882129l.702138-.880559c.231229-.293133.459586-.585815.684904-.87786l.666662-.874034.647416-.869081c.106243-.144371.211642-.288489.316176-.43233l.616658-.859537c3.231702-4.56447 5.534843-8.797327 6.222389-11.928883l.040366-.219059c.146145-.990499-.206222-2.065145-1.83733-4.043489l-.383834-.454841-.427836-.486591c-2.599138-2.902984-6.619769-6.035333-12.048971-9.285374l-1.002646-.592189c-.169693-.098906-.34068-.197914-.512958-.297021l-1.049178-.595799-1.080178-.598021c-.730448-.399388-1.481551-.800156-2.253285-1.202107l-1.173074-.603789-1.204003-.605413c-1.422708-.707204-2.90853-1.41742-4.457344-2.129582-5.389096-2.477966-11.432816-4.933916-18.127635-7.365318l-2.027976-.728681-2.06702-.727194c-.347756-.121074-.697138-.242085-1.048145-.363034l-2.125548-.724933c-.715015-.24139-1.43653-.482527-2.164539-.723406l-2.203511-.721866-2.242459-.720309c-3.392892-1.079289-6.917167-2.153274-10.572505-3.221724l-2.456304-.711478c-.412619-.118442-.826856-.236815-1.242709-.355119l-2.514515-.708989c-.422318-.118026-.846252-.235981-1.271801-.353866l-2.572678-.706467c-.864018-.235206-1.734495-.470129-2.611426-.704766l-2.650154-.70305c-.444918-.117031-.89145-.233991-1.339593-.350877l-2.708206-.700448c-.909182-.233191-1.82481-.46609-2.74688-.698694l-2.785533-.696925c-.467476-.116006-.936561-.231938-1.407255-.347795l-2.843475-.694243-2.882074-.692436c-.483562-.115254-.968731-.230433-1.455506-.345535l-2.939936-.689698c-.493203-.114796-.988011-.229515-1.484425-.344157l-2.99775-.686924-3.036265-.685057-3.074761-.683173c-.515667-.113704-1.032937-.22733-1.551809-.340876l-3.132463-.68032-3.170905-.6784c-1.063373-.225812-2.13315-.4513-3.209326-.676464l-3.247726-.674512c-.544486-.112255-1.090572-.224429-1.638256-.33652l-3.305285-.671557-3.343632-.669568-3.381958-.667563c-.566852-.111093-1.135301-.222102-1.705345-.333026l-3.439406-.664528-3.4776795-.662486-3.5159309-.660429c-.589175-.109899-1.1799428-.219711-1.7723032-.329437-10.3222332-1.912043-17.1400401-11.829882-15.227998-22.152116 1.9120422-10.322233 11.829882-17.14004 22.1521156-15.227998zm552.515524-125.160836c13.347122-22.12662 45.3691-22.314238 58.974579-.345536l225.429526 364c14.258637 23.023355-2.300632 52.756429-29.381688 52.756429h-445c-26.899753 0-43.487122-29.377286-29.592891-52.410893zm29.980417 84.115893-158.751 263.175h321.739zm1.542 199.735c12.426407 0 22.5 10.073593 22.5 22.5s-10.073593 22.5-22.5 22.5-22.5-10.073593-22.5-22.5 10.073593-22.5 22.5-22.5zm.5-143.28c9.435032 0 17.103937 7.561689 17.277012 16.955363l.002988.324637v84c0 9.54348-7.73652 17.28-17.28 17.28-9.435032 0-17.103937-7.561689-17.277012-16.955363l-.002988-.324637v-84c0-9.54348 7.73652-17.28 17.28-17.28zm-255.347789-32.72 34.264055 41.735305c9.291553 8.794884 15.083734 21.218566 15.083734 34.988833 0 26.662022-21.71419 48.275862-48.5 48.275862s-48.5-21.61384-48.5-48.275862c0-11.180848 3.818624-21.473931 10.228532-29.657578l-.151151-.000283zm61.748469-419.56c86.377575 0 165.859371 42.931269 216.642129 114.139108.65006.911516 1.288133 1.873498 1.918589 2.892349l.177602.289543.395569-.058294c1.411336-.203764 2.77896-.349017 4.114563-.43665l.44403-.027078c4.236426-.238629 8.489623-.358351 12.755781-.358351 118.208473 0 214.711057 91.829038 214.711057 205.986479 0 48.84993-17.816209 95.101867-49.682292 131.794133-12.515456 14.410948-34.34362 15.947547-48.754568 3.432091-14.266839-12.390302-15.915528-33.907989-3.80334-48.320032l.371249-.434537c21.104206-24.300481 32.748951-54.530931 32.748951-86.471655 0-75.195019-64.810167-136.866479-145.591057-136.866479-2.375589 0-4.74315.05327-7.101518.159428l-.533425.026945-.3869.099725-.506369.138061-.569607.16299-.630779.187889-.650044.200288-.760358.241511-.798566.260883-.836507.280206-1.325315.456435-1.409177.499641-.985595.357017-1.546941.57129-1.628395.614061-1.708947.65667-1.788595.699116-1.2362.489577c-18.285831 7.278069-38.949184-2.161317-45.419366-20.748372l-.879062-2.500636-.635298-1.774554-.411887-1.134588-.600069-1.62869-.578408-1.540234-.373376-.977335-.716878-1.834962-.343268-.85721-.495613-1.209893-.454456-1.076983-.388944-.893086-.239743-.535092-.328331-.709641-.196893-.409612-.148113-.297472-.617285-.857462c-37.734073-51.919254-95.165361-82.925926-157.314066-83.547026l-1.903969-.009512c-97.881664 0-181.647153 75.628947-198.736531 178.509473l-.497397 3.125884c-2.871171 18.869776-20.495691 31.839208-39.365467 28.968037s-31.839208-20.495691-28.968037-39.365467c20.905487-137.394072 133.614117-240.357927 267.567432-240.357927zm-191.748469 287.56 34.264055 41.735305c9.291553 8.794884 15.083734 21.218566 15.083734 34.988833 0 26.662022-21.71419 48.275862-48.5 48.275862s-48.5-21.61384-48.5-48.275862c0-11.180848 3.818624-21.473931 10.228532-29.657578l-.151151-.000283zm192.347789-108.28c9.435032 0 17.103937 7.561689 17.277012 16.955363l.002988.324637-.000367 32.671 34.427651-18.831121.299916-.160319c8.321953-4.345665 18.627504-1.245304 23.152921 7.027724 4.57994 8.372704 1.505298 18.872896-6.867405 23.452837l-30.785083 16.839879 30.785083 16.839879c8.372703 4.579941 11.447345 15.080133 6.867405 23.452837-4.525417 8.273028-14.830968 11.373389-23.152921 7.027724l-.299916-.160319-34.427651-18.832121.000367 36.672c0 9.54348-7.73652 17.28-17.28 17.28-9.435032 0-17.103937-7.561689-17.277012-16.955363l-.002988-.324637-.000367-35.031-31.426917 17.191121-.299916.160319c-8.321953 4.345665-18.627504 1.245304-23.152921-7.027724-4.57994-8.372704-1.505298-18.872896 6.867405-23.452837l30.784349-16.839879-30.784349-16.839879c-8.372703-4.579941-11.447345-15.080133-6.867405-23.452837 4.525417-8.273028 14.830968-11.373389 23.152921-7.027724l.299916.160319 31.426917 17.190121.000367-31.03c0-9.54348 7.73652-17.28 17.28-17.28z"/></svg>