<?xml version="1.0" encoding="UTF-8"?>
<svg width="960px" height="914px" viewBox="0 0 960 914" version="1.1" xmlns="http://www.w3.org/2000/svg" xmlns:xlink="http://www.w3.org/1999/xlink">
    <!-- Generator: Sketch 54.1 (76490) - https://sketchapp.com -->
    <title>Group</title>
    <desc>Created with Sketch.</desc>
    <g id="com.arlo" stroke="none" stroke-width="1" fill="none" fill-rule="evenodd">
        <g id="noise_alarm" transform="translate(0.000000, -23.000000)" fill="#000000">
            <g id="Group" transform="translate(0.000171, 23.135489)">
                <path d="M539.798985,542.990521 L469.121285,407.990338 C475.864852,406.076866 482.979459,405.052683 490.330399,405.052683 C500.010219,405.052683 509.283893,406.81506 517.812966,410.068678 L681.760695,276.873677 C629.638585,225.222486 558.291538,193.093005 479.093684,191.872898 C439.785635,192.481064 402.365431,200.781465 368.271819,215.359615 L347.377468,175.449697 C387.739913,157.700798 432.266575,147.577856 479.161375,146.864511 C572.575027,148.287969 656.511932,186.78912 716.960042,248.404517 L776.392786,200.074728 C780.995101,196.346623 787.629501,196.821109 791.690964,201.091484 C795.752427,205.361858 795.752427,212.072445 791.758655,216.410603 L739.230399,273.416708 C784.379654,329.541624 811.930589,400.511174 813.893629,478.191312 C816.262816,572.614028 778.897355,664.528746 711.273317,730.482301 C702.406466,739.158617 688.123654,738.955266 679.458522,730.076277 C670.794744,721.195932 670.997141,706.893568 679.865346,698.217931 C738.553488,641.007797 770.977502,561.226364 768.87908,479.343636 C767.254494,414.339052 744.916447,354.82495 708.295588,306.969647 L565.264394,462.126572 C567.091375,468.770054 568.106741,475.751099 568.106741,482.936172 C568.106741,507.065871 557.0816,528.687401 539.798985,542.990521 Z M283.273468,703.864511 C287.674442,712.258896 286.44278,722.878069 279.47277,730.076277 C275.072852,734.549324 269.251421,736.854648 263.3623,736.854648 C257.676251,736.854648 252.057894,734.752675 247.657976,730.482301 C238.990656,722.020531 230.820285,713.131424 223.167021,703.864511 L267.526762,703.864511 L283.273468,703.864511 Z" id="Combined-Shape"></path>
                <path d="M46.9630216,444.093233 L1.92450984,530.079191 C0.685467536,516.031893 0.0397450234,501.84796 0.00192803684,487.556582 C-0.742782824,222.269438 214.343254,3.5904542 479.46032,0 C745.186695,3.5904542 960.272732,222.269438 959.46032,487.556582 C959.053437,641.065435 888.509685,782.177737 765.903197,874.715935 C761.841138,877.764434 757.102069,879.254811 752.363,879.254811 C745.5252,879.254811 738.755102,876.206313 734.354537,870.312548 C726.839051,860.354119 728.803056,846.263279 738.755102,838.744326 C850.054848,754.741247 914.032281,626.704296 914.439164,487.421093 C915.116173,246.657429 719.934227,48.2340262 479.392619,44.9822941 C254.023485,48.0366559 68.1371478,223.348834 46.9630216,444.093233 Z M101.90119,703.864512 C131.228933,755.578087 171.280725,801.491238 220.639446,838.744326 C230.52379,846.263279 232.487118,860.42254 225.04001,870.312548 C217.592901,880.203233 203.443395,882.167821 193.559051,874.715935 C132.122112,828.345929 83.7575201,769.779372 50.7396116,703.568109 C53.1823164,703.764247 55.6614277,703.864511 58.1742939,703.864511 L101.901191,703.864511 Z" id="Combined-Shape"></path>
                <path d="M425.592449,853.936049 C421.608597,861.06231 416.071718,866.627581 408.576675,870.835468 C393.586588,879.319112 376.435768,879.455529 361.918341,870.835468 C354.693389,866.56039 349.088988,860.722964 344.767521,852.986559 C340.446055,845.181607 338.285321,837.308106 338.285321,828.89301 C338.285321,820.340818 340.378532,812.467996 344.699998,804.799461 C348.953942,797.129568 354.558344,791.428559 361.64825,787.220671 C368.805678,783.012784 376.503291,780.976709 385.011178,780.976709 C398.245669,780.976709 409.116858,785.456752 418.097405,794.754147 C427.145476,804.052221 431.601988,815.38637 431.601988,829.435285 C431.601988,838.665489 429.576301,846.67405 425.592449,853.936049 M458.273539,691.864511 L440.177398,691.864511 C434.775565,691.864511 430.386576,696.276006 430.386576,701.705538 L430.386576,758.919234 C427.01043,756.340207 423.499239,754.032655 419.785478,752.132319 C408.914289,746.363441 396.692642,743.512937 383.458151,743.512937 C360.567883,743.512937 340.716146,751.928712 324.443124,768.420916 C308.237625,784.91312 299.999829,805.070259 299.999829,828.281509 C299.999829,851.899974 308.170102,872.329268 324.173032,888.820794 C340.311009,905.448736 360.095223,913.864511 382.917967,913.864511 C395.747321,913.864511 407.7664,911.149745 418.637589,905.720213 C422.688964,903.684138 426.605293,901.308718 430.319053,898.593952 L430.319053,900.290681 C430.319053,905.720213 434.708042,910.131708 440.109875,910.131708 L458.206016,910.131708 C463.607849,910.131708 467.996839,905.720213 467.996839,900.290681 L467.996839,701.705538 C468.131884,696.276006 463.675372,691.864511 458.273539,691.864511" id="Fill-6"></path>
                <path d="M532.474829,816.740505 L533.554829,816.740505 C552.792329,816.740505 561.567329,817.891856 565.549829,818.840705 C573.379829,820.736371 579.252329,824.054972 583.571654,828.931284 C587.554829,833.536689 589.512329,838.751634 589.512329,844.915427 C589.512329,849.791061 588.094154,854.193287 585.259154,858.392333 C582.356654,862.726832 578.577329,865.774527 573.784154,867.806324 C570.139829,869.364034 562.444154,871.192651 546.581654,871.192651 L532.542329,871.192651 L532.542329,816.740505 L532.474829,816.740505 Z M573.852329,753.957993 C573.852329,758.564076 572.637329,762.559265 570.071654,766.352629 C567.506654,770.144638 564.064829,772.786651 559.609154,774.546864 C556.099829,775.969122 548.742329,777.594559 533.689829,777.594559 L532.474829,777.594559 L532.474829,735.400918 L544.962329,735.400918 C558.799829,735.400918 565.279829,738.31316 568.249829,740.751316 C572.096654,743.866737 573.852329,748.06646 573.852329,753.957993 L573.852329,753.957993 Z M623.599829,819.179338 C620.021654,811.390785 614.892329,804.61813 608.412329,799.131602 C605.509154,796.625719 602.134154,794.390743 598.287329,792.29122 C601.189829,789.311252 603.687329,786.060378 605.779829,782.538597 C610.842329,774.005052 613.406654,764.387882 613.406654,754.025719 C613.406654,742.986969 610.504829,732.759583 604.767329,723.616498 C598.962329,714.473414 590.996654,707.565306 581.006654,703.16308 C571.421654,698.896308 558.596654,696.864511 541.789829,696.864511 L503.787329,696.864511 C498.387329,696.864511 493.999829,701.266737 493.999829,706.684861 L493.999829,900.044161 C493.999829,905.462285 498.387329,909.864511 503.787329,909.864511 L556.706654,909.864511 C578.239829,909.864511 595.856654,903.565942 608.952329,891.104257 C622.249829,878.507118 628.999829,862.862963 628.999829,844.576794 C628.999829,835.43371 627.177329,826.899487 623.599829,819.179338 L623.599829,819.179338 Z" id="Fill-8"></path>
                <path d="M517.62651,592.379314 C533.803932,623.109181 511.497177,659.864511 476.831274,659.864511 L267.529604,659.864511 L58.1274527,659.864511 C23.4615496,659.864511 1.25527548,623.008756 17.332216,592.379314 L226.734367,193.493595 C244.017078,160.654816 291.042129,160.654816 308.32484,193.493595 L517.62651,592.379314 Z M267.529604,591.676343 C286.118566,591.676343 301.291179,576.512259 301.291179,557.933745 C301.291179,539.355231 286.219047,524.191146 267.529604,524.191146 C248.940641,524.191146 233.768028,539.254806 233.768028,557.933745 C233.768028,576.512259 248.84016,591.676343 267.529604,591.676343 Z M244.820925,333.585634 L244.820925,468.053906 C244.820925,481.008654 255.270936,491.452792 268.23297,491.452792 C281.195003,491.452792 291.645014,481.008654 291.645014,468.053906 L291.645014,333.585634 C291.645014,320.630886 281.195003,310.186749 268.23297,310.186749 C255.270936,310.186749 244.820925,320.630886 244.820925,333.585634 Z" id="Combined-Shape"></path>
            </g>
        </g>
    </g>
</svg>