<svg height="960" viewBox="0 0 960 960" width="960" xmlns="http://www.w3.org/2000/svg"><path d="m480.5 2c98.82389 0 191.67036 6.90498874 261.131839 19.1184245 35.412705 6.2266283 64.259295 13.7343335 85.471359 22.5523927 12.748082 5.2995003 23.255951 11.2397269 31.661728 18.462487 12.915995 11.0982164 21.235074 25.5016327 21.235074 43.0777048 0 .965707-.027238 1.930543-.081581 2.89362l-.046419.702371-.08324 1.726034c-5.350544 110.216033-9.247046 189.400949-11.69034 237.570902l-.073594 1.450202c-.405937 7.995088-.564955 16.0062-.756653 34.053558-.19772 18.614351-.367328 29.941344-.699988 40.538435l-.033253 1.040214c-.011264.346107-.02271.691661-.034345 1.036893l-.034402 1.004079c-.12814 3.679833-.278519 7.348486-.459328 11.286844-1.039148 22.63466-2.871352 43.286715-5.832732 63.140123-4.939535 33.11518-12.889209 62.901725-24.786924 89.700987-7.313548 16.473557-16.050964 31.62742-26.317215 45.341704l-.161986.214025.211163.27651c8.526602 11.250538 13.736451 23.982742 14.625617 37.749838l.03822.648652.026036.244939c.105263 1.078458.167702 2.169483.18559 3.271356l.005374.662411v145.323529c0 1.754951-.113076 3.483707-.332367 5.179338l-.049633.359427-.009789.118663c-2.153095 24.785401-16.886012 45.616605-39.92852 62.439952l-.746184.541299c-19.317561 13.923814-45.243591 25.677262-76.662874 35.32033-60.465917 18.557934-140.407401 28.952756-225.270633 28.952756-84.33394 0-163.814273-10.265294-224.154656-28.611847-31.295505-9.515429-57.200817-21.111751-76.610419-34.827372-23.945928-16.921177-39.347698-37.933756-41.783605-63.238549l-.05132-.560232-.06239-.45291c-.194881-1.495126-.307203-3.01622-.332238-4.558563l-.005372-.662292v-145.323529c0-1.320622.064016-2.626355.189121-3.914258l.025879-.253448.041677-.68091c.868202-13.367422 5.812013-25.76545 13.912805-36.776356l.393518-.530734-.631712-.83513c-19.601949-26.122321-33.497735-57.363246-42.702083-93.124425l-.278205-1.093445-.157278-.367024c-1.797603-4.283537-2.872325-8.849675-3.155599-13.511838l-.021123-.415138-.095285-.438883c-1.651149-7.785752-3.097905-15.757449-4.356658-23.930836l-.338648-2.234118c-2.9616166-19.854101-4.7939642-40.506879-5.8331891-63.142311-.1561642-3.401423-.2896309-6.601675-.405675-9.781696l-.053686-1.505525-.0344043-1.004113c-.0116357-.345243-.0230826-.690808-.0343476-1.036927l-.0332554-1.040248c-.3326818-10.59744-.5022983-21.924791-.7000248-40.539675-.191698-18.04734-.3507162-26.058449-.7566529-34.05353-2.4383186-48.023626-6.3593437-127.691777-11.7637016-239.016325l-.0854723-1.772813-.0431922-.638705c-.0367733-.646844-.061319-1.294488-.0735969-1.942662l-.0092109-.972624c0-17.5760721 8.3190793-31.9794884 21.235074-43.0777048 8.405777-7.2227601 18.913646-13.1629867 31.661728-18.462487 21.212064-8.8180592 50.058654-16.3257644 85.471359-22.5523927 69.461479-12.21343576 162.307949-19.1184245 261.131839-19.1184245zm290.788262 727.417796c-17.203344 11.477112-41.134855 21.472796-70.603441 29.788189-58.359937 16.467903-136.499936 25.794015-219.684821 25.794015s-161.324884-9.326112-219.684821-25.794015c-29.468586-8.315393-53.400097-18.311077-70.603441-29.788189-4.694518-3.13192-8.945351-6.411808-12.711567-9.83975l-.000171 105.510189.134-.000235.025634.950962c2.674679 50.929477 137.236605 91.961038 302.840366 91.961038 166.631656 0 301.834932-41.542504 302.874903-92.910526l.125097-.001239.000827-105.511098c-3.766463 3.428271-8.017632 6.708462-12.712565 9.840659zm-298.803698 62.508735c24.868593 0 45.028571 20.159978 45.028571 45.028571s-20.159978 45.028571-45.028571 45.028571c-24.868594 0-45.028572-20.159978-45.028572-45.028571s20.159978-45.028571 45.028572-45.028571zm0 20c-13.822899 0-25.028572 11.205673-25.028572 25.028571s11.205673 25.028571 25.028572 25.028571c13.822898 0 25.028571-11.205673 25.028571-25.028571s-11.205673-25.028571-25.028571-25.028571zm295.122769-160.23811-.485652.425806c-2.981466 2.601369-6.056672 5.108031-9.227109 7.518495l-.446572.336278-.410103.333168c-.546064.431681-1.107175.846117-1.682793 1.243013l-.418104.280819-.532277.390367c-.684882.496421-1.380799.992186-2.088773 1.488279l-1.071131.744507c-2.960292 2.041237-5.998676 3.083913-8.979663 3.423119l-.306156.031728-1.366763.550781c-67.064358 26.778581-159.009927 42.224655-257.375764 42.545219h-3.076001c-100.560781 0-194.61136-15.813478-262.514963-43.375494l-.450509-.184506-.298677-.01973c-3.12183-.230091-6.079911-1.04268-9.519586-3.387637l-.39906-.277427c-4.85476-3.440021-9.491973-7.085247-13.917983-10.932018-6.23961 5.366189-10.648139 10.966955-13.01657 16.743139-1.258108 3.152285-1.904067 6.356326-1.904067 9.602791l.016943.594882h-.129l.033593 1.149899c2.67573 46.568212 137.290551 84.086101 302.959407 84.086101 167.029623 0 302.492973-38.136747 302.99858-85.235419l-.124894.000379c.004835-.198453.007257-.397068.007257-.595842 0-3.26138-.651908-6.479944-1.921071-9.64585-2.541854-6.169885-7.410617-12.138898-14.352539-17.834847zm70.77517-513.443901-.168265.110412c-5.401965 3.532652-11.803602 6.791578-19.206924 9.868464-19.62809 8.157608-47.146223 15.317829-81.222266 21.307979-68.192524 11.987409-159.863431 18.803319-257.553546 18.803319-97.690114 0-189.361021-6.81591-257.553546-18.803319-34.076042-5.99015-61.594175-13.150371-81.222266-21.307979-7.233714-3.006396-13.511114-6.186586-18.834078-9.626099l.060402 1.23137c.198815 4.087152.39539 8.126531.589727 12.118137.241389 4.958028.479328 9.842446.713814 14.653154.097389 1.99803.194199 3.983696.290413 5.956643.086486 1.77345.172484 3.536504.258 5.289283.163363 3.348337.325011 6.660046.4849 9.934236.051773 1.060188.103436 2.117973.154914 3.171813.033865.693274.067575 1.3833.101205 2.071626.411102 8.414215.810312 16.57464 1.19762 24.481056.241524 4.930411.4784 9.761657.710649 14.494142.894567 18.228437 1.72039 34.989877 2.47757 50.286404.187341 3.784667.370402 7.478063.549264 11.081861.14994 3.021057.296902 5.978606.440915 8.873213l.071457 1.435956c.128312 2.577939.254251 5.105225.377816 7.581858l.019442.389651c.074031 1.483629.147208 2.949002.219528 4.39612.214118 4.284435.420735 8.408804.619854 12.373157.167655 3.337911.329966 6.561828.486964 9.672345.095534 1.892784.189102 3.743598.280703 5.552421.02611.515598.052072 1.027999.077873 1.536985.040084.790733.079771 1.57303.119073 2.34709 2.12179 41.789472-2.03699 112.240742 12.981306 177.678739-.58121.995866-.341867 1.800121.571774 2.449054 10.231781 43.106357 28.957114 83.845001 63.498193 112.530484l1.051548.865558-.298929-.24117-.535356.298637c2.681269 2.18304 5.456341 4.294353 8.328532 6.329552.20564.145713 1.074183-.005784 2.087688-.222406l-1.356395-.575144c63.732914 27.203017 156.990636 44.360878 260.888396 44.360878 102.837182 0 195.250443-16.809358 258.926489-43.530766.448689.359498.753635.56363.824491.514772 1.238688-.854124 2.459643-1.722192 3.658927-2.606971.538008-.337772 1.029832-.702335 1.479166-1.090804 94.14379-70.68137 79.408745-225.755556 83.038252-297.139641 2.214089-43.546072 5.652324-113.180095 10.314706-208.90207zm-144.019825-83.8090214.346013.1244239c3.974359 1.3958842 7.651025 2.8417713 11.018313 4.3369163 8.055919 3.5769943 14.599768 7.5282454 19.643644 12.1574121 7.081576 6.499325 11.440446 14.5601085 11.440446 23.9824838s-4.35887 17.4831593-11.440446 23.9824843c-5.043876 4.629166-11.587725 8.580417-19.643644 12.157412-13.918121 6.179932-33.121802 11.518321-56.785934 15.962561-46.842149 8.797184-109.611556 13.783257-176.456506 13.783257s-129.614358-4.986073-176.456507-13.783257c-23.664132-4.44424-42.867813-9.782629-56.785933-15.962561-8.05592-3.576995-14.599769-7.528246-19.643645-12.157412-7.081575-6.499325-11.440446-14.560109-11.440446-23.9824843s4.358871-17.4831588 11.440446-23.9824838c5.043876-4.6291667 11.587725-8.5804178 19.643645-12.1574121.651461-.2892625 1.314503-.5766812 1.98904-.8622508-73.780879 11.5755235-120.231164 28.4221767-120.231164 47.176421 0 .359166.017036.717631.050975 1.075374l-.016975-.358383.065875 1.404602c6.492789 33.883821 164.796697 61.002092 359.131627 61.002092 198.457326 0 359.338776-28.280985 359.338776-63.167347 0-20.7820123-57.091281-39.2200036-145.2076-50.7318484zm-221.878114-5.2844782c-134.937817 0-244.326531 20.5437341-244.326531 45.8857143 0 25.3419803 109.388714 45.8857143 244.326531 45.8857143 134.937816 0 244.32653-20.543734 244.32653-45.8857143 0-25.3419802-109.388714-45.8857143-244.32653-45.8857143z"/></svg>