<?xml version="1.0" encoding="UTF-8"?>
<svg width="960px" height="960px" viewBox="0 0 960 960" version="1.1" xmlns="http://www.w3.org/2000/svg" xmlns:xlink="http://www.w3.org/1999/xlink">
    <title>com.thirdreality/drivers/presence-sensor-r3/ assets/icon</title>
    <g id="com.thirdreality/drivers/presence-sensor-r3" stroke="none" fill="none" fill-rule="nonzero">
        <path d="M682.112842,7.97114584 C698.010379,11.2470788 730.13758,18.7289583 780.956127,31.072631 C797.560032,35.1056699 811.4414,39.8864497 823.333824,45.8872998 C836.930049,52.7478777 848.110557,61.3161055 856.89443,72.0240174 C865.710329,82.7709711 871.641829,95.0992578 875.106027,108.987659 C877.939071,120.345687 879.111285,132.525944 879.111285,146.766569 L879.111285,789.733392 C879.111285,797.473469 878.369834,804.490511 876.56182,811.280053 C874.22844,820.042477 870.180457,828.011038 864.22636,834.870199 C858.547586,841.412187 851.712409,846.310175 843.937898,849.938867 C838.303347,852.56875 832.396761,854.454625 825.566673,856.04636 C817.060897,858.028611 734.486619,875.431101 637.865515,895.625534 C531.538807,917.848502 444.189005,935.933487 414.86957,941.738654 C378.28898,948.981511 345.783034,953.49362 317.795544,954.798717 C301.646157,955.551787 286.980706,955.23696 273.768624,953.715419 C258.270537,951.930614 244.587219,948.481471 232.649725,942.861045 C222.10981,937.898629 206.546191,930.748232 181.802027,919.464803 L181.261447,919.218304 C176.408698,917.005566 159.86185,909.466009 159.675154,909.380919 C151.378474,905.599557 145.477749,902.906462 140.247664,900.512499 C126.400848,894.174406 118.891026,890.684064 115.597701,889.009492 C111.263029,886.80542 109.315329,885.769657 106.516326,884.056631 C101.566706,881.027401 97.185696,877.623199 93.1362088,873.234768 C87.9931823,867.661269 84.0709056,861.127414 81.5611606,853.782879 C79.3052064,847.181038 78.3106586,840.335723 78.3106586,833.145208 L78.3106586,158.743542 C78.3106586,140.590211 83.3492948,123.744417 92.8658612,109.115634 C101.163339,96.3608236 112.444927,85.8675599 125.973518,77.4578572 C137.241354,70.4534948 149.943849,64.9768905 163.640673,60.8970621 C175.584972,57.3392524 188.173578,54.8873779 200.718204,53.5484933 C209.910676,52.5673832 232.615417,49.9345467 269.646124,45.5685535 C284.839548,43.7772189 302.20183,41.7231141 324.713813,39.0548269 C337.082472,37.5888016 380.866013,32.3957204 385.691641,31.8235412 L386.745213,31.6986199 C488.206648,19.6685753 539.852437,13.6115995 565.14034,10.84735 C595.742553,7.50218701 620.144516,5.69865233 639.214612,5.28402819 C657.413427,4.88834752 671.245669,5.7317971 682.112842,7.97114584 Z M817.969263,214.206366 C804.424738,216.302932 715.957288,228.88659 630.011897,240.920475 C522.207684,256.014984 437.964299,267.531348 403.962531,271.708896 C328.119287,281.027199 273.536688,280.905112 242.031376,271.353378 C224.356196,265.994644 183.121359,253.371062 118.312999,233.478414 L118.310659,833.145208 C118.310659,845.495923 124.431069,848.627051 133.727574,853.354089 C143.024079,858.081127 218.633995,892.05042 249.688511,906.671547 C280.743027,921.292674 342.813462,915.229045 407.100501,902.500388 C471.387539,889.771731 799.901845,820.955624 816.488046,817.09025 C833.074247,813.224876 839.111285,807.564893 839.111285,789.733392 L839.111141,208.955423 C832.429499,211.30907 825.379059,213.059399 817.969263,214.206366 Z M238.937829,710.798225 C247.615249,719.717138 253.952797,732.442496 256.71155,746.64397 C259.470233,760.845081 258.358226,775.018689 253.652049,786.53984 C248.526042,799.088772 239.367098,807.891343 227.643016,810.171706 L225.444388,810.517659 C214.453337,811.841637 203.537642,807.115815 194.676382,798.007945 C185.998963,789.089033 179.661414,776.363674 176.902661,762.162201 C174.143978,747.961089 175.255986,733.787481 179.962162,722.26633 C185.088169,709.717398 194.247113,700.914827 205.971195,698.634464 C217.696318,696.353899 229.485818,701.083164 238.937829,710.798225 Z M209.789686,718.266559 C205.336823,719.132652 201.236844,723.073101 198.477053,729.82932 C195.297433,737.613321 194.494867,747.842797 196.535653,758.34833 C198.576369,768.853502 203.149796,778.036627 209.011255,784.061211 C214.098123,789.289646 219.372703,791.405502 223.824525,790.539611 L224.655061,790.341254 C228.784651,789.169963 232.549854,785.310805 235.137158,778.97685 C238.316778,771.192849 239.119344,760.963373 237.078558,750.45784 C235.037842,739.952668 230.464415,730.769543 224.602956,724.74496 C219.516088,719.516524 214.241509,717.400668 209.789686,718.266559 Z M238.937829,583.513352 C247.615249,592.432265 253.952797,605.157623 256.71155,619.359097 C259.470233,633.560208 258.358226,647.733816 253.652049,659.254967 C248.526042,671.803899 239.367098,680.60647 227.643016,682.886833 L225.444388,683.232786 C214.453337,684.556764 203.537642,679.830942 194.676382,670.723072 C185.998963,661.80416 179.661414,649.078801 176.902661,634.877328 C174.143978,620.676216 175.255986,606.502608 179.962162,594.981457 C185.088169,582.432525 194.247113,573.629954 205.971195,571.349591 C217.696318,569.069026 229.485818,573.798291 238.937829,583.513352 Z M209.789686,590.981686 C205.336823,591.847779 201.236844,595.788228 198.477053,602.544447 C195.297433,610.328448 194.494867,620.557924 196.535653,631.063457 C198.576369,641.568629 203.149796,650.751754 209.011255,656.776338 C214.098123,662.004773 219.372703,664.120629 223.824525,663.254738 L224.655061,663.056381 C228.784651,661.88509 232.549854,658.025932 235.137158,651.691977 C238.316778,643.907976 239.119344,633.6785 237.078558,623.172967 C235.037842,612.667795 230.464415,603.48467 224.602956,597.460087 C219.516088,592.231651 214.241509,590.115795 209.789686,590.981686 Z M569.486894,50.610492 C507.0858,57.4316271 243.752667,89.1826163 204.963283,93.3225967 C166.1739,97.4625772 118.310659,115.659983 118.310659,158.743542 L118.313157,212.557421 C186.482427,233.483729 229.66113,246.704017 247.834122,252.213678 C275.968704,260.743478 328.252672,260.860424 401.523617,251.85816 C435.366483,247.700135 519.565986,236.18977 627.238594,221.113689 C713.044614,209.099318 801.507569,196.516299 814.909886,194.441746 C823.668791,193.08595 831.726748,190.751744 839.111134,187.438998 L839.111285,146.766569 C839.111285,104.156953 826.596061,83.3215042 771.514771,69.9424239 C716.43348,56.5633435 687.585682,49.9393392 674.039844,47.1480103 C660.494007,44.3566814 631.887989,43.7893569 569.486894,50.610492 Z" id="Combined-Shape" fill="#000000"></path>
    </g>
</svg>