<?xml version="1.0" encoding="UTF-8"?>
<svg width="960px" height="960px" viewBox="0 0 960 960" version="1.1" xmlns="http://www.w3.org/2000/svg" xmlns:xlink="http://www.w3.org/1999/xlink">
    <!-- Generator: Sketch 60.1 (88133) - https://sketch.com -->
    <title>de.dresden-elektronik.zigbee/assets/icon2</title>
    <desc>Created with Sketch.</desc>
    <g id="de.dresden-elektronik.zigbee/assets/icon2" stroke="none" stroke-width="1" fill="none" fill-rule="evenodd">
        <path d="M851.888776,780.857392 C705.305656,960.050448 451.312211,1008.23354 249.310092,895.167838 C47.3079738,782.102135 -44.482887,540.37481 31.5437795,321.689519 C107.570446,103.004229 329.502655,-29.6107629 558.059802,7.07129278 C786.616949,43.7533485 955.925558,239.160153 959.730637,470.657961 C960.450015,480.288028 959.726486,489.971556 957.584022,499.387704 C955.080228,512.52405 949.394362,524.845994 941.024418,535.274322 C924.092354,556.370408 898.127989,568.140336 871.106093,566.969057 L345.696457,566.969057 C227.12152,566.969057 227.12152,389.171822 345.696457,389.171822 L768.477441,389.171822 C727.563937,258.636981 603.234841,172.574398 466.680582,180.263222 C330.126323,187.952047 216.239786,287.427601 190.232023,421.73051 C164.224261,556.03342 232.74088,690.846076 356.549492,748.975197 C480.358104,807.104318 627.822642,773.696521 714.5054,667.881001 C789.841373,575.86403 927.122529,689.249386 851.888776,780.346187" id="Path" fill="#000000" fill-rule="nonzero"></path>
    </g>
</svg>