<?xml version="1.0" encoding="UTF-8"?>
<svg width="960px" height="960px" viewBox="0 0 960 960" version="1.1" xmlns="http://www.w3.org/2000/svg" xmlns:xlink="http://www.w3.org/1999/xlink">
    <!-- Generator: Sketch 60.1 (88133) - https://sketch.com -->
    <title>de.dresden-elektronik.zigbee/assets/icon</title>
    <desc>Created with Sketch.</desc>
    <g id="de.dresden-elektronik.zigbee/assets/icon" stroke="none" stroke-width="1" fill="none" fill-rule="evenodd">
        <polygon id="Path" fill="#000000" fill-rule="nonzero" points="-0.451685393 245 -1 0 243 0"></polygon>
        <path d="M730.435294,681.443548 C632.04809,801.718678 461.566626,834.059371 325.981957,758.169198 C190.397289,682.279025 128.786879,520.030631 179.816296,373.248149 C230.845713,226.465666 379.807541,137.453928 533.216056,162.075077 C686.62457,186.696227 800.265218,317.854092 802.819202,473.236391 C803.302052,479.700132 802.816416,486.199757 801.378385,492.519914 C799.697828,501.337085 795.881451,509.607625 790.26351,516.607163 C778.898638,530.766944 761.471247,538.666969 743.334037,537.880801 L390.676889,537.880801 C311.088895,537.880801 311.088895,418.542553 390.676889,418.542553 L674.449256,418.542553 C646.987941,330.927021 563.537731,273.161454 471.881941,278.322226 C380.22615,283.482997 303.785029,350.251405 286.32851,440.396081 C268.871991,530.540757 314.860633,621.027576 397.961492,660.044085 C481.062351,699.060594 580.041166,676.637141 638.222996,605.613321 C688.788817,543.851145 780.932504,619.955871 730.435294,681.100425" id="Path" fill="#000000" fill-rule="nonzero"></path>
    </g>
</svg>