<svg height="960" viewBox="0 0 960 960" width="960" xmlns="http://www.w3.org/2000/svg"><g fill="none" fill-rule="evenodd"><g stroke="#000" stroke-linejoin="round"><path d="m197.90206 19.5745053 614.007347 50.046481c13.236125 1.0788494 24.950334 7.146697 33.355511 16.2648371 8.405178 9.1181401 13.501324 21.2865726 13.501324 34.5665916v704.428975c0 13.114363-4.973584 25.159548-13.209942 34.247796s-19.735491 15.219558-32.786588 16.506172l-606.967749 59.836599-40.035754-5.815114c-15.485477-2.249235-28.971576-10.011693-38.586307-21.123836-9.61473-11.112142-15.358091-25.573969-15.358091-41.221942v-773.8749827c0-13.6170411 4.37491-26.4632773 11.984772-36.9654774s18.454675-18.6603641 31.394482-22.9012608z" stroke-width="40"/><path d="m154.290321 84.3778975v789.5255015c0 28.718807 23.281194 52 52 52 1.769162 0 3.53717-.090286 5.297128-.270507l598.556287-61.292485c21.937489-2.246411 38.619683-20.724106 38.619683-42.776312v-700.683761c0-22.4851031-17.323109-41.1737429-39.743645-42.8765217l-598.791534-45.4765927c-28.636339-2.1748523-53.613744 19.2764209-55.788596 47.9127595-.099513 1.3102813-.149323 2.6238637-.149323 3.9379184z" stroke-linecap="round" stroke-width="20"/><path d="m278.766931 773.233362v-582.674343c0-10.870294 7.804209-20.171705 18.509215-22.060124l15.628717-2.756988c1.913805-.337605 3.860449-.45091 5.800499-.337618l445.605412 26.021734c13.218496.771913 23.542574 11.716468 23.542574 24.957483v519.972702c0 13.184664-10.239226 24.103006-23.39675 24.948539l-457.051109 29.371153c-2.027137.130269-4.062595.01299-6.061354-.349243l-9.783945-1.773134c-7.407317-1.34242-12.793259-7.792184-12.793259-15.320161z" stroke-linecap="round" stroke-width="20"/><path d="m304.35345 191.699764v572.514143c0 13.807118 11.192881 25 25 25 .534829 0 1.069521-.017163 1.60325-.051461l433.499898-27.857699c13.157524-.845533 23.39675-11.763875 23.39675-24.948539v-519.940173c0-13.254294-10.344118-24.204987-23.576921-24.959464l-433.499898-24.716271c-13.784731-.785945-25.596598 9.751654-26.382543 23.536385-.027019.473879-.040536.948431-.040536 1.423079z" stroke-linecap="round" stroke-width="20"/><path d="m472.623966 176.242857v599.613341" stroke-linecap="round" stroke-width="20"/><path d="m665.5 188.886659-.752067 575.099056" stroke-linecap="round" stroke-width="20"/></g><path d="m561 249h18v21h-18z" fill="#000"/></g></svg>