<svg height="960" viewBox="0 0 960 960" width="960" xmlns="http://www.w3.org/2000/svg"><path d="m734.129513 505c22.210698 0 40.258015 17.819966 40.61674 39.938668l.005442.671565-.001745 60.750474c.808811-.265586 1.640083-.488675 2.494877-.667721 15.130866-3.168006 29.709605 12.268418 34.687433 38.544325l.147895.79955c2.492998 13.808904 6.189072 27.321451 11.002204 40.339371 21.900903 14.051268 44.014168 36.381999 62.389903 61.512181l1.01906 1.401811c5.011623 6.934399 20.127291 38.742883 34.703571 72.993551l.891661 2.09984 1.831711 4.343491 1.837238 4.397073c17.791339 42.776583 30.470666 79.089586 34.123471 100.343l.121026.7187-15.776388 2.599308c-3.261944-19.78659-16.004295-56.234218-33.86424-99.04173l-2.522203-6.005925c-14.454491-34.187789-30.130929-67.308918-34.30623-73.08613-10.981823-15.195245-23.41515-29.332881-36.201279-40.993201 9.186287 16.767341 20.394087 32.259083 33.391606 45.944114 3.040161 3.200973 2.909036 8.259691-.292881 11.298958-3.201916 3.039269-8.26212 2.90818-11.302283-.292794-31.924713-33.613393-53.70827-77.240541-62.48351-124.11498l-.297433-1.617637c-1.953234-10.819519-5.406409-18.502654-9.573021-22.96981-2.672809-2.865603-5.05327-3.818505-6.24906-3.568138-2.914325.61044-5.985363 3.683353-8.871962 9.017765-12.57733 23.247937-10.94322 53.774113 1.728687 89.207461 2.514317 7.030289 4.95971 19.368321 5.328388 26.852407l.029283.792892c.072007 2.852861-.175817 6.548944-.733268 11.937855l-.678479 6.101483c-.118905 1.040139-.246189 2.148704-.375069 3.268689l-.12916 1.121681c-.459338 3.986721-.910247 7.877601-1.047737 9.110308l-.380474 3.478006c-1.652296 15.42113-2.496022 27.810963-2.496022 40.096245 0 34.318302 20.022336 78.875868 36.773323 79.763589l.506581.013477c4.415297 0 7.994604 3.578254 7.994604 7.992252 0 4.414-3.579307 7.992253-7.994604 7.992253-13.906231 0-25.880722-10.596528-35.42582-28.046049l.000346 29.352071c0 22.203726-17.825295 40.245643-39.950422 40.604261l-.67176.00544h-157.496895c-22.210522 0-40.257488-17.819791-40.616207-39.938145l-.005442-.671556-.000402-68.470371c-2.247828 1.280933-4.830761 2.041635-7.584804 2.118161l-.460563.006391h-3.094978c-15.67697 0-28.415339-12.5779-28.668539-28.189936l-.003841-.474011v-8.163819c0-8.134616 3.389543-15.477791 8.833711-20.695-5.333062-5.10892-8.694507-12.259695-8.829488-20.196109l-.004223-.497037v-8.16382c0-7.647614 2.995842-14.595714 7.878296-19.735397-6.646825-5.492676-10.924133-13.748734-11.072168-23.007847l-.00397-.496973v-9.821946c0-8.925134 3.837124-16.9544 9.952172-22.529072-6.001247-5.469095-9.809254-13.30571-9.948234-22.033609l-.003938-.494974v-9.821946c0-16.666674 13.379777-30.209183 29.987187-30.478367l.504232-.004084h3.818756c3.175627 0 6.149739.862729 8.700626 2.366522l.000168-84.996822c0-22.204253 17.824775-40.246174 39.949889-40.604792l.67176-.005441zm10.277863 50.244627h-177.623577c-7.049674 0-12.791013 5.598699-13.017847 12.590661l-.006962.429784v325.53883c0 7.047078 5.600346 12.786718 12.594866 13.013485l.429943.00696h177.623577c7.049152 0 12.79048-5.598699 13.017314-12.59066l.007431-.429785v-61.205158c-.344924-3.565629-.524064-7.011477-.524064-10.276038 0-5.800671.176153-11.590898.524064-17.64807v-82.267839c-13.184059-38.115196-14.685771-71.963047-.002215-99.363398l.002215-54.778327c0-7.047078-5.600815-12.786718-12.594834-13.013485zm-216.442176 248.292644h-3.094978c-6.901717 0-12.515873 5.511039-12.679502 12.371375l-.003671.308068v8.163819c0 6.899687 5.512661 12.512192 12.375015 12.675773l.308158.003669h3.094978c.132815 0 .243914-.092098.272946-.215962l.007398-.064299v-32.962181c0-.154906-.125393-.280262-.280344-.280262zm0-49.551965h-3.094978c-6.901717 0-12.515873 5.511038-12.679502 12.371375l-.003671.308067v8.16382c0 6.899687 5.512661 12.512191 12.375015 12.675773l.308158.003669h3.094978c.132815 0 .243914-.092098.272946-.215962l.007398-.0643v-32.962713c0-.154375-.125396-.279729-.280344-.279729zm-.655025-54.880134h-3.818756c-7.903943 0-14.331083 6.321177-14.49885 14.182164l-.003361.315249v9.821946c0 7.902145 6.323037 14.327401 14.186849 14.495119l.315362.00336h3.818756c.600288 0 1.094953-.454531 1.15824-1.038314l.006841-.126957v-36.487829c0-.643243-.52167-1.164738-1.165081-1.164738zm-325.563245-293.622041 55.552558 57.052477c5.779324 5.935366 5.652827 15.431998-.282539 21.211322-5.935365 5.779324-15.431998 5.652827-21.211322-.282538l-28.599421-29.368025c9.119524 67.941572 46.039716 128.731961 101.953381 168.437808 41.428772 29.419722 90.9096 45.465825 142.840413 45.465825 8.284271 0 15 6.715729 15 15s-6.715729 15-15 15c-58.206788 0-113.747151-18.011145-160.210148-51.005811-64.624181-45.891427-106.64263-116.967325-115.179301-196.021435l-33.533313 32.757312c-5.926052 5.788874-15.422875 5.677669-21.211749-.248383-5.788873-5.926052-5.677668-15.422876.248384-21.211749l58.404444-57.052477c5.932801-5.795466 15.442708-5.67645 21.228613.265674zm325.563245 238.741907h-3.818756c-7.903996 0-14.331085 6.321229-14.49885 14.182678l-.003361.315268v9.821946c0 7.901987 6.322881 14.326878 14.186842 14.494586l.315369.00336h3.818756c.600527 0 1.094985-.454289 1.158244-1.038266l.006837-.127004v-36.487297c0-.643488-.521916-1.165271-1.165081-1.165271zm196.924425-212.258619-.104335.09615c-.02864.02624-.057382.052371-.086225.078391-.044746.040982-.089765.08116-.134969.121019-.036004.030983-.071678.062098-.107499.093046-1.10689.958525-2.322305 1.728202-3.603246 2.308877-.195642.088485-.393618.173336-.593733.253997-.016993.006625-.033631.01328-.050279.019903-.085166.034228-.171151.067606-.257515.100209-.017457.006068-.034769.01255-.05209.018999-.19266.072468-.387454.140619-.584035.204819-.016416.004315-.032429.009504-.04845.014664-.934533.302756-1.909481.515279-2.914493.628492-.006457-.000174-.012454.000501-.018452.001173l.018452-.001173c-.219553.024733-.44054.044726-.662857.059875-.007499.000063-.0145.00054-.021501.001012-.095073.006783-.19087.012265-.286904.016845-.016112.000519-.032436.001281-.048762.002016-.093359.004379-.186534.007664-.279921.010095-.01803.000383-.036033.000826-.054036.001238-.114222.002642-.228835.003934-.34375.003934-.215479 0-.429897-.004544-.643163-.01354-.01402-.000709-.027683-.00131-.041346-.001929-.095206-.004147-.190361-.00932-.285275-.015377-.013549-.001132-.027563-.002053-.041575-.002993-.430985-.028425-.856508-.075261-1.276302-.139501-.018127-.003729-.036471-.006578-.05481-.009461-.767213-.119349-1.515038-.297792-2.238924-.529724-.018568-.006702-.036572-.012498-.054567-.01833-.082771-.026139-.16558-.05383-.248063-.08222-.025912-.009471-.052258-.018602-.078583-.027809-.084485-.029096-.168122-.059256-.251409-.090134-.019303-.007472-.038639-.014672-.057963-.021913-.273756-.102501-.543798-.2131-.809766-.331208-1.229978-.544785-2.402328-1.263899-3.479955-2.157383-.031487-.026617-.062747-.052722-.093898-.078951-.034005-.028207-.06813-.05723-.102157-.086431-.053969-.046629-.107613-.093279-.160919-.140302-.033223-.029107-.065934-.058243-.098549-.087547-.040793-.036777-.081539-.073762-.12208-.110967-.042894-.03931-.085812-.079177-.128553-.119342-.086593-.081363-.171969-.16348-.256365-.246588l-58.361905-57.010761c-5.926052-5.788873-6.037257-15.285697-.248384-21.211749 5.788874-5.926052 15.285697-6.037257 21.211749-.248383l29.922646 29.22736c-9.992283-63.651053-44.464959-120.659012-96.188612-159.355416-13.387807-10.015921-27.756258-18.653951-42.889477-25.765692-7.497628-3.523454-10.719333-12.457805-7.19588-19.955434 3.523454-7.497628 12.457805-10.719333 19.955433-7.19588 16.976337 7.977901 33.090481 17.665408 48.101278 28.895548 60.280214 45.097889 99.685665 112.441421 109.057598 187.245718l31.965403-32.83053c5.779324-5.935365 15.275957-6.061862 21.211322-.282538 5.935366 5.779324 6.061863 15.275956.282539 21.211322l-55.532411 57.031762c-.019244.019835-.038541.039618-.057893.059347l.037746-.038632c-.167707.172235-.338543.339578-.51233.502027zm-455.863848-431.966419c37.413403.09377791 68.258307 1.63173291 92.534714 4.61757052 25.537984 3.14100317 43.661279 7.86701258 54.369886 14.17802838l15.061134 35.172761c18.113498 42.2674761 28.354944 66.0167981 30.724335 71.2479651 1.798004 3.969652 6.190093 8.219519 11.739924 13.11407l2.322748-11.809378c-1.719099-3.130848-2.717364-6.864407-2.717364-10.873191 0-11.055544 7.59243-20.0178338 16.958168-20.0178338s36.635703 8.9622898 36.635703 20.0178338c0 10.660111-25.354076 19.374031-35.564076 19.98375l-5.751021 13.150191c5.296127 4.834558 10.744401 10.263962 15.548331 16.490111 14.449968 18.727929 25.766766 43.452619 25.766766 63.783783v172.705069c0 10.625555-8.61888 19.23927-19.250807 19.23927h-52.492503c-10.631928 0-19.250808-8.613715-19.250808-19.23927v-26.34269h-103.774283c-9.978262 2.360301-19.317247 3.816953-28.016955 4.369958l-1.177492.069829c-8.641959.477395-21.654195.459234-39.036707-.054481l-2.397183.068465c-7.743678.2133-14.577981.323492-20.502935.330578l-1.351155-.000195c-6.452562-.00979-11.773821-.147855-15.963816-.414196-8.699708-.553005-18.038693-2.009657-28.016955-4.369958h-103.7742832v26.34269c0 10.625555-8.61888 19.23927-19.2508074 19.23927h-52.4925031c-10.63192728 0-19.2508073-8.613715-19.2508073-19.23927v-172.705069c0-20.331164 11.3167975-45.055854 25.766766-63.783783 4.8039297-6.226149 10.2522039-11.655553 15.5486818-16.490233l-5.7531264-13.151362c-10.2082455-.608426-35.5623214-9.322346-35.5623214-19.982457 0-11.055544 27.2699648-20.0178338 36.6357028-20.0178338 9.3657379 0 16.9581687 8.9622898 16.9581687 20.0178338 0 4.008784-.9982651 7.742343-2.7173641 10.873191l2.3227481 11.809378.9140056-.809852c5.1158284-4.556042 9.127803-8.555102 10.8259179-12.304218l.2997668-.666629c3.588752-8.026786 18.7506529-43.2781513 45.4857022-105.7540971 10.601521-6.2479056 28.470178-10.94234652 53.605971-14.08332278l.763915-.0947056c24.771844-3.04677307 56.383023-4.58596325 94.833537-4.61757052zm125.269056 302h-260.277834c-1.060986 0-2.1094.224738-3.073416.658368-3.69395 1.661599-5.311985 5.93893-3.613983 9.553686 6.594996 14.04037 15.213839 22.863049 25.856477 26.468059 18.954934 6.420658 54.574544 10.163752 106.85883 11.229281l3.356463.063939.000604.026667.753338-.013037.754546.013037v-.026667l1.767594-.03247c53.152471-1.021654 89.301906-4.775237 108.448303-11.26075 10.642638-3.60501 19.261481-12.427689 25.856529-26.468036.443079-.943371.672741-1.969309.672741-3.007549 0-3.978363-3.294669-7.20394-7.360192-7.204528zm65.860192-17c-11.321837 0-20.5 9.178163-20.5 20.5s9.178163 20.5 20.5 20.5 20.5-9.178163 20.5-20.5-9.178163-20.5-20.5-20.5zm-393 0c-11.3218374 0-20.5 9.178163-20.5 20.5s9.1781626 20.5 20.5 20.5 20.5-9.178163 20.5-20.5-9.1781626-20.5-20.5-20.5zm267.941832-77h-141.883664c-38.910258 0-64.447179 13.153153-76.610364 39.459644-.624378 1.350019-.947804 2.820545-.947804 4.308985 0 5.650745 4.563192 10.231371 10.19192 10.231371h276.61616c5.628728 0 10.19192-4.580626 10.19192-10.231371 0-1.48844-.323426-2.958966-.947804-4.308985-12.163185-26.306491-37.700106-39.459644-76.610364-39.459644zm-.060864 12c16.920438 0 31.043409 2.649844 42.25765 8.358302 4.57949 2.331126 9.609391 6.669041 15.089209 13.014188.819549.948328 1.272173 2.169422 1.272173 3.434091 0 2.867633-2.275938 5.192805-5.084793 5.193419h-248.830414c-2.808855-.000614-5.084793-2.325786-5.084793-5.193419 0-1.264669.452624-2.485763 1.272173-3.434091 5.479818-6.345147 10.509719-10.683062 15.089209-13.014188 11.214241-5.708458 25.337212-8.358302 42.25765-8.358302zm124.169594-71c-21.843172 0-39.550562 18.180008-39.550562 40.606185 0 22.426176 18.606266 44.393815 40.449438 44.393815l2.543545-.004614c9.7242-.054159 16.894732-.744084 26.07067-9.532935 9.95761-9.537549 10.936347-19.998294 10.936347-31.068636 0-22.426176-18.606266-44.393815-40.449438-44.393815zm-391.1011238 0c-21.8431721 0-40.4494382 21.967639-40.4494382 44.393815l.0028586.994677c.0639466 10.702478 1.2746069 20.822536 10.9334887 30.073959 9.5622929 9.158908 16.9467491 9.522517 27.3129116 9.537549h1.3013029c21.8431721 0 40.4494382-21.967639 40.4494382-44.393815 0-22.426177-17.7073897-40.606185-39.5505618-40.606185zm327.3029018-122-2.023668.166982c-12.944877 1.0457551-28.327707 1.8673631-46.148488 2.464824l-4.257063.1370607c-19.269364.5958041-45.543525 1.0913037-78.823598 1.4865021l-12.151277-.1529001c-27.915245-.3721156-50.338995-.8228667-67.271249-1.3522534l-3.657181-.1184093c-18.758717-.6289062-34.816102-1.5061748-48.172156-2.631806l-45.24766 105 176.5-3.531257 176.5 3.531257z" fill-rule="evenodd"/></svg>