<svg height="960" viewBox="0 0 960 960" width="960" xmlns="http://www.w3.org/2000/svg"><path d="m560.367591 12.6080977c66.235651 4.6285005 128.400193 11.5226323 175.463622 19.3401838 23.747051 3.9445446 43.284878 8.0610833 57.888711 12.2823688 8.550204 2.4714644 15.711875 5.0497547 21.776759 8.0090645 4.286349 2.0914879 8.175964 4.4316895 11.819439 7.3334233 2.404723 1.9151681 4.644992 4.009803 6.674782 6.3467722l.028291.0330826.126476.1323539c7.372094 7.8475817 11.570165 18.6262533 10.756821 30.18917l-.052497.6679462-67.5578 777.86853.019072.601892c.032639 1.356729.012439 2.716448-.061273 4.076872l-.050653.816322c-1.029644 14.724584-7.915181 27.233492-18.378101 36.99232-7.238345 6.751247-16.049903 12.08977-26.421931 16.583889-16.516575 7.156503-38.048122 12.524772-63.989817 16.346866-49.620559 7.310795-114.831287 8.797805-183.662538 3.987928-68.831253-4.809879-133.199755-15.351789-181.319271-29.492681-25.157131-7.392932-45.731899-15.703711-61.091847-25.088054-9.645932-5.893297-17.62909-12.405883-23.857714-20.098841-8.048343-9.940489-12.959698-21.659706-13.175412-34.552686l-.006515-.594827-.1604-1.946559c-.152782-1.849425-.176651-3.70692-.071569-5.559024l.052931-.79339 8.784038-114.527027-.563463-.402396c-63.209036-45.852797-98.477546-137.957141-90.806966-236.663931l.278153-3.367504c8.524119-97.431125 57.269987-181.83713 125.698821-218.047396l.586455-.305773 15.804882-206.0192379c1.023841-13.3461434 8.489788-24.6692699 19.126994-31.1375605l.434124-.2592017.442134-.3366201c3.744698-2.809034 7.68308-4.9258128 11.920967-6.6775155l.671645-.2735985c6.627548-2.6607933 14.212084-4.509494 23.327623-5.9870223 14.743161-2.38970415 34.671275-3.90884583 59.115735-4.6215907 48.122616-1.40314605 112.295705.38232769 180.429292 5.1434519zm-309.487094 749.8657923-5.863374 76.444373.204883 2.563083-.019883.117917.127265 1.538233c-.29055 4.155058 1.565185 8.349929 5.342302 12.51852 23.791986 25.642696 120.068066 50.230464 236.482755 58.370972l4.066571.277092c133.95339 8.887725 243.524318-7.55909 245.588977-37.085079l.007007-.225406.092756.006405 7.057215-81.273024c-2.265793.888163-4.716003 1.732546-7.350904 2.538999-13.97593 4.27755-33.586483 7.587136-57.814251 9.840606-48.83244 4.541994-114.172622 4.598156-183.490271-.079299-69.318311-4.677499-134.015553-13.508471-181.71972-24.564948-23.670906-5.486247-42.61731-11.398584-55.846622-17.514397-2.473282-1.14338-4.761679-2.299463-6.864706-3.474047zm52.988722-690.7771774-16.743082 218.2699804-.055014.01857-31.44092 410.064418.03812.018355-2.867148 37.392615c.10124.510197.16336 1.033369.183304 1.56598l.005679.253547.014289.020448c.223533.3123.594264.731451 1.126724 1.230851l.183497.169402.18049.160299-1.946035-.129915-.814585 10.56274c29.038239 19.428594 126.972665 38.842246 244.250261 46.755969 117.721436 7.943672 217.813816 1.795476 248.971859-13.672589l.949465-11.01712-1.759641-.116751c.399301-.30412.700817-.57174.908964-.790517l.037712-.041817c.191552-1.227852.603345-2.375498 1.191351-3.404885l57.429006-661.506699c-.388093.172659-.786201.340701-1.194498.504731-4.205018 1.689332-9.827678 3.060755-16.94542 4.215243-13.211389 2.14287-31.935267 3.571185-55.16805 4.249065-47.029035 1.3722-110.209221-.386841-177.389254-5.084526-67.180033-4.697686-129.990164-11.7487462-176.370543-19.6527692-22.91234-3.9046612-41.255216-7.9249356-54.039803-11.8856213-6.887799-2.1338515-12.264874-4.2744508-16.193859-6.5325673-.907481-.5215591-1.754707-1.0575736-2.542869-1.6164366zm218.34925 131.3929684c56.009742 4.534772 98.146873 7.150805 126.411393 7.848098l1.703654.040091c6.26848.140363 13.084255.214973 20.447325.223831l2.02168.000786c25.440609-.010558 57.241831-.785282 95.403666-2.324174l-39.53474 471.904522c-59.871615 5.809539-104.060708 8.714309-132.567279 8.714309s-65.434486-2.90477-110.783745-8.714309zm-255.892374 95.844425c-54.176437 29.272354-96.174197 100.011865-103.669388 185.682286-7.697451 87.98227 23.176625 166.775194 73.800397 203.873554l1.319721-17.234871c-40.002945-44.930635-60.54157-116.013862-53.984146-190.965565 6.348458-72.563205 37.073161-137.23459 82.059645-175.204669zm-1.577776 20.570824c-37.792872 35.987043-65.091348 94.192026-70.993693 161.656137-6.107024 69.803611 12.065034 133.822932 45.116561 175.82487zm321.879182 67.710678c-9.379896 40.628794 10.717457 79.96028 44.888694 87.849332 34.171238 7.889052 69.476408-18.651754 78.856304-59.280548s-10.717457-79.96028-44.888694-87.849332c-34.171238-7.889052-69.476408 18.651754-78.856304 59.280548zm20.619321 4.067741c6.7088-29.059005 31.960179-48.041833 56.400535-42.399332 24.440355 5.6425 38.814621 33.773629 32.105821 62.832634s-31.960179 48.041833-56.400535 42.399332c-24.440355-5.6425-38.814621-33.773629-32.105821-62.832634zm45.419138-104.053716c-1.490844 6.457557 1.703437 12.708919 7.134627 13.962808s11.042608-2.964517 12.533453-9.422074c1.490844-6.457557-1.703437-12.708919-7.134627-13.962808s-11.042608 2.964517-12.533453 9.422074zm-271.605704-230.2955128c-22.080302.6442531-39.795048 1.9793362-51.973493 3.9073117l-.15464.0248313.149636.0467206c11.604435 3.5469163 28.598544 7.2714388 49.890303 10.9258288l1.033596.1767695c45.673796 7.7836091 107.843062 14.7627263 174.405765 19.4172438 66.562702 4.6545176 129.098247 6.3956104 175.410818 5.0443146 22.080302-.6442531 39.795048-1.9793362 51.973493-3.9073117l.444389-.0715656-.288815.0463319-.15057-.0463182c-11.604435-3.5469163-28.598544-7.2714388-49.890303-10.9258288l-1.033596-.1767695c-45.673796-7.7836091-107.843062-14.7627263-174.405765-19.4172438-66.562702-4.6545176-129.098247-6.3956103-175.410818-5.0443146z"/></svg>