<svg height="960" viewBox="0 0 960 960" width="960" xmlns="http://www.w3.org/2000/svg"><path d="m814 1c80.081289 0 145 64.9187113 145 145v669c0 80.081289-64.918711 145-145 145h-669c-80.0812887 0-145-64.918711-145-145v-669c0-80.0812887 64.9187113-145 145-145zm-396 306h-149v335h149zm257 0h-149v335h149zm-486 0h-42v41h-46v46h46v202h-46v46h134v-46h-46zm669 0h-149v335h149zm-482 194v99h-65v-99zm257-152v251h-65v-251zm183 0v251h-65v-251zm-325 166h-46v46h46zm-115-166v106h-65v-106zm115 34h-46v46h46z" fill-rule="evenodd"/></svg>