<svg height="960" viewBox="0 0 960 960" width="960" xmlns="http://www.w3.org/2000/svg"><g fill="#000" fill-rule="evenodd"><ellipse cx="671" cy="416.5" rx="30" ry="41" transform="matrix(.96592583 .25881905 -.25881905 .96592583 130.661903 -159.475686)"/><path d="m749.542188 116.378917c56.522964 8.066041 108.421051 39.461878 147.91709 84.766046 36.024377 41.321979 58.609308 91.11175 58.609308 132.857108v202.059949c0 49.342116-15.630773 100.131043-43.938459 142.699483-30.278533 45.532155-73.415205 79.46386-124.590935 95.416376-47.55247 14.823073-75.320645 23.358853-102.530122 31.330219l-3.263686.954221-2.176457.634222-2.179542.633442c-6.545439 1.899807-13.162054 3.79787-20.11562 5.773302-49.64474 14.103527-101.513737 27.543285-164.071128 42.332325-52.987774 12.52671-105.790907 11.148103-159.668348-1.866609-41.700951-10.073342-80.850382-25.892525-128.376982-49.758953-5.350765-2.686994-17.138075-8.780895-29.212921-15.029123l-3.152439-1.631334c-.369821-.19138-.73941-.38264-1.108591-.573686l-1.106143-.572402c-.368188-.190525-.735791-.380742-1.102634-.570559l-1.098066-.568156c-11.502014-5.951057-22.073565-11.412011-26.19784-13.464687-92.0631249-45.820362-139.3869312-120.289365-139.3869312-218.389468v-161.622419c0-20.36887.94900397-36.503983 4.70174125-58.024682 5.63202815-32.297807 16.33413545-63.810252 33.52195705-93.553647 13.4780103-23.323594 30.5502069-44.760907 51.487212-63.852004 28.6437089-26.11834 60.1618979-44.0383 93.2290499-55.051475 23.910656-7.963561 45.911393-11.598277 67.346562-12.707583 11.233095-.581331 27.719209-1.339864 53.590328-2.480051l.895834-.039468c3.159559-.139159 18.154856-.794459 34.240542-1.49839l1.098315-.048065c.183292-.008022.366694-.016049.550188-.024079l1.101965-.04823 2.207634-.096631 1.912101-.083707.703656-.030808 1.40489-.061514.68811-.030132 1.372193-.060093c11.865854-.519679 22.987028-1.007611 29.000875-1.273986 8.22223-.364192 15.874638-.70606 23.157229-1.034899 64.606487-2.9172456 104.158748-5.0207834 114.410907-6.2047098 31.04479-3.5850743 119.09991 4.9505618 230.129157 20.7948568zm2.853986 41.038066-72.325974.002694-5.520791.374609c-190.731689 12.93877-310.436053 21.266979-359.064954 24.981052l-1.466438.112254c-31.070246 2.383961-67.050324 26.649528-96.591911 63.958614-29.108848 36.762567-47.300906 80.404969-47.300906 115.074976v260.045597c0 47.963287 11.64548 86.051505 32.174974 115.31955 15.42568 21.991748 34.964191 37.639414 54.649165 46.823485.951402.443879 1.800158 1.018392 2.534874 1.692215 64.660556 28.872535 140.657106 50.931405 224.515787 31.106579 131.98809-31.202982 203.714131-53.51157 291.635319-80.918394s140.433267-117.625362 140.433267-199.928194l.001159-58.303509c-15.925365 9.842275-48.24747 19.322701-98.63195 29.640922-35.914288 7.354875-82.459614 16.186262-130.196236 24.619062l-3.452783.608879c-5.757657 1.013554-11.529305 2.020667-17.298434 3.018059l-4.383785.756092c-16.800594 2.890772-33.544315 5.691985-49.822943 8.32255-94.750607 15.31134-168.500531 24.185834-210.429103 24.185834-51.520241 0-84.553734-3.534757-120.051864-12.027397-9.553549-2.285609-19.15344-4.860354-32.905015-8.755762-1.443595-.408927-4.392133-1.249057-7.488358-2.13221l-.642261-.183208c-.107246-.030594-.214556-.061208-.321876-.091825l-.643574-.183617c-4.39238-1.253256-8.612219-2.458731-8.824043-2.519465l-.960086-.27359c-5.825499-1.659147-10.742697-3.0471-15.571711-4.390839l-1.60753-.446586-1.607748-.44518c-5.323195-1.471546-8.445572-6.979771-6.974026-12.302966 1.471546-5.323194 6.979771-8.445571 12.302966-6.974025.27091.07489.541509.149756.811939.224637l2.433097.675378c5.142982 1.431092 10.377848 2.909849 16.674885 4.704747l-.020741-.005908c.219133.062836 3.987132 1.139244 8.093447 2.311027l2.009656.573378c3.206176.914583 6.302474 1.796908 7.786886 2.217397 12.308764 3.486703 21.176883 5.881665 29.639504 7.95059l1.23589.300531c.411233.09946.821854.198234 1.232214.296409 33.89729 8.109652 65.38016 11.478484 115.398349 11.478484 40.506913 0 113.536697-8.787837 207.238567-23.929706 19.033322-3.075713 38.708281-6.386253 58.364434-9.800451l4.367456-.760363c51.671548-9.016564 102.874766-18.682723 141.60031-26.613314 54.976858-11.258693 87.751436-21.78646 95.575179-29.603706 1.952287-1.950665 4.510059-2.925913 7.067781-2.925995l.000348-121.274303c0-59.278482-68.524436-157.952265-163.672412-176.585088zm-228.394411-22.097c-14.207969 1.640746-70.295046 4.335875-128.936744 6.955283l-3.630235.161919c-.605468.026967-1.21112.053924-1.816915.080868l-10.292941.456198c-2.515574.111129-5.029397.221934-7.538387.332327l-3.008271.132269c-46.586124 2.046923-91.07376 3.939055-113.632706 5.106519-24.425194 1.264045-81.742301 8.176827-135.691621 57.369712-75.1289572 68.505223-76.6315363 158.518442-76.6622012 184.371209v163.124346c0 81.808339 37.710748 143.012469 117.2097242 182.579581 8.464122 4.212643 17.302458 8.799213 26.49867 13.594676l-.57359-.813602c-22.927246-32.686418-35.801346-74.793017-35.801346-126.804509v-260.045597c0-39.663524 19.922465-87.45714 51.621059-127.490385 32.68005-41.27276 73.206687-68.604602 110.741694-71.484591 43.709107-3.353717 148.166085-10.650402 313.409015-21.892884-48.205531-5.134412-85.920904-7.578063-101.895205-5.733339z" fill-rule="nonzero"/></g></svg>