<svg height="960" viewBox="0 0 960 960" width="960" xmlns="http://www.w3.org/2000/svg"><g fill="#000"><path d="m399.49377 13.4456263c189.254459-46.4858942 383.194472 82.7246579 434.766582 286.4982227 51.622242 203.971651-58.270037 408.179517-247.754122 454.721812-30.589679 7.513634-61.745923 10.5174-92.804513 9.00367l-.419883 3.0073c6.377222.206168 12.111809.427861 17.262629.663973l2.864976.135807c20.332466.997763 41.707507 3.682587 64.250373 8.135231 12.540143-6.058596 20.93593-10.654618 24.476243-13.220862l.115163-.083166.365762-.263151.112995-.080998c7.431383-5.307482 17.461748-10.984078 27.268385-15.597469 13.522021-6.36124 23.808265-9.946529 35.01988-9.946529 7.897865 0 15.246461 1.214293 22.905645 5.011138 14.284065 7.08096 23.947406 21.452023 23.947406 38.386087v99.080673c-.004143 18.529597-10.048856 35.592235-26.240722 44.583233l-.126255.069809-.657697.362108-.143209.078466c-22.350128 12.186659-50.58458 19.779158-84.898527 23.485864-.309002.033379-.618383.063156-.928079.089324-19.836982 1.676157-35.230264 1.432462-47.920087-1.6524-7.054514 4.696031-15.400603 7.604206-24.406611 8.141862l-.686312.040868c-4.600501.27239-8.400962.486247-11.429052.642934l-4.445831.224445c-94.890687 4.671154-192.87715 1.026216-267.103011-13.93641-20.218947-4.075784-39.010486-10.648697-56.2588-19.746885-17.091485-9.015476-27.789034-26.750315-27.791451-46.073791l-.000001-26.987575c0-16.248075 9.726466-30.37427 23.879388-36.569066 18.772825-13.890324 38.34969-24.05074 58.68911-30.268028l26.60164-115.375701c-55.923681-51.776211-96.651488-120.336887-116.266136-197.838984-48.395852-191.223423 45.164418-382.6544563 213.178574-444.1860383zm51.918218 794.8114037c-27.945759-4.12446-48.413155-5.251572-84.696695-3.443589-53.909506 2.686273-76.672292 5.287367-104.517495 12.213745-1.603452.420095-3.225103.855277-4.872968 1.306233-19.258999 5.270431-38.072378 15.176811-56.440137 29.71914l-2.049047.166658v26.982571c.000562 4.487232 2.48471 8.605556 6.453632 10.699097 13.793895 7.276041 28.960868 12.58115 45.500918 15.915333 81.413673 16.411563 186.373955 16.684153 257.182193 13.198522l4.395334-.221864c2.916593-.150918 6.622719-.359467 11.118378-.625646l.680261-.040508c2.147509-.128206 4.101341-.934459 5.658278-2.203095l-.000298-82.426187c.000697-4.539907-3.115722-8.484617-7.531055-9.534213-12.742959-3.029932-27.250741-5.60579-43.513624-7.719822-4.247376-.552121-8.429848-1.143473-13.402038-1.883938-1.909666-.28439-11.351895-1.71668-13.965637-2.102437zm213.606252-31.837563c-6.776051 0-28.190466 10.34552-39.040619 18.094681l-.365763.263152c-6.861182 4.97342-19.924065 11.958353-39.188648 20.9548-7.265955 5.712049-10.617642 10.628858-10.617642 14.322993v74.718674c0 1.491766.037228 2.757656.100603 3.798184 5.604115.054347 12.138507-.233044 19.602771-.863749 29.514457-3.188248 52.862994-9.466881 70.045612-18.835897l.657697-.362108c3.491917-1.938987 5.658147-5.618693 5.65904-9.612832v-99.080673c0-2.264816-2.28435-3.397225-6.853051-3.397225zm-122.177889 33.907111.073454.08805c4.348109 5.217044 6.910537 11.906577 6.910537 19.084349l-.000481 73.983943c1.960988.7538 3.955906 1.474925 5.984752 2.163375l-.001397-.275592-.001648-.596936v-74.718674c0-5.877423 1.876214-11.474042 5.517364-16.874543-6.272792-1.098659-12.433637-2.050069-18.482581-2.853972zm-235.501445-136.890627-27.510077 119.32921c21.426803-3.865338 45.139575-5.896316 85.891113-7.926937 35.728014-1.780301 57.159703-.790368 84.21887 3.000756l6.714753-48.087992c-53.864777-9.115572-105.045863-32.175602-149.314659-66.315037zm171.846812-629.4307406-4.987456.0132594c-21.627545.2453407-43.445675 2.9381405-65.16305 8.2725013-167.056729 41.0335448-264.89065 222.8339089-218.518178 406.0624779.450262 1.779093.912465 3.55178 1.386486 5.317979.035142.130938.07032.261735.105563.392496l-.105563-.392496c.479641 1.787137.971382 3.567632 1.475097 5.341401l-1.369534-4.948905c.488959 1.814162.99039 3.621466 1.504163 5.421824l-.134629-.472919c1.041502 3.667509 2.134196 7.306264 3.276973 10.915522.025039.079081.050106.15816.075196.237225l-.075196-.237225c.535988 1.692823 1.082993 3.379159 1.6409 5.058929l-1.565704-4.821704c.578426 1.8227 1.169626 3.637867 1.773458 5.445408l-.207754-.623704c.596382 1.79561 1.205222 3.583719 1.826379 5.364233l-1.618625-4.740529c.566647 1.696225 1.144417 3.385734 1.733193 5.068447l-.114568-.327918c.618767 1.773661 1.249757 3.539785 1.892832 5.29828l-1.778264-4.970362c.624854 1.785821 1.262103 3.563987 1.911606 5.334405.585722 1.596563 1.181326 3.186603 1.786789 4.770274l-1.786789-4.770274c.636952 1.736207 1.285689 3.464961 1.946078 5.186175l-.159289-.415901c.644232 1.685076 1.299625 3.362941 1.966056 5.033513l-1.806767-4.617612c.65961 1.719184 1.330844 3.430845 2.013569 5.134894l-.206802-.517282c1.381087 3.462034 2.809575 6.892743 4.284351 10.291386.047924.110442.09607.221249.144266.332023l-.144266-.332023c.708421 1.632568 1.427523 3.257737 2.157182 4.875424l-2.012916-4.543401c.729452 1.676571 1.470172 3.345324 2.222028 5.006169l-.209112-.462768c.761961 1.689302 1.535435 3.370446 2.320281 5.043337l-2.111169-4.580569c.728165 1.60851 1.466774 3.209603 2.215707 4.803198l-.104538-.222629c.774127 1.650043 1.559317 3.292059 2.355436 4.925956l-2.250898-4.703327c.793461 1.688345 1.59851 3.368274 2.415002 5.039689l-.164104-.336362c.763062 1.566053 1.536164 3.124649 2.319188 4.675708l-2.155084-4.339346c.813334 1.664953 1.638023 3.321459 2.473923 4.969422l-.318839-.630076c.82202 1.628305 1.654975 3.248304 2.498727 4.859905l-2.179888-4.229829c.784151 1.545942 1.578169 3.084366 2.381935 4.615195l-.202047-.385366c.861503 1.645508 1.734262 3.282261 2.618132 4.910162l-2.416085-4.524796c.827942 1.576873 1.666227 3.145686 2.514727 4.706353.818918 1.50625 1.647009 3.004304 2.484491 4.494699l-2.484491-4.494699c.865455 1.591853 1.741537 3.175231 2.628108 4.750043l-.143617-.255344c.847223 1.50773 1.704057 3.007623 2.570382 4.499597l-2.426765-4.244253c.886594 1.574852 1.783678 3.141137 2.691116 4.698765l-.264351-.454512c.927005 1.596479 1.864878 3.183893 2.813471 4.762142l-2.54912-4.30763c.867702 1.489422 1.744872 2.970928 2.631388 4.444438l-.082268-.136808c.922705 1.535178 1.855554 3.061685 2.79841 4.579433l-2.716142-4.442625c.93116 1.547714 1.872632 3.086607 2.824278 4.616586l-.108136-.173961c.91153 1.46732 1.832413 2.926452 2.762529 4.377314l-2.654393-4.203353c.95215 1.530789 1.914483 3.052655 2.886862 4.565505l-.232469-.362152c.95231 1.485485 1.914299 2.9623 2.885833 4.43036l-2.653364-4.068208c.938516 1.460166 1.886391 2.911933 2.843498 4.355218l-.190134-.28701c.998088 1.508182 2.00625 3.007124 3.024346 4.496729l-2.834212-4.209719c1.004819 1.515233 2.019815 3.021118 3.044842 4.517558l-.21063-.307839c.962481 1.408233 1.93384 2.808123 2.913957 4.199589l-2.703327-3.89175c1.011934 1.477324 2.033646 2.945444 3.064996 4.404266l-.361669-.512516c1.004095 1.425509 2.017382 2.842177 3.039732 4.249919l-2.678063-3.737403c.994682 1.406955 1.998328 2.805262 3.010816 4.194838l-.332753-.457435c2.096381 2.886647 4.230867 5.735758 6.402345 8.546593.082722.107077.16506.213535.247451.319937l-.247451-.319937c1.041793 1.348532 2.092101 2.688254 3.1508 4.019083l-2.903349-3.699146c1.074184 1.387228 2.157386 2.765106 3.249472 4.133546l-.346123-.4344c1.104994 1.389024 2.21913 2.768362 3.342267 4.137919l-2.996144-3.703519c1.053282 1.319817 2.114829 2.630853 3.184519 3.933029l-.188375-.22951c1.129192 1.37694 2.267483 2.743994 3.414731 4.101068l-3.226356-3.871558c1.113619 1.355654 2.236065 2.701704 3.367201 4.038061l-.140845-.166503c1.089512 1.288779 2.187102 2.568556 3.292649 3.839252l-3.151804-3.672749c1.149018 1.357482 2.307002 2.704961 3.473812 4.042344l-.322008-.369595c1.119474 1.286703 2.247107 2.564094 3.382771 3.832088l-3.060763-3.462493c1.123609 1.287867 2.255403 2.566371 3.395252 3.835427l-.334489-.372934c2.354027 2.628323 4.742564 5.216272 7.164485 7.763098.055463.058323.111038.116724.16663.175103l-.16663-.175103c1.147517 1.206698 2.302529 2.404164 3.464915 3.592318l-3.298285-3.417215c1.206076 1.266538 2.420414 2.522885 3.642876 3.768952l-.344591-.351737c2.456796 2.511258 4.946538 4.980921 7.468094 7.408234.036905.035525.073843.071067.110788.1066l-.110788-.1066c1.19798 1.153205 2.403141 2.296851 3.615361 3.430858l-3.504573-3.324258c1.259134 1.211007 2.526191 2.411459 3.80103 3.601263l-.296457-.277005c1.265099 1.183473 2.537888 2.356447 3.818228 3.518831l-3.521771-3.241826c1.222843 1.141276 2.452846 2.272754 3.689886 3.394352l-.168115-.152526c1.282939 1.164743 2.573461 2.318852 3.871427 3.462236l-3.703312-3.30971c1.276871 1.157712 2.561239 2.304897 3.852967 3.441466l-.149655-.131756c1.262078 1.111771 2.531195 2.2134 3.807222 3.304804l-3.657567-3.173048c1.285582 1.13116 2.578455 2.251803 3.878484 3.361841l-.220917-.188793c1.288984 1.102486 2.58502 2.194537 3.887976 3.276067l-3.667059-3.087274c1.284257 1.09657 2.575498 2.18279 3.873593 3.258573l-.206534-.171299c44.469965 36.912658 97.001132 61.568536 152.373604 70.489932.045839.007385.091176.014678.136515.021961l-.136515-.021961c1.640822.264362 3.284138.514909 4.929813.751549l-4.793298-.729588c1.612113.258963 3.226631.504589 4.843424.736791l-.050126-.007203c1.632286.234714 3.266893.455748 4.903687.663011l-4.853561-.655808c1.627137.233688 3.256578.453781 4.888192.660191l-.034631-.004383c1.589858.20132 3.18178.389649 4.775646.564906l-4.741015-.560523c1.685545.213233 3.373409.411864 5.063447.595796l-.322432-.035273c1.645695.180956 3.293462.347976 4.943166.500971l-4.620734-.465698c1.644576.178984 3.29121.34405 4.939771.495108l-.319037-.02941c1.669991.154876 3.341967.29538 5.01579.421419l-4.696753-.392009c1.622231.148646 3.246327.283729 4.872161.405164l-.175408-.013155c1.665378.125403 3.332585.236488 5.001483.333162l-4.826075-.320007c1.62121.121089 3.244149.228608 4.868689.322472l-.042614-.002465c1.624214.094086 3.25003.174523 4.877323.241228l-4.834709-.238763c1.6815.097156 3.364717.179683 5.04951.247488l-.214801-.008725c1.66235.068141 3.326241.121952 4.991539.161343l-4.776738-.152618c1.656713.066674 3.314951.119114 4.97458.15723l-.197842-.004612c1.664614.039375 3.330635.064342 4.997926.074811l-4.800084-.070199c1.657934.038077 3.317257.06186 4.977837.07126l4.781206-.01272c.06701-.000736.134022-.001496.201036-.002279 1.598192-.018681 3.196983-.050715 4.796694-.096185l-4.796694.096185c1.657933-.019376 3.316982-.053136 4.977018-.101367l-.180324.005182c1.66644-.047367 3.333879-.109315 5.002183-.185932l-4.821859.18075c1.668663-.048482 3.338322-.111585 5.008845-.189399l-.186986.008649c1.661639-.076311 3.324138-.167175 4.987363-.272678l-4.800377.264029c1.685261-.0785 3.371401-.171972 5.058283-.280505l-.257906.016476c1.674233-.106201 3.349203-.227237 5.024776-.363195l-4.76687.346719c1.669686-.107428 3.340099-.229613 5.011106-.366642 1.603701-.13151 3.208189-.276716 4.813107-.435678l-4.813107.435678c1.635516-.13412 3.271601-.282461 4.90813-.445106l-.095023.009428c1.665288-.164942 3.331039-.344694 4.997122-.539343l-4.902099.529915c1.680033-.166969 3.360535-.349012 5.04137-.546221l-.139271.016306c1.674753-.195662 3.349842-.406378 5.025132-.632234l-4.885861.615928c1.674459-.19646 3.349248-.40797 5.024236-.634618l-.138375.01869c1.690608-.227923 3.381422-.471264 5.072305-.730117l-4.93393.711427c1.656601-.22416 3.313395-.463129 4.970254-.716991l-.036324.005564c1.658548-.253903 3.317163-.52273 4.975715-.806566l-4.939391.801002c1.67797-.257096 3.356008-.529468 5.033978-.817205l-.094587.016203c1.646209-.281724 3.292356-.578234 4.938315-.889616l-4.843728.873413c1.703586-.29213 3.407104-.600097 5.110412-.923994l-.266684.050581c1.705625-.322669 3.411048-.661308 5.116128-1.016008l-4.849444.965427c1.646309-.313059 3.292423-.641001 4.938215-.983908l-.088771.018481c1.670754-.34756 3.341179-.710542 5.011143-1.089035l-4.922372 1.070554c1.676206-.349245 3.352079-.714015 5.027484-1.094398l4.955236-1.171013c167.056729-41.033545 264.89065-222.833909 218.518178-406.062478-39.416601-155.744283-170.334995-262.3898325-311.317354-265.6795251z"/><path d="m310.13262 793.955931c-6.475411 1.258566-13.321872-5.936724-15.291999-16.071128-1.970127-10.134405 1.682127-19.370232 8.157538-20.628797 6.47541-1.258566 13.321871 5.936723 15.291998 16.071128 1.970127 10.134404-1.682127 19.370231-8.157537 20.628797z" fill-rule="evenodd"/></g></svg>