<svg height="960" viewBox="0 0 960 960" width="960" xmlns="http://www.w3.org/2000/svg"><g fill="#000" fill-rule="evenodd"><path d="m478.040368 386.777659c42.431672 0 76.829339 34.397668 76.829339 76.82934 0 35.157776-23.615191 64.799929-55.848744 73.929628l-.000779 365.060321c0 11.045695-8.954305 20-20 20s-20-8.954305-20-20l-.000809-364.533358c-33.231526-8.463895-57.808347-38.590131-57.808347-74.456591 0-42.431672 34.397667-76.82934 76.82934-76.82934zm242.904838-162.830379c62.395679 63.187215 98.054794 148.383698 98.054794 239.19129 0 91.711526-36.376339 177.683522-99.875883 241.021562-7.820425 7.800534-20.483714 7.784409-28.284249-.036015-7.800534-7.820425-7.784409-20.483714.036015-28.284249 56.045555-55.903009 88.124117-131.717619 88.124117-212.701298 0-80.186223-31.445781-155.316241-86.516773-211.08585-7.761103-7.859558-7.681289-20.522606.178269-28.283709 7.859559-7.761103 20.522607-7.681289 28.28371.178269zm-453.606702-.178269c7.859558 7.761103 7.939372 20.424151.178269 28.283709-55.070992 55.769609-86.516773 130.899627-86.516773 211.08585 0 80.983679 32.078562 156.798289 88.124117 212.701298 7.820424 7.800535 7.836549 20.463824.036015 28.284249-7.800535 7.820424-20.463824 7.836549-28.284249.036015-63.499544-63.33804-99.875883-149.310036-99.875883-241.021562 0-90.807592 35.659115-176.004075 98.054794-239.19129 7.761103-7.859558 20.424151-7.939372 28.28371-.178269zm349.659505 107.270834c34.396531 35.287601 54.001991 82.444448 54.001991 132.631614 0 52.207579-21.223511 101.095711-58.106466 136.714983-7.945412 7.673187-20.606789 7.452505-28.279976-.492908-7.673187-7.945412-7.452505-20.606789.492908-28.279976 29.161071-28.161955 45.893534-66.705006 45.893534-107.942099 0-39.642978-15.454675-76.815976-42.6456-104.711304-7.70998-7.909714-7.548065-20.571978.36165-28.281959 7.909714-7.709981 20.571978-7.548065 28.281959.361649zm-245.711443-.360976c7.909342 7.710362 8.070647 20.372634.360285 28.281976-27.191409 27.893135-42.646851 65.066653-42.646851 104.710614 0 41.237093 16.732463 79.780144 45.893534 107.942099 7.945413 7.673187 8.166095 20.334564.492908 28.279976-7.673187 7.945413-20.334564 8.166095-28.279976.492908-36.882955-35.619272-58.106466-84.507404-58.106466-136.714983 0-50.188647 19.606642-97.346654 54.004589-132.632304 7.710362-7.909343 20.372634-8.070648 28.281977-.360286zm106.753802 96.09879c-20.340283 0-36.82934 16.489058-36.82934 36.82934 0 13.380551 7.135589 25.094496 17.809079 31.544146l.000077-31.544146c0-11.045695 8.954305-20 20-20s20 8.954305 20 20l.000885 30.272983c9.577779-6.650397 15.848638-17.729371 15.848638-30.272983 0-20.340282-16.489057-36.82934-36.829339-36.82934z" fill-rule="nonzero"/><circle cx="478.040368" cy="463.606999" r="56.82934"/></g></svg>