<svg height="960" viewBox="0 0 960 960" width="960" xmlns="http://www.w3.org/2000/svg"><path d="m1009.8269 181.568004c1.68012 5.261087-1.22282 10.888048-6.48391 12.56817-64.999322 20.757447-112.457303 36.73036-142.306058 47.891363-25.745771 9.626821-60.653298 23.998648-104.688717 43.104664 1.128128.545454 2.258071 1.092008 3.388754 1.639349l3.257863 1.578255 3.259803 1.581586 3.259585 1.583892 3.118683 1.51771c7.768125 3.78317 15.498326 7.568937 23.058706 11.29474 39.510613-17.028656 71.280076-30.036748 95.340619-39.033432 30.222554-11.300773 77.942092-27.361718 143.226502-48.210209 5.26109-1.680121 10.88805 1.222825 12.56817 6.483912s-1.22282 10.888048-6.48391 12.56817c-64.999322 20.757447-112.457303 36.73036-142.306058 47.891363-20.477134 7.65678-46.757301 18.31816-78.820077 31.977839 6.618319 3.312104 12.962317 6.512022 18.922638 9.54812 27.998099 14.261813 46.247418 33.547606 56.233311 57.778988 7.665932 18.601853 9.995223 37.258546 9.995223 64.411638 0 45.186199-27.354389 77.647318-71.142369 91.923534-4.790523 1.561856-53.486394 14.168369-71.781616 19.217684-45.157868 12.463159-88.260659 25.965579-131.159351 41.769087-11.417229 4.206009-23.212308 8.703697-35.355073 13.474631-19.347021 7.60151-39.453843 15.847859-60.183885 24.652236-36.377125 15.449941-73.1065 31.936008-109.66524 48.993161-13.226173 6.170915-25.622532 12.039252-38.029175 17.97819-2.101335 1.005888-5.144223 2.467273-8.275223 3.972203l-.752694.361809-.753457.362214-.330166.158735-.658371.316546c-5.0341 2.420488-9.707585 4.669552-10.427555 5.012912-20.846604 9.941928-36.346854 14.396352-50.641103 14.268548-6.911641-.065931-13.369983-1.190005-20.080415-3.308966-1.159683-.366194-2.243856-.727552-3.336116-1.115258l-.597082-.214276c-3.194079-1.158745-6.585235-2.588461-12.231594-5.056921-12.574513-5.49729-45.646934-21.037391-80.456176-37.704753l-2.247981-1.076789-2.251681-1.079385c-1.126578-.540253-2.254125-1.081279-3.382009-1.622781l-3.760001-1.806353-2.462319-1.184197-2.459711-1.183956c-22.121286-10.652447-43.74856-21.191496-60.099889-29.344702-18.970695-9.45929-34.6600787-23.203494-46.9412744-40.272067-.6764824-.940184-1.2596116-1.919207-1.7511893-2.926024-29.8851113 14.731289-55.4011595 29.295248-71.27140979 41.32983-4.40066101 3.337069-10.67333026 2.474857-14.01039891-1.925804-3.3370686-4.400661-2.4748567-10.673331 1.9258043-14.010399 17.69024995-13.414707 45.3752494-29.107568 77.6621432-44.877794 4.4379122-2.167656 8.9059174-4.30444 13.2930459-6.363462 1.2813751-.780618 2.6217979-1.400758 3.9957279-1.864434 7.5663414-3.509328 14.7811052-6.736945 21.0519551-9.43248l1.183377-.507148c8.396809-3.587487 14.962945-6.152944 18.187956-7.058134 13.144706-3.689433 19.13885-11.038484 15.58505-22.760821-1.650529-5.444327-5.236817-8.190303-11.123528-9.22432-4.995939-.87755-11.191503-.189909-14.456157 1.04138-7.095467 2.676108-15.037325 5.832936-25.2601853 10.183938-15.2429176 6.487612-31.4697778 13.941426-48.3778049 22.388848-12.7267711 6.358425-25.4772719 13.627781-38.25105721 21.809832-4.65060752 2.978874-10.83552485 1.623667-13.81439949-3.026941-2.9788746-4.650607-1.6236674-10.835524 3.02694014-13.814399 13.36202247-8.558837 26.72848216-16.179366 40.09982456-22.859824 5.1434833-2.569737 10.2257163-5.049722 15.23884-7.440812-.9090889-1.956911-1.5133539-4.096206-1.7475686-6.363243-.5383338-5.210702-.8072558-10.313707-.8072558-15.214489 0-38.621608 15.9190806-62.635425 42.7309395-73.254683 2.873751-1.138194 60.7100241-18.870988 76.9385891-23.942685 54.244152-16.952201 104.744449-33.478037 152.514002-50.259896 22.064112-7.751313 42.89905-15.339729 62.36447-22.739965 41.320357-15.708903 81.237299-33.437716 118.605574-52.070274 26.334799-13.13105 49.029019-25.534276 64.526448-34.74249 38.611685-22.942172 67.533012-25.778888 100.141252-13.534191.93292.35032 1.80477.68277 2.65274 1.013278l.506215.1982c.335962.132147.669294.264494 1.002375.39806l.750016.303009c4.259073 1.733583 8.767656 3.78959 18.459229 8.281169 13.408432 6.214165 29.258004 13.689492 46.06579 21.722615 51.85769-22.702746 92.337898-39.496449 121.488378-50.396354 30.222554-11.300773 77.942092-27.361718 143.226503-48.210209 5.261089-1.680121 10.888049 1.222825 12.568169 6.483912zm-900.427901 292.675984-.383002.005767c-3.923093 1.220277-5.860826 1.841539-6.269438 2.003376-4.9771765 1.971289-8.6211216 4.720057-11.3441043 8.827656-3.821992 5.765448-6.1162443 14.514344-6.1162443 27.237721 0 1.532445.0374481 3.10678.112801 4.715404 8.9437301-3.762344 16.1731396-6.621634 22.7220146-9.091591 6.515558-2.457391 16.323696-3.54599 24.97409-2.026525 12.842252 2.255777 22.786112 9.869665 26.803219 23.120237 3.886299 12.819096 1.784734 24.307269-5.492184 33.22905-5.735227 7.031608-14.208533 11.890206-23.827931 14.590161-2.989926.839208-10.741688 3.97214-20.703282 8.341327 8.153808 10.38365 18.07806 18.658114 29.822035 24.513971 16.455978 8.205386 38.384964 18.887307 60.72631 29.641622l2.43863 1.17337c.40663.195571.813335.391137 1.220085.586683l3.725372 1.789841 3.350699 1.60789c36.087825 17.307517 71.139131 33.800445 83.832296 39.349607 8.068772 3.527483 12.357034 5.185359 15.928415 5.889774.979952-.322566 2.027288-.496291 3.1152-.496291 7.936734 0 14.337728-2.25297 19.19014-7.464865 6.813239-7.317986 10.886141-20.582146 10.886141-41.266653 0-44.718812-26.31713-80.536956-73.657566-101.214334-15.574209-6.80251-57.40746-24.54117-71.253828-30.397655l-1.820214-.769576c-1.607833-.679457-2.559635-1.080609-2.685398-1.131943l-.007199-.002568-1.135719-.485321c-5.181071-2.218746-9.979742-4.29267-14.610059-6.316519-12.881158-5.630178-24.590286-10.931882-36.255337-16.446745-14.20516-6.715745-25.128762-9.594244-33.285942-9.512871zm215.358467 129.681348c11.659346 28.857893 4.865894 60.049799-17.760072 69.191283-22.625967 9.141484-49.180486-8.576967-60.839832-37.43486-.950587-2.352788-1.783738-4.732465-2.49708-7.127547-1.57647-5.293069 1.43643-10.861931 6.7295-12.438401 5.29307-1.576469 10.861932 1.436431 12.438401 6.7295.533377 1.790839 1.15819 3.575453 1.872857 5.344316 7.995157 19.78871 24.26185 30.642629 34.804022 26.383315 10.542171-4.259314 14.703685-23.366764 6.708527-43.155474-7.995157-19.78871-24.26185-30.642629-34.804022-26.383315-2.524854 1.020107-4.697728 2.861571-6.466619 5.536966-3.045971 4.606941-9.249882 5.872357-13.856823 2.826386s-5.872357-9.249882-2.826386-13.856823c3.937497-5.955348 9.258457-10.464746 15.657696-13.050206 22.625967-9.141484 49.180486 8.576967 60.839831 37.43486zm297.293935-329.05041c-10.703128 1.049805-23.127914 5.596824-38.652765 14.821332-16.331515 9.70381-39.886599 22.577529-67.109846 36.151577-38.49921 19.196465-79.613848 37.457225-122.240201 53.662633-19.800223 7.527519-40.950835 15.230908-63.320841 23.089686-48.270682 16.957909-99.187834 33.620157-153.840429 50.700004-5.896635 1.842797-10.974354 3.424342-16.126613 5.021439l-1.031711.319708c-.332326.10295-.665208.206041-.998882.309346l-1.003639.310631c-3.843836 1.189333-7.822952 2.416482-12.295024 3.792257 1.895599.815906 3.829257 1.689658 5.801685 2.622159 11.475729 5.425357 23.00765 10.646825 35.717157 16.201977 4.964375 2.169861 10.13014 4.400409 15.767367 6.811131l-.182613-.078823c-.096099-.050159 19.355239 8.176987 39.325717 16.677417l2.031944.865081c13.209636 5.625096 26.364266 11.251049 33.968005 14.566081l.597289.260638c54.2722 23.705037 85.65226 66.413931 85.65226 119.54232 0 13.328978-1.537867 24.651169-4.554199 34.061735.432844-.208916.86696-.417616 1.300646-.626089l.742052-.356682c3.086647-1.483567 6.086101-2.924019 8.181735-3.927178 12.519292-5.992862 25.033066-11.916782 38.387505-18.147542 36.953191-17.241191 74.09604-33.912846 110.940969-49.561472 21.051199-8.940777 41.491634-17.32395 61.193062-25.064708 12.401124-4.872444 24.462011-9.471489 36.155426-13.779243 44.054714-16.229377 88.187039-30.054309 134.34481-42.793433 7.381051-2.037102 18.772347-5.064402 30.247122-8.096109l1.811928-.478583c.543443-.1435 1.086609-.286893 1.629082-.430075l1.083897-.286051c1.443632-.380943 2.880353-.759887 4.302248-1.134845l1.063517-.28044c15.023609-3.961429 28.150116-7.416792 29.886715-7.982976 28.311553-9.230429 43.541251-27.303326 43.541251-53.893707 0-22.348838-1.771385-36.536923-6.977904-49.17086-6.277151-15.231891-17.76557-27.372799-37.406277-37.377481-19.290114-9.826095-42.695948-21.412442-66.386368-32.941478l-3.231915-1.571616c-29.096643-14.138269-58.359634-28.06578-80.707061-38.422741-9.550472-4.426186-13.57125-6.255475-17.346492-7.773179l-.639677-.255143c-.852311-.337302-1.707369-.665263-2.626505-1.010407-10.196248-3.828786-18.257697-5.203224-26.994427-4.346291z"/></svg>