<svg height="960" viewBox="0 0 960 960" width="960" xmlns="http://www.w3.org/2000/svg"><path d="m480.243802 7.004 3.065678.03490204.104187.00141653c164.448159 2.66431907 296.586333 136.73591443 296.586333 301.31953343 0 104.771871-53.948406 200.321351-141.009017 255.140251-3.195861 2.012317-5.867722 3.547771-11.109122 6.459395l-1.066179.5923c-10.954699 6.08885-14.59518 8.892145-15.682947 11.298079-1.180378 2.610775-2.420233 5.59962-3.677131 8.840817l-.323478.838423c-1.546881 4.030318-3.061182 8.276956-4.470071 12.460857-.946749 2.811507-1.774899 5.391606-2.120929 6.535257l-.069284.230562c-.294588.980318-.659662 1.924794-1.088678 2.828562l-.032164.065645-13.889 167.578-.000487.084207c-.097651 4.24172-.792884 9.30629-2.365938 14.607403l-.201223.663829c-2.608542 8.427162-7.054833 16.056664-13.789706 22.120598l-.450646.399963-.065745.094618-.266461.384055c-1.284871 1.855608-2.567473 3.760276-3.744798 5.580667-.167304.258687-.331359.513966-.467842.72768l-.360003.566663c-1.520886 2.406612-2.61195 4.324898-2.90817 5.007828-1.043844 2.406563-1.351662 3.665361-2.230661 8.628529-.052187.29467-.09966.559649-.145603.811791l-.045717.248169-.017241.108474c-.516409 3.218624-.950042 6.88347-1.543499 12.798484l-.01626.159042-.014831.269572c-.210661 3.770631-.478021 9.333172-.800232 16.659455l-.017937.390973-.004673.364335c-.054146 3.851491-.082685 7.21402-.086356 10.073884l-.000304.934653c.001949 2.900658.031515 5.239553.087831 7.00057.159727 4.994685-1.556151 9.868218-4.809815 13.661113l-21.146085 24.650628c-.538993.628321-1.116477 1.222571-1.729119 1.779321l-13.787469 12.529624c-.424185.385486-.864483.752321-1.31962 1.099561l-.23439.172311-.12294.10694-.29808.250541-.121564.100326-.205685.16839-.128172.104052c-6.905514 5.558856-15.120755 7.8666-28.610674 8.445369-.285598.018382-.571426.018382-.857287.018382h-.196747c-.290203 0-.580372 0-.870301-.018945-2.054327-.089478-3.982992-.220278-5.801021-.397333-11.187383-.972897-17.946129-3.55504-24.16369-8.734962l-.071732-.060151-.3578-.26506c-.30338-.232171-.600139-.473058-.889898-.722381l-.429343-.380275-13.767019-12.550457c-.611625-.557577-1.18805-1.152581-1.72595-1.78158l-21.115471-24.691616c-3.24014-3.788894-4.948396-8.651315-4.789939-13.634197.182362-5.734588.182362-11.891989-.004054-18.491591-.062525-2.541352-.176345-5.316842-.347012-8.624365-.089007-1.724949-.182915-3.409616-.333782-6.027581-.043803-.759277-.043803-.759277-.087656-1.518643-.023602-.408931-.043162-.748433-.061162-1.061844l-.003914-.04741-.014868-.155882c-.591518-5.919132-1.025167-9.596324-1.541404-12.823969l-.050225-.311009-.056047-.339117c-.057352-.360767-.108415-.715577-.158753-1.092528-.01825-.136659-.03083-.23339-.055802-.427798-.215225-1.679887-.424698-2.564281-1.980804-7.153118-.109887-.32405-.425989-1.005618-.926786-1.902344-.684472-1.225614-1.597011-2.645535-2.676826-4.169382-1.214926-1.714516-2.55393-3.440273-3.893266-5.057193l-.364738-.437562c-.05932-.070707-.117881-.140284-.17565-.2087l-.185831-.219398-.43429-.365804c-7.099653-6.064725-11.785156-13.812968-14.549907-22.42212l-.185535-.588312c-1.721274-5.559001-2.48746-10.930401-2.591524-15.344777l-.000744-.033987-14.440059-164.143366c-.068914-.783378-.091849-1.559431-.071125-2.325624-.567727-1.056948-1.045774-2.175886-1.422383-3.347896l-.113762-.36593-.058535-.194912c-.384357-1.270459-1.276584-4.044453-2.291982-7.045846-1.515851-4.480672-3.135641-8.983495-4.763963-13.160561l-.328616-.838515c-1.106196-2.806934-2.185574-5.382998-3.217798-7.666082-.635514-1.405638-4.527051-4.229791-14.605575-9.386784l-1.039461-.530874-1.054765-.53759c-.701024-.357246-1.145641-.584094-1.631076-.832442l-1.076655-.552296c-.385332-.198279-.753825-.388635-1.150743-.594664l-1.088244-.567803c-3.624268-1.901692-6.594763-3.57382-9.411348-5.347321-87.060611-54.8189-141.009017-150.36838-141.009017-255.140251 0-164.583619 132.138174-298.65521436 296.586333-301.31953343l.160179-.00195354 4.113678-.03436503zm18.359335 895.957174c-4.984144.444451-10.463473.666677-16.437988.666677-5.543737 0-10.677045-.191335-15.399925-.574004l9.842776 8.943153c.151234.114338.29763.228555.442428.344805l.134572.111195.017128.003331c.139604.024686.289437.049476.449661.074225l.248147.037074c1.165546.168493 2.648319.307499 4.469391.405679l.174673.008691.192188-.009542c1.550823-.082396 2.865934-.19367 3.957565-.32776l.320797-.040905c.349867-.04631.657919-.092622.925581-.137663l.159869-.02813.116701-.095323c.144862-.116319.291324-.230601.439342-.342817zm26.422341-89.31642-.492162.031103c-.258086.016407-.517283.032718-.777593.048937-8.732644.544105-18.059829.916616-27.382903 1.149933-3.259871.08158-6.287866.139991-9.007879.179088-.954473.01372-1.803164.024049-2.536531.031465-.444275.004493-.754041.00703-.983597.008292h-4.348849c-.165706-.001262-.475472-.003799-.919747-.008292-.733367-.007416-1.582058-.017745-2.536531-.031465-2.720013-.039097-5.748008-.097508-9.007878-.179088-9.118122-.228188-18.240174-.589518-26.806128-1.114297.863136 1.773343 1.601689 3.541613 2.208719 5.326139.296402.871352.569268 1.690188.820912 2.464394 14.431304 1.532035 32.53512 2.305118 54.277277 2.305118 3.037566 0 5.5 2.462434 5.5 5.5s-2.462434 5.5-5.5 5.5c-20.150765 0-37.297407-.654556-51.464815-1.973039.047924.324102.092124.650043.134361.979838l.02118.165389.022439.171464.012031.09013.034451.206267c.303326 1.854647.572444 3.717487.835261 5.782674 13.755166 1.278598 30.565387 1.922309 50.405092 1.922309 3.037566 0 5.5 2.462434 5.5 5.5s-2.462434 5.5-5.5 5.5c-19.089542 0-35.483048-.587429-49.201679-1.770252l.005572.080543c.02518.438696.051183.88918.086289 1.495539.043798.756044.043798.756044.087988 1.519665.115115 1.991356.198621 3.467327.272508 4.839234 13.441259 1.178549 29.698634 1.772078 48.749322 1.772078 3.037566 0 5.5 2.462434 5.5 5.5s-2.462434 5.5-5.5 5.5c-18.667297 0-34.756506-.561729-48.287417-1.692636l-.000218-.046069c.043695 1.541005.078159 3.066454.103373 4.575907 10.979023 1.188254 21.943547 1.782265 32.892506 1.782265 11.592397 0 22.834174-.665879 33.725331-1.997638.013439-1.304889.030973-2.666192.051683-4.085468.002837-.194452.008511-.388852.017018-.583138.363439-8.299752.66159-14.480712.89687-18.579739.016036-.279389.037935-.55841.065682-.836879.72122-7.238303 1.251364-11.729029 1.979054-16.178395.024344-.148846.050371-.297412.078075-.445669.049044-.26245.101899-.554786.168712-.932041.031769-.179381.197553-1.123107.248011-1.407502.111094-.626159.207635-1.156068.309125-1.690872.273146-1.439352.555259-2.766012.887075-4.122945.852457-3.486056 1.965076-6.863351 3.476856-10.348731.26907-.620334.56263-1.253833.881154-1.903616zm20.455814-33.928717-.140664.018954c-6.062874.778391-13.254262 1.392302-21.584197 1.911312-8.732693.544104-18.059931.916615-27.383059 1.149932-3.259889.08158-6.287901.139991-9.00793.179088-.954478.01372-1.803173.024049-2.536545.031465-.444277.004493-.754045.00703-.983601.008292h-4.348874c-.165706-.001262-.475474-.003799-.919751-.008292-.733372-.007416-1.582067-.017745-2.536545-.031465-2.720029-.039097-5.748041-.097508-9.00793-.179088-9.323128-.233317-18.650365-.605828-27.383059-1.149932-8.122963-.506114-15.163254-1.102472-21.130044-1.853524l.007268.476481c0 .13409.031875.643285.118258 1.312001.136621 1.057617.367188 2.158495.693156 3.207966.693621 2.233153 1.655083 3.771338 2.772398 4.620726.287007.218184.568061.444088.842855.677466l.253026.214888c.659488.560091 1.281937 1.162386 1.863421 1.803091.094651.104291.212496.235551.352008.392624 4.546144.47884 9.766604.910049 15.471147 1.265481 8.456314.526887 17.54587.889908 26.639536 1.117484 3.185989.079731 6.143434.136781 8.79497.174894.92557.013304 1.745896.023288 2.451337.030422.366634.003708.630621.005958.742734.00693l4.259756.000543c.141241-.000902.426181-.003235.845192-.007473.70544-.007134 1.525766-.017118 2.451336-.030422 2.651536-.038113 5.608982-.095163 8.79497-.174894 9.093666-.227576 18.183222-.590597 26.639536-1.117484 5.984173-.372855 11.435641-.829098 16.133123-1.334122.21349-.248327.434349-.490234.661115-.726673l.306228-.31929c.72152-.752296 1.50075-1.447035 2.330566-2.077865 1.11782-.849772 2.061844-2.358975 2.740059-4.550018.318672-1.029505.543201-2.110151.675502-3.150762.084319-.663213.115049-1.169901.115049-1.335513 0-.184452.002551-.368877.007653-.553223zm13.617708-164.674037h-154.199l11.960759 144.309085c5.963065.899265 14.291951 1.727051 24.032097 2.333926 8.456365.526887 17.545975.889908 26.639695 1.117484 3.186008.079731 6.143471.136781 8.795023.174894.925575.013304 1.745906.023288 2.451351.030422.419013.004238.703955.006571.781347.007269l4.221174.000204c.141242-.000902.426184-.003235.845197-.007473.705445-.007134 1.525776-.017118 2.451351-.030422 2.651552-.038113 5.609015-.095163 8.795023-.174894 9.09372-.227576 18.183331-.590597 26.639695-1.117484 10.072193-.627564 18.635265-1.491357 24.634112-2.426375zm-79.08-568.038-3.828.032-4.227011.1024978c-139.216948 4.4898673-250.691879 117.5990492-252.929693 256.9474772l-.034296 4.273877c0 90.88085 46.772116 173.720208 122.322372 221.291456 1.794265 1.129784 3.911008 2.321324 6.641471 3.75409l1.007786.525818c.315779.16387.643677.333255.966901.499595l1.034442.530636c.442872.226561.872172.445595 1.557018.794596l1.070412.545573 1.067769.54533c7.66681 3.922959 12.228843 6.511443 16.894058 9.897066 7.149873 5.188781 12.562287 11.128438 15.952569 18.627103 1.322342 2.924772 2.650887 6.095502 3.997863 9.513501l.355576.907296c1.768497 4.536552 3.49911 9.331856 4.976352 13.638497l.115411.337591.219963.189068c1.65118 1.44705 3.063982 3.16353 4.168425 5.085019l31.888612-.000087.000643-277.961863c0-5.19737 3.981401-9.528333 9.16042-9.964693 16.053442-1.35259 28.405993-2.044321 37.144437-2.069477l.49077-.000712c8.764398 0 21.27887.692079 37.635207 2.070189 5.179019.43636 9.16042 4.767323 9.16042 9.964693l-.000897 277.961863 35.823488.000304c.44532-.774783.940775-1.516234 1.481777-2.220132l.134735-.173172.030465-.089356c1.47309-4.421275 3.334405-9.712651 5.269551-14.787647l.232551-.607892.348336-.902853c1.516954-3.911914 3.03002-7.559372 4.535919-10.890137 3.451584-7.634253 8.783585-13.782598 15.815833-19.197668 4.620726-3.558116 8.75852-6.068678 16.886028-10.586116l1.070399-.594645c4.320883-2.400272 6.54025-3.670345 8.760485-5.053244l.460061-.288134c75.550256-47.571248 122.322372-130.410606 122.322372-221.291456 0-142.729944-114.607142-259.0139975-257.234311-261.3247822zm26.809 295.491-19.54597 20.568784c-3.942276 4.148275-10.555244 4.148275-14.49752 0l-19.54751-20.568784.000643 251.744255h53.591zm-26.349316-17.449086h-.890828c-4.021196.011798-8.976498.181983-14.855226.511261l15.300013 16.101476 15.300613-16.101513c-5.878442-.329253-10.833525-.499427-14.854572-.511224z"/></svg>