<svg height="960" viewBox="0 0 960 960" width="960" xmlns="http://www.w3.org/2000/svg"><path d="m298 5.90726905c.811862 0 1.623714 0 2.435501.0164776l468.864694 6.34458315c92.982839 1.2582251 167.699805 76.9930864 167.699805 169.9844382v590.494464c0 92.991352-74.716966 168.726213-167.699805 169.984438l-468.864694 6.344583c-8.626838.116737-17.197266-.377243-25.663036-1.470396l-1.418465-.189857-.160585-.011157c-.72612-.059924-1.455148-.139796-2.186551-.240081l-.732174-.107106-110.786426-17.2234c-.971224-.150992-1.929765-.33615-2.874473-.554138l-.510791-.122118-.683321-.099277c-85.2773507-13.121835-149.91992604-85.621037-152.34911098-172.846578l-.05524753-2.702343c-.01532049-.78277-.01532049-1.565598-.01532049-2.348434v-552.322736c0-89.284759 65.3376848-164.4703531 152.365679-177.886766l1.310321-.191866.406984-.0923053c1.168872-.2546955 2.357958-.458956 3.56502-.6102932l.605019-.0712467 110.516977-12.1741548.68899-.10146159c7.892704-1.12340985 15.882578-1.72533094 23.930635-1.80326936zm0 39.99999995-2.019044.0142626c-.165637.0023415-.331205.0049706-.496703.0078869-.657217.0115801-1.31355.0276958-1.968747.0483134l1.968747-.0483134c-.795315.0140145-1.589012.034661-2.381039.0618864l.412292-.013573c-.739064.0232567-1.476683.0522416-2.212815.0869117l1.800523-.0733387c-.703211.0241725-1.405106.0535312-2.105647.088039l.305124-.0147003c-.746998.0351819-1.492464.0762181-2.236354.1230638l1.93123-.1083635c-.827699.0407716-1.653509.0887312-2.477367.1438179l.546137-.0354544c-1.546229.0973721-3.085646.2198438-4.617849.3670122-.110502.0106141-.220486.0213094-.330432.0321319l.330432-.0321319c-.761241.0731174-1.520701.1523309-2.278331.2375911l1.947899-.2054592c-.801948.0789387-1.601908.1646442-2.399823.2570586l.451924-.0515994c-.756051.0850824-1.510279.1761864-2.262635.2732627l1.810711-.2216633c-.674742.0781483-1.348021.1610941-2.019802.2488024l.209091-.0271391c-.730294.0942298-1.458825.1940868-2.185547.2995262l1.976456-.2723871c-.793631.1036168-1.585171.2138805-2.374565.3307332l.398109-.0583461c-67.710287 9.8240162-119.721975 68.1091024-119.721975 138.5421694v583.185462c0 .631448 0 1.262888.012816 1.894278.951851 70.341797 53.621456 127.863915 121.340523 136.877187.041571.005533.082865.011011.124164.01647l-.124164-.01647c.694471.092433 1.390524.179764 2.08812.261955l-1.963956-.245485c.743516.098283 1.488843.190718 2.235932.27726l-.271976-.031775c.754963.08895 1.511734.17188 2.270261.24874l-1.998285-.216965c.778699.090203 1.559313.174002 2.341786.251345l-.343501-.03438c.763374.077352 1.528527.148557 2.295409.213565l-1.951908-.179185c.788344.077923 1.578576.149291 2.370638.21405l-.41873-.034865c.744849.06314 1.491328.120435 2.239391.171839l-1.820661-.136974c.684967.056004 1.371304.107064 2.058974.153147l-.238313-.016173c.754825.051868 1.511263.097739 2.269265.137564l-2.030952-.121391c.805185.053958 1.612197.101091 2.420979.141342l-.390027-.019951c.812507.042689 1.626811.078432 2.442855.107172l-2.052828-.087221c.705477.03511 1.412301.064985 2.120432.089586l-.067604-.002365c.694231.02445 1.389721.043832 2.086433.058109l-2.018829-.055744c.794565.027604 1.590777.048568 2.388581.06284l-.369752-.007096c.789034.01617 1.579635.025793 2.371751.028819l-2.001999-.021723c.806498.014428 1.614623.022016 2.424318.02271l2.055136-.013031 468.864694-6.344583c71.104524-.962172 128.241027-58.877066 128.241027-129.9881v-590.494464c0-71.111034-57.136503-129.0259277-128.241027-129.9880999l-468.864694-6.3445831-.947118-.011214zm-92.52465 9.449978-39.842304 4.3883771-.0006.1596968c-69.1245616 8.5528626-122.632446 67.4943691-122.632446 138.9333111v552.322736c0 .608873 0 1.217739.0119159 1.82656.9238955 70.807637 54.258421 128.650754 122.6202751 137.109037l.000855.212088 34.495709 5.366434c-37.215225-28.812586-61.427796-73.699408-62.114108-124.417866-.014647-.721589-.014647-1.443235-.014647-2.16489v-583.185462c0-53.890602 26.642923-101.5584155 67.47535-130.550022zm-98.600095 348.627634c15.946956 0 28.874519 12.927563 28.874519 28.87452l-.000774 87.465868.065498.303002c.123471.631679.185726 1.274102.185726 1.918335v37.906788c0 .747515-.083817 1.492593-.249825 2.221277l-.000625 200.341481c0 .492757-.013042.985427-.039112 1.477494-.815998 15.401557-13.962923 27.225489-29.36448 26.409492-15.8916581-.841964-28.3454467-13.973039-28.3454467-29.886986v-328.156751c0-15.946957 12.9275627-28.87452 28.8745197-28.87452zm-8.8750806 174.068842.0005609 182.962429c0 5.279446 4.1315397 9.635676 9.4035917 9.914997 4.371333.2316 8.102746-3.124316 8.334346-7.495649.007399-.13966.011101-.279492.011101-.419348l-.000253-4.569758c-4.342855-1.089534-7.558767-5.019154-7.558767-9.69989v-82.191033c0-4.680737 3.215912-8.610357 7.558767-9.699891l-.000521-72.856311-7.366647.000731c-2.436819 0-4.669787-.871529-6.404514-2.319683l-.072577-.061317-.053895-.035301c-1.403431-.935677-2.686245-2.121824-3.8511926-3.529976zm190.4471846-473.670889 492 3.238314c37.379967.245921 67.552641 30.617752 67.552641 67.998528v363.380324c0 17.673112-14.326888 32-32 32h-564c-17.673112 0-32-14.326888-32-32v-366.617166c0-37.555363 30.444637-68 68-68zm-178.444097 425.464166-.057534.399746c-.484036 3.450712-.750466 7.274099-.750466 11.253254s.26643 7.802542.750466 11.253254l.057534.398746.058338-.398746c.455563-3.247729.718369-6.825578.747711-10.552711l.002755-.700543c0-3.979155-.266431-7.802542-.750466-11.253254zm178.312521-405.464166h-.315783c-26.509668 0-48 21.490332-48 48v366.617166c0 6.627417 5.372583 12 12 12h564c6.627417 0 12-5.372583 12-12v-363.380324c0-26.38643-21.298358-47.82537-47.684217-47.998961zm252.184217 268.617166c37.043204 0 66.5 33.62767 66.5 74.5s-29.456796 74.5-66.5 74.5-66.5-33.62767-66.5-74.5 29.456796-74.5 66.5-74.5zm0 20c-25.364973 0-46.5 24.127597-46.5 54.5s21.135027 54.5 46.5 54.5 46.5-24.127597 46.5-54.5-21.135027-54.5-46.5-54.5zm-433.624745 10.984881c-4.901262 0-8.8745197 3.973258-8.8745197 8.87452l-.0009924 72.087398c1.1650624-1.408381 2.4480191-2.594706 3.8516241-3.530498l.053895-.035301.072577-.061317c1.668007-1.392455 3.796665-2.251789 6.124264-2.315832l.28025-.003851 7.366647-.000731.000774-66.139868c0-4.901262-3.973258-8.87452-8.874519-8.87452zm312.624745 11.015119c16.219652 0 28.5 14.935558 28.5 32.5s-12.280348 32.5-28.5 32.5-28.5-14.935558-28.5-32.5 12.280348-32.5 28.5-32.5zm-122 0c16.219652 0 28.5 14.935558 28.5 32.5s-12.280348 32.5-28.5 32.5-28.5-14.935558-28.5-32.5 12.280348-32.5 28.5-32.5zm486 0c16.219652 0 28.5 14.935558 28.5 32.5s-12.280348 32.5-28.5 32.5-28.5-14.935558-28.5-32.5 12.280348-32.5 28.5-32.5zm-121 0c16.219652 0 28.5 14.935558 28.5 32.5s-12.280348 32.5-28.5 32.5-28.5-14.935558-28.5-32.5 12.280348-32.5 28.5-32.5zm-243 20c-4.214884 0-8.5 5.211628-8.5 12.5s4.285116 12.5 8.5 12.5 8.5-5.211628 8.5-12.5-4.285116-12.5-8.5-12.5zm-122 0c-4.214884 0-8.5 5.211628-8.5 12.5s4.285116 12.5 8.5 12.5 8.5-5.211628 8.5-12.5-4.285116-12.5-8.5-12.5zm486 0c-4.214884 0-8.5 5.211628-8.5 12.5s4.285116 12.5 8.5 12.5 8.5-5.211628 8.5-12.5-4.285116-12.5-8.5-12.5zm-121 0c-4.214884 0-8.5 5.211628-8.5 12.5s4.285116 12.5 8.5 12.5 8.5-5.211628 8.5-12.5-4.285116-12.5-8.5-12.5z"/></svg>