<svg width="960" height="960" viewBox="0 0 960 960" fill="none" xmlns="http://www.w3.org/2000/svg">
<path d="M480 9C565.694 9 643.684 13.9546 700.617 22.0879C728.933 26.133 752.892 31.0805 770.195 36.9248C778.716 39.8026 786.823 43.2876 793.191 47.7334C798.832 51.671 808 59.8532 808 73V158.558C808 166.819 802.92 174.231 795.215 177.211L780.973 182.719L780.198 582.229L783.059 581.501C789.042 579.975 795.395 581.299 800.271 585.088C805.148 588.877 808 594.706 808 600.881V855.613C808 877.667 790.293 892.731 773.813 902.268C755.872 912.65 731.239 921.323 702.544 928.347C644.841 942.47 566.169 951 480 951C393.831 951 315.159 942.47 257.456 928.347C228.761 921.323 204.128 912.65 186.187 902.268C169.707 892.731 152 877.667 152 855.613V73C152 72.3132 152.027 71.6283 152.08 70.9463L152.132 70.3613C153.342 58.1585 162.265 50.7415 167.783 47.0693C174.201 42.799 182.303 39.3983 190.903 36.5576C208.329 30.8019 232.289 25.9179 260.562 21.9209C317.387 13.8878 394.892 9 480 9ZM765.091 627.362C764.121 627.61 763.141 627.781 762.16 627.88C711.754 642.311 603.668 652 479.654 652C427.451 652 378.226 650.282 335 647.244V901.964C377.774 907.694 427.183 911 480 911C563.934 911 639.263 902.654 693.034 889.493C720.076 882.874 740.549 875.302 753.778 867.646C767.214 859.872 767.969 855.22 768 855.427V626.62L765.091 627.362ZM192 855.427C192.031 855.22 192.786 859.872 206.222 867.646C219.451 875.302 239.924 882.874 266.966 889.493C281.49 893.048 297.586 896.25 315 899.032V120.199C295.36 118.429 277.183 116.353 260.797 114.012C232.705 109.999 209.448 105.155 193.004 99.6006C192.667 99.4869 192.333 99.3708 192 99.2559V855.427ZM751.4 713.195C754.151 713.03 756.849 714.008 758.855 715.897C760.862 717.787 762 720.422 762 723.178V817.5C762 822.694 758.023 827.023 752.848 827.464L705.848 831.464C703.058 831.701 700.297 830.758 698.235 828.864C696.174 826.97 695 824.299 695 821.5V726C695 720.71 699.12 716.335 704.4 716.018L751.4 713.195ZM715 735.417V810.612L742 808.314V733.796L715 735.417ZM354.5 726C359.747 726 364 731.82 364 739C364 746.18 359.747 752 354.5 752C349.253 752 345 746.18 345 739C345 731.82 349.253 726 354.5 726ZM740.992 172.887C684.891 184.45 588.396 191.9 479.654 191.9C427.45 191.9 378.226 190.181 335 187.144V627.194C378.043 630.257 427.297 632 479.654 632C591.148 632 687.859 624.099 740.693 612.612C740.333 611.098 740.146 609.532 740.149 607.943L740.992 172.887ZM766.996 99.6006C750.551 105.155 727.295 109.999 699.203 114.012C642.868 122.06 565.373 127 480 127C427.691 127 378.339 125.141 335 121.854V167.095C378.043 170.158 427.297 171.9 479.654 171.9C604.039 171.9 710.025 162.072 757.216 148.396C758.081 148.145 758.966 148.014 759.848 148.001L768 144.849V99.2559C767.667 99.3708 767.333 99.4869 766.996 99.6006ZM480 49C396.173 49 320.625 53.827 266.162 61.5264C238.792 65.3956 217.549 69.882 203.449 74.5391C199.079 75.9826 195.796 77.3158 193.423 78.4531C195.212 79.1723 197.202 79.9085 199.404 80.6523C214.131 85.6263 235.98 90.2636 263.625 94.2129C318.764 102.09 395.269 107 480 107C564.731 107 641.236 102.09 696.375 94.2129C724.02 90.2636 745.869 85.6263 760.596 80.6523C762.797 79.909 764.785 79.1728 766.573 78.4541C764.379 77.4029 761.375 76.1651 757.396 74.8213C743.529 70.1375 722.382 65.6038 694.961 61.6865C640.42 53.895 564.41 49 480 49Z" fill="black"/>
</svg>
