<svg height="960" viewBox="0 0 960 960" width="960" xmlns="http://www.w3.org/2000/svg"><path d="m827.0223 241.684683c6.36721.812528 15.273457 2.416988 24.585824 4.66598 14.018304 3.385503 27.320662 7.793236 39.355791 13.575063 12.547213 6.027839 24.357358 13.641817 35.348629 22.147969 3.848316 2.978214 7.36302 5.891006 10.505983 8.651936 2.114034 1.857069 3.900508 3.508009 4.986266 4.568669 6.052918 5.913003 10.142084 13.195365 12.294961 21.346761 1.438125 5.445144 1.963612 10.892658 1.963612 17.152396 0 14.711995-5.626638 27.800123-17.156236 37.945909-3.456211 3.041388-7.078317 5.559316-11.622951 8.32177-2.94929 1.792725-6.140064 3.605844-11.498713 6.572706-6.62818 3.669749-32.88362 16.494251-63.476445 30.980646-38.07665 18.030155-77.702052 36.217174-112.974164 51.692-23.313829 10.228404-47.127027 19.98968-74.555489 30.7732-4.670741 1.836305-9.256435 3.62838-14.794477 5.784529-.775146.301792-9.990605 3.886256-12.340365 4.802725-8.070329 3.147643-12.447888 4.8967-14.583873 5.830408-3.293765 1.439811-6.294334 2.956563-9.017696 4.552196 6.617391 5.844734 16.412997 15.761412 26.63185 26.792622 12.195099 13.164559 22.206881 24.879933 27.527785 32.704689 3.736386 5.494614 6.968992 11.469992 9.922294 17.987133 2.482344 5.477863 4.602246 10.947145 6.735767 17.063359.361723 1.036961.713856 2.063575 1.099725 3.202047.140821.415481.278252.82249.453042 1.341273.007286.021681.327182.971452.404871 1.201706.261034.773654.427247 1.260739.552237 1.618003.036644.104739.065434.185951.08544.241601l-.088507-.226784c1.942482 4.913247 3.178344 10.135831 3.541652 15.572765.428673 6.415122-.376141 12.927287-2.556499 19.210027-2.333241 6.723275-6.124381 12.81955-11.118774 17.926512-4.544398 4.646823-9.872473 8.273671-15.724648 10.927993-6.817769 3.092278-48.793603 23.547908-53.174291 25.975825-4.264802 2.36369-8.701151 4.223284-13.376977 5.483194-5.711455 1.538963-11.64323 2.142078-17.68115 1.60635-13.446356-1.19306-25.189691-7.831123-33.304817-17.997608-3.176957-3.980036-8.432126-11.412297-13.858801-19.807685-7.563733-11.701543-15.077532-24.599769-22.072402-38.301994-2.040684-3.997487-3.963756-8.296043-6.002459-13.285569-1.606632-3.932074-2.799456-7.02877-5.579186-14.379107-2.563905-6.779639-3.757814-9.880527-5.243239-13.548263-4.101416-10.127015-7.654554-17.229678-11.122939-22.159814-.015125-.017555-.03402-.039054-.056695-.064289-.162709-.181085-.393512-.413485-.689421-.685868-.777206-.715413-1.816339-1.534641-3.069574-2.402664-1.750278-1.212288-3.775362-2.423366-6.011261-3.614709-1.671432-.890582-2.291057-1.194634-5.575654-2.767193-5.079496-2.431899-14.58093-6.084777-29.158811-11.193224-6.36138-2.229184-13.551264-4.693033-23.382257-8.022851-3.676715-1.245326-22.059252-7.451418-27.435223-9.273074-.194713-.065979-.602766-.188236-1.18816-.346115-.79132-.213416-1.761968-.452354-2.895489-.709883-2.509938-.570242-5.647228-1.193206-9.36047-1.854519-7.448752-1.32659-16.955347-2.763131-28.519302-4.319496-19.459841-2.619053-41.730241-5.226208-78.885815-9.340754-3.365386-.372677-6.666715-.737439-11.677267-1.290472-35.439347-3.911569-48.614824-5.391449-65.568648-7.415746-10.781481-1.287316-21.521741-2.774896-32.179124-4.429111-12.536553-1.945895-24.285309-4.012139-35.564837-6.180324-3.811176-.732596-7.110257-1.387165-10.916225-2.157286-.145598-.029462-2.709929-.549405-3.234449-.654865-.383217-.07705-.665834-.133224-.861778-.171375-.069311-.013495-.06932-.013497.079693.012363-7.493665-1.300467-14.0793817-2.665321-20.0879432-4.28862-4.2088382-1.137078-8.0565167-2.382052-11.6785632-3.858809-2.4480542-.998104-4.7953168-2.102968-7.0937914-3.386744-3.2546155-1.817813-6.3295695-3.937512-9.2843201-6.610513-2.2417481-2.027987-15.2268607-13.176425-37.5480473-32.219605-10.38987322-8.864055-15.93043835-22.119701-14.98407231-35.70101l.36432624-5.22845c.83859267-12.034653 6.65974617-22.995354 15.82899917-30.423364 9.1783179-7.435353 21.1242371-10.855327 33.0856629-9.163626 47.0680354 6.656817 80.2596042 11.594857 99.7812822 14.850024 39.005306 6.50399 69.904424 11.896729 114.352076 19.8349 27.949555 4.991677 29.158707 5.206937 37.441528 6.650571 10.868699 1.894333 18.392619 3.135629 23.737819 3.907598 1.637563.236501 3.325162.481476 5.509472.799471.445204.064813 4.349011.633538 5.497278.800583 7.049019 1.025459 11.728152 1.694386 16.460086 2.345596 15.569502 2.142678 27.58313 3.482857 38.39694 4.18461 2.384148.154718 6.752435.099687 13.181835-.208965.098428-.004725.197265-.009502.300295-.014792l-.000005-80.969837c0-1.937466.137759-3.8428.450941-5.691447.630936-5.810265 2.228-11.429838 4.678216-16.705888 2.77377-5.972755 6.534034-11.301313 11.056129-16.014266 7.105837-7.405744 15.958903-13.183076 26.109577-17.658516 17.038979-7.512499 38.226397-11.463828 60.292039-11.463828 22.068214 0 43.257992 3.952244 60.29803 11.466469 10.152031 4.476789 19.005906 10.255965 26.111695 17.664328 4.522328 4.714894 8.282284 10.045677 11.054987 16.020823 3.239113 6.980254 4.984984 14.561181 4.984984 22.387115 0 .261522-.00193.522453-.012482.781052 16.016839-11.96431 30.221998-21.858353 40.058493-27.8788 39.439139-24.138809 70.041336-41.523421 93.48887-53.557218 8.61833-4.423119 15.796859-7.879972 22.034193-10.68 2.200208-.987705 4.054431-1.792877 6.090762-2.656249.274606-.116429 1.40046-.592151 1.608652-.680826.106574-.045393.09755-.04144-.183755.090077l2.950105-1.333843c6.854035-2.990617 13.532247-5.130333 20.685041-6.437807 9.062489-1.656552 18.293466-1.828556 28.062802-.581877zm-18.641281 66.38473c-3.037777.510141-6.036471 1.162173-8.525643 1.840498-1.127401.307228-2.101532.607054-2.85454.874457-.315624.112083-.572818.211601-.759093.291347-.050493.021617-.070464.030363-.051465.018613l.021689-.012774c-57.776766 32.848617-102.446886 59.366352-133.976056 79.528363-8.198236 5.242539-16.317832 10.935072-24.858621 17.356466-4.626888 3.478726-9.329105 7.132944-14.571574 11.304253-3.776374 3.004771-4.87893 3.894061-13.752795 11.072173-12.453477 10.073678-18.80186 15.054548-25.904378 20.149629-9.112083 6.536669-18.748057 12.274231-28.406317 17.153464-7.208576 3.641683-14.034005 6.59101-18.933107 8.342843-10.36262 3.705491-24.082239 7.293367-41.232634 10.807698-.445712.091332-.897137.152139-1.35113.181998-21.803146 1.433997-37.869993 2.230609-48.275806 2.388974-9.873899.150271-25.906587 1.264513-47.969865 3.345476-.854726.080616-1.716276.050828-2.563393-.088628l-332.1506452-54.680137c11.7019439 10.012719 18.490787 15.867519 20.3665292 17.5644 4.1041021 3.712756 17.591663 6.564684 28.149449 8.396905 3.817394.662479 37.538559 8.134523 80.5796 13.27365 75.997768 9.07418 181.5269 18.753618 206.189913 27.110718 38.630815 13.090111 69.788209 23.293512 84.412291 30.295052 5.428914 2.599189 22.206658 10.349649 30.772204 22.491437 14.507808 20.565033 21.974982 50.762557 30.931449 68.307346 14.244449 27.903397 28.67108 47.715112 31.566704 51.342699 1.551227 1.94335 3.566818 3.058266 6.072875 3.137684l.252241.004482.255517-.002467c2.057254-.047655 4.42952-.766865 7.130162-2.263647 6.301499-3.492492 49.926526-24.644205 56.042202-27.418042 6.115677-2.773836 7.028193-7.833728 5.182344-12.502554-1.845849-4.668825-6.778253-22.487775-15.043458-34.64233s-38.899418-44.837465-48.865823-53.137053c-6.64427-5.533059-14.835268-16.286679-24.572995-32.260862 9.485323-16.126645 24.602779-28.725124 45.352366-37.795436 12.581163-5.499631 63.622686-24.091263 116.225174-47.169391 77.530148-34.014563 163.223679-75.543674 173.146106-81.037311 2.539276-1.405892 4.761095-2.645936 6.703232-3.761198-14.000055-11.273616-25.041265-18.99102-32.955131-23.090112-8.614498-4.461993-17.216845-8.1852-25.762675-11.252332-7.147898-2.565408-14.04958-4.600269-20.746114-6.207438-2.66978-.640747-8.583025-.381668-15.268789.741087zm-16.115769-21.795779c-4.308302 2.014231-31.263652 11.60642-119.098249 65.365772-18.738837 11.469145-60.936858 42.634148-100.19788 76.590677-9.999915 8.648842-30.077744 17.741656-60.233489 27.278443l-21.76865 5.893753c-18.503126.690577-33.643611 1.346965-45.421457 1.969164l-.195817.010358c-.304367.01612-.606474.032217-.906321.048292l-.096543.005179c-2.662254.142907-5.145774.283998-7.45056.423271l-.770314.046888c-19.017479 1.166141-35.281706 2.449949-44.995394 1.819587-22.189984-1.440001-46.1952-5.164803-68.991049-8.457045-24.7655-3.576704-83.088391-14.968906-176.392845-30.527076-19.108378-3.186251-52.0429483-8.086056-98.8037107-14.699416-.1187731-.016798-.2368074-.026397-.3536794-.02914l-.1743834.000983c-1.4347515.049966-2.6578801 1.129377-2.8601047 2.580705l352.8460722 58.087744c21.900281-2.052223 37.928846-3.155051 48.24433-3.312042 9.880407-.150369 25.419609-.917003 46.566777-2.303156 16.003606-3.295632 28.642996-6.613109 37.863067-9.910045 4.103283-1.467262 10.167599-4.087705 16.648896-7.361976 8.780655-4.435878 17.539407-9.651115 25.766747-15.553101 6.687959-4.797693 12.826501-9.613923 24.984079-19.448247 8.927083-7.221161 10.040998-8.119612 13.878346-11.1729 5.376068-4.27761 10.218627-8.040891 15.005251-11.639715 8.923156-6.708876 17.450126-12.687013 26.102784-18.220143 31.877028-20.384456 76.832041-47.071015 134.900433-80.085058 3.552002-2.019445 10.870047-4.013687 18.707169-5.329793 4.059052-.681646 8.044785-1.134104 11.676599-1.293226 4.407667-.193115 8.267265.035093 11.571914.828209 7.383225 1.771975 14.980217 4.011838 22.834774 6.830869 9.36603 3.361505 18.783908 7.437684 28.205126 12.317529 9.366051 4.85127 21.538383 13.359262 36.694143 25.589159-.109496-5.625823-1.029169-7.568834-2.198157-8.710801-.646679-.63173-18.007783-17.259995-40.21057-27.926492-20.609226-9.900931-45.962168-13.8878-51.683678-14.61793-2.466786-.31479-4.78701-.47518-6.998619-.492722l-.600502-.001252c-8.170835.031064-14.880672 2.032046-22.094535 5.404694zm-283.693442 149.569971-.820104.036954c-11.848331.553963-22.844388 1.472284-32.375963 2.704857-7.844922 1.014463-14.480502 2.216631-19.542533 3.527763-1.115606.288957-2.142187.580092-3.074164.870411 9.885759-.475764 21.603858-.96874 35.174724-1.480149l19.125984-5.178264c.507203-.160721 1.011222-.321246 1.512056-.481572zm1.218115-118.762166c-34.486225 0-62.443552 12.326802-62.449696 27.533721l-.137206.000222-.000822 79.15003c1.14513-.348564 2.350105-.685384 3.616232-1.013328 5.956379-1.54278 13.381742-2.888033 21.992374-4.001514 17.335777-2.24177 38.9696-3.481243 61.788644-3.481243 7.293782 0 14.484264.126272 21.479857.374264.130901.004641.261125.011777.390628.021362 1.343972-.898912 2.483751-1.755711 3.415917-2.561934 4.004488-3.463448 8.084996-6.938094 12.216042-10.404746l.001299-56.007268c.090476-.761577.136427-1.454248.136427-2.070831 0-15.209224-27.959681-27.538735-62.449696-27.538735z"/></svg>