<svg width="960" height="960" viewBox="0 0 960 960" fill="none" xmlns="http://www.w3.org/2000/svg">
<path d="M402.936 11.4353C405.474 11.128 408.049 11.3094 410.521 11.9724L463.728 26.2419C472.47 28.5863 478.547 36.5091 478.548 45.5593V91.2439L744.755 108.884L744.763 108.885C778.316 111.121 804.389 138.991 804.389 172.619V782.118C804.389 815.746 778.316 843.615 744.763 845.852L479.708 863.522V912.014C479.708 917.439 477.504 922.631 473.602 926.4C438.589 960.22 385.848 967.81 342.719 945.234L331.968 939.606C325.374 936.155 321.242 929.328 321.242 921.886V874.074C311.013 874.564 301.186 872.605 292.374 868.702C292.232 868.647 292.09 868.593 291.949 868.535L195.179 828.714C171.237 818.862 155.61 795.533 155.61 769.643V184.231C155.61 158.17 171.442 134.722 195.615 124.983L278.124 91.74V59.0271C278.124 58.797 278.129 58.5678 278.137 58.3396L278.139 58.2722C278.139 58.2475 278.141 58.2227 278.142 58.198C278.341 53.3174 280.289 48.8881 283.376 45.5193C283.428 45.4627 283.48 45.4063 283.532 45.3503C283.63 45.2457 283.73 45.1423 283.83 45.0398C283.881 44.988 283.931 44.9358 283.982 44.8845C284.116 44.7512 284.251 44.6195 284.388 44.49C284.433 44.4468 284.48 44.4048 284.526 44.3621C284.632 44.2636 284.739 44.1662 284.848 44.0701C284.904 44.0196 284.961 43.9686 285.018 43.9187C285.158 43.7973 285.3 43.6779 285.443 43.5603C285.497 43.516 285.552 43.4722 285.606 43.4285C285.722 43.3352 285.84 43.2437 285.958 43.1531C286.012 43.1119 286.065 43.0698 286.119 43.0291C287.547 41.9559 289.123 41.0695 290.811 40.406L334.774 22.0818C336.307 21.4428 337.914 20.9965 339.557 20.7546L402.429 11.5027L402.936 11.4353ZM439.708 893.326C415.538 902.293 387.027 903.628 361.242 896.731V909.781L361.268 909.796C386.722 923.119 417.357 920.174 439.708 902.904V893.326ZM439.708 867.659C415.54 877.128 387.035 878.542 361.242 871.255V886.346C387.068 893.923 416.13 892.316 439.708 882.588V867.659ZM361.196 851.378C361.226 851.819 361.242 852.263 361.242 852.709V860.825C387.059 868.865 416.129 867.165 439.708 856.835V846.143L361.196 851.378ZM294.331 810.271C294.331 824.082 306.014 835.013 319.795 834.094L458.354 824.856C458.362 824.856 458.369 824.856 458.377 824.855L715.442 807.718L742.101 805.94C742.316 805.926 742.529 805.908 742.742 805.888C743.213 805.844 743.68 805.786 744.142 805.716C745.189 805.556 746.212 805.33 747.208 805.04C747.753 804.881 748.289 804.704 748.816 804.509C749.168 804.378 749.515 804.24 749.858 804.094C750.03 804.021 750.2 803.946 750.37 803.869C750.54 803.792 750.708 803.713 750.876 803.633C751.292 803.432 751.7 803.219 752.101 802.996C752.184 802.95 752.268 802.904 752.35 802.857C752.832 802.582 753.303 802.29 753.763 801.983C754.069 801.779 754.37 801.567 754.666 801.349C754.962 801.131 755.252 800.907 755.537 800.676C755.822 800.444 756.102 800.207 756.376 799.964C756.65 799.72 756.918 799.47 757.181 799.215C757.312 799.087 757.441 798.957 757.569 798.826C757.826 798.564 758.076 798.296 758.32 798.023C758.686 797.614 759.038 797.192 759.375 796.758C759.546 796.537 759.713 796.312 759.877 796.086C760.308 795.488 760.713 794.87 761.089 794.233C761.211 794.026 761.331 793.817 761.447 793.605C761.501 793.507 761.554 793.408 761.606 793.308C761.739 793.058 761.87 792.805 761.994 792.55C762.075 792.383 762.154 792.216 762.231 792.048C762.771 790.869 763.217 789.64 763.561 788.37C763.575 788.319 763.588 788.267 763.601 788.216C763.732 787.722 763.847 787.222 763.946 786.717C764.237 785.227 764.389 783.688 764.389 782.117V560.208C681.938 561.96 625.316 557.478 583.444 549.521C538.149 540.914 510.388 528.29 486.212 515.547C462.095 502.835 442.955 490.881 413.108 482.018C386.102 473.999 350.068 468.497 294.331 468.447V810.271ZM266.683 140.966C253.989 146.312 245.392 159.303 245.391 174.055V783.023C245.391 794.73 250.807 805.335 259.397 811.885L275.072 818.336C274.623 815.912 274.369 813.416 274.335 810.865L274.331 810.271V144.465C274.331 142.178 274.506 139.934 274.842 137.745L266.683 140.966ZM210.563 162.085C201.528 165.725 195.61 174.49 195.61 184.231V769.643C195.61 779.32 201.451 788.041 210.4 791.723L227.604 798.802C226.157 793.75 225.391 788.443 225.391 783.023V174.055C225.392 167.363 226.556 160.844 228.733 154.763L210.563 162.085ZM318.084 120.59C317.719 120.789 317.34 120.971 316.943 121.128L301.829 127.093C297.224 131.433 294.331 137.592 294.331 144.465V448.448C351.36 448.497 389.427 454.123 418.802 462.845C451.068 472.427 472.538 485.732 495.537 497.854C518.476 509.946 544.338 521.732 587.179 529.873C627.3 537.497 682.546 541.961 764.389 540.203V172.619C764.389 170.066 763.987 167.601 763.241 165.288C763.18 165.098 763.116 164.909 763.05 164.72C762.604 163.451 762.054 162.229 761.41 161.066C760.989 160.306 760.529 159.571 760.03 158.864C759.501 158.114 758.93 157.396 758.32 156.713C758.076 156.44 757.825 156.173 757.569 155.911C756.928 155.257 756.25 154.639 755.537 154.061C755.252 153.83 754.962 153.605 754.666 153.387C754.518 153.278 754.368 153.171 754.218 153.065C753.916 152.854 753.61 152.649 753.299 152.451C750.031 150.376 746.217 149.07 742.101 148.796L739.569 148.627L457.225 129.92C456.497 129.871 455.779 129.783 455.075 129.66L319.795 120.641C319.221 120.603 318.65 120.587 318.084 120.59ZM655.931 246.784C669.89 246.877 681.413 255.123 689.006 266.229C696.625 277.373 700.965 292.186 700.859 308.036C700.754 323.885 696.216 338.64 688.449 349.681C680.709 360.685 669.076 368.776 655.118 368.683C641.16 368.59 629.637 360.344 622.044 349.238C614.425 338.094 610.086 323.281 610.191 307.431C610.297 291.582 614.834 276.828 622.6 265.787C630.341 254.783 641.973 246.691 655.931 246.784ZM655.798 266.784C650.242 266.747 644.13 269.943 638.959 277.294C633.814 284.607 630.272 295.276 630.19 307.565C630.108 319.854 633.508 330.57 638.555 337.951C643.627 345.37 649.696 348.647 655.252 348.684C660.808 348.721 666.92 345.526 672.091 338.175C677.235 330.861 680.777 320.192 680.859 307.903C680.941 295.614 677.541 284.899 672.495 277.517C667.422 270.098 661.354 266.821 655.798 266.784ZM573.996 286.306C580.054 286.347 584.917 293.461 584.859 302.196C584.801 310.931 579.843 317.979 573.785 317.939C567.727 317.899 562.863 310.785 562.922 302.05C562.98 293.315 567.938 286.266 573.996 286.306ZM413.765 106.862L438.548 108.513V60.9021L413.765 54.2556V106.862ZM351.242 59.4656V102.693L393.765 105.528V53.2078L351.242 59.4656ZM318.124 72.3572C318.124 75.4343 318.124 78.7969 318.124 82.1609C318.124 87.9503 318.125 93.7465 318.125 98.1072V100.588C319.118 100.587 320.119 100.619 321.126 100.686L331.242 101.36V66.8884L318.124 72.3572Z" fill="black"/>
</svg>
