<?xml version="1.0" encoding="UTF-8"?>
<svg width="960px" height="960px" viewBox="0 0 960 960" version="1.1" xmlns="http://www.w3.org/2000/svg" xmlns:xlink="http://www.w3.org/1999/xlink">
    <!-- Generator: Sketch 60.1 (88133) - https://sketch.com -->
    <title>com.ubnt.unifiprotect/icon2</title>
    <desc>Created with Sketch.</desc>
    <g id="com.ubnt.unifiprotect/icon2" stroke="none" stroke-width="1" fill="none" fill-rule="evenodd">
        <path d="M419.763925,199.040128 C398.021241,229.026753 388.701602,263.145576 384.563723,289 L339,289 C343.147288,257.980326 354.526463,213.521611 383.519841,173.195096 C420.798398,120.46259 490.173751,78.0605831 602,81.159733 L592.680361,125.627839 C497.424445,125.627839 448.757316,159.746663 419.763925,199.040128 Z M586,159 L576.661557,204.750378 C526.869089,207.866503 500.92688,228.659555 484.323114,250.481872 C474.994099,262.965257 469.801883,276.477908 465.655656,290 L420,290 C424.146228,270.236215 432.448111,247.365747 448.005901,224.504722 C471.875003,189.141426 517.521231,161.077417 586,159 Z M502,290 C505.094059,283.860682 507.156765,280.795666 511.282165,274.656348 C521.61442,259.312694 538.134781,247.043343 566,245 L555.677126,290 L502,290 Z M818.216586,245 C818.216586,245 853.979267,253.182663 855,290 L808,290 L818.216586,245 Z M206.170729,246.032297 L260,246.032297 L209.273005,481.61186 C192.718115,559.099826 148.214481,587 84.0442764,587 C18.8305827,587 -13.2545196,559.099826 3.30977612,481.61186 L54.0179601,245 L107.847231,245 L56.0955576,485.741047 C46.7793139,528.102764 60.2413344,546.702878 92.3264367,546.702878 C124.411539,546.702878 145.1028,528.102764 154.419044,485.741047 L206.170729,245 L206.170729,246.032297 Z M398.377546,321 C436.592274,321 457.252447,338.603039 445.890288,390.405463 L405.611416,581 L354.983682,581 L392.175737,406.973584 C398.377546,373.827935 392.175737,361.399493 366.355228,361.399493 C345.695056,361.399493 322.961364,377.977022 315.727494,411.113262 L280.608971,579.965079 L230,579.965079 L283.705176,327.209517 L331.227305,327.209517 L325.034896,357.259815 L326.066956,357.259815 C343.621536,334.463362 370.483505,321 398.377546,321 Z M499.062584,327 L550,327 L495.94685,581 L445,581 L499.062584,327 Z M630.546014,383.533564 L748.901867,383.533564 L739.557487,427.986753 L621.201634,427.986753 L587.972988,581 L534,581 L606.671171,245 L779,245 L768.627835,290.495501 L650.271981,290.495501 L630.546014,383.533564 Z M746,581 L799.019336,327 L851,327 L796.941993,581 L746,581 Z M925.995313,245 C943.512307,245 960,259.409565 960,280 C960,300.590436 944.54162,315 925.995313,315 C906.419705,315 892,299.56185 892,280 C892,259.409565 907.458368,245 925.995313,245 Z M925.995281,309 C940.539916,309 953,297.608822 953,280 C953,263.425883 941.577473,251 925.995281,251 C910.422539,251 899,262.391177 899,280 C899,295.530003 909.384982,309 925.995281,309 Z M941.975566,272.288002 C941.975566,279.474666 937.830826,281.525334 931.618424,282.550669 L943,300 L935.763164,300 L925.415413,283.576003 L919.202999,283.576003 L919.202999,300 L913,300 L913,261 L927.483075,261 C936.796989,261 941.975566,264.076003 941.975566,272.288002 Z M919,277.516593 L925.005456,277.516593 C930.002426,277.516593 934,276.515232 934,271.499319 C934,267.484768 930.002426,266.483407 926.004853,266.483407 L919,266.483407 L919,277.516593 Z" id="UniFi-Protect-Logo" fill="#000000" fill-rule="nonzero"></path>
        <g id="Group" transform="translate(22.000000, 616.500000)" fill="#000000">
            <path d="M879.49264,0.5 C892.377023,0.5 916,58.480569 916,131.490247 C916,203.436867 892.377023,262.5 878.419766,262.5 L24.6958648,262.5 C10.7385947,262.5 -2.27373675e-13,203.436867 -2.27373675e-13,131.490247 C-2.27373675e-13,59.5436273 10.7385947,0.5 24.6958648,0.5 L879.49264,0.5 Z M682.78565,50.8121813 C641.977007,50.8121813 630.165512,76.5791557 630.165512,132.414101 C630.165512,188.258801 641.977007,214.025775 681.703017,214.025775 C718.220122,214.025775 730.031604,186.113179 730.031604,158.190828 L731.114238,158.190828 L731.114238,157.108265 L706.398869,157.108265 L706.398869,159.263639 C706.398869,173.229691 703.180219,196.841291 682.78565,196.841291 C664.527097,196.841291 655.94401,183.957803 655.94401,133.486912 C655.94401,83.0257759 664.527097,71.2150991 682.78565,71.2150991 C701.044203,70.1325354 705.33574,86.2442091 705.33574,101.283072 L705.33574,103.418941 L730.031604,103.418941 L730.031604,100.200508 C730.031604,84.098587 727.885829,50.8121813 682.78565,50.8121813 Z M357.399116,50.8121813 C321.964644,50.8121813 305.851866,76.5791557 305.851866,132.414101 C305.851866,188.258801 320.891769,214.025775 357.399116,214.025775 C393.906476,214.025775 410.029013,189.331612 408.946367,132.414101 C408.946367,76.5791557 392.843335,50.8121813 357.399116,50.8121813 Z M247.867304,55.1034255 L192.028517,55.1034255 L192.028517,211.8704 L216.724382,211.8704 L216.724382,143.16172 L237.128696,143.16172 C254.314375,143.16172 259.688545,150.671397 259.688545,167.855883 L259.688781,169.968769 C259.69245,180.711983 259.752978,188.844562 260.751687,197.923854 C261.824561,204.360722 262.907207,208.651966 265.043224,211.8704 L265.043224,212.952964 L295.113259,212.952964 C291.894609,210.807342 287.603072,206.516097 287.603072,198.986913 C286.530185,189.331612 286.530185,176.448125 286.530185,166.773318 C285.447539,144.234531 277.937352,135.642288 261.824561,134.569477 C279.010239,131.351043 287.603072,116.31218 287.603072,95.9092625 C287.603072,65.8412912 269.344519,55.1034255 247.867304,55.1034255 Z M834.198992,54.0306144 L735.405787,54.0306144 L735.405787,75.5063446 L772.99578,75.5063446 L772.99578,211.8704 L798.754774,211.8704 L798.754774,75.5063446 L834.198992,75.5063446 L834.198992,54.0306144 Z M611.906959,55.1034255 L527.071012,55.1034255 L527.071012,211.8704 L612.979847,211.8704 L612.979847,192.550045 L551.766876,192.550045 L551.766876,142.079155 L607.615422,142.079155 L607.615422,120.603425 L551.766876,120.603425 L551.766876,76.5791557 L611.906959,76.5791557 L611.906959,55.1034255 Z M512.040867,54.0306144 L413.247662,54.0306144 L413.247662,75.5063446 L450.827897,75.5063446 L450.827897,211.8704 L476.606408,211.8704 L476.606408,75.5063446 L512.040867,75.5063446 L512.040867,54.0306144 Z M131.888434,54.0306144 L82.4967044,54.0306144 L82.4967044,210.807342 L107.192569,210.807342 L107.192569,146.380153 L128.669772,146.380153 C157.666932,146.380153 173.769964,128.122857 174.842851,100.200508 C174.842851,73.3607212 161.958469,54.0306144 131.888434,54.0306144 Z" id="Combined-Shape"></path>
            <path d="M357.995099,69.5 C373.120976,69.5 385,79.1930599 385,131.962041 C385,185.816721 373.120976,195.5 357.995099,195.5 C342.879024,195.5 331,185.816721 331,131.962041 C331,79.1930599 342.879024,69.5 357.995099,69.5 Z" id="UniFi-Protect-Logo-path"></path>
            <path d="M237.381935,72.5 C254.491369,72.5 261.968255,81.160106 260.900127,98.5 C260.900127,114.757381 252.34541,124.5 236.313807,124.5 L216,124.5 L216,72.5 L237.381935,72.5 Z" id="UniFi-Protect-Logo-path"></path>
            <path d="M122.12012,72.5 C142.555857,72.5 149,83.2864276 149,100.538831 C149,119.956359 138.249997,127.5 124.277928,127.5 L106,127.5 L106,72.5 L122.12012,72.5 Z" id="UniFi-Protect-Logo-path"></path>
        </g>
    </g>
</svg>