<?xml version="1.0" encoding="UTF-8"?>
<svg width="960px" height="960px" viewBox="0 0 960 960" version="1.1" xmlns="http://www.w3.org/2000/svg" xmlns:xlink="http://www.w3.org/1999/xlink">
    <!-- Generator: Sketch 60.1 (88133) - https://sketch.com -->
    <title>com.ubnt.unifiprotect/icon</title>
    <desc>Created with Sketch.</desc>
    <g id="com.ubnt.unifiprotect/icon" stroke="none" stroke-width="1" fill="none" fill-rule="evenodd">
        <g id="Group" transform="translate(65.000000, 0.000000)" fill="#000000" fill-rule="nonzero">
            <path d="M51.8423151,155.675675 L51.8423151,443.191639 L103.76811,443.191639 L103.76811,391.043898 L155.57465,391.043898 L155.57465,507.260592 L207.48852,507.260592 L207.48852,312.846542 L259.366615,312.846542 L259.366615,692.773148 C259.366615,873.046675 414.5,960 414.5,960 C153.893084,960 0,799.336449 0,585.591353 L0,155.675675 L51.8423151,155.675675 Z M829,544.864866 L829,588.530878 C829,786.388991 695.415018,938.526334 466.468091,959.013592 L453.885736,960 L422.976502,942.787256 C417.886836,939.924509 313.015796,879.613469 284.96875,756.841313 C326.380655,782.581912 379.816147,800.362373 449.311025,803.527103 C641.832078,812.284463 772.750224,729.916957 829,544.864866 Z M822.956184,10.0714881 L822.956184,468.195811 L802.054345,535.087705 C759.333812,671.887703 674.921113,750.430948 545.495739,773.575543 C549.787617,751.897705 552.303271,729.877378 553.137861,708.610526 L553.450088,692.818785 L553.450088,189.694458 C553.450088,101.944459 578.849476,10.0714881 822.956184,10.0714881 Z M155.437499,285.405406 L155.437499,337.297297 L103.625,337.297297 L103.625,285.405406 L155.437499,285.405406 Z M207.250001,207.567569 L207.250001,259.459459 L155.437499,259.459459 L155.437499,207.567569 L207.250001,207.567569 Z M259.062499,129.729732 L259.062499,181.621622 L207.250001,181.621622 L207.250001,129.729732 L259.062499,129.729732 Z M155.437499,103.783785 L155.437499,155.675675 L103.625,155.675675 L103.625,103.783785 L155.437499,103.783785 Z M207.250001,51.8918903 L207.250001,103.783785 L155.437499,103.783785 L155.437499,51.8918903 L207.250001,51.8918903 Z M51.8124983,0 L51.8124983,51.8918903 L0,51.8918903 L0,0 L51.8124983,0 Z" id="Ubiquiti-Logo"></path>
        </g>
    </g>
</svg>