<svg width="960" height="960" viewBox="0 0 960 960" fill="none" xmlns="http://www.w3.org/2000/svg">
<path d="M478.5 7C581.527 7 675.286 13.4603 743.896 24.0586C778.053 29.335 806.845 35.7652 827.644 43.293C837.941 47.0198 847.393 51.4049 854.71 56.7725C861.419 61.6939 869.981 70.1782 870.918 82.8125L870.957 83.417L870.989 84.208C870.996 84.472 871 84.736 871 85V250C871 259.736 866.533 267.557 861.479 273.148C859.228 275.639 856.679 277.899 853.95 279.963L853.764 388.093C856.27 389.86 858.626 391.793 860.741 393.915C865.874 399.065 871 406.84 871 417V835C871 859.147 850.972 875.828 831.479 886.715C810.306 898.541 780.993 908.539 746.495 916.689C677.181 933.064 582.44 943 478.5 943C374.56 943 279.819 933.064 210.505 916.689C176.006 908.539 146.694 898.541 125.521 886.715C106.028 875.828 86 859.147 86 835V417C86 406.84 91.1261 399.065 96.2588 393.915C98.3742 391.793 100.731 389.861 103.237 388.093L103.061 279.971C100.328 277.905 97.7747 275.642 95.5205 273.148C90.4665 267.557 86 259.736 86 250V85C86 83.9408 86.0574 82.8864 86.1709 81.8408L86.2402 81.2559C87.8078 69.027 96.4105 60.9252 103.135 56.1641C110.52 50.9349 119.993 46.6224 130.36 42.9326C151.277 35.4883 180.074 29.1198 214.19 23.8916C282.698 13.393 376.011 7 478.5 7ZM831 757.895C829.476 758.752 827.909 759.596 826.3 760.423C806.33 770.689 778.088 779.639 744.022 787.047C675.728 801.897 581.857 811 478.5 811C375.143 811 281.272 801.897 212.978 787.047C178.912 779.639 150.67 770.689 130.7 760.423C129.091 759.596 127.524 758.752 126 757.895V835C126 835.154 126.819 841.624 145.025 851.793C161.551 861.023 186.791 869.986 219.701 877.761C285.205 893.236 376.714 903 478.5 903C580.286 903 671.795 893.236 737.299 877.761C770.209 869.986 795.449 861.023 811.975 851.793C830.181 841.624 831 835.154 831 835V757.895ZM831 436.691C829.125 437.466 827.184 438.224 825.182 438.961C805.417 446.237 777.386 452.607 743.436 457.894C675.377 468.491 581.713 475 478.5 475C375.287 475 281.623 468.491 213.564 457.894C179.614 452.607 151.583 446.237 131.818 438.961C129.816 438.224 127.875 437.466 126 436.691V734.071C129.589 736.845 134.176 739.721 139.845 742.636C157.574 751.751 183.884 760.253 217.228 767.504C283.752 781.97 376.131 791 478.5 791C580.869 791 673.248 781.97 739.772 767.504C773.116 760.253 799.426 751.751 817.155 742.636C822.824 739.721 827.411 736.845 831 734.071V436.691ZM742.808 547.512C759.365 547.616 773.207 557.435 782.457 571.034C791.736 584.675 797.084 602.926 796.945 622.566C796.806 642.207 791.199 660.39 781.728 673.913C772.285 687.395 758.305 697.04 741.748 696.937C725.191 696.833 711.348 687.013 702.098 673.414C692.819 659.774 687.469 641.522 687.608 621.882C687.748 602.242 693.356 584.058 702.827 570.535C712.27 557.053 726.25 547.408 742.808 547.512ZM742.666 567.512C734.554 567.461 726.096 572.162 719.206 582C712.345 591.797 707.723 605.908 707.608 622.007C707.494 638.106 711.916 652.273 718.638 662.155C725.388 672.079 733.777 676.887 741.89 676.938C750.002 676.988 758.459 672.286 765.35 662.448C772.211 652.651 776.832 638.541 776.946 622.441C777.06 606.342 772.64 592.174 765.918 582.292C759.168 572.369 750.778 567.563 742.666 567.512ZM813.953 278.192C795.325 284.436 771.431 289.984 743.577 294.729C675.461 306.333 581.747 313.458 478.5 313.458C375.253 313.458 281.54 306.333 213.424 294.729C185.575 289.985 161.684 284.438 143.057 278.195L143.256 399.467C143.268 406.754 139.317 413.438 133 416.962V417.939C134.769 418.683 136.676 419.436 138.728 420.191C156.662 426.794 183.183 432.921 216.642 438.131C283.401 448.526 375.988 455 478.5 455C581.012 455 673.599 448.526 740.358 438.131C773.817 432.921 800.338 426.794 818.272 420.191C820.324 419.436 822.231 418.683 824 417.939V416.962C817.682 413.438 813.732 406.753 813.744 399.466L813.953 278.192ZM831 114.691C829.125 115.466 827.184 116.224 825.182 116.961C805.417 124.237 777.386 130.607 743.436 135.894C675.377 146.491 581.713 153 478.5 153C375.287 153 281.623 146.491 213.564 135.894C179.614 130.607 151.583 124.237 131.818 116.961C129.816 116.224 127.875 115.466 126 114.691V247.105C127.126 248.099 129.161 249.595 132.548 251.435H132.547L132.585 251.455L133.182 251.792C134.498 252.566 135.706 253.48 136.791 254.507C137.511 254.811 138.25 255.119 139.009 255.425C156.885 262.625 183.35 269.318 216.782 275.014C283.485 286.377 376.021 293.458 478.5 293.458C580.979 293.458 673.515 286.377 740.218 275.014C773.65 269.318 800.115 262.625 817.991 255.425C818.755 255.117 819.497 254.807 820.221 254.501C821.47 253.319 822.881 252.287 824.435 251.444L824.465 251.428C827.844 249.591 829.875 248.098 831 247.105V114.691ZM214.955 64.2578C184.359 69.1431 160.261 74.7487 143.772 80.6172C134.967 83.7511 129.362 86.6052 126.249 88.8096C126.162 88.8713 126.08 88.9331 126 88.9912V92.6777C129.396 94.4583 133.619 96.3116 138.728 98.1924C156.662 104.795 183.183 110.921 216.642 116.131C283.401 126.526 375.988 133 478.5 133C581.012 133 673.599 126.526 740.358 116.131C773.817 110.921 800.338 104.795 818.272 98.1924C823.382 96.3116 827.604 94.4583 831 92.6777V88.9883C828.091 86.8675 822.697 84.0416 814.031 80.9053C797.549 74.9396 773.171 69.2288 742.044 64.2588C742.648 66.0265 743 67.9397 743 70C743 77.2778 738.62 82.7247 734.196 86.377C729.664 90.1192 723.585 93.2781 716.71 96.0244C702.864 101.555 683.423 106.329 660.125 110.266C613.368 118.166 549.159 123 478.5 123C407.841 123 343.632 118.166 296.875 110.266C273.577 106.329 254.136 101.555 240.29 96.0244C233.415 93.2781 227.336 90.1192 222.804 86.377C218.38 82.7247 214 77.2778 214 70C214 67.9394 214.351 66.0257 214.955 64.2578ZM478.5 47C396.9 47 321.748 51.1189 261.109 58.0234C256.045 59.4953 251.567 61.0081 247.71 62.5488C241.707 64.947 237.785 67.1888 235.537 69.0449C235.078 69.4237 234.741 69.7429 234.493 70C234.741 70.2571 235.078 70.5763 235.537 70.9551C237.785 72.8112 241.707 75.053 247.71 77.4512C259.621 82.209 277.45 86.6999 300.207 90.5449C345.561 98.2079 408.603 103 478.5 103C548.397 103 611.439 98.2079 656.793 90.5449C679.55 86.6998 697.38 82.209 709.291 77.4512C715.294 75.0531 719.215 72.8111 721.463 70.9551C721.921 70.5765 722.258 70.257 722.506 70C722.258 69.743 721.921 69.4235 721.463 69.0449C719.215 67.1889 715.294 64.9469 709.291 62.5488C705.434 61.0082 700.957 59.4962 695.893 58.0244C635.256 51.1199 560.103 47 478.5 47ZM478.5 60C511.913 60 539 64.4772 539 70C539 75.5228 511.913 80 478.5 80C445.087 80 418 75.5228 418 70C418 64.4772 445.087 60 478.5 60Z" fill="black"/>
</svg>
