<svg width="960" height="960" viewBox="0 0 960 960" fill="none" xmlns="http://www.w3.org/2000/svg">
<path d="M181.031 93.5616C183.93 92.344 187.119 91.8069 190.353 92.0626L190.639 92.085L190.638 92.086L864.3 145.35C869.754 145.781 874.793 148.428 878.244 152.674L917.271 200.691C920.168 204.257 921.75 208.711 921.75 213.305V232.361L931.422 233.051C941.889 233.797 950 242.506 950 253V605.678C950 720.688 861.414 816.292 746.736 825.041L746.735 825.04L391.538 852.44L391.532 852.371C365.578 854.364 340.377 851.561 316.796 844.713L182.432 812.212C181.996 812.107 181.563 811.987 181.136 811.853C86.0657 781.965 18 682.483 18 566.226V195.211C18 190.85 19.4264 186.607 22.0605 183.131L58.6641 134.829L58.9053 134.517C61.4288 131.32 64.8714 128.967 68.7734 127.777L181.031 93.5616ZM194.999 632.368C194.999 713.361 248.039 781.159 320.263 804.398L329.202 806.561L329.18 806.652C343.195 810.607 357.932 812.804 373.135 812.986C374.419 813.001 375.705 813.002 376.995 812.989C380.81 812.949 384.653 812.783 388.52 812.485L388.521 812.512C388.776 812.493 389.032 812.476 389.288 812.456L389.29 812.495L743.677 785.158L743.693 785.156C837.52 777.998 910 699.777 910 605.678V271.624L900.328 270.936C900.192 270.926 900.056 270.913 899.92 270.9L194.999 232.229V632.368ZM58 204.065V566.226C58 667.627 117.014 749.437 192.551 773.507L247.496 786.797C203.346 750.121 174.999 694.764 174.999 632.368V233.192L150.811 238.285C147.862 238.906 144.789 238.164 142.449 236.266C140.109 234.367 138.75 231.514 138.75 228.5V180.037L58 204.065ZM821 246.54L881.75 249.873V220.407L852.606 184.55L821 182.05V246.54ZM288 217.3L801 245.442V180.469L288 139.907V217.3ZM754.482 180.049C762.574 179.937 769.197 184.243 773.473 189.782C777.746 195.319 780.147 202.558 780.252 210.164C780.357 217.77 778.158 225.072 774.04 230.725C769.919 236.381 763.417 240.867 755.325 240.98C747.234 241.091 740.61 236.787 736.334 231.247C732.061 225.711 729.66 218.472 729.555 210.866C729.449 203.26 731.648 195.958 735.767 190.305C739.887 184.649 746.391 180.161 754.482 180.049ZM669.505 172.199C677.89 172.083 684.783 176.544 689.255 182.337C693.724 188.127 696.249 195.72 696.359 203.717C696.47 211.714 694.157 219.372 689.85 225.284C685.54 231.199 678.774 235.85 670.389 235.966C662.004 236.082 655.111 231.621 650.64 225.827C646.17 220.037 643.646 212.445 643.535 204.448C643.424 196.451 645.738 188.792 650.045 182.88C654.354 176.965 661.12 172.316 669.505 172.199ZM584.441 164.597C593.095 164.477 600.232 169.078 604.883 175.104C609.531 181.126 612.168 189.04 612.284 197.395C612.4 205.749 609.983 213.734 605.503 219.883C601.021 226.035 594.014 230.832 585.36 230.952C576.707 231.072 569.57 226.47 564.919 220.444C560.271 214.422 557.633 206.508 557.518 198.153C557.402 189.799 559.819 181.814 564.299 175.665C568.781 169.514 575.788 164.717 584.441 164.597ZM498.949 159.183C507.748 159.061 515.019 163.74 519.767 169.892C524.512 176.04 527.212 184.129 527.33 192.678C527.448 201.227 524.974 209.387 520.4 215.664C515.825 221.945 508.687 226.823 499.888 226.944C491.089 227.066 483.819 222.388 479.071 216.236C474.326 210.088 471.626 201.999 471.508 193.45C471.389 184.901 473.864 176.741 478.438 170.464C483.013 164.184 490.15 159.305 498.949 159.183ZM413.561 152.482C422.535 152.357 429.966 157.128 434.831 163.431C439.693 169.73 442.466 178.03 442.588 186.813C442.71 195.595 440.167 203.969 435.481 210.4C430.793 216.836 423.497 221.812 414.522 221.937C405.548 222.061 398.119 217.288 393.254 210.985C388.391 204.686 385.618 196.386 385.496 187.604C385.375 178.821 387.917 170.448 392.604 164.016C397.292 157.581 404.587 152.606 413.561 152.482ZM754.759 200.047C754.373 200.052 753.264 200.254 751.932 202.082C750.597 203.914 749.502 206.892 749.553 210.589C749.604 214.286 750.782 217.233 752.166 219.026C753.548 220.817 754.663 220.987 755.049 220.982C755.435 220.976 756.543 220.775 757.875 218.947C759.209 217.116 760.305 214.138 760.254 210.441C760.203 206.744 759.025 203.797 757.641 202.003C756.259 200.213 755.145 200.042 754.759 200.047ZM327.408 147.258C336.383 147.134 343.814 151.904 348.679 158.207C353.541 164.507 356.314 172.807 356.436 181.59C356.557 190.372 354.015 198.746 349.329 205.178C344.641 211.613 337.344 216.589 328.37 216.713C319.396 216.837 311.966 212.065 307.102 205.762C302.239 199.462 299.465 191.163 299.344 182.38C299.222 173.597 301.765 165.224 306.451 158.792C311.14 152.357 318.434 147.382 327.408 147.258ZM184.52 134.315L158.75 168.625V216.176L179.939 211.715L180.262 211.652C181.015 211.519 181.782 211.473 182.547 211.515L268 216.202V138.325L191.267 132.259L184.52 134.315ZM669.782 192.197C669.103 192.207 667.73 192.57 666.209 194.657C664.686 196.748 663.477 200.082 663.533 204.171C663.59 208.259 664.891 211.559 666.472 213.607C668.05 215.651 669.432 215.977 670.111 215.968C670.791 215.958 672.164 215.594 673.685 213.507C675.208 211.416 676.418 208.082 676.361 203.993C676.305 199.905 675.003 196.605 673.423 194.558C671.845 192.513 670.462 192.188 669.782 192.197ZM584.719 184.595C583.771 184.608 582.157 185.119 580.464 187.442C578.768 189.77 577.454 193.43 577.516 197.876C577.577 202.322 578.993 205.944 580.752 208.224C582.509 210.5 584.136 210.967 585.084 210.954C586.032 210.941 587.646 210.43 589.339 208.106C591.035 205.778 592.348 202.118 592.286 197.672C592.225 193.226 590.81 189.604 589.051 187.324C587.294 185.048 585.666 184.582 584.719 184.595ZM499.227 179.181C498.133 179.196 496.39 179.789 494.603 182.241C492.813 184.697 491.442 188.534 491.506 193.174C491.57 197.814 493.048 201.61 494.904 204.016C496.759 206.418 498.518 206.961 499.611 206.946C500.705 206.931 502.449 206.339 504.236 203.887C506.026 201.431 507.396 197.594 507.332 192.954C507.268 188.314 505.791 184.517 503.935 182.111C502.08 179.709 500.32 179.166 499.227 179.181ZM413.838 172.48C412.569 172.497 410.667 173.186 408.768 175.793C406.866 178.404 405.427 182.452 405.494 187.326C405.562 192.2 407.112 196.209 409.086 198.766C411.057 201.319 412.977 201.956 414.245 201.939C415.514 201.921 417.416 201.231 419.316 198.623C421.218 196.012 422.657 191.964 422.59 187.09C422.522 182.216 420.972 178.209 418.998 175.651C417.027 173.097 415.106 172.462 413.838 172.48ZM327.686 167.256C326.417 167.274 324.515 167.962 322.615 170.569C320.713 173.18 319.274 177.23 319.342 182.104C319.409 186.978 320.96 190.985 322.934 193.542C324.905 196.096 326.824 196.732 328.093 196.715C329.361 196.697 331.264 196.008 333.164 193.4C335.066 190.79 336.505 186.74 336.438 181.866C336.37 176.992 334.819 172.985 332.846 170.428C330.874 167.874 328.954 167.238 327.686 167.256ZM86.6309 164.151L76.3301 177.743L141.438 158.369L152.079 144.202L86.6309 164.151Z" fill="black"/>
</svg>
