<?xml version="1.0" encoding="utf-8"?>
<!-- Generator: Adobe Illustrator 21.0.0, SVG Export Plug-In . SVG Version: 6.00 Build 0)  -->
<svg version="1.1" id="Layer_1" xmlns="http://www.w3.org/2000/svg" xmlns:xlink="http://www.w3.org/1999/xlink" x="0px" y="0px"
	 viewBox="0 0 914.7 1417.3" style="enable-background:new 0 0 914.7 1417.3;" xml:space="preserve">
<g>
	<path d="M889.4,1201.4H25.3c-13.9,0-25.3-11.3-25.3-25.3V50.6C0,22.7,22.7,0,50.6,0h813.4c27.9,0,50.6,22.7,50.6,50.6v1125.5
		C914.7,1190.1,903.4,1201.4,889.4,1201.4z M50.6,17.2c-18.4,0-33.4,15-33.4,33.4v1125.5c0,4.5,3.6,8.1,8.1,8.1h864.2
		c4.5,0,8.1-3.6,8.1-8.1V50.6c0-18.4-15-33.4-33.4-33.4H50.6z"/>
</g>
<g>
	<path d="M741.2,700.3H173.5c-4,0-7.2-3.2-7.2-7.2V189.6c0-4,3.2-7.2,7.2-7.2h567.6c4,0,7.2,3.2,7.2,7.2v503.5
		C748.3,697,745.1,700.3,741.2,700.3z M174.9,691.7h564.8V191H174.9V691.7z"/>
</g>
<g>
	<rect x="79.3" y="12.9" width="8.6" height="1179.9"/>
</g>
<g>
	<path d="M225.5,1135.5v-25.4h5.1v10h10v-10h5.1v25.4h-5.1v-11.1h-10v11.1H225.5z"/>
	<path d="M250,1123c0-2.6,0.4-4.8,1.2-6.5c0.6-1.3,1.4-2.5,2.4-3.5c1-1,2.1-1.8,3.3-2.3c1.6-0.7,3.4-1,5.5-1c3.7,0,6.7,1.2,9,3.5
		c2.2,2.3,3.4,5.5,3.4,9.7c0,4.1-1.1,7.3-3.3,9.6c-2.2,2.3-5.2,3.5-8.9,3.5c-3.8,0-6.8-1.2-9-3.5C251.1,1130.2,250,1127,250,1123z
		 M255.3,1122.8c0,2.9,0.7,5.1,2,6.5c1.3,1.5,3,2.2,5.1,2.2c2,0,3.7-0.7,5-2.2c1.3-1.5,2-3.7,2-6.6c0-2.9-0.6-5.1-1.9-6.5
		c-1.3-1.4-3-2.1-5.1-2.1c-2.1,0-3.8,0.7-5.1,2.2C256,1117.7,255.3,1119.9,255.3,1122.8z"/>
	<path d="M278.6,1110.1h5.1v13.8c0,2.2,0.1,3.6,0.2,4.2c0.2,1,0.7,1.9,1.6,2.5c0.8,0.6,2,0.9,3.4,0.9c1.5,0,2.6-0.3,3.3-0.9
		c0.7-0.6,1.2-1.3,1.3-2.2c0.1-0.9,0.2-2.3,0.2-4.3v-14h5.1v13.3c0,3-0.1,5.2-0.4,6.5c-0.3,1.3-0.8,2.3-1.5,3.2
		c-0.7,0.9-1.7,1.6-3,2.1c-1.2,0.5-2.9,0.8-4.9,0.8c-2.4,0-4.3-0.3-5.5-0.8c-1.3-0.6-2.2-1.3-3-2.2c-0.7-0.9-1.2-1.8-1.4-2.8
		c-0.3-1.5-0.5-3.6-0.5-6.4V1110.1z"/>
	<path d="M303,1127.3l5-0.5c0.3,1.7,0.9,2.9,1.8,3.7s2.2,1.2,3.7,1.2c1.7,0,2.9-0.3,3.7-1c0.8-0.7,1.3-1.5,1.3-2.5
		c0-0.6-0.2-1.1-0.5-1.5c-0.4-0.4-1-0.8-1.8-1.1c-0.6-0.2-2-0.6-4.1-1.1c-2.7-0.7-4.7-1.5-5.8-2.5c-1.6-1.4-2.3-3.1-2.3-5.1
		c0-1.3,0.4-2.5,1.1-3.6c0.7-1.1,1.8-2,3.2-2.6c1.4-0.6,3-0.9,5-0.9c3.2,0,5.6,0.7,7.2,2.1c1.6,1.4,2.5,3.3,2.5,5.6l-5.1,0.2
		c-0.2-1.3-0.7-2.2-1.4-2.8c-0.7-0.6-1.8-0.9-3.2-0.9c-1.5,0-2.7,0.3-3.5,0.9c-0.5,0.4-0.8,0.9-0.8,1.6c0,0.6,0.3,1.1,0.8,1.5
		c0.6,0.5,2.2,1.1,4.7,1.7c2.5,0.6,4.3,1.2,5.5,1.8c1.2,0.6,2.1,1.5,2.8,2.6c0.7,1.1,1,2.4,1,4c0,1.5-0.4,2.8-1.2,4.1
		c-0.8,1.3-2,2.2-3.4,2.8c-1.5,0.6-3.3,0.9-5.5,0.9c-3.2,0-5.7-0.7-7.4-2.2C304.4,1132.3,303.3,1130.1,303,1127.3z"/>
	<path d="M328,1135.5v-25.4h18.8v4.3h-13.7v5.6h12.7v4.3h-12.7v6.9h14.2v4.3H328z"/>
</g>
<g>
	<path d="M306.3,832.2h-6.7l-2.7-6.9h-12.2l-2.5,6.9h-6.6l11.9-30.6h6.5L306.3,832.2z M294.9,820.1l-4.2-11.4l-4.1,11.4H294.9z"/>
</g>
<g>
	<path d="M179,858c0-3.1,0.5-5.7,1.4-7.8c0.7-1.6,1.6-3,2.8-4.2s2.5-2.2,4-2.8c1.9-0.8,4.1-1.2,6.6-1.2c4.5,0,8.1,1.4,10.8,4.2
		c2.7,2.8,4.1,6.7,4.1,11.7c0,4.9-1.3,8.8-4,11.6c-2.7,2.8-6.3,4.2-10.8,4.2c-4.6,0-8.2-1.4-10.9-4.2C180.4,866.7,179,862.9,179,858
		z M185.4,857.8c0,3.5,0.8,6.1,2.4,7.9c1.6,1.8,3.6,2.7,6.1,2.7c2.5,0,4.5-0.9,6.1-2.7c1.6-1.8,2.4-4.4,2.4-8c0-3.5-0.8-6.1-2.3-7.8
		c-1.5-1.7-3.6-2.6-6.1-2.6c-2.5,0-4.6,0.9-6.2,2.6C186.2,851.7,185.4,854.3,185.4,857.8z"/>
</g>
<g>
	<path d="M388.6,861.9l6,1.9c-0.9,3.3-2.4,5.8-4.6,7.4c-2.1,1.6-4.8,2.4-8.1,2.4c-4.1,0-7.4-1.4-10-4.2c-2.6-2.8-3.9-6.6-3.9-11.4
		c0-5.1,1.3-9,3.9-11.9c2.6-2.8,6.1-4.2,10.4-4.2c3.7,0,6.8,1.1,9.1,3.3c1.4,1.3,2.4,3.2,3.1,5.6l-6.1,1.5c-0.4-1.6-1.1-2.8-2.3-3.8
		c-1.1-0.9-2.5-1.4-4.2-1.4c-2.3,0-4.1,0.8-5.5,2.4c-1.4,1.6-2.1,4.3-2.1,7.9c0,3.9,0.7,6.6,2.1,8.3c1.4,1.6,3.2,2.5,5.4,2.5
		c1.6,0,3.1-0.5,4.2-1.6C387.3,865.8,388.1,864.1,388.6,861.9z"/>
</g>
<g>
	<path d="M139.8,961.6V931h9.2l5.6,20.9l5.5-20.9h9.3v30.6h-5.7v-24.1l-6.1,24.1h-5.9l-6.1-24.1v24.1H139.8z"/>
</g>
<g>
	<path d="M409.8,961.6V931h22.7v5.2H416v6.8h15.4v5.2H416v8.3H433v5.2H409.8z"/>
</g>
<g>
	<path d="M181.6,1057.5v-30.6h6.2v13.6l12.5-13.6h8.3l-11.5,11.9l12.1,18.7h-8l-8.4-14.4l-5,5.1v9.2H181.6z"/>
</g>
<g>
	<path d="M382.1,1046.2v-5.2h13.3v12.2c-1.3,1.3-3.2,2.4-5.6,3.3c-2.5,1-4.9,1.4-7.5,1.4c-3.2,0-6-0.7-8.4-2
		c-2.4-1.3-4.2-3.3-5.4-5.8c-1.2-2.5-1.8-5.2-1.8-8.1c0-3.2,0.7-6,2-8.5s3.3-4.4,5.9-5.7c2-1,4.4-1.5,7.3-1.5c3.8,0,6.8,0.8,8.9,2.4
		c2.1,1.6,3.5,3.8,4.1,6.6l-6.1,1.1c-0.4-1.5-1.2-2.7-2.4-3.6c-1.2-0.9-2.7-1.3-4.5-1.3c-2.7,0-4.8,0.9-6.4,2.6
		c-1.6,1.7-2.4,4.2-2.4,7.6c0,3.6,0.8,6.4,2.4,8.2c1.6,1.8,3.7,2.7,6.3,2.7c1.3,0,2.6-0.3,3.9-0.8c1.3-0.5,2.4-1.1,3.3-1.8v-3.9
		H382.1z"/>
</g>
<g>
	<circle cx="242.3" cy="837.1" r="5.3"/>
</g>
<g>
	<ellipse transform="matrix(0.7071 -0.7071 0.7071 0.7071 -583.5184 391.4422)" cx="180.8" cy="900.1" rx="5.3" ry="5.3"/>
</g>
<g>
	<circle cx="181.8" cy="988.2" r="5.3"/>
</g>
<g>
	<ellipse transform="matrix(0.7071 -0.7071 0.7071 0.7071 -670.5786 480.5309)" cx="244.8" cy="1049.7" rx="5.3" ry="5.3"/>
</g>
<g>
	<circle cx="332.8" cy="1048.7" r="5.3"/>
</g>
<g>
	<ellipse transform="matrix(0.7071 -0.7071 0.7071 0.7071 -581.4899 567.591)" cx="394.4" cy="985.7" rx="5.3" ry="5.3"/>
</g>
<g>
	<circle cx="393.4" cy="897.6" r="5.3"/>
</g>
<g>
	<ellipse transform="matrix(0.7071 -0.7071 0.7071 0.7071 -494.4298 478.5023)" cx="330.4" cy="836.1" rx="5.3" ry="5.3"/>
</g>
<g>
	<path d="M627.1,849.1c-51.8,0-93.8,42-93.8,93.8c0,51.8,42,93.8,93.8,93.8c51.8,0,93.8-42,93.8-93.8
		C720.9,891.1,678.9,849.1,627.1,849.1z M633.2,862.3v117H621v-117H633.2z M627.1,1012.9c-38.7,0-70-31.4-70-70.1
		c0-33.6,23.7-61.6,55.4-68.4v113.3h29.4V874.5c31.6,6.7,55.4,34.8,55.4,68.4C697.2,981.6,665.8,1012.9,627.1,1012.9z"/>
	<path d="M287.6,849.1c-51.8,0-93.8,42-93.8,93.8c0,51.8,42,93.8,93.8,93.8c51.8,0,93.8-42,93.8-93.8
		C381.4,891.1,339.4,849.1,287.6,849.1z M293.7,862.3v117h-12.2v-117H293.7z M287.6,1012.9c-38.7,0-70.1-31.4-70.1-70.1
		c0-33.6,23.7-61.6,55.4-68.4v113.3h29.4V874.5c31.6,6.7,55.4,34.8,55.4,68.4C357.6,981.6,326.3,1012.9,287.6,1012.9z"/>
</g>
<g>
	<path d="M588.3,1109.9h5.1v13.8c0,2.2,0.1,3.6,0.2,4.2c0.2,1,0.7,1.9,1.6,2.5c0.8,0.6,2,0.9,3.4,0.9c1.5,0,2.6-0.3,3.3-0.9
		c0.7-0.6,1.2-1.3,1.3-2.2c0.1-0.9,0.2-2.3,0.2-4.3v-14h5.1v13.3c0,3-0.1,5.2-0.4,6.5c-0.3,1.3-0.8,2.3-1.5,3.2
		c-0.7,0.9-1.7,1.6-3,2.1c-1.2,0.5-2.9,0.8-4.9,0.8c-2.4,0-4.3-0.3-5.5-0.8c-1.3-0.6-2.2-1.3-3-2.2c-0.7-0.9-1.2-1.8-1.4-2.8
		c-0.3-1.5-0.5-3.6-0.5-6.4V1109.9z"/>
	<path d="M614,1135.3v-25.4h5l10.4,17v-17h4.8v25.4H629l-10.2-16.6v16.6H614z"/>
	<path d="M639.4,1135.3v-25.4h5.1v25.4H639.4z"/>
	<path d="M655.1,1135.3v-21.1h-7.5v-4.3h20.2v4.3h-7.5v21.1H655.1z"/>
</g>
<g>
	<path d="M634.3,831.9h-5.9v-22.1c-2.1,2-4.7,3.5-7.6,4.4V809c1.5-0.5,3.2-1.5,5-2.8c1.8-1.4,3-3,3.7-4.9h4.8V831.9z"/>
</g>
<g>
	<path d="M525.9,872.9h-5.9v-22.1c-2.1,2-4.7,3.5-7.6,4.4v-5.3c1.5-0.5,3.2-1.5,5-2.8c1.8-1.4,3-3,3.7-4.9h4.8V872.9z"/>
	<path d="M534.8,865l5.8-0.6c0.2,1.3,0.7,2.4,1.5,3.1c0.8,0.8,1.8,1.2,2.8,1.2c1.2,0,2.3-0.5,3.1-1.5c0.8-1,1.3-2.5,1.3-4.5
		c0-1.9-0.4-3.3-1.3-4.2c-0.8-0.9-1.9-1.4-3.3-1.4c-1.7,0-3.2,0.7-4.5,2.2l-4.8-0.7l3-15.9H554v5.5h-11.1l-0.9,5.2
		c1.3-0.7,2.6-1,4-1c2.6,0,4.8,0.9,6.6,2.8c1.8,1.9,2.7,4.3,2.7,7.4c0,2.5-0.7,4.8-2.2,6.7c-2,2.7-4.8,4-8.3,4
		c-2.8,0-5.1-0.8-6.9-2.3C536.2,869.6,535.1,867.6,534.8,865z"/>
</g>
<g>
	<path d="M710.2,864.8l5.7-0.7c0.2,1.4,0.7,2.6,1.5,3.3c0.8,0.8,1.8,1.1,2.9,1.1c1.2,0,2.2-0.5,3.1-1.4c0.8-0.9,1.2-2.2,1.2-3.7
		c0-1.5-0.4-2.6-1.2-3.5c-0.8-0.9-1.8-1.3-2.9-1.3c-0.8,0-1.6,0.1-2.7,0.4l0.6-4.8c1.6,0,2.8-0.3,3.6-1c0.8-0.7,1.3-1.7,1.3-2.9
		c0-1-0.3-1.9-0.9-2.5s-1.4-0.9-2.4-0.9c-1,0-1.9,0.3-2.6,1c-0.7,0.7-1.1,1.7-1.3,3l-5.4-0.9c0.4-1.9,0.9-3.3,1.7-4.4
		c0.8-1.1,1.8-2,3.2-2.6c1.4-0.6,2.9-0.9,4.6-0.9c2.9,0,5.2,0.9,6.9,2.8c1.4,1.5,2.1,3.2,2.1,5.1c0,2.7-1.5,4.8-4.4,6.4
		c1.8,0.4,3.2,1.2,4.2,2.5c1.1,1.3,1.6,2.9,1.6,4.7c0,2.7-1,5-2.9,6.9c-2,1.9-4.4,2.8-7.3,2.8c-2.8,0-5.1-0.8-6.9-2.4
		C711.5,869.4,710.5,867.4,710.2,864.8z"/>
</g>
<g>
	<path d="M486.7,961.3h-5.9v-22.1c-2.1,2-4.7,3.5-7.6,4.4v-5.3c1.5-0.5,3.2-1.5,5-2.8c1.8-1.4,3-3,3.7-4.9h4.8V961.3z"/>
	<path d="M495.3,953.2l5.7-0.7c0.2,1.4,0.7,2.6,1.5,3.3c0.8,0.8,1.8,1.1,2.9,1.1c1.2,0,2.2-0.5,3.1-1.4c0.8-0.9,1.2-2.2,1.2-3.7
		c0-1.5-0.4-2.6-1.2-3.5c-0.8-0.9-1.8-1.3-2.9-1.3c-0.8,0-1.6,0.1-2.7,0.4l0.6-4.8c1.6,0,2.8-0.3,3.6-1c0.8-0.7,1.3-1.7,1.3-2.9
		c0-1-0.3-1.9-0.9-2.5c-0.6-0.6-1.4-0.9-2.4-0.9c-1,0-1.9,0.3-2.6,1c-0.7,0.7-1.1,1.7-1.3,3l-5.4-0.9c0.4-1.9,0.9-3.3,1.7-4.4
		c0.8-1.1,1.8-2,3.2-2.6c1.4-0.6,2.9-0.9,4.6-0.9c2.9,0,5.2,0.9,6.9,2.8c1.4,1.5,2.1,3.2,2.1,5.1c0,2.7-1.5,4.8-4.4,6.4
		c1.8,0.4,3.2,1.2,4.2,2.5c1.1,1.3,1.6,2.9,1.6,4.7c0,2.7-1,5-2.9,6.9c-2,1.9-4.4,2.8-7.3,2.8c-2.8,0-5.1-0.8-6.9-2.4
		C496.7,957.9,495.6,955.8,495.3,953.2z"/>
</g>
<g>
	<path d="M750,953.5l5.8-0.6c0.2,1.3,0.7,2.4,1.5,3.1c0.8,0.8,1.8,1.2,2.8,1.2c1.2,0,2.3-0.5,3.1-1.5c0.8-1,1.3-2.5,1.3-4.5
		c0-1.9-0.4-3.3-1.3-4.2c-0.8-0.9-1.9-1.4-3.3-1.4c-1.7,0-3.2,0.7-4.5,2.2l-4.8-0.7l3-15.9h15.5v5.5h-11.1l-0.9,5.2
		c1.3-0.7,2.6-1,4-1c2.6,0,4.8,0.9,6.6,2.8c1.8,1.9,2.7,4.3,2.7,7.4c0,2.5-0.7,4.8-2.2,6.7c-2,2.7-4.8,4-8.3,4
		c-2.8,0-5.1-0.8-6.9-2.3C751.4,958.1,750.4,956,750,953.5z"/>
</g>
<g>
	<path d="M527.1,1057.2h-5.9v-22.1c-2.1,2-4.7,3.5-7.6,4.4v-5.3c1.5-0.5,3.2-1.5,5-2.8c1.8-1.4,3-3,3.7-4.9h4.8V1057.2z"/>
	<path d="M548.5,1057.2h-5.9v-22.1c-2.1,2-4.7,3.5-7.6,4.4v-5.3c1.5-0.5,3.2-1.5,5-2.8c1.8-1.4,3-3,3.7-4.9h4.8V1057.2z"/>
</g>
<g>
	<path d="M710.4,1032.5v-5.4h20.1v4.3c-1.7,1.6-3.3,4-5.1,7c-1.7,3-3,6.3-3.9,9.7c-0.9,3.4-1.3,6.5-1.3,9.2h-5.7
		c0.1-4.2,1-8.5,2.6-12.9c1.6-4.4,3.9-8.3,6.6-11.8H710.4z"/>
</g>
<g>
	<circle cx="581.4" cy="836.8" r="5.3"/>
</g>
<g>
	<ellipse transform="matrix(0.7071 -0.7071 0.7071 0.7071 -484.023 631.141)" cx="519.8" cy="899.8" rx="5.3" ry="5.3"/>
</g>
<g>
	<circle cx="520.9" cy="987.9" r="5.3"/>
</g>
<g>
	<ellipse transform="matrix(0.7071 -0.7071 0.7071 0.7071 -571.0831 720.2297)" cx="583.9" cy="1049.5" rx="5.3" ry="5.3"/>
</g>
<g>
	<circle cx="671.9" cy="1048.5" r="5.3"/>
</g>
<g>
	<ellipse transform="matrix(0.7071 -0.7071 0.7071 0.7071 -481.9945 807.2899)" cx="733.5" cy="985.5" rx="5.3" ry="5.3"/>
</g>
<g>
	<circle cx="732.5" cy="897.4" r="5.3"/>
</g>
<g>
	<ellipse transform="matrix(0.7071 -0.7071 0.7071 0.7071 -394.9343 718.2012)" cx="669.5" cy="835.8" rx="5.3" ry="5.3"/>
</g>
<g>
	<path d="M617.2,1088.1l5.7-0.6c0.1,1.2,0.5,2,1.1,2.6c0.6,0.6,1.4,0.8,2.3,0.8c1.2,0,2.2-0.6,3.1-1.7c0.8-1.1,1.4-3.4,1.6-6.9
		c-1.5,1.7-3.3,2.6-5.5,2.6c-2.4,0-4.5-0.9-6.2-2.8c-1.7-1.9-2.6-4.3-2.6-7.3c0-3.1,0.9-5.6,2.8-7.5c1.8-1.9,4.2-2.8,7-2.8
		c3.1,0,5.6,1.2,7.6,3.6c2,2.4,3,6.3,3,11.8c0,5.6-1,9.6-3.1,12.1c-2.1,2.5-4.8,3.7-8.1,3.7c-2.4,0-4.3-0.6-5.8-1.9
		C618.5,1092.6,617.6,1090.7,617.2,1088.1z M630.4,1075.3c0-1.9-0.4-3.4-1.3-4.4c-0.9-1-1.9-1.6-3-1.6c-1.1,0-2,0.4-2.7,1.3
		c-0.7,0.9-1.1,2.3-1.1,4.2c0,2,0.4,3.4,1.2,4.4c0.8,0.9,1.8,1.4,2.9,1.4c1.1,0,2.1-0.4,2.8-1.3
		C630.1,1078.4,630.4,1077,630.4,1075.3z"/>
</g>
<g>
	<path d="M340.2,430h-9.5l-3.8-9.8h-17.3L306,430h-9.3l16.9-43.3h9.3L340.2,430z M324.1,412.9l-6-16.1l-5.9,16.1H324.1z"/>
	<path d="M344.2,430v-43.3h14c5.3,0,8.8,0.2,10.4,0.6c2.5,0.7,4.6,2.1,6.2,4.2c1.7,2.2,2.5,5,2.5,8.4c0,2.7-0.5,4.9-1.4,6.7
		c-1,1.8-2.2,3.2-3.7,4.3c-1.5,1-3,1.7-4.5,2.1c-2.1,0.4-5.1,0.6-9.1,0.6H353V430H344.2z M353,394v12.3h4.8c3.4,0,5.8-0.2,6.9-0.7
		c1.2-0.5,2.1-1.2,2.7-2.1c0.7-1,1-2.1,1-3.4c0-1.6-0.5-2.9-1.4-3.9c-0.9-1-2.1-1.7-3.5-1.9c-1-0.2-3.1-0.3-6.3-0.3H353z"/>
	<path d="M384,430v-43.3h14c5.3,0,8.8,0.2,10.4,0.6c2.5,0.7,4.6,2.1,6.2,4.2c1.7,2.2,2.5,5,2.5,8.4c0,2.7-0.5,4.9-1.4,6.7
		c-1,1.8-2.2,3.2-3.7,4.3c-1.5,1-3,1.7-4.5,2.1c-2.1,0.4-5.1,0.6-9.1,0.6h-5.7V430H384z M392.8,394v12.3h4.8c3.4,0,5.8-0.2,6.9-0.7
		c1.2-0.5,2.1-1.2,2.7-2.1c0.7-1,1-2.1,1-3.4c0-1.6-0.5-2.9-1.4-3.9c-0.9-1-2.1-1.7-3.5-1.9c-1-0.2-3.1-0.3-6.3-0.3H392.8z"/>
	<path d="M424,430v-43h8.8v35.7h21.8v7.3H424z"/>
	<path d="M459.9,430v-43.3h8.8V430H459.9z"/>
	<path d="M515.5,430h-9.5l-3.8-9.8h-17.3l-3.6,9.8H472l16.9-43.3h9.3L515.5,430z M499.4,412.9l-6-16.1l-5.9,16.1H499.4z"/>
	<path d="M519.6,430v-43.3h8.5l17.7,28.9v-28.9h8.1V430h-8.8l-17.5-28.3V430H519.6z"/>
	<path d="M590.4,414.1l8.5,2.7c-1.3,4.7-3.5,8.2-6.5,10.5c-3,2.3-6.9,3.4-11.5,3.4c-5.8,0-10.5-2-14.2-5.9
		c-3.7-3.9-5.6-9.3-5.6-16.1c0-7.2,1.9-12.8,5.6-16.8c3.7-4,8.6-6,14.7-6c5.3,0,9.6,1.6,12.9,4.7c2,1.9,3.4,4.5,4.4,8l-8.7,2.1
		c-0.5-2.2-1.6-4-3.2-5.3c-1.6-1.3-3.6-2-5.9-2c-3.2,0-5.8,1.2-7.8,3.5c-2,2.3-3,6-3,11.2c0,5.5,1,9.4,3,11.7c2,2.3,4.5,3.5,7.7,3.5
		c2.3,0,4.3-0.7,6-2.2C588.4,419.6,589.6,417.3,590.4,414.1z"/>
	<path d="M605.7,430v-43.3h32.1v7.3h-23.4v9.6h21.8v7.3h-21.8v11.8h24.2v7.3H605.7z"/>
	<path d="M319.5,502.7v-43.3h13.1l7.9,29.6l7.8-29.6h13.1v43.3h-8.1v-34.1l-8.6,34.1h-8.4l-8.6-34.1v34.1H319.5z"/>
	<path d="M367.7,481.3c0-4.4,0.7-8.1,2-11.1c1-2.2,2.3-4.2,4-5.9c1.7-1.8,3.6-3.1,5.6-3.9c2.7-1.1,5.8-1.7,9.3-1.7
		c6.4,0,11.5,2,15.3,5.9c3.8,4,5.8,9.5,5.8,16.5c0,7-1.9,12.5-5.7,16.4s-8.9,5.9-15.3,5.9c-6.4,0-11.6-2-15.4-5.9
		C369.6,493.6,367.7,488.2,367.7,481.3z M376.7,481c0,4.9,1.1,8.6,3.4,11.2c2.3,2.5,5.1,3.8,8.6,3.8c3.5,0,6.4-1.3,8.6-3.8
		c2.2-2.5,3.4-6.3,3.4-11.3c0-5-1.1-8.7-3.3-11.1c-2.2-2.4-5.1-3.7-8.7-3.7c-3.6,0-6.5,1.2-8.7,3.7C377.8,472.3,376.7,476,376.7,481
		z"/>
	<path d="M415.9,459.4h16c3.6,0,6.4,0.3,8.2,0.8c2.5,0.7,4.7,2.1,6.5,4c1.8,1.9,3.2,4.3,4.1,7c0.9,2.8,1.4,6.2,1.4,10.2
		c0,3.6-0.4,6.6-1.3,9.2c-1.1,3.2-2.6,5.7-4.6,7.7c-1.5,1.5-3.6,2.6-6.1,3.5c-1.9,0.6-4.5,0.9-7.7,0.9h-16.5V459.4z M424.7,466.7
		v28.7h6.5c2.4,0,4.2-0.1,5.3-0.4c1.4-0.4,2.6-1,3.5-1.8c0.9-0.8,1.7-2.2,2.3-4.2c0.6-1.9,0.9-4.6,0.9-7.9c0-3.4-0.3-5.9-0.9-7.7
		c-0.6-1.8-1.4-3.2-2.5-4.2c-1.1-1-2.4-1.7-4.1-2c-1.2-0.3-3.6-0.4-7.2-0.4H424.7z"/>
	<path d="M459,459.4h8.8v23.5c0,3.7,0.1,6.1,0.3,7.2c0.4,1.8,1.3,3.2,2.7,4.3c1.4,1.1,3.3,1.6,5.8,1.6c2.5,0,4.4-0.5,5.6-1.5
		c1.3-1,2-2.3,2.3-3.7c0.3-1.5,0.4-3.9,0.4-7.4v-24h8.8v22.8c0,5.2-0.2,8.9-0.7,11c-0.5,2.1-1.3,4-2.6,5.4c-1.3,1.5-3,2.7-5.1,3.5
		c-2.1,0.9-4.9,1.3-8.3,1.3c-4.1,0-7.3-0.5-9.4-1.4c-2.1-1-3.8-2.2-5.1-3.7c-1.2-1.5-2.1-3.1-2.5-4.8c-0.6-2.5-0.9-6.1-0.9-11V459.4
		z"/>
	<path d="M502.4,502.7v-43h8.8v35.7h21.8v7.3H502.4z"/>
	<path d="M538.6,502.7v-43.3h32.1v7.3h-23.4v9.6h21.8v7.3h-21.8v11.8h24.2v7.3H538.6z"/>
</g>
<g>
	<path d="M824.4,1279.7H90.3c-9,0-16.4-7.3-16.4-16.3v-79.2h766.9v79.2C840.8,1272.4,833.4,1279.7,824.4,1279.7z M91.1,1262.6h732.5
		v-61.2H91.1V1262.6z"/>
</g>
<g>
	<rect x="826.8" y="12.9" width="8.6" height="1179.9"/>
</g>
<g>
	<path d="M227.2,1417.3h-45.4v-150.5h45.4V1417.3z M190.4,1408.7h28.2v-133.3h-28.2V1408.7z"/>
</g>
<g>
	<path d="M579.8,1417.3h-45.4v-150.5h45.4V1417.3z M543,1408.7h28.2v-133.3H543V1408.7z"/>
</g>
<g>
	<path d="M725.2,1417.3h-45.4v-150.5h45.4V1417.3z M688.4,1408.7h28.2v-133.3h-28.2V1408.7z"/>
</g>
<g>
	<path d="M284.6,1095.2v-30.6h6.2v30.6H284.6z"/>
</g>
</svg>
