<?xml version="1.0" encoding="utf-8"?>
<!-- Generator: Adobe Illustrator 21.0.0, SVG Export Plug-In . SVG Version: 6.00 Build 0)  -->
<svg version="1.1" id="Layer_1" xmlns="http://www.w3.org/2000/svg" xmlns:xlink="http://www.w3.org/1999/xlink" x="0px" y="0px"
	 viewBox="0 0 935.5 1417.3" style="enable-background:new 0 0 935.5 1417.3;" xml:space="preserve">
<g>
	<path d="M0,0v50.7v17.9v310.3v800.5v238h935.5v-238V378.9V68.6V50.7V0H0z M17.9,396.8h899.7v764.6H17.9V396.8z M917.6,1399.4H792.4
		v-41.9h-44.7v41.9h-22.2v-41.9h-44.7v41.9h-22.2v-41.9H614v41.9h-22.2v-41.9h-44.7v41.9H17.9v-220.1h899.7V1399.4z M917.6,378.9
		H17.9V68.6h529.2v36.8h44.7V68.6H614v36.8h44.7V68.6h22.2v36.8h44.7V68.6h22.2v36.8h44.7V68.6h125.2V378.9z M792,50.7l-2.3-21.6
		h-39.7l-0.9,21.6h-24.5l-2.3-21.6h-39.7l-0.9,21.6h-24.5l-2.3-21.6h-39.7l-0.9,21.6h-24.5l-2.3-21.6h-39.7l-0.9,21.6H17.9V17.9
		h899.7v32.7H792z"/>
	<path d="M248.6,689c48.8,0,88.3-39.5,88.3-88.3c0-48.7-39.5-88.3-88.3-88.3c-48.7,0-88.3,39.5-88.3,88.3
		C160.4,649.5,199.9,689,248.6,689z M242.9,524.8h11.5v110.1h-11.5V524.8z M234.8,536.4V643h27.6V536.4
		c29.8,6.4,52.1,32.7,52.1,64.3c0,36.4-29.5,65.9-65.9,65.9s-65.9-29.5-65.9-65.9C182.7,569,205.1,542.7,234.8,536.4z"/>
	<path d="M249.9,496.3h5.5v-28.9h-4.5c-0.6,1.8-1.8,3.3-3.5,4.6c-1.7,1.3-3.3,2.2-4.7,2.7v5c2.7-0.9,5.1-2.3,7.1-4.2V496.3z"/>
	<path d="M147.9,534.8h5.5v-28.9h-4.5c-0.6,1.8-1.8,3.3-3.5,4.6c-1.7,1.3-3.3,2.2-4.7,2.7v5c2.7-0.9,5.1-2.3,7.1-4.2V534.8z"/>
	<path d="M171.3,530.9c-1,0-1.9-0.4-2.7-1.1c-0.8-0.7-1.2-1.7-1.4-3l-5.5,0.6c0.3,2.4,1.3,4.3,3,5.8c1.7,1.4,3.8,2.1,6.5,2.1
		c3.3,0,5.9-1.3,7.8-3.8c1.4-1.9,2.1-4,2.1-6.3c0-2.8-0.9-5.2-2.6-6.9c-1.7-1.8-3.8-2.7-6.2-2.7c-1.3,0-2.5,0.3-3.8,0.9l0.9-4.9
		h10.4v-5.2h-14.6l-2.8,15l4.5,0.6c1.3-1.4,2.7-2.1,4.3-2.1c1.3,0,2.3,0.4,3.1,1.3c0.8,0.9,1.2,2.2,1.2,4c0,1.9-0.4,3.3-1.2,4.2
		C173.4,530.4,172.5,530.9,171.3,530.9z"/>
	<path d="M336.3,530.7c-1.1,0-2-0.4-2.7-1.1c-0.7-0.7-1.2-1.8-1.4-3.1l-5.3,0.6c0.3,2.4,1.3,4.4,3,5.9c1.7,1.5,3.9,2.2,6.5,2.2
		c2.8,0,5-0.9,6.9-2.7c1.8-1.8,2.8-3.9,2.8-6.5c0-1.7-0.5-3.2-1.5-4.5c-1-1.2-2.3-2-4-2.4c2.8-1.5,4.1-3.5,4.1-6
		c0-1.8-0.7-3.4-2-4.8c-1.6-1.7-3.8-2.6-6.5-2.6c-1.6,0-3,0.3-4.3,0.9c-1.3,0.6-2.3,1.4-3,2.5c-0.7,1-1.2,2.4-1.6,4.2l5.1,0.9
		c0.1-1.3,0.5-2.2,1.2-2.9c0.7-0.7,1.5-1,2.4-1c1,0,1.7,0.3,2.3,0.9c0.6,0.6,0.9,1.3,0.9,2.3c0,1.1-0.4,2.1-1.2,2.7
		c-0.8,0.7-1.9,1-3.4,1l-0.6,4.5c1-0.3,1.8-0.4,2.5-0.4c1.1,0,2,0.4,2.7,1.2c0.7,0.8,1.1,1.9,1.1,3.3c0,1.5-0.4,2.6-1.2,3.5
		C338.4,530.3,337.4,530.7,336.3,530.7z"/>
	<path d="M111,618.1h5.5v-28.9h-4.5c-0.6,1.8-1.8,3.3-3.5,4.6c-1.7,1.3-3.3,2.2-4.7,2.7v5c2.7-0.9,5.1-2.3,7.1-4.2V618.1z"/>
	<path d="M142.2,605c-1-1.2-2.3-2-4-2.4c2.8-1.5,4.1-3.5,4.1-6c0-1.8-0.7-3.4-2-4.8c-1.6-1.7-3.8-2.6-6.5-2.6c-1.6,0-3,0.3-4.3,0.9
		c-1.3,0.6-2.3,1.4-3,2.5c-0.7,1-1.2,2.4-1.6,4.2l5.1,0.9c0.1-1.3,0.5-2.2,1.2-2.9c0.7-0.7,1.5-1,2.4-1c1,0,1.7,0.3,2.3,0.9
		c0.6,0.6,0.9,1.3,0.9,2.3c0,1.1-0.4,2.1-1.2,2.7c-0.8,0.7-1.9,1-3.4,1l-0.6,4.5c1-0.3,1.8-0.4,2.5-0.4c1.1,0,2,0.4,2.7,1.2
		c0.7,0.8,1.1,1.9,1.1,3.3c0,1.5-0.4,2.6-1.2,3.5c-0.8,0.9-1.7,1.3-2.9,1.3c-1.1,0-2-0.4-2.7-1.1c-0.7-0.7-1.2-1.8-1.4-3.1l-5.3,0.6
		c0.3,2.4,1.3,4.4,3,5.9c1.7,1.5,3.9,2.2,6.5,2.2c2.8,0,5-0.9,6.9-2.7c1.8-1.8,2.8-3.9,2.8-6.5C143.7,607.7,143.2,606.2,142.2,605z"
		/>
	<path d="M373.9,614.1c-1,0-1.9-0.4-2.7-1.1c-0.8-0.7-1.2-1.7-1.4-3l-5.5,0.6c0.3,2.4,1.3,4.3,3,5.8c1.7,1.4,3.8,2.1,6.5,2.1
		c3.3,0,5.9-1.3,7.8-3.8c1.4-1.9,2.1-4,2.1-6.3c0-2.8-0.9-5.2-2.6-6.9c-1.7-1.8-3.8-2.7-6.2-2.7c-1.3,0-2.5,0.3-3.8,0.9l0.9-4.9
		h10.4v-5.2h-14.6l-2.8,15l4.5,0.6c1.3-1.4,2.7-2.1,4.3-2.1c1.3,0,2.3,0.4,3.1,1.3c0.8,0.9,1.2,2.2,1.2,4c0,1.9-0.4,3.3-1.2,4.2
		C376,613.7,375.1,614.1,373.9,614.1z"/>
	<path d="M149,708.3h5.5v-28.9H150c-0.6,1.8-1.8,3.3-3.5,4.6c-1.7,1.3-3.3,2.2-4.7,2.7v5c2.7-0.9,5.1-2.3,7.1-4.2V708.3z"/>
	<path d="M174.7,679.4h-4.5c-0.6,1.8-1.8,3.3-3.5,4.6c-1.7,1.3-3.3,2.2-4.7,2.7v5c2.7-0.9,5.1-2.3,7.1-4.2v20.8h5.5V679.4z"/>
	<path d="M330.9,708.3h5.3c0-2.5,0.4-5.4,1.2-8.7c0.8-3.2,2.1-6.3,3.7-9.1c1.6-2.9,3.2-5.1,4.8-6.6v-4H327v5.1h12.6
		c-2.6,3.3-4.7,7-6.2,11.1C331.8,700.3,331,704.3,330.9,708.3z"/>
	<circle cx="205.6" cy="500.9" r="5"/>
	<ellipse transform="matrix(0.7071 -0.7071 0.7071 0.7071 -352.8391 268.4895)" cx="147.7" cy="560.2" rx="5" ry="5"/>
	<circle cx="148.6" cy="643.1" r="5"/>
	<ellipse transform="matrix(0.7071 -0.7071 0.7071 0.7071 -434.8035 352.3779)" cx="207.9" cy="701" rx="5" ry="5"/>
	<circle cx="290.8" cy="700.1" r="5"/>
	<ellipse transform="matrix(0.7071 -0.7071 0.7071 0.7071 -350.9318 434.2958)" cx="348.8" cy="640.8" rx="5" ry="5"/>
	<circle cx="347.8" cy="557.9" r="5"/>
	<ellipse transform="matrix(0.7071 -0.7071 0.7071 0.7071 -268.9858 350.4433)" cx="288.5" cy="499.9" rx="5" ry="5"/>
	<path d="M247.8,740c-0.9,0-1.6-0.3-2.2-0.8c-0.5-0.5-0.9-1.3-1-2.4l-5.3,0.6c0.4,2.4,1.3,4.2,2.7,5.4c1.4,1.2,3.2,1.8,5.5,1.8
		c3.1,0,5.7-1.2,7.6-3.5c2-2.3,2.9-6.1,2.9-11.4c0-5.2-0.9-8.9-2.8-11.1c-1.9-2.3-4.3-3.4-7.2-3.4c-2.7,0-4.9,0.9-6.6,2.7
		c-1.7,1.8-2.6,4.1-2.6,7.1c0,2.8,0.8,5.1,2.5,6.8c1.6,1.7,3.6,2.6,5.9,2.6c2.1,0,3.8-0.8,5.2-2.4c-0.2,3.3-0.7,5.5-1.5,6.5
		C249.9,739.5,249,740,247.8,740z M250.7,729c-0.7,0.8-1.6,1.3-2.7,1.3c-1.1,0-2-0.4-2.8-1.3c-0.7-0.9-1.1-2.2-1.1-4.1
		c0-1.8,0.3-3.2,1-4c0.7-0.8,1.5-1.2,2.5-1.2c1.1,0,2,0.5,2.8,1.5c0.8,1,1.2,2.4,1.2,4.1C251.8,727,251.4,728.2,250.7,729z"/>
	<path d="M243.6,848.2l2.4-6.5h11.5l2.5,6.5h6.3l-11.5-28.8h-6.1l-11.2,28.8H243.6z M251.6,826.2l4,10.7h-7.8L251.6,826.2z"/>
	<path d="M154.3,858.6c-1.3,0.6-2.6,1.4-3.7,2.6s-2,2.5-2.7,3.9c-0.9,2-1.3,4.4-1.3,7.4c0,4.6,1.3,8.2,3.8,10.8
		c2.5,2.6,5.9,3.9,10.2,3.9c4.2,0,7.6-1.3,10.1-3.9c2.5-2.6,3.8-6.3,3.8-10.9c0-4.7-1.3-8.3-3.8-11c-2.5-2.6-5.9-3.9-10.2-3.9
		C158.2,857.5,156.1,857.9,154.3,858.6z M166.4,864.9c1.4,1.6,2.2,4.1,2.2,7.4c0,3.3-0.7,5.8-2.2,7.5c-1.5,1.7-3.4,2.5-5.7,2.5
		c-2.3,0-4.2-0.8-5.7-2.5c-1.5-1.7-2.3-4.1-2.3-7.4c0-3.3,0.7-5.8,2.2-7.4c1.5-1.6,3.4-2.5,5.8-2.5
		C163,862.5,164.9,863.3,166.4,864.9z"/>
	<path d="M328,883.3c2.5,2.6,5.6,3.9,9.4,3.9c3.1,0,5.6-0.8,7.6-2.3c2-1.5,3.4-3.9,4.3-7l-5.6-1.8c-0.5,2.1-1.3,3.6-2.4,4.6
		c-1.1,1-2.4,1.5-4,1.5c-2.1,0-3.8-0.8-5.1-2.3c-1.3-1.5-2-4.1-2-7.8c0-3.4,0.7-5.9,2-7.4c1.3-1.5,3.1-2.3,5.2-2.3
		c1.5,0,2.9,0.4,3.9,1.3c1.1,0.9,1.8,2,2.1,3.5l5.7-1.4c-0.7-2.3-1.6-4.1-2.9-5.3c-2.2-2.1-5.1-3.1-8.6-3.1c-4,0-7.3,1.3-9.8,4
		c-2.5,2.6-3.7,6.4-3.7,11.2C324.3,877.2,325.5,880.7,328,883.3z"/>
	<polygon points="123.7,960.8 118.5,941.2 109.8,941.2 109.8,969.9 115.2,969.9 115.2,947.3 120.9,969.9 126.5,969.9 132.2,947.3 
		132.2,969.9 137.6,969.9 137.6,941.2 128.8,941.2 	"/>
	<polygon points="369.4,957.2 383.8,957.2 383.8,952.4 369.4,952.4 369.4,946 384.9,946 384.9,941.2 363.6,941.2 363.6,969.9 
		385.5,969.9 385.5,965.1 369.4,965.1 	"/>
	<polygon points="174.3,1031.3 166.5,1031.3 154.8,1044.1 154.8,1031.3 149,1031.3 149,1060.1 154.8,1060.1 154.8,1051.4 
		159.5,1046.6 167.4,1060.1 174.9,1060.1 163.5,1042.5 	"/>
	<path d="M337.6,1049.5h6.7v3.6c-0.9,0.7-1.9,1.3-3.1,1.7c-1.2,0.5-2.4,0.7-3.7,0.7c-2.5,0-4.4-0.9-6-2.6c-1.5-1.7-2.3-4.3-2.3-7.7
		c0-3.2,0.7-5.6,2.2-7.2c1.5-1.6,3.5-2.4,6.1-2.4c1.7,0,3.1,0.4,4.2,1.2c1.1,0.8,1.9,1.9,2.3,3.3l5.8-1.1c-0.6-2.6-1.9-4.7-3.9-6.2
		c-2-1.5-4.8-2.2-8.4-2.2c-2.7,0-5,0.5-6.9,1.4c-2.4,1.2-4.3,3-5.5,5.4c-1.3,2.3-1.9,5-1.9,8c0,2.8,0.6,5.3,1.7,7.7
		c1.1,2.3,2.8,4.2,5,5.4c2.2,1.3,4.9,1.9,7.9,1.9c2.4,0,4.7-0.4,7-1.3c2.3-0.9,4.1-1.9,5.3-3.1v-11.5h-12.5V1049.5z"/>
	<circle cx="206.1" cy="852.9" r="5"/>
	<ellipse transform="matrix(0.7071 -0.7071 0.7071 0.7071 -601.5186 371.965)" cx="148.2" cy="912.1" rx="5" ry="5"/>
	<circle cx="149.2" cy="994.9" r="5"/>
	<ellipse transform="matrix(0.7071 -0.7071 0.7071 0.7071 -683.3942 455.7549)" cx="208.4" cy="1052.8" rx="5" ry="5"/>
	<circle cx="291.2" cy="1051.8" r="5"/>
	<ellipse transform="matrix(0.7071 -0.7071 0.7071 0.7071 -599.6147 537.5983)" cx="349.1" cy="992.6" rx="5" ry="5"/>
	<circle cx="348.2" cy="909.8" r="5"/>
	<ellipse transform="matrix(0.7071 -0.7071 0.7071 0.7071 -517.7517 453.8251)" cx="288.9" cy="851.9" rx="5" ry="5"/>
	<rect x="245.9" y="1066.8" width="5.8" height="28.8"/>
	<path d="M248.7,864.2c-48.7,0-88.2,39.5-88.2,88.2c0,48.7,39.5,88.2,88.2,88.2c48.7,0,88.2-39.5,88.2-88.2
		C336.9,903.6,297.4,864.2,248.7,864.2z M243,876.5h11.5v110H243V876.5z M248.7,1018.2c-36.4,0-65.9-29.5-65.9-65.9
		c0-31.6,22.3-58,52.1-64.3v106.6h27.6V888c29.7,6.3,52.1,32.7,52.1,64.3C314.5,988.7,285.1,1018.2,248.7,1018.2z"/>
	<circle cx="701.9" cy="952.3" r="128.8"/>
	<path d="M175.4,1362.4c30,0,54.4-24.4,54.4-54.4c0-30-24.4-54.4-54.4-54.4s-54.4,24.4-54.4,54.4
		C121,1338,145.4,1362.4,175.4,1362.4z M175.4,1262.6c25,0,45.4,20.4,45.4,45.4s-20.4,45.4-45.4,45.4c-25,0-45.4-20.4-45.4-45.4
		S150.4,1262.6,175.4,1262.6z"/>
	<path d="M327.9,1362.4c30,0,54.4-24.4,54.4-54.4c0-30-24.4-54.4-54.4-54.4c-30,0-54.4,24.4-54.4,54.4
		C273.5,1338,297.9,1362.4,327.9,1362.4z M327.9,1262.6c25,0,45.4,20.4,45.4,45.4s-20.4,45.4-45.4,45.4c-25,0-45.4-20.4-45.4-45.4
		S302.9,1262.6,327.9,1262.6z"/>
	<polygon points="175.9,1229.9 155.3,1229.9 155.3,1196.2 147.1,1196.2 147.1,1236.7 175.9,1236.7 	"/>
	<polygon points="319.2,1210.1 335.7,1236.7 344,1236.7 344,1195.9 336.3,1195.9 336.3,1223.2 319.6,1195.9 311.5,1195.9 
		311.5,1236.7 319.2,1236.7 	"/>
	<polygon points="189.3,1208.6 189.3,1236.1 194.4,1236.1 194.4,1208.6 201.8,1219.8 205.9,1217.1 191.8,1196.1 177.8,1217.1 
		181.9,1219.8 	"/>
	<path d="M175.4,195.8c-30,0-54.4,24.4-54.4,54.4s24.4,54.4,54.4,54.4s54.4-24.4,54.4-54.4S205.4,195.8,175.4,195.8z M175.4,295.6
		c-25,0-45.4-20.4-45.4-45.4c0-25,20.4-45.4,45.4-45.4c25,0,45.4,20.4,45.4,45.4C220.8,275.2,200.5,295.6,175.4,295.6z"/>
	<path d="M327.9,195.8c-30,0-54.4,24.4-54.4,54.4s24.4,54.4,54.4,54.4c30,0,54.4-24.4,54.4-54.4S357.9,195.8,327.9,195.8z
		 M327.9,295.6c-25,0-45.4-20.4-45.4-45.4c0-25,20.4-45.4,45.4-45.4c25,0,45.4,20.4,45.4,45.4C373.3,275.2,353,295.6,327.9,295.6z"
		/>
	<polygon points="175.9,172 155.3,172 155.3,138.3 147.1,138.3 147.1,178.9 175.9,178.9 	"/>
	<path d="M324.9,161.2c-4.4,4.1-7.3,7.3-8.8,9.8c-1.5,2.5-2.4,5.1-2.7,7.8h27.5v-7.3h-15.6c0.4-0.7,0.9-1.4,1.6-2.2
		c0.7-0.7,2.2-2.2,4.7-4.5c2.5-2.3,4.2-4,5.1-5.2c1.4-1.8,2.5-3.6,3.1-5.2c0.7-1.7,1-3.4,1-5.3c0-3.2-1.2-5.9-3.5-8.1
		c-2.3-2.2-5.5-3.3-9.5-3.3c-3.7,0-6.7,0.9-9.2,2.8c-2.5,1.9-3.9,5-4.4,9.3l7.8,0.8c0.1-2.3,0.7-3.9,1.7-4.9c1-1,2.3-1.5,3.9-1.5
		c1.7,0,3,0.5,3.9,1.4c0.9,0.9,1.4,2.3,1.4,4c0,1.6-0.5,3.2-1.6,4.8C330.6,155.7,328.5,157.9,324.9,161.2z"/>
	<polygon points="189.3,150.7 189.3,178.2 194.4,178.2 194.4,150.7 201.8,161.9 205.9,159.2 191.8,138.3 177.8,159.2 181.9,161.9 	
		"/>
	<path d="M617.2,554.3c2.7-0.8,4.8-1.8,6.4-3.2c2.1-1.8,3.7-4.2,4.8-7.1c0.9-2.4,1.4-5.2,1.4-8.6c0-3.8-0.5-6.9-1.5-9.5
		c-1-2.6-2.4-4.7-4.3-6.5c-1.9-1.8-4.2-3-6.8-3.7c-2-0.5-4.8-0.8-8.6-0.8h-16.7v40.2h17.2C612.5,555.1,615.2,554.9,617.2,554.3z
		 M601,548.4v-26.6h4.1c3.7,0,6.2,0.1,7.5,0.4c1.7,0.3,3.1,1,4.2,1.9c1.1,0.9,2,2.2,2.6,3.9c0.6,1.7,0.9,4,0.9,7.2
		c0,3.1-0.3,5.6-0.9,7.4c-0.6,1.8-1.4,3.1-2.4,3.9c-1,0.8-2.2,1.3-3.7,1.7c-1.1,0.3-3,0.4-5.5,0.4H601z"/>
	<rect x="636.9" y="526" width="8.7" height="29.1"/>
	<rect x="636.9" y="515" width="8.7" height="7.1"/>
	<path d="M661.8,541c0-2.8,0.2-4.8,0.7-6c0.5-1.2,1.2-2.1,2.3-2.8c1.1-0.6,2.3-1,3.6-1c1.1,0,2,0.2,2.6,0.6c0.6,0.4,1.1,1,1.4,1.8
		c0.3,0.8,0.5,2.7,0.5,5.5v16h8.7v-14c0-2.7,0.2-4.7,0.7-6c0.5-1.3,1.2-2.2,2.3-2.9c1.1-0.7,2.2-1,3.4-1c1.7,0,2.9,0.5,3.7,1.6
		c0.6,0.8,0.9,2.7,0.9,5.6v16.6h8.7v-18.6c0-2.8-0.3-4.8-0.9-6c-0.8-1.7-2.1-3-3.7-3.8c-1.7-0.9-3.7-1.3-6.1-1.3
		c-1.9,0-3.7,0.4-5.3,1.2c-1.7,0.8-3.2,1.9-4.7,3.5c-1-1.6-2.3-2.7-3.8-3.5c-1.5-0.8-3.4-1.2-5.5-1.2c-3.9,0-7.4,1.5-10.2,4.6v-4h-8
		v29.1h8.7V541z"/>
	<path d="M717.4,541c0-2.8,0.2-4.8,0.7-6c0.5-1.2,1.2-2.1,2.3-2.8c1.1-0.6,2.3-1,3.6-1c1.1,0,2,0.2,2.6,0.6c0.6,0.4,1.1,1,1.4,1.8
		c0.3,0.8,0.5,2.7,0.5,5.5v16h8.7v-14c0-2.7,0.2-4.7,0.7-6c0.5-1.3,1.2-2.2,2.3-2.9c1.1-0.7,2.2-1,3.4-1c1.7,0,2.9,0.5,3.7,1.6
		c0.6,0.8,0.9,2.7,0.9,5.6v16.6h8.7v-18.6c0-2.8-0.3-4.8-0.9-6c-0.8-1.7-2.1-3-3.7-3.8c-1.7-0.9-3.7-1.3-6.1-1.3
		c-1.9,0-3.7,0.4-5.3,1.2c-1.7,0.8-3.2,1.9-4.7,3.5c-1-1.6-2.3-2.7-3.8-3.5c-1.5-0.8-3.4-1.2-5.5-1.2c-3.9,0-7.4,1.5-10.2,4.6v-4h-8
		v29.1h8.7V541z"/>
	<path d="M778.3,555.8c3.6,0,6.6-0.7,9-2.2c2.4-1.5,4.2-3.6,5.3-6.4l-8.6-1.3c-0.5,1.5-1.2,2.5-2.1,3.2c-0.9,0.7-2.1,1-3.4,1
		c-2,0-3.7-0.6-5-1.9c-1.3-1.3-2-3-2.1-5.3H793c0.1-5.9-1.2-10.3-4-13.1c-2.8-2.9-6.7-4.3-11.5-4.3c-4.3,0-7.9,1.4-10.8,4.1
		c-2.8,2.7-4.3,6.5-4.3,11.3c0,4,1.1,7.4,3.2,10C768.4,554.1,772.6,555.8,778.3,555.8z M773.3,533.1c1.2-1.2,2.8-1.8,4.7-1.8
		c1.8,0,3.3,0.6,4.5,1.7c1.2,1.2,1.9,2.9,1.9,5.1h-13C771.4,536,772,534.3,773.3,533.1z"/>
	<path d="M807.8,546.1c0-5,0.2-8.2,0.7-9.8c0.5-1.6,1.1-2.6,2-3.2c0.8-0.6,1.9-0.9,3.1-0.9c1.3,0,2.6,0.4,4.1,1.3l2.7-6.7
		c-1.8-1-3.7-1.5-5.7-1.5c-1.4,0-2.6,0.3-3.7,0.9c-1.1,0.6-2.3,1.9-3.7,3.9V526h-8.1v29.1h8.7V546.1z"/>
	<polygon points="642.6,622.5 642.6,582.3 628.9,582.3 620.8,609.7 612.6,582.3 598.9,582.3 598.9,622.5 607.4,622.5 607.4,590.9 
		616.3,622.5 625.1,622.5 634.1,590.9 634.1,622.5 	"/>
	<path d="M657.3,621.3c2.7,1.2,5.6,1.8,8.6,1.8c4.9,0,8.9-1.4,12.1-4.3c3.2-2.9,4.8-6.5,4.8-10.9c0-4.4-1.6-8-4.8-10.8
		c-3.2-2.9-7.2-4.3-12.2-4.3c-3.2,0-6.1,0.6-8.7,1.9c-2.6,1.3-4.6,3.1-6,5.5c-1.4,2.4-2.1,4.9-2.1,7.4c0,3.3,0.7,6.2,2.1,8.5
		C652.5,618.4,654.6,620.1,657.3,621.3z M660.2,601.3c1.5-1.5,3.4-2.3,5.7-2.3c2.3,0,4.2,0.8,5.7,2.3c1.5,1.5,2.3,3.7,2.3,6.6
		c0,2.9-0.8,5.2-2.3,6.7c-1.5,1.5-3.4,2.3-5.7,2.3c-2.3,0-4.2-0.8-5.7-2.3c-1.5-1.5-2.3-3.7-2.3-6.6
		C657.9,605.1,658.6,602.8,660.2,601.3z"/>
	<path d="M719,622.5v-40.2h-8.7v14.5c-2.7-2.7-5.8-4.1-9.5-4.1c-4,0-7.3,1.3-9.9,3.9c-2.6,2.6-3.9,6.3-3.9,11.3
		c0,4.8,1.3,8.6,4,11.3c2.7,2.7,5.9,4,9.7,4c1.9,0,3.7-0.4,5.5-1.2c1.8-0.8,3.4-2.1,4.7-3.7v4.3H719z M708.3,614.8
		c-1.4,1.5-3.1,2.3-5.1,2.3c-2.5,0-4.5-1-5.9-3c-1-1.4-1.5-3.6-1.5-6.7c0-2.9,0.7-5.1,2.1-6.5c1.4-1.5,3.1-2.2,5.2-2.2
		c2.1,0,3.9,0.7,5.2,2.2c1.4,1.5,2,3.9,2,7.2C710.4,611,709.7,613.3,708.3,614.8z"/>
	<path d="M756.5,622.5v-29.1h-8.7v12.3c0,4.2-0.2,6.8-0.6,7.9c-0.4,1.1-1.2,2-2.4,2.7c-1.2,0.7-2.5,1.1-4,1.1
		c-1.3,0-2.4-0.3-3.2-0.8c-0.8-0.5-1.4-1.3-1.7-2.2c-0.3-0.9-0.5-3.4-0.5-7.5v-13.4h-8.7v18.4c0,2.7,0.4,4.9,1.2,6.4
		c0.8,1.6,2,2.8,3.8,3.6c1.7,0.9,3.7,1.3,5.9,1.3c2.2,0,4.2-0.4,6.2-1.3c1.9-0.9,3.5-2.1,4.7-3.7v4.4H756.5z"/>
	<rect x="764.9" y="582.3" width="8.7" height="40.2"/>
	<path d="M779.3,608.2c0,4,1.1,7.4,3.2,10c2.7,3.3,7,5,12.7,5c3.6,0,6.6-0.7,9-2.2c2.4-1.5,4.2-3.6,5.3-6.4l-8.6-1.3
		c-0.5,1.5-1.2,2.5-2.1,3.2c-0.9,0.7-2.1,1-3.4,1c-2,0-3.7-0.6-5-1.9c-1.3-1.3-2-3-2.1-5.3h21.7c0.1-5.9-1.2-10.3-4-13.1
		c-2.8-2.9-6.7-4.3-11.5-4.3c-4.3,0-7.9,1.4-10.8,4.1C780.7,599.6,779.3,603.3,779.3,608.2z M790.2,600.5c1.2-1.2,2.8-1.8,4.7-1.8
		c1.8,0,3.3,0.6,4.5,1.7c1.2,1.2,1.9,2.9,1.9,5.1h-13C788.3,603.3,788.9,601.7,790.2,600.5z"/>
	<path d="M175.4,1345.2c20.5,0,37.1-16.6,37.1-37.1s-16.6-37.1-37.1-37.1s-37.1,16.6-37.1,37.1S154.9,1345.2,175.4,1345.2z
		 M175.4,1279.4c15.8,0,28.7,12.9,28.7,28.7c0,15.8-12.9,28.7-28.7,28.7c-15.8,0-28.7-12.9-28.7-28.7
		C146.7,1292.2,159.6,1279.4,175.4,1279.4z"/>
	<path d="M161.4,1313.7h8.4v8.4c0,3.1,2.5,5.6,5.6,5.6s5.6-2.5,5.6-5.6v-8.4h8.4c3.1,0,5.6-2.5,5.6-5.6c0-3.1-2.5-5.6-5.6-5.6H181
		v-8.4c0-3.1-2.5-5.6-5.6-5.6s-5.6,2.5-5.6,5.6v8.4h-8.4c-3.1,0-5.6,2.5-5.6,5.6C155.8,1311.2,158.3,1313.7,161.4,1313.7z"/>
	<path d="M327.9,1345.2c20.5,0,37.1-16.6,37.1-37.1s-16.6-37.1-37.1-37.1c-20.5,0-37.1,16.6-37.1,37.1S307.5,1345.2,327.9,1345.2z
		 M327.9,1279.4c15.8,0,28.7,12.9,28.7,28.7c0,15.8-12.9,28.7-28.7,28.7c-15.8,0-28.7-12.9-28.7-28.7
		C299.2,1292.2,312.1,1279.4,327.9,1279.4z"/>
	<path d="M313.9,1313.7h8.4v8.4c0,3.1,2.5,5.6,5.6,5.6c3.1,0,5.6-2.5,5.6-5.6v-8.4h8.4c3.1,0,5.6-2.5,5.6-5.6c0-3.1-2.5-5.6-5.6-5.6
		h-8.4v-8.4c0-3.1-2.5-5.6-5.6-5.6c-3.1,0-5.6,2.5-5.6,5.6v8.4h-8.4c-3.1,0-5.6,2.5-5.6,5.6C308.3,1311.2,310.8,1313.7,313.9,1313.7
		z"/>
	<path d="M175.4,213.1c-20.5,0-37.1,16.6-37.1,37.1s16.6,37.1,37.1,37.1s37.1-16.6,37.1-37.1S195.9,213.1,175.4,213.1z M175.4,278.8
		c-15.8,0-28.7-12.9-28.7-28.7s12.9-28.7,28.7-28.7c15.8,0,28.7,12.9,28.7,28.7S191.2,278.8,175.4,278.8z"/>
	<path d="M189.4,244.6H181v-8.4c0-3.1-2.5-5.6-5.6-5.6s-5.6,2.5-5.6,5.6v8.4h-8.4c-3.1,0-5.6,2.5-5.6,5.6c0,3.1,2.5,5.6,5.6,5.6h8.4
		v8.4c0,3.1,2.5,5.6,5.6,5.6s5.6-2.5,5.6-5.6v-8.4h8.4c3.1,0,5.6-2.5,5.6-5.6C195,247.1,192.5,244.6,189.4,244.6z"/>
	<path d="M327.9,213.1c-20.5,0-37.1,16.6-37.1,37.1s16.6,37.1,37.1,37.1c20.5,0,37.1-16.6,37.1-37.1S348.4,213.1,327.9,213.1z
		 M327.9,278.8c-15.8,0-28.7-12.9-28.7-28.7s12.9-28.7,28.7-28.7c15.8,0,28.7,12.9,28.7,28.7S343.7,278.8,327.9,278.8z"/>
	<path d="M341.9,244.6h-8.4v-8.4c0-3.1-2.5-5.6-5.6-5.6c-3.1,0-5.6,2.5-5.6,5.6v8.4h-8.4c-3.1,0-5.6,2.5-5.6,5.6
		c0,3.1,2.5,5.6,5.6,5.6h8.4v8.4c0,3.1,2.5,5.6,5.6,5.6c3.1,0,5.6-2.5,5.6-5.6v-8.4h8.4c3.1,0,5.6-2.5,5.6-5.6
		C347.5,247.1,345,244.6,341.9,244.6z"/>
</g>
</svg>
