<?xml version="1.0" encoding="utf-8"?>
<!-- Generator: Adobe Illustrator 21.0.0, SVG Export Plug-In . SVG Version: 6.00 Build 0)  -->
<svg version="1.1" id="Layer_1" xmlns="http://www.w3.org/2000/svg" xmlns:xlink="http://www.w3.org/1999/xlink" x="0px" y="0px"
	 viewBox="0 0 1314.4 1417.3" style="enable-background:new 0 0 1314.4 1417.3;" xml:space="preserve">
<g>
	<path d="M947.1,222.5l-3.9-0.4c-47.3-5.1-145.8-13.6-274.5-13.6s-227.2,8.5-274.5,13.6l-3.9,0.4v414.3h556.7V222.5z M938.4,628
		H399.1V230.3c48.5-5.1,144.8-13.2,269.7-13.2s221.2,8.1,269.7,13.2V628z"/>
	<path d="M762.7,824h-52.2c-4.6-18.8-21.5-32.8-41.7-32.8c-20.2,0-37.2,14-41.7,32.8h-51.5c-5.6,0-10.1,4.5-10.1,10.1
		s4.5,10.1,10.1,10.1H627c4.6,18.8,21.5,32.8,41.7,32.8c20.2,0,37.2-14,41.7-32.8h52.2c5.6,0,10.1-4.5,10.1-10.1
		S768.3,824,762.7,824z M625.8,835.6h-50.3c-0.8,0-1.4-0.6-1.4-1.4s0.6-1.4,1.4-1.4h50.3c0,0.5,0,1,0,1.4S625.8,835.1,625.8,835.6z
		 M668.7,868.4c-16.5,0-30.4-11.8-33.6-27.4l-0.3-1.7c-0.2-1.4-0.3-2.7-0.4-3.9c0-0.4,0-0.9,0-1.3s0-0.9,0-1.3
		c0.1-1.2,0.2-2.4,0.4-3.9l0.3-1.8c3.2-15.6,17-27.4,33.6-27.4c16.5,0,30.4,11.8,33.6,27.4l0.3,1.7c0.2,1.4,0.3,2.7,0.4,3.8
		c0,0.4,0,0.9,0,1.3c0,0.4,0,0.9,0,1.3c-0.1,1.2-0.2,2.4-0.4,3.9l-0.3,1.7C699.1,856.6,685.3,868.4,668.7,868.4z M762.7,835.6h-51
		c0-0.5,0-1,0-1.4s0-1,0-1.4h51c0.8,0,1.4,0.6,1.4,1.4S763.5,835.6,762.7,835.6z"/>
	<path d="M1254.7,72.1H869.8c-25.7-3.5-53.5-5.4-82.7-5.7c-3.1-17.5-15.5-33.5-35.8-45.7C729.1,7.3,699.8,0,668.8,0
		c-31,0-60.3,7.3-82.5,20.7c-20.3,12.2-32.7,28.2-35.8,45.7c-29.3,0.3-57.1,2.2-82.8,5.7h-408C26.8,72.1,0,98.8,0,131.8v1225.9
		c0,32.9,26.8,59.7,59.7,59.7h1195c32.9,0,59.7-26.8,59.7-59.7V131.8C1314.4,98.8,1287.6,72.1,1254.7,72.1z M380.2,677.7V201.6
		c53.2-11.1,155.9-27.9,288.5-27.9c132.6,0,235.4,16.9,288.5,27.9v476.1c-0.3,0.3-0.8,0.7-1.5,1.2c-3.2,2.3-11.4,6.8-30.5,11.6
		c-33.9,8.4-105.9,18.5-256.5,18.5C424.6,709,385.5,682.8,380.2,677.7z M362.8,647.7h-290V212.5h290V647.7z M974.7,212.5H1255v435.2
		H974.7L974.7,212.5z M668.8,156.3c-131.3,0-233.8,16.4-288.6,27.6c0-37,5-65.5,10.1-69.8c4.9-4.1,21.9-11,53.6-16.9
		c23.2-4.3,62-9.4,115.7-9.5c4.1,13.9,14.9,26.5,31.5,36.5c20.8,12.5,48.5,19.4,77.8,19.4s56.9-6.9,77.8-19.4
		c16.6-10,27.4-22.6,31.5-36.5c53.6,0.2,92.4,5.2,115.7,9.5c31.7,5.8,48.6,12.7,53.6,16.9c5.1,4.3,10.1,32.8,10.1,69.8
		C902.5,172.7,800.1,156.3,668.8,156.3z M770.4,82.4c-6.3,29.5-49.4,52.5-101.6,52.5c-52.2,0-95.4-22.9-101.6-52.5V75
		c0-31.2,46.5-57.6,101.6-57.6c55.1,0,101.6,26.4,101.6,57.6V82.4z M100.7,1399.9c0.5-170.7,25.7-349.2,40.8-456.3
		c1.5-10.5,2.9-20.2,4.1-29.1c13.2-95.3,62.9-123.7,138.8-138.6c84.6-16.6,182.1-22.5,372.8-22.5c190.6,0,288.2,5.9,372.8,22.5
		c75.9,14.9,125.6,43.3,138.8,138.6c1.2,8.9,2.6,18.6,4.1,29.1c15.1,107.1,40.4,285.6,40.8,456.3H100.7z M1297,1357.6
		c0,23.3-19,42.3-42.3,42.3H1231c-0.5-171.9-25.8-351.2-41-458.7c-1.5-10.5-2.9-20.2-4.1-29c-14.6-105.2-71.6-137.4-152.7-153.3
		C947.5,742,849.1,736,657.2,736c-191.9,0-290.3,6-376.1,22.9C200,774.8,143,807,128.4,912.2c-1.2,8.8-2.6,18.6-4.1,29.1
		c-15.2,107.5-40.5,286.8-41,458.7H59.7c-23.3,0-42.3-19-42.3-42.3V131.8c0-23.3,19-42.3,42.3-42.3h342.9c-11,3.6-19,7.5-23.5,11.3
		c-5.1,4.3-12.1,14.4-15,52.7c-1.1,14.6-1.2,28.3-1.2,34.6v15.8H64.2v452.6h298.7v23.7l0,0.9c1.4,13.6,34,45.3,305.8,45.3l0,0h0l0,0
		c271.8,0,304.5-31.7,305.9-45.3l0-24.6h289.1V203.8h-289l0-15.6c0-6.3-0.1-20-1.2-34.8c-2.9-38.3-10-48.4-15-52.7
		c-4.5-3.8-12.5-7.7-23.5-11.3h319.8c23.3,0,42.3,19,42.3,42.3V1357.6z"/>
</g>
</svg>
