<?xml version="1.0" encoding="utf-8"?>
<!-- Generator: Adobe Illustrator 21.0.0, SVG Export Plug-In . SVG Version: 6.00 Build 0)  -->
<svg version="1.1" id="Layer_1" xmlns="http://www.w3.org/2000/svg" xmlns:xlink="http://www.w3.org/1999/xlink" x="0px" y="0px"
	 viewBox="0 0 1417.3 942.1" style="enable-background:new 0 0 1417.3 942.1;" xml:space="preserve">
<g>
	<path d="M1370.5,539.3L858.7,513l-0.3,0l-571.6,15.2V306.5h-6.5V182.3v-8.6V26.3h4.4c4.3,0,7.7-3.5,7.7-7.7V7.7
		c0-4.3-3.5-7.7-7.7-7.7h-34.7c-4.3,0-7.7,3.5-7.7,7.7v10.8c0,4.3,3.5,7.7,7.7,7.7h4.2v147.5h-2.4v132.8h-6.5v222.8l-213,5.7
		c-18,0.5-32.1,15-32.1,33v197c0,15.3,8.3,29.3,21.7,36.6l233.3,126.9c16.7,9.1,35.1,13.7,53.8,13.7c4.3,0,8.5-0.2,12.8-0.7
		l1044.1-118.1c29.4-3.3,51.5-28.1,51.5-57.7V588.5C1417.3,562.3,1396.8,540.6,1370.5,539.3z M250.7,17.7V8.6h33.1v9.1h-3.6h-26.1
		H250.7z M262.6,26.3h9v147.5h-9V26.3z M260.3,182.3h11.4v124.2h-11.4V182.3z M253.7,315.1h24.4v213.3l-24.4,0.6V315.1z M32.6,552.1
		l825.6-21.9l420.6,21.6l-991.2,52.9L25.5,554C27.6,552.8,30,552.2,32.6,552.1z M29.9,786.5c-7.9-4.3-12.8-12.5-12.8-21.5V568
		c0-2.4,0.5-4.6,1.4-6.6l264.4,51.2v308.8c-6.8-1.9-13.4-4.6-19.7-8L29.9,786.5z M1400.2,765.6c0,20.8-15.6,38.3-36.3,40.7
		L319.8,924.4c-9.5,1.1-19,0.7-28.3-1V613l1069.2-57.1l8.9,0.5c17.1,0.9,30.5,15,30.5,32.1V765.6z"/>
	<path d="M1368.8,585.7c-3.3-3.2-7.7-4.8-12.3-4.5L381.3,632c-12.8,0.7-22.6,11.2-22.5,24l2.8,221.4c0.1,5.6,2.5,10.8,6.7,14.5
		c3.6,3.2,8.3,4.9,13,4.9c0.7,0,1.5,0,2.2-0.1l977.4-111c7.7-0.9,13.4-7.3,13.4-15l-0.4-172.9C1374,593.1,1372.2,588.8,1368.8,585.7
		z M1360,777.2l-977.4,111c-3.2,0.4-6.2-0.6-8.6-2.7c-2.4-2.1-3.7-5-3.8-8.2l-2.8-221.4c-0.1-8.2,6.2-14.9,14.4-15.3l975.2-50.8
		c2.2-0.1,4.4,0.7,6,2.2c1.6,1.5,2.5,3.6,2.5,5.9l0.4,172.9C1365.8,774,1363.3,776.8,1360,777.2z"/>
	<path d="M1349.6,617.6c-2-1.9-4.7-2.9-7.5-2.8l-98.1,5.1c-7.5,0.4-13.5,6.8-13.2,14.4l3.1,107.5c0.1,3.9,1.9,7.6,4.8,10.2
		c2.5,2.2,5.8,3.4,9.2,3.4c0.5,0,1,0,1.6-0.1l95.4-10.8c4.6-0.5,8.1-4.4,8-9l-0.2-110.6C1352.7,622.1,1351.6,619.5,1349.6,617.6z
		 M1348.7,735.4c0,2.4-1.8,4.5-4.2,4.7L1249,751c-2.7,0.3-5.4-0.5-7.4-2.3c-2.1-1.8-3.3-4.3-3.3-7l-3.1-107.5c-0.2-5.2,4-9.7,9.2-10
		l98.1-5.1c0.1,0,0.2,0,0.3,0c1.5,0,2.9,0.6,4,1.6c1.2,1.1,1.8,2.6,1.8,4.2L1348.7,735.4L1348.7,735.4z"/>
	<path d="M1332.6,645l-22.2,1l0-9c0-0.6-0.9-1.1-1.9-1l-22.6,0.7c-1.5,0-2.6,0.8-2.6,1.6l0.4,8.9l-24.9,1.1
		c-4.8,0.2-8.6,3.7-8.4,7.7l2.3,68.4c0.2,4.4,4.7,7.8,9.9,7.3l71.8-6.9c2.6-0.3,4.6-2.2,4.6-4.4l-0.2-70.4
		C1338.8,647.2,1336,644.9,1332.6,645z"/>
	<path d="M466.4,689.5c-30.5-3.4-58.2,20-61.9,52.2c-3.6,32.2,18.2,61.3,48.6,64.7c2,0.2,4,0.3,6,0.3c12.7,0,25-4.6,35.1-13.1
		c11.6-9.9,19-23.9,20.8-39.4v0c1.8-15.6-2.3-30.9-11.4-43.1C494.5,698.9,481.2,691.2,466.4,689.5z M449,738.7
		c4.8,0.5,8.2,4.9,7.7,9.8s-4.9,8.4-9.6,7.9c-4.8-0.5-8.2-4.9-7.6-9.8C439.9,741.7,444.3,738.2,449,738.7z M506.5,753.3L506.5,753.3
		c-1.5,13.4-7.8,25.4-17.8,33.9c-9.9,8.4-22.2,12.2-34.6,10.8c-15.5-1.8-28.4-11.5-35.4-24.9c7.1,9.1,17.6,15.5,29.8,16.9
		c24.4,2.8,46.5-15.2,49.3-40.2c2.8-24.9-14.7-47.4-39.1-50.2c-4-0.5-7.9-0.3-11.7,0.3c4.3-1.4,8.8-2.1,13.4-2.1
		c1.6,0,3.3,0.1,5,0.3c12.4,1.4,23.5,7.9,31.3,18.3C504.6,726.7,508.1,739.9,506.5,753.3z"/>
	<path d="M777.4,662.8c-0.2-8.6-6.6-14.2-17.6-13.6l-15.6,0.8l0.9,52.8l4.3-0.2l-0.4-22.8l12-0.6l16.7,21.9l5.4-0.3L765,678.1
		C773,675.6,777.5,669.5,777.4,662.8z M759.6,676.3l-10.6,0.6l-0.4-24.1l11.3-0.6c9.2-0.5,12.9,4.5,13,10.6
		C773,672,765.5,676,759.6,676.3z"/>
	<polygon points="832.9,645.3 799.3,647.1 800.3,699.9 804.6,699.6 804.1,673.6 826.1,672.4 826.1,669.5 804,670.6 803.7,649.8 
		833,648.3 	"/>
	<polygon points="883.1,642.7 878,643 866.1,666.4 853.5,644.3 848.4,644.5 864.2,669.8 848.9,697.3 853.9,697 866.2,673 
		879.4,695.7 884.5,695.4 868.4,669.7 	"/>
	<path d="M922.1,691.5c-14.7,0.8-16.1-14.6-16.3-23.3c-0.2-8.9,0.7-24.9,15.9-25.7c5.7-0.3,10.6,2.9,11,7.5l4.3-0.2
		c-0.8-6.4-7.3-10.6-15.3-10.2c-18.5,1-20.6,18-20.4,29.2c0.2,10.7,3.2,26.5,20.5,25.6c9.7-0.5,15.9-5.5,16.7-13.3l-4.3,0.2
		C934,686.8,928.9,691.2,922.1,691.5z"/>
	<path d="M973.2,636.9c-17.6,0.9-19.2,16.4-19,28.4c0.4,22.6,9.6,26.9,19.9,26.4c10.5-0.6,19.1-6,18.7-28.4
		C992.7,654.4,992.5,635.9,973.2,636.9z M974.1,688.8c-8.2,0.4-15-4-15.3-23.7c-0.3-18.2,5-24.8,14.5-25.3
		c8.4-0.4,14.7,4.1,15.1,23.7C988.7,682.5,982.9,688.3,974.1,688.8z"/>
	<polygon points="1041.6,634.3 1027.2,664.1 1011.8,635.9 1007.1,636.2 1008,688.9 1012.3,688.7 1011.5,643 1011.6,642.9 
		1027.3,671.4 1042,641.3 1042.2,641.3 1043,687.1 1047.3,686.8 1046.3,634.1 	"/>
	<circle cx="908.6" cy="776.2" r="6.1"/>
	<path d="M656.5,765.9l-71.9,3.1c-2.1,0.1-3.8,1.7-3.8,3.6V799c0,1.5,1.1,2.9,2.7,3.4l9.8,3.2c0.5,0.2,1.1,0.3,1.7,0.2l53.6-2.3
		c0.7,0,1.3-0.2,1.9-0.5l8.2-4c1.3-0.6,2.1-1.9,2.1-3.2v-26.5C660.7,767.4,658.8,765.8,656.5,765.9z M646.7,793.4
		c0,1.1-0.6,2.1-1.7,2.6l-6.5,3.2c-0.5,0.2-1,0.4-1.5,0.4l-42.6,1.9c-0.5,0-0.9,0-1.4-0.2l-7.8-2.6c-1.3-0.4-2.1-1.5-2.1-2.8v-21.5
		c0-1.6,1.3-2.9,3-3l57.2-2.5c1.8-0.1,3.3,1.3,3.3,3V793.4z"/>
</g>
</svg>
