<svg width="960" height="960" viewBox="0 0 960 960" fill="none" xmlns="http://www.w3.org/2000/svg">
<path d="M260.084 33.1946C276.137 28.6787 293.28 26.9781 310.883 28.6047L828.383 76.426C900.404 83.0817 955.5 143.504 955.5 215.832V744.272C955.5 816.705 900.248 877.179 828.108 883.702L310.608 930.5C288.199 932.527 266.568 929.159 246.996 921.488L102.541 876.7C43.9434 858.533 4.00023 804.329 4 742.98V216.122C3.99998 154.895 43.7871 100.769 102.226 82.4993L257.967 33.8108L258.255 33.7229C258.863 33.5429 259.473 33.3665 260.084 33.1946ZM304.202 69.0247C294.826 68.1583 285.656 68.6123 276.865 70.2249C274.859 70.657 272.875 71.1491 270.915 71.7004C270.511 71.8141 270.107 71.9303 269.705 72.0491L257.492 75.8665C221.084 90.633 195 126.334 195 168.6V791.658C195 830.098 216.578 863.114 247.883 879.883L257.522 882.872C258.535 883.107 259.536 883.422 260.516 883.82C274.715 889.577 290.504 892.155 307.006 890.662L824.506 843.865C827.526 843.592 830.504 843.184 833.436 842.653C879.002 832.942 912.5 792.528 912.5 744.862V216.422C912.5 164.759 873.146 121.6 821.702 116.846L304.202 69.0247ZM165.329 104.68C143.323 125.035 130 154.05 130 185.46V773.896C130 804.995 143.065 833.764 164.711 854.097L200.047 865.052C184.384 844.834 175 819.426 175 791.658V168.6C175 139.984 184.964 113.876 201.495 93.3723L165.329 104.68ZM114.161 120.677C72.4194 133.727 44 172.388 44 216.122V742.98C44.0002 786.801 72.5313 825.517 114.387 838.494L130.123 843.373C117.28 823.07 110 799.132 110 773.896V185.46C110 160.062 117.372 135.989 130.357 115.613L114.161 120.677ZM310 288.855C310 237.067 353.598 195.964 405.296 199.011L737.296 218.579C784.862 221.383 822 260.775 822 308.424V651.5C822 699.184 784.809 738.592 737.205 741.35L405.205 760.581C353.54 763.574 310 722.483 310 670.732V288.855ZM404.119 218.976C363.91 216.606 330 248.575 330 288.855V670.732C330 710.983 363.864 742.942 404.048 740.615L736.048 721.383C773.073 719.238 802 688.588 802 651.5V308.424C802 271.364 773.115 240.726 736.119 238.545L404.119 218.976ZM356 291.107C356 262.486 379.98 239.705 408.563 241.172L737.563 258.065C764.146 259.43 785 281.381 785 307.999V651.908C785 678.573 764.075 700.546 737.442 701.849L408.442 717.937C379.903 719.332 356 696.569 356 667.996V291.107ZM407.538 261.147C390.388 260.266 376 273.934 376 291.107V667.996C376 685.14 390.342 698.798 407.465 697.961L736.465 681.872C752.445 681.091 765 667.907 765 651.908V307.999C765 292.029 752.488 278.857 736.538 278.038L407.538 261.147Z" fill="black"/>
</svg>
