<svg height="960" viewBox="0 0 960 960" width="960" xmlns="http://www.w3.org/2000/svg"><path d="m484.428432 114.552047c17.047614.475389 33.262039 6.947467 49.812854 17.786574 12.907688 8.453227 26.35985 19.901469 40.191981 33.941115 26.121646 26.513534 53.543207 62.268237 78.441949 102.311396 66.828203-22.629314 126.415003-36.999527 173.709552-41.747357 28.586133-2.869719 52.691992-2.244525 71.875399 2.168474 22.450603 5.164594 39.014786 15.744879 47.536574 32.469828 11.588608 22.743925 5.447881 50.19833-14.192421 80.806129-16.952506 26.419092-44.697219 56.280357-81.635149 88.265476-26.540017 22.981407-57.419794 46.713498-91.708227 70.554984 19.120135 13.189332 37.048347 26.17197 53.668415 38.864621 14.673649-28.68682 35.338218-51.953955 45.42937-52.235356h1.844816c16.61699.463381 61.904704 63.254534 61.904704 109.936592 0 13.797101-2.635113 25.468469-7.162775 35.06968 12.540236 14.863543 22.034948 28.849258 28.324894 41.940064 10.643222 22.150964 12.551186 42.768346 3.526373 60.480539-11.588609 22.743925-37.409117 33.913267-73.715627 36.014742-31.337928 1.813887-71.804132-3.080047-119.392207-14.163078-20.201414-4.704811-41.505241-10.481156-63.691612-17.251419-7.032018 9.212783-14.6666 17.898552-22.884039 26.031997-48.413856 47.918996-114.176996 73.358124-183.79515 73.358124-.749366 0-1.494469-.018235-2.234892-.054285l-.381498-.022404-.379623.022404c-.493615.024034-.989311.040149-1.486963.054285h-.747929c-69.618154 0-135.381294-25.439128-183.79515-73.358124-8.031653-7.949558-15.506507-16.426749-22.40703-25.407225-21.447137 6.501907-42.058768 12.067403-61.635147 16.626647-8.676433 2.020699-17.116122 3.835661-25.306905 5.441741.826557 4.89055 1.275625 9.698816 1.275625 14.347346 0 46.855184-30.390574 69.194443-62.088397 69.194443l.000212-.239415-.739484-.00545-.73837.00545.000211.239415c-31.6978221 0-62.0883964-22.339259-62.0883964-69.194443 0-3.26678.2217789-6.612448.6399914-10.010124-20.8212322-5.43121-35.9386285-15.686983-44.0623207-31.630627-8.77174464-17.215518-7.27389389-37.45818 2.4695718-59.375109 8.3256106-18.727609 22.9408693-39.334792 43.3026321-61.582108 32.5912489-35.609284 79.8825578-75.324757 137.7771078-115.881749-32.698592-22.904471-62.214462-45.685013-87.721742-67.772158-36.9379297-31.985119-64.6826426-61.846384-81.6351495-88.265476-19.6403015-30.607799-25.78102845-58.062204-14.1924202-80.806129 8.4985858-16.679413 24.99899-27.249277 47.3570999-32.428398 10.1790944-2.357925 21.7479626-3.645607 34.6406524-3.907275 12.0052624-40.162177 43.8671844-80.774078 57.2189364-81.146404h1.844816c15.208005.42409 54.430782 53.054298 60.972982 97.762184 27.682413 6.767962 57.5249 15.523177 88.993814 26.121727l-.019416.030224.113015-.180284c24.756505-39.696111 51.973009-75.129935 77.9081-101.454115 13.832131-14.039646 27.284293-25.487888 40.191981-33.941115 16.550816-10.839107 32.76524-17.311185 49.812855-17.786574 1.497214-.041751 2.97945-.010204 4.443265.091385l.082575.006051.08245-.006051c1.463815-.101589 2.946051-.133136 4.443266-.091385zm-3.259441 544.012523-3.554396 1.650675c-38.631824 17.890438-76.66168 33.992346-113.317816 48.033288 28.281945 24.652866 64.920624 38.619488 104.670935 40.328467l.437002.016483.263429-.046155c2.1365-.362652 4.324286-.575512 6.552231-.627363l.74412-.011304 2.707826-.019289.138706-.001146h.183251l.138437.001257 2.708095.019178c2.485257.017702 4.922462.23572 7.296351.638667l.262554.046155.437877-.016483c40.112417-1.724546 77.056252-15.931076 105.440881-41.006051-37.236431-14.312226-75.875274-30.742956-115.109483-49.006379zm266.297114-116.36324.034475 1.625529c.029298 1.720591.044011 3.434853.044011 5.142583 0 59.385123-12.417632 111.956583-35.85854 155.778037 17.436214 5.124738 34.236184 9.576008 50.275851 13.311568 44.171307 10.287283 81.05196 14.747584 108.00782 13.187339 23.607914-1.366462 36.715855-7.036647 40.386758-14.2412 2.537706-4.980529 1.788695-13.074312-3.9402-24.997444-4.379946-9.115664-11.300438-19.465298-20.648775-30.832591-8.265503 3.813562-17.351564 5.693815-26.547652 5.693815l.000211-.239415-.739139-.006416-.738715.006416.000211.239415c-31.697822 0-62.088396-22.33926-62.088396-69.194443 0-5.901115.723683-12.059649 2.021653-18.317157-15.434116-12.071646-32.212157-24.487985-50.209573-37.156036zm-535.02307-3.754715-1.784044 1.278625c-50.072845 35.934975-90.852464 70.693274-119.0377065 101.488545-17.6878645 19.325807-29.9274998 36.583415-36.2588251 50.825083-5.2834813 11.88465-5.8873539 20.04567-3.3801581 24.966318 2.4141933 4.738121 8.9100202 8.81261 19.7898269 11.435738 14.616079-32.802488 38.7302378-61.260564 49.8969458-61.571958h1.844816c10.678397.297777 33.19664 26.334397 47.92796 57.294623 9.247272-1.732336 18.903122-3.768159 28.935029-6.104542 15.36681-3.578855 31.431471-7.814631 48.08529-12.669752-23.662465-43.950907-36.201453-96.745254-36.201453-156.419853 0-3.481042.061135-6.989223.182319-10.522827zm90.590625 26.222957.003577.076379c2.18081 44.955974 13.772847 82.20822 33.151994 111.361425 31.650803-11.778549 64.520656-25.219702 98.047671-40.129295-6.150408-3.057641-12.30816-6.156552-18.469539-9.295932-39.217922-19.982529-77.022994-40.80985-112.733703-62.012577zm353.659476 1.548752-1.619162.955887c-34.461097 20.338136-70.829976 40.3128-108.502556 59.507938-6.161379 3.13938-12.319131 6.238291-18.470228 9.295665 32.810323 14.590838 64.990618 27.775138 96.015923 39.371447 18.867411-28.719569 30.236275-65.220715 32.576023-109.130937zm-176.79042-361.074841-.018934.009697c-1.271175.632029-2.892919 1.566869-4.792674 2.811016-6.985514 4.574804-15.685664 11.978924-25.322474 21.760309-21.229581 21.548077-44.745455 52.240459-66.376764 87.096723-42.233152 68.053666-71.230335 141.14191-78.780408 202.11175 8.463447 5.166467 17.063848 10.317949 25.790742 15.447114 7.578813-43.490196 18.478305-82.470562 32.748361-116.938772 15.249547-36.834095 41.297581-88.486648 78.232402-155.235317 14.224122-25.705854 52.981109-5.526043 40.078225 20.867748-21.833152 44.661303-40.457071 94.36798-55.849193 149.128007-15.268737 54.321064-23.082321 94.023906-23.540799 118.19361-.147655 7.783951-4.217928 14.587346-10.303685 18.538879 13.834524 7.464296 27.899587 14.841869 42.159468 22.107641 15.795395 8.048156 31.561267 15.822301 47.24266 23.303437 15.680888-7.481136 31.44676-15.255281 47.242155-23.303437 44.580463-22.71488 87.256839-46.52246 126.957356-70.67424-7.270363-61.255251-36.390612-134.957852-78.955717-203.54642-21.631309-34.856264-45.147182-65.548646-66.376764-87.096723-9.63681-9.781385-18.33696-17.185505-25.322474-21.760309-1.899755-1.244147-3.521499-2.178987-4.792674-2.811016zm350.67751 61.500246c-42.178595 4.234246-96.090031 17.004805-157.029194 37.205509 29.786679 53.9833 52.162389 109.881958 64.14431 162.981191 32.302786-22.551278 61.353898-44.923359 86.289585-66.515552 34.285829-29.688625 59.572193-56.904002 74.154184-79.62884 12.770893-19.902389 15.888271-33.839787 12.217369-41.04434-2.412615-4.735023-8.940652-8.904773-20.863796-11.647603-14.357237-3.302775-34.309307-3.820239-58.912458-1.350365zm-736.2915416-1.342628-.333318.014221c-8.0403923.388743-15.1410721 1.296179-21.229487 2.706524-11.8505643 2.745111-18.3396699 6.901916-20.7435781 11.619851-3.6709027 7.204553-.5535248 21.141951 12.2173682 41.04434 14.5819914 22.724838 39.8683555 49.940215 74.1541845 79.62884 24.371521 21.103673 52.674353 42.952345 84.104166 64.984289 12.11775-52.874228 34.492176-108.473833 64.186658-162.157843-25.238771-8.317081-49.254693-15.349611-71.7111-21.019213-9.51472 27.67447-33.22407 41.008924-57.713725 41.008924l.000211-.239415-.739139-.005484-.738715.005484.000211.239415c-29.016745 0-56.9380311-18.720063-61.4537366-57.829933z" fill-rule="evenodd"/></svg>