<svg height="960" viewBox="0 0 960 960" width="960" xmlns="http://www.w3.org/2000/svg"><path d="m414.745854 9.8c21.694062 0 43.147073 8.8847549 65.676542 24.4102162 18.316124 12.6219696 37.822442 30.1341286 57.903942 51.6974714 39.524641 42.4412194 80.327957 99.5670444 115.198656 161.8309514 12.197913 21.78017 4.429959 49.324848-17.35021 61.522762-21.78017 12.197913-49.324849 4.429959-61.522762-17.35021-31.476993-56.204225-68.097755-107.474353-102.480812-144.394583-15.923086-17.098074-30.690157-30.355486-43.044769-38.869271-5.298242-3.651113-9.837317-6.206854-13.333388-7.654751-.179075-.074164-.351162-.143664-.516084-.208624l-.055969-.022962-.011797.005626c-2.745149 1.095742-6.288172 2.983114-10.438294 5.667511l-.521914.339701c-10.369621 6.791051-22.838184 17.402216-36.467383 31.235887-29.305463 29.745116-61.509356 71.776902-91.071832 119.413291-67.628849 108.975792-110.50978 227.553414-110.50978 319.240374 0 93.756355 27.980107 166.403311 77.501517 215.418541 42.260205 41.828245 99.639735 65.298382 162.025472 67.540825l.514011.016244.340573-.071405c2.582747-.523933 5.245801-.827826 7.968844-.891199l.74412-.011305 3.391463-.024091 1.37784-.022821c47.543933-.923464 92.677017-14.174341 130.466692-38.626626l1.154527-.752037c40.636772-26.646267 71.937129-65.711017 91.062129-116.045572 8.866535-23.335583 34.971509-35.065065 58.307092-26.198531 23.335584 8.866534 35.065066 34.971508 26.198532 58.307092-25.880376 68.113836-69.38872 122.414897-125.997319 159.534181-50.969301 33.421494-110.968427 51.771001-173.537864 54.002051l-1.209629.039263-.022086.006837c-3.249224.802003-6.636924 1.252587-10.120487 1.315163h-.74793c-89.362888 0-173.589611-32.581388-235.509226-93.868096-67.355183-66.666715-104.308271-162.61093-104.308271-279.668514 0-58.519155 13.2226389-122.87925 37.50352-190.022596 21.593669-59.712459 51.605243-120.503472 86.595222-176.885632 32.922587-53.050806 69.166552-100.355603 103.486276-135.1902061 17.82452-18.091931 35.045095-32.747219 51.33689-43.4166935 20.014408-13.1074085 39.253042-20.7866168 58.76399-21.33069828.419883-.01756412.839909-.01756412 1.259956-.01756412zm223.041744 367.716113c29.243164 0 52.748047 7.697022 70.514648 23.091065 17.766602 15.394043 27.86377 36.609131 30.291504 63.645263h-57.93457c-.441407-14.676757-4.138184-25.215332-11.090332-31.615722-6.952149-6.400391-17.545899-9.600586-31.78125-9.600586-14.456055 0-25.049805 5.407226-31.78125 16.22168-6.731446 10.814453-10.262696 28.084472-10.59375 51.810058v17.049317c0 25.711914 3.227783 44.085449 9.683349 55.120605 6.455567 11.035156 17.573487 16.552734 33.35376 16.552734 13.352539 0 23.560059-3.145019 30.622559-9.435058s10.814453-16.276856 11.255859-29.960449h57.769043c-.772461 16.773437-5.296875 31.588134-13.573242 44.444091s-19.890869 22.815186-34.843506 29.877686-32.029541 10.59375-51.230713 10.59375c-31.670898 0-56.610352-10.317871-74.818359-30.953613-18.208008-20.635743-27.312012-49.768555-27.312012-87.398438v-11.917969c0-23.615234 4.110596-44.278564 12.331787-61.98999s20.056397-31.395019 35.505615-41.050781c15.449219-9.655762 33.326172-14.483643 53.63086-14.483643zm-223.483885-160.590427c-29.471953 60.287028-54.594482 127.338299-75.345023 201.161789-20.627155 73.384526-31.20564 127.136549-31.835503 160.34115-.233554 12.312349-10.281371 22.171375-22.595935 22.171375h-38.527252c-13.881567 0-24.482056-12.397704-22.325649-26.110757 10.106231-64.267666 25.444566-121.322664 46.07845-171.162206 20.305055-49.04528 55.099851-118.042427 104.472688-207.269098 14.224121-25.705855 52.981109-5.526044 40.078224 20.867747zm409.371092 360.381931h101.137207v44.692383h-159.237305v-241.007813h58.100098z"/></svg>