<svg height="960" viewBox="0 0 960 960" width="960" xmlns="http://www.w3.org/2000/svg"><path d="m437.320932 8c21.709641 0 43.21232 8.900816 65.810147 24.4654992 18.401132 12.6741291 38.006907 30.2666661 58.194717 51.9331867 39.750478 42.6621091 80.793025 100.0937711 115.869211 162.6928781 12.148623 21.681174 4.420963 49.105643-17.260212 61.254266-21.681174 12.148622-49.105643 4.420962-61.254266-17.260212-31.695594-56.565896-68.572013-108.167812-103.201644-145.333984-16.046916-17.222315-30.933602-30.580347-43.399251-39.1663-5.358976-3.691097-9.956888-6.278655-13.510291-7.7495503-.184004-.0761665-.361013-.1476047-.530852-.2144366l-.243012-.0943471-.035331.0149469-.161439.0641159c-2.911041 1.1613698-6.688893 3.1889442-11.118328 6.0883062-10.467865 6.85192-23.041513 17.547099-36.780159 31.484797-29.519039 29.946726-61.949719 72.253078-91.718485 120.197591-68.101874 109.682451-111.284258 229.033212-111.284258 321.355242 0 94.42343 28.203867 167.614274 78.133781 217.00881 42.619992 42.162995 100.486105 65.820219 163.393701 68.080534l.581518.018657.39585-.083114c2.571328-.521608 5.222607-.824148 7.933609-.887231l.74083-.011252 3.402711-.024403 2.636681-.049297c88.131621-2.08728 164.651661-45.323965 207.097195-121.611454l1.288685-2.345646c11.850253-21.845683 39.166206-29.94858 61.011889-18.098327s29.94858 39.166206 18.098327 61.011888c-57.468265 105.941493-162.863424 166.898779-281.639594 170.911212l-.683183.019624-.071002.018655c-3.234848.798455-6.607559 1.247046-10.07571 1.309345h-.74462c-89.804232 0-174.441531-32.723634-236.662548-94.27748-67.693744-66.967891-104.83812-163.359931-104.83812-280.990521 0-58.806909 13.296964-123.496004 37.716579-190.988797 21.720559-60.032933 51.909937-121.153141 87.107284-177.840733 33.115696-53.33496 69.570387-100.8907 104.083222-135.9035739 17.916123-18.1757009 35.221384-32.8956019 51.585352-43.6069168 20.07192-13.138417 39.352087-20.83030686 58.87727-21.37450959.417814-.01746871.83577-.01746871 1.253746-.01746871zm299.65154 309.5c7.480153 0 14.619072 3.193346 19.592079 8.791864l.141003.158704c4.792256 5.455357 7.074675 12.650832 6.366769 19.818113l-.049251.45743-11.00175 94.773889h35.412748c10.900404 0 20.919978 5.594872 26.654813 14.816631l.250216.409189.037585.062769c5.664981 9.499263 5.918468 21.125486.713018 30.930597l-96.747329 180.956683c-4.558431 8.506762-13.403134 13.824131-23.085895 13.824131h-.241443c-7.480154 0-14.619072-3.193346-19.592079-8.791864-4.962496-5.586685-7.293307-13.04389-6.431694-20.434247l11.00106-94.784889-35.412059-.015846c-10.900404 0-20.919978-5.594872-26.690786-14.87671l-.251828-.411879c-5.6623-9.494768-5.959285-21.148911-.739844-30.903751l96.747328-180.956683c4.558432-8.506762 13.403135-13.824131 23.085896-13.824131zm-302.24801-103.768815c-29.91596 60.863122-55.410611 128.538247-76.464034 203.032747-20.94278 74.103006-31.691004 128.421083-32.334107 162.139661-.207798 10.895057-9.099324 19.618616-19.996363 19.618616h-39.01039c-12.291341 0-21.674146-10.98288-19.754603-23.123408 10.201532-64.521583 25.677484-121.776027 46.484163-171.760158 20.512707-49.277922 55.702794-118.680165 105.64922-208.4535 12.639211-22.717624 46.893906-4.784836 35.426114 18.546042z"/></svg>