<svg height="960" viewBox="0 0 960 960" width="960" xmlns="http://www.w3.org/2000/svg"><path d="m436.349983 7c21.73513 0 43.270861 8.9134442 65.907106 24.5027463 18.439101 12.6987811 38.087356 30.3273524 58.319794 52.0392045 39.842112 42.7554032 80.980649 100.3145842 116.139107 163.0531052 12.149715 21.680562 4.423437 49.105421-17.257125 61.255136s-49.105421 4.423436-61.255136-17.257126c-31.777422-56.70523-68.749346-108.434675-103.470142-145.694286-16.091338-17.267952-31.020315-30.662349-43.523852-39.273381-5.378226-3.703917-9.994185-6.3013256-13.564238-7.7789384-.277969-.1150487-.540181-.2194148-.78604-.3135097l-.033457-.0129509-.076986.0308323-.163251.0648198c-2.925716 1.1670864-6.719361 3.2028969-11.16558 6.1129009-10.500821 6.87268-23.111111 17.597759-36.888571 31.573182-29.597521 30.022798-62.112637 72.434286-91.958479 120.497256-68.278445 109.953837-111.573133 229.600855-111.573133 322.160451 0 94.670393 28.283323 168.05876 78.356729 217.589396 42.745019 42.281685 100.780462 66.005342 163.870524 68.272004l.598747.019158.407566-.085794c2.57133-.521606 5.22261-.824144 7.933614-.887225l.74083-.011252 3.52499-.025729 1.294479-.021675c48.079411-.933309 93.725648-14.326503 131.948133-39.043428l1.167752-.760176c41.10142-26.934117 72.757251-66.417851 92.0941-117.278186 8.832121-23.230497 34.824008-34.902688 58.054505-26.070567s34.902688 34.824008 26.070567 58.054505c-26.067511 68.563513-69.883578 123.214485-126.889633 160.571047-51.325663 33.634152-111.746437 52.101047-174.758976 54.346421l-1.283927.041059-.080315.021655c-3.234848.798455-6.60756 1.247046-10.07571 1.309345h-.744621c-89.995542 0-174.811923-32.788999-237.164506-94.465712-67.839327-67.103984-105.064848-163.695186-105.064848-281.574846 0-58.931723 13.327342-123.760944 37.803254-191.401341 21.771424-60.166411 52.031829-121.423176 87.311998-178.237446 33.193166-53.453415 69.732716-101.114222 104.324435-136.2029768 17.955104-18.2130953 35.297153-32.9625457 51.694109-43.6941846 20.105312-13.1587203 39.414431-20.86125029 58.96259-21.40602902.417764-.01746458.835671-.01746458 1.253597-.01746458zm295.600829 373.221983v45.373518h-109.293364v51.400997h92.24761v43.699219h-92.24761v58.098195h108.959134v45.206088h-167.616582v-243.778017zm-299.001604-166.400082c-29.94531 60.927298-55.46493 128.673664-76.538938 203.246464-20.963385 74.181348-31.722249 128.55718-32.366015 162.312991-.207783 10.895068-9.099314 19.618644-19.996364 19.618644h-39.047891c-12.291249 0-21.67403-10.982726-19.754638-23.123184 10.211079-64.586698 25.701459-121.898716 46.527443-171.932891 20.532054-49.328011 55.755647-118.801426 105.74973-208.667001 12.638517-22.718042 46.8938-4.786258 35.426673 18.544977zm366.991732 146.178099c15.196114 0 27.171653 4.703478 35.926616 14.110435s13.132444 22.204793 13.132444 38.393509v1.125085c0 15.813688-4.393115 28.361505-13.179346 37.643452-8.786231 9.281948-20.6836 13.922921-35.692108 13.922921-14.445689 0-26.046015-4.32845-34.800978-12.98535s-13.476389-20.392157-14.164279-35.20577l-.093803-5.344151c0-10.125761 1.969866-19.142063 5.9096-27.048907 3.939733-7.906844 9.599191-13.985426 16.978374-18.235745s16.040343-6.375479 25.98348-6.375479zm-.503767 24.275862c-10.45247 0-16.111648 7.872405-16.977533 23.617215l-.092773 5.739642c0 9.409248 1.45345 16.309364 4.36035 20.700347s7.205401 6.586474 12.895503 6.586474c11.132808 0 16.82291-8.687873 17.070306-26.063619v-3.199145c0-18.253943-5.751951-27.380914-17.255853-27.380914z"/></svg>