<svg height="960" viewBox="0 0 960 960" width="960" xmlns="http://www.w3.org/2000/svg"><path d="m485.759699 9.81756412c19.510948.54408148 38.749583 8.22328978 58.76399 21.33069828 16.291795 10.6694745 33.51237 25.3247625 51.33689 43.4166935 34.319724 34.8346031 70.56369 82.1394001 103.486277 135.1902061 34.989978 56.38216 65.001553 117.173173 86.595221 176.885632 24.280881 67.143346 37.50352 131.503441 37.50352 190.022596 0 117.057584-36.953088 213.001799-104.308271 279.668514-61.919615 61.286708-146.146338 93.868096-235.509226 93.868096-.999154 0-1.990731-.032418-2.973738-.096258l-.532362-.039742-.530765.039742c-.737255.04788-1.479331.078085-2.225808.096258h-.74793c-89.362888 0-173.589611-32.581388-235.509226-93.868096-67.355183-66.666715-104.308271-162.61093-104.308271-279.668514 0-58.519155 13.222639-122.87925 37.50352-190.022596 21.593669-59.712459 51.605243-120.503472 86.595222-176.885632 32.922587-53.050806 69.166552-100.355603 103.486276-135.1902061 17.82452-18.091931 35.045095-32.747219 51.33689-43.4166935 20.014408-13.1074085 39.253042-20.7866168 58.76399-21.33069828 1.74675-.04870979 3.473113.00234744 5.173623.14800208l.462479.0434338.464077-.0434338c1.700509-.14565464 3.426872-.19671187 5.173622-.14800208zm-5.637699 90.17043588-.148113.015487c-.735191.068344-1.475684.119174-2.221073.15206l-.747005.026889c.869417-.024245.527867.05552-.796606.58419-2.859531 1.141398-6.584809 3.141769-10.960208 6.007212-10.369621 6.791051-22.838184 17.402216-36.467383 31.235887-29.305463 29.745116-61.509356 71.776902-91.071832 119.413291-67.628849 108.975792-110.50978 227.553414-110.50978 319.240374 0 93.756355 27.980107 166.403311 77.501517 215.418541 42.260205 41.828245 99.639735 65.298382 162.025472 67.540825l.514011.016244.340573-.071405c2.582747-.523933 5.245801-.827826 7.968844-.891199l.74412-.011305 3.629104-.02585.076359-.001147h.245597l.075403.000906 3.63006.026091c2.982308.021244 5.895422.330941 8.712965.902504l.339975.071405.514608-.016244c61.729046-2.218839 118.556723-25.220824 160.685926-66.226039l1.339547-1.314786c49.521409-49.01523 77.501516-121.662186 77.501516-215.418541 0-91.68696-42.880931-210.264582-110.50978-319.240374-29.562476-47.636389-61.766368-89.668175-91.071832-119.413291-13.629199-13.833671-26.097761-24.444836-36.467383-31.235887-4.375398-2.865443-8.100677-4.865814-10.960207-6.007212-1.324474-.52867-1.666024-.608435-.796607-.58419-.998142-.027834-1.987823-.087824-2.968077-.178949zm57.879404 613.012c25.957383 0 47 21.042617 47 47s-21.042617 47-47 47c-25.957384 0-47-21.042617-47-47s21.042616-47 47-47zm-115.44 0c25.957383 0 47 21.042617 47 47s-21.042617 47-47 47c-25.957384 0-47-21.042617-47-47s21.042616-47 47-47zm57.44-107c25.957383 0 47 21.042617 47 47s-21.042617 47-47 47c-25.957384 0-47-21.042617-47-47s21.042616-47 47-47zm115.44 0c25.957383 0 47 21.042617 47 47s-21.042617 47-47 47c-25.957384 0-47-21.042617-47-47s21.042616-47 47-47zm-230.88 0c25.957383 0 47 21.042617 47 47s-21.042617 47-47 47c-25.957384 0-47-21.042617-47-47s21.042616-47 47-47zm173.44-107c25.957383 0 47 21.042617 47 47s-21.042617 47-47 47c-25.957384 0-47-21.042617-47-47s21.042616-47 47-47zm115 0c25.957383 0 47 21.042617 47 47s-21.042617 47-47 47c-25.957384 0-47-21.042617-47-47s21.042616-47 47-47zm-230.44 0c25.957383 0 47 21.042617 47 47s-21.042617 47-47 47c-25.957384 0-47-21.042617-47-47s21.042616-47 47-47zm-115 0c25.957383 0 47 21.042617 47 47s-21.042617 47-47 47c-25.957384 0-47-21.042617-47-47s21.042616-47 47-47zm172.44-107c25.957383 0 47 21.042617 47 47s-21.042617 47-47 47c-25.957384 0-47-21.042617-47-47s21.042616-47 47-47zm-115 0c25.957383 0 47 21.042617 47 47s-21.042617 47-47 47c-25.957384 0-47-21.042617-47-47s21.042616-47 47-47zm230.44 0c25.957383 0 47 21.042617 47 47s-21.042617 47-47 47c-25.957384 0-47-21.042617-47-47s21.042616-47 47-47zm-57.44-107c25.957383 0 47 21.042617 47 47s-21.042617 47-47 47c-25.957384 0-47-21.042617-47-47s21.042616-47 47-47zm-115 0c25.957383 0 47 21.042617 47 47s-21.042617 47-47 47c-25.957384 0-47-21.042617-47-47s21.042616-47 47-47zm57-107c25.957383 0 47 21.042617 47 47s-21.042617 47-47 47c-25.957384 0-47-21.042617-47-47s21.042616-47 47-47z"/></svg>