<svg height="960" viewBox="0 0 960 960" width="960" xmlns="http://www.w3.org/2000/svg"><path d="m461.609476 6.04135419 63.975541.50030002.658403.00514882c157.078563 1.22838207 258.846962 32.84310627 325.127734 104.97353197l.140819.154052 1.791471 1.970267c67.124767 74.156381 95.696556 187.75304 95.696556 366.354762 0 178.601721-28.571789 292.19838-95.632733 366.284084-66.406712 73.715086-168.569634 105.928606-327.308192 107.16997-.246201.001908-.246201.001908-.475752.003623l-64.171586.501931c-168.942391 1.321159-277.72524-29.422095-348.598076-102.425865-72.0591806-74.436047-102.813661-189.855433-102.813661-371.533743 0-181.678311 30.7544804-297.097697 102.80722-371.527088 70.756239-73.1240014 179.390056-103.75580709 348.802256-102.43097381zm-233.630932 130.77799381c-58.987277 65.283383-85.347216 171.117665-85.347216 343.180626s26.359939 277.897244 85.347216 343.180627c57.457093 63.419734 149.318375 91.381161 297.456294 90.277929l.311439-.003837c148.582252-1.161939 240.386174-30.098255 297.901884-93.943842 58.990472-65.169984 85.351839-169.811582 85.351839-339.511435 0-169.699854-26.361367-274.341452-85.351839-339.511436l-1.73036-1.902908c-56.857579-61.8755821-147.198471-90.3053341-291.486928-91.9955744-.402729-.0054914-.805629-.0099568-1.208949-.0142144l1.208949.0142144c-1.49429-.0175046-2.994366-.0321413-4.500251-.0439176l-.396622-.0033254-3.925644-.0222951c-145.970151-.5772686-236.692343 27.2459989-293.629812 90.2993885zm86.816314-81.0610955-3.130506.5322202c-75.996489 13.1409623-130.626812 39.1911244-170.111293 79.9969013-63.2764124 65.363578-91.553059 171.36393-91.553059 343.712042 0 172.348111 28.2766466 278.348463 91.553059 343.712042 40.070889 41.275669 95.740842 67.531025 173.457284 80.524109-41.651735-15.713762-75.048068-38.039577-101.871405-67.646532-63.06732-69.798917-90.50761-180.097127-90.50761-356.589061 0-176.491933 27.44029-286.790143 90.503526-356.584539 26.757179-29.6312919 60.068405-51.9521575 101.660004-67.6571825z"/></svg>