<svg height="960" viewBox="0 0 960 960" width="960" xmlns="http://www.w3.org/2000/svg"><path d="m480 1c165.254815 0 299 135.561455 299 302.517241 0 63.068132-19.1628 123.335441-54.280558 173.854884l-.324442.462875-.227075.371657c-3.649186 5.933403-6.684004 10.838128-9.164681 14.809986l-.584754.935383c-.191392.305857-.379268.605793-.56366.899857l-.264928.422282c-24.355374 38.800483-31.70275 50.916829-37.485298 62.619295l-.355823.723567-.176669.361819c-9.889144 20.300354-15.37659 38.375343-16.788577 54.132896-.036847.411204-.080058.821814-.129617 1.23168-3.590476 29.694028-8.070386 51.358671-14.331281 66.555027-5.236765 12.710602-13.483844 27.511921-24.828819 44.893178l-.579818.884373-.116191.368437c-.189327.579603-.391794 1.154531-.607205 1.724347l-.087604.224216-.003443.017324c-.527132 2.344862-1.197369 5.964845-2.161428 11.674533l-.014129.079143-.051293.362488c-.890882 6.197285-1.641736 13.23933-2.657954 24.464403l-.060753.663109-.008349.170785c-.720603 13.995182-1.158298 23.785615-1.43864 33.046028l-.013639.443023c-.324156 12.662695-.324156 24.613418-.003478 35.748395.011051.383731.016578.767601.016578 1.151491v3.960784c0 9.1593-3.143398 18.041164-8.904917 25.161394l-24.449555 30.2141-.049738.081684c-1.412927 2.233903-3.086835 4.388395-5.034653 6.432249l-.743296.761197-9.276908 9.272629-24.040561 24.259805c-.772496.779541-1.576253 1.526462-2.409123 2.239l-.562721.470436-.261697.245796c-13.169085 12.223054-28.765122 17.672664-54.62154 19.001297l-.819939.04059c-.63405.030207-1.268729.045317-1.903498.045317h-.343058c-.644409 0-1.288725-.015572-1.932382-.046704-25.159322-1.216856-41.141733-6.352181-54.325912-18.344274-.060507-.055036-.120845-.110258-.181014-.165664l-.280239-.258059-.172568-.159851c-.120755-.112518-.23982-.224182-.358299-.336021l-.081854-.077427-.496105-.415713c-.6247-.534457-1.233022-1.088257-1.824059-1.660657l-.58524-.578572-24.039706-24.259805-9.276406-9.272123c-2.268561-2.267669-4.188406-4.680305-5.777949-7.193446l-.183535-.297684-21.386-26.759-.118947-.116223c-7.093804-7.093804-11.535538-16.83968-11.71037-27.622798l-.005358-.661473v-3.960784c0-.382931.005498-.765842.016494-1.148614.319931-11.136844.319931-23.089374-.00346-35.753829l-.003159-.132291c-.109745-4.937855-.309289-10.324246-.608271-16.738355l-.018732-.400594-.037847-.801784c-.13997-2.946632-.294964-6.006518-.527004-10.463801-.03524-.676937-.076506-1.468017-.153075-2.935729-.0412-.790207-.075342-1.44621-.106758-2.051746l-.005513-.106979-.061825-.690508c-1.035253-11.445023-1.796974-18.554445-2.71293-24.849107l-.035245-.238385-.048894-.308495c-.657556-4.141364-1.262048-7.462565-1.794656-9.938599l-.04045-.184906-.023028-.057131c-.936663-2.315166-1.662878-4.738-2.154928-7.244785l-.006044-.031084-.12656-.292429c-.452974-1.073621-.854853-2.152978-1.207061-3.235773l-.038379-.121798-.351551-.558911c-8.778331-13.972004-15.38738-26.178921-19.878316-36.916008l-.296258-.713632c-6.260895-15.196356-10.740806-36.860999-14.331282-66.555027-.049559-.409866-.09277-.820476-.129617-1.23168-1.411986-15.757553-6.899433-33.832542-16.788577-54.132896-.117537-.241279-.235535-.482387-.354132-.723557l-.357717-.723921c-5.75649-11.593032-13.201653-23.856725-37.30594-62.257203-.351827-.560495-.716223-1.142227-1.093208-1.745225l-.869469-1.392651c-3.160654-5.069107-7.124738-11.495387-11.902636-19.294983l-.071297-.116306-.62798-.939431c-4.579542-6.904343-8.878575-14.006603-12.8858-21.28826l-.13222-.244309-.218481-.363513-.276324-.477299c-1.998407-3.507385-3.825173-7.019731-5.478083-10.53791l-.521112-1.125278-.172177-.350669c-19.965818-40.873778-30.593896-85.939101-30.809823-132.456633v-1.424457c0-166.955786 133.745185-302.517241 299-302.517241zm-51.611297 889.570054 18.07176 18.231916.598853.396079c.130918.130676.261835.261354.39324.391945l.263605.261041c.308638.304353.621711.607913.945442.90956l.280239.258059c.082823.075335.166428.150528.250912.225564l.256191.224615c4.058084 3.510977 10.276288 6.633492 28.836323 7.531167h.343058c21.699897-1.033814 26.721798-5.018467 30.910533-9.148965l.263592-.261041c.131389-.130591.262281-.261269.393173-.391945l.598854-.396079 17.993034-18.15106c-13.654783 3.430884-30.278275 5.146326-49.870477 5.146326-19.745512 0-36.58829-1.742394-50.528332-5.227182zm-47.997522-158.854208.077987.471659c.125991.770756.250887 1.551102.374876 2.339947.251058 1.704569.488986 3.447076.716357 5.226038 24.968994 3.92666 60.952743 5.912225 107.807024 5.912225 5.522848 0 10 4.477152 10 10 0 5.522847-4.477152 10-10 10-44.67343 0-79.849231-1.778895-105.644678-5.373821.096114 1.041245.190959 2.091236.285812 3.149285.076711 1.484029.154825 2.979414.233266 4.48325 24.778264 4.12325 59.867941 6.20919 105.1256 6.20919 5.522848 0 10 4.477152 10 10 0 5.522847-4.477152 10-10 10-43.774225 0-78.451856-1.919842-104.153012-5.803019.120865 3.01086.221703 6.002452.296647 8.953759 24.756547 3.531003 59.417037 5.317164 103.856365 5.317164 5.522848 0 10 4.477152 10 10 0 5.522847-4.477152 10-10 10-43.483553 0-77.968679-1.685396-103.563528-5.090433.003413 2.005687-.002566 3.991622-.017068 5.958685 31.157898 6.843994 62.246752 10.266401 93.265964 10.266401 32.323397 0 63.127076-3.716243 92.411038-11.14873-.047735-7.625392.033612-15.531823.242641-23.697246.343057-11.586285.941056-23.863726 1.539909-35.449021.941912-10.497069 1.882113-20.200991 3.165371-28.913727.119258-.708669.237785-1.41048.355923-2.10464-7.131655 1.679826-15.040627 2.809886-23.749422 3.435893-10.442321.750616-27.011473 1.122372-49.976649 1.140601h-3.622349c-6.06506 0-12.555229-.033154-19.471092-.084836l-.670207.005698c-6.116904.044368-11.897735.070249-17.355238.079138h-4.98046c-22.949038-.018229-39.51819-.389985-49.960511-1.140601-9.88216-.71035-18.734452-2.069731-26.590566-4.142859zm99.608819-690.715846c-141.393711 0-256.324405 114.840288-258.953958 257.517051-.030753 1.657245-.046042 3.318288-.046042 4.982949 0 40.123293 8.881986 78.144053 24.761913 112.152776l-.014293-.006011c.82665 1.771078 1.672275 3.531279 2.536609 5.280333l-.015498-.00646c1.30343 2.850495 2.790447 5.746971 4.466976 8.68943l.052189.018639c4.00932 7.405273 8.360775 14.593264 13.037338 21.539275 5.981778 9.768545 10.685782 17.381976 14.112011 22.840292 17.487219 27.858844 31.939476 50.702505 40.099287 67.452901 11.901413 24.431123 18.791019 47.124654 20.668817 68.080592 3.189297 26.376193 7.057493 45.082612 11.604589 56.119258 4.417902 10.723071 12.205036 24.502716 23.361402 41.338934l-.573081-.000336c.539954.818783 1.087985 1.644893 1.644091 2.478329 8.151834 3.356289 18.709614 5.500364 31.67334 6.432224 9.852431.708214 26.033248 1.071257 48.542449 1.08913h3.606674c5.793837 0 11.983198-.03085 18.568083-.078611l.784104-.007695-.092901-.000026c-15.568832-.11755-10.21778-.182625-2.624115-.195227l.492839-.00074.124052-.000162.624437-.000675.251401-.000206h2.614574l.125799.000098.625686.00063c.082999.000099.165808.000204.248405.000315l.492839.00074c7.593665.012602 12.944717.077677-2.624115.195227l-.115901.000026 1.252094.010894c5.925151.042215 11.528319.066868 16.809504.075412h4.920263c22.509201-.017873 38.690018-.380916 48.542449-1.08913 12.268471-.881884 22.382142-2.849444 30.341012-5.902683.14141-.423158.290101-.846275.442657-1.270873.208805-.083159.416075-.16709.621812-.251795 11.685427-17.512554 19.801688-31.787154 24.348783-42.8238s8.415291-29.743065 11.604589-56.119258c1.877798-20.955938 8.767403-43.649469 20.668816-68.080592 8.159812-16.750396 22.612068-39.594057 40.099288-67.452901 2.856042-4.549954 6.599958-10.597408 11.235464-18.140201 8.888577-12.621117 16.702103-26.073573 23.305031-40.219982l-.013675.004685c13.94605-29.867098 22.49481-62.828552 24.370138-97.590975.011698-.198914.022202-.397994.032486-.597132l-.032486.597132c.094065-1.743644.171339-3.491818.231663-5.244361.005004-.127799.00931-.255804.013526-.383831l-.013526.383831c.014397-.41828.027829-.83681.040293-1.255586l-.026767.871755c.021026-.638551.039802-1.27768.056321-1.917378l-.029554 1.045623c.016535-.555545.031367-1.111523.044491-1.667931.00597-.236171.011208-.472022.016139-.70795l-.016139.70795c.018585-.787987.033745-1.576835.045463-2.366527.001805-.104592.003297-.209672.004727-.314766l-.004727.314766c.004553-.306751.008585-.613629.012098-.920633l-.007371.605867c.008181-.600984.01437-1.202456.018559-1.804409l-.011188 1.198542c.006347-.554609.010996-1.109631.013943-1.665061l-.002755.466519c.004384-.629802.006579-1.260131.006579-1.89098 0-143.534426-113.650681-260.1638364-254.716961-262.4820712zm96.914061 79.210969c2.415105 7.345127-1.581467 15.257357-8.926594 17.672462l-113.222603 37.227472 104.924263.000624c9.652942 0 18.675522 4.753618 24.136033 12.689139l.265665.39283c6.06353 9.123693 3.582778 21.435369-5.540915 27.498899-1.843691 1.225302-3.879489 2.133329-6.022998 2.686439l-95.849048 24.732069 84.921118 1.617976c7.75572.14771 15.141103 3.314149 20.592476 8.814572l.345319.354254c6.794674 7.087131 6.557592 18.340557-.529538 25.135231-2.262649 2.169279-5.058643 3.701731-8.104519 4.441994l-83.054856 20.184973 68.050711.000644c10.385769 0 20.003441 5.427986 25.376067 14.289504l.241275.405154c5.885445 10.063272 2.498648 22.992263-7.564624 28.877708-1.416514.82844-2.9248 1.488877-4.494301 1.967929l-60.875128 18.580061 68.899404-3.308535c6.800913-.326599 13.494706 1.746633 18.915967 5.848146l.40419.311411c7.52384 5.902736 8.838004 16.787126 2.935268 24.310966-1.790882 2.282723-4.126664 4.078833-6.792779 5.223339-44.709161 19.192704-76.918307 36.365934-96.38024 51.235098-20.135506 15.383782-41.564679 38.531411-64.132015 69.438388-4.559559 6.24452-13.317996 7.610451-19.562516 3.050892-6.244521-4.559559-7.610452-13.317996-3.050892-19.562517 24.03596-32.918323 47.232976-57.975564 69.746554-75.176223 14.077728-10.755562 33.382149-22.185634 57.981164-34.368382l.807895-.400583-140.50388 6.748142c-16.298743.782713-20.440512-22.097693-5.225564-27.224167l.466991-.149871 137.919453-42.097104-160.048862.000644c-16.398634 0-19.343886-23.220643-3.78348-27.480741l.477197-.123247 133.391145-32.419656-130.351446-2.481613c-16.123885-.307083-18.948727-23.022181-3.699038-27.425636l.467649-.127791 149.165835-38.49096-152.265.000624c-15.755393 0-19.418443-21.884244-4.82088-27.145232l.447946-.154296 196.249669-64.527624c7.345126-2.415105 15.257357 1.581468 17.672462 8.926594z"/></svg>