<svg height="960" viewBox="0 0 960 960" width="960" xmlns="http://www.w3.org/2000/svg"><path d="m538.729908 3.13714946c17.959971-3.16120588 35.770612-2.83132102 50.635004 1.09166115 8.687878 2.29288814 16.47985 5.81819109 23.019537 10.83497169 8.794213 6.7462917 15.012538 15.9915778 16.984021 27.1525754 1.972309 11.1656803-.705764 21.9863402-6.663797 31.3371009-4.430573 6.953506-10.549528 12.9311449-17.932645 18.0552374-12.62797 8.764169-29.254257 15.156022-47.215874 18.317524-15.329884 2.698274-30.544737 2.855718-43.931047.399316l-.138107-.026536-1.527057.515214c-.870492.290197-1.760836.582318-2.671261.876506l-1.486255.479384c-18.297582 6.010417-26.498524 16.383513-28.484842 36.276185l-.093585.996711v149.803l.131594.2332c2.635788 4.767209 3.981155 10.252588 3.716239 15.896622l-.005833.101178.34957.968228.425436 1.217055c.142443.413977.285626.836415.429878 1.267822l.217223.653901c1.001498 3.034026 1.511893 6.208558 1.511893 9.403602v60.500462c0 4.350963-.946175 8.633506-2.754304 12.556795l-.145696.306135.000345 1.314572c0 5.25066-1.37274 10.310209-3.868764 14.7363l-.006581.009128.001 445.588 1.977792.183857c5.84944.561849 11.291975 1.25099 16.196939 2.057671l.820993.136972c7.412744 1.254559 13.690271 2.7896 18.970494 4.805719 4.013944 1.532623 7.629502 3.380005 11.060095 5.970091 6.890385 5.202219 12.103528 12.543181 13.181763 22.828094.054346.51838.095172 1.038088.122438 1.558594l.032237.702663c.012171.348687.018258.697574.018258 1.0465v13.83807c0 6.520238-1.968496 12.526087-5.286246 17.578552-2.294658 3.49444-5.021679 6.254619-8.053678 8.54614-3.662252 2.767852-7.534084 4.693045-11.882617 6.283064-5.693522 2.081807-12.593333 3.661305-20.783747 4.927992-3.75829.581237-7.806944 1.095975-12.090619 1.54035l-1.993566.200086-2.025734.190009-2.05669.179847c-.690589.058247-1.386136.114785-2.086439.169602l-2.114979.159272-2.142308.148857-2.168429.138358-2.19334.127774c-.735132.040819-1.474213.079859-2.217044.117107l-2.239537.106355-2.260821.095517-2.280896.084597-2.299763.073591-2.317419.0625-2.333868.051327-2.349106.040067-1.179889.015785-2.369697.023021c-.396001.002884-.792511.012999-1.189505.012999h-4.797911l-2.398521-.023524c-1.594796-.015645-3.18088-.039053-4.75659-.07011l-2.355577-.052308-2.338771-.063694c-.776651-.02312-1.550294-.048122-2.320719-.074994l-2.301422-.086206c-.381892-.015297-.762929-.031058-1.143084-.04728l-2.270138-.102863-2.247725-.113858c-.745368-.039776-1.486793-.08137-2.224067-.124767l-2.199162-.13559-2.173011-.146324c-.359921-.025278-.718699-.050999-1.076311-.077162l-2.13145-.162265-2.102185-.172784-2.071673-.183216-2.039917-.193561-2.006915-.203819c-3.979995-.417839-7.754498-.896707-11.278657-1.43348-8.100753-1.233847-14.956297-2.771161-20.618924-4.775662-4.194324-1.48474-7.945179-3.268427-11.497534-5.773844-2.866773-2.021888-5.488679-4.43901-7.795831-7.491842-3.401674-4.501109-5.728611-9.918375-6.372044-16.055859-.054345-.51838-.095172-1.038088-.122438-1.558595l-.032237-.702662c-.012171-.348688-.018258-.697574-.018258-1.0465v-13.83807c0-.523389.013697-1.046689.041076-1.569361l.009419-.179802c.027266-.520506.068093-1.040214.122438-1.558594 1.086187-10.360761 6.354488-17.719517 13.308743-22.923539 3.446377-2.578999 7.078827-4.41773 11.115167-5.943817 5.32685-2.014011 11.675162-3.549126 19.172945-4.801188 5.798722-.968334 12.364748-1.770566 19.476948-2.390304l.125264-.011556-.001-448.557-.054335-.128453c-1.452068-3.477381-2.248637-7.227-2.312497-11.059613l-.004168-.500362v-89.672146c0-4.010831.800217-7.903141 2.28483-11.484455l.08517-.202971.002173-155.168733c.000012-1.656845.134337-3.28232.392681-4.866128l.040146-.236139.061042-.590953c4.625332-42.6470297 26.625281-74.5979816 63.420189-93.1137948l1.041769-.5182522.041727-.1051883c1.054914-2.6545616 2.363611-5.2291964 3.901118-7.7034042l.310545-.4934965c4.430572-6.9535061 10.549527-12.9311449 17.932644-18.0552374 12.62797-8.7641686 29.254257-15.15602162 47.215874-18.31752414zm-27.688255 915.37550354-.42791.086557c-1.331808.269311-2.734161.52903-4.204905.779189l-1.421316.235358c-.480619.07749-.968062.154018-1.462259.229585l-1.502787.223817-1.542903.218057c-.26047.035864-.522595.071487-.786365.106871-.566551.076001-1.140077.150802-1.72039.224392l-1.761112.217118c-.890548.106728-1.795941.210698-2.715544.311866l-1.857962.198586-1.89472.191033-1.930346.1834-1.96484.175688-1.998201.167896-2.030431.160024-2.061527.152072-2.091492.14404-2.120324.135929c-.355728.021975-.712609.043608-1.070621.064898l-2.161449.123612c-.36244.019912-.725963.039477-1.090546.058695l-2.200028.111116-2.22433.102685-2.247501.094175c-.376451.014982-.753821.029606-1.132085.043871l-2.280134.081259-2.300474.07255-2.319682.063759c-.388151.00989-.777056.01941-1.16669.028559l-2.34637.050426-2.362747.041436-2.377991.032367c-.397539.004634-.795667.008887-1.194359.012757l-2.398735.018614-2.411149.009345h-2.419752l-2.411149-.009345-2.398735-.018614-2.38519-.027802c-.396339-.005395-.792068-.01117-1.18716-.017322l-2.362747-.041436-2.34637-.050426-2.328861-.059335-2.310219-.068164c-.383421-.012093-.766017-.024549-1.147766-.037369l-2.280134-.081259-2.258661-.08989c-.374592-.015696-.748241-.031749-1.120925-.048156l-2.22433-.102685-2.200028-.111116-2.174591-.119467c-.36025-.020603-.719392-.04155-1.077404-.06284l-2.134316-.131843-2.10605-.139995-2.076651-.148066-2.04612-.156058-2.014458-.16397-1.981662-.171802c-.327481-.029282-.653549-.058887-.978179-.088813l-1.930346-.1834-1.89472-.191033-1.857962-.198586c-.919603-.101168-1.824996-.205138-2.715544-.311866l-1.761112-.217118c-.580313-.07359-1.153839-.148391-1.72039-.224392l-.786365-.106871-1.542903-.218057-1.502787-.223817c-.247099-.037783-.492509-.075807-.736221-.114071l-1.44184-.232471c-.236889-.039226-.472063-.078693-.705514-.118401l-1.379962-.241138c-.910078-.163402-1.792066-.330695-2.645404-.50189 2.026011 2.256113 8.527057 4.291 18.072951 5.883034l1.47693.238972c.50003.078497 1.007717.155824 1.522875.231953l1.567694.224759 1.611391.217393c2.721442.356085 5.620272.680751 8.673082.970376l1.849977.169542 1.885808.160958c.317225.026102.635896.051838.95599.077207l1.93745.147757 1.970472.13874 2.002371.129548c.336325.020816.673931.041241 1.012797.061273l2.048113.115435 2.077204.10581 2.10517.096009 2.132014.086036 2.157733.075889c.361703.011793.724431.023156 1.08816.034085l2.194206.060342 2.217117.049761c.742732.014804 1.489095.027815 2.238903.039005l2.259567.028076c.756508.007518 1.516272.013185 2.279107.022667h4.618161l2.301836-.023125 2.281877-.02864 2.260759-.039787c.374969-.007549.74901-.015556 1.122098-.024016l2.226912-.056169c.369182-.010258.737365-.020962 1.104523-.032107l2.190458-.072149c.362962-.012899.724852-.026232 1.085645-.039997l2.151399-.087725 2.123913-.097887 2.095268-.107867c.34676-.0188.692278-.038009 1.03653-.057622l2.05013-.122504 2.018591-.132039 1.985893-.141393 1.952038-.15057 1.917024-.159566c.316522-.027334.631537-.055035.94502-.0831l1.862333-.172726c.614524-.05901 1.22273-.119444 1.824425-.181274l1.785359-.189644c1.471199-.161474 2.900498-.331481 4.284882-.509553l1.639508-.217529c.269593-.03689.537342-.074095.803222-.111612l1.572657-.228807c.516615-.077495 1.025561-.156206 1.526644-.236102l1.479472-.243219c9.505353-1.611225 15.918841-3.66625 17.789094-5.940616zm-61.815901-491.368449c-2.514417.460951-5.078755.694425-7.679983.694425-2.458924 0-4.857945-.209803-7.173967-.639937l.000295 465.269876c-.70391.010654-1.404776.022913-2.102441.036754l-2.083243.046243-2.063115.055588-2.042055.06479-2.020065.073847-1.997144.082761-1.973292.09153-1.948511.100155-1.922797.108638-1.896154.116975c-.313753.020182-.626358.040706-.937794.061569l-1.854443.129211-1.825473.13719-1.795572.145023c-.296718.024816-.592152.049952-.886282.075405l-1.748974.156504-1.716747.163979c-.283387.027944-.565393.056194-.845997.084747l-1.666661.17492c-.549846.0595-1.093932.120186-1.632105.182034l-1.59662.189004c-.263095.032073-.524672.064431-.784712.097071l-1.541647.19919c-.253816.033753-.506057.067782-.756702.102083l-1.48458.209051c-.488377.070758-.970219.142581-1.445372.215446l-1.405232.221697-1.364164.227803c-.223886.038468-.446022.077185-.666389.116147l-1.300814.236693c-4.44873.83319-8.110248 1.770627-10.80842 2.785072.060303.011225.12096.022921.181835.034607l1.027294.192331 1.066507.190098 1.105005.18767 1.14279.185047 1.179858.18223 1.216213.179219c.205692.029608.412869.059083.621516.088419l1.269406.174337 1.587185.207006 1.627142.200587c.548919.065783 1.104317.130483 1.666011.194085l1.703792.1875c.287054.030696.575636.061115.865725.091254l1.758425.177464 1.793489.170669 1.827465.163791 1.860354.156828 1.892155.149782 1.922868.142652 1.952495.135438 1.981035.128141c.33249.020745.666124.041181 1.000879.061308l2.021805.117039 2.047625.109531 2.072359.101941 2.096006.094267c.351244.015067.703428.029811 1.05653.04423l2.129436.082598c.35668.013112.714232.025896 1.072634.038349l2.16042.070742 1.087514.032373 2.188958.058697c.366328.009107.733393.017876 1.101171.026303l2.215049.046464 2.231084.038204 2.246031.02986 2.259891.021432 2.272665.01292 2.28435.004326 2.28435-.004326 2.272665-.01292 2.259891-.021432 2.246031-.02986 2.231084-.038204 2.215049-.046464 2.197926-.05464c.364834-.009783.728909-.019904 1.092203-.03036l2.170204-.066748c.360078-.011791.719329-.023914 1.07773-.036367l2.140036-.078668c.354914-.013767.708933-.027861 1.062034-.042279l2.107421-.090399 2.084318-.098114 2.060128-.105747c.341278-.018256.681504-.036826 1.020653-.055709l2.021805-.117039 1.994896-.124461 1.966901-.1318c.325423-.022574.649635-.04545.972612-.068626l1.922868-.142652 1.892155-.149782 1.860354-.156828 1.827465-.163791 1.793489-.170669 1.758425-.177464 1.722276-.184176c.851918-.093751 1.689873-.189988 2.513252-.288663l1.627142-.200587 1.587185-.207006 1.269406-.174337 1.234122-.17764 1.198125-.180748 1.161413-.183663 1.123987-.186383 1.085845-.188908c.177757-.031685.353894-.063466.528397-.095341l1.027294-.192331c.167909-.032231.334153-.064547.498719-.096943l.012741-.002587c-1.453485-.536524-3.177139-1.051203-5.14465-1.539967l-1.079512-.259874c-.183773-.04289-.369461-.085567-.557044-.128027l-1.148094-.252144c-.780361-.166335-1.590449-.329118-2.429057-.488161l-1.279153-.235738-1.321029-.229989-1.362002-.224101c-.230364-.036851-.462398-.073452-.696082-.109798l-1.421763-.215006c-.480423-.070636-.967297-.140233-1.460473-.208767l-1.498278-.202389-1.53518-.195872-1.571175-.189213c-.264812-.030973-.531087-.061662-.798804-.092066l-1.623474-.178964-1.657207-.171956-1.690038-.164808-1.721963-.157521-1.752983-.150093-1.783099-.142526-1.81231-.134818-1.840616-.126971c-.309078-.0205-.619298-.040668-.93064-.060499l-1.88138-.114938-1.907424-.106741c-.320024-.017099-.641095-.033851-.963196-.050253l-1.944794-.094183-1.968578-.085636-1.991456-.076949c-.333765-.012093-.668447-.023819-1.004024-.035174l-2.024077-.063657-2.044694-.05462-2.064405-.045444-1.039312-.019237zm-7.679983-114.498369c-3.834547 0-7.024824.665824-9.570834 1.997471l.025065-.013652v89.035918c.593728.606507 1.259333 1.130275 1.996813 1.571303l.37473.213619-.000441.829005c1.934023 1.03942 4.325578 1.55913 7.174667 1.55913 2.648258 0 5.208318-.449024 7.680182-1.347072l-.000455-.924816c1.317165-.501904 2.608782-1.135627 3.874849-1.901169v-7.457402c0-.929957.413215-2.209512 1.239645-3.838667l.308839-.589511.343155-.618545c.120104-.21102.245927-.426878.37747-.647576l.411785-.676609.218761-.349192v-60.500462l-.441281-1.313149-.283676-.81725c-.046579-.13233-.092807-.26272-.138685-.391171l-.271064-.747431-.262655-.700884-.254246-.654339-.245837-.607792-.237429-.561247-.093127-.210691-.158993-.322666c-.035914-.07041-.071473-.138877-.106676-.205401l-.104541-.193742c-.096391-.175048-.181069-.366319-.254036-.573814l-.047409-.091496c-.743319-1.368001-.779372-3.728835-.10816-7.082503-3.924949-1.246307-7.740538-1.868197-11.446416-1.868197zm10.832286 14.87849c1.932997 0 3.5 1.567004 3.5 3.5v56.259748c0 1.932997-1.567003 3.5-3.5 3.5h-1.895902c-1.932996 0-3.5-1.567003-3.5-3.5v-56.259748c0-1.932996 1.567004-3.5 3.5-3.5zm147.447767-280.0895436c-2.32658-13.1712829-27.35182-19.775895-55.895438-14.7518192-28.543616 5.0240863-49.796723 19.7743431-47.470143 32.945626.185425 1.0497332.515029 2.0577557.978176 3.020846-38.251154 12.820524-59.51319 38.9832078-62.988594 78.4880528h-.07765l-.001941 146.033282c2.318783-.354753 4.712977-.524934 7.175537-.524934 2.555058 0 5.115969.184004 7.678882.547049l-.000478-145.984141.087136-.071256c2.779386-32.561502 18.907468-53.8031824 49.918323-63.7250423l1.612984-.5210841c.264232-.0862118.526166-.1721058.785801-.2576819l1.530214-.5096415c.751309-.2529127 1.48192-.5029632 2.191827-.7501492l1.392206-.4905524 1.336983-.4829104 1.281748-.4752649c.209021-.0785735.41574-.1568283.620157-.2347643l1.198875-.4637899.578715-.2290247c10.372115 3.3972134 24.956135 4.1357551 40.596536 1.382826 28.543616-5.0240863 49.796724-19.7743431 47.470144-32.945626zm-53.754859-.6470616c22.041739-3.8865533 41.101207-.2821156 42.570514 8.0507369 1.469306 8.3328524-15.207945 18.2386379-37.249684 22.1251911-22.041738 3.8865533-41.101206.2821156-42.570513-8.0507368-1.469307-8.3328525 15.207944-18.238638 37.249683-22.1251912z"/></svg>