<svg height="960" viewBox="0 0 960 960" width="960" xmlns="http://www.w3.org/2000/svg"><path d="m278.272389 2.02133457c3.151863-.21155419 6.286286-.03757908 9.342313.48899982l.703817.12776246.697481.13990315 488.60093 56.7756901c19.768152 2.2970571 34.775608 18.7533236 35.369495 38.5243514l.013575.6001255v786.566546c0 20.962904-16.173586 38.330366-37.007001 39.887956l-.63273.042348-149.717397 8.849753c-4.650163.27487-9.312599-.264642-13.777104-1.594212-21.488594-6.399498-43.839859-8.831101-67.278194-7.273841-22.430374 1.490291-43.778313 6.830485-64.264947 16.077885l-1.1166.508279-1.116632.516622c-4.240038 1.961012-8.78915 3.163364-13.440706 3.554343l-.698476.052555-177.371213 11.783599-.218534.03349c-2.137613.296059-4.31139.419177-6.501675.357696l-.822092-.031732-.686699-.041454-.499561-.021065c-8.129861-.425061-15.654053-3.300739-21.816751-7.91955l-.517688-.395385-34.805689-19.159723c-12.487627-6.874202-20.351211-19.858931-20.698324-34.060247l-.008986-.490175-.003001-.491095v-77.35276l-29.138424-12.848044c-14.20824-6.26501-23.479371-20.170139-23.852807-35.636225l-.008769-.483816v-571.41696c0-14.107711 7.430205-27.159007 19.530286-34.365562l.423986-.249013 33.045728-19.13738v-75.2127934c0-13.1755367 6.486069-25.4821476 17.298622-32.9340363l.429053-.2916229.427932-.2828846 34.779393-22.6736628.469105-.4233893c6.410596-5.70650652 14.642448-9.36704355 23.617514-10.0219729l.586373-.03844166.393008-.02019614zm12.106611 41.18424203v874.1050004l170.919333-11.356173 1.220779-.564609c25.249174-11.58996 51.7214-18.304987 79.416679-20.145082 27.680632-1.839121 54.368268.984721 80.062907 8.471528l1.283905.378226 149.717397-8.849754v-785.9583669zm-20 5.718-30 19.557.001008 96.1819874c.187231.768325.287542 1.580485.287542 2.429498v625.423256c0 .843287-.1004 1.652634-.288059 2.420142l-.000491 100.704117 30 16.514zm-50 137.5450004-23.710901 16.551423v560.1l23.710901 12.601577v-41.036l-11.24514-3.433872v-496.785395l11.24514-5.687733z"/></svg>