<svg height="960" viewBox="0 0 960 960" width="960" xmlns="http://www.w3.org/2000/svg"><path d="m500.5 3.10117956c91.48899 0 179.817704 10.17994724 264.954917 30.54884754 24.133006 5.7737645 41.359454 26.6897829 41.359454 51.0356303v838.4583796c0 15.101176-11.975151 27.481834-27.067953 27.984513l-10.68643.352929-20.944087.673624-17.016741.528523-16.619819.498674-16.222943.468825-15.826109.438974-15.42932.409121-12.057798.305803-8.876729.216813-11.613498.272364-11.359644.253256-11.105813.234147-8.162795.163069-10.661662.200704-7.829708.137987-7.686973.127235-10.02728.152925-9.773568.133812-7.16369.087815-7.020999.077064-6.878317.066311-6.735645.055559-4.411173.031066-6.49788.037637-8.441946.033456-4.125883.014937h-12.139936l-6.212596-.021508-8.505343-.038236-6.545431-.041222-6.68809-.051975-6.830758-.062727-6.973438-.07348-4.728228-.054959-7.211256-.091399-9.836994-.13859-10.090711-.157703-7.734551-.130819-10.534773-.191149-10.788555-.210259-13.842606-.289698-11.359644-.253256-11.613498-.272364-11.867375-.291472-15.191267-.39121-15.58803-.421062-15.984836-.450915-16.381687-.480765-13.391112-.406103-13.645147-.425206-13.899205-.444307-17.73131-.582246c-15.092797-.502673-27.067962-12.883319-27.067962-27.984483v-838.4584086c0-24.3458431 17.226444-45.2618587 41.359444-51.0356289 85.137219-20.3689023 173.465936-30.54884994 264.954927-30.54884994zm-220.775371 909.85900044 5.437161.1645 15.419315.44873 12.077334.339642 14.773985.400377 11.561019.300963 11.331516.283772 8.348012.201549 13.626428.314428 10.642886.232206 7.831502.162874 10.241105.202128 10.011489.184942 9.781854.167755 9.552199.15057 9.322525.133386 9.092832.116202 6.668875.075874 8.690821.086131 6.367346.053323 6.238104.043658 6.108856.033993 5.979599.024329 5.850333.019668h11.599952l3.926457-.013706 5.999688-.021381 8.204909-.04386 6.307664-.044408 8.615513-.074564 8.850117-.09211 4.513028-.052635 9.201984-.11843 9.436538-.135978 4.80622-.074569 9.788329-.162301 10.022834-.17985 10.257316-.1974 10.49178-.21495 10.726223-.232502 13.737434-.31531 11.253647-.271994 14.39665-.364678 11.78097-.31149 12.015302-.329045 12.249616-.346601 12.483908-.364157 7.843825-.237081v-268.94h-443.465zm-19.999757-657.12489c0-5.134256 3.888153-9.434295 8.996491-9.949522 1.08271-.109202 2.162826-.217858 3.240348-.325969l6.434001-.642118 6.371749-.629024 6.309502-.615929 6.24726-.602834 6.185024-.589737 6.122792-.576642 6.060567-.563545 5.998347-.550448 5.936132-.537351 5.873923-.524253 5.811718-.511154 5.749521-.498056 5.687327-.484957 8.41439-.702874 8.274487-.673398 5.438609-.432557 5.376443-.419455 5.314282-.406354 5.252127-.393252 5.189977-.380149 5.127833-.367047 5.065694-.353943 5.003561-.34084 4.941432-.327736 4.87931-.314631 4.817192-.301527 4.75508-.288421c.787338-.046978 1.572088-.09341 2.35425-.139296l4.661923-.268762 4.599825-.255656c.761463-.041518 1.520338-.082489 2.276627-.122913l4.506687-.235996c.745941-.038241 1.489294-.075935 2.230061-.113083l4.413562-.216335c.730421-.034963 1.458255-.069381 2.183502-.103252l4.320449-.196672 4.25838-.183564 4.196318-.170455c.694214-.027317 1.385843-.054087 2.074886-.080312l4.103233-.15079 4.041183-.137681c.66836-.021854 1.334135-.043162 1.997325-.063924l3.948118-.118014 3.886083-.104904 3.824052-.091792 3.762027-.07868 3.700007-.065568 3.637993-.052455 3.575983-.039342c2.954151-.027321 5.843715-.040982 8.668705-.040982h1.701702c4.550895.010399 9.205982.054187 13.965294.132998l3.589028.065675c.601428.01204 1.204485.024628 1.809171.037762l3.64766.085375c.611201.015324 1.224031.031194 1.83849.047612l3.706301.105074 3.745397.118204c.627492.020795 1.256612.042138 1.887362.064027l3.80405.137901 3.843155.151031 3.882264.164161c.650303.028454 1.302236.057455 1.955799.087003l3.940933.183854 3.980049.196982 4.019169.210109c.673121.036112 1.347873.072771 2.024255.109977l4.077855.2298c.682903.039394 1.367436.079334 2.0536.119822l4.136547.249488c.692685.042675 1.387001.085897 2.082948.129666l4.195247.269176 4.234385.2823 4.273524.295423 4.312669.308547 4.351815.321669c.728565.054705 1.458761.109957 2.190589.165755l4.410541.341352 4.449696.354473 4.488854.367593c.751406.062359 1.504444.125265 2.259113.188717l4.547597.387273 4.586763.400392 4.625932.413511c.774253.070011 1.550138.140569 2.327655.211674l4.684692.433187 4.723869.446304 4.763049.45942 4.802232.472537 4.841419.485651c.810169.082035 1.621971.164616 2.435406.247744l4.900205.505323 4.939399.518437 4.978598.53155c.833033.089685 1.667699.179915 2.503999.270693l5.0374.551218 5.076605.564331c1.698737.190295 3.404008.382776 5.115815.577442l5.155027.590552c.862439.099518 1.726512.199582 2.592219.300192l5.213851.610218 5.253071.623326 5.292294.636435 5.331521.649542c5.014656.614841 8.783025 4.873465 8.783025 9.925673l-.000646 656.45289 4.390847-.136123 19.233895-.619057v-826.8473426c0-5.3868161-4.057684-10.408082-10.328649-12.0488596l-.338052-.0846477c-82.05287-19.630978-167.258353-29.4509705-255.64767-29.4509705-88.389319 0-173.594803 9.8199928-255.647675 29.4509716-6.462801 1.5462117-10.667325 6.6504994-10.667325 12.1335072v826.8473416l5.895798.192318 16.422919.523951 3.220912.099911zm257.77031-6.33262h-3.302138l-3.300351.012251c-2.219831.01225-4.478856.032669-6.77707.061255l-3.476709.049005-3.535487.061257-3.594258.073511-3.653024.085763-3.711787.098016-3.770543.11027c-.633321.0194-1.269089.03931-1.907304.059731l-3.85867.128651-3.917414.140907-3.976153.153161-4.034888.165417c-.677376.028591-1.357199.057692-2.039468.087304l-4.122981.183801c-.692057.031655-1.386561.06382-2.083512.096496l-4.211062.202186c-.706737.034719-1.41592.069949-2.12755.105689l-4.299132.220571c-.721415.037783-1.445276.076077-2.171582.114882l-4.387192.238958-4.445892.251215c-.745874.042891-1.494193.086293-2.244957.130205l-4.533933.269604-4.592621.281862-4.651303.294122c-.780107.050042-1.562659.100595-2.347656.151659l-4.739318.312512c-.794776.053107-1.591996.106724-2.391661.160853l-4.827321.330903-4.885985.343163-4.944643.355425-5.003296.367687-5.061944.379949c-.848544.064346-1.699532.129204-2.552963.194572l-5.149907.398343-5.208543.410605-5.267173.422869-5.325799.435133-5.384421.447397-5.443036.459662-5.501648.471926-5.560253.484192-8.450256.749286-5.706747.514856-5.765336.527123-5.82392.539391-5.882499.551657-5.941073.563926-9.021425.868891-6.087486.594596-6.769892.668664v359.078h443.466v-359.267l-4.230183-.504463-4.931145-.581597c-.818902-.095953-1.636327-.191417-2.452273-.28639l-4.877942-.563965-4.84247-.55221-4.806995-.540456-7.14397-.788646-4.718296-.511073-4.68281-.49932c-.777512-.082241-1.553544-.163992-2.328098-.245254l-4.629579-.481693-4.594087-.469942-4.558593-.458191c-.756808-.075386-1.512136-.150283-2.265986-.22469l-4.505346-.440566-4.469846-.428817-4.434342-.417069-4.398836-.40532-4.363326-.393572-4.327814-.381825-4.2923-.370078-4.256783-.358332-4.221262-.346586c-.700584-.056785-1.399687-.113081-2.09731-.168888l-4.167977-.328968-4.132451-.317224-4.09692-.305479-4.061388-.293736-4.025853-.281993-3.990315-.27025-3.954774-.258509c-.656168-.042106-1.310854-.083723-1.964059-.12485l-3.901458-.240896-3.865911-.229156-3.830361-.217414-3.794808-.205675-3.759253-.193936-3.723694-.182197-3.688132-.170458-3.65257-.158721-3.617002-.146983-3.581433-.135247-3.545862-.12351c-.588012-.019607-1.174542-.038725-1.75959-.057354l-3.492498-.105907-3.456919-.094171-3.421338-.082437-3.385753-.070703c-1.68398-.032418-3.354615-.060435-5.011904-.084053l-3.29678-.04137c-.546498-.005917-1.091512-.011346-1.635043-.016285l-3.243389-.023772z"/></svg>