<svg height="960" viewBox="0 0 960 960" width="960" xmlns="http://www.w3.org/2000/svg"><path d="m757.5 480c105.210245 0 190.5 85.289755 190.5 190.5s-85.289755 190.5-190.5 190.5h-86.90087c-16.568543 0-30-13.431458-30-30s13.431457-30 30-30h86.90087c72.07316 0 130.5-58.42684 130.5-130.5s-58.42684-130.5-130.5-130.5h-715.5c-16.5685425 0-30-13.431458-30-30s13.4314575-30 30-30zm-373.5 117c63.512746 0 115 51.487254 115 115s-51.487254 115-115 115h-12.057994c-16.568542 0-30-13.431458-30-30s13.431458-30 30-30h12.057994c30.375661 0 55-24.624339 55-55s-24.624339-55-55-55h-183c-16.568542 0-30-13.431458-30-30s13.431458-30 30-30zm243.5-498c86.984848 0 157.5 70.515152 157.5 157.5s-70.515152 157.5-157.5 157.5h-491.5c-16.568542 0-30-13.431458-30-30s13.431458-30 30-30h491.5c53.847763 0 97.5-43.652237 97.5-97.5s-43.652237-97.5-97.5-97.5h-89.205096c-16.568543 0-30-13.431458-30-30s13.431457-30 30-30zm-32.5 127c16.568542 0 30 13.431458 30 30s-13.431458 30-30 30h-317c-16.568542 0-30-13.431458-30-30s13.431458-30 30-30z"/></svg>