<svg height="960" viewBox="0 0 960 960" width="960" xmlns="http://www.w3.org/2000/svg"><path d="m88.4598627 9.0026231 805.3940233 14.7442453c21.802469.3989538 39.26818 18.1871858 39.26818 39.9933049v790.5149557c0 21.017067-16.265105 38.449601-37.231781 39.904097l-803.6046921 55.747494c-10.6365531.737877-21.1275151-2.801308-29.1434027-9.83169l-23.2800546-20.417911c-8.6595517-7.594911-13.6248159-18.554138-13.6248159-30.072407v-838.8688798c0-20.8587286 16.0285788-38.2159329 36.8213426-39.8735017l21.4907232-1.7132091c1.300758-.10369453 2.605811-.14367675 3.9104772-.1264983zm9.267457 40.182 1.788 860.1239999 793.6067463-55.053494v-790.5149557zm-19.999.614-11.491.9172091v838.8688798l13.261 11.630911zm219.8889423 116.6932549 523.606457 7.683636c10.930118.160349 19.706625 9.066554 19.706625 19.997848v542.067114c0 10.626797-8.310594 19.398108-18.921942 19.970924l-523.606456 28.265019c-1.909377.103071-3.823668-.068211-5.684418-.508615l-65.445202-15.489637c-9.021959-2.135327-15.393641-10.191097-15.393641-19.462309v-557.963174c0-10.506102 8.12891-19.221223 18.609594-19.951611l65.445202-4.560806c.560362-.039051 1.122121-.048389 1.683781-.048389zm10.382058 20.155745.038 577.278 512.893024-27.685147v-542.067114zm-20 .493-56.120635 3.912061v557.963174l56.158635 13.290765zm447.952673 262.908746c2.761423 0 5 2.238577 5 5l-.000673 9.383254 11.134518-.204726c2.760956-.050871 5.040391 2.146086 5.091262 4.907042.050871 2.760955-2.146086 5.04039-4.907041 5.091261l-11.318739.207423.000673 12.823856c0 2.761424-2.238577 5-5 5-2.761424 0-5-2.238576-5-5l-.000673-12.639856-9.086731.168804c-2.760955.050871-5.040391-2.146086-5.091262-4.907041-.050871-2.760956 2.146086-5.040391 4.907041-5.091262l9.270952-.171501.000673-9.567254c0-2.761423 2.238576-5 5-5zm-323.539397 20.437071c2.760955-.050872 5.040391 2.146086 5.091262 4.907041s-2.146086 5.04039-4.907041 5.091262l-30.40547.560226c-2.760955.050871-5.040391-2.146086-5.091262-4.907041s2.146086-5.040391 4.907041-5.091262zm-22.631026-77.037261 13.865108 6.02363c2.532731 1.100333 3.693919 4.045514 2.593586 6.578245s-4.045513 3.69392-6.578245 2.593587l-13.865108-6.02363c-2.532731-1.100333-3.693919-4.045514-2.593586-6.578245 1.100333-2.532732 4.045513-3.69392 6.578245-2.593587zm10.31158-22.366232 13.079064 7.868313c2.366233 1.423517 3.130456 4.495717 1.706939 6.86195-1.423516 2.366234-4.495716 3.130457-6.86195 1.70694l-13.079063-7.868313c-2.366234-1.423517-3.130457-4.495717-1.70694-6.86195 1.423517-2.366234 4.495716-3.130457 6.86195-1.70694zm12.621595-20.825673 12.098041 9.583638c2.164558 1.714686 2.529251 4.859435.814565 7.023994-1.714686 2.164558-4.859435 2.529251-7.023993.814565l-12.098041-9.583638c-2.164558-1.714686-2.529251-4.859435-.814565-7.023993s4.859435-2.529252 7.023993-.814566zm14.612678-18.952973 11.112988 10.93098c1.968677 1.936433 1.994815 5.10215.058381 7.070827-1.936433 1.968676-5.10215 1.994814-7.070826.058381l-11.112989-10.930979c-1.968676-1.936434-1.994814-5.102151-.058381-7.070827 1.936434-1.968677 5.102151-1.994815 7.070827-.058382zm16.684046-16.905605 9.810707 12.335343c1.71889 2.161221 1.360311 5.306673-.80091 7.025564-2.161221 1.71889-5.306673 1.360311-7.025564-.80091l-9.810707-12.335343c-1.718891-2.161221-1.360311-5.306673.80091-7.025564 2.161221-1.71889 5.306673-1.360311 7.025564.80091zm18.386966-14.568336 8.362171 13.541719c1.450879 2.349556.722357 5.430417-1.627199 6.881295-2.349556 1.450879-5.430417.722357-6.881295-1.627199l-8.362171-13.541719c-1.450879-2.349556-.722357-5.430416 1.627199-6.881295 2.349556-1.450878 5.430417-.722356 6.881295 1.627199zm192.621324-14.075611c2.492802 1.188023 3.550535 4.171921 2.362512 6.664723l-6.788975 14.245152c-1.188023 2.492802-4.171921 3.550535-6.664723 2.362512s-3.550535-4.171922-2.362512-6.664724l6.788975-14.245152c1.188023-2.492802 4.171921-3.550534 6.664723-2.362511zm-172.78452 2.043083 6.788974 14.533017c1.168742 2.5019.088003 5.477543-2.413897 6.646284-2.501901 1.168742-5.477544.088003-6.646285-2.413897l-6.788974-14.533017c-1.168741-2.5019-.088003-5.477543 2.413898-6.646284 2.5019-1.168742 5.477543-.088003 6.646284 2.413897zm151.387214-12.068288c2.614653.888286 4.014149 3.727979 3.125863 6.342632l-5.11457 15.054633c-.888286 2.614652-3.727979 4.014149-6.342632 3.125863-2.614652-.888287-4.014149-3.72798-3.125863-6.342632l5.11457-15.054633c.888286-2.614653 3.727979-4.014149 6.342632-3.125863zm-130.374649 2.731538 5.11457 15.296115c.875683 2.6189-.537474 5.45182-3.156375 6.327503-2.6189.875683-5.45182-.537474-6.327503-3.156374l-5.11457-15.296115c-.875683-2.618901.537474-5.451821 3.156375-6.327504 2.6189-.875683 5.45182.537474 6.327503 3.156375zm108.240007-9.976615c2.689884.62449 4.364216 3.31132 3.739726 6.001204l-3.6177 15.582628c-.62449 2.689884-3.31132 4.364216-6.001204 3.739726-2.689883-.624489-4.364216-3.31132-3.739726-6.001203l3.6177-15.582629c.62449-2.689883 3.311321-4.364216 6.001204-3.739726zm-86.485607 3.398153 3.6177 15.756616c.617941 2.691396-1.062926 5.374143-3.754321 5.992084-2.691396.617941-5.374143-1.062925-5.992084-3.754321l-3.617701-15.756616c-.617941-2.691395 1.062926-5.374143 3.754321-5.992084 2.691396-.617941 5.374143 1.062926 5.992085 3.754321zm63.511815-7.853191c2.743647.312831 4.714213 2.790596 4.401382 5.534243l-1.822434 15.983452c-.312831 2.743647-2.790596 4.714212-5.534242 4.401382-2.743647-.312831-4.714213-2.790596-4.401382-5.534243l1.822434-15.983452c.312831-2.743647 2.790596-4.714213 5.534242-4.401382zm-41.031981 4.2048 1.822434 16.074495c.311082 2.743845-1.661063 5.220353-4.404909 5.531435-2.743846.311081-5.220354-1.661064-5.531435-4.404909l-1.822434-16.074495c-.311082-2.743846 1.661063-5.220354 4.404909-5.531435 2.743846-.311082 5.220353 1.661063 5.531435 4.404909zm17.744566-5.721753c2.761424 0 5 2.238577 5 5v16.149356c0 2.761424-2.238576 5-5 5s-5-2.238576-5-5v-16.149356c0-2.761423 2.238576-5 5-5z"/></svg>