<svg height="960" viewBox="0 0 960 960" width="960" xmlns="http://www.w3.org/2000/svg"><path d="m291.761973 4.00031138c18.151685-.02335852 37.072215.15183503 64.313554.80914813 41.061308.9907786 87.660941 2.85900632 139.901615 5.82414889 20.681056 1.1738417 57.807443 4.2285137 102.092109 8.261161 17.233651 1.5693296 34.443387 3.189396 48.404987 4.5496777 14.597744 1.4222614 22.485288 2.2356995 25.053906 2.6404339 14.064034 2.216055 26.635757 5.5246226 37.772065 10.0864737 12.591009 5.1577509 23.449961 11.9592609 32.319592 20.6497552.575838.5642085 1.469126 1.3778723 3.276481 2.9796469.217451.1927174 1.116113.988307 1.346285 1.1922731.572474.5072972 1.044481.9267585 1.514281 1.3461978 1.238333 1.1055881 2.349 2.1113697 3.457743 3.1358318 6.355215 5.8721242 11.861005 11.6551697 17.239414 18.4557664 9.369571 11.847123 17.146866 25.4275701 23.208772 41.3686101 2.835796 7.457316 4.412703 15.861197 5.399811 26.246188.7965 8.379675 1.207372 18.388426 1.269602 30.178805l9.670467 680.796333c.346402 24.759148-17.484997 45.914073-41.723052 49.88061-1.093448 2.230008-2.315979 4.384943-3.665152 6.467601-9.740868 15.036544-25.026003 24.449964-42.86841 26.261299-8.052544.817482-15.136659 1.240713-21.383616 1.240713-7.301961 0-13.74698-.552576-19.824007-1.981066-9.264223-1.922103-17.342161-6.647315-23.636076-13.21793-1.998773-2.086646-3.756029-4.280301-5.298635-6.581262-38.752564 3.271586-76.051691 5.554675-111.952246 6.883445-9.348648.346017-19.195573.553491-29.752869.643764-15.574937.133179-29.169341.036678-53.978189-.287421-17.461805-.228119-23.283929-.295439-30.351316-.322827-.027354.050079-.058084.098771-.088897.147428-4.427594 6.991711-10.390368 12.971332-17.816582 17.324651-8.039194 4.712654-17.128153 7.103412-26.508906 7.103412-2.466626 0-4.785652-.153612-7.137111-.423026-1.026692-.117632-1.847608-.227841-2.870833-.381086-.333734.065466-1.452732.287162-1.790578.353114-1.000618.195333-1.842144.35151-2.738011.50244-3.23278.544638-6.218955.865379-9.667619.865379-6.659749 0-13.444576-1.237227-20.098156-4.074668-7.897041-3.367719-14.855171-8.717429-20.313371-15.719904-.935209-1.199805-1.816965-2.434774-2.628942-3.714665-6.213606 2.887341-13.04023 4.375281-20.07271 4.375281h-20.768837c-13.993473 0-27.438049-5.559695-37.499063-15.660357-2.297761-2.306816-4.365822-4.79059-6.19377-7.433098-.617243-.243107-1.217525-.497979-1.810102-.758712-2.31139-1.01701-4.53411-2.137231-6.69752-3.411896-2.374183-1.398851-4.649559-2.964518-6.83691-4.780447l-2.975595-.625572c-23.100302-4.858461-39.635681-25.233326-39.635681-48.835737l-.000751-193.19766c-1.751101-1.659856-3.382815-3.45269-4.918006-5.351236-8.942354-11.058865-13.501138-24.485457-13.501138-38.712851v-116.690699c0-14.320761.052259-19.461161.37178-25.705321.226977-4.435631.584949-8.382784 1.145901-12.136376.728448-4.874387 1.798413-9.42446 3.394997-13.86758 3.374149-9.389889 8.900122-17.510602 16.514972-23.712802.51982-13.764256 1.149937-27.27003 1.867187-40.569166 2.924985-54.23456 7.187578-113.617546 11.801722-166.648515 2.035669-23.396214 4.046686-44.422095 5.819549-60.932339 1.859823-17.320083 3.357624-28.937321 4.643174-35.141482 2.693704-13.000026 7.455847-24.6444155 14.595965-34.6464059 3.118721-4.3687545 6.637186-8.3388264 10.534253-11.8606006 1.050185-5.3321651 1.843023-9.0424027 2.768624-13.0186625 2.449923-10.5245494 5.002294-18.5956399 8.642411-26.0013786 2.50988-5.1062954 5.508793-9.7774014 9.184808-14.0260849 4.256906-4.9200689 9.253959-9.057223 14.935001-12.2778095 5.405993-3.06466073 11.165957-5.1561041 17.208189-6.40417045 4.91496-1.01522037 9.89021-1.45877417 15.109628-1.45877417h.949604zm52.677892 905.98846462c2.913699 5.755655 7.253498 7.011224 10.510687 7.011224 3.341558 0 8.092342-1.676835 13.566284-1.944955 3.329879-.163101 6.927513 1.028134 10.637868 1.028134 4.32962 0 7.507301-1.834171 9.706481-4.654185-11.718534-.246029-23.255721-.602531-34.95812-1.055927-2.960735-.114711-5.875798-.233278-8.923544-.362209zm384.650165-12.94029-.066713.007092c-15.705668 1.757242-31.197794 3.370975-46.476446 4.841163 1.310459 2.0565 2.847541 3.202556 4.611588 3.438071 5.422755 1.381564 14.938624 1.381564 28.547607 0 5.748525-.583582 10.209846-3.34569 13.383964-8.286326zm-346.773576-732.627017c1.665561 6.599225 2.506531 14.152295 2.506531 22.790935 0 16.104482-2.221869 118.447079-7.16398 335.692382l-.131899 5.797204c-.357515 15.711268-2.186271 95.97874-2.678003 117.602273-.983717 43.258263-1.716703 75.674187-2.336046 103.375-1.512642 67.654628-2.276655 104.156089-2.276655 109.586597 0 12.23207-3.416928 22.970933-10.083869 31.322123 9.579744.348397 20.539254.680383 32.705015.913729l.001104-.320876c9.026709.172419 18.716006.290552 28.998171.320707 32.18277.094382 74.901865 1.458785 114.315151 0 44.882126-1.661201 92.051302-4.844477 141.50753-9.549826.009585.103604.019255.206866.029011.309783 18.673383-1.778978 37.674017-3.7755 57.000898-5.989365l.02333-.307954c8.131672-.929877 16.321898-1.898699 24.56986-2.905945 3.627306-.442968 6.591962-2.81088 7.931021-5.998371.43129-1.137063.659335-2.371062.641397-3.653925l-9.661141-681.120139c-.02779-5.771388-.144349-11.016736-.349677-15.736044-3.343668 5.171918-6.58213 8.929195-9.834403 11.350035-.412637.307148-.851608.657916-1.485713 1.184155.062289-.051694-1.242336 1.037174-1.651955 1.373005-.742865.609047-1.409899 1.134667-2.107453 1.652822-5.769869 4.285958-12.578547 7.074844-23.161989 8.973157-12.175843 2.183935-29.468697 3.115977-53.820622 2.705175-29.977696-.505705-67.651907-1.541738-107.267143-2.895095-33.608012-1.148135-66.162755-2.448751-85.270092-3.384709-17.819674-.872882-35.836454-4.327127-55.469979-10.339205-11.01041-3.371552-22.271622-7.433052-35.390448-12.711267zm-119.331542-88.4344056-.104343.4762544c-1.614837 7.3796838-3.263367 16.2710742-5.258612 26.9188352-8.67498 46.294613-21.687449 258.214532-21.687449 319.733471v449.168507c0 .524505.155576 1.037246.45348 1.538132 2.269408 3.143491 10.154521 5.80997 20.273353 7.976336.011214.095337.022821.190225.034818.284664 13.388916 2.883624 30.74279 4.885932 44.156453 5.954128l.0606-.302947c6.892335.544042 12.725824.840772 16.419443.882357 11.081618-.118093 19.426084-2.978795 24.852484-7.995874 5.239694-4.844456 8.051263-12.002943 8.051263-21.355067 0-5.674839.757201-41.850845 2.281652-110.033651.619411-27.703878 1.352448-60.122044 2.336219-103.38264.491743-21.624061 2.320504-101.891734 2.678009-117.602567l.131896-5.797078c4.924637-216.477136 7.158807-319.386375 7.158807-335.23752 0-11.631428-1.76334-20.013571-4.896079-25.952706-2.337541-4.431575-5.370058-7.458476-9.745253-10.177048-1.196181-.743258-2.481948-1.461588-4.135926-2.324502-.46359-.241864-2.640553-1.354255-3.898499-2.005147-9.527641-4.796638-17.439572-9.474608-24.337928-14.325636-5.118418-3.59935-9.735554-7.327842-14.272083-11.47012-3.804481-3.47385-7.426314-7.10483-12.048689-11.997753-9.128436-9.6627276-18.627755-20.6527425-28.503616-32.9724286zm-37.763365 155.7349896c-3.913415 45.957933-8.027664 102.129197-10.984757 156.98-1.20475 22.346784-2.109226 44.359067-2.787975 65.434225-20.448815 1.350366-20.448815 9.832154-20.448815 48.446265v-.627232.452468 116.690699c0 10.48984 6.139687 18.082691 18.419061 22.778555l.000834 214.483192c0 4.209368 2.650198 7.901442 6.514037 9.306102l.000576-442.550703c0-30.402287 3.12327-97.781727 7.63307-166.878445.534534-8.189833 1.074576-16.199367 1.618068-23.999162zm53.328851 140.144731c17.487056-1.229045 14.355751 8.095752 14.355751 20.404094v11.183411c0 7.622354-6.086564 13.229922-11.826746 13.229922h-27.325155c-8.299343 0-9.64983-2.070099-9.64983-7.346613v-29.351473c0-8.649676 16.958924-6.890296 34.44598-8.119341zm345.015125-128.686118c10.954773 11.359569 17.644974 26.997597 18.531552 43.911426.88658 16.913873-4.132081 33.165511-13.839299 45.607818-9.941775 12.742954-24.101165 20.58416-39.703614 21.4017l-2.916506.070108c-14.534183-.063136-28.288576-6.298107-38.80682-17.205016-10.954773-11.359568-17.644974-26.997597-18.531552-43.911426-.88658-16.913872 4.132082-33.165511 13.839299-45.607818 9.941775-12.742954 24.101165-20.584159 39.703614-21.4017 15.602387-.817537 30.503866 5.500872 41.723326 17.134908zm-40.676797 2.837693c-9.620362.50409-18.496772 5.41968-24.98146 13.731483-6.719246 8.612449-10.271847 20.11663-9.635401 32.258525.636448 12.141938 5.372357 23.211902 12.955285 31.07503 7.318239 7.58866 16.660059 11.549706 26.280483 11.045613l1.794698-.145967c8.925873-.985839 17.107368-5.793201 23.186762-13.585516 6.719246-8.612449 10.271847-20.11663 9.635401-32.258525-.636448-12.141939-5.372357-23.211903-12.955284-31.075031-7.31824-7.588659-16.66006-11.549705-26.280484-11.045612zm-305.140243-199.7014306-.411033.2181482c-3.160297 1.7330189-5.61587 4.4375338-7.691494 8.3673945 1.829815.5909902 3.510012 1.7134084 4.787576 3.3386823 11.059381 14.0693729 21.593322 26.3985134 31.593361 36.9838574 8.938546 9.4617222 15.088478 15.0771892 23.286929 20.8424652 5.734929 4.032889 12.376677 7.99471 20.407554 12.102453.240496.104543.478623.220093.71397.346015.123226.065932.250414.133493.382282.203078.106474.056185.259936.136099.446788.232859 5.441219 2.736154 11.50626 5.541985 18.33555 8.481168 22.171475 9.542135 38.499552 15.850523 54.050789 20.612544 18.138633 5.554319 34.550413 8.700848 50.592589 9.486661 18.996119.930509 51.457244 2.227385 84.974434 3.372418 39.509372 1.34974 77.074825 2.382782 106.921629 2.886279 23.166657.390807 39.264502-.476826 49.952308-2.393858 4.262735-.764591 7.519863-1.668969 10.041301-2.701769 1.897677-.777304 3.308418-1.588029 4.725597-2.640734.413115-.306869.839025-.642485 1.353198-1.064036.329415-.270075 1.561833-1.298677 1.559872-1.297049.881877-.731863 1.569159-1.281049 2.316174-1.837092.697101-.518889 1.770682-1.655422 3.084294-3.420259 1.664205-2.235857 3.526601-5.230427 5.545449-8.980789 1.287448-2.391661 3.379408-7.611242 6.101453-15.358369.103759-1.17749-.051899-2.143723-.436166-3.032167-.222432-.514273-.398295-1.036961-.529455-1.563352-.701038-1.457842-1.414504-2.867893-2.138396-4.23182-.080165.388168-.164647.770337-.252316 1.14743-1.045003 4.494933-2.344872 8.309506-3.987083 11.786988-1.389952 2.943308-2.917144 5.467755-5.018617 8.479443-.650212.93184-2.936046 4.112286-2.902125 4.064658-.118907.166959-.254736.366559-.459908.675356-.035109.052843-.3446.520359-.445218.671363-.203618.30558-.380679.566995-.563599.830241-.502535.723214-.994933 1.380153-1.539116 2.035373-4.343433 5.229678-10.634787 8.503465-20.879725 10.55941-11.039302 2.215357-27.513027 3.153043-51.389554 2.745864-28.397771-.484282-64.084647-1.476375-101.609888-2.772326-31.834973-1.099435-62.672424-2.34489-80.773622-3.241241-16.934271-.838566-34.049223-4.155727-52.691526-9.92659-15.540773-4.810761-31.600385-11.083153-53.198095-20.479814-17.994473-7.828976-31.081563-14.915261-41.665821-22.439516-4.866358-3.459451-9.256235-7.043119-13.568312-11.023429-3.613608-3.3355815-7.051658-6.8199363-11.437073-11.5127022-8.389559-8.9775383-17.107526-19.1481409-26.159385-30.514071-2.341474-2.9400616-2.759248-6.793046-1.42557-10.0391654zm230.391463 41.5159925c-22.017892-.3614304-41.143035-.0262271-56.555854 1.1206009-16.874611 1.2555961-28.770451 3.499705-34.000405 6.2908072-13.482026 7.195038-23.717024 14.319958-30.718274 21.229488 3.886873 1.659359 7.580561 3.206302 11.118003 4.653169-.221908-.992079-.477784-2.078542-.768512-3.25581-1.324098-5.361772 1.949084-10.781742 7.310857-12.10584 5.361772-1.324099 10.781742 1.949083 12.10584 7.310856 1.220109 4.940681 1.97131 8.755511 2.254147 11.628176.128677 1.306915.199062 2.809831.214469 4.524527 4.118991 1.457328 8.094314 2.776966 12.016782 3.991195 9.128968 2.825939 17.792499 4.998713 26.184722 6.525498 1.17748-6.412465 1.638758-11.577917 1.425156-15.409929-.263714-4.731014-1.794006-11.90223-4.628819-21.285819-1.597177-5.2868583 1.3939-10.8674716 6.680758-12.4646488 5.286859-1.5971772 10.867472 1.3939002 12.464649 6.6807584 3.253861 10.7706914 5.08398 19.3469514 5.452413 25.9566064.295502 5.301284-.219725 11.594603-1.510329 18.958314l.589551.036949 1.10833.058873c11.466084.567787 28.113899 1.278119 46.899653 2.00249 1.152327-7.674113 1.591809-13.551114 1.35629-17.487146-.278272-4.650526-1.820044-12.008561-4.652945-21.817305-1.532442-5.3059837 1.526618-10.8496231 6.832602-12.382065 5.305984-1.5324418 10.849624 1.5266186 12.382066 6.8326026 3.207974 11.1074094 5.01804 19.7458654 5.402569 26.1721694.302915 5.06237-.113239 11.501354-1.219341 19.431816 4.44796.160753 8.950755.319912 13.473861.476119 12.335628.426017 24.471142.819079 36.21055 1.171885 1.616562-6.905709 2.282748-12.737394 2.052655-17.441324-.253899-5.190619-1.732569-11.767694-4.497-19.637568-1.830357-5.210723.909971-10.918647 6.120694-12.7490044s10.918647.9099705 12.749004 6.1206934c3.35649 9.555369 5.244626 17.953733 5.603418 25.288748.277563 5.674383-.296956 11.996141-1.691309 18.998589 16.165395.437947 31.266307.781992 44.712599 1.011299 1.978352.033737 3.900018.057871 5.766038.07256 1.330609-6.243447 1.884507-10.950645 1.718596-13.933206-.198066-3.560594-1.68791-9.569385-4.519787-17.680085-1.820541-5.214161.930532-10.916914 6.144693-12.737455s10.916914.930532 12.737455 6.144693c3.396909 9.728993 5.282583 17.334237 5.606766 23.16202.224052 4.027739-.201558 8.909457-1.246537 14.748051 3.135767-.132759 6.021585-.310016 8.668924-.528288l3.96659-14.218844c-2.522192-10.517436-6.077845-18.519426-10.507195-24.079965-4.311834-5.413011-9.44625-8.529806-15.771149-9.6481823-13.646593-2.413008-39.420134-5.071329-67.029158-6.9948432-.816079-.056856-4.769717-.3373459-5.481788-.3875625-2.823913-.1991479-5.400799-.3776124-8.14267-.5625748-7.469747-.5038973-14.978954-.9749553-22.804654-1.4188956-21.419129-1.2150751-42.163996-2.0543914-61.584974-2.3731927zm-213.242708-43.8379671c8.708212 10.929983 17.05961 20.670629 25.048759 29.2196948 8.445791 9.0377116 14.248369 14.3938455 21.98092 19.8908477 6.870783 4.8843785 15.125904 9.6622917 25.699641 14.7577847 8.777627-10.5208244 22.298096-20.5278762 40.540653-30.2634973 8.44261-4.5056208 22.392162-7.1371551 41.932835-8.5911261 16.106954-1.1984768 35.796235-1.5435677 58.368162-1.1730426 19.719499.3237016 40.722106 1.1734458 62.389461 2.4026024 7.901532.448242 15.480832.9236971 23.018014 1.4321435 2.764172.1864667 5.360707.3662921 8.203506.5667718.723328.0510105 4.663788.3305655 5.464868.3863766 28.256773 1.9686427 54.61963 4.6877466 69.121538 7.2519924 11.189075 1.9784665 20.622466 7.7049091 27.932272 16.8815296 6.863992 8.6169517 11.789828 20.1635167 14.958585 34.5891437.350922 1.59756.304617 3.256812-.134856 4.832314l-1.296313 4.645128c.091864-.13782.194958-.292843.311447-.468168.314599-.473494.558502-.831905.827368-1.209425.038865-.054571 2.23531-3.110645 2.791138-3.90722 1.511418-2.16606 2.487948-3.780264 3.335562-5.57514 1.016609-2.152731 1.858868-4.624409 2.591446-7.775488.929292-3.997221 1.389256-9.325179 1.309234-14.552834-.035842-2.341436-.180255-4.519585-.405843-6.273919-.09942-.773152-.209987-1.4255935-.319756-1.9174931l.041771.1972232c-5.896876-5.9575829-11.28801-10.2232076-15.075563-13.9380402-9.869961-9.6804595-25.967601-16.2813671-48.29292-19.8027228-.838106-.1321938-4.55151-.5325383-10.389661-1.1232551-.205354-.0212395-.411991-.0420987-.621175-.0631854-.452137-.0451936-.916078-.0918651-1.391659-.1395729-.416201-.0420188-.841423-.0845386-1.275302-.1278254-1.063048-.1059479-2.178523-.2167427-3.343059-.3318398-36.044213-3.5596065-118.902154-11.2211494-154.507892-13.2428756-106.065648-6.022504-173.01362-6.546831-196.29405-6.5756014-.541405-.0006674-1.059194-.0010683-1.553308-.0012642l-.723409-.00015z"/></svg>