<svg height="960" viewBox="0 0 960 960" width="960" xmlns="http://www.w3.org/2000/svg"><path d="m914.525437 289.438574c24.316943 2.687203 42.727738 23.233273 42.727738 47.707684v191.422908c0 18.520361-3.268151 34.205193-12.121662 48.322202-10.640661 16.966637-27.387473 27.79516-48.498936 32.666033-12.6548 2.919737-28.910759 6.456153-48.803223 10.618369l-.05522.011269-.383376.358967c-7.812932 7.196876-17.986732 11.902392-29.298511 12.811859l-.773006.056112-611.171747 39.600218c-1.09099.070689-2.183982.106062-3.27726.106062-12.036987 0-23.093969-4.1959-31.788111-11.204864l-.035989-.028354-.733658-.023567c-32.233307-1.056632-56.938713-2.858299-74.5433976-5.500152l-.6409065-.097028c-16.7594901-2.559713-33.5074354-6.873389-50.2207281-12.911225-24.9599533-9.017169-41.5943098-32.709107-41.5943098-59.250494v-212.45194c0-35.41576 28.1723237-64.40627 63.5735101-65.419847 452.0652129-12.944055 703.5360039-19.397747 756.3475899-19.397747l2.688549.000977c43.615784.031947 72.678856.848166 88.602654 2.602558zm-98.17 64.245247-614.979303 22.789218.002975.203246c.002584.067508.004503.135193.005748.203047.00309.174055.001716.347151-.004018.51918l.803599 245.003133c.012574 3.843515-2.144866 7.187693-5.319544 8.872167 1.711043 1.165384 3.778656 1.846445 6.00534 1.846445.23049 0 .460919-.007457.690926-.02236l611.171747-39.600219c.944501-.061198 1.847575-.265156 2.688734-.590018-2.573178-1.841328-4.232481-4.870224-4.186494-8.273186zm-772.9935255 231.901672.0069326.123511c.6284333 9.028855 6.5233926 16.916668 15.1295141 20.025762 14.3008277 5.16631 28.5238609 8.829633 42.6690668 10.990061 17.571092 2.683671 44.576378 4.507551 81.015858 5.471639l-.058884-18.08567c-32.519283-1.256263-58.074514-2.958708-76.7216-5.118156-19.7253643-2.28432-40.4045212-6.756984-62.0408875-13.407147zm-.0485252-203.821486.0001892 183.329924c.9957824.000318 2.0084176.150569 3.0084395.466085 7.6514879 2.414113 15.1627378 4.540246 22.5335747 6.378955-9.7783256-5.893704-16.3167934-16.614349-16.3167934-28.862136 0-18.598506 15.0770682-33.675574 33.6755743-33.675574 18.5985064 0 33.6755744 15.077068 33.6755744 33.675574 0 17.264236-12.991386 31.494171-29.731401 33.447048 5.9472263 1.068654 11.795554 1.935712 17.545003 2.601534 17.904731 2.073479 42.707724 3.732893 74.354602 4.967719l-.646344-196.863669c-15.059363.235291-28.567198.359275-40.527712.371652l-2.953065.000847c-14.650701-.007833-26.877036-.190538-36.687263-.548783-19.6594175-.717913-38.9700656-2.480747-57.9303787-5.289176zm871.9047717 164.640288-.549202.292335c-7.826595 4.126792-16.831081 7.304017-26.993661 9.562397-11.807825 2.623995-29.830738 5.536539-54.171757 8.765251l-.234298 17.327293c22.576154-4.692622 40.699726-8.616029 54.370715-11.770224 16.302829-3.761416 24.247745-12.160104 27.578203-24.177052zm-829.0037874-17.003034c-7.5528111 0-13.6755743 6.122763-13.6755743 13.675574s6.1227632 13.675575 13.6755743 13.675575 13.6755743-6.122764 13.6755743-13.675575-6.1227632-13.675574-13.6755743-13.675574zm804.1525324-164.913863c-12.40999.848148-30.463337 1.728177-54.189 2.642641l-2.402226 177.680296c22.333089-3.002488 38.883585-5.702258 49.560954-8.075037 11.561011-2.569147 20.941792-6.424033 28.193811-11.484787 1.745755-1.218259 3.744775-1.802107 5.723442-1.800237l-.000268-68.885006c-1.978931 14.910141-11.672379 27.090732-24.689201 25.951907-13.563748-1.186674-21.062465-15.98923-19.68398-31.745378 1.378484-15.756148 11.333715-29.031682 24.897463-27.845007 10.86708.950746 17.841026 10.641506 19.475596 22.56032l.00068-83.931804c-6.428689 2.611384-15.277273 4.138619-26.887271 4.932092zm-194.866903 146.512602c5.79899 0 10.5 4.924868 10.5 11s-4.70101 11-10.5 11-10.5-4.924868-10.5-11 4.70101-11 10.5-11zm200.47132-69.433099-.008624.011909c-.091131.108424-.185379.226945-.281929.355697-1.454436 1.939525-2.566768 5.040856-2.876438 8.580405-.309671 3.539548.247222 6.786918 1.342767 8.949537.072726.143562.14496.276649.215879.39925l.007345.012202.009296-.010746c.045566-.054212.091911-.110948.138933-.170226l.142996-.185471c1.454436-1.939525 2.566768-5.040856 2.876439-8.580405.30967-3.539548-.247223-6.786918-1.342768-8.949537-.072725-.143562-.14496-.276649-.215879-.399251zm-809.7569494-52.695836c18.5985064 0 33.6755744 15.077068 33.6755744 33.675574s-15.077068 33.675574-33.6755744 33.675574c-18.5985061 0-33.6755743-15.077068-33.6755743-33.675574s15.0770682-33.675574 33.6755743-33.675574zm0 20c-7.5528111 0-13.6755743 6.122763-13.6755743 13.675574s6.1227632 13.675574 13.6755743 13.675574 13.6755743-6.122763 13.6755743-13.675574-6.1227632-13.675574-13.6755743-13.675574zm739.6207274-82.036026h-2.600864c-51.689602 0-298.93123 6.33189-741.7248864 18.995671l-13.4778472.385661c-10.2888857.294604-19.0072952 6.66713-22.7556222 15.617785l-.4680411-.069185c18.6861951 2.824764 37.7408951 4.592185 57.1657919 5.301534 9.34838.34138 21.018737.519772 35.003434.534631l2.893827.000757c12.154972-.006334 25.981585-.130842 41.475148-.373861l.000603-.071214c-.014545-4.446151 2.874758-8.224105 6.883427-9.537629 1.103552-.474561 2.311615-.757469 3.584035-.804624l634.312959-23.506885c5.717401-.21188 10.446731 4.407463 10.370355 10.128266l-.049156 3.668693c23.028531-.892933 40.556065-1.750644 52.554944-2.570695 12.134849-.829344 19.905577-2.577696 22.486502-4.397933 1.754326-1.237266 3.769407-1.830677 5.76441-1.828771l-.000942-1.160982c0-4.077495-3.068466-7.50184-7.12129-7.949708-14.004702-1.542954-42.103641-2.329713-84.296787-2.361511z"/></svg>