<?xml version="1.0" encoding="utf-8"?>
<!-- Generator: Adobe Illustrator 21.0.0, SVG Export Plug-In . SVG Version: 6.00 Build 0)  -->
<svg version="1.1" id="Layer_4" xmlns="http://www.w3.org/2000/svg" xmlns:xlink="http://www.w3.org/1999/xlink" x="0px" y="0px"
	 viewBox="0 0 1417.3 757.3" style="enable-background:new 0 0 1417.3 757.3;" xml:space="preserve">
<title>VOC</title>
<g>
	<path d="M795.5,530.2c-1.2-0.5-2.5-0.8-3.9-0.8l0,0h-21.1c-3.9,0-7.4,2.3-9,5.9l-56.2,128.8l-55.2-128.7c-1.5-3.6-5.1-6-9.1-6H620
		c-5.5,0-9.9,4.4-9.9,9.9c0,1.3,0.3,2.7,0.8,3.9l83.1,193.8c1.5,3.6,5.1,6,9.1,6h4.2c3.9,0,7.4-2.3,9-5.9l84.3-193.8
		C802.8,538.2,800.5,532.3,795.5,530.2z"/>
	<path d="M916.5,524.5c-39.7-0.1-76.4,21.2-95.9,55.8c-9.8,17.3-14.9,36.8-14.8,56.7c0,30.5,11,56.9,32.6,78.4s48.4,32.4,79.7,32.4
		c31,0,57.6-11,79.2-32.5s32.5-48.2,32.5-79.2c0-31.2-11-57.9-32.6-79.3S948.4,524.5,916.5,524.5z M980.4,673.3
		c-6.2,11-15.2,20.1-26.2,26.2l0,0c-11.2,6.4-23.9,9.8-36.9,9.6c-20,0-36.6-6.8-50.8-20.9s-21-30.8-21-51.3
		c-0.2-13.1,3.1-26,9.5-37.4c12.9-22.3,36.5-36.1,62.3-36.4c25.9,0.2,49.9,13.9,63.2,36.1c6.4,11.2,9.6,23.9,9.4,36.8
		C990.1,649.1,986.8,661.9,980.4,673.3z"/>
	<path d="M1245.2,691.5c-0.1,0-0.1-0.1-0.2-0.1l-15.2-11.6c-4.2-3.2-10.1-2.5-13.4,1.4c-16.4,19.1-36.3,28.4-60.6,28.4
		c-22.2,0-40-6.8-54.4-20.9c-14.4-14.1-21.3-31-21.3-52.1c0-13.8,3.2-26.3,9.5-37.3c6.4-11,15.7-20.1,26.9-26.2
		c11.6-6.5,24.8-9.9,38.1-9.9c12-0.1,23.8,2.4,34.7,7.5c10.6,5.1,19.7,12.7,26.8,22.1c3.3,4.3,9.5,5.1,13.8,1.8c0,0,0,0,0,0
		l15.3-11.7c4.2-3.3,5.1-9.3,2-13.6c-10.2-14.2-23.8-25.6-39.5-33.2c-15.9-7.8-33.8-11.8-53.3-11.8c-32.5,0-59.9,10.7-81.6,31.8
		s-32.8,47.7-32.8,78.7c0,29.3,9.1,54.7,27,75.5c21.5,24.7,51,37.3,87.7,37.3c19.2,0,36.9-3.7,52.6-11c15.6-7.2,29.2-17.9,39.8-31.4
		C1250.2,701.1,1249.5,694.9,1245.2,691.5z"/>
	<path d="M758.8,303.5c-12.5,0-22.6,10.1-22.6,22.6c0,12.5,10.1,22.6,22.6,22.6c12.5,0,22.6-10.1,22.6-22.6
		C781.5,313.6,771.3,303.5,758.8,303.5z"/>
	<path d="M758.8,430c-12.5,0-22.6,10.1-22.6,22.6c0,12.5,10.1,22.6,22.6,22.6c12.5,0,22.6-10.1,22.6-22.6
		C781.5,440.2,771.3,430.1,758.8,430z"/>
	<path d="M758.8,176.8c-12.5,0-22.6,10.1-22.6,22.6c0,12.5,10.1,22.6,22.6,22.6c12.5,0,22.6-10.1,22.6-22.6
		C781.5,187,771.3,176.9,758.8,176.8z"/>
	<path d="M660.6,366.8c-12.5,0-22.6,10.1-22.6,22.6c0,12.5,10.1,22.6,22.6,22.6c12.5,0,22.6-10.1,22.6-22.6
		C683.2,376.9,673.1,366.8,660.6,366.8z"/>
	<path d="M660.6,240.1c-12.5,0-22.6,10.1-22.6,22.6c0,12.5,10.1,22.6,22.6,22.6c12.5,0,22.6-10.1,22.6-22.6
		C683.2,250.3,673.1,240.2,660.6,240.1z"/>
	<path d="M562.4,303.5c-12.5,0-22.6,10.1-22.6,22.6c0,12.5,10.1,22.6,22.6,22.6c12.5,0,22.6-10.1,22.6-22.6
		C585,313.6,574.9,303.5,562.4,303.5z"/>
	<path d="M857,366.8c-12.5,0-22.6,10.1-22.6,22.6c0,12.5,10.1,22.6,22.6,22.6c12.5,0,22.6-10.1,22.6-22.6
		C879.7,376.9,869.5,366.8,857,366.8z"/>
	<path d="M857,240.1c-12.5,0-22.6,10.1-22.6,22.6c0,12.5,10.1,22.6,22.6,22.6c12.5,0,22.6-10.1,22.6-22.6
		C879.7,250.3,869.5,240.2,857,240.1z"/>
	<path d="M955.3,303.5c-12.5,0-22.6,10.1-22.6,22.6c0,12.5,10.1,22.6,22.6,22.6c12.5,0,22.6-10.1,22.6-22.6
		C977.9,313.6,967.8,303.5,955.3,303.5z"/>
	<path d="M757.3,45c143.6,0,269.5,101.8,299.3,242.1c1.7,7.9,7.4,14.2,15.1,16.7c69.1,22.5,122.3,80.3,139,150.9
		c2.9,12.1,15,19.6,27.1,16.8c12-2.8,19.5-14.9,16.6-27c-19.2-81.6-78.7-149.2-156.7-179.1C1058.9,110.8,917.8,0,757.3,0
		C631,0,516.9,68.4,455,172.7l25.3,48.2C529.9,115.9,637.2,45,757.3,45z"/>
	<path d="M543.8,712.2h-36.5c-0.6-0.1-1.2-0.1-1.8-0.1c-41.9-1.3-80.4-14.7-112.4-36.7h-68.3c44,47.9,106.4,78.7,176.7,81.7
		c1.1,0.2,2.2,0.2,3.3,0.2h39c12.4,0,22.5-10.1,22.5-22.5C566.3,722.3,556.2,712.2,543.8,712.2z"/>
	<path d="M544.6,524.2L336.3,127c-17.2-32.7-64-32.7-81.2,0L46.7,524.2c-16,30.5,6.1,67.2,40.6,67.2h208.4H504
		C538.5,591.4,560.7,554.8,544.6,524.2z M273.1,266.5c0-12.9,10.4-23.3,23.3-23.3c12.9,0,23.3,10.4,23.3,23.3v133.9
		c0,12.9-10.4,23.3-23.3,23.3c-12.9,0-23.3-10.4-23.3-23.3V266.5z M295.7,523.5c-18.6,0-33.6-15.1-33.6-33.6
		c0-18.6,15.1-33.6,33.6-33.6c18.6,0,33.6,15.1,33.6,33.6C329.3,508.4,314.2,523.5,295.7,523.5z"/>
</g>
</svg>
