<?xml version="1.0" encoding="utf-8"?>
<!-- Generator: Adobe Illustrator 21.0.0, SVG Export Plug-In . SVG Version: 6.00 Build 0)  -->
<svg version="1.1" id="Layer_2" xmlns="http://www.w3.org/2000/svg" xmlns:xlink="http://www.w3.org/1999/xlink" x="0px" y="0px"
	 viewBox="0 0 1417.3 757.3" style="enable-background:new 0 0 1417.3 757.3;" xml:space="preserve">
<title>PM10</title>
<path d="M964.7,528.8h-3.1c-3.8,0-7.2,2.2-8.9,5.5L883.1,676l-70.2-141.8c-1.7-3.4-5.1-5.5-8.9-5.5h-3.2c-4.9,0-9.1,3.6-9.8,8.5
	L763.1,732c-0.8,5.4,3,10.4,8.4,11.2c0.5,0.1,0.9,0.1,1.4,0.1h18.8c5,0,9.2-3.7,9.8-8.6l14.8-108.4l55.3,111.4
	c1.7,3.4,5.1,5.5,8.9,5.5h5c3.8,0,7.2-2.1,8.9-5.5L949,627.4l14.8,107.4c0.7,4.9,4.9,8.6,9.8,8.6h19.1c5.5,0,9.9-4.4,9.9-9.9
	c0-0.5,0-1-0.1-1.4l-28.1-194.8C973.8,532.4,969.6,528.8,964.7,528.8z"/>
<path d="M1095.7,528.8h-38.3c-3.5,0-6.7,1.8-8.5,4.7l-11.7,19.1c-2.8,4.7-1.4,10.8,3.3,13.6c1.6,0.9,3.3,1.4,5.1,1.4h20.7v165.7
	c0,5.5,4.4,9.9,9.9,9.9h19.3c5.5,0,9.9-4.4,9.9-9.9V538.6C1105.6,533.2,1101.2,528.8,1095.7,528.8z"/>
<path d="M1299.3,573.7c-6.7-16.3-16-28.7-27.7-37.1c-11.7-8.4-25.7-12.9-40-12.8c-14.2-0.1-28.1,4.4-39.6,12.7
	c-11.6,8.3-20.6,20.6-26.8,36.3c-6,15.3-9,36-9,63.2c0,27,3,47.7,9.1,63.1c6.3,15.9,15.3,28.1,26.8,36.4
	c11.5,8.3,25.3,12.7,39.4,12.6c14.4,0.1,28.5-4.4,40.2-12.9c11.8-8.4,21.2-20.9,27.7-37.1c6.4-15.8,9.5-36.1,9.5-62.1
	C1309,610.4,1305.7,589.4,1299.3,573.7z M1250.5,704.2c-11.5,8.7-24.6,8.9-36.6-0.2c-6-4.6-10.8-11.7-14.1-21
	c-3.5-10.2-5.3-25.8-5.3-46.6s1.8-36.6,5.4-46.7c3.3-9.3,8-16.4,14-21c6-4.6,11.9-6.7,18.4-6.7c6.3,0,12.3,2.2,18.2,6.7
	c5.9,4.5,10.9,12.2,14.6,22.8c3.9,11.4,5.9,26.5,5.9,44.9c0,18.4-2.3,34.1-6.8,46.9C1260.9,692.7,1256.3,699.8,1250.5,704.2
	L1250.5,704.2z"/>
<path d="M757,348.6c12.6,0,22.7-10.2,22.7-22.7c0-12.6-10.2-22.7-22.7-22.7c-12.6,0-22.7,10.2-22.7,22.7
	C734.2,338.4,744.4,348.5,757,348.6z"/>
<path d="M779.7,453.1c0-12.6-10.2-22.7-22.7-22.7s-22.7,10.2-22.7,22.7c0,12.6,10.2,22.7,22.7,22.7
	C769.5,475.8,779.7,465.6,779.7,453.1z"/>
<path d="M757,221.3c12.6,0,22.7-10.2,22.7-22.7s-10.2-22.7-22.7-22.7c-12.6,0-22.7,10.2-22.7,22.7
	C734.2,211.1,744.4,221.3,757,221.3z"/>
<path d="M658.3,412.2c12.6,0,22.7-10.2,22.7-22.7c0-12.6-10.2-22.7-22.7-22.7c-12.6,0-22.7,10.2-22.7,22.7
	C635.5,402,645.7,412.2,658.3,412.2z"/>
<path d="M658.3,284.9c12.6,0,22.7-10.2,22.7-22.7c0-12.6-10.2-22.7-22.7-22.7c-12.6,0-22.7,10.2-22.7,22.7
	C635.5,274.8,645.7,284.9,658.3,284.9z"/>
<path d="M559.5,303.1c-12.6,0-22.7,10.2-22.7,22.7c0,12.6,10.2,22.7,22.7,22.7s22.7-10.2,22.7-22.7
	C582.3,313.3,572.1,303.1,559.5,303.1z"/>
<path d="M855.7,412.2c12.6,0,22.7-10.2,22.7-22.7c0-12.6-10.2-22.7-22.7-22.7S833,376.9,833,389.4C833,402,843.1,412.2,855.7,412.2z
	"/>
<path d="M855.7,284.9c12.6,0,22.7-10.2,22.7-22.7c0-12.6-10.2-22.7-22.7-22.7S833,249.6,833,262.2
	C833,274.8,843.1,284.9,855.7,284.9z"/>
<path d="M977.2,325.8c0-12.6-10.2-22.7-22.7-22.7s-22.7,10.2-22.7,22.7c0,12.6,10.2,22.7,22.7,22.7
	C967,348.5,977.2,338.4,977.2,325.8z"/>
<g>
	<g>
		<g>
			<path d="M733.7,553.5c-8.4-10.1-19.4-16.9-32.5-20.2c-8.7-2.2-24.2-3.2-47.4-3.2H633c3.5,28.3-2.6,57.2-17.9,82.6
				c-3,5-6.4,9.8-10,14.3v107.7c0,5.5,4.4,9.9,9.9,9.9h19.5c5.5,0,9.9-4.4,9.9-9.9v-80.6h4c25.2,0,42.2-1.1,51.8-3.5
				c14.2-3.4,25.6-10.3,33.8-20.4c8.3-10.2,12.6-23.1,12.6-38.4C746.6,576.7,742.3,563.8,733.7,553.5z M703,604.7
				c-2.4,3.7-5.6,6.3-9.9,7.9c-3.4,1.3-10.7,3-25.5,3l-23.2-0.3V569h24.5c14.7,0,21.6,1.5,24.7,2.7c3.9,1.5,6.9,4.1,9.3,7.8
				c2.5,3.8,3.7,7.9,3.7,12.5C706.7,596.7,705.5,600.9,703,604.7z"/>
		</g>
		<g>
			<path d="M1254.4,444.5c-19.2-81.6-78.7-149.2-156.7-179.1C1058.9,110.8,917.8,0,757.3,0C631,0,516.9,68.4,455,172.7l25.3,48.2
				C529.9,115.9,637.2,45,757.3,45c143.6,0,269.5,101.8,299.3,242.1c1.7,7.9,7.4,14.2,15.1,16.7c69.1,22.5,122.3,80.3,139,150.9
				c2.9,12.1,15,19.6,27.1,16.8C1249.8,468.7,1257.3,456.6,1254.4,444.5z"/>
			<path d="M543.8,712.2h-36.5c-0.6-0.1-1.2-0.1-1.8-0.1c-41.9-1.3-80.4-14.7-112.4-36.7h-68.3c44,47.9,106.4,78.7,176.7,81.7
				c1.1,0.2,2.2,0.2,3.3,0.2h39c12.4,0,22.5-10.1,22.5-22.5C566.3,722.3,556.2,712.2,543.8,712.2z"/>
		</g>
	</g>
</g>
<g>
	<path d="M544.6,524.2L336.3,127c-17.2-32.7-64-32.7-81.2,0L46.7,524.2c-16,30.5,6.1,67.2,40.6,67.2h208.4l0,0H504
		C538.5,591.4,560.7,554.8,544.6,524.2z M273.1,266.5c0-12.9,10.4-23.3,23.3-23.3l0,0c12.9,0,23.3,10.4,23.3,23.3v133.9
		c0,12.9-10.4,23.3-23.3,23.3l0,0c-12.9,0-23.3-10.4-23.3-23.3V266.5z M295.7,523.5c-18.6,0-33.6-15.1-33.6-33.6
		c0-18.6,15.1-33.6,33.6-33.6c18.6,0,33.6,15.1,33.6,33.6C329.3,508.4,314.2,523.5,295.7,523.5z"/>
</g>
</svg>
