<?xml version="1.0" encoding="UTF-8"?>
<svg width="952px" height="472px" viewBox="0 0 952 472" version="1.1" xmlns="http://www.w3.org/2000/svg" xmlns:xlink="http://www.w3.org/1999/xlink">
    <!-- Generator: Sketch 55.2 (78181) - https://sketchapp.com -->
    <title>alarm_siren</title>
    <desc>Created with Sketch.</desc>
    <g id="Capability-Icons" stroke="none" stroke-width="1" fill="none" fill-rule="evenodd">
        <g id="alarm_siren" transform="translate(-4.000000, -244.000000)" fill="#000000" fill-rule="nonzero">
            <g transform="translate(4.000000, 244.000000)" id="Combined-Shape">
                <path d="M745,431.5 L749.966412,431.5 C761.012107,431.5 769.966412,440.454305 769.966412,451.5 C769.966412,462.545695 761.012107,471.5 749.966412,471.5 L745,471.5 L745,472 L207,472 L207,471.5 L202.554656,471.5 C191.508961,471.5 182.554656,462.545695 182.554656,451.5 C182.554656,440.454305 191.508961,431.5 202.554656,431.5 L207,431.5 L207,366.061793 C207,344.472918 224.530342,327 246.120612,327 L247,327 L247,90.9633736 C247,40.7083576 287.89977,0 338.298762,0 L611.706782,0 C662.105195,0 703,40.7077885 703,90.9633736 L703,327 L705.879388,327 C727.469658,327 745,344.472918 745,366.061793 L745,431.5 Z M247,431.5 L705,431.5 L705,367 L247,367 L247,431.5 Z M579,50 L579,68.563303 C603.529412,68.563303 623.481618,88.5694357 623.481618,113.158349 L623.481618,306 L642,306 L642,113.158349 C642,78.3314259 613.737132,50 579,50 Z"></path>
                <path d="M98.1487662,52.1355019 C62.5423438,87.7753364 40,136.341908 40,189.5 C40,242.66342 62.5428796,291.231147 98.1475868,326.863318 C105.955061,334.676814 105.950179,347.340113 98.1366824,355.147587 C90.3231859,362.955061 77.6598873,362.950179 69.8524132,355.136682 C27.1321839,312.383501 5.54223334e-13,253.928303 5.54223334e-13,189.5 C5.54223334e-13,125.077479 27.1310112,66.6248082 69.8512337,23.8644981 C77.6580559,16.0503503 90.321354,16.0444116 98.1355019,23.8512337 C105.94965,31.6580559 105.955588,44.3213541 98.1487662,52.1355019 Z M118.773859,307.694461 C93.3067706,272.361935 78.9985186,232.26648 78.9985186,189.5 C78.9985186,146.73352 93.3067706,106.638065 118.773859,71.3055392 C125.232531,62.344907 137.732347,60.3166678 146.692979,66.7753402 C155.653612,73.2340125 157.681851,85.7338286 151.223178,94.6944608 C130.441604,123.5264 118.998519,155.592909 118.998519,189.5 C118.998519,223.407091 130.441604,255.4736 151.223178,284.305539 C157.681851,293.266171 155.653612,305.765987 146.692979,312.22466 C137.732347,318.683332 125.232531,316.655093 118.773859,307.694461 Z M853.851234,52.1355019 C846.044412,44.3213541 846.05035,31.6580559 853.864498,23.8512337 C861.678646,16.0444116 874.341944,16.0503503 882.148766,23.8644981 C924.868989,66.6248082 952,125.077479 952,189.5 C952,253.928303 924.867816,312.383501 882.147587,355.136682 C874.340113,362.950179 861.676814,362.955061 853.863318,355.147587 C846.049821,347.340113 846.044939,334.676814 853.852413,326.863318 C889.45712,291.231147 912,242.66342 912,189.5 C912,136.341908 889.457656,87.7753364 853.851234,52.1355019 Z M833.22466,307.694461 C826.765987,316.655093 814.266171,318.683332 805.305539,312.22466 C796.344907,305.765987 794.316668,293.266171 800.77534,284.305539 C821.556915,255.4736 833,223.407091 833,189.5 C833,155.592909 821.556915,123.5264 800.77534,94.6944608 C794.316668,85.7338286 796.344907,73.2340125 805.305539,66.7753402 C814.266171,60.3166678 826.765987,62.344907 833.22466,71.3055392 C858.691748,106.638065 873,146.73352 873,189.5 C873,232.26648 858.691748,272.361935 833.22466,307.694461 Z"></path>
            </g>
        </g>
    </g>
</svg>