<?xml version="1.0" encoding="utf-8"?>
<!-- Generator: Adobe Illustrator 21.0.0, SVG Export Plug-In . SVG Version: 6.00 Build 0)  -->
<svg version="1.1" id="Layer_3" xmlns="http://www.w3.org/2000/svg" xmlns:xlink="http://www.w3.org/1999/xlink" x="0px" y="0px"
	 viewBox="0 0 1417.3 757.3" style="enable-background:new 0 0 1417.3 757.3;" xml:space="preserve">
<title>PM1</title>
<path d="M767.6,531.9c-8.7-2.2-24.3-3.2-47.6-3.2h-38.9c-5.5,0-10,4.5-10,10v195.5c0,5.5,4.5,10,10,10h19.5c5.5,0,10-4.5,10-10v-81
	h4c25.2,0,42.3-1.1,52-3.5c14.2-3.4,25.7-10.3,33.9-20.5c8.3-10.1,12.6-23.2,12.6-38.5s-4.3-28.2-12.9-38.6
	C791.9,542,780.4,534.9,767.6,531.9z M733.9,614.5l-23.3-0.3v-46.5h24.6c14.8,0,21.7,1.5,24.8,2.8c3.9,1.5,7.1,4.3,9.3,7.8
	c2.5,3.7,3.7,8.1,3.7,12.5c0.1,4.5-1.2,9-3.7,12.8c-2.4,3.7-5.9,6.5-9.9,8C756,612.9,748.8,614.5,733.9,614.5L733.9,614.5z"/>
<path d="M1025.8,528.7h-3.2c-3.8,0-7.3,2.2-8.9,5.6l-69.8,142.2l-70.5-142.3c-1.7-3.4-5.1-5.5-8.9-5.5h-3.2c-5,0-9.2,3.6-9.9,8.5
	l-28,195.5c-0.8,5.4,3,10.5,8.4,11.3c0.5,0.1,0.9,0.1,1.4,0.1h18.9c5,0,9.2-3.7,9.9-8.6L877,626.7l55.5,111.8
	c1.7,3.4,5.1,5.5,8.9,5.5h5c3.8,0,7.2-2.2,8.9-5.5l54.8-110.8l14.9,107.7c0.7,4.9,4.9,8.6,9.9,8.6h19.2c5.5,0,10-4.4,10-9.9
	c0-0.5,0-1-0.1-1.4l-28.2-195.5C1035,532.3,1030.8,528.7,1025.8,528.7z"/>
<path d="M1157.3,528.7h-38.4c-3.5,0-6.7,1.8-8.5,4.8l-11.7,19.2c-2.9,4.7-1.4,10.8,3.3,13.7c1.6,0.9,3.3,1.4,5.2,1.5h20.7v166.4
	c0,5.5,4.5,10,10,10h19.4c5.5,0,10-4.5,10-10V538.6C1167.3,533.1,1162.8,528.7,1157.3,528.7z"/>
<path d="M756.6,346.4c12.6,0,22.8-10.2,22.8-22.8c0-12.6-10.2-22.8-22.8-22.8c-12.6,0-22.8,10.2-22.8,22.8
	C733.7,336.2,744,346.4,756.6,346.4z"/>
<path d="M756.6,474.1c12.6,0,22.8-10.2,22.8-22.8c0-12.6-10.2-22.8-22.8-22.8c-12.6,0-22.8,10.2-22.8,22.8c0,0,0,0,0,0
	C733.8,463.9,744,474.1,756.6,474.1z"/>
<path d="M756.6,218.7c12.6,0,22.8-10.2,22.8-22.8c0-12.6-10.2-22.8-22.8-22.8c-12.6,0-22.8,10.2-22.8,22.8
	C733.7,208.5,744,218.7,756.6,218.7z"/>
<path d="M680.3,387.5c0-12.6-10.2-22.8-22.8-22.8s-22.8,10.2-22.8,22.8s10.2,22.8,22.8,22.8c0,0,0,0,0,0
	C670.1,410.3,680.3,400.1,680.3,387.5z"/>
<path d="M657.5,282.6c12.6,0,22.8-10.2,22.8-22.8c0-12.6-10.2-22.8-22.8-22.8s-22.8,10.2-22.8,22.8
	C634.7,272.3,644.9,282.6,657.5,282.6z"/>
<path d="M558.4,300.8c-12.6,0-22.8,10.2-22.8,22.8c0,12.6,10.2,22.8,22.8,22.8c12.6,0,22.8-10.2,22.8-22.8
	C581.2,311,571,300.8,558.4,300.8z"/>
<path d="M855.6,410.3c12.6,0,22.8-10.2,22.8-22.8s-10.2-22.8-22.8-22.8c-12.6,0-22.8,10.2-22.8,22.8
	C832.8,400.1,843,410.3,855.6,410.3z"/>
<path d="M855.6,282.6c12.6,0,22.8-10.2,22.8-22.8c0-12.6-10.2-22.8-22.8-22.8c-12.6,0-22.8,10.2-22.8,22.8
	C832.8,272.3,843,282.6,855.6,282.6z"/>
<path d="M977.6,323.6c0-12.6-10.2-22.8-22.8-22.8s-22.8,10.2-22.8,22.8c0,12.6,10.2,22.8,22.8,22.8
	C967.3,346.4,977.6,336.2,977.6,323.6z"/>
<g>
	<g>
		<g>
			<path d="M1250.2,444.5c-19.2-81.6-78.7-149.2-156.7-179.1C1054.7,110.8,913.6,0,753.1,0C626.8,0,512.7,68.4,450.8,172.7
				l25.3,48.2C525.7,115.9,633,45,753.1,45c143.6,0,269.5,101.8,299.3,242.1c1.7,7.9,7.4,14.2,15.1,16.7
				c69.1,22.5,122.3,80.3,139,150.9c2.9,12.1,15,19.6,27.1,16.8C1245.6,468.7,1253.1,456.6,1250.2,444.5z"/>
			<path d="M539.6,712.2h-36.5c-0.6-0.1-1.2-0.1-1.8-0.1c-41.9-1.3-80.4-14.7-112.4-36.7h-68.3c44,47.9,106.4,78.7,176.7,81.7
				c1.1,0.2,2.2,0.2,3.3,0.2h39c12.4,0,22.5-10.1,22.5-22.5C562.1,722.3,552,712.2,539.6,712.2z"/>
		</g>
	</g>
</g>
<g>
	<path d="M544.6,524.2L336.3,127c-17.2-32.7-64-32.7-81.2,0L46.7,524.2c-16,30.5,6.1,67.2,40.6,67.2h208.4l0,0H504
		C538.5,591.4,560.7,554.8,544.6,524.2z M273.1,266.5c0-12.9,10.4-23.3,23.3-23.3l0,0c12.9,0,23.3,10.4,23.3,23.3v133.9
		c0,12.9-10.4,23.3-23.3,23.3l0,0c-12.9,0-23.3-10.4-23.3-23.3V266.5z M295.7,523.5c-18.6,0-33.6-15.1-33.6-33.6
		c0-18.6,15.1-33.6,33.6-33.6c18.6,0,33.6,15.1,33.6,33.6C329.3,508.4,314.2,523.5,295.7,523.5z"/>
</g>
</svg>
