<?xml version="1.0" encoding="utf-8"?>
<!-- Generator: Adobe Illustrator 21.0.0, SVG Export Plug-In . SVG Version: 6.00 Build 0)  -->
<svg version="1.1" id="Layer_3" xmlns="http://www.w3.org/2000/svg" xmlns:xlink="http://www.w3.org/1999/xlink" x="0px" y="0px"
	 viewBox="0 0 1417.3 757.3" style="enable-background:new 0 0 1417.3 757.3;" xml:space="preserve">
<title>PM1</title>
<g>
	<g>
		<g>
			<g>
				<path d="M876.4,575.4l-15.3,11.7c-8.4-11-18.6-19.3-30.4-25c-11.8-5.7-24.8-8.5-38.9-8.5c-15.5,0-29.8,3.7-42.9,11.1
					c-13.2,7.4-23.4,17.4-30.6,29.9c-7.2,12.5-10.9,26.6-10.9,42.2c0,23.6,8.1,43.3,24.3,59.1s36.6,23.7,61.3,23.7
					c27.1,0,49.8-10.6,68.1-31.9l15.3,11.6c-9.7,12.3-21.7,21.8-36.2,28.5c-14.4,6.7-30.6,10.1-48.4,10.1
					c-33.9,0-60.6-11.3-80.2-33.9c-16.4-19.1-24.6-42.1-24.6-69c0-28.4,9.9-52.2,29.8-71.6c19.9-19.4,44.8-29,74.7-29
					c18.1,0,34.4,3.6,49,10.7C855.1,552.5,867.1,562.5,876.4,575.4z"/>
				<path d="M791.8,747.9c-36.7,0-66.2-12.5-87.7-37.3c-17.9-20.8-27-46.2-27-75.5c0-31,11-57.5,32.8-78.6
					c21.7-21.1,49.2-31.8,81.6-31.8c19.5,0,37.5,4,53.3,11.7c16,7.8,29.3,19,39.5,33.2c3.1,4.3,2.2,10.4-2,13.6L867.1,595
					c-4.3,3.3-10.5,2.5-13.8-1.8c-7.4-9.7-16.5-17.1-26.8-22.1c-10.4-5-22.1-7.5-34.7-7.5c-13.7,0-26.5,3.3-38.1,9.9
					c-11.5,6.5-20.6,15.3-26.9,26.2c-6.3,10.9-9.5,23.5-9.5,37.3c0,21,7,38.1,21.3,52.1C753,703.2,770.8,710,793,710
					c24.3,0,44.2-9.3,60.6-28.4c3.4-3.9,9.3-4.6,13.4-1.4l15.3,11.6c2.1,1.6,3.5,4,3.8,6.6s-0.4,5.3-2,7.3
					c-10.6,13.5-23.9,24-39.7,31.4C828.7,744.2,811,747.9,791.8,747.9z M763.8,547.8c-15.3,4-28.5,11.6-40.1,22.9
					c-18.1,17.6-26.8,38.7-26.8,64.5c0,24.7,7.3,45.2,22.2,62.6c7.9,9.1,17,16.1,27.4,21.1c-7.9-4.1-15.1-9.4-21.7-15.8
					c-18.1-17.7-27.3-39.9-27.3-66.2c0-17.3,4.1-33.2,12.2-47.2c8.1-14,19.7-25.3,34.3-33.6C750.4,552.6,757,549.8,763.8,547.8z"/>
			</g>
			<g>
				<path d="M915,539.5h19.4v81.3h98.7v-81.3h19.4v193.8h-19.4v-93.5h-98.7v93.5H915V539.5z"/>
				<path d="M1052.3,743.1h-19.4c-5.5,0-9.9-4.4-9.9-9.9v-83.7h-78.9v83.7c0,5.5-4.4,9.9-9.9,9.9h-19.4c-5.5,0-9.9-4.4-9.9-9.9
					V539.5c0-5.5,4.4-9.9,9.9-9.9h19.4c5.5,0,9.9,4.4,9.9,9.9v71.4h78.9v-71.4c0-5.5,4.4-9.9,9.9-9.9h19.4c5.5,0,9.9,4.4,9.9,9.9
					v193.8C1062.2,738.7,1057.8,743.1,1052.3,743.1z M924.8,623.4V637c0.9-3.3,3.5-5.9,6.8-6.8C928.3,629.3,925.7,626.7,924.8,623.4
					z M1035.7,630.2c3.3,0.9,5.8,3.5,6.7,6.8v-13.5C1041.5,626.7,1039,629.3,1035.7,630.2z"/>
			</g>
		</g>
		<g>
			<g>
				<path d="M1140.1,626.8h2.1v73.6h12.8v10h-12.8V735h-10.5v-24.5h-50.5L1140.1,626.8z M1131.8,700.4v-44.3l-31.3,44.3H1131.8z"/>
				<path d="M1142.3,740.1h-10.5c-2.8,0-5.1-2.3-5.1-5.1v-19.5h-45.4c-1.9,0-3.6-1.1-4.5-2.7c-0.9-1.7-0.7-3.7,0.4-5.3l58.9-83.7
					c1-1.4,2.5-2.2,4.2-2.2h2.1c2.8,0,5.1,2.3,5.1,5.1v68.5h7.7c2.8,0,5.1,2.3,5.1,5.1v10c0,2.8-2.3,5.1-5.1,5.1h-7.7V735
					C1147.3,737.8,1145.1,740.1,1142.3,740.1z M1136.9,729.9h0.3v-19.5c0-2.5,1.9-4.6,4.3-5c-2.4-0.4-4.3-2.5-4.3-5v-60.6l-8.8,12.5
					c1.3-1.2,3.2-1.6,4.9-1c2.1,0.7,3.5,2.6,3.5,4.8v44.3c0,2.5-1.9,4.6-4.3,5c2.4,0.4,4.3,2.5,4.3,5L1136.9,729.9L1136.9,729.9z
					 M1091.1,705.4h8.4c-1.5-0.3-2.7-1.3-3.4-2.6c-0.6-1.3-0.7-2.7-0.3-4L1091.1,705.4z M1110.3,695.3h16.4v-23.2L1110.3,695.3z"/>
			</g>
		</g>
	</g>
</g>
<g>
	<g>
		<g>
			<g>
				<circle cx="758.4" cy="325.8" r="18.1"/>
			</g>
			<g>
				<circle cx="758.4" cy="453" r="18.1"/>
			</g>
			<g>
				<circle cx="758.4" cy="198.6" r="18.1"/>
			</g>
			<g>
				<circle cx="659.7" cy="389.4" r="18.1"/>
			</g>
			<g>
				<circle cx="659.7" cy="262.2" r="18.1"/>
			</g>
			<g>
				<circle cx="561" cy="325.8" r="18.1"/>
			</g>
			<g>
				<circle cx="857.1" cy="389.4" r="18.1"/>
			</g>
			<g>
				<circle cx="857.1" cy="262.2" r="18.1"/>
			</g>
			<g>
				<circle cx="955.9" cy="325.8" r="18.1"/>
			</g>
		</g>
		<g>
			<path d="M1254.4,444.5c-19.2-81.6-78.7-149.2-156.7-179.1C1058.9,110.8,917.8,0,757.3,0C631,0,516.9,68.4,455,172.7l25.3,48.2
				C529.9,115.9,637.2,45,757.3,45c143.6,0,269.5,101.8,299.3,242.1c1.7,7.9,7.4,14.2,15.1,16.7c69.1,22.5,122.3,80.3,139,150.9
				c2.9,12.1,15,19.6,27.1,16.8C1249.8,468.7,1257.3,456.6,1254.4,444.5z"/>
			<path d="M543.8,712.2h-36.5c-0.6-0.1-1.2-0.1-1.8-0.1c-41.9-1.3-80.4-14.7-112.4-36.7h-68.3c44,47.9,106.4,78.7,176.7,81.7
				c1.1,0.2,2.2,0.2,3.3,0.2h39c12.4,0,22.5-10.1,22.5-22.5C566.3,722.3,556.2,712.2,543.8,712.2z"/>
		</g>
	</g>
</g>
<g>
	<path d="M544.6,524.2L336.3,127c-17.2-32.7-64-32.7-81.2,0L46.7,524.2c-16,30.5,6.1,67.2,40.6,67.2h208.4l0,0H504
		C538.5,591.4,560.7,554.8,544.6,524.2z M273.1,266.5c0-12.9,10.4-23.3,23.3-23.3l0,0c12.9,0,23.3,10.4,23.3,23.3v133.9
		c0,12.9-10.4,23.3-23.3,23.3l0,0c-12.9,0-23.3-10.4-23.3-23.3V266.5z M295.7,523.5c-18.6,0-33.6-15.1-33.6-33.6
		c0-18.6,15.1-33.6,33.6-33.6c18.6,0,33.6,15.1,33.6,33.6C329.3,508.4,314.2,523.5,295.7,523.5z"/>
</g>
</svg>
