<svg id="Layer_1" data-name="Layer 1" xmlns="http://www.w3.org/2000/svg" viewBox="0 0 1417.32 1417.32"><title>1Artboard 11</title><path d="M319.51,690.56A113.89,113.89,0,1,0,205.63,804.44,114,114,0,0,0,319.51,690.56ZM205.63,771.36a80.81,80.81,0,1,1,80.81-80.81A80.9,80.9,0,0,1,205.63,771.36Z"/><path d="M454.62,516.73A97.34,97.34,0,1,0,552,614.07,97.45,97.45,0,0,0,454.62,516.73Zm0,161.61a64.27,64.27,0,1,1,64.27-64.27A64.34,64.34,0,0,1,454.62,678.33Z"/><path d="M246.39,450.71a49,49,0,1,0-49-49A49.09,49.09,0,0,0,246.39,450.71Zm0-81.53a32.5,32.5,0,1,1-32.5,32.5A32.53,32.53,0,0,1,246.39,369.18Z"/><path d="M387.94,485.78a43.34,43.34,0,1,0-43.35-43.34A43.39,43.39,0,0,0,387.94,485.78Zm0-70.15a26.81,26.81,0,1,1-26.81,26.81A26.84,26.84,0,0,1,387.94,415.63Z"/><path d="M316.89,308.6a38,38,0,1,0-38-38A38,38,0,0,0,316.89,308.6Zm0-59.47a21.47,21.47,0,1,1-21.47,21.47A21.49,21.49,0,0,1,316.89,249.13Z"/><path d="M324.69,515.91a32.1,32.1,0,1,0-15.59,62.28,32.27,32.27,0,0,0,7.85,1,32.11,32.11,0,0,0,7.74-63.26Zm.21,44.49a15.57,15.57,0,0,1-21.35-5.34,15.56,15.56,0,1,1,21.35,5.34Z"/><path d="M328.8,862.4a49,49,0,1,0,49,49A49.09,49.09,0,0,0,328.8,862.4Zm0,81.53a32.5,32.5,0,1,1,32.5-32.5A32.53,32.53,0,0,1,328.8,943.94Z"/><path d="M470.35,908.86a43.34,43.34,0,1,0,43.34,43.34A43.39,43.39,0,0,0,470.35,908.86Zm0,70.15a26.81,26.81,0,1,1,26.81-26.81A26.84,26.84,0,0,1,470.35,979Z"/><path d="M399.3,818.36a38,38,0,1,0-38-38A38,38,0,0,0,399.3,818.36Zm0-59.47a21.47,21.47,0,1,1-21.47,21.46A21.49,21.49,0,0,1,399.3,758.89Z"/><path d="M407.09,1025.67A32.1,32.1,0,0,0,391.5,1088a32.4,32.4,0,0,0,7.85,1,32.11,32.11,0,0,0,7.74-63.26Zm.21,44.49a15.57,15.57,0,1,1-8-28.92,15.7,15.7,0,0,1,3.81.47,15.57,15.57,0,0,1,4.23,28.45Z"/><path d="M708.66,0C317.9,0,0,317.9,0,708.66s317.9,708.66,708.66,708.66,708.66-317.9,708.66-708.66S1099.42,0,708.66,0ZM229.32,1129.77a64.24,64.24,0,1,1,73.49,71.29A644,644,0,0,1,229.32,1129.77ZM708.66,1347A634.89,634.89,0,0,1,334.6,1225.63a97.33,97.33,0,1,0-130.81-126.77,635.14,635.14,0,0,1-133.5-390.2c0-352,286.37-638.37,638.37-638.37S1347,356.66,1347,708.66,1060.66,1347,708.66,1347Z"/><path d="M707.12,89.14A35.14,35.14,0,0,0,672,124.29V1298.36a35.14,35.14,0,1,0,70.28,0V124.29A35.14,35.14,0,0,0,707.12,89.14Z"/><path d="M984.8,704a38,38,0,1,0-38,38A38,38,0,0,0,984.8,704Zm-59.47,0a21.47,21.47,0,1,1,21.46,21.47A21.49,21.49,0,0,1,925.33,704Z"/><path d="M978.42,787.49a32.1,32.1,0,0,0-15.59,62.29,32.37,32.37,0,0,0,7.85,1,32.11,32.11,0,0,0,7.74-63.26Zm.21,44.49a15.56,15.56,0,0,1-21.35-5.35h0A15.56,15.56,0,1,1,978.63,832Z"/><path d="M1023.29,571.9a38,38,0,1,0,38,38A38,38,0,0,0,1023.29,571.9Zm0,59.47a21.47,21.47,0,1,1,21.47-21.47A21.49,21.49,0,0,1,1023.29,631.37Z"/><path d="M809.63,89.14a35.14,35.14,0,0,0-35.14,35.14V1298.36a35.14,35.14,0,0,0,70.29,0V124.29A35.14,35.14,0,0,0,809.63,89.14Z"/><path d="M606.27,89.14a35.14,35.14,0,0,0-35.14,35.14V1298.36a35.14,35.14,0,0,0,70.29,0V124.29A35.14,35.14,0,0,0,606.27,89.14Z"/><path d="M470.35,368.15a80.55,80.55,0,1,0-80.55-80.55A80.64,80.64,0,0,0,470.35,368.15Zm0-128a47.47,47.47,0,1,1-47.47,47.47A47.52,47.52,0,0,1,470.35,240.13Z"/></svg>