<?xml version="1.0" encoding="utf-8"?>
<!-- Generator: Adobe Illustrator 21.0.0, SVG Export Plug-In . SVG Version: 6.00 Build 0)  -->
<svg version="1.1" id="Layer_3" xmlns="http://www.w3.org/2000/svg" xmlns:xlink="http://www.w3.org/1999/xlink" x="0px" y="0px"
	 viewBox="0 0 1417.3 757.3" style="enable-background:new 0 0 1417.3 757.3;" xml:space="preserve">
<title>PM1</title>
<g>
	<g>
		<g>
			<path d="M435.7,756.6h-38.8c-1.1,0-2.2-0.1-3.3-0.2c-136-5.7-242.2-116.3-242.2-252.8c0-103.1,62.8-195.8,157.6-234.4
				c37.9-154.8,178.6-266,339.2-266c159.7,0,300.1,110.3,338.7,264c77.6,29.8,136.8,97,155.9,178.2c2.8,12-4.6,24.1-16.7,26.9
				c-12.1,2.8-24.1-4.6-26.9-16.7c-16.5-70.3-69.5-127.8-138.2-150.2c-7.6-2.5-13.3-8.8-15-16.6C916.2,149.3,791,48,648.1,48
				c-143.7,0-269,101.9-298.1,242.4c-1.6,7.7-7.1,14-14.5,16.6c-83.4,29.2-139.4,108.2-139.4,196.6c0,113.1,88.5,204.5,201.5,208.1
				c0.6,0,1.2,0.1,1.8,0.1h36.3c12.4,0,22.4,10,22.4,22.4S448,756.6,435.7,756.6z"/>
		</g>
	</g>
	<g>
		<g>
			<g>
				<circle cx="649.2" cy="327.3" r="18"/>
			</g>
		</g>
		<g>
			<g>
				<circle cx="649.2" cy="453.9" r="18"/>
			</g>
		</g>
		<g>
			<g>
				<circle cx="649.2" cy="200.7" r="18"/>
			</g>
		</g>
		<g>
			<g>
				<circle cx="551" cy="390.6" r="18"/>
			</g>
		</g>
		<g>
			<g>
				<circle cx="551" cy="264" r="18"/>
			</g>
		</g>
		<g>
			<g>
				<circle cx="452.8" cy="327.3" r="18"/>
			</g>
		</g>
		<g>
			<g>
				<circle cx="747.4" cy="390.6" r="18"/>
			</g>
		</g>
		<g>
			<g>
				<circle cx="747.4" cy="264" r="18"/>
			</g>
		</g>
		<g>
			<g>
				<circle cx="845.7" cy="327.3" r="18"/>
			</g>
		</g>
	</g>
	<g>
		<g>
			<g>
				<path d="M766.9,576.4l-15.3,11.7c-8.4-11-18.6-19.3-30.4-25c-11.8-5.7-24.8-8.5-38.9-8.5c-15.5,0-29.8,3.7-42.9,11.1
					c-13.2,7.4-23.4,17.4-30.6,29.9c-7.2,12.5-10.9,26.6-10.9,42.2c0,23.6,8.1,43.3,24.3,59.1c16.2,15.8,36.6,23.7,61.3,23.7
					c27.1,0,49.8-10.6,68.1-31.9l15.3,11.6c-9.7,12.3-21.7,21.8-36.2,28.5c-14.4,6.7-30.6,10.1-48.4,10.1
					c-33.9,0-60.6-11.3-80.2-33.9c-16.4-19.1-24.6-42.1-24.6-69c0-28.4,9.9-52.2,29.8-71.6c19.9-19.4,44.8-29,74.7-29
					c18.1,0,34.4,3.6,49,10.7C745.6,553.5,757.6,563.5,766.9,576.4z"/>
				<path d="M682.3,748.9c-36.7,0-66.2-12.5-87.7-37.3c-17.9-20.8-27-46.2-27-75.5c0-31,11-57.5,32.8-78.6
					c21.7-21.1,49.2-31.8,81.6-31.8c19.5,0,37.5,4,53.3,11.7c16,7.8,29.3,19,39.5,33.2c3.1,4.3,2.2,10.4-2,13.6L757.6,596
					c-4.3,3.3-10.5,2.5-13.8-1.8c-7.4-9.7-16.5-17.1-26.8-22.1c-10.4-5-22.1-7.5-34.7-7.5c-13.7,0-26.5,3.3-38.1,9.9
					c-11.5,6.5-20.6,15.3-26.9,26.2c-6.3,10.9-9.5,23.5-9.5,37.3c0,21,7,38.1,21.3,52.1c14.4,14.1,32.2,20.9,54.4,20.9
					c24.3,0,44.2-9.3,60.6-28.4c3.4-3.9,9.3-4.6,13.4-1.4l15.3,11.6c2.1,1.6,3.5,4,3.8,6.6c0.3,2.6-0.4,5.3-2,7.3
					c-10.6,13.5-23.9,24-39.7,31.4C719.2,745.2,701.5,748.9,682.3,748.9z M654.3,548.8c-15.3,4-28.5,11.6-40.1,22.9
					c-18.1,17.6-26.8,38.7-26.8,64.5c0,24.7,7.3,45.2,22.2,62.6c7.9,9.1,17,16.1,27.4,21.1c-7.9-4.1-15.1-9.4-21.7-15.8
					c-18.1-17.7-27.3-39.9-27.3-66.2c0-17.3,4.1-33.2,12.2-47.2c8.1-14,19.7-25.3,34.3-33.6C640.9,553.6,647.5,550.8,654.3,548.8z"
					/>
			</g>
			<g>
				<path d="M805.5,540.5h19.4v81.3h98.7v-81.3h19.4v193.8h-19.4v-93.5h-98.7v93.5h-19.4V540.5z"/>
				<path d="M942.8,744.1h-19.4c-5.5,0-9.9-4.4-9.9-9.9v-83.7h-78.9v83.7c0,5.5-4.4,9.9-9.9,9.9h-19.4c-5.5,0-9.9-4.4-9.9-9.9V540.5
					c0-5.5,4.4-9.9,9.9-9.9h19.4c5.5,0,9.9,4.4,9.9,9.9v71.4h78.9v-71.4c0-5.5,4.4-9.9,9.9-9.9h19.4c5.5,0,9.9,4.4,9.9,9.9v193.8
					C952.7,739.7,948.3,744.1,942.8,744.1z M815.3,624.4V638c0.9-3.3,3.5-5.9,6.8-6.8C818.8,630.3,816.2,627.7,815.3,624.4z
					 M926.2,631.2c3.3,0.9,5.8,3.5,6.7,6.8v-13.5C932,627.7,929.5,630.3,926.2,631.2z"/>
			</g>
		</g>
		<g>
			<g>
				<path d="M1030.6,627.8h2.1v73.6h12.8v10h-12.8V736h-10.5v-24.5h-50.5L1030.6,627.8z M1022.3,701.4v-44.3L991,701.4H1022.3z"/>
				<path d="M1032.8,741.1h-10.5c-2.8,0-5.1-2.3-5.1-5.1v-19.5h-45.4c-1.9,0-3.6-1.1-4.5-2.7c-0.9-1.7-0.7-3.7,0.4-5.3l58.9-83.7
					c1-1.4,2.5-2.2,4.2-2.2h2.1c2.8,0,5.1,2.3,5.1,5.1v68.5h7.7c2.8,0,5.1,2.3,5.1,5.1v10c0,2.8-2.3,5.1-5.1,5.1h-7.7V736
					C1037.8,738.8,1035.6,741.1,1032.8,741.1z M1027.4,730.9h0.3v-19.5c0-2.5,1.9-4.6,4.3-5c-2.4-0.4-4.3-2.5-4.3-5v-60.6l-8.8,12.5
					c1.3-1.2,3.2-1.6,4.9-1c2.1,0.7,3.5,2.6,3.5,4.8v44.3c0,2.5-1.9,4.6-4.3,5c2.4,0.4,4.3,2.5,4.3,5V730.9z M981.6,706.4h8.4
					c-1.5-0.3-2.7-1.3-3.4-2.6c-0.6-1.3-0.7-2.7-0.3-4L981.6,706.4z M1000.8,696.3h16.4v-23.2L1000.8,696.3z"/>
			</g>
		</g>
	</g>
</g>
</svg>
