<?xml version="1.0" encoding="UTF-8"?>
<svg width="769px" height="930px" viewBox="0 0 769 930" version="1.1" xmlns="http://www.w3.org/2000/svg" xmlns:xlink="http://www.w3.org/1999/xlink">
    <!-- Generator: Sketch 55.2 (78181) - https://sketchapp.com -->
    <title>measure_dewpoint</title>
    <desc>Created with Sketch.</desc>
    <g id="Capability-Icons" stroke="none" stroke-width="1" fill="none" fill-rule="evenodd">
        <g id="measure_dewpoint" transform="translate(-89.000000, -15.000000)" fill="#000000">
            <g transform="translate(89.598000, 15.598000)">
                <path d="M322.679295,115.869289 C322.679295,52.0947288 270.632585,0 206.897082,0 C143.169544,0 91.1247051,52.0966005 91.1247051,115.869289 L91.1247051,550.148794 C34.7982979,588.247503 0,651.982381 0,721.735778 C0,836.091093 92.6274475,928.804 206.897082,928.804 C321.174856,928.804 413.804,836.092791 413.804,721.735778 C413.804,651.982381 379.005702,588.247503 322.679295,550.148794 L322.679295,115.869289 Z M279.875295,561.911222 C279.875295,569.468925 283.86138,576.466303 290.362335,580.32071 C339.955323,609.724324 371,663.024661 371,721.735778 C371,812.461276 297.52637,886 206.897082,886 C116.276285,886 42.804,812.459929 42.804,721.735778 C42.804,663.024661 73.8486766,609.724324 123.441665,580.32071 C129.94262,576.466303 133.928705,569.468925 133.928705,561.911222 L133.928705,115.869289 C133.928705,75.7270771 166.819071,42.804 206.897082,42.804 C246.983748,42.804 279.875295,75.7258934 279.875295,115.869289 L279.875295,561.911222 Z" id="Stroke-16" fill-rule="nonzero"></path>
                <path d="M239.022701,603.365495 L239.022701,335.402 L173.771438,335.402 L173.771438,603.365495 C120.560646,617.676421 81.402,666.127023 81.402,723.724814 C81.402,792.574633 137.364054,848.402 206.402,848.402 C275.430085,848.402 331.402,792.574633 331.402,723.724814 C331.402,666.127023 292.233493,617.676421 239.022701,603.365495" id="Fill-18"></path>
                <path d="M539.504298,392.747319 C544.708926,399.535678 564.460561,423.250596 567.887537,428.003924 C569.484882,430.21866 571.894499,433.838553 574.91423,438.507102 C576.890115,441.56185 578.726805,444.443015 580.555585,447.333905 C589.605021,461.700738 593.902,478.889679 593.902,498.282412 C593.902,551.090794 551.154536,593.902 498.406899,593.902 C445.664309,593.902 402.902,551.086035 402.902,498.282412 C402.902,479.346931 406.93585,461.997109 415.306688,448.086836 C417.592632,444.309435 425.981705,431.955233 429.698467,426.9314 C432.884853,422.621676 451.89584,399.794283 457.304515,392.740072 C477.918566,365.854401 488.906899,342.857214 488.906899,320.402 C488.906899,307.735333 507.906899,307.735333 507.906899,320.402 C507.906899,342.866372 518.89344,365.864725 539.504298,392.747319 Z M713.5106,157.754649 C718.720128,164.551025 738.464254,188.261501 741.887439,193.009394 C744.675243,196.874584 750.560637,205.965685 754.555501,212.338676 C763.604991,226.705063 767.902,243.893483 767.902,263.285612 C767.902,316.084032 725.152925,358.902 672.416697,358.902 C619.669288,358.902 576.902,316.082642 576.902,263.285612 C576.902,244.346278 580.937125,226.988843 589.300286,213.102313 C591.55865,209.359486 599.940383,197.016553 603.698567,191.927096 C606.889105,187.611917 625.905811,164.783403 631.311048,157.735594 C651.927741,130.853786 662.916697,107.859614 662.916697,85.402 C662.916697,72.7353333 681.916697,72.7353333 681.916697,85.402 C681.916697,107.867262 692.902592,130.869339 713.5106,157.754649 Z M713.5106,627.754649 C718.720128,634.551025 738.464254,658.261501 741.887439,663.009394 C744.657974,666.850634 750.178946,675.381577 754.555501,682.338676 C763.604991,696.705063 767.902,713.893483 767.902,733.285612 C767.902,786.084032 725.152925,828.902 672.416697,828.902 C619.669288,828.902 576.902,786.082642 576.902,733.285612 C576.902,714.350723 580.935877,697.001431 589.300286,683.102313 C591.569046,679.342256 599.955434,666.996197 603.698567,661.936906 C606.886689,657.624994 625.902438,634.795271 631.310684,627.742617 C651.927192,600.857545 662.916697,577.859987 662.916697,555.402 C662.916697,542.735333 681.916697,542.735333 681.916697,555.402 C681.916697,577.867262 692.902592,600.869339 713.5106,627.754649 Z" id="Combined-Shape"></path>
            </g>
        </g>
    </g>
</svg>