<svg height="960" viewBox="0 0 960 960" width="960" xmlns="http://www.w3.org/2000/svg"><path d="m470.402256 3c117.363874 0 207.321278 4.19437585 250.16893 10.0157833 18.281617 2.4837941 28.56264 3.968948 37.966295 5.6195197l.815672.1439733.406502.0723524 1.215735.218776c1.078833.1957266 2.154198.3950375 3.237197.5997471l.813855.1545727.408326.0780987c16.186232 3.1029848 29.487233 6.7662214 41.534855 11.8122463 30.737185 12.8739595 51.794435 34.6746482 63.196438 67.2826813 2.995585 8.5669282 5.641399 16.1470212 7.938228 22.7425842l.232711.668665.572292.193682c6.699304 2.283589 13.302009 5.003407 19.394557 8.050386l.957681.483805c8.812255 4.497004 16.626269 9.694947 23.208105 15.874668 9.776701 9.179396 16.722878 20.316269 18.959871 33.930496 2.262983 13.7724 3.148343 39.046077 3.449962 79.195803l.019994 2.82727.009584 1.486881.009754 1.609714c.052068 8.868121.078136 18.024371.080945 29.728582l.000255 10.876029c0 16.893535-.455215 38.96269-1.179421 61.046929l-.119767 3.580546c-1.241005 36.386981-3.185776 72.056773-4.999817 83.88452-2.418967 15.771937-10.584559 29.391973-23.045779 39.421202-1.687706 1.358325-3.437492 2.640759-5.248836 3.850942l-.40638.267545v291.582542c0 54.141908-27.605587 94.790211-75.219871 120.332404l-1.448974.769381c-35.362709 18.58571-79.854618 28.769724-136.365102 34.242894-4.964046.480779-9.533509.899168-14.023278 1.275622l-1.415541.11751c-.471208.038721-.941901.077002-1.412445.114865l-1.411555.112364c-17.648047 1.389504-35.603757 2.226225-73.234956 3.768239-12.229374.501124-19.978899.856126-27.294328 1.272996-51.898746 2.957448-151.209898 1.959014-245.31048-2.382722-108.609439-5.011164-188.07768-12.981735-219.29059-24.369935-34.0802355-12.43436-58.4778584-30.746689-73.4290437-55.039775-12.5245589-20.350238-17.1438363-41.960231-17.1438363-67.222908l-.001-389.243477-.3854143-.257201c-11.9546302-8.099657-19.7710625-21.283013-20.92617802-35.991668l-.03928371-.538795-.09177896-1.372099c-3.00219205-45.100697-4.52571759-79.833981-4.55588337-104.491973v-2.413613c.02349739-23.954473.51987479-44.047547 1.37758992-62.500135.09206892-1.980739.17133844-3.628941.25473812-5.271233l.05067086-.987278c.15431206-2.975387.33297617-6.143275.63472543-11.40855.25970114-4.531569.35163351-6.476445.35163351-7.020357 0-9.759033 2.97437434-17.997734 7.62476035-25.248277 2.67866366-4.176377 5.76523727-7.759917 9.32190057-11.199074 4.3178963-4.175241 8.9570257-7.823499 15.4038147-12.443844l.862313-.615935c.804706-.573069 1.6298665-1.156496 2.6465164-1.87216l.8264079-.581284c2.1156714-1.487261 3.6813818-2.594181 4.8827142-3.456129l.0167534-.012395.0631708-.179862c.0365014-.105469.0736555-.21345.1114751-.32399l.1154686-.339345c.1705313-.50382 1.6253331-5.077832 3.1078534-9.648743l.2341293-.721104c.8969742-2.759577 1.779875-5.43948 2.3700819-7.13652 3.2177941-9.2522266 6.7497512-17.7636298 11.2218143-26.5286866 11.3663704-22.2776111 27.0768395-37.839634 50.6590826-48.5946698 17.662589-8.0552889 39.778578-13.4796104 71.428213-17.9176394.320597-.0765151.643986-.151316.969785-.2252358 6.234692-1.4145767 12.412095-2.3483116 22.792726-3.6287334 7.767107-.958051 15.517945-1.34315977 22.800492-1.0672542 54.856114-4.13791512 144.52597-7.0542168 243.272964-7.0542168zm396.757201 811.625293-1.848952.580267c-61.241129 19.181319-162.11649 31.134958-303.066405 36.069813-145.926085 5.109077-312.144793-6.687737-498.6806183-35.369585 2.5935868 27.018888 15.4522674 54.460779 63.7195723 72.071369 55.819616 20.366091 347.772726 30.140952 448.615189 24.394448 93.656672-5.337022 267.02863-.171619 291.261214-97.746312zm-745.946995-485.705293.000061 26.643286c0 1.79875-.474917 3.486578-1.3062 4.944932-.030516 7.640176-.069587 15.641092-.117782 24.000619l-.009661 1.659656c-.004655.852892-.048278 1.705125-.130732 2.554035-1.494962 15.391541-15.184178 26.656944-30.5823649 25.161335-7.7627741-.756605-16.4344535-2.292081-26.066042-4.589675l.0006043 386.349688c.365278.015917.7333793.051975 1.1030872.109066 186.3836404 28.781724 352.2055384 40.619571 497.4408684 35.534678 144.993391-5.076423 246.743318-17.636589 304.752094-37.444388 1.212001-.413853 2.448587-.581695 3.655435-.530192l.04817-3.012498-.000263-296.352423c-11.381741.887951-21.50731-8.117101-21.507143-19.948401l.001406-144.803718-.896917.141633c-58.138582 9.06645-138.813322 14.161392-242.311254 15.3807l-3.619651.040963c-135.492869 1.470721-295.439632-3.798726-479.875875-15.800911zm628.463784 79.323631v341.139074c0 28.908903-23.515622 52.675171-52.556027 53.403589l-280.016709 7.023642c-29.494254.739803-53.559029-22.721357-53.559029-52.222059v-346.131765c0-29.241324 23.658759-53.08707 52.899463-53.318174l280.017881-2.215869c29.298497-.228164 53.214421 23.154306 53.214421 52.321562zm-52.510862-32.321552h-.546666l-280.016709 2.215235c-18.257169.144295-33.057528 15.061629-33.057528 33.318798v346.131765c0 18.257168 14.800359 32.686291 33.057528 32.228348l280.016709-7.023642c18.257168-.457944 33.057528-15.416055 33.057528-33.409878v-341.139074c0-17.633946-14.214265-31.883517-31.966337-32.312636zm-119.164855 221.657443c45.272533 0 82.225935 35.798609 82.225935 80.281375s-36.953402 80.281375-82.225935 80.281375-82.225936-35.798609-82.225936-80.281375 36.953403-80.281375 82.225936-80.281375zm0 20c-34.366435 0-62.225936 26.988891-62.225936 60.281375s27.859501 60.281375 62.225936 60.281375 62.225935-26.988891 62.225935-60.281375-27.8595-60.281375-62.225935-60.281375zm290.496-302.672777-.003935 159.093255c.508962-.116654 1.011654-.236034 1.508076-.358142l-.000235-1.056194c17.71266-4.372589 27.433619-12.19636 29.162877-23.471312 1.63356-10.650995 3.446009-45.816829 4.611254-81.078638l.112498-3.467824c.680507-21.376206 1.112936-42.493165 1.112936-57.901574l.002383-.624539c-10.566192 3.236336-22.733325 6.190741-36.505854 8.864968zm-397.768067-271.9067343.323756-.0000107c-80.062772 0-147.112995 1.8692599-196.039051 4.3196321.113914.7494237.211892 1.5076119.298652 2.2741793 1.015658 8.9737409-4.108508 17.5147978-12.504202 20.8422444-22.927467 9.0867917-43.965002 13.731201-63.193126 13.731201-18.634291 0-31.882409-1.3174771-41.013446-4.5715484-7.306881-2.6039884-12.405054-9.1750824-13.182691-16.805329-28.703782 7.9977367-41.181187 19.1510368-50.355167 37.2716876-13.7420271 27.143558-13.7420271 46.864926-23.7002067 55.164515-3.4853629 2.904857-8.2911481 6.214408-13.0661031 9.616817l-.8180095.584122-.8158928.585591-.8122632.586713c-7.964451 5.773708-15.1830485 11.659374-15.1830485 16.163234 0 7.557325-2.6145767 33.29206-2.6672164 87.834519v2.378813c.0294873 23.772371 1.5185971 57.975403 4.4673293 102.609097l.0909931 1.369437c.0308681.461112.10108.913603.2078549 1.353532.846819 1.348602 2.0929484 2.439551 3.6107586 3.093011 3.63027 1.562303 9.1708874 3.276426 16.621545 5.143083l.0004179 2.146883c1.0517534.269753 2.1433876.542722 3.2749048.818902 9.3555247 2.283496 17.5994175 3.772702 24.7316557 4.467851 4.3975833.427132 8.308788-2.791554 8.7359201-7.189137.0235582-.242546.0360218-.486041.037352-.729725.1269777-21.609506.1935548-40.834612.1997294-57.675318l.0001625-4.6136c-.0017467-5.72505-.0108547-11.159511-.026468-16.302126l1.2598599.083719.000061-126.230147c0-5.522847 4.477152-10 10-10 5.522847 0 10 4.477153 10 10l.00216 80.433406c184.365149 11.974988 344.09237 17.230056 479.16362 15.76899 148.611883-1.607535 249.475378-11.177947 301.871166-28.428476.831634-.273803 1.673494-.43251 2.508317-.484831-.319154-26.130236-1.06013-49.809524-2.779151-60.346131-2.610801-16.002705-34.711679-28.576321-54.062136-31.695478-.090014-.263582-.181554-.531501-.27462-.803759-.027447-.004443-.054306-.008763-.081141-.013066-3.167811-9.204011-8.218782-23.721308-15.152912-43.551891-6.819463-19.5026486-17.754024-31.6545701-33.010273-39.8516376-.086074-.0480663-.173648-.0946788-.261362-.1411631l.261362.1411631c-.311941-.1676036-.625689-.3335538-.941245-.4978796l.679883.3567165c-20.204643-10.707472-47.880796-14.6121485-83.497787-19.4888634-13.507067-1.8494015-36.314816-3.9441888-68.995498-5.714196-.902094-.0490901-1.813504-.0976635-2.732517-.1459792-.481163-.025398-.962567-.0505964-1.446032-.0757221l1.446032.0757221c-41.696673-2.1921398-99.044163-3.8539059-173.181927-3.858767zm434.202634 226.2360373-1.499281.46174c-56.047563 17.056255-156.774457 26.24533-302.837185 27.825291-135.302669 1.46357-295.090175-3.779615-479.380433-15.725792l.0003 16.359344c184.846778 12.027414 344.954044 17.307181 480.303665 15.843104 148.611882-1.607536 249.475378-11.177947 301.871166-28.428476.52914-.174212 1.062419-.301828 1.595392-.385094-.00928-5.244331-.025857-10.590767-.053624-15.950117zm-460.211445-191.8208516c85.975783 0 150.673865 9.2418801 196.725169 26.6167946 37.804669 14.263503 62.627158 33.844952 76.276499 57.867467 33.297319-.898182 68.877286-1.927139 106.736908-3.086134 4.838634-.148125 8.979497 3.166482 10.045348 7.704781l.507598-.019443c.003358.164565.007472.330896.012342.498994l-.419732-.000288c.023697.129067.044932.259028.06365.389834l.801191-.030617.002438.111833-.792537-.001428c.045861.339896.074755.685401.08578 1.035665.164218 5.520262-4.173844 10.132313-9.694105 10.301304-44.033607 1.347999-84.988999 2.520313-122.866723 3.516936-11.897148 1.252107-26.111163 1.854673-56.254862 2.465595-3.451999.069962-6.350989.12891-9.183756.184217l-1.695608.032806c-15.447427.295995-31.825279.527229-128.659014 1.898034-50.953492.721312-150.851422-2.526775-299.893719-9.741132-1.150445-.055687-2.225484-.293373-3.208548-.678741-13.530234-.732809-27.388921-1.506855-41.574171-2.321814-5.513755-.316771-9.726743-5.043348-9.409971-10.557103.316771-5.513756 5.043348-9.726744 10.557103-9.409972 13.312352.76481 26.335682 1.493468 39.069935 2.185976 41.287172-53.022497 122.425559-78.9635646 242.768785-78.9635646zm-331.391078 89.3187726c2.602395.10132 5.193987.201843 7.774775.30157l-7.995348-.005539zm366.842076-.438087-.039801.020108c10.338579.037834 20.11286.005284 29.322692-.097641 49.26614-.550576 110.17122-1.764652 182.711238-3.642266.495395-.036278.981636-.072903 1.460685-.11023l-.043202-.054326c-2.659066-3.35754-5.66197-6.615495-9.02867-9.771958l-.115591-.107569-1.935369-.045767c-77.260391-1.841214-139.547999-2.953157-186.846387-3.335964l-1.415136-.011282c-1.23678 7.364248-6.182817 13.010318-14.070459 17.156895zm-174.614893-15.268905-.845774.016751c-21.928401.449689-45.398591.973582-70.410415 1.571679-.079358.001897-.158737.00285-.238118.002857l-.500449-.000264-.839647.754618c-1.452335 1.315087-2.866007 2.653468-4.241122 4.015193l-.239769.238189.958222.046109c32.046413 1.516499 61.65684 2.836386 88.829067 3.959694-4.917177-2.866423-8.903424-6.171131-11.972182-9.936969-.177111-.217342-.34371-.440179-.499813-.667857zm89.186244-42.027977-1.003243.005339c-9.421515.050275-18.234674.358899-25.284913.871055-4.424433.321407-8.015638.731629-10.139389 1.072475l.170607-.188554c-4.531679 5.026108-7.640674 8.474312-10.553657 11.705117l-.600291.665786-.816319.905383-.689577.764814c-4.22217 4.682831-8.662093 9.607174-17.144268 19.0148l-.548331.608377.022108.013428c12.692954 7.417678 37.95029 11.8416 75.268788 12.154788l1.387681.009718 3.017087.008454c24.749202 0 43.127014-1.695382 54.871699-4.945779 4.365101-1.208062 7.594518-2.575816 9.666556-3.954026-.774305-.443372-1.490822-.991432-2.128888-1.635124-11.101124-11.199011-16.446109-16.591127-20.995398-21.180531l-.388106-.391528c-.128797-.129932-.257059-.259325-.384903-.388297l-.382394-.385766c-.31781-.320611-.633728-.639316-.949564-.957937l-.511867-.51638c-2.988789-3.015144-6.057373-6.110786-10.731321-10.825946l-.308097-.310666-.092072-.017291c-1.839312-.348278-5.540645-.807776-10.272076-1.169015l-.408055-.030718c-7.111403-.527761-16.071469-.846781-25.612457-.896793zm-60.289943-1.942702-2.201854.453056c-27.339819 5.733945-50.671882 13.896132-70.017272 24.449147 16.985666-.385456 33.18786-.733279 48.60796-1.043427l2.119109-.043074.091027-.100276c3.652071-4.047073 7.007968-7.765915 10.347839-11.466974l1.335758-1.480211c3.142532-3.482374 6.303937-6.98564 9.717433-10.768241zm116.687677-9.6234363.27739.2824188c4.974468 5.0227705 8.36228 8.4434785 11.663916 11.7771735l.601707.607549.390402.394194c.130204.131468.260508.263036.391004.3948l.392157.395965.393864.397689.396125.399971c4.176031 4.216581 8.818024 8.903647 16.814135 16.977401l-.501262-.002779c43.417934.231658 101.134434 1.160901 173.155301 2.787545-6.002912-3.070763-12.550237-5.972465-19.667992-8.69688l-1.061762-.403489c-42.389028-15.993157-102.712495-24.8657413-183.244985-25.3115583zm-196.208797-49.0171928-1.880307.1128927c-22.407838 1.3554416-39.679556 2.8128853-51.093182 4.1903913-14.053876 1.6961567-26.170487 3.4997906-36.672856 5.5061958-.002882.8182204.006211 1.6621408.030347 2.5311427 6.380858 2.2739769 17.814042 3.4109654 34.299552 3.4109654 16.485511 0 35.093581-4.1080619 55.82421-12.3241856-.135535-1.1975088-.30479-2.3399762-.507764-3.4274023z"/></svg>