<svg height="960" viewBox="0 0 960 960" width="960" xmlns="http://www.w3.org/2000/svg"><path d="m486 7c24.852814 0 45 20.1471863 45 45v701.909l.370125.159745c16.633907 7.344919 28.310888 23.859914 28.623444 43.137488l.006431.793767v105.438281c-.01089 24.031006-17.79109 44.350671-41.613977 47.551556-10.23458 1.373584-22.762043 2.010163-37.886023 2.010163-15.125282 0-27.652823-.63668-37.888529-2.010841-23.818901-3.1983-41.60058-23.518961-41.611471-47.568997v-105.420162c0-19.882251 12.088312-36.941125 29.316234-44.227922l.683766-.283078v-701.489c0-24.6042856 19.746257-44.59658571 44.255843-45zm24.815994 785.113915c0 13.807119-11.192881 25-25 25h-10.117997c-13.807119 0-25-11.192881-25-25l-.000997-2.113915h-1.697c-4.418278 0-8 3.581722-8 8v105.420162c.001815 4.005168 2.965182 7.391779 6.934724 7.924792 8.218621 1.103364 19.073713 1.655046 32.565276 1.655046s24.346655-.551682 32.565321-1.654711c3.969497-.533348 6.932864-3.919959 6.934679-7.925127v-105.420162c0-4.418278-3.581722-8-8-8h-1.185zm-25-745.113915h-9.815994c-2.761424 0-5 2.2385763-5 5v738h-.303l.000997 2.113915c0 2.761424 2.238576 5 5 5h10.117997c2.761424 0 5-2.238576 5-5v-740.113915c0-2.7614237-2.238576-5-5-5z"/></svg>