<svg height="877" viewBox="0 0 960 877" width="960" xmlns="http://www.w3.org/2000/svg"><path d="m152 95c16.360301 0 31.939998 1.2672416 44.323448 3.6486743 7.578471 1.4573977 14.198606 3.3418387 20.145903 6.0458757 4.989559 2.268585 9.561462 5.095339 13.867255 9.141856 8.104998 7.61695 13.663394 18.142445 13.663394 31.163594v677.92c0 27.65842-22.42158 50.08-50.08 50.08h-83.84c-27.6584203 0-50.08-22.42158-50.08-50.08v-677.92c0-.561386.0118183-1.122709.035447-1.683598l.0069665-.165368c.0235761-.559641.0589051-1.118725.1059634-1.676883 1.0368014-12.29748 6.8061897-21.790187 14.6842147-28.699177 4.1896283-3.674284 8.5951007-6.279324 13.3790171-8.385066 5.8635723-2.580976 12.4016513-4.4040512 19.8587293-5.8163869 12.315473-2.332493 27.74125-3.5735211 43.929662-3.5735211zm-51.457565 280.524535-.000301 450.665148c1.357947 3.962153 5.115294 6.810317 9.537866 6.810317h83.84c5.56703 0 10.08-4.51297 10.08-10.08v-447.377l-3.324855.1642c-16.070682.762234-32.141364 1.143351-48.212045 1.143351-17.306888 0-34.613777-.442006-51.920665-1.326016zm-.541611-57.675335-.000452 37.681552c.516382-.013359 1.037401-.006989 1.562304.019822 16.967196.866659 33.933893 1.299977 50.900424 1.299977 16.96653 0 33.933228-.433318 50.900423-1.299977.212921-.010876.425202-.018388.636794-.022584l-.000317-37.63199-2.334381.120205c-16.400474.813297-32.801414 1.219957-49.202519 1.219957-17.487735 0-34.975282-.46233-52.462276-1.386962zm.541611-76.84182v56.842383c17.306888.924266 34.613777 1.386399 51.920665 1.386399 17.1792 0 34.3584-.455339 51.5376-1.366017l-.0007-56.843145-3.324855.171364c-16.070682.796944-32.141364 1.195416-48.212045 1.195416-17.306888 0-34.613777-.462134-51.920665-1.3864zm51.457565-106.00738c-28.431619 0-51.533832 4.388057-51.993033 9.834632l-.006967.165368.000319 76.013534c.531602-.01374 1.068104-.006564 1.608687.022306 16.951808.905303 33.903046 1.35794 50.854094 1.35794 16.951047 0 33.902286-.452637 50.854093-1.35794.228633-.01221.456536-.02054.683647-.025048l-.00084-76.010792c0-5.522847-23.281193-10-52-10zm219-131c16.360301 0 31.939998 1.2672416 44.323448 3.64867431 7.578471 1.45739814 14.198606 3.34183849 20.145903 6.04587519 4.989559 2.2685852 9.561462 5.0953399 13.867255 9.1418568 8.104998 7.6169496 13.663394 18.1424445 13.663394 31.1635937v677.92c0 27.65842-22.42158 50.08-50.08 50.08h-83.84c-27.65842 0-50.08-22.42158-50.08-50.08v-677.92c0-.5613857.011818-1.1227093.035447-1.6835975l.006966-.1653683c.023577-.5596413.058906-1.1187257.105964-1.6768832 1.036801-12.2974803 6.80619-21.7901869 14.684215-28.6991769 4.189628-3.6742838 8.5951-6.2793237 13.379017-8.3850664 5.863572-2.5809762 12.401651-4.40405086 19.858729-5.81638659 12.315473-2.33249302 27.74125-3.57352111 43.929662-3.57352111zm51.741697 285c-17.306888.884011-34.613776 1.326016-51.920664 1.326016-17.273549 0-34.547098-.440304-51.820647-1.320912l-.000386 442.914896c0 5.56703 4.51297 10.08 10.08 10.08h83.84c4.784434 0 8.790331-3.333316 9.822055-7.804312zm.258303-62.362.808268-.041789c-17.661969.943229-35.324506 1.414859-52.987235 1.414859-17.273741 0-34.547301-.451085-51.820324-1.353227l.000128 42.34197c.305152.001801.611794.010495.919773.026226 16.967195.86666 33.933892 1.299977 50.900423 1.299977s33.933228-.433317 50.900424-1.299977c.42919-.021922.855782-.030178 1.279366-.025157zm-.258303-76.855712c-17.306888.924266-34.613776 1.386399-51.920664 1.386399-17.273549 0-34.547098-.460354-51.820647-1.381063l-.000386 56.841376 3.608988.186654c16.070682.796944 32.141363 1.195416 48.212045 1.195416 17.306888 0 34.613776-.462133 51.920664-1.386399zm-51.741697-105.782288c-28.431619 0-51.533832 4.3880572-51.993033 9.8346317l-.006967.1653683.000569 75.782055c.320544.0019.642726.011408.966371.028692 16.951807.905304 33.903045 1.35794 50.854093 1.35794s33.902286-.452636 50.854094-1.35794c.444766-.023752.886771-.03282 1.325556-.027636l-.000683-75.783111c0-5.5228475-23.281193-10-52-10zm218 51c16.360301 0 31.939998 1.2672416 44.323448 3.6486743 7.578471 1.4573977 14.198606 3.3418387 20.145903 6.0458757 4.989559 2.268585 9.561462 5.095339 13.867255 9.141856 8.104998 7.61695 13.663394 18.142445 13.663394 31.163594v677.92c0 27.65842-22.42158 50.08-50.08 50.08h-83.84c-27.65842 0-50.08-22.42158-50.08-50.08v-677.92c0-.561386.011818-1.122709.035447-1.683598l.006966-.165368c.023577-.559641.058906-1.118725.105964-1.676883 1.036801-12.29748 6.80619-21.790187 14.684215-28.699177 4.189628-3.674284 8.5951-6.279324 13.379017-8.385066 5.863572-2.580976 12.401651-4.4040512 19.858729-5.8163869 12.315473-2.332493 27.74125-3.5735211 43.929662-3.5735211zm-51.741697 280.524535-.000358 449.671153c1.031724 4.470996 5.037621 7.804312 9.822055 7.804312h83.84c5.56703 0 10.08-4.51297 10.08-10.08v-447.391l-3.608988.1782c-16.070682.762234-32.141363 1.143351-48.212045 1.143351-17.306888 0-34.613776-.442006-51.920664-1.326016zm-.257633-57.660361-.000492 37.66123c.423256-.004995.849514.003265 1.278365.02517 16.967196.866659 33.933893 1.299977 50.900424 1.299977s33.933228-.433318 50.900423-1.299977c.308315-.015748.61529-.024444.920772-.026232l-.000162-37.643342-2.618514.135205c-16.400474.813297-32.801414 1.219957-49.202519 1.219957-17.393071 0-34.785957-.457339-52.178297-1.371988zm.257633-76.856794v56.842383c17.306888.924266 34.613776 1.386399 51.920664 1.386399 17.273882 0 34.547765-.460372 51.821647-1.381116l-.000614-56.843046-3.608988.186364c-16.070682.796944-32.141363 1.195416-48.212045 1.195416-17.306888 0-34.613776-.462134-51.920664-1.3864zm51.741697-106.00738c-28.431619 0-51.533832 4.388057-51.993033 9.834632l-.006967.165368.000317 76.008191c.438456-.005158.880127.003914 1.324556.027649 16.951808.905303 33.903046 1.35794 50.854094 1.35794s33.902286-.452637 50.854093-1.35794c.323981-.017302.646496-.026813.967369-.028698l-.000429-76.007142c0-5.522847-23.281193-10-52-10zm219-131c16.360301 0 31.939998 1.2672416 44.323448 3.64867431 7.578471 1.45739814 14.198606 3.34183849 20.145903 6.04587519 4.989559 2.2685852 9.561462 5.0953399 13.867255 9.1418568 8.104998 7.6169496 13.663394 18.1424445 13.663394 31.1635937v677.92c0 27.65842-22.42158 50.08-50.08 50.08h-83.84c-27.65842 0-50.08-22.42158-50.08-50.08v-677.92c0-.5613857.011818-1.1227093.035447-1.6835975l.006966-.1653683c.023577-.5596413.058906-1.1187257.105964-1.6768832 1.036801-12.2974803 6.80619-21.7901869 14.684215-28.6991769 4.189628-3.6742838 8.5951-6.2793237 13.379017-8.3850664 5.863572-2.5809762 12.401651-4.40405086 19.858729-5.81638659 12.315473-2.33249302 27.74125-3.57352111 43.929662-3.57352111zm51.457565 285c-17.306888.884011-34.613777 1.326016-51.920665 1.326016-17.178866 0-34.357733-.43549-51.5366-1.306471l-.0003 442.900455c0 5.56703 4.51297 10.08 10.08 10.08h83.84c4.422572 0 8.179919-2.848164 9.537866-6.810317zm.542435-62.377.524135-.026789c-17.661968.943229-35.324506 1.414859-52.987235 1.414859-17.179078 0-34.357976-.446155-51.536346-1.338436l.000125 42.330841c.211262.0042.423211.011706.635798.022564 16.967195.86666 33.933893 1.299977 50.900423 1.299977 16.966531 0 33.933228-.433317 50.900424-1.299977.525242-.026828 1.046593-.033189 1.563303-.019796zm-.542435-76.840712c-17.306888.924266-34.613777 1.386399-51.920665 1.386399-17.178866 0-34.357733-.455321-51.5366-1.365964l-.0003 56.841277 3.324855.171654c16.070682.796944 32.141364 1.195416 48.212045 1.195416 17.306888 0 34.613777-.462133 51.920665-1.386399zm-51.457565-105.782288c-28.431619 0-51.533832 4.3880572-51.993033 9.8346317l-.006967.1653683.00016 75.78572c.22678.004512.45435.012835.682647.025027 16.951807.905304 33.903046 1.35794 50.854093 1.35794 16.951048 0 33.902286-.452636 50.854094-1.35794.540922-.028887 1.077757-.036054 1.609686-.02228l-.00068-75.788467c0-5.5228475-23.281193-10-52-10z"/></svg>