<svg height="960" viewBox="0 0 960 960" width="960" xmlns="http://www.w3.org/2000/svg"><path d="m384.08673 59.468723c17.130067 2.2564104 35.337721 8.224709 54.806971 17.696895 25.885746 12.5939419 38.257535 42.543262 28.823362 69.713239-.026454.076186-.053196.152272-.080225.228257l-.127579.358646c-.025293.071103-.050838.142117-.076633.21304l-1.303158 3.582913c-1.707387 4.70135-3.392362 9.36891-5.044269 13.972933l-2.487314 6.953994c-38.381148 107.643853-64.440985 196.65554-78.188826 266.782836-14.913027 76.070865-21.257926 166.142809-19.880557 251.741789l.004498.314735 1.547998-2.256229c39.055455-57.330967 73.644784-134.841299 99.797244-223.577272l1.100002-3.756062c7.127696-24.493476 14.168203-49.552927 22.430524-79.641739l3.013481-10.997293 2.971365-10.880956 10.111146-37.121654 2.815052-10.304644 2.780314-10.137723c20.505674-74.584918 33.587454-116.921632 47.752926-151.05532 8.906594-21.461685 17.892803-38.376724 27.748314-51.3645896 12.752306-16.8053423 27.583502-27.8695566 45.535886-31.3204485 20.064481-3.856889 46.197318-2.3826685 76.073123 2.5090884 10.713665 1.7542169 21.338115 3.8905477 30.457174 6.0527238 11.90517 2.8227776 17.338429 4.387465 22.677546 7.6677163 23.465872 14.4169822 36.117012 41.7846146 31.356969 69.3015286-8.799431 51.579018-15.379609 89.402589-19.749732 113.519979-.266176 1.468945-.538854 2.970002-.818036 4.503177l-.033296.178717.821924-.934412c45.759004-52.04234 92.539525-100.062444 132.689442-135.765421l1.969206-1.745917c1.05775-.935007 2.235403-1.897917 3.672709-3.024961 21.144687-16.580328 52.073702-1.293169 51.745925 25.574953l-1.333196 108.201359c-.085175 6.926361-2.415541 13.638078-6.641021 19.12689-1.393891 1.810636-2.475495 3.198034-3.288682 4.215678-9.798962 12.262693-26.392926 33.02966-49.781783 62.300764l-.089077.122223c-.634636.865785-2.253132 3.090062-4.57824 6.29056 38.979353 22.689026 65.249329 64.634777 66.011334 112.6245l.01703 2.146383v302.727272c0 69.28745-51.425392 127.809769-120.134025 136.707845l-4.526816.586243c-16.636731 2.154531-33.303537.803265-49.100471-3.849318l-.04083-.012641-.325507-.084579c-.237737-.064471-.475429-.131236-.713053-.200309l-.712648-.214155-5.683785-1.764119c-6.921028-2.159044-12.577263-3.967085-17.026639-5.44491l-.968907-.322979c-.316363-.105853-.626128-.209903-.929318-.312158l-.318551-.107608c-3.442-1.164505-6.815727-2.38092-10.121108-3.649801l-.382484-.148382-1.260255-.417642c-40.393311-13.639506-70.850323-47.635126-79.691574-89.672613-2.582244 6.828375-5.184028 13.741487-7.804444 20.738685-4.96424 13.255825-13.11962 27.935158-24.448858 44.441423-.695637 1.013517-1.449098 1.986108-2.256635 2.912936-14.753042 16.932382-36.710191 26.100864-59.551323 24.347351l-1.835002-.146397-.195992-.016243-1.804211-.155105-.202471-.018054-1.77342-.163813-.209251-.020022-1.742628-.172521-.107267-.010802c-7.263905-.74385-13.936358-1.70654-20.042826-2.90565l-.162185-.032283-1.373135-.277016c-.111426-.022479-.222732-.045552-.333912-.069217l-1.342344-.285724-.171886-.03708c-3.130221-.684282-6.117425-1.439395-9.050034-2.295719l-.537757-.158586-.243092-.072738-1.093385-.331889c-.103315-.03136-.206471-.063244-.309464-.095649l-1.117212-.35151c-.09808-.030859-.196011-.062191-.293789-.093994l-1.14104-.371133-.141357-.046341c-.475752-.157191-.954786-.317883-1.437143-.482073l-.131154-.04496-1.188697-.410377-.127982-.044487c-.24189-.084656-.484622-.170175-.728201-.256555l-.121953-.043527-1.224439-.439809-.235407-.085598-1.248267-.459431-.113637-.04207c-.24717-.092036-.495207-.184922-.744112-.278656l-.108531-.041096-1.28401-.488865c-.070043-.026667-.139992-.053581-.209846-.08074l-1.307837-.508486-.200719-.078819-1.331666-.528109-.097112-.038696c-.255709-.102376-.512309-.205589-.769803-.309637l-.093021-.037758-1.458475-.594836c-.259703-.106823-.520306-.214478-.869144-.359347l-1.488697-.622906c-.263866-.111282-.52864-.223393-.876454-.371381l-1.519387-.651021c-.26818-.115756-.537275-.232337-.884649-.383506l-1.474634-.64584-.150262-.066269-1.498462-.665462-.144584-.064638-1.52229-.685084-.13921-.06305-1.613799-.735648c-.281879-.12927-.564691-.259361-.913672-.42046l-1.645922-.763956c-.286657-.133807-.574251-.268433-.924587-.432972l-1.617603-.763572-.120376-.057128-1.729011-.825145-.858318-.412759c-13.651427-6.581302-24.488104-16.880848-31.73816-29.18623l-.433447-.746695-.483926.530243c-16.527837 17.969251-34.549211 32.193714-54.098158 42.119154l-.552916.277603-.808207.48642c-31.063867 18.294996-81.698604 12.26493-140.719696-19.3013l-1.847127-.994759c-30.005616-16.270594-50.169985-47.439884-62.655517-90.392516-3.73596-12.85242-6.802172-26.840398-9.227393-41.898264l-.18706-1.171581-1.037235 1.210141c-1.612636 1.872097-3.221693 3.707109-4.827268 5.505059l-1.203531 1.341514-.076832.084937-1.689752 1.861297-.077974.085579c-4.947974 5.410832-9.867946 10.472984-14.764043 15.186583-42.658277 41.068224-79.3503328 71.178777-112.4478524 93.209913-1.0467855.696785-2.531629 1.673365-4.480284 2.947107-21.2728962 13.905075-49.48592474-1.342897-49.50832771-26.757199l-.0779009-88.357968c0-7.935803 2.93501715-15.591106 8.25487076-21.479754 1.89900655-2.102047 3.31427285-3.671991 4.23707925-4.700076 54.2218616-60.407782 93.918137-114.808259 119.106682-162.909695 18.566309-35.455251 35.241486-71.833766 50.368011-110.493315 6.41152-16.386215 16.301933-46.738527 28.652151-87.371407 1.359527-4.472918 2.744173-9.054999 4.153049-13.742285 7.05137-23.459701 14.305137-48.184977 22.156332-75.351796.928517-3.212867 2.804628-9.730194 4.816861-16.719732l.302755-1.051618c.101191-.351484.202621-.703794.304188-1.056577l.799034-2.775228c2.820368-9.795213 5.541914-19.239933 5.994282-20.759047 5.265276-17.681521 8.529747-28.644064 11.748485-39.45303l.508127-1.70636c5.083168-17.069979 10.308855-34.618556 23.373073-78.489998.057615-.193478.117059-.386407.178325-.57876 7.74227-24.3079951 29.332957-41.5839301 54.749099-43.8186271 15.541466-1.3664726 29.996049-1.2044684 43.384326.5590651zm356.82527 400.894134v330.838857c0 44.899804 35.748509 80.608765 79.846531 79.758199l17.393659-.333539c46.6968-8.051408 81.164381-48.627026 81.164381-96.419503v-302.727272c0-35.599267-20.092723-66.625665-49.690141-82.152498l-.577851-.300547c-.100008-.051568-.200123-.10296-.300344-.154175-.188683-.094884-.377214-.190444-.566118-.285379l.566118.285379c-.311831-.159352-.624693-.316994-.938573-.472911l.372455.187532c-.301922-.151732-.604798-.301865-.908615-.450387l.53616.262855c-.334901-.166361-.670961-.330759-1.008165-.49318l.472005.230325c-.492282-.240654-.987037-.477078-1.484219-.709227-.136138-.064646-.272632-.127954-.409308-.19094l.409308.19094c-.286675-.133856-.574157-.266291-.862437-.397295l.453129.206355c-.326851-.150627-.654738-.299412-.983648-.44634l.530519.239985c-.348784-.158499-.698736-.314903-1.04984-.469196l.519321.229211c-.372043-.166195-.745395-.330016-1.120037-.491442l.600716.262231c-.397949-.17488-.797378-.347047-1.198264-.51648-.224843-.095736-.45058-.190064-.676772-.283524l.676772.283524c-.400161-.169125-.801775-.335526-1.204817-.499177l.528045.215653c-.351822-.145369-.704746-.288639-1.058757-.429795l.530712.214142c-.349762-.142018-.7006-.281965-1.052499-.419827l.521787.205685c-.322954-.128772-.646813-.255785-.971565-.381026l.449778.175341c-.462298-.181112-.926427-.358625-1.392354-.532504-.181647-.068204-.364167-.135649-.546959-.202537l.546959.202537c-.328864-.122728-.658623-.243646-.989266-.362741l.442307.160204c-.378088-.13835-.757342-.274313-1.137745-.407871l.695438.247667c-.349057-.125728-.699099-.249424-1.050112-.371075l.354674.123408c-.367902-.12917-.736879-.256089-1.106913-.380743l.752239.257335c-.435158-.150813-.871809-.298481-1.309924-.442979-.254797-.084268-.510616-.167391-.766928-.249431l.766928.249431c-.424146-.139889-.849664-.276806-1.276531-.410726l.509603.161295c-.350893-.112315-.702707-.222601-1.05543-.330845l.545827.16955c-.341939-.107275-.684742-.212626-1.028399-.316042l.482572.146492c-.475964-.146064-.953582-.28841-1.432821-.427003l.950249.280511c-.346939-.104403-.694746-.206832-1.043411-.307275l.093162.026764c-.412325-.119242-.82585-.235706-1.240554-.349369l1.147392.322605c-.444458-.12804-.890309-.252851-1.337525-.374407l.190133.051802c-.363388-.0996-.727682-.197049-1.092866-.292333l.902733.240531c-.400155-.108765-.801403-.214924-1.203725-.318457l.300992.077926c-.836512-.218265-1.677699-.425172-2.523388-.620545-.04366-.010051-.087311-.020102-.130973-.030122-.018039.002429-.040403.001989-.062769.001557l-26.61551-.513362c-44.098022-.850567-79.846531 34.858395-79.846531 79.758198zm-397.40683-369.5761774c-5.686224.4999573-10.984566 2.5223293-15.436091 5.6998947-.943414 1.4088064-1.708459 2.9556839-2.260228 4.6120237l-.107281.329402-.009413.035359c-48.562313 156.041345-78.955801 284.578104-91.192932 385.528719l-.365265 3.050665c-10.131567 85.687664-12.713351 164.007435-6.265607 225.500721 5.36882 51.203394 16.83374 89.308384 34.209581 112.298411 4.997067 5.092667 10.466588 9.302671 16.436818 12.540038 40.279786 21.841779 70.017636 27.699261 89.724158 26.461635-2.566154-1.190869-5.055293-2.542019-7.495367-4.089416-19.492963-12.361652-31.90758-34.869434-35.009306-70.531457-4.176556-48.019857-5.706926-106.684119-3.851626-165.804454 2.166684-69.042746 8.772124-135.717374 20.112442-195.074064 15.471118-80.977837 45.634041-184.423475 90.48687-310.410543l.003647-.010614.102881-.299063c1.007008-3.057458.870853-6.256407-.210094-9.092931-2.063368-2.263224-4.578371-4.176432-7.484347-5.590248-16.57354-8.0633646-31.56897-12.9787264-44.986292-14.7460857-10.952936-1.4427451-23.087119-1.5787427-36.402548-.4079927zm317.255365 7.7941257-.922886.0303795c-2.322107.0852806-4.647868.2155613-6.977343.3908438-9.791525.736844-17.734057 8.2210234-19.051003 17.9516294-1.275178 9.427062-2.935573 21.595323-4.981633 36.5046-.092071.670901-1.063983 8.112905-2.136637 16.269341l-.107572.817801-.053984.410266-.165108 1.254173-.170704 1.295622c-.62576 4.747355-1.245324 9.42369-1.709329 12.867858-2.728978 20.256414-5.651274 40.792541-8.969585 62.625258-9.232695 60.746224-19.914898 120.878121-32.306915 178.652896-24.112991 112.420967-56.498786 240.940822-97.157065 385.566359-.479963 1.707655-.795553 3.428213-.954903 5.14328 2.903618 11.972071 10.990551 22.47577 22.743224 28.141691l.829652.398956 1.641431.783193 1.617603.763572c.267615.125627.534237.250436.799866.374428l1.581862.734138c.261657.120722.522322.240625.781995.359711l1.546118.704706 1.522291.685084 1.498463.665462 1.474634.64584c.243787.106005.486581.211192.728382.315562l1.438892.616407c.23783.101099.474667.201381.710511.300845l1.40315.586974c.231872.096194.462752.19157.692639.286129l1.367408.557541c.225916.091288.450838.181759.674768.271412l1.331666.528109 1.307837.508486 1.28401.488864c.212016.079842.423039.158867.633069.237074l1.248267.459431 1.224439.43981c.202087.071666.403182.142515.603284.212546l1.188696.410377c.392261.133522.780551.263773 1.164869.390755l1.14104.371132 1.117213.351511 1.093384.331889.537756.158586c2.122262.619613 4.399762 1.195325 6.8325 1.727134l1.342344.285724 1.373135.277015c5.091279.999761 10.803512 1.823911 17.1367 2.472453l1.742629.172521 1.77342.163813 1.804211.155105 1.835002.146397c7.950759.61033 15.596276-1.183923 22.162182-4.813541 3.398547-3.413085 5.892055-7.780622 7.025818-12.762252l-.010291.043269.009691-.044246c24.169598-106.148365 44.079435-195.685083 59.728099-268.602238l-.000298-110.432444c0-37.237763 15.790516-70.995189 41.200209-94.685313 14.235367-75.796978 28.608856-156.121212 43.121682-240.971442 1.258631-7.362487-1.101721-14.513798-5.79866-19.623329-.871598-.652988-1.775013-1.267368-2.708828-1.841086-2.921027-1.794623-44.972723-12.2354014-79.833297-13.5280677zm-40.824028 8.3050247-.754932.59811c-29.619528 24.113766-53.139673 101.194418-81.226329 203.353504l-2.774979 10.118298-2.806625 10.273853-10.104853 37.098585-2.976854 10.901082-3.020868 11.024295c-7.101789 25.862533-14.581387 52.683287-22.567355 80.12611-35.252324 121.140398-88.636684 231.418964-153.8758 295.814251.539479 8.48055 1.156285 16.710691 1.846148 24.642381 2.689044 30.917212 12.585802 48.860099 27.638284 58.405777 4.235406 2.685924 8.752804 4.629248 13.849766 6.147432 1.073662.319802 2.894704.786843 4.785109 1.253263l.568524.13976c3.035996.743707 6.07599 1.44797 6.342832 1.507147l.016857.003389.105583.031689c38.58039-20.585022 69.4324-62.386991 92.531832-110.235438 32.759559-119.783746 59.443463-227.716632 80.0508-323.793342 12.317653-57.428071 22.945197-117.252283 32.132766-177.701596 3.303844-21.737533 6.213616-42.185654 8.931176-62.357309.433607-3.218537 1.005544-7.532329 1.591834-11.977543l.113622-.861747c.018955-.143811.037918-.287695.056882-.431619l.170637-1.295508.113498-.862275c.056656-.430535.113146-.859971.169359-1.287435l.112022-.852039c1.022868-7.781511 1.927262-14.704427 2.020797-15.386003 2.04474-14.899652 3.703783-27.05801 4.97702-36.474233l.074004-.516166c.384335-2.568956 1.030241-5.046791 1.909243-7.406673zm125.425677 287.443559-.293703.192809c-16.07031 10.581601-28.523212 26.2106-35.103287 44.631238.000124.004253-.000648.008247-.001419.012242-.926831 2.592973-1.737023 5.241528-2.424345 7.939291-.020492.077078-.040086.15447-.05958.231903l.05958-.231903c-.059081.231896-.117255.464156-.174516.696775l.114936-.464872c-.069461.275917-.13764.552343-.20453.829273l.089594-.364401c-.161878.657614-.316469 1.318101-.463684 1.981369-.017177.075114-.033801.150516-.05033.225952l.05033-.225952c-.127386.573935-.249249 1.149953-.365531 1.727995-.102203.506535-.199741 1.014427-.292961 1.523829-.095797.524626-.187206 1.050588-.273994 1.57811-.018837.113589-.03723.226784-.05541.34005l.05541-.34005c-.05186.315216-.102069.630989-.150619.947309l.095209-.607259c-.108055.673209-.208593 1.348931-.301526 2.027078-.019277.141146-.038353.282841-.057096.424641l.057096-.424641c-.039136.285583-.076923.571597-.113355.858034l.056259-.433393c-.037612.284542-.073884.569508-.108811.85489l.052552-.421497c-.039122.307588-.076681.615664-.112669.92422l.060117-.502723c-.03943.322173-.077145.644877-.113136.968102l.053019-.465379c-.034509.295885-.067574.592212-.099187.888973l.046168-.423594c-.029508.265004-.057857.530358-.085042.796058l.038874-.372464c-.037884.35563-.073682.711884-.107383 1.068749l.068509-.696285c-.036029.352141-.070014.704888-.101942 1.058229l.033433-.361944c-.027728.293625-.054037.587664-.078918.882109l.045485-.520165c-.026923.29795-.052383.596321-.076375.895108l.03089-.374943c-.027731.328174-.05369.656854-.077866.986028l.046976-.611085c-.024403.303924-.047286.608276-.068642.913051l.021666-.301966c-.02055.279813-.039813.559984-.057781.840507l.036115-.538541c-.027837.397281-.053077.795279-.075705 1.193976l.03959-.655435c-.02151.33581-.041166.672123-.058958 1.008932l.019368-.353497c-.014922.262921-.028707.526147-.041352.789671l.021984-.436174c-.083822 1.586818-.126262 3.18461-.126262 4.792316l-.000049 155.682574.001132 84.121086-.001512.002148.000429 71.295027c0 3.423869.217141 6.844291.650115 10.240665 2.794937 21.924269 14.111359 40.67683 30.197821 53.354157-9.335432-15.270133-14.715365-33.32494-14.715365-52.723986v-330.838857c0-25.390017 9.215992-48.477313 24.450184-66.033468zm-511.967517-1.94205-.731328 2.329701c-6.687662 21.260361-12.975847 40.294678-18.011668 53.787842l-.4834 1.28838c-.479432 1.27086-.946878 2.488825-1.401565 3.650888-16.400361 41.915149-33.877315 79.414372-51.819662 113.678068-26.558109 50.716832-67.7718593 107.196883-123.6412515 169.440155-.9504802 1.058916-2.3857443 2.651044-4.3057925 4.776382l.0778885 88.357968c1.8803576-1.2291 3.2993906-2.162396 4.2570989-2.799888 28.1505748-18.738235 63.0864666-46.399072 107.9856796-89.624703 4.395706-4.23186 8.843319-8.808003 13.342836-13.728426l1.689752-1.861297c5.922646-6.571022 11.934704-13.735122 18.036166-21.492295l1.745707-2.232473.874679-1.12834 1.673218-2.17651c5.864021-7.669251 11.809502-15.878884 17.836436-24.628895 3.126351-4.717375 5.785822-8.731409 7.978412-12.042103-.943017-50.753235 2.49104-108.452483 9.74677-169.817776 3.499441-29.596504 8.549552-61.521389 15.150024-95.776678zm609.716911 320.139179c27.33879 4.330039 44.47358 33.778507 39.517346 65.070937s-30.352465 54.004646-57.691255 49.674607-44.47358-33.778507-39.517346-65.070937 30.352464-54.004646 57.691255-49.674607zm-214.790988 105.539794c.460332-1.102428.889706-2.186853 1.28806-3.250563 12.114576-32.349098 23.838125-62.927741 35.170649-91.735931l.001085-68.086008c-10.695799 48.675084-22.849019 103.032096-36.459794 163.072502zm176.8535-52.736498c-3.353011 21.170081 7.453935 39.743289 22.892268 42.188481s31.455787-11.879449 34.808799-33.049529c3.353011-21.170081-7.453936-39.743289-22.892269-42.188481s-31.455787 11.879449-34.808798 33.049529zm37.937488-196.594521c27.33879 4.330039 44.47358 33.778507 39.517346 65.070937s-30.352465 54.004646-57.691255 49.674607-44.47358-33.778507-39.517346-65.070937 30.352464-54.004646 57.691255-49.674607zm-37.937488 52.803296c-3.353011 21.17008 7.453935 39.743289 22.892268 42.188481s31.455787-11.879449 34.808799-33.049529c3.353011-21.170081-7.453936-39.74329-22.892269-42.188481-15.438333-2.445192-31.455787 11.879449-34.808798 33.049529zm37.937488-196.594521c27.33879 4.330039 44.47358 33.778507 39.517346 65.070937s-30.352465 54.004646-57.691255 49.674607-44.47358-33.778507-39.517346-65.070937 30.352464-54.004646 57.691255-49.674607zm-37.937488 52.803296c-3.353011 21.17008 7.453935 39.743289 22.892268 42.188481s31.455787-11.879449 34.808799-33.04953c3.353011-21.17008-7.453936-39.743289-22.892269-42.18848-15.438333-2.445192-31.455787 11.879449-34.808798 33.049529zm121.82591-321.689602c-.985273.772588-1.726902 1.378982-2.224888 1.819182-53.119607 46.955575-119.978117 117.988552-180.300942 191.8521 11.24609-4.679477 23.312811-7.820623 35.946936-9.15648l.560323-.054564.537099-.066057c.643623-.073152 1.289813-.130759 1.938029-.172643l.405872-.0223.584985-.047173c2.746379-.204476 5.504303-.322077 8.270623-.35219l.421392-.001637 30.810356-1.319426c2.177084-.093163 4.321571-.010351 6.419561.235921l.464083.058505 2.082834.082112c10.425272.492595 20.526977 2.182171 30.173474 4.932859 5.561038-7.658162 9.293999-12.792553 9.534952-13.110983 23.563722-29.489951 40.268285-50.395333 50.113691-62.716145.668063-.836033 1.645079-2.089274 2.931049-3.759722z"/></svg>