<svg height="960" viewBox="0 0 960 960" width="960" xmlns="http://www.w3.org/2000/svg"><g fill="none" fill-rule="evenodd" stroke="#000" stroke-linejoin="round"><path d="m287.411 84.1544758c97.080185-56.666477 212.772069-74.53658872 324.028361-40.5221268 111.256292 34.014462 197.176372 113.523537 245.972001 214.788726 48.442393 100.532122 60.238354 222.529647 23.656101 342.184803-36.582252 119.655156-114.581697 214.199471-210.959111 270.455735-97.080184 56.666477-212.772069 74.536589-324.028361 40.522127s-197.176371-113.523537-245.972-214.788726c-48.4423937-100.532122-60.2383542-222.529647-23.6561018-342.184803 36.5822528-119.655157 114.5816968-214.199471 210.9591108-270.4557352z" stroke-width="40"/><g stroke-linecap="round" stroke-width="20"><path d="m429.369918 804.698798c161.196761 49.282796 336.375603-56.328514 391.272895-235.889464 54.897291-179.560949-31.275456-365.075459-192.472217-414.358255-161.196762-49.282796-336.375604 56.328515-391.272895 235.889464-54.897292 179.56095 31.275455 365.07546 192.472217 414.358255z"/><path d="m453.15775 760.231291c140.209118 42.866229 291.005103-43.843787 336.812258-193.672241 45.807156-149.828455-30.720755-306.03836-170.929873-348.90459-140.209118-42.866229-291.005103 43.843787-336.812258 193.672242-45.807156 149.828455 30.720755 306.03836 170.929873 348.904589z"/><path d="m268.357789 316.819867c9.730034 4.667658 17.152114 8.800801 22.266241 12.39943 5.114126 3.59863 11.674516 9.390072 19.68117 17.374327l15.701052-23.104938c-5.792457-10.1391-11.026141-17.45823-15.701052-21.95739-4.674912-4.49916-12.53628-9.782779-23.584106-15.850856z"/><path d="m307.077271 726.189732c14.203298-.608972 24.634604-1.676855 31.29392-3.203648 6.659316-1.526792 15.981355-4.698092 27.966118-9.5139l-22.633456-20.145048-5.332662-5.605716c-7.07697 1.421837-16.560458 2.132755-28.450464 2.132755-11.890007 0-23.80824-.710918-35.7547-2.132755z"/><path d="m782.797952 654.255854c-8.901601 4.285928-16.0237 7.021953-21.366294 8.208077-5.342595 1.186124-13.159986 2.120467-23.452174 2.80303l20.249148-28.386383c.049632-.853581 4.397682-3.296329 13.044151-7.328244s19.413841-9.270249 32.302114-15.715001z"/><path d="m741.675669 300.253303c5.092811-9.773461 8.694964-17.821865 10.80646-24.14521 2.111495-6.323346 4.501134-17.674485 7.168917-34.053418l28.385442 38.49222c-3.477306 9.808554-6.941697 17.405813-10.393173 22.791778s-9.4489 12.553691-17.992269 21.503179z"/></g></g></svg>