<svg height="960" viewBox="0 0 960 960" width="960" xmlns="http://www.w3.org/2000/svg"><path d="m480 63c230.302741 0 417 186.697259 417 417s-186.697259 417-417 417-417-186.697259-417-417 186.697259-417 417-417zm208 378.2h-416v192c0 42.415469 34.384531 76.8 76.8 76.8h262.4c42.415469 0 76.8-34.384531 76.8-76.8zm-313.6 140.8c17.673112 0 32 14.326888 32 32s-14.326888 32-32 32-32-14.326888-32-32 14.326888-32 32-32zm108.8 0c17.673112 0 32 14.326888 32 32s-14.326888 32-32 32-32-14.326888-32-32 14.326888-32 32-32zm-108.8-102.4c17.673112 0 32 14.326888 32 32s-14.326888 32-32 32-32-14.326888-32-32 14.326888-32 32-32zm108.8 0c17.673112 0 32 14.326888 32 32s-14.326888 32-32 32-32-14.326888-32-32 14.326888-32 32-32zm108.8 0c17.673112 0 32 14.326888 32 32s-14.326888 32-32 32-32-14.326888-32-32 14.326888-32 32-32zm19.2-185.6h-262.4c-42.415469 0-76.8 34.384531-76.8 76.8v25.6h416v-25.6c0-42.415469-34.384531-76.8-76.8-76.8z" fill-rule="evenodd"/></svg>