<svg height="960" viewBox="0 0 960 960" width="960" xmlns="http://www.w3.org/2000/svg"><path d="m454.265953 2c20.189277 0 37.413176 1.5352089 51.97369 4.83385459 10.899306 2.47023031 20.241283 8.60865941 26.780061 16.96460981l.172296.2245356 1.546326.0515447c29.922116 1.0245239 56.244318 2.7973329 79.085565 5.3852596l1.17834.1345856c46.817789 5.3904548 79.905908 14.1198688 101.588974 29.4159744 49.945575 35.2336144 75.78 95.4112097 85.283939 216.0274327 7.722601 98.008928 10.082115 197.028084 10.126907 326.659478v17.229502c-.026029 46.624434-1.328444 90.664443-4.202774 127.913508-3.833048 49.673282-9.99068 84.815946-21.114319 106.774743-10.359487 20.45031-21.241418 37.152147-33.267786 50.271917-14.82392 16.171668-31.645149 27.165327-50.867232 31.612641-26.101492 6.038967-94.061014 15.333757-135.259582 18.145559-28.504747 1.945449-65.539698 3.593851-100.434957 4.148642-8.190937.130226-16.162844.209706-23.898992.209706h-2.720589c-36.143266-.030499-67.022-1.455276-90.892909-4.6104-37.327754-4.933775-61.237012-10.260562-81.988237-19.635064-26.480329-11.962662-45.651792-30.326597-58.476161-56.617836-14.265143-29.244969-22.423338-53.118289-27.002222-83.208896l-.037291-.256297-.013573-.019372c-1.370618-2.150675-1.966744-3.122088-2.482889-4.155282l-.127772-.260303c-.296121-.61373-.584722-1.283674-1.003657-2.256174-.970283-2.524256-.970283-2.524256-1.479176-4.223621-.682142-2.624048-.682142-2.624048-.952062-4.09338-.20521-1.313068-.282163-1.805468-.336032-2.23927l-.020565-.172202c-.023139-.201471-.044303-.412309-.074183-.709962-.078746-.797659-.121144-1.43061-.153944-2.087621-.045485-.911117-.065128-1.772272-.082436-3.055202-.05537-4.104092-.084188-13.997256-.098724-38.282915l-.000918-1.586871c-.000749-1.339176-.001458-2.720488-.002127-4.145274l-.0009-1.992921c-.000437-1.010375-.000857-2.041719-.001259-3.094471l-.000782-2.134179c-.00038-1.081491-.000742-2.184683-.001089-3.310013l-.006912-2.28031v-90.345857c0-176.499737 1.178519-261.007822 5.615506-332.226666 5.517048-88.555099 16.175347-143.211851 37.686828-178.684884 22.655007-37.3587402 55.791985-61.2621743 100.710948-74.4576967 16.979902-4.9880643 35.582187-8.5316025 57.081051-10.9041042l.497667-.0534491.242646-.3692012c6.21615-9.3600858 15.737373-16.4361561 27.116152-19.49351531l.622494-.16276912c13.08604-3.32225796 29.09306-4.82288416 48.680859-4.87751437zm317.692288 630.232929-.250075.085291c-3.359827 1.108623-7.184342 2.145319-11.505011 3.152453-5.153712 1.201314-28.563516 3.825465-56.929487 6.256941-37.14884 3.184327-79.000196 5.791335-121.735037 7.319879-129.748462 4.640857-259.835725 3.452034-310.603171-2.936796-24.74995-3.114658-43.255754-6.848677-55.936049-11.517201l.001475 52.740907c.017773 182.775295.209717 3.775909 2.376118 54.518938 2.377004 55.675915 9.747722 81.45386 27.452584 117.750598s49.691311 46.195196 109.754715 54.134043c60.063403 7.938847 167.636409 2.890113 209.982391 0 42.345983-2.890113 107.380436-12.21462 128.966831-17.208952 21.586394-4.994333 40.317098-27.131632 57.468593-60.989812 16.191493-31.963075 20.489895-127.157352 20.956123-203.306289zm-200.256158 157.196238c1.420983 0 2.572917 1.151934 2.572917 2.572916 0 .134371-.0103.266335-.030155.395147 3.119237.269013 6.259395.977384 9.350793 2.164061 18.689716 7.174309 27.005867 28.533108 19.830862 47.224635s-27.646935 28.999617-46.336651 21.825307-27.005867-28.533109-19.830862-47.224635c5.339078-13.908774 18.040894-23.175494 31.892343-24.051084-.014816-.108179-.022163-.219947-.022163-.333431 0-1.420982 1.151934-2.572916 2.572916-2.572916zm-15.771487 34.12479c-3.360949 8.75557.367002 18.33026 8.326612 21.385667 7.959609 3.055408 17.136735-1.565487 20.497683-10.321057 3.360949-8.75557-.367002-18.33026-8.326612-21.385668-7.959609-3.055408-17.136735 1.565487-20.497683 10.321058zm15.771487-71.17479c1.420983 0 2.572917 1.151934 2.572917 2.572916 0 1.420983-1.151934 2.572917-2.572917 2.572917-1.420982 0-2.572916-1.151934-2.572916-2.572917 0-1.420982 1.151934-2.572916 2.572916-2.572916zm0-34.991667c1.420983 0 2.572917 1.151934 2.572917 2.572917 0 1.420982-1.151934 2.572916-2.572917 2.572916-1.420982 0-2.572916-1.151934-2.572916-2.572916 0-1.420983 1.151934-2.572917 2.572916-2.572917zm-108.548471-613.275978-2.692371.000341c-86.983351.022061-149.481435 1.116303-187.389041 3.274347-7.780809 7.34775-14.611115 15.851012-20.56737 25.673044-34.801067 57.387932-37.443525 202.654401-37.503725 479.670227 8.53875 4.990784 28.350035 9.752119 58.431559 13.537729 49.393856 6.21597 178.665368 7.397339 307.391062 2.793065 42.392164-1.516288 83.913727-4.102752 120.741844-7.259587 27.187363-2.330449 50.288291-4.919976 54.097362-5.807858 8.714832-2.0314 14.395501-4.142645 16.340566-5.389333l-.001063-8.904682c-.027958-79.797032-.739804-205.949264-10.003693-323.518962-7.940733-100.777283-27.473177-145.803909-50.420521-170.752321l3.130922.092782c-77.6078-2.272415-161.460171-3.408792-251.555531-3.408792zm59.189424-40.3974786-.072917.2672755c-2.358691 8.5751803-10.281641 14.831841-19.611937 14.6795895-11.603149-.1893398-23.715728-.2828231-36.319333-.2828418l-4.194039.0057109c-19.463575.0537838-36.418757.4908436-51.665961 1.3687047-9.397077.5410387-17.582251-5.4798432-20.242189-13.9890328-34.512504 3.1003034-62.788899 9.2074295-85.720426 20.2448662 38.539068-1.2655559 91.403012-1.8967934 158.637378-1.8967934 78.673943 0 152.611505.8649041 221.813732 2.5949365-29.037392-14.1835075-87.01465-20.9297094-162.624308-22.9924153zm-68.077083-21.7140434-.957572.0012982c-16.529363.0450053-29.49351 1.2601551-38.892221 3.6462813-1.395322.3548272-2.606316 1.0942305-3.527013 2.0840581-.982855 1.2403401-1.556931 2.8022866-1.557154 4.4715918l-.002745 7.5823197c16.299978-.9384748 33.86071-1.3494699 52.760296-1.4016953l4.221979-.0057685c12.578338 0 24.815645.0919978 36.672975.2854853l-.001153-6.2145188-.003913-.2262422c-.229708-3.0727493-2.476476-5.6746644-5.5812-6.3783224-11.313272-2.5629915-25.690698-3.8444872-43.132279-3.8444872z"/></svg>