<svg height="960" viewBox="0 0 960 960" width="960" xmlns="http://www.w3.org/2000/svg"><path d="m513.22943 65c10.171865 0 18.552694.4616032 26.047414 1.6693474 5.464024.8805054 10.512574 2.161767 15.409861 4.1355854 8.134896 3.2787144 15.39274 8.2011693 21.192424 15.9849711 5.074903 6.8110674 7.745596 14.0598771 9.023084 21.6365821.807208 4.787502 1.001524 9.560823.749032 14.336939-.307109 5.809243-1.292102 11.808722-2.9326 17.286469l-.238645.776106.361371.062996c3.95026.685599 7.727833 1.43259 11.328854 2.242748l.896575.203857c13.211224 3.035759 24.425826 6.998618 33.902802 12.483998 3.913364 2.265098 7.556364 4.800349 10.865329 7.623307l.434069.373094.216191.028556c.171876.022799.342093.045715.510656.068752l.500735.069473c3.598323.506866 6.675777 1.090074 9.786731 1.979855 3.339566.955169 6.481057 2.155668 10.035673 4.196135 3.691948 2.119299 7.197037 4.803299 10.543314 8.648135 5.326103 6.119636 9.023688 13.937893 9.77962 23.017008l.01208.171086.27078 2.44215c.625974 5.657373 1.245672 11.257916 1.859094 16.801629l.017126.160221 37.564678-.001463c8.846081 0 15.35338-.933161 19.413899-2.48503l.285875-.111896c1.990255-.797906 2.44547-1.194964 2.992642-2.272906 3.091967-6.091255 5.412893-11.082822 6.9336-14.844649.607819-1.503583 1.039188-2.691662 1.291861-3.50454l.018445-.063516.104465-.579456c4.784192-25.381081 32.212618-39.71346 55.846394-28.9525l.729703.34083 61.874791 29.632996c21.208831 10.157305 29.122045 36.330396 17.093417 56.536767-6.114634 10.271712-9.011583 20.063849-9.129635 29.961369l-.001135.194994.003495.034273c.028693.287781.075147.671092.140525 1.138605l.034272.24072c.249073 1.720021.664898 3.996243 1.242773 6.747139 1.223142 5.8226 3.08015 13.346904 5.528062 22.413154 4.358719 16.143247 10.300602 36.179896 18.377702 62.286806.799614 2.584522 1.623956 5.241002 2.481295 7.996568 1.297221 4.16939 4.009395 12.832574 6.846279 21.888694l.396523 1.265782c.330895 1.056256.662664 2.115245.99328 3.170522l.396055 1.264136c3.161933 10.09223 6.142758 19.604557 7.147785 22.832801 5.623847 18.064343 9.205363 29.961532 11.588516 38.697812 7.113645 26.077556 13.948929 45.993226 20.223538 59.382633 7.982295 17.033445 3.01747 37.327222-11.926986 48.751691-15.043933 11.500514-27.905495 19.212089-40.192864 23.22243-12.050635 3.933077-27.096871 5.445678-46.710973 5.416189-17.530641-.026357-33.001376-11.464708-38.165192-28.217591-30.981708-100.513446-50.104539-162.316596-57.323982-185.267002-5.114528-16.258938-8.093578-22.561028-11.097155-25.424064-1.136465-1.083289-2.706063-1.990861-5.623598-2.90887-4.927214-1.550358-12.081026-2.481794-21.8089-2.481794l-21.37745.002366.567799 5.121455c17.461292 157.72515 26.825604 242.135489 28.032482 252.688163l.037208.3244c.737307 6.406415.817492 12.644056.330542 18.776099l-.058031.688883.170631.134972c6.003899 4.787317 10.646276 11.309944 13.121617 18.973536l.158354.501411 26.642859 86.315226c2.654018 8.598256 4.003539 17.545921 4.003539 26.544466v4.244985c0 14.553815-3.723921 28.865579-10.817467 41.573654l-19.484132 34.905792c-7.066276 12.659222-20.429262 20.503958-34.927129 20.503958h-434.030265c-14.497868 0-27.860854-7.844736-34.927129-20.503958l-19.484133-34.905792c-7.093545-12.708075-10.817466-27.019839-10.817466-41.573654v-4.244985c0-8.998545 1.349521-17.94621 4.003538-26.544466l26.642859-86.315226c2.691264-8.718923 8.174107-15.996349 15.284924-20.973714l.0244-.017205-.013349-.184614c-.39152-5.557268-.315279-11.203441.29537-16.985307l.100869-.914061c.278081-2.416224 1.170117-10.390314 2.670608-23.873273l.063502-.578745-.288855-.020423c-18.987338-1.444507-38.516038-7.02023-55.304467-16.056052l-.865906-.470453c-24.713487-13.553642-42.78695-34.10378-48.483502-60.479727-.261576-1.21114-1.446791-6.705399-1.590889-7.373142-.78978-3.659825-1.490605-6.90343-2.231035-10.324132-2.003662-9.256697-3.991079-18.393631-6.060778-27.849346-5.549583-25.354073-10.974441-49.726173-16.186076-72.580948-1.154519-5.062957-2.289792-10.012402-3.404474-14.841286-10.829639-46.914763-19.325821-80.718847-24.033694-94.951203-3.2547373-9.839386-7.9187217-16.034536-14.5105942-20.167216-2.6892826-1.686008-24.4946256-12.223388-59.4814634-28.481676-36.3408716-16.887505-28.03167371-70.78375 11.7079821-75.9419l61.135593-7.935312c4.9103505-.637357 9.8963585-.357472 14.7045315.825424 41.765623 10.275088 71.301564 37.456409 84.753029 78.12149 5.792201 17.510384 14.583547 52.488846 26.031348 102.081534 1.131017 4.899646 2.282141 9.918196 3.452127 15.048981 5.268987 23.106288 10.742444 47.696725 16.338102 73.261298 2.083851 9.520372 4.084191 18.716715 6.100221 28.030547.744369 3.438903 1.4486 6.698275 2.241659 10.373292.145961.676377 1.328889 6.160036 1.58802 7.359852 1.826296 8.456046 6.980653 13.430293 16.141993 14.718553l.189128.024845.117202-1.055356c7.653075-69.066964 18.252387-164.810641 31.797857-287.230313l.490878-4.436424c1.098698-9.929778 5.770846-18.676023 12.649356-25.014528l.028707-.026379.367109-.346427c2.408011-2.241013 4.884492-3.993775 7.44744-5.464991l.48157-.272604c3.531735-1.97158 6.646376-3.128985 9.965476-4.051993 3.118864-.867324 6.239002-1.442013 9.903597-1.943427.513833-.070306 1.043515-.139537 1.58916-.20774l.339648-.042818.128745-.110213c3.436979-2.948833 7.237246-5.581015 11.33183-7.924391l.56017-.317763c9.356009-5.260495 20.381508-9.095441 33.31793-12.04684 3.319103-.757241 6.789985-1.460131 10.409604-2.11009l.661721-.118703-.066903-.208197c-1.702877-5.426444-2.751313-11.408523-3.122932-17.234269l-.048482-.831109c-.252492-4.776116-.058176-9.549437.749032-14.336939 1.277488-7.576705 3.948181-14.8255147 9.023084-21.6365821 5.742889-7.7075769 12.92534-12.6136352 20.9707-15.8950731 4.863798-1.9837829 9.875082-3.2770453 15.291224-4.1700037 7.426985-1.2244857 15.718818-1.7042186 25.830416-1.7248271zm-264.717151 712.771611v4.244985c0 7.728777 1.977581 15.329012 5.744595 22.077612l19.484133 34.905792h434.030265l19.484132-34.905792c3.767014-6.7486 5.744596-14.348835 5.744596-22.077612v-4.244985l-.004987-.494611-12.52249 2.789007c-8.083691 1.799781-16.344777 2.680914-24.626222 2.626649l-416.2875-2.727762c-4.426015-.029002-8.846245-.325114-13.236581-.88672l-17.800532-2.276559c-.006271.323184-.009409.64653-.009409.969996zm34.067885-101.064079-5.200838.001927-24.831313 80.443541 16.311907 2.086825c3.592093.459496 7.208645.70177 10.82993.725499l416.2875 2.727761c6.775728.044399 13.534798-.676528 20.148727-2.149076l12.990936-2.893009-24.98406-80.941541-5.713117-.001927c-.09763.226351-.198943.460485-.305525.706176-.006531.015056-.65429 1.504844-.805527 1.855618-1.126913 2.613732-1.89445 4.351474-2.402669 5.42437-.230474.48655-.439461.908441-.6917 1.375964-.320981.594936-.644749 1.148553-1.118382 1.846089-.158793.234294-.277888.410016-.394491.572318l-.100204.136883c-.320875.429726-.701715.855639-1.886549 2.180701-.209704.206575-.387634.38185-.549658.537775l-.081131.076574-.187702.234474c-21.322455 26.400054-47.333091 42.522195-77.502457 47.581542l-.954099.15609c-22.11616 3.527812-55.286975 5.606098-99.8743 6.323942l-1.189442.017952-.202571.0334c-.8867.136143-1.792513.214037-2.713389.2326h-.346027c-5.698851 0-11.25139-.017204-16.657708-.051623l-2.199832.013487c-3.901759.021189-7.87854.038136-11.930377.038136h-2.440109c-1.040151 0-2.061878-.079439-3.059416-.2326l-.203571-.0334-1.188442-.017952c-44.127662-.710443-77.072992-2.753423-99.18677-6.215296l-.68753-.108646c-30.575353-4.877162-56.909654-21.059683-78.456556-47.737632l-.187702-.234474-.081131-.076574c-.129619-.12474-.269419-.261864-.427522-.417491l-.122136-.120284c-1.184834-1.325062-1.565674-1.750975-1.886549-2.180701l-.100204-.136883c-.116603-.162302-.235698-.338024-.394491-.572318-.473633-.697536-.797401-1.251153-1.118382-1.846089-.252239-.467523-.461226-.889414-.6917-1.375964-.508219-1.072896-1.275756-2.810638-2.402669-5.42437-.151237-.350774-.798996-1.840562-.805527-1.855618-.106582-.245691-.207895-.479825-.305525-.706176zm402.871395-22.894686-.907946.235951c-51.900025 13.35458-120.041847 19.982487-204.543613 19.982487-82.871167 0-143.77188-6.351187-183.142546-19.356343 2.065038 7.495476 4.852407 13.609739 6.44108 17.295947 1.015454 2.356164 1.712595 3.936155 2.091421 4.739973l-.608942-.000861.091756.118465c18.917586 24.345805 41.530225 38.616914 67.837918 42.81333 21.638384 3.4516 55.362863 5.497905 101.173436 6.138914l.001864.219291c5.672591 0 11.197538-.017167 16.57484-.051501h.078346c5.377302.034334 10.902249.051501 16.57484.051501l.001864-.219291c45.810573-.641009 79.535052-2.687314 101.173436-6.138914 26.573427-4.238804 49.376776-18.756859 68.410047-43.554165-.571864 1.637922.176042.059024 2.243719-4.736692 1.606262-3.725524 4.437904-9.932156 6.50848-17.538092zm-191.971035-454.812042h-4.961048c-51.29979.03327-96.33934 1.09665-122.754106 2.69556l-.07337.298636-.099111.006883c-14.931848.948088-23.589435 2.075388-23.589435 3.284947 0 .049503.014501.098869.043341.14809l-.356486.00001c-16.405673 148.270726-28.534717 257.818686-36.38713 328.64388l-1.305297.00899c-1.120477 10.102015-2.153361 19.411246-3.098654 27.927693l1.280268.228232c-4.545163 40.965774-7.075467 63.687994-7.590912 68.16666-.081153.705137-.147228 1.408007-.199095 2.108135 35.628164 14.210661 97.689222 21.512764 185.610511 21.512764 87.697731 0 157.040595-7.237944 207.888472-21.596697-.056299-.871575-.134103-1.747857-.2354-2.62767-.013744-.119376-.028921-.251719-.045531-.397029l-.11685-1.027454c-2.166994-19.125998-17.813519-160.253477-46.939574-423.382434l.053562.438965c.26203-.144955.395321-.291337.395321-.438965 0-.188209-.216644-.374395-.640501-.558179-2.924907-.857212-10.222784-1.657141-20.949472-2.361713l-.476027-.032108.196709.013213-.045106-.185454c-25.946095-1.69832-72.409894-2.840456-125.605079-2.874955zm298.224505 5.999196c-.845416 5.688138-4.838431 15.565803-11.979044 29.632996-10.71092 21.100789-33.238038 26.764541-58.360307 26.764541l-54.4484.00772c2.568757 23.203222 5.01599 45.306542 7.341683 66.309825l47.106717-.014448c55.386823 0 65.812257 24.228353 76.691101 58.811893 7.252563 23.055693 26.383442 84.884851 57.392637 185.487473 15.723231.023639 27.136553-1.123744 34.239966-3.44215 7.103414-2.318407 16.540286-7.976596 28.310618-16.974567-7.395648-15.781596-14.92678-37.724727-22.593396-65.829393-11.499924-42.156998-56.589234-173.811869-56.589234-200.066979 0-17.503406 4.920817-34.521378 14.762451-51.053915zm-688.569436-1.420571-61.135593 7.935312c37.7124953 17.524895 59.003109 27.813533 63.871841 30.865915 14.730542 9.235103 25.143785 23.066969 31.239729 41.495598 13.677281 41.347743 48.328915 202.866395 54.629212 232.03778s44.914542 45.825842 75.311302 45.825842l13.754561.003148c.935088-8.423964 1.958416-17.646577 3.069976-27.667758l-9.40351-.005508c-30.39676 0-54.075447-17.43946-60.375744-46.610845-6.300297-29.171386-40.951931-190.690038-54.629211-232.037781-9.118187-27.565162-27.895708-44.84573-56.332563-51.841703zm389.355113-28.579429c-7.967146 0-15.654436.086025-23.025893.259729-.591713.013944-1.172411-.023742-1.73784-.108905-21.258984.632023-40.614404 2.148248-56.630779 4.763516 23.228867-.58052 50.192629-.903127 78.426779-.914052h3.970522c29.230563.019337 57.060629.372877 80.739387 1.000063-17.038443-2.820522-37.90966-4.383289-60.860417-4.951344-.493914.080921-.99904.124111-1.513243.128368l-.278976-.001511c-6.160746-.117561-12.530732-.175864-19.08954-.175864zm19.280344-60-43.090014.000482c-7.559318.013388-13.443997.30896-17.741593.923677-1.513672.216511-2.774962.466241-3.754039.7305l-.182404.050341-.001473.073119c-.004005.243265-.000572.504773.01118.780823l.014559.280762c.092577 1.518412.42776 3.142638.698547 3.989983l.035187.107313.100107.126347c.19179.241245.435282.536294.727005.879475l.180795.211639c1.118434 1.303099 2.740645 3.086078 4.846647 5.322912 4.324374 4.59302 10.602805 11.009877 18.814463 19.227492l1.076493 1.076526c.904199.903609 1.830836 1.828116 2.779905 2.773513.941846.938202 1.677491 2.04463 2.177684 3.248856l.113901.28624.877104-.011337c3.5493-.043789 7.159659-.069224 10.827806-.076485l2.207796-.002178c2.97046 0 5.904068.011746 8.799086.035336l1.149208.010664.096823-.242052c.458511-1.10394 1.11489-2.125697 1.946601-3.011017l.231161-.238027c.711802-.709048 1.410985-1.406345 2.096531-2.090871l1.75741-1.75671c8.214115-8.220073 14.492546-14.63693 18.81692-19.22995 2.106002-2.236834 3.728213-4.019813 4.846647-5.322912.373054-.434648.677652-.80162.9078-1.091114l.099107-.126347.036187-.107313c.255743-.80027.568926-2.293499.680924-3.736086l.017623-.253897c.023196-.380446.03108-.737232.025739-1.061585l-.002473-.073119-.243871-.067066c-.91654-.243872-2.071516-.474338-3.442101-.677449l-.41762-.060098c-4.391694-.613633-10.396097-.900387-18.121358-.900387z"/></svg>