<svg height="960" viewBox="0 0 960 960" width="960" xmlns="http://www.w3.org/2000/svg"><path d="m203.185873 59.7089428c76.235592-42.3818651 172.655009-15.9054509 216.429941 59.9149562l25.119543 43.506729.217943-.1575c1.71643-1.227364 3.508198-2.382814 5.373539-3.459769 31.08902-17.949254 70.842397-7.297369 88.791651 23.791651l255.012355 441.694356c54.110153 93.721533 21.998784 213.562792-71.722749 267.672944-93.721533 54.110153-213.562793 21.998784-267.672945-71.722749l-312.462754-541.201365c-44.2171037-76.58627-17.97671-174.516754 58.60956-218.7338572zm181.788925 80.9149562c-33.171409-57.4545648-106.638276-77.1399526-164.092841-43.968544-38.354946 22.144239-59.878068 62.246139-60.080761 103.554005.068654 20.245902 5.263719 40.748687 16.112217 59.538836l312.462754 541.201365c43.064457 74.589828 138.442101 100.146191 213.031929 57.081733 49.844885-28.777957 77.793276-80.917008 77.999982-134.602598-.066985-26.327333-6.810397-52.993814-20.918249-77.42933l-255.012355-441.694356c-6.903559-11.957315-22.193319-16.054194-34.150635-9.150635-7.865807 4.541326-12.33015 12.711631-12.499192 21.175067.081878 4.077846 1.164927 8.193411 3.348557 11.975568l-.429817.224698c.138214.259895.281476.518368.429817.775302l255.012355 441.694356c29.257338 50.675196 11.894734 115.47332-38.780463 144.730658-50.675197 29.257339-115.47332 11.894734-144.730659-38.780463l-312.462754-541.201365c-19.36429-33.539934-7.87266-76.427281 25.667274-95.791571s76.427281-7.87266 95.791571 25.667274l238.327075 412.794603c9.515532 16.481385 3.868593 37.556051-12.612793 47.071583-16.481385 9.515532-37.556051 3.868593-47.071583-12.612793l-180.876676-313.287593c-6.903559-11.957315-22.193319-16.054194-34.150635-9.150635-11.957316 6.90356-16.054195 22.19332-9.150635 34.150635l180.876676 313.287593c23.322651 40.396017 74.976837 54.236714 115.372853 30.914063 40.396017-23.322651 54.236714-74.976837 30.914063-115.372853zm269.331851 463.192854-.130003 1.506182c-3.056485 32.558852-21.312096 63.193174-51.788836 80.788928l-1.502984.851589c-30.141273 16.756522-65.118958 17.013345-94.356698 3.604394l-.862585-.404258 44.332402 76.785973c23.734491 41.109345 76.300806 55.194446 117.410151 31.459955 41.109344-23.734491 55.194446-76.300806 31.459955-117.41015zm-329.953629-428.192854c-13.841443-23.974081-44.496981-32.188208-68.471063-18.346766l-.714488.420264c-23.42167 14.033621-31.335306 44.316458-17.632278 68.050799l39.202852 67.901331.160129-.355402c3.754703-8.186997 9.996708-15.32927 18.390744-20.175569 21.523168-12.426407 49.044736-5.052025 61.471143 16.471143l180.876676 313.287593c3.992685 6.915533 12.835542 9.28497 19.751075 5.292285s9.28497-12.835542 5.292285-19.751075z"/></svg>