<?xml version="1.0" encoding="UTF-8"?>
<svg width="960px" height="960px" viewBox="0 0 960 960" version="1.1" xmlns="http://www.w3.org/2000/svg" xmlns:xlink="http://www.w3.org/1999/xlink">
    <!-- Generator: Sketch 60.1 (88133) - https://sketch.com -->
    <title>rs.muete.homey-buva/assets/icon</title>
    <desc>Created with Sketch.</desc>
    <g id="rs.muete.homey-buva/assets/icon" stroke="none" stroke-width="1" fill="none" fill-rule="evenodd">
        <path d="M496.141496,768 L314,768 L314,549 L490.160553,549 C590.192813,549 632,592.8 632,656.510924 C632,733.509268 576.745593,768 496.141496,768 M732.206335,448.47118 C800.288891,412.193119 836.59825,350.442795 836.59825,271.247952 C836.59825,99.3765561 715.567058,0 508.288595,0 L102.001134,0 C83.8564911,0 74.7841696,8.06860014 74.7841696,24.1649467 L74.7841696,162.372917 C74.7841696,178.510118 83.8564911,186.537865 102.021206,186.537865 L475.010035,186.639999 C546.103315,186.639999 588.474269,218.873546 588.474269,280.62387 C588.474269,346.418708 546.103315,374.607742 475.010035,374.607742 L304.542719,374.607742 L304.502577,321.477542 C304.502577,302.991255 296.594402,293.737899 280.757982,293.737899 L91.7445937,293.737899 C75.9282456,293.737899 68,302.991255 68,321.436688 L68,398.772688 L68,491.633084 L68,935.855479 C68,951.972255 77.0723215,960 95.2169646,960 L511.299321,960 C747.340249,960 882,848.57161 882,663.30021 C882,558.551398 830.556727,484.708387 732.206335,448.47118" id="Fill-41" fill="#000000" fill-rule="nonzero"></path>
        <path d="M502.141496,768 L320,768 L320,549 L496.160553,549 C596.192813,549 638,592.8 638,656.510924 C638,733.509268 582.745593,768 502.141496,768 M738.206335,448.47118 C806.288891,412.193119 842.59825,350.442795 842.59825,271.247952 C842.59825,99.3765561 721.567058,0 514.288595,0 L108.001134,0 C89.8564911,0 80.7841696,8.06860014 80.7841696,24.1649467 L80.7841696,162.372917 C80.7841696,178.510118 89.8564911,186.537865 108.021206,186.537865 L481.010035,186.639999 C552.103315,186.639999 594.474269,218.873546 594.474269,280.62387 C594.474269,346.418708 552.103315,374.607742 481.010035,374.607742 L310.542719,374.607742 L310.502577,321.477542 C310.502577,302.991255 302.594402,293.737899 286.757982,293.737899 L97.7445937,293.737899 C81.9282456,293.737899 74,302.991255 74,321.436688 L74,398.772688 L74,491.633084 L74,935.855479 C74,951.972255 83.0723215,960 101.216965,960 L517.299321,960 C753.340249,960 888,848.57161 888,663.30021 C888,558.551398 836.556727,484.708387 738.206335,448.47118" id="Fill-41" fill="#000000" fill-rule="nonzero"></path>
    </g>
</svg>