<?xml version="1.0" encoding="UTF-8"?>
<svg width="960px" height="960px" viewBox="0 0 960 960" version="1.1" xmlns="http://www.w3.org/2000/svg" xmlns:xlink="http://www.w3.org/1999/xlink">
    <!-- Generator: Sketch 60.1 (88133) - https://sketch.com -->
    <title>rs.muete.homey-buva/assets/icon_alternative</title>
    <desc>Created with Sketch.</desc>
    <g id="rs.muete.homey-buva/assets/icon_alternative" stroke="none" stroke-width="1" fill="none" fill-rule="evenodd">
        <path d="M453.726904,355 L402.709256,355 C398.326041,355 395.930871,357.066462 395.930871,361.188922 L395.930871,510.434533 C395.930871,538.287297 378.794567,552.7316 349.301724,552.7316 C319.808881,552.7316 303.465679,538.287297 303.465679,510.434533 L303.465679,361.188922 C303.465679,357.066462 300.673959,355 296.290746,355 L245.674935,355 C240.89517,355 238.5,357.066462 238.5,361.188922 L238.5,510.434533 C238.5,570.613034 279.154441,605 349.301724,605 C419.449008,605 460.5,570.613034 460.5,510.434533 L460.5,361.188922 C460.5,357.066462 458.110118,355 453.726904,355" id="Fill-35" fill="#000000" fill-rule="nonzero"></path>
        <path d="M731.362401,355 L678.788711,355 C674.898764,355 672.165986,356.750074 670.993319,360.244904 L630.50791,473.882719 C622.717684,495.910252 614.932624,522.129453 609.079623,541.720712 L607.142399,541.720712 C601.294564,522.129453 593.499173,495.559173 585.72961,473.536959 L544.830927,360.244904 C543.668592,356.750074 540.935813,355 537.433312,355 L484.472175,355 C479.414729,355 477.467173,357.803311 479.022118,361.994979 L570.149159,600.106175 C571.311495,603.249925 574.03394,605 577.551939,605 L638.292969,605 C642.188082,605 644.517917,603.249925 645.690584,600.106175 L736.817626,361.994979 C738.765182,357.803311 736.419848,355 731.362401,355" id="Fill-37" fill="#000000" fill-rule="nonzero"></path>
        <path d="M959.807072,598.015513 L868.36919,359.893929 C867.187457,356.750112 864.416137,355 860.876168,355 L840.504349,355 L819.965204,355 L799.582929,355 C796.048188,355 793.276868,356.750112 792.095135,359.893929 L748.140949,474.364002 L748.177552,474.364002 C746.791892,478.045088 748.569719,480.502692 753.197302,480.502692 L801.449648,480.8325 C804.660197,480.8325 807.525638,479.284529 808.592334,476.193906 L809.214574,474.364002 L809.256405,474.364002 C815.405599,456.160713 823.269873,432.824117 830.234778,412.136626 C843.41162,451.30402 859.8147,499.950742 861.718022,505.307467 C862.094502,506.376684 862.470984,507.451221 862.847465,508.504479 L740.904143,508.504479 C737.897522,508.376812 735.80596,509.860949 734.66083,512.983489 L702.032454,598.015513 C700.453324,602.20727 702.414164,605 707.54895,605 L760.360902,605 C763.911331,605 767.06436,603.255208 768.246093,599.765625 L783.221682,557.103326 L879.010014,557.103326 L893.598662,599.765625 C894.775165,603.255208 897.928196,605 901.876022,605 L954.301035,605 C959.420134,605 961.77837,602.20727 959.807072,598.015513" id="Fill-39" fill="#000000" fill-rule="nonzero"></path>
        <path d="M109.540076,555 L62,555 L62,498 L107.979012,498 C134.088061,498 145,509.4 145,525.982295 C145,546.02296 130.578252,555 109.540076,555 M170.987399,471.78937 C188.718974,462.341958 198.175466,446.261145 198.175466,425.637488 C198.175466,380.879311 166.653828,355 112.669757,355 L6.85533226,355 C2.1297004,355 -0.233115524,357.101198 -0.233115524,361.292955 L-0.233115524,397.284614 C-0.233115524,401.48701 2.1297004,403.577569 6.86055972,403.577569 L104.002613,403.604166 C122.518308,403.604166 133.553495,411.998319 133.553495,428.079133 C133.553495,445.213205 122.518308,452.554099 104.002613,452.554099 L59.6057204,452.554099 L59.5952656,438.71811 C59.5952656,433.903973 57.5356429,431.494244 53.4111699,431.494244 L4.18409567,431.494244 C0.0648501987,431.494244 -2,433.903973 -2,438.707471 L-2,458.847054 L-2,483.029449 L-2,598.712364 C-2,602.909442 0.362815922,605 5.08844778,605 L113.453877,605 C174.92891,605 210,575.98219 210,527.73443 C210,500.456093 196.601998,481.226142 170.987399,471.78937" id="Fill-41" fill="#000000" fill-rule="nonzero"></path>
    </g>
</svg>