<svg height="960" viewBox="0 0 960 960" width="960" xmlns="http://www.w3.org/2000/svg"><path d="m950.713954 513.755154c-17.561207 56.905445-42.93523 66.387727-67.200414 66.387727h-21.710541v-93.338402h7.170238c9.901198 0 30.165937-.536585 33.034033 33.742198h10.884656v-80.636608h-10.884656c-2.868096 32.38311-23.454124 32.018859-33.35924 32.018859h-6.845031v-92.151648h19.477188c34.793288 0 56.507747 25.548504 65.445077 60.132789h10.383132l-1.437966-68.910069h-214.252989v8.77728h23.634359v200.377351h-23.634359v8.74203h217.128921l1.453638-75.141507zm-333.071281 32.520195c0 8.804696-.638661 29.986102-24.903844 29.986102h-10.849394v-92.273065h7.652173c15.962596 0 28.101065 4.723516 28.101065 28.924682zm-35.753238-162.581389h7.33872c16.276049 0 24.578636 6.91294 24.578636 23.268996v35.861123c0 14.154881-5.747945 24.534083-18.199867 24.534083h-13.717489zm78.21437 96.377746c-6.696141-.626669-13.729243-1.253338-20.429302-1.566672v-6.290188c31.29045-.634502 73.7555-10.692537 73.7555-49.048584 0-40.239971-45.556481-52.095762-78.441623-52.095762l-174.910714-.054833.023509 8.761613h24.069275v200.420435h-24.05752l.015672 8.714613 140.517079.0235c44.384951 0 118.214896 4.320098 118.214896-57.931615 0-33.319197-29.057097-48.100747-58.756772-50.932507zm-376.386573-100.294426h24.265183v200.416518h-24.265183v8.702863h147.518836v-8.698946h-24.269101v-200.420435h24.269101v-8.77728h-147.518836zm-102.926224-.285918h6.386606c11.813261 0 20.358775 2.400925 20.358775 15.392553v90.941394l-85.176945-114.825309h-123.21839013v8.178028h6.6687134c9.90119783 0 13.50982603 7.124441 19.57906043 14.981301v156.11495c0 14.464299-2.6525963 30.123186-16.38183943 30.123186h-10.00698827v8.499196h75.6401365v-8.499196h-10.2224872c-15.3239355 0-16.6247656-15.658887-16.6247656-30.123186v-125.799846l119.2649633 164.422228h63.203887v-171.484002c0-23.374747-2.037445-37.921297 14.559894-37.921297h10.747521v-8.491362h-74.778141z"/></svg>