<svg height="960" viewBox="0 0 960 960" width="960" xmlns="http://www.w3.org/2000/svg"><path d="m175 1.15047897c1.41282 0 2.825385.03789987 4.236173.11365871l672 36.08619552c41.924015 2.2513069 74.763827 36.9019222 74.763827 78.8863418v704.482217c0 41.007065-31.375653 75.196416-72.231953 78.709551l-671.641047 57.752036-.115258.02504c-3.745315.763157-7.668923.997711-11.683822.625739l-.709442-.071954-55.271983-6.091037c-40.0391303-4.412359-70.346495-38.243106-70.346495-78.524626v-785.5600571c0-39.8919697 29.7404328-73.5245829 69.332802-78.40628349l39.538198-4.87382144.124291-.03710776c6.806965-1.97224347 13.884234-3.02599771 21.067213-3.11589224zm-34.267239 44.95104783-22.505282 2.7751709c-19.5454932 2.4099402-34.227479 19.0133821-34.227479 38.7068862v785.5600571c0 19.885814 14.9618636 36.587069 34.728016 38.765322l22.90412 2.524353c-8.330659-7.951868-13.908092-18.856357-14.97272-31.232637-.12014-1.396628-.180293-2.797768-.180293-4.199553v-798.349773c0-13.4809925 5.444067-25.6904552 14.253638-34.5498262zm34.746362 5.5498262c-16.016258 0-29 12.9837423-29 29v798.349773c0 .829628.035601 1.658874.106704 2.48545 1.372676 15.957326 15.421419 27.780522 31.378745 26.407846l671.703045-57.78102c14.997464-1.290107 26.514551-13.840446 26.514551-28.893296v-704.484217c0-15.411764-12.054762-28.131501-27.444335-28.9582437l-671.703045-36.0845365c-.518088-.0278322-1.03683-.0417558-1.555665-.0417558zm15.536436 31.6763533 647.703045 34.7952337c5.306749.285083 9.463564 4.6712 9.463564 9.985601v682.099509c0 5.190637-3.971409 9.518341-9.142949 9.963205l-647.703045 55.7165c-5.839449.502319-10.857051-4.102191-10.857051-9.963206v-772.6112412c0-5.7336235 4.811068-10.2931738 10.536436-9.9856015zm9.463564 20.5366017v751.163l627.703-53.997v-663.445z"/></svg>