<svg height="960" viewBox="0 0 960 960" width="960" xmlns="http://www.w3.org/2000/svg"><path d="m473.858333 263.152778c15.833568 0 31.044366 1.916859 43.478561 5.62155 7.947302 2.36785 15.037686 5.494815 21.329537 9.92691 4.791041 3.374897 9.052488 7.457019 12.57862 12.591121 4.991475 7.267664 7.948699 15.943572 7.948699 25.367826v31.838889c0 .317173-.003772.634334-.011317.951417l-.006073.255279c-.007546.317142-.018864.634182-.033952.951055-.341211 7.165943-2.352308 13.933174-5.673398 19.97324-2.644414 4.809396-5.981575 8.936185-9.820718 12.500188-5.437456 5.04777-11.680554 8.814307-18.647352 11.783305l-.00012 51.784874c.10888.03773.210362.08127.311643.124968 7.152894 3.086167 13.538218 7.016831 19.055076 12.3321 3.906599 3.76385 7.259126 8.129712 9.836489 13.211106 2.023181 3.988797 3.477466 8.261752 4.273762 12.718641.536524 1.957006 1.057589 3.825198 1.564186 5.610678l314.523243-63.353658c24.429962-4.920927 49.317302 6.038292 62.181606 27.381867l15.292304 25.371948c8.215526 13.630641 9.028741 30.096097 2.781305 44.208489-6.247435 14.112393-18.983544 24.579679-34.59759 27.66128l-125.910893 24.849315c5.968606 2.539233 11.287206 6.394967 15.587265 11.288286 5.736061 6.527438 9.335266 14.523685 10.518917 22.935234 1.183651 8.41155-.069059 17.090545-3.780989 24.94748-3.998389 8.463275-10.609257 15.447829-18.941887 19.931153l-35.733443 19.226175c-11.857818 6.380032-25.517044 8.585932-38.780346 6.262852l-162.854679-28.524034c-1.470343.633476-2.990323 1.230617-4.548204 1.803084-7.165451 2.633051-15.293027 4.798126-24.231202 6.532126-16.934987 3.285378-36.898965 5.033404-57.68905 5.033404-13.916444 0-27.463366-.783238-39.953787-2.304672-11.486442 7.720098-18.309088 12.230996-21.154848 13.976596-.766478.47016-4.056192 2.529906-4.991193 3.099281-2.888888 1.759206-5.364151 3.116775-8.318303 4.426975-3.594633 1.59426-7.298812 2.806093-11.219668 3.638885-3.386834.719365-17.799983 3.111986-48.012727 8.010614-9.790525 1.587414-19.790755-.321169-28.276623-5.396929-7.756395-4.639431-13.66409-11.563177-17.090152-19.61442-3.424616-8.047843-4.317895-17.100608-2.287324-25.901606 2.221229-9.627361 7.769998-18.15411 15.691391-24.110798l42.762277-32.157983.027318-.471091-322.1881204-10.077277c-11.0402949-.34535-19.71026078-9.575239-19.36491078-20.615534.34534999-11.040295 9.57523878-19.710261 20.61553368-19.364911l326.8864975 10.223722-115.650735-114.217763c-6.915565-6.829966-11.344086-15.675851-12.673642-25.204897-1.229374-8.811034.259994-17.663763 4.079359-25.459461 3.819365-7.795699 9.901946-14.398063 17.617788-18.826547 8.344607-4.789362 18.048615-6.711264 27.683867-5.432449l76.037446 10.091881c13.359512 1.773108 25.709383 8.066389 34.995274 17.832868l33.927353 35.682681.000098-29.052905c-.14738-.05079-.285061-.109364-.422371-.168229-7.180698-3.078339-13.590843-7.002268-19.130992-12.312713-3.926557-3.763755-7.298058-8.132531-9.892426-13.222545-3.237778-6.352352-5.031796-13.429258-5.031796-20.822625v-31.838889c0-9.424254 2.957223-18.100162 7.948699-25.367826 3.526132-5.134102 7.787579-9.216224 12.57862-12.591121 6.29185-4.432095 13.382235-7.55906 21.329536-9.92691 12.434195-3.704691 27.644994-5.62155 43.478561-5.62155zm-97.5486 357.785043-44.023374 33.106045c-1.589578 1.195322-.642854 3.655423 1.231613 3.59829.093723-.002857.189766-.012007.287927-.027923 28.372615-4.600273 43.740618-7.151402 46.104009-7.653387 3.864579-.820839 6.286512-2.675831 11.924905-6.134442 1.504708-.922993 4.944824-3.176056 10.320315-6.759296-5.807915-1.905628-10.855108-4.109259-15.084234-6.6677-3.986989-2.411958-7.380379-5.20358-10.100873-8.605373-.225543-.282026-.445691-.567457-.660288-.856214zm272.255961-35.745043-57.204742 11.291731c-5.134993 1.013446-10.400532-.03429-14.708012-2.810647.106073.937988.15956 1.892405.15956 2.860768v8.49037c0 3.464965-.684813 6.751374-1.931968 9.797165l155.201892 27.183968c1.219617.213617 2.449276.312349 3.673602.298679 3.213854-.035884 6.390958-.846287 9.25319-2.386295l35.733443-19.226175c3.272034-1.760499 2.585109-6.64209-1.045705-7.431239zm-174.707361-1.393704c-45.814321 0-82.954166 9.503171-82.954166 21.225926l.009547.325362.004469.068801c.031821.4471.117669.890824.255944 1.330762 2.077325 6.608949 15.985686 12.36337 36.301243 15.875514.996574.17228 2.007277.338963 3.032722.5001 1.817622.285618 3.681481.553804 5.588098.803659.391076.051249.783643.101687 1.177976.151348 2.730697.343891 5.545741.650455 8.43528.917131.793994.073277 1.593257.143512 2.397929.210685 1.633852.136392 3.290194.260169 4.967082.370865.625052.041261 1.252485.080676 1.882678.118252 5.479361.326726 11.167582.514502 17.004592.548008.630525.00362 1.262735.005439 1.896606.005439l1.274002-.002453c.115489-.000444.23092-.00095.346294-.001515 2.989205-.014653 5.939714-.069764 8.843494-.163281.73418-.023645 1.465372-.049744 2.193447-.078266 2.005881-.078583 3.987504-.175514 5.942778-.290125 1.027959-.060254 2.048896-.125414 3.062152-.195361.06127-.00423.12193-.008437.182563-.012661.633501-.04413 1.264511-.090174 1.892403-.138069 2.061412-.157239 4.089742-.334484 6.081016-.530817.181617-.017907.36318-.035998.54443-.054247 1.349367-.135866 2.681062-.280473 3.994414-.433589.325728-.037974.650801-.076528.974726-.115603 1.252386-.151078 2.487098-.309868 3.703712-.47619 1.028539-.140612 2.044005-.286586 3.045965-.437795.434231-.065534.865108-.131921 1.293411-.199277l.655565-.104172.886979-.144423c.070925-.011711.141776-.023448.212553-.035213 9.789348-1.627166 18.153364-3.768341 24.507868-6.274049.169262-.066742.337529-.133916.504352-.201348 8.114902-3.280291 12.812043-7.168524 12.812043-11.337472 0-11.722755-37.139845-21.225926-82.954167-21.225926zm408.605456-117.244419-362.715187 73.061292c10.636341 2.012113 22.001882 6.126859 34.096623 12.344238s23.309145 14.518317 33.64321 24.902815l11.922259-2.354222 313.067284-61.785978c5.44264-1.074164 8.16643-7.22696 5.302686-11.978289l-15.292304-25.371948c-3.419406-5.673245-9.476609-9.068212-15.911553-9.189679l-.37164-.003382c-1.240122.000922-2.492605.123614-3.741378.375153zm-610.244705-66.469872-.180585.003449c-3.343701.137405-5.145645 4.329767-2.597952 6.845925l141.189372 139.440697-.001225-.000076 7.553212 7.459649c3.386525-1.574517 10.441128-2.361775 21.163809-2.361775 7.468703 0 18.969745 1.278494 34.503126 3.835481 6.548037.000571 12.986292.183522 19.242165.539643l-133.006244-139.89009c-2.990443-3.145211-6.96752-5.171861-11.269736-5.742862l-76.037445-10.091881c-.190159-.025238-.376468-.037665-.558497-.03816zm201.639249 77.584661c-4.647455 0-9.131579.23812-13.352885.680484-.306793.03215-.611959.065352-.9157.099619-.056837.006412-.113728.012873-.170569.019371-.336799.038506-.671476.078279-1.004339.119341-2.124256.262052-4.174402.57658-6.137148.939009-.627683.115905-1.246319.236687-1.855577.362215-.254933.052525-.508.105834-.759395.15996-.28862.062142-.574916.125336-.858963.189591l51.571845 54.244071c1.695284-6.78887 6.829868-12.742312 15.423744-14.473366l10.491961-2.113598c-2.209425-7.327216-4.575277-15.590436-7.097557-24.78966 0-.50574-.071424-1.005801-.211024-1.499076-.033667-.118939-.071198-.2372-.112628-.355052-.562677-1.600526-1.844484-3.125731-3.732254-4.537139-.035981-.026903-.072538-.054027-.109319-.081108-.447221-.329278-.927405-.652219-1.439194-.968396-.118801-.073392-.239018-.146248-.360912-.218736-2.620884-1.558593-6.017116-2.946675-10.00963-4.103259-.210261-.06091-.421977-.121122-.635318-.180684-.390563-.109043-.786918-.215998-1.188566-.320718-.252066-.065718-.50589-.130474-.761755-.194339-2.143053-.534902-4.428879-1.007181-6.834593-1.409014-.266481-.044511-.534321-.08814-.8036-.130894-1.288197-.204541-2.61002-.389158-3.961343-.552567-.359154-.04343-.719872-.085303-1.082602-.12566-.029257-.003256-.058903-.006543-.088562-.009819-.88578-.097859-1.783084-.186647-2.691393-.266091-3.61594-.316276-7.406643-.484485-11.312724-.484485zm0-93.733333c-3.677773 0-7.309861-.130042-10.858298-.385404l.000357 74.504243c3.548879-.255414 7.181057-.385506 10.857941-.385506 3.776342 0 7.504515.137106 11.143421.406206v-74.545745c-3.638906.2691-7.367079.406206-11.143421.406206zm0-50.874074c-25.038059 0-45.335416 6.911397-45.335416 15.437037 0 1.427684.569179 2.8101 1.634487 4.122376.110457.136055.226009.27109.346791.405346.381385.423961.815258.840432 1.298811 1.248259.114749.096783.232579.193305.353187.289327.232979.185479.476029.368882.72917.550337.162368.116392.329143.232154.500016.347089.459136.308835.947974.611768 1.465146.9083.183906.105447.371518.210153.562661.314029 1.246801.677566 2.643774 1.319806 4.175057 1.921325.175467.068924.352127.137098.530517.204732.668378.253418 1.361649.499472 2.077982.737516.064188.021331.128519.042583.193035.06377.274963.090302.553375.179465.835062.267431.229504.071669.461074.142512.694779.212548.248213.074382.498505.14776.751155.220216.108382.031083.217478.062075.327007.092895.315809.088863.635073.176261.957844.262202.259916.069202.521402.137281.785106.204405 1.784835.454327 3.671616.864988 5.646322 1.227238.257595.047255.516983.093738.77784.139386.159804.027965.320531.055679.481805.083075.543475.092322 1.093079.181025 1.64862.26603.195673.02994.39155.059342.588148.088284.370928.054606.744445.107576 1.120449.158881.327832.044732.657815.088232.989639.130445 1.214741.154533 2.453987.291816 3.715345.410998.106418.010055.212956.019978.319651.029772.317832.029173.636752.057175.957012.084017 3.482617.291923 7.124575.446808 10.872772.446808 4.197046 0 8.260884-.194201 12.118241-.557653.600973-.056625 1.19712-.117378 1.787975-.182148 1.64115-.179902 3.241588-.390809 4.795243-.630683.240583-.037144.480059-.074985.718391-.113514.849079-.137263 1.683445-.283211 2.5023-.437536.091456-.017236.182469-.03453.273289-.051927.722602-.138412 1.433369-.283469 2.131157-.434846.280303-.060808.558634-.122664.834823-.185526.670366-.152579 1.327859-.311017 1.972102-.475154.268954-.068521.536216-.138199.80111-.208859.068595-.018298.13678-.036594.204807-.054955.203573-.054946.405871-.110514.606725-.166659.232136-.06489.462052-.130464.690013-.196794.240241-.069903.478335-.140654.714218-.212231.034933-.0106.069677-.021176.104373-.031769.189914-.057985.378638-.116588.565892-.175722.547247-.17282 1.081977-.350197 1.603636-.531941.202564-.070572.403374-.141881.602178-.21384 1.720111-.6226 3.290208-1.293905 4.690446-2.007155.208539-.106222.413669-.213567.614953-.321823 3.501662-1.883301 5.839267-4.042384 6.668487-6.360014.059857-.167306.111829-.335343.15582-.504161.11864-.455264.179238-.916286.179238-1.382127 0-8.52564-20.297357-15.437037-45.335417-15.437037zm0-29.909259c-25.038059 0-45.335416 6.047472-45.335416 13.507407l-.000446 4.730987c2.141398-1.010379 4.421626-1.919433 6.83222-2.740258 10.672913-3.634204 24.244919-5.588877 38.503642-5.588877s27.830729 1.954673 38.503643 5.588877c2.410968.820952 4.691529 1.730161 6.833216 2.740728l-.001442-4.731457c0-7.459935-20.297357-13.507407-45.335417-13.507407z"/></svg>