<svg height="960" viewBox="0 0 960 960" width="960" xmlns="http://www.w3.org/2000/svg"><path d="m593.006491 13.220225c1.156575-.0095058 2.301582.0279722 3.433124.1124909l.015385.0015586.461839.0016311c10.592891.0817448 21.188926 1.1132816 31.724394 3.0994808l1.373843.2644839c119.72852 23.5273562 198.266402 162.2816767 189.289534 316.4488177l-.20261 3.158587.002 264.343.278271.575464c18.686595 39.01192 25.368959 84.086509 18.518585 129.198608l-.230741 1.487218c-6.420281 40.519553-23.241427 77.744728-48.227941 107.872736l-.774174.926974-.847427 1.562123c-34.181172 62.25319-92.094391 105.41842-160.588165 116.785139l-2.14386.344845c-22.733631 3.541046-45.635312 3.442004-68.132875-.183231l-1.174673-.193876-109.994-11.441-2.182152-.133253c-108.869746-7.465658-201.540516-90.446883-222.318639-200.678154l-.613549-3.382887c-1.872459-10.745095-3.027463-21.517552-3.468384-32.263576l-.020276-.55713-.05469-.604979c-.083778-1.048987-.129494-2.111259-.129494-3.185534l.00636-.807937.022824-1.25855-.017703-1.197387c-.045447-4.704525.04627-9.398267.274371-14.076298l.062332-1.176315 6.084862-310.668286c-5.871278-8.650345-12.881635-21.023845-21.134529-37.232173-.769351-1.510973-1.141874-3.192757-1.082554-4.887283l1.391082-39.74875-23.55531-.035097c-.330578-.0005-.66088-.006492-.989804-.017978-16.343188-.569114-29.15165-14.231807-28.580504-30.541366.583107-16.651103 14.295453-29.830399 30.993975-29.838343l24.248643-.011216 1.593137-45.476826c.05163-1.47382.428522-2.916421 1.101851-4.225056l.174492-.324309c9.819028-17.470833 17.231657-29.251341 22.538983-35.682224l.184036-.221727c9.914804-11.882358 21.294919-20.911761 34.100159-26.994606 1.144542-.543689 2.381987-.864903 3.646468-.946544l12.438924-.804305c9.651742-14.31242 20.425725-27.5540233 32.213411-39.5249459 45.135774-45.8373981 102.547451-70.3425991 161.755909-66.8063561l1.740769.1123905zm-181.055358 208.863526c-.906456 3.626277-2.052704 15.061471-2.93848 28.059011l-.076355 1.134006c-.100899 1.516854-.198102 3.052275-.290829 4.596529l-.090085 1.527475c-.56097 9.687789-.936824 19.595704-.936824 27.342122v407.91954c0 7.746418.375854 17.654333.936824 27.342122l.090085 1.527475.070372 1.156382c.913567 14.815082 2.22374 28.586449 3.235292 32.633164 26.551047 106.21753 118.658944 175.748251 213.01569 160.598182 30.503233-4.897648 58.5107-18.187166 82.115149-38.217124l-.515085.218727c-.283986.120779-.56801.240475-.852344.359364-.413051.17123-.826885.341856-1.241416.510791-.48154.19909-.964451.393724-1.448221.586029-.142204.05253-.283517.108329-.424909.163931-8.00985 3.162547-16.254624 5.683283-24.675231 7.516449l.042366-.033026c-3.254062 2.43403-7.269078 3.898682-11.622727 3.9751h-67.344405c-1.266517 0-2.505517-.117719-3.706662-.342808l-.295206-.058292-.45105.004148c-7.826673.03285-15.665378-.531986-23.474132-1.700613l-1.301175-.200363c-93.129316-14.744228-154.300485-110.50974-138.061737-212.995411 14.27362-90.083391 84.389662-158.168407 166.446702-161.682435l.183555-.007739c3.684946-.153093 7.376269-.173783 11.069414-.061166l1.136152.040462 38.860214.004905c4.039926-.163714 8.104661-.168907 12.188441-.010648l4.425727.00997c1.726861.001748 3.402352.222292 5.00029.635375l.067756.016132c.254611.025629.509278.051899.763999.078813l.307693.034115c.625994.067208 1.251835.13827 1.877501.213186.178161.020612.356827.042363.535516.064432.817078.101364 1.633409.208607 2.449385.322424.040575.005474.080905.011121.121236.016784.391244.055063.782606.111492 1.173881.169434l1.537309.235516c40.294241 6.379382 74.605817 27.926204 99.253264 58.622285l-.005817-239.360386c7.590151-109.068379-33.554289-208.937881-100.476958-255.0012639-16.493343-9.116509-34.509185-15.4866462-53.658475-18.5612866-94.356746-15.1500691-186.464643 54.3806515-213.01569 160.5981815zm115.076437-168.2044756-52.079808.5239334c-98.388436-7.7737969-189.249442 83.3131442-206.933372 211.3365782-2.321145 16.804013-3.271766 33.449524-2.955315 49.750751l-.398435-.216727-7.334012 374.443857c-.28518 4.99068-.3851 10.02542-.293919 15.095904l-.032709 1.861129.074134-.021857c.266455 9.846672 1.253826 19.823918 3.004675 29.871153 16.714861 95.918144 97.438536 166.226399 189.029031 171.191572l57.452391 5.981045c-53.991251-29.72859-96.808303-84.701099-114.012092-153.524898-1.370302-5.4819-2.919023-21.460165-3.908793-38.047558l-.072283-1.229661-.091996-1.621923c-.015019-.2704-.029879-.540812-.044576-.811193l-.086214-1.621571c-.449156-8.642758-.725717-17.166572-.725717-24.177376v-407.91954c0-7.010804.276561-15.534618.725717-24.177376l.086214-1.621571c.014697-.270381.029557-.540792.044576-.811193l.091996-1.621923c.023746-.410159.047844-.820096.072283-1.229661l.074328-1.227433c.037663-.613011.076069-1.224851.115179-1.835018l.079148-1.217956c.987463-14.990271 2.388257-28.758996 3.640138-33.767151 19.326376-77.315213 70.976189-137.1503675 134.479431-163.3543366zm44.999225 484.0343986-.339321.086434c-59.599205 14.990744-108.92794 69.545861-120.223866 140.836485-13.971812 88.178627 35.309934 169.980011 111.236246 188.091551-58.887344-36.899268-92.533594-112.055437-79.989816-191.221483 9.542953-60.227298 43.793385-109.988908 89.316757-137.792987zm55.26429-445.2504708c87.392221 13.8359308 145.162094 104.2765988 129.748675 201.5534628-15.413277 97.275976-98.31311 165.444186-185.704262 151.608424-62.280239-9.860204-109.516091-58.625873-125.941259-121.045219-.145063-.562235-.290743-1.123945-.433836-1.68656-.053631-.20535-.105576-.41192-.157184-.618636-1.731047-6.909726-3.07336-13.953139-4.014281-21.095242-.012145-.085876-.023497-.171865-.034793-.257873-.083092-.645151-.163874-1.2908-.241375-1.937223-1.911874-15.76671-1.919857-32.129196.191999-48.735623-.024958-.60705.00409-1.226314.092918-1.852482.19301-1.360588.400399-2.720892.622243-4.081163 1.013116-6.210377 2.313805-12.334424 3.893984-18.355338 22.201478-87.467242 100.119022-146.456305 181.977171-133.4965278zm31.366535 256.9487858c-21.389127 36.196226-54.632084 62.761763-92.691158 74.638395l-.315896.098075c2.897505.675967 5.835763 1.25141 8.812378 1.722667 54.643498 8.651155 107.84792-20.082149 138.5084-69.253936-.302618.059682-.610197.104514-.921895.135001-1.325845.363435-2.737964.455298-4.154056.237379zm-93.236381-232.379386-1.030487.336339c-39.534865 13.293373-73.356849 45.532462-91.396009 88.631692l.005873 36.507348c1.358487-.098397 2.741027-.043822 4.131383.177127 11.00968 1.749604 18.340274 13.269039 16.373341 25.729377-1.966933 12.460339-12.486557 21.143104-23.496237 19.393499-4.256462-.676416-7.963018-2.813109-10.795002-5.89989.042908 1.304389.104251 2.604925.179807 3.901534l5.357071 1.531638c4.291401 1.227934 7.24935 5.151275 7.249021 9.614898l-.007209 44.043616c12.274531 29.404294 32.698391 53.783327 58.606245 69.069783l.779825.457219.984092-.081819c44.179975-3.906082 84.590383-30.306694 108.61639-70.434542-.123669-.625157-.187479-1.269096-.187479-1.926115v-59.335184c0-5.522847 4.477152-10 10-10l12.395834.000009c.440568-6.326563.506761-12.635981.203283-18.900989l-12.991494-.50992c-5.366055-.210713-9.607623-4.622108-9.607623-9.992299v-56.472409c0-1.678155.414079-3.262244 1.14694-4.653735-17.630646-29.483865-44.618962-51.333253-76.517565-61.187177zm101.658625 171.71652h-6.288v40.756l40.425997 6.22066.599-42.519zm-441.738479 4.870247-.141707.104281c-.779305.55099-1.640871.993282-2.562596 1.304841l-1.156221 32.987291 2.914.201.273449-13.926278c.029371-1.499569.137691-2.970902.320286-4.411281l.013404-.092949-.00105-1.412775c.011416-4.909926.124784-9.829179.340435-14.75413zm513.530274-46.315243-.016887.029133c-1.765306 3.153988-5.195743 5.274386-9.12765 5.119989l-13.546626-.530798c-1.292381.582189-2.72964.897486-4.240533.876593-1.692542-.023405-3.281048-.465981-4.6681-1.227577l-23.827899-.935301c.256279 6.638622.144162 13.316027-.340368 20.00611l46.600954 5.980071c4.293088.550938 7.601659 3.748717 8.491117 7.746588 1.540383-12.600241 1.723293-25.017638.675992-37.064808zm-129.542419-6.327596c10.092207 1.587604 16.811918 12.040425 15.008896 23.347028-1.803022 11.306604-11.44601 19.185409-21.538217 17.597805-10.092206-1.587605-16.811918-12.040425-15.008896-23.347028 1.803023-11.306604 11.446011-19.185409 21.538217-17.597805zm-413.613379 14.110252-15.231129.007214c-5.951465.002831-10.810337 4.672821-11.015741 10.538298-.183687 5.245335 3.96251 9.668053 9.289767 9.853562.106919.003734.214618.005688.323057.005852l15.918046.023074zm33.202631 1.298083-11.650524.466904c-.326694.10134-.660503.186379-1.000461.25418l-.05817.010555-.506476 14.426278 11.31048-.206086c.330877-3.112191.702648-6.224474 1.115396-9.335938l.261878-1.934221c.169827-1.229469.345796-2.456712.527877-3.681672zm13.046628-56.007039-16.052259 1.106956-1.203106 34.361835c.439549.184032.86317.398554 1.268216.640923l6.528136-.260733c2.543591-12.241039 5.707537-24.210848 9.459013-35.848981zm460.825741-9.235044-41.998997 1.402663v37.185l41.442997 1.627337zm-436.609422-47.222863-.505858.314351c-7.007673 4.375768-13.473342 10.04053-19.405807 17.022404l-.579696.688467-.149495.180103c-2.95924 3.58574-7.148788 9.892845-12.47707 18.818122l16.248466-1.11967.024841-.002046c4.930751-12.44768 10.560569-24.442445 16.844619-35.901731zm335.346406-33.189154-.503567.0161c25.156752 14.236098 46.135045 35.576201 60.705083 61.755904l49.221194-1.641764c.595211-.019857 1.183313.01334 1.758833.096084-20.539551-30.974171-51.585823-52.88843-88.545749-58.739923-7.59191-1.201951-15.156041-1.682269-22.635794-1.486401zm74.655016 755.986017.352-.085.542-.131.075-.019-.03.008-.045.011-.059512.015892.104512-.026892.08-.02.113172-.026166.319828-.080834-.324.08-.109.027-.05.012.159-.039.901-.225.135-.034-.037.009-.098.025-.577.145.470468-.116516.204532-.053484.05-.012.058979-.014173-.019979.004173-.039.01-.013.003.052-.013.141-.037.893-.232 1.655649-.445141.389351-.109859 1.677-.481.704-.208.246-.073.064-.02-.042.013-.022.007-.093.028.184-.056.260252-.07721.374748-.11579-.58.176-.055.017-.027.008.082-.025 1.103-.337.562-.177.49-.155.086-.028-.023.008-.063.02-.110237.036245.173237-.056245.067-.022.020296-.005082.140704-.046918.262-.085.406032-.130295.099968-.033705-.041.013-.465.151-.118.038.583-.189.051-.017.511-.169.606-.203 1.102-.377.373-.13 1.396142-.495338c1.053332-.380979 2.102555-.774491 3.1475-1.180397l.840358-.331265.996-.398.87-.355.201-.083.999-.418-.453.19.456782-.189766.149767-.063364 1.097451-.47187.777-.34-.746.327.750137-.326791.253863-.113209-.073.032.077-.034.261-.116-.143317.065184.584356-.26085-.427039.189666.68-.306 1.677-.769.19-.088.327-.154 1.35-.645.694-.338.291-.143 1.171-.583.401-.203.49-.25 1.102-.57.407-.214-.261922.139697.665521-.350975-.355599.186278.533-.282 1.204-.648.035-.019.162-.088.637-.351 1.332-.745-.07.04.361712-.202361-.240712.133361.821-.467.137865-.077143.074135-.044857-.009.006.072-.042.114967-.064579.489033-.286421-.422.245-.182.106-.063.036.245-.142.598-.348.177-.103-.03.018-.147.085-.176.103.257857-.148243.065143-.039757.053-.031.101702-.058268-.065702.037268-.036.021-.023.013.059-.034.301-.178-.235298.140732.775365-.459012-.400067.23528.458-.271.051-.031-.014.009-.037.022-.053.032.145-.087.088838-.051879.499162-.302121-.502.302-.086.052-.041.024.127-.076.502-.302.355-.214.468-.286.434-.266.208208-.127569.640792-.400431-.644.4.73-.454.648-.409.397-.252.173-.111.633-.407.172-.111.778828-.506516 1.80275-1.202611.727422-.496873.02-.014.168211-.113923.225789-.157077-.327.225 1.012794-.699458-.591794.409458.354062-.24384.237732-.165618.882206-.621542.076-.054-.065.047.066098-.046418.507902-.363582-.365.26.539-.385.096-.069.675-.487.218-.159 1.056-.776.024-.018.175-.13 1.303616-.978627c.934488-.71036 1.862298-1.431923 2.78325-2.164542l.753134-.604831.04-.032.061815-.048047.302185-.246953-.304.246.636-.516.139-.113.042-.034.305-.25.562-.463.016-.013.053243-.04326.220757-.18574.473245-.393601.107755-.091399.007-.006.458-.388.263-.223.096-.082.006-.005.019-.016.180421-.152213.343579-.297787-.346.297.502-.431.208-.179.09-.078.397-.345.377-.33.01-.009 1.371-1.217-.127.114.290966-.258967-.162966.142967.469-.421.366-.332.086-.079.616-.564.069-.063.039-.036.802937-.744066.245824-.230264.259239-.24667-.025.023.531-.502.262-.249.112-.107.143-.137.327-.314.387-.375-.342.332.675405-.65397.080595-.07903-.045.043.047-.046.443-.435.333-.329.02-.02 1.218-1.219-.632.636-.586.583.273273-.268959.312727-.314041.147898-.146042.484102-.489958.060967-.059123.488033-.499877 1.117-1.15-.083.087.25-.259-.138.142.439-.457.282-.297.147-.156-.098.105.248579-.261371.317421-.339629-.32.339.555-.59.693-.745.106-.115.016-.017.234598-.252828.316402-.348172-.43.469.817-.894.215-.237.407752-.450957-.312752.344957.456-.507.013-.015.732-.824.101-.114.234-.266 1.038-1.191114c.322661-.37453.643907-.750698.963726-1.128494.099771-.117859.199203-.235638.298497-.353575l.873507-1.045902c.123495-.149064.24677-.298374.369824-.44793l.358446-.439985.138-.169.549-.677.139-.171.524-.655.055761-.068027c.062969-.079115.125878-.158295.188726-.237542l.074513-.096431.549-.697-.253.322.254926-.321938.055711-.071133.028363-.037929.198-.255.538-.693.145-.189.353731-.45858.097269-.12942.4358-.572172c.152613-.201918.304839-.404238.456676-.606959l-.208161.277345c.541363-.719797 1.077816-1.444669 1.609285-2.174557.231757-.318282.462499-.637422.692287-.957511l-.490887.677854.841-1.17.428-.603.186-.264.003-.004.099021-.138505c.101848-.145056.203501-.290301.30496-.435736l.249019-.359759-.251.359.291-.418.562-.815-.254321.372987c.090791-.131805.181423-.263764.271896-.395876l.253425-.374111.635-.938.040832-.05857.113168-.17143.513-.772.584-.889.226-.344.127-.196.82422-1.281224c.050833-.079923.10161-.159897.152329-.239923.54434-.858867 1.082033-1.723516 1.613064-2.593998.343554-.563162.684448-1.128983 1.022525-1.697224l.190862-.323631.055633-.091954c.020455-.034592.040899-.069193.061332-.103803l-.082965.136757.375-.637-.047.081.262983-.446743-.105983.177743.15-.257.102-.175.114024-.193355.092976-.164645.073-.127.121289-.206307c.021417-.037262.042822-.074534.064215-.111817l-.017504.027124.027817-.0451c.056338-.098206.112591-.196483.168762-.294829l.214421-.379071.125-.22-.123.215.249-.439.11-.196.626-1.121.168-.304.213071-.385453.089929-.168547.864-1.601.143407-.265343-.107407.197343.489953-.921655.04853-.092458c.100881-.192327.20145-.384898.301706-.577714l.123811-.242173.117624-.223808.022376-.045192-.024.045.088-.17.121263-.233218c.008734-.017021.017465-.034044.026194-.051069l.087543-.174713.151104-.292388c.005758-.01131.011515-.022622.017271-.033934l-.168375.326322.260209-.507053c.220362-.434273.439143-.869756.656335-1.30644l.235456-.478507.293-.596.418-.862-.362.749.374504-.769823c.079087-.163895.157952-.327955.236594-.492179l-.03338.069667c.537024-1.120227 1.063665-2.248105 1.579753-3.383491l.754515-1.682291c.017861-.040365.035709-.080739.053543-.121122l.355471-.812761.059517-.134101.122483-.286899.171-.396.072404-.164145.047596-.114855-.069.16.088-.204.135-.317.239-.563.086-.206.197-.471.264-.635.077-.187.009583-.018995-.001583-.001005.077-.186.048-.117v-.001l.105824-.254939c.008959-.021986.017914-.043974.026865-.065965l-.132689.320904.367-.903.505-1.267.027-.068.034713-.084103c.046933-.119258.093752-.23859.140457-.357996l-.109734.279875c.420851-1.070824.832539-2.147606 1.234932-3.230238.045485-.122376.091077-.245436.136548-.368572.172097-.466036.342331-.93276.510838-1.400552l-.510838 1.400552c.234637-.635391.466075-1.272788.694289-1.912169l.072795-.207797-.058.162.155-.437.461-1.317.261-.763.075995-.21765.296005-.88635.110559-.325579.056441-.173421-.032.095.046-.139.174-.529.018-.055.181-.557.447-1.402.164-.524.156-.506.583-1.928v.002l.024721-.076909.04123-.139387-.051951.167296.144-.487.183-.626.385-1.349.136-.484.097941-.346589c.008301-.029993.016596-.05999.024884-.089991l-.015825.05258.096-.347.010563-.035204.032437-.123796.19-.701-.095.354.099307-.363251.077693-.292749-.015.053.047-.174.137-.516.047004-.173584c.056734-.21574.113112-.431668.169131-.647783l.076865-.305633.122-.476-.038.151-.084.325-.076865.305633c.035572-.137232.071-.27454.106284-.411923l.054581-.21871.026297-.097331.085703-.341669.047852-.18522.105148-.42778.176-.71.346-1.431.074877-.31186c.029429-.12497.058739-.25.087931-.37509l-.035808.14695.132-.569.443-1.965.158-.723.030881-.137159c.040991-.190557.081707-.381247.122148-.572071l.031971-.15877.096-.459.055-.263.039-.187.206-1.014.046865-.22858c.052183-.262034.103848-.524313.154993-.786836l.005142-.036584.056002-.278657.146998-.777343.143-.764.074-.405.028-.153.046677-.250538.076323-.433462.001-.004.1-.569.125856-.719911c.041321-.2417.082203-.483596.122645-.72569.089305-.534574.176538-1.070554.261614-1.607482l.397246-2.622832c.018676-.129276.037217-.258537.055623-.387783.244241-1.715105.46458-3.427133.661347-5.13607.008612-.074798.01724-.150121.025822-.225438l-.025822.225438c.103884-.902245.201198-1.803629.291981-2.704088l-.266159 2.47865c.104341-.915713.201915-1.830532.292764-2.744393l-.026605.265743c.187987-1.864605.34797-3.725249.480303-5.581376.003866-.054224.007671-.10792.011453-.161613l-.011453.161613c.063735-.893957.121056-1.786865.172004-2.678665l-.160551 2.517052c.064765-.919425.122747-1.837738.173987-2.754872l-.013436.23782c.051458-.900752.096414-1.800373.134907-2.698799l-.121471 2.460979c.050443-.902847.094352-1.804551.131771-2.705048l-.0103.244069c.03902-.910714.0714-1.820199.097183-2.728389l-.086883 2.48432c.037263-.89675.068088-1.792303.092516-2.686595l-.005633.202275c.051672-1.820166.076842-3.635131.075854-5.444362-.000038-.069025-.000114-.138057-.000228-.207081l.000228.207081c-.000484-.884799-.007224-1.768227-.02018-2.650221l.019952 2.44314c-.001474-.893577-.00933-1.78575-.023525-2.676454l.003573.233314c-.052622-3.582081-.207783-7.140509-.462811-10.671098-.005953-.082424-.011956-.16476-.018013-.24708l.018013.24708c-.061833-.856017-.129537-1.710397-.203073-2.563081l.18506 2.316001c-.067775-.921099-.142348-1.840294-.223671-2.757513l.038611.441512c-.075765-.87852-.157721-1.755239-.245826-2.630092l.207215 2.18858c-.078503-.885404-.163296-1.768966-.254336-2.650619l.047121.462039c-.088442-.878195-.183081-1.75451-.283875-2.628879l.236754 2.16684c-.083382-.807481-.172004-1.61336-.265834-2.417586l.02908.250746c-.203916-1.768945-.433023-3.529925-.686971-5.282393-.010295-.07104-.020538-.141434-.030821-.211815l.030821.211815c-.123996-.855677-.253913-1.709324-.389713-2.560879l.358892 2.349064c-.12525-.857237-.256445-1.712431-.393544-2.565517l.034652.216453c-.136644-.856854-.279244-1.711589-.427757-2.56414l.393105 2.347687c-.137982-.85858-.281945-1.715024-.431846-2.569269l.038741.221582c-.154857-.888967-.316144-1.775559-.483813-2.659703-.00087-.004585-.001818-.009582-.002766-.014579l.002766.014579c-.479584-2.528912-1.011388-5.037796-1.594312-7.524933-.01304-.055634-.026114-.111298-.039214-.166951l.039214.166951c-.191767-.818204-.389067-1.634055-.59186-2.44749l.552646 2.280539c-.196887-.836438-.399558-1.67041-.60797-2.50185l.055324.221311c-.19673-.789116-.39863-1.57596-.605664-2.360475l.55034 2.139164c-.215035-.857858-.436182-1.713021-.663395-2.565417l.113055.426253c-.221024-.837525-.447899-1.672397-.680582-2.504546l.567527 2.078293c-.217359-.815426-.440269-1.628321-.668691-2.438621l-.660737-2.284897c-.236054-.79616-.477457-1.589726-.72417-2.380636-.014651-.046968-.029245-.093684-.043857-.140391l.043857.140391c-.244331-.783272-.493869-1.56394-.748579-2.341944l.704722 2.201553c-.260628-.833061-.527149-1.663171-.799518-2.490258l.094796.288705c-1.059708-3.236857-2.208916-6.427619-3.444906-9.568031-.024703-.062765-.049693-.12615-.074718-.189514l.074718.189514c-.293-.744457-.590878-1.486085-.893595-2.224826l.818877 2.035312c-.318317-.805985-.642355-1.608642-.972066-2.407902l.153189.37259c-.31893-.778306-.643233-1.553408-.972867-2.32524l.819678 1.95265c-.308148-.746984-.621251-1.491001-.939272-2.231989l.119594.279339c-.335968-.786663-.677473-1.56993-1.024471-2.34973l.904877 2.070391c-.321325-.748686-.647671-1.494281-.979-2.236725l.074123.166334c-.681189-1.530818-1.383544-3.048275-2.106728-4.551841-.031752-.066017-.063778-.132489-.095844-.198934l.095844.198934c-.362932-.75457-.73111-1.505642-1.104491-2.253148l1.008647 2.054214c-.352673-.730787-.710272-1.458281-1.072756-2.182421l.064109.128207c-.375793-.752333-.756855-1.501054-1.143144-2.246095l1.079035 2.117888c-.368939-.737036-.74294-1.470598-1.12196-2.200622l.042925.082734c-.364164-.702368-.732973-1.401464-1.10639-2.097232l1.063465 2.014498c-.379482-.730911-.763996-1.458275-1.1535-2.182027l.090035.167529c-21.46092-39.987009-58.143012-68.980575-103.094383-76.097273l-2.145907-.322152c-.183332-.026022-.366643-.051656-.549933-.076905l-1.020517-.136617-.143144-.018728-.112305-.014231-.372695-.046769-.391988-.048931.135988.017931-.326-.04-.558-.067-1.241-.138-.575-.061-.381-.038-1.707-.16-.358-.031-1.300956-.103882c-1.977808-.147548-3.951856-.250688-5.921279-.310131l-.440765-.011987-1.705-.035-.317-.005-1.242874-.00848c-.455187-.001118-.910096.000088-1.364717.003611l-2.151776.033986c-72.35263 1.724958-136.935324 62.001171-150.072886 144.914693-14.588088 92.068056 39.780488 177.18388 121.435613 190.111515 15.290166 2.420738 30.45289 2.138641 45.095552-.523442l1.079088-.202883 1.608-.316.484-.098.355-.074 1.355-.29.677-.151.335-.075 1.248-.29z"/></svg>