<?xml version="1.0" encoding="UTF-8"?>
<svg width="960px" height="960px" viewBox="0 0 960 960" version="1.1" xmlns="http://www.w3.org/2000/svg" xmlns:xlink="http://www.w3.org/1999/xlink">
    <title>com.smappee/drivers/switch/ assets/icon</title>
    <g id="com.smappee/drivers/switch" stroke="none" stroke-width="1" fill="none" fill-rule="evenodd">
        <path d="M979.477634,158.764835 C984.949478,159.513679 988.778226,164.556543 988.029382,170.028387 C987.280538,175.500231 982.237674,179.328979 976.76583,178.580135 C909.081126,169.317211 843.988884,185.538885 781.131688,227.516507 C783.351802,230.260521 785.433008,233.205173 787.3587,236.348078 C789.223182,239.391084 790.916919,242.487035 792.437611,245.613638 C859.119652,201.207069 928.918506,183.834827 1001.47763,193.764835 C1006.94948,194.513679 1010.77823,199.556543 1010.02938,205.028387 C1009.28054,210.500231 1004.23767,214.328979 998.76583,213.580135 C929.798675,204.141703 863.523154,221.162752 799.561147,264.930352 C804.439497,284.062393 802.799151,302.648915 794.130294,315.741486 C791.69007,319.426954 789.947941,321.316866 786.038353,325.250348 L785.291032,325.998148 L784.281181,326.99856 C782.991649,328.269326 781.522856,329.693806 779.747582,331.400153 L773.875,337.026 L773.632853,337.566258 C771.797266,341.678436 769.622644,347.327384 767.429285,353.856338 L767.025036,355.068682 C761.519703,371.703096 756.816878,391.015444 753.824618,411.015516 L753.675013,411.993304 C748.618911,444.326052 731.78348,483.132253 707.834701,518.244169 C680.941098,557.673563 646.966465,590.072296 609.293901,609.217406 C573.802715,627.253944 529.198033,637.652097 479.391354,641.935543 C442.535922,645.105163 404.191234,644.602566 376.349511,641.437677 L373.468876,641.10224 C360.403756,639.663802 346.38953,640.995683 332.594754,644.448551 C327.208864,645.796653 322.182653,647.392086 317.816313,649.053846 C316.508369,649.551628 315.329943,650.029377 314.328323,650.460917 L313.610998,650.775498 C313.412414,650.864246 313.233948,650.945541 313.078673,651.017579 L312.724,651.185 L312.387806,651.370749 C305.559146,655.084976 297.6463,658.171738 289.236242,659.907223 L288.333288,660.087965 C273.31887,663.00031 258.054959,661.462518 244.063023,652.864682 C243.058525,652.247433 242.078488,651.61908 241.122141,650.979062 L-25.4599288,867.956533 C-31.9936241,873.274448 -41.7724932,868.625124 -41.7724932,860.200791 L-41.7724932,795.332966 C-41.7724932,792.257046 -40.3569247,789.352262 -37.9343204,787.456933 L201.03454,600.498924 C199.791094,596.800779 198.868325,592.838735 198.294131,588.548511 C197.303017,581.143173 197.230602,574.044338 198.337786,567.091719 C199.808947,557.853499 203.332012,549.17082 209.315341,541.667032 L209.42047,541.536591 C209.570494,541.352168 209.759514,541.126174 209.982602,540.863902 L210.531488,540.224597 C211.504615,539.099616 212.870645,537.556657 214.400795,535.841362 L223.133165,526.103471 C224.209191,524.902051 225.121431,523.878941 225.75505,523.157441 L226.700121,522.068342 C227.792102,520.800531 228.808057,519.597242 229.750258,518.454328 C231.868177,515.885238 233.524883,513.711954 234.545135,512.269436 L234.875,511.795 L235.294301,510.45708 C235.424111,510.033891 235.563383,509.573849 235.712657,509.0751 L236.444076,506.596337 C236.696427,505.731096 238.12289,500.738223 239.6148,495.536635 L239.828256,494.792554 C240.398019,492.80681 240.96962,490.817858 241.481763,489.042358 L243.24407,482.988703 C250.148717,459.557235 256.894969,439.520255 265.043104,419.719182 C282.904123,376.314483 303.990177,343.014762 331.734462,321.917807 C369.718403,293.034544 397.685314,274.479603 429.891716,258.880967 L431.910265,257.909835 C475.744705,236.961572 520.848425,225.746468 569.470997,225.746468 L573.078918,225.74334 C610.402656,225.678073 636.504367,224.593809 653.86214,222.711198 L655.497416,222.528516 C665.028047,221.431872 669.629896,220.502577 673.959237,219.050483 L674.736581,218.783311 L675.274858,218.591119 C675.634178,218.460975 675.994884,218.326732 676.359652,218.187996 L676.831603,218.00706 C679.065636,217.14401 681.735401,216.022248 684.56385,214.760262 L685.377925,214.395408 C688.379985,213.043567 691.443044,211.591117 694.061975,210.28664 L695.41556,209.606149 C696.218865,209.198042 696.929521,208.828699 697.512755,208.517341 L698.178294,208.156767 L698.403851,208.012794 C711.073007,199.983232 727.603214,198.880168 742.710848,202.655228 C751.083183,204.747288 759.020673,208.371452 766.214083,213.463678 C834.170454,166.953598 905.384952,148.624953 979.477634,158.764835 Z M252.166,585.827 L252.128134,585.843516 C251.698323,586.042945 251.066761,586.498635 250.272141,587.285446 C249.995944,587.558928 249.704037,587.816075 249.397906,588.055577 L-21.772,800.205 L-21.772,839.167 L263.009,607.378 L263.087943,607.149912 C264.223532,603.60003 262.630051,598.335544 256.946584,590.618214 L256.638193,590.202435 C255.347725,588.474757 254.168244,587.231736 253.160235,586.458388 C252.699532,586.104934 252.373924,585.915819 252.177554,585.831591 L252.166,585.827 Z M719.736806,241.85163 L719.376211,242.089377 C718.32632,242.754766 716.308909,243.854319 713.707163,245.179285 L712.660115,245.708791 L711.259124,246.406742 C708.904324,247.570539 706.241721,248.841317 703.473638,250.108857 L701.801749,250.868111 L700.925586,251.260859 C697.414316,252.827578 693.834557,254.337066 690.579575,255.575076 C679.322762,259.856529 660.846652,265.746468 569.470997,265.746468 C559.633743,265.746468 550.080059,266.279687 540.793977,267.283728 C544.57563,269.223154 546.837368,273.448865 546.088361,277.85913 L545.55155,281.04734 C543.861583,291.174521 542.55594,299.890253 541.634617,307.174731 L541.473859,308.462919 L541.269421,310.157087 C540.809919,314.044801 540.473048,317.474928 540.25881,320.443899 L540.214778,321.073048 C539.784189,327.427419 539.641658,335.99239 539.792275,346.731862 C560.758482,333.933492 584.543815,320.34871 611.150856,305.973878 C611.60263,304.187717 611.84877,301.998822 611.84877,299.397077 C611.84877,294.652401 611.038079,287.424386 609.391117,277.886327 C608.451379,272.444017 612.101435,267.270345 617.543745,266.330607 C622.986054,265.390869 628.159727,269.040924 629.099465,274.483234 L629.373034,276.0904 C630.630998,283.59156 631.413844,289.874404 631.711771,295.005325 C654.107181,283.199228 678.30557,270.888911 704.309084,258.071191 C709.262814,255.629387 715.258079,257.665703 717.699883,262.619433 C720.141688,267.573162 718.105371,273.568427 713.151642,276.010232 L707.636782,278.734459 C688.414353,288.250464 670.215814,297.476332 653.04213,306.411146 C657.281397,308.867298 661.807244,311.894589 666.657284,315.464583 C683.461215,327.833538 697.833236,342.269984 709.742564,358.752562 C712.977075,363.229144 711.970178,369.48022 707.493596,372.71473 C703.017015,375.949241 696.765939,374.942344 693.531428,370.465763 C682.845881,355.676905 669.946103,342.719302 654.801311,331.571597 C647.408495,326.129929 641.213977,322.398169 636.354296,320.379734 C634.253083,319.50701 632.503445,318.998512 631.151661,318.816357 C630.297376,318.701241 629.817965,318.732711 629.653033,318.7876 L629.422568,318.861109 C599.85798,334.659013 573.705446,349.486904 550.970814,363.339221 C562.041488,365.185298 572.111554,367.965502 581.182048,371.694211 L582.182059,372.110742 C598.727247,379.090022 625.647795,394.691954 663.360983,419.074095 C667.998951,422.072611 669.32799,428.263204 666.329474,432.901172 C663.330958,437.53914 657.140365,438.868179 652.502397,435.869663 L648.056309,433.003941 C612.911858,410.422317 587.95496,396.102375 573.577864,390.192222 C560.009657,384.614587 543.300241,381.431942 523.446795,380.7285 C517.164664,384.859124 511.229725,388.889947 505.639598,392.822057 C480.573353,410.453717 449.590602,435.137272 412.717537,466.857341 C412.645551,466.973791 412.572518,467.086865 412.49725,467.198422 C423.470965,467.178778 434.821279,468.161467 446.543844,470.139374 L447.927514,470.377481 C470.928808,474.410143 513.598132,485.478784 576.277698,503.640213 C581.582355,505.177239 584.636624,510.72352 583.099597,516.028178 C581.562571,521.332836 576.016289,524.387104 570.711632,522.850078 L565.076781,521.220974 C504.94552,503.875427 464.214761,493.403615 443.216346,489.860626 C422.934071,486.438468 404.136319,486.321193 386.786833,489.466502 C362.755206,510.681784 336.548568,534.496157 308.173646,560.905645 C304.1309,564.668364 297.803321,564.441357 294.040602,560.398611 C290.277884,556.355865 290.504891,550.028286 294.547636,546.265568 L299.697661,541.47863 C334.084804,509.558719 365.272525,481.475513 393.27136,457.222824 C391.163904,445.250073 389.47235,434.85893 388.195365,426.023597 L388.003665,424.687052 C386.433001,413.649812 385.533051,405.12775 385.302567,399.068495 L385.215451,396.598678 C384.630719,378.599238 385.230383,363.077654 386.614432,350.148015 L386.710009,349.270466 C387.036119,346.327142 387.384416,343.711262 387.738546,341.427438 L387.916021,340.313219 C388.175098,338.730128 388.386462,337.614631 388.524143,336.974008 C389.684599,331.574454 395.002539,328.137986 400.402093,329.298443 C405.710129,330.43923 409.12106,335.597764 408.132715,340.901929 L407.984138,341.653753 C407.886723,342.16787 407.775429,342.798021 407.653461,343.543307 L407.499269,344.511884 C407.216385,346.338018 406.933152,348.44119 406.662009,350.817932 L406.58837,351.472914 C405.239735,363.645126 404.637727,378.515054 405.205448,395.966173 L405.288113,398.308275 C405.607906,406.715373 407.499364,421.361045 410.957856,442.051557 C443.412384,414.502307 471.130929,392.643342 494.133025,376.46361 C499.678918,372.562615 505.547416,368.571909 511.738691,364.49133 C513.091668,362.752859 515.00314,361.474616 517.197954,360.923323 C518.143469,360.311481 519.096977,359.696298 520.057593,359.079134 C519.84979,351.850911 519.741706,345.329454 519.734533,339.50741 L519.734958,338.000709 L519.741616,336.222625 C519.776695,330.080695 519.935447,324.792813 520.219158,320.349856 L520.260539,319.720895 C520.959253,309.409699 522.995985,294.381274 526.370699,274.510431 C526.763808,272.195744 527.922967,270.202842 529.544129,268.747489 C458.070336,279.608101 402.809171,318.122962 355.946011,353.758047 C300.705726,395.763159 277.335495,517.281975 270.960654,529.349311 C265.413424,539.85001 249.685211,556.320762 242.943718,563.870684 L242.455256,564.419969 C241.827238,565.129426 241.29388,565.745952 240.874348,566.254657 L240.590108,566.604733 C239.594787,567.852981 238.842444,569.363957 238.333079,571.137661 C249.65243,561.766208 262.711365,564.912333 272.661716,578.233864 C283.802936,593.14973 286.786144,607.133632 279.483164,619.031126 C278.970045,619.867064 278.337152,620.62228 277.605315,621.27298 C283.895085,620.676695 289.925303,618.070462 293.449201,616.137077 L293.658458,616.021431 L293.843262,615.919974 C300.255785,612.444777 337.665186,596.497919 379.160287,601.493906 L380.436134,601.643992 C423.143693,606.552681 525.383143,606.991696 591.17188,573.558012 C657.625149,539.786615 706.667862,455.875132 714.264918,405.096893 C721.861974,354.318653 738.051143,316.246564 742.089715,312.152977 C742.864737,311.367398 743.975724,310.285043 745.275711,309.032856 L752.579206,302.032024 C753.813671,300.843435 755.013348,299.680576 756.100113,298.610927 L757.002153,297.718485 L757.668044,297.052377 C759.24094,295.469868 760.395606,294.236795 760.778465,293.658562 C762.267364,291.409879 765.291969,276.896568 753.251725,257.245789 C741.211481,237.59501 722.496052,239.937971 719.736806,241.85163 Z" id="Combined-Shape" fill="#000000" fill-rule="nonzero"></path>
    </g>
</svg>