<svg height="960" viewBox="0 0 960 960" width="960" xmlns="http://www.w3.org/2000/svg"><path d="m675.557753 52.8270815c47.767515 19.0519881 92.141809 47.7100605 130.885195 84.3224755 38.618408 36.49431 71.113311 80.390146 95.750962 129.526089 25.234987 50.327234 41.911914 105.49224 49.009475 163.297231 7.424775 60.469942 3.976368 120.66212-9.801307 177.838249-13.452882 55.828268-36.580828 107.995076-67.997378 153.624423-31.611976 45.913183-71.133566 84.506627-116.471722 113.405646-46.864739 29.87208-99.171972 48.912445-154.519785 55.708302-25.234342 3.098387-50.510092 3.579868-75.582175 1.419353-.702032.04738-1.419585.019796-2.14056-.027146l-140.469666-9.145813c-2.753772-.179295-5.427893-.634479-7.988849-1.353583-91.108016-10.76149-176.297618-54.920599-242.468525-124.126286-68.0429825-71.16362-112.4430076-165.016345-125.09852979-268.087302-7.28800735-59.356057-3.67354956-118.466458 10.29940469-174.631376 13.6320913-54.810413 36.9438995-106.035675 68.5283805-150.849601 31.7472196-45.04483 71.3652336-82.92054 116.7449916-111.3058543 46.857006-29.3093415 99.092124-48.0408487 154.318451-54.821789 8.288883-1.0177469 16.584289-1.758908 24.878093-2.2155358.224348-.0472874.458118-.0650955.69248-.0809096l136.556896-9.2144391c1.776011-.1198397 3.532721-.1218489 5.252196.0282281 51.152643-1.5879455 101.748011 7.5951944 149.621972 26.6896382zm-150.533382 13.2729171-4.396399.1861671c-7.992555.3925438-16.01903 1.079121-24.070315 2.0677802-201.28211 24.716481-341.848186 228.8746351-313.963119 456.0000001 24.807221 202.056137 174.574707 354.220061 349.051806 367.946705.1281.009515.255806.019487.383524.029386l5.63289.387837c.07832.004716.156644.009404.234973.014064l5.590727.284731c.115976.004914.231961.009767.347957.014559l5.649916.184604c.089638.002155.179282.004273.268932.006355l5.601394.082188c.121733.000746.243475.001424.365227.002035l5.704509-.021028c.066678-.000826.133358-.001672.200041-.002539l5.679306-.122965c.114283-.003464.228574-.006988.342872-.010571 3.869757-.121087 7.747623-.311197 11.632954-.570973.122282-.008358.244329-.016585.366384-.024881 3.891543-.264364 7.790906-.598846 11.696678-1.004167.102531-.010703.205197-.021405.307868-.032155l5.885924-.66948c201.28211-24.716481 341.848186-228.874636 313.963119-456l-.859712-6.618808c-29.183082-212.991437-197.509731-368.8432646-385.617456-362.1288444zm-126.656511 8.3532546-11.548218.7796482.000806.0375057c-7.766787.4094921-15.566086 1.0909371-23.389558 2.0515387-201.28237 24.7143672-342.3434704 224.8598112-315.0641557 447.0320002 23.8256285 194.044172 168.1781557 340.713965 338.4506357 358.276044l.002272.250416 32.263883 2.100476c-38.555974-16.279293-74.769685-39.23418-107.280818-67.949209-39.672128-35.039884-73.214431-78.11229-98.647028-126.869145-26.091025-50.01913-43.28015-105.281376-50.41209-163.371404-7.131936-58.090001-3.821391-115.869456 9.394929-170.715268 12.882785-53.46169 35.009429-103.369857 65.026864-146.967176 30.115154-43.739247 67.703034-80.444522 110.748177-107.882163 16.176407-10.3110925 33.030197-19.2565508 50.454301-26.7732638zm239.009897 33.2837578c42.784157 14.590795 82.905108 38.401837 118.135958 69.918081 35.1361 31.431485 64.864304 70.039032 87.430105 113.728976 23.168529 44.856892 38.464401 94.413404 44.863212 146.532064l1.966771 19.524321c3.58148 45.49911.124613 90.52069-10.051099 133.509299-11.326837 47.851688-30.832732 92.504829-57.321754 131.503475-26.560444 39.103797-59.729601 71.914412-97.713234 96.423039-39.153931 25.263753-82.794914 41.317577-128.926231 46.982282-13.706028 1.683035-27.420602 2.423039-41.085429 2.237349-1.890126 1.549817-4.34986 2.414106-6.981772 2.244151-2.423874-.156521-4.590106-1.164179-6.226216-2.712873-27.841786-1.595594-55.396794-7.032583-82.168444-16.16259-42.784158-14.590794-82.905108-38.401836-118.135958-69.918081-35.1361-31.431485-64.864304-70.039032-87.430106-113.728975-23.168528-44.856893-38.4644-94.413405-44.863211-146.532064-1.465916-11.93996-2.446228-23.862418-2.946671-35.739457-1.162437-1.634123-1.845923-3.632364-1.845923-5.790242 0-1.946785.556304-3.763638 1.518616-5.300265-.61743-36.17041 3.223396-71.836679 11.358306-106.203657 11.326837-47.851687 30.832732-92.504829 57.321754-131.503474 26.560444-39.103797 59.729601-71.914412 97.713234-96.42304 39.153931-25.263753 82.794913-41.3175768 128.926231-46.9822821 46.131358-5.6647102 92.359536-.64637 136.461861 14.3939631zm233.760692 382.020907-278.899629-.002023c-6.326422-.000056-11.074329-.000067-16.915828-.000049l-2.705212.000009-2.784749.000011-2.483875.000009c-.100903 148.849798-2.848414 268.224888-8.230572 358.357182l-.001936.01052c11.329259-.013119 22.743484-.708231 34.207242-2.115926 161.255315-19.801382 278.89365-174.039965 277.814559-356.249733zm-642.417152 29.090368c22.334659 181.916991 156.382031 317.844724 310.399719 328.589877 5.380427-89.786663 8.130743-209.023727 8.248301-357.681653l-321.220508-.0017c.521107 9.637071 1.375014 19.339985 2.572488 29.093476zm181.656555 144.195968c5.769285 0 10.446214 4.623158 10.446214 10.326112s-4.676929 10.326112-10.446214 10.326112-10.446215-4.623158-10.446215-10.326112 4.67693-10.326112 10.446215-10.326112zm26.861694 0c5.769284 0 10.446214 4.623158 10.446214 10.326112s-4.67693 10.326112-10.446214 10.326112c-5.769285 0-10.446215-4.623158-10.446215-10.326112s4.67693-10.326112 10.446215-10.326112zm249.337825 0c5.769285 0 10.446214 4.623158 10.446214 10.326112s-4.676929 10.326112-10.446214 10.326112-10.446214-4.623158-10.446214-10.326112 4.676929-10.326112 10.446214-10.326112zm26.861694 0c5.769285 0 10.446214 4.623158 10.446214 10.326112s-4.676929 10.326112-10.446214 10.326112-10.446214-4.623158-10.446214-10.326112 4.676929-10.326112 10.446214-10.326112zm-290.396691-24.524516c5.769285 0 10.446214 4.623158 10.446214 10.326112s-4.676929 10.326112-10.446214 10.326112-10.446214-4.623158-10.446214-10.326112 4.676929-10.326112 10.446214-10.326112zm263.534997-2.581528c5.769285 0 10.446214 4.623158 10.446214 10.326112s-4.676929 10.326112-10.446214 10.326112-10.446214-4.623158-10.446214-10.326112 4.676929-10.326112 10.446214-10.326112zm26.861694 0c5.769285 0 10.446214 4.623158 10.446214 10.326112s-4.676929 10.326112-10.446214 10.326112-10.446214-4.623158-10.446214-10.326112 4.676929-10.326112 10.446214-10.326112zm-210.085574-522.744265c-161.347101 19.812653-279.027554 174.215592-277.812601 356.560898l356.672371.000998c-.110215-142.14908-2.986651-260.902389-8.605867-356.40337-22.994778-2.932972-46.518168-3.07316-70.253903-.158526zm98.880919 356.5608 268.310787.001577c-.519485-9.73883-1.378818-19.545087-2.589114-29.403012-20.560504-167.46641-135.790816-295.959689-274.120539-323.699269 5.473285 95.203123 8.272268 212.893072 8.398866 353.100704zm-175.199081-101.004683c5.702459 0 10.325215 4.623158 10.325215 10.326112s-4.622756 10.326112-10.325215 10.326112c-5.70246 0-10.325216-4.623158-10.325216-10.326112s4.622756-10.326112 10.325216-10.326112zm286.645733 0c5.769285 0 10.446215 4.623158 10.446215 10.326112s-4.67693 10.326112-10.446215 10.326112-10.446214-4.623158-10.446214-10.326112 4.676929-10.326112 10.446214-10.326112zm26.861694 0c5.769285 0 10.446214 4.623158 10.446214 10.326112s-4.676929 10.326112-10.446214 10.326112-10.446214-4.623158-10.446214-10.326112 4.676929-10.326112 10.446214-10.326112z" fill-rule="evenodd"/></svg>