<svg height="960" viewBox="0 0 960 960" width="960" xmlns="http://www.w3.org/2000/svg"><path d="m359.936437 3.08075573 308.613405 32.07075717.230218-.0425987c.614132-.1118229 1.319751-.2395463 2.136851-.3873532l.357069-.0645876c.498073-.0413678.885463-.0735428 1.262966-.0951448l.188394-.0099134.094455-.004284.191172-.0071984c1.192522-.0387003 2.690327.0285837 7.448064.2423093.478659.0715186.857975.1281936 1.217009.1896167l.194301.0340921c.125685.0226332.250626.0463123.378355.0719121l.194124.0399495c1.149732.2427177 2.64799.6659756 6.859779 1.8558068.654613.2580834 1.097439.4326693 1.520828.6132376l.230168.0996229c.437089.1920326.89079.4078597 1.573803.7464284l.90196.4507569c.411171.2065949.888617.4474427 1.453248.7322714 6.210866 4.0930775 6.210866 4.0930775 10.118171 8.1279362 3.036925 3.7062803 3.036925 3.7062803 4.867031 6.7137383 1.442889 2.6705177 1.442889 2.6705177 2.347885 4.7765274.167798.5003474.322173.9606669.464422 1.3856141l.204442.6114733c1.14795 3.4384992 1.407215 4.3180129 1.662841 5.8110373l.055044.3304804c.046361.2851527.094622.5970948.149822.9538914.287889 2.1565725.287889 2.1565725.382337 3.4424701.060611 1.7134285.090504 2.4843259.093483 2.9956667l.000248.3218451c0 .2508539-.012363.4668167-.026086.7856189-.031246.7615402-.031246.7615402-.058094 1.2072608-.024387.3943131-.051127.7512679-.082672 1.1337087-.038613.4681289-.086964.9999941-.148576 1.6452551-.105612 1.1060666-.255288 2.1972279-.447122 3.2719222l-.11394.6026304-.016759.1488796c-.188126 1.5671948-.427192 3.5893271-.714215 6.0432805l-.054378.465171c-1.200939 10.27884-3.195381 27.700522-5.997528 52.388486-7.798131 68.594262-17.680293 322.155526-17.680293 442.634596v312.855054c0 21.195483-16.5334 38.711331-37.69362 39.933452l-321.908831 18.592034c-3.940928.22761-7.893843-.129395-11.73022-1.05941l-16.952201-4.10955c-14.712179-3.566524-25.855794-15.009444-29.390821-29.192337l-.060134-.252656-.145674-.048236c-15.771554-5.435582-26.700068-20.248942-26.942326-37.24381v-806.948758c0-18.6680791 12.912959-34.8538289 31.114638-39.0006453l24.370362-5.5515508.068344-.2297633c4.493092-14.782462 17.291524-25.96529156 33.116329-28.01911157l.573289-.07024931 16.812255-1.93858146c2.894998-.33381536 5.817807-.35026351 8.716378-.04905153zm5.885772 41.07992707-.116965.8873305-.486356 5.3039979c-16.444878 179.5042508-24.732562 326.1048388-24.898312 440.3959438l-.002537 3.488616c0 115.250885-.829741 245.912073-2.488918 391.937019l-.049877 4.315181-.000402 25.811742 312.209827-18.031533v-312.855054c0-115.327057 9.547278-373.361013 17.9363-447.152888 4.02673-35.477013 6.410305-56.1674746 7.150724-62.0540568l.019149-.1604683-309.24299-32.1358959c-.008825.0832404-.018703.1666003-.029643.2500658zm-20.106842-.130524-5.332193.614083c.005301.3567804-.008384.717385-.04195 1.0807372-16.95028 183.483989-25.406644 332.768293-25.406644 448.484116 0 116.180834-.846589 248.053133-2.539452 395.568929l.000658 22.68938c0 .197051-.005699.39277-.016942.587003l5.399998 1.309106.000402-23.874742.000656-.114519c1.692033-147.741037 2.538139-279.804014 2.538139-396.137681 0-116.431913 8.457894-266.258286 25.397328-450.2064122zm-27.706258 26.4279692-32.844267 7.481581v806.381465l7.274 1.520339.00811-.711593c1.658361-145.658998 2.487628-275.982516 2.487628-390.920825 0-110.759741 7.684674-251.800075 23.074529-423.750967zm62.214707 84.750668 260.772 20.845c5.468682.437143 9.564098 5.198609 9.178446 10.671164l-.192001 2.724557c-8.26847 117.776203-12.440113 218.61716-12.525175 302.662906l-.001331 2.623854-.000883 6.765563c-.013832 53.13021-.190181 109.392843-.528989 168.777434l-.001003.204721c-.026601 5.429253-4.38047 9.845434-9.808797 9.949179l-263.188 5.031866c-5.621683.105575-10.22683-4.441385-10.191088-10.06398l.018217-2.816208c.381376-61.758206.575542-120.130787.582859-175.087071l.000215-3.225149c0-89.281575 4.963803-198.162724 14.89595-326.978636l.222319-2.885253c.425156-5.517682 5.250819-9.640907 10.767261-9.199947zm8.406184 20.735204-.0427.563542c-9.50344 124.992393-14.249014 230.825469-14.249014 317.765756l-.000215 3.226481c-.007024 52.753604-.186073 108.648471-.539071 167.660396v.109825l243.18-4.648.010028-1.776715c.297621-55.194008.452904-107.644699.465845-157.352713l.000883-6.761366.001337-2.633974c.083008-82.018894 4.027997-179.781298 11.838665-293.458004l.236242-3.438228zm286.475593-99.973726-.010751.0762389.099168.0103829c.201596-2.1113124.172124-2.1398818-.088417-.0866218z"/></svg>