<svg height="960" viewBox="0 0 960 960" width="960" xmlns="http://www.w3.org/2000/svg"><path d="m557 8c1.506911 0 2.994903.0834829 4.459508.2461401l.351492.0428599 1.668984.04291874c90.478523 2.53698466 160.651691 19.45628776 213.197347 47.90191236l1.619506.8834336c22.000171 12.092762 40.214644 25.8954041 55.053503 40.9654349 11.569918 11.7501634 20.292999 23.3802834 27.267152 35.1944814 17.958032 30.420862 35.244374 101.306857 42.570295 176.940099 2.079256 21.466357 2.793757 69.954988 2.811856 157.418189l-.000605 14.98927c-.00101 3.232032-.003702 6.535635-.01088 9.91993-.097766 93.710101-1.228061 145.88057-4.333031 173.460724-7.942508 70.549997-24.303949 135.148004-41.183596 163.742084-7.219862 12.230427-16.308988 24.256421-28.441799 36.376195-15.59539 15.578632-34.811353 29.754723-58.085154 42.043986-56.979429 30.086844-134.088957 46.832342-234.56705 46.832342-15.139697 0-29.696753-.311004-43.688952-.927323l-1.495576-.068677-20.753.001-1.487785.074184c-11.936128.570822-24.221145.878243-36.860767.920816h-2.71392c-101.751572 0-176.808183-13.932659-231.927727-40.485124-23.864846-11.496293-43.704021-25.196778-60.671841-41.19163-13.096913-12.345911-23.08772-24.436947-34.674767-40.688707-35.4076029-49.661994-51.103193-140.446018-51.103193-259.75488v-182.679423c0-119.334887 15.6989927-210.138591 51.113392-259.810117 10.702438-15.011025 19.896229-26.288374 31.697451-37.831253 15.285305-14.9506916 32.923971-27.9532278 53.932268-39.1343829 46.62986-24.8176079 108.419843-39.7950241 190.265794-44.12182382l2.294095-.11765928.170111-.04308546c2.850371-.69657647 5.819917-1.08761131 8.871692-1.14191454zm-17.887998 40c-210.234486 0-263.839182 62.187847-294.783936 105.573126-30.944754 43.38528-43.684491 133.112813-43.684491 236.503415v182.613389c0 103.366462 12.736763 193.073046 43.674292 236.448197 30.937529 43.37515 84.52971 105.548478 294.715111 105.548478s269.988046-77.320625 286.658113-105.548478c11.983264-20.29157 27.886639-76.838965 35.881907-147.829433 3.127048-27.765252 3.996828-87.269473 4.082095-168.966431.006168-5.910348.010142-11.748781.011395-17.504697l.000069-7.354161c-.015128-73.070241-.517385-131.749026-2.625617-153.505906-7.445852-76.840927-24.520227-138.926811-37.203883-160.404373-16.67396-28.234445-76.49057-105.573126-286.725055-105.573126zm-184.924413 3.328496-1.427155.1299265c-145.143945 13.6488502-188.480736 64.8488255-215.077476 102.1528795-30.943667 43.400968-43.682958 133.160946-43.682958 236.588934v182.679423c0 103.40384 12.736316 193.142862 43.672759 236.533697 26.760871 37.534261 70.472999 89.139765 217.828576 102.386639-14.376583-4.554797-27.591415-9.761503-39.720945-15.602284-22.00595-10.596614-40.148779-23.120671-55.634681-37.712793-11.991106-11.29903-21.21521-22.457764-32.110448-37.733146-32.257749-45.226131-47.391686-132.726816-47.391686-248.061842v-182.613389c0-115.361042 15.13734-202.8814 47.401885-248.117059 10.897621-15.278724 20.1237-26.439846 32.117347-37.741271 15.489173-14.5952035 33.635842-27.1219125 55.646497-37.7207911 11.748903-5.6574966 24.515854-10.7202224 38.378285-15.1689239zm229.488699 140.54715c140.902058 22.316693 233.84968 170.886572 208.438338 331.327472-25.411342 160.440899-159.720401 273.016856-300.622459 250.700162-140.902058-22.316693-233.84968-170.886572-208.438338-331.327472 25.411342-160.440899 159.720401-273.016856 300.622459-250.700162zm-280.868692 253.828852c-23.772615 150.094382 62.478507 287.960403 191.81326 308.445015 129.334753 20.484613 253.967388-83.980702 277.740003-234.075085 23.772615-150.094382-62.478508-287.960403-191.81326-308.445015-129.334753-20.484613-253.967388 83.980702-277.740003 234.075085zm266.95347-193.409073c111.863453 17.717431 185.555069 135.508013 165.428845 262.57999s-126.610407 216.325516-238.473861 198.608086c-111.863453-17.717431-185.555069-135.508013-165.428845-262.57999 20.126223-127.071977 126.610407-216.325516 238.473861-198.608086zm-218.720095 201.736775c-18.487496 116.72546 48.507621 223.812185 148.803769 239.697534s197.103908-65.257548 215.591405-181.983008c18.487496-116.72546-48.507621-223.812184-148.803769-239.697534-100.296148-15.885349-197.103908 65.257548-215.591405 181.983008zm204.016655-362.7656552 1.974185 56.5332582c.250568 7.175328-5.363059 13.195206-12.538388 13.445774l-2.245481.078414c-7.175329.250568-13.195207-5.36306-13.445775-12.538388l-1.974185-56.5332574c-.250568-7.175328 5.36306-13.1952062 12.538388-13.4457742l2.245482-.0784139c7.175328-.250568 13.195206 5.3630592 13.445774 12.5383873z"/></svg>