<svg height="960" viewBox="0 0 960 960" width="960" xmlns="http://www.w3.org/2000/svg"><path d="m442.889809 10.358489c5.522848 0 10 4.4771525 10 10l-.000038 117.303 45.605 2.554.000672-116.2560297c0-5.5228475 4.477153-10 10-10 5.522848 0 10 4.4771525 10 10l-.000672 117.3760297 49.465 2.77.000461-112.9440893c0-5.5228475 4.477152-10 10-10 5.522847 0 10 4.4771525 10 10l-.000461 114.0640893 74.893746 4.193864c39.880759 2.2332 72.488483 34.570361 73.13665 74.232537l.009833 1.204102v644.288016c0 40.209931-32.862888 73.180881-73.146483 75.436639l-273.234285 15.300287c-2.127557.119137-4.252041.14736-6.368673.089317l-.057788-.002404-.489963.025222c-2.355765.099139-4.756968-.009653-7.183948-.343282l-.728848-.10685-45.891785-7.147463c-.660928-.102937-1.31917-.222436-1.974105-.358385-24.077034-4.99781-47.088728-14.71462-65.143439-27.255293-9.612386-6.676694-17.812074-14.140084-24.120646-22.319972-8.621681-11.179136-13.919266-23.786027-13.919266-37.879696v-633.398041c0-14.013335 5.210005-26.643495 13.814377-37.516961 6.314985-7.980335 14.449507-14.977463 24.050148-21.160545 16.198028-10.431985 36.968408-18.724654 59.639012-23.979502l1.021463-.234232 44.730642-12.911921c5.102733-1.47295 10.203944-1.887946 15.100963-1.396811l.589395.064732.21635-.008528c1.911874-.062548 3.831151-.052376 5.754256.030972l.961855.047775 43.270539 2.422423.000038-116.183c0-5.5228475 4.477153-10 10-10zm-54.025473 163.781032c-15.861956 2.254706-27.835181 15.893831-27.835181 33.09002v679.372187c0 17.529098 12.441302 31.362072 28.760729 33.208112l270.827259-15.166627c19.541412-1.094259 35.382857-16.987795 35.382857-35.499205v-644.288016c0-18.51141-15.841445-34.404946-35.382857-35.499205zm-42.190619 8.739687-14.469642 4.177987c-39.223915 8.68546-68.463304 27.481846-68.463304 44.126892v633.398041c0 16.730249 31.85306 40.098883 71.313086 48.289831l13.875629 2.160827c-5.013695-8.197273-7.900331-17.926093-7.900331-28.431058v-679.372187c0-8.811446 2.03094-17.076822 5.644562-24.350333z"/></svg>