<svg height="960" viewBox="0 0 960 960" width="960" xmlns="http://www.w3.org/2000/svg"><path d="m479.427345 1c60.656294 0 117.878064 3.48933523 161.952927 9.7350049 22.526372 3.1921206 41.387569 7.0651363 55.994644 11.6440094 8.687955 2.7234095 16.170789 5.7718033 22.640013 9.4443137l.559414.320328c6.87361 3.9702194 12.788862 8.668155 17.458196 14.7537848l.229806.3025592.216635.255738c2.902219 3.4627036 5.246436 7.4532777 6.869702 11.8581823 2.608076 7.077291 4.825019 13.2113234 6.655645 18.4175625l.416638 1.2048765c1.776503 5.2254477 3.176756 10.5067363 4.192284 15.8334497l.147096.797191.023651.0993291c.433274 1.9371572.746676 3.9064897.934669 5.8997299.058777.623199.102917 1.247693.132384 1.872964l.031952.67801.026955.70362c.017389.469212.017389.938649.017389 1.408093l-4.089 714.873254.028418.155988c.703481 4.037369 1.060582 8.126433 1.060582 12.242012 0 24.585492-12.185093 46.04275-32.487921 63.339585-15.871755 13.521818-37.079494 24.833498-62.635395 34.042341-48.349259 17.422228-111.965515 27.118074-179.376684 27.118074-67.16585 0-130.567291-9.625326-178.854981-26.930596-25.491503-9.135606-46.683369-20.355432-62.597134-33.755545l-.606826-.514216c-16.521012-14.088696-27.657131-30.91877-31.215405-50.000761l-.036654-.201882-.126998-.385363c-1.210384-3.779983-1.874114-7.80519-1.898006-11.982886l-4.164045-728v-.228751l.006534-.782837.010515-.397163-.017049-.648947c-.098019-9.2250077 1.323002-18.3793135 4.200612-27.3071241l.317929-.9683633c2.800165-8.3753966 6.763758-16.3056789 11.814986-23.720154l.256522-.3724116.122745-.2088774c5.139766-8.6375501 12.402791-14.7768979 21.199671-19.7707946 6.469224-3.6725104 13.952058-6.7209042 22.640014-9.4443137 14.607074-4.5788731 33.468272-8.4518888 55.994643-11.6440094 44.074863-6.24566967 101.296633-9.7350049 161.952927-9.7350049zm202.042761 876.023142-1.29025.446912c-6.283334 2.167109-13.002741 4.227386-20.133686 6.181085-47.69545 13.067352-111.809672 20.497009-180.126173 20.497009s-132.430723-7.429657-180.126173-20.497009c-6.694249-1.834055-13.025821-3.762035-18.974419-5.784149 41.311263 24.085498 115.258839 40.13301 199.60794 40.13301 85.331531 0 160.01783-16.423506 201.042761-40.976858zm-438.168013-355.720333 1.788594 312.697191.840689.000748c.021198 1.31635.125926 2.625569.31237 3.927001 10.022475 9.053304 30.095371 18.56035 58.83482 26.434236 45.840231 12.559068 108.206448 19.786163 174.841431 19.786163s129.0012-7.227095 174.841431-19.786163c29.881262-8.186713 50.39365-18.138936 59.978632-27.510643.126535-1.11127.187285-2.22875.187285-3.351342 0-2.795649-.376765-5.559588-1.112996-8.285585l1.707365-298.43332c-12.399089 4.545377-27.850492 8.650708-45.928794 12.238231-48.579405 9.640271-113.97025 15.128822-183.672923 15.128822s-135.093518-5.488551-183.672923-15.128822c-24.153236-4.793055-43.617489-10.510391-57.378223-16.96656-.529478-.248417-1.051759-.498388-1.566758-.749957zm474.540735-400.501561c-13.680892 10.372052-35.184507 19.090427-63.061569 26.284507-47.089149 12.152039-110.39856 19.062393-177.861262 19.062393s-130.772113-6.910354-177.861262-19.062393c-24.667809-6.365886-44.345147-13.925309-58.027857-22.767915l2.137488 373.697359c2.487927 1.911274 5.904615 3.918192 10.195446 5.931335 12.061968 5.659154 30.07712 10.950837 52.776222 15.455328 47.19219 9.364987 111.30522 14.746286 179.779963 14.746286s132.587773-5.381299 179.779963-14.746286c20.98594-4.164525 37.96827-9.001903 49.943991-14.180454zm-445.532665-59.8910981-.319349.1020508c-11.451307 3.7314284-18.615998 7.8238719-20.539672 12.1332308l-.040865-.0002472c-3.662596 5.0397547-6.399637 10.3697084-8.211124 15.9898612-.9656 2.9957825-1.623389 5.9919909-1.973367 8.9886251 2.296519 3.1885234 6.354781 6.7163104 12.3917 10.3996344 11.496316 7.014283 28.70842 13.589062 50.43881 19.196904 45.328575 11.697697 106.987885 18.427939 172.863701 18.427939s127.535126-6.730242 172.863702-18.427939c21.730389-5.607842 38.942493-12.182621 50.438809-19.196904 9.634145-5.87811 14.229036-11.3600991 14.663359-15.7011592-.19754-.6073082-.403171-1.2147215-.616755-1.8221458-1.758371-5.0007491-3.909382-10.9523544-6.453031-17.8548157l-.412532.0002472c-1.825893-4.0903104-8.373532-7.9851969-18.826784-11.5614359 1.052278 2.4330509 1.601964 5.0236876 1.601964 7.7931088 0 10.5097734-7.916325 18.4447753-21.344977 24.9568675-10.90777 5.289616-26.226228 9.9403971-45.192276 13.8305681-22.089507 4.530832-48.602473 7.92403-77.624417 9.969352-18.982804 1.702448-41.775974 2.642202-65.728741 2.642202-23.953703 0-46.747717-.939828-65.731723-2.642231-29.020787-2.045526-55.532688-5.438647-77.621435-9.969323-18.966048-3.890171-34.284506-8.5409521-45.192277-13.8305681-13.428651-6.5120922-21.344976-14.4470941-21.344976-24.9568675 0-3.026692.656558-5.8398394 1.912256-8.4669545zm207.978155 31.8659444c-29.617089 0-57.33455 1.470388-77.684834 4.0227672l.181938-.0227672.74813.0925034c3.954634.4843271 8.178446.9284541 12.632595 1.329622 20.30329 1.4247919 41.915536 2.1788843 64.122171 2.1788843 22.206271 0 43.818172-.7540677 64.12088-2.1794695 4.455005-.4005369 8.679048-.8446847 12.633886-1.3290368l.745466-.0925977-.745466-.0924092c-19.948874-2.4431539-46.747298-3.8633647-75.409862-3.9064852zm-.860973-51.7760943c-39.192575 0-76.080526 1.4898072-108.315145 4.1148032-10.791786 1.4726585-20.898382 3.167625-30.158454 5.0669806-17.474938 3.5843263-31.30735 7.7839338-40.484057 12.2340875-4.173821 2.0240534-7.182687 4.0082712-8.931325 5.7610346-.427624.4286323-.736268.7993316-.940519 1.0994097l-.066938.1007888.066938.1007888c.175072.2572098.426842.5663045.764494.919294l.176025.1801157c1.748638 1.7527634 4.757504 3.7369812 8.931325 5.7610345 9.176707 4.4501538 23.009119 8.6497613 40.484057 12.2340875 5.892725 1.208671 12.128251 2.3345742 18.665547 3.3729606 1.176241-2.7336677 3.356264-4.8422696 6.088164-6.5167151 2.343531-1.4364055 5.273396-2.6178594 8.886889-3.6893743 6.220354-1.8445317 14.850966-3.4468 25.520193-4.784959 21.246225-2.6647503 49.776225-4.1782428 80.173779-4.1782428s58.927554 1.5134925 80.173779 4.1782428c10.669227 1.338159 19.299839 2.9404273 25.520193 4.784959 3.613493 1.0715149 6.543358 2.2529688 8.886889 3.6893743 2.7319 1.6744455 4.911923 3.7830474 6.087226 6.5165093 6.537599-1.038066 12.77346-2.1640223 18.666485-3.3727548 17.474938-3.5843262 31.30735-7.7839337 40.484057-12.2340875 4.17382-2.0240533 7.182687-4.0082711 8.931325-5.7610345.427623-.4286324.736268-.7993316.940519-1.0994097l.065116-.1017888-.065116-.0997888c-.175072-.2572098-.426842-.5663045-.764494-.9192941l-.176025-.1801156c-1.748638-1.7527634-4.757505-3.7369812-8.931325-5.7610346-9.176707-4.4501537-23.009119-8.6497612-40.484057-12.2340875-8.512901-1.7461016-17.741229-3.3194666-27.561275-4.7057769-33.240682-2.8491927-71.679193-4.4760069-112.63427-4.4760069z"/></svg>