<svg height="960" viewBox="0 0 960 960" width="960" xmlns="http://www.w3.org/2000/svg"><path d="m509.668206 5.76399822 23.825759 1.55190777c117.496787 13.63375601 209.055249 113.90556201 209.055249 234.42790701v289.102736.379457.134932c0 .871435-.009149 1.742316-.023225 2.612602l-.001882.238122c-.000605.126742-.002504.253221-.004505.379691-.000338.021394-.000687.04278-.003753.059401-.002132.307253-.007664.614219-.013792.921135-.017785.890601-.040592 1.780691-.068424 2.670519-.016669.532873-.035114 1.064948-.055353 1.596792-.025931.68152-.054836 1.363311-.086688 2.044791-.02631.56289-.054612 1.125228-.084923 1.687358-.036402.675129-.075709 1.350093-.117909 2.024739-.035465.566963-.072961 1.133525-.112491 1.699763-.045434.650818-.093588 1.301643-.144434 1.952123-.043306.554013-.088547 1.107555-.135742 1.660902-.056465.662009-.115711 1.32355-.177736 1.984623-.055479.591322-.113218 1.18263-.173184 1.773607-.060382.595067-.123003 1.189627-.187886 1.783916-.067304.616455-.137017 1.232392-.209136 1.847814-.0692.590526-.140692 1.181202-.214406 1.771466-.076248.61054-.154856 1.220514-.235864 1.830225-.081546.613753-.16545 1.226713-.251754 1.839209-.079579.564775-.161254 1.129525-.244966 1.693862-.10974.739796-.222976 1.47885-.339729 2.217314-.068157.431091-.137472.861732-.207967 1.292069-.10521.642265-.213136 1.284368-.323714 1.92594-.099917.579716-.201953 1.158739-.306168 1.737425-.144582.802824-.293274 1.604539-.446094 2.405266-.070027.366925-.141003.734065-.212864 1.101082-.231105 1.180317-.471109 2.358121-.720103 3.533931-.042318.199833-.084875.399514-.127694.599152-.206028.960563-.418035 1.919677-.636001 2.877272-.086264.378988-.173487.757852-.26165 1.136505-.185639.797299-.375376 1.593384-.569245 2.388417-.114133.468044-.229692.935695-.346683 1.402988-.174857.698423-.352881 1.39591-.534083 2.092516-.1183.45479-.237966.909249-.358969 1.363271-.187165.702271-.377603 1.40377-.571286 2.1044-.13378.483935-.269008.967097-.405754 1.449752-.185165.653555-.373248 1.306637-.564144 1.958886-.146963.502136-.295497 1.003458-.445694 1.504282-.191283.637822-.385292 1.274929-.581982 1.911175-.147149.475994-.295776.951437-.445912 1.426429-.221641.701214-.446517 1.401281-.674634 2.100233-.134979.413576-.271142.826908-.408447 1.239874-.233169.701287-.46956 1.401297-.709275 2.100341-.159512.465157-.320301.929325-.482499 1.392895-.22711.649097-.457247 1.297762-.690177 1.945339-.170082.472849-.341608.944996-.514642 1.416621-.231747.631652-.466168 1.262283-.703288 1.891963-.176602.468972-.35461.937177-.534085 1.404778-.298032.776498-.60023 1.551644-.906478 2.325153-.126394.31924-.253454.638142-.381212.956788-.880187 2.195299-1.79306 4.377282-2.738264 6.545323-.139262.319428-.279211.638522-.419877.957348-.329229.74621-.662235 1.490615-.999003 2.233192-.184461.406744-.370269.813412-.557211 1.219541-.313545.68117-.630199 1.360649-.950086 2.038713-.196383.41627-.393906.831842-.592626 1.246839-.289113.603767-.580814 1.206425-.87505 1.80787-.247282.505464-.496299 1.009957-.747048 1.51348-.280291.562847-.562996 1.124974-.847947 1.68605-.240787.474112-.482929.946988-.726665 1.419101-.290321.562345-.582948 1.123691-.877747 1.68378-.243505.462638-.488661.924737-.735361 1.386095-.322239.602623-.646866 1.203527-.974018 1.802973-.230156.42172-.461847.843236-.694841 1.264124-.321638.58101-.645401 1.160185-.971583 1.738054-.263782.467322-.529261.933989-.79626 1.399693-.30975.540273-.621679 1.079479-.935733 1.617528-.267703.458638-.536787.916157-.807367 1.372757-.371162.626333-.745333 1.251259-1.122328 1.874471-.212226.350831-.425301.701046-.639281 1.050734-.424424.693598-.85237 1.385068-1.28383 2.074398-.192573.307669-.385806.614848-.579746.921611-.377512.59713-.757639 1.19259-1.140395 1.786402-.260737.404511-.522667.808219-.78585 1.211212-.632907.969122-1.272667 1.933529-1.919406 2.893416-.138893.206143-.278022.411952-.417468.617547-.49566.730784-.995394 1.458954-1.499104 2.184372-.287087.413448-.575489.826036-.865186 1.237735-.389764.553907-.781834 1.106152-1.176258 1.656804-.284703.39747-.570519.793953-.857521 1.189551-.387469.534082-.777248 1.066753-1.169243 1.597887-.333949.452481-.669276.903538-1.006123 1.353362-.354454.473341-.710958.945802-1.069219 1.416993-.32866.432258-.658497.863058-.989794 1.292767-.390811.506905-.783779 1.012454-1.178715 1.516407-.327542.417956-.656492.834882-.986867 1.250801-.390848.492046-.783402.982323-1.177788 1.470989-.318561.394717-.638749.788913-.96019 1.182125-.440329.538643-.882678 1.075041-1.327365 1.609581-.286504.344396-.574044.688097-.862536 1.031006-.464695.552347-.931806 1.10257-1.401375 1.650721-.30313.353858-.607291.706861-.91244 1.058957-.403799.465925-.809468.930425-1.216901 1.393377-.368515.41873-.738428.836145-1.109907 1.252432-.454038.508801-.909799 1.015234-1.367686 1.519748-.308348.33975-.617936.678929-.928464 1.017211-.590329.643087-1.184019 1.28289-1.781098 1.919439-.19092.203542-.382422.407001-.574313.61017-1.598895 1.692864-3.221793 3.362473-4.868218 5.008348-.262849.262765-.527144.525763-.791887.787999-.563252.557918-1.129231 1.113084-1.69791 1.665472-.289101.280819-.578912.560931-.869388.840294-.556913.535606-1.116468 1.068645-1.678603 1.599056-.30158.284559-.603657.568132-.906453.850929-.524833.490169-1.051992.978156-1.581283 1.463782-.402291.369103-.805793.736823-1.210523 1.103175-.437387.395913-.876254.79027-1.316527 1.183003-.424815.378945-.851011.756443-1.278583 1.132487-.458197.402978-.917684.804035-1.378616 1.203307-.401332.347646-.80414.694266-1.208098 1.039576-.48539.414918-.972131.827685-1.460465 1.238506-.404204.340047-.809777.67899-1.216491 1.016641-.485781.403289-.972816.804425-1.461374 1.20363-.402906.32922-.807169.657386-1.212441.984215-.506063.40811-1.013705.814141-1.523064 1.218201-.419413.332707-.83962.663788-1.260871.993439-.486192.380473-.974174.75935-1.463554 1.136327-.415701.32022-.832349.639022-1.250041.956479-.541937.411887-1.085599.821486-1.630943 1.228764-.394784.294835-.790559.588535-1.187247.881041-.689861.508682-1.382259 1.013589-2.077328 1.514815-.23297.167999-.466269.335605-.699861.502793-1.875207 1.342131-3.76941 2.657359-5.682092 3.94527-.454145.3058-.909091.609899-1.365005.91241-.529784.351528-1.061283.701179-1.594199 1.048754-.390447.254654-.781246.50793-1.172753.760059-.610527.39318-1.22312.783789-1.83747 1.171629-.372284.235023-.744973.468879-1.118291.701709-.603992.376696-1.209803.750812-1.817202 1.122202-.430322.263119-.861544.524931-1.293591.785392-.561679.33861-1.124647.674872-1.688932 1.008802-.464213.27471-.929539.547972-1.395821.819692-.523794.305233-1.048457.608325-1.574281.909444-.500708.286737-1.002527.571718-1.505317.854862-.534623.301072-1.070496.600151-1.607428.897131-.459841.254341-.920709.507279-1.382483.758746-.589851.321211-1.180643.639734-1.772778.955782-.455223.242973-.911418.484578-1.36833.724678-.599091.314814-1.199585.62713-1.801391.936899-.421745.217086-.844086.432897-1.267079.64746-.690945.350481-1.383568.697602-2.077928 1.041391-.358932.177712-.718103.354423-1.077652.530201-.776586.379665-1.555575.755289-2.336579 1.12668-.28615.136073-.572384.27149-.85888.406335-2.130995 1.002998-4.276909 1.974568-6.436899 2.914236-.414574.180354-.829767.359575-1.245505.537632-.664315.284519-1.329758.565951-1.996434.844338-.413553.172691-.827884.344335-1.242719.514818-.707747.290859-1.416679.578224-2.127007.862177-.385213.15399-.770973.30703-1.157113.459053-.71207.280342-1.42551.557259-2.140376.830768-.423747.162125-.847719.32295-1.272092.482539-.681817.256406-1.365214.509826-2.049875.760139-.473732.173196-.947526.344709-1.421831.514702-.621538.222765-1.244501.443112-1.868335.660842-.507398.177093-1.015359.35245-1.524028.52612-.114364.039046-.228749.078002-.343493.115676l-.001282 129.955839c0 13.265302-4.550758 25.785245-12.454808 35.743877l-.000447 42.400118c-.000281 26.505078-21.48697 47.991537-47.992048 47.991537h-38.611293c-26.505078 0-47.991767-21.486459-47.992048-47.991537l-.000447-42.40012c-7.903928-9.958297-12.454808-22.478403-12.454808-35.743893l.000037-96.127122c-9.893178.158927-19.913072-2.783492-28.564738-9.029265l-52.323243-37.772972c-12.616481-9.108036-19.560785-23.289071-19.8775-37.853054-23.010709-15.761665-42.78755-34.840364-58.421889-56.508761-25.220084-34.95375-38.883848-75.550273-38.883848-118.138929v-285.239083c0-46.991693 16.628041-91.596238 46.858009-128.978249 28.294077-34.9881097 67.55874-62.4573605 113.17653-79.4771826l-.008649-.0214705 33.315161-13.4194747c2.065905-.9067013 4.148103-1.7766322 6.243291-2.6155292.124066-.0496754.248356-.0993128.372694-.1488421 1.056891-.4210051 2.116929-.8340653 3.180226-1.2392128.055066-.0209818.10998-.0418811.164877-.0627496 1.049113-.3988109 2.101475-.7899482 3.156767-1.1732838.11066-.0401976.221469-.0803513.332359-.1204368 1.071717-.3874119 2.14627-.7667245 3.223747-1.1379593.082072-.0282774.164466-.0566124.246891-.0849052 1.074061-.3686744 2.150821-.7292641 3.230523-1.0818389.0691-.0225646.138063-.0450476.207005-.0674872 1.095575-.3565957 2.194245-.7049614 3.29572-1.0449932.097254-.0300228.194484-.0599665.291736-.0898456 1.097097-.3370635 2.196987-.665869 3.299368-.986316.046789-.0136012.09419-.0273635.141679-.0411343 1.109811-.3218212 2.221695-.6350589 3.336329-.939892.119279-.0326208.238537-.0651308.357757-.0975262 1.098648-.2985329 2.20004-.5889226 3.303931-.8710925.101303-.0258944.202265-.0516274.303222-.0772848 1.077377-.2738111 2.157331-.5398407 3.239345-.7979513.103709-.0247396.207748-.0494801.31183-.0741534 1.145382-.2715162 2.292946-.5341422 3.44297-.7879284.058012-.012802.115873-.0255469.173716-.0382642 1.09705-.2411955 2.196386-.4743563 3.297719-.6994099.142788-.0291784.285676-.058234.428615-.0871564 1.117868-.2261913 2.237719-.44402428 3.359461-.65347025.107696-.02010862.215802-.04021277.323952-.06024395 1.159963-.21484225 2.321712-.42068583 3.485501-.61756352l.029072-.00491621c1.175124-.19863804 2.352157-.3881092 3.531224-.5684196.12388-.01894427.247577-.03775656.371308-.05646962 2.367024-.35799004 4.741754-.67899901 7.123448-.96281932.114345-.01362611.228674-.02716288.343031-.04061523 1.163057-.13681629 2.327707-.26476035 3.493927-.3838168.084384-.00861451.168681-.01717282.25295-.02568111 1.152118-.11632545 2.30587-.22398619 3.460968-.32294341.092696-.00794131.185452-.01583091.278221-.02366472 1.207257-.10194586 2.415957-.19438581 3.626028-.27730117.048295-.00330927.096718-.00661184.145164-.00990065 1.204804-.08178796 2.410821-.15412865 3.618326-.21702378.058297-.0030363.116007-.00602032.17365-.00897911 1.20973-.06209876 2.421283-.11472152 3.634064-.15782737.097674-.00347128.19482-.00686259.291928-.01019109 2.44909-.08395362 4.903211-.13596899 7.361348-.13596899h.338189c1.230305 0 2.462187 0 3.694794.02556002zm-29.341936 912.26158378.000498 47.324933h38.611293l-.001168-47.073504c-7.507565 1.190573-13.930413 1.789281-19.304478 1.789281-5.760992 0-12.188951-.684149-19.306145-2.04071zm-12.454734-179.453287.00178 20.784006c12.706271 1.141831 23.303723 1.709991 31.759099 1.709991 1.749504 0 3.659665-.024354 5.729013-.073264 5.521306-.1305 10.102999 4.239611 10.233499 9.760916.1305 5.521306-4.239611 10.102999-9.760916 10.233499-2.22116.052499-4.287868.078849-6.201596.078849-8.703969 0-19.280816-.545575-31.759546-1.631922l.000447 9.921931c12.706271 1.141831 23.303723 1.709991 31.759099 1.709991 1.749504 0 3.659665-.024354 5.729013-.073264 5.521306-.1305 10.102999 4.239611 10.233499 9.760916.1305 5.521306-4.239611 10.102999-9.760916 10.233499-2.22116.052499-4.287868.078849-6.201596.078849-8.703969 0-19.280816-.545575-31.759546-1.631922l.000447 9.921931c12.706271 1.141831 23.303723 1.709991 31.759099 1.709991 1.749504 0 3.659665-.024354 5.729013-.073264 5.521306-.1305 10.102999 4.239611 10.233499 9.760916.1305 5.521306-4.239611 10.102999-9.760916 10.233499-2.22116.052499-4.287868.078849-6.201596.078849-8.703969 0-19.280816-.545575-31.759546-1.631922l-.001357 47.772658c0 3.799598 2.240963 7.232133 5.699026 8.769471 10.432256 2.740182 19.145325 4.089793 26.061877 4.089793 5.455817 0 12.732218-.831747 21.760636-2.508298 1.404766-.445467 2.763328-.940543 4.076613-1.485019 3.585334-1.486446 5.923653-4.984692 5.923653-8.865947l.002003-147.150234c-6.932104.914756-13.966706 1.489518-21.086456 1.706484-14.392553.438598-28.596996-.638391-42.437328-3.190983zm-93.08062-44.908888-7.1928 11.718785 51.999168 37.479246 10.813109-15.531098c-20.415475-8.12886-39.162811-19.558004-55.619477-33.666933zm131.834622-639.9326268-3.062085.0308165c-99.827171 1.8325244-179.759808 84.3935853-179.759808 187.2154563v296.118681c0 104.84071 83.228485 187.296523 185.896024 184.170212 30.49865-.928709 59.281883-9.118649 84.677485-22.853774l.549926-.308378c.429907-.237784.858823-.47717 1.286617-.718081.402599-.226721.804312-.454853 1.205034-.684332.421039-.241113.841095-.483775 1.260486-.728169.373384-.217585.745981-.436392 1.117554-.65628.452011-.267489.902849-.536777 1.352608-.807915.346076-.208634.691453-.418327 1.036033-.629018.486677-.297576.971949-.597256 1.455611-.898905.299112-.186549.597682-.373896.895985-.562215.492308-.310795.983129-.62376 1.472091-.938652.313771-.202067.626924-.405021.939906-.609151.427103-.278563.853046-.558774 1.277425-.840363.365501-.242519.730136-.486252 1.094173-.731377 1.534067-1.03297 3.052632-2.087414 4.555266-3.162885.187324-.134072.3744-.268471.561191-.403169.557482-.40201 1.112749-.80692 1.66595-1.214833.318164-.234605.635588-.470162.952153-.706582.437492-.326731.873563-.655271 1.308202-.985608.335074-.254665.669295-.510398 1.002763-.767273.392662-.302473.784135-.606421 1.174005-.911516.338026-.264523.675153-.530145 1.011732-.797142.408639-.324162.815943-.649939 1.221964-.977372.325243-.262291.649623-.525611.972778-.789665.392095-.320384.782915-.642275 1.172818-.965967.326371-.27095.651839-.54295.976091-.815735.391952-.329737.782579-.660998 1.172201-.994052.324209-.277139.647493-.555328.969446-.834214.370015-.320517.738804-.64241 1.106622-.965901.34316-.301805.685243-.604801 1.026181-.908926.353429-.315266.705695-.631805 1.056743-.949566.324891-.294084.64878-.589251.971698-.885528.424906-.389853.848067-.781571 1.269282-1.174966.243073-.227018.485561-.454652.727733-.683156.451229-.425765.900412-.853662 1.347424-1.283571.233209-.224288.465858-.44915.697929-.674573.45653-.443452.91088-.889121 1.363028-1.336989.212655-.21064.424822-.421767.635507-.632385 1.321847-1.321405 2.624646-2.6617 3.908264-4.020757.154006-.163058.307731-.326381.460902-.489678.479313-.510999.955877-1.024577 1.429791-1.540846.24927-.271549.497773-.543805.74518-.816406.367521-.404947.733344-.811441 1.097952-1.220025.298049-.334.594952-.66903.890758-1.005144.326997-.371556.652586-.744361.976649-1.118282.244917-.282598.489025-.565905.732308-.849901.376815-.439874.751681-.881439 1.124646-1.324753.2315-.275166.462243-.550978.692132-.827319.356783-.428874.711737-.859294 1.065202-1.291679.257892-.315474.514802-.631766.770272-.94831.316463-.392115.631418-.785473.945101-1.180375.264988-.333602.528892-.668086.791669-1.003399.316823-.404277.632061-.809828.945538-1.216425.265718-.344651.530292-.690208.794043-1.037098.287308-.377873.573247-.756817.857446-1.136339.270171-.360785.539102-.722529.807024-1.085548.314288-.425844.626857-.853001.937559-1.281268.230125-.317201.459303-.635115.687642-.953896.316172-.441404.630517-.88417.943057-1.328331.232218-.330014.463422-.660774.693584-.992241.403707-.581399.804279-1.165077 1.201624-1.750908.111759-.164773.223268-.329725.334624-.494999.518121-.768993 1.030808-1.541834 1.538161-2.318705.210816-.322808.420683-.646271.629622-.970422.306584-.475639.611116-.952679.913604-1.431138.155331-.245695.310117-.491756.464403-.738253.345497-.551991.688255-1.105811 1.028251-1.661436.171336-.28.341971-.560459.511961-.841469.301824-.498948.60143-.999336.898616-1.500836.216613-.365531.432041-.731819.646446-1.099144.251333-.430592.501028-.862219.74899-1.29472.213705-.372746.426187-.746254.637293-1.120254.260968-.462334.520062-.925821.77761-1.391059.186375-.336673.37176-.673945.55584-1.01124.261712-.479537.521422-.960274.779344-1.442616.19728-.368936.39338-.738569.588139-1.108593.235771-.447943.469809-.896896.702018-1.34668.194858-.377435.38849-.755575.581156-1.134936.227759-.448463.453793-.897906.677868-1.347867.200453-.402524.399521-.805823.597257-1.210012.235122-.480608.468275-.962303.699391-1.444953.158788-.331603.316642-.663714.473632-.996486.255505-.541592.508525-1.08452.759164-1.629028.149332-.324422.297776-.649314.445091-.974148.268962-.593064.534962-1.187677.798041-1.783957.112315-.254567.224087-.509413.335328-.764571.753917-1.729279 1.482788-3.471295 2.186164-5.225605.101942-.254257.203348-.508771.304246-.763615.2443-.617045.485449-1.235591.723321-1.855344.143171-.373018.285194-.746572.426155-1.120896.189082-.502114.376088-1.005185.561016-1.509227.137973-.376063.274785-.752654.410497-1.129948.185721-.516331.369256-1.033641.550354-1.551233.12933-.36963.257542-.739753.384829-1.110936.191005-.557.379477-1.115103.565463-1.674479.109427-.32912.217973-.658617.325579-.988324.181769-.556937.361013-1.114941.53775-1.67409.119614-.378431.238067-.757344.355377-1.136816.156685-.50684.311287-1.014533.463751-1.522918.119638-.398925.237988-.798367.355151-1.198686.152025-.519436.30187-1.039738.449401-1.560459.108915-.384423.216639-.769311.323272-1.155043.154196-.55779.305885-1.116546.455008-1.676078.096358-.36155.191665-.723498.285903-1.085785.144245-.554531.286019-1.109984.425332-1.666434.093129-.371982.185149-.744369.276058-1.117176.154285-.632701.305361-1.266561.453254-1.901746.070171-.30138.139615-.603017.208301-.904778.173427-.761925.342213-1.525474.506327-2.290625.034079-.158887.067956-.317843.101655-.476976.198035-.935166.38909-1.872697.573222-2.813107.057173-.292004.113667-.58423.169388-.876194.121583-.637056.239934-1.275159.355085-1.914564.082897-.460309.164109-.921151.24368-1.382817.087968-.510394.173866-1.021432.257613-1.532672.056098-.342451.111264-.685187.165538-1.028464.092864-.587364.182988-1.175554.270375-1.764664.066603-.448998.131607-.898469.194947-1.347998.068664-.487299.135444-.975146.200392-1.463976.064431-.484951.126998-.970433.187718-1.456638.058652-.469649.115556-.939788.170634-1.409803.057391-.489744.112882-.980009.166483-1.470958.051619-.472798.101468-.946073.14956-1.420023.047716-.470252.093681-.940969.137854-1.411781.049361-.526097.09653-1.052763.141507-1.580094.037557-.440333.073578-.881056.108079-1.322421.040467-.517697.078812-1.035925.114997-1.554268.031471-.450787.061332-.901968.089591-1.353725.033591-.537023.064899-1.074594.093903-1.612513.024132-.447556.046678-.895485.067651-1.344183.025361-.54262.04839-1.085778.069052-1.628791.01612-.423628.030819-.847577.044114-1.272587.022159-.708466.040341-1.417812.054524-2.128105.007342-.367682.013612-.735593.016536-1.104212l.021056-2.662989v-289.102734c0-102.307659-83.095779-186.4750046-185.599617-187.9930301l-.605265-.0093457zm-154.517267 52.7035678-1.224183.812931c-49.561498 32.946951-81.083757 82.958171-81.083757 139.290545v285.239083c0 56.539503 31.754495 106.317178 81.633719 138.639487-11.796712-14.069599-21.661046-29.790236-29.298245-46.733609-12.031117-26.691424-18.33216-55.940345-18.33216-86.220211v-296.485521-.141999c0-51.416118 18.156072-98.296451 48.304626-134.400706zm181.012353 257.198055c37.133203 4.558358 69.846856 25.295745 91.881934 57.08367 21.859146 31.534125 31.607863 71.624624 26.597759 112.419472-5.010089 40.79472-24.170054 77.336222-53.010148 102.64641-29.072171 25.513859-65.831695 37.722772-102.964728 33.164434l-6.909156-1.043038c-34.271541-6.150659-64.314893-26.239452-84.972778-56.040631-21.859147-31.534125-31.607864-71.624625-26.597759-112.419473 5.010089-40.79472 24.170054-77.336222 53.010148-102.646409 29.072171-25.513859 65.831695-37.722773 102.964728-33.164435zm-89.772479 48.196552c-25.131493 22.055504-41.936979 54.10659-46.35154 90.052219-4.414546 35.945501 4.136076 71.108968 23.183954 98.587542 18.871947 27.224775 46.570412 44.783003 77.881729 48.626684l11.721258.781856c27.274139.297576 53.827384-10.007066 75.614373-29.127419 25.131494-22.055504 41.936979-54.10659 46.351541-90.052219 4.414546-35.9455-4.136076-71.108968-23.183954-98.587542-18.871947-27.224774-46.570412-44.783003-77.881729-48.626684-31.311486-3.843702-62.436215 6.493731-87.335632 28.345563z"/></svg>