<svg height="960" viewBox="0 0 960 960" width="960" xmlns="http://www.w3.org/2000/svg"><path d="m222.049321 150.456876c1.057019 0 2.114004.012109 3.170746.036325l429.357649 9.839108c45.108926 1.03371 81.138112 37.897996 81.138112 83.018763l-.000548 225.83537c.361681-.038759.72651-.067441 1.094211-.085757l56.150448-2.796873c7.042796-.350804 13.337181 3.213896 16.832365 8.742919l.086367.136852c12.879579.261309 22.832786.99086 29.899211 2.194926 44.018014 7.500342 73.774461 26.582204 91.855907 58.345558 8.513225 14.95503 14.447337 32.722168 18.179831 53.750216 3.453988 19.459009 5.054656 41.833731 5.054656 68.170329 0 65.981183-8.262941 112.18503-25.343812 139.012134-6.011061 9.440934-13.176283 16.574825-21.440977 21.274374 3.780016 6.451917 5.916513 13.729824 5.916513 21.46888v43.2c0 8.816485-2.772792 17.03448-7.588529 24.117957-3.657076 5.379201-8.318888 9.890499-13.794971 13.787391-8.29223 5.900922-18.70044 10.538029-30.975753 14.232777-20.493212 6.168253-46.583406 9.73895-74.366096 10.167272-3.675369 3.756001-8.120726 6.686027-13.092924 8.616093-4.709704 1.828173-9.60044 2.659997-14.544058 2.659997-8.802038 0-18.038472-.738387-27.565676-2.080734-7.837705-1.104304-15.680582-2.592479-23.19169-4.329314-7.031671-1.625973-13.224617-5.335632-17.933497-10.51609-2.944423-3.239296-5.062929-6.727376-6.577188-10.379566-5.063346-2.230218-9.642853-4.722052-13.726012-7.494557-5.74502-3.900925-10.640615-8.430292-14.50166-13.866923-5.150468-7.25223-8.141946-15.745625-8.141946-24.914303v-43.2c0-8.816485 2.772792-17.03448 7.588529-24.117957 3.657076-5.379201 8.318888-9.890499 13.794971-13.787391 8.29223-5.900922 18.70044-10.538029 30.975753-14.232777 22.036066-6.632637 50.543588-10.261875 80.640747-10.261875s58.604681 3.629238 80.640747 10.261875c12.275313 3.694748 22.683523 8.331855 30.975753 14.232777 1.724996 1.227542 3.369193 2.516051 4.926637 3.87345 7.020836-3.230005 13.154265-8.932491 18.484812-17.304614 15.041888-23.624691 22.840327-67.231182 22.840327-130.418876 0-51.894269-6.441849-88.18623-21.139378-114.005117-15.580711-27.370357-41.134352-43.757093-80.638561-50.488316-5.930568-1.010525-14.415339-1.65456-25.423457-1.927218-2.407764 7.033814-8.831593 12.244852-16.632786 12.799808l-55.931175 3.978798c-1.150331.081832-2.282663.05979-3.388173-.05791l.001093 53.825371c6.447108 5.151558 12.032266 11.464247 16.721807 18.629912 10.387785 15.87264 16.300281 35.844613 17.02907 56.738731.745223 21.365272-3.983657 42.146855-13.666057 58.900835-5.484597 9.490294-12.53115 17.655876-21.074129 23.878596-.921755.671408-1.857814 1.317681-2.822855 1.909403-9.906612 31.867584-38.547855 55.651328-73.475217 58.076983l-421.974262 29.305505c-9.802649.68078-19.649926.315673-29.375248-1.089146l-105.267841-15.2059c-33.5235528-4.842465-60.8761842-27.919234-71.8480053-58.845075-6.793472-7.289243-12.3000309-16.035333-16.4525764-25.745747-5.94816394-13.909332-9.05367043-29.719004-9.05367043-45.974243 0-15.938973 2.98567775-31.449522 8.71058613-45.161934 3.078231-7.373039 6.9314789-14.204631 11.5436706-20.271348l.0006773-344.023456c0-44.492665 32.5248637-82.302147 76.5179941-88.950587l86.297827-13.041716c1.955738-.29556 3.930895-.443965 5.908841-.443965zm634.993849 725.926728c-20.431956 6.170046-47.414142 9.616396-76.04317 9.616396s-55.611214-3.44635-76.04317-9.616396c-10.030835-3.029114-18.44496-6.69364-24.95742-11.050616l.00059 17.267012c0 8.76128 12.313603 16.656914 32.01596 22.204571 2.268343.638705-.828209 12.656053 4.073653 13.789538 11.831284 2.735815 28.177933 5.587378 43.548056 5.587378 9.51207 0 5.564437-11.540011 8.263955-11.434792 4.287603.167118 8.65955.253305 13.098376.253305 55.78076 0 101-13.610544 101-30.4l.001588-17.26768c-6.512598 4.357269-14.92707 8.022016-24.958418 11.051284zm-76.04317-67.383604c-55.78076 0-101 13.655315-101 30.5s45.21924 30.5 101 30.5 101-13.655315 101-30.5c0-6.37664-6.480095-12.296232-17.560157-17.191013-5.215618-1.304734-10.613154-3.163459-16.191881-5.564401-17.857453-4.817113-41.4206-7.744586-67.247962-7.744586zm-560.985109-618.999857c-7.205003.487185-12.667628 2.503914-16.606145 5.889797-5.112287 4.394955-8.381826 11.717115-9.522965 22.474368v507.024785c0 16.989721 4.186429 28.601168 12.126325 35.552862 5.825877 5.100786 14.179392 8.156672 25.232979 8.960358.823825-.036479 1.646881-.083297 2.469497-.140427l421.974261-29.305505c22.79852-1.583325 40.483861-20.539485 40.483861-43.392918l-.000625-4.566743c.275193.023658.551132.041944.827775.054797l.000692-105.742144c-.275245-.016215-.551202-.027054-.82783-.032452l-.000012-343.425847c0-23.634689-18.872431-42.944553-42.500916-43.48602l-429.357649-9.839107c-.754815-.017298-1.509805-.025947-2.264819-.025947zm-38.473715 1.822492-74.367535 11.225874c-24.6597288 3.721965-42.8930479 24.913808-42.8930479 49.852838l-.0005463 338.163445c3.4319883-1.054021 6.9947063-1.663931 10.6453628-1.791414 1.4806107-.051704 2.9523271-.023238 4.4121231.083047l29.8478453-2.032843c8.500121-.602499 16.745121 1.662238 24.087019 6.262443 6.323528 3.962127 11.836147 9.556716 16.426333 16.368436 8.430055 12.50999 13.658765 29.015444 14.826105 46.639992 1.113897 16.817655-1.569101 33.156955-7.63571 46.427627-3.250911 7.111349-7.454097 13.304741-12.560554 18.228456-5.326755 5.13613-11.562677 8.814784-18.462707 10.601059-1.339958.447215-2.753623.744598-4.220318.885208l-.272766.02615c-.780153.107308-1.564051.189806-2.351048.247913-.237225.017512-.474524.03279-.711881.045708l-33.0170478 3.152866c-1.7157261.281841-3.4567327.45567-5.2182128.517182-.2697171.009419-.539139.016177-.8082474.02029-.9378518.032112-1.8662682.032997-2.7904797.002924l.2966041.340383c7.6912435 8.781115 18.422192 14.905716 30.7265836 16.680827l76.129505 10.982259c-6.395062-10.315727-9.514337-23.52371-9.514337-39.364212v-507.582481c0-.329662.01649-.659118.049408-.987132.976666-9.732093 3.412452-18.106033 7.377549-24.996845zm-102.4886727 417.369894-4.9465294.338388.0009947.068526c-3.429744.231499-6.7043215 1.280211-9.7539112 3.02546l-.0731361.045524.0002855.203351-.0263519.017098c-8.8987626 6.187953-15.8011802 18.363151-18.7267643 33.355268-.034008.171678-.0670241.343948-.0995143.516584-.5863765 3.117814-1.0017007 6.354281-1.2280066 9.681768-.0190342.27769-.0365944.55601-.0528281.834947-.0514863.88636-.0897155 1.779241-.1142132 2.677835-.0216128.791932-.032517 1.58883-.032517 2.38981 0 .581742.0057519 1.161331.0171695 1.738627.0012817.02735.0022473.055382.0032264.083418.725311 20.770189 8.6340371 38.545681 19.6195358 47.195341.4429414.324143.8910358.634071 1.3440451.928621l.0138448.082827c4.2380669 2.979936 8.8905449 4.624436 13.7366748 4.603912l-.161535.007163c.8613568-.029964 1.7133393-.111365 2.5548615-.242326l1.5067774-.143764c16.8687818-3.233276 29.3239123-26.737108 28.3449813-54.77004-.975688-27.940051-14.9502114-50.461009-31.9270897-52.638338zm32.6866997-2.192037.338866.402584c1.473507 1.765844 2.871356 3.637926 4.190111 5.6068 8.724588 13.02563 13.840389 30.074617 14.47093 48.130973.630542 18.056356-3.28352 35.420673-11.078233 49.02317-.608518 1.06192-1.239884 2.099555-1.893716 3.111575l-.200958.017359c.490855-.036241.977709-.092155 1.460334-.167281l.732181-.070193-.005923-.057937c15.828626-3.122989 26.902423-27.033408 25.043704-55.096406-1.896924-28.63982-16.562245-51.017556-33.057296-50.900644zm421.673868 40.036511c12.685141.6648 22.335826 13.275472 21.555408 28.166724-.780417 14.891252-11.696409 26.42407-24.38155 25.75927s-22.335826-13.275472-21.555408-28.166724c.780417-14.891252 11.696409-26.42407 24.38155-25.75927zm183.357938-48.556777.001027 84.542501c8.538784-9.796492 13.815389-26.162797 13.175589-44.505625-.565996-16.226892-5.643082-30.586912-13.176616-40.036876zm-67.578775 59.522986.226454.007752c3.860695.20233 6.802954 3.943165 6.571719 8.355388s-3.5484 7.825015-7.409095 7.622684c-3.860695-.20233-6.802954-3.943165-6.571719-8.355388.226701-4.325708 3.419501-7.690795 7.182641-7.630436zm-292.454587-311.220566c4.418271.007825 7.993654 3.595876 7.985854 8.014147l-.447014 252.77835c-.007813 4.418271-3.595863 7.993654-8.014134 7.985853-4.418271-.007826-7.993654-3.595876-7.985854-8.014147l.447014-252.77835c.007813-4.418271 3.595863-7.993654 8.014134-7.985853z"/></svg>