<svg height="960" viewBox="0 0 960 960" width="960" xmlns="http://www.w3.org/2000/svg"><path d="m203.547262 2.96830871 613.879813 50.03608589c32.962083 2.6866718 59.704079 27.7754144 64.485947 60.4992714l8.029203 54.946415c.279863 1.915188.420347 3.848163.420347 5.783691v595.748498c0 1.787908-.119873 3.573804-.358812 5.345674l-8.319197 61.691535c-4.398869 32.620092-30.640929 57.939679-63.397493 61.168913l-608.097717 59.947995c-3.221745.317608-6.470134.242925-9.673878-.222413l-37.62406-5.46482c-40.803003-5.926556-71.0696045-40.906922-71.0696045-82.138089v-773.8749827c0-35.8798227 23.0550825-67.6976255 57.1504465-78.872052l38.867847-12.73856157c5.05992-1.65833973 10.400016-2.28973428 15.707158-1.85716002zm-39.136334 81.22896239c-.080376 1.0583041-.120607 2.1192745-.120607 3.1806264v789.5255015c0 17.926894 11.23147 33.230537 27.041585 39.258107l14.933157 2.167847 208.425748-20.54726 399.225553-40.880298c11.896884-1.218247 21.920105-8.70357 26.678292-19.159798.675524-1.939642 1.165681-3.969305 1.448719-6.068192l8.319197-61.691535-.000761-582.858177-6.456-57.071-1.572442-10.765736c-2.087857-14.287881-13.763941-25.242121-28.155836-26.4151749l-260.448722-21.2290888-344.257863-26.1445895c-23.129351-1.7566114-43.303409 15.5694169-45.06002 38.6987673zm-14.390345-22.8923726-.234286.1672569c-11.065517 7.9251602-17.964486 20.8367871-17.964486 34.9639269v773.8749827c0 15.180603 7.919543 28.725626 20.089686 36.394717-4.858634-8.843201-7.621176-19.000179-7.621176-29.802383v-789.5255015c0-1.5667575.059389-3.132952.178038-4.6952103.579183-7.6261199 2.514703-14.8248593 5.552224-21.3777887zm210.267749 103.1163975 445.605412 26.021735c18.505894 1.080677 32.959604 16.403054 32.959604 34.940475v519.972702c0 18.458529-14.334917 33.744209-32.75545 34.927954l-457.051109 29.371154c-2.837991.182376-5.687632.018185-8.485896-.488942l-9.783944-1.773133c-12.164834-2.20462-21.010018-12.796889-21.010018-25.159879v-582.674343c0-15.722944 11.288117-29.176634 26.771986-31.90807l15.628716-2.756988c2.679328-.472647 5.404629-.631273 8.120699-.472665zm-22.549832 23.553413-.078545.030442c-4.682336 1.824066-7.893024 6.366244-7.893024 11.553868v582.674343c0 2.692964 1.926699 5.000222 4.576501 5.480443l4.533289.822351c-2.256871-4.62768-3.523271-9.827073-3.523271-15.322249v-572.514143c0-.664507.018924-1.328881.05675-1.992311.215539-3.780348 1.023394-7.38626 2.3283-10.732744zm17.639271 11.871208c-.016211.284327-.024321.569058-.024321.853847v572.514143c0 8.284271 6.715728 15 15 15 .320897 0 .641713-.010298.96195-.030877l235.235411-15.116937.103-573.918-235.446514-13.424007c-8.270838-.471567-15.357959 5.850992-15.829526 14.121831zm271.27604.442176-.102 571.492 178.263487-11.454762c7.894514-.507319 14.03805-7.058325 14.03805-14.969123v-519.940173c0-7.952576-6.206471-14.522992-14.146152-14.975678z"/></svg>