<svg height="960" viewBox="0 0 960 960" width="960" xmlns="http://www.w3.org/2000/svg"><path d="m562.364201 4.66620793c20.25189 2.03232712 37.83533 4.69268651 58.732437 8.49908477 26.831976 4.8874318 55.281379 11.736181 78.194147 19.5375845 15.421442 5.2507358 28.286914 10.8736416 38.633762 17.3761367 7.237567 4.548462 13.418954 9.6123157 18.52335 15.7386951 7.764665 9.319278 12.582961 20.6054769 12.582961 33.4906396v709.2249344c0 12.594992-5.145721 22.558983-12.579447 29.990427-3.677445 3.676316-7.454779 6.284636-11.572583 8.503269-1.246797.671763-2.473458 1.281799-3.717287 1.847336-1.323235 2.556468-2.84082 5.047037-4.505835 7.481637-5.812721 8.499407-13.37332 16.250087-22.536307 23.632758-14.448856 11.641526-33.243243 22.616354-55.619117 33.127204-35.33761 16.599501-80.097615 31.90951-110.759269 38.922651-55.195337 12.624652-130.179401 7.857373-184.222074-12.209365-31.289134-11.618057-66.811253-29.35342-94.865835-48.737255-17.889188-12.36023-32.768521-25.316854-44.043798-39.117442-8.916081-10.913006-15.620845-22.382885-19.517018-34.447124-.484236-.426977-.966555-.877162-1.44858-1.346644-2.712319-2.641739-5.174306-5.679108-7.304892-9.414369-3.349397-5.872032-5.411113-12.699461-5.411113-20.335989v-634.702c-.386301-12.223106-.586807-23.244446-.597296-33.095969l.000436-1.954717c.015361-10.01888.233917-18.7909305.660328-26.3514058.609556-10.8077287 4.717495-20.4684993 11.161198-28.4749516 4.522721-5.6195868 9.937-10.1516691 16.161598-14.0566075 8.721512-5.4713518 19.295351-9.8452607 32.226541-13.8059542 16.548177-5.0685401 37.530392-9.5989233 63.897924-14.0255338l2.273285-.3791797c4.954122-.8210494 10.094919-1.6389478 15.428486-2.4564774 7.526186-1.1536146 14.560047-.2793415 20.850503 2.0526148 16.139997-2.301757 33.119198-4.577348 49.111776-6.5757189 19.969628-2.4953279 39.819839-4.33103981 59.370725-5.50131719 5.073881-2.83500161 10.973106-4.66559787 17.79024-4.95356913 28.273898-1.19435378 55.827074-.22036375 83.100754 2.51661735zm73.094218 148.07933507-.427348.088418c-12.530287 2.582638-22.741046 4.5682-30.645043 5.958507-8.691393 1.528809-18.865424 2.974423-30.532635 4.340359.016994.693576.026045 1.395631.026045 2.105849l.000431 355.630383c.000913.077446.000926.15474.000048.23187l-.000479 301.527308c0 14.812837-.497906 23.231459-2.451552 32.137395-2.66905 12.167189-7.926094 22.126384-16.661066 30.023896-19.229298 17.3857-54.024605 23.239296-110.667645 17.730839-55.156602-5.363904-113.094405-28.012422-161.684352-60.276955-12.621647-8.380983-24.074869-17.061634-34.005698-25.717381 22.40688 37.545552 89.883368 71.26781 129.033461 85.804742 47.45129 17.619273 114.534407 21.429536 161.379678 10.714768 38.548738-8.817129 128.91214-39.795151 159.710642-72.950645-17.957677 7.958107-32.800926 9.147125-44.788379 1.990125-15.197147-9.073319-22.02708-29.678127-22.02708-62.250065 0-26.315318.422374-115.192686 1.267225-266.658577-.48199-.864508-.842865-1.814269-1.055745-2.832887-.521286-2.494317-.064074-4.965708 1.110665-7.015302l.000052.0109c.446873-79.823565 1.007029-176.429848 1.680484-289.822523v-43.93915c0-6.135706.2191-11.693917.738291-16.831874zm-404.532112 327.424497.00028 285.926705c2.715367 5.290703 7.295299 11.726596 13.635154 18.759664 11.90628 13.208136 28.928253 27.453119 48.9165 40.725647 46.011896 30.552665 100.898795 52.008551 152.556775 57.032218 51.562005 5.014334 81.304087.010839 95.318729-12.660157 5.413853-4.894803 8.710536-11.140196 10.53865-19.473878 1.524994-6.951871 1.971175-14.15963 1.986623-27.138317l.000176-290.987891c-20.630185 2.6418-35.639204 4.373335-45.082885 5.198802-16.474414 1.440019-31.478573 2.398905-44.863276 2.96448-8.867153.374685-15.613585.525554-20.593401.550925-74.754213.380858-135.272461-16.157825-190.495512-46.834647-8.463385-4.701474-15.767806-9.377568-21.917813-14.063551zm470.379302 25.188433c-8.704254 2.23709-24.783687 5.827052-48.336886 10.795349l-.000394.010972c-.833888 149.666033-1.250882 237.564667-1.250882 263.670162 0 26.228405 4.7599 40.588256 12.279607 45.077829 6.581956 3.929697 18.489706 1.742144 35.837958-7.805864 13.380265-7.364136 23.04355-14.880071 29.195836-22.449424l-.000919-302.336028c-11.383688 6.85963-20.55441 11.194259-27.72432 13.037004zm-470.530775-409.8112588-.016974.3895402c-.622759 13.8149606-.566145 32.2231406.169843 55.2245396l-.001059 301.726404c5.39278 7.018853 15.673342 14.998518 31.629693 23.862391 52.310824 29.059058 109.475234 44.68119 180.6814 44.318409 4.740277-.024151 11.240398-.169512 19.850943-.533354 13.090911-.55316 27.79638-1.492958 43.966081-2.906342 9.500371-.830422 25.12936-2.645003 46.824154-5.43902l.000523-346.951106c0-15.057114-4.521081-21.66861-14.354319-24.655528-9.038937-2.745642-19.053715-2.58635-44.555418-.225807-3.14257.290889-4.87497.44872-6.80774.617598-9.510964.831031-16.498869 1.235882-23.259263 1.235882-23.411541 0-59.641128-2.809317-95.072129-7.495496-40.676144-5.379913-76.509588-12.634403-100.871651-21.016242-17.432125-5.997574-30.081866-11.944968-38.184084-18.1518688zm461.283555 16.5300848c-16.296919 4.289864-26.001572 11.841022-31.380437 22.636322-4.392066 8.814807-5.957824 19.340123-5.957824 34.863796v43.968753l-.000177.059391c-.651844 109.75365-1.197565 203.785494-1.637149 282.092225l.00005-.010463c20.969599-4.446087 35.41143-7.686182 43.244331-9.699324 6.782685-1.743225 17.83577-7.543362 32.702745-17.329147l.001066-367.852866c-7.871133 3.255381-19.448196 6.658334-36.972605 11.271313zm-110.8621 98.352976c4.110219-14.334035 17.771125-22.992297 30.51249-19.33877 12.741364 3.653528 19.73829 18.235328 15.628072 32.569363-4.110219 14.334034-17.771125 22.992296-30.51249 19.338769-12.741364-3.653528-19.73829-18.235328-15.628072-32.569362zm-100.244656-168.3163249c-1.174353.0496073-2.35306 4.1017548-3.536052 4.1564815-22.107593 1.0227255-45.711445 2.9462076-70.353423 6.0253745-20.901039 2.6117135-42.96814 5.6352558-62.26518 8.4872662-1.276508.1886617-2.219069-.7941358-3.135252-1.8494553l-.365795-.4233908c-.914616-1.055122-1.843862-2.036241-3.095305-1.8444198-42.319725 6.4867717-77.587011 13.8507575-95.197775 23.0548863 6.015705 4.59138 16.915361 9.7172826 32.462786 15.06642 40.464207 13.9218303 122.647313 25.4666463 176.333608 27.1991573-13.937343-1.83023-27.005011-4.830473-38.113294-8.892426-9.359584-3.422508-16.772376-10.726252-16.360794-18.0456708.20645-3.7058498 1.919091-6.8034847 4.513878-9.2299911 1.705689-1.5950699 3.763822-2.8785527 6.21162-4.0153342 3.722675-1.7288461 8.577863-3.2062272 14.7303-4.5940131 9.643905-2.1753452 21.724642-4.0214202 40.323447-6.3742649 25.501769-3.2261053 49.595312-1.977019 70.072382 1.7991067 8.563833 1.5792352 17.650011 3.7937059 24.918222 6.299084 4.800612 1.6547881 8.778409 3.4148513 11.904618 5.4038779 5.226052 3.3250354 8.645169 7.4795864 8.645169 13.4745116 0 7.3038499-6.114599 12.1855879-17.569892 15.4974709-6.603726 1.909228-16.730826 4.007758-27.178324 5.863979 4.125023.458248 7.909634 1.201117 11.441429 2.273926 11.941972 3.62746 20.327293 10.950731 24.792228 21.984007 11.897299-1.371667 22.164562-2.818275 30.791003-4.335659 9.550384-1.679905 22.697089-4.279503 39.415807-7.795326.72714-1.865276 1.538311-3.695753 2.439922-5.505271 8.022218-16.100468 22.466949-27.3398655 44.190223-33.0581182 13.615825-3.5841156 23.241093-6.4042385 29.812503-8.701681-22.984025-14.5259828-72.953069-26.0707747-102.851093-31.5166856-28.377232-5.1688995-75.452942-12.8337878-132.976966-10.4038421zm-15.337134 48.5624798c-17.597534 2.2261788-29.101024 3.9740886-37.83943 5.9152383 25.020781 7.5094478 59.545444 9.6917178 89.441766 5.0761238 9.780944-1.510048 20.85459-3.4892666 29.427538-5.3808482-5.278319-1.5316478-11.331147-2.9220728-17.094585-3.9848941-18.580774-3.4264344-40.654235-4.5707932-63.935289-1.6256198z"/></svg>