<svg width="960" height="960" viewBox="0 0 960 960" fill="none" xmlns="http://www.w3.org/2000/svg">
<path d="M162.363 13.875C166.149 11.2446 170.75 9.98828 175.39 10.3643L175.981 10.4121L176.064 10.4189L795.177 63.1875C805.516 64.0687 813.464 72.7113 813.479 83.0879L814.565 875.271C814.58 885.651 806.651 894.317 796.312 895.223L175.563 949.621C175.521 949.625 175.477 949.628 175.435 949.632L175.018 949.666C170.757 950.012 166.525 948.982 162.926 946.77L103.552 918.075C96.6437 914.737 92.254 907.741 92.2539 900.068V60.4229C92.254 52.7621 96.6304 45.7743 103.522 42.4297L162.363 13.875ZM193.082 708.529V907.931L773.479 857.07V683.185L193.082 708.529ZM132.254 72.9473V887.52L173.082 907.25V53.1338L132.254 72.9473ZM193.082 688.511L773.479 663.165V491.607H193.082V688.511ZM193.082 471.607H773.479V362.384C750.388 413.532 707.215 449.004 655.746 449.004C654.237 449.004 652.734 448.97 651.239 448.909L588.26 451.881L588.024 451.892H587.788C513.463 451.892 457.276 375.039 457.275 285.935C457.275 285.288 457.278 284.642 457.284 283.997L193.082 270.77V471.607ZM562.471 143.846C514.964 158.638 477.275 215.356 477.275 285.935C477.276 369.005 528.886 431.753 587.597 431.89L595.838 431.5C550.15 402.979 519.908 342.915 519.908 276.154C519.908 223.002 539.079 174.096 569.951 141.973L562.471 143.846ZM655.746 123.306C594.016 123.306 539.909 189.188 539.908 276.154C539.908 363.121 594.015 429.004 655.746 429.004C717.477 429.004 771.584 363.121 771.584 276.154C771.584 189.188 717.477 123.306 655.746 123.306ZM193.082 250.745L458.407 264.027C465.383 196.906 504 140.946 556.804 124.663L557.061 124.584L628.837 106.616L628.842 106.638C637.496 104.457 646.486 103.306 655.746 103.306C707.215 103.306 750.388 138.778 773.479 189.926V101.481L193.082 52.0137V250.745Z" fill="black"/>
</svg>
