<svg height="960" viewBox="0 0 960 960" width="960" xmlns="http://www.w3.org/2000/svg"><path d="m361.5 5.99904562c28.129961 0 53.120567 4.43503098 75.73509 12.03618078 6.125889 2.059022 11.711497 4.2253352 17.271823 6.6126867.962191.4131211 2.267474.988303 3.555823 1.5604337l.481634.2140834c2.157453.9598296 4.138531 1.8521973 4.21316 1.8836698 41.010403 17.2947158 68.24247 57.5587293 68.24247 102.838771v700.028323c0 39.737526-21.53385 75.741696-55.535244 94.834171-.112563.069777-2.64583 1.545572-5.097619 2.946172l-.444326.253497c-1.032072.588024-2.022248 1.146385-2.779904 1.562187-5.161045 2.83238-10.399332 5.397197-16.198733 7.828728-23.446988 9.830683-51.291421 15.403076-85.391649 15.403076-2.223489 0-4.432159-.024795-6.626025-.072014l-.357362-.009019-.454834.027672c-1.12157.053361-2.254876.069014-3.39797.03187l-.687017-.028108-69.52626-3.42952c-2.743124-.13531-5.411081-.54491-7.977653-1.20161l-.223266-.059304-1.284135-.092302c-23.412027-1.750629-44.356234-6.17697-63.075375-12.627703l-1.098561-.381785c-6.47837-2.270447-12.431496-4.697114-18.034374-7.275241-3.88836-1.789204-6.344457-3.024821-10.566378-5.229007-35.473466-18.520027-58.243315-55.150614-58.243315-95.813802v-694.382933c0-43.8606202 25.8099-83.0172734 65.122829-100.9415701.401406-.1830167 2.823374-1.3106221 3.451329-1.600493 2.035944-.9398145 3.907482-1.7817298 5.923326-2.6548734 5.504316-2.3841422 11.167837-4.5954359 17.307688-6.6827466 22.551411-7.6666034 47.370649-12.26996364 74.887218-12.56358188l.458748-.00396237 62.966502-2.96667611c1.150931-.04526992 2.292246-.05938438 3.421988-.01737799l.09951.0050541 1.678001-.02267213zm.084288 40.47697428c-47.771124 0-78.573708 15.8907518-87.647984 20.0665716-24.583361 11.3128241-41.652791 36.1839245-41.652791 65.0465145v699.766999c0 26.40222 14.878465 49.325284 36.698941 60.823363 8.964952 4.723991 37.589008 19.997908 87.017763 21.798619l-.001311-.148741c3.10268.1118 6.287125.170654 9.553619.170654 55.444335 0 80.395215-17.29293 90.327742-22.870246 10.47927-5.884324 19.259203-14.436528 25.419319-24.73612l.265878-.45007c5.924727-10.157943 9.319599-21.975775 9.319599-34.587459v-699.766999c0-29.664152-18.030688-55.1120352-43.718134-65.9574661-8.531502-3.6020635-37.811517-19.15562-85.582641-19.15562zm-102.856247 5.4040143-.699359.1198293c-26.546012 4.588424-44.230498 13.169188-51.447599 16.5145093l-.584942.2700341-.279172.1277708c-24.621238 11.2257823-41.716969 35.9055223-41.716969 64.5460413v694.382933c0 26.199079 14.901389 48.945771 36.755486 60.355383 6.616135 3.454159 23.923009 12.592531 52.379675 17.877535-25.118434-16.093782-40.851648-44.018157-40.851648-74.717965v-699.766999c0-33.4817423 18.129151-63.6770634 46.444528-79.7090718zm128.353909 143.2438258c23.396081 0 41.445213 22.177376 41.445213 48.637442 0 26.460065-18.049132 48.637441-41.445213 48.637441-23.39608 0-41.445212-22.177376-41.445212-48.637441 0-26.460066 18.049132-48.637442 41.445212-48.637442zm0 20c-11.337342 0-21.445212 12.419768-21.445212 28.637442s10.10787 28.637441 21.445212 28.637441c11.337343 0 21.445213-12.419767 21.445213-28.637441s-10.10787-28.637442-21.445213-28.637442zm0-64.378622c3.94698 0 7.14664 4.484815 7.14664 10.017115s-3.19966 10.017114-7.14664 10.017114c-3.946979 0-7.146639-4.484814-7.146639-10.017114s3.19966-10.017115 7.146639-10.017115zm342.864622-40.745397.895304.015368.369184-.007428c1.547288-.030524 3.075768.027223 4.580634.168614l.631182.064814.085276.004054c15.368946 1.003476 29.201054 5.001952 41.723197 11.155176l.78093.387374c3.90944 1.957483 7.436394 3.995192 10.898612 6.209622 1.121181.717106 2.034124 1.32051 3.284027 2.160035.279556.187854.279556.187854.507424.340913.146283.098186.251713.168722.334732.223951.027409.018234.041052.027337.037687.0255l.670724.428642c25.452463 16.446395 39.959591 48.336934 40.250067 82.422806l.004448 1.044117v531.473115c0 29.920351-11.266131 58.280187-31.615087 75.677465l-.612037.51623.014143-.010215c.128729-.104434-1.225931 1.072861-2.62092 2.257325l-.482274.408334c-.479452.404705-.943785.792648-1.333144 1.110962-3.274232 2.676794-6.657471 5.144488-10.458056 7.518258-15.682921 9.79524-34.503766 15.405335-56.827246 15.405335h-1.269447l-.402056-.012999-.50057.012999h-.672296l-.674809-.009784-45.620325-.999215-.692733.090886c-4.494212.55812-9.117541.864315-13.868796.918113h-1.298968c-21.223621 0-39.907588-4.961202-56.012235-13.398889-4.154928-2.176885-7.957061-4.493847-11.518461-6.943703-1.389133-.955573-2.693321-1.897923-3.973885-2.861012-.494119-.371618-.967668-.733429-1.454966-1.110302-.314847-.243501-.348117-.269428-.984084-.76579-21.913208-17.102929-34.121748-46.464141-34.121748-77.51773v-529.053663c0-33.674031 13.96613-65.349412 38.732479-82.230298.099774-.068006 1.25834-.87438 1.655571-1.148503 1.201287-.828991 2.327044-1.586069 3.555268-2.381372 3.433269-2.223122 6.999441-4.30468 10.898199-6.286126 10.789652-5.483568 22.515207-9.393508 35.24275-11.192252l.781609-.106359.291988-.110906c3.870913-1.427281 8.025564-2.273891 12.3596-2.433313l.651437-.018746 60.374975-1.254035.409755-.025928c1.502032-.080346 3.01136-.130894 4.527701-.151146l1.518668-.010294zm-7.914455 41.180403c-27.163992 0-44.679199 12.055613-49.839085 15.223623-13.978784 8.582541-23.684937 27.451149-23.684937 49.347924v530.882386c0 20.030201 8.460309 37.42092 20.86804 46.144006 4.586079 3.22418 18.219535 12.926124 41.374671 15.835838l17.670616.385979-.000256-.037915c.869375.025046 1.750773.037915 2.644213.037915 1.345555 0 2.655871-.02977 3.931799-.086931 24.112039-2.503661 35.661515-13.090655 40.619625-16.809472 4.727776-3.546056 8.846335-8.369674 12.093453-14.120584 4.570321-8.814071 7.289744-19.867191 7.289744-31.866499v-531.473115c0-6.434877-.750786-12.608527-2.128982-18.337159-3.962378-13.789464-12.015266-24.870891-22.174228-30.593472-4.851249-2.732727-21.500681-14.532524-48.664673-14.532524zm-66.131216 2.268564-.449784.051567c-19.513238 2.304293-32.124264 11.899607-36.189959 14.670808-12.548276 8.552977-21.261158 27.356589-21.261158 49.177936v529.053663c0 19.961204 7.59453 37.292017 18.732526 45.985054 4.322492 3.37364 17.598496 13.864044 40.320849 16.163644-17.870117-13.036566-28.54528-36.542588-28.54528-61.917303v-530.882386c0-25.255459 10.246771-48.663843 27.392806-62.302983z"/></svg>