<svg height="960" viewBox="0 0 960 960" width="960" xmlns="http://www.w3.org/2000/svg"><path d="m493.423829 3.07405622c38.712445 0 81.660541 18.96345258 114.634973 50.27510828 37.064821 35.1957805 59.09797 83.0055095 59.09797 136.7471275v564.372925c0 60.818938-17.567728 110.477644-50.435422 146.231004-29.402524 31.98396-69.256682 50.697562-112.54979 55.434872-6.967605.762424-14.021859 1.060691-21.10294.865316-1.122752.083265-2.264444.088537-3.415834.044741-49.436662-1.880479-83.274349-5.527469-104.028329-11.815401-23.886562-7.237025-45.83338-22.221178-66.058734-44.093722-.814241-.880555-1.584812-1.793167-2.282594-2.753201-32.326919-32.258271-50.126357-77.645532-50.126357-131.602525v-578.123051c0-53.533731 22.683389-99.7468282 61.220996-133.2379627 31.615688-27.4756354 72.439534-44.6707439 110.821272-47.62818313 1.20312-.20062685 2.42503-.34625651 3.66263-.43596059l44.529537-3.2276033c5.412883-.70336161 10.766279-1.05348406 16.032622-1.05348406zm0 39.99999998-1.436627.0129728c-.125961.0022638-.252055.0048235-.378282.0076787-.97144.0219732-1.950781.0614527-2.937369.1182815-.111485.0064216-.223134.0130691-.334875.0199382l.334875-.0199382c-1.124904.0647959-2.259229.1521468-3.402088.2618216-.081565.0078267-.163912.0158401-.246303.0239691l.246303-.0239691c-1.098711.1054382-2.20531.2315089-3.319007.378007-.137377.0180706-.275024.036474-.412778.0551887l.412778-.0551887c-53.070209 6.9809663-122.259569 60.3470582-122.259569 137.8917392v591.836698c0 96.864751 64.781847 142.150431 124.505588 143.463374.121035.002661.242089.005142.363122.007442l-.363122-.007442c1.30586.028708 2.609302.036393 3.909595.023135.093493-.000953.186509-.00201.279509-.003173l-.279509.003173c.687991-.007015 1.3751-.019892 2.061219-.038621l-1.78171.035448c.647412-.008098 1.294031-.02139 1.939765-.039867l-.158055.004419c.613246-.01674 1.225702-.038154 1.83729-.064234l-1.679235.059815c.633947-.018139 1.267041-.041275 1.899198-.069398l-.219963.009583c.642441-.027395 1.283924-.05994 1.92436-.097622l-1.704397.088039c.690092-.0307 1.379068-.067344 2.066814-.109919l-.362417.02188c.615381-.036209 1.229795-.077162 1.843162-.122851l-1.480745.100971c.601312-.037225 1.201685-.078983 1.801045-.125268l-.3203.024297c.633241-.047169 1.265366-.099386 1.896289-.156642l-1.575989.132345c.706133-.054529 1.410861-.115342 2.11406-.182423l-.538071.050078c.718997-.065247 1.436432-.137038 2.152177-.215358 63.426719-6.940412 127.336205-53.07357 127.336205-161.903219v-564.372925c0-90.3668285-78.211537-145.9038299-132.107287-147.0055332zm-80.545749 7.5573229-.735719.1716856c-54.160755 12.9640596-114.985589 60.0974243-114.985589 137.8541853v578.123051c0 48.599567 17.090304 83.907194 41.807482 106.929669l-.030035.269262c15.70499 16.984035 31.801185 27.973685 48.288586 32.968951 4.397918 1.332458 9.850985 2.549651 16.3592 3.651579-3.674137-2.599997-7.239224-5.385885-10.677979-8.353453-33.976012-29.32053-53.213139-73.686058-53.213139-128.665054v-591.836698c0-44.675444 19.92026-85.1290916 53.190189-115.3654629 6.324459-5.7477943 13.034332-11.0162023 19.997004-15.747715zm117.092494 613.2748109c49.486564 12.315925 77.555184 67.897939 63.621307 123.681927-13.932423 55.778172-64.845308 91.692282-114.324578 79.378173l-9.022714-2.805747c-43.808355-16.458718-67.661603-68.578691-54.598593-120.87618 13.932423-55.778172 64.845308-91.692282 114.324578-79.378173zm-94.920737 84.224917c-11.401152 45.644277 10.973821 89.951622 49.04761 99.427202l7.162056 1.335429c35.880811 4.495008 72.238595-23.355404 82.928537-66.152365 11.401152-45.644277-10.973821-89.951622-49.04761-99.427202-38.081083-9.477396-78.687988 19.166844-90.090593 64.816936zm72.840784-410.087392c3.620777 0 6.555996 3.606001 6.555996 8.054229s-2.935219 8.054229-6.555996 8.054229c-3.620776 0-6.555996-3.606001-6.555996-8.054229s2.93522-8.054229 6.555996-8.054229zm100.248534-153.246208c8.071746 65.619421-31.773804 125.043654-89.852669 132.16186l-10.820523.699414c-53.711097.345627-100.817562-45.714739-108.38447-107.230069-8.071746-65.619421 31.773803-125.0436542 89.852669-132.16186 58.075026-7.1177353 111.133624 40.914303 119.204993 106.530655zm-116.771978-86.6791957c-46.417428 5.6889677-79.230677 54.6254787-72.435299 109.8686347 6.795755 55.246226 50.500325 94.8104 96.921592 89.120961l8.537496-1.56447c41.826867-10.266197 70.26847-56.513705 63.897804-108.304164-6.795756-55.246227-50.500326-94.8104003-96.921593-89.1209617zm24.92783 34.7546507.331616.073527c14.279914 3.02014 27.02934 11.955138 35.954898 24.616682 6.549773 9.198528 11.028611 20.349124 12.539437 32.631417.180525 1.467581.316017 2.929721.407621 4.384692 2.380317 34.285125-19.021175 64.658587-49.842101 68.436032l-5.963738.386932c-1.926568.013182-3.837231-.081657-5.727039-.279794-28.586279-1.869247-52.917219-26.280049-56.875492-58.458906-4.420932-35.940057 18.165245-68.617483 50.958679-72.63668 6.230218-.763582 12.353586-.434499 18.216119.846098zm-14.867158 14.226539c-23.269404 2.851923-39.852964 27.613061-36.394007 55.732718 3.035242 24.675057 20.418892 43.116254 40.355592 45.339451 2.291607.128931 4.613124.057179 6.948083-.228996l4.444035-.807347c20.853456-5.051086 35.409927-26.820526 33.766972-51.769836-.073114-.985756-.170411-1.976521-.2928-2.971492-1.201073-9.764142-4.6489-18.552152-9.612614-25.745388-6.77362-9.689849-16.402388-16.523413-27.086617-19.00003-3.941783-.842829-8.016859-1.053024-12.128644-.54908zm-.496487 20.535382c14.375151-1.761834 27.679498 10.231627 29.716091 26.788145 2.036592 16.556517-7.965786 31.406475-22.340938 33.168308-14.375151 1.761834-27.679498-10.231628-29.716091-26.788145-2.036592-16.556518 7.965786-31.406475 22.340938-33.168308z"/></svg>