<svg width="960" height="960" viewBox="0 0 960 960" fill="none" xmlns="http://www.w3.org/2000/svg">
<path d="M326.347 26.7393C354.025 11.2727 386.54 3.59485 420.686 6.5459L644.671 25.9043C729.695 33.2526 795 104.348 795 189.645V770.978C795 856.211 729.789 927.276 644.835 934.704L420.849 954.287C384.683 957.449 350.347 948.685 321.641 931.376L250.425 898.213C250.32 898.164 250.216 898.115 250.112 898.064C200.068 873.698 165 822.334 165 762.139V198.801C165 139.309 199.257 88.4364 248.372 63.7363C248.509 63.6675 248.647 63.5998 248.785 63.5342L326.347 26.7393ZM410.323 45.9883C340.574 43.7747 282 99.7225 282 170.286V790.562C282 858.898 336.932 913.515 403.734 914.895C408.227 914.986 412.775 914.841 417.365 914.439L441.467 912.332L456.745 864.021C459.505 855.295 467.284 849.115 476.409 848.399L595.45 839.069C606.231 838.224 616.084 845.179 618.897 855.621L629.739 895.87L641.351 894.855C705.677 889.231 755 835.434 755 770.978V189.645C755 187.629 754.952 185.623 754.856 183.629C754.785 182.134 754.687 180.646 754.562 179.164C754.355 176.694 754.076 174.244 753.726 171.815C753.586 170.844 753.435 169.876 753.272 168.911C753.191 168.429 753.107 167.948 753.021 167.468C752.76 166.027 752.475 164.594 752.165 163.17C751.236 158.898 750.087 154.705 748.729 150.604C748.428 149.692 748.116 148.786 747.794 147.884C747.633 147.433 747.469 146.983 747.303 146.534C745.808 142.496 744.109 138.554 742.217 134.722C741.376 133.018 740.498 131.337 739.582 129.678C739.124 128.848 738.657 128.024 738.181 127.206C737.705 126.388 737.219 125.577 736.725 124.771C736.23 123.964 735.727 123.164 735.215 122.37C733.935 120.385 732.6 118.438 731.211 116.531C729.822 114.625 728.38 112.76 726.887 110.937C726.289 110.207 725.684 109.485 725.07 108.77C724.457 108.054 723.835 107.346 723.206 106.645C722.891 106.294 722.575 105.945 722.256 105.598C719.706 102.821 717.031 100.159 714.238 97.6221C713.889 97.3048 713.538 96.9891 713.186 96.6758C711.775 95.4229 710.335 94.2017 708.867 93.0127C708.5 92.7154 708.131 92.4202 707.761 92.127C707.02 91.5405 706.272 90.9615 705.518 90.3916C704.008 89.2518 702.471 88.1461 700.908 87.0742C698.955 85.7343 696.96 84.4485 694.927 83.2188C694.52 82.9728 694.112 82.7288 693.702 82.4873C692.883 82.0045 692.057 81.531 691.226 81.0664C689.978 80.3694 688.717 79.6932 687.442 79.0381C686.168 78.383 684.881 77.7489 683.581 77.1367C682.714 76.7285 681.842 76.3302 680.964 75.9414C680.086 75.5527 679.203 75.1737 678.314 74.8047C676.093 73.8822 673.838 73.0209 671.552 72.2246C669.722 71.5875 667.873 70.9922 666.004 70.4385C663.668 69.7464 661.303 69.1203 658.91 68.5625C656.995 68.1161 655.063 67.7133 653.113 67.3555C649.215 66.6399 645.25 66.1036 641.227 65.7559L417.241 46.3975C416.635 46.3451 416.029 46.2975 415.425 46.2539C414.342 46.1759 413.262 46.1116 412.185 46.0615C411.563 46.0326 410.943 46.008 410.323 45.9883ZM597.013 859.008L477.972 868.339C476.97 868.417 476.117 869.096 475.814 870.053L463.039 910.445L609.504 897.64L599.586 860.823C599.277 859.679 598.196 858.915 597.013 859.008ZM266.166 99.5615C230.005 117.828 205 155.209 205 198.801V762.139C205 806.272 230.631 844.037 267.51 862.045L286.37 870.827C271.351 848.456 262.403 821.604 262.014 792.543L262 790.562V170.286C262 140.438 271.025 112.848 286.411 89.9561L266.166 99.5615Z" fill="black"/>
</svg>
