<?xml version="1.0" encoding="UTF-8"?>
<svg width="960px" height="960px" viewBox="0 0 960 960" version="1.1" xmlns="http://www.w3.org/2000/svg" xmlns:xlink="http://www.w3.org/1999/xlink">
    <title>com.smappee/drivers/ev-base/ assets/icon</title>
    <g id="com.smappee/drivers/ev-base" stroke="none" stroke-width="1" fill="none" fill-rule="evenodd">
        <path d="M350.39868,2.0602159 L697.56895,29.0612587 C707.981721,29.8711083 716.018141,38.5568262 716.018141,49.0010428 L716.018409,279.124814 C739.753837,332.246345 757.871583,385.687848 770.366244,439.441228 C784.26754,486.90658 791.179395,543.292673 791.179395,608.556535 C791.179395,610.474597 791.173438,612.379412 791.161518,614.270984 C791.175358,616.063543 791.18147,617.85695 791.18147,619.650687 C791.18147,732.741644 766.726717,801.816099 716.020737,824.729938 L716.018141,904.530451 C716.018141,914.841319 708.179468,923.462332 697.915084,924.440288 L346.6272,957.909837 C344.107013,958.149952 341.564152,957.909414 339.133689,957.201001 L281.233365,940.324638 C272.698315,937.836904 266.829932,930.01385 266.829932,921.123637 L266.829884,864.975781 C235.657516,858.72094 211.062041,838.072842 194.408084,804.935843 C175.433504,767.181413 166.944901,713.680686 169.165622,648.64423 C174.354675,496.676566 206.86414,369.832145 266.829036,268.232452 L266.829932,32.922846 C266.829932,23.2154866 273.800632,14.9097905 283.360846,13.2260075 L345.378785,2.30316153 C347.035212,2.01142512 348.721823,1.92979894 350.39868,2.0602159 Z M359.662,42.8999999 L359.663387,146.539396 C359.998272,147.536356 360.181406,148.611136 360.181406,149.741497 L360.181406,197.086036 C360.181406,198.19614 359.999626,199.267293 359.66302,200.269644 L359.66323,308.954437 C360.000215,309.958561 360.181406,311.029345 360.181406,312.135089 L360.181406,348.104308 L360.177851,348.375676 C360.150902,349.402756 359.971411,350.38415 359.663224,351.301389 L359.662807,823.319015 C360.365031,825.406341 360.344402,827.644734 359.663054,829.682744 L359.662,916.486 L676.019073,886.345 L676.019073,67.505 L359.662,42.8999999 Z M339.662096,845.581063 C327.006786,853.62732 316.119175,859.41419 306.829941,862.927809 L306.830073,906.12 L339.662,915.689 Z M314.445704,837.288038 L314.262367,837.368414 C311.716993,838.486168 309.239661,839.518962 306.829476,840.46641 L306.830022,841.19678 C309.212778,840.0612 311.752677,838.758396 314.445704,837.288038 Z M266.828179,350.127176 C238.963305,388.663457 215.827346,463.928902 198.727288,576.737196 C178.076607,712.968792 205.511175,811.24054 268.052292,827.72885 L266.829,827.388 Z M339.291923,355.62 L306.83,355.62 L306.830048,818.761902 C316.399394,814.513665 327.369001,808.834762 339.662019,801.692243 L339.662,355.716 L339.291923,355.62 Z M716.020213,366.6876 L716.018657,794.553819 C730.445212,787.912224 741.997862,774.239889 750.926401,752.941993 C763.941333,721.896525 770.76613,675.594553 771.161196,614.249715 C770.76304,557.370714 764.052904,500.815079 751.025446,444.57215 C742.221945,414.679016 730.545546,388.722541 716.020213,366.6876 Z M716.020517,331.137497 L716.018542,333.279711 C716.527873,333.883515 717.034596,334.490625 717.538713,335.101043 C717.037247,333.779902 716.530652,332.458614 716.020517,331.137497 Z M266.828597,309.836281 C263.405043,316.57976 260.09342,323.429379 256.893767,330.385172 C260.125329,326.522065 263.436966,323.016244 266.829677,319.871596 Z M338.115781,217.559207 L337.400048,218.794314 C333.713471,225.087796 327.187174,234.747694 320.284678,244.209094 L319.362332,245.469124 C318.130142,247.146762 316.889522,248.813119 315.654315,250.448165 L315.191393,251.0598 C312.212757,254.987984 309.391162,258.567266 306.830331,261.656818 L306.830381,300.123996 C311.029265,299.62157 315.318238,299.538486 319.697239,299.879722 C320.824816,299.96759 321.894086,300.23924 322.877957,300.663004 L338.579794,299.69691 C338.940754,299.674683 339.302226,299.672079 339.662627,299.688972 L339.66228,215.119619 C339.142566,215.874573 338.627274,216.687075 338.115781,217.559207 Z M339.662,43.9239999 L306.830073,49.707 L306.830285,170.659085 C315.749196,158.37897 326.71429,149.187414 339.662265,143.221308 L339.662,43.9239999 Z" id="Combined-Shape" fill="#000000" fill-rule="nonzero"></path>
    </g>
</svg>