<svg height="960" viewBox="0 0 960 960" width="960" xmlns="http://www.w3.org/2000/svg"><path d="m407.861741 192.971917 526.673769 247.816476c15.253292 7.177151 22.969806 21.675084 22.923144 36.193217l.046662-.000002v46.991566c0 14.703197-8.065853 28.22131-21.005561 35.203285l-383.988314 207.191433c-9.978234 5.38403-21.772594 6.280513-32.449966 2.466504l-491.0116851-175.39175c-15.9186465-5.686218-26.54447343-20.765198-26.54447343-37.668937v-46.99209c0-12.127931 5.5024175-23.600922 14.96007623-31.192984l348.3262303-279.616159c11.916879-9.566182 28.242839-11.506726 42.070118-5.000559zm-17.030194 83.185633-348.3262305 279.614513 491.0116855 175.393396 383.988314-207.191433zm441.520681 267.608007-.20259.118841c-.050501.02925-.101196.058335-.152085.087254-.135775.077163-.273695.153557-.413013.228729l-292.137846 157.630992c-2.757144 1.487693-5.791611 2.290133-8.855885 2.388508l-.437929.009261c-2.336421.023831-4.683301-.361568-6.931169-1.164517l-400.542283-143.075643c-.134229-.047947-.267506-.097066-.399827-.147339l.399827.147339c-.177737-.063488-.353804-.129031-.528194-.196587-.094478-.036599-.188496-.073802-.28202-.111589-.045035-.018196-.089738-.036439-.134328-.054815-.098152-.040449-.195873-.081595-.293041-.123383-.027594-.011866-.055505-.023941-.083369-.036068-.093854-.040852-.186757-.082108-.279145-.123951-.061941-.028053-.123505-.056303-.184838-.084814-.109635-.050963-.218829-.102901-.327279-.155665-.018233-.008868-.03734-.0182-.056424-.027558-.107167-.052555-.212794-.105501-.3177-.15923-.031622-.016194-.063331-.032539-.094973-.048957-.098184-.050943-.195743-.102581-.292662-.154897-.029098-.015704-.058047-.031422-.086938-.047201-.079369-.043351-.158422-.087221-.23704-.131545-.038673-.021798-.077059-.043608-.115341-.065525l-.046157-.026514c-.221368-.127522-.43923-.258667-.653565-.393311-.055553-.034885-.110981-.070089-.166172-.105528-.069482-.04463-.138433-.089517-.207008-.134768-.026581-.017523-.053201-.035182-.079764-.052895-.097586-.065095-.194329-.130863-.290301-.19736-.025718-.017796-.051363-.035655-.076953-.053566-.088296-.061826-.176025-.124314-.263092-.187412-.030148-.021817-.060077-.043636-.089927-.065527-.203485-.149262-.40346-.30196-.599754-.457891-.043903-.03482-.087624-.069857-.13116-.105054-.065091-.052681-.1301-.105937-.194692-.15955-.027434-.022702-.054343-.04516-.08118-.06768-.203899-.171179-.403966-.346203-.599784-.524665-.04255-.038664-.084676-.077396-.126605-.116287-.047933-.044589-.095552-.089211-.142911-.134038-.046255-.043639-.092589-.087925-.13867-.132406-.053299-.051605-.105918-.102985-.158205-.15462-.042696-.041991-.085288-.084437-.127656-.127053-.262049-.263798-.515577-.533927-.760485-.810111-.046429-.052045-.092275-.104298-.137815-.156763-.037763-.04385-.075345-.087545-.112715-.131384-.042124-.049043-.08408-.098752-.125766-.148643-.036216-.043745-.07234-.087372-.108258-.131135-.076431-.092684-.151638-.186039-.225921-.279993-.114-.144709-.226099-.290715-.335996-.438084l-.051425-.06864c-.035235-.04767-.070242-.095482-.105019-.143432-.026084-.036655-.052491-.07334-.078765-.110105-.112617-.156829-.222269-.315094-.329476-.474754-.029253-.044478-.058739-.088792-.088037-.133211-.146721-.221416-.288251-.445626-.425082-.672295-.021962-.037681-.044137-.074706-.066188-.111796-3.090927-5.195254-3.727295-11.660036-1.572419-17.389824l-.008292.060332c.654102-4.685439 3.022237-9.198427 7.226308-12.573212l267.407609-214.659367c5.958439-4.783091 14.121419-5.753363 21.035058-2.50028l425.272521 200.104018c10.054356 4.730889 13.56576 15.844698 10.289031 24.945296-.55732 3.976932-2.29297 7.812107-5.224832 10.891547-.01821.017473-.035355.035433-.052541.053368-.1781.187239-.361419.370915-.549154.551653-.024452.022566-.047954.045097-.071525.067582-.176531.169199-.357813.335673-.542995.499426-.21382.188617-.431994.37345-.655351.554503-.06658.054223-.133336.10761-.200546.16066-.04789.037596-.096382.075526-.14511.11328-.060222.046826-.120374.092878-.180881.138663-.05912.044604-.118951.089373-.179125.13388-.062019.045975-.124222.09143-.186787.136605-.05797.041776-.11606.083265-.174458.124513-.057989.04102-.11664.081985-.1756.122707-.077579.053538-.155548.106608-.234049.159254-.046105.030949-.092436.061747-.13895.092397-.065189.042934-.130456.08542-.196082.127614-.073062.046993-.147129.09396-.221646.140556-.047792.029875-.095284.059308-.142958.088591-.061305.037662-.123318.075314-.185635.112711zm-435.537428-217.27041-263.651609 211.644-3.756 3.015367 400.542284 143.075643 292.137846-157.630992-.557005-.262102-2.869125-1.349916.000125-.000084zm-5.983253-97.329688-348.3262305 279.61616v21.345444l335.8062685-269.566005c5.95844-4.783091 14.12142-5.753363 21.035059-2.50028l518.158672 243.809285v-24.887604z"/></svg>