<svg height="960" viewBox="0 0 960 960" width="960" xmlns="http://www.w3.org/2000/svg"><path d="m509.870615 255.413368 421.311244 191.779291c17.551916 7.989566 28.818141 25.496428 28.818141 44.781213v36.654604c0 1.895689-.134202 3.772707-.407313 5.616545-2.274169 18.077982-14.676538 33.613157-32.415111 39.552564l-397.829947 133.205412c-21.584726 7.227215-44.81957 7.939633-66.806529 2.048397l-426.9271129-114.391823c-12.9418722-3.467675-23.8482438-12.181259-30.08751663-24.038253-4.4705093-8.49567-6.23193598-17.982942-5.24026122-27.267056l.06888452-34.540449c.03446953-17.557983 9.64264833-33.69929 25.06038733-42.100319l380.9659869-207.585979 12.272794-5.784247c29.2246-11.736423 62.198803-11.13858 91.216353 2.0701zm-82.815118 83.58414-382.8746017 201.692177c-1.9259978 1.014584-3.2708682 2.699426-3.8989172 4.61672l-.0012273.824616c-.3509488 1.288922-.3836674 2.666731-.0587214 4.006398.1474055.48521.3424631.963732.5876462 1.429166 1.0454644 1.984617 2.8714009 3.443174 5.0379585 4.02432l426.7939049 114.480775c14.41394 3.866313 29.647698 3.398797 43.797425-1.344121l397.70753-133.309567c4.216474-1.413341 6.488863-5.977208 5.075522-10.193682-.724205-2.160548-2.329931-3.913087-4.419037-4.823073l-422.045382-183.837178c-21.134351-9.205833-45.306643-8.310549-65.7021 2.433449zm283.124044 170.151051c3.016554 57.559263-100.803191 104.421713-230.498126 111.218736-129.694934 6.797024-237.844403-28.95659-240.860956-86.515854-3.016554-57.559263 100.803191-104.421713 230.498126-111.218736 129.694934-6.797024 237.844403 28.95659 240.860956 86.515854zm-330.651036 71.808091c-8.101224 4.678065-15.269391 7.651825-21.68827 8.83415 12.871498 2.579363 26.572476 4.589615 40.889263 5.993899-2.789849-3.429509-3.098433-8.598844-.423561-12.284152l.169596.018635c-6.480522-.694294-12.804369-1.549104-18.947028-2.562532zm187.170566-5.641167.073349-.015839c-15.051734 3.255592-30.865939 5.820113-47.189493 7.635027-.515179 2.121761-1.069396 4.366976-1.658643 6.722198-.443309 1.77191-1.349703 3.346351-2.58078 4.594533 18.538812-2.20311 36.370311-5.290169 53.115521-9.155812l.614122-.143089c-2.031552-2.308366-3.021204-5.530311-2.249552-8.824407-.026331-.231386-.067711-.503059-.124524-.812611zm-63.239021-17.83845-1.27417.268182c-10.380162 2.147266-21.620865 3.578738-33.35693 4.193799-5.722165.299886-11.347502.394444-16.832697.290849-2.195598 6.710607-5.494092 12.265292-9.980823 16.557402-1.271933 1.21676-2.652823 2.424657-4.181873 3.622197l-.163049-.010575c6.002836.396309 11.430894.59551 16.286167.601012 1.846608.00064 3.609333-.02691 5.289037-.082353 11.185137-.3692 24.769265-1.849791 40.725487-4.455012 1.413566-5.800792 2.53362-10.658169 3.359915-14.566792.438242-2.07302.472786-4.219018.128936-6.418709zm-128.746207-20.386377-.516809.14566c-2.730317.789798-5.559741 1.746059-8.487102 2.870345-17.44521 6.700032-38.220106 11.364778-62.355045 14.030764l-.086347-.042922c17.941501 8.942437 37.224388 16.278445 48.501792 16.278445l.164498-.001424c7.211982-.241418 20.340639-7.1952 38.273068-21.028618-6.588857-3.455347-11.86464-7.557842-15.494055-12.25225zm213.214474-56.694383c-11.512201 3.366988-22.82642 7.663649-33.945824 12.893171 5.981677 5.426178 9.502623 11.832861 9.883887 19.1078.295836 5.644885-1.342944 10.967471-4.60578 15.882189 4.30432 2.659823 7.654587 5.191145 10.102001 7.670777 4.577326 4.637584 8.034242 9.758534 10.297969 15.335878 1.174282 2.89318 2.209876 5.541874 3.102471 7.976264.149621.312861.284037.637285.402275.971618.74049 2.093841 1.381138 4.017329 1.908928 5.789966l-.042696.010267c10.386456-2.61656 18.654687-5.137661 24.766743-7.536455 5.763412-2.261961 13.326944-5.87271 22.673713-10.845008-17.68168-14.982982-37.314491-24.973905-58.959643-30.124247-10.809596-2.572082-9.990589-18.216029 1.02849-19.645316 18.095637-2.347188 31.645416-3.527639 40.824645-3.527639 19.540445 0 36.885339 1.682691 53.911112 4.656016 2.707219.472779 6.916715 1.290741 10.849251 2.070032-.538368-1.538896-1.108527-2.936547-1.746222-4.266001-1.134742-2.365684-2.451565-4.429525-4.010035-6.22648-2.990413-3.448021-10.820241-9.085567-23.066613-16.356346-23.73754-1.338229-44.846836.744655-63.374672 6.163514zm-176.245592 77.394346c-2.658856 2.190754-5.247629 4.271826-7.768224 6.242981 7.372167.778446 14.914546 1.387729 22.595309 1.822451.59464-.511555 1.154929-1.018212 1.680404-1.520893.878509-.840402 1.6892-1.853471 2.416321-3.069298-6.699136-.820575-13.048633-1.986551-18.92381-3.475241zm132.31394-15.23786c-5.888176 3.76324-13.033444 7.09856-21.144867 9.923786.692742 3.255811.971102 6.558117.794453 9.881863 12.468172-1.587997 24.613127-3.598721 36.312614-6.003285-1.199792-2.184225-2.800678-4.298938-4.830572-6.355554-1.863848-1.888384-5.616509-4.43528-11.131628-7.44681zm139.497314-17.562312-.24577.223721c-7.100136 6.420378-15.767437 12.503852-25.848183 18.175647 1.359525 1.672699 2.080412 3.654465 2.202432 5.653182 11.51875-7.883798 19.561472-16.059729 23.891521-24.05255zm-421.294868 1.98678-.068268.368826c-.314395 1.788639-.427344 3.557683-.335963 5.30135.276346 5.272985 2.435332 10.581444 6.380861 15.774723-.867528-3.76009.569225-7.781388 3.576316-10.159411l.124928.120537c-3.811411-3.63669-7.048934-7.443098-9.677874-11.406025zm215.907734-34.22849-.143426.046988c-.929901.290391-1.916341.448413-2.936154.453122-3.349274.015465-6.73353.112059-10.140122.290591-2.180221.11426-4.34254.26067-6.482682.438772-1.021125.084978-2.029824.012001-2.996976-.202853-9.764882.965275-19.060086 2.580054-27.505372 4.731789-.787827.477174-1.673163.860634-2.653439 1.12745-3.9769 1.082451-7.734036 2.281664-11.228114 3.580997-.812801.302254-1.658259.496333-2.514827.57987-1.348845.542249-2.655891 1.102753-3.919641 1.679173-12.614342 5.753636-18.691445 12.044512-18.479881 16.081401.211564 4.036888 6.912953 9.658072 20.059611 14.061631 15.346835 5.140522 36.314012 7.517575 58.616409 6.348756s42.906243-5.724517 57.631677-12.44106c12.614342-5.753636 18.691445-12.044512 18.479881-16.081401-.159552-3.044437-4.010184-6.98994-11.532785-10.634697-1.09948-.074827-2.190922-.33268-3.229087-.774899-.974486-.415095-1.988559-.819364-3.040496-1.211875-1.054561-.393491-2.009394-.950124-2.842657-1.633089l.585414.192929c-12.347988-4.136039-28.334434-6.483081-45.727333-6.633595zm364.393155 24.251263c14.635546 0 26.5 4.728701 26.5 10.561848 0 5.833148-11.864454 12.438152-26.5 12.438152s-26.5-6.605004-26.5-12.438152c0-5.833147 11.864454-10.561848 26.5-10.561848zm-565.929381-5.164559.126668.265226c3.740229 7.705661 11.376802 15.286528 22.875411 22.334593 13.396029-1.426639 25.60206-3.487798 36.596539-6.184747-.990806-.062685-1.998402-.159233-3.009802-.263484-17.205056-1.773428-36.053769-7.173854-56.588816-16.151588zm343.172572 2.567299c7.57234 4.282111 14.865904 9.217974 21.877549 14.803239 7.065719-3.652424 13.380399-7.462656 18.878596-11.376042-12.951209-2.029165-26.208556-3.238321-40.756145-3.427197zm-194.222821-220.151125-380.9659867 207.585979c-2.583549 1.40776-4.1935906 4.112557-4.1993666 7.054746l-.0229682 11.218808 377.4020345-198.808589c25.768363-13.574359 56.308518-14.705494 83.010427-3.074508l419.254539 182.622097.000951-8.876276c0-3.606857-2.107136-6.881186-5.389891-8.375484l-421.311245-191.779292c-21.719499-9.886634-46.82361-8.985666-67.778494 2.432519zm-111.663606 186.914092c-4.710461.951165-13.50065 5.588827-25.798382 13.80769 17.367495 7.321779 33.089868 11.669601 47.151707 13.119039 13.544201 1.396082 26.181677 1.252302 37.920973-.412818 1.867063-3.046172 4.355289-5.939518 7.389686-8.662-10.201106-2.016672-19.151126-4.221-26.859865-6.619506-2.010432-.625528-4.142186-1.458204-7.170979-2.75-.304781-.12999-5.85051-2.533242-7.558927-3.247903-6.877028-2.876781-12.083232-4.564102-16.877358-5.268343-3.103069-.45583-5.829068-.444278-8.196855.033841zm50.930673-19.307053-.735409.199837c-6.297644 1.725598-12.406662 3.566712-18.303848 5.516871.298272.122816.598536.247593.90105.374141.721728.301911 2.020374.858065 3.347622 1.429115l.497988.214375c1.905882.820861 3.729239 1.610679 3.841322 1.658483 2.449357 1.044663 4.065766 1.676042 5.266574 2.049663 7.144239 2.222866 15.606409 4.295443 25.422645 6.204462-.516611-.396984-.987476-.802616-1.449045-1.210026-7.902984-6.975675-14.170037-12.458045-18.788899-16.436921zm75.517666-13.856766-1.11641.118246c-17.544418 1.90382-34.497387 4.597197-50.545037 7.99257 2.495414 2.188493 5.219419 4.586057 8.167731 7.188424 6.081482 5.367902 14.741006 10.668173 25.958877 15.805275 6.434549-1.637794 13.272884-2.983575 20.415228-4.010616-1.890448-7.230942-2.824511-16.223159-2.880389-27.093899zm58.195032-3.17166-.594043.003033c-3.015563 4.012061-4.962864 6.718749-5.747143 7.973302-2.174386 3.4782-4.170572 10.274598-5.749529 20.131205 13.496473.586987 26.02291 2.402086 36.898965 5.332939 4.850139-10.378052 14.054391-20.641294 27.492696-31.001961-16.702678-1.658677-34.250041-2.490335-52.300946-2.438518zm-25.098325.633125-1.112679.053924c-.588493.029023-1.177333.058972-1.766508.08985-3.431811.179853-6.849007.389835-10.249459.629353-.017567 12.255474 1.130213 21.293934 3.249235 26.861266l.648651-.03676c.67578-.035416 1.350209-.067969 2.023217-.097669l-.072647.511054c1.696188-12.167427 4.055682-21.417796 7.28019-28.011018zm106.980441 5.752336-.417294.258856c-11.621343 7.215296-20.700246 14.094658-27.273703 20.514208 9.716473-4.277606 19.59569-7.855673 29.62283-10.788323 7.198309-2.105298 14.700341-3.758299 22.505179-4.9612-7.795467-1.903757-15.959942-3.581231-24.437012-5.023541z"/></svg>