<svg height="960" viewBox="0 0 960 960" width="960" xmlns="http://www.w3.org/2000/svg"><path d="m341.355408 2.92161 1.664462.01480605 272.583189 3.90769877c89.069397 1.27688128 162.609479 69.97977398 169.934167 158.75511518l.604774 7.325467.114457.618792c.912387 5.051695 1.602328 10.154472 2.066105 15.293784l.132345 1.542875 30.945393 379.703913c.781083 9.605134.766111 19.190984-.032304 28.683328l-.082996.933308-.044599.621099c-1.749045 23.113067-8.119768 45.396678-18.529278 65.677031l-.450123.86987 31.57343 41.486071c15.235634 20.018994 14.994106 47.177249.815736 66.747111l-.450166.609818.02127.032284c18.570688 29.329389 15.642365 68.165741-8.501299 94.437618l-.831298.890732-45.251231 47.746033c-43.796949 46.211573-116.611551 48.614236-163.360157 5.389861l-4.536285-4.194528-.211174.598039c-7.696661 21.158354-29.923773 33.923671-52.482535 29.275357l-.743797-.159562c-11.731772-2.616327-21.973445-9.720769-28.533114-19.792731l-9.46638-14.535103c-10.557946-5.130626-19.447409-13.545781-25.113506-24.338016l-.300449-.580425-13.418703-26.295583-29.942342-58.675976-198.047566 4.508098c-83.632911 1.903516-153.1168053-63.669667-156.3637556-146.949938l-.0780642-2.529013c-.0264086-1.160291-.0396142-2.320844-.0396142-3.481435v-477.739868c0-66.318532 42.570018-124.4049924 104.380153-145.1018048l.259847-.0851262.543398-.1957068c.387539-.1361612.77832-.2668178 1.172276-.3918577l.593306-.183333c19.281507-5.7971193 35.511251-10.3901124 48.756495-13.7910968 13.254248-3.4032966 31.563349-7.6142165 55.061889-12.67279342.598292-.12879544 1.196615-.24346478 1.794605-.34421707l.198031-.03190866 1.033197-.22525021c7.500606-1.59874132 15.142668-2.63698211 22.877476-3.09963417l1.365919-.07566644c2.21659-.11300616 4.435245-.17776037 6.65439-.19753573zm448.906592 784.344-114.251409 98.531224c-5.983173 5.15989-13.497648 8.208195-21.384665 8.674857l-12.765926.754919.498558.454216c30.697211 27.480724 77.800792 25.635696 106.246287-4.378063l45.25123-47.746032c13.633162-14.384789 13.921658-36.831748.662695-51.562163zm-216.556 111.993-17.504 1.036 5.086369 7.810292c.855627 1.313762 2.191497 2.240428 3.721728 2.581688 3.234258.721279 6.440853-1.315893 7.162132-4.55015zm-.340857-126.876184-91.341143 7.735184 33.521732 65.669468 13.418301 26.287036c2.798575 5.482531 8.576172 8.789495 14.720925 8.42592l93.333042-5.523424zm-329.784006-706.2176989-4.948096 1.2775752c-58.082421 4.7872458-103.133041 53.4706287-103.133041 112.1156237v477.532227c0 .853124.009704 1.706221.029111 2.559124 1.413365 62.115956 52.914055 111.32513 115.030012 109.911765l162.885877-3.706432 164.342453-13.917517c3.748487-.317448 7.357976 1.49568 9.341256 4.692322l69.625112 112.221489c.799587 1.288771 1.270692 2.688537 1.436236 4.101443 1.606735-.63433 3.106807-1.536749 4.432321-2.679874l53.696622-46.308863-10.128 8.053-4.814545 3.829062c-1.06089.843596-2.175964 1.616706-3.338043 2.314352-4.843993 2.908059-10.16328 4.33856-15.433344 4.422495l-.478944.003927c-7.394371.003436-14.660376-2.639724-20.346323-7.566939-.161734-.140167-.322495-.282439-.481939-.426558-1.215295-1.098499-2.353799-2.303954-3.400968-3.612926-.862328-1.077934-1.662691-2.226003-2.392821-3.44219l-49.920502-83.152774-229.901071 18.317581c-72.489655 5.775067-136.026183-47.709213-142.949807-119.826587l-.192429-2.191036c-.100621-1.263016-.183189-2.527404-.247679-3.792779l-24.126956-473.404652c-1.90453-37.369536 11.806658-71.9212194 35.415508-97.3228589zm107.596222 2.3532647c-52.408727 2.4732222-92.889451 46.9638322-90.416229 99.3725592l21.187638 448.975876c.066099 1.400667.155575 2.800133.26839 4.197814 5.598663 69.362293 66.366524 121.05293 135.728818 115.454268l196.753599-15.806123 57.951767 96.531217c2.08463 3.472396 5.782746 5.379866 9.559818 5.339189l.283404-.00671c1.795529-.065704 3.600217-.57312 5.249605-1.563319.412351-.247552.808022-.521881 1.184467-.821222l94.198673-74.904701c4.457233-3.544293 5.472498-9.904435 2.340204-14.660238l-37.529173-56.979667-.585991-.892061c1.159629-1.311145 2.29345-2.644945 3.400754-4.000564l-.019243-.026327.236425-.303731c12.912569-16.588601 21.741778-36.016829 25.650638-56.751924 1.816784-8.578556 2.776271-17.341643 2.853947-26.194326-.050997-2.905766-.195894-5.829248-.438215-8.767171l-32.643013-395.793033c-.28403-1.571695-.59625-3.13991-.936661-4.705382l-.557017-6.772447c-15.50436-55.895272-66.314424-96.4907183-126.279094-97.3349139l-261.628048-3.6832563c-1.939015-.0272979-3.878411.0047815-5.815463.096193zm-15.935675-24.6534648c-62.327285 3.1764954-110.278474 56.277801-107.101979 118.605085l24.126957 473.404652c.054792 1.075093.124943 2.149348.210434 3.222436 4.029014 50.572904 40.765713 90.706534 87.790696 101.290095-42.295364-22.117719-72.839161-64.48363-77.772055-115.308487l-.213744-2.404976c-.130723-1.619535-.234401-3.241138-.310992-4.864134l-21.187638-448.975875c-2.993901-63.442143 46.009082-117.2991978 109.451224-120.2930984 1.406912-.0663936 2.814845-.1069309 4.223087-.1276461h1.408318l1.408367.011202 261.628048 3.6832562c21.690618.3053653 42.339992 5.1320374 61.012837 13.6054283-19.201115-11.2127736-41.434361-17.73986-65.092819-18.0791376l-272.208861-3.903651c-2.458106-.0352508-4.916708.0097233-7.37188.1348506zm298.003644 103.897815c20.256298 0 37.71034 16.209509 39.263491 36.438629l32.294212 420.618089c1.598872 20.824603-14.229843 37.969682-35.08613 37.969682h-268.902609c-20.256297 0-37.71034-16.209509-39.263491-36.438628l-32.294212-420.61809c-1.598871-20.824602 14.229843-37.969682 35.08613-37.969682zm0 20h-268.902609c-9.192593 0-15.853041 7.214351-15.144819 16.438629l32.294212 420.618089c.753941 9.819761 9.529597 17.969682 19.32218 17.969682h268.902609c9.192594 0 15.853041-7.214351 15.14482-16.438628l-32.294213-420.61809c-.753941-9.81976-9.529597-17.969682-19.32218-17.969682zm-90.493708 366.227331c18.701979 1.636211 31.984228 19.270539 30.263056 38.943633-1.721173 19.673094-17.863804 34.733078-36.565783 33.096867-18.70198-1.636211-31.984229-19.270539-30.263056-38.943633 1.721172-19.673094 17.863803-34.733078 36.565783-33.096867zm-16.641889 34.839982c-.797032 9.110112 4.87937 16.646451 12.082277 17.276624 7.202906.630172 14.101742-5.805976 14.898774-14.916088.797031-9.110113-4.879371-16.646451-12.082277-17.276624-7.202907-.630173-14.101743 5.805975-14.898774 14.916088zm-2.508319-201.78683 7.075858 131.728287c.296235 5.514897-3.934326 10.225751-9.449223 10.521986-5.514896.296236-10.22575-3.934325-10.521986-9.449222l-7.075858-131.728286c-.296235-5.514897 3.934325-10.225751 9.449222-10.521987s10.225751 3.934325 10.521987 9.449222zm25.111528-1.046313 7.075857 131.728286c.296236 5.514897-3.934325 10.225751-9.449222 10.521987-5.514897.296235-10.225751-3.934325-10.521986-9.449222l-7.075858-131.728287c-.296236-5.514897 3.934325-10.225751 9.449222-10.521986 5.514897-.296236 10.225751 3.934325 10.521987 9.449222z"/></svg>