<svg height="960" viewBox="0 0 960 960" width="960" xmlns="http://www.w3.org/2000/svg"><path d="m219.150351 119.995012c.906222 0 1.812407.016663 2.718325.040137l626.908243 16.244421c56.879581 1.473861 102.223081 48.00752 102.223081 104.906193v502.113384c0 57.255495-45.893553 103.943453-103.140618 104.925954l-626.908243 10.759292c-5.865243.100662-11.694027-.284652-17.438336-1.145838l-.115803-.018543-89.377-10.182012-.431131.000921c-7.661026-.023897-15.2406236-.877429-22.6299561-2.53186l-1.0049129-.231061-.0319745-.003067c-3.6173689-.527138-7.0651716-1.530302-10.2827413-2.940934l-.3832842-.171999-1.2331592-.438882c-39.9154269-14.525345-67.6899916-52.09847-68.97639026-95.497469l-.03204474-1.387032c-.0144058-.57954-.0144058-1.15915-.0144058-1.73877v-506.416315c0-56.798387 45.1233068-103.057662 101.47741-104.885313l.90959-.021219 97.661548-11.118294c2.138871-.243492 4.253817-.314266 6.331782-.224001l.42167.022295.777921-.023965c.427929-.010362.856109-.018136 1.28452-.023321zm-.208945 40.709516c-35.866148 0-64.941406 29.075258-64.941406 64.941406v529.288561c0 .371478 0 .742948.009562 1.114371.499247 29.089986 20.051378 53.383718 46.558918 61.191953l8.165499.929447c3.748198.604509 7.601722.887448 11.530763.820016l626.908242-10.759291c35.426483-.608006 63.827016-29.500144 63.827016-64.931844v-501.403656c0-35.210897-28.060158-64.007555-63.259241-64.919616l-627.117187-16.249557c-.560604-.014526-1.121373-.02179-1.682166-.02179zm-60.777121 5.601786-44.203285 5.033686-.019594.000126c-35.8661481 0-64.941406 29.075258-64.941406 64.941406v506.416315c0 .358689 0 .717372.0089148 1.076012.4831337 29.154956 20.1068149 53.503613 46.6996485 61.271391l-.0018401.247902 1.5162865.174483c5.6692433 1.506868 11.6388963 2.264708 17.7944083 2.162703l1.050582-.017338 40.122674 4.57151c-13.460446-14.742432-21.808678-34.263182-22.178167-55.792451-.012507-.48581-.012507-.971682-.012507-1.457564v-529.288561c0-23.090322 9.213324-44.028758 24.164285-59.33962zm700.835715 304.693686c5.522847 0 10 4.477153 10 10v294.964595c0 5.449445-4.363208 9.895606-9.811686 9.998227l-639 12.037216c-5.595545.103579-10.188314-4.403501-10.188314-10.000038v-307c0-5.522847 4.477153-10 10-10zm-10 20h-619v286.809l619-11.658zm-63-179c23.405921 0 42 20.337274 42 45s-18.594079 45-42 45-42-20.337274-42-45 18.594079-45 42-45zm0 20c-11.940303 0-22 11.002793-22 25s10.059697 25 22 25 22-11.002793 22-25-10.059697-25-22-25zm-.5-86c6.903559 0 12.5 6.491871 12.5 14.5s-5.596441 14.5-12.5 14.5-12.5-6.491871-12.5-14.5 5.596441-14.5 12.5-14.5zm-388.5 489.166249 292-5.499746"/></svg>