<?xml version="1.0" encoding="UTF-8"?>
<svg width="981px" height="822px" viewBox="0 0 981 822" version="1.1" xmlns="http://www.w3.org/2000/svg" xmlns:xlink="http://www.w3.org/1999/xlink">
    <!-- Generator: Sketch 52.5 (67469) - http://www.bohemiancoding.com/sketch -->
    <title>echo-show-v2</title>
    <desc>Created with Sketch.</desc>
    <g id="echo-show-v2" stroke="none" stroke-width="1" fill="none" fill-rule="evenodd">
        <path d="M49.794853,33.4460192 C49.4372838,34.3252647 49.1386817,35.2776373 48.8923637,36.3155225 C47.1462748,43.6728382 48.273518,55.1605633 52.8787615,72.201907 C66.051831,120.949035 204.109483,653.641939 232.727359,767.560125 C236.74856,783.564939 248.329134,794.992569 264.495714,799.16933 L900.022864,697.216236 C903.376247,696.678902 906.660319,695.807358 909.838393,694.611416 C915.67281,692.415873 921.346717,690.256238 926.700156,688.189009 L282.889374,792.649927 C262.177084,795.875292 242.442166,782.725634 237.447617,762.368214 C209.045535,646.608326 71.2810848,106.107989 59.0164303,60.7186499 C55.5938742,48.0537485 55.7629366,37.3873192 59.0364938,28.8751637 C59.0303465,28.8779014 59.024163,28.880657 59.0179433,28.8834305 C58.1179967,29.2847291 56.8369658,29.8914139 55.1229286,30.7400382 C53.5784845,31.5046965 51.8067521,32.4037993 49.794853,33.4460192 Z M40.9160979,38.1405449 C38.3033482,39.5442854 35.4401231,41.0985271 32.3140001,42.8116359 C26.954548,45.7488297 23.1955327,49.2912361 20.7160263,53.3127835 C20.328797,53.9408363 19.9757076,54.5736667 19.6550213,55.2093184 C18.8307394,63.4994513 20.1591327,75.6837238 24.6404825,92.5257102 C29.6424651,111.32436 57.831928,229.856265 101.768533,416.225225 C102.065681,417.48567 102.065681,417.48567 102.362824,418.746136 C119.312039,490.644544 137.435094,567.678335 155.533632,644.712095 C161.868114,671.673887 167.747071,696.709844 173.020706,719.178029 C174.866483,727.041912 176.504754,734.023125 177.916796,740.041424 C178.411014,742.14784 178.841652,743.983438 179.20637,745.538185 C179.541141,746.965318 179.570593,747.090873 179.630306,747.345459 C179.66204,747.457836 179.713702,747.638012 179.785021,747.882277 C179.935444,748.397468 180.115248,748.997612 180.323906,749.675562 C180.922867,751.621654 181.631043,753.793903 182.444052,756.134955 C184.76537,762.819167 187.455222,769.500483 190.472221,775.713955 C191.872594,778.598006 193.301118,781.291583 194.751767,783.774423 C208.01918,795.66773 215.160356,800.662645 221.749029,802.788388 C228.161835,804.85739 234.417129,804.540077 250.095543,801.521427 C237.837558,794.85804 229.045414,783.67886 225.454755,769.387651 C196.846991,655.509712 58.80021,122.858757 45.6398268,74.1585746 C41.3713364,58.363359 39.8139705,46.7662264 40.9160979,38.1405449 Z M71.3514091,23.2185216 C71.0098593,23.5682963 70.6786663,23.9290907 70.3588657,24.3007361 C63.9388854,31.7614977 62.0257828,43.1107439 66.2553856,58.7620589 C78.5373458,104.215443 216.315382,644.769081 244.730237,760.58103 C248.797373,777.158384 264.867889,787.866398 281.712113,785.243453 L957.802246,675.545005 C958.678881,675.149783 959.488028,674.776423 960.224998,674.426579 C962.549757,673.323178 964.184726,667.990512 963.985861,659.296312 C963.884242,654.853568 963.327682,650.003914 962.461192,645.107685 C962.120234,643.181052 961.755193,641.384847 961.391756,639.773423 C961.266118,639.216367 961.150387,638.724901 961.047796,638.305695 C960.989366,638.066939 960.950466,637.913394 960.954518,637.927282 C960.876169,637.639851 960.876169,637.639851 960.49418,636.238527 C959.965265,634.298223 959.965265,634.298223 959.152283,631.31589 C957.683027,625.926122 955.978633,619.673985 954.058673,612.631343 C948.573068,592.509489 942.460061,570.087985 935.876228,545.941748 C917.065284,476.952527 898.249929,407.963317 880.682773,343.573467 L880.576647,343.184479 C834.508159,174.327415 805.201005,67.0712331 800.782754,51.2579223 C797.486452,39.4579071 791.764727,31.5021159 784.29877,26.4748028 C780.354087,23.8185916 776.111117,22.1178005 771.841256,21.1941576 C770.310875,20.8631102 768.88071,20.6561315 767.590801,20.5489644 C766.812024,20.4842625 766.24253,20.4668854 765.921175,20.4717744 L765.816527,20.47538 L765.672352,20.4748016 C765.371036,20.4735928 765.371036,20.4735928 763.900891,20.4676994 C761.864578,20.4595394 761.864578,20.4595394 758.732423,20.446997 C753.070765,20.4243301 746.495731,20.3980365 739.080308,20.3684184 C717.893375,20.2837953 694.220728,20.1895009 668.646263,20.087953 C595.576376,19.7978164 521.905947,19.5076798 452.306154,19.2368858 C447.151859,19.2168318 442.034927,19.1969429 436.956601,19.177224 C246.74151,18.4386299 126.47551,17.9990232 110.141883,17.9990232 C94.102915,17.9990232 81.3305953,19.9554158 71.5117884,23.1658795 C71.4581643,23.183413 71.4047046,23.2009605 71.3514091,23.2185216 Z M27.9482324,137.417529 L103.409566,615.666197 L103.431116,616.032188 C103.43388,616.079141 103.443091,616.214124 103.460082,616.431478 C103.490569,616.821471 103.53151,617.282771 103.584223,617.809693 C103.737738,619.344262 103.954136,621.075082 104.243568,622.95622 C105.070049,628.327869 106.308304,633.776637 108.023388,638.922877 C110.716609,647.003461 115.973301,667.532163 121.962894,692.204037 C122.914021,696.120657 124.737993,699.770609 127.298271,702.880597 L177.05855,763.310298 C176.472933,761.741996 175.906825,760.168684 175.360491,758.595521 C174.51711,756.167014 173.781426,753.910386 173.157088,751.881845 C172.93759,751.168674 172.747393,750.533843 172.58697,749.9844 C172.489166,749.649425 172.42212,749.41404 172.386313,749.285305 L172.348237,749.136707 C172.27297,748.815801 172.27297,748.815801 171.905938,747.251138 C171.541242,745.696485 171.110626,743.860982 170.616431,741.754661 C169.204437,735.736568 167.566215,728.755565 165.720488,720.891895 C160.446972,698.424216 154.568137,673.38878 148.233783,646.427534 C130.135644,569.395471 112.013002,492.363438 95.06427,420.467078 C94.7671371,419.206654 94.7671371,419.206654 94.4699991,417.946252 C63.757517,287.670974 40.7166516,190.447551 27.9482324,137.417529 Z M253.970786,816.048525 C220.40158,822.586578 211.974694,819.845208 180.946767,791.507914 L180.55346,791.148714 L180.214867,790.737521 L115.720862,712.414941 C111.722099,707.557616 108.874139,701.858561 107.389124,695.743456 C101.544095,671.667056 96.2914102,651.154007 93.7956315,643.665817 C91.7883126,637.642702 90.3673562,631.389982 89.4207179,625.237382 C89.0895575,623.085032 88.8404536,621.092626 88.6614112,619.302881 C88.5772943,618.46203 88.5204638,617.790829 88.4857989,617.308489 L2.60139243,73.0018742 C2.50930529,72.5453652 2.40853882,71.9399174 2.31504721,71.1982219 C1.31028955,63.2271937 2.58399209,54.1443889 7.95051613,45.4403455 C11.805271,39.1882626 17.4866629,33.8342543 25.1071579,29.6579187 C35.5943812,23.9109424 43.2253448,19.8942427 48.4692446,17.2979741 C50.8164439,16.1358695 52.4219903,15.3860262 53.4787647,14.9328863 C53.5581749,14.8811568 53.6410141,14.8278081 53.7273009,14.7728896 C54.4960129,14.2836314 55.4020217,13.7580163 56.4494118,13.2072416 C59.2897271,11.7136492 62.746537,10.2515946 66.8514052,8.90942232 C78.2047425,5.19721188 92.5492521,3 110.141883,3 C126.507502,3 246.724404,3.43942729 437.014828,4.17831388 C442.093193,4.19803288 447.210163,4.21792201 452.364497,4.23797613 C521.964734,4.50877186 595.635548,4.79890997 668.705806,5.08904806 C694.280392,5.19059637 717.953155,5.28489125 739.140202,5.36951487 C746.555673,5.39913315 753.130754,5.42542695 758.792459,5.44809402 C761.924647,5.46063648 761.924647,5.46063648 763.960991,5.46879666 C765.254029,5.47398004 765.409824,5.47460458 765.633613,5.47550233 C765.636571,5.47544083 765.639604,5.47537779 765.642714,5.47531313 C766.449022,5.46109227 767.524436,5.49276299 768.832378,5.60142832 C770.751133,5.76084081 772.8233,6.06073238 775.011745,6.53413004 C781.047951,7.83986347 787.050942,10.2461578 792.674723,14.0330142 C803.106113,21.0571458 810.973831,31.9968389 815.226853,47.2216963 C819.65848,63.0828823 848.948053,170.274722 895.045037,339.236235 L895.151165,339.625229 C912.71854,404.015881 931.534082,473.005779 950.345208,541.995665 C956.929099,566.142115 963.042161,588.563822 968.52782,608.685875 C970.447803,615.7286 972.152219,621.980819 973.621498,627.370669 C974.434495,630.353058 974.434495,630.353058 974.963425,632.293416 C975.345428,633.694793 975.345428,633.694793 975.443976,634.057877 C975.568153,634.532906 975.769284,635.354765 976.021512,636.473101 C976.434292,638.303304 976.84547,640.326528 977.228982,642.493619 C978.218235,648.083538 978.858171,653.659703 978.979252,658.953287 C979.115382,664.904783 978.588402,670.196919 977.198289,674.730956 C975.334565,680.809739 971.915947,685.480085 966.655423,687.97689 C957.164512,692.482267 937.442855,700.249251 915.119887,708.649584 C911.000529,710.199741 906.741912,711.329915 902.396792,712.026161 L253.970786,816.048525 Z M922.565617,620.314378 L790.351224,113.746062 C788.861635,108.038251 783.632267,104.117756 777.738939,104.290389 C684.263139,107.02839 572.433919,110.262528 465.595015,113.281776 C304.301611,117.839897 191.101134,120.864776 147.746864,121.691114 C143.203388,121.777537 139.91903,126.059881 141.011137,130.476445 L286.422102,718.557211 C287.294934,722.087314 290.698577,724.383639 294.300509,723.870894 L912.099788,636.043618 C919.586637,634.979239 924.47552,627.631484 922.565617,620.314378 Z M937.076674,616.52599 C941.24962,632.51313 930.567432,648.567944 914.210405,650.893365 L296.412484,738.720447 C285.191861,740.317736 274.583877,733.160882 271.863325,722.157818 L126.452397,134.077198 C123.050541,120.319841 133.29362,106.964298 147.461388,106.694808 C190.748012,105.86976 303.939093,102.845132 465.171411,98.2887366 C572.004285,95.2696597 683.828798,92.0356581 777.299877,89.2977948 C790.179081,88.9205251 801.608312,97.489102 804.862362,109.957981 L937.076674,616.52599 Z" id="Combined-Shape" fill="#000000" fill-rule="nonzero"></path>
    </g>
</svg>