<?xml version="1.0" encoding="UTF-8"?>
<svg width="958px" height="916px" viewBox="0 0 958 916" version="1.1" xmlns="http://www.w3.org/2000/svg" xmlns:xlink="http://www.w3.org/1999/xlink">
    <!-- Generator: Sketch 52.5 (67469) - http://www.bohemiancoding.com/sketch -->
    <title>echo-show</title>
    <desc>Created with Sketch.</desc>
    <g id="echo-show" stroke="none" stroke-width="1" fill="none" fill-rule="evenodd">
        <path d="M146.343616,908.795935 L144.756457,909.68827 L97.2710988,825.254354 C95.1073052,821.406365 93.7011734,817.178271 93.1290173,812.799661 L4.79952499,136.741928 C3.89724796,129.838577 3.75818441,122.856766 4.38468246,115.921852 L13.0683365,19.7421284 C12.1923109,10.582446 19.6128882,2.63575257 28.9306475,3.01290013 L755.283489,32.4542492 C761.167585,32.6942334 766.150713,36.8739841 767.406791,42.6239799 L938.695574,824.858046 C940.361185,832.453092 935.002157,839.791897 927.259335,840.521387 L157.108995,912.942116 C152.92323,913.336555 148.996594,911.68906 146.343616,908.795935 Z M137.925618,866.94447 L22.4001828,83.1913391 L19.3233146,117.270579 C18.7958345,123.109431 18.912906,128.987108 19.6725236,134.798968 L108.002045,810.856924 C108.325846,813.334918 109.121562,815.727553 110.345506,817.904157 L137.925618,866.94447 Z M28.0041665,18.3512511 L157.639435,897.828983 L923.548684,825.807062 L753.092404,47.3748294 L28.3238588,17.9976971 C28.1293774,17.9898686 27.9760085,18.1603665 28.0041665,18.3512511 Z M815.734951,521.251405 L150.950707,538.807785 L87.1664772,117.148612 C85.7706665,107.923641 93.0826207,99.6936864 102.409468,99.9888701 L725.513181,119.766328 L815.734951,521.251405 Z M713.425444,134.387289 L102.00855,114.980773 L163.799983,523.466142 L797.100858,506.741211 L713.425444,134.387289 Z M51.8678615,41.4229215 L174.496498,873.37067 L899.410527,805.203844 L738.255079,69.2459207 L51.8678615,41.4229215 Z M744.343136,61.988006 L908.548935,811.876147 L168.114401,881.502433 L43.1287434,33.5639809 L744.343136,61.988006 Z" id="Combined-Shape" fill="#000000" fill-rule="nonzero"></path>
    </g>
</svg>