<?xml version="1.0" encoding="UTF-8"?>
<svg width="1127px" height="551px" viewBox="0 0 1127 551" version="1.1" xmlns="http://www.w3.org/2000/svg" xmlns:xlink="http://www.w3.org/1999/xlink">
    <title>beam</title>
    <g id="beam" stroke="none" stroke-width="1" fill="none" fill-rule="evenodd">
        <g id="beam_v1" transform="translate(1.000000, 81.000000)" fill="#000000">
            <path d="M1126.60064,29.7654 L1126.52077,29.2866 C1125.88179,24.4188 1120.76995,20.6682 1109.0287,16.5984 C1099.84337,13.4064 1086.98391,10.1346 1070.76981,6.783 C1021.88788,-3.1122 972.846208,1.0374 970.849398,1.197 L106.070588,118.902 L97.3644933,120.099 L97.2846208,120.099 C89.2973777,121.3758 65.5752658,126.9618 43.37073,135.9792 C14.6965273,147.7098 0.399362155,160.3182 0.798724309,173.7246 L0.798724309,174.5226 L22.4441531,348.4866 C23.4026223,356.307 30.9106308,365.484 43.0512403,373.6236 C60.1439405,385.1148 84.1056697,393.3342 110.543444,396.6858 C120.287881,397.9626 130.271935,398.601 140.495606,398.601 C165.495677,398.601 191.773707,394.8504 219.010206,387.3492 C362.620836,347.8482 1085.06697,143.0016 1092.33536,140.9268 C1097.52707,139.4904 1109.66768,135.3408 1111.58462,127.6002 L1126.60064,30.5634 L1126.60064,29.7654 Z M12.8594614,189.2856 C29.6326719,204.3678 64.3771793,211.9488 116.533877,211.9488 C121.965202,211.9488 127.636145,211.869 133.466832,211.7094 C181.949398,210.3528 226.278597,203.4102 226.757831,203.3304 L226.837704,203.3304 C235.304181,201.7344 1076.91999,43.89 1107.591,39.102 C1110.14692,38.703 1112.86258,38.2242 1115.33863,37.5858 L1114.77952,41.1768 C1112.86258,41.7354 1110.30666,42.2142 1107.03189,42.7728 C1076.28101,47.5608 234.665202,208.1982 226.198724,209.7942 C224.441531,210.0336 53.5145287,236.4474 13.5783133,194.7918 L12.8594614,189.2856 Z M10.942523,173.4852 C10.6230333,165.186 23.8818568,154.8918 47.2046067,145.4754 C68.3708009,136.9368 91.4539334,131.4306 98.8820695,130.2336 L107.508292,129.0366 L971.807867,11.2518 C974.443657,11.0124 1022.36712,7.2618 1068.69313,16.6782 C1105.2747,24.0996 1114.22041,29.4462 1116.21722,31.0422 L1116.05748,31.9998 C1114.14054,32.6382 1111.18526,33.3564 1106.7124,34.0746 C1076.04139,38.8626 236.58214,196.308 225.879235,198.303 C222.604465,198.7818 50.5592488,225.1956 13.2588235,182.5026 C12.6997165,181.8642 12.1406095,181.2258 11.7412473,180.5076 L10.942523,173.8842 L10.942523,173.565 L10.942523,173.4852 Z M1101.76031,125.2062 C1100.80184,126.8022 1094.97116,129.675 1089.6197,131.1912 C1082.27144,133.266 359.905174,338.1126 216.374415,377.5338 C138.33905,399 78.594472,385.1946 48.7221828,365.1648 C37.4601701,357.5838 32.9074415,350.8008 32.5080794,347.2098 L14.0575478,199.2606 C30.7508859,213.864 65.0960312,221.2056 116.454004,221.2056 C121.88533,221.2056 127.556272,221.1258 133.466832,220.9662 C181.869525,219.6096 226.118852,212.667 226.598086,212.5872 C235.064564,210.9912 1076.68037,50.3538 1107.35138,45.5658 C1109.98717,45.1668 1112.2236,44.688 1114.22041,44.2092 L1101.76031,125.2062 Z" id="Shape" fill-rule="nonzero"></path>
            <polygon id="Path" points="810.146067 161.8344 803.197165 152.9766 802.797803 169.176 804.475124 168.6972 804.714741 158.3232 811.663643 167.181 811.823388 151.3806 810.305811 151.6998"></polygon>
            <path d="M820.7691,148.6674 C817.81382,149.3856 815.417647,153.5352 815.417647,158.0838 C815.417647,162.6324 817.893692,165.7446 820.848972,164.9466 C823.804252,164.1486 826.120553,159.8394 826.120553,155.3706 C826.04068,150.9018 823.644507,147.9492 820.7691,148.6674 Z M820.848972,162.5526 C818.692417,163.1112 817.015096,160.8768 817.015096,157.605 C817.015096,154.413 818.772289,151.3806 820.848972,150.822 C822.925656,150.3432 824.602977,152.4978 824.602977,155.61 C824.602977,158.8818 822.925656,161.994 820.848972,162.5526 Z" id="Shape" fill-rule="nonzero"></path>
            <path d="M793.532601,155.0514 C790.257831,155.8494 787.302551,160.398 787.062934,165.2658 C786.823317,170.2134 789.459107,173.4852 792.813749,172.6074 C796.168391,171.7296 798.963926,167.0214 799.123671,162.2334 C799.283416,157.4454 796.807371,154.3332 793.532601,155.0514 Z M792.973494,170.0538 C790.577321,170.6922 788.740255,168.378 788.9,164.8668 C789.059745,161.3556 791.136428,158.1636 793.452729,157.5252 C795.769029,156.9666 797.606095,159.2808 797.44635,162.6324 C797.366478,166.0638 795.369667,169.4154 792.973494,170.0538 Z" id="Shape" fill-rule="nonzero"></path>
            <path d="M780.03416,160.797 C781.152374,160.5576 782.030971,161.1162 782.350461,161.3556 L783.868037,159.6 C783.788164,159.5202 782.590078,157.605 780.193905,158.1636 C779.075691,158.403 777.957477,159.201 777.07888,160.3182 C776.280156,161.4354 775.721049,162.792 775.641176,164.1486 C775.561304,165.585 775.960666,166.6224 776.759391,167.3406 C777.318498,167.8194 778.117222,168.1386 779.315308,168.378 C781.551736,168.8568 781.791354,169.6548 781.791354,170.4528 C781.711481,171.6498 780.753012,173.0862 779.315308,173.4852 C778.117222,173.8044 777.238625,173.2458 776.919135,172.9266 L775.321687,174.762 C775.401559,174.8418 776.679518,176.8368 779.155563,176.1186 C780.35365,175.7994 781.471864,175.0014 782.270588,173.8044 C783.069313,172.6872 783.548547,171.2508 783.62842,169.8942 C783.708292,168.4578 783.30893,167.4204 782.510206,166.7022 C781.951099,166.2234 781.152374,165.9042 780.03416,165.6648 C777.797732,165.186 777.558115,164.388 777.558115,163.59 C777.558115,162.5526 778.516584,161.196 780.03416,160.797 Z" id="Path"></path>
            <path d="M832.350602,152.6574 C830.513536,152.1786 830.194047,151.4604 830.194047,150.7422 C830.194047,149.7048 830.833026,148.5078 832.031113,148.1886 C832.909709,147.9492 833.708434,148.5078 833.948051,148.7472 L835.066265,147.231 C834.986393,147.1512 833.868179,145.4754 831.95124,145.8744 C831.072644,146.1138 830.194047,146.7522 829.63494,147.7098 C829.075833,148.6674 828.676471,149.8644 828.756343,151.0614 C828.756343,152.3382 829.155705,153.2958 829.874557,153.9342 C830.353792,154.413 830.992771,154.6524 832.031113,154.8918 C833.868179,155.2908 834.187668,156.0888 834.187668,156.807 C834.187668,157.8444 833.548689,159.1212 832.350602,159.4404 C831.392133,159.6798 830.673281,159.1212 830.433664,158.8818 L829.235578,160.4778 C829.31545,160.5576 830.433664,162.3132 832.430475,161.7546 C833.388944,161.5152 834.187668,160.797 834.826648,159.7596 C835.385755,158.802 835.705245,157.5252 835.705245,156.408 C835.705245,155.1312 835.305882,154.2534 834.58703,153.615 C833.948051,153.1362 833.309072,152.8968 832.350602,152.6574 Z" id="Path"></path>
        </g>
        <path d="M974,546 C888.948149,546 820,477.051851 820,392 C820,306.948149 888.948149,238 974,238 C1059.05185,238 1128,306.948149 1128,392 C1128,477.051851 1059.05185,546 974,546 Z M959.728598,493.425501 C1014.93368,501.733517 1071.88167,461.659747 1076.27208,398.494818 C1080.01051,344.716228 1039.71047,293.551695 980.459156,289.710089 C919.837014,285.780244 871.5458,334.550668 871.488006,391.732268 C871.430861,448.533665 916.443395,487.903476 957.387611,492.909696 C957.424625,492.535333 957.494108,492.161618 957.494108,491.788552 C957.497355,485.238163 957.638918,478.683232 957.442158,472.138683 C957.291504,467.133111 955.165459,462.854856 951.173768,459.769114 C949.24773,458.280743 947.010643,457.135593 944.794336,456.089711 C935.462857,451.684937 927.345705,445.728858 920.629897,437.856194 C914.912824,431.154632 910.430857,423.740028 907.576866,415.419684 C904.558584,406.622465 902.88775,397.580644 903.781935,388.226097 C904.13909,384.486354 904.433905,380.707683 905.223542,377.046446 C908.157405,363.44284 914.660868,351.749332 924.566391,341.943213 C929.197714,337.359368 934.358275,333.497 940.046126,330.330157 C949.001618,325.344049 958.641549,322.532754 968.821107,321.772997 C974.266093,321.366842 979.727313,321.632205 985.170351,322.519778 C999.703301,324.890531 1012.17255,331.303372 1022.80342,341.36123 C1027.47176,345.77833 1031.37383,350.840349 1034.62589,356.389623 C1040.16763,365.844736 1043.43527,376.047278 1044.18465,386.963512 C1044.57947,392.714567 1044.25608,398.474705 1043.47099,404.228355 C1042.22095,413.386961 1039.67021,422.137466 1035.84736,430.509066 C1027.93606,447.839438 1016.05319,461.995831 1000.8462,473.375964 C989.389972,481.949344 976.747994,488.240857 963.030006,492.354315 C962.018284,492.657309 961.01955,493.00572 959.728598,493.425501 Z" id="Oval-2" fill="#000000"></path>
    </g>
</svg>