<svg id="Layer_1" data-name="Layer 1" xmlns="http://www.w3.org/2000/svg" viewBox="0 0 373.7 991.01"><path d="M280.46,46.25a88.31,88.31,0,0,0-21,2.25c-6.63,1.7-10,4.13-10,7.21s3.36,5.5,10,7.21a88.31,88.31,0,0,0,21,2.25,88.31,88.31,0,0,0,21-2.25c6.63-1.71,10-4.13,10-7.21s-3.36-5.5-10-7.21A88.31,88.31,0,0,0,280.46,46.25Zm27,9.45c-.24,1.51-8.87,5.45-27,5.45s-26.78-4-27-5.45c.22-1.5,8.86-5.46,27-5.46S307.22,54.19,307.46,55.7Z"/><path d="M369.65,60.8s0-.07,0-.1c0-16.87-19.51-31.24-56.43-41.54-33.49-9.34-77.88-14.49-125-14.49s-91.51,5.15-125,14.49C26.31,29.46,6.8,43.83,6.8,60.7c0,0,0,0,0,.05h0L12.69,896.6c0,25,18.69,48,52.62,64.88,32.27,16,75,24.88,120.33,24.88,43.43,0,84.86-8.2,116.64-23.1,33.09-15.5,53-37,55.92-60.48a61.87,61.87,0,0,0,.22-6.81L369.65,60.8ZM22,84.5c9.48,6.75,23.3,12.73,41.26,17.74,33.49,9.34,77.88,14.49,125,14.49s91.51-5.15,125-14.49c17.86-5,31.63-10.92,41.1-17.63l-.46,34.22c-7.12,7.68-22.36,15.15-43.67,21.1C277.67,149,234.35,154,188.22,154s-89.44-5-122-14.08c-21.68-6-37.09-13.68-44-21.5ZM340.16,51.4c0,17.17-62.47,36.3-152.1,36.3S36,68.57,36,51.4c0-2.61,1.45-5.26,4.2-7.88a158.35,158.35,0,0,1,27.1-9.91c32.21-9,75.17-13.94,121-13.94s88.76,5,121,13.94a160.68,160.68,0,0,1,26.4,9.57C338.59,45.91,340.16,48.68,340.16,51.4ZM28.49,50.71c0,.23,0,.46,0,.69,0,28.45,82.23,43.8,159.6,43.8,41.94,0,81.4-4.21,111.14-11.85,22.11-5.68,48.46-15.84,48.46-32,0-.33,0-.65,0-1,4.92,3.9,7,7.47,7,10.26h0c0,6.65-11.92,17.72-45.46,27.08-32.21,9-75.17,13.94-121,13.94s-88.76-5-121-13.94C33.72,78.43,21.81,67.36,21.8,60.71h0C21.8,58,23.81,54.5,28.49,50.71Zm314.85,850.2c-2.3,18.21-19.14,35.53-47.41,48.78-29.83,14-69,21.68-110.28,21.68-43.06,0-83.42-8.28-113.66-23.31-28.57-14.2-44.3-32.47-44.3-51.5l-.35-50c4.37,1.57,7.86.32,7.82-2.75s-3.55-6.79-7.9-8.55l-.15-20.95c4.29,1.46,7.68.21,7.64-2.81S31.3,804.84,27,803l-.15-21c4.21,1.36,7.5.11,7.46-2.87s-3.36-6.56-7.54-8.4l-.15-21c4.12,1.26,7.32,0,7.28-2.93s-3.26-6.45-7.36-8.32l-.15-21.3c4,1.16,7.13-.1,7.1-3s-3.16-6.34-7.17-8.23L26.2,685c3.94,1.07,7-.19,6.91-3s-3.07-6.22-7-8.14L26,652.73c3.85,1,6.77-.29,6.73-3.08s-3-6.11-6.81-8.05l-.15-21.14c3.77.89,6.59-.38,6.55-3.12s-2.88-6-6.63-8l-.15-21.2c3.68.8,6.41-.47,6.37-3.16s-2.79-5.88-6.45-7.85l-.15-21.27c3.58.72,6.22-.55,6.19-3.19s-2.7-5.77-6.27-7.75l-.15-21.34c3.49.64,6-.63,6-3.22s-2.61-5.66-6.09-7.65l-.15-21.41c3.4.56,5.86-.71,5.83-3.26s-2.51-5.55-5.91-7.54L22.28,128.71c8,6.24,21.14,12.64,42,18.45,33.17,9.25,77.2,14.35,124,14.35s90.82-5.1,124-14.35c20.45-5.71,33.44-12,41.52-18.12L349,480.14c-3.75,2-6.59,5.23-6.62,7.94s2.74,4,6.47,3.13l-.29,21.26c-3.74,2-6.56,5.22-6.6,7.93s2.73,4,6.45,3.14l-.29,21.26c-3.72,2-6.53,5.22-6.57,7.92s2.72,4,6.42,3.14l-.29,21.26c-3.71,2-6.51,5.21-6.54,7.91s2.71,4,6.4,3.15l-.29,21.27c-3.69,2-6.48,5.2-6.52,7.9s2.7,4,6.37,3.16l-.29,21.27c-3.68,2-6.46,5.19-6.49,7.88s2.68,4,6.34,3.17l-.29,21.27c-3.67,2-6.43,5.18-6.47,7.87s2.67,4,6.32,3.18L346,706.42c-3.65,2-6.41,5.17-6.44,7.86s2.66,4,6.29,3.18L345.54,739c-3.64,1.95-6.38,5.16-6.42,7.85s2.65,4,6.27,3.19l-.29,21.28c-3.62,1.95-6.36,5.15-6.39,7.84s2.64,4,6.24,3.2l-.29,21.29c-3.61,1.94-6.33,5.14-6.36,7.83s2.63,4,6.22,3.21L344.24,836c-3.6,1.94-6.3,5.14-6.34,7.82s2.61,4,6.19,3.22l-.66,48.83v.22C343.46,897.8,343.42,900.19,343.33,900.91Z"/><path d="M117.4,48.49a88.31,88.31,0,0,0-21-2.25,88.31,88.31,0,0,0-21,2.25c-6.63,1.7-10,4.13-10,7.21s3.36,5.5,10,7.21a88.31,88.31,0,0,0,21,2.25,88.31,88.31,0,0,0,21-2.25c6.63-1.71,10-4.13,10-7.21S124,50.2,117.4,48.49Zm-21,12.66c-18.15,0-26.78-4-27-5.45.22-1.5,8.86-5.46,27-5.46s26.76,3.95,27,5.45C123.16,57.2,114.53,61.15,96.4,61.15Z"/><path d="M47.16,499.33c4.67,1.49,8.44.07,8.41-3.06S51.71,489.47,47,488s-8.42-.24-8.38,2.89S42.49,497.84,47.16,499.33Z"/><path d="M72.2,506.55c4.71,1.22,8.51-.42,8.48-3.55s-3.88-6.57-8.59-7.79-8.49.25-8.46,3.38S67.49,505.33,72.2,506.55Z"/><path d="M97.42,512.33c4.74.95,8.57-.91,8.55-4s-3.89-6.35-8.63-7.3-8.56.74-8.53,3.87S92.68,511.38,97.42,512.33Z"/><path d="M122.78,516.66c4.76.68,8.61-1.4,8.6-4.52s-3.89-6.13-8.66-6.81-8.61,1.23-8.59,4.35S118,516,122.78,516.66Z"/><path d="M148.24,519.55c4.77.41,8.64-1.88,8.64-5s-3.89-5.91-8.67-6.31-8.64,1.72-8.63,4.84S143.46,519.15,148.24,519.55Z"/><path d="M173.76,521c4.78.14,8.66-2.37,8.66-5.5s-3.88-5.69-8.67-5.82-8.66,2.2-8.66,5.33S169,520.86,173.76,521Z"/><path d="M199.3,521c4.78-.13,8.66-2.86,8.67-6s-3.87-5.47-8.66-5.33-8.67,2.7-8.67,5.82S194.52,521.13,199.3,521Z"/><path d="M224.82,519.55c4.78-.4,8.65-3.35,8.66-6.48s-3.85-5.25-8.63-4.84-8.66,3.19-8.67,6.31S220,520,224.82,519.55Z"/><path d="M250.28,516.66c4.76-.68,8.63-3.85,8.65-7s-3.82-5-8.59-4.35-8.64,3.68-8.66,6.81S245.52,517.34,250.28,516.66Z"/><path d="M275.64,512.33c4.74-.95,8.59-4.34,8.61-7.46s-3.79-4.81-8.53-3.87-8.61,4.17-8.63,7.3S270.9,513.28,275.64,512.33Z"/><path d="M300.86,506.55c4.71-1.22,8.54-4.83,8.57-8s-3.75-4.6-8.46-3.38-8.56,4.66-8.59,7.79S296.15,507.77,300.86,506.55Z"/><path d="M325.9,499.33c4.67-1.49,8.47-5.32,8.51-8.45S330.7,486.49,326,488s-8.5,5.15-8.53,8.28S321.23,500.82,325.9,499.33Z"/><path d="M43.28,508.51c0-3.13-3.85-6.9-8.49-8.53s-8.37-.48-8.32,2.65,3.82,7.07,8.46,8.69S43.31,511.64,43.28,508.51Z"/><path d="M51.29,511.06c0,3.13,3.85,6.85,8.53,8.2s8.46-.18,8.44-3.31-3.86-6.68-8.55-8S51.26,507.93,51.29,511.06Z"/><path d="M76.34,518c0,3.13,3.87,6.63,8.58,7.71s8.53-.66,8.51-3.79-3.88-6.46-8.6-7.54S76.31,514.92,76.34,518Z"/><path d="M101.56,523.59c0,3.13,3.88,6.41,8.62,7.22s8.58-1.15,8.56-4.28-3.89-6.24-8.64-7.05S101.54,520.46,101.56,523.59Z"/><path d="M126.92,527.69c0,3.13,3.88,6.19,8.65,6.72s8.62-1.64,8.61-4.77-3.89-6-8.65-6.56S126.9,524.56,126.92,527.69Z"/><path d="M152.37,530.34c0,3.13,3.88,6,8.66,6.23s8.64-2.13,8.64-5.26-3.88-5.8-8.66-6.07S152.36,527.22,152.37,530.34Z"/><path d="M177.87,531.56c0,3.13,3.88,5.75,8.65,5.74s8.65-2.62,8.65-5.74-3.87-5.58-8.65-5.58S177.87,528.43,177.87,531.56Z"/><path d="M203.39,531.32c0,3.13,3.86,5.53,8.64,5.26s8.65-3.11,8.66-6.23-3.86-5.36-8.63-5.09S203.4,528.2,203.39,531.32Z"/><path d="M228.89,529.65c0,3.13,3.85,5.31,8.61,4.77s8.63-3.6,8.65-6.72-3.83-5.14-8.6-4.6S228.9,526.52,228.89,529.65Z"/><path d="M254.31,526.53c0,3.13,3.82,5.09,8.56,4.28s8.6-4.09,8.62-7.22-3.8-4.92-8.55-4.11S254.33,523.4,254.31,526.53Z"/><path d="M279.63,522c0,3.13,3.79,4.87,8.51,3.79s8.55-4.58,8.58-7.71-3.77-4.71-8.49-3.63S279.65,518.83,279.63,522Z"/><path d="M304.8,516c0,3.13,3.75,4.66,8.44,3.31s8.49-5.07,8.53-8.2-3.72-4.49-8.41-3.14S304.83,512.83,304.8,516Z"/><path d="M329.78,508.51c0,3.13,3.71,4.44,8.35,2.82s8.42-5.56,8.46-8.69-3.68-4.27-8.32-2.65S329.82,505.37,329.78,508.51Z"/><path d="M47.4,520.28c-4.66-1.48-8.4-.23-8.36,2.9s3.83,7,8.49,8.44,8.42.06,8.38-3.07S52.06,521.77,47.4,520.28Z"/><path d="M72.39,527.49c-4.7-1.21-8.47.25-8.44,3.39s3.85,6.74,8.55,8,8.49-.42,8.46-3.55S77.09,528.71,72.39,527.49Z"/><path d="M97.57,533.26c-4.73-.94-8.53.74-8.51,3.87s3.87,6.52,8.59,7.46,8.55-.91,8.53-4S102.3,534.21,97.57,533.26Z"/><path d="M122.88,537.59c-4.75-.67-8.58,1.23-8.56,4.36s3.88,6.29,8.62,7,8.59-1.4,8.58-4.52S127.64,538.27,122.88,537.59Z"/><path d="M148.3,540.48c-4.77-.4-8.62,1.72-8.61,4.85s3.88,6.07,8.64,6.48,8.62-1.89,8.61-5S153.07,540.88,148.3,540.48Z"/><path d="M173.78,541.92c-4.77-.13-8.64,2.21-8.63,5.33s3.88,5.86,8.65,6,8.64-2.37,8.64-5.5S178.55,542.06,173.78,541.92Z"/><path d="M199.28,541.92c-4.78.14-8.65,2.69-8.65,5.82s3.87,5.64,8.64,5.5,8.64-2.86,8.65-6S204.05,541.79,199.28,541.92Z"/><path d="M224.76,540.48c-4.77.41-8.64,3.18-8.65,6.31s3.85,5.42,8.61,5,8.63-3.35,8.64-6.48S229.52,540.07,224.76,540.48Z"/><path d="M250.17,537.59c-4.75.68-8.62,3.67-8.63,6.8s3.83,5.2,8.58,4.52,8.6-3.84,8.62-7S254.93,536.92,250.17,537.59Z"/><path d="M275.49,533.26c-4.73.95-8.59,4.16-8.61,7.29s3.8,5,8.53,4,8.57-4.33,8.59-7.46S280.22,532.32,275.49,533.26Z"/><path d="M300.66,527.49c-4.7,1.22-8.54,4.65-8.57,7.79s3.77,4.77,8.46,3.55,8.51-4.82,8.55-8S305.36,526.28,300.66,527.49Z"/><path d="M334,523.18c0-3.13-3.7-4.38-8.36-2.9s-8.48,5.14-8.51,8.28,3.73,4.55,8.38,3.07S334,526.31,334,523.18Z"/><path d="M43.65,540.81c0-3.13-3.84-6.9-8.47-8.52s-8.34-.47-8.3,2.66,3.81,7.07,8.44,8.69S43.69,543.94,43.65,540.81Z"/><path d="M51.65,543.36c0,3.13,3.84,6.85,8.51,8.19s8.44-.18,8.41-3.31-3.86-6.68-8.53-8S51.61,540.23,51.65,543.36Z"/><path d="M76.63,550.33c0,3.13,3.86,6.63,8.56,7.7s8.51-.67,8.48-3.8-3.87-6.46-8.58-7.54S76.6,547.2,76.63,550.33Z"/><path d="M101.78,555.85c0,3.13,3.87,6.41,8.6,7.21s8.56-1.16,8.54-4.28-3.88-6.24-8.61-7S101.76,552.72,101.78,555.85Z"/><path d="M127.07,559.94c0,3.13,3.87,6.18,8.62,6.72s8.6-1.64,8.58-4.77-3.88-6-8.63-6.56S127.06,556.81,127.07,559.94Z"/><path d="M152.46,562.59c0,3.13,3.87,6,8.63,6.23s8.62-2.13,8.61-5.26-3.87-5.8-8.64-6.07S152.45,559.46,152.46,562.59Z"/><path d="M177.9,563.8c0,3.13,3.87,5.75,8.63,5.74s8.63-2.62,8.63-5.74-3.86-5.58-8.63-5.58S177.89,560.67,177.9,563.8Z"/><path d="M212,557.5c-4.77.27-8.63,2.94-8.64,6.07s3.85,5.53,8.61,5.26,8.63-3.11,8.63-6.23S216.75,557.23,212,557.5Z"/><path d="M237.41,555.34c-4.75.54-8.62,3.43-8.63,6.56s3.84,5.31,8.58,4.77,8.61-3.6,8.62-6.72S242.16,554.8,237.41,555.34Z"/><path d="M262.75,551.74c-4.74.81-8.59,3.92-8.61,7s3.81,5.09,8.54,4.28,8.58-4.08,8.6-7.21S267.48,550.93,262.75,551.74Z"/><path d="M288,546.7c-4.71,1.08-8.56,4.41-8.58,7.54s3.78,4.88,8.48,3.8,8.53-4.57,8.56-7.7S292.67,545.62,288,546.7Z"/><path d="M313,540.21c-4.68,1.35-8.5,4.9-8.53,8s3.74,4.66,8.41,3.31,8.47-5.06,8.51-8.19S317.7,538.87,313,540.21Z"/><path d="M337.87,532.29c-4.63,1.62-8.43,5.39-8.47,8.52s3.7,4.44,8.33,2.83,8.4-5.55,8.44-8.69S342.51,530.68,337.87,532.29Z"/><path d="M39.43,555.49c0,3.13,3.82,7,8.46,8.44s8.39.06,8.36-3.07-3.84-6.79-8.49-8.27S39.39,552.36,39.43,555.49Z"/><path d="M72.69,559.78c-4.69-1.21-8.45.26-8.42,3.39s3.84,6.74,8.52,7.95,8.47-.43,8.44-3.56S77.38,561,72.69,559.78Z"/><path d="M97.8,565.53c-4.71-.94-8.51.75-8.49,3.88s3.86,6.51,8.57,7.45,8.52-.92,8.5-4S102.52,566.47,97.8,565.53Z"/><path d="M123.05,569.85c-4.74-.67-8.56,1.23-8.54,4.36s3.87,6.29,8.6,7,8.57-1.4,8.55-4.53S127.79,570.52,123.05,569.85Z"/><path d="M148.4,572.72c-4.76-.4-8.6,1.72-8.58,4.85s3.87,6.07,8.62,6.48,8.6-1.89,8.59-5S153.16,573.13,148.4,572.72Z"/><path d="M173.81,574.16c-4.76-.13-8.62,2.21-8.61,5.33s3.86,5.86,8.62,6,8.61-2.38,8.61-5.5S178.58,574.3,173.81,574.16Z"/><path d="M199.24,574.16c-4.76.14-8.63,2.69-8.62,5.82s3.86,5.64,8.61,5.5,8.62-2.86,8.62-6S204,574,199.24,574.16Z"/><path d="M224.66,572.72c-4.75.41-8.62,3.18-8.63,6.31s3.84,5.42,8.59,5,8.61-3.35,8.62-6.48S229.41,572.32,224.66,572.72Z"/><path d="M250,569.85c-4.74.67-8.6,3.67-8.61,6.8s3.82,5.2,8.55,4.53,8.58-3.84,8.6-7S254.74,569.17,250,569.85Z"/><path d="M275.26,565.53c-4.72.94-8.57,4.16-8.59,7.29s3.79,5,8.5,4,8.54-4.33,8.57-7.45S280,564.59,275.26,565.53Z"/><path d="M300.36,559.78c-4.69,1.21-8.52,4.65-8.54,7.78s3.76,4.77,8.44,3.56,8.49-4.82,8.52-7.94S305.05,558.56,300.36,559.78Z"/><path d="M333.63,555.49c0-3.13-3.69-4.39-8.34-2.91s-8.46,5.14-8.49,8.27,3.72,4.55,8.36,3.07S333.59,558.62,333.63,555.49Z"/><path d="M44,573.11c0-3.13-3.83-6.9-8.45-8.51s-8.32-.47-8.28,2.67,3.8,7.07,8.42,8.68S44.07,576.25,44,573.11Z"/><path d="M52,575.66c0,3.13,3.83,6.84,8.48,8.19s8.42-.19,8.39-3.32-3.84-6.68-8.51-8S52,572.52,52,575.66Z"/><path d="M76.92,582.61c0,3.13,3.85,6.62,8.54,7.7s8.48-.67,8.46-3.8S90.06,580,85.36,579,76.89,579.47,76.92,582.61Z"/><path d="M102,588.12c0,3.13,3.86,6.4,8.58,7.21s8.54-1.16,8.52-4.29-3.87-6.23-8.59-7S102,585,102,588.12Z"/><path d="M127.23,592.2c0,3.13,3.86,6.18,8.6,6.72s8.57-1.65,8.56-4.77-3.87-6-8.61-6.55S127.22,589.07,127.23,592.2Z"/><path d="M152.55,594.84c0,3.13,3.86,6,8.61,6.23s8.6-2.13,8.59-5.26-3.86-5.8-8.62-6.07S152.54,591.71,152.55,594.84Z"/><path d="M177.92,596c0,3.13,3.86,5.75,8.61,5.74s8.6-2.62,8.61-5.74-3.85-5.58-8.61-5.58S177.92,592.91,177.92,596Z"/><path d="M211.92,589.74c-4.75.27-8.61,2.94-8.62,6.07s3.84,5.53,8.59,5.26,8.6-3.11,8.61-6.23S216.67,589.48,211.92,589.74Z"/><path d="M237.27,587.59c-4.74.54-8.6,3.43-8.61,6.55s3.83,5.31,8.56,4.77,8.58-3.59,8.6-6.72S242,587.05,237.27,587.59Z"/><path d="M262.55,584c-4.72.81-8.57,3.91-8.59,7s3.8,5.09,8.52,4.29,8.55-4.08,8.58-7.21S267.27,583.19,262.55,584Z"/><path d="M287.7,579c-4.7,1.08-8.53,4.4-8.56,7.53s3.77,4.88,8.46,3.8,8.51-4.57,8.54-7.7S292.39,577.89,287.7,579Z"/><path d="M321.06,575.66c0-3.13-3.7-4.5-8.37-3.15s-8.48,4.89-8.51,8,3.73,4.66,8.39,3.32S321,578.79,321.06,575.66Z"/><path d="M337.48,564.6c-4.62,1.62-8.41,5.38-8.45,8.51s3.69,4.45,8.31,2.83,8.38-5.54,8.42-8.68S342.1,563,337.48,564.6Z"/><path d="M39.82,587.8c0,3.13,3.81,7,8.44,8.43s8.37.05,8.34-3.08-3.83-6.78-8.47-8.26S39.78,584.66,39.82,587.8Z"/><path d="M73,592.06c-4.67-1.21-8.43.26-8.4,3.4s3.83,6.73,8.5,7.94,8.44-.43,8.42-3.56S77.67,593.27,73,592.06Z"/><path d="M98,597.8c-4.7-.94-8.49.75-8.46,3.88s3.85,6.51,8.55,7.45,8.5-.92,8.48-4S102.74,598.74,98,597.8Z"/><path d="M123.22,602.1c-4.73-.67-8.54,1.24-8.52,4.37s3.86,6.29,8.58,7,8.55-1.4,8.53-4.53S127.95,602.77,123.22,602.1Z"/><path d="M148.5,605c-4.74-.4-8.57,1.72-8.56,4.85s3.86,6.07,8.6,6.47,8.58-1.89,8.57-5S153.25,605.37,148.5,605Z"/><path d="M173.85,606.4c-4.75-.13-8.59,2.21-8.59,5.34s3.85,5.85,8.6,6,8.59-2.38,8.59-5.5S178.6,606.54,173.85,606.4Z"/><path d="M199.21,606.4c-4.75.14-8.6,2.69-8.6,5.82s3.85,5.64,8.59,5.5,8.6-2.86,8.6-6S204,606.27,199.21,606.4Z"/><path d="M224.55,605c-4.74.4-8.6,3.18-8.6,6.31s3.83,5.42,8.57,5,8.58-3.35,8.6-6.47S229.3,604.57,224.55,605Z"/><path d="M249.84,602.1c-4.73.67-8.58,3.67-8.59,6.8s3.81,5.2,8.53,4.53,8.56-3.83,8.58-7S254.57,601.43,249.84,602.1Z"/><path d="M275,597.8c-4.71.94-8.54,4.16-8.56,7.28s3.78,5,8.48,4,8.52-4.32,8.55-7.45S279.73,596.86,275,597.8Z"/><path d="M308.46,595.45c0-3.13-3.72-4.61-8.4-3.4s-8.49,4.64-8.52,7.77,3.75,4.77,8.42,3.56S308.43,598.58,308.46,595.45Z"/><path d="M333.24,587.8c0-3.13-3.68-4.39-8.31-2.91s-8.44,5.13-8.47,8.26,3.71,4.56,8.34,3.08S333.2,590.93,333.24,587.8Z"/><path d="M44.4,605.42c0-3.13-3.82-6.89-8.43-8.51s-8.3-.46-8.26,2.68,3.79,7.06,8.4,8.67S44.44,608.55,44.4,605.42Z"/><path d="M52.36,608c0,3.13,3.82,6.84,8.46,8.18s8.4-.19,8.37-3.32-3.84-6.67-8.49-8S52.32,604.82,52.36,608Z"/><path d="M77.21,614.88c0,3.13,3.84,6.62,8.51,7.69s8.46-.68,8.44-3.81-3.85-6.45-8.53-7.53S77.18,611.75,77.21,614.88Z"/><path d="M102.23,620.38c0,3.13,3.85,6.4,8.55,7.2s8.51-1.16,8.5-4.29-3.86-6.23-8.57-7S102.21,617.25,102.23,620.38Z"/><path d="M127.39,624.45c0,3.13,3.85,6.18,8.58,6.72s8.55-1.65,8.54-4.77-3.86-6-8.59-6.55S127.37,621.32,127.39,624.45Z"/><path d="M152.64,627.08c0,3.13,3.85,6,8.59,6.23s8.57-2.13,8.57-5.26-3.85-5.8-8.59-6.07S152.63,624,152.64,627.08Z"/><path d="M177.94,628.28c0,3.13,3.85,5.75,8.59,5.74s8.58-2.62,8.59-5.74-3.84-5.58-8.59-5.58S177.94,625.16,177.94,628.28Z"/><path d="M211.85,622c-4.74.27-8.59,2.94-8.59,6.07s3.83,5.53,8.57,5.26,8.58-3.1,8.59-6.23S216.59,621.72,211.85,622Z"/><path d="M237.14,619.84c-4.73.54-8.58,3.42-8.59,6.55s3.82,5.31,8.54,4.77,8.56-3.59,8.58-6.72S241.87,619.3,237.14,619.84Z"/><path d="M262.35,616.26c-4.71.81-8.55,3.91-8.57,7s3.79,5.1,8.5,4.29,8.53-4.08,8.55-7.2S267.06,615.45,262.35,616.26Z"/><path d="M287.43,611.24c-4.68,1.08-8.51,4.4-8.53,7.53s3.76,4.88,8.44,3.81,8.48-4.56,8.51-7.69S292.11,610.17,287.43,611.24Z"/><path d="M320.7,608c0-3.13-3.69-4.5-8.35-3.16s-8.46,4.88-8.49,8,3.72,4.67,8.37,3.32S320.67,611.08,320.7,608Z"/><path d="M337.08,596.91c-4.61,1.61-8.39,5.37-8.42,8.5s3.68,4.45,8.28,2.84,8.36-5.54,8.4-8.67S341.69,595.3,337.08,596.91Z"/><path d="M40.2,620.1c0,3.13,3.8,6.95,8.42,8.42s8.35,0,8.32-3.09-3.82-6.78-8.45-8.26S40.17,617,40.2,620.1Z"/><path d="M64.92,627.74c0,3.13,3.82,6.73,8.48,7.93s8.42-.44,8.39-3.57-3.84-6.56-8.5-7.77S64.89,624.61,64.92,627.74Z"/><path d="M98.27,630.06c-4.69-.94-8.47.75-8.44,3.89s3.84,6.51,8.52,7.45,8.48-.92,8.46-4.05S103,631,98.27,630.06Z"/><path d="M123.39,634.35c-4.71-.67-8.52,1.24-8.5,4.37s3.85,6.29,8.56,7,8.52-1.41,8.51-4.53S128.1,635,123.39,634.35Z"/><path d="M148.6,637.22c-4.73-.4-8.55,1.72-8.54,4.85s3.85,6.07,8.57,6.47,8.55-1.89,8.55-5S153.33,637.62,148.6,637.22Z"/><path d="M173.88,638.65c-4.74-.13-8.57,2.21-8.57,5.34s3.84,5.85,8.58,6,8.57-2.38,8.57-5.5S178.62,638.78,173.88,638.65Z"/><path d="M199.18,638.65c-4.74.14-8.58,2.69-8.58,5.82s3.83,5.64,8.57,5.5,8.57-2.86,8.58-6S203.92,638.51,199.18,638.65Z"/><path d="M224.45,637.22c-4.73.4-8.57,3.18-8.58,6.31s3.82,5.42,8.54,5,8.56-3.35,8.57-6.47S229.18,636.82,224.45,637.22Z"/><path d="M249.67,634.35c-4.72.67-8.55,3.66-8.57,6.79s3.8,5.2,8.51,4.53,8.53-3.83,8.56-7S254.39,633.69,249.67,634.35Z"/><path d="M274.79,630.06c-4.69.94-8.52,4.15-8.54,7.28s3.77,5,8.46,4.05,8.5-4.32,8.52-7.45S279.48,629.12,274.79,630.06Z"/><path d="M308.14,627.74c0-3.13-3.71-4.61-8.37-3.4s-8.47,4.64-8.5,7.77,3.74,4.77,8.4,3.57S308.11,630.87,308.14,627.74Z"/><path d="M332.85,620.1c0-3.13-3.67-4.39-8.29-2.92s-8.41,5.12-8.45,8.26,3.7,4.56,8.32,3.09S332.82,623.24,332.85,620.1Z"/><path d="M44.78,637.72c0-3.13-3.81-6.89-8.4-8.5s-8.28-.45-8.24,2.68,3.78,7.06,8.38,8.66S44.82,640.85,44.78,637.72Z"/><path d="M52.71,640.25c0,3.13,3.81,6.84,8.44,8.17s8.38-.2,8.35-3.33-3.82-6.67-8.46-8S52.68,637.12,52.71,640.25Z"/><path d="M77.5,647.16c0,3.13,3.83,6.62,8.49,7.69s8.44-.68,8.42-3.81-3.84-6.45-8.51-7.52S77.47,644,77.5,647.16Z"/><path d="M102.45,652.65c0,3.13,3.84,6.4,8.53,7.2s8.49-1.17,8.47-4.29-3.85-6.23-8.54-7S102.43,649.52,102.45,652.65Z"/><path d="M127.54,656.7c0,3.13,3.84,6.18,8.55,6.71s8.53-1.65,8.52-4.78-3.85-6-8.56-6.55S127.53,653.57,127.54,656.7Z"/><path d="M152.73,659.33c0,3.13,3.84,6,8.57,6.23s8.55-2.13,8.55-5.26-3.84-5.79-8.57-6.06S152.72,656.2,152.73,659.33Z"/><path d="M178,660.53c0,3.13,3.84,5.74,8.56,5.74s8.56-2.62,8.56-5.74-3.83-5.58-8.56-5.58S178,657.4,178,660.53Z"/><path d="M211.79,654.23c-4.73.27-8.57,2.94-8.57,6.06s3.82,5.53,8.55,5.26,8.55-3.1,8.57-6.23S216.51,654,211.79,654.23Z"/><path d="M237,652.09c-4.72.54-8.55,3.42-8.56,6.55s3.81,5.31,8.52,4.78,8.54-3.59,8.55-6.71S241.72,651.56,237,652.09Z"/><path d="M262.14,648.52c-4.7.8-8.53,3.91-8.54,7s3.78,5.1,8.47,4.29,8.51-4.07,8.53-7.2S266.84,647.72,262.14,648.52Z"/><path d="M295.56,647.16c0-3.13-3.73-4.72-8.4-3.65s-8.49,4.39-8.51,7.52,3.75,4.88,8.42,3.81S295.53,650.29,295.56,647.16Z"/><path d="M320.35,640.25c0-3.13-3.68-4.5-8.32-3.17s-8.43,4.88-8.46,8,3.71,4.67,8.35,3.33S320.31,643.38,320.35,640.25Z"/><path d="M336.68,629.22c-4.6,1.61-8.37,5.36-8.4,8.5s3.67,4.46,8.26,2.85,8.33-5.53,8.38-8.66S341.28,627.62,336.68,629.22Z"/><path d="M40.59,652.41c0,3.13,3.79,6.95,8.4,8.41s8.33,0,8.3-3.09-3.81-6.78-8.42-8.25S40.55,649.28,40.59,652.41Z"/><path d="M65.24,660c0,3.13,3.81,6.73,8.46,7.93s8.4-.44,8.37-3.57-3.83-6.56-8.48-7.76S65.21,656.9,65.24,660Z"/><path d="M98.5,662.33c-4.68-.93-8.45.76-8.42,3.89s3.83,6.51,8.5,7.44,8.46-.93,8.44-4.05S103.18,663.26,98.5,662.33Z"/><path d="M123.55,666.61c-4.7-.67-8.49,1.24-8.47,4.37s3.84,6.29,8.53,7,8.5-1.41,8.49-4.54S128.26,667.28,123.55,666.61Z"/><path d="M148.7,669.46c-4.72-.4-8.53,1.73-8.52,4.85s3.84,6.07,8.55,6.47,8.53-1.89,8.52-5S153.42,669.87,148.7,669.46Z"/><path d="M173.91,670.89c-4.73-.13-8.55,2.21-8.54,5.34s3.84,5.85,8.55,6,8.54-2.38,8.55-5.5S178.64,671,173.91,670.89Z"/><path d="M199.14,670.89c-4.72.13-8.56,2.69-8.56,5.82s3.83,5.64,8.54,5.5,8.55-2.86,8.55-6S203.87,670.76,199.14,670.89Z"/><path d="M224.35,669.46c-4.72.4-8.55,3.18-8.56,6.31s3.81,5.42,8.52,5,8.54-3.34,8.55-6.47S229.07,669.06,224.35,669.46Z"/><path d="M249.5,666.61c-4.7.67-8.53,3.66-8.54,6.79s3.79,5.21,8.49,4.54,8.51-3.83,8.53-7S254.21,665.94,249.5,666.61Z"/><path d="M274.47,673.66c4.68-.93,8.48-4.31,8.5-7.44s-3.74-4.82-8.42-3.89-8.5,4.15-8.52,7.28S269.8,674.59,274.47,673.66Z"/><path d="M307.82,660c0-3.13-3.7-4.61-8.35-3.41s-8.45,4.63-8.48,7.76,3.73,4.78,8.37,3.57S307.79,663.16,307.82,660Z"/><path d="M332.47,652.41c0-3.13-3.66-4.4-8.27-2.93s-8.39,5.12-8.42,8.25,3.69,4.56,8.3,3.09S332.43,655.54,332.47,652.41Z"/><path d="M45.16,670c0-3.13-3.8-6.89-8.38-8.49s-8.25-.44-8.21,2.69,3.77,7.06,8.35,8.65S45.19,673.16,45.16,670Z"/><path d="M53.07,672.55c0,3.13,3.8,6.83,8.42,8.17s8.35-.21,8.32-3.34-3.81-6.67-8.44-8S53,669.41,53.07,672.55Z"/><path d="M77.78,679.44c0,3.13,3.81,6.62,8.47,7.68s8.42-.69,8.39-3.82-3.83-6.45-8.49-7.52S77.75,676.31,77.78,679.44Z"/><path d="M102.68,684.91c0,3.13,3.82,6.4,8.51,7.2s8.47-1.17,8.45-4.3-3.84-6.23-8.52-7S102.65,681.78,102.68,684.91Z"/><path d="M127.7,689c0,3.13,3.83,6.18,8.53,6.71s8.5-1.65,8.49-4.78-3.84-6-8.54-6.55S127.69,685.82,127.7,689Z"/><path d="M152.82,691.57c0,3.13,3.83,6,8.54,6.23s8.53-2.14,8.52-5.26-3.83-5.79-8.55-6.06S152.81,688.45,152.82,691.57Z"/><path d="M178,692.77c0,3.13,3.83,5.74,8.54,5.74s8.54-2.62,8.54-5.74-3.82-5.58-8.54-5.58S178,689.64,178,692.77Z"/><path d="M211.72,686.48c-4.72.27-8.54,2.93-8.55,6.06s3.81,5.53,8.52,5.26,8.53-3.1,8.54-6.23S216.44,686.21,211.72,686.48Z"/><path d="M236.87,684.34c-4.7.54-8.53,3.42-8.54,6.55s3.79,5.31,8.49,4.78,8.52-3.58,8.53-6.71S241.58,683.81,236.87,684.34Z"/><path d="M261.94,680.78c-4.69.8-8.5,3.9-8.52,7s3.77,5.1,8.45,4.3,8.49-4.07,8.51-7.2S266.63,680,261.94,680.78Z"/><path d="M295.27,679.44c0-3.13-3.72-4.72-8.38-3.65s-8.47,4.39-8.49,7.52,3.74,4.88,8.39,3.82S295.24,682.57,295.27,679.44Z"/><path d="M320,672.55c0-3.13-3.67-4.51-8.3-3.17s-8.41,4.87-8.44,8,3.7,4.67,8.32,3.34S320,675.68,320,672.55Z"/><path d="M336.28,661.53c-4.58,1.6-8.34,5.36-8.38,8.49s3.66,4.46,8.24,2.86,8.31-5.52,8.35-8.65S340.87,659.93,336.28,661.53Z"/><path d="M41,684.72c0,3.13,3.78,6.94,8.38,8.41s8.31,0,8.27-3.1-3.8-6.78-8.4-8.24S40.94,681.58,41,684.72Z"/><path d="M65.56,692.31c0,3.13,3.8,6.72,8.43,7.92s8.38-.45,8.35-3.58-3.82-6.56-8.46-7.76S65.53,689.18,65.56,692.31Z"/><path d="M90.34,698.49c0,3.13,3.82,6.5,8.48,7.44s8.43-.93,8.41-4.06-3.83-6.34-8.5-7.27S90.32,695.36,90.34,698.49Z"/><path d="M132.24,705.65c0-3.13-3.83-6.12-8.52-6.79s-8.47,1.25-8.45,4.38,3.83,6.29,8.51,7S132.26,708.78,132.24,705.65Z"/><path d="M157.34,708c0-3.13-3.83-5.9-8.53-6.3s-8.51,1.73-8.49,4.86,3.83,6.07,8.53,6.47S157.35,711.14,157.34,708Z"/><path d="M182.48,709c0-3.13-3.82-5.69-8.53-5.82s-8.53,2.21-8.52,5.34,3.82,5.85,8.53,6S182.48,712.08,182.48,709Z"/><path d="M207.63,708.47c0-3.13-3.81-5.47-8.52-5.34s-8.53,2.69-8.53,5.82,3.82,5.64,8.52,5.5S207.63,711.6,207.63,708.47Z"/><path d="M224.22,713c4.7-.4,8.52-3.34,8.53-6.47s-3.79-5.26-8.49-4.86-8.53,3.18-8.53,6.3S219.52,713.43,224.22,713Z"/><path d="M249.28,710.19c4.69-.66,8.49-3.82,8.51-7s-3.76-5-8.45-4.38-8.51,3.66-8.52,6.79S244.59,710.86,249.28,710.19Z"/><path d="M274.24,705.92c4.66-.93,8.45-4.31,8.48-7.44s-3.73-4.83-8.4-3.9-8.48,4.14-8.5,7.27S269.58,706.86,274.24,705.92Z"/><path d="M307.49,692.31c0-3.13-3.69-4.61-8.33-3.42s-8.43,4.63-8.46,7.76,3.72,4.78,8.35,3.58S307.46,695.44,307.49,692.31Z"/><path d="M332.08,684.72c0-3.13-3.65-4.4-8.25-2.94s-8.37,5.11-8.4,8.24,3.68,4.57,8.27,3.1S332,687.85,332.08,684.72Z"/><path d="M45.53,702.33c0-3.13-3.79-6.88-8.36-8.48s-8.23-.43-8.19,2.7,3.76,7.05,8.33,8.65S45.57,705.46,45.53,702.33Z"/><path d="M53.42,704.84c0,3.13,3.79,6.83,8.4,8.16s8.33-.21,8.3-3.34-3.81-6.66-8.42-8S53.39,701.71,53.42,704.84Z"/><path d="M78.07,711.72c0,3.13,3.8,6.61,8.45,7.68s8.39-.69,8.37-3.82-3.82-6.45-8.47-7.51S78,708.59,78.07,711.72Z"/><path d="M111.38,724.36c4.67.8,8.45-1.17,8.43-4.3s-3.83-6.23-8.5-7-8.44,1-8.42,4.14S106.72,723.57,111.38,724.36Z"/><path d="M136.37,727.91c4.69.53,8.48-1.66,8.47-4.78s-3.83-6-8.52-6.54-8.48,1.49-8.46,4.62S131.68,727.38,136.37,727.91Z"/><path d="M161.43,730c4.7.27,8.51-2.14,8.5-5.26s-3.82-5.79-8.52-6.06-8.51,2-8.5,5.1S156.73,729.78,161.43,730Z"/><path d="M186.53,730.75c4.7,0,8.51-2.62,8.52-5.74s-3.81-5.58-8.52-5.58S178,721.88,178,725,181.83,730.76,186.53,730.75Z"/><path d="M211.63,730c4.7-.26,8.51-3.1,8.52-6.23s-3.79-5.36-8.5-5.1-8.52,2.93-8.52,6.06S206.93,730.31,211.63,730Z"/><path d="M236.69,727.91c4.69-.53,8.49-3.58,8.51-6.71s-3.77-5.15-8.46-4.62-8.51,3.42-8.52,6.54S232,728.45,236.69,727.91Z"/><path d="M261.67,724.36c4.67-.8,8.46-4.06,8.49-7.19s-3.74-4.93-8.42-4.14-8.48,3.9-8.5,7S257,725.16,261.67,724.36Z"/><path d="M286.54,719.39c4.64-1.06,8.42-4.55,8.45-7.68s-3.7-4.72-8.35-3.66-8.44,4.38-8.47,7.51S281.89,720.46,286.54,719.39Z"/><path d="M319.64,704.84c0-3.13-3.66-4.51-8.28-3.18s-8.39,4.86-8.42,8,3.69,4.67,8.3,3.34S319.6,708,319.64,704.84Z"/><path d="M335.88,693.84c-4.57,1.6-8.32,5.35-8.36,8.48s3.65,4.46,8.22,2.86,8.29-5.51,8.33-8.65S340.46,692.25,335.88,693.84Z"/><path d="M41.37,717c0,3.13,3.77,6.94,8.35,8.4s8.28,0,8.25-3.11-3.79-6.77-8.38-8.24S41.33,713.89,41.37,717Z"/><path d="M65.88,724.6c0,3.13,3.79,6.72,8.41,7.91s8.35-.46,8.33-3.58-3.81-6.55-8.43-7.75S65.85,721.47,65.88,724.6Z"/><path d="M107.44,734.13c0-3.13-3.82-6.34-8.47-7.27s-8.4.77-8.37,3.9,3.81,6.5,8.46,7.43S107.46,737.25,107.44,734.13Z"/><path d="M132.39,737.9c0-3.13-3.82-6.12-8.5-6.78s-8.45,1.25-8.43,4.38,3.82,6.29,8.49,6.95S132.4,741,132.39,737.9Z"/><path d="M157.42,740.26c0-3.13-3.82-5.9-8.51-6.3s-8.48,1.73-8.47,4.86,3.82,6.07,8.51,6.47S157.42,743.38,157.42,740.26Z"/><path d="M182.49,741.2c0-3.13-3.81-5.69-8.51-5.82s-8.5,2.21-8.5,5.34,3.81,5.85,8.51,6S182.49,744.32,182.49,741.2Z"/><path d="M207.57,740.72c0-3.13-3.8-5.47-8.5-5.34s-8.51,2.69-8.51,5.82,3.8,5.64,8.5,5.5S207.57,743.84,207.57,740.72Z"/><path d="M224.12,745.28c4.69-.4,8.49-3.34,8.51-6.47s-3.78-5.26-8.47-4.86-8.51,3.17-8.51,6.3S219.43,745.68,224.12,745.28Z"/><path d="M249.11,742.44c4.67-.66,8.47-3.82,8.49-6.95s-3.75-5-8.43-4.38-8.48,3.66-8.5,6.78S244.44,743.11,249.11,742.44Z"/><path d="M274,738.19c4.65-.93,8.43-4.3,8.46-7.43s-3.72-4.83-8.37-3.9-8.45,4.14-8.47,7.27S269.36,739.12,274,738.19Z"/><path d="M298.76,732.52c4.62-1.19,8.38-4.79,8.41-7.92s-3.68-4.62-8.31-3.42-8.41,4.62-8.43,7.75S294.14,733.71,298.76,732.52Z"/><path d="M331.69,717c0-3.13-3.64-4.4-8.23-2.94s-8.35,5.1-8.38,8.24,3.67,4.57,8.25,3.11S331.65,720.16,331.69,717Z"/><path d="M45.91,734.63c0-3.13-3.78-6.88-8.34-8.48s-8.21-.43-8.17,2.71,3.75,7,8.31,8.64S45.94,737.76,45.91,734.63Z"/><path d="M53.78,737.14c0,3.13,3.77,6.83,8.37,8.15s8.31-.22,8.28-3.35-3.8-6.66-8.4-8S53.74,734,53.78,737.14Z"/><path d="M78.36,744c0,3.13,3.8,6.61,8.43,7.67s8.37-.7,8.35-3.83-3.81-6.44-8.44-7.51S78.34,740.86,78.36,744Z"/><path d="M111.58,756.62c4.65.8,8.42-1.18,8.41-4.3s-3.82-6.23-8.48-7-8.41,1-8.39,4.14S106.93,755.83,111.58,756.62Z"/><path d="M136.5,760.16c4.67.53,8.46-1.66,8.45-4.78s-3.82-6-8.5-6.54-8.46,1.49-8.44,4.62S131.82,759.64,136.5,760.16Z"/><path d="M161.49,762.29c4.68.27,8.48-2.14,8.48-5.26s-3.81-5.79-8.5-6.06-8.48,2-8.47,5.1S156.81,762,161.49,762.29Z"/><path d="M186.53,763c4.69,0,8.49-2.62,8.49-5.74s-3.8-5.58-8.49-5.58-8.5,2.45-8.5,5.58S181.84,763,186.53,763Z"/><path d="M211.56,762.29c4.68-.26,8.49-3.1,8.5-6.22s-3.78-5.36-8.47-5.1-8.5,2.93-8.5,6.06S206.88,762.56,211.56,762.29Z"/><path d="M236.56,760.16c4.67-.53,8.47-3.58,8.49-6.71s-3.76-5.15-8.44-4.62-8.49,3.41-8.5,6.54S231.88,760.7,236.56,760.16Z"/><path d="M261.47,756.62c4.66-.79,8.44-4.06,8.46-7.19s-3.73-4.94-8.39-4.14-8.46,3.9-8.48,7S256.82,757.42,261.47,756.62Z"/><path d="M286.27,751.67c4.63-1.06,8.4-4.54,8.42-7.67s-3.7-4.72-8.33-3.66-8.42,4.38-8.44,7.51S281.64,752.73,286.27,751.67Z"/><path d="M319.28,737.14c0-3.13-3.66-4.51-8.26-3.19s-8.37,4.86-8.4,8,3.68,4.68,8.28,3.35S319.25,740.27,319.28,737.14Z"/><path d="M335.49,726.16c-4.56,1.59-8.3,5.34-8.34,8.47s3.64,4.46,8.2,2.87,8.27-5.5,8.31-8.64S340,724.56,335.49,726.16Z"/><path d="M41.76,749.62c0,3.13,3.76,6.94,8.33,8.39s8.26,0,8.23-3.11-3.78-6.77-8.36-8.23S41.72,746.49,41.76,749.62Z"/><path d="M66.21,757.18c0,3.13,3.78,6.72,8.39,7.91s8.33-.46,8.3-3.59-3.8-6.55-8.41-7.75S66.18,754,66.21,757.18Z"/><path d="M107.66,766.68c0-3.13-3.81-6.33-8.45-7.26s-8.38.77-8.35,3.9,3.8,6.5,8.43,7.43S107.68,769.8,107.66,766.68Z"/><path d="M132.53,770.44c0-3.13-3.81-6.12-8.48-6.78s-8.43,1.25-8.41,4.38,3.81,6.28,8.47,6.94S132.55,773.57,132.53,770.44Z"/><path d="M157.5,772.79c0-3.13-3.81-5.9-8.49-6.3s-8.46,1.73-8.45,4.86,3.81,6.07,8.48,6.46S157.5,775.92,157.5,772.79Z"/><path d="M182.5,773.73c0-3.13-3.8-5.69-8.49-5.82s-8.48,2.21-8.47,5.34,3.8,5.85,8.49,6S182.5,776.85,182.5,773.73Z"/><path d="M207.52,773.25c0-3.13-3.79-5.47-8.47-5.34s-8.49,2.69-8.49,5.82,3.79,5.64,8.48,5.5S207.51,776.37,207.52,773.25Z"/><path d="M224,777.82c4.67-.4,8.47-3.34,8.48-6.46s-3.77-5.26-8.45-4.86-8.48,3.17-8.49,6.3S219.34,778.21,224,777.82Z"/><path d="M248.94,775c4.66-.66,8.45-3.82,8.47-6.94s-3.74-5-8.41-4.38-8.46,3.65-8.48,6.78S244.28,775.65,248.94,775Z"/><path d="M273.77,770.74c4.64-.93,8.41-4.3,8.43-7.43s-3.71-4.83-8.35-3.9-8.43,4.13-8.45,7.26S269.13,771.67,273.77,770.74Z"/><path d="M298.46,765.09c4.61-1.19,8.36-4.78,8.39-7.91s-3.67-4.62-8.28-3.43-8.38,4.62-8.41,7.75S293.85,766.28,298.46,765.09Z"/><path d="M331.3,749.62c0-3.13-3.63-4.41-8.2-3s-8.33,5.1-8.36,8.23,3.66,4.57,8.23,3.11S331.26,752.75,331.3,749.62Z"/><path d="M46.29,767.22c0-3.13-3.77-6.88-8.31-8.47s-8.19-.42-8.15,2.72,3.74,7,8.29,8.63S46.32,770.35,46.29,767.22Z"/><path d="M54.13,769.72c0,3.13,3.77,6.83,8.35,8.15s8.29-.23,8.26-3.35-3.79-6.66-8.37-8S54.1,766.59,54.13,769.72Z"/><path d="M87.06,784.23c4.62,1.06,8.35-.7,8.33-3.83s-3.8-6.44-8.42-7.5-8.34.54-8.31,3.67S82.44,783.17,87.06,784.23Z"/><path d="M111.79,789.17c4.64.8,8.4-1.18,8.38-4.31s-3.81-6.23-8.45-7-8.39,1-8.37,4.15S107.14,788.38,111.79,789.17Z"/><path d="M136.63,792.7c4.66.53,8.44-1.66,8.43-4.79s-3.81-6-8.47-6.54-8.43,1.49-8.42,4.62S132,792.18,136.63,792.7Z"/><path d="M161.56,794.82c4.67.27,8.46-2.14,8.46-5.26s-3.8-5.79-8.48-6.06-8.46,2-8.45,5.1S156.89,794.56,161.56,794.82Z"/><path d="M186.53,795.53c4.68,0,8.47-2.62,8.47-5.74s-3.79-5.58-8.47-5.58-8.47,2.45-8.47,5.58S181.85,795.53,186.53,795.53Z"/><path d="M211.5,794.82c4.67-.26,8.47-3.1,8.47-6.22s-3.77-5.36-8.45-5.1-8.48,2.93-8.48,6.06S206.82,795.09,211.5,794.82Z"/><path d="M236.42,792.7c4.66-.53,8.45-3.58,8.46-6.7s-3.75-5.15-8.42-4.62-8.46,3.41-8.47,6.54S231.76,793.23,236.42,792.7Z"/><path d="M261.27,789.17c4.64-.79,8.42-4.06,8.44-7.18s-3.72-4.94-8.37-4.15-8.44,3.89-8.45,7S256.63,790,261.27,789.17Z"/><path d="M286,784.23c4.62-1.06,8.37-4.54,8.4-7.66s-3.69-4.73-8.31-3.67-8.4,4.37-8.42,7.5S281.38,785.29,286,784.23Z"/><path d="M310.57,777.87c4.58-1.32,8.31-5,8.35-8.15s-3.65-4.52-8.23-3.19-8.34,4.85-8.37,8S306,779.19,310.57,777.87Z"/><path d="M335.09,758.76c-4.55,1.59-8.28,5.33-8.31,8.47s3.63,4.47,8.17,2.88,8.25-5.5,8.29-8.63S339.63,757.17,335.09,758.76Z"/><path d="M42.14,781.93c0,3.13,3.75,6.93,8.31,8.38s8.24,0,8.21-3.12-3.77-6.77-8.33-8.22S42.11,778.79,42.14,781.93Z"/><path d="M83.18,793.77c0-3.13-3.79-6.55-8.39-7.74s-8.29.3-8.26,3.43,3.77,6.72,8.37,7.9S83.21,796.9,83.18,793.77Z"/><path d="M107.87,798.94c0-3.13-3.8-6.33-8.43-7.26s-8.35.78-8.33,3.91,3.79,6.5,8.41,7.42S107.89,802.06,107.87,798.94Z"/><path d="M132.68,802.69c0-3.13-3.8-6.12-8.45-6.78s-8.4,1.26-8.38,4.39,3.79,6.28,8.44,6.94S132.69,805.82,132.68,802.69Z"/><path d="M157.57,805c0-3.13-3.8-5.9-8.47-6.3s-8.44,1.73-8.42,4.86,3.8,6.07,8.46,6.46S157.58,808.16,157.57,805Z"/><path d="M182.51,806c0-3.13-3.79-5.69-8.47-5.82s-8.46,2.21-8.45,5.34,3.79,5.85,8.46,6S182.52,809.09,182.51,806Z"/><path d="M207.46,805.49c0-3.13-3.78-5.47-8.45-5.34s-8.46,2.69-8.47,5.82,3.79,5.64,8.45,5.5S207.45,808.62,207.46,805.49Z"/><path d="M223.92,810.06c4.66-.39,8.45-3.34,8.46-6.46s-3.76-5.26-8.42-4.86-8.46,3.17-8.47,6.3S219.25,810.46,223.92,810.06Z"/><path d="M248.78,807.24c4.65-.66,8.42-3.81,8.44-6.94s-3.73-5-8.38-4.39-8.44,3.65-8.45,6.78S244.13,807.9,248.78,807.24Z"/><path d="M273.54,803c4.63-.92,8.39-4.29,8.41-7.42s-3.7-4.83-8.33-3.91-8.41,4.13-8.43,7.26S268.91,803.93,273.54,803Z"/><path d="M298.16,797.37c4.6-1.19,8.34-4.77,8.37-7.9s-3.66-4.62-8.26-3.43-8.36,4.61-8.39,7.74S293.56,798.56,298.16,797.37Z"/><path d="M322.6,790.31c4.56-1.45,8.27-5.25,8.31-8.38s-3.62-4.41-8.18-3-8.3,5.09-8.33,8.22S318,791.77,322.6,790.31Z"/><path d="M46.66,799.53c0-3.13-3.76-6.87-8.29-8.46s-8.17-.41-8.13,2.72,3.73,7,8.26,8.62S46.7,802.66,46.66,799.53Z"/><path d="M54.49,802c0,3.13,3.76,6.82,8.33,8.14s8.27-.23,8.23-3.36-3.78-6.66-8.35-8S54.46,798.89,54.49,802Z"/><path d="M87.32,816.5c4.61,1.06,8.33-.71,8.3-3.84s-3.79-6.44-8.4-7.5-8.32.54-8.29,3.67S82.72,815.45,87.32,816.5Z"/><path d="M112,821.43c4.63.79,8.38-1.18,8.36-4.31s-3.79-6.22-8.43-7-8.37,1-8.35,4.15S107.36,820.64,112,821.43Z"/><path d="M136.77,825c4.65.53,8.41-1.66,8.4-4.79s-3.8-6-8.45-6.54-8.41,1.5-8.39,4.63S132.12,824.43,136.77,825Z"/><path d="M161.63,827.07c4.66.27,8.44-2.14,8.43-5.26s-3.79-5.79-8.46-6.06-8.44,2-8.43,5.1S157,826.8,161.63,827.07Z"/><path d="M186.53,827.77c4.66,0,8.45-2.62,8.45-5.74s-3.78-5.58-8.45-5.58-8.45,2.45-8.45,5.58S181.87,827.77,186.53,827.77Z"/><path d="M211.43,827.07c4.66-.26,8.45-3.1,8.45-6.22s-3.76-5.37-8.43-5.1S203,818.67,203,821.8,206.77,827.33,211.43,827.07Z"/><path d="M236.29,825c4.65-.53,8.43-3.57,8.44-6.7s-3.74-5.15-8.39-4.63-8.44,3.41-8.45,6.54S231.64,825.48,236.29,825Z"/><path d="M261.07,821.43c4.63-.79,8.39-4.05,8.42-7.18s-3.71-4.94-8.35-4.15-8.42,3.89-8.43,7S256.44,822.22,261.07,821.43Z"/><path d="M285.73,816.5c4.6-1.05,8.35-4.53,8.38-7.66s-3.68-4.73-8.29-3.67-8.37,4.37-8.4,7.5S281.13,817.56,285.73,816.5Z"/><path d="M310.24,810.16c4.57-1.32,8.29-5,8.33-8.14s-3.63-4.52-8.21-3.2-8.32,4.85-8.35,8S305.67,811.48,310.24,810.16Z"/><path d="M334.69,791.07c-4.54,1.59-8.26,5.33-8.29,8.46s3.62,4.47,8.15,2.89,8.22-5.49,8.27-8.62S339.22,789.48,334.69,791.07Z"/><path d="M42.53,814.23c0,3.13,3.74,6.93,8.29,8.38s8.22,0,8.18-3.13-3.76-6.76-8.31-8.22S42.49,811.1,42.53,814.23Z"/><path d="M83.46,826c0-3.13-3.78-6.55-8.37-7.74s-8.27.31-8.24,3.44,3.76,6.71,8.34,7.9S83.49,829.17,83.46,826Z"/><path d="M108.08,831.2c0-3.13-3.79-6.33-8.41-7.25s-8.33.78-8.31,3.91,3.78,6.5,8.39,7.42S108.1,834.33,108.08,831.2Z"/><path d="M132.82,834.94c0-3.13-3.79-6.12-8.43-6.78s-8.38,1.26-8.36,4.39,3.78,6.28,8.42,6.94S132.84,838.07,132.82,834.94Z"/><path d="M157.65,837.28c0-3.13-3.79-5.9-8.44-6.3s-8.42,1.74-8.4,4.87,3.79,6.07,8.44,6.46S157.66,840.41,157.65,837.28Z"/><path d="M182.52,838.21c0-3.13-3.78-5.69-8.44-5.82s-8.43,2.21-8.43,5.34,3.78,5.85,8.44,6S182.53,841.34,182.52,838.21Z"/><path d="M207.41,837.74c0-3.13-3.77-5.47-8.43-5.34s-8.44,2.69-8.44,5.82,3.77,5.64,8.43,5.5S207.4,840.86,207.41,837.74Z"/><path d="M223.82,842.31c4.65-.39,8.42-3.33,8.44-6.46s-3.75-5.26-8.4-4.86-8.44,3.17-8.44,6.3S219.16,842.71,223.82,842.31Z"/><path d="M248.61,839.5c4.64-.66,8.4-3.81,8.42-6.94s-3.72-5-8.36-4.39-8.42,3.65-8.43,6.78S244,840.16,248.61,839.5Z"/><path d="M273.3,835.27c4.61-.92,8.36-4.29,8.39-7.42s-3.69-4.84-8.31-3.91S265,828.07,265,831.2,268.69,836.2,273.3,835.27Z"/><path d="M297.86,829.65c4.58-1.18,8.31-4.77,8.35-7.9s-3.65-4.62-8.24-3.44-8.34,4.6-8.37,7.74S293.28,830.83,297.86,829.65Z"/><path d="M322.24,822.61c4.55-1.45,8.25-5.25,8.29-8.38s-3.61-4.41-8.16-3-8.28,5.08-8.31,8.22S317.69,824.06,322.24,822.61Z"/><path d="M47,831.83c0-3.13-3.75-6.87-8.27-8.45s-8.14-.4-8.1,2.73,3.72,7,8.24,8.61S47.07,835,47,831.83Z"/><path d="M63.15,842.45c4.56,1.32,8.24-.24,8.21-3.37s-3.77-6.65-8.33-8-8.23.07-8.19,3.21S58.59,841.14,63.15,842.45Z"/><path d="M87.59,848.77c4.59,1.05,8.3-.71,8.28-3.84s-3.78-6.44-8.38-7.49-8.29.55-8.26,3.68S83,847.72,87.59,848.77Z"/><path d="M112.19,853.69c4.62.79,8.36-1.19,8.34-4.31s-3.79-6.22-8.41-7-8.35,1-8.32,4.15S107.57,852.9,112.19,853.69Z"/><path d="M136.9,857.2c4.64.53,8.39-1.66,8.38-4.79s-3.78-6-8.43-6.54-8.39,1.5-8.37,4.63S132.27,856.68,136.9,857.2Z"/><path d="M161.7,859.31c4.65.26,8.41-2.14,8.41-5.27s-3.78-5.79-8.43-6.06-8.42,2-8.41,5.1S157,859,161.7,859.31Z"/><path d="M186.53,860c4.65,0,8.43-2.62,8.43-5.74s-3.77-5.58-8.43-5.58-8.43,2.45-8.43,5.58S181.88,860,186.53,860Z"/><path d="M211.36,859.31c4.65-.26,8.42-3.09,8.43-6.22s-3.75-5.37-8.41-5.1S203,850.92,203,854,206.71,859.57,211.36,859.31Z"/><path d="M236.16,857.2c4.64-.52,8.4-3.57,8.42-6.7s-3.73-5.15-8.37-4.63-8.42,3.41-8.43,6.54S231.52,857.73,236.16,857.2Z"/><path d="M260.87,853.69c4.62-.79,8.37-4,8.39-7.18s-3.7-4.94-8.32-4.15-8.39,3.88-8.41,7S256.25,854.48,260.87,853.69Z"/><path d="M285.47,848.77c4.59-1.05,8.33-4.53,8.36-7.65s-3.67-4.73-8.26-3.68-8.35,4.36-8.38,7.49S280.87,849.83,285.47,848.77Z"/><path d="M309.91,842.45c4.56-1.31,8.27-5,8.31-8.13s-3.62-4.52-8.19-3.21-8.3,4.84-8.33,8S305.35,843.77,309.91,842.45Z"/><path d="M334.29,823.38c-4.52,1.58-8.23,5.32-8.27,8.45s3.61,4.47,8.13,2.89,8.2-5.48,8.24-8.61S338.81,821.8,334.29,823.38Z"/><path d="M59.35,851.78c0-3.13-3.75-6.76-8.29-8.21s-8.18-.16-8.14,3,3.73,6.93,8.27,8.37S59.38,854.91,59.35,851.78Z"/><path d="M83.74,858.32c0-3.13-3.77-6.54-8.34-7.73s-8.25.31-8.22,3.45,3.75,6.71,8.32,7.89S83.76,861.45,83.74,858.32Z"/><path d="M108.29,863.46c0-3.13-3.77-6.33-8.38-7.25s-8.31.79-8.28,3.92,3.77,6.49,8.37,7.41S108.31,866.59,108.29,863.46Z"/><path d="M133,867.2c0-3.13-3.78-6.11-8.41-6.77s-8.36,1.26-8.34,4.39,3.77,6.28,8.4,6.93S133,870.32,133,867.2Z"/><path d="M157.73,869.53c0-3.13-3.78-5.9-8.42-6.3s-8.39,1.74-8.38,4.87,3.78,6.06,8.41,6.46S157.74,872.65,157.73,869.53Z"/><path d="M182.54,870.45c0-3.13-3.77-5.69-8.42-5.82s-8.41,2.21-8.41,5.34,3.77,5.85,8.42,6S182.54,873.58,182.54,870.45Z"/><path d="M207.35,870c0-3.13-3.76-5.47-8.41-5.34s-8.42,2.69-8.42,5.82,3.76,5.64,8.41,5.5S207.34,873.1,207.35,870Z"/><path d="M232.13,868.1c0-3.13-3.74-5.26-8.38-4.87s-8.42,3.17-8.42,6.3,3.75,5.42,8.39,5S232.12,871.23,232.13,868.1Z"/><path d="M256.84,864.82c0-3.13-3.71-5-8.34-4.39s-8.39,3.64-8.41,6.77,3.73,5.21,8.35,4.55S256.82,867.94,256.84,864.82Z"/><path d="M281.44,860.13c0-3.13-3.68-4.84-8.28-3.92s-8.36,4.12-8.38,7.25,3.7,5,8.3,4.08S281.41,863.26,281.44,860.13Z"/><path d="M305.88,854c0-3.13-3.64-4.63-8.22-3.45s-8.32,4.6-8.34,7.73,3.67,4.79,8.24,3.61S305.85,857.17,305.88,854Z"/><path d="M330.14,846.54c0-3.13-3.6-4.42-8.14-3s-8.26,5.08-8.29,8.21,3.63,4.58,8.16,3.13S330.1,849.67,330.14,846.54Z"/><path d="M39.17,855.69c-4.51-1.58-8.12-.4-8.08,2.74s3.71,7,8.22,8.61,8.14.23,8.11-2.9S43.68,857.26,39.17,855.69Z"/><path d="M63.37,863.4c-4.55-1.31-8.2.08-8.17,3.21s3.74,6.82,8.28,8.13,8.22-.24,8.19-3.37S67.92,864.72,63.37,863.4Z"/><path d="M87.76,869.71c-4.59-1-8.27.55-8.24,3.68s3.75,6.6,8.34,7.65,8.28-.72,8.26-3.85S92.35,870.76,87.76,869.71Z"/><path d="M112.32,874.62c-4.61-.79-8.32,1-8.3,4.16s3.77,6.39,8.37,7.17,8.33-1.19,8.32-4.32S116.93,875.41,112.32,874.62Z"/><path d="M137,878.13c-4.63-.52-8.36,1.5-8.35,4.63s3.77,6.17,8.4,6.69,8.37-1.67,8.36-4.79S141.62,878.65,137,878.13Z"/><path d="M161.74,880.23c-4.64-.26-8.39,2-8.38,5.11s3.77,6,8.41,6.22,8.39-2.14,8.39-5.27S166.38,880.5,161.74,880.23Z"/><path d="M186.53,880.93c-4.64,0-8.41,2.45-8.4,5.58s3.77,5.74,8.4,5.74,8.4-2.62,8.4-5.74S191.17,880.93,186.53,880.93Z"/><path d="M211.32,880.23c-4.64.26-8.41,2.93-8.41,6.06s3.75,5.53,8.39,5.27,8.4-3.09,8.41-6.22S216,880,211.32,880.23Z"/><path d="M236.07,878.13c-4.63.53-8.4,3.4-8.41,6.53s3.74,5.32,8.36,4.79,8.38-3.57,8.4-6.69S240.7,877.6,236.07,878.13Z"/><path d="M260.74,874.62c-4.61.79-8.37,3.88-8.39,7s3.71,5.11,8.32,4.32,8.35-4,8.37-7.17S265.35,873.83,260.74,874.62Z"/><path d="M285.29,869.71c-4.59,1.05-8.33,4.36-8.35,7.49s3.68,4.9,8.26,3.85,8.31-4.52,8.34-7.65S289.88,868.66,285.29,869.71Z"/><path d="M309.69,863.4c-4.55,1.31-8.28,4.83-8.31,8s3.65,4.69,8.19,3.37,8.25-5,8.28-8.13S314.24,862.09,309.69,863.4Z"/><path d="M333.89,855.69c-4.51,1.58-8.21,5.31-8.25,8.44s3.6,4.48,8.11,2.9,8.18-5.47,8.22-8.61S338.4,854.11,333.89,855.69Z"/></svg>