<?xml version="1.0" encoding="UTF-8"?>
<svg width="300px" height="300px" viewBox="0 0 300 300" version="1.1" xmlns="http://www.w3.org/2000/svg" xmlns:xlink="http://www.w3.org/1999/xlink">
    <title>Echo logo</title>
    <g id="Echo-logo" stroke="none" stroke-width="1" fill="none" fill-rule="evenodd">
        <path d="M150,300 C67.1572875,300 0,232.842712 0,150 C0,67.1572875 67.1572875,0 150,0 C232.842712,0 300,67.1572875 300,150 C300,232.842712 232.842712,300 150,300 Z M136.099283,248.791072 C189.870465,256.883296 245.33929,217.850403 249.615659,156.326121 C253.256993,103.944378 214.003708,54.1087934 156.291386,50.3669694 C97.2438445,46.5391992 50.2069483,94.0428582 50.1506554,149.739222 C50.0949949,205.065259 93.9383713,243.412477 133.819101,248.288665 C133.855154,247.924026 133.922832,247.560018 133.922832,247.196642 C133.925995,240.816393 134.063881,234.43172 133.872232,228.057158 C133.725491,223.181602 131.654668,219.01447 127.766657,216.008877 C125.890646,214.559165 123.711665,213.443759 121.552924,212.425043 C112.463822,208.134679 104.557504,202.333304 98.0161336,194.665124 C92.4475561,188.137629 88.0820039,180.915611 85.3021427,172.811381 C82.3622576,164.242661 80.7348212,155.435693 81.6057811,146.324121 C81.9536591,142.681514 82.2408166,139.00099 83.0099431,135.43485 C85.8676025,122.184585 92.202144,110.794804 101.850381,101.243389 C106.36141,96.7786048 111.38793,93.0165582 116.928045,89.9319707 C125.650927,85.0753726 135.040469,82.3370982 144.955624,81.5970752 C150.259182,81.2014694 155.578552,81.4599403 160.880212,82.324459 C175.035683,84.6336339 187.181052,90.8799079 197.535797,100.676522 C202.082879,104.978893 205.883604,109.90943 209.051191,115.314568 C214.448992,124.524094 217.631759,134.461635 218.36167,145.09433 C218.746233,150.696007 218.431246,156.306531 217.666547,161.910735 C216.448974,170.831456 213.964493,179.354675 210.240933,187.50883 C202.53512,204.389063 190.960904,218.177757 176.148893,229.262303 C164.990232,237.612997 152.676617,243.741095 139.314941,247.747709 C138.329497,248.042834 137.356704,248.382195 136.099283,248.791072 Z" id="Oval-2" fill="#000000"></path>
    </g>
</svg>