<svg id="Layer_1" data-name="Layer 1" xmlns="http://www.w3.org/2000/svg" viewBox="0 0 939.95 911.84"><path d="M370.15,52.37C307.81,78,261.83,121.2,233.48,180.7c-47.94,100.67-39,200-23.07,265.54A487.07,487.07,0,0,0,252,556.79c16.18,31,34.91,58.4,54.15,79.38C307.79,638,351,687.36,419.05,729c40.57,24.85,81.92,42.2,122.9,51.55a319.89,319.89,0,0,0,71.29,8.18A301.63,301.63,0,0,0,693.18,778c136.36-37.34,187.45-135,206.29-210.27.22-.85.42-1.67.62-2.51a396.21,396.21,0,0,0,8.65-52.69c3.36-35.61-.21-83.39-2.57-103.68-5.39-46.41-19.91-92.55-43.16-137.14a465.66,465.66,0,0,0-88.78-118.63C698.27,79.27,603,34.81,505.81,27.89h-.15C484.35,27.24,428.53,28.35,370.15,52.37ZM769,158.44a458.18,458.18,0,0,1,87.36,116.72c22.83,43.78,37.08,89,42.36,134.54,2.33,20,5.85,67.13,2.55,102.11a388.7,388.7,0,0,1-8.49,51.68c-.18.77-.36,1.53-.58,2.36-18.36,73.39-68.13,168.51-201,204.9-47.76,13.08-97.37,13.93-147.45,2.53-40.16-9.15-80.74-26.15-120.59-50.54-68-41.64-110.91-91-111.33-91.51l-.08-.09c-18.82-20.51-37.17-47.42-53.07-77.83a479.55,479.55,0,0,1-41-108.85C202,380.08,193.25,282.61,240.25,183.93,267.77,126.16,312.44,84.23,373,59.31c50.79-20.9,99.62-24,124.41-24,3,0,5.68,0,7.94.11C600.71,42.19,694.33,85.89,769,158.44Z"/><path d="M324.18,245.35c-34.36,72.15-28,143.3-16.54,190.27,12.68,52.18,38.33,103,68.62,136.05,1.36,1.56,32.29,36.76,80.81,66.48,29.06,17.8,58.69,30.23,88.06,36.93A229.52,229.52,0,0,0,596.26,681a216.39,216.39,0,0,0,57.34-7.72c97.85-26.8,134.5-96.86,148-150.87.16-.61.3-1.21.45-1.81a284,284,0,0,0,6.2-37.76c3-31.87-1.64-72.53-1.84-74.24-3.86-33.26-14.26-66.32-30.93-98.27a333.5,333.5,0,0,0-63.58-85c-54.4-52.86-122.68-84.7-192.28-89.66h-.15c-15.28-.46-55.31.34-97.17,17.57C377.55,171.63,344.54,202.63,324.18,245.35ZM513.56,143.06c2.13,0,4,0,5.63.08C587,148,653.58,179.08,706.69,230.69a326,326,0,0,1,62.16,83.05c16.24,31.13,26.37,63.32,30.13,95.67,1.65,14.26,4.17,47.8,1.82,72.67a276.19,276.19,0,0,1-6,36.74c-.13.54-.26,1.08-.41,1.68C781.32,572.62,746,640.17,651.62,666c-33.91,9.29-69.13,9.89-104.7,1.8-28.55-6.5-57.4-18.59-85.75-35.93-48.44-29.63-79-64.79-79.28-65.14l-.08-.09c-22.76-24.81-52.29-72.72-66.89-132.79-11.13-45.8-17.39-115.12,16-185.28,19.53-41,51.23-70.74,94.21-88.43C461.25,145.3,495.95,143.06,513.56,143.06Z"/><path d="M324.35,431.23c11.9,49.22,36,97.2,64.38,128.36,1.31,1.51,30.33,34.7,75.82,62.72,27.27,16.8,55.07,28.52,82.63,34.85a214.17,214.17,0,0,0,48,5.54A202,202,0,0,0,649,655.41C740.84,630.11,775.25,564,787.93,513c.15-.58.28-1.14.42-1.71a269.43,269.43,0,0,0,5.82-35.62c2.82-30.09-1.54-68.42-1.72-70h0c-3.62-31.38-13.38-62.58-29-92.72a314.5,314.5,0,0,0-59.65-80.16c-51-49.87-115.12-79.92-180.42-84.6h-.15c-14.33-.44-51.91.32-91.21,16.58-42,17.39-73,46.65-92.12,87C307.63,319.78,313.63,386.9,324.35,431.23ZM434.86,171.65c33.79-14,66.28-16.09,82.78-16.09,2,0,3.76,0,5.26.08,63.51,4.57,125.89,33.86,175.64,82.48a307,307,0,0,1,58.24,78.25C772,345.69,781.48,376,785,406.49h0c1.55,13.43,3.9,45,1.71,68.47A261.7,261.7,0,0,1,781,509.58c-.12.51-.24,1-.38,1.58-12.21,49.08-45.31,112.69-133.66,137-31.75,8.75-64.73,9.32-98,1.7-26.74-6.12-53.76-17.5-80.31-33.84-45.39-27.92-74-61-74.28-61.38l-.08-.09c-21.32-23.37-49-68.51-62.66-125.11-10.43-43.15-16.29-108.45,15-174.55C364.94,216.32,394.61,188.31,434.86,171.65Z"/><path d="M484.95,111.18a14.79,14.79,0,0,0,3.06-.32,13.79,13.79,0,0,0,10.71-9.66l.06-.2a18.28,18.28,0,0,0,.54-2.39A25,25,0,0,0,499.5,94c-.5-8.89-8.12-17.07-17-18.23l-.15,0c-4.62-.42-10.67,1.17-13.81,6.87-4.39,8-1.11,17,2,20.86C471.15,104.3,476.77,111.18,484.95,111.18Zm1.56-15.68a4.6,4.6,0,0,1-.12.54l0,.1a2.05,2.05,0,0,1-1.72,1.52c-2.08.42-4.12-2-4.12-2l-.07-.09c-.54-.67-1.74-3.29-.58-5.4A2.3,2.3,0,0,1,482,89.2a5.76,5.76,0,0,1,4.54,4.92h0A8.6,8.6,0,0,1,486.51,95.5Z"/><path d="M932.23,521.23c4.51-47.22-2.46-107.33-2.76-109.87-5.81-49.3-21.46-98.29-46.53-145.63a494.42,494.42,0,0,0-95.58-125.79C713.88,69.63,623.54,24.44,530,10.67c-6.43-1.77-18.3-3.07-31.93-3.47-9.6-.67-19.26-1-28.72-1a473.4,473.4,0,0,0-180,35.11,462.22,462.22,0,0,0-147,95.78A445.19,445.19,0,0,0,43.2,279.24,431.71,431.71,0,0,0,6.81,453.09c-.47,5.6-4.6,64.25,18.75,142.4A470.6,470.6,0,0,0,88.79,727.67c34.78,50.57,80,95,134.27,132.17,3.69,2.63,65.61,44.31,266.36,44.31,84.88,0,150.19-7.35,194.12-21.86,29.05-9.59,39.51-19.41,42.65-23.18,57-42.29,103.3-90.77,137.55-144.09a445.91,445.91,0,0,0,58.47-135h0c.25-.93.46-1.82.67-2.67a372.52,372.52,0,0,0,9.34-56v-.08ZM869.69,272.75c24.19,45.69,39.3,92.92,44.89,140.37,2.47,20.95,6.22,70.21,2.72,106.73a399.93,399.93,0,0,1-9,53.9h0c-.19.78-.37,1.56-.61,2.44-19.39,76.34-72,175.29-212.37,213.16C644.86,803,592.42,803.86,539.48,792c-42.55-9.53-85.55-27.26-127.82-52.71-72.31-43.54-117.9-95.23-118.35-95.74l-.16-.18C273.24,622,253.81,593.93,237,562.2a496.54,496.54,0,0,1-43.49-113.77c-16.59-67.21-25.91-168.93,23.85-271.84,29-60,76.16-103.55,140.07-129.45,60.22-24.4,117.84-25.59,140-24.95C598.49,29.32,697.78,75,777,150.78A479.42,479.42,0,0,1,869.69,272.75ZM716.44,847.66l-1,.52-.72,1.24c-.89,1-9.56,10.48-39.67,19.83-52.93,16.44-130.17,19.89-185.65,19.89-56.73,0-138.08-3.61-203.48-20.79-39.09-10.27-54.06-20.66-54.17-20.74l-.17-.12c-52.69-36-96.49-79.07-130.2-128A455.58,455.58,0,0,1,40.12,591.83C21.42,529.57,19.95,474.5,21.78,454.09l0-.68A416.83,416.83,0,0,1,56.94,285.25a430.27,430.27,0,0,1,95.87-137.39A447.28,447.28,0,0,1,295.09,55.18q18.5-7.56,37.51-13.45c-57.8,28-101.07,71-128.79,128.32C152.1,277,161.72,382.42,178.9,452a511.57,511.57,0,0,0,44.81,117.21c17.43,32.83,37.62,62,58.39,84.28,2.85,3.25,48.08,54.14,121.45,98.4,43.69,26.36,88.23,44.75,132.4,54.68a350.49,350.49,0,0,0,77,8.7,330.45,330.45,0,0,0,86.33-11.45c52.9-14.27,97.72-38,133.72-70.69C801.9,774.95,762.83,813.37,716.44,847.66Z"/></svg>