<?xml version="1.0" encoding="utf-8"?>
<!-- Generator: Adobe Illustrator 21.0.0, SVG Export Plug-In . SVG Version: 6.00 Build 0)  -->
<svg version="1.1" id="Layer_1" xmlns="http://www.w3.org/2000/svg" xmlns:xlink="http://www.w3.org/1999/xlink" x="0px" y="0px"
	 viewBox="0 0 2959.2 1906.3" style="enable-background:new 0 0 2959.2 1906.3;" xml:space="preserve">
<style type="text/css">
	.st0{fill:#231F20;}
</style>
<g>
	<path d="M2115.4,887.6c-2.9-31.4-38.3-66.6-92.5-91.9L861.1,257.6c-62.7-29.1-165.8-35.1-239.8-14l-69,20.6
		c-41,13-65.2,33-68.1,56.4c-2,15.6,4.8,40,48.5,67.2l249.8,151.8c225.4,136.9,450.7,273.9,676,410.8l180.9,109.9
		c43.9,25.4,88.6,38.3,133,38.3c52,0,104.5-17.7,156-52.7l169.2-121.1C2110.7,915.5,2116.8,902.7,2115.4,887.6z M2092.7,917.9
		l-169.2,121.1c-92.8,63-187,67.7-279.8,14L1451.4,936C1230,801.4,1008.5,666.8,787,532.3L537.2,380.5c-31.5-19.7-46.9-40-44.5-58.9
		c2.5-19.9,24.6-37.5,62.2-49.3l68.8-20.5c72.2-20.6,172.8-14.7,233.8,13.6l1161.8,538.2c51.4,24,84.9,56.5,87.6,84.9
		C2108,900.3,2103.1,910.4,2092.7,917.9z"/>
	<path d="M806.6,277.7c-2.2-1.1-4.4-2.1-6.6-3.2l-1.2-0.5l-1.2,0.4c-11.2,3.6-22.7,7.2-34,10.8l-13,4.1c-7.2,2.3-14.5,4.6-21.7,6.9
		l-7.6,2.4l17.6,9l78-24.8L806.6,277.7z"/>
	<path d="M563.5,312.3l-1.2-0.7l-29,8.9l6.4,3.8c3.8,2.2,7.6,4.4,11.3,6.6c3.8,2.2,7.6,4.4,11.3,6.6l1.2,0.7l1.4-0.4
		c6-1.8,11.9-3.7,17.8-5.5l10.1-3.2l-7.5-4.3C578,320.6,570.7,316.4,563.5,312.3z"/>
	<path d="M632.9,351.9l-1.2-0.7l-29.4,9.4l6.3,3.7c8.1,4.8,16.4,9.5,24.8,14.4l1.3,0.7l29.6-9.7l-6.4-3.7
		C649.4,361.3,641.1,356.6,632.9,351.9z"/>
	<path d="M984.1,373.1c-8.5,3-17.1,6-25.7,9.1l-43.5,15.4l19.4,9.9l81.1-28.8l-19.8-9.6L984.1,373.1z"/>
	<path d="M834.5,466.8l-10.6-6l-30.2,10.9l17,9.8c6.4,3.7,12.9,7.5,19.3,11.2l1.3,0.8l1.4-0.5c7.5-2.8,15-5.5,22.4-8.3l6.5-2.4
		l-6-3.5C848.5,474.8,841.5,470.8,834.5,466.8z"/>
	<path d="M709.3,422.8l35.3,20.4l4.6-1.6c6.2-2.2,12.4-4.4,18.7-6.5l6.8-2.4l-35.5-20.2L709.3,422.8z"/>
	<path d="M972.4,545.4l-16.3-9.3l-30.6,12l5.8,3.4c11.4,6.6,22.8,13.3,34.2,19.9l1.4,0.8l30.9-12.4l-5.8-3.3
		C985.4,552.8,978.9,549.1,972.4,545.4z"/>
	<path d="M1078.5,605.9l-17.3-9.9l-1.5,0.6c-6.8,2.8-13.5,5.6-20.3,8.5l-9.2,3.9l16.7,9.7c8.9,5.2,17.7,10.3,26.7,15.5l1.4,0.8
		l11.7-5c4.5-1.9,8.9-3.8,13.4-5.7l6-2.6l-5.7-3.3C1093.2,614.3,1085.8,610.1,1078.5,605.9z"/>
	<path d="M1240.6,502.4l16.6-6.8l-22.2-10.7l-83.7,33.8l9.1,4.6c3.8,1.9,7.6,3.9,11.4,5.8l1.3,0.7l1.4-0.6
		c12.8-5.2,25.5-10.4,38.3-15.6C1222.2,509.9,1231.4,506.2,1240.6,502.4z"/>
	<path d="M1363.1,768.1l-1.5-0.9l-1.6,0.8c-6.7,3.3-13.4,6.6-20.1,9.9l-10,5l26.5,15.4c9.1,5.3,18.2,10.6,27.3,15.9l1.5,0.9l7.3-3.7
		c6.4-3.2,12.7-6.5,19.2-9.7l5.4-2.7l-5.3-3C1395.6,786.6,1379.3,777.4,1363.1,768.1z"/>
	<path d="M1196.1,705.3l50.6,29.3l3.1-1.5c7.5-3.6,15.1-7.2,22.7-10.7l5.7-2.7l-50.8-28.9L1196.1,705.3z"/>
	<path d="M1558.6,641.4l-25.4-12.3l-86,41l5.8,3c5.2,2.7,10.8,5.6,16.4,8.4l2.7,1.4l1.5-0.7c12.2-5.8,24.1-11.6,36-17.3l5.7-2.7
		c12.4-6,24.8-11.9,37.2-17.9L1558.6,641.4z"/>
	<path d="M1912.9,814.4c-8.6,5-17.1,10.1-25.7,15.2l-27.4,16.2c-9.1,5.3-18.2,10.7-27.2,16.1l-5.1,3l13.4,6.9
		c5,2.6,10.1,5.2,15.3,7.8l1.6,0.8l1.6-0.9c13.6-8.2,27.2-16.4,40.6-24.4c13.4-8,26.6-15.9,39.8-23.8l5.2-3.1l-30.5-14.7
		L1912.9,814.4z"/>
	<path d="M1752.1,991.9c-4.9,3-9.8,6-14.7,9.1l-15.4,9.5l4.7,2.7c21.7,12.6,43.3,25.2,65.4,37.9l1.7,1l31.9-20.4l-71.9-40.9
		L1752.1,991.9z"/>
	<path d="M1605.7,906.4l-28.6-16.3l-4.2,2.4c-7.6,4.2-15.1,8.4-22.6,12.6l-4.7,3l4.9,2.9c18.9,11,37.9,22,57.3,33.2l1.6,0.9l1.6-0.9
		c8.5-4.9,16.9-9.8,25.3-14.6l4.9-2.8l-4.9-2.8C1626,918,1615.9,912.2,1605.7,906.4z"/>
</g>
<g id="XMLID_2_">
	<path class="st0" d="M2766.3,1546.2c11.4,6.5,4.2,33.6-8.4,55.7c-6.7,11.7-14.6,21.9-22.2,28.6c-7.2,6.3-12.5,8.2-16.4,8.2
		c-2.1,0-3.7-0.6-5-1.3c-3.7-2.1-7.6-7.6-4.9-21.9c1.9-10,6.6-22,13.3-33.7c6.7-11.7,14.6-21.9,22.2-28.6
		C2755.8,1543.5,2762.6,1544,2766.3,1546.2z M2752.2,1598.6c10.8-18.9,14.3-34.9,13.1-42.4c-4-1-10.4,2.7-17.8,10.5
		c-7.4,7.6-13.9,17.3-16.4,21.6c-12.7,22.1-14.6,40.2-10.5,43.4c0,0,0.2,0.2,0.4,0.3c2.5-0.6,6-2.4,10.4-6.4
		C2738.4,1619.3,2745.9,1609.7,2752.2,1598.6z"/>
</g>
<path class="st0" d="M2572.2,1358.3c-17.2-25.5-52.3-45.2-93.9-52.8c-65.2-11.8-125.1,11-133.5,50.9c-0.1,0.5-0.2,1-0.3,1.5
	c-2.3,13.1,1.1,26.8,9.8,39.8c17.2,25.5,52.3,45.2,93.8,52.8c11.7,2.1,23.1,3.1,34.2,3.1c42,0,77.7-14.5,92.7-38.1l0.1,0
	c0.3-0.5,0.5-0.9,0.7-1.4c0,0,0,0,0-0.1c2.7-4.6,4.6-9.4,5.7-14.5C2584.5,1386,2581.2,1371.7,2572.2,1358.3z M2449.4,1444
	c-39.3-7.1-73.6-26.3-89.6-50c-7.7-11.4-10.7-23.2-8.9-34.5h0.1v-0.3c2-9.7,7.5-18.4,16.2-25.8c17.3-14.9,45.4-23,76.4-23
	c10.8,0,21.9,1,33,3c39.2,7.1,73.4,26.3,89.3,50c8.1,12,11,24.5,8.6,36.3c-0.8,4.1-2.4,8.2-4.6,12c-0.1,0.2-0.2,0.4-0.3,0.5h-0.1
	v0.1C2552,1439.7,2502.8,1453.7,2449.4,1444z"/>
<path class="st0" d="M2890.7,1198.5c-8.8-12.5-19.8-18.3-33.7-17.9c-15.5,0.5-28.4,2.1-38.3,4.6c-8.1,2.3-12.5,5.6-13.3,10.1
	c-0.5,2.9,0.4,5.9,3,9l-0.5,0.2l4.2,3.7c0,0,0,0,0,0l0,0c0.3,0.2,0.6,0.4,0.8,0.7c0.5,0.4,1,0.9,1.6,1.3l0.3,0.2
	c19.1,11.6,37.8,17.5,55.8,17.5c0,0,0,0,0,0c0,0,0,0,0,0c0.8,0,1.7,0,2.5,0c1.7-0.1,3.3-0.1,5-0.3c0.2,0,0.4,0,0.6-0.1
	c1.4-0.1,2.7-0.3,3.9-0.4c0.1,0,0.2,0,0.4-0.1c1.1-0.2,2.2-0.4,3.3-0.6c0.2,0,0.3-0.1,0.5-0.1c0.8-0.2,1.6-0.5,2.3-0.7
	c0.2-0.1,0.5-0.1,0.7-0.2l3.5-1.4l-0.2-0.3c1.5-1,2.8-2.4,3.6-4C2899.2,1214.6,2897.3,1207.9,2890.7,1198.5z M2890.9,1216.7
	c-0.2,0.4-0.6,0.8-1.1,1.2c-0.6-0.9-1.2-1.9-1.9-2.8c-8.8-12.5-19.9-18.4-33.7-17.9c-15.5,0.5-28.4,2.1-38.3,4.6
	c-0.3,0.1-0.5,0.2-0.8,0.2c-3.3-3.2-3.4-5-3.3-5.5c0.1-0.6,1.1-2.9,8.6-5c9.4-2.4,21.8-3.9,36.8-4.4c11.5-0.3,20.8,4.5,28.2,15.1
	C2891.8,1211.4,2891.6,1215.2,2890.9,1216.7z"/>
<path class="st0" d="M2957.4,1298.5c0-0.4-0.1-0.7-0.3-1.2l0-0.1c-0.7-1.1-1.5-2.1-2.5-2.9c0.4-1.2,0.8-2.5,1.2-3.7
	c0.4-1.1,0.8-2.2,1.1-3.4c0.1-0.2,0.2-0.4,0.2-0.7l0.1-0.4c2.1-8.1,2.5-16.6,1.3-25.5c-8-58.5-87.4-130.7-202.3-183.9L959.6,244.4
	c-180.8-83.7-341.4-158.1-485-224.6C429.9-0.9,348.8-6.2,290,7.8L69.7,60.4c-41,9.7-66.3,26.5-69.4,46.1c-0.7,4.3-0.2,8.7,1.3,13
	c3.6,10.7,7.4,21.4,11.5,32.7l-0.2,0.5l0.5,0.5C81.8,339,153.7,406.7,190.4,430.5l660.8,456.3c118.5,81.8,249.1,172,393.9,272
	c153.1,105.8,322.1,222.5,509.5,351.8l412.5,284.9c99.9,69,176.8,111.7,251.7,111.7h2.5c70.7-0.9,139.4-41,229.6-134.2
	c15.6-16.1,38.7-41.4,61-65.9l1.2-1.3c19.8-21.7,44.3-48.7,59.5-64.4l0.4-0.4c53.2-66.9,99.1-143.6,136.3-228c0.9,0.2,1.5,0.2,2.9,0
	c0.5-0.1,1-0.3,1.3-0.6c5.8-4.4,6.7-5.2,11.4-10.6c0.2-0.3,0.4-0.6,0.5-1.1h0c0.4-1.3,1.5-6.4,1.9-10.6c2.6,0.8,4.9,0.7,7-0.4
	l1.1-0.9c4.2-5.6,4.9-6.7,8-13.5l0.2-0.3l0-0.5c0-0.1,0.1-0.3,0.2-0.4l0.1-0.3c0.8-1.9,2.3-5.6,1.8-10.9c1.3-0.3,2.5-1,3.6-2
	l0.6-0.9c2.5-6.4,2.9-7.6,4-15.5c0-0.3,0.2-2,0.4-4c0.4-3.9,0.6-5.1,0.5-5.6c0.1-0.8,0.3-1.7,0.4-2.7l0.2-1.3c0-0.3,0-0.6-0.1-1.2
	c0,0,0,0,0-0.1c0.1-0.1,0.1-0.2,0.2-0.3l0.4-1c1.5-6.3,1.7-8.3,1.8-14.5l0-1.3C2958.2,1306.6,2958.2,1305.2,2957.4,1298.5z
	 M764.7,800.8c464.4,318,944.7,646.8,1410,948.4c114.7,74.4,189.8,105.8,259.2,108.6c66.9,2.7,130.1-23.3,196.5-81.6
	c-82.1,82.2-145.2,117.8-209.2,118.6c-51.9,0.8-113.6-17.4-247-109.5l-412.5-284.9c-364.5-251.7-659.6-455.5-903.4-623.8l-661-456.4
	c-13-8.4-26.2-19.6-39.4-33.5C361.4,524.7,566.2,664.9,764.7,800.8z M2660,1735.1c-160.6,166.2-282.9,134.5-480.4,6.4
	c-465.1-301.4-945.1-630.1-1409.4-948l-0.6-0.4C561.7,650.7,346.8,503.6,135.2,360.3c-37.1-47.6-73-115-103.9-195.2
	c198.3,120.6,435.7,264.8,724.2,440.1c146.5,89,309.8,188.2,493.1,299.7c275.5,167.4,596.2,362.3,973.2,591.3
	c101.9,61.9,222.4,98.9,322.3,98.9c57.9,0,103.4-12.8,131.7-36.9l247-210.7c-1.5,3.9-3,7.7-4.5,11.6c-6.5,8.4-14.1,16.1-22.7,22.8
	l-0.5,0.4v0c-0.7,0.7-0.9,1.7-0.6,2.4c0,0.4,0,1.2,0,2.3c0,7.8,0.2,15.6,3.9,18.8c0.1,0.1,0.2,0.2,0.3,0.2
	c-36.9,84-82.5,160.3-135.3,226.8c-10.6,10.9-25.3,26.9-36.8,39.5C2702.4,1694.7,2672.8,1721.9,2660,1735.1z M2939.9,1361.6
	l-1.4-0.1c-0.3,0.9-0.7,1.6-1.1,2.3c-0.1,0.1-0.1,0.3-0.1,0.4l-0.6,0.9c-0.1,0.2-0.2,0.4-0.4,0.7l-0.7,1.1c-0.3,0.5-0.6,1-1,1.5
	l-0.5,0.3v0.4l-1.2,1.6c-1.8,0.4-4.4-0.9-7.1-2.4l-3.8-2l-2.6,3.3c-0.7,0.9-1.4,1.8-2.2,2.6l-1.5,1.7l2.3,3.5
	c1.3,1.9,2.7,3.9,3.2,5.7c0.2,0.5,0.3,0.9,0.2,1.4c-1.9,2.4-2.6,3.2-3.3,3.9l-0.4,0.4c-0.7,0.6-1.3,1.2-2.2,1.9
	c-0.1,0.1-0.2,0.2-0.3,0.3c-0.1,0.1-0.2,0.2-0.5,0.4l-2.3,1.8c-0.4,0-0.8-0.2-1.4-0.4c-2.1-0.9-4.8-3.1-7.6-6.2l-0.4-0.5
	c-0.4-0.4-0.8-0.9-1.2-1.4c11.8-9.6,21.8-21.2,29.7-34.1l1.4,1.4c0.6,0.6,1.2,1.2,1.9,1.8l2.6,2.6c0.5,0.5,0.9,1,1.2,1.5
	c0.1,0.2,0.2,0.3,0.3,0.5l0.3,0.6c0.1,0.1,0.1,0.3,0.2,0.7c0,0,0,0.1,0,0.1c-0.1,0.3-0.3,0.7-0.5,1.2L2939.9,1361.6
	C2939.9,1361.6,2939.9,1361.6,2939.9,1361.6z M2937.9,1365.6L2937.9,1365.6C2937.9,1365.6,2937.9,1365.6,2937.9,1365.6
	L2937.9,1365.6z M2945.1,1283.4c-0.1,0.2-0.2,0.4-0.2,0.6l-0.3,1c-0.3,0.8-0.5,1.7-0.9,2.6c-3,8.1-8.4,15.5-16,22L2669.3,1530
	c-74.9,63.8-281.2,34.4-441.5-63c-379.3-230.4-701.8-426.4-978.4-594.5c-171-103.9-324.5-197.2-463.2-281.5l-24.6-15
	C468.8,398.2,228.8,252.3,28.7,130.7c-7.9-4.8-13-9.9-15.2-15l-0.1-0.3c-0.9-2.3-1.2-4.6-0.8-7c2.2-13.9,25.2-27.6,60.1-35.9
	l220.3-52.5C348.5,6.7,427.7,11.7,469.4,31C633,106.7,818.7,192.7,1031,291.1l1720,796.8c111.1,51.5,187.7,119.9,195.2,174.3
	C2947.3,1269.9,2946.9,1277.1,2945.1,1283.4z M755.1,586.6c104.9,63.7,218.4,132.7,341.8,207.7l146,88.7
	c276.7,168.2,599.1,364.1,978.5,594.5c102.1,62,222.9,99,323.1,99c58.3,0,104.2-12.9,132.8-37.3l254.8-217.3c-0.9,2.5-1.8,5-2.7,7.6
	l-0.1,0.2l-259.4,221.3c-75.3,64.3-282.5,34.9-443.3-62.8c-377-229-697.7-423.9-973.2-591.3c-183.3-111.4-346.6-210.7-493.1-299.7
	C467.6,419.5,227.5,273.6,27.5,152l-1.4-0.9c-1.2-3.2-2.4-6.4-3.5-9.7C222.5,263,462.5,408.9,755.1,586.6z M2902.1,1393.7l0.7,0.7
	c0.4,0.4,0.7,0.7,1.1,0.9l0.3,0.3c0.1,0.1,0.2,0.1,0.3,0.2l0.2,0.1c0.2,0.2,0.5,0.4,1,0.7l0.6,0.4l0.2,0.1c0.9,0.6,1.9,1.1,2.9,1.4
	c0.7,0.3,1.4,0.4,2.1,0.5c0.3,0,0.7,0.1,0.8,0.1c0.6,0.1,1.1,0,1.4,0c0.5-0.1,1-0.3,1.3-0.6l0.8-0.6c1-0.8,1.9-1.5,2.5-2
	c0.3-0.1,0.4-0.3,0.5-0.3c0.2-0.1,0.4-0.3,0.7-0.6c0.5-0.3,0.9-0.7,1.3-1.1c-0.3,1.9-0.7,3.7-0.9,4.8c-3.8,4.4-4.7,5.1-9.2,8.5
	c-2-0.1-4.1-2.1-6.4-4.2l-1.8-1.6c-0.5-0.4-1.6-2.2-1.8-9.2C2901.1,1392.8,2901.6,1393.2,2902.1,1393.7z M2944.6,1357.1l-0.2-0.3
	c-0.2-0.6-0.5-1.1-0.8-1.6l0-0.9h-0.5l0,0l-0.4-0.4c-0.3-0.4-0.5-0.7-0.8-0.9c-0.2-0.2-0.4-0.4-0.5-0.6c-0.9-1-1.9-1.9-2.9-2.9
	c-0.1-0.1-0.2-0.2-0.4-0.3c0.1-0.2,0.2-0.5,0.3-0.7c2.2,0.5,4.7,1,6.9,0.8c0.2,0,0.5,0,0.6-0.1c0.4-0.1,0.8-0.1,1-0.2
	c0.1,0,0.1,0,0.2,0C2946.7,1351.7,2946.1,1353.3,2944.6,1357.1C2944.7,1357.1,2944.6,1357.1,2944.6,1357.1z M2939.7,1342.7l-0.4-0.1
	c-0.7-0.2-1.3-0.3-2.1-0.4l-1.2-0.2c2.7-5.2,5-10.7,7-16.3l0.3,0.2c1.6,0.9,3.2,1.8,4.4,2.8l0.7,0.7c0.1,0.1,0.2,0.2,0.3,0.4
	c0.3,0.4,0.5,0.8,0.7,1.2l-0.5,3.1c-0.1,0.7-0.4,1.9-0.7,3.1l-0.2,0.9c-0.1,0.3-0.2,0.5-0.2,0.6l-1.7,4.6
	C2944.8,1343.8,2942.3,1343.3,2939.7,1342.7z M2950.9,1323.7L2950.9,1323.7c-0.4-0.3-0.7-0.6-1.1-0.8c-0.2-0.1-0.4-0.3-0.5-0.3
	l-0.5-0.5h-0.2l-2.5-1.5c0-0.3,0.1-0.6,0.1-0.9l0.2,0c1.7-0.1,3.5-0.2,5.2-0.6C2951.5,1320.5,2951.3,1321.9,2950.9,1323.7z
	 M2946.7,1313.6c0.8-3,1.4-5.9,1.9-8.8l0.1-0.3c1.1-1.6,2-3.1,2.9-4.8c0.7,5.8,0.6,7,0.1,12.5l0,0
	C2950.5,1312.7,2948.7,1313.3,2946.7,1313.6z M2952.9,1312.8l0.2,0L2952.9,1312.8L2952.9,1312.8z M2923.1,1374.5l-0.1-0.1
	c0.2-0.2,0.3-0.4,0.5-0.6c3.5,1.9,8,4.2,12.4,2.1l1.1-0.9l0.4-0.5c-2.2,4.8-2.8,5.9-6.1,10.3c-1.1,0.2-2.4-0.1-4.1-0.8
	c0-0.2,0-0.4,0-0.4l0-0.4c-0.1-0.4-0.2-0.9-0.3-1.3c-0.1-0.5-0.3-1-0.5-1.4C2925.6,1378.2,2924.3,1376.3,2923.1,1374.5z
	 M2925.9,1383.4L2925.9,1383.4C2925.9,1383.4,2925.9,1383.4,2925.9,1383.4L2925.9,1383.4z M2956,1297.9L2956,1297.9L2956,1297.9
	L2956,1297.9z"/>
<g>
	<path class="st0" d="M176.3,115.5c0.4-0.6,0-1.2-1-1.7c-1-0.5-2.3-0.8-3.9-0.9c-1.4-0.1-3.1,0.1-4.9,0.6c-1.6,0.4-2.6,0.9-3,1.5
		c-0.4,0.5-0.1,1.1,0.9,1.7c0.9,0.5,2.4,0.8,4,0.9c1.7,0.1,3.4-0.1,4.9-0.5C175,116.6,176,116.1,176.3,115.5 M179.2,114.1
		c0.2,0.3,0.3,0.6,0.4,0.8c0.7,0,1.4,0,2.1,0c0.2,0,0.5,0,0.7,0c0,0.1-0.1,0.2-0.1,0.2c-0.1,0.2-0.1,0.4-0.2,0.6
		c0,0.1-0.1,0.2-0.1,0.2c-0.2,0-0.4,0-0.7,0c-0.7,0-1.4,0-2.2-0.1c-0.3,0.3-0.6,0.6-1.2,0.9c-0.7,0.4-1.6,0.7-3,1.1
		c-1.5,0.4-3.3,0.6-5.2,0.7c-1.3,0-2.6,0-3.8-0.2c0.1,0.5,0,0.9-0.4,1.3c-0.6,0.6-1.6,1.1-3.1,1.5c-2.3,0.6-4.6,0.8-6.7,0.6
		c-2.3-0.2-4.3-0.8-5.8-1.6c-1.5-0.8-2.1-1.7-1.7-2.5c0.3-0.8,1.6-1.5,3.8-2.1c0.2-0.1,0.4-0.1,0.6-0.2c0.1,0.1,0.2,0.1,0.4,0.2
		c0.3,0.2,0.7,0.4,1,0.5c0.1,0.1,0.3,0.1,0.4,0.2c-0.2,0.1-0.4,0.1-0.6,0.2c-1.4,0.3-2.1,0.8-2.3,1.3c-0.2,0.6,0.3,1.2,1.3,1.7
		c1,0.6,2.3,1,3.8,1.1c1.2,0.1,2.6,0,4-0.3c1.4-0.4,2-0.8,2.2-1.3c0.2-0.6-0.4-1.2-1.4-1.7c-1.5-0.8-1.9-1.7-1.3-2.5
		c0.6-0.9,2.2-1.7,4.5-2.3c2.5-0.6,5-0.9,7.3-0.8c2.4,0.1,4.5,0.6,6,1.3C178.5,113.4,179,113.7,179.2,114.1z M168.7,121.3
		c2.7-0.7,5.3-1.4,8-2.1c2.6-0.7,5.2-1.4,7.8-2.1c0.2,0,0.4-0.1,0.6-0.2c0.1,0.1,0.3,0.1,0.4,0.2c0.3,0.2,0.6,0.3,1,0.5
		c0.1,0.1,0.2,0.1,0.4,0.2c-0.2,0-0.4,0.1-0.6,0.2c-0.3,0.1-0.7,0.2-1,0.3c0.6,0,1.1,0.1,1.6,0.2c1.3,0.2,2.4,0.6,3.2,1c0,0,0,0,0,0
		c0.4,0.2,0.8,0.5,1,0.7c0.3,0.3,0.4,0.5,0.5,0.8c0,0.1,0,0.2,0,0.2c-0.2,0-0.4,0-0.7,0c-0.6,0-1.1,0.1-1.7,0.1c-0.3,0-0.5,0-0.7,0
		c0-0.1,0-0.2,0-0.3c0-0.2-0.1-0.4-0.3-0.5c-0.2-0.2-0.4-0.3-0.7-0.5h0c-0.9-0.4-2.2-0.7-3.5-0.8c-1.4-0.1-2.9,0.1-4.2,0.4
		c-1.5,0.4-3.1,0.8-4.6,1.2c-1.5,0.4-3.1,0.8-4.7,1.3c-0.2,0.1-0.4,0.1-0.6,0.2c-0.1-0.1-0.3-0.1-0.4-0.2c-0.3-0.2-0.7-0.4-1-0.6
		c-0.1-0.1-0.3-0.1-0.4-0.2C168.3,121.4,168.5,121.4,168.7,121.3z M192.8,124c-1.4-0.1-2.9,0-4.5,0.3c2.6,1.4,5.2,2.7,7.9,4.1
		c1.4-0.5,2.1-1,2.3-1.5c0.2-0.6-0.3-1.3-1.5-1.9C196,124.4,194.5,124.1,192.8,124z M186,130.5c-1.5-0.3-2.8-0.8-3.8-1.3
		c-1.7-0.9-2.3-2-1.7-3c0.5-1,2-1.9,4.7-2.6c2.5-0.7,5.2-0.9,7.8-0.8c2.6,0.1,5,0.6,6.6,1.5c0.2,0.1,0.5,0.3,0.7,0.4
		c1.2,0.8,1.7,1.6,1.3,2.5c-0.4,0.9-1.7,1.7-4.3,2.5c-0.4,0.1-0.8,0.2-1.3,0.3c-0.2,0-0.4,0.1-0.6,0.1c-0.1-0.1-0.3-0.1-0.4-0.2
		c-3.1-1.6-6.2-3.3-9.3-4.9c-1.2,0.5-1.8,1-2,1.5c-0.3,0.7,0.2,1.3,1.2,1.9c0.7,0.4,1.7,0.7,2.8,1c1,0.2,2,0.3,3,0.3
		c0.2,0,0.5,0,0.7,0c0,0.1,0,0.2-0.1,0.3c0,0.2-0.1,0.5-0.1,0.7c0,0.1-0.1,0.2-0.1,0.3c-0.2,0-0.5,0-0.7,0
		C188.9,131,187.4,130.8,186,130.5z M206,130.8c-1.4-0.1-3,0-4.5,0.4c2.7,1.4,5.4,2.9,8.2,4.3c1.4-0.5,2.1-1,2.3-1.6
		c0.2-0.7-0.4-1.4-1.6-2C209.2,131.3,207.7,130.9,206,130.8z M199.4,137.7c-1.5-0.3-2.9-0.8-3.9-1.3c-1.7-0.9-2.4-2-1.9-3.1
		c0.5-1,2-2,4.6-2.7c2.5-0.7,5.2-1,7.8-0.9c2.6,0.1,5.1,0.6,6.8,1.5c0.3,0.1,0.5,0.3,0.7,0.4c1.2,0.8,1.8,1.7,1.5,2.6
		c-0.3,0.9-1.6,1.8-4.2,2.6c-0.4,0.1-0.8,0.2-1.3,0.4c-0.2,0.1-0.4,0.1-0.6,0.1c-0.1-0.1-0.3-0.1-0.4-0.2c-3.3-1.7-6.5-3.4-9.7-5.1
		c-1.2,0.5-1.8,1-2,1.6c-0.2,0.7,0.3,1.4,1.4,2c0.7,0.4,1.7,0.7,2.8,1c1,0.2,2.1,0.3,3.1,0.3c0.2,0,0.5,0,0.7,0c0,0.1,0,0.2,0,0.3
		c0,0.2,0,0.5-0.1,0.7c0,0.1,0,0.2-0.1,0.3c-0.2,0-0.5,0-0.7,0C202.4,138.2,200.8,138,199.4,137.7z M221.5,149.9
		c2.2-1.3,4.4-2.6,6.5-3.8c2.1-1.2,4.2-2.5,6.3-3.7c0.8,0.4,1.6,0.8,2.4,1.2c-1.6,0.9-3.3,1.8-4.9,2.7c-1.7,0.9-3.4,1.9-5.1,2.8
		c1-0.2,1.6-0.3,1.8-0.4c2.4-0.4,4.7-0.8,7-1.1c2.3-0.4,4.6-0.7,6.9-1.1c0.5,0.3,1.1,0.6,1.6,0.8c-0.1,0-0.1,0.1-0.2,0.1
		c-1.9,1.4-3.6,2.5-5.5,3.7c-1.1,0.7-2.3,1.4-3.7,2.4c2.6-0.6,5.1-1.1,7.7-1.6c2.5-0.5,5.1-1,7.6-1.6c0.8,0.4,1.6,0.8,2.4,1.3
		c-3.4,0.6-6.7,1.3-10.1,2c-3.4,0.7-6.9,1.3-10.4,2c-0.7-0.4-1.5-0.8-2.2-1.2c1.4-0.9,2.8-1.8,4.2-2.7c1.4-0.9,2.7-1.8,4.1-2.6
		c0.3-0.2,0.6-0.4,0.8-0.5c0,0,0,0,0,0c-0.4,0.1-0.9,0.1-1.6,0.3c-2.2,0.4-4.5,0.8-6.7,1.2c-2.3,0.4-4.5,0.8-6.8,1.2
		c-0.8-0.4-1.5-0.8-2.3-1.2C221.4,149.9,221.5,149.9,221.5,149.9z M263.6,164.7c-0.5-0.3-1.1-0.5-1.7-0.8c-0.6-0.3-1.2-0.6-1.9-0.8
		c-0.8,0.6-1.5,1.3-2.3,1.9c-0.4,0.3-0.7,0.6-1.1,0.9c0.1,0,0.2,0,0.3-0.1c0.6-0.1,1.1-0.2,1.7-0.3
		C260.4,165.2,262,164.9,263.6,164.7z M246.4,157.1c1.6,0.4,3.2,0.9,4.6,1.3c1.1-0.9,2.1-1.7,3.2-2.6
		C251.6,156.3,249,156.7,246.4,157.1z M237.7,155c1.3,0.3,2.6,0.6,3.9,0.9c2.6-0.4,5.1-0.7,7.6-1.1c2.5-0.4,5-0.7,7.5-1.1
		c0.9,0.5,1.8,0.9,2.7,1.4c-1.6,1.5-3.2,3-4.9,4.5c1.3,0.4,2.5,0.9,3.8,1.4c1.5-1.3,3-2.7,4.4-4c0.9,0.5,1.8,0.9,2.7,1.4
		c-1.4,1.2-2.9,2.4-4.4,3.7c0.8,0.3,1.6,0.7,2.4,1.1c0.8,0.4,1.6,0.8,2.4,1.1c2.8-0.5,5.6-0.9,8.4-1.4c0.9,0.5,1.7,0.9,2.6,1.4
		c-2.8,0.4-5.7,0.9-8.5,1.3c1,0.6,1.9,1.1,2.9,1.7c2.3-0.9,4.5-1.9,6.7-2.8c3.4,1.8,6.9,3.5,10.4,5.4c-1,0.4-2,0.9-3,1.3
		c-2.5-1.3-4.9-2.6-7.4-3.8c-1.4,0.6-2.8,1.2-4.2,1.8c1.9,1.4,3.5,2.9,4.9,4.5c-0.7,0.1-1.4,0.3-2.1,0.4c-1.3-1.4-2.8-2.8-4.5-4.2
		c-1.6,0.7-3.2,1.3-4.8,2c2.5,1.3,5.1,2.7,7.7,4.1c-1,0.5-2.1,0.9-3.1,1.4c-3.6-1.9-7.2-3.9-10.8-5.8c0.2-0.1,0.4-0.2,0.6-0.3
		c2.6-1.1,5.2-2.2,7.8-3.2c-1.1-0.7-2.2-1.4-3.4-2.1c-3.8,0.6-7.7,1.2-11.5,1.8c-0.8-0.4-1.6-0.9-2.4-1.3c0.1,0,0.1-0.1,0.2-0.1
		c1.7-1.5,3.3-3,5-4.4c-1.2-0.5-2.5-0.9-3.7-1.4c-1.6,1.4-3.2,2.9-4.8,4.4c-1.1-0.6-2.2-1.2-3.3-1.8c1.5-1.3,3-2.6,4.5-3.8
		c-2-0.6-4.1-1.2-6.3-1.8c-2.2,0.4-4.4,0.7-6.7,1.1c-1-0.6-2.1-1.1-3.1-1.7c0.4-0.1,0.8-0.1,1.2-0.2c1.2-0.2,2.4-0.3,3.5-0.5
		c-0.7-0.2-1.3-0.3-2-0.5C237,155.5,237.4,155.3,237.7,155z M242.8,167.3c-0.3-0.2-0.6-0.4-1-0.5c-1.6,1.4-3.2,2.9-4.9,4.3
		c-0.7,0.1-1.4,0.2-2.1,0.4c-1.1,0.2-1.9,0.2-2.5-0.1c-0.2-0.1-0.4-0.3-0.5-0.4c-0.4,0.1-0.7,0.2-1.1,0.3c0.2,0.2,0.4,0.3,0.7,0.5
		c1.1,0.6,2.3,0.6,3.9,0.3c2.1-0.4,4.2-0.7,6.3-1.1c2.1-0.3,4.1-0.7,6.2-1c-0.3-0.2-0.6-0.3-0.9-0.5c-2.7,0.5-5.5,1-8.2,1.5
		c0,0,0,0,0,0C239.9,169.7,241.3,168.5,242.8,167.3z M241.4,166.5c-0.6-0.3-1.1-0.6-1.7-0.9c0.7-0.3,1.4-0.5,2.1-0.8
		c-0.3-0.2-0.6-0.3-0.9-0.5c-0.7,0.3-1.4,0.5-2.1,0.8c-0.4-0.2-0.8-0.4-1.2-0.7c-0.3,0.1-0.6,0.2-0.9,0.3c0.4,0.2,0.8,0.4,1.2,0.7
		c-1.6,0.6-3.1,1.2-4.7,1.8c-1.7,0.6-1.1,1.3-0.5,1.6c0.4,0.2,0.8,0.4,1.2,0.5c0.3-0.1,0.6-0.3,0.9-0.4c-0.4-0.1-0.7-0.2-1-0.3
		c-0.5-0.3-0.6-0.6,0.5-1c1.5-0.6,2.9-1.1,4.4-1.7c0.6,0.3,1.1,0.6,1.7,0.9C240.8,166.8,241.1,166.7,241.4,166.5z M236.4,163.8
		c-0.3-0.2-0.6-0.3-0.9-0.5c-2.5,0.9-5,1.9-7.5,2.9c0.3,0.2,0.6,0.3,0.9,0.5C231.4,165.7,233.9,164.8,236.4,163.8z M239.4,162.9
		c0.4-0.2,0.5-0.4,0.2-0.6c-0.3-0.2-0.9-0.2-1.4,0c-0.4,0.2-0.4,0.5-0.1,0.6C238.4,163,239,163,239.4,162.9z M237.8,160.4
		c-0.3-0.2-0.6-0.3-0.9-0.5c-2,0.7-4,1.5-6,2.2c-2,0.8-4.1,1.5-6.1,2.3c0.3,0.2,0.6,0.3,0.9,0.5c2.1-0.8,4.1-1.5,6.1-2.3
		C233.8,161.9,235.8,161.2,237.8,160.4z M226.5,161.1c-2.1-1.2-4.3-2.1-6.6-1.3c-1.7,0.6-1.2,1.5-0.3,2c0.9,0.5,2,0.7,3.5,0.6
		c0,0,0,0,0,0c-0.4,0.1-0.8,0.3-1.2,0.5c0.3,0.1,0.5,0.3,0.8,0.4c0.4-0.2,1-0.5,1.6-0.7c1.1-0.4,2.2-0.8,3.3-1.2
		c1.9-0.7,1.7-1.6,0.5-2.2c-1-0.5-2.2-0.8-3.3-0.8c-0.1,0.2-0.2,0.3-0.2,0.5c0.9,0,1.9,0.2,2.6,0.6c1,0.5,0.9,1.1-0.4,1.5
		C226.6,161,226.6,161.1,226.5,161.1z M225.6,161.4c-0.2,0.1-0.4,0.1-0.6,0.2c-1.3,0.5-3.2,0.6-4.4-0.1c-0.7-0.4-1-0.9,0.1-1.3
		c1.4-0.5,3.2,0.3,4.6,1C225.5,161.3,225.5,161.4,225.6,161.4z M216.1,155.7c1.3-0.4,3.3-0.4,4.4,0.2c1.2,0.6,0.8,1.4-0.6,1.9
		C218.7,157.1,217.4,156.4,216.1,155.7z M220.4,158.4c2.1-0.7,2.8-1.8,1-2.8c-1.6-0.9-4.5-1-6.8-0.2c-2.3,0.8-2.8,2.1-1.1,3
		c0.9,0.5,2.2,0.8,4.1,0.8c0-0.2,0-0.4,0-0.6c-1,0.1-2.3-0.1-3.2-0.5c-1.2-0.6-0.8-1.6,0.7-2.1c1.6,0.9,3.1,1.7,4.7,2.6
		C220.1,158.5,220.3,158.4,220.4,158.4z M206.9,154.6c0.3,0.1,0.5,0.3,0.8,0.4c1.3-0.5,2.6-0.9,3.9-1.4c2-0.7,3.6-0.6,4.5-0.1
		c0.2,0.1,0.4,0.3,0.5,0.3c0.4-0.1,0.7-0.2,1.1-0.3c-0.1-0.1-0.3-0.2-0.5-0.3c-0.8-0.4-2.1-0.6-3.3-0.5c0,0,0,0,0,0
		c0.3-0.1,0.9-0.3,1.2-0.5c-0.3-0.1-0.5-0.3-0.8-0.4c-0.5,0.2-1.2,0.5-1.6,0.6C210.9,153.2,208.9,153.9,206.9,154.6z M204.3,140.3
		c2.7-0.8,5.3-1.7,7.9-2.5c2.6-0.8,5.2-1.6,7.7-2.4c0.2-0.1,0.4-0.1,0.6-0.2c0.1,0.1,0.3,0.1,0.4,0.2c0.4,0.2,0.7,0.4,1.1,0.6
		c0.1,0.1,0.3,0.1,0.4,0.2c-0.2,0.1-0.4,0.1-0.6,0.2c-0.3,0.1-0.7,0.2-1,0.3c0.7,0,1.4,0.1,2,0.2c1.4,0.2,2.6,0.6,3.5,1.1
		c0,0,0,0,0,0c1.7,0.9,2.4,1.8,2.2,2.8c-0.3,0.9-1.5,1.8-3.8,2.6c-1.5,0.5-3,1-4.5,1.5c-1.5,0.5-3,1-4.6,1.5
		c-0.2,0.1-0.4,0.1-0.6,0.2c-0.2-0.1-0.3-0.2-0.4-0.2c-0.4-0.2-0.8-0.4-1.2-0.6c-0.2-0.1-0.3-0.2-0.4-0.2c0.2-0.1,0.4-0.1,0.6-0.2
		c1.5-0.5,3-1,4.6-1.5c1.5-0.5,3-1,4.5-1.5l0,0c0,0,0,0,0.1,0c1.5-0.5,2.3-1.1,2.5-1.7c0.1-0.6-0.4-1.2-1.5-1.8l0,0c0,0,0,0-0.1,0
		c-1.1-0.5-2.5-0.8-4-0.9c-1.5-0.1-3.2,0.2-4.6,0.6c-1.4,0.5-2.9,0.9-4.4,1.4c-1.5,0.5-2.9,0.9-4.4,1.4c-0.2,0.1-0.4,0.1-0.6,0.2
		c-0.2-0.1-0.3-0.2-0.4-0.2c-0.4-0.2-0.8-0.4-1.1-0.6c-0.2-0.1-0.3-0.2-0.4-0.2C203.9,140.5,204.1,140.4,204.3,140.3z"/>
</g>
<g>
	<path class="st0" d="M2502.1,1353.2c-4.1,3.2-8.2,6.5-12.3,9.7c-4.2,3.3-8.5,6.7-12.8,10.1c-3.3-1.6-6.5-3.1-9.7-4.7
		c4.4-3.4,8.7-6.7,12.9-10c4.2-3.2,8.4-6.5,12.4-9.6C2495.8,1350.2,2499,1351.7,2502.1,1353.2 M2510.3,1372.3
		c0.7,1.2,1.3,2.5,1.8,3.7c1.5,3.8,1.8,7.8,0.8,11.5c-1,3.8-3.3,7.4-7,10.7c-3.8,3.3-8.7,5.8-14.3,7.6c-5.7,1.8-12,2.8-18.7,3.1
		c0,0,0,0,0,0c-6.7,0.2-13.7-0.4-20.5-1.8c-6.8-1.4-13.4-3.6-19.5-6.7c-6-3-10.8-6.6-14.4-10.4c-3.5-3.8-5.8-7.8-6.8-11.7
		c-1-3.9-0.7-7.9,0.9-11.5c1.6-3.6,4.4-7,8.6-9.9c4.1-2.9,9.1-5.1,14.6-6.5c5.5-1.5,11.5-2.2,17.7-2.3c0,0,0,0,0,0c0,0,0,0,0,0
		c1.9,0,3.9,0,5.8,0.1c0.1,2.1,0.3,4.3,0.4,6.5c-1.4-0.1-2.8-0.1-4.2-0.1c0,0,0,0,0,0c-9.6,0.1-18.6,2.5-24.8,7
		c-6.3,4.6-8.6,10.6-7,16.6c0.8,3,2.6,6.1,5.3,8.9c2.7,2.9,6.4,5.6,11,7.9c4.6,2.3,9.7,4,14.8,5.1c5.2,1.1,10.5,1.5,15.6,1.4
		c10.1-0.3,19.3-3.1,25.3-8c5.8-4.9,7.3-11,5.1-17c-0.3-0.8-0.7-1.7-1.1-2.5C2503.2,1373.3,2506.8,1372.8,2510.3,1372.3z"/>
</g>
<g>
	<path class="st0" d="M2727.8,1604c0.3-3.3,1.3-6.9,2.8-10.6c1.2-2.9,2.7-5.7,4.4-8.3c1.7-2.6,3.7-5,5.7-6.9c2.6-2.4,5-3.8,7.1-4.4
		c2.2-0.6,4.1-0.2,5.5,0.9c-0.7,1.5-1.3,3-2,4.4c-1.1-0.9-2.6-1.1-4.3-0.6c-1.7,0.5-3.7,1.7-5.8,3.7c-3.4,3.2-6.2,7.6-8.1,12.1
		c-0.9,2.2-1.6,4.4-1.9,6.5c1.3-1.2,2.7-2.4,4-3.6c-0.8,3.1-1.5,6.2-2.3,9.2c-0.7,3-1.5,6-2.2,8.9c-1.2-1.1-2.4-2.3-3.6-3.5
		c-1.3-1.2-2.6-2.5-3.9-3.8c0.9-0.8,1.8-1.6,2.7-2.4C2726.6,1605.1,2727.2,1604.6,2727.8,1604 M2755.4,1588
		c-0.7,3.2-1.8,6.5-3.4,9.8c-1,2.1-2.2,4.1-3.5,6.1c-1.3,1.9-2.7,3.7-4.3,5.4c-2,2.1-4,3.6-5.9,4.7c-2,1.1-3.9,1.5-5.5,1.3
		c0.6-1.5,1.2-2.9,1.7-4.4c1.3,0.2,2.8-0.1,4.4-0.9c1.5-0.8,3.2-2.1,4.9-3.8c2.6-2.7,4.8-6,6.4-9.4c0.8-1.8,1.5-3.5,2.1-5.3
		c-0.8,0.9-1.6,1.8-2.4,2.7c0.6-2.8,1.1-5.6,1.7-8.4c0.6-2.9,1.2-5.8,1.8-8.8c1.1,1.2,2.1,2.4,3.2,3.6c1,1.1,2,2.2,2.9,3.3
		c-0.7,0.8-1.4,1.5-2.1,2.3C2756.7,1586.6,2756.1,1587.3,2755.4,1588z"/>
</g>
</svg>
