<svg height="960" viewBox="0 0 960 960" width="960" xmlns="http://www.w3.org/2000/svg"><path d="m487 1c248.622394 0 449 214.830269 449 478.5 0 207.454241-125.076577 389.817341-307.599572 454.286423-11.296717 3.990122-23.181342 2.754874-33.006639-2.555112l-.343789-.188311-.981477.275671c-32.98166 9.17173-65.300454 15.322652-95.793974 17.640248l-.723549.053081-.32511.207678c-1.418896.891329-2.837161 1.717605-4.349392 2.510256l-.764385.39367c-4.732145 2.394307-9.70801 4.151425-15.142438 4.974246l-.405675.05815-.268238.055169c-2.380012.468804-4.898303.744264-7.61297.788831h-.682792c-124.763406 0-233.748961-50.066645-311.74483-139.530139-74.7577544-85.749283-116.5814821-202.871292-118.2059253-330.710374-.0011469-.090257-.0019882-.180516-.0025241-.270778l-.0467206-7.751251v-3.046464c0-.113333 0-.227049.0095664-.343504.0106736-1.555845.0254159-3.049429.0448629-4.505089.0010459-.078287.0023216-.156571.0038272-.23485l.0101144-.525881.0633642-3.628151c2.5970398-126.165628 44.4145467-241.786785 118.3642619-326.707209 78.007772-89.5805074 186.905227-139.74631 311.504003-139.74631 2.661278 0 5.32017.02275311 7.976488.06821616l1.736512.03478384 1.696036-.0356952.239982-.00424483.240003-.00280475 6.763563-.06025522zm0 40-6.763563.0587465-2.517369.052083c-3.230984-.0737562-6.4708-.1108295-9.719068-.1108295-233.720544 0-386.5355426 192.422693-389.9390254 430.850855l-.0101144.525882c-.0188825 1.413409-.0325158 2.82843-.0422351 4.245159-.0086251.958641-.0086251 1.918012-.0086251 2.878104l.0460158 7.75125c2.9444927 231.723254 146.9817992 419.296908 369.3018882 430.243781 25.824237-5.930571 46.33723-27.534942 49.584615-55.35667.289466-2.479978.434566-4.974684.434566-7.471499v-176.824405c0-37.009012 28.927649-67.563569 65.881331-69.586534l.747371-.040914c34.628727-1.89569 64.237617 24.63968 66.133307 59.268407.062576 1.14308.093882 2.287658.093882 3.43245v179.542344c0 16.150146-4.272104 31.302489-11.747883 44.388602l-3.39651 1.22319c163.151732-57.626944 280.921417-222.353196 280.921417-416.570002 0-242.176863-183.115537-438.5-409-438.5zm78.089016 587.185108-.747372.040914c-26.348631 1.44241-46.974559 23.228352-46.974559 49.616435v176.824405c0 3.271669-.19013 6.540574-.569428 9.790182-1.983925 16.997127-8.885773 32.223307-19.117807 44.422707 34.366022-2.867432 69.71083-10.99614 101.459136-20.718353 7.013534-10.865142 11.08399-23.808812 11.08399-37.703188v-179.542344c0-.780178-.021335-1.56021-.063981-2.339222-1.291916-23.599546-21.470433-41.683452-45.069979-40.391536zm-2.089016 36.814892c4.970563 0 9 4.70101 9 10.5s-4.029437 10.5-9 10.5-9-4.70101-9-10.5 4.029437-10.5 9-10.5zm-465.7142857-172c4.0237887 0 7.2857147 3.80558 7.2857147 8.5s-3.261926 8.5-7.2857147 8.5c-4.0237889 0-7.2857143-3.80558-7.2857143-8.5s3.2619254-8.5 7.2857143-8.5zm18.9999997-12c4.023789 0 7.285715 3.80558 7.285715 8.5s-3.261926 8.5-7.285715 8.5-7.285714-3.80558-7.285714-8.5 3.261925-8.5 7.285714-8.5zm-18.9999997-9c4.0237887 0 7.2857147 3.80558 7.2857147 8.5s-3.261926 8.5-7.2857147 8.5c-4.0237889 0-7.2857143-3.80558-7.2857143-8.5s3.2619254-8.5 7.2857143-8.5zm18.9999997-12c4.023789 0 7.285715 3.80558 7.285715 8.5s-3.261926 8.5-7.285715 8.5-7.285714-3.80558-7.285714-8.5 3.261925-8.5 7.285714-8.5zm-18.9999997-9c4.0237887 0 7.2857147 3.80558 7.2857147 8.5s-3.261926 8.5-7.2857147 8.5c-4.0237889 0-7.2857143-3.80558-7.2857143-8.5s3.2619254-8.5 7.2857143-8.5zm18.9999997-12 .226931.004045c3.918788.139878 7.058784 3.890109 7.058784 8.495955 0 4.69442-3.261926 8.5-7.285715 8.5s-7.285714-3.80558-7.285714-8.5 3.261925-8.5 7.285714-8.5zm-18.9999997-9 .2269312.004045c3.9187875.139878 7.0587835 3.890109 7.0587835 8.495955 0 4.69442-3.261926 8.5-7.2857147 8.5-4.0237889 0-7.2857143-3.80558-7.2857143-8.5s3.2619254-8.5 7.2857143-8.5z"/></svg>