<svg height="960" viewBox="0 0 960 960" width="960" xmlns="http://www.w3.org/2000/svg"><g fill="#000" fill-rule="evenodd"><path d="m443 259v443h-443v-443zm-309 121v186h52.333731l3.969492-.013687 5.610232-.041968 4.359621-.056225 2.477973-.042998 3.143103-.068122 2.959162-.080446 3.440121-.117863 1.925948-.079938 2.406688-.117329 2.222313-.129595 2.037829-.141848.9497-.075515.775224-.066576 1.507808-.142296 1.450889-.154422.981717-.115267c1.290328-.157612 2.506118-.33089 3.647102-.519539l1.193844-.207993.669941-.12673c2.420672-.471945 4.447672-1.023743 6.077742-1.651851l1.134724-.454853c8.568388-3.534426 15.262667-9.083418 20.146758-16.690123 5.048336-7.862508 7.578338-17.097683 7.578338-27.768712 0-12.34037-3.14449-22.613747-9.41316-30.912193-6.097369-8.07168-14.415605-13.31466-25.064443-15.767232l-.746725-.166583-8.74748-1.88883 8.298803-3.343861.795712-.32774c8.162846-3.436246 14.481398-8.410342 19.015015-14.93972 4.66801-6.722933 7.002024-14.539386 7.002024-23.526077 0-8.463418-1.923966-16.080615-5.769986-22.897985-3.701881-6.561875-8.793058-11.721546-15.363575-15.544947l-1.376218-.78938c-4.263382-2.403296-9.32066-4.159868-15.181466-5.258737-2.834483-.53145-6.141068-.944416-9.916278-1.237536l-1.646628-.118282-.844814-.05363-1.732588-.096225-.887759-.042588-2.281945-.090336-2.371201-.067248-.973445-.020425-.9877-.01672-2.018133-.022315-1.030418-.005589zm293.751922 0h-119.751922v186h123v-10.236717l-110.951657.001079v-80.506595l98.479643-.000799v-9.71609l-98.479643.001263v-75.306467l107.703579-.00033zm-225.753205 94.347744.934739.003551c16.441449.125475 29.052506 3.577131 37.77902 10.469999 9.041303 7.141512 13.553027 17.738843 13.553027 31.534791 0 14.140962-4.036971 24.410781-12.24397 30.54014-5.877851 4.389845-14.860241 7.110338-26.983305 8.2491l-1.672616.14549-1.172518.088676c-2.757363.196137-5.665144.316907-8.723723.363228l-1.926183.01924-55.459597.002403v-81.416618zm-10.423828-84.11207 1.4043.004586c2.788337.01835 5.455115.091803 8.000683.220982l1.762105.099535 1.722536.117786.884678.06885c.586185.047568 1.165169.098474 1.736958.152727l1.693784.172809c10.869356 1.18864 19.004576 3.653403 24.443286 7.46141 8.242664 5.771245 12.312328 15.506853 12.312328 28.899537 0 13.492968-4.237213 23.325772-12.793367 29.176841-8.16175 5.581358-22.074326 8.319393-41.850539 8.409111l-1.010624.00228h-43.797426v-74.786454z"/><path d="m486.536291 380 .001103 175.764362 97.462606-.001079v10.236717h-110v-186zm142.463709 0v186h-12v-186zm170 0v10.235344l-103.908882.00033v74.786454l94.261387-.000504v10.235344l-94.261387.000799-.001097 90.742233h-12.090021v-186zm158.751922 0v10.235344l-107.70388.00033v75.306467l98.478572-.001263v9.71609l-98.478572.000799v80.506595l110.951958-.001079v10.236717h-123v-186z" fill-rule="nonzero"/></g></svg>