<svg width="960" height="960" viewBox="0 0 960 960" fill="none" xmlns="http://www.w3.org/2000/svg">
<path d="M226.107 34.7278C242.933 28.1029 261.536 25.1909 280.801 26.9319L844.301 77.8577C906.138 83.4461 953.5 135.282 953.5 197.37V762.63C953.5 824.234 906.874 875.744 845.747 882.003L844.301 882.143L280.801 933.068C264.808 934.513 249.263 932.752 234.811 928.317C233.508 928.14 232.214 927.835 230.947 927.396L87.6816 877.712C39.3846 860.963 7.00021 815.456 7 764.337V196.144C7.00003 145.036 39.3702 99.5357 87.6523 82.7776H87.6533L226.107 34.7278ZM269.426 66.4397C225.986 66.6851 190 102.043 190 146.445V813.555C190 860.58 230.366 897.463 277.2 893.231L840.7 842.305C841.022 842.276 841.344 842.245 841.665 842.212C841.986 842.179 842.306 842.144 842.625 842.108C843.264 842.034 843.902 841.954 844.536 841.866C844.853 841.822 845.17 841.776 845.485 841.729C846.117 841.633 846.746 841.531 847.373 841.421C852.073 840.598 856.624 839.369 860.99 837.774C861.572 837.561 862.151 837.341 862.727 837.115C863.878 836.664 865.015 836.187 866.139 835.685C866.7 835.434 867.259 835.177 867.813 834.913C868.091 834.782 868.367 834.649 868.643 834.514C869.469 834.11 870.288 833.692 871.098 833.26C872.447 832.541 873.773 831.784 875.074 830.991C875.595 830.674 876.112 830.352 876.624 830.024C876.88 829.859 877.135 829.694 877.39 829.527C878.914 828.525 880.402 827.473 881.851 826.372C882.333 826.006 882.812 825.633 883.286 825.256C884.234 824.501 885.164 823.725 886.076 822.929C892.003 817.756 897.151 811.728 901.335 805.047C901.657 804.533 901.973 804.016 902.283 803.494C902.438 803.234 902.593 802.972 902.745 802.709C903.05 802.184 903.348 801.654 903.641 801.121C904.812 798.991 905.889 796.802 906.865 794.561C907.354 793.44 907.817 792.306 908.255 791.16C909.021 789.155 909.709 787.112 910.314 785.034C910.92 782.957 911.443 780.846 911.881 778.704C912.068 777.787 912.24 776.863 912.396 775.935C912.603 774.697 912.783 773.45 912.933 772.195C913.27 769.37 913.46 766.502 913.494 763.599C913.498 763.276 913.5 762.953 913.5 762.63V197.37C913.5 197.047 913.498 196.724 913.494 196.402C913.006 155.44 881.603 121.391 840.7 117.695L277.2 66.7698C274.584 66.5333 271.991 66.4262 269.426 66.4397ZM212 148.287C212 113.156 242.049 85.5411 277.056 88.5012L837.056 135.854C868.122 138.481 892 164.464 892 195.641V765.279C892 796.489 868.072 822.488 836.969 825.073L276.968 871.602C241.992 874.508 212 846.904 212 811.808V148.287ZM100.768 120.566C68.5797 131.738 47 162.072 47 196.144V764.337C47.0002 798.416 68.59 828.754 100.788 839.92L187.403 869.957C176.446 853.955 170 834.565 170 813.555V146.445C170 125.696 176.287 106.527 186.997 90.6399L100.768 120.566ZM275.37 108.43C252.033 106.457 232 124.867 232 148.287V811.808C232 835.206 251.995 853.609 275.312 851.671L835.312 805.141C856.048 803.418 872 786.086 872 765.279V195.641C872 174.856 856.081 157.534 835.37 155.782L275.37 108.43ZM557.967 248.978C669.892 249.679 757.407 355.242 756.512 481.488C755.616 607.733 666.611 712.189 554.687 711.488C442.762 710.786 355.248 605.223 356.144 478.978C357.039 352.733 446.042 248.277 557.967 248.978ZM557.825 268.977C459.679 268.362 376.98 360.957 376.143 479.104C375.305 597.25 456.682 690.873 554.828 691.489C608.876 691.827 658.236 663.897 691.824 619.002C658.467 646.127 614.655 661.211 567.237 660.985V661C479.429 660.449 411.309 577.726 412.005 479.519C412.7 381.438 481.807 299.674 569.448 300.016L569.449 300C618.029 300.305 662.219 316.602 695.278 345.261C662.326 298.74 612.698 269.321 557.825 268.977ZM569.655 320.016C495.63 319.552 432.644 389.545 432.005 479.66C431.367 569.638 493.163 640.322 567.031 640.995L567.032 640.985C659.938 641.567 735 578.263 735 481.601C735 384.821 662.255 320.735 569.655 320.003V320.016ZM557.806 204.122C565.609 204.171 571.884 211.57 571.819 220.649C571.755 229.727 565.376 237.048 557.572 236.999C549.769 236.95 543.495 229.551 543.56 220.472C543.624 211.393 550.002 204.073 557.806 204.122Z" fill="black"/>
</svg>
