<svg height="960" viewBox="0 0 960 960" width="960" xmlns="http://www.w3.org/2000/svg"><path d="m442.5 27 .65.01 127.847218-.01h1.502782c206.086755 0 370.2378 199.960571 373.451884 445.154269.001146.087431.002006.174865.002579.262301l.045537 6.821441v.261989c0 248.259434-165.125403 452.5-373.5 452.5h-1.716959l-109.038041-.592-.793028.050553c-5.365861.315541-10.746693.493431-16.139865.541447h-2.312107c-7.387131 0-14.751636-.25941-22.086744-.776401l-2.160256-.160599 1.414.105-1.004055-.008296c-2.223395-.018736-4.402591-.218435-6.523802-.584948l-.537143-.097756-1.94869-.198627c-9.851277-1.037055-19.635069-2.540157-29.334049-4.50262l-1.510261-.310753-.673505-.109549c-.785152-.136088-1.572221-.296234-2.360509-.481015l-.788669-.193014-1.038317-.265422-1.507082-.339579c-5.09777-1.167973-10.168539-2.463133-15.2097-3.884192l-1.496218-.428229-43.186291-11.059187c-1.238247-.317124-2.450457-.690128-3.634213-1.115901l-.058496-.021912-.619446-.148193c-170.23733-42.295105-292.7414402-217.104065-295.1989014-420.678074l-.0376526-6.240733c0-207.234873 124.449451-385.8210356 297.554825-427.486184l.296461-.1078524c.487319-.1759723.979529-.343049 1.476467-.5010125l.498509-.1549178 34.674738-10.5300333 1.774471-.557499c1.42417-.4417009 2.850914-.8733013 4.280173-1.2947684l1.741356-.5057326 8.554478-2.5885129c2.057767-.6225128 4.116833-1.0717626 6.163786-1.3577281l.694736-.089759 1.216461-.2841098c22.573777-5.2118039 45.629239-7.9174038 68.946343-8.0418902zm0 40-5.429563.0535625c-.060346.0011914-.120689.0024026-.181028.0036337-1.783856.0363925-3.56467.090123-5.34197.1610541l5.34197-.1610541c-1.8334.0374057-3.663201.0931105-5.489289.1669732l.147319-.0059191c-1.803412.0719732-3.603206.1616559-5.399273.2689123l5.251954-.2629932c-1.839127.0743902-3.674489.1671986-5.505967.2782808l.254013-.0152876c-1.860005.1110746-3.716012.2409962-5.5679.3896138l5.313887-.3743262c-1.781809.1080697-3.559942.2334355-5.334293.3759646l.020406-.0016384c-1.784748.1432296-3.565671.3038241-5.342657.4816484l5.322251-.48001c-1.834552.1473649-3.665061.3130774-5.491407.4969908l.169156-.0169808c-1.799787.180106-3.595537.3778867-5.387135.5932016l5.217979-.5762208c-1.82815.184095-3.652129.3864268-5.471819.6068481l.25384-.0306273c-1.813945.2180006-3.623635.4539755-5.428952.707779l5.175112-.6771517c-1.757913.2129382-3.511823.4427585-5.261622.689328l.08651-.0121763c-1.78042.2503033-3.556586.5179468-5.328386.8027906l5.241876-.7906143c-1.807698.2547283-3.61101.5273327-5.409815.8176667l.167939-.0270524c-1.772733.284994-3.541096.5872063-5.304974.9064971l5.137035-.8794447c-1.766054.2850479-3.527765.5871857-5.285021.9062747l.147986-.02683c-1.756458.3179478-3.50847.6528305-5.255924 1.00451l5.107938-.97768c-1.798586.3265939-3.592504.6709458-5.381636 1.0329072l.273698-.0552272c-1.778725.357973-3.552728.7333493-5.321889 1.125983l5.048191-1.0707558c-1.728314.3496575-3.45216.7157475-5.171431 1.0981363l.12324-.0273805c-1.749297.3882249-3.49386.7933218-5.233576 1.2151497l5.110336-1.1877692c-1.767234.3930562-3.529632.8033332-5.287078 1.2306854l.176742-.0429162c-5.220324 1.2657686-10.397005 2.6821836-15.526962 4.2454346-.070368.0214431-.140702.0429062-.211027.0643969l.211027-.0643969c-145.524807 44.3457486-253.449811 206.8538066-253.449811 400.5402296 0 198.336818 113.169761 363.980117 263.995979 403.528886.170307.044657.340609.089139.51096.133461l-.51096-.133461c1.672237.438484 3.349103.861468 5.030494 1.268824l-4.519534-1.135363c1.606491.417975 3.217239.82165 4.832155 1.21091l-.312621-.075547c1.676264.406114 3.357026.796696 5.042185 1.171619l-4.729564-1.096072c1.643738.396208 3.291792.777483 4.944068 1.143706l4.915977 1.042582c.032356.006554.064713.013101.097071.019643l-.097208-.019671c1.650411.334277 3.304897.653569 4.963364.95776l-4.866156-.938089c1.727145.349169 3.45875.681928 5.194707.998143l-.328551-.060054c1.718665.315231 3.441605.614245 5.168715.896911l-4.840164-.836857c1.684062.306762 3.37222.597955 5.064375.873456l-.224211-.036599c1.71787.281153 3.439866.546134 5.165884.794813l-4.941673-.758214c1.663324.270807 3.33051.526453 5.001464.766822l-.059791-.008608c1.65968.239122 3.323079.463171 4.990105.672035l-4.930314-.663427c1.757606.252833 3.519382.488764 5.285218.707657l-.354904-.04423c1.725684.216213 3.455254.416153 5.18861.599694l-4.833706-.555464c1.738467.215501 3.480869.414487 5.227102.596832l-.393396-.041368c1.779486.188426 3.562961.359568 5.350315.51329l-.004995.16698 2.285934.019564c7.007858.543567 14.074416.819436 21.193066.819436 6.075668 0 12.11339-.200954 18.109057-.597781l2.424602.022727c-142.954092-55.971857-245.566341-219.743953-245.566341-411.924946 0-192.833865 103.310616-357.065485 247.024654-412.4916485l-22.889972.0006485zm128.5.004.422798-.004c-184.438519 0-333.95548 184.682541-333.95548 412.5s149.516961 412.5 333.95548 412.5c184.438518 0 333.955479-184.682541 333.955479-412.5 0-227.586878-149.214453-412.1261099-333.395559-412.4994326l-.982718.0144326zm.422798 17.1192877c84.769151 0 164.032263 41.8385133 222.833621 114.4696313 59.897253 73.984763 93.99857 174.095361 93.99857 280.907081s-34.101317 206.922318-93.99857 280.907081c-58.801358 72.631118-138.06447 114.469631-222.833621 114.469631s-164.032264-41.838513-222.833621-114.469631c-59.897253-73.984763-93.998571-174.095361-93.998571-280.907081s34.101318-206.922318 93.998571-280.907081c58.801357-72.631118 138.06447-114.4696313 222.833621-114.4696313zm0 20.0000003c-78.412453 0-152.115133 38.903475-207.28922 107.054209-56.959596 70.356184-89.542972 166.010589-89.542972 268.322503s32.583376 197.966319 89.542972 268.322503c55.174087 68.150734 128.876767 107.054209 207.28922 107.054209 78.412452 0 152.115132-38.903475 207.289219-107.054209 56.959596-70.356184 89.542972-166.010589 89.542972-268.322503s-32.583376-197.966319-89.542972-268.322503c-55.174087-68.150734-128.876767-107.054209-207.289219-107.054209zm-329.282353 18.84189-1.161171.671625c-111.273699 64.256205-187.979274 199.909755-187.979274 356.863197 0 160.947493 80.659156 299.497247 196.5406 361.62912-95.6588-76.329292-158.6284268-207.64877-160.4978056-355.84056l-.0427944-6.78856c0-147.581459 60.433121-278.4125 153.140445-356.534822zm490.202644 480.602604c14.316077 12.384739 22.555736 29.822507 22.555736 48.867498 0 18.857071-8.070219 36.94375-22.048708 50.781515-15.078645 14.987226-28.889909 22.474171-47.903409 23.871264l-176.986301 13.004779c-20.232598 1.486671-39.334948-4.921045-53.526043-17.623642-14.245932-12.808666-22.412251-30.979064-22.412251-50.845908 0-19.687846 8.012021-38.51516 21.957686-52.794826 13.875586-14.152402 32.65796-22.79761 52.734842-23.828813l176.986301-9.090503c19.384876-.99566 33.704411 4.676283 48.642147 17.658636zm-47.616244 2.315035-176.986301 9.090502c-15.007032.770803-29.077377 7.247143-39.46594 17.84293-10.358073 10.60617-16.252491 24.457365-16.252491 38.807039 0 14.170675 5.74012 26.942681 15.767727 35.958639 10.103253 9.043504 23.853622 13.655945 38.704938 12.564685l176.986301-13.004779c13.684376-1.005514 23.311804-6.224444 35.284291-18.124315 10.315595-10.211768 16.133455-23.250542 16.133455-36.582238 0-13.143775-5.64842-25.097648-15.65801-33.75691-11.261755-9.787539-20.653213-13.50748-34.51397-12.795553z"/></svg>