<svg height="960" viewBox="0 0 960 960" width="960" xmlns="http://www.w3.org/2000/svg"><g fill="#000" fill-rule="nonzero"><path d="m856 319c47.496488 0 86 38.503512 86 86v148c0 47.496488-38.503512 86-86 86l-412.953099.000491c.193017-11.804514-2.374448-23.952261-8.205477-35.616224l-.789424-1.537267.017.031-.02-.037-1.492377-2.841405 423.443377.000405c25.405098 0 46-20.594902 46-46v-148c0-25.405098-20.594902-46-46-46l-549.462377-.000405-21.003-40zm-739.497377-.000405-21.4715061 40.874277c-21.1116514 4.172332-37.0311169 22.790135-37.0311169 45.126128l-.0003771 25.364595-40 76.143.0003771-101.507595c0-47.496488 38.5035115-86 86-86z"/><path d="m397.772849 620.946464-164.656108-313.584292c-13.596184-25.816229-50.590451-25.816229-64.186635 0l-164.73515597 313.584292c-12.64761273 24.079358 4.82190236 53.053536 32.09331727 53.053536h164.7351557 164.656108c27.271415 0 44.819978-28.895229 32.093318-53.053536zm-214.614179-203.450836c0-10.184384 8.220948-18.39505 18.418086-18.39505s18.418086 8.210666 18.418086 18.39505v105.712328c0 10.184384-8.220948 18.395051-18.418086 18.395051s-18.418086-8.210667-18.418086-18.395051zm17.864753 202.898195c-14.70285 0-26.559987-11.921256-26.559987-26.526768 0-14.684461 11.936185-26.526768 26.559987-26.526768 14.70285 0 26.559987 11.921256 26.559987 26.526768s-11.936185 26.526768-26.559987 26.526768z"/><path d="m786.134327 335.509454c5.522847 0 10 4.477152 10 10v269.907674c0 5.522848-4.477153 10-10 10-5.522848 0-10-4.477152-10-10v-269.907674c0-5.522848 4.477152-10 10-10z"/><path d="m460.053848 400.84494v102.284632c0 14.859982-1.464865 26.978409-4.45143 36.403542-3.129345 9.875727-9.358814 18.431134-18.564614 25.604485-5.265192 4.102747-11.149648 7.048177-17.620682 8.837651l-12.386034-23.588272c2.971395-.434953 5.858114-1.302 8.674555-2.605129 4.213925-1.949727 7.696891-4.624147 10.499932-8.050086 2.823117-3.450476 4.916741-7.669446 6.270661-12.698276.928091-3.464872 1.454707-11.354043 1.472591-23.272889l.000471-102.915658zm43.215196 0 1.298401 3.031379 48.799095 113.930621 49.714185-113.96123 1.309043-3.00077h28.430758l-3.043272 6.99477-70.11505 161.15506-1.30751 3.00523h-10.078901l-1.299275-3.028896-69.129057-161.15506-2.990324-6.971104zm-133.816987 0-.000434 77.971-26.105-49.716.000883-28.255z"/><path d="m854.342788 674.255466c4.83248 2.673758 6.58247 8.758766 3.908713 13.591246-75.56139 136.567698-219.306339 223.153288-378.251501 223.153288-148.13632 0-283.069472-75.209741-361.906883-195.996942l24.134291.000025c76.062375 108.794547 201.011361 175.996917 337.772592 175.996917 151.59598 0 288.678139-82.57222 360.751542-212.835821 2.673758-4.83248 8.758766-6.582471 13.591246-3.908713zm-99.279784.784253c4.39812 3.340416 5.255558 9.61374 1.915142 14.01186-65.3269 86.011898-166.887678 137.548421-276.978146 137.548421-98.522565 0-190.213801-41.275002-255.217175-111.596701l27.98031-.001292c60.161761 57.987231 140.905074 91.597993 227.236865 91.597993 103.770397 0 199.466602-48.560574 261.051144-129.645139 3.340416-4.398121 9.61374-5.255559 14.01186-1.915142zm-106.881867 1.779817c3.415504 4.340067 2.665997 10.627199-1.674069 14.042703-47.128152 37.088457-105.267322 57.589613-166.507068 57.589613-46.2899 0-90.808184-11.713427-130.13857-33.450051l15.818101-.001801c8.31177 0 16.199156-1.261819 23.534206-3.575112 28.520725 11.143267 59.200558 17.026964 90.786263 17.026964 56.712807 0 110.505344-18.968437 154.138435-53.306385 4.340066-3.415504 10.627198-2.665997 14.042702 1.674069zm-168.181137-629.819536c158.529013 0 301.95557 86.130658 377.685648 222.133837 2.686815 4.825233.953284 10.914951-3.87195 13.601765-4.825233 2.686814-10.91495.953283-13.601764-3.87195-72.23447-129.725438-209.012727-211.863652-360.211934-211.863652s-287.977464 82.138214-360.211934 211.863652c-2.686814 4.825233-8.776531 6.558764-13.601764 3.87195-4.825234-2.686814-6.5587645-8.776532-3.87195-13.601765 75.730078-136.003179 219.156635-222.133837 377.685648-222.133837zm0 162.548148c60.65477 0 118.27455 20.109852 165.17837 56.550657 4.361271 3.388385 5.149951 9.670723 1.761565 14.031995-3.388386 4.361271-9.670724 5.149951-14.031995 1.761565-43.424842-33.737896-96.736628-52.344217-152.90794-52.344217s-109.483098 18.606321-152.90794 52.344217c-4.361271 3.388386-10.643609 2.599706-14.031995-1.761565-3.388386-4.361272-2.599706-10.64361 1.761565-14.031995 46.90382-36.440805 104.5236-56.550657 165.17837-56.550657zm0-78.148148c109.633023 0 210.819396 51.106444 276.191446 136.51661 3.356746 4.38567 2.522638 10.662138-1.863032 14.018884s-10.662138 2.522638-14.018884-1.863032c-61.627123-80.517328-156.970155-128.672462-260.30953-128.672462-93.011934 0-179.545925 39.011108-240.848481 105.517858-6.290565-3.544935-13.002677-6.136289-19.909629-7.778959 65.286538-74.067736 159.413434-117.738899 260.75811-117.738899z"/></g></svg>