<?xml version="1.0" encoding="UTF-8"?>
<svg width="960px" height="960px" viewBox="0 0 960 960" version="1.1" xmlns="http://www.w3.org/2000/svg" xmlns:xlink="http://www.w3.org/1999/xlink">
    <!-- Generator: Sketch 60.1 (88133) - https://sketch.com -->
    <title>com.technisat.smarthome/assets/icon</title>
    <desc>Created with Sketch.</desc>
    <g id="com.technisat.smarthome/assets/icon" stroke="none" stroke-width="1" fill="none" fill-rule="evenodd">
        <path d="M163.479675,442 C153.544715,442 145.089431,443.061453 138.325203,445.184358 C131.560976,447.307263 126.065041,450.703911 121.837398,454.949721 C117.609756,459.407821 114.650407,464.715084 112.747967,471.296089 C111.056911,477.877095 110,485.519553 110,494.435754 L110,506.111732 C110,514.603352 110.845528,521.821229 112.536585,528.189944 C114.227642,534.346369 116.97561,539.653631 120.99187,543.687151 C125.00813,547.932961 130.292683,550.905028 137.056911,553.027933 C143.821138,555.150838 152.276423,556 162.422764,556 L182.715447,556 C188.845528,556 200.471545,555.787709 207.658537,555.575419 L207.658537,529.463687 C199.203252,529.675978 191.593496,529.675978 184.829268,529.675978 L165.804878,529.675978 C161.577236,529.675978 158.195122,529.463687 155.447154,529.039106 C152.699187,528.614525 150.585366,527.553073 148.894309,526.27933 C147.203252,524.793296 146.146341,523.094972 145.512195,520.759777 C144.878049,518.424581 144.455285,515.664804 144.243902,511.843575 L194.97561,511.843575 C198.569106,511.843575 201.528455,511.418994 204.065041,510.782123 C206.601626,510.145251 208.504065,508.871508 209.98374,506.960894 C211.463415,505.050279 212.520325,502.715084 213.154472,499.743017 C213.788618,496.77095 214,492.949721 214,488.27933 L214,483.821229 C214,470.659218 210.195122,460.256983 202.373984,453.039106 C194.552846,445.608939 181.658537,442 163.479675,442 Z M144,489 C144,484.514563 144.210227,480.883495 144.840909,477.893204 C145.261364,475.116505 146.3125,472.76699 147.573864,471.271845 C148.835227,469.563107 150.727273,468.495146 153.039773,467.854369 C155.352273,467.213592 158.505682,467 162.289773,467 C166.073864,467 169.227273,467.213592 171.539773,467.854369 C173.852273,468.495146 175.744318,469.563107 177.215909,471.271845 C178.6875,472.980583 179.528409,475.116505 180.159091,477.893204 C180.579545,480.669903 181,484.300971 181,489 L144,489 Z" id="Shape" fill="#000000" fill-rule="nonzero"></path>
        <path d="M316,529.251397 C310.056604,529.463687 304.75,529.675978 299.867925,529.675978 L283.311321,529.675978 C279.066038,529.675978 275.457547,529.463687 272.485849,528.826816 C269.514151,528.189944 267.391509,527.128492 265.481132,525.430168 C263.783019,523.731844 262.509434,521.396648 261.872642,518.212291 C261.235849,515.027933 260.811321,510.994413 260.811321,505.899441 L260.811321,491.675978 C260.811321,486.581006 261.235849,482.547486 261.872642,479.363128 C262.509434,476.178771 263.570755,473.843575 265.268868,472.145251 C266.966981,470.446927 269.089623,469.385475 272.061321,468.748603 C275.033019,468.111732 278.641509,467.899441 283.099057,467.899441 L290.95283,467.899441 C293.287736,467.899441 295.198113,467.899441 297.320755,467.899441 C299.231132,467.899441 301.353774,468.111732 303.264151,468.111732 C305.174528,468.111732 312.603774,468.324022 315.150943,468.324022 L315.150943,442.424581 C306.872642,442.212291 300.292453,442 295.198113,442 L281.613208,442 C271.424528,442 262.721698,442.849162 255.716981,444.759777 C248.712264,446.670391 242.981132,449.430168 238.523585,453.463687 C234.066038,457.497207 230.882075,462.592179 228.971698,468.960894 C227.061321,475.329609 226,482.972067 226,491.888268 L226,506.111732 C226,515.240223 226.849057,522.882682 228.759434,529.251397 C230.669811,535.620112 233.853774,540.715084 238.099057,544.536313 C242.556604,548.569832 248.287736,551.329609 255.292453,553.240223 C262.509434,555.150838 271.212264,556 282.037736,556 C285.221698,556 289.254717,556 294.136792,556 C299.018868,556 309.632075,555.787709 315.363208,555.575419 L315.363208,529.251397 L316,529.251397 Z" id="Path" fill="#000000" fill-rule="nonzero"></path>
        <path d="M387.844622,469.318759 C391.645418,469.318759 394.812749,469.531735 397.135458,470.170663 C399.458167,470.809591 401.358566,471.874471 402.625498,473.152327 C403.89243,474.643159 404.737052,476.346968 405.159363,478.476728 C405.581673,480.606488 405.792829,483.1622 405.792829,486.143865 L405.792829,556 L440,556 L440,479.328632 C440,466.124118 436.199203,456.753173 428.59761,451.002821 C420.996016,445.252468 410.438247,442.270804 396.924303,442.270804 C389.322709,442.270804 383.410359,442.909732 378.976096,444.400564 C374.541833,445.891396 370.952191,447.595205 368.207171,449.724965 L368.207171,405 L334,410.324401 L334,556 L368.207171,556 L368.207171,489.551481 C368.207171,485.717913 368.418327,482.523272 369.051793,479.96756 C369.685259,477.411848 370.741036,475.282087 372.219124,473.791255 C373.697211,472.300423 375.808765,471.022567 378.342629,470.383639 C380.876494,469.744711 384.043825,469.318759 387.844622,469.318759 Z" id="Path" fill="#000000" fill-rule="nonzero"></path>
        <path d="M522.517928,470.287313 C525.075697,470.925373 526.994024,471.988806 528.272908,473.264925 C529.551793,474.753731 530.404382,476.455224 530.830677,478.58209 C531.256972,480.708955 531.47012,483.261194 531.47012,486.238806 L531.47012,556 L566,556 L566,483.686567 C566,476.029851 564.934263,469.436567 563.015936,464.119403 C561.09761,458.802239 557.900398,454.548507 553.63745,451.145522 C549.374502,447.742537 543.832669,445.402985 537.011952,444.126866 C530.191235,442.63806 522.091633,442 512.5,442 C502.908367,442 494.808765,442.63806 487.988048,444.126866 C481.167331,445.615672 475.625498,447.955224 471.36255,451.145522 C467.099602,454.548507 463.90239,458.802239 461.984064,464.119403 C460.065737,469.436567 459,475.817164 459,483.686567 L459,555.787313 L493.52988,555.787313 L493.52988,486.026119 C493.52988,483.048507 493.743028,480.496269 494.169323,478.369403 C494.595618,476.242537 495.448207,474.541045 496.727092,473.052239 C498.005976,471.563433 499.924303,470.712687 502.482072,470.074627 C505.039841,469.436567 508.450199,469.223881 512.5,469.223881 C516.549801,469.223881 519.960159,469.649254 522.517928,470.287313 Z" id="Path" fill="#000000" fill-rule="nonzero"></path>
        <path d="M743.941499,481.211864 C740.972578,477.822034 736.943327,474.855932 731.853748,472.737288 C726.764168,470.40678 720.61426,468.711864 713.191956,467.440678 L686.895795,462.991525 C683.502742,462.355932 680.957952,461.720339 678.837294,461.084746 C676.716636,460.237288 675.232176,459.389831 674.171846,458.330508 C673.111517,457.271186 672.47532,455.788136 672.051188,454.09322 C671.627057,452.398305 671.414991,450.279661 671.414991,447.949153 C671.414991,445.194915 671.839122,443.076271 672.47532,441.169492 C673.111517,439.262712 674.171846,437.991525 675.868373,436.932203 C677.352834,435.872881 679.685558,435.025424 682.654479,434.601695 C685.6234,434.177966 689.016453,433.966102 693.469835,433.966102 L714.252285,433.966102 C722.09872,433.966102 731.641682,434.177966 742.88117,434.389831 L748.182815,406.211864 C741.820841,406 736.30713,406 731.21755,406 C726.340037,406 721.674589,406 717.433272,406 L705.557587,406 L694.106033,406 C683.502742,406 674.383912,406.847458 666.961609,408.754237 C659.539305,410.661017 653.601463,413.415254 648.936015,417.016949 C644.270567,420.618644 641.08958,425.067797 638.968921,430.364407 C636.848263,435.449153 636,441.59322 636,448.161017 L636,451.550847 C636,457.694915 636.636197,463.20339 637.696527,467.652542 C638.756856,472.313559 640.877514,476.338983 644.058501,479.728814 C647.239488,483.118644 651.268739,485.872881 656.570384,487.991525 C661.872029,490.110169 668.658135,492.016949 677.140768,493.288136 L699.83181,497.101695 C703.224863,497.737288 705.981718,498.372881 708.102377,499.008475 C710.223035,499.855932 711.919561,500.70339 712.97989,501.974576 C714.252285,503.245763 714.888483,504.728814 715.312614,506.423729 C715.736746,508.330508 715.948812,510.449153 715.948812,513.20339 C715.948812,516.169492 715.52468,518.5 714.888483,520.40678 C714.252285,522.313559 712.97989,523.79661 711.283364,524.855932 C709.586837,525.915254 707.042048,526.762712 703.86106,527.186441 C700.680073,527.610169 696.862888,527.822034 692.197441,527.822034 L670.142596,527.822034 C662.084095,527.822034 648.087751,527.610169 636.636197,527.398305 L636.636197,555.576271 C643.634369,555.788136 648.936015,555.788136 654.449726,555.788136 C659.963437,555.788136 664.840951,556 669.294333,556 L681.170018,556 L691.561243,556 C703.012797,556 712.555759,555.152542 720.190128,553.457627 C728.036563,551.762712 734.186472,549.220339 738.85192,545.618644 C743.517367,542.016949 746.91042,537.567797 749.031079,532.059322 C750.939671,526.762712 752,520.194915 752,512.567797 L752,509.389831 C752,503.245763 751.363803,497.737288 750.091408,493.076271 C749.031079,488.838983 746.91042,484.601695 743.941499,481.211864 Z" id="Path" fill="#000000" fill-rule="nonzero"></path>
        <path d="M863.495968,550.547842 C865.40121,548.851782 866.883065,546.5197 867.729839,543.763602 C868.576613,541.007505 869,537.615385 869,533.375235 L869,481.645403 C869,467.228893 864.766129,457.052533 856.298387,451.116323 C847.830645,444.968105 834.493952,442 816.5,442 C808.243952,442 800.834677,442 794.483871,442 C788.133065,442 782.840726,442.212008 778.818548,442.212008 L773.949597,468.076923 C777.125,467.864916 780.512097,467.864916 784.322581,467.864916 C788.133065,467.864916 791.731855,467.652908 795.330645,467.652908 L805.703629,467.652908 L814.383065,467.652908 C819.040323,467.652908 822.850806,468.076923 825.602823,468.712946 C828.354839,469.348968 830.471774,470.409006 831.953629,471.893058 C833.435484,473.377111 834.493952,475.073171 834.917339,477.193246 C835.340726,479.313321 835.764113,484.613508 835.764113,487.581614 L835.764113,489.913696 C832.800403,488.429644 829.201613,486.945591 824.967742,485.885553 C820.522177,484.825516 814.806452,484.189493 807.608871,484.189493 C792.790323,484.189493 781.782258,486.733583 774.796371,492.033771 C767.59879,497.333959 764,505.814259 764,517.474672 L764,521.926829 C764,527.227017 764.635081,531.679174 766.116935,535.919325 C767.59879,539.947467 769.927419,543.551595 773.314516,546.307692 C776.701613,549.275797 780.935484,551.395872 786.227823,552.879925 C791.520161,554.363977 798.294355,555 806.33871,555 L844.443548,555 C848.889113,555 852.699597,554.575985 855.875,553.939962 C859.050403,553.515947 861.590726,552.243902 863.495968,550.547842 Z M835.788043,532 L812.896739,532 C806.961957,532 802.722826,531.145299 800.391304,529.222222 C798.059783,527.299145 797,524.521368 797,520.247863 L797,518.752137 C797,514.478632 798.271739,511.273504 800.603261,509.564103 C802.934783,507.854701 807.597826,507 814.380435,507 L817.347826,507 C824.978261,507 829.853261,508.068376 832.396739,509.991453 C834.728261,512.128205 836,515.333333 836,519.606838 L836,532 L835.788043,532 Z" id="Shape" fill="#000000" fill-rule="nonzero"></path>
        <path d="M958,529.590973 C957.366569,529.590973 956.099707,529.590973 954.199413,529.590973 C952.29912,529.590973 950.398827,529.590973 948.498534,529.590973 L942.375367,529.590973 L937.730205,529.590973 C933.929619,529.590973 930.973607,529.377997 928.86217,528.952045 C926.539589,528.526093 924.85044,527.461213 923.583578,526.183357 C922.316716,524.905501 921.472141,522.988717 921.049853,520.64598 C920.627566,518.303244 920.416422,515.32158 920.416422,511.700987 L920.416422,470.809591 L953.98827,470.809591 L954.621701,444.400564 L920.205279,444.400564 L920.205279,405 L886,410.324401 L886,512.339915 C886,520.858956 886.633431,528.100141 887.900293,533.637518 C889.167155,539.174894 891.489736,543.860367 895.079179,547.055007 C898.668622,550.462623 903.313783,552.592384 909.648094,554.083216 C915.771261,555.361072 923.583578,556 933.296188,556 L937.941349,556 C939.841642,556 941.741935,556 943.853372,556 C945.753666,556 947.653959,556 949.343109,556 L952.932551,556 L958,529.590973 Z" id="Path" fill="#000000" fill-rule="nonzero"></path>
        <ellipse id="Oval" fill="#000000" fill-rule="nonzero" cx="602" cy="421.5" rx="17" ry="16.5"></ellipse>
        <polygon id="Path" fill="#000000" fill-rule="nonzero" points="585 556 619 556 619 446 585 451.329457"></polygon>
        <polygon id="Path" fill="#000000" fill-rule="nonzero" points="139 406 5.52599388 406 0 435.278642 51.4342508 435.278642 51.4342508 556 87.1406728 556 87.1406728 435.278642 133.261468 435.278642"></polygon>
    </g>
</svg>