<svg height="960" viewBox="0 0 960 960" width="960" xmlns="http://www.w3.org/2000/svg"><g><path d="m277.377274 3c-54.789709 0-121.418409 25.6332581-175.422542 66.2186288-58.4698922 43.9414922-94.954732 99.4439342-94.954732 154.5589442v512.446886c0 54.848651 38.7715109 109.982104 100.412012 154.75113 54.875614 39.85574 121.332729 66.024411 169.965262 66.024411h1.418139 1.431451l2.913352-.02676 1.203784-.01224 1.217848.023516c4.346883.059848 8.713955-.053735 13.095676-.341661l1.425476-.101855 2.035343-.085106c10.963103-.490044 21.529898-1.302299 31.998242-2.422279l1.864415-.204615 430.733062-32.562866c103.165684-7.799276 186.285938-98.786589 186.285938-203.617864v-475.294655c0-104.832838-83.119937-195.8204491-186.285969-203.619751l-466.412686-35.26057247-1.550104-.10995821c-4.647763-.30799799-9.27226-.41910946-13.865108-.33342169l-1.051133.02408837.437984.00690742c-2.297401-.04048564-4.595556-.06090742-6.89571-.06090742zm0 40c2.064195 0 4.12743.0183342 6.190925.0546979.305536.0053843.611155.0037653.916616-.0048555 4.217424-.1190259 8.487814-.0164554 12.801154.309631l466.412686 35.2605725c82.173566 6.2122817 149.301345 79.6940051 149.301345 163.7335691v475.294655c0 84.03794-67.128034 157.519422-149.301345 163.731684l-431.060566 32.588638c-.235329.017791-.470325.039746-.704877.065855-10.29655 1.14614-20.663572 1.96931-31.459971 2.455019l-2.612749.11284-.574523.03822c-3.701177.279808-7.38058.395787-11.034012.349621l-1.368812-.024909c-.231507-.005502-.463093-.006983-.694651-.004443l-2.781669.024972c-1.369279.014233-2.70872.014233-4.029551.014233-39.196182 0-97.884582-23.109602-146.459151-58.388941-52.3259968-38.003972-83.918123-82.928272-83.918123-122.3866v-512.446886c0-40.435932 29.6037027-85.470467 78.985897-122.582342 47.501296-35.6983363 105.977626-58.195231 151.391377-58.195231z"/><path d="m121.119631 206.593322v545.81552c0 113.92058 79.709403 201.121578 178.648334 193.646355l466.694226-35.260572c97.972517-7.402207 177.141551-94.01205 177.141551-193.646355v-475.294655c0-99.635884-79.168733-186.2460104-177.141551-193.6482396l-466.694226-35.2605725c-98.939239-7.47524615-178.648334 79.7261254-178.648334 193.6485191zm177.141551-173.7053598 466.694226 35.2605725c87.478656 6.6093543 158.648334 84.4685623 158.648334 173.7050803v475.294655c0 89.234909-71.169948 167.093861-158.648334 173.703195l-466.694226 35.260573c-86.511971 6.536317-157.141551-70.731479-157.141551-173.703196v-545.81552c0-102.973561 70.629316-180.2416972 157.141551-173.7053598z"/><path d="m476.698508 317.751275c3.254986-1.853212 6.928004-.791406 9.334612 1.369633l.294108.275724c2.346027 2.296353 3.299186 5.659374 1.067547 8.157407l-.072775.077961-.046434.116558c-.656683 1.56773-1.700168 2.728947-3.800121 4.452932l-.599411.484859-1.250725.992002c-3.920844 3.148193-4.897149 5.228566-3.037862 8.851772 10.329933 13.595316 10.851652 30.698522 1.714881 44.765072-2.638252 5.796798-3.013246 11.096184-1.413329 18.246597l.219861.943353.242118.965506c.211.81414.445036 1.652562.70174 2.518282l.3189 1.052161.340517 1.079524c.058547.182266.117988.36572.178321.550386l.372678 1.122742c.063888.189614.128663.380488.194321.572647l.404517 1.168565 1.639218 4.593406.418615 1.19239.396662 1.154295.374762 1.117944.352917 1.08334.331126 1.05048.309389 1.019367c.049757.167399.098609.333574.14656.498562l.276885.97597c.088692.320768.173783.637078.255283.94922l.233736.924217.212242.900958c1.141909 5.04283 1.251153 9.049469.372043 13.44929l-.079958.556445-.129294.821208-.093338.542193-.099774.540922-.106829.542184-.174828.821184-.127177.556419-.136399.566544-.146242.579201-.23917.898074-.264798.940797-.292515.992065-.436748 1.417276-.365316 1.144928-.400001 1.224683-.590898 1.771748-1.73217 5.094859-.222566.665001-.335169 1.015186-.191223.590012-.366689 1.160032c-.118709.382303-.233884.76028-.345489 1.134068l-.32406 1.108943c-3.080484 10.783799-3.019727 18.044381 1.160963 25.3569 6.774788 17.285385 8.170209 32.952748 2.709033 46.707516l-.119588.41075-.392036 1.298026-.29464.940214-1.506782 4.641606-.50081 1.569098-.245102.788641-.158439.521118-.301592 1.023828c-.09711.337243-.190783.670493-.280971.999865l-.260061.9766c-2.245575 8.686808-1.915223 14.631752 1.942846 20.124055 7.504847 13.325882 7.845044 28.264944-.273901 40.212679-3.191635 3.490534-2.908644 6.076371.466819 10.079326l.411358.477614.439754.49153.468013.506287 2.018396 2.112487.377386.402235c2.403051 2.582133 3.710069 4.528685 4.176753 6.686946l.053977.270947.034791.19077-.771404 1.238829-.31646.499311-.293138.44933-.143114.213654c-2.468966 3.651628-4.948993 5.296855-8.245152 4.30315l-.24265-.077429-.183724-.110272-.431599-.40126-.448853-.405171-.473495-.415816-.505525-.433198-.834506-.697118-.948134-.77411-1.604242-1.292822-.642697-.520124-.389517-.318746-.75201-.625649c-5.628213-4.738667-8.11512-8.183125-8.443023-13.039127l-.014683-.255839-.068357-.237964c-1.088764-3.931647-.207943-7.621141 2.60232-13.127471l.436005-.839833.464916-.86863.800084-1.45117 1.276597-2.306867.594069-1.099443.458384-.88403.133-.266861.132453-.271848c.151564-.314764.294473-.6245.44685-.964296 1.886693-5.487409 1.059247-10.355034-2.201655-17.872316l-.216115-.494048-.339328-.763133-1.242508-2.747173-.412681-.918604-.229455-.518175-.437522-1.009876c-.070545-.16546-.139903-.329522-.208075-.492231l-.394802-.960369c-2.28347-5.669017-3.031397-9.698574-2.277852-14.145341l.052672-.300321-.028214-.300796c-.364525-4.053765.157009-7.764458 1.699872-12.724911l.301289-.945119c.05222-.16009.105447-.321499.159683-.484273l.337566-.993431.361999-1.028556.38663-1.066013.411459-1.105804.431498-1.134933 1.420505-3.689298.333539-.884441.199434-.53758.381054-1.05298.357176-1.024537c.057531-.168462.114061-.335794.169586-.502027l.321078-.984417c2.214333-6.963603 2.560233-11.997227.789741-17.347906l-.126959-.373845c-8.284465-24.283029-9.629983-44.558519-1.834063-62.714153 3.292873-6.234981 3.775728-12.275071 1.944129-20.299099l-.235811-.992597c-.453404-1.838484-1.022427-3.781432-1.701463-5.853494l-.381259-1.143167-.402879-1.169667-.813341-2.290248-1.375431-3.809823-.677744-1.91367-.45939-1.326646-.419991-1.2438-.382868-1.170176-.348019-1.105773-.315448-1.050592-.193328-.674292-.180537-.656597c-.029061-.108111-.057617-.215597-.085682-.322518l-.162616-.635179-.151512-.624315-.141081-.616185-.131326-.610785-.122245-.608118-.113838-.608184-.106105-.610982c-.017077-.102215-.033861-.204661-.050364-.307394l-.095771-.620301c-.074672-4.041092.41686-7.831742 1.573802-12.165629l.268092-.972351c.279126-.981938.591475-1.993606.938134-3.043714l.358138-1.063244c.061609-.17945.124181-.360049.187722-.541836l.392902-1.105312c.067433-.186704.135845-.374677.20524-.56396l.428212-1.151736.452053-1.185104.476137-1.220409.500463-1.257648.788426-1.942194 1.328715-3.242301.707278-1.742881.338289-.844543c1.519267-4.012083 1.012902-7.481049-1.552402-12.795883l-.371316-.753824c-.064114-.127715-.129342-.256487-.195685-.386348l-.411441-.792468-.438216-.820033-.465011-.849041-1.248939-2.251526-.244689-.44679-.467668-.869791c-.226612-.427194-.442404-.843064-.647441-1.248638l-.395751-.797724c-2.288688-4.707625-3.034686-8.03118-2.348229-11.745701l.060519-.310486.036288-.110117c3.841069-8.275892 7.919361-13.780108 13.883933-17.563871zm39.708547 2.029077c5.468274-1.370207 9.431677 1.312286 10.250576 5.962151.772099 4.384135-1.594648 8.726373-6.011956 10.004779l-.247675.066718-.226078.074861c-4.337919 1.470386-4.545649 4.794352-1.859026 10.301961l.298872.598472.211903.40961.370074.693117.430832.779277 1.675577 2.959504.212093.385214c5.922411 9.507778 5.249303 20.251983-.345926 32.601399l-.451924.978295c-.693134 1.472466-1.454675 2.967579-2.281846 4.485951-2.799963 6.014755-2.694027 11.342071-.065877 19.550381l.314419.960101c.108523.324431.220756.653327.336675.98689l.3588 1.014898.380793 1.044123c.065291.176524.131493.354316.198603.533402l.413538 1.090245 1.350705 3.497825.217801.571953.416855 1.114885c.067395.182673.13375.363805.199067.543437l.379449 1.060127.354582 1.026144c.228111.673218.43968 1.325128.634781 1.958421l.280311.936315c1.429215 4.922802 1.806843 8.74032 1.170623 12.830973l-.050676.307219.037024.269435c.462541 3.559843.296921 6.749863-.609178 10.749672l-.18465.784585-.203324.806709c-.035454.136401-.071693.273803-.108721.412245l-.231674.84346-.2508.870335c-.043404.147401-.087612.296001-.132629.44584l-.279828.914213-.299407.94584-.319166.979368-.339106 1.014796-.359228 1.052126-.576966 1.652339-.996084 2.793101-.562792 1.599161-.385035 1.126687-.363321 1.096454c-.117471.36058-.231297.716322-.341452 1.067428l-.319427 1.03961c-2.672471 8.892899-2.845873 14.787691-.063998 21.221909l.378885.836204.363909.834746c.53506 1.252244 1.022463 2.507787 1.475184 3.803604l.296818.870251.287397.884619.278829.901423.271116.920659c.04459.155182.088895.311267.132932.468305l.261148.954082.255572.979405.250848 1.007165.24698 1.037359c.040888.175545.081651.352449.122306.530763l.242779 1.087215c.040295.184158.080518.369828.120687.55706l.2405 1.142549.24005 1.182481.240453 1.224849.241711 1.269651.243823 1.316888.246789 1.36656.800021 4.508896.482741 2.65136.36917 1.923951.234813 1.167327.006482.160414-.095966.737401c-.068017.489374-.144282.975061-.229805 1.461658l-.135353.731153-.149997.735966c-.052523.246508-.107613.494392-.165397.744227l-.181555.755935c-.063296.254313-.12941.511152-.198471.771091l-.216143.789696c-.037538.133357-.075845.267634-.114935.402901l-.244071.824066c-.042288.139517-.085392.280168-.129326.422026l-.273704.866193-.294405.898589-.315864.934431-.338079.973722-.361053 1.01646-.384784 1.062646-.40927 1.11228-1.397229 3.751401-.403063 1.103741-.565997 1.58477-.351916 1.011961-.331835.97846-.31197.946794-.292323.916963-.27289.888966-.253675.862805c-.081379.283445-.159592.562836-.234675.838478l-.215892.815986c-.034428.134225-.068083.267589-.100969.400132l-.188122.785688c-.835168 3.623339-1.074401 6.661785-.816571 9.954462l.023124.276853.39575.940173.352931.815005.488241 1.097676.987839 2.160524 1.295775 2.792575c.182672.393447.361165.780663.535508 1.161918l.510599 1.126151.485855 1.092003c.078923.179245.156822.357134.2337.533702l.449043 1.043815.424705 1.013713c.206295.499601.403525.988521.59178 1.46767l.364573.945541c.117553.311017.231146.617962.340804.921104l.317198.898286c1.934517 5.620308 2.458555 9.965133 1.758146 14.884865l-.056252.28701-.119152.565273-.128852.555928-.139561.549366c-.024208.091168-.048905.182179-.074111.27309l-.157512.544737-.170739.545129-.184974.548303c-.064142.183605-.130825.368204-.200216.554258l-.216465.562996-.233722.574515c-.040448.096867-.081657.19433-.123647.292447l-.261496.59701c-.045203.100964-.09123.202698-.138101.30526l-.291537.625765-.312824.648412-.335118.673841-.358419.702052-.382728.733044-.621875 1.163764-.447908.822697-.475742.863427-1.532227 2.755767-.531272.971397-.472135.879647-.553987 1.063631-.250976.49792-.237394.482979-.226635.473778-.325952.705975-.135918.302861c.435337 1.302416 1.258293 2.405329 2.850898 3.841388l.476302.419829c.082985.071635.167797.144141.254478.217575l.542843.452201c.094322.077376.190596.155795.288862.235314l.61384.490784 1.593931 1.243504.375437.295002c.18266.144402.360611.28737.533822.429008l.50538.421029c4.419861 3.75525 5.361056 6.617441 2.204441 10.645958-2.785422 4.056-6.62919 4.412394-10.949893 1.871202-2.989962-1.758526-6.093151-4.87003-8.427883-8.041687l-.267458-.368107-.273184-.244392c-3.331846-3.036527-4.862291-6.362606-4.891582-10.132094l.001842-.366179.010679-.357755c.084544-2.018623.524072-4.010753 1.396063-6.422786l.289831-.776174c.253656-.65931.537826-1.350954.853921-2.083066l.39473-.89848.42592-.940454.490252-1.055791 1.457169-3.092256.313229-.675207c.139592-.303089.275187-.601982.406749-.896833l.382546-.872575c.185186-.430377.361211-.852.527951-1.265386l.321063-.81594c2.520297-6.576297 2.541114-11.046474-.485153-15.65424-10.590115-15.193101-8.858675-33.529871 1.91369-55.300235l.271284-.547157-.031334-.858256c-.500058-12.116612-2.893754-23.647518-7.269152-34.260103l-.379889-.907394-.36886-.855444c-2.658586-7.569551-2.5167-14.570539.091992-24.492499l.305844-1.135906c.158173-.574381.32421-1.158541.498049-1.753115l.358064-1.203221.378764-1.232115.399356-1.262135.41984-1.293279.440218-1.325549.544085-1.611637 1.284618-3.785905.808437-2.438237.39406-1.227167.292636-.934658c2.117845-6.175836 1.954021-11.47828-.410589-19.481874l-.300538-.993775c-.103842-.33592-.211345-.676584-.322503-1.022233l-.344437-1.052151c-.118464-.355865-.240577-.71696-.366336-1.083526l-.388202-1.11636-.410037-1.150652-.431837-1.186403-1.091803-2.948344-.430564-1.172513-.429736-1.193693c-.069724-.196206-.138497-.391061-.206318-.584593l-.39548-1.14556-.372524-1.115234-.349477-1.086318c-2.7033-8.578642-3.185029-14.516755-1.228418-21.063554.381932-2.002938 1.008518-3.902654 2.029889-6.24823l.377121-.847258c.131334-.289186.268376-.585438.411372-.889649l.447091-.937404.237398-.488287 1.402805-2.838215.44549-.921167.417407-.886634c.067236-.145009.133307-.288666.198216-.431014l.375544-.838718.347809-.809366c2.003931-4.772279 2.517747-8.071405 1.677179-11.911633l-.06125-.271022-4.673762-9.949088-1.026604-2.204719-1.258273-2.729925-.589571-1.29289-.56782-1.255391-1.084267-2.429928-.580656-1.321278.02056-.141413c1.155081-7.944416 6.956781-15.303519 15.51934-20.764706l.461339-.29074zm72.287168 3.582493h.157327c12.625827-.087581 24.079507 13.189145 22.659009 24.14155l-.15951.544861-.165714.534681-.173666.528976c-.029704.087936-.059812.175821-.090361.263748l-.188869.528814-.201189.534303-.215254.544268c-.037146.09179-.07495.184183-.113449.27727l-.23963.567611c-.041426.09624-.08362.193363-.126619.29146l-.267936.601026-.288991.6289-.311792.661251-.336342.698079-.362637.739383-.597082 1.196314-1.562682 3.082845-.452703.910472-.421241.863872-.391041.821268-.362105.782656-.334432.748039-.308022.717417c-.098413.234479-.192634.46452-.282875.690788l-.258991.668155c-.041246.109694-.081548.218613-.120934.326837l-.225535.641692c-.143307.423135-.272797.837838-.390155 1.249433l-.167147.615729c-.105645.409821-.2.819197-.284748 1.233455l-.104907.541002.032949.189056.107461.573288c.150788.757914.332793 1.49362.560246 2.25118l.179334.572955.197712.58528c.034557.098804.069936.198293.106164.298554l.22778.611513c.039735.103692.080376.208328.121948.313993l.26085.647041c.045414.110129.091816.221461.139234.33408l.296922.691861.322638.726906.349687.766079.378073.809385.407791.856821.438844.908387 1.029549 2.104279.67188 1.400645.414262.887083.387797.852442c.06245.139316.123814.277284.1841.413954l.348849.80482.323381.775967c1.65749 4.065664 2.245314 6.999052 2.035169 10.380908.668045 6.023476-.050433 11.572812-2.288412 18.769425l-.34711 1.092112-.370002 1.118411-.392993 1.146304-.416086 1.175785-.439277 1.206859-.462568 1.239523-.485959 1.273779-.50945 1.309626-2.593146 6.567092-.881854 2.301677-.137763.36593-.001928.325722c-.011392 3.183319.392422 6.265171 1.284388 9.945435l.255422 1.01907c.089211.344987.182511.695445.279956 1.0519l.304819 1.087882.330012 1.127021.355533 1.169314.381383 1.214762.407563 1.263365 1.801053 5.425483.517246 1.593304.473623 1.495106.292322.946583.274146.909537.256455.875131.239249.843364.222528.814236.206291.787747.19054.763897c.030471.125476.060306.250067.089514.37383l.167822.733071c.05349.241335.104557.479795.153281.715819l.139228.701206.125657.689233.112573.679898c.017698.112685.034872.225091.051531.337273l.093854.670844.081982.668107.070593.66801.059691.670551c.009066.112117.017699.22445.025908.337053l.044245.679311.034554.688451.113171.737163c.539108 3.788493.369707 7.28866-.582629 11.641946l-.19412.85353c-.033989.144133-.068798.28923-.104429.43533l-.223674.888938c-.03893.150264-.078688.301607-.119275.454068l-.253498.928483-.273531.957145-.293683.987646-.313956 1.019987-.334349 1.054167-.35486 1.090185-.375493 1.128044-.396246 1.16774-1.400854 4.050995-.408135 1.201028-.38222 1.149038-.356878 1.10057-.33211 1.055625c-.159959.517163-.310845 1.018793-.45298 1.506869l-.272699.958671c-.087074.313925-.170355.622414-.249938.926053l-.227751.896958-.206136.871383c-.488802 2.149428-.78035 4.092124-.914965 6.075742-.384849 5.670948.781383 10.760155 3.882032 15.699973 8.007494 14.529709 6.772101 32.207386-2.49677 48.105218-2.854384 4.726378-2.029263 8.844607 1.914536 15.167639l.576835.908356 1.073526 1.645681.802817 1.226084.482448.752113.456126.7321c.073817.120402.146529.24001.218132.358844l.416279.703872c3.491859 6.022483 3.963249 10.059436.842682 14.91143l-.255898.289962-.37686.443781-.252682.30944-.258712.326467-.408524.533167-.604835.819732-.70423.982823-1.62422 2.30299-.419323.584677-.366571.502934c-4.551327 6.195293-8.559061 8.948395-14.501164 8.376173l-.344977-.036701-.177216-.055316c-3.409438-1.815421-4.687569-4.160479-4.100881-6.999813.368661-1.784168 1.381243-3.610566 3.188311-5.969654l.512647-.656963c.088762-.111818.179194-.224829.27131-.339078l.573014-.70073.914918-1.089431 1.322901-1.552579.534174-.633445.485754-.585871c.077103-.093952.152322-.186126.225724-.276622l.419145-.523668c.066402-.084196.131121-.166917.194224-.248268l.359758-.472453c.227622-.30508.431525-.591467.61599-.865674l.262652-.402988c.041524-.065913.081967-.131269.121395-.196168l.11531-.193432.090427-.158422-.242364-.594647-.233021-.550656-.244425-.558847-.259097-.574456-.27704-.597485-.456357-.955637-.336205-.687517-.560432-1.125462-1.553725-3.062766-.429384-.853157-.254391-.512247-.488226-1.002903c-.237256-.494444-.464223-.978565-.680882-1.453216l-.419565-.936926c-2.975924-6.781886-3.73137-11.64861-2.203079-17.286668.388399-1.655687.931241-3.257354 1.726003-5.133761l.356321-.821954c.062052-.140115.12546-.281871.19026-.425389l.405789-.883199c.07051-.151042.142482-.304084.215954-.459247l.459093-.957384 1.451694-2.956985c.16353-.334307.321565-.661071.474177-.98079l.441635-.938515c2.34029-5.051049 3.223428-8.319296 2.970123-12.038884-.085151-2.894763-.54076-5.60291-1.488693-8.908178l-.270825-.916831c-.047203-.155469-.095445-.312318-.144739-.470622l-.308475-.967869c-.053546-.164417-.108166-.330436-.163872-.49813l-.34736-1.026856c-.060096-.17469-.1213-.351202-.183624-.52961l-.387481-1.093794-.414916-1.142834-.674179-1.816611-.667985-1.792704-.404382-1.104466-.382563-1.066746-.360851-1.030915-.339249-.99697-.317757-.964916-.296372-.934747-.275099-.906468c-.176331-.595306-.338553-1.173017-.48681-1.735651l-.211929-.832959c-1.041046-4.24845-1.247708-7.666959-.687731-11.427374l.107036-.675051-.021975-.310572c-.235535-3.600513.202145-7.009242 1.406168-11.363141l.269769-.94786c.046928-.160526.094842-.322361.143746-.485557l.305339-.995922c.105764-.337694.215522-.681246.329309-1.031071l.353481-1.068705.377856-1.108827.402436-1.151434.205415-.578232 1.056462-2.93432.406015-1.140463c.06589-.187055.13089-.372619.194999-.556724l.373951-1.087342.35251-1.053753.331021-1.021619.309479-.990945c.049782-.162683.098665-.324148.146646-.484426l.277074-.947667c2.041235-7.159971 2.172132-11.936848.290118-17.287351-10.198077-22.209019-11.376669-41.697899-1.020304-58.682546 3.325013-6.068465 3.192808-11.560893.170329-19.909365l-.347696-.939536c-.059922-.158606-.120828-.318235-.182715-.47891l-.383054-.976757c-.065794-.16494-.13256-.330969-.200297-.498109l-.418024-1.016332-1.98071-4.637272-.40063-.947997-.460917-1.114206-.432923-1.077743c-2.513765-6.361355-3.521565-10.869623-3.12644-15.612617l.036172-.395838.028772-.12446.110611-.295693.223729-.583193.22889-.576387.236231-.574524.245753-.577601.391252-.882985.279096-.606919.451487-.950128.49744-1.012652.550751-1.091857.829984-1.607845 2.287969-4.348363.710709-1.378642.432794-.857949.402977-.816152c.064821-.132881.128506-.264275.191109-.394309l.363059-.764899.339655-.738358.318813-.71792c.103083-.236579.203119-.470768.300538-.703585l.284825-.695352.169946-.432068-.11229-.14321-.308628-.37538-.33956-.393674-.374751-.417187-.414202-.445916-.457914-.479863-.778148-.794861-2.311576-2.318549-.692403-.708903-.399582-.417084-.253326-.268965-.488909-.530844-.465022-.521559-.440858-.512474c-.071447-.084665-.141876-.168961-.21128-.25289l-.404094-.499214c-3.786547-4.783887-4.089233-8.363418.21564-11.542096zm43.530141 1.089132.126667.049806c16.411089 6.452856 24.437874 24.870413 13.255504 35.276821-4.047156 4.804242-4.88917 9.405386-3.147746 15.924606l.208145.746333c.073038.251585.149722.506015.230018.763405l.251689.78116c.262459.790267.557125 1.608193.883096 2.456856l.336372.859022.357042.880198.377512.902057.39778.9246.586109 1.333801 1.040427 2.347796.42316.965741.452536 1.054152c.292433.690742.566367 1.357872.821886 2.004027l.369478.953829c2.015565 5.319623 2.703725 9.218997 2.116658 13.317214-.077212.403758-.159047.804902-.246163 1.206049l-.18147.80307-.196722.807728-.213145.817035c-.036957.137206-.074648.274994-.113096.413461l-.239971.839716-.259317.860651c-.044896.145444-.090648.291955-.137278.439629l-.29053.900772-.312799.933335c-.054053.158527-.109084.318605-.165116.480331l-.348396.990897-.373591 1.035085-.399953 1.083925-.65192 1.727634-1.325896 3.455761-.525643 1.382919-.448205 1.202728c-.072598.197124-.144146.392613-.214649.586515l-.410514 1.144715-.385634 1.108805-.360954 1.075105c-1.917739 5.824459-2.724615 10.22013-2.569386 14.842446l.014651.368287.213737.782881.138041.496133.186059.656608.285159.97999.297944.991735.426404 1.368225.340324 1.055039.487246 1.464421.532507 1.552316.585403 1.664159.817765 2.273957 1.127148 3.074664 2.222573 5.993272.88018 2.411129.471733 1.316262.584111 1.664203.554736 1.624674.109495.728799c.490344 3.498694.415007 6.672182-.308564 10.408928l-.158981.781449c-.084142.395034-.175283.796752-.273512 1.206136l-.20594.829284c-.071815.280029-.146808.563758-.225006.851477l-.244237.87542-.26363.901112c-.045563.152423-.091941.30599-.139137.460736l-.293023.942927-.312822.972989-.332783 1.004801-.352906 1.038361-.567447 1.624291-.403927 1.12991-.424618 1.169591-1.154933 3.134823-.424329 1.171168-.595926 1.686974-.370377 1.080547-.348965 1.047199-.327647 1.015507c-.052837.166703-.104789.332153-.155859.496387l-.29585.971076c-.285295.957026-.538972 1.872727-.761462 2.75456l-.21211.87082c-1.143229 4.873803-1.289608 8.739873-.517455 12.954948l1.002551 2.495225 1.663689 4.087782.675316 1.675707.505063 1.272584c.082129.208722.163239.415784.243337.621232l.468515 1.213664.444611 1.177029.421075 1.142511c.136476.375318.269092.745237.397908 1.110108l.37511 1.079822c.060639.177565.120344.353955.179122.529216l.341605 1.038362c.165303.512756.322403 1.016139.471507 1.51134l.287609.979844c.046178.161606.091484.322392.135924.482401l.256317.951082.235917.934553c.639882 2.626483 1.038558 5.079415 1.23379 7.575422.646912 8.270671-1.385087 15.654293-6.732171 22.583431-3.161439 3.638978-4.141002 7.16531-3.395192 10.974931l.049156.242486.107395.478429c.303448 1.266457.748251 2.470252 1.451155 3.903302l.275916.54871c.096157.186866.196574.377883.301481.573624l.328414.601958c.057056.102877.115292.207078.174735.312673l.371379.650874.61441 1.046541.449828.749505 1.458316 2.384307.52039.861773c.083538.139846.165497.277854.245902.414104l.463994.797048.427942.758713.393128.724228c.062689.118045.123978.234814.183895.350386l.343225.679722c.926945 1.888845 1.471893 3.478368 1.761422 5.162731.636669 3.703883-.321772 7.16234-3.26229 10.674969-1.057728.910644-2.030548 2.040803-3.225376 3.67969l-.259544.359082-.89295 1.26877-.747345 1.072683-.454298.643101-.30506.424138c-4.217959 5.817484-8.013381 7.956559-14.331216 6.304198l-.347129-.09389-.192122-.10299c-3.885142-3.35179-3.616462-6.511003-.198339-10.651911l.392701-.4642c.067593-.07806.136254-.156471.205975-.235242l.587148-.647857.731936-.773847 1.92437-1.983609.511744-.540916c.08288-.088769.164554-.176856.245019-.264278l.46827-.516681.439171-.501502c3.538248-4.118114 4.035499-6.736549 1.247499-9.891963l-.171224-.189985c-5.405191-5.833352-7.418645-12.984957-6.581065-21.332267.673495-6.712049 3.099804-13.863504 7.097464-22.147824 1.791839-5.13412 1.593811-9.627468-.483603-16.271942l-.294922-.919661c-.102184-.311172-.20824-.627052-.318158-.9479l-.341332-.977713-.364444-1.0091-.387492-1.04206-.41048-1.076593-.957074-2.478878-.557128-1.470914-.343843-.926956-.32236-.887069-.301375-.84978-.280885-.815093-.260892-.783004-.241396-.753517-.222394-.72663-.203891-.702342-.185882-.680655c-.029508-.11178-.058285-.222764-.086344-.333008l-.159801-.652999c-.050445-.214991-.098096-.427451-.143034-.637814l-.126763-.625226-.110989-.61524c-.051634-.305557-.097538-.608344-.137992-.909824l-.073723-.60165c-.033311-.300387-.061359-.600441-.084421-.901626l-.03956-.604311-.026764-.609925c-.006844-.204533-.011637-.410436-.014464-.61814-.911633-5.340062-.352235-10.393362 1.639675-17.108377l.335563-1.103795.36064-1.134773c.124389-.383626.252951-.772723.385681-1.167598l.410684-1.202268.214707-.614713.593653-1.665818 1.338416-3.696906.42361-1.188874.402231-1.156584.380739-1.125527.359139-1.095704.337427-1.067112c.054422-.175538.107935-.349937.160536-.52322l.304652-1.026538c2.545185-8.784345 2.612976-14.694724-.120974-21.342823-9.988771-16.41057-9.714381-36.419747-.619506-55.841177 3.667099-5.911646 3.423795-11.100915-.155518-19.654724l-.382151-.897046-.405809-.922056c-.069599-.155816-.140177-.312715-.211733-.47072l-.441033-.961455-.464339-.988977-.983526-2.065531-.579643-1.229289-.448932-.974371-.42562-.948556-.402135-.923699c-.195168-.455794-.381466-.902627-.558796-1.341035l-.342677-.865745c-2.920858-7.551022-3.02296-12.584981.224873-18.071963l.132428-.221373.018344-.130562c.242826-1.598324.916595-3.139002 2.235428-5.36584l.415216-.68938 1.107047-1.783155.380549-.62779c.061298-.102461.121531-.203854.180696-.304201l.34215-.58974.316384-.565822c.151729-.277124.293745-.545714.425975-.80642l.251389-.511095c1.628353-3.423297 1.419456-5.455353-.817561-7.759803l-.120617-.121192-.246956-.136285c-3.560597-2.018047-6.328945-5.541074-7.10242-8.984027l-.066632-.322494-.051921-.303375c-.636998-4.144289 1.765773-7.263145 6.971412-8.190554z"/></g></svg>