<svg height="960" viewBox="0 0 960 960" width="960" xmlns="http://www.w3.org/2000/svg"><path d="m140.598745 26.114197c9.223275.0659668 17.699116 3.2496632 24.407263 8.5760739l725.167714 46.3304404c5.467651-1.7955221 11.432349-2.4142389 17.573125-1.600279 5.591049.7410937 10.192578 1.534843 14.174894 2.5152435 3.024178.7445181 5.970637 1.7404277 8.80746 2.9992193 16.061698 5.2380789 27.499395 20.3338269 27.499395 37.9600609v2.846719l-.053099 648.669146v1.760386c0 18.932168-13.272685 35.271484-31.803076 39.151123l-11.795456 2.469571c-8.380189 1.754529-16.58952.760546-23.765004-2.352186l-60.515365 2.217317-.772853 2.801256-8.753353 2.003596v8.254504c-30.411748 1.896585-53.893094 2.903761-70.444038 3.021527-16.550944.117767-29.744378-.628454-39.580301-2.238663l-.000455-9.45922-94.002 3.446.000587 24.255009c0 3.604061-2.723717 6.571964-6.225031 6.957588l-.000263 3.155433.075679.000574c1.104569 0 2 .89543 2 2v3.265055c0 1.104569-.895431 2-2 2h-21.935098c-1.104569 0-2-.895431-2-2v-3.265055c0-1.10457.895431-2 2-2l.074419-.000574v-3.114l-.261438.000979c-3.865993 0-7-3.134007-7-7l-.000855-22.962009-8.493.311.00086 25.306834c0 3.865993-3.134007 7-7 7l-.068567-.000804v3.572l.075311.000169c1.10457 0 2 .89543 2 2v3.265055c0 1.104569-.89543 2-2 2h-21.935097c-1.104569 0-2-.895431-2-2v-3.265055c0-1.10457.895431-2 2-2l.074786-.000169.000213-3.606732c-3.532663-.355706-6.290274-3.338048-6.290274-6.964464l-.000232-24.018834-158.215 5.8.396331 10.65397h-8.10651v31.16688l-13.795163 9.806071-29.289805-7.017463v-30.867719l-11.314654-3.087769-.000199-8.37697-52.512 1.925.000008 34.401611c0 3.74112-2.934817 6.796777-6.627752 6.990272l-.000963 3.314147.209779.000782c1.104569 0 2 .895431 2 2v3.712135c0 1.10457-.895431 2-2 2h-23.618353c-1.10457 0-2-.89543-2-2v-3.712135c0-1.104569.89543-2 2-2l.208574-.000782v-3.305l-.732245.000581c-3.865993 0-7-3.134006-7-7l-.000048-33.024611-9.045.332.000836 35.511871c0 3.865994-3.134007 7-7 7l-.527543-.000841v3.791l.210211.000983c1.10457 0 2 .89543 2 2v3.712135c0 1.10457-.89543 2-2 2h-23.618353c-1.104569 0-2-.89543-2-2v-3.712135c0-1.10457.895431-2 2-2l.209142-.000983.000251-3.796545c-3.726013-.158027-6.698251-3.228718-6.698251-6.993614l-.000293-34.139871-24.80739.909085c-5.337039 3.201369-11.495379 5.195541-18.110052 5.598045-10.971905.667643-19.567393.667643-26.767092-.240847-4.688288-.591589-10.879103-1.501975-18.6807053-2.741279-12.4459902-1.977077-22.7877447-9.563561-28.5879504-19.947772l-27.4071702-14.09457c-2.5924546-1.333211-4.9976325-2.926549-7.1836778-4.745279-15.8186799-5.311029-27.19496208-20.261243-27.19496208-37.868522v-645.434937c0-11.88579 5.28584551-23.1559729 14.42469368-30.7555426l2.796-2.3250629c1.6668489-1.3860976 3.4330232-2.6258539 5.2954508-3.6815648 1.4375423-1.6705553 3.0217008-3.2309742 4.7423864-4.6612883l49.6952405-41.309c2.3110477-1.9210506 4.8312269-3.5755394 7.5128298-4.9321463l.4696605-.2375985c.1138206-.0575811.2279159-.1146175.3422822-.1711071 7.6664235-3.7867258 16.0541669-6.148286 25.1509989-7.3786974 7.480597-1.011804 16.633871-1.4096121 27.939606-1.3287511zm-22.578141 40.9678063c-5.052158.6833403-9.318192 1.8844376-12.798101 3.6032916l-.469661.2375985-5.8400679 729.2812866-.034.00292v5.274264c7.4160839 1.178063 13.2204019 2.031613 17.4129559 2.560648 4.192553.529035 10.635856.529035 19.329909 0l-.000865-4.945832 770.759-28.254.000267 3.798598 11.795456-2.469571v-1.760386l.053099-648.67242v-1.80558c-.566987-.544085-1.17875-1.027515-1.835288-1.450289-.056619-.036458-.113376-.072344-.170464-.107781l.170464.107781c-.127763-.082272-.257222-.162247-.388376-.239926l.217912.132145c-.120437-.074763-.242345-.147531-.365726-.218305l.147814.08616c-.118866-.0704-.239124-.138913-.360775-.205539l.212961.119379c-.127445-.073106-.256461-.144084-.387047-.212935l.174086.093556c-.123871-.067843-.249186-.133729-.375945-.197659l.201859.104103c-.133315-.070289-.268268-.138362-.404858-.204216l.202999.100113c-.127977-.064544-.257426-.127095-.388346-.187651l.185347.087538c-.127883-.061658-.257201-.121371-.387955-.179141l.202608.091603c-.127869-.059144-.257142-.116387-.387819-.171727l.185211.080124c-.138345-.061124-.278297-.120072-.419856-.176844l.234645.09672c-.134868-.057115-.271232-.112205-.409092-.165268l.174447.068548c-.136503-.054745-.274501-.107467-.413992-.158164l.239545.089616c-.139643-.05375-.280821-.105421-.423534-.155013l.183989.065397c-.123592-.04492-.248358-.088251-.374296-.129994l.190307.064597c-.14378-.049963-.289118-.097816-.436013-.143559l.245706.078962c-.165937-.055001-.33391-.107244-.503919-.156729l.258213.077767c-.136665-.042557-.274678-.083288-.414039-.122192l.155826.044425c-.199039-.057935-.400868-.11209-.605488-.162465-2.312776-.569379-5.602405-1.13683-9.868889-1.702352l-.000044 3.832574-762.179-49.6669999.00089-7.1260061c-9.579572-.0685151-17.010259.254428-22.29206.9688293zm-33.4030078 20.577029-29.5599944 24.5728607.0003558 8.878717-10.0323558-.540717-2.7960056 2.325063v645.434937l12.6725653.000043-.0005653 7.041957 2.537 1.304139.0008412-659.014098h1l-.0008412 659.528098 20.573 10.58zm108.1970488 380.2612927 676.387337 1.42978c5.514582.011657 9.978862 4.485383 9.978862 9.999978v134.234508c0 5.467293-4.390802 9.921098-9.85754 9.998985l-676.387336 9.637868c-5.578.078435-10.142461-4.421456-10.142461-10.000022v-145.301097c0-5.531104 4.490046-10.011669 10.021138-10zm9.978862 20.021161v125.136446l656.387336-9.351881v-114.397084zm361.043078 86.500282c3.437654 0 6.224423 3.252676 6.224423 7.265055s-2.786769 7.265055-6.224423 7.265055-6.224424-3.252676-6.224424-7.265055 2.78677-7.265055 6.224424-7.265055zm35.951847-46.399865v32.743854h-101.821159v-32.743854z"/></svg>