<svg height="960" viewBox="0 0 960 960" width="960" xmlns="http://www.w3.org/2000/svg"><g><path d="m505.351 10.355-85.593 10.147.67794-.0453937c-187.820635 11.2919664-350.0810268 178.4351307-384.9133758 398.3579267-39.76131914 251.043089 99.3145398 482.982533 312.7843128 516.792824l2.126113.329776c11.341397 1.721999 22.71641 2.85512 34.102076 3.402669l1.254934.055198 64.814 8.251-.767875-.152764c4.61089.937296 9.248391 1.775525 13.911071 2.514021 213.639416 33.837159 418.456851-150.397319 459.468886-409.33712 41.012036-258.939801-96.849336-497.4492708-310.488751-531.2864301-35.420154-5.61000115-71.142892-5.28230409-106.416907.8041634zm101.118952 38.5362405c189.777037 30.0577298 315.050163 246.7886845 277.238597 485.5215175-37.811566 238.732832-223.926937 406.144695-413.703974 376.086965-4.090153-.647816-8.157251-1.382945-12.200266-2.204804-.483133-.098211-.969733-.178524-1.458801-.240774l-66.317765-8.441139c-.562002-.071534-1.12679-.119155-1.692835-.142736-11.273274-.469632-22.538495-1.591448-33.770652-3.370447-189.946679-30.084598-316.0608332-240.407562-279.5341582-471.027911 31.7256002-200.307558 176.9127152-351.5399459 342.7740152-364.3419266l5.032333-.3454744c.385674-.0231872.770596-.0575455 1.15428-.1030316l86.612079-10.2679554c.381281-.0452012.76118-.1013725 1.139227-.1684441 31.432698-5.5766635 63.209945-5.9457962 94.72792-.9538394z"/><path d="m177.161833 426.247015c-39.444156 249.040598 92.707156 477.671279 296.451596 509.941228s400.078572-144.333749 439.522727-393.374347c39.444156-249.040598-92.707155-477.6712787-296.451595-509.9412278-203.74444-32.26994913-400.078572 144.3337488-439.522728 393.3743468zm436.394038-373.62058c191.813251 30.3802344 317.67044 248.121658 279.826519 487.058772s-224.827021 407.129504-416.640272 376.749269c-191.813251-30.380234-317.670439-248.121658-279.826518-487.058772s224.827021-407.1295034 416.640271-376.749269z"/><path d="m226.343344 431.833378c-34.419165 225.155286 80.973185 431.995215 259.240125 461.248702 178.369604 29.270335 349.941089-130.627809 384.371177-355.854547 34.419165-225.155286-80.973186-431.995214-259.240125-461.2487021-178.369605-29.2703349-349.941089 130.6278091-384.371177 355.8545471zm381.132506-336.1185137c166.270916 27.2849477 275.608604 223.2719397 242.708466 438.4904067-32.889215 215.147016-195.193926 366.408877-361.362177 339.140776-166.270915-27.284948-275.608604-223.27194-242.708465-438.490407 32.889215-215.147016 195.193926-366.4088765 361.362176-339.1407757z"/></g></svg>