<svg width="960" height="960" viewBox="0 0 960 960" fill="none" xmlns="http://www.w3.org/2000/svg">
<path d="M359.287 3.67578C478.945 -0.126805 598.636 10.1317 715.901 34.2402L764.255 44.1816C840.443 59.8453 899.943 119.444 915.474 195.656C953.556 382.529 953.486 575.488 915.406 762.352C899.93 838.293 840.812 897.957 764.943 913.974L718.991 923.674C599.718 948.853 477.825 959.432 355.997 955.181C323.065 954.031 291.947 945.087 264.573 930.048L178.078 892.557C178.009 892.527 177.94 892.496 177.871 892.465C170.895 889.347 164.142 885.813 157.646 881.893L133.141 871.274C133.071 871.244 133.002 871.213 132.934 871.183C78.906 847.044 38.835 796.627 29.8623 735.119L25.4678 704.995C22.1316 682.125 37.2276 662.699 57.3604 657.725C44.522 539.556 44.474 420.351 57.2139 302.174C37.0296 296.548 22.083 276.818 25.4688 253.606L29.4688 226.181C38.852 161.858 81.7124 109.498 139.041 85.8945L159.277 77.0186C167.257 72.2476 175.613 68.0481 184.287 64.4746L271.337 26.2754C297.954 12.6858 327.816 4.67589 359.287 3.67578ZM409.713 42.9053C406.073 42.9008 402.433 42.9094 398.792 42.9316C395.151 42.9538 391.51 42.9902 387.869 43.0391C378.766 43.1613 369.662 43.3669 360.558 43.6562C359.957 43.6754 359.356 43.6973 358.757 43.7227C356.787 43.8061 354.825 43.9235 352.872 44.0742C351.661 44.1678 350.453 44.2744 349.248 44.3936C349.216 44.3967 349.185 44.4002 349.153 44.4033C347.296 44.5881 345.447 44.8021 343.607 45.0469C343.598 45.0481 343.589 45.0496 343.58 45.0508C342.363 45.213 341.149 45.388 339.939 45.5762C339.906 45.5814 339.872 45.5875 339.838 45.5928C267.853 56.8358 210.268 113.79 199.548 187.456L194.848 219.751C169.805 391.837 169.805 566.643 194.848 738.729L200.011 774.203C210.589 846.895 267.71 903.018 338.965 913.531C338.993 913.535 339.022 913.54 339.051 913.544C340.786 913.799 342.53 914.026 344.281 914.227C344.381 914.238 344.482 914.249 344.582 914.261C345.736 914.391 346.894 914.509 348.055 914.615C349.398 914.738 350.745 914.844 352.097 914.935C353.202 915.008 354.31 915.071 355.421 915.123C356.077 915.154 356.734 915.182 357.393 915.205L362.951 915.388C364.804 915.445 366.658 915.5 368.511 915.551C370.364 915.601 372.216 915.648 374.069 915.691C381.481 915.866 388.892 915.983 396.303 916.045C400.008 916.076 403.713 916.092 407.418 916.095C415.465 916.1 423.51 916.037 431.554 915.91C525.346 914.429 618.837 903.935 710.729 884.536L756.681 874.836C758.093 874.538 759.497 874.221 760.895 873.885C762.757 873.437 764.606 872.955 766.441 872.441C769.195 871.67 771.916 870.826 774.604 869.91C775.051 869.758 775.498 869.603 775.944 869.446C776.39 869.29 776.835 869.131 777.278 868.971C777.722 868.81 778.165 868.648 778.607 868.483C779.934 867.99 781.252 867.479 782.561 866.951C785.532 865.752 788.457 864.462 791.333 863.088C791.55 862.984 791.765 862.879 791.981 862.774C793.528 862.026 795.061 861.255 796.578 860.458C797.586 859.928 798.586 859.387 799.58 858.836C805.511 855.549 811.202 851.885 816.618 847.875C816.99 847.599 817.361 847.322 817.73 847.043C847.285 824.747 868.524 792.087 876.212 754.364C899.342 640.863 908.041 525.047 902.278 409.812C902.206 408.372 902.131 406.932 902.055 405.492C901.978 404.052 901.899 402.612 901.818 401.172C901.656 398.292 901.485 395.412 901.305 392.532C901.215 391.093 901.123 389.653 901.028 388.214C900.46 379.578 899.811 370.946 899.08 362.319C898.715 358.006 898.33 353.694 897.924 349.384C897.653 346.51 897.373 343.638 897.084 340.766C896.94 339.329 896.793 337.893 896.645 336.457C896.347 333.586 896.039 330.715 895.724 327.846C895.408 324.976 895.083 322.107 894.749 319.238C893.246 306.331 891.56 293.441 889.691 280.572C889.276 277.712 888.851 274.854 888.418 271.996C884.95 249.135 880.904 226.343 876.278 203.644C875.893 201.752 875.473 199.874 875.021 198.009C874.681 196.61 874.322 195.22 873.945 193.837C873.568 192.454 873.173 191.079 872.759 189.712C872.345 188.345 871.913 186.986 871.463 185.636C869.963 181.135 868.263 176.728 866.374 172.425C866.185 171.994 865.994 171.565 865.802 171.137C864.453 168.14 863.012 165.194 861.482 162.304C860.39 160.239 859.251 158.202 858.069 156.195C855.469 151.78 852.657 147.506 849.645 143.39C849.371 143.015 849.094 142.643 848.817 142.271C847.986 141.156 847.14 140.053 846.279 138.962C845.706 138.234 845.126 137.512 844.539 136.795C843.366 135.361 842.168 133.949 840.945 132.56C840.64 132.212 840.332 131.867 840.023 131.522C839.406 130.833 838.782 130.15 838.152 129.472C837.523 128.794 836.887 128.121 836.245 127.455C834.962 126.123 833.655 124.813 832.324 123.527C830.328 121.598 828.28 119.723 826.182 117.903C824.433 116.387 822.65 114.91 820.834 113.473C820.471 113.185 820.106 112.899 819.74 112.615C819.008 112.047 818.271 111.485 817.528 110.93C817.157 110.652 816.785 110.375 816.411 110.101C814.542 108.728 812.64 107.397 810.708 106.108C810.321 105.851 809.934 105.594 809.545 105.34C806.433 103.305 803.243 101.379 799.979 99.5674C798.755 98.8882 797.521 98.2249 796.276 97.5781C793.372 96.0686 790.414 94.648 787.403 93.3203C786.973 93.1307 786.542 92.9427 786.11 92.7568C782.654 91.27 779.131 89.9051 775.547 88.667C774.651 88.3575 773.751 88.0563 772.848 87.7627C771.944 87.4691 771.037 87.1837 770.126 86.9062C769.67 86.7675 769.214 86.6308 768.757 86.4961C764.642 85.2841 760.453 84.2369 756.199 83.3623L707.847 73.4209C707.404 73.3299 706.961 73.241 706.519 73.1504C687.33 69.2236 668.076 65.6751 648.766 62.5107C646.97 62.2165 645.174 61.9263 643.377 61.6387C637.756 60.7387 632.13 59.8705 626.5 59.0352C623.276 58.5569 620.051 58.0899 616.825 57.6328C611.144 56.828 605.459 56.0564 599.771 55.3174C593.925 54.558 588.075 53.8344 582.221 53.1445C577.369 52.5727 572.514 52.023 567.657 51.499C555 50.1335 542.326 48.9302 529.639 47.8896C526.014 47.5923 522.388 47.3079 518.761 47.0371C512.092 46.5393 505.419 46.0886 498.744 45.6807C492.712 45.312 486.678 44.9779 480.642 44.6826C477.008 44.5049 473.374 44.3405 469.739 44.1895C464.236 43.9607 458.732 43.7624 453.226 43.5947C447.821 43.4301 442.416 43.2952 437.009 43.1895C427.913 43.0115 418.814 42.9165 409.713 42.9053ZM200.163 101.189C200.016 101.254 199.868 101.318 199.719 101.379C192.475 104.351 185.508 107.878 178.874 111.91C178.117 112.37 177.331 112.779 176.52 113.135L161.574 119.689C133.923 143.908 114.677 177.635 109.054 216.2L104.827 245.189C82.1919 400.423 82.192 558.109 104.827 713.343L109.471 745.187C114.965 782.87 133.713 815.854 160.667 839.607L174.812 845.736L175.458 846.03C176.099 846.335 176.724 846.674 177.329 847.046C182.699 850.345 188.295 853.304 194.085 855.897L219.624 866.968C199.177 841.806 185.163 811.059 180.219 777.083L175.057 741.609C149.737 567.613 149.737 390.867 175.057 216.871L179.756 184.576C184.845 149.602 199.376 117.996 220.57 92.2334L200.163 101.189ZM69.4434 729.346C73.9654 760.344 88.7068 787.733 110.033 808.23C99.8745 790.007 92.8377 769.73 89.6797 748.072L85.0361 716.229C84.6607 713.654 84.2908 711.079 83.9277 708.503C76.8891 709.479 69.7149 706.636 65.2812 700.819L69.4434 729.346ZM110.191 151.733C88.5814 172.614 73.6449 200.455 69.0498 231.955L65.0498 259.38C64.9036 260.383 65.1895 261.4 65.79 262.202C70.2494 257.414 76.733 255.162 83.0947 256.021C83.7224 251.447 84.3697 246.874 85.0361 242.304L89.2637 213.314C92.4989 191.127 99.7372 170.368 110.191 151.733Z" fill="black"/>
</svg>
