<svg width="960" height="960" viewBox="0 0 960 960" fill="none" xmlns="http://www.w3.org/2000/svg">
<path d="M258.414 208.597C264.338 208.011 270.373 207.868 276.483 208.198L839.73 238.606C902.109 241.974 951 293.481 951 355.93V604.072C951 666.521 902.109 718.028 839.73 721.396L276.483 751.803C271.841 752.053 267.241 752.03 262.701 751.748C260.295 752.151 257.808 752.117 255.361 751.612L103.849 720.382C49.2198 709.121 10.0001 661.067 10 605.312V354.534C10.0002 298.598 49.4683 250.441 104.319 239.368L253.822 209.188L254.548 209.055C254.791 209.015 255.035 208.979 255.279 208.948C255.928 208.866 256.579 208.79 257.23 208.719L258.414 208.597ZM269.762 248.025C266.989 248.035 264.256 248.19 261.567 248.483C261.359 248.506 261.15 248.532 260.942 248.557L247.064 251.357C215.317 260.992 192 290.443 192 325.531V634.518C192 674.157 221.758 706.601 259.812 711.408C260.395 711.42 260.981 711.455 261.566 711.519C265.72 711.971 269.982 712.096 274.327 711.861L837.574 681.453C878.774 679.229 911 645.224 911 604.072V355.93C911 355.529 910.996 355.128 910.99 354.729C910.364 314.129 878.351 280.754 837.512 278.551L273.878 248.141C272.499 248.066 271.126 248.028 269.762 248.025ZM112.234 278.577C76.0137 285.889 50.0002 317.672 50 354.534V605.312C50.0001 642.055 75.8501 673.77 111.924 681.206L196.003 698.536C181.079 681.446 172 659.088 172 634.518V325.531C172 301.051 181.011 278.766 195.838 261.699L112.234 278.577ZM550.839 523.534C569.034 523.132 584 537.772 584 555.971V582.539C584 587.933 579.721 592.355 574.33 592.533L529.33 594.019C526.615 594.108 523.981 593.09 522.032 591.197C520.084 589.305 518.989 586.701 519 583.984L519.111 555.842C519.181 538.253 533.254 523.923 550.839 523.534ZM551.28 543.529C544.536 543.679 539.138 549.175 539.111 555.921L539.041 573.688L564 572.863V555.971C564 548.99 558.259 543.375 551.28 543.529ZM127.215 429.44C138.56 428.995 148 438.071 148 449.425V508.624C148 519.977 138.56 529.054 127.215 528.608L86.2148 526.999C75.4829 526.577 67 517.754 67 507.014V451.035C67 440.295 75.4829 431.471 86.2148 431.05L127.215 429.44ZM87 451.035V507.014L128 508.624V449.425L87 451.035ZM634 375.024C639.523 375.024 644 379.502 644 385.024V445.024C644 450.547 639.523 455.024 634 455.024C628.477 455.024 624 450.547 624 445.024V385.024C624 379.502 628.477 375.024 634 375.024ZM470 368.024C475.523 368.024 480 372.502 480 378.024V438.024C480 443.547 475.523 448.024 470 448.024C464.477 448.024 460 443.547 460 438.024V378.024C460 372.502 464.477 368.024 470 368.024Z" fill="black"/>
</svg>
