<svg height="960" viewBox="0 0 960 960" width="960" xmlns="http://www.w3.org/2000/svg"><path d="m318.990562 177.248055 514.622644 23.338398c68.367277 3.100491 122.201095 59.431031 122.201095 127.868576v285.583174c0 67.638917-52.625576 123.603072-120.136743 127.758245l-531.545339 32.71552c-1.997845.122963-4.002101.095793-5.995879-.081281l-160.067438-14.216146c-74.9353738-6.655272-132.38414166-69.432392-132.38414166-144.662725v-.106065l.75265508-283.793593c.19250203-72.597733 55.84740818-133.003779 128.18649558-139.1295l179.179346-15.173024c1.725082-.142649 3.457827-.180012 5.187305-.101579zm-83.551595 128.741339c-.060809 1.373839-.088033 2.748891-.088033 4.124073l.514128 320.490392v20.091084c0 45.170558 36.617973 81.788531 81.788532 81.788531 3.590086 0 7.176277-.236378 10.735303-.707602.278294-.036847.558017-.061959.838424-.075269l84.611439-4.01681 419.38153-25.811797c46.413928-2.856681 82.594011-41.332037 82.594011-87.833793v-285.583174c0-41.086775-28.222647-75.826392-66.676166-85.392649l-519.807476-23.005228c-49.657008-2.197941-91.693751 36.275234-93.891692 85.932242zm23.706253-83.8694-121.146163 10.260015c-51.6707763 4.375515-91.4242807 47.52269-91.5617822 99.378214l-.7525145 283.793593c0 54.51031 41.6261635 99.997285 95.9227527 104.819554l112.710844 10.012682c-23.432343-18.648332-38.453295-47.414555-38.453295-79.689109l.000013-20.075045-.514141-320.474354c0-1.680778.033273-3.361397.107596-5.040533 1.509944-34.113419 18.403045-63.908369 43.68669-82.985017zm382.921849 346.357212v65.271251l-92.526001 5.609693v-67.249466c0-20.835113 20.712651-38.296079 46.263001-38.995187 25.550349-.693616 46.263 15.141482 46.263 35.363709zm-525.919417-162.430753c30.467316 0 53.69984 31.915386 53.69984 70.032103 0 38.116716-23.232524 70.032102-53.69984 70.032102-30.4673154 0-53.699839-31.915386-53.699839-70.032102 0-38.116717 23.2325236-70.032103 53.699839-70.032103zm0 20c-17.8021935 0-33.699839 21.83919-33.699839 50.032103s15.8976455 50.032102 33.699839 50.032102c17.802194 0 33.69984-21.839189 33.69984-50.032102s-15.897646-50.032103-33.69984-50.032103zm398.813332-104.837198 32.547688 1.411847v140.824258l-32.547688.781552zm127.041478 3.09825 29.099432 1.448356v133.844742l-29.099432.661958z"/></svg>