<svg height="960" viewBox="0 0 960 960" width="960" xmlns="http://www.w3.org/2000/svg"><path d="m425.123092 2.72747096-.166135-.00659841 3.449375.12607702c113.11621 4.13350464 176.050386 6.50780598 189.644737 7.15694043l.400742.0193326c13.902942.6780831 28.759969 2.1668829 44.592233 4.4541675 19.677724 2.8428376 34.280585 19.7069761 34.280585 39.588992v844.9971069c0 11.032108-4.142552 20.845063-10.784858 28.414518-4.171892 4.754214-8.833466 8.155323-13.927944 10.827015-5.835542 3.060327-12.002569 5.026597-19.128122 6.562592-9.599822 2.069352-21.555318 3.397325-35.824242 4.212913-10.519995.601305-36.52746 1.755589-81.647927 3.666716-1.107906.046927-1.689224.071534-3.379083.143037-3.569452.151005-11.414073.481853-19.768989.834153l-1.092356.04606c-.182438.007693-.365041.015393-.547768.023098l-1.097557.046279c-.183073.007719-.366194.015441-.549324.023163l-1.2982.054739-.530461.022367-1.058695.04464c-9.158871.386189-17.82591.751668-21.084248.889582-16.268909.688607-26.723513 1.139427-33.386202 1.44296-1.417365.064571-5.799927.309007-10.398483.568042l-1.482165.08356c-4.448521.25097-8.823991.499049-10.66137.596053-25.343431 1.337996-48.410134 1.854666-74.363152 1.243735-10.532972-.247945-25.030373-1.745567-44.142082-4.462779-1.020697-.145118-2.035402-.329643-3.041843-.553161l-14.227833-3.159834c-18.303889-4.065079-31.327768-20.298732-31.327768-39.048591v-867.3753746c0-20.5199918 15.52759-37.71168539 35.941696-39.79359456 17.097489-1.74366777 33.89755-2.81984033 50.399583-3.22583997 3.381147-.08318638 7.126002-.12765178 11.238119-.13359764l1.975328.00006371c15.800052.02321767 36.736378.58387757 62.994409 1.67146802zm-62.878005 38.32782634h-1.858874c-3.865847 0-7.361565.04524-10.487154.1221389-15.463439.3804471-31.238473 1.3909588-47.325102 3.0315352v867.3753746l14.227833 3.159835c17.683815 2.5142 30.834824 3.872737 39.453028 4.075608 44.707374 1.052406 78.032016-1.727032 94.143435-2.461023 31.155145-1.419341 141.767642-5.886357 164.978603-7.213057s41.947773-4.32574 41.947773-10.08222v-844.9971069c-14.627266-2.1131987-28.234402-3.4767488-40.821407-4.0906502-12.587006-.6139062-76.932167-3.0414156-193.035484-7.2825281-25.722649-1.0654153-46.130199-1.6111968-61.222651-1.6379065zm64.706867 88.9406357.216921.002708 195 6.589904c2.694152.091047 4.831125 2.301458 4.831125 4.997147v673.86003c0 2.686068-2.122268 4.8922-4.80632 4.996247l-195 7.559186c-.06453.002501-.129102.003752-.19368.003752-2.761424 0-5-2.238576-5-5l.000713-688.093568.00214-.084426c.088358-2.614593 2.168859-4.692336 4.73423-4.8245zm90.616666 257.563742c-44.910277 3.92914-77.08256 48.282868-72.691489 98.47304 4.391071 50.190173 43.776529 88.283409 88.686806 84.354269 44.910276-3.92914 77.08256-48.282868 72.691488-98.47304-4.391071-50.190173-43.776529-88.283409-88.686805-84.354269zm68.259173 86.141455c3.455863 39.500692-21.116418 73.376815-54.051043 76.258221-32.934625 2.881407-63.016124-26.21313-66.471987-65.713822s21.116418-73.376815 54.051043-76.258221c32.934625-2.881407 63.016124 26.21313 66.471987 65.713822zm-63.877074-300.306039c-35.092828 0-63.541186 33.302724-63.541186 74.383715s28.448358 74.383715 63.541186 74.383715 63.541187-33.302724 63.541187-74.383715-28.448359-74.383715-63.541187-74.383715zm-6.064528 29.264437c22.275034 0 40.332517 21.115605 40.332517 47.163024 0 26.047418-18.057483 47.163023-40.332517 47.163023s-40.332516-21.115605-40.332516-47.163023c0-26.047419 18.057482-47.163024 40.332516-47.163024z"/></svg>