<svg height="960" viewBox="0 0 960 960" width="960" xmlns="http://www.w3.org/2000/svg"><path d="m192.500329 80.5248765c8.365713.5642637 78.514621 5.096709 150.15523 9.7309455l11.315282.7320037c50.2671 3.2520991 99.706114 6.4541136 127.48118 8.2698755 5.092299.332903 10.125764.6623147 15.102039.9883508 153.735848 10.072479 250.229398 16.742973 276.053406 19.295972 19.854941 1.962888 30.298476 3.327078 40.846402 5.736726l.891835.206158.446503.105014c14.969159 3.540551 27.157437 8.91446 37.640378 17.280769 22.266315 17.770476 34.617063 47.295698 41.346221 96.1824 2.818748 20.477947 6.896092 49.832924 12.801294 92.19837 1.458123 10.460953 4.694252 33.657758 7.959772 57.062199l.466513 3.343551c4.352471 31.19441 8.609161 61.697362 8.625202 61.812348.029442.211054.047843.342963.063485.455086l.030055.215452c.015642.112123.034043.244032.063485.455088 16.114907 115.519529 25.305122 181.791455 30.410774 219.626546 12.25617 90.82351-11.812984 131.520492-81.137361 146.432808-31.377949 6.749688-162.438619 33.270506-295.901985 60.015581l-16.347847 3.274699c-133.497438 26.730817-265.42696 52.888059-298.508539 58.924854-44.092349 8.046064-80.720504 5.524743-109.674008-9.880971-32.831731-17.469259-53.2620405-50.287306-60.5624004-97.782511-8.912021-57.980466-36.5513493-262.135996-82.98022043-612.902934-.03658597-.276404-.06738801-.553543-.09238591-.831236-2.60360111-28.922442-2.60360111-47.975302.68234751-59.528968 3.24080403-11.394932 7.76222183-21.200648 13.29975343-29.481327 4.4663962-6.678931 9.3778636-12.058091 14.4626532-16.277782 1.6808371-1.394868 3.298915-2.594245 4.8554543-3.631927l.4229561-.278959-.2655719.174062.0641065-.05024c.0518758-.040335.1070449-.081158.1670682-.123601l.0498253-.035159.6098406-.583023c28.3242814-26.7819541 78.5403285-35.8933015 149.1572575-31.1302205zm-122.9728833 61.4771875c-1.9810417 2.04788-1.0816957 1.483444-4.3477226 3.404773-.2000794.117002-.2408281.140772-.2682869.15695-.0967864.057026-.1827313.109796-.2971733.183888-.4457126.288563-.9872756.683726-1.6305474 1.217555-2.1791978 1.808441-4.4820481 4.330579-6.7566499 7.731959-3.2086464 4.798125-5.9721776 10.791466-8.0758688 18.188217-1.4790125 5.20033-1.4790125 20.990563.6823475 45.000313l-.0353134-.394599 1.328477 10.029696c45.077715 340.467752 72.1656221 540.550486 81.2051471 599.837522l.271082 1.770928c5.500559 35.785931 19.000528 57.471488 39.815898 68.547026 19.721282 10.49339 47.676025 12.417671 83.704114 5.843191 67.076242-12.240211 545.879496-108.279235 609.527122-121.97043 24.14448-5.193701 37.212568-12.595708 44.323942-24.619872 8.512715-14.393601 10.79709-38.731894 5.584675-77.35814-5.094149-37.749846-14.281793-104.003233-30.386465-219.449393-.078505-.562764-.078505-.562764-.157012-1.125526-.014708-.105438-3.697399-26.495185-7.713995-55.28175l-.259565-1.860286-.260293-1.865511c-.130295-.933825-.260788-1.869074-.391368-2.804946l-.466534-3.343698-.107647-.771518-.215173-1.542187c-.071689-.513807-.143335-1.027314-.214921-1.540389l-.214558-1.537794-.214083-1.534401c-2.922049-20.943314-5.679861-40.712309-6.993971-50.140079-5.90819-42.386883-9.987924-71.759066-12.81066-92.265982-5.463517-39.691939-14.101318-60.341133-26.671192-70.372997-10.281171-8.205278-23.238999-11.270103-58.809059-14.786611-25.136998-2.48508-121.887532-9.173339-274.733248-19.187498-4.974343-.325909-10.005897-.655196-15.096305-.987975-26.456148-1.72954-72.615372-4.719873-120.423184-7.813203l-3.086482-.199701-3.08998-.199918c-1.545685-.100001-3.092277-.200058-4.639171-.300132l-7.545607-.488126c-71.656479-4.635273-141.843989-9.170258-150.249753-9.737223-62.03417-4.184178-102.9929476 3.696524-120.2810163 21.567867zm186.4736813 27.469103 532.467908 26.048244c20.672984 1.011319 37.69226 16.606881 40.501148 37.113103l62.497475 456.261283c3.127636 22.833235-12.302317 44.072382-34.984207 48.155346l-517.992455 93.243747c-.636998.114666-1.276504.214935-1.918028.300731-23.538675 3.147998-45.172498-13.381911-48.320496-36.920586l-76.972926-575.553274c-.345711-2.585001-.45553-5.196094-.328098-7.800995 1.160372-23.719879 21.329801-42.007972 45.049679-40.847599zm-25.073568 41.824827c-.068161 1.393319-.009421 2.78995.175494 4.172625l76.972926 575.553274c1.683813 12.590454 13.255393 21.432034 25.845847 19.748221.343141-.045891.685202-.099524 1.025922-.160856l412.810055-74.3102-.936238-6.029796c-1.950489-12.551906 6.643657-24.30842 19.195563-26.25891.012548-.001947.012548-.001947.025097-.003885l60.824149-9.382931c12.554052-1.936629 24.30107 6.670494 26.237699 19.224546.032053.207787.061257.416003.087601.62459l.350878 2.776242c11.801726-2.445602 19.75522-13.631001 18.110134-25.640914l-62.497474-456.261283c-1.502429-10.968445-10.605763-19.310257-21.663405-19.851195l-532.467908-26.048244c-12.687377-.620664-23.475676 9.161339-24.09634 21.848716zm50.573746 8.10064.277758.005388 498.47137 16.130424c4.857666.157193 8.898919 3.784299 9.578371 8.596781l57.518642 407.398426c.761837 5.396016-2.937082 10.408542-8.317813 11.271741l-483.099391 77.50071c-5.509507.883857-10.676488-2.912267-11.479812-8.434091l-72.890622-501.029562c-.869676-5.977904 3.708891-11.308401 9.665608-11.437426zm548.414266 494.993096-60.824149 9.38293c-1.640478.254918-2.761454 1.788377-2.507042 3.425582l.571224 3.678302 66.491-11.537-.297298-2.360797c-.001719-.013603-.00353-.027195-.005434-.040773l-.005993-.040695c-.252604-1.637485-1.784823-2.760153-3.422308-2.507549zm-536.844937-474.61294 69.71 479.168 463.391-74.339-54.972-389.356z"/></svg>