<svg height="960" viewBox="0 0 960 960" width="960" xmlns="http://www.w3.org/2000/svg"><path d="m554.697182 1.16445788.588818.05854212 1.470336-.05446906c6.161428-.20714669 12.340791-.22354187 18.532169-.0480512l2.06423.06560533c174.559546 6.14782187 308.647265 156.48965693 308.647265 341.88574293v268.944544c0 185.03866-140.22524 340.644541-315.092111 346.803186-16.014008.563998-31.903663-.195792-47.571815-2.255982l1.674926.215424-133.969363-6.566433c-1.275965-.062545-2.535573-.184404-3.776205-.362833l-.185432-.028734-1.026632-.059168c-161.535987-10.773119-285.526852-152.885301-288.0152359-328.465192l-.0381321-5.385245v-275.639487c0-87.817358 31.76105-169.106028 87.903358-229.992199 54.48559-59.0894634 128.414339-95.0059556 207.839377-99.742759l1.987265-.10995.346622-.0403691c.407813-.0435826.817511-.0810821 1.229003-.112405l.618572-.0423403 150.648618-9.15817735c2.074523-.12611366 4.119844-.09221508 6.124367.09074963zm-262.040559 336.75555412v280.419238c0 154.673812 100.668306 279.385343 232.411962 298.401607l3.482163.164086c13.361874 1.756939 27.035547 2.429427 40.949252 1.9394 38.093166-1.341606 74.387138-10.896742 107.409128-27.031077 99.036223-48.665813 168.498188-156.608138 168.498188-279.542667v-268.944544c0-164.078223-117.295517-296.5323409-269.933406-301.9105275-152.637889-5.3781865-282.817287 125.0215125-282.817287 296.5044845zm156.641336-290.7428772-48.946577 2.9810426-.002621.0900792c-143.638322 6.2416536-262.348761 129.4755974-262.348761 290.0236514v275.639487c0 160.195334 112.340791 287.083915 254.9996 294.188608l.0004.160532 51.66638 2.538502c-101.730386-49.153237-172.009757-161.718504-172.009757-294.459787v-280.419238c0-131.415205 72.840127-242.405113 176.641336-290.7428772zm162.705104 821.3238532c0 10.790407-8.203566 20.047303-18.891817 20.390245l-39.75926 1.275713c-10.969438.351964-19.533206-8.805561-19.533206-19.846105 0-10.813298 8.201684-20.096689 18.907964-20.422897l39.759261-1.211419c10.951122-.333668 19.517058 8.796286 19.517058 19.814463zm-20.019283.209921-38.082 1.16-.025822.068969c-.0117.036201-.021953.074731-.030424.115304l-.013754.085727 38.093-1.222.02431-.062365c.011062-.033916.020746-.069968.028742-.107883zm-11.769402-197.175423c39.547273.040687 70.661848 34.760176 69.923606 77.054015-.735476 42.135421-32.810642 76.852326-72.181011 77.233824-39.622789.383943-70.775689-34.378311-70.03079-77.053551.742134-42.516823 32.8553-77.274858 72.288195-77.234288zm-.020577 19.999989c-28.058187-.028867-51.711921 25.57301-52.270664 57.583347-.555977 31.851921 21.959124 56.975607 49.840046 56.705442 28.133342-.272611 51.825077-25.915618 52.377847-57.583812.539006-30.879581-21.110525-55.667032-48.277211-56.673237l-.833337-.023412zm11.54441-583.375767c115.415383 7.219945 205.056982 113.976119 200.718594 238.211299-4.341065 124.311839-101.267652 222.69939-216.911121 219.397676-115.772083-3.32058-205.527535-110.213563-201.056958-238.234122 4.473298-128.098501 101.527053-226.614006 217.249485-219.374853zm-197.261669 220.072843c-4.09956 117.396054 77.483703 214.556485 181.641252 217.543902 104.285885 2.977489 192.382214-86.446707 196.351195-200.103436 3.971696-113.734506-77.72646-211.030658-181.979461-217.552327-103.945953-6.502462-191.916108 82.792633-196.012986 200.111861z"/></svg>