<svg height="960" viewBox="0 0 960 960" width="960" xmlns="http://www.w3.org/2000/svg"><path d="m323.39147 1.2417897.559333.06577334 345 43.03154656c19.821635 2.4723351 34.748151 19.1765304 35.044699 39.0880861l.004498.6043508v767.1798055c0 16.16275-9.61383 30.185031-23.561063 36.475229l-.423964.188239-.403973.17218.014138.048678c6.292736 22.533753-8.639706 47.74653-34.255569 50.485242l-.779498.076086-.983469.075523-307.103602 20.054471-.030167.004167c-4.719151.538978-9.612515.233936-14.480798-1.04466l-.663682-.1804-.288693-.082693c-.69338-.19672-1.380702-.411974-2.061237-.645409l-.678246-.239482-.277177-.102523-35.90896-12.219132c-15.889683-5.407104-26.678048-20.14016-27.101132-36.847499l-.012908-.50688v-822.636729c0-10.1275683 3.816037-19.6114475 10.31278-26.8089823l.363681-.3975004.323539-.3462773v-6.8295257c0-12.8474033 6.168989-24.8899311 16.541389-32.3990197l.428625-.306031.427518-.2968918 13-8.90347766c7.904391-5.41358219 17.483709-7.80683105 26.993938-6.75626444zm299.75253 864.8722103-285.243 15.259-.209495.481071c-2.575776 6.002222-3.930354 11.905601-4.107944 17.752248l-.01527.674364-.004846.649816c0 5.604783 1.081636 11.258917 3.284018 16.999662l.287537.734741 75.691-4.944 212.54-16.756902-.172205-.519246c-1.829621-5.625449-2.812447-11.661924-2.952048-18.073587l-.01381-.876639-.003526-.723563c0-3.440442.241613-6.662007.739073-9.645241l.129703-.740832zm-313.263-818.8690982-3.881 2.6585758v30.22596l-11 4.1563224v822.123549l19.732945 6.715434c-.777956-4.048748-1.1695-8.115125-1.1695-12.194244 0-6.945213 1.135059-13.853489 3.379852-20.700705-3.981489-1.222773-6.931297-4.876401-7.057668-9.26803l-.004222-.29385zm20-4.888v817.7280982l151.263-8.568098.000662-24.910631c0-6.051171 4.71783-11.053002 10.758678-11.406323 5.604478-.327797 10.413537 3.949798 10.741335 9.554276.011559.197632.017342.39556.017342.59353l-.000017 24.951148 161.219-9.131902v-757.1510982z"/></svg>