<svg width="960" height="960" viewBox="0 0 960 960" fill="none" xmlns="http://www.w3.org/2000/svg">
<path d="M221.564 15.2432C225.63 11.688 230.961 9.92811 236.345 10.3643L856.05 60.582C866.435 61.4238 874.433 70.0976 874.434 80.5166V879.356C874.433 889.774 866.437 898.446 856.054 899.29L236.392 949.632L235.973 949.666C230.727 950.092 225.526 948.432 221.495 945.048L221.178 944.782L160.35 893.716C155.823 889.916 153.209 884.308 153.209 878.398V731.75L96.1367 701.239C89.6294 697.76 85.5665 690.98 85.5664 683.602V358.647C85.5666 350.032 91.0841 342.385 99.2598 339.668L110.346 335.983L117.155 258.626L117.22 258.008C117.98 251.638 121.755 246.004 127.389 242.884L153.209 228.583V84.0928C153.209 78.3233 155.701 72.8349 160.044 69.0371L221.564 15.2432ZM254.037 908.064L550.691 883.965V75.9678L254.037 51.9287V908.064ZM193.209 93.1719V210.693H193.219V740.275H193.209V869.075L234.037 903.351V57.4707L193.209 93.1719ZM570.691 882.341L680.811 873.395L834.433 860.915V98.9609L570.691 77.5889V882.341ZM156.068 272.725L149.04 352.575C148.341 360.518 142.99 367.287 135.424 369.802L125.566 373.077V384.422L128.676 383.729C134.066 382.526 139.411 385.92 140.613 391.311C141.816 396.701 138.421 402.045 133.031 403.248L125.566 404.913V431.191L129.99 430.721C135.482 430.136 140.408 434.113 140.993 439.604C141.578 445.096 137.601 450.022 132.109 450.607L125.566 451.305V470.371H131.05C136.572 470.371 141.049 474.849 141.05 480.371C141.05 485.894 136.573 490.371 131.05 490.371H125.566V509.012L132.442 509.979C137.911 510.749 141.721 515.806 140.952 521.274C140.183 526.743 135.126 530.553 129.657 529.784L125.566 529.208V554.776L133.259 556.52C138.645 557.74 142.023 563.095 140.803 568.481C139.582 573.868 134.226 577.245 128.84 576.024L125.566 575.282V671.614L173.219 697.09V263.226L156.068 272.725Z" fill="black"/>
</svg>
