<svg height="960" viewBox="0 0 960 960" width="960" xmlns="http://www.w3.org/2000/svg"><path d="m518.798055 1.20098686c84.112014 4.38100114 151.201945 77.42271324 151.201945 163.27807914v627.041868c0 85.855366-67.089931 158.897078-151.201945 163.278079-3.935232.212988-7.85947.252976-11.766234.144895l-.486821-.016916-.649215.038571c-2.841002.137537-5.746458-.028233-8.680594-.526706l-.73411-.131566-.469081-.088299-.460679-.047222c-7.718587-.827672-15.318577-2.271706-22.744649-4.313966l-.397672-.111812-50.708-9.618-.666591-.083305c-72.923751-9.710957-126.934126-72.092774-128.017804-147.99393l-.016605-2.327687v-625.847705c0-80.726441 59.715952-146.1862576 137.883247-151.2994993l.195753-.0118775 41.029-6.22599619.474825-.13404947c11.694187-3.23654972 23.80941-4.98539499 36.131565-5.18472673l.77861-.0082238.57269-.01300026c2.911317-.01471009 5.822695.05144407 8.732365.20299511zm-1.437727 734.54096814c-48.20319 1.37334-90.320039-24.291976-113.891424-63.73629l-.000453 127.531385c0 66.669601 50.73612 118.072812 113.322296 114.812284 54.37704-2.832859 99.808785-44.910504 110.791402-98.460549 1.585074-7.904962 2.417851-16.057279 2.417851-24.367851l.003364-123.289756c-23.416196 39.272975-65.019631 66.153955-112.643036 67.510777zm-90.716512-682.5844648-1.593882.2228215c-52.415359 7.6311613-92.049934 53.2713673-92.049934 110.4950533v625.847705c0 57.408982 39.891673 103.159347 92.559515 110.567989-25.931907-24.566494-42.091064-60.369892-42.091064-100.754009v-644.719931c0-40.902412 16.611132-77.0985688 43.175365-101.6596288zm139.990843 751.5365628c0 29.39101-22.624681 54.312045-50.946286 55.587771-28.71325 1.293367-51.846259-22.347645-51.846259-52.29521 0-29.650856 22.661726-54.612697 51.051544-55.591957 28.648268-.988174 51.741001 22.611677 51.741001 52.299396zm-51.051544-32.311283c-17.335243.597951-31.741001 16.465861-31.741001 35.603844 0 18.841274 13.934476 33.081753 30.946286 32.315469 17.403455-.783926 31.846259-16.692642 31.846259-35.60803 0-18.61868-13.974752-32.900319-31.051544-32.311283zm-4.002835-731.3841679-1.321834-.0006101c-10.265817.0851077-20.166376 1.6397693-29.522601 4.4878415l-5.31791.8037091c-42.124142 15.4108481-71.949484 57.5530654-71.949484 108.6696644v443.452698c0 66.587198 50.73612 119.121283 113.322296 117.338162 60.900538-1.735096 110.580742-52.899328 113.212645-115.369521l-.003392-435.90148c0-64.8558307-50.71832-120.0735493-113.282538-123.3322266-1.721767-.0896788-3.434563-.1379815-5.137182-.1482373zm4.343945 568.7379249c0 23.573705-18.392724 43.15726-41.369221 43.606391-23.152269.452566-41.760095-18.776061-41.760095-42.615822 0-23.721636 18.420813-43.335098 41.446318-43.6076 23.104197-.273434 41.682998 18.925201 41.682998 42.617031zm86.932172-1.54975c0 23.321659-18.429062 42.640248-41.370254 43.086317-23.11408.449431-41.759061-18.513472-41.759061-42.100987 0-23.468598 18.457384-42.816876 41.446943-43.087514 23.066641-.271546 41.682372 18.661607 41.682372 42.102184zm-128.026285-21.070116-.352205.001434c-11.839853.140123-21.682998 10.620558-21.682998 23.609001 0 12.870318 9.656132 22.848602 21.369222 22.619642 11.888861-.232397 21.760094-10.742739 21.760094-23.610211 0-12.49436-9.301624-22.356196-20.7432-22.614666zm86.932651-1.034643-.353309.001189c-11.875799.139805-21.682372 10.419717-21.682372 23.0889 0 12.550267 9.618976 22.333259 21.370254 22.104767 11.924167-.231854 21.759061-10.541455 21.759061-23.090097 0-12.305429-9.456226-22.045951-21.093634-22.104759zm-87.414856-110.037203c23.061802-.026861 41.576318 19.304344 41.576318 42.957188 0 23.614964-18.454811 43.070138-41.475559 43.275257-23.110311.205918-41.653757-19.155275-41.653757-42.95623 0-23.762754 18.482999-43.247861 41.552998-43.276215zm86.932238 0c23.025005-.026669 41.576252 19.039263 41.576252 42.440576 0 23.363179-18.491355 42.553245-41.47603 42.75696-23.072875.204498-41.653285-18.891187-41.653285-42.43962 0-23.509975 18.51977-42.72975 41.553063-42.757916zm-86.9083 20c-11.796135.014497-21.576936 10.325592-21.576936 23.276215 0 12.912588 9.720512 23.061764 21.47556 22.957024 11.84461-.105538 21.653756-10.4464 21.653756-23.276051 0-12.791606-9.749282-22.970936-21.55238-22.957188zm86.932111 0c-11.832849.014469-21.576874 10.126796-21.576874 22.757916 0 12.592831 9.683547 22.544924 21.47603 22.440406 11.880684-.1053 21.653285-10.247167 21.653285-22.757746 0-12.472279-9.712547-22.45429-21.552441-22.440576zm-86.849972-110.035061c23.018562.217345 41.470241 19.679013 41.470241 43.291967 0 23.654862-18.517726 42.979516-41.581685 42.940304-23.067745-.040542-41.547631-19.532145-41.547631-43.292913 0-23.802948 18.546638-43.157589 41.659075-42.939358zm86.931674 1.034909c22.982526.215857 41.470739 19.412426 41.470739 42.773581 0 23.403346-18.554468 42.462717-41.581592 42.423781-23.031076-.04027-41.547723-19.266548-41.547723-42.774525 0-23.55044 18.583611-42.639562 41.658576-42.422837zm-87.120508 18.964199c-11.752921-.110972-21.470241 10.029692-21.470241 22.94025 0 12.952598 9.783939 23.272178 21.582208 23.292883l.352899-.002448c11.524463-.179306 21.001023-10.073218 21.191293-22.554932l.002916-.382894c0-12.831626-9.812278-23.180999-21.659075-23.292859zm86.932671 1.034919c-11.790393-.110738-21.470739 9.832932-21.470739 22.423719 0 12.633109 9.747173 22.753832 21.582117 22.774495l.35398-.00239c11.559132-.175493 21.000753-9.876849 21.190313-22.04801l.002905-.373351c0-12.512566-9.775743-22.662857-21.658576-22.774463zm-.39852-110.037672.692128.008041c22.938992.458159 41.364968 19.783107 41.364968 43.102648 0 23.442489-18.618971 42.368936-41.68766 42.085162-22.987373-.282772-41.441655-19.637407-41.441655-43.103885 0-23.353533 18.277137-42.166035 41.072219-42.091966zm-86.932236-1.034933.693253.008057c22.974259.461303 41.363907 20.051211 41.363907 43.62281 0 23.693729-18.582032 42.885668-41.688315 42.599922-23.023279-.284721-41.441001-19.904533-41.441001-43.624062 0-23.603241 18.240712-42.678689 41.072156-42.606727zm-21.072156 42.606727c0 12.990262 9.846237 23.479144 21.688315 23.625591 11.759076.14542 21.441001-9.854289 21.441001-22.601451 0-12.869291-9.874309-23.388078-21.765409-23.626841-11.711021-.235147-21.363907 9.734569-21.363907 22.602701zm86.932173.520172c0 12.671013 9.809675 22.959285 21.687661 23.105399 11.796668.145113 21.441654-9.659151 21.441654-22.086676 0-12.550473-9.837981-22.868432-21.764347-23.106636-11.749248-.234668-21.364968 9.539847-21.364968 22.087913zm21.869996-131.074951c22.894523.699383 41.259319 20.150284 41.259319 43.426748 0 23.480029-18.684306 42.271109-41.793377 41.742421-22.943154-.524893-41.335938-20.005437-41.335938-43.428795 0-23.626923 18.713882-42.447748 41.869996-41.740374zm-86.93055-3.104744c22.929017.704163 41.257697 20.419921 41.257697 43.948696 0 23.730983-18.647182 42.787801-41.794594 42.255417-22.978289-.528494-41.334722-20.274104-41.334722-43.950764 0-23.878869 18.676535-42.965684 41.871619-42.253349zm65.060554 44.845118c0 12.70631 9.871173 23.161271 21.793377 23.434027 11.756288.26896 21.335938-9.365435 21.335938-21.747653 0-12.585784-9.899161-23.070388-21.869995-23.436073-11.709246-.357695-21.25932 9.246954-21.25932 21.749699zm-86.932173-2.591769c0 13.025346 9.907525 23.682653 21.794595 23.956052 11.717946.269509 21.334721-9.558525 21.334721-22.260705 0-12.904389-9.935277-23.591549-21.871619-23.958121-11.670273-.358401-21.257697 9.439636-21.257697 22.262774zm108.907625-129.169977c22.849199.939425 41.153863 20.513967 41.153863 43.745999 0 23.51621-18.750634 42.1696-41.898936 41.395369-22.898046-.765861-41.230379-20.369992-41.230379-43.748853 0-23.663038 18.780518-42.346156 41.975452-41.392515zm-86.929987-3.104763c22.882913.945824 41.151678 20.785157 41.151678 44.269744 0 23.766867-18.713332 42.686273-41.900715 41.906603-22.932404-.771097-41.228601-20.640219-41.228601-44.272626 0-23.914689 18.742995-42.864084 41.977638-41.903721zm64.954535 44.497278c0 12.739139 9.931624 23.359764 21.898936 23.76003 11.717057.391895 21.230379-9.072089 21.230379-21.406546 0-12.618633-9.959292-23.268847-21.975452-23.762882-11.670424-.479819-21.153863 8.954437-21.153863 21.409398zm-86.932173-2.593557c0 13.057989 9.967762 23.88268 21.900716 24.283923 11.677975.392669 21.2286-9.263129 21.2286-21.9179 0-12.937053-9.995192-23.791534-21.977637-24.286807-11.630715-.480734-21.151679 9.145075-21.151679 21.920784zm63.275199-70.2298142.203185.0055651c2.857816.1388412 5.174534 2.7957008 5.174534 5.9342619 0 3.1385612-2.316718 5.5735583-5.174534 5.4387182-2.857816-.13484-5.174534-2.7916996-5.174534-5.9342619s2.316718-5.5775594 5.174534-5.4387182z"/></svg>