<svg id="capabillity_plugpowered" data-name="Layer 1" xmlns="http://www.w3.org/2000/svg" viewBox="0 0 500 255.85"><title>battery_charging</title><path  d="M481.68,92.59H454.11v-10a33.21,33.21,0,0,0-33.17-33.17H33.22A33.21,33.21,0,0,0,0,82.54V221.71a33.21,33.21,0,0,0,33.17,33.17H90.15V255H150.3a23.86,23.86,0,0,0,21.52,13.64c.62,0,1.21-.14,1.81-.18a49.26,49.26,0,0,0,47.56,36.81h50a5.33,5.33,0,0,0,5.33-5.33v-5.84h35.7a9.1,9.1,0,1,0,0-18.19h-35.7V213.48h35.7a9.1,9.1,0,1,0,0-18.19h-35.7v-5.84a5.33,5.33,0,0,0-5.33-5.33h-50a49.26,49.26,0,0,0-47.56,36.81c-.61,0-1.19-.18-1.81-.18a23.86,23.86,0,0,0-21.51,13.64H90.15v.08H33.22a12.77,12.77,0,0,1-12.76-12.76V82.54A12.77,12.77,0,0,1,33.22,69.78H420.93a12.77,12.77,0,0,1,12.76,12.76V221.71a12.77,12.77,0,0,1-12.76,12.76H343.17v20.41h77.76a33.21,33.21,0,0,0,33.17-33.17v-10h27.58A18.38,18.38,0,0,0,500,193.31V110.94A18.38,18.38,0,0,0,481.68,92.59Zm-2.06,98.67H454.11V113h25.52Z" transform="translate(-0.04 -49.37)"/></svg>
