<svg height="43.51mm" viewBox="0 0 109.54 123.33" width="38.64mm" xmlns="http://www.w3.org/2000/svg"><g transform="translate(-4.24 -2.91)"><g stroke="#1d1d1b" stroke-miterlimit="10"><path d="m61.23 3.93a107.6 107.6 0 0 1 24 2.67c6.15 1.49 11.8 4 16.15 8.91a31.58 31.58 0 0 1 5.88 10.08 81.13 81.13 0 0 1 4.21 19c.81 7 1 13.94 1.22 20.93a89.7 89.7 0 0 1 -2.2 25 38.38 38.38 0 0 1 -4.76 11.75 23.16 23.16 0 0 1 -8.47 7.92c-3.21 1.76-6.21 3.9-9.51 5.5-5.39 2.63-10.77 5.27-16.23 7.73-4.69 2.12-9.65 2.16-14.69 1.47-4.19-.58-8.43-.88-12.64-1.34a151.35 151.35 0 0 1 -21.12-3.73c-6.63-1.71-10.71-6.08-13.13-12.26a51.18 51.18 0 0 1 -2.94-12.9c-.69-6.21-.8-12.45-.93-18.66-.16-7.41-.61-14.8-.7-22.22 0-3.23-.27-6.43 0-9.69.4-5.11 2.5-9.48 5.09-13.67 5-8.14 12.19-14 20.5-18.57 5.86-3.19 11.92-5.94 18.58-7.1a61.94 61.94 0 0 1 11.69-.82zm-.07 2c-5.09-.05-10.16.07-15.08 1.6a68.42 68.42 0 0 0 -23.34 12.18 48.76 48.76 0 0 0 -10.15 11c-.16.26-.51.57-.26.86s.6 0 .87-.16c4.76-2.69 9.84-2.8 15-1.82 5.58 1.05 10.41 3.35 13.83 8.14s4.47 10.34 4.82 16c.3 5 .21 10 .43 15 .37 8.15.23 16.32.61 24.47a86.34 86.34 0 0 0 1.15 12.66c.82 4.27 1.89 8.49 4.4 12.13 1.84 2.66 4.08 4.86 7.58 5.17a17.83 17.83 0 0 0 9.23-1.5c3.55-1.65 7-3.44 10.64-5a121.6 121.6 0 0 0 18.11-10.06 13.87 13.87 0 0 0 3.3-3 31.93 31.93 0 0 0 5.57-11.09 77 77 0 0 0 3-20.45 199.79 199.79 0 0 0 -1.25-25.17 88.33 88.33 0 0 0 -4-20c-3.29-9.45-9.62-15.38-19.25-17.89a100.09 100.09 0 0 0 -25.21-3zm-38.26 25.07c-.67 0-1.34 0-2 0-3.37.17-6.61 1.11-8.66 3.8-2.42 3.16-4.61 6.56-5 10.79-.14 1.6.09 3.14.1 4.71.09 11.41.73 22.79 1 34.19a96.42 96.42 0 0 0 1.16 13.9c.88 5 2.25 9.91 5.44 14.07a20.66 20.66 0 0 0 2.84 2.77c2.17 1.93 5 1.68 7.48 2.67.13 0 .4.11.43.06.69-1.18 1.36-.37 2 0 .39.24.74.4 1.12.08.61-.51 1.17-.15 1.57.22 1.17 1.06 3.16-.5 4 1.32a2.52 2.52 0 0 0 .43-.24 1.69 1.69 0 0 1 2.45.29c.21.2.34.71.7.39 1-.91 1.78-.52 2.57.29.37.37.72.2 1.07-.12a1.29 1.29 0 0 1 1.18-.17c.72.13 1.37 1.63 2.18.14 1.18.63 2.64.49 3.72 1.05a21.3 21.3 0 0 0 3.77 1.12 1 1 0 0 0 1.14-.26c.27-.42-.13-.76-.39-1.07a26.42 26.42 0 0 1 -5.3-10.9c-1.87-7.22-2.15-14.62-2.37-22-.31-10.31-.45-20.63-.64-30.95a51.09 51.09 0 0 0 -1.08-10.41c-1.46-6.36-4.81-11.28-11-13.88a25.85 25.85 0 0 0 -9.91-1.86z" stroke-width="2"/><path d="m13.15 87.1c4.2.55 7.65 1 11.1 1.47q8 1.14 16 2.34c2.33.36 2.69.84 2.87 3.21.37 4.63.55 9.28 1.72 13.82.49 1.92-.4 2.82-2.45 2.58-2.89-.35-5.76-.79-8.63-1.22-5-.75-10-1.52-15-2.28-.74-.11-1.47-.3-2.21-.37a3.42 3.42 0 0 1 -3.21-3 69.48 69.48 0 0 1 -1.34-7.82c-.26-2.06-.43-4.14-.51-6.21-.04-1.69.87-2.55 1.66-2.52zm28.15 21.31c1.4.09 1.51-.61 1.27-1.59-1-3.89-1-7.9-1.48-11.85-.23-1.92-.37-2.13-2.18-2.38q-11.59-1.59-23.2-3.11c-2.11-.28-2.21-.22-2.1 1.83a71.11 71.11 0 0 0 1.63 11.33c.38 1.74 1.54 2.13 3.06 2.34 5.51.78 11 1.62 16.5 2.44z"/><path d="m15.38 60a10.67 10.67 0 0 1 2-7.1c3.32-4.54 7.93-5.39 12.75-2.8 5.94 3.18 8.91 11 6.8 17.42s-8.49 8.84-14.25 5.5c-4.98-2.83-7.23-7.33-7.3-13.02zm20.16 3.25a13.58 13.58 0 0 0 -4.95-10.47c-3.37-2.86-10-3-12.51 2.83s.74 14.45 7.48 16.54a6.87 6.87 0 0 0 7.35-1.84 9.53 9.53 0 0 0 2.63-7.02z"/><path d="m28.33 83.21c.12 1.59-.38 2.63-1.25 2.53-1.27-.15-1.42-1.23-1.47-2.23-.08-1.48-.09-3-.07-4.45 0-.7.29-1.35 1.09-1.42s1.37.58 1.37 1.36c.18 1.42.24 2.82.33 4.21zm-1.81-2.12c.16.73-.25 1.58.33 2.29a5.46 5.46 0 0 0 .15-2.44c0-.61.24-1.29-.3-1.83-.38.61-.06 1.3-.18 1.98z"/></g><path d="m41 61.49a2.49 2.49 0 0 1 2.25 2.26 1.93 1.93 0 0 1 -1.79 1.75 2 2 0 0 1 -2-2.11 1.65 1.65 0 0 1 1.54-1.9z"/><path d="m13.5 60.07a1.79 1.79 0 0 1 -1.56 1.93 2.13 2.13 0 0 1 -2-2.14 1.6 1.6 0 0 1 1.58-1.86 2.08 2.08 0 0 1 1.98 2.07zm-1.69-1c-.36 0-.66.1-.73.49a.91.91 0 0 0 .67 1.13.53.53 0 0 0 .69-.49.88.88 0 0 0 -.63-1.1z"/><path d="m33.59 61.61c-.08 3.75-1.14 5.89-3.63 7.14a5.66 5.66 0 0 1 -5.29-.22 9.26 9.26 0 0 1 -4.32-10.27c1.44-4.59 6.3-6 9.92-2.84 2.21 1.91 3.39 4.27 3.32 6.19zm-2.05 1c0-3.19-1.68-5.79-4.34-6.59a3.44 3.44 0 0 0 -4.27 1.59 6.92 6.92 0 0 0 1.32 8.23 4.45 4.45 0 0 0 4.85 1c1.81-.75 2.43-2.4 2.44-4.28z"/></g></svg>