<svg width="960" height="960" viewBox="0 0 960 960" fill="none" xmlns="http://www.w3.org/2000/svg">
<path d="M477.08 19.5752C716.261 21.0742 906.415 229.35 904.624 481.889C902.833 734.427 709.743 940.301 470.562 938.802C231.38 937.303 41.2266 729.027 43.0176 476.488C44.8088 223.95 237.899 18.0763 477.08 19.5752ZM476.797 59.5742C262.217 58.2294 84.6694 243.694 83.0166 476.739C81.3639 709.784 256.265 897.458 470.845 898.803C476.441 898.838 482.012 898.744 487.555 898.527C304.552 874.176 165.216 693.189 166.747 477.264C168.279 261.339 310.17 82.1135 493.502 60.0586C487.962 59.7726 482.393 59.6093 476.797 59.5742ZM533.534 77.7822C344.949 76.6005 188.331 254.028 186.747 477.389C185.163 700.75 339.25 880.126 527.836 881.308C562.311 881.524 595.717 875.769 627.304 864.857C765.403 801.169 863.399 654.493 864.625 481.638C865.851 308.781 769.943 160.887 632.757 95.4746C601.329 84.1692 568.008 77.9983 533.534 77.7822ZM563.008 308.11C646.627 308.634 711.383 387.358 710.722 480.673C710.06 573.988 644.192 651.893 560.573 651.369C476.954 650.845 412.197 572.121 412.858 478.807C413.52 385.492 479.389 307.586 563.008 308.11ZM562.866 328.109C493.025 327.672 433.463 393.715 432.858 478.932C432.254 564.148 490.874 630.931 560.715 631.369C630.556 631.807 690.118 565.764 690.723 480.548C691.327 395.332 632.707 328.547 562.866 328.109Z" fill="black"/>
</svg>
