<svg height="960" viewBox="0 0 960 960" width="960" xmlns="http://www.w3.org/2000/svg"><path d="m955 155.041079v545.00844c0 56.177956-45.908877 105.456774-103.018842 112.782505l-703.783784 90.277248c-61.4430225 7.88155-113.197374-37.225381-113.197374-99.035103v-18.414169l-.0364054-.035743c-8.018569-8.058972-12.6606643-18.976609-12.8037721-30.484514l-.0034096-.548432.0005871-186.163311-12.47111839-24.813159c-2.97848313-5.92637-4.57726158-12.446707-4.68588161-19.072737v-272.612738c0-19.435498 12.7316263-36.462929 31.1416103-42.079852l.3033897-.090514.1968598-1.183559c8.6335716-49.469229 50.3252605-89.434081 101.4563622-94.434497l1.746728-.156886 703.783783-57.6059593c60.339724-4.9389141 111.371267 39.1155498 111.371267 98.6629803zm-107.550594-58.4466616-703.450332 57.5883196c-37.597248 3.077918-68.0758391 36.051655-68.0758391 73.648902v576.375434c0 31.568648 21.4879389 55.361711 50.6354331 59.324925 5.297885.643636 10.841668.634512 16.54944-.097647l703.783784-90.277248c37.615069-4.82504 68.108108-37.55642 68.108108-73.107584v-545.00844c0-20.752884-10.390825-38.361516-26.523561-48.812587-11.409625-7.2209173-25.620666-10.8953247-41.027033-9.6340746zm51.773057 70.5905796v520.529424c0 26.543355-22.150216 50.322156-49.598962 53.770653l-678.075105 85.18931c-28.501537 3.580763-52.092044-16.984612-52.092044-45.529675v-547.716686c0-27.708356 22.279243-51.812847 50.003235-54.156276l678.075105-57.315728c28.254531-2.388274 51.687771 17.843128 51.687771 45.228978zm-50.003236-25.300046-678.075105 57.315729c-17.392704 1.470155-31.68777 16.936358-31.68777 34.227343v547.716686c0 16.454277 12.983802 27.773099 29.598962 25.685669l678.075105-85.18931c17.667951-2.219696 32.092044-17.704313 32.092044-33.926647v-520.529424c0-15.379837-13.141069-26.725356-30.003236-25.300046zm.809747 38.222052v435.960865c0 9.94865-7.960809 18.461435-17.902551 19.636954l-643.225576 76.055443c-10.926699 1.29198-20.251006-6.87567-20.251006-17.881648v-455.715638c0-10.189272 8.04758-18.891781 18.208187-19.777671l643.225576-56.082007c10.725212-.935118 19.94537 7.030245 19.94537 17.803702zm-20.000133 2.275742-641.362 55.92c.008864.018055.007511.013209-.010423.00925l-.006577 453.33775 641.128127-75.806564c.042126-.004981.134058-.049444.223134-.124761l.027739-.027675zm-774.105841 63.720538-7.8800979 1.942275c-1.7870204.440381-3.0429021 2.043325-3.0429021 3.883808v271.92693c0 .623768.1458811 1.238893.4259892 1.796231l10.4970108 20.886756z"/></svg>