<svg height="960" viewBox="0 0 960 960" width="960" xmlns="http://www.w3.org/2000/svg"><path d="m480.167944 6.00466039 3.903413.03180634.160953.00195912c156.784922 2.53944142 282.76769 130.32927815 282.76769 287.20475515 0 99.86499-51.436552 190.939796-134.440632 243.189608-9.945809 6.260736-12.229326 8.753689-15.955949 16.993936-.711043 1.572246-1.448159 3.297299-2.186783 5.111248l-.330141.815831c-.159591.396893-.319694.798779-.465678 1.168436l-.331735.845068c-1.363274 3.493342-2.711843 7.202798-3.992794 10.926862l-.430288 1.25949.069-.20166.016302.202227c.063997.903355.067328 1.822145.006066 2.752103l-.026009.349249-15.876359 191.123421-.001534.118199c-.100685 4.502342-.842715 9.909366-2.527592 15.566249l-.206731.679983c-2.843739 9.16667-7.735296 17.423431-15.182016 23.896017l-.052127.043552-.20663.297914-.294419.423412c-1.419963 2.046171-2.837649 4.146781-4.140997 6.157573-.081702.12605-.162728.251403-.221882.343106l-.372463.580282c-.972037 1.521283-1.813093 2.895193-2.484273 4.061898-.603746 1.049486-1.015957 1.840237-1.165716 2.184739-1.220121 2.806743-1.583751 4.29049-2.572185 9.859226-.075581.425813-.141942.793781-.207256 1.147087l-.003179.015763v.00066l-.001.004-.020523.12959c-.574976 3.573332-1.054775 7.619346-1.71074 14.144193l-.019737.187557-.015586.284224c-.23269 4.147125-.528319 10.282464-.884991 18.377155l-.018423.412621-.007134.535056c-.053999 3.857726-.084574 7.269357-.091846 10.212793l-.001202.623562-.000021 1.466885c.004387 3.049099.037489 5.515101.096873 7.367943.160338 5.002712-1.560975 9.883706-4.824032 13.679136l-23.19596 26.980414c-.539714.627769-1.117885 1.22142-1.731178 1.777529l-15.124009 13.713826c-.424336.38477-.864744.750895-1.319951 1.097436l-.31354.23042-.266934.225877c-7.239049 6.034741-15.545749 8.651186-30.242121 9.346533l-.672436.030289c-.284968.018301-.570165.018301-.855394.018301h-.530621c-.290596 0-.581159-.006333-.871479-.018996-15.231383-.664323-23.355238-3.310107-30.789484-9.523508l-.028403-.024323-.419746-.310321c-.303419-.231802-.600231-.472317-.890059-.721264l-.429455-.379711-15.083004-13.726044c-.612145-.557072-1.189118-1.151607-1.727593-1.780173l-23.133893-27.004451c-3.247565-3.790919-4.960115-8.659247-4.801176-13.648484.201001-6.309662.201001-13.080498-.004069-20.327317-.06896-2.798012-.194305-5.849177-.382073-9.481719-.09775-1.891078-.200807-3.736623-.366292-6.603211-.013267-.229821-.027895-.482892-.047852-.827945l-.021879-.378258c-.007983-.138003-.016705-.288772-.026313-.454852-.027694-.478983-.050304-.8708-.071173-1.233716l-.020828-.210298c-.652993-6.524122-1.132198-10.580461-1.706213-14.160656l-.0541-.334309-.06039-.364638c-.060214-.378197-.113969-.751106-.167138-1.148558-.015589-.116526-.027286-.205682-.04515-.343996l-.032731-.252889c-.036346-.276349-.073543-.537039-.115979-.796667l-.053719-.311978c-.208249-1.148899-.551909-2.390267-1.404806-4.967463l-.309141-.926523c-.109907-.327089-.226855-.673026-.351381-1.039602-.160343-.472009-.55285-1.316836-1.152907-2.389414-.785323-1.403731-1.820397-3.011494-3.039687-4.729153-1.360678-1.916836-2.855945-3.840613-4.351563-5.643038-.260656-.314126-.510646-.611651-.747982-.89087l-.046836-.054995c-4.04362-3.33003-7.369564-7.165419-10.056954-11.381174-2.567358-4.00823-4.554965-8.361589-6.028994-12.950398l-.188791-.598039c-1.836063-5.919328-2.650921-11.642097-2.757962-16.316037l-.001171-.112839-15.218128-183.857173-.091557-.189407c-.375419-.790721-.701891-1.612609-.975033-2.462404l-.113783-.365897-.055072-.183336c-.119898-.396201-.380084-1.225223-.695328-2.204961-.439051-1.364517-.93841-2.878936-1.479831-4.478491-1.440629-4.256143-2.979451-8.530805-4.523208-12.486736l-.331441-.844531c-.160548-.406654-.320651-.80854-.464111-1.16544l-.329775-.815177c-.755121-1.854596-1.492237-3.579649-2.20328-5.151895-3.726623-8.240247-6.01014-10.7332-15.955949-16.993936-83.00408-52.249812-134.440632-143.324618-134.440632-243.189608 0-156.875477 125.982768-284.66531373 282.76769-287.20475515l.161369-.00196251 3.913413-.03180295zm-18.48398 894.98446861 12.651036 11.469871.066035.049091c.295941.223846.585681.455949.868872.696055l.074093.064854.027403.006639c.219072.045216.466061.091101.741831.136991l.285396.045867c1.392888.216305 3.200364.39244 5.455872.512426l.241498.011077.283789-.013184c2.019851-.106376 3.691255-.256627 5.037019-.44049l.32967-.04666c.499267-.073207.910633-.144759 1.239688-.21076l.076834-.016906.058384-.04997c.283178-.24009.572904-.472179.86883-.696012l.061786-.046018 12.630144-11.449196c-6.071168.636982-12.853269.955473-20.346305.955473-7.585297 0-14.469256-.326382-20.651875-.979148zm69.629056-98.50558-.362001.024144c-1.019975.068439-2.056545.135354-3.109702.200856-9.553943.594211-19.761141 1.001139-29.964237 1.256021-3.567883.08913-6.881889.152943-9.858573.195653-1.044303.014984-1.972739.026263-2.774849.03436-.282315.00285-.529107.005101-.739068.006817-.080295.000627-.130478.001174-.167886.001408l-5.005951.000121-.029264-.000308-.087129-.000736c-.018351-.000146-.038834-.000306-.061776-.000485-.209961-.001716-.456753-.003967-.739068-.006817-.80211-.008097-1.730546-.019376-2.774849-.03436-2.976684-.04271-6.29069-.106523-9.858573-.195653-10.203096-.254882-20.410294-.66181-29.964237-1.256021-.942081-.058593-1.870891-.118318-2.786422-.179252 1.305632 2.476882 2.389573 4.92276 3.229677 7.387006.110158.323122.217478.64035.337804.999076l.287897.865186c.07254.219843.143684.436879.21346.651193 16.234909 1.866537 36.93941 2.807284 62.074143 2.807284 3.037566 0 5.5 2.462434 5.5 5.5s-2.462434 5.5-5.5 5.5c-23.408748 0-43.11072-.80534-59.135628-2.427183l-.003077-.027362c.067441.422805.126302.826639.183642 1.250319.034908.257922.065763.496393.109359.83741.018548.14347.023724.183061.032133.245695.003172.023623.00604.044706.008634.063505l.006521.049574.006519.042397.035753.211041c.338664 2.066135.638471 4.145117.932339 6.465954 15.547198 1.564866 34.831994 2.352039 57.823805 2.352039 3.037566 0 5.5 2.462434 5.5 5.5s-2.462434 5.5-5.5 5.5c-22.187613 0-41.045096-.723509-56.59775-2.180033l-.003013-.043786c.027784.27848.04972.557512.065792.836913.027643.480518.056182.973853.094707 1.6378.048049.827594.074178 1.277694.096509 1.663128.13552 2.339183.231028 4.027314.316397 5.621952 15.227495 1.44636 33.912637 2.174621 56.027358 2.174621 3.037566 0 5.5 2.462434 5.5 5.5s-2.462434 5.5-5.5 5.5c-21.694775 0-40.205717-.691724-55.556478-2.084059l.015749.606031c.045937 1.616498.082531 3.217176.109764 4.801603 12.911638 1.495716 25.804291 2.243891 38.677307 2.243891 13.172693 0 25.932157-.783415 38.278392-2.350244.01544-1.410521.034462-2.883721.056923-4.419575.00285-.194882.008548-.389712.017094-.584427.398334-9.076514.725038-15.834441.982541-20.310721.016107-.279998.038102-.559627.065971-.8387.787512-7.886136 1.365477-12.771112 2.155741-17.592387.024447-.149148.050584-.298013.078406-.446569.055025-.293811.113979-.619156.188204-1.037333.035168-.198129.216955-1.230672.271953-1.539966.120677-.678668.225326-1.251807.335092-1.828942.293983-1.54573.59689-2.967019.952488-4.417995.910973-3.71711 2.098628-7.314197 3.71329-11.028535.510858-1.175167 1.109825-2.403924 1.798167-3.701549zm-121.445325-37.262788-.001807-.041997c.045741.550674.068641 1.103007.068641 1.655578 0 .22482.039919.861105.144976 1.67258.162954 1.258683.437617 2.567201.828621 3.823278.86877 2.790867 2.131151 4.806006 3.70609 6.000634.287102.217773.568265.443266.843183.676231l.277553.235199c.660051.559327 1.283113 1.160894 1.865259 1.80091l.050219.055901c5.531352.629231 12.104144 1.193845 19.406936 1.648045 9.278102.577055 19.248095.974526 29.222191 1.223688 3.494134.087287 6.737716.149744 9.646045.191473 1.015452.01457 1.915574.025505 2.689807.033321.358006.003615.627143.005967.772459.007207l.093418.000793 4.630866.000203c.155933-.000994.469319-.003556.929613-.008203.774233-.007816 1.674355-.018751 2.689807-.033321 2.90833-.041729 6.151911-.104186 9.646045-.191473 9.974096-.249162 19.944089-.646633 29.222191-1.223688 6.985138-.434444 13.302402-.969904 18.67936-1.566364.161138-.184206.32734-.363588.496832-.539918l.335913-.349466c.722169-.751307 1.501953-1.445021 2.332231-2.074806 1.575448-1.195014 2.819353-3.179235 3.671149-5.924962.38311-1.234938.651109-2.521954.809195-3.762628.059674-.468328.099637-.899344.122564-1.27654.013734-.225954.018419-.378973.018419-.418094 0-.507777.019338-1.015353.057968-1.521626-6.955722.957007-15.386369 1.697186-25.281088 2.312587-9.554015.594211-19.76129 1.001138-29.964463 1.256021-3.56791.089129-6.881941.152943-9.858648.195653-1.044311.014984-1.972754.026263-2.77487.03436-.282317.00285-.529111.005101-.739074.006817l-.0709.000592-.096986.000816c-.01247.000078-.023519.000121-.033791.000121h-4.972197c-.033967-.000403-.086404-.000812-.17817-.001529-.209962-.001716-.456757-.003967-.739074-.006817-.802116-.008097-1.730559-.019376-2.77487-.03436-2.976706-.04271-6.290737-.106524-9.858647-.195653-10.203173-.254883-20.410449-.66181-29.964464-1.256021-10.211755-.635119-18.864115-1.40314-25.948502-2.404542zm157.490304-190.540411-173.315999-.00069 14.122142 170.021635c6.675047 1.151986 16.780025 2.209178 28.893554 2.962578 9.278177.577055 19.248249.974526 29.222424 1.223689 3.494161.087287 6.737769.149744 9.646122.191473 1.01546.01457 1.915589.025505 2.689828.033321.358009.003614.627148.005967.772466.007207l.093419.000793 4.630903.000203c.155934-.000994.469323-.003556.929621-.008203.774239-.007816 1.674368-.018751 2.689828-.033321 2.908353-.041729 6.15196-.104186 9.646122-.191473 9.974174-.249163 19.944247-.646634 29.222423-1.223689 11.716153-.728685 21.553372-1.741558 28.226141-2.849796l13.574007-163.441077-.069886-.208408c-.670948-2.056811-1.013492-4.242662-.973115-6.484242zm-87.353999-528.67635-3.632.03-3.997469.0970242c-131.739246 4.2474566-237.224504 111.2487118-239.342078 243.0691668l-.032453 4.04299c0 85.971245 44.257684 164.334972 115.749654 209.338085 16.320725 10.27365 23.980827 18.636308 31.093084 34.362813.93136 2.059409 1.865921 4.246534 2.820489 6.591103l.362404.895817c.19122.475553.38239.955423.588053 1.476458l.360275.917988c1.007136 2.580751 2.001338 5.249434 2.939246 7.855572l39.788795-.001357.000703-252.15441c0-5.270041 4.089942-9.635588 9.348797-9.978775 18.814106-1.227786 33.264344-1.854015 43.418061-1.875245l.530439-.000558c10.178473 0 24.804322.626477 43.9485 1.875803 5.258855.343187 9.348797 4.708734 9.348797 9.978775l-.000297 252.15441 39.790403.000484c.940906-2.614094 1.93969-5.294858 2.952908-7.89116l.360569-.918524c.191099-.484038.382269-.963908.58962-1.479454l.362771-.89647c.93807-2.303923 1.872631-4.491048 2.803991-6.550457 7.112257-15.726505 14.772359-24.089163 31.093084-34.362813 71.49197-45.003113 115.749654-123.36684 115.749654-209.338085 0-133.669047-106.291007-242.8213588-239.374531-247.1121568l-4.000469-.0973638zm-33.302 278.52166.000703 229.714012h66.594l-.000703-229.713012-26.833508 22.724921c-3.72951 3.158314-9.195474 3.158314-12.924984 0zm33.793108-13.854463h-.990216c-4.796454.010105-10.686334.165886-17.661358.467769l18.156169 15.376285 18.156763-15.376285c-6.975024-.301883-12.864904-.457664-17.661358-.467769z"/></svg>