<svg height="960" viewBox="0 0 960 960" width="960" xmlns="http://www.w3.org/2000/svg"><path d="m876.092278 255c18.893122 0 34.603676 3.162326 48.871281 12.723511 19.291749 12.928028 29.036441 34.004645 29.036441 59.171599v233.547207c0 16.478945-5.598871 33.883206-16.083125 48.00422-12.919685 17.401242-32.295223 28.737582-55.498352 30.885051-50.686062 4.691038-723.348845 64.694822-733.513175 65.245426-9.367241.507426-13.730717.60465-19.54362.137997-8.679142-.696751-16.674527-2.752609-24.732388-6.465196-.528475-.24349-1.933463-.871623-3.775334-1.691041l-1.0792315-.479822c-1.3906846-.617941-2.9544311-1.311575-4.541253-2.014936l-.7334717-.325078c-4.2817707-1.897517-8.5635446-3.791972-9.9182943-4.395995-11.9750285-5.339139-22.6155109-10.223144-33.1104588-15.264056-16.3296875-7.843443-28.7490514-20.777617-36.1925882-37.431622-6.26202294-14.010511-8.76902724-29.944275-8.20116809-47.739865l.00545959-.1434-.00034349-155.0347c0-10.09003 2.1103384-21.098861 6.02693869-34.024937l.2504048-.820363-.0255687.080111.0399787-.171483c.5804597-2.060603 4.7736974-16.3374 8.9577742-30.225672l.4113913-1.364363c2.5351566-8.400362 5.0232524-16.505734 6.6560169-21.503253 2.2113367-6.768396 4.3929152-13.097891 6.5791448-19.039626 9.7689686-26.550106 28.9106057-45.133656 54.2253556-52.48431 9.8328922-2.855181 16.3538752-3.298286 30.1814062-3.309031 2.911254-.002262 4.152826-.010751 5.577458-.045791 45.131841-1.110077 566.859756-12.263219 712.749529-15.144275l9.455149-.185356c15.415533-.299634 25.109819-.473494 27.599364-.490367zm0 40c-20.399325 0-725.273884 15.221327-749.145766 15.808487-9.27913.228233-17.841066-.469298-25.588317 1.780274-12.1836542 3.537773-22.115114 12.324499-27.8399348 27.883418-1.4097966 3.831546-2.7882866 7.762312-4.1284472 11.726009l-.5719873 1.70055c-.2847999.85109-.5677936 1.703257-.8489122 2.55585l-.5597163 1.705558c-.0928625.284289-.1855116.568578-.2779446.852841l-.5519852 1.705085c-.0915587.284065-.1828962.568058-.27401.851952l-.5439776 1.702001c-5.9537741 18.704861-10.9107631 36.773597-14.1351579 47.260944-3.0289769 9.851749-4.5434654 17.58386-4.5434654 23.196331v155.725927c-.9497982 24.971029 6.2859355 41.1601 21.7072013 48.567212 23.1318988 11.110667 44.8900972 20.35589 52.5779222 23.897986 7.687824 3.542096 13.707006 3.347148 25.373931 2.715148 11.666925-.631999 706.830912-62.80522 731.990532-65.133764 25.159621-2.328545 35.267757-24.384857 35.267757-39.059492v-233.547207c0-26.65408-17.508396-31.89511-37.907722-31.89511zm31.907722 30.863669v235.883628c0 13.603005-12.957188 25.755511-28.94069 27.143383l-743.221707 65.011395c-15.983501 1.387871-30.157383-12.175011-30.157383-28.084207l-4.68022-274.047523c0-15.909196 12.957188-29.15506 28.94069-29.585464l749.11862-20.172314c15.983502-.430405 28.94069 10.248097 28.94069 23.851102zm-28.026915-3.863674-.375409.005325-749.11862 20.172313c-5.082277.136856-9.327701 4.388116-9.478056 9.327465v.164902l4.676304 273.806355c.000972.056914.001701.113831.002187.17075l.000729.170763c0 4.414812 4.361485 8.512218 8.41459 8.160284l743.23438-65.012498c3.308835-.287312 6.391435-1.664623 8.512374-3.653845 1.533614-1.438372 2.158436-2.749859 2.158436-3.564512v-235.883628c0-.447826-.275921-.995589-1.196267-1.75408-1.478928-1.21884-3.761924-2.039699-6.460168-2.105355z"/></svg>