<svg height="960" viewBox="0 0 960 960" width="960" xmlns="http://www.w3.org/2000/svg"><path d="m698.770005 7c14.519728 0 32.791114 5.3249107 47.630097 14.7748716 2.771117 1.7647404 5.420229 3.6618565 7.934675 5.6863242 17.871284 14.2193036 29.045519 34.8121903 29.045519 60.0098764v694.9364508c0 9.243111-.360246 16.558549-1.414741 23.897474-1.520889 10.584858-4.419466 20.209516-9.418641 29.170428-6.476385 11.608776-15.587732 20.489582-26.843441 26.609073l-.008988.050888c-1.46918 8.293672-4.090588 16.496556-7.408158 23.97879l-.38586.860101c-12.123232 26.710263-42.991378 45.612108-71.618909 36.945228-.387351-.117269-.826961-.24451-1.322109-.382225-1.351941-.376011-6.975726-1.745964-12.798838-3.171219l-.920502-.225363c-4.604852-1.127744-9.200346-2.259166-11.782582-2.932403-16.438738-4.285888-29.579534-14.554604-37.616777-28.730175-1.630643-2.876024-3.016263-5.836798-4.172638-8.866371-21.206622 1.449086-41.224244 2.808937-55.572403 3.765941-7.577243.505393-14.995603.997089-22.259614 1.475231-24.715772 1.626879-47.313529 3.0768-67.671908 4.33682l-.016183.087384c-1.578339 7.742656-4.078671 15.376253-7.157786 22.401182l-.387879.87491c-12.380471 27.611161-44.110732 47.278927-73.418755 38.297339-.431128-.132121-.917264-.274553-1.462216-.427976-.622879-.175361-2.063261-.543153-3.989923-1.026107l-.592256-.148264c-2.020607-.505215-4.494371-1.117866-7.090072-1.760687l-.782037-.193674c-.392516-.097212-.787031-.194929-1.182426-.292891l-1.395601-.345902c-4.807137-1.192012-9.550432-2.374851-12.228969-3.081751-16.882653-4.455544-30.297656-15.066951-38.475857-29.66783-3.138093-5.602567-5.38415-11.525023-6.845683-17.65727l-.073544-.311204-.285825.146123c-11.29367 5.683225-24.117748 7.899739-37.329 4.100996l-.600774-.176821c-.258209-.077752-.561163-.164968-.910592-.261631-.155477-.04301-.393473-.105163-.702038-.183717l-.331645-.08392c-1.771416-.445922-5.207463-1.279048-8.814308-2.156759l-.704625-.171511-1.059672-.258151-.8376-.204306c-3.200597-.781204-6.253481-1.532799-8.111446-2.014601-15.308707-3.969809-27.644365-13.557533-35.179015-26.775217-4.647535-8.152953-7.139154-16.969626-7.922974-26.036442l-.038201-.488356c-2.496869-3.090086-4.801505-6.379094-6.911032-9.853729-7.264781-11.965936-12.010716-25.664689-15.037512-41.434734-.710714-3.702924-1.326602-7.514208-1.85785-11.469924-.155301-1.106576-.302826-2.213034-.442985-3.324074l-.152161-1.231983c-.116366-.962761-.227338-1.930184-.333148-2.905187l-.104096-.977639c-.817226-7.824726-1.310422-16.194277-1.596589-26.592176l-.006026-.177143c-.009925-.308381-.019599-.616559-.029027-.92483l-.027553-.925386c-.232503-8.027549-.302753-16.317638-.309014-30.066136l.00029-5.093926.000926-1.545995.000134-.191274.000829-1.21965c.000071-.106939.000139-.211426.000205-.313615l.000949-1.62456.000712-2.561371c-.28129-181.014853-.43292-319.795852-.450292-418.05055l.000129-29.995311c.013164-95.299048.179619-145.006901.505999-151.1748054l.012679-.2197709c.001078-.0212354.002158-.0420857.00324-.062551 1.900113-35.945735 27.736121-63.9617025 64.267433-72.5296672.672133-.1576405 4.070142-.9639184 7.685909-1.8204945l1.814418-.4297095c2.533077-.5997052 4.968026-1.1751921 6.444561-1.5212305 7.874946-1.8455598 15.031376-3.4725699 22.198934-5.0281913 7.490275-1.6256626 14.645969-3.0957605 21.515579-4.4060476 22.501592-4.29188029 40.805084-6.7010261 55.319174-6.7010261zm-288.839617 884.713374-.450186.025915c-32.190869 1.836695-55.88623 2.945582-70.24227 3.236667 2.787107 4.642557 7.106014 8.252797 13.429178 9.921559 13.202211 3.484229 23.066179 5.511171 30.23667 7.708604 7.170491 2.197432 20.083298-5.007819 25.199693-16.4185.618349-1.379054 1.236305-2.882283 1.826915-4.474245zm290.459919-19.152702-.151573.010256c-11.293347.774607-32.237445 2.217242-55.952652 3.846154 1.559952.870983 3.309285 1.575764 5.262857 2.085096 12.366627 3.224212 21.606294 5.09989 28.322956 7.133335 6.255492 1.893827 17.176584-3.759523 22.518412-13.074841zm-493.244287-397.714872.004218 3.977622c.073246 64.944334.173275 138.261881.300086 219.952641 0 3.422996-.004051 6.826342-.005247 10.204004l.000011 3.368878c.022599 51.518002 1.257492 96.52466 28.598604 113.268419l-.020675.046694c1.54598.947381 3.175441 1.804477 4.892886 2.567358 21.267412 9.446882 31.572749 17.382481 48.167571 22.114796l.019717-.036345c10.483686 2.984611 23.483318 4.690133 43.342222 4.690133 3.013573 0 6.844181-.0719 11.398599-.208964l-.062661.058699c13.377889-.396396 33.009216-1.348922 56.34184-2.652282-.039802-.018716-.084396-.036318-.129088-.053892 30.562725-1.709006 67.481009-4.021063 105.010404-6.473598l3.952472-.25866 1.977463-.129682 9.940495-.65452c.64376-.042525 1.287461-.085071 1.931075-.127638l3.860413-.255618c39.875386-2.643457 79.194833-5.345073 111.073357-7.550766l-.046232.083169c27.776353-1.919487 49.954919-3.466363 62.019463-4.27734-.045909-.024042-.086513-.049108-.127346-.074139l.011551-.001569c2.711476-.18229 4.898927-.326401 6.509303-.428061 33.829219-2.13556 36.893479-24.170857 36.893479-49.663092l-.00595-299.928361c-220.286889 4.08404-356.330636 6.475422-408.412833 7.178193l-3.675054.04859c-8.810057.113881-14.788353.170809-17.936634.170809-21.428383 0-56.569279-4.99314-105.823509-14.955478zm348.775932 55.989082c5.522847 0 10 4.477153 10 10v238.339711c0 5.522847-4.477153 10-10 10-5.522848 0-10-4.477153-10-10v-238.339711c0-5.522847 4.477152-10 10-10zm143.195617-483.5336044h-352.278414c-29.028525 0-85.63924 14.0917717-105.923252 18.8441566-20.204467 4.7337482-32.483736 18.5451106-33.470485 35.4866928l.004906-.084284c-.285325 5.397691-.435064 53.18477-.449216 143.361239l-.000387 26.634724c.005814 50.016789.046826 111.037294.123033 183.061513.612186.012243 1.232229.078113 1.854013.204646 49.152347 10.002542 83.955785 14.991313 103.991762 14.991313 20.520792 0 164.027442-2.469383 430.022725-7.400996l.007746-375.2181485c0-13.0386879-5.973304-22.2312637-13.683661-28.5007044-10.50345-8.3462997-24.060496-11.3801515-30.19877-11.3801515z"/></svg>