<svg height="960" viewBox="0 0 960 960" width="960" xmlns="http://www.w3.org/2000/svg"><path d="m590.228218 92.5091765 50.859139 78.0820245c1.86998 2.870905 3.363354 5.970171 4.443448 9.221681 5.299971 15.955012 5.607216 32.286535.407832 47.724686l-.137827.398066 129.944475 204.531934c8.235031 12.961994 7.932316 27.954239 1.735867 39.885631l-.334342.627435 134.683716 236.399509c6.08131 10.674034 6.915593 23.540144 2.286989 34.896771l-.220968.531223-17.040827 40.152559c-5.977586 14.084726-19.466206 23.525506-34.746296 24.319177l-499.415151 25.940367c-16.169275.839856-31.250123-8.150632-38.20113-22.773707l-289.0763328-608.139899-.1853215-.296191c-3.4898302-5.65567-5.5061465-12.084465-5.8929817-18.678449l-.0206968-.40536-.0117192-.155444c-.4278809-6.988608 1.0284474-13.841258 4.0032234-19.931615l.2464958-.491941 23.1827703-61.460102c5.7864781-15.3407268 20.3396919-25.5806083 36.6994043-25.8764178l.4962946-.0059152 462.5466006-2.6645674c13.607048-.0777 26.320672 6.7666799 33.747338 18.1685449zm281.873454 648.3888005-480.849 26.882-15.61 26.714 484.39189-25.160255zm-781.0237336-615.708216-21.5571282 57.148873-.249.017589.135.284411-.135.359366.517.443634 286.9738618 603.718343 17.267-29.547-130.608234-274.760103c-.795854-1.674235-1.130676-3.283249-1.101905-4.779894l.000418-.020692-.265686-.559438c-.120084-.252706-.240775-.506669-.362074-.761889l-.36572-.769429c-24.027583-50.546764-60.385816-126.206032-109.071325-226.970633-.048892-.099502-.096235-.19964-.141905-.300518l.104616.223342c-.05449-.112779-.106673-.226076-.156568-.339836-.020194-.046385-.03994-.092455-.05934-.138669-.018577-.043528-.03687-.087858-.054821-.132252-.013139-.033601-.026243-.066612-.039172-.099691-.392297-.99918-.611937-2.029799-.671557-3.055893-.00144-.032127-.003218-.064803-.004835-.097498-.002836-.051568-.004909-.10282-.006585-.154053-.007672-.230828-.007498-.462293.000832-.694212.001851-.031569.003144-.062541.004582-.093498.041738-.938206.218087-1.883379.538683-2.808691.012817-.035644.025371-.071347.038126-.106979.013815-.039538.028225-.078891.042899-.118205.020064-.053243.040463-.106665.061316-.159912.013224-.033883.026646-.067534.040264-.101153.040726-.100805.083169-.201102.127241-.300707l-.030896.070978c2.947401-6.794057 4.985661-12.583565 6.12312-17.310094.915848-3.805658 1.068712-6.498147.329085-10.32378-1.060325-5.484417-3.99877-12.61027-9.473539-22.100691-7.040347-12.204326-19.690287-34.091983-37.9487536-65.661126zm640.4017336 348.439216-44.168 1.524 108.411682 193.432361c3.61735 6.454268-.78402 14.465601-8.171586 14.873845l-369.362752 20.411351c-3.994929.220764-7.736912-1.960932-9.512772-5.546252l-104.004572-209.975305-34.77482 1.200598c5.659918 12.009185 8.18727 17.56023 8.586086 18.872124.092664.310694.092664.310694.218582.840304.12307.548784.149825.668084.186452 1.57385l.001979.048435 112.589 236.852 480.851721-26.882311zm-94.797 3.54-309.367036 11.835117 96.354 194.532 319.109036-17.634117zm28.226964-1.079883-5.766964.220883 105.888 188.363 5.405964-.298883zm65.421036-40.511117-478.448761 16.029774c2.623419 5.502644 5.125963 10.75912 7.507634 15.769435.40018.841857.793079 1.66856 1.178789 2.480309l478.787698-16.510836c.821769-.028338 1.623793.043304 2.394364.204zm-24.106-37.945-472.573711 15.833752c3.057511 6.382792 5.999952 12.531241 8.827327 18.445352l475.404384-15.929104zm-24.233-38.142-466.735085 15.637892c3.103499 6.459222 6.115929 12.732978 9.037292 18.821271.610758-.140397 1.244468-.223805 1.894764-.245592l467.587029-15.665571zm-22.978-36.169-462.219863 13.424013c3.077619 6.391686 6.082589 12.635416 9.01491 18.731193.295705-.039596.597722-.063453.903404-.073694l462.831549-15.506512zm-23.516-37.014-458.003934 10.390083c3.336508 6.917775 6.601701 13.690314 9.795581 20.317622l459.243353-13.338705zm-26.082-41.052-452.653408 8.489396c3.806798 7.881887 7.534724 15.603146 11.183779 23.163782l455.022629-10.322178zm-52.704427-130.915343-447.313857 2.576315c17.72123 30.640824 30.038691 51.953621 36.953391 63.940138 12.122661 21.014434 14.537009 33.502375 11.265223 47.097758-.444839 1.848456-.983049 3.780953-1.614381 5.799226l445.929895-8.36043c2.163106-2.748388 4.484792-6.336664 5.638868-9.344684 2.804229-7.309028 2.804229-15.184461 0-23.626299z"/></svg>