<svg height="960" viewBox="0 0 960 960" width="960" xmlns="http://www.w3.org/2000/svg"><g><path d="m140.304232 144.526529-.00524.315264-.299987 347.970207v.198101 1.9798.198099l.299987 347.970207.007964.390562.063991 1.602029c2.769146 58.29838 48.894645 102.855617 101.942603 97.386286l1.5365-.172715 194.327944-23.771102 1.330504-.17369c46.25315-6.440224 80.719135-49.381786 81.418505-100.376689l.010601-1.485111.061401-323.555788-.061157-321.491812-.010148-1.485789c-.707892-51.632718-35.920636-94.8860792-82.749055-100.6175755l-194.234315-23.7601027-1.63078-.1837939c-53.647111-5.5311048-100.097605 40.0588054-102.009318 99.0636131zm99.928768-79.172529 1.377172.1558087 194.139384 23.748944c36.469441 4.4636242 64.604003 39.0225433 65.179328 80.9726243l.009208 1.350558.060908 321.420066-.061152 323.48403-.00966 1.349868c-.568359 41.42561-28.121533 75.754422-64.095881 80.76371l-1.165568.15212-194.150847 23.749541-1.347861.151455-1.227981.114887c-40.478018 3.401323-76.366199-31.712972-78.588335-78.490444l-.053715-1.354168-.3-347.931658v-.130342-1.724-.12854l.3-347.95646-.004256.122175c1.536799-47.4331511 37.689381-83.3751857 78.723718-79.9331078z"/><path d="m68.7902948 74.4062248c-1.7357475.5822375-3.3833304 1.4000477-4.8965885 2.4305183l-.989276.6808931c-4.5910905 3.1939659-8.8247057 6.6196717-12.6989213 10.3289429l-.402509.3884209-.0576981.0530096c-.1287515.1197975-.2559961.2413613-.3816954.3646663-20.6150577 20.2223811-32.6189486 48.2652271-32.8179591 78.2526001l1.2433526 327.167724-1.2433526 327.127931.0091113.904789c.4359625 29.72645 12.4118183 57.403387 32.8088478 77.411894l.3816954.364666.0696981.06272.4906215.474384c4.125634 3.938205 8.6552471 7.55509 13.5880848 10.914163 1.5132581 1.03047 3.160841 1.84828 4.8965885 2.430518l4.9160425 1.645152 4.832734 1.609396 4.7497481 1.573673 4.6670847 1.537986 4.5847438 1.50233 4.5027255 1.466709 4.4210296 1.431121 4.339657 1.395568 4.258606 1.360047 4.177877 1.324561 4.097473 1.289107 4.017389 1.253689 3.937629 1.218303 3.85819 1.18295 3.779076 1.147633 3.700282 1.112348c.610166.182453 1.217062.363437 1.820695.542953l3.582698 1.059484 3.504712 1.024283c1.155275.335565 2.297607.665269 3.427048.989117l3.349706.953984c2.207429.624285 4.363512 1.225171 6.468679 1.802702l3.119618.848786c8.217435 2.21675 15.623659 4.060183 22.246193 5.533171l2.446769.535011c14.059156 3.019672 24.384703 4.268425 31.264752 3.776328l213.743495-15.363374 1.709742-.136782 1.679457-.161445c55.289813-5.757377 97.394124-53.946483 99.093121-112.625787l9.467733-327.542069.024323-.238797c.070086-.781879.094999-1.576432.072138-2.380981l-.010461-.348222.010431-.342881.009971-.344593c0-.687942-.022071-1.368323-.082331-2.039437l-.024071-.240089-9.467706-327.537846c-1.735411-59.936973-45.599187-108.836753-102.482498-112.9249578l-213.743344-15.3633636c-10.025214-.7170562-27.366136 2.2621756-52.914148 9.0307222l-3.043566.8137876c-.51359.1385469-1.030348.2785521-1.550282.4200162l-3.157764.866298c-.532663.1473028-1.068515.296066-1.607563.4462903l-3.272688.9188841-3.349706.9539837c-1.129441.3238482-2.271773.6535519-3.427048.9891167l-3.504712 1.0242836c-1.771825.5209391-3.572896 1.0550784-5.403393 1.6024368l-3.700282 1.1123479-3.779076 1.1476326-3.85819 1.1829508-3.937629 1.2183028-4.017389 1.2536884-4.097473 1.2891077-4.177877 1.3245606c-.703032.2237164-1.409427.4489114-2.119192.6755857l-4.299091 1.3778031-4.3803029 1.4133403-4.4618373 1.448911-4.5436944 1.4845154-4.6258739 1.5201535-4.708376 1.5558253-4.7912008 1.5915307-4.8743479 1.6272697c-.8193382.2741917-1.6421543.549874-2.468455.8270475zm147.2174362.7816815 213.729509 15.3623715c35.814143 2.5739633 64.209936 34.2298802 65.366783 74.1846152l9.510858 329.013309.012119.334798-.012119.338397-9.510885 329.014934-.04231 1.183141c-1.6423 38.569016-28.718971 69.207032-63.201411 72.813395l-1.051275.100133-1.18.095-213.628262 15.354885-.364079.021248c-3.028443.13913-8.128129-.512691-15.203132-1.945467l-1.735878-.358856c-.295618-.062306-.594383-.125861-.896291-.190664l-1.849104-.403781c-.314451-.06979-.632033-.140827-.952738-.213109l-1.961666-.448638c-.666351-.154525-1.345147-.314028-2.03634-.478503l-2.110718-.508339c-.357968-.087208-.719023-.175657-1.083159-.265348l-2.221734-.553034-2.295375-.582792c-.777367-.199221-1.566957-.403396-2.368723-.612521l-2.441776-.642217c-.413034-.109509-.8291-.220255-1.248191-.332235l-2.550802-.686706c-.431168-.11692-.865349-.235074-1.302538-.354462l-2.659165-.731124-2.73104-.760699c-.461146-.129246-.925275-.259723-1.39238-.39143l-2.838298-.805003-2.909435-.8345c-.490817-.141539-.984586-.284307-1.481301-.428301l-3.015588-.878689-3.085989-.90811-3.156094-.937499-3.225906-.966859-3.295422-.996188-3.364643-1.025485-3.433571-1.054753-3.502202-1.083989-3.570541-1.113196-3.638583-1.14237-5.584811-1.768192-5.736251-1.833663-3.907808-1.258764-5.986438-1.942552-6.1352257-2.007748-4.1723184-1.374666-4.2377092-1.403566-6.0387747-2.012115-.1914761-.139205c-2.2531715-1.659408-4.3055152-3.370656-6.1625062-5.143283l-.6310549-.611273-.1659628-.155239-.2068312-.205328c-12.6349045-12.630128-20.0933909-30.0812-20.3696958-48.914275l-.005473-.531397 1.2433856-327.058775-1.2433856-326.896225.0065975-.614845c.2954462-18.803763 7.7460672-36.224118 20.3690005-48.841968l.172402-.171187.9052359-.87094c1.8434987-1.753234 3.8786657-3.446538 6.1107235-5.089082l.1660406-.121978 3.9206695-1.307599 6.4455043-2.137428 4.213627-1.388085 4.1465722-1.358555 6.093467-1.982394 3.977607-1.284591 3.909489-1.25495 5.735851-1.8267787 3.737868-1.1807087 3.668688-1.1509567 3.599205-1.121173 3.529418-1.0913577 3.459327-1.0615107 3.388933-1.0316321 3.318235-1.0017216 3.247234-.9717796 3.175929-.9418059 3.104321-.9118004 3.032408-.8817634 2.960193-.8516945 2.887673-.8215941c.475219-.1344222.947404-.2675889 1.416548-.3994995l2.778325-.776384c.456956-.1268832.910859-.252509 1.361702-.3768766l2.668295-.7311026 2.59456-.7008754 2.520524-.6706165c.413901-.1092461.824704-.21723 1.232403-.3239513l2.408899-.6251688 2.334102-.5948307c.382767-.0966085.762405-.1919516 1.138908-.2860286l2.221339-.5492642 2.145784-.5188469c.351318-.083938.699475-.1666072 1.044464-.2480071l2.031883-.4731615 1.955568-.4426651c.639104-.1424687 1.265437-.2798495 1.878951-.4121369l1.80203-.381577c7.935605-1.6482893 13.52551-2.3673606 16.645227-2.1442219z"/><path d="m662.178691 309.225805-.006203.34302-.172483 183.240175v.201569 1.978874.186557l.172483 183.255175c.000131.14169.003274.283362.009427.424918l.036871.848357c1.73798 33.630611 30.479636 59.148214 63.323039 56.036077l.917888-.094692 112.00026-12.591398.795286-.095313c28.724743-3.675792 50.264006-28.340102 50.70291-57.755725l.00653-.824013.035306-171.376785-.035017-169.308061-.005994-.824742c-.444615-29.816281-22.447576-54.656309-51.498421-57.924167l-111.913934-12.582078-1.004814-.10408c-33.215823-3.147426-62.164495 22.965644-63.363134 56.966332zm61.476449-37.05552.743975.077445 111.826408 12.572622c18.943398 2.130896 33.439766 18.49643 33.734872 38.274631l.004882.677619.034723 169.230023-.035012 171.298723-.005417.676867c-.291047 19.488225-14.485864 35.742512-33.167342 38.133298l-.643102.077021-111.836938 12.573124-.744005.07668-.638257.054906c-21.037882 1.626487-39.592534-15.057508-40.733904-37.139203l-.024023-.563041-.170004-183.200852-.002996-.130148v-1.722l.002996-.128263.170004-183.215737-.005725.136435c.79734-22.617416 19.856787-39.809938 41.488865-37.76015z"/><path d="m619.106612 256.56628-.833671.575227c-2.760149 1.932137-5.332645 4.012474-7.714191 6.272216l-.718255.687145c-13.098082 12.833212-20.714231 30.604356-20.840296 49.571845l.686801 180.326287-.686801 180.28482.011448.923601c.351207 18.642805 7.940086 36.063586 20.828848 48.691711l.407505.386868.502224.481122c2.568665 2.4163 5.354979 4.6252 8.356388 6.666598 1.512746 1.028889 3.159511 1.845351 4.894223 2.426545l5.573104 1.8585 4.051123 1.339109 3.942012 1.292292 3.83399 1.245589 2.496517.804502 2.449312.783829 3.586163 1.137055 2.33271.732293 2.286631.711738 3.344257 1.029139 3.242396.983077 2.105543.629851 2.061077.609464 2.016933.58911 1.97311.568789 1.929609.548502 1.886432.528248 1.843576.508029 1.801042.487843 2.622516.693988 1.696117.437524 1.654711.417456 1.613626.39742 1.572864.377419 1.532425.35745 1.492307.337517c.245392.054593.489127.108357.73121.161293l1.432734.307677c.235504.049625.46937.098422.701605.146393l1.373887.277915 1.335057.258114c.219292.041371.436979.081919.653069.121643l1.277417.228477c1.048627.182178 2.057646.343819 3.027896.485009l1.145744.159617c3.945348.524345 7.212727.688565 9.864293.499138l118.396075-8.500495.928523-.074848 1.067744-.102468c35.149858-3.652453 61.758382-34.067602 62.825152-70.867197l5.186656-179.232266.003281-.026121c.092078-.88104.12676-1.778864.100256-2.68963l-.012537-.419249.012508-.416254c.026815-.919903-.008881-1.826943-.10322-2.717075l-5.186917-179.230987c-1.089695-37.590425-28.814564-68.461398-64.982455-71.057674l-118.235066-8.488284c-2.651566-.189427-5.918945-.025207-9.864293.499138l-1.145744.159617c-.97025.14119-1.979269.302831-3.027896.485009l-1.277417.228477c-.21609.039724-.433777.080272-.653069.121643l-1.335057.258114-1.373887.277915-1.413038.297748c-.238787.051279-.479218.103387-.721301.156322l-1.472369.327562-1.512325.347479c-.255402.059575-.512482.119981-.771248.181219l-1.572864.377419-1.613626.39742-1.654711.417456-1.696117.437524-1.737845.457626c-.293136.077948-.588024.156735-.884671.236362l-1.801042.487843-1.843576.508029-1.886432.528248-1.929609.548502-1.97311.568789-2.016933.58911-2.061077.609464-2.105543.629851-2.150333.650273-3.310182 1.013772-3.412769 1.059909-2.33271.732293-3.586163 1.137055-2.449312.783829-3.762578 1.214516-2.567929.835575-5.28021 1.733455-4.087734 1.354739-4.198295 1.401707c-1.734712.581194-3.381477 1.397656-4.894223 2.426545zm88.728388 15.43472 118.019775 8.473337c15.107724 1.084493 27.353196 14.719531 27.863365 32.318455l5.232106 180.784932.016754.421276-.011036.24918-5.237852 180.959984-.018581.521113c-.719108 16.98475-12.399052 30.192082-26.952793 31.717741l-.375738.035982-.62.049-117.915391 8.466454-.238908-.011219-.300416-.021458-.359384-.032477-.546943-.059494-.601891-.076235c-.104837-.014108-.211919-.028919-.321226-.044437l-.682364-.1016c-.118119-.018352-.238418-.037417-.360878-.057196l-.760496-.127269-.811285-.144553-.892264-.167959c-.15222-.029383-.306191-.059459-.46191-.09023l-.95525-.192953-.996989-.209605-1.038529-.226247-1.079868-.242881-1.121007-.259505-1.161944-.27612-1.202682-.292727-1.879967-.470206-1.970499-.507521-1.363628-.359062-1.977397-.530929-1.976952-.541785-2.04403-.570576-2.829605-.805534-2.948583-.856666-3.067406-.907771-3.186074-.958844-3.304587-1.009888-3.422945-1.060903-2.644788-.829138-3.629698-1.150107-3.747628-1.20104-2.888021-.934187-3.953634-1.290101-4.071139-1.340952-3.398794-1.128079-.307562-.249043c-.414286-.341769-.804542-.685053-1.171246-1.030005l-.483192-.464952-.176309-.175008c-5.23023-5.298366-8.343666-12.60362-8.49314-20.537987l-.004551-.377005.68673-180.154092-.68673-180.041908.006905-.447504c.17751-7.891508 3.283402-15.151119 8.492174-20.426898l.216921-.216598.483422-.461574c.36312-.339785.749159-.677985 1.158592-1.014751l.278986-.225675 4.426586-1.467083 3.042347-1.000948 3.953634-1.290101 3.835975-1.239221 3.718161-1.188309 3.600191-1.137369 3.482065-1.086399 3.363786-1.0354 3.24535-.98437 3.126759-.933311 1.51886-.447499 2.222586-.647292 2.859363-.81832 2.740269-.767164 1.325425-.36439 1.932197-.522583 1.38352-.367343 2.000526-.519952 1.91022-.482648 1.819237-.445314 1.161944-.27612 1.666096-.383024 1.059223-.234565 1.017784-.217927c.166167-.034934.330598-.069175.49329-.102722l.95525-.192953.913309-.176293.440865-.081896c.278777-.05108.549264-.099256.811285-.144553l.760496-.127269.708668-.110123c.113735-.016932.225266-.033156.334574-.048673l.628975-.084656.574547-.067847c.091165-.009915.180018-.019135.266538-.027663l.359384-.032477.300416-.021458z"/></g></svg>