<svg height="960" viewBox="0 0 960 960" width="960" xmlns="http://www.w3.org/2000/svg"><path d="m773.368444 134c17.161991 0 31.720962 12.600505 34.183735 29.58505l6.635821 45.76895.872535.498954c1.055552.608951 2.102588 1.232386 3.140818 1.870108l.553647.343938 43.035082-17.166252c15.780955-6.295941 33.768545-.175757 42.452721 14.368788l.260297.443318 24.868444 43.074764c8.580673 14.86263 4.948244 33.7712-8.528069 44.395666l-39.358475 31.032716-.014.56 39.371663 31.040076c13.342354 10.518854 17.035921 29.156333 8.782639 43.949226l-.253758.44708-24.868444 43.074764c-8.580862 14.862956-26.772659 21.171642-42.713944 14.811737l-46.975156-18.744883-7.261848 50.06113c-2.438119 16.814521-16.731748 29.332422-33.669639 29.58487h-50.250957c-17.161991 0-31.720962-12.600505-34.183696-29.584783l-7.25986-50.061217-46.978082 18.745252c-15.780955 6.295941-33.768545.175757-42.452721-14.368788l-.260297-.443318-24.868444-43.074764c-2.655232-4.599141-4.140996-9.585702-4.527488-14.594338-1.177569 3.872811-3.056188 7.592431-5.647503 10.968993l-35.576465 46.358963.366096.824681c.460839 1.050172.913606 2.103998 1.358255 3.161395l.489649 1.177924 57.857508 7.615048c17.024056 2.240007 29.793948 16.628509 30.051492 33.745149v80.540095c0 17.344234-12.855476 32.002026-30.050158 34.264484l-54.846842 7.219224-.017703.049098c-.949028 2.556203-1.944665 5.093833-2.986319 7.611769l-.214978.511133 33.568995 43.746351c10.453901 13.62175 9.309372 32.825635-2.614531 45.108316l-.364629.370071-56.583097 56.583097c-12.264226 12.264226-31.719044 13.538656-45.478163 2.979332l-41.209575-31.626167-1.020419.472255c-2.875409 1.315019-5.779272 2.569033-8.709826 3.761058l-1.446755.581687-6.751048 51.306508c-2.240007 17.024056-16.628509 29.793948-33.745149 30.051492h-80.540095c-17.344234 0-32.002026-12.855476-34.264566-30.05078l-6.557142-49.82022-1.243969-.472414c-3.456713-1.328032-6.878231-2.741623-10.261739-4.23924l-1.221292-.546346-39.853351 30.581995c-13.62175 10.453901-32.825635 9.309372-45.108316-2.614531l-.370071-.364629-42.474262-42.474605h56.568l10.816 10.81577 14.094-10.81577 96.566878.000084c.234985.862784.413764 1.74772.53256 2.650321l7.547562 57.350365h70.478l7.710297-58.577509c.063107-.479529.143159-.954126.239595-1.423111l3.491639.00062 2.613623-.027751c24.191509-.51458 45.91004-8.157529 63.729457-20.585801l40.957389 31.428552 49.836-49.836-37.935279-49.43499c-2.405815-3.135172-3.780018-6.83932-4.073638-10.632972.391633-2.540274.693543-5.100002.908823-7.674624.236454-.751102.524271-1.491813.858425-2.218821l.172653-.365881c4.091337-8.448856 7.529465-17.206258 10.279302-26.20548 2.290152-7.494839 8.746677-12.961509 16.516562-13.984395l62.457152-8.222837v-70.478l-64.946199-8.548493c-7.357687-.968407-13.562862-5.928289-16.138714-12.865381l-.132206-.366924c-2.62242-7.505797-5.730353-14.823967-9.301179-21.913625l-.72033-1.414872c-3.540915-6.881137-2.794304-15.187506 1.91695-21.326903l40.136678-52.305802-49.836-49.836-53.011082 40.680577c-5.951309 4.56683-13.946873 5.412944-20.710247 2.220818l-.367669-.178123c-6.805032-3.382594-13.816981-6.339612-21.000134-8.851651l-1.541855-.531476c-7.209113-2.448944-12.402461-8.778697-13.396002-16.327308l-8.713011-66.195837-30.43-.00077-19.862691-37.828082c-.384431-.729954-.775489-1.454273-1.173067-2.172915l56.23705.001767c17.344234 0 32.002026 12.855476 34.264557 30.050711l7.764151 58.994289 1.304436.530993 1.617305.673291 1.238259.526716 47.213351-36.228995c13.62175-10.453901 32.825635-9.309372 45.108316 2.614531l.370071.364629 56.583097 56.583097c6.033143 6.033143 9.406807 13.806375 10.020559 21.785605 1.989792-6.557799 5.938012-12.565366 11.662339-17.078315l39.719267-31.317552-39.718663-31.315076c-13.342354-10.518854-17.035921-29.156333-8.782639-43.949226l.253758-.44708 24.868444-43.074764c8.580862-14.862956 26.772659-21.171642 42.71199-14.812516l43.44311 17.328662.766695-.475448c1.06213-.653043 2.133499-1.29114 3.213797-1.914074l.115508-.066478 6.699848-46.18813c2.438119-16.814521 16.731748-29.332422 33.669639-29.58487zm-540.251703 146.362172 8.301259 15.809828 2.997254 5.704853 27.601179 52.564474 27.232982 51.870126 20.323576 38.701581 75.870756 144.497296 1.991253 3.79467.337849.641464c.920922 1.748136 1.683317 3.521075 2.294972 5.306074.144819.422612.281303.846279.409426 1.270455.121907.403629.236045.806967.34273 1.210618.022664.085748.045146.172106.067287.258477l.086068.342772c.029965.121873.059387.244326.08813.366797.029383.125198.057993.250135.085901.375086.032063.143553.063224.287244.093458.430948.011524.054771.022955.109746.034251.164723.0374.18203.073255.363752.107642.545477.026451.139775.052153.280226.076981.420673.016296.092182.032226.184427.047781.276669.022694.134598.044494.268585.065504.40256.020427.130245.040172.260925.059169.391588.018638.128202.036534.256232.053714.384241.015034.112012.029558.224313.043533.336595.01478.118775.028896.237082.042403.355364.014871.130225.029024.260594.04244.390929.015219.14783.029508.295808.042852.443734.008631.095694.016813.190721.024606.285725.010035.122289.019487.245406.028288.368478.009273.129692.017798.258925.025608.388104.007533.124633.014389.248977.020584.373267.006208.124516.011769.249425.016666.374275l.011416.330574c.003941.132002.007148.264345.009611.396613.002515.135148.00425.269811.005217.404391l.000872.308133c-.000176.115999-.000926.232327-.002249.348585-.001551.136225-.003876.271837-.006977.407348-.002652.115985-.005891.232454-.009702.348844-.003732.11396-.008.227565-.012811.341092-.005681.134017-.012107.267722-.019285.401314-.006402.119147-.013413.238402-.021022.357562-.006635.103899-.013715.207603-.021246.311233-.010911.150146-.022791.300381-.035617.450452-.006689.078262-.013587.155946-.020738.233584-.015483.168126-.032199.336463-.0501.504575-.007853.07375-.015932.147438-.024239.221082-.018775.166443-.038692.332501-.059763.498323l-.019319.149514c-.024132.183684-.049576.366369-.076415.548746-.013191.089641-.026741.179351-.040629.268985-.02174.140318-.044316.280508-.067715.420504-.01911.114331-.03874.228377-.058915.342289-.022443.126714-.045571.253325-.069371.379767-.021896.116326-.044328.232345-.067326.348218-.023723.119537-.048101.239174-.073079.358649-.023319.111537-.047171.22298-.071545.33428-.026392.120505-.05332.240513-.080854.360348-.025525.111094-.051598.222156-.078191.333066l-.048474.199665-.049658.199576c-.024899.098864-.050108.197202-.075724.295414-.030919.118543-.062511.237187-.094698.355642-.037125.136626-.07504.272996-.113744.409106-.02613.09189-.052488.18321-.079199.274411-.033798.115403-.068325.231145-.103421.34669-.041328.136059-.083393.271678-.126242.407018-.026229.082846-.052744.16556-.07955.248167l-.131426.397208c-.038382.113809-.077494.227906-.117165.34179-.032129.092232-.064554.184123-.097342.275871-.047161.131961-.094953.2633-.14349.394341-.037862.102223-.07627.204508-.115132.306606-.04875.128077-.098204.255835-.148367.383294l-.119272.299185c-.042261.104666-.084961.209027-.128139.313179-.051507.124244-.103686.248175-.15654.371803l-.115284.266718c-.057595.131813-.115881.263098-.17493.394025-.037896.084023-.076011.167688-.114437.251205-.053866.117074-.108276.233711-.163294.35005-.045339.095874-.091206.191784-.137485.287488-.058089.12012-.116547.239349-.175646.358251-.057655.115995-.11591.231662-.174772.347013-.055761.10927-.111913.217963-.168603.326369-.048608.092956-.097924.186284-.147639.279396l-.183628.339618-.15628.282499c-.062808.112365-.125784.223662-.189336.334626-.055287.096536-.111241.193214-.167634.289635l-.212248.358241c-.059143.098551-.118816.196937-.178949.295042-.044653.072849-.089507.145458-.134613.217911-.080699.129624-.162068.258534-.244237.386938-.056741.088669-.113986.177284-.171611.265654-.067711.103835-.135821.20714-.204452.310103-.055154.082745-.110707.16536-.166596.247752-.076848.113282-.153748.225302-.231271.3369-.077126.11103-.155226.222147-.233944.332835l-.189668.264217c-.068515.094562-.137572.188921-.207082.282955l-.230171.308-.177991.233652c-.094708.123295-.189891.245601-.285855.367314-.047511.06026-.095446.120667-.143575.180926-.097831.122486-.196243.2441-.295443.365095-.057957.070694-.116365.141394-.175042.21188-.082138.098669-.164733.196834-.247851.294576-.08242.09692-.165285.193344-.248661.289346-.079697.091768-.1601.183421-.24097.274683l-.233237.260689c-.072883.080684-.146344.16128-.220174.241557-.084791.092195-.169957.183849-.255605.275079-.088526.094294-.177597.188165-.26718.281576-.063721.066444-.127879.132839-.192297.198998-.104282.107099-.208967.213302-.314324.318883-.06822.068364-.136749.136495-.205559.204363-.098526.097177-.197616.193803-.297278.289883-.081761.078822-.163686.157066-.245991.234942l-.2503.234603c-.096888.089955-.194085.179215-.29179.267966-.084384.07665-.169176.152945-.254345.228856-.086014.076663-.172575.153077-.259521.229093l-.284158.24585c-.084573.072405-.169061.144069-.253898.215361-.110075.0925-.220866.184481-.332242.275827-.062564.051313-.125455.102541-.188531.153567-.112443.090963-.225559.18135-.339257.271085-.098883.07804-.197692.155189-.296934.231846l-.264299.202208c-.104193.078955-.208991.157474-.314255.235446-.092302.068371-.184792.136198-.277636.203604l-.30332.217814c-.094594.067183-.189132.133643-.284025.199669-.086493.060183-.17374.12032-.261283.180088-.11634.07943-.233167.158187-.350513.23629-.099307.066096-.198845.131631-.29875.196694-.099327.064688-.1992.129026-.299435.192892l-.274695.173275c-.121124.075638-.242963.150709-.365318.225086-.108237.065796-.217009.131126-.326183.195906-.083315.049437-.166805.098519-.250528.14728l-.411502.236007-.250559.140166c-.122069.067642-.244605.134606-.367612.200887l-.259552.138478c-.140403.074164-.281243.147359-.422678.219662-.078238.039997-.156465.079623-.234872.118976-.143092.071821-.287118.142894-.431741.213046-.077173.037432-.154299.074499-.231593.111304-.122841.058493-.246371.116445-.370325.173725-.106972.049432-.213915.098207-.321168.146483-.088676.039913-.177809.079593-.267156.118927-.146442.064468-.293284.127934-.440691.190463l-.170387.071754c-.166013.069403-.332567.137554-.499821.204508-.072406.028986-.144866.057716-.217456.086222-.160239.062926-.321098.12475-.482584.185469-.123708.046516-.248145.092514-.372951.137855l-.27854.099882c-.135516.047959-.271323.095099-.407552.141461-.113538.038639-.227182.076676-.341117.114172-.117083.038533-.234898.076628-.353019.114144-.1134.036015-.226929.071448-.340737.106344-.15269.046817-.305787.09264-.459383.137489l-.269734.077613c-.443739.1258-.891722.243526-1.343677.352934-.037679.009121-.075788.018281-.113926.027382-.190131.045369-.380473.089158-.5715.131469-.06015.013323-.120331.026491-.18058.039512-.174029.037614-.348858.074049-.524247.109245-.078674.015787-.157228.03128-.235894.046524-.133237.02582-.267013.050965-.401106.075389-.126483.023037-.25306.0454-.379917.067119-.117112.020051-.234624.039579-.352374.058554-.132509.021354-.265416.042021-.398621.061981-.14901.022327-.297978.043713-.447311.064212l-.165412.022324-.165901.021623c-.109722.014047-.219572.027609-.329615.040692-.410574.048814-.824097.090977-1.240227.126327-.146631.012456-.293752.024079-.441194.034849l-.350781.02397c-.069038.004393-.138126.008598-.207283.012616-.729555.042385-1.466845.063922-2.211382.063922l-123.906337.002352-205.4849267-.002352c-26.99870076 0-44.39055951-28.397592-32.46373083-52.329721l.37041356-.723815 96.74204997-184.156464 15.073-28.69177 2.111-4.018 1.071-2.03823 8.739-16.636 36.774606-70.002346 4.2245-8.041482c13.596184-25.816229 50.590451-25.816229 64.186635 0zm-32.093318 259.978115c-14.623802 0-26.559987 11.842307-26.559987 26.526768 0 14.605512 11.857137 26.526768 26.559987 26.526768 14.623802 0 26.559987-11.921256 26.559987-26.526768s-11.857137-26.526768-26.559987-26.526768zm205.716823-101.408438c23.246115 20.836769 39.116221 49.735836 43.212801 82.299681zm-205.16349-66.831271c-10.197138 0-18.418086 8.210666-18.418086 18.39505v105.712328c0 10.184384 8.220948 18.395051 18.418086 18.395051s18.418086-8.210667 18.418086-18.395051v-105.712328c0-10.184384-8.220948-18.39505-18.418086-18.39505zm567.067244-198.100578h-40.289l-7.487876 51.629431c-.946806 6.527634-5.049041 12.159751-10.95034 15.068191l-1.374682.656085c-5.415216 2.618811-10.564103 5.762665-15.374793 9.382571-5.580833 4.199415-12.948103 5.183312-19.435357 2.595585l-48.955952-19.527863-20.145 34.892 44.036034 34.719442c4.981462 3.927519 7.798007 9.979462 7.608294 16.304243l-.068076 1.585833c-.044487 1.182956-.066792 2.36943-.066792 3.559065 0 3.488121.191758 6.94855.571968 10.371996l.040002.395917c.61245 6.728265-2.215399 13.32314-7.534874 17.517244l-44.586556 35.15326 20.145 34.893 55.577749-22.175289c5.885825-2.348412 12.527736-1.765831 17.907711 1.551442l.356773.225201c3.218872 2.07947 6.563005 3.957339 10.013853 5.621563 5.989024 2.888295 10.15105 8.564135 11.105226 15.144424l8.617688 59.436659h40.289l8.57279-59.095685c.942814-6.499439 5.014332-12.112988 10.878663-15.032409l1.425768-.687976c3.205011-1.568764 6.316829-3.322477 9.320475-5.251483l.356334-.223602c5.373082-3.29357 11.99464-3.865483 17.863299-1.523794l55.161671 22.009949 20.145-34.892-43.970564-34.66609c-5.345509-4.214374-8.173459-10.85142-7.526747-17.609703l.170411-1.576157c.324528-3.166946.488101-6.364881.488101-9.586467 0-1.726191-.046963-3.445715-.140509-5.157483l-.018061-.405927c-.218228-6.354187 2.599787-12.444228 7.605143-16.390774l43.392226-34.214399-20.145-34.893-48.517586 19.3545c-6.343404 2.530358-13.529565 1.646107-19.064234-2.322909l-1.25748-.927042c-4.967908-3.623152-10.282518-6.745044-15.867222-9.313844l-.35322-.166655c-5.969413-2.887845-10.128183-8.554144-11.082139-15.133534zm-19.644 83c37.555363 0 68 30.444637 68 68s-30.444637 68-68 68-68-30.444637-68-68 30.444637-68 68-68zm0 20c-26.509668 0-48 21.490332-48 48s21.490332 48 48 48 48-21.490332 48-48-21.490332-48-48-48z"/></svg>