<svg height="960" viewBox="0 0 960 960" width="960" xmlns="http://www.w3.org/2000/svg"><path d="m494.530009 5c21.714385 0 39.46297 17.3242757 39.988293 39.0323052l3.534698 146.0886948 8.660663 9.609154c2.248879 2.495358 4.15668 5.243642 5.695685 8.172693l.217652.421153.490601.116997c3.058141.737078 6.107715 1.617565 9.215116 2.664099l.778093.265105c20.827872 7.177781 38.082195 20.887515 50.391178 41.418887 2.607669 4.34959 4.914347 7.937184 7.850975 12.272253.336467.496695.687486 1.012605 1.064085 1.564106.812815 1.190307 3.817375 5.56179 3.92368 5.716801 1.732439 2.526192 3.139833 4.59874 4.606402 6.792715 3.813578 5.705086 7.564579 11.554244 11.780747 18.428649 10.284531 16.768791 23.018962 39.161164 40.019137 70.647068 46.119904 85.418353 86.149678 200.90059 107.951193 302.834924 12.825442 59.966152 24.477434 132.233133 34.996553 216.892882 3.191548 25.686148-16.838601 44.104757-38.391082 45.02316l-.322678.009354-.017187.001263-.73926.026245-.742992.012676c-1.489648.011696-3.001062-.058798-4.530455-.216124l-.87587-.099384-66.980236-8.310676-.668496-.081138c-18.045377-2.273693-33.822808-9.031454-46.035614-20.940879l-.536484-.528761c-4.31939-4.302768-29.401346-27.093478-73.123162-66.400888l-.162244-.146334-.119296.002162c-1.936628.028252-3.693143.052704-5.272139.073327l-.200565.002511-.014778.025306c-2.558738 4.347772-8.291922 14.478568-17.542235 30.964629l-.339996.605985-.627404 1.118422c-.157119.280114-.157119.280114-.313786.55944l-.631882 1.126707c-.316495.564402-.316495.564402-.633246 1.129318l-.636678 1.135598c-.508868.907691-1.03728 1.850381-1.597793 2.850456l-.641843 1.145232c-.321045.572863-.321045.572863-.641792 1.14522l-1.96809 3.5122c-5.624395 10.037511-8.481434 15.133911-11.042699 19.692953l-.294359.523909c-.293327.522026-.583982 1.039153-.875762 1.558145l-.292295.519865-.293889.522611c-.098322.174829-.197051.350367-.296326.526863l-1.111465 1.975123c-5.183927 9.207671-8.523225 15.075346-10.370635 18.192995-5.741552 9.68932-9.835351 15.425247-16.126971 20.887202-9.915094 8.607605-20.557886 11.809824-32.140104 11.914174l-.589737.002647h-.290852c-.071006-.00038-.149461-.000866-.235465-.001459l-.088526-.00063-.093581-.000701c-.032039-.000246-.064924-.000503-.09866-.000773l-.103762-.000845-.108886-.000918c-3.009306-.025768-11.6469-.131117-27.925446-.337388-4.277147-.054198-14.78816-.188464-25.800728-.329258l-1.504284-.019233-3.255188-.041623-1.082534-.013843-1.112403-.014225c-11.65735-.149078-22.521121-.288079-25.713105-.328764-1.531952-.019523-1.531952-.019523-3.06441-.039037-52.266368-.665453-82.041642-1.022484-88.311474-1.043172l-.182799-.000524-.328384-.000429c-14.272558 0-27.004497-3.371001-37.773936-12.049672-7.360286-5.931369-12.311978-13.156166-15.240451-21.050203l-.034361-.092303-77.776329 5.512618c-.724485.051344-1.44529.083194-2.161944.096024l-.715253.006507c-22.8427.006488-41.274246-19.301581-39.879083-42.394427l.050643-.73018c17.314613-221.152738 36.029377-355.73462 58.234134-410.466337 14.285855-35.212697 34.533902-76.126974 57.060251-116.696181 18.545512-33.399851 36.953401-63.394206 46.052495-75.115959 2.337824-3.011661 4.983024-6.727463 7.770124-10.901397l.758962-1.142668.545173-.826354c.26714-.406704.535326-.817057.79124-1.210462l.25133-.386993.566478-.876554c.788207-1.223589 1.582119-2.472849 2.3532-3.70172l.520657-.831858.541109-.86938c2.947001-4.747705 5.843659-9.62882 8.423683-14.153669 1.065692-1.869012 2.031284-3.597286 2.829918-5.059903.380028-.695983.701348-1.293954.936321-1.738078l.013891-.026029.025105-.060921c.04666-.112586.092721-.22311.135454-.324722l.041521-.098389c.608736-1.436889 1.261498-2.834677 2.067421-4.346924 2.329604-4.371307 5.319168-8.461636 9.130072-12.190825 9.283338-9.08428 20.968568-14.246177 37.253488-16.857449l.571939-.09077.083304-.150889c1.340739-2.400153 2.933764-4.670657 4.763272-6.770207l.36905-.417618 7.678374-8.568286 4.517992-147.4697354c.655183-21.3883512 18.014322-38.43140386 39.333996-38.7752646zm22.469429 239.98157h-110l.000562.01843h.056945c-46.319464 0-45.911019 8.65904-47.985639 12.982157-.03112.064846-.065215.134911-.102237.210081l-.119792.240717c-1.605862 3.197639-7.255576 13.418128-14.296961 24.762009l-.56623.909795-.571865.913917c-.861874 1.373631-1.741752 2.758909-2.63505 4.145638l-.597469.924589c-.399572.616387-.801593 1.232614-1.205662 1.847785l-.607588.921852-.814374 1.225513c-3.130287 4.688085-6.353324 9.252747-9.487803 13.290687-13.093211 16.867106-63.457012 101.337081-94.003335 173.538956l.087165.005116c1.942771.12658 4.797469.203349 8.431547.203349 6.27139 0 15.381944.459027 27.42188 1.372495l.807003.061571-.0515-.003298.288438.017468c14.119591.975877 22.636692 10.083259 22.807314 24.290665l.002613.436511c0 9.177606 3.34983 143.256091 10.011061 400.572529.071635 2.767183-.987866 5.300868-2.757774 7.158395 2.039866.515945 4.525424.798681 7.542061.798681 5.994847 0 46.355467.500618 87.280708 1.021261l5.116151.06515c34.824138.443862 69.036991.887724 81.795126 1.035229l-.005052-.009242.005175-.122144c.013354-.275577.03815-.55283.074774-.831255 13.608506-103.453185 23.380856-175.835624 29.320945-217.17388 4.025017-28.010894 11.586045-67.169773 20.930514-110.104734.072107-.331312.144268-.662577.216476-.99377l.433774-1.986117.210707-.96231.421897-1.922076.422326-1.91781c6.688877-30.325991 13.443477-58.651893 15.719181-66.18228 3.242963-10.731082 5.931373-16.237569 12.029352-21.305334 7.189549-5.974921 17.302984-8.569831 32.065603-8.569831l.559215-.000455c.186405-.000304.372896-.000763.55973-.001382l.561782-.002338c.093887-.000471.187923-.000983.282141-.001537l.56774-.003826c5.0388-.038298 10.767223-.196886 21.949757-.5644l.63883-.021026c12.470815-.411054 18.417053-.574216 24.014751-.601567l.588211-.002382.29364-.000824.293597-.000584.989346-.000679c6.625435-.007048 16.57677-.186775 29.821506-.53973 7.646867-.203918 14.809363 3.239397 19.436357 9.067355l-.821904-2.122227c-14.127659-36.347195-30.010074-71.780915-47.297294-103.810745-36.495243-67.618531-47.775844-82.855635-58.100562-97.975377l-.813566-1.194373c-2.979034-4.385457-5.931463-8.876328-9.44572-14.740355-13.686941-22.838568-33.943617-27.367529-52.953713-28.19621-2.808252-.114325-5.587156-.150198-8.312264-.154835l-.501985-.000538zm36.781881 344.094748-.427839 1.952186c-.213705.976781-.427053 1.954449-.639883 2.932337-9.251322 42.506979-16.733785 81.258971-20.67636 108.696132-5.524695 38.447444-14.386009 103.914628-26.580787 196.38002l.2307-.403089c5.062233-8.892144 13.372363-23.739032 21.686347-38.581453l1.312293-2.342634c10.491037-18.726876 20.715798-36.946186 24.13607-42.647415 2.463158-4.105824 4.753638-7.569654 7.201604-10.344716l.009551-.010421c-.001857-.128519-.001278-.257602.00178-.387202l6.372602-270.012027c-3.229514 13.12234-7.986296 33.633274-12.626078 54.768282zm134.992119-64.171748 3.213999 138.544 3.229561 139.309707c23.309506 20.724904 75.750096 76.052381 79.94873 79.989373 3.175216 2.97735 6.371355 6.151871 9.588416 9.523562l-.011706-.033642-.358117-1.060102c.351801.365461.703852.733284 1.056154 1.103469.015193.015965.030387.031934.045582.047908l-.011619-.093275-.19797-1.591051c-10.303954-82.540368-21.673224-152.891047-34.107809-211.052039-3.033291-14.187787-6.541982-29.07839-10.49477-44.449044l-2.693451-5.721866-15.717-33.383zm-9.896672 290.154183-.04055.00142c-5.517031.086426-17.098051.286706-43.835404.750007l-1.396529.024199c-1.246081.021585-1.246081.021585-2.492993.043155-.467475.008084-.931641.016104-1.392508.024061 38.272061 34.442276 59.726624 53.97304 64.365315 58.593881 5.591815 5.570296 13.537738 8.964499 23.83777 10.18261l35.485394 4.402085-.241612-.248197c-3.682438-3.782899-8.236792-8.466174-12.935769-13.293297l-.674078-.692428-.675582-.693902-1.135672-1.166293-.568221-.583452-1.135806-1.166052c-6.808933-6.989408-13.471153-13.812501-17.80457-18.199475-.889369-.900362-1.768754-1.789235-2.638247-2.66668-11.590477-11.696494-21.229419-21.168116-28.553137-27.994484-3.237246-3.017406-5.951958-5.450387-8.049801-7.218129zm-444.548-11.833239-.086416.155688c-5.762355 10.26581-21.317232 37.738745-47.5499 83.991587-.009045.015948-.018091.031898-.027138.04785l51.139125-3.624069 42.391001-3.004-.07478-.738042c-4.281545-42.093975-6.93642-66.033521-7.754664-70.220472-.46064-2.357095-1.750549-3.505833-2.910383-3.505833-2.461999 0-9.326796-.532347-16.539498-1.186974l-.942427-.086046c-.157288-.014445-.314658-.02894-.472068-.04348l-1.051908-.097778c-6.309445-.590141-12.53315-1.23777-15.986736-1.671419zm-57.398798 60.814462.572644-1.006249c24.456291-43.132763 38.486784-67.935726 41.052062-72.562239l.1692-.306073c.12346-.224194.203037-.371163.238487-.44047.441438-.863039.939867-1.638255 1.487099-2.330425l.134554-.167324.452423-82.604626 1.036416-189.166686c-16.081906 59.813749-31.129534 176.008446-45.142885 348.584092zm491.361041-359.71681-.476161.011182c-9.003747.210466-16.12923.321221-21.390368.332027l-.422493.000657c-.13947.000146-.277578.000219-.414325.000219l-.559214.000454-.559731.001383-.561782.002338-.277267.001508-.557863.003743c-5.137421.038818-10.98727.202658-22.603338.585538-11.814456.389419-17.773059.556354-23.127107.596103l-.592673.003898c-.295359.001692-.589453.003002-.883181.003948l-.587237.001408-.587864.000463c-2.770165 0-5.212191.10285-7.361026.299366l-.254455.023839-6.848487 290.23033-.001047.014924.241009-.00185c5.108078-.040369 15.188305-.192048 27.165557-.388202l.232482.208128.015572.014396.042112-.000695c6.157524-.10153 12.793864-.214484 19.498413-.330006l2.918069-.050361 1.518304-.026262c.75905-.013138 1.517816-.026285 2.275704-.039426l1.514432-.026272c15.129099-.262578 29.749066-.519776 39.114716-.669242l.274998-.004382-.002321-.06275-3.99-172.036zm-426.139572-3.202596-.642999 117.387-.902 164.869-.003001.432.597922.064561c2.937834.317307 6.457196.677618 9.923114 1.014023 8.9471.868413 16.130559 1.441069 18.331138 1.441069 4.12836 0 8.002016 1.144727 11.352578 3.17427l-.054055-2.080431c-4.605148-179.207256-6.896734-272.265139-6.896734-280.124489 0-4.043465-.488079-4.565427-4.379674-4.786782l-.197042-.013161c-11.973983-.918612-20.905784-1.375469-26.699032-1.375469zm579.06804-438.7729138c21.430989 0 38.266113 5.3823243 50.505371 16.1469727 12.239257 10.7646484 18.358886 25.7319331 18.358886 44.9018551 0 9.634115-3.072103 18.702963-9.216308 27.206543-6.144206 8.503581-14.08252 14.918132-23.814942 19.243653 11.796875 4.030599 20.767416 10.371419 26.911621 19.022461 6.144206 8.651041 9.216309 18.973307 9.216309 30.966797 0 19.268229-6.611165 34.604166-19.833496 46.007812s-30.598145 17.105469-52.127441 17.105469c-20.644532 0-37.553386-5.505209-50.726563-16.515625-13.173177-11.010417-19.759766-25.658203-19.759766-43.94336h35.833008c0 9.4375 3.17041 17.105469 9.511231 23.003907 6.34082 5.898437 14.868978 8.847656 25.584472 8.847656 11.108724 0 19.858073-2.949219 26.248047-8.847656 6.389974-5.898438 9.584961-14.451172 9.584961-25.658203 0-11.305339-3.342448-20.005534-10.027344-26.100586-6.684895-6.095053-16.613932-9.142579-29.787109-9.142579h-21.086914v-28.3125h21.824219c11.010416-.098307 19.735189-2.949218 26.174316-8.552734 6.439128-5.603516 9.658692-13.713867 9.658692-24.331055 0-10.223958-2.678874-18.162272-8.036622-23.814941-5.357747-5.6526693-13.541829-8.4790039-24.552246-8.4790039-9.634114 0-17.547851 2.777181-23.741211 8.3315429-6.193359 5.554362-9.290039 12.804525-9.290039 21.750488h-35.833007c0-11.010416 2.924641-21.03776 8.773925-30.0820309s14.008789-16.097819 24.478516-21.1606446c10.469726-5.0628255 22.192871-7.5942383 35.169434-7.5942383zm-396.401039 144.2779138-16.451 18.356h107.256l-.288-.32-6.687-7.42-9.565812-10.613096-73.982906.000066zm69.718-161.3359997-65.051589.0007985-4.385129 141.3381712 72.856717-.00097zm-1538.433898 163.7104297h-35.68555v-172.3818359l-52.64355 17.9902343v-30.2294922l83.75781-30.81933589h4.57129z"/></svg>