<svg height="960" viewBox="0 0 960 960" width="960" xmlns="http://www.w3.org/2000/svg"><path d="m112.723479 32.0886115.230521.0203885.068861-.0059034c1.288186-.0847986 2.591687-.1169496 3.908488-.0942817l.79166.0201965 793.637843 28.325436c24.644314.8793674 44.869905 20.9927764 44.869905 46.2359286v746.826366c0 25.243153-20.225591 45.356562-44.869575 46.235917l-793.713845 28.328077c-1.581907.058651-3.145516.027367-4.687328-.07453l-.110009-.008206-.420848.034107c-3.033899.224112-6.127509.10728-9.227788-.402233l-.172364-.029874-63.5962192-8.146119c-3.5070234-.449266-6.9378851-1.361384-10.2031608-2.711678l-.6971349-.296047c-8.828727-3.848284-14.2291826-9.408398-18.1378066-15.761079-1.69307961-2.751759-2.81658112-5.25204-3.70151032-7.758602-.83899286-2.376447-1.32896708-4.374899-1.70713644-6.413092-.34778276-1.874422-.55181542-3.577756-.70022244-5.380584-.19266517-2.34047-.2858093-4.960253-.2858093-7.616089v-777.2954636c.01181065-2.5850136.11084798-5.119634.30688636-7.3972897.15458398-1.7960211.3655668-3.4951714.72625449-5.380222.39433274-2.0608887.90491255-4.084393 1.77627961-6.4880228.91278684-2.5178846 2.06979632-5.0293251 3.80038824-7.7793958 3.9084063-6.2108192 9.2864019-11.6509559 17.9226764-15.4153535 1.6649721-.7257315 3.3774406-1.3372195 5.1255168-1.8302186l64.2109981-18.108744.4075561-.1238774c4.8428499-1.432296 9.7237539-1.8932825 14.4469229-1.5095111zm3.346985 39.9080757-.223828.0048378c-3.193226.1271244-5.729046 2.7253243-5.842662 6.0455174l-.003974.2327908v803.4474518c0 3.508774 2.697715 6.271379 6.070464 6.283146l.225828-.003312 793.638173-28.329007c3.477346-.12408 6.296292-2.927391 6.296292-6.26137v-746.826366c0-3.333979-2.818946-6.137289-6.296292-6.261369l-793.638173-28.329007zm-26.0590387 5.4967674-45.4959956 12.8355524c-.2760378.12032-.5013944 2.7599532-.5147989 5.9598021v777.4295009c.0134045 3.199848.2387611 5.839482.5147989 5.959802l45.7568823 5.86595c-.1794723-1.246646-.272312-2.521105-.272312-3.816777v-803.4474518c0-.2630187.0038258-.5251633.0114253-.7863786z"/></svg>