<?xml version="1.0" encoding="UTF-8"?>
<svg width="397px" height="960px" viewBox="0 0 397 960" version="1.1" xmlns="http://www.w3.org/2000/svg" xmlns:xlink="http://www.w3.org/1999/xlink">
    <!-- Generator: Sketch 55.2 (78181) - https://sketchapp.com -->
    <title>lock_doorlock</title>
    <desc>Created with Sketch.</desc>
    <g id="lock_doorlock" stroke="none" stroke-width="1" fill="none" fill-rule="evenodd">
        <path d="M183.601414,26.439298 L183.601414,26.3449027 L186.827625,26.3449027 C187.255549,26.3324334 187.685586,26.3199225 188.117735,26.3073699 L188.136883,26.3449027 L217,26.3449027 L217,26.6349973 C249.232265,27.5999535 267.373512,28.287841 271.636447,28.7095279 C276.248484,29.1657476 283.165341,30.3470425 288.979621,31.8495417 C297.571211,34.0697406 303.391747,36.7255121 305.686482,40.4375265 C306.424092,41.630702 307.038539,42.7858478 307.550398,43.9466228 C309.700828,48.8232815 310,52.1711522 310,64.7517818 L310,113 L310,118 L218.165269,118 C238.840107,120.114492 258.541701,125.526504 276.738437,133.703033 C301.625107,135.893576 329.377744,138.880193 359.997638,142.662806 L359.997638,134.197462 C359.997638,129.436584 358.475788,98.1744474 355.447155,40.7837545 C354.62195,36.1470417 353.768546,31.3746954 352.886943,26.4667156 L352.726053,25.5418753 C352.351502,24.0458223 351.54023,23.0953283 351.243793,22.8468251 C346.717465,19.0524053 313.702814,18.1380832 283.301414,15.436885 C265.279549,13.8356222 242.552647,12.7224234 215.120707,12.0972884 C208.456263,11.773936 203.259254,11.6122598 199.529679,11.6122598 C196.171134,11.6122598 191.787401,11.7433681 186.378482,12.0055847 C186.378453,12.0037231 186.378424,12.0018616 186.378395,12 C156.923238,12.6032589 132.696635,13.7488872 113.698586,15.436885 C83.2971863,18.1380832 50.2825345,19.0524053 45.7562071,22.8468251 C45.4597699,23.0953283 44.6484984,24.0458223 44.273947,25.5418753 L44.1130567,26.4667156 C43.2273756,31.3974028 42.3701543,36.1911985 41.5413926,40.8481027 C38.5202332,97.1763459 37.0023114,127.858991 37.0023114,132.53865 L37.0023114,142.662812 C67.6222253,138.880196 95.3748791,135.893577 120.261563,133.703033 C138.458299,125.526504 158.159893,120.114492 178.834731,118 L84,118 L84,114 L84,64.7517698 C84,52.17435 84.2988924,48.8287938 86.4473209,43.9554835 C86.958834,42.7952113 87.5729344,41.6404339 88.3101979,40.4475287 C90.6064215,36.7321995 96.4332076,34.0729268 105.028851,31.8511382 C110.844296,30.3479711 117.762041,29.166236 122.375497,28.7097645 C126.921868,28.2599306 147.243033,27.5075789 183.601414,26.439298 Z M184.615362,32.3449027 C147.988406,33.4190946 127.35134,34.1796883 122.972024,34.6129931 C111.023861,35.7951864 95.7778026,39.735964 93.4250382,43.5427774 C92.8270466,44.5103379 92.3406435,45.4249887 91.942708,46.3276313 C90.2550717,50.1557202 89.9955168,53.0609644 89.9955168,64.7517698 L89.9955168,91.4276363 C90.4932631,79.1775355 90.7421373,70.4136275 90.7421373,65.1489381 C90.7421373,55.7727093 93.7271135,50.0102531 100.120784,49.0175638 L100.33797,48.9838432 L194.059965,48.0390969 L194.060365,48 L195.99971,48.0195437 L197.938507,48 L197.938915,48.0390859 L291.682484,48.9837828 L291.895761,49.0168872 C298.270483,50.0063549 301.257436,55.7709992 301.257436,65.148602 C301.257436,72.9987279 301.811008,88.6303948 302.918144,112 L304.056091,112 L304.056091,64.7517818 C304.056091,53.0641921 303.79668,50.161264 302.110109,46.3365256 C301.712299,45.4343863 301.225973,44.5201044 300.628003,43.5528147 C298.270894,39.7399031 283.010429,35.7963646 271.050237,34.6132699 C266.684606,34.1814245 246.181663,33.4249262 209.801722,32.3570754 L209.80727,32.3449027 L184.615362,32.3449027 Z M195,112 L296.967598,112 C295.864827,88.6918706 295.313446,73.0891037 295.313446,65.148602 C295.313446,58.4727887 293.804524,55.4107407 291.161092,54.8767933 L196.00578,53.9178696 L100.869826,54.8768691 C98.2487618,55.4102337 96.7406265,58.4748536 96.7406265,65.1489381 C96.7406265,73.089033 96.1893996,88.6918222 95.0869385,112 L195,112 Z M291.465455,141.102241 C300.914064,146.372574 309.871368,152.421401 318.251126,159.162257 C336.950211,160.980874 350.852137,162.646916 359.997638,164.169424 L359.997638,148.723839 C335.280515,145.664433 312.436228,143.123914 291.465455,141.102241 Z M326.332334,166.03802 C339.262657,177.668181 350.606246,191.036059 359.997638,205.775239 L359.997638,170.291224 C352.477421,168.996914 341.246463,167.577139 326.332334,166.03802 Z M196,561.990352 C142.773639,561.476688 93.1727564,540.475589 57.3316513,504.60811 C57.8089685,509.276795 58.0482388,513.373732 58.0482388,516.904028 C58.0482388,520.269146 58.4261316,574.743316 59.3297751,702.870975 L59.3355374,703.687995 C60.4061985,855.494429 60.6229871,886.506086 60.6229871,888.943226 C60.6229871,889.500691 60.6046599,890.295907 60.5630593,891.685455 C60.5675867,891.534232 60.4660354,894.826703 60.4343359,895.936639 C60.2434303,902.621068 60.1855026,908.195908 60.3184504,913.664299 C60.4805407,920.331376 60.9261961,925.86243 61.7050718,929.960764 C62.1234986,932.162468 62.6285932,933.88364 63.1906582,935.048068 C63.4334563,935.551072 63.6701271,935.91446 63.8773894,936.135313 C63.9784216,936.24297 64.0143279,936.266334 63.9949634,936.260877 L63.2386173,939.060112 C65.454416,940.12017 68.2903007,940.920542 71.9734981,941.400069 C85.8710433,943.209434 156.951848,948 198.258463,948 L198.741537,948 C240.048152,948 311.128957,943.209434 325.026502,941.400069 C327.781454,941.041393 330.062359,940.503213 331.964304,939.811124 L331.005037,936.260877 C330.985672,936.266334 331.021578,936.24297 331.122611,936.135313 C331.329873,935.91446 331.566544,935.551072 331.809342,935.048068 C332.371407,933.88364 332.876501,932.162468 333.294928,929.960764 C334.073804,925.86243 334.519459,920.331376 334.68155,913.664299 C334.814497,908.195908 334.75657,902.621068 334.565664,895.936639 C334.533965,894.826703 334.432413,891.534232 334.436941,891.685455 C334.39534,890.295907 334.377013,889.500691 334.377013,888.943226 C334.377013,886.506086 334.593802,855.494429 335.664463,703.687995 L335.670225,702.870975 C336.573868,574.743316 336.951761,520.269146 336.951761,516.904028 C336.951761,513.095527 337.230229,508.627559 337.785628,503.493709 C301.860162,540.040776 251.780213,561.471451 198,561.990354 L198,562 C197.666546,562 197.333229,561.999196 197.000051,561.997589 C196.666839,561.999196 196.333488,562 196,562 L196,561.990352 Z M197.065325,556.08552 C252.185034,555.794018 303.335277,532.890033 338.623045,494 L339.02779,494.367377 C341.421542,481.147316 343.585774,469.816739 345.520965,460.373805 C346.954311,453.379668 348.515591,441.976745 350.197767,426.196708 C315.179213,471.693982 260.253088,501 198.5,501 C135.36285,501 79.3621142,470.365598 44.4777835,423.113284 C46.2840487,440.49917 47.9539588,452.932061 49.4790354,460.373805 C51.428735,469.887534 53.610922,481.317318 56.0260886,494.665037 C91.311326,533.181973 142.229025,555.830941 197.065328,556.08552 Z M337.672266,936.385165 C340.626988,933.506446 341.660115,929.719746 342.735635,925.553702 C344.053933,920.447252 355.01834,871.281607 375.628854,778.056768 C378.578318,725.032334 380.05305,625.714874 380.05305,480.104386 C380.05305,439.747801 379.831349,403.815046 379.469873,371.950382 C373.934646,387.948475 366.348603,402.985486 357.027158,416.745171 C354.929191,438.010771 352.999808,452.941874 351.226789,461.593475 C349.220121,471.385188 346.962722,483.233843 344.455137,497.137356 C343.33766,505.133655 342.781223,511.728955 342.781223,516.904028 C342.781223,520.293752 342.40467,574.574821 341.499536,702.913858 L341.493773,703.730878 C340.425919,855.139328 340.206475,886.530881 340.206475,888.943226 C340.206475,889.417914 340.223979,890.177418 340.26368,891.503502 C340.258969,891.346158 340.360712,894.64485 340.392648,895.763057 C340.586351,902.545451 340.645272,908.21583 340.509215,913.812082 C340.258987,924.104458 339.498235,931.660256 337.672266,936.385165 Z M366,215.86299 C370.027676,223.128796 373.598702,230.684092 376.674196,238.489896 C375.095844,189.747395 373.559115,164.815367 373.559115,157.201898 C373.559115,150.110998 370.376572,127.712012 364.011485,90.0049399 C365.338612,116.24417 366,130.939138 366,134.197462 L366,215.86299 Z M105.534545,141.102241 C84.5637579,143.123915 61.7194535,145.664436 37.0023114,148.723845 L37.0023114,164.169433 C46.1478109,162.646922 60.049754,160.980878 78.7488741,159.162257 C87.1286323,152.421401 96.085936,146.372574 105.534545,141.102241 Z M70.6676659,166.03802 C55.7535038,167.577143 44.5225282,168.996921 37.0023114,170.291233 L37.0023114,205.775319 C46.3937131,191.036107 57.7373193,177.668202 70.6676659,166.03802 Z M37.6270586,413.198702 C29.3729597,400.414852 22.5935052,386.584721 17.5301217,371.950366 C17.1686513,403.815046 16.9469496,439.747801 16.9469496,480.104386 C16.9469496,625.714874 18.4216819,725.032334 21.3711464,778.056768 C41.9816604,871.281607 52.9460667,920.447252 54.2643654,925.553702 C54.7478998,927.42668 55.2228656,929.222984 55.8677329,930.894576 C55.0618056,926.468524 54.6598163,920.764669 54.4907847,913.812082 C54.3547283,908.21583 54.4136487,902.545451 54.6073522,895.763057 C54.6392879,894.64485 54.741031,891.346158 54.7363204,891.503502 C54.776021,890.177418 54.7935252,889.417914 54.7935252,888.943226 C54.7935252,886.530881 54.5740809,855.139328 53.5062267,703.730878 L53.5004644,702.913858 C52.5953301,574.574821 52.2187769,520.293752 52.2187769,516.904028 C52.2187769,511.728955 51.6623404,505.133655 50.5448626,497.137356 C48.0372779,483.233843 45.7798789,471.385188 43.7732107,461.593475 C41.9032098,452.468642 39.8592721,436.358559 37.6270586,413.198702 Z M32.0463235,214 L31,214 L31,132.53865 C31,129.390735 31.6383231,115.382876 32.9190043,90.4168666 C26.6002582,127.87518 23.4408851,150.136857 23.4408851,157.201898 C23.4408851,164.815367 21.904156,189.747395 20.3258039,238.489896 C23.6650606,230.014646 27.5884889,221.834715 32.0463235,214 Z M198.5,451 C122.008562,451 60,389.215295 60,313 C60,236.784705 122.008562,175 198.5,175 C274.991438,175 337,236.784705 337,313 C337,389.215295 274.991438,451 198.5,451 Z M198.5,445 C271.677729,445 331,385.901587 331,313 C331,240.098413 271.677729,181 198.5,181 C125.322271,181 66,240.098413 66,313 C66,385.901587 125.322271,445 198.5,445 Z M198.5,488 C101.574026,488 23,409.649831 23,313 C23,216.350169 101.574026,138 198.5,138 C295.425974,138 374,216.350169 374,313 C374,409.649831 295.425974,488 198.5,488 Z M198.5,482 C292.112265,482 368,406.336123 368,313 C368,219.663877 292.112265,144 198.5,144 C104.887735,144 29,219.663877 29,313 C29,406.336123 104.887735,482 198.5,482 Z M198.5,491 C298.739682,491 380,409.515824 380,309 C380,208.484176 298.739682,127 198.5,127 C98.2603179,127 17,208.484176 17,309 C17,409.515824 98.2603179,491 198.5,491 Z M198.249363,0 L198.750637,0 C198.995627,0 199.236842,0 199.47428,0.016986121 C234.387818,0.546840002 262.681502,1.77141063 284.40479,3.70027253 C286.817053,3.91446305 289.333567,4.12503135 292.000037,4.33683211 C296.013798,4.65564971 300.138418,4.96045365 305.530705,5.34241671 C304.994256,5.3044173 315.720656,6.05809012 318.557811,6.26348634 C329.133331,7.0291025 335.906228,7.62345625 341.432419,8.33342941 C350.401443,9.48571809 355.122216,10.617382 358.963357,13.8352812 C361.40262,15.8787624 363.430367,19.0997142 364.34802,22.7626264 C364.418621,23.0444386 364.478896,23.3287464 364.528723,23.614978 L364.678312,24.4753326 C378.70081,102.488553 385.551772,145.78683 385.551772,157.316812 C385.551772,159.306623 387.79133,210.559847 388.794889,242.353416 C388.908611,245.956205 389.01997,249.608014 389.128947,253.312983 C394.330831,271.234148 397,289.907029 397,308.92562 C397,325.116821 395.065588,341.06268 391.275904,356.515781 C391.781441,394.584895 392.049875,435.715159 392.049875,480.212873 C392.049875,626.034788 390.571821,725.510147 387.604415,778.821857 C387.568594,779.465395 387.480643,780.104954 387.34143,780.734224 C366.585795,874.553385 355.706626,923.304553 354.329638,928.634812 C352.475206,935.813232 351.057743,939.429584 347.352971,943.63969 C342.591502,949.05063 335.799183,952.109126 326.637901,953.301073 C309.320805,955.554148 248.339444,959.19397 210.246023,959.884816 C210.246023,959.923148 210.246024,959.961543 210.246024,960 L186.753998,960 L186.753998,959.884816 C148.660578,959.193971 87.6791978,955.554148 70.3620988,953.301073 C61.2008168,952.109126 54.4084983,949.05063 49.6470288,943.63969 C45.9422572,939.429584 44.5247935,935.813232 42.6703619,928.634812 C41.2933735,923.304553 30.4142051,874.553385 9.65857018,780.734224 C9.51935656,780.104954 9.43140572,779.465395 9.39558548,778.821857 C6.42817896,725.510147 4.95012469,626.034788 4.95012469,480.212873 C4.95012469,435.715159 5.21855943,394.584895 5.7240957,356.515781 C1.93441179,341.06268 0,325.116821 0,308.92562 C0,289.907029 2.66916855,271.234148 7.87105337,253.312983 C7.9800298,249.608014 8.09138933,245.956205 8.20511086,242.353416 C9.20867049,210.559847 11.4482282,159.306623 11.4482282,157.316812 C11.4482282,145.78683 18.2991898,102.488553 32.3102832,24.5397999 L32.4712768,23.614978 C32.5211042,23.3287464 32.581379,23.0444386 32.6519802,22.7626264 C33.5696327,19.0997142 35.5973802,15.8787624 38.0366427,13.8352812 C41.8777844,10.617382 46.598557,9.48571809 55.5675813,8.33342941 C61.0937716,7.62345625 67.8666694,7.0291025 78.4421891,6.26348634 C81.2793441,6.05809012 92.0057444,5.3044173 91.4692955,5.34241671 C96.8615818,4.96045365 100.986202,4.65564971 104.999963,4.33683211 C107.666433,4.12503135 110.182947,3.91446305 112.59521,3.70027253 C134.318498,1.77141063 162.612182,0.546840002 197.52572,0.016986121 C197.763158,0 198.004373,0 198.249363,0 Z" id="Combined-Shape" fill="#000000" fill-rule="nonzero"></path>
    </g>
</svg>