<?xml version="1.0" encoding="UTF-8"?>
<svg width="709px" height="895px" viewBox="0 0 709 895" version="1.1" xmlns="http://www.w3.org/2000/svg" xmlns:xlink="http://www.w3.org/1999/xlink">
    <!-- Generator: Sketch 55.2 (78181) - https://sketchapp.com -->
    <title>sensor_multisensor</title>
    <desc>Created with Sketch.</desc>
    <g id="sensor_multisensor" stroke="none" stroke-width="1" fill="none" fill-rule="evenodd">
        <path d="M31.0979609,280.929239 C27.8448614,315.214426 25.0244852,345.391659 22.6368321,371.460939 C33.8038749,315.584139 52.5766053,277.325476 80.2835592,251.539387 C125.817805,209.148927 205.360075,192 354.756,192 C504.14691,192 583.689336,209.148847 629.230488,251.539122 C663.144447,283.103408 683.672567,333.355851 693.25115,411.733082 C690.397542,369.759934 686.080763,323.308564 681.36257,287.26104 C671.118813,264.335731 658.398356,245.896488 642.885557,231.26561 C595.674689,186.734145 512.21312,168.5 354.756,168.5 C197.293702,168.5 113.832341,186.73422 66.6288342,231.265687 C52.5660933,244.528311 40.8024273,260.915681 31.0979609,280.929239 Z M31.8727666,272.771761 C41.0339628,255.505284 51.8760211,241.055408 64.5703436,229.083345 C112.496167,183.870449 196.581073,165.5 354.756,165.5 C512.925656,165.5 597.010742,183.870367 644.943989,229.083212 C658.754061,242.108166 670.375503,258.069399 680.025577,277.407188 C678.107372,263.788675 676.140639,252.067045 674.193819,243.20156 C663.228564,193.267684 645.770338,158.518811 620.81396,134.735152 C577.041835,93.0156136 499.959835,76 354.756,76 C209.547613,76 132.465613,93.0156136 88.7003157,134.735152 C62.8632658,159.356923 45.0628031,195.73033 34.1833308,248.537171 C33.3911788,256.823877 32.6209907,264.902074 31.8727666,272.771761 Z M56.8574994,154.674343 C57.1493555,154.223521 57.4427008,153.774936 57.7375394,153.328581 C68.0849973,121.806883 82.4153968,97.9355487 101.414848,80.2511794 C143.759962,40.8249646 217.685424,24.8850926 356.499864,24.8850926 C495.309639,24.8850926 569.235245,40.8248898 611.586761,80.2509153 C631.678453,98.9528177 646.537909,124.563837 656.991759,158.788716 C646.769913,113.903824 630.624132,82.2663504 607.355982,60.6003672 C566.461087,22.5174325 493.791666,6.8431785 356.443391,6.8431785 C219.090638,6.8431785 146.421413,22.5174941 105.532798,60.600521 C82.989918,81.5901712 67.1226728,111.949484 56.8574994,154.674343 Z M47.0786218,171.703403 C57.2541748,118.104068 74.7846821,81.0318851 101.4438,56.2096111 C143.774831,16.7831396 217.675641,0.843178502 356.443391,0.843178502 C495.206477,0.843178502 569.10743,16.7830648 611.444862,56.2093469 C639.145584,82.0026901 656.978122,121.011733 666.947184,177.948123 L668.011375,183.544258 C675.277231,200.222723 681.203282,219.173455 685.914546,240.627741 C696.514319,288.897279 708.756,428.93665 708.756,493.424813 C708.756,497.840473 708.647073,502.21752 708.429797,506.555291 C708.647571,516.993411 708.756,527.801883 708.756,538.998833 C708.756,696.636985 687.270884,784.734135 635.360236,833.050898 C587.657146,877.453357 506.267631,895 354.756,895 C203.239839,895 121.850121,877.453429 74.1494169,833.050883 C22.2407315,784.733637 0.756,696.635794 0.756,538.998833 C0.756,527.801877 0.864429061,516.99341 1.08220356,506.555303 C0.864927232,502.217528 0.756,497.840477 0.756,493.424813 C0.756,488.375117 1.55127493,476.189022 3.15709999,456.264387 C3.94948298,443.952137 4.94087686,432.225302 6.13553912,421.05134 C9.71006279,380.184139 15.0772334,322.301837 22.2377861,247.395259 C22.2788583,246.965603 22.3430812,246.538476 22.430175,246.11574 C28.4231816,217.026852 36.5423055,192.406129 47.0786218,171.703403 Z M70.4280351,136.539795 C73.617689,132.853655 76.9472912,129.359106 80.4204683,126.049295 C127.078303,81.5724271 206.678316,64 354.756,64 C502.828508,64 582.428587,81.5723252 629.092684,126.048223 C635.172688,131.842524 640.812283,138.202694 646.031055,145.164967 C636.361289,119.512572 623.666381,99.6920227 607.498624,84.6426271 C566.589583,46.5594358 493.8951,30.8850926 356.499864,30.8850926 C219.100149,30.8850926 146.405863,46.5594974 105.503104,84.6427809 C91.2018497,97.9541476 79.6105456,115.006495 70.4280361,136.539793 Z M354.756,880 C502.731509,880 581.043634,863.116806 625.140334,822.071208 C673.119599,777.413649 693.756,692.796554 693.756,538.998833 C693.756,385.201708 673.119775,300.58422 625.142611,255.931077 C581.043913,214.883456 502.732466,198 354.756,198 C206.774705,198 128.463467,214.883523 84.3715538,255.931231 C36.3925626,300.583941 15.756,385.200631 15.756,538.998833 C15.756,692.795477 36.3920639,777.41337 84.3694412,822.071306 C128.463822,863.11688 206.776125,880 354.756,880 Z M354.756,859 C216.668917,859 143.131419,843.288318 101.002373,804.42357 C55.152766,762.128584 35.756,683.305067 35.756,540.998931 C35.756,398.691216 55.1532616,319.868711 101.004354,277.578726 C143.130917,238.712074 216.667493,223 354.756,223 C492.839865,223 566.376585,238.712 608.509514,277.578463 C654.359069,319.869051 673.756,398.692246 673.756,540.998931 C673.756,683.306097 654.358904,762.128923 608.50747,804.423574 C566.37631,843.28825 492.838985,859 354.756,859 Z M354.756,853 C491.43175,853 563.748944,837.54894 604.439286,800.013372 C648.704315,759.182066 667.756,681.762866 667.756,540.998931 C667.756,400.235545 648.704478,322.815987 604.441387,281.988717 C563.749201,244.4513 491.432634,229 354.756,229 C218.074911,229 145.75854,244.451361 105.072601,281.98887 C60.8078333,322.815735 41.756,400.234561 41.756,540.998931 C41.756,681.761882 60.8073743,759.181814 105.070666,800.013469 C145.75886,837.549007 218.076219,853 354.756,853 Z" id="Combined-Shape" fill="#000000" fill-rule="nonzero"></path>
    </g>
</svg>