<?xml version="1.0" encoding="UTF-8"?>
<svg width="577px" height="961px" viewBox="0 0 577 961" version="1.1" xmlns="http://www.w3.org/2000/svg" xmlns:xlink="http://www.w3.org/1999/xlink">
    <!-- Generator: Sketch 55.2 (78181) - https://sketchapp.com -->
    <title>sensor_door</title>
    <desc>Created with Sketch.</desc>
    <g id="sensor_door" stroke="none" stroke-width="1" fill="none" fill-rule="evenodd">
        <path d="M178,43 C276.306685,43 356,122.693315 356,221 L356,740 C356,838.306685 276.306685,918 178,918 C79.6933145,918 0,838.306685 0,740 L0,221 C0,122.693315 79.6933145,43 178,43 Z M178,55 C86.3207315,55 12,129.320732 12,221 L12,740 C12,831.679268 86.3207315,906 178,906 C269.679268,906 344,831.679268 344,740 L344,221 C344,129.320732 269.679268,55 178,55 Z M482,265 C534.467051,265 577,307.532949 577,360 L577,619 C577,671.467051 534.467051,714 482,714 C429.532949,714 387,671.467051 387,619 L387,360 C387,307.532949 429.532949,265 482,265 Z M482,277 C436.160366,277 399,314.160366 399,360 L399,619 C399,664.839634 436.160366,702 482,702 C527.839634,702 565,664.839634 565,619 L565,360 C565,314.160366 527.839634,277 482,277 Z M555,358.572727 L555,618.427273 C555,637.674004 547.265237,655.717051 533.750948,669.051032 C520.24442,682.377355 501.978761,690 482.5,690 C463.021239,690 444.75558,682.377355 431.249052,669.051032 C417.734763,655.717051 410,637.674004 410,618.427273 L410,358.572727 C410,339.325996 417.734763,321.282949 431.249052,307.948968 C444.75558,294.622645 463.021239,287 482.5,287 C501.978761,287 520.24442,294.622645 533.750948,307.948968 C547.265237,321.282949 555,339.325996 555,358.572727 Z M549,358.572727 C549,340.950967 541.921928,324.439796 529.536895,312.220005 C517.144101,299.992556 500.388283,293 482.5,293 C464.611717,293 447.855899,299.992556 435.463105,312.220005 C423.078072,324.439796 416,340.950967 416,358.572727 L416,618.427273 C416,636.049033 423.078072,652.560204 435.463105,664.779995 C447.855899,677.007444 464.611717,684 482.5,684 C500.388283,684 517.144101,677.007444 529.536895,664.779995 C541.921928,652.560204 549,636.049033 549,618.427273 L549,358.572727 Z M331,220.102002 L331,740.897998 C331,782.321789 314.587045,821.152586 285.89516,849.863852 C257.202888,878.575506 218.397238,895 177,895 C135.602762,895 96.7971119,878.575506 68.1048396,849.863852 C39.4129548,821.152586 23,782.321789 23,740.897998 L23,220.102002 C23,178.678211 39.4129548,139.847414 68.1048396,111.136148 C96.7971119,82.4244935 135.602762,66 177,66 C218.397238,66 257.202888,82.4244935 285.89516,111.136148 C314.587045,139.847414 331,178.678211 331,220.102002 Z M325,220.102002 C325,180.284999 309.229672,142.97457 281.651087,115.377356 C254.07289,87.780529 216.788715,72 177,72 C137.211285,72 99.9271099,87.780529 72.3489125,115.377356 C44.7703276,142.97457 29,180.284999 29,220.102002 L29,740.897998 C29,780.715001 44.7703276,818.02543 72.3489125,845.622644 C99.9271099,873.219471 137.211285,889 177,889 C216.788715,889 254.07289,873.219471 281.651087,845.622644 C309.229672,818.02543 325,780.715001 325,740.897998 L325,220.102002 Z" id="Combined-Shape" fill="#000000" fill-rule="nonzero"></path>
    </g>
</svg>