<?xml version="1.0" encoding="UTF-8"?>
<svg width="746px" height="960px" viewBox="0 0 746 960" version="1.1" xmlns="http://www.w3.org/2000/svg" xmlns:xlink="http://www.w3.org/1999/xlink">
    <!-- Generator: Sketch 55.2 (78181) - https://sketchapp.com -->
    <title>sensor_water</title>
    <desc>Created with Sketch.</desc>
    <g id="sensor_water" stroke="none" stroke-width="1" fill="none" fill-rule="evenodd">
        <path d="M181.351851,917.969062 C180.23685,917.989657 179.119342,918 177.999419,918 C79.6930545,918 0,838.306685 0,740 L0,221 C0,122.693315 79.6930545,43 177.999419,43 C276.305784,43 355.998839,122.693315 355.998839,221 L355.998839,740 C355.998839,833.451982 283.982439,910.083579 192.419948,917.424311 C192.791451,918.204755 192.99937,919.078096 192.99937,920 C192.99937,933.723535 193.136178,947.054074 193.415623,960 L181.412015,960 C181.1349,947.045821 180.999409,933.715432 180.999409,920 C180.999409,919.287154 181.123722,918.603342 181.351851,917.969062 Z M667.008916,767.862855 C654.690476,777.456869 641.315044,785.687811 627.110904,792.381008 L614.318064,798.40918 C578.222921,815.417735 536.460578,815.625923 500.197657,798.978077 L487.281319,793.04835 C458.352961,779.767709 432.786533,760.143254 412.47919,735.631217 L402.492133,723.576311 C376.354068,692.026285 376.441924,646.320021 402.701085,614.870713 L412.666879,602.935171 C432.868898,578.740204 458.211837,559.354483 486.850818,546.189221 L499.062881,540.575368 C536.046409,523.57414 578.559467,523.319819 615.743749,539.87736 L627.183673,544.971367 C658.493603,558.913157 685.956533,580.238278 707.21911,607.119339 L713.545398,615.117303 C738.527216,646.700386 737.727389,691.530432 711.634863,722.202276 L698.218775,737.972929 C691.602896,745.749914 684.451057,753.018678 676.826024,759.731194 C698.680575,773.304583 715.689157,794.309854 727.485715,821.228674 C741.620301,853.482691 747.719554,893.272219 745.584303,933.941159 C745.122261,942.741428 744.278075,951.458093 743.073253,960 L730.948827,960 C732.23323,951.276704 733.126659,942.343608 733.600848,933.311984 C735.643287,894.410779 729.827239,856.468788 716.494806,826.045221 C705.005717,799.828022 688.395074,779.97853 667.008916,767.862855 Z M654.839384,762.016362 C652.751002,761.180615 650.624157,760.410025 648.459103,759.705599 C645.307998,758.680351 643.584648,755.294739 644.609893,752.143623 C645.635138,748.992508 649.020739,747.269152 652.171844,748.294401 C656.793112,749.797983 661.255643,751.569444 665.557178,753.599412 C674.009667,746.482815 681.880453,738.658984 689.078702,730.197421 L702.49479,714.426769 C724.878776,688.114325 725.564923,649.65599 704.13378,622.561822 L697.807492,614.563858 C677.748457,589.204367 651.840032,569.086328 622.302362,555.933696 L610.862439,550.839689 C576.831029,535.686069 537.922672,535.918827 504.074995,551.478513 L491.862931,557.092365 C464.845025,569.512424 440.936592,587.80084 421.878083,610.626281 L411.91229,622.561822 C389.360323,649.571206 389.28487,688.824788 411.732837,715.92067 L421.719894,727.975576 C440.877764,751.100139 464.997036,769.613776 492.28794,782.142683 L505.204278,788.072409 C538.25092,803.243703 576.30922,803.05398 609.202964,787.55397 L621.995805,781.525797 C633.573583,776.07018 644.567745,769.531607 654.839384,762.016362 Z M177.999419,55 C86.3204499,55 11.9999608,129.320732 11.9999608,221 L11.9999608,740 C11.9999608,831.679268 86.3204499,906 177.999419,906 C269.678389,906 343.998878,831.679268 343.998878,740 L343.998878,221 C343.998878,129.320732 269.678389,55 177.999419,55 Z M330.99892,220.102002 L330.99892,740.897998 C330.99892,782.321789 314.586019,821.152586 285.894228,849.863852 C257.202049,878.575506 218.396525,895 176.999423,895 C135.60232,895 96.7967961,878.575506 68.1046174,849.863852 C39.4128262,821.152586 22.999925,782.321789 22.999925,740.897998 L22.999925,220.102002 C22.999925,178.678211 39.4128262,139.847414 68.1046174,111.136148 C96.7967961,82.4244935 135.60232,66 176.999423,66 C218.396525,66 257.202049,82.4244935 285.894228,111.136148 C314.586019,139.847414 330.99892,178.678211 330.99892,220.102002 Z M324.99894,220.102002 C324.99894,180.284999 309.228664,142.97457 281.650169,115.377356 C254.072061,87.780529 216.788008,72 176.999423,72 C137.210837,72 99.9267839,87.780529 72.3486765,115.377356 C44.7701816,142.97457 28.9999054,180.284999 28.9999054,220.102002 L28.9999054,740.897998 C28.9999054,780.715001 44.7701816,818.02543 72.3486765,845.622644 C99.9267839,873.219471 137.210837,889 176.999423,889 C216.788008,889 254.072061,873.219471 281.650169,845.622644 C309.228664,818.02543 324.99894,780.715001 324.99894,740.897998 L324.99894,220.102002 Z" id="Combined-Shape" fill="#000000" fill-rule="nonzero"></path>
    </g>
</svg>