<svg height="960" viewBox="0 0 960 960" width="960" xmlns="http://www.w3.org/2000/svg"><path d="m806 1c84.499567 0 153 68.5004333 153 153v652c0 84.499567-68.500433 153-153 153h-652c-84.4995667 0-153-68.500433-153-153v-652c0-84.4995667 68.5004333-153 153-153zm0 40h-652c-62.4081767 0-113 50.5918233-113 113v652c0 62.408177 50.5918233 113 113 113h652c62.408177 0 113-50.591823 113-113v-652c0-62.4081767-50.591823-113-113-113zm0 689c41.973641 0 76 34.026359 76 76s-34.026359 76-76 76-76-34.026359-76-76 34.026359-76 76-76zm0 20c-30.927946 0-56 25.072054-56 56s25.072054 56 56 56 56-25.072054 56-56-25.072054-56-56-56zm-326-624c195.508801 0 354 158.491199 354 354s-158.491199 354-354 354-354-158.491199-354-354 158.491199-354 354-354zm0 20c-184.463106 0-334 149.536894-334 334s149.536894 334 334 334 334-149.536894 334-334-149.536894-334-334-334z"/></svg>