<svg height="960" viewBox="0 0 960 960" width="960" xmlns="http://www.w3.org/2000/svg"><path d="m683.469819 200.513919c61.80826 0 118.56185 15.336718 164.213846 45.99854 49.934075 33.537847 84.455891 83.906531 99.73351 148.047795 11.2652 47.295596 5.276629 93.164526-17.758169 135.668855-21.81414 40.251943-58.424554 76.723523-109.216732 110.00676-.676473.443281-1.366235.865944-2.068334 1.267405l-12.929882 7.389095-29.319505 16.715677-15.231317 8.652134-16.681989 9.434941-10.723024 6.026964-7.045584 3.931979-5.833429 3.225973c-16.291114 8.953649-30.545099 15.332297-46.737147 20.225124-19.795668 5.981751-40.91286 9.069035-64.447081 9.069035h-351.199629c-21.457306 0-41.875403-1.813148-62.092883-6.099919-24.957243-5.291756-48.455451-14.170304-70.233007-27.298776-51.7769313-31.213418-89.9230135-84.027044-111.3899492-160.264433l-1.0105241-3.621686-.3402923-1.271041-.4683013-1.791302c-12.12040924-47.180049-6.46906572-92.296687 12.1343522-134.554216 13.8510631-31.462589 53.2517505-72.467853 82.5559327-89.121278l14.696288-8.341659 8.818588-4.995012 13.504533-7.632132 15.797824-8.897859 14.546821-8.15791 11.980166-6.686196 8.564717-4.757101 6.801984-3.760755 4.252331-2.341538 4.992034-2.737421 3.730924-2.036139 4.329893-2.349969 4.697898-2.529021 4.144195-2.205885 2.449716-1.288067 1.670588-.868945 2.08776-1.076261 3.039966-1.551719c.331991-.168347.66212-.335362.990453-.501065l1.948969-.978677 1.909014-.9483 1.872215-.919c.309144-.150785.616887-.300394.923294-.448849l1.822931-.877069 1.794018-.85046c.296769-.139585.592465-.278107.887153-.415587l1.756565-.812564c.581842-.266808 1.16018-.52963 1.73554-.788645l1.717669-.765802 1.702953-.744036c5.938264-2.567289 11.664093-4.754396 17.786167-6.768955l1.760472-.571073c2.363074-.755649 4.792065-1.489126 7.320626-2.211912l1.915615-.540264c24.469839-6.810132 52.497797-10.281779 86.856881-10.281779zm-473.400873 89.712452-.130169.074216-8.845855 4.925401-10.995409 6.147892-8.862756 4.972514-11.003201 6.19125-13.444217 7.58768-16.224756 9.185546-13.418545 7.617243c-19.972426 11.350234-54.6705595 45.38577-65.7099163 70.461589-12.7851129 29.041291-21.0834071 66.569862-9.6987535 109.647212l.2005779.75542.3937276 1.450058.6825627 2.427074c40.9958273 145.592032 140.0362036 164.50473 205.2131166 164.50473h351.199629c31.358043 0 54.241027-6.473262 73.579109-15.12704l1.539577-.696873c1.276836-.584468 2.5385-1.178118 3.786454-1.779679l1.491058-.725589 1.478457-.732694 1.466418-.739312 1.454938-.74544 1.444021-.751081 1.433664-.756233 1.423868-.760896 1.414633-.765071 1.405959-.768759 4.061027-2.242439 6.638287-3.697087 11.019703-6.18672 9.523944-5.376772 13.887083-7.870942 25.818083-14.694342 14.245924-8.134963c-11.955836 1.788889-23.493633 2.730097-34.979698 2.794723h-359.094626c-41.472932 0-87.769254-18.47428-125.365624-51.302751-42.088015-36.750493-70.77346-88.608727-80.241711-151.264746l-.297349-2.019951-.014914-.118168c-5.744171-47.801133 3.013715-88.794525 23.525679-121.485zm473.400873-49.712452h-311.282377c-54.708848 0-84.123379 9.628462-107.071692 20.405661l.070633-.033491c-6.702084 4.692514-13.080423 9.998332-18.943994 15.869537-31.146803 31.187359-46.310194 75.314766-40.038596 130.882188l.181207 1.562186.24408 1.648362c8.666183 57.368209 34.549878 104.58336 72.458515 138.176667l1.164219 1.024108c33.716724 29.440834 74.898247 46.033946 111.115103 46.362864l1.095948.004986h357.85736c23.115173 0 46.760394-3.933232 74.538854-11.61441.250858-.069367.509638-.147079.776279-.23313l.543749-.183216c.184732-.064776.372941-.133256.564609-.205437l.585363-.227644c.397137-.159162.808041-.333118 1.232569-.52185l.646996-.294178.667328-.316327c.22582-.109132.455011-.221953.687555-.338462l.707678-.360582c.119618-.06194.240069-.124801.361352-.188583l.737664-.393737c.124601-.067463.250031-.135847.376285-.205151l.767412-.426859.787112-.448923.806708-.470972.033152-.017544c64.251796-53.016538 88.706744-111.73038 73.364842-176.141526-26.96479-113.208458-119.688122-163.314537-225.035913-163.314537zm-15.654573 43.610641c63.417948-39.627932 151.606552-11.543292 197.334219 61.636273s32.310636 164.754453-31.107313 204.382385c-11.167716 6.978364-23.103576 11.856948-35.440439 14.759264-1.065187.431924-2.195307.679679-3.33729.732811-56.927864 11.694255-121.60525-17.994003-158.55649-77.128348-45.727667-73.179565-32.310636-164.754452 31.107313-204.382385zm-386.145239-.819097c62.721382-39.19267 150.307288-10.705684 196.023389 62.45537 45.7161 73.161054 32.9249 164.370618-29.796483 203.563288s-150.307289 10.705683-196.023389-62.455371c-45.716101-73.161054-32.9249-164.370618 29.796483-203.563287zm369.49484 43.631259-.333454.059192c-21.067851 29.262971-26.892672 70.094737-15.420889 110.10478 4.184747 1.379409 8.127746 4.409813 10.853362 8.771711 4.243265 6.790642 4.292627 14.818531.688039 20.233466 2.05046 3.979015 4.289361 7.917671 6.71699 11.802689 32.196964 51.525913 87.426615 77.350333 135.563151 68.498392 4.065471-5.649385 7.584427-11.762526 10.523702-18.265204-.080091-.319132-.144777-.646526-.194023-.981353l-6.87598-46.750233c-.584932-3.976987 1.268333-7.917643 4.704579-10.003496l12.322385-7.479381c-.75823-7.724613-2.146338-15.473376-4.156835-23.15923l-9.868089.000517c-5.008794 0-9.244954-3.70565-9.911152-8.669942l-6.101216-45.467972c-32.290809-44.200344-83.089903-66.888818-128.51057-58.693936zm-379.705567-7.894212-1.059339.09594c-25.462503 29.833124-32.720152 74.988287-19.115527 118.958819 3.563613 1.5475 6.852731 4.318916 9.216752 8.102141 3.779316 6.048169 4.197925 13.087783 1.645112 18.342999 2.046089 3.952217 4.274914 7.865879 6.688208 11.727956 30.372215 48.605705 80.896587 74.531874 126.479474 70.176294 6.511741-7.63262 11.892047-16.338972 16.030536-25.906945l-5.702251-40.739025c-.566227-4.046179 1.385888-8.029887 4.930466-10.061673l10.363113-5.939221c-.412152-7.744065-1.462762-15.551487-3.146226-23.330677l-8.095638.000333c-5.055817 0-9.316291-3.773604-9.92682-8.792423l-5.667115-46.586109-.431144-.646445c-29.84793-44.265731-77.697712-69.186735-122.209601-65.401964zm187.075949 195.181371-29.634757 16.068182c-1.345421 2.984417-2.796485 5.900137-4.350863 8.741942 4.371552-1.875942 8.630573-4.097418 12.748919-6.670846 8.067866-5.041362 15.158401-11.160059 21.236701-18.139278zm382.625976 4.75201-20.898841 12.042452c-.718266 1.796011-1.473257 3.57063-2.264544 5.322746 1.839632-.986188 3.655609-2.040106 5.445947-3.158833 6.539096-4.08608 12.451049-8.858588 17.717438-14.206365zm-739.018307-97.655683c10.752545-.377269 19.302662 6.512361 24.926513 17.769498 4.596552 9.200813 7.368456 21.544545 8.085961 35.235356.71744 13.689568-.744912 26.322681-4.337388 36.01501-4.464083 12.043884-12.374752 19.923459-23.356453 20.498985-20.4156882 1.069941-38.1154413-24.366933-39.6153277-52.986471-1.4974452-28.572958 13.4511457-55.44354 33.8766507-56.513996zm.740221 19.987999-.113545.002974c-2.461552.129005-6.1851971 3.122039-9.3792065 8.863376-3.9633076 7.124175-6.0928364 16.685021-5.5715735 26.63131.5222159 9.964473 3.6545066 19.340458 8.3589116 26.101307 3.7963006 5.455783 7.8221674 8.085854 10.2371064 7.959293 1.604563-.084092 3.673413-2.144809 5.649914-7.477317 2.547468-6.872946 3.703018-16.855626 3.118056-28.017369-.583946-11.142343-2.766475-20.861496-6.004912-27.343801-2.389355-4.782718-4.551206-6.633723-6.179366-6.716828zm751.937881 17.631793-41.384 25.122 3.77 25.632 33.312-19.203.61032-2.217425.537009-1.992388.503583-1.906765.470124-1.820847.294812-1.16602.414288-1.676994.257558-1.069845.358362-1.532321.220244-.973123.302346-1.386828.268694-1.299139.160418-.81723.139677-.746404.148941-.841803.148651-.88997c.02475-.152337.049487-.306676.074209-.463015l.148167-.962024.14781-1.009928.147425-1.057727.147013-1.105421.219688-1.747327.145864-1.224195.217838-1.924996.169959-1.593265zm-383.236.714h-3.202l-41.997 24.072 3.275 23.4 34.904-18.928.112206-.281259c2.095102-5.370757 3.739143-10.727751 4.935673-16.073489l.249551-1.145344c.72649-3.427868 1.279776-6.902164 1.659635-10.424113zm-115.600242-20.941842c7.285238-4.552322 17.591759-1.200165 23.020259 7.487252 5.428501 8.687417 3.923318 19.420346-3.361919 23.972667-7.285237 4.552322-17.591758 1.200165-23.020259-7.487252s-3.923318-19.420346 3.361919-23.972667zm386.773757-.403006c7.359187-4.598531 17.770325-1.212347 23.253929 7.563253 5.483603 8.775599 3.963142 19.617473-3.396045 24.216004-7.359187 4.59853-17.770326 1.212347-23.253929-7.563253-5.483603-8.775599-3.963142-19.617474 3.396045-24.216004zm-260.716503-29.129742-.133231.109727c-.442634.363988-.92095.693374-1.432359.982526l-43.448482 24.566809c1.346751 5.982104 2.364166 11.988903 3.049495 17.98871l20.669664-11.848596c1.513763-.867703 3.228215-1.324232 4.973032-1.324232h16.420599c1.00005 0 1.965572.146727 2.876328.419754.135679-10.116042-.845128-20.487336-2.975046-30.894698zm387.051759-1.349885-.118917.141642c-.716494.851038-1.583643 1.592041-2.583186 2.179346l-41.527574 24.400711c1.482436 5.645765 2.669271 11.327506 3.557647 17.018878l18.712965-11.359028c1.751375-1.063111 3.787027-1.562627 5.831577-1.430973l15.356992.988874c1.392727.089681 2.699511.46003 3.869396 1.051984.253514-10.799142-.764845-21.884609-3.0989-32.991434zm-419.019771-40.555525-35.649 19.282 4.126 33.913h3.253l42.231-23.878-.067901-.230352c-1.29176-4.3167-3.011177-8.792398-5.164203-13.425338l-.408775-.870519c-2.421956-5.105158-5.190627-10.028665-8.308041-14.773069zm386.018 1.132-35.797 20.514 4.14 30.848h6.107l39.039-22.938-.428063-1.307982c-1.433938-4.288571-3.119822-8.504843-5.05852-12.650515l-.539515-1.138281c-2.187129-4.553446-4.65349-8.963532-7.400565-13.232075zm4.480705-23.196593c-41.66635-55.924913-111.982302-75.477812-162.159074-44.123885-2.135541 1.334434-4.204193 2.742078-6.205317 4.219062 44.551982.801944 89.759491 24.523935 120.780691 64.750238l41.101842-23.552181c2.051558-1.17565 4.362797-1.548721 6.551573-1.198149zm-388.14174-.927853c-41.690618-55.273053-110.964395-74.757563-160.162573-44.01513l1.487368-.910427c42.437323 4.374191 84.266886 29.294746 112.847826 68.692669l41.751472-22.582309c1.214719-.65704 2.512779-1.038615 3.817748-1.161241z"/></svg>