<svg height="960" viewBox="0 0 960 960" width="960" xmlns="http://www.w3.org/2000/svg"><path d="m293.42168 28c30.775399.0635356 59.726963 2.1406599 81.967112 5.8058398l2.033733.3428223c11.874444 2.0473179 21.628263 4.5365512 29.011125 7.5460418 4.735773 1.9304524 8.734145 4.1468606 12.096473 6.979841 3.225743 2.7178992 5.844957 5.9746576 7.504418 9.7677984l.054459.1296567 123.425 10.448.247681-.1290771c9.396871-4.8920598 22.813556-8.1865787 40.507812-10.8150746l1.953578-.284761c21.635672-3.0900534 48.488532-4.7910873 76.776929-4.7910873l1.42168.0014339c30.775399.0621017 59.726963 2.139226 81.967112 5.8044059l2.033733.3428223c11.874444 2.0473179 21.628263 4.5365512 29.011125 7.5460418 4.735773 1.9304524 8.734145 4.1468606 12.096473 6.979841 5.005464 4.2174298 8.550498 9.7323506 9.315344 16.5355081l.043533.426947 78.460856 6.6436753c10.238257.8667862 18.133667 9.3434297 18.312805 19.5790917v751.612564c0 10.466346-8.06944 19.162623-18.506566 19.944163l-581.293255 43.527669c-2.319036.173652-4.650589-.058478-6.889864-.685956l-191.843012-53.757204c-8.6347794-2.419591-14.6035697-10.290831-14.6035697-19.258207v-750.328568c0-9.4751725 6.6488044-17.6500557 15.9252397-19.5805085l51.642366-10.7477195-.027239-1.4728934c-.02528-1.4854189-.042991-2.9252275-.054079-4.3197967l-.011785-2.0579704-.002648-1.7353395c0-8.0995626 3.797162-14.5459077 9.470186-19.3256518 3.36237-2.8329282 7.360786-5.0492953 12.096619-6.9797181 6.9944-2.8510615 16.116802-5.2352064 27.15433-7.2190367l1.857284-.3269432c22.830096-3.9361414 53.170014-6.1486502 85.423332-6.1486502zm16.947714 62.856v798.39l282.048-20.519v-754.673zm-20 1.367-161.844 32.715v717.913l161.844 44.062zm322.048 23.476v751.573l249.244-18.133v-712.94zm56.582606-22.699-1.392171.0014587c-19.81637.0415426-38.749832.9692003-55.182914 2.6307932l153.248786 12.6044961c-.044774-1.179741-.093308-2.360703-.145602-3.551828l-.095099-2.00092-.235473-.076917c-4.171765-1.344119-9.924338-2.6991342-16.912527-3.9254322l-.658752-.1145841c-20.39794-3.5168863-48.511531-5.5670667-78.626248-5.5670667zm-377-25h-1.30806c-28.748816.0580149-55.591305 1.9827892-75.526052 5.264973l-1.793081.3021056c-7.065286 1.2181274-12.905729 2.5693372-17.176122 3.9140195l-.095685.0299019.037294 1.5856715c.097267 3.8826824.250822 8.0868607.477775 12.6079414l-.045675-.9256129 95.694506-19.3431538c1.097374-1.5152317 2.609268-2.7106155 4.3693-3.4197703-1.538729-.010642-3.083812-.0160759-4.6342-.0160759zm12.345462.1157353.217965.0987606c1.224676.5665787 2.315361 1.3736166 3.211476 2.3605343l69.938065 5.7520499c-.003497-.2966903-.000729-.5934698.008339-.8900834l.021693-.5139967-1.115081-.2309089c-1.687898-.3442598-3.471082-.6819676-5.342919-1.0104403l-.658752-.1145841c-17.581336-3.0312648-40.894638-4.972912-66.280786-5.4513314z"/></svg>