<svg height="960" viewBox="0 0 960 960" width="960" xmlns="http://www.w3.org/2000/svg"><path d="m493 34c76.700593 0 148.951421 8.9319196 203.554724 24.8913407 28.567775 8.3497725 52.147905 18.5512555 69.81005 30.7562595 10.594589 7.3211379 19.312259 15.5131988 25.876637 24.8893228 8.162602 11.65892 12.758589 24.886289 12.758589 38.963077v652.499676c0 1.104568-.044754 2.19868-.132572 3.280619l-.005428.054705.042484.676016c.047664.869766.07756 1.741529.095516 2.614981v.874003c0 14.076788-4.595987 27.304157-12.758589 38.963077-6.564378 9.376124-15.282048 17.568185-25.876637 24.889323-17.662145 12.205004-41.242275 22.406487-69.81005 30.756259-54.603303 15.959421-126.854131 24.891341-203.554724 24.891341s-148.951421-8.93192-203.554724-24.891341c-28.567775-8.349772-52.147905-18.551255-69.81005-30.756259-10.594589-7.321138-19.312259-15.513199-25.876637-24.889323-8.162602-11.65892-12.758589-24.886289-12.758589-38.963077 0-1.166058.031964-2.329296.095516-3.488984l.042484-.676016-.005403-.0544c-.070261-.865546-.112966-1.738883-.132597-2.619131v-653.161469c0-13.701092 4.355872-26.605001 12.121205-38.038804l.419256-.611115c6.46907-9.335225 15.066148-17.4995456 25.514778-24.7994914 17.40041-12.1568153 40.617496-22.3272126 68.760325-30.6792683 53.651511-15.9223651 124.749966-25.0012671 200.591704-25.3605584l4.498017-.0107629zm261.994833 166.898694c-15.663539 10.823915-37.370334 20.214936-64.050949 28.01313-52.641995 15.386172-123.033026 24.088176-197.943884 24.088176s-145.301889-8.702004-197.943884-24.088176c-26.680615-7.798194-48.38741-17.189215-64.050949-28.01313-3.631059-2.509157-6.973685-5.120223-10.004823-7.832385l-.000344 612.933691 1.194541.000012c-.790413 2.468931-1.194541 4.970665-1.194541 7.499988 0 43.906638 121.778548 79.5 272 79.5s272-35.593362 272-79.5c0-2.529323-.404128-5.031057-1.194541-7.499988l1.194541-.000012.00066-612.934589c-3.031404 2.712483-6.374367 5.323849-10.005827 7.833283zm-261.994833-126.898694-4.498017.0106507c-3.526232.0167104-7.036151.0530333-10.528537.1086118-2.393713.0380942-4.779143.0852333-7.155943.1413031-1.016187.0239726-2.030539.0495708-3.043283.0767916l3.043283-.0767916c-1.458738.0344123-2.914226.0721887-4.366372.1133024l1.323089-.0365108c-2.691041.0723306-5.370734.1561183-8.038501.2511947-.712026.0253756-1.423506.0515669-2.134125.0785598l2.134125-.0785598c-1.024523.0365129-2.047287.0746907-3.06826.1145238l.934135-.035964c-1.430343.0543317-2.857196.1119112-4.280472.1727122l3.346337-.1367482c-1.81882.0709612-3.631954.1471758-5.43922.22859l2.092883-.0918418c-1.394655.0595785-2.785875.1222504-4.173575.187991l2.080692-.0961492c-1.678128.0755968-3.351195.1556766-5.019054.2401963l2.938362-.1440471c-1.423638.0674431-2.843572.1381161-4.259709.2119922l1.321347-.0679451c-1.205667.0610979-2.408612.1245158-3.608779.1902376l2.287432-.1222925c-1.465445.0764484-2.926825.1563269-4.384039.2396061l2.096607-.1173136c-1.510027.0826897-3.015656.1690265-4.516778.2589776l2.420171-.141664c-1.360678.0777622-2.717725.1584895-4.071058.2421579l1.650887-.1004939c-1.317209.0789307-2.630948.1606445-3.94114.2451194l2.290253-.1446255c-1.473009.0910673-2.941618.1856188-4.405722.2836237l2.115469-.1389982c-1.237171.0797667-2.471179.1619954-3.701963.2466675l1.586494-.1076693c-1.37284.0918959-2.741719.186828-4.10655.284771l2.520056-.1771017c-1.463855.1007064-2.923149.2048693-4.377774.3124576l1.857718-.1353559c-1.400242.1004841-2.796223.2041372-4.187848.310932l2.33013-.1755761c-1.415495.1046941-2.826569.2126319-4.233125.3237846l1.902995-.1482085c-1.358869.1042809-2.713585.2115572-4.064061.3218034l2.161066-.1735949c-1.599195.126376-3.19255.2569079-4.779919.3915536l2.618853-.2179587c-1.332341.1087657-2.660556.220422-3.98456.3349444l1.365707-.1169857c-1.340681.1137208-2.677092.2303761-4.009146.3499406l2.643439-.2329549c-1.380959.1194488-2.757338.2420155-4.12904.3676723l1.485601-.1347174c-1.367225.1227213-2.729861.2485074-4.087813.377331l2.602212-.2426136c-1.338035.1225726-2.67162.2480853-4.000667.3765124l1.398455-.1338988c-1.315845.1248289-2.627292.2525097-3.934256.3830175l2.535801-.2491187c-1.378525.1332081-2.752167.2695516-4.120827.4090014l1.585026-.1598827c-1.196973.1195245-2.390185.2414202-3.579572.3656679l1.994546-.2057852c-1.354975.1380553-2.705066.2791553-4.050179.4232717l2.055633-.2174865c-1.340117.1399934-2.675377.2829728-4.005687.4289107l1.950054-.2114242c-1.318172.14123-2.631563.2853568-3.940083.4323542l1.990029-.22093c-1.277251.1401172-2.549939.2829616-3.81798.4285089l1.827951-.2075789c-1.345101.1511068-2.685055.305247-4.019763.4623917l2.191812-.2548128c-1.361807.1563099-2.718255.3157372-4.069241.4782519l1.877429-.2234391c-1.256309.1479142-2.50797.2984904-3.754902.4517046l1.877473-.2282655c-1.381395.1661727-2.757079.3355734-4.126944.5081699l2.249471-.2799044c-1.285292.1579276-2.565559.3186581-3.840712.4821653l1.591241-.2022609c-1.257373.1584232-2.509844.319539-3.757325.4833223l2.166084-.2810614c-1.327.1701554-2.648462.3433179-3.964284.519458l1.7982-.2383966c-1.268193.1665026-2.531229.335762-3.789021.5077524l1.990821-.2693558c-1.23137.1648349-2.4578.3322775-3.679209.5023035l1.688388-.2329477c-1.333113.1822899-2.660335.3676475-3.981558.5560417l2.29317-.323094c-1.268056.1765195-2.5307.3558236-3.787839.5378852l1.494669-.2147912c-1.179339.1681629-2.3539.3387453-3.523605.5117251l2.028936-.2969339c-1.303971.1888439-2.602019.3806546-3.894041.5754019l1.865105-.278468c-1.225297.1812009-2.445268.3650324-3.659824.5514692l1.794719-.2730012c-1.207692.182036-2.410118.3666378-3.607195.5537807l1.812476-.2807795c-1.303274.2000552-2.600314.4031102-3.891012.6091335l2.078536-.328354c-1.240822.1939818-2.475897.3906937-3.70513.5901084l1.626594-.2617544c-1.154891.1843453-2.304704.3710672-3.449363.5601432l1.822769-.2983888c-1.219892.1978993-2.434031.3984604-3.642325.6016565l1.819556-.3032677c-1.316628.2174821-2.626438.4380787-3.929311.6617557l2.109755-.358488c-1.179649.1983789-2.353728.3992694-3.52215.6026465l1.412395-.2441585c-1.123291.1928464-2.241427.3879824-3.354331.5853862l1.941936-.3412277c-1.243801.2164976-2.481192.435813-3.71207.657916l1.770134-.3166883c-1.165127.2066668-2.324521.4158192-3.478094.627432l1.70796-.3107437c-1.180408.212996-2.354827.4285557-3.523164.6466525l1.815204-.3359088c-1.212347.2223941-2.418266.4475057-3.617657.6753055l1.802453-.3393967c-1.167059.217858-2.32805.4382475-3.482883.6611422l1.68043-.3217455c-1.117626.2122702-2.229585.4268745-3.335794.6437895l1.655364-.322044c-1.204224.2324277-2.401753.4675793-3.592483.7054249l1.937119-.3833809c-1.092737.2142734-2.179865.4308013-3.261306.6495612l1.324187-.2661803c-1.178131.235329-2.349607.4732952-3.514327.7138696l2.19014-.4476893c-1.137527.2301054-2.268762.4626803-3.393613.697698l1.203473-.2500087c-1.085612.2242343-2.165356.4507345-3.23915.6794771l2.035677-.4294684c-1.220379.2549766-2.433244.5128285-3.63848.773522l1.602803-.3440536c-1.108539.2361441-2.210739.4746779-3.306509.7155757l1.703706-.3715221c-1.111236.2403613-2.215985.4831381-3.314158.7283039l1.610452-.3567818c-1.098951.2415972-2.191437.485572-3.277366.7318983l1.666914-.3751165c-1.110888.2480044-2.215045.4984535-3.312379.7513198l1.645465-.3762033c-1.098327.2491383-2.189947.5006821-3.274768.7546044l1.629303-.3784011c-1.116949.2573865-2.226829.5172774-3.329538.7796437l1.700235-.4012426c-1.057687.2475711-2.108912.4974031-3.153587.7494711l1.453352-.3482285c-1.043786.2483465-2.081148.4989109-3.112003.7516687l1.658651-.4034402c-1.132824.2733371-2.257948.5493033-3.375261.8278667l1.71661-.4244265c-1.018958.2498409-2.031558.5018249-3.037718.7559281l1.321108-.3315016c-1.030978.2570387-2.055307.5162886-3.0729.7777248l1.751792-.4462232c-1.091885.2757527-2.176186.5540012-3.252799.8347151l1.501007-.3884919c-1.028782.2643108-2.05068.5308561-3.065604.79961l1.564597-.4111181c-1.015497.2647785-2.024155.5317505-3.025886.8008905l1.461289-.3897724c-1.07649.2850566-2.145135.5725978-3.205829.8625927l1.74454-.4728203c-.97059.2607733-1.934678.5235819-2.892184.7884026l1.147644-.3155823c-1.008089.2756123-2.008995.553441-3.002628.8334594l1.854984-.5178771c-1.044861.2889808-2.081884.5803577-3.110967.8741005l1.255983-.3562234c-.979777.2761132-1.952481.5543555-2.918028.8347014l1.662045-.478478c-.99505.2840284-1.982676.5702689-2.962785.8586942l1.30074-.3802162c-.952649.2766013-1.89833.5552504-2.836959.8359228l1.536219-.4557066c-.994697.2927184-1.981652.5876871-2.960767.8848778l1.424548-.4291712c-.998679.2986289-1.989374.5995484-2.971986.9027288l1.547438-.4735576c-.930931.2825654-1.854776.5671395-2.771449.8536978l1.224011-.3801402c-.970185.2993466-1.93249.6008975-2.886817.9046241l1.662806-.5244839c-.956966.299154-1.906118.6004706-2.847359.9039215l1.184553-.3794376c-.90508.2880536-1.802985.5780646-2.693631.8700076l1.509078-.49057c-.943526.304188-1.879104.610521-2.806637.918971l1.297559-.428401c-.938364.307585-1.868672.617316-2.790824.929164l1.493265-.500763c-.898921.298935-1.790286.599858-2.674008.902744l1.180743-.401981c-.917405.310242-1.826739.62258-2.727907.936986l1.547164-.535005c-.897178.307498-1.786477.617019-2.667809.928536l1.120645-.393531c-.878098.306356-1.748442.614676-2.610945.924932l1.4903-.531401c-.890453.314742-1.772771.631522-2.646861.950312l1.156561-.418911c-.902294.324571-1.796006.651261-2.681035.980042l1.524474-.561131c-.853131.311146-1.698423.624208-2.535789.939159l1.011315-.378028c-.824814.306412-1.642087.61464-2.451737.92466l1.440422-.546632c-.890523.334944-1.772082.672026-2.64457 1.011214l1.204148-.464582c-.829437.317596-1.650873.637073-2.46422.958404l1.260072-.493822c-.813603.316296-1.61932.634424-2.417064.954359l1.156992-.460537c-.832661.328962-1.656844.659867-2.472455.992689l1.315463-.532152c-.832199.333752-1.655723.669471-2.470474 1.007128l1.155011-.474976c-.786055.320761-1.564148.643302-2.334196.967598l1.179185-.492622c-.827984.34314-1.646908.688282-2.456671 1.035396l1.277486-.542774c-.754973.317948-1.502213.637584-2.241639.958883l.964153-.416109c-.780393.334525-1.552278.67088-2.315563 1.009041l1.35141-.592932c-.798783.347092-1.588448.696125-2.368894 1.047071l1.017484-.454139c-.743951.329595-1.479733.660904-2.20726.993903l1.189776-.539764c-.772698.347463-1.536361.6968-2.290889 1.047983l1.101113-.508219c-.767626.351353-1.526063.704586-2.275212 1.059672l1.174099-.551453c-.723975.336964-1.439541.675627-2.146612 1.015965l.972513-.464512c-.718828.340715-1.429106.683135-2.130744 1.027235l1.158231-.562723c-.723578.348283-1.43826.69832-2.143953 1.050084l.985722-.487361c-.720383.353293-1.43166.708356-2.133735 1.065163l1.148013-.577802c-.711769.354793-1.414395.711343-2.107782 1.069622l.959769-.49182c-.684987.348122-1.361215.697903-2.028597 1.049318l1.068828-.557498c-.716637.370292-1.423405.742432-2.1202 1.116388l1.051372-.55889c-.663288.349259-1.317838.700132-1.963562 1.052593l.91219-.493703c-.692889.371859-1.375915.745515-2.048978 1.120936l1.136788-.627233c-.653633.356778-1.298222.715183-1.93368 1.07519l.796892-.447957c-.62167.346756-1.234839.695019-1.839426 1.044764l1.042534-.596807c-.663076.375653-1.316209.753049-1.959298 1.132159l.916764-.535352c-.617374.357143-1.2258.715832-1.825192 1.076042l.908428-.54069c-.616716.363564-1.224194.728703-1.822345 1.095392l.913917-.554702c-.602128.361855-1.195138.725245-1.778944 1.090145l.865027-.535443c-.606875.372038-1.204147.74567-1.791725 1.120871l.926698-.585428c-.61425.383928-1.21831.769528-1.812078 1.156768l.88538-.57134c-.567209.362195-1.125384.72585-1.67444 1.090942l.78906-.519602c-.59746.389648-1.184499.780958-1.761016 1.173899l.971956-.654297c-.568877.378273-1.127965.758088-1.67717 1.139418l.705214-.485121c-.510894.348215-1.013525.697712-1.507819 1.048468l.802605-.563347c-.557551.387124-1.104916.775809-1.641998 1.166027l.839393-.60268c-.543675.385798-1.077265.77312-1.600674 1.161938l.761281-.559258c-.522374.379533-1.035021.760516-1.537849 1.142922l.776568-.583664c-.527667.391982-1.044987.785485-1.551862 1.18048l.775294-.596816c-.507183.385718-1.004376.772884-1.491487 1.161471l.716193-.564655c-.489423.381396-.969108.764183-1.438966 1.148335l.722773-.58368c-.483387.385615-.956845.77263-1.420284 1.161018l.697511-.577338c-.47647.389559-.942834.780521-1.399001 1.172861l.70149-.595523c-.470473.394283-.930622.789982-1.38035 1.187067l.67886-.591544c-.457395.393397-.904537.788178-1.341334 1.184316l.662474-.592772c-.439829.388345-.869692.778016-1.289499 1.168989l.627025-.576217c-.423174.383784-.836637.768842-1.240305 1.155149l.61328-.578932c-.427603.398232-.844774.797814-1.251419 1.198719l.638139-.619787c-.415456.397588-.820536.7965-1.215149 1.196708l.57701-.576921c-.409186.403409-.807715.808157-1.19549 1.214216l.61848-.637295c-.408082.413869-.804971.829124-1.190562 1.245737l.572082-.608442c-.373054.390643-.736156.782499-1.089221 1.175544l.517139-.567102c-.411105.444178-.809369.889898-1.194669 1.337124l.67753-.770022c-.359776.400514-.709129.802263-1.047971 1.20522l.370441-.435198c-.32057.372094-.632166.74523-.934716 1.119388l.564275-.68419c-.350021.416251-.688825.83379-1.016313 1.25259l.452038-.5684c-.323111.399584-.635904.800333-.938295 1.202223l.486257-.633823c-.316946.405319-.623294.811817-.918953 1.21947l.432696-.585647c-.307617.408837-.604468.818853-.890462 1.230022l.457766-.644375c-.30028.414024-.589534.829238-.867668 1.245614l.409902-.601239c-.278405.40026-.546521.801612-.804264 1.204033l.394362-.602794c-.276738.414286-.542468.829722-.797096 1.246282l.402734-.643488c-.251897.393293-.493886.787606-.725888 1.182916l.323154-.539428c-.252385.412889-.493864.826882-.724346 1.241953l.401192-.702525c-.252966.43103-.494058.863245-.723176 1.296616l.321984-.594091c-.231778.417402-.452435.835895-.661881 1.255451l.339897-.66136c-.230291.43559-.448483.872347-.654475 1.310241l.314578-.648881c-.210418.421504-.40952.84408-.597213 1.267703l.282635-.618822c-.210808.448133-.408837.897457-.593977 1.347939l.311342-.729117c-.185038.417628-.358987.836274-.521758 1.255909l.210416-.526792c-.184741.449511-.356648.900176-.515611 1.351963l.305195-.825171c-.164709.424631-.317973.850277-.459699 1.276909l.154504-.451738c-.120247.341752-.233087.684146-.338473 1.027169l.183969-.575431c-.142381.428602-.273117.8582-.392115 1.288767l.208146-.713336c-.12235.398238-.234652.797322-.336832 1.197231l.128686-.483895c-.119168.431182-.226565.863337-.322096 1.296436l.19341-.812541c-.137422.537838-.256536 1.077167-.35716 1.617934l.16375-.805393c-.093469.423745-.175578.848394-.246241 1.273921l.082491-.468528c-.088503.475628-.162702.952368-.222473 1.430185l.139982-.961657c-.072048.433871-.132197.868655-.180352 1.304325l.04037-.342668c-.122736.981156-.184639 1.966849-.184639 2.956769 0 43.906638 121.778548 79.5 272 79.5s272-35.593362 272-79.5-121.778548-79.5-272-79.5zm0 36.5c36.765607 0 71.314602 4.271077 97.157479 11.824418 13.106408 3.830733 23.772697 8.445295 31.475552 13.768169 9.325889 6.444434 14.800931 14.264621 14.800931 23.407413s-5.475042 16.962979-14.800931 23.407413c-7.702855 5.322874-18.369144 9.937436-31.475552 13.768169-25.842877 7.553341-60.391872 11.824418-97.157479 11.824418s-71.314602-4.271077-97.157479-11.824418c-13.106408-3.830733-23.772697-8.445295-31.475552-13.768169-9.325889-6.444434-14.800931-14.264621-14.800931-23.407413s5.475042-16.962979 14.800931-23.407413c7.702855-5.322874 18.369144-9.937436 31.475552-13.768169 25.842877-7.553341 60.391872-11.824418 97.157479-11.824418zm0 20c-34.975872 0-67.665069 4.041162-91.54664 11.021253-11.219247 3.279155-20.012201 7.083255-25.71645 11.02504-4.453947 3.077794-6.170872 5.530137-6.170872 6.953707s1.716925 3.875913 6.170872 6.953707c5.704249 3.941785 14.497203 7.745885 25.71645 11.02504 23.881571 6.980091 56.570768 11.021253 91.54664 11.021253s67.665069-4.041162 91.54664-11.021253c11.219247-3.279155 20.012201-7.083255 25.71645-11.02504 4.453947-3.077794 6.170872-5.530137 6.170872-6.953707s-1.716925-3.875913-6.170872-6.953707c-5.704249-3.941785-14.497203-7.745885-25.71645-11.02504-23.881571-6.980091-56.570768-11.021253-91.54664-11.021253z"/></svg>