<svg height="960" viewBox="0 0 960 960" width="960" xmlns="http://www.w3.org/2000/svg"><path d="m208.38014 39.0521196 631.825581 20.5913128c5.189593.1691298 10.109994 2.3498964 13.720805 6.0811859l97.445737 100.6971137c3.609671 3.730111 5.627737 8.717492 5.627737 13.908201v632.315778c0 55.963566-45.152308 102.622427-101.077224 104.44503l-641.255814 20.898646c-.282118.009195-.563773.020781-.844797.009703l-.089165-.00209-.046782.002847c-1.621293.052404-3.281763-.093791-4.954696-.460504l-.38627-.088551-98.511229-23.574615c-4.186572-1.001884-7.806716-3.282416-10.4777518-6.373778l-.0562712-.066399-.1280109-.105196c-.3361576-.281651-.6638983-.575073-.9825744-.879999l-.3156307-.30875-88.01599996-88.017c-3.75067842-3.750721-5.85778404-8.837765-5.85778404-14.142055v-641.254318c0-50.520651 37.0453253-93.1751288 86.5352098-100.5989906l-.7352098.1153086 85.674021-18.7810963c.487532-.1068752.974175-.1950454 1.459248-.2650382l.223731-.0298655.504109-.1543475c9.867301-2.9542352 20.201916-4.3052876 30.719031-3.9625329zm-21.911934 43.1541686c-2.03751.7242468-4.093718 1.0984897-6.112473 1.1608675l-.118733.0028443-21.589121 4.7318485c-13.926164 13.5299225-22.647879 33.1746215-22.647879 55.3953015v679.50285l70.533 72.887006 4.517 1.081994.308445-.030593c2.466013-.21817 4.987739.01705 7.43186.762598l.377695.119995 635.45186-20.709033c34.006593-1.108281 61.818907-29.508252 62.38014-63.436459v-625.252508l-86.189-89.065-623.733776-20.3271059c-7.146319-.2328999-14.077472.8537122-20.609018 3.1753941zm-57.850557 12.4762259-30.8328496 6.7619789c-.2904867.063679-.5823395.120868-.8753403.171525l-.4403348.071083c-29.9792649 4.497119-52.4691243 30.392241-52.4691243 61.041581v632.969318l77.658 77.659.282516.112819c2.024724.82447 3.8854 1.971407 5.517168 3.378204l.182316.158977 42.672 10.212006-51.498174-53.218298c-1.804809-1.865051-2.813826-4.358723-2.813826-6.954056v-683.549502c0-17.927281 4.59569-34.610054 12.617649-48.8146359zm467.835898 328.9756069.528159.40374c17.668244 13.62317 26.208473 31.994693 26.013118 54.993425-1.376973 42.474879-16.461076 80.434315-45.307569 113.350497-4.755368 5.458422-11.709186 6.313549-16.085446 1.234653-3.971485-4.614438-2.990122-9.352318 1.097923-13.97469 9.894794-11.165013 18.068082-23.402034 24.534243-36.704831 10.425162-21.371893 15.679827-43.683409 15.725812-66.918049.060756-30.984769-29.978769-53.468892-61.667807-45.984164-.141156.033573-.288792.07702-.662759.19426l-.011875.003723c-.638744.200242-.962928.293491-1.425529.392457-5.730022 1.225626-10.923174-1.057091-12.628416-6.154459-1.954595-5.853428 1.263718-11.209267 7.553392-12.838226 22.936436-5.910691 44.00722-1.978041 62.336754 12.001664zm-28.173649 15.096806c15.110624 5.949427 24.679564 19.838928 24.720102 35.937768v3.259446l-.003642.170655c-1.973581 46.216773-20.978265 84.534263-57.130263 114.828788-4.904347 4.140009-11.030721 4.127097-14.886613-.41985-3.908662-4.615193-2.856838-10.367886 2.218654-14.607958 23.147927-19.239169 38.337248-42.256717 45.183371-69.259101 2.478925-9.75817 3.829473-20.322053 4.617671-33.884898.613127-10.542406-7.375025-18.713323-18.376172-19.016479-11.033149-.305173-19.332563 7.226876-19.669166 17.933151-.667983 21.277338-6.422502 39.801051-17.992532 55.994868-10.443004 14.675151-24.187133 25.788761-41.119258 33.447955-4.786305 2.170776-8.823252 2.301549-12.526505-.979331-5.683351-5.042831-3.76262-12.716237 3.071802-16.590715 1.302187-.737395 2.488169-1.390166 4.612498-2.546219l1.829845-.996147c6.430409-3.506131 9.987425-5.694273 13.370334-8.437566 18.236612-14.724225 27.746853-33.798174 28.467455-57.019429.364373-11.730605 3.468312-20.891977 10.509206-28.318563 11.068288-11.635737 28.194433-15.396091 43.103213-9.496375zm-33.467822 101.702071c4.440036 3.975998 4.115306 9.902629-.097487 15.036088-8.836284 10.791984-19.257528 19.917175-31.220766 27.375832-.611595.381928-1.24633.718086-2.004679 1.074322-.235812.110773-.970494.435743-1.747614.780478l-.467713.207658c-.62067.27589-1.210077.539543-1.534527.691408l-2.617806 1.225312-1.98519-2.100789c-.298148-.31551-.60971-.613969-1.239183-1.195075-.065314-.060283-.065314-.060283-.131577-.121431-2.078838-1.918567-3.011464-2.946587-3.86139-4.65846-2.267936-4.576244-.308839-8.64335 3.817379-11.732723 1.452957-1.086234 2.675962-1.971346 5.218494-3.790388.022607-.016174.039562-.028305.053691-.038413l.073451-.052549.05366-.038391c5.308824-3.798124 7.658985-5.562036 10.352468-7.884587 2.825725-2.432609 5.083006-4.747315 9.614967-9.690006.273688-.298525.273688-.298525.54797-.597688.876436-.955814 1.428846-1.555942 2.011332-2.183269 4.844284-5.209559 10.517235-6.473445 15.16452-2.307329zm19.216483-159.436908.01735.000384c18.770538.455519 36.032316 5.634623 51.57065 15.561978l-.049559-.031452.684673.410268c10.208575 6.188292 18.990987 14.378934 26.303307 24.511719l.35002.489013.075953.078171c.445875.474135.873556.991463 1.282838 1.549669l.303509.426282c10.795166 15.577384 16.511086 33.585242 16.432847 49.857438-.679971 37.314037-8.946024 69.068315-25.647599 99.333686-3.261152 5.929657-8.258871 8.315915-13.751797 5.84442-5.918155-2.6684-7.24308-8.661333-3.808038-14.827664 11.340869-20.305707 18.539262-41.727975 21.569733-64.241587 3.148974-23.376063 2.409715-38.264095-4.409577-52.827276-1.385718-2.965453-2.866359-5.612086-5.71726-10.385276l-1.204609-2.017863-.452283-.666541c-5.600918-8.16976-12.228817-14.711422-19.920196-19.682765l-.645521-.411694-.112294-.063907-.253592-.153799c-.503379-.313853-1.006603-.621896-1.463379-.896709-.0447-.026091-.0447-.026091-.082645-.048312l-.580824-.336687c-7.39468-4.391143-14.843271-7.5528-22.618001-9.507366-40.192736-10.19409-80.757095 12.189887-92.412252 51.037892-.045513.152042-.086329.296377-.168321.592623-.025099.090708-.025099.090708-.05124.184956-.014044.050448-.025406.091202-.035323.126661l-.021129.075648-.110166.48745c-1.173773 5.278624-2.138985 11.875741-2.875322 19.715769l-.052512.561781.004708.058658c.016349.300774.023445.604771.021377.911797l-.009966.462786c-.646491 17.914474-14.224446 33.126999-32.451647 36.488517-6.303657 1.167769-11.456661-1.870797-12.557254-7.867386-1.047577-5.71627 2.377847-10.083541 8.439284-11.544564 10.392814-2.496892 15.238034-7.609614 16.650343-17.546067l.045155-.339741.074686-.869923c.756903-8.775624 1.778158-16.290242 3.08088-22.611506l.108434-.521571.011499-.088432c.014998-.109475.03179-.219305.050343-.329489l.060903-.33162c.203775-1.024529.453354-2.064917.749218-3.137178l.213037-.750281.199426-.752452c.65072-2.411147 1.358044-4.610306 2.129622-6.611886l.259583-.659895.141851-.349061 1.512254-3.721305.305264.125599.28439-.615644c15.845095-33.771079 50.139083-54.911269 88.529169-54.146266zm-41.466583 43.988599c3.278382.167377 7.13745 2.483582 8.596456 5.370557 1.411492 2.789201.946644 6.749236-.586791 9.680527-.817611 1.565555-1.688542 2.604589-3.522988 4.490071-.019376.019911-.033909.034844-.046003.047271l-.062557.064274-.045425.046668c-.920736.946034-1.330118 1.392823-1.712195 1.889964-6.426289 8.372374-9.640067 17.790094-9.764926 28.531638-.347253 29.790396-19.546929 55.556053-47.979125 64.528953-.213858.067749-.432232.134592-.656628.20114-.316537.093874-.872407.24643-1.460118.404666l-.394247.105751c-.920291.246002-1.806055.477252-1.876284.494255l-.778191.211024-.813468-.11448c-5.25879-.740074-8.773669-3.467823-9.3702-8.569842-.645995-5.521064 2.269807-9.618076 7.653287-11.114359 7.108701-1.972799 13.305451-5.213551 18.6242-9.804593 11.353422-9.765402 16.98737-22.181414 17.228425-37.478394.274194-17.375985 6.563103-32.461171 18.700103-44.986346 2.338399-2.409015 5.31606-4.148041 8.266675-3.998745zm40.688541 40.991143.288761.003485c5.949477.148738 9.485978 4.915484 9.460805 11.512952-.001225.213517-.001907.436498-.002292.68336l.000205 1.56516.000749.945975.000211.719117-.004445.18853c-.859991 18.226043-5.602237 35.780207-14.202251 52.0097-3.032568 5.734792-8.291494 7.967942-13.591391 5.210764-5.278141-2.749192-6.584289-8.349787-3.675647-14.082644 7.807767-15.353509 11.841739-31.116341 12.00604-47.545741.063634-6.375473 3.744642-11.048809 9.433163-11.20654z"/></svg>