<svg height="960" viewBox="0 0 960 960" width="960" xmlns="http://www.w3.org/2000/svg"><g fill="#000" fill-rule="evenodd"><path d="m572.054034 193.318771c24.543219-4.439558 47.119949 14.419712 47.119949 39.361229l-.000713 104.953 272.238809-73.745368c8.321932-2.254325 17.144186-1.758137 25.153417 1.405499l.544809.219835 16.206914 6.678352c14.982972 6.174004 24.760415 20.777995 24.760415 36.983173v195.833255c0 16.08757-9.637866 30.609651-24.462091 36.858831l-506.059381 213.330273c-8.444877 3.559953-17.856104 4.112075-26.659317 1.564004l-21.150578-6.12199c-17.105938-4.951277-28.878592-20.61474-28.878592-38.422835l-.000405-44.948029-177.452-54.909-121.3274401 35.108547c-25.32602 7.328528-50.60782108-11.411082-51.11856003-37.626969v-279.806142c0-19.345041 13.84393603-35.917836 32.88005083-39.361228zm-181.186764 258.433801.000703 120.884077c.011787.198068.017754.397403.017754.597808v71.535351c0 .200495-.005782.399286-.017171.596244l-.000881 66.849977 21.150578 6.12199-.000983-257.793447zm527.21-121.836-486.059595 133.654567-.000405 246.335433 486.060364-204.898826zm-846.9023624 158.665948v50.614l102.4493624 31.461052.176862-.050914 44.962138 13.912914 152.104 46.711v-50.613zm507.9990754-255.90252-538.2047131 97.354436v279.009452l97.5770001-28.236316-14.207952-4.361592c-.459747.21179-.94146.391301-1.443151.534953l-58.9675328 16.88446c-6.3894089 1.829511-12.7527266-2.967486-12.7527266-9.613662l-.0009398-130.020591c-.0016464-.104935-.0016276-.209653.0000362-.31412l.0009036-99.180409c0-4.782471 3.386225-8.895505 8.0796881-9.813888l501.3786893-98.106215c6.176354-1.208545 11.920312 3.520405 11.920312 9.813888l-.000327 114.353176 6.62-1.793zm-507.9997131 327.438572.0006377 10.867824 18.3123623-5.243824zm319.5396381-169.797879-319.5396381 71.765879v5.574l299.6930001 92.036.000405-118.773772c0-8.906279 5.886136-16.722767 14.408955-19.202646l.361679-.101596 61.837961-16.751986zm511.156812-87.824554-409.620079 110.963665c-.410816.141141-.833712.256272-1.266719.343429l-84.344652 22.846339 16.87488 7.01616c.65731.273276 1.270025.608564 1.83418.996258l492.729304-135.487499zm-422.71945-19.357567-407.9763624 79.830824-.0006377 78.619176 317.5020611-71.307826c1.541556-.346223 3.143212-.32225 4.673716.069954l85.664223 21.951872zm73.401638-14.362176-53.396638 10.447176-.141 111.681 53.538-14.503z" fill-rule="nonzero"/><path d="m506.617375 323.064926 36.737523-7.514752v74.224945l-36.737523 9.839414z"/></g></svg>