<svg height="960" viewBox="0 0 960 960" width="960" xmlns="http://www.w3.org/2000/svg"><path d="m160.30576 9.0213183 717 23.4182319c21.571573.704558 38.69424 18.3956061 38.69424 39.9786817v798.7381191c0 21.164741-16.487037 38.666353-37.614094 39.92878l-717 42.843649c-22.988561 1.373659-42.385906-16.899214-42.385906-39.92878v-182.579l-1.157228-.284662c-49.387867-12.544532-85.0604162-56.847967-85.8300713-108.761656l-.0127007-1.714166v-289.432549c0-45.495515 32.2550001-84.604414 76.918887-93.263462l10.081113-1.955505v-187.009c0-22.6031533 18.714653-40.71653913 41.30576-39.9786817zm-1.30576 39.9786817v220l-.082.015549v427.973l.082.011451v216.612549l717-42.882v-798.3123171zm539.759561 642.979796v27.34125c0 23.742764-19.458554 43.5606-43.464617 44.971354l-.141464.007749-211.541839 10.742797-.605569.030018c-24.359503 1.031252-44.397582-17.727699-44.799906-42.06267l-.006166-.746675v-28.343279c0-24.217107 19.469697-44.465254 43.706659-45.558664l.079891-.003425 211.461948-8.587865c24.711994-1.114841 45.311063 17.724737 45.311063 42.20941zm-44.508861-24.427496-211.541839 8.59129c-14.750897.665462-26.708861 13.101537-26.708861 27.77675v28.343279c0 14.675214 11.957964 25.869096 26.708861 25.002236l211.541839-10.742798c14.750896-.86686 26.708861-13.045615 26.708861-27.202011v-27.34125c0-14.156396-11.957965-25.092958-26.708861-24.427496zm-168.746313 47.820709c0 17.456688-12.925133 32.540159-29.562716 33.455246-17.14268.942867-30.66108-13.567692-30.66108-31.572884 0-17.66947 12.979676-32.816592 29.726252-33.462898 17.039533-.657612 30.497544 13.788126 30.497544 31.580536zm61.807296-2.892411c0 17.219014-12.977104 32.035956-29.562716 32.948184-17.08233.939548-30.66108-13.293442-30.66108-31.065821 0-17.431109 13.032744-32.311578 29.726252-32.955836 16.980305-.655326 30.497544 13.513188 30.497544 31.073473zm61.807296-2.89241c0 16.983763-13.029261 31.531761-29.562716 32.44112-17.021744.936216-30.66108-13.016403-30.66108-30.558758 0-17.195171 13.086045-31.806573 29.726252-32.448773 16.920891-.653033 30.497544 13.235463 30.497544 30.566411zm61.807296-2.892411c0 16.751031-13.081526 31.027573-29.562716 31.934058-16.961006.932875-30.66108-12.736469-30.66108-30.051696 0-16.961751 13.139509-31.301573 29.726252-31.94171 16.86138-.650737 30.497544 12.954842 30.497544 30.059348zm-214.902177-2.92409-.245963.005908c-5.468413.211044-10.497544 6.079978-10.497544 13.477776 0 7.062077 4.490407 11.88205 9.562717 11.603067 5.577405-.306764 10.661079-6.239349 10.661079-13.485429 0-6.690982-4.266442-11.482965-9.235365-11.599162zm61.814029-2.385396-.252696.005956c-5.521481.213092-10.497544 5.89464-10.497544 12.970714 0 6.734803 4.430057 11.378306 9.562717 11.096003 5.629377-.309622 10.661079-6.054697 10.661079-12.978366 0-6.370062-4.206463-10.984684-9.222115-11.092676zm61.814255-2.385633-.259655.006241c-5.574782.215149-10.497544 5.711726-10.497544 12.463651 0 6.404742 4.369471 10.874576 9.562717 10.588941 5.681533-.312491 10.661079-5.87247 10.661079-12.471303 0-6.046677-4.146285-10.486451-9.208426-10.586211zm61.814488-2.385644-.266847.006537c-5.628246.217213-10.497544 5.531328-10.497544 11.956588 0 6.071785 4.308733 10.370854 9.562717 10.081879 5.733798-.315366 10.661079-5.692761 10.661079-11.964241 0-5.720738-4.085991-9.988256-9.194286-10.079767zm-502.54887-423.722465-22.386013 4.340782c-25.8580396 5.013133-44.531987 27.655127-44.531987 53.994636v289.432549c0 37.148394 27.541843 68.539352 64.374642 73.371333l2.543358.3337zm269.512798 318.247562c0 20.419809-15.012998 37.945534-34.249965 38.84186-19.709485.921848-35.180833-16.193422-35.180833-37.331398 0-20.920757 15.120137-38.575452 34.571671-38.857274 19.50389-.280353 34.859127 16.710427 34.859127 37.346812zm86-1.518034c0 20.034567-15.083511 37.146259-34.255549 38.028819-19.630109.907138-35.175249-15.789617-35.175249-36.536466 0-20.527746 15.192101-37.766543 34.573387-38.043988 19.429698-.275953 34.857411 16.298649 34.857411 36.551635zm186-3.283191c0 19.215722-15.237252 35.417392-34.267628 36.270372-19.457385.875581-35.16317-14.900828-35.16317-34.817185 0-19.692233 15.349293-36.016979 34.577098-36.285019 19.268498-.266511 34.8537 15.392775 34.8537 34.831832zm84-1.482731c0 18.852812-15.306849 34.636503-34.273084 35.47623-19.379307.861462-35.157714-14.492048-35.157714-34.040731 0-19.321858 15.42062-35.22682 34.578774-35.490646 19.195797-.262287 34.852024 14.97635 34.852024 34.055147zm-404.498951 1.2985c-.600049 2.013862-.931847 4.198726-.931847 6.495918 0 8.615475 4.621607 15.166154 10.552456 16.907634zm85.998089-1.257099c-.5993 1.929507-.929936 4.021128-.929936 6.216874 0 8.124348 4.489901 14.362752 10.372248 16.090897zm185.995319-2.706386c-.597382 1.744486-.925255 3.630415-.925255 5.600903 0 7.056541 4.190992 12.623496 9.934532 14.317855zm83.998029-1.217465c-.596627 1.660036-.923284 3.451557-.923284 5.317949 0 6.572287 4.04913 11.837226 9.712358 13.513607zm-339.335526-6.90837 10.300854 25.061248c.982814-2.426087 1.542186-5.132766 1.542186-7.986472 0-8.778815-5.26028-15.643184-11.84304-17.074776zm86.179684-.700727 10.117884 23.907805c.985826-2.327597 1.545472-4.921971 1.545472-7.650336 0-8.270943-5.119944-14.81402-11.663356-16.257469zm186.434098-1.509422 9.675483 21.3931c.993225-2.11249 1.553775-4.459665 1.553775-6.9094 0-7.168441-4.803748-13.022551-11.229258-14.4837zm84.221219-.678029 9.44988 20.247028c.997025-2.01436 1.558159-4.247819 1.558159-6.56803 0-6.668459-4.653802-12.213104-11.008039-13.678998zm-269.007391-190.793983c5.107055 5.684796 9.43645 12.597866 12.90805 20.431798l.178258.408532 31.928144-.992411c1.267219-.14279 2.550734-.231581 3.848324-.263981 24.721626-.617283 44.499231 19.650036 44.499231 44.588032v11.71792c0 24.815785-19.583146 45.198045-44.178476 44.978552-.754562-.006733-1.504471-.032594-2.249292-.077116l-33.221931-.367996-.290531.693812c-3.386515 7.978254-7.633671 15.057965-12.657224 20.926383l-.47323.546606c-10.014854 11.437334-22.95167 17.974072-37.207359 17.396265l-.424656-.024066-64.715744-2.616179c-.115566-.004673-.23087-.010319-.345904-.016932l-.218352-.014889-.861922-.025984c-18.121201-.734482-33.783623-11.819831-44.442155-29.065911-9.461274-15.30885-14.683923-34.999351-14.683923-55.536354 0-44.098474 23.925652-83.26994 58.744287-85.348403.285116-.01702.570207-.031325.855251-.042916l.220713-.018315.348233-.023785 65.552082-3.913065c.122826-.007332.245718-.01353.368658-.018594 13.93859-.574129 26.632692 5.673772 36.519468 16.678997zm295.377208-.612887c4.582902 5.097574 8.484795 11.234698 11.645322 18.159072l.040102.090641 27.774405-.863048c1.056538-.107435 2.12477-.17538 3.203283-.20231 23.364982-.583408 42.068533 18.455777 42.262334 41.929008.160927 1.605856.254337 3.231545.276706 4.871786l.005272.773432c0 1.900925-.095294 3.784439-.281672 5.642597l-.000328-.134916-.004019.546228c-.366563 23.200357-18.81038 42.154023-41.937537 41.947633-.696888-.006219-1.389584-.029614-2.077709-.069779l-28.634735-.319082-.13089.306343c-3.077826 7.042946-6.8967 13.319658-11.392906 18.574681l-.467538.539968c-9.433697 10.765661-21.688013 16.952965-35.227654 16.404587l-.388012-.022128-58.728707-2.372196c-.115569-.004669-.230876-.010313-.345913-.016922l-.17438-.011882-.774189-.023625c-16.944445-.686277-31.546131-10.894307-41.511554-26.72781l-.316469-.50723c-8.775389-14.188551-13.605788-32.386714-13.605788-51.348619 0-40.858913 22.276558-77.303481 55.0523-79.258548l.7697-.038168.174557-.015159.348245-.023771 59.490515-3.548599c.122736-.007321.245537-.013511.368388-.018567 13.240894-.544988 25.270406 5.371431 34.588871 15.736383zm-331.073576 3.916946-65.552082 3.913064.000131.040607c-.472732.001213-.947554.015949-1.424328.044409-22.056069 1.316615-39.936045 30.590003-39.936045 65.383942s17.879976 63.724704 39.936045 64.618672c.476774.019325.951596.024962 1.424328.017116l-.000131.040609 65.551692 2.650406-.40931-.01008c10.873578.440724 20.705718-7.158078 27.76769-19.824946l-11.855286-.131703c-22.760843-.252652-39.521671-20.643555-39.521671-44.018532v-9.73661c0-23.240242 16.548457-43.703049 39.1228-44.404166l11.624734-.361567c-6.920199-11.714829-16.336426-18.649273-26.728567-18.221221zm297.307197.329751-59.490515 3.5486.000119.036825c-.429019.0011-.859935.014463-1.292621.040272-20.016556 1.193984-36.24318 27.740828-36.24318 59.294035s16.226624 57.78934 36.24318 58.600043c.432686.017525.863602.022636 1.292621.015521l-.000119.036827 59.490161 2.403546-.371462-.009141c9.314298.377244 17.786566-5.740871 24.097522-16.088349l-9.894866-.110493c-21.745225-.241378-37.682732-19.630645-37.682732-41.781314v-8.829735c0-22.015934 15.725135-41.460673 37.283861-42.130246l9.712124-.30281c-6.159492-9.528727-14.258732-15.089297-23.144093-14.723581zm-211.24594 36.075477-.39174-.000272c-.13084.001294-.261936.003976-.393281.008055l-2.995731.092565c-11.946278 1.705781-21.22213 12.311818-21.22213 24.9009v11.41096c0 12.993636 9.881596 23.716176 22.381876 24.678423l1.835985.019512c13.134512.145796 23.782139-13.638684 23.782139-30.7885 0-16.806819-10.225981-30.177483-22.997118-30.321643zm-38.235535 1.169761-13.059334.406996-19.041692.591164c-10.904124.338662-19.743663 11.269094-19.743663 24.413805v9.73661c0 13.144711 8.839539 23.898725 19.743663 24.019764l32.426464.360875c-4.490167-7.011653-7.092785-15.360178-7.092785-24.286767v-11.41096c0-8.706701 2.476491-16.888204 6.767347-23.831487zm326.964417-4.194732-.356651.007304-2.722899.084828c-10.830605 1.549684-19.239292 11.166378-19.239292 22.580728v10.348135c0 11.610642 8.700381 21.221668 19.800171 22.33579l2.426515.025429c.781991.008674 1.554269-.037021 2.314742-.134381 10.694983-1.545185 18.987817-13.33712 18.987817-27.750124 0-15.24142-9.273525-27.36673-20.85515-27.497463zm-36.532005 1.13149-26.898105.834756c-9.888506.307118-17.904724 10.219482-17.904724 22.139885v8.829735c0 11.920403 8.016218 21.672781 17.904724 21.782547l17.749168.196879c.00315-.012385.006297-.024772.009443-.037162l9.417365.104886c-3.851423-6.422488-6.064708-13.946922-6.064708-21.962021v-10.348135c0-7.81849 2.1065-15.190446 5.786837-21.54137z"/></svg>