<svg width="960" height="960" viewBox="0 0 960 960" fill="none" xmlns="http://www.w3.org/2000/svg">
<path d="M504.9 22.8022C567.963 7.31905 634.802 -2.00627 683.826 10.2124C706.805 15.9396 722.011 31.4433 731.019 49.3892C739.816 66.916 743.101 87.3182 743.101 106.009V292C743.101 294.806 742.51 297.582 741.367 300.145L726.601 333.257V615.889L737.839 646.008C738.673 648.245 739.101 650.612 739.101 653V875.5C739.101 888.268 733.243 898.782 725.59 906.681C718.13 914.381 708.32 920.355 697.896 925.063C677 934.5 649.394 940.728 620.028 943.944C561.538 950.349 489.559 945.456 438.353 923.938C391.669 904.321 347.835 884.656 314.18 850.863C279.73 816.272 257.609 768.784 249.234 696.811C236.348 586.07 222.455 353.927 217.128 252.044C217.126 252.003 217.124 251.962 217.122 251.92C215.212 210.473 235.621 119.448 332.024 79.9897C377.005 61.579 440.879 38.521 504.9 22.8022ZM674.152 49.0259C635.385 39.3635 576.925 46.3071 514.438 61.6489C452.911 76.7553 390.985 99.0783 347.177 117.009C271.612 147.938 255.669 219.132 257.077 250.04C262.42 352.2 276.257 582.959 288.967 692.188C296.592 757.715 315.972 795.977 342.521 822.636C369.866 850.093 406.532 867.179 453.849 887.062C496.642 905.044 561.164 910.151 615.674 904.181C642.808 901.21 665.827 895.656 681.432 888.609C689.257 885.075 694.166 881.63 696.862 878.847C698.143 877.525 698.696 876.587 698.92 876.104C699.111 875.691 699.101 875.541 699.101 875.5V671.287C655.144 685.639 602.574 693.233 551.819 696.817C491.084 701.105 432.049 699.708 391.709 696.847C376.852 695.793 365.457 683.892 364.39 669.36L338.354 314.739C336.997 296.244 352.424 281.164 370.613 282.191C457.155 287.076 614.704 284.344 703.101 281.601V184.281L656.244 206.412C651.8 208.511 646.738 208.9 642.024 207.504L529.925 174.311C514.952 169.877 510.548 150.671 522.332 140.239C523.97 138.789 525.477 137.461 526.683 136.41L526.972 136.163C529.979 133.645 533.625 132.177 537.305 131.752C591.443 125.504 631.137 124.222 659.327 125.386C678.7 126.186 693.075 128.156 703.101 130.668V106.009C703.101 91.4504 700.461 77.6777 695.269 67.3325C690.286 57.4065 683.437 51.34 674.152 49.0259ZM696.83 301.802C607.222 304.474 454.728 306.972 369.486 302.16C363.024 301.795 357.851 307.144 358.301 313.274L384.336 667.895C384.699 672.841 388.499 676.569 393.124 676.897C432.693 679.703 490.77 681.078 550.41 676.867C602.281 673.204 654.662 665.355 696.974 650.912L689.97 632.14C577.9 648.575 484.11 651.247 436.19 650.21C419.946 649.859 407.602 636.449 407.602 620.656V352.991C407.602 334.979 423.16 321.343 440.493 322.189C499.018 325.044 617.228 322.968 688.261 321.024C688.285 320.967 688.31 320.91 688.335 320.854L696.83 301.802ZM686.601 341.078C615.322 343.005 498.262 345.03 439.519 342.165C432.937 341.844 427.602 347.06 427.602 352.991V620.656C427.602 626.03 431.705 630.109 436.623 630.215C483.444 631.228 575.92 628.621 686.601 612.421V341.078ZM658.502 145.369C631.627 144.259 593.037 145.456 539.682 151.611C538.571 152.58 537.187 153.799 535.66 155.15L647.703 188.328L703.101 162.162V151.483C696.316 149.141 682.363 146.354 658.502 145.369Z" fill="black"/>
</svg>
