<svg height="960" viewBox="0 0 960 960" width="960" xmlns="http://www.w3.org/2000/svg"><path d="m120.057185-2.0079926 714.966059 35.522882c29.981034 1.5577544 54.470407 25.5496875 54.470407 56.1558074v757.3924032c0 29.857604-23.366959 53.575725-52.579813 56.04029l-.126195.010446-690.781318 56.076554c-3.730117.302805-7.484272.080641-11.152641-.659991l-29.596086-5.975362c-26.308741-5.303264-46.4357875-27.71795-46.4357875-55.181374v-843.0848507c0-1.5297642.0646419-3.0585444.193583-4.5823623 2.6425406-31.2305014 30.4633833-53.16425269 61.0417915-51.7144426zm-21.184218 55.086955c-.0340921.4028983-.0511565.8064696-.0511565 1.2098499v843.0848507c0 7.610397 5.9965865 14.288259 14.3399195 15.970091l20.571255 4.153202c-.629882-2.147039-.976648-4.408536-.997977-6.750543l-7.894923-866.4685571v-.0911075c0-.7546333.026089-1.4725845.087866-2.1987757.106852-1.2561017.305872-2.4829985.590119-3.6757922l-7.445819-.369453c-9.856641-.4672984-18.4524533 6.3099193-19.199284 15.1362349zm45.983008-9.3957495c-.01589.1166665-.01589.2808374-.01589.5035355l7.894094 866.3774906c.028863 3.169351 3.505911 6.306019 8.18043 6.369783h.05107c.299871 0 .537399-.010545.720238-.021595l.103201-.007111 678.330533-55.442769c5.621489-2.721308 9.374-8.15851 9.374-14.399447v-757.3924032c0-8.6587553-7.212334-15.7247363-16.545927-16.209691l-685.411202-34.0548076c-1.544326 1.1243107-2.543855 2.6701355-2.680547 4.2770147zm160.025487 123.3979971 484.453363 18.070823c15.014771.560074 27.378131 11.089033 30.816954 25.075395.959153 3.193434 1.473746 6.576469 1.473746 10.076117v506.155512c0 2.57342-.278551 5.084887-.807826 7.504898-2.044472 15.452308-14.800755 27.633128-30.762083 28.578378l-478.486684 28.336586c-1.630604.096567-3.265969.078864-4.8941-.052979l-29.249874-2.368595c-18.031458-1.460151-31.978992-16.421002-32.173006-34.510443l-5.878872-547.941268c-.189168-17.828206 13.051873-32.950811 30.749113-35.116257l29.203706-3.573385c1.842697-.225473 3.700412-.303982 5.555563-.234782zm2.708602 20.842273c-8.284271 0-15 6.715729-15 15v551.570641c0 .292307.008545.584552.025622.87636.484001 8.27012 7.580618 14.582018 15.850739 14.098017l133.707386-7.825337v-568.847l-134.039884-4.862818c-.181213-.009863-.362531-.009863-.543863-.009863zm-32.714825 2.533963-2.323949.28387c-7.584532.928048-13.259264 7.409165-13.178192 15.049824l5.877703 547.941269c.068581 6.394335 4.14704 11.876521 9.910111 13.952356-1.40788-3.461496-2.280639-7.208539-2.511063-11.145801-.039848-.680885-.059785-1.36279-.059785-2.04484v-551.570641c0-4.391149.808657-8.593426 2.285175-12.466037zm187.298572 3.064718v566.95l218.111-12.764v-546.273zm238.111 8.639v544.376l87.217075-5.10373c6.534604-.382431 11.889837-4.908207 13.572427-10.933873.020065-.297065.030419-.597137.030419-.899511v-511.470951c0-.903151-.092274-1.78541-.268045-2.637663-1.945482-5.745598-7.280352-9.946301-13.667299-10.178028zm-113.284811 54.838836v14h-15v-14z"/></svg>