<svg height="960" viewBox="0 0 960 960" width="960" xmlns="http://www.w3.org/2000/svg"><path d="m338.731169 167c.819978 0 1.639892.014408 2.459364.043217l527.654979 18.549962c3.635826.127819 7.256155.538887 10.828083 1.229469l20.809749 4.023268c32.232546 6.231704 55.516656 34.448637 55.516656 67.278062v462.570883c-.617521 37.810582-31.221927 68.398988-69.173427 68.847158l-546.839573 6.456981-208.20785 4.980981c-.557893.013346-1.115925.020019-1.673978.020019h-46.105172l-1.157578-.009378c-38.1260218-.618155-68.842422-31.717289-68.842422-69.990622v-137.309l-.101759-.204336c-3.1582474-6.502071-4.898241-13.75983-4.898241-21.327464v-304.69974c.08196085-7.38049 1.778504-14.475265 4.8153972-20.877819l.1856028-.385641-.001-4.824909c0-36.188183 27.5864841-66.411938 63.6265421-69.707051l47.8325159-4.373286c2.118963-.193735 4.245657-.290754 6.373458-.290754zm93.483723 61.854954v297.722129c0 41.145326-33.354877 74.500204-74.500204 74.500204-.657302 0-1.314576-.008699-1.971648-.026095l-64.059559-1.69593c-1.26494-.033488-2.530519-.03535-3.795551-.005583l-193.0189593 4.544634h-30.65861c-2.7141246 0-5.1757045-1.081273-6.9774728-2.836552-1.0937724-.008097-2.1725584-.077803-3.2336934-.204935l.0008055 130.147174c0 16.568542 13.4314575 30 30 30h46.105172c.239166 0 .478322 0 .717419-.008579l208.25418-4.981608c.121044-.002895.242104-.005058.363174-.006488l140.624706-1.661572c.339887-.673163.761788-1.31823 1.266937-1.921232 3.365511-4.017446 5.426975-7.288264 6.228728-9.578143.866591-2.475063 1.542859-7.282783 1.835584-14.102307.236847-5.517767 4.901884-9.798798 10.41965-9.56195 5.517767.236847 9.798798 4.901884 9.56195 10.41965-.369825 8.615695-1.285677 15.126672-2.940776 19.853785-.527088 1.505412-1.20001 3.037156-2.017489 4.601977l2.48818-.029492c.366396-.80651.84688-1.577357 1.443484-2.289529 3.36551-4.017446 5.426975-7.288264 6.228728-9.578143.866591-2.475063 1.542858-7.282783 1.835583-14.102308.236848-5.517766 4.901884-9.798797 10.419651-9.561949 5.517766.236847 9.798797 4.901884 9.561949 10.41965-.369824 8.615695-1.285677 15.126672-2.940775 19.853784-.568601 1.623974-1.306909 3.278591-2.213325 4.972318l4.809323-.05767c.379674-.911917.901986-1.78259 1.569785-2.579749 3.365511-4.017447 5.426975-7.288265 6.228728-9.578143.866592-2.475064 1.542859-7.282784 1.835584-14.102308.236847-5.517767 4.901884-9.798797 10.41965-9.56195 5.517767.236848 9.798798 4.901884 9.56195 10.419651-.369824 8.615694-1.285677 15.126671-2.940776 19.853784-.600974 1.716437-1.391532 3.467105-2.369782 5.262002l2.569155-.030387c.38726-1.046054.957475-2.04463 1.714802-2.948658 3.36551-4.017447 5.426975-7.288265 6.228728-9.578144.866591-2.475063 1.542859-7.282783 1.835583-14.102307.236848-5.517767 4.901884-9.798798 10.419651-9.56195 5.517766.236847 9.798797 4.901884 9.56195 10.41965-.369825 8.615695-1.285677 15.126672-2.940776 19.853785-.642199 1.834178-1.500883 3.707445-2.573745 5.631999l3.783513-.044995c.385545-1.165752.993749-2.279583 1.830211-3.278077 3.365511-4.017446 5.426975-7.288264 6.228728-9.578143.866591-2.475063 1.542859-7.282783 1.835583-14.102308.236848-5.517766 4.901884-9.798797 10.419651-9.561949 5.517766.236847 9.798797 4.901884 9.56195 10.41965-.369825 8.615695-1.285677 15.126672-2.940776 19.853784-.678864 1.938898-1.599639 3.921476-2.759598 5.962142l3.211323-.038341c.368726-.821754.855496-1.607009 1.462449-2.331536 3.365511-4.017446 5.426975-7.288264 6.228728-9.578143.866592-2.475063 1.542859-7.282783 1.835584-14.102307.236847-5.517767 4.901884-9.798798 10.41965-9.56195 5.517767.236847 9.798798 4.901884 9.56195 10.41965-.369824 8.615695-1.285677 15.126672-2.940776 19.853785-.5732 1.637112-1.318866 3.305365-2.235357 5.013433l2.530135-.029311c.383301-.956059.922018-1.868698 1.619397-2.701166 3.36551-4.017446 5.426975-7.288264 6.228728-9.578143.866591-2.475063 1.542859-7.282783 1.835583-14.102308.236848-5.517766 4.901884-9.798797 10.419651-9.561949 5.517766.236847 9.798797 4.901884 9.56195 10.41965-.369825 8.615695-1.285677 15.126672-2.940776 19.853784-.614551 1.755213-1.427348 3.546221-2.436368 5.383715l2.59184-.031111c.387545-1.090037.972228-2.130824 1.758702-3.069647 3.365511-4.017446 5.426975-7.288264 6.228728-9.578143.866592-2.475063 1.542859-7.282783 1.835584-14.102308.236847-5.517766 4.901884-9.798797 10.41965-9.561949 5.517767.236847 9.798798 4.901883 9.56195 10.41965-.369824 8.615694-1.285677 15.126672-2.940776 19.853784-.655594 1.872437-1.536799 3.785611-2.64116 5.752499l2.673897-.032082c.381918-1.223575 1.006931-2.393552 1.881438-3.43746 3.36551-4.017446 5.426975-7.288264 6.228728-9.578143.866591-2.475063 1.542859-7.282783 1.835583-14.102308.236848-5.517766 4.901884-9.798797 10.419651-9.56195 5.517766.236848 9.798797 4.901884 9.56195 10.419651-.369825 8.615694-1.285677 15.126672-2.940776 19.853784-.696497 1.989259-1.647635 4.024497-2.85047 6.121273l163.236094-1.927168c15.684814-.185223 28.441478-12.382693 29.565284-27.784302-3.30883 1.270729-6.843481 1.957348-10.543444 1.957348-7.921782 0-15.085759-3.147507-20.895296-8.423317-4.419775-4.013728-7.973366-9.168298-10.767795-15.168102-4.87179-10.460019-7.475587-23.677458-7.475587-37.500449 0-13.822992 2.603797-27.040431 7.475587-37.500449 2.794429-5.999805 6.34802-11.154375 10.767795-15.168102 5.809537-5.275811 12.973514-8.423317 20.895296-8.423317 3.730529 0 7.293003.69801 10.625112 1.98759l-.000497-9.414659c-.015362.000069-.030732.000104-.04611.000104h-84.177422c-31.030682 0-56.18602-25.155338-56.18602-56.18602v-303.139405c0-5.240616-2.603727-9.873098-6.588125-12.674391l-44.86333-1.576556c.741665 1.477343 1.35716 2.922189 1.845529 4.339975 1.642631 4.768736 2.555494 11.333676 2.924343 20.006706.234666 5.51786-4.04821 10.181203-9.566069 10.415868-5.51786.234665-10.181203-4.04821-10.415868-9.56607-.293701-6.905988-.972957-11.790926-1.852016-14.342928-.818848-2.377204-2.904631-5.762651-6.297903-9.925858-.460541-.565037-.849114-1.16523-1.166853-1.789478l-2.303718-.081644c.65883 1.34649 1.211999 2.666171 1.658773 3.963205 1.642631 4.768736 2.555495 11.333676 2.924344 20.006706.234665 5.51786-4.04821 10.181203-9.56607 10.415868s-10.181203-4.04821-10.415868-9.56607c-.2937-6.905988-.972957-11.790926-1.852016-14.342928-.818847-2.377204-2.904631-5.762651-6.297903-9.925858-.367067-.450354-.688416-.923042-.96462-1.412442l-2.324238-.082357c.57945 1.216313 1.071985 2.410906 1.477061 3.586882 1.642631 4.768736 2.555494 11.333676 2.924344 20.006706.234665 5.51786-4.048211 10.181203-9.56607 10.415868-5.51786.234665-10.181203-4.04821-10.415868-9.56607-.2937-6.905988-.972957-11.790926-1.852016-14.342928-.818848-2.377204-2.904631-5.762651-6.297903-9.925858-.271614-.333243-.518196-.678714-.739977-1.034136l-2.371527-.083197c.503245 1.086253.936611 2.155314 1.299706 3.209416 1.642632 4.768736 2.555495 11.333676 2.924344 20.006706.234665 5.51786-4.04821 10.181203-9.56607 10.415868s-10.181203-4.04821-10.415868-9.56607c-.2937-6.905988-.972957-11.790926-1.852016-14.342928-.818847-2.377204-2.904631-5.762651-6.297903-9.925858-.174097-.213599-.337909-.432223-.491499-.655271l-3.083498-.107519c.704999 1.420007 1.293017 2.810081 1.7632 4.175072 1.642631 4.768736 2.555494 11.333676 2.924344 20.006706.234665 5.51786-4.048211 10.181203-9.56607 10.415868-5.51786.234665-10.181203-4.04821-10.415868-9.56607-.2937-6.905988-.972957-11.790926-1.852016-14.342928-.818848-2.377204-2.904631-5.762651-6.297903-9.925858-.420272-.515631-.780612-1.060538-1.08188-1.626287l-3.454466-.121621c.632468 1.303811 1.165605 2.582544 1.598744 3.839991 1.642631 4.768736 2.555494 11.333676 2.924343 20.006706.234666 5.51786-4.04821 10.181203-9.566069 10.415868-5.51786.234665-10.181203-4.04821-10.415868-9.56607-.293701-6.905988-.972957-11.790926-1.852016-14.342928-.818848-2.377204-2.904631-5.762651-6.297903-9.925858-.336164-.412439-.633984-.84361-.8939-1.289194l-2.33623-.081772c.554071 1.173588 1.027012 2.327006 1.418332 3.463049 1.642631 4.768736 2.555495 11.333676 2.924344 20.006706.234665 5.51786-4.04821 10.181203-9.56607 10.415868s-10.181203-4.04821-10.415868-9.56607c-.2937-6.905988-.972957-11.790926-1.852016-14.342928-.818847-2.377204-2.904631-5.762651-6.297903-9.925858-.239964-.294412-.460391-.598369-.661438-.910301l-4.682551-.165689c.495108 1.072038.922095 2.127346 1.280582 3.168073 1.642632 4.768736 2.555495 11.333676 2.924344 20.006706.234666 5.51786-4.04821 10.181203-9.56607 10.415868-5.517859.234665-10.181202-4.04821-10.415868-9.56607-.2937-6.905988-.972956-11.790926-1.852015-14.342928-.818848-2.377204-2.904632-5.762651-6.297904-9.925858-.16294-.199911-.316872-.404224-.461845-.612445l-2.459106-.086955c.422915.942841.79272 1.872842 1.109154 2.791483 1.642631 4.768736 2.555494 11.333676 2.924344 20.006706.234665 5.51786-4.04821 10.181203-9.56607 10.415868s-10.181203-4.04821-10.415868-9.56607c-.2937-6.905988-.972957-11.790926-1.852016-14.342928-.818848-2.377204-2.904631-5.762651-6.297903-9.925858-.062574-.076771-.123819-.154192-.183738-.232233l-53.26767-1.872743c2.830074 5.64447 4.420488 12.012802 4.420488 18.742849zm-187.766522 376.056578c39.28045 0 72.832401 26.095962 72.832401 61.091868s-33.551951 61.091868-72.832401 61.091868c-39.280451 0-72.832402-26.095962-72.832402-61.091868 0-10.547157 3.047573-20.28592 8.381051-28.745545 3.626984-5.989405 8.397755-11.4305 14.125922-16.108261 1.381677-1.128311 2.903436-2.062944 4.522808-2.783169 12.641229-8.494835 28.677517-13.454893 45.802621-13.454893zm0 20c-1.52301 0-3.030969.050123-4.521298.148363 12.206573 9.016343 20.072928 23.869281 20.072928 40.440105 0 17.141957-8.417946 32.445571-21.348751 41.351018 1.902993.161278 3.837599.24425 5.797121.24425 29.178529 0 52.832401-18.397456 52.832401-41.091868s-23.653872-41.091868-52.832401-41.091868zm660.927716-3.377414c-10.57 0-19.138678 18.397456-19.138678 41.091868s8.568678 41.091868 19.138678 41.091868c3.930849 0 7.584915-2.544372 10.624425-6.907897v-68.367943c-3.03951-4.363525-6.693576-6.907896-10.624425-6.907896zm-692.876086 14.465882c-1.61811 0-3.203579.149916-4.744996.437507-4.98183 3.742756-9.020463 8.238516-11.811725 13.252182-2.5411 4.873204-3.943279 10.212318-3.943279 15.810311 0 11.215074 5.627859 21.391101 14.772952 28.859683 1.847531.419503 3.763251.640317 5.727048.640317 15.187831 0 27.5-13.2076 27.5-29.5s-12.312169-29.5-27.5-29.5zm126.231169-429h-206.898653c-.911914 0-1.823355.041579-2.731482.124609l-47.8325159 4.373286c-14.4286967 1.319204-25.6958409 12.709452-27.1170784 26.847364 1.4327496-.210385 2.8978398-.319079 4.3883168-.319079h11.3412084c16.5685425 0 30 13.431457 30 30v299.909746c0 5.74601-1.642282 11.248008-4.5856022 15.940789l192.1220833-4.521501c1.198691-.028206 2.39777-.033935 3.596605-.017187l1.19873.02424 64.059559 1.69593c.480678.012726.961502.01909 1.442348.01909 30.099632 0 54.500204-24.400573 54.500204-54.500204v-297.722129c0-8.67239-5.05585-16.194904-12.416805-19.727459l-60.012905-2.108974c-.351202-.012346-.702594-.018521-1.054013-.018521zm-268.8502041 51.02618h-11.3412084c-1.6349324 0-3.1782263.392352-4.5408612 1.088034l.0001186.224178c-2.988463 1.729188-4.9990139 4.960603-4.9990139 8.661608v304.1592c0 3.506058 2.0409038 6.535438 4.9994941 7.964922l.0002478.233665c1.0690756.452029 2.2444095.701982 3.4781232.701982h6.4673598c1.6227668 0 3.2211554-.394922 4.6571944-1.150676l5.93574-3.123842c3.2856678-1.729171 5.3428056-5.136422 5.3428056-8.849325v-299.909746c0-5.522848-4.4771525-10-10-10zm725.7101841-23.244452v303.139405c0 19.984987 16.201033 36.18602 36.18602 36.18602l84.222831-.000153.001032-168.597147c-1.80072.441003-3.681109.690958-5.634289.726656l-.487438.004447c-7.985886 0-14.779162-3.569862-19.918425-9.152098-3.461386-3.759736-6.116255-8.365778-8.17307-13.647783-3.453318-8.868295-5.279363-19.955224-5.279363-31.53716 0-11.581935 1.826045-22.668865 5.279363-31.537159 2.056815-5.282005 4.711684-9.888047 8.17307-13.647784 5.139263-5.582236 11.932539-9.152097 19.918425-9.152097 2.128184 0 4.17167.253527 6.121727.731103l-.001032-40.174c0-13.665647-9.692294-25.411288-23.109483-28.005311l-20.809749-4.023268c-1.530826-.295963-3.082395-.472136-4.640607-.526915l-73.861984-2.597151c1.303692 3.69456 2.012972 7.669647 2.012972 11.810395zm-558.380095 48.149687c35.283392 0 65.595087 23.575763 65.595087 55.462845 0 31.887083-30.311695 55.462845-65.595087 55.462845-35.283391 0-65.595086-23.575762-65.595086-55.462845 0-31.887082 30.311695-55.462845 65.595086-55.462845zm672.668251 34.63546c-7.384521 0-13.370858 15.373217-13.370858 34.33704 0 18.963824 5.986337 34.337041 13.370858 34.337041 2.206164 0 4.287533-1.372132 6.121764-3.802207v-61.069667c-1.834231-2.430076-3.9156-3.802207-6.121764-3.802207zm-666.95965-14.360199.151705.155921c8.649974 8.921365 13.92864 21.489864 13.92864 35.137403 0 13.608095-5.248198 26.143378-13.853724 35.059959 22.376649-2.262529 39.659865-17.144282 39.659865-35.165699 0-18.081886-17.399395-33.003003-39.886486-35.187584zm-30.919655 6.793324c-.588584 0-1.172416.023188-1.750834.068805-11.079517 6.474829-18.249166 16.799749-18.249166 28.431195s7.169649 21.956366 18.248952 28.431248c.578632.045564 1.162464.068752 1.751048.068752 13.807119 0 25-12.759885 25-28.5s-11.192881-28.5-25-28.5z"/></svg>