<svg height="960" viewBox="0 0 960 960" width="960" xmlns="http://www.w3.org/2000/svg"><path d="m464.925954 6.75002152c2.988199.1566049 5.970948.35223185 8.947864.58676454l1.267848.10452932 103.724 4.23400002 1.005098-.0056302c4.187406-.0052945 8.378902.085719 12.573006.2733512l2.097263.1018691c97.58337 5.1141277 185.064228 61.8486219 245.713612 154.3013335 58.842871 89.6989 88.652072 207.165916 82.218295 329.929705-12.441586 237.3996-157.224859 430.980878-338.817056 446.655432l-4.409218.335939-.286429.063038c-1.562652.330294-3.159882.570022-4.786097.713358l-.611179.049221-120.652878 8.80107c-1.885435.137534-3.747482.142607-5.577518.023439l-.407899-.030126-1.163036.047161c-9.386484.34786-18.801974.306215-28.233903-.127834l-2.176886-.107132c-221.414279-11.60383-386.342154-234.09967-372.731426-493.807831 13.6107279-259.708161 200.892259-463.74548814 422.306539-452.14165748zm-382.3613577 454.23509548c-12.5336151 239.155624 137.3971257 441.41959 334.8796837 451.769212 10.945478.573628 21.807305.545668 32.563264-.059674l-.007544.305345 29.492522-2.138053c-149.847889-49.898367-252.962035-236.155637-241.730287-450.470171 10.359332-197.667817 114.96324-361.4307718 252.171018-412.3251071l-17.231466-.6917612c-3.276094-.2797792-6.566031-.5065893-9.869272-.6797048-197.482557-10.3496223-367.7343035 175.1342901-380.2679187 414.2899141zm499.4758187-409.3085121-5.056357.0152752c-165.93585 2.301848-307.294027 181.6277189-319.249232 409.7466159-12.324953 235.17412 117.54836 433.15041 290.080164 442.192418 9.855667.516514 19.637341.405338 29.323611-.307337.781922-.05753 1.563444-.118998 2.344332-.184374l-2.344332.184374c1.670966-.122943 3.339093-.263785 5.00427-.422394l-2.659938.23802c1.652125-.138316 3.301414-.294125 4.947763-.467298l-2.287825.229278c1.65421-.157564 3.305509-.33266 4.95379-.525157l-2.665965.295879c1.657171-.174311 3.311362-.366213 4.962463-.575574l-2.296498.279695c1.689597-.197322 3.376024-.412928 5.059163-.646677l-2.762665.366982c1.624788-.206025 3.246585-.428956 4.865286-.668667l-2.102621.301685c1.666238-.2314 3.329254-.480581 4.988936-.747403l-2.886315.445718c1.652423-.244705 3.301621-.506896 4.947482-.786438l-2.061167.34072c1.628938-.261879 3.254665-.540753 4.877073-.836491l-2.815906.495771c1.633644-.277467 3.264-.572028 4.890963-.883552l-2.075057.387781c1.649489-.300673 3.295548-.618779 4.938065-.954179l-2.863008.566398c1.629252-.311962 3.2551-.640935 4.877436-.986785l-2.014428.420387c1.776448-.362749 3.548753-.745729 5.316773-1.148765l-3.302345.728378c1.609636-.343143 3.215815-.7029 4.81843-1.079142l-1.516085.350764c3.735114-.851453 7.451106-1.792421 11.14664-2.821273.522962-.145595 1.045382-.292913 1.567389-.441984l-1.567389.441984c1.605045-.446851 3.20623-.91028 4.803448-1.390153l-3.236059.948169c1.659531-.47392 3.314886-.965571 4.965943-1.474805l-1.729884.526636c1.585257-.47628 3.166606-.968758 4.743939-1.477305l-3.014055.950669c1.66208-.512633 3.319805-1.043086 4.97305-1.591205l-1.958995.640536c1.579905-.509375 3.15578-1.034871 4.72752-1.576356l-2.768525.93582c1.603305-.531563 3.202397-1.079741 4.797163-1.644397l-2.028638.708577c1.57674-.543208 3.149318-1.102506 4.717625-1.677764l-2.688987.969187c1.570799-.55617 3.137401-1.128325 4.699698-1.716335l-2.010711.747148c1.571212-.576322 3.138136-1.168662 4.700664-1.776886l-2.689953 1.029738c1.581526-.595248 3.158641-1.206742 4.731232-1.834346l-2.041279.804608c1.538217-.598761 3.072174-1.212915 4.601767-1.842336l-2.560488 1.037728c1.5822-.631438 3.159821-1.279183 4.732749-1.943096l-2.172261.905368c1.558624-.641367 3.112718-1.298586 4.662169-1.971521l-2.489908 1.066153c1.521064-.642023 3.037741-1.299164 4.549925-1.971298l-2.060017.905145c1.542149-.669764 3.0797-1.355096 4.612544-2.055865l-2.552527 1.15072c1.560273-.693509 3.115764-1.402979 4.66636-2.128272l-2.113833.977552c1.512394-.69142 3.020206-1.397867 4.523332-2.119213l-2.409499 1.141661c1.523974-.71284 3.04322-1.440966 4.55763-2.184244l-2.148131 1.042583c1.527206-.732902 3.049574-1.481184 4.566996-2.244714l-2.418865 1.202131c1.520935-.74648 3.036992-1.508244 4.548062-2.285159l-2.129197 1.083028c1.508971-.759277 3.01305-1.533632 4.512129-2.322933l-2.382932 1.239905c1.504325-.773446 3.003708-1.561908 4.49804-2.365253l-2.115108 1.125348c1.50088-.790249 2.996748-1.595479 4.487497-2.41556l-2.372389 1.290212c1.49605-.804269 2.987037-1.623455 4.472855-2.457428l-2.100466 1.167216c1.493659-.821682 2.982179-1.658271 4.465451-2.509636l-2.364985 1.34242c1.487307-.834807 2.969433-1.684431 4.446271-2.548737l-2.081286 1.206317c1.487229-.853636 2.969182-1.722126 4.44575-2.605337l-2.364464 1.39902c1.46217-.855722 2.919155-1.725837 4.370852-2.610216l-2.006388 1.211196c1.516479-.907084 3.027278-1.829694 4.532278-2.767687l-2.52589 1.556491c1.458723-.888659 2.912106-1.791722 4.360042-2.709057l-1.834152 1.152566c1.427975-.889986 2.850729-1.79382 4.268161-2.711377l-2.434009 1.558811c1.472813-.933095 2.939991-1.880958 4.401422-2.843451l-1.967413 1.28464c1.431572-.926711 2.857715-1.867421 4.278326-2.822002l-2.310913 1.537362c1.441751-.949531 2.877908-1.913302 4.308363-2.891179l-1.99745 1.353817c1.52237-1.022959 3.038387-2.061848 4.547922-3.116509l-2.550472 1.762692c1.418639-.969799 2.831671-1.953474 4.238991-2.950895l-1.688519 1.188203c1.531036-1.069684 3.055403-2.155593 4.572969-3.257563l-2.88445 2.06936c1.413947-1.002118 2.822129-2.018113 4.224438-3.047854l-1.339988.978494c1.601827-1.163156 3.196076-2.344207 4.782589-3.54296l-3.442601 2.564466c1.412178-1.036988 2.818401-2.087917 4.218559-3.152653l-.775958.588187c1.65453-1.250146 3.300646-2.519544 4.938171-3.807976l-4.162213 3.219789c2.028807-1.542785 4.044882-3.114559 6.047892-4.714917l-1.885679 1.495128c1.37269-1.080056 2.739342-2.173486 4.099851-3.280163l-2.214172 1.785035c1.402844-1.120839 2.79928-2.255699 4.189195-3.404441l-1.975023 1.619406c1.373125-1.116939 2.739994-2.247371 4.100497-3.391164l-2.125474 1.771758c1.309732-1.082472 2.613673-2.17727 3.911728-3.284279l-1.786254 1.512521c1.377736-1.158282 2.748945-2.330265 4.113514-3.515812l-2.32726 2.003291c1.314452-1.120993 2.622869-2.254506 3.925152-3.400419l-1.597892 1.397128c1.345935-1.169358 2.68541-2.351912 4.018318-3.547531l-2.420426 2.150403c1.402292-1.233914 2.797472-2.482205 4.185415-3.744723l-1.764989 1.59432c1.310513-1.17553 2.614677-2.36369 3.91239-3.564353l-2.147401 1.970033c1.361346-1.238324 2.71573-2.490333 4.063037-3.755887l-1.915636 1.785854c1.326826-1.227598 2.646907-2.468268 3.960135-3.721874l-2.044499 1.93602c1.299853-1.22098 2.593118-2.454566 3.87969-3.700631l-1.835191 1.764611c1.307359-1.248004 2.607925-2.508829 3.901591-3.782343l-2.0664 2.017732c1.299812-1.258888 2.592793-2.530513 3.878836-3.814744l-1.812436 1.797012c1.297994-1.277775 2.589041-2.568325 3.873033-3.871515l-2.060597 2.074503c1.283164-1.281356 2.559421-2.575262 3.828664-3.881586l-1.768067 1.807083c1.280176-1.299319 2.553338-2.611203 3.819378-3.935521l-2.051311 2.128438c1.274149-1.311373 2.541229-2.635261 3.801131-3.97153l-1.74982 1.843092c1.254364-1.312103 2.501736-2.636412 3.742011-3.972798l-1.992191 2.129706c1.271146-1.348194 2.534985-2.708991 3.791408-4.082256l-1.799217 1.95255c1.260021-1.35766 2.512717-2.727786 3.757979-4.11024l-1.958762 2.15769c1.231001-1.34548 2.454882-2.702928 3.671539-4.072216l-1.712777 1.914526c1.233723-1.369644 2.460149-2.751391 3.67917-4.145107l-1.966393 2.230581c1.236843-1.392007 2.46622-2.796251 3.68802-4.212597l-1.721627 1.982016c1.216119-1.390399 2.424868-2.792712 3.626142-4.206808l-1.904515 2.224792c1.215126-1.408609 2.422759-2.829188 3.622789-4.261605l-1.718274 2.036813c1.212212-1.426973 2.416811-2.865945 3.613689-4.316781l-1.895415 2.279968c1.194054-1.425283 2.380582-2.862286 3.559476-4.310879l-1.664061 2.030911c1.227635-1.488122 2.447147-2.988727 3.658416-4.50167l-1.994355 2.470759c1.16581-1.432514 2.324155-2.876362 3.474932-4.331419l-1.480577 1.86066c1.16746-1.458223 2.327263-2.927908 3.479304-4.408926l-1.998727 2.548266c1.191401-1.50642 2.37469-3.024853 3.549754-4.55516l-1.551027 2.006894c1.14032-1.465949 2.273034-2.943002 3.39804-4.431033l-1.847013 2.424139c1.144631-1.490673 2.281457-2.992614 3.410373-4.505691l-1.56336 2.081552c1.193149-1.578161 2.377627-3.168671 3.553314-4.771379l-1.989954 2.689827c1.13402-1.519919 2.260059-3.051077 3.378008-4.593342l-1.388054 1.903515c1.135516-1.547947 2.26283-3.107273 3.381833-4.677844l-1.993779 2.774329c1.125152-1.552201 2.242111-3.115653 3.350767-4.690223l-1.356988 1.915894c1.131329-1.587872 2.254163-3.187238 3.368386-4.797957l-2.011398 2.882063c1.104759-1.569035 2.201273-3.14911 3.289435-4.740092l-1.278037 1.858029c1.218584-1.761582 2.426869-3.536745 3.624706-5.325305l-2.346669 3.467276c1.330763-1.945685 2.649033-3.907682 3.954615-5.885751.824444-1.249107 1.643675-2.504384 2.457798-3.766007l-2.457798 3.766007c1.159416-1.756617 2.308826-3.525908 3.448089-5.307703l-.990291 1.541696c1.049838-1.626904 2.091183-3.26436 3.123927-4.912238l-2.133636 3.370542c1.156622-1.808945 2.302787-3.630779 3.438351-5.465324l-1.304715 2.094782c1.030082-1.643631 2.051608-3.297629 3.064472-4.961866l-1.759757 2.867084c1.062388-1.716329 2.115498-3.443785 3.159209-5.182223l-1.399452 2.315139c1.02467-1.683634 2.040474-3.377747 3.047304-5.082204l-1.647852 2.767065c1.011304-1.684459 2.013784-3.379228 3.007333-5.084175l-1.359481 2.31711c1.006197-1.703387 2.003431-3.417105 2.991593-5.141021l-1.632112 2.823911c.977646-1.677658 1.946645-3.365171 2.906893-5.062413l-1.274781 2.238502c.98535-1.719011 1.961679-3.448163 2.928878-5.187321l-1.654097 2.948819c.994487-1.75776 1.979589-3.525955 2.95519-5.304447l-1.301093 2.355628c.950114-1.708438 1.891419-3.426532 2.823811-5.154157l-1.522718 2.798529c.971469-1.770957 1.933519-3.552124 2.886036-5.343361l-1.363318 2.544832c.954593-1.768762 1.899843-3.547514 2.835642-5.336121l-1.472324 2.791289c.93329-1.75508 1.857429-3.519828 2.772311-5.294115l-1.299987 2.502826c.921716-1.761692 1.834262-3.532945 2.737533-5.31363l-1.437546 2.810804c.927368-1.798503 1.845224-3.606806 2.753458-5.424776l-1.315912 2.613972c.915392-1.80458 1.821258-3.618846 2.717488-5.442666l-1.401576 2.828694c.895635-1.792749 1.781913-3.594899 2.658728-5.406318l-1.257152 2.577624c.894053-1.81939 1.778517-3.648286 2.653283-5.486556l-1.396131 2.908932c.870804-1.799 1.732274-3.607143 2.584306-5.424303l-1.188175 2.515371c.888123-1.866336 1.766249-3.742333 2.634265-5.627854l-1.44609 3.112483c.864566-1.843888 1.719414-3.69706 2.564437-5.559383l-1.118347 2.4469c.848987-1.844185 1.688302-3.697479 2.517839-5.559753l-1.399492 3.112853c.841268-1.854046 1.672797-3.717163 2.494482-5.589218l-1.09499 2.476365c.835951-1.876673 1.661973-3.762464 2.477955-5.657241l-1.382965 3.180876c.832518-1.896738 1.65493-3.802652 2.467124-5.717607l-1.084159 2.536731c.806893-1.873672 1.60397-3.75613 2.391125-5.647246l-1.306966 3.110515c.801011-1.888588 1.592085-3.785969 2.373113-5.692014l-1.066147 2.581499c.801182-1.924817 1.592086-3.858602 2.372599-5.801219l-1.306452 3.21972c.787083-1.920817 1.563964-3.850433 2.330535-5.788712l-1.024083 2.568992c.764002-1.901522 1.518049-3.811506 2.262036-5.729826l-1.237953 3.160834c.768035-1.941982 1.525721-3.89266 2.272947-5.851902l-1.034994 2.691068c.750878-1.936089 1.49151-3.880668 2.221788-5.833607l-1.186794 3.142539c.741026-1.942983 1.471765-3.894388 2.19211-5.854083l-1.005316 2.711544c.74483-1.991852 1.478889-3.9924 2.202063-6.001505l-1.196747 3.289961c.720309-1.959595 1.430225-3.927479 2.129642-5.903523l-.932895 2.613562c.732234-2.034273 1.453309-4.077319 2.163107-6.128991l-1.230212 3.515429c.700815-1.979994 1.391088-3.968179 2.070712-5.964424l-.8405 2.448995c.718797-2.077686 1.42603-4.164219 2.121575-6.25945l-1.281075 3.810455c.68479-2.011417 1.358767-4.031017 2.021823-6.058664l1.917711-5.984025c.194683-.620057.388351-1.240844.580999-1.862356l-.581074 1.862595c.63752-2.030472 1.264148-4.06876 1.879776-6.114732l-1.298702 4.252137c.664436-2.143563 1.316752-4.295752 1.956823-6.456412l-.658121 2.204275c.61552-2.045612 1.220043-4.098906 1.813462-6.159749l-1.155341 3.955474c.624776-2.10903 1.237885-4.226131 1.839209-6.35116l-.683868 2.395686c.594265-2.063785 1.177395-4.13514 1.74928-6.213933l-1.065412 3.818247c.612597-2.164868 1.212964-4.337963 1.800976-6.519134l-.735564 2.700887c.56127-2.040209 1.111709-4.087582 1.651215-6.141994l-.915651 3.441107c.578933-2.147493 1.14589-4.302814 1.700752-6.465818l-.785101 3.024711c.553729-2.108575 1.09594-4.224565 1.626523-6.347834l-.841422 3.323123c.522298-2.036065 1.03388-4.078938 1.534647-6.128498l-.693225 2.805375c.531829-2.12826 1.051976-4.263835 1.560327-6.406586l-.867102 3.601211c.514997-2.107806 1.018556-4.222685 1.510568-6.344504l-.643466 2.743293c.496897-2.094471.982525-4.195798 1.456779-6.303856l-.813313 3.560563c.506589-2.184687 1.000938-4.376732 1.482928-6.575992l-.669615 3.015429c.474022-2.10703.936682-4.220783 1.387874-6.341132l-.718259 3.325703c.467679-2.133964.923723-4.27472 1.368025-6.422138l-.649766 3.096435c.460738-2.165202.909518-4.337282 1.346229-6.516104l-.696463 3.419669c.451251-2.181009.890389-4.368889 1.317302-6.563504l-.620839 3.143835c.433663-2.16361.855426-4.333868 1.265179-6.510641l-.64434 3.366806c.411602-2.115904.81184-4.238068 1.200612-6.366369l-.556272 2.999563c.413194-2.19505.814177-4.396725 1.202837-6.604889l-.646565 3.605326c.393313-2.153151.77489-4.312583 1.14463-6.478168l-.498065 2.872842c.386298-2.194746.760423-4.395901 1.122264-6.603333l-.624199 3.730491c.37647-2.205007.740667-4.416393 1.092481-6.634023l-.468282 2.903532c.360932-2.201878.709642-4.41 1.046023-6.624234l-.577741 3.720702c.348838-2.198879.685502-4.403897 1.009884-6.614924l-.432143 2.894222c.337398-2.220931.662391-4.44801.974871-6.681105l-.542728 3.786883c.326234-2.223657.640046-4.453391.941326-6.689068l-.398598 2.902185c.305291-2.181717.598637-4.369176.879936-6.562252l-.481338 3.660067c.303848-2.25474.59495-4.515525.873194-6.782218l-.391856 3.122151c.286018-2.229864.559582-4.465535.820584-6.706882l-.428728 3.584731c.272657-2.221191.532968-4.448055.780825-6.680464l-.352097 3.095733c.272052-2.336239.530457-4.678644.775092-7.027066l-.422995 3.931333c.250146-2.253022.487608-4.511691.712278-6.775875l-.289283 2.844542c.252624-2.425114.490565-4.856644.713688-7.294428l-.424405 4.449886c.221241-2.229632.430078-4.464613.626406-6.704814l-.202001 2.254928c.202549-2.212999.392888-4.431152.570916-6.654335l-.368915 4.399407c.201617-2.300541.390042-4.606587.565164-6.918004l-.196249 2.518597c.209491-2.616093.401936-5.239151.57717-7.868976l-.380921 5.350379c.172567-2.277683.332216-4.56058.47884-6.848559l-.097919 1.49818c.18576-2.787791.352181-5.583185.499067-8.385945 12.324954-235.174121-117.548359-433.1504104-290.080163-442.1924191l-4.930045-.206336c-.159355-.0049872-.318689-.0098106-.478003-.0144704-1.627297-.0475942-3.25216-.0781082-4.874791-.0916696l4.874791.0916696c-1.668659-.048806-3.335071-.0796552-4.999132-.0926756z"/></svg>