<svg width="960" height="960" viewBox="0 0 960 960" fill="none" xmlns="http://www.w3.org/2000/svg">
<path d="M190.925 30.3748C216.775 19.3798 244.947 14.9619 272.922 17.5164L459.818 34.5828C470.116 35.5231 478 44.1589 478 54.4998V861.611C478 897.655 450.629 927.808 414.753 931.285L274.194 944.907C243.748 947.858 213.053 943.001 185.005 930.795L157.087 918.645C124.242 904.352 103 871.942 103 836.122V80.9998C103 72.9794 107.791 65.7347 115.172 62.5955L190.925 30.3748ZM602.635 44.0828C607.939 44.0828 614.122 45.5345 619.46 50.0134C624.506 54.2477 626.766 59.5039 627.844 63.2039C629.688 69.537 629.5 77.0676 629.5 80.5876V391.117C631.982 390.869 634.217 390.696 635.974 390.607L696.991 387.526C697.89 387.481 698.785 387.497 699.671 387.571C701.663 387.435 703.674 387.381 705.7 387.416H705.701L838.21 389.434L841.318 102.69C841.355 99.3226 841.232 92.1492 842.768 86.2957C843.652 82.9236 845.605 77.6704 850.393 73.2917C855.642 68.4909 861.936 66.8602 867.381 66.8601C873.69 66.8601 880.197 69.2306 885.075 74.5457C889.213 79.0544 890.727 84.1397 891.384 87.0955C892.615 92.6336 892.5 99.3301 892.5 103.093V425.79C895.716 433.154 897.5 441.282 897.5 449.79V832.427C897.5 863.487 873.795 889.413 842.859 892.187L710.753 904.036C699.825 905.016 689.24 903.424 679.62 899.76C679.553 899.742 679.484 899.724 679.417 899.705L622.251 883.088C596.626 875.638 579 852.159 579 825.472V802.96C565.485 792.46 555.5 772.088 555.5 742.501C555.5 710.685 566.59 688.744 579 676.576V508.705C578.342 507.76 577.674 506.742 577.02 505.652C573.877 500.422 570.091 492.081 570.195 481.94L574.327 80.2068C574.376 75.4626 574.64 67.8938 577.468 61.074C579.043 57.2741 581.804 52.7135 586.653 49.1697C591.686 45.4918 597.36 44.0828 602.635 44.0828ZM269.285 57.3503C247.892 55.3969 226.348 58.7753 206.58 67.1833L143 94.2263V836.122C143 856.022 154.801 874.028 173.048 881.969L200.966 894.118C211.99 898.916 223.541 902.253 235.326 904.085C225.409 893.569 219.216 879.445 219.006 863.768L219 862.942V470.642C219 431.636 250.883 400.154 289.887 400.648L416.54 402.253C424.466 402.353 431.83 404.755 438 408.817V338.346C429.452 344.768 418.79 348.513 407.276 348.344L406.617 348.33L280.299 344.836C248.049 343.944 222.277 317.708 221.96 285.448L220.75 162.329C220.347 121.285 255.182 88.7032 296.107 91.8464L421.063 101.444C427.221 101.917 432.964 103.767 438 106.678V72.7556L269.285 57.3503ZM289.634 420.646C261.774 420.293 239 442.781 239 470.642V862.942C239 886.489 259.239 904.942 282.686 902.772L409.669 891.023C425.125 889.593 436.938 876.609 436.905 861.088L436.033 442.209C436.01 431.278 427.217 422.39 416.287 422.252L289.634 420.646ZM704.229 427.406C687.821 427.546 674.5 440.897 674.5 457.405V834.315C674.5 850.551 687.332 863.563 703.076 864.285C704.42 864.345 705.79 864.32 707.18 864.195L839.286 852.347C849.598 851.423 857.5 842.781 857.5 832.427V449.79C857.5 449.316 857.482 448.845 857.45 448.381C857.446 448.32 857.442 448.259 857.438 448.199C857.411 447.857 857.374 447.518 857.33 447.181C857.27 446.72 857.195 446.264 857.104 445.813C857.102 445.803 857.101 445.792 857.099 445.782C855.268 436.783 847.391 429.964 837.858 429.793L705.096 427.411H705.092L705.038 427.41C704.767 427.405 704.497 427.404 704.229 427.406ZM637.991 430.556C636.167 430.648 632.983 430.923 629.5 431.368V482.344C629.5 491.363 625.408 499.404 619 504.746V825.472C619 834.368 624.875 842.194 633.417 844.677L657.603 851.708C655.598 846.303 654.5 840.447 654.5 834.315V457.405C654.5 446.97 657.695 437.292 663.151 429.285L637.991 430.556ZM348.181 643.776C394.531 644.067 429.589 686.813 429.237 736.346C428.886 785.88 393.226 828.183 346.875 827.892C300.524 827.602 265.466 784.856 265.817 735.322C266.169 685.788 301.83 643.486 348.181 643.776ZM348.038 663.775C315.18 663.57 286.108 694.342 285.816 735.447C285.525 776.553 314.158 807.687 347.017 807.893C379.875 808.099 408.947 777.327 409.238 736.221C409.53 695.116 380.896 663.981 348.038 663.775ZM599 719.006C597.01 724.807 595.5 732.519 595.5 742.501C595.5 753.324 597.146 760.215 599 764.555V719.006ZM779.271 653.507C782.426 653.501 784.986 656.423 784.989 660.033C784.992 663.643 782.437 666.574 779.282 666.579C776.128 666.584 773.569 663.662 773.565 660.052C773.562 656.443 776.117 653.512 779.271 653.507ZM687.2 591.783C688.566 591.745 689.71 592.982 689.755 594.545C689.799 596.108 688.728 597.405 687.362 597.443C685.996 597.481 684.852 596.244 684.808 594.681C684.763 593.119 685.835 591.821 687.2 591.783ZM697.359 591.304C698.725 591.267 699.868 592.503 699.913 594.066C699.958 595.629 698.886 596.927 697.521 596.965C696.155 597.002 695.011 595.766 694.967 594.203C694.922 592.64 695.994 591.342 697.359 591.304ZM707.522 591.044C708.888 591.006 710.032 592.242 710.076 593.805C710.121 595.368 709.05 596.666 707.684 596.704C706.318 596.742 705.174 595.505 705.13 593.942C705.085 592.379 706.157 591.081 707.522 591.044ZM717.682 590.61C719.048 590.572 720.191 591.809 720.235 593.372C720.28 594.935 719.209 596.232 717.843 596.27C716.477 596.308 715.334 595.071 715.289 593.509C715.245 591.946 716.316 590.648 717.682 590.61ZM727.845 590.349C729.211 590.312 730.355 591.548 730.399 593.111C730.444 594.674 729.372 595.971 728.007 596.01C726.641 596.047 725.497 594.811 725.452 593.248C725.408 591.685 726.479 590.387 727.845 590.349ZM738.008 590.088C739.374 590.05 740.518 591.286 740.562 592.849C740.607 594.412 739.536 595.71 738.17 595.748C736.804 595.786 735.66 594.549 735.615 592.986C735.571 591.423 736.642 590.126 738.008 590.088ZM748.172 589.827C749.538 589.789 750.681 591.026 750.726 592.589C750.77 594.151 749.699 595.449 748.333 595.487C746.967 595.525 745.824 594.288 745.779 592.725C745.735 591.162 746.806 589.865 748.172 589.827ZM758.334 589.566C759.7 589.528 760.844 590.765 760.889 592.328C760.933 593.891 759.862 595.188 758.496 595.226C757.13 595.264 755.986 594.027 755.941 592.465C755.897 590.902 756.968 589.604 758.334 589.566ZM768.498 589.304C769.864 589.267 771.007 590.503 771.052 592.066C771.096 593.629 770.025 594.927 768.659 594.965C767.293 595.002 766.15 593.766 766.105 592.203C766.061 590.64 767.132 589.342 768.498 589.304ZM778.661 589.044C780.027 589.006 781.17 590.242 781.215 591.805C781.259 593.368 780.188 594.666 778.822 594.704C777.456 594.741 776.313 593.505 776.269 591.942C776.224 590.379 777.295 589.082 778.661 589.044ZM788.824 588.782C790.19 588.744 791.334 589.981 791.379 591.544C791.423 593.107 790.352 594.404 788.986 594.442C787.62 594.48 786.476 593.243 786.432 591.68C786.387 590.118 787.459 588.82 788.824 588.782ZM799.101 588.376C800.466 588.338 801.61 589.574 801.654 591.137C801.699 592.7 800.628 593.998 799.262 594.036C797.896 594.074 796.753 592.837 796.708 591.274C796.663 589.711 797.735 588.414 799.101 588.376ZM808.985 588.12C810.351 588.082 811.494 589.319 811.539 590.882C811.584 592.445 810.512 593.742 809.146 593.78C807.781 593.818 806.637 592.581 806.593 591.018C806.548 589.456 807.62 588.158 808.985 588.12ZM819.265 587.9C820.631 587.862 821.774 589.099 821.818 590.662C821.863 592.225 820.792 593.523 819.426 593.56C818.06 593.598 816.917 592.362 816.872 590.799C816.828 589.236 817.899 587.938 819.265 587.9ZM830.109 587.625C831.475 587.587 832.619 588.823 832.663 590.386C832.708 591.949 831.636 593.247 830.271 593.285C828.905 593.323 827.761 592.086 827.717 590.523C827.672 588.96 828.743 587.663 830.109 587.625ZM840.384 587.164C841.75 587.126 842.893 588.363 842.938 589.926C842.982 591.489 841.911 592.786 840.545 592.824C839.179 592.862 838.036 591.625 837.991 590.062C837.947 588.499 839.018 587.202 840.384 587.164ZM850.662 586.944C852.028 586.906 853.171 588.143 853.216 589.706C853.26 591.269 852.189 592.566 850.823 592.604C849.457 592.642 848.314 591.405 848.27 589.843C848.225 588.279 849.296 586.982 850.662 586.944ZM686.802 571.734C688.396 571.706 689.715 573.162 689.748 574.986C689.781 576.81 688.517 578.311 686.923 578.34C685.329 578.367 684.009 576.911 683.976 575.088C683.942 573.264 685.208 571.762 686.802 571.734ZM696.965 571.359C698.559 571.331 699.878 572.787 699.911 574.611C699.944 576.435 698.68 577.936 697.086 577.964C695.492 577.992 694.172 576.536 694.139 574.712C694.105 572.888 695.371 571.387 696.965 571.359ZM707.13 571.201C708.724 571.173 710.044 572.629 710.077 574.453C710.111 576.277 708.845 577.778 707.251 577.805C705.657 577.833 704.338 576.377 704.305 574.553C704.271 572.73 705.536 571.229 707.13 571.201ZM717.293 570.871C718.887 570.843 720.207 572.299 720.24 574.123C720.273 575.947 719.008 577.447 717.414 577.475C715.82 577.503 714.501 576.047 714.468 574.223C714.434 572.4 715.699 570.899 717.293 570.871ZM727.459 570.713C729.053 570.685 730.372 572.141 730.405 573.965C730.439 575.788 729.174 577.289 727.58 577.317C725.986 577.345 724.666 575.889 724.633 574.065C724.6 572.241 725.865 570.741 727.459 570.713ZM737.624 570.554C739.218 570.527 740.537 571.983 740.57 573.806C740.604 575.63 739.339 577.132 737.745 577.16C736.151 577.188 734.831 575.732 734.798 573.908C734.764 572.084 736.03 570.582 737.624 570.554ZM747.789 570.396C749.383 570.368 750.703 571.824 750.736 573.648C750.77 575.472 749.504 576.974 747.91 577.002C746.316 577.03 744.997 575.574 744.964 573.75C744.93 571.926 746.195 570.424 747.789 570.396ZM757.954 570.239C759.548 570.211 760.868 571.667 760.901 573.491C760.935 575.315 759.669 576.816 758.075 576.844C756.481 576.871 755.162 575.415 755.129 573.592C755.096 571.768 756.36 570.267 757.954 570.239ZM768.12 570.081C769.714 570.053 771.034 571.509 771.067 573.333C771.101 575.157 769.835 576.658 768.241 576.686C766.647 576.714 765.328 575.258 765.295 573.434C765.261 571.61 766.526 570.109 768.12 570.081ZM778.285 569.924C779.879 569.896 781.199 571.352 781.232 573.176C781.266 574.999 780 576.5 778.406 576.528C776.812 576.556 775.493 575.1 775.46 573.276C775.427 571.452 776.691 569.952 778.285 569.924ZM788.451 569.765C790.045 569.738 791.364 571.194 791.397 573.017C791.431 574.841 790.166 576.342 788.572 576.37C786.978 576.398 785.658 574.942 785.625 573.118C785.592 571.294 786.857 569.793 788.451 569.765ZM798.73 569.463C800.324 569.435 801.643 570.891 801.677 572.715C801.71 574.539 800.445 576.04 798.852 576.068C797.258 576.096 795.938 574.64 795.904 572.816C795.871 570.992 797.136 569.491 798.73 569.463ZM808.617 569.307C810.211 569.279 811.531 570.736 811.564 572.559C811.598 574.383 810.332 575.885 808.738 575.913C807.144 575.941 805.826 574.485 805.792 572.661C805.759 570.837 807.023 569.335 808.617 569.307ZM818.898 569.192C820.492 569.164 821.811 570.62 821.845 572.444C821.878 574.268 820.613 575.77 819.02 575.798C817.426 575.826 816.106 574.369 816.072 572.546C816.039 570.722 817.304 569.22 818.898 569.192ZM829.745 569.027C831.339 568.999 832.658 570.455 832.691 572.279C832.725 574.103 831.46 575.604 829.866 575.632C828.272 575.659 826.952 574.204 826.919 572.38C826.886 570.556 828.151 569.055 829.745 569.027ZM840.023 568.671C841.617 568.643 842.937 570.099 842.971 571.923C843.004 573.746 841.738 575.247 840.145 575.275C838.551 575.303 837.232 573.847 837.198 572.023C837.165 570.199 838.43 568.699 840.023 568.671ZM850.304 568.554C851.898 568.527 853.217 569.982 853.251 571.806C853.284 573.63 852.019 575.132 850.425 575.16C848.831 575.188 847.512 573.732 847.479 571.908C847.445 570.084 848.71 568.582 850.304 568.554ZM686.213 553.206C688.132 553.172 689.72 554.926 689.761 557.122C689.801 559.318 688.277 561.124 686.358 561.158C684.439 561.191 682.851 559.439 682.811 557.243C682.77 555.047 684.294 553.239 686.213 553.206ZM696.376 552.831C698.295 552.797 699.884 554.55 699.924 556.746C699.964 558.942 698.441 560.749 696.521 560.783C694.603 560.816 693.015 559.064 692.975 556.868C692.934 554.672 694.457 552.865 696.376 552.831ZM706.541 552.673C708.46 552.639 710.049 554.393 710.089 556.589C710.129 558.784 708.606 560.591 706.688 560.625C704.768 560.658 703.18 558.906 703.14 556.71C703.099 554.514 704.622 552.706 706.541 552.673ZM716.704 552.343C718.623 552.309 720.212 554.062 720.252 556.258C720.292 558.453 718.77 560.261 716.851 560.295C714.932 560.328 713.343 558.575 713.303 556.38C713.262 554.184 714.785 552.376 716.704 552.343ZM726.87 552.184C728.789 552.151 730.378 553.904 730.418 556.099C730.458 558.295 728.935 560.103 727.016 560.136C725.097 560.17 723.508 558.417 723.468 556.221C723.427 554.026 724.951 552.218 726.87 552.184ZM737.035 552.026C738.954 551.992 740.543 553.746 740.583 555.942C740.623 558.138 739.1 559.945 737.181 559.978C735.262 560.012 733.674 558.259 733.634 556.063C733.594 553.867 735.116 552.06 737.035 552.026ZM747.2 551.869C749.119 551.835 750.708 553.588 750.748 555.784C750.788 557.98 749.266 559.787 747.347 559.821C745.428 559.855 743.839 558.102 743.799 555.906C743.759 553.71 745.281 551.903 747.2 551.869ZM757.365 551.711C759.284 551.677 760.873 553.43 760.913 555.626C760.953 557.822 759.431 559.629 757.512 559.663C755.593 559.696 754.004 557.944 753.964 555.748C753.924 553.552 755.446 551.745 757.365 551.711ZM767.531 551.552C769.45 551.519 771.039 553.273 771.079 555.469C771.119 557.664 769.596 559.471 767.678 559.505C765.759 559.538 764.17 557.786 764.13 555.59C764.09 553.394 765.612 551.586 767.531 551.552ZM777.696 551.395C779.615 551.362 781.204 553.114 781.244 555.31C781.284 557.506 779.762 559.314 777.843 559.347C775.924 559.381 774.335 557.628 774.295 555.432C774.255 553.237 775.777 551.429 777.696 551.395ZM787.862 551.237C789.781 551.204 791.37 552.956 791.41 555.152C791.45 557.348 789.927 559.156 788.008 559.189C786.089 559.223 784.5 557.47 784.46 555.274C784.42 553.078 785.943 551.271 787.862 551.237ZM798.142 550.934C800.061 550.901 801.649 552.654 801.689 554.85C801.729 557.046 800.206 558.853 798.287 558.886C796.368 558.92 794.781 557.167 794.74 554.971C794.7 552.776 796.223 550.968 798.142 550.934ZM808.028 550.78C809.947 550.746 811.536 552.499 811.576 554.695C811.616 556.891 810.094 558.698 808.175 558.732C806.256 558.766 804.667 557.013 804.627 554.817C804.587 552.621 806.109 550.814 808.028 550.78ZM818.31 550.664C820.229 550.63 821.817 552.384 821.857 554.58C821.897 556.776 820.374 558.582 818.455 558.616C816.536 558.649 814.948 556.897 814.908 554.701C814.868 552.505 816.391 550.698 818.31 550.664ZM829.156 550.499C831.075 550.465 832.664 552.218 832.704 554.414C832.744 556.61 831.221 558.417 829.302 558.451C827.383 558.484 825.795 556.732 825.755 554.536C825.715 552.34 827.237 550.532 829.156 550.499ZM839.435 550.142C841.354 550.109 842.942 551.861 842.982 554.057C843.023 556.253 841.5 558.061 839.581 558.094C837.662 558.128 836.074 556.375 836.033 554.179C835.993 551.984 837.516 550.176 839.435 550.142ZM849.715 550.026C851.634 549.992 853.222 551.746 853.263 553.942C853.303 556.138 851.78 557.944 849.861 557.978C847.942 558.012 846.354 556.259 846.313 554.063C846.273 551.867 847.796 550.06 849.715 550.026ZM173 416.501C178.523 416.501 183 420.978 183 426.501V533.501C183 539.023 178.523 543.501 173 543.501C167.477 543.501 163 539.023 163 533.501V426.501C163 420.978 167.477 416.501 173 416.501ZM686.235 534.695C688.155 534.677 689.729 536.443 689.751 538.639C689.773 540.835 688.235 542.63 686.316 542.648C684.397 542.666 682.823 540.9 682.801 538.704C682.779 536.508 684.316 534.713 686.235 534.695ZM696.401 534.403C698.32 534.385 699.895 536.151 699.917 538.347C699.939 540.544 698.401 542.338 696.481 542.356C694.562 542.374 692.988 540.608 692.966 538.412C692.944 536.216 694.482 534.421 696.401 534.403ZM706.567 534.329C708.487 534.311 710.061 536.077 710.083 538.273C710.105 540.469 708.567 542.264 706.648 542.282C704.729 542.3 703.155 540.534 703.133 538.338C703.111 536.141 704.648 534.347 706.567 534.329ZM716.732 534.082C718.652 534.064 720.226 535.83 720.248 538.026C720.27 540.222 718.733 542.017 716.813 542.035C714.894 542.053 713.32 540.287 713.298 538.091C713.276 535.894 714.813 534.1 716.732 534.082ZM726.898 534.007C728.818 533.989 730.392 535.755 730.414 537.951C730.436 540.147 728.899 541.942 726.979 541.96C725.06 541.978 723.486 540.212 723.464 538.016C723.442 535.82 724.979 534.025 726.898 534.007ZM737.065 533.932C738.985 533.914 740.559 535.681 740.581 537.877C740.603 540.073 739.066 541.867 737.146 541.885C735.227 541.903 733.653 540.137 733.631 537.941C733.609 535.745 735.146 533.95 737.065 533.932ZM747.231 533.858C749.151 533.84 750.725 535.606 750.747 537.802C750.769 539.998 749.232 541.793 747.312 541.811C745.393 541.829 743.819 540.063 743.797 537.867C743.775 535.671 745.312 533.876 747.231 533.858ZM757.397 533.783C759.317 533.765 760.891 535.531 760.913 537.727C760.935 539.924 759.398 541.718 757.479 541.736C755.559 541.754 753.985 539.989 753.963 537.793C753.941 535.597 755.478 533.801 757.397 533.783ZM767.564 533.709C769.484 533.691 771.058 535.457 771.08 537.653C771.102 539.849 769.565 541.644 767.646 541.662C765.726 541.68 764.152 539.914 764.13 537.718C764.108 535.521 765.645 533.727 767.564 533.709ZM777.73 533.635C779.65 533.617 781.224 535.383 781.246 537.579C781.268 539.775 779.731 541.57 777.812 541.588C775.892 541.605 774.318 539.839 774.296 537.643C774.274 535.447 775.811 533.653 777.73 533.635ZM787.897 533.559C789.817 533.541 791.391 535.308 791.413 537.504C791.435 539.7 789.898 541.494 787.979 541.512C786.059 541.53 784.485 539.765 784.463 537.569C784.441 535.373 785.978 533.577 787.897 533.559ZM798.179 533.342C800.098 533.324 801.672 535.09 801.694 537.286C801.716 539.482 800.179 541.277 798.26 541.295C796.341 541.312 794.766 539.547 794.744 537.35C794.722 535.154 796.26 533.36 798.179 533.342ZM808.066 533.267C809.986 533.249 811.56 535.016 811.582 537.212C811.604 539.408 810.067 541.203 808.147 541.22C806.228 541.238 804.654 539.473 804.632 537.277C804.61 535.081 806.147 533.286 808.066 533.267ZM818.349 533.236C820.268 533.218 821.842 534.984 821.864 537.18C821.887 539.376 820.349 541.171 818.43 541.189C816.511 541.207 814.937 539.442 814.914 537.246C814.892 535.05 816.429 533.254 818.349 533.236ZM829.196 533.16C831.115 533.142 832.69 534.908 832.712 537.104C832.734 539.3 831.196 541.095 829.276 541.113C827.357 541.131 825.783 539.365 825.761 537.169C825.739 534.973 827.277 533.178 829.196 533.16ZM839.477 532.887C841.396 532.87 842.97 534.636 842.992 536.832C843.014 539.028 841.477 540.823 839.558 540.841C837.638 540.858 836.064 539.092 836.042 536.896C836.02 534.7 837.558 532.906 839.477 532.887ZM849.758 532.856C851.677 532.838 853.251 534.604 853.273 536.801C853.296 538.997 851.758 540.791 849.839 540.809C847.92 540.827 846.346 539.061 846.323 536.865C846.301 534.669 847.839 532.874 849.758 532.856ZM686.228 517.766C688.147 517.743 689.724 519.504 689.749 521.7C689.774 523.896 688.238 525.696 686.319 525.719C684.4 525.743 682.824 523.982 682.799 521.786C682.773 519.59 684.309 517.79 686.228 517.766ZM706.792 517.624C708.711 517.6 710.287 519.361 710.312 521.557C710.338 523.753 708.803 525.553 706.884 525.577C704.965 525.601 703.389 523.839 703.363 521.643C703.338 519.447 704.873 517.648 706.792 517.624ZM696.508 517.574C698.427 517.55 700.003 519.312 700.028 521.508C700.054 523.704 698.519 525.503 696.6 525.527C694.68 525.551 693.104 523.79 693.079 521.594C693.054 519.398 694.589 517.598 696.508 517.574ZM717.639 517.465C719.558 517.441 721.135 519.202 721.16 521.398C721.185 523.594 719.65 525.394 717.73 525.418C715.811 525.441 714.235 523.68 714.21 521.484C714.185 519.288 715.72 517.488 717.639 517.465ZM727.919 517.273C729.838 517.25 731.414 519.011 731.439 521.207C731.465 523.403 729.93 525.202 728.011 525.226C726.092 525.25 724.515 523.489 724.489 521.293C724.464 519.097 726 517.297 727.919 517.273ZM737.806 517.133C739.725 517.109 741.302 518.87 741.327 521.066C741.352 523.262 739.817 525.062 737.897 525.086C735.978 525.109 734.402 523.348 734.377 521.152C734.352 518.956 735.887 517.157 737.806 517.133ZM748.09 517.128C750.009 517.104 751.586 518.865 751.611 521.061C751.637 523.257 750.101 525.057 748.182 525.081C746.263 525.104 744.686 523.343 744.661 521.147C744.636 518.951 746.171 517.152 748.09 517.128ZM758.256 516.982C760.175 516.959 761.751 518.72 761.776 520.916C761.802 523.112 760.267 524.911 758.348 524.935C756.428 524.959 754.852 523.198 754.826 521.002C754.801 518.806 756.337 517.006 758.256 516.982ZM768.421 516.836C770.34 516.812 771.917 518.573 771.942 520.769C771.968 522.965 770.432 524.765 768.513 524.789C766.594 524.812 765.018 523.051 764.992 520.855C764.967 518.659 766.502 516.86 768.421 516.836ZM778.587 516.69C780.506 516.667 782.082 518.428 782.107 520.624C782.133 522.82 780.598 524.62 778.679 524.643C776.76 524.667 775.184 522.906 775.158 520.71C775.133 518.514 776.668 516.714 778.587 516.69ZM788.752 516.544C790.671 516.52 792.248 518.281 792.273 520.477C792.299 522.673 790.763 524.473 788.844 524.497C786.925 524.52 785.349 522.759 785.323 520.563C785.298 518.367 786.833 516.568 788.752 516.544ZM798.918 516.398C800.837 516.375 802.413 518.136 802.438 520.332C802.464 522.528 800.929 524.327 799.01 524.351C797.091 524.375 795.514 522.614 795.488 520.418C795.463 518.222 796.999 516.422 798.918 516.398ZM809.083 516.253C811.002 516.229 812.579 517.99 812.604 520.186C812.63 522.382 811.094 524.182 809.175 524.206C807.256 524.229 805.68 522.468 805.654 520.272C805.629 518.076 807.164 516.277 809.083 516.253ZM829.417 516.133C831.336 516.109 832.913 517.87 832.938 520.066C832.964 522.262 831.428 524.062 829.509 524.086C827.59 524.109 826.014 522.348 825.988 520.152C825.963 517.956 827.498 516.157 829.417 516.133ZM819.249 516.106C821.168 516.083 822.744 517.844 822.77 520.04C822.795 522.236 821.26 524.036 819.341 524.059C817.422 524.083 815.846 522.322 815.82 520.126C815.795 517.93 817.33 516.13 819.249 516.106ZM849.753 516.058C851.672 516.035 853.248 517.796 853.273 519.992C853.299 522.188 851.764 523.988 849.845 524.011C847.926 524.035 846.35 522.274 846.324 520.078C846.299 517.882 847.834 516.082 849.753 516.058ZM839.583 515.987C841.502 515.963 843.078 517.725 843.104 519.921C843.129 522.117 841.594 523.916 839.675 523.94C837.756 523.964 836.18 522.203 836.154 520.007C836.129 517.81 837.664 516.011 839.583 515.987ZM706.829 497.903C708.748 497.9 710.306 499.678 710.308 501.875C710.309 504.071 708.755 505.854 706.836 505.857C704.917 505.86 703.359 504.083 703.357 501.886C703.356 499.69 704.91 497.906 706.829 497.903ZM849.799 497.866C851.718 497.863 853.275 499.641 853.277 501.837C853.279 504.033 851.725 505.816 849.806 505.819C847.886 505.822 846.329 504.045 846.327 501.848C846.325 499.652 847.88 497.869 849.799 497.866ZM717.677 497.861C719.596 497.858 721.153 499.635 721.155 501.832C721.157 504.028 719.603 505.811 717.684 505.814C715.764 505.817 714.207 504.04 714.205 501.844C714.203 499.647 715.758 497.864 717.677 497.861ZM748.13 497.848C750.049 497.845 751.607 499.624 751.608 501.82C751.61 504.016 750.056 505.799 748.137 505.802C746.218 505.806 744.66 504.028 744.658 501.832C744.656 499.636 746.211 497.852 748.13 497.848ZM686.265 497.826C688.184 497.823 689.741 499.601 689.743 501.797C689.745 503.993 688.191 505.777 686.271 505.78C684.352 505.783 682.795 504.005 682.793 501.808C682.791 499.612 684.346 497.829 686.265 497.826ZM758.297 497.811C760.216 497.808 761.773 499.587 761.775 501.783C761.777 503.979 760.223 505.762 758.304 505.765C756.384 505.769 754.827 503.991 754.825 501.795C754.823 499.598 756.378 497.815 758.297 497.811ZM727.959 497.779C729.878 497.776 731.435 499.554 731.438 501.75C731.439 503.946 729.885 505.729 727.966 505.732C726.047 505.735 724.489 503.958 724.487 501.761C724.486 499.565 726.04 497.782 727.959 497.779ZM768.463 497.774C770.382 497.771 771.94 499.549 771.942 501.745C771.944 503.941 770.389 505.725 768.47 505.728C766.551 505.731 764.993 503.953 764.991 501.757C764.99 499.561 766.544 497.778 768.463 497.774ZM696.546 497.744C698.465 497.741 700.023 499.519 700.024 501.716C700.026 503.912 698.472 505.695 696.553 505.698C694.634 505.701 693.076 503.923 693.074 501.727C693.072 499.531 694.627 497.747 696.546 497.744ZM737.847 497.744C739.766 497.741 741.323 499.518 741.325 501.715C741.327 503.911 739.773 505.694 737.854 505.697C735.934 505.7 734.377 503.923 734.375 501.726C734.373 499.53 735.927 497.747 737.847 497.744ZM778.63 497.737C780.549 497.734 782.106 499.512 782.108 501.708C782.11 503.904 780.556 505.687 778.637 505.69C776.717 505.693 775.16 503.916 775.158 501.719C775.156 499.523 776.711 497.74 778.63 497.737ZM829.464 497.722C831.383 497.719 832.94 499.498 832.942 501.694C832.944 503.89 831.39 505.673 829.471 505.677C827.551 505.68 825.994 503.902 825.992 501.706C825.99 499.509 827.545 497.726 829.464 497.722ZM788.796 497.7C790.715 497.697 792.273 499.474 792.275 501.671C792.277 503.867 790.722 505.65 788.803 505.653C786.884 505.656 785.326 503.879 785.324 501.682C785.322 499.486 786.877 497.703 788.796 497.7ZM839.63 497.685C841.549 497.682 843.107 499.461 843.109 501.657C843.111 503.853 841.556 505.636 839.637 505.639C837.718 505.642 836.16 503.865 836.158 501.669C836.156 499.473 837.711 497.689 839.63 497.685ZM798.963 497.662C800.882 497.659 802.44 499.437 802.441 501.634C802.443 503.83 800.889 505.613 798.97 505.616C797.05 505.619 795.493 503.841 795.491 501.645C795.489 499.449 797.044 497.665 798.963 497.662ZM809.13 497.625C811.049 497.622 812.606 499.399 812.608 501.595C812.61 503.792 811.056 505.575 809.137 505.579C807.217 505.582 805.66 503.803 805.658 501.607C805.657 499.411 807.211 497.628 809.13 497.625ZM819.296 497.588C821.215 497.584 822.772 499.362 822.774 501.558C822.776 503.755 821.222 505.538 819.303 505.541C817.383 505.544 815.826 503.766 815.824 501.57C815.822 499.374 817.377 497.591 819.296 497.588ZM706.829 478.212C708.748 478.209 710.306 479.986 710.308 482.182C710.309 484.379 708.755 486.162 706.836 486.166C704.917 486.169 703.359 484.39 703.357 482.194C703.356 479.998 704.91 478.215 706.829 478.212ZM849.799 478.177C851.718 478.174 853.275 479.952 853.277 482.148C853.279 484.344 851.725 486.127 849.806 486.131C847.886 486.134 846.328 484.356 846.326 482.16C846.324 479.964 847.88 478.181 849.799 478.177ZM717.677 478.17C719.596 478.167 721.153 479.944 721.155 482.14C721.157 484.337 719.603 486.119 717.684 486.123C715.764 486.126 714.207 484.348 714.205 482.152C714.203 479.956 715.757 478.173 717.677 478.17ZM748.13 478.158C750.049 478.155 751.606 479.933 751.608 482.129C751.61 484.325 750.056 486.109 748.137 486.112C746.217 486.115 744.66 484.337 744.658 482.14C744.656 479.944 746.211 478.161 748.13 478.158ZM686.265 478.135C688.184 478.132 689.741 479.909 689.743 482.105C689.745 484.301 688.191 486.084 686.271 486.088C684.352 486.091 682.794 484.313 682.792 482.117C682.79 479.921 684.345 478.138 686.265 478.135ZM758.296 478.121C760.215 478.118 761.773 479.895 761.775 482.092C761.777 484.288 760.222 486.072 758.303 486.075C756.384 486.078 754.826 484.299 754.824 482.103C754.822 479.907 756.377 478.124 758.296 478.121ZM727.958 478.088C729.877 478.084 731.435 479.862 731.437 482.058C731.438 484.255 729.884 486.039 727.965 486.042C726.046 486.045 724.488 484.266 724.486 482.07C724.485 479.874 726.039 478.091 727.958 478.088ZM768.463 478.084C770.382 478.081 771.939 479.858 771.941 482.054C771.943 484.251 770.389 486.035 768.47 486.038C766.55 486.041 764.993 484.262 764.991 482.066C764.989 479.87 766.544 478.087 768.463 478.084ZM696.546 478.052C698.465 478.049 700.022 479.827 700.024 482.023C700.026 484.219 698.472 486.003 696.553 486.007C694.633 486.01 693.075 484.231 693.073 482.035C693.071 479.839 694.627 478.056 696.546 478.052ZM737.847 478.052C739.766 478.049 741.323 479.828 741.325 482.024C741.327 484.22 739.773 486.003 737.854 486.007C735.934 486.01 734.376 484.231 734.374 482.035C734.372 479.839 735.927 478.056 737.847 478.052ZM778.63 478.047C780.549 478.044 782.106 479.821 782.108 482.017C782.11 484.213 780.556 485.997 778.637 486.001C776.717 486.004 775.159 484.225 775.157 482.029C775.155 479.833 776.711 478.05 778.63 478.047ZM829.463 478.034C831.382 478.031 832.94 479.809 832.942 482.005C832.944 484.201 831.389 485.985 829.47 485.988C827.551 485.991 825.993 484.213 825.991 482.016C825.989 479.82 827.544 478.037 829.463 478.034ZM788.796 478.01C790.715 478.006 792.272 479.784 792.274 481.98C792.276 484.176 790.722 485.96 788.803 485.964C786.883 485.967 785.326 484.188 785.324 481.992C785.322 479.796 786.877 478.013 788.796 478.01ZM839.63 477.997C841.549 477.994 843.106 479.771 843.108 481.968C843.11 484.164 841.556 485.948 839.637 485.951C837.717 485.954 836.16 484.176 836.158 481.979C836.156 479.783 837.711 478 839.63 477.997ZM798.962 477.972C800.881 477.969 802.439 479.747 802.441 481.943C802.443 484.139 800.888 485.923 798.969 485.927C797.05 485.93 795.492 484.151 795.49 481.955C795.488 479.759 797.043 477.976 798.962 477.972ZM809.129 477.935C811.048 477.932 812.606 479.711 812.607 481.907C812.609 484.103 811.055 485.886 809.136 485.889C807.216 485.893 805.659 484.114 805.657 481.918C805.656 479.722 807.21 477.939 809.129 477.935ZM819.296 477.898C821.215 477.895 822.772 479.673 822.774 481.869C822.776 484.065 821.222 485.849 819.303 485.852C817.383 485.855 815.825 484.077 815.823 481.881C815.821 479.684 817.377 477.901 819.296 477.898ZM849.396 457.537C851.316 457.55 852.858 459.341 852.842 461.537C852.825 463.733 851.256 465.503 849.337 465.49C847.418 465.477 845.875 463.687 845.892 461.491C845.908 459.295 847.477 457.524 849.396 457.537ZM839.229 457.272C841.149 457.285 842.692 459.076 842.676 461.272C842.659 463.468 841.09 465.239 839.171 465.226C837.252 465.214 835.708 463.423 835.725 461.226C835.741 459.03 837.31 457.26 839.229 457.272ZM829.063 457.225C830.983 457.238 832.525 459.029 832.509 461.225C832.492 463.422 830.923 465.192 829.004 465.179C827.085 465.167 825.542 463.376 825.559 461.179C825.575 458.983 827.144 457.213 829.063 457.225ZM818.896 457.007C820.816 457.019 822.359 458.809 822.343 461.006C822.326 463.202 820.757 464.972 818.838 464.96C816.919 464.947 815.375 463.156 815.392 460.96C815.408 458.764 816.977 456.994 818.896 457.007ZM808.73 456.96C810.65 456.973 812.192 458.763 812.176 460.959C812.159 463.155 810.59 464.926 808.671 464.913C806.752 464.9 805.209 463.109 805.226 460.913C805.242 458.717 806.811 456.947 808.73 456.96ZM798.563 456.913C800.483 456.926 802.026 458.716 802.01 460.912C801.993 463.108 800.424 464.878 798.505 464.866C796.586 464.853 795.042 463.062 795.059 460.866C795.075 458.67 796.644 456.9 798.563 456.913ZM788.397 456.866C790.317 456.879 791.859 458.669 791.843 460.865C791.826 463.061 790.257 464.832 788.338 464.819C786.419 464.806 784.876 463.015 784.893 460.819C784.909 458.623 786.478 456.853 788.397 456.866ZM778.23 456.819C780.15 456.832 781.693 458.623 781.677 460.819C781.66 463.015 780.091 464.785 778.172 464.772C776.253 464.76 774.709 462.969 774.726 460.773C774.742 458.577 776.311 456.807 778.23 456.819ZM768.064 456.772C769.984 456.785 771.526 458.576 771.51 460.772C771.493 462.968 769.924 464.738 768.005 464.725C766.086 464.713 764.543 462.922 764.56 460.726C764.576 458.53 766.145 456.76 768.064 456.772ZM757.897 456.725C759.817 456.738 761.36 458.529 761.344 460.725C761.327 462.921 759.758 464.691 757.839 464.678C755.92 464.666 754.376 462.876 754.393 460.679C754.409 458.483 755.978 456.713 757.897 456.725ZM747.731 456.678C749.651 456.691 751.193 458.482 751.177 460.678C751.16 462.875 749.591 464.644 747.672 464.632C745.753 464.619 744.21 462.829 744.227 460.633C744.243 458.436 745.812 456.666 747.731 456.678ZM737.449 456.488C739.369 456.501 740.912 458.292 740.896 460.488C740.879 462.684 739.31 464.454 737.391 464.441C735.471 464.428 733.928 462.638 733.944 460.442C733.961 458.246 735.53 456.475 737.449 456.488ZM727.561 456.441C729.48 456.454 731.023 458.245 731.007 460.441C730.99 462.637 729.421 464.407 727.502 464.394C725.583 464.382 724.039 462.591 724.056 460.395C724.072 458.199 725.641 456.429 727.561 456.441ZM717.279 456.438C719.198 456.451 720.741 458.241 720.725 460.437C720.708 462.634 719.139 464.404 717.22 464.391C715.301 464.379 713.758 462.588 713.774 460.391C713.791 458.195 715.36 456.426 717.279 456.438ZM706.432 456.39C708.351 456.403 709.893 458.194 709.877 460.39C709.861 462.587 708.291 464.357 706.372 464.344C704.453 464.332 702.91 462.541 702.927 460.344C702.943 458.148 704.512 456.378 706.432 456.39ZM696.149 456.146C698.069 456.159 699.612 457.95 699.596 460.146C699.579 462.342 698.01 464.113 696.091 464.1C694.172 464.088 692.629 462.297 692.646 460.1C692.662 457.904 694.23 456.134 696.149 456.146ZM685.868 456.143C687.787 456.156 689.33 457.947 689.313 460.143C689.297 462.339 687.728 464.109 685.809 464.096C683.89 464.083 682.347 462.293 682.363 460.097C682.38 457.901 683.949 456.131 685.868 456.143ZM849.395 438.523C851.314 438.535 852.857 440.325 852.842 442.521C852.826 444.717 851.258 446.488 849.339 446.476C847.42 446.464 845.876 444.674 845.892 442.477C845.907 440.281 847.476 438.511 849.395 438.523ZM839.229 438.261C841.148 438.274 842.691 440.064 842.676 442.26C842.66 444.457 841.091 446.228 839.172 446.216C837.253 446.203 835.709 444.413 835.725 442.217C835.74 440.02 837.309 438.249 839.229 438.261ZM829.062 438.219C830.981 438.231 832.524 440.02 832.509 442.217C832.493 444.413 830.925 446.183 829.006 446.172C827.087 446.16 825.543 444.369 825.559 442.173C825.574 439.977 827.143 438.207 829.062 438.219ZM818.896 438.002C820.815 438.014 822.358 439.805 822.343 442.001C822.327 444.197 820.758 445.968 818.839 445.956C816.92 445.944 815.376 444.153 815.392 441.957C815.407 439.761 816.976 437.99 818.896 438.002ZM808.729 437.959C810.648 437.971 812.191 439.761 812.176 441.957C812.16 444.153 810.592 445.924 808.673 445.912C806.754 445.9 805.21 444.11 805.226 441.914C805.241 439.718 806.809 437.947 808.729 437.959ZM798.562 437.915C800.482 437.927 802.025 439.717 802.01 441.913C801.994 444.109 800.425 445.88 798.506 445.868C796.587 445.856 795.043 444.066 795.059 441.87C795.074 439.674 796.643 437.903 798.562 437.915ZM788.396 437.872C790.315 437.884 791.858 439.674 791.843 441.87C791.827 444.066 790.259 445.837 788.34 445.825C786.421 445.813 784.877 444.022 784.893 441.826C784.908 439.63 786.477 437.86 788.396 437.872ZM778.229 437.828C780.149 437.84 781.692 439.63 781.677 441.826C781.661 444.022 780.092 445.793 778.173 445.781C776.254 445.769 774.71 443.979 774.726 441.783C774.741 439.587 776.31 437.816 778.229 437.828ZM768.062 437.784C769.982 437.796 771.525 439.587 771.51 441.783C771.494 443.979 769.926 445.75 768.007 445.738C766.088 445.726 764.544 443.935 764.56 441.739C764.575 439.543 766.143 437.772 768.062 437.784ZM757.896 437.741C759.816 437.753 761.359 439.543 761.344 441.739C761.328 443.935 759.759 445.706 757.84 445.694C755.921 445.682 754.377 443.892 754.393 441.696C754.408 439.5 755.977 437.729 757.896 437.741ZM747.729 437.697C749.649 437.709 751.192 439.5 751.177 441.696C751.161 443.892 749.593 445.663 747.674 445.651C745.755 445.639 744.211 443.848 744.227 441.652C744.242 439.456 745.81 437.685 747.729 437.697ZM737.448 437.51C739.367 437.523 740.91 439.313 740.895 441.509C740.879 443.705 739.311 445.476 737.392 445.464C735.472 445.452 733.929 443.662 733.944 441.466C733.96 439.269 735.529 437.498 737.448 437.51ZM717.277 437.467C719.197 437.479 720.74 439.269 720.725 441.465C720.709 443.661 719.14 445.432 717.221 445.42C715.302 445.407 713.759 443.618 713.774 441.422C713.79 439.225 715.358 437.455 717.277 437.467ZM727.56 437.467C729.479 437.479 731.021 439.269 731.006 441.465C730.99 443.661 729.422 445.432 727.503 445.42C725.584 445.408 724.04 443.618 724.056 441.422C724.071 439.225 725.64 437.455 727.56 437.467ZM706.43 437.424C708.349 437.436 709.893 439.225 709.877 441.422C709.861 443.618 708.292 445.389 706.373 445.377C704.454 445.364 702.911 443.574 702.927 441.378C702.943 439.182 704.511 437.412 706.43 437.424ZM685.866 437.182C687.785 437.194 689.329 438.984 689.313 441.18C689.298 443.377 687.729 445.148 685.81 445.135C683.89 445.123 682.348 443.334 682.363 441.137C682.379 438.941 683.947 437.17 685.866 437.182ZM696.148 437.182C698.067 437.195 699.61 438.985 699.595 441.18C699.579 443.377 698.011 445.147 696.092 445.135C694.173 445.123 692.629 443.334 692.645 441.137C692.66 438.941 694.229 437.17 696.148 437.182ZM294.576 111.788C265.344 109.543 240.461 132.815 240.749 162.133L241.959 285.252C242.171 306.759 259.352 324.249 280.852 324.844L407.171 328.338C412.995 328.499 418.469 326.989 423.142 324.251L306.451 320.169C290.301 319.604 277.5 306.348 277.5 290.187V262.515C277.5 245.364 291.855 231.703 308.985 232.552L438 238.947V141.327C438 130.875 429.953 122.186 419.532 121.385L294.576 111.788ZM307.995 252.528C302.285 252.245 297.5 256.798 297.5 262.515V290.187C297.5 295.574 301.767 299.993 307.15 300.181L437.316 304.734C437.762 302.677 438 300.541 438 298.348V258.969L307.995 252.528ZM368.823 128.209C393.955 128.366 411.952 151.322 411.772 176.575C411.593 201.828 393.273 224.555 368.141 224.397C343.009 224.239 325.013 201.285 325.191 176.032C325.371 150.779 343.691 128.051 368.823 128.209ZM368.682 148.209C357.042 148.136 345.311 159.333 345.191 176.158C345.072 192.982 356.644 204.324 368.283 204.397C379.922 204.47 391.653 193.274 391.772 176.45C391.892 159.625 380.321 148.282 368.682 148.209ZM368.601 159.635C376.645 159.686 383.113 167.189 383.048 176.394C382.983 185.599 376.408 193.021 368.364 192.97C360.32 192.92 353.852 185.417 353.917 176.212C353.982 167.007 360.556 159.585 368.601 159.635Z" fill="black"/>
</svg>
