<svg height="960" viewBox="0 0 960 960" width="960" xmlns="http://www.w3.org/2000/svg"><path d="m526.478224 22c115.359815 0 219.92919 61.4166335 276.996634 158.734925l.722563 1.248075 1.144702.910665c48.736788 39.056656 80.279529 91.412064 94.004924 155.596447l.431994 2.052452c6.933719 33.476144 11.819538 78.878387 15.950899 139.752302 1.927327 28.398366 6.920878 118.817814 6.865664 118.16879l.041388.698915c1.68558 28.059555 3.150017 44.847147 4.496186 51.640167 4.802793 24.235787-.788651 47.895861-13.908924 69.073623-6.218894 10.038073-14.041439 19.348112-22.890366 27.640958l-.419467.389681-.022086.212443c-2.906973 25.99076-14.418091 50.638183-33.141979 72.832258l-.679906.801125c-20.10004 23.543358-48.225777 44.200299-82.664307 61.415743-66.877048 33.431103-155.905584 53.063765-250.665637 54.717808-93.559446 1.633086-182.101729-14.44918-249.700316-44.704819l-1.791769-.808558-.242281.010533c-1.972829.087657-4.392289.219186-7.533669.402225l-.502047.02933c-12.053404.705955-18.396613.903046-26.69828.54256-11.950295-.518922-23.255908-2.330674-34.54845-5.893044-22.699548-7.160848-55.639315-28.611139-88.117657-55.527991-34.535646-28.62187-61.0842878-57.013686-71.497436-80.371463-7.1758095-16.096088-8.4101671-35.798636-6.2226647-61.488946 1.6598325-19.493287 5.484061-42.724221 11.1410421-68.988743 9.5015811-44.114428 24.1469762-96.202994 38.5310621-139.081277 12.1203851-36.130297 35.8499155-88.918583 60.5391625-133.824991 13.923633-25.325209 27.810104-47.609882 41.072742-65.477102 11.245626-15.149932 22.040151-27.271198 33.056915-36.237356l.091561-.074735.600369-1.909741c41.711445-129.691847 162.212405-220.5732663 301.165382-222.4525567zm233.782476 510.490252-2.287572 2.79273c-55.204907 66.374463-138.415275 108.629794-231.494904 108.629794-82.610888 0-159.804687-33.504228-215.878642-91.257433-1.328611 60.9856-6.607575 187.337722-15.906992 264.668474-.520733 4.330243-.930412 8.95764-1.314354 13.565555l-.104137 1.255984-.040532.491461-.080746.981477c-.02686.32678-.053675.653144-.080476.978978l-.080391.975792c-.678599 8.219542-1.367898 16.025423-2.568236 21.560785 60.149599 26.678761 141.865539 42.325268 231.618691 40.75862 177.600774-3.100033 321.398615-72.459301 328.319002-156.551982-4.564836-48.967089-13.295304-88.774284-26.094525-119.367476-12.506536-29.893605-33.81268-59.736992-64.006186-89.482759zm-521.35792-248.825641-.260252.046716c-41.819095 41.345024-96.395743 155.076931-115.161456 211.016638-24.5019143 73.039052-60.1540981 206.195622-44.8385586 240.549974 15.3155396 34.354352 100.9467376 103.260955 135.1150806 114.039775 3.963427 1.250311 7.867323 2.155932 11.710967 2.79867 15.800461 2.051736 30.977573 1.174464 45.26916-2.881548l.81328-.237484.007064-.046399c.471632-3.318658.893776-7.679011 1.499157-14.993314l.045751-.554141c.028836-.35011.166912-2.030123.205519-2.498576.080685-.979026.146692-1.773937.211211-2.541495.466849-5.553898.851572-9.565896 1.31595-13.427507 4.843578-40.277529 8.975077-97.419689 12.077858-161.527438l.145733-3.03369.143613-3.034704.141459-3.034319.065732-1.425598.13-2.849433.128023-2.846111c2.011253-45.030991 3.26893-88.375757 3.26893-109.267423 0-48.645596-1.570866-95.153832-6.278649-139.312705-3.158215-29.623965-7.502847-54.383189-13.062029-72.867733-2.883571-9.588009-6.021241-17.212957-9.252415-22.613261-1.419992-2.373251-2.789166-4.199276-4.037709-5.472734-.847982-.864905-1.479243-1.324296-1.864913-1.499732-.835258-.379947-1.666996-.723097-2.495778-1.029373-1.958861-.239083-3.811464-.754344-5.526976-1.499905-3.186407-.549969-6.347318-.536665-9.515752.04285zm188.578336 350.830564c17.938371 7.247572 21.81208 32.770891 12.152359 56.679539-9.659721 23.908649-30.176221 39.577683-48.114591 32.330111-17.938371-7.247572-21.81208-32.770891-12.152359-56.679539 9.659721-23.908649 30.176221-39.577683 48.114591-32.330111zm383.054498-391.21635.028931.082976c10.927911 31.17273 16.870067 64.689726 16.870067 99.594587 0 64.597175-20.351634 124.440971-54.992803 173.469291 32.952191 32.091447 56.409365 64.685029 70.27545 97.828281 11.302187 27.014924 19.517061 60.226212 24.700547 99.664437 14.156903-14.8571 24.630025-34.390183 20.478394-55.340089-7.608268-38.392741-8.925007-221.276636-27.285806-309.922971-8.533665-41.20072-25.225258-76.326224-50.07478-105.376512zm-399.65172 412.795062c-5.050141 3.856936-9.792583 10.37001-12.973692 18.243531-3.181109 7.87352-4.294042 15.853011-3.340528 22.135581.75 4.941644 2.526535 7.734517 4.441341 8.508149 1.914807.773632 5.132831-.001308 9.105091-3.035035 5.050141-3.856936 9.792583-10.37001 12.973692-18.243531 3.181109-7.87352 4.294042-15.853011 3.340528-22.135581-.75-4.941644-2.526535-7.734517-4.441341-8.508149-1.914807-.773632-5.132831.001308-9.105091 3.035035zm381.670947-70.415608c10.628495 19.174313 9.91996 41.378793-5.049468 49.676483-14.969427 8.297689-34.175361-2.868022-44.803856-22.042334-10.628495-19.174313-9.91996-41.378793 5.049468-49.676482 14.969427-8.29769 34.175361 2.868021 44.803856 22.042333zm-266.076617-523.658279-3.882558.0262791c-.243729.0033012-.487383.0069127-.730962.0108342-1.053271.0169557-2.105505.0397175-3.156299.0682488l3.156299-.0682488c-1.311234.0211102-2.620286.051203-3.927095.0902197l.770796-.0219709c-1.277625.0346902-2.553122.0779097-3.826435.1296036l3.055639-.1076327c-1.493353.0445861-2.983778.1008256-4.471187.1686307l1.415548-.060998c-1.278206.0518926-2.554211.1123247-3.827959.181241l2.412411-.120243c-1.463742.0667261-2.924564.1446527-4.382382.233696l1.969971-.113453c-1.256951.0680074-2.511704.1442766-3.764207.2287542l1.794236-.1153012c-1.272219.0777069-2.54215.16388-3.809738.2584639l2.015502-.1431627c-1.287359.0868286-2.572341.1823289-3.854888.2864429l1.839386-.1432802c-1.20648.0900242-2.410838.1876677-3.613024.2928826l1.773638-.1496024c-1.263864.1025974-2.525362.2135594-3.78444.3328306l2.010802-.1832282c-1.366566.1196012-2.730326.2489858-4.091211.3880834l2.080409-.2048552c-1.241963.1176498-2.48157.2433844-3.718769.3771506l1.63836-.1722954c-1.235976.1263305-2.469579.2606727-3.700758.4029739l2.062398-.2306785c-1.277002.1380697-2.551438.2846961-3.823251.4398206l1.760853-.2091421c-1.19702.138353-2.391747.2842294-3.584134.4375809l1.823281-.2284388c-1.252871.1528144-2.503197.3138757-3.750919.483128l1.927638-.2546892c-1.277811.1643377-2.552934.3372598-3.82531.5187066l1.897672-.2640174c-1.232581.1671983-2.462622.34239-3.690069.5255213l1.792397-.2615039c-1.234885.1761004-2.467182.3602306-3.696836.5523358l1.904439-.2908319c-1.264334.1886345-2.525915.3856928-3.784686.591116l1.880247-.3002841c-1.207112.1885836-2.411677.3848526-3.613644.5887553l1.733397-.2884712c-1.223421.1996544-2.444187.4072105-3.662244.6226142l1.928847-.334143c-1.276615.2165662-2.5503.4417438-3.820991.6754709l1.892144-.3413279c-1.227543.2170811-2.452333.4421325-3.674317.6750988l1.782173-.3337709c-1.166557.2145731-2.330592.4363518-3.492057.6652885l1.709884-.3315176c-1.260641.2403362-2.518295.4890959-3.772901.7462185l2.063017-.4147009c-1.217631.2400076-2.432438.4878822-3.644364.7435685l1.581347-.3288676c-1.18527.2429128-2.36782.4932896-3.547599.7510792l1.966252-.4222116c-1.271841.2683267-2.54051.5452565-3.805943.8307259l1.839691-.4085143c-1.218187.2661822-2.433419.5402676-3.645639.8221999l1.805948-.4136856c-1.200536.2708293-2.39816.5493446-3.592818.8354916l1.78687-.421806c-1.205383.280342-2.407788.5684426-3.60716.8642463l1.82029-.4424403c-1.188298.2846238-2.373661.5767983-3.556036.8764698l1.735746-.4340295c-1.212674.2990845-2.422248.606044-3.628664.9208209l1.892918-.4867914c-1.197044.3033893-2.391024.6144629-3.581885.933165l1.688967-.4463736c-1.197962.3125714-2.39281.6328511-3.584488.9607831l1.895521-.5144095c-1.197862.3205759-2.392569.6488704-3.584063.9848269l1.688542-.4704174c-1.18061.3248864-2.358109.6572836-3.532442.9971369l1.8439-.5267195c-1.174582.3311879-2.346042.6698219-3.514327 1.0158478l1.670427-.4891283c-1.208261.3496721-2.413169.7072373-3.614667 1.0726363l1.94424-.583508c-1.161235.3439381-2.319333.6951791-3.474239 1.0536698l1.529999-.4701618c-1.167491.3550571-2.331761.7175107-3.492756 1.0873064l1.962757-.6171446c-1.195671.3711442-2.387921.7500589-3.576692 1.1366852l1.613935-.5195406c-1.151352.3667242-2.299483.7406689-3.444339 1.1217809l1.830404-.6022403c-1.204669.3917968-2.405766.7915128-3.603228 1.1990865l1.772824-.5968462c-1.149282.3825855-2.295264.7723938-3.437892 1.169371l1.665068-.5725248c-1.15468.3930122-2.305981.7933307-3.453847 1.2009004l1.788779-.6283756c-1.160617.403227-2.317774.8138505-3.471414 1.231814l1.682635-.6034384c-1.146062.406929-2.2887.8210864-3.42786 1.2424174l1.745225-.638979c-1.157667.4194227-2.311794.8462368-3.462321 1.2803853l1.717096-.6414063c-1.1536.4266718-2.303633.8607002-3.450042 1.3020283l1.732946-.660622c-1.11268.4198663-2.221993.8465924-3.32789 1.2801266l1.594944-.6195046c-1.155333.4447637-2.306986.8969412-3.454899 1.3564741l1.859955-.7369695c-1.15648.4533641-2.309223.9141733-3.458171 1.3823689l1.598216-.6453994c-1.09893.4399238-2.194433.8865887-3.286458 1.3399437l1.688242-.6945443c-1.148515.4680194-2.293237.9434195-3.434108 1.4261414l1.745866-.7315971c-1.12096.465367-2.238255.9377832-3.35183 1.4171933l1.605964-.6855962c-1.10183.466203-2.200067.9392352-3.294658 1.4190437l1.688694-.7334475c-1.12161.4828692-2.239446.9728337-3.353452 1.4698367l1.664758-.7363892c-1.13961.499542-2.275267 1.0064291-3.406914 1.5206013l1.742156-.7842121c-1.104068.4925695-2.204374.9920527-3.300862 1.4983945l1.558706-.7141824c-1.072999.4875257-2.142392.9816011-3.208127 1.482175l1.649421-.7679926c-1.121677.5179737-2.23936 1.0431247-3.352989 1.5753942l1.703568-.8074016c-1.099582.5164714-2.19527 1.0398608-3.287008 1.570112l1.58344-.7627104c-1.090926.5214183-2.177962 1.0496678-3.261052 1.5846931l1.677612-.8219827c-1.095891.5322684-2.187803 1.071451-3.275677 1.617491l1.598065-.7955083c-1.068371.5277541-2.132903 1.0621011-3.193543 1.6029879l1.595478-.8074796c-1.103449.5538571-2.202745 1.1147693-3.297828 1.6826775l1.70235-.8751979c-1.080358.5509425-2.156678 1.1086702-3.228904 1.673127l1.526554-.7979291c-1.063124.5513338-2.122277 1.1092611-3.177406 1.6737278l1.650852-.8757987c-1.072663.5646865-2.141228 1.1361076-3.205639 1.7142069l1.554787-.8384082c-1.058717.5663861-2.113383 1.1393561-3.163942 1.7188554l1.609155-.8804472c-1.070563.5814405-2.136923 1.1696366-3.199025 1.7645313l1.58987-.8840841c-1.034667.5707326-2.06535 1.1477985-3.091998 1.7311452l1.502128-.8470611c-1.064062.5959925-2.123848 1.1987082-3.179303 1.8080896l1.677175-.9610285c-1.058355.6013625-2.112421 1.2093998-3.162142 1.8240546l1.484967-.8630261c-1.034037.5970161-2.063916 1.2004301-3.089582 1.8101881l1.604615-.947162c-1.031934.60424-2.059669 1.214876-3.08315 1.831853l1.478535-.884691c-1.041953.61944-2.079559 1.245428-3.112761 1.877906l1.634226-.993215c-1.011776.60992-2.019395 1.226037-3.022804 1.848298l1.388578-.855083c-1.047188.641039-2.089852 1.288745-3.127933 1.94306l1.739355-1.087977c-.995249.617201-1.986357 1.240447-2.973272 1.869686l1.233917-.781709c-1.016446.640678-2.028497 1.287691-3.0361 1.940985l1.802183-1.159276c-.991928.632435-1.979621 1.270925-2.963026 1.915417l1.160843-.756141c-1.016759.659231-2.028988 1.324857-3.03663 1.99682l1.875787-1.240679c-1.024416.671369-2.044179 1.349251-3.059231 2.033589l1.183444-.79291c-.983421.655812-1.962472 1.317661-2.937101 1.985494l1.753657-1.192584c-1.013514.6833-2.022331 1.373035-3.026392 2.069147l1.272735-.876563c-.991225.679205-1.977876 1.3646-2.959896 2.056128l1.687161-1.179565c-.966734.670233-1.929059 1.346377-2.886922 2.028379l1.199761-.848814c-.999905.704122-1.995009 1.414604-2.985253 2.131385l1.785492-1.282571c-.933923.664957-1.863605 1.335483-2.788998 2.01153l1.003506-.728959c-.96327.697257-1.921941 1.400474-2.87596 2.1096l1.872454-1.380641c-.980755.716493-1.956693 1.439188-2.927755 2.168026l1.055301-.787385c-.967372.719051-1.929961 1.444177-2.887709 2.17532l1.832408-1.387935c-.948878.712188-1.893101 1.430242-2.832614 2.154108l1.000206-.766173c-.950607.725691-1.896445 1.45731-2.83746 2.194803l1.837254-1.42863c-.941804.725632-1.878876 1.457104-2.811161 2.194363l.973907-.765733c-.9431.739126-1.881356 1.484152-2.814711 2.235021l1.840804-1.469288c-.93766.741509-1.870478 1.488872-2.798399 2.242033l.957595-.772745c-.932472.75016-1.860053 1.506152-2.782688 2.267921l1.825093-1.495176c-.958366.777872-1.911509 1.56193-2.859367 2.352111l1.034274-.856935c-.913057.753861-1.82127 1.51338-2.724584 2.278503l1.69031-1.421568c-.901407.751458-1.798035 1.508454-2.689831 2.270937l.999521-.849369c-.918289.777807-1.831516 1.561405-2.739625 2.350738l1.740104-1.501369c-.902937.772009-1.800922 1.549641-2.693899 2.332844l.953795-.831475c-.913377.793913-1.821577 1.593627-2.724542 2.399087l1.770747-1.567612c-.673992.591138-1.345132 1.185448-2.013395 1.782909l.242648-.215297c-.888584.792631-1.772099 1.590825-2.650489 2.394528l2.407841-2.179231c-.951521.850706-1.897212 1.707799-2.837005 2.57121l.429164-.391979c-8.652023 7.916362-16.806883 16.367138-24.412318 25.300073-.128394.147971-.255134.297139-.381721.446442l.381721-.446442c-.703232.825978-1.401766 1.656079-2.095562 2.490261l1.713841-2.043819c-.768122.905961-1.530605 1.816854-2.287394 2.732625l.573553-.688806c-.826939.994265-1.647146 1.994329-2.460551 3.000119l1.886998-2.311313c-.753795.912149-1.501941 1.829138-2.244385 2.750912l.357387-.439599c-.687307.849869-1.369757 1.703827-2.047309 2.561832l1.689922-2.122233c-.754258.936442-1.50263 1.877824-2.24506 2.824089l.555138-.701856c-.781876.990114-1.557229 1.985618-2.325994 2.986446l1.770856-2.28459c-.740965.944398-1.476012 1.89366-2.205085 2.84773l.434229-.56314c-.681666.887439-1.358153 1.779064-2.029414 2.67483l1.595185-2.11169c-.738771.966762-1.471409 1.938461-2.197854 2.915039l.602669-.803349c-.679038.906143-1.352729 1.816525-2.021026 2.731097l1.418357-1.927748c-.722675.971509-1.439222 1.947847-2.149583 2.928956l.731226-1.001208c-.759679 1.039629-1.512388 2.084673-2.258058 3.135064l1.526832-2.133856c-.667145.921422-1.328835 1.847052-1.985022 2.776844l.45819-.642988c-.694399.978167-1.382693 1.96097-2.064829 2.948354l1.606639-2.305366c-.711022 1.00749-1.415583 2.019866-2.113623 3.037067l.506984-.731701c-.708449 1.025474-1.410255 2.055889-2.105355 3.091184l1.598371-2.359483c-.6609.963081-1.315955 1.930487-1.965112 2.902168l.366741-.542685c-.655321.976046-1.304681 1.95643-1.948029 2.941098l1.581288-2.398413c-.673152 1.007597-1.339963 2.01979-2.000376 3.036522l.419088-.638109c-.659568 1.009492-1.312815 2.023487-1.959687 3.04193l1.540599-2.403821c-.640701.986384-1.27538 1.977041-1.903985 2.971918l.363386-.568097c-.66483 1.046715-1.322925 2.098128-1.974225 3.154177l1.610839-2.58608c-.639252 1.011727-1.272222 2.027818-1.898857 3.048219l.288018-.462139c-.589298.955516-1.173032 1.914828-1.751158 2.877891l1.46314-2.415752c-.64855 1.056088-1.290313 2.116793-1.925228 3.182054l.462088-.766302c-.619367 1.031763-1.232298 2.067831-1.838735 3.108149l1.376647-2.341847c-.607014 1.018446-1.207768 2.041057-1.802209 3.067778l.425562-.725931c-.617164 1.058718-1.227603 2.121836-1.831259 3.189298l1.405697-2.463367c-.598907 1.034432-1.191406 2.073037-1.777442 3.115761l.371745-.652394c-.57473 1.016308-1.14331 2.036552-1.705692 3.060682l1.333947-2.408288c-.583169 1.03762-1.159939 2.079318-1.730257 3.125041l.39631-.716753c-.613205 1.116681-1.21904 2.237982-1.817439 3.363837l1.421129-2.647084c-.56853 1.042445-1.130649 2.08889-1.686302 3.139282l.265173-.492198c-.545315 1.02598-1.084455 2.055741-1.617371 3.089235l1.352198-2.597037c-.575206 1.087352-1.143484 2.178933-1.704775 3.274685l.352577-.677648c-.565462 1.096613-1.123918 2.197429-1.675306 3.302387l1.322729-2.624739c-.533893 1.042264-1.061464 2.088301-1.582664 3.13806l.259935-.513321c-.548201 1.098571-1.089416 2.201238-1.623588 3.307942l1.363653-2.794621c-.532983 1.073494-1.059303 2.15088-1.578906 3.232105l.215253-.437484c-.502728 1.041557-.999217 2.08669-1.489418 3.135351l1.274165-2.697867c-.53783 1.119151-1.068463 2.242416-1.591839 3.369734l.317674-.671867c-.51874 1.10971-1.030439 2.223371-1.53504 3.340925l1.217366-2.669058c-.498901 1.074599-.991208 2.15288-1.47687 3.234793l.259504-.565735c-.503247 1.114554-.999434 2.23298-1.488504 3.355221l1.229-2.789486c-.490487 1.092662-.974195 2.189028-1.451072 3.289043l.222072-.499557c-.476234 1.092788-.94572 2.189192-1.408405 3.289162l1.186333-2.789605c-.486499 1.122212-.965887 2.248223-1.438109 3.377975l.251776-.58837c-.481329 1.144294-.955298 2.292447-1.421849 3.444397l1.170073-2.856027c-.446 1.06702-.885607 2.137378-1.318772 3.211026l.148699-.354999c-.466647 1.152192-.925873 2.308185-1.377616 3.467918l1.228917-3.112919c-.445399 1.103969-.883987 2.211417-1.315713 3.32229l.086796-.209371c-1.317708 3.382869-2.571757 6.797567-3.760676 10.242622-.03183.075586-.058466.152866-.085068.230161l.085068-.230161c-1.557918 4.514285-3.004003 9.080694-4.334944 13.695917.566503.15354 1.132985.320302 1.700835.498005 4.499722.54057 9.113874 1.953553 13.826877 4.36302 38.493486 19.67934 39.908633 203.00397 39.908633 252.309884l-.000267.538951c-.000536.54539-.001875 1.110054-.004017 1.693587l-.006357.011914c51.536874 60.892899 128.529644 99.552572 214.551864 99.552572 128.469789 0 236.800385-86.22613 270.275748-203.962347-.566691.932617-1.150227 1.872759-1.754763 2.815716-7.783249 12.140338-18.513316 24.090624-32.315695 35.103036-36.052725 28.765144-88.471535 47.916362-159.284323 53.375105-74.501493 5.743095-138.025627-.469614-186.854505-16.052837-41.760208-13.327332-70.514352-33.137536-78.275064-53.149874-8.3454-21.520056-12.118152-68.84474-11.822036-143.463582.027695-6.97902 7.015035-11.783935 13.541711-9.312093 76.601479 29.011204 161.81131 43.534793 255.679779 43.534793 92.989804 0 157.096915-14.283758 192.086383-42.019569 5.480801-4.344577 13.42774-1.828034 15.638724 4.48528-5.433509-31.831057-16.22994-61.832444-31.42043-89.046914-.036454-.065307-.072492-.12981-.108554-.194298l.108554.194298c-.640414-1.14733-1.288637-2.289707-1.944598-3.427059l1.836044 3.232761c-.746903-1.33562-1.504394-2.664514-2.27236-3.986571l.436316.75381c-1.443496-2.502834-2.924463-4.981333-4.442135-7.43473-.182566-.295128-.365442-.589536-.548845-.88358l.548845.88358c-.763941-1.234952-1.537182-2.463543-2.319626-3.685677l1.770781 2.802097c-.688081-1.103172-1.383601-2.201225-2.086489-3.294089l.315708.491992c-.779705-1.217856-1.568549-2.4293-2.366433-3.634234l2.050725 3.142242c-.871659-1.35527-1.75465-2.70256-2.64884-4.041735l.598115.899493c-.778351-1.175435-1.565306-2.344675-2.360775-3.50763l1.76266 2.608137c-.727377-1.08935-1.462164-2.173331-2.204289-3.25187l.441629.643733c-.859102-1.255985-1.728135-2.50464-2.606985-3.745851l2.165356 3.102118c-.88941-1.292591-1.789361-2.577367-2.699727-3.854203l.534371.752085c-.797648-1.126527-1.603382-2.246923-2.41712-3.361103l1.882749 2.609018c-.766449-1.074984-1.54028-2.14434-2.32142-3.207995l.438671.598977c-.90854-1.243985-1.827057-2.480222-2.755431-3.708592l2.31676 3.109615c-.907511-1.23573-1.824887-2.463765-2.752012-3.683988l.435252.574373c-.796635-1.05406-1.600529-2.102328-2.411608-3.144729l1.976356 2.570356c-.84602-1.113478-1.700158-2.220451-2.562326-3.320832l.58597.750476c-.973697-1.2514-1.957749-2.494345-2.952028-3.728707l2.366058 2.978231c-.896839-1.144631-1.802367-2.282129-2.716484-3.412394l.350426.434163c-.809509-1.004977-1.625797-2.004265-2.448793-2.997794l2.098367 2.563631c-.921958-1.139961-1.852655-2.272564-2.791986-3.397708l.693619.834077c-1.866616-2.253395-3.767744-4.477164-5.702574-6.670497-.204466-.231784-.40903-.462914-.613968-.693703l.613968.693703c-.925203-1.048815-1.858112-2.090671-2.798639-3.125478l2.184671 2.431775c-.883029-.994415-1.773008-1.98252-2.669862-2.964238l.485191.532463c-.998419-1.098504-2.005424-2.189065-3.020906-3.271578l2.535715 2.739115c-1.09275-1.19615-2.195705-2.382819-3.308729-3.559868l.773014.820753c-.918941-.979598-1.844825-1.952607-2.777573-2.918945l2.004559 2.098192c-.887196-.93823-1.780788-1.870348-2.680707-2.796285l.676148.698093c-1.095449-1.134898-2.200364-2.260596-3.314621-3.376968l2.638473 2.678875c-1.062708-1.09343-2.134238-2.178239-3.214476-3.254313l.576003.575438c-.945151-.946946-1.897024-1.887182-2.855539-2.82063l2.279536 2.245192c-.962157-.958447-1.931223-1.909965-2.907116-2.854471l.62758.609279c-1.1-1.071233-2.208749-2.133526-3.326129-3.186762l2.698549 2.577483c-1.129491-1.093164-2.268128-2.176937-3.415785-3.251191l.717236.673708c-.958877-.903831-1.92411-1.800992-2.895625-2.69141l2.178389 2.017702c-.990682-.927319-1.988085-1.847547-2.992128-2.760601l.813739.742899c-1.18376-1.084945-2.376847-2.159877-3.579127-3.224663l2.765388 2.481764c-1.069061-.972179-2.14565-1.936226-3.229669-2.892043l.464281.410279c-.983059-.870636-1.972264-1.734488-2.967542-2.591483l2.503261 2.181204c-1.076078-.948815-2.159478-1.88952-3.250104-2.822019l.746843.640815c-2.190185-1.885882-4.409777-3.738558-6.657996-5.557248-.260724-.210912-.521964-.421472-.783588-.631574l.783588.631574c-1.163425-.941149-2.334516-1.873197-3.513164-2.796035l2.729576 2.164461c-1.008288-.809722-2.022283-1.612631-3.041913-2.408655l.312337.244194c-1.106989-.866731-2.220645-1.725339-3.340878-2.575733l3.028541 2.331539c-1.27556-.995829-2.559941-1.980885-3.853006-2.95503l.824465.623491c-1.119591-.849906-2.245751-1.691609-3.378391-2.525017l2.553926 1.901526c-1.036142-.78059-2.077859-1.554175-3.125082-2.320684l.571156.419158c-1.211664-.891555-2.430743-1.773619-3.657128-2.646082l3.085972 2.226924c-1.276206-.934111-2.560587-1.857714-3.853017-2.770682l.767045.543758c-1.139138-.810394-2.284579-1.612504-3.436236-2.406243l2.669191 1.862485c-1.084379-.766001-2.174425-1.524515-3.270061-2.275467l.60087.412982c-1.251734-.862714-2.510812-1.715538-3.777119-2.55836l3.176249 2.145378c-1.270901-.871079-2.549324-1.731982-3.835152-2.582593l.658903.437215c-1.105847-.736024-2.217209-1.46442-3.334009-2.185113l2.675106 1.747898c-1.160396-.767634-2.326823-1.526885-3.499194-2.277667l.824088.529769c-1.346663-.869028-2.701234-1.726855-4.063581-2.573349l3.239493 2.04358c-1.196046-.765944-2.398279-1.523073-3.606607-2.271296l.367114.227716c-1.118185-.694785-2.241608-1.381935-3.370197-2.061378l3.003083 1.833662c-1.250888-.774577-2.508309-1.53961-3.77216-2.294997l.769077.461335c-2.494579-1.501808-5.014396-2.9659612-7.558664-4.3916721-.264162-.1480274-.529106-.2959285-.794314-.4434128l.794314.4434128c-1.293782-.7249869-2.593888-1.4400333-3.900212-2.1450359l3.105898 1.7016231c-1.151305-.6402494-2.307579-1.2726419-3.468751-1.897105l.362853.1954819c-1.236735-.6674463-2.479044-1.3258904-3.726839-1.9752444l3.363986 1.7797625c-1.45149-.7805919-2.910632-1.5487938-4.377285-2.304464l1.013299.5247015c-1.260818-.6561313-2.527238-1.3029818-3.799169-1.940461l2.78587 1.4157595c-1.147066-.5910079-2.298726-1.1743506-3.454913-1.7499602l.669043.3342007c-1.376061-.6896686-2.758572-1.3683686-4.147419-2.0359853l3.478376 1.7017846c-1.405087-.6995246-2.816859-1.3876283-4.235195-2.0641897l.756819.3624051c-1.235634-.5939676-2.476283-1.1791624-3.721866-1.7555037l2.965047 1.3930986c-1.23139-.5873864-2.467729-1.1660726-3.708935-1.7359791l.743888.3428805c-1.417565-.6559185-2.84152-1.3003698-4.271746-1.9332349l3.527858 1.5903544c-1.41511-.6497555-2.836548-1.2880987-4.264196-1.9149117l.736338.3245573c-1.206607-.5339151-2.417678-1.0595838-3.633141-1.5769347l2.896803 1.2523774c-1.283969-.5637301-2.57296-1.118134-3.866889-1.663126l.970086.4107486c-1.501066-.6389151-3.00883-1.2651442-4.523159-1.8785525l3.553073 1.4678039c-1.348936-.5681608-2.703238-1.1260924-4.062808-1.6736978l.509735.2058939c-1.21275-.491248-2.429711-.9742734-3.650812-1.4490068l3.141077 1.2431129c-1.390375-.5600126-2.78626-1.1092256-4.187551-1.6475353l1.046474.4044224c-1.471628-.5721321-2.949271-1.132221-4.432806-1.6801455l3.386332 1.2757231c-1.237042-.4752129-2.478297-.9419287-3.723693-1.4000759-1.178103-.4333915-2.359895-.8591091-3.545332-1.2770987l3.545332 1.2770987c-1.516151-.5577499-3.03844-1.1028006-4.566738-1.6350229l1.021406.3579242c-1.413611-.498445-2.832407-.9859007-4.256284-1.4622646l3.234878 1.1043404c-1.243872-.4331725-2.491725-.8578473-3.74349-1.2739547l.508612.1696143c-1.396251-.4671216-2.797389-.9235775-4.203315-1.3692711l3.694703 1.1996568c-1.561061-.518923-3.128205-1.0245218-4.701297-1.5166617l1.006594.3170049c-1.332866-.4225326-2.670037-.8353923-4.011429-1.2384968l3.004835.9214919c-1.280652-.4006503-2.565245-.7923807-3.853708-1.1751182l.848873.2536263c-1.515904-.4555472-3.0372-.8986357-4.563769-1.3291467l3.714896 1.0755204c-1.520711-.4517266-3.046811-.8909264-4.578182-1.3174796l.863286.2419592c-1.339546-.3777683-2.683153-.7458521-4.03074-1.104171l3.167454.8622118c-1.338905-.3729431-2.681838-.7362188-4.02872-1.0897472l.861266.2275354c-1.546562-.4112258-3.098367-.8095901-4.655291-1.1949715l3.794025.9674361c-1.518725-.3986336-3.042471-.7848739-4.571123-1.1586064l.777098.1911703c-1.31822-.3262952-2.640109-.6432834-3.965596-.9508907l3.188498.7597204c-1.397489-.3416652-2.799078-.6728769-4.204681-.9935475l1.016183.2338271c-1.618253-.3755497-3.241866-.737117-4.870707-1.0845677l3.854524.8507406c-1.413213-.3224069-2.830483-.6341584-4.25172-.9351652l.397196.0844246c-1.301441-.2776125-2.606219-.5462129-3.914266-.805733l3.51707.7213084c-1.523146-.3225906-3.05085-.6328404-4.583-.93064l1.06593.2093316c-1.623424-.3220916-3.251882-.6301962-4.885244-.9241829l3.819314.7148513c-1.310012-.2546233-2.623275-.5001448-3.939721-.736496-1.308286-.2348875-2.619976-.4607612-3.934743-.6775071l3.934743.6775071c-1.643304-.2950345-3.291566-.5757797-4.944655-.8421023l1.009912.1645952c-1.489277-.2455146-2.982502-.4793175-4.479577-.7013111l3.469665.5367159c-1.34849-.21725-2.700191-.4249027-4.055031-.622886l.585366.0861701c-1.484974-.2201991-2.973736-.4287789-4.466192-.6256441l3.880826.539474c-1.663953-.2431542-3.332641-.4717232-5.005931-.6855733l1.125105.1460993c-1.49653-.1974028-2.996774-.3830269-4.500635-.5567761l3.37553.4106768c-1.341941-.171503-2.686841-.3335392-4.034631-.4860395l.659101.0753627c-1.548011-.17885-3.099854-.3451178-4.655425-.4986982l3.996324.4233355c-1.654094-.187158-3.312541-.3599533-4.975213-.5182581l.978889.0949226c-1.449114-.1430701-2.901464-.2751301-4.356963-.3960951l3.378074.3011725c-1.398474-.1331503-2.799937-.2560493-4.204313-.368621l.826239.0674485c-1.61198-.13397-3.227825-.2543312-4.847418-.3609684l4.021179.2935199c-1.629112-.130586-3.262144-.247275-4.898978-.3499485l.877799.0564286c-1.431533-.094255-2.865995-.177788-4.303306-.2505196l3.425507.194091c-1.45114-.0910254-2.905268-.1710349-4.362301-.2399458l.936794.0458548c-1.687771-.0854055-3.37947-.1559172-5.074969-.2114061l4.138175.1655513c-1.514042-.0716072-3.03122-.1312303-4.551443-.1787765l.413268.0132252c-1.363247-.0446153-2.72895-.0795188-4.097044-.1046435l3.683776.0914183c-1.599589-.0500285-3.202548-.0866863-4.80877-.1098653l1.124994.018447c-1.749863-.0321358-3.503635-.0482737-5.261177-.0482737zm230.968953 519.10834c-.885242.490698-1.780825 2.35384-1.892579 5.856037-.154406 4.838875 1.440507 10.861059 4.639314 16.631858 3.198806 5.7708 7.460732 10.314634 11.646154 12.747903 3.029252 1.76111 5.083873 1.988927 5.969115 1.498229.885242-.490697 1.780825-2.35384 1.892579-5.856036.154406-4.838876-1.440507-10.86106-4.639313-16.631859-3.198807-5.770799-7.460733-10.314634-11.646155-12.747903-3.029252-1.761109-5.083873-1.988927-5.969115-1.498229zm-411.004508-268.189663v.468556c.248076 63.529301 3.873597 104.403044 10.473919 121.423116 5.070063 13.074031 29.140783 29.657584 65.708739 41.327864 46.240549 14.757185 107.195756 20.718651 179.236685 15.165234 66.975967-5.162975 115.572847-22.91785 148.347981-49.067925 12.082011-9.639793 21.341671-19.952457 27.952252-30.263664 4.518217-7.04753 7.420669-13.589322 8.384948-17.590274l.043476-.190907.01369-.124415c.015139-.145342.032297-.314711.051077-.504609l.019307-.196613c.094215-.965978.210527-2.247811.335639-3.713793.322283-3.776308.657423-8.218743.965202-12.951022.847067-13.024162 1.356698-26.057278 1.356698-37.87682 0-4.831413-.834688-12.557219-2.510466-23.037227l-.005147-.029501-.659952.40545c-40.179771 24.34451-102.654274 36.36692-187.583623 36.634013l-2.904018.004553c-90.439195 0-173.272925-13.1937-248.459424-39.610976z"/></svg>