<svg height="960" viewBox="0 0 960 960" width="960" xmlns="http://www.w3.org/2000/svg"><path d="m294.619031 3.23993447c4.434632 0 69.894238.20814384 187.156802.59065282l3.038711.00991343c20.352588.0664057 41.354309.13507777 67.428908.22044369 4.095824.01340937 47.750799.15637661 58.729724.19230044 39.189899.12823214 57.454668.18739629 57.905619.18739629 1.734848 0 3.472391.06037015 5.340046.21657998 2.686619.22470755 5.39036.62863729 8.194175 1.29658837 4.027109.95937545 8.004841 2.39870071 11.963432 4.54855211 5.611755 3.0476608 10.698759 7.279353 14.804424 12.8666253l-.291954-.3910762.013351.0181207-.011557-.0158533c.067273.0850277.169017.2125076.303146.3794282.344495.4287177.620526.769201 1.763356 2.176395 2.529269 3.1143507 4.228172 5.2201666 6.483307 8.0521581 6.935484 8.7095603 14.416033 18.4249785 22.923458 29.8954567 6.445058 8.6898081 11.37621 17.2403039 15.004623 26.2343302 4.415714 10.9455697 6.699619 21.9376617 7.588964 34.5104747.344215 4.866234.488157 9.940947.488157 15.956679 0 4.187545-.026142 6.275487-.18958 16.194641-.125617 7.623712-.178672 12.335405-.178672 17.765788v527.136554c0 80.536264-11.675075 125.89695-40.825304 161.248206-14.173933 17.189106-34.592111 39.115069-61.431083 66.040074-6.873382 6.895414-16.025703 11.047241-25.741323 11.677204-6.45323.418428-11.237865.637189-14.798789.644089l-.023794.000788c.008065-.000262-.216423.007299-.286537.009573-.178981.005804-.343445.010633-.526647.015071-.743998.018022-1.459305.022419-2.325316.000214-1.66479-.042687-3.36587-.172769-5.306316-.471073-3.236757-.497586-6.533297-1.379782-9.974521-2.866371-5.407833-2.336153-10.067874-5.728449-13.819231-9.853397-42.20285 1.507845-125.004476 4.73705-167.346038 6.533004-33.283817 1.411761-77.87769 8.345247-133.346456 20.891667-18.122107 4.09902-36.984402-2.491534-48.617164-16.96163-13.870186-17.253249-23.093386-29.186688-28.136968-36.486146-5.119586-7.409457-8.789574-15.710342-11.097411-24.68998-2.051014-7.980359-3.01401-16.433779-3.01401-25.362466v-732.716067c0-23.5714203 4.494774-39.3752351 14.595179-53.0831614.473396-.6424779.926006-1.2386878 1.438778-1.9016325.215431-.2785233.809541-1.0413149.882218-1.135126 3.986159-5.145309 15.836289-19.7080228 24.968473-30.7278529 3.208038-3.8711472 6.414581-7.3046198 9.805347-10.4096296 4.055762-3.7139634 8.339199-6.9208447 12.98591-9.6064414 10.282864-5.94304852 21.508318-8.83106473 33.482563-8.83106473zm45.307746 47.30938803c-8.750931 10.5069149-15.467783 18.9518411-20.127059 25.2976715-3.195258 4.3518695-7.359501 10.3536369-12.489243 18.004851.695681.6517693 1.309813 1.415063 1.813585 2.2823436 9.1239 15.7074484 13.763512 31.4848994 13.763512 47.2261464v75.929101l7.412098 545.278976c.003127.229988-.001683.460016-.01442.689673-1.915611 34.540174-6.897352 58.476488-15.585613 72.432281-8.728016 14.019649-26.712128 26.99465-53.988346 39.637108 1.851573 3.724917 3.552915 6.948351 5.102033 9.66802 2.94613 5.172295 8.493071 12.773536 16.559533 22.611744 1.258623 1.535072 1.984306 3.33241 2.199239 5.167765 21.258252-4.719844 41.008023-8.63659 59.248899-11.749138.481336-.283526.993503-.530158 1.533745-.735031 13.246626-5.023434 23.366433-13.35061 30.643987-25.193903 7.52777-12.250489 12.10216-28.420884 13.567847-48.590301 3.139029-43.196395 13.715851-257.201547 31.705643-641.566842.016578-.354209.051985-.707285.10607-1.057732 3.843077-24.901408 3.265213-45.621198-1.568594-62.142128-4.64414-15.872688-13.210647-27.9020288-25.871646-36.4648921-21.794021-14.7396921-39.669774-26.8939273-53.63117-36.4654586zm25.056688-7.097332c11.439463 7.8006501 24.826265 16.8863731 40.159037 27.2562052 16.588053 11.218802 27.932907 27.1495769 33.862436 47.4154553 5.694325 19.461998 6.387214 42.840691 2.226045 70.164082-17.995626 384.481951-28.559524 598.218085-31.717008 641.66845-1.683152 23.161963-7.123131 42.392203-16.475261 57.611605-2.035425 3.312395-4.251624 6.426433-6.645887 9.34009 11.697177-1.316635 22.558682-2.18722 32.584635-2.61248 45.366848-1.924273 140.445211-5.624875 178.589782-6.929351 8.668128-.296435 17.288221 3.958509 18.902853 9.120016 1.614633 5.161507-.165817 4.407164 3.595343 4.407164 1.510935 0 3.615405-.068002 6.313407-.204006 4.908668-8.267227 8.187201-15.016919 9.831145-20.120024 2.802007-8.697943 5.245462-21.462042 7.299616-37.717903 1.825533-14.446631 3.314715-31.367483 4.536066-50.628529.871579-13.74505 1.583195-28.252596 2.219413-44.400881.246878-6.266185.474821-12.568038.725098-19.916035.116785-3.428748.49793-14.89729.574538-17.14819 1.336552-39.270569 6.967973-132.731812 15.855659-267.552324.523818-7.945973 1.057675-16.015781 1.601583-24.210502 3.378296-50.898701 6.815239-101.737322 11.061657-163.934897.761459-11.153136 3.497661-51.172104 4.063806-59.471186 1.224302-17.946964 1.926598-28.347708 2.302039-34.131384 1.393564-21.467937.48793-42.326166-3.533283-65.6418113-2.085204-12.0903587-7.475032-29.2800941-16.168771-51.3806794l.012544-.000331c-21.403882-.0660871-199.011448-.653509-301.007511-.9792823zm333.265683 30.5831454c1.987727 6.8677114 3.446398 12.9909117 4.376059 18.3812353 4.300247 24.9335358 5.273882 47.3579378 3.782254 70.3365438-.377424 5.814234-1.080449 16.22577-2.306408 34.197027-.566274 8.300982-3.302528 48.3207-4.063881 59.472284-4.245632 62.186073-7.681807 113.013328-11.059116 163.897151-.543712 8.191784-1.077373 16.25861-1.60099 24.20155-8.870065 134.553212-14.497815 227.953529-15.823916 266.917027-.076242 2.240157-.457399 13.709047-.574556 17.148712-.251394 7.380781-.480562 13.716522-.729011 20.022577-.642038 16.296011-1.361166 30.956693-2.243997 44.879188-1.245608 19.643586-2.769478 36.958574-4.653769 51.870202-1.354457 10.718701-2.881893 20.094263-4.617844 28.078524 13.426679-14.116856 24.31222-26.234656 32.657026-36.354623 19.857876-24.082174 31.686472-57.349025 31.686472-135.800451v-527.136554c0-44.800124 4.068302-61.337645-14.841339-86.8333285-3.592832-4.8441798-6.887453-9.2158772-9.879347-13.1359081zm-397.622083 52.7226811.017772 2.935309c.927071 158.222648 1.390187 245.917101 1.390187 263.246921 0 19.3013-9.13544 73.464809-27.538679 164.07939-.037535.184817-.080291.368535-.128216.550934-11.486895 43.718061-17.215506 84.324149-17.215506 121.81433 0 36.772072-.484791 96.140766-1.455751 178.193669 22.084826-10.589556 36.103264-20.947477 42.024175-30.458126 6.418214-10.309459 10.821829-31.39803 12.575375-62.65491l-7.407926-544.972033c-.000616-.045304-.000924-.090611-.000924-.13592v-75.997046c0-5.465802-.748661-10.996664-2.260507-16.602518zm-6.008034-83.5178825c-10.170398 0-17.249459 4.444534-25.474973 14.3702826-8.225513 9.9257486-20.280247 24.7115952-24.146387 29.7019834-3.866139 4.9903883-8.537108 10.2313844-8.537108 31.6226425l-.000319 668.727039c.461666-46.868375.692379-82.962864.692379-108.277181 0-39.183959 5.934923-81.358728 17.78126-126.53126 18.023804-88.75813 27.101141-142.589505 27.101141-159.913394 0-18.287582-.519441-115.566897-1.557856-291.724137-.011599-1.9676409.557548-3.8949765 1.636173-5.5406715 9.329519-14.234366 16.503751-24.7713727 21.565146-31.6648789 4.060032-5.5296737 9.482199-12.4225174 16.279573-20.6991772l-.011265-.0000883c-14.61044-.0448423-23.822057-.0711596-25.327764-.0711596z"/></svg>