<svg height="960" viewBox="0 0 960 960" width="960" xmlns="http://www.w3.org/2000/svg"><path d="m480.5 2c82.633305 0 160.607544 15.5461807 219.641349 43.373386 30.632477 14.4394594 55.8411 32.0282847 74.115847 52.3947866 21.015676 23.4211624 32.742804 50.4353534 32.742804 79.2814714v107.875501c-.220626 29.912337-11.679809 58.21295-32.336049 83.101511-15.883831 19.138318-37.066065 36.114236-62.511662 50.568213l-.798289.450131-.680967 1.301044c-32.123728 61.407541-55.555509 113.22879-70.269522 155.203587l-.471621 1.35061c-18.515289 53.230483-32.34806 117.755741-41.345036 193.482951l-.270854 2.285808.484 105.137.066782.849877c.066508.958377.108189 1.919063.124873 2.881341l.008345.962782c0 15.828068-6.537009 29.916253-17.279104 41.116554-7.898503 8.235414-17.903081 14.766151-29.493618 19.877646-19.980627 8.811576-45.146709 13.5058-71.457514 13.5058-25.739453 0-50.298334-4.506644-69.988283-12.99405-11.27388-4.859636-21.084711-11.053519-28.964623-18.80839-8.762297-8.623253-15.005126-19.056971-17.552777-30.905305l-.128081-.613255-.127181-.468458c-.804444-3.055905-1.25637-6.254684-1.309719-9.550169l-.005341-.660373-.000759-110.244-.005947-.051129c-8.898271-75.955812-22.6339-140.710619-41.053611-194.171597l-.565332-1.633033c-14.680655-42.206113-38.267685-94.478311-70.737485-156.557419l-.680625-1.298822-1.734288-.984615c-56.428903-32.31121-91.455978-76.90925-93.793089-128.607747l-.064609-1.68833c-.006556-.209195-.011471-.418438-.014743-.62771l-.029383-1.879263c-.003241-.207314-.004871-.41465-.004888-.621989l-.009-107.581356v-.69071l.044289-2.233293c.00394-.229267.009852-.458496.017734-.687661.975289-28.354751 13.248424-54.737793 34.437803-77.5996825 18.478001-19.9364978 43.676164-37.1589619 74.13234-51.2979002 58.831723-27.3119678 136.071998-42.5437433 217.867834-42.5437433zm-34.551343 862.157959-.046669.126252c-1.230236 3.339521-1.901988 6.949207-1.901988 10.715789l-.002889 37.920638c10.888004 2.593546 23.351064 4.069285 36.636365 4.079311l-.133476.000051c12.381166 0 24.09153-1.257917 34.50121-3.49787l-.00121-38.50213c0-3.267717-.505595-6.417345-1.442825-9.374925-1.183535 3.162988-3.041323 5.983693-5.369679 8.375683-2.713692 2.787856-5.906324 4.845986-9.441771 6.39233-5.340544 2.335864-11.653051 3.534491-18.151369 3.603747l-.106676.000852-.381218.002313h-.106462c-6.596126 0-13.026315-1.161964-18.464195-3.485209-3.580095-1.529537-6.81551-3.575577-9.570001-6.357871-2.757699-2.785535-4.873921-6.164032-6.017147-9.998961zm220.826318-446.024173-2.452283 1.00979c-51.401793 20.83015-115.177105 32.856424-183.822692 32.856424-69.743886 0-134.452758-12.413026-186.266819-33.856526 29.010156 56.636327 50.548067 105.17482 64.614727 145.615728 19.935208 57.31268 34.550492 126.207591 43.845851 206.684736v112.556062l.316103.000747c.008173.22917.021413.457797.039672.685861.692412 8.648501 8.502265 16.498403 20.948213 22.402981l.002253-31.089589c0-26.292181 19.895682-47.937476 45.45298-50.701821.008729.000746.017397-.000193.026066-.001131.242419-.027777.48543-.052181.728939-.074874.059453-.004229.118093-.009617.17675-.014905.185553-.017904.372292-.033629.559314-.048344.117493-.008281.234424-.017126.351416-.025571.151912-.011772.304411-.022038.457091-.031632l.353564-.020437c.158493-.009425.31692-.017554.475538-.024959l.318217-.013559c.153962-.006547.307691-.012087.461592-.016944.11231-.003375.225024-.006588.337783-.009432.432212-.010947.865845-.016391 1.30075-.016391h9l.639.004.493782.008332c.159391.003596.319059.007844.478631.012833l.258262.00847c.175896.006636.351649.013917.527275.022096.121928.005241.24431.011339.366576.017868.115525.006725.230491.013292.3454.020244.183695.010407.367462.022448.55096.035459l.153585.012034c.208598.01451.416308.03114.623663.049011.024483.003298.04982.005512.075154.007744 26.053458 2.28325 46.487712 24.156209 46.487712 50.80128l.002354 32.364959c14.792877-6.276683 23.997646-15.09645 23.997646-24.86433 0-.81208-.063622-1.617607-.188789-2.415664l-.50497-109.640398c9.295359-80.477145 23.910643-149.372056 43.845851-206.684736 14.067587-40.443574 35.607411-88.9858 64.622883-145.625416zm100.234623-184.862209c-44.008591 59.429211-156.557707 98.663064-286.765852 98.663064-129.69385 0-241.867894-38.924534-286.241173-97.95981l.004427 25.033169.002 25.115.029383 1.832719c2.530021 80.881632 129.814332 146.044281 286.461617 146.044281 157.907321 0 285.977389-66.215173 286.5-148zm-286.575497-191.2715479-1.724101.0059709-2.947801.0120192c-3.110158.0236731-6.208269.0706123-9.293577.1404629-150.148685 3.4138812-269.9762 61.3111289-272.430239 132.6578689l-.033383 1.941649.004.242-.007438 5.960524c6.656568 71.759393 132.265116 128.974117 286.242184 128.974117 158.24041 0 286.519608-60.426928 286.519608-134.967321 0-74.510501-128.176336-134.9188538-286.329253-134.9672909zm-.190355 10.8823238c74.686919 0 144.518208 13.6797253 196.500237 38.16627 24.627067 11.6007741 44.046919 24.9431111 57.572723 40.3251201 11.568233 13.155792 18.132922 26.850728 18.132922 42.162205 0 15.311476-6.564689 29.006413-18.132922 42.162205-13.525804 15.382008-32.945656 28.724346-57.572723 40.32512-51.982029 24.486544-121.813318 38.166269-196.500237 38.166269s-144.518208-13.679725-196.500238-38.166269c-24.627066-11.600774-44.046919-24.943112-57.572722-40.32512-11.568234-13.155792-18.132923-26.850729-18.132923-42.162205 0-15.311477 6.564689-29.006413 18.132923-42.162205 13.525803-15.382009 32.945656-28.724346 57.572722-40.3251201 51.98203-24.4865447 121.813319-38.16627 196.500238-38.16627zm0 20c-73.339211 0-139.869744 13.5979062-187.977341 36.2593691-21.541942 10.147501-39.199182 21.931773-51.076331 35.438875-7.843607 8.920019-13.152211 18.476724-13.152211 28.955351s5.308604 20.035332 13.152211 28.955351c11.877149 13.507102 29.534389 25.291373 51.076331 35.438875 48.107597 22.661462 114.63813 36.259368 187.977341 36.259368s139.869744-13.597906 187.97734-36.259368c21.541942-10.147502 39.199183-21.931773 51.076332-35.438875 7.843607-8.920019 13.15221-18.476724 13.15221-28.955351s-5.308603-20.035332-13.15221-28.955351c-11.877149-13.507102-29.53439-25.291374-51.076332-35.438875-48.107596-22.6614629-114.638129-36.2593691-187.97734-36.2593691zm-82.588829 138.9886181c8.553974 0 16.709569 1.793754 23.07661 5.104615 7.843582 4.078663 13.034132 10.46002 13.034132 18.472972s-5.19055 14.394309-13.034132 18.472971c-6.367041 3.310861-14.522636 5.104615-23.07661 5.104615-8.553975 0-16.709569-1.793754-23.076611-5.104615-7.843581-4.078662-13.034132-10.460019-13.034132-18.472971s5.190551-14.394309 13.034132-18.472972c6.367042-3.310861 14.522636-5.104615 23.076611-5.104615zm0 20c-5.484606 0-10.486374 1.100097-13.849556 2.848951-.442427.230062-.832667.459411-1.169015.680666l-.071172.047383.071172.048556c.269079.177004.572648.359188.909835.542773l.25918.137893c3.363182 1.748855 8.36495 2.848951 13.849556 2.848951 5.484605 0 10.486373-1.100096 13.849556-2.848951.442426-.230062.832666-.459411 1.169014-.680666l.070687-.048556-.070687-.047383c-.269078-.177004-.572647-.359188-.909834-.542773l-.25918-.137893c-3.363183-1.748854-8.364951-2.848951-13.849556-2.848951zm-68.352122-59.224138c8.294 0 16.20594 1.740164 22.392792 4.957327 7.663392 3.984964 12.750886 10.23962 12.750886 18.117386s-5.087494 14.132422-12.750886 18.117386c-6.186852 3.217163-14.098792 4.957327-22.392792 4.957327-8.294001 0-16.205941-1.740164-22.392793-4.957327-7.663392-3.984964-12.750885-10.23962-12.750885-18.117386s5.087493-14.132422 12.750885-18.117386c6.186852-3.217163 14.098792-4.957327 22.392793-4.957327zm204.994855-78.7583405 92.969868 79.6474555-119.735662 31.444536-83.766197-85.347533zm-204.994855 98.7583405c-5.224632 0-9.982746 1.046507-13.165738 2.701663-.164378.085477-.320766.170667-.469067.255107l-.202873.11723.202873.118656c.07415.04222.150323.084628.228505.127165l.240562.127942c3.182992 1.655156 7.941106 2.701663 13.165738 2.701663 5.224631 0 9.982745-1.046507 13.165738-2.701663.164377-.085476.320765-.170667.469067-.255107l.201517-.118656-.201517-.11723c-.074151-.04222-.150323-.084628-.228505-.127165l-.240562-.127942c-3.182993-1.655156-7.941107-2.701663-13.165738-2.701663zm-12.068966-70.287356c8.294001 0 16.205941 1.740164 22.392793 4.957327 7.663392 3.984964 12.750885 10.23962 12.750885 18.117386 0 7.877765-5.087493 14.132422-12.750885 18.117386-6.186852 3.217163-14.098792 4.957326-22.392793 4.957326s-16.20594-1.740163-22.392793-4.957326c-7.663391-3.984964-12.750885-10.239621-12.750885-18.117386 0-7.877766 5.087494-14.132422 12.750885-18.117386 6.186853-3.217163 14.098792-4.957327 22.392793-4.957327zm0 20c-5.224631 0-9.982745 1.046507-13.165738 2.701663-.164378.085476-.320765.170666-.469067.255107l-.202873.11723.202873.118656c.074151.04222.150323.084628.228505.127165l.240562.127942c3.182993 1.655156 7.941107 2.701662 13.165738 2.701662 5.224632 0 9.982745-1.046506 13.165738-2.701662.164378-.085477.320766-.170667.469067-.255107l.201517-.118656-.201517-.11723c-.074151-.04222-.150323-.084628-.228505-.127165l-.240562-.127942c-3.182993-1.655156-7.941106-2.701663-13.165738-2.701663z"/></svg>