<svg height="960" viewBox="0 0 960 960" width="960" xmlns="http://www.w3.org/2000/svg"><path d="m601.787873 13.7915621.128127.0284379 1.366971.0361161c8.687554.2640961 17.380336.9060179 26.077879 1.9292569l2.007209.2429026c206.526749 25.8761682 345.082674 258.6487824 315.698406 515.9619274-13.26943 115.945999-59.057057 220.555108-128.350049 296.702488-69.859946 76.770417-159.586742 120.076445-253.252759 119.271649l-.472603.017227c-1.07381.03375-2.157099.019853-3.248073-.028794l-.655493-.037418-.549488-.036355-1.151249-.028467c-9.07696-.261582-18.159461-.933298-27.233791-2.016927l-.99396-.122606-179.323-13.217-1.309486-.061508c-9.226506-.469667-18.454045-1.370219-27.6446-2.699446l-1.968825-.291396c-201.497879-30.325478-336.833191-254.570126-308.0525136-498.917255 26.0611533-221.738319 179.2838646-395.0855147 361.2490956-405.4917395l.048727-.0026452.015001-.002416c1.077208-.1678512 2.172268-.2940466 3.283963-.3765969l.836872-.0536982 213.235387-11.5388626c3.557841-.1925264 6.991145.0717653 10.258252.7331255zm-8.194104 39.209274-27.094701 1.4650825c-158.009901 16.7052144-294.719488 174.3915104-318.820198 380.7210704-27.114392 231.597614 98.570999 441.136539 280.726179 468.783027 182.15518 27.958685 351.801688-140.67768 378.916081-377.424602 2.427658-21.244564 3.630424-42.28218 3.677435-62.995973.124995-210.315181-118.894234-387.0694422-284.603309-407.8314788-11.060583-1.3757428-22.074996-2.032059-33.014167-1.9992765l.307782-.7180722c-.031701.0000684-.063402.0001427-.095102.0002226zm-120.634393 6.5282309-92.503774 5.0097956.099671.2235702c-161.267287 6.6635884-303.6091792 163.1756652-327.9681392 370.4310692-26.4625633 224.666416 96.3362922 427.913194 274.2789242 454.693602 9.173507 1.388691 18.314486 2.276402 27.405129 2.678509l90.583292 6.683555c-146.731765-68.731702-239.001124-255.75463-217.840313-459.148464l.799762-7.234076c20.40783-174.714294 118.937926-316.685526 245.145448-373.337561zm163.135113 23.3155433c80.83594 10.2132273 151.051054 61.7560257 198.76837 141.1758267 49.72844 83.00687 71.114459 189.43958 58.657524 298.235907-12.471821 108.815918-57.295615 205.850674-124.513267 272.354589-64.46365 63.510806-144.632165 93.97897-225.574915 81.722402-80.554283-12.139259-150.589318-64.512471-198.252225-143.557112-49.781537-82.318081-71.163463-186.952087-58.695679-293.698108 12.348819-105.836794 56.374576-201.02984 122.427893-267.790937l1.978791-1.984862c64.454102-64.419637 144.426207-96.6048865 225.203508-86.4577057zm-211.065155 100.6036227c-62.371583 62.078533-106.447494 153.109509-118.6798 257.947717-12.232305 104.729917 9.628178 204.442876 55.944362 281.030697 42.824814 71.021068 106.899048 122.493262 184.118588 134.129987 77.21954 11.692784 150.888246-19.375227 208.558182-76.192738 62.371583-61.709361 106.447494-153.658761 118.6798-260.384921 12.232305-106.834453-9.628178-208.369004-55.944362-285.680127-42.824814-71.276782-106.899048-121.85567-184.118588-131.611982-77.21954-9.7002533-150.888246 23.122269-208.558182 80.761367zm15.964755 25.691111c5.673972.639948 10.942835 3.447116 14.677596 7.954283l34.226686 41.355992c3.737526 4.521578 5.500621 10.227016 5.026042 15.910324-.482612 5.779354-3.24393 11.126285-7.817021 14.839377-4.559875 3.701607-10.354385 5.319955-16.120768 4.655241-5.670203-.65346-10.933486-3.471145-14.657608-7.975251l-34.22054-41.336998c-3.742274-4.514967-5.50805-10.215683-5.032785-15.896189.482926-5.772214 3.244198-11.114194 7.81382-14.827496 4.553962-3.701331 10.341934-5.329062 16.104578-4.679283zm-6.013684 17.09596c-1.152235.936313-1.836147 2.259415-1.96042 3.744797-.12788 1.528455.352571 3.079566 1.410169 4.355536l34.226687 41.344423c1.073068 1.297811 2.563084 2.095487 4.161804 2.279731 1.551512.178849 3.039323-.236682 4.204047-1.182179 1.148657-.932645 1.832619-2.257047 1.957216-3.749116.128584-1.539861-.354665-3.103673-1.410763-4.38132l-34.220541-41.348567c-1.068402-1.289363-2.552697-2.080172-4.147499-2.260045-1.555116-.17535-3.049667.244957-4.2207 1.19674z"/></svg>