<?xml version="1.0" encoding="UTF-8"?>
<svg width="960px" height="960px" viewBox="0 0 960 960" version="1.1" xmlns="http://www.w3.org/2000/svg" xmlns:xlink="http://www.w3.org/1999/xlink">
    <!-- Generator: Sketch 60.1 (88133) - https://sketch.com -->
    <title>ZPIR-8000icon2</title>
    <desc>Created with Sketch.</desc>
    <g id="ZPIR-8000icon2" stroke="none" stroke-width="1" fill="none" fill-rule="evenodd">
        <path d="M477,708 C464.184983,708 451.541562,708.822416 439.07385,710.468302 C422.979497,712.592948 410.458628,725.505753 408.830905,741.65793 L408.613729,743.88176 C407.53649,755.283308 407,766.641036 407,778 C407,790.068353 407.605589,802.332214 408.815349,814.790493 C410.434716,831.466963 423.645645,844.656688 440.324695,846.249264 L442.571878,846.457196 C454.075503,847.487015 465.537242,848 477,848 C489.204791,848 501.574814,847.418452 514.109011,846.256456 C531.219791,844.670182 544.647988,830.896745 545.799484,813.751218 L545.974624,811.039902 C546.659007,800.001238 547,789.000629 547,778 C547,766.056903 546.598075,754.303298 545.793672,742.739581 C544.635285,726.08715 531.878251,712.570294 515.320594,710.451495 L513.354502,710.206441 C501.206585,708.733657 489.103802,708 477,708 Z M477,738 C487.894766,738 498.791896,738.660572 509.694626,739.982317 L511.562012,740.215074 C513.878077,740.511532 515.70051,742.442511 515.865994,744.821429 C516.621814,755.686742 517,766.746135 517,778 C517,788.381127 516.678196,798.762687 516.034545,809.145122 L515.864378,811.779431 C515.702414,814.190303 513.7841,816.157936 511.339704,816.384547 C499.71872,817.461882 488.272506,818 477,818 C466.431046,818 455.861778,817.526958 445.290875,816.580699 L443.132077,816.380942 C440.793514,816.157582 438.906239,814.273336 438.674901,811.890984 C437.557828,800.387201 437,789.090568 437,778 C437,767.584198 437.492013,757.16807 438.476258,746.750063 L438.68434,744.619381 C438.912255,742.358469 440.70095,740.513784 443.000143,740.210263 C454.159413,738.737106 465.491328,738 477,738 Z" id="Rectangle" fill="#000000" fill-rule="nonzero"></path>
        <path d="M482.597204,2 L480,2 C393.372734,2 312.074294,4.91613314 251.400931,10.0395288 L246.595234,10.4537921 C218.857978,12.8946728 196.320974,15.7596907 180.068178,18.949321 C170.863267,20.7557957 163.554911,22.6825759 158.056511,24.832505 C154.653145,26.1632549 151.779828,27.6318055 149.334421,29.4257212 C145.291355,32.3916567 142.30428,36.2470228 141.30461,41.5335173 L141.175357,42.2170364 L141,44.0729211 L141,889.44157 L141.1016,890.695577 L141.112527,890.809003 C141.927953,899.273631 146.784575,906.267174 154.385932,912.101505 C160.205092,916.567931 167.93196,920.566716 177.564618,924.277542 L179.011194,924.827198 C196.552895,931.402189 220.664282,937.223766 250.210187,942.121207 C311.305144,952.248125 392.995758,958 480,958 C566.651543,958 648.024616,952.294339 709.022012,942.248239 L710.864165,941.942484 C741.304781,936.850822 765.903468,930.774014 783.422753,923.894757 C793.029401,920.122538 800.693083,916.051065 806.414741,911.4783 C813.831301,905.550964 818.475122,898.403276 818.965483,889.897547 L819,889.129373 L819,44.0729211 L818.824643,42.2170364 L818.69539,41.5335173 C817.69572,36.2470228 814.708645,32.3916567 810.665579,29.4257212 C808.220172,27.6318055 805.346855,26.1632549 801.943489,24.832505 C796.611707,22.7477252 789.578001,20.8727752 780.763409,19.1138803 L779.931822,18.949321 C762.750295,15.5774261 738.545844,12.5683021 708.599069,10.0395288 L704.970932,9.73780062 C645.31904,4.85215461 566.538093,2.05739 482.597204,2 Z M477.426529,32 L480,32 C564.119758,32 643.090431,34.7722907 702.464261,39.6329454 L706.074785,39.93314 C735.023328,42.3776203 758.231761,45.2629182 774.154491,48.3877728 L776.12208,48.7828694 C781.03741,49.7931337 785.082574,50.8058615 788.161128,51.7766593 L789,52.048 L789,886.873 L788.952511,886.922721 C788.647534,887.23071 788.227629,887.609681 787.685281,888.043127 C784.649999,890.468933 779.49863,893.205693 772.457767,895.970412 C757.393006,901.885856 735.062666,907.430788 707.024682,912.167009 L705.914959,912.353545 C646.489443,922.293379 565.969342,928 480,928 C394.540488,928 314.457571,922.361324 255.11596,912.525035 L251.7645,911.96118 C225.169111,907.419655 203.783497,902.146986 188.962797,896.517735 L188.34907,896.282978 C181.177537,893.520261 175.870815,890.773943 172.651936,888.30333 L172.430753,888.131414 C171.856469,887.679264 171.406257,887.278129 171.074845,886.943911 L171,886.866 L171,52.047 L171.838872,51.7766593 C175.185127,50.7214443 179.673406,49.6166901 185.179856,48.5194073 L185.845509,48.3877728 C201.55873,45.3040347 224.367185,42.4535907 252.785495,40.0298612 L253.925215,39.93314 C313.090789,34.9370654 392.556081,32.057948 477.426529,32 Z" id="Path" fill="#000000" fill-rule="nonzero"></path>
        <path d="M163.5,839 C163.5,840.09452 164.543632,841.807264 167.318904,844.067667 C170.912458,846.994543 176.600726,850.042602 184.211093,853.041424 C199.717185,859.15151 222.478948,864.796109 251.015657,869.599109 L252.130395,869.785812 C312.058495,879.773828 393.287637,885.5 480,885.5 C565.84524,885.5 646.316374,879.887779 706.065387,870.084172 L707.869605,869.785812 C736.928613,864.942644 760.081437,859.230862 775.788907,853.041424 C783.399274,850.042602 789.087542,846.994543 792.681096,844.067667 C795.363859,841.882611 796.4285,840.209311 796.496496,839.11151 L796.5,839 L811.5,839 C811.5,859.503191 775.35838,873.744589 710.33559,884.581721 C649.524403,894.716918 567.487959,900.5 480,900.5 C392.512041,900.5 310.475597,894.716918 249.66441,884.581721 C185.291848,873.85296 149.225721,859.787679 148.510835,839.61322 L148.5,839 L163.5,839 Z" id="Path" fill="#000000" fill-rule="nonzero"></path>
        <path d="M767.556431,120.271432 C717.816582,130.023164 605.466467,136.5 479.5,136.5 C354.399971,136.5 242.683383,130.112789 192.41112,120.459159 C187.786184,119.571046 183.496759,123.115303 183.496759,127.824739 L183.50554,543.844798 L183.496759,543.98131 L183.496759,583.297595 C183.496759,586.499819 185.533684,589.348819 188.561898,590.390045 C239.884517,608.036889 353.085677,619.5 480.000866,619.5 C606.915163,619.5 720.115679,608.037049 771.4388,590.390401 C774.467038,589.349189 776.500167,586.500176 776.500167,583.297935 L776.500167,544.117886 L776.500167,543.899 L776.500167,127.631375 C776.500167,122.910115 772.189489,119.363099 767.556431,120.271432 Z M761.5,136.602 L761.5,544.116471 L761.5,544.335 L761.5,577.856 L760.341996,578.214466 C708.236878,594.063801 600.361461,604.5 480.000866,604.5 L476.243685,604.5 C357.39808,604.281989 251.22066,593.898558 199.658734,578.214162 L198.496,577.857 L198.496,544.389 L198.505,544.115852 L198.496,136.767 L199.491287,136.930292 C254.573416,145.817214 361.074658,151.5 479.5,151.5 C598.759356,151.5 705.877578,145.737284 760.611992,136.750769 L761.5,136.602 Z" id="Combined-Shape" fill="#000000" fill-rule="nonzero"></path>
    </g>
</svg>