<?xml version="1.0" encoding="UTF-8"?>
<svg width="960px" height="960px" viewBox="0 0 960 960" version="1.1" xmlns="http://www.w3.org/2000/svg" xmlns:xlink="http://www.w3.org/1999/xlink">
    <!-- Generator: Sketch 60.1 (88133) - https://sketch.com -->
    <title>ZPIR-8000/icon</title>
    <desc>Created with Sketch.</desc>
    <g id="ZPIR-8000/icon" stroke="none" stroke-width="1" fill="none" fill-rule="evenodd">
        <path d="M482.597204,2 C566.538093,2.05739 645.31904,4.85215461 704.970932,9.73780062 L704.970932,9.73780062 L708.599069,10.0395288 C738.545844,12.5683021 762.750295,15.5774261 779.931822,18.949321 L779.931822,18.949321 L780.763409,19.1138803 C789.578001,20.8727752 796.611707,22.7477252 801.943489,24.832505 C805.346855,26.1632549 808.220172,27.6318055 810.665579,29.4257212 C814.708645,32.3916567 817.69572,36.2470228 818.69539,41.5335173 L818.69539,41.5335173 L818.824643,42.2170364 L819,44.0729211 L819,889.129373 L818.965483,889.897547 C818.475122,898.403276 813.831301,905.550964 806.414741,911.4783 C800.693083,916.051065 793.029401,920.122538 783.422753,923.894757 C765.903468,930.774014 741.304781,936.850822 710.864165,941.942484 L710.864165,941.942484 L709.022012,942.248239 C648.024616,952.294339 566.651543,958 480,958 C392.995758,958 311.305144,952.248125 250.210187,942.121207 C220.664282,937.223766 196.552895,931.402189 179.011194,924.827198 L179.011194,924.827198 L177.564618,924.277542 C167.93196,920.566716 160.205092,916.567931 154.385932,912.101505 C146.784575,906.267174 141.927953,899.273631 141.112527,890.809003 L141.112527,890.809003 L141.1016,890.695577 L141,889.44157 L141,44.0729211 L141.175357,42.2170364 L141.30461,41.5335173 C142.30428,36.2470228 145.291355,32.3916567 149.334421,29.4257212 C151.779828,27.6318055 154.653145,26.1632549 158.056511,24.832505 C163.554911,22.6825759 170.863267,20.7557957 180.068178,18.949321 C196.320974,15.7596907 218.857978,12.8946728 246.595234,10.4537921 L246.595234,10.4537921 L251.400931,10.0395288 C312.074294,4.91613314 393.372734,2 480,2 Z M710.33559,884.581721 C649.524403,894.716918 567.487959,900.5 480,900.5 C392.512041,900.5 310.475597,894.716918 249.66441,884.581721 C214.731202,878.759519 188.134049,871.954735 170.998803,863.72426 L171,886.866 L171.074845,886.943911 C171.406257,887.278129 171.856469,887.679264 172.430753,888.131414 L172.430753,888.131414 L172.651936,888.30333 C175.870815,890.773943 181.177537,893.520261 188.34907,896.282978 L188.34907,896.282978 L188.962797,896.517735 C203.783497,902.146986 225.169111,907.419655 251.7645,911.96118 L251.7645,911.96118 L255.11596,912.525035 C314.457571,922.361324 394.540488,928 480,928 C565.969342,928 646.489443,922.293379 705.914959,912.353545 L705.914959,912.353545 L707.024682,912.167009 C735.062666,907.430788 757.393006,901.885856 772.457767,895.970412 C779.49863,893.205693 784.649999,890.468933 787.685281,888.043127 C788.227629,887.609681 788.647534,887.23071 788.952511,886.922721 L788.952511,886.922721 L789,886.873 L789.002165,863.723795 C771.866953,871.954479 745.269455,878.75941 710.33559,884.581721 Z M482.522034,32.000831 L477.426529,32 C392.556081,32.057948 313.090789,34.9370654 253.925215,39.93314 L253.925215,39.93314 L252.785495,40.0298612 C224.367185,42.4535907 201.55873,45.3040347 185.845509,48.3877728 L185.845509,48.3877728 L185.179856,48.5194073 C179.673406,49.6166901 175.185127,50.7214443 171.838872,51.7766593 L171.838872,51.7766593 L171,52.047 L171.000563,846.659727 C174.400195,848.771335 178.824112,850.918714 184.211093,853.041424 C199.717185,859.15151 222.478948,864.796109 251.015657,869.599109 L252.130395,869.785812 C312.058495,879.773828 393.287637,885.5 480,885.5 C565.84524,885.5 646.316374,879.887779 706.065387,870.084172 L707.869605,869.785812 C736.928613,864.942644 760.081437,859.230862 775.788907,853.041424 C781.176423,850.918504 785.600683,848.770909 789.000448,846.659099 L789,52.048 L788.161128,51.7766593 C785.082574,50.8058615 781.03741,49.7931337 776.12208,48.7828694 L776.12208,48.7828694 L774.154491,48.3877728 C758.231761,45.2629182 735.023328,42.3776203 706.074785,39.93314 L706.074785,39.93314 L702.464261,39.6329454 C643.090431,34.7722907 564.119758,32 480,32 Z M477,708 C489.103802,708 501.206585,708.733657 513.354502,710.206441 L513.354502,710.206441 L515.320594,710.451495 C531.878251,712.570294 544.635285,726.08715 545.793672,742.739581 C546.598075,754.303298 547,766.056903 547,778 C547,789.000629 546.659007,800.001238 545.974624,811.039902 L545.974624,811.039902 L545.799484,813.751218 C544.647988,830.896745 531.219791,844.670182 514.109011,846.256456 C501.574814,847.418452 489.204791,848 477,848 C465.537242,848 454.075503,847.487015 442.571878,846.457196 L442.571878,846.457196 L440.324695,846.249264 C423.645645,844.656688 410.434716,831.466963 408.815349,814.790493 C407.605589,802.332214 407,790.068353 407,778 C407,766.641036 407.53649,755.283308 408.613729,743.88176 L408.613729,743.88176 L408.830905,741.65793 C410.458628,725.505753 422.979497,712.592948 439.07385,710.468302 C451.541562,708.822416 464.184983,708 477,708 Z M477,738 C465.491328,738 454.159413,738.737106 443.000143,740.210263 C440.70095,740.513784 438.912255,742.358469 438.68434,744.619381 L438.68434,744.619381 L438.476258,746.750063 C437.492013,757.16807 437,767.584198 437,778 C437,789.090568 437.557828,800.387201 438.674901,811.890984 C438.906239,814.273336 440.793514,816.157582 443.132077,816.380942 L443.132077,816.380942 L445.290875,816.580699 C455.861778,817.526958 466.431046,818 477,818 C488.272506,818 499.71872,817.461882 511.339704,816.384547 C513.7841,816.157936 515.702414,814.190303 515.864378,811.779431 L515.864378,811.779431 L516.034545,809.145122 C516.678196,798.762687 517,788.381127 517,778 C517,766.746135 516.621814,755.686742 515.865994,744.821429 C515.70051,742.442511 513.878077,740.511532 511.562012,740.215074 L511.562012,740.215074 L509.694626,739.982317 C498.791896,738.660572 487.894766,738 477,738 Z M767.556431,120.271432 C772.189489,119.363099 776.500167,122.910115 776.500167,127.631375 L776.500167,127.631375 L776.500167,583.297935 C776.500167,586.500176 774.467038,589.349189 771.4388,590.390401 C720.115679,608.037049 606.915163,619.5 480.000866,619.5 C353.085677,619.5 239.884517,608.036889 188.561898,590.390045 C185.533684,589.348819 183.496759,586.499819 183.496759,583.297595 L183.496759,583.297595 L183.496759,543.98131 L183.50554,543.844798 L183.496759,127.824739 C183.496759,123.115303 187.786184,119.571046 192.41112,120.459159 C242.683383,130.112789 354.399971,136.5 479.5,136.5 C605.466467,136.5 717.816582,130.023164 767.556431,120.271432 Z" id="Combined-Shape" fill="#000000" fill-rule="nonzero"></path>
    </g>
</svg>