<svg height="960" viewBox="0 0 960 960" width="960" xmlns="http://www.w3.org/2000/svg"><path d="m301 25.5530877c3.164959 0 6.329349.0848896 9.489756.2545771l454 24.3760169c93.931609 5.0433446 167.510244 82.6785183 167.510244 176.7454233v498.754417c0 91.877456-70.298636 168.479333-161.838399 176.349442l-454 39.03254c-22.738976 1.954978-45.2999-.46363-66.69107-6.978079l-.216917-.067337-.39684-.059603c-3.208682-.523183-6.426397-1.455239-9.595277-2.832843l-.791169-.353704-8.672714-3.98485-1.070025-.473046c-1.035198-.463844-2.065834-.93761-3.091768-1.421221l-1.093207-.522733-116.031511-53.362286c-49.1795636-22.616127-80.8720214-71.527524-81.5009526-125.555609l-.0095363-1.638759v-531.097004c0-73.839444 50.5292245-138.0891129 122.2869539-155.4926658l106.449046-25.8206765.767369-.2021901c13.99417-3.6260357 28.451027-5.5323449 43.120171-5.6498099zm.089747 50.5042293c-70.140163 0-127 56.859837-127 127v562.151767c0 3.633199.155907 7.264724.467291 10.884555 6.011374 69.882086 67.535179 121.659528 137.417265 115.648154l453.602955-39.019686c65.678548-5.649778 116.115445-60.611607 116.115445-126.532709v-498.764092c0-67.492899-52.791542-123.196575-120.187261-126.817138l-453.602955-24.3679894c-2.268869-.1218858-4.5406-.1828616-6.81274-.1828616zm-82.955832 5.6268093-3.974406.9648698c-5.919984 3.8871712-11.631019 8.1412196-17.060755 12.7310367-30.447286 25.7374352-48.406051 58.7641682-48.406051 91.5614412v594.383453c0 3.633199.155907 7.264724.467291 10.884555 2.451101 28.494001 17.662718 53.808992 42.458228 72.995399l3.025601 1.393717c-22.265891-23.346807-37.033051-54.146742-40.013196-88.790856-.36042-4.189883-.54088-8.393302-.54088-12.598658v-562.151767c0-50.408762 25.372924-94.89136 64.044168-121.3731907zm-48.084373 11.6648505-11.332811 2.74954c-13.49617 3.2732545-25.991057 8.7559282-37.138138 16.0073862-19.241381 21.808113-29.8858904 46.571216-29.8858904 71.166242v578.986398c0 3.524087.1552474 7.046573.4653195 10.557781 1.7526208 19.846399 10.0039239 38.081587 23.9153869 53.872522 1.168266 1.326101 1.921742 2.874916 2.270471 4.487747 2.234066 1.245662 4.52882 2.410772 6.879499 3.491775l20.62291 9.485763c-9.307312-15.239639-15.057941-32.156436-16.612706-50.230546-.360421-4.189882-.54088-8.393302-.54088-12.598658v-594.383453c0-33.538306 15.258146-66.446614 41.356839-93.5924972zm-98.2776225 85.8246682-.3994851 1.403631c-2.8559489 10.277005-4.3718203 21.065235-4.3718203 32.141154v531.097004c0 11.217402 1.8759924 22.139975 5.3910817 32.39832-.0554694-.544756-.10782-1.090905-.1561417-1.638092-.3617325-4.096202-.5428515-8.205702-.5428515-12.317119v-578.986398c0-1.367328.0264995-2.73361.0792169-4.0985zm496.7280805 316.826355c47.759751 0 85.441176 47.450684 85.441176 105s-37.681425 105-85.441176 105-85.441176-47.450684-85.441176-105 37.681425-105 85.441176-105zm0 20c-35.570271 0-65.441176 37.615214-65.441176 85s29.870905 85 65.441176 85 65.441176-37.615214 65.441176-85-29.870905-85-65.441176-85z"/></svg>