<svg height="960" viewBox="0 0 960 960" width="960" xmlns="http://www.w3.org/2000/svg"><g fill="none" fill-rule="evenodd" stroke="#000" stroke-linejoin="round"><g stroke-linecap="round" stroke-width="20"><path d="m308.438923 66.2545771 453.602955 24.367989c72.702469 3.9056468 129.650825 63.9954389 129.650825 136.8027399v498.764092c0 71.11174-54.408306 130.401272-125.258393 136.495915l-453.602956 39.019685c-75.384612 6.484711-141.752811-49.369695-148.237521-124.754307-.335902-3.904857-.504086-7.82233-.504086-11.741607v-562.151767c0-75.663011 61.33699-137 137-137 2.451049 0 4.901656.065777 7.349176.1972601z"/><path d="m306.689895 908.051078c-75.384612 6.48471-161.008396-39.599932-167.493107-114.984544-.335902-3.904857-.504085-7.82233-.504085-11.741607v-594.383453c0-75.663011 84.985006-141.6496935 160.648017-141.6496935 2.451048 0 4.901655.0657771 7.349175.1972602"/><path d="m108.569914 833.299259c-14.6640024-16.645144-24.354169-36.74092-26.3731259-59.603266-.3359023-3.803705-.5040855-7.619698-.5040855-11.43745v-578.986398c0-29.263593 13.3976021-57.041261 34.2898294-79.899661"/></g><path d="m301 45.5530877c2.807337 0 5.614169.0752976 8.417468.2258114l454 24.3760168c41.658933 2.2367376 78.804567 20.5708159 105.535466 48.7754441 26.7309 28.204629 43.047066 66.279807 43.047066 107.998745v498.754417c0 40.747911-15.588822 78.108441-41.32718 106.154597-25.738357 28.046157-61.626251 46.777939-102.224395 50.268354l-454 39.032541c-13.506049 1.161179-26.758992.574052-39.536592-1.570938l-.06119 5.911727-36.74582-16.884015c-1.724199-.755304-3.432966-1.540877-5.125565-2.356112l-116.112017-53.400591c-21.2895661-9.790399-38.7552826-25.329864-50.8986457-44.279937s-18.9643727-41.310754-18.9645252-64.743584l-.003456-531.097004c-.0002102-32.304762 11.0530187-62.511803 29.9549528-86.546203 18.9019341-24.034401 45.6525731-41.8961614 77.0465831-49.5102165l106.58921-25.8547938c12.892835-3.4255154 26.437264-5.254259 40.40864-5.254259z" stroke-width="40"/><ellipse cx="568.5" cy="601" rx="75.441177" ry="95" stroke-linecap="round" stroke-width="20"/></g></svg>