<svg height="960" viewBox="0 0 960 960" width="960" xmlns="http://www.w3.org/2000/svg"><g><path d="m665.826118 6.68949845-546.213354 31.79594445c-51.765489 3.0136062-92.1986009 45.8917044-92.1986009 97.7624941v546.242733c0 13.968781 4.3853999 27.583469 12.5396746 38.922472l136.9870513 190.53107c19.990617 27.80367 53.083684 43.098482 87.20683 40.303634l599.986468-49.146735c34.276567-2.809326 60.780167-31.250982 61.186039-65.647676l7.268579-615.487284c.226633-20.234834-8.72888-39.472379-24.357367-52.307286l-175.976923-144.509111c-.801207-.6579367-1.652359-1.2525798-2.545759-1.778553-20.053857-11.8063363-45.462096-17.75438786-63.882638-16.68170255zm41.714077 50.08808975.611805.3374118 174.693776 143.456131c6.250129 5.132923 9.833825 12.831144 9.74311 20.930692l-7.265875 615.479602c-.162358 13.759442-10.758768 25.130707-24.45535 26.253286l-599.985363 49.146645c-20.135512 1.649194-39.665311-7.377004-51.464388-23.787585l-136.9881519-190.532601c-3.2615905-4.535435-5.015595-9.980828-5.015595-15.5705v-546.242733c0-30.687025 23.9150333-56.0481975 54.5232279-57.8300998l546.213683-31.7959637c10.104719-.5884291 26.5001 3.1112526 39.389121 10.1557147z"/><path d="m854.806457 217.873303-563.691396 32.054785c-29.311596 1.666526-52.224503 25.935678-52.224503 55.309076v557.63093c0 32.4268 27.709486 57.923831 60.003925 55.205298l552.804532-46.523498c28.678854-2.413679 50.723732-26.409686 50.723732-55.205316v-553.456382c0-25.905471-21.764047-46.485297-47.61629-45.014893zm27.61629 45.014893v553.456382c0 18.403401-14.084233 33.734189-32.401016 35.275772l-552.804703 46.523513c-20.624438 1.736156-38.32647-14.552463-38.32647-35.275769v-557.63093c0-18.771712 14.638731-34.276928 33.359883-35.341329l563.691612-32.054797c14.374692-.817593 26.480694 10.6297 26.480694 25.047158z"/><path d="m176.634159 207.080456-99.9296781-106.387266c-10.4843679-11.2411084-23.6545925-9.0379091-31.365086 2.818419-5.0140867 7.710098-7.9252318 19.516072-7.9252318 30.654904v514.794395c0 8.588952 2.694457 16.960714 7.7059513 23.936087l133.9310046 186.419296c8.776189 12.21284 28.066907 6.015449 28.066907-9.029555v-566.254341c0-28.590497-10.899498-56.105606-30.483867-76.951939zm-114.509159-92.695456 99.93211 106.388871.506084.543041c15.782787 17.071989 24.554832 39.461255 24.554832 62.715483v552.234605l-125.7552761-175.039487c-2.5678705-3.574154-3.9485868-7.864082-3.9485868-12.266605v-514.794395c0-7.363854 1.9008405-15.23624 4.512445-19.468412z"/><path d="m685.221349 16.6173821-549.967349 32.2026179.319939-.0006179c-11.310668 0-22.345025 3.1953807-30.142466 8.4792709-4.292034 2.9084717-7.5597523 6.4117625-9.3109853 10.4888726-2.4178395 5.6290615-1.6069222 11.8017857 2.53885 16.5207229l108.5376303 123.0467505c15.316632 17.429719 37.894335 26.829452 61.132785 25.451045l605.271425-35.975091c16.32187-.968917 22.980066-21.447742 10.28118-31.776298l-169.324076-137.6642494c-7.907879-6.4303472-20.010284-11.3151573-29.336933-10.7730235zm16.71957 26.2908242 165.155081 134.2737937-599.95168 35.659206-.582307.031485c-16.686932.814771-32.851797-5.915052-43.968214-18.299526l-106.279799-120.483165.336986-.2347014c4.282739-2.902173 11.161967-4.9348273 18.380929-5.0322547l.542024-.0036618c.194977 0 .389911-.0057024.584554-.0170998l550.227704-32.2188513c3.660011-.212746 10.870796 2.6583905 15.246453 6.0790318z"/></g></svg>