<svg height="960" viewBox="0 0 960 960" width="960" xmlns="http://www.w3.org/2000/svg"><path d="m480.5 2c177.007262 0 320.5 143.492738 320.5 320.5 0 90.330075-37.682853 174.31197-101.546773 233.886944l87.709212 74.062997c15.750558 13.300361 24.837561 32.867243 24.837561 53.482278v143.83346c0 11.794703-3.479482 23.327333-10.002826 33.162331-6.755384 10.180943-11.719422 17.367531-15.230535 21.989613-14.243891 18.750869-27.071976 31.885893-39.352733 38.889933-28.258647 16.116655-70.683541 25.86914-126.441359 31.759257-42.253566 4.463561-90.581555 6.433187-140.972547 6.433187-.815619 0-1.628698-.010556-2.438566-.034485-.075231.002294-.150484.003658-.22574.004809l-1.634784.029676h-.611631c-50.390991 0-98.718981-1.969626-140.972546-6.433187-55.757819-5.890117-98.182713-15.642602-126.441359-31.759257-15.510994-8.84633-31.237452-27.309709-53.394308-59.325111l-.572573-.828892c-6.916616-10.021551-10.619214-21.910363-10.619214-34.083236v-143.057611c0-21.389641 9.779518-41.605411 26.549953-54.882542l92.173669-72.972632c-63.999343-59.580924-101.812901-143.674031-101.812901-234.157532 0-177.007262 143.492738-320.5 320.5-320.5zm-277.888347 859.030981.353614.45896c10.609151 13.772765 18.784748 22.296567 24.52679 25.571406 47.960711 27.353264 165.045 32.938653 247.597223 32.938653l1.634784-.025.816954-.032143c.807272.038095 1.626933.057143 2.458982.057143 82.552222 0 199.636512-5.585389 247.597222-32.938653 5.505526-3.139947 13.859641-11.171284 24.314379-24.454698-12.259281 5.438615-28.536656 10.260864-49.413021 14.402579-49.300445 9.780839-121.857115 15.219354-221.517287 15.219354-109.883558 0-187.489765-6.594982-237.92919-18.271511-16.690029-3.863676-30.042978-8.189728-40.44045-12.92609zm-14.036395-193.812392-.251821.36298c-3.371392 4.932079-5.234157 10.819811-5.234157 16.931137l.000667 141.274069c3.990228-.728565 8.190339 1.031807 10.388586 4.721008 1.574961 2.643174 5.286769 5.934248 11.957449 9.565244 9.462898 5.15086 23.308411 10.042955 42.126756 14.399328 48.732585 11.281402 124.924851 17.756227 233.418555 17.756227 98.46067 0 169.78736-5.346321 217.625291-14.837009 35.046401-6.952944 54.320861-15.430472 61.538919-23.539415 2.965525-3.331542 7.658698-4.21218 11.527765-2.493591.216333-1.180707.326732-2.385366.326732-3.59834v-143.828008c0-5.668064-1.602872-11.151242-4.53437-15.859007-1.066919 1.772447-2.509414 3.48542-4.328694 5.080279-5.580262 4.891896-15.015149 9.11881-29.351129 12.879968-41.840792 10.977261-122.574149 17.459582-252.926813 17.459582-130.317396 0-212.106541-6.480339-255.683379-17.433922-15.234586-3.829403-25.307405-8.110267-31.333463-12.961383-2.275887-1.832142-4.033111-3.819803-5.266894-5.879147zm450.457017-101.419023c-35.007893 8.616956-83.52797 12.87813-145.727466 12.87813-61.988516 0-118.607075-4.236675-169.862388-12.722602-2.134486-.35339-3.998426-1.35842-5.421991-2.77787l-113.621431 89.952585c.971906 1.2665 1.631396 2.753872 1.914027 4.331401.022939.018794.046508.037933.070686.057396 3.387251 2.726816 10.986156 5.956287 23.667485 9.143898 41.619985 10.461703 122.001812 16.830537 250.807797 16.830537 128.770716 0 208.065979-6.366852 247.851423-16.804877 11.127263-2.919325 17.848799-5.845819 20.863527-8.264471.157201-2.004572.920298-3.931371 2.197449-5.505322l-107.300349-90.606559c-1.328859 1.674366-3.202495 2.93731-5.438769 3.487754zm-158.532275-523.799566c-154.915872 0-280.5 125.584128-280.5 280.5 0 93.853225 46.093673 176.940696 116.878183 227.859575 2.138715-3.055693 5.906968-4.785554 9.831007-4.135883 50.123105 8.298477 105.657214 12.454004 166.595619 12.454004 60.727426 0 107.765596-4.131029 140.947279-12.298476 3.98363-.980543 7.997439.575694 10.339503 3.63913 70.518918-50.946171 116.408409-133.873228 116.408409-227.51835 0-154.915872-125.584128-280.5-280.5-280.5zm250.823098 242.516947c4.925161 66.939476-5.429854 128.872569-30.925519 174.555797-28.959783 51.890249-76.004975 80.853165-138.476729 80.853165-41.910324 0-71.77097-17.510391-90.367225-49.816815-14.879787-25.849974-22.10807-59.812095-24.250055-103.066407-.077641-1.567841-.148737-3.120153-.213457-4.664764l-.053917-1.322249c-.087273-2.201215-.161633-4.391278-.223573-6.593013l-.035677-1.322624c-.131081-5.076827-.196979-10.239541-.203689-15.765819l-.000411-1.450068c.006769-10.696987.228243-22.812893.622458-38.291809.381394-14.975455.531295-21.416009.58017-27.172954l.003945-.491961c.004938-.654205.008605-1.30241.011196-1.956337l.001745-.491701c.001549-.493139.00252-.991145.002995-1.498961l.000351-.7697c0-17.734511-3.34084-35.297225-12.416687-71.55593-.175544-.701312-.345277-1.378912-.610999-2.43936-5.045817-20.136924-7.607739-30.908053-9.557041-41.224027l-.152654-.813636c-.100966-.54201-.200371-1.083409-.298489-1.625495l-.146245-.813809c-.242245-1.357748-.477295-2.723854-.709411-4.118619-2.968244-17.835911-3.642794-32.660542-1.574129-45.695071 5.169735-32.5741801 27.572138-52.1230518 69.53608-57.1052076 118.537446-14.0733207 229.75835 92.8402926 239.456967 224.6573746zm-27.883551 111.406212-.146648.340455c-21.950345 50.228735-66.263643 84.736386-117.792899 84.736386-51.352351 0-95.538204-34.271121-117.566036-84.219621 2.595592 35.209836 9.150176 62.846466 20.953134 83.351205 15.050017 26.145706 38.325144 39.794325 73.033752 39.794325 55.056236 0 95.510381-24.905201 121.012458-70.59992 8.770379-15.714798 15.618185-33.709052 20.506239-53.40283zm-117.939547-207.923159c-61.696541 0-112.5 60.75679-112.5 136.5s50.803459 136.5 112.5 136.5 112.5-60.75679 112.5-136.5-50.803459-136.5-112.5-136.5zm26.5 69c32.404038 0 58 29.861955 58 66s-25.595962 66-58 66-58-29.861955-58-66 25.595962-66 58-66zm0 20c-14.09637 0-26.682251 9.483081-33.232464 23.702715 6.105444-10.677563 16.471609-17.702715 28.232464-17.702715 18.777681 0 34 17.90861 34 40s-15.222319 40-34 40c-11.760855 0-22.12702-7.025152-28.232018-17.703132 6.549767 14.220051 19.135648 23.703132 33.232018 23.703132 20.615298 0 38-20.282153 38-46s-17.384702-46-38-46zm-117.775935-197.2799102c-33.440617 3.9702267-48.440127 17.0591569-52.141231 40.3795852-1.677937 10.572573-1.095033 23.383087 1.550015 39.27694.088679.532865.177926 1.0618.268013 1.588096l.135796.787626c.022749.130995.045559.261865.068434.392631l.13807.783502.139843.781964c.046932.260506.094194.520917.14182.781394l.144001.781791c1.887085 10.17007 4.379108 20.686401 9.499414 41.120601.21288.849563.364303 1.454007.506494 2.021907l.105728.422332c5.311722 21.220737 8.755434 36.374209 10.75781 49.105976 21.097615-53.036933 66.670774-89.944435 119.961728-89.944435 57.05057 0 105.255968 42.298759 124.059903 101.400645-16.481541-113.280334-113.763853-201.7396571-215.335838-189.6805552z"/></svg>