<svg width="960" height="960" viewBox="0 0 960 960" fill="none" xmlns="http://www.w3.org/2000/svg">
<path d="M119.075 11.6475C122.278 10.0905 125.843 9.41505 129.401 9.69727L825.685 64.9199L826.233 64.9707C828.972 65.264 831.622 66.1202 834.018 67.4873L933.876 124.482C940.121 128.047 943.972 134.69 943.962 141.881L942.995 819.789C942.985 826.886 939.214 833.446 933.086 837.027L834.194 894.82C831.553 896.364 828.593 897.281 825.541 897.501L126.852 947.847C121.948 948.2 117.11 946.733 113.243 943.767L33.2598 904.727C26.3903 901.373 22.0323 894.398 22.0322 886.754V75.1934C22.0323 67.7946 26.1169 60.9996 32.6514 57.5293L118.439 11.9707L119.075 11.6475ZM145.415 906.403L145.684 906.385L277.497 840.595V118.163L145.415 56.0508V906.403ZM62.0322 87.2178V874.26L125.415 905.197V53.5566L62.0322 87.2178ZM280.491 861.452L198.023 902.613L818.027 857.938L878.522 822.584L280.491 861.452ZM297.497 840.306L902.668 800.973V159.646L297.497 119.777V840.306ZM814.585 206.116C820.045 206.116 824.472 211.846 824.472 218.912C824.472 225.979 820.045 231.707 814.585 231.707C809.124 231.707 804.697 225.979 804.697 218.912C804.697 211.845 809.124 206.116 814.585 206.116ZM283.319 98.7998L876.676 137.891L818.089 104.451L192.948 56.3018L283.319 98.7998Z" fill="black"/>
</svg>
