<svg height="960" viewBox="0 0 960 960" width="960" xmlns="http://www.w3.org/2000/svg"><path d="m266.650755 322.826578c60.554033 0 72.936301 65.286837 72.936301 88.748605s-16.239189 61.369238-50.008826 80.321307c-22.513092 12.634712-55.288721 16.700508-98.326886 12.197388l-12.685736-45.203208c46.127594 7.967588 75.489309-.345882 88.085147-24.94041 18.893758-36.891793-6.294557-67.817969-33.251063-67.817969h-65.960911c-2.286323 55.47131-3.827762 98.897609-4.624317 130.278897-.796555 31.381289-1.545473 78.186419-2.246752 140.41539h-65.5171831c3.7987379-62.267263 6.4617071-111.824431 7.9889071-148.671505 1.527201-36.847074 3.20235-91.956573 5.025448-165.328495zm259.891825 0c16.577181 50.536313 34.452842 102.375197 53.626984 155.516652s39.063603 105.969237 59.668382 158.483348h-73.311228l-37.863673-114.293837h-124.663773l-53.196387 114.293837h-74.567721c42.02076-77.304189 73.167824-135.404526 93.441191-174.301013 11.749338-22.542282 24.551043-47.660657 38.405115-75.355124l1.634746-3.270057c9.564341-19.144666 19.624318-39.502602 30.179931-61.073806zm226.033719 0c-2.548599 31.51658-5.141286 72.50935-7.778063 122.978311s-4.707977 98.744869-6.2136 144.827724c22.124361.718351 42.95541 1.077526 62.493148 1.077526l1.246383-.000477c19.511481-.014805 47.975691-.373821 85.392631-1.077049l-2.393887 46.193965h-219.532498c6.334456-74.157421 10.347735-129.238936 12.039838-165.244546 1.692102-36.00561 2.597688-85.590761 2.716756-148.755454zm207.920845 176.564523-58.794705 49.379969-156.4929.001519c.628377-16.199371 1.324169-32.660381 2.086786-49.380723zm-289.325632-.000064c-.892976 14.466863-2.028211 30.926862-3.405683 49.379099l-56.234815.001927c-6.162021-16.429813-12.254873-32.889963-18.278555-49.380451zm-614.0419385.000064 40.3044194.000817c-.6543076 14.688455-1.4667982 31.148161-2.4374651 49.378753l-96.49938418.000399zm287.3434175-.001287c-7.85821 14.789591-16.662394 31.249938-26.412423 49.380784l-151.185177.000083c.319241-19.233918.647002-35.693907.983259-49.379304l16.759494-.000364 1.705132 6.075283.936021 3.335333 3.457528.361765c40.417026 4.228868 72.21474 1.036921 95.408333-9.771908zm180.490273 28.240329 7.00388 21.14087h-134.541l9.840893-21.14087zm-425.1862791-91.008216c-.6106463 18.988786-1.200756 35.449432-1.7703011 49.381406l-40.8771103-.000449-58.63242988-49.379969zm159.3246461.001187c-12.765706 18.312628-38.986926 24.270841-79.661806 17.245096l-7.983947-1.379062 2.181663 7.77394 7.223603 25.738925-12.648578.000718c.403141-14.312625.938831-30.76994 1.607593-49.379947zm81.147243-.001189 37.06461.000832c-4.178238 8.141863-8.23774 15.99317-12.178495 23.553903-4.080533 7.828913-8.602474 16.437441-13.565782 25.825504l-44.557648.000796c9.920472-8.324828 18.256278-18.586848 24.702775-30.091517 3.530423-6.30053 6.399496-12.839202 8.53454-19.289518zm410.158471.000097 151.295094.000893 58.794705 49.379969-212.578518.000445c.622743-13.154016 1.286075-26.46555 1.989715-39.933503.166513-3.18713.332848-6.336399.499004-9.447804zm-179.695144.000429 103.27858.00034c-.357905 12.719514-.781904 24.293286-1.271953 34.720866-.215053 4.576032-.467758 9.461914-.758112 14.657592l-83.581433.001282c-1.133916-3.126735-2.265351-6.254558-3.394304-9.38347-4.84046-13.415416-9.598053-26.747621-14.272778-39.99661zm-90.595521-74.750387-56.854867 117.954514h95.540014zm19.131464 74.749949 12.498713 38.107162h-80.351737l18.367024-38.107162z" fill-rule="evenodd"/></svg>