<svg height="960" viewBox="0 0 960 960" width="960" xmlns="http://www.w3.org/2000/svg"><path d="m327.07537 2.30666233 125.439769 23.54474027c26.954462 5.0592872 46.484861 28.5965483 46.484861 56.0217957l-.002 424.0881727 41.086898 3.948361c2.790707.268161 5.544781.828905 8.216915 1.672557l.726698.237094 46.406489 15.632988 181.934136-11.082638c3.751418-.228522 7.515652-.064731 11.231529.488223l.856624.134511 44.347467 7.32898c26.071587 4.308659 45.195244 26.852134 45.195244 53.277352v4.261335c0 27.432957-20.568499 50.506671-47.828307 53.646374-115.573255 13.2907-182.210213 21.104973-199.120479 23.345771-12.988887 1.721172-42.84339 12.223068-86.32347 31.155707l-.48838.211205c-12.666809 5.418629-27.581697 7.359667-45.676615 6.683088l-.563749-.022908.001 181.44024c0 23.093937-15.809522 43.149898-38.192464 48.585879l-.680273.160239-137.152081 31.307668c-8.932711 2.039067-18.253976 1.5844-26.945833-1.314348l-49.226233-16.417026c-27.354-9.122602-45.803116-34.723469-45.803116-63.558572v-804.9575464c0-27.957597 19.62198-52.0768546 46.994679-57.7656668l56.967191-11.83937537c7.286501-1.51433858 14.799032-1.58710793 22.1135-.2142001zm-13.974299 39.37736407-4.326702.8986789c-5.203745 2.7094973-9.173333 7.6731463-10.396563 13.876869-.251273 1.2743527-.377806 2.5701529-.377806 3.869042v837.5550697c0 11.045695 8.954305 20 20 20 1.507206 0 3.009583-.170373 4.478515-.507876l121-27.80099c9.08361-2.087052 15.521485-10.171836 15.521485-19.492124l.000599-197.645824c-8.15122-1.141077-17.238823-2.475741-27.266961-4.004327l-.879752-.134428-.512422.492608c-15.66258 14.883075-35.260769 22.815435-55.718062 21.25304l-.739789-.060611c-46.037324-4.027744-76.662206-53.389357-71.86697-108.199162 4.795237-54.809805 43.526412-98.10355 89.563737-94.075806 21.425023 1.874447 40.135637 13.855762 53.192957 32.438494l14.225663 1.375691.001-437.3353592c0-8.7256798-5.636413-16.3385309-13.754502-19.0010341-.036459-.0072815-.072908-.0142451-.109404-.0210953l-125.439769-23.5447402c-2.181508-.4094638-4.422087-.3877606-6.595254.0638842zm-33.350678 6.9306879-23.616513 4.9086874c-8.814937 1.8319904-15.13388 9.599209-15.13388 18.6025029v804.9575464c0 11.620116 7.434718 21.936883 18.457972 25.613156l20.238774 6.750179c-1.103585-3.660668-1.696746-7.542614-1.696746-11.5631v-837.5550697c0-2.5977782.253066-5.1893785.755611-7.7380839.267326-1.3557678.600235-2.6819226.994782-3.9758181zm42.190144 534.9123927c-3.924131 44.853027 20.111995 83.594792 53.686191 86.532153 9.765596.854379 19.262509-1.414511 27.917365-6.16606-7.619603-1.22639-15.644451-2.536404-24.074798-3.930363-2.146053-.35485-4.219847-1.057415-6.139678-2.080014-30.667378-16.334996-42.823227-45.44264-35.504246-82.130176 7.407788-37.132687 30.287755-58.711085 65.198628-59.500329.79346-.017938 1.587284.01137 2.377261.087769l9.136446.883054c-7.300856-5.409026-15.654445-8.799638-24.700441-9.591061-33.574196-2.937361-63.972596 31.042-67.896728 75.895027zm81.535494-47.279898c-25.029833.565859-40.375548 15.038605-46.037144 43.418237-5.661596 28.379633 2.76944 48.568072 25.293109 60.565316 45.264485 7.48449 78.718485 12.526872 100.361999 15.127146 21.643514 2.600273 37.037438 1.880946 46.181773-2.157984 46.766688-20.497524 79.072512-31.936382 96.917471-34.316572 17.239244-2.2994 83.7564-10.150803 199.551439-23.554447 7.060615-.818326 12.388188-6.797627 12.388188-13.905505v-4.437323l-.003163-.318806c-1.086033.505538-2.281887.823071-3.548753.908199-180.459958 12.126128-273.234247 18.090622-281.709727 18.090622-11.513665 0-22.13627-6.370618-31.905425-18.131475-3.528908-4.24837-2.945669-10.5531 1.302702-14.082009 4.24837-3.528908 10.5531-2.945669 14.082008 1.302701 6.313478 7.600648 11.832919 10.910783 16.520715 10.910783 7.268203 0 91.407453-5.381657 249.597959-15.98084l-19.533934-3.228079c-.739503-.122212-1.487145-.184761-2.235709-.187274l-.449191.005699c-.149729.004303-.299437.01101-.449066.020125l-189.731488 11.557754-53.810903-18.127145-77.259891-7.423961v-.001l-25.583602-2.4573c-.131053-.247951-.263197-.494816-.396424-.740585zm21.742471-420.497317c3.596499 20.396762-7.936235 40.081738-26.750695 43.399235-18.81446 3.317496-36.384343-11.235902-39.980843-31.632665-3.596499-20.396762 7.936235-40.0817375 26.750695-43.3992344s36.384343 11.2359017 39.980843 31.6326644zm-38.462791-9.265485c-5.77884 1.018965-10.047153 8.304456-8.541932 16.840987s8.007907 13.922804 13.786747 12.903839c5.77884-1.018966 10.047152-8.304456 8.541932-16.840988-1.505221-8.536531-8.007908-13.922804-13.786747-12.903838z"/></svg>