<?xml version="1.0" encoding="utf-8"?>
<!-- Generator: Adobe Illustrator 21.0.0, SVG Export Plug-In . SVG Version: 6.00 Build 0)  -->
<svg version="1.1" id="Layer_1" xmlns="http://www.w3.org/2000/svg" xmlns:xlink="http://www.w3.org/1999/xlink" x="0px" y="0px"
	 viewBox="0 0 307.3 151.7" style="enable-background:new 0 0 307.3 151.7;" xml:space="preserve">
<style type="text/css">
	.st0{fill:#010101;}
</style>
<g>
	<path class="st0" d="M2.3,149.6v-18.6h5c1.8,0,3.1,0.1,3.6,0.3c0.9,0.3,1.7,0.9,2.2,1.8c0.6,0.9,0.9,2.2,0.9,3.6
		c0,1.3-0.3,2.5-0.8,3.4c-0.5,0.9-1.1,1.5-1.9,1.9s-2.1,0.6-3.9,0.6h-2v7H2.3z M5.4,134.1v5.3h1.7c1.1,0,1.9-0.1,2.3-0.2
		s0.7-0.5,1-0.9s0.4-0.9,0.4-1.5c0-0.6-0.1-1.1-0.4-1.6s-0.6-0.7-1-0.9c-0.4-0.1-1.2-0.2-2.5-0.2H5.4z"/>
	<path class="st0" d="M40,149.6v-18.6h6.5c1.7,0,2.8,0.2,3.6,0.5c0.7,0.3,1.3,0.9,1.8,1.7s0.7,1.8,0.7,3c0,1.5-0.3,2.6-1,3.5
		c-0.7,0.9-1.7,1.4-3,1.7c0.7,0.5,1.2,1,1.6,1.6c0.4,0.6,1,1.6,1.8,3l1.9,3.6H50l-2.2-4c-0.8-1.5-1.3-2.4-1.6-2.7s-0.6-0.6-0.9-0.8
		s-0.8-0.2-1.5-0.2h-0.6v7.8H40z M43.1,138.8h2.3c1.4,0,2.3-0.1,2.7-0.2c0.4-0.1,0.7-0.4,0.9-0.7c0.2-0.4,0.4-0.9,0.4-1.5
		c0-0.6-0.1-1.1-0.4-1.4c-0.2-0.4-0.6-0.6-1-0.7c-0.3-0.1-1.1-0.1-2.5-0.1h-2.4V138.8z"/>
	<path class="st0" d="M78.6,140.4c0-2.2,0.3-4,1-5.5c0.7-1.4,1.5-2.5,2.6-3.2c1.1-0.7,2.3-1.1,3.8-1.1c2.2,0,4,0.8,5.3,2.5
		c1.4,1.7,2.1,4,2.1,7.1c0,3.1-0.7,5.5-2.2,7.3c-1.3,1.5-3,2.3-5.2,2.3c-2.2,0-4-0.8-5.2-2.3C79.3,145.8,78.6,143.4,78.6,140.4z
		 M81.7,140.2c0,2.1,0.4,3.7,1.2,4.8c0.8,1.1,1.8,1.6,3,1.6c1.2,0,2.2-0.5,3-1.6c0.8-1.1,1.2-2.7,1.2-4.9c0-2.2-0.4-3.8-1.2-4.8
		c-0.8-1-1.8-1.5-3-1.5c-1.3,0-2.3,0.5-3.1,1.6S81.7,138.1,81.7,140.2z"/>
	<path class="st0" d="M119.7,149.6v-18.5h3.1v15.3h7.7v3.1H119.7z"/>
	<path class="st0" d="M155.9,149.6v-18.6h3.1v18.6H155.9z"/>
	<path class="st0" d="M185.7,149.6v-18.6h5c1.8,0,3.1,0.1,3.6,0.3c0.9,0.3,1.7,0.9,2.2,1.8c0.6,0.9,0.9,2.2,0.9,3.6
		c0,1.3-0.3,2.5-0.8,3.4c-0.5,0.9-1.1,1.5-1.9,1.9s-2.1,0.6-3.9,0.6h-2v7H185.7z M188.8,134.1v5.3h1.7c1.1,0,1.9-0.1,2.3-0.2
		s0.7-0.5,1-0.9s0.4-0.9,0.4-1.5c0-0.6-0.1-1.1-0.4-1.6s-0.6-0.7-1-0.9c-0.4-0.1-1.2-0.2-2.5-0.2H188.8z"/>
	<path class="st0" d="M223.4,149.6v-18.6h3.1v7.3h6.1v-7.3h3.1v18.6h-3.1v-8.1h-6.1v8.1H223.4z"/>
	<path class="st0" d="M262.5,149.6v-18.6h3.1v18.6H262.5z"/>
	<path class="st0" d="M290.8,149.6l5.3-9.7l-4.8-8.9h3.6l3,5.6l3-5.6h3.6l-4.8,8.9l5.3,9.7h-3.7l-3.4-6.3l-3.4,6.3H290.8z"/>
</g>
<g>
	<path class="st0" d="M141.8,60c-5.9-0.3-11.4,0.7-16.8,3.4c-10,5.2-14.1,12.6-16,23.2c-1.3,7.1,0.4,11.2,9.8,11.3
		c3.2-0.1,8.1-2,10.5-6.3c5.1-9.5,9.5-19.3,14.2-29C144.4,60.8,143.6,60.1,141.8,60z"/>
	<path class="st0" d="M205.9,1.9h-86L83.1,81.4c-6.6,14.2,7.5,30.5,23.2,30.5h88l36.9-79.5C237.8,18.1,221.6,1.9,205.9,1.9z
		 M220.4,33.7C217.1,47,207.7,54.2,195,57.9c-9.2,2.7-18.7,2.9-28.2,2.9c-3.4,0-4.6,1.4-5.8,4.1c-2,4.7-4.1,9.4-6.6,13.9
		c-5.9,10.6-13.9,19.4-25.3,23.8c-11.2,4.4-22.6,3.6-32.9-3.4c-5.5-3.8-7.5-9.3-6.4-16.1c2.2-12.9,10.2-20.5,21.8-25
		c6.9-2.7,14.1-3.7,21.5-4c3.8-0.1,7.7-0.1,11.5,0c1.9,0,3.1-0.7,3.9-2.4c4.7-9.7,9.8-19.3,13.8-29.3c2.1-5.2,0.9-7.8-4.7-7.8
		c-1.9,0-4,0.9-4.5-1c-0.4-1.6,2.1-3.7,4.1-3.7c7.2,0,14.3,0,21.5,0c0,0,0.1-0.1,0.1,0c6.3,0,12.7,0,19,0c4.5,0,8.8,1.2,12.9,3.1
		C220.7,17.6,222.7,24.2,220.4,33.7z"/>
	<path class="st0" d="M197.8,17.3c-5.3-2.5-13.1-1.6-16.5,5.3c-4.1,8.4-8,16.7-12.1,25.1c-3.2,6.6,6.8,6.5,11.4,5.7
		c12.8-2.1,20-15.2,21.5-26.1C202.8,21.8,202.7,19.6,197.8,17.3z"/>
</g>
</svg>
