<?xml version="1.0" encoding="utf-8"?>
<!-- Generator: Adobe Illustrator 21.0.0, SVG Export Plug-In . SVG Version: 6.00 Build 0)  -->
<svg version="1.1" id="Layer_1" xmlns="http://www.w3.org/2000/svg" xmlns:xlink="http://www.w3.org/1999/xlink" x="0px" y="0px"
	 viewBox="0 0 1001 674.6" style="enable-background:new 0 0 1001 674.6;" xml:space="preserve">
<g>
	<path d="M985.5,115.6C980.3,84.4,972,74,962.5,62c-10.9-13.8-31.4-22.4-68.5-28.8c-33.4-5.8-83.1-10.3-171.5-15.8
		C563.7,7.5,390.7,1.5,200.7,23.9C137.8,31.3,94.8,39.3,69.3,48.4c-22.6,8-29.5,15.8-35.5,24.4c-11.2,15.9-20.2,73.6-21.7,117.3
		c0,0.9-4.1,95.4-4.1,157.5v112.8l0,0.2C9.4,504.5,18.5,562.1,29.7,578c0.6,0.9,1.2,1.8,1.9,2.8c4.6,7.2,11,17.1,35.1,27.4
		c26.6,11.3,70.4,21.4,133.9,30.7c152.4,22.5,294.4,27.2,428,27.2c31.7,0,62.9-0.3,93.6-0.6c147-1.7,216.6-14.6,240.4-44.7
		c9.6-12.1,17.8-22.5,23-52.6c5.2-30.3,7.5-79.5,7.5-164.4V282.7C993,197.7,990.7,146.2,985.5,115.6z M43.3,573.3
		c-0.7-1.1-1.4-2.2-2.2-3.3c-3.9-5.5-8.4-21.1-12-41.6c-3.8-21.3-6.4-46.1-7.1-68.1V347.6c0-61.8,4.1-155.9,4.1-156.9
		c1.6-49.6,11.4-98.8,19.1-109.8c7.9-11.3,18.8-26.8,157.1-43.1c188.9-22.3,361.2-16.3,519.2-6.5c61.9,3.8,107.4,7.4,141.1,11.5
		c11.7,3.3,23,7.7,32.7,15.5c15.9,12.8,24.8,33.2,27.2,62.3c5.8,71.8,8,171,8,216.7v12.4c0,45.7-2.2,144.9-8,216.7
		c-2.4,29.1-11.2,49.5-27.2,62.3c-8.7,7-18.8,11.3-29.3,14.5c-1.9,0.3-3.8,0.5-5.7,0.8c18.9-11.8,30.4-28.6,37.2-43.6
		c12.5-27.4,12.6-54.1,12.6-56.2c0.7-17.5-2.4-29.1-9.5-35.5c-8.6-7.7-20.7-5.8-30.5-4.3c-2.6,0.4-5,0.8-7.1,0.9
		c-1.5,0.1-4.2,0.4-8,0.7c-116.1,9.9-207.7,15-272.1,15c-77.3,0-112.2-1.6-152.6-3.4c-16-0.7-32.5-1.5-53-2.2
		c-34.3-1.2-63.6,11.7-87.1,38.4c-20.7,23.5-34.2,54.4-42.8,77.6c-14.9-1.9-29.8-3.9-44.9-6.1C63.3,604.5,50.8,585,43.3,573.3z
		 M903.2,544c0,0,0,0.1,0,0.2c-61.4,7.4-199.2,17.7-296.6,17.7c-71.7,0-104.1-1.1-141.6-2.4c-14.8-0.5-30.1-1.1-49.2-1.6
		c-31.1-0.9-57.8,8.1-79.2,26.8c-18.2,15.8-30.3,36.3-38.3,52.4c-14.5-1.5-29.1-3.2-43.8-5c20.4-54.1,53.1-112.5,122.5-110
		c20.5,0.7,37,1.5,53,2.2c40.5,1.9,75.5,3.4,152.9,3.4c64.6,0,156.4-5,272.7-15c3.7-0.3,6.4-0.5,7.9-0.7c2.4-0.2,4.9-0.6,7.6-1
		c8.7-1.3,18.7-2.8,24.8,2.6c5.4,4.8,7.8,14.9,7.2,30.1L903.2,544L903.2,544z M721.9,651.5c-131.4,1.5-270.9,1.4-420.4-14
		c19.2-38.1,50-78.3,114.3-76.5c19,0.5,34.3,1.1,49.1,1.6c37.5,1.3,69.9,2.4,141.7,2.4c97.3,0,234.7-10.3,296.5-17.6
		c-0.4,7.9-2.2,29-11.9,50.1c-11,24.2-28.2,40.4-51.2,48.7C809.7,649,771.2,650.9,721.9,651.5z M979,403.8
		c0,173.6-9.8,185.9-27.5,208.3c-7.1,9-21,18.8-58,26.4c2.1-1.4,4.2-2.8,6.2-4.4c17.5-14,27.2-36,29.8-67.2c5.8-72,8-171.5,8-217.3
		v-12.4c0-45.8-2.2-145.3-8-217.3c-2.5-31.1-12.3-53.1-29.8-67.2c-2.8-2.2-5.7-4.2-8.7-6c35.5,6,52.2,13.3,60.5,23.8
		c17.7,22.4,27.5,34.7,27.5,212V403.8z"/>
	<path d="M383.9,437.2c1.9,0.3,3.9,0.4,6,0.4c7,0,14.7-1.6,22.1-4.7c20.7-8.5,32.8-25.4,27.5-38.4c-2.7-6.5-9.2-10.8-18.4-12.1
		c-8.5-1.2-18.5,0.3-28.1,4.2c-9.6,4-17.7,9.9-22.9,16.8c-5.6,7.4-7.2,15.1-4.5,21.6C368.2,431.6,374.7,435.9,383.9,437.2z
		 M375.6,407.7c4.5-5.9,11.6-11.1,20-14.5c6.6-2.7,13.3-4.1,19.4-4.1c1.7,0,3.4,0.1,5,0.3c6.6,0.9,11.2,3.7,12.9,7.8
		c3.7,9-7.1,22.4-23.6,29.2c-8.4,3.5-17.1,4.8-24.4,3.8c-6.6-0.9-11.2-3.7-12.9-7.8C370.3,418.3,371.6,413.1,375.6,407.7z"/>
	<path d="M571.4,394.6c-5.3-13-25.8-16.4-46.5-7.9c-9.6,4-17.7,9.9-22.9,16.8c-5.6,7.4-7.2,15.1-4.5,21.6
		c3.4,8.2,12.7,12.6,24.3,12.6c6.8,0,14.5-1.5,22.2-4.7C564.6,424.4,576.7,407.5,571.4,394.6L571.4,394.6z M541.2,426.5
		c-16.5,6.8-33.6,5-37.4-4.1c-1.7-4.1-0.4-9.3,3.6-14.7c4.5-5.9,11.6-11.1,20-14.5c6.7-2.8,13.6-4.1,19.5-4.1
		c8.7,0,15.6,2.8,17.8,8.2C568.6,406.3,557.8,419.7,541.2,426.5z"/>
	<path d="M684.8,382.5c-8.5-1.2-18.5,0.3-28.1,4.2c-20.7,8.5-32.8,25.4-27.5,38.4c3.4,8.2,12.7,12.6,24.3,12.6
		c6.8,0,14.5-1.5,22.2-4.7c9.6-4,17.7-9.9,22.9-16.8c5.6-7.4,7.2-15.1,4.5-21.6C700.6,388.1,694,383.8,684.8,382.5z M693.1,411.9
		c-4.5,5.9-11.6,11.1-20,14.5c-16.5,6.8-33.6,5-37.4-4.1c-3.7-9,7.1-22.4,23.6-29.2c6.6-2.7,13.3-4.1,19.4-4.1c1.7,0,3.4,0.1,5,0.3
		c6.6,0.9,11.2,3.7,12.9,7.8C698.5,401.4,697.2,406.6,693.1,411.9z"/>
	<path d="M403.4,358.6c2.5,0.1,50.3,2.6,138.7,2.7c88.4,0,136.2-2.5,138.7-2.7c15.6-0.1,28.4-12.8,28.4-28.4
		c0.1-1.6,1.2-25,1.2-56.3V254c0-31.3-1.2-54.7-1.2-56.3c0-15.6-12.8-28.4-28.4-28.4c-2.5-0.1-50.3-2.6-138.7-2.7
		c-88.4,0-136.2,2.5-138.7,2.7c-15.6,0.1-28.4,12.8-28.4,28.4c-0.1,1.6-1.2,25-1.2,56.3v19.9c0,31.3,1.2,54.7,1.2,56.3
		C375,345.9,387.7,358.6,403.4,358.6z M380.7,254c0-32.1,1.2-55.8,1.2-56l0-0.2c0-11.9,9.6-21.5,21.5-21.5l0.2,0
		c0.5,0,48.3-2.6,138.4-2.7c90.1,0,137.9,2.6,138.4,2.7l0.2,0c11.9,0,21.5,9.6,21.5,21.5l0,0.2c0,0.2,1.2,23.9,1.2,56v19.9
		c0,32.1-1.2,55.8-1.2,56l0,0.2c0,11.9-9.6,21.5-21.5,21.5l-0.2,0c-0.5,0-48.2,2.6-138.4,2.7c-90.1,0-137.9-2.6-138.4-2.7l-0.2,0
		c-11.9,0-21.5-9.6-21.5-21.5l0-0.2c0-0.2-1.2-23.9-1.2-56V254z"/>
	<path d="M749,239.5h50.9c3.1,0,5.9-1.5,7.6-4.1c1.7-2.6,2-5.8,0.8-8.6l-23.6-55.1c-1.4-3.3-4.5-5.4-8.1-5.5c-0.1,0-0.2,0-0.3,0
		c-3.5,0-6.6,1.9-8.1,5l-27.3,55.1c-1.4,2.8-1.2,6.1,0.4,8.8C742.9,237.9,745.8,239.5,749,239.5z M747.1,229.5l27.3-55.1
		c0.5-1,1.4-1.2,1.9-1.2c0,0,0,0,0.1,0c0.4,0,1.4,0.2,1.8,1.3l23.6,55.1c0.4,0.9,0,1.7-0.2,2s-0.7,0.9-1.7,0.9H749
		c-1,0-1.6-0.7-1.8-1S746.7,230.4,747.1,229.5z"/>
	<path d="M799.9,288H749c-3.2,0-6,1.6-7.7,4.3c-1.7,2.7-1.8,6-0.4,8.8l27.3,55.1c1.5,3.1,4.6,5,8.1,5c0.1,0,0.2,0,0.3,0
		c3.6-0.1,6.7-2.2,8.1-5.5l23.6-55.1c1.2-2.8,0.9-6-0.8-8.6C805.8,289.5,802.9,288,799.9,288z M801.8,297.9L778.2,353
		c-0.5,1.1-1.4,1.2-1.8,1.3c-0.4,0-1.4-0.1-1.9-1.2L747.1,298c-0.5-0.9-0.1-1.7,0.1-2s0.7-1,1.8-1h50.9c1,0,1.5,0.7,1.7,0.9
		S802.2,297,801.8,297.9z"/>
	<path d="M555,592.6c-0.4-0.1-1.2-0.2-2.5-0.2l-3.4,0l-0.2,12.9l2.1,0l0.1-4.9l1.4,0c1.3,0,2.2-0.1,2.7-0.4c0.5-0.2,1-0.7,1.3-1.3
		c0.4-0.6,0.5-1.4,0.6-2.3c0-1-0.2-1.9-0.6-2.5S555.6,592.8,555,592.6z M554.6,597.5c-0.2,0.3-0.4,0.5-0.7,0.6s-0.8,0.2-1.6,0.1
		l-1.2,0l0-3.7l1,0c0.9,0,1.5,0.1,1.8,0.2c0.3,0.1,0.5,0.3,0.7,0.6c0.2,0.3,0.3,0.7,0.3,1.1C554.9,596.9,554.8,597.2,554.6,597.5z"
		/>
	<path d="M583.7,600.9c-0.3-0.4-0.7-0.8-1.1-1.1c0.9-0.2,1.6-0.5,2.1-1.1c0.5-0.6,0.7-1.4,0.7-2.4c0-0.8-0.2-1.5-0.5-2.1
		c-0.3-0.6-0.7-1-1.2-1.2c-0.5-0.2-1.3-0.4-2.5-0.4l-4.5,0l-0.1,12.9l2.1,0l0-5.4l0.4,0c0.5,0,0.8,0.1,1.1,0.1
		c0.2,0.1,0.4,0.3,0.6,0.5c0.2,0.3,0.6,0.9,1.1,1.9l1.5,2.8l2.5,0l-1.3-2.5C584.4,602,584,601.3,583.7,600.9z M580.4,598.1l-1.6,0
		l0-3.3l1.7,0c1,0,1.5,0,1.7,0.1c0.3,0.1,0.5,0.3,0.7,0.5c0.2,0.2,0.2,0.6,0.2,1c0,0.4-0.1,0.8-0.3,1c-0.2,0.3-0.4,0.4-0.6,0.5
		C582,598.1,581.4,598.1,580.4,598.1z"/>
	<path d="M610.1,592.5c-1,0-1.9,0.2-2.7,0.7c-0.7,0.5-1.3,1.2-1.8,2.2c-0.5,1-0.7,2.3-0.7,3.8c0,2.1,0.5,3.8,1.5,5
		c0.9,1.1,2.1,1.6,3.6,1.6c1.5,0,2.7-0.5,3.6-1.6c1-1.2,1.5-2.9,1.5-5.1c0-2.1-0.5-3.8-1.4-4.9C612.9,593.1,611.6,592.5,610.1,592.5
		z M612.3,602.5c-0.5,0.7-1.2,1.1-2.1,1.1c-0.8,0-1.5-0.4-2.1-1.1c-0.6-0.7-0.8-1.9-0.9-3.3c0-1.5,0.3-2.6,0.8-3.4s1.3-1.1,2.1-1.1
		c0.9,0,1.6,0.4,2.1,1.1c0.5,0.7,0.8,1.8,0.8,3.3C613.1,600.6,612.8,601.7,612.3,602.5z"/>
	<polygon points="637.3,603.2 637.1,592.6 634.9,592.6 635.2,605.4 642.6,605.3 642.6,603.1 	"/>
	
		<rect x="661.8" y="591.9" transform="matrix(0.9996 -2.910284e-02 2.910284e-02 0.9996 -17.1316 19.5441)" width="2.1" height="12.9"/>
	<path d="M689.7,591.1c-0.4-0.1-1.2-0.1-2.5-0.1l-3.4,0.1l0.5,12.9l2.1-0.1l-0.2-4.9l1.4-0.1c1.3-0.1,2.2-0.2,2.7-0.5
		c0.5-0.3,0.9-0.7,1.3-1.4c0.3-0.6,0.5-1.4,0.4-2.4c0-1-0.3-1.9-0.7-2.5S690.3,591.3,689.7,591.1z M689.6,596
		c-0.2,0.3-0.4,0.5-0.7,0.6c-0.3,0.1-0.8,0.2-1.6,0.2l-1.2,0l-0.1-3.7l1,0c0.9,0,1.5,0,1.8,0.1c0.3,0.1,0.5,0.3,0.7,0.6
		s0.3,0.6,0.3,1.1C689.8,595.4,689.8,595.7,689.6,596z"/>
	<polygon points="717.7,589.7 717.9,594.8 713.7,595 713.5,589.9 711.4,590 712,602.9 714.1,602.8 713.9,597.1 718,596.9 
		718.3,602.6 720.4,602.5 719.8,589.6 	"/>
	
		<rect x="740.3" y="588.5" transform="matrix(0.9984 -5.586042e-02 5.586042e-02 0.9984 -32.0733 42.3438)" width="2.1" height="12.9"/>
	<polygon points="767.7,593 770.6,586.7 768.2,586.8 766.3,590.8 764,587.1 761.5,587.3 765.2,593.2 762,600.1 764.5,600 
		766.6,595.5 769.2,599.7 771.8,599.5 	"/>
	<path d="M511.2,574.2h-38.1l-16.3,35.2c-1.3,2.8-1,6.1,0.8,9c2.2,3.5,6.2,5.7,10.2,5.7h39l16.3-35.2c1.2-2.7,0.9-5.7-0.8-8.5
		C519.9,576.7,515.4,574.2,511.2,574.2z M467.8,622.1c-3.3,0-6.7-1.9-8.5-4.8c-1.5-2.3-1.7-4.8-0.7-7.1l15.8-34.1h36.8
		c3.5,0,7.4,2.2,9.4,5.3c1.4,2.2,1.7,4.5,0.7,6.6l-15.8,34.1H467.8z"/>
	<path d="M513.2,580c-1.8-0.8-3.6-1.3-5.6-1.4c-2.8,0-5.5,0-8.3,0c0,0-0.1,0-0.1,0c-3.1,0-6.2,0-9.4,0c-0.9,0-1.9,0.9-1.8,1.6
		c0.2,0.8,1.1,0.4,2,0.4c2.5,0,3,1.1,2.1,3.4c-1.8,4.4-4,8.5-6,12.8c-0.4,0.8-0.9,1.1-1.7,1c-1.7,0-3.3-0.1-5,0
		c-3.2,0.1-6.4,0.6-9.3,1.7c-5.1,2-8.5,5.3-9.5,10.9c-0.5,3,0.4,5.4,2.8,7c4.5,3.1,9.4,3.4,14.3,1.5c5-1.9,8.5-5.8,11-10.4
		c1.1-2,2-4,2.9-6.1c0.5-1.2,1.1-1.8,2.5-1.8c4.1,0,8.3-0.1,12.3-1.3c5.5-1.6,9.6-4.8,11.1-10.5C518.5,584.9,517.6,582.1,513.2,580z
		 M484,601.6c-2.1,4.2-4,8.5-6.2,12.6c-1,1.9-3.1,2.7-4.6,2.8c-4.1-0.1-4.8-1.8-4.2-4.9c0.8-4.6,2.6-7.9,7-10.1
		c2.3-1.2,4.7-1.6,7.3-1.5C484,600.5,484.4,600.9,484,601.6z M509.5,586.3c-0.6,4.7-3.8,10.5-9.4,11.4c-2,0.3-6.3,0.4-4.9-2.5
		c1.8-3.6,3.5-7.3,5.3-10.9c1.5-3,4.9-3.4,7.2-2.3C509.8,582.9,509.8,583.9,509.5,586.3z"/>
	<rect x="390.7" y="214.2" transform="matrix(1 -3.906220e-03 3.906220e-03 1 -0.8408 1.905)" width="193" height="4"/>
	<polygon points="397.2,200.8 400.8,196.2 406.9,208.9 412.7,208.9 403.9,192.5 412.3,181.9 406.2,181.9 397.2,193.9 397.2,181.9 
		392.8,181.9 392.8,208.9 397.2,208.9 	"/>
	<rect x="415" y="181.9" width="4.2" height="4.8"/>
	<rect x="415" y="189.4" width="4.2" height="19.5"/>
	<path d="M423.8,202c0,2.2,0.1,3.6,0.3,4.3c0.2,1,0.7,1.7,1.3,2.2c0.6,0.5,1.5,0.8,2.6,0.8c1.2,0,2.3-0.3,3.3-0.8l-0.4-4
		c-0.7,0.3-1.3,0.5-1.7,0.5c-0.5,0-0.9-0.2-1-0.7c-0.1-0.3-0.1-1.3-0.1-3v-7.9h2.9v-4.1H428v-6.9l-4.2,3v3.9h-2v4.1h2V202z"/>
	<path d="M440.6,209.4c4.1,0,6.6-2.4,7.4-7.1l-4.2-0.9c-0.2,1.4-0.6,2.4-1.1,2.9s-1.2,0.8-2,0.8c-1.1,0-1.9-0.5-2.6-1.4
		c-0.6-1-1-2.6-1-4.9c0-2.1,0.3-3.6,1-4.5s1.5-1.3,2.5-1.3c1.6,0,2.6,1,2.9,3.1l4.2-0.9c-0.5-2.2-1.4-3.7-2.6-4.7
		c-1.2-1-2.7-1.5-4.6-1.5c-2.3,0-4.2,0.9-5.6,2.6c-1.4,1.8-2.1,4.3-2.1,7.7c0,2.8,0.6,5.2,1.9,7.2
		C436.1,208.4,438,209.4,440.6,209.4z"/>
	<path d="M455.3,199.1c0-2.4,0.3-4,0.9-4.9s1.5-1.3,2.5-1.3c1,0,1.8,0.4,2.2,1.2c0.3,0.6,0.5,2.1,0.5,4.5v10.3h4.2v-11.5
		c0-2.2-0.1-3.7-0.4-4.6c-0.4-1.2-1-2.2-1.8-2.9s-1.9-1-3.2-1c-1,0-1.8,0.2-2.7,0.7c-0.8,0.5-1.6,1.2-2.2,2.2v-9.9H451v27h4.2V199.1
		z"/>
	<path d="M476.5,209.4c1.7,0,3.2-0.5,4.3-1.4c1.2-1,2.1-2.4,2.6-4.4l-4.2-0.9c-0.5,1.9-1.4,2.8-2.7,2.8c-0.9,0-1.8-0.4-2.4-1.3
		s-1-2-1-3.6h10.6l0-0.6c0-3.8-0.7-6.6-2.2-8.6c-1.3-1.7-3.1-2.5-5.4-2.5c-2.1,0-3.7,0.8-5,2.5c-1.5,2-2.3,4.6-2.3,7.9
		c0,3.3,0.8,5.9,2.3,7.7C472.3,208.6,474.1,209.4,476.5,209.4z M474,194.1c0.6-0.8,1.4-1.2,2.3-1.2c0.8,0,1.6,0.4,2.2,1.2
		c0.6,0.8,0.9,1.9,1,3.4h-6.3C473.1,196,473.4,194.9,474,194.1z"/>
	<path d="M491.3,200.1c0-2.2,0.1-3.8,0.3-4.6c0.2-0.8,0.6-1.4,1.2-1.9c0.6-0.5,1.2-0.7,1.9-0.7c0.6,0,1,0.2,1.5,0.5
		c0.4,0.4,0.7,0.9,0.9,1.5c0.2,0.7,0.2,2,0.2,4v10h4.2v-12.2c0-1.9-0.2-3.4-0.5-4.4c-0.3-1-0.9-1.8-1.8-2.5c-0.9-0.6-1.9-1-3.1-1
		c-1.1,0-2,0.3-2.9,0.8s-1.7,1.4-2.4,2.5v-2.9h-3.9v19.5h4.2V200.1z"/>
	<polygon points="556.7,228.1 556.7,247.3 559.9,247.3 559.9,238.9 566.1,238.9 566.1,247.3 569.3,247.3 569.3,228.1 566.1,228.1 
		566.1,235.6 559.9,235.6 559.9,228.1 	"/>
	<path d="M582.3,241c0-2.7-0.5-4.7-1.6-6.1c-0.9-1.2-2.2-1.8-3.8-1.8c-1.5,0-2.7,0.6-3.6,1.8c-1.1,1.4-1.6,3.3-1.6,5.6
		c0,2.4,0.5,4.2,1.6,5.5c0.9,1.1,2.2,1.7,3.9,1.7c1.2,0,2.2-0.3,3.1-1c0.8-0.7,1.5-1.7,1.9-3.1l-3-0.6c-0.3,1.3-1,2-1.9,2
		c-0.7,0-1.2-0.3-1.7-0.9c-0.5-0.6-0.7-1.5-0.7-2.6h7.5L582.3,241z M574.8,239.1c0-1,0.2-1.8,0.7-2.4c0.4-0.6,1-0.9,1.6-0.9
		c0.6,0,1.1,0.3,1.6,0.8c0.4,0.5,0.7,1.4,0.7,2.4H574.8z"/>
	<path d="M585.6,240c-0.5,0.3-0.9,0.8-1.2,1.4c-0.3,0.6-0.4,1.3-0.4,2.1c0,1.2,0.4,2.2,1.1,3c0.7,0.7,1.6,1.1,2.7,1.1
		c0.7,0,1.3-0.2,1.9-0.5s1.1-0.8,1.7-1.4l0.4,1.5h3c-0.3-0.7-0.4-1.3-0.5-1.9s-0.1-1.5-0.1-2.7l0-4.3c0-1.6-0.1-2.7-0.4-3.4
		c-0.3-0.6-0.8-1.1-1.4-1.5s-1.6-0.5-2.9-0.5c-1.4,0-2.5,0.3-3.3,0.9c-0.8,0.6-1.3,1.6-1.6,3l2.7,0.6c0.2-0.7,0.4-1.1,0.8-1.4
		c0.3-0.2,0.7-0.4,1.3-0.4c0.5,0,0.9,0.1,1.2,0.2s0.5,0.4,0.6,0.6c0.1,0.2,0.2,0.7,0.2,1.5c-0.5,0.3-1.5,0.6-2.9,0.9
		C586.9,239.4,586.1,239.7,585.6,240z M591,240.6v0.7c0,1.1-0.1,1.8-0.2,2.2c-0.2,0.4-0.5,0.7-0.9,1c-0.4,0.3-0.8,0.4-1.3,0.4
		c-0.5,0-0.9-0.2-1.2-0.5c-0.3-0.4-0.5-0.8-0.5-1.3c0-0.5,0.1-0.9,0.4-1.2c0.3-0.3,0.9-0.6,1.8-0.8C590,240.9,590.6,240.8,591,240.6
		z"/>
	<path d="M597.1,242.4c0,1.6,0.1,2.6,0.2,3.1c0.2,0.7,0.5,1.2,0.9,1.6s1.1,0.5,1.8,0.5c0.9,0,1.7-0.2,2.4-0.5l-0.3-2.8
		c-0.5,0.2-0.9,0.4-1.2,0.4c-0.4,0-0.6-0.2-0.7-0.5c-0.1-0.2-0.1-0.9-0.1-2.1v-5.6h2.1v-2.9h-2.1v-4.9l-3,2.1v2.8h-1.4v2.9h1.4
		V242.4z"/>
	<path d="M652.3,247.6c1.6,0,3-0.5,4.1-1.5c1.1-1,1.9-2.6,2.4-4.7l-3.1-1.2c-0.3,1.4-0.7,2.4-1.3,3.1c-0.6,0.6-1.3,1-2.2,1
		c-1.1,0-2.1-0.5-2.8-1.5c-0.7-1-1.1-2.7-1.1-5.1c0-2.3,0.4-4,1.1-5c0.7-1,1.7-1.5,2.8-1.5c0.8,0,1.5,0.3,2.1,0.8s1,1.3,1.2,2.4
		l3.1-0.9c-0.4-1.7-1-2.9-1.9-3.8c-1.2-1.2-2.7-1.8-4.4-1.8c-2.2,0-3.9,0.8-5.2,2.4c-1.5,1.8-2.2,4.4-2.2,7.7c0,3.1,0.7,5.5,2.2,7.4
		C648.6,246.8,650.3,247.6,652.3,247.6z"/>
	<path d="M666.7,247.6c1.1,0,2-0.3,2.9-0.9c0.9-0.6,1.6-1.4,2.1-2.6c0.5-1.2,0.8-2.4,0.8-3.9c0-1.9-0.5-3.6-1.6-5
		c-1-1.4-2.5-2.2-4.3-2.2c-1.1,0-2.1,0.3-2.9,0.8s-1.6,1.4-2.1,2.5c-0.5,1.1-0.8,2.4-0.8,3.7c0,2.4,0.6,4.2,1.7,5.5
		S665,247.6,666.7,247.6z M664.7,237.1c0.5-0.7,1.2-1.1,2-1.1c0.8,0,1.4,0.4,2,1.1s0.8,1.8,0.8,3.2c0,1.4-0.3,2.5-0.8,3.2
		s-1.2,1.1-2,1.1c-0.8,0-1.4-0.4-2-1.1c-0.6-0.7-0.8-1.8-0.8-3.2C663.9,238.9,664.2,237.9,664.7,237.1z"/>
	<path d="M680.1,247.6c1.1,0,2-0.3,2.9-0.9c0.9-0.6,1.6-1.4,2.1-2.6c0.5-1.2,0.8-2.4,0.8-3.9c0-1.9-0.5-3.6-1.6-5
		c-1-1.4-2.5-2.2-4.3-2.2c-1.1,0-2.1,0.3-2.9,0.8s-1.6,1.4-2.1,2.5c-0.5,1.1-0.8,2.4-0.8,3.7c0,2.4,0.6,4.2,1.7,5.5
		S678.4,247.6,680.1,247.6z M678.1,237.1c0.5-0.7,1.2-1.1,2-1.1c0.8,0,1.4,0.4,2,1.1s0.8,1.8,0.8,3.2c0,1.4-0.3,2.5-0.8,3.2
		s-1.2,1.1-2,1.1c-0.8,0-1.4-0.4-2-1.1c-0.6-0.7-0.8-1.8-0.8-3.2C677.3,238.9,677.6,237.9,678.1,237.1z"/>
	<rect x="688.3" y="228.1" width="3" height="19.2"/>
	<path d="M434.7,275.4c3.1-3.5,5.4-6.4,6.7-8.7s2.3-4.5,3-6.7c0.6-2.2,1-4.5,1-6.9c0-4.2-1.3-7.9-3.8-11.2
		c-2.5-3.3-6.3-4.9-11.3-4.9c-4.6,0-8.2,1.4-10.9,4.2c-2.7,2.8-4.4,7.1-4.9,13.1l9.1,1.1c0.3-6.1,2.5-9.1,6.5-9.1
		c1.9,0,3.3,0.6,4.5,1.9s1.7,3.2,1.7,5.8c0,2.4-0.7,4.7-2.1,7.1c-0.9,1.6-3.4,4.7-7.4,9.3c-5.1,5.7-8.5,10.4-10.3,13.9
		c-1.8,3.5-2.8,7.3-3.2,11.2h32.1V285h-18.2c0.5-1,1.1-2,1.9-3.1C430,280.9,431.8,278.7,434.7,275.4z"/>
	<path d="M475,295.4V237h-7.4c-1.1,3.5-3,6.5-5.7,9.2c-2.7,2.7-5.4,4.5-7.9,5.5v10.1c4.5-1.8,8.4-4.6,11.8-8.5v42H475z"/>
	<path d="M500,245.5c0,4,3.3,7.3,7.3,7.3c4,0,7.3-3.3,7.3-7.3c0-4-3.3-7.3-7.3-7.3C503.3,238.2,500,241.5,500,245.5z M511.7,245.5
		c0,2.4-1.9,4.3-4.3,4.3s-4.3-1.9-4.3-4.3c0-2.4,1.9-4.3,4.3-4.3S511.7,243.1,511.7,245.5z"/>
	<path d="M570.5,293.7v-37.8h-4.8c-0.7,2.2-1.9,4.2-3.7,5.9c-1.8,1.7-3.5,2.9-5.1,3.6v6.5c2.9-1.2,5.4-3,7.6-5.5v27.2H570.5z"/>
	<path d="M582.6,258.6c-1.7,1.8-2.5,4.1-2.5,7.1c0,1.8,0.4,3.4,1.1,4.7c0.7,1.3,1.8,2.3,3.3,3.1c-1.7,0.9-2.9,2.1-3.8,3.7
		s-1.3,3.6-1.3,5.8c0,3.5,1,6.3,2.9,8.3c1.9,2.1,4.4,3.1,7.4,3.1c1.9,0,3.6-0.5,5.1-1.4c1.5-0.9,2.7-2.3,3.6-4.1s1.3-3.8,1.3-6.2
		c0-2.3-0.4-4.2-1.3-5.7c-0.9-1.5-2.2-2.7-4-3.6c1.3-0.7,2.4-1.7,3.1-3.1c0.8-1.3,1.1-2.9,1.1-4.8c0-2.7-0.8-5-2.4-6.8
		c-1.6-1.9-3.9-2.8-6.9-2.8C586.5,255.9,584.3,256.8,582.6,258.6z M592.5,287c-0.8,1-1.8,1.6-3,1.6c-1.2,0-2.2-0.5-3.1-1.6
		c-0.9-1.1-1.3-2.6-1.3-4.7c0-1.7,0.4-3.1,1.2-4.2c0.8-1,1.8-1.6,3.1-1.6c1.2,0,2.2,0.5,3.1,1.6c0.8,1,1.2,2.5,1.2,4.3
		C593.7,284.4,593.3,285.9,592.5,287z M592,262.8c0.7,0.8,1,1.9,1,3.3c0,1.5-0.4,2.6-1.1,3.4s-1.6,1.2-2.7,1.2
		c-1.1,0-1.9-0.4-2.6-1.2c-0.7-0.8-1-1.9-1-3.4c0-1.4,0.4-2.5,1.1-3.3c0.7-0.8,1.6-1.2,2.7-1.2C590.5,261.7,591.3,262.1,592,262.8z"
		/>
	<path d="M651.1,277.5c-3.3,3.7-5.5,6.7-6.6,9s-1.8,4.7-2,7.2h20.7V287h-11.8c0.3-0.6,0.7-1.3,1.2-2c0.5-0.7,1.7-2.1,3.6-4.2
		c2-2.3,3.5-4.1,4.4-5.6c0.9-1.5,1.5-2.9,1.9-4.4c0.4-1.4,0.6-2.9,0.6-4.5c0-2.7-0.8-5.1-2.5-7.2c-1.6-2.1-4.1-3.2-7.3-3.2
		c-2.9,0-5.3,0.9-7.1,2.7c-1.8,1.8-2.8,4.6-3.2,8.4l5.9,0.7c0.2-3.9,1.6-5.9,4.2-5.9c1.2,0,2.2,0.4,2.9,1.3c0.7,0.8,1.1,2.1,1.1,3.7
		c0,1.5-0.4,3.1-1.3,4.6C655.3,272.5,653.7,274.5,651.1,277.5z"/>
	<path d="M684.4,293.7v-7.6h3.8v-6.3h-3.8v-23.8h-5l-13.4,23.9v6.3h12.6v7.6H684.4z M671.6,279.8l7.1-12.8v12.8H671.6z"/>
	<polygon points="485,349.7 489,349.6 488.5,326.6 605.5,326.6 605.5,349.7 609.5,349.7 609.5,326.6 697.5,326.6 697.5,322.6 
		388,322.6 388,326.6 484.5,326.6 	"/>
</g>
</svg>
