<svg height="960" viewBox="0 0 960 960" width="960" xmlns="http://www.w3.org/2000/svg"><path d="m391.917061 5.01004741 463.407983 31.33343979c22.570767 1.5261278 40.099169 20.279739 40.099169 42.9020417v786.4244581c0 22.016685-16.630068 40.476674-38.527327 42.766754l-458.584272 47.960097c-12.588641 1.316557-25.297679.919875-37.779708-1.179204l-230.801907-38.813509c-20.705599-3.48202-35.8689059-21.408229-35.8689059-42.404569v-801.0116651c0-22.0070727 16.6159749-40.46226 38.5023319-42.764132l235.464499-24.76470342c8.00156-.84155474 16.060773-.9917802 24.088137-.44900807zm-234.322448 836.21214059v37.565859c0 .585135-.050256 1.158532-.146687 1.716111l209.718555 35.267365c3.083243.518503 6.185878.891583 9.297641 1.118919l.000599-43.709914c-3.208377-.190111-6.409533-.520902-9.594199-.99212zm697.82948-11.010075-458.96 42.382v43.777l456.272167-47.717399c1.527715-.159773 2.687953-1.447679 2.687953-2.983727zm-718.132-610.98-2.837676.152027-.592324.034973v654.580443c0 1.464861 1.057905 2.715527 2.502482 2.958458l.927518.155099-.000726-438.418016c-.002924-.148347-.002604-.297453.001028-.447246zm31.207907 630.767887c3.037566 0 5.5 3.581722 5.5 8s-2.462434 8-5.5 8-5.5-3.581722-5.5-8 2.462434-8 5.5-8zm-11.207907-203.952887v174.913l212.505849 31.443699c2.214.327594 4.43774.572236 6.666569.733798l.000318-188.712503c-.774732-.048557-1.549045-.10532-2.322808-.170289zm698.132-5.364-458.96 23.431v188.395l458.040587-42.296558c.308783-.028514.615581-.042671.919733-.043018zm-698.132-191.937v177.23l218.523321 18.348834.648679.049166v-190.189zm698.132-.249-458.96 5.704v189.887l458.450277-23.404254c.170831-.008721.340878-.013102.510036-.013239zm-458.96-207.608v193.311l458.835816-5.703429.124184-.000571.000796-174.468264c-.095345-.000044-.190985-.001431-.286902-.004177zm-20-.274-219.172 9.714v178.411l219.172 5.439zm20-33.803v14.069l458.96 13.142.000356-11.88728c-.110965-.000064-.222326-.001948-.334054-.005679zm-20-.386-219.172 11.735v12.148l219.106986-9.709559.065014-.003441zm20-161.0179998v141.3919998l458.96 15.33.00012-122.8845841c0-1.5783002-1.222912-2.8866917-2.797617-2.9931657zm-24.451292-.1684698-234.740708 24.6884698.000816 129.2768338 238.820251-12.786537.370933-.017297.000542-141.5293649c-1.48597.0894364-2.970285.2120751-4.451834.3678953zm-75.054143 28.2337251v100.4744315c0 5.325243-4.173227 9.716323-9.491584 9.987067l-73.108016 3.72174c-5.715144.290943-10.508416-4.264523-10.508416-9.987067v-96.8016179c0-5.1331733 3.886563-9.4326748 8.993679-9.949237l73.108016-7.3945536c5.890689-.5958172 11.006321 4.0284925 11.006321 9.949237zm-20.000016 11.062-53.108 5.371v77.2410005l53.108-2.704zm-26.458642 43.4646315c4.69442 0 8.5 6.268014 8.5 14s-3.80558 14-8.5 14-8.5-6.268014-8.5-14 3.80558-14 8.5-14z"/></svg>