<svg height="960" viewBox="0 0 960 960" width="960" xmlns="http://www.w3.org/2000/svg"><path d="m717.50024 4c32.860527 0 59.49976 26.63934 59.49976 59.5v583.963911c0 1.986496-.343745 13.540769-.898028 25.521341l-.062447 1.332465c-.021099.44443-.042481.88898-.064139 1.333186l-.06579 1.331122c-.444019 8.861072-.995438 17.398729-1.600118 21.897491-8.623206 64.155855-37.751227 123.427115-84.153179 169.983923-56.002521 56.190611-130.461836 87.136561-209.660473 87.136561h-.991652c-79.198637 0-153.657951-30.94595-209.660474-87.13656-56.002522-56.18942-86.8437-130.89881-86.8437-210.36344 0-32.86066 26.55017-59.5 59.300835-59.5 32.423158 0 58.769211 26.109217 59.29289 58.516067l.007945.983933c0 98.4249 79.807062 178.5 177.902504 178.5h.991652c96.102264 0 174.651794-76.854107 177.804175-172.523632-.19795-1.96546-.298332-3.959192-.298332-5.976368l-.000989-118.950463c-51.109989 38.570992-113.011828 59.450463-178.124636 59.450463-79.297966 0-153.850666-30.94595-209.922238-87.136561-56.07276-56.189419-86.953806-130.89881-86.953806-210.363439 0-79.46463 30.880969-154.17402 86.953588-210.3634401 56.071432-56.1906099 130.623946-87.1365599 209.921714-87.1365599 65.113065 0 127.016316 20.87974 178.126367 59.4524.025529-32.8385872 26.653845-59.4524 59.498571-59.4524zm-237.531002 119c-96.604031 0-175.48422 77.547885-177.969238 173.817305.126483 1.545608.187701 3.106999.187701 4.682695 0 1.572329-.060956 3.130414-.180633 4.672019 2.472839 96.274772 81.355324 173.827981 177.962912 173.827981 97.184116 0 176.430943-78.481606 178.006161-175.55282l.023859-2.829172v-.236228c-.063921-98.370792-79.904539-178.38178-178.030762-178.38178z"/></svg>