<?xml version="1.0" encoding="utf-8"?>
<!-- Generator: Adobe Illustrator 21.0.0, SVG Export Plug-In . SVG Version: 6.00 Build 0)  -->
<svg version="1.1" id="Layer_1" xmlns="http://www.w3.org/2000/svg" xmlns:xlink="http://www.w3.org/1999/xlink" x="0px" y="0px"
	 viewBox="0 0 405.4 405.4" style="enable-background:new 0 0 405.4 405.4;" xml:space="preserve">
<style type="text/css">
	.st0{fill:#010101;}
</style>
<g>
	<path class="st0" d="M202.7,2C92,2,2,92,2,202.7c0,110.7,90,200.7,200.7,200.7c110.7,0,200.7-90,200.7-200.7
		C403.4,92,313.3,2,202.7,2z M202.7,395.4C96.4,395.4,10,308.9,10,202.7S96.4,10,202.7,10s192.7,86.4,192.7,192.7
		S308.9,395.4,202.7,395.4z"/>
	<path class="st0" d="M186.9,21.7c-3.2-2.8-7.4-4-11.6-3.4c-43.7,6.3-83.9,28.2-113.2,61.6c-29.5,33.8-45.8,77.1-45.8,122
		c0,44.9,16.3,88.2,45.8,122c29.2,33.5,69.4,55.3,113.2,61.6c0.7,0.1,1.4,0.1,2.1,0.1c3.5,0,6.8-1.2,9.5-3.5
		c3.1-2.7,4.9-6.7,4.9-10.8V32.5C191.8,28.3,190,24.4,186.9,21.7z M65.2,321.3c-28.9-33.1-44.8-75.5-44.8-119.4
		s15.9-86.3,44.8-119.4c28.3-32.4,67.1-53.7,109.4-60.1v359C132.3,375.1,93.5,353.8,65.2,321.3z M187.8,371.4c0,3-1.3,5.9-3.6,7.8
		c-2.1,1.8-4.9,2.7-7.7,2.5V22.2c0.3,0,0.5-0.1,0.8-0.1c2.5,0,4.9,0.9,6.9,2.6c2.3,2,3.6,4.8,3.6,7.8V371.4z"/>
	<path class="st0" d="M341.8,79.9c-29.2-33.5-69.4-55.3-113.2-61.6c-4.2-0.6-8.4,0.6-11.6,3.4c-3.1,2.7-5,6.7-5,10.8v338.9
		c0,4.2,1.8,8.1,4.9,10.8c2.6,2.3,6,3.5,9.5,3.5c0.7,0,1.4,0,2.1-0.1c43.7-6.3,83.9-28.2,113.2-61.6c29.5-33.8,45.8-77.1,45.8-122
		C387.5,157,371.3,113.7,341.8,79.9z M219.6,379.2c-2.3-2-3.6-4.8-3.6-7.8V32.5c0-3,1.3-5.9,3.6-7.8c1.9-1.7,4.4-2.6,6.9-2.6
		c0.4,0,0.8,0,1.3,0.1v359.5C224.8,382,221.9,381.1,219.6,379.2z M338.7,321.3c-28.2,32.3-66.8,53.5-109,60V22.5
		c42.1,6.5,80.8,27.7,109,60c28.9,33.1,44.8,75.5,44.8,119.4S367.6,288.3,338.7,321.3z"/>
</g>
</svg>
