<svg height="960" viewBox="0 0 960 960" width="960" xmlns="http://www.w3.org/2000/svg"><path d="m407.489133 2.2415163.759108.01265353 193.797942 5.07043746c21.676464.56713272 38.953817 18.30243491 38.953817 39.98631641v843.2520653c0 9.265944-3.161089 17.833629-8.491427 24.642915l-.045573.055582-.014821.051707c-5.334429 17.417323-20.790832 30.671948-39.952943 32.357351l-.75831.060503-138.431267 9.917127c-17.479955 1.252253-35.049117.08013-52.207813-3.483033l-47.450646-9.853569c-21.344876-4.432463-36.6472-23.238911-36.6472-45.039151v-528.681785c0-21.01213 12.47311-39.149361 30.463972-47.3442l.536028-.23895v-275.6965623c0-17.9767124 11.987817-33.7206531 29.262661-38.53196796l.525091-.14244207 19.202058-5.07043746c3.181978-.84022353 6.453599-1.28404611 9.740556-1.32455991zm-50.489133 368.3491197v528.681785c0 2.843509 1.995955 5.296524 4.78007 5.874671l7.438 1.544865c-.959752-2.346295-1.484248-4.904825-1.484248-7.566239l-.000623-540.46875c-6.042396.634709-10.733199 5.743603-10.733199 11.933668zm64.665-327.9731197 2.866 860.2499997 158.55-10.587-.891-.46403 18.287-1.21897.00054-842.9712125-57.37654-1.8307872zm-19.996 1.312-13.669 3.625v310.7309697l-.267.00303.000822 540.837202 16.795178 3.436798zm108.344166 579.5280867c0 13.514476-10.874111 24.820723-24.407146 25.456859l-28.793594 1.353477c-13.914433.654065-25.346233-10.240371-25.346233-24.166364 0-13.572699 10.880231-24.924191 24.44396-25.511684l28.793594-1.247151c13.884059-.601367 25.309419 10.246101 25.309419 24.114863zm86.380781-4.894703c0 13.449537-10.896542 24.662288-24.407147 25.29737l-28.793593 1.353477c-13.888922.652865-25.346234-10.143052-25.346234-24.006875 0-13.507525 10.902804-24.765681 24.443961-25.352196l28.793593-1.247151c13.858696-.600269 25.30942 10.14852 25.30942 23.955375zm-110.607945.756291-.216797.004815-28.793593 1.247151c-2.868609.124249-5.309419 2.67078-5.309419 5.530418 0 2.506345 1.889241 4.306781 4.407146 4.188424l28.793594-1.353477c2.899302-.136286 5.346233-2.680458 5.346233-5.478919 0-2.304506-1.685222-4.036177-4.013738-4.134043zm86.389215-4.735427-.225231.005027-28.793594 1.247151c-2.89118.125227-5.309419 2.622283-5.309419 5.37093 0 2.392348 1.86373 4.148491 4.407147 4.028934l28.793593-1.353477c2.921734-.137339 5.346234-2.632196 5.346234-5.319429 0-2.192862-1.656753-3.877047-3.997327-3.974662zm-62.162051-67.351152c0 13.550673-10.92959 24.81045-24.502186 25.319106l-28.793594 1.079087c-13.880248.520186-25.251193-10.424614-25.251193-24.312146 0-13.608808 10.935747-24.914008 24.539043-25.373581l28.793593-.972763c13.849802-.467901 25.214337 10.430118 25.214337 24.260297zm86.380781-4.071536c0 13.486025-10.952331 24.651813-24.502187 25.159617l-28.793593 1.079088c-13.855046.519241-25.251194-10.327643-25.251194-24.152658 0-13.543922 10.958629-24.755293 24.539043-25.214093l28.793594-.972762c13.824745-.467055 25.214337 10.332886 25.214337 24.100808zm-110.700028-.202866-.219796.002702-28.793593.972762c-2.829042.095576-5.214337 2.561456-5.214337 5.384985 0 2.544807 1.950096 4.421821 4.502186 4.326177l28.793593-1.079088c2.859742-.107174 5.251194-2.570872 5.251194-5.333136 0-2.340885-1.739294-4.142546-4.102703-4.267677zm86.382808-3.912228-.221823.002882-28.793594.972762c-2.851924.09635-5.214337 2.513247-5.214337 5.225497 0 2.431157 1.924894 4.263276 4.502186 4.166688l28.793594-1.079088c2.882482-.108026 5.251194-2.522903 5.251194-5.173647 0-2.233486-1.717021-3.989243-4.098885-4.108768zm-62.063561-68.038362c0 13.587145-10.985705 24.800045-24.597327 25.180451l-28.793594.804698c-13.845341.386938-25.156052-10.607671-25.156052-24.457026 0-13.645188 10.991897-24.903689 24.634216-25.234576l28.793594-.698373c13.81483-.335071 25.119163 10.612942 25.119163 24.404826zm86.380781-3.248368c0 13.522795-11.008756 24.641199-24.597328 25.020961l-28.793593.804699c-13.820448.386242-25.156053-10.511039-25.156053-24.297537 0-13.580597 11.015091-24.744763 24.634217-25.075088l28.793593-.698373c13.790083-.334471 25.119164 10.516053 25.119164 24.245338zm-110.798293-1.162991-.216705.000653-28.793593.698373c-2.790019.067671-5.119163 2.453307-5.119163 5.240456 0 2.582983 2.010331 4.537131 4.597327 4.464832l28.793594-.804699c2.820715-.07883 5.156052-2.462464 5.156052-5.188256 0-2.380993-1.798854-4.255424-4.203771-4.402863zm86.388931-3.088925-.224855.000698-28.793594.698373c-2.813211.068233-5.119163 2.405393-5.119163 5.080968 0 2.469673 1.985437 4.378338 4.597328 4.305343l28.793593-.804699c2.843766-.079475 5.156053-2.414792 5.156053-5.028767 0-2.269916-1.770813-4.095636-4.18788-4.243162zm-61.971419-68.724707c0 13.623893-11.042455 24.789487-24.692545 25.04089l-28.793593.530309c-13.809734.254343-25.060835-10.78954-25.060835-24.601001 0-13.681841 11.048683-24.893216 24.729456-25.094664l28.793594-.423984c13.779167-.202897 25.023923 10.794573 25.023923 24.54845zm86.380781-2.425201c0 13.559847-11.065816 24.630429-24.692545 24.881401l-28.793594.530309c-13.78515.25389-25.060835-10.693241-25.060835-24.441512 0-13.617551 11.072187-24.734073 24.729457-24.935176l28.793593-.423984c13.75473-.202537 25.023924 10.69802 25.023924 24.388962zm-111.110237-2.125417-28.793594.423984c-2.751565.040517-5.023923 2.346336-5.023923 5.096832 0 2.620877 2.06994 4.652695 4.692545 4.604393l28.793593-.53031c2.782249-.051242 5.060835-2.355238 5.060835-5.044281 0-2.559059-2.076286-4.589686-4.729456-4.550618zm86.38078-2.265713-28.793593.423984c-2.775069.040863-5.023924 2.298723-5.023924 4.937344 0 2.5079 2.045357 4.493658 4.692545 4.444903l28.793594-.530309c2.805609-.051673 5.060835-2.30787 5.060835-4.884792 0-2.445829-2.051848-4.430557-4.729457-4.39113zm-86.579716-94.100376c13.742738-.070713 24.928392 10.975657 24.928392 24.691715 0 13.660921-11.09984 24.778763-24.787812 24.900423l-28.793594.255921c-13.773449.12242-24.965567-10.970222-24.965567-24.74407 0-13.718768 11.106102-24.882571 24.824736-24.953845zm86.380783-1.442549c13.718609-.070583 24.92839 10.879437 24.92839 24.53223 0 13.597185-11.123511 24.619485-24.787813 24.740934l-28.793593.255921c-13.749175.122204-24.965568-10.874248-24.965568-24.584581 0-13.654785 11.129917-24.723206 24.824737-24.794357zm-86.277056 21.442553-28.793665.14987c-2.713704.014099-4.928643 2.240545-4.928643 4.954115 0 2.658491 2.128923 4.768492 4.787812 4.74486l28.793594-.255921c2.744365-.024392 4.965567-2.249196 4.965567-4.901213 0-2.596814-2.135323-4.705548-4.824665-4.691711zm86.380782-1.442551-28.793666.149875c-2.737519.014223-4.928644 2.193241-4.928644 4.794627 0 2.545839 2.10465 4.609219 4.787813 4.585371l28.793593-.255921c2.768037-.024602 4.965568-2.202138 4.965568-4.741724 0-2.483911-2.111196-4.546185-4.824664-4.532228zm-58.100575-124.662601c15.725644 0 28.068385 13.577016 28.068385 29.875224s-12.342741 29.875223-28.068385 29.875223-28.068385-13.577015-28.068385-29.875223 12.342741-29.875224 28.068385-29.875224zm0 20c-4.232144 0-8.068385 4.219866-8.068385 9.875224s3.836241 9.875223 8.068385 9.875223 8.068385-4.219865 8.068385-9.875223-3.836241-9.875224-8.068385-9.875224zm0-111.4260299c18.719312 0 33.488901 16.2465479 33.488901 35.8377909s-14.769589 35.837791-33.488901 35.837791-33.488901-16.246548-33.488901-35.837791 14.769589-35.8377909 33.488901-35.8377909zm0 19.9999999c-7.225812 0-13.488901 6.889398-13.488901 15.837791s6.263089 15.837791 13.488901 15.837791 13.488901-6.889398 13.488901-15.837791-6.263089-15.837791-13.488901-15.837791z"/></svg>