<svg height="960" viewBox="0 0 960 960" width="960" xmlns="http://www.w3.org/2000/svg"><path d="m527.879366 1c2.138576 0 4.053355.15373274 5.850856.42187265 48.863814 2.3443777 94.043652 24.57870775 127.283345 61.21362655 33.817698 37.2719641 52.986433 86.9047028 52.986433 139.5249958 0 53.418249-19.757226 103.743517-54.495768 141.169692-31.881624 34.348225-74.322433 55.60057-120.295337 59.204613l.001338 397.534525c22.708817 1.638891 43.27659 4.252094 60.262218 7.685022 14.551391 2.940949 26.652498 6.489169 36.35317 10.98318 6.898026 3.195635 12.918242 6.976097 18.186831 11.994338 3.863765 3.680169 7.19729 7.92945 9.798575 12.916057 3.328708 6.38106 5.188973 13.523633 5.188973 21.018745 0 5.411645-.975969 10.695864-2.811501 15.661475-.617422 1.670292-1.322491 3.281307-2.109879 4.832046l-6.173473 16.732937c-.894413 3.794709-2.280296 7.428876-4.084589 10.845551-2.675572 5.066561-6.103421 9.380832-10.079009 13.117057-5.450631 5.122458-11.715909 8.996238-18.917135 12.27042-10.301281 4.683684-23.240838 8.366995-38.7191 11.343608-28.531523 5.486875-65.946894 8.530239-105.605314 8.530239s-77.073791-3.043364-105.605314-8.530239c-15.478262-2.976613-28.417819-6.659924-38.7191-11.343608-7.201226-3.274182-13.466504-7.147962-18.917135-12.27042-3.975588-3.736225-7.403437-8.050496-10.079009-13.117057-1.804398-3.416873-3.190337-7.051263-4.084749-10.846271l-6.170719-16.726942c-.787116-1.54986-1.492075-3.159942-2.109495-4.829268-1.837435-4.967897-2.814479-10.25489-2.814479-15.669528 0-7.474681 1.850304-14.59984 5.162953-20.968792 2.591389-4.982247 5.914243-9.230451 9.766786-12.910867 5.256313-5.021467 11.263234-8.805084 18.144536-12.003033 9.668804-4.493385 21.722917-8.040239 36.217719-10.981922 16.89117-3.428019 37.345555-6.043066 59.938802-7.692147l.913991-424.328314c-37.885889-22.693881-68.029949-58.065731-84.447403-99.761145-6.904539-2.649571-13.26972-6.519463-18.741193-11.475747-8.404741-7.613356-14.440384-17.556905-16.969538-28.846736-2.587909-11.552104-3.839448-23.946058-3.839448-37.185512 0-11.565271.950016-21.936276 3.019446-31.277766 2.600209-11.737448 8.980799-22.009451 17.858077-29.736796 5.799427-5.048189 12.542707-8.905187 19.825538-11.429012 11.105052-28.2657443 28.379975-53.4752681 50.732334-73.73872 29.477095-26.7223562 66.658976-43.87625671 108.395575-49.36427567l-.003045-.02051946c.193608-.02872414.387272-.05713208.58263-.07547912.061449-.014915.125591-.02318565.189743-.03142883 8.463834-1.22405408 17.033728-1.83845492 25.665195-1.83845492h1.562341 1.708117zm60.634531 902.078097c-28.924708 5.171967-67.489112 8.08857-108.513897 8.08857s-79.589189-2.916603-108.513897-8.08857c-10.257971-1.834207-19.225701-3.934344-26.773298-6.316505 13.034762 12.124654 68.876581 21.238408 135.787195 21.238408 67.792334 0 124.222231-9.355531 136.283608-21.719219-7.853258 2.581584-17.327419 4.840747-28.269711 6.797316zm-182.829816-61.451828-1.559508.166296c-43.212015 4.662644-72.124573 13.162053-72.124573 22.874102 0 1.205583.445512 2.392481 1.308585 3.555674l.319658.881315c11.924143 12.526368 72.919474 22.063011 146.371757 22.063011 82.005081 0 148.483333-11.88684 148.483333-26.55 0-12.221568-46.182586-22.514419-109.045564-25.603328l-.002285 13.143985c0 3.734851-.990456 7.315572-2.773425 10.431303 2.345282 1.065392 3.654608 2.252125 3.654608 3.50304 0 3.009837-7.580158 5.6481-18.952427 7.119768-2.246805.543956-4.665259.922728-7.335053 1.200371-3.851425.400527-8.388473.588194-13.695344.588194-5.303151 0-9.832118-.187379-13.672676-.587657-2.788879-.290668-5.301403-.691954-7.631697-1.278383-11.04369-1.485957-18.362803-4.084736-18.362803-7.042293 0-1.216862 1.239008-2.372988 3.466698-3.41584-1.816809-3.142167-2.827205-6.765446-2.819084-10.554218l.025541-13.14607c-12.629999.607339-24.594482 1.505084-35.655741 2.65073zm56.500631-395.481716-.870477 406.019925c-.000852.397795.236305.757686.601288.915891 2.952418 1.279754 9.091858 1.919631 18.41832 1.919631 9.336244 0 15.502149-.64122 18.497717-1.923659.36701-.157121.603924-.519788.603924-.919017l.000385-13.942565c-.075152-.001717-.150321-.003425-.225508-.005122l-.001792-390.639961c-3.200121.286692-6.38093.430324-9.541902.430324-6.526309 0-15.663845-.619495-27.481955-1.855447zm.155484-73.634044-.112229 53.525592c12.153671 1.310437 21.326636 1.963899 27.4387 1.963899 3.142907 0 6.323181-.175746 9.541767-.528267l-.000716-46.504486c-12.756473-1.457959-25.095283-4.32886-36.867522-8.456738zm57.680812-331.4299445-.677983.0293025c-5.098478.20085-10.132052.6755067-15.088473 1.4109776-86.573316 11.1323772-140.254552 81.8642314-140.254552 161.9486674 0 7.149207.492086 14.194328 1.43984 21.104442.854649 5.916664 2.023131 11.727177 3.48557 17.413537l.01727.002899c10.525772 40.76897 36.995492 75.431356 70.99057 96.831191 23.08449 14.140062 50.018934 22.253419 78.783417 22.253419 85.604136 0 155-71.858298 155-160.5 0-88.191058-68.692056-159.7689274-153.695659-160.4944355zm8.228992 16.2611022c12.422769 0 24.570321 1.8673276 36.171106 5.4325434.407256.1252543.814043.2526273 1.220129.3820875.238683.0758461.476713.1524892.714504.2298494.074999.0247341.150278.0493163.225532.0739703.179794.0585127.359182.1177063.538433.1773081.165241.0554247.330245.1107048.49513.1663307.233336.0781344.466777.1576196.699979.2377983.016924.0064951.033903.0123402.050881.018189.293569.1003926.586651.2025295.879352.3057619.058606.021543.117252.0422883.175881.0630776.265681.0932528.530949.1882719.795898.2841913.04147.016092.083108.0312006.124738.0463313 19.50086 7.0822907 37.266951 19.0443365 51.941074 35.0381427 12.70579 13.8484558 22.614282 30.1858578 29.259996 48.0581498.060547.165403.121771.330795.18271.496306.193287.523073.383164 1.048107.570232 1.574423.075247.212581.150242.424896.224774.637398.041467.117809.082684.235891.12376.354037.069296.199366.138407.399318.207109.599435.068764.200756.137136.401445.205102.602314.051058.149972.101729.300371.152169.450861.053218.160104.10653.32018.159585.480367.089463.268281.177815.537319.265431.806642.025764.081572.052229.163226.078628.244908 4.435436 13.710211 6.964722 28.156335 7.451172 42.956124.057593 1.756082.086695 3.517314.086695 5.283454 0 37.036465-12.797854 71.914493-35.407245 98.513272-.054968.063947-.109494.127999-.164075.192-.156205.183786-.313201.366877-.470664.54957-.783526.908807-1.577521 1.806953-2.382425 2.694383l-.542954.595193c-21.932681 23.905147-50.772757 38.803423-81.988031 41.866852l.040354-.005614c-.07727.009282-.154645.017661-.23211.025136-.646547.062389-1.293864.119669-1.941917.17183-.190748.014654-.381073.029542-.571481.043991-.218744.017246-.43811.033282-.657557.048731-.328555.022555-.656988.044384-.985658.064904-.211421.013695-.423401.02636-.635455.038479-.285265.015877-.570486.03121-.85588.045557-.205888.010703-.411855.02052-.617889.029822-.240977.010588-.481566.020766-.722273.030242-.168713.006878-.337766.013172-.506863.01912-.43043.014968-.861302.027902-1.292535.038586-.079965.002086-.160301.003993-.240646.005822-.416088.009402-.8324.016803-1.249035.022104-.049938.000665-.099621.001265-.149306.001836-.474915.005443-.950433.008184-1.426355.008184-.250067 0-.500023-.000757-.749865-.002269l.749865.002269-1.089391-.004773c-.15698-.001376-.313928-.003049-.470842-.00502-.33233-.004219-.664039-.009735-.995536-.01658-.117428-.002335-.2351-.004925-.352751-.007682-.285228-.00681-.570309-.014499-.855229-.02317-.138594-.004035-.277556-.008487-.41649-.013172-.339756-.011698-.678584-.024556-1.017176-.038802-.1913-.007722-.382025-.01617-.572695-.025059-.295477-.014177-.591203-.029064-.886743-.04501-.128172-.006426-.256192-.013518-.384185-.020808-.250593-.014826-.501505-.02992-.752279-.045775-.201138-.012076-.401457-.025208-.601708-.038828-.180909-.013024-.362268-.025787-.543552-.038948-.850352-.06085-1.698949-.131213-2.546235-.210332-.111191-.011525-.222504-.022088-.333787-.032801-.30096-.02776-.601677-.05779-.902222-.088923-.044328-.005896-.089341-.01059-.13435-.015309-1.56789-.162853-3.130422-.356963-4.687794-.580932l-.12843-.020451c-29.045681-4.211547-55.752721-18.721306-76.361242-41.183207-24.82145-27.05371-38.967363-63.606166-38.967363-102.544418s14.145913-75.490709 38.967363-102.5444188c13.718088-14.9517924 30.138379-26.3800581 48.151917-33.5928359.080147-.0309212.159846-.0627616.239577-.0945195.855961-.3418187 1.715952-.6731712 2.579408-.9949293.085999-.0316798.171657-.0635156.257349-.095257.195597-.0727175.391634-.1447195.587846-.2162273.164574-.0598612.329166-.1194967.493881-.1787842.148623-.0534852.297608-.1067519.446694-.1597342.228267-.081269.456568-.1617125.685101-.2414883.060153-.0207197.120208-.0416166.180278-.0624675.300712-.1047634.601995-.2081209.903673-.3103187.025478-.0080941.050489-.016552.075503-.025002 3.183147-1.0766201 6.410775-2.0237164 9.676657-2.8378865l.186282-.0441096c9.577854-2.3711205 19.482454-3.6020215 29.568471-3.6020215zm26.565334 193.5100603c-3.497024 1.104822-7.142007 1.767291-10.873552 1.948836l.000965.048666c.024791 3.199642-.237806 6.181923-.844928 8.94908-1.260183 5.752593-4.33688 15.990468-8.495252 28.602821-3.566669 10.817717-7.583337 22.293291-10.231973 29.266548-.638961 1.68857-2.596081 6.686564-2.879742 7.431589-.001661.004362-.003321.008722-.00485.012801 2.243634.15591 4.499335.229599 6.763998.229599l1.068887-.00551c.120344-.001241.240658-.002692.360941-.004351 2.814213-.038568 5.613907-.19135 8.395184-.457867 2.453682-.296593 4.824254-.66755 7.090419-1.094799 2.094112-.394811 3.980283-.814464 5.6209-1.230309 3.388238-22.763451 5.347463-39.894776 5.15821-47.441899-.115626-4.620352-.216774-6.917454-.876738-20.832729-.099534-2.098681-.179754-3.817872-.252469-5.422476zm-35.178645 20.695231c-6.959028 6.489157-11.293302 10.584523-14.865885 14.066422-6.343159 6.216673-19.134102 16.38249-32.070595 25.593022 8.981001 5.622343 18.637742 9.865139 28.730745 12.585486.372384-1.131156.821171-2.370673 1.368823-3.809061.331777-.8714 2.28479-5.858871 2.868246-7.401273l.004835-.012756c2.532246-6.666657 6.45474-17.873103 9.935477-28.430185 1.505981-4.567644 2.865264-8.816393 4.028354-12.591655zm55.469368-14.938958c.616013 13.000009.714891 15.31.832212 19.998073.197171 7.86289-1.256766 21.96846-3.935374 41.008284 9.504603-4.419497 18.436653-10.278944 26.556179-17.434509-.613593-1.058835-1.246638-2.253347-1.965045-3.678952-.420311-.834064-2.634642-5.351155-3.319867-6.704994l-.009434-.018687c-3.017217-5.992391-8.342472-15.87952-13.496531-25.025245-1.633898-2.899306-3.199104-5.633782-4.66214-8.14397zm-66.720233-19.245217-.062098.083317c-.124651.161563-.254873.320169-.390657.475557-3.757419 4.299869-7.525702 7.624056-11.561732 9.785978-.00442.003101-.009147.005641-.014568.00838-4.919926 2.642701-14.022898 6.547142-25.467023 11.043368-9.763506 3.835936-20.272828 7.710554-26.793778 9.891599-1.031433.347852-5.545648 1.804574-7.553222 2.481783 1.69794 3.109259 3.556544 6.13507 5.544049 9.074472 3.809948 5.634686 7.897564 10.679274 11.970874 15.041376.938235 1.004754 1.827374 1.920832 2.655111 2.742931 13.574617-9.392848 27.919484-20.639646 34.075862-26.678447.007646-.0075.015304-.014988.022974-.022463 4.405704-4.293873 9.80845-9.374364 19.469399-18.360543l.251544-.233966c.517219-.481059 1.045287-.972109 1.749915-1.627271l.872389-.811132.86957-.808534c1.40608-1.307445 2.434945-2.264545 3.433425-3.194137.193127-.179802.383399-.356979.570947-.531651-3.355268-2.183943-6.457019-4.832443-9.22748-7.895331-.139502-.154227-.278004-.309326-.415501-.465286zm77.854437-20.589925c-1.155099 4.31668-2.841627 8.434676-5.011263 12.251268l.051078.063296c.420029.512602.819793 1.033506 1.198795 1.56341.002638.00302.004966.006267.007527.010023 3.281287 4.578561 8.507722 13.274243 14.7055 24.272017 5.294296 9.394574 10.760243 19.542759 13.93263 25.842857.4137.817668 1.253929 2.519649 1.991843 4.016361 6.53129-8.1617 12.053641-17.249518 16.432346-27.015952-10.358613-11.679832-22.200373-23.584866-28.394538-28.563331-.008471-.006808-.016932-.013631-.025381-.020467-3.764203-3.045675-8.099631-6.667089-14.888537-12.419482zm-170.438613-2.019606.063942.700907c1.274381 13.503451 4.505014 26.509153 9.482668 38.605741 1.105647-.516751 2.314964-.999915 3.692878-1.494762 1.633854-.586762 7.79342-2.571352 8.672723-2.868475.009871-.003335.019747-.006651.029629-.00996 6.16046-2.060226 16.362692-5.821524 25.83276-9.542173 5.443403-2.138632 10.338131-4.141523 14.357252-5.87494-16.497683-3.93356-18.237294-4.343375-23.225902-5.445618l-.017416-.003864c-8.69472-1.93739-24.345487-7.63079-38.888534-14.066856zm180.450776-15.714025c8.403047 7.135316 13.339945 11.274341 17.456503 14.605111 5.604393 4.508749 14.468342 13.164123 23.32146 22.641019 2.424139-9.522757 3.836093-19.437261 4.151716-29.576175-2.369292-.497995-5.329238-1.140916-5.449266-1.165934-.241893-.050418-.478655-.099267-.711818-.14684l-.020437-.004192c-6.280356-1.295046-16.830655-3.137021-26.713701-4.646531-4.388885-.670346-8.455538-1.246939-12.034457-1.706458zm-249.193958-32.736525-.168907.117679c-3.430086 2.390531-5.836629 5.7052-6.669718 9.465799-1.381757 6.237308-2.072636 13.779399-2.072636 22.626272 0 10.414085.957336 19.894557 2.872008 28.441416.765033 3.415011 2.831255 6.467019 5.792017 8.788849-.436626-2.410222-.823347-4.831858-1.159493-7.26364-1.2756-8.778766-1.93507-17.763117-1.93507-26.904077 0-12.067437 1.149321-23.861935 3.341799-35.272298zm194.778029 6.439273c-14.250516 0-26.230654 13.244662-26.230654 30.054861 0 16.810198 11.980138 30.05486 26.230654 30.05486 6.370765 0 12.287776-2.647054 16.88349-7.076356.626588-.605413 1.22855-1.244325 1.803569-1.914512l.149087-.168529c4.556494-5.376501 7.394508-12.713656 7.394508-20.895463 0-1.689092-.120954-3.342185-.353013-4.94946l-.013187-.081924c-.280704-1.905036-.720133-3.760219-1.31016-5.546183-.032371-.097986-.063144-.196108-.092332-.294338-3.837895-11.310295-13.475169-19.182956-24.461962-19.182956zm-116.995245-13.961051c-2.209283 7.804404-3.679613 15.909209-4.558794 23.935406-.377616 3.447322-.618161 6.641428-.748639 9.503981-.037334.819065-.063431 1.565457-.079948 2.232651 14.577583 6.73719 31.535069 13.05185 39.585649 14.845782 5.204468 1.14999 6.919373 1.554976 24.14652 5.662568.303118.072275.595885.14206.881379.210088 5.796317 1.381158 10.089845 2.392995 13.836898 3.254466-1.507044-4.976011-2.298474-10.240028-2.298474-15.62903 0-.691682.013038-1.381304.038952-2.068522-1.709506.850496-3.679154 1.219145-5.70819.95962-5.466194-.699156-10.265343-2.051069-14.329435-4.369753l-.019243-.011008c-4.909294-2.815341-13.27015-8.729693-23.338069-16.364451-8.791688-6.66696-17.872852-13.897334-23.264786-18.517071-.010399-.00891-.020781-.017841-.031143-.026794-.683386-.590401-2.513343-2.208647-4.112677-3.617933zm208.448608-2.559479c-14.571524.782497-29.848437 2.575068-37.060125 4.342236-3.031419.750041-6.696674 1.621257-11.496128 2.738334-1.878426.437205-3.854884.89465-6.536976 1.513582-.062017.014274-2.939061.677857-5.030053 1.160393.581819.579105 1.150101 1.176044 1.705089 1.789612 2.756057 3.046963 5.121748 6.434365 7.057306 10.077222.771599-.042321 1.534583-.052135 2.290728-.029469 5.445451.163713 15.102 1.33107 27.086909 3.161613 10.190821 1.556519 21.059151 3.453806 27.712655 4.825262.006702.001269.013387.002633.020191.004044.254857.052008.512388.105157.774297.159747.060657.012643.227999.048546.477444.102247-.518635-4.449179-1.252961-8.844939-2.197955-13.172849-.064728-.297761-.130722-.595208-.197691-.892302-1.212742-5.375768-2.751096-10.64498-4.605691-15.779672zm-140.634761-72.536987c-8.946117 3.2801405-17.473273 7.798825-25.397453 13.4417629 4.628319 17.1554781 10.741336 35.6215431 14.503753 43.9284781 2.48194 5.458801 2.933148 6.483354 11.353653 25.689398l.24722.563817c2.700815 6.158904 4.689553 10.668529 6.445495 14.601093 2.115415-4.992137 4.991028-9.599257 8.537813-13.632411-1.657847-.860842-3.093318-2.196012-4.082135-3.942355-2.807633-4.958547-4.771616-9.68579-5.663051-14.283571-1.134645-5.851973-2.381105-16.626497-3.567285-29.997387-1.024096-11.543848-1.883528-23.8156437-2.202053-31.3063386-.063738-1.4967535-.076213-1.8587543-.175957-5.0624864zm-42.106264 27.930209-.324018.34022c-.426313.450513-.849793.904997-1.270399 1.363428-6.881038 7.499869-12.818469 15.862935-17.708713 24.885549 1.223523.833673 2.498946 1.838008 3.949825 3.066384 1.199738 1.01575 5.784577 5.08704 6.814835 5.978302 5.054674 4.33001 13.831684 11.317964 22.324235 17.758081 3.27665 2.484766 6.367968 4.780241 9.164717 6.805718-7.119821-16.238343-7.653508-17.441164-9.950101-22.492269l-.005958-.013129c-3.548324-7.834109-8.588624-22.556418-12.994423-37.692284zm113.062117-27.9978573c-8.526838 13.1581018-16.94847 28.1555863-20.193791 35.9059253-2.236028 5.358431-2.715043 6.466372-10.791305 25.055458l-.22975.528868c-1.677196 3.861211-3.060233 7.055986-4.272144 9.87328 4.242974-1.423454 8.714678-2.193013 13.301551-2.236422 1.519274-3.99559 3.31003-7.434501 5.515021-10.286202l.01043-.013465c3.481555-4.486862 10.347897-11.837977 19.02803-20.536916 7.573942-7.590351 15.679538-15.335226 20.743122-19.826846.011115-.009859.022252-.019694.033411-.029504.70115-.616388 1.407733-1.22798 2.254424-1.953637.351731-.3014518 1.591362-1.3601677 1.959869-1.6756961-8.452841-6.3070681-17.655158-11.2895201-27.358868-14.8048432zm42.48803 28.1522653c-.59228.527016-1.261325 1.107476-2.065858 1.79705-.318654.273122-1.658089 1.417025-2.008145 1.717041-.779012.667654-1.419683 1.222117-2.0426 1.769565-4.72203 4.189419-12.541981 11.661631-19.845954 18.981429-3.658727 3.666654-6.981424 7.086508-9.779958 10.064738 1.809038-.417363 3.534376-.815293 3.329856-.768098 2.677616-.617894 4.646569-1.073599 6.513456-1.508118 4.728144-1.100479 8.319779-1.954251 11.247715-2.678827l.022223-.005472c7.172462-1.757556 19.845812-3.40464 32.981783-4.390493-4.731763-8.467784-10.396638-16.334902-16.905914-23.429575-.478501-.521533-.960723-1.037959-1.446604-1.54924zm-77.84898-34.4274083c-5.324838 0-10.592253.41001-15.772414 1.212283.0561 1.1340474.104355 2.4684546.157004 4.1605782.106697 3.4291324.117052 3.741951.17838 5.1821157.30407 7.150729 1.142905 19.1284364 2.141898 30.3893074.443225 4.996135.896476 9.620625 1.341728 13.686086 6.10239-14.048237 6.684601-15.410048 8.667657-20.162301l.00472-.011293c3.263283-7.793373 10.442882-20.8569079 18.239177-33.3683375-4.918882-.7203312-9.912739-1.0884388-14.95815-1.0884388z"/></svg>