<?xml version="1.0" encoding="UTF-8"?>
<svg width="412px" height="960px" viewBox="0 0 412 960" version="1.1" xmlns="http://www.w3.org/2000/svg" xmlns:xlink="http://www.w3.org/1999/xlink">
    <title>Slide</title>
    <g id="Slide" stroke="none" stroke-width="1" fill="none" fill-rule="evenodd">
        <path d="M401.175622,120.915273 C401.425831,101.59735 401.699454,80.6463894 401.996497,58.0617376 C401.78877,56.8357889 400.130594,55.7792074 395.424618,55.1553505 C388.76402,54.2723753 359.565151,51.0679223 308,45.5619816 L308,112.851998 L401.175622,120.915273 Z M401.110743,125.928346 L308,117.870686 L308,298.470276 L395.073635,302.98939 C397.536775,303.15534 399.169269,300.186748 399.169269,290.827033 C399.169269,280.977821 399.816111,226.043286 401.110743,125.928346 Z M17.5790796,898.315182 C17.5262328,897.450947 17.5,896.547915 17.5,895.607195 L17.5,848.28641 L17.5021825,848.181971 C17.8102783,840.813427 22.8298875,836.639292 31.6108324,835.983313 C39.228806,835.414214 45.9661569,834.92187 51.8230474,834.50627 C53.269802,834.40361 54.5,835.549608 54.5,837 L54.5,905.934998 C54.5,906.51456 54.3016442,907.052338 53.9658562,907.479506 C65.8783547,910.311179 77.0558975,912.823033 85.5275913,914.538788 C101.855457,917.845639 118.232434,918.38273 134.644177,916.154415 C227.671059,902.524289 279.103197,894.851074 288.811272,893.154837 C293.395159,892.35392 296.22668,891.779244 297.951915,891.163402 L297.951915,287.995084 C293.572877,279.341097 283.696964,264.228849 269.471108,244.378001 C254.142421,222.988256 235.068667,197.764484 212.338226,168.454164 C175.985173,121.577837 123.628186,60.5426606 112.12114,52.0938772 C107.130451,48.4295781 93.9050705,46.9545943 76.3563572,47.678266 C61.9228016,48.2734752 45.6470216,50.3796589 37.4762611,52.4986683 C28.8624235,54.7325856 20.3540474,58.5674252 11.9479242,64.0129237 C10.8653033,535.734194 10.2338201,812.868866 10.0538199,895.261806 C10.9695019,895.942207 12.1563205,896.539342 13.653371,897.131868 C14.1428873,897.325617 15.5125614,897.738821 17.5790796,898.315182 Z M23.480178,903.400827 C23.7169945,903.889641 23.953065,904.387681 24.1231186,904.752812 C24.4737405,905.313763 24.877622,905.732592 25.3312643,906.019477 C25.8456284,906.253765 26.5100976,906.429055 27.2184233,906.447099 L49.5,903.722115 L49.5,839.684632 C44.2988293,840.057324 38.4599022,840.485587 31.9833184,840.969419 C25.5575231,841.449457 22.7097138,843.799983 22.5,848.341239 L22.5,895.607195 C22.5,899.086969 22.8411671,901.642835 23.480178,903.400827 Z M27.5303704,911.446201 L27.2416498,911.481511 C27.1243193,911.49586 27.006119,911.50187 26.8879382,911.499495 C24.6695326,911.454915 22.8624438,910.738221 21.4475961,909.404908 C20.6963198,908.779132 20.1105247,908.040323 19.759972,907.232892 C19.748715,907.206963 19.7312827,907.168131 19.7085911,907.118393 C19.4676585,906.682032 19.2469108,906.214573 19.0461173,905.716685 C18.9182116,905.45159 18.78774,905.18424 18.667806,904.943218 C18.4025101,904.410074 18.1658786,903.954941 17.9732698,903.609797 C14.7430516,902.731095 12.6641198,902.11772 11.8132797,901.780961 C11.192135,901.535114 10.6014104,901.28008 10.0413018,901.013681 C10.0137679,913.719881 10,920.488263 10,921.318004 C10,926.518281 10.7820519,927.497926 14.5587267,928.979978 C19.0108357,930.727085 64.1227369,941.719137 86.0042453,946.112985 C102.060334,949.337079 118.158264,949.860518 134.269183,947.69183 C227.231009,934.187324 278.675952,926.577614 288.347394,924.90218 C292.556797,924.172963 295.489862,923.168769 297.073057,922.057584 C297.923397,921.460763 298.042233,921.22468 297.988218,920.778884 L297.951915,920.479267 L297.951915,896.415266 C296.162235,896.904644 293.718249,897.373216 289.671856,898.08022 C279.892183,899.788967 228.501013,907.45607 135.342976,921.105272 C118.350399,923.412595 101.410539,922.857044 84.5351014,919.439295 C73.491176,917.20259 57.9288614,913.633393 42.1084175,909.762544 C39.3154789,910.032663 37.1299778,910.285678 32.8574664,910.811635 L32.4348084,910.863664 C31.0285941,911.036732 30.187222,911.139233 29.2885554,911.245966 C28.7027405,911.370389 28.1135374,911.435132 27.5303764,911.446201 Z M11.9614881,58.102934 C19.9248849,53.2714116 28.0121903,49.7876777 36.2210818,47.6587794 C44.7701066,45.4416707 61.3872717,43.2913097 76.1503429,42.682512 C94.8753952,41.9103306 108.817492,43.4652475 115.0803,48.0635705 C127.130404,56.9110818 179.579202,118.053287 216.289325,165.390048 C256.627202,217.404703 285.161221,256.027995 297.951915,277.681575 L297.951915,39.1488821 C297.951915,36.8122921 297.856528,35.142264 297.660474,33.9389608 C297.511091,33.0221046 297.33251,32.5154653 297.173915,32.2852302 C297.116242,32.2015051 297.031603,32.1356095 296.711743,31.997903 C296.109591,31.7386632 295.142182,31.4972875 293.641859,31.25593 C286.100176,30.0426965 134.834359,13.0497571 115.61818,11.3348779 C107.768228,10.634337 99.386838,11.0389327 89.4491648,12.4456841 C82.0788997,13.4889998 79.5837111,13.9677471 60.7673027,17.7714064 C56.5527501,18.6233608 53.3709419,19.2506834 50.205489,19.8461776 C28.9767285,23.8397941 20.2329619,25.9014063 12.0287455,28.8009269 C12.0061375,38.6497386 11.9837183,48.4170748 11.9614881,58.102934 Z M307.839606,35.4880257 C360.322986,41.0906013 389.89734,44.3351289 396.73879,45.242079 C405.76689,46.4389068 411.447806,50.4086633 411.985476,57.4474671 L412.002509,57.6704439 L411.999568,57.894051 C410.113258,201.304707 409.169269,279.004838 409.169269,290.827033 C409.169269,297.522409 408.246061,302.683202 406.192559,306.417373 C403.693747,310.961312 399.507469,313.310782 394.478413,312.971362 L307.951915,308.481205 L307.951915,919.916059 C308.335687,924.074056 306.452519,927.69174 302.817904,930.242737 C299.817414,932.348667 295.587397,933.7969 290.054322,934.755423 C280.240806,936.455469 228.877167,944.053153 135.655101,957.595189 C118.392121,959.91925 101.177984,959.359516 84.0355249,955.917277 C61.5565153,951.40345 16.1013633,940.327761 10.9057089,938.288869 C3.54321163,935.39966 -5.68434189e-14,930.961222 -5.68434189e-14,921.318004 C-5.68434189e-14,915.487534 0.676311264,617.953481 2.02956783,28.4312276 C1.69782049,24.6727426 3.32833996,21.4228111 6.86648003,20.0355676 L6.96030793,19.9998619 C16.3251807,16.543333 25.2337266,14.3685259 48.3566901,10.0185664 C51.4700323,9.43287535 54.6117182,8.81346327 58.7859212,7.96966537 C77.8566137,4.11460363 80.3929184,3.62796737 88.047564,2.5443955 C98.6874151,1.03824565 107.806703,0.598029296 116.507062,1.37446174 C135.938456,3.10854709 287.405034,20.1240396 295.230143,21.3828679 C303.926164,22.7818003 307.220065,26.3285929 307.839606,35.4880257 Z" id="Combined-Shape" fill="#000000" fill-rule="nonzero"></path>
        <path d="M48,842 L47.9995218,901.448955 L27.2611489,904 C26.8804993,903.971836 26.5353367,903.878444 26.2376206,903.681754 C25.8391915,903.418526 25.5386945,903.003103 25.2766319,902.494291 C24.3549552,900.704795 24,898.015909 24,894.497446 L24,849.333836 C24.0844725,847.581155 24.6268132,846.166301 25.7995808,845.18538 C27.2594567,843.964317 29.4444992,843.374141 32.2391875,843.164147 C38.0287378,842.729118 43.2823419,842.341068 48,842 Z" id="Path-4" fill="#000000"></path>
        <ellipse id="Oval" fill="#000000" transform="translate(391.948305, 139.311451) rotate(8.000000) translate(-391.948305, -139.311451) " cx="391.948305" cy="139.311451" rx="6.5" ry="9.5"></ellipse>
    </g>
</svg>
