<?xml version="1.0" encoding="utf-8"?>
<!-- Generator: Adobe Illustrator 21.0.0, SVG Export Plug-In . SVG Version: 6.00 Build 0)  -->
<svg version="1.1" id="Layer_1" xmlns="http://www.w3.org/2000/svg" xmlns:xlink="http://www.w3.org/1999/xlink" x="0px" y="0px"
	 viewBox="0 0 1124.6 538.7" style="enable-background:new 0 0 1124.6 538.7;" xml:space="preserve">
<g>
	<path d="M326.2,239.3h-36.1c-0.2,0-0.4,0-0.5,0c-3.2,0-5.7,2.6-5.7,5.7v106.6l-120-115.3h-7.3c-3.1,0-5.6,2.4-5.7,5.4v202.1
		c0.1,3.2,2.8,5.8,6,5.7h36c3.2,0,5.7-2.6,5.7-5.7v-112l118.7,119.3c1.2,0.8,2.5,1.3,3.9,1.5h5.1c3.1,0,5.6-2.4,5.7-5.4V245.1
		C331.8,242,329.3,239.5,326.2,239.3z"/>
	<path d="M583.7,239.3h-36.7c-3.2,0-5.7,2.6-5.7,5.7v121.6c0,20.6-16.7,37.2-37.2,37.2s-37.2-16.7-37.2-37.2V245.1
		c0-3.2-2.6-5.7-5.7-5.7h-36.7c-3.1,0.1-5.6,2.6-5.7,5.7h-0.5v124.1c1.3,45.3,37.8,81.8,83.1,83.1c47.3,1.4,86.7-35.8,88.1-83.1
		V245.1C589.3,242,586.8,239.5,583.7,239.3z"/>
	<path d="M772.9,338.5l70.3-88c0.6-0.9,0.9-2,1.1-3c0.4-4-2.5-7.6-6.5-8.1h-37.8c-2.2,0.3-4.3,1.3-5.7,3l-66.7,83.2v-79
		c0-4-3.3-7.3-7.3-7.3H685c-4,0-7.3,3.3-7.3,7.3h-0.1v195.8c0,4,3.3,7.3,7.3,7.3h35c4,0,7.3-3.3,7.3-7.3v-89.5l69.4,94.1
		c1.5,1.3,3.4,2.1,5.4,2.1h41.4c1.2-0.1,2.3-0.4,3.3-1.1c3.5-2.1,4.5-6.6,2.4-10.1L772.9,338.5z"/>
	<path d="M961,239.3H925c-3.1,0.1-5.6,2.6-5.7,5.7v198.8c0.1,3.1,2.6,5.6,5.7,5.7H961c3.1-0.1,5.6-2.6,5.7-5.7V245.1
		C966.6,242,964.1,239.5,961,239.3z"/>
	<path d="M942.7,148.2C942.7,148.2,942.7,148.2,942.7,148.2c17.2,0,31.1-13.9,31.1-31.1S959.9,86,942.7,86c-0.3,0-0.6,0-0.9,0
		c-16.8,0.4-30.1,14.5-29.7,31.3c0,0.2,0,0.5,0,0.7C912.2,134.8,925.9,148.3,942.7,148.2z"/>
</g>
</svg>
