<?xml version="1.0" encoding="utf-8"?>
<!-- Generator: Adobe Illustrator 21.0.0, SVG Export Plug-In . SVG Version: 6.00 Build 0)  -->
<svg version="1.1" id="Layer_1" xmlns="http://www.w3.org/2000/svg" xmlns:xlink="http://www.w3.org/1999/xlink" x="0px" y="0px"
	 viewBox="0 0 655.2 1417.3" style="enable-background:new 0 0 655.2 1417.3;" xml:space="preserve">
<g>
	<g>
		<path d="M261,1104h-10.4c-0.1,0-0.1,0-0.2,0c-0.9,0-1.6,0.7-1.6,1.7v30.8l-34.6-33.3H212c-0.9,0-1.6,0.7-1.7,1.6v58.4
			c0,0.9,0.8,1.7,1.7,1.7h10.4c0.9,0,1.7-0.7,1.7-1.7v-32.3l34.3,34.4c0.3,0.2,0.7,0.4,1.1,0.4h1.5c0.9,0,1.6-0.7,1.7-1.6v-58.4
			C262.6,1104.7,261.9,1104,261,1104z"/>
	</g>
	<g>
		<path d="M335.3,1104h-10.6c-0.9,0-1.7,0.7-1.7,1.7v35.1c0,5.9-4.8,10.8-10.8,10.8s-10.8-4.8-10.8-10.8v-35.1
			c0-0.9-0.7-1.7-1.7-1.7h-10.6c-0.9,0-1.6,0.8-1.7,1.7h-0.1v35.8c0.4,13.1,10.9,23.6,24,24c13.6,0.4,25-10.3,25.4-24v-35.8
			C336.9,1104.7,336.2,1104,335.3,1104z"/>
	</g>
	<g>
		<path d="M389.9,1132.6l20.3-25.4c0.2-0.3,0.3-0.6,0.3-0.9c0.1-1.2-0.7-2.2-1.9-2.3h-10.9c-0.6,0.1-1.2,0.4-1.7,0.9l-19.3,24v-22.8
			c0-1.2-0.9-2.1-2.1-2.1h-10.1c-1.2,0-2.1,0.9-2.1,2.1h0v56.5c0,1.2,0.9,2.1,2.1,2.1h10.1c1.2,0,2.1-0.9,2.1-2.1v-25.8l20,27.2
			c0.4,0.4,1,0.6,1.6,0.6h12c0.3,0,0.7-0.1,1-0.3c1-0.6,1.3-1.9,0.7-2.9L389.9,1132.6z"/>
	</g>
	<g>
		<path d="M444.2,1104h-10.4c-0.9,0-1.6,0.8-1.7,1.7v57.4c0,0.9,0.8,1.6,1.7,1.7h10.4c0.9,0,1.6-0.8,1.7-1.7v-57.4
			C445.8,1104.7,445.1,1104,444.2,1104z"/>
	</g>
	<g>
		<path d="M438.9,1077.7C438.9,1077.7,438.9,1077.7,438.9,1077.7c5,0,9-4,9-9c0-5-4-9-9-9c-0.1,0-0.2,0-0.3,0
			c-4.9,0.1-8.7,4.2-8.6,9c0,0.1,0,0.1,0,0.2C430.1,1073.8,434.1,1077.7,438.9,1077.7z"/>
	</g>
</g>
<g>
	<path d="M535.3,1417.3H119.9C53.8,1417.3,0,1363.5,0,1297.4V119.9C0,53.8,53.8,0,119.9,0h415.3c66.1,0,119.9,53.8,119.9,119.9
		v1177.5C655.2,1363.5,601.4,1417.3,535.3,1417.3z M119.9,16.1c-57.3,0-103.9,46.6-103.9,103.9v1177.5
		c0,57.3,46.6,103.9,103.9,103.9h415.3c57.3,0,103.9-46.6,103.9-103.9V119.9c0-57.3-46.6-103.9-103.9-103.9H119.9z"/>
</g>
<g>
	<path d="M535.3,1386.6H119.9c-49.2,0-89.2-40-89.2-89.2V119.9c0-49.2,40-89.2,89.2-89.2h415.3c49.2,0,89.2,40,89.2,89.2v1177.5
		C624.4,1346.6,584.4,1386.6,535.3,1386.6z M119.9,38.8c-44.7,0-81.1,36.4-81.1,81.1v1177.5c0,44.7,36.4,81.1,81.1,81.1h415.3
		c44.7,0,81.1-36.4,81.1-81.1V119.9c0-44.7-36.4-81.1-81.1-81.1H119.9z"/>
</g>
<g>
	<path d="M327.6,1368.5c-31.9,0-57.8-25.9-57.8-57.8c0-31.9,25.9-57.8,57.8-57.8c31.9,0,57.8,25.9,57.8,57.8
		C385.4,1342.6,359.5,1368.5,327.6,1368.5z M327.6,1260.9c-27.5,0-49.8,22.3-49.8,49.8c0,27.4,22.3,49.8,49.8,49.8
		c27.5,0,49.8-22.3,49.8-49.8C377.4,1283.3,355,1260.9,327.6,1260.9z"/>
</g>
<g>
	<path d="M327.6,1357.1c-25.6,0-46.4-20.8-46.4-46.4c0-25.6,20.8-46.4,46.4-46.4c25.6,0,46.4,20.8,46.4,46.4
		C374,1336.3,353.2,1357.1,327.6,1357.1z M327.6,1269.7c-22.6,0-41,18.4-41,41c0,22.6,18.4,41,41,41c22.6,0,41-18.4,41-41
		C368.6,1288.1,350.2,1269.7,327.6,1269.7z"/>
</g>
<g>
	<path d="M327.6,525.1c-93.7,0-169.9-76.2-169.9-169.9s76.2-169.9,169.9-169.9s169.9,76.2,169.9,169.9S421.3,525.1,327.6,525.1z
		 M327.6,193.4c-89.2,0-161.9,72.6-161.9,161.9s72.6,161.9,161.9,161.9s161.9-72.6,161.9-161.9S416.8,193.4,327.6,193.4z"/>
</g>
<g>
	<circle cx="327.6" cy="109.1" r="16.8"/>
</g>
</svg>
