<svg height="960" viewBox="0 0 960 960" width="960" xmlns="http://www.w3.org/2000/svg"><g fill="#000"><path d="m87.1383364 18.0021648 818.6019466 15.1572131c21.799092.4035067 39.259717 18.1903233 39.259717 39.9931492v809.6815999c0 21.707626-17.313875 39.453273-39.014918 39.987868l-818.6019465 20.165873c-.1442034.003553-.2882439.006338-.4274853-.01139-.7839536.049856-1.5798144.02801-2.3871-.063598-.7708014.012358-1.5247513-.043046-2.2620021-.154678-.5905155-.020527-1.1875618-.096863-1.7888671-.232583-1.026438-.104637-2.0267491-.292164-2.9956578-.563169-.2649628-.019854-.5323289-.08368-.7997852-.150357l-31.3980533-7.827502c-17.8191627-4.442299-30.3241847-20.447547-30.3241847-38.812094v-831.5814912c0-19.3862533 13.901546-35.9819054 32.987567-39.3805255l30.87486-5.4978407c.0810251-.0206284.1639588-.0361709.2492612-.0443856l.273932-.0487794c.2586474-.046057.5170708-.0895293.7711182-.0929511 1.082895-.2137699 2.1936362-.3412501 3.3225907-.4005083.7105597-.0776444 1.415353-.1117591 2.106439-.0686009.5070946-.0552495 1.0287316-.0552495 1.5525683-.0552495zm-.1393364 40.008v844.9740002l816.641-20.118 1.36-.032038v-809.6815999l-1.36-.0253623zm-20 3.443-11.999 2.137841v831.5814912l11.999 2.990668zm620.034042 726.5468352c.854854-.005641 1.706932.098123 2.535391.308989l26.898206 6.846361c4.431514 1.127947 7.533361 5.118202 7.533361 9.691011v59.356403c0 5.422054-4.321005 9.856352-9.741243 9.996651l-417.1338 10.797237c-1.439363.037257-2.869797-.236753-4.193497-.803295l-29.221166-12.506605c-3.590206-1.536602-5.957441-5.022569-6.061696-8.926394l-1.648673-61.598178c-.145872-5.59843 4.331029-10.228223 9.931323-10.266727zm-1.15007 20.008616-409.614227 2.816236 1.201668 44.996368 21.32155 9.125583 405.208037-10.488546v-41.83834zm77.220476-156.008616c26.179247 0 46.896552 23.302128 46.896552 51.5s-20.717305 51.5-46.896552 51.5l-.274837-.001017c-.091772.000575-.183614.000862-.275523.000862l-28.455853-.158238c-.919935-.005116-1.810418-.134366-2.651565-.381607-23.677287-2.857412-41.44567-24.9421-41.44567-51.039119 0-28.147707 20.621576-51.420881 46.701649-51.420881 1.217844 0 2.431151.051458 3.637474.157068l19.057912-.000085c1.221947-.10399 2.457969-.156983 3.706413-.156983zm-.495281 20.158239-2.188977-.000638c-13.372608 1.576421-24.212293 14.795087-24.212293 31.342399 0 17.54124 12.180984 31.34195 26.647621 31.498652l-.245822.001348c14.459449 0 26.701649-13.816346 26.701649-31.420881 0-17.410517-11.989878-31.152285-26.272535-31.416608zm-39.331937 4.127634-.160256.111489c-7.783272 5.435668-13.115974 15.404526-13.115974 27.023519 0 11.584759 5.328835 21.595967 13.135557 27.043262-4.402737-7.86905-6.92866-17.118144-6.92866-26.964143 0-9.95066 2.579908-19.291657 7.069333-27.214127zm11.292578-314.271972 71.814675 2.756565c5.369687.20607 9.616517 4.619005 9.616517 9.992645v223.332574c0 5.419863-4.317636 9.853205-9.735604 9.996504l-71.5138 1.891937c-1.350616.10447-2.747661-.067927-4.115368-.563291-.477184-.171287-.938002-.377239-1.379032-.615406l-29.852454-15.45023c-3.319413-1.717899-5.403742-5.143524-5.403742-8.881127v-208.983966c0-5.075794 3.802635-9.346462 8.844425-9.933008l29.854243-3.473865c.290923-.037773.585665-.062984.88365-.075078.074816-.003263.148856-.00564.222742-.007201.011315.000413.023656.000206.036002.000022.245049-.004995.487415-.000345.727746.012925zm-231.27463 81.990427 134 3.943688c5.405953.1591 9.705822 4.587378 9.705822 9.995672v128.632641c0 5.481404-4.412668 9.941203-9.893762 9.999436l-134 1.424247c-2.877728.030276-5.482104-1.157271-7.326107-3.080847-.41933.053236-.846508.080835-1.280131.080835-5.522847 0-10-4.477153-10-10v-128c0-5.522847 4.477153-10 10-10 .433623 0 .860801.027599 1.279871.081138 1.885075-1.966925 4.565972-3.163581 7.514307-3.07681zm240.705822-61.613201v2.940038l39.33734 1.328432c5.38847.181878 9.66266 4.602769 9.66266 9.994308v180.206236c0 5.432236-4.336672 9.870963-9.767439 9.997296l-39.232561.912728v1.96185l52-1.375339v-203.96997zm-20 .839686-10 1.163368v193.995368l10 5.175309zm-211 81.067822v113.594556l114-1.211182v-109.028296zm231-58.955408v162.421443l29-.67461v-160.767992zm-501.5 12.656773c35.36255 0 63.5 31.818985 63.5 70.5s-28.13745 70.5-63.5 70.5l-.386814-.001429c-.128731.000848-.257559.001273-.386485.001273l-41.260988-.230686c-1.040723-.005818-2.043691-.170492-2.985228-.472463-32.161802-3.714945-56.480485-33.977128-56.480485-69.912038 0-38.610899 28.00242-70.384657 63.217391-70.384657 1.702639 0 3.398322.075065 5.083566.228575l28.016325.001135c1.70828-.152139 3.436692-.22971 5.182718-.22971zm-.718043 20.230685-3.437567-.000671c-21.839969 2.427787-39.34439 23.785006-39.34439 50.269986 0 28.002932 19.568405 50.273476 43.139822 50.498283l-.357213.001717c23.567335 0 43.217391-22.296506 43.217391-50.384657 0-27.777245-19.239995-49.946416-42.515692-50.37783zm-44.152893.358078-.348622.063627c-20.363897 3.864828-36.280442 24.452931-36.280442 49.732267 0 25.211118 15.90251 45.947508 36.388708 49.757235-11.395781-12.780371-18.388708-30.35843-18.388708-49.641892 0-19.419189 7.091714-37.108884 18.629064-49.911237zm265.739395-363.5872029 270.808175 4.7841444c5.453139.0963361 9.823366 4.5444505 9.823366 9.9984399v56.5014366c0 4.525638-3.039422 8.487152-7.41072 9.658967l-25.047255 6.714418c-.872437.233875-1.772539.34847-2.675746.341034l-273.952746-2.369248c-5.488905-.047462-9.913533-4.510516-9.913533-9.999626v-63.0387247c0-5.1680517 3.937966-9.4847512 9.084306-9.9579869l28.191825-2.5924013c.363099-.0333891.727754-.0468936 1.092328-.040453zm-246.302702-2.9980467 184.199301 4.8840601c5.417701.1436508 9.734942 4.5768808 9.734942 9.9964866v56.4121339c0 4.51406-3.02419 8.46846-7.380644 9.650853l-24.699756 6.703807c-.896491.243318-1.822513.360537-2.751357.349146l-187.300245-2.473478c-5.470889-.072223-9.867998-4.527763-9.867998-9.999129v-62.9390891c0-5.1636944 3.931528-9.478259 9.072988-9.9569397l27.8007-2.5883039c.396215-.0368885.79428-.0500943 1.192069-.0395469zm246.496704 23.0045949-18.562461 1.7069257v44.002188l262.678155 2.271383 16.321845-4.375398v-39.0041639zm-246.429602-2.9957863-18.132859 1.6882074v43.9580046l176.032184 2.323854 15.967816-4.333854v-39.02611z"/><g fill-rule="evenodd"><path d="m315 826.412615 25-.412615v31.413964l-25 .586036z"/><path d="m359 825.416566 25-.416566v31.408352l-25 .591648z"/><path d="m403 825.407449 25-.407449v30.4213l-25 .5787z"/><path d="m447 824.411427 25-.411427v30.415651l-25 .584349z"/><path d="m491 823.415483 25-.415483v30.409891l-25 .590109z"/><path d="m535 822.406083 25-.406083v29.423241l-25 .576759z"/><path d="m579 822.410167 25-.410167v29.417441l-25 .582559z"/><path d="m623 821.414333 25-.414333v29.411523l-25 .588477z"/><path d="m667 820.404633 25-.404633v28.425301l-25 .574699z"/><path d="m224 97.4105944 25.112566-.4105944v31.260107l-25.112566.583166z" transform="matrix(1 0 0 -1 0 225.8432)"/><path d="m267.94699 98.4316571 25.112566-.4105923v30.9579542l-25.112566.583163z" transform="matrix(1 0 0 -1 0 227.5832)"/><path d="m311.940444 99.4527198 25.112566-.4105903v30.6558015l-25.112566.58316z" transform="matrix(1 0 0 -1 0 229.3232)"/><path d="m355.887434 100.473782 25.112566-.410588v30.353649l-25.112566.583157z" transform="matrix(1 0 0 -1 0 231.0632)"/><path d="m470 101.408012 25.112566-.408012v31.063491l-25.112566.579498z" transform="matrix(1 0 0 -1 0 233.643)"/><path d="m513.94699 102.42905 25.112566-.407985v30.761373l-25.112566.57946z" transform="matrix(1 0 0 -1 0 235.383)"/><path d="m557.893981 103.450087 25.112566-.407957v30.459255l-25.112566.579422z" transform="matrix(1 0 0 -1 0 237.123)"/><path d="m601.667264 104.471124 25.112566-.40793v30.15714l-25.112566.579382z" transform="matrix(1 0 0 -1 0 238.863)"/><path d="m642.940444 104.650371 25.112566-.407957v30.459255l-25.112566.579422z" transform="matrix(1 0 0 -1 0 239.5236)"/><path d="m686.887434 105.671408 25.112566-.40793v30.15714l-25.112566.579382z" transform="matrix(1 0 0 -1 0 241.2634)"/></g></g></svg>