<svg height="960" viewBox="0 0 960 960" width="960" xmlns="http://www.w3.org/2000/svg"><path d="m374.444374.76860157.079782.00595067.56152-.00390608 1.279122.01029862 273 4.09485523c49.720137.74577569 89.635202 41.26403549 89.635202 90.98976499v769.265198c0 49.834458-40.083455 90.398997-89.914367 90.993524l-270.236477 3.223265-.191612.036838c-3.566149.638292-7.284232.798583-11.080374.415276l-.712673-.078257-67.565746-8.016278c-1.175996-.139525-2.329838-.326443-3.460388-.55833l-.367207-.079249-.830795-.144826c-42.41194-7.707673-73.98379-44.478813-74.630249-88.159877l-.010112-1.367258v-765.6345859c0-.4492659 0-.8985255.009981-1.3477421.67676-45.6900654 35.044974-83.432651 79.723852-88.95927363l.404323-.04643713.016287-.00337675c1.21523-.20983591 2.4499-.36525758 3.701501-.46361344l.6272-.04441016 65.165885-4.1084693c1.617904-.10200289 3.218185-.10663359 4.795345-.01908102zm324.241626 767.55317943-352.45432 1.602703c-2.588164.011763-5.174617.135164-7.752145.369861l-13.511778 1.230312c-.304751.027749-.607551.041519-.907767.041837l.00097 97.532969c0 25.348472 18.493077 46.377654 42.723526 50.331842l4.380448.521564c.137328.010374.274808.020204.412437.029488l.000181-.70748c1.13113.074948 2.272343.113018 3.422448.113018.202816 0 .40563-.00121.608432-.003629l273-3.257133c20.477367-.244313 38.017673-12.532219 45.918574-30.080935 2.676664-6.197481 4.159133-13.029351 4.159133-20.204059zm-375.66771-724.5159157-16.01829 1.011026-.00076.0978722c-25.970527 2.0129234-46.600228 23.530106-46.993646 50.0909136l-.004895.3776536-.000699 766.0122603c0 25.808701 19.170696 47.139845 44.048913 50.530257l-.037451.057874 15.946134 1.89231c-9.938798-12.216078-15.896636-27.80056-15.896636-44.776569v-776.9961256c0-.3554714 0-.7109377.008008-1.066369.274402-18.2678916 7.424504-34.82058 18.949322-47.2311031zm1.048423 47.5314887c-.005753.2553098-.005753.5106448-.005753.7659834l-.00096 659.4204436 12.605941-1.147038c3.150312-.286852 6.311532-.437676 9.474844-.452052l352.499907-1.602148.045308-.000762.000139-652.1233472c0-27.867839-22.369321-50.5756924-50.234016-50.9942474l-272.62518-4.1009685c-28.163345-.4171688-51.337189 22.070791-51.76023 50.2341361zm242.723497 525.166651c3.313689-.011453 6.009279 2.665507 6.020769 5.979196l.254464 73.374785c.011453 3.313689-2.665508 6.009279-5.979196 6.020806-3.313689.011453-6.009279-2.665507-6.020769-5.979196l-.254464-73.374785c-.011453-3.313689 2.665508-6.009279 5.979196-6.020806zm-30.616877-.032839c3.313689-.011453 6.009279 2.665508 6.020769 5.979196l.254463 73.374786c.011454 3.313688-2.665507 6.009278-5.979196 6.020805-3.313688.011454-6.009278-2.665507-6.020768-5.979196l-.254464-73.374785c-.011453-3.313689 2.665507-6.009279 5.979196-6.020806zm-15.393248-.132157c3.313689-.011454 6.009279 2.665507 6.020769 5.979196l.254464 73.374785c.011453 3.313689-2.665508 6.009279-5.979196 6.020806-3.313689.011453-6.009279-2.665508-6.020769-5.979196l-.254463-73.374786c-.011454-3.313688 2.665507-6.009278 5.979195-6.020805zm-30.616877-.032839c3.313689-.011453 6.009279 2.665507 6.020769 5.979196l.254463 73.374785c.011454 3.313689-2.665507 6.009279-5.979195 6.020806-3.313689.011453-6.009279-2.665507-6.020769-5.979196l-.254464-73.374785c-.011453-3.313689 2.665508-6.009279 5.979196-6.020806zm-15.10795 12.349009c3.313704.005568 5.995485 2.696363 5.989934 6.010067l-.084809 50.551112c-.005568 3.313703-2.696362 5.995484-6.010066 5.989934-3.313704-.005568-5.995485-2.696363-5.989934-6.010067l.084818-50.551112c.005559-3.313703 2.696353-5.995484 6.010057-5.989934zm30.616878-.246261c3.313703.005568 5.995484 2.696363 5.989934 6.010066l-.08481 50.551112c-.005567 3.313704-2.696362 5.995485-6.010066 5.989934-3.313703-.005568-5.995484-2.696362-5.989934-6.010066l.084818-50.551112c.005559-3.313704 2.696354-5.995485 6.010058-5.989934zm46.010124-.346687c3.313704.005568 5.995485 2.696363 5.989935 6.010067l-.08481 50.551112c-.005567 3.313703-2.696362 5.995484-6.010066 5.989934-3.313703-.005568-5.995484-2.696363-5.989934-6.010067l.084818-50.551112c.005559-3.313704 2.696354-5.995484 6.010057-5.989934zm30.616878-.060194c3.313704.005568 5.995485 2.696362 5.989934 6.010066l-.084809 50.551112c-.005568 3.313704-2.696362 5.995485-6.010066 5.989934-3.313704-.005568-5.995485-2.696363-5.989934-6.010066l.084817-50.551112c.00556-3.313704 2.696354-5.995485 6.010058-5.989934zm-122.477681 14.460411c3.313708 0 6 2.686291 6 6v23.22775c0 3.313709-2.686292 6-6 6-3.313709 0-6-2.686291-6-6v-23.22775c0-3.313709 2.686291-6 6-6zm137.606436-.897773c3.313708 0 6 2.686292 6 6v23.227751c0 3.313708-2.686292 6-6 6-3.313709 0-6-2.686292-6-6v-23.227751c0-3.313708 2.686291-6 6-6zm-215.991956-594.7091106 267.358308 4.0148089c12.781518.1919909 24.726193 5.4005748 33.522468 14.3299714 8.796276 8.9293966 13.824872 20.9509534 13.824872 33.7339135v167.8836118c0 12.809646-5.049068 24.852712-13.876734 33.786481-8.824221 8.930282-20.800381 14.122438-33.603749 14.279982h-267.178863c-13.300277.003277-25.465648-5.07116-34.470818-14.07633-8.950077-8.950076-14.079174-21.076624-14.079174-33.990133v-172.3177765l.005141-.2845048c.194207-12.9244304 5.503143-24.9734673 14.588374-33.7897999 8.739405-8.4807414 20.382516-13.3930119 32.776275-13.5702244zm-.16769 20h-.764l-.410919.0102731c-6.891815.2175573-13.336018 2.933255-18.28825 7.5778658l-.35118.3350306c-5.315614 5.1582865-8.405058 12.1700157-8.521651 19.7312153v172.3079208c0 7.390426 2.856416 14.304414 7.882997 19.503918l.338313.34408c5.266391 5.266391 12.348355 8.218465 20.326217 8.218465h266.984473l.439658-.00938c7.141872-.209259 13.782639-3.084867 18.795343-7.990399l.339239-.337606c5.1646-5.226675 8.103098-12.235598 8.103098-19.729078v-167.8836118c0-7.4777641-2.926657-14.4743447-8.072814-19.698382-5.146156-5.2240374-12.097991-8.2554482-19.574826-8.3677575zm150.825812 95.5701786c31.526511 0 56.39604 29.108653 56.39604 64.304455s-24.869529 64.304455-56.39604 64.304455c-31.52651 0-56.396039-29.108653-56.396039-64.304455s24.869529-64.304455 56.396039-64.304455zm-141.061982 21.027361c6.489172.056906 12.569742 2.71486 17.038185 7.268917 4.463153 4.548663 7.021688 10.684817 7.021688 17.188709v38.693392c0 6.503891-2.558535 12.640045-7.021688 17.188709-4.468443 4.554056-10.549013 7.212011-17.038185 7.268917-6.506399.055305-12.626428-2.533121-17.120686-7.0736-4.484278-4.530395-7.040104-10.686122-7.040104-17.223297v-39.014851c0-6.537174 2.555826-12.692901 7.040104-17.223297 4.494258-4.540478 10.614287-7.128904 17.120686-7.073599zm141.061982-1.027361c-19.721139 0-36.396039 19.517212-36.396039 44.304455s16.6749 44.304455 36.396039 44.304455c19.72114 0 36.39604-19.517212 36.39604-44.304455s-16.6749-44.304455-36.39604-44.304455zm118.995878 3.270482c6.003584.06032 11.547209 2.706351 15.559261 7.111603 3.970956 4.360129 6.196651 10.159798 6.196651 16.255564v36.388067c0 6.095767-2.225695 11.895435-6.196651 16.255564-4.012052 4.405253-9.555677 7.051284-15.562472 7.111635-6.027873.058627-11.619292-2.519794-15.659133-6.914506-3.993433-4.344227-6.215407-10.162324-6.215407-16.291963v-36.709527c0-6.129639 2.221974-11.947736 6.215407-16.291963 3.943654-4.290076 9.365882-6.849321 15.229328-6.914219zm-117.941422 11.033973c15.304714 0 27 13.75916 27 30s-11.695286 30-27 30-27-13.75916-27-30 11.695286-30 27-30zm-142.289127 6.72216-.235864.005272c-.947628.050036-1.813288.447089-2.497834 1.138675-.794745.802919-1.254403 1.910008-1.254403 3.153695v39.014851c0 1.243688.459658 2.350776 1.254403 3.153695.741592.749219 1.69574 1.15277 2.733698 1.144226 1.101709-.00994 2.134795-.461525 2.93519-1.277255.829227-.845114 1.297372-1.967871 1.297372-3.181395v-38.693392c0-1.213525-.468145-2.336281-1.297372-3.181396-.800395-.815729-1.833481-1.267315-2.93519-1.276976zm260.029615 2.242858-.061037.003742c-.176664.021843-.396693.142774-.676255.446893-.566776.616563-.939525 1.592584-.939525 2.756811v36.709527c0 1.164227.372749 2.140248.939525 2.756812.314507.342134.553668.45242.737292.450677.259956-.002654.592991-.161616.973557-.579479.602499-.661547.983289-1.653801.983289-2.78874v-36.388067c0-1.134938-.38079-2.127193-.983289-2.78874-.380566-.417863-.713601-.576824-.973557-.579436zm-117.740488 11.034982c-3.472968 0-7 4.14945-7 10s3.527032 10 7 10 7-4.14945 7-10-3.527032-10-7-10z"/></svg>