<svg height="960" viewBox="0 0 960 960" width="960" xmlns="http://www.w3.org/2000/svg"><path d="m542.239806 6.75072144c3.314022-.08386925 6.53663.23564583 9.62358.91203317l.641614.1471637 1.096892.05378073c6.176893.32168705 12.356239.78876989 18.535071 1.40170323l2.317033.23668763c237.646305 24.9776332 406.139698 257.4890931 378.804567 517.5654871-27.028451 257.158537-235.924383 448.607821-470.982255 428.184126l1.599153.124888-6.637827-.113341c-39.233305-.715273-64.985641-1.958716-79.156299-3.985479l-.425871-.061657-.891887-.134228-1.198519-.19043c-8.649972-1.395836-20.042493-3.586705-31.570879-5.976821l-2.297961-.47867c-12.492283-2.614301-24.94087-5.415884-34.03469-7.64797l-1.941024-.480527c-204.23119-51.019862-341.6058895-265.883583-320.59883844-498.254201l.73115946-7.487857.36706404-3.396064c11.95063974-107.180663 56.62861444-203.193626 126.74895494-277.218791 68.634342-72.4564153 158.629895-120.4357911 255.956632-136.241566l.572423-.0921022c17.670416-2.8170374 47.230525-5.14742878 78.440354-5.55340776l2.060073-.02396392c1.718539-.0176206 3.441378-.02933608 5.16682-.03490795l1.769166-.00762961c10.765984-.05744571 26.827547-.33329142 48.111711-.82789362zm-100.194851 42.12976736-.089719.0109707c-21.036497 1.0578861-37.177789 2.8407813-45.521487 4.1269212l-1.096311.1733481c-13.270005 2.155037-26.388252 4.9671481-39.312374 8.4120391-81.866575 38.0323027-147.8708 88.7444251-198.010532 152.1439431-42.034275 53.150518-66.8715165 97.384102-74.5117249 132.700751-2.486622 11.506249-12.6639785 19.718185-24.4358541 19.717669l-1.0421283-.004511c-5.7166748 21.972916-9.8931316 44.815588-12.3761754 68.440171l-.6894434 7.052917c-3.9730696 43.948322-1.8197957 87.121019 5.6995049 128.382517l10.6594044-.003621c11.5344824.001197 21.5709038 7.893612 24.2915312 19.102647 16.3501736 67.360939 35.5979606 118.777443 57.7433606 154.24951 17.287591 27.690926 48.473146 65.09838 93.556664 112.222362 30.317794 18.842442 63.358737 33.111794 98.505474 41.89195 6.670873 1.666479 21.329311 5.041158 36.624245 8.230065l1.531343.318202c9.708492 2.010464 19.574004 3.92109 27.72909 5.250739l1.298834.209127c3.558276.565439 8.490774 1.077211 14.797494 1.535319l-.004928.013537c-187.728423-52.900214-314.476829-251.802383-291.236265-472.921577 20.505677-195.098492 151.629175-349.0022343 315.889997-391.2549962zm127.182617 10.3476959c-208.922013-21.9585885-398.615861 149.2649963-423.182176 382.9978703s125.382882 440.654381 334.304896 462.612969c208.922014 21.958589 398.615862-149.264996 423.182177-382.99787s-125.382883-440.6543808-334.304897-462.6129693zm-26.810683 25.804227c1.989745-.006169 3.982435.0068072 5.977916.0390718 9.409104.1507322 18.880781.7273508 28.398396 1.744544 179.079112 19.1390445 310.339903 187.4124365 309.418713 385.2338345.033819 15.622709-.748251 31.433815-2.38307 47.373665-22.360117 218.016163-195.884064 378.527084-388.195262 357.813291-179.10299-19.29114-310.348933-188.872101-309.410259-388.205117-.037151-15.537071.745058-31.261323 2.383635-47.113971 21.023256-203.392455 175.6206-356.3333672 353.80594-356.88516zm32.242713 21.6829653c-180.66164-19.4590217-344.873073 132.437757-366.157822 339.968836-1.460256 14.237817-2.209357 28.363041-2.279673 42.330409.392321 186.803203 124.134833 344.457877 291.545074 362.349812 180.687239 19.310913 344.887141-131.397787 366.166842-337.27126 1.461062-14.135258 2.209917-28.158723 2.278994-42.025373-.35121-188.354649-124.12717-347.318984-291.553415-365.352424zm-84.449613 362.802148c5.348151-55.218003 47.412327-96.420159 94.842013-91.010527 47.276283 5.392135 80.364124 54.940251 75.027166 110.042686-5.348151 55.218003-47.412326 96.420159-94.842013 91.010527-47.276283-5.392135-80.364124-54.940251-75.027166-110.042686zm92.575591-71.139359c-35.392223-4.036688-68.325169 28.221364-72.668745 73.067441-4.35477 44.961645 21.841115 84.18925 57.386742 88.243436 35.392223 4.036688 68.325169-28.221364 72.668745-73.067441 4.35477-44.961645-21.841115-84.18925-57.386742-88.243436zm-209.78558 142.621834v14h-14v-14zm-27 4.483339c.018068 4.112008-2.296099 6.538454-6.2111 6.513936-4.16338.101134-5.917179-2.624882-5.78163-6.219729.147664-3.90591 2.879078-6.52926 6.601736-6.769836 2.861661-.185412 5.375743 3.001835 5.390994 6.475629zm47.183691-11.433073c2.120113.006315 4.721802 2.924865 4.813566 5.39975.113053 3.07328-3.288817 6.560224-6.389702 6.549984-3.277805-.011864-4.663806-1.483375-4.605812-5.042948.055059-3.38116 2.275744-7.457024 6.181948-6.906786zm-61.189825-3.836652c.125827 4.788194-1.679793 7.204376-5.825012 6.727029-4.501468.051144-6.106551-1.360749-6.167891-5.425948-.058982-3.927264 2.599904-7.267919 5.974432-7.505042 2.943569-.206902 5.932751 2.946223 6.018471 6.203961zm20.752698-8.213614c3.888767.005192 6.251917 2.405576 6.253436 6.351869.002274 4.994932-2.481499 7.78661-7.09097 7.642839-3.287928-.10227-5.982602-2.1662-5.907497-6.388177.078898-4.373901 2.882816-7.610973 6.745031-7.606531zm28.128191-2.998947c2.707306.045121 5.114391 3.514186 5.051307 7.27912.715209 4.034915-3.891467 6.856027-8.060354 6.71475-2.491451-.083583-4.931978-3.247903-4.864334-6.400389.089687-4.209478 3.671052-7.663749 7.873381-7.593481zm24.175925-1.001053c2.919333.001476 4.988382 1.955678 4.948761 4.673126-.058641 3.912831-2.756092 6.649452-6.963132 6.296221-2.761639-.231555-4.063611-2.350943-4.035875-5.010134.035659-3.452671 2.55719-5.960687 6.050246-5.959213zm-92.081262-8.99979c1.874491-.034029 5.023067 4.084186 5.030582 6.579615.011178 3.631984-2.480168 6.407204-5.763331 6.420175-4.35836.01652-6.218645-1.753722-6.236669-5.936969-.017118-4.177198 2.753869-6.984934 6.969418-7.062821zm24.92618-2.00021c3.418112.61023 7.132979 2.833436 7.104236 7.196349-.034958 5.223634-2.439289 7.6747-7.163276 7.799556-5.33381.141242-6.763979-3.393724-6.835449-7.088661-.0738-3.85881 3.549399-7.759759 6.894489-7.907244zm35.077938 4.436909c-.613102 4.881736-2.664551 8.686773-9.264243 8.560014-2.813502-.053571-6.006149-3.405897-5.687185-7.358066-.238471-4.813829 3.758356-8.50267 6.952508-8.634711 3.760613-.155431 8.418689 4.091 7.99892 7.432763zm20.791101-9.398703c2.108525.210051 5.251391 4.311456 5.235363 7.184988-.023813 4.381731-2.978966 6.809676-8.247979 6.77647-2.715339-.01699-4.950284-2.953074-4.738052-6.703879.18848-3.319891 2.781996-7.753362 7.750668-7.257579zm23.708716-2.038206c2.269413.00593 4.528169 2.901235 4.526647 5.801719-.001523 2.432233-3.166217 5.169236-6.011929 5.198086-3.284978.023671-3.962529-2.106753-3.987652-4.699508-.036542-3.631337 2.318898-6.306942 5.472934-6.300297zm-93.169295-8c2.85084.022028 6.899048 5.183769 6.688015 8.527676-.221623 3.510951-3.57622 6.501873-7.253039 6.466348-4.349252.173091-6.650195-3.441412-6.737937-7.273603-.078665-3.442168 4.089053-7.745256 7.302961-7.720421zm26.997058-3.999782c3.777284-.03562 7.609683 4.305283 7.697263 8.717423.09211 4.64444-3.751613 8.238113-8.859214 8.282359-2.889399.024669-6.379781-4.159044-6.1261-7.34232.410722-5.162468 3.778794-9.62494 7.288051-9.657462zm34.603925 4.294076c.657665 6.456846-2.095768 9.656323-8.417482 9.698005-3.592523.162869-6.196594-2.273211-6.447617-5.833932-.457472-6.477687 3.077183-9.620045 7.399315-10.138754 2.730755-.328052 7.186609 3.529846 7.465784 6.274681zm25.09299-.759466c.098526 3.160601-3.521368 7.311826-6.317705 7.4567-3.419834.176198-5.67691-2.409606-5.658107-6.481738-.328671-4.722107 3.039268-7.364294 6.769722-7.506819 3.137794-.120597 5.109821 3.452698 5.20609 6.531857zm-98.998031-14.534828v15h-14v-15zm25.213973-2.97414c3.17749.391249 8.297109 3.538349 7.74476 8.200609.460291 4.94268-3.763989 7.822005-9.212493 7.772913-3.534587-.032728-5.75586-2.851803-5.74624-7.3653.009683-4.282168 3.814504-9.026992 7.213973-8.608222zm27.310546-2.02586c3.81124-.006086 7.470031 4.007022 7.475481 8.199879.005439 4.50437-3.843914 7.762688-9.145427 7.800121-2.998435.021213-5.950202-2.986523-5.852198-7.437578.108892-4.96745 3.15244-8.554799 7.522144-8.562422zm27.787385-3c3.018502.000766 6.920927 4.380414 6.677221 8.010358-.254676 3.802835-3.447142 8.174833-8.73814 7.983582-3.864027.00918-6.020548-2.672159-6.23761-7.101532-.275834-5.61972 3.755887-8.893937 8.298529-8.892408zm34.688096-1v14h-12v-14zm-97.001787-1.606113c.093861 4.071947-3.522853 7.546896-7.786591 7.605691-3.195879.044474-5.992466-3.436506-6.203268-7.271011-.212341-3.862395 3.662875-7.917005 7.12418-7.66524 3.609021-.686699 6.796438 4.373461 6.865679 7.33056zm21.165741-10.392311c2.912345.056249 6.938522 5.608514 6.834054 9.573301-.12401 4.684309-4.263674 7.242867-8.859543 7.420989-3.209969.124998-6.176428-2.585901-6.138098-7.963168.040585-5.293675 3.500076-9.121746 8.163587-9.031122zm33.814817 6.721057c.009848 4.253668-4.323712 8.383723-8.869367 8.275277-3.764689-.089487-5.855342-3.388374-6.095464-7.318979-.263604-4.312821 3.257934-8.4224 6.61434-8.658251 5.07362-.35719 8.683026 3.981415 8.350491 7.701953zm19.083204-9.721951c1.729712-.063105 4.873237 4.270828 4.936564 6.807461.081736 3.223767-3.281961 7.024041-6.147878 7.180633-4.114785.225149-5.41078-2.972129-5.849651-6.424162-.0648-4.136051 2.996989-7.41591 7.060965-7.563932zm-95.373574-6.999832c3.127552-.062534 6.156404 3.33565 6.305636 6.845661.160286 3.751319-2.941209 6.073179-5.655017 6.149691-3.956617.111826-6.298529-2.252704-6.338798-6.172498-.030794-2.953823 3.152818-6.772091 5.688179-6.822854zm27.588832-4.000591c3.709423.029102 6.751922 3.529205 6.722556 7.734834-.02782 3.969668-3.445899 6.942002-7.551766 7.255045-3.198604.243828-6.648367-4.083716-6.438939-7.435949.278979-4.451817 3.077275-7.586965 7.268149-7.55393zm28.047865-1.988645c3.211164.15354 6.510327 3.529906 6.667797 7.834355.196839 5.392913-3.722171 7.94153-8.5559 8.146757-4.095778.173303-6.438538-2.760685-6.436995-7.658772.001545-5.075951 3.303795-8.561772 8.325098-8.32234zm25.033238-1.011614c3.311887.018739 5.665227 2.754741 5.641486 6.561352-.030418 4.973629-2.356307 7.473273-6.922024 7.438286-2.850419-.02177-5.099892-3.064882-5.077634-6.869161.022257-3.861813 2.953545-7.149058 6.358172-7.130477zm26.433619 0c2.416696.004477 4.214138 2.542972 4.208045 5.942-.003833 2.192203-3.320014 5.330396-5.720676 5.039093-3.045114-.36933-4.59745-2.204835-4.224828-4.993019.008399-4.126542 1.901287-5.994744 5.737459-5.988074zm-87.807018-3.210458c.259879 2.622077-2.896548 6.11741-5.32486 6.203506-4.156542.146824-6.518179-2.036318-6.645467-6.143547-.267455-3.556831 3.195067-6.785421 5.636259-6.847687 3.595872-.091477 5.988573 3.291625 6.334068 6.787728zm21.150001-10.789542c2.949391-.026345 5.815669 3.670902 5.821006 7.509932.460557 5.133768-2.742751 7.279979-7.131 7.484862-3.541862.164374-5.776018-3.595195-5.824056-6.822692-.064051-4.300991 3.346659-8.137683 7.13405-8.172102zm26.520228-1.99892c2.568386-.076937 6.318788 3.973535 6.344516 6.767367.036754 4.065238-3.118964 7.196349-7.28763 7.231321-3.324788.028754-5.940955-2.615089-5.696172-6.282429.286684-4.303821 2.336835-7.587253 6.639286-7.716259zm31.328107 6.362852c-.360776 1.158645-.714463 2.319652-1.093356 3.472783-.033872.103971-.22135.192976-.352899.223695-.608594.142881-1.226671.403091-1.846677.687499l-.310128.143789c-.206813.096628-.4137.194221-.620382.289328l-.309833.140365c-2.064063.917592-4.093582 1.414167-5.808713-1.959634-.161483-.317426-.02757-.778993-.173299-1.110597-1.536055-3.492474.900365-7.191314 4.522306-8.190064 1.94252-.535607 6.313584 2.523655 5.992981 6.302836zm-72.554713-17.363268c2.861333-.047739 5.52429 2.483937 5.5678 5.292353.079645 5.212537-1.126097 6.620102-5.744789 6.705137-3.519882.064896-5.183585-1.579873-5.249956-5.19016-.070796-3.913879 2.19246-6.753623 5.426945-6.80733zm58.57144 2.986694c.015736 3.331978-2.841875 6.001753-6.433443 6.012642-2.802308.007742-4.553849-2.15587-4.566557-5.64156-.014153-3.779916 2.215368-6.160122 5.949145-6.353426 2.698021-.138962 5.034989 2.629405 5.050855 5.982344zm-31.589678-10.987358c3.369445.011481 6.623245 3.503681 6.589417 7.072146-.035402 3.848359-3.482731 6.555024-7.790712 6.908896-4.023981.330992-6.284963-3.743876-6.207079-6.613749.115645-4.346373 2.288516-7.380217 7.408374-7.367293z"/></svg>