<svg height="960" viewBox="0 0 960 960" width="960" xmlns="http://www.w3.org/2000/svg"><path d="m347 31.5469583c3.162461 0 6.324353.0847556 9.482273.2541754l435 23.337403c93.934713 5.0395225 167.517727 82.6760253 167.517727 176.7458243v478.472373c0 91.882042-70.305439 168.486143-161.850303 176.350466l-435 37.36944c-43.130426 3.705196-85.258233-8.385141-119.442892-33.337306l-.504837-.371376-162.0292542-76.599956c-48.4587076-22.90756-79.54058709-71.443968-80.1578962-124.946155l-.01384963-1.622778v-455.051683c0-76.212426 53.75420513-141.8471429 128.47184503-156.8644945l150.832155-30.3169332.966892-.3982325c20.65212-8.4111493 42.820827-12.8682498 65.551898-13.0207675zm.487906 50.0103587c-70.140163 0-127 56.859837-127 127v539.151767c0 3.633199.155907 7.264724.467291 10.884555 6.011374 69.882086 67.535179 121.659528 137.417264 115.648154l434.052876-37.337955c65.678548-5.649779 116.115445-60.611607 116.115445-126.532709v-478.496072c0-67.492899-52.791542-123.196575-120.187261-126.817139l-434.052876-23.3177394c-2.268868-.1218858-4.540599-.1828616-6.812739-.1828616zm-86.031823 7.7914005-125.10081 25.1498185c-56.0386512 11.263099-96.354305 60.489137-96.354305 117.648457v455.051682c0 38.672726 22.3038207 73.878559 57.2668132 90.406381l138.2417058 65.357473c-19.167348-22.494166-31.75481-50.966366-34.480701-82.654787-.360421-4.189883-.54088-8.393302-.54088-12.598658v-539.151767c0-49.059707 24.03302-92.506202 60.968177-119.2085995zm360.865011 111.5509285c136.274941 21.58383 226.590835 163.033988 202.444858 315.485687s-153.751999 259.069647-290.02694 237.485817c-83.334471-13.198884-149.482405-71.222175-182.778654-149.174798-.055306-.123805-.111166-.248935-.165305-.376172-11.717712-27.538985-19.204443-57.241092-22.076587-87.966293-.013976-.149508-.024649-.298322-.032089-.446385-2.157338-23.368294-1.657606-47.508578 1.777809-71.967286.017814-.113633.031938-.227095.048032-.340786l.074027-.51973c.013224-.092324.02649-.184653.039797-.276987l-.113824.796717c.246085-1.738329.506727-3.476367.781936-5.213967.473714-2.990912.988758-5.968969 1.544774-8.933412.02048-.108851.040861-.217195.061296-.325514.26674-1.414405.54296-2.826111.828476-4.234624.015589-.076169.031166-.152861.046771-.22954.588807-2.894478 1.216905-5.774886 1.883917-8.641071.019658-.082664.038921-.165273.058216-.247868 3.784396-16.204429 8.813492-31.953372 15.025404-47.116566.053479-.130541.108769-.25891.165814-.385118 46.687974-113.510641 156.20829-185.460238 270.412272-167.372104zm-58.642595 18.595178-3.392499.423313c48.852629 22.188332 89.313886 60.722779 115.571741 109.747013l81.744513-2.73047c4.146937-.138595 7.948669 2.29809 9.554625 6.123948 7.707823 18.362297 14.281548 35.503047 19.720972 51.427295 5.604005 16.406072 9.280431 32.999073 11.022542 49.766305.629291 6.056716-4.254929 11.265067-10.339542 11.025706l-80.113316-3.151493c.853236 14.308782.608246 28.749366-.751805 43.214687l80.599353 10.268138c5.464869.696152 9.337397 5.681077 8.660592 11.148375-2.591918 20.937753-5.94714 38.40666-10.101146 52.456012-4.229567 14.304903-11.461117 30.19999-21.671809 47.748966-1.603788 2.756408-4.389563 4.533738-7.45547 4.900644-.568637.094658-1.153906.141914-1.750938.136745-1.065902-.009378-2.091396-.185176-3.052028-.502509l-81.035202-12.377155c-37.400497 65.336957-99.270621 111.197952-169.147743 125.840699 11.5868 4.094667 23.650292 7.180324 36.126362 9.15634 124.80002 19.766381 244.648141-78.824414 267.144485-220.860739 22.496344-142.036326-61.019762-272.83685-185.819781-292.603231-18.720003-2.964957-37.328588-3.266878-55.513906-1.158589zm-38.829387 8.312702-.372457.114298c-66.486924 21.047716-123.451332 74.591018-153.485409 146.516811l.008765 61.898077c3.819953-.999765 7.840732-1.243329 11.903318-.599879 17.572353 2.783188 29.272584 21.107753 26.133197 40.929062s-19.92957 33.633436-37.501923 30.850249c-10.374516-1.643162-18.702253-8.703405-23.137835-18.290555.024597 6.195315.254211 12.343997.67619 18.438411l14.611973 4.070192c4.324133 1.205254 7.315069 5.14427 7.315069 9.633231l-.009425 76.977018c20.689431 47.598573 54.557461 86.903324 97.313221 111.2986.592854-.161612 1.208801-.269168 1.843199-.318549 74.417644-5.792557 142.475529-50.251286 182.128443-117.97012-.481801-1.172112-.743794-2.449682-.743794-3.78101v-94.447021c0-5.522847 4.477152-10 10-10l25.283899-.000042c1.298055-14.000427 1.472368-27.967773.541644-41.791343l-26.218628-1.030331c-5.365766-.211083-9.606915-4.622355-9.606915-9.992271v-90.161296c0-2.89351 1.231037-5.50738 3.20462-7.33652-28.938416-50.408696-74.38635-87.825121-128.41143-104.423441-.514599-.158102-1.007208-.35395-1.475722-.583571zm163.191532 275.318815h-16.509l.000396 74.532154c.800131.462279 1.513422 1.020282 2.132999 1.651729l71.500929 10.920734.695-79.74zm77.799324 9.909617-.385747 44.397081c.348275-1.050286.67792-2.088552.988947-3.114764l.232143-.775389c3.136833-10.609147 5.830646-23.624552 8.061622-39.018683l.049711-.347862zm-206.018248-52.716426c2.870296-18.12234 18.221321-30.75057 34.287472-28.205942 16.066151 2.544629 26.763505 19.298517 23.893208 37.420857-2.870296 18.12234-18.22132 30.75057-34.287472 28.205942-16.066151-2.544629-26.763505-19.298517-23.893208-37.420857zm207.638248-70.800574-.307 34.94 9.321676.367142-.223623-1.348128c-1.772601-10.436632-4.380068-20.809032-7.824589-31.121325l-.474896-1.40585zm-19.629-42.247-75.144328 2.511872c-.38268.105813-.768246.187764-1.154783.246486l-.000213 70.666784 23.74257.934384c.092586-.012.185619-.02276.279084-.032262 1.060441-.107808 2.098998-.045763 3.088634.164087l48.517036 1.909649z"/></svg>