<svg height="960" viewBox="0 0 960 960" width="960" xmlns="http://www.w3.org/2000/svg"><path d="m372.978102 346.999828c4.988552 1.235771 10.242645.796826 15.169324 2.449984 1.348327.452742 2.773136.673508 4.121463 1.124526 8.443157 2.823389 14.179347 8.202834 16.498745 17.089524 2.117449 8.111423 2.987975 16.343577 3.213985 24.686113.052421 1.934289-.446005 2.835463-2.62189 2.818215-11.3134-.088823-22.628519-.050879-33.943638-.027595-1.542541.002587-2.589235-.256986-1.972219-2.180064.126325-.392377.073046-.855468.048984-1.283202-.464052-8.075203-2.589235-10.577791-10.655135-11.927396-8.514483-1.425492-17.075372-1.408245-25.631963-.251811-4.914648.66316-7.534819 3.69093-8.583231 8.342537-.607564 2.696621-.687484 5.446709-.181324 8.134707.700374 3.716801 3.136643 5.936533 6.653121 7.183516 4.652545 1.65057 9.519928 1.958435 14.344343 2.330115 11.686361.902035 23.412251 1.27544 35.057362 2.723354 4.552.565713 9.018065 1.505693 13.346633 3.034669 12.05846 4.260955 18.784627 12.851853 19.573514 25.592461.620454 10.015529 1.093958 20.100047-.472645 30.097466-2.282445 14.565376-13.732483 25.953792-28.395646 28.39774-6.645388 1.106417-13.35093 1.553985-20.073659 1.585893-12.599854.058641-25.204864.186271-37.799561-.100897-7.421384-.169887-14.722459-1.41342-21.869709-3.78924-11.31426-3.760782-17.818713-11.409976-19.871711-23.052791-1.19794-6.791139-1.879408-13.627121-1.933245-20.535542-.017489-2.263713.390704-3.353744 3.014313-3.324424 11.3134.128493 22.629378.107796 33.942779.007761 2.091668-.018972 2.489549.577786 2.573766 2.644017.411631 10.045712 4.594968 14.481727 14.790348 15.33547 8.13207.68127 16.319999.627803 24.466678.139703 7.051003-.422559 10.823569-4.491206 11.370977-11.589348.627329-8.120046-2.077919-12.51208-9.060173-14.388591-6.291333-1.691963-12.775162-1.404795-19.190242-1.434116-11.902058-.053466-23.656307-1.150397-35.376182-3.333048-14.852222-2.767335-23.22663-11.403076-25.158459-26.341857-1.257235-9.722324-1.586368-19.560205-.095388-29.21009 2.563454-16.585902 12.952189-26.274594 29.889204-29.292015 3.653116-.650225 7.421385-.460504 10.983409-1.655744zm511.10256 92.895424c4.8526 0 9.705199-.033538 14.557798.018058 1.672423.018059 2.246193-.341392 1.72474-2.214321-1.680142-6.039293-3.157877-12.135341-4.718805-18.209031-2.837116-11.044089-5.687954-22.084739-8.503628-33.133987-.395378-1.551315-.568623-3.238499-2.711898-3.189483-1.801071.041277-2.18873 1.36471-2.585823 2.859269-4.542129 17.077363-9.100553 34.151285-13.780765 51.190811-.574627 2.092211-.427968 2.781875 1.891125 2.716521 4.705941-.13071 9.417885-.038697 14.127256-.037837zm75.919424 55.995243c-13.574928 0-27.152429-.143609-40.722212.107491-3.180176.058475-4.110729-1.154887-4.759115-3.828411-1.276187-5.265356-2.965763-10.433539-4.160473-15.715233-.535176-2.364809-1.643263-2.872168-3.822559-2.860989-15.146148.072234-30.293153.097172-45.438444-.022358-2.3311-.018918-3.238497.892608-3.77453 2.925484-1.457152 5.519035-3.020653 11.009692-4.528406 16.514968-.41682 1.520357-.637236 2.935803-2.878283 2.922044-13.844231-.087713-27.688462-.043856-41.916064-.043856 2.976913-9.763653 5.837185-19.154095 8.70346-28.542818 11.623768-38.066549 23.244963-76.133958 34.877308-114.197928 1.267611-4.145725 1.298486-4.144865 5.404928-4.144865 18.290303-.004024 36.580606-.00774 54.870909.00172 5.629633.00258 4.466656-.350852 5.826035 4.188722 13.586936 45.375099 27.079529 90.778577 40.633873 136.163996.483717 1.620969.625229 3.385546 1.683573 4.812171zm-959.000086-147.890495c1.57123796.053291 3.14333593.152998 4.71457388.152998 36.24425422.008595 72.48936852.001719 108.73362312.012893 4.719734.001719 4.469471-.63348 4.472051 4.274484.00516 8.876454-.129862 17.757205.076541 26.62936.06794 2.938762-.935691 3.511215-3.625802 3.471676-9.882373-.146981-19.7690458-.084235-29.6539988-.048994-5.3931216.01977-4.8865758-.754675-4.8908759 4.700816-.0189202 27.347074-.0111801 54.694148-.0129001 82.042082 0 7.301779.00344 14.604417.00086 21.906196-.00172 4.098279.4583852 3.837839-4.0119459 3.838699-10.8885844.002578-21.7763088.01979-32.6631733-.008596-4.0970868-.009455-3.8829443.654109-3.8838043-3.934967-.0060201-33.933717-.0043001-67.867434-.0043001-101.801151 0-.859538.0077401-1.718217-.00086-2.576896-.0412805-3.930669-.0421405-3.956456-4.0540863-3.962472-10.3140979-.015472-20.6290558.005157-30.9440137-.01977-1.41815621-.003438-2.86727278.256143-4.2518886-.294821zm820 263c.866382-1.008189.348947-2.197269.351513-3.281758.035921-21.403439.0325-42.806879.022237-64.210318-.001711-5.375293.152237-4.415113 4.311382-4.430545 7.259473-.025719 14.519802.058297 21.778421-.046294 2.162105-.031085 3.153355.557247 3.887171 2.80424 5.145263 15.74695 10.503487 31.42446 15.798421 47.121687.432763 1.281669.555066 2.716795 1.88671 4.037042-.153092-16.160171-.084671-31.939699-.855263-47.708083-.013684-.284625-.035066-.569249-.05046-.853874-.282237-5.359004-.282237-5.359862 5.072565-5.361576 3.131974-.000858 6.275066.165459 9.391645-.051438 2.564934-.17832 3.296184.89331 3.043026 3.206315-.092368.847016-.014539 1.711177-.014539 2.566766 0 20.975645-.010263 41.950433.026513 62.926078.001711 1.084489-.514868 2.273569.350658 3.281758h-29.934211c-5.776447-17.716177-11.55375-35.432354-17.330197-53.148531-.836447.644692-1.002368 1.061342-.984408 1.470275.594408 13.677421.085527 27.373701.751777 41.052836.171907 3.52609.567894 7.117334-.397698 10.62542zm-464 0c.027368-22.27927.055592-44.559397.083816-66.838667.000855-.999563.038487-2.001697-.005132-2.999545-.059868-1.389615.434474-2.103711 1.949145-2.09771 8.550921.032576 17.103553.068581 25.653618-.020574 2.37079-.02486 2.278421 1.833674 2.726579 3.158137 4.449079 13.143475 8.822895 26.311811 13.219803 39.472431 1.201645 3.595338 2.410132 7.18982 4.19421 10.72858 0-6.966934.087237-13.935581-.020526-20.899943-.150526-9.699871-.372039-19.398884-.726974-29.092754-.095789-2.604349.612369-3.54819 3.316711-3.393883 3.977829.227173 7.979605.119159 11.968553.030004 1.678026-.036862 2.345131.615511 2.267302 2.240871-.047894.997848-.005131 1.999983-.005131 2.999545 0 21.142547-.009408 42.285093.026513 63.427639.002566 1.086146-.514013 2.276019.351513 3.285869h-29.934211c-5.794407-17.668938-11.58796-35.339591-17.382368-53.008529-.807368.636085-.955329 1.051855-.9425 1.461624.488355 14.782552.0975 29.580534.792829 44.361371.112039 2.381462.491776 4.840077-.428487 7.185534zm349 0c.02852-22.560545.054447-45.122804.087288-67.684206.005186-4.205782.014692-4.218638 4.124158-4.224638 6.768735-.011142 13.53747-.003428 20.306204-.003428 5.001363 0 5.042846-.013714 6.574281 4.487767 5.207916 15.319777 10.383855 30.650697 15.577078 45.975617.351746 1.03966.741519 2.068178 1.682677 3.052127 0-5.395434.080375-10.792583-.01642-16.186304-.206554-11.406265-.441627-22.814246-.820165-34.217083-.077782-2.370734.432121-3.309257 2.998916-3.165265 3.733521.208275 7.500747.251987 11.225625-.011999 2.845946-.201418 3.276338.944523 3.260358 3.424965-.101557 15.424344-.038468 30.850401-.057481 46.276459-.009507 7.425044-.080374 14.850944-.124451 22.275988h-29.384191c-6.043636-18.113918-12.086409-36.227836-18.13091-54.340898-.127907 13.177032-.006049 26.11579.03457 39.05369.015556 5.093736.532372 10.195186-.052719 15.287208zm-251.184906-36.124638c0 5.287516.16985 10.581896-.069326 15.858258-.125653 2.763441.84578 3.383736 3.421247 3.246464 3.885732-.20848 7.792262.00858 11.687527-.072925 4.517467-.096948 6.740238-2.002444 7.938714-6.338499 1.165546-4.219374.780786-8.513389.767787-12.780808-.013865-4.266561.451487-8.569156-.563275-12.79282-1.052025-4.382384-2.669058-5.805715-7.094668-5.922395-4.470671-.117539-8.950009.040323-13.419814-.10467-2.045123-.066061-2.771314.495035-2.714987 2.619307.144719 5.425645.048529 10.858153.046795 16.288088zm-17.815094 36.124638c.028597-22.573394.054594-45.147647.086658-67.721041.005199-4.239107.014732-4.25455 4.100643-4.25884 9.81572-.009437 19.63144.024881 29.447161-.020119 3.197669-.014199 6.365009.384746 9.435292 1.06767 8.384135 1.864315 13.773379 6.984532 15.254359 15.45674 2.278232 13.032186 2.201106 26.143304-.03293 39.161763-1.617033 9.430533-7.496759 14.762662-17.225822 15.751015-.701927.071209-1.380457.370632-2.069386.562812zm-301.502037-36.026506c2.355188 0 4.355298 0 6.356264-.000858.285608 0 .572931.016296.856823-.009435 3.296063-.292473 4.925655-1.8509 5.062883-5.140149.120076-2.851827.127795-5.71995-.018011-8.570062-.170678-3.332134-1.738517-4.980619-5.058595-5.120423-4.279822-.180973-8.57251-.034307-12.857478-.132084-1.533532-.035166-1.968375.570365-1.932353 2.01043.074619 2.99935-.039453 6.002989.038596 9.001481.065184 2.531908-1.076388 5.773984.506031 7.405315 1.60815 1.656204 4.874194.309627 7.04584.555785zm-25.497963 36.026506c.867972-1.008646.349933-2.197408.351649-3.281531.03688-21.257903.026588-42.515806.027445-63.773709.000858-5.849461-.172393-4.875123 4.700943-4.895707 9.273234-.038597 18.547326.040311 27.82056-.038597 3.303782-.028303 6.565539.36795 9.767257.953754 6.611854 1.207631 10.959433 4.946312 12.347159 11.815569 1.316538 6.514173 1.143287 13.073803.467435 19.575111-.686144 6.605946-5.196682 10.081315-11.903738 11.728084 2.802898.787362 5.162375 1.131296 7.105877 2.567931 3.855271 2.849254 4.562857 6.960173 4.703516 11.366138.148379 4.661557-.485446 9.341984.361084 13.982957h-18.011276c.020584-4.127215.180113-8.258719.02573-12.379073-.164674-4.386238-2.400645-6.477292-6.700194-6.55963-3.418712-.065185-6.844285.090058-10.258708-.053177-2.10732-.087485-3.026752.376527-2.934123 2.7652.209274 5.402603.112356 10.817215.14066 16.22668zm807.958403 1c-1.059104-.939432-2.451119-.675459-3.673228-1.023972-7.176552-2.045357-12.291818-6.343969-13.596724-13.910321-2.332099-13.516088-2.061286-27.167612-.326873-40.685425 1.186748-9.247667 7.217087-14.582329 16.486835-16.178242 8.981686-1.545879 18.032369-1.522587 26.979557-.376118 9.085181 1.164585 13.739892 6.670916 14.666177 15.834043.650297 6.435411.650297 6.435411-5.671554 6.435411-3.01517 0-6.034651-.082815-9.045508.03278-1.638679.063837-2.733144-.271736-3.091929-2.050532-.643397-3.190963-3.091929-4.431461-5.904419-4.782562-3.847446-.481362-7.728528-.481362-11.531126.611623-2.907361.834187-4.819441 2.734618-5.204099 5.652119-1.223835 9.271822-1.407539 18.582463-.039674 27.855148.52869 3.580883 2.684847 5.91868 6.41586 6.574298 3.702552.651305 7.39648.904063 11.055909-.189784 3.881944-1.160272 6.683223-6.424196 5.640505-10.291481-.326011-1.207718-1.13845-1.085221-1.95089-1.09471-2.440769-.030193-4.889301-.12681-7.321446.022429-1.966414.121635-2.889249-.319182-2.726244-2.547422.199229-2.714777.206991-5.466648 0-8.180563-.185429-2.453392.953021-2.792416 3.022932-2.769124 7.89757.089716 15.796003.041408 23.693573.031918 1.612805-.000862 3.194562-.216526 3.163963 2.269647-.101358 8.021834.066822 16.042806-1.203585 24.017194-1.154838 7.249757-4.927249 12.027144-12.171073 13.827506-.51144.127673-1.166049.053484-.930597.91614zm-243.164615-36.249716h.018831c0-3.583116.000855-7.167959-.000856-10.751076 0-.286511-.000856-.573885-.018831-.859534-.282457-4.819775-2.076485-7.065264-6.800359-7.81865-3.498184-.557489-7.036596-.463424-10.581856.157063-3.480209.608405-5.395779 2.761555-5.701346 5.983943-.839667 8.852508-.822548 17.746439.006848 26.599809.302999 3.227567 2.244246 5.322896 5.703913 5.988258 3.267939.629117 6.526462.583379 9.748181.299456 5.322169-.469464 7.453433-2.960904 7.605789-8.418425.103567-3.723784.019686-7.453608.019686-11.180844zm-22.316648 36.249716c-.686456-.583378-1.534682-.673992-2.373493-.865575-9.892832-2.260159-15.744822-9.07861-16.455243-19.254937-.75065-10.760569-.996302-21.554795.066762-32.283433 1.174336-11.852246 7.081105-17.997568 19.351709-19.811564 7.305358-1.079595 14.747664-1.146908 22.07442.443575 11.029507 2.394785 16.897759 8.924135 17.477224 20.165387.52554 10.190999.487023 20.413928.013695 30.608378-.480177 10.318721-5.583228 16.710856-15.232121 19.97812-.621405.210568-1.84196-.427178-1.812858 1.020049zm-326.477287-36.109099c-.061258-4.297633.194991-8.605625-.360646-12.889448-.504733-3.889363-1.951632-5.571646-5.740146-6.446019-3.81526-.880415-7.677973-.85452-11.49841-.075957-3.904128.7941-5.696144 2.651603-6.043848 6.675617-.729058 8.439037-.719568 16.903968.013804 25.341278.33994 3.907489 2.201842 5.763266 6.18966 6.557366 3.669448.731089 7.39239.755258 11.05925-.053516 4.119825-.909762 5.47872-2.512635 6.023141-6.649722.546146-4.14313.285584-8.305248.357195-12.459599zm-24.545529 36.109099c.159616-1.241213-.867968-.766479-1.401172-.933067-10.257718-3.20402-15.494856-9.701828-15.819266-20.448933-.285583-9.480861-.302839-18.979848-.088867-28.463299.294211-13.075026 6.81432-20.606026 19.735472-22.401383 7.514906-1.044413 15.148877-1.121234 22.680176.527386 10.440629 2.28649 16.65531 9.01217 17.079803 19.718707.415865 10.477801.555637 21.011708-.044865 31.471383-.547872 9.519703-4.816097 16.32134-15.295552 19.514139-.62466.190757-1.856725-.435028-1.824802 1.015067zm-258.7728723-27.58717c-2.5880657-10.091737-5.0812271-19.807896-7.8129317-30.456998-2.5427511 10.038573-4.8726087 19.186219-7.1657016 28.343298-.2881329 1.155032-.3719222 2.187444 1.4637491 2.145427 4.3844073-.098611 8.7722346-.031727 13.5148842-.031727zm-40.6814517 26.58717c4.2792431-15.725412 8.5593412-31.450823 12.8385843-47.176235 1.9741803-7.253463 4.0629297-14.478628 5.8507214-21.778396.538646-2.199448 1.2662455-3.095519 3.6268829-3.043213 6.8279791.150918 13.6619432.093466 20.4924873.025725 1.9211706-.018007 2.9514379.318984 3.5516435 2.558734 6.0995245 22.736206 12.3726127 45.425251 18.5815764 68.13316.1094392.399588.0290698.85234.0376198 1.280225h-17.0998726c-1.5962731-3.174408-2.0169299-6.71239-3.0523272-10.061725-.4728115-1.525465-1.0157324-2.387238-2.8240439-2.358941-6.2140937.098611-12.4316074.057452-18.647411.023152-1.1123467-.006859-1.9767453.216944-2.2272584 1.416565-.7643643 3.662317-2.5872107 7.099973-2.3187427 10.980949zm228.524756 1c.219298-.87571-.444569-.761937-.942042-.890363-8.397321-2.16859-12.421482-8.265809-13.442028-16.367854-1.473648-11.696249-1.491567-23.482138-.215031-35.206831 1.319201-12.128933 6.018321-17.361647 17.793001-19.486279 7.850356-1.416996 15.885024-1.343733 23.74562-.106878 8.727547 1.373038 12.901888 6.516974 13.96254 15.866216 1.109289 9.777617 1.109289 9.777617-8.523609 9.777617h-3.838995c-4.327082-.000862-4.349268.005171-5.445757-4.408719-.564031-2.27202-1.782543-3.854505-4.119731-4.399238-.965081-.225823-1.925897-.611963-2.897805-.641268-10.058694-.303396-13.381443.813652-13.44032 11.90311-.029866 5.742109-.076797 11.488527.08021 17.227188.213325 7.79951 2.727998 10.185304 10.403427 10.227538.710799.003448 1.421597.016377 2.132396-.002586 5.764892-.157731 7.550847-1.618685 8.201915-7.506458.301215-2.728837.984708-3.92001 3.997708-3.652815 3.809983.339596 7.673723.153421 11.510157.051715 1.773157-.048268 2.538567.421479 2.512968 2.378898-.046079 3.593343-.115196 7.207372-.798689 10.707628-1.236431 6.336833-4.96535 10.755895-10.922234 13.284767-.810634.343906-2.116182-.093949-2.448116 1.244612zm324.847579-1c-.000853-16.99289.013653-33.98578-.014505-50.978669-.006826-4.570555.636542-3.95806-4.125581-4.000951-3.266334-.030025-6.537787-.09951-9.799001.030024-1.87635.074632-2.475349-.603917-2.430978-2.444835.099833-4.139063.082767-8.283273.006826-12.423193-.030718-1.683076.618624-2.187484 2.248377-2.182376 15.482661.045504 30.964468.045504 46.447982 0 1.655352-.005108 2.298721.597093 2.281655 2.227841-.04181 4.140779-.061435 8.283273.011946 12.423193.032425 1.886383-.769653 2.444835-2.561529 2.394223-3.689558-.104656-7.385088-.042034-11.078059-.026593-3.775738.017157-3.789391.028308-3.791097 4.006098-.005973 15.708708.000853 31.416558-.006827 47.124408-.000853 1.284182-.080207 2.567506-.123724 3.85083zm45.627665 0c.028286-22.516185.054857-45.03237.085714-67.547697.005143-4.381649.010286-4.385936 4.333715-4.393653 3.42-.00686 6.846857.12519 10.257428-.047161 2.223429-.113185 3.069429.593366 2.980286 2.856218-.137143 3.415285-.035143 6.840859-.035143 10.262146-.001714 18.957703-.002571 37.916264-.003429 56.874825-.000857.689402-.24 1.425107.381429 1.995322zm186 0c.028286-22.516185.054857-45.03237.085714-67.547697.005143-4.381649.010286-4.385936 4.333715-4.393653 3.42-.00686 6.846857.12519 10.257428-.047161 2.223429-.113185 3.069429.593366 2.980286 2.856218-.137143 3.415285-.035143 6.840859-.035143 10.262146-.001714 18.957703-.003429 37.916264-.004286 56.874825 0 .689402-.239143 1.425107.382286 1.995322zm-708.8354388 0c-.0419559-23.122337-.0604165-46.245532-.1645612-69.36787-.0091361-2.097587.6588015-2.69702 2.6475103-2.624985 3.9060927.142355 7.8239329.148358 11.7291864-.000857 2.0046521-.076323 2.7019589.527398 2.6163689 2.624127-.1518803 3.705508-.042795 7.421307-.042795 11.132819l-.0033565 58.236766zm432.9991868 0c-.041958-23.122337-.059581-46.245532-.163748-69.36787-.009958-2.097587.658851-2.69702 2.646817-2.624985 3.906281.142355 7.824311.148358 11.729753-.000857 2.004749-.076323 2.702089.527398 2.616495 2.624127-.151887 3.705508-.041958 7.421307-.041958 11.132819-.001678 19.412541-.002517 38.824225-.004195 58.236766zm222.109267-206.151167c5.162074 0 10.32501.03519 15.486222-.009441 5.009385-.043773 8.104559-2.54313 8.947364-7.429407.335569-1.942323.327805-3.987642.174254-5.96258-.41752-5.371214-3.443682-8.476527-8.79295-8.554632-10.75202-.157927-21.508353-.012016-32.261236-.080842-2.110894-.013571-2.711296.843008-2.680241 2.810222.085402 5.420137.15959 10.84714-.031918 16.261269-.09144 2.58347.935971 3.072698 3.243549 3.010901 5.30096-.141619 10.609683-.04549 15.914956-.04549m.856608 54.931778c5.312174 0 10.639876-.25663 15.931346.072097 5.250064.326153 8.866276-2.025577 10.080019-8.259379.519313-2.664149.549505-5.397821-.145787-8.074845-1.323299-5.088835-3.821522-7.347869-9.084525-7.414816-11.339482-.143335-22.683277-.013732-34.024484-.076511-2.054823-.011035-2.773407.737399-2.745802 2.760402.085402 6.141105.119907 12.285643-.014665 18.425032-.048308 2.181787.812612 2.634967 2.775995 2.602352 5.741771-.097845 11.485268-.03519 17.227903-.034332m44.655733-40.816248c2.503399 1.088319 4.908456 1.978371 7.167726 3.145653 7.164275 3.700113 11.741474 9.42752 13.361524 17.376195 2.191121 10.752728 2.051372 21.55867.690979 32.381778-1.543274 12.280493-13.264908 20.592228-22.731585 22.237581-3.398825.591366-6.805414.900352-10.272388.89443-29.887234-.049867-59.772742-.027551-89.659976-.030126-4.320131 0-4.331345-.009442-4.332208-4.361-.005176-46.176305-.006901-92.35261-.006901-138.528914 0-4.452838-.237228-3.973051 3.885358-3.974767 29.455047-.008583 58.914409.275513 88.36428-.102137 19.328447-.248906 32.535557 14.746377 33.27657 31.186171.226013 5.004722.305377 10.000002-.102655 14.990133-.687529 8.428463-4.147602 15.295687-11.368811 20.133041-2.618131 1.754356-5.426044 3.140503-8.271913 4.651962m-608.764108 1.276998c.073801 8.564963-.214539 16.439911.759466 24.296792 1.151643 9.287673 5.714449 13.778794 14.93789 14.547102 8.416776.70034 16.821538.767449 25.239172.089479 9.783816-.788097 13.534808-4.145253 14.725068-13.876876 1.865627-15.251744 1.982336-30.566294.749169-45.866218-.722566-8.965035-4.108843-13.124054-12.188364-14.824141-10.291843-2.163826-20.714126-1.925504-31.110663-.615163-1.54382.193583-3.072192.630649-4.563664 1.095248-3.056746.951567-5.133479 2.953644-6.193299 6.023437-.749169 2.169848-1.274359 4.370669-1.61333 6.647203-1.149068 7.701154-.578396 15.447907-.741445 22.483137m-39.021248 5.384183c.017283-14.206397-.163788-26.812509 1.151762-39.372161.610148-5.830714 1.424536-11.616689 3.368256-17.193594 2.869667-8.232002 8.412485-13.747821 16.553794-16.724694 8.844136-3.233263 18.100187-4.016198 27.363962-4.192573 12.567668-.238322 25.150782-.172934 37.716734.160028 7.822933.206488 15.594377 1.152033 23.27829 3.002684 13.637786 3.286606 21.277933 11.901471 23.884147 25.471195 1.841599 9.589662 2.668859 19.265361 2.672292 29.015051.004291 11.461822.060071 22.925366-.132156 34.383747-.139021 8.30083-1.208281 16.527669-2.563306 24.726976-2.47835 14.994494-11.93435 23.108625-25.928271 26.809928-8.469981 2.239538-17.174239 2.50109-25.867341 2.972571-12.710121.689155-25.397931.109267-38.078875-.414697-9.462866-.390607-18.521541-2.298043-26.933169-7.282155-9.915971-5.875453-14.376657-14.481714-15.384988-25.633804-1.125898-12.435759-1.047806-24.881843-1.101131-35.728502m444.989485-3.719306c0 22.921694.01289 45.843387-.009452 68.765941-.005156 4.883725.59292 4.234567-4.391048 4.248324-11.310169.032673-22.622057-.061906-33.931368.066206-2.458471.027514-3.083185-.712783-3.067718-3.112515.103117-15.184257.059292-30.370234.047262-45.55621-.002578-3.702345-.030076-3.72728-3.670091-3.730719-14.460381-.011177-28.92248.066206-43.382002-.067925-2.799615-.025794-3.630562.72654-3.605643 3.575953.138348 15.184257.00086 30.371953.127177 45.55621.022342 2.611245-.594638 3.384215-3.292855 3.348497-11.738104-.160319-23.479644-.059721-35.221185-.076917-3.566115-.004299-3.585879-.037832-3.586738-3.827877-.005824-46.416021-.008593-92.832902-.001719-139.249783 0-3.732438.032654-3.764251 3.714775-3.77027 11.597177-.018056 23.196073.073944 34.791532-.075153 2.78157-.034043 3.627125.690778 3.602206 3.564265-.141786 16.187656-.07476 32.377032-.063589 48.564688.002578 3.627541.029216 3.654195 3.741413 3.657635 14.46124.011177 28.92334-.071365 43.382861.070504 2.790163.027514 3.560959-.699026 3.536899-3.521785-.139207-16.187656-.07476-32.376172-.061011-48.564687.002578-3.673972.035232-3.698906 3.721649-3.702345 11.311029-.012038 22.622058-.015477 33.933087.004299 3.644312.006018 3.677824.04213 3.679543 3.778868.011171 23.351599.005156 46.703198.006015 70.054796m68.003082-.048466c0 23.059333.006914 46.118666-.00605 69.177999-.002592 4.359416.465815 3.8908-3.899361 3.896819-11.228811.018917-22.457622-.072227-33.684705.06741-2.584018.030613-3.406755-.556662-3.402451-3.279792.089032-46.692183.087303-93.383506.007795-140.075689-.005185-2.789338.707796-3.684437 3.598612-3.644519 11.226219.162145 22.456758.057244 33.685569.071002 3.661701.004299 3.692813.031814 3.694541 3.748926.010371 23.345661.005186 46.692182.00605 70.037844" fill-rule="evenodd"/></svg>