<svg height="960" viewBox="0 0 960 960" width="960" xmlns="http://www.w3.org/2000/svg"><g fill="#000" fill-rule="evenodd"><path d="m231.445032 9.10758086 640.090498 64.73904204c27.578544 2.7893064 48.566137 26.0066665 48.566137 53.7259071v712.845761c0 27.958686-21.340758 51.29388-49.188227 53.785191l-638.690581 57.139035c-14.001304 1.252596-28.113805.035351-41.693836-3.596217l-109.9908836-29.413726c-23.6206152-6.316617-40.0495464-27.716268-40.0495464-52.166894v-776.1625138c0-25.0721508 17.2572425-46.8463713 41.6667037-52.5727096l109.8071603-25.7602139c12.928407-3.03294004 26.270579-3.89892905 39.482575-2.56266184zm-30.319841 41.49909024-.315598 858.4828129.053099.014672c9.053354 2.421045 18.461688 3.232542 27.795891 2.397478l638.690581-57.139034c7.219714-.645896 12.752503-6.695761 12.752503-13.944309v-712.845761c0-7.186469-5.441228-13.205785-12.59122-13.928939l-640.090498-64.7390416c-8.798814-.889916-17.684232-.314721-26.294758 1.7021217zm-20.002598 4.6918132-89.8315212 21.0747202c-6.3283789 1.4846062-10.8024788 7.1297745-10.8024788 13.6299617v776.1625138c0 6.339051 4.2593526 11.887109 10.3832158 13.52475l89.9397842 24.051054zm518.845113 524.3594247v91.001838c0 15.041897-11.553811 27.940165-26.26363 28.766647l-178.872087 10.050062c-15.227041.855543-27.385575-11.650711-27.385575-27.290019v-94.137092c0-15.276212 11.57958-28.326712 26.402553-28.952874l.055775-.0022 178.816312-6.553827c15.115921-.638537 27.246652 11.709776 27.246652 27.117465zm-26.243341-7.138399-.214987.005313-178.872087 6.556028.055776-.0022c-3.76097.158873-7.246653 4.087332-7.246653 8.970694v94.137092c0 4.520266 2.906729 7.510123 6.26363 7.321513l178.872087-10.050062c3.874124-.21767 7.385575-4.137731 7.385575-8.798141v-91.001838c0-4.119328-2.699867-7.035756-6.029947-7.135745zm-76.886316 43.478754v31.3852c0 5.098108-4.183154 9.431396-9.343335 9.678669l-73.139622 3.504813c-5.160181.247273-9.343334-3.723961-9.343334-8.869999v-31.680269c0-5.146039 4.183153-9.496832 9.343334-9.71777l73.139622-3.131542c5.160181-.220938 9.343335 3.73279 9.343335 8.830898z" fill-rule="nonzero"/><ellipse cx="258.5" cy="886.5" rx="7.5" ry="9.5" transform="matrix(.9781476 .20791169 -.20791169 .9781476 189.962559 -34.37302)"/><ellipse cx="258.5" cy="77.5" rx="7.5" ry="9.5" transform="matrix(.9781476 .20791169 -.20791169 .9781476 21.762001 -52.051611)"/><ellipse cx="853.5" cy="137.5" rx="7.5" ry="9.5" transform="matrix(.9781476 .20791169 -.20791169 .9781476 47.23888 -174.447923)"/><ellipse cx="853.5" cy="831.5" rx="7.5" ry="9.5" transform="matrix(.9781476 .20791169 -.20791169 .9781476 191.529594 -159.282358)"/></g></svg>