<svg height="960" viewBox="0 0 960 960" width="960" xmlns="http://www.w3.org/2000/svg"><g fill="none" fill-rule="evenodd"><g stroke="#000" stroke-linejoin="round"><path d="m689.495939 198.280744c31.211658-2.14202 61.483076 8.065066 88.567029 28.561804 23.751288 17.974627 45.084481 44.017187 62.021388 76.077883 23.331758 5.474408 45.366548 22.002135 62.433663 47.59659 17.394961 26.086105 29.598373 61.524208 32.377048 101.261115 2.96083 42.341843-5.3651 81.326187-20.732161 110.243512-15.155988 28.520133-37.009543 47.190939-61.71963 53.29845-12.80284 28.628037-29.568449 52.553993-49.058643 70.175812-22.590818 20.42521-48.867927 32.555764-77.28196 34.542666-.957775.066974-1.914648.122116-2.870559.165511l-495.913962 39.890804c-2.815647.411883-5.655365.719157-8.517914.919326-47.912534 3.350371-94.615545-24.01555-130.105412-74.423332-32.3952374-46.012348-55.2839044-111.04644-60.4144873-184.417194-5.0668054-72.458693 8.1462582-139.279065 33.2069192-189.151728 27.5636261-54.853759 69.3409301-88.966033 116.6184851-93.452861l119.384365-5.163334c1.953974-.227105 3.918441-.410049 5.893026-.548125 4.428892-.309698 8.838794-.388851 13.224418-.244523z" stroke-width="40" transform="matrix(-1 0 0 1 962.696462 0)"/><ellipse cx="762.835107" cy="490.151218" rx="162" ry="261.5" stroke-linecap="round" stroke-width="20" transform="matrix(-.99756405 -.06975647 -.06975647 .99756405 1558.003207 54.406671)"/><path d="m91.4146369 630.591523c31.2003941-44.228033 50.8454581-108.599204 50.8454581-180.260419 0-65.310371-16.317342-124.565576-42.8281252-168.035865" stroke-linecap="round" stroke-width="20" transform="matrix(-.99756405 -.06975647 -.06975647 .99756405 265.230003 9.262036)"/></g><path d="m766.326581 265.395365c36.870116 0 69.020267 25.020289 92.759491 62.210366 26.59343 41.6615 42.740509 99.27481 42.740509 162.789634s-16.147079 121.128134-42.740509 162.789635c-23.739224 37.190076-55.889375 62.210365-92.759491 62.210365-36.870115 0-69.020266-25.020289-92.75949-62.210365-26.59343-41.661501-42.74051-99.274811-42.74051-162.789635s16.14708-121.128134 42.74051-162.789634c23.739224-37.190077 55.889375-62.210366 92.75949-62.210366z" fill="#000" transform="matrix(-.99756405 -.06975647 -.06975647 .99756405 1564.99468 54.650818)"/><path d="m477.599772 734.754092c90.022414 0 163-115.510535 163-258 0-142.489466-72.977586-258-163-258" stroke="#000" stroke-linecap="round" stroke-linejoin="round" stroke-width="20" transform="matrix(-.99756405 -.06975647 -.06975647 .99756405 1150.094289 40.162178)"/></g></svg>