<svg height="960" viewBox="0 0 960 960" width="960" xmlns="http://www.w3.org/2000/svg"><path d="m564.207745 5.88091373 3.351511.71034043 1.829713.39531216c10.208213 2.2238047 17.744106 4.18766128 25.175203 6.76417688 11.570165 4.0116168 21.453809 9.1298269 30.033733 16.4014342 11.850895 10.0438009 20.345389 22.2780746 26.109045 35.306051 4.677375 10.5725823 6.558022 23.8650426 6.030325 34.2374992l-.053975.9217364-.110852 1.508682-.059983.911386c-.133208 2.169816-.218591 4.654807-.244486 7.715879l-.008242 1.81369.005317 1.89346c.039069 6.18766.288019 13.7581.790495 22.958982l.216883 3.873413c.6071 11.707908.018125 23.569126-1.602076 37.549022l-.302331 2.537229c-.618574 5.059659-1.358217 10.366794-2.361947 17.095529l-3.342778 22.153155c-4.413824 30.142789-6.481337 53.283988-6.481337 81.449132l.004411 2.377415c.057344 15.495182.674044 31.846255 1.85957 51.227072l.387769 6.140788c.519356 7.989924 1.132683 16.577078 1.930988 27.183415l2.933904 38.545417.590692 8.052671c4.030207 55.685945 5.868757 97.396008 5.868757 147.924386l-.001652 3.401353c-.108831 112.571909-5.571958 257.030056-9.89092 281.305135-3.404135 19.133218-9.34466 32.273748-19.021683 44.521441l-.452125.568501-.95457 1.181466-1.606955 1.944614c-1.327421 1.596668-2.721127 3.105049-4.177456 4.527029-1.883147 1.838732-3.795206 3.468434-5.759081 4.943797l-.165612.121477-.083092.114486c-1.59168 2.123942-3.369363 4.092966-5.297769 5.895016l-.387681.358181c-4.464876 4.07848-9.057039 6.787931-14.187114 9.031757-5.354879 2.342153-11.026645 4.051103-19.597516 6.214731l-3.323479.826052c-1.002551.245697-2.075442.505914-3.261064.791178l-17.456713 4.159629c-20.881582 4.871379-44.330172 6.148297-70.410033 4.085366l-1.218539-.099396-1.157745.094137c-26.113694 2.070981-49.587023.795501-70.424952-4.067669l-17.577495-4.188764-3.735814-.908039c-7.857771-1.931825-12.875971-3.329048-17.468453-4.9715l-1.027143-.374019c-5.236586-1.941005-9.793562-4.168792-14.354039-7.540322-3.60298-2.663658-6.858387-5.805099-9.571289-9.436332l-.07907-.107492-.650987-.496056c-1.518722-1.174706-3.007639-2.446453-4.477526-3.840974l-.628818-.605244c-1.456329-1.42198-2.850035-2.930361-4.212114-4.568774l-1.553589-1.880663-.889512-1.098781-.448267-.562892-.531607-.67643c-9.415225-12.087505-15.225936-25.11665-18.577699-43.955511-4.318963-24.275079-9.78209-168.733226-9.890921-281.305135l-.000936-5.124081.005735-3.425682c.130593-51.762358 2.248331-94.891948 6.74611-154.751453l3.261139-42.969142.504244-6.994042c.317679-4.485285.600352-8.646409.859793-12.667314l.334373-5.316316.182886-3.042449c1.068839-18.106736 1.625163-33.584692 1.677086-48.295487l.004009-2.266551c0-28.68672-2.144797-52.161701-6.728965-83.131011l-3.340663-22.124523-.499874-3.421205c-.714877-4.956057-1.278354-9.16887-1.768763-13.281516l-.150128-1.276789c-1.618716-13.967002-2.208204-25.817394-1.607505-37.451016l.228596-4.087482.143319-2.723809c.407095-8.021834.609669-14.703449.64172-20.210174l.004328-1.9435-.009318-1.811186c-.028224-3.103953-.117878-5.607488-.256943-7.796821l-.054443-.806831-.065035-.862141-.037476-.522164c-.689156-10.2692924 1.111817-23.7647894 5.674668-34.4741987l.301495-.6944279.651095-1.441564c5.771646-12.5209943 14.073542-24.21604 25.45795-33.864487 9.056231-7.6752839 19.523774-12.9386704 31.93506-17.045424l1.205083-.3937608c7.022573-2.2653962 13.98253-3.99725428 24.096118-6.16356517l3.1539-.6685137c34.282425-7.19788207 134.931185-7.23935232 169.411127 0zm46.367255 762.57408627-.192197.135133c-33.851201 23.452085-79.389028 35.744703-128.618224 36.000897l-1.572388.004089-.133729-.002179-.133346.002179-1.572388-.004089c-49.229196-.256194-94.767022-12.548812-128.618224-36.000897l-.192763-.135133-.068344.059297c-1.00353.840009-2.174428 1.486836-3.455591 1.883135l.397912 9.85012c1.778443 42.732969 3.752462 73.380011 5.104714 80.980455 2.546644 14.313619 6.536432 21.00005 10.827471 26.478043l.562759.709997c.365126.45564.732053.904631 1.100089 1.350862l.921999 1.112077c5.144515 6.188 10.816826 5.483697 11.007629 9.701926l.008925.356078c.196693 3.28791 7.695111 5.545075 22.674599 9.170371l17.498606 4.174702c17.649649 4.242376 38.533018 5.259237 62.650107 3.050581l.729158-.069248.729972.069248c24.117089 2.208656 45.000458 1.191795 62.650107-3.050581l3.93706-.942211c24.029744-5.728753 35.987075-8.239412 36.236146-12.402862l.008924-.356078c.190804-4.218229 5.863114-3.513926 11.007629-9.701926.677239-.814607 1.35269-1.627599 2.022089-2.462939l.3645-.458001.396088-.505707c4.149761-5.346951 8.000022-11.921885 10.511083-25.569096l.118558-.655236c1.458206-8.195965 3.639431-43.191572 5.520211-91.239326-.857274-.382981-1.650598-.880383-2.360231-1.474384zm-130.344222-652.207447c-66.616947 0-112.847265 6.220683-138.078324 18.188679l-.14687 2.976306c-.035.677491-.071553 1.365775-.109612 2.064989l-.172882 3.071348c-2.298658 39.566917 14.099309 81.971424 14.099309 159.528148s-13.576091 155.519706-13.576091 281.451164l.00343 5.143681c.071784 54.052568 1.262432 109.383641 2.83316 156.069612 1.743414-.12815 3.49744.117532 5.197157.664541 2.144054.690009 4.155353 1.836574 6.214946 3.39377 30.57374 23.115884 74.162777 35.545318 121.979829 35.795328h1.717361c47.901569 0 91.663885-12.198276 122.499664-35.098119l.930451-.697209c2.059594-1.557196 4.070892-2.703761 6.214947-3.39377 1.338668-.430816 2.711025-.674721 4.085435-.697665l.148355-4.471241c1.545169-47.215731 2.687011-102.758768 2.687011-156.708928 0-125.931458-13.576091-203.89444-13.576091-281.451164s16.397967-119.961231 14.099309-159.528148l-.123465-2.172623c-.118788-2.138967-.223677-4.177569-.315865-6.121203l-.301-.145375c-24.602029-11.742022-70.254912-17.862121-136.310164-17.862121zm-.903282 54.380748c4.674071.006949 9.570678.169277 14.440509.435855l1.553587.08875c.506466.030154 1.001423.060834 1.48453.091899l1.784525.120082 5.325624.406896 3.656764.296924c21.898054 1.819506 37.464806 3.882117 47.040212 6.289183l1.094821.28369.853247.234615c18.934002 5.347674 30.129095 13.145802 35.602115 25.808256 2.471929 5.719092 3.215592 12.908108 3.280641 25.056199l.004084 2.595228-.002985 1.077275-.103269 11.585578-.022457 3.970987-.001475 1.491349c.000588.801748.003547 1.563017.009004 2.304571l.032546 2.737371.024928 1.344732.031484 1.359164.037119 1.296674.068122 1.895236 2.009597 48.868527.678122 15.548423c.058306 1.274096.110659 2.390317.156787 3.341955l.179128 3.380982.169107 2.238544c4.921759 65.847953-1.463805 116.556741-19.566085 152.243659l-.55214 1.076824c-6.407852 12.363361-19.054675 28.433286-33.483977 41.075861-19.18558 16.809901-40.333013 27.047697-62.379026 27.80518l-.727115.021534c-.238022.00592-.574312.010074-.999422.016007h-2.911744c-.423402-.005657-.810457-.00964-1.148066-.014187l-.913197-.0189c-22.177987-.725885-43.442173-11.042455-62.707706-27.980421-14.346102-12.612877-26.913485-28.603357-33.289387-40.905074-18.524265-35.740867-25.089699-86.8074-20.117819-153.325894l.171771-2.289835.143296-2.654857c.132261-2.67401.323856-6.915552.566802-12.528259l2.3085-55.849078.068625-1.903025.026357-.886426.043709-1.812614.024928-1.344732.020519-1.463859c.012347-1.067616.019133-2.151862.020756-3.318853l-.007393-3.309864c-.003026-.578165-.006918-1.181653-.011646-1.815509l-.099533-10.951469c-.002352-.362951-.004402-.715989-.006138-1.059787l-.006851-2.882431.010316-2.284926c.017159-1.9693.056096-3.629897.121694-5.275797l.038454-.898072.046849-.962868.07675-1.345404c.40228-6.396066 1.267803-11.259869 2.992312-15.249719 5.47302-12.662454 16.668113-20.460582 35.671736-25.827649l.850304-.233288c9.298232-2.484807 24.932569-4.611755 47.24056-6.485518l5.885297-.481183 2.075003-.161951 1.584977-.115513c.803727-.056738 1.62537-.111934 2.469695-.165518 5.381949-.341557 10.682355-.555289 15.691555-.58553zm-.029736 19.999978h-.834103l-1.67336.013568c-4.21793.051168-8.708681.241864-13.277699.531829-1.657996.105222-3.224375.217125-4.738853.335054l-4.999337.404026c-21.65365 1.775865-36.769821 3.768604-44.953147 5.85779l-.600744.156868-.714006.19583c-13.689301 3.866374-19.978796 8.247426-22.679672 14.49621l-.109447.265679c-1.090446 2.777366-1.504678 7.923458-1.516403 19.25397l.006678 3.267559c.002463.516141.00557 1.043432.009302 1.582142l.079284 8.772041.015899 3.067812c.006911 2.477919-.004424 4.544197-.037034 6.655708l-.054116 2.762236c-.015859.656418-.034107 1.310719-.055273 1.976756l-.072054 1.997217-2.21729 53.74029c-.286831 6.680842-.509711 11.655539-.663913 14.776343l-.167124 3.090517-.183159 2.44025c-4.719764 63.145476 1.397738 110.727957 17.930581 142.626558 5.226191 10.083455 16.246088 24.104946 28.738322 35.08793 15.87308 13.955373 32.798058 22.245894 49.513503 22.9867l.71788.026919 1.506187.020011h2.713535c.150026-.004179.276924-.005641.373939-.006943l.789937-.022201c16.796944-.611302 33.813595-8.861932 49.785549-22.856139 12.563082-11.007442 23.653839-25.100123 28.907344-35.236277 16.532843-31.898601 22.650345-79.481082 17.930987-142.621147l-.176133-2.339397-.152986-2.763432c-.160846-3.207036-.403498-8.623352-.72199-16.061381l-2.18275-52.939591-.07155-1.989429c-.030286-.955854-.055469-1.928501-.075875-2.921502-.03522-1.713894-.056666-3.320805-.065826-5.045334l-.004905-2.553689.007871-2.354408c.002186-.414498.004799-.841199.007831-1.281833l.106483-11.634409.007125-3.839379-.015833-2.104575c-.099512-8.323719-.625834-13.356441-1.568297-15.6863l-.174489-.402198c-2.763231-6.109162-9.06593-10.421093-22.493783-14.213892l-.716949-.197157-.607762-.158738c-8.689767-2.219255-24.982769-4.308275-48.504948-6.154022l-3.533459-.270919-2.310923-.158337-1.38982-.086026-1.456158-.083179c-4.541436-.248601-9.096751-.399615-13.377067-.405979zm5.621756 286.179835c6.109347 0 11.061951 4.952604 11.061951 11.061951 0 6.109346-4.952604 11.061951-11.061951 11.061951s-11.061951-4.952605-11.061951-11.061951c0-6.109347 4.952604-11.061951 11.061951-11.061951zm-1.682516-162.081114 11.926013 12.59568.00078 24.013527c0 6.99402-5.669773 12.663793-12.663793 12.663793s-12.663987-5.669773-12.663987-12.663793v-23.166527zm19.828013-19.89132 23.271194.000527c6.99402 0 12.663793 5.669773 12.663793 12.663793s-5.669773 12.663793-12.663793 12.663793h-24.634194l-11.635013-12.288793zm-38.663-.001 12.182987 12.86632-12.422987 12.46168-25.49822.001113c-6.99402 0-12.663793-5.669773-12.663793-12.663793s5.669773-12.663793 12.663793-12.663793zm18.097987-43.83468c6.99402 0 12.663793 5.669773 12.663793 12.663793l-.00078 25.398887-11.748013 11.78632-13.578987-14.34032v-22.844887c0-6.99402 5.669967-12.663793 12.663987-12.663793zm2.419516-50.740658c6.109347 0 11.061951 4.952605 11.061951 11.061951 0 6.109347-4.952604 11.061951-11.061951 11.061951s-11.061951-4.952604-11.061951-11.061951c0-6.109346 4.952604-11.061951 11.061951-11.061951zm-81.90377-155.2319606-3.917888.8325992c-15.568716 3.3586389-29.796352 7.1514243-38.829529 14.8071702-7.46661 6.328057-12.185233 14.0023637-14.993421 20.0944404l-.397414.8798886c-2.233604 5.0487639-2.86101 12.8338716-2.648243 16.2673933l.135923 1.8745164.086807 1.3997415c.147031 2.57315.264385 5.813496.288278 10.008932l.00157 1.322598c29.367013-10.959795 75.047757-16.2671078 137.488949-16.2671078l3.699901.0062784c60.102264.2051422 104.063798 5.4397594 132.329987 16.0460044l.008465-1.769679c.034032-4.189721.162746-7.394988.317423-9.924945l.084442-1.2851497.104115-1.4111892.026001-.5616102c.118193-3.6631879-.555184-10.9159302-2.674244-15.7057831-2.751787-6.220049-7.56-14.3375863-15.390834-20.974329-8.723125-7.3929718-22.290241-11.1836149-37.231294-14.4596537l-2.328987-.5046478-3.187137-.6754679c-29.203916-6.1316067-124.255685-6.0294132-152.97287 0z"/></svg>