<svg height="960" viewBox="0 0 960 960" width="960" xmlns="http://www.w3.org/2000/svg"><path d="m322.87198 30.4633459c11.18671 2.0636013 21.21355 6.1188907 29.775862 13.0033826 9.442983 7.592591 14.93537 19.0563134 14.93537 31.1731346v9.3601369c0 12.8327164-5.669648 23.471037-14.132602 30.554304l-.44961.366886-.002 185.466.341573.505068c4.094353 6.16232 6.525855 13.524923 6.654086 21.447371l.005341.661487-.004 105.618074.319069-.030132c35.46919-3.444936 73.50234-5.34999 112.673717-5.568158l2.399658-.011249 5.111556-.009651c84.753362 0 164.4848 7.918667 224.457767 22.00099 31.044247 7.289535 56.523734 16.145346 75.528151 26.695761 11.523907 6.397566 21.063809 13.599633 28.483566 22.113756 10.055528 11.538654 16.030516 25.353695 16.030516 40.689493v.83441l-.008.04578.008 270.618731v.492132c-.345169 27.869015-14.511465 52.508019-38.397273 72.818423-19.437208 16.527704-45.752085 30.582751-77.646588 42.108689-61.362407 22.17496-142.436807 34.581835-228.456139 34.581835-86.258328 0-167.54118-12.476066-228.958948-34.763959-31.948528-11.5938-58.270197-25.73243-77.65803-42.366575-23.387639-20.065853-37.31836-44.342385-37.866234-71.691219l-.001788-.156057-.015-.360717v-272.161473c0-15.822788 6.329166-29.952278 16.909362-41.68067l.462681-.508415c7.927389-8.635224 18.11214-15.922884 30.438049-22.393199 13.594533-7.136261 30.307286-13.497336 49.793538-19.093105l.39437-.113421.002-127.711784c.000121-8.173728 2.451873-15.774816 6.660016-22.108034l.339984-.503182-.001-185.002-.358121-.280091c-8.607978-6.895216-14.498343-17.381294-14.794754-30.0975736l-.011727-1.0085254v-9.3601369c0-14.7385962 8.104977-28.2830994 21.093213-35.249587 12.25567-6.5735618 27.344709-9.3570218 47.750702-10.3942143 10.350311-.526084 19.673731-.1043798 28.193667 1.4672841zm-146.872292 539.9932101.000312 235.543444.011-.00081.029794 1.32813c2.688976 60.184648 137.970207 108.67268 304.459206 108.67268 167.710469 0 303.753569-49.20212 304.5-110l-.005657-235.5387c-4.145403 3.293687-8.890845 6.399577-14.215944 9.355838-17.151054 9.521509-40.99243 17.807968-70.392508 24.711435-58.354626 13.702317-136.580199 21.471427-219.885891 21.471427s-161.531265-7.76911-219.885891-21.471427c-29.400078-6.903467-53.241454-15.189926-70.392508-24.711435-5.327655-2.95768-10.075097-6.065133-14.221913-9.360582zm304.500312-107.456556c-5.035358 0-10.042169.028699-15.017628.085439-.014416.000164-.028739.000328-.043063.000491l.043063-.000491c-1.60086.018256-3.198474.039414-4.792749.063454l4.749686-.062963c-1.828467.020912-3.652698.045611-5.472555.074064l.722869-.011101c-1.554335.023438-3.105497.049614-4.653399.078508l3.93053-.067407c-1.636144.025581-3.268751.054196-4.897721.085823l.967191-.018416c-3.326682.062097-6.638304.136749-9.934008.223754-.264379.006979-.529672.014065-.794861.021232l.794861-.021232c-1.713933.045247-3.423561.093834-5.128763.145734l4.333902-.124502c-1.524869.041206-3.046309.085057-4.564236.131534l.230334-.007032c-1.598995.048668-3.194098.100248-4.78521.154717l4.554876-.147685c-1.722337.052735-3.440151.108849-5.153317.168314l.598441-.020629c-1.61492.055284-3.225729.113545-4.832321.174757l4.23388-.154128c-1.552559.053891-3.101301.110532-4.646133.169904l.412253-.015776c-3.239339.123422-6.461538.258844-9.665743.406066-.114533.005262-.228514.010515-.342472.015783l.342472-.015783c-1.629021.074848-3.253392.152746-4.873.233667l4.530528-.217884c-1.543229.07134-3.082273.145417-4.617036.222209l.086508-.004325c-1.472939.073593-2.941938.149687-4.406913.228262l4.320405-.223937c-1.729379.08653-3.453323.176508-5.171697.269901l.851292-.045964c-1.555006.083404-3.105477.169603-4.651313.258574l3.800021-.21261c-1.515745.08238-3.027155.167417-4.534137.25509l.734116-.04248c-1.55198.089324-3.099289.181442-4.641823.276329l3.907707-.233849c-1.606684.093474-3.208335.189943-4.804837.289381-1.332013.082965-2.659719.167949-3.98378.254982l3.98378-.254982c-1.460414.090961-2.91652.184407-4.368232.280317l.384452-.025335c-3.118802.205005-6.21738.421379-9.294871.648919-.110776.00819-.221101.016364-.331398.024552l.331398-.024552c-1.43231.1059-2.860053.214219-4.283142.324937l3.951744-.300385c-1.574725.116897-3.143916.23672-4.707457.359439l.755713-.059054c-1.570797.122209-3.135923.24734-4.695262.375366l3.939549-.316312c-1.546103.121352-3.086681.245536-4.621623.372527l.682074-.056215c-1.542712.126661-3.079759.256154-4.611028.388455l3.928954-.33224c-1.376144.113853-2.747758.229963-4.11476.34831l.185806-.01607c-2.954072.255229-5.88664.520904-8.796893.796834-.141978.013461-.283332.026892-.424633.040348l.424633-.040348c-1.409434.133632-2.813634.26967-4.212507.408091l3.787874-.367743c-1.50144.142977-2.99692.288685-4.48633.437098-1.308578.130395-2.612037.262833-3.910737.397339l3.910737-.397339c-1.398266.139331-2.791181.281046-4.178653.425123l.267916-.027784c-1.369484.141837-2.733677.285975-4.092489.432392l3.824573-.404608c-1.500463.15581-2.994559.314383-4.482173.475691l.6576-.071083c-1.499596.161588-2.992639.325951-4.47901.493064l3.82141-.421981c-1.405995.152457-2.8062.307358-4.200515.464679-1.233338.139158-2.461807.280179-3.685601.423077l3.685601-.423077c-1.432458.161625-2.858699.325803-4.278617.492511l.593016-.069434c-1.493245.174361-2.97953.351515-4.458731.531434l3.865715-.462c-1.334043.156626-2.662503.315483-3.985293.476553l.119578-.014553c-1.331649.161973-2.657556.326185-3.977632.492618l3.858054-.478065c-1.49947.182583-2.991653.368007-4.47642.556243l.618366-.078178c-1.364761.172066-2.723289.346505-4.075484.523292l3.457118-.445114c-1.330193.16864-2.654434.339536-3.97263.512667l.515512-.067553c-2.825074.369353-5.622503.748959-8.391377 1.138603-.056149.007901-.111802.015739-.167444.02358l.167444-.02358c-18.750307 2.638598-36.191102 5.73753-52.03908 9.230274-.257665.056786-.51657.114045-.775048.171409l.775048-.171409c-3.377937.744466-6.683511 1.506823-9.913978 2.286427-.152664.036841-.306278.073993-.459721.111183l.459721-.111183c-1.049165.253193-2.090409.508206-3.123636.765016l2.663915-.653833c-1.130138.273912-2.251028.549941-3.36255.828059l.698635-.174226c-1.164309.28939-2.31844.581063-3.462256.874986l2.763621-.70076c-1.012856.25343-2.017934.508595-3.015145.765472l.251524-.064712c-1.080618.277683-2.15203.557374-3.214124.839048l2.9626-.774336c-1.042104.268442-2.075617.538755-3.100435.810916l.137835-.03658c-.997479.264537-1.986738.530823-2.967684.798834l2.829849-.762254c-1.063108.282328-2.116861.566645-3.161144.852922l.331295-.090668c-1.022091.279253-2.035156.56038-3.03909.843356l2.707795-.752688c-1.032701.283102-2.056142.568122-3.070212.855034l.362417-.102346c-.984271.277434-1.959766.556645-2.926383.837609l2.563966-.735263c-1.040614.294422-2.07136.590836-3.092119.889214l.528153-.153951c-.984944.286293-1.960671.574406-2.927075.864315l2.398922-.710364c-.955687.279357-1.902621.560435-2.840702.843213l.44178-.132849c-1.94431.583268-3.850882 1.173807-5.718853 1.771413-.047883.015318-.095322.030508-.142736.045702l.142736-.045702c-.905577.289714-1.802083.58109-2.689417.874103l2.546681-.828401c-.934843.299573-1.859992.600918-2.775338.904011l.228657-.07561c-1.826036.602989-3.613236 1.212914-5.360743 1.829574-.060769.021444-.120631.042593-.180446.06375l.180446-.06375c-1.722166.607718-3.405782 1.221977-5.050029 1.842584-.093737.035381-.187422.07081-.280978.10626l.280978-.10626c-.821916.310226-1.633994.622038-2.436133.935412l2.155155-.829152c-.850652.322327-1.690697.64636-2.520019.972072l.364864-.14292c-.800159.312601-1.590427.626756-2.370702.942442l2.005838-.799522c-.820022.322059-1.629562.645759-2.428507.971074l.422669-.171552c-.817413.330711-1.623859.663102-2.419223.997146l1.996554-.825594c-.752235.306296-1.49508.614025-2.228441.923163l.231887-.097569c-.78174.328322-1.552774.658241-2.312991.98973l2.081104-.892161c-.742712.313081-1.475698.627607-2.19886.943558l.117756-.051397c-1.472912.642257-2.905216 1.290408-4.296105 1.944265-.036041.016943-.072171.033945-.108273.05095l.108273-.05095c-.669292.314634-1.328994.63059-1.979017.947845l1.870744-.896895c-.72243.340295-1.433646.682132-2.133536 1.025485l.262792-.12859c-.687242.33542-1.363663.672294-2.029159 1.010596l1.766367-.882006c-.688111.337575-1.365274.676615-2.03138 1.017095l.265013-.135089c-.68478.348104-1.35799.697721-2.019517 1.048823l1.754504-.913734c-.646644.330532-1.282869.662422-1.908574.995645l.15407-.081911c-.63521.337134-1.259647.675637-1.873208 1.015485l1.719138-.933574c-.650491.346423-1.289614.694288-1.917257 1.043568l.198119-.109994c-.61462.340435-1.218327.68222-1.811018 1.02533l1.612899-.915336c-.621067.345621-1.230893.692628-1.829371 1.040996l.216472-.12566c-.59859.346525-1.185943.694401-1.761953 1.043605l1.545481-.917945c-.600766.3497-1.190098.70077-1.767885 1.053187l.222404-.135242c-.592942.359469-1.173866.720345-1.742654 1.082599l1.52025-.947357c-.547448.333911-1.084533.669031-1.611162 1.005336l.090912-.057979c-.548247.349173-1.085219.699626-1.610813 1.051336l1.519901-.993357c-.55107.351914-1.090692.705127-1.618758 1.059614l.098857-.066257c-1.046515.700293-2.04792 1.405568-3.003398 2.115635-.022177.016481-.043962.032692-.065724.048905l.065724-.048905c-.44917.333802-.888192.668664-1.316978 1.004564l1.251254-.955659c-.500111.372596-.987579.74651-1.462286 1.121714l.211032-.166055c-.47404.371351-.935571.743971-1.384477 1.117834l1.173445-.951779c-.450819.356323-.890129.713808-1.317828 1.072433l.144383-.120654c-.439468.366002-.866836.733194-1.281999 1.101552l1.137616-.980898c-.433079.363137-.854254.727441-1.263419 1.092889l.125803-.111991c-.406374.360562-.801054.72224-1.183937 1.085011l1.058134-.97302c-.418825.374074-.825065.749347-1.21861 1.125791l.160476-.152771c-.390933.370398-.769569.741935-1.135799 1.114587l.975323-.961816c-.381711.365124-.751478.73135-1.109197 1.098654l.133874-.136838c-.362811.369172-.713447.739437-1.051804 1.110772l.91793-.973934c-.357438.367015-.702848.735105-1.036128 1.104248l.118198-.130314c-.345583.379264-.678357.759644-.99821 1.141113l.880012-1.010799c-.340124.376724-.667614.754543-.982362 1.133433l.10235-.122634c-.320059.381714-.627181.764519-.921254 1.148387l.818904-1.025753c-.298414.359228-.585374.719418-.860786 1.080548l.041882-.054795c-.56412.736377-1.080222 1.476669-1.547517 2.220692-.017841.028408-.035379.056449-.052848.084494l.052848-.084494c-.241654.38476-.470256.770518-.685697 1.157249l.632849-1.072755c-.235551.378176-.458494.757313-.668727 1.137387l.035878-.064632c-.207816.373044-.403386.746993-.586612 1.121823l.550734-1.057191c-.214697.388146-.416138.777269-.604211 1.167344l.053477-.110153c-.181791.371896-.351431.744661-.508823 1.11827l.455346-1.008117c-.190771.395667-.367788.792314-.530938 1.189913l.075592-.181796c-.166971.396347-.320159.793644-.459448 1.191867l.383856-1.010071c-.15648.381345-.300203.763565-.431067 1.146638l.047211-.136567c-.134826.385458-.25663.771783-.36531 1.15895l.318099-1.022383c-.134517.393764-.255448.788429-.362682 1.183968l.044583-.161585c-.11027.392831-.207029.786529-.290168 1.181068l.245585-1.019483c-.105504.389161-.19775.779168-.276633 1.169997l.031048-.150514c-.082781.392838-.15206.78651-.207729 1.180992l.176681-1.030478c-.079055.391684-.144689.784194-.196795 1.177504l.020114-.147026c-.056136.397783-.098434.796389-.126785 1.195792l.106671-1.048766c-.050417.380566-.088169.76188-.113161 1.143921l-.036619 1.120285.009.250194.031794.932189c2.688976 38.943008 137.970207 70.317617 304.459206 70.317617 168.170706 0 304.5-32.01164 304.5-71.5 0-39.093476-133.616341-70.85902-299.464536-71.490421zm0 9.5c69.800477 0 135.279264 5.162599 183.912508 14.228213 24.164243 4.504403 43.630351 9.875488 57.384751 15.937292 16.605141 7.318176 26.202741 16.061129 26.202741 27.834495s-9.5976 20.516319-26.202741 27.834495c-13.7544 6.061804-33.220508 11.432889-57.384751 15.937292-48.633244 9.065614-114.112031 14.228213-183.912508 14.228213s-135.279264-5.162599-183.912508-14.228213c-21.754583-4.055224-39.701309-8.812896-53.100594-14.144622-1.86905-.224707-3.646867-.974708-5.113381-2.161256-16.095334-7.243879-25.373517-15.890115-25.373517-27.465909 0-11.773366 9.5976-20.516319 26.202741-27.834495 13.7544-6.061804 33.220508-11.432889 57.384751-15.937292 48.633244-9.065614 114.112031-14.228213 183.912508-14.228213zm0 57.308544c-11.598485 0-20.973708 1.35061-30.016879 3.796653-1.508052.407905-2.981011.837825-4.647223 1.349529-.883833.271431-3.6792 1.148951-4.079419 1.27273-3.712287 1.148134-5.811356 1.66802-8.206727 1.828377-2.178413.145833-4.586879-.030051-7.993997-.469606-1.191304-.153692-2.457559-.333307-4.255377-.599413-.325174-.048131-.659179-.097792-1.113593-.165518-.563035-.083951-.866241-.129156-1.132012-.168717-.924028-.137542-1.62187-.240501-2.313983-.340978-5.501448-.798668-9.543823-1.261065-13.462261-1.472419-2.583324-.13934-4.946054-.15131-7.098373-.027204-4.479156.258276-7.700614.836234-14.042646 2.338895-.385102.0913-.385102.0913-.774261.18362-9.73242 2.308196-15.206469 3.165507-23.816084 3.165507-5.00531 0-8.417598-.14327-12.870651-.464419.118923.008577-.482269-.035406-1.148346-.083737l-.309642-.022439c-.464216-.033595-.911216-.065719-1.123585-.080374-5.773563-.398403-10.52435-.317113-21.228941.613401-8.589157.746626-17.674914 2.453221-27.055026 4.877245-2.005617.518295-4.595202 1.250411-7.2085 2.013294l-1.205782.353618c-.200564.059079-.400759.118172-.600329.177198l-.636181.18855c-2.25478.669623-4.393211 1.318905-6.038397 1.824702 6.766149 1.651189 14.161224 3.227847 22.13073 4.713425 47.324677 8.821687 111.601718 13.889536 180.247485 13.889536s132.922808-5.067849 180.247485-13.889536c10.857233-2.023872 20.648329-4.216789 29.235272-6.536132-3.47979-.562876-10.657821-1.157222-22.121514-1.843617-2.774233-.166108-17.259943-.992575-21.471434-1.24674-7.271816-.438857-13.716338-1.454303-22.426096-3.320338-1.037678-.222319-2.104625-.45532-3.457392-.754013-.215326-.047544-.841472-.186161-1.512027-.334586l-.505518-.111889c-.586127-.129719-1.136122-.251393-1.404517-.310581-13.281305-2.928891-21.273046-4.161249-32.342621-4.500502-10.462546-.320649-14.403865.149117-20.505649 1.800155-.040452.010946-.688107.186461-.883151.239125-7.447232 2.010803-13.258603 2.808654-24.511037 2.808654-12.008437 0-19.15069-1.531956-30.990972-5.60958-.410362-.141381-.410362-.141381-.816774-.281428-10.514499-3.622115-16.062858-4.800448-26.534055-4.800448zm-3.856234 10.691456c8.982616 0 14.293117 1.127817 22.762107 4.04528.089619.030882.149364.05147.19899.06857l.138273.047644c.049141.016931.107915.03718.196076.067554 6.169332 2.12463 9.182602 2.770952 14.902589 2.770952 5.522848 0 10 4.477153 10 10s-4.477152 10-10 10c-8.309267 0-13.332494-1.077441-21.414934-3.860919-.269551-.092867-.269551-.092867-.535063-.184361-6.55345-2.257583-9.836026-2.95472-16.248038-2.95472-7.006177 0-12.67888.779837-18.12405 2.199381l-.570716.150813c-.025371.028126-2.948167.930611-5.955436 1.746596l-.564167.151749c-2.067212.550973-4.091361 1.032654-5.159552 1.132558l-.135117.010927c-5.510513.368899-10.276718-3.799203-10.645618-9.309716-.368899-5.510514 3.799203-10.276719 9.309717-10.645619l-.223049.018311.038282-.008089c.020865-.004666.044408-.010083.070578-.016276l.086335-.020932c.354537-.087809.851091-.231351 1.617072-.468253.211007-.06526 2.062493-.646477 2.702295-.842964 1.256947-.386016 2.394799-.718127 3.57999-1.038704 7.275661-1.967957 14.854534-3.059782 23.973436-3.059782zm3.856234-48c-68.645767 0-132.922808 5.067849-180.247485 13.889536-22.779247 4.246228-40.865461 9.236573-52.984003 14.577426-5.662595 2.495605-9.810345 4.981433-12.30277 7.251913-.946697.862395-1.551 1.599628-1.854939 2.157516-.027309.050126-.047889.088081-.063397.115526.007754.029889.016776.046238.027273.065424l.036124.066268c.303939.557888.908242 1.295121 1.854939 2.157516 2.199217 2.003381 5.687204 4.174424 10.367454 6.371907 7.087375-2.710495 15.357333-5.264847 24.727116-7.652605l-.039867.009117-.028552.007166c-.44283.090818 5.289018-1.702714 11.206302-3.424495l.645969-.187452c2.36914-.68559 4.733103-1.34832 6.708577-1.862998l.254188-.06596c10.374766-2.681064 20.510868-4.584947 30.327071-5.438237 11.690357-1.016203 17.468847-1.115077 24.337761-.641089.394114.027195.788502.055464 1.331074.095111.656416.048131.994661.072891 1.31232.0958 4.006092.288915 6.952158.41261 11.43201.41261 6.72884 0 10.85313-.64592 19.200794-2.625699.387427-.09191.387427-.09191.778477-.18462 7.390798-1.751153 11.582538-2.503187 17.502397-2.844537 2.945744-.169857 6.040848-.154175 9.326894.023068 4.643141.250443 9.211268.77298 15.258425 1.650871 2.485044.360764 4.429416.643155 5.962392.863417l1.41402.202052c3.009064.426903 3.954706.535981 4.554424.543022l.12331.000032.078206-.001469.076285-.0025c.025231-.00099.050325-.002129.075464-.003393l.114057-.006463c.064224-.003976.13045-.008523.20154-.013282.06082-.004071.360958-.05728.87302-.184105.66062-.163619 1.502018-.406845 2.760196-.795974.338545-.104705 3.159631-.990298 4.117351-1.28442 1.866886-.573333 3.549504-1.064447 5.29666-1.537026 10.680708-2.888972 21.797182-4.49043 35.238923-4.49043 13.0418 0 20.618085 1.609013 33.048124 5.891008.409755.1412.409755.1412.81505.280835 9.927174 3.418777 15.05947 4.519613 24.478627 4.519613 9.459938 0 13.5215-.557618 19.297598-2.117203.184342-.049774.824399-.22323.872786-.236323 7.991233-2.16229 13.898548-2.866384 26.342112-2.485022 12.554214.384753 21.645484 1.786663 36.037021 4.96039.257943.056884.765854.169236 1.316638.291127l.47777.105742c.717913.158904 1.408886.311882 1.632766.361316 1.315463.290456 2.344648.515211 3.335068.727405 7.810597 1.673392 13.34019 2.544676 19.441064 2.912866 2.048043.1236 6.58398.385827 11.002845.64063l.944159.054433c4.232106.243961 8.182338.471316 9.514985.551109 15.798298.945932 23.448062 1.64338 27.871635 2.856439 4.474447 1.227009 8.032626 3.100873 13.124258 6.415682 2.445434 1.592053 3.809897 2.476605 4.705689 3.020109l.214538.128983c.301792.179624.547278.317386.766768.431426 4.643749-2.186106 8.106962-4.345007 10.294757-6.337984.946697-.862395 1.551-1.599628 1.854939-2.157516.027309-.050126.047889-.088081.067803-.115526v-.016166c-.01216-.013723-.021182-.030072-.031679-.049258l-.036124-.066268c-.303939-.557888-.908242-1.295121-1.854939-2.157516-2.492425-2.27048-6.640175-4.756308-12.30277-7.251913-12.118542-5.340853-30.204756-10.331198-52.984003-14.577426-47.324677-8.821687-111.601718-13.889536-180.247485-13.889536zm-160.5-169.5h-46l-.00399 138.505396c14.364206-3.004159 29.761074-5.674322 45.999705-7.986791zm-23.291195-225.221578c-6.535191 0-11.715341.4160863-15.413367 1.1612847l-.295438.0604875v203.9998058h32l.00238-203.8700394c-.276385-.0641257-.569869-.1277169-.880207-.1902539-3.698027-.7451984-8.878177-1.1612847-15.413368-1.1612847zm16.291195-21.778422h-32l-.00048 2.7150517c4.448174-.6244198 9.684602-.9366297 15.709285-.9366297 6.290001 0 11.720791.3403139 16.292371 1.0209417z"/></svg>