<?xml version="1.0" encoding="UTF-8"?>
<svg width="960px" height="960px" viewBox="0 0 960 960" version="1.1" xmlns="http://www.w3.org/2000/svg" xmlns:xlink="http://www.w3.org/1999/xlink">
    <title>energy.chargee/drivers/sparky/assets/icon</title>
    <g id="energy.chargee/drivers/sparky" stroke="none" stroke-width="1" fill="none" fill-rule="evenodd">
        <path d="M806.572931,259.750396 C828.233229,287.816247 912.689073,404.559436 935.792541,437.792875 C949.673715,457.760404 957.732807,475.382958 959.423348,495.613117 C961.547518,521.032358 952.348755,545.056622 932.83648,566.992849 C922.085911,579.078929 913.187557,589.713282 901.624455,604.028325 C888.696336,620.033251 885.537921,623.949365 882.73947,627.100674 L882.510078,627.358196 C882.281109,627.614462 882.05283,627.867657 881.820017,628.124069 L881.585498,628.381786 C880.91565,629.116343 880.195419,629.893548 879.305967,630.856417 C878.956578,631.234644 878.56911,631.667593 878.010853,632.302937 C877.890212,632.440237 877.763019,632.585321 877.593011,632.779491 C877.368967,633.035446 877.368967,633.035446 877.128781,633.30975 C876.704116,633.794534 876.382238,634.160273 876.045549,634.539451 C868.125645,643.458809 860.316318,649.59777 848.229267,655.029175 C833.072254,661.84009 811.103945,667.092743 773.565942,673.168792 C743.080025,678.103362 652.346676,692.218558 510.786286,714.102766 L510.383478,714.165037 C510.273031,714.182111 510.182074,714.196172 510.097614,714.209229 L509.850731,714.247395 C509.794424,714.256099 509.735229,714.26525 509.669297,714.275442 L509.162053,714.353857 C487.835262,717.650722 435.573709,725.719884 382.557247,733.90638 L375.325885,735.02301 C310.25253,745.07136 246.108354,754.97774 238.681305,756.137374 C234.680586,756.762033 230.856852,757.448142 224.234183,758.701654 C211.879202,761.040155 205.341878,762.214911 199.194333,763.005229 L198.524977,763.089958 L197.845226,763.1733 L197.153468,763.255344 C195.307138,763.470637 193.441477,763.658886 191.408023,763.841406 C176.914344,765.142342 163.663976,764.490391 150.518153,761.173056 C119.448916,753.332764 94.3831533,731.765964 73.6071308,695.574128 C48.1059826,651.151121 30.806833,620.760738 21.6368933,604.271631 C20.8383739,602.835758 20.1290793,601.35205 19.5130406,599.828941 C3.49439333,560.224046 -1.9288188,519.833696 3.49073285,479.305817 C9.70467863,432.837389 29.2419394,377.38585 55.3260901,333.46021 C58.7457516,327.70151 66.3388211,315.714802 74.5628241,303.136175 L75.3355647,301.955366 L76.1113535,300.772122 L76.8895419,299.587473 C77.4089899,298.797468 77.9296052,298.007215 78.4505229,297.21809 L79.6227333,295.445042 L80.4036928,294.266844 C82.0947408,291.718338 83.7775642,289.199912 85.4224741,286.758802 C104.171556,258.93443 117.169813,241.533145 127.596135,232.797117 C146.380312,217.05819 171.384875,209.718112 201.727467,208.928555 C335.826125,205.228295 441.15157,202.270869 517.632468,200.058562 L531.087493,199.668395 C599.72563,197.672883 642.872944,196.33588 660.470184,195.659283 C725.766663,193.148698 771.740572,214.61714 806.572931,259.750396 Z M56.5947886,584.830809 C65.6496567,601.112998 82.8839186,631.389389 108.297574,675.659984 C146.418058,742.065875 186.202477,723.846603 232.510605,716.61621 C278.818733,709.385816 695.118944,645.345921 767.174569,633.682714 C823.938927,624.494611 835.985162,618.368812 843.769661,610.522986 C825.143918,613.70457 798.605528,617.697508 763.789849,622.584377 C762.597599,622.751726 761.424985,622.701476 760.31215,622.463888 C757.43257,625.015156 754.233648,627.264819 750.755279,629.226373 C743.674548,633.219404 735.926498,635.788078 727.584055,637.423213 C719.365267,639.034111 694.430781,642.288348 652.13166,647.29038 C647.154725,647.878922 642.930753,644.796788 641.481607,640.580609 C546.710295,653.99478 461.245353,666.341339 385.087107,677.620256 C306.609655,689.242645 246.836267,660.917979 207.518807,593.653808 L144.101434,682.983104 C142.67416,684.993566 140.826649,686.669506 138.687027,687.894695 C130.539415,692.560179 120.152348,689.737356 115.486864,681.589743 L50.6937031,568.437205 C52.4190534,573.905414 54.3860819,579.369949 56.5947886,584.830809 Z M137.55645,424.79923 L63.9090477,544.993372 C62.7637737,546.862471 62.7289589,549.207374 63.8182394,551.10965 L130.50945,667.57723 L210.734082,554.574713 C212.058537,552.709082 212.202742,550.26008 211.125477,548.258708 L210.995754,548.029826 L204.98921,537.952096 L155.20474,614.411228 C152.75618,618.17164 147.197201,618.011762 144.968811,614.116839 L141.592687,608.215056 L138.723568,612.728278 C136.409481,616.367115 131.153356,616.433944 128.731053,612.929382 L128.597007,612.727197 L125.404687,607.706056 L121.396024,613.091716 C118.889866,616.457752 113.816472,616.263817 111.557132,612.78555 L111.429946,612.581238 L90.3661865,577.253226 C89.1835373,575.269693 89.2442393,572.783459 90.5222785,570.860005 L96.5920158,561.721812 C96.5764786,561.656006 96.5615777,561.589918 96.5473207,561.523556 L91.6971482,555.210487 C90.2553124,553.333692 90.0558932,550.792585 91.1666838,548.721023 L91.2955002,548.49284 L98.0596869,537.095056 L91.3752009,526.460013 C90.1923039,524.577947 90.150296,522.20339 91.2477373,520.286761 L91.3848995,520.059025 L142.770233,438.848872 C143.303459,438.006155 143.9921,437.355432 144.765755,436.895057 L137.55645,424.79923 Z M122.861857,302.82264 L122.620012,303.177597 C117.073308,311.294618 111.550854,319.628159 106.630961,327.183238 C102.901318,352.797896 103.679196,371.900684 108.641593,384.244109 C112.730974,394.415997 117.510333,403.107437 122.958956,410.34413 L123.097223,410.117339 C124.536072,407.769124 126.523872,405.805626 128.889608,404.395769 C136.954853,399.5893 147.389439,402.231059 152.195909,410.296304 L228.176247,537.79114 C233.44703,546.635503 233.00238,557.756979 227.042332,566.15232 L220.338613,575.596068 C255.550862,641.66136 308.831075,668.695514 382.157096,657.836044 C461.09236,646.145855 550.010493,633.310724 648.912319,619.330509 C652.443928,613.978982 656.80033,608.891099 661.960073,604.070821 C668.241593,598.202567 670.451831,596.173588 672.610751,594.610174 L672.855154,594.434991 L673.114618,594.252824 L673.245188,594.16255 L673.508966,593.98282 C673.907845,593.713557 674.322902,593.444346 674.777428,593.155641 C678.93475,590.514997 682.973017,589.167067 689.476578,587.980407 L689.693183,587.941059 L690.12888,587.862984 C690.640318,587.772181 691.165482,587.681911 691.733603,587.587316 L692.231765,587.505062 C693.761901,587.254444 695.631298,586.966056 698.336957,586.557316 C700.859736,586.176203 705.101368,585.568741 709.617135,584.930899 L710.440883,584.814636 C710.991633,584.736963 711.545124,584.659018 712.098784,584.58115 L712.929078,584.464449 C720.406451,583.414134 727.679541,582.409797 728.394203,582.313351 L728.433305,582.308335 L729.177025,582.201982 C735.166321,581.340855 739.798736,580.602695 743.981624,579.823959 L744.50221,579.726394 C749.154792,578.848607 751.805227,578.418913 754.611381,578.170519 C759.034979,577.778951 762.683741,578.008225 766.076683,579.315197 C771.454676,581.386817 775.016178,585.975664 775.549977,591.92168 C775.801189,594.719954 775.391456,597.659735 774.383352,600.886138 C822.90086,593.96347 853.448039,588.934763 864.695209,586.102634 C871.054141,578.218403 878.647995,568.731249 887.865016,557.81778 C884.095076,558.551045 880.134722,559.123517 875.991347,559.531051 C843.402845,562.736386 742.645725,575.44321 641.073507,588.73433 L630.916062,590.065059 C566.599972,598.501163 502.857479,607.052408 456.798872,613.453496 C409.252178,620.061394 371.408802,618.013461 338.018427,605.174477 C300.950623,590.92148 270.53784,563.497851 244.935111,520.823153 C241.132245,514.484525 237.453563,508.370641 233.80252,502.321809 L232.650365,500.413627 C231.498904,498.507235 230.349185,496.605655 229.198169,494.703856 L227.470291,491.850365 L225.853837,489.183485 L225.306271,488.280656 L224.208954,486.47225 C211.754572,465.953527 198.647144,444.576511 181.134051,416.134195 C178.169895,411.320229 175.443866,406.891847 172.92869,402.804069 L171.688546,400.788356 C155.384211,374.285074 148.249054,362.586552 142.20181,352.365007 L141.75018,351.600952 C141.450285,351.093151 141.152605,350.588209 140.856129,350.08446 L140.368356,349.254911 C139.80017,348.287719 139.234385,347.321555 138.663818,346.344572 C130.054417,331.602666 124.721574,316.811878 122.861857,302.82264 Z M753.89821,598.389096 L753.869072,598.394003 C752.420952,598.606681 750.653116,598.918762 748.210127,599.379673 C745.679926,599.857037 743.03785,600.313153 740.107794,600.780352 C739.409785,602.136013 738.533537,603.670811 737.483474,605.400564 C729.668814,618.273543 692.988649,618.612502 676.95162,620.905506 C675.472301,621.117021 674.116836,621.270004 672.885227,621.364453 C671.828259,622.453331 670.830317,623.551655 669.888908,624.659335 L669.547305,625.065335 L670.617596,624.935527 C699.418383,621.441566 717.163293,619.058285 723.507456,617.841198 L723.737212,617.796655 C738.124811,614.976657 748.782954,609.037754 753.79708,598.605387 L753.89821,598.389096 Z M670.299603,235.462382 L668.669877,235.470642 C666.487401,235.490013 664.266806,235.542862 662.00701,235.629749 C640.16231,236.469657 579.498575,238.311951 480.015807,241.156631 L469.586012,241.454484 C399.130878,243.464009 310.212471,245.950292 202.830789,248.913336 C180.684919,249.489638 164.169898,254.337615 153.285727,263.457268 C152.86436,263.810323 152.416728,264.214045 151.944614,264.665361 L151.656005,264.946896 C139.069493,277.477371 137.440448,304.591336 155.934318,336.25845 C175.198765,369.245026 213.900041,430.218467 262.08534,510.533855 C310.270639,590.849244 371.5425,605.10995 454.045791,593.643888 C536.549082,582.177827 808.661165,546.056993 874.033637,539.627097 C899.822812,537.090529 912.534488,528.244864 917.380495,516.890855 C919.13576,511.611576 919.847165,506.467586 919.701128,501.40964 C918.723422,487.186312 910.753608,471.851535 902.949179,460.625167 C885.150788,435.022876 799.317983,315.819469 774.906825,284.189253 C751.716225,254.140548 721.682342,235.399043 670.299603,235.462382 Z M84.4643659,363.085898 L84.0904341,363.767017 C63.0314402,402.308991 48.042684,447.92856 43.1378167,484.607585 C40.6232134,503.412007 40.9279203,522.173566 44.0519371,540.892261 C44.6893447,538.690158 45.6244589,536.553687 46.8557921,534.544139 L111.8898,428.410319 C103.19659,418.52222 95.9412244,406.270913 90.0850624,391.704347 C86.8708449,383.709331 85.0107383,374.180095 84.4643659,363.085898 Z" id="Combined-Shape" fill="#000000" fill-rule="nonzero"></path>
    </g>
</svg>