<svg height="960" viewBox="0 0 960 960" width="960" xmlns="http://www.w3.org/2000/svg"><path d="m659.544893 63.2350835c225.131236 73.1495725 346.618317 318.9459035 271.967785 548.6966205-74.650533 229.750718-317.411105 357.195811-542.542342 284.046238-121.532556-39.488321-216.417538-130.914627-263.002493-248.423486l-.128466-.327943-2.00491-1.205331c-99.3087803-60.843312-141.730976-195.283894-101.9576618-323.231965l1.2972986-4.081148c41.490435-127.694429 153.9688602-213.077556 270.1508352-205.88693l2.222438.155374.356323-.233597c107.610734-70.2220739 240.242019-89.6026546 363.641193-49.5078325zm-129.533614 19.3715288-5.288696.0331126c-.341129.0045189-.682209.0094982-1.023241.0149375l1.022878-.0149327c-2.126387.0281698-4.250899.0742302-6.373345.1380805l5.350467-.1231478c-2.037348.0324949-4.072946.0814081-6.106625.1466508l.756158-.023503c-1.978897.0595318-3.955998.1345285-5.931147.2249083l5.174989-.2014053c-1.905136.0611189-3.808588.1365683-5.710217.2262753l.535228-.02487c-1.977573.0904908-3.953188.1964024-5.926692.3176531l5.391464-.2927831c-2.106757.0993836-4.211276.2162665-6.31337.3505497l.921906-.0577666c-2.076085.1275532-4.149833.2720815-6.221061.4334894l5.299155-.3757228c-2.073426.1324518-4.144492.2818326-6.213016.448047l.913861-.0723242c-2.130174.1660015-4.257683.3498571-6.382329.5514629l5.468468-.4791387c-1.926226.1547801-3.850248.3241575-5.771919.5080554l.303451-.0289167c-1.91222.1814488-3.822121.3772759-5.729558.5874056l5.426107-.5584889c-1.996252.191035-3.989968.3977394-5.980983.620027l.554876-.0615381c-1.964978.2164685-3.927341.4481155-5.886932.6948582l5.332056-.6333201c-2.10639.2351688-4.209758.4877792-6.30991.7577292l.977854-.1244091c-2.094514.2637316-4.185862.5447092-6.273851.842832l5.295997-.7184229c-1.999609.2570264-3.996301.529772-5.98991.8181486l.693913-.0997257c-3.900238.5568752-7.788755 1.173573-11.664299 1.8494348-.291311.0508023-.582502.1019304-.873619.1533924l.873619-.1533924c-1.997722.3483858-3.991997.7124918-5.982653 1.0922281l5.109034-.9388357c-2.066868.3653698-4.130016.7475698-6.189252 1.1465002l1.080218-.2076645c-2.079204.3966277-4.154459.8103069-6.225571 1.240935l5.145353-1.0332705c-1.94928.3776287-3.895055.7702487-5.837163 1.1777752l.69181-.1445047c-1.906503.3964025-3.809494.8071667-5.708821 1.2322124l5.017011-1.0877077c-1.857386.3897485-3.711418.7931312-5.561955 1.210074l.544944-.1223663c-1.909511.4273248-3.815318.8690848-5.717267 1.3251985l5.172323-1.2028322c-2.057791.4636388-4.11126.9440451-6.160213 1.4411168l.98789-.2382846c-2.035116.4880491-4.065814.9925323-6.091904 1.5133497l5.104014-1.2750651c-1.974922.4791118-3.945648.9737064-5.912004 1.4836924l.80799-.2086273c-2.038457.5239965-4.07225 1.0645273-6.101185 1.6214907l5.293195-1.4128634c-1.837163.476479-3.670511.9663933-5.499903 1.4696685l.206708-.0568051c-1.817567.498941-3.631236 1.0110692-5.440867 1.5363115l5.234159-1.4795064c-1.957336.538473-3.910142 1.0922411-5.858245 1.6612129l.624086-.1817065c-1.895068.5500403-3.785708 1.1144622-5.67176 1.6931818l5.047674-1.5114753c-2.030927.5931616-4.056743 1.2028472-6.07725 1.8289535l1.029576-.3174782c-1.998633.6132638-3.992114 1.2425838-5.980252 1.8878598l4.950676-1.5703816c-1.938205.6006026-3.871525 1.2163156-5.799786 1.8470466l.84911-.276665c-1.879323.609958-3.753873 1.234173-5.623489 1.872561l4.774379-1.595896c-1.757718.574947-3.511232 1.162374-5.260411 1.76221l.486032-.166314c-1.839436.628082-3.674096 1.269884-5.503827 1.925324l5.017795-1.75901c-1.981716.67958-3.957869 1.37509-5.928266 2.086428l.910471-.327418c-1.935102.693185-3.86469 1.401625-5.788584 2.125224l4.878113-1.797806c-1.93437.698332-3.863193 1.41192-5.786287 2.140668l.908174-.342862c-1.975182.74289-3.944362 1.501758-5.907345 2.276501l4.999171-1.933639c-1.832077.694257-3.658954 1.402273-5.480475 2.123966l.481304-.190327c-1.806262.71289-3.607277 1.439221-5.402892 2.178915l4.921588-1.988588c-1.793815.710716-3.582436 1.434695-5.365713 2.17186l.444125-.183272c-1.788503.736764-3.571649 1.486784-5.349287 2.249981l4.905162-2.066709c-1.956533.808786-3.906634 1.633443-5.850105 2.473869l.944943-.40716c-1.928289.827876-3.850097 1.671258-5.765231 2.530044l4.820288-2.122884c-1.856775.802935-3.707499 1.620263-5.551998 2.451894l.73171-.32901c-1.912524.857615-3.818392 1.730593-5.717414 2.618832l4.985704-2.289822c-1.720377.775667-3.43534 1.563777-5.144748 2.364256l.159044-.074434c-1.691012.790946-3.376595 1.593994-5.056614 2.409072l4.89757-2.334638c-1.856229.869232-3.705909 1.753049-5.54886 2.651356l.65129-.316718c-1.804391.875418-3.602362 1.764714-5.393747 2.667799l4.742457-2.351081c-1.879983.916358-3.752964 1.847795-5.618752 2.794211l.876295-.44313c-1.860901.938129-3.714693 1.891139-5.561189 2.858931l4.684894-2.415801c-1.802375.914249-3.598038 1.842476-5.386818 2.784592l.701924-.368791c-1.757423.921105-3.508236 1.855601-5.252278 2.803402l4.550354-2.434611c-1.660478.874541-3.315024 1.76105-4.963503 2.659454l.413149-.224843c-1.722549.93612-3.438493 1.885218-5.147675 2.847214l4.734526-2.622371c-1.833026.998981-3.658549 2.01267-5.476381 3.040967l.741855-.418596c-1.791823 1.00851-3.576215 2.031193-5.352997 3.067957l4.611142-2.649361c-1.790503 1.012838-3.573544 2.039849-5.348943 3.080938l.737801-.431577c-1.8216 1.062916-3.635201 2.14063-5.440608 3.233043l4.702807-2.801466c-1.67866.984362-3.350488 1.98131-5.015332 2.990764l.312525-.189298c-1.58145.9569-3.156613 1.925078-4.725359 2.904464l4.412834-2.715166c-1.72285 1.044625-3.43822 2.102642-5.145943 3.173964l.733109-.458798c-1.723999 1.076313-3.440247 2.166162-5.148573 3.269458l4.415464-2.81066c-1.769207 1.109893-3.530206 2.234066-5.282808 3.372419l.867344-.561759c-1.75452 1.13313-3.500683 2.280443-5.238301 3.441842l4.370957-2.880083c-1.703523 1.106475-3.399113 2.226348-5.086598 3.359528l.715641-.479445c-72.271793 48.305398-129.76214 120.977002-158.992505 210.938815-29.154696 89.728927-25.454423 182.067022 4.407869 263.472908.110366.300862.221168.601788.332328.902565l-.332328-.902565c1.374324 3.746465 2.804059 7.469775 4.288554 11.16861.095593.238183.191465.476395.287565.714505l-.287565-.714505c.753416 1.877245 1.520937 3.748185 2.302477 5.612649l-2.014912-4.898144c.784637 1.944134 1.584417 3.881471 2.399244 5.81182l-.384332-.913676c.802033 1.913353 1.618831 3.819885 2.450301 5.71941l-2.065969-4.805734c.788375 1.86768 1.590835 3.728819 2.407295 5.583241l-.341326-.777507c.799135 1.825653 1.611823 3.644834 2.437983 5.457376l-2.096657-4.679869c.754015 1.71259 1.519971 3.419451 2.297799 5.120447l-.201142-.440578c.803894 1.763693 1.620544 3.521101 2.449874 5.272071l-2.248732-4.831493c.874867 1.913208 1.764754 3.818995 2.669565 5.717166l-.420833-.885673c.893075 1.885558 1.800855 3.76365 2.723245 5.634086l-2.302412-4.748413c.877638 1.841166 1.769316 3.675168 2.674946 5.501826l-.372534-.753413c.914623 1.854687 1.84361 3.701846 2.786871 5.541291l-2.414337-4.787878c.892846 1.800872 1.799254 3.594608 2.719138 5.381036l-.304801-.593158c.870536 1.697625 1.753229 3.388681 2.648007 5.07302l-2.343206-4.479862c.880552 1.710042 1.773452 3.413388 2.678628 5.109888l-.335422-.630026c.93755 1.764855 1.888369 3.522337 2.852372 5.272277l-2.51695-4.642251c.980801 1.83824 1.976014 3.668442 2.985545 5.490417l-.468595-.848166c1.00191 1.818754 2.018063 3.629361 3.048365 5.431634l-2.57977-4.583468c.991677 1.789752 1.99717 3.571565 3.01639 5.345259l-.43662-.761791c1.967864 3.442318 3.987343 6.854231 6.05779 10.234425.131741.21508.263723.430086.39591.644964l-.39591-.644964c1.037343 1.693558 2.087481 3.379155 3.150331 5.056624l-2.754421-4.41166c1.093499 1.777535 2.201115 3.546255 3.322752 5.305967l-.568331-.894307c1.130606 1.784406 2.275596 3.559616 3.434873 5.32543l-2.866542-4.431123c1.073819 1.684692 2.16049 3.361127 3.25993 5.029139l-.393388-.598016c2.152803 3.279155 4.354872 6.525908 6.605579 9.738987.164286.234531.328627.468594.493226.702477l-.493226-.702477c1.172258 1.673498 2.357709 3.337862 3.556265 4.99291l-3.063039-4.290433c1.189823 1.690648 2.39314 3.371918 3.60986 5.043624l-.546821-.753191c1.222331 1.687877 2.458292 3.366065 3.707788 5.034375l-3.160967-4.281184c1.167265 1.603758 2.346865 3.198713 3.538718 4.784702l-.377751-.503518c1.183189 1.579776 2.378515 3.150694 3.585899 4.712591l-3.208148-4.209073c1.145804 1.524709 2.302932 3.041131 3.471313 4.54912l-.263165-.340047c1.187148 1.535721 2.385953 3.062722 3.596338 4.580847l-3.333173-4.2408c1.28065 1.65289 2.574819 3.295648 3.882412 4.928081l-.549239-.687281c1.288825 1.616509 2.59078 3.222955 3.905773 4.819153l-3.356534-4.131872c1.282571 1.601195 2.578058 3.192456 3.88637 4.773603l-.529836-.641731c1.318647 1.600633 2.650403 3.19096 3.995178 4.770795l-3.465342-4.129064c1.271621 1.536805 2.555359 3.064054 3.851131 4.58158l-.385789-.452516c1.231245 1.44646 2.473402 2.884124 3.726401 4.312848l-3.340612-3.860332c1.258765 1.474187 2.528886 2.939198 3.810287 4.394881l-.469675-.534549c1.325274 1.511135 2.662676 3.01227 4.012122 4.503233l-3.542447-3.968684c1.380507 1.568268 2.774108 3.125709 4.180707 4.672132l-.63826-.703448c1.405635 1.553045 2.824338 3.095054 4.256015 4.625835l-3.617755-3.922387c1.354439 1.48908 2.720932 2.967943 4.099392 4.436419 1.345078 1.432915 2.701552 2.85594 4.069343 4.268917 1.200108 1.239756 2.409108 2.471957 3.626769 3.696312l-3.626769-3.696312c1.403764 1.450138 2.819448 2.889692 4.246967 4.318491l-.620198-.622179c1.441231 1.449154 2.894597 2.887317 4.360009 4.314312l-3.739811-3.692133c1.464924 1.466237 2.942312 2.921147 4.432072 4.364546l-.692261-.672413c1.497948 1.458678 3.008484 2.905685 4.531513 4.340833l-3.839252-3.66842c1.468638 1.422934 2.949299 2.83468 4.441897 4.23506l-.602645-.56664c1.516096 1.428615 3.044572 2.845478 4.585336 4.250401l-3.982691-3.683761c1.348469 1.265157 2.706679 2.521037 4.074567 3.76751l-.091876-.083749c1.389539 1.267031 2.789072 2.524352 4.198531 3.771824l-4.106655-3.688075c1.574987 1.435188 3.162802 2.857905 4.763348 4.267951l-.656693-.579876c1.557033 1.378087 3.126179 2.744154 4.707347 4.098019l-4.050654-3.518143c1.542958 1.359311 3.097746 2.706845 4.664277 4.042425l-.613623-.524282c1.576608 1.349959 3.165168 2.687785 4.76559 4.013294l-4.151967-3.489012c1.551332 1.322622 3.114179 2.633519 4.688457 3.932518l-.53649-.443506c1.544127 1.278885 3.099296 2.546303 4.665425 3.802091l-4.128935-3.358585c1.469957 1.212921 2.94988 2.415468 4.439698 3.6075l-.310763-.248915c1.505111 1.206861 3.020345 2.40298 4.54563 3.588211l-4.234867-3.339296c1.673419 1.338934 3.359322 2.664603 5.057611 3.976804l-.822744-.637508c1.664056 1.293063 3.340074 2.573167 5.027961 3.840121l-4.205217-3.202613c1.62321 1.25419 3.257734 2.496078 4.903486 3.725488l-.698269-.522875c1.690256 1.268732 3.392414 2.524277 5.10638 3.766445l-4.408111-3.24357c1.612618 1.204658 3.236016 2.397336 4.870113 3.577868l-.462002-.334298c1.557434 1.128724 3.124617 2.246402 4.701479 3.352891l-4.239477-3.018593c1.60257 1.157756 3.21543 2.30383 4.838503 3.438068l-.599026-.419475c1.662643 1.166683 3.336047 2.320926 5.020129 3.462562l-4.421103-3.043087c1.745742 1.219962 3.503299 2.42623 5.272576 3.618611l-.851473-.575524c1.747236 1.184448 3.505965 2.355326 5.276094 3.512445l-4.424621-2.936921c1.720503 1.159511 3.452088 2.30589 5.194668 3.438959l-.770047-.502038c1.782028 1.164898 3.575611 2.315851 5.380653 3.45267l-4.610606-2.950632c1.621381 1.054263 3.252281 2.097003 4.892628 3.128077 1.508676.948313 3.025878 1.887083 4.551022 2.815866l-4.551022-2.815866c1.772717 1.114278 3.556467 2.21493 5.351161 3.301778l-.800139-.485912c1.787454 1.088526 3.585818 2.163334 5.395002 3.224245l-4.594863-2.738333c1.820129 1.10225 3.651515 2.1903 5.494064 3.263962l-.899201-.525629c1.847576 1.083424 3.706436 2.152354 5.576486 3.206601l-4.677285-2.680972c1.780334 1.03741 3.571091 2.061386 5.372186 3.071759l-.694901-.390787c1.806473 1.018404 3.623388 2.023106 5.450659 3.013932l-4.755758-2.623145c1.670723.937237 3.350341 1.862769 5.038788 2.77646l-.28303-.153315c1.742703.944969 3.494826 1.877318 5.256296 2.796896l-4.973266-2.643581c1.900162 1.028259 3.811505 2.041521 5.733934 3.039594l-.760668-.396013c1.852926.967323 3.716193 1.920515 5.589717 2.859402l-4.829049-2.463389c1.914353.993879 3.839698 1.972695 5.775942 2.936257l-.946893-.472868c1.948515.976468 3.908123 1.937463 5.878728 2.882788l-4.931835-2.40992c1.834509.912934 3.678802 1.812175 5.532797 2.69756l-.600962-.28764c1.817219.871744 3.643788 1.730163 5.479633 2.575104l-4.878671-2.287464c1.789872.854764 3.588787 1.696613 5.396674 2.525402l-.518003-.237938c1.840927.84728 3.691181 1.681006 5.550686 2.501025l-5.032683-2.263087c2.009629.921274 4.030344 1.82641 6.062043 2.715208l-1.02936-.452121c1.981621.873871 3.973748 1.732174 5.976287 2.574722l-4.946927-2.122601c1.961854.858243 3.93395 1.701251 5.9162 2.528843l-.969273-.406242c2.050745.862831 4.112409 1.709138 6.184893 2.538721l-5.21562-2.132479c1.814272.757461 3.63705 1.502009 5.468265 2.233505l-.252645-.101026c1.828497.731919 3.665417 1.45082 5.510691 2.156565l-5.258046-2.055539c1.975745.789229 3.961312 1.563265 5.956614 2.321933l-.698568-.266394c1.96528.751642 3.940037 1.488361 5.924187 2.20999l-5.225619-1.943596c2.063427.784571 4.137266 1.552706 6.221422 2.304214l-.995803-.360618c2.080496.756669 4.171319 1.496747 6.272376 2.220041l-5.276573-1.859423c2.008578.724255 4.026737 1.433067 6.054393 2.126262l-.77782-.266839c2.113486.727572 4.237326 1.438162 6.371424 2.131572 38.743014 12.588369 78.079069 18.609123 116.849846 18.67036l6.116836-.039768c10.201176-.148742 20.358858-.709173 30.451843-1.670164-5.513713-1.288473-11.003467-2.820554-16.462718-4.594373-143.63321-46.669259-205.991333-241.126391-143.630196-433.054235s227.108952-312.593783 370.742162-265.924524c5.020393 1.631224 9.941491 3.443001 14.76144 5.428912-37.726947-33.042298-82.480143-59.067441-132.976016-75.474545l-5.548179-1.7566722c-.302665-.093328-.605363-.186258-.908094-.2787904-1.771468-.5414685-3.544456-1.0694421-5.318437-1.5838509l5.318437 1.5838509c-2.110776-.6451791-4.223117-1.2710264-6.336836-1.8776397l1.018399.2937888c-2.125931-.6164655-4.253287-1.21345-6.381879-1.7910531l5.36348 1.4972643c-2.04686-.5874256-4.095013-1.1568147-6.144288-1.7082563l.780808.210992c-1.990161-.5400394-3.981401-1.0631363-5.973566-1.5693723l5.192758 1.3583803c-1.913676-.514953-3.82833-1.0142549-5.743827-1.4979783l.551069.139598c-2.021207-.5136158-4.043366-1.0098754-6.066314-1.4888639l5.515245 1.3492659c-2.120118-.5353968-4.241267-1.0517088-6.363259-1.5490343l.848014.1997684c-2.073664-.4909967-4.148157-.9638454-6.223306-1.4186377l5.375292 1.2188693c-2.138414-.5011741-4.277685-.9830665-6.417622-1.4457778l1.04233.2269085c-2.176677-.4770434-4.354075-.9342203-6.531993-1.3716365l5.489663 1.144728c-1.899583-.4107403-3.79969-.8063663-5.700188-1.1869482l.210525.0422202c-1.90787-.3831793-3.816138-.7511945-5.72467-1.1041167l5.514145 1.0618965c-2.085539-.4176372-4.17155-.8171581-6.257854-1.1986555l.743709.136759c-2.046923-.3785131-4.094149-.739665-6.141511-1.0835432l5.397802.9467842c-2.127792-.3890839-4.25589-.7594203-6.384105-1.1111078l.986303.1643236c-2.134974-.3585938-4.270096-.698404-6.405177-1.01953l5.418874.8552064c-2.06997-.3420624-4.140051-.6664827-6.210072-.9733514l.791198.118145c-2.072078-.3116501-4.144117-.6057024-6.215944-.8822478l5.424746.7641028c-1.905772-.2825198-3.811492-.5501629-5.717025-.803l.292279.0388972c-1.944111-.259498-3.888035-.503581-5.83163-.732324l5.539351.6934268c-2.157549-.2862759-4.31486-.5535705-6.471736-.8019864l.932385.1085596c-2.097591-.2468671-4.194798-.475867-6.291441-.6870942l5.359056.5785346c-2.100264-.2418958-4.200117-.4658909-6.299378-.6720801l.940322.0935455c-2.14696-.2162963-4.293328-.4139566-6.438912-.5930822l5.49859.4995367c-1.993309-.1957826-3.986084-.3755113-5.97817-.5392672l.47958.0397305c-1.998972-.1668856-3.997263-.317683-5.994716-.4524741l5.515136.4127436c-1.982793-.1629919-3.964903-.3101597-5.946178-.4415834l.431042.0288398c-1.961045-.1323343-3.921284-.2492404-5.880567-.3507961l5.449525.3219563c-2.168063-.1438138-4.335126-.2687749-6.50099-.3749882l1.051465.0530319c-2.120134-.109893-4.239149-.2018116-6.35686-.2758541l5.305395.2228222c-2.085127-.102254-4.169142-.1871319-6.251869-.2547271l.946474.0319049c-2.154896-.0753426-4.30844-.1321757-6.460437-.170603l5.513963.1386981c-1.884915-.0611752-3.768775-.1081948-5.651446-.1411281l.137483.00243c-1.855754-.0331375-3.710357-.0525877-5.563682-.0584172l5.426199.0559872c-2.115502-.0370062-4.229504-.0562265-6.341818-.0577593zm-116.333522 360.8212287c-59.30193 182.512575-.745518 365.114477 130.789406 407.852765 31.632002 10.277861 64.603917 11.531106 97.266694 4.96755 70.489232-23.85122 134.015608-67.836652 181.997228-127.443443 27.456712-37.400069 50.320279-81.49881 66.27677-130.607841 15.528134-47.790682 22.97534-95.587488 23.147374-140.877762-3.240177-78.693276-29.560325-153.816435-74.282619-215.91688-22.189406-23.462536-48.931049-41.075579-79.65416-51.058123-131.534925-42.738288-286.238762 70.57116-345.540693 253.083734zm300.513644-79.607933c60.746758 19.737818 97.094381 80.923027 96.067496 148.860299.305951 19.709629-2.624964 40.095593-9.132911 60.238507-23.193661 71.787294-84.96691 119.252353-148.546088 117.815861-14.183457.310274-28.502682-1.693071-42.573864-6.265075-77.353457-25.133662-115.144054-117.473694-86.580744-205.382524s113.412655-140.400729 190.766111-115.267068zm-161.773326 127.900626c-24.336502 75.324532 7.349715 153.187504 70.773147 173.911814 9.670189 3.159842 19.519847 4.808929 29.355703 5.067507 54.973358-1.447565 108.44006-43.77265 129.20409-107.677763 5.487563-16.888984 8.24129-33.901143 8.517653-50.409792-.986305-55.431466-30.835143-104.033072-78.947174-119.754213-63.423432-20.72431-134.566916 23.537915-158.903419 98.862447zm-277.445873-339.241264-2.494432.091008c-90.000827 3.654219-177.1590255 73.542137-211.2614055 178.498471-34.84467 107.240867-3.357578 217.420074 70.6628965 272.158196l-.01212.004117c-22.981945-78.654211-23.279351-165.330412 4.15654-249.769401 26.797968-82.475666 76.255965-151.126102 138.948521-200.982391z"/></svg>