<svg height="960" viewBox="0 0 960 960" width="960" xmlns="http://www.w3.org/2000/svg"><g fill="#000" fill-rule="evenodd"><path d="m539.917476 3.67494086c27.798337-2.77514606 55.86522-.87135952 83.034178 5.63223748l133.013729 31.84029776c31.042937 7.4309349 52.936859 35.1842713 52.936859 67.1042139v689.570991c0 59.727482-43.581095 110.520068-102.615114 119.595133l-224.971533 34.583982c-64.892157 9.975614-131.28447 1.005946-191.203114-25.831732l-67.260851-30.126266c-43.524869-19.494874-71.53862-62.737691-71.53862-110.429035v-696.0776567c0-26.7183991 20.248202-49.088656 46.834446-51.7427971zm-323.582529 840.48713914.342688.326684c6.498955 6.143431 14.075284 11.264984 22.524864 15.049568l67.260851 30.126266c52.890064 23.689563 111.494423 31.60707 168.774596 22.801617l224.971534-34.583982c17.116756-2.631291 32.292853-10.501686 43.998262-21.827979-9.45716 5.171213-19.969505 8.840688-31.209906 10.649891l-1.381008.212362-235.258551 34.492079c-61.102086 8.958391-123.602284 1.073542-180.158946-22.713482l-1.712011-.725685-70.336412-30.04621c-2.681484-1.145473-5.288423-2.401523-7.815961-3.761129zm-25.021937-722.744697v664.19738c0 .07973.000117.159442.000351.239136 6.129827 18.823433 20.407431 34.743688 39.892211 43.329141l.802075.348006 70.336412 30.04621c53.075004 22.672506 111.845658 30.403454 169.370185 22.293487l1.742779-.250606 235.258552-34.49208c29.1758-4.277566 52.146028-24.162262 60.188122-49.75871l-.000897-668.439784c-.917403.442673-1.917342.751033-2.977319.897029l-.277812.034379-323.5404 35.536667c-46.007933 5.053368-92.55396 1.186842-137.089458-11.382642l-1.435928-.408486zm0-22.7589995.000485 2.7049605c1.151344-.120536 2.34166-.041677 3.524214.262485l.270123.073452 113.9863 32.681852c42.000109 12.042161 85.923094 15.874917 129.36537 11.293677l1.464161-.157611 323.540401-35.536667c1.936733-.212725 3.804936.142644 5.438396.932793l-.000218-2.661635c0-.687182-.024143-1.369768-.071709-2.046848-.897557.424739-1.872837.720881-2.905052.863054l-.277812.034379-323.5404 35.536667c-46.007933 5.053368-92.55396 1.186841-137.089458-11.382643l-1.435928-.408486zm422.326678-50.4502116c-22.821924-5.4630214-46.398105-7.0622021-69.748709-4.7310794l-341.77002 34.1193683c-1.943395.1940118-3.740037.844535-5.287907 1.8388568l112.26108 32.1871194c42.000109 12.042161 85.923094 15.874916 129.36537 11.293676l1.464161-.15761 320.314146-35.1829946c-3.663731-3.6058762-8.309836-6.2644364-13.584392-7.5270387z" fill-rule="nonzero"/><path d="m379.756456 88.1261161c92.305322-8.9164262 141.841531-13.9926007 151.303198-14.8417236 14.414337-1.2935927 69.632698-2.3673557 77.9577 2.5521414 8.325002 4.9194972-8.752644 8.9518917-36.01392 11.9048712-27.261277 2.9529795-137.368291 13.2431129-152.626806 15.0701829s-43.671271 3.220753-62.910453-3.2938986c-12.126542-4.1062137.619023-9.2981926 22.290281-11.3915733z"/></g></svg>