<svg height="960" viewBox="0 0 960 960" width="960" xmlns="http://www.w3.org/2000/svg"><path d="m395.350898 16.0120218 96.266564 84.4980712 73.898754-39.7763146c14.438177-7.7716774 32.139481-5.9383566 44.672698 4.5817877l.382046.3247577 99.633014 85.7663662c7.376186 6.34959 12.184283 15.170686 13.52357 24.810796l18.287918 131.638607 85.064385 79.209332c6.471412 6.025975 10.759632 14.022475 12.203175 22.735502l.090104.569244 17.708937 117.342834c1.885353 12.492717-2.242229 25.141809-11.133216 34.118049l-80.826516 81.601544c-13.98025 14.114303-36.200762 15.829454-52.181407 4.027764l-115.994996-85.662183c-9.469258-6.993037-15.377478-17.802073-16.151039-29.548179l-7.750427-117.682907-72.681-57.537-61.066 39.048 13.197 128.051 112.482029 84.443171c8.861241 6.65234 14.559335 16.676619 15.752014 27.676062l.055873.550774 16.08293 170.243626c1.13336 11.997032-3.202246 23.865686-11.801817 32.307288l-104.183088 102.269314c-13.226925 12.983955-33.641055 15.180596-49.327453 5.307828l-142.523605-89.702073c-10.670566-6.715883-17.550179-18.069631-18.563919-30.636906l-13.521964-167.625084-126.117067-85.225425c-10.20545-6.896523-16.655976-18.103459-17.507495-30.371017l-.033929-.541893-10.284343-184.250219c-.785858-14.079119 5.899438-27.531923 17.595835-35.408055l102.584999-69.079391-9.30025-146.10978c-.999435-15.7001456 7.295627-30.511797 21.165717-37.872572l.426332-.2229955 115.161524-59.3620553c14.616713-7.53444465 32.355343-5.35557015 44.714113 5.4923316zm41.288022 718.9830522-117.34465 94.013456 133.567255 84.065563 96.950745-95.170563zm-29.92765-170.855544-105.374778 80.396522c-1.583892 1.208434-3.412984 1.871159-5.261518 2.01853l13.291296 164.781948 116.39-93.251zm18.893-10.18 20.156 162.925 110.026 80.603-14.824586-156.926377zm-136.868465-92.490585-126.574535 85.165585 124.821635 84.350751c.592293-.876287 1.334802-1.672798 2.222188-2.349831l108.850712-83.048505zm440.843465 23.610585-99.888 51.175 107.012154 79.029076 73.677846-74.385076zm-451.720947-187.882394 20.602947 146.520394 114.624 88.199-15.078591-146.31c-2.445992.252467-4.989527-.391223-7.097394-2.002298zm-22.522053-16.537606-112.395808 75.685789 9.635808 172.633211 125.777-84.63zm461.191 58.119 22.93 128.816 76.024 52.518-15.660266-103.773302zm-19.231 6.085-79.653655 57.470331c-1.580672 1.140439-3.382 1.752442-5.193402 1.870076l7.543057 114.547593 99.209158-50.827273zm-91.674-89.659-94.47 59.349 92.796956 73.461999c.559586-.706077 1.224676-1.347716 1.991382-1.900887l82.308769-59.385555zm-214.33-38.578-108.432 59.221 120.194101 91.866551c.955482.73029 1.742658 1.599134 2.354893 2.556871l88.738006-56.746422zm204.8-110.671 19.817 131.702 86.354 74.749-18.155202-130.684766zm-20.972-4.966-80.200253 43.170229c.599984 1.113494.99732 2.36012 1.137754 3.695946l15.044499 143.109825 84.606124-53.151132zm-194.498-44.6830003 21.617 143.1540003 87.831998 82.745708-13.903882-132.259467c-.303649-2.88833.654214-5.618524 2.429506-7.642156zm-21.042-5.396-105.777859 54.5256193 10.057859 158.000381 118.075053-64.488437z"/></svg>