<svg height="960" viewBox="0 0 960 960" width="960" xmlns="http://www.w3.org/2000/svg"><path d="m271.496672 3.11826374c15.753873 0 31.365981 6.17253011 42.980676 18.80035716 11.885921 12.922712 17.516842 30.2380304 17.516842 50.2267989l-.000216 112.1158322c5.313505-1.238698 10.750732-2.465529 16.225841-3.661204l2.19186-.476562.948468-.204917 1.898121-.407727c29.430083-6.297323 59.193275-11.529653 76.067844-12.725804 37.928396-2.688548 119.12538 2.518727 179.829804 12.112414l-.000359-66.642822c0-17.2560116 5.636311-33.424217 15.662572-46.0191539 10.984797-13.7990448 26.926496-23.0079249 44.834947-23.0079249 15.753873 0 31.365981 6.1725301 42.980676 18.8003571 11.885921 12.9227121 17.516842 30.2380305 17.516842 50.2265147l.000631 122.447456c1.162381 1.393956 2.280493 2.817954 3.36103 4.267015 4.802332 6.440199 7.554175 14.177213 7.897166 22.203477 7.163259 167.625848 10.639935 254.059249 10.639935 265.319712 0 22.847192-12.956567 41.014122-33.498581 49.085493-3.776786 1.483976-7.25132 2.555709-11.057703 3.377885-.1891 1.270407-.373952 2.547878-.554236 3.828573l-.214127 1.538135c-2.295503 16.674569-3.797108 33.634327-3.797108 42.44247l.000162 81.562616c.000055.05778.000125.115272.00021.172533l.000698.341253c.000298.113133.000663.225802.0011.338464l.001538.338428c.011492 2.205622.052963 4.583336.168432 10.53437.357935 18.447337.26946 29.146915-.758324 42.563603-1.454348 18.985035-4.699605 36.779771-10.391884 54.013073-5.31997 16.106144-12.66233 31.266581-22.290748 45.374645-19.005762 27.848242-50.12067 51.417503-87.071323 69.626248-31.218194 15.383873-64.076744 25.488866-85.499569 25.488866h-2.518346c-27.492639 0-48.390685-1.737782-74.136128-8.283453-37.58534-9.555915-72.388178-27.652529-102.876635-56.352866-47.65476-44.859853-69.263055-110.767564-66.442488-194.878756v-73.187388c0-16.706129-1.210338-31.261063-3.533422-43.590007-8.167467-1.928029-15.33254-4.745313-21.866195-9.050649-11.381001-7.499483-18.160043-20.277968-17.990814-33.906603 1.108729-87.372567 2.198634-151.932138 3.275412-193.720104l-.00012-272.0035697c0-17.2560114 5.636311-33.4242167 15.662572-46.0191536 10.984797-13.7990449 26.926496-23.00792496 44.834947-23.00792496zm159.122858 785.02215426-.011159.05464c-11.649036 44.33783-39.236183 77.166658-73.548791 77.166658-3.720496 0-7.288069-.242854-10.708763-.72295l-1.376754-1.281811c55.619885 52.357831 120.154606 53.739081 148.746682 53.76147l3.358638.000314c14.475893 0 45.110683-9.209462 75.151798-25.110405-5.55228.843164-11.221614 1.277389-16.987184 1.277389-58.180552 0-106.561474-44.216691-124.624467-105.145305zm179.036702 27.231117h-95.619956c-4.184018 0-7.222626.235663-9.287241.668347-.751286.157447-1.301716.325872-1.670505.486084-.024656.068175-.052892.151889-.084095.252142-.299373.961862-.54743 2.409966-.890312 5.240804-.057999.478843-.266817 2.244211-.282039 2.371737-.961911 8.058977-1.676068 18.336304-2.133281 30.797976 16.379132 11.518342 35.343153 18.097098 55.555194 18.097098 17.845039 0 34.71725-5.128123 49.697481-14.25272 4.451072-10.156173 7.872851-20.497719 10.270101-31.033334 1.050695-4.617678 1.601022-7.772614 1.751462-10.079153.049506-.759024.051684-1.378869.017311-1.860128-1.411441-.425425-3.833869-.688853-7.32412-.688853zm-172.833288-289.325891c-72.633633.606209-123.689153 4.278577-155.247537 10.171943-10.230864 1.910561-17.943325 3.98092-23.173081 6.048191 1.082723.23003 2.224692.444747 3.427138.643869 4.211604.697433 9.927577 1.329846 17.149673 1.896968 8.090103 20.819778 12.135155 47.356331 12.135155 79.60966v73.210535c-1.331285 36.469727 2.336614 68.367233 11.003696 95.692517.110835.188356.21495.382853.313316.582075.394074.79812.800277 1.630947 1.232386 2.525714.121672.251948 1.461778 3.068365 2.886693 6.047849l.428885.896336c1.096747 2.290864 2.176711 4.536427 2.729046 5.654546 6.044546 12.23626 11.15582 20.001186 17.607749 25.805801 7.709411 6.935936 17.103999 10.530068 29.743517 10.530068 31.779779 0 59.543913-47.94909 59.543913-104.551198v-116.34799c0-14.539394 7.440992-32.408581 20.165338-46.172786 15.57842-16.85152 37.641201-26.678739 64.680936-26.678739 52.825988 0 115.160425 1.548805 142.900303 3.533628 11.115546.795332 19.252754 3.029402 25.177768 7.677225 1.243559-7.234276 2.665069-14.240192 4.26538-20.532592 10.016389-.693956 18.268352-1.125795 24.511475-2.367984-1.002612-.281953-2.097246-.565337-3.27946-.848592-11.667204-2.795434-30.723427-5.328587-55.732455-7.398293-51.047286-4.224591-123.648328-6.286605-202.469834-5.628751zm118.421053 70.907003c-61.978442 0-112.221897 61.859266-112.221897 138.166538 0 40.970929 14.484358 77.776735 37.49253 103.078856.39998-6.039057.881569-11.428654 1.448415-16.177746.012298-.103029.224189-1.894374.286193-2.406278.482914-3.98695.881701-6.314989 1.64878-8.779548 1.166476-3.747793 3.051573-6.886426 5.964392-9.398891 5.279636-4.553971 12.485172-6.064043 24.173866-6.064043h95.619956c12.688095 0 20.79437 2.747533 25.039306 10.905617 3.3814 6.498508 2.935415 13.336327.017581 26.159852l-.076779.332048c9.30811-11.471397 16.986411-24.947784 22.570726-39.857672 2.541771-10.094805 4.058607-20.082911 4.941691-29.67697-3.134646 16.115202-17.32482 28.280181-34.356278 28.280181h-145.51414c-19.329966 0-35-15.670034-35-35v-44.83017c0-19.329966 15.670034-35 35-35h145.51414c19.329967 0 35 15.670034 35 35l.000631 42.852273c1.026314-18.010551.134487-34.222217.134487-46.560036l.002439-11.869831c-13.675041-57.310616-56.711582-99.15418-107.686039-99.15418zm72.548482 99.731774h-145.51414l-1.533663.077443c-7.563841.76815-13.466337 7.156053-13.466337 14.922557v44.83017c0 8.284271 6.715729 15 15 15l20.709309.001062c-14.907701-3.647765-25.646382-18.567263-25.646382-35.886628 0-19.963011 14.267211-36.737603 32.741001-36.737603 18.473791 0 32.741002 16.774592 32.741002 36.737603 0 17.319365-10.738682 32.238863-25.646382 35.886628h68.441107c-14.907701-3.647765-25.646382-18.567263-25.646382-35.886628 0-19.963011 14.267211-36.737603 32.741001-36.737603 18.473791 0 32.741002 16.774592 32.741002 36.737603 0 17.319659-10.739046 32.23937-25.647141 35.886814l27.986005-.001248c8.284272 0 15-6.715729 15-15v-44.83017c0-8.284271-6.715728-15-15-15zm-117.710212 22.207001c-3.01103 0-5.909253 1.471474-8.178701 3.97127 1.422858-.706884 2.988818-1.097609 4.632878-1.097609 6.552787 0 11.86487 6.207098 11.86487 13.863942s-5.312083 13.863942-11.86487 13.863942c-1.643676 0-3.209288-.390543-4.632581-1.096547 2.269921 2.499124 5.167774 3.970207 8.178404 3.970207 6.645226 0 12.741002-7.167073 12.741002-16.737602 0-9.57053-6.095776-16.737603-12.741002-16.737603zm82.630346 0c-3.01103 0-5.909253 1.471474-8.178701 3.97127 1.423364-.70701 2.989084-1.097609 4.632878-1.097609 6.552787 0 11.86487 6.207098 11.86487 13.863942s-5.312083 13.863942-11.86487 13.863942c-1.643022 0-3.208043-.390233-4.630883-1.095705 2.268223 2.498282 5.166076 3.969365 8.176706 3.969365 6.645226 0 12.741002-7.167073 12.741002-16.737602 0-9.57053-6.095776-16.737603-12.741002-16.737603zm-67.11772-104.312422 64.427169.609445 2.934063.171623c14.476872 1.564138 25.867558 13.544483 25.867558 28.105576 0 15.531832-12.960069 28.127347-28.801621 28.277199l-64.427169.609444c-15.938347.150768-28.804043-12.813048-28.804043-28.886643 0-16.073596 12.865696-29.037412 28.804043-28.886644zm-24.145126-42.967997c-21.413461 0-38.169626 7.463542-49.994936 20.25524-9.406011 10.17469-14.851338 23.251383-14.851338 32.596285l-.000605 40.668697c21.405126-52.000244 66.014062-88.178578 118.641109-88.178578 44.853791 0 83.883167 26.280213 107.686452 66.237696l-.002852-16.425704c0-2.637006.162164-6.680502.48771-11.688533-.272352-18.744118-1.341989-27.748318-3.748164-33.003794-2.042562-4.461287-5.606161-6.181722-16.74445-6.978681-20.925221-1.497226-62.442544-2.753574-104.351582-3.252291l-3.266078-.037319-3.26554-.034197c-10.337783-.103293-20.635522-.158821-30.589726-.158821zm23.955945 62.967102c-4.741859-.044855-8.614862 3.857686-8.614862 8.887539 0 5.029852 3.873003 8.932393 8.614862 8.887538l64.427169-.609445c5.036012-.047637 8.990802-3.891183 8.990802-8.278093s-3.95479-8.230456-8.990802-8.278094zm-132.621097-356.624374c-26.425904 1.522026-53.350433 6.99235-80.789768 16.431275l-.000657 144.447668c0 9.340215-1.781925 19.510768-5.853624 28.613966-6.097284 13.63185-16.816046 23.695051-31.989927 27.265671-9.382744 2.207887-18.430745 1.01456-25.799979-3.578244-.150963 10.837778-.302688 22.110139-.454719 33.816637 7.238142-3.309453 17.244216-6.009667 30.008038-8.393245 32.912133-6.146171 85.043725-9.89594 158.752048-10.511118 79.383312-.662543 152.56754 1.416035 204.286279 5.696193 25.940939 2.14683 45.867308 4.795652 58.742985 7.880633 5.01753 1.202188 9.085273 2.481563 12.322185 3.979368-.365423-16.437289-3.090161-84.653611-8.174673-204.644844-1.54008-1.005767-3.335243-2.051924-5.370412-3.12196-9.33262-4.90683-22.988869-9.95915-39.644264-14.707736-32.623851-9.30132-73.918851-16.630449-107.778134-19.144697-69.982565-5.196611-116.724391-6.421584-158.255378-4.029567zm-121.287943-234.8354673c-8.776802 0-20.497519 11.4453009-20.497519 29.0270786v376.1603617c-.245147 20.929821 5.944966 29.909271 18.57034 26.938348 18.938061-4.456383 22.424697-25.975616 22.424697-36.411378v-366.6873317c0-22.7953186-11.487474-28.9053461-20.233346-29.0252671zm181.541579 162.9854063-1.441795.000961c-7.624775.016174-14.206384.209162-19.442051.580291-26.30383 1.864543-85.341913 14.421467-120.161654 23.82638l.001286 42.791127c26.90389-8.696855 53.455022-13.807425 79.640564-15.315607 42.552507-2.450853 90.1031-1.204684 160.88643 4.051388 35.212347 2.614721 77.84853 10.181887 111.780736 19.856229 15.278426 4.356001 28.358026 9.007139 38.543354 13.794521-.449998-10.571938-.916369-21.509454-1.399231-32.808803-.236497-.317157-.476115-.632772-.718853-.946846-.123262-.159486-.247255-.31848-.372051-.477077l.372051.477077c-.196855-.254706-.395761-.508399-.59672-.761077l.224669.284c-.162903-.207026-.327176-.413375-.492817-.619047l.268148.335047c-.170172-.213969-.341816-.427211-.514931-.639726l.246783.304679c-.213945-.265649-.430174-.530169-.648688-.793561l.401905.488882c-.185383-.227574-.372453-.454314-.56121-.680221l.159305.191339c-.422942-.509806-.854441-1.015383-1.294499-1.516733-.076195-.086805-.152069-.172833-.228196-.258735l.228196.258735c-.195692-.222948-.393076-.44506-.592152-.666336l.363956.407601c-.20642-.232927-.414698-.464936-.624834-.696027l.260878.288426c-.244673-.271957-.491903-.542652-.741689-.812083l.480811.523657c-.194288-.213661-.390164-.426539-.587629-.638631l.106818.114974c-.157521-.169909-.316058-.339316-.475611-.508221l.368793.393247c-.351146-.37716-.707315-.751838-1.068507-1.124034-.491751-.506724-.992301-1.00835-1.502142-1.505386-.059182-.057696-.118842-.115672-.178628-.173586l.178628.173586c-.222764-.21717-.447303-.433463-.673616-.64888l.494988.475294c-.227613-.220482-.457062-.440057-.688348-.658725l.19336.183431c-.505918-.481563-1.0207-.958745-1.544346-1.431548-.058971-.053245-.118106-.106482-.177354-.159662l.177354.159662c-.236176-.213245-.474155-.425599-.713938-.637062l.536584.4774c-.258173-.231736-.518485-.462415-.780935-.692038l.244351.214638c-.212714-.187591-.426847-.374482-.642398-.560671l.398047.346033c-10.481732-9.17067-24.374195-16.656213-41.677392-22.456629l.102151.034276c-.618507-.207736-1.241378-.413315-1.868614-.616738-.400664-.12994-.802605-.258841-1.206324-.386864-.844849-.267913-1.697941-.532122-2.558822-.792483-.24209-.073217-.484914-.146165-.728355-.218808l.728355.218808c-.36159-.109358-.724554-.218037-1.088891-.326037l.360536.107229c-.294438-.087861-.589778-.175277-.88602-.262247l.525484.155018c-.409882-.1215-.821503-.242142-1.234863-.361924l.709379.206906c-.33679-.098874-.674746-.197172-1.013867-.294894l.304488.087988c-.780043-.226039-1.566278-.449017-2.358707-.668937-.146443-.040642-.293088-.081176-.439945-.121607l.439945.121607c-.316177-.087747-.63334-.175007-.951489-.261781l.511544.140174c-.399727-.110046-.801021-.219318-1.203881-.327816l.692337.187642c-.44408-.12112-.890081-.241291-1.338002-.360513l.645665.172871c-.344093-.092671-.689329-.184778-1.035707-.276319l.390042.103448c-.439256-.116915-.880358-.232918-1.323309-.348008l.933267.24456c-.406804-.107511-.815184-.214243-1.225141-.320196l.291874.075636c-.333949-.086769-.668947-.173019-1.004996-.258751l.713122.183115c-.409535-.105844-.820644-.210911-1.233326-.315201l.520204.132086c-.806863-.205843-1.619779-.408696-2.438747-.608559-.398221-.097182-.797518-.193572-1.198243-.289256-.416481-.099446-.834443-.198115-1.253949-.296023-.3632-.084767-.727932-.169048-1.093823-.252757-.653352-.149475-1.31027-.297096-1.970881-.442892-.137993-.030455-.276543-.060917-.415254-.091299l.415254.091299c-.365402-.080643-.731933-.160729-1.099595-.240256l.684341.148957c-.43113-.09443-.863825-.188087-1.298085-.28097l.613744.132013c-.466517-.10091-.934854-.200922-1.40501-.300034l.791266.168021c-.479268-.10251-.960443-.204077-1.443525-.304703l.652259.136682c-.3399-.071654-.680751-.142838-1.022553-.213552l.370294.07687c-.402495-.083839-.806314-.167024-1.211456-.249555l.841162.172685c-.510604-.105637-1.023329-.210225-1.538176-.313765l.697014.14108c-.383827-.078189-.768843-.155791-1.155047-.232806l.458033.091726c-.462371-.092987-.926453-.185128-1.392246-.276423l.934213.184697c-.413233-.082405-.827827-.164138-1.243781-.245199l.309568.060502c-.37272-.073053-.746535-.145565-1.121447-.217535l.811879.157033c-1.765184-.343998-3.554865-.675892-5.369044-.995682-53.081983-9.356906-120.868271-14.143469-161.092079-14.174192zm216.614821-122.8761188c-8.776802 0-20.497519 11.4453008-20.497519 29.0270788l.000901 95.707876c15.763234 4.753482 29.443937 10.764422 40.995604 18.104372l-.001468-113.812248c0-23.0255746-11.720717-29.0270788-20.497518-29.0270788z"/></svg>