<svg id="HomeConnect7" data-name="Layer 1" xmlns="http://www.w3.org/2000/svg" viewBox="0 0 246.14 255.2"><title>HomeConnect7</title><path d="M243,88.44H157.7V1.56A1.56,1.56,0,0,0,156.14,0H90a1.56,1.56,0,0,0-1.56,1.56V88.44H3.12A3.12,3.12,0,0,0,0,91.56V213.85a3.06,3.06,0,0,0,1.2,2.4v.2h.29a3,3,0,0,0,1.63.52H4v10a3.12,3.12,0,0,0,3.12,3.12H55.21l3,4.57a1.56,1.56,0,0,0,1.31.71H186.66a1.56,1.56,0,0,0,1.31-.71l3-4.57h48.14a3.12,3.12,0,0,0,3.12-3.12V217H243a3.12,3.12,0,0,0,3.12-3.12V91.56A3.12,3.12,0,0,0,243,88.44ZM91.56,3.12h63V88.44h-63ZM239.91,94.68V201.19H6.23V94.68Zm-181,135.45h19l1,2.16H60.34Zm105.87,0-1,2.16H153.67l.92-2.16Zm-74,0,.92,2.16H82.35l-1-2.16Zm32.23,2.16H95.14l-.92-2.16h57l-.92,2.16Zm62.74,0H167.23l1-2.16h19ZM10.19,223.9v-7.46H236v7.46Z"/></svg>
