<svg height="960" viewBox="0 0 960 960" width="960" xmlns="http://www.w3.org/2000/svg"><path d="m480 81c218.704761 0 396 177.20324 396 395.794515s-177.295239 395.794515-396 395.794515c-64.563659 0-125.518542-15.442992-179.368712-42.834855l-165.506019 47.632428c-30.533101 8.788893-58.6360187-19.79773-49.3070658-50.155738l48.3756698-157.429046c-31.969883-57.097688-50.193873-122.92538-50.193873-193.007304 0-218.591275 177.295239-395.794515 396-395.794515zm50.267579 440.769378h-184.148908c-15.463973 0-28 12.529522-28 27.985471s12.536027 27.985471 28 27.985471h184.148908c15.463973 0 28-12.529522 28-27.985471s-12.536027-27.985471-28-27.985471zm-184.148908-143.247033c-15.463973 0-28 12.529522-28 27.985471s12.536027 27.985471 28 27.985471h267.727839c15.463973 0 28-12.529522 28-27.985471s-12.536027-27.985471-28-27.985471z" fill-rule="evenodd"/></svg>