<svg height="960" viewBox="0 0 960 960" width="960" xmlns="http://www.w3.org/2000/svg"><path d="m206.460217-.4003595c2.390546 0 4.834582.0998988 7.339326.29325792.367384.028361.734359.06179712 1.100819.10029878l15.676201 1.64700007c.288502.0303111.576665.06375974.86444.10033997 1.819204.23124687 3.487082.43566502 4.991549.61146792l644.40694 43.07711224c.97672.0652915 1.950715.1664151 2.920016.3031667 28.887149 4.0754766 50.875432 28.3080131 51.869655 57.5650499.023076.452673.023076.905575.023076 1.35851l-.000675 618.663797 4.519141 145.4753.011478.447008c.231324 12.54185-7.150736 23.642522-18.118641 28.536221-9.378559 11.484262-22.987118 19.492179-38.76986 21.529993-.948615.122482-1.901318.210899-2.856272.265081l-623.739909 35.389684c-1.584146.152156-3.132139.232582-4.681475.251158l-50.526686 2.677098c-2.533996.17119-5.074227.254291-7.616523.254291-6.784359 0-13.558573-.595013-20.245596-1.777174l-.01511-.002674-23.884201-4.2318.007324-.041332c-31.507789-5.001659-54.8142196-32.20393-54.8142196-64.260713l-.0003832-142.898951c-31.5582397-18.225108-51.445153-51.869719-51.8790673-88.735036v-.23163-.745278-.231558-335.117361c0-34.976286 17.5812047-67.61015 46.7876982-86.849021l5.0913547-3.35426.0003976-163.0456454c0-32.2424846 24.2021696-59.33085176 56.2074056-62.97454728.103651-.01180039.207349-.02319525.311089-.03418431l.369349-.03912448c.538428-.05703471 1.077958-.10313131 1.618257-.1382613l1.143724-.07436468 45.522841-3.51126092c2.089296-.17004738 4.210159-.25165813 6.366537-.25165813zm-24.235529 41.74772-24.455124 1.88728-.362949.0280001-1.3842.09c-11.9718 1.1736001-21.101401 11.2392005-21.101401 23.270401v821.2086324c0 12.587401 9.313201 23.236201 21.785401 24.915601l23.884201 4.2318c1.559438.275684 3.125921.502727 4.69719.680885-2.227849-5.006548-3.42146-10.825824-3.526034-17.428613-.0047-.296743-.009577-2.523752-.012827-4.843526l-1.171748-836.2571014v-.0140117c0-5.7952232.238998-10.154135.869653-14.0301393.211706-1.3011488.468941-2.5464893.777838-3.7392081zm22.075692 1.5680332c-.99798.297126-1.405082.576525-1.720001 1.0127539-.528168.7316226-1.027011 2.120208-1.393123 4.3703315-.423291 2.6015479-.610017 6.0065262-.610051 10.8166653l1.17172 836.2446536c.002686 1.91707.008162 4.417357.010339 4.554831.08005 5.054331 1.078512 8.731474 2.723637 11.351693 1.228091 1.956003 2.850486 3.356097 4.885924 4.356685 1.567084.770352 3.327998 1.274156 5.14548 1.534648l-.063741-.010014 10.171747-.537781c-.927237-2.700073-1.490198-5.579379-1.626035-8.583927l-.019823-.542092c-.002186-.078247-.003453-.156517-.003802-.234803l-3.777414-848.683121c.001275.0567387.002703.1135144.004286.1703265l-.003778-.2339313-.000508.0636048c-.122446-5.4500731 1.172755-10.5597647 3.527356-15.0071867l-9.955285-1.0667567c-3.892394-.2975301-6.678359-.1090858-8.466928.4234201zm34.887118 15.2639884c0 .0779597.007702.1559422.008049.2339313l3.776021 848.5476816c.109689 3.543459 1.922632 6.594085 4.594046 8.433513l3.135006-.166833c.073799 0 .147599.0018.221399.0018.8406 0 1.6884-.0378 2.5452-.1476l216.719345-12.297234v-840.5870005l-218.233571-14.7628627c-.121497-.0082194-.242824-.0186567-.36392-.0313056l-.362533-.0445752c-6.4692-.9156425-12.218158 4.2365824-12.039042 10.8204851zm250.999066 5.3712584v838.0990005l207.5-11.773v-812.2890005zm227.5 15.39v809.8010005l160.484975-9.104168c10.21413-1.318814 17.66277-10.102605 17.489565-20.362277l-.008865-.350324v-754.269028c-.179577-5.2844244-2.425527-10.0883093-5.979624-13.607978-.71032-.2852078-1.460248-.4960813-2.240826-.6223481zm-344.069926 783.9414995c.284653 5.515507-3.955792 10.217465-9.471299 10.502118l-22.909143 1.18233c-5.515507.284653-10.217465-3.955792-10.502118-9.471299s3.955793-10.217466 9.471299-10.502118l22.909143-1.182331c5.515507-.284652 10.217466 3.955793 10.502118 9.4713zm249-18c.284653 5.515507-3.955792 10.217465-9.471299 10.502118l-22.909143 1.18233c-5.515507.284653-10.217465-3.955792-10.502118-9.471299s3.955793-10.217466 9.471299-10.502118l22.909143-1.182331c5.515507-.284652 10.217466 3.955793 10.502118 9.4713zm207-14c.284653 5.515507-3.955792 10.217465-9.471299 10.502118l-22.909143 1.18233c-5.515507.284653-10.217465-3.955792-10.502118-9.471299s3.955793-10.217466 9.471299-10.502118l22.909143-1.182331c5.515507-.284652 10.217466 3.955793 10.502118 9.4713zm-714.696074-566.491499-3.085196 2.03487c-17.9746012 11.840211-28.7938041 31.922589-28.7938041 53.446457v55.437673l7.642932.000157c8.2842713 0 15.0000001 6.715728 15.0000001 15 0 8.284271-6.7157288 15-15.0000001 15l-7.642932-.000157v18.5l7.642932.000116c8.2842713 0 15.0000001 6.715728 15.0000001 15 0 8.284271-6.7157288 15-15.0000001 15l-7.642932-.000116v18.5l7.642932.000074c8.2842713 0 15.0000001 6.715729 15.0000001 15 0 8.284272-6.7157288 15-15.0000001 15l-7.642932-.000074v18.5l7.642932.000033c8.2842713 0 15.0000001 6.715729 15.0000001 15 0 8.284272-6.7157288 15-15.0000001 15l-7.642932-.000033v18.499l7.642932.000992c8.2842713 0 15.0000001 6.715729 15.0000001 15s-6.7157288 15-15.0000001 15l-7.642932-.000992v55.680688.745278c.2664013 22.660752 12.4828892 43.363207 31.8789861 54.611418z"/></svg>