<svg height="960" viewBox="0 0 960 960" width="960" xmlns="http://www.w3.org/2000/svg"><g fill="#000" fill-rule="evenodd"><path d="m403.972746 36.8624501 482.826704 61.4398545c34.961637 4.4488794 61.163731 34.1964874 61.163731 69.4400484v630.967617c0 35.516882-26.598545 65.404607-61.875386 69.526906l-498.940855 58.304071c-15.358607 1.794741-30.919333.604171-45.826131-3.506211l-277.9281051-76.635546c-30.3607145-8.371625-51.3927039-35.987853-51.3927039-67.481616v-614.036327c0-33.486715 23.7166059-62.283284 56.5823916-68.7020217l297.2408514-58.0515861c12.567549-2.4544613 25.446948-2.8815933 38.149503-1.2651891zm-26.879792 39.9049922-.300704.0432821c-33.241247 10.133755-58.999856 39.1525556-63.207407 75.8800576-.389578 3.400607-.584843 6.820669-.584843 10.243518v632.355178c0 47.736 37.164246 86.791825 84.137371 89.81211l159.307629-18.617055 326.568587-41.564516c6.664625-.848265 12.772168-3.305339 17.952597-6.951108 4.383537-5.235464 6.996997-11.970653 6.996997-19.258939v-630.967617c0-15.104383-11.229469-27.853358-26.213028-29.760021l-482.826703-61.4398541c-7.258603-.9236595-14.603824-.8464034-21.830496.2249644zm-84.092954 718.5220357v-632.355178c0-4.183482.238657-8.363558.714808-12.519856 2.826438-24.671838 13.609681-46.497569 29.49493-63.209262l-246.9601416 48.232341c-14.0853367 2.750888-24.2495964 15.092275-24.2495964 29.443724v614.036327c0 13.497327 9.0137098 25.332853 22.0254445 28.920693l257.3877345 70.972247c-23.515454-20.174131-38.413179-50.107808-38.413179-83.521036zm118.536265-706.8678089 168.785861 19.3356019c5.04945.57845 8.861842 4.852485 8.861874 9.93496l.000178 28.498222c0 4.609878 3.483256 8.474463 8.06837 8.951652l100.526229 10.462128c4.94386.514525 9.368756-3.076161 9.883282-8.020021.032211-.309499.048348-.62046.048348-.931454l-.000407-23.090288c-.000105-5.973825 5.203192-10.61513 11.138196-9.935191l161.960407 18.554847c6.160269.705729 11.754026 3.64781 15.811152 8.196263 4.057127 4.548453 6.343426 10.440718 6.343426 16.641281v618.22046c0 6.144761-2.246002 11.99003-6.239502 16.524034-3.993499 4.534004-9.508409 7.500057-15.603994 8.275895l-468.650173 59.649207c-3.140672.39974-6.303504.600212-9.469512.600212-20.153223 0-39.065042-7.999025-53.033009-21.966991-13.967966-13.967967-21.966991-32.879785-21.966991-53.033009v-632.355178c0-2.852374.162721-5.702426.487369-8.536265 2.293777-20.022263 12.393306-37.900764 27.860295-50.188173 15.46699-12.2874086 35.166339-18.0819697 55.188601-15.7881929zm-42.747978 31.4480429c-11.354911 9.020659-18.747034 22.106426-20.430883 36.80466-.238075 2.078149-.357404 4.168187-.357404 6.259928v632.355178c0 14.794372 5.854706 28.636452 16.109127 38.890873s24.096501 16.109127 38.890873 16.109127c2.32174 0 4.641149-.147013 6.944309-.440156l468.650173-59.649206c1.226023-.156047 2.317354-.742991 3.120799-1.655179s1.2479-2.068893 1.2479-3.304807v-618.22046c0-1.247383-.452266-2.412968-1.268685-3.328256-.816419-.915289-1.922953-1.497279-3.162258-1.639256l-150.823238-17.278865.001407 11.879288c0 .751996-.029249 1.503612-.087661 2.253145l-.068128.748776c-1.657916 15.930218-15.915914 27.500205-31.846132 25.842289l-100.526229-10.462127c-14.774254-1.53761-25.998079-13.99016-25.998079-28.844148l-.000178-19.578223-159.924072-18.320589c-14.698235-1.683849-29.11673 2.557349-40.471641 11.578008zm373.890056 153.625437 69.138888 5.184632c22.355037 1.676375 40.182769 21.373311 40.182769 44.145569v148.027996c0 23.024848-18.217842 41.909981-40.862771 42.063263l-69.139377.469568c-2.316728.0155-4.585664-.172108-6.792628-.546717-1.005379.347706-2.084501.540363-3.208142.548017-22.816556.150916-40.997082-19.397297-40.997082-43.258675v-155.51569c0-24.119968 18.599145-42.848641 41.678343-41.117963.574624.043091 1.134253.133933 1.67529.268348 2.688471-.383632 5.472376-.48224 8.32471-.268348zm-248.00542-15.28609 76 5.125835c24.03031 1.620729 43.327077 22.290345 43.327077 46.396229v158.584408c0 24.338085-19.654282 44.18472-43.93904 44.332566l-76.000407.464101c-2.343923.014117-4.643541-.161654-6.885793-.51322-.978103.327178-2.025617.507734-3.114849.514413-24.438172.145634-44.059911-20.349287-44.059911-45.514187v-165.987187c0-25.402307 20.002464-45.066862 44.672923-43.402958.570986.03851 1.127534.124229 1.666092.253089 2.699436-.352994 5.48556-.445196 8.333908-.253089zm226.327077 56.404053v155.51569c0 13.10288 9.514912 23.333302 20.862771 23.257358l69.138986-.469092c11.519922-.077978 20.998243-9.903475 20.998243-22.063722v-148.027996c0-12.412838-9.868431-23.315956-21.678343-24.201565l-69.138888-5.184633c-11.085751-.831305-20.182769 8.329066-20.182769 21.17396zm-251-13.001095v165.987187c0 14.288416 10.822245 25.591995 23.93904 25.512983l76.000081-.463719c13.270524-.080791 24.060879-10.97675 24.060879-24.332937v-158.584408c0-13.588388-11.14787-25.529363-24.672923-26.441563l-76-5.125835c-12.884904-.869025-23.327077 9.396745-23.327077 23.448292z" fill-rule="nonzero"/><path d="m621 115 60.22974 6.914983v31l-60.22974-6.914983z"/></g></svg>