<svg height="960" viewBox="0 0 960 960" width="960" xmlns="http://www.w3.org/2000/svg"><path d="m850 149c59.094468 0 107 47.905532 107 107v448c0 59.094468-47.905532 107-107 107h-739.752443c-59.0944682 0-107-47.905532-107-107v-448c0-59.094468 47.9055318-107 107-107zm-685.811443 534.488h-120.941v20.512c0 36.633047 29.399983 66.399361 65.892032 66.991024l1.107968.008976h53.941zm150.941443 0h-130.942l-.000443 87.512h130.942zm150.941 0h-130.941l-.000443 87.512h130.941zm450.928557-348.198h-430.928v435.71h363.928443c36.633047 0 66.399361-29.399983 66.991024-65.892032l.008976-1.107968zm-219.074476 25.302834c107.907805 0 195.384365 87.47656 195.384365 195.384365 0 34.271714-8.82384 66.48251-24.323604 94.484471-.21965.947589-.58061 1.881285-1.093165 2.769057-.502208.869849-1.115366 1.635705-1.811277 2.290012-34.035766 57.379163-96.604441 95.840825-168.156319 95.840825-107.907805 0-195.384364-87.47656-195.384364-195.384365s87.476559-195.384365 195.384364-195.384365zm100.24894 263.933509c-21.877759 31.933421-58.616705 52.88408-100.24894 52.88408-41.271211 0-77.733632-20.588878-99.676439-52.055811l-46.846029 27.047131c31.36804 47.569312 85.279431 78.959821 146.522468 78.959821 61.603276 0 115.7884-31.76088 147.073656-79.800921zm-332.103021-58.549343h-130.941l-.000443 97.511h130.941zm-150.941 0-130.941443-.001v97.512h130.941zm-150.942 0h-120.940443v97.511h120.940443zm539.078876-111.294782-.219484.136683c-1.498167.895271-3.250159 1.409738-5.122311 1.409738-1.96408 0-3.795909-.566231-5.341153-1.544359-53.537538 2.775675-96.092071 47.064725-96.092071 101.292919 0 17.050414 4.206931 33.118246 11.639421 47.222125 1.17164.811479 2.184161 1.888639 2.943221 3.20337.748322 1.29613 1.173511 2.69015 1.300563 4.088775 18.011105 28.212549 49.596004 46.918954 85.550019 46.918954 36.809684 0 69.039817-19.607387 86.815896-48.947658.217653-.902313.56779-1.787245 1.054772-2.630722.465864-.806902 1.027202-1.524316 1.661505-2.146213 7.596438-14.219568 11.901052-30.461401 11.901052-47.708631 0-54.228194-42.554533-98.517244-96.09143-101.294981zm-15.343359-73.808987c-92.208555 5.183938-165.3828 81.598573-165.3828 175.103968 0 28.469228 6.783226 55.35415 18.821638 79.126723l46.835944-27.040664c-7.506013-15.784394-11.706442-33.444695-11.706442-52.086059 0-63.698453 49.045145-115.941799 111.432736-121.027336zm20.003129 0-.001076 54.076632c62.387591 5.085537 111.432736 57.328883 111.432736 121.027336 0 18.282868-4.040424 35.622045-11.277068 51.173327l46.85827 27.055008c11.756255-23.550663 18.369938-50.117145 18.369938-78.228335 0-93.505395-73.174245-169.92003-165.3828-175.103968zm-241.856089 71.643769h-130.941v93.46h130.941zm-150.941 0h-130.942v93.46h130.942zm-150.941 0h-120.941v93.46h120.941zm-.001-117.227h-120.94v97.227h120.940443zm150.942 0h-130.941v97.227h130.941443zm150.941 0h-130.941l.000443 97.227h130.941zm10.001104-20.283485.279905.003841c.719786.019782 1.420572.115623 2.09461.279775l438.553381-.000131.000443-59.29c0-36.633047-29.399983-66.399361-65.892032-66.991024l-1.107968-.008976h-739.752443c-37.0030782 0-67 29.996922-67 67v59.006z"/></svg>