<svg height="960" viewBox="0 0 960 960" width="960" xmlns="http://www.w3.org/2000/svg"><path d="m914.525437 289.438574c24.316943 2.687203 42.727738 23.233273 42.727738 47.707684v220.195904c0 17.826728-11.796852 33.50186-28.926905 38.436786l-78.834136 22.710091-.030029.033394c-8.043902 8.333529-19.029736 13.843286-31.369858 14.835432l-.773006.056112-608.286848 39.413294c-1.149315.074469-2.300739.111732-3.452464.111732-15.039653 0-28.627028-6.217944-38.331634-16.223343l-.156161-.163621-109.1040695-14.544773c-30.9863427-4.130884-54.20662623-30.33956-54.6749305-61.501717v-208.852916c0-35.41576 28.1723237-64.40627 63.5735101-65.419847 452.0652129-12.944055 703.5360039-19.397747 756.3475899-19.397747l2.688549.000977c43.615784.031947 72.678856.848166 88.602654 2.602558zm-98.192 64.245247-614.956303 22.789218.807304 245.928606c.011029 3.371167-1.647364 6.358188-4.197321 8.178082 2.157263 1.488189 4.773311 2.359276 7.592812 2.359276.288937 0 .577798-.009348.86613-.02803l606.139075-39.274934zm-773.020303 23.717218v202.158703c0 11.527835 8.5339472 21.274969 19.9606889 22.798303l118.8963111 15.849994-.769-234.321zm42.9012366 141.000222c18.5985064 0 33.6755744 15.077068 33.6755744 33.675574s-15.077068 33.675575-33.6755744 33.675575c-18.5985061 0-33.6755743-15.077069-33.6755743-33.675575s15.0770682-33.675574 33.6755743-33.675574zm831.0387634-163.193222-81.183 15.602-3.295 210.868 84.478041-24.335877zm-831.0387634 183.193222c-7.5528111 0-13.6755743 6.122763-13.6755743 13.675574s6.1227632 13.675575 13.6755743 13.675575 13.6755743-6.122764 13.6755743-13.675575-6.1227632-13.675574-13.6755743-13.675574zm609.2856294-27.401261c5.79899 0 10.5 4.924868 10.5 11s-4.70101 11-10.5 11-10.5-4.924868-10.5-11 4.70101-11 10.5-11zm196.277898-76.07321c13.563747 1.186674 21.062464 15.98923 19.68398 31.745378-1.378485 15.756148-11.333716 29.031681-24.897463 27.845007-13.563748-1.186674-21.062465-15.98923-19.68398-31.745378 1.378484-15.756148 11.333715-29.031682 24.897463-27.845007zm-1.806578 20.640111-.008624.011909c-.091131.108424-.185379.226945-.281929.355697-1.454436 1.939525-2.566768 5.040856-2.876438 8.580405-.309671 3.539548.247222 6.786918 1.342767 8.949537.072726.143562.14496.276649.215879.39925l.007345.012202.009296-.010746c.045566-.054212.091911-.110948.138933-.170226l.142996-.185471c1.454436-1.939525 2.566768-5.040856 2.876439-8.580405.30967-3.539548-.247223-6.786918-1.342768-8.949537-.072725-.143562-.14496-.276649-.215879-.399251zm-803.7569494-57.695836c18.5985064 0 33.6755744 15.077068 33.6755744 33.675574s-15.077068 33.675574-33.6755744 33.675574c-18.5985061 0-33.6755743-15.077068-33.6755743-33.675574s15.0770682-33.675574 33.6755743-33.675574zm0 20c-7.5528111 0-13.6755743 6.122763-13.6755743 13.675574s6.1227632 13.675574 13.6755743 13.675574 13.6755743-6.122763 13.6755743-13.675574-6.1227632-13.675574-13.6755743-13.675574zm739.6207274-91.036026h-2.600864c-51.689602 0-298.93123 6.33189-741.7248864 18.995671l-13.4778472.385661c-8.5690421.245359-16.0487548 4.706547-20.4752334 11.361784l134.32572 6.309293c1.011419-2.958128 3.371075-5.292781 6.348081-6.268259 1.103552-.474561 2.311615-.757469 3.584035-.804624l634.312959-23.506885c5.725703-.212187 10.458592 4.420371 10.370363 10.149306l-.108291 6.925053 80.544545-15.478344c-.884991-3.031309-3.520833-5.344574-6.801794-5.707145-14.004702-1.542954-42.103641-2.329713-84.296787-2.361511z"/></svg>