<?xml version="1.0" encoding="UTF-8"?>
<svg width="960px" height="960px" viewBox="0 0 960 960" version="1.1" xmlns="http://www.w3.org/2000/svg" xmlns:xlink="http://www.w3.org/1999/xlink">
    <title>se.cohen.renaultze/capabilities/batterytemperature</title>
    <g id="se.cohen.renaultze/capabilities/batterytemperature" stroke="none" stroke-width="1" fill="none" fill-rule="evenodd">
        <path d="M644.504918,18.402 L646.366983,18.4172145 C707.699667,19.4200656 757.473295,69.8706076 757.473295,131.467289 L757.474,567.241 L757.488785,567.251476 C814.145666,604.979381 848.598,668.488442 848.598,737.333778 C848.598,850.137269 757.229162,941.598 644.504918,941.598 C531.773248,941.598 440.402,850.13968 440.402,737.333778 L440.413438,735.161512 C441.122609,667.834338 474.767664,605.834229 529.835933,568.378952 L531.527,567.241 L531.526705,131.467289 C531.526705,69.2454904 582.313866,18.402 644.504918,18.402 Z M644.504918,58.402 C604.418252,58.402 571.526705,91.3238934 571.526705,131.467289 L571.526705,577.509222 C571.526705,584.931966 567.681709,591.814218 561.385516,595.709232 L561.039665,595.91871 C511.446677,625.322324 480.402,678.622661 480.402,737.333778 C480.402,828.059276 553.87563,901.598 644.504918,901.598 C735.125715,901.598 808.598,828.057929 808.598,737.333778 C808.598,679.209772 778.171112,626.388872 729.442548,596.807969 L727.960335,595.91871 C721.45938,592.064303 717.473295,585.066925 717.473295,577.509222 L717.473295,131.467289 C717.473295,91.3250771 684.582929,58.402 644.504918,58.402 Z M677.630562,351 L677.630562,618.963495 C730.841354,633.274421 770,681.725023 770,739.322814 C770,808.172633 714.037946,864 645,864 C575.971915,864 520,808.172633 520,739.322814 C520,681.725023 559.168507,633.274421 612.379299,618.963495 L612.379299,351 L677.630562,351 Z M338,118 C353.463973,118 366,130.536027 366,146 L366,179 L379,179 C403.300529,179 423,198.699471 423,223 L423,737 C423,761.300529 403.300529,781 379,781 L195,781 C170.699471,781 151,761.300529 151,737 L151,223 C151,198.699471 170.699471,179 195,179 L208,179 L208,146 C208,130.536027 220.536027,118 236,118 L338,118 Z" id="Combined-Shape" fill="#000000" fill-rule="nonzero"></path>
    </g>
</svg>