<svg height="960" viewBox="0 0 960 960" width="960" xmlns="http://www.w3.org/2000/svg"><g fill="#000" fill-rule="evenodd"><path d="m725.584856 54.560171c24.569281 3.6632929 43.415144 24.8507174 43.415144 50.439829l.003727 370.39998c-13.095455-16.826345-27.628111-32.478943-43.413597-46.773425zm-489.000862-.160468-.0052 372.278366c-16.222101 14.457702-31.148767 30.337961-44.584173 47.444951l.005379-369.12302c0-25.9934303 19.446113-47.4449776 44.583994-50.600297zm459.000006-.399703.002717 350.201156c-60.468358-44.146523-134.984845-70.201156-215.586717-70.201156-79.642732 0-153.344045 25.438236-213.422092 68.63286l.006092-348.63286zm-193.584 86.5h-42v174h42z"/><path d="m654.786143 573.452082c42.724107 0 80.503173 21.172237 103.4175 53.597016 3.24869 4.597038 2.155637 10.957257-2.441401 14.205947-1.720482 1.21585-3.775455 1.868693-5.882195 1.868709l-82.907322.000698c-6.435435.000049-12.433434 3.257671-15.93711 8.655733l-23.660684 36.453662c-4.083657 6.29163-4.083657 14.396902 0 20.688533l23.66078 36.45381c3.503623 5.39798 9.5015 8.655591 15.936837 8.655733l78.197957.001776c7.53451.000166 13.642302 6.108228 13.642135 13.642737-.000065 2.952034-.957666 5.824404-2.729049 8.18591-23.084481 30.774907-59.865772 50.685572-101.297448 50.685572-50.56063 0-94.195797-29.651436-114.464928-72.513739l-293.616561-.002483c-30.626168 0-55.453583-24.827415-55.453583-55.453583s24.827415-55.453582 55.453583-55.453582l295.004496-.000857c20.827004-41.325372 63.641692-69.671592 113.076993-69.671592z" transform="matrix(.70710678 -.70710678 .70710678 .70710678 -354.312456 544.614063)"/></g></svg>