<?xml version="1.0" encoding="utf-8"?>
<!-- Generator: Adobe Illustrator 20.0.0, SVG Export Plug-In . SVG Version: 6.00 Build 0)  -->
<svg version="1.1" id="Layer_1" xmlns="http://www.w3.org/2000/svg" xmlns:xlink="http://www.w3.org/1999/xlink" x="0px" y="0px"
	 viewBox="0 0 288.64 292.35" style="enable-background:new 0 0 288.64 292.35;" xml:space="preserve">
<path d="M60.25,171.07c5.33,0,10.66-0.02,15.99,0.01c3.49,0.02,3.57,0.05,3.86,3.37c0.93,10.69,3.39,21,8.17,30.61
	c12.64,25.42,32.3,42.91,60.38,48.44c39.41,7.76,79.74-10.34,94.38-53.1c9.27-27.08,7.81-53.72-6.21-78.97
	c-13.26-23.88-33.8-37.88-60.77-42.25c-2.42-0.39-3.43-0.84-3.39-3.5c0.14-10.16,0.03-20.32,0.06-30.49
	c0.01-3.21,0.11-3.41,3.41-3.12c11.8,1.05,23.33,3.49,34.31,7.97c41.54,16.97,66.73,47.65,75.47,91.53
	c5.68,28.49,2.54,56.25-9.88,82.63c-13.94,29.6-36.67,49.68-67.41,60.75c-17.99,6.48-36.65,8.49-55.52,6.86
	c-29.13-2.52-54.46-13.99-75.47-34.57c-20.71-20.3-32.35-45.11-36.47-73.62c-0.45-3.12-0.61-6.28-0.97-9.42
	c-0.28-2.37,0.63-3.25,3.07-3.19C48.92,171.17,54.58,171.08,60.25,171.07z"/>
<path d="M14.86,152.17c-3.97,0-7.95-0.06-11.92,0.02c-2.08,0.04-2.85-0.61-2.92-2.86c-0.15-4.53,0.67-8.96,1.18-13.39
	c1.57-13.54,4.88-26.71,10-39.37C20,74.81,32.98,55.93,50.33,40.09C71.3,20.95,95.68,8.53,123.53,2.95
	c8.31-1.66,16.65-2.97,25.16-2.95c3.92,0.01,3.98,0.01,4,3.68c0.04,7-0.08,14,0.06,20.99c0.05,2.5-0.73,3.3-3.3,3.73
	c-4.6,0.77-9.24,0.66-13.85,1.38c-21.28,3.34-40.53,11.36-57.49,24.56c-24.15,18.79-39.27,43.4-45.86,73.2
	c-1.53,6.94-2.86,14.02-2.46,21.21c0.14,2.64-0.86,3.54-3.44,3.44c-3.83-0.15-7.66-0.04-11.49-0.04
	C14.86,152.16,14.86,152.17,14.86,152.17z"/>
<path d="M152.94,64.21c0,2.83-0.1,5.66,0.03,8.49c0.1,2.25-0.57,3.19-3.03,3.37c-12.91,0.97-25.09,4.53-36.09,11.43
	c-16.99,10.65-28.43,25.6-34.1,44.93c-1.64,5.6-2.91,11.23-3,17.06c-0.04,2.67-1.26,3.42-3.72,3.38c-5.66-0.1-11.32-0.14-16.98,0.01
	c-2.53,0.07-3.17-1.02-3.04-3.27c0.4-7.46,1.34-14.87,3.33-22.06c5.26-18.96,14.77-35.43,29.4-48.77
	c14.2-12.96,30.85-20.93,49.65-24.78c4.76-0.98,9.61-0.54,14.31-1.71c2.21-0.55,3.41,0.38,3.27,2.92
	C152.82,58.21,152.94,61.22,152.94,64.21z"/>
<path d="M152.94,108.23c-0.26,2.23,0.95,5.23-0.53,7.42c-1.53,2.26-4.66,0.88-7.03,1.43c-15.61,3.62-26.53,14.28-28.54,31.06
	c-0.56,4.64-0.45,4.66-4.93,4.7c-3.16,0.02-6.32,0.08-9.48-0.02c-2.67-0.08-3.5-0.89-3.23-3.22c2.05-17.82,10.16-31.95,25.38-41.85
	c7.56-4.92,15.95-7.13,24.71-8.35c3.18-0.45,3.56-0.03,3.64,3.45C152.98,104.5,152.94,106.16,152.94,108.23z"/>
</svg>
