<svg height="960" viewBox="0 0 960 960" width="960" xmlns="http://www.w3.org/2000/svg"><path d="m565.066144 343.048255 345.047087 68.777077c25.514465 5.085712 43.886769 27.481527 43.886769 53.497914v136.243001c0 27.704117-20.766064 51.008626-48.28696 54.189561l-527.585267 60.979653c-5.595719.646768-11.264948.104366-16.636519-1.591693l-318.3657472-100.523134c-22.6955232-7.166051-38.1255068-28.218897-38.1255068-52.018877v-127.954621c0-28.451104 21.8663167-52.124457 50.2279671-54.378815l485.9353649-38.625118c7.994282-.635435 16.038032-.162608 23.902812 1.405052zm334.015495 111.45506-516.787161 48.804896c-12.071292 1.140002-21.294478 11.275255-21.294478 23.400258v135.978256c0 5.510979 3.043437 10.242498 7.472002 12.715457l5.063045 1.597818 527.585267-60.979653c7.340708-.848458 12.879686-7.06452 12.879686-14.4541v-136.243001c0-.67091-.045806-1.332793-.134711-1.982349-2.386562-5.661781-8.245511-9.455038-14.78365-8.837582zm-354.748859-72.985877-485.9353646 38.625118c-7.564965.60131-13.3974154 6.915755-13.3974154 14.50458v127.954621c0 6.348221 4.1156732 11.963692 10.1692997 13.875109l286.0721653 90.326316c-.159388-1.348297-.241465-2.721867-.241465-4.116457v-135.978256c0-22.442232 17.071245-41.201628 39.414063-43.311663l464.206937-43.840171-287.374101-57.280081c-4.249153-.846969-8.594999-1.102426-12.914119-.759116zm-136.362849 212.661487c2.845042 11.535095 11.315277 20.585978 22.530121 22.429701l-.000052 27.391374c0 .245475.01769.486819.051864.722826l-36.367625 4.036149c-5.96659.662065-11.184239-4.008647-11.184239-10.011857l-.000285-41.746661c.187629-.000222.377182-.010984.568018-.032794zm464.969628 4.723273c.606299 5.489467-3.35229 10.431062-8.841757 11.037361l-335 37c-5.489467.606299-10.431062-3.35229-11.037361-8.841757s3.35229-10.431062 8.841757-11.037361l335-37c5.489467-.606299 10.431062 3.35229 11.037361 8.841757zm-384.940019-13.871198.00046 44.300621c0 5.133411-3.860272 9.445719-8.962369 10.011857l-38.538091 4.274522.000955-27.351463c11.808035-2.786896 21.333309-13.824489 23.227998-27.835338l.059072-.457923c.007255-.059081.014365-.118145.021332-.177191zm-49.75748-22.863288c9.95287 1.222058 17.153831 12.095175 15.620044 24.586871-1.533788 12.491695-11.151294 21.299764-21.104164 20.077705-7.857438-.964772-13.999736-7.944606-15.481358-16.98766.140483-.564425.184135-1.163116.114205-1.775004-.063685-.557238-.21667-1.082562-.443659-1.563043-.047302-1.390382.013192-2.814925.190768-4.261164 1.533788-12.491695 11.151294-21.299764 21.104164-20.077705zm-7.72471-37.587223c-.01149.138315-.01735.278229-.01735.419511l-.000495 27.733463c-11.936383 2.817188-21.54011 14.065411-23.28707 28.293261-.131867 1.07397-.216191 2.142298-.254709 3.202133l-23.958186 2.738143.00046-48.629716c0-5.093672 3.798454-9.369744 8.824496-9.995654l.27535-.030503zm-153.51735 30.419511 8 2.497936v24.502064l-8-2.008466zm211-24.901291.000285 44.900834c-.187629.000222-.377182.010984-.568018.032794l-23.809931 2.720682c-2.045015-12.908714-10.972889-23.36391-23.12167-25.361527l-.000666-27.391492c0-.474892-.066206-.934321-.189891-1.369561l36.643128-3.557888c5.920178-.574801 11.046763 4.078141 11.046763 10.026158zm-233 18.901291 12 3.188311v24.811689l-12-3.672635zm617.954687-68.950895c.525165 5.497821-3.50597 10.380417-9.003792 10.905582l-335 32c-5.497821.525165-10.380417-3.50597-10.905582-9.003792-.525165-5.497821 3.50597-10.380417 9.003792-10.905582l335-32c5.497821-.525165 10.380417 3.50597 10.905582 9.003792z"/></svg>