<svg height="960" viewBox="0 0 960 960" width="960" xmlns="http://www.w3.org/2000/svg"><path d="m480.5 1c63.302994 0 122.827014 3.80127146 167.545604 10.5530936l1.194009.1815051c22.615278 3.461246 41.186871 7.6441188 55.251334 12.6646805 9.201248 3.2845501 16.962936 7.0523132 23.615597 11.960937 4.974546 3.6704377 9.33087 7.9750969 12.904248 13.2877104 1.340967 1.9936434 2.534873 4.0827301 3.564793 6.2558269l.197415.4242465.324018.4635609c4.004748 5.8024139 7.118967 12.2802342 9.455092 19.3163657l.247327.7560023c2.87761 8.9278106 4.298631 18.0821164 4.200612 27.3071241l-.017049.648947.010505.396524.006544.783476-4.164045 728.228751c-.023891 4.177696-.687621 8.202903-1.898006 11.982886l-.126998.385363-.171902.907592c-3.698813 18.79142-14.763108 35.380289-31.080157 49.295051l-.606826.514216c-15.913765 13.400113-37.105631 24.619939-62.597134 33.755545-48.28769 17.30527-111.68913 26.930596-178.854981 26.930596-67.411169 0-131.027425-9.695846-179.376683-27.118074-25.555902-9.208843-46.763641-20.520523-62.635396-34.042341-20.302828-17.296835-32.487921-38.754093-32.487921-63.339585 0-4.115579.357101-8.204643 1.060582-12.242012l.027418-.155988-4.088-714.873254c0-.469444 0-.938881.01739-1.408093l.026954-.70362.031952-.67801c.029467-.625271.073607-1.249765.132384-1.872964.188749-2.0012567.503913-3.9783769.93988-5.9230016l.02044-.0900574.145964-.7849494c1.014958-5.32585 2.415016-10.6065457 4.191434-15.8317429l.41662-1.2048249c1.435566-4.0827019 3.099012-8.1248946 4.985014-12.1257238l.342968-.718759.112957-.4626677c1.285936-5.1247237 3.441014-9.9221588 6.293083-14.2760131l.332168-.5003926c3.573378-5.3126135 7.929702-9.6172727 12.904248-13.2877104 6.652661-4.9086238 14.414349-8.6763869 23.615597-11.960937 14.311208-5.1086417 33.289078-9.3499442 56.445343-12.8461856l1.345989-.2016686c43.663188-6.49194432 101.153056-10.19971103 162.406058-10.351425zm-226.461223 855.806946.696888.865832c28.854955 34.889026 118.5655 60.327222 224.764335 60.327222 106.353565 0 196.17076-25.512376 224.890071-60.479781-12.121907 6.008165-27.018211 11.384118-44.343901 16.13092-47.69545 13.067352-111.809672 20.497009-180.126173 20.497009s-132.430723-7.429657-180.126173-20.497009c-18.007849-4.933696-33.391244-10.547061-45.755047-16.844193zm460.985117-201.293999c-13.396155 5.552076-32.354949 10.471435-55.893436 14.597704-47.385389 8.306602-111.191256 13.037497-179.210461 13.037497l-4.075999-.005668c-66.488872-.184998-128.696781-4.891359-175.134462-13.031829l-2.193286-.389156c-22.336614-4.011413-40.41842-8.750121-53.373975-14.07394l.970721 169.56686c-.191023.707291-.357848 1.417136-.50017 2.129427 9.792326 9.226722 30.10699 18.974585 59.46574 27.018143 45.840231 12.559068 108.206448 19.786163 174.841431 19.786163s129.0012-7.227095 174.841431-19.786163c30.026656-8.226548 50.593044-18.235828 60.11777-27.647403l.981014-171.552089c-.276513.117164-.555285.23398-.836318.350454zm-110.4305 49.699659c31.652502 6.152623 51.673671 40.146614 44.718532 75.927704-6.95514 35.78109-38.252817 59.799707-69.90532 53.647084-31.652502-6.152623-51.673671-40.146614-44.718532-75.927704 6.95514-35.78109 38.252817-59.799707 69.90532-53.647084zm83.793241-644.0528238.019586.0489143c1.164621 2.5414285 1.772508 5.256061 1.772508 8.1684079 0 10.5097734-7.916325 18.4447753-21.344977 24.9568675-10.90777 5.289616-26.226228 9.9403971-45.192276 13.8305681l-1.142708.232573c-37.073646 7.487198-86.346814 11.803354-138.952328 11.974688l-3.258122.005303c-54.37027 0-105.393192-4.426505-143.353158-12.212564l-1.012544-.209129c-18.499185-3.847345-33.466744-8.4262805-44.179733-13.6214391-13.428651-6.5120922-21.344976-14.4470941-21.344976-24.9568675 0-2.8674772.589301-5.5432853 1.719075-8.0508193-12.926081 4.324079-20.116982 9.1221057-20.116982 14.1737149 0 .4093542.04722.8170433.14258 1.2226197-2.649248 4.7584481-4.810697 9.5175748-6.484347 14.2773803-1.506455 4.2843085-2.617318 8.5680671-3.336203 12.85085-.146647.488171-.243624.9786-.290078 1.47114l-.031952.67801 3.01547 527.465757c2.060757 1.167289 4.554295 2.367684 7.458073 3.571163 11.823683 4.900361 29.469289 9.478979 51.689311 13.374122l2.788749.481264c45.87023 7.792849 107.374761 12.255842 172.968394 12.255842l4.010729-.005567c65.421923-.181691 126.519127-4.80325 171.746414-12.731539l2.03805-.361482c21.262344-3.815727 38.191383-8.26306 49.651261-13.01264 3.473719-1.439692 6.360353-2.874971 8.621314-4.25444l3.012235-526.78248c0-.259933-.014071-.519302-.045109-.777873.243489-5.3637241-.498744-10.7260847-2.226699-16.0870815-1.811487-5.6201528-4.306526-9.9985013-7.485118-13.1350455l-.266637.0005756c.015691-.1665756.023563-.3334368.023563-.5005756 0-5.1166424-7.37724-9.9731312-20.613365-14.3402178zm-126.903296 23.5782472-.428357.0591463c-.564254.0772745-1.13508.1537181-1.712411.2293273l-1.699377.217795c-20.503431 2.5715874-48.029012 4.0317963-77.354876 4.0317963l-1.352204-.0010356c-28.818939-.044157-55.814679-1.4987362-76.002672-4.0307607-1.161562-.1456858-2.298151-.2946201-3.409259-.4467759 1.918651 4.3323251 3.076442 8.4462759 3.387617 12.3581401 23.095879 2.0151936 48.212713 3.1318848 74.194562 3.2162768l3.181956.005165c27.266117 0 53.636144-1.1368567 77.78683-3.2574168.314839-3.9192116 1.480663-8.0411126 3.408191-12.3816578zm-80.983339-43.7380294c-40.282543 0-78.130492 1.5738242-110.993686 4.3364373-10.190606 1.4203819-19.753734 3.0405966-28.552568 4.8453465l-.916365.189215c-17.042488 3.542543-30.55198 7.6727917-39.567692 12.0448725-4.173821 2.0240534-7.182687 4.0082712-8.931325 5.7610346-.427624.4286323-.736268.7993316-.940519 1.0994097l-.066845.1006844.066845.1008932c.175072.2572098.426842.5663045.764494.919294l.176025.1801157c1.614127 1.6179354 4.302059 3.4330865 7.988859 5.2947396l.942466.4662949c9.176707 4.4501538 23.009119 8.6497613 40.484057 12.2340875l1.09983.223825c12.05978 2.435074 25.524426 4.527198 40.049701 6.2365301-.534161-1.4989001-1.323944-3.256892-2.413281-5.2656078-2.796463-5.15662-6.232128-9.4384196-10.33346-12.9058811-1.288077-.8115472-2.445215-1.7271129-3.421439-2.7670974-.738378-.7327517-1.343221-1.5613485-1.808665-2.4510482-.940059-1.6768245-1.474478-3.614542-1.474478-5.8670512 0-5.2049357 2.853508-8.7290524 6.961043-11.2466565 2.290869-1.4041278 5.14284-2.5541716 8.654599-3.5955191 5.685627-1.6859683 13.440503-3.1606809 22.966469-4.4082332l1.699377-.217795c19.872556-2.4924615 46.341778-3.940885 74.653138-4.027659l2.701738-.0041372c29.325864 0 56.851445 1.4602089 77.354876 4.0317962 10.305844 1.2925827 18.64577 2.8408853 24.665846 4.6260282 3.511759 1.0413475 6.36373 2.1913913 8.654599 3.5955191 4.107534 2.5176041 6.961043 6.0417208 6.961043 11.2466565l.00018.015315c.419592 3.473414-.998912 7.0658411-4.023369 9.278874-5.12173 3.747634-9.310397 8.6134953-12.609455 14.6968889-1.077239 1.9864067-1.86154 3.7276276-2.395882 5.2158388 14.806792-1.7526709 28.504166-3.9035859 40.726734-6.4105861l.916365-.1892149c17.042488-3.5425431 30.551979-7.6727917 39.567692-12.0448726 4.17382-2.0240533 7.182687-4.0082711 8.931325-5.7610345.427623-.4286324.736268-.7993316.940519-1.0994097l.065209-.1018932-.065209-.0996844c-.175072-.2572098-.426842-.5663045-.764494-.9192941l-.176025-.1801156c-1.748638-1.7527634-4.757505-3.7369812-8.931325-5.7610346-9.176707-4.4501537-23.009119-8.6497612-40.484057-12.2340875l-1.099831-.2238249c-8.676896-1.7520126-18.081045-3.3264915-28.084233-4.7085972-32.614626-2.7088754-70.085215-4.2493617-109.938826-4.2493617zm-.211682 21.2760943c-26.788759 0-51.963743 1.2480581-71.166589 3.4342382l-.569729.0646675 1.551829.1772696c18.098841 2.0093552 41.329056 3.1979846 66.153998 3.3143869l2.714331.0084329h2.676888c26.279705-.0415717 50.928487-1.2841071 69.805861-3.4332334l.569093-.066856-1.551193-.1750811c-18.756981-2.0824226-43.025312-3.2833451-68.868329-3.3228198z"/></svg>