<svg height="960" viewBox="0 0 960 960" width="960" xmlns="http://www.w3.org/2000/svg"><path d="m233.930826 1.127083c.348589.00790029.69706.02035821 1.045323.03737055l16.767809.81909206c.276299.01349694.55245.02985973.828409.04908571 2.360386.16444715 4.486207.30159708 6.373383.411439.483923.02816641.967293.06512714 1.449872.11086388l539.39627 51.1216343.174423.0169166c30.307586 3.0064492 53.557043 27.7567647 54.600275 58.2151689l25.087421 738.77936c1.093327 32.34285-23.076757 59.68132-55.331422 62.489852-.098549.008581-.19713.016796-.29574.024646l-542.105224 43.153166c-.1092.008692-.218436.016936-.327704.024732-2.301224.164169-4.498481.186794-6.706825.10407l-53.780683.028746-.956205.017977c-1.893827 0-3.789814-.022706-5.686522-.094748l-1.422644-.061957c-6.908774-.33933-13.797079-1.239928-20.583392-2.687722l-24.973237-5.32355-.013627-.001349c-31.163698-5.840723-55.037903-32.254054-55.524373-64.025197v-812.6832329c0-32.4961095 25.05955-59.2564647 57.040296-63.72107847.39584-.05526053.792486-.10458513 1.189804-.14795717l1.2079-.13118514 48.76652-5.89070519.762078-.09215317c1.463876-.16852704 2.948798-.29846367 4.461645-.39191728l1.13998-.06328258c2.406471-.116949 4.878167-.14560598 7.41619-.0880851zm7.453608 58.4040813 25.436859 847.7044517c.110432 3.701239 2.3419 7.123102 5.629655 9.250235l3.337349-.002233c.078939.003851.157878.009507.236817.013358.899135.043868 1.805971.050216 2.722434-.015165l542.105224-43.153166c11.049541-.962124 19.199516-10.182891 18.824074-21.289232l-25.087213-738.773224c-.217313-6.344696-3.216737-11.922305-7.881113-15.5411096l-551.074249-50.1147649c-7.694766-.635343-14.442563 5.3381639-14.249837 11.9208498zm-19.905021 3.3382018-.001227-1.45729c.500067 332.0215719.926609 615.2503789 1.253332 832.2205849l.000655.413728c.000348.210423.000725.425372.001124.641188l.000822.431702c.000987.502471.002059.996377.003111 1.43523l.000895.361592c.000737.288285.00145.541706.002099.743319l.000746.215984.000346.087309.000627.129185.000365.049859c.000057.005758.000112.010214.000165.013327.151169 8.888603 3.24595 13.630611 8.644103 16.371277 1.86761.948194 3.942268 1.598703 6.057041 1.979899l10.932053-.007224c-.918353-2.741674-1.455403-5.647891-1.545431-8.665306zm-18.43081-18.7509102-27.050811 3.2681143-1.480588.1616238c-12.805453 1.787682-22.570791 12.2132281-22.570791 24.1052531v811.7089889c0 12.441791 9.961723 23.448784 23.302421 25.7578l25.54737 5.445337c1.80571.38523 3.620252.714299 5.440557.986716-2.162551-4.889022-3.381249-10.580567-3.491396-17.057103-.003992-.234698-.00802-1.621414-.011259-3.319858l-.000904-.493026c-.000587-.333371-.001143-.675148-.001661-1.019525-.326724-216.970204-.753266-500.199008-1.253344-832.2356397 0-7.1514122.403469-12.6938767 1.570406-17.3086814zm21.819456 1.1085551-.039028.0239673c-.47354.2790913-.834061.5887371-1.102837.9226322l-.06972.089885c-1.051709 1.408064-1.742828 4.1961686-2.028801 9.1663324.464131-3.6264579 1.586135-7.0624083 3.240386-10.2028169z"/></svg>