<svg height="960" viewBox="0 0 960 960" width="960" xmlns="http://www.w3.org/2000/svg"><path d="m644.504918 18.402 1.862065.0152145c61.332684 1.0028511 111.106312 51.4533931 111.106312 113.0500745l.000705 435.773711.014785.010476c56.656881 37.727905 91.109215 101.236966 91.109215 170.082302 0 112.803491-91.368838 204.264222-204.093082 204.264222-112.73167 0-204.102918-91.45832-204.102918-204.264222l.011438-2.172266c.709171-67.327174 34.354226-129.327283 89.422495-166.78256l1.691067-1.137952-.000295-435.773711c0-62.2217986 50.787161-113.065289 112.978213-113.065289zm0 40c-40.086666 0-72.978213 32.9218934-72.978213 73.065289v446.041933c0 7.422744-3.844996 14.304996-10.141189 18.20001l-.345851.209478c-49.592988 29.403614-80.637665 82.703951-80.637665 141.415068 0 90.725498 73.47363 164.264222 164.102918 164.264222 90.620797 0 164.093082-73.540071 164.093082-164.264222 0-58.124006-30.426888-110.944906-79.155452-140.525809l-1.482213-.889259c-6.500955-3.854407-10.48704-10.851785-10.48704-18.409488v-446.041933c0-40.1422119-32.890366-73.065289-72.968377-73.065289zm33.125644 292.598v267.963495c53.210792 14.310926 92.369438 62.761528 92.369438 120.359319 0 68.849819-55.962054 124.677186-125 124.677186-69.028085 0-125-55.827367-125-124.677186 0-57.597791 39.168507-106.048393 92.379299-120.359319v-267.963495zm-339.630562-233c15.463973 0 28 12.536027 28 28v33h13c24.300529 0 44 19.699471 44 44v514c0 24.300529-19.699471 44-44 44h-184c-24.300529 0-44-19.699471-44-44v-514c0-24.300529 19.699471-44 44-44h13v-33c0-15.463973 12.536027-28 28-28z"/></svg>