<svg height="960" viewBox="0 0 960 960" width="960" xmlns="http://www.w3.org/2000/svg"><path d="m842.82368 413.163725c-4.0634-6.746706-11.201806-10.8057-19.108964-10.8057h-119.595756l27.949605-240.358274c.384376-3.291076-.65893-6.637003-2.910273-9.105311-2.196433-2.468307-5.38126-3.89444-8.73082-3.89444h-.494197c-4.337955 0-8.236623 2.358605-10.268323 6.143342l-198.008401 369.697573c-3.733936 6.966111-3.514292 15.138951.549108 21.940508 4.0634 6.746707 11.201806 10.805701 19.108964 10.805701l119.595756.054851-27.949605 240.358274c-.384376 3.291076.65893 6.637003 2.855363 9.105311 2.196432 2.468307 5.381259 3.89444 8.730819 3.89444h.494198c4.337954 0 8.236622-2.358605 10.268322-6.143342l198.008401-369.697573c3.733936-7.020963 3.569203-15.193802-.494197-21.99536zm-669.4389-148.627486 222.656881.463804c11.045671.023009 19.981304 8.995947 19.95834 20.041618-.022813 10.930612-8.810026 19.794916-19.697167 19.956106l-.344495.00219-222.656881-.463805c-11.045671-.023009-19.981304-8.995947-19.95834-20.041618.022813-10.930612 8.810026-19.794916 19.697167-19.956106zm195.818881 317.999956c11.045695 0 20 8.954305 20 20 0 10.930636-8.768729 19.813225-19.655511 19.997093l-.344489.002907h-259.860542c-11.0456951 0-20.0000001-8.954305-20.0000001-20 0-10.930635 8.7687286-19.813225 19.6555101-19.997093l.34449-.002907zm-296.8348221-158.999983 360.6568811.463805c11.045686.014204 19.988468 8.980017 19.97428 20.025703-.014073 10.930627-8.794218 19.801932-19.681227 19.971799l-.344493.002464-360.6568811-.463804c-11.0456858-.014205-19.9884682-8.980018-19.9742803-20.025704.0140736-10.930626 8.794218-19.801932 19.6812274-19.971799z"/></svg>