<svg height="960" viewBox="0 0 960 960" width="960" xmlns="http://www.w3.org/2000/svg"><g fill="#000" fill-rule="nonzero"><path d="m557 21c26.509668 0 48 21.490332 48 48v32h12c34.992762 0 63.426255 28.083566 63.991426 62.941643l.008574 1.058357v711c0 35.346224-28.653776 64-64 64h-274c-35.346224 0-64-28.653776-64-64v-711c0-35.346224 28.653776-64 64-64h12v-32c0-26.2445713 21.062674-47.5696914 47.206232-48zm-214 120c-13.254834 0-24 10.745166-24 24v711c0 13.254834 10.745166 24 24 24h274c13.254834 0 24-10.745166 24-24v-711c0-13.254834-10.745166-24-24-24zm214-80h-154c-4.418278 0-8 3.581722-8 8v32h170v-32c0-4.3349143-3.447838-7.8645429-7.750821-7.9961932z"/><path d="m601.653105 466.529041c-3.002335-4.993785-8.276706-7.998177-14.119086-7.998177h-88.366004l20.651192-177.908691c.284004-2.435994-.486865-4.912586-2.150321-6.739581-1.622883-1.826995-3.976064-2.882592-6.450962-2.882592h-.365148c-3.205195 0-6.085813 1.745795-7.586981 4.547187l-146.302943 273.643218c-2.758902 5.156185-2.596613 11.205568.405721 16.239954 3.002334 4.993786 8.276706 7.998177 14.119086 7.998177l88.366004.0406-20.651192 177.908691c-.284005 2.435994.486865 4.912586 2.109749 6.739581 1.622883 1.826995 3.976064 2.882592 6.450961 2.882592h.365149c3.205195 0 6.085813-1.745795 7.58698-4.547187l146.302944-273.643218c2.758901-5.196785 2.637185-11.246168-.365149-16.280554z"/></g></svg>