<svg height="960" viewBox="0 0 960 960" width="960" xmlns="http://www.w3.org/2000/svg"><path d="m865 331c39.764502 0 72 32.235498 72 72v155c0 39.764502-32.235498 72-72 72h-771c-39.764502 0-72-32.235498-72-72v-155c0-39.764502 32.235498-72 72-72zm-116.576429 40.00027-654.423571-.00027c-17.673112 0-32 14.326888-32 32v155c0 17.673112 14.326888 32 32 32l654.423896.000728c-.924221-2.833451-1.423896-5.858737-1.423896-9.000728v-201c0-3.141622.499558-6.166566 1.423571-8.99973zm-589.099352 36.761449c14.713541 0 26.416015 4.899088 35.107422 14.697265 8.691406 9.798177 13.037109 24.072266 13.037109 42.822266v31.347656l-.002567.792302c-.119786 18.423989-4.432081 32.433976-12.936886 42.029964-8.626302 9.733073-20.296224 14.599609-35.009766 14.599609-14.84375 0-26.595052-4.866536-35.253906-14.599609s-12.988281-24.007162-12.988281-42.822266v-31.347656l.00264-.800831c.121473-18.356087 4.433744-32.363231 12.936813-42.021435 8.626302-9.798177 20.328776-14.697265 35.107422-14.697265zm127.746093 0c14.713542 0 26.416016 4.899088 35.107422 14.697265 8.691407 9.798177 13.03711 24.072266 13.03711 42.822266v31.347656l-.002567.792302c-.119786 18.423989-4.432082 32.433976-12.936886 42.029964-8.626302 9.733073-20.296224 14.599609-35.009766 14.599609-14.84375 0-26.595052-4.866536-35.253906-14.599609s-12.988281-24.007162-12.988281-42.822266v-31.347656l.00264-.800831c.121473-18.356087 4.433743-32.363231 12.936813-42.021435 8.626302-9.798177 20.328776-14.697265 35.107421-14.697265zm127.746094 0c14.713542 0 26.416016 4.899088 35.107422 14.697265s13.03711 24.072266 13.03711 42.822266v31.347656l-.002567.792302c-.119786 18.423989-4.432082 32.433976-12.936887 42.029964-8.626302 9.733073-20.296224 14.599609-35.009765 14.599609-14.84375 0-26.595052-4.866536-35.253907-14.599609-8.658854-9.733073-12.988281-24.007162-12.988281-42.822266v-31.347656l.002641-.800831c.121472-18.356087 4.433743-32.363231 12.936812-42.021435 8.626302-9.798177 20.328776-14.697265 35.107422-14.697265zm127.746094 0c14.713542 0 26.416016 4.899088 35.107422 14.697265s13.037109 24.072266 13.037109 42.822266v31.347656l-.002567.792302c-.119786 18.423989-4.432081 32.433976-12.936886 42.029964-8.626302 9.733073-20.296224 14.599609-35.009766 14.599609-14.84375 0-26.595052-4.866536-35.253906-14.599609s-12.988281-24.007162-12.988281-42.822266v-31.347656l.002641-.800831c.121472-18.356087 4.433743-32.363231 12.936812-42.021435 8.626302-9.798177 20.328776-14.697265 35.107422-14.697265zm127.746094 0c14.713541 0 26.416015 4.899088 35.107422 14.697265 8.691406 9.798177 13.037109 24.072266 13.037109 42.822266v31.347656l-.002567.792302c-.119786 18.423989-4.432081 32.433976-12.936886 42.029964-8.626302 9.733073-20.296224 14.599609-35.009766 14.599609-14.84375 0-26.595052-4.866536-35.253906-14.599609s-12.988281-24.007162-12.988281-42.822266v-31.347656l.00264-.800831c.121473-18.356087 4.433744-32.363231 12.936813-42.021435 8.626302-9.798177 20.328776-14.697265 35.107422-14.697265zm161.015625 0c-14.778646 0-26.48112 4.899088-35.107422 14.697265-8.503069 9.658204-12.81534 23.665348-12.936813 42.021435l-.00264.800831v31.347656c0 18.815104 4.329427 33.089193 12.988281 42.822266s20.410156 14.599609 35.253906 14.599609c14.713542 0 26.383464-4.866536 35.009766-14.599609 8.504805-9.595988 12.8171-23.605975 12.936886-42.029964l.002567-.792302v-31.347656c0-18.75-4.345703-33.024089-13.037109-42.822266-8.691407-9.798177-20.393881-14.697265-35.107422-14.697265zm-672 21.972656c-6.445313 0-11.328125 2.604167-14.648438 7.8125-3.320312 5.208333-4.980469 13.476563-4.980469 24.804688v37.011718l.001934.670415c.064453 11.113515 1.740241 19.223376 5.027363 24.329585 3.352865 5.208334 8.284506 7.8125 14.794922 7.8125 6.380209 0 11.230469-2.604166 14.550781-7.8125 3.320313-5.208333 4.980469-13.541666 4.980469-25v-37.011718l-.002031-.672168c-.066354-10.919727-1.758385-18.947624-5.076094-24.083692-3.385416-5.240885-8.268229-7.861328-14.648437-7.861328zm127.746093 0c-6.445312 0-11.328124 2.604167-14.648437 7.8125s-4.980469 13.476563-4.980469 24.804688v37.011718l.001934.670415c.064453 11.113515 1.740241 19.223376 5.027363 24.329585 3.352865 5.208334 8.284505 7.8125 14.794922 7.8125 6.380208 0 11.230469-2.604166 14.550781-7.8125 3.320313-5.208333 4.980469-13.541666 4.980469-25v-37.011718l-.002031-.672168c-.066354-10.919727-1.758386-18.947624-5.076094-24.083692-3.385417-5.240885-8.268229-7.861328-14.648438-7.861328zm127.746094 0c-6.445312 0-11.328125 2.604167-14.648437 7.8125-3.320313 5.208333-4.980469 13.476563-4.980469 24.804688v37.011718l.001934.670415c.064453 11.113515 1.740241 19.223376 5.027363 24.329585 3.352864 5.208334 8.284505 7.8125 14.794922 7.8125 6.380208 0 11.230469-2.604166 14.550781-7.8125 3.320312-5.208333 4.980469-13.541666 4.980469-25v-37.011718l-.002032-.672168c-.066354-10.919727-1.758385-18.947624-5.076093-24.083692-3.385417-5.240885-8.268229-7.861328-14.648438-7.861328zm127.746094 0c-6.445312 0-11.328125 2.604167-14.648438 7.8125-3.320312 5.208333-4.980468 13.476563-4.980468 24.804688v37.011718l.001933.670415c.064454 11.113515 1.740241 19.223376 5.027364 24.329585 3.352864 5.208334 8.284505 7.8125 14.794921 7.8125 6.380209 0 11.230469-2.604166 14.550782-7.8125 3.320312-5.208333 4.980468-13.541666 4.980468-25v-37.011718l-.002031-.672168c-.066354-10.919727-1.758385-18.947624-5.076093-24.083692-3.385417-5.240885-8.26823-7.861328-14.648438-7.861328zm127.746094 0c-6.445313 0-11.328125 2.604167-14.648438 7.8125-3.320312 5.208333-4.980468 13.476563-4.980468 24.804688v37.011718l.001933.670415c.064453 11.113515 1.740241 19.223376 5.027363 24.329585 3.352865 5.208334 8.284506 7.8125 14.794922 7.8125 6.380209 0 11.230469-2.604166 14.550782-7.8125 3.320312-5.208333 4.980468-13.541666 4.980468-25v-37.011718l-.002031-.672168c-.066354-10.919727-1.758385-18.947624-5.076094-24.083692-3.385416-5.240885-8.268229-7.861328-14.648437-7.861328zm161.015625 0c6.380208 0 11.263021 2.620443 14.648437 7.861328 3.317709 5.136068 5.00974 13.163965 5.076094 24.083692l.002031.672168v37.011718c0 11.458334-1.660156 19.791667-4.980469 25-3.320312 5.208334-8.170572 7.8125-14.550781 7.8125-6.510416 0-11.442057-2.604166-14.794922-7.8125-3.287122-5.106209-4.96291-13.21607-5.027363-24.329585l-.001934-.670415v-37.011718c0-11.328125 1.660157-19.596355 4.980469-24.804688 3.320313-5.208333 8.203125-7.8125 14.648438-7.8125z"/></svg>