<svg height="960" viewBox="0 0 960 960" width="960" xmlns="http://www.w3.org/2000/svg"><path d="m777 480c-17.673112 0-32-14.326888-32-32v-51h-21c-17.673112 0-32-14.326888-32-32v-132c0-17.673112 14.326888-32 32-32h14.5v-70c0-11.045695 8.954305-20 20-20 10.930636 0 19.813225 8.768729 19.997093 19.655511l.002907.344489v70h94v-70c0-11.045695 8.954305-20 20-20 10.930636 0 19.813225 8.768729 19.997093 19.655511l.002907.344489v70h12.5c17.673112 0 32 14.326888 32 32v132c0 17.673112-14.326888 32-32 32h-15v51c0 17.673112-14.326888 32-32 32h-33c0 203.793249-164.972597 369-368.5 369s-368.5-165.206751-368.5-369c0-203.788103 164.975203-369 368.5-369 11.045695 0 20 8.954305 20 20 0 10.930636-8.768729 19.813225-19.655511 19.997093l-.344489.002907c-181.420559 0-328.5 147.290459-328.5 329 0 181.714549 147.076698 329 328.5 329 179.609069 0 325.555031-144.35447 328.45599-323.559005l.04401-5.440995zm-272.093987-217c2.216474 0 4.323941.934957 5.777367 2.553153 1.489761 1.618195 2.180139 3.811749 1.925789 5.969343l-18.494843 157.576269h79.139032c5.232333 0 9.955967 2.661033 12.644804 7.0841 2.688838 4.459027 2.797845 9.817052.327021 14.419919l-131.026331 242.369708c-1.344419 2.481232-3.924249 4.027508-6.794765 4.027508h-.327021c-2.216474 0-4.323942-.934957-5.777367-2.553153-1.453426-1.618195-2.143803-3.811749-1.889454-5.969343l18.494843-157.576269-79.139032-.03596c-5.232333 0-9.955966-2.661033-12.644804-7.0841-2.688838-4.459027-2.83418-9.817052-.363356-14.383959l131.02633-242.369708c1.344419-2.481232 3.92425-4.027508 6.794766-4.027508z"/></svg>