<svg height="960" viewBox="0 0 960 960" width="960" xmlns="http://www.w3.org/2000/svg"><g fill="#000" fill-rule="evenodd"><path d="m267 118c15.463973 0 28 12.536027 28 28v33h13c24.300529 0 44 19.699471 44 44l-.00673 79.343995c55.898634-37.480743 123.149464-59.343995 195.50673-59.343995 194.12809 0 351.5 157.37191 351.5 351.5s-157.37191 351.5-351.5 351.5c-125.612517 0-235.835715-65.889513-297.992938-164.991884l-125.507062-.008116c-24.300529 0-44-19.699471-44-44v-514c0-24.300529 19.699471-44 44-44h13v-33c0-15.463973 12.536027-28 28-28zm280.5 165c-172.0367 0-311.5 139.4633-311.5 311.5s139.4633 311.5 311.5 311.5 311.5-139.4633 311.5-311.5-139.4633-311.5-311.5-311.5z"/><path d="m548.04349 345.500579c137.557539.293199 248.95651 111.673172 248.95651 248.999421 0 137.528679-111.714708 249-249.5 249-136.248681 0-247.26008-109.092017-249.466614-244.888132l-.0294-3.449619c-.089707-11.108942 8.890745-20.162738 20.000055-20.162715l209.995959.000466.00086-209.499541c.000041-10.947085 8.794223-19.83654 19.697618-19.99988z"/></g></svg>