<?xml version="1.0" encoding="UTF-8"?>
<svg width="960px" height="960px" viewBox="0 0 960 960" version="1.1" xmlns="http://www.w3.org/2000/svg" xmlns:xlink="http://www.w3.org/1999/xlink">
    <!-- Generator: Sketch 60 (88103) - https://sketch.com -->
    <title>icon</title>
    <desc>Created with Sketch.</desc>
    <g id="icon" stroke="none" stroke-width="1" fill="none" fill-rule="evenodd">
        <path d="M502.633982,603.928034 C499.230442,610.875988 497.545553,618.843768 497.545553,627.60223 C497.545553,630.199831 497.692098,632.719821 497.989996,635.157629 L235.822,695.299 L496.508498,695.299458 C497.805639,707.112047 501.598726,717.009685 508.206371,724.700621 L106,724.7 C88.4940881,724.7 85.6504407,699.586432 102.713136,695.672176 L102.713136,695.672176 Z M644,723.647 L644.023532,723.865938 L644.065409,724.196455 C644.08858,724.365229 644.114383,724.533163 644.142776,724.700216 L643.857189,724.700424 C643.904072,724.424602 643.943896,724.146376 643.976468,723.865938 L643.976468,723.865938 L644,723.647 Z M699.000362,721.636254 C699.810599,722.699956 700.648911,723.721922 701.515168,724.701133 L698.773122,724.700159 C698.922307,723.822387 699,722.920266 699,722 L699,722 Z M797.770867,695.298708 L803.473867,724.699708 L784.523408,724.700862 C786.216932,722.79848 787.807547,720.734511 789.294509,718.516291 L789.680834,717.93295 L789.780101,717.779322 L790.112669,717.248749 C793.734518,711.366555 796.158243,703.9686 797.700264,694.93377 L797.635867,695.298708 L797.770867,695.298708 Z M891.713136,514.672176 C900.919515,512.560193 909.7,519.554478 909.7,529 L909.7,529 L909.699867,580.999708 L901.157205,581 L900.815405,581.0036 L900.469881,581.01458 C893.231557,581.322163 887.124838,586.465063 885.548465,593.480471 L885.548465,593.480471 L885.545,593.494 L885.526181,593.407686 L885.446052,593.075394 C884.612274,589.772129 882.774347,586.915614 880.29965,584.811328 L880.299,547.453 L746.814244,578.07485 C745.565948,578.024752 744.294552,578 743,578 C732.480085,578 723.489256,579.634557 715.998707,583.2221 L715.998707,583.2221 L715.423574,583.502813 L714.811049,583.813517 C713.296948,584.596744 711.833429,585.467422 710.420815,586.422987 L697.123408,589.474683 C694.430771,584.431717 689.116146,581 683,581 L683,581 L659.915888,581 L659.601017,581.003036 L659.26121,581.01315 C651.353223,581.331407 644.923073,587.389301 644.023532,595.134062 L644.023532,595.134062 L644,595.352 L643.976468,595.134062 L643.934591,594.803545 C642.864095,587.006261 636.175522,581 628.084112,581 L628.084112,581 L605,581 L604.657691,581.003589 C596.690672,581.170805 590.155791,587.161411 589.139776,594.890038 C588.401508,594.006589 587.626672,593.148971 586.814975,592.317758 C584.579854,590.028897 582.143752,588.021745 579.519831,586.291098 Z" id="Combined-Shape" fill="#000000" fill-rule="nonzero"></path>
        <path d="M165.703924,390.107533 C180.564178,402.584328 188.127885,422.24942 188.669986,448.64784 L188.684265,449.449853 L188.751836,454.923866 L132.709104,474.320657 L131.762218,466.297742 C130.322487,454.098974 127.131032,446.518163 122.795853,443.311626 C118.651964,440.246576 111.421054,439.891651 100.806924,442.970532 C89.2442942,446.324548 80.3117269,451.891271 73.8300472,459.685067 C70.0485298,464.219834 68.1587648,469.246487 68.0584023,474.996249 C67.9764587,479.690799 69.2537474,482.776424 71.8617874,484.874511 C75.6557537,487.918457 87.5412261,490.046638 106.536826,490.383596 L107.924748,490.404907 C129.897563,490.69199 146.27752,492.899506 157.274802,497.193207 C168.860586,501.716678 177.882444,509.919802 184.178502,521.569965 C190.354526,532.998017 193.19163,548.05739 192.86551,566.740804 C192.570456,583.644396 188.644568,600.499423 181.122313,617.264105 C173.545615,634.15012 162.95404,648.1891 149.378291,659.306361 C135.88185,670.358675 119.253801,678.730151 99.5454061,684.44704 C70.1527074,692.973092 46.9836594,690.728963 30.6241671,677.101319 C14.9158976,664.01615 5.93268061,641.813437 3.28016004,610.784403 L3.20171799,609.841428 L2.75980523,604.22301 L57.8225855,581.428912 L58.8975586,589.866573 C60.9594998,606.051126 65.3387691,616.607265 71.5325678,621.708628 C77.4058968,626.546045 85.7420741,627.527057 97.2003848,624.203301 C110.056033,620.474214 119.578776,614.319032 125.993949,605.746917 C132.517777,597.029614 135.775785,588.304095 135.93036,579.448486 C136.021505,574.226799 135.002805,570.484862 133.074014,568.015322 C131.33528,565.789123 127.728783,564.014361 122.009742,562.995826 L121.57932,562.92081 L120.84013,562.815042 L120.104595,562.721955 L119.296664,562.629887 C114.419737,562.100911 105.924578,561.623819 93.9321691,561.214519 L89.652989,561.075925 L87.4529461,561.009935 C62.661786,560.308733 44.9420638,555.527989 34.2562893,546.15207 C19.6224385,533.303018 12.5724715,514.66099 12.9895941,490.764048 C13.253911,475.621344 16.8362158,460.527459 23.6995168,445.526011 C30.604685,430.433051 40.4240154,417.590379 53.114701,407.057789 C65.7605107,396.562445 80.8896372,388.771809 98.4452755,383.679378 C127.635922,375.211936 150.230812,377.116176 165.703924,390.107533 Z M284.577519,346 L284.577,579.568904 L377.55543,554.032228 L377.55543,619.019675 L214.5,657.253297 L214.5,362.838922 L284.577519,346 Z M461.5,305.749334 L461.5,600.519585 L392.5,617.286666 L392.5,322.516415 L461.5,305.749334 Z M643.246227,266.598854 L643.819907,266.626796 C661.679241,267.613465 677.144863,273.375874 690.013312,283.896757 C702.723457,294.288215 712.34505,308.353141 718.877188,325.967677 C725.322136,343.347094 728.5,365.600633 728.5,392.773105 C728.5,416.657607 725.528418,438.043871 719.555782,456.92458 C712.271663,479.936383 701.832535,499.724133 688.233829,516.235172 C677.833881,528.898279 663.893443,540.116215 646.435322,549.927696 C633.769068,556.991726 617.208465,563.025261 596.71036,568.090064 L595.588377,568.365365 L594.477316,568.634218 L479.5,596.265113 L479.5,300.439604 L588.380107,274.273979 L590.332506,273.808991 L592.321312,273.344125 C614.052271,268.314362 630.970239,266.049125 643.246227,266.598854 Z M909.5,196.759192 L909.5,258.394896 L818.107,280.286 L818.107,330.173 L909.5,308.282157 L909.5,369.723919 L818.107,391.615 L818.107,455.904 L909.5,434.013139 L909.5,495.454921 L747.5,534.258814 L747.5,235.56297 L909.5,196.759192 Z M616.951931,332.518077 L616.354738,332.522114 L615.126248,332.545812 L614.544304,332.567284 C607.685437,332.870149 595.085199,335.102829 577.06767,339.262431 L574.06187,339.962447 L570.180102,340.883102 L549.5,345.834 L549.5,519.777 L584.135687,511.48575 C599.38788,507.834125 610.386111,504.361675 616.992455,501.165513 L617.336101,500.99755 C625.842797,496.835082 632.833556,491.594298 638.359928,485.270369 C643.759611,479.091412 648.339682,469.635879 651.957756,456.89505 C655.568983,444.17833 657.435061,427.389503 657.498356,406.604362 L657.500023,405.506717 L657.494934,403.581208 L657.480014,401.729703 L657.45524,399.907798 C657.153372,381.535656 655.327615,367.757347 652.091014,358.718468 C648.653126,349.117455 644.010753,342.384224 638.255926,338.329077 C632.908502,334.561007 626.068809,332.596586 617.576288,332.520289 L616.951931,332.518077 Z" id="Shape" fill="#000000" fill-rule="nonzero"></path>
        <path d="M549.33731,725 C561.430586,725 570.73102,721.915737 577.238612,715.747212 C583.746204,709.578686 587,700.812887 587,689.449814 C587,681.116894 585.373102,674.258468 582.119306,668.874535 C578.86551,663.490603 572.656182,657.768484 563.491323,651.708178 L563.491323,651.708178 L550.638829,643.023544 L550.394794,642.861214 C540.796095,636.476249 535.996746,630.659438 535.996746,625.410781 C535.996746,621.51487 537.067787,618.47119 539.20987,616.27974 C541.351952,614.08829 544.293926,612.992565 548.035792,612.992565 C553.133406,612.992565 556.793926,614.453532 559.017354,617.375465 C561.240781,620.297398 562.352495,625.140231 562.352495,631.903965 L562.352495,631.903965 L562.352495,635.231722 L584.478308,635.231722 C584.532538,634.744734 584.57321,634.17658 584.600325,633.527261 C584.62744,632.877943 584.640998,631.958075 584.640998,630.767658 C584.640998,618.917596 581.549892,609.827138 575.367679,603.496283 C569.185466,597.165428 560.291757,594 548.686551,594 C537.732104,594 529.136659,596.976043 522.900217,602.928129 C516.663774,608.880215 513.545553,617.104915 513.545553,627.60223 C513.545553,634.636514 514.941974,640.48038 517.734816,645.133829 C520.527657,649.787278 527.075922,655.685254 537.37961,662.827757 L537.37961,662.827757 L549.33731,671.268897 C555.302603,675.489467 559.180043,678.938971 560.969631,681.61741 C562.759219,684.295849 563.654013,687.501859 563.654013,691.23544 C563.654013,696.105328 562.366052,699.7848 559.79013,702.273854 C557.214208,704.762908 553.458785,706.007435 548.523861,706.007435 C543.805857,706.007435 540.484273,704.614106 538.559111,701.827447 C536.633948,699.040789 535.671367,693.805659 535.671367,686.122057 L535.671367,686.122057 L535.671367,678.086741 L512.32538,678.086741 L512.32538,678.57373 C512.10846,681.820322 512,684.147047 512,685.553903 C512,698.864932 515.077549,708.767038 521.232646,715.260223 C527.387744,721.753408 536.755965,725 549.33731,725 Z M628.084112,722 L628.084112,665.344156 L659.915888,665.344156 L659.915888,722 L683,722 L683,597 L659.915888,597 L659.915888,646.025974 L628.084112,646.025974 L628.084112,597 L605,597 L605,722 L628.084112,722 Z M743,725 C751.309333,725 758.006,723.782528 763.09,721.347584 C768.174,718.912639 772.574667,714.854399 776.292,709.172862 C778.916,705.060512 780.856667,699.040789 782.114,691.113693 C783.371333,683.186596 784,672.648699 784,659.5 C784,646.297191 783.385,635.745766 782.155,627.845725 C780.925,619.945684 778.970667,613.939488 776.292,609.827138 C772.574667,604.145601 768.174,600.087361 763.09,597.652416 C758.006,595.217472 751.309333,594 743,594 C734.690667,594 727.994,595.217472 722.91,597.652416 C717.826,600.087361 713.452667,604.145601 709.79,609.827138 C707.111333,613.831268 705.143333,619.796881 703.886,627.723978 C702.628667,635.651074 702,646.243081 702,659.5 C702,672.756919 702.628667,683.348926 703.886,691.276022 C705.143333,699.203119 707.111333,705.168732 709.79,709.172862 C713.452667,714.854399 717.826,718.912639 722.91,721.347584 C727.994,723.782528 734.690667,725 743,725 Z M743.164251,707 C736.594203,707 732.090982,704.332469 729.654589,698.997407 C727.218196,693.662345 726,680.703832 726,660.121867 L726.000392,659.474431 C726.025225,639.052146 727.229603,626.21466 729.613527,620.961971 C732.022544,615.65399 736.484702,613 743,613 C749.515298,613 753.977456,615.65399 756.386473,620.961971 C758.795491,626.269951 760,639.32325 760,660.121867 C760,680.920484 758.809179,693.93316 756.427536,699.159896 C754.045894,704.386632 749.624799,707 743.164251,707 Z M846.98378,722 L860.283843,643.022727 L874.719276,722 L902.292576,722 L925,597 L901.157205,597 L887.857143,693.590909 L869.934498,597 L850.633188,597 L834.332502,691.724026 L819.086089,597 L795,597 L819.248284,722 L846.98378,722 Z" id="SHOW" fill="#000000" fill-rule="nonzero"></path>
    </g>
</svg>