<svg height="960" viewBox="0 0 960 960" width="960" xmlns="http://www.w3.org/2000/svg"><path d="m284.991971 2.40978028 416.264543 38.39109372c28.813021 2.6573568 50.857079 26.8280403 50.857079 55.7633425v769.7229075c0 29.046726-22.208977 53.271747-51.146398 55.789269l-416.181881 36.207339c-4.756182.413782-9.548031-.027226-14.148797-1.302155l-21.591232-5.983196c-24.254439-6.721205-41.045285-28.797773-41.045285-53.966254v-836.8101643c0-28.5807812 21.52287-52.5755508 49.935567-55.67066232l19.051151-2.07532003c2.65949-.28970915 5.341336-.31188689 8.005253-.06620007zm-3.673515 39.83095892-2.793456.304v875.1149998l2.793456.774515 416.181881-36.207339c8.267834-.719292 14.613256-7.640727 14.613256-15.939791v-769.7229075c0-8.2672292-6.298302-15.1731388-14.530594-15.9323836zm-33.318456 17.9812235v836.8101643c0 6.767277 4.248685 12.752189 10.524992 15.03449l.00005-866.8815061c-6.192549 2.2515356-10.525042 8.1826181-10.525042 15.0368518zm176.790636 183.1987463 175.455239 9.62407c13.785396.756156 24.575989 12.154855 24.575989 25.960974v422.446045c0 13.884186-10.908875 25.318542-24.777711 25.971254l-175.455238 8.257481c-.407148.019161-.814691.028746-1.22229.028746-14.359403 0-26-11.640596-26-26v-440.327595c0-.474938.013014-.949787.039026-1.424012.786459-14.33785 13.047135-25.323423 27.384985-24.536963zm-7.415005 25.632357c-.006003.109436-.009006.219017-.009006.328618v440.327595c0 3.313709 2.686292 6 6 6 .094061 0 .18811 0 .282067-.006634l175.455238-8.257481c3.200501-.150625 5.717934-2.789323 5.717934-5.993366v-422.446045c0-3.186028-2.490137-5.816497-5.671382-5.990994l-175.455239-9.62407c-3.308735-.18149-6.138121 2.353642-6.319612 5.662377zm110.071881 382.765086v26.933011l-38.179196 2.314739v-27.749286c0-8.597236 8.546704-15.80219 19.089598-16.090665 10.542894-.286208 19.089598 6.247861 19.089598 14.592201zm-.026659-100.75225 12.007358.597639v55.228632l-12.007358.273146zm-52.421388 4.853445 13.43022.582573v44.976724l-13.43022.322493zm14.391663-103.866973 43.641961.2475c8.91875.051095 16.311602 7.025481 16.311602 15.82235v42.871475c0 8.75669-7.331654 15.777124-16.212827 15.953358l-43.641283.865995c-9.023716.179062-16.490581-6.858817-16.490581-15.813052v-44c0-8.91378 7.40423-15.997705 16.391128-15.947626zm-.078849 14.000269c-1.34276-.007517-2.312279.920061-2.312279 1.947357v44c0 .98689.906936 1.841721 2.212827 1.815807l43.641283-.865995c1.448434-.028742 2.490581-1.02665 2.490581-1.956113v-42.871475c0-.889179-.980837-1.814496-2.391315-1.822577zm38.135233-75.234491v26.933011l-38.179196 2.314739v-27.749286c0-8.597236 8.546704-15.80219 19.089598-16.090665 10.542894-.286208 19.089598 6.247861 19.089598 14.592201zm-.026659-100.75225 12.007358.597639v55.228632l-12.007358.273146zm-52.421388 4.853445 13.43022.582573v44.976724l-13.43022.322493z"/></svg>