<svg height="960" viewBox="0 0 960 960" width="960" xmlns="http://www.w3.org/2000/svg"><path d="m765.605561 243.661276 164.324119 71.279933c14.77728 6.410037 24.267967 21.058332 24.082032 37.164883l-3.107297 264.990958c-.244339 20.855874-16.473028 38.023458-37.282233 39.439159l-13.807852.939382c-7.3691.501337-14.733116-1.047485-21.275926-4.474818l-15.072387-7.895207-291.035 17.689-.145085.146433c-13.54397 13.336468-34.310761 17.826679-52.734263 9.858922l-.726004-.320995-5.793648-2.61836-.084207.071888c-13.470191 10.976356-32.427059 14.206221-49.395912 6.867571l-.725998-.320993-4.091883-1.849466-.147735.108138c-13.26867 9.505724-31.03518 11.98162-47.034384 5.062321l-.725998-.320993-4.091883-1.849466-.147735.108138c-13.26867 9.505724-31.03518 11.98162-47.034384 5.062321l-.725998-.320993-3.252883-1.470466-.386733.292227c-13.329888 9.865451-31.39277 12.523369-47.634386 5.499232l-.725998-.320993-1.672883-.756466-.40339.267578c-13.043501 8.458954-29.925762 10.414666-45.197729 3.809881l-.725998-.320993-2.111883-.954466-.12008.134762c-6.607579 7.260259-15.867216 12.093229-26.323323 12.945865l-.628791.04637-19.40983 1.28027c-6.533915.430976-13.073722-.748715-19.045237-3.435498l-159.0313009-71.553469c-14.4723893-6.511609-23.7265618-20.963202-23.58744796-36.832396l2.39480126-269.932989c.1865391-21.03989 16.6411099-38.338365 37.6453902-39.576105l698.7263384-41.17454c6.259673-.36887 12.518392.739083 18.271024 3.23444zm148.288899 117.999284-696.296 40.587v260.111l9.410688-.620266.004312-4.781734.015557-13.246994.086585-76.126566 19.347375-1.159271c2.011991-.728989 4.175388-1.144806 6.431975-1.188108l19.731508-.379061 23.896512-1.430756c1.404401-.342456 2.867478-.536913 4.37198-.565783l7.459508-.143461 39.898005-2.390246c1.486697-.384709 3.041127-.603031 4.642487-.633759l8.768508-.168995 504.234191-30.203953c1.43463-.472038 2.943646-.787419 4.507881-.925209l13-1.145145c11.693069-1.030021 21.754966 8.184505 21.754966 19.922853l-.000038 69.846454 5.7467-.390103zm-863.0309998-29.186-2.295443 258.990535 149.0304428 67.054465v-259.27zm230.4149998 252.22-7.872.151-20.128 1.206.000206 57.0269 22.018172 9.949122c2.659217 1.201593 5.629238.829159 7.863692-.72225-1.215546-2.597668-1.881864-5.476422-1.881864-8.469542zm52-2.453-24.122.463-2.639131.158427c.048793.569999.073696 1.146902.073696 1.729714l-.000565 57.885859 16.706378 7.549022c4.026316 1.81933 8.765148.030214 10.584477-3.996102l.077823-.18577c-.445377-1.661957-.680472-3.399496-.680472-5.177386zm52-3.167-22.834.438-7.975865.478144c.080892.730848.12243 1.473695.12243 2.226397l-.000565 54.453459 20.706378 9.357022c3.902206 1.76325 8.47368.137082 10.408021-3.630191-.280645-1.331844-.426193-2.705764-.426193-4.104667zm52-2.376-30.763809.59035c.050559.580083.076374 1.167341.076374 1.760725l-.000565 54.620925 20.706378 9.357022c3.842931 1.736466 8.334951.185704 10.318059-3.460002-.221824-1.189581-.336231-2.4102-.336231-3.650455zm53.312565-2.400125-32.076304.615683c.050513.579821.076304 1.166809.076304 1.759917l-.000565 53.996525 20.706378 9.357022c4.026316 1.81933 8.765148.030214 10.584477-3.996102l.147538-.348221c.371012-.936708.562172-1.936191.562172-2.945967zm56-3.167466-33.312359.639238-.000206 54.546353.465557-.027994 21.552821 9.739016c4.026316 1.81933 8.765148.030214 10.584477-3.996102l.147538-.348221c.371012-.936708.562172-1.936191.562172-2.945967zm305.568992-20.951403-285.933919 17.127486c.239464 1.237372.364927 2.51576.364927 3.823917l-.000565 51.944591 285.57-17.357v-19.297zm33.000481-3.00746-13 1.145145v56.186841l12.999962 6.809468zm-350.931684-138.172106c17.062069 0 29.262711 15.52809 29.262711 33.152542s-12.200642 33.152543-29.262711 33.152543c-12.036786 0-21.654096-7.728153-26.275096-18.468518-4.087005 12.135537-14.284063 21.197331-27.318125 21.197331-11.918966 0-21.46559-7.577603-26.137967-18.153999-3.993225 12.343142-14.273383 21.611626-27.455253 21.611626-12.059067 0-21.689691-7.756789-26.300706-18.528191-4.103943 12.097378-14.285638 21.121412-27.292514 21.121412-11.91859 0-21.464987-7.577124-26.137525-18.152997-3.993811 12.342268-14.273917 21.610624-27.455696 21.610624-11.91859 0-21.464986-7.577124-26.137524-18.152997-3.994223 12.34264-14.274181 21.610624-27.455696 21.610624-17.06207 0-29.262712-15.52809-29.262712-33.152542s12.200642-33.152543 29.262712-33.152543c11.919343 0 21.466193 7.578082 26.13841 18.155002 3.992228-12.343645 14.272584-21.612629 27.45481-21.612629 11.918913 0 21.465503 7.577534 26.137904 18.153855 3.993288-12.342998 14.273446-21.611482 27.455317-21.611482 12.059066 0 21.689691 7.75679 26.300705 18.528191 4.103943-12.097378 14.285638-21.121411 27.292515-21.121411 11.918966 0 21.46559 7.577603 26.137967 18.153999 3.993225-12.343142 14.273383-21.611626 27.455253-21.611626 12.03716 0 21.654692 7.728632 26.275526 18.469517 4.086015-12.136039 14.283275-21.198331 27.317695-21.198331zm-267.966102 30.694915c-7.877078 0-14.262712 8.12717-14.262712 18.152543 0 10.025372 6.385634 18.152542 14.262712 18.152542s14.262712-8.12717 14.262712-18.152542c0-10.025373-6.385634-18.152543-14.262712-18.152543zm53.59322-3.457627c-7.877078 0-14.262712 8.12717-14.262712 18.152543 0 10.025372 6.385634 18.152542 14.262712 18.152542s14.262712-8.12717 14.262712-18.152542c0-10.025373-6.385634-18.152543-14.262712-18.152543zm53.593221-3.457627c-7.877079 0-14.262712 8.12717-14.262712 18.152542 0 10.025373 6.385633 18.152543 14.262712 18.152543 7.877078 0 14.262711-8.12717 14.262711-18.152543 0-10.025372-6.385633-18.152542-14.262711-18.152542zm53.59322-2.59322c-7.877078 0-14.262712 8.12717-14.262712 18.152542s6.385634 18.152542 14.262712 18.152542 14.262712-8.12717 14.262712-18.152542-6.385634-18.152542-14.262712-18.152542zm53.59322-3.457627c-7.877078 0-14.262712 8.12717-14.262712 18.152542s6.385634 18.152542 14.262712 18.152542 14.262712-8.12717 14.262712-18.152542-6.385634-18.152542-14.262712-18.152542zm53.593221-2.728814c-7.877079 0-14.262712 8.12717-14.262712 18.152542 0 10.025373 6.385633 18.152543 14.262712 18.152543 7.877078 0 14.262711-8.12717 14.262711-18.152543 0-10.025372-6.385633-18.152542-14.262711-18.152542zm78.131694-14.747415v38l-26.360508 1.747415v-38zm35.87958-2.378426v38l-26.360508 1.747415v-38zm35.879581-2.378427v38l-26.360508 1.747416v-38zm35.147344-2.329887v38l-26.360508 1.747416v-38zm35.87958-2.378426v38l-26.360508 1.747415v-38zm35.87958-2.378426v38l-26.360508 1.747415v-38zm35.79686-2.372943v38l-26.360508 1.747415v-38zm35.87958-2.378426v38l-26.360508 1.747415v-38zm35.87958-2.378426v38l-26.360508 1.747415v-38zm-148.894619-109.921632-677.3521138 39.913994 137.1527758 62.415546 684.166224-39.880546zm-40.187574 18.142434c9.442009 0 18.362929 1.160994 25.186614 3.26059 3.69027 1.135467 6.781311 2.543265 9.171431 4.281997 3.434051 2.498157 5.641955 5.818082 5.641955 9.957413s-2.207904 7.459256-5.641955 9.957413c-2.39012 1.738732-5.481161 3.14653-9.171431 4.281997-6.823685 2.099596-15.744605 3.26059-25.186614 3.26059s-18.362929-1.160994-25.186614-3.26059c-3.69027-1.135467-6.781311-2.543265-9.171431-4.281997-3.434051-2.498157-5.641955-5.818082-5.641955-9.957413s2.207904-7.459256 5.641955-9.957413c2.39012-1.738732 5.481161-3.14653 9.171431-4.281997 6.823685-2.099596 15.744605-3.26059 25.186614-3.26059zm0 15c-7.780796 0-15.021254.91065-20.273318 2.446684l-.178222.052876.178222.053756c5.082643 1.486485 12.027465 2.387282 19.522073 2.443851l.751245.002833c7.780796 0 15.021254-.91065 20.273318-2.446684l.177142-.053756-.177142-.052876c-5.082643-1.486485-12.027465-2.387282-19.522073-2.443851z"/></svg>