<svg height="960" viewBox="0 0 960 960" width="960" xmlns="http://www.w3.org/2000/svg"><path d="m159.041747 33.1108915 686.502879 30.9029948c57.874322 2.6052183 103.455374 50.2842647 103.455374 108.2171937v597.628447c0 56.96679-44.122132 104.200143-100.956933 108.075792l-686.502879 46.813652c-2.453056.167278-4.911096.250989-7.369849.250989-8.268092 0-16.444155-.933698-24.475288-2.785635l-.320448-.074594-.878021-.209972-.875715-.218122-32.3028495-7.935024c-.5345605-.131312-1.0644039-.273038-1.5735919-.457378-48.6332189-11.209859-83.7444256-54.687728-83.7444256-105.418269v-657.762541c0-1.589278.0349748-3.178363.104899-4.766102 2.184122-49.5939378 37.6856387-90.9256567 85.4924464-101.1006528l-.0085441-.0347684 28.9182177-7.1062663c2.909782-.8362015 5.859021-1.5429015 8.838642-2.1249254l.009385.048046.205767-.0348936-.010241-.0529721 6.294624-1.0249889c6.327417-.8393551 12.746482-1.1203605 19.196551-.83001zm-72.972592 105.2882285c-.0460975 1.023803-.069155 2.048513-.069155 3.073352v675.381584c0 30.188672 19.578203 55.804609 46.730234 64.843437l1.022732.331479 3.410014.837484c.446617.114412.894996.224424 1.34509.329985l.247524.057564c4.953931 1.142306 10.113843 1.745955 15.414745 1.745955 1.550851 0 3.101252-.052801 4.64851-.15831l686.502879-46.813652c35.848374-2.444554 63.678272-32.236845 63.678272-68.168471v-597.483781c0-36.540734-28.749679-66.614017-65.25343-68.257626l-686.346437-30.9032743c-37.697646-1.6973654-69.6336126 27.4866283-71.330978 65.1842743zm-5.8842632-44.9590071-.0141837.0126786c-17.3448037 11.6950485-29.1134789 31.1757455-30.1045434 53.6794295-.0441045 1.001461-.0661647 2.003772-.0661647 3.006204v657.762541c0 23.473261 11.8367285 44.181906 29.8669544 56.482704-8.7786507-13.721534-13.8669544-30.031356-13.8669544-47.529614v-675.381583l.022353-1.986981c.0148997-.662202.037249-1.324235.0670444-1.985975.7326796-16.272453 5.823867-31.317772 14.0954944-44.0594041zm513.6245922 72.6845761c161.443325 37.272129 259.838462 205.91671 220.51435 376.248152-39.324111 170.331441-201.689994 278.774598-363.133318 241.50247-161.443325-37.272129-259.838462-205.91671-220.51435-376.248152 39.324111-170.331441 201.689994-278.774598 363.133318-241.50247zm-224.150084 64.977796.589805-.292767c21.190723-10.537957 43.815932-18.356529 67.309807-23.148099.872324-2.335168 2.601109-4.284907 4.875959-5.42537 24.181398-12.122993 48.124161-18.236249 71.751023-18.236249h.106343c22.829313 0 55.875882 4.514945 99.385975 13.508948 7.074178 1.462308 10.311649 9.712789 6.119786 15.595869-3.320933 4.660769-6.472037 9.174599-9.453102 13.539938l-.089262-.040246c11.026315 4.894963 21.671728 10.509419 31.853658 16.847403 1.58684-1.10874 3.189095-2.224328 4.803616-3.345191 2.540986-1.764051 5.733188-2.240284 8.646328-1.342638.431225.12679.855945.283703 1.271881.470728 26.51656 11.923175 47.976301 27.055707 64.283095 45.430229 15.9091 17.9264 32.768192 43.543807 50.695086 76.915669 3.230989 6.014658-.382072 13.426856-7.11035 14.586889-3.368611.580788-6.660059 1.168325-9.87415 1.762443l-.046384-.119357c18.962172 48.082364 23.3496 100.467344 11.996274 151.643134 3.802333 32.452706-.782032 61.221346-13.904291 86.118696-3.411659 6.473068-12.392135 7.210431-16.813957 1.38055-1.115676-1.470945-2.229406-2.927943-3.341186-4.370995l.035414-.055795c-18.819576 29.894572-43.595939 55.729956-72.864525 76.074689-4.471169 9.551821-11.140134 18.230504-20.172163 26.181069-20.031889 17.633341-43.833955 31.500759-71.342089 41.604777-5.672223 2.083465-11.410516-1.260143-13.015501-6.421503l-.039434-.130239c-.532915-1.583225-.674661-3.345793-.300335-5.180319.834384-4.089217 1.617601-8.127762 2.341432-12.107414-28.733705 5.913896-58.419384 7.240847-88.074596 3.753449-5.623368 4.906402-11.679829 9.847344-18.167524 14.824855-2.77775 2.131154-6.467768 2.654402-9.728499 1.37951-25.64283-10.025926-46.608677-19.626862-62.937191-28.842417-14.314279-8.078752-28.655302-21.181962-43.155331-39.273125l.411267.298839c-20.514612-14.816957-38.77282-32.278896-54.322307-51.789676 37.065288 64.876222 98.213112 113.921813 174.305565 131.48914 150.407259 34.724252 302.248496-66.68956 339.146896-226.514089s-55.118711-317.537477-205.52597-352.261729c-78.301726-18.077378-156.992092.7417-219.651063 45.490394zm92.98718 341.597684-.052448.105271c-15.910261 32.03908-30.125621 54.949343-42.880649 68.906216-17.56206 19.216849-39.481873 30.672031-65.431603 34.1017 11.763736 13.992443 23.098862 24.013494 33.897765 30.104765 14.297099 8.064477 32.661384 16.579554 55.114823 25.519221 5.588503-4.403428 10.776545-8.754516 15.580026-13.054316.587497-.525893 1.229134-.97535 1.909825-1.343724 18.555649-16.86918 31.065194-32.878131 37.639744-47.898101 6.058664-13.841396 7.941522-40.511155 5.174598-79.304259-1.343342-.254881-2.686929-.538292-4.03041-.848459-13.607329-3.1415-26.021133-8.754692-36.921671-16.288314zm143.434246-17.7786-1.185084 1.26308c-10.001 10.508099-21.766734 19.01329-34.632302 25.069022 10.024859 28.67919 15.080142 53.191646 15.080142 73.656287 0 22.909278-2.367005 48.026056-7.129007 75.399731l-.156157.071588c18.247044-8.306605 34.339066-18.626071 48.329734-30.934556 7.486533-6.586382 12.669376-13.527618 15.929245-21.090084.271342-.629478.605353-1.226361.995247-1.782435 5.924224-15.701887 4.329164-35.196049-3.512477-62.785424-4.803247-16.899347-16.019207-36.580213-33.719341-58.867209zm-54.558458 33.415163c-9.06722 2.475879-18.391494 3.724645-27.772427 3.71989 2.658318 39.970514.449169 68.076624-7.004215 85.104347-5.850531 13.365904-15.275882 26.926096-28.253476 40.739487 24.517741 1.226396 48.900596-1.014884 72.51407-6.59602 2.893675-20.24869 4.337262-39.048497 4.337262-56.394478 0-17.839055-4.565038-40.056207-13.821214-66.573226zm73.976623-61.651811-.709786 1.412979c-1.209359 2.364016-2.490181 4.676286-3.838786 6.934341-.743905 1.249073-1.507777 2.48452-2.293415 3.704806 21.029389 25.723288 34.484827 48.838521 40.381183 69.58377 5.607697 19.729654 8.277473 35.600599 7.814053 49.806578 20.922259-17.690519 38.727741-38.671785 52.616546-62.190243-12.477545-15.158064-24.699726-28.507132-36.659929-40.04771-12.105408-11.680689-33.418399-21.843564-57.309866-29.204521zm-181.222568 30.356765c-22.809811 13.096966-44.826023 23.65922-66.063531 31.705525-28.438123 10.774419-59.213254 16.324121-92.275224 16.669254 12.990405 19.023713 28.597815 36.314739 46.398068 51.32618.628567-.122334 1.285027-.186611 1.965361-.186611h13.325801c23.096775-2.238919 42.050834-11.62528 57.32309-28.336569 11.771802-12.881002 25.784646-35.764969 41.799299-68.583934-.855601-.832189-1.678626-1.698662-2.472864-2.593845zm227.887562-107.42377c-10.065865 0-21.827028 1.333785-35.251377 4.021158 2.278471 14.832989 1.824491 30.428986-1.783161 46.055444-.651964 2.823969-1.396064 5.601893-2.228157 8.330992 26.010107 8.150092 49.192039 19.380986 63.79497 33.471572 13.678833 13.198909 27.602602 28.565051 41.784451 46.13553.315277.301734.615181.627975.898183.979565.678835.843353 1.358261 1.691679 2.03922 2.552823 6.270154-17.856835 8.02293-38.009085 5.26153-60.549615-.052469-.428291-.07707-.858762-.073943-1.288726-.990344-7.600878-2.494561-15.47009-4.511067-23.609776-6.56205-26.487903-16.774102-41.660893-30.333486-49.193637-10.039101-5.577096-19.714996-6.90533-39.597163-6.90533zm-397.917499 3.215306c-3.566971 18.709945-4.871424 34.579159-3.971628 47.573769 1.130311 16.323662 6.837578 44.701137 17.172367 84.927206 30.122664-.433868 57.99056-5.55673 83.679744-15.289651 19.549026-7.406586 39.8997-17.105436 61.044258-29.101939-10.518307-16.481191-16.941634-35.813168-18.236902-56.212259l-77.665105-.000245c-19.465032 0-40.01115-10.796541-62.022734-31.896881zm162.111468.971281c-12.138763 52.578761 18.319148 104.293959 67.709318 115.696578 38.988035 9.001097 78.38464-9.74726 99.220991-43.906993.036345-.059018.072056-.118177.107707-.177375l-.107707.177375c.104259-.170927.208054-.342239.311382-.513935l-.203675.33656c2.776806-4.61078 5.195728-9.463839 7.227822-14.52114.129748-.322904.274665-.635626.433639-.937614 1.865225-4.720183 3.404162-9.649358 4.584615-14.762462 3.566084-15.446408 3.455876-30.818286.269371-45.115432-.248436-.547042-.447269-1.124692-.594105-1.728517-1.175368-4.833388-2.706024-9.54911-4.575368-14.103507-.244786-.596389-.428366-1.206494-.552544-1.822292-11.276078-26.087163-33.573842-46.304877-62.256672-52.92683-49.39017-11.40262-99.43601 21.726823-111.574774 74.305584zm399.133725 1.517484c2.870661-13.5054 15.051253-22.359272 27.206113-19.775677s19.68119 15.626303 16.810529 29.131703-15.051253 22.359272-27.206113 19.775677-19.68119-15.626303-16.810529-29.131703zm-100.403411-73.452433-.156548.033317c-30.596586 6.616266-52.391832 13.935521-65.152223 21.754301-10.056841 6.162212-22.708834 16.007698-37.877601 29.535998.11654.332569.229073.6672.34015 1.002455l-.199937.041137c15.051611-3.0797 28.40619-4.618846 40.121876-4.618846 10.738016 0 16.511278.215747 23.417967 1.163845 9.536415 1.309087 18.044468 3.898712 25.891812 8.258205 13.195399 7.330537 23.711756 19.275601 31.511795 36.598683.337101-32.055517-5.749421-63.821468-17.897291-93.769095zm-381.630519-118.442704-.825231.540754c-9.029876 5.954009-17.671826 12.486166-25.860998 19.563171l-2.075081 1.817349c-31.288684 36.300968-53.634643 80.26603-64.817809 128.724728-3.366006 14.58552-5.64411 29.247398-6.851991 43.880508 1.405919-8.73037 3.299153-18.012039 5.676475-27.849785 1.889763-7.820147 11.770827-10.320763 17.152973-4.34093 23.656397 26.283439 44.011348 38.967458 60.413236 38.967458l46.267792.000478c-12.1448-4.5392-22.96191-10.144457-32.444232-16.828932-13.733194-9.681089-35.250136-29.14301-64.885535-58.604492-2.293589-2.280129-3.342853-5.528707-2.816389-8.71969 4.405764-26.704049 13.533212-49.68041 27.420808-68.805908 9.596011-13.215271 24.130585-29.303336 43.645982-48.344709zm27.967847.956684c-25.991577 24.312866-44.490336 44.073225-55.430317 59.139362-11.127334 15.324165-18.793959 33.716542-22.922592 55.317855 26.942637 26.631035 46.548139 44.258213 58.543585 52.714292 14.171532 9.990091 32.273425 17.346457 54.355328 21.987374.272373-1.411502.572773-2.824094.898953-4.236935 6.642623-28.772364 22.849608-52.764978 44.240994-69.036227-17.591588-13.245616-30.758067-24.760244-39.561959-34.655392-12.742335-14.321767-25.956976-41.243334-40.123992-81.230329zm272.24357-4.491155.016503-.011289c-33.250927 23.232867-55.684934 40.431313-67.103547 51.379025-7.102559 6.809652-13.712955 14.838776-19.824694 24.101016-.150673.228342-.306846.447414-.468105.657352-1.566083 13.278927-1.722885 22.71658-.568722 27.976721 25.018027 9.28002 45.041317 27.338895 57.668711 50.028486 13.91008-12.114868 25.86579-21.246335 35.940989-27.419796 15.945424-9.770372 41.81252-18.227916 77.982607-25.614889.550395-.219152 1.129499-.392323 1.73453-.51447 2.725242-.550187 5.508514-1.094659 8.367534-1.631698-14.739854-26.195502-28.556841-46.525321-41.375467-60.961172-13.283086-14.958909-30.69577-27.6409-52.370339-37.989286zm-139.423455-55.892367.046626-.000012c-18.886711 0-38.218039 4.583761-58.062317 13.895533-4.163216 31.289991-4.563379 56.960578-1.328993 76.988112 2.182874 13.516496 11.050188 38.051226 26.526746 73.008737 19.457646-9.230527 41.449358-12.851134 63.666325-9.31124-.501112-11.853707 1.247206-28.323583 5.104705-49.888698.662451-5.272188 1.460722-10.052246 2.398615-14.347689 3.575893-16.377181 14.726897-38.708042 33.515716-67.434428.208166-.452655.453235-.895283.736225-1.325619 2.445307-3.718537 5.018452-7.545491 7.723143-11.484158-34.892818-6.736421-61.719497-10.093368-80.326791-10.100538zm-79.458867 24.608564-.205488.047738c-13.736345 3.246312-27.125535 7.601962-40.029317 12.995959.324373.565966.599452 1.176061.817627 1.827972 15.270818 45.629426 29.199861 75.439566 41.121955 88.839422 3.658467 4.11194 8.292105 8.64715 13.94691 13.616371-8.454414-21.07798-13.51547-36.927249-15.281684-47.863768-3.090189-19.134652-3.196148-42.268882-.370003-69.463694zm164.392592 14.936526-.108277.16909c-14.580411 22.930431-23.439315 40.801731-26.535766 53.312283.067177-.070375.13627-.136756.20541-.203045 10.063706-9.648682 27.238496-23.176755 51.646871-40.709702-8.145629-4.630323-16.558082-8.826877-25.208238-12.568626z"/></svg>