<svg height="974" viewBox="0 0 974 974" width="974" xmlns="http://www.w3.org/2000/svg"><path d="m752.459408 6.23409776 31.31075 6.12548794 24.968173-.0000004c2.302241 0 4.600184.1987611 6.868233.5940692l20.167952 3.5151609c19.152787 3.3382234 33.131767 19.9644033 33.131767 39.4059308v793.4928538c0 19.93616-14.680376 36.828889-34.421723 39.609125-89.882013 12.658366-180.234344 24.687289-271.056983 36.086787-91.611769 11.498545-210.998099 21.60289-358.30557 30.345541-7.119082.422515-14.221676-1.06596-20.572105-4.31125l-12.998595-6.642735c-5.035356-2.573242-9.368166-6.1268-12.812379-10.360444-2.431122-.674722-4.796346-1.592343-7.065802-2.732501l-38.723772-19.45454c-13.5137593-6.789214-22.043071-20.619483-22.043071-35.742813v-805.2777809c0-21.4482211 16.916652-39.0792176 38.346541-39.9658113l613.873301-25.39706013c3.128158-.12941765 6.260695.10887347 9.333283.70998009zm-247.952742 69.78020694c-72.165437 3.3448884-172.691138 6.8029599-301.577104 10.3742144l-.000279 829.0794099 1.734-.103 1.955421-.127572c121.499687-7.983541 219.042107-15.861112 292.627259-23.632712 73.302389-7.741736 181.188178-21.541602 323.657367-41.399599l.002953-789.3302998c-5.944421.4158791-11.827635.8260263-17.649643 1.2304417l-.001602-4.5836376c-132.33708 9.1691826-232.586537 15.333434-300.748372 18.4927544zm-320.805708 4.856246-.561093.0154333c-1.283188.0356899-2.569211.0713912-3.858071.1071037l-.000511 814.6258413h3.648l.000279-809.2304099c0-1.9128134.268913-3.7642485.771396-5.5179684zm-20.834283-11.3055031-31.960392 1.3219415v805.2777809l28.375 14.255159.000511-809.4268413c0-4.2437222 1.323613-8.1853352 3.584881-11.4280401zm-18.328097 693.5939694c4.219702 0 7.640446 8.13553 7.640446 18.171214 0 10.035685-3.420744 18.171215-7.640446 18.171215-4.219701 0-7.640445-8.13553-7.640445-18.171215 0-10.035684 3.420744-18.171214 7.640445-18.171214zm0-53.557262c4.219702 0 7.640446 8.135529 7.640446 18.171214 0 10.035684-3.420744 18.171214-7.640446 18.171214-4.219701 0-7.640445-8.13553-7.640445-18.171214 0-10.035685 3.420744-18.171214 7.640445-18.171214zm0-55.470023c4.219702 0 7.640446 8.13553 7.640446 18.171215 0 10.035684-3.420744 18.171214-7.640446 18.171214-4.219701 0-7.640445-8.13553-7.640445-18.171214 0-10.035685 3.420744-18.171215 7.640445-18.171215z" transform="translate(0 .1748)"/></svg>