<svg height="960" viewBox="0 0 960 960" width="960" xmlns="http://www.w3.org/2000/svg"><path d="m758.398562 455.000387c.856197.004377 1.352374.044346 1.352374.044346 20.252104 1.021133 22.2797 21.41977 22.2797 21.41977 3.035431 17.33824-2.027596 50.996591-2.027596 50.996591-13.164464 137.690795-69.868568 172.367276-69.868568 172.367276-47.59185 36.718747-91.134472 22.437899-91.134472 22.437899 49.616464-34.67648 62.780929-82.612675 62.780929-82.612675l9.112254 7.138922c36.454981-45.896932 40.50421-137.690796 40.50421-137.690796l.000438-.100257c.000073-.011201.000158-.02335.000257-.036453l.000783-.090106c.014945-1.541424.181005-11.065415 2.026117-32.410401.849086-19.705588 18.847296-21.419578 24.584987-21.463591zm-316.194257-88.000387c15.273113 42.831808 16.289521 121.35729 16.289521 121.35729 3.055222 114.219157 43.783522 162.153064 43.783522 162.153064 45.819337-47.933907 46.838743-167.25216 46.838743-167.25216 0-30.594578 26.471596-28.55554 26.471596-28.55554 22.399965 3.060059 20.36415 31.615598 20.36415 31.615598 0 120.339273-40.7283 179.489391-40.7283 179.489391-32.194605 55.956365-86.407995 58.109747-93.840116 58.137034l-.413901-.000675c-.289688-.002164-.439879-.007262-.439879-.007262-63.128264 2.039038-96.729711-45.891867-97.746119-45.891867-41.747707-59.150117-43.783522-165.210119-43.783522-165.210119 18.328334-13.258251 16.289521-50.990963 16.289521-50.990963-4.071631-46.912887 13.237297-94.843791 13.237297-94.843791 4.521729 14.33777 5.139151 25.884919 5.154542 30.920203l-.000007.393923c-.00478 1.518024-.063498 2.34051-.063498 2.34051-6.107446 64.246211-4.07163 83.624579-4.07163 83.624579 1.016408 14.276268 9.162668 20.396385 9.162668 20.396385 10.865437 12.860503 11.1914 32.437277 11.201179 33.600309l.000302.054327c13.237297 139.714637 83.492415 135.636562 83.492415 135.636562-32.58204-57.11108-42.764115-156.032947-42.764115-156.032947-.743567-8.928171 2.848609-12.970509 4.847053-14.504425l.188223-.140692c.639976-.465575 1.075168-.652172 1.075168-.652172 10.182075-8.159155 9.162668-20.396385 9.162668-20.396385 3.055222-67.309273 16.292519-115.240177 16.292519-115.240177zm227.140414 88.000754c.159026.001622.243381.005294.243381.005294 21.739543 2.965581 22.391729 25.101997 22.411295 26.427513l.000583.055099c-.316162 7.588159-1.023839 17.714982-1.849898 28.080602l-.161287 2.008612c-.127113 1.571427-.256533 3.144913-.387314 4.71247l-.112408 1.341982c-1.70925 20.325721-3.602771 39.263712-3.602771 39.263712-12.2244 94.758291-55.0113 132.456987-55.0113 132.456987-42.7869 46.870595-101.875 32.604196-101.875 32.604196 41.503293-27.673903 60.00271-79.312056 60.144441-81.457159l-.001441-.032062 10.14955 6.091829c42.362001-52.455343 44.781987-165.822032 44.82615-168.08412l.00065-.034363c1.853579-22.254412 21.424316-23.412564 24.932035-23.440771zm189.175292-.470708c19.283774 3.218541 21.428627 21.698585 21.47905 29.318266l.000047.557404c-.011059 1.696302-.121235 2.726153-.121235 2.726153-11.186596 170.143294-71.198864 209.879297-71.198864 209.879297-49.838007 40.753029-99.679009 21.39354-99.679009 21.39354 19.327203-12.225308 28.480145-24.450617 28.480145-24.450617 7.119287-9.168231 15.256899-21.39654 25.428165-27.507694 12.204921-5.094129 17.290554-12.225309 17.290554-12.225309 46.789023-55.018389 46.789023-161.995089 49.841002-183.388629 3.051979-21.39654 28.480145-16.302411 28.480145-16.302411zm-261.303504-172.510064c41.747679 59.137784 43.783493 165.175671 43.783493 165.175671-18.328322 13.255487-16.292508 50.980331-16.292508 50.980331 4.074626 46.903105-13.237289 94.824016-13.237289 94.824016-6.107442-19.371325-5.091034-33.647619-5.091034-33.647619 5.444402-57.231438 4.421648-78.850575 4.134003-82.88358l-.025502-.338527c-.020846-.261039-.033875-.385035-.033875-.385035-1.019406-14.273292-9.16566-20.392132-9.16566-20.392132-10.862522-12.857822-11.188398-32.430514-11.198174-33.593304l-.000302-.054315c-13.237289-139.685506-83.49236-135.608281-83.49236-135.608281 32.582019 57.099172 42.764087 156.000413 42.764087 156.000413 1.016408 12.234679-6.11044 15.2941-6.11044 15.2941-10.182069 8.157453-9.162663 20.392132-9.162663 20.392132-3.05522 67.295237-16.292508 115.216148-16.292508 115.216148-15.273102-42.822877-16.28951-121.331986-16.28951-121.331986-3.05522-114.198343-43.783493-162.119254-43.783493-162.119254-45.819308 47.920911-46.838714 167.217287-46.838714 167.217287 0 30.588198-26.471578 28.549585-26.471578 28.549585-22.402949-3.05942-20.364137-31.609006-20.364137-31.609006 0-120.314181 40.728273-179.451965 40.728273-179.451965 34.617833-60.15559 94.690836-58.116977 94.690836-58.116977 63.131222-3.05942 96.729649 45.882298 97.749055 45.882298zm-346.216507-40.42469c-19.327206 11.205279-28.480149 23.433583-28.480149 24.450608-7.119288 9.171228-15.256901 21.396532-25.428169 27.507684-12.204922 5.094127-17.290556 12.228304-17.290556 12.228304-46.78903 55.015368-46.78903 161.992028-49.841009 183.38856-3.048984 21.393532-28.477154 16.299406-28.477154 16.299406-19.2861429-3.21854-21.4314927-21.698577-21.4820207-29.318255l-.0000538-.557404c.0110382-1.696302.1212146-2.726152.1212146-2.726152 11.1895926-170.143231 71.1988739-209.879219 71.1988739-209.879219 49.838014-40.753013 99.679023-21.393532 99.679023-21.393532zm89-3.861561c-48.605166 34.676479-61.769501 82.612672-62.780307 82.612672l-9.115146-7.138922c-36.451638 45.896931-40.503808 137.690791-40.503808 137.690791l-.000695.136712c-.009226 1.218616-.141027 10.686608-2.023899 32.503508-.851582 19.703064-18.850015 21.41665-24.587713 21.460599l-.388587.00052c-.856197-.004384-1.352368-.044354-1.352368-.044354-20.251905-1.01813-22.276499-21.416765-22.276499-21.416765-3.038382-17.341243 2.024594-50.996589 2.024594-50.996589 13.164334-137.693794 69.870859-172.370274 69.870859-172.370274 47.591379-36.718745 91.133569-22.437898 91.133569-22.437898zm91 .308253c-41.505439 27.673985-60.00178 79.315115-60.14608 81.457655l.00008.031361-10.148256-6.0884c-42.358252 52.452529-44.778163 165.822466-44.822326 168.084619l-.000649.034364c-1.856275 22.251748-21.424414 23.409658-24.931643 23.437843l-.293292-.000181c-.159004-.001622-.243347-.005295-.243347-.005295-21.742052-2.962679-22.394314-25.101897-22.413882-26.427583l-.000605-.062093c.326378-7.82575 1.069905-18.364044 1.930186-29.077495l.162597-2.010206.054183-.663635.109052-1.326863c1.451321-17.582638 3.116305-34.787343 3.668677-40.41136l.038412-.390683c.097036-.985842.15048-1.520374.15048-1.520374 12.224175-94.755572 55.010288-132.457381 55.010288-132.457381 42.789112-46.867734 101.876125-32.604293 101.876125-32.604293z"/></svg>