<svg height="960" viewBox="0 0 960 960" width="960" xmlns="http://www.w3.org/2000/svg"><g fill="#000" fill-rule="evenodd"><path d="m45.7496 620.545455v-26.174243c0-43.367579 35.1166104-78.522727 78.435247-78.522727h386.947218c43.319264 0 78.435247 35.155148 78.435247 78.522727v20.07827c-31.774538 32.218354-52.092528 75.759884-54.35607 124.02302l.013408.004278c-38.604269 38.013953-104.632473 70.52322-217.566194 70.52322-271.908856 0-271.908856-188.454545-271.908856-188.454545zm271.908856-502.545455c92.413454 0 167.328527 74.998627 167.328527 167.515152 0 92.516524-74.915073 167.515151-167.328527 167.515151s-167.328527-74.998627-167.328527-167.515151c0-92.516525 74.915073-167.515152 167.328527-167.515152z"/><path d="m694.147641 453.030303c69.309568 0 125.496396-56.249494 125.496396-125.636364 0-69.386869-56.186828-125.636363-125.496396-125.636363-69.309567 0-125.496395 56.249494-125.496395 125.636363 0 69.38687 56.186828 125.636364 125.496395 125.636364z"/><path d="m913.7496 594.371212v5.234849s0 31.402962-17.825597 67.015777c-30.346527-64.20422-95.69812-108.621838-171.424003-108.621838-34.080609 0-66.059936 8.996659-93.692584 24.744581-2.430619-25.438442-12.773131-48.569369-28.535685-66.896096h233.042622c43.317172 0 78.435247 35.155148 78.435247 78.522727z"/><path d="m724.5 583c90.850841 0 164.5 73.649159 164.5 164.5s-73.649159 164.5-164.5 164.5-164.5-73.649159-164.5-164.5 73.649159-164.5 164.5-164.5zm-75.867326 146.91746-27.992855 29.956637 93.644147 87.505386 13.675634-18.486765 102.238628-138.206505-32.961416-24.383295-88.562995 119.71974z"/></g></svg>