<svg height="960" viewBox="0 0 960 960" width="960" xmlns="http://www.w3.org/2000/svg"><path d="m735.980535 9.31923278c33.427235 1.25855552 60.285247 2.75535872 79.167519 4.43618342 10.316665.9183485 18.442293 1.9019595 24.661474 3.0462509 4.485535.8253112 8.315116 1.7689566 12.119984 3.1795696 16.499505 6.1170112 27.953301 14.6244356 27.953301 38.8908336 0 .4035259 0 .8044362-.031272 1.1954592.02307.1939133.018299.3939653.012046.5943238l-.460632 14.7590904-.040685 1.3150469-.081332 2.6340706c-.813151 26.3704208-1.623367 53.6963718-2.609039 87.7445648-.307779 10.631678-2.065779 71.804357-2.568053 89.072568-6.523579 224.281145-11.313513 330.093268-20.324773 408.152056l-.018558.158001-.251436 2.10452-.018527.152579c-3.580097 29.01844-11.06834 62.113126-21.407733 87.464501-5.840167 14.319628-13.094495 27.485797-21.380904 39.645177-5.844859 8.576679-11.281195 15.412045-17.383219 22.388556-16.674194 19.063788-36.288902 35.860237-58.551538 50.292191l7.711402 31.712097c6.000451 20.768538-4.059043 41.782049-23.177701 50.954749-8.687515 4.168073-17.17409 5.375676-27.420593 5.375676-19.020538 0-35.44791-4.717647-48.190056-17.327996-.558742-.552962-1.101062-1.122276-1.626253-1.707199-5.556304-6.188242-10.169971-10.724887-13.450918-13.479142l-.020273-.004085c-.59967-.120301-2.923777-.579149-3.048134-.60384-1.441193-.286148-2.588689-.51999-3.75641-.768851-4.195762-.894189-7.841121-1.814154-11.434614-2.984007-39.517499 9.230426-82.215962 13.950746-126.66735 14.198084l-.111397.000464-3.46345.009626h-.22233l-3.463692-.009626-.111405-.000464c-44.259687-.246272-86.784348-4.927143-126.162016-14.081198-3.480391 1.115773-7.016065 2.003057-11.068665 2.866849-1.167954.248944-2.315665.482857-3.757115.769087-.124344.024691-2.448782.483653-3.048505.603978-.006613.001327-.013216.002652-.019284.003886-3.280941 2.754234-7.894655 7.290916-13.451032 13.479239-.525191.584923-1.067511 1.154237-1.626253 1.707199-12.742145 12.610349-29.169518 17.327996-48.190056 17.327996-10.246503 0-18.733078-1.207603-27.420593-5.375676-19.118697-9.172719-29.178192-30.186297-23.17768-50.954811l7.592362-31.222008c-22.5709-14.542595-42.440694-31.502672-59.303601-50.782218-6.102024-6.976511-11.53836-13.811877-17.383219-22.388556-8.286409-12.15938-15.540738-25.325549-21.380904-39.645177-10.339393-25.351375-17.827636-58.446061-21.407734-87.464501l-.018526-.152579-.251436-2.10452-.018558-.158001c-9.0112604-78.058788-13.8011942-183.870911-20.3247736-408.152056-.5022738-17.268211-2.2602733-78.44089-2.5680531-89.072568-1.0349554-35.750602-1.8764706-64.089933-2.7307444-91.6836597l-.4609434-14.769113c-.0062047-.1988043-.0109498-.3973074.0119128-.5895151-.0313798-.3926339-.0313798-.7951338-.0313798-1.2002679 0-24.266398 11.4537956-32.7738224 27.9533005-38.8908336 3.804868-1.410613 7.634449-2.3542584 12.119984-3.1795696 6.219181-1.1442914 14.344809-2.1279024 24.661474-3.0462509 18.882272-1.6808247 45.740284-3.1776279 79.167519-4.43618342 66.924658-2.51975369 156.942959-3.96782258 253.065869-3.99653198l2.914666-.00043518c97.216668 0 188.37987 1.45176141 255.980535 3.99696716zm-468.94807 858.19522722-10.044724 41.313917c-1.487184 3.83928 2.513921 5.75892 12.003317 5.75892s16.173797-1.91964 20.053202-5.75892c9.396027-10.464669 17.364369-17.877494 23.905024-22.238473-16.122781-5.4813-31.461038-11.844159-45.916819-19.075444zm381.789548 18.468771-1.199744.40828c6.596475 4.332832 14.66474 11.811788 24.204795 22.436866 3.879406 3.83928 10.563807 5.75892 20.053202 5.75892 9.489396 0 13.490502-1.91964 12.003317-5.75892l-10.139321-41.704956c-14.153772 7.125886-29.159349 13.415907-44.922249 18.85981zm-172.216618-171.536637c-160.523562 0-270.458792-17.600056-330.529247-53.667418l.132554 1.07738c2.424805 19.654224 8.516597 52.172995 18.746769 77.256568 10.454576 25.633795 25.326272 43.364471 31.834324 50.805198l1.692816 1.912862c.103469.115561.207063.231017.310783.346367.541847.60261 1.087341 1.202597 1.636228 1.799711l-1.636228-1.799711c.562615.625705 1.128912 1.248311 1.698864 1.867822l-.062636-.068111c.612966.666824 1.230166 1.330065 1.851565 1.989729l-1.788929-1.921618c.663456.721146 1.331866 1.4381 2.005186 2.150867l-.216257-.229249c.615463.653362 1.235045 1.303215 1.858715 1.949564l-1.642458-1.720315c.632405.669456 1.269142 1.335219 1.910177 1.997295l-.267719-.27698c1.287927 1.334763 2.593284 2.654584 3.915784 3.959508.074139.073154.148457.146384.22283.219568l-.22283-.219568c.640061.631554 1.284136 1.259619 1.932195 1.8842l-1.709365-1.664632c.668854.658163 1.342077 1.312527 2.01963 1.963099l-.310265-.298467c.674332.649902 1.352976 1.296032 2.035896 1.938395l-1.725631-1.639928c.645826.620107 1.295586 1.236768 1.94925 1.849989l-.223619-.210061c.65252.613769 1.308944 1.2241 1.969239 1.830997l-1.74562-1.620936c.685905.643468 1.376107 1.283147 2.07057 1.919044l-.32495-.298108c.671802.617473 1.347612 1.231392 2.027396 1.841763l-1.702446-1.543655c.681679.62419 1.367463 1.244736 2.057317 1.861644l-.354871-.317989c.747462.671138 1.499729 1.337985 2.256756 2.000549l-1.901885-1.68256c.661292.591366 1.326325 1.179389 1.995068 1.764072l-.093183-.081512c.662595.579915 1.328835 1.156548 1.998693 1.729905l-1.90551-1.648393c.721666.630956 1.447653 1.258023 2.17792 1.881209l-.27241-.232816c.730298.62509 1.464895 1.246286 2.203753 1.863594l-1.931343-1.630778c.682934.582792 1.369613 1.16219 2.060003 1.738198l2.058165 1.698185c.063186.051559.126402.10309.189649.154593 1.359362 1.106967 2.732876 2.20128 4.120098 3.282802.141709.11048.283158.220514.424749.330416l-.424749-.330416c.746351.581878 1.496669 1.160055 2.250919 1.734535l-1.82617-1.404119c.7022.54504 1.407892 1.086817 2.117045 1.625335l-.290875-.221216c.772287.588218 1.548695 1.172561 2.329186 1.753034l-2.038311-1.531818c.709222.53857 1.421905 1.073881 2.138022 1.605938l-.099711-.07412c1.455309 1.082355 2.924812 2.151258 4.408256 3.206749.120675.085862.241003.171324.361423.256697l-.361423-.256697c.813939.579129 1.632074 1.15422 2.454365 1.725281l-2.092942-1.468584c.743849.527364 1.491186 1.051366 2.241981 1.572012l-.149039-.103428c.780273.54188 1.564287 1.08013 2.352008 1.614757l-2.202969-1.511329c.771128.534746 1.545903 1.065952 2.324292 1.593623l-.121323-.082294c.744169.505069 1.491645 1.006904 2.242398 1.505509l-2.121075-1.423215c.802461.54399 1.608762 1.084224 2.418866 1.620706l-.297791-.197491c.78967.524451 1.582966 1.04533 2.379853 1.562641l-2.082062-1.36515c.783477.51885 1.570511 1.034192 2.361067 1.546031l-.279005-.180881c.791907.51408 1.587361 1.024637 2.386326 1.531676l-2.107321-1.350795c.798146.516753 1.599883 1.029935 2.405174 1.539553l-.297853-.188758c.845786.536753 1.695507 1.069564 2.549122 1.598441l-2.251269-1.409683c.786594.497785 1.57658.99217 2.369926 1.483158l-.118657-.073475c.807812.500498 1.619112.997471 2.433864 1.490927l-2.315207-1.417452c.844618.52272 1.693043 1.041592 2.545237 1.55662 2.405102 1.45354 4.840364 2.876557 7.304755 4.269104.034822.019677.069797.039431.104779.059179l-.104779-.059179c.794614.449011 1.592257.894854 2.392898 1.337534l-2.288119-1.278355c.910015.513729 1.823998 1.023307 2.741904 1.52874l-.453785-.250385c.880037.486578 1.763697.969335 2.65094 1.448276l-2.197155-1.197891c.789484.434719 1.581869.866372 2.377129 1.294964l-.179974-.097073c.838888.45284 1.68098.902269 2.526242 1.348292l-2.346268-1.251219c.858675.462769 1.7207.921968 2.586039 1.377605l-.239771-.126386c24.040078 12.685351 50.644378 22.616254 79.04456 29.915641.15293.039306.305341.078389.457804.117397l-.457804-.117397c1.064428.273578 2.131378.54346 3.20081.809651l-2.743006-.692254c1.022539.261616 2.047397.519827 3.074538.774638l-.331532-.082384c1.004864.25012 2.01192.496982 3.021134.740591l-2.689602-.658207c1.090762.270593 2.184099.537352 3.279969.800283l-.590367-.142076c.941776.227331 1.885432.45183 2.830939.6735l-2.240572-.531424c1.025515.246051 2.053247.488751 3.083162.728104.749608.17421 1.500821.346749 2.253178.517516l-2.253178-.517516c.994494.231121 1.991023.459122 2.989556.684008l-.736378-.166492c1.063254.241334 2.128794.479126 3.19658.713385l-2.460202-.546893c1.081865.243655 2.166082.483652 3.252611.72l-.792409-.173107c2.118044.464673 4.244928.915439 6.380354 1.352349.10623.021735.212609.043461.31901.065153l-.31901-.065153c1.057953.216458 2.118003.429514 3.180113.639175l-2.861103-.574022c1.094298.223099 2.190833.442561 3.289565.658395l-.428462-.084373c1.037742.204851 2.077451.40646 3.119092.604834l-2.69063-.520461c1.120695.220148 2.243676.43652 3.368899.649123l-.678269-.128662c1.057706.201432 2.117405.399528 3.179061.594293l-2.500792-.465631c.960477.181476 1.922588.360206 2.886306.536193 1.988772.363174 3.98374.71456 5.985317 1.054315.193274.032808.386959.065565.580705.098214l-.580705-.098214c2.102015.356804 4.211319.70078 6.327644 1.031971.173212.027107.346612.05415.520058.081107l-.520058-.081107c1.10423.172805 2.210371.34213 3.318386.50798l-2.798328-.426873c1.064333.165419 2.130434.327608 3.198269.486574l-.399941-.059701c1.113128.166615 2.228147.329724 3.345017.489333l-2.945076-.429632c1.104276.16439 2.210406.325334 3.318353.482835l-.373277-.053203c2.194877.313663 4.396906.613808 6.60579.900482.022438.002912.044449.005767.066461.008621l-.066461-.008621c.955996.124071 1.913276.245619 2.871816.364648l-2.805355-.356027c1.228943.159335 2.460007.3145 3.693142.465505l-.887787-.109478c1.232515.153049 2.467113.301933 3.703744.44666l-2.815957-.337182c.962058.117809 1.925377.233086 2.889932.345834l-.073975-.008652c1.034745.121099 2.070913.239287 3.108474.35457l-3.034499-.345918c1.093007.127763 2.187601.252279 3.283747.373553l-.249248-.027635c1.043876.115984 2.089163.229026 3.13583.339132l-2.886582-.311497c1.16352.128727 2.328789.253803 3.495764.375233l-.609182-.063736c1.173752.123474 2.349241.243256 3.526422.359351l-2.91724-.295615c1.076206.111984 2.153864.220868 3.23294.326657l-.3157-.031042c1.087908.107291 2.177262.211433 3.268028.312433l-2.952328-.281391c1.19688.117338 2.395506.230868 3.595832.340596l-.643504-.059205c1.151758.106647 2.305091.20979 3.459958.309434l-2.816454-.250229c.959677.08773 1.92044.17303 2.882268.255904l-.065814-.005675c.998488.086152 1.998123.169689 2.99888.250616l-2.933066-.244941c1.198472.103264 2.398597.202761 3.600329.298499l-.667263-.053558c1.22366.098952 2.448998.194 3.675966.285153l-3.008703-.231595c1.05069.083705 2.102609.164536 3.155727.242498l-.147024-.010903c1.041308.07736 2.083791.151914 3.127419.223667l-2.980395-.212764c1.192511.088282 2.386561.172884 3.582105.253814.908211.061481 1.81803.12089 2.728694.17818l-2.728694-.17818c1.06302.07196 2.127222.141016 3.192576.207174l-.463882-.028994c1.148757.072267 2.298859.141162 3.450268.206691l-2.986386-.177697c1.144433.071069 2.290196.138794 3.437249.20318l-.450863-.025483c1.153601.065653 2.308515.127926 3.464702.186827l-3.013839-.161344c1.142459.064128 2.286199.124945 3.431183.182456l-.417344-.021112c1.002886.051091 2.00673.099643 3.011508.145662l-2.594164-.12455c1.093164.054908 2.187463.106802 3.282863.155689 1.018891.045472 2.039175.08836 3.060387.128646l-3.060387-.128646c1.087515.048534 2.176117.094104 3.265772.136713l-.205385-.008067c1.112788.0439 2.226678.084711 3.341636.12244l-3.136251-.114373c1.184352.046313 2.369949.089129 3.556751.128454l-.4205-.014081c2.146995.072651 4.297951.133871 6.452627.1837.262024.006059.523702.011941.785434.017655l-.785434-.017655c1.20548.027877 2.412125.052188 3.619893.072941l-2.834459-.055286c1.155578.025229 2.312217.047185 3.46988.065874l-.635421-.010588c1.124912.019329 2.250798.03557 3.377624.048729l-2.742203-.038141c1.200935.019388 2.402972.03526 3.60607.047623l-.863867-.009482c1.258456.014696 2.518085.025548 3.778838.032563l3.463692.009626 3.46345-.009626 3.021005-.02418c.202986-.00212.405943-.004341.608869-.006662.968416-.011076 1.935376-.024415 2.901622-.040031l-2.901622.040031c1.185106-.013553 2.369175-.030514 3.552167-.05089l-.650545.010859c1.154612-.01866 2.308206-.040569 3.460745-.065734l-2.8102.054875c1.16478-.020063 2.328517-.043436 3.491171-.070126l-.680971.015251c2.219643-.048464 4.435371-.109003 6.646924-.181659.220816-.007257.441748-.014637.662637-.022139l-.662637.022139c1.266159-.041596 2.530948-.087165 3.79432-.136713l-3.131683.114574c1.057559-.035916 2.114156-.074605 3.169763-.116073l-.03808.001499c1.104731-.043326 2.208378-.089695 3.310908-.139112l-3.272828.137613c1.207449-.047433 2.413603-.098501 3.618418-.153212l-.34559.015599c2.244201-.100588 4.483773-.213805 6.718439-.339696.076765-.004342.153106-.008658.22944-.012988l-.22944.012988c1.072897-.060442 2.144663-.123806 3.215268-.190095l-2.985828.177107c1.200459-.068107 2.399499-.139873 3.597076-.215305l-.611248.038198c1.189544-.073655 2.377653-.150921 3.564286-.231807l-2.953038.193609c1.060785-.066815 2.120422-.136507 3.178882-.209081l-.225844.015472c2.063468-.140655 4.122472-.292254 6.17679-.454833.342562-.027162.68475-.05456 1.026808-.082262l-1.026808.082262c1.237329-.097923 2.472958-.199828 3.706838-.305724l-2.68003.223462c1.065193-.086268 2.129114-.175494 3.191732-.267683l-.511702.044221c1.1107-.095325 2.219983-.193883 3.327814-.295681l-2.816112.25146c1.150444-.099809 2.299362-.203092 3.446712-.309854l-.6306.058394c1.081778-.099404 2.162172-.201896 3.241149-.307483l-2.610549.249089c1.004046-.093427 2.006893-.189519 3.008513-.288281l-.397964.039192c1.070828-.10479 2.14026-.212627 3.208265-.323517l-2.810301.284325c1.172363-.115596 2.343046-.234849 3.512007-.357766l-.701706.073441c1.142619-.118637 2.283604-.240768 3.422915-.3664l-2.721209.292959c1.11972-.117739 2.23786-.238839 3.354384-.363306l-.633175.070347c2.167462-.239005 4.328866-.49068 6.483941-.755068.1659-.020552.331472-.040946.497007-.061416l-.497007.061416c1.064372-.130579 2.127201-.264258 3.188453-.401044l-2.691446.339628c1.148879-.142063 2.295952-.287745 3.441176-.437051l-.74973.097423c1.164965-.150154 2.328031-.30405 3.489153-.461697l-2.739423.364274c1.075355-.140197 2.14908-.283589 3.221142-.430182l-.481719.065908c2.144454-.291153 4.28228-.595098 6.413208-.911876.123004-.018642.245571-.03691.368116-.055221l-.368116.055221c1.038767-.154421 2.075895-.311891 3.111351-.472416l-2.743235.417195c1.176543-.175801 2.350974-.355519 3.52325-.539162l-.780015.121967c1.092316-.16934 2.182773-.34208 3.271333-.518225l-2.491318.396258c1.109806-.173856 2.21768-.351229 3.323582-.532126l-.832264.135868c.9765-.158012 1.951474-.318764 2.924896-.482261l-2.092632.346393c1.089428-.178202 2.176942-.359823 3.262506-.544869.776283-.131778 1.551531-.265833 2.325769-.401641l-2.325769.401641c.924504-.157591 1.847594-.317667 2.769245-.480231l-.443476.07859c1.033397-.181267 2.064993-.365657 3.094758-.553176l-2.651282.474586c1.137108-.200567 2.272027-.40492 3.404715-.613068l-.753433.138482c1.088724-.198255 2.1754-.400007 3.25999-.605261l-2.506557.466779c1.107133-.203451 2.212135-.410527 3.314964-.621235l-.808407.154456c.973575-.184246 1.945469-.371314 2.915654-.561209l-2.107247.406753c1.059693-.202466 2.117381-.408284 3.173027-.617461.735396-.144871 1.469696-.292178 2.202993-.441116l-2.202993.441116c.960354-.190295 1.919019-.383369 2.875967-.579226l-.672974.13811c1.067343-.216785 2.132563-.437025 3.195623-.660726l-2.522649.522616c1.100917-.225324 2.199562-.454333 3.295895-.687032l-.773246.164416c.936672-.197104 1.871667-.396896 2.804959-.599379l-2.031713.434963c1.173088-.24899 2.343528-.502207 3.511271-.759658.541569-.118255 1.081952-.23841 1.621751-.359475l-1.621751.359475c.979163-.215874 1.956429-.434726 2.931769-.656559.550944-.124058 1.100279-.250068 1.648998-.377027l-1.648998.377027c2.119352-.48203 4.229609-.978138 6.330464-1.488373.97036-.235672 1.938714-.474357 2.905033-.716061.536747-.132622 1.07209-.267588 1.606803-.403483l-1.606803.403483c1.151876-.288117 2.300858-.580523 3.446899-.877226.440881-.112349.880423-.226868 1.319528-.342022l-1.319528.342022c.856538-.221753 1.711432-.445907 2.564661-.672464l-1.245133.330442c29.521388-7.74185 57.070499-18.347638 81.776445-31.956705.155437-.085622.310757-.171359.465963-.257215 1.591269-.880248 3.170667-1.772983 4.73798-2.678254.094076-.054338.188203-.108776.282287-.163259l-.282287.163259c.834635-.482081 1.665843-.967716 2.493588-1.456913l-2.211301 1.293654c.810507-.469359 1.617773-.942076 2.421764-1.418158l-.210463.124504c.807661-.477326 1.612026-.958042 2.413062-1.442154l-2.202599 1.31765c.859406-.508895 1.715071-1.021635 2.566956-1.538225l-.364357.220575c.808745-.488771 1.614096-.981002 2.41602-1.4767l-2.051663 1.256125c.833344-.505347 1.66307-1.014379 2.489142-1.527101l-.437479.270976c.818455-.505916 1.633341-1.015443 2.44462-1.528587l-2.007141 1.257611c.785691-.487659 1.568075-.978657 2.347122-1.472999l-.339981.215388c.812079-.513649 1.620545-1.030922 2.425362-1.551824l-2.085381 1.336436c.778212-.493811 1.553093-.99096 2.324611-1.49145l-.23923.155014c.798839-.517033 1.594082-1.037642 2.385696-1.561831l-2.146466 1.406817c.791309-.513329 1.579081-1.030173 2.363281-1.550538l-.216815.143721c.796002-.527096 1.588334-1.057814 2.37696-1.592157l-2.160145 1.448436c.789547-.523913 1.575474-1.051395 2.357744-1.582451l-.197599.134015c.802426-.543694 1.601014-1.091143 2.395727-1.642353l-2.198128 1.508338c.769477-.522371 1.535416-1.0482 2.297785-1.577494l-.099657.069156c.744137-.51613 1.484876-1.035557 2.222187-1.558287l-2.12253 1.489131c.791882-.549783 1.579911-1.103303 2.364051-1.660567l-.241521.171436c1.545464-1.095683 3.075864-2.205875 4.590917-3.330622.07222-.053615.144115-.107047.215975-.160512l-.215975.160512c.767831-.570023 1.53172-1.143784 2.291629-1.721289l-2.075654 1.560777c.737069-.548387 1.470494-1.100226 2.200244-1.655522l-.12459.094745c.716275-.544344 1.429014-1.092015 2.138187-1.643017l-2.013597 1.548272c.806788-.613917 1.609082-1.232059 2.40684-1.854434 2.852129-2.225103 5.64633-4.504362 8.380505-6.838051.075535-.064471.150929-.128902.226277-.193375l-.226277.193375c.699393-.59695 1.394859-1.197461 2.086362-1.80154l-1.860085 1.608165c.734906-.628832 1.465462-1.261606 2.191626-1.898329l-.331541.290164c.703076-.614187 1.402056-1.232061 2.096904-1.853628l-1.765363 1.563464c.660062-.578763 1.316497-1.160789 1.969275-1.746082l-.203912.182618c.68049-.608722 1.357017-1.220985 2.029549-1.836797l-1.825637 1.654179c.714281-.640439 1.424183-1.28479 2.129667-1.933059l-.30403.27888c.669275-.612829 1.334594-1.229172 1.995922-1.849033l-1.691892 1.570153c.686005-.63037 1.367831-1.264444 2.045444-1.90223l-.353552.332077c.676408-.633995 1.348642-1.271671 2.016666-1.913032l-1.663114 1.580955c.669122-.629793 1.334136-1.263204 1.995006-1.900239l-.331892.319284c1.359594-1.30533 2.701751-2.62593 4.026173-3.961846.044163-.044546.088442-.089247.132702-.133965l-.132702.133965c.652638-.658302 1.300969-1.320323 1.944957-1.98607l-1.812255 1.852105c.643785-.650453 1.283371-1.304532 1.918721-1.962242l-.106466.110137c.609681-.630279 1.21547-1.263897 1.817336-1.900858l-1.71087 1.790721c.650692-.673592 1.296941-1.350993 1.938712-2.032208l-.227842.241487c1.289949-1.365167 2.561881-2.745692 3.815497-4.141624.046075-.051305.092509-.103059.138918-.154835l1.773237-2.002632c6.508052-7.440727 21.379748-25.171403 31.834324-50.805198 10.230172-25.083573 16.321964-57.602344 18.746769-77.256568l.186831-1.553162c-63.753275 36.340704-176.006261 54.1432-337.372976 54.1432zm216.363077-.889735c18.057771 6.217789 26.32858 27.501138 19.572225 47.123016-6.756354 19.621878-26.377178 31.301368-44.43495 25.083578l-3.269862-1.338301c-15.763061-7.533416-22.636446-27.389204-16.302363-45.784715 6.756354-19.621878 26.377178-31.301367 44.43495-25.083578zm-25.524579 31.594941c-3.378822 9.812813.324712 19.343152 7.173217 21.701282l1.305006.353961c6.620614 1.332531 14.540563-3.839019 17.70821-13.038531 3.378822-9.812813-.324712-19.343152-7.173218-21.701281-6.848505-2.35813-15.634392 2.871756-19.013215 12.684569zm171.778371-664.4915021-.400624.0883847c-.836769.1812556-1.71189.3548138-2.63124.5239684-5.486597 1.0095005-13.06531 1.9269072-22.815654 2.7948441-18.481163 1.6451195-45.03098 3.1247469-78.14669 4.3715734-66.654824 2.5095943-156.430486 3.9537405-252.320446 3.9828065h-2.90761c-96.981561 0-187.899951-1.4478628-255.228056-3.9828065-33.11571-1.2468265-59.665527-2.7264539-78.14669-4.3715734-9.750344-.8679369-17.329057-1.7853436-22.815654-2.7948441-1.067763-.1964618-2.075865-.3988636-3.033514-.6123661l-.197955-6.4771094c6.969535 225.1212185 11.012866 436.3418745 22.783705 560.7007505.266563.15709.526791.335313.780807.527511 51.529289 38.989082 162.656973 59.035157 332.462752 59.035157 169.956719 0 283.475581-20.062131 339.789788-59.267618l.229199-.14696c11.668637-123.146507 15.747135-331.592449 22.597882-554.3717181zm-359.222264-35.3380323c-198.757789 0-359.882812 6.0664542-359.882812 13.5498047l.045112.2167491c.001929.0046312.00392.0092618.005972.0138919 3.276121 7.377185 163.123629 13.3191637 359.831728 13.3191637 194.757789 0 353.382288-5.8247364 359.688045-13.0997569.002172-.0024782.005037-.0058126.007869-.0091473l-.007869.0091473c.062571-.0721894.110145-.1445216.142607-.2169923l-.134738.207845c.063563-.074825.111039-.1498033.142267-.2249299l-.007529.0170849c.034727-.0775284.052161-.1552153.052161-.2330555 0-7.408517-157.918636-13.4283339-353.931493-13.5479894z"/></svg>