<svg height="960" viewBox="0 0 960 960" width="960" xmlns="http://www.w3.org/2000/svg"><path d="m521.571958 225.609864c46.472981 0 143.70718 13.229355 237.482128 31.448314 46.037562 8.944355 86.907368 18.299966 116.860664 26.905558 16.878785 4.84928 30.425807 9.48195 40.681691 14.081446 6.827981 3.06217 12.570236 6.24203 17.615307 10.092785 11.203191 8.551066 19.135532 19.575513 19.135532 36.566323l-.000087 240.607574.010378.935483c.393349 39.538844-1.253147 65.757082-6.014889 82.28767l-.146742.503016c-3.337087 11.295469-9.939888 23.903003-16.422416 32.971243-8.784296 12.288123-21.515017 21.159701-38.158831 28.865042-12.320189 5.703696-27.132795 10.825441-44.370299 15.568517-28.2562 7.774984-62.775217 14.452707-100.467132 19.959372-47.254678 6.903753-117.540813 15.198766-183.688404 20.830689-94.550403 8.050189-173.0583 10.281009-227.467183 4.576989-54.325353-5.695264-108.633517-16.631566-160.476539-31.228016-39.592677-11.147354-75.763508-23.957107-100.2150831-34.711004-49.3341208-21.697336-72.64185982-52.781693-72.64185982-100.985388v-298.965525c0-15.748321 7.22311602-28.461614 18.10418462-37.93921 6.4457106-5.614324 14.0446599-9.980314 23.0481382-13.817859 13.4051481-5.713666 30.9253025-10.579069 52.8771101-15.039691 36.996328-7.517679 87.220442-13.94943 147.579401-19.353915 94.647725-8.474668 216.579886-14.159413 276.674931-14.159413zm-478.2834004 304.129296-.0003645 95.146317c0 30.900682 12.7448425 48.536962 48.7453869 64.37014 36.000544 15.833178 134.285533 50.771355 248.758687 62.772285 114.473155 12.00093 338.201202-16.00124 401.202511-25.205524 63.00131-9.204285 139.952899-25.29385 156.238258-48.075016 3.287695-4.599071 8.381482-13.526438 10.602001-21.042515 3.408178-11.536103 4.912259-35.614481 4.512243-72.235135l.002343-39.448241c-19.247822 8.889347-50.620722 16.945133-94.92746 24.821476-59.941827 10.65577-157.269806 23.162007-292.149886 37.54816-57.180864 5.809328-117.108339 5.809328-179.777459.008648-59.802266-5.535322-96.271181-11.573386-138.229057-21.902714-6.451533-1.58826-12.984946-3.254021-22.027656-5.601677-1.653101-.429176-3.339856-.867968-5.66739-1.474083-.631749-.164515-1.432401-.373049-2.874808-.748731-1.155746-.301003-2.040106-.531261-2.906395-.756699-4.735125-1.232244-8.362979-2.172425-12.004479-3.109234-24.492431-6.300897-56.934093-17.074195-82.8626779-27.609328-14.0719548-5.717625-25.7873125-11.173592-34.2651969-16.057624-.8178044-.47113-1.6073327-.937816-2.3686006-1.400505zm-.0006986-170.716542.0015243 143.215596c1.7726248 1.352589 3.0797159 3.284211 3.639021 5.512611l.0023588.012227.0625354.061363c.1010989.099329.2176875.210187.3496132.33099l.1370322.124059c1.6644956 1.490276 4.4382124 3.385678 8.160841 5.53025 7.5582656 4.354248 18.5108018 9.454961 31.8101204 14.858653 25.1103737 10.202683 56.7026607 20.693919 80.3170577 26.768934l1.221713.314553c3.264341.841151 6.613137 1.709519 10.836766 2.808653.867744.225817 1.75324.45637 2.910123.757669 1.442864.375802 2.243009.584204 2.874281.748594 2.323152.604975 4.005644 1.042657 5.653021 1.470347 8.968191 2.32831 15.428578 3.975452 21.782814 5.539759 40.973774 10.087059 76.461657 15.962696 135.291465 21.408007 61.411711 5.684293 120.047597 5.684293 175.862796.013837 134.402121-14.3353 231.347738-26.792405 290.720731-37.347054 52.309757-9.299029 85.67246-19.011607 98.426358-27.793725l.001258-154.200384c-18.588693 8.224157-51.267534 15.559306-99.195792 22.739496-59.899739 8.973651-157.198711 19.509915-292.038915 31.630016-57.078608 4.88695-116.904518 4.88695-179.475774.006167-59.729093-4.659085-96.125706-9.737466-138.013994-18.427882-6.44495-1.337111-12.973457-2.739847-22.01116-4.717196-1.652718-.361597-3.339189-.731318-5.66643-1.242047-.631718-.138635-1.432336-.314366-2.874773-.630972-1.155822-.253681-2.040257-.447743-2.906644-.637749-4.736225-1.038692-8.365183-1.831254-12.00809-2.621037-24.436642-5.297872-56.827542-14.362668-82.7105724-23.225361-13.4884322-4.618619-24.8015999-9.03227-33.1592856-13.008374zm478.284099-93.412754c-90.575353 0-478.2837649 17.230041-478.2837649 60.310088l-.0001786 10.288771c1.6913897 1.197406 4.3133639 2.680633 7.7283651 4.338582 7.5899754 3.684858 18.5761853 7.996608 31.9097361 12.562193 25.1559283 8.613724 56.7989773 17.469229 80.4691633 22.600933 3.661117.793731 7.304385 1.589419 12.054868 2.631237.867647.190282 1.753067.38456 2.909874.638458 1.442834.316693 2.243012.492327 2.874316.630871 2.323445.509896 4.006221.878808 5.65398 1.239319 8.973198 1.963236 15.438491 3.35239 21.799311 4.672047 41.043363 8.515122 76.603547 13.476798 135.506528 18.071442 61.509575 4.797969 120.247026 4.797969 176.172121.009869 134.434357-12.083711 231.408981-22.584851 290.824063-31.485896 57.570388-8.624689 92.379606-17.707403 101.949079-25.678706l.207774-.169208.000087-1.565574c0-23.55494-301.19997-79.094426-391.775322-79.094426zm5 23c45.076737 0 146.527893 14.394953 240.337451 33.333903 14.147181 2.856135 27.665125 5.732583 40.334395 8.586961l.466441.105458c10.814604 2.445079 10.20641 18.053507-.765664 19.649652l-.753896.109668c-59.140375 8.553442-151.759599 18.500645-278.447239 29.921016l-4.041982.363731c-54.990206 4.697861-112.686276 4.681137-173.107496-.031935-38.724379-3.020641-68.168695-6.364413-94.41246-10.568698-5.583469-.894479-10.674315-1.753464-15.786299-2.674636l-1.136553-.205768c-.568659-.103436-1.138049-.207728-1.708875-.313012l-1.143774-.211929c-12.607163-2.346622-26.136519-5.216148-48.0922-10.035325-6.460341-1.418016-10.064613-2.207395-13.733431-3.005052l-.668419-.145262c-.558693-.121364-1.12293-.243804-1.702872-.369535-15.206871-3.296855-33.966017-8.161147-51.93159-13.480295l-1.152683-.342884c-10.025658-2.982292-9.321709-17.409785.946661-19.401886l.57272-.111109c16.555984-3.211277 36.170678-6.232393 58.956693-9.143238l1.273107-.162098 1.241589-.157064c54.773226-6.906732 123.396978-12.517422 196.424865-16.540627 58.752567-3.236757 116.6621-5.170036 148.031511-5.170036zm0 20c-30.027894 0-85.087042 1.808046-141.677036 4.85364l-3.502159.18996-1.752157.096155c-72.598088 3.999526-140.783962 9.574415-195.018935 16.413275l-1.229574.155541-1.260962.160554c-3.810609.486794-7.529088.976441-11.155711 1.46925l-1.105811.150625.755398.174219c1.594618.365867 3.157455.716895 4.683796 1.051882l1.13784.248214c.582698.126329 1.149533.249332 1.710691.371231l.671317.145891.66978.145684.672155.146331c3.260791.710198 6.741891 1.472933 12.431055 2.72168 23.451011 5.147395 37.118101 8.032913 50.343572 10.436879l1.016631.184001c.169346.030519.338658.060965.507957.091344l1.668083.297211c.556347.098426 1.113245.196253 1.671391.293614l1.118163.194139c3.360723.580787 6.783116 1.14797 10.417752 1.730244 22.642376 3.627338 47.80904 6.609941 79.653853 9.308648l.000953-4.640076.018994.000781c-.012615-.165949-.018994-.332905-.018994-.500781 0-5.79899 7.611159-10.5 17-10.5s17 4.70101 17 10.5c0 .167876-.006379.334832-.018994.500781l.018994-.000781.000311 7.152422c51.801315 3.126808 101.457701 2.661902 148.95343-1.395608l3.995373-.359638c15.888471-1.432281 31.23873-2.841227 46.051611-4.226939l-.000725-22.170237.018918.000221c.422353-5.56692 7.863494-10.000221 16.981082-10.000221s16.558729 4.433301 16.981082 10.000221l.018918-.000221.000743 18.939289c53.896569-5.206292 99.800843-10.067772 137.760635-14.590172l1.888235-.225253-2.233958-.432248c-85.894259-16.579898-174.563687-28.816258-215.524978-29.077488z"/></svg>