<svg height="960" viewBox="0 0 960 960" width="960" xmlns="http://www.w3.org/2000/svg"><path d="m446.344909 148.271664.064599.31037.079959.444306 1.017683 6.467215 1.302102 8.330169 1.269883 8.180042 2.147982 13.978273 1.479038 9.742355 1.435376 9.558573 1.3938 9.390663 1.354313 9.238625 1.056422 7.292099 1.542091 10.792528 1.001258 7.109788.737632 5.293374 1.205367 8.758222.778956 5.735241.896196 6.677333.582505 4.390167 1.13009 8.642709.817873 6.370102.793241 6.282253.769346 6.201683.499986 4.09329.489913 4.062873.480058 4.034615.702087 6.003655.762566 6.713184.576918 5.178511.681433 6.254672.388458 3.646152.495049 4.74862.583476 5.772796.439779 4.503885.314763 3.31984.400425 4.359571.379363 4.295192.271326 3.187057.174843 2.111437.253528 3.151363.386765 4.986081.215763 2.909081.208324 2.926851.201067 2.946612.193989 2.968366.187092 2.992112.180375 3.01785.17384 3.045579.167483 3.0753.161308 3.107013.230778 4.72434.146659 3.195012.141115 3.233696.135751 3.274373.130568 3.317041.125566 3.361703.179362 5.130649.113848 3.482069.127873 4.187428.119618 4.214162.111469 4.242911.103429 4.27368.095495 4.306466.08767 4.34127.079952 4.378092.072341 4.416932.064838 4.457789.057442 4.500665.050154 4.545558.042974 4.59247.0385 5.138382.098569-.522463c6.438657-34.188176 14.52013-68.485522 24.195474-102.855876l.972846-3.437277.98346-3.437757c5.385552-18.73822 11.231835-37.266401 17.538764-55.569433 6.543711-18.992151 13.424561-37.159943 20.74747-54.671869 8.029667-19.182471 16.22866-36.756812 24.988769-53.323506 10.164265-19.170706 20.367252-35.738485 31.606528-50.83909 4.93259-6.630174 14.303905-8.000584 20.925738-3.05998 6.618759 4.937196 7.985958 14.305541 3.073197 20.907445l-.231939.305651-.165407.207158c-10.731935 13.302462-20.866545 28.413013-31.020322 45.900305-8.946656 15.437166-17.481392 32.021123-25.919992 50.173485-7.762825 16.709027-15.148118 34.136233-22.237863 52.387518-6.868797 17.677668-13.302206 35.610818-19.292564 53.769089-12.130916 36.751615-22.380912 73.543962-30.665158 110.268785-3.697933 16.458391-6.824319 32.171057-9.400494 47.43439.247521 25.851891 2.040233 41.131616 5.377691 45.839449 3.832945 5.406771 12.666484 1.049361 26.500617-13.072229l.278335-.584669 2.341644-4.843203c.778082-1.604896 1.55377-3.200419 2.327281-4.786961l2.314216-4.733079c.384685-.784488.768881-1.566829 1.152613-2.347073l2.297046-4.656687c.763973-1.544102 1.526308-3.080208 2.287221-4.608712l2.278692-4.563098c.758286-1.513693 1.515367-3.020178 2.271458-4.519848l2.265522-4.478959 1.132266-2.22626 2.257013-4.418112c.375365-.732577.750337-1.463285 1.124933-2.192145l2.243184-4.351205 2.234895-4.308069c9.667664-18.576532 19.122841-35.971145 28.638216-52.613973l2.197048-3.827504c.366395-.635758.732909-1.270453 1.099559-1.904109l1.100372-1.897878c.715206-1.234252 1.427893-2.45957 2.138296-3.676291l2.124593-3.62471c3.530351-5.99932 7.009485-11.792143 10.466812-17.420594l2.072016-3.357684 2.068193-3.320257c1.377836-2.201479 2.754065-4.379354 4.13057-6.536323l1.480499-2.313301 1.456926-2.266217 1.434809-2.221138 1.414152-2.178064 1.394953-2.136996 1.377211-2.097935 1.36093-2.060878 1.346104-2.025828 1.33274-1.992782 1.320831-1.961744 1.310383-1.932709 1.301391-1.905682 1.29386-1.88066 1.287785-1.857643 1.283169-1.836633 1.280012-1.817627 1.278313-1.800628 1.278072-1.785635.639402-.887821c9.363771-13.00333 18.39441-24.636236 27.615716-35.439485 10.975236-12.822166 21.2462-23.404301 32.080315-32.725629 5.384837-4.637935 13.464894-4.110307 18.20527 1.129302l.223184.253065.216633.258451c4.396597 5.382382 3.804976 13.279719-1.331376 17.935816l-.346419.303528-.338.277489c-10.024509 7.932113-19.930341 17.341152-30.543025 28.772084-8.79502 9.493737-17.550423 19.836581-26.651336 31.388118l-1.745471 2.22325-1.303849 1.673288-1.305748 1.689269-1.309133 1.707134-1.314008 1.726884-1.320372 1.748518-1.328223 1.772037-1.337562 1.797441c-.223788.301795-.448028.604728-.672749.908836l-1.354363 1.839081-1.367424 1.869196c-.229076.314147-.458757.629627-.689075.94648l-2.090909 2.889798-2.130343 2.970278-2.174799 3.057121-1.477045 2.089467-2.260056 3.215993-1.538535 2.201272c-6.449061 9.254389-12.924322 18.945121-19.589554 29.287041l-2.229005 3.471719c-.372749.582738-.746139 1.167559-1.120201 1.754501l-1.124224 1.767223c-4.900598 7.697023-9.789101 15.564427-14.697812 23.648806l-2.267111 3.746828c-.378131.627095-.75641 1.255517-1.134853 1.885286l-2.272739 3.794956c-.379157.635245-.758506 1.271879-1.138064 1.909924l-2.279956 3.845375c-.380447.643774-.761132 1.289002-1.142068 1.935705l-2.28876 3.898084-2.295512 3.934495c-.383187.65884-.766685 1.31924-1.150508 1.98122l-2.306963 3.991022-2.315478 4.029978-2.324701 4.069953c-.388257.681713-.776929 1.365134-1.166029 2.050285l-2.339856 4.131823-2.350844 4.174343c-.392761.699324-.786011 1.400462-1.179762 2.103435-1.289953 2.304862-2.582448 4.625703-3.878257 6.963782l-2.596266 4.699516c-.433523.787208-.867472 1.576424-1.301875 2.367696l-2.612094 4.772671c-2.181666 3.998401-4.37611 8.050522-6.586905 12.162197l-2.661032 4.96297-1.336831 2.503624-1.069918 2.022004 1.087615-1.043263 2.215268-2.115162 2.131594-2.023117 3.234078-3.053885 2.18312-2.051264 2.206863-2.065563 3.358728-3.128959 3.422221-3.170907 2.319737-2.140139 3.541466-3.253855 3.621069-3.311443 3.706714-3.374896 3.798402-3.444215 5.073-4.580365 8.269424-7.42811 4.215228-3.768885 5.158347-4.597157 8.910688-7.906152 6.528309-5.767775 11.888001-10.46014 9.60503-8.41991 8.582968-7.506283 12.205867-10.635652 14.842518-12.896106 15.184194-13.153314 9.069312-7.838605 14.645091-12.63249 20.914095-17.992845 17.676602-15.17177 28.409161-24.330827 4.983125-4.262403c5.402026-4.620511 13.493277-4.088163 18.245247 1.142072l.223736.252608.217785.259042c4.491128 5.481678 3.795791 13.564556-1.676604 18.245963l-.344438.28093-16.50979 13.035694-21.847979 17.27679-23.403842 18.549743-22.032177 17.514228-15.811015 12.60634-10.273968 8.210695-11.359307 9.097053-14.910589 11.973111-7.290427 5.869139-18.179611 14.696903-12.747167 10.356827-9.34542 7.631252-8.090603 6.63882 10.087855-7.510937 9.382342-6.950832 10.490657-7.733357 13.673046-10.024862 12.528044-9.139852 15.454906-11.228024 14.439847-10.455032 10.653633-7.697243 10.44795-7.525421 16.419804-11.803375 21.325028-15.288257 18.476515-13.210831 18.995419-13.550756 14.206814-10.116085 27.697311-19.682185 25.312-17.948219 33.115818-23.43763 10.844515-7.666366c6.825061-4.82147 16.235178-3.299557 21.195824 3.370437l.2041.280892.197937.285761c4.662214 6.89326 2.97389 16.274784-3.83853 21.089747l-.167539.117327-.34359.230243-19.158726 12.467883-25.17104 16.400101-19.679758 12.840945-18.944893 12.379888-20.288097 13.280961-23.441219 15.379851-22.63873 14.893876-18.393332 12.133521-19.880199 13.149898-14.309337 9.488867-19.010583 12.65822-15.285949 10.211758-8.251885 5.529217-8.92174 5.99405-12.316246 8.306939-10.001529 6.777853-11.465382 7.810205-6.950023 4.756948-3.04809 2.091833-3.713654 2.552275 4.648317-2.540898c34.571554-18.858356 70.037309-37.65301 106.589463-56.508571l5.949002-3.062541 5.913689-3.035406 5.879408-3.008733 8.757088-4.464099 5.798213-2.944074 5.767539-2.919018 5.737896-2.894427 5.709283-2.870296 5.681701-2.846628 5.655149-2.823423 5.62963-2.80068 5.605139-2.778399 5.581681-2.756581c.928382-.457638 1.85583-.914386 2.782365-1.370253l5.548424-2.72472 5.527543-2.704058c.919574-.44898 1.838321-.897118 2.756262-1.344425l5.498151-2.67393 5.479847-2.654424c.911839-.440805 1.822959-.880815 2.73338-1.320042l7.346041-3.528406 5.39282-2.577996 7.047926-3.352083 5.18801-2.454103 5.111728-2.406118 3.368847-1.578936 4.99992-2.332959 4.94203-2.293152 4.891038-2.256414 3.235769-1.48538 4.912864-2.243866 3.355584-1.525294 5.269144-2.382545 3.4554-1.553523 3.412296-1.526769 3.371579-1.500974 3.333248-1.476139 3.297305-1.452261c.546689-.240107 1.091979-.479259 1.63592-.717477l3.247867-1.418243 3.217893-1.396764 3.190304-1.376243 3.165105-1.35668 3.142291-1.338078 3.121865-1.320433 3.103827-1.303748 3.088175-1.288021c.513524-.213413 1.026496-.42621 1.538964-.638413 7.843288-3.247492 16.829307.486623 20.069807 8.335698 3.239189 7.844419-.485712 16.83423-8.360205 20.09598l-.337378.132883-4.502077 1.673591-2.89826 1.086254-2.916233 1.100773-2.936013 1.115933-2.957595 1.131736-2.980983 1.148179-3.006176 1.165265-3.033172 1.182991-3.061974 1.201361-4.65091 1.837884-3.141872 1.250088-4.779216 1.913985-3.233048 1.302826-3.272676 1.325045-3.31411 1.347904-5.052799 2.066122-3.237127 1.330747-3.256003 1.344372-4.923743 2.04384-4.977386 2.078951-6.73155 2.831173-5.128627 2.171272-5.204618 2.215292-5.287312 2.261983-5.376711 2.311348-5.472813 2.363384-5.57562 2.418093-5.534852 2.41552-5.554222 2.434395-5.574563 2.453657-5.595872 2.473308-5.61815 2.493346-5.641397 2.513771c-1.884448.841372-3.772932 1.686212-5.665614 2.534586l-5.6908 2.555788c-.950619.427752-1.902328.856405-2.855147 1.285965l-5.730395 2.588317-5.758004 2.610488-5.786582 2.633048-5.816129 2.655994-5.846644 2.679329-5.87813 2.703052-8.878349 4.099905-5.961083 2.764055-5.99596 2.789134-6.031807 2.814603c-37.142279 17.37129-73.177721 34.711344-108.295925 52.134398l-7.95011 3.958706-7.678313 3.842216-5.965549 2.999689-5.823471 2.941918-5.69556 2.891604-5.581813 2.848749-4.120236 2.112925-4.070198 2.096161-4.026136 2.082543-4.69286 2.440385-5.798854 3.035872-4.54083 2.395086-4.323988 2.298918-4.152335 2.227483-2.427806 1.31249-3.183125 1.733071-2.226169 1.222209-2.776241 1.535857-1.961305 1.094978-1.877508 1.057681-1.811541 1.030723-1.763403 1.014103-.580185.336127c-1.812671 1.047408-3.567533 2.090936-5.239874 3.116071l-1.051541.649855-1.239436.790261-1.211847.789172-.524199.35185-.477964.329553-.437913.311902c-.069992.050771-.138573.101-.205871.150783l-.389436.294136c-.062686.048391-.124347.09653-.185112.144514l-.354876.286822c-.057698.047753-.114759.095544-.17131.14347l-.373045.321402-.024256.018754c.791827 1.385038 1.261977 2.977656 1.308654 4.676056l.003842.279905v25.4377c0 5.42924-4.326671 9.847931-9.720095 9.996158l-.279905.003842-8.225185-.000668-.08952.047627c-.19459.106497-.418733.254124-.667986.440425l-.191579.146938-.339093.2765c-.326679.275499-.683346.601139-1.063005.97305l.473906.103498.71838.163114.936255.224109.990508.252426 1.280084.352036.978354.290968.571861.179815c.231165.074231.459239.149376.68441.225518.640299.216508 1.258387.441491 1.853664.675333l.269053.106922.266094.108232.205734.085454.42247.180498.65463.294024c.545622.252794 1.07079.516142 1.575589.791294.452805.246791.89048.503761 1.313198.772379l.417737.272555.535891.372077.330294.243264.323294.24949.392831.31978.319752.275147.311831.282571.083948.078675.400499.391743c.345281.350186.673232.716569.982577 1.100871.383279.476104.736082.977278 1.059249 1.513493l.236832.408886.212423.399306c.575214 1.128313.985086 2.342502 1.196986 3.623991l.035705.232951.030205.233728.05195.47517.020694.272957.013217.273448.009581.320022v50.56143l-.00449.172972-.012564.319732-.010457.172526c-.376027 5.427188-3.65406 8.958826-8.313664 11.481213-2.800518 1.516007-6.323374 2.726041-10.511136 3.705861-1.617478.378446-3.337628.722281-5.144865 1.029778l-.002203 11.356171 77.570077.00015.370402.006861c1.602443.059384 3.167259.503326 4.56215 1.294291l.318822.188673 63.79191 39.363691c.539531.318956 1.046498.687155 1.514717 1.098411l.028817.024597c.443744.391569.846263.817062 1.206035 1.270057.013553.019099.028013.037406.042409.055766.041612.051172.081763.103534.121353.156242.011835.017433.024509.034378.03713.051365.088849.118271.174014.238717.256326.360781 1.016783 1.503214 1.635738 3.297984 1.705038 5.232818l.006516.364386v35.682711c0 5.42924-4.326671 9.847932-9.720095 9.996158l-.279905.003842h-332.472278c-5.42924 0-9.847932-4.326671-9.996159-9.720095l-.003841-.279905-.000976-35.578536c-.004044-.426814.019256-.852568.069264-1.27457.166509-1.432177.635868-2.771494 1.342053-3.952924.625705-1.052146 1.452876-2.000857 2.466156-2.783595.322235-.249483.660202-.480179 1.012134-.689877l63.820227-39.381323c1.473195-.909064 3.155264-1.419012 4.880971-1.482964l.370402-.006861 76.980345-.00015.000291-11.71803c-.754118-.14504-1.490821-.296793-2.208825-.455122l-.699336-.157659c-4.244709-.978253-7.816154-2.190057-10.65121-3.708567-4.716177-2.526074-8.032117-6.064728-8.411036-11.533645l-.010457-.172526-.007473-.172682-.005091-.14705-.005987-.345995-.000776-37.966977c-.179487-.859313-.273641-1.768837-.273641-2.732118 0-.803168.094687-1.58422.273506-2.332603l.000911-7.183686.005987-.345995.012564-.319732.010457-.172526c.18303-2.641668 1.187901-4.993057 2.755038-6.982207l.239255-.295647.196249-.230434c.207396-.238433.42225-.469721.644237-.694333l.338293-.331969.049368-.046778.395833-.361291.319526-.274953.185797-.153539.530552-.415911c.217931-.164274.44044-.324328.667325-.480351.180878-.124397.364987-.24653.551453-.365973.442436-.283443.902109-.554374 1.378391-.813962.521876-.284459 1.065569-.556322 1.631238-.816995l.573002-.256995.653855-.277126.287684-.116906.290955-.115305.909493-.342767.57892-.205357c.464645-.161072.94084-.31742 1.429329-.46947l.565753-.172549.576958-.168953 1.425568-.389744.587941-.150208 1.039722-.246883-.243668-.245119-.238997-.234158-.459025-.4312c-.436091-.397438-.841437-.73065-1.206942-.993614l-.21445-.1493-.208661-.135058-8.202101.000668c-5.335633 0-9.695263-4.178762-9.9847-9.442093l-.011459-.278002-.003841-.279905-.000193-12.5939-18.29387-10.422221-.369399-.234923-8.387202-5.746822-8.261301-5.645827-8.142793-5.549619-10.023102-6.809022-9.863925-6.675525-5.847958-3.945126-7.721614-5.194134-5.738507-3.848693-7.587002-5.072888-7.520246-5.010186-9.317696-6.18185-6.920697-4.568211-5.108215-3.360952-6.70708-4.397876-6.595075-4.306624-3.257823-2.120475-6.440791-4.178041-6.347081-4.097849-4.703217-3.023422-4.65771-2.982667-4.615289-2.943781-4.575957-2.906759-4.539711-2.871604-3.007863-1.895794-4.486163-2.81716-4.458151-2.786982-2.958063-1.842144-4.418324-2.740832-2.93437-1.813105-9.339263-5.740916-8.646017-5.286219-7.692223-4.681073-6.715342-4.070666-8.007678-4.836029-8.227245-4.949966-10.956514-6.566018-14.070181-8.39502-17.765259-10.552763-6.279727-3.718297-15.598604-9.209796-10.60191-6.242132-8.9804588-5.277133-16.5476526-9.700931-21.0012086-12.273848-15.8934316-9.264401c-7.1433697-4.158393-9.5560095-13.312059-5.3803243-20.440271 4.1130898-7.020307 13.0777205-9.448352 20.1675671-5.531113l.3254823.18517.2301867.138653.2692568.167077 18.9891738 12.147901 9.1938819 5.892926 17.8581313 11.470685 8.69296 5.596509 13.627121 8.791801 16.625734 10.76006 7.707188 5.003011 10.84226 7.056062 12.877787 8.405788 7.405011 4.848289 9.54283 6.266738 9.211978 6.072354 7.829286 5.180866 9.806696 6.518134 9.582157 6.402583 5.253201 3.525069 6.624481 4.461163c10.698754 5.344151 20.941949 10.324992 30.729587 14.942524l-1.151007-.885554-15.171405-11.628904-19.865815-15.173983-7.091116-5.405577-21.839944-16.596407-20.42298-15.476129-17.383716-13.141903-23.265073-17.547328-22.31526-16.792064-23.2953564-17.494881-28.6423555-21.470404-32.7293505-24.491451c-.753146-.563149-1.5080955-1.127619-2.2648646-1.693424-6.6232942-4.946149-7.9713968-14.319314-3.0068715-20.927199 4.8873697-6.503719 14.0675589-7.897761 20.6625585-3.201681l.28104.204992.1329511.100592c.1009334.077443.2079354.161738.316385.248776l31.9799841 25.861866 29.8990118 24.221125 26.314385 21.36088 26.795533 21.803772 18.913859 15.427838 18.434343 15.070336 18.082744 14.817805 13.003289 10.677909 14.672926 12.083145 22.86425 18.890928 13.283568 11.020759 9.897004 8.240138 6.957869 5.810509 11.808723 9.898834 8.238073 6.936021 1.635228 1.379878c1.59927 1.350044 3.194484 2.69816 4.788008 4.04634 13.150862 5.031973 24.967472 8.999061 35.449559 11.90186l-3.134184-3.645296-3.098115-3.589208-4.237241-4.888744-4.368371-5.01819-2.2366-2.561584-6.533084-7.449226-8.099233-9.187705-6.776369-7.648992-6.961667-7.825005-8.828989-9.880889-10.128461-11.28477-14.49906-16.080585-13.808762-15.25567-14.957356-16.455048-13.77771-15.115175-18.313379-20.032239-13.035875-14.221711-13.400358-14.589933-13.827619-15.027143-24.166012-26.204196-27.604918-29.860854-14.617484-15.787774c-5.619791-6.06287-5.267483-15.537158.787421-21.165631 5.972055-5.550086 15.26096-5.287865 20.910938.528765l.246881.260219.121785.133034c.089219.098672.184342.206304.275058.311362l20.819811 24.352338 19.652697 23.023644 18.63014 21.866949 17.752137 20.882255 10.007431 11.794975 13.920279 16.437935 10.867878 12.861055 11.998841 14.229845 14.423983 17.150791 9.088149 10.832412 11.524912 13.784905 10.749149 12.896179 9.266123 11.156713 9.570632 11.572215 7.624042 9.261305 5.915139 7.215434 7.217433 8.843266 5.67259 6.982811 4.917544 6.07739 3.206742 3.981186 4.159742 5.183068 3.038304 3.800598 2.973104 3.732437 3.869964 4.88013 1.897416 2.402422 1.874028 2.379515 2.769909 3.529913 2.724274 3.487606 1.564349 2.0102c2.868366.38711 5.574861.645129 8.119488.774056-7.749775-11.982219-15.586491-23.900102-23.511003-35.755996-24.791765-37.117601-49.596897-72.094155-74.797233-105.320288l-3.003816-3.951283-4.695796-6.155258-4.739324-6.184586-3.189503-4.146901-5.651097-7.31841-4.926122-6.350693-6.707582-8.607001-7.768221-9.914824-7.133247-9.059452-7.376845-9.328981-5.70916-7.19541-7.8698-9.88784-9.237141-11.566893-6.402417-7.996307-6.840587-8.512249-8.306978-10.311334-7.014994-8.686657-7.108747-8.784135-10.126981-12.483217-10.353305-12.727792-13.683906-16.773922-7.800991-9.540263-11.181252-13.64883c-.539997-.658493-1.081102-1.318242-1.623326-1.979264-5.239962-6.384402-4.3091-15.805929 2.078496-21.041339 6.294798-5.160824 15.538517-4.331334 20.81917 1.806862l.325665.39165.23325.297228 10.761763 14.125381 7.505146 9.869242 11.717541 15.442018 11.391398 15.055552 8.351265 11.067464 8.203397 10.898215 5.394313 7.181637 9.311812 12.427312 7.867258 10.530711 11.10525 14.936631 9.56876 12.921253 7.329872 9.937109 6.199303 8.435417 6.863877 9.377528 5.832495 8.00345 4.884665 6.730116 4.790717 6.626827 6.260889 8.702435 4.615173 6.447328 3.802327 5.333474 3.769576 5.307512 3.743323 5.290703c24.969141 35.31887 49.434508 72.474376 73.748773 111.82803 8.788116 14.212663 17.456766 28.511584 26.005504 42.895527 3.270343-.927756 5.977739-2.307109 8.123951-4.134009 19.841164-16.88921 30.602552-90.182652 32.284166-219.880327l-.60144-4.079813-.952269-6.33967-1.007713-6.600259-.890823-5.710573-.606293-3.837406-.928736-5.806463-.632416-3.907354-.969188-5.920416-.994677-5.997459-1.021079-6.081004-.695839-4.103628-.70825-4.145576-.720932-4.189451-1.105768-6.370657-1.283119-7.317062-1.228247-6.93234-1.565698-8.740401-1.601938-8.838206-1.640831-8.951544-1.342449-7.253278-1.717521-9.194698-1.407237-7.467933-1.438239-7.576259-1.843463-9.634773-1.13145-5.874536-1.929875-9.957783-1.585142-8.125373-2.486014-12.656487-.02272-.135013c-1.370292-7.807126 3.660074-15.279126 11.378869-17.09073l.318715-.071249.313181-.063173c8.051104-1.539036 15.873329 3.569129 17.610717 11.498881zm-129.526852 697.149884-4.760933-.00058.000876 5.248032h312.472l-.000876-5.248032-4.760409.00058c-.126393.002578-.253027.00275-.379838.000489l-302.191267.000005c-.126715.002256-.253254.002083-.379553-.000494zm170.138131-49.90243h-37.325604c-1.029758 0-2.925268.383901-5.661964 1.144745l-1.139484.324425c-.394743.114832-.804383.236349-1.22886.364534l-1.317889.404542-1.406567.444454c-.241798.077396-.487277.15645-.736429.237162l-1.53893.504133-1.626735.543797-1.71419.58336c-.292967.100518-.589564.202681-.889782.306486l-1.84472.642521-1.931302.681839c-.329079.11691-.661751.235455-.99801.355631l-2.06052.740628-2.146229.779697-2.231589.818668-2.316599.857539-2.40126.896312-2.485572.934985-3.885678 1.474775-2.694822 1.031236-4.197915 1.618687c-.476778.184633-.956996.370857-1.440646.558669l-2.943041 1.145921-3.025081 1.183952-3.106773 1.221884-4.812567 1.90373-3.309472 1.316279-5.114979 2.04486-3.50999 1.410057-5.414116 2.185063-3.064749 1.241279h201.716l-1.217925-.494314-5.473551-2.212992-3.549831-1.428738-5.175068-2.072975-3.349751-1.335084-4.873311-1.93203-4.690684-1.847019-3.025082-1.183952-4.383686-1.70459-4.197916-1.618687-2.694822-1.031236-3.885677-1.474775-3.696763-1.387981-3.506668-1.300855-2.231589-.818668-2.14623-.779697-2.06052-.740628-.501697-.17904-.496313-.176591-1.931302-.681839-1.844719-.642521-.44761-.154475-.442172-.152011-1.714191-.58336-1.626735-.543797-1.53893-.504133-1.450775-.464372-.348879-.109868-.343342-.107376-1.317888-.404542c-.282985-.085457-.559376-.16795-.829154-.247474l-.399707-.11706-1.139483-.324425c-2.736697-.760844-4.632206-1.144745-5.661965-1.144745zm-98.680064-.00015-19.421124.000032-37.243876 22.981968 5.060699-2.099293 6.603226-2.726888 4.287231-1.763907 6.25934-2.565081 4.059065-1.656345 3.968411-1.613494 5.783403-2.34011 5.581395-2.244251 5.380567-2.148726 3.476054-1.379579 3.387671-1.337371zm179.457569.000032-19.427569-.000032 2.822462 1.106955 3.387671 1.337371 3.476055 1.379579 5.380566 2.148726 5.581395 2.244251 5.783403 2.34011 3.968411 1.613494 4.059066 1.656345 8.391493 3.441641 6.534186 2.694452 6.741697 2.79187.533595.221206zm-104.734693-29.624v6.105h10.001l.000459-6.046175-.488323.010591-.186748.003773-.420874.007468c-.221699.003711-.443731.007002-.666082.009869l-.251521.00309-.12762.001387-.608465.005461-.60993.003351-.640896.001185c-.394134 0-.787475-.001327-1.179937-.003972l-.028154-.000185c-.027412-.000189-.054819-.000384-.082223-.000586-.309626-.002292-.617972-.005387-.925726-.009294-.159554-.002003-.318879-.004244-.478051-.006702-.29573-.004598-.591321-.009929-.886304-.016008l-.289899-.007485.096291.003386-.117291-.003386-.116-.003.043.001-.082-.002-.962925-.02388-.147745-.004412c-.169703-.005071-.339181-.01039-.508423-.015958zm33.998706-43.304232.587779-.135587c-7.859969 1.855826-18.145697 2.883027-29.040372 2.883027-10.217521 0-19.899438-.903478-27.547093-2.546633l.00098 19.919425.46027.150171c.679134.213835 1.44854.429542 2.297903.640386l.431296.104986.394331.092489c2.738327.631086 5.94948 1.14989 9.479981 1.534086l.018384.001186c.324421.035292.651182.069414.980167.102356.971287.097259 1.961952.184234 2.968974.260649l.3814.027459.05.004h-.002l.057.004.196.014h-.001l.126.009.316.021-.231906-.014867.420036.02838-.19313-.013513.279.018.616.039.599346.03587-.439346-.02587.399823.02374.435949.024-.378772-.02174.402098.022847.128902.006153.292603.015654-.160603-.008654.195.01.105.005.038035.002639.170965.007361-.085-.004.539357.025934.302643.012066.543351.022975c.233927.009067.468542.017597.703813.025587l.408982.013322.316854.009116.093409.003114.014591-.000114.028.001.206647.006225.273353.006775-.442-.012.662.017.565653.012598c.721056.01422 1.447217.023385 2.177605.027366l.839268.002286.967984-.002913c.267919-.001637.535337-.003966.802215-.006983l.030964-.00038.845311-.012974.563049-.009791.565219-.012814.400732-.011395.936513-.02719 1.148408-.042929.50447-.021732.428609-.020149.121828-.00588c.197865-.009637.395169-.019659.59189-.030065.247595-.012818.494118-.026519.739823-.040832l-.180541.009777.323-.019.057-.003.085-.005.266155-.015961.410845-.027039.063-.004.07393-.004195.05907-.004805.172-.012.67-.047.299-.022.057-.004.048-.004.018-.001.011-.001.041543-.002713.077457-.006287-.043.003.076-.006.317-.025.223-.018-.047.004-.176.014-.212.017.330045-.025743.057955-.005257.051-.004.162321-.013015c.090259-.007508.180352-.015099.270275-.022774l.887512-.079214c.008358-.000776.016714-.001541.025069-.002296 4.337848-.40251 8.25345-1.001741 11.487915-1.758516 1.137715-.266194 2.14827-.543219 3.009725-.816422l.360002-.11681.039475-.014721zm-17.148063-24.196534-.36222.099073-.366521.09431-.336125.081549c-2.802705.661059-6.222022.946816-10.429411.946816-4.193902 0-7.623484-.284528-10.444896-.936502-.275521-.063668-.547587-.130882-.816066-.201902l-.102147.008168c-.66787.056124-1.326967.116887-1.976403.182164l-.9668.101284-.283801.031321-1.293636.152288-.785584.100419-.781644.1062-.908862.131786-1.06031.165766-.92189.155447-.977169.177305-.625421.120804-.649964.132118-.739743.159209-.943148.218104-1.225898.312983-.921938.26205-.634701.196881-.296345.096125-.001959.847242c.785159.254898 1.702463.514539 2.733664.766333l.369889.088814c6.233558 1.471813 15.005323 2.347819 24.444519 2.347819 9.439195 0 18.21096-.876006 24.444519-2.347819.432218-.102051.845781-.205661 1.239445-.30997l.760426-.209295c.488771-.139813.940689-.279851 1.352805-.418079l.587952-.205731.067864-.026346.000876-.531968-.325558-.107168-.344656-.108365-.350171-.105627-.67757-.193139-.652891-.173816-.69305-.172965-1.258668-.288037-.939514-.195927-.803008-.156101-.775674-.141727-1.078116-.183394-.267915-.043276-.269927-.042715-1.09943-.165172-1.934438-.258764-.798045-.095816-.922004-.103259-1.012839-.104627-.885223-.084205-.896335-.078631-.396094-.032686zm17.565357-45.143234h-58.359v5.471l.215186.012915c5.731376.394802 10.561712 3.605908 15.379574 8.697109l.344124.366842.336331.36461c2.741558 2.996157 5.278156 6.410478 7.577064 9.943543l.628691-.021145.703949-.020832 1.390711-.032574 1.44923-.021939 1.238704-.009193h1.380228l.698361.004234.792978.008132.791047.011724 1.347218.02834.212295.005246c1.402712-2.19427 2.921749-4.3661 4.552687-6.438488 4.548812-5.780048 9.178585-9.93456 14.610408-11.870345 1.263306-.450215 2.554079-.766247 3.867365-.93032l.564201-.060961.278648-.021898zm457.113502-274.291828c1.235668 3.216163-.361151 6.826877-3.56708 8.06554-.575762.223832-1.164761.353769-1.750923.400242l-.121014.007588c-3.156766.232368-6.398621.551992-9.626294 1.227282-3.233346.633559-6.489382 1.444475-9.70571 2.470688-3.223892 1.01009-6.435493 2.175723-9.600768 3.507334-3.161493 1.334456-6.290843 2.802643-9.333213 4.487073 2.424064-2.503883 5.030594-4.861707 7.736394-7.120893 2.711473-2.257289 5.546795-4.392229 8.500296-6.412408 2.945937-2.03725 6.041251-3.903782 9.267979-5.628047 3.211601-1.761254 6.63214-3.218059 10.161404-4.581917 3.204983-1.239612 6.804207.363253 8.038929 3.577518zm-184.266165-25.359005c2.448241 2.402106 2.527638 6.37919.178411 8.883493-.422207.449858-.894855.822351-1.400195 1.11557l-.104618.058262c-2.727532 1.565428-5.494296 3.245469-8.099463 5.244518-2.628519 1.964665-5.20286 4.099339-7.652035 6.414529-2.463185 2.301819-4.848842 4.74213-7.123342 7.31138-2.271698 2.57307-4.458394 5.253114-6.476021 8.09266 1.121838-3.322833 2.468791-6.589315 3.946515-9.809951 1.482395-3.219681 3.127321-6.3811 4.926371-9.489989 1.784105-3.120349 3.772775-6.149008 5.939855-9.104124 2.13719-2.983768 4.588232-5.776514 7.176586-8.533922 2.349227-2.503347 6.238762-2.584532 8.687936-.182426zm-761.7970506 1.468209c.66450763.096031 1.31591229.306339 1.8924429.584829 3.4573115 1.693026 6.8023119 3.459995 9.8992918 5.554431 3.1222499 2.042579 6.0835206 4.24745 8.8725808 6.613653 2.7974835 2.352758 5.4583218 4.816913 7.9600526 7.416471 2.500795 2.592837 4.8799195 5.289386 7.0362935 8.129022-2.8863965-2.036817-5.8925916-3.835477-8.9502626-5.485289-3.0539273-1.651733-6.1827288-3.112364-9.3339924-4.40302-3.1437763-1.305061-6.3418362-2.38925-9.5380243-3.261212-3.1802774-.93054-6.40922294-1.465432-9.55299918-1.920619l-.10108003-.014405c-3.55651972-.514726-6.03298055-3.889254-5.53132408-7.538431.50165646-3.649176 3.79050127-6.190156 7.34702099-5.67543zm889.8511276-43.330314c1.823201 2.955841.946517 6.855976-1.95626 8.711902-.521858.334297-1.073914.579256-1.640125.73872l-.116074.03074c-3.048104.84631-6.16321 1.794446-9.196216 3.095131-3.048104 1.259379-6.082053 2.699354-9.037677 4.346825-2.966003 1.63114-5.889541 3.41598-8.735697 5.35452-2.844268 1.943343-5.630028 4.012527-8.287447 6.27864 1.895864-2.961605 4.000283-5.811777 6.219832-8.585099 2.226154-2.771401 4.597636-5.445779 7.105009-8.029858 2.496992-2.59945 5.173284-5.056727 8.006228-7.399689 2.810296-2.376585 5.882936-4.488997 9.080143-6.533206 2.902777-1.855926 6.735084-.964467 8.558284 1.991374zm-212.62279-14.269886c2.718103 2.094637 3.21669 5.985352 1.112596 8.691239-.378434.486928-.815525.901335-1.293298 1.244162l-.099339.067812c-2.582812 1.825274-5.192115 3.769218-7.60747 6.007956-2.440899 2.206716-4.80895 4.574486-7.033196 7.107076-2.238437 2.520347-4.38605 5.166899-6.407834 7.929296-2.017053 2.766166-3.938552 5.626514-5.67178 8.627196.781466-3.377415 1.794723-6.725634 2.945163-10.039946 1.15517-3.316196 2.479689-6.591893 3.965042-9.832742 1.46927-3.250267 3.155194-6.431781 5.027496-9.561494 1.83919-3.1542 4.015185-6.152998 6.332148-9.132959 2.104093-2.705888 6.01237-3.202234 8.730472-1.107596zm-657.3703989-6.290801c.6473443.187851 1.2683433.482244 1.8027787.831778 3.204731 2.120566 6.2890258 4.295337 9.0797574 6.751417 2.8246043 2.410286 5.4647908 4.951413 7.9120912 7.62712 2.4576504 2.661689 4.7628737 5.413097 6.8921474 8.270113 2.1292737 2.852343 4.1230567 5.786929 5.8740855 8.828057-2.5893774-2.370099-5.3321228-4.528982-8.1454362-6.550482-2.8104907-2.023369-5.7207176-3.873841-8.6779899-5.561695-2.9478632-1.703742-5.9794671-3.200007-9.0392983-4.492534-3.0363085-1.345797-6.174235-2.317762-9.2406526-3.201876l-.0987953-.028037c-3.4672441-.998134-5.4638498-4.600946-4.4580197-8.044879 1.0058301-3.444867 4.6320876-5.427115 8.0993318-4.428982zm67.3559451-77.353195c.6181442.290732 1.1894013.685564 1.6668842 1.119786 2.8562856 2.625962 5.5814786 5.286625 7.9650646 8.177997 2.424733 2.850107 4.64278 5.800563 6.644572 8.851368 2.014231 3.039552 3.861009 6.142877 5.512583 9.321229 1.653488 3.172725 3.155788 6.40641 4.397818 9.703869-2.196038-2.773204-4.581539-5.359777-7.060814-7.82443-2.476404-2.465591-5.082944-4.7755-7.763163-6.934417-2.667781-2.171108-5.456127-4.152771-8.3057147-5.935612-2.8180102-1.831609-5.8006036-3.311526-8.7267412-4.691094l-.0937742-.044079c-3.3088894-1.560572-4.7011491-5.453561-3.1098584-8.696625 1.5912906-3.243063 5.5642544-4.607626 8.8731437-3.047992zm296.2036318-3.167704c.585611.274292 1.134801.642872 1.596773 1.048596 3.053611 2.705775 5.988376 5.445837 8.613562 8.416381 2.662565 2.930543 5.137275 5.966802 7.418379 9.106873 2.290688 3.130547 4.431858 6.328715 6.391882 9.613551 1.960983 3.280075 3.786824 6.625865 5.367303 10.055467-2.497713-2.833398-5.167946-5.477267-7.923481-8.001134-2.749784-2.524819-5.619374-4.893445-8.554138-7.117305-2.924222-2.237193-5.953872-4.290573-9.041988-6.153472-3.059363-1.911472-6.268243-3.482937-9.427284-4.95916l-.100637-.047621c-3.323894-1.552416-4.75198-5.489648-3.188753-8.79258 1.562269-3.302932 5.524488-4.722012 8.848382-3.169596zm190.873141-45.149605c3.07295 1.534597 4.326117 5.280457 2.80003 8.368632-.274809.556137-.619501 1.051536-1.020854 1.483349l-.083104.087312c-2.168253 2.313759-4.340283 4.747096-6.262057 7.434777-1.954827 2.661107-3.805774 5.468366-5.483903 8.407542-1.694184 2.930635-3.275044 5.96946-4.709528 9.097494-1.429762 3.130882-2.746201 6.335789-3.852048 9.641295.100102-3.490568.432517-6.998219.904698-10.500175.476902-3.502906 1.128511-7.002015 1.944439-10.496379.797985-3.500059 1.820728-6.975442 3.037064-10.437539 1.179507-3.47823 2.716927-6.871047 4.397889-10.271456 1.526087-3.088175 5.254424-4.3485 8.327374-2.814852zm-433.875698-11.09237c.561343.37854 1.063251.853851 1.467041 1.355726 2.413305 3.030224 4.693587 6.077525 6.607816 9.307929 1.961401 3.194353 3.704868 6.46081 5.223798 9.797471 1.533081 3.327175 2.89257 6.692298 4.052051 10.107704 1.161369 3.410662 2.16707 6.858324 2.909553 10.336346-1.748184-3.08525-3.707698-6.012063-5.77665-8.827875-2.065179-2.81771-4.27942-5.496906-6.588005-8.034742-2.294433-2.549221-4.733211-4.923877-7.260673-7.109737-2.48878-2.231398-5.189834-4.132641-7.848433-5.923831l-.085852-.057872c-3.006727-2.026474-3.811476-6.121166-1.795356-9.144749 2.015176-3.024532 6.08704-3.832844 9.09471-1.80637zm538.354542 11.429624c1.762096 2.991542.774788 6.850792-2.205241 8.619695-.536539.318575-1.099761.547222-1.675373.69168l-.118172.027744c-3.100107.759605-6.269783 1.618704-9.366078 2.831775-3.109638 1.171935-6.210698 2.522768-9.238377 4.083114-3.037209 1.543127-6.036298 3.240278-8.961053 5.094326-2.921897 1.856918-5.789472 3.841074-8.533157 6.026133 1.993674-2.89683 4.193197-5.678858 6.508033-8.378611 2.3196-2.698797 4.784057-5.297142 7.384792-7.802689 2.590253-2.517984 5.355857-4.893423 8.277753-7.14832 2.900931-2.29125 6.058218-4.310804 9.340348-6.258606 2.980029-1.76986 6.824429-.777782 8.586525 2.213759zm-222.00981-46.529341c.285278.618374.468012 1.285469.550769 1.923354.478265 3.83779.832292 7.620556.770641 11.361368-.004124 3.735593-.233223 7.416448-.696098 11.036393-.446071 3.618786-1.063849 7.179805-1.881354 10.6748-.814052 3.49172-1.783383 6.933053-2.998251 10.258116.129984-3.530328-.009321-7.039301-.302589-10.514384-.290702-3.472767-.784674-6.908945-1.435208-10.2763-.632483-3.370227-1.483381-6.669963-2.513481-9.856695-.972562-3.204367-2.305524-6.244183-3.659502-9.169823l-.043789-.093869c-1.532867-3.308396-.041688-7.186769 3.330167-8.662708 3.370606-1.474226 7.345828.011352 8.878695 3.319748zm191.151473 3.821612c2.650742 2.144994 3.092533 6.069736.985174 8.768767-.378411.485731-.814609.897464-1.289021 1.236147l-.098797.067357c-2.566858 1.805363-5.162609 3.730261-7.570086 5.953048-2.431711 2.192429-4.794451 4.547085-7.017383 7.06871-2.236913 2.510241-4.385281 5.148556-6.411552 7.905458-2.022542 2.759747-3.950947 5.61721-5.696672 8.616977.811813-3.392526 1.85291-6.750899 3.027289-10.076067 1.179972-3.323271 2.52678-6.606697 4.030172-9.851226 1.488479-3.254965 3.189465-6.43783 5.073132-9.566619 1.851978-3.153455 4.032968-6.147529 6.352833-9.118835 2.106427-2.698083 5.963237-3.147763 8.614911-1.003717zm-262.813326-22.56571c.46964.467193.867608 1.015555 1.166556 1.56958 1.839896 3.453455 3.55248 6.899359 4.885013 10.45569 1.384402 3.529905 2.546243 7.09473 3.483637 10.685983.95154 3.58559 1.731445 7.180619 2.305764 10.789804.579035 3.604467 1.000579 7.220259 1.159012 10.821894-1.215595-3.387386-2.66601-6.656795-4.240908-9.839372-1.570183-3.182577-3.311058-6.258502-5.166986-9.216448-1.841782-2.965497-3.849542-5.791309-5.981784-8.45195-2.085089-2.697451-4.432348-5.121193-6.761688-7.434508l-.074501-.073618c-2.567933-2.54927-2.583965-6.699268-.036779-9.269302 2.548128-2.5700349 6.694731-2.5870238 9.262664-.037753z"/></svg>