<svg height="960" viewBox="0 0 960 960" width="960" xmlns="http://www.w3.org/2000/svg"><path d="m522.16353 221.751758 11.922976 4.075368 10.589117.820608c2.839241.220028 5.646867.74263 8.375122 1.558915l42.389846 12.682909c16.933542 5.066463 28.534324 20.646278 28.534324 38.321512v4.333774c0 2.467272-.220199 4.873152-.703761 7.17753 1.05377 5.539582.921812 11.239682-.385112 16.725814l-2.950862 12.386969c-1.509273 6.335545-4.532664 12.168352-8.784234 17.005939l3.791786 2.652906c3.539718.809497 7.086652 1.916243 10.607199 3.35656l43.438006 6.44853c15.422394-9.385241 33.101095-13.576393 51.967924-12.259364 6.663867.465183 12.557673 1.066357 17.79694 1.842519 6.392301.946975 11.993519 2.170429 17.146828 3.903681 3.623864 1.218841 7.063208 2.699461 10.41097 4.610286 4.986496 2.846176 9.535137 6.490775 13.464126 11.39573 3.356287 4.189994 5.951505 8.979927 7.564387 14.194055 18.584029 8.699144 34.60588 20.308343 47.820838 34.848739 11.211941 12.336478 21.404604 28.120726 30.843428 47.48574.553801-.182982.967705-.317153 1.253899-.406705 6.825241-2.135646 8.592554-2.673902 11.590558-3.472501 5.016768-1.336349 9.50749-2.170394 14.389301-2.506487 1.506926-.103746 3.011404-.15492 4.523372-.15492 7.492502 0 14.424587 1.750247 20.77876 4.725669 4.515114 2.114259 8.566045 4.764867 12.368585 7.867386 5.275109 4.304 9.999729 9.410215 14.697418 15.447641 3.898227 5.009967 6.88173 10.489263 9.040996 16.326552 1.767691 4.778718 2.930513 9.6298 3.659305 14.68734.546321 3.791261.834231 7.562885.965551 11.714269.09422 2.711659.09422 4.722242.09422 9.234536v1.666372c0 10.323386-.977949 20.518587-2.930978 30.550146-2.632175 13.519923-12.035145 24.734527-24.888871 29.684113l-383.721046 147.759496c-2.445264.941598-4.977133 1.640645-7.559115 2.087067l-6.05991 1.047748c-10.736922 10.81778-23.548538 18.999915-37.994154 23.973939-6.867732 2.36475-13.922214 3.938238-21.085762 4.708229-6.020275 3.711186-12.434564 6.744269-19.176143 9.065581-18.021045 6.205143-37.16434 6.92051-56.041367 2.540304-17.116195-3.971623-33.639818-12.036382-48.821261-23.464892-22.52492-16.956641-41.634891-40.955099-55.21654-69.18916-.317557-.017737-.633539-.048813-.949122-.082944-4.380548-.473763-8.571463-1.520465-12.595308-3.03183-3.101207-1.164821-9.051726-3.835564-20.22484-8.981282-8.922333-4.109133-20.659981-9.574118-33.960431-15.807625-18.280472-8.567489-37.982494-17.869836-52.983904-25.009631-5.928157 1.854567-11.491131 3.361999-16.452088 4.487408-10.320249 2.341183-22.460635 3.809663-36.672364 4.555109l-.001658-.031633c-14.346446 1.057821-28.4565266-2.38035-41.5500467-9.356946-11.4058256-6.077344-21.920669-14.772395-31.3556955-25.516618-17.3819272-19.793827-31.0375537-46.517599-38.971533-76.127613-8.14649788-30.403144-9.54642517-61.184047-3.88687159-87.470614 3.09869422-14.392307 8.30005329-27.427988 15.74777309-38.455949 8.3208987-12.320891 19.317745-21.92316 32.6511743-27.548177 11.1939744-5.572629 24.2541536-10.017543 39.2622414-13.555384 5.3731765-1.266613 10.613854-2.293116 15.719477-3.057265l8.749351-10.827728c.977491-1.209689 2.01165-2.347934 3.110646-3.391745 12.338398-15.157039 24.282402-29.346344 32.347042-38.162847.71594-.782687 1.396697-1.536452 2.063135-2.285545-.082-1.298264-.119392-2.411944-.119392-3.439884 0-4.667677.667358-8.231697 1.711578-11.831122.489398-1.686956 1.030695-3.211175 1.63951-4.733404.748282-1.870944 1.592037-3.714397 2.581505-5.72018 1.37254-2.782318 3.072345-5.960269 5.098746-9.589682 1.53936-2.757095 3.214154-5.678396 4.978173-8.701287 1.193826-2.045786 2.168763-3.696319 3.320239-5.632944 4.672776-7.858971 11.001149-14.0416 18.66553-18.524144 2.811402-1.64426 5.600832-2.955477 8.566046-4.124997 1.898004-.748597 3.654296-1.361873 5.94905-2.113263 4.541373-1.487018 14.403179-3.945012 25.269284-6.363206 12.653285-2.815922 24.645936-5.126555 33.999501-6.419685 6.16177-.851864 13.096965-1.24562 20.962712-1.315873 6.229962-.055643 12.970395.096829 20.082595.417552 10.198639.459905 20.815688 1.263322 27.133318 1.909585 5.051434.516737 24.159394 3.37492 60.94331 9.0727.405062.062743.808637.131628 1.202445.236796 4.87401.699546 17.244438 2.512848 37.357167 5.475467l21.208685-8.012556c1.971296-.744748 3.998362-1.332553 6.062269-1.757927l38.622305-7.960111c6.996725-1.442035 14.251974-.983974 21.01178 1.326581zm-141.259903 282.180367-1.20836.018803c-.032028.000817-.064053.001659-.096077.002527-.880781.023849-1.76055.066931-2.638345.12945-.014381.001024-.028387.002026-.042392.003034l-1.239811.102271c-.074722.006955-.149428.014053-.224118.021293l-1.178387.126215c-.064374.007553-.128736.015213-.193085.022979l-.801645.10411c.050649.407866.076736.823351.076736 1.24493 0 4.424928-2.87401 8.178596-6.86026 9.489646-.818935 2.11319-1.513346 5.804701-1.910481 10.87449-.431304 5.50598-5.244424 9.619819-10.750405 9.188515-5.50598-.431304-9.619819-5.244424-9.188515-10.750405.244032-3.115281.589248-5.951177 1.0511-8.523614-13.536345 10.379761-23.133731 26.74124-28.098889 46.494914-.033188.13204-.065933.263282-.098475.394673-.090803.366626-.180122.734859-.267844 1.104235.724433.602999 1.36564 1.103644 1.917906 1.50177.320164.230806.597096.417457.824822.558653.088667.054976.164419.099659.225949.133946.035049.019532.056286.030655.061899.03342-.001564-.000791.003874.001592.01631.006683.02912.011922.067169.026258.114065.042513.134241.046532.306159.096844.514551.148057.540438.132815 1.234576.249609 2.072467.339141 5.491585.586795 9.467704 5.514297 8.880908 11.005883s-5.514298 9.467704-11.005883 8.880908c-2.505883-.267762-4.763634-.71834-6.80054-1.403645-.506412 7.345585-.461973 14.969284.159767 22.771435.012679.159098.02555.317692.03866.476358.585982 7.092338 1.648628 14.330532 3.207641 21.640799.02584.121165.051848.242496.077992.363845 1.041743 4.835233 2.300577 9.701219 3.78225 14.576939l.069546.228323 2.347115-1.408015c4.733604-2.845143 10.877392-1.314243 13.722535 3.419361s1.314243 10.877392-3.41936 13.722535l-5.645608 3.393646c.276878.643764.556895 1.284596.840002 1.922458 1.394405 3.141685 2.863678 6.211131 4.402239 9.204294.555652 1.08099 1.120573 2.152458 1.69427 3.213766.656224 1.213978 1.323941 2.414681 2.00274 3.601788l.858547 1.48414c1.002656 1.713333 2.028491 3.397526 3.076265 5.051641l.898859 1.403361c1.047938 1.618089 2.116966 3.206531 3.205885 4.764423l.963292 1.362949c.423523.592629.849939 1.180693 1.279181 1.764142l.873544 1.17581c.04242.056543.084867.113041.127341.169495l.947522 1.246254c2.638127 3.433648 5.375244 6.696713 8.196369 9.777914l1.100274 1.187952c.017895.019098.035793.03819.053694.057274l1.062365 1.120075c.148489.154821.297193.309146.446111.462972 1.14999-1.246638 2.457696-2.790666 3.9101-4.624235 3.429251-4.329212 9.718729-5.058775 14.047941-1.629524 4.329213 3.429251 5.058776 9.718728 1.629525 14.047941-1.62665 2.053543-3.152968 3.871291-4.604244 5.463967.375419.282738.752725.561447 1.130807.837115.780315.568939 1.563593 1.124682 2.34994 1.667301.970364.669598 1.945215 1.31909 2.924292 1.94827l1.165574.738182c1.363777.851057 2.73536 1.662709 4.113558 2.434062l1.222959.672944c1.382801.747899 2.771874 1.455186 4.166027 2.120965l1.256286.588065c.963853.442079 1.929954.864274 2.89791 1.266289l1.164149.473404c.099959.039782.199935.079349.299929.118699l1.108639.427139c.97729.368483 1.95611.716256 2.936061 1.043021l1.219062.395464c1.422306.448519 2.846643.852598 4.271792 1.211322l1.272721.308231c.97857.22766 1.957352.433818 2.935953.618179l1.13082.203335c.048987.008388.097973.016721.146958.024998l1.237461.197427c.988822.148407 1.977113.27427 2.964467.377284.870862.090866 1.741376.16398 2.610881.219093.969559.061451 1.937598.100514 2.903996.116915.840137.014251 1.67849.011388 2.515349-.008771.058628-.001413.117249-.00291.175862-.004492l1.218738-.045215c.068737-.003247.137464-.006613.206179-.010096l1.209857-.073629c.036712-.002609.073421-.005252.110126-.007929l1.188997-.098747c.146776-.013681.293491-.027911.440146-.042691-1.154679-1.002523-2.523857-2.129683-4.096651-3.36917-4.337728-3.418473-5.082931-9.706117-1.664457-14.043845 3.418473-4.337727 9.706117-5.08293 14.043845-1.664457 5.129578 4.042515 8.757253 7.334294 11.058669 10.151712.665171.81431 1.233507 1.680569 1.715011 2.597363.301322-.153177.600318-.313716.897795-.476821l.93644-.524779c.921582-.527705 1.828204-1.080372 2.719692-1.657377l.678895-.446054c.111541-.074387.222841-.149158.333899-.224314l.836593-.576603c.364247-.255648.725822-.515483 1.084712-.77946l.022925-.016871.022918-.016882-.032992.021578.72491-.539172c.830852-.630795 1.646961-1.284082 2.448166-1.959276 4.536193-3.819483 8.595653-8.339125 12.149526-13.451412-3.613954-4.567413-5.796367-10.352308-5.796367-16.72163l-.001202-.265398c-.064189-.033242-.127208-.06545-.189047-.09662-.342242-.172508-.627261-.302514-.846452-.390167-.031143-.012453-.059165-.023334-.083721-.032574-.141524-.014177-.338062-.02324-.584927-.02324-.688532 0-1.593924.070019-2.693869.22074-5.471718.749769-10.515229-3.078127-11.264998-8.549844-.749769-5.471718 3.078127-10.515229 8.549844-11.264998 2.610008-.357639 4.960799-.493337 7.115192-.356752l-.00082-45.361144c0-11.500979 6.7835-21.828899 17.139391-26.464375-.429201-1.562807-.883242-3.126778-1.360243-4.69173-5.940948-.545922-10.161458-.510935-12.348124-.034637-2.193273.477737-5.705444 2.192112-10.232259 5.212421-4.594147 3.065233-10.803302 1.825804-13.868535-2.768344-3.065234-4.594147-1.825804-10.803302 2.768343-13.868535 6.423735-4.285941 12.014275-7.014818 17.075871-8.117331 2.547213-.554832 5.547234-.820937 9.055938-.823179-9.587115-21.863464-22.802649-40.279232-37.749159-53.820864-1.82821 2.372583-4.696935 3.89957-7.922307 3.89957-2.109371 0-3.800136.489544-5.317762 1.486846-1.737034 1.141484-3.417043 3.055529-4.992174 5.88991-2.682751 4.827493-8.771007 6.56615-13.598501 3.883399-4.827493-2.682751-6.56615-8.771007-3.883399-13.5985 4.20905-7.574001 9.863138-12.894688 16.686666-15.603101-11.630596-6.762456-23.765086-10.656904-35.680481-11.139638l-.066035-.00264c-.410204-.016186-.820147-.028327-1.229799-.0364-.03388-.000667-.067522-.001303-.101163-.001911l-1.211823-.010008c-.083024.000132-.166034.000433-.249031.000902zm516.856881-15.15226c-4.895853 0-9.042537 1.331229-18.558175 4.308712-.100914.031577-.233222.074042-.396924.127395-.123929.040391-.266143.087118-.42642.140111l-.076397.025281c-.071603.023713-.146571.048594-.224903.074642l-.017418.005792-.136163.045336c-.619992.206624-1.429462.478966-2.42841.817026l-.145913.049355c-.328018.111091-.678039.229761-1.048018.355353l-.02883.009787c-.283206.096143-.578041.196318-.884505.300528l-.103332.035061c-.062255.021251-.125935.042911-.190102.064741-.211472.071853-.426624.145077-.646981.220105-.044049.015098-.089461.030563-.135092.046103l-.030453.010372c-.162492.055342-.327748.111643-.495769.168903l.031382-.010811c-.159777.054565-.321524.1097-.485766.1657-.336729.114812-.68394.233259-1.041632.355342l.017029-.005974c-.257974.088092-.52143.178073-.790363.269944-.199646.068244-.402292.137469-.607948.207738-.500604.171047-1.019174.348324-1.555591.531792l-.139329.047656c-13.356424 4.568591-37.651779 12.931217-72.886064 25.087877-1.415399.488346-1.630784 12.826678-3.040279 13.345878-32.077668 11.81609-62.499086 23.180644-113.800238 40.915384-2.132302.737134-18.214027-7.60712-20.377919-6.859029-22.753799 7.866336-58.864078 20.354933-108.330837 37.46579l-1.462882.506021c-.521746.180476-1.044963.36146-1.56965.542954-2.180715.754461-4.387741 1.517837-6.620181 2.290031-.644574.22292-1.291265.446618-1.940076.67105-.498024.172291-.997313.344998-1.49785.518137-.986402.341198-1.97773.684113-2.973907 1.028705-1.028519.35578-2.061937.713255-3.100521 1.072519-9.071528 3.137991-18.537258 6.412402-28.39719 9.823235-.961198.332488-1.926248.666334-2.895048 1.001475-1.342285.464343-2.691213.930978-4.047329 1.400101l-.231622.080125-.304441.111458c-.239111.092433-.472665.194419-.700287.305427l-.281866.143665c-.547815.291492-1.058752.63629-1.527204 1.026497-.153683.12802-.302621.260763-.446799.398103-1.746163 1.663573-2.794082 4.000853-2.794082 6.519012l.000026 49.699328-.000026 16.420669c0 3.94788 3.234031 7.02972 7.037064 7.001657.380304-.002806.766297-.036712 1.155316-.10396l.832385-.144207 36.437522-6.298506.879478-.339494 5.393093-2.076716 377.448475-145.343287c1.460706-7.502781 2.194096-15.138155 2.194096-22.906124 0-11.651952.30671-21.821462-5.329614-29.065214-5.636323-7.243752-11.379666-12.604551-16.27552-12.604551zm-514.672699 74.306921c6.450592 1.89117 12.770763 5.475397 18.679592 10.465969 11.449703 9.67037 21.031615 24.335453 26.882119 41.326549 5.850503 16.991096 7.32858 34.446553 4.259765 49.11605-1.583718 7.570463-4.35741 14.285958-8.276225 19.747601-4.309491 6.006128-9.930871 10.387742-16.582235 12.67799l-2.515575.752247c-5.917087 1.507406-12.149795 1.286146-18.356753-.533597-6.450592-1.89117-12.770763-5.475397-18.679592-10.465968-11.449703-9.670371-21.031615-24.335454-26.882119-41.32655-5.850503-16.991095-7.32858-34.446553-4.259765-49.11605 1.583718-7.570462 4.35741-14.285957 8.276225-19.747601 4.309491-6.006128 9.930871-10.387741 16.582234-12.677989 6.651364-2.290249 13.778662-2.298357 20.872329-.218651zm-14.360966 19.129022c-2.576912.887302-4.867423 2.672653-6.843789 5.42711-2.197015 3.061975-3.908484 7.205677-4.949807 12.183396-2.297075 10.980437-1.12696 24.798997 3.593911 38.5094 4.72087 13.710404 12.306362 25.319972 20.876713 32.558454 3.885164 3.281393 7.784938 5.49299 11.401349 6.553242 3.253211.953769 6.15733.950465 8.734242.063163l.952863-.374973c2.191769-.973809 4.161607-2.641987 5.890927-5.052137 2.197015-3.061974 3.908483-7.205677 4.949807-12.183396 2.297075-10.980437 1.12696-24.798996-3.593911-38.5094-4.72087-13.710404-12.306362-25.319972-20.876713-32.558454-3.885164-3.281393-7.784938-5.49299-11.401349-6.553242-3.253211-.953769-6.15733-.950465-8.734243-.063163zm-202.082743-56.12994c-.77915 13.725477-2.099263 40.515697-2.099263 44.740248 0 .1834-.000285.329337-.001771.636605-.002922 1.368178.0071 1.875358.048115 2.325502.014396.158004.03022.268522.045344.341445.0159.024431.039209.057435.072134.10042.207046.2703.563071.633107 1.112833 1.090411 1.635477 1.360423 4.355889 3.028787 8.378496 5.033012 7.520862 3.747197 36.347771 17.450138 65.96647 31.366738 26.958394 12.666632 48.413916 22.614535 56.514932 26.194397-.047155-.766131-.140695-1.611876-.281465-2.523554-.712752-4.616051-2.104191-14.18336-5.214021-35.743308l-.013224-.091676c-3.830222-26.554445-4.913742-34.014968-5.38331-36.937122-.218473-1.359575-.40058-2.142613-.566324-2.580503-.006122-.016174-.011829-.03079-.017065-.043751-.002749-.00231-.005636-.004716-.008625-.007192-.058391-.048379-.134606-.105692-.231297-.171964-.278445-.190845-.660778-.411379-1.161351-.65868-1.276108-.630443-3.107208-1.329934-5.623899-2.124738-6.714884-2.12065-11.233045-3.54001-14.493512-4.555063-.066351.147703-.119342.269793-.161733.372286-.018827.045523-.034421.08442-.046697.116098l-.019223.051002c.004213-.012477.009834-.030008.016867-.053297-1.238345 4.100555-4.435857 6.909151-8.339513 7.947685-2.334421.621053-4.664916.591143-7.206163.153172-3.470383-.598102-7.709091-2.0729-13.019744-4.423079-.011842-.00524-.023673-.010504-.035494-.01579-37.371205-16.71218-60.10625-26.887962-68.231497-30.539304zm16.870083 17.371809c2.964912 1.339808 7.986287 3.608784 11.233244 5.074778 9.302604 4.200105 18.232591 8.22455 26.653476 12.008711l.467408.210031c22.540817 10.128169 37.021401 16.55318 40.515076 17.923652 5.507371 2.160388 6.386681 3.047481 6.848314 5.561611.754016 4.106498 2.547265 17.453063 3.458995 25.681402-5.118793-2.379819-15.97925-7.412078-40.037941-18.559738l-.073401-.034011c-28.749274-13.321085-43.084145-19.987843-44.706672-20.814005-.270978-.137976-.549117-.277003-.881733-.441317-.169678-.083822-.753539-.370902-.766993-.377489-3.162912-1.557096-3.416004-1.799671-3.416004-2.430382 0-1.977526.111508-6.056732.32801-12.534134.016775-.501875.034335-1.023153.053141-1.577865-.007308.215554.215964-6.306477.264779-7.793627.023608-.71921.043716-1.35013.060301-1.897617zm-109.2932788-127.230747c-1.2741797.341415-2.5139455.767317-3.7184733 1.274212-.6515397.274187-1.2926811.572027-1.9233849.893005-.5038207.256399-1.001187.527684-1.4918209.813464-6.7485765 3.930854-12.2233986 10.604189-16.2512826 19.286363-.5244861 1.130542-1.0244117 2.295078-1.4994238 3.492052-3.6961784 9.314258-5.8837785 20.591486-6.3830337 33.069618-.0296864.742033-.0533908 1.487825-.0710947 2.237697-.3053467 12.933712 1.1743628 27.081386 4.6330549 41.621594.2085065.876556.4242455 1.754698.6472217 2.634088.1141433.450167.2302094.900762.3481787 1.351659l.2793933 1.055152c.4057565 1.514304.8285101 3.015105 1.2676177 4.501719 1.7953222 6.07813 3.8640377 11.919147 6.1621937 17.476363.1196811.289425.2400828.578294.3611015.866386.2306869.549142.4636871 1.095645.6988878 1.639275.2297523.531063.4615474 1.059232.6954007 1.584617 6.3237502 14.207298 14.1530392 26.380249 22.6931147 35.674698.7226807.786347 1.4502657 1.552033 2.182455 2.296601.4197738.427115.8416293.847625 1.2649119 1.26108.4799944.468548.9614627.927961 1.4446301 1.378173 2.0165811 1.879508 4.0632446 3.598784 6.1298988 5.147515 2.5569761 1.915236 5.1445597 3.57008 7.744463 4.944387.5989992.318258 1.1995132.620505 1.8004602.907586l.840378.391431c.610303.276979 1.220945.53822 1.831693.783473.5611.223027 1.122338.43477 1.68348.632819.014087.007468.02843.012524.042772.017571 6.453784 2.267258 12.894114 2.724959 19.044596 1.076942 9.58131-2.567305 17.216717-9.911803 22.555757-20.54887-.485563-.851509-.902962-1.730731-1.254882-2.641667-.722314-1.869695-1.123155-3.741855-1.305483-5.742947-.117385-1.288333-.135149-2.187262-.130688-4.192886 0-.289999.00184-.423747.00184-.583984 0-3.175043.433378-13.145354 1.133802-26.966761.563665-11.12276 1.213627-22.915817 1.423548-25.887461l.137395-1.286545c.571034-3.97013 2.449734-7.323214 5.31238-9.573862-.703302-3.410791-1.51727-6.849039-2.443003-10.303922-13.933424-52.000243-47.909663-88.077422-75.8880548-80.580635zm430.4768328 130.60668c-2.955471.187799-4.999665.521056-5.971365.89046-1.080646.410822-3.01512 1.802328-5.500478 4.232219-2.481593 2.42621-5.903881 3.299574-9.062727 2.633682 6.513848 11.119604 12.065612 23.188485 16.457175 35.942507 1.245295 3.616599 2.383157 7.247222 3.413489 10.884345 7.325023-2.533627 14.421246-4.988355 21.288297-7.363773-.99546-3.588757-2.111632-7.185801-3.350253-10.783018-4.565835-13.260148-10.441367-25.494064-17.274138-36.436422zm-341.792212 50.204054-.324584.559905c-.176684.298693-.355099.595473-.535243.890323.744379-.227331 1.505917-.464194 2.283777-.710754-.486693-.249424-.961032-.495188-1.42395-.739474zm300.302335-117.715269c-1.12404.01438-1.849014.023154-2.430395.028253 7.372075 3.450449 14.575039 7.825397 21.504771 13.042063 25.563256 19.243883 46.491626 49.200656 58.60001 84.365958 1.229385 3.570393 2.354066 7.154454 3.373946 10.744944 48.434287-16.753712 83.873994-29.010354 106.318985-36.769931 1.898876-.65647 3.700492-.982308 5.461465-1.098415 1.159217-.076432 2.242817-.056227 3.296762.03167 1.353715.112898 2.582343.328816 3.81557.622399 1.475181.351182 2.918928.806933 4.534939 1.389544 1.966874.709105 3.603156 1.371413 7.308734 2.916593l.023781.009916c.804281.335377 1.486199.618748 2.072602.860732 19.378392-6.723875 36.679454-12.85498 53.695301-19.004493 11.697251-4.227377 18.803789-6.826 36.020864-13.171445-2.128269-5.825385-4.151552-10.129897-5.978587-12.832447-.26285-.388808-.550566-.786925-.863098-1.194116.387117 1.967672.375695 4.010353-.131505 6.103199-.828373 3.418096-2.833542 6.294966-5.714758 8.666649-2.283008 1.879266-5.187845 3.505531-8.836431 5.024702-5.596209 2.330107-16.289803 5.792628-30.606634 10.065122-9.37038 2.796352-19.984844 5.833106-25.436174 7.332478-.183484.050467-.3887.109789-.643761.185915-.102272.030524-.211933.063549-.347075.104481-.082136.024877-.380886.115583-.382467.116062-2.41186.731696-3.858354 1.092046-5.881004 1.335781-2.787307.335877-5.627268.206165-8.648987-.451136-6.153499-1.338544-13.04539-4.879866-21.709292-11.166191-5.744885-4.168354-19.832618-14.344204-42.259736-30.525045l-110.419484-11.009654c-4.051426-.403941-7.453441-3.223866-8.601853-7.130064-.170462-.579808-.294087-.970384-.337821-1.090475-.790944-2.171875-2.160772-3.625173-4.464698-4.784332-2.509808-1.262743-6.002846-2.08065-10.468994-2.467251-3.283451-.284223-6.18722-.324099-11.864976-.251466zm-365.9688844-26.343616c4.8685044 2.522053 9.4714564 6.46816 13.6900554 11.560145 7.99686 9.65247 14.500812 23.302774 18.291363 38.505841 3.79055 15.203067 4.456331 30.308991 1.927082 42.585914-1.334259 6.476468-3.54584 12.121629-6.660442 16.634094-3.659154 5.301419-8.544373 8.994623-14.407512 10.456468l-2.206308.435166c-5.163525.753639-10.4190412-.311131-15.4237848-2.903762-4.8685039-2.522053-9.4714568-6.46816-13.690055-11.560145-7.9968604-9.65247-14.5008129-23.302774-18.2913632-38.505841-3.7905504-15.203067-4.4563307-30.308991-1.9270822-42.585914 1.334259-6.476468 3.5458402-12.121629 6.6604416-16.634094 3.6591545-5.301419 8.5443733-8.994623 14.4075126-10.456467 5.8631394-1.461845 11.9103857-.494411 17.6300926 2.468595zm-12.7916547 16.937319c-.821638.204858-1.7445293.902559-2.7860544 2.411531-1.4589286 2.11371-2.7043623 5.292736-3.5317159 9.308695-1.8893375 9.170807-1.3557193 21.278099 1.7443749 33.711897 3.1000941 12.433799 8.3129662 23.374421 14.2865857 30.584774 2.6158882 3.157462 5.2080033 5.379679 7.4884878 6.561049 1.628031.843377 2.770447 1.026139 3.592085.821282l.155248-.044264c.782215-.250975 1.654377-.952606 2.630806-2.367267 1.458929-2.11371 2.704363-5.292736 3.531716-9.308694 1.889338-9.170808 1.355719-21.2781-1.744375-33.711898-3.100094-12.433799-8.312966-23.374421-14.2865854-30.584774-2.6158882-3.157462-5.2080033-5.379679-7.4884874-6.561049-1.6280314-.843376-2.7704472-1.026139-3.5920853-.821282zm96.9697401-19.842044 10.703338 65.51326c11.870819 5.314711 28.841048 12.906788 50.893601 22.768561 1.555177.688097 2.944512 1.26028 4.146283 1.714785 1.092407-2.412234 2.537328-4.395232 4.47563-5.956399 1.654657-1.33271 3.551145-2.230594 5.577686-2.661005 1.668362-.354338 3.280493-.372106 4.876764-.151705 1.205305.166419 2.042955.383732 3.381946.79345.034143.010448.065551.020071.12668.038808 3.440002 1.05423 8.614792 2.67183 18.60486 5.826826 7.304876 2.306977 11.893507 4.573924 15.327858 8.070764.556645.566774 1.069905 1.156167 1.542205 1.768993 4.24048-12.639859 10.264346-23.961888 17.94408-33.467147 8.220595-10.174686 18.208787-18.104536 29.612062-23.33127-28.074231 6.614064-28.096386 6.624958-35.683861 8.445838-16.349894 3.923728-28.257911 5.775058-39.237592 5.641002-13.858799-.169209-25.890084-3.681505-36.565572-11.196722-6.507306-4.580944-20.68466-15.733639-44.938285-35.16412l-.66486-.532693c-1.715302-1.374443-5.649107-4.53109-10.122823-8.121226zm269.287804 46.662218c-4.043501.144864-6.799903.539743-7.978493.987798-1.080646.410822-3.01512 1.802328-5.500478 4.232219-.15631.152822-.316352.299483-.479826.439986 1.774235 1.201584 3.532876 2.459339 5.274264 3.770246 12.835132 9.662219 24.501821 22.02513 34.470334 36.392011.412924-1.80329 1.332016-3.513227 2.753572-4.903058 4.278881-4.183387 8.302941-7.077975 12.375125-8.626067l.144838-.056046c-12.29229-14.650215-26.432602-25.737579-41.059336-32.237089zm111.446725-116.545699c-13.342405 2.239953-23.774016 4.343422-31.179554 6.267005-1.202421.312328-2.516248.669457-3.940681 1.071215-.403835 1.969731-1.228372 3.874109-2.439246 5.634804-1.92748 2.80269-4.63854 5.077435-8.34071 7.391914-1.364209.85286-3.454386 2.36761-6.015646 4.350276-.369139.285749-.746588.580039-1.132035.882542-.724357.568483-1.460138 1.152538-2.219015 1.76164 2.233996 1.597458 5.021912 3.591838 8.363981 5.98329.009455.006765.018897.013547.028328.020345 86.579604 62.410672 135.933218 98.015815 148.093879 106.839306 6.619034 4.802617 11.195486 7.154176 14.214922 7.810981 1.467563.319232 2.080727.245344 4.472717-.480324-.004173.001266.301365-.0915.391152-.118694.158941-.04814.293118-.088549.42468-.127815.382867-.114271.720805-.211959 1.059673-.305164 5.315871-1.462115 15.792248-4.459363 25.020895-7.213417 13.600946-4.058857 23.929309-7.403118 28.638206-9.363774.030316-.012622.060464-.025217.08889-.037523-.285751-.299521-.596538-.622981-.929884-.967943-2.059872-2.131647-4.938545-5.040491-8.626118-8.715858-7.336153-7.311868-17.839395-17.623435-31.514946-30.939098-2.637857-1.958663-4.793756-3.882354-6.492773-5.842783-2.389226-2.756834-3.988923-5.692968-4.52737-9.009537-.10704-.659317-.189637-1.069156-.257735-1.320307-.021302-.025558-.046899-.055348-.077163-.089515-.263554-.297548-.689084-.709049-1.31874-1.256164-1.465056-1.273003-10.241177-8.603603-35.820487-29.939186-24.781401-20.670052-33.71361-28.131411-35.912965-30.020219-2.918342-2.506274-6.452757-3.969663-10.068503-4.573766-.968589-.161828-6.365531-.980106-6.670806-1.027504-.984918-.152924-1.860329-.2926-2.671447-.427064-1.639822-.271845-2.988487-.517602-4.102498-.754962-.71692-.152753-1.349925-.304613-1.930042-.469022-1.083014-.306933-1.966229-.629371-2.997736-1.219172-6.14714-3.514841-11.086403-5.617388-14.578415-6.396299-2.095491 1.269004-4.464086 2.17055-7.032808 2.601792zm187.283963 21.116697c-2.560451 4.857737-4.438882 8.821847-5.624264 11.854921-1.657141 4.240179-3.377187 10.298462-5.11671 18.129852l20.827667 22.9961c2.688559-2.836091 4.995984-4.915707 7.054937-6.314647 3.56213-2.420261 8.100204-4.028138 13.689901-5.066845 5.429893-1.009011 10.649657 2.574821 11.658668 8.004715 1.009012 5.429893-2.574821 10.649656-8.004714 11.658668-3.102147.576457-5.162028 1.30629-6.103964 1.946281-1.042877.708575-3.037983 2.644379-5.732649 5.66305.665299 3.154519-.20883 6.560742-2.60252 9.031155l-5.687647 5.868179c5.986161 4.917609 10.512997 9.609485 13.60132 14.177732 1.433405 2.120293 2.831779 4.62266 4.207704 7.518575 1.768555-1.438196 3.827882-2.62846 6.202013-3.447591 9.509992-3.281172 18.203948-6.279419 26.094182-8.998929-1.994531-.54037-3.836872-1.701717-5.215217-3.445704-3.424517-4.332958-2.68808-10.621634 1.644878-14.046151 5.723495-4.523516 10.249807-7.494504 14.02931-9.026308.810413-.328455 1.698246-.659112 2.665603-.993122-6.919034-13.255033-14.074678-23.94762-21.465334-32.079546-3.675904-4.044591-7.67712-7.795671-12.003648-11.253241-1.717066.96362-3.098249 1.819085-4.132625 2.555424-1.999248 1.423199-3.742767 3.163809-5.255004 5.257966-3.23328 4.47747-9.484078 5.486086-13.961549 2.252806s-5.486087-9.484078-2.252807-13.961549c2.156668-2.986571 4.62503-5.637783 7.393674-7.936772-7.877912-4.132527-16.515223-7.581026-25.911205-10.345019zm-328.058928 88.852969-.609532.001628c-2.073919.025252-4.139136.15618-6.191798.395683l.56878.226365c1.7562.707626 3.504454 1.467717 5.243385 2.279199.176223-1.001866.506174-1.982361.989165-2.902875zm414.313413-5.132978c-1.561028.479623-2.837526.920676-3.819284 1.318575-1.208567.489823-3.337944 1.814077-6.19197 3.923394 3.793891-1.305906 7.355473-2.531979 10.688179-3.67865-.225841-.524887-.451251-1.045546-.676925-1.563319zm-439.454548-186.593859-.157697.031366c-1.972898.394278-3.934005.825755-5.88332 1.294432l-1.18654.290239-1.231946.313138c-.162087.042061-.323797.084361-.485139.12689-2.297083.605497-4.519506 1.257575-6.686956 1.931791-1.086363.337925-2.159443.681585-3.221193 1.027734-.64566.210497-1.287006.421872-1.924724.633475-.555859.184441-1.108761.368987-1.65928.553249-.981015.328351-1.954133.655686-2.921785.979527-.639346.213969-1.275947.426292-1.910767.636348-.167466.055412-.334281.110493-.500984.165404-5.764699 1.898825-11.394386 3.593547-17.34369 4.524403-7.565493 1.183732-17.421929.137579-23.482665-.517707-16.173314-1.748657-25.71313-.088941-28.419692-5.874282-2.706561-5.785341-5.597955-5.902111-12.582265-5.902111-6.984311 0-18.878914.513694-31.50797 1.402141-4.553429.320331-10.10908.918772-15.909537 1.912694l-1.119498.196262c-.108341.019427-.216751.038993-.325223.058699-1.785458.324354-3.588079.686647-5.385809 1.090106-8.137809 1.826905-16.180224 4.49953-22.116074 8.329747-5.848737 3.774004-9.226435 6.889018-12.736854 10.816066l-.248116.278648c-.133484.15048-.267247.30218-.401431.455179-1.011834 1.153707-2.047605 2.381249-3.168316 3.717107-.333951.398061-.675302.80557-1.0258 1.2236-.092514.110338-.186442.222336-.281048.335096-.485906.579146-.989485 1.17814-1.51505 1.799549-.197736.233795-.398282.470408-.60215.710307-.156945.184682-.314938.370233-.474974.557765-.213664.250372-.430782.504056-.651768.761394-.433736.505084-.881958 1.023773-1.346804 1.557506-.877521 1.00756-1.813805 2.068198-2.821019 3.189035-.231201.257281-.466034.517618-.704742.781205-.302533.334061-.610952.672969-.92587 1.017247-.272103.297471-.54876.60139-.829715.911425-.614979.678633-1.250656 1.386688-1.904238 2.120572-.521153.585183-1.053606 1.186691-1.596076 1.80285-1.237681 1.405807-2.527227 2.887551-3.852707 4.424562-.342913.397637-.687978.79868-1.035166 1.203054-.72991.850136-1.469641 1.715516-2.216159 2.592268-2.22192 2.609547-4.50377 5.319601-6.777093 8.041499-.279664.334849-.558642.669207-.837364 1.003579-.480566.576518-.960447 1.153167-1.438916 1.729013-1.094525 1.317282-2.18161 2.630301-3.253514 3.929031-.263269.318979-.525618.637091-.786935.954191-.619577.751837-1.233168 1.497757-1.839427 2.236002-.137512.167449-.274314.334098-.410722.50033-.958003 1.167457-1.896789 2.314612-2.81 3.433244-.333072.407994-.662917.81241-.989056 1.212639-.207045.254079-.413184.507193-.617743.758509-.576011.707673-1.138959 1.400432-1.687683 2.076735-1.745503 2.151333-3.347215 4.136329-4.749457 5.882901-.12874.160353-.513089.786395-1.153047 1.878126-.183498.28888-.275247 1.560652-.275247 3.815316 0 3.381997 6.873148 11.745258 14.26975 17.016819s75.280603 60.762115 90.077524 71.178694 32.787264 8.902212 59.623208 2.46199 115.925494-27.210788 125.111136-29.72534c9.185642-2.514553 8.672293-9.499526 6.601478-13.82523-1.380543-2.883803-6.2539-13.633135-14.620071-32.247994-14.998417-30.407562-22.646933-48.149605-22.945545-53.226128-.304553-5.177496 5.675305-8.421384 11.849609-11.248929l-6.913452-6.654386c-2.784132-2.679418-4.732484-6.107974-5.609498-9.871153l-2.59789-11.147281c-.530257-2.27528-.656131-4.618564-.371417-6.923173-1.243897-2.059589-2.107999-4.330177-2.547871-6.696984zm31.212971 57.282605c-.541498.250406-1.371134.626562-2.162414.984002.442246 1.073197.932995 2.234409 1.466382 3.471691 3.666593 8.505291 9.194789 20.25878 16.555862 35.182507.105716.214326.207581.43053.305548.648507 8.259699 18.377956 13.142006 29.14703 14.417224 31.810821 1.380909 2.884567 2.380196 6.021567 2.872174 9.29398.620195 4.125254.426855 8.370298-.79577 12.549425-1.012991 3.462567-2.686756 6.684277-4.961767 9.518175 1.240488.124035 2.604673.181776 4.205858.181776.897439 0 1.547192-.006593 3.600472-.032859 6.318401-.080829 9.701656-.034369 13.845605.324341 6.782532.587113 12.619684 1.953902 17.733082 4.526572 5.287314 2.660172 9.501882 6.514278 12.319094 11.559893l70.180285 6.997246c-20.439622-14.740082-44.918036-32.3884-73.434074-52.944109-8.971176-6.419416-13.976494-9.997026-14.936412-10.676119-6.462964-4.572224-7.404129-14.76374-1.941864-20.745245-2.727588-.351244-5.38443-1.266597-7.792611-2.724777l-42.00665-25.435489c-5.306765-3.213305-8.691154-8.603919-9.470024-14.490338zm252.101788 35.589465-45.698331-6.784449c5.596177 4.678174 14.223953 11.877694 27.072128 22.594297 26.279147 21.919314 34.49456 28.78156 36.131201 30.203656 2.672055 2.321778 4.489582 4.373731 5.851127 6.860978 1.164513 2.127312 1.778852 4.095956 2.258813 6.734476.020999.025094.043425.051371.066981.078551.716285.826494 1.974483 1.929021 3.751004 3.21808.389469.282602.758033.592947 1.102818.928617 11.627095 11.319706 21.00716 20.511803 28.144814 27.580989l2.554605-2.636215c.464474-.600857.985499-1.135108 1.550251-1.600493l6.263774-6.462772-28.169837-31.102693c-2.138903-2.361592-3.024389-5.601098-2.38416-8.722337 2.306735-11.245787 4.66071-19.975569 7.137928-26.314105 2.456102-6.284507 6.868207-14.902093 13.288202-26.037917.068707-.119176.139496-.236402.212295-.35166-5.145139-1.130458-12.056505-1.959498-20.513487-2.549851-14.954586-1.043929-27.827961 3.743687-38.620126 14.362848zm-551.483512 11.183931c-4.95644.228287-10.219422.835387-15.788944 1.8213 6.905536 4.141971 13.515158 9.601463 19.713721 16.183318 14.358576 15.246447 26.289212 36.286611 34.157247 60.151025l-7.863614-48.122287c-.059444-.363819-.09845-.726257-.117861-1.086142-6.31779-5.039198-10.109868-8.015866-11.196667-8.790428-4.97668-3.546882-9.821565-8.086054-13.667501-12.702743-2.046107-2.456161-3.810957-4.933566-5.208573-7.401721zm381.159361-142.88764-38.622304 7.960111-26.261531 9.921501-4.842119 1.727695-13.255196 6.328547-9.734699 7.400488-.60853 1.851234 1.576637.884382-.002378-.000964 3.754728 2.106658-2.597889 9.732759 2.597889 11.147281 9.782443 9.414513 9.935498 1.587919 1.072665 2.813753 9.484666 2.235117.522989.123662-4.751325 18.261803 3.157336 1.911535-.003-.002 38.852314 23.525954c6.953338-2.347068 13.157011-4.384596 18.611019-6.112583.10735-.173306.220366-.344347.337869-.513946 1.681902-2.42761 4.027951-4.2356 7.01483-5.715292 2.415028-1.1964 5.401883-2.245194 9.115707-3.227526-.023276.006045-.018038.004765.018212-.004815-.006072.001605-.012143.00321-.018212.004815.310189-.08489 5.983363-1.603165 7.567982-2.003368 3.525665-.890425 6.594318-1.537782 10.069402-2.086514 5.620786-.887547 11.080682-1.466357 16.169821-1.681286l-5.958477-29.117228c6.900945-3.168952 11.990566-5.749625 15.268865-7.742021 3.114723-1.892983 7.345134-4.926713 12.691231-9.10119l-35.917661 17.424438-4.182835-4.603469-23.874668 4.603469-3.592225 6.722693-11.419376 2.062044c-6.66917-.386795-11.646297-.789607-14.931381-1.208436s-7.441786-1.180527-12.470106-2.285093l-2.612705-10.631373 1.929431-12.906061c5.254539-3.177598 9.638999-5.696092 13.15338-7.555483s8.882875-4.500997 16.105484-7.924818c9.822804-2.75206 17.728469-4.802467 23.716996-6.151219 5.988527-1.348753 14.970168-3.101753 26.944923-5.259001 7.038702.614549 12.237715 1.161481 15.597038 1.640796 3.359324.479314 7.774551 1.304161 13.245683 2.474541l2.020459 10.910972.089937-.368098-2.277638-11.836207-2.356188-1.042631v-2.809671l4.633826 1.054694v-4.333774l-42.389846-12.682909-15.641163-1.212119zm-24.335301 57.801401c-1.184689 5.131452.859276 9.984923 4.565324 10.840531 3.706049.855609 7.670774-2.610646 8.855463-7.742098 1.184689-5.131451-.859276-9.984922-4.565325-10.840531-3.706048-.855608-7.670773 2.610647-8.855462 7.742098zm34.964285-8.47619c-1.184689 5.131451.859277 9.984922 4.565325 10.840531s7.670774-2.610647 8.855463-7.742098-.859277-9.984922-4.565325-10.840531-7.670774 2.610647-8.855463 7.742098zm38.142857-8.47619c-1.184688 5.131451.859277 9.984922 4.565325 10.840531 3.706049.855608 7.670774-2.610647 8.855463-7.742099 1.184689-5.131451-.859277-9.984922-4.565325-10.840531-3.706048-.855608-7.670774 2.610647-8.855463 7.742099zm-284.943099-38.468107c-17.8212 2.46378-46.847465 9.3886-52.299443 11.173785-5.451977 1.785185-8.848174 3.157855-11.246188 7.190988-1.164209 1.95804-4.429772 7.456748-7.481917 12.903122 7.295345-4.191528 16.050252-7.231365 26.020807-9.466556 8.355664-1.873166 17.306803-3.096413 25.677258-3.68527 12.840454-.903319 25.258141-1.451448 32.91149-1.451448 2.82571 0 4.282693.02805 6.091618.169554 3.169748.247955 6.071622.812378 9.054005 1.972453 3.824075 1.487473 7.19942 3.78887 10.009546 6.834289.515002.558123 1.002697 1.130611 1.462364 1.721086.631673.041825 1.367043.086048 2.246039.135787.292644.016559 2.322622.129316 2.958466.165659 1.250863.071498 2.321579.136935 3.392896.208879 2.766843.185807 5.329736.402685 7.936892.68457 4.498257.486352 7.054835.718092 9.964303.854569 3.517606.165002 6.375022.085224 8.276815-.212339.817955-.127981 1.651388-.279904 2.51212-.458131l-35.972593-2.20824-2.427361-6.949011 8.5821-4.276864 30.184696-5.317457 19.271165 2.198542c-.020874-.15407-.042975-.318064-.066593-.493314-.095624-2.512672-.107894-2.835071.199851-4.828887-22.621769-3.470351-35.497358-5.365026-38.62817-5.685293-5.953547-.609019-40.808966-3.644253-58.630166-1.180473zm117.181832 10.02534c.203807.033602.404961.077589.603465.131962l-.134259-.035091c.085181.021201.16988.044292.254097.069273.022671.006725.045367.013605.068027.020622.13604.042131.270771.089206.404236.14124.008134.003171.016145.006315.024152.009476.140252.055371.279124.11624.416593.182599.042691.020603.085738.041986.128646.06391.04464.022816.088531.045894.132277.069542.109279.059063.218185.122015.326173.188564.038243.023566.07659.047724.114821.072338.030015.019324.060131.039043.090174.059047.030169.020089.060128.04037.090014.060936.116024.079839.23095.16396.344783.252364.043422.033719.086958.068284.130334.103479.169254.137355.335657.283943.499619.440097.11465.109203.227748.222706.33966.340855.07965.084093.158595.170422.236941.2591.190119.215204.37648.443934.559319.686455.392991.521344.769233 1.105549 1.129249 1.753308.192448.346225.380619.711361.564136 1.094728l.100624.213031c1.815015.32334 3.592047.657214 5.331097 1.001623.74117-.784417 1.548713-1.509969 2.415539-2.168945l3.27172-2.488713c-.044978-.006599-.089869-.013186-.134675-.01976-.306723-.045002-.608723-.089304-.90671-.13301-.177327-.02601-.353019-.051776-.527294-.077332-.746994-.109542-1.467316-.215125-2.161639-.316849-.458894-.067231-.906903-.132846-1.343532-.196771-.291576-.042689-.57879-.084728-.860904-.12601-.179871-.026321-.359054-.052537-.536131-.07844-.21731-.031789-.429955-.062888-.639472-.093523-.231347-.033826-.459751-.067214-.684313-.100032-.294674-.043063-.581964-.085032-.862673-.126025-.723746-.105689-1.404329-.204969-2.041089-.297743-.145798-.021243-.288159-.041978-.42826-.062378-.050692-.007381-.102595-.014937-.154184-.022447-.27564-.040126-.541386-.078786-.798232-.116125-.26594-.03866-.523043-.076007-.77055-.111929-.344829-.050046-.670567-.09726-.977733-.141717-.118229-.017112-.234522-.033933-.348025-.05034-.196534-.028409-.38374-.055437-.562665-.081235-.14768-.021294-.290453-.041856-.427525-.061571-.039899-.005739-.079105-.011376-.117833-.016942l-.192609-.027662c-.046623-.006691-.092491-.01327-.137606-.019737-.133762-.019174-.260117-.037253-.379923-.05436-.07646-.010918-.151533-.021622-.223845-.031916-.101185-.014404-.197229-.028044-.287835-.040876-.066441-.009409-.130174-.018416-.190963-.026985-.085461-.012046-.163395-.022989-.235762-.033106-.031075-.004345-.062556-.008737-.092908-.012961-.639828-.089035-.778081-.103625-.416547-.044018z"/></svg>