<svg height="960" viewBox="0 0 960 960" width="960" xmlns="http://www.w3.org/2000/svg"><path d="m297.61483 129.221012.46117.027988 513.220749 19.080721c.169738.00631.339431.013702.509071.022174l.508746.028658c77.51483 4.861863 140.685434 67.831421 140.685434 142.782523v412.7763c0 74.951102-63.170604 137.92066-140.685434 142.782523-.341694.021432-.683648.038475-1.025779.051127l-513.199787 18.976974-.624761.037238c-10.64825.57766-21.193636-.02324-31.484387-1.775424l-1.127852-.197814-.461772-.022124c-1.135675-.068731-2.267899-.185884-3.393586-.351141l-.84299-.132957c-45.569863-7.686398-76.864122-13.156789-94.107888-16.454955-.17727-.033905-1.920456-.335741-3.805714-.663355l-.47345-.0823-.536121-.093272c-1.157787-.201534-2.274065-.396615-3.021947-.529648-5.427953-.965526-10.722387-1.975555-16.343649-3.146782-15.946883-3.32264-31.412888-7.300868-46.1949461-12.193432-22.3394522-7.393908-41.4231588-16.296341-56.7454729-27.621126-22.7470057-16.812404-36.924464-38.911413-36.924464-66.134028v-.374741l4.30850858-459.684226.00276832-.654767c.29850302-33.900167 15.3633346-60.511537 43.2994235-79.221841 19.727831-13.212792 43.456374-21.968254 85.0610556-33.470132.515899-.142624 1.034609-.274878 1.555816-.396683l102.168428-23.87649.233556-.093799c18.467871-7.292628 38.501537-10.527596 58.985274-9.395189zm615.38517 542.168106-710 21.186v16.185847c0 57.556887 36.932392 102.235718 90.717106 117.16142.823204-.034853 1.646608-.076796 2.472276-.128583l513.621236-18.993454c56.989922-3.574506 103.189382-49.626932 103.189382-102.860972zm-689.246111-488.183489-78.423683 18.331369c-63.8634384 17.655453-99.0234528 32.357696-99.0234528 75.167656l-4.3067532 459.684226c0 51.675991 119.854204 68.937146 131.560232 71.176124 12.622664 2.4143 33.199847 6.063623 61.731548 10.947968-32.291633-25.511987-52.29178-64.183282-52.29178-109.752007l.000612-25.570258c-.000241-.007348-.000474-.014697-.0007-.022049-.005704-.19659-.0057-.392023-.000137-.586141l.000225-408.224998c0-38.58254 15.016132-69.632636 40.753889-91.15189zm221.997206 540.330793c17.843458-.343353 32.469036 14.496301 32.781609 33.398085.315731 19.090417-14.091714 35.288787-32.17993 36.184574-18.088216.898462-33.007563-14.038313-33.323294-33.366723-.315731-19.330705 14.091715-35.540403 32.179931-36.200872zm95.053122-2.908318c17.59775-.035025 31.932479 14.471482 32.241895 32.896099.315731 18.798334-14.091715 34.750283-32.179931 35.634175-18.088215.886569-33.007562-13.823069-33.323293-32.859397-.315731-19.038622 14.091714-35.001898 32.17993-35.650473l.541685-.015088zm94.513408-2.849689c17.597749-.03267 31.932478 14.249969 32.241894 32.388345.315731 18.506251-14.091714 34.211778-32.17993 35.083777-18.088216.874674-33.007563-13.607826-33.323294-32.352071-.315731-18.74654 14.091715-34.463394 32.179931-35.100075l.541684-.014798zm94.513407-2.796828c17.59775-.030316 31.932478 14.028456 32.241895 31.880591.315731 18.214169-14.091715 33.673274-32.179931 34.533378-18.088216.862781-33.007562-13.392582-33.323293-31.844744-.315731-18.454457 14.091714-33.92489 32.17993-34.549677l.541685-.014508zm-415.021958-545.083569c-28.548277 2.318189-53.539386 10.625013-72.506357 24.271917-25.44612 18.308709-39.302717 45.538452-39.302717 80.187584v398.209599l710-21.187v-360.217042c0-53.234041-46.19946-99.286466-103.189382-102.860972zm505.852939 94.865175c31.802904 0 57.256426 27.510373 57.256426 61.075127s-25.453522 61.075127-57.256426 61.075127c-31.802903 0-57.256426-27.510373-57.256426-61.075127s25.453523-61.075127 57.256426-61.075127zm0 20c-20.395103 0-37.256426 18.223853-37.256426 41.075127 0 22.851273 16.861323 41.075127 37.256426 41.075127 20.395104 0 37.256426-18.223854 37.256426-41.075127 0-22.851274-16.861322-41.075127-37.256426-41.075127z"/></svg>