<svg height="960" viewBox="0 0 960 960" width="960" xmlns="http://www.w3.org/2000/svg"><path d="m261.478389 239.660092c-33.154016 95.411248-10.398529 209.303469 68.266463 341.676664 73.75686 124.114055 154.920401 194.230717 243.490625 210.349986 16.106298 2.931253 53.236482 0 75.541909-14.236475 59.216018-37.794719 76.727494-80.458961 57.489016-116.536486-32.905277-61.706596-63.231399-85.558897-79.229897-92.449562-15.998498-6.890664-48.195816-8.364798-77.588617 7.841572s-49.472282 18.510841-69.214606 0c-19.742323-18.510841-65.707273-74.402799-73.034986-98.393869-7.327712-23.99107-20.357792-56.760969 8.693549-83.893672 29.051342-27.132703 90.773492-60.598721 57.497163-128.231425-13.78723-28.021952-27.52786-51.293793-41.22189-69.815525-8.340226-11.280495-37.42525-37.741632-83.148903-24.751967-14.854686 4.220079-24.198657 6.18803-49.584416 21.220245-25.385759 15.032214-34.371165 36.905707-37.95541 47.220514z" fill-rule="evenodd"/></svg>