<svg height="960" viewBox="0 0 960 960" width="960" xmlns="http://www.w3.org/2000/svg"><path d="m205.357786 5.60314866c4.292557.14990042 202.689998 8.14566494 249.767018 10.03252754 2.434448.0975682 2.434448.0975682 4.869153.1951252 152.118752 6.0949554 247.414763 9.8078112 252.834754 9.8078112 16.509687 0 31.899051 6.6514566 42.424125 19.9742074 8.607451 10.8954033 12.233381 23.7480384 12.634309 37.9806542.010574.3753541.015861.7508384.015861 1.1263414l-.000654 63.6918734.398603.006798c9.048303.129168 15.505107.205948 18.37323.214227l.477289.000746c18.858028 0 34.576766 9.78346 44.141521 24.475623 6.810976 10.462157 10.219067 22.98479 10.219067 35.3752l-.00071 37.877406.307978.060852c7.364266 1.49232 14.419951 4.582152 20.765253 9.984214l.51292.443086c7.041529 6.171704 11.553581 13.909854 13.930303 22.33495 1.532126 5.431137 2.101546 10.749656 2.101546 16.485192v282.202789c-.756503 54.000909-1.138139 84.195216-1.138139 89.490047 0 3.886592-.118531 6.933299-.529063 10.319528-.751125 6.19557-2.350846 12.083564-5.572452 18.08166-7.862475 14.638625-21.101339 22.23442-35.916929 24.137624l-.210417.025058.000163 36.356571c0 5.42359-.250977 10.064037-.934342 14.640124l-.125119.807022c-1.224029 7.613722-3.615177 14.69623-7.947825 21.428135-5.38274 8.363497-12.988061 14.713037-22.016158 18.623713-6.734224 2.917045-13.545449 4.256739-20.875378 4.649936-3.961779.21252-11.254218.641386-21.848421 1.284975l-.24392.014524.000757 41.330935c0 13.345854-1.981323 24.9388-7.927314 36.069074l-.34745.641627c-9.256883 16.866335-25.734047 27.29251-45.540357 29.014463-6.629162.576336-48.493628 2.797918-250.627017 13.40813-.509172.026727-.509172.026727-1.018341.053454-166.420687 8.735738-239.199384 12.621446-246.715923 13.245567-21.35416 1.7731-34.835815-.499926-48.487535-10.449513-.705945-.514504-1.343504-.99808-2.066717-1.55946-.264276-.205139-1.041967-.813344-1.168352-.911525-.403589-.313524-.562044-.430705-.642851-.485569l-.131412-.088922-.61797-.412391c-5.475908-3.623197-24.793051-15.746028-56.5052979-35.435005-11.7530069-7.297014-18.90122-20.148958-18.90122-33.982959v-209.68151c0-8.512247 2.715511-16.802536 7.7516095-23.665192l3.0933905-4.215204v-296.935l-.0895381-.093749c-6.7404969-7.222456-10.6130187-16.740218-10.7554619-26.734953v-237.8366528c0-17.3203125 11.1473508-32.6728918 27.6167709-38.0349266 29.589312-9.6335461 47.138487-15.4235592 51.535655-16.9915472.651426-.232292 4.097131-1.5192678 5.031443-1.8589829 13.053405-4.74620688 24.783277-7.05358896 40.099565-6.51872884zm516.413566 794.52917234-491.722272 20.444998c-2.178144.272517-4.48155.026363-6.780655-.773738-3.659395-1.273489-14.019383-5.122733-31.206019-11.59346l-.639258-.241263.000981 92.88292c0 5.000743.65727 8.079771 1.543179 9.384273l.081155.113707c.439707.585263 1.387128.934456 4.412297.729066 1.684598-.114374 3.300028.195383 4.741816.838082 1.255907-.068098 2.613361-.162741 4.083202-.284786 19.639445-1.630722 484.07543-25.465447 498.206694-26.694014 14.131263-1.228567 17.279637-12.573569 17.279637-25.875482zm-600.697-731.1249868v237.2809108l10.844546 8.803399v328.618655l-10.844546 14.777786v209.68151c23.999812 14.900608 40.783294 25.391287 50.350446 31.472036l-.000669-106.131647c0-6.992244 6.992525-11.825675 13.533665-9.354849 17.860116 6.746412 30.589427 11.522319 38.103487 14.297085l.278867.103638.000411-96.970535c0-6.785267 6.601566-11.573711 13.019779-9.533298l.249953.082962c7.197039 2.490111 13.385071 4.754898 18.576345 6.800941l.476512.18793v-415.853923c0-.210164-.008282-.420206-.024817-.629637l-.030987-.313627c-.520951-4.387458-4.500002-7.521882-8.887461-7.000932l-10.298259 1.222777c-5.948452.706297-11.179081-3.940009-11.179081-9.930245l.00051-67.710317c.002743-.947808.017606-1.738418.069209-4.164496.074424-3.499034.091138-5.775101.02489-7.887761l-.021207-.600085c-.015672-.398314-.034441-.79436-.056483-1.19546-.261563-4.759891-1.003346-8.174634-2.045494-9.92308-.188399-.316082-.312676-.511608-.497297-.620371-.216093-.029254-.429291-.066335-.639999-.11002-.251904.00571-.583243.041254-1.033946.094025-11.86728 1.389486-25.340569 3.248793-40.414513 5.578-6.059594.936321-11.527065-3.751209-11.527065-9.882715l.000795-116.9707058c-8.003956 2.7028606-24.013153 7.9635436-48.027591 15.782049zm674.688 633.1899868-529.715126 20.379901c-1.030742.039655-2.031038-.078155-2.977688-.331948-1.616382.019144-3.242041-.271765-4.97791-.766802-1.694897-.483353-3.375041-1.125288-6.301517-2.343259-2.319224-.965239-4.940592-2.001323-7.862155-3.107207l-.587808-.222148.000102 82.93617c-.003364.428457-.010475.850142-.021509 1.265192l478.038364-19.874228.279823-.007788.135181-.000735c32.183479-2.005762 52.166467-3.21738 59.948962-3.634853 11.673743-.626209 14.041444-5.915765 14.041444-20.206356zm-520.352838-422.688169.05832.459359c.130095 1.095665.195314 2.198062.195314 3.301424l-.000796 418.922386 522.836491-20.11429c.102287-.003936.204274-.00632.305938-.007175 15.656648-.872794 25.899338-1.446366 30.728557-1.7205 7.596054-.431195 8.435567-4.487292 8.457422-12.640592l.000453-.346945c0-5.590181.37938-35.606007 1.138139-90.047479v-281.645357c0-9.373569-3.110125-10.33014-9.344954-10.35369l-28.272336-.000462-.181568-.001509-526.687211-9.547226c.335593 1.212607.593102 2.461612.766231 3.742056zm318.806418 314.243662v19.399495c0 12.798702-10.093793 23.45975-22.788469 23.728342l-44.500799.94154c-12.890551.272736-23.21153-10.308601-23.21153-23.325701v-19.6121c0-12.884315 10.111069-23.605515 22.860424-23.783482l44.500799-.621182c12.836403-.179182 23.139575 10.341199 23.139575 23.273088zm102.968273-1.652697v19.088981c0 12.713816-10.129866 23.24514-22.78847 23.512968l-44.500798.94154c-12.852325.271928-23.211531-10.176977-23.211531-23.110327v-19.301586c0-12.79893 10.147507-23.39065 22.860424-23.568108l44.500799-.621182c12.798547-.178654 23.139576 10.20906 23.139576 23.057714zm103.895914-1.667586v18.775669c0 12.629401-10.166238 23.028596-22.788469 23.295655l-44.500799.94154c-12.813765.271111-23.211531-10.042874-23.211531-22.893014v-18.988273c0-12.714005 10.184268-23.17385 22.860424-23.350795l44.500799-.621182c12.760381-.178121 23.139576 10.074428 23.139576 22.8404zm-229.724611.045002-44.500799.621427c-1.610049.022475-3.139575 1.644297-3.139575 3.78543v19.6121c0 2.008348 1.319616 3.361254 2.788469 3.330176l44.500799-.94154c1.664727-.035222 3.21153-1.668953 3.21153-3.732817v-19.399495c0-1.930676-1.337424-3.296295-2.860424-3.275281zm102.968272-1.437078-44.500799.621182c-1.646486.022983-3.139575 1.581433-3.139575 3.570056v19.301586c0 1.854203 1.28139 3.146689 2.788469 3.114803l44.500799-.941541c1.700799-.035985 3.211531-1.606588 3.211531-3.517443v-19.088981c0-1.776016-1.299568-3.08145-2.860425-3.059662zm103.895914-1.450273-44.500799.621182c-1.683247.023497-3.139575 1.519232-3.139575 3.352744v18.988273c0 1.697375 1.24283 2.930192 2.788469 2.897489l44.500799-.94154c1.737172-.036755 3.211531-1.544898 3.211531-3.30013v-18.775669c0-1.618659-1.261402-2.864669-2.860425-2.842349zm-344.219694-201.699229 368 .732157v138.593361l-368 7.473918zm295.382789-32.53342c5.126252.037201 9.281899 4.262656 9.281899 9.437818s-4.155647 9.352706-9.281899 9.330891c-5.126251-.021986-9.281899-4.247441-9.281899-9.437904s4.155648-9.368007 9.281899-9.330805zm-88.451038-.641895c5.126251.037201 9.281899 4.321759 9.281899 9.569828s-4.155648 9.484715-9.281899 9.4629c-5.126252-.021985-9.281899-4.306543-9.281899-9.569913s4.155647-9.500017 9.281899-9.462815zm-51.323442-.372458c5.126251.037202 9.281899 4.356054 9.281899 9.646427 0 5.290372-4.155648 9.561313-9.281899 9.539496-5.126252-.021983-9.2819-4.340835-9.2819-9.646509s4.155648-9.576615 9.2819-9.539414zm-51.323443-.372457c5.126252.037202 9.2819 4.390348 9.2819 9.723024 0 5.332677-4.155648 9.637912-9.2819 9.616095-5.126251-.021983-9.281899-4.375129-9.281899-9.723107 0-5.347979 4.155648-9.653214 9.281899-9.616012zm-293.055532-168.007949c.184746 3.361985.184412 6.222129.078405 11.205987-.048015 2.257441-.062011 3.000295-.064679 3.791665l-.000912 56.414432.03914-.003724c1.270765-.109252 2.530188-.131347 3.772148-.071107l.031534.00058 552.426382 10.013714.00071-56.830038c0-9.670516-5.189997-19.850823-14.360588-19.850823-4.035061 0-15.989771-.163734-28.113652-.347117l-1.653577-.025115c-14.87853-.226887-29.481239-.473503-29.481239-.473503l-.26189-.003552-483.467119-12.642061c.546898 2.705619.88037 5.636651 1.055337 8.820662zm481.734047 42.914413c1.082772-10.42376 8.777946-18.087598 17.187652-17.118866 8.409705.968199 14.349358 10.193216 13.266586 20.605858-1.082772 10.413441-8.777946 18.080314-17.187652 17.123234-8.409705-.957613-14.349358-10.185665-13.266586-20.610226zm-38.709-.810035c1.082772-10.450448 8.777946-18.134066 17.187652-17.163045 8.409705.970488 14.349358 10.218994 13.266586 20.658324-1.082772 10.440129-8.777946 18.126782-17.187652 17.167413-8.409705-.959901-14.349358-10.211443-13.266586-20.662692zm-38.709-.898748c1.082772-10.423761 8.777946-18.087598 17.187652-17.118866 8.409705.968199 14.349358 10.193216 13.266586 20.605857-1.082772 10.413441-8.777946 18.080314-17.187652 17.123234-8.409705-.957612-14.349358-10.185664-13.266586-20.610225zm-38.709-.810035c1.082772-10.450449 8.777946-18.134066 17.187652-17.163045 8.409705.970487 14.349358 10.218994 13.266586 20.658324-1.082772 10.440129-8.777946 18.126781-17.187652 17.167413-8.409705-.959901-14.349358-10.211443-13.266586-20.662692zm-38.709-.854391c1.082772-10.450449 8.777946-18.134067 17.187652-17.163046 8.409705.970488 14.349358 10.218994 13.266586 20.658324-1.082772 10.440129-8.777946 18.126782-17.187652 17.167413-8.409705-.959901-14.349358-10.211443-13.266586-20.662691zm-383.026832-176.7664786.000599 111.8393586.376449-.054558c10.118755-1.478925 19.458591-2.726379 28.021343-3.742336l1.217964-.143562c2.159683-.252867 4.226616-.249716 6.184149-.004959l503.001299 13.151878.000654-83.0635054c-.358341-12.720802-5.383106-19.081203-15.074295-19.081203-7.123023 0-125.926648-4.693521-246.977361-9.5411062l-14.826325-.5940432c-121.051835-4.8525993-239.884082-9.6739788-247.063228-9.9246818-5.857326-.2045437-10.693741.3050406-14.861248 1.158718z"/></svg>