<svg height="960" viewBox="0 0 960 960" width="960" xmlns="http://www.w3.org/2000/svg"><path d="m771.984687 82.9944033 103.190748 699.8455247c7.437954 50.444621-27.129858 97.471687-77.495464 105.427105l-413.021314 65.238115c-.309119.048826-.618482.096092-.928078.141795-5.971517.881531-11.97385 1.180888-17.934619.870958l-42.872849 2.620475-.002554-.041791c-47.298112 4.857154-90.592071-26.945823-100.17323-73.423987l-79.995668 9.047571c-6.225565.704071-12.522697.41195-18.654812-.864608-.173241-.036065-.346241-.073279-.518989-.111639l-.492322-.109326c-.172744-.03836-.345232-.077866-.517452-.118515-31.7133971-7.485297-51.3541526-39.262117-43.8688579-70.975504l79.7581509-337.916416-48.117837-301.208427c-.081861-.512434-.159431-1.025544-.232703-1.539276-6.929216-48.582899 25.054084-93.9137788 72.600029-103.9625158l-.004805-.0179766 53.53813-14.3108838c3.766969-1.2435152 7.624897-2.2322439 11.549219-2.9732228l.004233.0224128.931864-.1931598c.008508-.0025951.017202-.004144.025967-.0053822.580838-.1501408 1.159945-.240709 1.735916-.2878849.905425-.1483583 1.814784-.2790481 2.726837-.3965026l414.886744-53.42924863c50.283219-6.47548912 96.488295 28.51613553 103.883716 78.67230963zm-569.186757 28.9329177-9.76642 2.611917c-28.082575 4.901884-47.379032 31.268145-43.325417 59.689311.041758.292772.085964.58519.132616.877222l111.490237 697.907663c4.172398 26.11842 26.763181 44.711905 52.405437 44.646966l.837222-.008745c1.955951-.035903 3.9286-.180525 5.911179-.438769l2.170508-.131265c-12.912692-11.053419-22.044512-26.640934-24.721758-44.776696l-105.056177-711.654391-.095464-.668042c-.030793-.222826-.060555-.445793-.089287-.668896-2.20983-17.159691 1.729471-33.693877 10.107324-47.386275zm477.234753-68.3724694-.845877.0069002c-1.976357.0318731-3.970891.1744006-5.976813.4327239l-414.886744 53.4292486c-.399643.0514662-.797671.1072581-1.194042.1673226l-.528787.08282-.853586.1451076-.012957.002312c-.383328.0684468-.765028.140911-1.145062.2173431l-.386044.0791236c-.425861.0889231-.849601.1828374-1.271167.2816726l-.056061.0131753c-.11772.0277338-.235271.0558514-.35265.0843514l.352777-.0843812c-.281918.0664164-.562861.1350341-.842814.2058321l-.408645.1050738c-.136111.0355756-.271984.0716676-.407618.1082737l-.00981.0026486c-.132446.0357732-.264664.0720366-.396651.1087879l-.482146.1367145c-.248566.0717551-.496299.1452458-.743189.2204566l-.433716.1341636c-.214787.0674541-.428925.1362138-.642407.2062687l.642434-.2062771c-.267982.0841597-.534953.1703516-.800899.2585558l.158465-.0522787c-.24316.079794-.485468.1612685-.726912.2444081l.568447-.1921294c-23.593859 7.8251945-39.117288 31.4885325-35.823412 57.0660155.04172.323957.086433.647522.134134.970653l105.056178 711.654392c3.677386 24.910751 24.127997 43.199479 48.206855 45.10297l.263116.018576.377321.028125c.126905.008476.253908.016498.381005.024063l.436956.024188c.084561.004329.169164.008455.253807.01238l.106946.004849c.172619.007652.345405.014462.518354.020425l.178567.005855c.075683.002353.151396.004544.22714.006573l.331055.007829c.154623.003172.30937.005667.464237.007483l-.463827-.007474c.299486.006141.599436.009744.899826.010789l-.435999-.003315c.219673.002576.439588.003786.659736.003621.251102-.000187.502507-.002161.7542-.005933l.21505-.003659c.151549-.002887.3032-.006425.454952-.010617l.230144-.006858c.080659-.002578.161346-.005342.24206-.00829l.42063-.017035c.108593-.004828.217233-.009992.325921-.015493l.492985-.027241c.014003-.000839.028007-.001684.042012-.002534l.37785-.024282c.14456-.009805.289195-.020207.433905-.031207l-.433441.031176c.262084-.017779.52442-.037519.786992-.059232l-.353551.028056c.342826-.026061.686067-.055481 1.029688-.088287l-.676137.060231c.282604-.023369.565482-.049024.848614-.076979l-.172477.016748c.252329-.02409.504862-.050006.757587-.077758l-.58511.06101c.292068-.028837.584406-.060121.876993-.093869l-.291883.032859c.214238-.023525.428613-.04837.643117-.074541l-.351234.041682c.565097-.065179 1.131121-.139547 1.697918-.223219.176436-.026046.35274-.052983.528904-.080808l413.021314-65.238116c28.70298-4.533732 48.402916-31.334103 44.164082-60.082113l-103.190747-699.8455254c-3.835282-26.0110996-25.985925-44.8656245-51.536326-45.2678215zm-492.907603 491.7378244-69.495557 294.436589c-2.410519 10.212789 3.91447 20.446002 14.127258 22.856522l.492322.109325c1.973958.410931 4.00184.505256 6.007474.278432l97.849503-11.066868-6.88-43.068-18.996586 2.190505c-2.740532.315909-5.515546.136214-8.192449-.5305-12.325999-3.069935-19.829522-15.550805-16.759587-27.876805l7.075375-28.408117c.136471-.547938.315715-1.073958.533288-1.575386l16.357716-65.177585c.106605-.424764.238913-.836297.394849-1.233358zm498.614076-387.450723 86.05877 590.972728c2.054614 14.109202-7.637028 27.241019-21.724988 29.436558l-347.423848 54.144303c-14.118461 2.200293-27.366732-7.404976-29.665096-21.507805l-96.493643-592.087954-.057703-.370916c-2.104856-14.204298 7.70368-27.425478 21.907977-29.530333l357.858721-53.029075c.032254-.004766.032254-.004766.064516-.009478 14.209531-2.069223 27.40607 7.772441 29.475294 21.981972zm-26.593247-2.190716c-.007445.001088-.007445.001088-.014888.002187l-357.858721 53.029075c-3.277915.485736-5.541423 3.536778-5.055687 6.814692.004232.028564.008671.057097.013316.085597l96.493644 592.087955c.530391 3.254499 3.587684 5.471099 6.845791 4.963339l347.423848-54.144302c3.251067-.506663 5.4876-3.537083 5.013458-6.793052l-86.05877-590.972728c-.477513-3.279123-3.522868-5.550276-6.801991-5.072763zm-433.615829 630.052439-20.934434 2.414511c-.029713 1.370483.888851 2.628138 2.274972 2.973367.349161.086963.711119.110402 1.06858.069196l18.128882-2.090074zm-7.904-49.481-7.820731 31.161852 12.566731-1.448852z"/></svg>