<svg height="960" viewBox="0 0 960 960" width="960" xmlns="http://www.w3.org/2000/svg"><path d="m529.119374 4.85459737 6.02991.01585184 1.508491.004181 3.010155.00858776c13.708557.0398367 27.972446.09081935 44.125322.15569834 4.004438.01608406 11.307575.04651994 18.501331.07671105l1.051568.00441477c8.74997.03674695 17.090022.07207095 18.839022.07949861l.177847.00075572.064455.00027426.087763.00037669c11.711241.04854603 18.769523.07357276 23.242068.08047872l.486414.00069303.235423.00029111 1.516856.00098059c18.606655 0 34.623549 1.76478448 47.038278 6.25978234 5.36439 1.9422833 10.331024 4.4534239 15.007195 7.9873966 7.675342 5.8005696 13.745482 13.7493788 16.613501 24.1313587 1.825918 6.609667 2.034793 13.2180749.84791 19.4920332.671334.3525775 1.331398.7205514 1.983237 1.1019178 4.601967 2.6924408 8.791864 6.0308714 12.501117 10.5305825 3.314957 4.0213896 5.946205 8.6544546 7.585636 13.7902391 7.953668 8.1280379 12.767939 18.8548199 13.2182 30.6493449.018856.240798.043755.552649.074861.936068.042907.528889.09474 1.159326.172922 2.10426l.023223.280555.001039.012573.001554.018675c.012887.155415.071603.864011.133756 1.61439l.042486.512998c.04202.507424.08114.980021.103851 1.254826.609742 7.378105 1.13919 13.97971 1.745909 21.909024 1.839889 24.045776 3.620009 50.452875 5.291566 79.889328 4.81244 84.748038 7.685163 175.941477 7.685163 271.360344 0 67.550934-2.266472 142.150188-6.040907 217.780414-.120243 2.409363-.242875 4.829221-.367455 7.253313l-.150403 2.91054c-.07564 1.455886-.151918 2.912393-.228737 4.36817l-.154333 2.910179-.155608 2.905825c-2.238707 41.607473-4.817955 81.13229-5.486562 86.707344-1.25485 10.463352-6.094285 20.913679-13.64835 29.688517-3.129781 32.881978-31.581857 57.723152-65.106557 57.723152-19.65082 0-37.558773-8.535002-49.621318-22.246915-15.621531 2.507778-33.568152 5.319392-53.789659 8.428745-1.592585.244883-3.160645.485498-4.721855.724533l-4.697908.717612c-.790471.120452-1.575974.239994-2.37296.361121l-4.69849.71214c-43.549998 6.582071-78.512374 11.303871-108.173709 14.335913-8.372825 23.618351-30.780385 40.927277-57.369231 43.2535-31.116535 2.722344-60.155945-15.756977-69.169267-44.477472-11.758336-2.427883-23.939254-5.65676-36.667134-9.652692-.236831.145548-.481916.278588-.728071.409917-7.747759 4.133598-16.15413 6.382-24.941715 7.290476-14.676675 1.5173-30.791934-.749228-43.285774-6.927083-13.285301-6.569209-22.66772-17.883007-27.421529-31.657105-1.086608-3.148431-1.920873-6.366051-2.497397-9.670899-13.724595-9.274749-21.153468-20.125684-26.510927-36.808262-4.546401-14.157029-7.978419-34.469876-10.967575-72.489622-4.120813-52.413541-6.483257-130.906806-6.530804-241.476634v-3.360425c0-104.611125 3.007321-188.415332 10.124484-262.325395.403162-4.186741 1.461698-8.260968 3.139232-12.070958 2.065393-7.915344 6.149097-14.861932 11.692118-20.37765.149766-5.162251.305636-9.224633.469085-12.283708.169422-3.17085.443839-7.021667.838847-11.98832l.074886-.936853c.016584-.206355.016584-.206355.03319-.412477.015442-.191552.031077-.385002.046983-.581244-2.162782-4.117698-3.701352-8.634297-4.545852-13.445204-1.393818-7.940239-.964516-13.720053.59719-21.953675.07775-.698138.178728-1.393811.29805-2.086766 2.559378-14.863325 5.366261-29.265212 8.431905-43.229478 1.512872-6.891261 4.696302-12.9268886 9.002162-17.8131962 1.404386-5.1741015 3.594304-10.5704847 6.713833-17.1494068 6.277875-13.2397051 19.292368-21.9872209 33.922475-22.8005333 17.179307-.9550267 37.709998-1.756025 61.666128-2.4044225 3.345097-2.7886303 6.730098-5.6269453 10.153645-8.5130459 23.071199-19.4493601 67.772962-31.78503523 110.220735-33.15679479 10.376253-.33532319 32.021419-.49025685 63.935692-.50903221l14.173219-.00001721c10.941315.00370939 22.788298.02730253 35.568199.05938528zm-107.265606 892.71128363-.296552.020016c-19.463005 1.279086-35.965807 1.546276-50.195281.782979-.597295-.03204-1.196554-.06714-1.797774-.105283 2.13045 12.130414 14.351316 20.756296 28.23297 19.541809 12.387059-1.083727 22.111858-9.655163 24.056637-20.239521zm301.5726-768.9676-.350438.082223c-.904533.201894-1.896993.396617-2.986498.588866-3.772575.66569-8.880895 1.32653-15.264145 1.99231-11.381909 1.187147-26.767116 2.381885-44.645208 3.507406-4.050974.255031-8.194143.503591-12.364997.743054l-1.92674.109866-2.8944.162251-2.895319.15902c-25.404577 1.381106-50.365587 2.366523-60.406456 2.366523l-.534316.000632c-4.22752.009568-12.804523.128028-27.917358.375921-1.801861.029555-13.160077.22064-24.972214.418236l-1.28996.021574c-9.251343.154694-18.577822.309922-23.62958.391603-12.527109.20255-23.83582.375762-34.594268.527624-30.875221.435824-55.964027.678619-74.891125.688404l-2.241651.000054c-17.696219-.008563-29.699973-.233341-35.679227-.709708-1.452635-.115732-2.870027-.234602-4.281355-.359587l-.940307-.084263-.940431-.086269c-.156855-.014557-.313796-.029205-.470862-.04395l-.944219-.089649c-7.728627-.742066-15.95015-1.734003-29.373274-3.456079-17.353244-2.226279-26.966437-3.364526-35.829196-4.069724l-.79186-.062012c-.526817-.040593-1.051702-.079712-1.576145-.117496l-.786516-.055693c-1.835296-.127697-3.674266-.239901-5.580679-.342588-17.364002-.935289-34.181143-.468351-50.456099 1.39693-.909633.104254-1.804725.082987-2.667962-.050048-.148518.737849-.295059 1.478985-.44085 2.221136-1.443022 7.345942-2.81252 14.791075-4.111461 22.335159l.000548.062447-.001632.068248-.000806.083987.002438-.152235c.000228.165313-.009146.337704-.028074.51673l-.006341.057201c-.001971.016995-.004027.034051-.006168.05117-.00128.010233-.002556.020226-.003862.030247-.006192.047523-.013032.095523-.020531.14408-.002391.015486-.004907.031389-.007493.047343l-.018211.105571-.008955.050318-.017649.091451c-.107833.539994-.209447 1.06462-.303262 1.574038-.302871 1.644574-.524474 3.130776-.611598 4.463826-.021986.336335-.035416.663174-.039416.980334-.006468.512998.011732 1.000653.058223 1.463357l.021307.19376c.013694.114461.029206.227351.046593.338676.006819.043653.013876.086771.02122.129653l-.02122-.129653c.024165.154734.051952.306443.083515.455144.007304.034413.0148.068615.022499.102658l-.022499-.102658c.013835.065185.028396.129791.043696.19382l-.021197-.091162c.080886.357646.184237.697583.312257 1.020034.0111.027949.022121.055127.033319.08218l-.033319-.08218c.135772.341977.299293.664286.493193.967193.017435.027235.035063.054235.052937.081078l-.052937-.081078c.032549.050847.065953.101146.100226.150901l-.047289-.069823c.035444.053232.071856.105851.10925.157859l-.061961-.088036c.043803.063589.089024.126286.135689.188096l-.073728-.10006c.03543.049276.071742.098004.108948.146184l-.03522-.046124c.038268.050686.077508.100776.117733.150269l-.082513-.104145c.041146.053283.083386.105896.126738.157842l-.044225-.053697c.043904.054019.088981.107328.135252.159929l-.091027-.106232c.045329.054317.091873.107903.139651.160762l-.048624-.05453c.042698.04854.086412.096477.131156.143813l-.082532-.089283c.046776.05175.094735.102803.143895.153159l-.061363-.063876c.096746.102349.19831.201886.304839.298627.020956.01903.042098.037947.063433.056755l-.063433-.056755c.03386.030749.068222.061216.103091.0914l-.039658-.034645c.053845.04747.108921.09425.165245.140345l.151886.120309.178079.131643c.089298.063651.181339.125842.276178.186578.032803.021005.06566.041663.098848.06215l-.098848-.06215c.0563.036056.113587.071598.171871.106629l-.073023-.044479c.064934.040084.131137.079513.198626.11829l-.125603-.073811c.058105.034924.117202.069339.177303.103247l-.0517-.029436c.138517.079589.282452.156429.431951.230536.02024.010032.040452.019952.060766.029822l-.060766-.029822c.066589.033008.134282.065474.203092.0974l-.142326-.067578c.075284.03658.151957.072481.230036.107705l-.08771-.040127c.072085.033444.145396.066295.219948.098554l-.132238-.058427c.078627.035472.15868.070256.240178.104356l-.10794-.045929c.164239.071067.334501.139261.510946.204597.021006.007778.04206.015502.063201.023185.04599.016746.651339.095891 1.177613.361663.252009.066546.514672.127818.78765.184797l.543264.106267.049549.009031.011889.001476.067.012.157769.028283.030231.004717-.17-.03.391.067.03949.006661.01151.001339.597051.090776c.205659.029242.414024.057085.624791.083722l.639208.076486c.610878.069292 1.23867.130425 1.876912.187844.055288.004974.11065.009919.166084.014839.531233.047152 1.068957.091978 1.608854.136974.162565.013548.325359.027114.488177.040759.408225.034212.817213.068968 1.225265.105352l.609673.055791c.225688.021241.450829.043149.675862.065984.128642.013055.257008.026391.384405.039974.212063.022608.423219.04608.633544.070614l.221609.026292c.088003.010619.175785.02143.263329.032443.157161.019772.313553.040197.469069.061345l.04455.006081.17915.024931c.054095.007646.108077.015385.16182.023201.070196.010208.140191.020579.210482.031194.12782.019306.254934.039176.381151.05963.107406.017406.214256.035249.320885.053617.117737.020283.234745.041133.350382.062474.017669.003261.03532.006535.053469.00992.049187.009174.098231.018456.146809.027789.133755.025694.266417.052221.398052.079663l.148024.031344c.047142.010138.094127.020395.141251.030838.035834.007942.071573.015954.107075.024006.049541.011235.098897.022608.147984.034104l.129254.030704c.13468.03245.267884.065993.399492.100685l.077346.02057c.223623.060005.442612.12341.656511.190531l.108224.03442c.045587.014694.090934.029563.136243.044676.046029.015355.091802.030894.136639.046386.019348.006684.038649.013402.058638.020412.048628.017056.096954.03433.144794.05176.126465.046076.25079.093687.372391.142718.015691.006326.031345.012679.04745.019258.051352.020981.102299.04225.152789.063796l.103879.045004c.025083.011032.05006.02214.075313.033495.110559.049722.219004.100944.325083.153653l.139104.070673c.018724.009728.037376.019507.055748.029229.047894.025342.095301.051026.142466.077202.021414.011885.042725.023842.06375.035771.034277.019445.068282.039082.102085.058958l.098644.059038c.039222.023895.078053.048065.116216.072342.018752.011928.03741.023923.05635.036229.03097.020125.061673.040437.092065.060907.039082.026324.07772.052957.115519.079631.023924.01688.047672.033884.071327.051076.021638.015725.043125.031556.064686.047662.09125.068168.179717.138274.265296.210386.028528.02404.056735.048302.084979.073107.015851.013925.031597.027922.04688.04167.084479.075986.165872.154113.243633.234013.02697.027705.053559.055673.080033.084199.018217.019632.036247.039394.054078.059271.030671.034191.060786.068766.090387.103789.013803.016332.027484.032749.040929.049115l.071919.089836c.019924.025549.03956.051298.058683.076954.017903.024013.035555.048199.053041.072679.021286.029803.042194.059865.062659.090101.018488.027314.036667.054841.054853.083082l.042216.066925.021508.035183.042379.071654c.01648.028499.032645.057215.048607.086365l.045128.084686c.016233.031314.032099.062878.047708.094928.130126.267234.234121.552348.309768.856574.009599.038596.018742.077502.027426.11672l.003964.018073c.023673.108944.043811.220291.060229.333474.014976.103149.026971.208323.036564.32343.012463.15212.018794.308397.018794.468961 0 .166942-.001181.351435-.003488.552661l-.002434.189481c-.003908.276107-.00971.580336-.017285.910866l-.000956.041453c-.009464.407808-.021584.855014-.036113 1.337464-.004749.157697-.009757.319234-.015016.484495l-.006491.201932c-.003484.107345-.007069.216186-.010753.326494l-.011111.328363c-.025315.738949-.054771 1.539171-.087808 2.392244l-.007494.19283c-.050147 1.286026-.10819 2.688566-.172274 4.179764-.023097.53745-.046978 1.086392-.071561 1.645658-.037702.857701-.077043 1.739354-.117707 2.640212-.013134.290959-.026405.583922-.039804.878728l-.0137.301081c-.012053.264625-.024206.530678-.036462.798327-.024176.527918-.048707 1.060966-.073536 1.598263l-.008912.192752c-.080425 1.738715-.163884 3.520673-.24842 5.31651l-.037225.790244-.01569.332787-.051343 1.088073-.06714 1.42148-.050554 1.070026-.039799.842631c-.070147 1.485491-.139635 2.959438-.207346 4.404981l-.025697.549078c-.112603 2.408193-.219821 4.730726-.316391 6.888413l-.017617.394438c-.053362 1.197388-.103282 2.341511-.148828 3.418325-.011322.267671-.022374.53119-.033163.790871-.004518.108746-.008987.216723-.013404.323916l-.00853.207587c-.05318 1.297797-.098625 2.476858-.13442 3.508327l-.000874.025231c-.014182.409523-.026833.795634-.037832 1.156514l-.007507.251157c-.028229.964327-.043621 1.732608-.043621 2.266432 0 6.272514-.910547 6.870089-9.240589 6.89661l-.332686.000762-.340482.000239c-.208459 0-.419827-.002051-.634212-.005962-.020881-.000381-.041789-.000779-.062645-.001194-.186465-.003707-.374929-.008799-.564444-.015119-.020851-.000695-.041724-.001405-.062619-.00213l-.071497-.002536c-.609753-.022088-1.237893-.056639-1.879131-.099427-.092434-.006168-.185144-.012506-.278297-.019017l-.380405-.027335-.385879-.029121c-.428063-.033006-.860658-.068576-1.296365-.105528l-.627436-.053866c-.104877-.009093-.209893-.018233-.315029-.027404l-.632097-.055263-.483903-.042203c-.326018-.028324-.652522-.056398-.97908-.08376l-.392143-.032486c-.015691-.001284-.031381-.002565-.047025-.003841l-.602948-.04804c-.192003-.014903-.383765-.02938-.57517-.043332-.049332-.003596-.09864-.007158-.147922-.010682l-.655656-.044707c-.48509-.03135-.966804-.058404-1.443241-.079553-.121539-.005395-.24273-.010405-.363024-.014985-.342197-.013029-.681349-.022759-1.017143-.028587-.09655-.001675-.192787-.003026-.288603-.004038-.142927-.001509-.285119-.002267-.42638-.002224-.163912.000048-.326759.001171-.488452.003443-.280261.003938-.557053.01133-.829908.022564l-.198867.008685-.041221.002253-.067504.003464-.035275.001283-.095.006-.328773.021075-.39565.031682c-.15009.01338-.298646.028224-.445736.044624-.129316.01442-.257374.030032-.384113.046887l-.146875.020176-.110805.015462.084952-.011906-.082443.012165-.098557.014835-.058.009-.092951.015244-.023658.00392c-.040569.006755-.080985.013653-.121245.020697l-.104095.018598-.011051.001541-.091.017-.010978.002552c-.047318.00903-.09441.018271-.141271.027727l-.058703.011627-.013979.003248-.030021.005752-.033048.007094.017048-.004094-.018491.004809-.096557.020285.093861-.019711c-.030699.006542-.061296.013178-.091789.019911l-.056072.0118-.035097.008686.036097-.008686-.208706.04949-.226297.057721c-.119136.031711-.236467.065085-.35192.100183l-.028884.00883-.148199.046846-.137946.044836-.051048.018094-.017.006-.013097.005328-.023088.008192-.027815.00948-.066917.024898-.074083.027102.033-.012-.04729.018114-.05871.021886-.058.023-.195717.082086-.219073.098816-.091467.0439-.091743.045198-.013834.007554-.081166.041446-.187146.103551-.186768.111272-.080086.050177-.183592.123741-.183041.134152-.077367.060107-.057.046-.034.028-.131024.114113-.140132.130899c-.140559.136696-.272002.281552-.393669.434762-.184373.232144-.346749.483902-.485447.756711-.05098.100277-.098758.203394-.143246.30941-.064443.153572-.121993.313251-.172393.479249l-.056449.200014c-.075729.28974-.130648.597857-.163512.925385l-.03196.282192-.006746.05235c-.000999.007606-.002006.015208-.00302.022804l-.029034.202557-.014876.094174c-.005657.034768-.011478.069428-.017543.104439-.032319.186473-.069453.369793-.111479.55026l-.005778.024669c-.004142.017573-.00833.035115-.012564.052628l.018342-.077297c-.017276.074179-.035368.147823-.054217.220763l-.033718.126601c-.013966.050991-.028336.101717-.043166.15247-.014028.047916-.028419.095593-.043131.142766-.014682.047198-.029725.094159-.045123.141016-.061446.186424-.128629.36909-.201382.547283-.008906.021845-.017897.043634-.027054.065886-.030111.072117-.061164.143616-.093457.214746l-.035435.077819-.068474.143459c-.112377.23006-.235059.453361-.368045.6699l.010922-.018186c-.014759.024168-.029647.048252-.044254.072607-.036081.057731-.072901.114977-.11092.17127-.01726.026054-.034676.052005-.051733.078333l-.121351.172781c-.076459.106269-.15565.210745-.237574.313426-.201801 2.095653-.399936 4.197398-.594457 6.305225-3.436434 37.23725-5.744851 76.372273-7.207693 117.339269-1.534002 42.959925-2.13816 87.934158-2.13816 134.84684l.002 5.910313.001548 1.505376c.233493 242.700995 11.926439 286.306344 15.579164 297.680553 3.689621 11.489101 6.266458 16.061237 32.923262 26.79694.324588.130723.653666.263469.987164.398173.303561.122611.611215.24702.922488.373007.382923.154989.772373.312792 1.167226.472905.199035.080705.39909.161857.600501.243583.796705.323284 1.615361.655839 2.45446.996664 1.844174.749023 3.787154 1.538024 5.820456 2.359336.480133.194098.964346.389471 1.453462.58654 1.598543.643808 3.24824 1.305414 4.946399 1.981612l-.009136-.0032c5.789775 2.30587 12.142437 4.781496 18.904266 7.288813.072948.02705.146517.054315.220133.081584l-.220133-.081584c.697113.258493 1.398576.517322 2.104218.776337.46135.169344.923842.338532 1.388068.507757.999014.364171 2.006161.728549 3.020877 1.092678.19747.070861.394662.141511.592137.212149l-.592137-.212149c.370975.133123.742961.266213 1.115936.39925l-.523799-.187101c.737851.263935 1.479634.527696 2.225171.791124.323823.114419.647983.228645.972836.342795 1.282248.45057 2.575256.899951 3.87815 1.347348.605419.207892 1.21329.415465 1.823208.622527.727384.246942 1.457859.493218 2.191094.738632 2.053602.687342 4.129029 1.367974 6.222759 2.038828.169034.054161.337901.108166.506886.162106l-.506886-.162106c.96406.308896 1.932.615718 2.903494.920174.327411.102607.655289.204965.983557.307042.196745.061179.393457.122204.590307.183126l-.590307-.183126c.304997.094841.610331.18944.915993.283788l-.325686-.100662c.469326.145249.939434.289914 1.410288.43396l-1.084602-.333298c.479863.148119.960534.295618 1.441973.442465l-.357371-.109167c1.495784.4576 2.999091.908967 4.508753 1.353049.033332.009805.066298.019498.099267.029187l-.099267-.029187c.448664.131979.897889.263315 1.347645.39398.111737.032462.223066.064755.334428.097007l-.334428-.097007c.520133.151111 1.040975.301324 1.56248.450598l-1.228052-.353591c.492107.14252.984839.28423 1.478156.425093l-.250104-.071502c1.926887.551545 3.862812 1.090258 5.80538 1.613985.247804.06681.496016.133456.744332.199853l-.744332-.199853c.40725.109797.814791.218935 1.222603.327395l-.478271-.127542c.461336.123357.923029.245854 1.385048.367464l-.906777-.239922c.392681.104436.785612.208243 1.178774.311403l-.271997-.071481c.422283.111151.844837.22156 1.267639.331206l-.995642-.259725c.92686.243195 1.855001.482796 2.784165.718571.594264.150794 1.188624.299942 1.783335.447467.139442.03459.279072.069133.418719.103585l-.418719-.103585c.322838.080084.64578.159689.968814.238806l-.550095-.135221c.557591.137562 1.115475.273684 1.673599.408318l-1.123504-.273097c.441508.108133.883188.215354 1.325014.321639l-.20151-.048542c.378519.091308.757148.181932 1.135869.271855l-.934359-.223313c1.343262.323132 2.687867.637605 4.033041.942724.040992.009298.081672.018517.122354.027727l-.122354-.027727c.194369.044088.38875.087981.58314.131676.369503.083057.738789.165344 1.108092.246905l-1.108092-.246905c.584272.131333 1.168631.260882 1.753012.388592l-.64492-.141687c.46363.102394.927288.203642 1.390944.303716l-.746024-.162029c.38721.08462.774431.168432 1.161642.25142l-.415618-.089391c.482322.104103.964641.206936 1.446921.308468l-1.031303-.219077c.513458.110045 1.0269.218641 1.540285.325748l-.508982-.106671c1.538076.3238 3.07576.634358 4.611897.930635.222545.042923.445345.085601.668109.127975l-.668109-.127975c.442903.085424.885677.16966 1.328295.252684l-.660186-.124709c.446862.085002.893579.168782 1.340122.251315l-.679936-.126606c.534605.100279 1.068981.198789 1.603081.295488l-.923145-.168882c.432806.079994.865449.158815 1.297903.236442l-.374758-.06756c.469791.085055.939367.168708 1.408696.25093l-1.033938-.18337c.491177.088167.98211.174792 1.47276.259841l-.438822-.076471c.391138.068523.782105.136052 1.172881.202569l-.734059-.126098c.631964.109545 1.26346.216474 1.894408.320716.284102.046939.568222.093353.852222.139215l-.852222-.139215c.395206.065294.790196.129534 1.184951.192701l-.332729-.053486c.509982.082354 1.01958.162928 1.528752.241684l-1.196023-.188198c.471664.075474.942993.149417 1.413951.221798l-.217928-.0336c.428081.066213.855861.13114 1.283313.194759l-1.065385-.161159c.507723.078032 1.015016.154249 1.521836.228613l-.456451-.067454c1.551275.230879 3.098245.444524 4.63969.639838.091202.011556.182563.02307.273903.03452l-.273903-.03452c.45158.057219.902685.112864 1.353286.166909l-1.079383-.132389c.504002.063177 1.007404.124385 1.510165.183587l-.430782-.051198c.45845.054987.916377.108316 1.37375.159959l-.942968-.108761c.489909.057688.979208.113471 1.467859.167313l-.524891-.058552c.556987.062891 1.11315.123281 1.668433.181118l-1.143542-.122566c.416472.045889.832473.090368 1.247978.133415l-.104436-.010849c.507585.052869 1.014433.103605 1.5205.152168l-1.416064-.141319c.588789.061 1.176582.119124 1.763311.174311.320501.030145.64052.059399.960209.087768l-.960209-.087768c.552669.051983 1.104392.101359 1.655113.148076l-.694904-.060308c.450642.039988.90063.078216 1.349933.114656l-.655029-.054348c.408483.034652.816414.06784 1.223769.099545l-.56874-.045197c.483774.039235.966754.076396 1.448899.111448l-.880159-.066251c.442353.034428.884026.067106 1.324991.098007l-.444832-.031756c.535275.038914 1.069522.075229 1.602687.108894l-1.157855-.077138c.434257.030431.867826.059138 1.300679.086095l-.142824-.008957c.516841.032635 1.032664.062781 1.547421.090394.803095.043079 1.615025.082339 2.435636.117839.363133.015272.728014.030055 1.094674.044026l.41557.016712c11.962589.445284 25.704196.119052 40.768018-.802084.283254-.017321.566954-.034851.851118-.05259l-.851118.05259c.479516-.029322.960373-.059247 1.442554-.089769l-.591436.037179c.536727-.033504 1.075111-.067756 1.615131-.102745l-1.023695.065566c1.268612-.080302 2.546395-.164738 3.833083-.253204.07495-.005153.151068-.010398.227217-.015657l-.227217.015657c1.650226-.11346 3.315097-.233548 4.994049-.360046.310684-.023408.621657-.047021.933107-.070852l-.933107.070852c.551416-.041546 1.104351-.083783 1.658784-.126703l-.725677.055851c.57292-.043836 1.147457-.08841 1.723589-.133712l-.997912.077861c.578356-.044773 1.158343-.090289 1.739938-.13654l-.742026.058679c.462807-.036392.926643-.073253 1.391498-.11058l-.649472.051901c1.146508-.091176 2.299264-.185209 3.458096-.28203 1.648641-.137746 3.309567-.281136 4.982286-.429977.148669-.013229.298052-.026556.447529-.039926l-.447529.039926c1.029844-.091637 2.064158-.18534 3.102826-.281064.422324-.038922.84535-.078176 1.269087-.117761l-1.269087.117761c.563587-.051941 1.128457-.104476 1.694589-.157599l-.425502.039838c.464629-.043405.930114-.087208 1.396444-.131405l-.970942.091567c2.608775-.244796 5.244366-.502072 7.904941-.77112.274308-.027739.549384-.055654.824725-.083694l-.824725.083694c.575775-.058224 1.15272-.117 1.730816-.17632l-.906091.092626c2.008155-.204507 4.03038-.415652 6.065893-.633134.767716-.082031 1.528627-.164019 2.291345-.246872.936443-.101724 1.875768-.20477 2.817742-.309092.892022-.09879 1.786079-.198686 2.682447-.299701 2.05963-.232106 4.131284-.470097 6.214361-.713694.814015-.095192 1.62934-.191189 2.446362-.288023.78188-.092668 1.565679-.186148 2.350992-.280379 1.51944-.18232 3.044699-.367473 4.575336-.555328.329549-.040445.659398-.081022.989494-.121724l-.989494.121724c2.135311-.262067 4.281087-.529391 6.436535-.801667.952456-.120314 1.906774-.241591 2.862912-.363809.597136-.076328 1.194311-.152937 1.792177-.229906.898001-.115607 1.797794-.232055 2.699091-.349292 1.574239-.204771 3.15296-.411937 4.735967-.621393 6.897045-.912588 13.875294-1.86865 20.910018-2.85858.814771-.114655 1.629686-.229678 2.445319-.345139 2.016566-.285466 4.03764-.573631 6.062519-.864253.528378-.075836 1.056761-.151802 1.585392-.227931l-1.585392.227931c1.288068-.18487 2.577674-.370735 3.868671-.557535.825066-.119383 1.651148-.239213 2.477759-.35941 3.697261-.53762 7.405131-1.082596 11.120068-1.633567.462198-.068549.924244-.137153 1.386393-.205847 1.602341-.238171 3.206151-.477461 4.810911-.717724.359324-.053798.718985-.107688 1.07869-.161626l3.758034-.564974 2.176113-.328439 4.681853-.709622c.780478-.118621 1.561019-.23741 2.34159-.356354l4.683541-.71542c1.561132-.239026 3.122129-.478571 4.682733-.718537l.661793-.102317.668101-.10225c.047792-.007354.09557-.014706.143335-.022057l-1.473229.226624c3.840713-.590566 7.596044-1.169888 11.266437-1.738025.304065-.047065.607672-.094074.910696-.141006.837694-.129741 1.669095-.25861 2.496065-.386895.277095-.042984.555777-.086227.833955-.129403l.362404-.056258c2.234475-.3469 4.436276-.689498 6.60551-1.027807.280123-.043684.559461-.087261.838256-.130768.528408-.082464 1.053061-.164385 1.575783-.246051.312579-.048829.625608-.097752.937942-.146583.42115-.065849.839592-.131301 1.256778-.196587 1.502867-.235176 2.989996-.468301 4.460862-.699285.835712-.131252 1.663898-.261444 2.486871-.390948 1.231633-.193796 2.452861-.38627 3.66241-.577206 1.859312-.29353 3.689207-.583118 5.491643-.86909.253267-.040149.507599-.080515.761381-.120809.410054-.065141.817381-.129854 1.223284-.194378 1.542074-.245094 3.065002-.487743 4.567409-.727691.454102-.072579.905137-.144667 1.354308-.21651 1.393188-.22277 2.770913-.443633 4.130692-.662133 2.434889-.391346 4.811262-.774883 7.130397-1.150884.67097-.108663 1.337234-.216826 1.998712-.324358 1.00878-.16413 2.006285-.32664 2.992685-.487688.37376-.060866.746401-.121754 1.117443-.182432.227585-.037383.452708-.074218.67724-.110976l.505236-.08257c.116703-.01912.233245-.038218.349626-.057294.62093-.101964 1.235497-.202855 1.845518-.303147.391957-.064242.783604-.128689 1.173361-.192888 3.264391-.537937 6.394569-1.057941 9.393207-1.560632.242654-.040346.485649-.081109.727774-.121758 26.560766-4.459844 42.658261-7.542123 48.937243-9.333003 11.252883-3.209526 16.035763-12.731289 16.458485-16.256081.422722-3.524793 12.299415-167.880679 12.299415-320.072788 0-190.552526-11.817461-336.39818-14.641035-370.520806zm-486.086287 732.198649.061048.145464c1.484774 3.484571 3.758131 5.983878 6.820071 7.497922 4.880781 2.41341 12.837691 3.646589 20.161378 3.10827-3.968979-1.516623-8.019345-3.100439-12.247526-4.783825-2.024878-.806174-5.679099-2.279796-9.212995-3.708482l-.622024-.251509c-1.787971-.723055-3.518136-1.423624-4.959952-2.00784zm473.265528-5.044077-.530215.124863c-8.103386 1.882567-21.99136 4.490201-41.974437 7.882462 4.641412 4.679126 11.269412 7.606363 18.627534 7.606363 10.966326 0 20.310902-6.501989 23.877118-15.613688zm-491.910601-662.727186.004757-.051254c-.317275 3.989307-.606094 7.893046-.768653 10.935457-.198187 3.709214-.390881 9.284142-.578084 16.724784l-.605596-.02904c.660211.029307 1.332414.06723 2.035113.113929.083718-1.860793.178954-3.927834.292907-6.364905l.025735-.549888c.060149-1.284107.122804-2.614682.207701-4.412553.019903-.421426.019903-.421426.039823-.843125l.050542-1.069766.067121-1.421077c.009626-.203909.015642-.331351.020753-.439638l.009815-.208013c.005106-.108217.011109-.235484.020713-.439111l.01568-.332564c.018605-.394795.018605-.394795.037166-.789004.095041-2.01901.174293-3.714105.247639-5.299772l.008891-.192306c.025227-.545899.049578-1.075118.073153-1.589936.018225-.39832.018225-.39832.036196-.792483l.013654-.300089c.019899-.438286.019899-.438286.039523-.872517.024684-.546842.048454-1.077178.071243-1.590151-.464951-.057992-.918623-.119921-1.365792-.186978zm63.699604-105.6657899-.436784.0128468c-17.581709.5562287-33.026986 1.2042737-46.335833 1.944135-2.230614 4.7042465-3.664848 8.255395-4.302704 10.6534455-1.0924 4.1069346-1.446454 8.4309096-1.882545 11.8599036 14.335911-1.174498 29.025762-1.354582 44.066592-.544428 1.005419.054156 1.99176.110678 2.967263.17033l.833683.051915c.692844.04393 1.38136.089568 2.068551.137192l.824185.05812.824065.060133c9.755284.723908 19.727737 1.893088 38.515913 4.303456 13.99598 1.795569 22.189091 2.777774 30.062781 3.509634l.907397.083366c.151101.01372.302161.027355.453221.04091l.906654.080394c1.209686.105988 2.424291.207332 3.663783.306082 11.498968.916122 50.298185.816088 110.941352-.03993 10.743433-.15165 22.038868-.324658 34.553217-.527002 4.695907-.075928 13.09172-.215511 21.686289-.359123l1.290239-.021565c.430284-.007193.860628-.014389 1.290593-.02158l1.288324-.021551c11.576818-.193698 22.558743-.378438 24.331632-.407518 15.249593-.250137 23.855828-.36901 28.225833-.378609l.553854-.000634c8.900148 0 30.628507-.833325 53.684948-2.037019l1.897804-.099758c.316721-.016762.633631-.033591.950702-.050487l1.904115-.102153c.952785-.051462 1.906482-.103497 2.860293-.156071l1.907539-.105859c.31787-.01776.635693-.035578.953441-.053452l1.905337-.107911c4.442554-.253328 8.858632-.517246 13.167114-.788488 17.628365-1.109799 32.765229-2.285252 43.827058-3.439014 3.391483-.353736 6.371785-.702695 8.904428-1.042619l-.00048-8.834995c0-2.4829861-6.577633-6.6075265-35.822204-10.1297181-8.107085 4.6567574-17.49078 9.3747391-28.18254 14.1998251-2.451435 1.106309-5.100823 1.706817-7.789688 1.765604-130.206611 2.846733-204.19829 4.280172-222.585616 4.308986h-.540172c-10.315115 0-24.945166-.452013-39.945359-1.128999l-2.197334-.100651c-1.099531-.051102-2.200013-.103349-3.299901-.156653l-2.198527-.107989c-16.842277-.838309-33.302694-1.911016-43.810082-2.897477-13.592715-1.276119-23.858222-3.333263-31.473878-6.664231-6.365688-2.784251-10.063571-7.7585226-11.414553-13.2207939zm197.091177-42.5643274-.861096.0001543-.035084.0004084c-.292348.0001915-.58418.0003951-.875488.000611l-.802671.0002648c-.284529.0002376-.568546.000487-.852043.0007484l-.034711.0003698c-1.660881.0015163-3.30389.0034443-4.927294.0058042-.367758.0002598-.734509.0008207-1.100234.0014039-.452301.000983-.903268.001734-1.352626.0025198-.109165-.00006-.218176.000134-.327091.00033l.327091-.00033c-.541744.0009473-1.081148.0019451-1.618147.0029942-.12501.0000105-.249689.0002584-.374238.0005091l.374238-.0005091c-.805807.0015743-1.606195.0032642-2.40094.0050723-.014729-.0001773-.029698-.0001431-.044664-.0001088-1.080751.0026839-2.150512.0053664-3.209265.0082744-.550197.0015044-1.09729.0030762-1.641331.0047098-.182701.0005549-.365089.0011105-.547129.0016731-.355187.0010916-.709084.0022162-1.061635.0033678-.155441.0005135-.309964.0010242-.464227.0015402-.378535.0012604-.755527.002558-1.130919.0038874-.870236.0030868-1.732143.0063399-2.585096.0097678-.175626.0007013-.350619.0014135-.525231.0021332l-.05759.0002421c-.303118.0012527-.605084.0025278-.905882.0038254-.090495.0002767-.180639.0006687-.270677.0010628l-.190586.0009489c-.041962.000185-.083901.0003705-.125816.0005564-.362272.0016027-.722801.0032426-1.081576.0049162-.019284-.0000089-.039543.0000858-.059796.0001807l-.190193.000996c-.078962.0003726-.157838.0007468-.236628.0011227-.189315.0008996-.377994.0018116-.566174.0027332l-.221385.0010932c-.064814.0003207-.129569.0006425-.194263.0009654-.010099-.0000427-.020065.0000071-.03003.000057l-.244469.0013218c-.165065.0008344-.329736.0016762-.494011.0025256-.40865.0021096-.814836.004269-1.218523.0064753-.563793.0030066-1.122771.0061831-1.676751.0094524-.365848.0022258-.729312.0044223-1.090564.0066598-.213836.0013267-.427385.0026685-.640148.0040248l-.285276.0017698c-.008359.0000541-.016717.0001081-.025073.0001622-.21655.0014603-.431667.0028714-.645957.0042976l-.17002.0011339c-.015933.0001068-.031862.0002138-.047785.0003208-.659732.0044366-1.310911.0090113-1.953979.0137333-.74166.0054443-1.473083.0110907-2.193352.0169376-.345282.0028041-.688063.0056535-1.028243.0085494-.189592.001581-.378178.0032084-.565951.0048503-.138122.0012377-.275968.0024542-.41337.0036787-.221658.0019762-.442904.0039788-.662976.0060022l-.246644.0022799c-.278211.002588-.554524.0052096-.828917.0078651-.698022.0067337-1.384135.0137155-2.057426.0209211-.142329.0015405-.28477.0030808-.426628.0046312-.448169.0048988-.890862.0099022-1.327621.0150083-.061095.0007138-.123295.0014444-.185373.0021771-.155255.0018199-.310053.0036695-.464085.0055324-.08792.0010751-.175445.0021407-.262721.0032106-.474928.0058224-.943516.0117858-1.404522.0178793-.535569.0070707-1.061009.0143275-1.575967.0217626-.285634.0041301-.566823.0082904-.844775.0125056-.262868.003982-.52255.0080134-.779307.0120942-.193979.0030868-.386232.0061969-.576802.0093354-.038528.0006312-.076451.001258-.114307.001886-.285951.0047464-.568512.0095614-.847184.0144417-.203924.0035712-.40504.0071643-.604068.0107923l-.2004.0036779c-.039245.0007251-.078407.0014516-.117486.0021795-.161991.0030159-.321341.0060338-.479281.0090752-.082605.001592-.165664.0032054-.248327.0048254-.117528.0023022-.233937.0046125-.349546.006936l-.149376.0030198c-.374953.0076186-.741373.0153789-1.0991.0232828-.283911.0062724-.562658.012643-.835838.0191052-.204355.0048345-.405335.0097135-.603174.0146439-.082233.0020493-.163814.0041048-.244852.0061693-.0779.0019846-.15495.0039684-.2315.0059603l-.12916.0033811c-.095906.0025258-.191014.0050647-.28532.0076166-.320452.0086711-.632158.0175088-.934403.0265003-.126922.0037758-.25224.0075806-.375876.0114128-.100659.0031199-.200527.0062682-.299265.0094348l-.065417.002106c-34.087557 1.1015874-70.723694 11.109011-85.731017 23.760405-6.559056 5.5293811-12.998462 10.9026274-19.319364 16.1196243 4.302679.8814576 9.458939 1.6048395 15.468609 2.1690428 9.611203.9023244 27.938432 2.114115 46.782245 3.0220058l2.057344.0978076c14.384498.6745946 28.895913 1.1596451 39.902497 1.183476l1.373164.0009189c18.169236-.0288382 92.220953-1.4634308 222.155151-4.3042083 20.063715-9.0545569 34.876468-17.5297255 44.438259-25.4255057 14.342685-11.8436703-8.906377-16.6235664-35.865135-16.6235664l-.851461-.0003272-.457439-.0004053c-.467904-.0004845-.967097-.0012058-1.496638-.0021526l-.408278-.0007628-.328288-.0006583c-.361509-.0007456-.73563-.0015843-1.122108-.0025128-.095012-.0002282-.190818-.0004621-.287367-.0007013-.148113-.0003669-.298643-.0007483-.450924-.0011423l-.219133-.0005725c-.130928-.0003453-.263119-.0006997-.396563-.001063-.470122-.0012803-.954697-.0026688-1.454383-.0041638-.342315-.0010241-.691606-.0020979-1.047863-.0032203l-.148749-.0004701c-.199662-.0006331-.401483-.0012813-.605443-.0019442-.031585-.0001026-.062243-.0002025-.092948-.0003026l-.157504-.0005153c-.093859-.000308-.188162-.000619-.282906-.000933l-.07403-.0002457c-.387178-.0012867-.781685-.0026237-1.183386-.0040094-.097431-.000336-.195285-.000675-.29356-.0010168-.303948-.0010571-.612476-.0021433-.924992-.0032562-.118577-.0004222-.23622-.0008429-.35442-.0012673-.81601-.0029297-1.658307-.0060348-2.526132-.0093045-.651676-.0024552-1.318193-.005005-1.998707-.0076427l-.458051-.0017804c-.412897-.0016094-.83082-.0032501-1.253678-.0049212-.180086-.0007117-.359575-.0014229-.539938-.0021395-.368575-.0014644-.739513-.0029458-1.114015-.0044487-.597497-.0023977-1.203299-.0048468-1.817918-.0073475-.911885-.0037102-1.843595-.0075357-2.793964-.0114657-.302512-.001251-.606582-.0025112-.912514-.0037817-.877147-.0036426-1.76951-.0073695-2.676595-.0111739l-.093233-.0003911c-.477952-.0020052-.959976-.0040318-1.445989-.0060789-.487405-.002053-.978996-.0041272-1.474516-.006221-.015966-.0000675-.031717-.0001341-.047473-.0002006l-.307892-.0013015c-.266245-.0011258-.533609-.0022571-.80208-.0033938-.784474-.0033214-1.578548-.0066893-2.381748-.0100995-.414364-.0017592-.830597-.0035273-1.249208-.005306-.07313-.0003108-.146565-.0006228-.220072-.0009352-1.372773-.0058337-2.770189-.0117773-4.191398-.0178154-.586632-.0024923-1.176752-.0049984-1.770808-.0075192l-1.222355-.0051839-.056905-.0002412c-2.361626-.0100087-4.783097-.020232-7.25771-.0305908-.372046-.0015574-.744247-.0031135-1.11762-.0046724l-.327702-.0013676c-.425749-.0017761-.853009-.0035557-1.281744-.0053384l-.140008-.0005821c-.24936-.0010364-.499218-.0020739-.749567-.0031124-.775439-.0032165-1.555808-.0064432-2.340695-.0096767-.067126-.0002765-.134284-.0005531-.201476-.0008297l-.211482-.0008705c-.103426-.0004255-.20693-.0008511-.310511-.0012769-.276005-.0011345-.553372-.0022731-.831281-.0034123-.306507-.0012565-.613605-.0025135-.92135-.0037712-.561654-.0022953-1.124996-.004591-1.690425-.0068881-.400238-.001626-.80107-.0032508-1.202921-.0048761l-.350141-.0014152c-.912945-.0036876-1.831097-.0073768-2.754171-.0110645-.190329-.0007604-.38074-.0015202-.571358-.0022799-.101553-.0004047-.203395-.0008103-.305295-.0012159-.245216-.000976-.491231-.0019537-.737581-.0029311-1.238808-.0049151-2.487084-.0098278-3.743166-.0147262-.283579-.0011058-.567399-.0022104-.851609-.0033141l-.473371-.0018362c-.512652-.0019862-1.026554-.0039695-1.541662-.0059496-2.219266-.0085305-4.459893-.016995-6.719255-.0253546l-.397944-.0014705c-.500807-.0018485-1.002522-.0036916-1.505107-.005529-2.394826-.0087553-4.809267-.01738-7.239199-.0258243-.878109-.0030516-1.758173-.0060794-2.64006-.0090812-.519455-.0017682-1.039513-.0035272-1.560163-.0052768-.530264-.001782-1.06116-.0035541-1.592627-.0053159-.012361-.000041-.025696-.0000852-.039032-.0001294l-.615627-.0020346c-.539087-.0017768-1.078741-.0035428-1.618917-.0052975-.500754-.0016266-1.002228-.0032442-1.504114-.0048517-.383142-.0012272-.766803-.0024492-1.150689-.0036652-.637123-.0020181-1.275142-.0040201-1.913709-.0060042-.133572-.0004151-.266911-.0008286-.400274-.0012412l-.156745-.0004847c-.053679-.0001658-.107361-.0003315-.161047-.0004971-.617649-.001905-1.235615-.0037925-1.854002-.0056623-.455389-.001377-.911006-.0027443-1.366825-.0041018-1.20086-.0035761-2.403019-.0070832-3.606093-.0105157l-3.00973-.0084238-6.0242-.0158364c-1.864573-.0046808-3.728449-.0092439-5.589838-.0136272l-2.789993-.0059319c-10.221496-.0219829-20.340682-.0366099-30.059827-.0405083h-8.452651l-.88752.000323z"/></svg>