<svg height="960" viewBox="0 0 960 960" width="960" xmlns="http://www.w3.org/2000/svg"><path d="m466.830611 1.43723261c29.49351 0 57.706639 2.68732788 81.21399 7.68444209 12.258219 2.6058113 23.238698 5.8358668 32.679122 9.7186966 5.369145 2.2083202 10.309984 4.6539753 14.82092 7.4024799.131091.0798735.261846.1600136.387969.2438767 18.055665 1.6196113 33.750636 3.6642617 47.201448 6.1605341 19.610494 3.6394186 36.534849 10.4242256 50.79769 20.6347201 14.105653 10.0979668 25.036324 23.1321935 33.091818 38.7690331 6.755042 13.1124798 11.381534 27.7443568 14.641716 44.7064238 2.549309 13.263536 4.234325 27.565176 5.716015 46.363128 3.059648 38.817232 4.511326 73.893493 3.767362 105.476999-.461887 19.608494-1.779359 37.296781-4.100894 52.972015-2.778158 18.7584-6.982739 34.736075-13.231087 48.107436-2.421704 5.182406-5.22398 10.103681-8.408745 14.74537 4.630966 5.613972 8.639975 11.693319 11.942492 18.226943 5.27628 10.43847 9.326947 22.864635 12.559178 37.563237 2.868448 13.044298 5.134147 28.123724 6.88142 45.365219 3.218381 31.757892 4.724662 71.334699 4.724662 119.541475v109.738117c0 19.225584-.805873 35.97096-2.754982 51.887862-2.390131 19.518396-6.468836 37.25001-12.725642 53.543093-7.343535 19.122988-17.596148 35.952421-31.176518 50.160624-14.775953 15.459059-33.060218 27.325619-54.693005 35.305997-32.151464 11.860738-62.520355 19.623534-91.975772 24.32568-11.274704 1.79985-21.965852 3.084716-32.915749 4.059058-4.068778.362048-7.947872.66343-12.48711.983016-.601465.042346-7.620625.523419-9.256067.64511-15.555781 1.157482-32.186029 1.710285-49.906731 1.672099h-.108658-.10868c-17.720788.038164-34.350697-.514635-49.90624-1.672099-1.635442-.121691-8.654602-.602764-9.256067-.64511-4.539238-.319586-8.418333-.620968-12.48711-.983016-10.949897-.974342-21.641045-2.259208-32.915749-4.059058-29.455417-4.702146-59.824308-12.464942-91.975772-24.32568-21.632787-7.980378-39.917053-19.846938-54.693005-35.305997-13.58037-14.208203-23.832983-31.037636-31.176518-50.160624-6.256806-16.293083-10.335511-34.024697-12.725642-53.543093-1.949109-15.916902-2.754983-32.662278-2.754983-51.887862v-109.738117c0-48.206776 1.506282-87.783583 4.724663-119.541475 1.747273-17.241495 4.012972-32.320921 6.88142-45.365219 3.23223-14.698602 7.282898-27.124767 12.559177-37.563237 3.57855-7.079719 7.98535-13.624571 13.125834-19.611175-2.798525-4.234673-5.289494-8.692186-7.471264-13.361138-6.248347-13.371361-10.452928-29.349036-13.231087-48.107436-2.321535-15.675234-3.639007-33.363521-4.100894-52.972015-.743964-31.583506.707714-66.659767 3.767362-105.476999 1.48169-18.797952 3.166706-33.099592 5.716015-46.363128 3.260182-16.962067 7.886674-31.593944 14.641716-44.7064238 8.055494-15.6368396 18.986165-28.6710663 33.091818-38.7690331 14.262841-10.2104945 31.187196-16.9953015 50.79769-20.6347201 14.739318-2.7354001 32.182591-4.9299356 52.463455-6.6187475.169501-.1092072.344669-.2139308.520427-.318195 4.48958-2.6633314 9.39789-5.0406109 14.72249-7.1908808 9.415081-3.8021576 20.337073-6.9703933 32.50459-9.52728834 23.385834-4.91432381 51.365418-7.55491775 80.601512-7.55491775zm-221.707003 416.43643139c-7.998517 6.013386-15.075037 13.583243-19.743948 22.82011-14.429748 28.54748-19.863973 93.756026-19.863973 184.425487v109.738117c0 62.789464 9.127095 128.997404 75.194252 153.369709 66.067158 24.372305 113.845987 26.020512 135.758728 27.651005 14.557863 1.083229 30.239942 1.602019 47.046802 1.559141 16.806674.042899 32.489087-.475891 47.047239-1.559141 21.912741-1.630493 69.69157-3.2787 135.758728-27.651005 66.067157-24.372305 75.194251-90.580245 75.194251-153.369709v-109.738117c0-90.669461-5.434224-155.878007-19.863972-184.425487-4.473308-8.849889-11.156717-16.169521-18.743941-22.056759-7.149884 4.815059-15.098512 8.980857-23.855865 12.622171-10.377443 4.314949-21.74609 7.846734-34.734232 10.990644-9.726175 2.354319-18.6417 4.148466-33.697249 6.929657-24.498333 4.525542-60.355974 7.15312-108.022709 7.983588-1.108586.211593-2.254917.309088-3.424476.309088-4.972062-.006325-9.838435-.028493-14.597311-.066794-4.758478.0383-9.624853.060469-14.596978.066794-1.169559 0-2.31589-.097495-3.424476-.309088-47.666735-.830468-83.524376-3.458046-108.022709-7.983588-15.055549-2.781191-23.971074-4.575338-33.697249-6.929657-12.988142-3.14391-24.356788-6.675695-34.734232-10.990644-9.217643-3.832703-17.539314-8.246473-24.97668-13.385522zm171.03474 45.017591c5.473246.738525 9.311496 5.774161 8.572971 11.247407-1.761184 13.052217-2.91377 23.315917-3.457446 30.743291-.554486 7.575037-1.162912 17.95468-1.823559 31.121554-.27676 5.515908-4.972647 9.763077-10.488555 9.486317-5.515909-.276761-9.763078-4.972647-9.486317-10.488556.66766-13.306636 1.284353-23.827307 1.851797-31.579389.578254-7.899745 1.772717-18.53636 3.583702-31.957653.738525-5.473246 5.77416-9.311496 11.247407-8.572971zm48.697882 1.579738c5.522847 0 10 4.477153 10 10v61.031395c0 5.522847-4.477153 10-10 10-5.522848 0-10-4.477153-10-10v-61.031395c0-5.522847 4.477152-10 10-10zm48.64243-1.579738c5.473247-.738525 10.508883 3.099725 11.247408 8.572971 1.810984 13.421293 3.005447 24.057908 3.583701 31.957653.567445 7.752082 1.184137 18.272753 1.851797 31.579389.276761 5.515909-3.970408 10.211795-9.486317 10.488556-5.515908.27676-10.211794-3.970409-10.488555-9.486317-.660647-13.166874-1.269073-23.546517-1.823559-31.121554-.543676-7.427374-1.696262-17.691074-3.457445-30.743291-.738526-5.473246 3.099724-10.508882 8.57297-11.247407zm-141.472649-1.86018c5.199609 1.861695 7.905523 7.586013 6.043828 12.785623-4.113129 11.487737-6.794549 20.73514-8.047973 27.634605-1.262297 6.948304-2.142983 17.366677-2.597972 31.117268-.182644 5.519827-4.805409 9.846468-10.325236 9.663824-5.519826-.182644-9.846468-4.805409-9.663824-10.325236.484548-14.643922 1.439559-25.941551 2.90912-34.030738 1.478433-8.138027 4.44515-18.369331 8.896435-30.801518 1.861695-5.199609 7.586013-7.905523 12.785622-6.043828zm185.604986 0c5.199609-1.861695 10.923927.844219 12.785623 6.043828 4.451285 12.432187 7.418001 22.663491 8.896434 30.801518 1.469561 8.089187 2.424572 19.386816 2.90912 34.030738.182644 5.519827-4.143997 10.142592-9.663824 10.325236-5.519826.182644-10.142592-4.143997-10.325236-9.663824-.454989-13.750591-1.335675-24.168964-2.597972-31.117268-1.253424-6.899465-3.934844-16.146868-8.047973-27.634605-1.861695-5.19961.844219-10.923928 6.043828-12.785623zm-225.808918-4.802526c4.946475 2.456469 6.965023 8.457739 4.508555 13.404214-5.297143 10.666607-8.821456 19.354273-10.574388 25.934748-1.782656 6.692058-3.463326 17.653346-4.96563 32.68063-.54939 5.495454-5.449704 9.505031-10.945159 8.955641-5.495454-.54939-9.505031-5.449704-8.95564-10.945158 1.600197-16.00649 3.421527-27.885167 5.54037-35.839264 2.148568-8.065681 6.144944-17.917016 11.987679-29.682256 2.456468-4.946474 8.457739-6.965023 13.404213-4.508555zm279.417063 4.508555c5.842735 11.76524 9.839112 21.616575 11.987679 29.682256 2.118843 7.954097 3.940174 19.832774 5.540371 35.839264.54939 5.495454-3.460187 10.395768-8.955641 10.945158s-10.395769-3.460187-10.945159-8.955641c-1.502304-15.027284-3.182973-25.988572-4.96563-32.68063-1.752932-6.580475-5.277244-15.268141-10.574388-25.934748-2.456468-4.946475-.437919-10.947745 4.508555-13.404214 4.946474-2.456468 10.947745-.437919 13.404213 4.508555zm-313.159057-10.851918c4.738837 2.83642 6.28105 8.977378 3.444631 13.716214-6.485109 10.834742-10.843873 19.44684-13.052364 25.665392-2.248621 6.331551-4.890761 17.519085-7.818535 33.31412-1.006571 5.430346-6.224723 9.016524-11.655069 8.009953s-9.016525-6.224723-8.009954-11.655069c3.105824-16.755595 5.948805-28.793546 8.636826-36.362336 2.728153-7.681788 7.632928-17.372702 14.738252-29.243643 2.836419-4.738836 8.977377-6.28105 13.716213-3.444631zm347.213052 3.444631c7.105324 11.870941 12.010098 21.561855 14.738251 29.243643 2.688021 7.56879 5.531002 19.606741 8.636826 36.362336 1.006571 5.430346-2.579607 10.648498-8.009954 11.655069-5.430346 1.006571-10.648498-2.579607-11.655069-8.009953-2.927774-15.795035-5.569913-26.982569-7.818535-33.31412-2.208491-6.218552-6.567255-14.83065-13.052364-25.665392-2.836419-4.738836-1.294205-10.879794 3.444631-13.716214 4.738836-2.836419 10.879794-1.294205 13.716214 3.444631zm-383.04763-10.402035c4.281475 3.488669 4.924171 9.787616 1.435502 14.069091-7.544792 9.259357-12.548693 16.992863-15.012411 22.997759-2.559468 6.238271-5.461684 18.000399-8.527016 34.92898-.984043 5.434473-6.18728 9.04226-11.621753 8.058216-5.434474-.984044-9.04226-6.18728-8.058216-11.621753 3.298571-18.216672 6.473293-31.083211 9.703797-38.95702 3.326255-8.107184 9.330159-17.386188 18.011005-28.039771 3.48867-4.281476 9.787617-4.924172 14.069092-1.435502zm419.235086 1.435502c8.680847 10.653583 14.68475 19.932587 18.011005 28.039771 3.230504 7.873809 6.405226 20.740348 9.703797 38.95702.984044 5.434473-2.623742 10.637709-8.058216 11.621753-5.434473.984044-10.637709-2.623743-11.621753-8.058216-3.065332-16.928581-5.967548-28.690709-8.527016-34.92898-2.463718-6.004896-7.467619-13.738402-15.01241-22.997759-3.48867-4.281475-2.845974-10.580422 1.435502-14.069091 4.281475-3.48867 10.580422-2.845974 14.069091 1.435502zm-453.818711-81.694593.402334 1.217031c1.068369 3.170207 2.23601 6.131086 3.509919 8.85723l.489732 1.025403c.038052.077974.076233.15583.114543.233567l.497286.988427c.019537.038047.039105.076064.058705.114053.367066.711457.74506 1.412736 1.13377 2.104116.018597.033074.037328.066324.056084.09955l.577367 1.002332c.029071.049467.058198.098883.08738.148247.600481 1.015762 1.224675 2.009809 1.871597 2.982563.052047.078246.104452.156686.157006.234986.411558.613203.832082 1.21775 1.261448 1.81395.032797.045514.065431.090709.098115.135855l.638039.866642c.04777.063813.095643.127529.143619.191147l.630478.822873c.043015.055262.086108.110449.12928.165562l.58509.736408c.048362.060018.096818.119945.145368.179783l.655455.795587c.045318.054176.090714.108278.136187.162304l.680228.795913c.06132.070666.122775.141202.184366.211608l.572863.646783c.054034.060256.108167.120416.1624.180479l.654823.715326c.072776.07842.145723.156672.218842.234757l.702028.739133c.04481.046516.089682.092971.134615.139367.504663.521234 1.017528 1.035145 1.537962 1.541587.067838.065841.136121.132032.204533.198096l.754987.719c.027555.025879.055129.051739.082724.077579.558686.523372 1.125483 1.038255 1.700254 1.545141.037671.032967.075047.065863.112456.098725l.823174.713097c.035888.03066.071807.06129.107755.09189l.765134.643114c.057065.047363.114202.094653.17141.141871l.786454.640927c.072269.058157.144649.116201.217138.174133l.792359.625405c.370439.288778.74364.574722 1.119543.857871l.790922.588735c.092836.068291.185832.136416.278986.204377l.78932.569229c.072838.051926.14577.103754.218795.155484l.665042.466636c.15058.104655.301545.208904.452891.312751l.626867.426359c.087217.058802.174558.117472.262022.176013l.839322.555321c.450208.294458.90356.585554 1.359973.873346l.651974.407577c.495169.306899.993848.60999 1.495932.909343l.681765.402974c.109866.064379.21989.128583.330072.192612l.709612.408725c.138387.079005.277016.157741.415885.236209 22.704632 12.831627 51.823095 18.500116 78.06876 23.34844 23.715311 4.380896 59.644374 6.953884 107.787187 7.718962l.00152.240961c4.982765-.006322 9.856997-.028709 14.622343-.067162 4.765699.038453 9.639931.06084 14.622696.067162l.00152-.240961c48.142813-.765078 84.071876-3.338066 107.787188-7.718962 25.854219-4.776013 54.496183-10.347908 77.048814-22.778251l-.659122.360405c.31474-.170734.628322-.342778.940724-.516149l.821162-.460329c.047648-.026982.095268-.053995.142859-.08104.703739-.399915 1.40121-.806726 2.09219-1.220652.041672-.024964.082727-.049597.123758-.074255.646307-.388392 1.287379-.783332 1.922507-1.184687.084642-.053487.170004-.107612.255257-.161853.963502-.613034 1.912438-1.240441 2.846774-1.883258.088203-.060682.176878-.121919.265421-.183296l.856725-.601201c.037744-.026815.075463-.053655.113158-.080522.600047-.427686 1.193849-.862089 1.781081-1.303288.081741-.061413.163358-.122961.244847-.184641l.836187-.641074c.03002-.023312.060022-.046643.090005-.069992.56913-.443206 1.131608-.89297 1.687371-1.349555.105495-.086669.21064-.173495.315543-.260567l.765186-.643189c.060809-.051766.121534-.103617.182174-.155553 1.794327-1.536787 3.514424-3.148798 5.152542-4.840992.049505-.051139.099049-.10247.148518-.153874.800019-.831331 1.580088-1.681685 2.339556-2.55191.043953-.050364.087549-.100461.131076-.150625l.68079-.796605c.048955-.058166.097819-.116418.146593-.174757.743004-.88873 1.464786-1.797423 2.164644-2.726908.039887-.052974.07964-.105932.119322-.158958l.637192-.865752c.029063-.040155.058085-.080348.087068-.120579.43834-.608476.867303-1.225397 1.286828-1.851168.047184-.07038.094334-.141001.141365-.211734.410268-.617049.811276-1.242478 1.202921-1.876622.040564-.065681.080863-.131187.121062-.196786l.544044-.903834c.032502-.05498.064935-.110024.097298-.165133.605033-1.030231 1.186043-2.083267 1.741918-3.15938.028031-.054265.056018-.108627.083941-.163049l.515145-1.025554c.019614-.039894.039193-.07982.058739-.119776l.517553-1.082345c1.405853-3.008501 2.682285-6.302881 3.838698-9.848992-57.40855 18.883495-135.553298 28.245104-234.586023 28.245104-99.462618 0-179.145524-9.445058-239.168855-28.470373zm48.535669-286.0842032-.185018.0678284c-42.259469 15.6646214-50.10822 55.6023118-54.365317 109.6113778-3.700222 46.944086-6.625647 109.546309.663964 153.517309l-1.119255-.397886 1.119586.399878-1.119586-.399878c58.864738 21.114602 140.79413 31.755947 245.638812 31.755947 104.192103 0 184.256967-10.51151 240.006262-31.335266 7.294695-43.970982 4.368878-106.587465.667982-153.540104-4.137023-52.48571-11.665949-91.6826326-50.870897-108.2281873.069825 2.0573298-.234368 4.1129777-.916228 6.1094129-1.031371 3.0197732-2.848748 5.7158305-5.306977 8.1352536-3.938344 3.8761728-9.682865 7.1970843-17.339028 10.2763508-14.235237 5.725334-36.445177 9.668923-66.996779 12.063818-26.70183 2.093117-59.930389 3.0037-99.716787 2.738888-39.787422.264792-73.015545-.645794-99.717082-2.738888-30.551603-2.394895-52.761543-6.338484-66.996779-12.063818-7.656163-3.0792665-13.400684-6.400178-17.339029-10.2763508-2.458229-2.4194231-4.275605-5.1154804-5.306976-8.1352536-.842601-2.4670712-1.108484-5.024563-.800868-7.5604318zm53.357849-9.578347-1.12372.1150471c-5.174586.5301845-10.104153 1.0983786-14.788702 1.7045823-5.765481 2.43824-10.269682 4.7689391-13.469336 6.9362679-1.465615.9927538-2.587663 1.9051593-3.364398 2.6965964 1.866509 1.615093 5.327934 3.5434636 10.298083 5.5424303 7.214645 2.9016904 17.569197 5.3798793 30.982265 7.3828765-1.880776-1.5241748-3.562111-3.2707919-5.008698-5.3382614-2.647-3.783106-4.222048-8.2930231-4.222048-13.2165463 0-1.2359531.101624-2.4642741.303014-3.6743032.10423-.7224643.235676-1.4389426.39354-2.1486896zm274.646769.4813641c.093086.4564568.174806.9169215.245549 1.3809163.236247 1.3017113.354657 2.6265271.354657 3.9607124 0 .1393887 0 .278446-.016498.413624.002974.1315522.000614.2600773-.015178.3805202.000654.4976154-.032277.985863-.093285 1.4653474-.015461.3857109-.059148.7540865-.132716 1.1031447-.021894.2040697-.054702.4045816-.100931.6003253-.053351.4653768-.145872.9049672-.267117 1.3244181-.081518.3495032-.17333.6951235-.288491 1.0311991-.039375.20588-.100786.3959566-.166012.5832446-.720982 2.2674798-1.792031 4.3855977-3.14182 6.3147229-1.391393 1.9885865-2.999962 3.6803373-4.794157 5.1630554 12.851851-1.9719666 22.81748-4.3901783 29.822777-7.2076705 4.97015-1.9989667 8.431574-3.9273373 10.298084-5.5424303-.776735-.7914371-1.898783-1.7038426-3.364398-2.6965964-2.891503-1.9585979-6.848375-4.0506136-11.839303-6.2344086-5.176382-.7303453-10.676701-1.4103693-16.501161-2.0401246zm-137.750482-26.0502723h.378924c-2.2716 0-4.528204.0173433-6.768097.0515665l-.029975.000459c-1.431462.0219851-2.851146.0507397-4.263605.0862206l-.090132.0022735c-1.63192.0413334-3.254178.0916462-4.866089.1507537l-.056944.0020918-.094988.0035066c-4.055286.150155-8.044899.3559831-11.957932.6145384l-.082459.0054532-.098824.0065626-.030951.0020643c-.532041.0354392-1.062661.0718534-1.591832.1092355l-.022051.0015583c-.420291.0297142-.839668.0600388-1.258117.0909702-.314671.0232548-.628798.0468565-.942395.0707998-.295243.0225478-.590097.0453989-.884475.0685516l-.101766.0080173-.017955.0014174c-.049356.0038972-.098698.0078029-.148028.0117171-.725318.0575472-1.447093.116878-2.165899.1780176-4.189831.3563875-8.278602.7742015-12.252014 1.249553-.033198.0039521-.066288.0079157-.09937.0118833-.412712.0495166-.824566.0996829-1.235155.1504669l-.04388.0054303-.028915.0035816c-2.053406.2544356-4.075108.5243273-6.063063.8091239-.625791.0896214-1.247456.1806334-1.865721.2731014-.434972.0650877-.868225.1308597-1.299772.1973447l1.299772-.1973447c-.93092.1392287-1.854133.2817584-2.769561.4275918-.781626.1244479-1.55662.2511565-2.325715.3801882-3.041612.5103593-5.989812 1.0567773-8.837514 1.6372597-.07817.0158661-.156508.0318759-.23477.0479114-3.991727.8179643-7.784867 1.7029576-11.356305 2.6488114l-.041028.0107763c-.375442.099534-.748445.1997486-1.118991.3006405l-.535966.1469151c-13.576935 3.7440111-23.762339 8.3889004-29.213349 13.5719224-.076664.0728349-.153209.1466339-.228793.2205406-1.646991 1.6103946-2.837692 3.2716589-3.532428 4.9732796-.337583.8268462-.558062 1.6632212-.657173 2.5079151-.039594.1823729-.05954.3654651-.05954.5492335 0 9.4566917 52.817758 17.122855 117.971765 17.122855 65.154006 0 117.971764-7.6661633 117.971764-17.122855 0-.1837662-.019945-.3668563-.059537-.5492271l.029857.3028018c-.224919-2.7328536-1.723416-5.3808477-4.341493-7.9023837-.046408-.0446964-.093103-.0892912-.140147-.1338462-2.954536-2.7983216-7.290273-5.4397791-12.795113-7.866803-.115987-.0511364-.231965-.1019478-.348455-.1526642-3.402766-1.4815142-7.243915-2.8824404-11.47379-4.189211l-.169105-.0521293-.050218-.0154366-.162356-.0497713c-2.609134-.7981777-5.364007-1.5607732-8.253369-2.2847473-.12127-.0303859-.242635-.0606685-.364235-.090883-.380094-.0944441-.762801-.1882985-1.147789-.2814796-.066873-.0161861-.134875-.0326075-.202949-.0490079-4.205096-1.013083-8.679677-1.94588-13.391628-2.7896949-.336278-.0602196-.673034-.119858-1.010982-.179042-.150412-.0263415-.301532-.0526748-.452889-.0789173-.399024-.0691826-.799109-.1376353-1.200814-.2054529-.315632-.053287-.6328-.1062707-.950963-.1588585l-.034164-.0056448-.029426-.0048583c-.05349-.0088288-.107009-.0176463-.160556-.0264526-5.909788-.9719146-12.160072-1.8073657-18.691606-2.4902813-.134045-.014015-.267372-.0278792-.400815-.0416798-2.836455-.2933544-5.726745-.5580767-8.664843-.7927294l.113219.0090591c-.168375-.0134973-.336907-.0268957-.505828-.0402133-.03473-.0027382-.069327-.0054612-.103931-.00818-.393445-.0309131-.788491-.0613445-1.184378-.091232l-.157397-.0118507-.135343-.0101391c-1.626989-.1216007-3.268094-.2340219-4.922502-.3370441-.199243-.0124075-.399286-.0247155-.599522-.036886-1.1098-.067452-2.224594-.1306303-3.345054-.1895249-.047223-.0024822-.094648-.0049668-.142083-.0074437-.531325-.0277442-1.063744-.0545167-1.597407-.0803199l-.030058-.0014522-.016031-.0007737c-.520415-.0251048-1.042012-.0492877-1.564766-.0725424l-.019031-.0008461c-2.259115-.1003882-4.538831-.1834111-6.838216-.2485913-.44322-.0125634-.886721-.0244524-1.330936-.0356762-.444874-.0112406-.890741-.0218201-1.337312-.0317277l-.049103-.0010866-.315834-.0068569c-.096551-.0020611-.193135-.0040908-.289751-.0060891-2.350424-.0486126-4.719936-.0786185-7.106706-.0894774l-2.02641-.0046059z"/></svg>