<svg height="960" viewBox="0 0 960 960" width="960" xmlns="http://www.w3.org/2000/svg"><path d="m314.077249 4.08947415c2.65399-.16863685 5.264084-.08216133 7.805027.25788176l.059724.00764409 361.78522 6.432608c27.01583.4802901 48.708922 22.3206031 49.105705 49.2397377l.005489.8172692-1.089824 839.5328431c-.03542 27.285248-21.939098 49.503976-49.221058 49.929026l-364.443888 5.685274c-1.424291.01491-2.84892-.013628-4.27118-.09284l-39.443238-2.196772c-26.492954-1.475512-47.219583-23.388622-47.219583-49.922633v-847.2427915c0-26.3831764 20.499273-48.22633213 46.82935-49.89936856zm2.670394 485.94433885.00051 415.809605.003842.279905c.148226 5.393424 4.566918 9.720095 9.996158 9.720095l355.156259-5.53208.2765-.008063c5.327135-.227874 9.560748-4.613185 9.567711-9.977742l.53002-409.32372-69.203713.001099c-.645543 12.993639-12.131344 22.895663-25.753748 23.126623l-.425631.004061-163.541451.348641c-14.256588.030252-26.250564-10.650713-26.250564-24.452691l.003107.409267zm-18.53942-444.8556075-21.69271 1.3786422c-5.266016.3346073-9.36587 4.7032385-9.36587 9.9798738v847.2427915c0 5.306802 4.145326 9.689424 9.443916 9.984527l21.566728 1.201765c-.917146-2.876644-1.412134-5.941715-1.412134-9.122397l-.00051-416.341595-12.376632-.510378c-5.518144-.22788-9.806751-4.885952-9.578871-10.404097.224017-5.424616 4.729324-9.661021 10.124271-9.586582l.279825.007711 11.551407.476346.00051-415.2579182.00474-.3110534c.054183-3.0477802.561039-5.9813112 1.45533-8.7376359zm135.103347 418.1106595c-3.669816-.007784-6.208034 2.252569-6.208034 4.452691v22.28799c0 2.200122 2.538218 4.460475 6.207985 4.452692l163.541404-.348597c3.716233-.00792 6.250611-2.238781 6.250611-4.285707v-21.924765c0-2.046926-2.534378-4.277788-6.250614-4.285707zm-106.472927-418.8400522-.192666.000733c-5.395207.0523334-9.799738 4.3934193-9.897824 9.8218014l-.00051 415.7624658 90.355.405.000893-2.697257c0-13.663958 11.755296-24.269011 25.823603-24.450392l.42701-.002298 163.541399.348641c14.210156.030284 26.207988 10.59126 26.207988 24.285662l-.000893 3.078644h69.202l.533804-410.2091233-.003381-.2766754c-.138034-5.3317168-4.453618-9.6393423-9.818857-9.734726z"/></svg>