<svg height="960" viewBox="0 0 960 960" width="960" xmlns="http://www.w3.org/2000/svg"><path d="m622.377546 5.99689703 1.928296.01101667c1.286042.00531544 2.573331.0125535 3.863229.0217123l1.240695.00948562 1.330379-.00926837c46.869334-.31488924 85.959805 1.84419219 118.968059 7.49841315l1.148987.1986596c20.741943 3.6196858 38.845968 8.627894 54.368146 15.4195288 19.213641 8.4068124 34.69352 19.6213681 45.590066 34.5791245 22.990523 31.5592323 33.643836 58.6420097 38.903414 101.8184087 4.423526 36.313159 5.260306 76.072916 5.280659 197.893656v21.641473c-.034599 100.388812-1.78241 166.849959-5.352648 211.210039-3.222867 40.044008-7.878835 63.648635-16.084901 85.623825-8.929253 23.911828-23.546992 46.357175-44.682077 65.301368-16.652446 14.926231-36.624934 26.982962-59.92024 35.78047l-.73961.276191.090001.272858c3.13091 9.675095 4.61119 20.762907 4.686931 33.408768l.003068 1.028757v30.008914c0 14.332819-3.383609 28.518497-11.602658 41.33606-10.508207 16.387492-27.286148 27.509366-48.381875 31.870682-10.765532 2.22566-64.307627 10.052702-119.322041 17.799777l-3.369718.474162-6.360546.89308c-47.689718 6.686695-94.658026 13.062123-114.043664 15.431547-19.697376 2.407526-35.595983 1.508043-50.185998-4.726004-19.292298-8.243248-31.650121-24.344965-36.40728-44.851543-.645223-2.781349-1.231864-5.413719-1.760516-7.905418l-.142704-.67364-81.429-47.098-17.639-9.223-.925063-.093008c-30.574553-3.141237-55.918409-8.739688-74.508916-18.089006l-.677125-.343724c-22.55601-11.557375-39.848839-30.091305-52.643762-53.074709-9.198402-16.523005-15.616842-34.638095-19.217002-51.517669-7.850588-36.807961-11.383132-131.184324-11.383132-288.950785v-187.870368c0-45.091717 10.12478-90.350268 31.732869-127.642831 27.759222-47.9085668 72.463491-79.4434993 132.332049-88.0727898 52.521767-7.5703441 88.656021-11.1491517 128.319646-13.0911614 11.267277-.5516683 22.293142-.9668324 39.235416-1.5137506 1.871651-.0604193 3.795707-.1219437 6.311602-.2019465l.539418-.0172517c.27524-.0086266 1.851845-.0586879 3.486572-.1106211l.668808-.0212487c1.183423-.0376015 2.306933-.073316 2.887033-.0917991 5.814571-.185264 10.238467-.3289287 14.707869-.4789317 11.615322-.38983599 22.064763-.77566925 32.830233-1.22220874.846439-.03510932 5.03035-.21033786 9.373338-.39183118l.815399-.03407073.814471-.03402149c3.249821-.13572602 6.365641-.26556434 8.006575-.33304511 31.114878-1.27954971 54.325694-1.97750172 76.582715-2.1034961l2.051988-.01000604 1.932507-.01082298zm88.456415 771.30162797-2.04157.361612c-3.664988.645825-7.510339 1.307963-11.524271 1.985026 5.811608 3.426106 10.273303 7.130055 13.409206 11.185333 7.759394 10.034269 11.118483 26.438342 10.977765 49.612596.087093 10.223214-1.88859 17.762586-6.976901 22.987585-3.458351 3.551252-8.015474 5.904647-13.831758 7.688191-3.979875 1.220415-8.050938 2.07064-14.639306 3.200366l-1.115447.190249-1.192674.201197-.596981.099899-1.185348.197442-1.773554.29519c-.894032.149253-1.629685.273249-2.329728.393028-12.48349 2.135958-50.187739 8.111826-88.721709 14.040246l-3.920619.602575c-1.274513.195685-2.54903.391175-3.822669.586328l-2.545847.389818c-23.321425 3.568453-46.150618 6.992483-63.061298 9.407269-10.664335 1.522829-18.532799 2.646661-24.376098 3.481877l-.735012.105063c-4.224083.603827-7.3433 1.050206-9.675923 1.384721l-.496577.071228c-2.583148.370601-4.132551.594223-5.149689.742687-11.021027 1.608659-17.597627 1.757128-23.945428-.509951-7.009526-2.50341-11.666836-8.051189-13.321018-15.822135-.458223-2.152624-.80235-4.281155-1.088895-6.58087-.108367-.869718-.204721-1.729788-.3104-2.745656-.042136-.405039-.196728-1.931718-.233589-2.283952-.159096-1.520274-.274412-2.331303-.365926-2.701136-.481508-1.9459-.358101-3.888189.243153-5.638773-1.319005-14.374243-4.204778-24.22664-8.189929-29.380145-4.725431-6.110819-15.235431-12.85968-31.419169-19.677203-18.314727 2.011975-36.958708 3.074669-55.427999 2.786312l-1.354489.018266c-1.998138.023013-4.031221.032466-6.093152.028327l77.807406 45.004438c3.675678 2.127033 6.187193 5.807506 6.82776 10.005667l.07611.48982c.723357 4.617765 1.91639 10.510349 3.579099 17.677754 3.997935 17.233806 16.833567 22.08299 42.775096 18.912267 25.94153-3.170723 216.472484-29.23251 239.850565-34.06568 23.378081-4.833169 28.082852-21.930186 28.082852-34.035104v-30.008914c0-22.608917-4.951503-31.189685-15.347231-37.134166-1.665882-.952584-3.938835-2.135476-6.818808-3.548692zm-9.801037 70.3277-243.93 34.363.007964.056934c.092065.72693.176817 1.299675.273614 1.857071l.075159.417339c.095361.511866.204911 1.040001.343561 1.691344.095976.450874.204101.785343.310516 1.017533.00955.020836.018141.039024.025783.0548l.019403.039979c.019985.002269.040628.008195.072878.019021l.057469.020022c2.219995.792858 6.509298.696026 14.330037-.445511 1.027834-.150025 2.580335-.374111 5.165001-.744944l.496845-.071268c.72135-.103451 1.517764-.217575 2.398753-.343737l.909534-.130224c.625619-.089559 1.290238-.184668 1.996672-.285733l.76374-.109253c.777253-.111176 1.602211-.229147 2.478189-.354387l.76341-.10914c.264436-.037803.533304-.076237.806687-.115315l.83378-.119176c.141249-.020188.283647-.04054.427205-.061058l1.323615-.18916c5.572565-.796336 12.775347-1.825053 22.131263-3.161045 17.765306-2.536824 42.112101-6.195598 66.676833-9.962111l2.541696-.389982 3.909731-.600898c1.921344-.295595 3.840612-.591306 5.754755-.886648l2.294317-.354201c35.517723-5.486397 68.840452-10.777605 80.349025-12.746752.730177-.124936 1.49097-.253168 2.414291-.40731l1.777155-.295791 1.176683-.195996.576515-.096467 1.161715-.195967 1.088896-.185732c10.720676-1.838312 15.83877-3.407758 17.514265-5.128262.137903-.141607.396769-.683082.653449-1.723013zm-42.112567-61.831302c-49.557605 7.624482-113.009223 16.377492-178.032632 24.808744l-4.108716.532059c-2.055288.265802-4.111885.531253-6.169403.796306l-4.900397.630308c-3.267833.419674-6.53721.838257-9.806578 1.255565l-4.903853.624984c-.817243.103997-1.634437.207909-2.451558.311733l-4.901652.62186c-2.450192.310378-4.899289.619911-7.346635.928522l-4.892165.615969c5.335792 3.746231 9.569316 7.627771 12.71055 11.689942 5.887468 7.61354 9.637499 18.69886 11.576328 33.380417l245.570729-34.595598c-.868799-11.927835-3.133024-20.095021-6.408446-24.330721-4.278802-5.533249-16.375641-11.631847-35.935572-17.27009zm-19.590943-739.7944351c-.644419-.000639-1.288474-.0001127-1.932355.0009243l-1.04337.0028513c-2.314744.0057647-4.626993.0180505-6.93519.0363141l-.059438-.0004464c-.11362.0009009-.227229.0018164-.340829.0027462-3.113643-.0272196-6.228004-.0410231-9.33936-.0427025-4.731905-.0000731-9.455575.0278952-14.15855.0791748-24.383394.570266-47.673494 1.6172098-67.923645 2.4611836-91.2316 3.8022966-118.254796 3.8022966-220.526774 18.61406-102.271979 14.8117635-120.16605 114.9735557-120.16605 181.8466677v179.836117c0 154.211974 3.483735 247.729848 10.451205 280.553621 4.503598 21.216464 18.511241 60.735701 50.72855 77.322402 42.547295 21.904973 108.449106 17.48992 143.134063 13.206393 60.948811-7.527064 244.904352-31.023414 319.420946-45.361692 74.516593-14.338279 103.981075-56.886676 115.269298-87.09545 11.288222-30.208774 18.919651-74.045965 18.919651-285.838756v-12.494328c-.012057-165.529332-.501643-216.584259-20.783453-256.967586-4.262472-8.429744-9.391322-16.406899-15.563264-24.8792277-19.656813-26.9832343-73.025218-37.1465732-132.341007-40.1862278-2.315174-.1186417-4.639408-.2264309-6.971052-.3239441-2.305084-.0964025-4.617411-.1827617-6.935384-.2596349l-1.278406-.0420505-1.204477-.036626 1.117589.0342529-1.032701-.0319106-.574411-.0167163-.42-.013-.301705-.0083824-1.212098-.0340902 1.474841.041505c-1.640754-.0477357-3.28393-.0908767-4.928967-.1296194-1.190938-.0280292-2.382669-.0538027-3.575162-.077346l-1.435909-.028067-.549-.009-.305398-.0052964c-.277021-.0048017-.554077-.0094858-.831163-.0140532l.647905.0107727-.733344-.0124231-1.125-.018-.807679-.0115585.169737.0022748-2.252462-.0304889-2.253251-.0255577c-.815559-.0083704-1.63121-.0157938-2.446887-.0222939l.686868.0060629c-3.245042-.0278382-6.490768-.0409575-9.732912-.0408478zm-414.579192 47.534699-.572221.4549155c-36.184355 29.3784826-53.221849 75.3677126-59.361475 117.1661226-1.259192 10.431001-1.816526 20.61108-1.816526 30.222506v187.870368c0 154.241343 3.501077 247.777028 10.503231 280.607053 4.526016 21.220504 18.603388 60.747267 50.981072 77.337128.578932.296636 1.172024.588485 1.778727.87561-8.281499-8.063377-15.399986-17.703118-21.430649-28.587794-8.120828-14.657193-13.850992-30.907141-17.041418-45.937245-7.387802-34.803959-10.88711-128.739871-10.88711-284.706473v-179.836117c0-44.109186 7.05877-85.108952 23.768107-119.240274 6.63599-13.555002 14.656219-25.680167 24.078262-36.2258001zm78.423827 590.6625211c4.118347 1.498956 7.902771 3.674434 11.253499 6.439641l.038452.031548 17.718947 11.849974c.799099.493386 1.576477 1.014627 2.331506 1.562069l1.04285.697848c.721859.482783 1.362453 1.045214 1.916778 1.66859l.051772.058599c1.311915 1.16993 2.540338 2.425825 3.680998 3.7564.066896.078831.133656.157209.200104.235833l.131868.15648c3.388984 4.052197 5.953531 8.746517 7.610613 13.775628.162408.490757.316007.985215.46092 1.482771 2.308984 7.927838 2.412739 16.642154-.116813 25.012516l-.189795.611835-.025748.078457-.00431.014795-.01669.050205-.034611.109533c-.027389.084292-.055049.168544-.082979.252756-.03938.118297-.078952.236016-.119052.353632l-.077482.225381c-.011622.033343-.023099.066283-.034618.099214l-.183809.515076c-6.119908 16.814309-22.244705 27.600567-39.043879 27.892835l-.646435.006057c-4.527097.006047-9.094406-.752716-13.51984-2.363442l-.043295-.016042-.575-.216-.326967-.125796c-.158398-.062137-.316083-.125294-.473137-.189373-.041608-.017261-.083434-.034425-.125225-.05166l-.128081-.052717-17.807998-5.233497-.313371-.069891c-1.22018-.286411-2.427843-.63351-3.620014-1.040986l-.713419-.251729-.034196-.012394-1.184441-.34926c-1.091228-.321838-2.082002-.810512-2.955161-1.428595l-.072398-.053145-.515575-.265973c-18.556338-9.773871-26.496395-33.395687-18.91047-55.177856l.244723-.687229c8.681659-23.852664 33.191532-37.366802 55.211779-29.352088zm-12.424495 48.310786c-4.066572 11.172815.935734 23.107793 10.891411 27.19265.236089.096969.47465.189195.715733.276942 2.141765.779539 4.376234 1.149643 6.612353 1.151029l.335418-.002553c8.720618-.137998 17.397077-5.853239 20.628127-14.730476.076258-.209515.149361-.419502.219339-.629898 1.726105-5.199159 1.550622-10.765856-.179377-15.614032-2.017246-5.612263-6.104666-10.207275-11.529761-12.181849-10.301316-3.749372-23.48371 2.972592-27.693243 14.538187zm-23.993432-12.118295c-3.514251 9.655325-1.965654 19.528333 2.996771 26.016567-.955221-6.74184-.303341-13.853085 2.202809-20.738675 3.778185-10.380478 11.362201-18.650241 20.546621-23.607533-10.143786-1.317183-21.229516 5.92015-25.746201 18.329641zm368.403183-606.095848c149.520186 51.483929 223.249134 229.494492 165.478469 397.272686-57.770665 167.778193-225.464115 262.660358-374.984301 211.17643-149.520185-51.483929-223.249133-229.494493-165.478468-397.272686 57.770664-167.778193 225.464114-262.6603587 374.9843-211.17643zm161.04787 513.483272c20.094323 6.91903 29.318717 30.755215 21.721289 52.819748s-29.541371 35.168599-49.635693 28.249569-29.318716-30.755216-21.721288-52.819748c7.597427-22.064533 29.54137-35.168599 49.635692-28.249569zm-516.729381-295.588726c-52.026043 151.094601 13.924413 310.324837 146.504211 355.975723 132.579799 45.650885 282.581389-39.221098 334.607433-190.315699 52.026043-151.094601-13.924413-310.324837-146.504211-355.975723-132.579799-45.6508856-282.581389 39.221098-334.607433 190.315699zm486.00406 330.349658c-4.223145 12.264905.45114 24.343434 9.32228 27.398013 8.871141 3.054579 19.990813-3.585656 24.213958-15.85056 4.223146-12.264905-.451139-24.343435-9.32228-27.398013-8.87114-3.054579-19.990813 3.585655-24.213958 15.85056zm4.593628-401.228011 1.045161 2.276659c31.918291 70.610886 37.216611 157.023061 8.379166 240.773081-28.600777 83.062687-85.273387 147.516356-153.150276 183.68109 68.651145-34.710382 126.484094-99.072084 155.37787-182.9857 29.434679-85.484516 22.710902-173.469711-11.651921-243.74513zm-471.07395-149.392508c22.253026 7.662331 33.532325 32.715912 25.590206 55.781499-7.942118 23.065587-32.254852 35.863849-54.507877 28.201518-22.253026-7.662331-33.532325-32.715913-25.590206-55.7815s32.254852-35.863849 54.507877-28.201517zm-35.597505 34.71288c-4.432545 12.873043 1.651183 26.38622 13.191197 30.359765 11.540014 3.973546 24.653598-2.929466 29.086143-15.802509 4.432544-12.873043-1.651183-26.386219-13.191198-30.359765-11.540014-3.973545-24.653598 2.929467-29.086142 15.802509zm536.663671-55.0417439c20.542763 7.0734406 30.311357 31.0274679 22.692522 53.1541699-7.618835 22.126703-30.064163 34.988587-50.606926 27.915147-20.542763-7.073441-30.311357-31.027468-22.692522-53.154171 7.618834-22.1267023 30.064163-34.9885864 50.606926-27.9151459zm-31.696555 34.4265089c-4.201738 12.202735.798019 24.462875 10.293514 27.732436 9.495494 3.269561 20.983453-3.313403 25.185191-15.516138 4.201739-12.202734-.798018-24.462874-10.293513-27.732435s-20.983453 3.313403-25.185192 15.516137z"/></svg>