<svg height="960" viewBox="0 0 960 960" width="960" xmlns="http://www.w3.org/2000/svg"><path d="m476.96433 14.000296h4.16104 2.267332c23.18515.109977 38.910989 1.416694 56.75791 6.09038l.865256.2287829c10.34812 2.7622543 23.03004 6.6253171 38.142714 11.6063338l1.512418.5012073 33.023449.5807784c64.846948 1.1717379 108.04143 2.1502752 118.113995 2.7841036l.953554.0667122 1.619364.1311338c13.83989 1.1464966 22.690815 2.5763592 32.059012 6.106107 8.775682 3.3065 16.574149 8.2102843 22.984769 15.6154196 7.915437 9.1434034 12.115213 20.564819 12.25768 32.6333394l.026634 5.0661254c.065683 8.2868346.319591 34.9923956 1.300295 136.2812516l4.995459 517.354227c.671645 71.071079.994789 107.483682.994789 112.404805 0 20.908028-7.907869 39.460113-22.015724 52.811833-11.966455 11.325093-27.439975 17.96231-43.147467 19.398941l-2.464782.219835c-8.652356.753113-19.674344 1.527095-33.118332 2.329601l-125.77196 7.511946-9.017695.459053c-24.094234 1.191478-41.889572 1.798835-53.703014 1.817391h-1.326426c-.620178 0-1.224971 0-1.814626-.010737l-3.868123-.038135c-62.371053-.687494-116.632402-4.81174-137.394107-11.46432l-85.075667-27.952121-29.321141-9.681161c-4.56251-1.511713-8.885933-2.947316-12.974613-4.308418l-14.727681-4.92171c-14.497241-4.867364-24.198277-8.207817-29.090215-10.04181l-.219049-.082326c-35.491595-13.373064-52.949378-38.029392-52.949378-76.506291v-2.032419l4.683055-637.210111c.237276-33.421352.360569-51.732679.369376-54.859721l.000508-.293423c0-4.836314.22139-8.9449205.842051-13.0792215 1.014108-6.7551072 3.027732-13.1060553 6.779419-19.3057433 4.668229-7.7142786 11.276943-13.6875184 19.114869-17.628709 5.357774-2.6940813 10.491212-4.1456611 16.135288-5.0733018l1.828189-.2893239c14.960975-2.3196365 92.136748-13.5968339 114.582079-16.718999l1.631048-.2218269c20.825839-2.7690022 47.956889-3.9923772 81.499124-4.2340445l3.098994-.0187301.06485-.0442111c3.851511-2.576446 8.000226-4.6697727 12.419201-6.3871325l.738994-.2827638c13.992669-5.2710633 42.594859-9.3125966 62.177285-9.3125966zm4.975912 39.9999995h-4.982207c-15.316567 0-39.280846 3.4338067-48.07022 6.7447796-5.859583 2.2073152-9.155521 5.2462117-9.887815 9.1166894l1.281733.1903871-6.71758-.0476264c-.3791-.0015687-.73589-.0027339-1.069902-.0034888l-2.173794-.0005837c-8.146501.0056261-16.764613.0644374-25.484643.2179119-2.690032 2.4344829-4.379313 5.9533271-4.379313 9.8667243v501.6570331c0 1.21162-.110102 2.420734-.328946 3.612426-1.995088 10.864024-12.419457 18.053716-23.28348 16.058628l-164.155458-30.162144-1.688617 228.005865v1.735677c0 21.86266 7.254766 31.477809 26.467347 38.852464l1.224351.46128c5.457331 2.022385 17.644462 6.171929 33.133278 11.351751l9.353404 3.120031c11.493477 3.82519 24.245155 8.040486 37.125353 12.284428l88.211291 28.983196.886255.29542c14.876059 4.969941 68.102476 9.041773 127.756998 9.632406l1.809648.016829c.337619.008887.682595.008887 1.034928.008887h2.64501c12.345283-.053594 32.161608-.787852 59.448976-2.204947l128.58659-7.681755c13.065311-.796681 23.568686-1.558189 31.510125-2.284525 13.04665-1.193267 28.806446-10.99387 28.806446-32.377036l-.008659-2.130748c-.280953-48.460507-7.304768-756.94551-7.304768-768.339887 0-11.6269155-14.237632-13.8330259-32.083319-15.2466897l-.600699-.0426338c-9.763285-.630267-65.04139-1.7815469-126.983027-2.8848052l-28.17243-.4909635-4.024752-1.3452761c-15.863769-5.2749608-28.904632-9.2761964-39.122592-12.0037067-17.069343-4.5563705-34.343049-4.9348635-48.759512-4.9659975zm-120.194117 16.8751772-2.820728.1204627c-13.490988.6026801-26.323181 1.5429362-37.0483 2.9832591l-1.031289.1409526c-7.763945 1.0799717-21.320945 3.0263707-36.492587 5.2257869l-51.919084 7.588967c-13.737934 2.0255104-24.190963 3.5854921-26.890716 4.0239675l-.13163.0214995c-7.384996 1.2137722-9.271146 3.9281117-9.355817 14.815185l-.023606 5.002016c-.039429 6.637948-.135538 20.786275-.288326 42.444983l-2.905276 397.721091.247017.042233 167.370718 30.736246v-501.6570331c0-3.194897.449835-6.2847294 1.289624-9.2096162zm378.36903 32.8453403v400.818377c0 43.515969-30.209289 63.204994-67.474336 63.64719l-139.165819 1.651372c-37.265047.442195-67.476097-29.699664-67.476097-65.298562v-398.603904z" fill-rule="evenodd"/></svg>