<svg height="960" viewBox="0 0 960 960" width="960" xmlns="http://www.w3.org/2000/svg"><path d="m707.051778 118.602247c137.893606 0 249.683718 111.753865 249.683718 249.615731 0 125.247808-92.311198 229.063774-212.863181 246.625292-.412523 3.346107-.829564 6.91019-1.255606 10.690651-.426562 3.785078-.85503 7.711348-1.394141 12.746448-.066755.623473-.328697 3.080827-.611269 5.729768l-.065496.613948c-.021901.205284-.043845.410955-.065751.616264l-.075562.708094c-.225512 2.113063-.437166 4.094141-.545984 5.106105-1.86451 17.339244-3.165374 28.015323-4.770341 38.112644-5.150557 32.403657-14.515828 56.164775-32.342145 74.887489-19.0051 19.96077-44.807162 30.812981-79.336714 35.430835-42.922726 5.740325-151.433535 5.945299-232.05266 2.19437-35.376027 25.057669-77.698147 38.796518-122.034438 38.796518-118.060762 0-213.5517776-96.763262-213.5517776-215.864044 0-33.264745 7.4851317-65.451077 21.615871-94.491757-45.3535996-44.231298-71.37132947-101.07597-71.37132947-161.902625 0-139.96214 135.71709207-249.615731 299.43917607-249.615731zm-589.128979 419.971324-.126509.229228c-14.028415 25.381949-22.0258596 54.64936-22.0258596 85.809561 0 97.12703 77.7017776 175.864044 173.5517776 175.864044 30.176095 0 58.553418-7.804063 83.270899-21.530448-19.881684-3.476033-36.156742-15.474534-48.6858-33.878145-.75581-1.11019-1.497321-2.241912-2.224838-3.394968-1.099441-.026165-2.213515-.235499-3.300752-.646726-47.695509-18.03995-79.930064-64.173676-79.930064-116.413757 0-12.586733 1.857542-24.925019 5.460936-36.705116-39.774473-9.930477-75.855712-26.955801-105.98979-49.333673zm167.598487 58.684975.046881.187626c1.34742 5.983324 2.369308 12.520163 3.147533 19.598921 4.176938 37.993554 14.756081 138.423324 72.087135 142.793403 6.148537.468674 13.331866.917844 21.322288 1.337614.222585.011693.445351.02334.668736.034964l-.668736-.034964c.580166.030478 1.164588.060802 1.753177.090966l-1.084441-.056002c1.001773.05213 2.015993.103798 3.042218.154985 1.751488.087364 3.537943.173328 5.357175.257797.677327.031447 1.355923.06254 2.038907.093422.304243.013758.61269.027622.922017.041444l-.922017-.041444c.459681.020785.92135.041475 1.384973.062069l-.462956-.020625c.879309.03929 1.765726.078233 2.659019.116817l-2.196063-.096192c.811305.036037 1.628593.071778 2.451682.107215l-.255619-.011023c.660792.028542 1.325346.056888 1.993567.085034l-1.737948-.074011c1.014708.043687 2.038231.086913 3.070229.129661l-1.332281-.05565c.55454.023358 1.111604.046578 1.67114.069657l-.338859-.014007c.76659.031755 1.537856.063246 2.313658.094469l-1.974799-.080462c2.140239.088281 4.316636.174512 6.52616.258561.051564.001961.104131.003959.156717.005955l-.156717-.005955c2.627697.099956 5.302246.196827 8.018551.29039.064068.002207.129917.004473.19579.006736l-.19579-.006736c.831519.028642 1.666951.056974 2.50615.08499l-2.31036-.078254c.9629.033087 1.931024.065758 2.904146.098003l-.593786-.019749c1.639088.054719 3.292546.108231 4.959282.16049 1.290059.040448 2.587361.080124 3.892104.119027 4.475444.133443 9.03839.257799 13.668542.372184.511852.012645 1.024088.025157 1.537117.037547l-1.537117-.037547c.914943.022603 1.83251.044817 2.752545.066634l-1.215428-.029087c.736078.017776 1.473788.0353 2.213047.052567l-.997619-.02348c1.080631.025626 2.164666.050706 3.251849.075227l-2.25423-.051747c2.010574.046961 4.032616.092026 6.064495.135124.49951.010595.999798.021075 1.500657.031434l-1.500657-.031434c.914829.019404 1.831651.038409 2.750319.057009l-1.249662-.025575c1.082322.022387 2.16731.044214 3.254718.065469l-2.005056-.039894c.83047.016815 1.662449.033298 2.495827.049445l-.490771-.009551c1.097265.021448 2.196994.042315 3.298936.062589l-2.808165-.053038c.964665.018691 1.931204.036932 2.899445.054716l-.09128-.001678c3.478866.064005 6.979792.122106 10.494868.173957 1.869513.027578 3.742542.053381 5.618383.077366.619945.007927 1.240521.015659 1.861361.023191l-1.861361-.023191c.724938.009269 1.450297.018267 2.176007.02699l-.314646-.003799c.953248.011564 1.90712.022655 2.86146.033266l-2.546814-.029467c1.140851.013713 2.28257.026748 3.424891.039093l-.878077-.009626c.826574.00919 1.6535.018021 2.480675.026487l-1.602598-.016861c.935182.010106 1.870767.019749 2.80661.028924l-1.204012-.012063c3.634734.037201 7.274294.067367 10.910102.090124 1.370715.00858 2.740818.016106 4.109928.022559 1.239117.005841 2.477355.010803 3.714441.014871.297558.000978.595693.001907.893756.002784l-.893756-.002784c1.973415.006489 3.943895.010705 5.910056.012588 1.428288.001367 2.85397.001503 4.276845.000385.403554-.000317.806263-.000735 1.208734-.001253l-1.208734.001253c.908567-.000714 1.81599-.001939 2.72213-.003682l-1.513396.002429c1.294608-.001668 2.586761-.004381 3.876061-.008157l-2.362665.005728c.82858-.001593 1.656087-.003619 2.482416-.006082l-.119751.000354c1.015005-.002974 2.028241-.006606 3.039513-.010905l-2.919762.010551c.996939-.002972 1.992164-.00658 2.985489-.010832l-.065727.000281c.384085-.001633.767886-.003363 1.151394-.005189l-1.085667.004908c2.456932-.010517 4.902242-.024976 7.333129-.043498 1.450928-.011055 2.896818-.023559 4.336974-.037537.148062-.001437.295216-.002881.44231-.004341l-.44231.004341c1.800221-.017472 3.59148-.037247 5.372614-.059376.582406-.007236 1.163487-.01472 1.743445-.022457l-1.743445.022457c.769353-.009558 1.536816-.019556 2.302296-.029996l-.558851.007539c.864636-.011535 1.726778-.023633 2.586291-.0363l-2.02744.028761c.992112-.013532 1.980892-.027808 2.966137-.042837l-.938697.014076c.787809-.01161 1.57341-.023697 2.356699-.036267l-1.418002.022191c1.014614-.015477 2.02548-.031753 3.032373-.048838l-1.614371.026647c.935951-.01502 1.868601-.030728 2.797772-.047132l-1.183401.020485c.929473-.015771 1.855562-.032231 2.778091-.049388l-1.59469.028903c.905721-.01599 1.808136-.032642 2.707082-.049962l-1.112392.021059c1.65289-.030739 3.294352-.063715 4.923376-.09897.907522-.01964 1.812375-.040016 2.713183-.061109.515305-.012066 1.028536-.024349 1.540415-.036867l-1.540415.036867c.540795-.012663 1.080133-.025584 1.617975-.038766l-.07756.001899c.839578-.020532 1.675518-.041697 2.507675-.063502l-2.430115.061603c1.109914-.027202 2.213457-.055511 3.310298-.084943l-.880183.02334c.931283-.024402 1.857829-.049605 2.779434-.075618l-1.899251.052278c.739139-.019834 1.475234-.040177 2.208183-.061034l-.308932.008756c.842723-.023787 1.681316-.04825 2.515625-.073398l-2.206693.064642c1.053476-.029978 2.100452-.061018 3.140627-.093133l-.933934.028491c.727441-.021926 1.451624-.044372 2.172448-.067342l-1.238514.038851c.8919-.027537 1.7788-.055865 2.660508-.084991l-1.421994.04614c.748463-.023851 1.493304-.048267 2.234408-.073254l-.812414.027114c.880938-.029101 1.756693-.058999 2.627076-.089703l-1.814662.062589c.869569-.029317 1.733994-.05942 2.59309-.090316l-.778428.027727c.718717-.025354 1.433772-.051257 2.145055-.077714l-1.366627.049987c.91578-.032934 1.825503-.06677 2.728947-.101516l-1.36232.051529c.853116-.031732 1.700808-.064261 2.54289-.097596l-1.18057.046067c1.960015-.075383 3.890473-.155052 5.789085-.239109.418548-.01853.836199-.037303 1.252272-.056291l-1.252272.056291c.799166-.035382 1.59269-.07154 2.380401-.108484l-1.128129.052193c.642461-.029319 1.281162-.059151 1.916012-.089499l-.787883.037306c.836493-.039231 1.66643-.079347 2.489608-.120356l-1.701725.08305c.73482-.035127 1.46448-.070945 2.188841-.107462l-.487116.024412c.692201-.034485 1.379622-.069602 2.062141-.105355l-1.575025.080943c.874881-.044105 1.742031-.089228 2.601202-.13538l-1.026177.054437c.781244-.040926 1.556065-.082686 2.324283-.12529l-1.298106.070853c.768262-.041268 1.530144-.08336 2.285469-.126281l-.987363.055428c.670216-.037168 1.335404-.074978 1.995446-.113434l-1.008083.058006c.789825-.044882 1.57248-.090673 2.347764-.137379l-1.339681.079373c.653294-.038064 1.301545-.076761 1.944637-.116097l-.604956.036724c.731254-.044055 1.45595-.088925 2.173918-.134618l-1.568962.097894c.646596-.03955 1.287975-.079746 1.924019-.120593l-.355057.022699c.672172-.042778 1.338446-.086278 1.998684-.130506l-1.643627.107807c1.771375-.113758 3.501365-.232564 5.187395-.356531.295109-.021698.589576-.043607.882676-.065675.502925-.037868 1.000684-.076116 1.494367-.114835l-1.494367.114835c.628736-.04734 1.25118-.095413 1.867197-.144226l-.37283.029391c.670629-.052596 1.333736-.10606 1.989145-.160399l-1.616315.131008c.81858-.064864 1.625809-.131034 2.421365-.198525l-.80505.067517c.587885-.048741 1.169576-.098187 1.744948-.148343l-.939898.080826c.623338-.05288 1.23951-.106571 1.84836-.16108l-.908462.080254c.643734-.056115 1.279556-.113118 1.907292-.171018l-.99883.090764c.708949-.06347 1.407971-.128047 2.096822-.193744l-1.097992.10298c.536518-.049486 1.067129-.099628 1.591722-.150428l-.49373.047448c.594565-.056705 1.181552-.114242 1.760804-.172621l-1.267074.125173c.622642-.060296 1.236805-.121521 1.842305-.183684l-.575231.058511c.509094-.051307 1.012214-.103264 1.509251-.155874l-.93402.097363c.657438-.067494 1.304663-.136093 1.941439-.205808l-1.007419.108445c.560179-.059294 1.112633-.119417 1.657209-.180378l-.64979.071933c.589959-.064589 1.17095-.130135 1.742783-.196646l-1.092993.124713c.557058-.062359 1.105873-.125593 1.646281-.189709l-.553288.064996c.581109-.067591 1.152761-.136178 1.714759-.205772l-1.161471.140776c.543222-.064451 1.07795-.129794 1.604016-.196036l-.442545.05526c.674896-.083573 1.335871-.168597 1.982581-.255085 52.673798-7.044398 69.953066-29.615037 77.477026-76.950471 3.752294-23.606779 6.102802-55.850567 10.161998-85.054373l-400.291938.000056c-6.699523 0-13.346537-.193817-19.932862-.575162zm-41.986198-5.076766-.17302.535186c-3.238565 10.204606-4.910415 20.927569-4.910415 31.895394 0 37.197473 19.436597 70.680906 49.695297 89.223577-3.212505-8.554854-6.012515-17.804949-8.462735-27.71015-5.186402-20.966424-7.646448-37.76699-10.848736-66.895101-1.05967-9.63879-2.54392-17.524672-4.488508-23.866138-7.024081-.846993-13.964558-1.911662-20.811883-3.182768zm463.51669-433.579533h-401.59763c-143.2843 0-259.4391761 93.848159-259.4391761 209.615731l.032 3.282269.0014906.120393.0257908 1.123424.0704332 2.166156.0528615 1.245347c.6017703 13.059676 2.6822738 25.813906 6.1101827 38.156583l.2899648 1.031791.0363122.127517c.2445778.85769.4956695 1.713367.7532307 2.566997l.0769438.254314c.0392426.129354.0786339.25866.1181736.387919l.2172851.705047c.2265445.729652.4578227 1.457786.6938067 2.184381l.0668564.20534.333442 1.012152c.2137196.642178.4311203 1.283137.6521828 1.922862.1511972.437446.3040572.874268.4586228 1.310508l-.4586228-1.310508c3.5766811 10.35043 8.1119215 20.377739 13.5235357 30.015527l.7029346 1.240639.0388649.068434c.2986937.522342.5999696 1.043522.9038145 1.56353l.6277783 1.066064.1902852.320743c.2604469.437365.5227175.873887.7868037 1.309561l.7290011 1.192445.2564579.41577c.5131715.828495 1.0329371 1.653861 1.5592412 2.476052l.1777963.276852c.1003506.156193.2009374.312272.3017599.468235 6.4671077 10.004668 13.9052566 19.535691 22.2128386 28.510839l1.0296523 1.102631.204428.219733c.3725937.395997.746891.790891 1.1228832 1.184674l.9772208 1.014657.446554.462854c.293916.302227.588839.603785.884764.904671l1.064546 1.072603c.202502.203139.405463.405966.608883.60848.782151.778671 1.571077 1.552719 2.366703 2.322084.766789.741479 1.539801 1.478609 2.318974 2.211338l1.277368 1.195319c.200126.185391.40065.370496.60157.555313l.556845.509386 1.458793 1.323107c.220444.198083.441348.395825.662712.593224l.438327.388665 1.348115 1.188242c.31432.274645.629539.54861.945653.82189l.358237.307776 1.261246 1.07964c.380242.322818.761745.644658 1.144502.965514l.156591.12979 1.358244 1.129526c2.210881 1.82271 4.462629 3.612939 6.754047 5.36972l1.325176 1.003854.22729.176691c.385068.290431.771231.579926 1.158484.868481.572923.425225 1.146861.849043 1.723155 1.270798l-1.723155-1.270798c.927811.69134 1.861879 1.377281 2.802127 2.05776l-1.078972-.786962c.940925.688605 1.888133 1.37171 2.841545 2.04925l-1.762573-1.262288c.936865.678031 1.879866 1.35064 2.828927 2.017765l-1.066354-.755477c.974124.692259 1.954725 1.37871 2.94172 2.059285l-1.875366-1.303808c.956088.672065 1.918327 1.338565 2.88664 1.999438l-1.011274-.69563c.952853.657033 1.911666 1.30859 2.876363 1.954611l-1.865089-1.258981c1.027767.701451 2.062376 1.396563 3.103734 2.08526l-1.238645-.826279c.989033.662317 1.984251 1.318815 2.985575 1.96943l-1.74693-1.143151c.863582.571126 1.731805 1.13784 2.604617 1.700101l-.857687-.55695c3.638734 2.364283 7.358088 4.650865 11.154204 6.856628.319358.187959.640553.37371.962294.558883l-.962294-.558883c1.078937.626926 2.164075 1.247322 3.255326 1.861118l-2.293032-1.302235c1.020932.587579 2.047354 1.169334 3.079193 1.745204l-.786161-.442969c.990993.557405 1.987027 1.109366 2.988036 1.655831l-2.201875-1.212862c1.07264.598641 2.151133 1.190923 3.235396 1.776778l-1.033521-.563916c1.044503.570208 2.094422 1.134432 3.149682 1.69261l-2.116161-1.128694c1.056515.570862 2.118509 1.135623 3.185904 1.694219l-1.069743-.565525c1.070698.566343 2.146894 1.126463 3.228509 1.680295l-2.158766-1.11477c1.075179.56267 2.155838 1.119085 3.241899 1.669182l-1.083133-.554412c1.095796.561093 2.197154 1.115733 3.303993 1.663853l-2.22086-1.109441c1.062092.537957 2.129349 1.069871 3.201699 1.595683l-.980839-.486242c1.106883.548142 2.219247 1.089763 3.337011 1.624799l-2.356172-1.138557c1.078048.528607 2.161242 1.051046 3.249507 1.567258l-.893335-.428701c1.103158.528044 2.211576 1.049674 3.325174 1.564824l-2.431839-1.136123c1.085288.514799 2.175619 1.023405 3.270919 1.525757l-.83908-.389634c1.111038.513966 2.227233 1.021483 3.348506 1.522487l-2.509426-1.132853c1.10995.509071 2.225004 1.01172 3.345082 1.507884l-.835656-.375031c1.115547.498446 2.23612.990446 3.361644 1.475938l-2.525988-1.100907c1.073178.475389 2.150969.944825 3.233306 1.408252l-.707318-.307345c1.14969.495916 2.304544.985042 3.464481 1.46731l-2.757163-1.159965c1.05499.451719 2.114298.897729 3.177862 1.33798l-.420699-.178015c7.741932 3.218872 15.710281 6.13228 23.880656 8.720512.117073.041456.236299.079148.355567.11677l-.355567-.11677c1.127502.357174 2.258851.708154 3.393984 1.05289l-3.038417-.93612c1.219196.384583 2.442877.761931 3.67096 1.131977l-.632543-.195857c1.218483.37005 2.441325.732904 3.668448 1.0885l-3.035905-.892643c1.187488.357813 2.379093.708799 3.574741 1.0529l-.538836-.160257c1.233632.357482 2.471589.707627 3.713791 1.050371l-3.174955-.890114c1.189537.342341 2.383076.677867 3.580546 1.006519l-.405591-.116405c1.202107.331681 2.408189.656431 3.618174.974191l-3.212583-.857786c1.220635.33501 2.445355.662877 3.674082.983541l-.461499-.125755c1.247203.327533 2.498551.64764 3.753967.960255l-3.292468-.8345c1.195969.312114 2.395735.617403 3.599228.91581l-.30676-.08131c1.196775.298014 2.397246.589219 3.601342.87356l-3.294582-.79225c1.261599.312815 2.527294.618068 3.797003.915692l-.502421-.123442c14.771957 3.488321 30.089629 5.943569 45.825136 7.262408 8.905352.754043 17.946773 1.13693 27.098877 1.13693h401.59763l2.697194-.022461 1.74568-.02366c.545129-.011327 1.089747-.024734 1.633846-.040213.610368-.017365 1.220017-.037335 1.829003-.059901l-1.829003.059901c1.139625-.032422 2.276973-.073933 3.411975-.124465l-1.582972.064564c1.15485-.042793 2.307313-.094922 3.457316-.156315l-1.874344.091751c1.148206-.05112 2.29401-.111471 3.437339-.180981l-1.562995.08923c1.12378-.059993 2.24521-.128831 3.364224-.206446l-1.801229.117216c1.148788-.069841 2.295077-.148929 3.438796-.23719l-1.637567.119974c1.114137-.077278 2.225879-.163256 3.335156-.257867l-1.697589.137893c1.151989-.0889 2.301369-.187105 3.448065-.294542l-1.750476.156649c1.120159-.095539 2.237804-.199882 3.352868-.312959l-1.602392.15631c1.135812-.106417 2.268991-.22189 3.399464-.346347l-1.797072.190037c1.11926-.113503 2.235919-.235805 3.349906-.366837l-1.552834.1768c1.112538-.122483 2.222456-.253666 3.329683-.393481l-1.776849.216681c1.140393-.134138 2.277987-.277425 3.412705-.429784l-1.635856.213103c1.10921-.140065 2.21572-.288793 3.31946-.446112l-1.683604.233009c1.093714-.146854 2.184757-.302137 3.273061-.465781l-1.589457.232772c1.136921-.16205 2.270902-.333216 3.401869-.513422l-1.812412.28065c1.113563-.167443 2.224257-.343639 3.332012-.528518l-1.5196.247868c1.078845-.171901 2.154946-.352029 3.228237-.540316l-1.708637.292448c1.113779-.185884 2.224587-.380544 3.332348-.583908l-1.623711.29146c1.105188-.193884 2.207396-.396419 3.306552-.607534l-1.682841.316074c1.089589-.200027 2.176232-.408474 3.259857-.625272l-1.577016.309198c1.092657-.209867 2.182297-.428212 3.26885-.654965l-1.691834.345767c1.103165-.220706 2.203203-.450065 3.300041-.688005l-1.608207.342238c1.083495-.226114 2.163919-.460588 3.241202-.703352l-1.632995.361114c1.071238-.232386 2.139424-.472956 3.204489-.721642l-1.571494.360528c1.084903-.244481 2.166621-.49737 3.245081-.758593l-1.673587.398065c1.0975-.256259 2.191687-.521135 3.282483-.794553l-1.608896.396488c1.055273-.255607 2.107426-.519195 3.156394-.790695l-1.547498.394207c1.075771-.269652 2.148245-.547611 3.217349-.833807l-1.669851.4396c1.061082-.274637 2.118904-.55737 3.173396-.84813l-1.503545.40853c1.068001-.2859 2.13264-.580019 3.193845-.882285l-1.6903.473755c1.076809-.296914 2.150146-.602199 3.219935-.915779l-1.529635.442024c1.047742-.298431 2.092136-.604804 3.133113-.919049l-1.603478.477025c1.045395-.30643 2.087402-.620782 3.125953-.942986l-1.522475.465961c1.053606-.318058 2.103711-.644179 3.150244-.978294l-1.627769.512333c1.050784-.325999 2.098029-.660038 3.141664-1.002043l-1.513895.48971c1.055647-.337024 2.107659-.68218 3.155963-1.035396l-1.642068.545686c1.038076-.340183 2.07258-.688248 3.10344-1.044125l-1.461372.498439c1.021297-.344115 2.039075-.69588 3.053265-1.055225l-1.591893.556786c1.056454-.364712 2.109082-.737627 3.157807-1.118671l-1.565914.561885c1.024131-.362868 2.044603-.733465 3.061347-1.111723l-1.495433.549838c1.026365-.372919 2.048992-.753623 3.06781-1.142041l-1.572377.592203c1.019501-.379283 2.035252-.766268 3.047184-1.160883l-1.474807.56868c1.027743-.39182 2.051609-.791489 3.071526-1.198934l-1.596719.630254c1.001612-.390591 1.999481-.788658 2.99354-1.194133l-1.396821.563879c1.015168-.405548 2.026423-.8188 3.033692-1.239682l-1.636871.675803c1.017702-.415118 2.03141-.838001 3.041051-1.268573l-1.40418.59277c.984216-.41125 1.964627-.829786 2.941165-1.25554l-1.536985.66277c1.004817-.428516 2.005606-.864649 3.002292-1.308326l-1.465307.645556c1.001784-.436761 1.999492-.881119 2.993053-1.333l-1.527746.687444c.988905-.440214 1.973772-.887854 2.954531-1.34285l-1.426785.655406c.985141-.448052 1.966205-.903501 2.94312-1.366276l-1.516335.71087c.973933-.451831 1.943815-.910915 2.909576-1.377185l-1.393241.666315c1.004023-.475617 2.003664-.958972 2.998846-1.449988l-1.605605.783673c.968126-.467411 1.932111-.942043 2.891884-1.423824l-1.286279.640151c.95689-.472123 1.909657-.951329 2.858233-1.43755l-1.571954.797399c.977822-.490841 1.951272-.989104 2.920277-1.494715l-1.348323.697316c.974144-.499326 1.943867-1.006049 2.909095-1.520096l-1.560772.82278c.968927-.505569 1.93341-1.018486 2.893374-1.538674l-1.332602.715894c.903641-.481248 1.803343-.968914 2.699044-1.462938l-1.366442.747044c.970621-.525963 1.936622-1.059361 2.897927-1.600118l-1.531485.853074c.946586-.522089 1.888704-1.051279 2.826282-1.587498l-1.294797.734424c.908771-.511204 1.813345-1.028985 2.713658-1.553277l1.040257-.609845c-24.497452 8.872316-51.173708 13.740843-79.051189 13.740843h-374.053061c-143.402935 0-261.6448981-86.854507-261.6448981-197.5s118.2419631-197.5 261.6448981-197.5h374.053061c16.441827 0 32.465807 1.693522 47.871381 4.903156-23.358459-8.980558-48.730705-13.903156-75.253058-13.903156zm27.381677 29h-374.053061c-133.456792 0-241.644898 79.469457-241.644898 177.5s108.188106 177.5 241.644898 177.5h374.053061c42.436619 0 81.712025-12.301048 113.744922-33.193863-42.979192-8.754382-74.178377-69.117648-74.178377-140.908384 0-76.365 35.301662-139.799898 82.528051-141.944002-33.438613-24.373244-75.893102-38.953751-122.094596-38.953751zm-392.433455 20.897753c82.290428 0 149 66.709572 149 149s-66.709572 149-149 149-149-66.709572-149-149 66.709572-149 149-149zm517 38c-16.843231 0-32.783336 12.932882-44.662916 34.135159 18.441109 18.485694 29.662916 51.608838 29.662916 87.864841 0 36.255592-11.221552 69.378395-29.661964 87.864714 11.878128 21.201998 27.818469 34.135286 44.661964 34.135286 7.006463 0 13.85665-2.237908 20.323285-6.37804 2.618089-2.628244 5.148176-5.328111 7.58892-8.095863l.245064-.40582c.28094-.469797.560093-.940786.837449-1.412956l-.837184 1.412513c.557963-.93305 1.108876-1.870798 1.652667-2.813171l-.815483 1.400658c.561672-.956188 1.115976-1.917222 1.662834-2.883025l-.847351 1.482367c.523957-.908002 1.0413-1.820298 1.551966-2.736821l-.704615 1.254454c.54607-.964411 1.084716-1.933576 1.61586-2.907419l-.911245 1.652965c.531956-.954736 1.056665-1.91406 1.574053-2.877898l-.662808 1.224933c.475583-.871973.945151-1.747696 1.40865-2.627113l-.745842 1.40218c.517215-.963517 1.027114-1.931545 1.529622-2.904009l-.78378 1.501829c.514601-.976376 1.02172-1.957307 1.52128-2.942714l-.7375 1.440885c.489328-.946956.971647-1.898119 1.446889-2.85342l-.709389 1.412535c.498683-.983678.989834-1.971817 1.473377-2.964342l-.763988 1.551807c.480789-.96645.954334-1.937135 1.420566-2.911984l-.656578 1.360177c.471021-.966822.934823-1.937806 1.391335-2.912882l-.734757 1.552705c.471127-.985085.934785-1.974423 1.390902-2.967939l-.656145 1.415234c.492482-1.051903.976481-2.108568 1.451908-3.169906l-.795763 1.754672c.444747-.968751.882324-1.941475 1.312663-2.918104l-.5169 1.163432c.4159-.92845.825241-1.860476 1.227963-2.79602l-.711063 1.632588c.446087-1.01237.884397-2.028936 1.314853-3.049624l-.60379 1.417036c.432515-1.004752.857396-2.013562 1.274571-3.026356l-.670781 1.60932c.413202-.979773.819167-1.963343 1.217829-2.950644l-.547048 1.341324c.422052-1.024635.836216-2.053348 1.242417-3.086063l-.695369 1.744739c.41301-1.022836.818183-2.049676 1.215442-3.080445l-.520073 1.335706c.386254-.982002.765308-1.967624 1.137096-2.956799l-.617023 1.621093c.391633-1.01617.775575-2.036158 1.151756-3.059893l-.534733 1.4388c.39769-1.05809.787067-2.120246 1.168051-3.186389l-.633318 1.747589c.372873-1.014736.738121-2.033153 1.095673-3.055183l-.462355 1.307594c.357649-1.000841.707902-2.005196 1.050693-3.012999l-.588338 1.705405c.36653-1.047688.724972-2.099173 1.075253-3.154378l-.486915 1.448973c.33924-.997361.671172-1.998098.995732-3.002149l-.508817 1.553176c.342366-1.031359.676934-2.066273 1.003637-3.104672l-.49482 1.551496c.328644-1.016683.649729-2.036762.963189-3.060172l-.468369 1.508676c.332458-1.056696.656771-2.117.972864-3.180839l-.504495 1.672163c.330168-1.077956.651877-2.159608.96505-3.244878l-.460555 1.572715c.309633-1.042098.611379-2.087589.905168-3.136402l-.444613 1.563687c.33665-1.166629.663436-2.33744.980262-3.512335l-.535649 1.948648c.298831-1.06681.589429-2.137058.871724-3.210671l-.336075 1.262023c.27438-1.017491.54129-2.038045.800667-3.061601l-.464592 1.799578c.2786-1.059564.549111-2.122405.811464-3.188454l-.346872 1.388876c.274253-1.082258.540085-2.167871.797421-3.256766l-.450549 1.86789c.263667-1.071387.519093-2.146014.766207-3.223811l-.315658 1.355921c.305979-1.294721.599947-2.594081.881781-3.897957l-.566123 2.542036c.24406-1.064473.480013-2.132038.70779-3.202625l-.141667.660589c.218495-1.010843.429697-2.0244.633548-3.040614l-.491881 2.380025c.237074-1.114285.465291-2.231844.684574-3.352601l-.192693.972576c.262541-1.308788.512889-2.621981.750921-3.939456l-.558228 2.96688c.209648-1.07151.411129-2.145942.604378-3.223229l-.04615.256349c.121775-.674015.240328-1.34915.35564-2.025389l-.30949 1.76904c.200439-1.117374.39202-2.237819.574669-3.36126l-.265179 1.59222c.212917-1.248639.414788-2.501042.605508-3.757106l-.340329 2.164886c.177474-1.091611.346513-2.186052.507051-3.283252l-.166722 1.118366c.152855-1.00669.298548-2.015732.437024-3.027071l-.270302 1.908705c.16313-1.114923.31748-2.232695.462978-3.353245l-.192676 1.44454c.150495-1.099117.292467-2.200947.425847-3.305423l-.233171 1.860883c.578517-4.455423 1.017087-8.95476 1.311158-13.493458.117494-1.81347.211901-3.632755.282962-5.458031.107143-2.752263.161204-5.517717.161204-8.295793 0-40.924154-11.731463-79.109167-32.015892-111.377572-7.998481-6.656701-16.730423-10.340406-25.719604-10.340406zm-517-18c-71.244733 0-129 57.755267-129 129s57.755267 129 129 129 129-57.755267 129-129-57.755267-129-129-129zm41 48c44.735065 0 81 36.264935 81 81s-36.264935 81-81 81-81-36.264935-81-81 36.264935-81 81-81zm425.369176 28.825544c-6.705385 18.508798-10.369176 40.306782-10.369176 63.174456 0 22.875576 3.66696 44.675605 10.363309 63.183671 9.632575-15.470746 15.636691-38.279073 15.636691-63.183671 0-24.899589-6.001701-47.70375-15.630824-63.174456zm-425.369176-8.825544c-33.68937 0-61 27.31063-61 61s27.31063 61 61 61 61-27.31063 61-61-27.31063-61-61-61zm1 20c22.643675 0 41 18.356325 41 41s-18.356325 41-41 41-41-18.356325-41-41 18.356325-41 41-41z"/></svg>