<svg height="960" viewBox="0 0 960 960" width="960" xmlns="http://www.w3.org/2000/svg"><path d="m190.246419 284.013315.683581.018685 696.892849 16.287543c.155231.003628.310439.00816.465616.013596 38.223055 1.338906 70.595676 31.085499 70.595676 69.375976v220.58177c0 38.290477-32.372621 68.03707-70.595676 69.375976-.155177.005436-.310385.009968-.465616.013596l-696.892205 16.288659-.419632.012011c-5.309288.121173-10.577517-.341809-15.721758-1.372766l-.047254-.010361-107.3775527-6.06929c-36.3969008-2.057546-62.83143281-34.210767-63.3644473-70.417716v-236.123594c0-36.652713 26.5999011-69.437781 63.3644473-71.51611l112.7558497-6.374179c1.895277-.107142 3.78985-.125561 5.67872-.055585l.297983.013474.706385-.025863c1.145694-.029151 2.293643-.037865 3.443034-.015822zm-1.703242 39.987583-.608344.012235c-.68148.019461-1.35718.060418-2.026457.122149l-.251266-.026222c-15.884999 1.316905-28.206591 14.404989-28.206591 30.807599v249.789366c0 17.68652 14.326025 31.519319 31.998073 30.896421l696.922797-16.391522c17.672048-.622898 31.998073-13.761808 31.998073-29.346576v-220.106012c0-15.584769-14.326025-28.723678-31.998073-29.346577l-696.922797-16.391521c-.302806-.010673-.604629-.017102-.905415-.01934zm-42.24866 2.07229-76.672442 4.33434c-14.1506813.799949-25.622075 14.93874-25.622075 31.579872v235.0252c0 16.641132 11.4713937 30.779923 25.622075 31.579872l76.236266 4.310906c-5.170768-7.820448-8.239388-17.187126-8.407822-27.328979v-250.65774c0-10.75751 3.261532-20.674808 8.843998-28.843471zm55.205483 278.926812c4.142136 0 7.5 3.357864 7.5 7.5s-3.357864 7.5-7.5 7.5-7.5-3.357864-7.5-7.5 3.357864-7.5 7.5-7.5zm59-2c4.142136 0 7.5 3.357864 7.5 7.5s-3.357864 7.5-7.5 7.5-7.5-3.357864-7.5-7.5 3.357864-7.5 7.5-7.5zm61-1c4.142136 0 7.5 3.357864 7.5 7.5s-3.357864 7.5-7.5 7.5-7.5-3.357864-7.5-7.5 3.357864-7.5 7.5-7.5zm216-6c4.142136 0 7.5 3.357864 7.5 7.5s-3.357864 7.5-7.5 7.5-7.5-3.357864-7.5-7.5 3.357864-7.5 7.5-7.5zm212-2 .242731.003854c4.029795.128128 7.257269 3.435229 7.257269 7.496146 0 4.142136-3.357864 7.5-7.5 7.5s-7.5-3.357864-7.5-7.5 3.357864-7.5 7.5-7.5zm-367.942993-90.371204c10.33625-.040107 18.715436 8.334328 18.715436 18.705114v24.707856l-37.430872.315681v-24.8041c0-10.411184 8.379186-18.883864 18.715436-18.924551zm224.585236-.877755c10.33625-.040101 18.715436 8.137844 18.715436 18.266247v24.130389l-37.430873.315682v-24.226634c0-10.1688 8.379187-18.44499 18.715437-18.485684zm223.600212-.873906c10.33625-.040093 18.715437 7.942223 18.715437 17.829305v23.555456l-37.430873.315682v-23.651701c0-9.92748 8.379186-18.008041 18.715436-18.048742zm-487.586367-62.723005 13.790322.038295v41.700672l-13.790322.021275zm65.996539.183269 13.790322.038295v41.415587l-13.790322.021275zm158.588697.440394 13.790322.038295v40.73053l-13.790322.021275zm65.011516.180534 13.790321.038295v40.449699l-13.790321.021275zm158.588697.440394 13.790321.038295v39.764642l-13.790321.021275zm65.996538.183269 13.790322.038295v39.479556l-13.790322.021276zm-108.226305-60.190444c14.447833.121849 26.24664 11.607967 26.24664 25.81113 0 14.242074-11.858848 25.633196-26.343683 25.56821-14.465676-.065456-26.276099-11.562883-26.276099-25.811599 0-14.287628 11.870614-25.690051 26.373142-25.567741zm-221.292831-1.866321c14.486048.122171 26.24664 11.842829 26.24664 26.245753 0 14.441116-11.819956 26.067993-26.343683 26.002829-14.504123-.065626-26.276098-11.797628-26.276098-26.246218 0-14.486784 11.831488-26.125004 26.373141-26.002364zm-221.29283-1.866321c14.524391.122495 26.24664 12.075794 26.24664 26.680375 0 14.642094-11.780929 26.502792-26.343683 26.437448-14.54269-.065796-26.276098-12.030475-26.276098-26.680837 0-14.687875 11.792237-26.559957 26.373141-26.436986zm442.459159 18.732109c-6.274303-.052916-11.24664 4.723306-11.24664 10.568274 0 5.88388 5.032528 10.783037 11.343683 10.811598 6.291996.028224 11.276099-4.759299 11.276099-10.568209 0-5.847822-5.044143-10.758286-11.373142-10.811663zm-221.29283-1.866321c-6.235177-.052586-11.24664 4.877014-11.24664 11.002897 0 6.164076 5.070975 11.217832 11.343683 11.246215 6.253105.028055 11.276098-4.912888 11.276098-11.002826 0-6.128132-5.082357-11.193232-11.373141-11.246286zm-221.29283-1.866321c-6.195927-.052255-11.24664 5.032656-11.24664 11.437519 0 6.442377 5.109541 11.652629 11.343683 11.680833 6.214077.027884 11.276098-5.068412 11.276098-11.437444 0-6.406545-5.120701-11.628177-11.373141-11.680908z"/></svg>