<svg height="960" viewBox="0 0 960 960" width="960" xmlns="http://www.w3.org/2000/svg"><path d="m202.9985 26.3323082c16.514987-12.2741196 36.4837-18.74464884 57.632519-18.31191732l400.434865 8.19145392c57.335638 1.1726016 106.825633 49.8765551 113.809311 109.0137632l79.217362 666.680963c7.345233 61.438443-33.915656 117.570455-93.855246 123.653826l-403.448232 40.936985-1.089465.10442c-4.358091.393315-8.718389.494387-13.060573.307099l-.232978-.011901-.20825.017308c-4.130655.302495-8.400119-.038737-12.692029-1.114465l-93.223345-23.36557-.475858-.122358c-6.012033-1.585056-11.432207-4.503934-15.950196-8.409001l-.276322-.242914-.172623-.098571c-23.724514-13.831647-41.806994-36.515063-51.358482-63.401095l-.193895-.554334-.423862-.041293c-3.072676-.325986-6.125682-.834524-9.142729-1.523775l-1.255149-.29746c-41.262855-10.133138-66.9122589-51.538906-57.4140648-93.115191l37.9348048-166.045281-39.8368465-389.580621-.1117411-1.112457c-3.3884331-35.211281 7.4678676-68.81967 30.1210056-91.790565l.602582-.604357 49.395-61.341.247635-.4030307c4.51456-7.290672 9.865916-13.9309094 15.961795-19.761411l.44157-.4165583.042576-.0491145c2.416755-2.6788722 5.161237-4.9926891 8.146494-6.9016056l.30093-.1892799zm21.275995 33.9928659c-.174224.1453194-.347641.2917783-.520245.4393686l-.425237.5286799c-4.957963 4.3593713-9.224713 9.663269-12.653609 15.7179579l-.541949.6702374c-7.145809 12.9823801-10.488992 29.3226651-8.624377 47.1620381l75.828976 720.452106c3.546922 33.467394 24.532838 60.199707 50.963835 68.790227l1.528551.379095c1.879375.567208 3.785 1.043178 5.712652 1.423902l.943983.236897c.909708.15927 1.824075.297286 2.742663.41363l.001031-.042827c.273647.036201.547673.070484.822067.102838.102677.012105.204925.023887.307223.0354l-.307223-.0354c.299087.035265.598611.068238.898557.098905l-.591334-.063505c.315185.035473.630848.0684.946972.098765l-.355638-.03526c.263689.02696.527704.052137.792036.075522l-.436398-.040262c.323934.031115.648353.059539.973238.085256l-.53684-.044994c.302464.026759.605343.051172.90862.073224l-.37178-.02823c.232304.018387.464846.035391.69762.051003l-.32584-.022773c.321162.023352.642772.044056.96481.062096l-.63897-.039323c.275285.018463.550894.03498.826815.04954l-.187845-.010217c.26668.014938.533653.02805.80091.039323l-.613065-.029106c.343298.018116.68708.033203 1.031322.045241l-.418257-.016135c.274723.011589.549747.021237.825059.028932l-.406802-.012797c.30335.010607.607058.018846.911108.024702l-.504306-.011905c.2681.007494.536474.013137.805111.016919l.493979.005752c1.941595-.000593 3.896353-.098785 5.860382-.298277l402.933789-40.936889c36.860866-3.74584 62.870991-39.177364 58.099549-79.138523l-79.119922-666.709586c-4.713119-39.9611591-38.205098-72.9637025-74.808095-73.7132438l-399.925393-8.191458-1.086795-.0118371c-.003324.0000085-.006649.0000172-.009974.0000262l-.707142.0063188-.618504.0127753c-12.509402.3270858-23.688344 4.7965111-32.706847 12.3117399zm34.384845-7.3241741.749549.0094236.190223.0029912 399.80624 8.1890174c17.00979.3483196 33.129402 8.0762861 45.955434 20.7146031 13.136523 12.944264 21.821109 30.1792127 23.990636 48.5962727l79.120214 666.711986c2.151138 17.993423-2.323442 35.724773-12.504557 49.592669-9.881973 13.460427-24.51109 22.282996-41.135901 23.972426l-402.933671 40.936878c-16.872921 1.713834-33.041446-4.716982-45.694832-16.753734-13.305335-12.656929-21.807977-30.558991-23.891336-50.194259l-75.828713-720.449547c-2.016854-19.317555 2.259524-37.6285443 12.639447-51.3613002 9.320247-12.3307929 23.156197-19.7692635 38.707212-19.9674268zm-77.643348 60.840389-12.892211 16.010624-10.185176 12.649525c-14.749417 13.761768-22.967606 36.140997-20.506724 61.65773l.077846.774189 40.506336 396.136543-.001282.001013 22.387282 218.928987.296718 2.903013.298221 2.919527c2.971513 28.002372 18.167226 51.289669 38.552644 63.180308l.619321.356827c.47571.270706.954178.535233 1.435318.793496.133288.071545.266553.142488.400019.212951l-.400019-.212951c.219897.118034.440351.234761.661354.350171l-.261335-.13722c.308492.162865.618065.323162.928696.480868l-.667361-.343648c.304042.158772.609123.315054.915222.468824l-.247861-.125176c.316977.160929.635056.319159.954213.474669l-.706352-.349493c.247335.124249.495335.246858.743988.367817l-.037636-.018324c.306506.149347.614006.296184.922479.440491l-.884843-.422167c.414036.20141.829884.398242 1.24749.590446l.561442.253584.842635.37231.157348 1.176044 32.054043 7.999776c-11.438672-14.937163-19.149351-33.674013-21.33837-54.328757l-75.830491-720.466455c-.463069-4.43032-.659545-8.802325-.602954-13.095542zm77.424008-40.840389h-.357934c-9.500891.1200919-17.522065 4.773217-23.004917 12.0270935-7.135026 9.4397199-10.218496 22.7059115-8.704391 37.2081585l75.826945 720.432809c1.617746 15.246957 8.156631 28.652021 17.78761 37.813656 8.16536 7.76744 18.670258 12.486465 29.888659 11.346977l402.933199-40.936829c11.212448-1.139421 20.667378-7.235791 27.036089-15.910736 7.00689-9.544221 10.351647-22.13437 8.765737-35.399929l-79.122235-666.729074c-1.676785-14.234189-8.53082-27.19644-18.165479-36.690091-8.868232-8.7384415-20.226044-14.7169882-32.327494-14.9647968l-399.80624-8.1890174zm-78.143219 746.998013-16.17-158.136-25.512173 111.673842c-4.627325 20.255113 7.868538 40.427154 27.970955 45.363811l.611482.144916c2.776372.634269 5.615246.954418 8.463145.954418zm86.60523-701.086449.384969.004005 396.385914 8.117825c5.760693.117966 10.812629 1.970135 15.300477 4.949481 2.551131 1.693619 4.32953 3.262578 6.806162 5.702964 7.517847 7.407819 12.552114 17.171152 13.797956 27.771874l67.986368 578.751244c1.051615 8.737142-.664447 17.497177-5.965976 24.718493-.409159.557324-.685503.922107-1.117898 1.448582-.785881.956874-1.637917 1.868884-2.656111 2.778508-3.368446 3.009271-7.608586 5.121281-12.686395 5.637293l-402.93254 40.942986-.111376.011002c-5.798055.556393-11.039626-1.245423-15.12423-4.435708-1.240695-.969047-2.267152-1.976809-3.184564-3.039062l-.31583-.372816c-.202654-.244033-.390726-.480234-.571527-.715737l-.049037-.0669-.330463-.347988c-6.65456-7.141984-10.460015-16.581714-11.553665-26.818775l-64.692374-632.472283c-.819025-7.848325-.592284-13.677962 2.141138-20.245726 3.160815-7.594686 10.649515-12.479386 18.873971-12.315257zm-.024325 20.004034c-1.250863 3.005526-1.098278 6.801391-.709622 10.52588l64.683017 632.382798c.679669 6.362014 3.008774 12.226688 7.103334 16.121709.578873.550663 1.119632 1.997719 2.228683 1.896863l402.932372-40.948539c1.108265-.112623 1.795075-1.032391 2.360592-1.802693 2.097107-2.856509 2.68939-6.685515 2.224377-10.549287l-67.986245-578.750198c-.726866-6.184817-3.803869-11.753002-7.972164-15.860293-2.331284-2.297165-5.056913-4.832568-8.478429-4.902632z"/></svg>