<svg height="960" viewBox="0 0 960 960" width="960" xmlns="http://www.w3.org/2000/svg"><path d="m536.776596 1c54.439631 0 102.774708 30.7423852 124.746692 76.7524762l.052712.1135238.159953.0375321c13.071075 3.1110546 23.933054 6.722938 32.687774 11.0794094l.207273.1040585.205802.0853324c.890824.377857 1.769863.7888634 2.635246 1.2327118l.517575.2702476c149.60024 79.5065292 245.010377 233.8471252 245.010377 404.8726352 0 253.86688-208.304388 459.452073-465 459.452073-59.138326 0-116.787827-10.932936-170.628012-31.92843l-.615988-.24157-100.308252 28.342789c-6.33539 1.790576-12.87764 2.738813-19.457962 2.821317l-.940287.005894h-24.599238c-9.402698 0-18.663179-2.295954-26.976862-6.688383-28.199615-14.898909-38.9819683-49.837167-24.08368-78.035607l30.338281-57.42701-2.242592-2.345935c-78.9436091-83.266757-124.4776647-193.036255-125.4688801-310.051957l-.0165279-3.903181c0-172.185394 96.712804-327.402794 247.905978-406.4013266 1.557008-.8135375 3.143193-1.5144894 4.749215-2.1057425l.525807-.1888579.18381-.079012c28.8773-12.3444842 84.656621-20.4269662 153.192136-23.3945011l.529054-.0224869.781279-1.1988594c24.433438-36.9835417 67.061227-60.57663598 114.162794-61.14657707zm-285.649826 140.623641-3.1699 1.99236c-117.245683 74.551289-194.8905936 204.42844-194.9568276 352.189208l.0039576.648791.0360402 4.911313c.0187681 1.362653.0441199 2.723737.0760255 4.083221l-.0099697.002066c.0124345.553622.0259581 1.10698.0405689 1.66007l-.0305992-1.662136c2.7707078 118.058817 54.9654083 224.058631 136.9568323 298.628383l-.045109.077089c34.818656 31.642352 75.012874 57.621835 119.078944 76.455947l.03898-.019971c22.135248 9.468214 45.247248 17.131629 69.145437 22.802169l-.004173.011368c.7211.170927 1.442916.340042 2.165443.507339l-2.16127-.518707c2.029773.481623 4.065217.948869 6.106216 1.401624l-.003892.010002c.98449.218167 1.970273.432965 2.957335.644383l-2.953443-.654385c2.072257.459689 4.15024.904439 6.233827 1.33413 1.177012.251927 2.359062.490249 3.542888.723723l-3.542888-.723723c2.097709.432603 4.201097.849942 6.310041 1.251894 1.408224.276234 2.821651.537993 4.237527.792836l-4.237527-.792836c2.143916.408617 4.293573.801332 6.448839 1.178016 1.585204.283622 3.175402.552044 4.76859.811729l-4.76859-.811729c2.176441.380385 4.358603.744422 6.546351 1.091978 1.700363.275543 3.405744.535686 5.114441.785802l-5.114441-.785802c2.200734.34962 4.407121.682562 6.619023.998692 1.813345.26353 3.631904.511336 5.454099.747761l-5.454099-.747761c2.177231.311175 4.359805.60606 6.547592.884526l-1.093493-.136765c2.299015.298291 4.60382.578465 6.914263.840373l-5.82077-.703608c2.240675.285198 4.486817.553173 6.738287.803787l-.917517-.100179c2.283498.258853 4.572503.499863 6.866867.722885l-5.94935-.622706c2.285703.254425 4.576896.490957 6.873433.70945l-.924083-.086744c2.323869.22589 4.653235.433326 6.987947.622157l-6.063864-.535413c2.258765.2149 4.522699.41235 6.791661.592211l-.727797-.056798c2.360965.190955 4.727396.362884 7.099135.515633l-6.371338-.458835c2.24946.178316 4.503862.339344 6.763071.482951l-.391733-.024116c2.330605.150099 4.666337.281677 7.007044.394586l-6.615311-.37047c2.291989.14569 4.588925.27345 6.890664.383137l-.275353-.012667c2.31025.111439 4.625346.204692 6.945146.279616l-6.669793-.266949c2.328578.110967 4.662072.203437 7.000336.277267l-.330543-.010318c2.375752.076731 4.756437.134238 7.1419.172369l7.028152.056135 7.028152-.056135 7.000612-.168068c228.164859-7.303147 410.871235-192.102863 410.971195-419.041538l.000041.26017c0-146.818324-76.592394-275.999853-192.532917-350.823474-2.169006 4.447329-5.613413 8.209847-9.873534 11.359721-4.6115 3.409677-10.394026 6.222561-17.478003 8.756598-12.043509 4.308131-28.625723 8.021781-49.070509 11.115082-40.481649 6.124883-94.748111 9.597644-152.545037 9.597644s-112.063388-3.472761-152.545037-9.597644c-20.444786-3.093301-37.027-6.806951-49.070509-11.115082-7.083977-2.534037-12.866503-5.346921-17.478003-8.756598-5.35-3.955715-9.413523-8.877641-11.279681-14.907035zm-70.730818 680.761764-34.638394 65.57525c-4.579016 8.666841-1.265178 19.404729 7.401663 23.983744 2.555118 1.349965 5.401225 2.055601 8.29104 2.055601h24.599238c3.218632 0 6.421881-.443972 9.519183-1.319365l83.875561-23.698269c-36.079586-17.775524-69.370038-40.244491-99.048291-66.596961zm296.290506-625.616655c201.171393 0 364.465625 159.004072 364.465625 355.415625s-163.294232 355.415625-364.465625 355.415625c-201.171392 0-364.465625-159.004072-364.465625-355.415625s163.294233-355.415625 364.465625-355.415625zm0 20c-190.243111 0-344.465625 150.17069-344.465625 335.415625s154.222514 335.415625 344.465625 335.415625c190.243112 0 344.465625-150.17069 344.465625-335.415625s-154.222513-335.415625-344.465625-335.415625zm-144.234375 277.51875c31.663175 0 57.33125 25.668075 57.33125 57.33125s-25.668075 57.33125-57.33125 57.33125-57.33125-25.668075-57.33125-57.33125 25.668075-57.33125 57.33125-57.33125zm145.93125 0c31.663175 0 57.33125 25.668075 57.33125 57.33125s-25.668075 57.33125-57.33125 57.33125-57.33125-25.668075-57.33125-57.33125 25.668075-57.33125 57.33125-57.33125zm145.93125 0c31.663175 0 57.33125 25.668075 57.33125 57.33125s-25.668075 57.33125-57.33125 57.33125-57.33125-25.668075-57.33125-57.33125 25.668075-57.33125 57.33125-57.33125zm-291.8625 20c-20.61748 0-37.33125 16.71377-37.33125 37.33125s16.71377 37.33125 37.33125 37.33125 37.33125-16.71377 37.33125-37.33125-16.71377-37.33125-37.33125-37.33125zm145.93125 0c-20.61748 0-37.33125 16.71377-37.33125 37.33125s16.71377 37.33125 37.33125 37.33125 37.33125-16.71377 37.33125-37.33125-16.71377-37.33125-37.33125-37.33125zm145.93125 0c-20.61748 0-37.33125 16.71377-37.33125 37.33125s16.71377 37.33125 37.33125 37.33125 37.33125-16.71377 37.33125-37.33125-16.71377-37.33125-37.33125-37.33125zm-200.210716-410.19451-1.718136.07225c-67.474781 2.894744-121.174297 10.927512-142.460809 21.20995-.145296.070185-.307854.096381-.48682.08058l-.008266-.015482c-2.379789 1.242118-4.746176 2.505866-7.098891 3.790979-1.535793 1.557825-2.330945 3.149229-2.330945 4.768733 0 17.673112 94.691775 32 211.5 32 115.759379 0 209.797703-14.070755 211.477149-31.524746-4.532997-2.630227-9.120385-5.175634-13.759517-7.638522-.184484.030299-.368273-.003786-.551018-.107616-5.657656-3.214495-14.445417-6.228874-25.824296-8.959726.3993 2.684019.696635 5.4009.890605 8.146872.671921 9.51219-5.465204 18.175748-14.661661 20.697337-26.490805 7.26355-63.272611 11.386401-102.571262 11.386401-38.75169 0-75.066551-4.008909-101.480102-11.089448-9.229926-2.474217-15.420195-11.132082-14.776046-20.666145.515526-7.630313 1.829233-15.037756 3.860015-22.151417zm112.896133-62.09299h-.005l-1.432307.0098355c-.13684.0018739-.273612.0040149-.410314.0064226-.3376.0059581-.674655.0135311-1.01128.022722l1.01128-.022722c-.487639.0085885-.974397.0205696-1.460251.0359194l.448971-.0131974c-.479459.0130907-.958046.0294635-1.435737.0490952l-.455541.019664-.0923.0042965c-.248396.0115199-.496546.0239211-.744447.0372005-.21341.0113476-.42627.0234028-.638944.036104l.638944-.036104c-1.61087.0862899-3.211223.2096584-4.800114.3692151l-.237901.0238826-.25998.0273378c-1.403991.1478894-2.798929.3240476-4.184159.5278571l-.227725.0331703-.030493.0051585c-.374846.0561298-.748976.1142851-1.122378.1744537l-.253586.0404764-.067445.0117786c-2.347174.3858982-4.665367.8513845-6.951339 1.3934029l-.264018.0614896-.016969.0055585c-40.012683 9.6081336-70.090019 42.6797352-72.798607 82.7695756 23.86027 6.396095 58.171179 10.407407 96.30164 10.407407 38.657031 0 73.388287-4.122867 97.282634-10.674491-2.926603-41.4310528-35.088442-75.3156197-77.197787-83.4596055l-.027814-.0063592-.209067-.0391622c-.361005-.0689299-.722736-.1359688-1.085183-.2011053l-.089963-.0169735-.375101-.0654912c-2.780988-.4864707-5.603628-.8610291-8.462471-1.1185364-.197863-.0180326-.395129-.0352188-.592566-.0518472l.592566.0518472c-.474834-.0427703-.950667-.0823114-1.427474-.1185999l-.454075-.0336941c-.049335-.0035345-.09868-.0070342-.148035-.0104991-.734719-.0514734-1.471931-.0953722-2.211333-.1314606l-.562839-.0259944-.24343-.0102224c-.214693-.0088096-.429566-.016961-.644618-.0244519l-.240253-.0081208-.531046-.0158899c-.296021-.0081199-.592374-.0149887-.889053-.020601-.17347-.0032899-.347201-.0061427-.521043-.0085644l.521043.0085644c-.659437-.0124746-1.320489-.0187416-1.983092-.0187416z"/></svg>