<svg height="960" viewBox="0 0 960 960" width="960" xmlns="http://www.w3.org/2000/svg"><path d="m152.846235 940.143613c-3.057883-.559721-6.058505-1.388561-8.966996-2.473588l.029784.011095-19.610566-7.295203c-8.126062-3.022925-15.357583-8.048166-21.024411-14.610028l-2.976012-3.446051c-.5989493-.69355-1.173889-1.407477-1.7238006-2.140518l-15.1051411-20.135396-.004527-.006034.0018949.002526.0248968.033141c-6.7411232-8.962878-10.491357-19.890978-10.491357-31.208593v-753.324141c0-10.4542246 3.2017573-20.5984902 9.0339172-29.1698647l-.0256491.037747-.0048342.0071259.0048342-.0071259 17.4550191-25.7297721.0017146-.0025285.0046407-.0068391-.0046407.0068391-.0251548.0371418c5.935832-8.7757808 14.384458-15.5817686 24.199392-19.5339721l-.029787.0120099-.006187.0024991.006187-.0024991 21.3651-8.6299218-.02784.0112617c3.057795-1.2385203 6.227082-2.1907308 9.466615-2.8391542l63.239605-12.70641258.005431-.0010904.007635-.00153215-.007635.00153215-.042166.00850143c3.562178-.72034698 7.082885-1.04476845 10.570236-1.04476845h.743746l118.049247 2.20226094c1.151079.02140646 2.300697.0924984 3.445644.21307724l451.883444 47.58963372c.176385.0185759.352646.0383247.528768.0592451 10.927685 1.2980251 21.009872 6.0857799 28.898837 13.5348346 7.506725 7.088129 12.691131 16.2607199 15.003249 26.3351098.004197.0182877.008381.0365784.012553.054872l37.879767 166.1221206c1.090347 4.781728 1.492168 9.694673 1.193294 14.590023l-36.48729 597.635392c-.68451 11.21177-5.015277 21.89245-12.332497 30.41481l-9.687436 11.282949c-7.147158 8.32429-17.399823 13.347418-28.357812 13.893454l-522.22913 26.02265c-1.4068.070101-2.816321.065845-4.222672-.01275l-45.388004-2.53654c-2.221407-.124543-4.430984-.390889-6.615442-.795837l.036804.006803.00632.001164-.005096-.000939-67.727759-12.474457zm72.698315-893.8924519-.012867.0025866-63.239853 12.7051753c-.792169.1580162-1.572283.3919711-2.328642.6983246l-21.373261 8.6332206-.009617.0038822c-2.439823.9824492-4.547162 2.6801424-6.007855 4.8396917l-.007467.0110109-17.453115 25.7269655-.007401.0109041c-1.370646 2.0144024-2.104472 4.3392054-2.104472 6.6679004v753.324141c0 2.527224.864118 5.044984 2.45886 7.165325l.004858.006471 15.107773 20.138904 2.976012 3.446051c1.266106 1.466079 2.881803 2.588839 4.697362 3.264234l19.610565 7.295203c.718507.26804 1.45104.470388 2.192825.606166l67.73338 12.475491.013927.002567c.519179.096244 1.041523.15921 1.563671.188485l45.380856 2.53614 522.22913-26.022651 9.687436-11.282948c1.634844-1.904102 2.602442-4.290424 2.755378-6.795404l36.48729-597.635392c.066776-1.09374-.023001-2.191411-.266611-3.259764l-37.879767-166.122121c-1.13862-4.961209-4.926323-8.5375698-9.633821-9.0967414l-451.883444-47.5896337-118.049246-2.195345c-.879397 0-1.76544.0739249-2.641884.2511602zm129.190309-3.4018757 140.363029 307.6595846c1.114228 2.44226 1.199752 5.229946.237332 7.735916l-217.644911 566.708139c-1.980052 5.1557-7.764722 7.73007-12.920421 5.750018-5.1557-1.980052-7.730071-7.764722-5.750018-12.920421l216.14029-562.790381-138.621078-303.8414264c-2.292376-5.0246248-.077451-10.9562263 4.947174-13.2486027s10.956226-.0774514 13.248603 4.9471735zm139.962251 304.7244966 107.033317 96.524749c.824196.743276 1.51891 1.61857 2.055656 2.589992 33.430803 60.504207 59.377777 105.670281 78.62177 136.780717.00507.008196.010129.0164.015175.024611 19.002144 30.918917 49.143748 76.87195 92.970966 141.856268.714388 1.059251 1.219174 2.245588 1.487049 3.494831l35.465389 165.393982c1.157941 5.400095-2.281004 10.716433-7.681098 11.874373-5.400094 1.157941-10.716432-2.281004-11.874373-7.681098l-35.061138-163.508744c-43.401558-64.370818-73.315181-109.992698-92.338169-140.944888-19.287769-31.181827-45.1043-76.101151-78.294131-136.144677l-105.794633-95.40768c-4.101387-3.698711-4.42782-10.021941-.729108-14.123328 3.698711-4.101387 10.021941-4.42782 14.123328-.729108zm364.300384-92.620565c5.3021 1.545825 8.347162 7.097166 6.801337 12.399266l-30.198529 103.57936c-1.545826 5.3021-7.097167 8.347162-12.399267 6.801337-5.3021-1.545826-8.347162-7.097167-6.801337-12.399267l30.198529-103.57936c1.545826-5.3021 7.097166-8.347162 12.399267-6.801336zm-119.498603 91.139889 14.664445 34.551627 68.785937-22.035146c5.259568-1.68487 10.889148 1.212996 12.574018 6.472564s-1.212996 10.889148-6.472564 12.574017l-77.476585 24.819141c-4.922899 1.57702-10.236352-.857916-12.255952-5.616397l-14.619673-34.446136-44.22662 14.776538 10.984416 36.190842c1.490566 4.911036-.978604 10.153162-5.714237 12.131505l-87.887353 36.715533c-5.096039 2.128905-10.953013-.276433-13.081917-5.372471-2.128905-5.096039.276433-10.953013 5.372471-13.081917l79.548379-33.231871-11.18443-36.849836c-1.572597-5.181306 1.264417-10.673066 6.400056-12.388932l62.21548-20.786789c4.948186-1.653236 10.335879.775306 12.374129 5.577728zm86.691335 12.977979c5.483589.657343 9.396033 5.635553 8.738689 11.119141-7.185062 59.938071-14.529233 112.677895-22.035823 158.238539-7.393577 44.765004-19.776139 111.716387-36.927627 199.596358-1.05793 5.420574-6.309796 8.957196-11.730371 7.899265-5.420574-1.057931-8.957196-6.309797-7.899265-11.730371 17.117517-87.705914 29.468893-154.488676 36.823958-199.020503 7.454717-45.245807 14.759169-97.700404 21.911298-157.36374.657343-5.483589 5.635553-9.396033 11.119141-8.738689zm-98.190226 316.456532 51-19.527617-14.475982 76zm-469.080011-649.4969431c5.509718.380597 9.667692 5.1556406 9.287095 10.6653584s-5.155641 9.6676918-10.665359 9.2870948c-5.309289-.3667519-9.597885-.0291283-12.915235.8876035-2.630956.7270506-4.5243 1.7756004-5.888996 3.1010328-2.449826 2.3793415-3.737564 6.3305566-3.737564 12.0066147v828.0623949c0 6.981121 1.120815 13.215451 3.561663 17.679871 1.298172 2.374414 2.914704 4.140862 4.936151 5.363947 2.3958 1.449589 5.544711 2.263947 9.716363 2.263947 5.522847 0 10 4.477153 10 10 0 5.522848-4.477153 10-10 10-7.699944 0-14.431507-1.740889-20.0698-5.152362-5.183395-3.136235-9.207337-7.533356-12.131181-12.881196-2.395375-4.381248-3.990976-9.273027-4.941812-14.561873-.747417-4.157373-1.071384-8.411963-1.071384-12.712334v-828.0623949c0-4.869289.62543-9.4202502 1.992654-13.615356 1.597493-4.9016494 4.180421-9.2124752 7.81067-12.7382786 7.684392-7.4633027 19.138914-10.6286987 34.116735-9.5940696zm-80.919989 156.6372561v92.33207l32-4.829263v-94.170737zm-24.5-116.66793v829c0 5.522847-4.477153 10-10 10s-10-4.477153-10-10v-829c0-5.5228475 4.477153-10 10-10s10 4.4771525 10 10zm9.5 0v829c0 11.045695-8.954305 20-20 20s-20-8.954305-20-20v-829c0-11.045695 8.954305-20 20-20s20 8.954305 20 20z"/></svg>