<svg height="960" viewBox="0 0 960 960" width="960" xmlns="http://www.w3.org/2000/svg"><path d="m271.380814 7.05922044 448.834508 39.79480466c34.164174 3.0290822 60.35832 31.6484222 60.35832 65.9466169v706.51167c0 51.813055-39.322302 95.167006-90.889524 100.208272l-351.167848 34.330541c-5.08434.49705-10.189882.746019-15.29846.746019-8.117916 0-16.17096-.618575-24.105626-1.841984l-.73556-.117176-.44508-.032335c-1.291112-.104441-2.584577-.272236-3.876292-.505022l-.484303-.090344-43.805844-8.449582c-3.380315-.652019-6.592418-1.718345-9.587674-3.140242l-.249807-.120475-.790522-.275761c-45.402073-16.194315-76.151912-59.930589-75.002281-109.144298l.047542-1.572484 1.801261-48.530457-.000114-726.2372399c0-18.1715394 12.243809-34.0344196 29.766963-38.6689558l.532613-.1369944 16.236149-4.0585922c19.226519-4.80610296 39.120903-6.36623957 58.861579-4.61598126zm-7.479318 39.55077736.072117.1693412c4.561129 10.7478266 6.487486 25.7910515 6.13062 45.3893994-.328732 18.0532846-.483105 89.3492516-.49495 202.6098436l-.000048 28.792846c.000131 1.37529.00028 2.755962.000447 4.141999l.000875 6.273328c.000332 2.103144.000706 4.218302.001121 6.345418l.000884 4.270158c.008286 37.86027.029292 79.440778.062126 124.426271.043139 59.103725.10527 121.805758.182988 187.858325.023782 20.212166.056673 46.243176.090739 72.605841l.006606 5.105119.004237 3.267539c.067128 51.722006.135551 102.486474.145419 110.895746l.000758.66865.000456.518822c0 13.664122 3.798376 29.785775 11.463568 41.926504 8.005377 12.679541 19.625585 20.576667 35.959582 22.58495 1.884774.091498 3.781452.137046 5.688769.137046 3.808969 0 7.615674-.185632 11.406571-.556234l351.167848-34.330541c31.080868-3.038498 54.781413-29.16902 54.781413-60.398057v-706.51167c0-13.5758735-10.368138-24.9039489-23.890964-26.1029169l-448.834508-39.7948047c-1.314813-.1165746-2.630506-.214205-3.946674-.2929226zm-24.511979.7190217-.635025.0758726c-5.560116.6869964-11.082122 1.7132315-16.534833 3.0762598l-16.236149 4.0585922v726.9673399l-1.828654 49.283528c-1.276728 34.40871 21.443005 64.143634 53.184851 73.076363l.001238.417695 9.740039 1.879395c-.835208-1.172011-1.642883-2.376134-2.422961-3.611683-9.896377-15.674653-14.552132-35.435326-14.552132-52.603738l-.000456-.517359-.000743-.655288c-.000305-.259789-.000667-.560523-.001083-.900959l-.000905-.73344c-.014657-11.784595-.077558-58.555207-.140179-106.747079l-.004174-3.214529-.006616-5.105647c-.035233-27.227851-.069489-54.293714-.094045-75.163884-.077722-66.055344-.139855-128.760269-.182996-187.867259-.034129-46.75832-.055513-89.825339-.063121-128.857965l-.000775-4.242084c-.00012-.704341-.000235-1.407344-.000346-2.109008l-.000611-4.193886c-.000093-.696295-.000181-1.391247-.000264-2.084853l-.000217-34.429675c.013144-112.485111.168327-183.205819.498188-201.3211101.343834-18.8826506-1.672725-32.1133314-5.551696-39.3241324-1.508603-2.8044135-3.085562-4.459467-5.166335-5.151467zm243.736468 136.2720845.279857.006444 55.160789 2.027958c5.519119.202907 9.82876 4.841526 9.625853 10.360645-.202908 5.519119-4.841527 9.82876-10.360646 9.625852l-55.160789-2.027957c-5.519119-.202908-9.828759-4.841527-9.625852-10.360645.196029-5.33203 4.532141-9.535191 9.802553-9.63106z"/></svg>