<?xml version="1.0" encoding="UTF-8"?>
<svg width="960px" height="960px" viewBox="0 0 960 960" version="1.1" xmlns="http://www.w3.org/2000/svg" xmlns:xlink="http://www.w3.org/1999/xlink">
    <title>com.blueriiot/assets/icon</title>
    <g id="com.blueriiot/assets/icon" stroke="none" stroke-width="1" fill="none" fill-rule="evenodd">
        <g id="Group" transform="translate(168.115625, 92.000000)" fill="#000000">
            <path d="M127.277021,12.091298 L127.277021,281.34583 L132.974473,281.34583 C132.974473,281.34583 189.779432,197.398581 326.213073,197.398581 C485.30087,197.398581 622.853653,303.975677 622.853653,486.572799 C622.853653,669.136044 485.30087,775.71314 326.213073,775.71314 C189.779432,775.71314 132.974473,691.799769 132.974473,691.799769 L127.277021,691.799769 L127.277021,764.364339 L0,764.364339 L0,12.091298 L127.277021,12.091298 Z M308.654481,313.107889 C199.417274,313.107889 126.603784,384.592093 126.603784,486.717226 C126.603784,588.808464 199.417274,660.292668 308.654481,660.292668 C417.857743,660.292668 490.705178,588.808464 490.705178,486.751121 C490.705178,384.592093 417.857743,313.107889 308.654481,313.107889 Z" id="Combined-Shape"></path>
            <path d="M454.884375,0 C500.359488,0 529.884375,26.342668 529.884375,66.4661405 C529.884375,106.657332 500.359488,133 454.884375,133 C409.409262,133 379.884375,106.657332 379.884375,66.4661405 C379.884375,26.342668 409.409262,0 454.884375,0 Z" id="Path"></path>
            <path d="M253.884375,0 C299.291615,0 328.884375,26.342668 328.884375,66.4661405 C328.884375,106.657332 299.291615,133 253.884375,133 C208.409262,133 178.884375,106.657332 178.884375,66.4661405 C178.884375,26.342668 208.409262,0 253.884375,0 Z" id="Path"></path>
        </g>
    </g>
</svg>