<svg height="960" viewBox="0 0 960 960" width="960" xmlns="http://www.w3.org/2000/svg"><path d="m480 67c263.439826 0 477 213.560174 477 477v185.255927c0 22.152458-8.546964 43.932848-23.381362 64.45366-12.552836 17.364667-29.675131 33.813097-49.698296 48.140404-41.362708 29.596531-91.83173 48.150009-137.652309 48.150009h-531.44009c-88.382974 0-193.3058626-69.856127-208.83380153-142.213781l-.36814147-1.829219-.04419316-.135129c-1.62409378-5.158327-2.50007633-10.555649-2.58180684-16.038101v-186.107815l.0598581-7.226594c.0008761-.108141.00219074-.216278.00394391-.324409 4.21748888-260.122437 216.43387199-469.124952 476.93619799-469.124952zm430.403164 688.065965-859.8025946.000052c22.6018765 46.610458 99.0880836 94.933983 164.2273736 94.933983h531.44009c65.102717 0 141.545985-48.323562 164.135131-94.934035zm6.380169-100.374298h-873.5666663l-.2166667-.003667v74.312c0 2.147457.4230628 4.196103 1.1904914 6.066899l872.4415486-.001425c.243533-1.954742.36796-3.892618.36796-5.809547l.000422-74.56657c-.072177.001537-.144543.00231-.217089.00231zm-436.783333-547.691667c-238.934951 0-433.082399 191.758098-436.9414545 429.773406l-.0585455 7.226594.0005759 90.693955c.0718464-.001523.1438792-.002288.2160908-.002288h873.5666663l.216667.002333v-90.694c0-241.348436-195.651564-437-437-437z"/></svg>