<svg height="960" viewBox="0 0 960 960" width="960" xmlns="http://www.w3.org/2000/svg"><path d="m208.38014 39.0521196 631.825581 20.5913128c5.189593.1691298 10.109994 2.3498964 13.720805 6.0811859l97.445737 100.6971137c3.609671 3.730111 5.627737 8.717492 5.627737 13.908201v632.315778c0 55.963566-45.152308 102.622427-101.077224 104.44503l-641.255814 20.898646c-.282118.009195-.563773.020781-.844797.009703l-.089165-.00209-.046782.002847c-1.621293.052404-3.281763-.093791-4.954696-.460504l-.38627-.088551-98.511229-23.574615c-4.186572-1.001884-7.806716-3.282416-10.4777518-6.373778l-.0562712-.066399-.1280109-.105196c-.3361576-.281651-.6638983-.575073-.9825744-.879999l-.3156307-.30875-88.01599996-88.017c-3.75067842-3.750721-5.85778404-8.837765-5.85778404-14.142055v-641.254318c0-50.520651 37.0453253-93.1751288 86.5352098-100.5989906l-.7352098.1153086 85.674021-18.7810963c.487532-.1068752.974175-.1950454 1.459248-.2650382l.223731-.0298655.504109-.1543475c9.867301-2.9542352 20.201916-4.3052876 30.719031-3.9625329zm-21.911934 43.1541686c-2.03751.7242468-4.093718 1.0984897-6.112473 1.1608675l-.118733.0028443-21.589121 4.7318485c-13.926164 13.5299225-22.647879 33.1746215-22.647879 55.3953015v679.50285l70.533 72.887006 4.517 1.081994.308445-.030593c2.466013-.21817 4.987739.01705 7.43186.762598l.377695.119995 635.45186-20.709033c34.006593-1.108281 61.818907-29.508252 62.38014-63.436459v-625.252508l-86.189-89.065-623.733776-20.3271059c-7.146319-.2328999-14.077472.8537122-20.609018 3.1753941zm-57.850557 12.4762259-30.8328496 6.7619789c-.2904867.063679-.5823395.120868-.8753403.171525l-.4403348.071083c-29.9792649 4.497119-52.4691243 30.392241-52.4691243 61.041581v632.969318l77.658 77.659.282516.112819c2.024724.82447 3.8854 1.971407 5.517168 3.378204l.182316.158977 42.672 10.212006-51.498174-53.218298c-1.804809-1.865051-2.813826-4.358723-2.813826-6.954056v-683.549502c0-17.927281 4.59569-34.610054 12.617649-48.8146359zm418.382351 289.3174859c14.070516 0 25.476923 11.394599 25.476923 25.45054l-.000923 16.54946h20.46136c3.900589 0 7.06264 3.134007 7.06264 7s-3.162051 7-7.06264 7h-20.46136v9h9.375291c3.948123 0 7.148709 3.134007 7.148709 7s-3.200586 7-7.148709 7h-9.375291l.000923 29.780597.138301.091897c12.42826 8.326927 20.212369 22.29893 20.381948 37.662497l.002828.512628c0 25.378799-20.594902 45.952381-46 45.952381s-46-20.573582-46-45.952381c0-15.565316 7.818734-29.756223 20.385487-38.175602l.13759-.09142v-83.330048c0-13.91539 11.179419-25.222391 25.055615-25.447139zm0 14.139194c-6.253563 0-11.323077 5.064266-11.323077 11.311308l.000587 87.3243.000028 4.226526-3.726806 2.000796c-10.262822 5.509762-16.796886 16.198305-16.796886 28.045495 0 17.569938 14.258009 31.813187 31.846154 31.813187s31.846154-14.243249 31.846154-31.813187c0-11.846957-6.533805-22.535321-16.796311-28.045185l-3.726643-2.000808-.000253-42.91515c-.209868-.658996-.322947-1.359805-.322947-2.086476s.113079-1.42748.322947-2.086476l.00013-44.462975c0-6.247089-5.069514-11.311355-11.323077-11.311355zm.5 25.860806c1.932997 0 3.5 1.567003 3.5 3.5l.000851 88.896995c6.874275 1.58704 11.999149 7.746533 11.999149 15.103005 0 8.560414-6.939586 15.5-15.5 15.5s-15.5-6.939586-15.5-15.5c0-7.356829 5.125372-13.516563 12.00015-15.103236l-.00015-88.896764c0-1.932997 1.567003-3.5 3.5-3.5z"/></svg>