<?xml version="1.0" encoding="utf-8"?>
<!-- Generator: Adobe Illustrator 20.0.0, SVG Export Plug-In . SVG Version: 6.00 Build 0)  -->
<svg version="1.1" id="Layer_1" xmlns="http://www.w3.org/2000/svg" xmlns:xlink="http://www.w3.org/1999/xlink" x="0px" y="0px"
	 viewBox="0 0 197.75 305.06" style="enable-background:new 0 0 197.75 305.06;" xml:space="preserve">
<g>
	<path d="M183.08,4.19C156.54,1.41,128.21,0,98.88,0c-29.34,0-57.67,1.41-84.3,4.21C2.67,6.3,0.08,11.65,0,15.8v276.88
		c0,6.83,5.23,12.38,11.66,12.38h174.44c6.43,0,11.66-5.55,11.66-12.38V15.77C197.67,11.65,195.08,6.3,183.08,4.19z M184.93,85.82
		c1.44,23.89,2.8,46.45,2.68,62.05c-0.2,25.52-2.1,48.16-3.94,70.06c-2.17,25.93-4.42,52.74-3.82,84.3H17.9
		c0.6-31.56-1.64-58.37-3.82-84.3c-1.84-21.89-3.74-44.53-3.94-70.06c-0.12-15.6,1.24-38.17,2.68-62.05
		c1.37-22.74,2.79-46.26,2.79-63.04v-0.2c0-5.29,0-7.28,10.4-8.65c13.44-1.77,41.36-2.87,72.86-2.87c31.51,0,59.43,1.1,72.86,2.87
		c10.41,1.37,10.41,3.35,10.4,8.65v0.2C182.14,39.55,183.56,63.07,184.93,85.82z M194.92,292.68c0,5.26-3.96,9.55-8.82,9.55h-4.82
		c-0.6-31.5,1.64-58.28,3.81-84.19c1.84-21.92,3.74-44.59,3.94-70.16c0.12-15.65-1.24-38.23-2.68-62.15
		c-1.37-22.72-2.79-46.22-2.79-62.96v-0.2c0-5.91-0.47-8.58-11.64-10.05c-13.7-1.81-41-2.89-73.05-2.89
		c-32.04,0-59.35,1.08-73.05,2.89c-11.17,1.47-11.64,4.15-11.64,10.05v0.2c0,16.74-1.42,40.24-2.79,62.96
		c-1.44,23.91-2.8,46.5-2.68,62.15c0.2,25.58,2.1,48.25,3.94,70.17c2.17,25.9,4.41,52.68,3.81,84.19h-4.82
		c-4.86,0-8.82-4.28-8.82-9.55l0-276.86c0.08-4.45,4.2-7.42,12.13-8.81c26.44-2.77,54.67-4.18,83.91-4.18S156.34,4.24,182.69,7
		c8.03,1.41,12.15,4.38,12.23,8.8V292.68z"/>
	<path d="M137.22,48.05l-0.21-0.02c-3.88-0.4-19.61-0.83-38.27-0.83c-20.56,0-35.8,0.52-38.65,0.89l0,0
		c-4.32,0.49-7.57,4.13-7.57,8.47v44.12c0,1.03,0.18,2.04,0.53,2.96c2.17,7.19,15.79,10.57,45.61,11.3
		c23.61-0.56,36.72-2.72,42.47-6.96c2.54-1.54,4.12-4.34,4.12-7.29V56.56C145.24,52.08,141.67,48.31,137.22,48.05z M143.82,100.68
		c0,2.46-1.32,4.79-3.49,6.12c-5.55,4.09-18.42,6.16-41.68,6.72c-24.98-0.61-38.55-3.1-42.92-8l0.06-0.06l-0.03,0.02l0.02-0.03
		l-0.06,0.05c-0.64-0.72-1.09-1.5-1.34-2.33c-0.3-0.8-0.46-1.64-0.46-2.5V56.56c0-3.62,2.71-6.66,6.29-7.06l0.01,0l-0.03-0.47
		l0.08,0.47c2.62-0.36,17.83-0.88,38.47-0.88c18.29,0,33.74,0.41,37.92,0.8l0.28,0.04c3.8,0.12,6.89,3.3,6.89,7.11V100.68z"/>
	<path d="M63.52,91.74h68.66V58.37H63.52V91.74z M64.93,59.79h65.83v30.53H64.93V59.79z"/>
	<path d="M98.41,99.03c-2.98,0-5.4,2.42-5.4,5.4c0,2.98,2.42,5.4,5.4,5.4s5.4-2.42,5.4-5.4C103.81,101.45,101.38,99.03,98.41,99.03z
		 M98.41,108.42c-2.2,0-3.98-1.79-3.98-3.98s1.79-3.98,3.98-3.98s3.98,1.79,3.98,3.98S100.6,108.42,98.41,108.42z"/>
	<path d="M97.74,250.23c-0.78,0-1.42,0.63-1.42,1.42v29.71c0,0.78,0.63,1.42,1.42,1.42s1.42-0.63,1.42-1.42v-29.71
		C99.16,250.87,98.52,250.23,97.74,250.23z"/>
	<circle cx="86.12" cy="259.58" r="2.18"/>
	<circle cx="86.12" cy="273.1" r="2.18"/>
	<circle cx="109.36" cy="259.58" r="2.18"/>
	<circle cx="109.36" cy="273.1" r="2.18"/>
	<path d="M97.72,226.29c0.12-0.12,0.12-0.12-0.01-0.24c-0.29-0.26-0.58-0.51-0.87-0.76c-0.13-0.11-0.13-0.11-0.25,0.01
		c-0.37,0.36-0.79,0.65-1.3,0.79c-0.47,0.13-0.95,0.17-1.43,0.13c-0.99-0.09-1.92-0.74-2.21-1.88c-0.04-0.16-0.07-0.32-0.07-0.49
		c0-0.08,0.03-0.11,0.1-0.11c0.06,0,0.12,0,0.18,0c0.98,0,1.97,0,2.95,0c0.69,0,1.38,0,2.06,0c0.33,0,0.67,0,1,0
		c0.23,0,0.23,0,0.23-0.24c0-0.2-0.02-0.39-0.03-0.59c-0.04-0.68-0.18-1.33-0.46-1.95c-0.45-0.99-1.19-1.68-2.24-1.99
		c-0.65-0.19-1.32-0.22-1.99-0.13c-1.12,0.15-2.02,0.67-2.68,1.59c-0.47,0.66-0.71,1.4-0.8,2.21c-0.09,0.8-0.03,1.58,0.24,2.34
		c0.43,1.24,1.27,2.09,2.52,2.51c0.82,0.27,1.67,0.26,2.51,0.15C96.18,227.49,97.01,227,97.72,226.29z M91.63,222.23
		c0.18-1.04,0.91-1.76,1.89-1.94c0.64-0.11,1.26-0.05,1.84,0.28c0.68,0.39,1.01,1.01,1.11,1.77c0.01,0.08-0.03,0.09-0.09,0.09
		c-0.22,0-0.44,0-0.66,0c-0.56,0-1.12,0-1.68,0c-0.75,0-1.49,0-2.24,0C91.61,222.43,91.6,222.43,91.63,222.23z"/>
	<path d="M77.45,216.72c-0.5-0.2-1.02-0.31-1.56-0.36c-0.15-0.01-0.15,0-0.15,0.14c0,0.46,0,0.92,0,1.38c0,0.12,0.04,0.14,0.15,0.16
		c1.22,0.2,2.16,0.83,2.76,1.92c0.64,1.15,0.7,2.35,0.28,3.58c-0.66,1.94-2.49,2.76-4.28,2.41c-1.27-0.25-2.17-1.04-2.74-2.2
		c-0.22-0.44-0.33-0.9-0.37-1.39c-0.01-0.15-0.02-0.15-0.17-0.15c-0.24,0-0.48,0-0.73,0c-0.26,0-0.51,0-0.77,0
		c-0.11,0-0.15,0.04-0.14,0.14c0.02,0.14,0.02,0.29,0.04,0.43c0.19,1.29,0.71,2.42,1.65,3.34c0.95,0.93,2.1,1.45,3.42,1.57
		c0.86,0.07,1.7-0.02,2.52-0.31c1.39-0.5,2.43-1.41,3.06-2.76c0.56-1.2,0.71-2.46,0.45-3.75C80.48,218.88,79.34,217.49,77.45,216.72
		z"/>
	<path d="M114.06,218.79c-2.41-0.02-4.5,1.94-4.5,4.44c-0.01,2.47,1.87,4.46,4.44,4.47c2.54,0.01,4.52-2.12,4.46-4.48
		C118.5,220.85,116.61,218.82,114.06,218.79z M115.95,225.37c-0.44,0.48-0.98,0.76-1.64,0.83c-1.51,0.16-2.54-0.85-2.9-1.96
		c-0.1-0.32-0.16-0.66-0.15-1c0.02-0.98,0.36-1.81,1.15-2.43c1.08-0.85,2.82-0.72,3.75,0.57
		C117.05,222.61,116.93,224.3,115.95,225.37z"/>
	<path d="M108.09,222.92c0-0.21,0-0.21-0.21-0.21c-0.58,0-1.16,0-1.75,0c-0.6,0-1.19,0-1.79,0c-0.11,0-0.17,0.02-0.16,0.15
		c0.01,0.12,0,0.24,0,0.36c0,0.26,0,0.51,0,0.77c0,0.09,0.02,0.15,0.12,0.13c0.05,0,0.09,0,0.14,0c0.59,0,1.18,0,1.77,0
		c0.17,0,0.18,0,0.16,0.18c-0.04,0.45-0.24,0.84-0.54,1.17c-1.12,1.21-3.11,0.97-4-0.33c-0.56-0.82-0.69-1.72-0.48-2.68
		c0.13-0.58,0.42-1.08,0.85-1.49c0.87-0.83,2.35-0.92,3.35-0.43c0.34,0.17,0.64,0.39,0.92,0.66c0.07,0.07,0.12,0.08,0.2,0
		c0.29-0.29,0.58-0.58,0.87-0.86c0.07-0.07,0.07-0.11,0-0.18c-0.45-0.44-0.96-0.8-1.55-1.04c-0.81-0.32-1.65-0.38-2.51-0.28
		c-1.15,0.14-2.12,0.62-2.88,1.5c-0.64,0.73-0.95,1.6-1.02,2.56c-0.04,0.52,0.01,1.04,0.13,1.55c0.23,0.94,0.68,1.74,1.45,2.34
		c1.09,0.84,2.35,1.08,3.68,0.84c1.42-0.25,2.36-1.13,2.89-2.47C108.02,224.44,108.1,223.69,108.09,222.92z"/>
	<path d="M126.7,223.02c0.02,0.35,0,0.71,0,1.07c0,1.07,0,2.15,0,3.22c0,0.2,0,0.2,0.2,0.2c0.43,0,0.86,0,1.29,0
		c0.18,0,0.19,0,0.19-0.18c0-0.74,0-1.48,0-2.22c0-0.65,0-1.3,0-1.95c0-0.59-0.09-1.16-0.28-1.71c-0.36-1.03-1-1.82-2.01-2.27
		c-0.9-0.4-1.84-0.47-2.79-0.28c-1.51,0.3-2.47,1.23-2.96,2.68c-0.21,0.62-0.25,1.27-0.25,1.92c0,1.25,0,2.49,0,3.74
		c0,0.05,0,0.09,0,0.14c-0.01,0.1,0.04,0.13,0.13,0.13c0.48,0,0.95,0,1.43,0c0.09,0,0.12-0.04,0.12-0.12c0-0.05,0-0.09,0-0.14
		c0-1.32,0-2.63,0-3.95c0-0.36,0.03-0.72,0.13-1.08c0.15-0.57,0.42-1.08,0.9-1.45c0.34-0.26,0.72-0.4,1.14-0.44
		c0.86-0.09,1.6,0.16,2.14,0.85C126.51,221.72,126.67,222.35,126.7,223.02z"/>
	<path d="M84.39,227.5c0.24,0,0.24,0,0.24-0.25c0-1.32,0-2.65,0-3.97c0-0.39,0.04-0.77,0.15-1.14c0.32-1.1,1.22-1.79,2.35-1.8
		c0.48,0,0.95,0.07,1.37,0.31c0.11,0.06,0.14,0.02,0.17-0.07c0.11-0.33,0.23-0.65,0.33-0.99c0.04-0.13,0.17-0.28,0.1-0.4
		c-0.07-0.11-0.25-0.13-0.38-0.17c-0.7-0.24-1.42-0.28-2.14-0.18c-0.89,0.12-1.67,0.47-2.31,1.09c-0.87,0.84-1.27,1.89-1.3,3.09
		c-0.02,0.68,0,1.36,0,2.04c0,0.74,0,1.48,0,2.22c0,0.25-0.01,0.21,0.22,0.22C83.59,227.5,83.99,227.5,84.39,227.5z"/>
	<path d="M71.45,216.91c0.77-0.6,1.64-0.96,2.61-1.11c0.21-0.03,0.42-0.03,0.63-0.06c0.12-0.02,0.15-0.06,0.15-0.17
		c-0.01-0.32,0-0.63,0-0.95c0-0.17,0-0.17-0.18-0.17h-0.02c-0.38,0-0.75,0.06-1.12,0.13c-1.26,0.25-2.37,0.82-3.32,1.68
		c-0.79,0.72-1.38,1.58-1.78,2.56c-0.23,0.57-0.38,1.17-0.45,1.79c-0.02,0.18-0.05,0.37-0.05,0.55v0.01c0,0.02,0,0.03,0,0.04
		c0,0.1,0.04,0.13,0.13,0.13c0.18,0,0.36,0,0.54,0v0c0.17,0,0.35-0.01,0.52,0c0.12,0,0.16-0.04,0.16-0.16
		c-0.02-0.33,0.04-0.65,0.11-0.96C69.67,218.88,70.36,217.76,71.45,216.91z"/>
	<path d="M97.01,235.4c0.21-0.01,0.42-0.01,0.63,0c0.09,0,0.12-0.03,0.12-0.12c0-0.04,0-0.08,0-0.11c0-1.03,0-2.06,0-3.08
		c0-0.04,0-0.08,0-0.11c0.01-0.08-0.04-0.1-0.11-0.1c-0.16,0-0.32,0-0.48,0c-0.06,0-0.1,0.02-0.1,0.09c0,0.05,0,0.11,0,0.16
		c0,0.73,0,1.47,0,2.2c0,0.03,0.02,0.07-0.02,0.07c-0.04,0.01-0.05-0.03-0.06-0.06c-0.16-0.31-0.32-0.63-0.48-0.95
		c-0.23-0.46-0.47-0.91-0.69-1.37c-0.05-0.11-0.11-0.16-0.24-0.15c-0.19,0.01-0.38,0-0.57,0c-0.16,0-0.16,0-0.16,0.16
		c0,0.54,0,1.07,0,1.61c0,0.53,0,1.06,0,1.59c0,0.16,0,0.17,0.16,0.17c0.13,0,0.26,0,0.39,0c0.16,0,0.17-0.01,0.17-0.17
		c0-0.42,0-0.83,0-1.25c0-0.33,0-0.65,0-0.97c0-0.03,0.01-0.08,0.01-0.08c0.04-0.01,0.06,0.04,0.08,0.07
		c0.15,0.3,0.31,0.6,0.46,0.91c0.23,0.44,0.45,0.89,0.68,1.33C96.84,235.31,96.87,235.4,97.01,235.4z"/>
	<path d="M74.7,216.82c-0.21,0.05-0.43,0.03-0.65,0.08c-0.85,0.17-1.61,0.54-2.25,1.12c-0.66,0.61-1.1,1.35-1.33,2.21
		c-0.09,0.33-0.13,0.66-0.15,1c-0.01,0.1,0.02,0.15,0.14,0.15c0.26-0.01,0.51-0.01,0.77,0c0.11,0,0.17-0.03,0.17-0.15
		c0-0.26,0.06-0.52,0.14-0.77c0.26-0.88,0.78-1.56,1.55-2.04c0.5-0.31,1.05-0.47,1.64-0.52c0.11-0.01,0.14-0.05,0.14-0.15
		c-0.01-0.13,0-0.26,0-0.39c0-0.14-0.01-0.27,0-0.41C74.85,216.83,74.8,216.79,74.7,216.82z"/>
	<path d="M90.29,234.82c-0.35,0-0.71,0-1.06,0c-0.09,0-0.14-0.02-0.13-0.12c0.01-0.23,0.01-0.47,0-0.7c0-0.12,0.05-0.14,0.15-0.13
		c0.23,0.01,0.47,0,0.7,0c0.41,0,0.41,0,0.4-0.4c-0.01-0.18-0.01-0.18-0.19-0.18c-0.31,0-0.62,0-0.93,0c-0.08,0-0.13-0.01-0.12-0.11
		c0.01-0.2,0-0.41,0-0.61c0-0.07,0.02-0.12,0.1-0.11c0.05,0,0.09,0,0.14,0c0.32,0,0.65-0.01,0.97,0c0.12,0,0.16-0.04,0.15-0.16
		c-0.01-0.09-0.01-0.18,0-0.27c0.01-0.12-0.03-0.16-0.15-0.15c-0.6,0.01-1.19,0.01-1.79,0c-0.12,0-0.15,0.04-0.15,0.15
		c0.01,0.54,0,1.07,0,1.61c0,0.52,0,1.04,0,1.56c0,0.25,0.01,0.2,0.21,0.2c0.11,0,0.23,0,0.34,0c0.47,0,0.94,0,1.4,0
		c0.09,0,0.14-0.02,0.13-0.13c-0.01-0.1,0-0.2,0-0.29C90.45,234.82,90.45,234.82,90.29,234.82z"/>
	<path d="M71.19,233.37c-0.15-0.06-0.31-0.11-0.46-0.19c-0.19-0.11-0.27-0.23-0.24-0.39c0.04-0.2,0.15-0.32,0.34-0.38
		c0.21-0.06,0.4-0.01,0.6,0.02c0.1,0.02,0.22,0.13,0.29,0.06c0.06-0.07,0.05-0.21,0.07-0.32c0.01-0.04,0-0.09,0.01-0.14
		c0.01-0.08-0.02-0.1-0.09-0.12c-0.22-0.07-0.44-0.09-0.75-0.09c-0.11,0-0.3,0.01-0.48,0.06c-0.44,0.13-0.71,0.43-0.75,0.92
		c-0.03,0.43,0.13,0.75,0.54,0.96c0.16,0.08,0.33,0.14,0.5,0.21c0.13,0.05,0.27,0.11,0.37,0.21c0.18,0.17,0.17,0.41-0.03,0.56
		c-0.14,0.11-0.3,0.14-0.47,0.14c-0.24,0-0.46-0.07-0.68-0.16c-0.07-0.03-0.11-0.05-0.12,0.05c-0.01,0.15-0.04,0.3-0.05,0.45
		c0,0.08,0.03,0.11,0.09,0.13c0.14,0.03,0.28,0.07,0.42,0.09c0.42,0.05,0.85,0.04,1.23-0.17c0.54-0.3,0.65-1.13,0.2-1.56
		C71.6,233.54,71.4,233.45,71.19,233.37z"/>
	<path d="M128.39,234.82c0-0.08-0.03-0.07-0.09-0.05c-0.27,0.09-0.54,0.12-0.82,0.1c-0.41-0.04-0.71-0.23-0.89-0.6
		c-0.17-0.35-0.19-0.71-0.07-1.08c0.16-0.5,0.55-0.8,1.08-0.81c0.24,0,0.47,0.03,0.68,0.14c0.08,0.04,0.11,0.02,0.12-0.06
		c0.01-0.11,0.02-0.23,0.03-0.34c0.02-0.16,0.02-0.17-0.15-0.22c-0.46-0.14-0.92-0.13-1.38,0.01c-0.59,0.18-0.97,0.57-1.12,1.16
		c-0.08,0.31-0.1,0.64-0.05,0.96c0.09,0.58,0.39,1,0.93,1.24c0.3,0.13,0.62,0.18,0.97,0.18c0.23,0.01,0.47-0.04,0.71-0.09
		c0.07-0.01,0.1-0.04,0.1-0.1v-0.01c0-0.01,0-0.01,0-0.02C128.4,235.1,128.39,234.96,128.39,234.82z"/>
	<path d="M78.32,232.39c0.17,0.02,0.34,0.06,0.5,0.14c0.07,0.03,0.1,0.01,0.1-0.06c0.01-0.11,0.02-0.23,0.03-0.34
		c0.02-0.17,0.02-0.18-0.16-0.23c-0.45-0.13-0.91-0.12-1.36,0.01c-0.59,0.17-0.97,0.56-1.13,1.15c-0.09,0.32-0.1,0.65-0.05,0.99
		c0.08,0.48,0.3,0.87,0.72,1.12c0.35,0.21,0.74,0.28,1.18,0.28c0.14,0,0.31-0.02,0.48-0.04c0.33-0.06,0.33-0.05,0.31-0.38
		c0-0.07-0.02-0.15-0.02-0.22c0-0.07-0.03-0.06-0.08-0.04c-0.27,0.09-0.54,0.13-0.82,0.1c-0.42-0.04-0.74-0.24-0.92-0.63
		c-0.14-0.3-0.16-0.61-0.09-0.93C77.15,232.68,77.69,232.3,78.32,232.39z"/>
	<path d="M116.16,231.87c-0.54,0-1.09,0-1.63,0c-0.16,0-0.16,0-0.16,0.16c0,0.53,0,1.06,0,1.59c0,0.51,0,1.03,0,1.54
		c0,0.05,0,0.11,0,0.16c0,0.05,0.02,0.08,0.08,0.08c0.18,0,0.36,0,0.54,0c0.06,0,0.1-0.03,0.1-0.09c0-0.05,0-0.11,0-0.16
		c0-0.38,0.01-0.76,0-1.13c0-0.12,0.04-0.15,0.15-0.15c0.2,0.01,0.41,0.01,0.61,0c0.13,0,0.31,0.06,0.39-0.03
		c0.09-0.1,0.02-0.27,0.03-0.42c0.01-0.11-0.03-0.14-0.14-0.14c-0.3,0.01-0.6,0-0.91,0c-0.11,0-0.14-0.03-0.14-0.14
		c0.01-0.17,0-0.33,0-0.5c0-0.22,0-0.19,0.2-0.19c0.3,0,0.6,0,0.91,0c0.1,0,0.14-0.03,0.13-0.13c0-0.09,0-0.18,0-0.27
		C116.32,231.87,116.32,231.87,116.16,231.87z"/>
	<path d="M104.4,231.86c-0.82,0-1.65,0-2.47,0c-0.09,0-0.14,0.02-0.13,0.12c0.01,0.11,0.01,0.21,0,0.32
		c-0.01,0.11,0.04,0.14,0.14,0.14c0.23-0.01,0.47,0,0.7,0c0.16,0,0.16,0,0.16,0.16c0,0.43,0,0.86,0,1.29s0,0.86,0,1.29
		c0,0.2,0,0.2,0.19,0.2c0.12,0,0.24,0,0.36,0c0.17,0,0.18,0,0.18-0.17c0-0.37,0-0.74,0-1.11c0-0.48,0-0.95,0-1.43
		c0-0.25-0.03-0.24,0.25-0.24c0.11,0,0.21,0,0.32,0c0.13,0,0.31,0.06,0.39-0.03c0.1-0.09,0.02-0.27,0.04-0.41
		C104.55,231.89,104.51,231.86,104.4,231.86z"/>
	<path d="M121.21,231.86c-0.14,0.01-0.29,0-0.43,0c-0.16,0-0.16,0-0.16,0.16c0,0.54,0,1.07,0,1.61c0,0.21,0,0.42,0,0.63
		c0,0.32,0,0.63,0,0.95c0,0.17,0,0.17,0.18,0.17c0.13,0,0.26,0,0.39,0c0.16,0,0.16,0,0.16-0.17c0-0.66,0-1.31,0-1.97
		c0-0.42,0-0.83,0-1.25C121.35,231.91,121.33,231.86,121.21,231.86z"/>
	<path d="M83.65,231.86c-0.14,0.01-0.29,0-0.43,0c-0.16,0-0.16,0-0.16,0.16c0,0.54,0,1.07,0,1.61c0,0.23,0,0.45,0,0.68
		c0,0.3,0,0.6,0,0.91c0,0.17,0,0.17,0.18,0.17c0.12,0,0.24,0,0.36,0c0.18,0,0.18,0,0.18-0.19c0-0.73,0-1.45,0-2.18
		c0-0.34,0-0.68,0-1.02C83.78,231.91,83.76,231.86,83.65,231.86z"/>
	<path d="M74.85,219.11c0-0.16-0.02-0.18-0.17-0.16c-0.4,0.06-0.78,0.16-1.12,0.38c-0.69,0.45-1.06,1.09-1.15,1.9
		c-0.01,0.11,0.02,0.14,0.15,0.15c0.14,0,0.29,0,0.43,0c0.2,0,0.2,0,0.22-0.21c0.09-0.76,0.59-1.24,1.29-1.41
		c0.11-0.03,0.25,0.04,0.32-0.06c0.07-0.1,0.01-0.24,0.02-0.34C74.85,219.26,74.85,219.19,74.85,219.11z"/>
	<path d="M109.78,231.89c-0.16-0.06-0.33-0.02-0.49-0.03c-0.21-0.01-0.2-0.02-0.2,0.19c0,1.04,0,2.08,0,3.13c0,0.02,0,0.05,0,0.07
		c-0.01,0.1,0.03,0.15,0.14,0.15c0.13-0.01,0.26,0,0.39,0c0.17,0,0.18,0,0.18-0.17c0-0.54,0-1.07,0-1.61c0-0.42,0-0.83,0-1.25
		C109.79,232.21,109.8,232.05,109.78,231.89z"/>
	<polygon points="45.08,36.23 47.49,36.23 47.49,42.69 48.46,42.69 48.46,36.23 50.87,36.23 50.87,35.37 45.08,35.37 	"/>
	<path d="M52.66,39.79c0-0.42,0.05-0.74,0.15-0.98c0.1-0.24,0.27-0.42,0.5-0.56c0.23-0.14,0.48-0.21,0.75-0.21
		c0.35,0,0.63,0.1,0.82,0.31c0.19,0.2,0.29,0.53,0.29,0.98v3.35h0.9v-3.36c0-0.52-0.06-0.91-0.19-1.19
		c-0.12-0.27-0.33-0.48-0.62-0.64c-0.29-0.15-0.63-0.23-1.02-0.23c-0.64,0-1.16,0.24-1.58,0.73v-2.63h-0.9v7.31h0.9V39.79z"/>
	<path d="M59.66,42.8c0.61,0,1.12-0.15,1.51-0.45c0.39-0.3,0.67-0.72,0.81-1.26l-0.93-0.12c-0.14,0.38-0.32,0.66-0.55,0.83
		c-0.23,0.17-0.51,0.26-0.84,0.26c-0.44,0-0.81-0.15-1.1-0.46c-0.3-0.31-0.46-0.75-0.49-1.33h3.95c0-0.11,0.01-0.19,0.01-0.24
		c0-0.87-0.22-1.55-0.67-2.03c-0.45-0.48-1.02-0.72-1.73-0.72c-0.73,0-1.32,0.24-1.78,0.74c-0.46,0.49-0.69,1.18-0.69,2.07
		c0,0.86,0.23,1.53,0.68,2C58.28,42.56,58.89,42.8,59.66,42.8z M58.58,38.42c0.28-0.28,0.63-0.41,1.04-0.41
		c0.45,0,0.83,0.17,1.11,0.52c0.19,0.22,0.3,0.56,0.34,1h-2.95C58.15,39.07,58.3,38.7,58.58,38.42z"/>
	<path d="M64.01,39.92c0-0.38,0.05-0.73,0.15-1.05c0.07-0.21,0.18-0.37,0.33-0.49c0.15-0.12,0.33-0.18,0.53-0.18
		c0.22,0,0.44,0.06,0.65,0.18l0.32-0.83c-0.31-0.19-0.62-0.28-0.92-0.28c-0.21,0-0.4,0.06-0.58,0.18c-0.18,0.12-0.37,0.37-0.57,0.74
		v-0.81h-0.81v5.3h0.9V39.92z"/>
	<path d="M67.42,39.94c0-0.48,0.05-0.85,0.14-1.11c0.1-0.26,0.25-0.45,0.47-0.58c0.21-0.13,0.45-0.2,0.7-0.2
		c0.33,0,0.57,0.1,0.72,0.3c0.15,0.2,0.22,0.5,0.22,0.9v3.44h0.9v-3.08c0-0.54,0.12-0.94,0.37-1.19c0.25-0.25,0.56-0.37,0.93-0.37
		c0.21,0,0.39,0.05,0.54,0.14c0.15,0.1,0.26,0.22,0.32,0.38c0.06,0.16,0.09,0.42,0.09,0.77v3.34h0.9v-3.63
		c0-0.6-0.14-1.05-0.43-1.34c-0.28-0.29-0.69-0.44-1.22-0.44c-0.67,0-1.22,0.31-1.64,0.93c-0.1-0.29-0.28-0.52-0.53-0.68
		c-0.25-0.16-0.57-0.24-0.96-0.24c-0.35,0-0.67,0.08-0.94,0.24c-0.28,0.16-0.5,0.37-0.66,0.62v-0.75h-0.81v5.3h0.9V39.94z"/>
	<path d="M77.18,42.8c0.46,0,0.89-0.11,1.28-0.32c0.39-0.22,0.69-0.52,0.89-0.91c0.2-0.39,0.31-0.92,0.31-1.61
		c0-0.84-0.23-1.5-0.69-1.97c-0.46-0.48-1.06-0.71-1.79-0.71c-0.66,0-1.21,0.2-1.67,0.59c-0.55,0.47-0.82,1.2-0.82,2.18
		c0,0.89,0.23,1.58,0.69,2.05C75.84,42.56,76.44,42.8,77.18,42.8z M76.06,38.52c0.3-0.34,0.67-0.5,1.12-0.5
		c0.44,0,0.81,0.17,1.11,0.51c0.3,0.34,0.45,0.83,0.45,1.48c0,0.69-0.15,1.21-0.44,1.55c-0.3,0.34-0.67,0.51-1.11,0.51
		c-0.45,0-0.82-0.17-1.12-0.51c-0.3-0.34-0.44-0.84-0.44-1.52C75.61,39.36,75.76,38.86,76.06,38.52z"/>
	<rect x="83.19" y="39.59" width="2.78" height="0.9"/>
	<polygon points="90.91,39.24 94.69,39.24 94.69,42.69 95.66,42.69 95.66,35.37 94.69,35.37 94.69,38.39 90.91,38.39 90.91,35.37 
		89.94,35.37 89.94,42.69 90.91,42.69 	"/>
	<path d="M98.58,42.92c-0.13,0.36-0.22,0.58-0.27,0.67c-0.08,0.12-0.18,0.21-0.3,0.28c-0.12,0.07-0.28,0.1-0.48,0.1
		c-0.15,0-0.32-0.03-0.51-0.08l0.1,0.83c0.21,0.07,0.41,0.11,0.58,0.11c0.29,0,0.53-0.07,0.74-0.21c0.21-0.14,0.39-0.35,0.55-0.65
		c0.12-0.22,0.29-0.62,0.51-1.2l2-5.39h-0.9l-1.13,3.09c-0.14,0.39-0.27,0.79-0.37,1.19c-0.11-0.43-0.24-0.84-0.39-1.22l-1.11-3.06
		h-0.96l2.01,5.32C98.62,42.8,98.6,42.87,98.58,42.92z"/>
	<path d="M104.21,42.69c0.59,0,1.07-0.23,1.47-0.69c0,0.58-0.02,0.97-0.06,1.15c-0.08,0.3-0.23,0.53-0.46,0.7
		c-0.23,0.17-0.55,0.25-0.96,0.25c-0.39,0-0.69-0.08-0.91-0.25c-0.17-0.12-0.27-0.32-0.3-0.59l-0.87-0.12
		c-0.01,0.57,0.17,1,0.56,1.28c0.39,0.28,0.9,0.43,1.53,0.43c0.53,0,0.98-0.1,1.34-0.3c0.36-0.2,0.63-0.47,0.8-0.82
		c0.17-0.34,0.25-0.93,0.25-1.75v-4.58h-0.83v0.65c-0.41-0.51-0.92-0.77-1.55-0.77c-0.47,0-0.88,0.12-1.23,0.35
		c-0.35,0.23-0.61,0.56-0.79,0.99c-0.18,0.43-0.27,0.89-0.27,1.4c0,0.73,0.2,1.36,0.6,1.89C102.92,42.42,103.48,42.69,104.21,42.69z
		 M103.26,38.5c0.28-0.32,0.62-0.48,1.02-0.48c0.41,0,0.75,0.16,1.04,0.49c0.29,0.33,0.43,0.82,0.43,1.46
		c0,0.68-0.14,1.17-0.42,1.49c-0.28,0.32-0.63,0.47-1.04,0.47c-0.42,0-0.76-0.16-1.04-0.48c-0.28-0.32-0.41-0.82-0.41-1.52
		C102.84,39.31,102.98,38.83,103.26,38.5z"/>
	<path d="M108.84,39.92c0-0.38,0.05-0.73,0.15-1.05c0.07-0.21,0.18-0.37,0.33-0.49c0.15-0.12,0.33-0.18,0.53-0.18
		c0.22,0,0.44,0.06,0.65,0.18l0.32-0.83c-0.31-0.19-0.62-0.28-0.92-0.28c-0.21,0-0.4,0.06-0.58,0.18c-0.18,0.12-0.37,0.37-0.57,0.74
		v-0.81h-0.81v5.3h0.9V39.92z"/>
	<path d="M113.5,42.8c0.46,0,0.89-0.11,1.28-0.32c0.39-0.22,0.69-0.52,0.89-0.91c0.2-0.39,0.31-0.92,0.31-1.61
		c0-0.84-0.23-1.5-0.69-1.97c-0.46-0.48-1.06-0.71-1.79-0.71c-0.66,0-1.21,0.2-1.67,0.59c-0.55,0.47-0.82,1.2-0.82,2.18
		c0,0.89,0.23,1.58,0.69,2.05C112.15,42.56,112.75,42.8,113.5,42.8z M112.37,38.52c0.3-0.34,0.67-0.5,1.12-0.5
		c0.44,0,0.81,0.17,1.11,0.51c0.3,0.34,0.45,0.83,0.45,1.48c0,0.69-0.15,1.21-0.44,1.55c-0.3,0.34-0.67,0.51-1.11,0.51
		c-0.45,0-0.82-0.17-1.12-0.51c-0.3-0.34-0.44-0.84-0.44-1.52C111.93,39.36,112.08,38.86,112.37,38.52z"/>
	<path d="M123.71,41.79c-0.28,0.11-0.61,0.17-0.98,0.17c-0.42,0-0.79-0.07-1.12-0.22c-0.33-0.15-0.58-0.34-0.74-0.57
		c-0.16-0.24-0.26-0.54-0.3-0.91l-0.91,0.08c0.01,0.49,0.15,0.93,0.4,1.31c0.25,0.39,0.6,0.68,1.05,0.87c0.45,0.19,1,0.29,1.66,0.29
		c0.52,0,0.99-0.1,1.41-0.29c0.42-0.19,0.74-0.46,0.96-0.8c0.22-0.34,0.33-0.71,0.33-1.1c0-0.39-0.1-0.74-0.3-1.04
		c-0.2-0.3-0.52-0.55-0.94-0.74c-0.29-0.13-0.83-0.29-1.62-0.47c-0.79-0.18-1.27-0.35-1.46-0.52c-0.19-0.17-0.28-0.39-0.28-0.65
		c0-0.3,0.13-0.56,0.4-0.78c0.27-0.21,0.69-0.32,1.28-0.32c0.56,0,0.99,0.12,1.27,0.35c0.29,0.24,0.46,0.58,0.51,1.05l0.93-0.07
		c-0.02-0.43-0.14-0.81-0.36-1.15c-0.22-0.34-0.54-0.6-0.95-0.77c-0.41-0.18-0.89-0.26-1.43-0.26c-0.49,0-0.94,0.08-1.34,0.25
		c-0.4,0.17-0.71,0.41-0.92,0.73c-0.21,0.32-0.31,0.67-0.31,1.04c0,0.34,0.09,0.64,0.26,0.91c0.17,0.27,0.43,0.5,0.78,0.68
		c0.27,0.14,0.74,0.29,1.41,0.46c0.67,0.16,1.11,0.28,1.3,0.36c0.31,0.12,0.53,0.26,0.66,0.43c0.13,0.17,0.2,0.37,0.2,0.6
		c0,0.22-0.07,0.43-0.21,0.63C124.2,41.52,123.99,41.67,123.71,41.79z"/>
	<path d="M128.9,42.8c0.61,0,1.12-0.15,1.51-0.45c0.39-0.3,0.67-0.72,0.81-1.26l-0.93-0.12c-0.14,0.38-0.32,0.66-0.55,0.83
		c-0.23,0.17-0.51,0.26-0.84,0.26c-0.44,0-0.81-0.15-1.1-0.46c-0.3-0.31-0.46-0.75-0.49-1.33h3.95c0-0.11,0.01-0.19,0.01-0.24
		c0-0.87-0.22-1.55-0.67-2.03c-0.45-0.48-1.02-0.72-1.73-0.72c-0.73,0-1.32,0.24-1.78,0.74c-0.46,0.49-0.69,1.18-0.69,2.07
		c0,0.86,0.23,1.53,0.68,2C127.51,42.56,128.13,42.8,128.9,42.8z M127.82,38.42c0.28-0.28,0.63-0.41,1.04-0.41
		c0.45,0,0.83,0.17,1.11,0.52c0.19,0.22,0.3,0.56,0.34,1h-2.95C127.38,39.07,127.54,38.7,127.82,38.42z"/>
	<path d="M133.26,39.79c0-0.68,0.14-1.14,0.42-1.38c0.28-0.24,0.61-0.36,0.99-0.36c0.24,0,0.45,0.05,0.62,0.16
		c0.18,0.11,0.3,0.25,0.37,0.43c0.07,0.18,0.1,0.45,0.1,0.82v3.22h0.9v-3.25c0-0.42-0.02-0.71-0.05-0.87
		c-0.05-0.26-0.15-0.48-0.28-0.66c-0.13-0.19-0.33-0.34-0.6-0.45c-0.27-0.11-0.56-0.17-0.88-0.17c-0.73,0-1.3,0.29-1.68,0.86v-0.75
		h-0.81v5.3h0.9V39.79z"/>
	<path d="M139.94,42.06c-0.41,0-0.73-0.1-0.96-0.28c-0.23-0.19-0.37-0.46-0.42-0.82l-0.89,0.14c0.1,0.56,0.33,0.98,0.69,1.27
		c0.36,0.28,0.89,0.43,1.57,0.43c0.42,0,0.79-0.07,1.12-0.22c0.33-0.14,0.58-0.35,0.76-0.61c0.18-0.26,0.26-0.54,0.26-0.84
		c0-0.31-0.07-0.56-0.22-0.77c-0.14-0.2-0.34-0.36-0.59-0.47c-0.25-0.11-0.69-0.25-1.33-0.42c-0.44-0.12-0.7-0.2-0.79-0.23
		c-0.16-0.06-0.27-0.14-0.34-0.24c-0.07-0.09-0.11-0.2-0.11-0.31c0-0.18,0.09-0.34,0.26-0.48c0.18-0.14,0.47-0.2,0.88-0.2
		c0.35,0,0.62,0.08,0.81,0.23c0.19,0.16,0.31,0.37,0.35,0.65l0.88-0.12c-0.06-0.34-0.16-0.62-0.31-0.82
		c-0.15-0.2-0.38-0.37-0.7-0.49c-0.31-0.12-0.68-0.18-1.09-0.18c-0.28,0-0.53,0.04-0.77,0.11c-0.24,0.07-0.43,0.16-0.57,0.26
		c-0.19,0.13-0.33,0.3-0.44,0.5c-0.11,0.2-0.16,0.42-0.16,0.66c0,0.26,0.07,0.5,0.2,0.71c0.13,0.21,0.32,0.38,0.58,0.5
		c0.26,0.12,0.71,0.26,1.37,0.43c0.49,0.12,0.79,0.22,0.92,0.3c0.18,0.12,0.27,0.28,0.27,0.48c0,0.23-0.1,0.42-0.3,0.59
		C140.66,41.98,140.36,42.06,139.94,42.06z"/>
	<path d="M145.29,37.27c-0.66,0-1.21,0.2-1.67,0.59c-0.55,0.47-0.82,1.2-0.82,2.18c0,0.89,0.23,1.58,0.69,2.05
		c0.46,0.48,1.06,0.71,1.8,0.71c0.46,0,0.89-0.11,1.28-0.32c0.39-0.22,0.69-0.52,0.89-0.91c0.2-0.39,0.31-0.92,0.31-1.61
		c0-0.84-0.23-1.5-0.69-1.97C146.61,37.51,146.02,37.27,145.29,37.27z M146.41,41.56c-0.3,0.34-0.67,0.51-1.11,0.51
		c-0.45,0-0.82-0.17-1.12-0.51c-0.3-0.34-0.44-0.84-0.44-1.52c0-0.68,0.15-1.18,0.44-1.52c0.3-0.34,0.67-0.5,1.12-0.5
		c0.44,0,0.81,0.17,1.11,0.51c0.3,0.34,0.45,0.83,0.45,1.48C146.85,40.7,146.7,41.22,146.41,41.56z"/>
	<path d="M150.19,37.45c-0.18,0.12-0.37,0.37-0.57,0.74v-0.81h-0.81v5.3h0.9v-2.77c0-0.38,0.05-0.73,0.15-1.05
		c0.07-0.21,0.18-0.37,0.33-0.49c0.15-0.12,0.33-0.18,0.53-0.18c0.22,0,0.44,0.06,0.65,0.18l0.32-0.83
		c-0.31-0.19-0.62-0.28-0.92-0.28C150.56,37.27,150.37,37.33,150.19,37.45z"/>
</g>
</svg>
