<?xml version="1.0" encoding="utf-8"?>
<!-- Generator: Adobe Illustrator 20.0.0, SVG Export Plug-In . SVG Version: 6.00 Build 0)  -->
<svg version="1.1" id="Layer_1" xmlns="http://www.w3.org/2000/svg" xmlns:xlink="http://www.w3.org/1999/xlink" x="0px" y="0px"
	 viewBox="0 0 197.75 332.37" style="enable-background:new 0 0 197.75 332.37;" xml:space="preserve">
<style type="text/css">
	.st0{clip-path:url(#SVGID_2_);}
</style>
<g>
	<defs>
		<rect id="SVGID_1_" width="197.75" height="332.37"/>
	</defs>
	<clipPath id="SVGID_2_">
		<use xlink:href="#SVGID_1_"  style="overflow:visible;"/>
	</clipPath>
	<path class="st0" d="M183.19,4.44l-0.1-0.01C156.55,1.49,128.21,0,98.88,0S41.21,1.49,14.67,4.42l-0.1,0.01
		C2.67,6.64,0.08,12.25,0,16.59v299.23c0.08,4.31,2.67,9.92,14.56,12.12l0.1,0.01c26.54,2.93,54.88,4.42,84.21,4.42
		s57.67-1.49,84.21-4.42l0.1-0.01c11.9-2.2,14.49-7.81,14.56-12.15V16.56C197.68,12.25,195.09,6.64,183.19,4.44 M194.92,315.76
		c-0.08,4.73-4.19,7.88-12.19,9.38c-26.43,2.92-54.64,4.4-83.85,4.4s-57.42-1.48-83.85-4.4c-8.01-1.49-12.11-4.65-12.19-9.35
		l0-299.18c0.08-4.73,4.19-7.88,12.19-9.38c26.42-2.92,54.63-4.4,83.85-4.4s57.42,1.48,83.85,4.4c8.01,1.49,12.11,4.65,12.19,9.35
		V315.76z"/>
	<path class="st0" d="M173.91,154.97c-0.13-17.62,2.1-43.06,4.47-69.99c2.02-22.98,4.11-46.74,4.59-65.24
		c0.1-3.82-2.64-5.89-8.63-6.51c-23.88-2.36-49.27-3.55-75.46-3.55c-26.19,0-51.58,1.2-75.46,3.56h0c-5.98,0.62-8.73,2.69-8.63,6.51
		c0.48,18.49,2.57,42.26,4.59,65.23c2.37,26.94,4.6,52.38,4.47,70c-0.22,29.8-3.08,56.18-5.85,81.7
		c-2.49,22.95-5.06,46.69-5.71,72.86c-0.21,8.43,5.19,8.99,11.45,9.64c23.79,2.34,49.08,3.52,75.14,3.52
		c26.07,0,51.35-1.19,75.15-3.53c6.25-0.65,11.65-1.2,11.44-9.64c-0.65-26.17-3.22-49.9-5.71-72.86
		C176.99,211.16,174.13,184.77,173.91,154.97 M173.88,317.76c-23.75,2.33-48.98,3.52-75,3.52c-26.02,0-51.26-1.18-75-3.52
		c-6.99-0.72-10.35-1.37-10.18-8.19c0.65-26.11,3.22-49.82,5.7-72.74c2.77-25.55,5.63-51.98,5.85-81.85
		c0.13-17.69-2.1-43.16-4.47-70.13c-2.02-22.96-4.1-46.7-4.58-65.15c-0.05-2.12,0.78-4.38,7.35-5.06
		c23.84-2.36,49.18-3.55,75.32-3.55c26.14,0,51.48,1.19,75.32,3.55c6.58,0.68,7.41,2.94,7.36,5.06
		c-0.48,18.45-2.57,42.19-4.58,65.15c-2.37,26.97-4.61,52.44-4.47,70.13c0.22,29.87,3.09,56.29,5.86,81.85
		c2.48,22.92,5.05,46.63,5.7,72.74C184.22,316.39,180.87,317.04,173.88,317.76"/>
	<path class="st0" d="M53.48,172.3h88.74V54.48H53.48V172.3z M54.9,55.89h85.9v114.99H54.9V55.89z"/>
	<path class="st0" d="M86.63,223.28c-0.73,1.02-1.1,2.18-1.24,3.43c-0.14,1.24-0.04,2.46,0.37,3.64c0.67,1.93,1.97,3.25,3.92,3.9
		c1.28,0.43,2.59,0.41,3.9,0.23c1.57-0.22,2.87-0.98,3.97-2.09c0.19-0.19,0.19-0.19-0.01-0.37c-0.45-0.4-0.9-0.8-1.35-1.19
		c-0.2-0.17-0.2-0.17-0.39,0.01c-0.58,0.56-1.23,1.01-2.03,1.22c-0.73,0.2-1.47,0.27-2.23,0.2c-1.53-0.13-2.99-1.16-3.44-2.92
		c-0.06-0.25-0.11-0.5-0.1-0.77c0-0.12,0.04-0.17,0.16-0.16c0.09,0.01,0.19,0,0.28,0h4.58c1.07,0,2.14,0,3.21,0
		c0.52,0,1.03,0,1.55,0c0.36,0,0.35,0,0.36-0.37c0.01-0.31-0.03-0.61-0.05-0.91c-0.06-1.05-0.27-2.07-0.71-3.03
		c-0.71-1.54-1.85-2.61-3.49-3.09c-1.02-0.3-2.05-0.35-3.1-0.2C89.07,221.04,87.66,221.84,86.63,223.28 M88.09,226.07
		c0.28-1.62,1.41-2.74,2.94-3.01c1-0.18,1.97-0.08,2.86,0.43c1.05,0.61,1.57,1.57,1.73,2.75c0.02,0.12-0.04,0.14-0.14,0.14
		c-0.34,0-0.68,0-1.02,0h-2.61c-1.16,0-2.32,0-3.49,0C88.04,226.38,88.04,226.38,88.09,226.07"/>
	<path class="st0" d="M56.66,232.12c1.48,1.45,3.27,2.26,5.32,2.44c1.33,0.12,2.65-0.03,3.92-0.48c2.17-0.78,3.77-2.2,4.76-4.29
		c0.88-1.86,1.1-3.82,0.7-5.83c-0.62-3.1-2.39-5.26-5.33-6.46c-0.77-0.32-1.59-0.49-2.42-0.56c-0.23-0.02-0.24-0.01-0.24,0.22
		c0,0.72,0.01,1.43,0,2.15c0,0.19,0.07,0.22,0.24,0.25c1.9,0.31,3.35,1.3,4.29,2.98c0.99,1.78,1.09,3.66,0.44,5.57
		c-1.03,3.02-3.88,4.29-6.66,3.75c-1.98-0.39-3.37-1.62-4.26-3.42c-0.34-0.68-0.51-1.41-0.58-2.16c-0.02-0.23-0.03-0.24-0.27-0.24
		c-0.38,0-0.75,0-1.13,0c-0.4,0-0.8,0.01-1.2,0c-0.17,0-0.24,0.06-0.22,0.23c0.03,0.22,0.04,0.44,0.07,0.66
		C54.38,228.93,55.2,230.68,56.66,232.12"/>
	<path class="st0" d="M115.96,227.63c-0.01,3.84,2.92,6.94,6.91,6.95c3.96,0.01,7.03-3.29,6.94-6.96c0.06-3.7-2.87-6.86-6.84-6.9
		C119.22,220.69,115.97,223.74,115.96,227.63 M120.41,223.87c1.68-1.32,4.38-1.13,5.83,0.88c1.37,1.91,1.2,4.54-0.33,6.2
		c-0.68,0.74-1.53,1.18-2.54,1.29c-2.35,0.26-3.95-1.32-4.5-3.05c-0.16-0.51-0.25-1.02-0.24-1.56
		C118.66,226.12,119.19,224.83,120.41,223.87"/>
	<path class="st0" d="M104.53,224.11c1.35-1.29,3.65-1.43,5.21-0.67c0.53,0.26,1,0.61,1.43,1.02c0.12,0.11,0.19,0.13,0.31,0
		c0.44-0.45,0.9-0.9,1.35-1.34c0.11-0.11,0.11-0.18,0-0.29c-0.71-0.69-1.5-1.25-2.41-1.61c-1.26-0.5-2.57-0.6-3.91-0.43
		c-1.78,0.22-3.3,0.97-4.48,2.33c-0.99,1.14-1.48,2.49-1.58,3.98c-0.06,0.81,0.01,1.62,0.21,2.41c0.35,1.46,1.06,2.71,2.26,3.63
		c1.7,1.31,3.66,1.67,5.73,1.31c2.21-0.39,3.68-1.76,4.5-3.84c0.44-1.12,0.56-2.29,0.55-3.49c0-0.33,0-0.33-0.32-0.33
		c-0.91,0-1.81,0-2.72,0c-0.93,0-1.86,0-2.79,0c-0.18,0-0.26,0.04-0.25,0.23c0.01,0.19,0,0.38,0,0.56c0,0.4,0,0.8,0,1.2
		c0,0.14,0.03,0.23,0.19,0.21c0.07-0.01,0.14,0,0.21,0c0.92,0,1.83,0,2.75,0c0.26,0,0.27,0.01,0.25,0.28
		c-0.07,0.7-0.37,1.3-0.85,1.82c-1.75,1.88-4.84,1.52-6.23-0.51c-0.87-1.28-1.08-2.68-0.74-4.16
		C103.41,225.53,103.86,224.75,104.53,224.11"/>
	<path class="st0" d="M141.67,224.44c0.66,0.83,0.91,1.81,0.96,2.85c0.02,0.55,0.01,1.1,0.01,1.66c0,1.67,0,3.34,0,5.01
		c0,0.31,0,0.31,0.31,0.31c0.67,0,1.34,0,2.01,0c0.29,0,0.29,0,0.29-0.29c0-1.15,0-2.3,0-3.46c0-1.01,0-2.02,0-3.03
		c0-0.91-0.14-1.8-0.44-2.66c-0.56-1.6-1.56-2.82-3.13-3.53c-1.39-0.62-2.86-0.73-4.34-0.43c-2.36,0.47-3.85,1.91-4.6,4.17
		c-0.32,0.97-0.4,1.97-0.4,2.98c0,1.94,0,3.88,0,5.82c0,0.07,0,0.14,0,0.21c-0.01,0.15,0.06,0.21,0.21,0.21c0.74,0,1.48,0,2.22,0
		c0.14,0,0.19-0.06,0.18-0.19c0-0.07,0-0.14,0-0.21c0-2.05,0-4.09,0-6.14c0-0.56,0.05-1.12,0.2-1.67c0.24-0.89,0.65-1.68,1.4-2.26
		c0.53-0.4,1.12-0.62,1.78-0.69C139.68,222.98,140.82,223.36,141.67,224.44"/>
	<path class="st0" d="M74.61,227.3c-0.03,1.06-0.01,2.12-0.01,3.17c0,1.15,0,2.31,0,3.46c0,0.39-0.02,0.33,0.35,0.34
		c0.62,0,1.25,0,1.87,0c0.38,0,0.38,0,0.38-0.39c0-2.06,0-4.12,0-6.17c0-0.6,0.06-1.19,0.23-1.77c0.5-1.71,1.89-2.78,3.66-2.8
		c0.75-0.01,1.47,0.11,2.14,0.48c0.17,0.09,0.22,0.04,0.26-0.11c0.17-0.51,0.35-1.02,0.51-1.53c0.06-0.21,0.27-0.43,0.15-0.62
		c-0.11-0.17-0.38-0.2-0.59-0.27c-1.09-0.38-2.2-0.43-3.33-0.28c-1.38,0.18-2.59,0.73-3.59,1.7
		C75.29,223.81,74.67,225.44,74.61,227.3"/>
	<path class="st0" d="M56.7,217.8c1.2-0.93,2.56-1.5,4.06-1.73c0.33-0.05,0.65-0.04,0.98-0.1c0.18-0.03,0.24-0.09,0.23-0.26
		c-0.01-0.49,0-0.99,0-1.48c0-0.26,0-0.26-0.28-0.26h-0.03c-0.59,0-1.17,0.09-1.75,0.21c-1.97,0.39-3.69,1.27-5.17,2.62
		c-1.22,1.12-2.14,2.45-2.76,3.99c-0.36,0.89-0.6,1.82-0.71,2.78c-0.03,0.29-0.08,0.57-0.08,0.86v0.01c0,0.02,0,0.05,0,0.07
		c0.01,0.16,0.06,0.2,0.21,0.2c0.28-0.01,0.56,0,0.84,0v0c0.27,0,0.54-0.01,0.81,0c0.18,0.01,0.25-0.06,0.24-0.24
		c-0.03-0.51,0.06-1.01,0.17-1.5C53.93,220.86,54.99,219.12,56.7,217.8"/>
	<path class="st0" d="M96.44,244.89c-0.25-0.49-0.5-0.98-0.75-1.47c-0.36-0.71-0.73-1.42-1.08-2.13c-0.08-0.17-0.18-0.25-0.38-0.23
		c-0.29,0.02-0.59,0-0.88,0.01c-0.24,0-0.25,0-0.25,0.25c0,0.83,0,1.67,0,2.5c0,0.82,0,1.65,0,2.47c0,0.26,0.01,0.26,0.24,0.26
		c0.2,0,0.4,0,0.6,0c0.25-0.01,0.26-0.01,0.26-0.26c0-0.65,0-1.29,0-1.94c0-0.51,0-1.01,0-1.52c0-0.05,0.01-0.13,0.02-0.13
		c0.07-0.01,0.09,0.05,0.12,0.11c0.24,0.47,0.48,0.94,0.72,1.41c0.35,0.69,0.7,1.38,1.05,2.07c0.07,0.13,0.11,0.28,0.32,0.27
		c0.33-0.02,0.66-0.01,0.99,0c0.14,0,0.19-0.05,0.18-0.19c-0.01-0.06,0-0.12,0-0.18v-4.8c0-0.06,0-0.12,0-0.18
		c0.01-0.13-0.06-0.16-0.17-0.16c-0.25,0.01-0.49,0-0.74,0c-0.1,0-0.16,0.03-0.15,0.14c0,0.08,0,0.17,0,0.25c0,1.14,0,2.28,0,3.42
		c0,0.04,0.02,0.1-0.03,0.12C96.47,244.99,96.45,244.93,96.44,244.89"/>
	<path class="st0" d="M61.75,217.65c-0.33,0.08-0.67,0.05-1.01,0.12c-1.33,0.27-2.5,0.84-3.5,1.75c-1.03,0.94-1.7,2.1-2.07,3.44
		c-0.14,0.51-0.21,1.03-0.24,1.56c-0.01,0.16,0.04,0.24,0.22,0.23c0.4-0.01,0.8-0.01,1.2,0c0.17,0,0.26-0.05,0.26-0.24
		c0.01-0.41,0.1-0.81,0.21-1.2c0.4-1.36,1.21-2.42,2.41-3.17c0.78-0.49,1.64-0.74,2.55-0.81c0.17-0.01,0.22-0.08,0.21-0.24
		c-0.01-0.2,0-0.4,0-0.6c0-0.21-0.01-0.42,0-0.64C61.99,217.68,61.91,217.61,61.75,217.65"/>
	<path class="st0" d="M83.33,246.55c0.18,0.01,0.35,0,0.53,0c0.73,0,1.46,0,2.18,0c0.15,0,0.22-0.04,0.21-0.2
		c-0.01-0.15,0-0.31,0-0.46c0-0.24-0.01-0.24-0.26-0.24c-0.55,0-1.1,0-1.66,0c-0.14,0-0.21-0.03-0.21-0.19
		c0.01-0.36,0.01-0.73,0-1.09c-0.01-0.18,0.07-0.21,0.23-0.21c0.36,0.01,0.73,0,1.09,0c0.64,0,0.64,0,0.62-0.63
		c-0.01-0.28-0.01-0.28-0.3-0.28c-0.48,0-0.96,0-1.44,0c-0.12,0-0.2-0.02-0.19-0.17c0.01-0.32,0-0.63,0-0.95
		c0-0.11,0.03-0.18,0.16-0.17c0.07,0,0.14,0,0.21,0c0.51,0,1.01-0.01,1.52,0c0.19,0,0.25-0.06,0.24-0.24
		c-0.01-0.14-0.01-0.28,0-0.42c0.02-0.18-0.05-0.24-0.23-0.24c-0.93,0.01-1.86,0.01-2.78,0c-0.19,0-0.23,0.06-0.23,0.24
		c0.01,0.83,0,1.67,0,2.5c0,0.81,0,1.62,0,2.43C83,246.61,83.02,246.54,83.33,246.55"/>
	<path class="st0" d="M56.3,243.4c-0.24-0.1-0.49-0.17-0.71-0.3c-0.3-0.17-0.42-0.36-0.38-0.61c0.06-0.3,0.23-0.5,0.54-0.58
		c0.32-0.09,0.63-0.02,0.94,0.03c0.16,0.03,0.35,0.19,0.45,0.09c0.1-0.1,0.08-0.33,0.11-0.5c0.01-0.07,0-0.14,0.01-0.21
		c0.02-0.12-0.03-0.16-0.14-0.19c-0.34-0.11-0.69-0.14-1.16-0.14c-0.17,0-0.47,0.01-0.75,0.09c-0.69,0.2-1.1,0.68-1.16,1.43
		c-0.06,0.68,0.2,1.17,0.83,1.5c0.25,0.13,0.51,0.22,0.77,0.33c0.2,0.08,0.41,0.17,0.58,0.33c0.28,0.27,0.26,0.64-0.05,0.88
		c-0.22,0.16-0.47,0.21-0.73,0.21c-0.37,0-0.72-0.11-1.05-0.26c-0.11-0.05-0.17-0.07-0.18,0.09c-0.02,0.23-0.07,0.46-0.07,0.7
		c0,0.12,0.04,0.18,0.15,0.2c0.22,0.05,0.43,0.11,0.65,0.14c0.66,0.07,1.32,0.07,1.92-0.27c0.85-0.47,1.01-1.75,0.32-2.43
		C56.92,243.66,56.61,243.53,56.3,243.4"/>
	<path class="st0" d="M145.25,245.65c-0.01-0.12-0.04-0.11-0.15-0.08c-0.41,0.15-0.84,0.19-1.28,0.15
		c-0.63-0.06-1.11-0.36-1.39-0.93c-0.27-0.54-0.29-1.1-0.11-1.67c0.24-0.78,0.85-1.24,1.67-1.25c0.37-0.01,0.73,0.04,1.06,0.21
		c0.12,0.06,0.17,0.03,0.18-0.1c0.01-0.17,0.03-0.35,0.04-0.52c0.02-0.25,0.03-0.26-0.23-0.33c-0.71-0.21-1.43-0.2-2.15,0.01
		c-0.92,0.27-1.5,0.88-1.74,1.8c-0.13,0.49-0.16,0.99-0.08,1.5c0.14,0.91,0.6,1.56,1.45,1.92c0.47,0.2,0.96,0.28,1.51,0.28
		c0.35,0.01,0.73-0.06,1.11-0.14c0.1-0.02,0.15-0.06,0.15-0.15v-0.01c0-0.01,0-0.02,0-0.02
		C145.28,246.09,145.26,245.87,145.25,245.65"/>
	<path class="st0" d="M67.38,241.87c0.27,0.04,0.53,0.09,0.77,0.21c0.11,0.05,0.15,0.01,0.16-0.1c0.01-0.17,0.03-0.35,0.04-0.52
		c0.03-0.27,0.03-0.27-0.25-0.35c-0.71-0.2-1.41-0.2-2.11,0.01c-0.92,0.27-1.5,0.87-1.76,1.8c-0.14,0.5-0.16,1.01-0.08,1.53
		c0.12,0.75,0.46,1.35,1.12,1.74c0.55,0.33,1.15,0.44,1.84,0.44c0.22,0.01,0.48-0.02,0.75-0.07c0.52-0.09,0.52-0.08,0.49-0.59
		c-0.01-0.12-0.02-0.23-0.03-0.35c0-0.11-0.05-0.09-0.13-0.06c-0.42,0.15-0.84,0.2-1.28,0.16c-0.66-0.06-1.15-0.37-1.43-0.98
		c-0.21-0.46-0.25-0.94-0.14-1.44C65.57,242.32,66.39,241.74,67.38,241.87"/>
	<path class="st0" d="M124.88,241.96c0.47,0,0.94,0,1.41,0c0.15,0,0.22-0.05,0.21-0.2c-0.01-0.14,0-0.28,0-0.42
		c0-0.27,0-0.28-0.26-0.28c-0.85,0-1.69,0-2.54,0c-0.25,0-0.25,0.01-0.25,0.24c0,0.82,0,1.65,0,2.47v2.4c0,0.08,0,0.16,0,0.25
		c0,0.08,0.04,0.13,0.13,0.13c0.28,0,0.56,0,0.85,0c0.1,0,0.15-0.04,0.15-0.15c0-0.08,0-0.16,0-0.25c0-0.59,0.01-1.17,0-1.76
		c0-0.19,0.06-0.24,0.24-0.23c0.32,0.01,0.64,0.01,0.95,0c0.21-0.01,0.48,0.1,0.6-0.05c0.14-0.15,0.03-0.43,0.05-0.65
		c0.02-0.17-0.05-0.22-0.22-0.22c-0.47,0.01-0.94,0-1.41,0.01c-0.17,0-0.22-0.05-0.22-0.22c0.01-0.26,0-0.52,0-0.78
		C124.56,241.92,124.57,241.96,124.88,241.96"/>
	<path class="st0" d="M106.99,241.96c0.16,0,0.33,0.01,0.49,0c0.21-0.01,0.47,0.09,0.61-0.04c0.16-0.15,0.03-0.43,0.06-0.64
		c0.02-0.17-0.05-0.22-0.22-0.22c-1.28,0.01-2.56,0-3.84,0c-0.14,0-0.22,0.03-0.21,0.19c0.01,0.16,0.01,0.33,0,0.49
		c-0.01,0.17,0.06,0.22,0.22,0.22c0.36-0.01,0.73-0.01,1.09,0c0.25,0,0.25,0.01,0.25,0.25c0,0.67,0,1.34,0,2.01s0,1.34,0,2.01
		c0,0.31,0,0.32,0.3,0.32c0.19,0,0.38,0,0.56,0c0.27,0,0.28-0.01,0.28-0.27c0-0.58,0-1.15,0-1.73c0-0.74,0-1.48,0-2.22
		C106.61,241.94,106.55,241.96,106.99,241.96"/>
	<path class="st0" d="M133.45,246.54c0.2,0,0.4,0,0.6,0c0.24,0,0.25-0.01,0.25-0.26c0-1.02,0-2.04,0-3.07c0-0.65-0.01-1.29,0-1.94
		c0-0.16-0.03-0.24-0.21-0.23c-0.22,0.01-0.45,0-0.67,0c-0.24,0-0.25,0-0.25,0.25c0,0.83,0,1.67,0,2.5v0.99c0,0.49,0,0.99,0,1.48
		C133.18,246.54,133.18,246.54,133.45,246.54"/>
	<path class="st0" d="M75,241.06c-0.24,0-0.25,0.01-0.25,0.25c0,0.83,0,1.67,0,2.5v1.06c0,0.47,0,0.94,0,1.41
		c0,0.26,0,0.26,0.28,0.26c0.19,0,0.38,0,0.56,0c0.28,0,0.28,0,0.29-0.29c0-1.13,0-2.26,0-3.38c0-0.53-0.01-1.06,0-1.59
		c0-0.16-0.03-0.24-0.21-0.22C75.44,241.07,75.22,241.06,75,241.06"/>
	<path class="st0" d="M58.41,224.75c0.22,0.01,0.45,0,0.67,0c0.32,0,0.31,0,0.35-0.33c0.14-1.18,0.91-1.94,2.01-2.19
		c0.17-0.04,0.39,0.06,0.5-0.1c0.1-0.15,0.02-0.37,0.04-0.52c0-0.15,0-0.26,0-0.38c-0.01-0.25-0.03-0.28-0.26-0.24
		c-0.62,0.09-1.21,0.24-1.74,0.59c-1.07,0.7-1.65,1.7-1.79,2.95C58.17,224.68,58.22,224.74,58.41,224.75"/>
	<path class="st0" d="M116.31,241.1c-0.25-0.09-0.51-0.03-0.76-0.04c-0.33-0.01-0.31-0.03-0.31,0.29c0,1.62,0,3.24,0,4.86
		c0,0.04,0,0.07,0,0.11c-0.02,0.16,0.04,0.24,0.22,0.23c0.2-0.01,0.4,0,0.6,0c0.27,0,0.27-0.01,0.27-0.27c0-0.83,0-1.67,0-2.5
		c0-0.65,0-1.29,0-1.94C116.33,241.59,116.35,241.35,116.31,241.1"/>
	<path class="st0" d="M47.34,45.97c0.23-0.16,0.41-0.38,0.55-0.65c0.13-0.27,0.2-0.55,0.2-0.84c0-0.36-0.1-0.68-0.31-0.95
		c-0.21-0.27-0.5-0.46-0.89-0.58c0.27-0.12,0.49-0.31,0.65-0.55c0.16-0.24,0.24-0.52,0.24-0.81c0-0.27-0.07-0.52-0.19-0.74
		c-0.13-0.22-0.29-0.39-0.49-0.53c-0.19-0.13-0.41-0.22-0.66-0.26C46.19,40.02,45.82,40,45.32,40H42.8v6.31h2.15
		c0.81-0.01,1.33-0.02,1.54-0.04C46.82,46.23,47.11,46.13,47.34,45.97 M44.08,41.05h0.73c0.6,0,0.96,0.01,1.09,0.02
		c0.21,0.03,0.37,0.1,0.48,0.22c0.11,0.12,0.16,0.28,0.16,0.47c0,0.2-0.06,0.37-0.19,0.49c-0.12,0.12-0.3,0.2-0.51,0.23
		c-0.12,0.01-0.43,0.02-0.92,0.02h-0.83V41.05z M45.26,45.24h-1.18v-1.69h1.03c0.58,0,0.96,0.03,1.13,0.09s0.31,0.16,0.4,0.29
		c0.09,0.13,0.14,0.29,0.14,0.48c0,0.22-0.06,0.4-0.18,0.54c-0.12,0.13-0.27,0.22-0.46,0.25C46.01,45.23,45.72,45.24,45.26,45.24"/>
	<rect x="71.05" y="43.42" class="st0" width="2.38" height="1.21"/>
	<polygon class="st0" points="78,46.31 79.28,46.31 79.28,41.07 81.14,41.07 81.14,40 76.13,40 76.13,41.07 78,41.07 	"/>
	<rect x="117.08" y="43.42" class="st0" width="2.38" height="1.21"/>
	<polygon class="st0" points="123.89,43.55 126.38,43.55 126.38,46.31 127.65,46.31 127.65,40 126.38,40 126.38,42.49 123.89,42.49 
		123.89,40 122.61,40 122.61,46.31 123.89,46.31 	"/>
	<path class="st0" d="M50.4,44.87h2.53l0.54,1.44h1.38L52.32,40h-1.35l-2.45,6.31h1.35L50.4,44.87z M51.64,41.47l0.88,2.34h-1.73
		L51.64,41.47z"/>
	<path class="st0" d="M56.81,43.68h0.26c0.29,0,0.51,0.02,0.64,0.07c0.14,0.05,0.26,0.13,0.38,0.26c0.12,0.13,0.35,0.44,0.67,0.93
		l0.91,1.38h1.52l-0.77-1.23c-0.3-0.49-0.54-0.83-0.72-1.03c-0.18-0.19-0.4-0.37-0.68-0.53c0.55-0.08,0.97-0.27,1.24-0.58
		c0.28-0.31,0.42-0.7,0.42-1.17c0-0.37-0.09-0.7-0.28-0.99c-0.18-0.29-0.43-0.49-0.73-0.6c-0.31-0.11-0.8-0.17-1.47-0.17h-2.68v6.31
		h1.28V43.68z M56.81,41.07h0.99c0.51,0,0.83,0.01,0.93,0.02c0.21,0.03,0.37,0.12,0.48,0.25c0.11,0.13,0.17,0.3,0.17,0.52
		c0,0.19-0.04,0.35-0.13,0.47c-0.09,0.13-0.21,0.22-0.36,0.27c-0.15,0.05-0.53,0.08-1.14,0.08h-0.94V41.07z"/>
	<path class="st0" d="M64.7,46.43c0.93,0,1.67-0.29,2.22-0.86c0.55-0.58,0.83-1.38,0.83-2.4c0-1.03-0.28-1.83-0.84-2.41
		c-0.56-0.58-1.3-0.87-2.23-0.87c-0.52,0-0.97,0.08-1.36,0.25c-0.3,0.12-0.57,0.31-0.82,0.57c-0.25,0.26-0.44,0.55-0.59,0.87
		c-0.19,0.44-0.29,0.98-0.29,1.62c0,1.01,0.28,1.8,0.83,2.37C63.01,46.14,63.76,46.43,64.7,46.43 M63.43,41.52
		c0.32-0.36,0.75-0.54,1.27-0.54c0.53,0,0.95,0.18,1.27,0.54c0.32,0.36,0.48,0.9,0.48,1.62c0,0.73-0.16,1.28-0.49,1.65
		c-0.33,0.37-0.75,0.55-1.25,0.55c-0.51,0-0.93-0.18-1.26-0.55c-0.33-0.37-0.5-0.91-0.5-1.63C62.94,42.42,63.1,41.88,63.43,41.52"/>
	<polygon class="st0" points="83.25,43.55 85.73,43.55 85.73,46.31 87.01,46.31 87.01,40 85.73,40 85.73,42.49 83.25,42.49 
		83.25,40 81.97,40 81.97,46.31 83.25,46.31 	"/>
	<polygon class="st0" points="93.13,45.24 89.61,45.24 89.61,43.53 92.77,43.53 92.77,42.47 89.61,42.47 89.61,41.07 93.01,41.07 
		93.01,40 88.33,40 88.33,46.31 93.13,46.31 	"/>
	<path class="st0" d="M95.49,43.68h0.26c0.29,0,0.51,0.02,0.65,0.07c0.14,0.05,0.26,0.13,0.38,0.26c0.12,0.13,0.35,0.44,0.67,0.93
		l0.91,1.38h1.52l-0.77-1.23c-0.3-0.49-0.54-0.83-0.72-1.03c-0.18-0.19-0.4-0.37-0.68-0.53c0.55-0.08,0.97-0.27,1.24-0.58
		c0.28-0.31,0.42-0.7,0.42-1.17c0-0.37-0.09-0.7-0.28-0.99c-0.18-0.29-0.43-0.49-0.73-0.6C98.06,40.06,97.57,40,96.9,40h-2.68v6.31
		h1.28V43.68z M95.49,41.07h0.99c0.51,0,0.83,0.01,0.93,0.02c0.21,0.03,0.37,0.12,0.48,0.25c0.11,0.13,0.17,0.3,0.17,0.52
		c0,0.19-0.04,0.35-0.13,0.47c-0.09,0.13-0.21,0.22-0.36,0.27c-0.15,0.05-0.53,0.08-1.14,0.08h-0.94V41.07z"/>
	<polygon class="st0" points="101.75,41.34 102.98,46.31 104.21,46.31 105.46,41.34 105.46,46.31 106.64,46.31 106.64,40 104.72,40 
		103.61,44.3 102.48,40 100.56,40 100.56,46.31 101.74,46.31 	"/>
	<path class="st0" d="M110.73,46.43c0.93,0,1.67-0.29,2.22-0.86c0.55-0.58,0.83-1.38,0.83-2.4c0-1.03-0.28-1.83-0.84-2.41
		c-0.56-0.58-1.3-0.87-2.23-0.87c-0.51,0-0.97,0.08-1.36,0.25c-0.3,0.12-0.57,0.31-0.82,0.57c-0.25,0.26-0.44,0.55-0.59,0.87
		c-0.19,0.44-0.29,0.98-0.29,1.62c0,1.01,0.28,1.8,0.83,2.37C109.04,46.14,109.79,46.43,110.73,46.43 M109.45,41.52
		c0.32-0.36,0.75-0.54,1.27-0.54c0.53,0,0.95,0.18,1.27,0.54c0.32,0.36,0.48,0.9,0.48,1.62c0,0.73-0.16,1.28-0.49,1.65
		c-0.33,0.37-0.74,0.55-1.25,0.55c-0.51,0-0.93-0.18-1.26-0.55c-0.33-0.37-0.5-0.91-0.5-1.63
		C108.97,42.42,109.13,41.88,109.45,41.52"/>
	<polygon class="st0" points="130.63,46.31 131.91,46.31 131.91,43.66 134.23,40 132.76,40 131.31,42.5 129.81,40 128.32,40 
		130.63,43.65 	"/>
	<path class="st0" d="M136.11,46.01c0.49,0.28,1.06,0.42,1.72,0.42c0.52,0,1.03-0.1,1.54-0.3c0.51-0.2,0.89-0.43,1.16-0.69v-2.52
		h-2.74v1.07h1.45v0.8c-0.19,0.15-0.42,0.28-0.69,0.38c-0.27,0.1-0.54,0.16-0.8,0.16c-0.54,0-0.97-0.19-1.31-0.56
		c-0.33-0.38-0.5-0.94-0.5-1.69c0-0.7,0.16-1.22,0.49-1.57c0.33-0.35,0.77-0.53,1.32-0.53c0.37,0,0.67,0.09,0.92,0.27
		c0.24,0.18,0.41,0.43,0.5,0.74l1.27-0.24c-0.13-0.58-0.41-1.04-0.85-1.37c-0.44-0.33-1.05-0.49-1.84-0.49
		c-0.6,0-1.11,0.1-1.51,0.32c-0.53,0.27-0.93,0.67-1.21,1.18c-0.27,0.51-0.41,1.1-0.41,1.76c0,0.61,0.12,1.17,0.37,1.68
		C135.25,45.33,135.62,45.73,136.11,46.01"/>
	<path class="st0" d="M142.99,43.68h0.26c0.29,0,0.51,0.02,0.65,0.07c0.14,0.05,0.26,0.13,0.38,0.26c0.12,0.13,0.35,0.44,0.67,0.93
		l0.91,1.38h1.52l-0.77-1.23c-0.3-0.49-0.54-0.83-0.72-1.03c-0.18-0.19-0.4-0.37-0.68-0.53c0.55-0.08,0.97-0.27,1.24-0.58
		c0.28-0.31,0.42-0.7,0.42-1.17c0-0.37-0.09-0.7-0.28-0.99c-0.18-0.29-0.43-0.49-0.73-0.6c-0.31-0.11-0.8-0.17-1.47-0.17h-2.68v6.31
		h1.28V43.68z M142.99,41.07h0.99c0.51,0,0.82,0.01,0.93,0.02c0.21,0.03,0.37,0.12,0.48,0.25c0.11,0.13,0.17,0.3,0.17,0.52
		c0,0.19-0.04,0.35-0.13,0.47c-0.09,0.13-0.21,0.22-0.36,0.27c-0.15,0.05-0.53,0.08-1.14,0.08h-0.94V41.07z"/>
	<path class="st0" d="M150.87,39.89c-0.51,0-0.97,0.08-1.36,0.25c-0.29,0.12-0.57,0.31-0.82,0.57c-0.25,0.25-0.45,0.54-0.59,0.87
		c-0.19,0.44-0.29,0.98-0.29,1.62c0,1.01,0.28,1.8,0.83,2.37c0.55,0.57,1.3,0.86,2.24,0.86c0.93,0,1.67-0.29,2.22-0.87
		c0.55-0.58,0.83-1.38,0.83-2.4c0-1.03-0.28-1.83-0.84-2.41C152.54,40.17,151.8,39.89,150.87,39.89 M152.14,44.78
		c-0.33,0.37-0.75,0.55-1.26,0.55c-0.51,0-0.93-0.18-1.26-0.55c-0.33-0.37-0.5-0.91-0.5-1.63c0-0.73,0.16-1.27,0.48-1.63
		c0.32-0.36,0.75-0.54,1.27-0.54c0.53,0,0.95,0.18,1.27,0.54c0.32,0.36,0.48,0.9,0.48,1.62C152.63,43.87,152.46,44.42,152.14,44.78"
		/>
	<path class="st0" d="M56.18,182.07l-2.63,3.87v1.01h2.48v1.22h1.13v-1.22h0.76v-1.02h-0.76v-3.86H56.18z M56.03,185.93h-1.39
		l1.39-2.08V185.93z"/>
	<path class="st0" d="M60.42,187.32c-0.22,0-0.41-0.08-0.57-0.23c-0.16-0.15-0.25-0.37-0.29-0.66l-1.13,0.14
		c0.06,0.51,0.27,0.93,0.63,1.25c0.36,0.32,0.82,0.48,1.37,0.48c0.58,0,1.06-0.19,1.45-0.56c0.39-0.38,0.58-0.83,0.58-1.37
		c0-0.37-0.1-0.68-0.31-0.94c-0.21-0.26-0.49-0.43-0.83-0.5c0.58-0.32,0.88-0.75,0.88-1.28c0-0.38-0.14-0.72-0.43-1.02
		c-0.34-0.37-0.8-0.55-1.38-0.55c-0.33,0-0.64,0.06-0.91,0.19c-0.27,0.13-0.48,0.3-0.63,0.52c-0.15,0.22-0.26,0.52-0.34,0.89
		l1.07,0.18c0.03-0.27,0.12-0.47,0.26-0.61c0.14-0.14,0.31-0.21,0.51-0.21c0.2,0,0.36,0.06,0.49,0.18c0.12,0.12,0.18,0.29,0.18,0.49
		c0,0.24-0.08,0.44-0.25,0.58c-0.17,0.15-0.41,0.22-0.72,0.21l-0.13,0.95c0.21-0.06,0.38-0.09,0.53-0.09c0.23,0,0.42,0.09,0.57,0.26
		c0.16,0.17,0.24,0.4,0.24,0.7c0,0.31-0.08,0.56-0.25,0.74C60.86,187.22,60.66,187.32,60.42,187.32"/>
	<path class="st0" d="M65.15,187.32c-0.22,0-0.41-0.08-0.57-0.23c-0.16-0.15-0.25-0.37-0.29-0.66l-1.13,0.14
		c0.06,0.51,0.27,0.93,0.63,1.25c0.36,0.32,0.82,0.48,1.36,0.48c0.58,0,1.07-0.19,1.45-0.56c0.39-0.38,0.58-0.83,0.58-1.37
		c0-0.37-0.11-0.68-0.31-0.94c-0.21-0.26-0.49-0.43-0.83-0.5c0.58-0.32,0.88-0.75,0.88-1.28c0-0.38-0.14-0.72-0.43-1.02
		c-0.34-0.37-0.8-0.55-1.38-0.55c-0.33,0-0.64,0.06-0.91,0.19c-0.27,0.13-0.48,0.3-0.63,0.52c-0.15,0.22-0.26,0.52-0.34,0.89
		l1.07,0.18c0.03-0.27,0.12-0.47,0.26-0.61c0.14-0.14,0.31-0.21,0.51-0.21c0.2,0,0.36,0.06,0.49,0.18c0.12,0.12,0.18,0.29,0.18,0.49
		c0,0.24-0.08,0.44-0.25,0.58c-0.17,0.15-0.4,0.22-0.72,0.21l-0.13,0.95c0.21-0.06,0.38-0.09,0.53-0.09c0.23,0,0.42,0.09,0.57,0.26
		c0.16,0.17,0.24,0.4,0.24,0.7c0,0.31-0.08,0.56-0.25,0.74C65.59,187.22,65.39,187.32,65.15,187.32"/>
	<polygon class="st0" points="73.46,186.24 72.37,182.09 70.52,182.09 70.52,188.17 71.66,188.17 71.66,183.39 72.86,188.17 
		74.04,188.17 75.24,183.39 75.24,188.17 76.38,188.17 76.38,182.09 74.53,182.09 	"/>
	<path class="st0" d="M77.59,182.09v6.08h1.16v-2.21c0-0.37,0.04-0.65,0.11-0.84c0.07-0.19,0.18-0.33,0.34-0.42
		c0.15-0.1,0.33-0.14,0.52-0.14c0.17,0,0.31,0.04,0.43,0.11c0.11,0.07,0.19,0.17,0.24,0.3c0.04,0.12,0.07,0.42,0.07,0.88v2.32h1.16
		v-2.58c0-0.39-0.02-0.69-0.06-0.88c-0.04-0.19-0.11-0.36-0.22-0.51c-0.11-0.16-0.27-0.28-0.49-0.38c-0.22-0.1-0.46-0.15-0.73-0.15
		c-0.53,0-0.98,0.22-1.36,0.67v-2.25H77.59z"/>
	<path class="st0" d="M82.31,187.26v0.92h3.93v-1.03h-1.8c-0.08,0-0.28,0.01-0.6,0.02l0.59-0.64l1.68-1.94v-0.82h-3.64v0.97
		l1.55-0.01c0.22,0,0.4-0.01,0.54-0.02c-0.13,0.13-0.33,0.35-0.6,0.66L82.31,187.26z"/>
	<path class="st0" d="M91.97,183.04c0.33,0,0.6,0.09,0.83,0.27c0.23,0.18,0.38,0.43,0.45,0.75l1.21-0.29
		c-0.14-0.49-0.35-0.86-0.62-1.12c-0.46-0.44-1.07-0.66-1.81-0.66c-0.85,0-1.54,0.28-2.06,0.84c-0.52,0.56-0.78,1.35-0.78,2.36
		c0,0.96,0.26,1.71,0.78,2.26c0.52,0.55,1.18,0.83,1.99,0.83c0.65,0,1.19-0.16,1.61-0.49c0.42-0.33,0.73-0.82,0.91-1.49l-1.19-0.37
		c-0.1,0.45-0.27,0.77-0.51,0.98c-0.24,0.21-0.52,0.31-0.84,0.31c-0.44,0-0.8-0.16-1.08-0.49c-0.28-0.33-0.42-0.87-0.42-1.64
		c0-0.72,0.14-1.25,0.42-1.57C91.15,183.2,91.52,183.04,91.97,183.04"/>
	<path class="st0" d="M97.27,182.09l-2.36,6.08h1.3l0.51-1.38h2.44l0.53,1.38h1.33l-2.44-6.08H97.27z M97.09,185.76l0.82-2.25
		l0.84,2.25H97.09z"/>
	<path class="st0" d="M106.23,184.4c0.15-0.24,0.23-0.5,0.23-0.78c0-0.26-0.06-0.5-0.19-0.71c-0.12-0.21-0.28-0.38-0.47-0.51
		c-0.19-0.13-0.4-0.21-0.64-0.25c-0.24-0.04-0.6-0.06-1.08-0.06h-2.43v6.08h2.07c0.78-0.01,1.28-0.02,1.48-0.04
		c0.33-0.04,0.6-0.13,0.82-0.29c0.22-0.16,0.4-0.37,0.53-0.63c0.13-0.26,0.19-0.53,0.19-0.81c0-0.35-0.1-0.66-0.3-0.92
		c-0.2-0.26-0.48-0.44-0.85-0.55C105.87,184.82,106.08,184.64,106.23,184.4 M102.9,183.1h0.7c0.58,0,0.93,0.01,1.05,0.02
		c0.2,0.02,0.36,0.1,0.46,0.21c0.1,0.12,0.16,0.27,0.16,0.46c0,0.2-0.06,0.35-0.18,0.47c-0.12,0.12-0.29,0.19-0.5,0.22
		c-0.11,0.01-0.41,0.02-0.89,0.02h-0.8V183.1z M105.32,186.87c-0.12,0.13-0.26,0.21-0.45,0.24c-0.12,0.02-0.4,0.04-0.84,0.04h-1.14
		v-1.63h0.99c0.56,0,0.92,0.03,1.09,0.09s0.3,0.15,0.38,0.28c0.09,0.13,0.13,0.28,0.13,0.46
		C105.5,186.56,105.44,186.74,105.32,186.87"/>
	<polygon class="st0" points="107.83,182.14 107.83,188.17 112.11,188.17 112.11,187.15 109.06,187.15 109.06,182.14 	"/>
	<polygon class="st0" points="117.48,183.12 117.48,182.09 112.98,182.09 112.98,188.17 117.6,188.17 117.6,187.15 114.21,187.15 
		114.21,185.5 117.25,185.5 117.25,184.47 114.21,184.47 114.21,183.12 	"/>
	<polygon class="st0" points="125.18,183.12 125.18,182.09 121.01,182.09 121.01,188.17 122.24,188.17 122.24,185.59 124.78,185.59 
		124.78,184.56 122.24,184.56 122.24,183.12 	"/>
	<path class="st0" d="M131.17,183.8c0-0.36-0.09-0.68-0.27-0.96c-0.18-0.28-0.41-0.47-0.71-0.58c-0.29-0.11-0.77-0.16-1.42-0.16
		h-2.58v6.08h1.23v-2.54h0.25c0.28,0,0.49,0.02,0.62,0.07c0.13,0.04,0.25,0.13,0.37,0.25c0.12,0.12,0.33,0.42,0.65,0.89l0.88,1.33
		h1.47l-0.74-1.18c-0.29-0.47-0.52-0.8-0.7-0.99c-0.17-0.19-0.39-0.35-0.65-0.51c0.53-0.08,0.93-0.26,1.2-0.56
		C131.03,184.63,131.17,184.25,131.17,183.8 M129.78,184.33c-0.08,0.12-0.2,0.21-0.34,0.26c-0.15,0.05-0.51,0.07-1.1,0.07h-0.91
		v-1.55h0.96c0.5,0,0.79,0.01,0.9,0.02c0.2,0.03,0.35,0.11,0.46,0.24c0.11,0.13,0.17,0.29,0.17,0.5
		C129.9,184.06,129.86,184.21,129.78,184.33"/>
	<polygon class="st0" points="136.82,183.12 136.82,182.09 132.32,182.09 132.32,188.17 136.94,188.17 136.94,187.15 133.55,187.15 
		133.55,185.5 136.59,185.5 136.59,184.47 133.55,184.47 133.55,183.12 	"/>
	<polygon class="st0" points="142.49,183.12 142.49,182.09 137.99,182.09 137.99,188.17 142.61,188.17 142.61,187.15 139.22,187.15 
		139.22,185.5 142.26,185.5 142.26,184.47 139.22,184.47 139.22,183.12 	"/>
	<path class="st0" d="M45.54,175.71h104.61V51.06H45.54V175.71z M46.96,52.48h101.78v121.81H46.96V52.48z"/>
	<path class="st0" d="M97.35,211.77c0,3.03,2.46,5.49,5.49,5.49c3.03,0,5.49-2.46,5.49-5.49c0-3.03-2.46-5.49-5.49-5.49
		C99.81,206.28,97.35,208.75,97.35,211.77"/>
	<path class="st0" d="M134.82,270.08c-17.59-4.97-24.67-3.94-34.23-1.67c-8.34,1.99-21.23,4.09-36.88-0.56
		c-0.75-0.22-1.54,0.21-1.76,0.96s0.2,1.54,0.96,1.76c7.26,2.16,13.95,2.92,19.9,2.92c7.39,0,13.64-1.18,18.44-2.32
		c9.12-2.17,15.88-3.14,32.81,1.64c0.75,0.21,1.54-0.23,1.75-0.98C136.02,271.08,135.58,270.3,134.82,270.08"/>
	<path class="st0" d="M134.82,283.06c-17.59-4.97-24.67-3.94-34.23-1.66c-8.34,1.98-21.23,4.09-36.88-0.56
		c-0.75-0.22-1.54,0.2-1.76,0.95s0.2,1.54,0.96,1.76c7.27,2.16,13.96,2.92,19.9,2.92c7.39,0,13.64-1.18,18.44-2.32
		c9.12-2.17,15.88-3.15,32.81,1.64c0.75,0.21,1.54-0.23,1.75-0.98C136.02,284.06,135.58,283.27,134.82,283.06"/>
	<path class="st0" d="M134.82,296.9c-17.59-4.97-24.67-3.94-34.23-1.66c-8.34,1.99-21.23,4.09-36.88-0.56
		c-0.75-0.22-1.54,0.2-1.76,0.95s0.2,1.54,0.96,1.76c7.27,2.16,13.96,2.92,19.9,2.92c7.39,0,13.64-1.18,18.44-2.32
		c9.12-2.17,15.88-3.15,32.81,1.64c0.75,0.21,1.54-0.23,1.75-0.98C136.02,297.89,135.58,297.11,134.82,296.9"/>
	<path class="st0" d="M21.19,154.27h-15c-0.39,0-0.71,0.32-0.71,0.71c0,0.39,0.32,0.71,0.71,0.71h15c0.39,0,0.71-0.32,0.71-0.71
		C21.9,154.59,21.58,154.27,21.19,154.27"/>
	<path class="st0" d="M21.88,174.18c-0.1-0.38-0.48-0.61-0.86-0.52l-15.19,3.77c-0.38,0.09-0.61,0.48-0.52,0.86
		c0.08,0.32,0.37,0.54,0.69,0.54c0.06,0,0.11-0.01,0.17-0.02l15.19-3.77C21.74,174.95,21.97,174.56,21.88,174.18"/>
	<path class="st0" d="M5.83,132.52l15.19,3.77c0.06,0.01,0.11,0.02,0.17,0.02c0.32,0,0.61-0.22,0.69-0.54
		c0.09-0.38-0.14-0.76-0.52-0.86l-15.19-3.77c-0.38-0.09-0.76,0.14-0.86,0.52C5.22,132.04,5.45,132.43,5.83,132.52"/>
	<path class="st0" d="M177.46,155.69h15c0.39,0,0.71-0.32,0.71-0.71c0-0.39-0.32-0.71-0.71-0.71h-15c-0.39,0-0.71,0.32-0.71,0.71
		C176.76,155.37,177.07,155.69,177.46,155.69"/>
	<path class="st0" d="M192.82,177.43l-15.19-3.77c-0.38-0.1-0.76,0.14-0.86,0.52c-0.1,0.38,0.14,0.76,0.52,0.86l15.19,3.77
		c0.06,0.02,0.12,0.02,0.17,0.02c0.32,0,0.61-0.21,0.69-0.54C193.43,177.91,193.2,177.53,192.82,177.43"/>
	<path class="st0" d="M177.29,134.92c-0.38,0.09-0.61,0.48-0.52,0.86c0.08,0.32,0.37,0.54,0.69,0.54c0.06,0,0.11-0.01,0.17-0.02
		l15.19-3.77c0.38-0.09,0.61-0.48,0.52-0.86c-0.1-0.38-0.48-0.61-0.86-0.52L177.29,134.92z"/>
</g>
</svg>
