<?xml version="1.0" encoding="UTF-8"?>
<svg width="531px" height="960px" viewBox="0 0 531 960" version="1.1" xmlns="http://www.w3.org/2000/svg" xmlns:xlink="http://www.w3.org/1999/xlink">
    <title>Electrolux A9</title>
    <g id="Electrolux-A9" stroke="none" stroke-width="1" fill="none" fill-rule="evenodd">
        <path d="M524.2175,216.3455 L500.0985,242.3505 C497.7685,244.5935 486.2185,243.5965 480.7845,241.5575 C479.4405,241.0505 465.2175,234.4855 443.1285,224.2035 L442.8665,224.0825 C434.6015,220.2355 425.7615,216.1125 416.9325,211.9905 C414.5475,210.8765 412.2985,209.8265 410.2115,208.8515 C410.1975,208.8125 410.1905,208.7895 410.1805,208.7605 C410.1565,208.6895 410.1435,208.6425 410.1455,208.6525 C410.0865,208.3745 410.0685,208.2645 410.0285,207.9105 C409.8465,206.2975 409.8075,203.5075 410.0165,199.1495 C410.3665,191.8535 413.6655,184.4315 418.2665,180.7025 C420.2275,179.1125 421.6515,178.7095 422.7385,178.9155 L422.7575,178.9295 L429.5685,182.7025 C428.9315,182.6195 428.2865,182.6075 427.6375,182.6745 C422.2845,182.2125 416.5545,186.2285 413.5635,192.5915 C409.9495,200.2815 411.4605,208.9745 417.5475,211.9425 C423.6685,214.9265 431.3185,210.6415 434.9425,202.9315 C436.3695,199.8945 436.9855,196.7045 436.8475,193.7675 C437.0215,190.4985 436.2745,187.5375 434.5725,185.4755 L484.0925,212.9095 C488.4145,215.1815 495.7975,217.7005 502.5355,219.1105 C513.1925,221.3255 520.9405,220.8295 523.9205,215.9675 C524.4295,215.1405 524.8595,214.2765 525.2075,213.3675 C524.8975,214.8185 524.4765,215.9615 524.2175,216.3455 L524.2175,216.3455 Z M483.0575,818.7715 C477.8075,818.9655 477.8015,819.3715 477.7835,819.9585 C477.7545,820.9585 477.7025,822.0785 477.6205,823.2875 C477.3875,826.7265 476.9675,830.1575 476.3245,833.3145 C475.1285,839.1855 473.2815,843.2075 471.4235,844.3885 C467.6945,846.7555 449.3095,858.7275 406.7605,886.4705 L406.7355,886.4875 C356.2115,919.4295 345.0655,926.6935 342.0365,928.6195 C335.8625,932.5485 323.5155,938.2065 310.2545,942.1645 C290.6675,948.0105 271.1255,949.7925 252.9095,946.0945 C233.8505,942.2215 191.4855,931.0215 139.1895,916.3075 C97.7655,904.6525 55.9365,892.3725 51.9075,890.7645 C46.5365,888.6165 41.4285,885.0465 37.1315,879.2925 C30.9145,870.9685 27.4535,859.2505 27.7935,843.3315 C28.1135,828.2325 25.5675,719.7525 20.9815,545.5245 C25.3255,549.9275 30.8715,553.3835 37.7055,555.6325 C62.6855,563.8525 131.4175,581.9085 152.7015,585.8255 C156.9225,586.6035 163.5365,587.8945 173.6605,589.9095 C178.8305,590.9385 199.3285,595.0405 203.2705,595.8265 C204.0805,595.9885 204.0805,595.9885 204.8915,596.1505 C239.3415,603.0175 257.1435,606.3785 262.0575,606.7345 C262.3635,606.7565 265.3025,606.9865 266.3845,607.0635 C276.4305,607.7795 285.7625,607.7355 296.7085,606.3955 C311.8995,604.5355 327.2745,600.3405 342.7135,593.2375 C378.6365,576.7085 420.9575,555.9395 434.7545,548.1595 C435.3725,547.8115 443.7005,543.1865 446.9335,541.3605 C453.1225,537.8645 458.6865,534.6095 463.9755,531.3455 C469.0645,528.2065 473.6725,525.1965 477.7635,522.3095 C481.2095,519.8775 484.2435,517.5795 486.8685,515.3825 C484.8635,579.8435 482.8115,647.8205 480.8055,715.8025 C480.0085,742.7915 479.2765,767.8535 478.6235,790.3455 C478.3965,798.2175 478.1945,805.2055 478.0215,811.2305 C477.9605,813.3395 477.9075,815.1765 477.8635,816.7335 C477.8365,817.6675 477.8185,818.2995 477.8095,818.6205 L477.8075,818.7715 L483.0575,818.7715 Z M472.6255,193.3655 C477.8825,190.3875 482.6375,187.5335 486.8485,184.8045 C491.7055,181.6575 495.7535,178.7485 498.9525,176.0365 C498.4635,184.6925 497.8895,196.8475 497.2355,212.3525 C493.0445,211.1155 489.1235,209.6235 486.5855,208.2895 L466.1365,196.9605 C468.3485,195.7555 470.5205,194.5575 472.6255,193.3655 L472.6255,193.3655 Z M455.8235,107.1235 C455.8565,106.9195 455.8775,106.7195 455.8775,106.5275 C455.8815,103.4495 454.5505,101.9405 450.2475,98.7065 C448.9445,97.7265 448.3635,97.2735 447.6775,96.6805 L447.5145,96.5515 C446.9325,96.1245 446.0335,95.4675 444.8965,94.6355 C443.1935,93.3915 441.2765,91.9935 439.1675,90.4595 C433.3695,86.2415 427.0605,81.6725 420.4125,76.8875 C401.7875,63.4805 383.8385,50.7645 367.9205,39.7805 C348.3055,26.2435 325.6395,20.6365 302.5385,20.6365 C298.3695,20.6365 294.5305,20.8375 291.1045,21.1715 C289.9085,21.2885 288.8465,21.4135 287.9275,21.5395 C287.3625,21.6175 286.9795,21.6775 286.7345,21.7185 L286.6845,21.7275 L286.6495,21.7305 C286.3125,21.7515 285.8365,21.7825 285.0905,21.8305 C283.9235,21.9075 282.5685,21.9955 281.0425,22.0955 C276.7565,22.3765 271.9335,22.6945 266.6795,23.0445 C251.7815,24.0355 236.3325,25.0865 221.1255,26.1485 C177.8065,29.1765 144.8885,31.7105 128.6125,33.3955 C112.3235,35.0815 99.4875,40.2885 89.8445,47.4795 C86.6615,49.8525 83.9855,52.3345 81.7835,54.8065 C80.3295,56.4405 79.2905,57.8275 78.6355,58.8535 L78.5365,59.0075 L64.2685,90.1585 L63.6275,91.4895 C60.0125,99.0015 59.3225,101.0095 56.4035,113.1425 L56.3815,113.2415 C56.3105,113.5965 56.2195,114.1155 56.1245,114.7705 C55.9805,115.7645 55.8565,116.8555 55.7685,118.0235 C55.7595,118.1365 55.7585,118.2495 55.7505,118.3615 L55.6295,118.3665 L55.6835,119.6895 C55.5775,122.1685 55.6605,124.6595 55.9795,127.1065 L57.4815,164.6365 C45.7895,161.5515 35.5455,158.7225 28.5385,156.5965 C20.5605,154.1755 15.8355,148.0975 14.3505,138.1065 C13.8265,134.5925 13.7615,130.9105 14.0345,127.2795 C14.1335,125.9705 14.2715,124.7505 14.4315,123.6465 C14.5295,122.9715 14.6195,122.4495 14.6875,122.1035 C18.1975,107.4825 18.9215,105.3765 23.2015,96.4615 L24.0205,94.7545 L41.5315,56.4405 C41.7495,56.1085 42.0505,55.6785 42.4355,55.1625 C43.0915,54.2845 43.8695,53.3275 44.7745,52.3105 C47.2415,49.5325 50.2645,46.7225 53.8755,44.0235 C64.9845,35.7205 79.8795,29.6645 98.9615,27.6855 C119.0195,25.6045 159.7385,22.4625 213.2945,18.7115 C232.1135,17.3935 251.2295,16.0915 269.6705,14.8605 C276.1695,14.4275 282.1355,14.0325 287.4465,13.6835 C289.3295,13.5605 291.0055,13.4505 292.4535,13.3565 C293.3635,13.2965 293.9645,13.2575 294.3905,13.2305 L294.6065,13.2165 L294.7535,13.2065 L295.1145,13.1425 C295.1515,13.1365 295.2585,13.1185 295.4195,13.0935 C295.6925,13.0515 296.0135,13.0035 296.3845,12.9525 C297.4475,12.8065 298.6875,12.6595 300.0895,12.5225 C304.1475,12.1255 308.7105,11.8865 313.6735,11.8865 C341.1705,11.8865 368.0895,18.5605 391.2745,34.5955 C410.9455,48.1995 433.1355,63.9565 456.1625,80.5695 C464.3845,86.5005 472.1875,92.1625 479.3585,97.3915 C481.9645,99.2925 484.3345,101.0245 486.4405,102.5665 C487.7935,103.5575 488.8745,104.3495 489.5905,104.8755 C490.0845,105.3025 490.6055,105.7265 491.1825,106.1785 C491.6945,106.5815 492.0885,106.8815 493.0005,107.5685 C496.6665,110.3305 497.5675,111.3075 497.6225,112.4425 C497.6195,112.4455 497.6135,112.4575 497.6045,112.4835 C497.4935,112.7775 497.2705,113.1935 496.8975,113.7305 C495.7415,115.3995 493.6155,117.5975 490.3015,120.3435 C482.8635,126.5055 470.7795,134.3495 453.2495,144.0225 L455.8235,107.1235 Z M102.7315,149.8235 L101.6865,133.1175 C103.4355,134.7225 105.5495,135.9245 108.0245,136.6865 C125.4255,142.0395 173.5265,154.1345 187.1105,156.4715 C191.1555,157.1675 196.4575,158.1475 211.5285,160.9665 C216.6705,161.9285 218.9745,162.3585 221.8875,162.9015 C222.4425,163.0055 222.4425,163.0055 222.9985,163.1085 C244.7395,167.1565 256.3705,169.2075 259.3955,169.4125 C259.5395,169.4225 259.6995,169.4335 259.9055,169.4485 C260.1805,169.4685 260.1805,169.4685 260.4765,169.4895 C264.2495,169.7665 266.6625,169.8865 269.9795,169.8865 C284.1855,169.8865 298.1025,166.9995 311.3315,161.3095 C336.7725,150.3675 364.1945,137.9205 372.5395,133.5215 C389.3785,124.6455 400.3725,117.7035 406.6605,112.4225 C406.8155,112.2925 406.9585,112.1675 407.1075,112.0395 L405.6705,136.4645 C404.7075,136.9705 403.7435,137.4755 402.7475,137.9925 C392.3635,143.3805 357.7415,158.8495 325.6795,172.4225 C309.6665,179.2005 292.8415,182.6365 275.6625,182.6365 L275.6615,182.6365 C271.6415,182.6365 268.7055,182.4925 264.0595,182.1575 C263.4075,182.1105 263.0285,182.0835 262.6585,182.0595 C259.2025,181.8285 244.1765,179.2205 217.2665,174.2885 L215.8605,174.0315 C212.1745,173.3555 209.2525,172.8175 202.7475,171.6205 C183.6085,168.0965 176.9125,166.8785 171.7495,166.0035 C160.2725,164.0595 128.6785,156.5295 102.7315,149.8235 L102.7315,149.8235 Z M137.8195,139.4415 L137.2015,120.9445 C138.4205,121.8775 139.8285,122.5995 141.4275,123.0875 C152.5675,126.4815 180.3255,133.4895 194.7635,136.6075 C203.3975,138.8055 211.7505,140.7905 215.4585,141.4385 C217.6585,141.8235 220.6155,142.3795 228.7455,143.9245 C246.1975,147.2435 252.9595,148.4825 254.9705,148.6215 C255.1185,148.6315 255.2425,148.6395 255.5515,148.6625 C256.0175,148.6975 256.2485,148.7145 256.5585,148.7355 C258.0105,148.8335 259.3545,148.8865 260.8215,148.8865 C265.7105,148.8865 270.5375,148.2585 275.2505,147.0215 C281.9905,146.0215 288.5985,144.1605 294.9925,141.4365 C314.1745,133.2635 334.8345,123.9725 341.1395,120.6805 C352.6005,114.6965 360.3115,110.0385 365.1465,106.3725 L363.6335,132.0815 C351.7605,137.7765 329.8405,147.6345 309.2575,156.4865 C296.6805,161.8955 283.4695,164.6365 269.9775,164.6365 C266.8215,164.6365 264.5165,164.5215 260.8565,164.2535 C260.5595,164.2315 260.5595,164.2315 260.2805,164.2115 C260.0695,164.1965 259.9045,164.1845 259.7505,164.1745 C257.0535,163.9915 245.1555,161.8935 223.9595,157.9475 C223.4045,157.8435 223.4045,157.8435 222.8485,157.7405 C219.9385,157.1985 217.6345,156.7675 212.4925,155.8055 C197.3845,152.9795 192.0835,151.9995 187.9995,151.2975 C179.5745,149.8485 157.3715,144.5115 137.8195,139.4415 L137.8195,139.4415 Z M366.3315,98.1485 L365.6325,98.1075 L365.5795,99.0065 C365.0745,99.5305 364.4325,100.1295 363.5965,100.8255 C359.2335,104.4545 351.4105,109.3625 339.3775,115.6755 L339.3775,113.0555 C339.7155,112.4095 339.8765,111.8175 339.8775,111.2715 C339.8805,109.2785 339.1085,108.3745 336.8915,106.6525 C336.3635,106.2425 336.1245,106.0505 335.8615,105.8155 L335.6995,105.6835 C335.4775,105.5145 335.0695,105.2055 334.5715,104.8295 C333.8405,104.2785 333.0125,103.6555 332.1035,102.9715 C329.6085,101.0975 326.8895,99.0645 324.0255,96.9355 C316.0045,90.9725 308.2705,85.3155 301.4085,80.4265 C292.6815,74.2065 282.6225,71.6365 272.3885,71.6365 C270.5415,71.6365 268.8385,71.7285 267.3145,71.8825 C266.7795,71.9365 266.3015,71.9945 265.8855,72.0535 C265.6605,72.0855 265.4955,72.1115 265.3815,72.1305 C265.0495,72.1525 264.0905,72.2175 263.0335,72.2885 C261.1925,72.4125 259.1135,72.5545 256.8505,72.7105 C250.4405,73.1515 243.7875,73.6175 237.2395,74.0905 C218.5775,75.4375 204.4015,76.5645 197.3715,77.3155 C190.0725,78.0955 184.2845,80.5205 179.9225,83.8815 C178.4715,84.9985 177.2465,86.1715 176.2365,87.3435 C175.5575,88.1305 175.0645,88.8115 174.7435,89.3285 L174.6505,89.4805 L168.4695,103.4145 L168.2045,103.9835 C167.6155,105.2455 167.4055,105.7095 167.1475,106.3385 C166.9355,106.8565 166.7485,107.3585 166.5685,107.9035 C166.1295,109.2245 165.7055,110.8505 164.9985,113.8865 L164.9775,113.9855 C164.8725,114.5285 164.7625,115.3095 164.6925,116.2745 C164.5785,117.8165 164.6065,119.3885 164.8285,120.9295 C165.0015,122.1255 165.2875,123.2275 165.6775,124.2325 C156.5355,121.8975 147.9945,119.5995 142.9575,118.0655 C139.6565,117.0585 137.7315,114.5705 137.0895,110.2425 C136.8545,108.6555 136.8245,106.9765 136.9495,105.3175 C137.0255,104.3105 137.1385,103.5115 137.2375,103.0045 C138.1645,99.1245 138.7095,97.0865 139.2355,95.5415 C139.4385,94.9455 139.6445,94.4035 139.8835,93.8385 C140.1885,93.1125 140.4555,92.5385 141.2255,90.9275 L141.6185,90.1045 L150.0025,71.6855 C150.2875,71.2585 150.7445,70.6575 151.3845,69.9345 C152.5115,68.6605 153.8975,67.3675 155.5565,66.1215 C160.7005,62.2605 167.6275,59.4325 176.5445,58.5035 C186.1625,57.5015 205.7235,55.9855 231.4445,54.1765 C240.4865,53.5405 249.6705,52.9125 258.5315,52.3185 C261.6555,52.1095 264.5215,51.9185 267.0725,51.7505 C268.6355,51.6475 269.7455,51.5745 270.4085,51.5315 L270.5005,51.5265 L270.6555,51.5165 L270.9125,51.4705 C270.9795,51.4585 271.1755,51.4285 271.4665,51.3885 C271.9605,51.3205 272.5385,51.2515 273.1945,51.1865 C275.1015,50.9995 277.2485,50.8865 279.5875,50.8865 C292.5455,50.8865 305.2145,54.0405 316.1015,61.6015 C325.5455,68.1605 336.2015,75.7595 347.2625,83.7725 C351.2105,86.6325 354.9575,89.3635 358.4035,91.8865 C359.6555,92.8025 360.7915,93.6375 361.8045,94.3815 C362.4285,94.8405 362.9195,95.2015 363.2765,95.4645 C363.5045,95.6615 363.7435,95.8575 364.0025,96.0625 C364.2725,96.2755 364.4825,96.4365 364.9415,96.7845 C365.7585,97.4025 366.1855,97.7485 366.4455,98.0085 C366.4135,98.0515 366.3655,98.1045 366.3315,98.1485 L366.3315,98.1485 Z M407.5865,103.8835 C407.5285,103.9955 407.4425,104.1385 407.3215,104.3135 C406.6375,105.3155 405.3375,106.6775 403.2835,108.4025 C397.3285,113.4035 386.6275,120.1605 370.0915,128.8775 C369.7755,129.0435 369.4215,129.2265 369.0495,129.4165 L370.7165,101.0805 C371.5075,99.9595 371.8755,98.9815 371.8775,98.1225 C371.8805,95.8105 370.9405,94.7395 368.1105,92.5975 C367.6805,92.2735 367.4905,92.1275 367.2605,91.9455 C367.0305,91.7625 366.8255,91.5955 366.6365,91.4305 L366.4735,91.3005 C366.1105,91.0315 365.5885,90.6475 364.9145,90.1525 C363.8995,89.4055 362.7585,88.5685 361.5045,87.6505 C358.0525,85.1225 354.2975,82.3865 350.3425,79.5205 C339.2555,71.4895 328.5725,63.8715 319.0965,57.2895 C307.2265,49.0455 293.5315,45.6365 279.5875,45.6365 C277.0715,45.6365 274.7525,45.7585 272.6805,45.9625 C271.9555,46.0335 271.3095,46.1105 270.7485,46.1875 C270.4075,46.2345 270.1665,46.2725 270.0315,46.2955 C269.3505,46.3395 268.2545,46.4115 266.7275,46.5125 C264.1735,46.6805 261.3055,46.8705 258.1815,47.0805 C249.3155,47.6745 240.1235,48.3035 231.0755,48.9395 C205.2895,50.7535 185.6995,52.2715 176.0005,53.2825 C166.1125,54.3125 158.2915,57.5045 152.4055,61.9235 C150.4525,63.3885 148.8085,64.9235 147.4525,66.4555 C146.5485,67.4775 145.8965,68.3545 145.4785,69.0135 L145.3805,69.1665 L136.8625,87.8845 L136.4885,88.6625 C135.6815,90.3525 135.3945,90.9705 135.0445,91.8005 C134.7585,92.4785 134.5085,93.1365 134.2655,93.8515 C133.6705,95.6005 133.0895,97.7725 132.1175,101.8365 L132.0955,101.9375 C131.9575,102.6365 131.8095,103.6585 131.7145,104.9235 C131.5635,106.9445 131.5995,109.0025 131.8965,111.0115 C131.9125,111.1225 131.9355,111.2285 131.9535,111.3385 L131.6295,111.3495 L132.5205,138.0575 C123.2125,135.6065 114.9085,133.3115 109.5675,131.6685 C104.8495,130.2165 102.0695,126.5905 101.1695,120.4625 C100.8465,118.2615 100.8055,115.9455 100.9755,113.6585 C101.0795,112.2595 101.2385,111.1425 101.3735,110.4345 C102.6155,105.1945 103.3465,102.4385 104.0565,100.3315 C104.3325,99.5125 104.6135,98.7665 104.9385,97.9895 C105.3525,96.9985 105.7095,96.2205 106.7385,94.0485 L107.2615,92.9445 L118.4115,68.2135 C118.5375,68.0225 118.7055,67.7795 118.9185,67.4905 C119.3225,66.9435 119.8025,66.3455 120.3625,65.7065 C121.8965,63.9565 123.7795,62.1825 126.0305,60.4765 C132.9825,55.2095 142.3215,51.3605 154.3165,50.0995 C167.0985,48.7555 193.0725,46.7235 227.2325,44.2985 C239.2385,43.4455 251.4355,42.6035 263.1975,41.8075 C267.3465,41.5275 271.1535,41.2715 274.5385,41.0465 C276.6235,40.9075 278.3255,40.7955 278.9685,40.7525 L279.1085,40.7435 L279.2525,40.7345 L279.5335,40.6845 C279.7065,40.6555 279.9165,40.6215 280.3115,40.5665 C280.9775,40.4735 281.7555,40.3805 282.6375,40.2935 C285.1955,40.0395 288.0745,39.8865 291.2085,39.8865 C308.5695,39.8865 325.5545,44.1555 340.1665,54.4005 C352.7105,63.1945 366.8635,73.3815 381.5515,84.1235 C386.7955,87.9585 391.7735,91.6185 396.3475,95.0005 C398.0095,96.2285 399.5215,97.3485 400.8635,98.3455 C401.7095,98.9725 402.3825,99.4735 402.8445,99.8185 C403.1515,100.0835 403.4715,100.3485 403.8215,100.6275 C404.1675,100.9045 404.4395,101.1145 405.0395,101.5735 C406.8615,102.9635 407.4445,103.5165 407.5875,103.8745 L407.5865,103.8835 Z M450.1295,107.1675 C449.2255,108.4705 447.5385,110.2095 444.8945,112.3955 C438.3715,117.7875 427.3905,124.7965 411.0995,133.5755 L412.7875,104.8785 C412.8475,104.6025 412.8775,104.3375 412.8775,104.0815 C412.8775,103.9485 412.8625,103.8315 412.8565,103.7035 L412.8735,103.4155 L412.8405,103.4135 C412.6535,101.1645 411.4465,99.8585 408.2275,97.4015 C407.6555,96.9655 407.4045,96.7705 407.0945,96.5235 C406.7745,96.2675 406.4885,96.0315 406.2235,95.7985 L406.0625,95.6675 C405.5965,95.3205 404.8915,94.7965 403.9925,94.1305 C402.6475,93.1315 401.1335,92.0095 399.4675,90.7785 C394.8865,87.3925 389.9035,83.7255 384.6515,79.8855 C369.9375,69.1245 355.7575,58.9185 343.1805,50.1015 C327.5815,39.1645 309.5645,34.6365 291.2085,34.6365 C287.8955,34.6365 284.8435,34.7985 282.1185,35.0685 C281.1665,35.1625 280.3205,35.2645 279.5865,35.3665 C279.3245,35.4035 279.0935,35.4375 278.8955,35.4695 C278.7715,35.4885 278.6845,35.5035 278.6325,35.5125 L278.6175,35.5145 C277.9695,35.5575 276.2705,35.6695 274.1905,35.8075 C270.8035,36.0335 266.9935,36.2885 262.8445,36.5695 C251.0745,37.3655 238.8725,38.2085 226.8605,39.0615 C192.6365,41.4915 166.6315,43.5255 153.7665,44.8785 C140.7935,46.2425 130.5555,50.4615 122.8605,56.2925 C120.3165,58.2195 118.1755,60.2365 116.4135,62.2465 C115.2455,63.5795 114.4065,64.7175 113.8765,65.5605 L113.7805,65.7135 L102.4955,90.7425 L101.9935,91.8025 C100.9285,94.0515 100.5505,94.8735 100.0935,95.9675 C99.7225,96.8565 99.3975,97.7175 99.0815,98.6555 C98.3035,100.9645 97.5375,103.8535 96.2525,109.2765 L96.2315,109.3755 C96.1735,109.6705 96.1015,110.0925 96.0255,110.6265 C95.9085,111.4345 95.8115,112.3205 95.7395,113.2695 C95.5635,115.6415 95.5985,118.0495 95.8815,120.4095 L95.6335,120.4255 L97.3835,148.4325 C87.2555,145.7795 78.3445,143.3335 72.3615,141.5215 C66.1125,139.6295 62.4265,134.8965 61.2535,127.0315 C61.2385,126.9315 61.2335,126.8305 61.2185,126.7315 L60.9375,119.6995 C60.9575,119.2725 60.9715,118.8455 61.0035,118.4195 C61.1375,116.6415 61.3435,115.2155 61.5195,114.3195 C64.3465,102.5765 64.9185,100.9125 68.3585,93.7655 L69.0205,92.3885 L83.1535,61.5355 C83.3215,61.2815 83.5515,60.9545 83.8435,60.5635 C84.3655,59.8665 84.9855,59.1075 85.7055,58.2975 C87.6765,56.0835 90.0935,53.8425 92.9835,51.6875 C101.8855,45.0485 113.8305,40.2035 129.1535,38.6175 C145.3475,36.9415 178.2375,34.4085 221.4905,31.3865 C236.6925,30.3235 252.1355,29.2745 267.0285,28.2825 C272.2805,27.9325 277.1015,27.6155 281.3865,27.3345 C284.0295,27.1605 286.2155,27.0185 286.9945,26.9685 L287.1795,26.9555 L287.3205,26.9465 L287.6325,26.8915 C287.8085,26.8615 288.1355,26.8105 288.6415,26.7415 C289.4935,26.6235 290.4885,26.5065 291.6145,26.3965 C294.8755,26.0785 298.5465,25.8865 302.5385,25.8865 C324.6575,25.8865 346.3045,31.2415 364.9395,44.1005 C380.8245,55.0635 398.7465,67.7605 417.3445,81.1485 C423.9855,85.9285 430.2875,90.4915 436.0785,94.7045 C438.1845,96.2365 440.0985,97.6325 441.7995,98.8745 C442.8815,99.6665 443.7465,100.2995 444.3265,100.7245 C445.0945,101.3835 445.7425,101.8875 447.0925,102.9035 C449.7865,104.9275 450.5145,105.6685 450.6145,106.3405 C450.5315,106.5345 450.3775,106.8105 450.1295,107.1675 L450.1295,107.1675 Z M438.0145,152.1755 C425.1455,158.8675 382.2815,178.0615 342.5615,194.9135 C322.6625,203.3575 301.7515,207.6365 280.3995,207.6365 C275.4055,207.6365 271.7685,207.4575 265.9905,207.0405 C265.3195,206.9915 264.7595,206.9525 264.2685,206.9185 C259.1455,206.5765 238.8365,202.9665 190.0225,193.9585 C166.6385,189.6425 158.0635,188.0785 151.6555,186.9905 C136.9285,184.4915 95.5115,174.5615 62.7905,166.0285 L61.7875,140.9615 C64.1505,143.5555 67.1745,145.4365 70.8395,146.5465 C92.8405,153.2085 153.7085,168.2735 170.8725,171.1795 C175.9995,172.0485 182.6955,173.2665 201.7975,176.7835 C208.3035,177.9815 211.2255,178.5185 214.9135,179.1955 L216.3205,179.4525 C243.7665,184.4825 258.5305,187.0455 262.3125,187.2985 C262.6705,187.3215 263.0415,187.3475 263.6825,187.3935 C268.4435,187.7375 271.4865,187.8865 275.6625,187.8865 C293.5465,187.8865 311.0685,184.3085 327.7255,177.2565 C359.9135,163.6315 394.6205,148.1235 405.1655,142.6525 C426.4445,131.6135 440.3225,122.9865 448.2385,116.4425 C448.8775,115.9145 449.4675,115.4075 450.0185,114.9165 L447.7795,147.0085 C444.6765,148.6795 441.4285,150.4005 438.0145,152.1755 L438.0145,152.1755 Z M487.6745,489.6005 C487.5695,492.9755 487.4625,496.3715 487.3565,499.7695 C486.6415,500.8865 485.5655,502.1885 484.1345,503.6355 C481.2185,506.5875 477.0165,509.9865 471.7095,513.7305 C467.8115,516.4815 463.3795,519.3765 458.4625,522.4085 C453.3025,525.5925 447.8505,528.7825 441.7685,532.2185 C438.5795,534.0195 430.2565,538.6425 429.5975,539.0135 C416.1135,546.6165 374.0045,567.2825 338.3245,583.6985 C323.9055,590.3325 309.5795,594.2415 295.4335,595.9725 C285.2425,597.2205 276.5545,597.2615 267.1295,596.5895 C266.0945,596.5165 263.1665,596.2875 262.8175,596.2625 C258.6015,595.9565 240.2325,592.4885 206.9445,585.8525 C206.1345,585.6915 206.1345,585.6915 205.3245,585.5295 C201.3885,584.7435 180.8865,580.6425 175.7105,579.6125 C165.5375,577.5865 158.8895,576.2885 154.6025,575.4995 C133.8125,571.6735 65.5355,553.7375 40.9885,545.6585 C33.3535,543.1465 28.0645,538.8505 24.5895,533.2165 C22.6195,530.0225 21.3445,526.5705 20.6375,523.1095 C20.5205,522.5315 20.4245,521.9755 20.3455,521.4415 C20.1865,515.4175 20.0245,509.3235 19.8615,503.1565 C19.6345,494.6345 19.4045,486.0085 19.1705,477.2855 C17.2795,406.5015 15.2525,332.1205 13.2255,258.7125 C12.6935,239.4415 12.1905,221.2725 11.7215,204.4445 C16.2615,209.7635 22.5365,213.8675 30.7555,216.3515 C56.6685,224.1845 128.1955,241.4415 150.2445,245.1695 C154.6645,245.9165 161.5705,247.1555 172.1395,249.0865 C177.5335,250.0735 198.9105,254.0015 203.0085,254.7525 C203.8535,254.9075 203.8535,254.9075 204.6975,255.0615 C240.2775,261.5755 258.9995,264.8235 263.9205,265.1505 C264.2545,265.1725 267.3145,265.3925 268.4275,265.4655 C278.7205,266.1375 288.2615,266.0955 299.4525,264.8385 C314.9875,263.0925 330.7135,259.1515 346.5205,252.4715 C372.0825,241.6695 400.7675,228.9685 420.9245,219.6475 C427.6605,222.7905 434.3245,225.8975 440.6515,228.8425 L440.9125,228.9635 C463.6375,239.5405 477.3815,245.8845 478.9355,246.4705 C481.2735,247.3485 486.1595,248.3585 490.4175,248.7235 C492.3675,248.8915 494.1515,248.9255 495.7835,248.8335 C494.0095,295.5205 491.8465,358.9615 489.3775,435.9165 C488.8215,453.2315 488.2535,471.1445 487.6745,489.6005 L487.6745,489.6005 Z M426.9505,175.2515 L426.9815,175.2165 C426.6685,174.9445 426.2035,174.6305 425.5815,174.3435 C425.2465,174.1895 424.9005,174.0615 424.5465,173.9545 C424.4365,173.9075 424.3435,173.8585 424.2235,173.8115 C421.0285,172.5765 417.0315,173.0005 412.6585,175.9675 C405.8865,180.5645 401.2905,189.2225 400.8005,197.7945 C400.5365,202.3235 400.5875,205.3295 400.8475,207.2355 C400.9225,207.7835 400.9825,208.0685 401.0865,208.4765 C401.1385,208.6905 401.2205,208.9315 401.3245,209.1935 C401.3545,209.2685 401.3865,209.3445 401.4195,209.4215 C401.5285,209.6745 401.6335,209.8955 401.7105,210.0505 L402.1195,210.8645 L402.9445,211.2495 C403.0915,211.3185 403.0915,211.3185 403.7895,211.6455 C404.4795,211.9675 405.2785,212.3415 406.1785,212.7625 C408.7465,213.9615 411.6095,215.2985 414.6925,216.7385 C394.9245,225.8095 368.3335,237.5545 344.4765,247.6355 C329.1535,254.1115 313.9165,257.9285 298.8655,259.6205 C288.0225,260.8405 278.7785,260.8805 268.7705,260.2265 C267.6775,260.1555 264.6225,259.9355 264.2685,259.9115 C259.6705,259.6055 240.6865,256.3135 205.6435,249.8975 C204.7995,249.7425 204.7995,249.7425 203.9545,249.5885 C199.8595,248.8385 178.4805,244.9085 173.0825,243.9225 C162.4905,241.9865 155.5705,240.7445 151.1195,239.9925 C129.2995,236.3035 57.9855,219.0975 32.2755,211.3265 C23.6465,208.7185 17.6015,204.2095 13.6505,198.3255 C12.8015,197.0615 12.0705,195.7615 11.4445,194.4395 C11.3835,192.2955 11.3245,190.1695 11.2665,188.0745 C11.0595,180.6525 10.8755,174.0755 10.7175,168.4165 C10.6615,166.4355 10.6135,164.7105 10.5725,163.2515 C10.5315,161.7825 10.5315,161.7825 10.5235,161.4825 C10.4835,159.1345 10.4945,156.7325 10.5525,154.3005 C14.0105,159.5285 19.0375,163.3725 25.8305,165.4345 C52.9535,173.6675 128.9365,192.5125 150.1005,196.1045 C154.5165,196.8545 161.4155,198.0965 171.9725,200.0345 C177.3735,201.0265 198.7495,204.9705 202.8115,205.7185 C203.6535,205.8735 203.6535,205.8735 204.4955,206.0285 C240.0415,212.5635 258.7385,215.8195 263.6555,216.1485 C263.9925,216.1715 267.0485,216.3905 268.1595,216.4645 C278.4445,217.1385 287.9745,217.0965 299.1535,215.8345 C314.6715,214.0825 330.3815,210.1295 346.1705,203.4295 C386.0195,186.5195 428.9745,167.2965 442.2905,160.3705 C456.2015,153.1365 467.7895,146.7335 479.1235,139.5505 C488.6925,133.4875 495.9835,128.1525 500.6885,123.4385 C501.2385,131.3845 501.0765,142.6725 500.1085,158.3595 L500.0985,158.5125 C500.0905,158.6185 499.9615,160.6355 499.9225,161.2345 C499.8545,162.2865 499.7945,163.1685 499.7345,164.0215 C499.7055,164.4365 499.6765,164.8545 499.6415,165.3565 C499.6175,165.6775 499.5935,166.0285 499.5435,166.7115 C499.5285,166.9405 499.5285,166.9405 499.5115,167.1715 C499.4845,167.5415 499.4565,167.9465 499.4285,168.3465 C496.4115,171.6255 491.1405,175.7675 483.9925,180.3995 C479.8775,183.0665 475.2095,185.8665 470.0375,188.7975 C467.0355,190.4985 463.9365,192.2005 460.6905,193.9435 L426.9505,175.2515 Z M428.6585,188.3005 C430.3635,189.1315 431.4145,191.1815 431.5995,193.7495 C431.4675,195.5035 430.9585,197.4975 429.9895,199.5145 C427.4845,204.7325 423.1725,207.5055 420.8575,206.4005 C418.5495,205.2995 418.0125,200.2225 420.5165,195.0085 C422.4175,191.0475 425.3585,188.5015 427.6785,187.9845 C428.0185,188.0525 428.3495,188.1495 428.6585,188.3005 L428.6585,188.3005 Z M528.6605,198.4995 C525.1575,190.0225 515.3375,170.1735 510.4325,161.4265 C510.4865,160.5965 510.5715,159.2705 510.5765,159.1875 L510.5865,159.0215 C511.9975,136.1855 511.7695,122.0635 509.9785,113.3285 C508.3675,105.4735 505.7915,101.8055 500.5115,97.9905 C498.1985,96.3195 498.1135,96.2545 497.3335,95.5545 C497.2045,95.4385 497.0705,95.3285 496.9305,95.2265 C496.8535,95.1695 496.8535,95.1695 496.4835,94.8985 C496.1145,94.6295 495.6815,94.3115 495.1825,93.9475 C493.7595,92.9075 492.1065,91.6995 490.2395,90.3405 C484.9105,86.4575 478.9495,82.1315 472.4995,77.4725 C454.0715,64.1615 435.4205,50.8495 417.6995,38.4225 C415.7355,37.0445 413.7905,35.6845 411.8675,34.3415 C407.1255,31.0305 402.5205,27.8335 398.0695,24.7635 C392.0455,20.6095 385.7215,17.0075 379.1345,13.9285 C363.8925,6.8035 347.6825,2.6505 331.1405,0.9215 C319.2195,-0.3245 308.2355,-0.2185 298.8045,0.7135 C296.3335,0.9575 294.4955,1.2055 293.3685,1.3925 L293.0415,1.4135 C292.3505,1.4585 291.9605,1.4835 291.2885,1.5275 C289.3695,1.6525 287.1445,1.7975 284.6375,1.9615 C277.4755,2.4315 269.4945,2.9595 260.9015,3.5345 C236.3455,5.1775 211.7895,6.8685 188.8695,8.5125 C182.0745,8.9995 175.5135,9.4765 169.2095,9.9415 C136.5495,12.3525 111.9365,14.3615 97.6555,15.8395 C78.1355,17.8575 62.1745,23.7765 49.5105,32.4105 C43.8725,36.2545 39.2575,40.3925 35.5875,44.5575 C34.2805,46.0405 33.1815,47.4305 32.2795,48.6955 C31.7075,49.4965 31.3125,50.1065 31.0845,50.4935 C30.9945,50.6475 30.9115,50.8055 30.8375,50.9685 L13.2625,89.3095 C4.5395,105.3185 -0.4035,136.1555 0.0265,161.7175 C0.0355,162.0775 0.0355,162.0775 0.0765,163.5455 C0.1175,165.0055 0.1655,166.7295 0.2215,168.7095 C0.3795,174.3685 0.5635,180.9455 0.7705,188.3675 C1.3615,209.5745 2.0205,233.3095 2.7295,259.0015 C4.7565,332.4075 6.7825,406.7855 8.6745,477.5665 C8.8425,483.8265 9.0075,490.0195 9.1715,496.1775 L9.0045,496.1815 L9.0435,497.6745 C9.0875,499.3935 9.1125,500.3665 9.1555,502.0445 C9.2785,506.8235 9.4215,512.3935 9.5835,518.7005 C9.5855,519.1605 9.6135,519.8245 9.6855,520.6655 C9.7265,521.1535 9.7955,521.6775 9.8625,522.1975 C14.8225,709.5855 17.6235,827.6085 17.2955,843.1085 C16.9075,861.2885 21.0475,875.3025 28.7175,885.5745 C34.2825,893.0285 40.9655,897.6975 48.0125,900.5155 C52.5805,902.3385 94.1915,914.5535 136.3455,926.4145 C188.9135,941.2055 231.4065,952.4395 250.8205,956.3845 C270.9155,960.4645 292.1415,958.5295 313.2575,952.2265 C327.4525,947.9905 340.6845,941.9255 347.6745,937.4785 C350.7585,935.5155 361.7125,928.3775 412.4705,895.2825 L412.4955,895.2655 C454.8885,867.6245 473.3815,855.5825 477.0515,853.2515 C482.0365,850.0865 484.8895,843.8745 486.6135,835.4095 C487.3605,831.7455 487.8335,827.8685 488.0965,823.9985 C488.2505,821.7345 488.3045,819.9445 488.3075,818.8495 C488.3175,818.5105 488.3335,817.9025 488.3595,817.0335 C488.4035,815.4785 488.4555,813.6405 488.5165,811.5325 C488.6905,805.5085 488.8915,798.5215 489.1195,790.6495 C489.7725,768.1595 490.5045,743.0995 491.3005,716.1125 C493.4455,643.4655 495.6405,570.8235 497.7765,502.4755 C498.3225,501.1255 498.6415,499.7965 498.7205,498.4765 C498.7805,497.4865 498.8435,496.4785 498.9275,495.1905 C499.3655,488.4425 499.3965,487.9555 499.4985,485.4785 L498.3115,485.4295 C498.8405,468.5695 499.3625,452.1475 499.8715,436.2535 C502.4465,356.0255 504.6885,290.4795 506.5025,243.3245 C506.5045,243.2665 506.5065,243.2125 506.5085,243.1565 L528.1605,219.8155 L528.2925,219.6605 C531.1215,216.0925 532.1945,207.0345 528.6605,198.4995 L528.6605,198.4995 Z" id="Fill-1" fill="#220F21"></path>
    </g>
</svg>
