<svg height="960" viewBox="0 0 960 960" width="960" xmlns="http://www.w3.org/2000/svg"><g fill="#000" fill-rule="evenodd"><path d="m583.977364 2.79919863c50.668951.41987705 99.366353 4.31809031 143.26718 10.75558927 35.170713 5.1573386 65.605456 11.7866252 82.762281 17.6358989 31.947069 10.8917092 50.000852 34.906325 51.060529 66.2721149.350028 10.3606173-1.052172 20.7479963-3.890025 32.9549833-1.01946 4.38519-2.204939 8.930044-3.741414 14.459532-.328535 1.182336-.982601 3.496707-1.664042 5.9004l-.178192.62839c-.05077.178997-.101549.357987-.152213.536542l-.151529.533938c-.930814 3.279329-1.780882 6.26417-1.778023 6.254052-3.015768 10.672976-4.18263 19.181545-4.061082 26.536851.088652 5.364585.777624 9.81083 2.491279 17.116302.212952.907837.989457 4.162414 1.031338 4.339116.463747 1.956598.813055 3.478924 1.147126 5.0284 2.322865 10.773826 10.310502 49.147094 24.037789 115.474661.030558.14765.060281.295471.089167.443457 25.123447 128.708628 37.749446 226.771061 37.749446 295.097563 0 70.436572-7.332371 131.582195-19.656931 183.359657-4.122835 17.320692-8.572379 32.549605-13.130615 45.745124-1.699864 4.92089-3.330191 9.310158-4.882714 13.225903-.591055 1.490748-1.144447 2.846214-1.675332 4.113309-.33619.802404-.621867 1.471081-.879761 2.070094-4.065656 9.515522-8.642958 17.696913-14.165674 24.731255-7.315165 9.317402-16.239916 16.542152-27.094925 20.8711-7.532952 3.004121-21.718009 7.53785-37.555946 11.720546-22.233761 5.871791-46.301815 10.771667-71.30257 14.084565-62.299119 8.255377-166.715929 14.954839-250.829324 14.954839-95.188004 0-157.592943-12.027235-204.585834-40.092099-25.981784-15.516714-44.007669-27.101475-60.391857-39.431902-23.390464-17.603216-40.071911-34.432665-49.91242-53.151584-20.237621-38.496626-38.287123-174.882694-32.063059-255.082379 4.231978-54.530832 16.538698-141.954055 36.947902-262.901282l.523121-3.090732-.035668-.659465c-1.053382-19.932785-2.021531-34.085391-2.860693-42.096598l-.034414-.325769c-.515204-4.835562-1.082442-9.658325-1.693095-14.440548-.246512-1.930518-.497138-3.832334-.750856-5.702302l-.053274-.395318-.419897-.330356c-8.750604-7.008521-14.532364-17.638132-14.980357-29.736802l-.019646-.686384-.356759-17.634017c-.154675-7.645346 1.885374-15.17482 5.878453-21.696366.342685-.559676 1.081989-1.783679 2.211241-3.660944l.267516-.444806c3.293183-5.47671 9.572807-15.956518 18.697218-31.204446 17.570354-29.362057 45.210728-56.5661055 86.756363-80.4813459 33.394044-19.2228762 94.194579-32.015233 177.525591-40.8407398 30.386394-3.2181935 47.031099-4.92533483 62.502728-6.3017913l.965563-.08560862c.321421-.0283998.642446-.05666674.96319-.08481151l1.03382-.09037903 1.032713-.08961106c.516221-.04462681 1.032345-.08899548 1.548848-.1331508l1.216231-.10352274c.608696-.05158612 1.218435-.10292556 1.829993-.15409124l1.225771-.10212128c1.638211-.13591043 3.29304-.27093095 4.979211-.40644438 28.451447-2.28657219 52.80161-3.39212799 75.206533-3.20646571zm-311.094404 122.84226437c-30.112397 15.362702-56.809301 46.014521-79.845573 92.275671 1.401915 8.751958 3.432615 22.558803 5.147757 38.656623 1.014907 9.52562 2.124752 26.075795 3.329536 49.650526-20.9752 123.703352-33.563393 212.622056-37.764579 266.756111-6.301779 81.201084 13.615877 206.795113 27.588707 233.37466 13.97283 26.579548 57.049689 53.946221 95.40801 76.85439 38.358321 22.908168 92.750111 34.433937 184.076369 34.433937 11.261064 0 22.68615-.11707 34.161332-.335291l.646609 2.684555c-22.986965-95.109095-33.093714-162.833541-30.214209-203.802693 3.496589-49.748917 22.892807-130.952886 53.018307-229.660017 23.59427-77.307357 52.746814-161.142442 71.495468-207.549039 5.475007-13.551715 10.141203-39.613317 13.736022-77.651741-2.435777-.913487-4.815561-1.922959-7.046137-2.981708-17.22834-8.177474-56.98935-27.338355-96.938133-46.699242l-4.132386-2.003122c-27.541492-13.353005-54.805818-26.624282-74.463479-36.276693-46.815833-22.9877661-101.833958-16.4855233-158.203621 12.273073zm497.287274 738.438663-.571866.093094c-44.821476 7.537729-81.994702 12.535192-111.555994 14.99071-31.1925 2.591016-77.896581 4.342474-140.191664 5.264328 2.240991 9.9327 4.648294 20.222545 7.220682 30.86586.1231.50933.204814 1.018979.247303 1.525409 74.945265-2.164532 149.164833-8.230192 191.079272-13.784355 12.85517-1.703463 24.945118-3.799291 35.97975-6.035932l-.271506.421533c6.478712-10.040685 12.512314-21.194774 18.064023-33.340647zm36.759864-662.543891-.15919.080341c-1.387209.691361-2.872797 1.246426-4.438195 1.663391-1.64303.437642-3.322434.718001-5.028803.863106l-.000097 2.674664c.035755 37.395148 1.106966 65.482763 3.192291 84.146475 1.79184 16.037016 5.094779 43.730424 8.498606 71.879993l.538079 4.446827c5.385063 44.473518 10.836606 88.61465 10.803424 88.334435 6.686645 56.467666 10.267995 96.162814 11.747572 135.33283.100468 2.659783.190304 5.308475.269471 7.947718 1.217529.324649 2.249284.606856 2.745665.758096 9.461802 2.882872 12.945072 7.829306 14.60679 18.892126.206898 1.377421.390202 2.745792.732025 5.406889 1.223262 9.52311 1.836305 15.699307 1.929658 20.299023.06337 3.122337-.105475 5.61238-.661699 7.816491-.480081 1.902388-1.244468 3.636272-2.560523 5.238056-2.086971 2.540072-5.17347 4.105842-8.625943 4.105842-2.461584 0-3.837206-.513103-6.127623-1.653703-.358575-.178567-1.335599-.690773-2.123214-1.104504l.08141-2.422927c-2.927633 93.840312-21.953413 176.847318-53.168665 234.61748 19.301466-4.951989 32.451496-9.510275 36.512793-11.12991 7.612921-3.036012 13.822288-11.356506 19.294528-24.164085 2.40118-5.619876 37.008521-84.326326 37.008521-232.7979 0-65.225269-12.336173-161.036715-37.008521-287.434337-13.691908-66.156624-21.681707-104.540276-23.969397-115.150955-1.211407-5.6187-2.890451-11.602163-4.088963-18.645462zm-81.159953 648.13155-3.240509-.000434c-34.903366.022798-63.236659.939395-84.969013 2.7446-22.395656 1.860303-49.243496 5.617579-80.521939 11.273939 42.479988-.99538 75.608153-2.481351 99.348085-4.453316 21.512353-1.786931 47.279381-4.967624 77.28619-9.542769-2.670217-.012437-5.304306-.01965-7.902814-.02202zm48.395792-202.32915c-19.419839 0-39.688343 5.393719-63.842599 15.481915-2.536911 1.059558-7.079618 3.050879-11.616252 5.058908l-.697625.308936c-.348517.15441-.696388.308642-1.042696.462278l-.690263.306356c-5.844915 2.595177-11.061937 4.938065-11.152063 4.982389l-.529838.230841c-9.153897 3.973447-14.261088 5.677164-19.028544 5.677164h-159.803161c-1.989268 0-3.842872-.580848-5.400461-1.582194-2.508767 14.798014-4.196803 27.974141-4.994733 39.326959-2.042591 29.061659 3.125756 74.054441 15.551159 134.70463 50.567087-10.485792 92.207942-17.093489 124.986157-19.816222 33.99118-2.823488 83.146937-3.518027 147.576943-2.102057 16.650528-48.892803 26.824747-108.96113 28.877567-174.760791.045212-1.449208.086844-2.897946.124912-4.346416-10.304156-2.501394-22.86953-3.932696-38.318503-3.932696zm-244.579578-26.694005-2.613746.258502c-2.585588.255662-5.195493.513822-7.829666.774476l-3.380051.333814v37.836h149.803161c.949445 0 4.751478-1.284793 11.162732-4.065925l.389114-.170362.015-.007.02409-.010536c.535753-.245314 6.216782-2.795091 12.294862-5.489085l1.049634-.464906.967481-.427911c4.352064-1.9235 8.640109-3.799383 11.146488-4.84619 26.381251-11.018316 48.96019-17.026872 71.550479-17.026872 22.30202 0 39.746615 2.782236 53.62484 7.593653 1.128914.39138 2.205728.785113 3.243796 1.184957l.735323.286177-.012781-.129025c-.268279-2.582017-.626281-5.610217-1.079904-9.165693l-.07649-.597475c-.184771-1.438443-.319614-2.470438-.434572-3.312677-8.565859.529464-17.294062 1.04737-26.043933 1.54911l-4.639915.264446c-.773403.043811-1.546783.087487-2.320046.131026l-4.6374.259536c-62.565172 3.480455-123.10335 5.999759-130.797306 5.401014-3.85699-.300152-14.156985-1.09409-30.898793-2.381723l-2.626485-.201992c-22.297501-1.714697-55.170307-4.239874-98.615912-7.575339zm196.372199-18.797208c-2.496118 0-30.209711 2.559531-81.684694 7.548681 3.3226.257015 6.249418.482459 8.776073.677236l1.508692.116326c4.130652.318557 7.037497.543323 8.720634.674305 5.57843.434115 50.410825-1.353236 101.800653-4.020089-18.680625-2.771615-35.594397-4.996459-39.121358-4.996459zm-82.940428-359.455193-14.110448.001164c-2.94709 19.454929-6.402817 34.103371-10.433196 44.079351-18.514444 45.826881-47.477742 129.117744-70.910334 205.895355-11.847539 38.818828-22.013689 74.898959-30.168024 107.282144 4.074917.312511 8.06385.61874 11.968476.918508 127.98483-12.652253 191.594894-18.721329 196.593954-18.721329 7.9329 0 59.636977 7.464229 86.234153 12.409146l-.094673-2.543345-.089846-2.31312c-1.508556-37.798499-5.036581-76.559713-11.533215-131.422759.067436.569481-15.124397-122.451605-19.855191-164.79232-1.441162-12.898439-2.409545-29.817996-2.911386-50.792284l-16.25427-.000511-26.67403 37.054952c-1.885505 2.619239-4.914502 4.162069-8.12872 4.157677l-.322004-.005624-46.154756-1.546457c-2.863454-.095942-5.54822-1.415474-7.373393-3.623939zm26.301773.429906 16.027227 19.392094 36.319 1.217 14.490544-20.130567c-13.99066.568339-24.367223.852689-31.167734.852689-9.877152 0-18.770151-.325746-29.649207-.965081-1.207985-.07099-2.405343-.143422-3.953598-.238604-.447815-.02753-.941477-.057972-1.855558-.114353zm53.604064-41.634132c-2.613132 0-5.159046.037292-7.760982.116903l-1.044055.034113c-8.38101.291152-17.503939 1.022515-31.407051 2.358822-22.285488 2.141985-33.607697 2.981643-43.446989 2.591339l-.78416-.033847c-1.562711-.072937-3.093931-.17731-4.632493-.312825l-.527153-.047399c-.559744 5.762638-1.145022 11.261444-1.756664 16.498104l15.760625-.000892c.01353-.001015.02719-.002032.040981-.003052.399017-.029503.863841-.057903 1.395526-.083676 3.386578-.16416 7.927043-.16416 13.689278.097759 1.772457.080566 3.699438.188415 6.522114.360187.517112.031468 1.05018.064181 1.787948.109651l.239438.014769c.764975.047182 1.207912.074489 1.613033.099395 1.531821.094172 2.712665.165605 3.899695.235363 10.520831.618283 19.048141.930634 28.475882.930634 9.394826 0 26.388283-.582634 50.866402-1.748981l.112967-.004759c.014001-.000507.028007-.000985.042018-.001434l.026576-.001042.09821-.002249c.04851-.000977.096951-.001605.14532-.001886l.050855.000037 16.403842-.000808 1.813886-19.945632c-11.627624-.757812-28.737214-1.258594-51.625049-1.258594zm-386.991243-132.6956016-.825483.1412914c-26.044404 5.7112896-47.398038 12.4833513-61.204608 20.430936-41.608513 23.9514352-61.879716 48.7937172-72.387953 66.3541732-5.259418 8.789086-9.560831 15.972681-12.904239 21.550785l-.48244.804847c-.951203 1.586772-1.82034 3.036012-2.607411 4.347721l-.386696.644393c-2.722315 4.536015-4.390881 7.306085-5.005697 8.31021l.16062 7.93052c23.699167-44.356428 51.468028-74.836609 83.505096-91.181236 27.977717-14.2736323 56.492012-23.6954906 84.435049-26.9979007 32.449814-3.8350375 63.330821.671106 91.672766 14.5877225 19.23024 9.4425372 45.762214 22.3589532 72.702003 35.4223282l3.732053 1.809387 4.127664 2.000445c39.202057 18.995334 77.849531 37.617591 94.733144 45.631441 5.365802 2.546891 12.114396 4.79122 16.782266 5.357846.446865.054244.891207.105507 1.334307.153767l.66388.070136c.311736.031903.623175.062308.934764.091209l.623513.055793c.103997.008963.208044.017759.312157.026387l.625616.049749c.104447.007955.208993.015741.313657.023359l.629514.043676c9.362508.617755 19.912516-.106002 43.382117-2.361799 16.745779-1.609532 26.885722-2.376739 37.14307-2.558339l1.099758-.017228 1.102493-.012817c.920395-.008861 1.845554-.013201 2.780263-.013201 35.204531 0 57.430466 1.171248 67.969215 2.780386 2.482398.379032 4.79914.382997 6.291754-.01458.252915-.067368.429141-.129234.539328-.174035l.013692-.006732.004461-.014358c.341981-1.369756.951262-2.602347 1.758345-3.656043l.018425.003963c-7.326433-1.604502-39.123051-4.165961-63.608958-4.19812-14.826805-.019474-30.056096.851726-48.964547 2.526639-4.017935.355909-17.586295 1.628856-20.294669 1.865151-23.638106 2.062331-36.076234.976321-48.970022-3.953883-2.338208-.894062-4.696731-1.904139-7.700857-3.273051-.656278-.299051-2.249182-1.036122-3.870604-1.786927l-.693994-.321377c-1.495962-.692779-2.904655-1.345136-3.498994-1.617365-5.806959-2.659792-16.457909-8.235268-35.626072-18.555498l-.608567-.328038-.057037-.030998c-1.183582-.641453-13.400852-7.244228-26.579708-14.355849l-.870222-.469577c-.145234-.078367-.290557-.15678-.435956-.235234l-1.579369-.852132c-.392876-.211959-.785954-.424017-1.178971-.636032l-1.767285-.953299c-9.806173-5.289181-19.329264-10.418702-24.480971-13.17538-2.1468-1.148754-4.24948-2.271925-6.314544-3.372907-21.843818-11.645961-39.768278-20.962775-54.715726-28.3694454-40.340611-19.9893406-76.670735-25.4262255-111.76939-19.5208802zm125.077294-17.8204979-1.583601.1640189c-3.943835.4092903-7.895672.8239351-11.853238 1.241286l-4.751684.5019506-4.756313.5035317-2.379619.2520409c-5.429289.5750108-10.817634 1.1753481-16.152258 1.8015254 12.091565 3.7405767 24.424345 8.7008891 37.048711 14.9564401 15.157636 7.5108221 33.241151 16.9103103 55.245025 28.6416038 2.074189 1.1058474 4.185792 2.2337851 6.341355 3.3872271 13.587847 7.270858 57.388672 30.941933 57.033973 30.754134l.556046.299521c18.703876 10.070212 29.240038 15.585964 34.486742 17.98914 1.398715.64066 6.753171 3.128498 8.028104 3.709456 2.657913 1.21115 4.662925 2.06983 6.550765 2.791685 9.67185 3.69823 19.215981 4.531556 40.088669 2.710497 2.625748-.229086 16.17642-1.500374 20.268294-1.862833 19.452905-1.72314 35.218736-2.625033 50.755508-2.604627 5.674693.007453 11.70406.142409 17.752638.369265l1.649837.064122c.653049.026262 1.305967.053558 1.958331.081842l1.303865.057872c19.760301.897326 38.752357 2.676718 45.196651 4.088029 1.388857.304163 2.236965.313841 2.66341.205153l-.012332.002314.019668-.022582c.65178-.675398 1.371708-2.228737 2.547215-5.77994l.115194-.34994c.095601-.291986.203363-.576585.32254-.853419.47203-1.918321.992889-3.890494 1.565547-5.917162 10.615455-37.568707 20.88078-66.9386115-13.919897-78.8032006-7.502548-2.5578426-20.394159-5.9338093-37.760884-9.4107567 4.554988 5.7082603 7.714414 10.2593312 9.526654 13.7469888 2.781087 5.3522046 5.003215 11.2432142 6.794314 17.6961116 1.594376 5.744147 2.794195 11.6982499 3.827414 18.4498519.217309 1.420008.553506 3.841808.886277 6.29127l.090579.667989.082197.6082c.449657 3.332007.852834 6.397195.894034 6.682886.045187.313339.088999.609778.131806.891589.987038 6.497934 1.0733 11.441039-.024631 15.764845-1.447334 5.6998-4.97264 9.975368-10.239955 12.414702-3.856896 1.786158-8.288891 2.513276-14.367948 2.721526-.480771.01647-.931765.030517-1.373224.041971l-.329623.008102-.327945.007113-.328165.00611c-.49336.008402-.993867.013362-1.530341.014673h-.54953c-2.567758-.005512-6.081316-.089184-13.265448-.273923-10.306278-.265025-17.262608-.336479-25.647915-.168729-12.523277.250531-21.789441.393368-29.115786.4l-1.084568-.000031c-8.562787-.008472-14.427081-.215135-19.869168-.669256l-.678226-.058058c-.901809-.079138-1.794525-.165207-2.688686-.258435-13.209759-1.377293-23.125628-4.447271-34.951631-10.707497-19.224801-10.176862-60.672236-35.671028-119.435656-73.9821503-4.580047-2.9859856-19.816822-9.580685-44.753091-19.2640432zm42.904914-4.1246209-.188219.0171387c6.076309 2.7380857 10.371958 4.9308841 12.959181 6.6176376 58.28498 37.9992001 99.327098 63.2440581 117.869926 73.0599091 17.281517 9.148163 25.751509 10.031272 78.630986 8.973407 2.540781-.050829 4.952912-.080645 7.355963-.090705l1.602001-.003794c5.344268-.002981 10.774916.090224 17.604103.265836 5.576053.143388 9.776606.222427 12.976011.228466l.606838.000255c5.053578-.00562 7.462858-.210331 8.894723-.652656l.039143-.01279c.167858-1.302792.075862-3.559912-.405063-6.854253l-.062151-.4172c-.050612-.333191-.101723-.679021-.153844-1.040443-.064008-.443851-.560502-4.216936-1.058264-7.888468l-.09042-.665669c-.300807-2.210073-.592481-4.306472-.779027-5.525462-.922534-6.028326-1.972759-11.240068-3.328985-16.1262194-1.440615-5.1901858-3.179764-9.8007871-5.27003-13.8235061-2.469509-4.7525717-10.228753-14.4584738-22.915115-28.4579163-37.803056-5.8565896-87.569003-10.8807858-144.55678-11.3530249-25.14973-.2084076-52.009281 1.3708958-79.730977 3.7494573z" fill-rule="nonzero"/><path d="m596.708551 54.1457393c10.652002 8.1593634 19.59411 15.8898374 26.826324 23.1914221 7.185046 7.2539634 14.977015 16.4012083 23.375907 27.4417346l.001044-.000794c2.771626 3.642493 7.054654 5.820211 11.63078 5.913703l68.41001 1.393521c1.104364.021306 2.0169-.856686 2.038206-1.96105.007315-.37914-.093309-.752546-.290137-1.076674-9.392433-15.4838675-16.462598-26.0539193-21.210026-31.7104406-7.565813-9.0146034-14.466071-15.5181199-20.700774-19.5105496l.000721-.0011266c-2.155253-1.3797874-4.627677-2.1852274-7.182097-2.3397072l-81.56936-4.9266124c-1.102634-.0653751-2.049491.7754886-2.114867 1.8781218-.039404.664602.254486 1.3052407.783942 1.7088806z"/><ellipse cx="579.512506" cy="66.508119" rx="14.438724" ry="6.703693"/><ellipse cx="603.748935" cy="84.040855" rx="13.923055" ry="6.703693"/><path d="m718.814912 73.010775c6.908408 1.7224594 13.06731.8786404 13.756294-1.8847227s-4.352855-6.3998407-11.261263-8.1223002-13.06731-.8786404-13.756294 1.8847226c-.688984 2.7633631 4.352855 6.3998408 11.261263 8.1223003z"/><path d="m729.112462 90.5104519c6.958137 2.5325549 13.388453 2.4161021 14.362513-.2601046.97406-2.6762066-3.876994-6.8987421-10.835131-9.431297-6.958138-2.5325548-13.388454-2.416102-14.362513.2601046-.97406 2.6762067 3.876994 6.8987421 10.835131 9.431297z"/><path d="m739.959956 110.551284c6.115238 2.34742 11.899993 2.094998 12.92061-.563802 1.020618-2.658799-3.109389-6.717142-9.224627-9.064562-6.115239-2.3474203-11.899993-2.0949975-12.920611.563802-1.020617 2.658799 3.109389 6.717142 9.224628 9.064562z"/><ellipse cx="624.891352" cy="103.636265" rx="12.376049" ry="6.703693"/></g></svg>