<svg height="960" viewBox="0 0 960 960" width="960" xmlns="http://www.w3.org/2000/svg"><path d="m259.790914 3.20601843 579.490304 36.81470927c54.064676 3.4346999 98.718782 46.4361069 98.718782 98.9072593v682.144026c0 52.471152-44.654106 95.472559-98.718782 98.907259l-579.490304 36.81471c-4.449164.282653-8.883254.274119-13.279498-.023495l-.090144-.007487-.532466-.01116c-1.948735-.061709-3.920828-.267053-5.905233-.625147l-.297301-.056693-.551773-.07552c-3.736032-.534744-7.425586-1.280976-11.053237-2.234308l-.38699-.104172-94.184-18.997-.499366-.035c-62.1342281-4.813009-111.3835531-55.299562-112.3821718-115.615438l-.0154619-1.868534v-665.846212c0-59.8816356 37.2569322-112.8312155 94.3224797-124.1405216.358187-.0709858.708234-.1361317 1.055567-.1972267l-.319047.0579323 114.91-21.395 1.204892-.27621639c2.578819-.57131646 5.185289-1.03943947 7.814067-1.40293403l.19691-.0362037c2.220915-.4102355 4.426068-.62943614 6.600202-.67037185l.066929-.00027403.046144-.0034867c4.396244-.29761394 8.830334-.30614786 13.279498-.02349487zm-63.426874 97.53323857v758.51779c0 33.835669 27.42923 59.523577 61.264899 57.375549l579.585388-36.794484c8.718865-.55351 17.01234-2.71704 24.52072-6.144447 21.373481-9.959142 36.264953-30.19922 36.264953-52.621652v-682.144026c0-22.502618-14.998171-42.8072465-36.493651-52.7276485-7.447999-3.3688377-15.661609-5.4942516-24.292022-6.042146l-579.585388-36.7944836c-33.835669-2.1480286-61.264899 23.5398795-61.264899 57.3755481zm-4.313956-47.2603326-69.129253 12.8723443c-.074726.0131441-.144508.0261226-.209073.0389182-38.3733078 7.6048597-62.0984857 44.6738851-62.0984857 84.9036291v665.846212c0 40.038698 33.8825618 75.708721 78.1157887 77.766326l52.570072 10.605482c-9.401331-12.80735-14.935093-28.744932-14.935093-46.254789v-758.51779c0-17.9710899 5.829135-34.2859827 15.686044-47.2603326zm135.436961 807.1218616c.243352 4.134981-2.911437 7.684321-7.046418 7.927672l-2.935802.172777c-2.91881.171778-5.545813-1.349636-6.924208-3.7138l-.106617-.189022-.075636.178991c-1.077875 2.432517-3.41676 4.203765-6.229151 4.439838l-.242203.016454-39.537492 2.056182c-4.136546.215125-7.664272-2.963815-7.879396-7.10036-.215125-4.136546 2.963815-7.664272 7.10036-7.879396l39.537492-2.056182c2.919915-.151853 5.536473 1.387455 6.8987 3.760971l.080326.145502.055783-.132913c1.061247-2.439817 3.387989-4.226987 6.198703-4.482248l.242086-.018107 2.935801-.172778c4.134981-.243351 7.684321 2.911438 7.927672 7.046419zm.00169-18.793814c.22694 4.135914-2.94191 7.672706-7.077824 7.899646l-2.935801.161089c-2.919469.160193-5.540413-1.371633-6.909415-3.741249l-.100695-.179575-.063087.152501c-1.075024 2.433778-3.411832 4.207766-6.223945 4.447133l-.242184.016738-39.537491 2.102632c-4.136291.219971-7.667739-2.954833-7.88771-7.091124s2.954834-7.667738 7.091124-7.887709l39.537492-2.102632c2.919735-.155274 5.538095 1.380967 6.903102 3.752886l.092699.168575.059689-.140886c1.070922-2.435586 3.404738-4.213508 6.216443-4.457613l.242155-.017147 2.935802-.161089c4.135914-.22694 7.672706 2.94191 7.899646 7.077824zm.002958-19.941978c.194896 4.137548-3.001256 7.649687-7.138803 7.844582l-2.935802.138289c-2.920622.137573-5.529622-1.41451-6.880227-3.794659l-.069861-.127323-.063648.151365c-1.073866 2.434289-3.409829 4.209389-6.221828 4.450094l-.242175.016854-39.537492 2.121501c-4.136186.221939-7.669144-2.951184-7.891083-7.08737-.22194-4.136185 2.951184-7.669143 7.087369-7.891083l39.537492-2.121501c2.919661-.156663 5.538751 1.378332 6.904887 3.749601l.093478.168539.084242-.194809c1.089757-2.427217 3.437274-4.187008 6.250786-4.409326l.242281-.01527 2.935801-.138288c4.137548-.194896 7.649688 3.001256 7.844583 7.138804zm527.529976-33.714638c4.051516 3.753274 4.293288 10.080306.540014 14.131822l-22.347337 24.123095c-3.44168 3.715162-9.117388 4.270891-13.214325 1.293863l-24.366915-17.706155c-4.467855-3.246555-5.457914-9.50032-2.211359-13.968175 3.246555-4.467854 9.50032-5.457913 13.968175-2.211358l17.184592 12.487826 16.315333-17.610903c3.753274-4.051516 10.080306-4.293289 14.131822-.540015zm-454.021669-441.554482c.289092 0 .57817.004044.867149.01213l358 10.018087c16.776546.469467 30.132851 14.204757 30.132851 30.98787v184.772078c0 16.783113-13.356305 30.518403-30.132851 30.98787l-358 10.018087c-17.114128.478913-31.376106-13.006594-31.855018-30.120721-.012131-.288979-.012131-.578057-.012131-.867149v-204.808252c0-17.120827 13.879173-31 31-31zm0 20c-6.075132 0-11 4.924868-11 11v204.808252c0 .102581 0 .205157.004304.307698.169937 6.072755 5.230639 10.857935 11.303394 10.687998l358-10.018087c5.952968-.166585 10.692302-5.040398 10.692302-10.995696v-184.772078c0-5.955298-4.739334-10.829111-10.692302-10.995696l-358-10.018087c-.102541-.004304-.205117-.004304-.307698-.004304zm429.752272-221.878829 25.441228 23.855571c4.028773 3.777676 4.232328 10.106052.454653 14.134826-3.777675 4.028773-10.106052 4.232329-14.134825.454654l-19.164792-17.970311-16.665116 13.145182c-4.258904 3.35916-10.400337 2.702783-13.858577-1.429889l-.185943-.228863c-3.420235-4.336339-2.677587-10.624284 1.658752-14.04452l23.42165-18.473546c3.88407-3.063515 9.424387-2.826778 13.03297.556896z"/></svg>