<svg height="960" viewBox="0 0 960 960" width="960" xmlns="http://www.w3.org/2000/svg"><path d="m623.944348 25.7307439c56.539989 6.1203241 107.422005 15.6260349 148.239943 28.1408776 48.966929 15.0133362 84.003308 34.1381355 103.151937 60.7788335 34.514707 48.018888 55.657579 109.898098 67.07183 184.627384 8.353851 54.692798 11.002457 109.006721 11.002457 182.764749l-.000277 10.730986c-.007868 31.633607-.185416 52.534545-.742356 72.494077l-.040432 1.423823c-.006849.237081-.013754.474061-.020715.710958l-.046706 1.560726c-.023763.779931-.048144 1.559345-.073157 2.338834l-.050873 1.559251c-.094826 2.859453-.198273 5.725205-.311033 8.6264-1.361336 35.025749-3.993658 65.773576-8.405234 94.17653-11.11535 71.563733-33.425514 126.940335-72.421646 166.375384-56.475122 57.11077-171.929885 95.374562-311.473841 108.777213-89.426758 8.58909-159.719431 8.832939-219.061288-2.322278l-1.709045-.325277-1.878224-.192201c-60.608935-6.28496-108.314111-18.001825-146.468527-34.674108l-1.176991-.517217c-16.501077-7.292187-30.93748-15.39177-44.142429-24.45756-9.968468-6.843801-17.756883-13.076133-28.187155-22.106784-47.086552-40.768082-74.5276849-87.019187-89.2698721-147.754997-6.4375861-26.521981-10.6080774-56.097833-13.4199114-92.428664l-.1320461-1.721503c-.0218169-.287024-.0435393-.574117-.0651686-.861304l-.1286694-1.724446c-.0605977-.819834-.1204614-1.640828-.1796229-2.463548l-.1173962-1.647911c-1.8442475-26.13368-3.00561-54.377108-4.49361371-102.704367-.13179556-4.280445-.84220618-27.688039-1.05544878-34.576425-3.41677715-110.372311-.15329389-180.634 14.73594399-241.104646 19.3251173-78.486378 59.0309651-133.404592 124.7835932-162.9768561 43.263922-19.4579621 101.342633-35.0174687 166.348767-45.20732l1.036801-.161673 1.936136-.3637459c79.672234-14.7908466 198.804834-16.4795561 306.76427-4.7931951zm-374.944348 72.2692561c-112.229585 84.857315-100.946889 186.370338-95.780838 381.880351 5.466652 206.886322 3.705436 304.245277 92.848718 384.42108 25.856126 23.255097 61.26078 37.228502 102.129862 44.889355.117422.022011.235263.044039.35315.066015l-.35315-.066015c1.026569.192429 2.056586.380875 3.089986.565386l-2.736836-.499371c1.073764.200167 2.151286.39599 3.232493.587521l-.495657-.08815c1.10241.196831 2.20867.389184 3.318701.577115l-2.823044-.488965c.999437.177046 2.002023.350426 3.007698.520181l-.184654-.031216c.894815.151495 1.792081.300116 2.691756.445893l-2.507102-.414677c1.067588.180206 2.138659.356328 3.213141.528417l-.706039-.11374c1.066093.172743 2.135569.341493 3.208359.5063l-2.50232-.39256c1.119356.179276 2.242416.354174 3.369099.524752l-.866779-.132192c1.162185.17854 2.328261.352452 3.49814.521801l-2.631361-.389609c.978322.148117 1.959376.292976 2.943112.434616l-.311751-.045007c.964497.139618 1.93158.276134 2.901199.409583l-2.589448-.364576c1.05684.152166 2.116775.300616 3.179739.445396l-.590291-.08082c1.134093.156085 2.271657.307975 3.412612.455727l-2.822321-.374907c1.063501.144854 2.130034.286034 3.199537.423589l-.377216-.048682c1.025498.1328 2.053737.262256 3.084658.38841l-2.707442-.339728c1.092089.140459 2.187273.277137 3.285485.410084.797975.096601 1.597687.191248 2.398972.283943l-2.398972-.283943c1.1051.133781 2.213266.263783 3.324427.390057l-.925455-.106114c1.253701.145033 2.511251.285287 3.77255.420837l-2.847095-.314723c.960204.10912 1.922645.215455 2.887278.31904l-.040183-.004317c2.115367.227335 4.241279.441437 6.377263.64265.110008.010363.220338.02072.330695.031042l-.330695-.031042c1.120783.10558 2.244339.20761 3.370599.306142l-3.039904-.2751c1.153749.107914 2.310426.212077 3.469957.312543l-.430053-.037443c1.023954.089582 2.050144.176272 3.078518.260107l-2.648465-.222664c1.051378.091094 2.105102.179149 3.161116.264205l-.512651-.041541c1.106197.090179 2.214921.177055 3.326107.260674l-2.813456-.219133c1.187758.095666 2.378413.187539 3.571887.275674 1.091817.080628 2.185994.158128 3.282469.232545.924226.062727 1.850085.123263 2.777541.181635l-2.777541-.181635c1.060898.072003 2.123948.141119 3.189094.207388l-.411553-.025753c1.128401.071018 2.259166.138833 3.392229.203491l-2.980676-.177738c1.182994.073601 2.368575.143691 3.556667.210324l-.575991-.032586c2.225914.127021 4.460698.241862 6.703857.344881.174167.007998.348189.015917.52226.023765l-.52226-.023765c1.135529.05215 2.273205.101271 3.412962.147409l-2.890702-.123644c1.275237.057491 2.553164.111175 3.833692.161119l-.94299-.037475c1.14405.046312 2.290199.089619 3.438379.129968l-2.495389-.092493c.959375.037417 1.920209.072735 2.882465.10598l-.387076-.013487c1.083322.038069 2.168454.073506 3.255341.106349l-2.868265-.092862c1.285177.044403 2.572891.085109 3.863049.122185l-.994784-.029323c1.245212.037627 2.492728.071851 3.742465.102729l-2.747681-.073406c1.109499.031884 2.220805.061084 3.333862.087641l-.586181-.014235c1.1383.028126 2.278443.053477 3.420367.076098l-2.834186-.061863c1.062173.025343 2.12594.04828 3.19125.068846l-.357064-.006983c1.176302.023302 2.354494.043708 3.534508.061267l-3.177444-.054284c1.211304.023386 2.424604.043707 3.639825.061018l-.462381-.006734c1.210461.018013 2.422839.033029 3.637061.045102l-3.17468-.038368c1.090838.015539 2.183223.028653 3.277104.03938l-.102424-.001012c1.149025.011426 2.299701.020216 3.451966.026416l-3.349542-.025404c1.145055.011229 2.291747.019842 3.440016.025885l-.090474-.000481c1.102083.00593 2.20562.009491 3.310557.010721l-3.220083-.01024c1.275959.006715 2.553864.010256 3.833631.010685 2.06434.000689 4.133179-.006718 6.206509-.021965.30323-.00223.6073-.004634.911467-.007205l-.911467.007205c1.293657-.009514 2.589063-.02208 3.886131-.037636l-2.974664.030431c1.112472-.009405 2.226222-.021053 3.341193-.034906l-.366529.004475c1.100394-.013197 2.201985-.028546 3.304719-.046009l-2.93819.041534c1.13421-.014091 2.269684-.030463 3.406365-.049074l-.468175.00754c1.163336-.018423 2.327946-.039198 3.493768-.062281l-3.025593.054741c1.269001-.020777 2.539506-.044345 3.811437-.070646l-.785844.015905c2.329122-.046116 4.663082-.101444 7.001389-.165627.28398-.007795.568284-.015728.852653-.023791l-.852653.023791c1.203221-.033027 2.407593-.068398 3.61305-.106066l-2.760397.082275c1.280245-.0363 2.561774-.075239 3.844507-.116759l-1.08411.034484c2.475818-.077363 4.956209-.164411 7.440596-.260725.086646-.003359.17298-.006717.259319-.010086l-.259319.010086c1.167662-.045267 2.336207-.092581 3.505575-.141898l-3.246256.131812c1.317905-.051428 2.636928-.105458 3.956983-.162028l-.710727.030216c2.357949-.099444 4.719243-.207032 7.083388-.322405.183896-.008975.367235-.017968.550591-.027008l-.550591.027008c1.069675-.052202 2.139935-.105997 3.210732-.161354l-2.660141.134346c1.39627-.06884 2.793521-.140384 4.191651-.21456 2.111262-.11201 4.224859-.230039 6.340113-.353816.078361-.004586.156364-.009158.234369-.013738l-.234369.013738c1.159064-.067824 2.318625-.137374 3.478627-.208609l-3.244258.194871c1.43543-.084279 2.871617-.1712 4.308451-.260685l-1.064193.065814c1.077732-.066182 2.155844-.133817 3.23429-.202873l-2.170097.137059c.977194-.060858 1.954687-.122902 2.932446-.186107l-.762349.049048c2.39586-.153414 4.793367-.313836 7.192014-.4809.58258-.040576 1.164938-.081523 1.747356-.122857.664709-.047174 1.330002-.094887 1.995363-.143096l-1.995363.143096c.90055-.063911 1.801243-.128746 2.702053-.194484 1.358309-.099125 2.716884-.200304 4.075632-.303472.7975-.060553 1.595352-.121813 2.393246-.183745l-2.393246.183745c1.351941-.102651 2.704054-.20727 4.056249-.313791.520813-.041028 1.041717-.082345 1.562628-.12394l-1.562628.12394c1.104379-.087 2.208812-.175269 3.313251-.264771l-1.750623.140831c1.467067-.117147 2.934188-.236503 4.40125-.357984l-2.650627.217153c1.100438-.089178 2.200882-.17958 3.301282-.271171l-.650655.054018c1.146117-.094906 2.292198-.191109 3.438187-.28857l-2.787532.234552c1.102734-.091786 2.205424-.184766 3.308021-.278904l-.520489.044352c1.206655-.10262 2.413208-.206634 3.619596-.311996l-3.099107.267644c1.283586-.109591 2.567046-.220751 3.850304-.333426l-.751197.065782c1.316354-.114965 2.632511-.231535 3.948387-.349649l-3.19719.283867c1.161101-.101949 2.322036-.205137 3.482747-.309524l-.285557.025657c.947885-.085083 1.895624-.170967 2.843186-.257629l-2.557629.231972c1.212636-.109055 2.425028-.219418 3.637111-.331042l-1.079482.09907c2.683715-.245447 5.36601-.497137 8.046179-.754557 126.780188-12.17674 237.029371-46.698569 286.855976-97.08599 19.606063-19.826737 33.764115-44.900254 43.987976-73.334414 26.021697-72.371662 26.556774-166.514335 26.566563-251.328197v-7.209515c0-104.299355-4.5988-252.283984-70.554539-344.045483l-1.879548-2.460107c-.258318-.319024-.521573-.637065-.789727-.954123-.399302-.476492-.811292-.949447-1.233928-1.42006l1.233928 1.42006c-.740719-.875805-1.518827-1.744111-2.333573-2.604917l1.099645 1.184857c-.681808-.759205-1.391319-1.512313-2.128046-2.259333l1.028401 1.074476c-.784534-.828889-1.603039-1.650823-2.454842-2.465803l1.426441 1.391327c-.65827-.667466-1.338267-1.330071-2.039645-1.987822l.613204.596495c-7.322801-7.006243-17.106498-13.498511-28.923946-19.476263l.019004-.00459c-.165934-.083617-.332266-.167126-.498997-.250528l.479993.255118c-1.109213-.561085-2.236344-1.117638-3.381039-1.669657l2.901046 1.414539c-1.813383-.907083-3.673875-1.801434-5.579967-2.683079l2.678921 1.26854c-1.193105-.575365-2.405292-1.145805-3.63616-1.711319l.957239.442779c-131.971011-61.0418873-482.539975-61.1732513-551.41438-9.096991zm-23.288624-7.0963501-1.028658.2923942c-22.392571 6.4025163-42.802092 13.6184419-60.417333 21.5409019-112.8791561 50.767435-121.4072868 189.93769-115.9457009 366.363554 5.7793839 186.691707 5.4308812 279.275655 95.0633529 356.880488 18.672915 16.167226 46.111263 38.642474 104.34005 55.180405-5.289643-3.743426-10.301685-7.737364-15.029603-11.989671-43.310016-38.953191-67.952539-82.812132-81.253202-142.135089-5.957386-26.570838-9.817582-56.720048-12.39771-94.325261-.04135-.602679-.082326-1.205532-.122939-1.808773l-.180337-2.717921-.111769-1.726015c-1.810455-28.228843-2.887664-58.429062-4.272207-112.093947l-.000323-.013008c-.011987-.473624-.263165-10.33403-.533313-20.879756l-.030083-1.174125c-.010046-.392021-.020108-.78454-.030172-1.177114l-.030195-1.177449c-.201218-7.844885-.399418-15.535307-.505094-19.534628-.216914-8.209136-.451288-16.531093-.756988-27.000725-1.681169-57.576675-2.271625-80.33095-2.283266-101.191405l-.000176-3.859894.010694-1.613308c.018378-4.305981.059864-8.654781.119958-13.339315.504925-39.360556 3.125712-70.570477 8.763079-98.392439 12.006214-59.25398 38.501356-104.443201 86.631935-144.1079001zm330.288624 106.0963501c141.131908 0 255.088757 126.702023 255.088757 282.5s-113.956849 282.5-255.088757 282.5-255.088757-126.702023-255.088757-282.5 113.956849-282.5 255.088757-282.5zm0 20c-129.585658 0-235.088757 117.302788-235.088757 262.5s105.503099 262.5 235.088757 262.5 235.088757-117.302788 235.088757-262.5-105.503099-262.5-235.088757-262.5zm-32.33439 95.019724c86.787385 0 156.848697 75.133623 156.848697 167.480276s-70.061312 167.480276-156.848697 167.480276c-86.787384 0-156.848696-75.133623-156.848696-167.480276s70.061312-167.480276 156.848696-167.480276zm0 20c-75.417206 0-136.848696 65.879019-136.848696 147.480276s61.43149 147.480276 136.848696 147.480276c75.417207 0 136.848697-65.879019 136.848697-147.480276s-61.43149-147.480276-136.848697-147.480276zm-213.16561-165.019724c19.595066 0 34.5 18.555122 34.5 40.5s-14.904934 40.5-34.5 40.5-34.5-18.555122-34.5-40.5 14.904934-40.5 34.5-40.5zm0 20c-7.466887 0-14.5 8.755508-14.5 20.5s7.033113 20.5 14.5 20.5 14.5-8.755508 14.5-20.5-7.033113-20.5-14.5-20.5z"/></svg>