<svg width="960" height="960" viewBox="0 0 960 960" fill="none" xmlns="http://www.w3.org/2000/svg">
<path d="M515.93 2.42773C743.882 3.85633 921.681 222.251 919.832 482.956C917.983 743.661 737.103 959.808 509.15 958.38C281.198 956.951 103.4 738.557 105.249 477.852C107.098 217.147 287.977 0.999506 515.93 2.42773ZM515.646 42.4268C315.808 41.1745 146.987 232.941 145.248 478.103C143.51 723.264 309.596 917.128 509.435 918.381C590.022 918.886 665.564 888.001 727.141 834.885C680.398 865.921 626.885 883.398 570.116 883.042L568.002 883.021C389.168 880.506 245.666 701.441 246.094 481.336L246.105 478.734C247.681 256.573 395.3 77.3921 575.821 78.5234L577.936 78.5449C633.914 79.3322 686.429 97.4187 732.152 128.646C671.334 74.7615 596.235 42.9318 515.646 42.4268ZM575.68 98.5234C409.883 97.4844 267.632 263.664 266.105 478.859C264.579 694.055 404.461 862.004 570.258 863.043C736.054 864.082 878.306 697.901 879.832 482.706C881.358 267.511 741.476 99.5627 575.68 98.5234ZM542.003 710.477C548.726 709.737 553.644 712.59 556.749 716.11C558.576 718.181 558.377 721.341 556.307 723.168C554.236 724.994 551.077 724.796 549.25 722.726C547.915 721.212 546.048 720.092 543.096 720.417C540.002 720.758 539.311 722.59 539.441 723.774C539.586 725.085 541.163 728.542 548.728 730.103C554.316 731.255 558.493 734.367 559.695 739.243C560.798 743.716 558.952 748.06 556.379 750.973C553.749 753.951 549.669 756.263 544.964 756.129C540.042 755.988 535.51 753.213 532.107 748.071C530.584 745.768 531.216 742.665 533.519 741.142C535.821 739.618 538.923 740.249 540.447 742.552C542.474 745.614 544.273 746.106 545.249 746.134C546.44 746.168 547.824 745.553 548.884 744.354C550.001 743.088 550.075 742.001 549.985 741.638C549.955 741.516 549.882 741.309 549.536 741.026C549.147 740.709 548.315 740.227 546.708 739.896C536.774 737.847 530.3 732.13 529.501 724.867C528.688 717.478 534.163 711.339 542.003 710.477ZM579.498 711.504C590.495 711.573 597.669 722.176 597.593 732.92C597.516 743.664 590.192 754.174 579.196 754.105C568.2 754.037 561.025 743.435 561.102 732.69C561.178 721.946 568.502 711.435 579.498 711.504ZM611.896 707.294C618.618 706.555 623.537 709.407 626.642 712.927C628.468 714.998 628.27 718.158 626.199 719.984C624.128 721.811 620.969 721.613 619.143 719.543C617.807 718.029 615.941 716.909 612.988 717.233C609.895 717.574 609.204 719.407 609.334 720.591C609.478 721.901 611.055 725.359 618.62 726.919C624.208 728.071 628.386 731.185 629.588 736.061C630.69 740.533 628.844 744.876 626.271 747.789C623.641 750.767 619.562 753.08 614.856 752.945C609.935 752.804 605.403 750.03 602 744.888C600.476 742.585 601.108 739.483 603.411 737.959C605.714 736.435 608.816 737.066 610.34 739.369C612.366 742.431 614.166 742.922 615.142 742.95C616.333 742.984 617.716 742.37 618.776 741.17C619.894 739.905 619.967 738.818 619.878 738.454C619.848 738.332 619.775 738.125 619.429 737.843C619.04 737.526 618.208 737.043 616.601 736.712C606.667 734.663 600.192 728.947 599.394 721.684C598.581 714.295 604.056 708.156 611.896 707.294ZM579.428 721.504C575.793 721.481 571.153 725.493 571.102 732.754C571.05 740.015 575.633 744.083 579.268 744.105C582.902 744.128 587.541 740.117 587.593 732.856C587.644 725.596 583.062 721.527 579.428 721.504ZM357.166 437.177C358.565 437.197 359.892 437.801 360.824 438.845L370.348 449.507C372.187 451.566 372.009 454.727 369.95 456.566C367.891 458.406 364.73 458.227 362.891 456.168L356.989 449.562L330.159 477.931L332.906 478.05C335.581 478.166 337.69 480.368 337.69 483.045V514.176H369C371.761 514.176 374 516.414 374 519.176C374 521.937 371.761 524.176 369 524.176H332.69C329.929 524.176 327.691 521.937 327.69 519.176V487.833L318.784 487.448C316.828 487.364 315.102 486.144 314.366 484.33C313.631 482.516 314.022 480.439 315.367 479.017L353.463 438.74L353.647 438.555C354.592 437.655 355.855 437.158 357.166 437.177ZM795.593 441.177C797.059 441.204 798.441 441.874 799.37 443.01C800.596 444.508 802.996 446.92 805.934 448.914C807.935 450.273 809.935 451.265 811.803 451.778L815.248 447.87C817.074 445.799 820.233 445.599 822.305 447.425C824.376 449.251 824.576 452.41 822.75 454.481L819.5 458.169V497.676C819.5 499.484 818.811 501.008 818.2 502.052C817.555 503.154 816.722 504.183 815.87 505.103C814.164 506.944 811.936 508.82 809.65 510.557C805.049 514.053 799.602 517.447 795.98 519.517C794.562 520.327 792.836 520.394 791.359 519.694C787.933 518.071 782.77 515.158 778.229 511.576C777.106 510.691 775.991 509.74 774.934 508.734L770.75 513.481C768.924 515.553 765.765 515.752 763.693 513.927C761.622 512.101 761.423 508.942 763.248 506.87L768.901 500.454C768.519 499.5 768.226 498.5 768.062 497.456C768.021 497.198 768 496.937 768 496.676V455.676C768 452.914 770.239 450.676 773 450.676C773.013 450.675 773.235 450.67 773.675 450.634C774.107 450.598 774.69 450.536 775.39 450.437C776.794 450.237 778.619 449.891 780.6 449.313C784.656 448.13 788.885 446.116 791.751 442.867L791.938 442.667C792.897 441.693 794.218 441.151 795.593 441.177ZM383.522 451.57C385.373 450.788 387.513 451.19 388.954 452.591L414.485 477.409C416.441 479.311 416.512 482.429 414.645 484.417L389.113 511.599C387.709 513.093 385.535 513.579 383.628 512.824C381.721 512.069 380.469 510.227 380.469 508.176V498.403H373C370.239 498.403 368 496.165 368 493.403V470.948C368 468.187 370.239 465.948 373 465.948H380.469V456.176C380.469 454.166 381.672 452.352 383.522 451.57ZM781.553 501.224C782.403 502.054 783.368 502.894 784.422 503.726C787.334 506.022 790.629 508.04 793.318 509.48C796.458 507.59 800.313 505.092 803.6 502.595C805.689 501.007 807.399 499.533 808.536 498.306C809.031 497.771 809.332 497.37 809.5 497.109V469.515L781.553 501.224ZM390.469 470.948C390.469 473.709 388.23 475.948 385.469 475.948H378V488.403H385.469C388.23 488.403 390.469 490.642 390.469 493.403V495.549L403.991 481.153L390.469 468.009V470.948ZM795.264 453.157C791.376 456.095 787.031 457.854 783.4 458.913C781.438 459.485 779.591 459.879 778 460.147V490.132L804.766 459.763C803.148 458.987 801.652 458.094 800.316 457.188C798.434 455.909 796.725 454.508 795.264 453.157ZM584.07 178.677C585.486 178.697 586.827 179.316 587.76 180.38L619.76 216.88C621.082 218.388 621.375 220.541 620.504 222.348C619.633 224.154 617.765 225.265 615.762 225.17L610.5 224.919V249.676C610.5 251.022 609.957 252.312 608.993 253.253C608.03 254.194 606.727 254.707 605.381 254.675L563.381 253.675C560.667 253.61 558.5 251.391 558.5 248.676V223.463L551.783 223.171C549.836 223.086 548.116 221.878 547.375 220.075C546.635 218.273 547.009 216.204 548.334 214.775L580.334 180.275L580.52 180.086C581.467 179.167 582.743 178.658 584.07 178.677ZM563.018 213.649L563.717 213.681C566.391 213.797 568.5 215.999 568.5 218.676V243.793L578.5 244.03V227.676C578.5 224.914 580.739 222.676 583.5 222.676C586.261 222.676 588.5 224.914 588.5 227.676V244.269L600.5 244.555V219.676C600.5 218.308 601.06 217.001 602.05 216.058C602.761 215.379 603.65 214.932 604.601 214.758L583.896 191.141L563.018 213.649Z" fill="black"/>
</svg>
