<svg height="960" viewBox="0 0 960 960" width="960" xmlns="http://www.w3.org/2000/svg"><path d="m317.612675 120.99981c53.801707.167909 128.738739.860329 224.844583 2.079826l-.138699-.001519 186.895265 1.72336c20.349201.187639 35.66293 14.968657 39.003024 32.739246l.033152.192053 23.349642 26.636067c.111406.127093.222004.25489.331789.383383l.326902.387557 6.046667 7.260993.76924.173329c15.708227 3.717837 29.204213 16.588787 30.749155 35.604191l.075802 1.103838c.067156 1.19517.100803 2.392617.100803 3.590975v467.253185c0 14.865454-5.174766 29.267278-14.635976 40.733194l-36.360623 44.064962c-7.584186 9.191176-17.485289 15.972556-28.503682 19.771959l.000281 317.303551c.000022 10.93065-8.768713 19.81326-19.65551 20.00004h-44.783612c-11.045675 0-19.999972-8.95427-20-19.99995l-.000878-313.22024-3.474.032.001824 313.18814c.000026 10.93066-8.76871 19.81327-19.65551 20.00005h-44.783611c-11.04568 0-19.999978-8.95428-20-19.99996l-.000703-312.40923-3.474.032.001649 312.37715c.00002 10.93065-8.768714 19.81326-19.65551 20.00004h-44.783612c-11.045661 0-19.999951-8.95425-20-19.99991l-.002429-311.442584c-1.16104.013447-2.318445.026801-3.472217.040065l.001592 311.402409c.000011 10.93064-8.768721 19.81324-19.65551 20.00002h-44.783612c-11.045669 0-19.999963-8.95426-20-19.99993l-.00224-310.537584c-1.162795.010162-2.320264.020191-3.472408.030085l.001594 310.507359c.000041 10.93066-8.768699 19.81329-19.655509 20.00007h-44.783612c-11.045691 0-19.999994-8.9543-20-19.99999l-.000674-309.997653c-1.128836-.001322-2.285917-.004855-3.471276-.0106l-.001104 310.008253c-.000007 10.93063-8.768734 19.81322-19.655511 19.99999h-44.783611c-11.045718 0-20.000033-8.95434-20-20.00006l.000376-312.198902c-17.613135-1.176775-34.083979-9.428589-45.536517-23.007641l-.403389-.483007-35.716042-43.205203c-9.592286-11.608154-14.844428-26.182763-14.844428-41.239139v-470.732693c0-15.056377 5.252142-29.630985 14.886122-41.289511l.132939-.160342c6.069374-7.32048 14.500774-12.18753 23.736071-13.842578l.412868-.071148 2.23-2.772-.006901-.547801c-.063469-9.176579 3.033462-18.130475 8.816933-25.328525l.357443-.43849c12.167218-14.712631 30.18038-23.310124 49.233195-23.621634l.23133-.00255.659911-.024461c35.084458-1.304556 62.445242-1.983291 82.263556-2.034505zm412.886964 687.185665c-.089939.001208-.179903.002228-.26989.003057l-44.169749.407278.000878 313.40419h44.439122zm-483.997632 2.335693-.002007 311.478832h44.439122l.000811-310.262021c-12.687384-.241148-27.492991-.646834-44.437926-1.216811zm132.346915 1.133802c-15.95575.12165-30.768063.21455-44.437434.278742l.000688 310.066288h44.439121zm87.914102-.832677c-15.523105.17026-30.336796.322656-44.441315.457206l.002642 310.720501h44.439122zm87.911976-1.014483-11.95704.110763.139388-.001529c-11.157151.141825-22.031984.276533-32.624559.404129l.003738 311.678827h44.439122zm87.912-.811-44.439.41.000703 312.59319h44.439121zm-390.652096-595.914898-62.792904 1.671898-.075324.094383-13.254676.365583-.132939.160342c-3.673074 4.44499-5.679061 10.011635-5.679061 15.759237v470.732693c0 5.747602 2.005987 11.314247 5.679061 15.759237l35.711193 43.199335c4.79197 5.794463 11.971812 9.143467 19.553496 9.122124 1.948327.071846 3.87184.141807 5.770537.209882.753619.027021 1.503947.053766 2.250359.080214 1.89819.067257 3.771196.132596 5.618873.19601.031438.001084.062694.002157.093943.003229l1.823587.0622.380274.012893c16.80307.568634 31.462648.974501 43.978736 1.217927l.079289.000811.755652.0139-32.659801-39.65753c-6.487685-7.877829-10.035199-17.765873-10.035199-27.971276v-475.230008c0-5.44443 1.009645-10.798536 2.934904-15.803084zm484.019096 554.262898.087297-.023001.132703-.037999.070673-.019265c.06082-.017414.121562-.035066.182224-.052956l-.166479.048442.207958-.060714.120624-.037507.054057-.015073.191943-.059927-.159291.049938.22479-.070153.158501-.051785.043-.014.201-.067.148-.05.053-.018.185741-.064938.054967-.01965.165292-.060412.022-.008.105-.039.067232-.024852.015873-.00599.209735-.080356.18016-.071802-.18.071.181722-.070714.027059-.010786.056219-.0235.04-.016.096-.039.034-.014.156742-.06426c.069765-.029262.139389-.058853.208868-.08877l-.207781.088314.24108-.102682.043091-.019602.09906-.042407.05194-.023593.045832-.019694-.039832.016694.116885-.051176.230033-.104886.177082-.083938-.160141.076098.161865-.075722.050104-.023737.018172-.009639.135-.065.037-.018.333657-.164117c.273794-.13835.544963-.281961.813354-.430757l.342733-.193703-.064744.036577.100097-.056982c.058063-.033578.11599-.067402.173779-.101472l-.175876.101454.385913-.226726c.138913-.083814.277009-.169056.414264-.255714.04147-.026183.083096-.052643.124644-.079234l-.063821.039674.099-.063.156131-.100398.164414-.108405.076455-.052197.122-.082.113-.078.025665-.01622.035013-.024205c.129506-.089699.258177-.180708.385992-.273015l.295173-.216618c.094738-.070645.188988-.142013.282739-.214102l.043418-.03484.253119-.196905c.098279-.078055.195988-.156914.293115-.236573.17241-.141406.342869-.285225.51144-.431534.066572-.057781.132771-.11588.198673-.174365l-.101347.087377.23107-.203342c.217293-.195674.431291-.395576.641861-.599644.132891-.128788.264343-.259162.394399-.391178.286994-.291311.567364-.590814.84057-.898153l.286816-.32861c.097017-.113211.193079-.22744.28817-.34268l36.360623-44.064961c3.547954-4.299719 5.488491-9.700403 5.488491-15.274948v-467.253185l-.004809-.48062-.014397-.479624c-.00515-.128688-.011333-.257255-.018544-.385688l-4.77416 6.209154-7.19009-8.203521-.396293.515555-.076707-.091555-.086-.103-.111757.14619-19.290243-23.23919-32.037-36.546579 2.845-5.414421-186.895265-1.723394c-15.34279-.194686-30.144747-.375916-44.405872-.543702l-153.240757-1.415502c-5.795514-.031891-11.395441-.058937-16.799779-.081139l-.324541.023888c-6.266005.518834-12.107202 3.481779-16.231703 8.287182l4.161917 2.046667 17.979528 8.468959c.870433.409957 1.650404.925598 2.333993 1.523119l8.640641 4.250887-7.911162 10.175035-21.249728 28.367406c-.774147 1.033459-1.716458 1.879738-2.764401 2.523742l-2.715441 3.492516-4.041136-2.126088c-.976306-.149844-1.943475-.447023-2.869703-.899215l-27.952591-13.647361-.085255.105126c-3.538738 4.296998-5.473745 9.690476-5.473745 15.25706v475.230008c0 5.566584 1.935007 10.960062 5.473745 15.25706l36.158169 43.905935c4.200599 5.10068 10.297521 8.221612 16.83346 8.684048 2.280344-.010118 4.596484-.020226 6.946592-.031189 3.36163-.013526 6.7938-.031104 10.295513-.050424l153.18501-1.415101c.241489-.002844.483132-.005692.724927-.008543.947086-.01118 1.896195-.022404 2.847654-.033686 1.283118-.015215 2.570508-.030538 3.862171-.045969 1.026851-.01226 2.056171-.024593 3.08819-.036994.60541-.00728 1.212014-.014581 1.819548-.021905l1.246974-.015046c10.036341-.121277 20.325331-.248913 30.86697-.382915l12.326077-.114465 43.473-.401034 44.439-.409966 43.473-.401034 43.800713-.403541c.385148-.003552.769141-.016346 1.151691-.038243l.249961-.015617.016635-.001565-.019.001.018-.001h.002l.01195-.000457-.00595-.000543-.006.001h-.002l.008-.001.044-.003.167-.012-.095.007-.072.005-.03805.003543.11005-.008543.098956-.006786c.014657-.001139.02931-.002291.043962-.003457l.032082-.002757.136-.011.007-.001.022-.002.063-.006-.045.004.093-.008.084693-.00775c.075948-.007302.151829-.014963.227642-.022981l-.210803.021356.232528-.023664.21394-.023961.042-.005.033-.004.152905-.018329.193114-.02503.107981-.015641.206-.029.070681-.00998-.043681.00598-.027.004-.061027.009438.088027-.013438.058-.008.017-.003.013-.002.017-.003.017654-.001982.117346-.019018-.076.012-.059.009-.008.001-.009.002-.009.001.018-.003.067-.01.168912-.02625.214088-.03675.051-.009.131168-.022165c.06414-.011548.128216-.023353.192226-.035417l.242082-.046913.05913-.011852.167637-.034443.014669-.003073.213724-.045865.181364-.041272.031826-.006514-.020826.003514.072-.016.094-.022.051884-.011503c.065607-.015603.131133-.03148.196579-.047629l-.126463.030132.160471-.03855.079529-.02045.103293-.025711c.072176-.018525.14425-.037383.216219-.056572l-.183031.048029.211519-.056746-.028488.008717.039488-.011717zm-6.160176-570.734763c2.818869 0 5.508007 1.184213 7.405421 3.268883l33.460144 36.762309c1.675851 1.84124 2.604592 4.24141 2.604592 6.731117v445.82385c0 2.321947-.808015 4.571525-2.285424 6.362808l-23.720563 28.759957c-1.879104 2.278316-4.669174 3.609518-7.62231 3.636766l-378.026974 3.488476c-3.01881.027428-5.88863-1.309998-7.808804-3.639574l-23.384952-28.370876c-1.476183-1.790921-2.283461-4.039541-2.283461-6.360427v-457.723647c0-2.320887.807278-4.569506 2.283461-6.360427l23.384952-28.370876c1.89739-2.301935 4.723408-3.636581 7.706525-3.639568zm-4.407331 20.003-359.15.36-18.105 21.966v450.544l18.065 21.917 368.596-3.401 18.471-22.395v-438.363zm-138.260917 70.400458c9.941123-.006866 18.005565 8.046438 18.012439 17.987561v.013848l-.005527 39.222114c0 9.698292-7.68363 17.653028-17.376095 17.989184l-63.261989 2.194067c-9.935152.344573-18.268516-7.430127-18.613089-17.365279-.00721-.207891-.010816-.41589-.010816-.625242l.00553-41.361479c0-9.715462 7.697436-17.634118 17.328004-17.987679l.108466-.002095.270329-.011692.279885-.004059zm-1.988077 20.001-59.262.046-.005 37.299 59.261-2.055zm-30.236475-81.194127c14.513173 0 25.01174 13.85811 25.01174 29.815498s-10.498567 29.815497-25.01174 29.815497-25.01174-13.858109-25.01174-29.815497 10.498567-29.815498 25.01174-29.815498zm0 20c-2.068338 0-5.01174 3.885292-5.01174 9.815498s2.943402 9.815497 5.01174 9.815497 5.01174-3.885291 5.01174-9.815497-2.943402-9.815498-5.01174-9.815498zm-258.100958-60.941751-.139563.003658c-27.263905.616281-48.796996 1.178515-65.227586 1.676745l-.743334.022603c-5.947783.181358-10.773437.34092-14.566629.477257-1.323541.047571-2.422653.088801-3.308536.123509-.526078.020612-.861388.034344-1.017119.041017-.171905.007366-.342982.010347-.513123.009042l-5.694176 7.076352 67.402263-1.793556c3.963973-.506025 8.09657.170138 11.841452 2.140801l19.079285 10.040003 9.29-11.951-6.791-3.340248zm-4.144195-23.649391-.320228.00587c-16.743461.307049-37.207425.912831-61.391893 1.817553-4.913534-.013832-9.658292 1.387905-13.69368 3.95346 3.510008-.12206 7.768809-.260872 12.829961-.415195 15.610212-.475984 35.87156-1.010312 61.334001-1.594363.282976-1.279831.695727-2.541926 1.241839-3.767325z"/></svg>