<?xml version="1.0" encoding="utf-8"?>
<!-- Generator: Adobe Illustrator 21.0.0, SVG Export Plug-In . SVG Version: 6.00 Build 0)  -->
<svg version="1.1" id="Layer_1" xmlns="http://www.w3.org/2000/svg" xmlns:xlink="http://www.w3.org/1999/xlink" x="0px" y="0px"
	 viewBox="0 0 856.2 1417.3" style="enable-background:new 0 0 856.2 1417.3;" xml:space="preserve">
<g>
	<path d="M311.8,169.4c31.2,5.7,72.6,8.8,116.4,8.8s85.1-3.1,116.4-8.8c41.1-7.5,59.5-18.5,59.5-35.5s-18.3-28.1-59.5-35.5
		c-31.2-5.7-72.5-8.8-116.4-8.8c-43.8,0-85.1,3.1-116.4,8.8c-41.1,7.5-59.5,18.5-59.5,35.5S270.6,161.9,311.8,169.4z M312.7,103.2
		c30.9-5.6,71.9-8.7,115.5-8.7c43.5,0,84.5,3.1,115.5,8.7c38.3,7,55.3,16.4,55.3,30.6c0,14.2-17.1,23.6-55.3,30.6
		c-30.9,5.6-71.9,8.7-115.5,8.7c-43.5,0-84.5-3.1-115.5-8.7c-38.3-7-55.3-16.4-55.3-30.6C257.3,119.7,274.4,110.2,312.7,103.2z"/>
	<path d="M428.1,167.8c6.6,0,161.2-0.4,161.2-34s-154.6-34-161.2-34s-161.2,0.4-161.2,34C266.9,167.5,421.5,167.8,428.1,167.8z
		 M428.1,112.4c91.7,0,144,13.6,148.5,21.4c-4.5,7.9-56.8,21.4-148.5,21.4s-144-13.6-148.5-21.4C284.1,126,336.4,112.4,428.1,112.4z
		"/>
	<path d="M187.1,359.3h110.4c13.7,0,24.8-11.1,24.8-24.8V255c0-13.7-11.1-24.8-24.8-24.8H187.1c-13.7,0-24.8,11.1-24.8,24.8v79.4
		C162.3,348.1,173.4,359.3,187.1,359.3z M177.4,255c0-5.4,4.4-9.7,9.7-9.7h110.4c5.4,0,9.7,4.4,9.7,9.7v79.4c0,5.4-4.4,9.7-9.7,9.7
		H187.1c-5.4,0-9.7-4.4-9.7-9.7L177.4,255L177.4,255z"/>
	<path d="M372.9,359.3h110.4c13.7,0,24.8-11.1,24.8-24.8V255c0-13.7-11.1-24.8-24.8-24.8H372.9c-13.7,0-24.8,11.1-24.8,24.8v79.4
		C348.1,348.1,359.2,359.3,372.9,359.3z M363.2,255c0-5.4,4.4-9.7,9.7-9.7h110.4c5.4,0,9.7,4.4,9.7,9.7v79.4c0,5.4-4.4,9.7-9.7,9.7
		H372.9c-5.4,0-9.7-4.4-9.7-9.7L363.2,255L363.2,255z"/>
	<path d="M533.9,255v79.4c0,13.7,11.1,24.8,24.8,24.8h110.4c13.7,0,24.8-11.1,24.8-24.8V255c0-13.7-11.1-24.8-24.8-24.8H558.7
		C545,230.2,533.9,241.3,533.9,255z M678.9,255v79.4c0,5.4-4.4,9.7-9.7,9.7H558.7c-5.4,0-9.7-4.4-9.7-9.7V255c0-5.4,4.4-9.7,9.7-9.7
		h110.4C674.5,245.3,678.9,249.6,678.9,255z"/>
	<path d="M187.1,507.6h110.4c13.7,0,24.8-11.1,24.8-24.8v-79.4c0-13.7-11.1-24.8-24.8-24.8H187.1c-13.7,0-24.8,11.1-24.8,24.8v79.4
		C162.3,496.5,173.4,507.6,187.1,507.6z M177.4,403.4c0-5.4,4.4-9.7,9.7-9.7h110.4c5.4,0,9.7,4.4,9.7,9.7v79.4
		c0,5.4-4.4,9.7-9.7,9.7H187.1c-5.4,0-9.7-4.4-9.7-9.7L177.4,403.4L177.4,403.4z"/>
	<path d="M348.1,482.8c0,13.7,11.1,24.8,24.8,24.8h110.4c13.7,0,24.8-11.1,24.8-24.8v-79.4c0-13.7-11.1-24.8-24.8-24.8H372.9
		c-13.7,0-24.8,11.1-24.8,24.8V482.8z M363.2,403.4c0-5.4,4.4-9.7,9.7-9.7h110.4c5.4,0,9.7,4.4,9.7,9.7v79.4c0,5.4-4.4,9.7-9.7,9.7
		H372.9c-5.4,0-9.7-4.4-9.7-9.7L363.2,403.4L363.2,403.4z"/>
	<path d="M669.1,378.5H558.7c-13.7,0-24.8,11.1-24.8,24.8v79.4c0,13.7,11.1,24.8,24.8,24.8h110.4c13.7,0,24.8-11.1,24.8-24.8v-79.4
		C694,389.7,682.8,378.5,669.1,378.5z M678.9,482.8c0,5.4-4.4,9.7-9.7,9.7H558.7c-5.4,0-9.7-4.4-9.7-9.7v-79.4
		c0-5.4,4.4-9.7,9.7-9.7h110.4c5.4,0,9.7,4.4,9.7,9.7L678.9,482.8L678.9,482.8z"/>
	<path d="M187.1,656h110.4c13.7,0,24.8-11.1,24.8-24.8v-79.4c0-13.7-11.1-24.8-24.8-24.8H187.1c-13.7,0-24.8,11.1-24.8,24.8v79.4
		C162.3,644.8,173.4,656,187.1,656z M177.4,551.7c0-5.4,4.4-9.7,9.7-9.7h110.4c5.4,0,9.7,4.4,9.7,9.7v79.4c0,5.4-4.4,9.7-9.7,9.7
		H187.1c-5.4,0-9.7-4.4-9.7-9.7L177.4,551.7L177.4,551.7z"/>
	<path d="M348.1,631.2c0,13.7,11.1,24.8,24.8,24.8h110.4c13.7,0,24.8-11.1,24.8-24.8v-79.4c0-13.7-11.1-24.8-24.8-24.8H372.9
		c-13.7,0-24.8,11.1-24.8,24.8V631.2z M363.2,551.7c0-5.4,4.4-9.7,9.7-9.7h110.4c5.4,0,9.7,4.4,9.7,9.7v79.4c0,5.4-4.4,9.7-9.7,9.7
		H372.9c-5.4,0-9.7-4.4-9.7-9.7L363.2,551.7L363.2,551.7z"/>
	<path d="M669.1,526.9H558.7c-13.7,0-24.8,11.1-24.8,24.8v79.4c0,13.7,11.1,24.8,24.8,24.8h110.4c13.7,0,24.8-11.1,24.8-24.8v-79.4
		C694,538,682.8,526.9,669.1,526.9z M678.9,631.2c0,5.4-4.4,9.7-9.7,9.7H558.7c-5.4,0-9.7-4.4-9.7-9.7v-79.4c0-5.4,4.4-9.7,9.7-9.7
		h110.4c5.4,0,9.7,4.4,9.7,9.7L678.9,631.2L678.9,631.2z"/>
	<path d="M187.1,804.3h110.4c13.7,0,24.8-11.1,24.8-24.8v-79.4c0-13.7-11.1-24.8-24.8-24.8H187.1c-13.7,0-24.8,11.1-24.8,24.8v79.4
		C162.3,793.2,173.4,804.3,187.1,804.3z M177.4,700.1c0-5.4,4.4-9.7,9.7-9.7h110.4c5.4,0,9.7,4.4,9.7,9.7v79.4
		c0,5.4-4.4,9.7-9.7,9.7H187.1c-5.4,0-9.7-4.4-9.7-9.7L177.4,700.1L177.4,700.1z"/>
	<path d="M348.1,779.5c0,13.7,11.1,24.8,24.8,24.8h110.4c13.7,0,24.8-11.1,24.8-24.8v-79.4c0-13.7-11.1-24.8-24.8-24.8H372.9
		c-13.7,0-24.8,11.1-24.8,24.8V779.5z M363.2,700.1c0-5.4,4.4-9.7,9.7-9.7h110.4c5.4,0,9.7,4.4,9.7,9.7v79.4c0,5.4-4.4,9.7-9.7,9.7
		H372.9c-5.4,0-9.7-4.4-9.7-9.7L363.2,700.1L363.2,700.1z"/>
	<path d="M669.1,675.3H558.7c-13.7,0-24.8,11.1-24.8,24.8v79.4c0,13.7,11.1,24.8,24.8,24.8h110.4c13.7,0,24.8-11.1,24.8-24.8v-79.4
		C694,686.4,682.8,675.3,669.1,675.3z M678.9,779.5c0,5.4-4.4,9.7-9.7,9.7H558.7c-5.4,0-9.7-4.4-9.7-9.7v-79.4
		c0-5.4,4.4-9.7,9.7-9.7h110.4c5.4,0,9.7,4.4,9.7,9.7L678.9,779.5L678.9,779.5z"/>
	<path d="M517.2,829.5H350.7c-13.7,0-24.8,11.1-24.8,24.8v79.4c0,13.7,11.1,24.8,24.8,24.8h166.5c13.7,0,24.8-11.1,24.8-24.8v-79.4
		C542.1,840.6,530.9,829.5,517.2,829.5z M527,933.7c0,5.4-4.4,9.7-9.7,9.7H350.7c-5.4,0-9.7-4.4-9.7-9.7v-79.4
		c0-5.4,4.4-9.7,9.7-9.7h166.5c5.4,0,9.7,4.4,9.7,9.7L527,933.7L527,933.7z"/>
	<path d="M825,66.9L783.5,54C668.5,18.2,549,0,428.1,0S187.7,18.2,72.7,54L31.2,66.9C12.5,72.7,0,89.4,0,108.5V992
		c0,92.9,30.4,181.1,88,255.1c81.1,104.3,205,166.4,339.7,170.2h0.4h0.4c134.8-3.9,258.6-65.9,339.7-170.2
		c57.6-74,88-162.3,88-255.1V108.5C856.2,89.4,843.7,72.7,825,66.9z M750,70.2v1152.3C689.5,1106.4,568.1,1027,428.1,1027
		c-140.2,0-261.8,79.6-322.2,196.1V70.3c104.6-30,212.9-45.2,322.2-45.2C537.3,25.1,645.5,40.3,750,70.2z M25.1,992V108.5
		c0-8,5.4-15.1,13.5-17.6L80.2,78c4.4-1.4,8.8-2.7,13.2-4v1137.8C48.7,1146.5,25.1,1071,25.1,992z M831.1,992
		c0,79.2-23.6,154.9-68.5,220.2V73.9c4.5,1.3,9,2.7,13.5,4.1l41.5,12.9c8.1,2.5,13.5,9.6,13.5,17.6V992z"/>
	<path d="M235.6,280c2.3-1.1,4.3-2.3,5.8-3.5v45.6h10.4v-59.5h-7.3c-2.6,2.8-5.5,5.2-8.9,7.3c-3.3,2.1-6.7,3.7-10,5.1l3.2,7.9
		C231,282.1,233.3,281.1,235.6,280z"/>
	<path d="M414.6,274.6c0.8-0.7,1.7-1.3,2.8-1.9c1.1-0.6,2.3-1.2,3.6-1.6c1.4-0.5,2.9-0.7,4.5-0.7c2.5,0,4.5,0.6,6.3,1.9
		c1.7,1.3,2.6,3.4,2.6,6.4c0,1.4-0.3,2.7-0.9,4s-1.3,2.5-2.3,3.8s-2,2.5-3.3,3.7c-1.3,1.3-2.6,2.5-3.9,3.9c-1.8,1.7-3.5,3.5-5.3,5.2
		c-1.8,1.8-3.4,3.7-4.8,5.7s-2.6,4.2-3.5,6.5s-1.3,4.8-1.3,7.6c0,0.3,0,0.8,0,1.5s0,1.2,0.1,1.7H447v-8.8h-26.4
		c0.1-0.7,0.5-1.7,1.2-2.8c0.7-1.1,1.6-2.3,2.7-3.5c1-1.2,2.1-2.4,3.3-3.6c1.1-1.2,2.2-2.2,3.1-3.1c1.7-1.7,3.4-3.4,5.1-5.1
		s3.2-3.5,4.6-5.4c1.3-1.9,2.4-3.8,3.3-5.7c0.9-2,1.3-4,1.3-6.1c0-5.2-1.5-9.3-4.5-12.3s-7.7-4.5-14-4.5c-3.7,0-7.2,0.7-10.4,2.1
		c-3.2,1.4-6,3.2-8.5,5.5l5.1,7.3C413.2,275.7,413.8,275.2,414.6,274.6z"/>
	<path d="M609.5,314.3c-3.4,0-6.2-0.4-8.5-1.1s-4-1.4-5.2-1.9l-2.1,8.8c0.6,0.3,1.5,0.7,2.7,1.1s2.5,0.7,4,1s3,0.6,4.6,0.8
		c1.6,0.2,3.2,0.3,4.8,0.3c4,0,7.5-0.5,10.3-1.4c2.9-0.9,5.3-2.2,7.2-3.9s3.3-3.6,4.2-5.8c0.9-2.3,1.4-4.7,1.4-7.3
		c0-3.9-1-7.2-3-9.7s-4.6-4.3-7.7-5.4c2.4-1.1,4.4-2.8,5.9-5s2.3-4.6,2.3-7.4c0-2.3-0.4-4.5-1.2-6.5s-1.9-3.7-3.5-5.1
		c-1.6-1.5-3.6-2.6-6-3.4s-5.3-1.2-8.6-1.2c-1.8,0-3.5,0.2-5.1,0.5s-3.1,0.7-4.5,1.2s-2.7,1.1-3.8,1.6c-1.1,0.6-2.1,1.1-2.9,1.6
		l3.8,7.7c1.5-1,3.3-1.8,5.3-2.6c2-0.8,4.3-1.2,6.9-1.2c1.2,0,2.3,0.1,3.4,0.4c1.1,0.3,2,0.7,2.9,1.4c0.8,0.6,1.5,1.4,2,2.4
		s0.8,2.1,0.8,3.5c0,1.7-0.3,3.1-1,4.2s-1.6,2-2.7,2.6c-1.1,0.7-2.3,1.1-3.6,1.4s-2.7,0.4-4,0.4h-4.3v8.4h3.5c1.9,0,3.8,0.2,5.5,0.5
		s3.3,0.9,4.6,1.6c1.3,0.8,2.4,1.8,3.2,3c0.8,1.3,1.2,2.8,1.2,4.7c0,2.9-1,5.3-3,7C617.2,313.5,614,314.3,609.5,314.3z"/>
	<path d="M246.9,470.4H257v-14.2h6.7v-8.5H257V411h-9.9c-2.6,2.7-5.3,5.7-7.9,9c-2.6,3.3-5.1,6.7-7.5,10.1c-2.3,3.4-4.5,6.8-6.4,10
		c-1.9,3.3-3.4,6.2-4.6,8.7v7.4h26.1L246.9,470.4L246.9,470.4z M231,447.7c1-2.1,2.2-4.2,3.4-6.4c1.3-2.1,2.6-4.2,3.9-6.3
		c1.4-2.1,2.8-4,4.2-5.9c1.5-1.9,2.9-3.7,4.2-5.3v23.9L231,447.7L231,447.7z"/>
	<path d="M415.1,470.5c1.5,0.3,3,0.6,4.6,0.8c1.6,0.2,3.2,0.3,4.7,0.3c3.8,0,7.2-0.5,10-1.4c2.9-0.9,5.2-2.2,7.1-3.9
		c1.9-1.7,3.3-3.6,4.2-5.9c0.9-2.3,1.4-4.8,1.4-7.5c0-5.9-2-10.5-6.1-13.9c-4-3.4-10.3-5.3-18.8-5.8c0.1-0.8,0.2-1.8,0.3-2.9
		c0.1-1.1,0.2-2.3,0.3-3.6c0.1-1.3,0.2-2.5,0.3-3.7c0.1-1.2,0.2-2.3,0.2-3.3H445v-8.8h-30.4c-0.2,5-0.5,9.9-0.9,14.9
		c-0.3,4.9-0.8,10.2-1.5,15.7c4.7,0,8.7,0.3,11.8,0.8c3.1,0.5,5.6,1.3,7.5,2.3s3.2,2.3,3.9,3.8c0.7,1.5,1.1,3.2,1.1,5.1
		c0,1.3-0.2,2.4-0.7,3.6c-0.5,1.1-1.2,2.1-2.2,3s-2.3,1.5-3.9,2s-3.5,0.7-5.7,0.7c-3.3,0-6-0.3-8.3-1s-4-1.3-5.2-1.8l-2,8.8
		c0.6,0.3,1.4,0.6,2.6,0.9C412.4,469.9,413.7,470.2,415.1,470.5z"/>
	<path d="M630.1,438.8c-1.5-1.7-3.6-3.1-6-4.1c-2.5-1-5.5-1.5-9.1-1.5c-3.3,0-6.4,0.7-9.2,2c0.8-2.9,2-5.4,3.5-7.4s3.3-3.6,5.4-4.9
		c2.1-1.3,4.5-2.2,7.2-2.8c2.7-0.6,5.6-0.9,8.7-1l-0.6-8.6c-5.5,0.1-10.5,0.9-15,2.4c-4.4,1.6-8.2,3.9-11.3,6.9s-5.5,6.8-7.2,11.2
		c-1.7,4.4-2.5,9.5-2.5,15.2c0,7.9,1.8,14.1,5.4,18.6c3.6,4.5,8.8,6.7,15.6,6.7c3.4,0,6.3-0.6,8.8-1.8c2.5-1.2,4.5-2.8,6.1-4.7
		c1.6-1.9,2.8-4,3.6-6.4c0.8-2.3,1.2-4.6,1.2-6.9c0-2.5-0.4-4.8-1.1-7.1C632.8,442.5,631.7,440.5,630.1,438.8z M623.6,455.8
		c-0.3,1.3-0.9,2.5-1.6,3.6c-0.7,1.1-1.7,2-2.9,2.7s-2.6,1-4.2,1c-2,0-3.7-0.4-5-1.3s-2.4-2.1-3.2-3.6s-1.3-3.3-1.6-5.3
		s-0.5-4.2-0.5-6.5c0-0.5,0-1,0-1.6c0-0.5,0.1-1,0.1-1.5c1.3-0.6,2.7-1,4.2-1.3s3.1-0.4,4.8-0.4c3.6,0,6.2,0.9,7.9,2.7
		c1.7,1.8,2.5,4.4,2.5,7.9C624.1,453.2,624,454.5,623.6,455.8z"/>
	<path d="M243.6,580.3c-2.1,4-4,8.2-5.7,12.8c-1.7,4.5-3.2,9.2-4.4,14s-2,9.4-2.3,13.7h10.6c0.3-5.2,1.2-10.4,2.7-15.7
		s3.2-10.2,5.2-14.8s4.1-8.7,6.4-12.4c2.2-3.7,4.3-6.5,6.2-8.7v-7.9h-39.7v8.9H250C247.8,572.9,245.7,576.3,243.6,580.3z"/>
	<path d="M412.2,616.3c1.5,1.7,3.6,3,6.2,4.1s5.8,1.6,9.7,1.6c3.3,0,6.2-0.4,8.8-1.3c2.5-0.9,4.7-2.1,6.4-3.6c1.7-1.5,3-3.4,3.9-5.5
		s1.3-4.4,1.3-6.9c0-3.3-0.8-6.1-2.4-8.5s-4.1-4.5-7.5-6.4c2.2-1.4,4.2-3.4,5.9-5.8c1.7-2.4,2.6-5.2,2.6-8.4c0-1.8-0.3-3.6-1-5.5
		s-1.8-3.6-3.3-5.1s-3.5-2.8-5.8-3.8c-2.4-1-5.3-1.5-8.6-1.5c-2.9,0-5.5,0.5-7.8,1.4s-4.3,2.1-6,3.7c-1.7,1.5-2.9,3.3-3.8,5.4
		c-0.9,2-1.3,4.2-1.3,6.4c0,3.1,0.6,5.7,1.9,7.9c1.3,2.1,3.2,4.1,5.9,6c-1.2,0.8-2.3,1.7-3.4,2.7s-2.1,2.2-2.9,3.4s-1.5,2.6-2,4
		c-0.5,1.5-0.7,3-0.7,4.8s0.3,3.5,1,5.4C409.5,612.9,410.6,614.7,412.2,616.3z M419.9,573.6c0.3-0.9,0.9-1.7,1.5-2.5
		c0.7-0.8,1.6-1.4,2.7-1.9s2.4-0.7,4-0.7s2.9,0.3,3.9,0.8c1.1,0.5,2,1.1,2.7,1.9c0.7,0.7,1.2,1.6,1.5,2.4c0.3,0.9,0.5,1.7,0.5,2.4
		c0,2.6-0.6,4.8-1.8,6.5c-1.2,1.7-2.9,3.2-5,4.5c-3.8-1.1-6.6-2.7-8.2-4.6c-1.6-1.9-2.4-4-2.4-6.2
		C419.4,575.3,419.5,574.5,419.9,573.6z M420,598.7c1.3-1.9,2.9-3.4,5-4.8c1.9,0.5,3.7,1.1,5.3,1.8c1.6,0.7,3,1.4,4.2,2.3
		c1.2,0.9,2.1,1.9,2.7,3.1c0.6,1.2,0.9,2.6,0.9,4.2c0,1-0.2,2-0.6,3s-1,1.9-1.8,2.7s-1.8,1.4-3.1,1.8c-1.3,0.5-2.7,0.7-4.5,0.7
		c-1.9,0-3.5-0.3-4.7-0.8c-1.3-0.5-2.3-1.2-3.1-2c-0.8-0.8-1.4-1.7-1.7-2.7c-0.3-1-0.5-1.9-0.5-2.7
		C418.1,602.8,418.7,600.6,420,598.7z"/>
	<path d="M612.7,560c-3.4,0-6.3,0.6-8.8,1.8s-4.5,2.8-6.1,4.8c-1.6,1.9-2.8,4.1-3.5,6.4c-0.7,2.3-1.1,4.6-1.1,6.8
		c0,2.6,0.4,5,1.1,7.2c0.7,2.2,1.9,4.2,3.5,5.9s3.6,3,6.1,3.9s5.5,1.4,9.1,1.4c1.5,0,3.1-0.2,4.8-0.5s3.2-0.8,4.5-1.5
		c-0.7,3-1.8,5.5-3.3,7.5c-1.4,2-3.2,3.7-5.3,4.9c-2.1,1.3-4.5,2.2-7.3,2.7c-2.8,0.6-5.9,0.9-9.3,0.9l0.4,8.7
		c12.3-0.1,21.4-3.1,27.4-9c5.9-6,8.9-14.7,8.9-26.3c0-8.2-1.8-14.5-5.4-19C625,562.2,619.7,560,612.7,560z M623.3,586.5
		c0,0.5,0,1-0.1,1.6c-1.1,0.6-2.5,1.1-4.1,1.4c-1.6,0.3-3.2,0.5-4.9,0.5c-3.6,0-6.3-0.9-7.9-2.7c-1.7-1.8-2.5-4.4-2.5-7.9
		c0-1.2,0.2-2.4,0.5-3.7s0.9-2.4,1.6-3.5c0.7-1.1,1.7-2,2.9-2.7s2.6-1,4.2-1c2,0,3.7,0.4,5,1.3c1.3,0.9,2.4,2.1,3.2,3.6
		s1.3,3.3,1.6,5.3s0.5,4.2,0.5,6.5C623.3,585.6,623.3,586,623.3,586.5z"/>
	<path d="M227.6,746c3.4,0.2,6.5,0.4,9.5,0.4c-2.4,1.8-4.9,3.8-7.5,6c-2.6,2.1-4.7,4.4-6.3,6.8l-1.4,1.8l11.3,7.9l1.1-1.6
		c1.7-2.4,3.2-5.2,4.5-8.3s2.5-6,3.6-8.7c1.2,2.7,2.4,5.6,3.6,8.7c1.3,3.1,2.7,5.9,4.4,8.3l1.3,1.6l11.2-7.9l-1.3-1.8
		c-1.8-2.4-3.9-4.7-6.5-6.8s-5-4.1-7.3-6c2.9-0.1,6.1-0.3,9.5-0.6c3.4-0.3,6.4-0.9,9.1-1.7l2-0.6l-4.3-13.1l-1.9,0.6
		c-2.8,0.9-5.6,2.3-8.5,4c-2.9,1.8-5.5,3.4-8,5c0.8-2.9,1.5-6,2.3-9.2s1.2-6.2,1.2-9.2v-2.1h-13.8v2.1c0,2.9,0.4,6,1.2,9.2
		s1.6,6.2,2.3,9.2c-2.4-1.6-5.1-3.3-7.9-5c-2.8-1.8-5.7-3.1-8.5-4l-1.9-0.6l-4.3,13.1l2,0.6C221.1,745.2,224.2,745.8,227.6,746z"/>
	<path d="M428.1,773c6.5,0,11.5-2.7,15.2-8s5.5-13,5.5-23s-1.8-17.7-5.5-23s-8.7-8-15.2-8c-3.2,0-6.1,0.7-8.6,2.1
		c-2.5,1.4-4.7,3.4-6.5,6s-3.2,5.9-4.1,9.7c-0.9,3.9-1.4,8.3-1.4,13.3c0,10,1.8,17.7,5.5,23S421.7,773,428.1,773z M418.6,733.2
		c0.3-2.7,0.9-5,1.6-7c0.8-2,1.8-3.5,3.1-4.7c1.3-1.1,2.9-1.7,4.8-1.7s3.5,0.6,4.7,1.7c1.3,1.1,2.3,2.7,3,4.7c0.8,2,1.3,4.3,1.7,7
		c0.3,2.7,0.5,5.6,0.5,8.7s-0.2,6-0.5,8.7s-0.9,5-1.7,7c-0.8,2-1.8,3.5-3,4.7c-1.3,1.1-2.8,1.7-4.7,1.7c-1.9,0-3.5-0.6-4.8-1.7
		c-1.3-1.1-2.3-2.7-3.1-4.7c-0.8-2-1.3-4.3-1.6-7c-0.3-2.7-0.5-5.6-0.5-8.7S418.3,735.9,418.6,733.2z"/>
	<path d="M634.7,717.7h-9.2l-2.9,15.2h-11.9l2.9-15.2h-9.2l-2.9,15.2h-12.4v8.1H600l-2.5,13h-8.4v8.2h6.8l-2.9,15.1h9.2l2.9-15.1
		H617l-2.9,15.1h9.2l2.9-15.1h12.5V754h-11l2.5-13h8.5v-8.1h-6.9L634.7,717.7z M618.6,753.9h-11.9l2.5-13h11.9L618.6,753.9z"/>
	<path d="M468.9,903.5c-0.8-1.6-2.1-2.8-3.7-3.6l-43.9-36.7c-2.7-2.2-6.4-2.6-9.4-0.9c-3.1,1.7-4.7,5-4.3,8.4l7,54
		c-0.1,1.1,0.1,2.3,0.6,3.3c1.6,3.4,5.3,4.8,10.1,4.8c6.3,0,14.4-2.4,21.9-5.8C460.5,921,472.4,911.3,468.9,903.5L468.9,903.5z
		 M415.5,869c0.3-0.2,0.7-0.2,1,0.1l36.2,30.3c-5,0.9-10.6,2.8-15.8,5.2c-6.1,2.8-11.8,6.3-16,10.1l-5.8-44.8
		C415,869.5,415.1,869.2,415.5,869z M444,920.3c-11.8,5.4-19.9,5.6-21.9,4.7v-0.1c0.7-2.1,6.1-8.1,17.8-13.5
		c10.9-5,18.6-5.5,21.3-4.9l0.5,0.4C460.9,909.2,455.5,915,444,920.3z"/>
</g>
</svg>
