<?xml version="1.0" encoding="utf-8"?>
<!-- Generator: Adobe Illustrator 21.0.0, SVG Export Plug-In . SVG Version: 6.00 Build 0)  -->
<svg version="1.1" id="Layer_1" xmlns="http://www.w3.org/2000/svg" xmlns:xlink="http://www.w3.org/1999/xlink" x="0px" y="0px"
	 viewBox="0 0 1417.3 448.1" style="enable-background:new 0 0 1417.3 448.1;" xml:space="preserve">
<g>
	<path d="M217.5,10.6c34.2,12.6,57.4,36.3,68.4,70.8c11.9,37.2,12.9,75.2,3.1,112.9c-13.1,50.2-47,80-95.9,93.8
		c-18.7,5.3-48.2,7.5-83.2,7.5c0,50.5,0,100.3,0,150.7c-37.2,0-73.6,0-109.9,0C0,297.6,0,148.9,0,0.1c56.7,0,113.4,0,170.1,0
		C183.9,0.1,203.4,5.4,217.5,10.6z M110.6,205.2c26.3,0,71.7-0.3,71.7-57.9c0-59.1-39.2-55.8-72-55.8
		C109.6,91.6,110.6,196.6,110.6,205.2z"/>
	<path d="M549.1,448c-114.8,2.6-221.7-90.4-224-218.6C322.7,99.5,428.5,0,551.8,1.8c119.3,1.7,221.6,99.1,220,226.4
		C770.1,356.2,663.6,450.1,549.1,448z M525.1,103c-47.1,7-105.2,53.4-99.6,131.5c4.8,65.8,61.9,116.5,128.5,113.7
		c67.3-2.8,119.7-60,117.7-129.2c-1.6-56-51.8-115-100.1-115.9c-1.1,1.5-0.7,3.3-0.7,5c-0.1,2.6,0,5.1,0,8.3
		c29.8,6.4,52.4,22.8,68.7,47.8c16.6,25.4,21,53.3,15.2,82.9c-9.5,48.2-54.7,88.3-110.3,86.7c-49.5-1.4-94.1-39.6-103.2-90.3
		c-8.6-48.1,14-107.5,84.1-127.3C525.9,112,526.1,107.5,525.1,103z M541.8,70.3c0,42.1,0,83.8,0,125.9c4.6,0,8.8,0,13.3,0
		c0-42.1,0-83.8,0-125.9C550.5,70.3,546.4,70.3,541.8,70.3z"/>
	<path d="M217.5,10.6c34.2,12.6,57.4,36.3,68.4,70.8c11.9,37.2,12.9,75.2,3.1,112.9c-13.1,50.2-47,80-95.9,93.8
		c-18.7,5.3-48.2,7.5-83.2,7.5c0,50.5,0,100.3,0,150.7c-37.2,0-73.6,0-109.9,0C0,297.6,0,148.9,0,0.1c56.7,0,113.4,0,170.1,0
		C183.9,0.1,203.4,5.4,217.5,10.6z M110.6,205.2c26.3,0,71.7-0.3,71.7-57.9c0-59.1-39.2-55.8-72-55.8
		C109.6,91.6,110.6,196.6,110.6,205.2z"/>
	<path d="M1014.7,10.5c34.2,12.6,57.4,36.3,68.4,70.8c11.9,37.2,12.9,75.2,3.1,112.9c-13.1,50.2-47,80-95.9,93.8
		c-18.7,5.3-48.2,7.5-83.2,7.5c0,50.5,0,100.3,0,150.7c-37.2,0-73.6,0-109.9,0c0-148.7,0-297.4,0-446.2c56.7,0,113.4,0,170.1,0
		C981.2,0,1000.6,5.3,1014.7,10.5z M907.8,205.1c26.3,0,71.7-0.3,71.7-57.9c0-59.1-39.2-55.8-72-55.8
		C906.8,91.4,907.8,196.4,907.8,205.1z"/>
	<path d="M1339.1,10.5c34.2,12.6,57.4,36.3,68.4,70.8c11.9,37.2,12.9,75.2,3.1,112.9c-13.1,50.2-47,80-95.9,93.8
		c-18.7,5.3-48.2,7.5-83.2,7.5c0,50.5,0,100.3,0,150.7c-37.2,0-73.6,0-109.9,0c0-148.7,0-297.4,0-446.2c56.7,0,113.4,0,170.1,0
		C1305.5,0,1324.9,5.3,1339.1,10.5z M1232.2,205.1c26.3,0,71.7-0.3,71.7-57.9c0-59.1-39.2-55.8-72-55.8
		C1231.2,91.4,1232.2,196.4,1232.2,205.1z"/>
</g>
</svg>
