<?xml version="1.0" encoding="utf-8"?>
<!-- Generator: Adobe Illustrator 21.0.0, SVG Export Plug-In . SVG Version: 6.00 Build 0)  -->
<svg version="1.1" id="Layer_1" xmlns="http://www.w3.org/2000/svg" xmlns:xlink="http://www.w3.org/1999/xlink" x="0px" y="0px"
	 viewBox="0 0 245.3 449.2" style="enable-background:new 0 0 245.3 449.2;" xml:space="preserve">
<style type="text/css">
	.st0{fill:#020204;}
	.st1{fill:#FFFFFF;}
</style>
<g>
	<path d="M107.5,425.5h32.7c3.9,0,7.1,3.2,7.1,7.1l0,0c0,3.9-3.2,7.1-7.1,7.1h-32.7c-3.9,0-7.1-3.2-7.1-7.1l0,0
		C100.4,428.7,103.6,425.5,107.5,425.5 M72.6,446.8h100c36.5,0,66.4-29.9,66.4-66.4v-6.3c-3.6,9.8-9.3,18.6-16.5,25.8
		c-12.8,12.8-30.5,20.8-49.9,20.8h-100c-19.4,0-37.1-8-49.9-20.8c-7.2-7.2-12.9-16-16.5-25.8v6.3C6.2,416.9,36.1,446.8,72.6,446.8z"
		/>
</g>
<g>
	<path d="M23,218.3c1.4-0.9,2.9-1.8,4.4-2.6V64.3c0-24.9,20.3-45.2,45.2-45.2h100c24.9,0,45.2,20.3,45.2,45.2v151.5
		c1.6,0.8,3,1.7,4.4,2.6c7.4,4.7,13,10.5,16.8,17.4v-167c0-36.5-29.9-66.4-66.4-66.4h-100C36.1,2.4,6.2,32.3,6.2,68.8v166.9
		C10,228.8,15.6,223.1,23,218.3z"/>
	<path d="M224.6,341.9c-2.4,0.7-4.6,1.5-6.8,2.3v1.3c0,24.9-20.3,45.2-45.2,45.2h-7.2c-9,8.6-21,15-42.8,15s-33.8-6.3-42.8-15h-7.2
		c-24.9,0-45.2-20.3-45.2-45.2v-1.3c-2.1-0.8-4.4-1.6-6.8-2.3c-3.3-1-9.6-4.5-14.5-9.5V350c0,36.5,29.9,66.4,66.4,66.4h100
		c36.5,0,66.4-29.9,66.4-66.4v-17.6C234.2,337.3,227.9,340.9,224.6,341.9z"/>
</g>
<g>
	<path class="st0" d="M243.9,258.7c-2.4-32.5-23.5-52.1-101.5-58.6c-13.1-1.1-26.3-1.1-39.4,0c-78,6.6-99.1,26.1-101.5,58.6
		c-0.2,1-0.2,2.1-0.2,3.2v57.4c0,10.8,15.1,19.7,19.8,21.1c58.2,17.5,42.3,63.7,101.5,63.7S166,358,224.1,340.4
		c4.7-1.4,19.8-10.3,19.8-21.1v-57.4C244,260.8,244,259.7,243.9,258.7z M122.6,360.7c-38.6,0-70-31.4-70-70s31.4-70,70-70
		s70,31.4,70,70S161.2,360.7,122.6,360.7z"/>
	<g>
		<path class="st0" d="M122.6,222.8c-37.4,0-67.9,30.4-67.9,67.9s30.4,67.9,67.9,67.9c37.4,0,67.9-30.4,67.9-67.9
			S160.1,222.8,122.6,222.8z M85.8,294.7c-2,0-3.6-1.6-3.6-3.6s1.6-3.6,3.6-3.6s3.6,1.6,3.6,3.6S87.8,294.7,85.8,294.7z M104.2,327
			c-2,0-3.6-1.6-3.6-3.6s1.6-3.6,3.6-3.6s3.6,1.6,3.6,3.6S106.2,327,104.2,327z M104.2,305.2c-2,0-3.6-1.6-3.6-3.6s1.6-3.6,3.6-3.6
			s3.6,1.6,3.6,3.6S106.2,305.2,104.2,305.2z M104.2,283.4c-2,0-3.6-1.6-3.6-3.6s1.6-3.6,3.6-3.6s3.6,1.6,3.6,3.6
			S106.2,283.4,104.2,283.4z M104.2,261.6c-2,0-3.6-1.6-3.6-3.6s1.6-3.6,3.6-3.6s3.6,1.6,3.6,3.6S106.2,261.6,104.2,261.6z
			 M122.6,316.5c-2,0-3.6-1.6-3.6-3.6s1.6-3.6,3.6-3.6c2,0,3.6,1.6,3.6,3.6S124.7,316.5,122.6,316.5z M122.6,294.7
			c-2,0-3.6-1.6-3.6-3.6s1.6-3.6,3.6-3.6c2,0,3.6,1.6,3.6,3.6S124.7,294.7,122.6,294.7z M122.6,272.9c-2,0-3.6-1.6-3.6-3.6
			s1.6-3.6,3.6-3.6c2,0,3.6,1.6,3.6,3.6S124.7,272.9,122.6,272.9z M141.1,327c-2,0-3.6-1.6-3.6-3.6s1.6-3.6,3.6-3.6s3.6,1.6,3.6,3.6
			S143.1,327,141.1,327z M141.1,305.2c-2,0-3.6-1.6-3.6-3.6s1.6-3.6,3.6-3.6s3.6,1.6,3.6,3.6S143.1,305.2,141.1,305.2z M141.1,283.4
			c-2,0-3.6-1.6-3.6-3.6s1.6-3.6,3.6-3.6s3.6,1.6,3.6,3.6S143.1,283.4,141.1,283.4z M141.1,261.6c-2,0-3.6-1.6-3.6-3.6
			s1.6-3.6,3.6-3.6s3.6,1.6,3.6,3.6S143.1,261.6,141.1,261.6z M159.5,294.7c-2,0-3.6-1.6-3.6-3.6s1.6-3.6,3.6-3.6s3.6,1.6,3.6,3.6
			S161.5,294.7,159.5,294.7z"/>
		<circle class="st1" cx="104.2" cy="258" r="3.6"/>
		<circle class="st1" cx="104.2" cy="279.8" r="3.6"/>
		<circle class="st1" cx="104.2" cy="301.6" r="3.6"/>
		<circle class="st1" cx="104.2" cy="323.4" r="3.6"/>
		<circle class="st1" cx="122.6" cy="269.3" r="3.6"/>
		<circle class="st1" cx="122.6" cy="291.1" r="3.6"/>
		<circle class="st1" cx="122.6" cy="312.9" r="3.6"/>
		<circle class="st1" cx="85.8" cy="291.1" r="3.6"/>
		<circle class="st1" cx="141.1" cy="258" r="3.6"/>
		<circle class="st1" cx="141.1" cy="279.8" r="3.6"/>
		<circle class="st1" cx="141.1" cy="301.6" r="3.6"/>
		<circle class="st1" cx="141.1" cy="323.4" r="3.6"/>
		<circle class="st1" cx="159.5" cy="291.1" r="3.6"/>
	</g>
</g>
<g>
	<path d="M77.7,114c-21.4,0-38.8-17.4-38.8-38.8s17.4-38.8,38.8-38.8s38.8,17.4,38.8,38.8C116.6,96.6,99.1,114,77.7,114z M77.7,39.2
		c-19.8,0-36,16.1-36,36c0,19.8,16.1,36,36,36c19.8,0,36-16.1,36-36S97.6,39.2,77.7,39.2z"/>
</g>
<g>
	<path d="M69.7,182.3c-17,0-30.8-13.8-30.8-30.8s13.8-30.8,30.8-30.8s30.8,13.8,30.8,30.8C100.4,168.5,86.6,182.3,69.7,182.3z
		 M69.7,123.6c-15.4,0-27.9,12.5-27.9,27.9s12.5,27.9,27.9,27.9s27.9-12.5,27.9-27.9C97.6,136.2,85.1,123.6,69.7,123.6z"/>
</g>
<g>
	<path d="M167.6,114c-21.4,0-38.8-17.4-38.8-38.8s17.4-38.8,38.8-38.8s38.8,17.4,38.8,38.8S189,114,167.6,114z M167.6,39.2
		c-19.8,0-36,16.1-36,36c0,19.8,16.1,36,36,36s36-16.1,36-36C203.5,55.3,187.4,39.2,167.6,39.2z"/>
</g>
<g>
	<path d="M175.6,182.3c-17,0-30.8-13.8-30.8-30.8s13.8-30.8,30.8-30.8s30.8,13.8,30.8,30.8S192.6,182.3,175.6,182.3z M175.6,123.6
		c-15.4,0-27.9,12.5-27.9,27.9s12.5,27.9,27.9,27.9s27.9-12.5,27.9-27.9C203.5,136.2,191,123.6,175.6,123.6z"/>
</g>
<circle cx="122.6" cy="39.4" r="5.5"/>
<g>
	<path d="M80.9,92.8h-4.5V64l-6.8,0.1v-3.2l11.3-1.2V92.8z"/>
</g>
<g>
	<path d="M179.4,92.8h-21.5v-3.1l10.9-12.1c1.9-2.2,3.3-3.9,4-5.2s1-2.6,1-3.9c0-1.7-0.5-3.1-1.4-4.2s-2.2-1.7-3.8-1.7
		c-2.3,0-4,0.6-5.1,1.8c-1.1,1.2-1.6,2.8-1.6,5h-4.3v-0.1c-0.1-2.9,0.9-5.3,2.9-7.2s4.7-2.9,8.2-2.9c3,0,5.4,0.9,7.1,2.6
		c1.8,1.7,2.7,4,2.7,6.7c0,1.8-0.5,3.6-1.6,5.4s-2.6,3.8-4.5,5.9l-8.7,9.5v0.1h16v3.4C179.7,92.8,179.4,92.8,179.4,92.8z"/>
</g>
<g>
	<path d="M180.6,156.6h3.6v2.8h-3.6v6h-3.5v-6h-11.7v-2l11.5-18.1h3.7V156.6z M169.2,156.6h7.9v-12.2H177l-0.3,0.9L169.2,156.6z"/>
</g>
<g>
	<path d="M66.9,150.8H70c1.6,0,2.7-0.4,3.3-1.2s1-1.9,1-3.3c0-1.5-0.4-2.6-1.1-3.4c-0.7-0.8-1.8-1.2-3.3-1.2c-1.4,0-2.5,0.4-3.3,1.2
		s-1.2,1.9-1.2,3.2H62V146c-0.1-2,0.7-3.6,2.1-5c1.5-1.4,3.4-2.1,5.8-2.1s4.3,0.6,5.8,1.9s2.1,3.1,2.1,5.5c0,1.1-0.3,2.1-1,3.2
		c-0.7,1.1-1.6,1.9-2.9,2.4c1.6,0.5,2.7,1.3,3.3,2.4s1,2.3,1,3.7c0,2.4-0.8,4.2-2.3,5.6s-3.5,2-6,2c-2.4,0-4.3-0.6-5.9-1.9
		c-1.6-1.3-2.3-3-2.2-5.2l0.1-0.1h3.4c0,1.4,0.4,2.5,1.3,3.3c0.8,0.8,2,1.2,3.5,1.2s2.7-0.4,3.5-1.2s1.3-2,1.3-3.6s-0.4-2.8-1.1-3.5
		c-0.8-0.8-1.9-1.1-3.6-1.1h-3.1v-2.7L66.9,150.8L66.9,150.8z"/>
</g>
</svg>
