<?xml version="1.0" encoding="utf-8"?>
<!-- Generator: Adobe Illustrator 21.0.0, SVG Export Plug-In . SVG Version: 6.00 Build 0)  -->
<svg version="1.1" id="Layer_1" xmlns="http://www.w3.org/2000/svg" xmlns:xlink="http://www.w3.org/1999/xlink" x="0px" y="0px"
	 viewBox="0 0 1417.5 1237.2" style="enable-background:new 0 0 1417.5 1237.2;" xml:space="preserve">
<g>
	<path d="M1398.4,455.6c-12.3-52-30.6-102.6-54.4-150.5c-46.5-93.7-114.6-177.5-197.1-242.4C1095.7,22.2,1031.1,0,965,0H452.6
		c-66.1,0-130.7,22.2-182,62.6C188.1,127.5,120,211.4,73.5,305.1C49.7,353,31.4,403.6,19.1,455.6C6.4,509,0,564.3,0,619.7
		c0,55,6.3,109.8,18.8,162.8C30.9,834.1,48.9,884.4,72.3,932c45.8,93.1,112.9,176.6,194.1,241.6c51.3,41,116.4,63.6,183.3,63.6h518
		c66.9,0,132-22.6,183.3-63.6c81.3-65,148.4-148.5,194.1-241.6c23.4-47.6,41.4-97.9,53.5-149.5c12.5-53,18.8-107.8,18.8-162.8
		C1417.5,564.3,1411.1,509,1398.4,455.6z M1373.8,776.7c-11.7,49.7-29,98.2-51.6,144c-44.1,89.7-108.8,170.2-187.1,232.9
		c-46.8,37.4-106.2,58-167.3,58h-518c-61.1,0-120.5-20.6-167.3-58c-78.3-62.6-143-143.2-187.1-232.9c-22.5-45.9-39.9-94.3-51.6-144
		c-12-51.1-18.1-103.9-18.1-157c0-53.5,6.2-106.7,18.4-158.2c11.9-50.1,29.5-98.9,52.4-145c44.8-90.3,110.5-171.1,190-233.7
		c46.8-36.8,105.8-57.1,166.1-57.1H965c60.4,0,119.4,20.3,166.2,57.1c79.5,62.6,145.1,143.4,190,233.7c22.9,46.2,40.5,95,52.4,145
		c12.2,51.5,18.4,104.8,18.4,158.2C1391.9,672.7,1385.8,725.5,1373.8,776.7z"/>
	<path d="M1104.6,116.5c-39.2-30.9-88.8-47.9-139.6-47.9H452.6c-50.8,0-100.3,17-139.6,47.9c-74.5,58.7-136.1,134.4-178.1,219.1
		c-44,88.7-66.4,184.3-66.4,284.2c0,195.6,87.7,378,240.7,500.3c39.2,31.4,89.1,48.6,140.5,48.6h518c51.4,0,101.3-17.3,140.5-48.6
		c153-122.3,240.7-304.7,240.7-500.3c0-99.8-22.3-195.5-66.4-284.2C1240.6,250.9,1179,175.1,1104.6,116.5z M1104.3,1115
		c-38.1,30.5-86.6,47.2-136.5,47.2h-518c-49.9,0-98.4-16.8-136.5-47.2C161.8,993.9,75,813.4,75,619.7c0-98.8,22.1-193.5,65.7-281.3
		c41.6-83.8,102.5-158.8,176.3-216.9C355,91.5,403.2,75,452.6,75H965c49.3,0,97.5,16.5,135.6,46.5
		c73.7,58.1,134.7,133.1,176.3,216.9c43.6,87.8,65.7,182.5,65.7,281.3C1342.6,813.4,1255.7,993.9,1104.3,1115z"/>
	<path d="M1070.1,160.3c-29.4-23.2-66.8-36-105.1-36H452.6c-38.3,0-75.6,12.8-105.1,36c-68,53.6-124.3,122.8-162.6,200.1
		c-40.2,81-60.5,168.2-60.5,259.4c0,178.6,80.1,345.1,219.8,456.8c29.4,23.5,66.9,36.4,105.7,36.4h518c38.8,0,76.3-12.9,105.7-36.4
		c139.7-111.7,219.8-278.2,219.8-456.8c0-91.2-20.4-178.4-60.5-259.4C1194.3,283,1138.1,213.8,1070.1,160.3z M1065.5,1066.5
		c-27.1,21.7-61.8,33.6-97.7,33.6h-518c-35.9,0-70.6-11.9-97.7-33.6c-136.6-109.3-215-272.1-215-446.8c0-89.2,19.9-174.5,59.2-253.7
		c37.5-75.6,92.5-143.3,159.1-195.7c27.2-21.4,61.7-33.2,97.2-33.2H965c35.5,0,70,11.8,97.2,33.2c66.6,52.4,121.6,120.1,159.1,195.7
		c39.3,79.2,59.2,164.5,59.2,253.7C1280.4,794.4,1202.1,957.2,1065.5,1066.5z"/>
	<path d="M879.6,150.4H537.9c-36.1,0-65.4,29.3-65.4,65.4v783.8c0,36.1,29.3,65.4,65.4,65.4h341.8c36.1,0,65.4-29.3,65.4-65.4V215.8
		C945,179.7,915.7,150.4,879.6,150.4z M932.2,999.6c0,29-23.6,52.6-52.6,52.6H537.9c-29,0-52.6-23.6-52.6-52.6V215.8
		c0-29,23.6-52.6,52.6-52.6h341.8c29,0,52.6,23.6,52.6,52.6V999.6z"/>
	<path d="M863.8,194H553.7c-20.7,0-37.6,16.9-37.6,37.6v752.2c0,20.7,16.9,37.6,37.6,37.6h310.1c20.7,0,37.6-16.9,37.6-37.6V231.6
		C901.4,210.9,884.6,194,863.8,194z M895,983.8c0,17.2-14,31.2-31.2,31.2H553.7c-17.2,0-31.2-14-31.2-31.2V231.6
		c0-17.2,14-31.2,31.2-31.2h310.1c17.2,0,31.2,14,31.2,31.2V983.8z"/>
	<path d="M817.8,461.8H610c-22.5,0-40.7,18.3-40.7,40.7V680c0,22.5,18.3,40.7,40.7,40.7h207.8c22.5,0,40.7-18.3,40.7-40.7V502.5
		C858.6,480.1,840.3,461.8,817.8,461.8z M852.2,680c0,18.9-15.4,34.3-34.3,34.3H610c-18.9,0-34.3-15.4-34.3-34.3V502.5
		c0-18.9,15.4-34.3,34.3-34.3h207.8c18.9,0,34.3,15.4,34.3,34.3V680z"/>
	<path d="M804.6,492.3H623.2c-12.9,0-23.5,10.5-23.5,23.5v151.1c0,12.9,10.5,23.5,23.5,23.5h181.4c12.9,0,23.5-10.5,23.5-23.5V515.7
		C828.1,502.8,817.5,492.3,804.6,492.3z M815.3,666.9c0,5.9-4.8,10.7-10.7,10.7H623.2c-5.9,0-10.7-4.8-10.7-10.7V515.7
		c0-5.9,4.8-10.7,10.7-10.7h181.4c5.9,0,10.7,4.8,10.7,10.7V666.9z"/>
	<path d="M1112.9,474.6c-13.3,0-24.1,10.8-24.1,24.1c0,13.3,10.8,24.1,24.1,24.1c13.3,0,24.1-10.8,24.1-24.1
		C1136.9,485.4,1126.1,474.6,1112.9,474.6z M1112.9,519.6c-11.6,0-21-9.4-21-21s9.4-21,21-21s21,9.4,21,21
		S1124.5,519.6,1112.9,519.6z"/>
	<path d="M1104.1,443.6c0-13.3-10.8-24.1-24.1-24.1c-13.3,0-24.1,10.8-24.1,24.1c0,13.3,10.8,24.1,24.1,24.1
		C1093.3,467.7,1104.1,456.9,1104.1,443.6z M1080,464.6c-11.6,0-21-9.4-21-21s9.4-21,21-21s21,9.4,21,21S1091.6,464.6,1080,464.6z"
		/>
	<path d="M1047.2,474.6c-13.3,0-24.1,10.8-24.1,24.1c0,13.3,10.8,24.1,24.1,24.1c13.3,0,24.1-10.8,24.1-24.1
		C1071.2,485.4,1060.5,474.6,1047.2,474.6z M1047.2,519.6c-11.6,0-21-9.4-21-21s9.4-21,21-21s21,9.4,21,21
		S1058.8,519.6,1047.2,519.6z"/>
	<path d="M427.8,397.1c-13.5,0-24.5,11-24.5,24.5c0,13.5,11,24.5,24.5,24.5c13.5,0,24.5-11,24.5-24.5
		C452.3,408,441.3,397.1,427.8,397.1z M427.8,443c-11.8,0-21.4-9.6-21.4-21.4c0-11.8,9.6-21.4,21.4-21.4c11.8,0,21.4,9.6,21.4,21.4
		C449.2,433.4,439.6,443,427.8,443z"/>
	<path d="M427.8,464.5c-13.5,0-24.5,11-24.5,24.5c0,13.5,11,24.5,24.5,24.5c13.5,0,24.5-11,24.5-24.5
		C452.3,475.5,441.3,464.5,427.8,464.5z M427.8,510.5c-11.8,0-21.4-9.6-21.4-21.4c0-11.8,9.6-21.4,21.4-21.4
		c11.8,0,21.4,9.6,21.4,21.4C449.2,500.8,439.6,510.5,427.8,510.5z"/>
	<path d="M427.8,535.6c-13.5,0-24.5,11-24.5,24.5c0,13.5,11,24.5,24.5,24.5c13.5,0,24.5-11,24.5-24.5
		C452.3,546.6,441.3,535.6,427.8,535.6z M427.8,581.5c-11.8,0-21.4-9.6-21.4-21.4c0-11.8,9.6-21.4,21.4-21.4
		c11.8,0,21.4,9.6,21.4,21.4C449.2,571.9,439.6,581.5,427.8,581.5z"/>
	<path d="M273.8,423.4H285l3.1,8.2h4.1l-11-26.9h-3.8L267,431.6h3.8L273.8,423.4z M277.7,412.6c0.6-1.7,1.1-3.4,1.5-5.1
		c0.4,1.5,1.1,3.3,1.9,5.6l2.8,7.5h-9.1L277.7,412.6z"/>
	<polygon points="311.8,428.4 298.5,428.4 298.5,404.6 294.9,404.6 294.9,431.6 311.8,431.6 	"/>
	<path d="M319.8,423.4h11.3l3.1,8.2h4.1l-11-26.9h-3.8l-10.3,26.9h3.8L319.8,423.4z M323.8,412.6c0.6-1.7,1.1-3.4,1.5-5.1
		c0.4,1.5,1.1,3.3,1.9,5.6l2.8,7.5h-9.1L323.8,412.6z"/>
	<path d="M344.7,419.6h4.1c0.9,0,1.6,0,2,0.1c0.6,0.1,1.1,0.4,1.6,0.7c0.5,0.3,1.1,0.9,1.8,1.8c0.7,0.9,1.5,2.1,2.6,3.7l3.6,5.6h4.5
		l-4.7-7.3c-0.9-1.4-1.9-2.6-3-3.6c-0.5-0.4-1.2-0.9-2.2-1.3c2.6-0.4,4.5-1.2,5.7-2.5c1.2-1.3,1.9-2.9,1.9-4.8
		c0-1.5-0.4-2.8-1.1-4.1c-0.7-1.2-1.7-2.1-3-2.6s-3.1-0.7-5.5-0.7h-11.9v26.9h3.6V419.6z M344.7,407.6h8.5c2,0,3.5,0.4,4.4,1.2
		c0.9,0.8,1.4,1.9,1.4,3.1c0,0.9-0.2,1.7-0.7,2.4c-0.5,0.7-1.2,1.3-2.1,1.6c-0.9,0.3-2.2,0.5-3.8,0.5h-7.7V407.6z"/>
	<path d="M371.6,408.7l7.8,22.9h3.2l7.8-22.6v22.6h3.4v-26.9h-4.8l-6.5,18.7c-0.6,1.9-1.1,3.3-1.4,4.3c-0.3-0.9-0.7-2.2-1.3-4
		l-6.4-19.1h-5.4v26.9h3.4V408.7z"/>
	<polygon points="304.4,475.3 304.4,472.1 286.3,472.1 286.3,499.1 289.8,499.1 289.8,486.8 302.5,486.8 302.5,483.7 289.8,483.7 
		289.8,475.3 	"/>
	<path d="M322,490.9l3.1,8.2h4.1l-11-26.9h-3.8L304,499.1h3.8l3-8.2H322z M314.8,480.1c0.6-1.7,1.1-3.4,1.5-5.1
		c0.4,1.5,1.1,3.3,1.9,5.6l2.8,7.5h-9.1L314.8,480.1z"/>
	<path d="M336.4,492.9c-0.4-1.1-0.7-2.8-0.7-5.2v-15.6h-3.6v15.6c0,2.9,0.3,5.1,1,6.8c0.7,1.6,1.8,2.9,3.4,3.8
		c1.6,0.9,3.7,1.3,6.2,1.3c2.6,0,4.7-0.5,6.3-1.5c1.6-1,2.7-2.3,3.3-3.9c0.6-1.6,0.9-3.7,0.9-6.5v-15.6h-3.6v15.6
		c0,3.4-0.6,5.7-1.7,6.9c-1.1,1.2-3,1.8-5.6,1.8c-1.5,0-2.8-0.3-3.9-0.9C337.6,494.8,336.8,494,336.4,492.9z"/>
	<polygon points="359.1,472.1 359.1,499.1 376,499.1 376,495.9 362.7,495.9 362.7,472.1 	"/>
	<polygon points="375.4,475.3 384.3,475.3 384.3,499.1 387.8,499.1 387.8,475.3 396.8,475.3 396.8,472.1 375.4,472.1 	"/>
	<path d="M275.1,544.7c-0.9-0.6-2-1-3.3-1.3c-0.9-0.2-2.3-0.3-4.1-0.3h-10.2v26.9h3.6v-11h6.9c3.8,0,6.4-0.8,7.9-2.4
		c1.5-1.6,2.2-3.5,2.2-5.8c0-1.3-0.3-2.6-0.8-3.7C276.7,546.2,276,545.3,275.1,544.7z M273,554.7c-1,0.9-2.6,1.3-4.9,1.3h-7v-9.6
		h6.9c1.6,0,2.7,0.1,3.3,0.2c0.9,0.3,1.7,0.8,2.3,1.6s0.9,1.8,0.9,2.9C274.4,552.7,273.9,553.9,273,554.7z"/>
	<path d="M301.2,544.5c-2-1.2-4.2-1.8-6.7-1.8c-3.8,0-6.9,1.3-9.3,3.8c-2.4,2.5-3.6,6-3.6,10.5c0,2.4,0.5,4.6,1.5,6.7
		c1,2.1,2.5,3.8,4.5,5c2,1.2,4.3,1.8,6.8,1.8c2.3,0,4.5-0.6,6.5-1.7c2-1.1,3.6-2.7,4.7-4.9c1.1-2.2,1.7-4.6,1.7-7.3
		c0-2.7-0.5-5.1-1.6-7.2C304.7,547.4,303.2,545.7,301.2,544.5z M301,564.7c-1.7,1.9-3.9,2.8-6.6,2.8c-2.6,0-4.8-0.9-6.6-2.8
		c-1.7-1.9-2.6-4.4-2.6-7.7c0-4.1,0.9-7,2.7-8.7c1.8-1.7,4-2.6,6.5-2.6c1.8,0,3.4,0.5,4.8,1.4c1.4,0.9,2.5,2.2,3.3,3.8
		c0.7,1.6,1.1,3.6,1.1,5.7C303.6,560.2,302.8,562.8,301,564.7z"/>
	<path d="M336.3,560.5c-0.6,2.2-1,4.2-1.3,5.9c-0.4-3-1.1-6.2-2.1-9.5l-3.9-13.6h-4.3l-5.1,18.2c-0.1,0.4-0.5,2.1-1.2,5
		c-0.3-1.8-0.7-3.7-1.1-5.5l-4.1-17.7h-3.7l7.2,26.9h3.6l5.7-20.5c0.2-0.9,0.5-1.9,0.8-3.2c0.1,0.4,0.4,1.4,0.8,3.2l5.7,20.5h3.4
		l7.4-26.9h-3.6L336.3,560.5z"/>
	<polygon points="351.1,557.8 366,557.8 366,554.6 351.1,554.6 351.1,546.4 367,546.4 367,543.2 347.5,543.2 347.5,570.1 
		367.6,570.1 367.6,567 351.1,567 	"/>
	<path d="M388.7,559.2c-0.5-0.4-1.2-0.9-2.2-1.3c2.6-0.4,4.5-1.2,5.7-2.5c1.2-1.3,1.9-2.9,1.9-4.8c0-1.5-0.4-2.8-1.1-4.1
		c-0.7-1.2-1.7-2.1-3-2.6s-3.1-0.7-5.5-0.7h-11.9v26.9h3.6v-12h4.1c0.9,0,1.6,0,2,0.1c0.6,0.1,1.1,0.4,1.6,0.7
		c0.5,0.3,1.1,0.9,1.8,1.8c0.7,0.9,1.5,2.1,2.6,3.7l3.6,5.6h4.5l-4.7-7.3C390.7,561.4,389.8,560.2,388.7,559.2z M383.8,555.1h-7.7
		v-8.9h8.5c2,0,3.5,0.4,4.4,1.2c0.9,0.8,1.4,1.9,1.4,3.1c0,0.9-0.2,1.7-0.7,2.4c-0.5,0.7-1.2,1.3-2.1,1.6
		C386.7,554.9,385.5,555.1,383.8,555.1z"/>
	<circle cx="1080" cy="443.6" r="15.9"/>
	<circle cx="1047.2" cy="498.7" r="15.9"/>
	<circle cx="1112.9" cy="498.7" r="15.9"/>
</g>
</svg>
