<?xml version="1.0" encoding="utf-8"?>
<!-- Generator: Adobe Illustrator 21.0.0, SVG Export Plug-In . SVG Version: 6.00 Build 0)  -->
<svg version="1.1" id="Layer_1" xmlns="http://www.w3.org/2000/svg" xmlns:xlink="http://www.w3.org/1999/xlink" x="0px" y="0px"
	 viewBox="0 0 1417.3 941.3" style="enable-background:new 0 0 1417.3 941.3;" xml:space="preserve">
<g>
	<path d="M1392.8,99.9c-25-47.1-65.7-79.7-114.6-91.7l-16.7-4.1c-44.7-11-91.9,0.2-132.8,31.4c-40.1,30.6-69.4,77.1-82.6,130.7
		c-7.4,30-9.2,60.3-5.7,89.2L741.2,362.1c-3.5-0.1-7-0.2-10.5-0.2c-0.4,0-0.7,0-1.1,0c-1.6,0-3.3,0-4.9,0l-336-85.3
		c-3.2-27.5-11.6-54.7-25-80.4c-26-49.7-67.9-87.3-118-106c-50.5-18.8-103.3-16.2-148.5,7.6c-45.3,23.7-77.5,65.6-90.7,117.9
		c-13.1,51.8-6,107.6,20,157.3c26,49.7,67.9,87.3,118,106c22.2,8.3,44.9,12.4,67.1,12.4c21.9,0,43.3-4,63.6-11.9
		c-3.9,11.3-6.4,23-7.3,35c-2.8,38,10.2,75,36.6,104.2c25.8,28.6,61.7,46.5,101.1,50.7c3.3,1.1,6.7,1.7,10,2
		c1.1,0.1,2.2,0.1,3.3,0.1c20.9,0,40.9-14.8,56.5-42c14.8-25.8,24.5-60.5,27.2-97.8c0.7-9,0.9-17.9,0.7-26.7l92.7-32l4.4,85
		c0.4,34.1,69.5,44.1,99.2,46.9l3,0.3l1,44.3L291.3,720l0.2-7.5c0.2-11.9-8.8-22.1-20.7-23.3L92.6,671.5c-6.3-0.6-12.7,1.4-17.5,5.7
		c-4.8,4.2-7.6,10.3-7.7,16.7l-4.5,220.4c-0.1,6.1,2.1,11.9,6.4,16.4c4.2,4.4,10,6.9,16.1,7.1l178.5,3.7c0.2,0,0.3,0,0.5,0
		c12.4,0,22.7-10,22.9-22.5l1.1-52.2l567.1-73.1c1.1-0.1,2.2-0.5,3.3-0.9l0.5,0.1l0.1-0.3c4.4-2.1,7.4-6.5,7.4-11.6l1.1-113.4
		c0.1-6.2-4.3-11.6-10.4-12.8l-81.8-16.6c-1.6-0.3-3.2-0.3-4.8-0.1l-0.8-32.4l0.5,0c24.5-1.8,104.3-10.5,104.4-47l0-0.3l-5.2-100.4
		l103,23.6c0.2,3.6,0.6,7.1,1.1,10.8c10.3,73.9,73,127.6,144.5,127.6c6.5,0,13.2-0.5,19.8-1.4l0.5-0.1c0.1,0,0.1,0,0.1,0
		c0.2,0,0.4,0,0.5-0.1l11-1.6l-0.1-1c21.4-6.9,39.3-24.5,51.2-50.7c13.1-28.8,17.5-65.1,12.4-102.1c-2.2-15.5-6-30.7-11.2-44.9
		c5.6,0.5,11.1,0.8,16.7,0.8c35.8,0,71.4-11.3,103.2-33.1c43.5-29.9,74.8-76,88-129.9C1423.8,201.9,1417.5,146.5,1392.8,99.9z
		 M1042.2,268.2c2.1,11.9,5.2,23.4,9.2,34.6l-221.2,76.3c-2.2-1-4.6-1.9-7.1-2.8c-14.7-5.4-32.1-9.3-51.1-11.7L1042.2,268.2z
		 M211.5,466.2c-19.3,0-39-3.6-58.3-10.8C109,439,71.9,405.5,48.8,361.4c-36.3-69.2-29.2-148.5,12-201
		C24.6,214.3,20,290.3,54.9,356.8c23.6,45,61.5,79,106.7,95.9c20,7.5,40.4,11.2,60.5,11.2c8.8,0,17.4-0.7,26-2.1
		C236.2,464.8,223.9,466.2,211.5,466.2z M166,441c-42.3-15.8-77.8-47.7-100-90c-45.6-86.9-19.5-190.7,58.1-231.4
		c19.2-10.1,39.8-15.3,60.7-16.2c61.6,2.5,123.1,40.9,156.5,104.6c23.1,44.2,29.5,93.7,17.9,139.4c-2.4,9.5-5.6,18.7-9.4,27.3
		c-14,25.8-34.7,46.6-60.5,60.1C251.9,454.5,208.1,456.7,166,441z M293,516.4c0.8-11,3.3-21.7,7.2-32c7.1,1,12.2,12.7,11.2,26
		c-1,13.6-8.1,24.6-15.4,24.1c-1-0.1-2-0.4-3-0.9C292.6,527.9,292.6,522.1,293,516.4z M477.4,529.9c-5.2,70.8-35.8,118.1-60,116.4
		c-1.6-0.1-3.2-0.5-5-1.1l-1.4-0.5l-1.5-0.1c-33.7-3.3-64.4-18.5-86.3-42.7c-16.1-17.8-26.2-39.1-29.4-61.6c0.6,0.1,1.2,0.2,1.8,0.3
		c0.3,0,0.6,0,1,0c10.6,0,19.7-12.8,20.9-29.7c1.2-16.1-5.2-29.6-14.9-32.1c3.2-7.2,7.2-14.1,11.9-20.6c12.4-9,23.5-19.5,33.1-31.4
		c23.3-15.2,51.4-22.8,79.6-21.4c1.4,0.1,2.6,0.2,3.7,0.3c1.3,0.1,2.6,0.3,4.2,0.4C459.3,407.8,482.6,459.1,477.4,529.9z
		 M502.7,491.9c-0.7-10.4-2-20.5-3.9-30l94.8-33.8l1.7,31.9L502.7,491.9z M593.5,414.8l-97.6,34.8c-1.7-6.5-3.7-12.7-6-18.5
		c-12.1-30.7-30.9-48.5-53-50.1h0c-1.3-0.1-2.3-0.2-3.5-0.3c-1.4-0.1-2.8-0.3-4.5-0.4l-0.3,0c-19.3-1-38.7,1.7-56.9,7.5
		c4.9-10.7,8.9-22.1,11.9-34c0.6-2.2,1.1-4.4,1.5-6.6l217.5,49.8C597,403,594.4,409.2,593.5,414.8z M387.5,334.6
		c2.3-14.7,3-29.7,2.2-44.7l295,74.9c-17.2,2.3-33.1,6-46.6,10.8c-9.5,3.4-17.1,7.1-23.1,11L387.5,334.6z M618.4,419.2
		c0.3-4.8,9.2-13,28.3-19.9c22.2-8,52.1-12.3,83.9-12.2c31.9,0.1,61.7,4.6,83.8,12.8c19.4,7.1,28.2,15.5,28.2,20.3l0,0.3l5.9,114.4
		c-5.8-2.9-12.7-5.6-20.8-7.9c-24.1-7-56-11-89.9-11.1c-33.9-0.1-65.8,3.6-89.9,10.5c-9.4,2.7-17.2,5.7-23.4,9.1L618.4,419.2z
		 M703.9,662.2L703.9,662.2l62.8-10.7l-2.3,112.8l-611.7,91.2l2-99.1c0-0.2,0.1-0.3,0.3-0.3L703.9,662.2z M714.3,564.6
		c2.6-1.4,10-3.3,20.8-3.3c0.1,0,0.2,0,0.3,0c11.1,0,18.6,2,21.1,3.4l0.8,35.3l0,0l0.9,40l-42.2,7.2l-1-47.5l0,0L714.3,564.6z
		 M274.7,918.6c-0.1,5.7-4.9,10.3-10.6,10.2l-178.5-3.7c-2.8-0.1-5.4-1.2-7.3-3.2c-1.9-2-2.9-4.6-2.9-7.4L80,694.1
		c0.1-2.9,1.3-5.6,3.5-7.5c2.2-1.9,5-2.9,7.9-2.6l178.2,17.6c5.4,0.5,9.5,5.2,9.3,10.5l-0.2,10l-125.8,21.5
		c-6.1,1-10.6,6.3-10.7,12.5l-2.1,100.1c-0.1,5,2.7,9.4,6.9,11.7l0.2,1.2l2-0.3c1.1,0.3,2.2,0.5,3.4,0.6l90,3c0.1,0,0.3,0,0.4,0
		c0.6,0,1.1,0,1.6-0.1l31-4L274.7,918.6z M779.3,651.7l75.7,15.3c0.2,0,0.3,0.2,0.3,0.3L854.1,779l-77.2-14.4L779.3,651.7z
		 M770.4,776.2l49.6,9.3l-576.9,74.3l0.8,6.2l-0.9-6.2l-27.4-0.9L770.4,776.2z M769.5,580.5l-0.4-17.5c0,0,0,0,0-0.1
		c-0.2-10.6-17.2-13.3-27.7-13.9c-0.1,0-0.2,0-0.2,0c-0.9-0.1-1.7-0.1-2.5-0.1c-0.1,0-0.3,0-0.4,0c-1.1,0-2,0-2.8,0
		c-0.6,0-1.2,0-2,0c-2.6,0-5.2,0.2-7.7,0.4c-0.3,0-0.7,0.1-1,0.1c-0.3,0-0.6,0.1-1,0.1c-9.5,1.1-20.5,4.1-21.9,11.8
		c0,0.1,0,0.2-0.1,0.3c0,0.1,0,0.3,0,0.4c0,0.3-0.1,0.7-0.1,1l0.4,17.1l-0.2,0c-52.9-4.9-74.2-18-76.3-22.4l-0.4-7.7
		c4.9-3.6,13.3-7.7,26.1-11.3c23-6.6,53.8-10.1,86.5-10c32.7,0.1,63.4,3.9,86.4,10.6c12.1,3.5,20.1,7.3,25.2,10.8l0.4,8.4
		C847.3,563,824.8,576.3,769.5,580.5z M972.5,468.4L869,444.8l-1.3-24.9c0-2.8-0.4-5.7-1.4-8.9l110.1,28
		C974.1,448.4,972.7,458.3,972.5,468.4z M856.3,395.4c-2.9-2.8-6.4-5.6-10.7-8.4l210.4-72.5c0.9,2,1.7,4,2.6,5.9
		c3.3,7.1,7,13.9,11,20.3c-43.6,14.5-75.8,46.3-89.6,86.1L856.3,395.4z M998.8,488.7c-4.3-30.6,2.9-59.3,20.7-83
		c7.8-10.4,17.4-19.4,28.5-26.7c-3.1,5.3-5.8,11-8.3,17.1c-10.5,26.6-13.7,59.3-9.2,92.2c5,35.8,18.6,68.4,38.3,91.6
		c1.8,2.1,3.6,4.1,5.4,6C1035.1,570.2,1005.1,534,998.8,488.7z M1178.6,554.5c-10.3,22.5-25.5,36.3-43,38.8c-0.2,0-0.5,0-0.7,0.1
		l-4.1,0.5c-8.7,0.9-17.3,0.8-25.6-0.1c-9.3-4.7-18.4-12.1-26.7-22c-18.2-21.4-30.8-51.7-35.4-85.2c-4.3-30.7-1.3-61.2,8.4-85.8
		c5.8-14.8,13.8-26.8,23.2-35.1c3.6-1.3,7.2-2.5,10.9-3.4c18,20.8,40.1,35.9,65.2,44.3c0.3,0.1,0.5,0.2,0.8,0.3
		c1.4,0.4,2.7,0.9,4.1,1.3c0.4,0.1,0.8,0.2,1.2,0.4c1.7,0.5,3.3,0.9,5,1.3l11.2,2.8c7.8,16.1,13.3,34.6,16,53.8
		C1193.4,498.7,1189.7,530,1178.6,554.5z M1214.5,393.6c-9.9-0.3-19.9-1.6-29.8-4l-16.9-4.2c-1.5-0.4-3-0.8-4.4-1.2
		c-0.3-0.1-0.7-0.2-1-0.3c-1.4-0.4-2.8-0.8-4.1-1.3c-0.1,0-0.1,0-0.2-0.1c-22.3-7.6-42.2-22-57.9-42.1l-1.8-2.2
		c-6.4-8.5-12.1-18-16.9-28.4c-18.9-40.5-22.8-89.4-11-137.5c21.3-86.7,88.3-147.1,157.2-147.1c9.3,0,18.6,1.1,27.8,3.4l16.7,4.1
		c10,2.5,19.6,5.9,28.7,10.4c19.2,14.1,35.2,33.9,46.7,58.5c19.5,41.8,23.6,92.1,11.4,141.7C1338.8,324.8,1279.2,383.8,1214.5,393.6
		z M1386.1,249.8c-14.9,60.8-55.2,107.9-104.3,130c3-2,6-4.2,9-6.4c39-29.8,67.5-74.9,80.3-127.2c12.9-52.3,8.5-105.6-12.2-150
		c-1.6-3.5-3.4-7-5.2-10.3c6.3,7.9,11.9,16.6,16.8,25.9C1392.3,152.9,1397.9,201.9,1386.1,249.8z"/>
	<path d="M324.5,219.3c-4.8-8.6-12.3-15.1-21.2-18.2c-9-3.2-18.3-2.5-26.3,1.9c-16.3,8.9-21.4,30.8-11.6,48.8
		c7,12.8,19.8,20.2,32.4,20.2c5.1,0,10.3-1.2,15-3.8C329.2,259.2,334.4,237.3,324.5,219.3z M310,262.8c-13.3,7.3-30.9,1.1-39.2-14
		c-8.3-15-4.2-33.3,9.2-40.6c3.7-2.1,7.8-3.1,12.1-3.1c3.1,0,6.2,0.5,9.3,1.6c7.5,2.6,13.8,8.1,17.9,15.4
		C327.5,237.3,323.4,255.5,310,262.8z"/>
</g>
</svg>
