<?xml version="1.0" encoding="utf-8"?>
<!-- Generator: Adobe Illustrator 21.0.0, SVG Export Plug-In . SVG Version: 6.00 Build 0)  -->
<svg version="1.1" id="Layer_1" xmlns="http://www.w3.org/2000/svg" xmlns:xlink="http://www.w3.org/1999/xlink" x="0px" y="0px"
	 viewBox="0 0 971.7 1417.3" style="enable-background:new 0 0 971.7 1417.3;" xml:space="preserve">
<g>
	<path d="M899.6,193.9c-22.7-31.3-55.2-59.3-96.5-83.4c-84.7-49.3-197.2-76.4-316.9-76.4S254,61.2,169.4,110.5
		c-41.3,24.1-73.8,52.1-96.5,83.4C49.2,226.4,37.2,261,37.2,296.7c0,26.3,6.5,52,19.4,76.8c5.6,12.7,13.1,25.2,22.3,37.4
		c22.5,29.8,54.7,56.5,95.5,79.3c83.4,46.7,194.1,72.3,311.8,72.3c117.7,0,228.4-25.7,311.8-72.3c40.9-22.9,73-49.6,95.5-79.3
		c9.2-12.2,16.6-24.6,22.3-37.4c12.9-24.7,19.4-50.4,19.4-76.8C935.2,261,923.2,226.4,899.6,193.9z M486.2,40.3
		c244.1,0,442.7,115,442.7,256.4c0,1.9,0,3.7-0.1,5.6c-2-30.9-13.9-60.9-35.3-89.2c-22.5-29.8-54.7-56.5-95.5-79.3
		c-83.4-46.7-194.1-72.3-311.8-72.3c-117.7,0-228.4,25.7-311.8,72.3c-40.9,22.9-73,49.6-95.5,79.3c-21.4,28.3-33.2,58.2-35.3,89.2
		c-0.1-1.8-0.1-3.7-0.1-5.6C43.5,155.4,242.1,40.3,486.2,40.3z M916.6,312c0,31.6-11.1,62.3-33,91.3c-21.5,28.4-52.3,53.9-91.6,76
		c-65.5,36.7-148.5,60.1-238.5,67.9c35.2-77,117.3-141.1,181-181.7c39.7-25.3,121.8-70.8,177.6-88.1
		C915,288.7,916.6,300.3,916.6,312z M840.8,299.7c-26.2,12.3-66.5,32.8-109.7,60.4c-65.4,41.7-149.8,107.7-184.8,187.6
		c-7.7,0.6-15.5,1.1-23.3,1.4c2.1-169.9,80.1-351,153.6-450.6c42.2,11.6,81.2,27.1,115.4,46.2c39.3,22,70.2,47.6,91.6,76
		c12.4,16.4,21.3,33.3,26.7,50.6C893,276.7,867.5,287.1,840.8,299.7z M568.2,292c-32.8,88.3-50.6,177.1-51.6,257.4
		c-10.1,0.4-20.2,0.6-30.4,0.6c-10.6,0-21.1-0.2-31.6-0.6c-0.8-80.6-18.4-169.7-51-258C376.9,219,340.2,148.5,302.4,96.7
		C359.2,81.8,421.6,74,486.2,74c64.6,0,127.1,7.9,183.8,22.8C632.1,148.6,595.2,219.3,568.2,292z M295.9,98.5
		c37.9,51.5,74.9,122.2,101.8,195c32.4,87.5,49.8,175.7,50.6,255.5c-8-0.4-15.9-0.9-23.8-1.5c-35-79.8-119.4-145.8-184.7-187.5
		c-43.2-27.6-83.5-48-109.7-60.4c-26-12.2-50.8-22.4-68.1-28c5.4-17.5,14.4-34.5,26.9-51c21.5-28.4,52.3-53.9,91.6-76
		C214.7,125.6,253.7,110.1,295.9,98.5z M60.3,277.7c55.7,17.6,136.8,62.5,176.2,87.7c63.7,40.6,145.8,104.6,181,181.6
		c-89.4-7.9-171.8-31.3-236.9-67.7c-39.3-22-70.2-47.6-91.6-76c-21.9-29-33-59.7-33-91.3C55.8,300.4,57.3,289,60.3,277.7z"/>
	<path d="M971.3,321.2c0.2-4,0.4-8.1,0.4-12.2c0-42.6-13.2-83.8-39.3-122.4c-24.8-36.8-60.2-69.7-105.2-97.8
		C735.8,31.5,614.6,0,485.8,0c-128.7,0-250,31.5-341.3,88.7c-45,28.2-80.3,61.1-105.2,97.8C13.2,225.2,0,266.4,0,309
		c0,4,0.1,8.1,0.4,12.2l17.5,569.2C6,919.9,0,950.5,0,981.4v76.9c0,49,13.1,96.5,38.9,141.1c24.7,42.8,60,81.1,104.9,114
		c91.5,67,213,103.9,342.1,103.9s250.6-36.9,342.1-103.9c44.9-32.9,80.2-71.2,104.9-114c25.8-44.6,38.9-92.1,38.9-141.1v-76.9
		c0-30.9-6-61.6-17.9-91L971.3,321.2z M946.2,308.8l-1.8,56.4c-42.3,133.2-231.6,233.9-458.2,233.9c-228,0-418.4-102.1-459-236.5
		l-1.7-53.8l-0.4,0c0-37.4,11.8-73.8,35-108.2c22.9-33.8,55.7-64.3,97.7-90.6c87.4-54.8,203.9-84.9,328-84.9
		c124.1,0,240.6,30.2,328,84.9c42,26.3,74.8,56.8,97.7,90.6c23.2,34.4,35,70.8,35,108.2L946.2,308.8z M28.3,399.5
		c4.7,9.6,10.3,19.1,16.6,28.4c24.3,36,59.1,68.3,103.3,96c90.4,56.6,210.4,87.8,338,87.8s247.6-31.2,338-87.8
		c44.2-27.7,79-60,103.3-96c6-8.8,11.2-17.8,15.8-26.8l-16,515.5l0,0.2c0,43.7-11.6,86.1-34.4,126.1
		c-22.1,38.8-53.8,73.6-94.3,103.5c-83.5,61.9-194.6,95.9-312.8,95.9c-118.2,0-229.3-34.1-312.8-95.9c-40.4-30-72.1-64.8-94.3-103.5
		c-22.8-40-34.4-82.4-34.4-126.1v-0.1L28.3,399.5z M32.5,926.7c1.6,42.3,13.6,83.4,35.8,122.2c23,40.2,55.8,76.3,97.5,107.2
		c85.5,63.4,199.2,98.3,320,98.3c120.8,0,234.5-34.9,320-98.3c41.8-31,74.6-67,97.5-107.2c22.1-38.8,34.1-79.8,35.8-122.2
		c4.5,17.8,6.8,35.9,6.8,54.1c0,173.9-206.4,315.4-460.1,315.4c-253.7,0-460.1-141.5-460.1-315.4C25.8,962.5,28.1,944.5,32.5,926.7z
		 M485.8,1392.2c-254,0-460.7-149.8-460.7-333.9v-4c6.2,18.7,14.7,37.1,25.7,54.9c23.9,39.1,58.2,74.1,101.7,104.1
		c89.1,61.5,207.5,95.3,333.3,95.3c125.8,0,244.2-33.9,333.3-95.3c43.6-30,77.8-65.1,101.7-104.1c10.9-17.8,19.5-36.2,25.7-54.9v4
		C946.6,1242.4,739.9,1392.2,485.8,1392.2z"/>
</g>
</svg>
