<?xml version="1.0" encoding="utf-8"?>
<!-- Generator: Adobe Illustrator 21.0.0, SVG Export Plug-In . SVG Version: 6.00 Build 0)  -->
<svg version="1.1" id="Layer_1" xmlns="http://www.w3.org/2000/svg" xmlns:xlink="http://www.w3.org/1999/xlink" x="0px" y="0px"
	 viewBox="0 0 1417.3 1351.6" style="enable-background:new 0 0 1417.3 1351.6;" xml:space="preserve">
<g>
	<path d="M616.5,621.4c-37.3-0.5-69.2,29.6-68.5,68.8c0.7,38.8,33,66.9,67.7,66.1c34.6,0.6,66.8-27.7,67.3-66.4
		C683.5,651.3,652.6,621.9,616.5,621.4z M613.5,642.1c1.4,0,2.6,0,4,0c0,12.7,0,25.3,0,38.1c-1.4,0-2.6,0-4,0
		C613.5,667.4,613.5,654.8,613.5,642.1z M617.2,726.1c-20.1,0.8-37.4-14.5-38.8-34.4c-1.7-23.6,15.9-37.6,30.1-39.7
		c0.3,1.4,0.2,2.7,0.1,4c-21.2,6-28,23.9-25.4,38.5c2.7,15.3,16.2,26.8,31.2,27.3c16.8,0.5,30.4-11.6,33.3-26.2
		c1.8-9,0.4-17.4-4.6-25.1c-4.9-7.5-11.8-12.5-20.8-14.4c0-1,0-1.7,0-2.5c0-0.5-0.1-1.1,0.2-1.5c14.6,0.3,29.8,18.1,30.3,35
		C653.4,707.9,637.5,725.2,617.2,726.1z"/>
	<path d="M515.5,624.1c-4.3-1.6-10.2-3.2-14.3-3.2c-17.1,0-34.3,0-51.4,0c0,44.9,0,89.9,0,134.8c11,0,22,0,33.2,0
		c0-15.2,0-30.3,0-45.6c10.6,0,19.5-0.7,25.2-2.3c14.8-4.2,25.1-13.2,29-28.3c3-11.4,2.7-22.9-0.9-34.1
		C532.8,635,525.9,627.9,515.5,624.1z M483.2,682.9c0-2.6-0.3-34.4-0.1-34.4c9.9,0,21.8-1,21.8,16.9
		C504.9,682.8,491.1,682.9,483.2,682.9z"/>
	<path d="M756.4,624c-4.3-1.6-10.2-3.2-14.3-3.2c-17.1,0-34.3,0-51.4,0c0,44.9,0,89.9,0,134.8c11,0,22,0,33.2,0
		c0-15.2,0-30.3,0-45.6c10.6,0,19.5-0.7,25.2-2.3c14.8-4.2,25.1-13.2,29-28.3c3-11.4,2.7-22.9-0.9-34.1
		C773.8,635,766.8,627.8,756.4,624z M724.1,682.8c0-2.6-0.3-34.4-0.1-34.4c9.9,0,21.8-1,21.8,16.9
		C745.8,682.7,732.1,682.8,724.1,682.8z"/>
	<path d="M788.7,755.7c11,0,22,0,33.2,0c0-15.2,0-30.3,0-45.6c10.6,0,19.5-0.7,25.2-2.3c14.8-4.2,25.1-13.2,29-28.3
		c3-11.4,2.7-22.9-0.9-34.1c-3.3-10.4-10.3-17.6-20.7-21.4c-4.3-1.6-10.2-3.2-14.3-3.2c-17.1,0-34.3,0-51.4,0
		C788.7,665.8,788.7,710.7,788.7,755.7z M822.1,648.5c9.9,0,21.8-1,21.8,16.9c0,17.4-13.7,17.5-21.7,17.5
		C822.2,680.2,821.9,648.5,822.1,648.5z"/>
	<path d="M664,142.7c-300.5,0-544.9,244.4-544.9,544.9s244.4,544.9,544.9,544.9s544.9-244.4,544.9-544.9S964.5,142.7,664,142.7z
		 M664,1220.4c-293.8,0-532.8-239-532.8-532.8s239-532.8,532.8-532.8s532.8,239,532.8,532.8S957.8,1220.4,664,1220.4z"/>
	<path d="M660,437.5c-138.4,0-251,112.6-251,251s112.6,251,251,251s251-112.6,251-251S798.4,437.5,660,437.5z M660,933.6
		c-135.1,0-245-109.9-245-245s109.9-245,245-245s245,109.9,245,245S795.1,933.6,660,933.6z"/>
	<circle cx="660" cy="292.6" r="13.2"/>
	<path d="M660,319.6c14.9,0,27-12.1,27-27c0-14.9-12.1-27-27-27c-14.9,0-27,12.1-27,27C632.9,307.5,645.1,319.6,660,319.6z
		 M660,271.6c11.6,0,21,9.4,21,21c0,11.6-9.4,21-21,21c-11.6,0-21-9.4-21-21C639,281,648.4,271.6,660,271.6z"/>
	<path d="M1407.4,1166.6c-11.1-22-30-38.3-53.4-46.1c-23.4-7.7-48.3-5.9-70.3,5.2c-22,11.1-38.3,30-46.1,53.4
		c-5.3,16.1-6.1,32.9-2.5,49c-1.5,0.3-3.1,0.8-4.5,1.7l-31.1,18.4c-6.3,3.7-8.8,11.6-5.6,17.9l2.7,5.3
		c-31.4,56.4-102.4,34.1-165.1,14.3c-18-5.7-35.1-11.1-50.4-14.3c53.9-29.4,104-66.5,148.9-110.7c2,0.5,4.1,0.8,6.2,0.8
		c34.4,0,87.5-59.1,124.8-121.9c40.3-67.7,67.6-149.2,43-173.8c15.8-57.3,24-117.1,24-178.1c0-177.4-69.1-344.1-194.5-469.5
		C1048.3,132.8,943.9,73.6,830,44.4C809.8,16.4,734.6,0.9,663.9,0c-75.5-1-156.1,14.7-170.6,45.6c-112,29.6-214.7,88.3-298.9,172.4
		C69.1,343.5,0,510.2,0,687.6c0,59.9,7.9,118.6,23.2,174.9c-24.5,24.9,1,106.4,39.1,174.4c36.1,64.4,88.3,125.1,122.4,125.1
		c4,0,7.8-0.9,11.3-2.7l0.4-0.2c125.2,124.2,291.1,192.6,467.6,192.6c107.6,0,211.2-25.5,304.2-73.4c17.2,2.4,38.2,9.1,60.6,16.1
		c32.5,10.3,69.1,21.8,101.7,21.8c28.6,0,54-8.9,71-35.3c2.5,3.7,6.8,5.9,11.3,5.9c1.9,0,3.9-0.4,5.8-1.2l33.1-14.4
		c1.4-0.6,2.7-1.5,3.9-2.6c10.7,12.4,24.7,21.8,40.7,27c9.5,3.1,19.3,4.7,29,4.7c14.2,0,28.3-3.3,41.3-9.9
		c22-11.1,38.3-30,46.1-53.4C1420.3,1213.5,1418.5,1188.6,1407.4,1166.6z M1250.6,1033.3c-38.4,64.5-79.6,104.7-104.5,113.9
		c60-63.7,106.8-138.8,137.6-220.2c0.1-0.3,0.3-0.7,0.4-1c1.3-3.4,2.6-6.8,3.8-10.3c4.2-11.4,8-22.9,11.6-34.5
		C1307,904.5,1291.4,964.7,1250.6,1033.3z M656.8,12.1c2.3,0,4.6,0,7,0c63.8,0.8,113.4,12.2,139.4,26
		c-45.2-9.6-91.8-14.6-139.2-14.6c-51.3,0-101.7,5.8-150.5,17.1C535.1,25.2,588,12.1,656.8,12.1z M72.8,1030.9
		c-36.7-65.5-50.9-121.3-46.5-147.4c29.9,99.5,82.9,190.9,154.2,265.9C156.7,1144.7,112.1,1101,72.8,1030.9z M664,1324.4
		c-351.2,0-636.8-285.7-636.8-636.8C27.2,336.4,312.9,50.7,664,50.7c351.2,0,636.8,285.7,636.8,636.8
		C1300.9,1038.7,1015.2,1324.4,664,1324.4z M1248.1,1262.7l-33.1,14.4c-2.4,1.1-5.1,0.3-6.2-1.8l-6.7-13.4c-1-2-0.1-4.7,2.2-6
		l31.1-18.4c0.7-0.4,1.5-0.7,2.3-0.7c0.7,2.1,1.5,4.1,2.3,6.1c0.1,0.2,0.2,0.5,0.3,0.7c0.8,2,1.7,3.9,2.7,5.8c1,1.9,2,3.8,3.1,5.7
		c0.1,0.2,0.3,0.5,0.4,0.7c1.1,1.9,2.3,3.8,3.6,5.6C1249.5,1261.9,1248.8,1262.4,1248.1,1262.7z M1404,1234.1
		c-7,21.1-21.7,38.2-41.5,48.1c-19.8,10-42.3,11.6-63.4,4.7c-15.6-5.2-29-14.6-38.9-27.1l-1.2-1.5c-2.3-3-4.4-6.2-6.2-9.5
		c-0.6-1.1-1.2-2.2-1.8-3.4c-2.2-4.4-4-9.1-5.5-13.9l-0.6-1.9c-4.2-15.5-3.8-31.9,1.4-47.6c7-21.1,21.7-38.2,41.5-48.1
		c11.9-6,24.7-8.9,37.2-8.9c30.4,0,59.8,16.8,74.3,45.7C1409.3,1190.5,1411,1213,1404,1234.1z"/>
	<ellipse transform="matrix(0.8933 -0.4495 0.4495 0.8933 -379.713 750.531)" cx="1390.8" cy="1175" rx="8.2" ry="8.2"/>
	<path d="M1360.8,1175.8c-6.3,3.2-8.8,10.8-5.7,17.1c2.2,4.4,6.7,7,11.4,7c1.9,0,3.9-0.4,5.7-1.4c3-1.5,5.3-4.2,6.4-7.4
		c1.1-3.2,0.8-6.7-0.7-9.7C1374.8,1175.2,1367.1,1172.6,1360.8,1175.8z"/>
	<path d="M1293.4,1171.9c-5.9-3.9-13.8-2.2-17.6,3.7c-3.9,5.9-2.2,13.8,3.7,17.6c2.2,1.4,4.6,2.1,7,2.1c4.2,0,8.2-2,10.7-5.7
		C1300.9,1183.7,1299.3,1175.8,1293.4,1171.9z"/>
	<path d="M1323.2,1241.6c-3.4-0.2-6.7,0.9-9.2,3.2c-2.5,2.3-4,5.4-4.2,8.8c-0.4,7,5,13,12,13.4c0.2,0,0.5,0,0.7,0
		c6.7,0,12.3-5.2,12.7-12c0.2-3.4-0.9-6.7-3.2-9.2C1329.7,1243.3,1326.6,1241.8,1323.2,1241.6z"/>
	<ellipse transform="matrix(0.8933 -0.4495 0.4495 0.8933 -414.5793 737.8665)" cx="1346.7" cy="1242.1" rx="8.2" ry="8.2"/>
	<ellipse transform="matrix(0.8933 -0.4495 0.4495 0.8933 -386.1924 713.9913)" cx="1310.6" cy="1170.4" rx="8.2" ry="8.2"/>
</g>
</svg>
