<?xml version="1.0" encoding="UTF-8"?>
<svg width="533px" height="960px" viewBox="0 0 533 960" version="1.1" xmlns="http://www.w3.org/2000/svg" xmlns:xlink="http://www.w3.org/1999/xlink">
    <!-- Generator: Sketch 55.2 (78181) - https://sketchapp.com -->
    <title>sensor mold</title>
    <desc>Created with Sketch.</desc>
    <g id="sensor-mold" stroke="none" stroke-width="1" fill="none" fill-rule="evenodd">
        <path d="M96.0912864,904.413915 C98.1511334,903.275819 100.686137,902.604555 103.427378,902.604555 C110.326093,902.604555 115.918607,906.855987 115.918607,912.100395 C115.918607,914.326098 114.911331,916.372955 113.224417,917.991894 C117.809915,921.64671 121.962951,924.996198 125.403168,927.868073 C134.166318,933.741557 144.045741,938.37301 154.879449,941.540506 C165.577009,944.668281 177.22066,946.397668 189.660388,946.531184 C208.679885,946.716687 227.81788,943.141907 246.162949,936.513746 C265.308507,929.596829 283.584872,919.351016 299.964646,906.586464 C316.28391,893.869197 330.713515,878.60419 342.201481,861.612317 C353.194655,845.352424 361.457973,827.557329 366.05984,808.958382 L380.051382,752.409385 C400.864101,668.291705 421.57534,584.583832 442.157367,501.534173 C454.675253,451.021323 467.158472,400.644025 479.594418,350.433802 C492.030364,300.223579 504.420928,250.179801 516.753504,200.334622 C521.112703,182.712907 521.583542,165.96755 518.71943,150.737849 C515.760771,135.006922 509.236469,120.869831 499.766115,109.049727 C487.057877,93.1876619 468.335884,74.7110262 446.980472,58.1642677 C452.09919,67.2493806 455.693198,76.9107457 457.886664,86.8968043 L457.888555,86.905631 C459.149798,92.6126707 459.974239,98.5183094 460.336665,104.592915 C461.048912,116.527765 459.97613,129.113893 456.924817,142.123069 L456.886368,142.286361 L456.740137,142.899811 L456.695385,143.085801 C456.632985,143.343664 456.569954,143.601527 456.506293,143.860021 L455.928302,146.196554 L455.350311,148.533716 L455.137898,149.39242 C443.257252,197.407337 431.32366,245.606351 419.347837,293.959201 C406.911891,344.169424 394.428672,394.546722 381.910786,445.059572 C361.32939,528.109232 340.61752,611.817735 319.804802,695.934785 L305.813259,752.483781 C300.931536,772.211905 292.212507,791.019539 280.635669,808.14318 C268.618246,825.9181 253.500346,841.904368 236.383744,855.243281 C219.239409,868.60363 200.079354,879.33806 179.980142,886.599846 C160.625952,893.592419 140.397528,897.363908 120.253564,897.159634 C113.864148,897.094696 107.692817,896.639494 101.757852,895.817988 C95.6728736,894.975677 89.8091328,893.751298 84.186169,892.170703 L83.6857057,892.028847 L83.6132205,892.008041 L83.6006143,892.004258 L83.0415325,891.842857 L83.0194718,891.836553 C82.6873003,891.73946 82.3557591,891.641106 82.0248482,891.542122 L81.9025688,891.505554 L81.8590776,891.492314 L81.3642871,891.341631 L81.3359233,891.332805 L80.8707571,891.189057 L80.7711687,891.158164 L80.7068775,891.137989 L80.2146081,890.982892 L80.2076748,890.981001 L80.1963292,890.977218 L79.6719143,890.809512 L79.646702,890.801316 L79.5609803,890.773575 L79.0951839,890.622262 L79.0863596,890.61911 L79.0718625,890.614066 L78.7485153,890.506885 C84.5525761,895.237623 90.4141828,899.912474 96.0912864,904.413915 Z M29.3406843,702.215555 L28.762063,704.46256 L17.5564751,747.986619 L16.8366651,750.782766 C12.0936092,769.207703 11.3258959,786.840766 13.9952437,802.95502 C16.737707,819.514388 23.1403598,834.472985 32.6050414,847.022546 C39.1041311,855.639218 49.7405523,865.845942 61.8531512,876.35151 C63.0400182,877.009724 64.2445338,877.647132 65.4648071,878.264365 C68.2362645,879.664645 71.0965951,880.959005 74.0407565,882.141772 L74.0842477,882.159426 L74.3836432,882.279215 L74.7013177,882.40531 L74.9937799,882.520056 L75.0523984,882.542753 C75.567989,882.744504 76.0867312,882.942473 76.6073644,883.136658 L76.6319463,883.146116 L76.9414268,883.261492 L77.2641437,883.380021 C77.4790782,883.45883 77.6952733,883.537009 77.9108381,883.615187 L78.2354459,883.731194 L78.5411445,883.839636 L78.632539,883.87179 C78.8172187,883.937359 79.0025288,884.001667 79.1884692,884.065975 L79.2313301,884.080476 L79.5401802,884.187026 L79.8679396,884.29862 L79.8881094,884.305555 L80.1055651,884.37932 L80.3230208,884.452455 L80.5253492,884.519916 L80.8549995,884.628988 L80.9205513,884.650424 L81.1077524,884.71221 L81.4645058,884.828217 L81.7475134,884.919636 L81.9221083,884.975117 L82.1792733,885.057079 L82.5120751,885.162368 L82.5511541,885.174347 L82.7534825,885.237394 L83.021993,885.319986 L83.170115,885.36601 L83.1801999,885.369163 L83.2886126,885.401947 L83.6321296,885.506606 L83.7663849,885.546956 L84.1855387,885.67242 L84.2466784,885.690704 L84.3330304,885.715923 L84.7755055,885.8458 L84.7906329,885.850213 L85.2841628,885.9927 L85.3919452,886.023593 L85.872869,886.159776 C91.2355163,887.667236 96.8225526,888.834241 102.613808,889.635572 C108.339512,890.428076 114.242332,890.866885 120.303358,890.928041 C139.697888,891.124749 159.199569,887.484399 177.880591,880.735188 C197.343824,873.703525 215.915173,863.294419 232.54959,850.331268 C249.134844,837.407206 263.79325,821.901358 275.458331,804.64847 C275.627884,804.397542 275.797436,804.145983 275.965728,803.894424 L275.980855,803.871727 C276.144105,803.627734 276.306724,803.383111 276.468713,803.137857 L276.469343,803.136596 L276.785126,802.657437 L276.988085,802.349136 L277.18411,802.0484 L277.506827,801.552848 L277.660622,801.313899 L277.989642,800.802586 L278.222225,800.438172 L278.492627,800.013864 L278.720798,799.651973 L278.969138,799.257297 L279.225673,798.845598 L279.465189,798.46101 L279.69336,798.091553 L279.944222,797.684267 L280.184999,797.289591 L280.420734,796.901851 L280.674117,796.481956 L280.889682,796.123217 L281.148108,795.690082 L281.356109,795.340169 L281.601298,794.924688 L281.837663,794.522446 L282.055749,794.147945 L282.300308,793.72679 L282.521545,793.342832 L282.740892,792.960765 L283.008142,792.491693 L283.177064,792.19348 L283.451247,791.706755 L283.648533,791.35432 L283.86725,790.961536 L284.106766,790.529032 L284.323592,790.134356 L284.527811,789.760485 L284.764176,789.326089 L284.967765,788.949067 L285.20413,788.508366 L285.382506,788.172955 L285.629586,787.707035 L285.831915,787.322447 L286.04748,786.910118 L286.238463,786.541922 L286.482391,786.070328 L286.658877,785.725459 L286.879484,785.293585 L287.104504,784.849102 L287.289814,784.480906 L287.511051,784.037684 L287.702034,783.653726 L287.869696,783.31264 L288.1256,782.790608 L288.216994,782.602097 C288.315953,782.398454 288.414911,782.195442 288.512608,781.991169 L288.656318,781.690433 L288.899616,781.181642 L289.038284,780.887842 L289.299861,780.333026 L289.343982,780.239085 C289.454286,780.003288 289.563959,779.767491 289.673002,779.531064 L289.770069,779.319225 L290.054968,778.697579 C290.177878,778.428367 290.299527,778.158525 290.421176,777.888682 L290.424958,777.879856 C290.547868,777.606861 290.668886,777.333866 290.789905,777.060241 C291.010513,776.561537 291.228599,776.062203 291.444163,775.561607 L291.511606,775.40525 C291.614976,775.16441 291.717716,774.922938 291.820456,774.682098 L291.862057,774.585005 L292.073209,774.082518 L292.231416,773.704865 L292.40286,773.290014 L292.569891,772.885881 L292.784195,772.360697 L292.906474,772.059962 C292.980851,771.875863 293.053966,771.691765 293.127712,771.508298 L293.244319,771.21765 L293.444126,770.712011 L293.584054,770.355163 L293.785122,769.836914 L293.899207,769.541853 L294.098384,769.021083 L294.236421,768.6573 L294.424252,768.157335 L294.539598,767.849034 L294.733733,767.323219 L294.864206,766.967633 L295.044474,766.47019 L295.163602,766.141083 L295.358366,765.595093 L295.462997,765.299402 L295.658392,764.741433 L295.759241,764.452046 L295.956527,763.878316 L296.051073,763.600278 L296.237644,763.048614 L296.349838,762.712572 L296.515609,762.212607 L296.631585,761.859542 L296.80618,761.32364 L296.897575,761.039297 L297.086667,760.446022 L297.169237,760.185006 L297.345723,759.621994 L297.454766,759.26956 L297.60856,758.768334 L297.716973,758.410856 L297.872028,757.895129 L297.968465,757.569175 L298.129194,757.021924 L298.223739,756.695339 L298.374383,756.172047 L298.469559,755.836005 L298.625875,755.279928 L298.695839,755.028369 L298.865391,754.411137 L298.929052,754.174079 L299.099865,753.539823 L299.152181,753.341855 C299.21269,753.114884 299.272569,752.887284 299.331188,752.659683 L299.334339,752.646443 C276.50464,729.033346 248.466719,712.164416 218.897153,700.917411 C183.770805,687.557062 146.508349,682.123017 113.228169,682.735206 C95.7718317,683.056117 79.4002522,685.050303 65.0046834,688.441616 C50.840437,691.782491 38.6635469,696.46123 29.3406843,702.215555 Z M204.302407,83.5162092 C203.392875,84.645386 202.497209,85.7840199 201.616041,86.9327413 L201.012838,87.912496 L201.019771,87.9169093 C195.694312,96.6237386 190.571181,106.137573 185.6529,116.455891 C180.740292,126.76223 176.098085,137.725521 171.72817,149.343874 L112.528528,379.168861 L95.7390558,444.387488 C83.2444912,492.921915 70.6969809,541.639178 58.10724,590.519103 L42.5386709,650.966943 L31.5032657,693.82081 C40.5015205,689.113069 51.3673732,685.240705 63.5902757,682.360706 C78.3514223,678.882387 95.1705194,676.837764 113.132992,676.507396 C147.141807,675.881967 185.214837,681.432019 221.098183,695.080494 C250.317929,706.194469 278.102467,722.675028 301.102349,745.556146 L313.748817,694.444978 C334.561536,610.327297 355.272776,526.619424 375.854802,443.569765 C388.372688,393.056915 400.855907,342.679617 413.291853,292.469394 C425.589762,242.81714 437.842919,193.327547 450.039979,144.03214 C436.028897,129.494068 420.569371,117.253439 404.31755,107.165874 C386.287634,95.9743516 367.268137,87.4175749 348.155355,81.2982059 C319.675589,72.1803084 291.008622,68.4844768 265.115003,69.5537587 C241.832113,70.5152297 220.836606,75.3301504 204.302407,83.5162092 Z M213.656155,72.7628652 C228.625933,67.3262983 246.052645,64.100169 264.869183,63.3227961 C291.451727,62.2245125 320.862456,66.0130235 350.058881,75.3604131 C369.626114,81.6254213 389.108256,90.391515 407.58884,101.862968 C423.19964,111.552704 438.087478,123.164752 451.700837,136.81764 C454.808878,121.550741 455.199038,106.081461 452.421277,91.3126358 C452.288913,90.6102891 452.149615,89.9092033 452.002754,89.2093785 L451.93468,88.8884679 L451.91262,88.7850704 C450.559352,82.502409 448.647632,76.4769805 446.21654,70.7548094 C444.493283,66.6996084 442.514751,62.8051779 440.296702,59.0891713 C438.555796,56.1726041 436.660464,53.3543907 434.617641,50.6420968 L434.406489,50.3627973 L434.220548,50.1181739 C434.102051,49.9624471 433.982292,49.8073508 433.862534,49.6528849 L433.783116,49.5507483 C433.646339,49.374216 433.508932,49.1989445 433.370895,49.0230426 L433.343792,48.9889971 L433.331186,48.9738657 C433.17613,48.7771582 433.019814,48.5804507 432.862868,48.3843737 C432.499181,47.9304333 432.130452,47.4796452 431.757941,47.0320095 C427.679858,44.2264056 423.541266,41.5185249 419.361074,38.9379998 C394.171507,23.3880188 367.629303,12.5092107 344.44159,12.5092107 C325.940835,12.5092107 307.390286,16.0707515 289.658505,22.4826599 C271.029168,29.2186312 253.271545,39.0949875 237.38215,51.2952666 C230.586186,56.5130594 224.134369,62.1583128 218.108009,68.1711319 C216.598425,69.6779618 215.114053,71.2087498 213.656155,72.7628652 Z M509.487962,101.230603 C520.238468,114.648956 527.637005,130.658551 530.981411,148.441037 C534.16761,165.384363 533.667777,183.91648 528.868624,203.315497 C516.536048,253.160676 504.145484,303.204454 491.709538,353.414677 C479.273592,403.6249 466.790373,454.002198 454.272487,504.515048 C433.691091,587.564708 412.979221,671.273211 392.166502,755.390261 L378.17496,811.939257 C373.199951,832.043774 364.329649,851.188711 352.557415,868.600478 C340.364137,886.635782 325.016175,902.862891 307.633584,916.408599 C290.233975,929.967547 270.779567,940.865269 250.363311,948.241801 C230.672538,955.356056 210.081056,959.193114 189.56143,958.992514 C175.929793,958.846354 163.157263,956.946739 151.409612,953.512554 C139.143848,949.926424 128.008855,944.696653 118.186159,938.074166 L117.949794,937.915287 L117.67309,937.683273 C110.846871,931.97119 103.065738,925.816514 94.6259346,919.140438 C68.7442915,898.667095 36.9346163,873.504295 22.6380056,854.5485 C11.9757418,840.412039 4.76692708,823.578415 1.68346797,804.958662 C-1.25376005,787.224724 -0.422385854,767.8711 4.768818,747.704167 L5.48862795,744.90802 L16.6942159,701.384592 L30.4701935,647.889606 L46.0387626,587.441765 C58.6278731,538.56184 71.1760138,489.843946 83.6705783,441.310151 L100.460051,376.091523 L159.774408,145.821422 L159.888494,145.377569 L159.969803,145.161317 C164.54898,132.969234 169.347503,121.608745 174.366003,111.08111 C179.408454,100.502407 184.742737,90.6147024 190.368222,81.4179957 L190.392804,81.3934073 L191.223548,80.0441955 L191.43218,79.7056316 L191.565805,79.5316211 C196.982028,72.4570859 202.925818,65.7009395 209.314604,59.3281204 C215.739948,52.9181035 222.600203,46.9134806 229.810278,41.377299 C246.673497,28.4299097 265.558108,17.9344291 285.408349,10.7564963 C304.530586,3.84084026 324.520755,5.68434189e-14 344.44222,5.68434189e-14 C370.127838,5.68434189e-14 398.902587,11.6637467 425.908067,28.3347083 C459.62568,49.1491372 490.798115,77.9024794 509.487962,101.230603 Z M157.889137,921.596234 C149.058782,921.596234 141.900364,916.449764 141.900364,910.101271 C141.900364,903.752777 149.058782,898.606307 157.889137,898.606307 C166.719493,898.606307 173.877911,903.752777 173.877911,910.101271 C173.877911,916.449764 166.719493,921.596234 157.889137,921.596234 Z M220.345283,900.605431 C211.790876,900.605431 204.856159,895.68272 204.856159,889.610248 C204.856159,883.537776 211.790876,878.615065 220.345283,878.615065 C228.899691,878.615065 235.834408,883.537776 235.834408,889.610248 C235.834408,895.68272 228.899691,900.605431 220.345283,900.605431 Z" id="Combined-Shape" fill="#000000" fill-rule="nonzero"></path>
    </g>
</svg>