<?xml version="1.0" encoding="utf-8"?>
<!-- Generator: Adobe Illustrator 21.0.0, SVG Export Plug-In . SVG Version: 6.00 Build 0)  -->
<svg version="1.1" id="Layer_1" xmlns="http://www.w3.org/2000/svg" xmlns:xlink="http://www.w3.org/1999/xlink" x="0px" y="0px"
	 viewBox="0 0 931.6 1412.6" style="enable-background:new 0 0 931.6 1412.6;" xml:space="preserve">
<g>
	<polygon points="498.6,309.6 499.9,328.5 664.7,331.8 663.4,313.5 	"/>
	<polygon points="495,256.5 659.6,261.6 658.3,243.2 493.8,237.6 	"/>
	<polygon points="498.3,304.5 663,308.4 661.7,290 497,285.6 	"/>
	<polygon points="493.4,232.5 657.9,238.1 656.5,219.7 492.1,213.5 	"/>
	<polygon points="496.6,280.5 661.3,285 660,266.6 495.4,261.6 	"/>
	<polygon points="506.3,424.2 671.6,425.2 670.2,406.9 505,405.3 	"/>
	<polygon points="501.5,352.4 666.4,355.2 665.1,336.8 500.2,333.5 	"/>
	<polygon points="487.1,213.3 303.5,206.4 304.9,226.1 488.3,232.3 	"/>
	<polygon points="503.1,376.4 668.2,378.5 666.8,360.2 501.8,357.5 	"/>
	<polygon points="651,144.2 649.7,125.7 485.7,117.2 486.9,136.3 	"/>
	<polygon points="480.6,117 296.8,107.5 298.1,127.2 481.9,136 	"/>
	<polygon points="491.8,208.5 656.2,214.7 654.8,196.2 490.5,189.5 	"/>
	<polygon points="483.8,165.2 300.2,157 301.5,176.6 485.1,184.2 	"/>
	<polygon points="485.4,189.3 301.9,181.7 303.2,201.4 486.7,208.3 	"/>
	<polygon points="482.2,141.1 298.5,132.2 299.8,151.9 483.5,160.1 	"/>
	<polygon points="490.2,184.4 654.5,191.2 653.1,172.7 488.9,165.4 	"/>
	<polygon points="507.9,448.1 673.3,448.5 671.9,430.3 506.7,429.2 	"/>
	<polygon points="488.6,160.3 652.7,167.7 651.4,149.2 487.3,141.3 	"/>
	<polygon points="504.7,400.3 669.9,401.9 668.5,383.6 503.4,381.4 	"/>
	<polygon points="509.5,472 675,471.9 673.6,453.6 508.3,453.1 	"/>
	<polygon points="527.2,734.2 693.7,727.6 692.3,709.5 525.9,715.4 	"/>
	<polygon points="528.8,758 695.4,750.8 694,732.7 527.5,739.2 	"/>
	<polygon points="524,686.6 690.3,681.2 689,663 522.7,667.8 	"/>
	<polygon points="525.6,710.4 692,704.4 690.7,686.2 524.3,691.6 	"/>
	<polygon points="536.8,876.9 703.9,866.8 702.5,848.7 535.5,858.1 	"/>
	<polygon points="532,805.5 698.8,797.2 697.4,779.1 530.7,786.8 	"/>
	<polygon points="535.2,853.1 702.2,843.6 700.8,825.5 533.9,834.4 	"/>
	<polygon points="533.6,829.3 700.5,820.4 699.1,802.3 532.3,810.6 	"/>
	<polygon points="530.4,781.7 697.1,774 695.7,755.9 529.1,763 	"/>
	<polygon points="515.9,567.4 681.8,565 680.5,546.8 514.7,548.6 	"/>
	<polygon points="514.3,543.6 680.1,541.7 678.8,523.5 513.1,524.8 	"/>
	<polygon points="512.7,519.7 678.4,518.4 677.1,500.2 511.5,500.9 	"/>
	<polygon points="511.1,495.9 676.7,495.2 675.3,476.9 509.9,477 	"/>
	<polygon points="522.4,662.7 688.6,658 687.3,639.8 521.1,644 	"/>
	<polygon points="520.8,638.9 686.9,634.7 685.6,616.5 519.5,620.1 	"/>
	<polygon points="517.6,591.3 683.5,588.2 682.2,570 516.3,572.5 	"/>
	<polygon points="519.2,615.1 685.2,611.5 683.9,593.3 517.9,596.3 	"/>
	<polygon points="498.4,381.3 315.3,378.9 316.6,398.5 499.6,400.2 	"/>
	<polygon points="527.3,810.8 345.3,819.9 346.6,839.3 528.5,829.6 	"/>
	<polygon points="525.7,787 343.6,795.4 345,814.8 526.9,805.8 	"/>
	<polygon points="528.9,834.6 347,844.3 348.3,863.7 530.1,853.4 	"/>
	<polygon points="530.5,858.4 348.6,868.7 350,888.1 531.7,877.2 	"/>
	<polygon points="532.1,882.2 350.3,893.2 351.6,912.5 533.3,901 	"/>
	<polygon points="520.9,715.6 338.7,722.1 340,741.5 522.1,734.4 	"/>
	<polygon points="524.1,763.2 342,771 343.3,790.4 525.3,782 	"/>
	<polygon points="519.2,691.8 337,697.6 338.3,717 520.5,710.5 	"/>
	<polygon points="522.5,739.4 340.3,746.5 341.6,765.9 523.7,758.2 	"/>
	<polygon points="533.7,906 352,917.6 353.3,937 534.9,924.8 	"/>
	<polygon points="540,924.4 707.2,913.2 705.9,895 538.7,905.7 	"/>
	<polygon points="543.2,972 710.6,959.6 709.3,941.4 541.9,953.2 	"/>
	<path d="M794.9,119.7L100.1,82.5c-8.7-0.5-15.8,6.7-15.4,15.3l53.4,909.7c0.4,8.3,7.5,14.6,15.8,13.9l698.4-56.6
		c8-0.6,14-7.6,13.4-15.6l-57-816C808.2,125.9,802.2,120.1,794.9,119.7z M809.9,271.2L665,266.8l1.3,18.3l144.8,3.9l0.4,5.1
		l-144.7-3.9l1.3,18.3l144.6,3.4l0.4,5.1l-144.6-3.4l1.3,18.3l144.5,2.9l0.4,5.1L670.2,337l1.3,18.3l144.4,2.4l0.4,5.1l-144.4-2.4
		l1.3,18.3l144.3,1.9l0.4,5.1l-144.3-1.9l1.3,18.3l144.2,1.4l0.4,5.1L675.3,407l1.3,18.3l144.1,0.9l0.4,5.1L677,430.3l1.3,18.3
		l144,0.4l0.4,5.1l-144-0.4l1.3,18.2l143.9-0.1l0.4,5l-143.8,0.1l1.3,18.2l143.8-0.6l0.4,5l-143.7,0.6l1.3,18.2l143.6-1.1l0.4,5
		l-143.6,1.1l1.3,18.2l143.5-1.6l0.4,5l-143.5,1.6l1.3,18.2l143.4-2.1l0.4,5L687.2,570l1.3,18.2l143.3-2.6l0.4,5l-143.3,2.6
		l1.3,18.2l143.2-3.1l0.4,5l-143.2,3.1l1.3,18.2L835,631l0.4,5l-143.1,3.6l1.3,18.2l143-4.1l0.4,5l-143,4.1l1.3,18.2l142.9-4.6
		l0.4,5l-142.9,4.6l1.3,18.2l142.8-5.1l0.4,5l-142.7,5.1l1.3,18.2l142.6-5.6l0.4,5l-142.6,5.6l1.3,18.2l142.5-6.1l0.4,5l-142.5,6.1
		l1.3,18.1l142.4-6.6l0.4,5l-142.4,6.6l1.3,18.1l142.3-7.1l0.4,5L704.2,802l1.3,18.1l142.2-7.6l0.4,5l-142.2,7.6l1.3,18.1l142.1-8.1
		l0.4,5l-142.1,8.1l1.3,18.1l142-8.5l0.4,5l-142,8.5l1.3,18.1l141.9-9l0.4,5l-141.9,9l1.3,18.1l141.8-9.5l0.4,5l-141.8,9.5L714,936
		l141.7-10l0.4,5l-141.6,10l1.3,18.1l141.5-10.5l0.1,1.1c0.1,1.5-0.4,2.9-1.2,4L716,964.2l0.2,3.2l-5,0.4l-0.2-3.2L543.5,977
		l0.3,4.4l-5,0.4l-0.3-4.4L357,990.9l0.4,5.6l-5,0.4l-0.4-5.7l-205.5,15.2l-0.3-5l205.4-15.2l-1.3-19.4L145,981.3l-0.3-5l205.2-14.5
		l-1.3-19.4l-205.1,13.8l-0.3-5l205.1-13.8l-1.3-19.4L142,931l-0.3-5l204.9-13l-1.3-19.4l-204.7,12.3l-0.3-5l204.7-12.3l-1.3-19.4
		l-204.5,11.6l-0.3-5L343.3,864l-1.3-19.4l-204.3,10.9l-0.3-5l204.3-10.9l-1.3-19.4l-204.2,10.1l-0.3-5l204.1-10.1l-1.3-19.4
		l-204,9.4l-0.3-5l203.9-9.4l-1.3-19.4l-203.8,8.7l-0.3-5l203.7-8.7l-1.3-19.4l-203.6,8l-0.3-5l203.5-8l-1.3-19.4l-203.4,7.3l-0.3-5
		l203.4-7.3l-1.3-19.4l-203.2,6.5l-0.3-5l203.2-6.5l-1.3-19.4l-203,5.8l-0.3-5l203-5.8l-1.3-19.4l-202.8,5.1l-0.3-5l202.8-5.1
		l-1.3-19.5l-202.6,4.4l-0.3-5l202.6-4.4l-1.3-19.5l-202.5,3.7l-0.3-5l202.4-3.7l-1.3-19.5l-202.3,3l-0.3-5l202.2-3l-1.3-19.5
		l-202.1,2.3l-0.3-5l202-2.3l-1.3-19.5l-201.9,1.6l-0.3-5l201.8-1.6l-1.3-19.5l-201.7,0.9l-0.3-5l201.6-0.9l-1.3-19.5l-201.5,0.2
		l-0.3-5l201.5-0.2l-1.3-19.5l-201.3-0.5l-0.3-5.1l201.3,0.5l-1.3-19.5l-201.1-1.3l-0.3-5.1l201.1,1.2l-1.3-19.5l-200.9-2l-0.3-5.1
		l200.9,1.9l-1.3-19.5l-200.7-2.6l-0.3-5.1l200.7,2.6l-1.3-19.6L108,350.9l-0.3-5.1l200.5,3.3l-1.3-19.6l-200.4-4l-0.3-5.1l200.3,4
		l-1.3-19.6L105,300.2l-0.3-5.1l200.1,4.7l-1.3-19.6l-200-5.4l-0.3-5.1l199.9,5.4l-1.3-19.6l-199.8-6.1l-0.3-5.1l199.7,6.1
		l-1.3-19.6l-199.6-6.8l-0.3-5.1l199.5,6.8l-1.3-19.6l-199.4-7.5l-0.3-5.1l199.3,7.5l-1.3-19.7l-199.2-8.2l-0.3-5.1l199.1,8.2
		l-1.3-19.7L97,147.9l0.2-5l197.6,8.8l-1.3-19.7l-195.3-9.4l0.2-5l194.7,9.4l-1.3-19.7L99.4,97.3l0.3-5l191.7,9.9l-0.1-1l5.1,0.3
		l0.1,1l183.8,9.5l0-0.6l5.1,0.3l0,0.6l164,8.5l0-0.3l5.1,0.3l0,0.3l140.5,7.3c2.8,0.3,5,2.5,5.4,5.3L654.8,126l1.3,18.4l145.4,7
		l0.4,5.1l-145.4-7l1.3,18.4l145.3,6.5l0.4,5.1L658.2,173l1.3,18.4l145.2,6l0.4,5.1l-145.2-6l1.3,18.4l145.1,5.5l0.4,5.1l-145.1-5.5
		l1.3,18.4l145,5l0.4,5.1l-145-5l1.3,18.4l144.9,4.4L809.9,271.2z"/>
	<polygon points="541.6,948.2 708.9,936.4 707.6,918.2 540.3,929.5 	"/>
	<polygon points="535.3,929.8 353.6,942 354.9,961.4 536.5,948.6 	"/>
	<polygon points="355.3,966.4 356.6,985.8 538.1,972.4 536.9,953.6 	"/>
	<polygon points="538.4,900.7 705.6,890 704.2,871.9 537.1,881.9 	"/>
	<polygon points="512.8,596.4 330.3,599.7 331.6,619.2 514.1,615.2 	"/>
	<polygon points="503.2,453.1 320.3,452.6 321.6,472.1 504.5,472 	"/>
	<polygon points="496.8,357.4 313.6,354.3 314.9,373.9 498,376.3 	"/>
	<polygon points="501.6,429.2 318.6,428.1 320,447.6 502.9,448.1 	"/>
	<polygon points="495.1,333.4 311.9,329.7 313.3,349.3 496.4,352.3 	"/>
	<polygon points="500,405.3 317,403.5 318.3,423 501.2,424.2 	"/>
	<polygon points="493.5,309.4 310.3,305.1 311.6,324.7 494.8,328.4 	"/>
	<polygon points="490.3,261.4 306.9,255.8 308.2,275.4 491.6,280.4 	"/>
	<polygon points="491.9,285.4 308.6,280.5 309.9,300 493.2,304.4 	"/>
	<polygon points="504.8,477 322,477.2 323.3,496.7 506.1,495.9 	"/>
	<polygon points="517.6,667.9 335.3,673.2 336.6,692.6 518.9,686.7 	"/>
	<polygon points="488.7,237.4 305.2,231.1 306.6,250.7 490,256.4 	"/>
	<polygon points="511.2,572.6 328.7,575.2 330,594.7 512.5,591.4 	"/>
	<polygon points="516,644.1 333.7,648.7 335,668.1 517.3,662.9 	"/>
	<polygon points="514.4,620.3 332,624.2 333.3,643.7 515.7,639.1 	"/>
	<polygon points="506.4,500.9 323.6,501.7 325,521.2 507.7,519.8 	"/>
	<polygon points="508,524.8 325.3,526.2 326.6,545.7 509.3,543.6 	"/>
	<polygon points="509.6,548.7 327,550.7 328.3,570.2 510.9,567.5 	"/>
	<path d="M851.7,131.2l-6.2,0.5v0L851.7,131.2l-1.1-13.2l-0.1-0.7c-5.2-38-36.7-67.5-75-70.1L81.4,0.2C59.9-1.3,38.7,6.5,23.2,21.5
		C7.7,36.5-0.7,57.4,0,78.9l29.2,1123.3l7,155.3c0.6,14,7.5,26.7,18.8,34.9l10.2,6.7c13.3,8.8,28.9,13.4,44.8,13.4
		c3.1,0,6.2-0.2,9.3-0.5c130.5-15,705.9-86.5,711.7-87.2l0.3,0c31.7-4.7,57.5-27.7,65.7-58.7l34.6-131L851.7,131.2z M79.8,25.1
		l694.1,47c20.8,1.4,38.6,14.2,47.2,32.3c-11.1-12.2-25.1-20.6-40.5-21.6L107,35c-18.9-1.3-34.8,3.6-45.9,14
		C49.9,59.5,44,74.9,44.1,93.6l0,0.1l51.6,1128l-41.2-15.6l-0.2-4.6L25,78.2l0-0.1c-0.5-14.5,5.2-28.6,15.6-38.7
		C51,29.4,65.3,24.1,79.8,25.1z M906,1129.2l-797.8,94.3L56.6,93.5c0-15.1,4.5-27.3,13.1-35.3c8.6-8.1,20.9-11.7,36.4-10.6
		l673.5,47.8c16.7,1.1,36.1,16.5,47.3,40L906,1129.2z M93.9,1234.4c0.5,0.2,1.2,0.4,2,0.6l-4.8,149.3c-4.2-1.5-8.3-3.5-12.1-6
		l-9.4-6.2c-5-3.8-8-9.5-8.3-15.7l-6.2-136.7L93.9,1234.4z M108.4,1236l795.5-94l-31.1,117.7c-5.6,21.3-23.3,37.1-45,40.4
		c-12,1.5-581.7,72.2-711.4,87.1c-4.3,0.5-8.6,0.5-12.8,0L108.4,1236z"/>
</g>
</svg>
