<?xml version="1.0" encoding="UTF-8"?>
<svg width="498px" height="960px" viewBox="0 0 498 960" version="1.1" xmlns="http://www.w3.org/2000/svg" xmlns:xlink="http://www.w3.org/1999/xlink">
    <!-- Generator: Sketch 55.2 (78181) - https://sketchapp.com -->
    <title>socket_smart_outdoor_outlet</title>
    <desc>Created with Sketch.</desc>
    <g id="socket_smart_outdoor_outlet" stroke="none" stroke-width="1" fill="none" fill-rule="evenodd">
        <path d="M12.3471074,426 L68.8312236,426 L68.8312236,548.557065 L12.3471074,548.557065 L12.3471074,947.653846 L485.652893,947.653846 L485.652893,548.557065 L429.168776,548.557065 L429.168776,426 L485.652893,426 L485.652893,22.7211538 L468.161157,22.7211538 L468.161157,132.807692 C468.161157,134.51234 466.77916,135.894231 465.07438,135.894231 L32.9256198,135.894231 C31.22084,135.894231 29.838843,134.51234 29.838843,132.807692 L29.838843,22.7211538 L12.3471074,22.7211538 L12.3471074,426 Z M12.3471074,432.179348 L12.3471074,542.377717 L62.6540084,542.377717 L62.6540084,432.179348 L12.3471074,432.179348 Z M485.652893,542.377717 L485.652893,432.179348 L435.345992,432.179348 L435.345992,542.377717 L485.652893,542.377717 Z M29.838843,10.375 L29.838843,0.0865384615 C29.838843,-1.61810966 31.22084,-3 32.9256198,-3 L465.07438,-3 C466.77916,-3 468.161157,-1.61810966 468.161157,0.0865384615 L468.161157,10.375 L485.652893,10.375 C492.472012,10.375 498,15.9025614 498,22.7211538 L498,947.653846 C498,954.472439 492.472012,960 485.652893,960 L12.3471074,960 C5.5279883,960 0,954.472439 0,947.653846 L0,22.7211538 C0,15.9025614 5.5279883,10.375 12.3471074,10.375 L29.838843,10.375 Z M42.1859504,98.8557692 L456.842975,98.8557692 C458.547755,98.8557692 459.929752,97.4738789 459.929752,95.7692308 C459.929752,94.0645826 458.547755,92.6826923 456.842975,92.6826923 L42.1859504,92.6826923 C40.4811706,92.6826923 39.0991736,94.0645826 39.0991736,95.7692308 C39.0991736,97.4738789 40.4811706,98.8557692 42.1859504,98.8557692 Z M249,805 C208.061019,805 174.873418,771.800941 174.873418,730.847826 C174.873418,689.894711 208.061019,656.695652 249,656.695652 C289.938981,656.695652 323.126582,689.894711 323.126582,730.847826 C323.126582,771.800941 289.938981,805 249,805 Z M249,801.910326 C288.23319,801.910326 320.037975,770.094561 320.037975,730.847826 C320.037975,691.601091 288.23319,659.785326 249,659.785326 C209.76681,659.785326 177.962025,691.601091 177.962025,730.847826 C177.962025,770.094561 209.76681,801.910326 249,801.910326 Z M249,784.402174 C219.432958,784.402174 195.464135,760.425076 195.464135,730.847826 C195.464135,701.270576 219.432958,677.293478 249,677.293478 C278.567042,677.293478 302.535865,701.270576 302.535865,730.847826 C302.535865,760.425076 278.567042,784.402174 249,784.402174 Z M249,778.222826 C275.15546,778.222826 296.35865,757.012316 296.35865,730.847826 C296.35865,704.683336 275.15546,683.472826 249,683.472826 C222.84454,683.472826 201.64135,704.683336 201.64135,730.847826 C201.64135,757.012316 222.84454,778.222826 249,778.222826 Z" id="Combined-Shape" fill="#000000" fill-rule="nonzero"></path>
        <g id="Socket-EU" transform="translate(78.000000, 188.000000)" fill="#000000" fill-rule="nonzero">
            <path d="M50.0370305,291.639198 C17.7701117,259.371411 2.84217094e-14,216.497284 2.84217094e-14,170.910594 C2.84217094e-14,125.225817 17.7675076,82.2978731 50.0344264,50.0335584 C82.4601929,17.7683756 125.388137,2.84217094e-14 170.910594,2.84217094e-14 C216.434787,2.84217094e-14 259.363599,17.7683756 291.785893,50.0309543 C324.052812,82.2996091 341.822924,125.226685 341.822924,170.911462 C341.822924,216.497284 324.05368,259.371411 291.789365,291.636594 C259.363599,323.901777 216.434787,341.670152 170.910594,341.670152 C125.388137,341.670152 82.4610609,323.901777 50.0370305,291.639198 Z M55.3493147,55.3449746 C24.5337259,86.3194112 7.55872081,127.361147 7.55872081,170.913198 C7.55872081,214.463513 24.5328579,255.507853 55.3510508,286.483157 C86.3211472,317.296142 127.363751,334.268543 170.914934,334.268543 C214.466117,334.268543 255.507853,317.296142 286.483157,286.477081 C317.296142,255.506117 334.269411,214.463513 334.269411,170.913198 C334.269411,127.361147 317.296142,86.3185431 286.476213,55.3423706 C255.661492,24.5276497 214.619756,7.55785279 170.913198,7.55785279 C127.207508,7.55785279 86.1657716,24.5276497 55.3493147,55.3449746 Z" id="Combined-Shape" stroke="#000000" stroke-width="1"></path>
            <path d="M61.6570447,280.155723 C32.5184711,251.01715 16.4687756,212.22185 16.4687756,170.917972 C16.4687756,129.614094 32.517603,90.8187944 61.6561766,61.6810888 C90.8937046,32.4444289 129.685532,16.3426523 170.893928,16.3426523 C212.09972,16.3426523 250.892415,32.4426929 280.130811,61.6810888 C287.982055,69.5323325 294.766502,77.9443173 300.836568,87.3553934 L300.836568,87.0906472 L303.712319,91.956769 C303.873771,92.2796726 303.998765,92.5244543 304.244415,92.769236 L304.386771,92.9115914 L304.386771,93.1190482 L304.665405,93.5686827 C304.72443,93.7457589 304.817309,93.9002665 304.924075,94.0808147 C305.02737,94.2500787 305.141948,94.4410431 305.231354,94.6684645 L305.306872,94.7448503 L306.139304,96.0520888 L306.461339,96.6935558 C306.561161,96.9782665 306.692232,97.1657589 306.817227,97.3489112 C306.91271,97.4895305 307.002984,97.6223376 307.068085,97.7534086 L307.398801,98.4243883 C307.467375,98.6309772 307.573273,98.836698 307.674831,99.0441548 C307.743405,99.1778299 307.812847,99.3149772 307.87274,99.4503883 L307.991659,99.4495203 L308.129674,99.7168706 C315.435801,113.862997 320.503304,128.911865 323.189826,144.445957 L323.195903,144.906876 C323.264476,145.132561 323.304405,145.359114 323.340862,145.585668 C323.375583,145.789652 323.406831,145.992769 323.475405,146.196754 L323.501446,146.501429 L323.501446,146.958876 L323.646405,147.951891 L323.803517,148.628079 C323.803517,148.829459 323.839106,149.03084 323.87209,149.230485 C323.914623,149.483947 323.954552,149.738277 323.954552,149.992607 L323.954552,150.06552 L324.107324,150.600221 C324.107324,151.026419 324.107324,151.430048 324.233187,151.810241 L324.259227,152.115784 L324.259227,152.648749 C324.387694,153.078419 324.407659,153.487256 324.410263,153.888282 L324.561298,154.040185 L324.561298,155.45419 C325.090791,159.927967 325.319976,164.571008 325.319976,170.92318 C325.332969,175.331855 325.185405,179.830805 324.877258,184.293297 L324.878994,184.411348 C324.114268,193.285987 322.622141,201.697104 320.311471,210.16985 L320.17606,210.579556 C320.160436,211.081272 320.002456,211.551739 319.852288,212.007449 L319.720349,212.400662 C319.701253,213.012617 319.469491,213.542977 319.367933,213.746962 L319.253354,214.255622 L318.635324,216.264221 C318.556334,216.430881 318.527689,216.548063 318.493837,216.681739 C318.452172,216.849266 318.405298,217.038495 318.304608,217.239008 L317.537278,219.863901 L317.368014,220.031429 C317.332425,220.135591 317.305517,220.286627 317.276872,220.442871 C317.236943,220.65814 317.19441,220.889901 317.116288,221.121662 L316.16841,223.50785 C316.103309,223.698815 316.036471,223.865475 315.969634,224.034739 C315.9054,224.194454 315.841166,224.353302 315.776933,224.537322 L315.75176,224.763876 L315.600725,225.218718 C315.521735,225.456556 315.441877,225.654464 315.362887,225.852373 C315.289974,226.032921 315.21706,226.21347 315.145014,226.431343 L314.936689,227.003368 C314.749197,227.285475 314.622466,227.573657 314.511359,227.828855 C314.475771,227.909581 314.442786,227.985967 314.409801,228.057145 L314.385496,228.252449 L314.234461,228.707292 L313.465395,230.553571 L312.992324,231.500581 L312.705877,232.221038 C312.635568,232.433703 312.55571,232.635084 312.475852,232.83386 C312.402938,233.012673 312.33176,233.192353 312.258847,233.407622 L312.202425,233.522201 L311.900354,233.979647 C311.795324,234.19318 311.650364,234.628058 311.508877,235.04818 L311.443776,235.190536 L311.140837,235.647114 L309.954253,238.325825 L309.481182,239.114855 C309.350979,239.378734 309.212095,239.659104 309.070608,240.080962 L308.739892,240.751074 C308.597537,241.036652 308.453446,241.321363 308.31109,241.749297 L308.196512,242.088693 L308.042004,242.086089 L307.88576,242.3925 L307.78941,242.487982 L307.065481,243.93584 C306.986491,244.096424 306.865837,244.297805 306.745182,244.498317 C306.638415,244.676261 306.531649,244.854206 306.460471,244.997429 L306.101111,245.842013 L305.494364,246.599794 L305.003065,247.550277 C304.910187,247.643155 304.759151,247.941754 304.649781,248.159627 L304.243547,249.06584 C303.998765,249.310622 303.873771,249.558876 303.729679,249.845322 L300.837436,254.744429 L300.837436,254.481419 C294.76737,263.892495 287.982923,272.305348 280.131679,280.155723 C250.993106,309.292561 212.197806,325.341388 170.894796,325.341388 C129.590918,325.341388 90.7973543,309.294297 61.6570447,280.155723 Z M321.524095,155.929865 L321.524095,155.931602 L300.8574,155.931602 L300.8574,93.3994188 C294.320339,82.6272868 286.611451,72.6945305 277.9434,63.8780482 C249.38206,35.3167081 211.369715,19.5855761 170.913892,19.5855761 C130.613446,19.5855761 92.5993645,35.3167081 63.8791766,63.8823883 C55.0548822,72.8577183 47.3451259,82.7375254 40.9695168,93.2483832 L40.9695168,155.931602 L20.2993492,155.929865 C19.8037096,161.639703 19.5814964,166.278404 19.5814964,170.912764 C19.5814964,175.27283 19.8931157,179.943647 20.1569939,183.772485 L40.9695168,183.772485 L40.9695168,248.430449 C47.351202,259.094079 55.0583543,268.973018 63.8791766,277.794708 C92.5403391,306.457607 130.55442,322.241688 170.913892,322.241688 C211.431344,322.241688 249.442821,306.456739 277.945136,277.794708 C286.535933,269.205647 294.243085,259.324972 300.8574,248.427845 L300.8574,183.772485 L321.666451,183.772485 C321.930329,179.939307 322.241948,175.265018 322.241948,170.912764 C322.241948,166.28882 322.021471,161.650987 321.524095,155.929865 Z M20.7055827,152.681734 L37.8715523,152.681734 L37.8715523,99.0736675 C33.8274457,106.459652 30.3241157,114.495784 27.4440244,122.990231 C24.1993645,132.427348 21.9338315,142.413053 20.7055827,152.681734 Z M304.105532,152.681734 L321.12307,152.681734 C318.934791,133.896906 313.213669,115.880277 304.105532,99.092764 L304.105532,152.681734 Z M321.278446,186.866109 L304.103796,186.866109 L304.103796,242.708459 C313.458451,225.249967 319.235126,206.47382 321.278446,186.866109 Z M37.8724203,186.866109 L20.544999,186.866109 C21.5918315,197.240688 23.8113594,207.635231 27.1436893,217.774576 C29.9239584,226.264683 33.5314508,234.644551 37.8724203,242.714536 L37.8724203,186.866109 Z" id="Combined-Shape" stroke="#000000" stroke-width="1"></path>
            <path d="M226.726209,170.913111 C226.726209,158.767771 236.571295,148.922685 248.715768,148.922685 C260.861108,148.922685 270.706194,158.767771 270.706194,170.913111 C270.706194,183.057583 260.861108,192.90267 248.715768,192.90267 C236.571295,192.90267 226.726209,183.057583 226.726209,170.913111 Z" id="Combined-Shape-path"></path>
            <path d="M71.1188132,170.913111 C71.1188132,158.767771 80.9638995,148.922685 93.1092396,148.922685 C105.25458,148.922685 115.099666,158.767771 115.099666,170.913111 C115.099666,183.057583 105.25458,192.90267 93.1092396,192.90267 C80.9638995,192.90267 71.1188132,183.057583 71.1188132,170.913111 Z" id="Combined-Shape-path"></path>
        </g>
    </g>
</svg>