<?xml version="1.0" encoding="utf-8"?>
<!-- Generator: Adobe Illustrator 21.0.0, SVG Export Plug-In . SVG Version: 6.00 Build 0)  -->
<svg version="1.1" id="Layer_1" xmlns="http://www.w3.org/2000/svg" xmlns:xlink="http://www.w3.org/1999/xlink" x="0px" y="0px"
	 viewBox="0 0 1417.3 1083.6" style="enable-background:new 0 0 1417.3 1083.6;" xml:space="preserve">
<path d="M1396.7,646.1l-625.1-43.2c-3.8-0.3-7.7,0.5-11.1,2.3l-14.4,7.6v-9.6l47-21.7c14.2-6.6,22.7-21.5,21-37.1l-42.6-391.4
	c-9.5-87.2-58-111.3-102.7-127c-47.5-16.7-194.5-25-239.9-26c-52.3-1.1-135,2.3-196.4,15.7c-31.1,6.8-56.8,20.8-76.3,41.7
	c-17.4,18.6-29.1,42.2-33.9,68.2L43.5,552.2c-2.1,11.6,1.8,23.2,9.8,31.1l-38.7,17.2l0,0c-2.3,1-4.4,2.4-6.3,4.1
	C3,609.3,0,616.1,0,623.1V1047h6.3l-1.3,6.2l142.3,30c1.2,0.3,2.5,0.4,3.8,0.4c3.7,0,7.2-1.1,10.3-3.2l32.7-23.7
	c6.1-4.3,9.7-11.4,9.7-18.8V767.5l95.1,14.2c12.5,1.9,25.1-1.7,34.7-9.9c0.7-0.6,1.4-1.3,2.1-2l67.8-45.2c12.1-8,19.3-21.5,19.3-36
	v-14.1l73.5,5v27.4c-9.9,5.4-18.7,16.1-25.8,31.5c-9.8,21.3-15.2,49.6-15.2,79.5c0,29.9,5.4,58.2,15.2,79.5
	c10.5,22.9,25.1,35.5,41,35.5c13.4,0,25.9-8.9,35.7-25.5c13.4-18.8,20.4-54,20.4-87.8c0-0.3,0-0.6,0-1c0-0.3,0-0.5,0-0.8
	c0-29.9-5.4-58.2-15.2-79.5c-8.7-19-20.2-30.9-33-34.4v-22.9l13.8,0.9c0,0,0.1,0,0.1,0c0,0,0,0,0,0c0,0,0,0,0,0c0,0,0,0,0,0h0
	c0.1,0,0.2,0,0.3,0c0.3,0,0.7,0,1-0.1c0,0,0,0,0,0c0,0,0,0,0,0c0.9-0.1,1.7-0.5,2.5-1c0,0,0,0,0,0c0,0,0,0,0,0c0,0,0,0,0,0
	c0,0,0,0,0,0c0,0,0,0,0,0c0,0,0,0,0,0c0,0,0,0,0,0c0,0,0,0,0,0c0,0,0,0,0,0c0,0,0,0,0,0c0,0,0,0,0,0c0,0,0,0,0,0l17.5-11.9l96.6,6.4
	c0.1,0,0.1,0,0.2,0c0,0,0,0,0,0c0,0,0,0,0,0c0,0,0,0,0,0c0,0,0,0,0,0s0,0,0,0c0.1,0,0.1,0,0.2,0c0,0,0,0,0,0c0.1,0,0.1,0,0.2,0
	c0,0,0.1,0,0.1,0c0,0,0,0,0,0c0,0,0,0,0,0c0,0,0,0,0,0c0,0,0,0,0,0c0,0,0,0,0,0c0,0,0,0,0,0c0,0,0,0,0,0c0,0,0,0,0,0
	c0.8-0.1,1.6-0.3,2.4-0.7l38.8-20.1c-0.9,3.1-1.5,6.3-1.6,9.7l-4.7,124.1c-1.1,28.9,20.7,53.2,49.5,55.3l585,43.2
	c1,0.1,2.1,0.1,3.1,0.1c10.8,0,21.3-4.1,29.3-11.5c4.1-3.9,7.5-8.5,9.8-13.5l5.6,0.4c12.3,0.8,24.5-3.5,33.6-12
	c9-8.4,14.2-20.3,14.2-32.7V668.2C1417.3,656.6,1408.3,646.9,1396.7,646.1z M1404.6,668.2v1.4l-38.2,34c-2.4-7-7.6-12.8-14.2-16
	l40.9-29l2.7,0.2C1400.8,659.1,1404.6,663.3,1404.6,668.2z M1341.2,697.6c6.4,0.5,11.7,5,13.4,10.9l-649.4-48.4
	c0.6-2.9,1.7-5.6,3.1-8.1L1341.2,697.6z M766.5,616.5c1.3-0.7,2.8-1,4.3-0.9l612.4,42.3l-38.4,27.3c-0.8-0.1-1.7-0.2-2.5-0.3
	l-620.5-44.7L766.5,616.5z M234.5,661.6c0.3,7.2-1.7,14.2-5.8,19.8c1-6,0.7-12.2-0.8-18.3c-0.2-0.7-0.4-1.3-0.5-1.9L234.5,661.6z
	 M213.5,660.1c0.8,1.9,1.5,3.8,2,5.9c2,8.2,1,16.5-2.9,23.5c-3.8,6.8-9.8,11.5-16.9,13.3c-7.2,1.7-14.7,0.3-21.1-4
	c-6.6-4.4-11.4-11.4-13.4-19.5c-1.9-7.8-1-15.8,2.4-22.5L213.5,660.1z M144.2,611.8l-98.4-11.3l20.5-9.1c0.2,0.1,0.4,0.2,0.7,0.2
	l34.9,11.5c3.5,1.1,7,2,10.6,2.7l10.1,1.8c2.7,0.5,5.5,0.9,8.3,1.1l13.5,1L144.2,611.8z M428.3,25.6c47.6,1,181.6,9.4,227.8,23.2
	c-6.5,7.8-18.7,16.1-43.3,24c-18.5,5.9-90.5,5.8-202.7-0.3c-95.9-5.2-147.8-13-161.9-16.3c-4.5-1.1-7.3-3.6-8.3-7.5
	c-0.7-2.6-0.5-5.6,0.5-8.5C295.6,28.5,374.3,24.4,428.3,25.6z M745.8,151.7l-30.3,8.7c-17.4,5-35.4,8-53.3,8.9
	c-10.1,0.5-19.6,0.9-24.2,1c-7.7-45.1-23.8-67.2-41.3-82.1c9-0.8,15.7-1.9,20.1-3.4c19.7-6.3,40.6-15.1,51.9-31.7
	C705.3,66.9,737.5,87.3,745.8,151.7z M782.5,558.6l-105.2,48.7c-0.5,0.2-1,0.4-1.5,0.7c-0.4-73.7-4.2-109.9-7.8-145
	c-2.1-20.3-4.3-41.2-5.8-69.3c-4.2-76-14-159.3-22.2-210.8c5-0.2,13.5-0.5,22.8-1c19-0.9,37.9-4.1,56.2-9.3l28.2-8.1l41.7,382.8
	C789.4,552,786.8,556.5,782.5,558.6z M119.8,581.4c10.7-66.7,58.9-369,65.2-430.5l61.5,19.7l0.3,0.1
	c43.5,11.6,106.4,16.6,192.2,15.4l104.2-1.6c-2.8,63.4-10.5,361.7-12.2,428.8l-398.3-29.8c-1.9-0.1-3.8-0.4-5.7-0.7L119.8,581.4z
	 M234.1,62.6c3,2.8,6.8,4.8,11.2,5.8c15.5,3.7,67.6,11.4,164.1,16.6c57.7,3.1,103.8,4.7,138.3,4.7c3.1,0,6,0,8.9,0
	c-6.1,27.6-9.3,54.1-11.4,72c-0.4,3.8-0.8,7.1-1.2,9.9l-105.3,1.6c-84.5,1.2-146.2-3.7-188.6-14.9l-64.4-20.6
	C187.6,112.4,207.2,81.9,234.1,62.6z M587.4,88.8c18.3,14.1,35.8,34.7,44.1,81.5l-81,1.2c0.3-2.6,0.7-5.7,1.1-9.1
	c2.2-18.1,5.4-45,11.6-72.8C572.2,89.5,580.3,89.3,587.4,88.8z M549.5,184.3l84.1-1.3c8.2,51.3,18.1,134.8,22.3,211
	c1.5,28.2,3.7,49.2,5.8,69.6c3.8,36.9,7.4,71.8,7.8,146.6c-3.6,1.1-7.3,1.8-11,2.1l-21.1,1.9c-14.7,1.3-29.6,1.8-44.3,1.4l-45.9-1.1
	l-9.8-0.7C538.9,548.1,546.7,245.8,549.5,184.3z M226.9,43.5c-0.2,2.8,0,5.6,0.7,8.3c0.6,2.1,1.4,4.1,2.4,5.9
	c-28.1,20.1-47.9,51-50.5,78.1l-31.4-10C157.2,85.4,185.4,56,226.9,43.5z M178.8,148.9c-5.5,56.3-54.6,364.6-65.3,431.3
	c-1.3-0.3-2.6-0.7-3.9-1.1l-34.9-11.5c-4.5-1.5-7.2-6.1-6.4-10.7l77.4-418.5L178.8,148.9z M191,1037.8c0,3.4-1.6,6.5-4.4,8.5
	l-17.5,12.7V764.6c0-0.8,0.4-1.2,0.7-1.4c0.2-0.2,0.8-0.5,1.5-0.4l19.7,2.9V1037.8z M325.3,762.1c-6.8,5.8-15.7,8.4-24.5,7
	l-127.6-19c-4.2-0.6-8.4,0.6-11.7,3.4c-3.2,2.8-5.1,6.8-5.1,11v300.9c0,2.2-1.2,3.6-2,4.2l-0.5,0.4c-0.9,0.6-2.2,1.1-4.1,0.8
	l-137.2-28.9V623.1c0-3.5,1.4-6.7,4.1-9.1c0.9-0.8,1.9-1.5,3-2l0,0l0.5-0.2c1.9-0.8,3.9-1.1,6-0.8l117.4,13.5l-1.1,24.5
	c-0.2,3.4,2.5,6.4,5.9,6.6l1.9,0.1c-3,8.3-3.5,17.5-1.3,26.5c2.7,11.3,9.4,20.9,18.7,27.1c6.8,4.5,14.4,6.9,22.1,6.9
	c3,0,6.1-0.4,9.1-1.1c4.9-1.2,9.4-3.3,13.4-6.2l22.1-15.4l2.5-2l0.4-0.5c6.6-7.9,10.1-18,10-28.6l88.7,6.1v70.4c0,7.9-3,15.3-8.3,21
	l-1.1,0.7l0.1,0.2C326.2,761.3,325.8,761.7,325.3,762.1z M410,688.6c0,10.2-5.1,19.7-13.6,25.4L348,746.3c0.4-2.4,0.6-4.9,0.6-7.4
	v-69.6l61.4,4.2V688.6z M482,892.1c-9-19.7-14-46.1-14-74.2c0-28.1,5-54.5,14-74.2c8.2-17.9,18.9-28.1,29.5-28.1
	c3.2,0,6.4,1,9.6,2.8c-25.4,4.5-39.1,54.3-39.1,101.3c0,44,11.9,90.4,34.3,99.9c-1.6,0.5-3.2,0.7-4.8,0.7
	C500.9,920.2,490.2,909.9,482,892.1z M540.9,892.1c-1.3,2.8-2.7,5.5-4.1,7.9c-3.9,5.5-8.1,8.6-12.1,8.6c-1.2,0-2.5-0.3-3.8-0.9
	c12.9-17.6,21-51.2,21-88c0-37.1-8.1-70.5-21-88.1c1.3-0.6,2.6-0.9,3.8-0.9c6.7,0,14.2,8.9,19.9,23.8c6.5,17.1,10.2,39.8,10.3,64.2
	C554.8,846.5,549.9,872.5,540.9,892.1z M511.8,740.6c9.3,13.8,17.5,41.5,17.5,79c0,32.8-6.9,63.4-17.4,79.1
	c-2.5-3.7-4.8-8.4-6.9-13.9c-6.6-17.3-10.3-40.4-10.3-65.1c0-24.7,3.6-47.8,10.3-65.1C507,749,509.4,744.3,511.8,740.6z
	 M513.1,702.9c-0.6,0-1.1-0.1-1.7-0.1c-3,0-6,0.5-8.9,1.3v-24.3l10.6,0.7V702.9z M155.4,643.4l1.5-32.7l370.5,27.7v30.5L155.4,643.4
	z M540.1,663.7v-24.3l5.4,0.4l1.2,0v19.4L540.1,663.7z M559.4,656.6v-16.5l33,0.8c3.3,0.1,6.6,0.1,10,0.1c12.4,0,24.9-0.5,37.2-1.6
	l5.9-0.5v23.5L559.4,656.6z M658.2,637.7l2.5-0.2c9.5-0.8,18.7-3.3,27.3-7.3l45.5-21v10.4l-75.2,39.1V637.7z M1345.6,866.2
	c-6.2,5.8-14.3,8.6-22.8,8l-585-43.2c-22-1.6-38.6-20.2-37.7-42.2l4.6-122.4l650.7,48.5V844C1355.2,852.5,1351.8,860.4,1345.6,866.2
	z M1394.5,841.1c-6.6,6.1-15.1,9.2-24,8.6l-2.9-0.2c0.2-1.8,0.4-3.6,0.4-5.5V712.6c0-0.6,0-1.2-0.1-1.8l36.8-32.7v139.6
	C1404.6,826.7,1401,835,1394.5,841.1z"/>
</svg>
