<svg height="960" viewBox="0 0 960 960" width="960" xmlns="http://www.w3.org/2000/svg"><g fill="#000" fill-rule="evenodd"><path d="m332.321155 10.0934298.114103.0069516 387.618484 16.6714538c.081788.0035176.163553.0075373.245291.0120589l.245125.0150701c63.773548 4.3139205 113.463543 56.4518333 115.446385 120.9079898.009457.204927.009457.409938.009457.614962v663.356168c0 .205024 0 .410035-.009457.614962-1.961029 63.747059-50.617917 115.544093-113.542168 120.764608l-.151947.012024-1.6004.120504c-.213878.016104-.428001.028767-.642286.037983l-387.648484 16.671835-.105548.007849c-8.079519.470161-19.106881-.888583-34.019501-3.922987l-.204951-.042862-2.259335-.320758c-17.561341-2.500132-32.050578-4.563406-44.018067-6.270752l-3.696024-.527425c-47.577516-6.791133-52.560377-7.576236-54.509312-8.172786l-.074087-.023034c-1.681776-.530965-3.285934-1.282042-4.770743-2.233691-5.557482-3.561922-10.657868-7.395112-15.303622-11.569066l-.100314-.090742-.478496-.435746-.09996-.085322-.382646-.344274c-23.17618-21.398011-36.863014-51.169342-37.362777-83.242335l-.010617-.825418v-697.466002c.228283-32.357769 13.948421-62.5254781 37.373394-84.1531929.12614-.1164625.253701-.2312279.382646-.344274l.08096-.0701821.429977-.3905396c4.396036-3.9670577 9.203225-7.6279198 14.422175-11.0408561l1.04928-.6792988c2.087308-1.3378055 4.405159-2.2758598 6.835387-2.7663406l92.310181-18.6309649.6033-.1367075c20.031314-4.5302788 34.183523-6.59294436 43.824597-6.0288627zm-24.568329 42.8203314-.370912.0723863c-29.349313 13.5673636-50.569973 43.9050018-51.824085 80.2000595l.00578-.136786-.158351 145.17796 38.318539.162236c5.506294.02328 9.957721 4.493567 9.957721 9.99991v404.790287c0 5.241861-4.047706 9.594128-9.275803 9.973742l-38.957457 2.828825.115351 125.57904.061428 1.449395c1.558601 30.76433 17.447088 57.0201 40.311681 72.225768 2.730942.387237 5.522054.784683 8.372984 1.19055.405084.057669.808303.127756 1.209088.210161 12.298874 2.528763 20.824017 3.583047 24.531989 3.333427.16121-.010853.322545-.019752.483971-.026694l373.088508-16.046647 13.981351-.98496 1.102232-.13471c42.094336-5.496081 74.136207-42.492008 75.414883-87.111128l.02931-1.354403.011185-1.465987.030039-154.097812-36.558975 3.492579c-5.871795.560871-10.950867-4.056169-10.950867-9.95469v-302.494313c0-5.314486 4.156941-9.700641 9.463781-9.985613l38.056061-2.043963-.039762-165.916754-.01067-1.466725c-.669835-45.79663-33.619761-83.7474286-76.734323-88.6954203l.175106.0219394-182.408351-12.8480397-204.649508-8.801409c-.080713-.0034714-.161403-.0074317-.242066-.0118808l-.241905-.0148132c-3.606219-.2427703-11.259552.6930523-22.297953 2.8844828zm-44.836213 9.190738-55.556355 11.2145008-.189552.1323139c-2.548111 1.7871284-4.881226 3.6301387-7.00348 5.5376747l-.630354.5742052-.333614.2988062-.18098.1694149c-14.938925 14.03285-23.675077 33.2538611-24.005665 53.9035411l-.007355.596044v697.043l.006908.514123c.322056 20.660835 9.065017 39.895312 24.006045 53.930257l.167047.15562.247253.220636.780747.710364.602371.53442c1.730298 1.514073 3.595382 2.987384 5.597422 4.424411l.574207.408169.216098.032561c.47461.070293.986526.145847 1.535512.226625l.418687.061563c4.300551.631911 10.693308 1.558442 19.171346 2.77856 6.295861.90607 13.7393 1.973701 22.33013 3.202867l1.574613.225265c2.810444.402012 5.739804.820766 8.788072 1.25626-14.342013-17.494513-23.623348-39.757931-25.268406-64.431104l-.110403-1.882196-.074052-1.738338c-.00591-.138728-.00893-.277563-.009057-.416416l-.115189-125.089226-30.038.000444c-5.42924 0-9.847932-4.326671-10-9.720095v-408.794149c0-5.522848 4.477152-10 10-10l29.995-.0002.15819-145.354432c.000061-.055752.000588-.111501.001581-.167242l.004378-.167193c.939251-27.18272 11.171368-51.694921 27.346855-70.3910548zm-20.371355 236.0798818-27.134649.00024v388.514l27.134649-.00024zm20 .073v387.157l21.135351-1.53476v-385.533zm531.662 49.533-27.524842 1.478271v282.016l27.513842-2.628271.036727-176.817583z" fill-rule="nonzero"/><path d="m416.509258 103.291548c3.037566.108762 5.5-2.48936 5.5-5.8030686 0-3.3137085-2.462434-6.0881692-5.5-6.1969315-3.037566-.1087622-5.5 2.4893601-5.5 5.8030686s2.462434 6.0881695 5.5 6.1969315z"/><path d="m599.816959 59.0742175 13.183041.9257825v54l-13.183041-.925782z"/><path d="m479.509258 105.547308c3.037566.108762 5.5-2.48936 5.5-5.8030683 0-3.3137085-2.462434-6.0881692-5.5-6.1969315-3.037566-.1087622-5.5 2.4893601-5.5 5.8030686 0 3.3137082 2.462434 6.0881692 5.5 6.1969312z"/><path d="m542.509258 107.803069c3.037566.108762 5.5-2.489361 5.5-5.803069 0-3.3137085-2.462434-6.0881692-5.5-6.1969315-3.037566-.1087622-5.5 2.4893601-5.5 5.8030685 0 3.313709 2.462434 6.088169 5.5 6.196932z"/><ellipse cx="191" cy="317" rx="5" ry="6"/><ellipse cx="191" cy="348.634545" rx="5" ry="6"/><ellipse cx="191" cy="380.269091" rx="5" ry="6"/><ellipse cx="191" cy="411.903636" rx="5" ry="6"/><ellipse cx="191" cy="443.538182" rx="5" ry="6"/><ellipse cx="191" cy="475.172727" rx="5" ry="6"/><ellipse cx="191" cy="506.807273" rx="5" ry="6"/><ellipse cx="191" cy="538.441818" rx="5" ry="6"/><ellipse cx="191" cy="570.076364" rx="5" ry="6"/><ellipse cx="191" cy="601.710909" rx="5" ry="6"/><ellipse cx="191" cy="633.345455" rx="5" ry="6"/><ellipse cx="191" cy="664.98" rx="5" ry="6"/></g></svg>