<svg width="960" height="960" viewBox="0 0 960 960" fill="none" xmlns="http://www.w3.org/2000/svg">
<path d="M107.104 21.5146C109.214 11.6992 118.275 4.96973 128.282 5.78506L340.417 23.0702C349.483 23.8089 356.908 30.5713 358.489 39.5282L363.659 68.8251L392.073 71.0663C418.824 73.1759 439.457 95.5002 439.457 122.335V561.189C439.457 589.155 417.111 611.994 389.152 612.604L332.873 613.832L326.279 695.135C325.122 709.387 317.204 721.641 305.767 728.762V816.768L772.669 784.126C777.892 783.76 781.972 779.399 781.972 774.131V541.335H655.846C650.464 550.546 642.945 556.598 638.409 559.301C635.313 561.145 631.776 562.118 628.172 562.118H595.074C578.519 562.118 567.355 554.555 560.56 546.089H541.678C534.529 546.089 528.256 542.337 524.72 536.695C522.463 534.886 520.65 532.93 519.282 531.202C515.234 526.09 512.465 519.929 510.512 514.098C506.536 502.227 504.422 487.103 504.422 471.318C504.422 455.533 506.536 440.408 510.512 428.538C512.465 422.706 515.234 416.545 519.282 411.434C523.16 406.536 530.583 399.802 541.678 399.802H556.495C556.882 398.968 557.301 398.136 557.755 397.313C562.655 388.434 572.545 379.341 587.819 379.771L588.55 379.8L590.786 379.892C602.37 380.306 619.7 380.013 627.519 379.785L628.093 379.776C630.963 379.775 633.803 380.392 636.417 381.588C637.547 382.104 638.863 382.789 640.3 383.644V371.386L536.012 366.729C535.305 366.785 534.596 366.806 533.887 366.786C512.462 366.196 495.4 348.658 495.4 327.225V312.325C495.4 308.85 495.857 305.389 496.761 302.033L540.496 139.65L540.683 138.98C544.701 125.031 555.886 114.742 569.412 111.472L645.387 92.7431C650.92 90.6103 656.981 89.6537 663.19 90.122L843.798 103.748C861.982 105.12 877.068 118.351 880.801 136.2L916.268 305.767C916.845 308.525 917.135 311.335 917.135 314.152V327.931C917.135 347.405 903.561 363.637 885.455 367.83L865.727 376.961C859.915 379.651 853.541 380.906 847.143 380.62L821.972 379.496V399.802H859.564C871.295 399.802 880.54 405.233 886.414 410.003C888.411 411.624 890.234 413.345 891.876 415.076H924.926L925.689 415.091C933.535 415.389 940.515 420.264 943.472 427.589C959.609 467.557 951.154 501.003 941.797 515.701C938.126 521.468 931.763 524.961 924.926 524.961H894.108C888.604 532.328 881.871 537.008 877.741 539.128C876.262 539.887 874.699 540.453 873.091 540.823V858.469C873.091 884.358 853.328 905.965 827.542 908.269L320.218 953.614C290.964 956.229 265.767 933.183 265.767 903.812V859.662L222.472 862.689C193.555 864.711 168.985 841.798 168.985 812.811V734.142C156.189 727.607 146.964 714.87 145.523 699.604L137.822 618.045C132.862 617.962 128.046 617.17 123.483 615.757L68.9467 608.94C43.211 605.723 23.898 583.846 23.8978 557.91V129.419C23.898 108.667 36.3708 89.9478 55.5228 81.9569L97.9105 64.2714L107.104 21.5146ZM821.972 774.131C821.972 800.375 801.671 822.195 775.458 824.028L305.767 856.866V903.812C305.767 909.686 310.807 914.295 316.658 913.772L823.982 868.429C829.139 867.967 833.091 863.646 833.091 858.469V541.335H821.972V774.131ZM231.839 699.285C230.529 714.347 221.599 727.105 208.985 733.81V812.811C208.985 818.609 213.899 823.191 219.682 822.787L265.767 819.564V731.974C251.337 725.926 240.682 712.334 239.094 695.77L235.451 657.754L231.839 699.285ZM176.036 597.248L185.345 695.845C185.512 697.609 187.03 698.936 188.801 698.864C190.478 698.796 191.844 697.492 191.99 695.82L200.608 596.712L176.036 597.248ZM269.638 595.207L278.911 691.955C279.104 693.956 280.835 695.453 282.843 695.354C284.731 695.261 286.257 693.783 286.41 691.899L294.296 594.669L269.638 595.207ZM139.603 91.2812C132.958 90.7572 127.277 96.0083 127.277 102.674V566.628C127.277 572.872 132.279 577.925 138.461 578.052C138.624 578.055 138.788 578.056 138.953 578.053L155.553 577.69C155.56 577.69 155.566 577.689 155.573 577.689L220.553 576.272C220.57 576.272 220.588 576.272 220.605 576.271L246.556 575.706L314.87 574.216C314.89 574.215 314.91 574.214 314.93 574.214L388.279 572.614C389.832 572.58 391.307 572.238 392.646 571.646C393.818 571.128 394.885 570.42 395.81 569.559C396.357 569.051 396.853 568.488 397.292 567.882C398.655 565.999 399.457 563.686 399.457 561.189V122.335C399.457 121.589 399.385 120.86 399.248 120.152C399.214 119.976 399.176 119.8 399.134 119.627C398.626 117.54 397.545 115.671 396.059 114.203C395.935 114.081 395.808 113.962 395.679 113.846C393.869 112.213 391.529 111.148 388.928 110.943L139.603 91.2812ZM70.9252 118.873C66.6696 120.649 63.898 124.808 63.8978 129.419V557.91C63.898 563.673 68.1892 568.534 73.9076 569.249L108.035 573.515C107.539 571.299 107.277 568.995 107.277 566.628V103.706L70.9252 118.873ZM145.715 539.034C151.501 539.073 156.146 545.867 156.09 554.21C156.035 562.552 151.3 569.284 145.514 569.245C139.729 569.206 135.083 562.413 135.139 554.07C135.195 545.728 139.93 538.996 145.715 539.034ZM381.645 534.814C387.43 534.853 392.075 541.647 392.02 549.989C391.964 558.331 387.229 565.064 381.444 565.025C375.658 564.987 371.013 558.192 371.069 549.85C371.124 541.507 375.859 534.776 381.645 534.814ZM156.635 134.244C156.635 125.536 164.026 118.658 172.711 119.283L356.6 132.515C364.446 133.079 370.523 139.609 370.523 147.475V528.929C370.523 537.135 363.927 543.818 355.721 543.927L171.833 546.357C163.472 546.468 156.635 539.72 156.635 531.358V134.244ZM171.994 129.257C169.099 129.049 166.635 131.342 166.635 134.244V531.358C166.635 534.145 168.915 536.395 171.702 536.358L355.589 533.928C358.324 533.892 360.523 531.664 360.523 528.929V147.475C360.523 144.854 358.497 142.677 355.882 142.489L171.994 129.257ZM619.042 419.976C614.03 420.059 608.141 420.112 602.326 420.088C606.831 433.946 609.445 452.245 609.445 471.976C609.445 490.889 607.045 508.487 602.878 522.118H619.828C620.295 520.96 620.76 519.703 621.215 518.344C625.035 506.938 627.571 490.544 627.571 471.976C627.571 453.409 625.035 437.014 621.215 425.609C620.504 423.487 619.773 421.613 619.042 419.976ZM585.587 434.598C582.034 437.831 577.313 439.802 572.133 439.802H565.621C567.754 449.013 568.933 459.874 568.933 471.318C568.933 484.141 567.454 496.231 564.81 506.089H572.133C577.068 506.089 581.666 507.897 585.207 510.956C587.817 500.32 589.445 486.846 589.445 471.976C589.445 457.843 587.974 444.97 585.587 434.598ZM654.777 501.335H781.972V443.414L654.777 441.188V501.335ZM821.972 501.335H833.091V474.904C833.091 463.859 842.046 454.904 853.091 454.904C858.537 454.904 863.474 457.081 867.08 460.612C866.405 456.74 865.355 452.921 863.928 449.21C862.907 446.556 860.379 444.786 857.536 444.736L821.972 444.113V501.335ZM546.783 447.346C545.373 453.743 544.422 461.978 544.422 471.318C544.422 480.658 545.373 488.893 546.783 495.29C548.119 488.44 548.933 480.252 548.933 471.318C548.933 462.384 548.119 454.196 546.783 447.346ZM886.391 455.076C888.376 464.917 888.515 475.053 886.79 484.961H911.283C912.764 478.052 913.477 467.773 910.417 455.076H886.391ZM680.3 383.472C688.823 385.762 695.097 393.542 695.097 402.787V419.802C695.097 420.502 695.058 421.198 694.986 421.889L714.43 422.229C714.334 421.434 714.285 420.623 714.285 419.802V405.464C714.285 400.16 716.392 395.073 720.142 391.322C722.818 388.647 726.174 386.808 729.803 385.974V375.381L680.3 373.171V383.472ZM769.803 399.802H781.972V377.71L769.803 377.167V399.802ZM385.319 321.102C391.104 321.141 395.749 327.935 395.694 336.277C395.638 344.62 390.903 351.351 385.118 351.312C379.332 351.274 374.687 344.48 374.743 336.138C374.798 327.795 379.533 321.064 385.319 321.102ZM142.041 312.175C147.827 312.213 152.472 319.007 152.416 327.35C152.361 335.692 147.626 342.424 141.84 342.386C136.055 342.347 131.41 335.552 131.465 327.21C131.521 318.868 136.256 312.136 142.041 312.175ZM612.351 320.692C612.351 321.208 612.762 321.629 613.277 321.643L753.228 325.496C753.419 325.499 753.61 325.504 753.802 325.513L876.158 328.882C876.325 328.886 876.484 328.847 876.622 328.775C876.761 328.703 876.879 328.598 876.967 328.471C877.002 328.42 877.033 328.365 877.058 328.308C877.07 328.279 877.082 328.249 877.091 328.219C877.12 328.128 877.135 328.031 877.135 327.931V320.576L612.351 308.614V320.692ZM535.4 315.355V326.621L592.364 321.406C592.356 321.169 592.351 320.931 592.351 320.692V308.061L535.4 315.355ZM660.181 130.009C659.725 129.974 659.31 130.27 659.191 130.711L616.616 288.787L874.286 300.428L841.649 144.389C841.573 144.026 841.295 143.745 840.944 143.659C840.893 143.647 840.841 143.639 840.788 143.635L660.181 130.009ZM579.055 150.292L540.194 294.578L590.113 288.184C592.114 287.928 594.132 287.824 596.149 287.872L637.054 135.995L579.055 150.292ZM383.161 116.64C388.947 116.678 393.592 123.472 393.536 131.814C393.481 140.157 388.746 146.889 382.96 146.85C377.175 146.812 372.53 140.017 372.585 131.675C372.641 123.333 377.376 116.601 383.161 116.64ZM144.199 97.6464C149.984 97.6853 154.628 104.479 154.573 112.821C154.517 121.164 149.782 127.896 143.996 127.857C138.211 127.819 133.566 121.024 133.621 112.682C133.677 104.339 138.413 97.6078 144.199 97.6464ZM137.319 71.2753C138.588 71.2213 139.875 71.2411 141.175 71.3437L326.058 85.9228L321.781 61.6835L142.522 47.0771L137.319 71.2753Z" fill="black"/>
</svg>
