<svg height="960" viewBox="0 0 960 960" width="960" xmlns="http://www.w3.org/2000/svg"><g fill="#000" fill-rule="nonzero"><path d="m684 54c58.542183 0 106 47.457817 106 106s-47.457817 106-106 106c-15.747614 0-30.693176-3.433993-44.128704-9.593998-2.19308 3.674638-4.170746 6.988351-6.113612 10.243781l-.646581 1.083401c-.215262.36069-.430343.721076-.645489 1.081573l-.645886 1.082239c-7.92683 13.282126-16.277949 27.275663-37.379567 62.634588 47.087573 32.08276 78.844959 84.995741 82.014958 145.481074l74.153144.000699c1.061428-57.739998 48.199044-104.220087 106.192666-104.220087 58.658688 0 106.210951 47.552262 106.210951 106.210951 0 58.658688-47.552263 106.210951-106.210951 106.210951-52.519639 0-96.135935-38.119742-104.690194-88.20053l-75.655668-.000103c-3.185541 60.775747-35.233653 113.906158-82.694187 145.941083l42.407653 61.86964c14.513054-7.465272 30.972689-11.679101 48.416516-11.679101 58.539016 0 105.994264 47.455248 105.994264 105.994263s-47.455248 105.994263-105.994264 105.994263c-58.539015 0-105.994263-47.455248-105.994263-105.994263 0-33.921457 15.934646-64.121178 40.726953-83.522178l-42.738335-62.353116c-26.224162 13.889183-56.128557 21.755279-87.870177 21.755279-34.877377 0-67.536599-9.497049-95.532708-26.046189-14.947155 25.174003-22.219343 37.421898-28.814949 48.530287l-.484508.816014c-.080582.135718-.161089.271307-.241532.40679l-.789665 1.329963c-.28054.472487-.560826.944549-.841414 1.417118l-.561743.946093c-2.043059 3.440942-4.121535 6.941534-6.447979 10.859755 26.560001 19.260072 43.83294 50.542972 43.83294 85.860184 0 58.539015-47.455248 105.994263-105.994264 105.994263-58.539015 0-105.994263-47.455248-105.994263-105.994263s47.455248-105.994263 105.994263-105.994263c16.064049 0 31.293444 3.573579 44.936579 9.969133 2.570605-4.328701 4.839111-8.149342 7.090453-11.941076l.788333-1.327719c.248391-.418343.496981-.83702.746153-1.256679l.499237-.840819c.31682-.533592.634987-1.069452.955283-1.608899l.482139-.812023c6.384335-10.752565 13.755612-23.167347 28.174439-47.451688-43.386838-32.315163-72.356258-82.906144-75.516456-140.374403l-93.598586-.000942c-8.751984 49.721796-52.159818 87.498954-104.390979 87.498954-58.5421835 0-106-47.457817-106-106s47.4578165-106 106-106c57.956762 0 105.049735 46.513406 105.985799 104.247096l.001201.252904 91.9514.000437c3.209385-64.401282 38.824471-120.269823 90.873832-151.634198l-49.771994-72.868061c-14.664633 7.666449-31.346145 12.001822-49.040238 12.001822-58.542183 0-106-47.457817-106-106s47.457817-106 106-106 106 47.457817 106 106c0 33.674143-15.702291 63.680819-40.184302 83.097459l50.76377 74.322028c24.051728-11.17524 50.862209-17.4137 79.129759-17.4137 32.047274 0 62.22177 8.018317 88.626723 22.158188 19.694148-32.999402 28.264129-47.359692 35.770673-59.938031l.480008-.804326c.079791-.133702.159485-.267241.239095-.400639l.501787-.84082c.250446-.419659.500305-.838335.749965-1.256678l.792361-1.32772c2.134012-3.575858 4.283368-7.177425 6.689589-11.20941-26.971146-19.216111-44.559428-50.747249-44.559428-86.386351 0-58.542183 47.457817-106 106-106zm-391.166595 680.146161c-36.447625 0-65.994263 29.546638-65.994263 65.994263s29.546638 65.994263 65.994263 65.994263c36.447626 0 65.994264-29.546638 65.994264-65.994263s-29.546638-65.994263-65.994264-65.994263zm391.751644 0c-36.447625 0-65.994263 29.546638-65.994263 65.994263s29.546638 65.994263 65.994263 65.994263c36.447626 0 65.994264-29.546638 65.994264-65.994263s-29.546638-65.994263-65.994264-65.994263zm-195.875822-394.140374c-81.74218 0-148.00731 66.26513-148.00731 148.007311 0 81.74218 66.26513 148.007311 148.00731 148.007311 81.742181 0 148.007311-66.265131 148.007311-148.007311 0-81.742181-66.26513-148.007311-148.007311-148.007311zm368.091702 73.787483c-36.567299 0-66.210952 29.643652-66.210952 66.210951 0 36.567298 29.643653 66.210951 66.210952 66.210951 36.567298 0 66.210951-29.643653 66.210951-66.210951 0-36.567299-29.643653-66.210951-66.210951-66.210951zm-753.800929.20673c-36.4507935 0-66 29.549207-66 66s29.5492065 66 66 66c36.450793 0 66-29.549207 66-66s-29.549207-66-66-66zm433.650353 14.57009c7.810486 7.810486 7.810486 20.473785 0 28.284271s-20.473786 7.810486-28.284271 0c-10.856181-10.856181-28.457528-10.856181-39.313709 0-7.810486 7.810486-20.473785 7.810486-28.284271 0s-7.810486-20.473785 0-28.284271c26.477152-26.477153 69.405098-26.477153 95.882251 0zm38.704454-39.15873c7.810486 7.810486 7.810486 20.473785 0 28.284271s-20.473785 7.810486-28.284271 0c-32.232061-32.232061-84.490556-32.232061-116.722617 0-7.810486 7.810486-20.473785 7.810486-28.284271 0s-7.810486-20.473785 0-28.284271c47.853032-47.853032 125.438127-47.853032 173.291159 0zm108.645193-295.41136c-36.450793 0-66 29.549207-66 66s29.549207 66 66 66 66-29.549207 66-66-29.549207-66-66-66zm-391 0c-36.450793 0-66 29.549207-66 66s29.549207 66 66 66 66-29.549207 66-66-29.549207-66-66-66z"/><g stroke="#000" transform="translate(422.4295 503.4778)"><path d="m52.825667.61687656v14.45836254h-32.3877882l-1.8526702 16.1079382c3.6626769-1.8002636 7.5381385-2.7002305 11.6263024-2.7002305 7.9059741 0 14.0919464 2.4664851 18.574021 7.3663802 4.4665878 4.8829646 6.7206387 11.7090674 6.7206387 20.4970956 0 5.3375542-1.1294677 10.1156071-3.3815861 14.3359634-2.2614097 4.2377678-5.5013798 7.5255021-9.7201749 9.8629426-4.2008846 2.3275172-9.1575999 3.4970383-14.8734024 3.4970383-4.9913179 0-9.6230052-1.0128245-13.8956951-3.0357352-4.29235237-2.0322199-7.68074044-4.8923723-10.16854095-8.576596-2.58113877-3.8224498-3.90906509-8.1956237-3.97845271-13.1212958h16.94147866c.2593327 3.4640989 1.3911648 6.1483043 3.4274589 8.0351456 1.9423436 1.7997863 4.4853248 2.6868694 7.6179073 2.6868694 3.4709443 0 6.1531285-1.2371806 8.0327585-3.7374432 1.9199355-2.5538764 2.8593825-6.172883 2.8593825-10.8403904 0-4.4613691-1.0753169-7.892419-3.2736619-10.2709563-2.1846683-2.3637395-5.2893907-3.5250637-9.2937939-3.5250637-3.6935114 0-6.6953675.954352-8.9944963 2.8901373l-1.7529258 1.6277168-13.53252085-3.3537117 4.79074329-42.20416714z"/><path d="m68.5006142 65.3398734c2.7824379 0 5.0803973.8505087 6.9011176 2.5341857 1.8327664 1.6948162 2.7572702 3.8995296 2.7572702 6.6216076 0 2.6846445-.915045 4.8615836-2.7295102 6.5379917-1.8007253 1.6637135-4.1073779 2.506114-6.9288776 2.506114-2.7832019 0-5.0715548-.8417042-6.8730337-2.506114-1.8144652-1.6764081-2.7295103-3.8533472-2.7295103-6.5379917 0-2.722078.9245038-4.9267914 2.7572702-6.6216076 1.8214892-1.6843879 4.1011472-2.5341857 6.8452738-2.5341857z"/><path d="m110.922161-.5c9.037022 0 15.935857 2.98799509 20.716615 8.92599915 4.748563 5.89801695 7.201242 14.36179455 7.314392 25.41536065v14.966146c0 11.3837493-2.377291 20.0799256-7.086466 26.1076706-4.743364 6.0715055-11.680467 9.1271905-20.832854 9.1271905-9.037193 0-15.9362325-2.9974125-20.7171024-8.9545281-4.7483853-5.9166389-7.2007593-14.3896047-7.3139045-25.4426756v-14.9661459c0-11.4991622 2.4075141-20.2148801 7.1739304-26.16819059 4.799802-5.99500959 11.7084725-9.01082671 20.7453895-9.01082671zm0 14.0674558c-3.599111 0-6.264901 1.3719625-7.979133 4.1465446-1.772137 2.8683047-2.691876 7.3589504-2.801401 13.4558363l.00008 19.7597345c0 6.5127504.868825 11.3591464 2.64455 14.5261606.853908 1.5229491 1.962505 2.668602 3.332078 3.4304543 1.379093.7671483 3.018767 1.1445688 4.915513 1.1445688 1.879654 0 3.49994-.3618926 4.857331-1.0982549 1.34415-.7291798 2.426242-1.8254522 3.251689-3.2831568 1.720076-3.0375801 2.598322-7.6897963 2.671468-13.9438059l-.000034-19.316117c0-6.6150234-.882387-11.4398853-2.693016-14.4576008-1.75127-2.9187824-4.489829-4.3643637-8.199125-4.3643637z"/></g></g></svg>