<svg height="960" viewBox="0 0 960 960" width="960" xmlns="http://www.w3.org/2000/svg"><path d="m707.009443 432.514828-121.097885 55.019559.361841 2.277921 123.131072 372.446112 1.80397 2.181782h-1.082671l23.384656 70.733765c3.543999 10.719874-5.149043 21.56867-19.416454 24.23147s-28.706414-3.868752-32.250417-14.588625l-26.572588-80.37661h-356.575105l-26.57259 80.37661c-3.544001 10.719873-17.983005 17.251425-32.250416 14.588625-14.267412-2.6628-22.960454-13.511596-19.416453-24.23147l147.147817-445.091817-118.432426-58.938353c4.378458 9.437786 9.334934 17.836999 14.775581 25.256715 7.605996 10.372718 15.662301 18.180777 23.613361 23.795337 2.692411 1.901218 5.149024 3.387389 7.301637 4.502976 1.168307.605477 1.893845.926957 2.107662 1.007635 4.379123 1.652381 6.146297 5.659191 3.947093 8.949461-2.199205 3.290275-7.531993 4.618046-11.911116 2.965666-3.050334-1.150988-7.783881-3.604143-13.59824-7.709895-9.304594-6.570341-18.503943-15.486221-27.003224-27.077165-8.877473-12.106703-16.492169-26.474352-22.532709-43.286042l-8.76005-4.359473c-17.104479-8.512109-9.083705-28.524242 11.432389-28.524242h155.533932l6.457403-40.651705-204.805108-68.857606c4.127854 8.579815 8.743608 16.275904 13.773124 23.134936 7.605996 10.372722 15.662302 18.180781 23.613362 23.795339 2.692411 1.901217 5.149023 3.387389 7.301636 4.502979 1.168307.605474 1.893845.926954 2.107663 1.007634 4.379123 1.652381 6.146296 5.659191 3.947092 8.949462s-7.531993 4.618043-11.911116 2.965662c-3.050334-1.150986-7.783881-3.604143-13.59824-7.709891-9.304593-6.570341-18.503942-15.486222-27.003223-27.077167-7.737764-10.552421-14.516174-22.822517-20.129039-36.931538l-26.556721-8.928646c-20.384442-6.853461-13.876039-29.754252 8.456156-29.754252h263.056427l4.660318-29.338403-91.620722-49.56311c2.287478 3.830901 4.686408 7.449038 7.187671 10.860151 7.605996 10.372722 15.662302 18.180781 23.613363 23.795339 2.69241 1.901217 5.149023 3.387389 7.301636 4.502979 1.168306.605474 1.893844.926954 2.107662 1.007634 4.379124 1.652381 6.146297 5.659191 3.947093 8.949462-2.199205 3.290271-7.531993 4.618043-11.911116 2.965663-3.050334-1.150987-7.783882-3.604144-13.59824-7.709892-9.304594-6.570341-18.503943-15.486222-27.003224-27.077167-6.723222-9.168834-12.722171-19.634446-17.86159-31.47637l-14.095576-7.625137c-16.312976-8.824661-8.004412-28.179405 12.096796-28.179405h137.423276l19.719774-85.631662c5.093945-22.12007868 47.363587-22.12007868 52.457532 0l19.847656 86.186984h138.849283c.11831-.001794.236979-.001804.355976 0h5.122495c20.582835 0 28.555278 20.118036 11.324765 28.577441l-18.583032 9.123432c-4.892526 10.840229-10.520999 20.49378-16.776468 29.024717-8.499284 11.590945-17.69863 20.506826-27.003228 27.077167-5.814356 4.105748-10.547906 6.558905-13.59824 7.709892-4.379121 1.65238-9.711909.324608-11.911114-2.965663-2.199204-3.290271-.432028-7.297081 3.947093-8.949462.213819-.08068.939356-.40216 2.107663-1.007634 2.15261-1.11559 4.609226-2.601762 7.301634-4.502979 7.95106-5.614558 16.007368-13.422617 23.613362-23.795339 2.312672-3.153919 4.537862-6.484821 6.668359-9.997243l-94.338156 46.315784 4.4213 27.833721h270.706563c22.211409 0 28.832895 22.708604 8.656012 29.6861l-29.944279 10.355223c-5.798594 15.177699-12.918865 28.283726-21.115706 39.462213-8.499284 11.590945-17.69863 20.506826-27.003222 27.077167-5.814361 4.105748-10.547906 6.558905-13.59824 7.709891-4.379126 1.652381-9.711915.324609-11.911119-2.965662-2.199205-3.290271-.432029-7.297081 3.947092-8.949462.213819-.08068.939356-.40216 2.107664-1.007634 2.152615-1.11559 4.609225-2.601762 7.301638-4.502979 7.95106-5.614558 16.007363-13.422617 23.613362-23.795339 5.487272-7.483304 10.482043-15.962967 14.888028-25.499597l-208.630954 72.148005 6.398563 40.281289h162.47808c20.960232 0 28.648832 20.717513 10.712839 28.866544l-13.133357 5.967002c-5.887205 15.738628-13.180926 29.279936-21.614222 40.780889-8.49928 11.590944-17.69863 20.506824-27.003223 27.077165-5.814356 4.105752-10.547906 6.558907-13.59824 7.709895-4.379121 1.65238-9.711909.324609-11.911114-2.965666-2.199205-3.29027-.432033-7.29708 3.947092-8.949461.213819-.080678.939356-.402158 2.107664-1.007635 2.15261-1.115587 4.609226-2.601758 7.301634-4.502976 7.95106-5.61456 16.007367-13.422619 23.613362-23.795337 5.175772-7.058496 9.913372-15.003435 14.131999-23.885684zm-169.009443 81.975593-2.16263-6.490421h-116.667473l-1.169897 3.511056 61.241414 73.488944zm9.591827 22.509579-53.591827 64.81727 125 151.18273zm-211.591827 221 130-157.482014-55.735498-67.517986zm-18.485054 60.120388-10.514946 31.879612h346l-12.875727-39.037113-158.352508-191.962887zm108.485054-342.120388 34-18.375373-28.910294-15.624627zm57-6-41 20h82zm-2.710543-91-45.949858 26.986927-2.339599 14.986917 48.289457 25.026156 42.710543-22.134866-3.39965-21.777357zm19.710543-7.641795 14 7.641795-2.351575-14zm27.808479 70.641795-23.808479 12.867339 28 15.132661zm-87.777205-82-4.031274 24 24-13.10022zm11.968726-43 14-7.736246-11.335282-6.263754zm26.493051 5-32.493051 20.302267 32.493051 17.697733 29.506949-16.071319-.656947-3.902659zm2.169907-77-22.36719 17.716536-2.295768 14.21821 24.662958 16.065254 19.337042-12.595996-3.719129-23.033414zm22.575694 57-3.238652 4.474109 4 5.525891zm-39.54046-70.049499-.250516 2.098998 1.104648-1.183724zm17.470048-30.950501-11.16824 9.956216 11.16824 10.043784 8.83176-7.942549-.68143-4.791628zm2.83176-24.835738-5.32971-32.164262-4.67029 28.184753 7.60065 5.815247zm48-41.164262 2.612507 15.500943 3.876151 12.499057 60.511342-28zm-153 283h-82l75.992713 38zm-11.973341 73.573208-.101875.853584.150432-.821424zm32.709498-174.573208 8.263843-53h-163zm27.263843-183h-67l61.698278 34zm298 125h-173l11.910147 53zm-67 163h-82l5.156797 34z"/></svg>