<svg height="960" viewBox="0 0 960 960" width="960" xmlns="http://www.w3.org/2000/svg"><path d="m556.030802 5.21777917 2.838039.35492625c57.696191 3.15546401 111.595018 31.36800168 152.370631 77.72882618 40.800977 46.3896644 66.114809 108.2276624 70.79219 175.0574424 4.247424 60.686632-8.910563 119.724696-36.943021 168.881827-17.937398 31.454645-41.453202 57.934305-68.989617 77.644663.835154 3.322325 1.35424 6.753486 1.548696 10.267793.322213 5.823189 5.624301 81.166751 13.485857 191.917315 6.034666 85.014033 13.00357 182.749482 13.170464 184.793171.451187 5.524987.260049 10.772092-.856919 16.091009-1.478416 7.040106-4.495937 13.51527-8.96158 19.051992-1.351353 1.675473-3.487704 3.995378-6.312878 6.971392-3.229114 3.401522-5.63317 5.832395-7.837761 7.762037-8.644428 7.56632-19.23837 11.390449-30.190412 11.79518-.08194.003028-.163889.005804-.245847.008328-84.971191 2.616945-150.131735 3.927041-195.60866 3.927041-22.736578 0-64.853622-.801693-114.172967-2.065063-19.682158-.504181-39.08942-1.048683-54.348442-1.519949-7.203554-.222477-13.216745-.420604-17.596291-.579836-6.426166-.233642-8.369508-.320046-10.476935-.557212-5.060993-.569555-9.508933-1.962683-13.573615-3.893188-2.663803-1.265162-5.025167-2.701531-7.227736-4.28799-2.856032-2.057133-5.320323-4.271526-7.685096-6.719747-3.01603-3.122461-5.861811-6.639338-8.637058-10.484045-2.203206-3.052226-4.333689-6.288129-6.081272-9.218929-1.0087-1.691649-1.911504-3.313794-2.716572-4.928982-.661929-1.328013-1.266061-2.658799-1.852438-4.174147-1.758258-4.543786-2.816917-8.468414-2.816917-14.887162 0-2.930435.471384-10.764867 1.687883-29.244402 1.071042-16.269941 2.675144-39.873224 4.813187-70.823761 4.272566-61.850127 10.679974-153.078094 19.222768-273.691947.267866-3.781932.773794-8.895577 1.526319-15.545134 1.354581-11.969521 6.281574-23.253494 14.137956-32.383599.702419-.816299 1.423134-1.613713 2.163872-2.389918-14.253259-14.484962-26.7948-30.923398-37.318053-48.889786-20.521267-35.036036-32.901101-75.045306-35.845198-117.110174-3.118914-44.562626 4.573604-88.295528 21.993279-127.529274 16.970094-38.221169 42.747952-71.159284 74.882544-95.4220341l-.013998-.017508c11.623851-9.2943229 23.778544-18.213835 36.460864-26.7585159 19.137928-12.8941307 36.606856-22.7028843 51.609209-29.5100072 1.249482-.5669363 2.549211-1.1435731 3.884113-1.7227593 21.633178-9.9490587 44.665577-15.9069548 68.462843-17.56953223 1.101929-.0769854 2.2038-.14464134 3.305513-.20005641.110832-.01028699.24944-.02317223.425885-.03957826l.073708-.00684985c.434444-.04035043.869519-.07358989 1.30505-.09970503 26.29691-1.57680399 46.18267-2.37120196 59.956064-2.37120196 13.855163 0 32.508489.80148396 56.192349 2.38905041zm-308.921924 888.65340283c-.002907.112978-.004233.207253-.004233.28329 0 1.490427 10.712847 18.355436 15.063991 18.845106 4.307634.484773 139.458575 4.391863 190.597617 4.469957l1.523731.001187c44.988908 0 109.781349-1.302695 194.377323-3.908084 2.176919-.080447 3.951114-.720884 5.322586-1.92131 2.057208-1.80064 8.616891-8.824421 9.360625-9.74654.743735-.922118 1.428739-2.581272 1.086237-6.775361l-.013481-.162698-.004107-.061845c-.352438-4.575291-5.058352-67.930206-10.371439-139.794272l.049106-.000487c-10.70807.168727-19.484599.306196-26.329828.412411l3.161582 68.149878c.845682 18.235463-13.710582 33.482428-31.965644 33.482428h-63.117764c-17.145901 0-31.245002-13.514012-31.971277-30.644494l-2.944357-69.396571c-10.875604.062509-20.997811.093769-30.366918.093769-44.302162 0-115.277647-.699119-212.95007-2.097204l-.18549-.006391c-6.742271 90.534751-10.181668 133.433437-10.31819 138.777231zm265.419138-335.387898 11.327935 267.169861c.272353 6.423942 5.559517 11.491697 11.989229 11.491697h63.117764c6.845648 0 12.304247-5.717612 11.987114-12.555948l-12.115604-261.270569c-9.392176 1.334637-20.081526 1.675485-31.983531.927845-12.592386-.791008-36.094147-3.194414-54.322907-5.762886zm-211.9288-50.1622c-9.75116 1.917351-17.013302 5.649511-21.786425 11.196482-2.290898 2.662313-3.834529 5.874075-4.487033 9.307452l-.224666 1.484059c-.694856 6.139974-1.152378 10.764342-1.372564 13.873106-5.487487 77.476635-10.093594 140.661136-13.818321 190.943191l-1.011398-.022983c97.584132 1.396821 168.479943 2.095155 212.663819 2.095155 9.118805 0 18.958585-.029753 29.51906-.089268l-7.734778-182.436c-6.010177-1.206588-10.82698-2.296752-13.389326-2.778288-45.7079-8.589782-106.315746-30.323952-112.89998-32.247941-21.663314-6.330269-45.447991-15.259568-65.458388-11.324965zm319.4938 47.014926c-.498721.284898-1.021259.568605-1.568027.850139l8.315606 179.338351c6.674224-.103484 15.250651-.237751 25.729049-.402797-6.658943-90.160668-13.720743-186.257732-14.126575-193.592148-.772341-13.958126 1.033462 2.733511-18.350053 13.806455zm13.307615-48.50125-.032902.016796c-14.125847 6.558456-28.986061 11.308257-44.372279 14.079711l.524246-.146049c-.873458.253682-1.780223.451389-2.717321.589494-22.327955 3.290574-39.640819 5.807843-51.948557 7.553167-4.122665.584623-22.37879 3.379932-22.61803 3.415865-4.247109.637891-7.996332 1.182985-11.584785 1.67969-1.964855.271971-3.870834.527904-5.720409.767499 1.930016.392775 3.728718.747506 5.589642 1.099998 4.053574.76782 7.895455 1.422831 11.5861 1.961325 9.482559 1.383578 20.461125 2.711909 31.560752 3.858252 9.218955.952111 17.918236 1.710366 22.96656 2.027483 11.615113.729618 21.491039.230232 29.582466-1.254247 6.206222-1.138613 10.907103-2.771969 13.956386-4.513889 2.475141-1.413939 4.374711-2.978908 5.87599-4.676162 1.074629-1.214908 1.860839-2.386858 2.618809-3.784119.145886-.268929.964043-1.848399 1.254794-2.372162.256278-.461662.516307-.904525.823359-1.384709.588342-.92008 1.231348-1.80294 2.099772-2.773377.765162-.855043 1.624585-1.680514 2.659319-2.488644 1.65601-1.293347 3.563491-2.392857 5.865137-3.18448 2.043158-.702719 4.145378-1.060566 6.232446-1.092264-.439641-3.426737-1.974688-6.585689-4.201495-9.379178zm-166.112159-463.0585668c-.228451.0107061-.457658.0215029-.68762.0323905l-.884376.0421395c-7.104537.3406648-14.917845.7664958-23.439924 1.277493-.438021.0406827-.872365.0815231-1.302076.1195477-1.136623.0544726-2.27481.1214707-3.414469.2010921-13.357564.9332158-26.273279 3.5555483-38.623685 7.6926024-9.296564 3.6295565-18.304816 8.3312978-26.953763 14.0638161-19.814858 13.1332789-37.468078 31.5083516-51.955606 54.0425075-29.904368 46.513779-44.664832 107.907974-40.169342 172.138938 4.495507 64.231196 27.664573 122.975928 63.757606 164.879375 17.485814 20.300756 37.527249 36.04267 58.979153 46.293123 9.41776 4.500128 19.050199 7.917074 28.819967 10.218644 10.530652 1.937283 21.293568 2.814094 32.209178 2.535049.088368.004191.178347.006287.269937.006287 9.395578 0 22.120583-1.447437 34.777404-3.212768-30.86654-10.434529-59.535899-29.051129-83.913916-54.582268-11.646386-12.197281-22.083322-25.730124-31.177573-40.344511-23.782639-36.337379-38.473215-79.97918-41.785146-126.464793-1.143399-16.049377-.897624-31.955506.676863-47.526105 3.911771-50.028114 20.546718-96.938069 47.840432-134.956109 20.733181-28.879722 46.754623-51.4183787 76.125349-66.0368539zm68.880232 1.6726628c-16.529918 1.1548499-32.38848 4.8208482-47.342172 10.6727302 2.750172-.3135035 5.510537-.5678457 8.282422-.7580936 54.043848-3.7091468 106.353189 17.4508989 146.629074 57.7696634 40.007054 40.049647 65.192332 96.043538 69.552124 157.236755 4.359988 61.199141-12.64396 120.100374-46.592267 165.237771-23.376472 31.081168-53.600222 54.05328-87.663469 66.656153 3.604697-.492694 7.171754-1.111486 10.70061-1.847026 10.260582-2.138652 20.198503-5.26445 29.750567-9.289754.087863-.037026.175194-.073917.262492-.110883.815802-.345445 1.629142-.697615 2.439617-1.056301.049011-.021691.097964-.043384.146906-.065101 4.471511-1.984115 8.855684-4.166646 13.145901-6.538382 1.931504-1.067795 3.843213-2.173487 5.735292-3.316659.542451-.327741 1.083742-.658843 1.623404-.993012.256316-.158716.511998-.317958.767312-.477888 4.125634-2.584306 8.155252-5.348454 12.082202-8.283362.076952-.057512.153328-.114688.229666-.171929.75904-.569151 1.514736-1.14508 2.266533-1.727339.041229-.031931.082206-.063696.123172-.095479 7.467917-5.793957 14.550558-12.213113 21.201946-19.193583.135742-.142456.272287-.286183.40865-.430147.505738-.533936 1.008187-1.070287 1.508111-1.609856.231038-.249358.461674-.499553.691768-.750434.427159-.465749.852196-.933577 1.275355-1.403745.248877-.276522.497714-.554538.745896-.833365.447746-.503036.892842-1.008116 1.335795-1.515805.188788-.216376.377992-.434157.566802-.652414.593138-.685653 1.181539-1.374997 1.766027-2.068976.039596-.047014.080178-.095241.12074-.14349 1.980821-2.356254 3.915743-4.764697 5.804214-7.224379.059817-.077911.119746-.15608.179629-.2343.56766-.741499 1.130989-1.487479 1.690066-2.238041.080345-.107863.160564-.215769.240694-.323769 6.470147-8.720493 12.367459-18.056094 17.630746-27.921564.069935-.131084.140083-.262874.210117-.394758.396672-.746987.789381-1.496354 1.178441-2.248701.12901-.249471.258032-.500078.38665-.751013.360139-.702643.716666-1.406986 1.070005-2.113869 1.042367-2.085318 2.057358-4.193523 3.044042-6.323082 1.357324-2.929546 2.660678-5.898543 3.909073-8.905946.062375-.150262.124923-.301368.187331-.452572.359193-.870257.713512-1.743021 1.063209-2.618932.038786-.097151.07783-.19513.116816-.293148.349097-.877704.693329-1.75797 1.032895-2.641334.044962-.116968.089836-.233972.134628-.351031 3.734286-9.759109 6.89948-19.894701 9.449457-30.342549.031815-.130353.063482-.260538.095052-.390772.215726-.889885.427016-1.78214.633817-2.676613.06497-.281014.129668-.562993.193919-.845192.176682-.776018.349824-1.552938.519578-2.331483.067652-.31027.134818-.621044.201444-.932075.159393-.744097.315667-1.489524.468834-2.236399.297059-1.448531.582394-2.902287.855933-4.361323l.602469-3.331629.540903-3.222479c.070277-.435115.139512-.87067.207702-1.306659.103062-.658954.203731-1.318874.302002-1.979771.053895-.36246.107079-.725282.159539-1.088395.114694-.793876.225922-1.589088.333675-2.38567.031756-.234765.063217-.4697.094376-.704754.123408-.930949.242062-1.863682.355944-2.798233.030416-.249598.060528-.499632.090298-.749796.115816-.973225.226438-1.948206.331858-2.925097.010835-.100408.021616-.200835.032341-.301283 1.04991-9.832825 1.57287-19.858729 1.536295-30.032245-.000702-.195345-.001611-.390932-.002728-.586574-.005782-1.013063-.017109-2.027426-.034015-3.043198-.002438-.146459-.004994-.293093-.007667-.439757-.017267-.947571-.039384-1.896208-.066381-2.846027-.009326-.328103-.019238-.656484-.029734-.985005-.029231-.914891-.062977-1.830561-.101271-2.747281-.06029-1.443273-.131852-2.889151-.214778-4.337508l-.227324-3.572978-.280848-3.669322c-.323019-3.886959-.724878-7.744736-1.203495-11.571152-.046249-.36975-.093215-.739206-.140895-1.108369-.616604-4.773974-1.352755-9.498646-2.204393-14.169763-.00783-.042947-.01567-.08589-.02352-.128829-1.725821-9.440333-3.923359-18.661573-6.559089-27.628693-.646821-2.200571-1.320017-4.385796-2.019106-6.555198-3.990724-12.384116-8.825659-24.253491-14.412262-35.510578-.130118-.26219-.260644-.524048-.391577-.785573-1.486341-2.96881-3.024984-5.894489-4.614313-8.775427-.016486-.029883-.032977-.059761-.049474-.089635-3.270264-5.922097-6.754741-11.654899-10.438634-17.182929-.215903-.323982-.43249-.647261-.64976-.969833-.362353-.537971-.726394-1.073673-1.092317-1.607398-.220174-.321142-.44103-.641567-.662564-.961274-5.915618-8.537118-12.314583-16.561496-19.139647-24.013196-.223225-.243722-.447324-.487283-.671878-.730228-.476987-.516049-.956029-1.029315-1.437107-1.539776-.364576-.386845-.730612-.772385-1.097812-1.156303l-2.124439-2.189884c-.749007-.761183-1.502671-1.5157101-2.260924-2.2635074-.916104-.9034695-1.838692-1.7969136-2.767853-2.6804122-.15699-.1492742-.314166-.2982645-.47153-.4469702-2.112909-1.9966614-4.25975-3.9422113-6.438898-5.8349683-.228061-.1980881-.456475-.395598-.685242-.5925279-1.421771-1.2239111-2.857409-2.4256356-4.306266-3.6045421-.094721-.0770721-.189498-.1540467-.284331-.2309237-1.358597-1.1013537-2.728906-2.182775-4.11047-3.2438163-1.058136-.8126489-2.122874-1.6133429-3.194068-2.4019307-1.25403-.9231868-2.516969-1.8298244-3.788527-2.7196263-2.909794-2.0361912-5.864556-3.9841177-8.86167-5.8409841-1.404017-.869862-2.817455-1.7198153-4.239904-2.5494828-.496841-.289791-.994781-.5771071-1.493809-.8619356l-2.051638-1.1535846-2.596656-1.4106313c-.391775-.2087135-.784181-.4159098-1.177211-.6215831-.652147-.3412708-1.306221-.6784536-1.961989-1.0114134-2.951294-1.4984892-5.936911-2.9114427-8.954492-4.2363898-1.502417-.6596771-3.01294-1.2976125-4.531099-1.9134215-4.011332-1.6271128-8.075963-3.0997523-12.18852-4.412292-.792988-.2530858-1.587837-.5002429-2.384429-.7414061-3.963893-1.2000425-7.970962-2.2516656-12.016461-3.1498976l-2.864124-.6089428-2.894495-.5608346c-7.328527-1.3508522-14.773765-2.1994161-22.308218-2.5168963l-2.283876-.079865c-5.172641-.1438268-10.385832-.0371507-15.63074.3292807zm-37.690291 29.867697c-11.042776.7579206-21.871177 2.6605606-32.395117 5.692034-32.963239 17.0081704-60.67247 45.833316-79.380889 82.409509-13.017994 25.451039-21.300834 53.882922-24.325556 83.709153-1.016741 13.235514-1.081206 26.792905-.11739 40.56378 3.173372 45.34072 17.06309 86.839674 38.411621 121.085241 4.588798 6.962667 9.537304 13.626726 14.827117 19.952993 30.096252 35.993137 69.449058 58.866753 111.465119 64.267674.439452-.022067.879129-.050405 1.318863-.080584 48.067279-3.299091 91.638928-28.388148 122.43191-69.330249 31.023-41.247933 46.646641-95.367816 42.626626-151.794906-4.020647-56.433055-27.171328-107.903468-63.752347-144.523432-36.312196-36.3508557-83.034258-55.2507508-131.109957-51.951213zm-195.979948 411.710739c-.636074.097097-1.26953.208178-1.899249.331998-3.177741.624833-6.091149 1.442398-8.740222 2.452697 1.588739-.41602 3.216471-.787738 4.881549-1.115139 2.195227-.431643 4.418763-.755759 6.675647-.977618-.314181-.220882-.619911-.452247-.917725-.691938zm2.223325-378.926546-1.325297 1.034567c-1.361744 1.065668-2.715506 2.136539-4.061286 3.212612-54.071627 40.424864-87.388619 111.077944-81.93944 188.93508 5.140824 73.451405 43.555671 135.755816 97.57512 169.87176l.013204.252752c1.506007.846526 2.999055 1.678032 4.476561 2.496393 4.969562 2.948671 10.06317 5.662222 15.270681 8.12328 2.400382 1.227543 4.762013 2.41017 7.084895 3.547882-4.58311-4.490849-9.038961-9.246051-13.354686-14.25654-38.977351-45.252094-63.765505-108.101993-68.555125-176.535439-4.789636-68.43368 11.00254-134.119145 43.297403-184.351142.502558-.781687 1.008558-1.558765 1.51797-2.331205zm253.242235 90.815022c17.937394 0 34.657931 8.132406 46.859901 22.163611 11.954879 13.747073 18.73862 32.19003 18.73862 51.769861s-6.783741 38.022788-18.73862 51.769861c-12.20197 14.031206-28.922507 22.163611-46.859901 22.163611s-34.657932-8.132405-46.859901-22.163611c-11.954879-13.747073-18.73862-32.19003-18.73862-51.769861s6.783741-38.022788 18.73862-51.769861c12.201969-14.031205 28.922507-22.163611 46.859901-22.163611zm0 20c-11.955446 0-23.251344 5.494011-31.768281 15.28775-8.764028 10.07787-13.83024 23.851382-13.83024 38.645722s5.066212 28.567852 13.83024 38.645723c8.516937 9.793738 19.812835 15.287749 31.768281 15.287749s23.251344-5.494011 31.768281-15.287749c8.764028-10.077871 13.83024-23.851383 13.83024-38.645723s-5.066212-28.567852-13.83024-38.645722c-8.516937-9.793739-19.812835-15.28775-31.768281-15.28775z"/></svg>