<svg height="960" viewBox="0 0 960 960" width="960" xmlns="http://www.w3.org/2000/svg"><g fill="#000" fill-rule="evenodd"><path d="m582 418v108.834522l-15.584-.000522.000667 44.422776-41.308667-.000776.000466 19.744h-72.722223l-.000243-19.744-41.307958.000776-.000042-44.422776-16.078.000522v-108.834522zm-149 12c-2.761424 0-5 2.237559-5 4.997728v34.004544c0 2.760169 2.238576 4.997728 5 4.997728s5-2.237559 5-4.997728v-34.004544c0-2.760169-2.238576-4.997728-5-4.997728zm18 0c-2.761424 0-5 2.237559-5 4.997728v34.004544c0 2.760169 2.238576 4.997728 5 4.997728s5-2.237559 5-4.997728v-34.004544c0-2.760169-2.238576-4.997728-5-4.997728zm18 0c-2.761424 0-5 2.237559-5 4.997728v34.004544c0 2.760169 2.238576 4.997728 5 4.997728s5-2.237559 5-4.997728v-34.004544c0-2.760169-2.238576-4.997728-5-4.997728zm20 0c-2.761424 0-5 2.237559-5 4.997728v34.004544c0 2.760169 2.238576 4.997728 5 4.997728s5-2.237559 5-4.997728v-34.004544c0-2.760169-2.238576-4.997728-5-4.997728zm18 0c-2.761424 0-5 2.237559-5 4.997728v34.004544c0 2.760169 2.238576 4.997728 5 4.997728s5-2.237559 5-4.997728v-34.004544c0-2.760169-2.238576-4.997728-5-4.997728zm18 0c-2.761424 0-5 2.237559-5 4.997728v34.004544c0 2.760169 2.238576 4.997728 5 4.997728s5-2.237559 5-4.997728v-34.004544c0-2.760169-2.238576-4.997728-5-4.997728zm18 0c-2.761424 0-5 2.237559-5 4.997728v34.004544c0 2.760169 2.238576 4.997728 5 4.997728s5-2.237559 5-4.997728v-34.004544c0-2.760169-2.238576-4.997728-5-4.997728z"/><path d="m684 54c58.542183 0 106 47.457817 106 106s-47.457817 106-106 106c-15.747614 0-30.693176-3.433993-44.128704-9.593998-2.357903 3.949923-4.466945 7.48394-6.551464 10.976863l-.776792 1.301631-.777106 1.302159c-7.910958 13.255996-16.272158 27.266441-37.327486 62.547799 47.089286 32.07989 78.846672 84.992871 82.016671 145.478204l74.153144.000699c1.061428-57.739998 48.199044-104.220087 106.192666-104.220087 58.658688 0 106.210951 47.552262 106.210951 106.210951 0 58.658688-47.552263 106.210951-106.210951 106.210951-52.519639 0-96.135935-38.119742-104.690194-88.20053l-75.655668-.000103c-3.185541 60.775747-35.233653 113.906158-82.694187 145.941083l42.407653 61.86964c14.513054-7.465272 30.972689-11.679101 48.416516-11.679101 58.539016 0 105.994264 47.455248 105.994264 105.994263s-47.455248 105.994263-105.994264 105.994263c-58.539015 0-105.994263-47.455248-105.994263-105.994263 0-33.921457 15.934646-64.121178 40.726953-83.522178l-42.738335-62.353116c-26.224162 13.889183-56.128557 21.755279-87.870177 21.755279-34.877377 0-67.536599-9.497049-95.532708-26.046189-14.947521 25.17462-22.219509 37.422178-28.814949 48.530287l-.484508.816014c-.080582.135718-.161089.271307-.241532.40679l-.789665 1.329963c-.28054.472487-.560826.944549-.841414 1.417118l-.561743.946093c-2.043059 3.440942-4.121535 6.941534-6.447979 10.859755 26.560001 19.260072 43.83294 50.542972 43.83294 85.860184 0 58.539015-47.455248 105.994263-105.994264 105.994263-58.539015 0-105.994263-47.455248-105.994263-105.994263s47.455248-105.994263 105.994263-105.994263c16.064049 0 31.293444 3.573579 44.936579 9.969133 2.570605-4.328701 4.839111-8.149342 7.090453-11.941076l.788333-1.327719c.248391-.418343.496981-.83702.746153-1.256679l.499237-.840819c.269791-.454386.54056-.910418.812788-1.368907l.409498-.689681.41205-.693979c6.339513-10.677074 13.706757-23.085064 27.977691-47.120322-43.387004-32.314884-72.356424-82.905865-75.516622-140.374124l-93.598586-.000942c-8.751984 49.721796-52.159818 87.498954-104.390979 87.498954-58.5421835 0-106-47.457817-106-106s47.4578165-106 106-106c58.542183 0 106 47.457817 106 106l-.013-1.5 91.9514.000437c3.209385-64.401282 38.824471-120.269823 90.873832-151.634198l-49.771994-72.868061c-14.664633 7.666449-31.346145 12.001822-49.040238 12.001822-58.542183 0-106-47.457817-106-106s47.457817-106 106-106 106 47.457817 106 106c0 33.674143-15.702291 63.680819-40.184302 83.097459l50.76377 74.322028c24.051728-11.17524 50.862209-17.4137 79.129759-17.4137 32.047274 0 62.22177 8.018317 88.626723 22.158188 20.325561-34.057429 28.802237-48.261372 36.489776-61.142996l.501787-.84082c.250446-.419659.500305-.838335.749965-1.256678l.792361-1.32772c2.134012-3.575858 4.283368-7.177425 6.689589-11.20941-26.971146-19.216111-44.559428-50.747249-44.559428-86.386351 0-58.542183 47.457817-106 106-106zm-391.166595 680.146161c-36.447625 0-65.994263 29.546638-65.994263 65.994263s29.546638 65.994263 65.994263 65.994263c36.447626 0 65.994264-29.546638 65.994264-65.994263s-29.546638-65.994263-65.994264-65.994263zm391.751644 0c-36.447625 0-65.994263 29.546638-65.994263 65.994263s29.546638 65.994263 65.994263 65.994263c36.447626 0 65.994264-29.546638 65.994264-65.994263s-29.546638-65.994263-65.994264-65.994263zm-195.875822-394.140374c-81.74218 0-148.00731 66.26513-148.00731 148.007311 0 81.74218 66.26513 148.007311 148.00731 148.007311 81.742181 0 148.007311-66.265131 148.007311-148.007311 0-81.742181-66.26513-148.007311-148.007311-148.007311zm368.091702 73.787483c-36.567299 0-66.210952 29.643652-66.210952 66.210951 0 36.567298 29.643653 66.210951 66.210952 66.210951 36.567298 0 66.210951-29.643653 66.210951-66.210951 0-36.567299-29.643653-66.210951-66.210951-66.210951zm-753.800929.20673c-36.4507935 0-66 29.549207-66 66s29.5492065 66 66 66c36.450793 0 66-29.549207 66-66s-29.549207-66-66-66zm581-320c-36.450793 0-66 29.549207-66 66s29.549207 66 66 66 66-29.549207 66-66-29.549207-66-66-66zm-391 0c-36.450793 0-66 29.549207-66 66s29.549207 66 66 66 66-29.549207 66-66-29.549207-66-66-66z" fill-rule="nonzero"/></g></svg>