<?xml version="1.0" encoding="UTF-8"?>
<svg width="960px" height="960px" viewBox="0 0 960 960" version="1.1" xmlns="http://www.w3.org/2000/svg" xmlns:xlink="http://www.w3.org/1999/xlink">
    <!-- Generator: Sketch 60.1 (88133) - https://sketch.com -->
    <title>de.dresden-elektronik.zigbee/driver/assets/icon</title>
    <desc>Created with Sketch.</desc>
    <g id="de.dresden-elektronik.zigbee/driver/assets/icon" stroke="none" stroke-width="1" fill="none" fill-rule="evenodd">
        <path d="M906,360 C934.166522,360 957,382.833478 957,411 L957,411 L957,595 C957,623.166522 934.166522,646 906,646 L906,646 L55,646 C26.8334778,646 4,623.166522 4,595 L4,595 L4,411 C4,382.833478 26.8334778,360 55,360 L55,360 Z M206,400 L55,400 C48.9248678,400 44,404.924868 44,411 L44,411 L44,595 C44,601.075132 48.9248678,606 55,606 L55,606 L647,606 L647,577 L647.003684,576.536969 C647.246531,561.28656 659.464048,549 674.5,549 C689.535952,549 701.753469,561.28656 701.996316,576.536969 L702,577 L702,606 L745.961,606 L745.543,400 L261,400 L261,430 L260.996316,430.463031 C260.753469,445.71344 248.535952,458 233.5,458 C218.464048,458 206.246531,445.71344 206.003684,430.463031 L206.003684,430.463031 L206,430 L206,400 Z M906,400 L765.542,400 L765.96,606 L906,606 C911.978702,606 916.843365,601.230236 916.996293,595.288407 L917,595 L917,411 C917,404.924868 912.075132,400 906,400 L906,400 Z M860.5,542 C871.269553,542 880,550.730447 880,561.5 C880,572.269553 871.269553,581 860.5,581 C849.730447,581 841,572.269553 841,561.5 C841,550.730447 849.730447,542 860.5,542 Z M860.5,424 C871.269553,424 880,432.730447 880,443.5 C880,454.269553 871.269553,463 860.5,463 C849.730447,463 841,454.269553 841,443.5 C841,432.730447 849.730447,424 860.5,424 Z" id="Combined-Shape" fill="#000000" fill-rule="nonzero"></path>
    </g>
</svg>