<?xml version="1.0" encoding="UTF-8"?>
<svg width="960px" height="960px" viewBox="0 0 960 960" version="1.1" xmlns="http://www.w3.org/2000/svg" xmlns:xlink="http://www.w3.org/1999/xlink">
    <!-- Generator: Sketch 60.1 (88133) - https://sketch.com -->
    <title>de.dresden-elektronik.zigbee/driver/assets/icon_ledstrip</title>
    <desc>Created with Sketch.</desc>
    <g id="de.dresden-elektronik.zigbee/driver/assets/icon_ledstrip" stroke="none" stroke-width="1" fill="none" fill-rule="evenodd">
        <path d="M285.139594,34.5877269 C300.279257,33.3258146 314.236769,33.5236687 327.020668,35.213385 C343.514609,37.3934776 361.511611,43.3258698 381.099623,52.9115099 C400.377628,62.3454444 409.441478,84.7962033 402.119267,104.963462 L402.119267,104.963462 L400.688391,108.910337 C353.785212,238.480037 322.210556,344.920402 305.960674,428.095678 C293.882985,489.915517 286.820602,559.627861 284.50119,631.904856 C282.557217,692.4825 284.080504,752.584323 288.315336,802.088534 L288.315336,802.088534 L288.611683,805.485693 C288.794701,807.543463 289.008561,809.540527 289.252648,811.478516 C353.823008,756.985763 416.039434,661.570156 475.904523,525.232866 C564.306355,323.905737 622.243259,161.334623 648.751555,97.076828 L651.006406,80.5436525 C654.306688,56.2151355 674.472529,37.690812 698.993158,36.463066 C713.912396,35.7160609 728.725849,36.5135586 743.416618,38.8554027 C752.633959,40.3247318 761.875757,41.8701004 771.164191,43.4953995 L771.164191,43.4953995 L776.704377,44.4734082 C805.931344,49.6779433 825.476226,77.4991198 820.461289,106.759215 C805.932526,191.528572 791.532154,272.069982 777.25996,348.384064 C884.619324,213.659355 1016.64967,82.4088814 1070.8156,62.1689909 C1116.88665,44.9538678 1121.26774,63.7690049 1083.95886,118.614402 C989.746052,231.39084 915.742507,326.977657 861.948222,405.374854 C816.438031,471.699211 757.047457,600.919668 683.776501,793.036225 C679.226869,813.202513 674.512185,834.011935 669.631591,855.468081 L669.631591,855.468081 L668.320973,861.227863 C661.935688,889.279769 635.952237,908.411451 607.269435,906.180267 C591.272278,904.935876 578.060044,902.804963 567.516729,899.698583 C557.054174,896.615996 544.160467,891.327027 528.664564,883.814711 L528.664564,883.814711 L527.760053,883.375095 C501.256988,870.461986 487.781817,840.442379 495.746956,812.057218 C521.793251,719.236702 544.618437,632.699891 564.222469,552.450542 C563.350599,554.68736 562.506397,556.853569 561.68975,558.94995 C523.890615,655.982531 462.052432,845.769883 349.804235,904.700407 C348.888924,905.180947 347.975911,905.649201 347.065278,906.104963 C336.377169,913.982401 320.032459,917.858879 300.581409,916.836607 C274.340914,915.457507 242.800829,905.465665 206.927492,885.946372 C166.385528,863.886798 143.625231,809.268326 134.96104,728.4616 C133.130808,711.39191 131.947505,693.196749 131.382858,674.034799 C107.187703,710.722702 84.17003,739.587768 62.3309443,760.629447 C-59.7401632,878.24339 -114.066264,889.941742 -154.688755,908.763186 C-181.770415,921.310815 -181.770415,905.987916 -154.688755,862.794488 C-41.5558776,753.207559 36.4465737,657.446328 79.3185992,575.510796 C109.733246,517.383375 137.142321,447.265434 161.545825,365.156973 C179.21982,279.436543 205.82946,180.629659 241.366002,68.6901831 C247.344641,49.8575785 264.049434,36.4584985 283.730659,34.7090729 L283.730659,34.7090729 Z M323.089597,64.9547145 C312.542605,63.5606621 300.720392,63.3930769 287.672676,64.4805653 L287.672676,64.4805653 L286.345875,64.594838 L286.006229,64.6289249 C278.540575,65.4433737 272.239326,70.5868722 269.959716,77.7676036 C217.283077,243.69808 184.503547,380.119253 171.59624,486.871468 C160.629763,577.571704 157.837125,660.416571 164.790067,725.263297 C172.498528,797.156391 191.846982,843.587376 221.265885,859.594702 C250.869958,875.702783 276.346801,884.312165 296.905007,886.462758 L296.905007,886.462758 L297.304,886.503 L297.123374,886.381659 C275.920177,871.950134 262.421546,846.994376 258.839458,809.336817 L258.839458,809.336817 L258.729639,808.143406 C254.161794,756.784771 252.489724,694.104477 254.516625,630.942633 C256.884565,557.153429 264.106037,485.870729 276.517325,422.343356 C293.105156,337.438288 325.093871,229.602097 372.482165,98.6922752 L372.482165,98.6922752 L373.917932,94.7319115 C376.01069,88.9679137 373.421019,82.5534118 367.913018,79.8580022 C351.051507,71.6066099 336.081051,66.6718646 323.089597,64.9547145 Z M737.290084,68.2630848 C725.119621,66.4188529 712.859082,65.8063817 700.493376,66.4255316 C690.396647,66.9310741 682.093065,74.558737 680.734063,84.5768184 L680.734063,84.5768184 L675.979632,119.377888 C675.881119,120.09553 674.797796,128.389382 673.620393,137.33708 L673.508003,138.190997 L670.97132,157.258387 C668.398675,176.257887 665.660507,195.522031 662.611398,215.780066 L662.611398,215.780066 L661.731637,221.59575 C651.841506,286.648735 640.397665,351.049393 627.117681,412.946194 C602.111722,529.496704 568.802362,662.185922 527.18941,811.029383 L527.18941,811.029383 L524.631303,820.162432 C520.583445,834.587678 527.431483,849.843544 540.887016,856.399502 L540.887016,856.399502 L541.764925,856.826188 C555.886544,863.672253 567.349228,868.37422 575.995297,870.921615 C584.28183,873.363079 595.52075,875.175729 609.596053,876.270622 C623.442923,877.347746 635.986658,868.111762 639.068964,854.570539 L639.068964,854.570539 L642.948274,837.510494 C683.806453,657.641544 712.723669,524.327045 729.688476,437.631328 L729.688476,437.631328 L730.733213,432.273548 C749.418634,336.101161 768.331762,232.537218 787.472106,121.58314 L787.472106,121.58314 L790.89244,101.691361 C793.121301,88.6868735 784.434686,76.3219061 771.467064,74.0127049 L771.467064,74.0127049 L765.971199,73.04252 C756.853848,71.4471739 747.761439,69.9267853 738.69397,68.4813472 L738.69397,68.4813472 Z" id="Combined-Shape" fill="#000000"></path>
    </g>
</svg>