<svg height="960" viewBox="0 0 960 960" width="960" xmlns="http://www.w3.org/2000/svg"><path d="m345.629332 70.8844131c15.110131-1.3289096 29.171732-1.171267 42.205358.5460187 16.695697 2.199793 34.417544 8.0104299 53.349647 17.2237915 25.517093 12.4179647 37.710796 41.9442147 28.41265 68.7297307l-.039879.114183-.16375.461139-2.32556 6.405318-1.958831 5.421029-1.931879 5.372498-2.406286 6.72929-2.212923 6.226539-2.184316 6.183243-2.15571 6.139935c-1.070704 3.059139-2.130681 6.102033-3.179931 9.128674l-2.084197 6.031613c-2.069896 6.009939-4.096885 11.954853-6.08097 17.834687l-1.969783 5.858139c-.977741 2.918221-1.944757 5.820167-2.901046 8.705832l-1.898278 5.749619-1.869677 5.706191c-.618458 1.894824-1.23215 3.782408-1.841076 5.662749l-1.812475 5.619296c-5.993918 18.658552-11.511168 36.592683-16.551827 53.800376l-1.4979 5.140513c-.989068 3.412477-1.959073 6.795888-2.910015 10.150218l-1.412115 5.009681c-9.784733 34.915061-17.467826 66.622972-23.049968 95.105052-14.079224 71.837221-20.258522 156.608045-19.297453 237.648507l.035858 2.821725 1.268146-1.873163c37.056158-55.140787 69.889962-129.143833 94.80499-213.70442l1.062928-3.630465.827059-2.846882 2.481198-8.588832 2.074931-7.237276 2.510002-8.819391 2.117319-7.492112 2.148741-7.649405 3.075491-11.022751 2.712807-9.787763 2.797436-10.148586 3.869047-14.113374 2.874803-10.530218 9.783358-35.928001 2.724005-9.974076 3.283701-11.969604 2.331499-8.44522 2.266472-8.156656 2.204615-7.877043 2.145923-7.606381 2.090398-7.34467 2.038042-7.091911 1.496077-5.158445.982673-3.364637 1.452931-4.938266.955145-3.221349.944828-3.165991.934905-3.111752.92538-3.058633 1.371073-4.490797c.151249-.492617.302143-.983137.45269-1.471584l1.345761-4.340669.88741-2.83344.880062-2.786474.873108-2.740627.866552-2.695899.86039-2.65229.854626-2.609799.849255-2.568429.844283-2.528175.839705-2.489043 1.25184-3.662635.829993-2.396104c.138055-.396385.275978-.791302.413775-1.184775l.825354-2.343697.822755-2.310158.820553-2.277738.818747-2.246436c.13633-.37186.2726-.742462.40882-1.11183l.81678-2.201583.815963-2.173078.815543-2.145693.815518-2.119427.815889-2.09428.816656-2.070251.817818-2.047342c.136422-.339377.272909-.677845.40947-1.015429l.820305-2.015076c.273772-.668277.547903-1.333203.822458-1.994963l.463393-1.1125c.463482-1.108295.927248-2.203988 1.391416-3.287173l.92891-2.149719c7.745981-17.775802 15.626059-32.09436 24.194967-43.38978 12.479483-16.4502857 27.031166-27.3089369 44.690683-30.7044566 9.268067-1.7820364 19.842134-2.3985291 31.489717-2.0486774l1.951164.0672221 1.970804.0849124c.330091.0156149.66099.0319583.992693.0490261l1.999817.1110636c.334897.0199478.670586.0406114 1.007065.0619864l2.028291.1367538c1.698062.1210193 3.415585.2596122 5.151949.4152448l2.092639.1949042 2.110486.2110575 2.128094.2270058 2.145462.2427493c1.436044.1670351 2.883508.3444292 4.342073.531909l2.196132.2887499 2.212545.3036735 2.228716.3183923 2.244651.3329061 2.260344.3472149 2.275799.3613189 1.143621.1858843c4.969466.813904 9.919077 1.7125859 14.698939 2.6583189l2.589462.5202938c4.28471.8741776 8.406606 1.7815714 12.253073 2.6938369l.608658.1446106 2.320389.5572444 1.626191.3983956 1.534668.3845634.975054.2499864 1.394679.3673388 1.318218.3605014.839122.2378312.809323.2367353.781198.2364167.754746.2368753.729967.238111.356215.1197618.695938.241422.675343.2446008.656423.2485567.639175.25329c.105185.0426526.209721.0855348.313643.1286628l.616442.261847.603379.2685231.591989.2759766.582274.2842071.57423.2932149.567861.303.563166.3135621.560145.3249015.558795.3370181c23.061804 14.1725879 35.493776 41.0734249 30.816591 68.1187029l-3.686628 21.56672-5.500698 31.953305-3.281258 18.880516-2.586762 14.746184-2.582316 14.545482-1.630067 9.049811 1.842649-2.08802 2.67157-3.017202 2.673133-3.006886 2.674336-2.996181 2.675182-2.985086 2.675667-2.973601 2.675793-2.961728 2.67556-2.949463 2.674967-2.93681 2.674016-2.923768 2.672705-2.910334 2.671034-2.896513 2.669005-2.8823 2.666616-2.867699 2.663867-2.852708 2.66076-2.837328 2.657293-2.821557 2.653467-2.805397 2.649282-2.788847 2.644736-2.771909 2.639833-2.754579 2.63457-2.736862 2.628947-2.718753 2.622965-2.700255 2.616624-2.681369 2.609923-2.662091 2.602863-2.642425 2.595445-2.622369c.431936-.435369.863547-.869885 1.294827-1.303542l2.583643-2.591554 2.575324-2.570524 2.566648-2.549105 2.557613-2.527295c.425495-.419377.8506-.837828 1.275305-1.255347l2.543385-2.49385c.423079-.413754.845745-.826559 1.267989-1.238406l2.528349-2.45953 2.517875-2.436161 2.507044-2.412404 2.495851-2.388257 2.4843-2.36372c.413068-.391887.825639-.782735 1.237707-1.172537l2.4663-2.326185 2.453851-2.300674 2.441043-2.274773 2.427874-2.248484 2.414348-2.221804c.401244-.368056.801909-.734984 1.201989-1.100775l2.393383-2.181055c.79541-.72243 1.588416-1.440252 2.378957-2.1534l2.364174-2.125357 2.349029-2.096925 1.906889-1.691125c.462913-.409308.947953-.823067 1.467387-1.253239l.806481-.659062c.139223-.112394.28098-.226188.425461-.341568l.901118-.712813c21.144006-16.584308 52.076966-1.297807 51.749254 25.572235l-1.290033 104.719977c-.085135 6.924958-2.414552 13.635405-6.638453 19.12366l-1.480302 1.914986-1.20697 1.542102-48.652448 60.905551-30.393769 41.894885-29.486257 40.763057-1.281993 1.790905-1.422634 2.079777c-41.375083 61.117766-97.737866 186.189687-167.923264 373.654157-4.642812 12.400901-12.136215 26.054047-22.464892 41.31622l-1.30585 1.916178c-.695461 1.013536-1.448743 1.986159-2.256101 2.913033-14.48805 16.632773-36.053073 25.63997-58.488278 23.917148l-1.775478-.141687-1.941729-.166366-1.918418-.176606-1.895406-.187003-1.424114-.148879c-6.550681-.702895-12.600638-1.594149-18.170857-2.688255l-1.490817-.300402-1.632792-.345783-1.471508-.327402c-2.583297-.589462-5.074503-1.233123-7.529308-1.950127l-.520313-.153483-1.301058-.393983-1.390499-.435895-1.397873-.453229-.838708-.278589-.702084-.237316-1.281316-.442154-.481723-.168749-1.661632-.5947-1.443223-.530285-.837252-.313135-1.350908-.51425-1.475295-.572902-1.48922-.589969-.470447-.188566-1.881778-.765755-2.289897-.954208-2.326153-.992933-2.287843-.998441-1.600137-.710347-1.617513-.727706-1.702883-.776062-2.482939-1.149257-2.463787-1.159952-1.796166-.857113-.831409-.399928c-13.079619-6.307353-23.526287-16.09264-30.635613-27.792182l-.223866-.373761-.433706.470396c-15.820409 17.009964-33.048702 30.511467-51.720466 39.993883l-.498828.249721-.747027.450297c-30.424707 17.934123-79.786992 12.056934-137.186983-18.649576l-1.796354-.967662c-29.316804-15.901413-48.972487-46.29267-61.122475-88.102344-3.490116-12.009938-6.377344-25.036785-8.686929-39.024318l-.095232-.578397-.716994.829754c-1.171827 1.348744-2.341756 2.677302-3.50983 3.985684l-1.167456 1.301656-1.711756 1.886354-1.277902 1.391698c-4.397789 4.763281-8.773753 9.242896-13.131073 13.438943-.413169.397876-.82576.794691-1.237777 1.190449l-2.465227 2.361872-2.45155 2.336615-2.437983 2.311493-2.424526 2.286504c-.402973.379009-.805389.756983-1.207252 1.133923l-2.404548 2.249272c-.399657.37282-.798764.744613-1.197325 1.115382l-2.384819 2.212339-2.371803 2.187885-2.358898 2.163565-2.346103 2.139378-2.333419 2.115325c-.387852.350557-.77518.700118-1.161987 1.048684l-2.314598 2.079496-2.30219 2.055777-2.289891 2.032192c-.380629.336741-.760751.672505-1.140367 1.007294l-2.27165 1.997065c-.377603.330903-.754706.660837-1.131309.989805l-2.253657 1.962239-2.241799 1.939188-2.230052 1.916272c-.370702.317476-.74092.634003-1.110655.949583l-2.212638 1.882148-2.201166 1.859565-2.189804 1.837116-2.178554 1.814801-2.167413 1.792619-2.156382 1.770572-2.145462 1.748658-2.134652 1.726878-2.123953 1.705231-2.113363 1.683719-2.102884 1.662339c-.349613.275282-.698795.549679-1.047547.823194l-2.087372 1.630521-2.077168 1.609476-2.0670754 1.588564c-.3436776.263026-.6869392.525186-1.0297872.786483l-2.0521423 1.557448c-.6824051.515713-1.3631739 1.027996-2.0423248 1.536872l-2.0326176 1.516428-2.0230206 1.496118-2.0135339 1.475943-2.0041576 1.4559-1.9948913 1.435991c-.3317159.237681-.6630502.474537-.9940054.710572l-1.9811989 1.40638c-1.3177903.931046-2.6295868 1.849043-3.9355368 2.754169l-1.9545584 1.348058c-.6500701.446149-1.2986969.889103-1.9458988 1.328884l-1.9373493 1.309844c-.6443705.433457-1.2873345.863762-1.9289103 1.290939l-.4289144.284973-3.9132814 2.572092c-21.2726732 13.908716-49.4892688-1.338916-49.5116673-26.755023l-.0753743-85.515048c0-7.934306 2.9339133-15.588273 8.251966-21.476531.1080428-.119627.2144661-.237473.3192682-.353534l5.346233-5.943259c2.6064466-2.914428 5.1777682-5.814295 7.7139671-8.699563l3.0265798-3.455313c6.0194425-6.896601 11.8365831-13.709033 17.4514527-20.436789l2.790579-3.35682c36.0584042-43.546868 63.5710782-83.512701 82.5465182-119.759115 17.94701-34.281934 34.065696-69.455984 48.687643-106.836137l.759014-1.963868.590281-1.557324.60812-1.629041.625798-1.700176.861619-2.37655.666419-1.863895 1.148711-3.259975.711769-2.047127 1.223338-3.561913 1.269011-3.747125 1.313935-3.929643 1.082994-3.273318 1.110886-3.387029.851239-2.614064 1.158778-3.582704 1.486175-4.632792 1.837719-5.782266 2.217258-7.047452 1.96182-6.293758 1.677097-5.419702 2.410956-7.84928 2.783233-9.138692 2.00281-6.62293 2.560924-8.520391 1.210433-4.045829 3.048995-10.241086 2.466612-8.334456 2.495024-8.472351 3.803974-12.991391 2.582384-8.86571 3.952508-13.633523 12.261532-42.536072 34.791985-116.874033.090488-.2889c7.617099-23.9215112 28.861094-40.9246672 53.871286-43.1242699zm10.316909 31.3528149-.161092.008353c-2.40795.124552-4.858715.296481-7.352295.515787-5.305088.466573-10.261231 2.303113-14.47032 5.190984-1.155365 1.625975-2.067616 3.44657-2.680462 5.416247-47.356956 152.242321-76.821656 277.396602-88.406934 375.379022-.294031 2.486767-.581489 4.967118-.862335 7.440804l-.552866 4.938415-.535165 4.920205c-1.228014 11.458892-2.310917 22.765482-3.244783 33.894648l-.391092 4.758707c-4.90162 60.928789-5.277909 116.381962-.475862 162.179946 5.508903 52.539391 17.653882 90.797476 36.19818 112.444019 3.897801 3.507196 8.073847 6.491866 12.539412 8.913985 39.320771 21.327558 68.258813 26.90793 87.321508 25.57655-2.707898-1.223008-5.325851-2.625156-7.888418-4.250233-18.932998-12.006545-30.98596-33.858643-33.99382-68.441452l-.281059-3.297454c-.046131-.552384-.091905-1.106162-.137321-1.661316l-.268193-3.347328-.259546-3.379613-.250843-3.411129-.242084-3.441873-.233269-3.471847-.224399-3.501051-.215472-3.529484-.206489-3.557147-.197451-3.584039c-.032152-.599538-.063925-1.200164-.095318-1.801863l-.183788-3.622932-.17461-3.647899-.165376-3.672093-.156086-3.695518-.146739-3.718173-.137338-3.740057-.12788-3.76117-.060376-1.888261-.113588-3.791395-.10399-3.810583c-.016529-.636653-.032656-1.274073-.048379-1.912245l-.089489-3.837918c-.014105-.641113-.027804-1.282945-.041096-1.92548l-.074862-3.863521-.065041-3.879625c-.010018-.647903-.019625-1.296446-.028819-1.945611l-.050204-3.902339-.040243-3.916517c-.005873-.653891-.01133-1.308341-.016368-1.963334l-.025196-3.936341-.015095-3.948593-.004938-3.960075.001358-1.984102.010402-3.975853c.00259-.66346.005609-1.327318.009059-1.991559l.025868-3.989897.036249-3.998298c.006909-.667041.014254-1.334399.022034-2.002058l.051925-4.009454c.009529-.668803.019497-1.337876.029904-2.007202l.067726-4.018875.07833-4.024192c.027883-1.342199.057544-2.685155.08899-4.028741l.099707-4.032517.110478-4.035523c.038628-1.34559.07906-2.691553.121307-4.03776l.081692-2.536252c2.177724-65.913436 8.546695-129.534558 19.383204-186.25425 12.407886-64.94448 34.57886-144.81612 66.511415-239.655116l2.325381-6.881903c3.12318-9.210635 6.337046-18.560328 9.641598-28.049116l2.495417-7.142671c2.093683-5.973961 4.222791-12.002259 6.387321-18.084903 1.18411-3.328772.996188-6.84581-.304328-9.895096-1.869288-1.897403-4.084127-3.510653-6.602424-4.73619-6.451203-3.139496-12.655285-5.785903-18.612247-7.93922-3.662167 4.948004-13.95025 8.511357-26.069318 8.511357-15.187831 0-27.5-5.596441-27.5-12.5 0-1.128786.329164-2.222627.946241-3.262772zm298.010952 8.019385-1.220744.053219c-1.364327.064159-2.729954.144372-4.096895.240639-9.832127.693388-17.827631 8.192438-19.149017 17.960103l-.853438 6.293497-3.864422 28.27559-3.387321 25.741804-1.508369 11.225668-.702509 5.13628-.712545 5.156325-.723352 5.180252-.734935 5.20806-.747291 5.239751-.760421 5.275324-.774324 5.314778-.789002 5.358114-.804452 5.405332-.820678 5.456432-.416665 2.748591c-8.934113 58.781708-19.270895 116.969179-31.262382 172.876576l-1.40635 6.530793-1.425475 6.568008-1.4446 6.605223-1.463723 6.642438-1.482849 6.679654c-.248735 1.116378-.498267 2.234305-.748595 3.353784l-1.511535 6.735478c-.253517 1.125682-.50783 2.252914-.76294 3.381696l-1.540221 6.791304-1.559346 6.828521-1.578471 6.865739-1.597594 6.902956-1.616719 6.940175-1.635844 6.977393-1.654968 7.014612-1.674092 7.051831c-.280609 1.178406-.562015 2.358364-.844217 3.539872l-1.702779 7.107661-1.721903 7.14488-1.741027 7.1821-1.760151 7.219321-1.779276 7.256542-1.798399 7.293763-1.817524 7.330985-1.836649 7.368206-1.855772 7.405429-1.874896 7.442651-1.894021 7.479874-1.913145 7.517097-1.932268 7.554321-1.951393 7.591545-1.970517 7.628768c-.330013 1.274564-.660823 2.550678-.99243 3.828344l-1.999203 7.684605-2.018327 7.721831-2.037451 7.759055-2.056576 7.796281c-.344356 1.302483-.689509 2.606516-1.035459 3.912101l-2.085261 7.85212-2.104385 7.889347-2.123509 7.926573-2.142633 7.9638-2.161756 8.001028-2.180881 8.038256-2.200005 8.075483-2.219128 8.112712-2.238253 8.149941-2.257376 8.187169-2.2765 8.224399c-.38101 1.373835-.762817 2.749222-1.145421 4.12616l-2.305186 8.280244-2.32431 8.317473-2.343433 8.354704c-.730712 2.600876-1.080137 5.231523-1.077054 7.827008 3.090416 10.986312 10.730953 20.542567 21.6294 25.798099l.802738.386119 1.588186.757995 1.952811.920787 1.916787.891114 2.252594 1.03017 1.47291.663041 1.449854.644051 1.4268.62506.704754.305408 1.392217.596574 2.045097.859254 1.993222.816525.65288.26268 1.288468.511116 1.265413.492126 1.242358.473135 1.820309.674095 1.18472.425658 1.733851.602881 1.127083.378182 1.104026.359191 1.080972.340201 1.057916.32121.520313.153484c2.053418.599678 4.257039 1.156866 6.610864 1.671564l1.2988.27653 1.328593.268103c4.926125.967593 10.453062 1.765227 16.580811 2.392901l1.686101.16697 1.715892.158543 1.745685.150114 1.775478.141687c6.251971.480055 12.308876-.576968 17.768539-2.875362 5.13425-3.650947 8.958615-9.126228 10.445401-15.65876l2.390736-10.508232 4.694084-20.675655 5.703745-25.205534 4.431905-19.653182 4.315377-19.198724 4.198846-18.744251 4.082312-18.289763 3.965776-17.835261 3.849235-17.380742 3.732693-16.92621 2.723037-12.39636 2.657478-12.140671 3.441324-15.78981 2.504505-11.544037 1.633247-7.553962 2.395234-11.117848 1.560398-7.269831 2.285959-10.691641 2.945954-13.857715 2.13297-10.094922 2.067401-9.839175 1.341839-6.417365 1.958116-9.412915 1.892544-9.157152 1.225266-5.962672 1.196122-5.848996 1.739537-8.560342 1.12326-5.564793 1.094114-5.451108 1.586524-7.9635 1.021249-5.166889 1.477224-7.537162 1.759185-9.063225 1.923501-9.959484 2.56742-13.368833 2.570565-13.471143 1.929988-10.170497 2.576069-13.650183 1.934115-10.304778 1.935885-10.362326 2.583931-13.905955 1.293145-6.991344 1.941191-10.534972 2.591007-14.136149 1.945318-10.669252 2.59651-14.315189 3.250059-18.037857 1.301399-7.259903 1.953572-10.937811 1.303365-7.323845 1.95652-11.033724 3.264797-18.517426 1.961237-11.187186 1.963005-11.244734 1.964773-11.302282 1.966542-11.359829 2.624807-15.235959 1.970668-11.494108c1.359459-7.947589-1.498229-15.648937-6.956833-20.801586-.286439-.187933-.575514-.371588-.867665-.551129-.470328-.289039-1.989158-.809814-4.349939-1.482958l-1.148623-.321212-1.263678-.341116-1.374219-.359287c-.237998-.061299-.480414-.123283-.727153-.185915l-1.531571-.383291c-.263659-.065083-.531453-.130742-.80329-.196942l-1.678769-.403394-1.771259-.414627c-.605334-.139889-1.225331-.281362-1.859239-.424128l-1.942704-.431895-2.021656-.437926-2.096098-.442225-2.166025-.444789c-.36658-.074249-.735887-.148533-1.107825-.222814l-2.262455-.445385c-.382088-.074131-.76662-.148189-1.153502-.222136l-2.348732-.442079c-.791807-.146727-1.592261-.292725-2.400608-.437706l-2.447973-.431601c-13.270429-2.299189-28.396015-4.258978-42.228054-4.66948zm-38.402038 8.354428-.308426.245357c-24.36258 19.750727-44.456708 76.536604-66.614895 153.795297l-1.823995 6.388739-1.834049 6.478704c-.919668 3.261503-1.843398 6.555979-2.771629 9.882281l-1.862592 6.694702-1.875372 6.777536-1.888931 6.858335-2.684963 9.792741-2.715582 9.943292-9.777067 35.904937-2.88029 10.550339-2.922875 10.669589-1.88318 6.849222-1.901867 6.893743-1.921116 6.936795-1.940924 6.978383-1.961293 7.018502-1.982224 7.057155-2.003715 7.094343c-.335775 1.185408-.672468 2.372304-1.010092 3.560658l-2.037003 7.147372c-1.024178 3.582189-2.056941 7.176948-3.098604 10.783452l-2.095286 7.228424c-34.057449 117.066218-85.60598 223.651707-148.599327 286.014672l.00844.137776.225768 3.441752.234483 3.412139.243142 3.381758.251743 3.350605.260291 3.318683.26878 3.285989.277215 3.252526c2.595178 29.837998 12.13028 47.125201 26.622799 56.315773 4.076182 2.584951 8.425617 4.456019 13.335911 5.918602l.442409.128146.507986.140889.865632.231017.963541.248862 1.941899.485954 3.935199.949038 2.58519.604726.471272.121757c.127347.03439.252842.068778.376544.103231l.263256.078123c36.356767-19.832667 65.568806-59.158953 87.614252-104.266711l.591524-2.159946 2.204544-8.07561 2.185433-8.038339c.362646-1.336618.724496-2.671682 1.085549-4.005193l2.156765-7.982431 2.137653-7.945158 2.118541-7.907886 2.099429-7.870611c.348312-1.308663.695828-2.615772 1.042547-3.921328l2.070761-7.814701 2.051649-7.777425c.340349-1.293131.679901-2.584709 1.018657-3.874734l2.022981-7.721512 2.003868-7.684236 1.984757-7.646959 1.965644-7.609681 1.946532-7.572404 1.92742-7.535126 1.908308-7.497847 1.889195-7.460567 1.870083-7.423287 1.850971-7.386008 1.831859-7.348726 1.812746-7.311445 1.793634-7.274162 1.774522-7.236881c.294161-1.20304.587525-2.404526.880093-3.604459l1.745853-7.180956c.289383-1.193719.57797-2.385884.86576-3.576496l1.717184-7.12503c.284605-1.184398.568413-2.367242.851425-3.548533l1.688516-7.069103 1.669403-7.031818 1.650291-6.994532c.273456-1.162648.546115-2.323742.817978-3.483283l1.621622-6.938602 1.60251-6.901315 1.583397-6.864027 1.564284-6.826739c.259122-1.134683.517447-2.267811.774975-3.399386l1.535616-6.770806 1.516503-6.733517c.251157-1.119145.501519-2.236736.751084-3.352774l1.487834-6.677581c.246379-1.109823.491962-2.218092.736749-3.324807l1.459165-6.621644 1.440052-6.584354c.476832-2.188569.950479-4.370923 1.42094-6.547061l1.401826-6.509769c11.917123-55.560693 22.199247-113.440479 31.088233-171.925276.138978-.914403.277236-1.826449.414789-2.736217l.81699-5.431918.800848-5.381121c.132172-.892835.263704-1.783715.394612-2.67272l.77808-5.312174.763865-5.271043.75042-5.233777c.123992-.869406.247456-1.73742.370409-2.604122l.731697-5.185129c.120968-.861781.241456-1.722412.36148-2.581973l.714708-5.14518 1.052871-7.678103.690245-5.09793.453599-3.386976 3.497886-26.560141 4.970005-36.478135c.364228-2.692365 1.015074-5.287309 1.920176-7.754475zm-374.528929 278.810038-1.454549 4.607112c-.267635.844412-.534473 1.684588-.800455 2.520292l-1.585125 4.9587c-4.94647 15.404069-9.54533 29.051457-13.391981 39.369088l-.476885 1.272247c-.472908 1.254678-.933799 2.456303-1.381884 3.601805-12.694686 32.453222-26.056041 62.171184-39.781282 89.738806l-1.873851 3.745947c-1.2507 2.488486-2.504293 4.95942-3.760552 7.413242l-1.88636 3.667954-1.890189 3.642615-.946476 1.811908c-25.696605 49.085016-65.573444 103.747821-119.6305179 163.988413l-4.1661191 4.622701.0753619 85.515048 1.9689812-1.290046 2.9691189-1.966412 1.6500813-1.109012 1.6660591-1.130201 1.6821847-1.151697 1.6984577-1.173502c.2844406-.197418.5695653-.395757.8553774-.595025l1.7231441-1.206788 1.7397862-1.229366 1.7565759-1.25225 1.7735131-1.275444 1.7905981-1.298947 1.8078305-1.322758c.3027493-.222461.6062228-.445927.9104235-.670404l1.8339559-1.359052 1.8515574-1.383635 1.8693065-1.408526 1.8872031-1.433725c.3160334-.241071.6328187-.483206.9503589-.726409l1.9143248-1.472103c.3205722-.247506.6419054-.496094.9640028-.745771l1.9417786-1.511175 1.9602657-1.537609 1.9789002-1.564351 1.9976825-1.591402 2.0166123-1.618761 2.0356898-1.646429 2.0549147-1.674406 2.0742874-1.702691c.3473371-.286156.6954878-.573503 1.0444548-.862049l2.103623-1.745697c.352245-.293362.705312-.587935 1.059205-.883726l2.133291-1.789397 2.153254-1.818917 2.173364-1.848746 2.193622-1.878881 2.214029-1.909327 2.234581-1.94008 2.255283-1.971143 2.276131-2.002514 2.297128-2.034193 2.318271-2.06618 2.339562-2.098478 2.361002-2.131082c.395295-.357915.791489-.717201 1.188586-1.077865l2.393437-2.180568c.400719-.366201.802347-.733793 1.204887-1.102781l2.426204-2.230749 2.448233-2.264589c.409883-.380268.820689-.761959 1.232423-1.14508l2.481554-2.315926 2.503953-2.350536 2.526498-2.385456 2.549191-2.420684 2.572033-2.456221 2.595022-2.492065c4.253116-4.0957 8.556455-8.524604 12.910014-13.286713l1.634939-1.801409c5.730525-6.3596 11.547561-13.293195 17.4511-20.80078l1.68908-2.160643.846305-1.092036 1.618941-2.106481c5.673802-7.422493 11.42642-15.367981 17.257849-23.83646l7.482608-11.315741c-.381416-19.500951-.09284-40.06673.831989-61.498012l.206984-4.586076c1.263598-26.827903 3.509237-54.974784 6.671853-84.056245l.551133-4.994477.569025-5.012356.586845-5.029806c3.276073-27.707366 7.9563-57.52269 14.040405-89.447816zm671.973774-231.488728-.794331.629529-.667032.542671-.539732.455814-1.984417 1.758055c-57.671787 51.298178-131.590323 131.280303-194.539407 211.417285l-2.523833 13.3946-1.932992 10.202396-1.93124 10.144882-1.286521 6.731303-1.928321 10.049027-1.284574 6.667399-1.925403 9.953173-1.120449 5.766675-.979918 5.008614-1.524487 7.725805-1.052731 5.292462-1.081856 5.406004-1.677395 8.321903-1.742929 8.577384-1.198361 5.860193-1.227488 5.973745-1.256616 6.087299-1.939538 9.343867-2.005077 9.599373-1.373129 6.541535-2.114311 10.025233-2.179853 10.280758-1.489648 6.9958-2.289092 10.706646-3.154081 14.67304-2.442032 11.302921-3.358006 15.468095-2.594978 11.899231-3.561938 16.263198-2.74793 12.495576-3.765879 17.058348-3.882421 17.512742-3.998965 17.96715-3.075707 13.773576-3.141266 14.029197-3.206826 14.284823-4.377753 19.444082-4.494308 19.898556-3.239558 14.308781c.31182-.769362.607787-1.528134.887902-2.276318 71.770827-191.699133 129.357398-319.158535 172.759716-382.378206l.092195-.132922.693352-.977971 1.179746-1.646684 6.662816-9.239325 27.666404-38.206723 23.426193-32.283983 2.652547-3.639633 48.488078-60.698251.746036-.943728 2.089935-2.695025zm-626.5 570.067649c14.083261 0 25.5 9.40202 25.5 21s-11.416739 21-25.5 21-25.5-9.40202-25.5-21 11.416739-21 25.5-21zm249.333868 10.531916c2.173995-12.335336 15.107138-20.364434 28.886985-17.933493 13.779846 2.430941 23.188247 14.401374 21.014253 26.736709-2.173995 12.335336-15.107138 20.364435-28.886984 17.933494-13.779847-2.430941-23.188248-14.401374-21.014254-26.73671zm-257.333868-96.531916c14.083261 0 25.5 10.073593 25.5 22.5s-11.416739 22.5-25.5 22.5-25.5-10.073593-25.5-22.5 11.416739-22.5 25.5-22.5zm278.669045 8.481486c2.173995-12.335335 15.107138-20.364434 28.886984-17.933493s23.188248 14.401374 21.014254 26.73671c-2.173995 12.335335-15.107138 20.364434-28.886985 17.933493-13.779846-2.430941-23.188248-14.401374-21.014253-26.73671zm-280.669045-93.481486c14.083261 0 25.5 10.073593 25.5 22.5s-11.416739 22.5-25.5 22.5-25.5-10.073593-25.5-22.5 11.416739-22.5 25.5-22.5zm302.17296 3.673152c2.602958-12.251913 15.808298-19.824541 29.494953-16.913937 13.686654 2.910604 22.671766 15.202253 20.068808 27.454166s-15.808298 19.824541-29.494953 16.913937c-13.686654-2.910604-22.671766-15.202253-20.068808-27.454166zm-297.17296-85.673152c14.083261 0 25.5 10.073593 25.5 22.5s-11.416739 22.5-25.5 22.5-25.5-10.073593-25.5-22.5 11.416739-22.5 25.5-22.5zm342-19c14.083261 0 25.5 10.073593 25.5 22.5s-11.416739 22.5-25.5 22.5-25.5-10.073593-25.5-22.5 11.416739-22.5 25.5-22.5zm-329-66c14.083261 0 25.5 10.073593 25.5 22.5s-11.416739 22.5-25.5 22.5-25.5-10.073593-25.5-22.5 11.416739-22.5 25.5-22.5zm347-14c14.083261 0 25.5 10.073593 25.5 22.5s-11.416739 22.5-25.5 22.5-25.5-10.073593-25.5-22.5 11.416739-22.5 25.5-22.5zm-327-72c14.083261 0 25.5 10.073593 25.5 22.5s-11.416739 22.5-25.5 22.5-25.5-10.073593-25.5-22.5 11.416739-22.5 25.5-22.5zm342-8c14.083261 0 25.5 10.073593 25.5 22.5s-11.416739 22.5-25.5 22.5-25.5-10.073593-25.5-22.5 11.416739-22.5 25.5-22.5zm-320-73c14.083261 0 25.5 10.073593 25.5 22.5s-11.416739 22.5-25.5 22.5-25.5-10.073593-25.5-22.5 11.416739-22.5 25.5-22.5zm334-6c14.083261 0 25.5 10.073593 25.5 22.5s-11.416739 22.5-25.5 22.5-25.5-10.073593-25.5-22.5 11.416739-22.5 25.5-22.5zm-313-71c14.083261 0 25.5 10.073593 25.5 22.5s-11.416739 22.5-25.5 22.5-25.5-10.073593-25.5-22.5 11.416739-22.5 25.5-22.5zm325-8c14.083261 0 25.5 10.073593 25.5 22.5s-11.416739 22.5-25.5 22.5-25.5-10.073593-25.5-22.5 11.416739-22.5 25.5-22.5z"/></svg>