<svg height="960" viewBox="0 0 960 960" width="960" xmlns="http://www.w3.org/2000/svg"><path d="m480 1.37893634c146.359507 0 265 118.71200966 265 265.14165866 0 37.845864-7.948738 74.620082-23.180978 108.39489-.627396 2.188779-1.590126 4.348377-2.843639 6.449506l-174.566727 292.607401c-13.865552 23.241331-38.291924 36.574422-64.408656 36.574422s-50.543104-13.333091-64.408656-36.574422l-174.566727-292.607401c-1.253519-2.101139-2.216252-4.260746-2.843639-6.449506-15.232246-33.774836-23.180978-70.54904-23.180978-108.39489 0-146.429649 118.640493-265.14165866 265-265.14165866zm0 59.99999996c-113.214325 0-205 91.8410037-205 205.1416587 0 30.427773 6.605109 59.860241 19.182602 86.776987.027218.058248.054232.11652.068656.175998l172.867011 289.75835c2.838203 4.757375 7.523589 7.314884 12.881731 7.314884s10.043528-2.557509 12.881731-7.314884l172.867011-289.75835c.014433-.059497.041442-.11776.068656-.175998 12.577493-26.916746 19.182602-56.349214 19.182602-86.776987 0-113.300655-91.785675-205.1416587-205-205.1416587zm0 119.4940347c46.843622 0 84.817881 37.997149 84.817881 84.869009 0 46.871859-37.974259 84.869009-84.817881 84.869009s-84.817881-37.99715-84.817881-84.869009c0-46.87186 37.974259-84.869009 84.817881-84.869009zm-305.357422 732.127029h-34.130859l-66.4414065-108.991211v108.991211h-34.1308594v-165.648437h34.1308594l66.5551755 109.21875v-109.21875h34.01709zm63.938477-27.418457h72.471191v27.418457h-106.602051v-165.648437h34.13086zm98.410644 68.944336-17.179199-8.987793 4.095703-7.39502c5.081706-9.253255 7.698405-18.468587 7.850098-27.645996v-25.484375h27.759765l-.113769 22.753907c-.075846 8.418945-2.199544 16.913737-6.371094 25.484375-4.171549 8.570638-9.518717 15.662272-16.041504 21.274902zm202.054688-75.656738h-59.842774l-11.376953 34.130859h-36.29248l61.663086-165.648437h31.627929l62.004395 165.648437h-36.292481zm-50.627442-27.645996h41.41211l-20.819825-62.004395zm158.480957-103.871582 42.549805 120.140625 42.322266-120.140625h44.825195v165.648437h-34.244629v-45.280273l3.413086-78.159668-44.711426 123.439941h-23.436523l-44.597656-123.326172 3.413085 78.045899v45.280273h-34.130859v-165.648437zm245.400879 122.188476c0-6.44694-2.27539-11.395915-6.826172-14.846924-4.550781-3.451009-12.742187-7.091634-24.574218-10.921875-11.832032-3.830241-21.199056-7.603597-28.101075-11.320068-18.809895-10.163412-28.214843-23.853679-28.214843-41.070801 0-8.94987 2.521891-16.932698 7.565673-23.948486 5.043783-7.015788 12.28711-12.495687 21.729981-16.439697 9.442871-3.944011 20.042399-5.916016 31.798584-5.916016 11.832031 0 22.374674 2.142659 31.62793 6.427978 9.253255 4.285319 16.439697 10.334066 21.559326 18.146241 5.119629 7.812174 7.679443 16.686198 7.679443 26.62207h-34.130859c0-7.584635-2.38916-13.48169-7.167481-17.691162-4.77832-4.209473-11.490722-6.314209-20.137207-6.314209-8.343099 0-14.827962 1.763428-19.45459 5.290283-4.626627 3.526856-6.939941 8.172445-6.939941 13.936768 0 5.385091 2.711507 9.897949 8.134522 13.538574 5.423014 3.640625 13.405843 7.053711 23.948486 10.239258 19.416667 5.840169 33.562012 13.083496 42.436035 21.72998 8.874023 8.646485 13.311035 19.416667 13.311035 32.310547 0 14.334961-5.423014 25.579183-16.269043 33.732666-10.846028 8.153483-25.446452 12.230225-43.801269 12.230225-12.742188 0-24.34668-2.332276-34.813477-6.996827-10.466797-4.66455-18.449626-11.054606-23.948486-19.170166-5.498861-8.115559-8.248291-17.520507-8.248291-28.214843h34.244629c0 18.278971 10.921875 27.418457 32.765625 27.418457 8.11556 0 14.44873-1.649658 18.999511-4.948975 4.550782-3.299316 6.826172-7.906982 6.826172-13.822998z"/></svg>