<svg height="960" viewBox="0 0 960 960" width="960" xmlns="http://www.w3.org/2000/svg"><path d="m504.335714 10c14.662379 0 27.943624.3516957 39.855549 1.0517176.481814.0132184.411372.0113218.408091.0143786l-.038478-.0008498-.03874-.0014822c-.105389-.0039104-.203103-.0072979-.297446-.0103431l-.033427-.0017035-.131607-.0034309.165034.0051344c.294085.0103911.565914.0264435.837041.0426745-.136338-.0079936-.136338-.0079936-.251559-.0142576-.164325-.008789-.203828-.0127591-.20988-.0148628.64489.0244427 1.32013.0600679 2.042558.1103418 1.989409.1384433 4.084905.3701917 6.296491.7227911 6.358414 1.0137397 12.769941 2.8553955 19.150306 5.9067842 4.326211 2.068996 8.460363 4.6256414 12.324869 7.7391974 4.490135 3.6176131 8.487468 7.8885314 11.84226 12.7992778 7.185951 10.5188006 10.803939 23.0432242 10.744226 36.5651533-.035215 7.6159653-1.235256 14.9016709-3.643579 21.6482095 15.954437 9.5953987 30.447919 21.5904227 43.05676 35.5668757 31.704543 35.143363 49.585817 80.672274 49.585817 128.874394v136.997822c0 12.844792-6.16848 24.908169-16.58182 32.428211-19.823321 14.315501-45.160224 24.3411-75.937221 30.736755-28.597555 5.942754-62.36728 8.837212-101.480959 8.837212s-72.883404-2.894458-101.480959-8.837212c-10.553176-2.193017-20.466735-4.812824-29.688943-7.920448v127.743127c3.70016-3.792418 7.899728-7.033774 12.533194-9.900436 9.246153-5.720468 20.563898-10.104292 33.849965-13.581019 23.501467-6.149917 53.805286-9.504012 85.786743-9.504012s62.285276 3.354095 85.786743 9.504012c13.286067 3.476727 24.603812 7.860551 33.849965 13.581019 6.46172 3.997778 12.079577 8.724276 16.699283 14.631999 3.043105 3.89155 5.559718 8.201541 7.401856 12.948253 2.128771 5.48529 3.262153 11.336252 3.262153 17.334717l.00205 118.947502c20.533028 6.662355 38.413738 14.852151 52.989648 24.417906 12.507493 8.208312 22.795988 17.543592 30.462407 28.228476 9.323841 12.994873 14.545895 27.743719 14.545895 43.406116 0 12.156875-3.169793 23.88056-9.039287 34.654363-5.061237 9.290201-11.998168 17.667399-20.510242 25.226471-14.382225 12.772008-33.493355 23.397331-56.428627 32.012043-43.004538 16.152924-99.366503 25.107123-159.021844 25.107123-54.008329 0-105.36665-7.337304-146.584575-20.75647-21.342581-6.948424-39.859153-15.486002-54.843997-25.565627-8.371375-5.631044-15.708301-11.784923-21.897604-18.530018-6.647659-7.244611-11.962386-15.160329-15.668299-23.767333-4.445873-9.666816-7.526791-17.743609-9.301137-24.996461-2.068448-8.455026-3.329035-17.250223-4.01552-26.763183-.5135-7.115839-.688868-14.072245-.688868-22.991548v-524.704974c0-24.080093 4.071039-50.577811 12.090791-76.406001 9.075199-29.227328 22.918193-56.866316 41.44879-81.081658 21.167481-27.661159 47.902383-50.1623193 79.937582-66.0516194 34.980764-17.3502865 75.412023-26.3851076 120.858551-26.3851076zm0 40c-164.965821 0-214.335714 134.679809-214.335714 209.924386v524.704974c0 12.984322.374134 27.23258 3.558584 40.249393 1.05511 4.312889 3.31837 10.246148 6.78978 17.799776 14.978107 36.984637 100.004634 65.321471 202.651636 65.321471 113.218374 0 205-34.474074 205-77 0-24.510263-30.489067-46.34577-77.998831-60.44767l.000096 30.854507c8.319016 1.839543 15.183571 3.877335 20.464658 6.116618 3.963945 1.680788 7.174525 3.522655 9.664648 5.686799 1.599142 1.3898 2.927595 2.934307 3.933341 4.692298 1.245664 2.177355 1.936088 4.594139 1.936088 7.129368 0 3.125808-1.083987 5.959183-2.898885 8.405038-1.301468 1.753927-2.951885 3.277085-4.926984 4.676137-3.10954 2.202628-7.192182 4.199147-12.200737 6.072148-8.706714 3.255966-20.365983 6.169059-33.447655 8.393936l-.369855.077748c-30.259974 5.985744-69.985678 9.343073-112.155884 9.343073-38.734635 0-75.444169-2.831137-104.690005-7.953353-.974852-.170739-1.930736-.412677-2.860713-.721935-9.994694-2.037295-17.209466-4.039148-21.886935-6.128411-4.950138-2.211055-11.783845-7.354382-18.710077-13.731409-6.956513-6.404907-12.842104-12.994319-15.831003-18.104183-4.432725-7.578248-5.852291-19.236335-4.974204-35.671669-.141775-2.081338-.216965-4.331911-.216965-6.764179v-513.000475c0-29.451314 9.511294-78.893174 56.21983-125.436431 22.464134-22.384644 49.532613-32.74347 76.950417-37.1783466l-.000345-1.9639966c0-11.4475795 8.779971-20.9744337 20.177926-21.9207055 7.379732-.6126743 13.274575-.9249063 17.822074-.9249063 3.979062 0 8.989683.2390526 15.12401.7092597l2.698064.2156466c11.397955.9462718 20.177926 10.473126 20.177926 21.9207055l.000471 1.1386829c.609728.016504 1.218699.0288193 1.826995.0364598 1.141927.0143432 25.06445 1.8897952 25.173926-21.7868724.104556-23.6766676-23.78537-23.6766676-24.329983-23.7092709-11.053479-.6617168-23.772651-1.0246112-38.335695-1.0246112zm-1.335714 538-1.769441.003751c-58.278347.247262-105.230559 12.686916-105.230559 27.996249v212c0 2.114218.895453 4.173706 2.592529 6.153911 2.315562.455177 4.800855.91713 7.453326 1.38449l.244011.046734c26.09205 4.027752 58.542088 6.414865 93.710134 6.414865 41.003868 0 78.312825-3.245086 106.156354-8.551562.411803-.125642.837748-.224428 1.274978-.295867.28773-.047012.574678-.094369.860824-.142067 1.122368-1.627181 1.707844-3.300951 1.707844-5.010504v-212c0-.360815-.02608-.720035-.077774-1.07754-.102763-.710658-.306723-1.414503-.608223-2.110609-.102013-.235492-.214944-.469639-.338853-.702866-5.435958-10.233345-32.009844-18.697644-67.810294-22.275413-.96239-.096174-1.929989-.188683-2.904005-.277611-.649747-.059322-1.30217-.117035-1.957378-.173138-.971104-.083149-1.94759-.162704-2.929965-.238668-2.784289-.215304-5.616421-.401795-8.490814-.558109-.960761-.052247-1.92605-.101114-2.89587-.146561-2.451829-.114893-4.932111-.207917-7.438293-.278297-1.496493-.042026-3.002203-.075977-4.516499-.101685-.183682-.003118-.366746-.006103-.549934-.008968-1.56182-.024423-3.133078-.040082-4.712657-.046784zm127.00119 233.946946-.00119 6.053054c0 .107372-.000618.214613-.001852.321722 3.328695-.923976 6.343186-1.887188 8.969853-2.869457.424098-.158596.835181-.316693 1.231244-.473864-2.809533-1.028892-6.228156-2.045979-10.198055-3.031455zm-279.135738-37.52659c-.145374 4.84944-.025645 9.011451.348308 12.464353.443229 4.092557 1.216478 6.916989 2.071095 8.378054 1.767818 3.022286 6.496592 8.316545 12.114175 13.48869 3.916834 3.606255 7.805115 6.717916 10.601644 8.593641l-.001101-8.942349c-.693788.020654-1.374517-.012169-2.068757-.084095-1.237737-.128235-2.542132-.388404-3.884579-.74366-2.82089-.746502-5.402647-1.731772-7.266763-3.097664-4.438919-3.252524-7.552735-7.454038-9.450758-12.837161-1.621244-4.598132-2.361228-10.018938-2.460464-16.995012zm25.13514-13.868549c-1.334155.395997-2.654888.798092-3.961901 1.206173-.804678 3.247695-1.216145 7.252907-1.179038 12.003726.041449 5.306808.508897 8.896467 1.330962 11.227987.464082 1.316217.997679 2.15562 1.839939 2.897763.688408-.440527 1.345006-.853383 1.970837-1.239043zm126.999408-176.551807c23.126975 0 44.885695 2.439392 61.251989 6.777446 8.455982 2.241345 15.393925 4.963383 20.535638 8.185555 3.049363 1.910952 5.550064 4.042038 7.441698 6.492304 2.399303 3.107859 3.770675 6.687143 3.770675 10.544695s-1.371372 7.436836-3.770675 10.544695c-1.891634 2.450266-4.392335 4.581352-7.441698 6.492304-5.141713 3.222172-12.079656 5.94421-20.535638 8.185555-16.366294 4.338054-38.125014 6.777446-61.251989 6.777446s-44.885695-2.439392-61.251989-6.777446c-8.455982-2.241345-15.393925-4.963383-20.535638-8.185555-3.049363-1.910952-5.550064-4.042038-7.441698-6.492304-2.399303-3.107859-3.770675-6.687143-3.770675-10.544695s1.371372-7.436836 3.770675-10.544695c1.891634-2.450266 4.392335-4.581352 7.441698-6.492304 5.141713-3.222172 12.079656-5.94421 20.535638-8.185555 16.366294-4.338054 38.125014-6.777446 61.251989-6.777446zm0 20c-21.498416 0-41.563905 2.249563-56.127736 6.109855-6.675319 1.769362-11.841619 3.796312-15.039534 5.800358-.048078.03013-.095526.060144-.140998.089787.045471.029642.092919.059657.140998.089787 1.939796 1.215617 4.603842 2.439662 7.889614 3.609532 15.272339-4.712655 37.954671-7.699319 63.277156-7.699319 25.322423 0 48.004706 2.98665 63.276165 7.699685 3.287224-1.169988 5.951613-2.394158 7.891605-3.609898.048078-.03013.095526-.060145.140998-.089787-.045472-.029643-.09292-.059657-.140998-.089787-3.197915-2.004046-8.364215-4.030996-15.039534-5.800358-14.563831-3.860292-34.62932-6.109855-56.127736-6.109855zm36.8469-501.343738c-1.248278 10.559672-9.984923 18.889861-20.868954 19.375148-6.981516.311286-12.620781.46859-16.977946.46859s-9.99643-.157304-16.977946-.46859c-10.884031-.485287-19.620676-8.815476-20.868954-19.375148-66.752652 16.756659-116.1531 76.818613-116.1531 148.343738 0 .33399.001077.667731.003228 1.001218l-.003228 135.996604c29.543241 21.334785 80.876574 32.002178 154 32.002178s124.456759-10.667393 154-32.002178v-136.997822c0-71.389436-49.213193-131.359154-115.772832-148.249331zm-37.8469-20.156262c-3.90179 0-9.290904.2854451-16.167343.8563353-1.034656.0858984-1.832657.9510612-1.832657 1.9892765v14.7035022c0 1.072299.841678 1.954384 1.912912 2.002147 6.709542.299159 12.071905.448739 16.087088.448739s9.377546-.14958 16.087088-.448739c1.071234-.047763 1.912912-.929848 1.912912-2.002147v-14.7035022c0-.9733268-.701368-1.7945568-1.641569-1.9641865l-.191088-.02509c-6.876439-.5708902-12.265553-.8563353-16.167343-.8563353z"/></svg>