<?xml version="1.0" encoding="utf-8"?>
<!-- Generator: Adobe Illustrator 21.0.0, SVG Export Plug-In . SVG Version: 6.00 Build 0)  -->
<svg version="1.1" id="Layer_1" xmlns="http://www.w3.org/2000/svg" xmlns:xlink="http://www.w3.org/1999/xlink" x="0px" y="0px"
	 viewBox="0 0 1417.3 614.7" style="enable-background:new 0 0 1417.3 614.7;" xml:space="preserve">
<path d="M1372.3,416.6v8.8h1.8c1.8,0,2.5,0,3.5-0.1c1.2,0,4.9-0.2,4.9-4.3c0-0.6,0-2.7-2.2-3.8c-1.1-0.6-2.4-0.6-5.6-0.6H1372.3z
	 M1367.1,412h8.9c3.8,0,6.2,0,8.7,2c1.7,1.4,3.1,3.7,3.1,6.9c0,5.4-3.9,7.3-5.5,7.7l6.2,11.4h-6l-5.5-10.4h-4.7v10.4h-5.2V412z"/>
<path d="M1354.1,426.1c0-12.1,9.9-22,22-22c12.1,0,22,9.9,22,22c0,12.1-9.9,22.1-22,22.1C1364,448.1,1354.1,438.2,1354.1,426.1
	 M1349.6,426.1c0,14.6,11.9,26.6,26.6,26.6s26.5-11.9,26.5-26.6c0-14.6-11.9-26.5-26.5-26.5S1349.6,411.4,1349.6,426.1"/>
<path d="M1225.1,275.9c-20.7,0-37.6-16.9-37.6-37.6c0-20.8,16.9-37.7,37.6-37.7h34.8v-50.7h-34.8c-48.7,0-88.4,39.7-88.4,88.4
	c0,48.7,39.6,88.4,88.4,88.4v0h21.1c20.7,0,37.6,16.9,37.6,37.7c0,20.8-16.9,37.7-37.6,37.7h-110.3v50.8h110.3
	c48.7,0,88.4-39.7,88.4-88.4c0-48.7-39.7-88.4-88.4-88.4L1225.1,275.9z"/>
<path d="M417,404.9c-49.9,0-90.5-40.6-90.5-90.5V197.1h84.1c59,0,107.1,48,107.1,107.1C517.7,359.7,472.5,404.9,417,404.9
	 M410.6,146.3h-84.1V26.5h-50.8v288c0,77.9,63.4,141.2,141.2,141.2c83.5,0,151.4-68,151.4-151.5
	C568.4,217.1,497.6,146.3,410.6,146.3"/>
<path d="M805.8,200.6c40.5,0,73.4,32.9,73.4,73.3V330c0,67.6,55.1,122.7,122.7,122.7c26.8,0,51.7-8.7,71.9-23.4v17.2
	c0,51.3-41.7,93-93,93h-11.4v50.8h11.4c79.3,0,143.7-64.5,143.7-143.7V151.6h-50.8V330c0,39.7-32.3,71.9-71.9,71.9
	c-39.7,0-72-32.2-72-71.9v-56.1c0-68.4-55.7-124.1-124.1-124.1v0.1v0h-76.1c-48.7,0-88.4,39.7-88.4,88.4c0,48.7,39.6,88.4,88.4,88.4
	v0h51.4c20.7,0,37.6,16.9,37.6,37.7c0,20.8-16.9,37.6-37.6,37.6h-81.2c-39.1,0-70.9-31.8-70.9-70.9V151.6h-50.8V331
	c0,67.1,54.6,121.6,121.7,121.6h81.2c48.7,0,88.4-39.7,88.4-88.4c0-48.8-39.6-88.4-88.4-88.4h-51.4c-20.7,0-37.6-16.9-37.6-37.6
	c0-20.8,16.9-37.7,37.6-37.7H805.8z"/>
<path d="M262.8,152.4H212v176c0,40.6-33,73.6-73.6,73.6c-40.6,0-73.6-33-73.6-73.6v-176H14.1v176c0,68.5,55.8,124.3,124.4,124.3
	c68.6,0,124.3-55.8,124.3-124.3V152.4z"/>
</svg>
