<?xml version="1.0" encoding="utf-8"?>
<!-- Generator: Adobe Illustrator 21.0.0, SVG Export Plug-In . SVG Version: 6.00 Build 0)  -->
<svg version="1.1" id="Layer_1" xmlns="http://www.w3.org/2000/svg" xmlns:xlink="http://www.w3.org/1999/xlink" x="0px" y="0px"
	 viewBox="0 0 646.5 1417.3" style="enable-background:new 0 0 646.5 1417.3;" xml:space="preserve">
<style type="text/css">
	.st0{fill:#231F20;}
</style>
<g>
	
		<ellipse transform="matrix(0.2442 -0.9697 0.9697 0.2442 -218.5346 530.1467)" class="st0" cx="230.8" cy="405.3" rx="16" ry="16"/>
	
		<ellipse transform="matrix(0.2442 -0.9697 0.9697 0.2442 -270.8353 607.905)" class="st0" cx="254.6" cy="477.7" rx="11.3" ry="11.3"/>
	<path class="st0" d="M217.5,451.6c0-0.4-0.1-0.6-0.3-0.8c-0.2-0.2-0.5-0.2-0.9-0.2c-0.4,0-0.5,0-0.9,0c0,1.3,0,1.9,0,3.1
		c0.2,0,0.3,0,0.5,0c0-0.5,0-0.7,0-1.2c0.2,0,0.3,0,0.5,0c0.2,0.5,0.3,0.7,0.6,1.2c0.2,0,0.4,0,0.6,0c-0.3-0.5-0.4-0.8-0.6-1.3
		C217.1,452.4,217.5,452.2,217.5,451.6z M216.4,452c-0.1,0-0.2,0-0.3,0c-0.1,0-0.1,0-0.2,0c0-0.4,0-0.6,0-1c0.1,0,0.1,0,0.2,0
		c0.3,0,0.4,0,0.6,0.1c0.2,0.1,0.2,0.4,0.2,0.4C216.9,452,216.6,452,216.4,452z"/>
	<path class="st0" d="M216.3,449.2c-1.5,0-2.7,1.3-2.7,2.9c0,1.6,1.2,3,2.7,3c1.5,0,2.7-1.3,2.7-2.9
		C219,450.5,217.8,449.2,216.3,449.2z M216.3,454.6c-1.2,0-2.2-1.2-2.2-2.5c0-1.4,1-2.4,2.2-2.4c1.2,0,2.2,1.1,2.2,2.5
		C218.5,453.5,217.5,454.6,216.3,454.6z"/>
	<path class="st0" d="M203.2,435.4c-0.9,0-1.3,0-2.1,0c-2.1,0-3.8-1.8-3.8-4.1c0-2.3,1.7-4.1,3.8-4.2c1.4,0,2.1,0,3.5-0.1
		c0-2.2,0-3.3,0-5.6c-1.4,0-2.1,0.1-3.5,0.1c-4.9,0.1-8.9,4.5-8.9,9.8c0,5.3,4,9.5,8.9,9.6c0,0,0,0,0,0c0.9,0,1.3,0,2.1,0
		c2.1,0,3.8,1.9,3.8,4.2s-1.7,4.1-3.8,4.1c-4.5-0.1-6.7-0.1-11.1-0.2c0,2.2,0,3.3,0,5.5c4.5,0.1,6.7,0.2,11.1,0.3
		c4.9,0.1,8.9-4.2,8.9-9.6C212.1,439.8,208.1,435.4,203.2,435.4z"/>
	<path class="st0" d="M118.7,423.4c-3.4,0.1-5.1,0.1-8.5,0.2c0-4.6,0-6.8,0-11.4c-2.1,0.1-3.1,0.1-5.1,0.2c0,9,0,18.1,0,27.1
		c0.2,7.7,7,13.6,14.3,13.6c7.6,0.1,15.3-6.5,15.3-14.6C134.7,430.2,126.8,423.5,118.7,423.4z M119.4,448.3c-5-0.1-9.1-4-9.1-8.7
		c0-4.5,0-6.7,0-11.1c3.4-0.1,5.1-0.1,8.5-0.1c5.8-0.1,10.8,4.5,10.8,10.3C129.6,444,125,448.4,119.4,448.3z"/>
	<path class="st0" d="M185.7,422.2c0,6.4,0,12.7,0,19.1c0,4.2-3.3,7.6-7.3,7.6c-4-0.1-7.3-3.5-7.3-7.6c0-2.3,0-3.5,0-5.9
		c-0.1-7-5.5-12.8-12.5-12.7c0,0,0,0,0,0c-3.1,0.1-4.6,0.1-7.7,0.2c-4.9,0.1-8.9,4.2-8.9,9.1c0,4.9,4,8.8,8.9,8.9c0,0,0,0,0,0
		c2.1,0,3.1,0,5.2,0c2.1,0,3.8,1.7,3.8,3.9c0,2.1-1.7,3.8-3.8,3.8c-3.3,0-4.9-0.1-8.2-0.1c-4-0.1-7.2-3.3-7.2-7.2c0-6,0-11.9,0-17.9
		c-2.1,0.1-3.1,0.1-5.1,0.1c0,5.9,0,11.8,0,17.8c0.1,6.7,5.6,12.1,12.3,12.3c3.3,0.1,4.9,0.1,8.2,0.2c4.9,0.1,8.9-3.9,8.9-9
		c0-5.1-4-9.1-8.9-9.1c-2.1,0-3.1,0-5.2,0c-2.1,0-3.8-1.7-3.8-3.8c0-2.1,1.7-3.8,3.8-3.9c3.1-0.1,4.6-0.1,7.7-0.1
		c4.1-0.1,7.4,3.3,7.4,7.5c0,2.3,0,3.5,0,5.8c0.1,6.9,5.5,12.8,12.4,13c2.7,0.1,5.2-0.8,7.3-2.3c0,0.7,0,1.1,0,1.8
		c0,5.5-4.2,9.8-9.4,9.6c-0.5,0-0.7,0-1.1,0c0,2.1,0,3.2,0,5.3c0.5,0,0.7,0,1.1,0.1c7.9,0,14.9-6.7,14.5-14.8c0-10.6,0-21.2,0-31.8
		C188.8,422.1,187.8,422.2,185.7,422.2z"/>
	<path class="st0" d="M98.6,440.8c0,3.8-3.3,6.8-7.4,6.7c-4.1-0.1-7.4-3.1-7.4-6.8c0-6.4,0-9.6,0-16c-2.1,0.1-3.1,0.1-5.1,0.1
		c0,6.3,0,9.5,0,15.8c0.2,6.7,6.2,11.3,12.6,11.5c6.5,0.2,12.4-4.6,12.6-11.4c0-5.5,0-11,0-16.5c-2.1,0.1-3.1,0.1-5.1,0.1
		C98.6,429.9,98.6,435.4,98.6,440.8z"/>
	<path class="st0" d="M346.6,280.3c2.7,0.7,5.4,1,8.1,1c1.8,0,3.6-0.2,5.4-0.5c0,0,0.1,0,0.1,0c3.5-0.6,6.9-1.8,10.1-3.5
		c0,0,0,0,0,0c0.4-0.2,0.8-0.4,1.2-0.6c0.3-0.2,0.5-0.4,0.8-0.5c0.3-0.2,0.5-0.3,0.8-0.5c0.6-0.4,1.2-0.8,1.7-1.2
		c0,0,0.1-0.1,0.1-0.1c2.7-2.1,5.1-4.7,7-7.5c0.1-0.2,0.2-0.3,0.3-0.5c0.4-0.6,0.7-1.2,1.1-1.8c0.2-0.3,0.3-0.6,0.5-0.9
		c0.3-0.5,0.5-1,0.8-1.6c0.2-0.5,0.4-1,0.6-1.4c0.2-0.4,0.3-0.8,0.5-1.3c0.3-0.9,0.6-1.9,0.9-2.9c0.3-1,0.4-2,0.6-3
		c0.1-0.4,0.1-0.7,0.1-1.1c0.1-0.7,0.1-1.3,0.2-2c0-0.4,0-0.8,0-1.2c0-0.6,0-1.2,0-1.8c0-0.4,0-0.8-0.1-1.3c0-0.6-0.1-1.2-0.2-1.8
		c0-0.4-0.1-0.8-0.2-1.2c-0.1-0.8-0.3-1.7-0.5-2.5c-0.1-0.3-0.2-0.6-0.2-0.9c-0.2-0.8-0.4-1.5-0.7-2.2c-0.1-0.3-0.3-0.7-0.4-1
		c-0.2-0.6-0.5-1.2-0.7-1.7c-0.2-0.4-0.3-0.7-0.5-1.1c-0.3-0.5-0.5-1-0.8-1.6c-0.2-0.4-0.4-0.7-0.6-1.1c-0.3-0.5-0.6-1-0.9-1.4
		c-0.2-0.4-0.5-0.7-0.7-1c-0.3-0.4-0.7-0.8-1-1.2c-1.4-1.6-2.9-3.1-4.5-4.5c-0.1-0.1-0.2-0.2-0.3-0.3c-0.6-0.5-1.3-1-1.9-1.4
		c-0.1-0.1-0.2-0.2-0.3-0.2c-0.7-0.5-1.4-0.9-2.1-1.3c0,0-0.1-0.1-0.1-0.1l-0.3-0.2l0,0c-2.3-1.2-4.8-2.2-7.4-2.9
		c-17.6-4.4-35.5,6.3-40,23.9c-2.1,8.5-0.8,17.4,3.7,24.9C330.9,272.8,338.1,278.2,346.6,280.3z M369.1,222.9c0.7,0.4,1.3,0.8,2,1.2
		c0.1,0.1,0.2,0.1,0.2,0.2c0.6,0.4,1.2,0.8,1.7,1.3c0.1,0.1,0.2,0.2,0.4,0.3c0.5,0.4,1,0.9,1.5,1.3c0.1,0.1,0.2,0.3,0.4,0.4
		c0.8,0.7,1.5,1.5,2.1,2.4c0.2,0.3,0.5,0.6,0.7,0.9c0.2,0.3,0.5,0.7,0.7,1c0.3,0.4,0.5,0.8,0.8,1.2c0.2,0.3,0.4,0.7,0.6,1
		c0.2,0.4,0.5,0.9,0.7,1.3c0.2,0.3,0.3,0.7,0.5,1c0.2,0.5,0.4,0.9,0.6,1.4c0.1,0.3,0.3,0.7,0.4,1c0.2,0.5,0.3,1.1,0.5,1.6
		c0.1,0.3,0.2,0.6,0.3,0.9c0.2,0.8,0.4,1.6,0.5,2.5c0.1,0.3,0.1,0.7,0.1,1c0.1,0.5,0.1,1.1,0.2,1.6c0,0.4,0,0.8,0,1.1
		c0,0.5,0,1,0,1.6c0,0.4,0,0.7,0,1.1c0,0.6-0.1,1.2-0.2,1.8c0,0.3-0.1,0.6-0.1,0.9c-0.1,0.9-0.3,1.8-0.5,2.7
		c-0.2,0.9-0.5,1.7-0.8,2.6c-0.1,0.4-0.3,0.8-0.5,1.2c-0.2,0.4-0.3,0.8-0.5,1.2c-0.2,0.5-0.5,1-0.8,1.5c-0.1,0.3-0.3,0.5-0.4,0.8
		c-0.3,0.6-0.7,1.1-1,1.6c-0.1,0.2-0.2,0.3-0.3,0.5c-0.4,0.6-0.8,1.2-1.3,1.7c-0.1,0.1-0.1,0.1-0.2,0.2c-1.9,2.3-4.1,4.3-6.6,5.9
		c-0.3,0.2-0.5,0.3-0.8,0.5c-0.4,0.3-0.8,0.5-1.3,0.7c-0.4,0.2-0.8,0.4-1.1,0.6c-0.4,0.2-0.8,0.4-1.2,0.6c-0.4,0.2-0.8,0.4-1.2,0.5
		c-0.4,0.2-0.8,0.3-1.2,0.5c-0.4,0.1-0.9,0.3-1.3,0.4c-0.4,0.1-0.8,0.2-1.3,0.3c-0.4,0.1-0.9,0.2-1.3,0.3c-0.4,0.1-0.9,0.2-1.3,0.2
		c-0.4,0.1-0.9,0.1-1.3,0.1c-1,0.1-2,0.1-3,0.1c-0.3,0-0.5,0-0.8,0c-13.8-5.7-21.1-19.6-17.4-33.1
		C339.8,230.8,354,221.6,369.1,222.9z M326.3,241.2c3.3-13.3,15.3-22.1,28.4-22.1c1.8,0,3.7,0.2,5.6,0.6
		c-13.1,2.2-24.3,11.4-27.6,23.9c-3.2,11.7,0.8,23.6,9.8,31.4c-5.3-2.4-9.8-6.4-12.9-11.6C325.5,256.7,324.4,248.8,326.3,241.2z"/>
	<path class="st0" d="M234,256.9c0-0.4,0.1-0.8,0.1-1.3c0-0.5,0-1,0-1.5c0-0.5,0-0.9,0-1.4c0-0.4-0.1-0.8-0.1-1.3
		c-0.1-0.5-0.1-1-0.2-1.5c0-0.2-0.1-0.5-0.1-0.7c-0.2-1.2-0.5-2.3-0.8-3.4c-0.1-0.3-0.2-0.6-0.3-0.9c-0.2-0.5-0.4-1.1-0.6-1.6
		c-0.1-0.3-0.3-0.7-0.4-1c-0.2-0.5-0.5-1-0.7-1.5c-0.2-0.3-0.4-0.7-0.5-1c-0.2-0.3-0.4-0.7-0.6-1c-0.1-0.1-0.2-0.2-0.2-0.4
		c-0.4-0.6-0.8-1.3-1.3-1.9c-0.3-0.5-0.7-0.9-1.1-1.4c-0.3-0.4-0.7-0.8-1-1.2c-0.3-0.4-0.7-0.7-1-1.1c-0.4-0.4-0.8-0.8-1.2-1.1
		c-0.3-0.3-0.7-0.6-1-0.9c-0.5-0.4-1.1-0.9-1.6-1.3c-0.6-0.4-1.1-0.8-1.7-1.2c-0.4-0.3-0.8-0.5-1.2-0.8l-0.3-0.2l0,0
		c-3.1-1.8-6.5-3.3-10.1-4.1c-18.5-4.3-37.3,6.2-42,23.4c-2.2,8-1,16.4,3.3,23.7c4.6,7.8,12.6,13.5,21.8,15.6c2.8,0.7,5.6,1,8.4,1
		c2.9,0,5.8-0.3,8.5-1c12-2.8,21.8-11.5,25.1-23.4c0.3-0.9,0.4-1.9,0.6-2.8c0.1-0.3,0.1-0.7,0.1-1
		C233.8,258.1,233.9,257.5,234,256.9z M230.3,256.7c0,0.5-0.1,1-0.2,1.5c0,0.3-0.1,0.6-0.1,0.9c-0.1,0.8-0.3,1.6-0.5,2.4
		c-0.3,0.9-0.6,1.9-0.9,2.8c-0.1,0.2-0.2,0.4-0.2,0.6c-0.3,0.7-0.6,1.4-1,2.1c-0.1,0.1-0.2,0.3-0.2,0.4c-0.4,0.7-0.8,1.4-1.2,2.1
		c-0.1,0.1-0.1,0.2-0.2,0.3c-0.5,0.7-1,1.4-1.5,2.1c0,0-0.1,0.1-0.1,0.1c-0.6,0.7-1.2,1.4-1.8,2c0,0-0.1,0.1-0.1,0.1
		c-0.7,0.7-1.3,1.3-2,1.9c0,0-0.1,0.1-0.1,0.1c-0.7,0.6-1.4,1.1-2.2,1.6c-0.1,0-0.1,0.1-0.2,0.1c-0.7,0.5-1.4,0.9-2.2,1.4
		c-0.1,0.1-0.3,0.2-0.4,0.2c-0.7,0.4-1.4,0.7-2.1,1c-0.3,0.1-0.5,0.2-0.8,0.3c-0.6,0.3-1.2,0.5-1.8,0.7c-0.4,0.1-0.8,0.3-1.2,0.4
		c-0.5,0.1-1,0.3-1.5,0.4c-0.5,0.1-1.1,0.3-1.7,0.4c-0.3,0.1-0.7,0.1-1,0.2c-0.7,0.1-1.4,0.2-2.1,0.3c-0.2,0-0.4,0-0.6,0.1
		c-0.9,0.1-1.7,0.1-2.6,0.1c-0.1,0-0.2,0-0.2,0c-2,0-3.9-0.2-5.9-0.5c-10.8-6.7-16-19.1-12.8-30.8c4-14.9,19.8-24.1,36-21.1
		c2.7,1.7,5,3.7,6.9,5.9c0.1,0.1,0.1,0.2,0.2,0.2c1.3,1.6,2.5,3.3,3.4,5c0.1,0.2,0.2,0.3,0.3,0.5c0.3,0.5,0.5,1.1,0.7,1.6
		c0.1,0.2,0.2,0.4,0.2,0.5c0.2,0.6,0.4,1.1,0.6,1.7c0,0.1,0.1,0.2,0.1,0.3c0.6,1.8,0.9,3.6,1.1,5.5c0,0.3,0.1,0.6,0.1,0.9
		c0,0.4,0,0.9,0,1.3c0,0.4,0,0.8,0,1.2C230.4,255.9,230.4,256.3,230.3,256.7z M172.3,268.4c-3.8-6.4-4.8-13.8-2.9-20.9
		c3.5-13,16.2-21.7,30.1-21.7c2.5,0,5.1,0.3,7.6,0.9c0,0,0,0,0,0c-14.1,1.4-26.3,10.7-29.9,24.2c-2.8,10.2,0,20.7,6.9,28.5
		C179.2,276.9,175.1,273.1,172.3,268.4z"/>
	<path class="st0" d="M309.7,249.8c0-0.4,0-0.9,0-1.3c-0.1-0.9-0.1-1.7-0.3-2.6c-0.1-0.5-0.2-1-0.3-1.5c-0.1-0.4-0.2-0.8-0.3-1.2
		c-0.1-0.5-0.3-1-0.4-1.6c-0.1-0.4-0.2-0.8-0.4-1.2c-0.2-0.5-0.3-1-0.5-1.5c-0.2-0.4-0.3-0.8-0.5-1.2c-0.4-0.8-0.7-1.6-1.2-2.4
		c-0.2-0.4-0.4-0.8-0.6-1.2c-0.3-0.4-0.5-0.9-0.8-1.3c-0.2-0.4-0.5-0.7-0.7-1.1c-0.3-0.4-0.6-0.9-0.9-1.3c-0.2-0.3-0.5-0.6-0.7-0.9
		c-0.4-0.4-0.7-0.9-1.1-1.3c-0.2-0.2-0.3-0.3-0.5-0.5c-1.6-1.6-3.3-3.1-5.2-4.4c-0.1-0.1-0.2-0.1-0.3-0.2l-0.3-0.2l0,0
		c-3-1.9-6.2-3.4-9.8-4.3c-8.5-2.1-17.4-0.8-24.9,3.7c-7.5,4.5-12.9,11.7-15,20.2c-2.1,8.5-0.8,17.4,3.7,24.9
		c4.5,7.5,11.7,12.9,20.2,15c2.7,0.7,5.4,1,8.1,1c5.9,0,11.7-1.6,16.8-4.7c4.2-2.5,7.7-5.9,10.4-9.9c0.1-0.1,0.2-0.3,0.3-0.4
		c0.4-0.6,0.8-1.2,1.1-1.8c0.2-0.3,0.3-0.6,0.5-0.9c0.3-0.5,0.5-1.1,0.8-1.6c0.2-0.5,0.4-1,0.6-1.5c0.2-0.4,0.3-0.8,0.5-1.2
		c0.3-0.9,0.6-1.9,0.9-2.9c0.2-1,0.4-2,0.6-3c0.1-0.3,0.1-0.7,0.1-1c0.1-0.6,0.1-1.3,0.2-1.9c0-0.4,0.1-0.8,0.1-1.2
		C309.7,250.9,309.7,250.4,309.7,249.8z M306,252.5c0,0.6-0.1,1.1-0.2,1.7c0,0.3-0.1,0.6-0.1,0.9c-0.1,0.9-0.3,1.7-0.5,2.6
		c-0.2,0.9-0.5,1.8-0.8,2.7c-4.7,13.2-18.4,21.4-32.5,19c-12-6.4-18.1-19.4-14.7-31.9c4-14.9,19.8-24.1,36.1-21.1
		c0.1,0,0.1,0.1,0.2,0.1c0.6,0.4,1.1,0.8,1.6,1.2c0.1,0.1,0.2,0.1,0.2,0.2c1.5,1.2,2.9,2.6,4.1,4.1c0.2,0.2,0.4,0.4,0.5,0.7
		c0.3,0.4,0.6,0.8,0.9,1.2c0.2,0.3,0.4,0.6,0.6,0.8c0.3,0.4,0.5,0.8,0.8,1.2c0.2,0.3,0.3,0.6,0.5,0.9c0.4,0.8,0.8,1.6,1.2,2.5
		c0.1,0.3,0.2,0.5,0.3,0.8c0.2,0.5,0.3,0.9,0.5,1.4c0.1,0.3,0.2,0.7,0.3,1c0.1,0.5,0.3,0.9,0.4,1.4c0.1,0.3,0.1,0.7,0.2,1.1
		c0.1,0.5,0.2,0.9,0.2,1.4c0.1,0.5,0.1,1.1,0.2,1.6c0,0.6,0.1,1.2,0.1,1.7c0,0.5,0,1,0,1.5C306,251.8,306,252.2,306,252.5z
		 M251.7,265.6c-4-6.7-5.2-14.6-3.3-22.2c1.9-7.6,6.7-14,13.4-18c4.6-2.7,9.7-4.2,15-4.2c2.4,0,4.8,0.3,7.2,0.9
		c0.1,0,0.3,0.1,0.4,0.1c-14.4,1.1-27,10.5-30.7,24.3c-2.7,10,0,20.4,6.6,28.1C256.8,272.4,253.9,269.3,251.7,265.6z"/>
	<path class="st0" d="M232.5,1156.3c0-0.3,0-0.6,0-0.9c-0.1-1-0.2-2-0.4-3c0-0.1,0-0.1,0-0.2c0,0,0-0.1,0-0.1c-0.2-1-0.4-2-0.6-2.9
		c-0.1-0.3-0.2-0.6-0.3-0.9c-0.2-0.7-0.4-1.4-0.7-2.1c-0.1-0.3-0.2-0.6-0.3-0.9c-0.3-0.7-0.5-1.4-0.9-2c-0.1-0.3-0.2-0.5-0.4-0.8
		c-0.4-0.7-0.7-1.5-1.2-2.2c-0.1-0.2-0.2-0.3-0.3-0.5c-3.3-5.5-8-9.8-13.5-12.6c-0.1-0.1-0.3-0.1-0.4-0.2c-0.7-0.3-1.4-0.6-2.1-0.9
		c-0.3-0.1-0.6-0.2-0.8-0.3c-0.3-0.1-0.7-0.2-1-0.3c-2.2-0.7-4.6-1.2-6.9-1.3c-0.1,0-0.1,0-0.2,0l-0.1,0c-2.3-0.1-4.6-0.1-6.9,0.3
		c-8.3,1.4-15.4,6.2-20.2,13.4c-4.7,7.2-6.5,16-5,24.8c2.8,16.4,16.4,28.1,31.5,28.1c1.6,0,3.3-0.1,4.9-0.4
		c4.9-0.8,9.4-2.9,13.2-5.8c0.2-0.1,0.3-0.2,0.5-0.4c0.3-0.2,0.5-0.5,0.8-0.7c0.5-0.5,1.1-0.9,1.5-1.4c0.1-0.1,0.2-0.3,0.4-0.4
		c0.7-0.7,1.3-1.4,1.9-2.1c0,0,0,0,0,0c3.3-4,5.6-8.9,6.7-14.2c0-0.2,0.1-0.4,0.1-0.5c0.2-0.8,0.3-1.6,0.4-2.4
		c0-0.3,0.1-0.6,0.1-0.8c0.1-0.7,0.1-1.5,0.1-2.2c0-0.3,0-0.7,0-1C232.5,1157.7,232.5,1157,232.5,1156.3z M228.9,1159.3
		c0,0.7-0.1,1.3-0.1,2c0,0.2,0,0.5-0.1,0.7c-0.1,0.8-0.2,1.5-0.4,2.3c0,0.1,0,0.2-0.1,0.3c-0.8,3.7-2.2,7.3-4.3,10.4
		c-1.6,2.4-3.4,4.4-5.5,6.2c-0.5,0.4-0.9,0.7-1.4,1.1c-0.2,0.1-0.3,0.2-0.5,0.4c-0.6,0.4-1.2,0.8-1.8,1.1c-0.1,0-0.1,0.1-0.2,0.1
		c-0.6,0.4-1.3,0.7-2,1c0,0-0.1,0-0.1,0.1c-12.8-1.1-23.4-11.3-25.7-25c-2.3-13.7,4.2-26.8,16-32.1c2.3,0.2,4.6,0.7,6.7,1.5
		c0.3,0.1,0.6,0.2,0.8,0.3c0.4,0.1,0.7,0.3,1.1,0.4c0.5,0.2,1,0.5,1.5,0.7c0.1,0.1,0.2,0.1,0.3,0.2c1.3,0.7,2.5,1.5,3.7,2.4
		c3,2.3,5.6,5.2,7.5,8.4c0.1,0.1,0.1,0.2,0.2,0.3c0.4,0.7,0.7,1.3,1.1,2c0.1,0.2,0.2,0.4,0.3,0.7c0.3,0.6,0.5,1.2,0.8,1.8
		c0.1,0.3,0.2,0.5,0.3,0.8c0.2,0.6,0.4,1.2,0.6,1.9c0.1,0.3,0.2,0.5,0.2,0.8c0.2,0.9,0.4,1.7,0.6,2.6c0,0,0,0.1,0,0.1
		c0,0,0,0.1,0,0.1c0.1,0.9,0.3,1.8,0.3,2.6c0,0.3,0,0.6,0,0.9c0,0.7,0.1,1.3,0.1,1.9C228.9,1158.7,228.9,1159,228.9,1159.3z
		 M173.9,1162.1c-1.3-7.9,0.3-15.7,4.5-22.2c4-6,9.8-10.1,16.5-11.5c-9.2,7.2-13.9,19.5-11.8,32.2c2.2,12.7,10.6,22.7,21.7,26.5
		C190.3,1188.7,176.6,1177.8,173.9,1162.1z"/>
	<path class="st0" d="M308.9,1158.1c0-0.3,0-0.6,0-0.9c-0.1-1-0.2-2.1-0.4-3.1c-0.2-1-0.4-2.1-0.7-3.1c-0.1-0.3-0.2-0.6-0.3-0.9
		c-0.2-0.7-0.4-1.4-0.7-2.1c-0.1-0.3-0.2-0.6-0.3-0.9c-0.3-0.7-0.5-1.4-0.9-2c-0.1-0.3-0.2-0.5-0.4-0.8c-0.4-0.7-0.7-1.4-1.1-2.1
		c-0.1-0.2-0.2-0.3-0.3-0.5c-3.3-5.5-8-9.8-13.5-12.6c-0.1-0.1-0.3-0.1-0.4-0.2c-0.7-0.3-1.3-0.6-2-0.9c-0.3-0.1-0.6-0.2-0.9-0.4
		c-0.3-0.1-0.6-0.2-0.9-0.3c-2.3-0.7-4.6-1.2-7-1.4c0,0-0.1,0-0.1,0l-0.1,0c-2.3-0.1-4.6-0.1-6.9,0.3c-8.3,1.4-15.4,6.2-20.2,13.4
		c-4.7,7.2-6.5,16-5,24.8c2.8,16.4,16.4,28.1,31.5,28.1c1.6,0,3.3-0.1,4.9-0.4c2.3-0.4,4.6-1.1,6.7-2l0,0c0,0,0,0,0,0
		c2.3-1,4.4-2.2,6.4-3.8c0.2-0.1,0.4-0.3,0.6-0.4c0.3-0.2,0.5-0.4,0.8-0.7c0.5-0.5,1.1-0.9,1.6-1.4c0.1-0.1,0.2-0.2,0.3-0.4
		c0.7-0.7,1.3-1.4,1.9-2.1c0,0,0,0,0,0c3.3-4,5.6-8.9,6.7-14.2c0-0.2,0.1-0.3,0.1-0.5c0.2-0.8,0.3-1.6,0.4-2.4
		c0-0.3,0.1-0.5,0.1-0.8c0.1-0.7,0.1-1.5,0.1-2.2c0-0.3,0-0.6,0-1C309,1159.5,309,1158.8,308.9,1158.1z M305.3,1161.1
		c0,0.7-0.1,1.3-0.1,2c0,0.2,0,0.5-0.1,0.7c-0.1,0.8-0.2,1.5-0.4,2.3c0,0.1,0,0.2-0.1,0.3c-0.8,3.7-2.2,7.3-4.3,10.4
		c-1.6,2.4-3.4,4.4-5.5,6.2c-0.4,0.4-0.9,0.7-1.4,1c-0.2,0.1-0.4,0.3-0.5,0.4c-0.6,0.4-1.2,0.8-1.8,1.1c-0.1,0-0.1,0.1-0.2,0.1
		c-0.6,0.4-1.3,0.7-2,1c0,0-0.1,0-0.1,0.1c-12.8-1.1-23.4-11.3-25.7-25c-2.3-13.7,4.2-26.8,16-32.1c2.3,0.2,4.6,0.7,6.7,1.5
		c0.3,0.1,0.6,0.2,0.9,0.3c0.4,0.1,0.7,0.3,1,0.4c0.5,0.2,1,0.5,1.5,0.7c0.1,0,0.2,0.1,0.3,0.1c1.3,0.7,2.5,1.5,3.7,2.4
		c3,2.3,5.6,5.2,7.5,8.4c0.1,0.1,0.1,0.2,0.2,0.3c0.4,0.7,0.7,1.3,1.1,2c0.1,0.2,0.2,0.4,0.3,0.6c0.3,0.6,0.5,1.2,0.8,1.8
		c0.1,0.3,0.2,0.5,0.3,0.8c0.2,0.6,0.4,1.3,0.6,1.9c0.1,0.3,0.2,0.5,0.2,0.8c0.2,0.9,0.4,1.8,0.6,2.7c0.2,0.9,0.3,1.9,0.3,2.8
		c0,0.3,0,0.5,0,0.8c0,0.7,0.1,1.3,0.1,2C305.3,1160.5,305.3,1160.8,305.3,1161.1z M250.4,1163.9c-1.3-7.9,0.3-15.7,4.5-22.2
		c4-6,9.8-10.1,16.5-11.5c-9.2,7.2-13.9,19.5-11.8,32.2c2.2,12.7,10.6,22.7,21.7,26.5C266.8,1190.5,253,1179.7,250.4,1163.9z"/>
	<path class="st0" d="M390.1,1159.9c0-0.3,0-0.6,0-0.9c-0.1-1-0.2-2.1-0.4-3.1c0-0.1,0-0.2-0.1-0.3c-0.2-0.9-0.4-1.9-0.6-2.8
		c-0.1-0.3-0.2-0.6-0.3-1c-0.2-0.7-0.4-1.4-0.6-2c-0.1-0.3-0.2-0.6-0.4-1c-0.3-0.7-0.5-1.3-0.8-2c-0.1-0.3-0.3-0.5-0.4-0.8
		c-0.4-0.7-0.7-1.4-1.1-2.1c-0.1-0.2-0.2-0.3-0.3-0.5c-2.8-4.6-6.6-8.4-11-11.2c0,0,0,0,0,0c-0.8-0.5-1.6-1-2.5-1.4
		c-0.1-0.1-0.3-0.1-0.4-0.2c-0.7-0.3-1.3-0.6-2-0.9c-0.3-0.1-0.6-0.3-0.9-0.4c-0.3-0.1-0.5-0.2-0.8-0.2c-2.3-0.8-4.7-1.2-7.1-1.4
		c0,0-0.1,0-0.1,0l-0.1,0c-2.3-0.1-4.6-0.1-6.9,0.3c-8.3,1.4-15.4,6.2-20.2,13.4c-4.7,7.2-6.5,16-5,24.8
		c2.8,16.4,16.4,28.1,31.5,28.1c1.6,0,3.3-0.1,4.9-0.4c2.3-0.4,4.6-1.1,6.7-2l0,0c0,0,0,0,0,0c2.3-1,4.5-2.3,6.5-3.8
		c0.2-0.1,0.4-0.3,0.5-0.4c0.3-0.2,0.5-0.5,0.8-0.7c0.5-0.5,1.1-0.9,1.6-1.4c0.1-0.1,0.2-0.2,0.4-0.4c0.7-0.7,1.3-1.4,1.9-2.1
		c0,0,0,0,0,0c3.3-4,5.6-8.9,6.7-14.2c0-0.2,0.1-0.3,0.1-0.5c0.2-0.8,0.3-1.6,0.4-2.4c0-0.3,0.1-0.5,0.1-0.8
		c0.1-0.7,0.1-1.5,0.1-2.2c0-0.3,0-0.6,0-0.9C390.2,1161.4,390.1,1160.6,390.1,1159.9z M386.5,1162.9c0,0.7-0.1,1.3-0.1,2
		c0,0.2,0,0.5-0.1,0.7c-0.1,0.8-0.2,1.5-0.4,2.3c0,0.1,0,0.2-0.1,0.3c-0.8,3.7-2.2,7.3-4.3,10.4c-1.6,2.4-3.4,4.4-5.5,6.2
		c-0.5,0.4-0.9,0.7-1.4,1.1c-0.2,0.1-0.3,0.3-0.5,0.4c-0.6,0.4-1.2,0.8-1.8,1.1c-0.1,0-0.1,0.1-0.2,0.1c-0.6,0.4-1.3,0.7-2,1
		c0,0-0.1,0-0.1,0.1c-12.8-1.1-23.4-11.3-25.7-25c-2.3-13.7,4.2-26.8,16-32.1c2.3,0.2,4.6,0.7,6.7,1.5c0.3,0.1,0.6,0.2,0.8,0.3
		c0.4,0.1,0.7,0.3,1.1,0.4c0.5,0.2,1,0.5,1.5,0.7c0.1,0.1,0.2,0.1,0.3,0.2c1.3,0.7,2.5,1.5,3.7,2.4c3,2.3,5.6,5.2,7.5,8.4
		c0.1,0.1,0.1,0.2,0.2,0.3c0.4,0.7,0.7,1.3,1.1,2c0.1,0.2,0.2,0.4,0.3,0.6c0.3,0.6,0.5,1.2,0.8,1.9c0.1,0.3,0.2,0.5,0.3,0.8
		c0.2,0.6,0.4,1.3,0.6,2c0.1,0.2,0.1,0.5,0.2,0.7c0.2,0.9,0.4,1.8,0.6,2.8c0.2,0.9,0.3,1.9,0.3,2.8c0,0.3,0,0.5,0,0.8
		c0,0.7,0.1,1.3,0.1,2C386.5,1162.3,386.5,1162.6,386.5,1162.9z M331.5,1165.7c-1.3-7.9,0.3-15.7,4.5-22.2c4-6,9.8-10.1,16.5-11.5
		c-9.2,7.2-13.9,19.5-11.8,32.2c2.2,12.7,10.6,22.7,21.7,26.5C348,1192.4,334.2,1181.5,331.5,1165.7z"/>
	<path class="st0" d="M601.5,975.9L596,956l-1.8-6.7h-6.9h-5.5l-0.8-20.4l-0.4-9.8l-9.8,1.2l-2.3,0.3V497.4h8.8v-9.1V472l11.8-2.4
		l7.3-1.5v-7.4V110.9v-4l-2.9-2.7l-94.6-87.3l-0.9-0.8l-1-0.5c-2.4-1.3-5.1-1.9-8.4-1.9h0c-5.8,0-12.1,2-12.8,2.3l-3.9,1.3l-1.6,3.8
		c-0.5,1.2-1,2.5-1.5,3.9c-9.6-0.4-20.1-0.5-31.2-0.5c-31.2,0-63.9,1.4-90.2,2.5c-4.6,0.2-9.1,0.4-13.4,0.6
		c-20.2,0.8-45.7,4.1-59.6,6.1c-1.1-1.5-2.6-2.6-4.3-3.3c-4.8-2-10.5-3.2-15.6-3.2c-5.5,0-9.7,1.3-12.7,3.9
		c-11.2,9.7-20.1,31.6-27,66.9c-3.8,19.5-6,38.1-7,48.9l-31.6,1.2l-1.8-1.6l-1.8-1.6l-2.3-0.5c-0.9-0.2-8.8-1.9-16.1-1.9
		c-6.1,0-10.3,1.2-13.5,3.7c-7.5,6-12.9,17.8-14.7,31.6c-1.5,12.4-6.9,80.1-7.9,113.7c-24.2,0.4-39.4,0.5-44.2,0.5l-0.5,0h0l-0.1,0
		c-7,0-19.7,3.1-25.4,24c-2.7,9.7-2.7,19.3-2.7,19.7v423.8l0.6,284.3c0,1.2-0.1,16.3,2,31.6c1.3,9.4,5.1,38.1,23.9,38.5l47.5,1.2
		c1.4,17.7,4.6,58.9,6,72.5c0.5,4.8,1,11.5,1.6,18.6c2.5,31.3,3.9,43.4,6.7,48.6c3.8,7.2,13.9,14.6,25.8,14.6c4.5,0,8.9-1,13-3.1
		c4.2-2.1,7.1-3.9,9-5.6l23.1,0.7c2.8,24.3,9.4,48.4,9.7,49.5c4.2,15.5,16.2,54.8,20.3,61.5c0.2,0.3,0.3,0.5,0.5,0.8
		c2.5,4.2,7.8,12.9,21.2,12.9c3.4,0,7.1-0.6,11.2-1.8c10.5,1,61.8,6,89.5,6.8c16.5,0.5,48.7,1.6,71.3,2.5c18.2,0.7,34.7,1.3,43,1.6
		c3.6,5.5,9.8,9.1,16.7,9.1c0.4,0,0.8,0,1.2,0l3.6-0.2c6.6-0.4,13.1-3,18.1-7.4l86.2-75.1l3.1-2.7l0-4.1l1.7-336.2l0-1.2
		L601.5,975.9z M482.9,1385.3l-0.7-3.5l-0.6,0c-2.7-7.6-10.1-28.4-12.4-40c-2.9-14.3-4.4-49-4.5-49.5l-2.7-34.2
		c3.3-2,7.8-3.9,10.2-2.7c2.2,1.1,2.5,5.5,2.5,8c-0.3,21.2,3.6,52.3,7.6,72.1c3.9,19.3,12.7,51.1,12.8,51.5c0.1,0.2,0.5,1.5,1.7,2.6
		c-1.2,0.4-2.5,0.6-3.8,0.7l-3.5,0.2C486.4,1390.7,483.5,1388.4,482.9,1385.3z M248,1366l-0.6-0.9c-2.4-3.9-13.1-36.9-18.8-57.9
		c-0.1-0.3-7.1-25.9-9.6-50l11.7,0.4c3.4,24.5,11.4,59.6,17,74.5c1.2,3.1,2.4,7.1,3.6,11.3c3,10.1,6.3,21,11.4,28.3
		C252.8,1373.9,250.4,1369.9,248,1366z M146.9,1248.3c-2-3.7-4-28.6-5.1-43.4c-0.6-7.2-1.1-14-1.6-18.9c-1.5-14.2-5.1-60.1-6.3-75.3
		l10.7,0.3c1.6,29.9,7.7,100.5,8.9,108.9c0.1,0.9,0.3,2.1,0.4,3.5c1.4,12.2,3.4,25.3,8.8,32.1
		C155.3,1256.5,148.8,1251.9,146.9,1248.3z M60.6,1009.8h12.6c0,3.4,0,6.7,0,10c-0.1,29.3-0.1,52.4,2.8,66.9
		c1.1,5.6,2.9,10,4.9,13.5l-7.8-0.2c-7.7-0.1-12.8-29.8-12.5-56.4L60.6,1009.8z M74.6,305.4c1.5,0,4.2,0,8,0
		c-6.8,9.1-8.2,22.4-8.3,23.2l0,59.7H60.1v-52.7c0-5.4,1.4-20.9,7.9-27.3C69.9,306.3,72,305.4,74.6,305.4z M85,1084.8
		c-2.8-13.5-2.7-36.3-2.7-65c0-4.7,0-9.5,0-14.5v-4.5H60.6l-0.5-241.4V395.5h21.5v-66.4c0.2-1.8,2.7-19.5,12.2-23.9
		c52.3-0.7,190.2-3,234.6-3.8c-2.4,4.7-3.7,10.9-3.7,18.6v76.4h24.6V1006h-21.6l1,72.3c-0.2,2-0.9,15.1,3.8,24.4
		c0.7,1.4,1.4,2.6,2.2,3.7l-241.2-5.9C92.3,1100.2,87.4,1096.7,85,1084.8z M149.9,155.8c1.1-0.9,4.4-1.1,8.4-0.8c0,0,0,0-0.1,0.1
		c-4.7,5.7-7.7,14.3-9,25.8c-2.8,24.5-4.9,95.9-5.4,114.5c-4.1,0.1-8,0.1-11.9,0.2c0.6-31.5,6.3-103.7,7.9-116.5
		C141.4,166.6,146.3,158.7,149.9,155.8z M250.6,39.8c1.4-1.2,8-1.7,14.7,0.8c-0.1,0.2-0.2,0.4-0.3,0.5c-0.3,0.7-0.7,1.4-0.9,2.1
		l-0.8,2.5C254,59.4,241.3,78,236,151.1l-15.6,0.6C221.7,130.3,231,56.7,250.6,39.8z M267.2,46.7c0.4-0.1,40.4-6.3,68.3-7.5
		c4.3-0.2,8.7-0.4,13.3-0.6c36.7-1.5,82-3.5,121.9-1.9c-1,3.4-2.1,6.9-3,10.6c-30.5,0.2-72.6,0.8-108,2.5
		C328,51.5,274,56.5,260,57.9c2.2-4,4.4-7.2,6.5-10.1C266.7,47.4,266.9,47.1,267.2,46.7L267.2,46.7z M583.9,112.9V457l-19.1,3.9
		v22.8H556V936l12.6-1.5l1.2,28.5H585l4.4,15.9l-1.7,333.5l-84.2,73.4c-1.2,0.3-1.8,0.3-2.2,0.2c-0.6-0.1-0.8-0.5-0.8-0.5
		c0,0,0,0,0,0c-0.1-0.3-8.8-32-12.7-51c-4-19.5-7.8-50.1-7.5-71c0.1-6.7-1.8-11.1-5.5-12.9c-4.1-2-9.2-0.4-13.1,1.6l-0.1-1.6
		l-38.3,21.1c-1-1.3-1.3-4.3-1.2-6.3l0-0.1l0-0.1c0-1.5-3.6-146-4.1-172.5l-7.8-782.2c0.9-2.5,1-4.7,1-5.4
		c0.2-4.7,5-144.4,6.2-155.1c0.4-3.4,1.3-4.6,1.6-4.7c0.2-0.1,1.2,0,2.4,0.7l0.2,0.1l0.4,0.2c0.1,0,2.7,1.2,17.5,9.2
		c1.1,0.6,2.3,1.1,3.4,1.5c11.7,5.9,19.1,7.3,19.4,7.3l0.9,0.1c0.7,0.1,1.6,0.1,2.6,0.1c4.6,0,11.8-1.5,14.2-12.5
		c2.2-10.2,7.8-57.4,9.2-72c1.1-11,6.5-31.2,10.3-45L583.9,112.9z M240,1257.8l25.8,0.8c-4.2,6.7-5.8,14.9-4.4,23
		c1.4,8.4,5.8,15.8,12.4,20.8c5.3,4,11.4,6.1,17.7,6.1c1.6,0,3.2-0.1,4.8-0.4c5.3-0.9,10.1-3.3,14.1-6.8c0.4-0.3,0.8-0.7,1.1-1
		c0.2-0.2,0.4-0.4,0.6-0.6c0.5-0.6,1.1-1.1,1.6-1.7c0.1-0.1,0.1-0.2,0.2-0.2c3.1-3.8,5.3-8.4,6.3-13.5c0-0.2,0.1-0.3,0.1-0.5
		c0.2-0.8,0.3-1.6,0.4-2.4c0-0.2,0.1-0.4,0.1-0.6c0.1-0.8,0.1-1.6,0.1-2.4c0-0.2,0-0.4,0-0.6c0-0.9,0-1.8-0.1-2.7c0-0.1,0-0.2,0-0.2
		c-0.1-1-0.2-2-0.4-3c-0.7-4.1-2.1-8-4.2-11.5l20.6,0.6c-4,6.6-5.5,14.7-4.2,22.6c1.4,8.4,5.8,15.8,12.4,20.8
		c5.3,4,11.4,6.1,17.7,6.1c1.6,0,3.2-0.1,4.8-0.4c4.6-0.8,8.9-2.7,12.5-5.5c0.2-0.2,0.4-0.3,0.6-0.4c0.2-0.2,0.5-0.4,0.7-0.6
		c0.5-0.5,1-0.9,1.5-1.4c0.1-0.1,0.2-0.2,0.3-0.3c4.1-4.2,7-9.6,8.2-15.6c0-0.2,0.1-0.3,0.1-0.5c0.1-0.8,0.3-1.6,0.4-2.4
		c0-0.3,0.1-0.5,0.1-0.8c0.1-0.7,0.1-1.4,0.1-2.1c0-0.3,0-0.6,0-0.9c0-0.7,0-1.4-0.1-2.2c0-0.3,0-0.5,0-0.8c-0.1-1-0.2-2-0.4-3
		c-0.1-0.7-0.3-1.4-0.4-2.1c0-0.1,0-0.2-0.1-0.3c-0.1-0.3-0.2-0.6-0.2-0.9c-0.1-0.5-0.2-0.9-0.4-1.4c0,0,0-0.1,0-0.1
		c-0.7-2.2-1.6-4.3-2.8-6.3l10.2,0.3l0,1.1c0,2,0.3,12.5,4.9,17.2c0.1,0.1,0.3,0.3,0.4,0.4c0,1.9,0.1,3.9,0.5,5.7
		c1.4,8.4,5.8,15.8,12.4,20.8c5.3,4,11.4,6.1,17.7,6.1c1.6,0,3.2-0.1,4.8-0.4c7.2-1.2,13.5-5.1,17.9-10.8c0.3,5.8,0.9,13.4,1.5,20.9
		l-205.6-7.9C247.8,1299.9,242.7,1276.7,240,1257.8z M312.5,1293.2c-0.5,0.7-1,1.5-1.6,2.1c0,0,0,0-0.1,0.1c-0.5,0.6-1,1.2-1.5,1.7
		c-0.1,0.1-0.2,0.2-0.3,0.3c-0.4,0.4-0.8,0.7-1.1,1c-1.9,1.7-4,3.1-6.4,4.1c-12.2-1.1-22.1-10.8-24.3-23.8c-1.2-7,0.1-14,3.6-19.8
		l30.9,1c2.5,3.6,4.3,7.7,5,12.2c0.2,0.9,0.3,1.8,0.3,2.8c0,0.1,0,0.2,0,0.2c0.1,0.8,0.1,1.6,0.1,2.4c0,0.2,0,0.4,0,0.5
		c0,0.7-0.1,1.4-0.1,2.1c0,0.2,0,0.4-0.1,0.5c-0.1,0.8-0.2,1.5-0.3,2.2c0,0.1,0,0.2-0.1,0.3C315.8,1286.9,314.5,1290.2,312.5,1293.2
		z M276.7,1258.9c-3.2,6.2-4.3,13.4-3.1,20.6c2,12,10,21.5,20.4,25.2c-6.4,0.7-12.7-1.1-18-5.2c-5.8-4.4-9.7-11-11-18.5
		c-1.4-8,0.6-16.1,5.1-22.3L276.7,1258.9z M347.7,1261.1c-3,6.1-4.1,13.2-2.9,20.2c2,12,10,21.4,20.4,25.2c-6.4,0.7-12.7-1.1-18-5.2
		c-5.8-4.4-9.7-11-11-18.5c-1.3-7.8,0.5-15.8,4.9-21.9L347.7,1261.1z M372.7,1304.4c-12-1.1-22.2-11-24.4-23.7
		c-1.2-6.8,0.1-13.7,3.3-19.5l31.5,1c1.5,2.1,2.6,4.5,3.5,6.9c0.5,1.6,1,3.2,1.3,4.9c0.1,0.9,0.2,1.7,0.3,2.6c0,0.5,0,0.9,0.1,1.4
		c0,0.4,0,0.7,0,1.1c0,0.7,0,1.3-0.1,2c0,0.1,0,0.2,0,0.3c-0.8,10.1-6.6,19.1-15.4,23.2C372.8,1304.4,372.8,1304.4,372.7,1304.4z
		 M153.7,1111.1l191.7,4.7l0.1,0h14.1l35.6-14l1.7,107.5l-236.1-7.1C158.6,1177.8,155,1133.6,153.7,1111.1z M169.9,158.2l2.8,2.5
		l218.7-8.1c-0.1,5.8-0.7,22.1-1.5,42.1l-233.3,9.6c0.5-9.2,1.1-17,1.7-22.4c1.4-12.1,4.6-18.1,7-21.1c1.3-1.6,2.9-2.6,4-2.7
		C169.5,158.1,169.7,158.2,169.9,158.2z M257.9,61.7c8.4-0.8,68-6.5,101.9-8.1c34.9-1.7,76.5-2.3,106.8-2.5
		c-2.9,11.3-5.4,23.2-7.1,33.4L246.8,95.5C250.2,79.8,254.1,69.4,257.9,61.7z M408.3,148.9c-1.2,11.1-6.1,149.9-6.3,155.8l0,0.1
		l0,0.1c0,0.4-0.2,3-1.5,3.9c-0.5,0.3-2.1,1-6.3-0.5c0.9-22.1,6.2-145.9,6.2-157.3c0-5.6,1.4-7.9,2.2-8.5l7.1,0.2
		C409,144.5,408.5,146.5,408.3,148.9z M332.5,130.7c3.3-13.1,15.1-21.9,28-21.9c2.3,0,4.7,0.3,7.1,0.9c4.6,1.2,8.7,3.4,12.2,6.4
		c-8.4-2.1-17.2-0.8-24.6,3.6c-7.5,4.5-12.7,11.6-14.9,20c-0.6,2.4-0.9,5-0.9,7.5l-6,0.2C331.4,142.1,331.1,136.3,332.5,130.7z
		 M389.2,141.7c0,0.1,0,0.1,0,0.2c-0.1,1-0.3,2-0.6,2.9c-0.1,0.2-0.1,0.5-0.2,0.7l-45.4,1.7c0-2.2,0.3-4.4,0.8-6.5
		c1.9-7.5,6.6-13.8,13.2-17.8c4.5-2.7,9.6-4.1,14.8-4.1c2.4,0,4.8,0.3,7.1,0.9c1.9,0.5,3.8,1.2,5.7,2.1c0,0,0,0,0,0
		c0.6,0.8,1.1,1.7,1.5,2.6c0,0,0,0,0,0C388.9,129.8,390,135.8,389.2,141.7z M455.9,119.4c-0.5,8.3-0.6,14.6-0.6,15.8
		c-0.4,3.4-2.1,10.7-5.4,12.9c-0.7,0.5-1.8,0.9-3.9,0.3c-0.7-0.2-1.4-0.5-2.2-1c-12.3-6.7-16.5-8.8-17.9-9.4c-1.2-0.8-4.8-3-8.7-3.8
		c2.4-5.6,6.4-10.2,11.7-13.4c6.6-4,14.4-5.1,21.9-3.2C452.5,117.9,454.2,118.6,455.9,119.4z M427,117.6c-6.3,3.8-11,9.5-13.6,16.2
		l-9.8-0.3c0.1-1.7,0.4-3.4,0.8-5c1.9-7.5,6.6-13.8,13.2-17.8c6.6-4,14.4-5.1,21.9-3.2c4.6,1.2,8.7,3.4,12.1,6.4
		C443.2,111.9,434.4,113.1,427,117.6z M246.1,99.2l212.8-11.1c-0.2,1-0.3,2.1-0.5,3c-1,7.2-1.7,15.2-2.2,22.3
		c-4.2-4.6-9.7-7.9-15.9-9.4c-8.4-2.1-17.2-0.8-24.6,3.6c-7.5,4.5-12.7,11.6-14.9,20c-0.5,2.1-0.8,4.2-0.9,6.3
		c-1.9,0.7-5.2,2.5-7.1,7.7c0.1-0.9,0.2-1.8,0.2-2.7c0,0,0-0.1,0-0.1c0.2-4.5-0.7-9-2.4-13.3c0,0,0,0,0-0.1c-0.4-1-0.9-2-1.4-3
		c0-0.1-0.1-0.1-0.1-0.2c-0.2-0.4-0.4-0.8-0.7-1.2c-0.3-0.6-0.7-1.1-1.1-1.6c0,0,0,0,0-0.1l-0.2-0.2c-4.5-6.4-11-11-18.7-13
		c-17.4-4.4-35.1,6.2-39.5,23.6c-1.5,5.9-1.2,12.1,0.6,17.9l-4.9,0.2c0.1-0.5,0.2-1.1,0.3-1.6c0-0.2,0-0.5,0.1-0.7
		c0.1-0.9,0.2-1.8,0.2-2.6c0-0.2,0-0.4,0-0.6c0-0.9,0-1.8-0.1-2.8c0-0.2,0-0.3,0-0.5c-0.1-1-0.2-2-0.4-2.9c0-0.1,0-0.2-0.1-0.3
		c-0.2-1-0.5-2.1-0.8-3.1c0,0,0-0.1,0-0.1c-0.7-2.3-1.7-4.5-2.9-6.6c-4.6-7.7-12.4-13.3-21.6-15.5c-18.3-4.3-36.9,6.1-41.5,23.2
		c-1.5,5.4-1.4,11.1,0.3,16.5l-18.5,0.7C241.2,129.3,243.5,112.5,246.1,99.2z M261.4,134.8c3.5-12.9,16-21.5,29.7-21.5
		c2.5,0,5,0.3,7.5,0.9c4.8,1.1,9.2,3.3,12.8,6.3c0,0,0,0,0,0c-18.3-4.3-36.9,6.1-41.5,23.2c-0.6,2.1-0.9,4.2-1,6.3l-6.9,0.3
		C260.2,145.2,260,139.9,261.4,134.8z M316.6,126.1c1.8,2.5,3.1,5.2,3.9,8c0,0,0,0,0,0c0.3,0.9,0.5,1.8,0.7,2.8c0,0,0,0.1,0,0.1
		c0.2,0.9,0.3,1.8,0.3,2.7c0,0.1,0,0.2,0,0.3c0.1,0.8,0.1,1.7,0,2.5c0,0.1,0,0.3,0,0.4c0,0.8-0.1,1.6-0.2,2.3c0,0.2,0,0.4-0.1,0.5
		c-0.1,0.8-0.3,1.5-0.5,2.2l-48.4,1.8c0.1-1.8,0.4-3.5,0.8-5.2c3.5-12.9,16-21.5,29.7-21.5c2.5,0,5,0.3,7.5,0.9
		C312.6,124.4,314.6,125.2,316.6,126.1z M156.3,208l233.4-9.6c-1.5,38.2-3.6,88-4.4,106l-25.4-11.8l-17.8-0.5c-0.1,0-0.1,0-0.2,0v0
		c0,0,0,0,0,0c-0.1,0-0.3,0-0.5,0c-7.8,0.1-112.3,1.9-188.5,3.2C153.4,281.2,154.6,238.6,156.3,208z M333.8,320
		c0-14.5,4.8-18.6,7.6-18.9c0.2,0,0.4,0,0.5,0l12.8,0.3c-2.9,4.2-3.7,11.4-4,21.5c-0.5,18.6-0.6,52.2-0.6,64.4h-16.4V320z
		 M357.5,387.3c0-12.2,0.1-45.7,0.6-64.2c0.1-4.1,0.4-16.5,3.5-18.3c0.6-0.4,1.5-0.4,2.5-0.3l23.5,11l0,0c0,0,0,0,0,0l6.2,2.9l0-0.6
		c1.7,0.4,3.3,0.6,4.8,0.6c2.3,0,4.3-0.5,6.2-1.5l7.7,775.8c0.4,26.2,4,167.4,4.1,172.5c-0.1,1-0.2,5,1.3,8.2
		c-3.7,0.4-7.4,0.8-9.1,0.7c-1.1-1.9-1.8-6.7-1.9-10.4l-2.8-175.1l-37.5,14.7l0,0c-2.1,0.8-2.8,0.3-3.2,0c-3.9-2.7-5.3-15.4-5-23.3
		v-64.9v-4.5V387.3H357.5z M454.5,1298.8c-2.7,4-6.4,7.3-10.8,9.2c-12.2-1.1-22.2-10.8-24.4-23.7c-0.1-0.7-0.2-1.3-0.3-2
		c1.1-0.1,2.3-0.3,3.6-0.5l1.1-0.1l29.7-16.4l2.2,27.5c0,0.3,0.1,1.6,0.2,3.7c-0.4,0.7-0.8,1.5-1.3,2.1
		C454.6,1298.7,454.6,1298.8,454.5,1298.8z M415.5,1282.7c0.1,0.7,0.1,1.5,0.3,2.2c2,12,10,21.4,20.4,25.2
		c-6.4,0.7-12.7-1.1-18.1-5.2c-5.8-4.4-9.7-11-11-18.5c-0.2-1.2-0.3-2.4-0.4-3.5C408.9,1283.2,411.7,1283.1,415.5,1282.7z
		 M349.3,1015.1l0,64.7c-0.1,3.4-0.3,18.3,5.2,26.8h-7.1c-1.2-0.7-4-2.9-6.7-8.2c-3.9-7.5-2.9-19.5-2.8-19.6l0-0.2l-0.9-63.5H349.3z
		 M480,79c-1.4,14.4-6.9,61-9.1,71c-1.2,5.7-3.3,5.6-7.2,5.2l-0.2,0c-0.6-0.1-2.7-0.6-6.1-1.8c5.5-6,6.7-16.2,6.8-17.5l0-0.3
		c0-0.2,0.5-24.5,3.1-43.1c2.7-18.7,9.5-48.2,15.7-64.1c3.3-0.8,6.8-1.2,8.2-0.9l0.5,0.5C487.8,42.6,481.3,65.9,480,79z
		 M174.5,1249.5c-0.7,0.5-2.5,1.8-3.5,1.4c-2.3-1-5.6-6.8-8.1-28.6c-0.2-1.5-0.3-2.8-0.5-3.8c-0.2-1.6-0.6-5.4-1.1-10.8l235.6,7.1
		l0.6,38.8l-183.5-5.7l-32.8-1l-0.2,0C180.4,1246.9,177,1247.3,174.5,1249.5L174.5,1249.5z M276.5,1371.2
		c-7.5-0.8-12.9-18.7-16.4-30.5c-1.3-4.4-2.5-8.5-3.8-11.9c-0.4-1.1-0.9-2.5-1.4-3.9l203.8,7.9c0.5,4.1,1,7.9,1.6,10.8
		c2.2,10.8,8.2,28.4,11.5,37.8c-21.5-0.8-88.2-3.2-113.3-4C335.4,1376.7,294,1372.9,276.5,1371.2z"/>
</g>
</svg>
