<?xml version="1.0" encoding="utf-8"?>
<!-- Generator: Adobe Illustrator 21.0.0, SVG Export Plug-In . SVG Version: 6.00 Build 0)  -->
<svg version="1.1" id="Layer_1" xmlns="http://www.w3.org/2000/svg" xmlns:xlink="http://www.w3.org/1999/xlink" x="0px" y="0px"
	 viewBox="0 0 1417.3 1417.3" style="enable-background:new 0 0 1417.3 1417.3;" xml:space="preserve">
<style type="text/css">
	.st0{fill:#231F20;}
</style>
<path class="st0" d="M1388.4,293.7c-23.3-34.6-48.1-63.8-48.3-64c-42.7-50.9-83-83.9-87.3-87.4l-1.7-1.7c-0.2-0.2-0.3-0.3-0.5-0.5
	c-41-34.1-77.1-56.9-77.5-57.1c-1.2-0.7-2.5-1.1-3.9-1.1H374c-1.4,0-2.8,0.4-4,1.2c-48.5,31.8-76.4,56.2-77.5,57.2
	c-0.1,0.1-0.2,0.2-0.4,0.3l-1.8,1.8c-51,42.5-85.1,84.5-87.3,87.4c-55.4,65.1-98.8,139.5-128.9,221.2
	c-30.5,82.9-45.9,169.6-45.9,257.7c-2,169.6,61.9,344.4,175.5,479.7c0,0.1,0.1,0.1,0.1,0.2c41.1,46.4,77.2,78.7,77.5,79
	c36.2,33.3,86.7,65.5,88.8,66.8c1.2,0.7,2.5,1.1,3.9,1.1h795.2c1.4,0,2.8-0.4,4-1.2c2-1.3,48.8-32,77.5-57.1
	c54.3-46.6,83.9-83,87.3-87.3l1.7-1.7c0.1-0.1,0.3-0.3,0.4-0.4c21.8-25.4,47.2-62.5,48.3-64c0.8-1.2,1.3-2.7,1.3-4.1V297.8
	C1389.7,296.3,1389.2,294.9,1388.4,293.7z M1320.5,1165.8c-0.8-0.7-1.8-1-2.7-0.9c-1,0.1-1.9,0.6-2.5,1.4
	c-0.3,0.4-30.3,38.2-86.1,86.1c-0.7,0.6-1.2,1.5-1.3,2.5c-0.1,1,0.3,1.9,0.9,2.7l9.6,10.9c-25,21.3-62.6,46.6-71.3,52.3H376.2
	c-9.1-5.9-51-33.5-82.4-61.8l9.6-11c1.3-1.5,1.2-3.8-0.3-5.2c-0.3-0.3-34.8-31-55-53.7c-5.1-6.4-18-15.8-34-11.4
	C103.3,1045.3,40.9,874.4,42.9,708.7c0-86.5,15.2-171.5,45-252.7C117,377,158.7,305.1,211.9,242l10.9,9.5c0.8,0.7,1.7,1,2.7,0.9
	c1-0.1,1.9-0.6,2.5-1.4c0.3-0.4,35.2-43.7,86.1-86.1c0.8-0.6,1.2-1.5,1.3-2.5c0.1-1-0.2-2-0.9-2.7l-9.6-10.9
	c8-6.8,33.2-27.3,71.3-52.4H1167c7.4,4.8,37.3,24.5,71.2,52.4l-9.5,10.9c-0.7,0.8-1,1.7-0.9,2.7c0.1,1,0.6,1.9,1.4,2.5
	c0.4,0.3,42.6,34.2,86.1,86.1c0.6,0.8,1.5,1.2,2.5,1.3c1,0.1,2-0.2,2.7-0.9l10.9-9.5c6.5,7.9,25.4,31.1,43.7,58v817.3
	c-5.2,7.6-25.6,36.7-43.6,58.1L1320.5,1165.8z M1326.7,236.4l-8.2,7.2c-36.5-43-71.6-73.3-81.8-81.8l7-8
	C1247.8,157.1,1286.3,188.8,1326.7,236.4z M299.5,153.8l7,8c-42.3,35.7-73.2,71.5-81.8,81.8l-8.2-7.2
	C224.8,226.5,256.2,189.9,299.5,153.8z M219.7,1184.2c13.6-1.6,22.3,9.1,22.7,9.6c0,0.1,0.1,0.1,0.1,0.2
	c17.1,19.3,44.4,44.1,53,51.9l-7.2,8.2C279.8,1246.2,251.7,1219.9,219.7,1184.2z M1243.8,1263.7l-7.2-8.2
	c45.7-39.6,73.8-72,81.9-81.7l8,7C1323.5,1184.4,1294.9,1219.5,1243.8,1263.7z"/>
<g>
	<path class="st0" d="M1270.1,1167.1c-11.7,0-21.2-9.5-21.2-21.2c0-11.7,9.5-21.1,21.2-21.1c11.7,0,21.1,9.5,21.1,21.1
		C1291.2,1157.6,1281.8,1167.1,1270.1,1167.1z M1270.1,1132.1c-7.6,0-13.8,6.2-13.8,13.8c0,7.6,6.2,13.8,13.8,13.8
		c7.6,0,13.8-6.2,13.8-13.8C1283.9,1138.3,1277.7,1132.1,1270.1,1132.1z"/>
</g>
<g>
	<path class="st0" d="M1208.9,1170c-13.3,0-24.1-10.8-24.1-24.1c0-13.3,10.8-24.1,24.1-24.1c13.3,0,24.1,10.8,24.1,24.1
		C1232.9,1159.2,1222.1,1170,1208.9,1170z M1208.9,1129.2c-9.2,0-16.8,7.5-16.8,16.7c0,9.2,7.5,16.7,16.8,16.7
		c9.2,0,16.7-7.5,16.7-16.7C1225.6,1136.7,1218.1,1129.2,1208.9,1129.2z"/>
</g>
<g>
	<path class="st0" d="M598.3,1268.7l-22.5-35.9h-8.6v50.8h9.3c0-0.9-0.6-35.7-0.6-35.7l22.3,35.7h8.4v-50.8h-9.4
		C597.3,1234,598.3,1268.7,598.3,1268.7z"/>
	<polygon class="st0" points="827.5,1275 827.5,1232.8 817.9,1232.8 817.9,1283.7 847.7,1283.7 847.7,1275 	"/>
	<path class="st0" d="M501.7,1260.1c-5.8,0-10.5,4.7-10.5,10.5c0,5.8,4.7,10.5,10.5,10.5c5.8,0,10.5-4.7,10.5-10.5
		C512.2,1264.8,507.5,1260.1,501.7,1260.1z"/>
	<path class="st0" d="M496.5,1243.5l-3.1-6.6l-56.3,26.3c-1.9-1.9-4.5-3-7.3-3c-5.8,0-10.5,4.7-10.5,10.5c0,5.8,4.7,10.5,10.5,10.5
		c5.8,0,10.5-4.7,10.5-10.5c0-0.3,0-0.6,0-0.8L496.5,1243.5z"/>
	<path class="st0" d="M729.4,1277.6c-7.5,0-13.7-5.4-15-12.6l18.6-18.6l8.2,8.2l8-29.7l-29.7,8l8.4,8.4l-14.6,14.6
		c-2.8-9.3-11.4-16.2-21.7-16.2c-12.5,0-22.6,10.1-22.6,22.6h7.3c0-8.4,6.9-15.3,15.3-15.3c8.4,0,15.3,6.8,15.3,15.3l-24.4,24.4
		l5.2,5.2l20.9-20.9c3.4,8.2,11.5,14,20.9,14c12.5,0,22.6-10.1,22.6-22.6h-7.3C744.7,1270.7,737.9,1277.6,729.4,1277.6z"/>
</g>
<g>
	<path class="st0" d="M477.4,932.3v-34.2h-36.1v34.2c-11,6.3-18.4,18.1-18.4,31.6c0,20.1,16.3,36.4,36.4,36.4
		c20.1,0,36.4-16.3,36.4-36.4C495.8,950.3,488.4,938.5,477.4,932.3z M448.6,905.4h21.5v23.7c-2.5-0.8-5.2-1.3-7.9-1.5
		c-0.1,0-0.1,0-0.2,0c-0.9-0.1-1.7-0.1-2.6-0.1c-0.9,0-1.8,0-2.6,0.1c-0.1,0-0.1,0-0.2,0c-2.7,0.2-5.4,0.7-7.9,1.5V905.4z
		 M459.3,993c-16.1,0-29.1-13.1-29.1-29.1c0-11.1,6.3-20.8,15.5-25.7l0.8-0.4c8.1-4,17.5-4,25.6,0l0.9,0.4
		c9.2,4.9,15.4,14.6,15.4,25.7C488.4,979.9,475.4,993,459.3,993z"/>
	
		<rect x="485.1" y="920.1" transform="matrix(0.7067 -0.7075 0.7075 0.7067 -507.1127 624.2529)" class="st0" width="28.7" height="7.3"/>
	<rect x="501.7" y="960.2" class="st0" width="28.7" height="7.3"/>
	
		<rect x="495.7" y="989.6" transform="matrix(0.7074 -0.7069 0.7069 0.7074 -563.4882 646.798)" class="st0" width="7.3" height="28.7"/>
	<rect x="455.7" y="1006.2" class="st0" width="7.3" height="28.6"/>
	
		<rect x="404.9" y="1000.3" transform="matrix(0.7069 -0.7073 0.7073 0.7069 -587.1986 590.7893)" class="st0" width="28.7" height="7.3"/>
	<rect x="388.3" y="960.2" class="st0" width="28.7" height="7.3"/>
	
		<rect x="415.6" y="909.5" transform="matrix(0.7068 -0.7074 0.7074 0.7068 -530.5541 567.4076)" class="st0" width="7.3" height="28.7"/>
	<path class="st0" d="M697.8,958.5c0,33.9,27.4,61.3,61.3,61.3c2,0,4.1-0.1,6.1-0.3V1001c-2,0.3-4.1,0.4-6.1,0.4
		c-23.7,0-42.9-19.2-42.9-42.9c0-23.7,19.2-42.9,42.9-42.9c2.1,0,4.1,0.2,6.1,0.4v-18.5c-2-0.2-4.1-0.3-6.1-0.3
		C725.2,897.3,697.8,924.7,697.8,958.5z"/>
	<path class="st0" d="M863.2,915.6c2.1,0,4.1,0.2,6.2,0.4v-18.5c-2-0.2-4.1-0.3-6.2-0.3c-33.8,0-61.3,27.4-61.3,61.3
		c0,33.9,27.5,61.3,61.3,61.3c2.1,0,4.1-0.1,6.2-0.3V1001c-2,0.3-4.1,0.4-6.2,0.4c-20.5,0-37.6-14.4-41.9-33.7h35.7v-18.4h-35.7
		C825.6,930.1,842.7,915.6,863.2,915.6z"/>
</g>
<g>
	<path class="st0" d="M777.3,309h2.6c1.1,0,1.9,0,2.6,0.6c0.5,0.4,0.9,1.1,0.9,2c0,1.6-1.1,2.1-1.6,2.3l1.8,3.4h-1.8l-1.6-3.1h-1.4
		v3.1h-1.5V309z M778.8,310.3v2.6h0.5c0.5,0,0.7,0,1,0c0.4,0,1.5-0.1,1.5-1.3c0-0.2,0-0.8-0.7-1.1c-0.3-0.2-0.7-0.2-1.6-0.2H778.8z"
		/>
</g>
<g>
	<path class="st0" d="M772.1,313.1c0,4.3,3.5,7.8,7.8,7.8c4.3,0,7.8-3.5,7.8-7.8c0-4.3-3.5-7.8-7.8-7.8
		C775.6,305.3,772.1,308.8,772.1,313.1 M773.4,313.1c0-3.6,2.9-6.5,6.5-6.5c3.6,0,6.5,2.9,6.5,6.5c0,3.6-2.9,6.5-6.5,6.5
		C776.3,319.6,773.4,316.7,773.4,313.1"/>
</g>
<g>
	<path class="st0" d="M735.5,268.9c-6.1,0-11.1-4.9-11.1-11.1c0-6.1,5-11.1,11.1-11.1h10.2v-14.9h-10.2c-14.3,0-26,11.7-26,26
		c0,14.3,11.6,26,26,26h6.2c6.1,0,11.1,5,11.1,11.1c0,6.1-5,11.1-11.1,11.1h-32.4v14.9h32.4c14.3,0,26-11.7,26-26
		c0-14.3-11.7-26-26-26H735.5z"/>
</g>
<g>
	<path class="st0" d="M496,230.9h-24.7v-35.3h-14.9v84.7c0,22.9,18.6,41.5,41.5,41.5c24.6,0,44.5-20,44.5-44.5
		C542.4,251.7,521.6,230.9,496,230.9 M497.9,306.9c-14.7,0-26.6-11.9-26.6-26.6v-34.5H496c17.3,0,31.5,14.1,31.5,31.5
		C527.5,293.6,514.3,306.9,497.9,306.9"/>
</g>
<g>
	<path class="st0" d="M612.2,246.8c11.9,0,21.6,9.7,21.6,21.6v16.5c0,19.9,16.2,36.1,36.1,36.1c7.9,0,15.2-2.6,21.1-6.9v5
		c0,15.1-12.3,27.4-27.3,27.4h-3.4v14.9h3.4c23.3,0,42.2-19,42.2-42.3v-86.7H691v52.4c0,11.7-9.5,21.1-21.1,21.1
		c-11.6,0-21.1-9.5-21.1-21.1v-16.5c0-20.1-16.4-36.5-36.5-36.5v0h-22.4c-14.3,0-26,11.7-26,26c0,14.3,11.7,26,26,26v0H605
		c6.1,0,11.1,5,11.1,11.1c0,6.1-5,11.1-11.1,11.1h-23.9c-11.5,0-20.9-9.3-20.9-20.8v-52.7h-14.9v52.7c0,19.7,16,35.8,35.8,35.8H605
		c14.3,0,26-11.7,26-26c0-14.4-11.6-26-26-26h-15.1c-6.1,0-11-5-11-11c0-6.1,4.9-11.1,11-11.1H612.2z"/>
</g>
<g>
	<path class="st0" d="M452.6,232.6h-14.9v51.7c0,11.9-9.7,21.6-21.7,21.6c-11.9,0-21.6-9.7-21.6-21.6v-51.7h-14.9v51.7
		c0,20.1,16.4,36.5,36.5,36.5c20.2,0,36.6-16.4,36.6-36.5V232.6z"/>
</g>
</svg>
