<svg height="960" viewBox="0 0 960 960" width="960" xmlns="http://www.w3.org/2000/svg"><path d="m487 6.33526829c53.115895 0 105.250182 6.08019031 156.339068 18.23998401l.097018.0223879c62.428992 14.868508 106.670116 70.2404324 107.550533 134.2455948l.013381 1.94216v642.395585c0 67.650739-48.374597 125.623778-114.931922 137.737105-40.900168 7.44386-92.812286 11.081915-156.068078 11.081915-55.977556 0-102.191582-2.849387-138.922955-8.672713-.218191-.034591-.435688-.070886-.652481-.108869l-.017564-.00315-1.365263-.22608c-66.292248-11.501233-115.048945-68.597804-116.026761-135.873006l-.014976-2.062587v-644.269368c0-64.8233971 44.504326-121.1678919 107.563914-136.1865868l.145086-.0323719 2.046475-.4849996c49.688351-11.658366 100.363646-17.57230338 151.967291-17.74500041zm-221.569283 820.68606771.22194.969383c9.119787 38.773304 40.883461 69.36015 81.687726 75.829759l1.034754.162983c34.24528 5.344359 78.120235 8.016539 131.624863 8.016539 61.045688 0 110.680919-3.478508 148.905706-10.435447 39.446038-7.179115 69.950725-36.90961 79.195342-74.428659-63.178318 15.467563-136.872423 23.180975-221.101048 23.180975-84.436395 0-158.286233-7.751513-221.569283-23.295533zm221.569283-780.6860677c-50.038187 0-99.094344 5.7248889-147.168473 17.1746668-45.042723 10.7269661-76.831527 50.9730339-76.831527 97.2754599v644.2682l.007685 1.050505c.810714.00122 1.634403.101769 2.455981.310616 62.627428 15.920015 136.479987 23.902153 221.536334 23.902153s158.908906-7.982138 221.536334-23.902153c.809755-.205841 1.62156-.30648 2.420974-.310502.028562-.971776.042692-1.946134.042692-2.923318v-642.395501c0-46.302426-31.788804-86.5484938-76.831367-97.2761329-48.074289-11.4491049-97.130446-17.1739938-147.168633-17.1739938z"/></svg>