<svg height="960" viewBox="0 0 960 960" width="960" xmlns="http://www.w3.org/2000/svg">
<style type="text/css"> .pair {animation: pairing 3s infinite; }  @keyframes pairing { 0%, 5%, 95%, 100% { fill: rgba(255,255,255,0); } 10%, 90% { fill: #0074CC; } } </style>
<g fill="none" fill-rule="evenodd"><ellipse cx="595.827083" cy="481.148958" class="pair" fill="#0074cc" rx="43.708333" ry="30.595833"/><g fill="#000" fill-rule="nonzero"><path d="m693.766667 5.65520833c22.643674 0 41 18.35632527 41 40.99999997v866.8020837c0 22.643674-18.356326 41-41 41h-428.626042c-22.643675 0-41-18.356326-41-41v-866.8020837c0-22.6436747 18.356325-40.99999997 41-40.99999997zm0 19.99999997h-428.626042c-11.59798 0-21 9.4020203-21 21v866.8020837c0 11.597979 9.40202 21 21 21h428.626042c11.597979 0 21-9.402021 21-21v-866.8020837c0-11.5979797-9.402021-21-21-21zm-155.853125 521.5197917c26.59807 0 48.708333 15.477184 48.708333 35.595833 0 20.11865-22.110263 35.595834-48.708333 35.595834-26.598071 0-48.708334-15.477184-48.708334-35.595834 0-20.118649 22.110263-35.595833 48.708334-35.595833zm-115.827084 0c26.598071 0 48.708334 15.477184 48.708334 35.595833 0 20.11865-22.110263 35.595834-48.708334 35.595834-26.59807 0-48.708333-15.477184-48.708333-35.595834 0-20.118649 22.110263-35.595833 48.708333-35.595833zm115.827084 10c-21.680822 0-38.708334 11.919258-38.708334 25.595833s17.027512 25.595834 38.708334 25.595834c21.680821 0 38.708333-11.919259 38.708333-25.595834s-17.027512-25.595833-38.708333-25.595833zm-115.827084 0c-21.680821 0-38.708333 11.919258-38.708333 25.595833s17.027512 25.595834 38.708333 25.595834c21.680822 0 38.708334-11.919259 38.708334-25.595834s-17.027512-25.595833-38.708334-25.595833zm173.740625-111.621875c26.598071 0 48.708334 15.477184 48.708334 35.595833 0 20.11865-22.110263 35.595834-48.708334 35.595834-26.59807 0-48.708333-15.477184-48.708333-35.595834 0-20.118649 22.110263-35.595833 48.708333-35.595833zm-115.827083 0c26.59807 0 48.708333 15.477184 48.708333 35.595833 0 20.11865-22.110263 35.595834-48.708333 35.595834s-48.708333-15.477184-48.708333-35.595834c0-20.118649 22.110263-35.595833 48.708333-35.595833zm-115.827083 0c26.59807 0 48.708333 15.477184 48.708333 35.595833 0 20.11865-22.110263 35.595834-48.708333 35.595834-26.598071 0-48.708334-15.477184-48.708334-35.595834 0-20.118649 22.110263-35.595833 48.708334-35.595833zm231.654166 10c-21.680821 0-38.708333 11.919258-38.708333 25.595833s17.027512 25.595834 38.708333 25.595834c21.680822 0 38.708334-11.919259 38.708334-25.595834s-17.027512-25.595833-38.708334-25.595833zm-115.827083 0c-21.680822 0-38.708333 11.919258-38.708333 25.595833s17.027511 25.595834 38.708333 25.595834 38.708333-11.919259 38.708333-25.595834-17.027511-25.595833-38.708333-25.595833zm-115.827083 0c-21.680822 0-38.708334 11.919258-38.708334 25.595833s17.027512 25.595834 38.708334 25.595834c21.680821 0 38.708333-11.919259 38.708333-25.595834s-17.027512-25.595833-38.708333-25.595833z"/><path d="m690.892708 30.3239583h-422.878125-.458483c-5.032612.14128-9.671973 2.1753986-13.12165 5.6250753-3.575187 3.5751869-5.625075 8.4216674-5.625075 13.5801331v861.0541663l.005733.458484c.135547 5.032612 2.169666 9.671973 5.619342 13.121649 3.575187 3.575187 8.421668 5.625076 13.580133 5.625076h422.878125.458484c5.032612-.14128 9.671973-2.175399 13.121649-5.625076 3.575187-3.575187 5.625076-8.421667 5.625076-13.580133v-861.0541663l-.005733-.4584837c-.135547-5.0326121-2.169666-9.6719726-5.619343-13.1216494-3.575187-3.5751869-8.421667-5.6250753-13.580133-5.6250753zm-422.810647 9.9995447h422.810647c2.47904 0 4.790652.9781844 6.509066 2.6965984 1.657817 1.6578179 2.628322 3.8713185 2.696598 6.2531336v.3234097 860.9866883c0 2.47904-.978184 4.790652-2.696598 6.509066-1.657818 1.657817-3.871319 2.628322-6.253134 2.696598h-.32341-422.810647c-2.47904 0-4.790651-.978184-6.509065-2.696598-1.657818-1.657818-2.628323-3.871319-2.696598-6.253134v-.32341-860.9866883c0-2.4790401.978184-4.7906512 2.696598-6.5090653 1.657818-1.6578178 3.871319-2.6283229 6.253134-2.6965984z"/><path d="m644.998958 110.091667h-332.183333c-2.761424 0-5 2.238576-5 5v269.898958c0 2.761424 2.238576 5 5 5h332.183333c2.761424 0 5-2.238576 5-5v-269.898958c0-2.761424-2.238576-5-5-5zm-5.000958 9.999333v259.899h-322.183v-259.899z"/></g></g></svg>