<svg height="960" viewBox="0 0 960 960" width="960" xmlns="http://www.w3.org/2000/svg"><path d="m480.977982 2c.354113 0 .703533.00707261 1.04826.02102973l.51357.02607557.150188.0118947 3.901492.09474469c153.318407 4.93812059 276.397467 128.14904231 281.259302 280.85909831l.111053 4.636515.038153 4.749184c0 89.173533-40.555786 171.713682-108.79768 226.453816l-2.076397 1.65026-.149865.117721-11.945694 8.668637-.913054.694069c-18.915603 14.586345-31.063889 31.573894-36.960151 51.282581-1.483325 4.95812-2.224996 10.851697-2.3495 18.195143l-.010683.764859-.009223 1.28915-.000053.962886.006036.970281.025136 1.713116.034083 1.440089.047026 1.52934.077717 2.075695.12227 2.796576.423372 8.577365.159966 3.500261.089743 2.264641.04605 1.37386.035412 1.287411.029807 1.516777.014343 1.448811-.000475 1.418131-.002937.42503-.004194.426631-.029016 1.742669c-.128969 5.968143-.663944 11.260146-1.787077 16.182954l-.182251.774262-.038711.151436.075323 1.547137.192805 4.214151.387872 9.029712.357251.519461c2.300824 3.421203 3.945201 7.39069 4.868129 11.740067l.126932.623906.093663.498424c.258558 1.439408.390258 2.901361.391907 4.357719l-.007265.623729-.267089 11.313232-.274528 10.719269-.340825 11.891505-.201647 6.217815-.249461 6.759913-.138975 3.281716-.186891 3.821171-.099907 1.746527c-.897196 14.700119-10.349974 35.101102-22.027702 49.095466l-.456088.541967-.301504.351113-.834823 4.634829-.096403.587985-.180797 1.15383-.293619 1.988909-.230518 1.669031-.229091 1.756218-.229938 1.859965-.233061 1.980272-.299182 2.669749-.312059 2.915946-.423509 4.116266-.110163 1.986566-.248897 4.737553-.425019 8.744968-.507921 11.187913-.036064 2.634263-.054143 4.704762-.023319 2.648844-.023604 4.123039-.004991 3.37777.00674 2.464483.016116 2.27678.033163 2.57996.036813 1.849508.045836 1.657413c.156996 4.870934-1.469867 9.626055-4.565766 13.376335l-.294534.348618-32.165328 37.202975c-.406149.46976-.833883.920263-1.281789 1.350068l-.454578.422852-20.972131 18.909833c-.424707.382944-.865381.74726-1.320754 1.092017l-.460226.338202-.069441.047278-.193167.167201-.453001.381943-.457382.37612-.353873.283912-.458884.359545-.457039.348197c-5.266809 3.949452-11.365897 6.483638-19.65836 8.000517l-.696145.124061-1.117061.185907-.283346.044696-.285001.043989-1.156751.16896-.293429.040505-.295147.039818-1.197979.152461c-.404012.049018-.812747.096244-1.226319.141711l-.624.066887-1.270108.125962-1.300155.115712-.661559.054074-.669327.051587-1.362299.095811-.345563.022437-.34758.021837-1.4107.08141-1.443821.072059-.734545.032585c-.188915.012064-.377929.016085-.566987.017426l-.283611.00067h-.299271c-.191958 0-.383902 0-.575771-.005526l-.287739-.013124-1.434159-.067209-.353426-.018227-.351402-.018802-1.38557-.081021-.680908-.044041-.673102-.046424-1.323114-.100096-1.292885-.109916-1.263321-.119923-1.234422-.130118-1.20619-.140502c-8.893875-1.087262-15.486824-3.056883-21.021904-6.260114l-.458834-.269799-.728252-.446122c-1.103581-.693051-2.166565-1.438917-3.199632-2.240614l-.616335-.487743-.329484-.268641-.402598-.33473-.492542-.419308-.063335-.043366c-.310046-.221098-.613747-.451028-.910725-.689515l-.440379-.364112-.430015-.376741-20.971384-18.909834c-.461125-.415794-.902553-.852761-1.322873-1.30946l-.413232-.463222-32.165327-37.202975c-3.286649-3.801396-5.021833-8.700735-4.860352-13.723344.267641-8.324561.283384-17.207492.043775-26.644399l-.04792-1.775911-.018071-.697025-.041114-1.417301-.047806-1.452061-.116016-3.026454-.105179-2.39465-.164976-3.388237-.145778-2.767929-.654293-11.414464-.226659-2.230797-.383751-3.659332-.303553-2.763415-.177022-1.547605-.346985-2.879032-.171869-1.345282-.229613-1.711549-.29092-2.030482-.238611-1.557234-.26915-1.652358c-.026439-.16611-.052563-.335848-.07891-.512455l-.039754-.270466-.069203-.497993-.219723-.232496c-12.578347-13.495049-23.193011-34.834238-24.831884-50.580681l-.054703-.559972-.046497-.548655-.040201-.566488-.027007-.433075-.127149-2.300836-.195284-4.175461-.200775-5.042754-.293861-8.624689-.304964-10.355721-.22198-8.349084-.401889-16.673666c-.036819-1.672679.095021-3.346854.392077-4.977882.952643-5.259912 2.947389-9.996676 5.851439-13.924049l.33911-.44955.161291-.207941 1.018-10.355-.063583-.202221c-1.509449-4.919138-2.330313-10.225955-2.667635-16.145662l-.046998-.892581-.036706-.823137c-.055632-1.361863-.091473-2.642445-.106706-3.944901l-.007547-.982556.000011-.937197.006935-.960874.020123-1.331772.032694-1.406921.045412-1.500959.110526-2.909769.126713-2.84608.441939-9.010068.129229-2.92307.095793-2.565815.046155-1.557918.038687-1.82405.013467-1.049276.007009-1.331507-.005275-1.445862-.015321-1.250949c-.124282-7.348555-.864023-13.247631-2.343629-18.211371-5.876682-19.71493-17.980633-36.702302-36.822529-51.284884l-.70973-.54572-8.828233-6.412839-3.029269-2.214869-2.463682-1.957851c-67.997615-54.743093-108.40185-137.274841-108.40185-226.431779 0-160.375723 129.82059-290.398542 289.977982-290.398542zm-27.015786 902.995721 10.142804 9.142279.324947.2365.438746.339534.429282.351677.419559.363629.404929.360287.507537.438373.12768.048386.064597.023096.068887.023802.319895.101976.187564.054848.219999.06094.229407.060256.487301.11836.127807.029123.130217.028931.545125.113735.287232.055631.297098.054774.624059.106875.664313.103149.705091.099225.182706.024169.185295.023909.767241.092966.198366.022559.201005.022279.83057.086262.873446.081546.916845.076631.236054.018366.238807.018044.982928.068888 1.027638.063479 1.441827.075795.436203-.020236 1.090119-.058195 1.04481-.063875 1.00001-.069366.243063-.018179.240302-.018506.933767-.077258.890243-.082285.428959-.04297.418269-.044157.804723-.091783.1946-.023652.191983-.023928.741923-.098419.179019-.025267.17645-.025527.68027-.104637.639807-.10855.153688-.027727.1512-.027957.580066-.114071.275305-.05834.265572-.059179.502198-.120782.417538-.11079.311227-.09023.067743-.020798.063862-.020081.218097-.072996.148984-.056259.404309-.34749.482392-.428717c.276802-.246879.560284-.485891.850099-.716781l.439428-.340214.332772-.243798 10.040739-9.051889c-7.766553.613596-16.22313.920394-25.36973.920394-9.561484 0-18.397089-.335261-26.506813-1.005784zm-39.626196-114.303721.247941 1.524497.197859 1.271269.192732 1.288468.188527 1.312107.185249 1.342182.204692 1.555477.700001.084626 1.806327.209056 1.833449.203538 1.860564.198016 1.887668.19249 1.914767.186963 1.941856.181431 1.968936.175898 1.99601.17036 2.023074.164819 2.05013.159276 2.077179.15373 2.104218.148181 2.13125.142627 2.158273.137072 3.28806.195185 2.225796.123169 2.252789.117603 2.279777.112034 2.306754.106461 2.333724.100885 3.551137.140867 2.401112.086933 3.652181.119924 2.468449.072961 3.753148.098953 2.535735.05897 2.562634.053369 2.589527.047764 2.616409.042157 3.975003.052713 4.035444.040078 4.095857.027433 4.156242.014777 2.804363.002816c5.522847 0 10 4.477152 10 10 0 5.522847-4.477153 10-10 10l-2.87281-.002905-2.845965-.008718-4.218632-.023983-2.77889-.023263-2.752073-.029086-2.725266-.034913-2.698466-.040743-3.997469-.072051-2.631504-.055329-3.897064-.093947-2.564593-.069936-2.537843-.075784-2.511101-.081635-2.484368-.08749-2.457642-.093346-2.430926-.099207-2.404216-.10507-3.556265-.168605-2.33748-.119741-2.310801-.125616-2.284129-.131493-3.376202-.208265-2.217486-.146199-2.190843-.152087-2.164208-.157977-2.137582-.163872-2.110964-.169768-2.084354-.175669-2.057752-.181572-2.031158-.187478-2.996894-.292298-1.964711-.202257c-.325238-.034202-.649369-.068651-.972393-.103347l-.699793-.077485.428 7.435612.058 1.102388 1.817777.202127 1.860564.198015 1.887668.192491 1.914767.186963 1.941856.181431 1.968936.175897 1.99601.17036 2.023074.16482 2.05013.159276 2.077179.15373 2.104218.14818 3.207009.211859 2.171781.134293 2.198793.128733 2.225796.123169 3.389305.174316 3.450015.161782 2.333724.100885 3.551137.140867 2.401112.086933 3.652181.119924 2.468449.072961 2.49537.067368 2.522282.06177 2.549186.05617 3.874206.073748 2.616409.042156 3.975003.052714 2.683582.028123 4.075722.031649 4.136117.018997 4.196485.006335c5.522847 0 10 4.477152 10 10 0 5.522847-4.477153 10-10 10l-2.87281-.002905-2.845965-.008718-4.218632-.023983-2.77889-.023263-2.752073-.029086-2.725266-.034913-2.698466-.040743-3.997469-.072051-2.631504-.05533-3.897064-.093946-2.564593-.069936-2.537843-.075784-2.511101-.081635-2.484368-.08749-3.676444-.142217-3.61634-.155406-3.556265-.168605-2.33748-.119742-2.310801-.125615-2.284129-.131493-2.257466-.137373-2.23081-.143256-2.204163-.149142-2.177525-.155032-2.150894-.160924-2.124272-.16682c-.351827-.028294-.702545-.056835-1.052155-.085621l-2.084354-.175669-2.057752-.181572-2.031158-.187478-2.004574-.193387-1.977996-.1993-1.390494-.145706c.068028 3.200149.108236 6.351674.120567 9.452635 20.574141 2.454119 41.116312 3.681876 61.626012 3.681876 20.810345 0 40.948904-1.264015 60.415677-3.792046l.008013-1.563644.045376-5.173209.070522-5.629211.02068-1.276532.010803-.293797.305612-6.820679.343984-7.384007.417026-8.385679.290675-5.314412.028895-.422027.037815-.421321.216481-2.138075.545885-5.197735.324908-2.924698.254987-2.188763.190036-1.56518.253826-1.999336.256677-1.915583.262081-1.849641.201646-1.35467.13745-.891784.268639-1.681383-2.687518.245189-5.332262.466921-4.154099.347917-3.050446.245989-3.980471.308051-2.920289.216084-3.807014.26817-2.790261.186167-2.734574.173343-2.678911.160515-2.623271.147687-2.567654.134855-2.512062.122022-2.456494.109187-2.400947.096348-1.569785.0571-2.308425.074948-1.508125.042831-1.483473.037122-2.179003.044977-1.421875.022847-1.397247.017137-2.049709.014995-1.33571.002856-1.811258-.005195-1.865413-.015587-1.919587-.025977-1.973783-.036365-2.028-.046753-2.082238-.057138-2.136495-.067524-2.933099-.106184-3.029644-.12464-2.335622-.105591-3.198718-.156933-2.462483-.129808-3.367944-.189217-2.589458-.154018-4.436782-.279745-3.658396-.24454-3.755312-.262975-5.814794-.429023-6.033134-.470486-5.194519-.423737-4.264933-.359713zm-20.659367-113.586741-.018353.191647-.227143 2.101434-.082028.644985-.088866.584911-.064161.349204-.116655.532451-.172837.709061c-.816072 3.335463-2.462269 6.353615-4.728023 8.809364l-.312787.331366-.08478.085318.165902 6.88368.222489 8.691382.339316 11.977335.239103 7.407574.197062 5.379374.204809 4.805999.136263 2.698823.079056 1.349833.02726.29143c.762107 7.180303 8.930098 22.559184 15.814298 28.755693l.138442.121877 5.305469.482102 4.365548.385995 5.319995.45691 4.146384.345063 6.036773.483495 3.902574.299601 4.740949.348935 5.487682.381234 3.536282.231441 3.438487.213271 3.340643.195105 3.242748.176941 3.915696.195639 2.27592.103766 2.220771.093553 2.165602.083343 2.11041.073133 2.727994.081631 1.981551.049315 2.556106.049879 2.457816.031739 1.192034.009067 1.741941.0051 1.908897-.006147 1.303407-.010929 2.001305-.026641 2.05672-.03894 2.112111-.051241 1.438836-.040996 2.20438-.071747 2.25971-.084054 2.315018-.096363 2.370303-.108673 2.425564-.120986 2.480804-.133301 3.393627-.196894 2.609606-.162042 3.56528-.235225 2.738284-.190796 2.793394-.203122 3.810212-.290007 3.908089-.31193 1.990732-.164187 4.054804-.344821 4.152547-.366754 5.328051-.489296 4.372269-.416124 1.136282-.112542c.260563-.299637.530427-.591948.809333-.876475l.329847-.328752.326507-.323239c6.971565-7.014151 14.295394-21.523548 14.882637-27.924839l.022566-.294062.029569-.496211.136093-2.558538.125021-2.718811.210904-5.301833.21996-6.383931.174976-5.638348.345214-12.431673.338766-13.841788-.223049-.246732c-2.056908-2.314198-3.57026-5.098519-4.38121-8.151637l-.122184-.484275-.089249-.390519c-.190605-.874144-.285179-1.524929-.367016-2.255622-.02466-.220178-.046126-.436064-.065839-.656438l-.028435-.335025-.022456-.289834-.043583-.63052-.036481-.612903c-.348233.048677-.6994.094249-1.053501.136705-22.7949 2.733068-46.396515 4.453926-70.804764 5.163829l-2.553233.069971-.896149.223083-.175908.038202-.225805.038951-.590321.076816-.391677.03443-.373025.021962-.741637.024986-.803751.016655-3.035747.030957-2.820871.0093h-3.428858l-4.033458-.029989-1.518698-.02731-.741635-.025023-.373024-.02198-.542467-.051718-.463626-.063227-.232306-.041538-.219229-.049316-.823808-.207241-2.503218-.068004c-23.42082-.683671-46.09639-2.304887-68.02663-4.864773l-2.527105-.299537c-.430826-.051844-.857298-.108326-1.279414-.169427zm85.296367-635.089259-2.128656.0175442c-136.145741 2.2110813-245.844344 113.4497218-245.844344 250.3649978 0 77.694431 35.528183 149.482134 95.272988 196.699777l-.152988-.122319 11.263295 8.187883 1.408214 1.069665c25.334453 19.573875 42.438123 43.54432 50.797004 71.586463 2.732188 9.16587 3.896146 18.831986 4.018653 29.963021l.007474.81277.00436.802558.001194.795887-.002128.815401-.009693 1.225332-.02535 1.658183-.039957 1.71435-.055006 1.801361-.111696 2.932659-.120784 2.721548-.374233 7.689884-.110415 2.562521-.088551 2.375277-.066488 2.196559-.037174 1.634302-.022825 1.529746-.008375 1.429557.003262 1.009045.017155 1.264732.031884 1.17655.033639.827168.042025.781864.050451.738402.058923.69678.044008.442307.047805.425173.051613.408586.055436.392543.05927.377046.096121.537708.104821.505911.074734.320518.078632.307751.082542.295528.086465.283853.090402.272722.09435.262138.098311.252098.102285.242606.247449.560312c1.258934 2.95521 1.787496 6.170279 1.541062 9.372767l-.045358.505512-.045737.438538c.544463.089143 1.109735.16825 1.696456.238854 25.385333 3.054764 51.840131 4.813029 79.364525 5.272883l2.51995.038178 2.530495-.038189c26.73609-.445059 52.46685-2.106228 77.192387-4.981783l2.469203-.291604c.890722-.106796 1.732267-.232897 2.526859-.38358l-.090715-1.890237-.115345-2.25923c-.12016-2.28966.154347-4.5816.810228-6.775866l.158121-.50459.07414-.231932.140687-.476745c.060287-.215989.117595-.437706.171958-.666172l.07934-.347889.110779-.542492.100977-.569585.09126-.599265c.038413-.273318.073972-.556198.106709-.849661l.046994-.44826.06261-.703832.014184-.182112.013598-.184654.048569-.76485.039313-.808764.008392-.209356.007819-.212302.025586-.879487.016539-.92987.007577-.982841.00017-.664117-.014124-1.661115-.034278-1.802875-.038757-1.450679-.049802-1.539406-.083369-2.197218-.131063-2.99188-.258615-5.23637-.167596-3.528804-.111101-2.613961-.086064-2.381383-.061898-2.209208-.025902-1.268008-.025043-2.059366-.004259-1.610286.006388-1.336254.006456-.678366c.122823-11.137889 1.291745-20.810931 4.035965-29.983687 8.392133-28.05132 25.560761-52.023645 50.987071-71.594855l.780935-.597743.418609-.313762 11.541013-8.364509 1.608086-1.277599c57.707052-46.288405 92.421571-115.517726 93.787069-190.646887l.03116-2.27843.010685-2.328542c0-135.37025-107.7669-245.9199338-242.708603-250.2658317l-4.097377-.0991019zm-20.557285 112.915183.302761.006811c6.58074.228101 11.787258 5.624121 11.715449 12.15988l-.007077.302445-9.414655 263.044472c-.23857 6.665603-5.87956 11.839152-12.556325 11.607721-6.580739-.228101-11.787258-5.62412-11.715448-12.15988l.007076-.302445 9.414655-263.044472c.23134-6.463614 5.542643-11.524233 11.952321-11.613979zm48.929884 11.312592.01455.30194 9.414655 263.044472c.238761 6.67095-5.026391 12.230715-11.708371 12.462325-6.575603.227925-12.14658-4.786585-12.541777-11.305781l-.014549-.30194-9.414655-263.044472c-.238761-6.67095 5.02639-12.230714 11.708371-12.462325 6.575602-.227924 12.146579 4.786585 12.541776 11.305781zm-84.292249-17.177109c6.508773.610868 11.307698 6.313958 10.866804 12.80267l-.024519.304718-24.457569 263.043834c-.615334 6.617994-6.467818 11.493226-13.082349 10.872432-6.508773-.610868-11.307697-6.313957-10.866804-12.802671l.024518-.304717 24.457569-263.043834c.615335-6.617995 6.46782-11.493226 13.08235-10.872432zm126.382607 10.568237.032103.304195 24.457569 263.043834c.61496 6.613966-4.231813 12.486975-10.842286 13.107388-6.512769.611243-12.286758-4.105732-13.050247-10.568237l-.032102-.304195-24.457569-263.043833c-.614962-6.613966 4.231812-12.486976 10.842285-13.107389 6.512769-.611244 12.286759 4.105731 13.050247 10.568237zm-91.133175 7.295889-.054225.002815-.041601.00992-.029321.012926-.023162.018481-9.414656 263.044472.018779.012855c.019535.011034.055449.027997.112967.027997.080864.002368.127161-.024786.142527-.038035l.005782-.006651 9.410144-263.048011-.039456-.020894c-.020689-.007691-.049432-.015875-.087778-.015875zm36.916736-.000202c-.038346 0-.067089.007387-.087779.015581l-.025187.012074-.018779.012856 9.414655 263.044471c.000161.004478.047229.047646.14831.044344.038345 0 .067088-.007387.087778-.015581l.025187-.012074.018779-.012855-9.414655-263.044472c-.00016-.004478-.047228-.047646-.148309-.044344zm-73.287477-5.916428-.008129.01447-.004448.021422-24.45757 263.043834c-.00194.020869.00375.035662.00888.043205l.006252.005731.008128-.01447.004449-.021423 24.457569-263.043835c.002911-.031303-.011347-.048934-.015131-.048934zm115.574978 0c-.002523 0-.0097.007836-.013343.022335l-.001788.0266 24.457569 263.043835.001831.012127.002618.009295.008128.01447c.002523 0 .009701-.007837.013343-.022336l.001789-.026599-24.45757-263.043835-.001831-.012128-.002617-.009294z"/></svg>