<svg height="960" viewBox="0 0 960 960" width="960" xmlns="http://www.w3.org/2000/svg"><path d="m-30.9501213 364.927717.000558-.063957c.0023513-.196386.0105899-.392221.0245864-.587263.0029372-.040942.0061363-.08194.0095891-.122902.0029357-.034802.0060148-.069165.009272-.103501.0030012-.031666.0062253-.063987.0096069-.096281.0202458-.193223.0460209-.384881.0772677-.575386.0066724-.040695.0136828-.081835.0209478-.122919.0065605-.037096.0133156-.07408.0202765-.111016.0030921-.016406.0061535-.032432.0092537-.048449.0224186-.115856.0469657-.231681.0735252-.346971.0314838-.136693.0659089-.273042.1031309-.408542.0234656-.085424.0480712-.170606.0737785-.255426.0122412-.040395.0248444-.081062.0377006-.121643.0139303-.043972.0281884-.087937.042743-.131796.0340395-.102581.0697269-.204659.1070159-.306121.0905391-.246354.1905153-.489066.2996098-.727538.04847-.105955.0987968-.211186.1508991-.315526.0200941-.040243.0405725-.080586.0613166-.120791.015947-.030908.0320074-.061652.0482232-.092314.0092886-.017566.0189288-.035665.0286231-.053736.0195011-.036349.0391152-.072388.0589449-.108309.0510192-.092418.1034262-.183987.1572367-.274732.0572147-.096483.1159274-.191897.1761971-.286336.0234635-.036765.047146-.073357.0710627-.109799.0188329-.028694.0376333-.057029.0565755-.085272.0646913-.096464.1313135-.19223.1995748-.286851.0681415-.094454.1378765-.187715.2092149-.279784.0154874-.019988.0311555-.040054.0469-.060063.074612-.094815.1507717-.188142.2286066-.280124.0784586-.092721.1587056-.184172.2406265-.274192.0144253-.015855.0293475-.032147.0443246-.048391.0296162-.03212.0591827-.063775.0889588-.095245.0217315-.022969.043681-.045949.0657426-.068829.1415256-.14677.2875714-.289314.4380786-.427444.0205896-.018899.0415995-.038018.0626951-.057052.0244952-.022096.0484114-.043462.0724364-.064717.0276564-.024471.0557939-.049086.0840781-.073549.0353906-.03061.0710425-.061008.1069226-.091165.0203427-.017099.0407334-.034098.0611969-.051019.1038681-.085884.2095258-.16969.3170151-.251407.0098949-.007523.0199376-.015128.0299962-.022715.2249152-.16963.4576179-.330037.6978772-.48061.0346102-.021691.0692726-.043113.1040896-.064331.006964-.004243.0139107-.008464.0208634-.012677l-.0208634.012677c.0608761-.037097.1222252-.073568.1840412-.1094.098197-.056924.197749-.112332.298459-.166078.0271192-.014472.0539155-.028611.0807929-.042631.2467064-.128713.5008093-.247739.7614129-.356124.0299299-.012449.0599853-.024772.0901261-.036954.0038175-.001542.0078275-.00316.011839-.004775l.1842511-.072013c.077081-.029224.1547001-.057529.2328484-.084898.0333717-.011687.0670584-.023279.1008422-.034697.1168301-.039482.2346051-.076816.3535083-.112022.1985559-.058794.4004995-.111708.6054634-.158422.0555762-.012669.1116233-.024933.1678918-.036732.0904681-.018969.1814639-.036728.2730202-.053266.2421455-.043729.4878379-.078869.7372329-.105098.1901055-.019999.382676-.034835.5773134-.044304.1010783-.004916.2024678-.008379.3043993-.010377l.2554127-.002037.2575356.00433 106.3906638 3.014795.0676407-.221531c1.0034324-3.231068 2.2636163-6.178973 3.7627139-8.742666l.3029997-.507586c3.8797005-6.366216 9.4128264-10.491217 16.3234373-10.491217.137448 0 .274306.001578.410574.00472l-.410574-.00472c.166998 0 .333897.002613.500658.007831.236596.005861.471399.017251.704412.033296l39.107524 1.597941c.202108-19.557887.477661-40.899815.849316-66.732549l-41.338337-.676191-.218286-.003852-.187104-.005054c-6.4706202-.235382-11.6797409-4.085256-15.4202651-9.964541-1.5343302-2.411632-2.8396077-5.202451-3.9006635-8.280231l-.197046-.58465-91.75818001-2.81865c-2.99908699-.092155-5.79223349-1.525485-7.61592579-3.894023l-.1916512-.257332-15.579953-21.633878c-.2067717-.287117-.3956574-.579041-.5671625-.87482-.2054339-.354226-.3862452-.714706-.5429006-1.079089-.0649044-.150951-.125821-.302995-.1826316-.455595-.0417996-.112293-.0812353-.224463-.1184889-.336886-.0370844-.111926-.0719282-.223831-.1046437-.33594-.0343814-.117811-.0664296-.235918-.0961528-.354196-.0272788-.108539-.052667-.217532-.076108-.32663-.1051224-.489349-.1710474-.980395-.1998311-1.469812-.0110685-.188055-.0166539-.376331-.0168412-.564153l.0001407-.063286c.0001169-.021416.0003038-.042826.0005607-.06423.0023488-.196123.0105877-.391959.0245847-.587001.0027212-.037928.005669-.075929.0088348-.113898.004212-.05049.0087697-.100524.0137046-.150498.0018337-.018586.0038004-.037936.0058236-.057276l-.0058236.057276c.0086696-.087794.0185031-.175404.0294888-.262806.0004657-.003708.0010136-.008047.0015643-.012384l-.0015643.012384c.0088973-.070787.0185502-.141439.0289526-.211943.0014379-.009751.0029806-.020098.0045394-.030443l-.0045394.030443c.0080264-.0544.0164989-.108713.0254146-.162932.0085084-.051759.0175152-.103955.0269315-.15606.0289636-.160282.0618363-.319841.0985152-.478386.02809-.121394.0582923-.241752.0906758-.361457.0296939-.109763.0612286-.218998.094572-.327633.0126288-.04114.0253944-.081812.0384133-.122397.0071572-.022315.0145291-.045025.0219803-.067707.0417531-.127093.0859404-.253172.1325671-.378301.0366923-.098477.0749871-.196589.1147788-.294072.0122476-.030002.0245232-.059673.0369375-.089284.0713895-.170298.147507-.338914.2281132-.505335.0123963-.025592.0247897-.050912.037287-.07618.0196186-.039668.0395635-.079345.0597647-.118891.0141143-.027629.0282382-.054972.0424846-.082251.0257931-.049392.0521369-.098848.078884-.148085.010971-.020197.0221634-.040636.0334255-.061037.0523092-.094755.1060667-.188598.1612984-.281576.0213887-.036003.0428467-.071629.0645215-.107124.0625151-.102381.1269605-.20387.1931849-.304211.0211169-.031995.0423292-.063746.0637199-.09538.0583733-.086341.1185784-.172503.180114-.257735.0674179-.09338.1364357-.185647.2070233-.276747.0155054-.020012.0311736-.040078.0469182-.060086.0745939-.094792.1507536-.188119.2285885-.280101.1215043-.143592.2471582-.283978.3767802-.420861.0220428-.023278.0443509-.046612.0667748-.069841.1402874-.145325.2850538-.28654.4342012-.423422.0162802-.014943.0329739-.030161.049722-.045325.0447596-.04052.0893581-.080173.1343316-.11944.0134441-.011739.0267547-.023298.0400979-.034823.033825-.029215.0678003-.058165.1019826-.086894.0203158-.017076.0407064-.034075.0611699-.050996.0950334-.078579.1915227-.155385.2895472-.230449.0264079-.020222.0527807-.040208.079263-.060067.2178252-.163361.4434244-.318411.6761114-.464237.0907132-.05685.1824312-.112256.2752042-.166223.1022974-.059512.2062115-.117455.3113885-.173584.027083-.014453.0538794-.028591.0807567-.042612.2467443-.128732.5008483-.247757.7614531-.35614.0298896-.012432.0599449-.024755.0900857-.036937.0038584-.001559.0078684-.003177.0118799-.004792l.1842102-.071996c.077081-.029224.1547-.057528.2328483-.084898.0334148-.011703.0671016-.023294.1008855-.034712.1167867-.039466.2345617-.076801.3534649-.112006.1986017-.058808.4005461-.111721.6055108-.158434.0555285-.012657.1115757-.024921.1678442-.03672.0905168-.018979.181513-.036739.2730696-.053276.2420959-.04372.4877882-.07886.7371831-.105088.1901587-.020004.3827299-.034839.577368-.044308.1010234-.004912.2024129-.008375.3043443-.010373l.2554126-.002037.2575934.004332 106.7036049 3.024793.0184216-.056794c1.0209203-3.101721 2.2845753-5.926129 3.7755212-8.381553l.3012152-.486138c3.8631383-6.109728 9.3099638-10.048515 16.0486336-10.048515.137448 0 .274306.001578.410573.00472l-.410573-.00472c.166998 0 .333897.002613.500658.007831.236596.005861.471398.017251.704411.033296l40.972664 1.672939.087091-11.43483.004113-.344374c.640721-39.431167 17.678899-76.104503 46.584012-102.7992074 16.137149-14.9031219 45.325744-25.7500146 85.133565-35.4631344.97663-.2382979 1.954966-.4743344 2.934555-.7080288l1.96071-.464242 1.963237-.4578531.982313-.2264859 1.965511-.448001c28.833152-6.521554 57.828614-10.8660947 75.489983-11.0018431h1.438268c1.28333 0 2.553047.0254194 3.80954.0546463l.354673-.0096414c.552714-.0132458 1.104796-.0236312 1.656198-.0311181l1.652119-.0138868h1.253206c55.070637.2897438 101.406751 1.1549454 139.046924 2.6016785 38.19427 1.4680303 83.565548 4.5590047 136.134521 9.2681789l1.907432.1711405c37.881812 3.4097133 72.556971 20.6829198 97.998705 48.0778892 25.43829 27.3912606 40.10991 63.2478276 40.731155 101.2831166.913752 55.872096 1.381296 86.580456 1.726746 115.854769l.024186 2.064349.023806 2.06144c.043311 3.777775.084833 7.550234.125268 11.368809l.049659 4.786454.033868 3.385193.032806 3.384297.047227 5.077804.030171 3.388136c.291529 33.333897.431391 67.243267.440249 107.67442l.00045 4.134356c0 25.714727-.051929 51.429382-.155792 77.144398l.900121-.420977c.039661-.018494.079442-.036728.119342-.054699l.12005-.053128.290855-.126441.204127-.086063c2.418893-.988429 6.187012-1.933094 13.289355-3.49142l13.338537-2.878917c8.583972-1.879216 13.942039-3.241167 15.915028-4.065274l2.871025-1.207518 5.243336-2.245066 4.67838-2.040156 5.881533-2.60518c.801783-.357762 1.569376-.700881 2.326257-1.039966l.566019-.253722.282192-.126605.564122-.253318c4.139653-1.860017 8.399214-3.79853 16.685187-7.580315 15.759495-7.19276 23.239247-10.529587 29.791694-13.167821l.529393-.212443c.087942-.035172.17575-.070233.263444-.10519l.511667-.203299c.255313-.101113.509946-.201465.764352-.301251 4.717794-1.850464 8.420302-3.087398 11.397439-3.739536 2.115512-.4634 3.991183-.672892 5.867028-.52635 3.970951.310213 7.693241 2.159452 9.695131 6.452519 1.993688 4.275477 1.033751 8.291446-1.252746 11.533767-1.081482 1.533575-2.437243 2.845536-4.141321 4.182514-2.409735 1.890619-5.741369 3.974726-10.199642 6.455291l-.511725.28391-.522496.288217c-3.498989 1.924474-7.330162 3.919117-12.606274 6.55878l-.802393.400859c-4.474296 2.232122-9.969922 4.922823-17.111707 8.394893-7.854858 3.818739-11.269746 5.480047-14.239066 6.935166l-.354436.173749-.570787.280052c-.063262.031055-.126512.06211-.18979.093184l-.380334.186835c-.889757.437226-1.800997.886001-2.845203 1.400785l-7.58558 3.766265-4.683496 2.357846-2.340164 1.189512c-1.578209.805006-3.118478 1.596505-4.62464 2.376689-2.633528 1.364153-7.450838 4.784681-15.783578 11.102599-.372041.282083-.760595.577011-1.187193.901088-5.02795 3.81963-8.510015 6.455801-11.077548 8.343566l-.431307.316366c-2.676368 1.958252-4.317234 3.063606-5.73061 3.872846l-.221392.125395c-.219737.123097-.434863.239542-.648558.351527l-.213336.11058c-.284126.145673-.567594.284717-.857943.422326l-21.265824 9.9151-.047619 7.245557c-.14794 20.719111-.329596 41.438671-.544972 62.158905l46.776187-21.81301c.039661-.018494.079442-.036728.119342-.054699l.12005-.053128.290855-.126441.204127-.086063c2.418893-.988429 6.187012-1.933094 13.289355-3.49142l13.338537-2.878917c8.583972-1.879216 13.942039-3.241167 15.915028-4.065274l2.871025-1.207518 5.243336-2.245066 4.67838-2.040156 5.881533-2.60518c.801783-.357762 1.569376-.700881 2.326257-1.039966l.566019-.253722.282192-.126605.564122-.253318c4.139653-1.860017 8.399214-3.79853 16.685187-7.580315 15.759495-7.19276 23.239247-10.529587 29.791694-13.167821l.529393-.212443c.087942-.035172.17575-.070233.263444-.10519l.511667-.203299c.255313-.101113.509946-.201465.764352-.301251 4.717794-1.850464 8.420302-3.087398 11.397439-3.739536 2.115512-.4634 3.991183-.672892 5.867028-.52635 3.970951.310213 7.693241 2.159452 9.695131 6.452519 1.993688 4.275477 1.033751 8.291446-1.252746 11.533767-1.081482 1.533575-2.437243 2.845536-4.141321 4.182514-2.409735 1.890619-5.741369 3.974726-10.199642 6.455291l-.511725.28391-.522496.288217c-3.498989 1.924474-7.330162 3.919117-12.606274 6.55878l-.802393.400859c-4.474296 2.232122-9.969922 4.922823-17.111707 8.394893-7.854858 3.818739-11.269746 5.480047-14.239066 6.935166l-.354436.173749-.570787.280052c-.063262.031055-.126512.06211-.18979.093184l-.380334.186835c-.889757.437226-1.800997.886001-2.845203 1.400785l-7.58558 3.766265-4.683496 2.357846-2.340164 1.189512c-1.578209.805006-3.118478 1.596505-4.62464 2.376689-2.633528 1.364153-7.450838 4.784681-15.783578 11.102599-.372041.282083-.760595.577011-1.187193.901088-5.02795 3.81963-8.510015 6.455801-11.077548 8.343566l-.431307.316366c-2.676368 1.958252-4.317234 3.063606-5.73061 3.872846l-.221392.125395c-.219737.123097-.434863.239542-.648558.351527l-.213336.11058c-.284126.145673-.567594.284717-.857943.422326l-67.474824 31.4631-.110153 8.49642c-.177259 13.06393-.367922 26.128215-.571988 39.192912l-.251403 15.679282c-.617501 37.484591-14.888481 72.883742-39.698804 100.140564-24.813649 27.260477-58.718463 44.782293-95.97672 48.894417-54.108019 5.970504-101.890711 8.967847-143.362702 8.967847-40.526503 0-89.105111-1.540901-145.748292-4.615652-6.740298-.365668-13.415064-1.171062-19.991243-2.406603l-.026428-.005745-.530055-.04496c-3.255168-.28491-6.803696-.709058-10.589133-1.258855l-26.311926 12.267451 4.648136 9.970044c2.29429 4.920525.240377 10.75356-4.584978 13.167203l-.25205.121772-256.3392965 119.532977c-5.0053997 2.33406-10.9552043.1685-13.2892605-4.8369l-30.42851487-65.25416c-2.33405621-5.005396-.16850444-10.955201 4.83689527-13.289257l216.7170216-101.05678c-7.532157-3.202731-14.326729-6.520745-20.327555-9.993591l-202.50858654 94.430687c-5.00539969 2.334057-10.95520428.168505-13.28926049-4.836895l-30.42851487-65.25416c-2.3340562-5.0054-.1685044-10.955205 4.8368953-13.289261l185.5148506-86.506828c-3.58963-12.088106-5.572007-24.719796-5.791441-37.635381-1.026812-60.374891-1.754661-127.150612-2.150368-194.584391l-.040425-7.100475-.037963-7.103848-.035492-7.105731c-.154144-31.977799-.232979-63.967614-.232979-95.359082l.000451-4.933218c.002213-11.8441.012702-22.759746.034724-33.135771l-39.806967-.650098h-.028208c-6.3211997 0-11.5342005-3.490184-15.3432965-8.983248l-.2362378-.345911c-1.557597-2.315698-2.8911639-5.005945-3.9878708-7.984591l-.1853865-.51425-92.10529393-2.830649c-2.99904759-.092188-5.79214697-1.525515-7.61581497-3.894024l-.1916487-.257329-15.5799529-21.633882c-.2341856-.325183-.4454281-.656533-.6344617-.992664-.057559-.102333-.1133348-.205643-.1670517-.309361l-.1034101-.205344c-.0187595-.038331-.0372426-.076714-.0554501-.115146-.0650562-.137326-.1265007-.275063-.1844869-.413343-.0499388-.119068-.0975547-.239183-.1426095-.359646l-.0098434-.02643c-.0398764-.107556-.0777147-.215387-.1135367-.32345-.0372065-.112254-.0721606-.224493-.1049738-.336936-.0343823-.117813-.0664307-.235919-.096154-.354198-.0272777-.108535-.052666-.217529-.076107-.326626-.1057675-.492349-.1718556-.986416-.2003582-1.47881-.010719-.18503-.0161318-.370309-.0163164-.555149zm896.4102643 281.869275-7.439089 1.605315c-2.736612.600463-4.851495 1.085129-6.532461 1.501485l-.310142.077278c-1.49356.374434-2.562412.681167-3.000225.834087l-.07377.026632-.037582.016421-559.357956 260.832899c-4.920467 2.294451-10.753582.240704-13.167365-4.584597l-.121779-.252048-5.916575-12.688652-238.2139385 111.080988 21.9761496 47.128 238.2139389-111.080983-4.649132-9.969579c-2.29429-4.920525-.240377-10.75356 4.584978-13.167203l.25205-.121772 559.543103-260.919677c.788623-.380185 2.173622-1.302216 4.956536-3.342855l.407155-.299192c2.08419-1.53463 4.901075-3.653991 8.742762-6.568275zm-45-100-7.439089 1.605315c-2.736612.600463-4.851495 1.085129-6.532461 1.501485l-.310142.077278c-1.49356.374434-2.562412.681167-3.000225.834087l-.07377.026632-.037582.016421-559.357956 260.832899c-4.920467 2.294451-10.753582.240704-13.167365-4.584597l-.121779-.252048-5.916575-12.688652-238.2139385 111.080984 21.9761496 47.128005 238.2139389-111.080984-4.649132-9.969579c-2.29429-4.920525-.240377-10.75356 4.584978-13.167203l.25205-.121772 559.543103-260.919677c.788623-.380185 2.173622-1.302216 4.956536-3.342855l.407155-.299192c2.08419-1.53463 4.901075-3.653991 8.742762-6.568275zm-68.656786 178.740847-342.239669 159.589895c38.713241 1.690919 72.879526 2.534266 102.498494 2.534266 39.826115 0 86.157945-2.896033 138.993849-8.723123 28.135845-3.103679 52.922801-16.425622 70.792534-36.047205 17.869733-19.621584 28.822244-45.542808 29.288722-73.844996l.251151-15.655587c.145096-9.284489.283402-18.568903.414919-27.85325zm1.334349-121.606286-168.724325 78.677304c-6.280965 18.207914-23.178555 31.728614-43.322535 33.451823-10.716614.918645-19.616473 1.489852-26.733525 1.712119-1.807004.056433-3.675076.095828-5.604463.118235l-232.11409 108.236334c4.67533 8.266766 10.368432 15.886134 16.913302 22.685628 9.255676 9.615762 20.214828 17.591836 32.407955 23.440454l426.508708-198.885384.083374-7.226512c.229072-20.736902.424272-41.473544.585599-62.210001zm-484.379248 246.578215-.008936.018548c-.931357 1.905325-2.471749 3.527804-4.503478 4.544075l-.25205.121772-6.120561 2.855093c7.145916 2.661962 14.784012 5.227528 22.558123 7.621158l1.634079.499999.81831.248056c-1.269359-1.218116-2.516835-2.463675-3.741233-3.735708-3.717759-3.862395-7.1835-7.928086-10.384254-12.172993zm18.594549-766.406942-1.205188.3012317c-28.09216 7.0610768-54.252438 16.1551373-63.956497 25.1171153-20.421001 18.859383-33.255695 45.017624-33.727665 74.063567l-.098924 12.762326 26.483301 1.081552c1.667793.068108 3.226156.54183 4.581785 1.323609l.195389.117773.109126.048352c10.002788 4.680035 15.153059 19.387938 15.265666 36.23561v.556183c0 17.079394-5.152957 32.060329-15.265666 36.791793l-.106126.047062-.216517.129537c-1.431002.821681-3.08384 1.299363-4.844905 1.321463l-.278945-.001158-.622633-.009842-.168158.00629-.37705.00471c-.181617 0-.363096-.003277-.544376-.00982l-.494416-.02718-24.731949-.403044c-.301038 20.748917-.5517 39.677305-.751987 58.477758l-.040239 3.84175c-.018497 1.796948-.036533 3.593781-.054109 5.391979l28.34511 1.157175c1.667793.068108 3.226156.54183 4.581785 1.323609l.195389.117773.109138.048361c10.002787 4.680054 15.153047 19.388004 15.265654 36.235744v.556185c0 17.079462-5.152947 32.060446-15.265654 36.791929l-.111138.049781-.216444.129364c-1.432228.821309-3.086337 1.298129-4.848484 1.318016l-.279115-.000673-.597957-.010707-.172309.007279-.388899.005011c-.182278 0-.364417-.003301-.546355-.009892l-.497437-.027398-26.033346-.427416c-.02447 10.039929-.038462 20.56568-.041978 31.737822l-.000884 5.677681c0 41.769526.140815 85.240194.422437 128.74711l.062503 9.322859c.4095 59.0406 1.078342 117.928931 2.006504 172.503366.123099 7.245455 1.01778 14.318515 2.611187 21.147827l34.010483-15.858403c5.005302-2.33401 10.954995-.168592 13.289143 4.836645l4.663934 10.00036c-.538913-4.512299-.849119-9.077268-.922839-13.680468-1.6629-103.727529-2.494341-209.457907-2.494341-317.19102l.000506-5.325881c.00495-25.621272.046809-47.551808.1496-68.912515l.015101-3.04799c.010348-2.029859.021258-4.055897.032753-6.08081l.038499-6.431497c.008508-1.351164.017285-2.703097.026337-4.056601l.018475-2.709338c.2984-42.938504.877391-87.986322 1.93257-160.553919l.252486-16.89767c.541191-35.333248 14.985303-68.315525 39.733045-92.5619967 1.791045-1.7547666 3.626735-3.4546442 5.504624-5.0983193zm87.021993-12.7367597-1.106433.0087554c-.828875.0113679-1.65503.0331023-2.477199.0611969l-.229369-.007005c-29.026971 1.0112042-55.300586 13.035175-74.716904 32.0582114-20.423688 20.010001-33.26007 47.764168-33.732103 78.582216l-.252372 16.890177c-.640379 44.040641-1.141682 79.144468-1.503997 113.073608l-.028688 2.711973-.014122 1.354383-.0278 2.70611c-.018335 1.803041-.036274 3.604212-.053819 5.404692l-.038808 4.050408-.012639 1.350132-.04168 4.571681-.02574 2.92386c-.292023 33.643609-.446547 68.024182-.463659 110.7811l-.000657 7.891798c0 107.629193.830632 213.25267 2.491771 316.870433.044063 2.751347.186972 5.479264.425387 8.180281l192.159483-89.605074c-2.500488-5.142262-4.096702-10.826062-4.58433-16.863537-.755099-9.353568-1.135358-17.219232-1.135358-23.631478 0-6.367241.37491-14.13654 1.119424-23.341917 1.937181-23.930296 21.215736-43.07665 45.329148-45.125132 8.952203-.758631 16.550971-1.195253 22.818817-1.306799 6.273738-.111652 13.887092.053913 22.868106.492446 24.215661 1.177492 43.727839 19.58368 45.713301 43.356825.132701 1.589011.253866 3.13511.363466 4.638488l166.250507-77.525833.035746-6.806465c.139689-29.777566.209532-59.554903.209532-89.332238l-.000756-5.325622c-.012441-43.445549-.178317-78.53221-.497624-112.614364l-.026226-2.761362c-.004427-.459909-.008882-.91967-.013365-1.379303l-.041105-4.133698c-.009302-.918044-.018717-1.835789-.028243-2.753381l-.050589-4.774603c-.020067-1.856842-.040592-3.714089-.061577-5.572945l-.031822-2.78964-.016597-1.432756-.033737-2.86862c-.414887-34.929706-.990815-70.959813-1.72778-115.998591-.469616-28.736918-11.740465-54.982691-30.050303-74.687934-18.309837-19.7052418-43.658663-32.8699536-72.284241-35.4451749l-1.896336-.1700546c-51.989048-4.6547917-96.692926-7.6965288-134.113938-9.1340872-37.146348-1.4270069-83.05902-2.2841635-137.738124-2.5702346zm144.289604 531.5746637c-5.725821.1019-12.853622.51146-21.351121 1.231559-13.454123 1.142954-24.205658 11.820762-25.271651 24.989142-.700287 8.658531-1.047796 15.860009-1.047796 21.568557 0 5.753071.352912 13.053074 1.064023 21.861752.271023 3.355619 1.178737 6.504893 2.605943 9.336733l91.129811-42.49592c-.174897-3.82779-.458192-8.095431-.850844-12.797192-1.058447-12.673439-11.55747-22.577355-24.871654-23.224761-8.530944-.416556-15.67399-.571893-21.406711-.46987zm.168138-439.945291c39.079062 1.221361 75.382206 3.966936 108.883932 8.233354 37.533356 4.753251 67.398318 34.085673 71.575259 70.573897 2.908844 25.390799 4.359778 53.285615 4.359778 83.703446 0 29.766399-1.389462 57.228628-4.174354 82.403157-4.161806 37.643229-35.74974 66.866504-74.668971 69.380147-32.76063 2.130592-68.192704 3.24933-106.279012 3.35436-38.178298.105283-73.616726-.840231-106.345157-2.842068-39.082218-2.407793-70.659152-32.672152-74.736745-71.630702-2.734369-26.150049-4.099183-54.681105-4.099183-85.588272 0-31.581982 1.425048-60.480897 4.280971-86.693861 4.119835-37.787968 34.293046-66.760079 72.228332-69.347673 33.478663-2.258137 69.794224-2.77033 108.97515-1.545785zm-107.533443 22.800365c-27.630718 1.884714-49.490951 22.874761-52.492027 50.401241-2.768183 25.407651-4.155561 53.542659-4.155561 84.385713 0 30.19495 1.329672 57.991386 3.983555 83.371716 2.994136 28.606868 26.166993 50.816487 54.854241 52.583864 32.252211 1.972707 67.240038 2.906199 104.981119 2.802122 37.659641-.103853 72.652601-1.208727 104.959962-3.30984 28.748634-1.856763 51.862746-23.240563 54.87244-50.463024 2.695104-24.362879 4.045261-51.048265 4.045261-80.06146 0-29.640136-1.409146-56.731585-4.221445-81.279656-3.045434-26.603794-25.162798-48.326769-53.09404-51.864005-32.810647-4.178406-68.441175-6.873112-106.865546-8.074012-38.506637-1.203471-74.126101-.701095-106.867959 1.507341zm-281.899299 191.820196c0 7.145784-.984865 14.022127-2.833513 19.945699l84.667721 1.385301.030321-.047115c.388775-.6228.805449-1.460642 1.209438-2.483537l.120775-.31239c1.501739-3.967753 2.405258-9.458681 2.405258-15.393668s-.903519-11.425915-2.405258-15.393668c-.481255-1.271528-.986621-2.280895-1.445967-2.976287l-.033567-.048335-84.194673-3.438884c1.620078 5.647854 2.479465 12.087813 2.479465 18.762884zm-130.39679159-2.10381.879 1.22081 56.46152429 1.735066 41.8914757 1.288124.0120954-.189158c.0086452-.178101.0151214-.356062.0194362-.533896l.0064684-.533136-.002-.17281zm130.39679159-142.896248c0 7.146174-.984975 14.022878-2.833825 19.946666l84.667033 1.383392.031334-.0464c.388772-.622794.805444-1.460627 1.209431-2.483513l.120775-.312387c1.501735-3.967722 2.405252-9.45861 2.405252-15.393555 0-5.934946-.903517-11.425833-2.405252-15.393555-.481253-1.271516-.986617-2.280873-1.44596-2.976257l-.03358-.048333-84.194675-3.438916c1.62008 5.647846 2.479467 12.087797 2.479467 18.762858zm-130.39679159-3.103752.879 1.22081 94.36775669 2.900861.0337676.001205 3.9514757.121124.0118524-.189152c.0086452-.1781.0151214-.356061.0194362-.533896l.0064684-.533136-.002757-.172816z"/></svg>