<?xml version="1.0" encoding="UTF-8"?>
<svg width="1000px" height="1000px" viewBox="0 0 1000 1000" version="1.1" xmlns="http://www.w3.org/2000/svg" xmlns:xlink="http://www.w3.org/1999/xlink">
    <!-- Generator: Sketch 52.5 (67469) - http://www.bohemiancoding.com/sketch -->
    <title>logo</title>
    <desc>Created with Sketch.</desc>
    <g id="logo" stroke="none" stroke-width="1" fill="none" fill-rule="evenodd">
        <g id="Group" transform="translate(12.000000, 172.000000)" fill="#000000">
            <path d="M35.663,142.972 L117.746,142.972 C108.626,122.721 95.162,112.592 77.356,112.592 C57.92,112.592 44.024,122.721 35.663,142.972 M147.388,167.811 L32.732,167.811 C35.229,182.943 40.9,193.991 49.751,200.96 C58.6,207.93 68.236,211.414 78.659,211.414 C94.726,211.414 108.191,204.088 119.051,189.434 L139.734,206.59 C124.206,228.631 103.415,239.649 77.356,239.649 C57.379,239.649 40.656,232.144 27.196,217.134 C13.731,202.123 7,183.479 7,161.2 C7,140.352 13.811,122.274 27.439,106.964 C41.064,91.656 57.704,84 77.356,84 C96.682,84 113.24,91.775 127.03,107.321 C140.818,122.868 147.603,143.034 147.388,167.811" id="Fill-1"></path>
            <path d="M323.265,202.354 L277.744,148.859 L314.735,148.859 L346.666,186.389 C364.235,167.923 373.021,146.062 373.021,120.804 C373.021,95.667 364.822,74.548 348.426,57.452 C332.032,40.358 311.674,31.809 287.354,31.809 C264.228,31.809 244.545,40.498 228.316,57.875 C212.083,75.25 203.968,96.314 203.968,121.07 C203.968,145.826 212.266,166.835 228.867,184.091 C245.47,201.347 265.704,209.975 289.575,209.975 C299.555,209.975 310.785,207.437 323.265,202.354 M367.182,209.975 L399.73,248.753 L362.742,248.753 L344.564,227.393 C324.889,237.461 306.19,242.498 288.47,242.498 C256.619,242.498 229.577,230.537 207.346,206.607 C185.116,182.677 174,153.688 174,119.642 C174,86.785 185.238,58.63 207.713,35.178 C230.188,11.727 257.277,0 288.982,0 C320.143,0 346.962,11.666 369.437,34.998 C391.911,58.329 403.15,86.182 403.15,118.557 C403.15,155.22 391.159,185.693 367.182,209.975" id="Fill-3"></path>
            <polygon id="Fill-5" points="418 135.378 493.568 135.378 493.568 105 418 105"></polygon>
            <path d="M520.302,71.444 L489.684,71.444 C491.855,48.452 498.504,31.297 509.634,19.977 C520.763,8.661 533.982,3 549.292,3 C566.77,3 581.698,9.019 594.082,21.05 C606.458,33.084 612.642,47.559 612.642,64.475 C612.642,76.508 608.869,87.766 601.323,98.248 C593.777,108.734 583.44,116.118 570.305,120.409 C595.704,133.514 608.407,152.932 608.407,178.665 C608.407,197.249 601.271,213.127 586.997,226.288 C572.716,239.451 555.37,246.035 534.959,246.035 C519.215,246.035 504.558,240.344 490.986,228.969 C477.413,217.594 470.083,201.778 469,181.525 L497.338,181.525 C504.504,205.947 518.074,218.158 538.055,218.158 C549.128,218.158 558.599,214.078 566.472,205.918 C574.346,197.757 578.282,187.958 578.282,176.52 C578.282,165.798 574.264,156.358 566.227,148.195 C558.197,140.037 547.011,136.074 532.68,136.312 L536.25,107.72 C551.617,105.932 563.228,101.019 571.072,92.978 C578.915,84.937 582.844,75.911 582.844,65.903 C582.844,56.136 579.756,47.855 573.579,41.064 C567.409,34.273 559.826,30.878 550.842,30.878 C542.394,30.878 535.381,34.452 529.803,41.6 C524.226,48.748 521.061,58.698 520.302,71.444" id="Fill-7"></path>
            <polygon id="Fill-8" points="-5.68434189e-14 641.874 -5.68434189e-14 371 83.961 371 134.375 555.77 184.22 371 268.37 371 268.37 641.874 216.25 641.874 216.25 428.649 161.097 641.874 107.083 641.874 52.12 428.649 52.12 641.874"></polygon>
            <path d="M471.501,534.707 L433.218,434.191 L395.691,534.707 L471.501,534.707 Z M574.794,641.874 L513.766,641.874 L489.507,580.345 L378.444,580.345 L355.512,641.874 L296,641.874 L404.22,371 L463.542,371 L574.794,641.874 Z" id="Fill-9"></path>
            <polygon id="Fill-10" points="576 641.874 670.952 500.524 584.908 371 650.483 371 706.205 458.026 760.789 371 825.795 371 739.371 502.558 834.323 641.874 766.664 641.874 705.066 548.195 643.283 641.874"></polygon>
            <path d="M934.895,433.838 L921.25,571.307 L891.114,571.307 L877.279,433.838 L877.279,370.276 L934.895,370.276 L934.895,433.838 Z M879.553,641.15 L932.811,641.15 L932.811,589.229 L879.553,589.229 L879.553,641.15 Z M834,698.328 L976.843,698.328 L976.843,311 L834,311 L834,698.328 Z" id="Fill-11"></path>
        </g>
    </g>
</svg>