<?xml version="1.0" encoding="UTF-8"?>
<svg width="616px" height="990px" viewBox="0 0 616 990" version="1.1" xmlns="http://www.w3.org/2000/svg" xmlns:xlink="http://www.w3.org/1999/xlink">
    <!-- Generator: Sketch 52.5 (67469) - http://www.bohemiancoding.com/sketch -->
    <title>Group</title>
    <desc>Created with Sketch.</desc>
    <g id="Page-1" stroke="none" stroke-width="1" fill="none" fill-rule="evenodd">
        <g id="radiator_knob" transform="translate(-192.000000, -8.000000)">
            <g id="Group" transform="translate(199.000000, 10.000000)">
                <path d="M67.9010376,883.60343 L25.6245161,883.60343 C11.4720802,883.60343 5.68434189e-14,872.130367 5.68434189e-14,857.978914 L5.68434189e-14,213.624516 C5.68434189e-14,199.47208 11.4720802,188 25.6245161,188 L575.894297,188 C590.047716,188 601.519796,199.47208 601.519796,213.624516 L601.519796,857.978914 C601.519796,872.130367 590.047716,883.60343 575.894297,883.60343 L532.649979,883.60343" id="Stroke-167" stroke="#000000" stroke-width="13.404"></path>
                <path d="M66.4912676,754 L66.4912676,884.229136" id="Stroke-169" stroke="#000000" stroke-width="7"></path>
                <path d="M576.270764,884.09752 C576.270764,842.963687 554.265907,781.818561 536.184313,753.868384 C536.184313,753.868384 421.01744,736 301.136364,736 C181.254306,736 66.0874332,753.868384 66.0874332,753.868384 C48.0048567,781.818561 26,842.963687 26,884.09752" id="Stroke-171" stroke="#000000" stroke-width="7" stroke-linejoin="round"></path>
                <path d="M535.491268,754 L535.491268,884.229136" id="Stroke-173" stroke="#000000" stroke-width="7"></path>
                <path d="M502.701515,772.876198 L502.701515,827.589649 C502.701515,833.875909 497.605105,838.972318 491.318845,838.972318 L384.382669,838.972318 C378.09641,838.972318 373,833.875909 373,827.589649 L373,763.383926 C373,756.829434 378.523812,751.636736 385.066514,752.019925 C427.54249,754.514581 465.457538,758.365136 492.653128,761.572131 C498.38622,762.249098 502.701515,767.104786 502.701515,772.876198 Z" id="Stroke-175" stroke="#000000" stroke-width="7"></path>
                <path d="M362.700532,761.373065 L362.700532,827.170495 C362.700532,833.456755 357.604122,838.553164 351.317863,838.553164 L244.381687,838.553164 C238.09641,838.553164 233,833.456755 233,827.170495 L233,761.610838 C233,755.512243 237.800667,750.491488 243.893367,750.236029 C262.453456,749.459826 281.59717,749 300.860754,749 C318.034485,749 335.107998,749.365503 351.760003,749.995308 C357.872355,750.226204 362.700532,755.255801 362.700532,761.373065 Z" id="Stroke-177" stroke="#000000" stroke-width="7"></path>
                <path d="M222.700532,763.383585 L222.700532,827.22577 C222.700532,833.51203 217.604122,838.60844 211.318845,838.60844 L104.381687,838.60844 C98.0964097,838.60844 93,833.51203 93,827.22577 L93,773.22957 C93,767.472896 97.2887658,762.625068 103.004173,761.930416 C129.260459,758.744054 167.363171,754.716643 210.602577,752.022532 C217.155104,751.613797 222.700532,756.818285 222.700532,763.383585 Z" id="Stroke-179" stroke="#000000" stroke-width="7"></path>
                <path d="M538.542916,679.832494 L62.2373973,679.832494 C48.299154,679.832494 37,668.53334 37,654.594114 L37,360.23838 C37,346.299154 48.299154,335 62.2373973,335 L538.542916,335 C552.482142,335 563.781296,346.299154 563.781296,360.23838 L563.781296,654.594114 C563.781296,668.53334 552.482142,679.832494 538.542916,679.832494 Z" id="Stroke-181" stroke="#000000" stroke-width="7"></path>
                <path d="M354.509958,488 C358.392936,491.423152 360.351129,493.380362 360.3865,493.8677 L357.573502,534.103496 C357.469353,534.592798 355.237034,536.550008 350.876543,539.972178 C346.994546,536.550008 345.033406,534.592798 345,534.103496 L347.813981,493.8677 C347.916164,493.380362 350.149467,491.423152 354.509958,488" id="Path" fill="#000000"></path>
                <path d="M298.307876,595 L338.542689,595 C339.026096,595.070743 340.836909,597.16649 343.971196,601.287242 C340.26016,605.40996 338.156553,607.504725 337.66332,607.574485 L297.428507,607.574485 C296.943134,607.504725 295.133305,605.40996 292,601.287242 C295.710053,597.16649 297.812678,595.070743 298.307876,595" id="Path" fill="#000000"></path>
                <path d="M301.88735,538 L342.963214,538 C344.58538,539.74793 346.255689,541.843677 347.971196,544.288225 C345.913767,546.732772 343.949679,548.829502 342.082863,550.574485 L301.007982,550.574485 C299.383851,548.829502 297.714524,546.732772 296,544.288225 C298.055463,541.843677 300.018569,539.74793 301.88735,538" id="Path" fill="#000000"></path>
                <path d="M306.307876,480 L346.543672,480 C347.026096,480.06976 348.836909,482.165507 351.971196,486.28626 C348.26016,490.408977 346.156553,492.505707 345.66332,492.573502 L305.428507,492.573502 C304.943134,492.505707 303.133305,490.408977 300,486.28626 C303.710053,482.165507 305.81366,480.06976 306.307876,480" id="Path" fill="#000000"></path>
                <path d="M293.509958,546 C297.391954,549.424135 299.350146,551.380362 299.3865,551.868682 L296.573502,592.104478 C296.468371,592.593781 294.236051,594.550991 289.87556,597.972178 C285.992581,594.550991 284.034389,592.593781 284,592.104478 L286.812998,551.868682 C286.916164,551.380362 289.148484,549.424135 293.509958,546" id="Path" fill="#000000"></path>
                <path d="M431.509958,546 C435.392936,549.423152 437.351129,551.380362 437.3865,551.8677 L434.573502,592.104478 C434.469353,592.593781 432.237034,594.549026 427.876543,597.972178 C423.994546,594.549026 422.033406,592.593781 422,592.104478 L424.813981,551.8677 C424.916164,551.380362 427.149467,549.423152 431.509958,546" id="Path" fill="#000000"></path>
                <path d="M435.509958,488 C439.391954,491.423152 441.351129,493.37938 441.387483,493.866717 L438.57252,534.103496 C438.468371,534.592798 436.236051,536.550008 431.87556,539.971196 C427.993564,536.550008 426.034389,534.592798 426,534.103496 L428.813981,493.866717 C428.915182,493.37938 431.149467,491.423152 435.509958,488" id="Path" fill="#000000"></path>
                <path d="M379.307876,595 L419.542689,595 C420.026096,595.070743 421.836909,597.16649 424.971196,601.287242 C421.26016,605.408977 419.157535,607.504725 418.664303,607.574485 L378.428507,607.574485 C377.943134,607.504725 376.133305,605.408977 373,601.287242 C376.710053,597.16649 378.812678,595.070743 379.307876,595" id="Path" fill="#000000"></path>
                <path d="M387.308858,480 L427.543672,480 C428.026096,480.06976 429.836909,482.165507 432.972178,486.28626 C429.261143,490.408977 427.156553,492.504725 426.66332,492.573502 L386.428507,492.573502 C385.944117,492.504725 384.134287,490.408977 381,486.28626 C384.710053,482.165507 386.81366,480.06976 387.308858,480" id="Path" fill="#000000"></path>
                <path d="M375.51094,546 C379.391954,549.424135 381.350146,551.380362 381.3865,551.868682 L378.573502,592.104478 C378.468371,592.593781 376.237034,594.550008 371.876543,597.972178 C367.992581,594.550008 366.034389,592.593781 366,592.104478 L368.812998,551.868682 C368.917147,551.380362 371.148484,549.424135 375.51094,546" id="Path" fill="#000000"></path>
                <path d="M378.511923,488 C382.392936,491.423152 384.351129,493.37938 384.387483,493.866717 L381.573502,534.103496 C381.469353,534.592798 379.237034,536.550008 374.876543,539.971196 C370.993564,536.550008 369.035371,534.592798 369,534.103496 L371.813981,493.866717 C371.917147,493.37938 374.149467,491.423152 378.511923,488" id="Path" fill="#000000"></path>
                <path d="M512.509958,546 C516.392936,549.423152 518.351129,551.380362 518.3865,551.8677 L515.573502,592.104478 C515.469353,592.593781 513.237034,594.549026 508.876543,597.972178 C504.994546,594.549026 503.033406,592.593781 503,592.104478 L505.813981,551.8677 C505.916164,551.380362 508.149467,549.423152 512.509958,546" id="Path" fill="#000000"></path>
                <path d="M461.307876,595 L501.543672,595 C502.026096,595.070743 503.836909,597.16649 506.971196,601.287242 C503.26016,605.408977 501.157535,607.504725 500.664303,607.574485 L460.428507,607.574485 C459.943134,607.504725 458.133305,605.408977 455,601.287242 C458.710053,597.16649 460.812678,595.070743 461.307876,595" id="Path" fill="#000000"></path>
                <path d="M464.88735,538 L505.963214,538 C507.58538,539.74793 509.256672,541.842695 510.971196,544.288225 C508.91475,546.732772 506.950662,548.829502 505.082863,550.574485 L464.008964,550.574485 C462.383851,548.829502 460.714524,546.732772 459,544.288225 C461.057429,541.842695 463.019551,539.74793 464.88735,538" id="Path" fill="#000000"></path>
                <path d="M469.308858,480 L509.543672,480 C510.026096,480.06976 511.836909,482.165507 514.972178,486.28626 C511.261143,490.408977 509.156553,492.504725 508.66332,492.573502 L468.428507,492.573502 C467.944117,492.504725 466.134287,490.408977 463,486.28626 C466.710053,482.165507 468.81366,480.06976 469.308858,480" id="Path" fill="#000000"></path>
                <path d="M459.511923,488 C463.392936,491.423152 465.351129,493.37938 465.387483,493.866717 L462.573502,534.103496 C462.469353,534.592798 460.237034,536.550008 455.876543,539.971196 C451.993564,536.550008 450.035371,534.592798 450,534.103496 L452.813981,493.866717 C452.917147,493.37938 455.149467,491.423152 459.511923,488" id="Path" fill="#000000"></path>
                <path d="M439.587136,604.793568 C439.587136,606.888333 437.888333,608.586154 435.794551,608.586154 C433.698803,608.586154 432,606.888333 432,604.793568 C432,602.697821 433.698803,601 435.794551,601 C437.888333,601 439.587136,602.697821 439.587136,604.793568" id="Fill-189" fill="#000000"></path>
                <path d="M550.449824,489.724912 C550.449824,494.543264 546.543264,498.449824 541.724912,498.449824 C536.90656,498.449824 533,494.543264 533,489.724912 C533,484.90656 536.90656,481 541.724912,481 C546.543264,481 550.449824,484.90656 550.449824,489.724912 Z" id="Stroke-191" stroke="#000000" stroke-width="4.41"></path>
                <path d="M481.501588,153 L119.368615,153 C106.462034,153 96,163.462034 96,176.368615 L96,188.216024 L504.870203,188.216024 L504.870203,176.368615 C504.870203,163.462034 494.408169,153 481.501588,153 Z" id="Stroke-193" stroke="#000000" stroke-width="7"></path>
                <polygon id="Stroke-195" stroke="#000000" stroke-width="7" points="180 153.42526 423.363143 153.42526 423.363143 136 180 136"></polygon>
                <path d="M440.007133,135.179689 L160.821741,135.179689 C157.054702,135.179689 154,132.12597 154,128.35893 L154,21.550484 C154,18.4938172 156.032865,15.8193566 158.97261,14.9842017 C172.244695,11.2132319 213.559314,2 300.440966,2 C388.922184,2 429.055796,11.1287339 441.936832,14.9311448 C444.839241,15.7879155 446.827892,18.447638 446.827892,21.4748288 L446.827892,128.35893 C446.827892,132.12597 443.774173,135.179689 440.007133,135.179689 Z" id="Stroke-197" stroke="#000000" stroke-width="7"></path>
                <path d="M521.169878,880.258649 C479.54969,877.010388 349.663459,870.010808 300.890415,870 C252.116389,870.010808 122.23114,877.010388 80.6099696,880.258649 C73.49052,880.813782 68.2644157,887.169801 69.0848325,894.263705 L75.699259,951.418756 C76.4351778,957.772811 135.672221,980.716971 300.890415,980.716971 C466.107627,980.716971 525.34467,957.772811 526.080589,951.418756 L532.695015,894.263705 C533.515432,887.169801 528.289328,880.813782 521.169878,880.258649 Z" id="Stroke-198" stroke="#000000" stroke-width="14"></path>
                <path d="M66,402.491268 L536.153867,402.491268" id="Stroke-199" stroke="#000000" stroke-width="5"></path>
                <path d="M170.491268,11 L170.491268,137.585896" id="Stroke-200" stroke="#000000" stroke-width="6.112"></path>
                <path d="M185.491268,11 L185.491268,137.585896" id="Stroke-201" stroke="#000000" stroke-width="6.112"></path>
                <path d="M200.491268,8 L200.491268,138.282193" id="Stroke-202" stroke="#000000" stroke-width="6.381"></path>
                <path d="M216.491268,8 L216.491268,138.282193" id="Stroke-203" stroke="#000000" stroke-width="6.381"></path>
                <path d="M232.491268,4 L232.491268,137.399777" id="Stroke-204" stroke="#000000" stroke-width="6.274"></path>
                <path d="M247.491268,4 L247.491268,137.399777" id="Stroke-205" stroke="#000000" stroke-width="6.274"></path>
                <path d="M262.491268,4 L262.491268,137.399777" id="Stroke-206" stroke="#000000" stroke-width="6.274"></path>
                <path d="M278.491268,0 L278.491268,137.977408" id="Stroke-207" stroke="#000000" stroke-width="6.381"></path>
                <path d="M293.491268,0 L293.491268,137.977408" id="Stroke-208" stroke="#000000" stroke-width="6.381"></path>
                <path d="M309.491268,0 L309.491268,137.977408" id="Stroke-209" stroke="#000000" stroke-width="6.381"></path>
                <path d="M324.491268,0 L324.491268,137.977408" id="Stroke-210" stroke="#000000" stroke-width="6.381"></path>
                <path d="M340.491268,0 L340.491268,137.977408" id="Stroke-211" stroke="#000000" stroke-width="6.381"></path>
                <path d="M355.491268,4 L355.491268,137.399777" id="Stroke-212" stroke="#000000" stroke-width="6.274"></path>
                <path d="M370.491268,4 L370.491268,137.399777" id="Stroke-213" stroke="#000000" stroke-width="6.274"></path>
                <path d="M386.491268,4 L386.491268,137.399777" id="Stroke-214" stroke="#000000" stroke-width="6.274"></path>
                <path d="M401.491268,8 L401.491268,138.346058" id="Stroke-215" stroke="#000000" stroke-width="6.381"></path>
                <path d="M417.491268,11 L417.491268,137.585896" id="Stroke-216" stroke="#000000" stroke-width="6.112"></path>
                <path d="M432.491268,11 L432.491268,137.585896" id="Stroke-217" stroke="#000000" stroke-width="6.112"></path>
                <path d="M99.4912676,912 L99.4912676,958.516161" id="Stroke-218" stroke="#000000" stroke-width="9.649" stroke-linecap="round"></path>
                <path d="M131.491268,912 L131.491268,966.774368" id="Stroke-219" stroke="#000000" stroke-width="8.902" stroke-linecap="round"></path>
                <path d="M161.491268,912 L161.491268,972.148835" id="Stroke-220" stroke="#000000" stroke-width="9.328" stroke-linecap="round"></path>
                <path d="M193.491268,912 L193.491268,974.341854" id="Stroke-221" stroke="#000000" stroke-width="9.497" stroke-linecap="round"></path>
                <path d="M223.491268,912 L223.491268,976.271553" id="Stroke-222" stroke="#000000" stroke-width="9.643" stroke-linecap="round"></path>
                <path d="M254.491268,912 L254.491268,976.271553" id="Stroke-223" stroke="#000000" stroke-width="9.643" stroke-linecap="round"></path>
                <path d="M285.491268,912 L285.491268,976.271553" id="Stroke-224" stroke="#000000" stroke-width="9.643" stroke-linecap="round"></path>
                <path d="M316.491268,912 L316.491268,976.271553" id="Stroke-225" stroke="#000000" stroke-width="9.643" stroke-linecap="round"></path>
                <path d="M347.491268,912 L347.491268,976.271553" id="Stroke-226" stroke="#000000" stroke-width="9.643" stroke-linecap="round"></path>
                <path d="M378.491268,912 L378.491268,976.271553" id="Stroke-227" stroke="#000000" stroke-width="9.643" stroke-linecap="round"></path>
                <path d="M409.491268,912 L409.491268,974.341854" id="Stroke-228" stroke="#000000" stroke-width="9.497" stroke-linecap="round"></path>
                <path d="M440.491268,912 L440.491268,972.148835" id="Stroke-229" stroke="#000000" stroke-width="9.328" stroke-linecap="round"></path>
                <path d="M471.491268,912 L471.491268,966.774368" id="Stroke-230" stroke="#000000" stroke-width="8.902" stroke-linecap="round"></path>
                <path d="M501.491268,912 L501.491268,958.516161" id="Stroke-231" stroke="#000000" stroke-width="9.649" stroke-linecap="round"></path>
                <text id="B" font-family="Arial-BoldMT, Arial" font-size="29.9913" font-weight="bold" fill="#000000">
                    <tspan x="253" y="798">B</tspan>
                </text>
                <text id="OOST" font-family="Arial-BoldMT, Arial" font-size="27.0134" font-weight="bold" fill="#000000">
                    <tspan x="274" y="799">OOS</tspan>
                    <tspan x="274" y="829.883739">T</tspan>
                </text>
                <text id="Auto" font-family="Arial-BoldMT, Arial" font-size="29.9913" font-weight="bold" fill="#000000">
                    <tspan x="125" y="786">Aut</tspan>
                    <tspan x="125" y="819.981161">o</tspan>
                </text>
                <text id="Manu" font-family="Arial-BoldMT, Arial" font-size="29.9913" font-weight="bold" fill="#000000">
                    <tspan x="120" y="822">Man</tspan>
                    <tspan x="120" y="855.981161">u</tspan>
                </text>
                <g id="Group-253" transform="translate(405.000000, 783.000000)">
                    <path d="M9.49015588,18.567827 C9.49015588,11.2744216 13.3091559,4.86447568 19.0770676,1.17204324 C19.3519647,0.995935135 19.2376706,0.574637838 18.9125235,0.551286486 C18.5065824,0.522097297 18.0986706,0.507502703 17.6868176,0.507502703 C8.01615588,0.507502703 0.177155882,8.24847568 0.177155882,17.7982054 C0.177155882,27.0443676 7.52745,34.5965838 16.77345,35.0655568 C16.9823324,34.5566919 16.8099059,34.9760432 17.0207588,34.4681514 C12.41845,30.6667459 9.49015588,24.9553946 9.49015588,18.567827" id="Fill-233" fill="#000000"></path>
                    <path d="M53.8544029,17.7858486 C53.8544029,20.3943892 51.7143441,22.5086595 49.0727706,22.5086595 C46.4321824,22.5086595 44.2911382,20.3943892 44.2911382,17.7858486 C44.2911382,15.1782811 46.4321824,13.0640108 49.0727706,13.0640108 C51.7143441,13.0640108 53.8544029,15.1782811 53.8544029,17.7858486" id="Fill-235" fill="#000000"></path>
                    <path d="M49.0732632,9.16404324 L49.0732632,0.266205405" id="Stroke-237" stroke="#000000" stroke-width="3.018"></path>
                    <path d="M42.8988191,11.6895892 L36.5279074,5.39737297" id="Stroke-239" stroke="#000000" stroke-width="3.018"></path>
                    <path d="M40.3412912,17.7858486 L31.3307765,17.7858486" id="Stroke-241" stroke="#000000" stroke-width="3.018"></path>
                    <path d="M42.8988191,23.8830811 L36.5279074,30.1752973" id="Stroke-243" stroke="#000000" stroke-width="3.018"></path>
                    <path d="M49.0732632,26.408627 L49.0732632,35.3064649" id="Stroke-245" stroke="#000000" stroke-width="3.018"></path>
                    <path d="M55.2467221,23.8830811 L61.6186191,30.1752973" id="Stroke-247" stroke="#000000" stroke-width="3.018"></path>
                    <path d="M57.80425,17.7858486 L66.81575,17.7858486" id="Stroke-249" stroke="#000000" stroke-width="3.018"></path>
                    <path d="M55.2467221,11.6895892 L61.6186191,5.39737297" id="Stroke-251" stroke="#000000" stroke-width="3.018"></path>
                </g>
            </g>
        </g>
    </g>
</svg>