<?xml version="1.0" encoding="UTF-8"?>
<svg width="985px" height="985px" viewBox="0 0 985 985" version="1.1" xmlns="http://www.w3.org/2000/svg" xmlns:xlink="http://www.w3.org/1999/xlink">
    <!-- Generator: Sketch 52.5 (67469) - http://www.bohemiancoding.com/sketch -->
    <title>Group 2</title>
    <desc>Created with Sketch.</desc>
    <g id="Page-1" stroke="none" stroke-width="1" fill="none" fill-rule="evenodd">
        <g id="thermostat" transform="translate(-8.000000, -8.000000)">
            <g id="Group-2" transform="translate(15.000000, 15.000000)">
                <path d="M957.806,970.594 L12.788,970.594 C5.726,970.594 0,964.868 0,957.806 L0,12.789 C0,5.726 5.726,0 12.788,0 L957.806,0 C964.868,0 970.594,5.726 970.594,12.789 L970.594,957.806 C970.594,964.868 964.868,970.594 957.806,970.594 Z" id="Stroke-25" stroke="#000000" stroke-width="14" stroke-linejoin="round"></path>
                <path d="M801.231,810.793 L168.561,810.793 C163.833,810.793 160,806.96 160,802.231 L160,169.562 C160,164.833 163.833,161 168.561,161 L801.231,161 C805.96,161 809.793,164.833 809.793,169.562 L809.793,802.231 C809.793,806.96 805.96,810.793 801.231,810.793 Z" id="Stroke-26" stroke="#000000" stroke-width="14" stroke-linejoin="round"></path>
                <path d="M160,485.5 L809.793,485.5" id="Stroke-27" stroke="#000000" stroke-width="7" stroke-linejoin="round"></path>
                <polygon id="Stroke-28" stroke="#000000" stroke-width="6.99" stroke-linejoin="round" points="372 810.896 598.748 810.896 598.748 486 372 486"></polygon>
                <polygon id="Stroke-29" stroke="#000000" stroke-width="7" stroke-linejoin="round" points="372 810.837 598.748 810.837 598.748 656 372 656"></polygon>
                <path d="M712.841,457.484 L258.238,457.484 C247.061,457.484 238,448.423 238,437.246 L238,223.238 C238,212.061 247.061,203 258.238,203 L712.841,203 C724.018,203 733.079,212.061 733.079,223.238 L733.079,437.246 C733.079,448.423 724.018,457.484 712.841,457.484 Z" id="Stroke-30" stroke="#000000" stroke-width="9.141" stroke-linejoin="round"></path>
                <path d="M533.111,284.126 C536.695,287.286 538.503,289.093 538.536,289.543 L535.939,326.689 C535.842,327.141 533.782,328.947 529.756,332.106 C526.172,328.947 524.362,327.141 524.331,326.689 L526.928,289.543 C527.023,289.093 529.085,287.286 533.111,284.126 M481.381,382.022 L518.526,382.022 C518.972,382.087 520.644,384.022 523.538,387.826 C520.112,391.632 518.17,393.567 517.715,393.63 L480.569,393.63 C480.121,393.567 478.45,391.632 475.557,387.826 C478.982,384.022 480.923,382.087 481.381,382.022 M484.7,329.011 L522.621,329.011 C524.119,330.624 525.662,332.558 527.245,334.815 C525.345,337.073 523.532,339.008 521.809,340.619 L483.888,340.619 C482.388,339.008 480.847,337.073 479.264,334.815 C481.163,332.558 482.974,330.624 484.7,329.011 M488.795,276 L525.94,276 C526.386,276.065 528.057,278 530.952,281.804 C527.525,285.61 525.584,287.545 525.129,287.608 L487.983,287.608 C487.535,287.545 485.864,285.61 482.97,281.804 C486.396,278 488.338,276.065 488.795,276 M476.78,337.137 C480.364,340.297 482.172,342.104 482.205,342.554 L479.607,379.7 C479.511,380.152 477.451,381.959 473.425,385.117 C469.84,381.959 468.032,380.152 468,379.7 L470.597,342.554 C470.693,342.104 472.754,340.297 476.78,337.137" id="Fill-31" fill="#000000"></path>
                <path d="M604.377,337.523 C607.961,340.684 609.77,342.49 609.803,342.94 L607.205,380.087 C607.108,380.539 605.048,382.345 601.022,385.504 C597.438,382.345 595.629,380.539 595.598,380.087 L598.194,342.94 C598.289,342.49 600.351,340.684 604.377,337.523 M608.111,284.126 C611.695,287.286 613.503,289.092 613.536,289.543 L610.939,326.689 C610.843,327.141 608.782,328.947 604.756,332.106 C601.172,328.947 599.362,327.141 599.331,326.689 L601.929,289.543 C602.023,289.092 604.085,287.286 608.111,284.126 M556.381,382.022 L593.526,382.022 C593.973,382.086 595.645,384.021 598.538,387.826 C595.112,391.631 593.17,393.566 592.715,393.629 L555.569,393.629 C555.121,393.566 553.45,391.631 550.558,387.826 C553.982,384.021 555.924,382.086 556.381,382.022 M563.795,276 L600.94,276 C601.387,276.065 603.058,277.999 605.952,281.804 C602.525,285.609 600.584,287.544 600.129,287.608 L562.983,287.608 C562.535,287.544 560.864,285.609 557.971,281.804 C561.397,277.999 563.338,276.065 563.795,276 M551.78,337.136 C555.364,340.297 557.172,342.103 557.205,342.554 L554.607,379.7 C554.512,380.151 552.451,381.958 548.426,385.117 C544.841,381.958 543.032,380.151 543,379.7 L545.598,342.554 C545.693,342.103 547.754,340.297 551.78,337.136 M555.487,284.126 C559.071,287.286 560.879,289.092 560.912,289.543 L558.314,326.689 C558.219,327.141 556.157,328.947 552.133,332.106 C548.547,328.947 546.739,327.141 546.707,326.689 L549.305,289.543 C549.399,289.092 551.461,287.286 555.487,284.126" id="Fill-32" fill="#000000"></path>
                <path d="M679.671,337.523 C683.255,340.684 685.063,342.49 685.096,342.94 L682.498,380.087 C682.402,380.539 680.342,382.345 676.316,385.504 C672.732,382.345 670.922,380.539 670.891,380.087 L673.488,342.94 C673.583,342.49 675.645,340.684 679.671,337.523 M631.675,382.022 L668.82,382.022 C669.266,382.086 670.938,384.021 673.832,387.826 C670.405,391.631 668.463,393.566 668.008,393.629 L630.862,393.629 C630.415,393.566 628.744,391.631 625.851,387.826 C629.276,384.021 631.218,382.086 631.675,382.022 M634.994,329.01 L672.914,329.01 C674.412,330.624 675.955,332.558 677.539,334.815 C675.64,337.073 673.826,339.007 672.103,340.619 L634.182,340.619 C632.682,339.007 631.141,337.073 629.558,334.815 C631.457,332.558 633.269,330.624 634.994,329.01 M639.088,276 L676.233,276 C676.68,276.065 678.352,277.999 681.245,281.804 C677.819,285.609 675.877,287.544 675.422,287.608 L638.276,287.608 C637.828,287.544 636.158,285.609 633.265,281.804 C636.691,277.999 638.631,276.065 639.088,276 M630.781,284.126 C634.364,287.286 636.173,289.092 636.206,289.543 L633.608,326.689 C633.512,327.141 631.451,328.947 627.426,332.106 C623.841,328.947 622.032,327.141 622,326.689 L624.598,289.543 C624.693,289.092 626.754,287.286 630.781,284.126" id="Fill-33" fill="#000000"></path>
                <path d="M613.004,391.502 C613.004,393.436 611.436,395.004 609.502,395.004 C607.567,395.004 606,393.436 606,391.502 C606,389.568 607.567,388 609.502,388 C611.436,388 613.004,389.568 613.004,391.502" id="Fill-34" fill="#000000"></path>
                <path d="M714.109,284.055 C714.109,288.504 710.503,292.11 706.054,292.11 C701.606,292.11 698,288.504 698,284.055 C698,279.607 701.606,276 706.054,276 C710.503,276 714.109,279.607 714.109,284.055 Z" id="Stroke-35" stroke="#000000" stroke-width="4"></path>
                <path d="M676,578.5 L742.093,578.5" id="Stroke-36" stroke="#000000" stroke-width="10"></path>
                <path d="M708.5,546 L708.5,612.094" id="Stroke-37" stroke="#000000" stroke-width="10"></path>
                <path d="M676,740.5 L742.093,740.5" id="Stroke-38" stroke="#000000" stroke-width="10"></path>
                <text id="Mode" font-family="Arial-BoldMT, Arial" font-size="33.3497" font-weight="bold" fill="#000000">
                    <tspan x="445" y="555">Mode</tspan>
                </text>
                <text id="Menu" font-family="Arial-BoldMT, Arial" font-size="33.3497" font-weight="bold" fill="#000000">
                    <tspan x="445" y="595">Menu</tspan>
                </text>
                <text id="BOOST" font-family="Arial-BoldMT, Arial" font-size="33.3497" font-weight="bold" fill="#000000">
                    <tspan x="425" y="720">BOOST</tspan>
                </text>
                <text id="OK" font-family="Arial-BoldMT, Arial" font-size="33.3497" font-weight="bold" fill="#000000">
                    <tspan x="460" y="760">OK</tspan>
                </text>
                <path d="M269.661,732.757 C269.661,720.336 276.083,709.421 285.783,703.133 C286.244,702.834 286.053,702.116 285.505,702.076 C284.824,702.027 284.138,702 283.444,702 C267.182,702 254,715.183 254,731.445 C254,747.192 266.36,760.051 281.908,760.85 C282.262,759.984 281.97,760.698 282.323,759.831 C274.585,753.359 269.661,743.634 269.661,732.757" id="Fill-40" fill="#000000"></path>
                <path d="M279.081,570.041 C279.081,574.482 275.481,578.082 271.04,578.082 C266.6,578.082 263,574.482 263,570.041 C263,565.601 266.6,562 271.04,562 C275.481,562 279.081,565.601 279.081,570.041" id="Fill-42" fill="#000000"></path>
                <path d="M271.5,555.151 L271.5,540" id="Stroke-44" stroke="#000000" stroke-width="5"></path>
                <path d="M260.714,559.714 L250,549" id="Stroke-46" stroke="#000000" stroke-width="5"></path>
                <path d="M257.152,569.5 L242,569.5" id="Stroke-48" stroke="#000000" stroke-width="5"></path>
                <path d="M260.714,580 L250,590.714" id="Stroke-50" stroke="#000000" stroke-width="5"></path>
                <path d="M271.5,585 L271.5,600.152" id="Stroke-52" stroke="#000000" stroke-width="5"></path>
                <path d="M282,580 L292.714,590.714" id="Stroke-54" stroke="#000000" stroke-width="5"></path>
                <path d="M286,569.5 L301.152,569.5" id="Stroke-56" stroke="#000000" stroke-width="5"></path>
                <path d="M282,559.714 L292.714,549" id="Stroke-58" stroke="#000000" stroke-width="5"></path>
            </g>
        </g>
    </g>
</svg>