<svg height="960" viewBox="0 0 960 960" width="960" xmlns="http://www.w3.org/2000/svg"><path d="m563.40097 2.1115065c29.549004 1.41909055 63.215178 6.03503041 100.963196 13.8049064 18.59321 3.8271397 31.93565 20.1956411 31.93565 39.1786455v821.6967346c0 16.387575-9.995775 31.117505-25.224316 37.170945-47.846037 19.0191-177.348196 43.565507-231.544732 43.565507-11.187462 0-21.302214-4.592814-28.549365-12.007407l-113.02437-18.151888c-19.394434-3.114776-33.657217-19.850952-33.657217-39.493912v-819.1367388c0-20.7669022 15.892091-38.079823 36.583085-39.8537915l107.514888-9.2179236c6.855833-8.5363654 17.167804-14.19802359 28.893346-14.85557776 55.264538-3.0991682 97.163894-4.0181721 126.109835-2.69949984zm92.897846 260.8286955c-39.259751.03375-72.227779.44731-98.585431 1.229007-26.211657.789473-65.481945 2.517216-117.673182 5.178947-.170831.008712-.340878.013084-.510036.013213l.000601 648.166876c5.363077 0 11.788021-.289567 19.018255-.827364l1.953356-.152796c57.7882-4.660544 158.58679-24.966216 195.793513-39.754732zm-236.769-204.0819996-115.23 9.8800968v819.1367388l115.23 18.505164zm115.966151-17.3326794h-2.099021c-24.677469.0267476-55.966195 1.0973496-93.866178 3.2227347l-.000952 204.5989443 1.057393-.052853c51.539268-2.623018 90.408773-4.329504 116.528678-5.116213 26.575054-.788146 59.728029-1.204025 99.175411-1.23763l.007518-.000304.001-187.8451436c-36.053647-7.4211147-67.659525-11.7253324-94.817634-13.0296002-7.604271-.3463911-16.266342-.5265147-25.986215-.5399352z"/></svg>