<svg height="960" viewBox="0 0 960 960" width="960" xmlns="http://www.w3.org/2000/svg"><path d="m482.50031 1c142.784583 0 258.49969 116.2177 258.49969 259.536441 0 36.30971-7.443348 71.605888-21.668203 104.165356l-2.119201 4.814865-1.304057 3.01279-.940622 2.22848-.690684 1.687032-.611843 1.547727-.468668 1.228898-.358953.969574-.357132.988775-.618762 1.761423-.538088 1.553218-.362664 1.017705-.37098 1.009878-.255007.676049-.398647 1.028986-.279207.702184-.292108.72014-.306852.742384-.491948 1.164659-.535477 1.238821-.792422 1.792131-.661211 1.468132-11.544906 25.252277-4.360614 9.651514-1.838224 4.115978-1.803778 4.074229-1.150024 2.616276-2.030808 4.65176-1.284455 2.959062-1.586201 3.675248c-.261513.608399-.521605 1.214747-.780285 1.819073l-1.535184 3.601946c-.25306.596362-.504723 1.190764-.754997 1.783235l-1.485047 3.531895c-.734257 1.754604-1.456163 3.492373-2.165937 5.21412l-1.403439 3.422372c-.462465 1.13383-.919603 2.26078-1.371479 3.381091l-1.133517 2.824027-.906914 2.280244-.89036 2.257792-.873726 2.235236-.857012 2.212576-.840219 2.189814-.823346 2.166946-.806394 2.143976c-.132982.355409-.265254.709857-.396815 1.063341l-.780816 2.109326c-.128709.349622-.256703.698275-.383981 1.045959l-.755059 2.074442-.737789 2.051058-.720438 2.027569c-.118622.335965-.236519.670947-.353687 1.004944l-.694264 1.992142-.676713 1.968395-.659085 1.944543c-.108374.322097-.21601.643196-.322907.963295l-.632492 1.908572-.614665 1.884462-.596757 1.860248-.578769 1.835931c-.094959.303956-.189164.606894-.282615.908813l-.55164 1.79926-.533454 1.774684c-.087389.293726-.174017.586425-.259882.878093l-.506026 1.737624-.48764 1.712789-.469176 1.687849-.450632 1.662807c-.073555.275042-.146335.549036-.218336.82198l-.422666 1.625048c-.068885.268736-.136989.536417-.20431.803042l-.394521 1.587057-.375658 1.561599c-.183101.774418-.359098 1.53925-.527947 2.294439l-.328154 1.497503c-.053099.247435-.105401.493794-.156904.739075-4.903053 23.350632-8.102338 48.404988-10.048486 76.732411l-.122525 1.812594-.14907 2.282847-.166792 2.66091-.159346 2.662932-.087803 1.52445-.210605 3.847932-.239339 4.766426-.219734 4.844452-.169066 4.115762-.157094 4.203684-.08882 2.570791-.166161 5.266347-.102788 3.613948-.14316 5.595126-.151841 6.823487-.156025 8.239914-.14028 8.771193-.127593 9.365284-.007918.402186-.014714.403043-.035203.60767-.032483.408183-.062692.618593-.079987.628233-.097882.640187-.075495.434575-.083893.441601-.09247.449313-.101226.457712-.168644.703812-.189345.726565-.138027.498158-.147673.509985-.239985.78865-.262689.819114-.285996.851893-.418619 1.190845-.342713.937375-.368022.977866-.531105 1.370807-.578593 1.452391-.627505 1.539458-1.036086 2.484438-.953392 2.242795-1.477792 3.424856-2.156457 4.935054-.897291 2.036063-1.396599 3.141018-1.183357 2.639113-2.890958 6.371197-2.162069 4.684608-1.093816 2.325419-.638277 1.324636-.267571.537243-.255819.490255c-.086849.162024-.175339.322752-.265668.482477l-.276702.476457c-.047102.079006-.094713.157834-.142858.23652l-.295471.47072c-.050379.078269-.10134.156469-.15291.234639l-.316906.468934-.332676.469938-.349632.4727-.36777.477216c-.062872.08001-.126549.160282-.191057.240851l-.397198.487286c-.067926.081908-.13673.164187-.206438.246874l-.429292.501306-.452169.512849-.476228.526147c-.081442.088897-.163936.178421-.247507.268609l-.51454.549388-.54156.567078-.569766.586523-.910124.920087-.64546.642821-1.389156 1.364176-2.384592 2.304374-.907957.865936-.876983.829019-1.312766 1.227564-1.299215 1.198841-1.274081 1.159355-1.237359 1.109108-1.189054 1.0481-.760144.659525-.730092.624439-.696609.586165-.659692.544701c-.213363.174302-.420001.341162-.619342.500048-.273895.218311-.551757.42827-.833279.629912-1.473009 9.152067-2.245967 19.279569-2.294575 30.380052l-.002446 1.119985v53.646466c0 4.083505-1.24997 8.069162-3.581922 11.421328-33.326546 47.90667-63.081694 75.048398-92.065958 80.707768-3.268963.638287-7.86831 1.096094-12.380555 1.096094l-.919513-.007976c-.15635-.002626-.314104-.005884-.473046-.009749l-.966156-.030287c-.325642-.012395-.654294-.027023-.98422-.043689l-.991857-.055917-.495534-.032175-.983764-.072051-.965337-.081336c-.31755-.028529-.63029-.05841-.936484-.089446l-.897204-.096378c-.145682-.016576-.289292-.033391-.430614-.050422l-.818737-.104572c-.525202-.071176-1.00684-.145013-1.431015-.219943-29.340525-5.182975-59.423547-32.42403-93.153032-80.909921-2.245584-3.228011-3.487848-7.043458-3.576787-10.968035l-.005135-.453293v-53.646466c0-13.763305-1.10186-26.048364-3.258363-36.851669l-1.281786-1.086217-1.694819-1.44656c-.281017-.24074-.561042-.48109-.839675-.720733l-3.261034-2.82485-2.1449-1.875138-1.850255-1.641129-1.085319-.982023-.97763-.90493-.668147-.634582-.616731-.601814-.569241-.573588-.355048-.368953-.33685-.359772-.319813-.351937-.30394-.345446-.289231-.340302-.275684-.336504-.263301-.33405-.25208-.332943-.242023-.333181-.233129-.334764-.225398-.337693-.21883-.341969-.213425-.347589-.209184-.354554-.206106-.362867-.20419-.372523-.203438-.383526-.263032-.513008-.449985-.916907-1.197059-2.525483-2.057415-4.444095-1.887721-4.138061-1.995859-4.425151-1.061105-2.37427-.926081-2.086186-1.891939-4.305971-2.026918-4.663755-1.003982-2.342401-.562046-1.326032-1.036126-2.484176-.627522-1.539169-.43846-1.096872-.542846-1.390214-.253925-.665669-.359514-.96363-.225688-.62017-.317994-.898591-.293884-.862646-.270376-.829011-.247467-.797687-.225162-.768672-.138012-.49747-.189321-.725447-.114676-.470792-.155151-.688638-.092452-.448391-.083874-.440629-.075475-.433551-.067254-.427157-.059211-.421448c-.009208-.069803-.018089-.139397-.026645-.208796l-.04748-.414167-.039883-.410169-.032464-.406855-.025222-.404226-.018159-.40228-.011274-.40102-.114147-8.431178-.156865-9.910541-.156001-8.24141-.129155-5.869787-.141004-5.632444-.154144-5.421619-.168571-5.237308-.152427-4.242761-.097005-2.499441-.171442-4.099351-.146372-3.228572-.195116-3.984968-.166278-3.156954-.149119-2.674296-.156227-2.665316-.139747-2.281094-.14529-2.281126-.100015-1.52228c-1.933305-29.073102-5.163638-54.697551-10.171016-78.545027-.103132-.491168-.209456-.986653-.318957-1.486438l-.338021-1.512229c-.115842-.508362-.234847-1.021004-.357002-1.537906l-.375901-1.563469c-.064221-.262702-.129225-.526464-.195012-.791285l-.404095-1.601597c-.068909-.269043-.138597-.539138-.209062-.810285l-.432102-1.639468c-.073567-.27534-.147908-.551726-.22302-.829155l-.459924-1.677081c-.078194-.281595-.157156-.564228-.236884-.847898l-.487561-1.714436c-.082789-.287806-.166342-.576644-.250656-.866511l-.515011-1.751534-.533208-1.776122c-.09038-.298063-.181515-.597145-.273403-.897245l-.560349-1.81279-.57834-1.837091-.596248-1.861279-.614074-1.885351-.631817-1.909309-.649478-1.933152-.667055-1.956882-.684551-1.980495-.701964-2.003995-.719295-2.02738-.736542-2.05065-.753707-2.073807-.770791-2.096847-.78779-2.119774-1.21338-3.222397-.82993-2.176589-1.276202-3.307083-.871553-2.232688-.888058-2.254926-1.362852-3.423838-.682344-1.698591-1.388829-3.427346-1.421261-3.468576c-.479192-1.163198-.963837-2.333471-1.453983-3.511021l-1.486995-3.554683c-.250599-.596153-.502586-1.194176-.755967-1.794094l-1.537055-3.622453c-.25898-.6076-.519365-1.217146-.781161-1.828663l-1.587769-3.692958-2.086974-4.812919-2.018812-4.623232-1.562219-3.549941-2.533666-5.698832-2.32156-5.162043-4.218569-9.277041-7.317305-15.945237-2.345068-5.093233c-2.462909-1.990775-3.942172-5.116034-3.693356-8.513698l-.007707.126341-.285507-.680091-.598651-1.445682-.64733-1.581788-.814888-2.016251-.966229-2.423848-.928406-2.36056-.8764-2.255773-1.365908-3.570648-1.391955-3.727085-.520199-1.441755-.177541-.521971-.033093-.114892c-.004573-.021269-.002597-.025243.0062-.011126l-.479315-1.039041c-6.18984-13.443738-10.473024-26.190177-14.309009-41.765577l-.350872-1.440763c-1.84061-7.897485-3.320264-15.487743-4.388487-22.486234l-.13441-.894915-.06307-.311763-.032651-.211942c-.004043-.032195-.007507-.063357-.010568-.094284l-.018711-.241011-.189308-1.341662c-1.541823-11.212914-2.358712-22.563785-2.436546-34.002982l-.006146-1.806915c0-143.319052 115.714797-259.536441 258.50031-259.536441zm-30.803915 904.750279.53496.458442c8.978942 7.659149 16.866631 12.112647 23.457601 13.418034l.367853.066628.658337.075016.535695.052715.28284.025399c.249051.021652.496148.041261.738251.058664l.708282.045438c.114535.006417.227061.012242.337197.017456l.629098.023786.553491.008143c.200072 0 .401633-.002245.603062-.006439l.602271-.018135.591749-.028062.571499-.036218.541518-.042603.501808-.047219.452368-.050063.393199-.051137.3243-.050441c.047767-.008251.092259-.016398.133272-.024406 6.748543-1.317698 14.842098-5.92474 24.063711-13.876702l-.872775.015924-2.269131.037415-4.576439.064097c-6.140544.075993-12.427536.113989-18.860983.113989-.61837 0-1.224703-.035679-1.818444-.106608l.116015.011608-.325489.034942c-.149857.013322-.300575.024435-.452115.033333l-.457055.020035-.46177.00669c-6.433447 0-12.720439-.037996-18.862614-.11401l-4.576458-.064101c-1.396121-.021858-2.784489-.045728-4.165104-.07161zm-39.225395-72.575279v26.322l.093512.005359 3.948072.20532 3.199653.154473c.535849.024998 1.073119.049628 1.610221.07382l3.249255.141172 3.283393.132353 3.317527.123532 3.351661.114713 3.385792.105891 3.419921.097069 3.45405.088248 3.488177.079424 3.522302.070602 3.557731.061798 1.789705.02756 3.607609.048542 4.55858.048277 4.609719.03447 3.727026.017654 3.762311.008829 1.893354.001104c.618741 0 1.225429.035721 1.819511.106736l-.117082-.012946.325704-.033653c.149737-.013342.300354-.024472.451804-.033381l.456806-.02006.461532-.006696 1.892758-.001102 3.7611-.008823 3.726983-.017648 3.692863-.026473 3.658744-.035299 4.52658-.056548 4.470995-.070303 3.540669-.06621 1.755504-.036371 3.488124-.079416 3.453995-.088238 3.419866-.09706 3.385734-.105881 3.351601-.114701 3.317466-.123522 3.283329-.13234 3.250796-.141233 1.610188-.073813 3.197979-.154386 3.04388-.158843.001046-15.057005c-.784888-.004989-1.580955-.012291-2.387706-.021858l-2.53356-.036837-2.59868-.051003-2.660525-.064843-2.719094-.078354-2.774389-.091537-2.826409-.104393-2.875153-.116922-2.920622-.129121-2.962817-.140995-3.001736-.152539c-.50335-.026367-1.008186-.053202-1.514439-.080497l-3.053974-.169242c-.511647-.02911-1.024575-.058667-1.538716-.088664l-3.098843-.185208-3.124662-.195442-3.147205-.205348-3.166475-.214927-3.182468-.224178-4.796526-.352896-3.208123-.245871-3.212655-.253976-3.21391-.261751-3.211891-.2692-3.206597-.276321-3.198027-.283114-3.186182-.289579-3.171063-.295716-3.152668-.301527-3.130999-.307009-4.648702-.470075-3.062495-.31928-3.029363-.323616-2.992955-.327622-2.953273-.331303-2.910314-.334654c-.481291-.056037-.960655-.1122-1.438025-.168482l-2.839737-.339068-2.788591-.341601-2.734171-.343806-2.676475-.345682c-.44109-.057752-.879638-.115569-1.315579-.173443l-2.58379-.347885c-.425233-.058078-.84772-.1162-1.267394-.174359l-2.483738-.349348-2.412941-.349915-2.338871-.350153c-.766914-.116721-1.520938-.233427-2.261524-.350064zm-.002204-21.32793.002769 1.281274-.000565 4.850656.846397.141111 2.131116.341375c.72398.113906 1.461387.227908 2.211674.341952l2.288959.342204 2.362967.342128 2.433701.341723c.41133.056903.82547.113774 1.242353.170609l2.533662.340505c.42758.056658.857766.113265 1.290491.169815l2.626254.338549 2.683888.336838 2.738248.334797 2.789333.332431 2.837143.329736 2.881677.326714 4.398855.48369 4.480638.475052 3.027068.311355 3.055229.306698 3.080114.301713 3.101725.2964 3.120061.290761 4.707307.424851 3.151573.27523 3.158446.268445 3.162046.261333 3.162369.253893 3.159418.246126 3.153193.238033 3.143691.229611 3.130916.220863 3.114866.211786 3.09554.202384 3.07294.192654 3.047065.182596 3.017914.172211 2.98549.161499 2.94979.15046 2.910815.139093 2.868566.1274 2.823041.115378 2.774242.10303 2.722167.090355 2.666819.077351c.439675.01179.876908.023025 1.311629.033698l2.577655.057234c.84881.016792 1.687031.031281 2.514117.043412l2.447307.029265 1.066525.007653.000435-16.362656c0-1.899453.018168-3.780395.054575-5.642831-.164401-.000433-.331104-.001817-.498279-.003291l-2.711739-.031211-2.788266-.046258c-.470863-.008943-.944746-.018496-1.421565-.028653l-2.895467-.06812c-.488224-.012539-.979215-.025666-1.472889-.039372l-2.993563-.089132-3.0539-.102667c-.513787-.018218-1.029919-.036985-1.548312-.056292l-3.13682-.122262-3.18704-.134854-3.233214-.147066-3.27534-.158903-3.31342-.17036-3.347452-.18144-3.377438-.192143-3.403377-.202466-3.425267-.212414-3.443113-.221982-3.456909-.231173-3.46666-.239986-3.472363-.248422-3.47402-.256479-3.471629-.26416-3.465191-.271461-3.454706-.278385-3.440174-.284932-3.421596-.291101-3.39897-.296892-3.372296-.302304-3.341577-.30734c-.554145-.051622-1.106841-.103438-1.658004-.15544l-3.287909-.314185-3.247071-.318275-3.202187-.321988-3.153255-.325323-3.100277-.328281-3.043251-.330861-2.982178-.333062c-.491716-.055673-.980718-.111422-1.466923-.167239l-2.882981-.335657c-.474677-.056058-.946387-.112168-1.415047-.168323l-2.774678-.337401-2.697418-.338092-2.61611-.338405c-1.716071-.225623-3.375239-.451203-4.972108-.676236l-.303658-.044221c.279617 4.761528.429637 9.653518.451393 14.676067zm-1.862026-30.039245 1.77899.265606c.374341.054629.752745.109316 1.135129.164054l2.341377.328969c.397963.054909.799737.109852 1.205237.164822l2.477043.330081 2.562428.33035 2.643767.33024 2.721059.329751c.459726.054897.922503.109757 1.388249.164574l2.829408.328309c.477278.054609.957356.109159 1.440148.16364l2.928653.326016 2.989757.324014 3.046816.321635 3.099826.318875c.520831.052895 1.043702.10566 1.568528.158285l3.171756.314029 3.214649.310325c.539125.051391 1.079868.102612 1.622146.153654l3.271403.304059 3.30418.299409 5.008876.439567 3.368418.286128 3.387032.280154 3.401599.273802 3.412119.267071 3.418591.259961 3.421019.252475 3.419397.244608 3.413731.236364 3.404016.227742 3.390256.21874 3.372449.209362 3.350593.199604 3.324693.189469 3.294745.178954 3.260751.168061 3.222709.156791 3.180621.145142 3.134485.133114 3.084305.120709 3.030075.107924 2.9718.094762 2.909478.081221 2.84311.067302 2.772694.053005c.456022.007622.908943.014632 1.358676.021023l2.659482.030849c.383085.003405.763586.006322 1.141448.008745.575135-7.383323 1.476539-14.441048 2.707481-21.17391l-.241909.005834-6.293889.136084-5.682505.105195-6.972805.109058-5.211333.068702-7.625518.083034-8.017803.067374-7.191073.04502-11.350422.044988-10.381606.017359-3.043105.000091-.261-.004-6.068791-.004577-11.386035-.03584-7.217851-.039062-6.925721-.050938-5.552077-.051362-6.403821-.072137-8.108113-.113643-6.700135-.115429-6.340727-.129985-5.155185-.122736-.907537-.02511c.630419 3.439359 1.174773 6.963556 1.633763 10.572644zm-8.275014-35.586435c.575658 1.597923 1.126388 3.219873 1.652296 4.865857l4.880891.140175 5.870663.144039 7.139626.147607 5.663007.098488 5.93303.087761 6.208255.076804 8.714789.084965 10.41539.071137 6.072165.028063 8.851115.025225 7.779017.006489 7.914491-.006491 6.473735-.016334 8.706482-.036963 8.297878-.053077 8.993735-.079925 6.409815-.073116 8.109161-.114616 4.819502-.081357 8.204278-.164796 5.972193-.144074 1.571783-.043193c.431595-1.35408.879968-2.691913 1.345177-4.013504l.338014-.949164c.394927-1.096249.875714-2.136828 1.43205-3.11689l-1.569491.045887-6.760744.172708-6.293889.136084-5.682505.105195-6.972805.109058-5.211333.068702-7.625518.083034-8.017803.067374-7.191073.04502-11.350422.044988-10.381606.017359-3.043105.000091-.261-.004-6.068791-.004577-11.386035-.03584-7.217851-.039062-6.925721-.050938-5.552077-.051362-6.403821-.072137-8.108113-.113643-6.700135-.115429-6.340727-.129985-5.155185-.122736-5.69543-.156087-3.346776-.107034c.582408 1.011322 1.084042 2.087862 1.493418 3.22422zm257.836244-344.85539-5.570589.375278-14.428655.945874-12.342858.786927-12.832301.790054-9.996683.590949-9.61225.544016-5.197259.282972-6.121043.322246-6.012523.304125-5.922705.286827-6.821251.313865-6.213184.269969c-2.092226.08831-4.17869.173735-6.263401.256451l-2.084275.08182-4.689959.177695-2.60866.095019-4.919928.171112-4.875364.158367-4.831705.145544c-.801697.023185-1.601612.045833-2.399764.067942l-4.767915.126173c-.791177.019947-1.58063.039352-2.368377.058213l-4.70616.106633-4.666121.093513c-.774401.014487-1.547171.028426-2.318329.041812l-4.607761.073693-4.569984.060385c-1.517133.017902-3.02812.033574-4.533113.047003l-4.497147.033546-4.462086.020015-4.42793.006409-3.648228-.004114-3.648975-.011657-3.6514-.019234-3.655504-.026843-3.661286-.034486-3.668748-.042162-3.677887-.049871-3.688707-.057615-3.701204-.06539c-.618002-.011548-1.236595-.023422-1.855813-.035621l-3.723098-.077117-3.739792-.084976-5.644663-.142272-3.788873-.104769-5.726153-.172119-5.782601-.190176-3.889225-.136872-3.918511-.14498-5.936347-.232747-6.011681-.251179-4.052438-.177747-4.090116-.186023-4.129474-.194332-4.17051-.202673-6.336381-.319723-6.438155-.338678-6.545595-.357747-6.658701-.376928-6.777472-.39622-6.90191-.415625-7.032014-.435143-7.167782-.454772-7.309217-.474515-7.456318-.494368-7.348941-.496753 3.116073 6.835658 4.055212 9.017088 1.621542 3.652933 1.914417 4.350002 2.399027 5.499991.846214 1.94997c.558336 1.287957 1.110972 2.567952 1.657964 3.840214l1.624102 3.793821c.535761 1.257028 1.065935 2.506556 1.590578 3.748813l1.557393 3.70519 1.524545 3.662954c.754117 1.821149 1.496043 3.626978 2.225968 5.418267l1.443905 3.563423c.238003.59075.474686 1.179941.710057 1.767604l1.025137 2.570698 1.00649 2.546654.987758 2.522607.968939 2.498558.950037 2.474505.931047 2.450449.911973 2.426391c.150402.402393.300005.803784.448808 1.204172l.883201 2.390297.863914 2.36623.844541 2.342161.825082 2.318089c.135887.384342.27096.767681.405217 1.150017l.795734 2.281975c.130985.378322.261151.755642.390495 1.131957l.766193 2.245854c.126051.372303.251277.743601.375677 1.113896l.73646 2.209727c.24217.73256.481019 1.461106.716532 2.185637l.696518 2.161546.676418 2.137451.656234 2.113353.635963 2.089252c.1043.3462.207752.691396.310353 1.035587l.605398 2.053095c.19839.680348.393366 1.356677.584913 2.028987l.564344 2.004875.543689 1.980761c.177778.656235.352099 1.308449.522949 1.956644l.502124 1.932523c.901416 3.520847 1.697406 6.920071 2.3856 10.197589 5.314863 25.311862 8.741932 52.145908 10.806587 82.188704l.129941 1.922.103874 1.580795c.119631 1.842776.233849 3.680991.342985 5.521308l.182172 3.158133.225758 4.185915.169159 3.374762.197855 4.265388.147939 3.460552.139214 3.512938.130925 3.5741.12307 3.644035.170831 5.616376.180162 6.815777.117291 5.066721.129559 6.325349.156167 8.898665.157028 10.726447.016748 1.31857.213994.601105.344504.93583.262042.692569.287118.744982.470937 1.197928.751665 1.867037.619621 1.508566.896927 2.147599.973537 2.293854 1.045494 2.429877 1.400971 3.213044c.632699 1.441448 1.28495 2.915278 1.946335 4.399039l1.030629.068668 2.057686.126926 2.923011.165145 3.151465.16101 3.122153.144871 4.63919.192372 3.509354.129766 4.431203.147101 6.290107.181133 5.870663.144039 7.139626.147607 5.663007.098488 5.93303.087761 6.208255.076804 8.714789.084965 10.41539.071137 6.072165.028063 8.851115.025225 7.779017.006489 7.914491-.006491 6.473735-.016334 8.706482-.036963 8.297878-.053077 8.993735-.079925 6.409815-.073116 8.109161-.114616 4.819502-.081357 8.204278-.164796 5.972193-.144074 4.051936-.111205 3.877143-.117965 5.140177-.176259 3.47013-.133651 3.305747-.139961 3.35334-.156345 1.603276-.080547 3.030665-.164168 2.131872-.126105 1.917912-.122623c.396361-.889246.789437-1.77492 1.176983-2.652179l1.616565-3.684954 1.079681-2.493992.76433-1.78517.723207-1.707237.896912-2.147618.815657-1.991147.555617-1.384516.482044-1.226552.416675-1.08649.360368-.967983.318493-.890584.085625-6.205587.165208-10.373236.122145-6.515946.156907-7.243621.122799-4.9624.132695-4.805442.143442-4.665595.155037-4.542856.13295-3.557408.17805-4.365038.192023-4.290203.206847-4.232475.176721-3.355914.092257-1.670946.182173-3.158084c.109135-1.840299.223353-3.67851.342984-5.521285l.103874-1.580795c2.049618-30.822233 5.508583-58.260291 10.936523-84.110682 1.37565-6.551525 3.183148-13.588051 5.404384-21.112201l.616036-2.064133.63647-2.088325.656823-2.112527c.111162-.354106.223169-.70922.336018-1.065344l.687199-2.148855c.116215-.360162.233269-.721333.35116-1.083514l.717392-2.185209c.121236-.366222.243307-.733454.36621-1.101698l.7474-2.221589.767303-2.245857.787126-2.270138c.132834-.380381.266492-.761773.40097-1.144178l.816705-2.30658.836324-2.330891.85586-2.355211.875314-2.379545.894687-2.403891.913979-2.428247.933189-2.452617.952317-2.476997.971363-2.50139.990328-2.525794 1.009211-2.55021c.169771-.427071.340326-.855159.511662-1.284265l.516351-1.290374c1.62678-4.056583 3.316545-8.187498 5.072442-12.404304l1.521323-3.635709c.768833-1.828642 1.549978-3.673666 2.343682-5.535982l1.604228-3.747959 1.63816-3.795689 2.596584-5.969698 1.600447-3.65067 3.324999-7.497762 3.818069-8.480073zm16.278-38.025-19.14683 1.291885-14.668091.965891-10.084787.648396-10.821341.677776-10.328121.625775-9.898925.576588-8.490487.473504-9.262898.491356-6.035624.304586-5.946041.287171-6.849133.314134-7.907477.339652c-3.481384.14401-6.950473.28017-10.425829.409295l-2.086113.076637-5.963827.208811-4.875364.158366-4.831705.145545-4.788953.132649c-.794646.021029-1.587548.041518-2.378726.061465l-4.726518.113165-4.686028.100082c-.777681.015586-1.553712.030624-2.328112.045112l-4.626988.080317c-8.447492.135109-16.702247.203315-24.789362.202713l-1.824126-.001283-3.648391-.007882-3.649978-.015441-5.481612-.037409-3.661286-.034486-3.668748-.042162-3.677887-.049871-3.688707-.057614c-.615779-.01025-1.232079-.020823-1.848935-.031721l-3.708082-.069291c-.619219-.0122-1.239063-.024726-1.859567-.037578l-3.731236-.081042-5.630253-.136341-3.778217-.100794-5.708596-.166124-3.835692-.120754-5.802676-.19622-3.903658-.140922-5.912495-.226628-5.98594-.245022-6.065052-.263529-4.090116-.186023-4.129474-.194331-4.17051-.202673-6.336381-.319723-4.280445-.223673-6.509152-.351378-4.400873-.244881-6.697662-.383346-6.818322-.402676-6.944648-.422118-7.07664-.441674-7.214298-.46134-7.357621-.48112-7.506611-.501012-7.661265-.521016-10.465387-.725999-3.587734-.252753c1.908454 5.037618 3.799928 9.612745 6.060346 14.521661l1.320207 2.874318 5.369101.37445 10.197356.695643 7.466989.498472 7.318061.47866 4.798744.308157 7.082329.445892 4.646788.286416 6.862197.413439 6.737605.394118 6.618629.374911 4.349095.239326 4.300376.230873 4.253323.222454 6.295397.317969 4.142968.201553 4.101736.193252 4.062171.184983 6.022709.262047 5.943045.243632 3.920545.152247 3.889299.144147 3.859716.136081 3.831798.128047 3.805543.120049 3.780953.112082 3.758027.10415 3.736763.096252 3.717166.088386 3.699231.080555c.615136.012775 1.229594.025225 1.843409.037351l3.675449.068871 5.487866.08879 5.462489.071471 3.630334.038082 3.623215.030468 3.617761.022889 5.420053.020195 3.611404.004087 4.371751-.006337 4.406446-.01979c3.686739-.022078 7.41054-.058095 11.173707-.107865l4.534843-.066313c.759005-.012148 1.519622-.024844 2.281869-.038085l4.593188-.085982 4.633191-.099005 4.674078-.111956c.782469-.019734 1.566679-.040006 2.352648-.060812l4.737068-.131248 4.780167-.14402c.800335-.025064 1.602503-.050656 2.406522-.076777l4.846475-.163043 3.994282-.142533 4.657157-.174515 4.139462-.162527 5.18523-.21345 5.210265-.225454 4.825033-.218433 5.848586-.276867 6.927582-.344381 5.032497-.260759 8.22783-.444136 7.407016-.417127 9.857699-.577589 11.465106-.699359 15.847843-1.005853 14.371323-.942151 16.332496-1.09908.463278-1.010342.693792-1.538317.597018-1.349502.515019-1.194656.34134-.814808.30976-.761145.284412-.721811.350559-.925998.412922-1.146739 1.026452-2.948047.554426-1.546287.562952-1.524881.587781-1.542478zm-193.94569-322.341c-120.655222 0-218.50031 98.270064-218.50031 219.536441 0 10.172222.687548 20.254432 2.048034 30.202114l.180966 1.289445.013372.057459c.030978.148239.051108.262072.065216.363122l.021617.191462.010795.150957.096955.638419c.853315 5.58635 2.038464 11.73623 3.518057 18.20331l.250988 1.090271.267674 1.094565c2.727143 11.071572 5.613901 20.144908 9.441499 29.237994l7.861595.560372 13.153333.919776 7.674294.525064 7.51788.505101 7.367079.485252 4.830383.312529 7.128227.452421 4.676348.290747 6.904975.419905 4.532712.269174 6.697322.387704 6.580219.368533 4.324528.235096 6.397525.336836 4.207933.214068 4.164206.205717 6.167962.292988 6.078939.274385 5.99553.255896 3.953456.160381 5.868996.225331 3.8743.14011 3.845549.13206 3.818462.124044 3.793041.116061 3.769281.108112 3.747187.100196 3.726757.092315 3.70799.084467 3.690887.076652 3.675449.06887 3.661675.061123 5.470323.077232 3.634518.041901 3.626567.034271 3.62028.026674 5.422272.025842 5.417487.008939c9.435181.000897 19.108438-.093448 29.060265-.279748l4.613079-.092503 4.653523-.105489c.779007-.01866 1.559736-.037858 2.342206-.057592l4.71585-.124836 4.758507-.137643c.796688-.024004 1.595191-.048538 2.395526-.073602l4.824151-.15672 4.86902-.169348 3.107106-.113502 5.173438-.197669 4.142157-.166134 7.707505-.327702 7.789321-.355254 8.916897-.435066 7.087464-.36604 5.162442-.277088 7.390787-.410836 7.6087-.438773 9.001219-.537369 12.988584-.804948 12.511981-.802088 18.815984-1.243035 25.048761-1.690975c10.394251-25.85359 15.814887-53.614106 15.814887-82.171303 0-121.266066-97.845397-219.536441-218.49969-219.536441z"/></svg>