<svg height="960" viewBox="0 0 960 960" width="960" xmlns="http://www.w3.org/2000/svg"><path d="m315.911167 109.754739c47.031816 5.774781 90.495424 25.419422 127.180899 56.469214l.364629.310351.589224-.037661c35.722634-2.220004 71.285838 2.967425 104.628953 15.582668l.381823.144993.333963.090879c1.829364.506869 3.643628 1.150138 5.430017 1.934397l.594413.266648c.072888.033399.137446.062981.199386.091363l.183678.084164c.421307.193051.983586.450698 3.443555 1.577904 1.60718.736441 2.635775 1.207763 3.621389 1.65939l.327681.15015c1.637793.750468 3.321505 1.521978 7.530785 3.450752 6.42872 2.945763 10.5431 4.831052 14.485558 6.637562l.655852.300524.982629.45026.657536.301295c5.385374 2.467683 11.224008 5.143058 22.918277 10.501598l.595281.272114.932477.133449c9.098085 1.320851 17.540646 3.22271 24.761708 5.655024l.860628.294421c6.405206 2.22547 12.095458 4.924795 17.318539 8.672996 3.806627 2.731722 7.271663 5.945907 10.300682 9.960786l.120966.163324 1.768017.809813c22.049019 10.103287 37.779408 17.311255 52.857815 24.220473l1.505878.690022 1.50279.688607 4.11631 1.886173c28.369103 12.999271 57.608963 26.39754 125.947747 57.711692l3.038443 1.39222.634915.26526c2.447859 1.038541 4.868265 2.141598 7.260895 3.30925l1.432242.708343.236201.119352.292747.148795.102544.051426.846666.431808.187474.096236c.553858.286159 1.10615.575833 1.656886.869026 51.667547 27.506134 82.757283 81.885586 89.7789 148.899367 6.570752 62.710762-8.209496 133.409644-42.061402 198.844495l-.09944.190954-1.912672 3.648887-.100354.190204c-34.150553 64.307283-83.105844 116.314945-137.695569 147.061343-56.23709 31.674239-115.72285 39.19734-166.661846 17.779551l-.535187-.229297-.419434-.139094c-1.846356-.631739-3.668866-1.406679-5.453491-2.329196l-.593453-.312977-3.911622-2.104733-1.175022-.606297-.11041-.057245-.330151-.173791c-1.018059-.541981-2.029273-1.095181-3.03356-1.659532l-206.315857-110.989135-1.031203.589705c-46.093829 26.131878-97.361128 37.404288-148.917877 31.478157l-1.819762-.216303c-152.751335-18.755505-255.0800975-180.21921-233.28544219-357.722433 21.79465529-177.503223 160.14542119-309.4151967 312.89675619-290.659691zm270.779885 396.137328c-64.561983 121.42343-51.538642 254.60972 29.088447 297.479903 3.472032 1.846112 7.012811 3.494637 10.615132 4.949472l-.609336-.359614c-80.930918-47.934528-92.846876-178.332216-31.001329-294.646773 63.107701-118.688324 181.319895-181.904061 266.774873-136.466843 8.389981 4.461031 16.088245 9.769505 23.090019 15.828341-9.72373-11.927176-21.429263-21.764953-35.069736-29.017722-80.627089-42.870183-198.326087 20.809805-262.88807 142.233236zm25.751866 16.812419c-58.529353 110.077702-46.094977 231.153024 27.772954 270.4293 42.045062 22.355756 94.930905 13.391668 143.48801-18.780137 17.310546-12.867508 33.995737-28.437521 49.462333-46.386534-9.079176 5.327699-18.816844 9.334218-29.052429 11.977923-10.750603 2.776727-21.79375 3.938514-32.59227 3.596822-24.448831 8.959392-49.568296 8.847334-71.546053-2.838447-52.06678-27.684398-60.14166-106.310672-23.48914-175.244035 36.652519-68.933364 106.352069-106.20624 158.41885-78.521841 24.948944 13.265588 39.797092 38.227728 44.463523 68.215338 4.356745 7.608079 7.962092 15.852402 10.638204 24.516075 4.604783 14.907572 6.368063 30.50248 5.127838 46.230396 8.651012-21.335504 14.982281-42.729767 19.050769-63.646948 10.691362-74.543987-11.025829-140.633227-62.016099-167.745235-73.867932-39.276276-181.197138 18.119621-239.72649 128.197323zm81.702357 52.144323c-32.074171 60.322742-25.260115 126.672195 15.21962 148.195652 2.502786 1.330755 5.075668 2.458996 7.707993 3.39042-37.246646-27.545511-41.295726-89.631646-12.2855-144.191946 31.016128-58.332853 90.295503-90.147602 135.311474-66.558189-4.233822-4.434382-9.099581-8.172608-14.58312-11.088258-40.479735-21.523456-99.296296 9.929579-131.370467 70.252321zm56.464187 145.466057.151609.041891c.304547.083849.610235.166201.917039.247043.085813.02261.171141.044954.256554.06718.758446.197371 1.524391.385692 2.29672.564542.022933.005311.045927.010626.068927.015933.757089.174683 1.520309.340271 2.28929.496548.124234.025248.249223.050374.374362.075253.344269.068443.689172.134928 1.035179.199535.042791.00799.085717.015974.128661.023928.350462.064916.70198.127894 1.05459.188928.067629.011706.135344.023348.203099.034918.385955.06591.773238.129495 1.161777.190726.043412.006841.086393.013583.12939.020296.812684.126893 1.631303.243545 2.455001.349651.069271.008923.138855.017807.208476.026616.299533.037897.599445.074367.900003.109433.122601.014305.245727.028423.368959.042305.339953.038295.680281.07475 1.021394.1094.151229.015362.30326.030433.455444.045144l.223492.021335.855777.076733c17.199784 1.463309 36.268184-1.664036 53.836253-11.402998l.096857-.053768c.288453-.160356.576501-.322496.864127-.48643.14312-.084205.286474-.166391.429722-.249025.277991-.157824.555347-.31978.832288-.483426.188296-.11368.376939-.226017.565385-.339143.232019-.136965.463339-.277237.694354-.418704.196835-.122752.393869-.244386.590674-.366895.231002-.141676.461346-.286495.691369-.432519.273082-.175371.546118-.350653.818687-.527649.157499-.100362.314179-.202796.470702-.305798.285097-.189438.57051-.379458.855384-.571386.192069-.127675.383797-.257905.575275-.389004.222722-.15414.445046-.307736.667024-.462512.220858-.152431.441266-.307545.661326-.463831.254204-.182012.508348-.364371.762014-.548305.127891-.091332.254874-.183907.381735-.276878.297265-.219189.59448-.439643.891007-.662293.15537-.115404.31073-.232821.465898-.350844.303743-.232219.607024-.465751.909547-.701621.114528-.08818.228233-.177261.34183-.266673.315227-.249175.63011-.500205.944132-.75381.099046-.078999.197681-.15899.296231-.239236.309558-.253008.618329-.507606.926231-.764734.107498-.088892.215099-.179156.322592-.26973.348799-.294725.696607-.591976 1.043252-.892513.054053-.046096.107678-.092696.161276-.139375.388944-.339463.776868-.682723 1.16327-1.030171.044642-.039477.089042-.079478.133422-.119535.375213-.339289.7491-.681987 1.1215-1.028672.024813-.022524.049501-.045532.074182-.068558.347043-.324316.692916-.651646 1.037459-.982467.100294-.0958.200642-.192563.300877-.289623.33249-.322429.663416-.647333.993058-.975521.044501-.04388.088881-.088149.133238-.132479.371868-.37203.742534-.748284 1.11151-1.128765.029853-.030427.059911-.061462.089956-.092525.781734-.808534 1.555338-1.635156 2.320912-2.481022.026433-.02896.052544-.057843.078645-.086748.358852-.397634.716115-.799466 1.071561-1.205564.046917-.053402.093941-.107239.140932-.161151.34571-.39681.689433-.797167 1.03139-1.201592.028516-.033564.056914-.067193.085299-.100851.343627-.407591.685393-.819056 1.025329-1.234661.043371-.052897.086705-.105983.130009-.159136 1.112266-1.365322 2.204712-2.774859 3.275996-4.229747.031126-.042217.062139-.084398.093134-.126617.320582-.436719.639133-.877276.955742-1.321927.047524-.066705.095117-.1337.142666-.200787.325323-.459039.648551-.922334.969674-1.389995.026067-.037937.051871-.075564.077661-.113219 1.035688-1.5122 2.04942-3.069944 3.039736-4.67408.044771-.072517.08922-.144687.133621-.21695.301358-.490467.600651-.985446.897719-1.484772.030999-.052104.061387-.103268.091753-.154479.291754-.492033.581606-.988715.869257-1.489636.046798-.081495.093329-.162737.139803-.244091.284194-.497497.56623-.999167.846064-1.505021.027161-.049097.054476-.098552.08177-.148047.313431-.56838.623891-1.141661.931524-1.720235.344018-.647004.680884-1.293823 1.01067-1.940409.267845-.525142.531019-1.05013.789561-1.574938l.028357-.057598c.02772-.056341.055387-.112679.083-.169015.542761-1.107317 1.065177-2.214375 1.567336-3.320361.042996-.094697.085841-.189382.128538-.284059.225223-.49941.446264-.998471.663216-1.497285.044513-.102343.089007-.205032.133328-.30771.210904-.488597.417828-.976809.620866-1.464759.030419-.073105.06072-.146129.090934-.219146.212669-.513957.421037-1.027634.625134-1.540991.043544-.109525.086707-.218563.129677-.327586.193006-.48968.382311-.97954.56776-1.469081.024438-.064511.048876-.129192.073246-.193868.419894-1.114349.819774-2.2269 1.200068-3.337526.020724-.060523.041437-.121179.062092-.181829.17892-.525383.353333-1.049944.523413-1.574045.022144-.068236.044253-.136583.066288-.204922.359149-1.113861.698689-2.225457 1.019057-3.334693.014368-.049745.02887-.100087.043332-.150423.149004-.518625.293677-1.036204.434208-1.553238.022605-.083169.044974-.165845.067237-.248507.137583-.510835.271204-1.021432.400817-1.531467.017655-.06947.035204-.138808.052679-.208136.127558-.506042.25123-1.011761.370994-1.516896.0195-.082249.038842-.164248.058081-.246232.114407-.487515.225268-.974897.332518-1.461707.020837-.09458.041562-.189247.06215-.283893.107491-.494143.211242-.987575.311312-1.480388.014172-.069791.028246-.139453.042247-.209102.101102-.502945.198366-1.0052.291837-1.506783.013447-.072158.026845-.144461.040164-.21675.092245-.50067.18067-1.000407.265359-1.499445.015242-.089811.0304-.179826.045437-.269817.079397-.475168.155365-.949411.227984-1.422995.015268-.099569.030306-.198566.045197-.297535.071602-.475845.139873-.95136.204794-1.426181.012532-.091665.02485-.182633.037044-.273575.063723-.475185.124176-.950361.181299-1.424811.010518-.087367.020919-.174663.031207-.261935.057749-.489884.111955-.979037.162649-1.467387.008349-.08043.016594-.160756.024745-.241059.048093-.47383.092899-.947113.134431-1.419611l.015163-.174158.01282-.149916c.039605-.467051.076012-.933328.109254-1.39881l.009868-.139487.008488-.122138c.034286-.497529.064958-.994143.092055-1.489816.001826-.033405.003667-.067384.005492-.101359.028863-.537568.053502-1.073469.073995-1.608228.002835-.073964.005596-.148088.008279-.222191.018354-.507015.032986-1.013165.043935-1.518254l.022549-1.618854c.129164-20.903345-6.031537-39.917072-15.426814-54.938153-3.241371-5.184049-6.864622-9.886247-10.746716-14.028098-.028445-.029658-.056605-.059662-.084779-.089636-.272079-.290117-.545749-.57714-.820644-.861377-.04331-.044212-.086832-.089118-.130386-.133954-.54852-.56517-1.10193-1.118752-1.659836-1.661016-.035817-.034429-.071498-.069048-.107197-.103621-.28036-.27187-.561887-.540542-.844498-.806328-.043698-.04079-.086937-.081366-.130202-.121875-.565302-.529556-1.135207-1.047535-1.709075-1.553724-.031527-.027618-.063223-.055531-.094932-.083408-.274808-.24178-.550443-.480604-.826943-.7167-.053359-.045416-.106698-.090833-.160068-.136149-.278733-.2368-.558368-.470715-.838835-.701833-.030854-.025316-.061499-.050528-.092155-.075708-.599242-.492286-1.20241-.971819-1.808975-1.438321-.030395-.02332-.061065-.046868-.091742-.070383-.291813-.223726-.584146-.444186-.877217-.661607-.045813-.033949-.091805-.067982-.137815-.10194-.602266-.444531-1.207348-.876007-1.815152-1.294414-.028619-.019685-.057297-.039394-.085981-.059073-.29121-.199807-.582998-.39657-.875368-.590307-.053421-.035391-.107082-.070835-.160762-.106177-.933724-.614741-1.873095-1.198485-2.817023-1.750483-.046829-.027384-.093838-.05479-.140859-.082117-.281183-.163412-.562475-.323843-.844132-.481439-.083447-.046691-.166439-.092862-.249461-.138787-.280566-.155205-.562138-.307941-.844029-.457825-33.473627-17.798244-82.110399 8.210997-108.633271 58.093265-26.522872 49.882267-20.888172 104.748161 12.585455 122.546404.309988.164824.622394.327826.93717.488978l-.93717-.488978c.350351.186285.703789.370243 1.060249.551833.63716.324586 1.284019.641631 1.940151.950882.046836.022075.093592.044051.140395.065987.306464.143637.615126.285662.925761.425965.085632.038677.171126.077094.256768.11538.229748.102711.460822.204595.692948.305529.103055.044811.206558.089538.310267.134076.31497.135261.631382.268584.94966.400146.032934.013614.065231.026937.097546.040243.659639.271602 1.327983.535923 2.003986.792466.108606.041217.217984.082449.327561.123477.680222.254687 1.367948.501476 2.062972.740212.035666.012251.071353.024482.10706.036691.323216.110519.647917.219269.974154.32626.106969.035081.214261.070024.321718.104777.295278.095496.591751.189539.889439.282129.058583.018221.117639.036518.176742.054757.355206.109615.711695.217036 1.069855.32237.044808.013177.089085.02616.133388.03911.376865.110165.756127.218177 1.137186.323843zm-707.8932051-315.025662c-19.2917943 157.119056 69.5610441 297.319212 198.4583701 313.145813 44.21601 5.429044 87.400475-4.482366 125.836855-26.190654l-45.687042-24.578903c-.636213-.342262-1.246618-.714229-1.830372-1.113295l-.119077-.083174-1.076119-.595528c-1.541764-.861666-3.082213-1.74745-4.62169-2.657243l-1.539164-.917792c-114.689331-68.997633-147.369486-224.184135-74.013866-346.41957 40.050744-66.738084 103.823179-110.343198 172.264365-124.704693-28.758601-22.430304-62.410802-37.181756-99.352123-41.71758-128.897326-15.826602-249.0283429 98.713564-268.3201371 255.832619zm588.8158281-142.031936.033122-.020006.014102-.009775.053-.032.068-.043.019-.012.104951-.066317-.146133.093492c.179952-.112691.349045-.227276.507012-.343715l.04717-.03646.019-.014.028404-.020488.000596-.001512.092342-.070772.042658-.035228.036-.029.005-.004.092248-.076474.008752-.008526.072317-.062124.078391-.071035.009961-.009233.074188-.07034.071608-.070741.06659-.068586.012388-.013083c.111205-.117919.211755-.237466.301417-.358605l.106544-.152482c.018099-.02752.035642-.05512.052628-.082799.014916-.02431.029251-.048419.043163-.072589l-.021195.035617.024-.041.029-.053.010988-.018633.043177-.083972.018835-.041395.01724-.034805.03176-.074195.004296-.009009.005704-.016991.027-.069.02215-.059648.00785-.026352.024-.077.01807-.062573.003318-.012863.020612-.092564.005-.025.007-.034.002-.012v-.001l.004-.023.007908-.044705-.007619.04842c.012023-.071321.020578-.143084.025626-.215284l.005425-.155541c-.000007-.150298-.015177-.300801-.045178-.451408l-.005162-.023482-.004652-.023387-.006348-.026613-.011-.046-.003-.012c-.00715-.028736-.014938-.057078-.023245-.085422l-.002755-.007578-.017-.055-.004-.012-.024099-.072804.021365.062298-.023767-.069017-.021499-.057477.02.057-.024304-.068543-.002696-.006457-.004-.01-.02302-.057065-.02898-.064935-.007099-.017567c-.010284-.022615-.020893-.04523-.031824-.067843l-.045504-.089954c-2.801334-4.231616-16.305106-8.347514-33.486659-10.155842l-.479098-.220632c-1.815512-.185194-3.671535-.345074-5.55984-.477118-22.364245-1.56386-40.787796 1.369189-41.150154 6.551148s17.473695 10.650526 39.83794 12.214386c17.832378 1.246962 33.159325-.365143 38.82245-3.696691zm-96.953396-43.744006.06662.025225-.285-.106-2.572-.952.562.205-.794615-.290149.224615.082149-.369-.134-.216-.077-2.883-1.011-.070781-.024694-.110653-.037798.110653.037798c-2.160141-.738471-4.328476-1.439766-6.504235-2.104108l-.274984-.083198-2.92-.864-.095-.028-.196-.055-2.907-.81-.238142-.064436.09348.025242c-2.197075-.592745-4.400846-1.148516-6.610535-1.667537l-.136803-.031269-3.178935-.719048c-2.203304-.479728-4.412075-.923219-6.625547-1.330695-.021377-.00413-.042377-.007993-.063377-.011853l-3.000141-.527404-.384213-.065962c-2.184046-.364245-4.37238-.693942-6.564154-.989041-.020384-.003095-.04072-.00583-.061056-.008562l.029423.003565-1.642252-.213567c-9.488995-1.200486-19.038886-1.754502-28.590406-1.67917l-3.354817.051098c-.010335.00024-.02067.000482-.031005.000723l.031412.000482c-77.475195 1.804414-154.601 44.887498-199.744125 120.111211-67.838592 113.042188-37.763314 255.859055 67.17503 318.990449 2.77616 1.670149 5.576902 3.267796 8.402675 4.786174-.017041.035172-.034083.070347-.051126.105523l222.064463 119.470435c-40.719045-67.61756-36.094446-174.728954 16.167942-273.02021 50.621264-95.204751 133.094716-157.984629 209.856529-165.517166-50.956065-23.288639-93.806735-42.877324-128.551628-58.76147-.989562 1.57379-2.164462 3.015026-3.483813 4.31386-2.416917 2.379334-5.135312 4.123489-8.151569 5.511751-4.020395 1.850425-8.701983 3.098771-14.104342 3.958832-9.288313 1.478709-21.053888 1.806804-33.365336.945904-12.311447-.8609-23.916858-2.823254-32.908982-5.580256-5.230086-1.603554-9.692377-3.491302-13.416117-5.88325-2.793694-1.794533-5.242894-3.900041-7.305151-6.59259-3.279932-4.282384-5.177355-9.591176-4.763841-15.504701s3.031312-10.906581 6.875317-14.690812c2.416917-2.379334 5.135312-4.123489 8.151569-5.51175 2.9845-1.373645 6.333362-2.415502 10.070958-3.213032l-.654279-.299471c-.173507-.079355-.345804-.158157-.51689-.236406-7.214968-3.750955-14.571435-7.038578-22.03677-9.872298z"/></svg>