<svg height="960" viewBox="0 0 960 960" width="960" xmlns="http://www.w3.org/2000/svg"><path d="m885.152033 255.078439c37.003078 0 67 29.996922 67 67v272.839308c0 34.025208-25.502978 62.647522-59.30291 66.556403l-673.550991 77.894573c-19.51291 2.256621-39.282304.381786-58.023156-5.50264l-110.5773606-34.720104c-27.9269548-8.768764-46.92886527-34.651748-46.92886527-63.922997v-300.413253c0-34.357181 25.98843837-63.146399 60.16644917-66.650601l120.4608007-12.350601c4.744146-.486408 9.510046-.730088 14.279062-.730088zm0 40h-681.590018l-.000061 405.216608c3.715082-.012899 7.434469-.23285 11.140901-.66149l673.55099-77.894573c13.620868-1.575221 23.898188-13.109586 23.898188-26.821237v-272.839308c0-14.911688-12.088312-27-27-27zm-701.590283 1.025-115.5468189 11.847093c-13.7732282 1.412141-24.246181 13.013766-24.246181 26.859197v300.413253c0 11.795877 7.6574863 22.226333 18.9116323 25.760014l110.5773606 34.720104c3.392634 1.06525 6.832457 1.946541 10.304528 2.642454zm677.373983 173.165697c14.911689 0 27 12.088311 27 27l-.000119 61.623689c.000753.061474.00094.122842.000569.184101l-.00045 24.029401c0 13.735248-10.31171 25.281575-23.959595 26.828268l-579.432777 65.666191c-1.271134.144056-2.549386.216256-3.828657.216256-18.777682 0-34-15.222319-34-34v-102.322415c0-17.97782 13.995584-32.848521 31.940388-33.93756l580.645067-35.238347c.544565-.033049 1.090007-.049584 1.635574-.049584zm6.999017 99.678303-601.221 54.287.000954 17.582603c0 7.731986 6.268013 14 14 14 .526758 0 1.053097-.02973 1.576506-.089047l579.432776-65.666191c3.538341-.400995 6.211747-3.394487 6.211747-6.955477zm0-35.263-601.221 43.396v26.073l601.221-54.287zm-6.999017-44.415303c-.141443 0-.282854.004287-.424037.012855l-580.645068 35.238347c-7.389037.448427-13.151924 6.571657-13.151924 13.974289l-.000954 18.533812 601.221-43.396.000983-17.363303c0-3.865994-3.134006-7-7-7z"/></svg>