<svg height="960" viewBox="0 0 960 960" width="960" xmlns="http://www.w3.org/2000/svg"><path d="m444.373647 7.11293334c25.655126.92812876 56.599243 7.57687216 87.656265 18.79614946 31.06589 11.2224809 59.090472 25.8783192 79.367554 41.5525766 11.500995 8.8903107 20.699864 18.203414 27.170836 28.2412001 4.29796 6.6670035 7.450559 13.7286665 9.127979 21.3409385 2.163798 9.819494 1.70537 20.004653-1.853929 29.710651-1.053411 2.872557-2.355062 5.629484-3.885842 8.250042l-.37451.62754-5.084 9.708-.122613.279764c-6.029878 13.453554-16.939831 22.825008-30.271497 28.453143l-.564744.235582c-9.905098 4.08253-21.059087 6.102646-33.42338 6.581301-6.472797.25058-13.364157.06992-20.579875-.521011l-.535891-.045779.001 590.203.175774.025099c14.295585 2.050495 27.46826 4.960008 38.909232 8.652946l.976399.318454c12.457692 4.105483 23.094216 9.201469 31.769275 15.775707 5.905902 4.47568 10.96668 9.676109 14.94725 15.88178 5.227693 8.149927 8.22107 17.543244 8.22107 27.568227v28.503512c0 10.701246-3.397963 20.628999-9.245362 29.107717-4.350283 6.307902-9.822652 11.528327-16.191621 15.996205-9.386256 6.584526-20.964913 11.669785-34.524385 15.69305-23.909963 7.094387-54.642402 10.951272-87.038632 10.951272s-63.128669-3.856885-87.038632-10.951272c-13.559472-4.023265-25.138129-9.108524-34.524385-15.69305-6.368969-4.467878-11.841338-9.688303-16.191621-15.996205-5.847399-8.478718-9.245362-18.406471-9.245362-29.107717v-28.503512c0-.363967.004968-.727917.014902-1.091748l.014335-.525015c.009932-.363768.024828-.727384.044683-1.090745.547046-10.011147 4.034977-19.185092 9.630005-27.05506 4.202956-5.911881 9.402369-10.85357 15.409165-15.112917 8.949292-6.345835 19.890011-11.291947 32.653417-15.255236 12.325096-3.827186 26.571501-6.76928 42.000258-8.735196l.233235-.029296.001-616.472-.537029-.237998c-20.416438-9.104673-38.654328-19.664739-53.0253-30.81104l-.80931-.631543c-11.296838-8.869544-20.326245-18.196537-26.648116-28.275743-8.705202-13.879044-12.521161-29.4713181-8.421976-45.3761552l.149731-.568521 1.384-8.229.066946-.7620997c.394021-4.1058512 1.274267-8.165667 2.653008-12.11015l.264359-.7382221c3.549043-9.6779258 9.755046-17.7220541 17.711919-23.8177143 6.158803-4.7181807 13.086134-8.0867438 20.636116-10.4332418 11.39426-3.54128068 24.423734-4.80212661 38.948299-4.27666956zm-51.688281 883.75042466.006252.018014c6.069982 15.82479 51.350527 28.118628 106.308382 28.118628 53.906768 0 98.502849-11.828087 105.917291-27.214601-3.779411 1.546878-7.847789 2.997941-12.184576 4.355747-24.714706 7.737938-57.722136 12.108983-92.836824 12.108983-35.114687 0-68.122118-4.371045-92.836824-12.108983-5.188637-1.624512-9.993066-3.382515-14.373701-5.277788zm20.599669-51.062981-.672806.210955c-12.635887 5.120283-20.225982 11.405774-20.597894 18.211896l-.014335.525016.000164 9.331372c5.246032 3.198981 12.369836 6.262266 21.034668 8.975142 22.636556 7.087289 53.658256 11.195371 86.861059 11.195371s64.224503-4.108082 86.861059-11.195371c7.716351-2.415916 14.210581-5.109725 19.244867-7.929788l-.001817-10.376726c0-8.120136-10.27417-15.528263-27.175778-21.142348-13.626013-3.566502-29.823388-6.212684-47.454402-7.659214l-.000491 30.129881c0 9.785279-4.986623 18.314316-13.599763 22.727829-5.052384 2.588924-9.787105 3.282066-15.688258 3.282066s-10.635874-.693142-15.688259-3.282066c-8.613139-4.413513-13.599762-12.94255-13.599762-22.727829l-.000081-30.46175c-22.784907 1.592661-43.411623 5.17314-59.508171 10.185564zm88.796273-722.219127c-5.129632 0-9.288021 4.158389-9.288021 9.288021v733.207292c0 5.039638 4.01376 5.977701 9.018954 6.009064l.269067.000831c5.129632 0 9.288021-.880263 9.288021-6.009895l.000656-32.866691c-.122875-.004197-.245813-.008332-.368814-.012406l-.000399-674.978403.368228.10147.000329-25.451262c0-5.129632-4.158389-9.288021-9.288021-9.288021zm-100.281574-38.9751971c-1.410652 3.8757354 3.85151 12.8661917 16.893594 23.6917951 13.164009 10.926808 32.133509 22.009618 54.100185 31.481154l-.000226-6.909731c0-16.175327 13.112694-29.288021 29.288021-29.288021s29.288021 13.112694 29.288021 29.288021l.000075 25.910672c18.692738 4.065246 35.483847 5.639551 48.228809 4.603458 11.918237-.968885 18.371536-4.008731 19.454174-6.983254 1.520317-4.177037-4.603394-14.0139-19.227271-25.582152-16.798182-13.288241-41.690743-26.5149833-69.781413-36.739151-28.09067-10.2241676-55.661464-16.0925254-77.071134-16.7108051-18.638469-.5382516-29.652518 3.0609772-31.172835 7.238014zm8.175484-25.6500687.130481-.0250482c6.830433-1.3147357 14.707382-1.8068691 23.4442-1.5545626 23.704004.6845367 53.345601 6.9936582 83.334207 17.9086182s56.750812 25.1351436 75.349144 39.8473984c6.385788 5.051492 11.784705 10.118224 16.040551 15.151612-5.50369-18.225655-41.83766-43.4157613-89.834213-60.7544049-48.298455-17.4477053-92.699137-21.2705529-108.46437-10.5736129z"/></svg>