<svg width="960" height="960" viewBox="0 0 960 960" fill="none" xmlns="http://www.w3.org/2000/svg">
<path d="M88.999 21C98.8036 21 106.282 25.903 111.104 30.8496C115.865 35.7321 119.23 41.7594 121.631 47.5811C126.44 59.2429 128.965 73.96 128.997 89.2061L195.061 197.668L198.778 244.613C213.999 234.397 230.515 226.704 248.064 222.229L248.595 222.101C248.772 222.06 248.951 222.024 249.129 221.988L280.117 215.86C348.845 112.842 457.488 45.4561 580.44 46.2266C790.425 47.5428 954.306 245.522 952.63 481.882C950.953 718.241 784.279 914.149 574.295 912.833C454.598 912.083 349.351 846.897 281.817 747.604L248.972 740.029C248.881 740.008 248.79 739.986 248.699 739.964C231.011 735.623 214.343 728.059 198.972 717.948L195.061 767.332L128.89 875.97C128.361 889.347 125.893 902.083 121.631 912.419C119.23 918.241 115.865 924.268 111.104 929.15C106.282 934.097 98.8036 939 88.999 939C79.1945 939 71.7163 934.097 66.8936 929.15C62.1335 924.268 58.7679 918.241 56.3672 912.419C51.5274 900.682 48.999 885.851 48.999 870.5C48.999 855.149 51.5274 840.318 56.3672 828.581C58.7679 822.759 62.1335 816.732 66.8936 811.85C71.7163 806.903 79.1945 802 88.999 802C98.8036 802 106.282 806.903 111.104 811.85C113.251 814.052 115.114 816.487 116.733 819.031L124.918 805.596C134.472 789.909 144.027 774.223 155.938 754.668L160.577 696.091L124.974 688.586C124.76 688.541 124.546 688.492 124.334 688.44C66.8368 674.336 23.1065 618.512 4.91016 553.157C3.23297 547.133 4.47034 540.669 8.25586 535.687C11.5339 531.373 16.3956 528.602 21.7012 527.936L21.7021 434.696C16.3322 434.08 11.4024 431.309 8.08789 426.96C4.30874 422.001 3.06088 415.56 4.71387 409.544C22.6927 344.117 65.8405 288.802 123.032 274.222C123.24 274.169 123.45 274.119 123.659 274.072L160.344 265.968L155.938 210.332L115.13 143.335C113.913 145.023 112.576 146.642 111.104 148.15C106.282 153.097 98.8036 158 88.999 158C79.1945 158 71.7163 153.097 66.8936 148.15C62.1335 143.268 58.7679 137.241 56.3672 131.419C51.5274 119.682 48.999 104.851 48.999 89.5C48.999 74.1493 51.5274 59.3179 56.3672 47.5811C58.7679 41.7594 62.1335 35.7321 66.8936 30.8496C71.7163 25.903 79.1945 21.0001 88.999 21ZM580.151 86.2246C577.15 86.2059 574.157 86.2369 571.173 86.3105C482.048 88.5345 400.258 132.071 340.512 202.072C329.231 215.326 318.729 229.535 309.102 244.604C308.83 245.028 308.543 245.44 308.242 245.841C267.355 310.262 242.724 390.069 242.104 477.43C241.459 568.402 266.967 651.509 309.994 717.8C310.278 718.174 310.549 718.559 310.808 718.954C319.247 731.88 328.343 744.152 338.031 755.709C396.215 824.924 476.003 868.651 563.572 872.554C567.227 872.715 570.896 872.811 574.578 872.834C575.29 872.838 576.003 872.84 576.714 872.839C578.868 872.836 581.019 872.809 583.165 872.759C584.54 872.726 585.913 872.685 587.284 872.633C604.437 871.982 621.308 869.801 637.794 866.197C639.003 865.933 640.211 865.662 641.416 865.383C643.034 865.007 644.648 864.617 646.259 864.214C647.171 863.986 648.081 863.753 648.99 863.517C649.305 863.435 649.62 863.352 649.935 863.269C651.066 862.97 652.196 862.666 653.324 862.354C668.181 858.241 682.687 852.964 696.76 846.604C698.93 845.624 701.088 844.617 703.237 843.585C705.27 842.609 707.293 841.611 709.307 840.59C709.929 840.274 710.55 839.957 711.171 839.637C723.1 833.487 734.684 826.546 745.868 818.865C747.619 817.663 749.361 816.442 751.092 815.204C752.809 813.976 754.516 812.729 756.214 811.466C758.02 810.121 759.815 808.757 761.599 807.373C764.974 804.754 768.308 802.065 771.6 799.309C772.392 798.645 773.181 797.978 773.968 797.307C774.703 796.679 775.438 796.049 776.169 795.415C777.334 794.404 778.493 793.384 779.646 792.356C780.632 791.478 781.614 790.594 782.592 789.703C787.896 784.87 793.076 779.853 798.124 774.661C802.667 769.989 807.104 765.174 811.429 760.223C817.196 753.62 822.764 746.775 828.121 739.699C832.725 733.618 837.172 727.366 841.456 720.952C842.571 719.282 843.677 717.602 844.77 715.91C845.99 714.02 847.197 712.117 848.39 710.2C848.787 709.561 849.184 708.921 849.578 708.279C849.973 707.637 850.365 706.994 850.756 706.349C853.885 701.191 856.912 695.939 859.832 690.598C860.578 689.233 861.317 687.863 862.049 686.486C865.973 679.108 869.697 671.563 873.209 663.861C873.85 662.455 874.484 661.044 875.111 659.628C875.425 658.92 875.737 658.21 876.047 657.499C876.667 656.078 877.28 654.651 877.886 653.22C880.006 648.209 882.037 643.135 883.979 638.002C884.975 635.368 885.946 632.718 886.895 630.053C887.794 627.524 888.673 624.983 889.529 622.427C890.008 620.997 890.479 619.562 890.944 618.124C892.43 613.527 893.846 608.888 895.188 604.208C895.409 603.44 895.626 602.671 895.843 601.9C906.445 564.155 912.332 523.772 912.631 481.632C912.704 471.312 912.441 461.093 911.854 450.988C911.805 450.146 911.753 449.305 911.699 448.464C911.592 446.783 911.477 445.105 911.353 443.431C911.228 441.756 911.094 440.086 910.951 438.418C909.526 421.739 907.215 405.393 904.078 389.44C903.764 387.845 903.443 386.254 903.112 384.666C901.131 375.142 898.854 365.762 896.294 356.538C895.867 355.001 895.433 353.468 894.991 351.939C894.77 351.175 894.546 350.412 894.321 349.649C893.871 348.125 893.414 346.606 892.948 345.091C892.017 342.061 891.055 339.048 890.062 336.055C889.731 335.056 889.396 334.059 889.058 333.064C886.864 326.606 884.529 320.234 882.057 313.956C881.771 313.231 881.483 312.508 881.194 311.786C880.616 310.342 880.031 308.903 879.438 307.469C879.142 306.752 878.845 306.036 878.545 305.321C878.245 304.606 877.943 303.893 877.64 303.181C877.336 302.469 877.031 301.758 876.724 301.049C875.188 297.501 873.609 293.986 871.985 290.503C871.661 289.807 871.335 289.112 871.007 288.418C870.35 287.03 869.687 285.648 869.017 284.271C868.681 283.582 868.345 282.894 868.006 282.208C867.667 281.522 867.327 280.838 866.985 280.155C865.618 277.423 864.223 274.711 862.801 272.022C862.09 270.678 861.372 269.339 860.647 268.006C859.561 266.006 858.459 264.018 857.343 262.043C856.971 261.385 856.596 260.729 856.221 260.073C855.47 258.763 854.713 257.457 853.949 256.158C853.567 255.509 853.183 254.861 852.798 254.214C852.413 253.567 852.026 252.922 851.638 252.278C850.084 249.703 848.505 247.151 846.9 244.623C846.499 243.991 846.096 243.361 845.691 242.731C843.266 238.957 840.783 235.237 838.246 231.572C837.823 230.961 837.399 230.352 836.973 229.744C836.121 228.529 835.263 227.32 834.399 226.117C832.671 223.711 830.919 221.33 829.144 218.975C828.7 218.386 828.254 217.799 827.807 217.213C826.466 215.456 825.112 213.714 823.745 211.986C822.378 210.259 820.999 208.545 819.606 206.847C817.749 204.582 815.869 202.344 813.967 200.133C812.54 198.474 811.101 196.831 809.649 195.203C807.052 192.289 804.413 189.426 801.737 186.611C800.924 185.756 800.109 184.905 799.289 184.06C793.659 178.253 787.862 172.667 781.91 167.312C780.953 166.45 779.992 165.594 779.027 164.745C771.524 158.143 763.781 151.903 755.816 146.048C754.679 145.211 753.536 144.383 752.39 143.562C747.556 140.103 742.642 136.784 737.654 133.609C736.726 133.018 735.796 132.431 734.862 131.851C713.258 118.407 690.282 107.668 666.285 99.9932C665.32 99.6846 664.354 99.3807 663.386 99.082C659.749 97.96 656.089 96.908 652.407 95.9277C651.415 95.6635 650.42 95.4052 649.425 95.1514C627.034 89.4432 603.855 86.3741 580.156 86.2256C580.155 86.2256 580.153 86.2246 580.151 86.2246ZM596.972 146.536C757.246 147.541 883.632 298.948 882.338 481.441C881.044 663.935 752.521 813.744 592.247 812.74C431.973 811.736 305.586 660.329 306.88 477.835C308.174 295.341 436.697 145.532 596.972 146.536ZM596.829 166.535C524.479 166.082 458.052 199.5 409.194 254.45C447.666 223.604 494.5 205.556 545.269 205.874C677.221 206.701 780.837 331.254 779.776 480.799C778.716 630.343 673.342 753.587 541.39 752.76C490.621 752.442 444.047 733.806 406.016 702.48C454.09 758.039 520.038 792.287 592.389 792.74C738.885 793.658 861.101 655.711 862.338 481.315C863.574 306.92 743.325 167.453 596.829 166.535ZM545.126 225.873C426.952 225.133 327.884 336.515 326.881 477.961C325.878 619.407 423.357 732.019 541.531 732.76C659.705 733.5 758.774 622.12 759.777 480.674C760.78 339.228 663.3 226.614 545.126 225.873ZM223.241 514.249C221.982 521.729 220.32 528.604 218.31 534.635C215.899 541.867 212.808 548.442 208.89 553.414C206.729 556.156 203.939 558.855 200.524 560.688L192.473 662.34C194.678 663.295 196.704 664.644 198.444 666.333C216.631 683.978 236.955 695.86 258.142 701.086L279.591 706.033C248.145 650.056 228.098 584.638 223.241 514.249ZM58.0293 559.313C57.378 560.235 56.6465 561.106 55.8379 561.915C54.4667 563.286 52.9155 564.436 51.2422 565.346C69.4809 610.332 100.724 641.326 133.625 649.523L159.885 655.059C156.929 650.8 154.082 646.414 151.354 641.908C137.544 619.092 126.613 593.062 119.291 565.012L58.0293 559.313ZM133.584 536.857C139.846 571.992 152.011 604.354 168.467 631.541C170.308 634.583 172.202 637.556 174.144 640.459L180.555 559.525C178 557.803 175.849 555.623 174.108 553.414C170.946 549.401 168.323 544.342 166.161 538.737L133.584 536.857ZM61.7012 422.929V539.569L114.655 544.494C110.704 523.874 108.672 502.374 108.828 480.425C108.98 458.999 111.176 437.979 115.176 417.78L61.7012 422.929ZM191.499 416.214C191.14 416.485 190.575 417.003 189.816 417.966C187.872 420.433 185.685 424.622 183.662 430.689C179.652 442.721 176.999 459.979 176.999 479.5C176.999 499.021 179.652 516.279 183.662 528.311C185.685 534.378 187.872 538.567 189.816 541.034C190.574 541.996 191.14 542.514 191.499 542.785C191.858 542.514 192.423 541.996 193.182 541.034C195.126 538.567 197.313 534.378 199.336 528.311C203.346 516.279 205.999 499.021 205.999 479.5C205.999 459.979 203.346 442.721 199.336 430.689C197.313 424.622 195.126 420.433 193.182 417.966C192.423 417.003 191.858 416.485 191.499 416.214ZM131.231 443.811C129.737 455.834 128.915 468.111 128.827 480.55C128.74 492.778 129.377 504.841 130.678 516.656L160.505 518.378C158.247 506.765 156.999 493.48 156.999 479.5C156.999 466.124 158.142 453.385 160.218 442.138L131.231 443.811ZM257.439 261.111C237.032 266.419 217.422 278.042 199.751 295.171C197.83 297.033 195.562 298.48 193.09 299.444L200.939 398.542C204.166 400.366 206.817 402.956 208.89 405.586C212.808 410.558 215.899 417.133 218.31 424.365C220.387 430.598 222.093 437.733 223.366 445.506C228.377 376.427 247.962 312.191 278.508 256.945L257.439 261.111ZM174.81 321.948C172.916 324.798 171.066 327.714 169.266 330.697C153.104 357.475 140.998 389.217 134.418 423.593L165.585 421.795C167.852 415.58 170.66 409.962 174.108 405.586C175.934 403.269 178.21 400.983 180.931 399.225L174.81 321.948ZM132.611 313.052C99.8147 321.539 69.0002 352.266 51.0078 397.115C53.7804 398.573 56.1679 400.663 57.9795 403.194L119.938 397.229C127.391 369.235 138.361 343.21 152.146 320.372C154.955 315.718 157.888 311.189 160.937 306.795L132.611 313.052Z" fill="black"/>
</svg>
