<svg height="960" viewBox="0 0 960 960" width="960" xmlns="http://www.w3.org/2000/svg"><path d="m522 5c90.574699 0 164 73.425301 164 164v485.676295c0 58.927192-1.294886 97.780481-4.906521 130.506863-4.421427 40.064219-12.504325 70.586435-26.525607 95.327048-15.951923 28.147236-39.289433 47.855593-70.414311 59.685695-27.314256 10.381742-60.503706 14.804099-103.653561 14.804099s-76.339305-4.422357-103.653561-14.804099c-31.124878-11.830102-54.462388-31.538459-70.414311-59.685695-14.021282-24.740613-22.10418-55.262829-26.525607-95.327048-3.575519-32.399118-4.880392-70.803218-4.906132-128.745055l-.000389-167.636907c0-4.568954.709765-8.84218 1.990592-12.782881l.010408-.030315-.001-306.988c0-89.668952 71.964138-162.52977904 161.28796-163.97802869l2.71204-.02197131zm101.708458 848.176686-1.523138.493445c-32.314303 10.359395-78.226519 14.858932-143.330186 14.858932-63.59022 0-108.820477-4.295581-140.965323-14.119273 21.690514 44.609985 63.356891 60.59021 142.610189 60.59021 79.982965 0 121.683714-16.275832 143.208458-61.823314zm-306.708864-614.004066.000858 247.750931c-1.333635.58838-2.000452 1.214262-2.000452 1.877645v165.875099c0 78.332648 2.211715 135.013727 13.643919 175.073817 29.049369 12.82544 76.194188 18.778951 150.211215 18.778951 77.311978 0 125.305211-6.485455 153.99771-20.552263 10.999724-39.950991 13.147156-96.114613 13.147156-173.300505l.001433-415.284157c-1.395568.268712-2.904596.529213-4.530448.783859-8.95404 1.402411-21.715935 2.653805-37.604765 3.706377-31.805839 2.107012-74.583989 3.319153-120.271703 3.345829l-1.541126.00045c-46.266148 0-89.649621-1.215593-121.812829-3.346279-15.88883-1.052572-28.650725-2.303966-37.604765-3.706377-2.064869-.323407-3.941308-.656257-5.636203-1.003377zm.000406-51.17162.000573 30.096239c.241794.195444.474294.401929.696734.618689l.091541.092487.143343.040991c1.643619.467509 4.130016.981283 7.335534 1.494212l.462809.073264c8.261218 1.293899 20.485769 2.492603 35.832052 3.509234 31.332916 2.075682 73.684904 3.275681 118.963465 3.302091l1.52734.000446c45.85278 0 88.805834-1.203533 120.490806-3.302537 15.346283-1.016631 27.570834-2.215335 35.832051-3.509234 3.316852-.519496 5.901555-1.042162 7.625502-1.519002l-.000063-30.506915c-2.694112.898104-6.104093 1.694378-10.298233 2.442492-8.673145 1.54704-20.998198 2.923415-36.332125 4.080278-30.635466 2.311284-71.818609 3.640612-115.800233 3.670525h-3.03541c-43.981624-.029913-85.164767-1.359241-115.800233-3.670525-15.333927-1.156863-27.65898-2.533238-36.332125-4.080278-4.737131-.844969-8.473919-1.751373-11.308758-2.796547zm164.5-14.001-1.560007.000556c-34.119784.024341-66.414687.846508-93.109997 2.286273 26.964454 1.455411 59.470231 2.27417 93.721741 2.297437h3.003308c34.017825-.023109 66.313656-.830891 93.169579-2.267183-27.189984-1.479485-60.275995-2.317083-95.224624-2.317083zm40.5-129h-81c-67.297338 0-122.073272 53.6105011-123.950272 120.453973.41298-.056207.831246-.096461 1.264622-.126368.178318-.012306.342888-.022959.501381-.031936l.23414-.012207.230778-.009677c.192512-.007006.387514-.011359.599989-.013018l.404561-.000064c.812041.005411 1.929982.042279 3.942687.112299 5.37861.187116 8.794874.113288 12.680593-.455409.476611-.069755.937838-.129142 1.59201-.207997.752415-.090697 1.193012-.143922 1.497902-.182611l-.000794-4.526985c0-51.362482 41.639921-93 93.002403-93h99c51.362482 0 93 41.637518 92.999999 92.995625l.002984 4.605127c.290434.032191.551344.061083.639726.071064.798018.090125 1.392463.164749 1.976768.253326 3.611952.547546 6.892532.623594 12.247559.453773 1.926748-.061102 3.039002-.09397 3.860126-.098191l.278573-.0003c.22349.000742.427123.003967.624213.009685l.244341.008463c.283335.011395.564569.02812.885218.050206l.188152.01331c-1.924592-66.8007101-56.681161-120.362088-123.947659-120.362088zm10 42h-99c-39.16284 0-71.122829 30.83907-72.920264 69.559959.780212-.069237 1.594474-.137435 2.443332-.204326 8.021699-.632124 19.24753-1.152057 33.188632-1.564481 20.417058-.604003 46.320056-.960128 72.322268-1.054721l3.120397-.010095c3.640215-.010311 7.27815-.015485 10.899026-.015485 47.518776 0 91.714409 1.519402 122.914288 4.113757l-.006698-.234255c-1.25839-38.801381-32.797031-69.9489486-71.753793-70.5805731z"/></svg>