<svg height="960" viewBox="0 0 960 960" width="960" xmlns="http://www.w3.org/2000/svg"><path d="m696 21c51.362482 0 93 41.6375183 93 93v702.367251c0 48.824421-37.756062 89.336059-86.459594 92.769731l-408 28.764616c-12.592641.8878-25.073662-.777544-36.791843-4.847903l-17.066225-4.850198.008871-.03121c-38.379441-9.881902-66.663734-43.298729-69.466364-83.52987-.149851-2.15108-.224845-4.306721-.224845-6.463015v-721.179402c0-47.6523234 35.972892-87.3783034 82.939209-92.3997146l-.005522-.0425762 22.859999-2.9647608c.879876-.1141129 1.755903-.1988786 2.616872-.1920606 2.84705-.269079 5.712939-.4008878 8.589442-.4008878zm0 40h-408c-1.895766 0-3.768285.0995335-5.612615.2936598-.150844.0158777-.301327.0323685-.451619.0494879l-.845106.1031357c-26.006512 3.3858119-46.09066 25.6243122-46.09066 52.5537166v731.131866c0 1.243598.04377 2.48681.131228 3.727328 1.507261 21.379121 15.495407 38.899718 34.341054 45.942532l.667125.244201.716097.250865c.237287.081213.475296.16078.714013.238688.084256.027499.168811.054858.253454.082009l-.253454-.082009c.255995.083547.512804.165187.770409.244904l-.516955-.162895c.250669.080408.50211.158989.754305.23573l-.23735-.072835c.237344.073446.475363.14526.714045.215429l-.476695-.142594c.259146.078855.519088.155767.77981.230719l-.303115-.088125c.274906.080819.550689.159456.827329.235892l-.524214-.147767c.244583.070313.48985.138901.735788.205751l-.211574-.057984c.234023.064662.468659.127748.703894.189248l-.49232-.131264c.271068.073681.542949.145251.815625.214693l-.323305-.083429c.604843.15813 1.21365.305773 1.826199.442736.065943.014745.131827.029343.197755.043818l-.197755-.043818c.242907.054313.486403.106947.730473.157889l-.532718-.114071c.326525.07169.654103.140347.982702.205942l-.449984-.091871c.227291.04744.45508.093413.683356.137909l-.233372-.046038c.247084.049324.494745.096916.742969.142764l-.509597-.096726c.307678.059973.616241.117264.925662.171849l-.416065-.075123c.211905.039141.424219.07701.636935.113601l-.22087-.038478c.293243.051731.587257.101031.882017.14788l-.661147-.109402c.272408.04686.545473.091623.819178.134273l-.158031-.024871c.58154.092429 1.165987.175318 1.753161.24851.08955.011162.17842.022009.267352.032633l-.267352-.032633c.244641.030495.489756.059307.735331.086425l-.467979-.053792c.315597.037704.631972.072608.949098.104688l-.481119-.050896c.261549.028881.523621.05584.786199.080864l-.30508-.029968c.230947.023363.462292.045227.694024.065584l-.388944-.035616c.28502.027162.570637.052044.856832.074627l-.467888-.039011c.267709.023518.535934.045024.804659.064505l-.336771-.025494c.2728.021527.546124.040966.819955.058301l-.483184-.032807c.263173.019078.526826.036213.790943.051392l-.307759-.018585c.276659.017515.553836.032883.831511.046088l-.523752-.027503c.27001.015518.540504.028991.811468.040405l-.287716-.012902c.363008.017264.726869.030833 1.091544.040671l-.803828-.027769c.293005.012342.586558.022277.880638.029786l-.07681-.002017c.266014.007176.532461.012368.799326.015562l-.722516-.013545c.335299.008561.671284.013969 1.007922.016196l-.285406-.002651c.535486.006407 1.072653.004769 1.611374-.005024l-.464692.006431c.274125-.002603.548665-.007318.823601-.014157l-.358909.007726c.270898-.004924.542188-.01191.813856-.020973l-.454947.013247c.283956-.007063.568336-.016393.853121-.028006l-.398174.014759c.25205-.008408.504423-.018602.75711-.030595l-.358936.015836c.268377-.010944.537115-.023914.806197-.038925l-.447261.023089c.411931-.019551.824693-.043879 1.238228-.073034l408-28.764615c27.755776-1.956825 49.272672-25.044102 49.272672-52.868772v-702.367251c0-29.2710917-23.728908-53-53-53zm5 8c24.852814 0 45 20.1471863 45 45v702.367251c0 23.62472-18.269062 43.227125-41.835287 44.88858l-408 28.764615c-24.791278 1.747822-46.30547-16.932589-48.053293-41.723867-.074257-1.053271-.11142-2.108828-.11142-3.164713v-731.131866c0-24.8528137 20.147186-45 45-45zm0 20h-408c-13.807119 0-25 11.192881-25 25v731.131866c0 .586603.020646 1.173024.0619 1.758174.971013 13.772932 12.923341 24.150938 26.696274 23.179926l408-28.764615c13.092347-.923031 23.241826-11.813256 23.241826-24.9381v-702.367251c0-13.807119-11.192881-25-25-25zm-481.046709-1.4859966-.224231.336241c-5.517527 8.3628001-8.72906 18.3812306-8.72906 29.1497556v721.179402c0 1.228856.042738 2.457339.128137 3.683224.537061 7.709386 2.697301 14.918443 6.123572 21.316541-1.055581-4.163473-1.758268-8.478169-2.070961-12.913434-.120461-1.708638-.180748-3.420987-.180748-5.133867v-731.131866c0-9.342464 1.754995-18.2750279 4.953291-26.4859966zm384.046709 705.6329866c0 4.142136-3.357864 7.697532-7.5 7.941199l-8 .470612c-4.142136.243668-7.5-2.916665-7.5-7.058801s3.357864-7.697531 7.5-7.941199l8-.470612c4.142136-.243667 7.5 2.916666 7.5 7.058801zm80.50006-163.318178v26.274974c0 12.872463-10.44269 23.669419-23.393344 24.456528l-73.517722 4.468517c-.015009.000872-.030028.00171-.045055.002516l-87.463967 5.316042c-.010676.000611-.021356.001204-.032041.001781l-87.47899 5.316882c-.005339.0003-.01068.000595-.016021.000886l-73.446204 4.463757c-13.478328.819181-24.606656-9.632794-24.606656-23.130695v-27c0-13.03878 10.411623-24.039262 23.435324-24.775854l73.464573-4.155249c.023989-.00142.048002-.002755.072037-.004005l87.410918-4.943784c.033637-.002048.067319-.003929.101046-.005644l87.409974-4.943833c.027649-.001653.055329-.003193.083039-.004621l73.458413-4.154493c13.399187-.757829 24.564676 9.476339 24.564676 22.816295zm-282.50106 11.803188-62.934264 3.560234-.453408.050094c-2.244116.369198-4.111268 2.484053-4.111268 4.757672v27c0 1.966072 1.407699 3.288215 3.393344 3.167532l64.105596-3.896532zm87.5-4.949-67.5 3.818v34.554l67.5-4.102zm87.5-4.949-67.5 3.818v34.185l67.5-4.102zm84.065736-4.753394-64.065736 3.622394v33.816l62.894404-3.821848c2.513319-.152754 4.606656-2.317107 4.606656-4.493366v-26.274974c0-1.708766-1.370538-2.964986-3.435324-2.848206zm23.435324-83.761894v26.274975c0 12.89846-10.482124 23.664612-23.46129 24.364829l-73.428722 3.961495c-.035285.002123-.070619.004064-.106002.00582l-87.4321 4.716964c-.01099.000619-.021986.001221-.032986.001806l-87.455974 4.718128c-.016989.000977-.033989.001911-.051.002803l-73.493216 3.964657c-13.454689.725871-24.53871-9.760175-24.53871-23.230189v-27c0-13.064357 10.450704-24.034771 23.503318-24.683872l73.391566-3.649458c.044899-.00268.089877-.005063.134933-.007148l87.36807-4.344368c.04224-.002509.084552-.004755.126932-.006737l87.394122-4.345829c.030263-.001733.060562-.003332.090897-.004796l73.49348-3.654584c13.375853-.665175 24.496682 9.603994 24.496682 22.915504zm-282.50106 9.939288-63.002258 3.133444-.447879.046278c-2.216.348088-4.048803 2.412638-4.048803 4.662278v27c0 1.993959 1.452006 3.36763 3.46129 3.259231l64.03765-3.455231zm87.5-4.352-67.5 3.357v34.562l67.5-3.642zm87.5-4.351-67.5 3.357v34.192l67.5-3.641zm83.997742-4.176477-63.997742 3.182477v33.823l62.96235-3.396442c2.484807-.134053 4.53871-2.24361 4.53871-4.393871v-26.274975c0-1.737211-1.415198-3.04403-3.503318-2.940189zm23.503318-83.66991v26.274974c0 12.924604-10.521884 23.659748-23.529312 24.272671l-322 15.172964c-13.430658.632867-24.470688-9.886946-24.470688-23.329222v-27c0-13.090073 10.490112-24.030225 23.571382-24.591428l321.999999-13.814212c13.352135-.572824 24.428619 9.73103 24.428619 23.014253zm-282.50106 8.075387-63.070321 2.706192-.442393.042536c-2.188059.327334-3.986226 2.341741-3.986226 4.567272v27c0 2.021697 1.495997 3.447201 3.529312 3.351389l63.969628-3.014389zm87.5-3.754-67.5 2.896v34.568l67.5-3.181zm87.5-3.754-67.5 2.896v34.199l67.5-3.181zm83.929679-3.60002-63.929679 2.74202v33.83l63.030372-2.969575c2.456545-.115755 4.470688-2.170721 4.470688-4.294838v-26.274974c0-1.7655-1.459543-3.123234-3.571381-3.032633zm23.571381-83.577467v26.274974c0 12.950894-10.561972 23.654818-23.597399 24.180051l-322 12.974256c-13.406245.540174-24.402601-10.013109-24.402601-23.427794v-27c0-13.115928 10.529846-24.025617 23.639505-24.498522l321.999999-11.615504c13.32804-.480782 24.360496 9.857448 24.360496 23.112539zm-282.50106 6.211487-63.138444 2.278478-.43695.038866c-2.160301.306933-3.923546 2.271364-3.923546 4.472656v27c0 2.049288 1.539671 3.526921 3.597399 3.44401l63.901541-2.57501zm87.5-3.156-67.5 2.435v34.574l67.5-2.72zm87.5-3.157-67.5 2.435v34.205l67.5-2.72zm83.861555-3.024026-63.861555 2.303026v33.835l63.098459-2.541247c2.428546-.097852 4.402601-2.098439 4.402601-4.196266v-26.274974c0-1.79363-1.503571-3.202588-3.639505-3.125539zm2.151308-228.496495c9.388841 0 17 7.611159 17 17v69.127516c0 9.260229-7.411545 16.817057-16.67003 16.996797l-327.224205 6.352611c-.098984.001922-.138578.00269-.190055.002998l-.139914.000205c-9.388841 0-17-7.61116-17-17v-73.011355l.086881-1.729125c.861823-8.529078 8.029995-15.20434 16.784864-15.270392l327.224205-2.469255zm-3 20.022719-321.224204 2.423504v66.975097l321.224204-6.236129z"/></svg>