<svg height="960" viewBox="0 0 960 960" width="960" xmlns="http://www.w3.org/2000/svg"><g fill="#000"><path d="m689.935105 1c45.039197 0 81.55068 36.511483 81.55068 81.5513378l-.000128 7.7188215 44.514343.0001756c70.692448 0 128 57.3075521 128 128.0000001l.004199 369.600143c-11.932839-13.934042-25.348406-26.560711-40.002221-37.635524l-.001978-200.513467h-851v481.278513c0 48.601058 39.398942 88 88 88l417.749042.00507c12.930998 14.96212 27.579202 28.398899 43.638313 40.004036l-461.387355-.009106c-70.692448 0-128-57.307552-128-128v-612.729665c0-70.692448 57.307552-128.0000001 127.999839-128.0000001l43.462412-.0001738.000048-7.7194812c0-45.0391969 36.511483-81.5506799 81.55068-81.5506799s81.55068 36.511483 81.55068 81.5512321l-.000106 7.7187686h260.820803l.000069-7.7193208c0-45.0391969 36.511483-81.5506799 81.55068-81.5506799zm-443.032756 739.45933c14.911688 0 27 12.088312 27 27v60.476077c0 14.911688-12.088312 27-27 27h-60.658838c-14.911689 0-27-12.088312-27-27v-60.476077c0-14.911688 12.088311-27 27-27zm175.669962 0c14.911689 0 27 12.088312 27 27v60.476077c0 14.911688-12.088311 27-27 27h-60.658838c-14.911688 0-27-12.088312-27-27v-60.476077c0-14.911688 12.088312-27 27-27zm-175.669962-169.088517c14.911688 0 27 12.088312 27 27v60.476077c0 14.911688-12.088312 27-27 27h-60.658838c-14.911689 0-27-12.088312-27-27v-60.476077c0-14.911688 12.088311-27 27-27zm175.669962 0c14.911689 0 27 12.088312 27 27v60.476077c0 14.911688-12.088311 27-27 27h-60.658838c-14.911688 0-27-12.088312-27-27v-60.476077c0-14.911688 12.088312-27 27-27zm89.319866 95.730394-.063125-.212491c-.809228-2.565825-1.245616-5.297122-1.245616-8.130343v-60.476076c0-14.911689 12.088312-27 27-27l35.95265-.003555c-27.233096 26.599014-48.510402 59.269173-61.643909 95.822465zm-89.319866-264.81891c14.911689 0 27 12.088311 27 27v60.476076c0 14.911688-12.088311 27-27 27h-60.658838c-14.911688 0-27-12.088312-27-27v-60.476076c0-14.911689 12.088312-27 27-27zm175.669963 0c14.911689 0 27 12.088311 27 27v60.476076c0 14.911688-12.088311 27-27 27h-60.658838c-14.911688 0-27-12.088312-27-27v-60.476076c0-14.911689 12.088312-27 27-27zm175.669963 0c14.911689 0 27 12.088311 27 27v60.476076c0 4.902372-1.306545 9.499583-3.59042 13.462419-15.01886-2.774433-30.501431-4.220792-46.321817-4.220792-20.432725 0-40.301946 2.412652-59.338321 6.968616-3.394648-4.508494-5.40828-10.124214-5.40828-16.210243v-60.476076c0-14.911689 12.088312-27 27-27zm-446.349237-272.013297.000659 48.771229c0 33.993502-27.557178 61.55068-61.55068 61.55068s-61.55068-27.557178-61.55068-61.55068l-.000299-48.771229-63.462.001335c-48.601058 0-88 39.398942-88 88v111.451152h851v-111.451152c0-48.601058-39.398942-88-88-88l-64.515-.001335.000785 48.771229c0 33.993502-27.557178 61.55068-61.55068 61.55068s-61.55068-27.557178-61.55068-61.55068l-.000425-48.771229zm-61.550021-89.269c-22.947807 0-41.55068 18.602873-41.55068 41.5506799v96.4895491c0 22.947807 18.602873 41.55068 41.55068 41.55068s41.55068-18.602873 41.55068-41.55068v-96.4895491c0-22.9478069-18.602873-41.5506799-41.55068-41.5506799zm423.922126 0c-22.947807 0-41.55068 18.602873-41.55068 41.5506799v96.4895491c0 22.947807 18.602873 41.55068 41.55068 41.55068s41.55068-18.602873 41.55068-41.55068l-.000785-48.771229.000785-47.7183201c0-22.9478069-18.602873-41.5506799-41.55068-41.5506799z"/><path d="m719.470384 585.109702c-55.389863 14.763662-97.445582 71.405905-91.02458 129.164487.87161 40.014802 28.501263 71.167884 49.094215 103.052768 8.743011 12.789528 8.574736 28.580785 10.221687 43.36852 3.980981 5.016199 13.221093 7.658857 11.53594 15.230504-.010186 15.775296-.018838 31.550653-.027148 47.325949 13.025266 13.796581 27.440885 27.348644 44.244104 35.870785 22.003273 2.632972 40.572929-12.611697 53.965867-28.411409 6.104702-5.670357 14.224653-11.055878 4.340384-17.039702 2.52792-4.370901 9.36954-8.612903.798152-12.934468-3.308586-3.847418 9.492071-9.718305 1.557782-12.708271-8.902755-3.7118 8.963969-8.58199 1.020664-13.121055-3.931183-7.46099 15.525614-10.596077 11.671218-22.483014.12848-30.933846 23.775881-53.291613 38.225748-78.42693 18.203718-28.277709 28.981401-63.397199 18.730125-96.607205-13.070486-53.824035-64.500768-98.294527-121.107787-95.875548-11.147131.094979-22.431838.699433-33.246371 3.594589z" fill-rule="evenodd"/></g></svg>