<svg height="960" viewBox="0 0 960 960" width="960" xmlns="http://www.w3.org/2000/svg"><path d="m432.569737 73.4273112c60.979516-10.3163563 126.223782-14.5820144 195.723695-12.842612 47.097019 1.178716 90.132308 6.7680952 127.824472 15.4969235l2.456173.5750751 2.649275.6349918 2.622664.6439851 1.732961.4340201 2.575176.6576256 1.699997.442552 2.523772.6695807 2.491051.6759447 1.641825.4538657 1.626238.4562447 1.610233.4584439 1.59381.4604633 2.359008.6940881 1.550925.4647252 2.292722.6996383 1.505429.4678636 1.4865.4688043 1.467153.4695652 1.447389.4701463 1.427205.4705476 2.102053.7061808 1.374921.4707644 2.021669.7056632 1.971558.7045437 1.285837.4687741 1.262522.4678271 1.238788.4667002 1.214637.4653937 1.190068.4639072 1.165082.4622411 1.139678.4603951 1.113855.4583693 1.087616.4561638 1.060959.4537784 1.033883.4512134 1.006391.4484684 1.218689.5564517 1.174264.5515307.906875.4374454.877503.4338916.847713.4301579.817504.4262443.786878.4221511c47.52898 25.8797154 80.640548 68.2743824 102.289148 121.8106654 13.892778 34.356387 21.397192 67.619384 26.351238 105.142741l.223441 1.70856.430338 3.384477.218526 1.79473.214636 1.851072.21075 1.90746.20687 1.963896.202995 2.020377.199127 2.076906.195264 2.133481.191406 2.190103.230289 2.773309.15029 1.896605.074175.962631.21865 2.945252.212846 3.031353.257911 3.910403.248878 4.045244.129049 2.212656.250419 4.540622.091272 1.742405.178239 3.549788.172506 3.636498.166786 3.723296.161074 3.810179.155374 3.89715.149684 3.984208.144004 4.071353.138334 4.158585.132675 4.245903.127026 4.333309.121388 4.420801.115759 4.508382.110142 4.596047.104534 4.683801.098937 4.771641.137934 7.322353.084989 4.991622.079429 5.079767.073878 5.167999.068338 5.256317.092142 8.050263.054532 5.477494.049029 5.566116.043535 5.654826.055025 8.648761.029847 5.87698.024389 5.965995.026373 9.116084.014153 9.316854.001967 9.517918-.009893 9.387711.044038 3.412061c1.304956 121.179047-24.331426 210.293146-79.919252 265.821502l-1.69365 1.672396-1.747135 1.685322c-41.917294 39.958569-95.571878 61.926681-161.867473 72.190033l-2.985407.453324-2.888957.425392-1.904381.273588-1.889344.265791-1.876223.258175-2.793924.373374-2.775178.357247-1.842898.229505-2.758306.331716-1.837637.213046-1.838885.206777-2.764859.298803-2.778444.285708-1.863037.183497-1.873865.178125-1.886609.172934-1.901268.167922-2.88358.24288-1.946299.156179-1.967664.151796-1.990945.147593-3.034262.213901-3.097421.205454-3.167046.197614-3.243139.190379-2.207558.1232-2.246167.120433-3.445833.175858-3.543478.170643-3.647589.166037-3.758168.162037-5.194077.210873-4.04133.155059-7.032369.254332-7.429339.25164-22.650638.721569-11.832604.431285-3.080508.103113-4.534816.136031-2.968042.078268-2.925611.068334-3.599568.071457-3.538403.055949-1.398873.01804-1.389725.01556-2.752738.023682-2.718336.017629h-5.33931l-2.623894-.021997-2.595332-.025849-2.568232-.035745-1.27441-.021582-2.530318-.050583-1.256274-.028999-1.250593-.03147-2.484877-.070354-2.464347-.080234-2.445275-.09011-2.427666-.099984-3.012041-.138859-2.989658-.154274-2.377527-.134514-2.366486-.144371-1.17956-.075881-2.352663-.159152-2.345274-.169001-2.339344-.178846-1.167904-.093114-1.166969-.095575-2.331864-.198527-1.16526-.102952-1.165054-.105411-2.330224-.218194-2.331595-.228023-1.166767-.117696-2.336387-.242759-3.514451-.382549-2.351676-.267301-2.360346-.277113-2.370477-.28692-2.382068-.296724-2.395118-.306525-2.409629-.316322-2.4256-.326116-2.443031-.335906-2.461922-.345693-2.482272-.355476-2.504084-.365256-14.520958-2.146132-2.828114-.404621-2.059641-.287337-2.0389-.277483-1.970472-.260525-1.914923-.245063-45.941152-5.482807-8.718089-1.064056-10.646076-1.317992-6.26312-.78605-8.216782-1.044509-8.075356-1.042516-7.946766-1.042785-5.883412-.783624-6.929416-.93649-5.979196-.820987-4.394136-.611664-5.736965-.810085-5.595921-.803804-5.452966-.797482-6.612265-.987907-3.857157-.587944-2.525022-.389952-4.937575-.775058-3.603828-.577035-4.564315-.745999-2.067811-.344021-4.034379-.683167-3.899102-.676854-1.898716-.336129-1.864767-.334635-2.733406-.499212-2.656782-.496006-2.580013-.492896-2.503101-.48988-2.426042-.486958-2.34884-.48413-1.522932-.32123-1.488512-.320042-1.454049-.318884-1.419544-.317753-1.384997-.316651-1.350405-.315576c-10.717592-2.532865-20.587044-5.353479-29.655896-8.431558-14.77477-5.014736-27.036258-10.566338-37.203729-16.494884-3.951761-2.304231-7.405059-4.557967-10.553117-6.822954-.888135-.639003-1.67028-1.218736-2.47921-1.832361l-1.092528-.835418-.734062-.521609c-39.881222-28.564889-68.5613769-69.227619-85.8556993-120.770505l-.5205851-1.565235-.5240231-1.604036c-17.6683308-54.577565-24.6359924-126.796151-21.50601-217.258079l-10.753655.000338c-15.463973 0-27.99999999-12.536027-27.99999999-28 0-15.309333 12.28656009-27.748987 27.53696879-27.996249l.4630312-.003751 12.7766818-.001225c3.5173798-87.961748 13.0646588-154.785283 29.2463338-201.413432l.4923851-1.406794.5622983-1.577614c14.8449006-41.249462 37.0794245-70.756104 67.1035425-90.349031 12.322512-8.041339 24.881183-14.002261 39.160604-18.770652l1.193966-.394625 1.713217-.552286 1.296085-.407228 1.305919-.401392 1.756924-.526353c1.324541-.391049 2.664646-.773831 4.021359-1.148971l1.362287-.372616 1.834008-.489136 1.854654-.480654.935242-.237249.940609-.235253 1.897598-.464678 1.919895-.457184.96848-.225884.974262-.224135 1.96614-.443182 1.990087-.436675 1.004196-.216001 1.01039-.214497 2.039633-.424648 1.029382-.210233 2.078238-.416492 1.048994-.206341 2.118079-.409075 2.145329-.404543 2.173128-.40034 2.201478-.396464 3.095354-.545012 2.106598-.364043 3.224464-.547124 3.301973-.548404 3.379513-.549695 4.626689-.73495 2.365083-.368348 3.612322-.553623 3.689989-.55495 3.767687-.556289 3.845416-.5576369 3.923178-.5589937 4.000971-.5603606 4.078795-.561737 5.559509-.7511404 4.260509-.564986 7.27404-.9447778 2.970262-.3790165 6.044536-.7599436 4.624452-.5716406 6.287394-.7644497 4.806682-.5750464 6.530482-.7690254 8.358595-.9650055 5.119475-.5810062 6.947737-.7770318 5.302172-.5845537 7.191448-.7817966 7.330814-.7845506 7.470255-.7873274 4.949686-.5359711 5.392681-.6023808 3.59861-.414886 4.681259-.5588939 3.679288-.4583157 2.829766-.3670563 2.108405-.2837722 2.44039-.342214 1.847947-.2715293 1.809181-.2794508.816226-.1316679 1.11023-.1863561.590547-.1040325.820145-.3590352.82781-.350774.421558-.1741348.859117-.3461173.437835-.1721231.892915-.3427273.916832-.3411709.941857-.3401777.967988-.3397473 1.503404-.5100456 1.038164-.3411345 1.068172-.3426745 1.099289-.3447777 1.131512-.3474436 1.164844-.3506727 1.199282-.3544646 1.234828-.3588196 1.921315-.5476264 2.007524-.5605918 2.817262-.7709081 2.206754-.5938312c1.207642-.3229787 2.429759-.5891678 3.66233-.7976909zm193.327182 27.1110928c-60.962914-.5769259-118.262699 3.707426-171.901189 12.844403l.471236-.080841-1.924007.524429-1.503406.416079-2.156934.608516-1.492202.430214-1.463805.430765-.910961.273045-1.296785.396398-1.635362.515641-.745399.241969-.704713.233612-.663293.224874-.680099.235492-.790762.2851-.544238.2019-.484.187-.774.314-.334.145-.273.124-.201.096-.167.087-.281449.166482-.260971.148136-.347355.183734-.350089.172495-.352136.161153-1.092574.540342c-58.851378 29.460073-93.035906 85.638191-102.582134 169.780414l-.281738 2.558325-.269272 2.601554c-11.897267 118.723541-11.916939 243.901555-3.234811 339.70169l.265755 2.894006.221224 2.371455.454154 4.805316.229097 2.375293.457152 4.613702.343094 3.346636.344378 3.255072.346641 3.168763.349884 3.08771.354105 3.011915.238898 1.96843.241499 1.938636.244391 1.9104.372641 2.816064.252887 1.846623.256793 1.823839.26099 1.802611.265475 1.78294.40726 2.640937.418985 2.605438.286321 1.719835.292258 1.707951.298484 1.697625.305 1.688858.311806 1.681647.318904 1.675993.326289 1.671898.333966 1.669359.341933 1.668379.350189 1.668954c4.79519 22.591717 11.505768 42.449169 20.866844 60.306519 22.226691 42.400019 59.10738 72.731915 116.309058 90.185925l1.07814.325912 1.885207.244056 2.176653.272156 2.209147.267511 2.243499.262348 1.13521.129076 1.144494.127591 2.317765.250467 1.173735.122747 2.378335.240196 1.205064.11732 2.443079.228759c4.931021.449419 10.134932.849204 15.678518 1.1807l1.393012.081441 2.829411.154086 2.888806.141927 1.804062.080899 1.827586.075999 1.851538.07098 1.875921.065841 1.900732.06058 2.89856.080747 1.964641.046907 1.990957.041228 3.036714.050929 3.09834.037476 2.100511.01731 2.128974.01554h3.247768 1.097286l2.216939-.010294 2.24712-.015286 2.277729-.022166 3.474928-.04641 3.546216-.062562 2.404465-.050882 2.437223-.058362 2.470409-.06596 2.504026-.073679 2.538072-.081518 2.572548-.089477 6.194075-.231619 1.206077-.043126 4.875436-.166284 4.954446-.159186 12.707316-.391894 7.826004-.250011 5.293576-.180803 3.544481-.128443 3.568337-.13649 3.591103-.14565c.600354-.0251 1.201611-.050628 1.803749-.076607l3.623211-.161476 3.643254-.173418 3.662208-.186472c3.059434-.161142 6.137477-.337042 9.231291-.530596l3.719965-.240926c49.69563-3.330284 103.138131-11.47706 148.706109-36.309626-13.416264 5.524153-27.795517 10.023662-43.149832 13.610997l-2.134705.491509-2.427236.543098-.97018.21258-1.939771.417286-.969821.204746-1.940088.401802-1.941454.391683-.971527.192098-1.94523.376811-1.9489.367101-.976115.17996-1.956134.352842-1.962111.34354-1.969009.3344-1.976829.325426-1.985571.316613-1.995236.307965-1.00153.15079-2.011462.295297-2.023432.287057-2.036324.27898-2.050139.271065-1.030538.132616-2.072589.259501-2.08871.251995-2.105752.244653-2.123716.237474-2.142602.230458-2.162411.223605-2.183143.216917-2.204795.21039-2.22737.204028-2.250869.197829-2.275287.191792-2.30063.18592-2.326894.180211-2.35408.174665-2.382189.169282-2.411219.164062-2.441172.159007-2.472047.154114-3.767979.222353-3.842635.212264-3.920404.202724-2.658344.130122-2.695213.126291-2.733005.122623-2.771719.119119-4.232184.172463-4.324477.165496-5.059062.18164-5.3339.180247-7.883025.249187-12.831197.39156-5.023646.159698-4.946951.166941-2.47042.088338-4.126823.154494-1.69098.060498-3.353157.111364-.802812.024922-4.077722.115941-.780379.020121-3.96959.091757-1.527837.03048-3.090358.053268-1.497344.021654-1.495346.018868-1.482519.015931-2.953466.02338-2.884961.013582h-4.232023l-2.715925-.020091-3.374304-.03386-3.318536-.050015-1.267483-.023612-2.583439-.056003-2.515553-.064851-2.471316-.073922-2.435848-.082934-1.167118-.043428-2.388417-.096359-2.88318-.12984-2.853882-.143708-2.235007-.123101-1.068397-.062266-2.195339-.134874-2.136382-.140254-2.101877-.14681-2.068417-.153112-2.036007-.159156-2.004652-.164946-1.974354-.170486-1.945118-.175775-1.916946-.180814-1.889844-.185608-1.863813-.190157-1.837787-.194384-2.724788-.300448-1.771305-.203041-1.758148-.207481-3.479634-.427056-1.685152-.21438-2.529853-.330515-3.317765-.447796-2.441584-.338781-.705267-.099778c-.382551-.054122-.761537-.130353-1.13506-.228275l-.371631-.105135-.801797-.243875-4.146807-1.229316c-46.616401-13.925808-80.160095-36.888698-102.458259-68.155018-13.962434-19.57802-23.495541-41.887286-29.876774-67.625365l-.181025-.733819-.355642-1.463939-.347309-1.460041-.339228-1.457388-.494238-2.183823-.320123-1.45619-.46676-2.187853-.302588-1.46276-.296015-1.467564-.289692-1.47361-.28362-1.4809-.277799-1.489431-.27223-1.499207-.266913-1.510226-.261845-1.522486-.25703-1.53599-.377065-2.332025-.246089-1.575188-.361833-2.396648-.23672-1.622155-.233412-1.643117-.230354-1.665321-.227549-1.688769-.224994-1.713459-.333251-2.619203-.219707-1.780624-.218031-1.809664-.432041-3.711424-.214513-1.904244-.32059-2.92053-.31993-3.001252-.320116-3.086171-.321152-3.175285-.444761-4.516736-.448482-4.66344-.218155-2.29813c-8.838383-93.357293-8.926331-215.94249 2.931831-332.233958 8.242045-80.828684 40.251413-136.700488 97.103349-166.272259l1.730391-.888063 1.682938-.840336 1.391738-.675563 2.357635-1.117273c.179556-.08509.361587-.164801.545851-.239029l.27804-.107218 1.295946-.477686.223643-.079433.572961-.195589.639259-.213028.681535-.222064.719915-.229493 1.596424-.494654 1.265094-.380262.887999-.261593 1.43432-.414783 1.461612-.414108 2.118979-.587534 1.474639-.401097 1.323642-.353803c.31123-.083191.626299-.151293.944103-.204069 57.940929-9.621858 120.138211-13.596857 186.614575-11.950562 42.843755 1.06103 81.937722 5.930297 115.94679 13.468466l1.519391.339309 2.343358.53376 1.54817.359826 2.300084.545253 1.517982.366907 2.252794.555003 2.222491.560015 1.464112.375817 2.168776.566973 2.134618.570311 1.403388.381751 1.387136.382769 1.370457.383601 2.023471.576555 1.326881.384867 1.308701.385048 1.290093.385043 1.899313.577147 1.855034.576088 1.809311.574402 1.762141.572087 1.713527.569144 1.114628.377485 1.629288.562844 1.778965.627312c-2.65764-1.658646-5.386126-3.252922-8.187418-4.778236-12.195608-6.640557-74.581583-29.790895-173.35122-32.693988l-3.004141-.081737zm-236.219059 24.168256-1.789705.216613-4.243137.494771-5.3007.597218-5.678027.618741-6.386839.67344-7.270516.775026-5.360881.579248-7.02517.769635-6.884973.766553-5.071724.572894-4.992864.57116-6.534479.758852-6.394282.755771-7.7957.940381-4.572272.561918-5.973689.746528-5.833493.743447-7.094713.924977-2.776548.368643-4.099106.55152-4.020245.549787-3.941384.548054-5.132505.728043-4.992309.724962-3.652226.5417-3.573366.539966-4.641815.71726-3.389357.535923-3.310496.534191-3.231634.532457-2.110612.354009-3.100199.529568-3.021339.527836-2.466281.440452c-48.693438 8.799042-93.628327 23.47174-118.943687 93.815422-17.0473799 47.369482-26.7028558 122.320898-28.9664273 224.854248-5.0804295 97.362803 1.10858 173.008823 18.5670284 226.93806 14.6296109 45.190943 38.6737979 79.770103 72.1325619 103.737479l1.016784.723036.28724.210432 1.520214 1.16112 1.108844.824157.512879.371327.846288.599229.616754.426525.659802.44726.703705.467228.748465.486427.999829.633862 1.072776.661161.911865.547576.960477.563318 1.009945.578294 1.333299.742755 1.413603.763453.5883.31084.601523.313817 1.243142.636175c1.881612.950635 3.94158 1.936663 6.192429 2.946845l.853041.379928 1.581037.689158 1.096925.467118 1.124029.469663 1.151391.471976 1.179016.474054 1.206901.475898 1.235045.477509 1.263452.478886 1.292118.480028 1.321045.480937 1.350232.481612 1.379681.482054 1.40939.482261 1.43936.482235 1.469589.481974 1.50008.481481 1.530832.480752 1.561843.479791c.525812.159744 1.056836.319289 1.593116.478595l1.624649.477166c.273417.079396.548159.158722.824231.237974l1.672437.474583c.562829.157872 1.131022.315408 1.704622.47257l1.737068.470321c.292229.078187.585821.15627.880782.234245l1.786224.466511 1.81932.463679 1.852678.460612 1.886296.457313 1.629079.385402 1.377432.31719 1.417931.318566 1.457514.319871 1.496178.321106 2.314757.48382 2.396594.486203 2.475335.488348 1.69244.32664 2.599692.491396 1.772478.328452 1.802888.329054 2.759345.494554 2.822609.495512 1.915357.330756 3.907271.662191 2.993828.49696 3.044709.496968 2.056546.331199 4.460446.706894 2.262209.352937 4.582799.704427 4.653189.701923 2.350196.349809 2.36444.348926 4.767141.69486 4.810702.690298 4.84532.685051 4.870997.679117 6.111227.839507 6.119906.827824 4.890436.652946 7.305545.96229 4.83725.629107 4.800325.618369 4.754457.606947 7.026122.887501 9.12416 1.136951 8.779718 1.078908 8.363733 1.015377 11.609127 1.391934 2.424781.288112c-29.156095-18.65456-50.856225-42.813611-66.212467-72.107444-10.082628-19.233794-17.284669-40.341663-22.417749-64.042541l-.484651-2.274114-.363449-1.751968-.354739-1.750741-.346335-1.75113-.338237-1.753135-.330446-1.756754-.32296-1.761989-.315781-1.76884-.308907-1.777305-.30234-1.787386-.296078-1.799083-.290123-1.812394-.284473-1.827321-.27913-1.843863-.274092-1.862022-.269362-1.881794-.264936-1.903182-.260816-1.926186-.257004-1.950805-.253496-1.97704-.374339-3.018282-.246067-2.049692-.364629-3.134834-.360181-3.212033-.356766-3.294685-.354383-3.382788-.353033-3.476343-.352716-3.57535-.235479-2.441262-.45634-4.82846-.222587-2.385993c-9.063796-97.41923-9.166142-225.213211 2.982491-346.445152 7.607582-75.916513 34.162202-132.443992 79.673908-168.884766zm262.571518 7.855566c-64.415012-1.595245-124.627441 2.179672-180.661979 11.327375l-1.712399.281399-.805256.215881-1.3845.376551-2.017266.559284-1.355095.383932-1.334149.385825-.787294.231887-1.130415.339535-1.43447.444453-.581181.185363-.558438.181881-.5049.168154-.385036.131254-.77.283-1.870669.887049-1.144331.554951-1.593683.79575c-50.207241 25.421858-79.074991 73.991997-87.437523 146.85281l-.247134 2.21534-.236893 2.252821c-11.605205 113.810755-11.635979 233.812274-3.176859 325.546421l.258933 2.771134.216744 2.283344.446009 4.637738.429157 4.359438.306877 3.036898.407253 3.915685.304996 2.841643.407524 3.669388.307282 2.667453.206059 1.740171.416031 3.393989.210426 1.656109.319287 2.436283.215622 1.59394.218097 1.571077.332282 2.316257.225277 1.518938.344115 2.243421.233874 1.473962.358072 2.181332.367466 2.149236.377626 2.121011.388551 2.096653.26548 1.386148.270903 1.378188.276551 1.371375.282426 1.365707.435152 2.040445.148234.678556.454647 2.032901.311671 1.354393.318792 1.355031.326141 1.356816.333716 1.359746c5.812731 23.445081 14.368726 43.467718 26.747772 60.825524 19.630722 27.526052 49.427999 47.922992 91.956507 60.621421l1.292642.382444 2.943898.875063 2.295686.318674 3.238624.437138 2.454165.320595 1.60794.204601 3.389328.415987 1.678784.198065 1.695606.194406 2.637575.29084 1.756747.185786 1.789565.182587 1.813907.178156 1.839499.173515 1.866328.16866 1.894389.163586 1.923673.158289 1.954167.152763 1.985865.147005 2.018753.14101 2.052824.134772 2.127058.130628.995329.058012 2.166377.119375 2.220233.112907 1.042919.049771 2.263816.100854 2.320196.093555 1.094479.040728 2.368058.080678 2.388563.071448 2.433316.062734 3.121827.06606 3.201505.051369 1.233528.015513 2.681457.025614 2.6205.019485h4.111637l2.805632-.01327 2.893214-.022912 1.444862-.015562 1.448124-.018275 1.443139-.020843 3.786465-.066946 3.860739-.085868 1.509341-.038237 3.220808-.090182.782471-.023628 4.078435-.133747 1.64841-.058992 4.124032-.154395 2.514661-.089913 4.98274-.168144 5.055918-.160735 12.833012-.391617 7.850272-.248134 5.297231-.179021 2.104998-.074273 5.688313-.211011 4.157834-.165729 4.068251-.172708 2.663879-.119271 3.925608-.185488 3.84402-.193845 2.518834-.134129 2.484794-.138227 2.451642-.142477 2.419379-.146882 2.388004-.151439 2.357518-.15615 2.327919-.161014 3.438326-.250975 3.376728-.262782 2.218412-.182002 2.193255-.187632 2.168988-.193415 2.145608-.199352 2.123118-.205442 2.101516-.211685 2.080802-.218082 2.060976-.224632 2.042039-.231334 2.02399-.23819 2.006831-.2452 1.990558-.252363 1.975175-.259678 2.44869-.33512 2.427776-.34709 1.928329-.286491 2.394506-.36939 2.37845-.382197.947274-.156533 1.888118-.319433 1.880286-.328051 2.807688-.508572 1.864593-.350269 1.859871-.359423 1.856037-.368732.926859-.187904 1.851952-.382981.925315-.195116 2.312254-.498514 2.312163-.514075.925228-.210055c39.915388-9.115346 72.244182-24.555084 97.522929-48.40005 42.553275-40.139702 62.874512-111.736878 61.67995-216.861539l-.042784-3.19586.009612-12.828106-.002605-6.189396-.013929-9.134979-.015936-5.9716-.021272-5.885068-.026599-5.79604-.031887-5.701456-.057913-8.401752-.045137-5.475217-.077862-8.067876-.058445-5.257722-.063689-5.16475-.105623-7.59259-.117583-7.395137-.084694-4.801687-.137277-7.054957-.149202-6.857399-.105783-4.449074-.111101-4.363159-.116026-4.263021-.184288-6.244001-.196118-6.046104-.136728-3.904361-.142016-3.818656-.147082-3.727244-.191326-4.539579-.198308-4.376987-.164515-3.405272-.169388-3.31259-.1742-3.219541-.178942-3.126085-.185598-3.064485-.281942-4.338766-.197468-2.832429-.297503-3.975116-.205153-2.553755-.213-2.502352-.320853-3.502526-.100276-1.033454-.227736-2.242859-.100558-.947387-.232243-2.088693-.184707-1.567994-.145582-1.180087-.343699-2.684602-.16569-1.268081-.397451-2.979908c-.13587-1.002631-.273142-1.999282-.411919-2.990153l-.420954-2.955473c-4.327725-29.875103-10.15241-54.559717-20.40951-79.730574-15.688455-38.499369-38.808499-67.73645-71.129731-85.151045l-.225102-.120002-.596645-.307069-.644383-.316851-.549313-.260265-.578895-.266083-.608047-.271703-.636768-.277127-.665057-.282353-.692916-.287382-.720343-.292216-.747339-.296851-.773904-.30129-1.209723-.459827-.838431-.311526-1.304493-.474257-1.359414-.482029-1.41288-.489136-1.464893-.495578-1.51545-.501356-1.037668-.33712-1.05906-.339194-1.627758-.512254-1.673464-.515815-1.717717-.518713-2.35661-.694976-1.815314-.52289-1.232188-.349013-1.24927-.349119-1.26592-.349029-2.580065-.696997-1.975549-.521045-1.33551-.346183-2.029903-.517012-2.060575-.513707-1.390039-.340306-2.108463-.50672-1.420617-.335033-2.15231-.497886-2.934018-.660227c-32.757909-7.258782-70.559727-11.966037-112.085701-12.994432zm-224.151562 314.965c20.139465-127.155574 128.317713-216.146367 242.166666-198.114465 113.848953 18.031903 189.232913 136.096094 169.093448 263.251668-20.139464 127.155574-128.317712 216.146367-242.166665 198.114465-113.848953-18.031903-189.232913-136.096094-169.093449-263.251668zm239.037976-178.360698c-14.258264-2.258287-28.439836-2.631528-42.339451-1.285608 38.049843 18.713468 69.606403 49.474524 90.546284 88.120844l66.635943-2.22664c1.452633-.048549 2.862909.218898 4.151285.751361 3.693756 1.249265 6.412079 4.596145 6.75525 8.609721 4.887242 11.781137 9.202733 22.947112 12.946 33.50071l1.053933 2.998652c.346121.993998.687051 1.982444 1.02279 2.965341 4.68275 13.709039 7.755638 27.578062 9.211928 41.59437.61961 5.963535-4.10595 11.104609-10.059582 11.032902l-.27996-.007196-64.462445-2.535801c.554394 10.771666.363645 21.628476-.582475 32.504913l65.109434 8.294585c5.464869.696152 9.337397 5.681078 8.660592 11.148376l-.144771 1.157571-.295226 2.289639-.302822 2.25566c-.102209.746226-.205687 1.486793-.310438 2.221705l-.15808 1.098129-.321895 2.170823-.16382 1.072702-.165737 1.064232-.337237 2.103072-.344937 2.069234-.352654 2.035423c-.396133 2.242806-.806593 4.423048-1.231495 6.540884l-.256675 1.263215-.391524 1.866757c-.175749.822188-.353818 1.634405-.534215 2.43666l-.272341 1.195913-.41507 1.765868c-.768185 3.206638-1.576129 6.24399-2.42435 9.112775-3.384392 11.446423-9.045883 24.072647-16.964606 37.934079l-.660067 1.149415c-1.414801 3.866977-5.146783 6.608519-9.49892 6.563198-1.880903-.019975-3.635051-.557924-5.12831-1.476882l-63.707364-9.731361c-30.184117 52.107556-79.08825 89.214744-134.597809 102.663853 7.698545 2.407336 15.639553 4.277809 23.794999 5.569505 102.374032 16.214453 200.794378-64.749186 219.284209-181.489387 18.489832-116.740201-50.094339-224.154758-152.468371-240.369212zm-77.966259 6.063948-2.596583.846627c-69.131242 23.203448-125.22379 89.358466-138.721367 174.578812-.290925 1.836829-.560293 3.671348-.808312 5.50324 5.990204-7.732289 15.190819-12.057506 24.666023-10.556781 14.55347 2.305043 24.243633 17.481498 21.643584 33.897559-2.600049 16.416062-16.505723 27.855303-31.059194 25.55026-7.37245-1.167682-13.496879-5.638426-17.407803-11.900123 1.42624 76.356875 39.487486 143.890329 97.830065 177.47897.366355-.073968.737638-.124013 1.115466-.153422 60.806692-4.733101 116.465187-40.947342 149.084445-96.168762-.254445-.819459-.404959-1.681668-.438612-2.570533l-.007231-.382527v-78.221277c0-5.42924 4.326671-9.847932 9.720096-9.996158l.279904-.003842 19.368528-.000404c.894282-10.461598 1.025165-20.896756.404291-31.237139l-20.165903-.792899c-5.273253-.207444-9.460335-4.471491-9.603149-9.715389l-.003767-.276883v-74.671828c0-2.391696.841073-4.592336 2.24735-6.316679-23.779613-40.824266-60.804199-71.10536-104.730537-84.601007-.279007-.08572-.55155-.182536-.817294-.289815zm135.139467 227.901524h-11.839l.000681 59.078737c.296233.213976.577922.442174.844617.683131l56.877668 8.689098.657-62.522zm66.515966 8.472966-.215868 20.605379c.972045-4.291218 1.879089-8.936125 2.719648-13.932656l.208753-1.256457.344505-2.144129.169307-1.087557.262689-1.739546zm-172.591385-45.643134c2.377188-15.008971 15.090947-25.467706 28.396977-23.360237 13.30603 2.107468 22.165607 15.983083 19.78842 30.992054-2.377188 15.00897-15.090947 25.467705-28.396977 23.360237s-22.165607-15.983084-19.78842-30.992054zm174.092362-45.962834-.157977 14.630968 3.450034.136034-.092864-.529794c-.853881-4.761395-1.920153-9.506893-3.199193-14.237208zm-19.512977-45.908032-60.342966 2.018034v55.386l17.87772.70293.12536-.013527c1.009177-.102596 1.998535-.051365 2.944771.134692l38.757115 1.524871z" fill-rule="evenodd"/></svg>