<svg height="960" viewBox="0 0 960 960" width="960" xmlns="http://www.w3.org/2000/svg"><path d="m480.5 6c112.441848 0 215.80129 66.186448 290.409737 179.140852 72.207948 109.320139 113.090263 255.6547 113.090263 411.184584 0 3.526603-.020927 7.049673-.062738 10.568944l.001772-.185269c-.441234 60.874931-2.131535 107.619954-5.126288 140.581616-1.553773 17.101553-3.516443 31.199532-5.997515 42.556716-2.68732 12.301296-6.001818 22.1337-11.234917 30.468138l-.071314.110419-.37627.819232c-34.045459 72.476114-120.525191 122.31421-221.073115 130.416019l-1.566615.118749-.554673.125866c-1.821963.384518-3.714149.655155-5.674016.801552l-1.184021.072847c-42.71667 2.070145-72.444508 3.348938-89.367727 3.841014-8.37119.243409-17.561121.378343-27.616897.378343h-2.37088c-10.019971 0-20.861817-.131625-32.530326-.366618l.79954.015996-.593543.011829c-11.20642.218223-21.6459.338793-31.324873.338793h-2.403903c-9.950278-.011092-19.075935-.136762-27.384244-.378343-16.923219-.492076-46.651057-1.770869-89.367727-3.841014-2.384205-.115544-4.671681-.412978-6.858037-.874399l-.555673-.125866-1.565615-.118749c-100.547924-8.101809-187.027656-57.939905-221.0731152-130.416019l-.3762698-.819232-.071314-.110419c-5.1168077-8.149229-8.3993382-17.730586-11.0548193-29.651699l-.180098-.816439c-2.4810714-11.357184-4.443742-25.455163-5.9975146-42.556716-2.9947528-32.961662-4.6850538-79.706685-5.1262876-140.581616l-.0330763-3.335258c-.0185891-2.34785-.0278902-4.697349-.0278902-7.048417 0-155.529884 40.882315-301.864445 113.090263-411.184584 74.608447-112.954404 177.967889-179.140852 290.409737-179.140852zm-362.267278 694.655052.04158.829205c.739987 16.098984 1.656261 30.16136 2.748872 42.187152 2.831549 31.165362 6.986631 50.185382 12.465246 57.060059 26.498117 61.139888 104.283023 106.586457 198.164016 111.629445l-.796509.466241c42.471281 2.058253 72.002648 3.328594 88.594098 3.811024 7.960347.231463 16.758701.351873 26.395129.361342h2.328834c9.770521 0 20.379123-.127882 31.825873-.358407 11.421464.230018 22.008583.349469 31.761358.358407h2.334447c9.659547-.008976 18.47765-.129405 26.454309-.361342 16.59145-.48243 46.122817-1.752771 88.594098-3.811024l-.796509-.466241c93.880993-5.042988 171.665899-50.489557 198.164016-111.629445 5.478615-6.874677 9.633697-25.894697 12.465246-57.060059 1.1079-12.194079 2.034495-26.482139 2.779834-42.864207-72.924736 34.706613-195.76728 51.819611-369.066013 51.819611-173.287995 0-291.162746-17.082763-354.457925-51.971761zm362.413111 88.553281c19.548467 0 35.1875 16.441036 35.1875 36.479167s-15.639033 36.479167-35.1875 36.479167c-19.548466 0-35.1875-16.441036-35.1875-36.479167s15.639034-36.479167 35.1875-36.479167zm-111.083333-1.291666c19.548466 0 35.1875 16.441035 35.1875 36.479166 0 20.038132-15.639034 36.479167-35.1875 36.479167s-35.1875-16.441035-35.1875-36.479167c0-20.038131 15.639034-36.479166 35.1875-36.479166zm222.166667 0c19.548466 0 35.1875 16.441035 35.1875 36.479166 0 20.038132-15.639034 36.479167-35.1875 36.479167-19.548467 0-35.1875-16.441035-35.1875-36.479167 0-20.038131 15.639033-36.479166 35.1875-36.479166zm-111.083334 21.291666c-8.272878 0-15.1875 7.269218-15.1875 16.479167s6.914622 16.479167 15.1875 16.479167 15.1875-7.269218 15.1875-16.479167-6.914622-16.479167-15.1875-16.479167zm-111.083333-1.291666c-8.272878 0-15.1875 7.269218-15.1875 16.479166 0 9.209949 6.914622 16.479167 15.1875 16.479167s15.1875-7.269218 15.1875-16.479167c0-9.209948-6.914622-16.479166-15.1875-16.479166zm222.166667 0c-8.272878 0-15.1875 7.269218-15.1875 16.479166 0 9.209949 6.914622 16.479167 15.1875 16.479167s15.1875-7.269218 15.1875-16.479167c0-9.209948-6.914622-16.479166-15.1875-16.479166zm-341-45.833334c19.548466 0 35.1875 16.441036 35.1875 36.479167s-15.639034 36.479167-35.1875 36.479167c-19.548467 0-35.1875-16.441036-35.1875-36.479167s15.639033-36.479167 35.1875-36.479167zm459.833333 0c19.548466 0 35.1875 16.441036 35.1875 36.479167s-15.639034 36.479167-35.1875 36.479167-35.1875-16.441036-35.1875-36.479167 15.639034-36.479167 35.1875-36.479167zm-459.833333 20c-8.272878 0-15.1875 7.269218-15.1875 16.479167s6.914622 16.479167 15.1875 16.479167 15.1875-7.269218 15.1875-16.479167-6.914622-16.479167-15.1875-16.479167zm459.833333 0c-8.272878 0-15.1875 7.269218-15.1875 16.479167s6.914622 16.479167 15.1875 16.479167 15.1875-7.269218 15.1875-16.479167-6.914622-16.479167-15.1875-16.479167zm-230.0625-736.083333h-1c-200.755507 0-363.5 246.38909-363.5 550.325436 0 3.371753.020029 6.736424.059916 10.093754.194518 26.836806.634353 50.838221 1.319582 72.004289 1.660023.052598 3.329563.522233 4.850747 1.445516 57.508477 34.904789 174.636384 52.757818 350.460402 52.757818 176.083948 0 298.609193-17.876005 366.979609-53.098866.950953-.48991 1.943957-.812535 2.945425-.978624.688293-21.196103 1.129496-45.239758 1.324403-72.130133.039887-3.35733.059916-6.722001.059916-10.093754 0-303.936346-162.744493-550.325436-363.5-550.325436z"/></svg>