<?xml version="1.0" encoding="utf-8"?>
<!-- Generator: Adobe Illustrator 21.0.0, SVG Export Plug-In . SVG Version: 6.00 Build 0)  -->
<svg version="1.1" id="Layer_1" xmlns="http://www.w3.org/2000/svg" xmlns:xlink="http://www.w3.org/1999/xlink" x="0px" y="0px"
	 viewBox="0 0 1012.3 1010" style="enable-background:new 0 0 1012.3 1010;" xml:space="preserve">
<g>
	<path d="M915.5,1001H96.8c-47.8,0-86.7-38.9-86.7-86.7V95.7C10.1,47.9,49,9,96.8,9h818.7c47.8,0,86.7,38.9,86.7,86.7v818.7
		C1002.1,962.1,963.3,1001,915.5,1001z M96.8,21c-41.2,0-74.7,33.5-74.7,74.7v818.7c0,41.2,33.5,74.7,74.7,74.7h818.7
		c41.2,0,74.7-33.5,74.7-74.7V95.7c0-41.2-33.5-74.7-74.7-74.7H96.8z"/>
</g>
<g>
	<path d="M862.2,887H150.1c-14.3,0-26-11.7-26-26V149c0-14.3,11.6-26,26-26h712.1c14.3,0,26,11.6,26,26V861
		C888.1,875.4,876.5,887,862.2,887z M150.1,129c-11,0-20,9-20,20V861c0,11,9,20,20,20h712.1c11,0,20-9,20-20V149c0-11-9-20-20-20
		H150.1z"/>
</g>
<g>
	<path d="M752.3,655.2h-483c-7.5,0-13.6-6.1-13.6-13.6V359c0-7.5,6.1-13.6,13.6-13.6h483c7.5,0,13.6,6.1,13.6,13.6v282.6
		C765.9,649.1,759.8,655.2,752.3,655.2z M269.4,351.4c-4.2,0-7.6,3.4-7.6,7.6v282.6c0,4.2,3.4,7.6,7.6,7.6h483
		c4.2,0,7.6-3.4,7.6-7.6V359c0-4.2-3.4-7.6-7.6-7.6H269.4z"/>
</g>
<g>
	<path d="M400.7,497.6c5,4.3,7.6,6.8,7.5,7.4l-9,50.8c-0.2,0.6-3.6,3.1-10.2,7.4c-5-4.3-7.6-6.8-7.5-7.4l9-50.8
		C390.7,504.4,394.1,502,400.7,497.6z M401.7,559h56.7c0.7,0.1,3,2.7,6.9,7.9c-5.7,5.2-9,7.8-9.7,7.9h-56.7c-0.7-0.1-3-2.7-6.9-7.9
		C397.7,561.7,401,559.1,401.7,559z M413.9,486.5h57.8c2.1,2.2,4.2,4.8,6.3,7.9c-3.2,3.1-6.2,5.7-9.1,7.9h-57.8
		c-2.1-2.2-4.2-4.8-6.3-7.9C408,491.4,411,488.7,413.9,486.5z M427.3,414.1h56.7c0.7,0.1,3,2.7,6.9,7.9c-5.7,5.2-9,7.8-9.7,7.9
		h-56.7c-0.7-0.1-3-2.7-6.9-7.9C423.3,416.8,426.6,414.2,427.3,414.1z M493.8,425.2c5,4.3,7.6,6.8,7.5,7.4l-9,50.8
		c-0.2,0.6-3.6,3.1-10.2,7.4c-5-4.3-7.6-6.8-7.5-7.4l9-50.8C483.8,432,487.2,429.5,493.8,425.2z"/>
	<path d="M590.2,500.8c0.5,0,3,2.6,7.4,7.9l-11.7,66.1c-0.5,0-5.5-5.3-14.9-15.9l8.9-50.2C580,508.3,583.4,505.7,590.2,500.8z
		 M613.3,419.9L601.6,486c-0.1,0.4-3.5,3.1-10.3,7.9c-0.5,0-3-2.6-7.5-7.9l9-50.8L613.3,419.9z"/>
</g>
<g>
	<g>
		<polygon points="342.2,780.8 332.6,780.8 364.6,755.1 395,780.4 353.1,780.8 359.8,774.4 378.4,774.4 364.6,762.9 		"/>
	</g>
</g>
<g>
	<polygon points="673.3,755.1 682.9,755.1 650.9,780.8 620.5,755.5 662.4,755.1 655.7,761.5 637.1,761.5 650.9,773 	"/>
</g>
<g>
	<polygon points="504.3,782.8 490.7,769.2 508.1,751.8 525.5,769.2 511.8,782.8 511.8,791.3 534,769.2 508.1,743.3 482.2,769.2 
		504.3,791.3 	"/>
</g>
</svg>
