<?xml version="1.0" encoding="utf-8"?>
<!-- Generator: Adobe Illustrator 21.0.0, SVG Export Plug-In . SVG Version: 6.00 Build 0)  -->
<svg version="1.1" id="Layer_1" xmlns="http://www.w3.org/2000/svg" xmlns:xlink="http://www.w3.org/1999/xlink" x="0px" y="0px"
	 viewBox="0 0 1012.3 1010" style="enable-background:new 0 0 1012.3 1010;" xml:space="preserve">
<style type="text/css">
	.st0{fill:none;stroke:#000000;stroke-width:12;stroke-miterlimit:10;}
	.st1{fill:none;stroke:#000000;stroke-width:6;stroke-miterlimit:10;}
</style>
<g>
	<path d="M915.5,1001H96.8c-47.8,0-86.7-38.9-86.7-86.7V95.7C10.1,47.9,49,9,96.8,9h818.7c47.8,0,86.7,38.9,86.7,86.7v818.7
		C1002.1,962.1,963.3,1001,915.5,1001z M96.8,21c-41.2,0-74.7,33.5-74.7,74.7v818.7c0,41.2,33.5,74.7,74.7,74.7h818.7
		c41.2,0,74.7-33.5,74.7-74.7V95.7c0-41.2-33.5-74.7-74.7-74.7H96.8z"/>
</g>
<g>
	<path d="M838.9,887H173.4c-27.1,0-49.2-22.1-49.2-49.2V172.2c0-27.1,22.1-49.2,49.2-49.2h665.6c27.1,0,49.2,22.1,49.2,49.2v665.6
		C888.1,864.9,866.1,887,838.9,887z M173.4,129c-23.8,0-43.2,19.4-43.2,43.2v665.6c0,23.8,19.4,43.2,43.2,43.2h665.6
		c23.8,0,43.2-19.4,43.2-43.2V172.2c0-23.8-19.4-43.2-43.2-43.2H173.4z"/>
</g>
<g>
	<path d="M803.5,837.2H208.7c-19.2,0-34.8-15.6-34.8-34.8V207.6c0-19.2,15.6-34.8,34.8-34.8h594.8c19.2,0,34.8,15.6,34.8,34.8v594.8
		C838.3,821.6,822.7,837.2,803.5,837.2z M208.7,178.8c-15.9,0-28.8,12.9-28.8,28.8v594.8c0,15.9,12.9,28.8,28.8,28.8h594.8
		c15.9,0,28.8-12.9,28.8-28.8V207.6c0-15.9-12.9-28.8-28.8-28.8H208.7z"/>
</g>
<g>
	<path d="M787.4,805.4H234.3c-15.7,0-28.5-12.8-28.5-28.5V223.7c0-15.7,12.8-28.5,28.5-28.5h553.2c15.7,0,28.5,12.8,28.5,28.5v553.2
		C816,792.6,803.2,805.4,787.4,805.4z M234.3,201.2c-12.4,0-22.5,10.1-22.5,22.5v553.2c0,12.4,10.1,22.5,22.5,22.5h553.2
		c12.4,0,22.5-10.1,22.5-22.5V223.7c0-12.4-10.1-22.5-22.5-22.5H234.3z"/>
</g>
<g>
	<path d="M400.7,497.6c5,4.3,7.6,6.8,7.5,7.4l-9,50.8c-0.2,0.6-3.6,3.1-10.2,7.4c-5-4.3-7.6-6.8-7.5-7.4l9-50.8
		C390.7,504.4,394.1,502,400.7,497.6z M401.7,559h56.7c0.7,0.1,3,2.7,6.9,7.9c-5.7,5.2-9,7.8-9.7,7.9h-56.7c-0.7-0.1-3-2.7-6.9-7.9
		C397.7,561.7,401,559.1,401.7,559z M413.9,486.5h57.8c2.1,2.2,4.2,4.8,6.3,7.9c-3.2,3.1-6.2,5.7-9.1,7.9h-57.8
		c-2.1-2.2-4.2-4.8-6.3-7.9C408,491.4,411,488.7,413.9,486.5z M427.3,414.1h56.7c0.7,0.1,3,2.7,6.9,7.9c-5.7,5.2-9,7.8-9.7,7.9
		h-56.7c-0.7-0.1-3-2.7-6.9-7.9C423.3,416.8,426.6,414.2,427.3,414.1z M493.8,425.2c5,4.3,7.6,6.8,7.5,7.4l-9,50.8
		c-0.2,0.6-3.6,3.1-10.2,7.4c-5-4.3-7.6-6.8-7.5-7.4l9-50.8C483.8,432,487.2,429.5,493.8,425.2z"/>
	<path d="M590.2,500.8c0.5,0,3,2.6,7.4,7.9l-11.7,66.1c-0.5,0-5.5-5.3-14.9-15.9l8.9-50.2C580,508.3,583.4,505.7,590.2,500.8z
		 M613.3,419.9L601.6,486c-0.1,0.4-3.5,3.1-10.3,7.9c-0.5,0-3-2.6-7.5-7.9l9-50.8L613.3,419.9z"/>
</g>
<g>
	<g>
		<polygon points="342.2,695.7 332.6,695.7 364.6,670.1 395,695.3 353.1,695.7 359.8,689.3 378.4,689.3 364.6,677.8 		"/>
	</g>
</g>
<g>
	<polygon points="673.3,670.1 682.9,670.1 650.9,695.7 620.5,670.5 662.4,670.1 655.7,676.5 637.1,676.5 650.9,688 	"/>
</g>
<g>
	<polygon points="504.3,697.8 490.7,684.1 508.1,666.7 525.5,684.1 511.8,697.8 511.8,706.2 534,684.1 508.1,658.2 482.2,684.1 
		504.3,706.2 	"/>
</g>
</svg>
