<?xml version="1.0" encoding="utf-8"?>
<!-- Generator: Adobe Illustrator 21.0.0, SVG Export Plug-In . SVG Version: 6.00 Build 0)  -->
<svg version="1.1" id="Layer_1" xmlns="http://www.w3.org/2000/svg" xmlns:xlink="http://www.w3.org/1999/xlink" x="0px" y="0px"
	 viewBox="0 0 1417.3 943.1" style="enable-background:new 0 0 1417.3 943.1;" xml:space="preserve">
<g>
	<path d="M1403.9,214.9h-0.1V9.5H26.9c-7,0-12.6,5.7-12.6,12.6v192.7h-0.1v516.5h0.1v205.3h1389.4V731.3h0.1V214.9z M25.6,214.9
		v-59.1h1367v59.1H25.6z M1392.4,226.4v493.5H25.7V226.4H1392.4z M25.6,731.3h1367v59.1H25.6V731.3z M26.9,20.8h1365.6v129.3H25.6
		v-128C25.6,21.4,26.2,20.8,26.9,20.8z M25.6,925.4V796.1h1367v129.3H25.6z"/>
	<path d="M1382.4,682.5V263.7V242H30.9v21.8v418.8v21.8h1351.5V682.5z M1376.7,470.4H36.7v-201h1340V470.4z M36.7,475.8h1340v201
		H36.7V475.8z M36.7,247.7h1340v16H36.7V247.7z M36.7,698.5v-16h1340v16H36.7z"/>
	<polygon points="593.6,526.1 613.7,497 613.7,491.4 582.5,491.4 582.5,499.4 601,499.4 601,499.7 580.6,529.1 580.6,534.4 
		614,534.4 614,526.3 593.6,526.3 	"/>
	<rect x="617.3" y="514.4" width="16.7" height="6.4"/>
	<path d="M670.9,495.6c-4.1-3.1-9.4-4.6-17.6-4.6c-4.9,0-9.6,0.3-13.1,0.9v42.2c2.4,0.3,6,0.6,11,0.6c8.4,0,15.3-1.8,19.8-5.6
		c4.1-3.5,7.1-9.2,7.1-17.4C678.2,504.3,675.4,499,670.9,495.6z M653.3,527.2c-1.2,0-2.6,0-3.4-0.2v-28.1c0.8-0.2,2.2-0.4,4.4-0.4
		c8.4,0,13.6,4.7,13.5,13.7C667.8,522.4,662.1,527.3,653.3,527.2z"/>
	<rect x="684.6" y="491.4" width="9.8" height="43"/>
	<path d="M729.4,503.9c0,6.4,0.2,12.3,0.8,17.9h-0.2c-1.9-4.8-4.5-10.2-7-14.7l-8.9-15.8h-11.4v43h8.9v-13c0-7-0.1-13.1-0.4-18.8
		l0.2-0.1c2.1,5,4.9,10.6,7.5,15.2l9.2,16.6h10.2v-43h-8.9V503.9z"/>
	<path d="M776.3,506.6c-3.9,0-6.8,1.2-8.8,3.3h-0.2c1.1-4.8,4.9-9.3,13.5-10c1.5-0.1,2.7-0.2,3.8-0.1v-7.5c-1-0.1-2.1-0.1-3.9,0.1
		c-6.5,0.3-11.9,2.4-16,6.1c-4.5,4.1-7.3,10.7-7.3,18.4c0,9.9,5.4,18.1,16.5,18.1c9,0,15.3-6.8,15.3-15
		C789.1,511.5,783.3,506.6,776.3,506.6z M773.7,527.9c-4.4,0-6.5-4-6.7-8.4c0-1.1,0.1-1.9,0.4-2.4c1-2.1,3.1-3.7,5.7-3.7
		c4.1,0,6.2,3.3,6.2,7.1C779.3,524.8,777.1,527.9,773.7,527.9z"/>
	<polygon points="796.3,498 797.9,505.3 805.8,501.5 805.9,501.5 805.9,534.4 815.3,534.4 815.3,492.9 807.3,492.9 	"/>
	<path d="M847.1,506.6c-3.9,0-6.8,1.2-8.8,3.3h-0.2c1.1-4.8,4.9-9.3,13.5-10c1.5-0.1,2.7-0.2,3.8-0.1v-7.5c-1-0.1-2.1-0.1-3.9,0.1
		c-6.5,0.3-11.9,2.4-16,6.1c-4.5,4.1-7.3,10.7-7.3,18.4c0,9.9,5.4,18.1,16.5,18.1c9,0,15.3-6.8,15.3-15
		C860,511.5,854.1,506.6,847.1,506.6z M844.5,527.9c-4.4,0-6.5-4-6.7-8.4c0-1.1,0.1-1.9,0.4-2.4c1-2.1,3.1-3.7,5.7-3.7
		c4.1,0,6.2,3.3,6.2,7.1C850.1,524.8,848,527.9,844.5,527.9z"/>
	<rect x="113.8" y="578.8" width="4.2" height="18.4"/>
	<path d="M133,584.2c0,2.8,0.1,5.2,0.4,7.7h-0.1c-0.8-2.1-1.9-4.4-3-6.3l-3.8-6.7h-4.9v18.4h3.8v-5.5c0-3-0.1-5.6-0.2-8l0.1,0
		c0.9,2.2,2.1,4.5,3.2,6.5l3.9,7.1h4.4v-18.4H133V584.2z"/>
	<path d="M149.8,581.9c1.5,0,2.6,0.3,3.5,0.7l0.8-3.3c-0.7-0.4-2.4-0.8-4.5-0.8c-5.6,0-10,3.5-10,9.8c0,5.2,3.3,9.2,9.6,9.2
		c2.2,0,4-0.4,4.7-0.8l-0.6-3.2c-0.8,0.3-2.2,0.6-3.5,0.6c-3.7,0-5.9-2.3-5.9-6C143.9,583.9,146.5,581.9,149.8,581.9z"/>
	<polygon points="160.8,578.8 156.6,578.8 156.6,597.2 168.1,597.2 168.1,593.7 160.8,593.7 	"/>
	<path d="M180.5,589.4c0,3.2-1.2,4.8-3.4,4.8c-2.1,0-3.3-1.6-3.3-4.8v-10.6h-4.2V589c0,5.9,2.7,8.4,7.4,8.4c4.8,0,7.7-2.7,7.7-8.4
		v-10.3h-4.1V589.4z"/>
	<path d="M195.4,586.3c-2.4-0.9-3.4-1.4-3.4-2.6c0-1,0.9-1.8,2.7-1.8c1.8,0,3.1,0.5,3.8,0.9l0.9-3.4c-1.1-0.5-2.6-0.9-4.7-0.9
		c-4.3,0-7,2.4-7,5.5c0,2.7,2,4.4,5,5.4c2.2,0.8,3.1,1.4,3.1,2.6c0,1.2-1,2-2.9,2c-1.8,0-3.5-0.6-4.6-1.1l-0.8,3.4
		c1,0.6,3.1,1.1,5.2,1.1c5,0,7.4-2.6,7.4-5.7C200.2,589.1,198.6,587.5,195.4,586.3z"/>
	<rect x="203" y="578.8" width="4.2" height="18.4"/>
	<path d="M218.8,578.5c-5.4,0-8.9,4.1-8.9,9.6c0,5.2,3.2,9.3,8.6,9.3c5.4,0,9-3.7,9-9.7C227.5,582.7,224.5,578.5,218.8,578.5z
		 M218.7,594.2c-2.8,0-4.5-2.5-4.5-6.1c0-3.6,1.6-6.2,4.4-6.2c2.9,0,4.4,2.8,4.4,6.1C223.2,591.5,221.5,594.2,218.7,594.2z"/>
	<path d="M241.7,584.2c0,2.8,0.1,5.2,0.4,7.7h-0.1c-0.8-2.1-1.9-4.4-3-6.3l-3.8-6.7h-4.9v18.4h3.8v-5.5c0-3-0.1-5.6-0.2-8l0.1,0
		c0.9,2.2,2.1,4.5,3.2,6.5l3.9,7.1h4.4v-18.4h-3.8V584.2z"/>
	<path d="M118.6,363.5c-1.8,0-3.5-0.6-4.6-1.1l-0.8,3.4c1,0.6,3.1,1.1,5.2,1.1c5,0,7.4-2.6,7.4-5.7c0-2.6-1.5-4.3-4.8-5.5
		c-2.4-0.9-3.4-1.4-3.4-2.6c0-1,0.9-1.8,2.7-1.8c1.8,0,3.1,0.5,3.8,0.9l0.9-3.4c-1.1-0.5-2.6-0.9-4.7-0.9c-4.3,0-7,2.4-7,5.5
		c0,2.7,2,4.4,5,5.4c2.2,0.8,3.1,1.4,3.1,2.6C121.5,362.7,120.5,363.5,118.6,363.5z"/>
	<polygon points="132.1,366.6 136.2,366.6 136.2,351.8 141.3,351.8 141.3,348.3 127.1,348.3 127.1,351.8 132.1,351.8 	"/>
	<path d="M144.5,366.6l1.3-4.7h5.3l1.4,4.7h4.5l-5.7-18.4h-5.5l-5.6,18.4H144.5z M147.5,354.9c0.3-1.1,0.6-2.5,0.8-3.5h0.1
		c0.3,1.1,0.6,2.5,0.9,3.5l1.1,3.9h-4.1L147.5,354.9z"/>
	<polygon points="160.7,366.6 164.8,366.6 164.8,351.8 169.8,351.8 169.8,348.3 155.7,348.3 155.7,351.8 160.7,351.8 	"/>
	<path d="M179.4,366.9c4.8,0,7.7-2.7,7.7-8.4v-10.3h-4.1v10.6c0,3.2-1.2,4.8-3.4,4.8c-2.1,0-3.3-1.6-3.3-4.8v-10.6H172v10.2
		C172,364.4,174.7,366.9,179.4,366.9z"/>
	<path d="M195.4,363.5c-1.8,0-3.5-0.6-4.6-1.1l-0.8,3.4c1,0.6,3.1,1.1,5.2,1.1c5,0,7.4-2.6,7.4-5.7c0-2.6-1.5-4.3-4.8-5.5
		c-2.4-0.9-3.4-1.4-3.4-2.6c0-1,0.9-1.8,2.7-1.8c1.8,0,3.1,0.5,3.8,0.9l0.9-3.4c-1.1-0.5-2.6-0.9-4.7-0.9c-4.3,0-7,2.4-7,5.5
		c0,2.7,2,4.4,5,5.4c2.2,0.8,3.1,1.4,3.1,2.6C198.3,362.7,197.3,363.5,195.4,363.5z"/>
	<circle cx="86.6" cy="357.8" r="14.4"/>
	<circle cx="86.6" cy="588.4" r="14.4"/>
	<path d="M1334.8,557.7c-2.1-1.1-4.5-1.3-6.8-1.2c-25.7,0-51.4,0-77.1,0c-2,0.1-4.1-0.2-6,0.3c-4.1,0.8-7.4,4.6-7.2,8.8
		c0,21.4,0,42.8,0,64.2c-0.1,5.2,5,9.1,9.9,8.9c27.6,0,55.1,0.1,82.7,0c4.7,0.1,9.4-3.9,9.3-8.9c0-21.4,0-42.9,0-64.3
		C1339.7,562.3,1337.7,559.2,1334.8,557.7z M1283.5,625.8c-1.6,1.2-3.9,1-5.8,1.1c0,1.7,0.1,3.4,0.1,5c-1.5,0-2.8,0-4.2,0
		c0-5.1,0-10.3,0-15.4c2.8,0.1,5.7-0.3,8.4,0.3C1285.7,617.8,1286.3,623.4,1283.5,625.8z M1299.3,631.8c-2.9,0-5.9,0-8.8,0
		c0-5.1,0-10.3,0-15.4c1.3,0,2.7,0,4.1,0c0,4,0,7.9,0,11.8c1.6,0,3.1,0,4.7,0C1299.3,629.4,1299.3,630.7,1299.3,631.8z
		 M1317.5,627.9c-0.9,4.2-6.3,5.2-9.8,3.7c-2.1-0.8-3.4-2.9-3.4-5.1c-0.1-3.4-0.1-6.8-0.1-10.1c1.4,0,2.8,0,4.2,0
		c0.1,3.4-0.2,6.8,0.2,10.2c0.2,2.6,4.5,2.5,4.7,0c0.3-3.4,0.1-6.8,0.2-10.2c1.4,0,2.8,0,4.2-0.1
		C1317.6,620.2,1317.9,624.1,1317.5,627.9z M1332.3,631.4c-2.8,1.5-6.1,0.5-8.7-1.1c0.6-1.2,1.2-2.3,1.7-3.4
		c1.3,0.8,2.6,1.8,4.2,1.5c0.9-0.2,1.5-1.1,1.1-2c-1.8-1.2-4.2-1.1-5.6-2.8c-2-2.7,0.1-7.1,3.4-7.7c2.1-0.4,4.2,0.3,6.1,1.1
		c-0.6,1.1-1.1,2.2-1.6,3.2c-1.2-0.7-4.2-1.8-4.2,0.5c1.5,1.6,4.2,1.3,5.6,3.1C1336,626.4,1334.9,630.2,1332.3,631.4z M1337.3,605.9
		c-17.3,0-34.6,0-51.8,0c-2.2,2.1-4.8,4-7.8,4.8c-5.7,1.8-12.3,0.4-16.8-3.6c-0.7-0.5-1.2-1.3-2.1-1.2c-6.3,0-12.5,0-18.8,0
		c0-13.6-0.1-27.2,0-40.8c0.2-4,4.4-6.5,8.1-6.3c27.1,0,54.3,0,81.5,0c3.7-0.2,7.9,2.8,7.7,6.8
		C1337.3,579.1,1337.3,592.5,1337.3,605.9z"/>
	<path d="M1257.3,575.5c4.1-3.6,9.5-5.5,14.9-5.6c0-1.2,0.1-2.3,0.1-3.4c-5.1,0.2-10.3,1.6-14.5,4.5c-7.4,4.8-12,13.5-12.1,22.3
		c1.1,0,2.2-0.1,3.4-0.1C1249.1,586.4,1252.2,579.8,1257.3,575.5z"/>
	<path d="M1272.3,573.6c-4.8,0.2-9.7,2-13.2,5.3c-4,3.6-6.1,8.9-6.3,14.2c1.1,0,2.2,0,3.3,0c0.2-2.4,0.6-4.9,1.7-7
		c2.6-5.4,8.4-9.2,14.4-9.2C1272.3,575.9,1272.3,574.8,1272.3,573.6z"/>
	<path d="M1269,583.3c-3.5,1.2-6.3,4.4-6.9,7.9c-1,4.6,1.5,9.6,5.6,11.6c3.6,1.8,8.2,1.3,11.3-1.2c3.6-2.8,4.9-8.2,3.1-12.5
		C1280.2,584.2,1274,581.5,1269,583.3z M1278,595.1c-0.8,1.2-1.5,2.4-2.3,3.6c-3.1,0-6.3,0-9.3,0c1.6-2.6,3.2-5.2,4.9-7.8
		c-1.6,0-3.1,0-4.7,0c0.7-1.2,1.5-2.4,2.2-3.6c3,0,6.1,0.1,9.2,0.1c-1.6,2.6-3.2,5.1-4.7,7.7C1274.8,595.1,1276.4,595.1,1278,595.1z
		"/>
	<path d="M1295,595c-0.6-2.5-1-5-1.6-7.5c-0.9,0-1.8,0-2.6,0c-0.6,2.5-0.9,5.1-1.6,7.5c-0.4-2.5-0.7-5-1.2-7.5c-1.3,0-2.6,0-3.8,0
		c1.1,3.7,2.1,7.4,3.2,11.1c1.1,0,2.2,0,3.4,0c0.4-2,0.8-4,1.3-6c0.6,2,0.9,4,1.3,6c1.1,0,2.3,0,3.4,0c1.1-3.7,2.2-7.4,3.2-11.1
		c-1.3,0-2.5,0-3.8,0C1295.8,590,1295.4,592.5,1295,595z"/>
	<path d="M1304.2,587.5c-1.3,3.7-2.7,7.4-3.9,11.1c1.3,0,2.7,0,4.1,0c0.1-0.3,0.2-1.1,0.3-1.4c1.1-0.1,2.2-0.1,3.3-0.1
		c0.1,0.4,0.2,1.1,0.3,1.5c1.3,0,2.7,0,4.1,0c-1.3-3.7-2.6-7.4-3.9-11.1C1307,587.5,1305.7,587.5,1304.2,587.5z M1305.2,594.8
		c0.3-1.5,0.7-3,1.1-4.4c0.3,1.5,0.6,3,0.9,4.4C1306.5,594.8,1305.9,594.8,1305.2,594.8z"/>
	<path d="M1317.9,594.8c-0.5-2.5-1.2-4.9-1.9-7.3c-1.4,0-2.8,0-4.2,0c1.5,3.7,2.8,7.4,4.2,11.1c1.2,0.1,2.4,0.1,3.6,0.1
		c1.5-3.7,2.8-7.4,4.2-11.2c-1.3,0.1-2.7,0.1-4.1,0.1C1319.1,590,1318.4,592.4,1317.9,594.8z"/>
	<path d="M1329.9,594.3c1.1,0,2.1,0,3.2,0c0-0.9,0-1.8,0-2.7c-1.1,0-2.2,0-3.2,0c0.1-0.3,0.1-0.9,0.1-1.3c1.2,0,2.4,0,3.6,0
		c0-0.9,0-1.9,0-2.8c-2.5,0-4.9,0-7.3,0c0,3.7,0,7.4,0,11.1c2.5,0,4.9,0,7.4,0c0-0.9,0-1.8,0-2.8c-1.2,0-2.4,0-3.6,0
		C1329.9,595.4,1329.9,594.6,1329.9,594.3z"/>
	<path d="M1278,619.6c0,1.2,0,2.5,0,3.7c1.2-0.1,3.4,0.1,3.2-1.8C1281.4,619.6,1279.2,619.8,1278,619.6z"/>
	<path d="M163.5,852.1c-3.9,3.9-6,9-6,14.5s2.1,10.6,6,14.5c3.9,3.9,9,6,14.5,6s10.6-2.1,14.5-6c3.9-3.9,6-9,6-14.5
		s-2.1-10.6-6-14.5C184.5,844.2,171.5,844.2,163.5,852.1z M167.3,877.3c-0.5-0.5-0.9-1-1.4-1.6l21.2-21.2c0.6,0.4,1.1,0.9,1.6,1.4
		c0.5,0.5,0.9,1,1.4,1.6l-21.2,21.2C168.3,878.3,167.8,877.8,167.3,877.3z M167.3,855.9c3-2.9,6.8-4.4,10.7-4.4
		c2.3,0,4.7,0.5,6.8,1.6l-20.3,20.3c-1-2.1-1.6-4.4-1.6-6.8C162.9,862.6,164.4,858.8,167.3,855.9z M188.7,877.3
		c-2.9,2.9-6.7,4.4-10.7,4.4c-2.4,0-4.7-0.6-6.8-1.6l20.3-20.3c1,2.1,1.6,4.4,1.6,6.8C193.1,870.6,191.6,874.4,188.7,877.3z"/>
	<path d="M178,103.1c5.2,0,10.5-2,14.5-6c3.9-3.9,6-9,6-14.5c0-5.5-2.1-10.6-6-14.5c-3.9-3.9-9-6-14.5-6s-10.6,2.1-14.5,6
		c-3.9,3.9-6,9-6,14.5c0,5.5,2.1,10.6,6,14.5C167.5,101.1,172.7,103.1,178,103.1z M188.7,71.9c0.5,0.5,0.9,1,1.4,1.6l-21.2,21.2
		c-0.6-0.4-1.1-0.9-1.6-1.4c-0.5-0.5-0.9-1-1.4-1.6l21.2-21.2C187.6,71,188.2,71.4,188.7,71.9z M188.7,93.3
		c-4.7,4.7-11.8,5.7-17.5,2.8l20.3-20.3C194.3,81.5,193.4,88.6,188.7,93.3z M167.3,71.9c3-3,6.8-4.4,10.7-4.4c2.3,0,4.7,0.5,6.8,1.6
		l-20.3,20.3C161.6,83.8,162.6,76.7,167.3,71.9z"/>
	<path d="M225.7,852.1c-3.9,3.9-6,9-6,14.5s2.1,10.6,6,14.5c3.9,3.9,9,6,14.5,6c5.5,0,10.6-2.1,14.5-6c3.9-3.9,6-9,6-14.5
		s-2.1-10.6-6-14.5C246.6,844.2,233.7,844.2,225.7,852.1z M229.4,877.3c-0.5-0.5-0.9-1-1.4-1.6l21.2-21.2c0.6,0.4,1.1,0.9,1.6,1.4
		c0.5,0.5,0.9,1,1.4,1.6L231,878.7C230.5,878.3,229.9,877.8,229.4,877.3z M229.4,855.9c3-2.9,6.8-4.4,10.7-4.4
		c2.3,0,4.7,0.5,6.8,1.6l-20.3,20.3c-1-2.1-1.6-4.4-1.6-6.8C225,862.6,226.6,858.8,229.4,855.9z M250.8,877.3
		c-2.9,2.9-6.7,4.4-10.7,4.4c-2.4,0-4.7-0.6-6.8-1.6l20.3-20.3c1,2.1,1.6,4.4,1.6,6.8C255.3,870.6,253.7,874.4,250.8,877.3z"/>
	<path d="M240.1,103.1c5.2,0,10.5-2,14.5-6c3.9-3.9,6-9,6-14.5c0-5.5-2.1-10.6-6-14.5c-3.9-3.9-9-6-14.5-6c-5.5,0-10.6,2.1-14.5,6
		c-3.9,3.9-6,9-6,14.5c0,5.5,2.1,10.6,6,14.5C229.7,101.1,234.9,103.1,240.1,103.1z M250.8,71.9c0.5,0.5,0.9,1,1.4,1.6L231,94.7
		c-0.6-0.4-1.1-0.9-1.6-1.4c-0.5-0.5-0.9-1-1.4-1.6l21.2-21.2C249.8,71,250.3,71.4,250.8,71.9z M250.8,93.3
		c-4.7,4.7-11.8,5.7-17.5,2.8l20.3-20.3C256.5,81.5,255.6,88.6,250.8,93.3z M229.4,71.9c3-3,6.8-4.4,10.7-4.4c2.3,0,4.7,0.5,6.8,1.6
		l-20.3,20.3C223.8,83.8,224.7,76.7,229.4,71.9z"/>
	<path d="M287.8,852.1c-3.9,3.9-6,9-6,14.5s2.1,10.6,6,14.5c3.9,3.9,9,6,14.5,6c5.5,0,10.6-2.1,14.5-6c3.9-3.9,6-9,6-14.5
		s-2.1-10.6-6-14.5C308.8,844.2,295.8,844.2,287.8,852.1z M291.6,877.3c-0.5-0.5-0.9-1-1.4-1.6l21.2-21.2c0.6,0.4,1.1,0.9,1.6,1.4
		c0.5,0.5,0.9,1,1.4,1.6l-21.2,21.2C292.6,878.3,292.1,877.8,291.6,877.3z M291.6,855.9c3-2.9,6.8-4.4,10.7-4.4
		c2.3,0,4.7,0.5,6.8,1.6l-20.3,20.3c-1-2.1-1.6-4.4-1.6-6.8C287.2,862.6,288.7,858.8,291.6,855.9z M313,877.3
		c-2.9,2.9-6.7,4.4-10.7,4.4c-2.4,0-4.7-0.6-6.8-1.6l20.3-20.3c1,2.1,1.6,4.4,1.6,6.8C317.4,870.6,315.9,874.4,313,877.3z"/>
	<path d="M302.3,103.1c5.2,0,10.5-2,14.5-6c3.9-3.9,6-9,6-14.5c0-5.5-2.1-10.6-6-14.5c-3.9-3.9-9-6-14.5-6c-5.5,0-10.6,2.1-14.5,6
		c-3.9,3.9-6,9-6,14.5c0,5.5,2.1,10.6,6,14.5C291.8,101.1,297.1,103.1,302.3,103.1z M313,71.9c0.5,0.5,0.9,1,1.4,1.6l-21.2,21.2
		c-0.6-0.4-1.1-0.9-1.6-1.4c-0.5-0.5-0.9-1-1.4-1.6l21.2-21.2C312,71,312.5,71.4,313,71.9z M313,93.3c-4.7,4.7-11.8,5.7-17.5,2.8
		l20.3-20.3C318.7,81.5,317.7,88.6,313,93.3z M291.6,71.9c3-3,6.8-4.4,10.7-4.4c2.3,0,4.7,0.5,6.8,1.6l-20.3,20.3
		C285.9,83.8,286.9,76.7,291.6,71.9z"/>
	<path d="M350,852.1c-3.9,3.9-6,9-6,14.5s2.1,10.6,6,14.5c3.9,3.9,9,6,14.5,6s10.6-2.1,14.5-6c3.9-3.9,6-9,6-14.5s-2.1-10.6-6-14.5
		C370.9,844.2,358,844.2,350,852.1z M353.7,877.3c-0.5-0.5-0.9-1-1.4-1.6l21.2-21.2c0.6,0.4,1.1,0.9,1.6,1.4c0.5,0.5,0.9,1,1.4,1.6
		l-21.2,21.2C354.8,878.3,354.2,877.8,353.7,877.3z M353.7,855.9c3-2.9,6.8-4.4,10.7-4.4c2.3,0,4.7,0.5,6.8,1.6l-20.3,20.3
		c-1-2.1-1.6-4.4-1.6-6.8C349.3,862.6,350.9,858.8,353.7,855.9z M375.2,877.3c-2.9,2.9-6.7,4.4-10.7,4.4c-2.4,0-4.7-0.6-6.8-1.6
		l20.3-20.3c1,2.1,1.6,4.4,1.6,6.8C379.6,870.6,378,874.4,375.2,877.3z"/>
	<path d="M364.4,103.1c5.2,0,10.5-2,14.5-6c3.9-3.9,6-9,6-14.5c0-5.5-2.1-10.6-6-14.5c-3.9-3.9-9-6-14.5-6s-10.6,2.1-14.5,6
		c-3.9,3.9-6,9-6,14.5c0,5.5,2.1,10.6,6,14.5C354,101.1,359.2,103.1,364.4,103.1z M375.2,71.9c0.5,0.5,0.9,1,1.4,1.6l-21.2,21.2
		c-0.6-0.4-1.1-0.9-1.6-1.4c-0.5-0.5-0.9-1-1.4-1.6l21.2-21.2C374.1,71,374.6,71.4,375.2,71.9z M375.2,93.3
		c-4.7,4.7-11.8,5.7-17.5,2.8L378,75.9C380.8,81.5,379.9,88.6,375.2,93.3z M353.7,71.9c3-3,6.8-4.4,10.7-4.4c2.3,0,4.7,0.5,6.8,1.6
		l-20.3,20.3C348.1,83.8,349,76.7,353.7,71.9z"/>
	<path d="M412.1,852.1c-3.9,3.9-6,9-6,14.5s2.1,10.6,6,14.5c3.9,3.9,9,6,14.5,6s10.6-2.1,14.5-6c3.9-3.9,6-9,6-14.5
		s-2.1-10.6-6-14.5C433.1,844.2,420.1,844.2,412.1,852.1z M415.9,877.3c-0.5-0.5-0.9-1-1.4-1.6l21.2-21.2c0.6,0.4,1.1,0.9,1.6,1.4
		c0.5,0.5,0.9,1,1.4,1.6l-21.2,21.2C416.9,878.3,416.4,877.8,415.9,877.3z M415.9,855.9c3-2.9,6.8-4.4,10.7-4.4
		c2.3,0,4.7,0.5,6.8,1.6l-20.3,20.3c-1-2.1-1.6-4.4-1.6-6.8C411.5,862.6,413,858.8,415.9,855.9z M437.3,877.3
		c-2.9,2.9-6.7,4.4-10.7,4.4c-2.4,0-4.7-0.6-6.8-1.6l20.3-20.3c1,2.1,1.6,4.4,1.6,6.8C441.7,870.6,440.2,874.4,437.3,877.3z"/>
	<path d="M426.6,103.1c5.2,0,10.5-2,14.5-6c3.9-3.9,6-9,6-14.5c0-5.5-2.1-10.6-6-14.5c-3.9-3.9-9-6-14.5-6s-10.6,2.1-14.5,6
		c-3.9,3.9-6,9-6,14.5c0,5.5,2.1,10.6,6,14.5C416.1,101.1,421.4,103.1,426.6,103.1z M437.3,71.9c0.5,0.5,0.9,1,1.4,1.6l-21.2,21.2
		c-0.6-0.4-1.1-0.9-1.6-1.4c-0.5-0.5-0.9-1-1.4-1.6l21.2-21.2C436.3,71,436.8,71.4,437.3,71.9z M437.3,93.3
		c-4.7,4.7-11.8,5.7-17.5,2.8l20.3-20.3C443,81.5,442,88.6,437.3,93.3z M415.9,71.9c3-3,6.8-4.4,10.7-4.4c2.3,0,4.7,0.5,6.8,1.6
		l-20.3,20.3C410.2,83.8,411.2,76.7,415.9,71.9z"/>
	<path d="M474.3,852.1c-3.9,3.9-6,9-6,14.5s2.1,10.6,6,14.5c3.9,3.9,9,6,14.5,6c5.5,0,10.6-2.1,14.5-6c3.9-3.9,6-9,6-14.5
		s-2.1-10.6-6-14.5C495.2,844.2,482.3,844.2,474.3,852.1z M478.1,877.3c-0.5-0.5-0.9-1-1.4-1.6l21.2-21.2c0.6,0.4,1.1,0.9,1.6,1.4
		c0.5,0.5,0.9,1,1.4,1.6l-21.2,21.2C479.1,878.3,478.6,877.8,478.1,877.3z M478.1,855.9c3-2.9,6.8-4.4,10.7-4.4
		c2.3,0,4.7,0.5,6.8,1.6l-20.3,20.3c-1-2.1-1.6-4.4-1.6-6.8C473.6,862.6,475.2,858.8,478.1,855.9z M499.5,877.3
		c-2.9,2.9-6.7,4.4-10.7,4.4c-2.4,0-4.7-0.6-6.8-1.6l20.3-20.3c1,2.1,1.6,4.4,1.6,6.8C503.9,870.6,502.3,874.4,499.5,877.3z"/>
	<path d="M488.8,103.1c5.2,0,10.5-2,14.5-6c3.9-3.9,6-9,6-14.5c0-5.5-2.1-10.6-6-14.5c-3.9-3.9-9-6-14.5-6c-5.5,0-10.6,2.1-14.5,6
		c-3.9,3.9-6,9-6,14.5c0,5.5,2.1,10.6,6,14.5C478.3,101.1,483.5,103.1,488.8,103.1z M499.5,71.9c0.5,0.5,0.9,1,1.4,1.6l-21.2,21.2
		c-0.6-0.4-1.1-0.9-1.6-1.4c-0.5-0.5-0.9-1-1.4-1.6l21.2-21.2C498.4,71,499,71.4,499.5,71.9z M499.5,93.3
		c-4.7,4.7-11.8,5.7-17.5,2.8l20.3-20.3C505.1,81.5,504.2,88.6,499.5,93.3z M478.1,71.9c3-3,6.8-4.4,10.7-4.4c2.3,0,4.7,0.5,6.8,1.6
		l-20.3,20.3C472.4,83.8,473.3,76.7,478.1,71.9z"/>
	<path d="M598.6,852.1c-3.9,3.9-6,9-6,14.5s2.1,10.6,6,14.5c3.9,3.9,9,6,14.5,6s10.6-2.1,14.5-6c3.9-3.9,6-9,6-14.5
		s-2.1-10.6-6-14.5C619.6,844.2,606.6,844.2,598.6,852.1z M602.4,877.3c-0.5-0.5-0.9-1-1.4-1.6l21.2-21.2c0.6,0.4,1.1,0.9,1.6,1.4
		c0.5,0.5,0.9,1,1.4,1.6L604,878.7C603.4,878.3,602.9,877.8,602.4,877.3z M602.4,855.9c3-2.9,6.8-4.4,10.7-4.4
		c2.3,0,4.7,0.5,6.8,1.6l-20.3,20.3c-1-2.1-1.6-4.4-1.6-6.8C597.9,862.6,599.5,858.8,602.4,855.9z M623.8,877.3
		c-2.9,2.9-6.7,4.4-10.7,4.4c-2.4,0-4.7-0.6-6.8-1.6l20.3-20.3c1,2.1,1.6,4.4,1.6,6.8C628.2,870.6,626.6,874.4,623.8,877.3z"/>
	<path d="M613.1,103.1c5.2,0,10.5-2,14.5-6c3.9-3.9,6-9,6-14.5c0-5.5-2.1-10.6-6-14.5c-3.9-3.9-9-6-14.5-6s-10.6,2.1-14.5,6
		c-3.9,3.9-6,9-6,14.5c0,5.5,2.1,10.6,6,14.5C602.6,101.1,607.8,103.1,613.1,103.1z M623.8,71.9c0.5,0.5,0.9,1,1.4,1.6L604,94.7
		c-0.6-0.4-1.1-0.9-1.6-1.4c-0.5-0.5-0.9-1-1.4-1.6l21.2-21.2C622.7,71,623.3,71.4,623.8,71.9z M623.8,93.3
		c-4.7,4.7-11.8,5.7-17.5,2.8l20.3-20.3C629.4,81.5,628.5,88.6,623.8,93.3z M602.4,71.9c3-3,6.8-4.4,10.7-4.4c2.3,0,4.7,0.5,6.8,1.6
		l-20.3,20.3C596.7,83.8,597.6,76.7,602.4,71.9z"/>
	<path d="M722.9,852.1c-8,8-8,21,0,28.9c3.9,3.9,9,6,14.5,6c5.5,0,10.6-2.1,14.5-6c8-8,8-21,0-28.9
		C743.9,844.2,730.9,844.2,722.9,852.1z M726.7,877.3c-0.5-0.5-1-1-1.4-1.6l21.2-21.2c0.6,0.4,1.1,0.9,1.6,1.4
		c0.5,0.5,0.9,1,1.4,1.6l-21.2,21.2C727.7,878.3,727.2,877.8,726.7,877.3z M726.7,855.9c2.9-2.9,6.8-4.4,10.7-4.4
		c2.3,0,4.7,0.5,6.8,1.6l-20.3,20.3C721,867.7,721.9,860.6,726.7,855.9z M748.1,877.3c-2.9,2.9-6.7,4.4-10.7,4.4
		c-2.4,0-4.7-0.6-6.8-1.6l20.3-20.3C753.7,865.5,752.8,872.6,748.1,877.3z"/>
	<path d="M737.4,103.1c5.2,0,10.5-2,14.5-6c8-8,8-21,0-28.9c-3.9-3.9-9-6-14.5-6c-5.5,0-10.6,2.1-14.5,6c-8,8-8,21,0,28.9
		C726.9,101.1,732.1,103.1,737.4,103.1z M748.1,71.9c0.5,0.5,0.9,1,1.4,1.6l-21.2,21.2c-0.6-0.4-1.1-0.9-1.6-1.4
		c-0.5-0.5-1-1-1.4-1.6l21.2-21.2C747,71,747.6,71.4,748.1,71.9z M748.1,93.3c-4.7,4.7-11.8,5.7-17.5,2.8l20.3-20.3
		C753.7,81.5,752.8,88.6,748.1,93.3z M726.7,71.9c2.9-2.9,6.7-4.4,10.7-4.4c2.4,0,4.7,0.6,6.8,1.6l-20.3,20.3
		C721,83.8,721.9,76.7,726.7,71.9z"/>
	<path d="M847.2,852.1c-8,8-8,21,0,28.9c3.9,3.9,9,6,14.5,6c5.5,0,10.6-2.1,14.5-6c8-8,8-21,0-28.9
		C868.2,844.2,855.2,844.2,847.2,852.1z M851,877.3c-0.5-0.5-1-1-1.4-1.6l21.2-21.2c0.6,0.4,1.1,0.9,1.6,1.4c0.5,0.5,0.9,1,1.4,1.6
		l-21.2,21.2C852,878.3,851.5,877.8,851,877.3z M851,855.9c2.9-2.9,6.8-4.4,10.7-4.4c2.3,0,4.7,0.5,6.8,1.6l-20.3,20.3
		C845.3,867.7,846.3,860.6,851,855.9z M872.4,877.3c-2.9,2.9-6.7,4.4-10.7,4.4c-2.4,0-4.7-0.6-6.8-1.6l20.3-20.3
		C878,865.5,877.1,872.6,872.4,877.3z"/>
	<path d="M861.7,103.1c5.2,0,10.5-2,14.5-6c8-8,8-21,0-28.9c-3.9-3.9-9-6-14.5-6c-5.5,0-10.6,2.1-14.5,6c-8,8-8,21,0,28.9
		C851.2,101.1,856.4,103.1,861.7,103.1z M872.4,71.9c0.5,0.5,0.9,1,1.4,1.6l-21.2,21.2c-0.6-0.4-1.1-0.9-1.6-1.4
		c-0.5-0.5-1-1-1.4-1.6l21.2-21.2C871.3,71,871.9,71.4,872.4,71.9z M872.4,93.3c-4.7,4.7-11.8,5.7-17.5,2.8l20.3-20.3
		C878,81.5,877.1,88.6,872.4,93.3z M851,71.9c2.9-2.9,6.7-4.4,10.7-4.4c2.4,0,4.7,0.6,6.8,1.6l-20.3,20.3
		C845.3,83.8,846.3,76.7,851,71.9z"/>
	<path d="M971.5,852.1c-8,8-8,21,0,28.9c3.9,3.9,9,6,14.5,6s10.6-2.1,14.5-6c8-8,8-21,0-28.9C992.5,844.2,979.5,844.2,971.5,852.1z
		 M975.3,877.3c-0.5-0.5-1-1-1.4-1.6l21.2-21.2c0.6,0.4,1.1,0.9,1.6,1.4c0.5,0.5,0.9,1,1.4,1.6l-21.2,21.2
		C976.3,878.3,975.8,877.8,975.3,877.3z M975.3,855.9c2.9-2.9,6.8-4.4,10.7-4.4c2.3,0,4.7,0.5,6.8,1.6l-20.3,20.3
		C969.6,867.7,970.6,860.6,975.3,855.9z M996.7,877.3c-2.9,2.9-6.7,4.4-10.7,4.4c-2.4,0-4.7-0.6-6.8-1.6l20.3-20.3
		C1002.3,865.5,1001.4,872.6,996.7,877.3z"/>
	<path d="M986,103.1c5.2,0,10.5-2,14.5-6c8-8,8-21,0-28.9c-3.9-3.9-9-6-14.5-6s-10.6,2.1-14.5,6c-8,8-8,21,0,28.9
		C975.5,101.1,980.7,103.1,986,103.1z M996.7,71.9c0.5,0.5,0.9,1,1.4,1.6l-21.2,21.2c-0.6-0.4-1.1-0.9-1.6-1.4c-0.5-0.5-1-1-1.4-1.6
		l21.2-21.2C995.6,71,996.2,71.4,996.7,71.9z M996.7,93.3c-4.7,4.7-11.8,5.7-17.5,2.8l20.3-20.3C1002.3,81.5,1001.4,88.6,996.7,93.3
		z M975.3,71.9c2.9-2.9,6.7-4.4,10.7-4.4c2.4,0,4.7,0.6,6.8,1.6l-20.3,20.3C969.6,83.8,970.6,76.7,975.3,71.9z"/>
	<path d="M1095.8,852.1c-8,8-8,21,0,28.9c3.9,3.9,9,6,14.5,6s10.6-2.1,14.5-6c8-8,8-21,0-28.9
		C1116.8,844.2,1103.8,844.2,1095.8,852.1z M1099.6,877.3c-0.5-0.5-1-1-1.4-1.6l21.2-21.2c0.6,0.4,1.1,0.9,1.6,1.4
		c0.5,0.5,0.9,1,1.4,1.6l-21.2,21.2C1100.6,878.3,1100.1,877.8,1099.6,877.3z M1099.6,855.9c2.9-2.9,6.8-4.4,10.7-4.4
		c2.3,0,4.7,0.5,6.8,1.6l-20.3,20.3C1093.9,867.7,1094.9,860.6,1099.6,855.9z M1121,877.3c-2.9,2.9-6.7,4.4-10.7,4.4
		c-2.4,0-4.7-0.6-6.8-1.6l20.3-20.3C1126.7,865.5,1125.7,872.6,1121,877.3z"/>
	<path d="M1110.3,103.1c5.2,0,10.5-2,14.5-6c8-8,8-21,0-28.9c-3.9-3.9-9-6-14.5-6s-10.6,2.1-14.5,6c-8,8-8,21,0,28.9
		C1099.8,101.1,1105.1,103.1,1110.3,103.1z M1121,71.9c0.5,0.5,0.9,1,1.4,1.6l-21.2,21.2c-0.6-0.4-1.1-0.9-1.6-1.4
		c-0.5-0.5-1-1-1.4-1.6l21.2-21.2C1120,71,1120.5,71.4,1121,71.9z M1121,93.3c-4.7,4.7-11.8,5.7-17.5,2.8l20.3-20.3
		C1126.7,81.5,1125.7,88.6,1121,93.3z M1099.6,71.9c2.9-2.9,6.7-4.4,10.7-4.4c2.4,0,4.7,0.6,6.8,1.6l-20.3,20.3
		C1093.9,83.8,1094.9,76.7,1099.6,71.9z"/>
	<path d="M1220.1,852.1c-8,8-8,21,0,28.9c3.9,3.9,9,6,14.5,6c5.5,0,10.6-2.1,14.5-6c8-8,8-21,0-28.9
		C1241.1,844.2,1228.1,844.2,1220.1,852.1z M1223.9,877.3c-0.5-0.5-1-1-1.4-1.6l21.2-21.2c0.6,0.4,1.1,0.9,1.6,1.4
		c0.5,0.5,0.9,1,1.4,1.6l-21.2,21.2C1224.9,878.3,1224.4,877.8,1223.9,877.3z M1223.9,855.9c2.9-2.9,6.8-4.4,10.7-4.4
		c2.3,0,4.7,0.5,6.8,1.6l-20.3,20.3C1218.2,867.7,1219.2,860.6,1223.9,855.9z M1245.3,877.3c-2.9,2.9-6.7,4.4-10.7,4.4
		c-2.4,0-4.7-0.6-6.8-1.6l20.3-20.3C1251,865.5,1250,872.6,1245.3,877.3z"/>
	<path d="M1234.6,103.1c5.2,0,10.5-2,14.5-6c8-8,8-21,0-28.9c-3.9-3.9-9-6-14.5-6c-5.5,0-10.6,2.1-14.5,6c-8,8-8,21,0,28.9
		C1224.1,101.1,1229.4,103.1,1234.6,103.1z M1245.3,71.9c0.5,0.5,0.9,1,1.4,1.6l-21.2,21.2c-0.6-0.4-1.1-0.9-1.6-1.4
		c-0.5-0.5-1-1-1.4-1.6l21.2-21.2C1244.3,71,1244.8,71.4,1245.3,71.9z M1245.3,93.3c-4.7,4.7-11.8,5.7-17.5,2.8l20.3-20.3
		C1251,81.5,1250,88.6,1245.3,93.3z M1223.9,71.9c2.9-2.9,6.7-4.4,10.7-4.4c2.4,0,4.7,0.6,6.8,1.6l-20.3,20.3
		C1218.2,83.8,1219.2,76.7,1223.9,71.9z"/>
	<path d="M603.9,390.7v61.5h9.9V428c0-2.5,0.2-4.8,0.9-6.9c2.1-7.5,8.5-12.8,16.4-12.8c8.3,0,9.8,5.7,9.8,13v24.4
		c0,4.6,1.9,6.5,6.5,6.5h9.7v-8.5H653c-1.4,0-2.3-0.7-2.3-2.3v-22.4c0-13.2-5.5-19.9-17.7-19.9c-10.3,0-17,6.5-19.2,11.6h-0.2
		c0,0,0.2-1.8,0.2-4.3v-20.2c0-4.4-1.9-6.3-6.5-6.3h-9.8v8.5h4.2C603,388.5,603.9,389.2,603.9,390.7z"/>
	<path d="M690.4,453.5c12.3,0,20-7.6,20-7.6l-4.3-7.1c0,0-6.2,6-15.1,6c-9.2,0-17.2-6.2-17.8-17.3h37.8c0,0,0.3-2.8,0.3-4.1
		c0-13.4-7.8-24.3-22.3-24.3c-14.7,0-26,10.6-26,27.1C662.9,441.7,674.1,453.5,690.4,453.5z M688.8,407.1c6.4,0,11.9,4.6,12.2,13.2
		h-27.4C675.1,411.7,681.2,407.1,688.8,407.1z"/>
	<path d="M750.7,420c-8.7,0-31.2,1-31.2,17.7c0,10.3,8.7,15.8,17.6,15.8c12.4,0,16.5-10.2,16.5-10.2h0.2c0,0-0.2,1.3-0.2,3.1
		c0,3.7,1.8,5.9,6.4,5.9h9.3v-8.5h-4.2c-1.4,0-2.3-0.7-2.3-2.3v-22c0-11.5-4.5-20.3-21.3-20.3c-5,0-17.9,1.2-17.9,9.7v5.1h9.3v-3
		c0-3.4,6-4,8.5-4c8.1,0,11.5,3.3,11.5,12.4v0.5H750.7z M753.1,427.3v1.7c0,7.7-5.4,16.5-13.8,16.5c-6.5,0-9.7-4.1-9.7-8.3
		c0-9.5,13.5-9.9,21-9.9H753.1z"/>
	<path d="M780.5,433.3c0,17.3,13.2,19.3,19.8,19.3c2.1,0,3.5-0.2,3.5-0.2v-8.8c0,0-0.9,0.2-2.4,0.2c-3.8,0-11-1.3-11-11.7v-23.7
		h12.4v-8h-12.4v-14.2h-9.7v14.2h-7v8h6.8V433.3z"/>
	<rect x="815.1" y="386" width="6.7" height="7.8"/>
	<path d="M815,409.5v26.1c0,3.5,1.5,4.9,4.9,4.9h7.3v-6.4h-3.2c-1.1,0-1.7-0.5-1.7-1.7v-26.1c0-3.5-1.5-4.9-4.9-4.9h-7.3v6.4h3.2
		C814.4,407.8,815,408.4,815,409.5z"/>
	<path d="M836.2,426.2c0,12.3,8.8,14.4,14,14.6c0.6,0,1.9-0.9,2.9-3.9c0.3-1,0.5-1.9,0.5-2.6c0-0.1-0.1-0.2-0.2-0.2
		c-0.3,0-0.8,0.1-1.3,0.1c-2.9,0-8.3-1-8.3-8.8v-17.9h9.4v-6h-9.4v-10.7h-7.3v10.7h-5.3v6h5.1V426.2z"/>
	<path d="M579.3,402.3c0.3,2.1,1.4,3.8,2.9,5.2c0.4,0.4,0.8,0.8,1.2,1.3c1.3,2,1,5.3-1,6.9c-2.3,2-3.3,4.5-3.3,7.5
		c0,2.8,1,5.2,3,7.1c0.4,0.4,0.8,0.7,1.1,1.2c1.4,1.9,1.3,5.2-0.6,6.9c-0.6,0.6-1.3,1.2-1.7,1.9c-2.3,3.4-2.4,7-0.6,10.7
		c0.5,1.1,1.3,2,2.3,2.7c1,0.7,2.1,0.6,3-0.3c0.8-0.8,0.9-1.9,0.2-2.9c-0.2-0.2-0.3-0.4-0.5-0.6c-1.9-1.7-2.1-5.2-0.4-7.2
		c0.5-0.5,1.1-1,1.5-1.6c1.7-2,2.5-4.3,2.4-6.8c-0.1-2.9-1.2-5.3-3.4-7.2c-0.5-0.5-0.9-1.1-1.2-1.7c-1-2.2-0.3-4.8,1.3-6.3
		c2.3-2,3.4-4.7,3.3-7.8c-0.1-2.3-0.8-4.3-2.3-6.1c-0.3-0.4-0.8-0.7-1.1-1.1c-1.3-1.3-1.8-2.8-1.6-4.7c0.2-1.4,0.9-2.5,1.9-3.5
		c2.1-1.9,3.1-4.4,3.2-7.2c-0.1-0.7-0.1-1.4-0.3-2.1c-0.4-2.1-1.4-3.9-3-5.3c-1.1-1-2.6-0.8-3.4,0.3c-0.7,1-0.6,2.1,0.4,3.1
		c2.4,2.2,2,6.2-0.2,8.1C579.5,395.4,578.7,398.7,579.3,402.3z"/>
	<path d="M570.1,402.3c0.3,2.1,1.4,3.8,2.9,5.2c0.4,0.4,0.8,0.8,1.2,1.3c1.3,2,1,5.3-1,6.9c-2.3,2-3.3,4.5-3.3,7.5
		c0,2.8,1,5.2,3,7.1c0.4,0.4,0.8,0.7,1.1,1.2c1.4,1.9,1.3,5.2-0.6,6.9c-0.6,0.6-1.3,1.2-1.7,1.9c-2.3,3.4-2.4,7-0.6,10.7
		c0.5,1.1,1.3,2,2.3,2.7c1,0.7,2.1,0.6,3-0.3c0.8-0.8,0.9-1.9,0.2-2.9c-0.2-0.2-0.3-0.4-0.5-0.6c-1.9-1.7-2.1-5.2-0.4-7.2
		c0.5-0.5,1.1-1,1.5-1.6c1.7-2,2.5-4.3,2.4-6.8c-0.1-2.9-1.2-5.3-3.4-7.2c-0.5-0.5-0.9-1.1-1.2-1.7c-1-2.2-0.3-4.8,1.3-6.3
		c2.3-2,3.4-4.7,3.3-7.8c-0.1-2.3-0.8-4.3-2.3-6.1c-0.3-0.4-0.8-0.7-1.1-1.1c-1.3-1.3-1.8-2.8-1.6-4.7c0.2-1.4,0.9-2.5,1.9-3.5
		c2.1-1.9,3.1-4.4,3.2-7.2c-0.1-0.7-0.1-1.4-0.3-2.1c-0.4-2.1-1.4-3.9-3-5.3c-1.1-1-2.6-0.8-3.4,0.3c-0.7,1-0.6,2.1,0.4,3.1
		c2.4,2.2,2,6.2-0.2,8.1C570.3,395.4,569.6,398.7,570.1,402.3z"/>
	<path d="M562.6,440.4c-2.3,3.4-2.4,7-0.6,10.7c0.5,1.1,1.3,2,2.3,2.7c1,0.7,2.1,0.6,3-0.3c0.8-0.8,0.9-1.9,0.2-2.9
		c-0.2-0.2-0.3-0.4-0.5-0.6c-1.9-1.7-2.1-5.2-0.4-7.2c0.5-0.5,1.1-1,1.5-1.6c1.7-2,2.5-4.3,2.4-6.8c-0.1-2.9-1.2-5.3-3.4-7.2
		c-0.5-0.5-0.9-1.1-1.2-1.7c-1-2.2-0.3-4.8,1.3-6.3c2.3-2,3.4-4.7,3.3-7.8c-0.1-2.3-0.8-4.3-2.3-6.1c-0.3-0.4-0.8-0.7-1.1-1.1
		c-1.3-1.3-1.8-2.8-1.6-4.7c0.2-1.4,0.9-2.5,1.9-3.5c2.1-1.9,3.1-4.4,3.2-7.2c-0.1-0.7-0.1-1.4-0.3-2.1c-0.4-2.1-1.4-3.9-3-5.3
		c-1.1-1-2.6-0.8-3.4,0.3c-0.7,1-0.6,2.1,0.4,3.1c2.4,2.2,2,6.2-0.2,8.1c-2.9,2.5-3.6,5.8-3,9.4c0.3,2.1,1.4,3.8,2.9,5.2
		c0.4,0.4,0.8,0.8,1.2,1.3c1.3,2,1,5.3-1,6.9c-2.3,2-3.3,4.5-3.3,7.5c0,2.8,1,5.2,3,7.1c0.4,0.4,0.8,0.7,1.1,1.2
		c1.4,1.9,1.3,5.2-0.6,6.9C563.7,439.1,563.1,439.7,562.6,440.4z"/>
</g>
</svg>
