<?xml version="1.0" encoding="utf-8"?>
<!-- Generator: Adobe Illustrator 21.0.0, SVG Export Plug-In . SVG Version: 6.00 Build 0)  -->
<svg version="1.1" id="Layer_1" xmlns="http://www.w3.org/2000/svg" xmlns:xlink="http://www.w3.org/1999/xlink" x="0px" y="0px"
	 viewBox="0 0 1417.3 1417.3" style="enable-background:new 0 0 1417.3 1417.3;" xml:space="preserve">
<g>
	<path d="M1118.8,1225.4H298.9c-58.4,0-106-47.5-106-106V299.6c0-58.4,47.5-106,106-106h819.9c58.4,0,106,47.5,106,106v819.9
		C1224.7,1177.9,1177.2,1225.4,1118.8,1225.4z M298.9,207.8c-50.6,0-91.8,41.2-91.8,91.8v819.9c0,50.6,41.2,91.8,91.8,91.8h819.9
		c50.6,0,91.8-41.2,91.8-91.8V299.6c0-50.6-41.2-91.8-91.8-91.8H298.9z"/>
</g>
<g>
	<path d="M1118.8,1166.7H298.9c-26,0-47.2-21.2-47.2-47.2V299.6c0-26,21.2-47.2,47.2-47.2h819.9c26,0,47.2,21.2,47.2,47.2v819.9
		C1166,1145.5,1144.8,1166.7,1118.8,1166.7z M298.9,259.5c-22.1,0-40.1,18-40.1,40.1v819.9c0,22.1,18,40.1,40.1,40.1h819.9
		c22.1,0,40.1-18,40.1-40.1V299.6c0-22.1-18-40.1-40.1-40.1H298.9z"/>
</g>
</svg>
