<?xml version="1.0" encoding="utf-8"?>
<!-- Generator: Adobe Illustrator 21.0.0, SVG Export Plug-In . SVG Version: 6.00 Build 0)  -->
<svg version="1.1" id="Layer_1" xmlns="http://www.w3.org/2000/svg" xmlns:xlink="http://www.w3.org/1999/xlink" x="0px" y="0px"
	 viewBox="0 0 1417.3 1417.3" style="enable-background:new 0 0 1417.3 1417.3;" xml:space="preserve">
<g>
	<path d="M1204.3,1225.2H212.8c-11.4,0-20.6-9.3-20.6-20.6V213.1c0-11.4,9.3-20.6,20.6-20.6h991.4c11.4,0,20.6,9.3,20.6,20.6v991.4
		C1224.9,1215.9,1215.7,1225.2,1204.3,1225.2z M212.8,206.6c-3.6,0-6.5,2.9-6.5,6.5v991.4c0,3.6,2.9,6.5,6.5,6.5h991.4
		c3.6,0,6.5-2.9,6.5-6.5V213.1c0-3.6-2.9-6.5-6.5-6.5H212.8z"/>
</g>
<g>
	<path d="M1041.3,1058.1H375.8c-9.1,0-16.5-7.4-16.5-16.5V376.1c0-9.1,7.4-16.5,16.5-16.5h665.5c9.1,0,16.5,7.4,16.5,16.5v665.5
		C1057.8,1050.7,1050.4,1058.1,1041.3,1058.1z M375.8,366.7c-5.2,0-9.5,4.2-9.5,9.5v665.5c0,5.2,4.2,9.5,9.5,9.5h665.5
		c5.2,0,9.5-4.2,9.5-9.5V376.1c0-5.2-4.2-9.5-9.5-9.5H375.8z"/>
</g>
<g>
	<path d="M1057.8,827.7H359.3V590.1h698.5V827.7z M366.4,820.6h684.4V597.2H366.4V820.6z"/>
</g>
<g>
	<path d="M414.8,503.8c-12.9,0-23.3-10.5-23.3-23.3c0-12.9,10.5-23.4,23.3-23.4c12.9,0,23.4,10.5,23.4,23.4
		C438.1,493.3,427.6,503.8,414.8,503.8z M414.8,464.2c-9,0-16.3,7.3-16.3,16.3s7.3,16.3,16.3,16.3s16.3-7.3,16.3-16.3
		S423.7,464.2,414.8,464.2z"/>
</g>
<g>
	<path d="M414.8,732.3c-12.9,0-23.3-10.5-23.3-23.4c0-12.9,10.5-23.4,23.3-23.4c12.9,0,23.4,10.5,23.4,23.4
		C438.1,721.8,427.6,732.3,414.8,732.3z M414.8,692.6c-9,0-16.3,7.3-16.3,16.3c0,9,7.3,16.3,16.3,16.3s16.3-7.3,16.3-16.3
		C431,699.9,423.7,692.6,414.8,692.6z"/>
</g>
<g>
	<path d="M414.8,960.6c-12.9,0-23.3-10.5-23.3-23.3c0-12.9,10.5-23.3,23.3-23.3c12.9,0,23.4,10.5,23.4,23.3
		C438.1,950.2,427.6,960.6,414.8,960.6z M414.8,921c-9,0-16.3,7.3-16.3,16.3c0,9,7.3,16.3,16.3,16.3s16.3-7.3,16.3-16.3
		C431,928.3,423.7,921,414.8,921z"/>
</g>
<g>
	<path d="M1002.3,503.8c-12.9,0-23.4-10.5-23.4-23.3c0-12.9,10.5-23.4,23.4-23.4c12.9,0,23.3,10.5,23.3,23.4
		C1025.7,493.3,1015.2,503.8,1002.3,503.8z M1002.3,464.2c-9,0-16.3,7.3-16.3,16.3s7.3,16.3,16.3,16.3c9,0,16.3-7.3,16.3-16.3
		S1011.3,464.2,1002.3,464.2z"/>
</g>
<g>
	<path d="M1002.3,732.3c-12.9,0-23.4-10.5-23.4-23.4c0-12.9,10.5-23.4,23.4-23.4c12.9,0,23.3,10.5,23.3,23.4
		C1025.7,721.8,1015.2,732.3,1002.3,732.3z M1002.3,692.6c-9,0-16.3,7.3-16.3,16.3c0,9,7.3,16.3,16.3,16.3c9,0,16.3-7.3,16.3-16.3
		C1018.6,699.9,1011.3,692.6,1002.3,692.6z"/>
</g>
<g>
	<path d="M1002.3,960.6c-12.9,0-23.4-10.5-23.4-23.3c0-12.9,10.5-23.3,23.4-23.3c12.9,0,23.3,10.5,23.3,23.3
		C1025.7,950.2,1015.2,960.6,1002.3,960.6z M1002.3,921c-9,0-16.3,7.3-16.3,16.3c0,9,7.3,16.3,16.3,16.3c9,0,16.3-7.3,16.3-16.3
		C1018.6,928.3,1011.3,921,1002.3,921z"/>
</g>
<g>
	<rect x="495" y="363.1" width="7.1" height="691.5"/>
</g>
<g>
	<rect x="915" y="363.1" width="7.1" height="691.5"/>
</g>
</svg>
