<?xml version="1.0" encoding="utf-8"?>
<!-- Generator: Adobe Illustrator 21.0.0, SVG Export Plug-In . SVG Version: 6.00 Build 0)  -->
<svg version="1.1" id="Layer_1" xmlns="http://www.w3.org/2000/svg" xmlns:xlink="http://www.w3.org/1999/xlink" x="0px" y="0px"
	 viewBox="0 0 1417.3 1417.3" style="enable-background:new 0 0 1417.3 1417.3;" xml:space="preserve">
<g>
	<path d="M985,96.5H432.3c-7.8,0-14.2,6.3-14.2,14.2v725.8c0,7.8,6.3,14.2,14.2,14.2h17.5V1251c0,10.6,8.6,19.3,19.3,19.3h76.3v27.5
		c0,12.7,10.3,23,23,23H849c12.7,0,23-10.3,23-23v-27.5h76.3c10.6,0,19.3-8.6,19.3-19.3V850.7H985c7.8,0,14.2-6.3,14.2-14.2V110.7
		C999.2,102.9,992.8,96.5,985,96.5z M550.7,1045.6H532c-5.6,0-10.2-4.6-10.2-10.2v-18.7c0-5.6,4.6-10.2,10.2-10.2h18.7
		c5.6,0,10.2,4.6,10.2,10.2v18.7C560.9,1041,556.3,1045.6,550.7,1045.6z M545.3,875.6l-59.1-5.6c-1.5-0.1-2.9,1-3,2.5
		c-0.1,1.5,1,2.9,2.5,3l59.7,5.7v9.2l-59.1-5.6c-1.5-0.1-2.9,1-3,2.5c-0.1,1.5,1,2.9,2.5,3l59.7,5.7v9.4l-58-5.8
		c-1.5-0.1-2.9,1-3,2.5c-0.2,1.5,1,2.9,2.5,3l58.6,5.9v9.5l-58-5.8c-1.5-0.1-2.9,1-3,2.5c-0.2,1.5,1,2.9,2.5,3l58.6,5.9v9.5l-58-5.8
		c-1.5-0.1-2.9,1-3,2.5c-0.2,1.5,1,2.9,2.5,3l58.6,5.9v9.5l-58-5.8c-1.5-0.1-2.9,1-3,2.5c-0.2,1.5,1,2.9,2.5,3l58.6,5.9v9.5l-58-5.8
		c-1.5-0.2-2.9,1-3,2.5c-0.2,1.5,1,2.9,2.5,3l58.6,5.9v9.5l-58-5.8c-1.5-0.1-2.9,1-3,2.5c-0.2,1.5,1,2.9,2.5,3l58.6,5.9v9.5l-58-5.8
		c-1.5-0.1-2.9,1-3,2.5c-0.2,1.5,1,2.9,2.5,3l43.9,4.4c-5.6,0.5-10.4,3.6-13.1,8.2l-30.2-3c-1.5-0.1-2.9,1-3,2.5
		c-0.2,1.5,1,2.9,2.5,3l28.7,2.9c-0.2,1.1-0.3,2.2-0.3,3.3v6.2l-27.8-2.8c-1.5-0.1-2.9,1-3,2.5c-0.2,1.5,1,2.9,2.5,3l28.4,2.8v6.9
		c0,0.9,0.1,1.8,0.2,2.7l-28-2.8c-1.5-0.1-2.9,1-3,2.5c-0.2,1.5,1,2.9,2.5,3l30.6,3.1c2.9,5.1,8.4,8.5,14.7,8.5h13.3v3.8l-58-5.8
		c-1.5-0.2-2.9,1-3,2.5c-0.2,1.5,1,2.9,2.5,3l58.6,5.9v9.5l-58-5.8c-1.5-0.1-2.9,1-3,2.5c-0.2,1.5,1,2.9,2.5,3l58.6,5.9v9.5l-58-5.8
		c-1.5-0.1-2.9,1-3,2.5c-0.2,1.5,1,2.9,2.5,3l58.6,5.9v9.5l-58-5.8c-1.5-0.2-2.9,1-3,2.5c-0.2,1.5,1,2.9,2.5,3l58.6,5.9v9.5l-58-5.8
		c-1.5-0.1-2.9,1-3,2.5c-0.2,1.5,1,2.9,2.5,3l58.6,5.9v9.5l-58-5.8c-1.5-0.1-2.9,1-3,2.5c-0.2,1.5,1,2.9,2.5,3l58.6,5.9v9.5l-58-5.8
		c-1.5-0.2-2.9,1-3,2.5c-0.2,1.5,1,2.9,2.5,3l58.6,5.9v9.5l-58-5.8c-1.5-0.1-2.9,1-3,2.5c-0.2,1.5,1,2.9,2.5,3l58.6,5.9v9.5l-58-5.8
		c-1.5-0.1-2.9,1-3,2.5c-0.2,1.5,1,2.9,2.5,3l58.6,5.9v14.6l-53.6-10.7c-8-1.6-13.8-8.8-13.8-17V850.7h67.4V875.6z M869.6,1045.6
		c-5.6,0-10.2-4.6-10.2-10.2v-18.7c0-5.6,4.6-10.2,10.2-10.2h18.7c5.6,0,10.2,4.6,10.2,10.2v18.7c0,5.6-4.6,10.2-10.2,10.2H869.6z
		 M872,1182.1l57-5.7c1.5-0.2,2.6-1.5,2.5-3c-0.2-1.5-1.5-2.6-3-2.5l-56.5,5.6v-9.5l57-5.7c1.5-0.2,2.6-1.5,2.5-3
		c-0.2-1.5-1.5-2.6-3-2.5l-56.5,5.6v-9.5l57-5.7c1.5-0.2,2.6-1.5,2.5-3c-0.2-1.5-1.5-2.6-3-2.5l-56.5,5.6v-9.5l57-5.7
		c1.5-0.2,2.6-1.5,2.5-3c-0.2-1.5-1.5-2.6-3-2.5l-56.5,5.6v-9.5l57-5.7c1.5-0.2,2.6-1.5,2.5-3c-0.2-1.5-1.5-2.6-3-2.5l-56.5,5.6
		v-9.5l57-5.7c1.5-0.2,2.6-1.5,2.5-3c-0.2-1.5-1.5-2.6-3-2.5l-56.5,5.6v-9.5l57-5.7c1.5-0.2,2.6-1.5,2.5-3c-0.2-1.5-1.5-2.6-3-2.5
		l-56.5,5.6v-9.5l57-5.7c1.5-0.2,2.6-1.5,2.5-3c-0.2-1.5-1.5-2.6-3-2.5L872,1071v-9.5l57-5.7c1.5-0.2,2.6-1.5,2.5-3
		c-0.2-1.5-1.5-2.6-3-2.5L872,1056v-3.7h16.3c6.5,0,12.1-3.6,14.9-9l25.8-2.6c1.5-0.2,2.6-1.5,2.5-3c-0.2-1.5-1.5-2.6-3-2.5
		l-23.4,2.3c0.1-0.7,0.2-1.4,0.2-2.2v-7.4l23.8-2.4c1.5-0.2,2.6-1.5,2.5-3c-0.2-1.5-1.5-2.6-3-2.5l-23.2,2.3v-5.8
		c0-1.3-0.2-2.5-0.4-3.7l24.2-2.4c1.5-0.2,2.6-1.5,2.5-3c-0.2-1.5-1.5-2.6-3-2.5l-25.9,2.6c-3-4.7-8.3-7.9-14.3-7.9h-2.4l43.1-4.3
		c1.5-0.2,2.6-1.5,2.5-3c-0.2-1.5-1.5-2.6-3-2.5l-56.5,5.6v-9.5l57-5.7c1.5-0.2,2.6-1.5,2.5-3c-0.2-1.5-1.5-2.6-3-2.5l-56.5,5.6
		v-9.5l57-5.7c1.5-0.2,2.6-1.5,2.5-3c-0.2-1.5-1.5-2.6-3-2.5l-56.5,5.6V956l57-5.7c1.5-0.2,2.6-1.5,2.5-3c-0.2-1.5-1.5-2.6-3-2.5
		l-56.5,5.6v-9.5l57-5.7c1.5-0.2,2.6-1.5,2.5-3c-0.2-1.5-1.5-2.6-3-2.5l-56.5,5.6v-9.5l57-5.7c1.5-0.2,2.6-1.5,2.5-3
		c-0.2-1.5-1.5-2.6-3-2.5l-56.5,5.6v-9.5l57-5.7c1.5-0.2,2.6-1.5,2.5-3c-0.2-1.5-1.5-2.6-3-2.5l-56.5,5.6v-9.5l57-5.7
		c1.5-0.2,2.6-1.5,2.5-3c-0.2-1.5-1.5-2.6-3-2.5l-56.5,5.6v-9.5l57-5.7c1.5-0.2,2.6-1.5,2.5-3c-0.2-1.5-1.5-2.6-3-2.5l-56.5,5.6
		v-24.4h67.4v318.6c0,8.2-5.7,15.4-13.6,17l-53.7,11.2V1182.1z M469,1256.9c-3.3,0-5.9-2.6-5.9-5.9V850.7h6v318.5
		c0,12.5,8.8,23.3,20.9,25.7l55.3,11v51H469z M849,1307.4H568.4c-5.3,0-9.7-4.3-9.7-9.7v-92.2l1.2-5.8l-1.2-0.2v-149.3
		c5.3-2.9,8.9-8.5,8.9-14.9v-18.7c0-6.4-3.6-12-8.9-14.9V850.7h299.9v153.3c-3.6,3.1-5.9,7.7-5.9,12.8v18.7c0,5.1,2.3,9.7,5.9,12.8
		v249.6C858.6,1303.1,854.3,1307.4,849,1307.4z M954.2,1251c0,3.3-2.6,5.9-5.9,5.9H872v-50.4l55.5-11.5c12-2.5,20.7-13.3,20.7-25.7
		V850.7h6V1251z M981.4,832.8H435.9V114.3h545.4V832.8z"/>
	<path d="M510.5,1200.8c-8.4,0-15.3,6.8-15.3,15.3v12.7c0,8.4,6.8,15.3,15.3,15.3c8.4,0,15.3-6.8,15.3-15.3V1216
		C525.7,1207.6,518.9,1200.8,510.5,1200.8z M519.1,1228.8c0,4.7-3.8,8.6-8.6,8.6c-4.7,0-8.6-3.8-8.6-8.6V1216c0-4.7,3.8-8.6,8.6-8.6
		c4.7,0,8.6,3.8,8.6,8.6V1228.8z"/>
	<path d="M913.4,1207.1h-12.7c-8.4,0-15.2,6.8-15.2,15.3s6.8,15.2,15.2,15.2h12.7c8.4,0,15.2-6.8,15.2-15.2
		S921.8,1207.1,913.4,1207.1z M913.4,1231h-12.7c-4.7,0-8.6-3.8-8.6-8.6c0-4.7,3.8-8.6,8.6-8.6h12.7c4.7,0,8.6,3.8,8.6,8.6
		C921.9,1227.1,918.1,1231,913.4,1231z"/>
	<path d="M709.5,190.1c11.6,0,21-9.4,21-21c0-11.6-9.4-21-21-21c-11.6,0-21,9.4-21,21C688.5,180.7,698,190.1,709.5,190.1z
		 M709.5,153.8c8.5,0,15.4,6.9,15.4,15.4s-6.9,15.4-15.4,15.4s-15.4-6.9-15.4-15.4S701,153.8,709.5,153.8z"/>
	<path d="M705.7,169.6l-4.2,5.1c-1,1.2-0.8,3,0.4,3.9c0.5,0.4,1.1,0.6,1.8,0.6c0.8,0,1.6-0.4,2.2-1l4.2-5.1l5.1,4.2
		c0.5,0.4,1.1,0.6,1.8,0.6c0.8,0,1.6-0.4,2.2-1c1-1.2,0.8-3-0.4-3.9l-5.1-4.2l4.2-5.1c1-1.2,0.8-3-0.4-3.9c-1.2-1-3-0.8-3.9,0.4
		l-4.2,5.1l-5.1-4.2c-1.2-1-3-0.8-3.9,0.4c-1,1.2-0.8,3,0.4,3.9L705.7,169.6z"/>
	<path d="M541.4,1010.9c-8.3,0-15.1,6.8-15.1,15.1c0,8.3,6.8,15.1,15.1,15.1c8.3,0,15.1-6.8,15.1-15.1
		C556.5,1017.7,549.7,1010.9,541.4,1010.9z M541.4,1037.8c-6.5,0-11.8-5.3-11.8-11.8s5.3-11.8,11.8-11.8s11.8,5.3,11.8,11.8
		S547.9,1037.8,541.4,1037.8z"/>
	<path d="M894.1,1026.1c0-8.3-6.8-15.1-15.1-15.1c-8.3,0-15.1,6.8-15.1,15.1c0,8.3,6.8,15.1,15.1,15.1
		C887.3,1041.2,894.1,1034.4,894.1,1026.1z M879,1037.8c-6.5,0-11.8-5.3-11.8-11.8s5.3-11.8,11.8-11.8c6.5,0,11.8,5.3,11.8,11.8
		S885.5,1037.8,879,1037.8z"/>
</g>
</svg>
