<?xml version="1.0" encoding="utf-8"?>
<!-- Generator: Adobe Illustrator 21.0.0, SVG Export Plug-In . SVG Version: 6.00 Build 0)  -->
<svg version="1.1" id="Layer_1" xmlns="http://www.w3.org/2000/svg" xmlns:xlink="http://www.w3.org/1999/xlink" x="0px" y="0px"
	 viewBox="0 0 1417.3 1417.3" style="enable-background:new 0 0 1417.3 1417.3;" xml:space="preserve">
<g>
	<path d="M1196.2,1226.2H219.5c-16.1,0-29.2-13.1-29.2-29.2V220.3c0-16.1,13.1-29.2,29.2-29.2h976.7c16.1,0,29.2,13.1,29.2,29.2
		V1197C1225.4,1213.1,1212.3,1226.2,1196.2,1226.2z M219.5,205.3c-8.3,0-15,6.7-15,15V1197c0,8.3,6.7,15,15,15h976.7
		c8.3,0,15-6.7,15-15V220.3c0-8.3-6.7-15-15-15H219.5z"/>
</g>
<g>
	<g>
		<rect x="686.6" y="926.2" width="43" height="43"/>
	</g>
	<g>
		<g>
			<path d="M612.7,1004.7H803V894.2H612.7V1004.7z M682.1,924c0-1.2,1-2.2,2.2-2.2h47.4c1.2,0,2.2,1,2.2,2.2v47.4
				c0,1.2-1,2.2-2.2,2.2h-47.4c-1.2,0-2.2-1-2.2-2.2V924z"/>
		</g>
		<g>
			<path d="M605.6,887.1h204.4h193.8V412.6h-592v474.5H605.6z M675.1,743.1H634c-0.5-0.1-2.3-2.2-5.4-6.4c3.9-4.2,6.1-6.4,6.6-6.4
				h41.2c0.5,0.1,2.3,2.2,5.4,6.4C677.8,740.9,675.7,743.1,675.1,743.1z M758.8,743.1h-41.2c-0.5-0.1-2.3-2.2-5.4-6.4
				c3.9-4.2,6.1-6.4,6.6-6.4h41.2c0.5,0.1,2.3,2.2,5.4,6.4C761.5,740.9,759.3,743.1,758.8,743.1z M842.9,743.1h-41.2
				c-0.5-0.1-2.3-2.2-5.4-6.4c3.9-4.2,6.1-6.4,6.6-6.4h41.2c0.5,0.1,2.3,2.2,5.4,6.4C845.6,740.9,843.5,743.1,842.9,743.1z
				 M801.5,677.9c2.1-2.5,4.2-4.6,6.1-6.4h42c1.6,1.8,3.3,3.9,5,6.4c-2.1,2.5-4.2,4.6-6.1,6.4h-42
				C804.9,682.6,803.2,680.5,801.5,677.9z M862.9,687l-3.6,41.2c-0.1,0.5-2.4,2.5-7,6c-3.9-3.5-5.9-5.5-5.9-6L850,687
				c0.1-0.5,2.4-2.5,7-6C860.9,684.5,862.8,686.5,862.9,687z M813.2,612.8h41.2c0.5,0.1,2.3,2.2,5.4,6.4c-3.9,4.2-6.1,6.4-6.6,6.4
				h-41.2c-0.5-0.1-2.3-2.2-5.4-6.4C810.5,615,812.7,612.8,813.2,612.8z M796.9,627.8c0.1-0.5,2.4-2.5,7-6c3.9,3.5,5.9,5.5,5.9,6
				l-3.6,41.2c-0.1,0.5-2.4,2.5-7,6c-3.9-3.5-5.9-5.5-5.9-6L796.9,627.8z M784.7,738.1c-2.4,2.6-4,3.9-5,3.9h-1.5
				c-0.9,0-2.4-1.3-4.3-3.9l0-0.3c2.4-2.6,4-3.9,5-3.9h1.5c0.9,0,2.4,1.3,4.3,3.9L784.7,738.1z M783.9,627.8l-3.6,41.2
				c-0.1,0.5-2.4,2.5-7,6c-3.9-3.5-5.9-5.5-5.9-6l3.6-41.2c0.1-0.5,2.4-2.5,7-6C781.9,625.3,783.8,627.3,783.9,627.8z M729,612.8
				h41.2c0.5,0.1,2.3,2.2,5.4,6.4c-3.9,4.2-6.1,6.4-6.6,6.4h-41.2c-0.5-0.1-2.3-2.2-5.4-6.4C726.3,615,728.5,612.8,729,612.8z
				 M723.4,671.5h42c1.6,1.8,3.3,3.9,5,6.4c-2.1,2.5-4.2,4.6-6.1,6.4h-42c-1.6-1.8-3.3-3.9-5-6.4
				C719.4,675.5,721.5,673.3,723.4,671.5z M707.5,686.5c0.1-0.5,2.4-2.5,7-6c3.9,3.5,5.9,5.5,5.9,6l-3.6,41.2c-0.1,0.5-2.4,2.5-7,6
				c-3.9-3.5-5.9-5.5-5.9-6L707.5,686.5z M700.2,627.8l-3.6,41.2c-0.1,0.5-2.4,2.5-7,6c-3.9-3.5-5.9-5.5-5.9-6l3.6-41.2
				c0.1-0.5,2.4-2.5,7-6C698.2,625.3,700.2,627.3,700.2,627.8z M645.4,612.8h41.2c0.5,0.1,2.3,2.2,5.4,6.4c-3.9,4.2-6.1,6.4-6.6,6.4
				h-41.2c-0.5-0.1-2.3-2.2-5.4-6.4C642.7,615,644.9,612.8,645.4,612.8z M639.8,671.5h42c1.6,1.8,3.3,3.9,5,6.4
				c-2.1,2.5-4.2,4.6-6.1,6.4h-42c-1.6-1.8-3.3-3.9-5-6.4C635.8,675.5,637.9,673.3,639.8,671.5z M623.9,686.5c0.1-0.5,2.4-2.5,7-6
				c3.9,3.5,5.9,5.5,5.9,6l-3.6,41.2c-0.1,0.5-2.4,2.5-7,6c-3.9-3.5-5.9-5.5-5.9-6L623.9,686.5z"/>
		</g>
		<g>
			<path d="M810.1,894.8v109.9h193.8V894.8H810.1z M926.5,949.7L885.3,975c-0.4,0.2-0.8,0.4-1.2,0.4c-0.8,0-1.6-0.4-2-1.1
				c-0.7-1.1-0.3-2.6,0.8-3.3l37.9-23.3l-37.9-23.3c-1.1-0.7-1.5-2.2-0.8-3.3c0.7-1.1,2.2-1.5,3.3-0.8l41.2,25.3
				c0.7,0.4,1.1,1.2,1.1,2C927.6,948.5,927.2,949.3,926.5,949.7z"/>
		</g>
		<g>
			<path d="M605.6,894.8H411.8v109.9h193.8V894.8z M534.9,974.3c-0.4,0.7-1.2,1.1-2,1.1c-0.4,0-0.9-0.1-1.2-0.4l-41.2-25.3
				c-0.7-0.4-1.1-1.2-1.1-2c0-0.8,0.4-1.6,1.1-2l41.2-25.3c1.1-0.7,2.6-0.3,3.3,0.8c0.7,1.1,0.3,2.6-0.8,3.3l-37.9,23.3l37.9,23.3
				C535.3,971.7,535.6,973.1,534.9,974.3z"/>
		</g>
	</g>
</g>
</svg>
