<svg height="960" viewBox="0 0 960 960" width="960" xmlns="http://www.w3.org/2000/svg"><path d="m121.770571 102.171478.177429.018522.03661-.00283c2.348474-.116596 4.707643-.130124 7.071725-.039436l1.013461.04525 751 38.254745c42.545829 2.167217 75.930204 37.295423 75.930204 79.896413v535.62059c0 43.2766-34.414673 78.707319-77.672961 79.966148l-751 21.854324c-.775475.022566-1.551236.033851-2.327039.033851-4.878303 0-9.719085-.441371-14.472474-1.312832l-.442526-.084223-37.2130248-5.227796c-39.100578-5.492297-68.28343445-38.665997-68.8719752-78.027615v-589.172533c0-42.372265 33.0385851-77.395312 75.338868-79.864096l35.330566-2.062008c2.066731-.120621 4.10427-.082504 6.101137.103526zm3.470043 40.01016-.654491.003831c-1.196961.016705-2.382313.086506-3.553664.207245-1.022702.126352-2.033861.291941-3.032184.494929l-.000126-.064028c-17.857287 3.243268-31.8023185 18.415537-32.7649103 37.325318-.0344776.6773-.0517248 1.355368-.0517248 2.033545v595.731884c0 18.495664 12.5532344 34.059363 29.6044491 38.635842l2.939366.412363c2.669251.56131 5.43649.856488 8.272671.856488.387901 0 .775782 0 1.163519-.016926l751-21.854323c4.271664-.124307 8.370856-.915043 12.199088-2.270811 15.418083-5.582449 26.375413-20.351428 26.375413-37.618508v-535.618547c0-21.301019-16.692981-38.865361-37.966455-39.948275l-751.554506-38.257462c-.441257-.022462-.881207-.037685-1.319734-.045773zm-46.7761941 2.346632-.1643644.027912c-19.0125194 3.209837-33.3000555 19.734771-33.3000555 39.437874v587.977884c0 18.38738 12.4878429 34.185049 29.9153204 38.71043-6.1548921-9.419782-9.7318065-20.676178-9.7318065-32.768008v-595.731884c0-1.017266.0258708-2.034367.0775872-3.050317.669231-13.146811 5.5218959-25.089254 13.2033188-34.603891zm229.5349541 249.421663 1.002011.001235 45.293228.438386c33.344789.322739 60.229025 28.268157 60.229025 62.311814v46.642669c0 34.043657-26.884236 61.989075-60.229025 62.311814l-45.293228.438386c-33.466122.323913-60.422594-27.696591-60.422594-62.311814v-47.519441c0-34.269071 26.420038-62.074657 59.420583-62.313049zm205.182734 2.016389 1.000164.001422 45.293228.438386c33.283674.322147 60.229025 27.586464 60.229025 60.921072v45.391001c0 33.334608-26.945351 60.598925-60.229025 60.921072l-45.293228.438386c-33.403338.323306-60.422593-27.01579-60.422593-60.921072v-46.267773c0-33.566229 26.481572-60.696939 59.422429-60.922494zm198.846806 2.016389.99832.001608 45.293228.438386c33.222722.321558 60.229025 26.901236 60.229025 59.530331v44.139333c0 32.629095-27.006303 59.208773-60.229025 59.53033l-45.293228.438386c-33.340621.322699-60.422593-26.331452-60.422593-59.53033v-45.016105c0-32.866889 26.543041-59.319292 59.424273-59.531939zm-443.450123 58.280271v47.519441c0 23.705359 18.106794 42.526868 40.229026 42.31275l45.293228-.438386c22.243564-.215292 40.422593-19.111888 40.422593-42.31275v-46.642669c0-23.200862-18.179029-42.097458-40.422593-42.31275l-45.293228-.438386c-22.122232-.214118-40.229026 18.607391-40.229026 42.31275zm205.180888.625834v46.267773c0 22.879129 18.044009 41.136734 40.229025 40.922009l45.293228-.438386c22.30468-.215884 40.422593-18.548268 40.422593-40.922009v-45.391001c0-22.373742-18.117913-40.706125-40.422593-40.922009l-45.293228-.438386c-22.185016-.214725-40.229025 18.04288-40.229025 40.922009zm198.844962.625834v45.016105c0 22.049363 17.981292 39.746599 40.229025 39.531267l45.293228-.438386c22.365632-.216473 40.422593-17.988184 40.422593-39.531267v-44.139333c0-21.543083-18.056961-39.314794-40.422593-39.531267l-45.293228-.438386c-22.247733-.215333-40.229025 17.481904-40.229025 39.531267zm-349.551762-32.007003 17.11046.098318c24.47578.138871 44.164814 20.605074 44.164814 45.572191v17.689093c0 24.967116-19.689034 45.43332-44.164499 45.572189l-17.111374.098323c-24.546836.137877-44.278003-20.372338-44.278003-45.573429v-17.883259c0-25.201091 19.731167-45.711306 44.278602-45.573426zm205.180896 1.182103 17.110452.098345c24.414314.138523 44.164813 20.122817 44.164813 44.626487v17.216241c0 24.503669-19.750499 44.487964-44.16449 44.626485l-17.111391.09835c-24.484394.137493-44.277995-19.890635-44.277995-44.627752v-17.410407c0-24.737117 19.793601-44.765245 44.278611-44.627749zm198.844971 1.182102 17.110443.098374c24.352992.138174 44.164813 19.637022 44.164813 43.680782v16.743389c0 24.04376-19.811821 43.542608-44.164481 43.68078l-17.111408.09838c-24.422041.137107-44.277987-19.405397-44.277987-43.682077v-16.937555c0-24.27668 19.855946-43.819184 44.27862-43.682073zm-404.139371 17.635803c-13.253405-.074452-24.165098 11.26807-24.165098 25.573418v17.883259c0 14.305348 10.911693 25.647869 24.164498 25.573421l17.11109-.097991c13.324301-.0756 24.278288-11.461965 24.278288-25.572513v-17.689093c0-14.110548-10.953987-25.496913-24.278602-25.572515zm205.180895 1.1821c-13.315854-.074778-24.165106 10.903023-24.165106 24.627744v17.410407c0 13.724721 10.849252 24.702522 24.16449 24.627747l17.111099-.098022c13.385766-.075948 24.278287-11.097409 24.278287-24.626808v-17.216241c0-13.529399-10.892521-24.55086-24.278611-24.62681zm198.84497 1.182099c-13.378217-.075103-24.165114 10.541514-24.165114 23.682071v16.937555c0 13.140557 10.786897 23.757174 24.164481 23.682075l17.111107-.098054c13.447089-.076296 24.278288-10.736392 24.278288-23.681104v-16.743389c0-12.944712-10.831199-23.604808-24.27862-23.681106zm-192.809618-208.684209c1.689151-1.423749 4.212656-1.208599 5.636406.480552l18.762289 22.259773c.642333.76207.977029 1.736487.938537 2.732409-.085318 2.207491-1.944007 3.927852-4.151498 3.842533l-37.546236-1.451143c-.936333-.036189-1.830246-.39995-2.525802-1.027829-1.639837-1.48028-1.769183-4.009635-.288902-5.649472l18.783946-20.808629c.121684-.1348.252406-.261157.39126-.378194z"/></svg>