<svg height="949" viewBox="0 0 960 949" width="960" xmlns="http://www.w3.org/2000/svg"><path d="m474.538149 2.0000072 3.242122.00963152c1.083457.002471 2.161433.00538143 3.232575.00873114 1.241243.00382457 2.491831.00833188 3.769609.01358648l2.565197.01157998c.828497.00382013 1.688003.00819809 2.617662.01329761 1.172475.00673446 2.195011.01287164 3.171467.01909453 48.943872.30928114 97.890209 1.57060194 146.872251 3.78538415l6.290762.28979757c26.877029 1.26131548 50.762607 15.84971262 64.381419 37.97163902l.282787.4652508.163643.0031749c3.68968.0607071 7.510662.1236475 11.461727.1888012l.92663.0150239.400565-.3577782c7.951965-7.0048507 18.387349-11.238487 29.777129-11.2243496l.744149.0069595 61.223362 1.0686578c14.660927.2559074 27.561677 7.4953947 35.586724 18.4913327l.132071.1841778.177987.0625509c37.522431 13.3940219 66.360224 45.5767306 74.634355 85.9707631l.300617 1.518605c16.16707 84.620176 25.735116 145.146515 28.742844 182.435986 1.832678 22.721334 2.736767 55.388403 2.763655 98.392191v3.812965c-.011525 19.930115-.207038 42.047736-.586256 66.366391l-.037439 2.372626c-1.137219 71.185363-46.764176 134.024021-114.101615 157.142709l-91.836148 31.526213v65.675l34.561053 21.702205c17.306631 10.867609 27.879624 29.787214 28.089353 50.193706l.00318.618827v23.963799c0 20.18674-10.151106 39.020408-27.013305 50.118639l-31.284915 20.590862c-9.402144 6.18823-20.34708 9.601721-31.581358 9.864899l-.649008.011063-.149531.201432c-10.202423 13.492841-26.282239 22.210042-44.291354 22.494575h-59.705837c-18.36756 0-34.80891-8.78054-45.178586-22.494575l-.146692-.196432h-208.232l-.07389.101477c-10.050593 13.508531-26.036249 22.297856-44.0272 22.58953h-62.082609c-18.357648 0-34.710297-8.855856-44.9284-22.58953l-.091901-.124477-.477478-.01361c-10.753813-.37785-21.218199-3.64177-30.28967-9.461204l-.589632-.383148-31.284915-20.590862c-16.862199-11.098231-27.013305-29.931899-27.013305-50.118639v-23.963799c0-20.642283 10.611088-39.83515 28.092533-50.812533l33.965467-21.329205.000388-497.107048c0-2.496393.233698-4.986693.697698-7.438349l.163191-.815742.343723-1.629861-.407417-.656752c-9.398633-15.190963-16.656651-28.909732-21.784888-41.345246l-.346353-.845889-.067821-.167929-.481201-1.199287-.065739-.164898c-8.423047-21.265161-15.838824-51.398269-22.731018-91.252762l-.658943-3.847847c-4.634879-27.4144041 13.831159-53.3960303 41.245882-58.0312628 2.771827-.4686558 5.578839-.7045155 8.391695-.7045155l36.906803-.0006117.081247-.1287665c13.526504-21.3662318 36.715881-35.50940875 62.853522-37.07160662l1.033265-.05511906 6.290151-.2897401c48.945823-2.2131302 97.892061-3.47453863 146.850423-3.7842767 1.326071-.00799158 2.243241-.01336541 3.157909-.01841215.819144-.00471751 1.671939-.00915915 2.619959-.01370428.952665-.00441653 1.781106-.00808618 2.57182-.01135228 1.232973-.00516748 2.485245-.00971741 3.76431-.01370221 1.087515-.00335606 2.161561-.00624154 3.238283-.00867997l3.498505-.00963293zm-144.19971 902.8800868h-80.144867c2.655078 1.962658 5.937401 3.119906 9.481729 3.119906h61.181408c3.544329 0 6.826652-1.157248 9.48173-3.119906zm357.586352.000433h-78.198421c2.73456 1.967079 6.085832 3.119473 9.689908 3.119473h58.818605c3.604076 0 6.955348-1.152394 9.689908-3.119473zm75.757209-46.76652-588.588062.001974c.059071.045937.118362.091585.177871.136941l29.186188 22.245055c3.750724 2.858717 8.142507 4.382201 12.632677 4.382201h504.59564c4.49017 0 8.881953-1.523484 12.632677-4.382201l29.186188-22.245055zm10.168-32.169-602.370543.000312v12.169l602.300528.000255c.046992-.691973.070804-1.388978.070804-2.089658zm-31.891-36.425-544.138942.000282c-1.343557.976999-3.472568 2.100738-6.017678 3.346966l-17.438202 10.949972c-1.00585.631618-1.943463 1.344831-2.806428 2.12804h595.976086c-.862965-.783209-1.800578-1.496422-2.806428-2.12804zm-276.382563-121.347883-1.820425.000556c-56.921151 0-135.811079-1.646044-236.695958-4.937315l-.001666 91.699576c0 6.627417 5.372583 12 12 12h-.200474c-.470347 0-.939501.016585-1.406635.049518l-.016601.00246c.187351.008689.375823.013081.565322.013081h461c.407841 0 .81093-.020346 1.208307-.060078l.043378-.004973-.812706-.000008c.52194 0 1.036096-.033323 1.540459-.097956 5.685764-.943396 10.020562-5.883967 10.020562-11.836985l-.002624-91.897881c-106.032637 3.344716-187.829911 5.034968-245.420939 5.070005zm7.945563-626.172124h-9.274612l-3.446272.0095675c-1.06413.0024125-2.127911.0052812-3.191072.0085621-1.239673.0038621-2.479347.0083413-3.720107.0135414-.851819.0035186-1.703415.0073304-2.554024.0112737-.858037.0041142-1.716075.008524-2.575037.0134708-1.049517.0057922-2.098694.0120303-3.147212.0183492-48.428108.3063851-96.856338 1.5544438-145.284689 3.744176l-6.256301.2881952c-12.665326.5943728-24.00209 7.1075684-30.965157 17.1148644l11.055051.0001881c14.359402.0065069 25.994724 11.652375 25.988223 26.011777 0 .9045251-.048024 1.8084127-.142643 2.7079754-2.252993 21.4712532-5.632706 39.4699772-10.251408 54.1411442l-.267839.842722-.402685 1.246211c-7.235816 22.242417-21.219151 52.986469-42.029632 92.634709-4.115187 7.840276-12.242784 11.439445-19.97277 10.581427l-.025426.117798.002303 391.718779c99.927253 3.263967 178.230229 4.912833 234.883414 4.947394l1.811907.000555c57.548598 0 139.972978-1.693263 247.242914-5.080569l.001675-69.561475c.239224-22.549402.4355-44.071258.588831-64.565567-.626978-34.284876-.434571-68.924037.404331-110.310339-.045452-42.244619-.376556-77.667326-.992667-106.270938l-.001096-40.859038c-4.298743-55.608372-9.171932-96.311928-14.619566-122.11067-2.054528-9.729772-4.683274-19.671968-7.886096-29.8265351-1.338465-5.2080778-2.737542-10.3523101-4.197233-15.4326972-.273167-.0026879-.543695-.007104-.813073-.0115006l-.106898-.395458c-.159404-.0026053-.318411-.0052039-.477019-.0077957-.754976-2.8353474-1.52604-5.6577948-2.313193-8.4673422-4.652343-16.6027309-19.420066-28.3558575-36.643397-29.1632287l-6.265856-.2883482c-45.798601-2.0688795-91.597094-3.2976525-137.394807-3.685685-.980914-.0084097-1.961191-.0162865-2.941469-.023778-.090156-.0007005-.180315-.0013977-.270449-.0022737l.410957.0033681c-.327287-.0025555-.654607-.0050675-.982511-.0079988l-2.983912-.0211479c-.446864-.0029311-.893678-.005757-1.34042-.0084659-.885952-.0056417-1.772147-.0109659-2.659271-.0161168-.916665-.0055103-1.832978-.0101943-2.749268-.0145056-.107299-.0004294-.214245-.0009291-.321178-.0014217-.442657-.0021328-.885374-.0041866-1.328293-.0061756l.979507.0045115c-.434473-.0020525-.869004-.0040288-1.303704-.0060132-.305992-.0012952-.611559-.0026162-.917285-.0039129-1.238966-.0050867-2.477931-.0095585-3.716765-.0133718-1.066753-.0033329-2.133856-.0062077-3.202041-.0086428l-.96276-.003541zm231.646311 42.4985904.354189 1.2778869c.533303 1.9500135 1.058088 3.9085946 1.574357 5.8757417l.659143 2.541781-.03-.117.434987 1.3921035c2.933344 9.4776605 5.39908 18.8040755 7.39502 27.9797855l.392923 1.833132c2.094866 9.920804 4.093171 21.834879 6.000262 35.760822 12.89159.329082 36.640746.90448 71.242988 1.728817l1.080986.025824c23.096423.552168 42.022376 18.504664 43.792246 41.539764l20.681855 269.166502c2.85056 37.098943-18.480218 71.823521-52.860505 86.052123-6.130619 2.537214-6.130619 2.537214-12.261238 5.074428-10.566715 4.373133-31.399079 12.185676-62.624048 23.490136l-.00018 55.813401c.917599.525635 1.745207 1.192906 2.45214 1.973006l95.88209-32.963565c51.373016-17.661009 86.176683-65.613504 87.044974-119.930574l.037357-2.366398c.376099-24.136499.569961-46.070707.581587-65.802626v-3.791581c-.02572-42.032239-.902671-73.777193-2.630879-95.234864-2.857091-35.474052-12.231628-94.866301-28.123638-178.176741-4.84776-25.413107-22.030868-45.876132-44.675093-55.6048414-1.585945-.6552416-3.197471-1.2583726-4.832627-1.8072356-4.211883 7.3657791-12.20379 12.267702-21.284855 12.109191l-63.180663-1.102823c-10.427926-.18202-19.187656-6.9826831-22.344787-16.3277977-8.884055-.1471816-17.136761-.2831461-24.758591-.4083979zm25.371211 96.7675746.006124.08066c.174675 2.383404.383006 4.656543.639796 7.108134l.079269.749787.009991.093591.01371.128165c.002643.024663.005816.054263.010046.093729.034801.32435.106229.980895.181013 1.666811l.049988.458305c.091219.836018.176406 1.615384.194817 1.785204.177868 1.640653.319067 2.989561.458168 4.396667.35738 3.615148.665212 7.285479.957882 11.577771.325371 4.771889.623894 10.217253.902377 16.602653 1.354276 31.052509 1.070701 51.796549-1.013656 129.516518-.411284 15.335647-.758363 29.700682-1.035047 43.325924.03547 32.610524-.099043 69.260313-.402759 109.94959.335863 18.282837.906921 36.458052 1.739434 55.515153l.072847 1.656338.421414-.152573c25.33515-9.222975 42.641341-15.746847 51.831519-19.53561l.320989-.132586c6.130618-2.537213 6.130618-2.537213 12.261237-5.074427 26.384872-10.919625 42.755004-37.56872 40.567365-66.040002l-20.681858-269.166532c-.983262-12.797295-11.497681-22.770904-24.328852-23.077659l-1.080148-.025805c-27.378392-.652241-47.964662-1.148692-61.760946-1.489406zm-456.386014-98.0439766-18.895195.0002779c-.016294.0610812-.032582.1221684-.048861.1832615l-1.02021-.0008713c-.621329 2.3286827-1.231799 4.6660732-1.831408 7.0121715-.371572 1.4538547-.73895 2.9109579-1.102158 4.3714045-.344944 1.3870033-.68633 2.7778566-1.02395 4.1717292-.179406.7406831-.357793 1.4824023-.535117 2.2249743-.151238.633337-.301808 1.267738-.451603 1.902761-.155129.657639-.309351 1.315617-.462743 1.974261-.657932 2.825072-1.300636 5.6626-1.928062 8.512377-.333396 1.514285-.662538 3.032311-.987365 4.553798-.211023.988423-.420309 1.97871-.627772 2.970459-.205425.982007-.409018 1.965226-.610824 2.949877-.691277 3.372868-1.361604 6.76258-2.010971 10.169099-.261126 1.369847-.518789 2.74201-.773064 4.116888-.87107 4.709931-1.7023 9.451198-2.49379 14.22433-.384124 2.316486-.758898 4.640539-1.124311 6.972098-.213374 1.36146-.423526 2.725278-.630487 4.091655-.369374 2.438656-.728508 4.884922-1.077482 7.339334-.501149 3.524684-.981355 7.066236-1.440609 10.624588-.494968 3.835077-.965554 7.689292-1.411808 11.563018-.209053 1.814698-.412724 3.633293-.611057 5.456168-.493467 4.535452-.953866 9.097134-1.381225 13.685309-.278484 2.98982-.542969 5.991246-.793421 9.003924-.083778 1.007767-.16598 2.016717-.246612 3.026925-.147245 1.844782-.289252 3.693721-.426023 5.546857 19.855215-37.93697 33.141358-67.231582 39.859922-87.884002l.390282-1.207952c4.276149-13.327119 7.496161-30.302823 9.660034-50.9271113.02209-.2075646.033173-.416154.033173-.6248905.0015-3.3137082-2.683575-6.0012162-5.997283-6.0027178zm-40.643088.1826105-42.153296.0008128c-.577413 0-1.153806.0484785-1.723139.1447403-5.632382.952313-9.426352 6.2904105-8.47407 11.9229743l.644551 3.7632716c6.37725 36.8765181 13.123926 64.4196471 20.240028 82.6293861.056576.144883.113266.288652.16998.431829l.481069 1.198919c2.494578 6.136441 5.73458 12.85655 9.720055 20.160395l.184978-1.810492c.110834-1.079281.223485-2.15715.337954-3.233607.557191-5.239781 1.157446-10.446059 1.800789-15.618882.832925-6.697176 1.738081-13.338314 2.715499-19.923353.254778-1.716483.514503-3.429403.779141-5.13851.94206-6.084065 1.946265-12.119242 3.012735-18.106091.234073-1.314011.471094-2.62542.711115-3.934502.657909-3.588268 1.338351-7.159075 2.041331-10.712392.174037-.8797.349418-1.758136.526179-2.635501 1.192647-5.919782 2.448197-11.790973 3.766642-17.613365.139214-.614783.279104-1.228911.419694-1.842495.145479-.634915.291707-1.269244.438686-1.902991.504357-2.1747037 1.017582-4.3426682 1.539649-6.5037735.203187-.8411003.407719-1.6811817.613591-2.5202241.719203-2.9311665 1.454843-5.8500013 2.206839-8.7561495z"/></svg>