<svg height="960" viewBox="0 0 960 960" width="960" xmlns="http://www.w3.org/2000/svg"><g fill="#000" fill-rule="evenodd"><path d="m470.377984 4.17506631c129.680708 0 234.807692 105.12698469 234.807692 234.80769269v634.275492c0 24.995625-12.57826 45.595783-33.558902 58.930183-14.737059 9.366245-33.099973 15.098422-56.130779 18.780359l-.925514.146449c-17.946058 2.810569-38.964708 4.417622-65.018503 5.235301l-2.384824.072763-3.563927.100719-3.572572.091007c-13.789343.331834-28.384548.458139-50.870041.493051l-19.979279.010984h-12.774268c-20.744579-.026287-34.367365-.103285-46.496146-.313856l-7.061141-.141129-3.341158-.079904c-1.440986-.036257-2.884271-.074868-4.340269-.115974l-3.136959-.092009c-26.323602-.805947-47.476496-2.404001-65.55018-5.214831-23.33974-3.629809-41.915057-9.311553-56.818752-18.636649-21.288114-13.319763-34.09217-34.031248-34.09217-59.266464v-634.275492c0-129.680708 105.126984-234.80769269 234.807692-234.80769269zm-194.806206 673.82161469-.001486 195.26157c0 43.860851 87.218374 43.860851 194.807692 43.860851h15.850786c100.176023-.107905 178.956906-2.175498 178.956906-43.860851l-.000384-195.251185-2.657792.224579c-58.509139 4.882417-119.423999 7.322955-182.745007 7.322955-64.340262 0-132.409885-2.519744-204.210715-7.557919zm191.415538-633.7920364-3.039711.074549c-104.612786 3.3927561-188.377313 89.2660334-188.377313 194.7035654l.00039 418.988746c.232351.000245.466317.008524.701613.025082 71.604874 5.039118 139.442228 7.558013 203.510198 7.558013 64.030901 0 125.548951-2.515986 184.553698-7.546537.285234-.024318.568691-.036412.849854-.036718l.0004-152.829169c-5.827151 5.629154-12.896554 10.306294-21.194543 13.922604-28.099178 12.245779-69.326074 11.914554-123.441031-1.437228-60.937584-15.035128-99.351528-31.231892-125.818137-55.31918-29.465501-26.816582-43.218763-63.38903-43.218763-115.184724v-119.343777c0-60.819157 17.073919-109.510942 48.724214-142.9243931 18.307228-19.3270759 41.039919-32.9898516 66.749131-40.6508333zm51.388684 12.7513554-1.110854.0042697c-40.741033.2811962-76.183704 14.3342455-101.728046 40.8339561l-.778873.8151022c-27.905424 29.459963-43.244256 73.203588-43.244256 129.170543v119.343777c0 46.514809 11.717965 77.675027 36.680397 100.393361 23.418957 21.313617 59.172705 36.388743 117.147431 50.692845 50.245669 12.397112 87.313319 12.694922 110.659809 2.52039 17.762403-7.740954 27.349084-21.567182 29.185357-41.356052l-.001289-220.391433c0-80.930693-49.351027-150.3348352-119.600803-179.7601502-6.572831-1.1369366-15.459903-1.9029608-26.560318-2.2468882z" fill-rule="nonzero"/><path d="m531.326264 73.6710875c74.199527 0 134.350129 60.1506015 134.350129 134.3501285v88.671096c0 74.199527-60.150602 134.350128-134.350129 134.350128h-.299743c-74.199527 0-134.350128-60.150601-134.350128-134.350128v-88.671096c0-74.199527 60.150601-134.3501285 134.350128-134.3501285zm45.15111 59.4880635h-.594165c-48.601058 0-88 39.398942-88 88v51.647215c0 48.601058 39.398942 88 88 88h.594165c48.601058 0 88-39.398942 88-88v-51.647215c0-48.601058-39.398942-88-88-88zm0 10c43.07821 0 78 34.92179 78 78v51.647215c0 43.078211-34.92179 78-78 78h-.594165c-43.07821 0-78-34.921789-78-78v-51.647215c0-43.07821 34.92179-78 78-78zm-3.802308 41.053051c-28.984357 0-52.022546 28.304061-52.022546 62.770557 0 34.466495 23.038189 62.770557 52.022546 62.770557s52.022547-28.304062 52.022547-62.770557c0-34.466496-23.03819-62.770557-52.022547-62.770557zm0 10c22.955314 0 42.022547 23.425457 42.022547 52.770557 0 29.345099-19.067233 52.770557-42.022547 52.770557-5.480628 0-10.739626-1.335311-15.570413-3.767687 1.579945.219719 3.189005.332673 4.822403.332673 22.94486 0 41.08707-22.289001 41.08707-49.335543 0-27.046543-18.14221-49.335544-41.08707-49.335544-1.632708 0-3.241098.112859-4.820364.332261 4.830195-2.432331 10.0885-3.767274 15.568374-3.767274zm-10.74801 13.435013c16.915817 0 31.08707 17.410397 31.08707 39.335544 0 21.925146-14.171253 39.335543-31.08707 39.335543s-31.087071-17.410397-31.087071-39.335543c0-21.925147 14.171254-39.335544 31.087071-39.335544zm-8.061008 16.496021c-10.267144 0-18.590309 10.225603-18.590309 22.839523s8.323165 22.839522 18.590309 22.839522 18.590309-10.225602 18.590309-22.839522-8.323165-22.839523-18.590309-22.839523z"/><circle cx="576.514589" cy="549.331565" r="5.374005"/></g></svg>