<svg height="960" viewBox="0 0 960 960" width="960" xmlns="http://www.w3.org/2000/svg"><path d="m511.594142 14.0355613.19832.0261967c110.923905 14.9345031 217.354747 43.188778 274.426413 76.0411825l.141688.0819465c5.404962 3.1407965 8.661234 5.084028 11.741931 7.1609344l.635527.4320488c1.480073 1.0146023 2.95094 2.081755 4.634596 3.3512358 16.596088 12.513486 28.856678 29.025923 35.655248 51.303357 2.373962 7.79573 3.848606 20.952788 5.645922 44.514549 1.581717 20.735393 3.153349 47.785694 4.515038 78.125539 3.173692 70.713207 4.890125 150.653344 4.458796 225.522555-.444577 77.168577-3.251737 159.362645-7.565039 228.783279-4.388794 70.635628-9.382246 117.25741-15.643753 134.304639-4.821041 13.065166-13.402197 24.081746-24.792899 33.358978-9.03737 7.360546-19.885796 13.655653-32.511499 19.204242-21.275299 9.349808-48.204022 16.811754-80.213021 22.723686-54.834789 10.127763-124.517676 15.550334-194.319345 16.038268-53.520471.246697-119.27077-5.048465-172.815455-14.880567-31.797335-5.838761-59.129168-13.165803-80.985058-22.196695-12.9765-5.361912-24.189638-11.382657-33.612405-18.347451-6.657174-4.920618-12.470055-10.339112-17.292291-16.354352l-.206192-.260955-36.486734-14.295814c-.24076-.094336-.480593-.191002-.719467-.289985l-.713708-.303883c-42.066944-18.395125-62.7589751-58.223171-62.7589751-111.316609l-.0001443-346.527129-.0009403-5.778703-.0000323-.138669-.0009115-3.174786-.0000994-.288164-.0009525-2.496863-.00007-.170694-.0082471-2.02947v-38.433542c.012553-70.824009.3367407-109.555193 1.3730402-128.88951.0402954-.752086.2300877-4.34183.2829281-5.322719.7395775-13.728948 1.4178329-20.838056 3.2614293-29.256457 2.6771889-12.224827 7.4650829-23.047678 15.0534729-33.179884 5.365371-7.163976 11.931955-13.721358 19.982522-20.225211 8.777701-7.123033 23.961552-20.471698 44.763571-39.395984l.275318-.251924.119299-.323351c6.637884-17.9083436 16.364927-34.3998428 29.864034-48.63699l.726779-.760543c20.981526-21.785337 49.07969-36.0067586 83.598426-40.9326154 15.893869-2.28234126 47.048158-4.21707189 80.613929-4.50856585 45.501442-.39514645 92.751908 2.04563782 138.679011 7.99544855zm-291.582924 576.2366157.052664 3.513458c1.439981 88.923839 7.427215 209.158262 28.363513 257.963153 19.114094 44.900869 165.66943 61.874196 254.624223 62.497309 123.015483-1.292674 272.489921-18.95583 289.516482-65.020554 6.410642-17.424001 14.249625-112.190315 18.359449-225.681026l-.65979.351796c-82.764204 44.056729-167.553619 64.859505-254.274708 62.512857-86.379785-2.337412-197.741417-34.41268-335.981833-96.136993zm20.520009-514.0323675-.554431.5275777c-14.890352 14.3214489-22.924765 31.8417078-27.288803 46.9268368l-.571605.522565c-3.122026 10.837622-4.348466 20.414775-4.867316 26.639733-4.917465 58.94092-16.616384 229.819939-16.616384 337.235528 0 2.513135-6.946705 280.827606 29.555566 362.303668l.299014.11183.331624.766737c1.010696 2.26132 2.360442 4.454222 4.024443 6.579976 2.262263 2.767146 5.064165 5.417838 8.346332 7.956319-1.187686-1.996379-2.238676-4.053977-3.142456-6.17707-14.305594-33.347967-22.711656-94.648525-27.077806-177.681668-3.136583-59.649876-3.791251-122.136918-3.054278-178.514833.009781-.74827.020297-1.516669.031283-2.291805l.009524-.665741c.004814-.333383.0097-.667301.014637-1.000699l.009936-.665794.010035-.662535c.001679-.110047.003361-.21988.005044-.32946l.010115-.654134c.074246-4.770153.149012-8.899592.158254-9.062886l.000971.017033.002391-2.676971c.158535-89.154361 8.124143-239.164351 15.889999-337.154505 1.68494-21.280445 7.077511-42.894384 18.710573-63.0192462 1.802907-3.1189763 3.72382-6.1308585 5.763338-9.0304563zm-52.962358 70.2078215-.453458.405771c-12.715264 11.366085-22.36753 19.709427-28.956797 25.056563-22.311484 18.025229-22.311484 30.48948-23.842481 59.064452-1.12865 21.057322-1.306069 72.926552-1.315836 126.181531v19.397759c0 9.614438.008528 19.157426.010522 28.454753l.000705 4.166628.000256 347.586799c0 38.490147 12.928343 63.360717 38.785028 74.667385l23.479396 9.200882c-11.002532-35.385754-17.844026-89.665573-21.695583-159.205316-3.296108-59.511153-3.984142-121.845026-3.210024-178.085388.057623-4.186318.118688-7.892762.183114-11.327282.020278-1.081042.034676-1.815445.060285-3.096718.010014-.501278.013224-.663592.016333-.828112.000626-.033712.001086-.058434.001443-.077768l.000946-.030114.002496-2.562996c.164745-88.012914 8.360394-235.465819 16.43581-333.243612l.24716-2.977565c.07629-.915296.159782-1.831229.250685-2.747652zm32.100238 402.783706.005566 3.177243c.014283 5.067625.041197 10.352688.083872 15.824284l-3.460019-1.564726c141.585384 64.243734 254.536965 97.429372 340.235521 99.74835 86.667744 2.345205 171.373655-19.421356 254.338292-65.621783.253955-.141419.511414-.270594.771694-.387718l.061478-.026758c.128094-4.136622.250981-8.292118.368427-12.463812l-.629873.219641c-82.923063 28.929118-167.89957 42.49519-254.92999 40.818466-86.341025-1.663442-198.002912-28.258414-336.844968-79.723187zm361.971892 90.886988c2.281858.522892 3.442959 3.505691 2.877056 6.592841-.57077 3.11329-2.737294 5.394302-5.067397 4.857462-2.280846-.525281-3.441801-3.506662-2.875885-6.591068.570783-3.11134 2.736744-5.392826 5.066226-4.859235zm-28.409242-.630635c2.281792.521065 3.444008 3.495366 2.877668 6.572991-.571071 3.10292-2.738183 5.375597-5.066537 4.84101-2.28078-.523453-3.442851-3.496337-2.876497-6.571219.571084-3.100969 2.737632-5.374123 5.065366-4.842782zm-28.409496-.630641c2.281616.519216 3.444892 3.484881 2.878141 6.552842-.571342 3.092409-2.738928 5.356647-5.06543 4.82433-2.280605-.521606-3.443734-3.485852-2.87697-6.551072.571356-3.090459 2.738378-5.355174 5.064259-4.8261zm-202.856347-589.3105014c-73.518643 10.8333932-84.178286 77.6800274-85.970996 100.3215814-4.684744 59.112459-15.830008 230.507896-15.830008 338.258792 0 .578969-.349056 15.750764-.465607 39.771214l-4.01151-1.502828c142.024424 53.432686 255.27271 80.907235 341.211529 82.562928 87.276373 1.681463 172.384043-12.388221 255.443682-42.362872l.269158-.092908.012736-.003105c.507193-21.780242.858684-43.87086 1.022083-65.90374.000414-.076976.00086-.153961.001304-.230944.728257-126.409401-4.790188-251.048569-9.373885-306.892251-1.34792-15.089185-2.67483-25.213882-3.853287-29.078366-7.318862-23.941802-23.248761-32.727941-34.50984-39.260412-54.943266-31.5725612-161.656955-57.7503002-259.888171-70.9506327-10.376662-1.3416878-20.658672-2.4726491-30.774578-3.4189181-74.431315-6.6059473-136.730462-3.6758131-153.28261-1.2175386z"/></svg>