<svg height="960" viewBox="0 0 960 960" width="960" xmlns="http://www.w3.org/2000/svg"><path d="m483.593067 272c31.524851 0 61.230715 6.559759 88.310575 19.487098 26.823665 12.824842 51.35438 32.055699 72.887608 57.18009 6.046213 7.059429 11.157313 14.464782 15.84569 21.613895 59.701077-.056524 118.913477-.073149 179.009955-.076278l101.13978-.000594c7.224712 0 13.847365 4.061413 17.126667 10.505864s2.651623 14.19573-1.588412 20.025203c-1.229738 1.691188-2.344189 3.241444-3.38178 4.702015-2.177662 3.049263-4.227225 5.919158-6.494555 8.776241-32.75459 41.293173-68.31452 80.02394-105.667818 115.103278-39.864013 37.436752-81.495776 70.478977-123.716787 98.217023-5.751588 3.766736-13.181257 5.983218-20.380349 6.072902-10.824258.140932-22.00719.204992-33.254171.204992-9.60733 0-19.534904-.038436-29.552146-.140932-30.884363 31.581654-67.366596 51.683729-108.473158 59.729684-15.589494 3.049263-31.05089 4.599519-45.948656 4.599519-52.212635 0-99.85218-18.718376-141.560801-55.617023-2.24171-1.985864-4.175986-3.997353-5.879686-5.765413-.947923-.986526-1.870227-1.947429-2.715672-2.754587-9.376754-.076872-18.907225-.076872-28.143071-.076872-11.669703 0-23.73651 0-35.662408-.153744-7.32719-.102496-14.923386-2.357414-20.828691-6.213835-61.025759-39.794165-118.170156-88.467067-169.8447803-144.647819-15.9994065-17.385925-31.2430364-35.694316-45.9870851-53.38773-6.4305061-7.725654-13.091588-15.72036-19.68862113-23.484451-1.44750435-1.691188-2.369808-3.254255-3.12558461-4.509834-.26900523-.461233-.60205933-1.024963-1.06321116-1.742436-3.72764394-5.919158-3.94541008-13.401384-.56363001-19.525534 3.38178007-6.124151 9.82509591-9.929324 16.81923191-9.929324l114.0549234.000537 1.28505.000089 9.068204.000864c2.608702.000312 5.232328.000684 7.870053.001124l5.294005.000974c38.956966.007858 80.82834.031796 123.009171.100847l5.753606.009698 5.755973.010274c2.878334.005284 5.757006.010789 8.63519.016526 17.639057-27.07182 39.082617-48.941955 63.74143-64.995429 25.99103-16.937504 55.735323-27.533052 88.400244-31.504782 9.966003-1.217143 19.906387-1.83212 29.513717-1.83212zm-27.195148 20.922045c-60.295602 7.341293-107.064083 38.692331-139.805863 90.145444-3.023106 4.740451-6.071832 6.508511-11.695322 6.495699-90.29609-.19218-180.57937-.153744-270.8754604-.153744h-12.809773c1.4603142 2.306165 1.9086562 3.267067 2.5619546 4.035789 21.6613262 25.49594 42.554066 51.709353 65.1889348 76.346887 49.586631 53.913023 104.745514 101.496903 166.193995 141.560121 2.971867 1.934616 7.019756 3.036451 10.580872 3.087699 21.981571.281865 43.975951.051248 65.957522.25624 2.677242.025625 5.828446 1.037775 7.90363 2.677715 3.996649 3.138947 7.199092 7.251609 11.029214 10.633985 49.356056 43.67621 106.67979 59.165955 171.087328 46.558917 38.890471-7.623158 72.016544-26.892451 99.544746-55.463278 3.266492-3.395188 6.520175-4.689203 11.157313-4.637955 21.341081.217804 42.694973.217804 64.036055-.038436 3.39459-.038436 7.250331-1.076211 10.068481-2.921143 43.245794-28.417083 83.404432-60.754647 121.103594-96.167098 37.378918-35.104962 71.888447-72.862015 103.759162-113.040541 2.959057-3.728301 5.6363-7.687218 9.402373-12.850466l-66.243128-.000513c-72.745983 0-145.487048.0082-218.236311.090197-4.304083 0-6.917277-1.229955-9.338324-4.98388-5.187958-8.045955-10.555253-16.09191-16.767993-23.343519-45.820558-53.451789-104.42527-76.731248-173.803-68.28812zm24.308928 19.078229c97.044286.166758 166.422045 78.195907 168.25452 164.075355 2.037507 95.817182-76.784546 174.717164-173.316251 171.848539-88.458565-2.63811-163.051829-75.544715-162.643447-168.262759-.152091-92.474722 74.63339-167.827342 167.705178-167.661135zm-.076887 7.773709c-90.585773.051252-159.707241 71.61319-159.93848 159.964265-.230083 86.891149 68.62228 159.70811 159.566859 160.311002l2.664393-.012171c87.753974-1.104816 158.399524-71.651546 158.234886-160.2348-.166877-87.83882-69.006426-160.079494-160.527658-160.028296zm.875716 12.235302c81.991101-.179302 148.748882 66.443883 148.493594 148.205207-.256756 82.504143-66.412885 149.20417-148.80082 148.783529-84.436113-.437443-148.224037-68.648723-148.198442-148.783529.02561-83.11889 68.61395-149.11452 148.505668-148.205207zm-179.766091 219.698146c3.177 8.056352 7.007335 15.844584 11.260415 25.279837h-7.827205c-26.23587-.012768-52.484549.10214-78.720419-.178747-3.305104-.038303-7.122628-1.353365-9.787209-3.306807-11.298846-8.286169-22.238998-17.019203-34.665167-26.645969 3.266673-.395796 4.791121-.740521 6.315568-.740521 34.985429-.025535 69.970859.063838 104.956288-.114908 4.586153-.025535 6.802367 1.493808 8.467729 5.707115zm475.368852-5.653762c.345083 0 .702946.359477 1.891563 1.027076-5.815277 4.942801-11.25991 9.821411-16.96016 14.353382-5.840839 4.647517-11.860609 9.063943-17.957064 13.351983-1.635946 1.15546-3.834249 2.105505-5.776935 2.118344-27.900549.128384-55.801098.102707-83.701647.064192-.984124 0-1.968248-.359476-3.604194-.680438 4.434948-9.924118 8.588717-19.424568 13.010884-28.783795.434548-.911529 2.505042-1.476421 3.834248-1.476421 36.425362-.051354 72.837943-.025677 109.263305.025677zm-350.365903-106.386947h-.012801c-4.454786-.012712-7.002207 1.255204-8.576743 5.558431-2.342603 6.390805-5.222852 12.589502-7.936687 18.839428-4.196699 9.651899-8.470129 19.265414-13.267669 30.157745-6.910728-17.475612-13.194194-33.518128-19.631181-49.483847-.716862-1.793012-2.227392-4.508144-3.507503-4.597794-3.178614-.212797-6.368135-.275545-9.553461-.281421h-.012801c-3.716214-.006855-7.426718.063698-11.107529.063698v81.979047h.012801c1.635982 0 3.115278-.004611 4.534665-.005533l.689929-.000115c.70232.000269 1.39358.001806 2.084839.005648.514087.002044 1.000866.003979 1.461786.004361l.286115.000032c7.92979-.005211 7.930555-.580718 7.942539-9.597005.012801-12.077213 0-24.154426 0-36.231639l1.021167-.204758.259-.05.441223.979647c.591514 1.305312 1.189582 2.602428 1.722108 3.924134l1.784379 4.445808 3.57536 8.888014c2.975383 7.407679 5.927638 14.822862 8.759884 22.28307 1.382235 3.659167 3.021618 5.716241 7.140784 5.724249h.012801c.19159.000372.388543-.003688.591085-.012226 4.224366-.179302 7.079013-.768434 8.640749-5.379035 2.188989-6.442034 5.158846-12.615116 7.872681-18.865042 2.529499-5.819603 5.12454-11.622813 7.706473-17.422744l1.931473-4.346875 1.652632.419975v45.427227h.012801c4.656404 0 8.682752-.236384 12.638079.018995l.694488.050803.082995.007045c.444483.036761.860102.054857 1.248351.053635h.012801c3.804839-.011972 4.981048-1.879139 4.934585-6.21391-.217619-20.043307-.051205-40.099422-.064006-60.155536-.012801-16.085874-.038403-15.932188-16.078192-15.983512zm46.68481-.335923-.320795-.000371c-2.693033.012207-6.283744.403627-11.071359.925522v81.620444l1.00785-.003976c2.335451-.017773 4.560035-.08952 6.726558-.099975l.925108-.000392c1.536437.006721 3.047098.053115 4.551228.181187.366965.031306.712859.048699 1.038768.052193l.240701.000015.23331-.005196c3.674357-.124804 4.549257-2.249855 4.503742-6.348167-.217619-19.825584-.076806-39.651168-.076806-59.476753l.000357-.534822.00021-1.037615c-.004215-12.028016-.310367-15.219474-7.758872-15.272094zm26.793553 1.565512-.012801.012807v80.954469c4.019548 0 7.61666-.204915 11.175368.051229 2.935051.208394 4.385548-.627102 4.905669-2.630847.188899-.708607.260547-1.563225.240377-2.568886-.204818-8.95225-.064006-17.917308-.064006-26.869558-.012801-4.982011-.012801-9.976828-.012801-14.971646l.686993-.101984c.45515-.067356.904611-.132815 1.348383-.192582 10.458506 13.409164 21.518664 26.408498 31.157899 40.38118 5.131822 7.445267 11.143602 7.442737 18.359002 6.594684l.67998-.08178c.683526-.083855 1.377719-.173328 2.082847-.262978l-.000219-.011132c.00434-.000559.00868-.001117.01302-.001676v-6.544491c0-21.119114.102409-42.238228-.012801-63.357342-.076807-13.255478 2.419409-11.206322-12.058645-11.616153-1.920416-.054378-3.162775.295993-3.931371 1.072626-.870743.868396-1.140239 2.276635-1.099464 4.255179.179215 9.374889.076806 18.762585.076806 28.150281l-.000133 14.352289-.32815-.114554c-2.444209-.890041-3.648965-2.132124-4.689751-3.479666-9.664837-12.46143-19.304072-24.935667-28.956108-37.409904-5.747698-7.428191-10.100075-8.670492-19.560094-5.609565zm97.79567-1.173462h-.012802c-2.734636.004803-5.493275.059234-8.290318.059234.005334 11.547847.008446 22.904476.010261 34.229235l.001615 13.584612.00056 9.069628c.000067 1.513745.000121 3.028812.000166 4.545579l.0002 20.614029c2.990339 0 5.831388.076501 8.59306.079901h.0115c2.417763.002975 4.773452-.050018 7.115201-.259203.038263-.003645.077242-.009045.116865-.016127l-.018875.001263.027436-.003984c1.352128-.247758 3.446473-2.441448 3.458884-3.708054.217619-24.730751.204818-49.461503.025603-74.192254-.012802-1.319144-1.804957-3.688481-2.893051-3.765324-2.701034-.198512-5.411669-.243338-8.146305-.238535zm113.489601 41.281815 10.102756.017936c1.683593.002401 3.367063.00399 5.050374.00399 38.432527 0 76.852225 0 115.271924.012869 2.450138 0 4.900275.244519 7.363241.373212.256559.527646.474634 1.055291.705537 1.582936-9.877518 9.330309-19.703725 18.724966-29.722351 27.913712-1.051892.965204-3.168503 1.05529-4.797652 1.05529-46.321713.051478-92.643426.038608-138.977968.01287-1.026235 0-2.065299-.205911-3.502029-.360343.705537-9.150138 1.128859-18.042889 2.334686-26.832684.205247-1.492849 3.797072-3.539083 5.862372-3.577691 10.099869-.20591 20.20544-.21735 30.30911-.202097zm-432.390577.014643.847787.000539c7.637229.013388 7.660305.353638 8.329515 8.829042.551922 7.040497 1.103844 14.068122 1.707107 21.829401-2.695431.11584-4.800435.296036-6.892603.296036-44.898187.012871-89.796375.102969-134.681726-.154453-3.414213-.025743-7.649891-1.596018-10.07578-3.93856-8.702393-8.391963-16.801523-17.427482-25.349891-26.437259 1.527411-.128711 3.324365-.424746 5.134155-.424746 53.664757-.025743 107.316679-.025743 160.981436 0zm18.884409-64.019307c-2.283241 9.289889-4.335593 18.214233-6.811242 27.012527-.346334 1.235291-2.668057 2.546211-4.207321 2.722681-3.578788.40336-7.247367.15126-10.877464.15126-63.44332 0-126.873813-.063025-190.3171339.113532-5.1821879.012518-8.8507665-1.348822-12.121702-5.256374-6.68297-8.004179-13.7251016-15.731047-21.6651371-24.743626zm612-1c-5.561192 6.626909-10.609833 11.771143-14.607741 17.624482-7.188546 10.546326-16.388859 13.524567-29.177039 13.369853-47.308578-.581694-94.632142-.514999-141.953501-.370693l-32.760379.105289c-3.639956.011518-7.279875.022716-10.91975.033333-5.830282.012893-8.8159-1.057211-9.687239-7.684119-.973849-7.542299-3.70319-14.839634-5.894351-23.078145z"/></svg>