<svg width="960" height="960" viewBox="0 0 960 960" fill="none" xmlns="http://www.w3.org/2000/svg">
<path d="M480.649 17.0571C491.979 17.0571 508.347 21.9559 522.554 29.812C533.967 36.1232 547.046 46.0334 555.092 60.3013C597.06 69.7633 635.503 88.4258 662.893 119.343C692.961 153.285 707.704 199.743 701.749 258.591C688.117 393.306 611.783 690.384 603.882 718.04C597.693 739.701 583.108 755.088 571.28 763.99V870.84C571.28 876.406 568.96 881.721 564.879 885.505C556.166 893.585 548.584 900.264 538.502 909.084C538.168 910.241 537.72 911.792 537.013 914.055C535.62 918.512 533.414 924.774 529.262 930.878C519.702 944.932 503.788 952.748 480.649 952.748C458.624 952.747 443.587 944.364 434.045 931.609C429.771 925.895 427.12 919.99 425.317 915.4C424.516 913.36 423.801 911.356 423.234 909.774C413.87 902.069 404.12 892.646 396.42 885.505C392.339 881.721 390.02 876.406 390.02 870.84V763.99C378.191 755.088 363.606 739.701 357.417 718.04C349.515 690.383 273.183 393.306 259.551 258.591C253.596 199.743 268.338 153.285 298.406 119.343C325.796 88.426 364.238 69.7634 406.206 60.3013C414.251 46.0332 427.332 36.1233 438.745 29.812C452.952 21.9559 469.32 17.0572 480.649 17.0571ZM458.933 891.042C459.609 892.721 460.205 894.375 460.693 895.736C461.378 897.645 461.926 899.193 462.549 900.778C463.778 903.908 464.884 906.057 466.075 907.649C467.134 909.064 468.301 910.097 469.962 910.894C471.712 911.733 474.934 912.748 480.649 912.748C487.705 912.748 491.447 911.614 493.267 910.773C494.841 910.045 495.58 909.275 496.188 908.38C497.005 907.179 497.814 905.388 498.834 902.124C499.407 900.289 500.793 895.137 502.38 891.042H458.933ZM531.28 848.232C507.245 853.713 470.951 859.857 430.02 861.549V862.149C433.296 865.215 436.5 868.21 439.623 871.042H521.207C524.738 867.924 528.005 865.011 531.28 862.042V848.232ZM531.28 813.251C507.245 818.732 470.951 824.877 430.02 826.569V841.532C472.043 839.728 508.849 833.078 531.28 827.692V813.251ZM531.28 781.607C507.245 787.088 470.951 793.232 430.02 794.924V806.551C472.043 804.748 508.849 798.098 531.28 792.711V781.607ZM430.02 774.907C472.043 773.103 508.849 766.453 531.28 761.067V760.383H430.02V774.907ZM480.649 57.0571C478.191 57.0573 468.542 59.0425 458.102 64.8159C447.742 70.5447 441.365 77.3801 439.421 83.6948C437.235 90.7946 431.294 96.0978 423.993 97.4673C383.619 105.04 350.289 121.101 328.348 145.868C306.835 170.152 294.329 204.979 299.347 254.564C312.583 385.369 387.974 679.385 395.878 707.05C400.16 722.039 413.597 732.509 419.065 735.283C421.563 736.55 423.717 738.299 425.438 740.383H439.348V519.183H431.643V519.204C431.643 524.726 427.165 529.204 421.643 529.204C416.12 529.203 411.643 524.726 411.643 519.204V184.982C411.643 179.459 416.12 174.982 421.643 174.982C427.165 174.982 431.643 179.459 431.643 184.982V188.54H471.179V184.983C471.179 179.46 475.656 174.983 481.179 174.983C486.701 174.983 491.179 179.46 491.179 184.983V188.54H530.713V184.982C530.713 179.459 535.19 174.982 540.713 174.982C546.236 174.982 550.713 179.459 550.713 184.982V519.204C550.713 524.726 546.236 529.204 540.713 529.204C535.19 529.203 530.713 524.726 530.713 519.204V519.183H524.777V740.383H535.861C537.582 738.299 539.736 736.55 542.233 735.283C547.701 732.51 561.138 722.039 565.421 707.05C573.325 679.385 648.716 385.369 661.952 254.564C666.97 204.979 654.464 170.152 632.951 145.868C611.01 121.101 577.68 105.04 537.306 97.4673C530.004 96.0977 524.064 90.7946 521.878 83.6948C519.934 77.3801 513.557 70.5447 503.197 64.8159C492.756 59.0423 483.107 57.0571 480.649 57.0571ZM459.348 740.271H504.777V519.183H459.348V740.271ZM491.179 208.54V499.183H530.713V208.54H491.179ZM431.643 499.183H471.179V208.54H431.643V499.183Z" fill="black"/>
</svg>
