<svg height="960" viewBox="0 0 960 960" width="960" xmlns="http://www.w3.org/2000/svg"><path d="m203.547262-.03169129 609.986916 49.71878389c36.853524 3.0038552 65.232064 33.7895829 65.232064 70.7653224v704.428975c0 36.514501-27.696036 67.075148-64.034385 70.657485l-604.542504 59.597512c-3.221745.317608-6.470134.242925-9.673878-.222413l-37.62406-5.46482c-40.803003-5.926556-71.0696045-40.906922-71.0696045-82.138089v-773.8749827c0-35.8798227 23.0550825-67.6976255 57.1504465-78.872052l38.867847-12.73856157c5.05992-1.65833973 10.400016-2.28973428 15.707158-1.85716002zm-39.136334 81.22896239c-.080376 1.0583041-.120607 2.1192745-.120607 3.1806264v789.5255015c0 17.926894 11.23147 33.230537 27.041585 39.258107l14.933157 2.167847 208.503748-20.55526 394.356246-40.381666c16.835748-1.723989 29.638362-15.904546 29.638362-32.828332v-700.683761c0-4.782269-1.021078-9.340763-2.863523-13.46003-4.565258-9.8393877-14.151118-16.9310053-25.615259-17.8654239l-256.437826-20.9017868-344.375863-26.1545895c-23.129351-1.7566114-43.303409 15.5694169-45.06002 38.6987673zm-14.390345-22.8923726-.234286.1672569c-11.065517 7.9251602-17.964486 20.8367871-17.964486 34.9639269v773.8749827c0 15.180603 7.919543 28.725626 20.089686 36.394717-4.858634-8.843201-7.621176-19.000179-7.621176-29.802383v-789.5255015c0-1.5667575.059389-3.132952.178038-4.6952103.579183-7.6261199 2.514703-14.8248593 5.552224-21.3777887zm440.421371 207.7348805.203139.000577c2.024523.001016 4.051685.03589 6.08099.10474.089133.002949.178138.006038.267154.009192 1.033391.036642 2.067446.082033 3.101986.136251 107.753465 5.647119 189.755488 105.177497 183.637536 221.914972-5.873233 112.067977-90.855333 199.875864-192.977874 201.724976l-3.196839.029734c-2.566386.001293-5.143118-.051734-7.729223-.160048l-.135118-.001929c-.091744.002003-.183779.002763-.276087.002264l-.277732-.005288-56.444911-1.843885-1.438834.01239c-2.840806.00955-5.68673-.046966-8.53643-.169836l-1.710262-.081687c-1.045004-.054766-2.088631-.118357-3.130817-.190753l-1.398821-.103356-.386685-.016317c-.27555-.012321-.548326-.035784-.81787-.069963l-.249281-.035478-2.450258-.220307c-102.699301-10.122057-179.631916-104.934418-175.461534-215.880271l.153058-3.401268c5.856759-111.753617 92.054153-199.512501 195.645132-199.758806l2.885438.01641 53.655164-1.669758.992619-.061909c.26127-.014565.522663-.028567.784178-.042006l-.374774.021673c1.011121-.054247 2.023108-.100013 3.035898-.137283.112217-.005616.224216-.009615.336237-.013511.922797-.030791 1.846534-.055986 2.770884-.074114.163999-.004223.328325-.0072.492694-.009953.902718-.014285 1.805752-.022792 2.709318-.024554.080335-.000764.161125-.000858.241925-.000899zm-.188925 20.001447-2.623964.025606c-.050652.000918-.101301.00186-.151948.002826l.152144-.001844c-91.364689 1.670332-168.051039 80.910831-173.38943 182.773394-5.559405 106.079781 68.399821 195.848173 164.711665 200.895663l.119315.004222.820961.035269.080039.004731 1.864964.081286c.950366.032872 1.899358.057325 2.846917.07342.358074.006083.716401.010976 1.074519.014677l-1.074519-.014677c1.894928.032185 3.78412.030942 5.667079-.003249l-1.6014.021111c.963331-.007909 1.925074-.024446 2.885163-.049546l-1.283763.028435c.941051-.017087 1.880545-.042404 2.818421-.07589l-1.534658.047455c.964623-.025219 1.927576-.059082 2.888792-.101524l-1.354134.054069c.940112-.033566 1.878598-.075341 2.815395-.125263l-1.461261.071194c.916642-.040474 1.831703-.08875 2.745127-.144772l-1.283866.073578c.937087-.049938 1.872485-.108029 2.806131-.174212l-1.522265.100634c.928721-.056961 1.855748-.121929 2.781021-.194844l-1.258756.09421c.937242-.066438 1.872719-.141031 2.806367-.223717l-1.547611.129507c.90909-.071641 1.816486-.150954 2.722131-.237884l-1.17452.108377c.931634-.082508 1.861447-.173075 2.789376-.27164l-1.614856.163263c.953065-.091481 1.90419-.191398 2.853308-.299683l-1.238452.13642c.913468-.097029 1.825109-.201808 2.734866-.31428l-1.496414.17786c.928827-.105971 1.855731-.219957 2.780649-.341897l-1.284235.164037c.937287-.115875 1.872573-.239916 2.805792-.372058l-1.521557.208021c.892617-.117682 1.783384-.242772 2.672245-.375214l-1.150688.167193c.910613-.128941 1.819258-.265596 2.725875-.409906l-1.575187.242713c.946255-.140995 1.890349-.290323 2.832214-.447918l-1.257027.205205c.911427-.145076 1.820804-.297888 2.728068-.458377l-1.471041.253172c.906456-.15167 1.810847-.310996 2.713113-.477921l-1.242072.224749c.909169-.160825 1.816217-.32936 2.721083-.505542l-1.479011.280793c.93458-.172902 1.866878-.353957 2.796828-.543096l-1.317817.262303c.89074-.173433 1.779365-.354277 2.665816-.542475l-1.347999.280172c.93006-.189162 1.857771-.386412 2.783065-.591683l-1.435066.311511c.890521-.189063 1.778849-.385547 2.664921-.589395l-1.229855.277884c.904018-.200552 1.805728-.40876 2.705069-.624564l-1.475214.34668c.897861-.206559 1.793406-.42068 2.686575-.6423l-1.211361.29562c.882653-.211799 1.763023-.430915 2.64105-.657289l-1.429689.361669c.900179-.223361 1.797944-.454339 2.693229-.692874l-1.26354.331205c.854911-.220415 1.7076-.44771 2.558013-.681833l-1.294473.350628c.902924-.24057 1.803327-.488825 2.701142-.744703l-1.406669.394075c.878831-.241946 1.755231-.491184 2.629138-.747654l-1.222469.353579c.877827-.250181 1.753181-.507648 2.625999-.772342l-1.40353.418763c.888127-.260643 1.77368-.528756 2.656594-.804276l-1.253064.385513c.868599-.263415 1.734687-.533986 2.598205-.811656l-1.345141.426143c.875879-.273324 1.749161-.553938 2.619784-.841781l-1.274643.415638c.874436-.281181 1.746235-.569641 2.615336-.865319l-1.340693.449681c.883155-.291987 1.763574-.591412 2.641191-.898212l-1.300498.448531c.848397-.288634 1.694222-.584147 2.537417-.886482l-1.236919.437951c.86585-.302687 1.728973-.612552 2.589306-.929536l-1.352387.491585c.866791-.310795 1.730803-.6288 2.591971-.953951l-1.239584.462366c.852104-.313951 1.701471-.634885 2.548041-.962743l-1.308457.500377c.860979-.32508 1.719115-.657304 2.574346-.996611l-1.265889.496234c.850211-.329268 1.697601-.665519 2.542107-1.008693l-1.276218.512459c.846233-.335736 1.689622-.678407 2.530104-1.027953l-1.253886.515494c.829608-.33712 1.656434-.680921 2.480419-1.031347l-1.226533.515853c.875091-.363939 1.747031-.735331 2.615752-1.114108l-1.389219.598255c.833332-.354401 1.663758-.715578 2.491218-1.083472l-1.101999.485217c.819714-.357409 1.63656-.721393 2.450482-1.091897l-1.348483.60668c.86083-.38273 1.71845-.77273 2.57279-1.169933l-1.224307.563253c.80994-.368691 1.616985-.743838 2.421075-1.125384l-1.196768.562131c.819844-.381164 1.636668-.768963 2.450412-1.163336l-1.253644.601205c.846808-.401817 1.69034-.810731 2.530528-1.226677l-1.276884.625472c.823536-.399118 1.643918-.804971 2.461083-1.217497l-1.184199.592025c.806764-.3994 1.610445-.805283 2.410984-1.217594l-1.226785.625569c.817245-.412567 1.631273-.831809 2.442022-1.257666l-1.215237.632097c.808598-.41646 1.61399-.839478 2.416115-1.268992l-1.200878.636895c.810567-.425761 1.617856-.858134 2.421805-1.297057l-1.220927.660162c.83606-.447686 1.66857-.90243 2.497462-1.364165l-1.276535.704003c.783258-.427628 1.563345-.861474 2.340204-1.301482l-1.063669.597479c.811908-.452275 1.620345-.911258 2.425245-1.376885l-1.361576.779406c.800537-.45342 1.597645-.913382 2.391262-1.379827l-1.029686.600421c.771993-.446591 1.540732-.899295 2.30616-1.358055l-1.276474.757634c.81244-.477509 1.621221-.961811 2.426274-1.45284l-1.1498.695206c.729678-.437333 1.456348-.880171 2.179958-1.328465l-1.030158.633259c.791628-.482841 1.579653-.972187 2.364009-1.467976l-1.333851.834717c.785365-.486552 1.567127-.97953 2.345222-1.478874l-1.011371.644157c.76418-.483035 1.524877-.972185 2.282034-1.467394l-1.270663.823237c.7696-.493892 1.535612-.99401 2.297975-1.500296l-1.027312.677059c.775206-.507014 1.546701-1.020378 2.314419-1.54003l-1.287107.862971c.772323-.5129 1.540901-1.032129 2.30567-1.557626l-1.018563.694655c.740149-.500992 1.476789-1.007828 2.209861-1.520453l-1.191298.825798c.86021-.591076 1.715601-1.190082 2.566082-1.796928l-1.374784.97113c.741841-.518757 1.48003-1.043443 2.214506-1.573999l-.839722.602869c.679912-.48514 1.356686-.975291 2.030276-1.470407l-1.190554.867538c.771009-.556946 1.537927-1.120362 2.300685-1.69018l-1.110131.822642c.713343-.524338 1.423115-1.054245 2.129261-1.589668l-1.01913.767026c.726181-.542493 1.448592-1.090789 2.167173-1.644832l-1.148043.877806c.797586-.604756 1.590545-1.216549 2.378798-1.835301l-1.230755.957495c.721517-.556306 1.439173-1.118404 2.152908-1.686237l-.922153.728742c.727643-.571176 1.451275-1.148283 2.170835-1.731259l-1.248682 1.002517c.733483-.583545 1.462825-1.173146 2.187961-1.76874l-.939279.766223c.700252-.567334 1.396646-1.140226 2.089125-1.718621l-1.149846.952398c.70612-.579975 1.408251-1.165633 2.106335-1.756917l-.956489.804519c.709094-.592273 1.414082-1.190317 2.114903-1.79407l-1.158414.989551c.713804-.604598 1.423375-1.215078 2.128649-1.831377l-.970235.841826c.656687-.565732 1.309715-1.136477 1.959032-1.712186l-.988797.87036c.697925-.609876 1.391641-1.22545 2.081088-1.846661l-1.092291.976301c.634881-.56291 1.266215-1.130565 1.893955-1.70292l-.801664.726619c.713653-.643023 1.422731-1.292087 2.127165-1.947124 2.693493-2.504621 5.319007-5.096496 7.87276-7.771955.229023-.239939.457458-.480537.685313-.721805l-.685313.721805c.638941-.669392 1.273391-1.344017 1.903288-2.023815l-1.217975 1.30201c.794706-.841486 1.582358-1.691117 2.362837-2.548776l-1.144862 1.246766c.626276-.67589 1.248051-1.356893 1.865266-2.042954l-.720404.796188c.601897-.661417 1.199529-1.32761 1.792841-1.998525l-1.072437 1.202337c.634647-.705436 1.264473-1.416219 1.889412-2.132285l-.816975.929948c.646587-.731159 1.288044-1.467927 1.924301-2.210236l-1.107326 1.280288c.621947-.712636 1.239056-1.430506 1.851261-2.153548l-.743935.87326c.519898-.606555 1.036323-1.216809 1.549238-1.830726l-.805303.957466c.606944-.716827 1.209069-1.438738 1.806314-2.165671l-1.001011 1.208205c.567549-.679309 1.130799-1.363102 1.6897-2.05133l-.688689.843125c.612885-.745969 1.220629-1.497228 1.823167-2.253711l-1.134478 1.410586c.624681-.769229 1.243927-1.543996 1.857667-2.324233l-.723189.913647c.567726-.712776 1.130829-1.43019 1.689253-2.152187l-.966064 1.23854c.655365-.833155 1.304452-1.672545 1.947171-2.518086l-.981107 1.279546c.574478-.742754 1.144004-1.490358 1.708517-2.242754l-.72741.963208c.515592-.678295 1.027086-1.360549 1.534437-2.046716l-.807027 1.083508c.582334-.776147 1.159333-1.557394 1.730932-2.343674l-.923905 1.260166c.553652-.748788 1.102371-1.502236 1.646097-2.260288l-.722192 1.000122c.546071-.751165 1.087213-1.506925 1.623366-2.267222l-.901174 1.2671c.573834-.800027 1.142107-1.605182 1.704749-2.415397l-.803575 1.148297c.552706-.78377 1.100111-1.572361 1.642151-2.365713l-.838576 1.217416c.536363-.772371 1.067609-1.549341 1.593677-2.330851l-.755101 1.113435c.536329-.784992 1.067405-1.574645 1.593168-2.368898l-.838067 1.255463c.525097-.780065 1.045036-1.564654 1.559756-2.353707l-.721689 1.098244c.525668-.794112 1.046025-1.592822 1.561006-2.396071l-.839317 1.297827c.52349-.802496 1.041582-1.609609 1.554214-2.421281l-.714897 1.123454c.515106-.803442 1.024834-1.611424 1.529123-2.423886l-.814226 1.300432c.523803-.829358 1.041905-1.663476 1.55424-2.502286l-.740014 1.201854c.492251-.79307.97932-1.590408 1.461149-2.391959l-.721135 1.190105c.512677-.839371 1.019579-1.683441 1.520638-2.532146l-.799503 1.342041c.495558-.824391.985573-1.653238 1.469981-2.486481l-.670478 1.14444c.491502-.832518.977383-1.669496 1.457578-2.510871l-.7871 1.366431c.498058-.856721.990189-1.718089 1.476325-2.584038l-.689225 1.217607c.44826-.785419.891565-1.57467 1.329863-2.367703l-.640638 1.150096c.470314-.837764.935017-1.679816 1.394048-2.526095l-.75341 1.375999c.466892-.844767.928103-1.693826 1.38357-2.547115l-.63016 1.171116c.451236-.831911.896991-1.667906 1.337206-2.50793l-.707046 1.336814c.463958-.869195.921956-1.742779 1.373928-2.620689l-.666882 1.283875c.449142-.857059.892517-1.718312 1.330062-2.583698l-.66318 1.299823c.442051-.858638.878338-1.721414 1.308799-2.588268l-.645619 1.288445c.436204-.862733.866613-1.729573 1.291167-2.60046l-.645548 1.312015c.426238-.85835.846765-1.720699 1.26152-2.586988l-.615972 1.274973c.435373-.893081.864587-1.790418 1.287577-2.691947l-.671605 1.416974c.413338-.863331.820944-1.730576 1.222758-2.601677l-.551153 1.184703c.409144-.872018.812463-1.747958 1.209898-2.627762l-.658745 1.443059c.420281-.911135.834226-1.826488 1.241765-2.745994l-.58302 1.302935c.391892-.867531.778063-1.738819 1.158454-2.613807l-.575434 1.310872c.397836-.897611.789569-1.799179 1.175135-2.704643l-.599701 1.393771c.387777-.891976.769548-1.787798 1.145252-2.687406l-.545551 1.293635c.381575-.896091.75711-1.795997 1.126545-2.699659l-.580994 1.406024c.386071-.924431.765736-1.85286 1.138928-2.785222l-.557934 1.379198c.36362-.88944.721331-1.782518 1.073073-2.679179l-.515139 1.299981c.372282-.930088.738122-1.86409 1.097455-2.801942l-.582316 1.501961c.358198-.913121.710208-1.829957 1.055965-2.750448l-.473649 1.248487c.345277-.901166.684546-1.805886 1.017748-2.714105l-.544099 1.465618c.353308-.940592.700089-1.885001 1.040277-2.833161l-.496178 1.367543c.336922-.918359.667641-1.840293.992096-2.765746l-.495918 1.398203c.332159-.925785.658032-1.855147.977559-2.788027l-.481641 1.389824c.325291-.927836.644286-1.859207.956925-2.794056l-.475284 1.404232c.324156-.946397.641779-1.896414.952807-2.84999l-.477523 1.445758c.315631-.943797.624783-1.891138.927394-2.841961l-.449871 1.396203c.309621-.949264.612705-1.902055.90919-2.858311l-.459319 1.462108c.298914-.939212.591446-1.881822.877535-2.827772l-.418216 1.365664c.293451-.946471.580436-1.896337.860894-2.849539l-.442678 1.483875c.301263-.996124.595381-1.995952.882283-2.999415l-.439605 1.51554c.280508-.953368.554487-1.910073.821875-2.870055l-.38227 1.354515c.26643-.931859.526637-1.866853.780565-2.804927l-.398295 1.450412c.267739-.961241.528871-1.925768.783333-2.893521l-.385038 1.443109c.26714-.986884.527331-1.977176.780506-2.970813l-.395468 1.527704c.253404-.963725.500193-1.93065.740309-2.900715l-.344841 1.373011c.256493-1.006658.505785-2.01675.747808-3.030207l-.402967 1.657196c.238278-.962643.469984-1.928379.695058-2.89715l-.292091 1.239954c.234695-.982773.462555-1.968712.683517-2.957756l-.391426 1.717802c.232735-1.001742.458378-2.00673.676865-3.014899l-.285439 1.297097c.208784-.934538.41141-1.871848.607824-2.81188l-.322385 1.514783c.216381-.998455.425743-2.000031.628022-3.004665l-.305637 1.489882c.217036-1.038722.426487-2.080767.628283-3.126066l-.322646 1.636184c.19602-.973548.385388-1.949968.568047-2.929205l-.245401 1.293021c.192062-.994877.37719-1.992701.555322-2.993413l-.309921 1.700392c.190803-1.022897.374285-2.048867.55038-3.077847l-.240459 1.377455c.174016-.977591.341357-1.957938.501964-2.940986l-.261505 1.563531c.173925-1.0163.340644-2.035535.500092-3.057644l-.238587 1.494113c.173203-1.060149.338576-2.12344.496046-3.189802l-.257459 1.695689c.154748-.991977.302649-1.986661.443644-2.983995l-.186185 1.288306c.146042-.988972.285287-1.980586.417677-2.974786l-.231492 1.68648c.14618-1.034016.284938-2.070881.416207-3.110531l-.184715 1.424051c.138523-1.040252.269542-2.083335.392992-3.129186l-.208277 1.705135c.128004-1.013787.248887-2.030223.362591-3.049249l-.154314 1.344114c.156503-1.325881.300842-2.656212.432881-3.990863l-.278567 2.646749c.115595-1.035985.223769-2.074647.324459-3.115925l-.045892.469176c.072789-.735749.14184-1.472811.207131-2.211164l-.161239 1.741988c.106753-1.103984.205094-2.210908.294946-3.3207.163568-2.020257.299016-4.050207.405877-6.089222 5.559405-106.079781-68.399821-195.848173-164.711665-200.895663l-2.660301-.117633c-.109032-.003928-.218057-.007745-.327073-.011453-.868538-.029415-1.735881-.051876-2.602028-.067353l2.602028.067353c-.963339-.032762-1.926056-.056923-2.88809-.072499l.286062.005146c-1.070547-.019129-2.139268-.027588-3.206073-.025464zm-89.141862 3.527774-.302199.039278c-82.612903 11.597232-148.683078 86.00138-153.569137 179.23293-5.21968 99.59744 61.222671 185.032287 150.731102 197.548603-65.465357-36.95049-108.180892-113.165268-103.703692-198.595322 4.099344-78.220155 46.7376-144.621693 106.843926-178.225489z"/></svg>