<svg height="985" viewBox="0 0 960 985" width="960" xmlns="http://www.w3.org/2000/svg"><path d="m621.788716 11.0641259c33.399866 5.3121838 67.192584 13.0890962 77.853367 17.3023.675729.2670521 4.970863 1.7071363 5.702876 1.9727704 19.403373 7.0411238 31.21847 22.9747348 31.804123 44.4613016.034348.4173713.083767.9818826.147334 1.6895844.154969 1.7252976.351325 3.842679.791791 8.5537853.795458 8.5080153 1.334523 14.2995716 1.851219 19.9358334l.099789 1.089638c.298906 3.267223.595361 6.537799.935178 10.313109 3.093055 34.363394 6.013567 69.677235 8.774525 107.474776 5.170889 70.789527 9.035184 140.348489 11.113923 206.777995.309746 9.898439.592415 19.939017.848633 30.115703 2.596686 103.137281 2.41417 211.987259.54146 319.510597-.107189 6.154343-.237572 13.040217-.374809 19.989515l-.090306 4.534279-.039361 1.954045-.026298 1.298651c-.412196 20.313769-.830841 39.0136-.839609 39.076203-.00014 12.610365-3.977547 24.394634-11.152112 34.350654-5.652959 7.844514-12.862055 14.059027-21.227985 19.06711-11.49089 6.878772-24.830256 11.327115-39.64324 14.256465-16.508186 3.264585-179.4959 27.986637-248.046872 37.821855l-4.73264.676708c-10.652902 1.517619-18.523224 2.597679-22.495615 3.071917-33.853367 4.041536-67.210411 2.065713-102.418074-6.725415-15.719642-3.925094-29.118859-12.285442-39.524412-24.118408-8.533524-9.704136-14.650438-21.199669-18.914247-34.139755-5.998566-18.204838-8.126348-37.941736-8.126348-60.958916 0-18.345167-16.264248-263.409848-47.869909-719.948946l-.005749-.08434c-1.422908-21.2040224 13.509038-42.7165986 34.762442-54.2772492 15.682172-8.5302153 30.360009-14.3462625 60.082842-23.2848753 39.20421-11.7899679 106.913781-22.625651 190.376247-29.22610011 43.332897-3.42688868 91.207786-.26594173 139.841837 7.46920951zm-122.942448 67.2135735c-25.431169 3.0742292-49.14746 6.4525813-71.220064 10.0883378-33.843762 5.5746791-62.498305 11.5168658-86.700686 17.6075008-8.896483 2.238838-16.716386 4.379021-23.817826 6.469885-2.628642.773947-5.026992 1.501954-7.466851 2.260397-1.190081.369942-4.343622 1.36203-4.775072 1.495875-3.579633 1.11048-4.507937 1.766103-4.910421 2.644827-.874095 1.908365-1.190602 6.191856-.687202 14.457581.018353.301346 2.652523 20.98163 5.364049 43.002101l.235918 1.917738.353796 2.883189c1.020936 8.333086 2.026737 16.660573 2.88159 23.963844 6.555361 56.004461 12.881183 118.21035 18.824921 188.681867 2.883055 34.182745 5.598967 69.476872 8.124176 105.892789 5.17253 74.592793 10.957425 208.175038 17.361472 400.8502 1.675116 8.765612 6.811395 14.644964 16.278789 17.57871 13.81528.693317 27.116846.124309 40.149557-1.431582 27.385499-3.26938 253.679771-37.418869 272.256858-41.092591 18.577088-3.673722 39.783139-11.745072 39.783139-28.438506 0-8.742364 6.194649-217.263432 0-415.223559-5.041744-161.117162-20.047742-315.251646-23.146741-348.7671939l-.090012-.96788-.306636-.1780512c-1.419879-.8624859-2.606907-2.069669-3.444578-3.5067039-1.664695-.7383236-4.370186-1.5710415-7.921405-2.3742076-9.179857-2.0761744-22.72798-3.7060864-39.305652-4.6100722-39.443126-2.1508462-90.856048-.0906779-147.821119 6.7955052zm-13.745921-34.8072813c-89.95345 7.1137746-151.173711 18.3824358-182.010071 27.6559219-25.217975 7.5838569-37.125129 12.3186601-46.489749 16.9812999l-.641936.3214807c-1.169971.5892952-2.303255 1.1784573-3.421615 1.7730991l-.647435.3457089c-.430717.2309368-.85983.4628561-1.2886.6960828-10.719253 5.830668-14.105754 14.3686946-13.969515 16.4609286 31.982581 461.923546 47.96958 702.827375 47.96958 722.711487 0 29.961264 4.227183 72.411382 36.25524 80.408583 5.032941 1.256693 9.980555 2.342777 14.851644 3.268153-1.395192-3.250314-2.435193-6.805515-3.10955-10.666485-.080159-.458943-.128147-.922925-.143615-1.388558-6.408123-192.911877-12.195077-326.611257-17.354216-401.01094-2.518281-36.315999-5.226567-71.511036-8.10133-105.595457-5.924997-70.249314-12.229065-132.241284-18.760063-188.037608-.862032-7.3646-1.90448-15.976765-2.968529-24.649753l-.236746-1.927849c-.112168-.912533-.224444-1.824766-.336644-2.735318l-.168219-1.364395c-1.428992-11.583709-2.830607-22.781935-3.821764-30.732141l-.11469-.920161c-.770459-6.183007-1.265934-10.194301-1.28739-10.546606-1.383081-22.709914 2.989537-32.256423 19.634795-37.4201449.205918-.0638804 1.213161-.3803381 2.29194-.7188031l.464586-.1457317c.774517-.242891 1.532341-.4802048 2.007513-.6279146 2.530963-.7867628 5.024087-1.5435381 7.754913-2.3475707 7.351642-2.1645311 15.427193-4.3746802 24.585731-6.6794662 24.743626-6.2268411 53.942082-12.2818207 88.331033-17.9463023 22.357015-3.6826042 46.356783-7.1013373 72.07041-10.2097112 43.985345-5.3171379 84.812148-7.8156977 119.697508-7.7521738-37.728689-6.0347472-85.811255-10.7767274-131.043216-7.1996554zm1.345287 785.9705439c9.832179 4.581483 17.152307 9.689341 16.349964 11.40872-.802344 1.719378-9.423328-.600815-19.255508-5.182298-9.832179-4.581483-17.152307-9.689341-16.349964-11.40872.802344-1.719379 9.423328.600815 19.255508 5.182298zm46.549029-14.015279c.802344-1.719379 9.423328.600815 19.255508 5.182298 9.832179 4.581483 17.152307 9.689341 16.349964 11.40872-.802344 1.719379-9.423328-.600815-19.255507-5.182298-9.83218-4.581483-17.152308-9.689341-16.349965-11.40872zm65.804538-9.814423c.802343-1.719379 8.825536.322263 17.920302 4.560135s15.817102 9.067178 15.014759 10.786557c-.802344 1.719378-8.825537-.322263-17.920303-4.560135-9.094765-4.237872-15.817102-9.067178-15.014758-10.786557zm54.151527-693.426341c17.969486 2.118212 30.882163 18.31119 28.947604 36.301375-8.437799 78.355334-17.442988 130.632353-27.53678 158.175216-35.976494 98.168823-65.888911 132.776382-122.677295 144.915451-29.289009 6.26081-55.409305-.422949-79.880773-19.750067-20.708863-16.35548-40.586012-41.6573-65.337484-81.341969-29.881868-47.910363-45.727291-106.453144-47.766561-175.308599-.434329-14.615181 8.80058-27.773628 22.692818-32.334074.004965-.001629.009929-.003257.01494-.004082 49.446168-16.235538 98.611437-26.865439 147.478259-31.87206 47.698305-4.8869 95.728805-4.47929 144.065272 1.218809zm-142.026855 18.677042c-47.42147 4.858537-95.185991 15.186184-143.293562 30.982938-5.47284 1.796219-9.110844 6.979899-8.939704 12.737424 1.939472 65.494468 16.854566 120.600617 44.745239 165.318447 43.880171 70.354203 76.799944 102.221972 124.067666 92.118037 44.968728-9.612502 71.937352-33.618781 108.079355-132.23923 9.260163-25.268144 17.987414-75.646949 26.181753-151.136414l.248355-2.295224c.762099-7.087042-4.324714-13.466095-11.403602-14.300542-46.887943-5.527341-93.449776-5.922489-139.6855-1.185436zm12.864201 198.212311c5.424305 0 9.821573 5.27288 9.821573 11.777308 0 6.504427-4.397268 11.777307-9.821573 11.777307s-9.821572-5.27288-9.821572-11.777307c0-6.504428 4.397267-11.777308 9.821572-11.777308zm93.907124-125.186563 2.667332 64.436631c.28677 6.794709-4.350757 12.811677-10.992623 14.265391-.006679.002569-.013857.004137-.021038.005697-33.194904 7.213035-59.923252 12.213961-80.236877 15.004827-20.278617 2.786056-51.04437 5.791503-92.374062 9.029688-7.649598.598952-14.355978-5.071105-15.037682-12.715817l-6.271079-70.486819c-.0006-.003005-.000878-.006153-.001156-.009301l-.004362-.050646c-.000626-.007449-.00137-.016389-.002485-.029799-.633559-7.706077 5.099936-14.466706 12.803649-15.099823 45.618181-3.760353 78.46689-6.663841 98.512186-8.706737 19.677764-2.00544 44.737134-4.987748 75.164872-8.946198.40568-.052755.813478-.087702 1.222218-.104742 7.725277-.322056 14.248929 5.679439 14.571107 13.407648zm-19.712138 7.367846c-20.205109 2.603506-37.927303 4.754434-53.194344 6.457332l-2.114354.234707c-4.896326.540866-9.532535 1.034262-13.909584 1.480344-19.286627 1.965577-50.189547 4.708936-92.879083 8.242791l5.208693 58.545619c38.056417-3.030737 66.470448-5.843628 85.295398-8.429967 18.709379-2.570461 43.293253-7.122258 73.781074-13.678649z" fill-rule="evenodd" transform="matrix(.99862953 .05233596 -.05233596 .99862953 25.794612 -12.470691)"/></svg>