<svg height="960" viewBox="0 0 960 960" width="960" xmlns="http://www.w3.org/2000/svg"><path d="m484.800929 37.0042208c260.678401 0 472 211.3215982 472 472.0000002s-211.321599 472-472 472c-260.678402 0-472.0000005-211.321598-472.0000005-472s211.3215985-472.0000002 472.0000005-472.0000002zm0 40c-238.587012 0-432.0000005 193.4129882-432.0000005 432.0000002s193.4129885 432 432.0000005 432c238.587011 0 432-193.412988 432-432s-193.412989-432.0000002-432-432.0000002zm-.300929 92.9957792c47.220346 0 85.5 38.279654 85.5 85.5 0 29.831015-15.277269 56.093832-38.43471 71.391355l.005294.009722c77.274595 153.780289 84.163493 167.489538 124.728362 248.215647 9.111901-3.31114 18.945619-5.116724 29.201054-5.116724 47.220346 0 85.5 38.279654 85.5 85.5s-38.279654 85.5-85.5 85.5c-43.837427 0-79.969316-32.991326-84.921382-75.499693h-240.157236c-4.952066 42.508367-41.083955 75.499693-84.921382 75.499693-47.220346 0-85.5-38.279654-85.5-85.5s38.279654-85.5 85.5-85.5c10.99641 0 21.507961 2.075924 31.164136 5.857254 32.337209-61.958749 75.617783-145.157129 129.839446-249.590256-22.635042-15.381213-37.503582-41.337739-37.503582-70.766998 0-47.220346 38.279654-85.5 85.5-85.5zm-209 440c-25.128956 0-45.5 20.371044-45.5 45.5s20.371044 45.5 45.5 45.5 45.5-20.371044 45.5-45.5-20.371044-45.5-45.5-45.5zm410 0c-25.128956 0-45.5 20.371044-45.5 45.5s20.371044 45.5 45.5 45.5 45.5-20.371044 45.5-45.5-20.371044-45.5-45.5-45.5zm-231.251626-274.505965c-54.276597 104.538159-97.592335 187.803856-129.947844 249.797675 19.602887 13.644974 33.218183 35.291567 36.120852 60.207983h240.157236c2.987683-25.646172 17.324688-47.828182 37.855919-61.390934-12.632687-25.139322-21.9995-43.779746-31.242477-62.17373l-1.915538-3.812016c-19.796991-39.396995-40.022233-79.646233-91.570524-182.229897l-.004398-.009681c-9.111729 3.310849-18.945791 5.116565-29.2016 5.116565-10.650979 0-20.847083-1.947551-30.251626-5.505965zm30.251626-125.494035c-25.128956 0-45.5 20.371044-45.5 45.5s20.371044 45.5 45.5 45.5 45.5-20.371044 45.5-45.5-20.371044-45.5-45.5-45.5z"/></svg>