<?xml version="1.0" encoding="UTF-8"?>
<svg width="495px" height="960px" viewBox="0 0 495 960" version="1.1" xmlns="http://www.w3.org/2000/svg" xmlns:xlink="http://www.w3.org/1999/xlink">
    <!-- Generator: Sketch 55.2 (78181) - https://sketchapp.com -->
    <title>Flex 2</title>
    <desc>Created with Sketch.</desc>
    <g id="Flex-2" stroke="none" stroke-width="1" fill="none" fill-rule="evenodd">
        <path d="M464.847134,694.432767 L414.953488,681.286889 L414.953488,680.933924 C406.601673,677.275858 401,668.929949 401,659.5 C401,650.070051 406.601673,641.724142 414.953488,638.066076 L414.953488,637.713111 L464.847134,624.567233 L464.847134,206 L12.1528662,206 L12.1528662,624.830711 L61.0465116,637.713111 L61.0465116,638.066076 C69.3983268,641.724142 75,650.070051 75,659.5 C75,668.929949 69.3983268,677.275858 61.0465116,680.933924 L61.0465116,681.286889 L12.1528662,694.169289 L12.1528662,908.206533 C12.1528662,930.107039 29.9268765,947.860906 51.8522293,947.860906 L425.147771,947.860906 C447.073123,947.860906 464.847134,930.107039 464.847134,908.206533 L464.847134,694.432767 Z M477,515 L490,515 C492.761424,515 495,517.238576 495,520 L495,582 C495,584.761424 492.761424,587 490,587 L477,587 L477,908.206533 C477,936.811275 453.784966,960 425.147771,960 L51.8522293,960 C23.2150338,960 0,936.811275 0,908.206533 L0,131.102213 C0,58.69646 58.7630543,0 131.250955,0 L345.749045,0 C418.236946,0 477,58.69646 477,131.102213 L477,515 Z M477,521 L477,581 L489,581 L489,521 L477,521 Z M464.847134,194 L12.1528662,194 L12.1528662,200 L464.847134,200 L464.847134,194 Z M464.847134,188 L464.847134,131.102213 C464.847134,65.4006964 411.525103,12.1390938 345.749045,12.1390938 L131.250955,12.1390938 C65.474897,12.1390938 12.1528662,65.4006964 12.1528662,131.102213 L12.1528662,188 L464.847134,188 Z M356.5,581 C335.246488,581 318,563.996421 318,543 C318,522.003579 335.246488,505 356.5,505 C377.753512,505 395,522.003579 395,543 C395,563.996421 377.753512,581 356.5,581 Z M356.5,575 C374.458705,575 389,560.663512 389,543 C389,525.336488 374.458705,511 356.5,511 C338.541295,511 324,525.336488 324,543 C324,560.663512 338.541295,575 356.5,575 Z M356.5,590 C330.266474,590 309,568.957383 309,543 C309,517.042617 330.266474,496 356.5,496 C382.733526,496 404,517.042617 404,543 C404,568.957383 382.733526,590 356.5,590 Z M356.5,586.967742 C381.04104,586.967742 400.935484,567.282713 400.935484,543 C400.935484,518.717287 381.04104,499.032258 356.5,499.032258 C331.95896,499.032258 312.064516,518.717287 312.064516,543 C312.064516,567.282713 331.95896,586.967742 356.5,586.967742 Z M57.1134792,676.003479 C64.14407,673.695622 69,667.069293 69,659.5 C69,651.930707 64.14407,645.304378 57.1134792,642.996521 L55.6187443,642.50586 L15,631.803715 L15,687.196285 L55.6187443,676.49414 L57.1134792,676.003479 Z M418.886521,676.003479 L420.381256,676.49414 L461,687.196285 L461,631.803715 L420.381256,642.50586 L418.886521,642.996521 C411.85593,645.304378 407,651.930707 407,659.5 C407,667.069293 411.85593,673.695622 418.886521,676.003479 Z" id="Combined-Shape" fill="#000000" fill-rule="nonzero"></path>
    </g>
</svg>