<?xml version="1.0" encoding="UTF-8"?>
<svg width="469px" height="960px" viewBox="0 0 469 960" version="1.1" xmlns="http://www.w3.org/2000/svg" xmlns:xlink="http://www.w3.org/1999/xlink">
    <!-- Generator: Sketch 55.2 (78181) - https://sketchapp.com -->
    <title>Flex 1</title>
    <desc>Created with Sketch.</desc>
    <g id="Flex-1" stroke="none" stroke-width="1" fill="none" fill-rule="evenodd">
        <path d="M456.699317,307.113439 L411.263284,294.90936 C410.781664,294.880757 410.303693,294.838913 409.829718,294.784191 C406.793575,313.949495 402.660155,333.11175 397.481073,352.423815 C387.717118,388.832222 375.020029,423.630062 356.830494,466.477526 C353.555043,474.193212 350.190803,481.975855 345.826961,491.967431 C345.600974,492.484856 337.457252,511.089723 335.183091,516.318463 C326.831091,535.521338 321.232101,548.946129 316.362118,561.731329 C304.123934,593.860319 298.14876,618.390162 298.14876,640.115523 L298.14876,917 L292,917 L292,640.115523 C292,617.497526 298.134603,592.313177 310.615155,559.547898 C315.526215,546.654857 321.156695,533.154563 329.543407,513.871879 C331.820966,508.635326 339.967578,490.023857 340.191021,489.512255 C344.547133,479.538379 347.903656,471.773589 351.169506,464.080516 C369.256979,421.473473 381.863211,386.924638 391.541654,350.835089 C396.709459,331.565075 400.823487,312.453528 403.832262,293.343657 C393.980653,289.6703 387,280.128353 387,269 C387,255.959153 396.586186,245.096839 409.14501,243.304182 C409.614272,234.66365 409.85124,225.99587 409.85124,217.286611 L409.85124,45 C409.85124,45 409.85124,45 416,45 L416,47.7334442 L409.85124,47.7334442 L409.85124,45 L416,45 L416,217.286611 C416,225.553804 415.789218,233.783401 415.371618,241.987145 L456.699317,230.886561 L456.699317,49.5351812 C456.699317,28.9605135 439.994133,12.2814499 419.387244,12.2814499 L68.6127563,12.2814499 C48.0058674,12.2814499 31.3006834,28.9605135 31.3006834,49.5351812 L31.3006834,307.510933 C31.7448929,308.277114 32,309.172104 32,310.128205 L32,379.871795 C32,380.827896 31.7448929,381.722886 31.3006834,382.489067 L31.3006834,910.464819 C31.3006834,931.039486 48.0058674,947.71855 68.6127563,947.71855 L266.03037,947.71855 C277.375025,947.71855 287.537151,942.663454 294.380435,934.686232 C328.545236,906.456523 369.854339,891.831839 420.84056,891.831839 L420.997169,891.797785 C440.857217,890.956007 456.699317,874.614225 456.699317,854.578107 L456.699317,307.113439 Z M414.997771,248.478361 C414.133631,261.921874 412.71519,275.304091 410.759978,288.676921 C411.134208,288.715895 411.511613,288.744298 411.8919,288.761825 L412.226352,288.777239 L453.830986,299.952207 L453.830986,238.047793 L414.997771,248.478361 Z M404.781364,287.062156 C406.583806,274.608201 407.914508,262.147662 408.759226,249.637154 C399.836006,251.518615 393.169014,259.496481 393.169014,269 C393.169014,277.027505 397.925894,283.96646 404.781364,287.062156 Z M19,385 L5,385 C2.23857625,385 0,382.704024 0,379.871795 L0,310.128205 C0,307.295976 2.23857625,305 5,305 L19,305 L19,49.5351812 C19,22.1776561 41.2123876,0 68.6127563,0 L419.387244,0 C446.787612,0 469,22.1776561 469,49.5351812 L469,854.578107 C469,880.8933 448.406791,902.537885 422.258906,904.031371 C421.788435,904.085898 421.314867,904.113288 420.84056,904.113288 C373.706469,904.113288 335.209734,917.179101 302.967085,943.536216 C293.636679,953.921849 280.315085,960 266.03037,960 L68.6127563,960 C41.2123876,960 19,937.822344 19,910.464819 L19,385 Z M19,378.846154 L19,311.153846 L6,311.153846 L6,378.846154 L19,378.846154 Z M138,379 C114.251756,379 95,359.748244 95,336 C95,312.251756 114.251756,293 138,293 C161.748244,293 181,312.251756 181,336 C181,359.748244 161.748244,379 138,379 Z M138,372.857143 C158.355638,372.857143 174.857143,356.355638 174.857143,336 C174.857143,315.644362 158.355638,299.142857 138,299.142857 C117.644362,299.142857 101.142857,315.644362 101.142857,336 C101.142857,356.355638 117.644362,372.857143 138,372.857143 Z M137.5,388 C108.505051,388 85,364.494949 85,335.5 C85,306.505051 108.505051,283 137.5,283 C166.494949,283 190,306.505051 190,335.5 C190,364.494949 166.494949,388 137.5,388 Z M137.5,384.911765 C164.789364,384.911765 186.911765,362.789364 186.911765,335.5 C186.911765,308.210636 164.789364,286.088235 137.5,286.088235 C110.210636,286.088235 88.0882353,308.210636 88.0882353,335.5 C88.0882353,362.789364 110.210636,384.911765 137.5,384.911765 Z M66.353692,555 L260.646308,555 C271.887342,555 281,564.109412 281,575.346441 L281,915.653559 C281,926.890588 271.887342,936 260.646308,936 L66.353692,936 C55.1126583,936 46,926.890588 46,915.653559 L46,575.346441 C46,564.109412 55.1126583,555 66.353692,555 Z M66.353692,561.134605 C58.5019147,561.134605 52.1367916,567.497461 52.1367916,575.346441 L52.1367916,915.653559 C52.1367916,923.502539 58.5019147,929.865395 66.353692,929.865395 L260.646308,929.865395 C268.498085,929.865395 274.863208,923.502539 274.863208,915.653559 L274.863208,575.346441 C274.863208,567.497461 268.498085,561.134605 260.646308,561.134605 L66.353692,561.134605 Z" id="Combined-Shape" fill="#000000" fill-rule="nonzero"></path>
    </g>
</svg>