<svg id="Layer_1" data-name="Layer 1" xmlns="http://www.w3.org/2000/svg" viewBox="0 0 1417.32 1417.32"><title>1Artboard 4</title><path d="M1361.46,867.62h-8.7a25.52,25.52,0,0,0-25.49,25.21H90a25.52,25.52,0,0,0-25.49-25.21h-8.7A38.73,38.73,0,0,0,17.17,906.3v416A38.73,38.73,0,0,0,55.86,1361h8.7A25.52,25.52,0,0,0,90,1336H1327.28a25.52,25.52,0,0,0,25.49,24.95h8.7a38.73,38.73,0,0,0,38.68-38.68v-416A38.73,38.73,0,0,0,1361.46,867.62ZM1333,1273.36H712V955.22h621Zm0,50.65H84.3v-44.64H1333ZM704.63,955.22v318.14H84.29V955.22Zm1.38-6H84.3V904.83H1333v44.38ZM78,1335.46A13.51,13.51,0,0,1,64.56,1349h-8.7a26.71,26.71,0,0,1-26.68-26.68v-416a26.71,26.71,0,0,1,26.68-26.68h8.7A13.51,13.51,0,0,1,78,893.11v11.72h.23v50.39h0v318.14h0V1324H78Zm1310.1-13.19a26.71,26.71,0,0,1-26.68,26.68h-8.7a13.51,13.51,0,0,1-13.49-13.49V1324H1339V904.83h.23V893.11a13.51,13.51,0,0,1,13.49-13.49h8.7a26.71,26.71,0,0,1,26.68,26.68Z"/><path d="M409.5,1244.2v-243H129.81v243Zm-273.69-237H403.5v231H135.81Z"/><path d="M589.55,1058.94H432.32V1244.2H589.55Zm-6,179.25H438.32V1064.94H583.55Z"/><polygon points="328.5 1054.57 302.81 1054.57 302.81 1037.36 236.5 1037.36 236.5 1054.57 210.81 1054.57 210.81 1075.63 171.1 1075.63 171.1 1208.04 210.81 1208.04 236.5 1208.04 302.81 1208.04 328.5 1208.04 368.2 1208.04 368.2 1075.63 328.5 1075.63 328.5 1054.57"/><path d="M510.93,1192a54.68,54.68,0,1,0-54.68-54.68A54.74,54.74,0,0,0,510.93,1192Zm0-103.36a48.68,48.68,0,1,1-48.68,48.68A48.74,48.74,0,0,1,510.93,1088.64Z"/><circle cx="510.93" cy="1137.32" r="14.63"/><rect x="488.95" y="1004.37" width="38.15" height="38.15"/><rect x="805.85" y="1021.68" width="39.83" height="39.83"/><path d="M825.77,1209.9a50.7,50.7,0,1,0-50.7-50.7A50.75,50.75,0,0,0,825.77,1209.9Zm0-95.39a44.7,44.7,0,1,1-44.7,44.7A44.75,44.75,0,0,1,825.77,1114.51Z"/><circle cx="825.77" cy="1159.2" r="33.58"/><rect x="1002.61" y="1021.68" width="39.83" height="39.83"/><path d="M1022.52,1209.9a50.7,50.7,0,1,0-50.7-50.7A50.75,50.75,0,0,0,1022.52,1209.9Zm0-95.39a44.7,44.7,0,1,1-44.7,44.7A44.75,44.75,0,0,1,1022.52,1114.51Z"/><circle cx="1022.52" cy="1159.2" r="33.58"/><rect x="1199.36" y="1021.68" width="39.83" height="39.83"/><path d="M1219.28,1209.9a50.7,50.7,0,1,0-50.7-50.7A50.75,50.75,0,0,0,1219.28,1209.9Zm0-95.39a44.7,44.7,0,1,1-44.7,44.7A44.75,44.75,0,0,1,1219.28,1114.51Z"/><circle cx="1219.28" cy="1159.2" r="33.58"/></svg>