<svg id="Layer_1" data-name="Layer 1" xmlns="http://www.w3.org/2000/svg" viewBox="0 0 1417.32 1417.32"><title>1Artboard 3</title><path d="M1361.46,867.62h-8.7a25.52,25.52,0,0,0-25.49,25.21H90a25.52,25.52,0,0,0-25.49-25.21h-8.7A38.73,38.73,0,0,0,17.17,906.3v416A38.73,38.73,0,0,0,55.86,1361h8.7A25.52,25.52,0,0,0,90,1336H1327.28a25.52,25.52,0,0,0,25.49,24.95h8.7a38.73,38.73,0,0,0,38.68-38.68v-416A38.73,38.73,0,0,0,1361.46,867.62ZM1333,1273.36H712V955.22h621Zm0,50.65H84.3v-44.64H1333ZM704.63,955.22v318.14H84.29V955.22Zm1.38-6H84.3V904.83H1333v44.38ZM78,1335.46A13.51,13.51,0,0,1,64.56,1349h-8.7a26.71,26.71,0,0,1-26.68-26.68v-416a26.71,26.71,0,0,1,26.68-26.68h8.7A13.51,13.51,0,0,1,78,893.11v11.72h.23v50.39h0v318.14h0V1324H78Zm1310.1-13.19a26.71,26.71,0,0,1-26.68,26.68h-8.7a13.51,13.51,0,0,1-13.49-13.49V1324H1339V904.83h.23V893.11a13.51,13.51,0,0,1,13.49-13.49h8.7a26.71,26.71,0,0,1,26.68,26.68Z"/><path d="M409.5,1244.2v-243H129.81v243Zm-273.69-237H403.5v231H135.81Z"/><path d="M589.55,1058.94H432.32V1244.2H589.55Zm-6,179.25H438.32V1064.94H583.55Z"/><polygon points="328.5 1054.57 302.81 1054.57 302.81 1037.36 236.5 1037.36 236.5 1054.57 210.81 1054.57 210.81 1075.63 171.1 1075.63 171.1 1208.04 210.81 1208.04 236.5 1208.04 302.81 1208.04 328.5 1208.04 368.2 1208.04 368.2 1075.63 328.5 1075.63 328.5 1054.57"/><path d="M510.93,1192a54.68,54.68,0,1,0-54.68-54.68A54.74,54.74,0,0,0,510.93,1192Zm0-103.36a48.68,48.68,0,1,1-48.68,48.68A48.74,48.74,0,0,1,510.93,1088.64Z"/><circle cx="510.93" cy="1137.32" r="14.63"/><rect x="488.95" y="1004.37" width="38.15" height="38.15"/><rect x="790.46" y="997.3" width="39.89" height="39.89"/><path d="M886.86,1187.08c4.36,24.5,26.13,42.29,51.77,42.29h175.84c25.64,0,47.41-17.78,51.77-42.29l11.37-63.92a49.81,49.81,0,0,0-11-40.78,53,53,0,0,0-40.78-18.82H927.26a53,53,0,0,0-40.77,18.82,49.82,49.82,0,0,0-11,40.78Zm8.82-97a41,41,0,0,1,31.58-14.53h198.57a41,41,0,0,1,31.58,14.53,37.84,37.84,0,0,1,8.38,31L1154.42,1185c-3.34,18.77-20.14,32.39-40,32.39H938.63c-19.81,0-36.62-13.62-40-32.39l-11.37-63.92A37.84,37.84,0,0,1,895.69,1090.08Z"/><circle cx="926.46" cy="1120.89" r="9.53"/><circle cx="976.5" cy="1120.89" r="9.53"/><circle cx="1026.55" cy="1120.89" r="9.53"/><circle cx="1076.59" cy="1120.89" r="9.53"/><circle cx="1126.64" cy="1120.89" r="9.53"/><circle cx="951.48" cy="1172.92" r="9.53"/><circle cx="1001.52" cy="1172.92" r="9.53"/><circle cx="1051.57" cy="1172.92" r="9.53"/><circle cx="1101.62" cy="1172.92" r="9.53"/><path d="M828.85,1193.66l27.25-47.21-27.25-47.21H774.34l-27.25,47.21,27.25,47.21Zm-51-88.41h47.58l23.79,41.21-23.79,41.21H777.8L754,1146.46Z"/><path d="M801.59,1172.57a26.11,26.11,0,1,0-26.11-26.11A26.14,26.14,0,0,0,801.59,1172.57Zm0-46.23a20.11,20.11,0,1,1-20.11,20.11A20.14,20.14,0,0,1,801.59,1126.34Z"/><path d="M1269.32,1193.66l27.25-47.21-27.25-47.21h-54.51l-27.25,47.21,27.25,47.21Zm-51-88.41h47.58l23.79,41.21-23.79,41.21h-47.58l-23.79-41.21Z"/><path d="M1242.07,1172.57a26.11,26.11,0,1,0-26.11-26.11A26.14,26.14,0,0,0,1242.07,1172.57Zm0-46.23a20.11,20.11,0,1,1-20.11,20.11A20.14,20.14,0,0,1,1242.07,1126.34Z"/></svg>