<svg id="Layer_1" data-name="Layer 1" xmlns="http://www.w3.org/2000/svg" viewBox="0 0 1417.32 1417.32"><title>1Artboard 7</title><path d="M432.32,1244.2H589.55V1058.94H432.32Zm6-179.25H583.55V1238.2H438.32Z"/><path d="M510.93,1082.64a54.68,54.68,0,1,0,54.68,54.68A54.74,54.74,0,0,0,510.93,1082.64Zm0,103.36a48.68,48.68,0,1,1,48.68-48.68A48.74,48.74,0,0,1,510.93,1186Z"/><circle cx="510.93" cy="1137.32" r="14.63"/><polygon points="810.31 1154.18 825.38 1140.16 825.38 1131.21 778.05 1131.21 778.05 1140.16 793.12 1154.18 793.12 1157 773.39 1157 773.39 1232.67 830.04 1232.67 830.04 1157 810.31 1157 810.31 1154.18"/><polygon points="874.94 1154.18 890.01 1140.16 890.01 1131.21 842.68 1131.21 842.68 1140.16 857.75 1154.18 857.75 1157 838.02 1157 838.02 1232.67 894.67 1232.67 894.67 1157 874.94 1157 874.94 1154.18"/><path d="M913,1120.78H755.06V1246.6H913ZM761.06,1240.6V1126.78H907V1240.6Z"/><path d="M1111.61,1120.78H953.68V1246.6h157.93Zm-6,119.82H959.68V1126.78h145.93Z"/><polygon points="1026.66 1159 1006.92 1159 1006.92 1153.31 1022 1139.29 1022 1133.21 1000.33 1133.21 978.67 1133.21 978.67 1139.29 993.74 1153.31 993.74 1159 974.01 1159 974.01 1230.67 1026.66 1230.67 1026.66 1159"/><polygon points="1091.29 1159 1071.56 1159 1071.56 1153.31 1086.63 1139.29 1086.63 1133.21 1064.96 1133.21 1043.3 1133.21 1043.3 1139.29 1058.37 1153.31 1058.37 1159 1038.64 1159 1038.64 1230.67 1091.29 1230.67 1091.29 1159"/><path d="M1310.23,1120.78H1152.3V1246.6h157.93Zm-6,119.82H1158.3V1126.78h145.93Z"/><polygon points="1225.28 1159 1205.54 1159 1205.54 1153.31 1220.61 1139.29 1220.61 1133.21 1198.95 1133.21 1177.29 1133.21 1177.29 1139.29 1192.36 1153.31 1192.36 1159 1172.63 1159 1172.63 1230.67 1225.28 1230.67 1225.28 1159"/><polygon points="1289.91 1159 1270.18 1159 1270.18 1153.31 1285.25 1139.29 1285.25 1133.21 1263.58 1133.21 1241.92 1133.21 1241.92 1139.29 1256.99 1153.31 1256.99 1159 1237.26 1159 1237.26 1230.67 1289.91 1230.67 1289.91 1159"/><rect x="488.95" y="1004.37" width="38.15" height="38.15"/><rect x="821.17" y="1010.59" width="25.72" height="25.72"/><rect x="1019.79" y="1010.59" width="25.72" height="25.72"/><rect x="1218.41" y="1010.59" width="25.72" height="25.72"/><path d="M1361.46,867.62h-8.7a25.52,25.52,0,0,0-25.49,25.21H357.61c-2.19-21.42-4.83-40.8-7.22-58.3-3.19-23.36-5.94-43.53-6-58.74V112.08a74.56,74.56,0,0,0-74.47-74.47h-.45A74.56,74.56,0,0,0,195,112.08V775.75c-.1,15.25-2.85,35.42-6,58.78-2.39,17.5-5,36.88-7.22,58.3H90a25.52,25.52,0,0,0-25.49-25.21h-8.7A38.73,38.73,0,0,0,17.17,906.3v416A38.73,38.73,0,0,0,55.86,1361h8.7A25.52,25.52,0,0,0,90,1336H1327.28a25.52,25.52,0,0,0,25.49,24.95h8.7a38.73,38.73,0,0,0,38.68-38.68v-416A38.73,38.73,0,0,0,1361.46,867.62ZM78.29,1273.36h0V1324H78v11.45A13.51,13.51,0,0,1,64.56,1349h-8.7a26.71,26.71,0,0,1-26.68-26.68v-416a26.71,26.71,0,0,1,26.68-26.68h8.7A13.51,13.51,0,0,1,78,893.11v11.72h.23v50.39h0ZM1333,904.83v44.38H361.65c-.61-15.65-1.63-30.42-2.89-44.38Zm0,368.53H712V955.22h621ZM350.26,985.95l0,6h0v228.19a15,15,0,0,1-15,15H204.06a15,15,0,0,1-15-15V985.95q-.05-8.14.06-16c13.59,1.85,46.86,5.86,80.55,5.86s67-4,80.55-5.86Q350.31,977.82,350.26,985.95ZM332.35,251.5H207V229h125.4ZM269.43,49.61h.45a62.55,62.55,0,0,1,62.47,62.47V223H207V112.08A62.55,62.55,0,0,1,269.43,49.61ZM200.8,836.15c3.38-24.75,6-44.3,6.15-60.36V257.5h125.4V775.82c.1,16,2.77,35.58,6.15,60.33,4.74,34.73,10.5,76.9,11.59,127.77-12.92,1.78-46.46,5.9-80.44,5.9s-67.51-4.12-80.44-5.9C190.31,913.05,196.06,870.88,200.8,836.15ZM84.3,904.83h96.25c-1.26,14-2.28,28.73-2.89,44.38H84.3Zm0,50.39h93.15Q177,970.09,177,986v234.19a27.05,27.05,0,0,0,27,27h131.2a27.05,27.05,0,0,0,27-27V980h0q0-12.73-.42-24.77H704.63v318.14H84.29ZM1333,1324H84.3v-44.64H1333Zm55.12-1.74a26.71,26.71,0,0,1-26.68,26.68h-8.7a13.51,13.51,0,0,1-13.49-13.49V1324H1339V904.83h.23V893.11a13.51,13.51,0,0,1,13.49-13.49h8.7a26.71,26.71,0,0,1,26.68,26.68Z"/></svg>