<svg id="Layer_1" data-name="Layer 1" xmlns="http://www.w3.org/2000/svg" viewBox="0 0 1417.32 1417.32"><title>1Artboard 6</title><path d="M432.32,1058.94V1244.2H589.55V1058.94ZM583.55,1238.2H438.32V1064.94H583.55Z"/><path d="M510.93,1192a54.68,54.68,0,1,0-54.68-54.68A54.74,54.74,0,0,0,510.93,1192Zm0-103.36a48.68,48.68,0,1,1-48.68,48.68A48.74,48.74,0,0,1,510.93,1088.64Z"/><circle cx="510.93" cy="1137.32" r="14.63"/><rect x="488.95" y="1004.37" width="38.15" height="38.15"/><path d="M1361.46,867.62h-8.7a25.52,25.52,0,0,0-25.49,25.21H357.61c-2.19-21.42-4.83-40.8-7.22-58.3-3.19-23.36-5.94-43.53-6-58.74V112.08a74.56,74.56,0,0,0-74.47-74.47h-.45A74.56,74.56,0,0,0,195,112.08V775.75c-.1,15.25-2.85,35.42-6,58.78-2.39,17.5-5,36.88-7.22,58.3H90a25.52,25.52,0,0,0-25.49-25.21h-8.7A38.73,38.73,0,0,0,17.17,906.3v416A38.73,38.73,0,0,0,55.86,1361h8.7A25.52,25.52,0,0,0,90,1336H1327.28a25.52,25.52,0,0,0,25.49,24.95h8.7a38.73,38.73,0,0,0,38.68-38.68v-416A38.73,38.73,0,0,0,1361.46,867.62ZM78.29,1273.36h0V1324H78v11.45A13.51,13.51,0,0,1,64.56,1349h-8.7a26.71,26.71,0,0,1-26.68-26.68v-416a26.71,26.71,0,0,1,26.68-26.68h8.7A13.51,13.51,0,0,1,78,893.11v11.72h.23v50.39h0Zm632.36,0V955.22H1333v318.13ZM1333,904.83V949.2H361.65c-.61-15.65-1.63-30.42-2.89-44.38ZM350.26,985.95l0,6h0v228.19a15,15,0,0,1-15,15H204.06a15,15,0,0,1-15-15V985.95q-.05-8.14.06-16c13.59,1.85,46.86,5.86,80.55,5.86s67-4,80.55-5.86Q350.31,977.82,350.26,985.95ZM332.35,251.5H207V229h125.4ZM269.43,49.61h.45a62.55,62.55,0,0,1,62.47,62.47V223H207V112.08A62.55,62.55,0,0,1,269.43,49.61ZM200.8,836.15c3.38-24.75,6-44.3,6.15-60.36V257.5h125.4V775.82c.1,16,2.77,35.58,6.15,60.33,4.74,34.73,10.5,76.9,11.59,127.77-12.92,1.78-46.46,5.9-80.44,5.9s-67.51-4.12-80.44-5.9C190.31,913.05,196.06,870.88,200.8,836.15ZM84.3,904.83h96.25c-1.26,14-2.28,28.73-2.89,44.38H84.3Zm0,50.39h93.15Q177,970.09,177,986v234.19a27.05,27.05,0,0,0,27,27h131.2a27.05,27.05,0,0,0,27-27V980h0q0-12.73-.42-24.77H704.62v318.14H84.29Zm0,368.79v-44.64H1333V1324Zm1303.85-1.74a26.71,26.71,0,0,1-26.68,26.68h-8.7a13.51,13.51,0,0,1-13.49-13.49V1324H1339v-44.64h0V949.2h0V904.83h.23V893.11a13.51,13.51,0,0,1,13.49-13.49h8.7a26.71,26.71,0,0,1,26.68,26.68Z"/><rect x="789.07" y="997.3" width="39.89" height="39.89"/><path d="M1124.45,1063.55H925.88a53,53,0,0,0-40.78,18.82,49.81,49.81,0,0,0-11,40.78l11.37,63.92c4.36,24.5,26.13,42.29,51.77,42.29h175.84c25.64,0,47.41-17.78,51.77-42.29l11.37-63.92a49.82,49.82,0,0,0-11-40.78A53,53,0,0,0,1124.45,1063.55Zm40,57.5L1153,1185c-3.34,18.77-20.14,32.39-40,32.39H937.25c-19.81,0-36.62-13.62-40-32.39l-11.37-63.92a37.84,37.84,0,0,1,8.38-31,41,41,0,0,1,31.58-14.53h198.57a41,41,0,0,1,31.58,14.53A37.84,37.84,0,0,1,1164.4,1121.06Z"/><circle cx="925.07" cy="1120.89" r="9.53"/><circle cx="975.12" cy="1120.89" r="9.53"/><circle cx="1025.17" cy="1120.89" r="9.53"/><circle cx="1075.21" cy="1120.89" r="9.53"/><circle cx="1125.26" cy="1120.89" r="9.53"/><circle cx="950.1" cy="1172.92" r="9.53"/><circle cx="1000.14" cy="1172.92" r="9.53"/><circle cx="1050.19" cy="1172.92" r="9.53"/><circle cx="1100.23" cy="1172.92" r="9.53"/><path d="M773,1099.25l-27.25,47.21L773,1193.66h54.51l27.25-47.21-27.25-47.21Zm51,88.41H776.42l-23.79-41.21,23.79-41.21H824l23.79,41.21Z"/><path d="M800.21,1120.34a26.11,26.11,0,1,0,26.11,26.11A26.14,26.14,0,0,0,800.21,1120.34Zm0,46.23a20.11,20.11,0,1,1,20.11-20.11A20.14,20.14,0,0,1,800.21,1166.57Z"/><path d="M1213.43,1099.25l-27.25,47.21,27.25,47.21h54.51l27.25-47.21-27.25-47.21Zm51,88.41H1216.9l-23.79-41.21,23.79-41.21h47.58l23.79,41.21Z"/><path d="M1240.69,1120.34a26.11,26.11,0,1,0,26.11,26.11A26.14,26.14,0,0,0,1240.69,1120.34Zm0,46.23a20.11,20.11,0,1,1,20.11-20.11A20.14,20.14,0,0,1,1240.69,1166.57Z"/></svg>