<svg height="960" viewBox="0 0 960 960" width="960" xmlns="http://www.w3.org/2000/svg"><path d="m543.5 47c227.257348 0 410.5 194.370748 410.5 433s-183.242652 433-410.5 433c-12.547406 0-25.031451-.594927-37.425633-1.77766l-2.172367-.21434-.494599-.002856c-1.717985-.029467-3.456657-.169937-5.208762-.42784l-.751703-.117738-3.648936-.606566-1.497536-.191717c-9.397112-1.234124-18.72977-2.807673-27.985464-4.716103l-1.426-.29818-114.430723-19.289714c-2.995555-.504962-5.868276-1.335724-8.583567-2.452821l-.26571-.111465-2.851199-.539593c-188.644633-37.120641-327.89197186-201.995164-330.71411198-396.721531l-.04368902-6.031876c0-210.488912 159.085109-385.9838248 366.359626-408.1514592l4.331374-.4295408 99.412451-18.2608156c1.208803-.2220372 2.413225-.3874461 3.61076-.4982628l.524789-.0439216.273911-.0458888c20.051548-3.2586628 40.402125-4.9585194 60.933367-5.0701112zm.100203 40.0000141.100346-.0000141c-204.525912 0-370.326923 175.952093-370.326923 393 0 217.012464 165.746868 392.942536 370.226734 392.999986l-.10036.000014c204.6215 0 370.5-175.952093 370.5-393 0-217.012476-165.824349-392.9425545-370.399797-392.9999859zm-178.18968 25.4862749-5.537354.813831c-177.742802 27.259721-313.873169 180.832325-313.873169 366.19988 0 183.695 133.684866 336.166227 309.072131 365.431213l.035167.982563 10.693363 1.811947c-126.203749-68.487782-212.427035-207.56282-212.427035-367.725723 0-159.99781 86.045623-298.951207 212.036897-367.513711z"/></svg>