<svg height="960" viewBox="0 0 960 960" width="960" xmlns="http://www.w3.org/2000/svg"><path d="m480 0c263.44186 0 480 214.325581 480 480s-214.325581 480-480 480-480-214.325581-480-480 214.325581-480 480-480zm-.5 31c-247.679104 0-448.5 200.820896-448.5 448.5s200.820896 448.5 448.5 448.5 448.5-200.820896 448.5-448.5-200.820896-448.5-448.5-448.5zm.5 166c155.859375 0 282.773437 126.914062 285 285h-1.482l-.021195 2.679567c-2.50994 154.131893-128.780526 278.855317-283.496805 278.855317l-.001-13.899884-2.225563 13.365c-154.300781 0-280.232261-124.488135-282.735461-278.329261l-.037976-4.670739h15.585937c0 149.299213 122.460938 269.629921 269.414063 269.629921l-.001-.000921.001-269.629 269.406699-.003008c-1.09026-148.251451-123.111853-267.411055-269.406699-267.411055zm0-.534884v283.534884h-285.767442c0-156.27907 127.255814-283.534884 285.767442-283.534884zm-265.044329-42.465116c8.91853 0 15.607428 2.225352 22.296326 6.676056 11.148163 8.901409 11.148163 24.478874 8.91853 28.929578h2.229633c11.148162-4.450704 24.525958-2.225352 33.444488 6.676056 15.607428 15.577465 6.688898 35.605634-8.91853 51.183099-8.91853 9.791549-16.053355 17.44676-23.259527 24.959549l-1.623376 1.688815c-7.769357 8.06534-15.781948 16.138908-26.342299 26.697741l-2.248293 2.24712c-2.795297 2.792893-5.767843 5.759732-8.956217 8.941986l-82.496406-77.887324c8.91853-8.901408 22.296326-24.478873 31.214856-35.605634 31.214856-33.380281 42.363019-42.28169 55.740815-44.507042zm503.872928-22.913005c8.930233 6.697675 15.627907 11.162791 22.325581 17.860465l-40.186046 60.27907-4.465116 4.465117 4.465116-2.232559 53.581395-26.790697 17.860465 20.093023-26.790697 53.581395-2.232558 4.465117 4.465116-4.465117 62.511628-40.186046c4.465116 6.697674 13.395349 15.627907 17.860465 22.325581l-98.232558 60.27907c-4.465117-6.697674-13.395349-17.860465-20.093023-24.55814l31.255813-55.813953 2.232559-4.465116-4.465117 2.232558-58.046511 29.023256c-6.697675-4.465117-15.627907-13.395349-24.55814-20.093024zm-458.228599 75.613792c-4.4-2.267716-6.6-2.267716-11 0-.125714.129584-.251429.259168-.377553.389175l-.380017.391713c-1.974022 2.034783-4.145287 4.272881-8.04243 8.289979-4.29 4.422047-11.59158 12.293291-18.903199 20.250765l-1.686108 1.83634c-10.288388 11.212724-20.137546 22.082457-21.128899 23.176913l-.081794.090312 15.4 15.874016s.00374-.004082.01115-.012169l.087929-.09596c1.046707-1.142276 10.22377-11.156295 19.745511-21.515151l1.787464-1.944245c9.137146-9.936626 18.143946-19.700506 20.167946-21.786806.195556-.201575.391111-.403149.58628-.604724l.583963-.604725c3.977214-4.132283 7.629757-8.264566 7.629757-12.39685 0-.188976 0-.377953-.000318-.566765l-.002228-.565781c-.02801-4.143044-.364121-8.127296-4.397454-10.206037zm-31.190758-20.024909c-2.221008-6.813791-8.884033-11.356319-13.32605-9.085055-4.061272 0-6.265963 1.898591-8.311518 3.959919l-.382091.387982-.190424.194626c-8.884034 9.085056-26.652101 27.255166-42.199159 47.69654l17.768067 18.17011.036886-.0431c1.197994-1.399607 31.234911-36.478822 39.941264-45.382176 4.442017-4.542527 8.884034-11.356318 6.663025-15.898846zm277.865227-127.0300108c12.471532.0098863 24.943064.1532372 37.414595 2.2318258l4.465116 116.093023c-11.16279-2.232558-20.093023-4.465116-29.023255-4.465116l-2.232558-78.1395349v-4.4651163l-2.232559 4.4651163-26.790697 60.2790699v-2.232558h-24.55814l-26.790698-58.0465119-2.232558 78.1395349c-8.930232 2.232558-20.093023 2.232558-29.023255 4.465116l4.465116-116.093023c13.395349 0 26.790697-2.2325581 40.186046-2.2325581l26.790698 64.7441861 26.790698-64.7441861z" fill-rule="evenodd"/></svg>