<svg height="960" viewBox="0 0 960 960" width="960" xmlns="http://www.w3.org/2000/svg"><g fill="#000" fill-rule="evenodd"><path d="m477.761276 2.77001181c134.447054 0 243.437925 108.99087119 243.437925 243.43792519v467.153755c0 134.447054-108.990871 243.437925-243.437925 243.437925s-243.437926-108.990871-243.437926-243.437925v-467.153755c0-134.447054 108.990872-243.43792519 243.437926-243.43792519zm52.422709 803.95359619c-31.350894 19.758177-52.543878 38.309452-64.408533 55.228023-9.566736 13.641821-12.530219 25.363914-10.336187 35.204605 1.693654 7.596391 6.607552 14.314845 13.838677 19.463242 2.812833.121861 5.641278.180139 8.483334.180139 91.783536 0 169.370726-60.781783 194.705846-144.289625-3.115184-4.475677-8.064368-7.940035-14.784582-9.764712-24.617484-6.684158-67.703057 6.293597-127.498555 43.978328zm-52.422709-763.9535962c-112.355664 0-203.437926 91.0822612-203.437926 203.4379252v467.153755c0 99.539524 71.488304 182.382061 165.923508 199.986207-1.933724-3.71492-3.398802-7.670431-4.3283-11.839421-7.387977-33.136613 19.284238-71.170231 83.601926-111.704968 64.077769-40.383535 112.118319-54.853772 143.402726-46.359406 5.678643 1.541869 10.670837 3.844663 14.947969 6.743814 2.186979-11.94151 3.328022-24.250616 3.328022-36.826226l.000758-62.383589c-14.251383 9.247733-33.897028 14.137959-59.389396 14.137959-38.249092 0-88.954056-21.071537-129.461234-53.906528-45.975779-37.267821-73.555933-84.534213-72.411988-133.541763l.158839-7.02553c.397112-18.172589.645648-34.577609.768347-50.806371l.028067-4.054439c.131601-20.93848.056419-41.804134-.176537-66.026266l-.515331-49.128534c-.061343-6.526884-.110934-12.518734-.149928-18.257493l-.064333-11.252309-.027662-7.221041-.016823-7.170822-.007363-9.319782c0-48.116622 12.748064-96.013315 37.694986-130.472583 24.814943-34.2769679 60.197542-53.8954257 105.182911-55.5841662-25.877843-11.9264867-54.687719-18.578423-85.051238-18.578423zm-3.931415 85.8908292c-22.227592 30.703049-33.895244 74.540446-33.895244 118.744343l.008212 9.80306c.004604 2.652442.011195 5.266818.019894 7.873116l.035245 8.360897c.046405 9.121774.119903 18.533176.22568 29.495015l.467963 44.221971c.481294 48.366411.353662 83.277167-.759717 130.975246-.98027 41.995608 23.433311 83.83518 65.011469 117.538304 37.185544 30.142485 83.629501 49.443269 116.8672 49.443269 29.23363 0 47.466292-6.919158 57.457021-18.737383.68304-.807982 1.326592-1.636141 1.931993-2.484533l-.000376-377.686209c0-62.77708-28.434532-118.91292-73.126915-156.2308357l-3.318196-1.788558c-1.756867-.941205-3.099783-1.6452095-4.287404-2.2430661l-.582067-.2906894c-.476267-.2358809-.933057-.4571254-1.38908-.6732136l-.216628-.1022917c-2.475979-1.165096-4.237198-1.8022868-4.914161-1.8971226-53.740639-7.5285345-93.21989 9.3296827-119.534889 45.6786811z" fill-rule="nonzero"/><path d="m589.840503 181.182164c35.891393 1.539145 64.987115 31.399184 64.987115 66.694263v224.588844c0 35.29508-29.095722 65.155118-64.987115 66.694263-35.891392 1.539145-64.987115-26.730531-64.987115-63.142088v-231.693193c0-36.411558 29.095723-64.681234 64.987115-63.142089z"/></g></svg>