<svg height="960" viewBox="0 0 960 960" width="960" xmlns="http://www.w3.org/2000/svg"><path d="m832.518703 3.09695291c59.856098 0 108.379052 48.52295459 108.379052 108.38257709l-.058715 681.288843c-.005157 65.759544-50.864663 120.317392-116.46217 124.93093l-567.724369 39.928616c-5.463076.384224-10.915426.357159-16.31989-.074663l-.701611-.060256-.651959.00031c-2.442385-.022865-4.921718-.266187-7.416369-.747002l-.748833-.151386-92.391492-19.550529c-57.8982275-12.251572-99.3201026-63.35575-99.3201026-122.536032v-680.018973c0-66.2359665 51.5708361-121.0209993 117.6859236-125.02080044l103.999345-6.29170603c1.188191-.07992862 2.366884-.09246028 3.534011-.06370812l.286293-.0041611 1.311003-.0120594zm0 40.89775199-566.599502.0000036c-.890833 0-1.778442.0191009-2.662622.0465174l-.000783-.0209894c-.284284.0069334-.568219.0152735-.851799.0250136l-4.389134.2641453c-43.15071 3.7183676-77.014863 39.9279722-77.014863 84.0422256v721.257854c0 1.578489.055385 3.156491.166052 4.731096 2.08538 29.671313 23.052742 53.509676 50.333937 60.597573l5.954112 1.261123c.60735.100053 1.217225.191928 1.829498.275514l.004809-.172808c4.706205.683146 9.557114.876239 14.494801.528966l567.724369-39.928616c43.736134-3.076006 77.744194-39.11862 78.423352-82.810835l.010307-1.245226.058763-681.364965c0-37.2741865-30.212406-67.4865921-67.481297-67.4865921zm-646.008687 4.6450978-27.252149 1.6519033c-44.526488 2.6937436-79.257867 39.5897862-79.257867 84.197682v680.018973c0 39.856108 27.896365 74.273208 66.889049 82.524266l15.786355 3.34214c-23.223028-14.9874-38.263957-40.995427-38.667094-70.00247l-.00831-1.196375v-698.783654c0-39.0162001 26.333951-72.1513165 62.510016-81.7524653zm4.438446 5.9032599-.234431.1104914c-28.6872 13.5261006-48.387673 42.8435817-48.387673 76.597818v700.502608c0 27.427808 13.077574 52.212431 33.743367 67.759067-8.650021-12.522699-14.157887-27.456774-15.302232-43.738811-.144203-2.051757-.216371-4.107942-.216371-6.164761v-721.257854c0-28.7879686 11.607387-54.8661964 30.39734-73.8085584zm360.159181 327.4632424c45.952514 3.213313 79.542404 48.394011 75.915283 100.26426s-43.178054 91.936443-89.130569 88.72313c-45.952514-3.213313-79.542404-48.394011-75.915283-100.26426s43.178054-91.936443 89.130569-88.72313zm-68.731504 90.149571c-2.883678 41.238512 23.008959 76.065878 56.94266 78.438754 33.9337 2.372875 64.421384-28.511995 67.305062-69.750506 2.883678-41.238512-23.008959-76.065878-56.94266-78.438754-33.9337-2.372875-64.421384 28.511995-67.305062 69.750506z"/></svg>