<svg height="960" viewBox="0 0 960 960" width="960" xmlns="http://www.w3.org/2000/svg"><path d="m304.235567 2.23138331.216896.01208907c.28389.00560863.567712.01423994.851418.02589247l451.334249 18.53744805c21.434777.8803809 38.358482 18.5134544 38.358482 39.9663035v844.8154366c0 21.667265-17.251815 39.39531-38.91105 39.985175l-451.40332 12.293448-.272193.006486-.40835.010193h-.544525c-13.339673 0-25.323667-5.80435-33.52741-15.059035l-47.119893-10.29105h-10.680469c-24.852814 0-45-20.147186-45-45v-812.4886593c0-24.8528137 20.147186-45 45-45l18.758119.0000008 37.515858-10.9904511c7.840727-9.78618049 19.697588-16.18822918 33.059539-16.77928324.284063-.01256525.568251-.02210125.852517-.02860639l.214912-.00491804c.568323-.01046942 1.136859-.01046942 1.70522-.01046942zm-.666165 39.99999999h-.338848c-2.566263.1184345-4.66181 2.1810015-4.769168 4.7948833-.002808.0683606-.004212.1367715-.004212.2051897v865.6523987c0 2.761424 2.238576 5 5 5l.066228-.000472 451.47321-12.29483v-844.8154366zm-25.113 177.0299997-63.482 18.552-2.123001 651.603537 12.557001 2.741502 53.048 11.584961zm-11.072725 36.459402v93.627754l-17.706511 3.141381v-91.795671zm11.072725-197.6124017-46.057936 14.2261476-.000064 139.5498521 46.058-13.46zm-65.92718 11.9366046-.39982.0001228c-2.761424 0-5 2.2385762-5 5l-.000843 136.2683603c.909262-.388775 1.856191-.713724 2.83598-.968648l2.433927-.633264v-137.3770281c0-.7720516.044279-1.5361724.130756-2.289543z"/></svg>