<svg height="960" viewBox="0 0 960 960" width="960" xmlns="http://www.w3.org/2000/svg"><path d="m271.615816 4.17504585c126.540909.13035853 236.986495 2.5264862 331.378303 7.19626175 100.468537 4.970405 182.208468 12.4870628 245.447155 22.6258636 19.399287 3.1102087 33.667829 19.8485859 33.667829 39.4956151v818.4698977c0 20.599825-15.645043 37.831056-36.149185 39.814209-85.069373 8.227877-166.170975 13.918373-243.310069 17.068663-73.703788 3.009996-184.776257 5.372872-333.368539 7.097614-15.395439.178541-30.771375-1.124836-45.912809-3.892044l-113.520239-20.739742c-19.004069-3.471975-32.8111332-20.030075-32.8111332-39.3487v-818.4698977c0-18.7608658 13.0388404-35.0009423 31.3564572-39.0549507l111.117924-24.59233597c17.108301-3.78683071 34.580465-5.68819881 52.104306-5.67045378zm-.041168 39.99999965c-14.601976-.0147863-29.161671 1.5694896-43.418584 4.7251808l-111.118935 24.59256-.000017 3.7175263c.639043-.2864305 1.318111-.5097008 2.03112-.660466 78.783727-16.658751 120.506612-25.3693187 126.320172-26.3654802 6.938017-1.1888387 15.41904-2.2723688 23.623055-2.7507973 3.636031-.2120402 8.744692-.2120402 15.427046-.0125057 5.404221.1613696 9.701534 4.5889159 9.701534 9.9955449v842.1869147c0 5.385183-4.264467 9.803258-9.64628 9.993742-16.519034.584677-28.572489.584677-36.34584-.024287-7.7181-.604636-15.226987-1.659934-22.524526-3.167252l.255589.05125-106.291006-16.665128c-.901752-.141389-1.756343-.399169-2.550869-.755637l.000022 2.926473 113.520239 20.739742c12.619742 2.306351 25.432195 3.392199 38.260094 3.243434 86.966999-1.009444 161.026109-2.23748 222.177332-3.684107-.117566-2.530628.255481-5.148711 1.197167-7.741809.452807-1.246883.703754-2.227994.794149-2.915056.153769-1.16875.284197-3.844684.325983-7.690641l.003666-.340824-.000342-57.508433c0-6.11155 2.744841-11.595345 7.080872-15.268166-.826891-1.462533-1.2954-3.154268-1.287425-4.955062l3.019667-678.955751.002113-.132427c-3.296377-3.57039-5.303582-8.340614-5.303582-13.565263l.000341-57.4947342-.003666-.3545225c-.034324-3.1591794-.128459-5.5288911-.246211-6.922263l-.03123-.3412179c-.015859-.1594122-.032066-.3019374-.048542-.4271606-.090394-.6870616-.341342-1.6681729-.794148-2.9150561-.913763-2.5162061-1.292261-5.0545845-1.210161-7.5139766-67.640728-1.9462705-141.947704-2.9609437-222.918797-3.0443446zm400.796837 787.8643775-159.056068 4.025567v57.612767c-.043384 4.819214-.210114 8.331212-.500191 10.535992-.290076 2.20478-.898232 4.582446-1.824467 7.132997l11.247172-.416964c.042679-1.01765.242802-2.046036.615258-3.052786 1.213895-3.28116 1.951124-5.695937 2.201083-7.047262.255066-1.378938.45247-4.052152.530843-7.807776.1116-5.347878 4.411877-9.660987 9.759399-9.788521l117.979699-2.813724c5.623423-.134114 10.251042 4.394626 10.238425 10.019633-.011315 5.022795-.25208 8.766794-.81599 11.538691-.2572 1.264261-.619246 2.523121-1.081874 3.778517l7.507105-.279111c1.163365-1.86041 1.951433-3.826824 2.364204-5.899242.412772-2.072418.691239-5.4608.835402-10.165148zm-30.365552 68.655447-97.051 2.314-.005647.042659c-.052538.373869-.108487.732645-.167967 1.076742l-.060662.33922c-.301759 1.631367-.797833 3.511077-1.490552 5.68248l97.115722-3.602425c-.058064-1.864823.404457-3.767309 1.442928-5.482068.059517-.098276.117003-.195116.17249-.290508zm-305.545842-850.9184487c5.522847 0 9.999513 4.4782405 9.998912 10.001088l-.091292 839.0693297c-.000601 5.522848-4.478241 9.998912-10.001088 9.998912-5.522848 0-9.999513-4.47824-9.998912-10.001088l.091292-839.0693297c.000601-5.5228475 4.478241-9.998912 10.001088-9.998912zm43.468021 0c5.522847 0 10.001044 4.4748193 10.002333 9.9976666l.195261 836.8248331c.001288 5.522847-4.474819 10.002333-9.997667 10.002333-5.522847 0-10.001044-4.474819-10.002333-9.997666l-.195261-836.8248334c-.001288-5.5228473 4.47482-10.0023333 9.997667-10.0023333zm43.561492 0c5.522847 0 10.0016 4.4735771 10.003576 9.9964242l.299229 836.8248335c.001974 5.522847-4.473577 10.003575-9.996424 10.003575-5.522848 0-10.001601-4.473577-10.003576-9.996424l-.299229-836.8248329c-.001974-5.5228472 4.473577-10.0035758 9.996424-10.0035758zm43.561492 0c5.522847 0 10.002156 4.472335 10.004819 9.9951818l.403197 836.8248329c.00266 5.522847-4.472335 10.004818-9.995182 10.004818s-10.002156-4.472335-10.004817-9.995181l-.403198-836.8248335c-.00266-5.5228469 4.472335-10.0048182 9.995181-10.0048182zm227.437045 7.3241089.122455.5935384c.681738 3.4228292 1.035727 7.7301534 1.211294 13.4592826.006255.2041417.009384.4083673.009384.612605v57.3736308c0 3.72012-1.013611 7.196124-2.775884 10.172791l2.372938 687.222185c.009772 2.838086-1.163698 5.404113-3.056365 7.23082l-.000478 55.64767c0 .204238-.003128.408463-.009384.612605-.175567 5.729129-.529556 10.036454-1.211294 13.459283-.044655.224203-.091337.447805-.140035.670794 48.858671-3.111571 99.224822-7.175865 151.098331-12.193051v-818.4698977c-40.925336-6.5613923-90.132324-12.0254776-147.620962-16.3922561zm31.28757 10.4806747c5.522845 0 10.004528 4.4670306 10.010125 9.9898753l.815444 805.3910928c.005587 5.522845-4.467031 10.010125-9.989875 10.010125-5.522845 0-10.004528-4.467031-10.01012-9.989875l-.815449-805.3910932c-.005587-5.5228447 4.467031-10.0101249 9.989875-10.0101249zm37.953751 3.5609551c5.522803-.0219618 10.01779 4.4372856 10.039833 9.9600891l3.189496 799.0935029c.021962 5.522803-4.437285 10.01779-9.960089 10.039914-5.522803.021962-10.01779-4.437285-10.039833-9.960089l-3.189496-799.0935027c-.021962-5.5228035 4.437285-10.0177898 9.960089-10.0399143zm-489.58948-3.8621843-.075699.0011722c-1.377829.0146378-2.575664.0487829-3.589761.1019721l-.298714.0165276c-7.358184.4291027-15.144379 1.4238619-21.409606 2.4974173-4.307699.7381303-32.076284 6.5028737-82.720535 17.1754209l1.162462 789.9414372 61.987086 9.719228c.158604.024868.316587.053552.47381.086027 6.469121 1.336207 13.148711 2.274956 20.040907 2.81489 3.25505.255001 7.549075.388596 12.862059.398166l1.197428.000084c3.035462-.0049 6.384961-.048139 10.045063-.130167l.3255-.008175zm531.193626 8.6101279c5.522837.010921 9.991143 4.4969019 9.980262 10.0197386l-1.558547 789.5976178c-.010901 5.522837-4.496882 9.991144-10.019719 9.980263-5.522836-.010921-9.991143-4.496902-9.980262-10.019739l1.558547-789.5976182c.010901-5.5228367 4.496882-9.9911434 10.019719-9.9802622zm-682.127877 20.2270909c-2.157963.4562994-4.300477.1794411-6.168467-.66194l-.000064 775.3350765c1.7105-.770667 3.657019-1.06938 5.648787-.757084l24.517142 3.843676-1.151452-782.5869272c-7.239195 1.5283539-14.854925 3.1375041-22.845946 4.8271987zm398.893398 47.2817285-2.991 672.512 24.462-.619 1.21-671.044zm42.679 1.598-1.207 669.789 24.7-.625-1.849-668.354zm41.646 1.559 1.846 667.099 26.674131-.674334c-.454281-1.134023-.706957-2.370933-.71349-3.666642l-3.337641-661.842024zm44.473 1.664 3.333516 660.993174c.005785 1.152482-.183617 2.260412-.53718 3.29245l18.172-.459722c1.196469-.030281 2.370565.045023 3.513496.217339l-2.290832-663.213241zm-136.394726-100.3133575c.926235 2.5505508 1.534391 4.9282164 1.824467 7.1329968.290077 2.2047804.456808 5.7167776.500192 10.5359916v57.6127671l159.004212 5.951266v-57.3736308c-.144163-4.7043476-.42263-8.0927302-.835402-10.1651479-.412771-2.0724176-1.200839-4.0388316-2.364204-5.8992417l-7.750392-.3823084c.605949 1.5094756 1.067434 3.0233952 1.377016 4.5451417.563911 2.7718967.804676 6.5158961.815991 11.5386905.012705 5.6645214-4.677626 10.2087063-10.338908 10.0167314l-117.979699-4.0007095c-5.30713-.1799656-9.548127-4.476595-9.658917-9.7856193-.078373-3.755624-.275776-6.4288383-.530843-7.8077754-.249959-1.3513255-.987188-3.7661023-2.201083-7.047262-.527522-1.425894-.709345-2.8951898-.587767-4.3159126zm31.904643 1.5728141c.869713 2.6115318 1.476936 4.8255017 1.825256 6.7085808l.060661.3392198c.05948.3440973.115429.7028733.167967 1.0767416l.017647.1346445 96.969 3.287-.147177-.2486072c-1.226411-2.0250918-1.649541-4.3120059-1.36058-6.4895019z"/></svg>