<svg height="960" viewBox="0 0 960 960" width="960" xmlns="http://www.w3.org/2000/svg"><path d="m120.057185-2.0079926 714.966059 35.522882c29.981034 1.5577544 54.470407 25.5496875 54.470407 56.1558074v757.3924032c0 29.857604-23.366959 53.575725-52.579813 56.04029l-.126195.010446-690.781318 56.076554c-3.730117.302805-7.484272.080641-11.152641-.659991l-29.596086-5.975362c-26.308741-5.303264-46.4357875-27.71795-46.4357875-55.181374v-843.0848507c0-1.5297642.0646419-3.0585444.193583-4.5823623 2.6425406-31.2305014 30.4633833-53.16425269 61.0417915-51.7144426zm-21.184218 55.086955c-.0340921.4028983-.0511565.8064696-.0511565 1.2098499v843.0848507c0 7.610397 5.9965865 14.288259 14.3399195 15.970091l20.571255 4.153202c-.629882-2.147039-.976648-4.408536-.997977-6.750543l-7.894923-866.4685571v-.0911075c0-.7546333.026089-1.4725845.087866-2.1987757.106852-1.2561017.305872-2.4829985.590119-3.6757922l-7.445819-.369453c-9.856641-.4672984-18.4524533 6.3099193-19.199284 15.1362349zm45.983008-9.3957495c-.01589.1166665-.01589.2808374-.01589.5035355l7.894094 866.3774906c.028863 3.169351 3.505911 6.306019 8.18043 6.369783h.05107c.299871 0 .537399-.010545.720238-.021595l.103201-.007111 678.330533-55.442769c5.621489-2.721308 9.374-8.15851 9.374-14.399447v-757.3924032c0-8.6587553-7.212334-15.7247363-16.545927-16.209691l-685.411202-34.0548076c-1.544326 1.1243107-2.543855 2.6701355-2.680547 4.2770147zm147.0142 143.4010901.244971.006193 5.264048.184645c.569019-.111913 1.155076-.17539 1.75363-.185995l.273875-.001591.275512.006708 250.6546 9.086901 242.528747 8.539706c5.382569.189509 9.648139 4.607903 9.648139 9.993808v518.531907c0 5.304074-4.141206 9.685439-9.436863 9.984131l-228.847023 12.907448-257.312403 14.924896c-.993013.057597-1.959355-.03146-2.878484-.248025l-4.510657.2534c-.234429.015868-.469251.015868-.70403.015868l-24.504583-.34628c-5.415186-.076304-9.785536-4.449588-9.858207-9.864824l-7.560335-563.31122c-.073168-5.520804 4.3411-10.056956 9.861874-10.13323l24.862153-.344446zm-2.427364 20.032861-12.40868.171139 7.294 543.588 11.88468.166861zm20.01.595 6.749 542.383 246.663-13.912 214.455086-12.438466v-499.32l-227.673086-8.255534zm432.218525 40.432476c8.060134-.293403 14.18024 6.718319 13.669639 15.661118-.5106 8.9428-7.458554 16.430221-15.518687 16.723624-8.060134.293403-14.18024-6.718319-13.669639-15.661118.5106-8.9428 7.458553-16.430221 15.518687-16.723624z"/></svg>