<svg height="960" viewBox="0 0 960 960" width="960" xmlns="http://www.w3.org/2000/svg"><path d="m374.254404 1.9477293 1.09922.01620237 1.68251.03352189 1.145238.03240106 1.16498.04036698 1.185482.04826725 1.206748.05610186 1.228775.06387083 1.886131.11022943 1.287177.08300601 1.977307.13862447 2.035441.15536605 2.096149.17188606 2.159427.1881845 2.982117.27588282 2.317081.22535251 3.201657.32463592 4.370613.46336012 4.982955.55070574 8.118237.93310133 9.175245 1.09119029 11.855116 1.44885034 12.246086 1.52912645 16.340069 2.07700192 20.985886 2.711842 9.879744 1.290136 19.844034 2.6119063 17.52378 2.3261456 17.261191 2.3078945 20.439686 2.7520167 11.221739 1.5206716c10.087668 1.4048869 18.374254 3.1039682 26.69557 5.7964602 11.984735 3.8778488 22.709362 9.519896 32.113105 17.5897462 21.569204 18.5096779 32.0371 46.1233331 32.0371 81.8046874l.002 538.844528.428897 1.225345c5.519223 16.004688 8.443144 33.090464 8.569103 50.572432v1.141223c0 18.268705-3.058794 36.12182-8.94126 52.780016l-.05774.159984-.001 54.458861c0 12.577148-.602319 22.997856-2.229417 33.129792l-.155556.949079c-2.373687 14.194909-6.718444 26.964361-13.834318 38.464626-17.185273 27.773848-46.916 42.412817-86.575484 43.630254l-3.096478.099903-4.219599.15102-4.325798.171339-3.315515.141808-4.517536.206781-4.630463.226967-4.745838.247107-4.863658.267199-4.983926.287242-3.818341.228557-5.200281.322205-5.327276.342118-5.456717.361983-8.433131.580118-7.225597.51477-9.575093.703928-10.109467.765892-9.421384.730307-51.933994 4.119438-9.874987.751763-7.410982.540468-7.206118.495757-2.042683.128001-2.000505.115435-1.960294.102593c-.323475.016013-.645355.03148-.965683.046394l-1.903667.08281c-.314282.012682-.627094.0248-.938475.036348l-1.851465.062407c-9.786485.295892-18.193032-.003315-26.562516-1.086227-16.702044-2.161047-31.534048-7.46333-44.463414-17.089999-27.800231-20.698896-39.824344-55.471808-39.824344-105.384785v-618.698005l.019851-17.292701.029062-10.457839.02782-6.527125.035234-6.189624.031631-4.430176.063337-6.999357.044763-3.979845.050123-3.823111.055722-3.673.083417-4.675273.069713-3.348494.102934-4.266633.114864-4.054708.127356-3.85848.104056-2.774528.111638-2.679602.119459-2.591297.127518-2.509615.089607-1.630968.141478-2.388194.099135-1.556153.103069-1.529659.162134-2.249108.113214-1.472013.177682-2.171835.123799-1.426629.128157-1.411908.132584-1.399152.207335-2.079098.143964-1.375841.17928-1.642389.219511-1.8946c.075059-.6273377.152019-1.2504974.23092-1.8695313l.242563-1.8447767c.289872-2.1379213.603992-4.2259432.944025-6.266311l.297842-1.7372687c4.259725-24.1598418 12.3196-41.5498659 27.059722-56.0499388l1.262422-1.235941c.207329-.2019553.413166-.4019262.617579-.5999623l1.209942-1.1653956 1.179047-1.1213404c.38823-.3667021.771857-.7264584 1.151426-1.0796655l1.127078-1.0403706c.186-.1702528.371121-.3389674.555432-.5061936l1.096696-.9858911c3.445549-3.0679367 6.647976-5.6343164 10.075069-8.0392503 8.071763-5.6642933 16.541764-9.65165441 26.049215-12.04018243.30141-.07572212.602362-.1497938.902985-.22222598l.901006-.21238898.449999-.10252614.899466-.19775659c.149884-.03215153.299765-.06390003.449658-.09524687l.899643-.18327191c.150008-.02974563.300061-.05909233.450175-.08804146l.901532-.16893495c.150419-.02736434.30093-.05433386.451549-.08090991l.905138-.15474571.908494-.14536827.912612-.1360565.917492-.12681037.460814-.0599584.926242-.11306428.933026-.10398228c.156113-.01657719.312539-.0327787.469296-.0486059l.944634-.09048238c.158142-.01433541.316647-.02829925.475529-.04189288l.957955-.07713019c.160458-.01211826.321325-.02386905.482618-.03525372l.972993-.06392573.983969-.05520481.995708-.04654955 1.008209-.03795993 1.021473-.02943598 1.035497-.02097767 1.050286-.01684303zm16.066925 40.9338459c-12.29712 1.5717023-19.373622 5.8648245-23.825081 13.1512874-1.573144 2.5750337-2.940641 5.6489328-4.119357 9.3078729l-.303219.9678341c-.348787 1.144755-.680222 2.3443951-.994782 3.6013496l-.265502 1.0914825c-.043565.1842719-.086789.3697278-.129672.5563745l-.253228 1.1342285c-.041528.1914388-.082719.3840827-.123573.5779388l-.241105 1.1777394-.233106 1.2071716-.225172 1.2369439c-.036872.2086572-.073415.4185691-.109633.6297427l-.213398 1.2822396c-.209505 1.2974941-.407359 2.6409214-.593864 4.0318117l-.182732 1.4067681-.175233 1.4387501c-.028584.2424757-.056858.4862982-.084824.7314745l-.164107 1.4873606-.156772 1.5201926-.149506 1.5533645-.219855 2.4989634-.184107 2.3057-.10391 1.4047481-.1311 1.9032766-.122801 1.9435341-.114732 1.98996-.132419 2.562129-.07376 1.581732-.091907 2.166237-.124529 3.384581-.074469 2.355533-.067895 2.442044-.090023 3.838764-.088026 4.769879-.052314 3.616481-.05187 4.589224-.051929 6.576445-.02703 5.302424-.023254 8.598291-.004792 5.133577-.000426 702.52041c0 .65033.002188 1.294265.006554 1.931853l.019623 1.893768c.060986 4.374574.228199 8.440395.498163 12.213464l.121979 1.599152c1.709997 21.084295 6.758866 32.683974 14.497616 37.784698 2.091441 1.3785 4.535085 2.407175 7.439177 3.114661 4.96779-.038976 10.095463-.291785 15.338046-.644271l1.347507-.091274 4.15768-.289343 5.800576-.419725 4.532213-.338106 7.874865-.60303 8.242383-.645817 22.869036-1.824588 20.574105-1.630085 11.535065-.891303 7.768841-.586502 5.853739-.433056 5.867572-.425379 5.872943-.416052 5.869851-.405076 5.858296-.392453 5.838281-.378181 3.876887-.243377 3.861723-.235813 3.844051-.22776 5.727456-.325471 3.788901-.205491 3.762454-.195727 3.733498-.185477 3.702035-.174737 3.668066-.163508 3.631588-.151792c.602086-.024296 1.202547-.048082 1.801332-.07135l3.572171-.133302 3.529425-.120363 1.7479-.055178c58.071278-1.782628 64.022087-38.676201 64.022087-76.192584l.002583-22.774154c-15.812336 19.359639-37.125992 32.941164-61.488901 37.34756l-.959682.164733-.311403.163586c-12.19771 6.291075-25.358984 9.796568-38.930131 10.209277l-.848726.021764-1.09174.011373-9.767649.63216-10.956007.681181-5.685984.327675-2.781531.145377-2.396606.10812-1.458707.048736-.926455.014285c-.682062 0-1.36355-.008448-2.044392-.024261l-1.014669-.030273-.57201.029222c-1.731135.086252-3.419175-.049606-5.037512-.381875l-.222478-.047347-.5575-.054175c-55.678823-5.988453-97.098012-63.614277-97.937504-131.877252l-.012996-2.114573c0-73.28468 46.726302-134.5 107.399061-134.5l.751436.009785 1.308842.045822 3.734381.183218 6.684008.381637 21.402272 1.330538 1.020424.014101c14.671109.279236 28.876333 4.17108 41.920313 11.283196 23.975118 4.524282 45.083074 18.070006 60.781542 37.374929l-.002279-507.906607c0-51.2772843-26.845104-61.1349494-53.921219-65.2196651l-1.692318-.2481002c-.564045-.0804093-1.127951-.1586353-1.691475-.2350004l-4.577865-.6199257-54.781818-7.3421361-33.352619-4.387977-10.657274-1.3845-20.29192-2.6046703-15.483285-1.9507983-11.79516-1.4559618-5.979524-.724579-8.009651-.9513741-5.899353-.6819726-4.749479-.5330539-4.394754-.4756501-2.451222-.2560631-2.369328-.2396684-2.289777-.2227409c-.37513-.0356833-.747044-.070639-1.115789-.1048562zm-42.559742 5.6590504-.279716.1844978c-3.307298 2.1879476-6.610685 4.9751526-10.317239 8.4542042l-1.108767 1.0495802c-.186885.178324-.374848.3583524-.563938.5400963l-1.14845 1.1111379-1.177834 1.1528426c-15.00781 14.7634019-18.848577 37.254926-19.829838 96.2647844l-.07082 4.672587-.060118 4.823436c-.009177.816645-.017944 1.639701-.026319 2.469232l-.045704 5.055387c-.006883.855681-.013412 1.717964-.019603 2.58691l-.033255 5.294147-.026046 5.457104-.027467 8.497824-.011849 5.877742-.014624 12.279167v623.030986c0 47.469379 12.218648 68.808584 31.18967 77.772895-5.521054-12.329599-8.154806-29.207996-8.243355-51.505726v-1.152024l.005334-707.774507.020185-7.811881.026147-5.451298.043673-5.950197.059127-5.541786.063994-4.451107.049933-2.825437.071033-3.383359.081063-3.230127.091579-3.089428.102584-2.961258.163033-3.954301.130982-2.704786.113879-2.101624.090878-1.5441437.162189-2.520497.17602-2.4650145.190339-2.4220639.121279-1.4378353.079172-.8983212.165103-1.7724504c.028277-.2927374.056935-.5841449.085981-.8742311l.17894-1.724729c.030607-.2848347.061608-.5683651.093008-.8505996l.193216-1.6779245.202976-1.6472309.212932-1.6169449.223082-1.5870664c1.784267-12.2920925 4.517057-21.8821825 8.617611-29.646662zm152.761707 561.4602384-1.569536.014476c-47.60255 1.011125-85.953758 51.880422-85.953758 114.48466 0 61.204555 36.655493 111.193034 82.775114 114.3425l-.002364.1575 1.470369-.073259c1.047393.048702 2.099479.073259 3.155942.073259l.347131-.003684 1.145482-.03523 1.864581-.082895 5.598074-.303945 8.527639-.513065c-38.938554-18.677416-65.777123-62.806982-65.777123-113.485774 0-50.779334 26.945165-94.98343 66.009017-113.596636l-11.127155-.666941-5.053336-.263242zm58.945976 11.591897c-48.25004 0-87.364425 46.106901-87.364425 102.982646s39.114385 102.982646 87.364425 102.982646 87.364425-46.106901 87.364425-102.982646c0-14.606603-2.579768-28.502952-7.231521-41.090486-12.045492-32.156495-37.655175-55.689448-68.295915-60.552163-.293244-.180862-.587393-.359681-.882437-.53644-3.588189-.530934-7.244361-.803557-10.954552-.803557z"/></svg>