<svg height="960" viewBox="0 0 960 960" width="960" xmlns="http://www.w3.org/2000/svg"><path d="m378.165178 86.9731466 1.090363.0081063 1.107815.0162652 1.126029.0243582 1.145004.0323859 1.164742.0403478 1.185241.048244 1.206503.0560748 1.228525.0638399 1.88575.1101759 1.286918.0829655 1.976908.1385568 2.035033.15529 1.39025.1127136 1.417988.1199865 2.922237.2615296 3.042332.2898341 3.168523.3176137 4.147395.4352824 4.433715.4848505 6.15953.6983844 8.273351.9700018 10.829195 1.3078561 10.255677 1.2668517 15.016063 1.8903069 19.730274 2.5296835 21.422594 2.7888313c2.350937.307956 4.699581.616177 7.045946.924644l14.050953 1.853566c2.337306.309362 4.672362.618926 7.005182.928672l13.970213 1.860493 13.917259 1.863853 13.865007 1.866209 13.813454 1.867558c10.581527 1.433517 19.161054 3.155682 27.777868 5.942968 11.982764 3.876072 22.705814 9.515633 32.108644 17.582331 21.569473 18.504473 32.03823 46.112291 32.03823 81.78419v546.108237c-.039833 12.439783-.693391 22.782509-2.384955 32.895279-2.373812 14.191486-6.718896 26.95815-13.835248 38.455811-17.184689 27.764747-46.910929 42.397208-86.563337 43.614071-.344191.010562-.689446.021341-1.035771.032334l-4.207751.142255-4.313279.162896-3.305866.135696-4.504573.19893-4.617666.219472-4.733512.239977-3.627813.193416-4.942862.275773-5.066274.296177-5.192437.316545-5.321351.336877-5.453018.357172-5.587435.377432-5.724604.397654-8.276389.592495-9.902086.732435-7.783926.591004-11.047778.857056-54.228937 4.293074-8.735833.656198-6.578276.472767-5.472339.373223-2.042278.127938-2.000108.115378-1.959905.102543c-.32341.016005-.645226.031464-.96549.046371l-1.903287.08277-1.868.069243c-.308502.010399-.615616.020221-.921382.029464l-1.818758.048436c-9.016224.206868-16.893573-.119394-24.738323-1.134113-16.698809-2.159994-31.528045-7.459731-44.455726-17.082318-27.79991-20.692579-39.824563-55.456842-39.824563-105.353316v-457.926613l.004757-10.616703.019354-13.686973.018883-7.239449.032711-8.489731.034174-6.367081.041928-6.009973.050272-5.671704.043535-4.04312.066294-5.125061.07626-4.838594.086816-4.570966.097962-4.322176.081141-3.089695.08799-2.968294.09509-2.85484.06746-1.844122.107475-2.68341.075947-1.737194.079471-1.698543.083068-1.662248.131509-2.430467.140018-2.362048.148776-2.301576.104172-1.504712.163926-2.218447.114502-1.456652.179766-2.157396.189603-2.131361.199687-2.113273.210022-2.103132.208674-1.967947c.250065-2.280262.523436-4.505887.821888-6.679322l.262-1.850219c3.978666-27.257013 12.093611-46.190003 27.989923-61.822845.213542-.210003.425457-.417923.635811-.62381l1.243955-1.211324c.204389-.197954.407353-.393973.608963-.588109l1.19394-1.142595c.196461-.186796.391704-.371807.585796-.555082l1.151289-1.07922c.189762-.176531.37851-.351425.566312-.524732l1.116003-1.021197c3.870094-3.51031 7.383112-6.36448 11.170565-9.021513 8.07072-5.6618982 16.539395-9.6474649 26.045065-12.0348438.150671-.0378417.301229-.075271.451688-.1122893l.901704-.2171881.900107-.2073891.899272-.1976554.899199-.1879876.44981-.0903888.900518-.1736086.90235-.1641048.904943-.1546665.908299-.1452938.912417-.1359868.917296-.1267453.922938-.1175695.929341-.1084593.936507-.0994148.944434-.0904357.953123-.0815224.962575-.0726746c.322518-.0227576.646738-.0440515.972788-.0638926l.983763-.055176.9955-.0465251 1.007999-.0379398 1.02126-.0294202c.171357-.004197.343299-.0080418.515841-.0115357l1.04258-.0167637 1.057746-.0085261zm-6.946074 55.2187844c-2.536096 4.179569-4.538282 9.659328-6.077255 16.800239l-.245515 1.172604c-.080492.395759-.159641.79643-.23746 1.202067l-.229474 1.231874c-.075168.41563-.149016.836284-.221555 1.262021l-.213701 1.292511c-.104899.653935-.206879 1.319432-.305976 1.996684l-.194363 1.370232c-.031758.231003-.063197.463327-.094321.696978l-.182961 1.417892c-.029866.238989-.059418.479319-.088658.720999l-.17171 1.46632-.164293 1.499034-.156942 1.532089-.14966 1.565487-.142444 1.599226-.152905 1.842696-.144027 1.86768-.167901 2.379195-.184278 2.936454-.139758 2.529128-.103092 2.085763-.118351 2.695469-.08655 2.234558-.098401 2.901113-.087948 3.032344-.077944 3.175703-.080962 4.017159-.046715 2.812849-.077044 5.977033-.067955 8.19409-.027035 5.339212-.023258 8.657908-.004793 5.169159-.000426 544.99184c0 2.29373.026862 4.508623.080149 6.646683l.052135 1.813853c.019529.598377.041204 1.190528.065017 1.776501l.077836 1.739428c.084227 1.720986.187591 3.386784.309818 4.998655l.128505 1.593943c1.77449 20.751464 6.803082 32.227065 14.456555 37.30598 2.986804 1.98207 6.69085 3.244471 11.430757 3.872108 3.617633-.107642 7.311046-.308797 11.063334-.561009l2.793972-.190625 2.874739-.201475 4.963291-.358459 8.360561-.627002 8.831287-.683981 48.093321-3.819239 14.539339-1.117923 9.354451-.697142 6.593346-.47848 4.490225-.318932 4.489582-.312744 4.485154-.305819 4.476944-.298157 4.46495-.289758 4.449172-.280622 4.429611-.27075 4.406267-.26014 4.379138-.248794 4.348227-.23671 4.313531-.223891 2.700066-.133893 4.892583-.325431 4.102039-.26417 4.029773-.252043 3.958741-.239893 3.888941-.227718 5.078808-.284645 4.959835-.262902 3.643558-.182873 1.494636-.06893c45.228576-6.897256 50.202222-40.661819 50.202222-74.946769v-544.935806c0-53.388481-29.123527-61.855134-57.294633-65.671575l-34.645218-4.666457-32.13893-4.276024-28.073557-3.683298-15.633748-2.023692-18.277423-2.33224-15.362965-1.921908-11.576743-1.414826-7.414473-.884625-7.56172-.877487-4.818235-.540885-4.437093-.480184c-.415417-.043993-.827324-.087326-1.235771-.129986l-2.409546-.247815-1.06469-.106384c-15.700298.942406-24.168077 5.389296-29.24204 13.75135zm-17.624621-9.488589-.160527.096634c-3.652387 2.211901-7.225822 5.133115-11.263631 8.887184l-1.096513 1.028839-1.121206 1.069458c-.189056.181658-.379238.36503-.570595.550128l-1.162638 1.131386-.592629.581392c-15.510167 15.253097-19.091029 38.759412-19.915916 102.300276l-.058172 4.967258c-.008841.841216-.017267 1.689145-.025299 2.543856l-.043603 5.210177-.035052 5.37614-.027428 5.545318-.020731 5.717712-.020571 8.906836-.015219 12.50916v468.949523c0 48.174873 12.594212 69.424321 32.061892 78.139739-5.951904-12.510976-8.781406-29.914355-8.873172-53.197819v-1.158998l.005334-550.280708.020181-7.86427.031485-6.370043.038321-5.107843.059114-5.578867.06398-4.480854.04992-2.844298.071015-3.405921.081042-3.251635.091555-3.109964.102555-2.980907.067017-1.731845.09597-2.248627.130944-2.722637.113845-2.115463.122195-2.066773.164866-2.524836.141894-1.980836.190279-2.437849.12124-1.447183.160454-1.799273.169518-1.766934.178776-1.735004c.030578-.286529.061551-.571746.092921-.855657l.193029-1.68788.202773-1.656977c.242329-1.915273.504951-3.768291.789256-5.561987l.249032-1.522994c1.955976-11.598688 4.870858-20.657533 9.142499-28.016134z"/></svg>