<svg height="960" viewBox="0 0 960 960" width="960" xmlns="http://www.w3.org/2000/svg"><path d="m311.098738 137.345873c15.317498-35.812504 46.763629-56.8076892 89.752838-54.8954985l4.016488.1793226 23.031881 1.0500928 20.249221.9479558 34.428575 1.6558628 18.097791.8920736 19.917054 1.0002064 21.350149 1.0968076 27.547922 1.4632833 14.46454.797637 14.902947.8523315 11.487457.6876852c40.862351 2.5098646 69.671032 24.8190509 83.836717 62.1888409 4.885288 12.887635 8.093732 27.056824 10.080853 44.100855l.232622 2.059185c.037803.345532.075124.692238.111969 1.040133l.215362 2.10173.204075 2.130858c.066163.715209.130474 1.435374.192962 2.160598l.182025 2.19095c.029436.367721.058423.736733.086966 1.107047l.165947 2.237625c.026777.375577.053118.752482.079024 1.130729l.150262 2.285676.140024 2.318474.129961 2.351885.120073 2.385908c.019198.400521.037991.802485.056383 1.205904l.105569 2.438089c.016803.409294.033211.820069.04923 1.232339l.091458 2.491646c.014473.418297.028563.838113.042273 1.259462l.077742 2.546581c.012208.427529.024044.856615.035512 1.287273l.064418 2.602892.055755 2.641197.047266 2.680115.038952 2.719643c.005809.456603.011279.914877.016413 1.374837l.02681 2.780084.018933 2.821143.014936 4.310038v432.74463c0 48.465654-7.339709 86.973673-22.536125 115.407962-17.086309 31.970505-44.440688 51.184769-77.628544 53.65912l-4.711102.361629-7.34947.59505-16.009358 1.364015-58.068494 5.112441-21.842951 1.881823-11.283843.949468-6.539679.541346-8.710701.709324-8.40412.669962-9.425515.731951-5.206159.394274-7.56882.55875-8.472987.60241-5.821666.397726-5.633637.370625-5.449161.343557c-20.653935 1.272188-38.24681-.424865-53.800066-5.887718-18.094671-6.355489-32.64465-17.653759-42.969223-33.435759-8.785594-13.429536-14.070799-29.237182-17.055121-48.223879l-.249466-1.630019c-.040691-.273179-.080942-.547121-.120753-.821841l-.23362-1.657761c-.038065-.277885-.075696-.556576-.112895-.836085l-.218033-1.686995-.207785-1.707312c-.067566-.572564-.133444-1.148625-.197651-1.728294l-.187633-1.749937-.17773-1.772245-.167941-1.795216-.158266-1.818848-.148708-1.843146-.139263-1.868104-.129934-1.893728-.120718-1.920012c-.019358-.32223-.038338-.645582-.05694-.970071l-.107112-1.960685c-.017104-.329091-.033837-.659346-.0502-.99078l-.093763-2.002848-.085008-2.031786c-.013445-.341079-.026529-.683392-.039256-1.026952l-.07209-2.076437-.06362-2.107032-.055267-2.13829-.047028-2.170213-.038904-2.202797-.030894-2.236045-.023-2.269956-.023714-3.469968v-524.760427l.016608-2.356827c.002906-.387975.00621-.773596.009923-1.156951l.027288-2.273653.03767-2.223553c.007175-.366655.014805-.7314.022903-1.094325l.054286-2.156423.066058-2.117019c.240432-6.995806.686319-13.406171 1.430251-19.944161 1.721036-15.125187 4.909909-28.779161 10.261592-41.291462zm87.975367-14.935011c-55.582792-2.472362-59.69772 51.787457-59.89361 88.5819l-.008336 2.230268v521.14001l.003675 2.261467c.243793 74.179172 12.743341 103.919993 74.718771 100.102591.588074-.036223 1.178628-.072896 1.771593-.110009l3.586187-.227899 3.640796-.23803 5.556441-.375054 3.763025-.261384 5.724468-.407974 5.810579-.425699 5.885663-.441901 7.945287-.611777 8.033024-.634273 10.124834-.818983 6.362414-.524405 6.498854-.5425 9.686167-.819879 20.490709-1.770036 52.150599-4.596601 13.504394-1.166783 10.926276-.909948 5.599611-.444093 2.921915-.222077c11.544848-.860737 22.077007-5.261193 31.090309-13.630822-8.434726 4.925548-18.202368 7.75727-29.592449 8.672185l-8.792701.6618-14.2164 1.152859-66.11254 5.624479-14.598144 1.220139-10.543247.866791-6.816395.551798-4.229561.318018-4.364355.302987-6.053307.392026-8.176092.494304-7.785289.444674-8.582045.469064-12.909225.674905-.748464.044014-1.636866.087472-1.615489.074865c-.267473.011421-.53406.022312-.799763.032672l-1.58363.055753c-6.292249.197334-12.078079.08568-17.389305-.365659l-1.317938-.11993c-14.606967-1.418631-25.535815-5.504501-33.478696-12.925469l-.357211-.337915-.360317-.349514c-6.525341-6.410282-10.068419-14.465883-11.041217-23.463602-.684177-6.328177-.130353-12.675596 1.349701-20.27701l.294895-1.490978.517234-2.519789 2.958149-13.647189.437858-2.102338.282749-1.396179.275454-1.393088.268181-1.391034.260932-1.390021c.042886-.231644.085471-.463288.127756-.694955l.250104-1.390449.242915-1.392032.235751-1.394654.228609-1.398316c.037507-.233416.074718-.467027.111634-.700856l.324255-2.110917.207329-1.415534.200282-1.423352.193261-1.432208.186263-1.442103.179288-1.453037.172338-1.465011.165412-1.478022.158508-1.492074.15163-1.507163.144775-1.523292.137944-1.54046.131137-1.558667.124353-1.577913.117594-1.598197.110858-1.619521.104146-1.641884.143686-2.507027.087471-1.702336.080843-1.728334.074238-1.755372.067657-1.783449.061101-1.812564.054568-1.842719.048058-1.873913.041574-1.906145.035112-1.939417.028674-1.973728.022261-2.009076.021418-3.082168.007122-3.167548-.000588-392.140357-.008876-5.012303-.019709-4.865658-.030747-4.722828-.041993-4.583814-.053448-4.448615-.042097-2.892518-.047341-2.835255-.08098-4.147991-.093125-4.025511-.068933-2.617514-.113829-3.829857-.082927-2.490612-.088632-2.441829-.0944-2.394177-.100227-2.347656-.106117-2.302265-.112068-2.258004-.11808-2.214876-.124155-2.172876-.13029-2.132007-.136486-2.09227-.142746-2.053663-.149065-2.016185-.155446-1.97984-.161889-1.944624-.168393-1.910539-.174959-1.877584-.181586-1.845761-.188274-1.815067c-.03194-.300017-.064161-.598801-.096665-.896377l-.198422-1.771148-.205265-1.74328-.212169-1.716544-.219134-1.690939-.22616-1.666463c-.038282-.275767-.07686-.550562-.115734-.824407l-.236816-1.631871c-.040065-.270143-.080431-.539384-.121096-.807746l-.247609-1.599822-.126528-.792357-.25854-1.570317-.265905-1.552059-.273332-1.534933-.280819-1.518937-.288368-1.504072-.295978-1.490338-.30365-1.477733c-.051252-.245302-.102825-.490125-.154722-.734494-4.134082-19.466315 2.394125-36.285312 17.765565-46.23825 10.746378-6.958231 24.720934-9.943034 41.00194-9.935173l1.155035.005512.768936-.026166h.200011l3.677747.147194.534807.023864 1.008.049973 18.539122.845183 18.508323.858638 21.648595 1.023383 26.659418 1.289982 24.049245 1.196036 24.153234 1.240989 14.91177.793039 14.370165.791607 9.657695.553153 3.725271.21949c12.787715.760381 23.853596 3.96712 33.198016 9.992385l.558201.364532c-8.407437-7.921136-19.570355-12.537201-34.345634-13.444734l-3.559577-.216721-11.503418-.678675-10.43766-.594095-18.051995-.993076-19.36426-1.029862-17.70447-.917334-33.219958-1.672347-15.517747-.76247-30.236149-1.454176-33.301367-1.550766zm27.659258 24.648978.827637.04616-.562269-.011753c-6.834356-.128143-13.319175.35598-19.059765 1.593123l-.901605.201951c-15.324313 3.564901-25.042629 12.702127-21.325807 30.203673l.322101 1.540217.314267 1.551034c.051728.259476.103132.519455.154213.779962l.302617 1.569593c.049793.262725.099266.52604.148418.789942l.291091 1.590953.283476 1.606748.275914 1.623787.268408 1.642072.260957 1.6616.25356 1.682374c.041647.282196.082988.565309.124024.849366l.242567 1.715867.235308 1.739751c.038616.292018.076932.585083.114948.879221l.224521 1.777912.217398 1.804908.210329 1.833147c.034469.307948.068646.617123.102531.927553l.19983 1.877842.192898 1.909194c.031576.32088.062864.643119.093868.966742l.182604 1.958555.175809 1.993017.16907 2.028724.162385 2.065677.155754 2.103873.149179 2.143314.142659 2.183999.136192 2.22593.129781 2.269104.123425 2.313523c.020044.389358.039825.780618.059345 1.173807l.113993 2.382485.107773 2.430015.101608 2.478791.095498 2.528809.089442 2.580073.12293 3.968952.074543 2.713678.06868 2.769297.062871 2.826162.057117 2.88427.075005 4.438081.04297 3.034987.054043 4.66999.041712 4.814735.021048 3.292312.021571 5.065311.009732 5.221257.000645 392.212141-.001932 1.573699c-.012722 5.15927-.087976 9.983756-.217064 14.50903l-.083843 2.679543c-.015028.440701-.030576.878481-.046637 1.313376l-.10244 2.575028c-.018074.423496-.036644.844177-.055699 1.262079l-.120098 2.474354c-.293516 5.697018-.678904 10.863353-1.132294 15.596612l-.198403 2.002309c-.101214.988182-.205394 1.957118-.312305 2.907768l-.217394 1.877205-.224259 1.830151c-.075851.602397-.152776 1.197237-.230706 1.784804l-.236737 1.741165-.242349 1.699233-.247545 1.659009-.252321 1.620492-.256682 1.583683-.260624 1.54858c-.043742.255266-.087632.509141-.131659.76166l-.265754 1.499129-.268653 1.468294-.271133 1.439169-.273197 1.411749-.274842 1.386038-.414435 2.034583-.415789 1.986336-.554055 2.583357-1.759625 8.039379-.388799 1.811953-.379348 1.807885-.246952 1.205842-.241708 1.208302-.118757.605607c-.073124.375558-.143977.749735-.212308 1.122435l-.197181 1.113575c-3.025909 17.743295.331405 31.870465 37.656061 31.870465h1.280925c3.019493-.03039 6.254321-.144919 9.718218-.354109l15.291459-.803297 11.111198-.618806 9.032142-.536045 6.190191-.393063 4.935217-.33586 3.878023-.284791 1.923714-.151061 10.921399-.889427 8.752953-.72389 19.37989-1.629795 48.67977-4.155627 13.236004-1.104867 9.368518-.755572 6.223018-.479625 3.135202-.230953c19.814062-1.430101 29.909075-9.694104 38.235636-23.517624l.584924-.984995c.388129-.662797.772756-1.337839 1.154709-2.024994l.571029-1.0398c.094872-.174809.189602-.35037.284205-.526683l.566178-1.066866c.094142-.179308.18818-.359361.28213-.54016l.562727-1.093709c.093643-.183768.187223-.368277.280752-.553524 4.391842-8.69862 7.178319-18.818914 8.914911-30.838473l.225373-1.613905c.109625-.812622.214693-1.633779.315369-2.463613l.195545-1.67128.184126-1.69467c.059505-.568817.117155-1.141574.173-1.718312l.162166-1.742206c.026141-.292373.051843-.585751.077112-.880141l.146464-1.778518c.047122-.596912.092559-1.197911.136362-1.80304l.126552-1.827813c.020291-.306714.040185-.614471.059689-.923276l.112386-1.865446.103308-1.890849.094523-1.916504.086029-1.94241.077829-1.968567.069921-1.994976.062307-2.021637c.009766-.339175.019226-.679472.028388-1.020895l.051432-2.0621.044548-2.089389.037957-2.116931.045218-3.227586.022759-2.186884.017193-2.215306.015991-3.3768.00511-3.442164v-412.696532l-.013794-3.363757-.022641-3.32336-.021691-2.192918-.043164-3.255077-.056798-3.213533-.045927-2.119065-.052721-2.100283-.059805-2.081374c-.010575-.345313-.021457-.689832-.032652-1.033556l-.070984-2.052772-.078803-2.033545c-.013802-.337315-.027942-.673823-.042425-1.009522l-.091082-2.004466c-.015884-.332452-.032125-.66409-.048729-.994911l-.104019-1.975099-.113011-1.955364c-.019601-.324242-.039589-.647657-.059969-.970241l-.127049-1.92552-.136775-1.905466c-.023622-.315899-.047662-.630958-.072125-.945173l-.151912-1.875145c-.026182-.31083-.0528-.620811-.079859-.929941l-.167709-1.844539-.178608-1.823975-.189799-1.803284c-.130328-1.195264-.268313-2.376649-.414345-3.543986l-.225133-1.740448c-1.734498-12.974016-4.512257-24.159277-8.890039-33.314139-3.617455-7.564861-8.366745-13.605407-14.832315-17.774395-6.25101-4.030639-14.022931-6.270046-23.546929-6.83636l-9.245204-.538087-10.085732-.565888-14.202258-.770119-16.438765-.86287-17.355128-.886065-25.834247-1.282566-20.377089-.98655-22.017278-1.044299-27.923725-1.293733-12.722318-.579619-.824714-.040574-2.462366-.102797z"/></svg>