<?xml version="1.0" encoding="UTF-8"?>
<svg width="960px" height="960px" viewBox="0 0 960 960" version="1.1" xmlns="http://www.w3.org/2000/svg" xmlns:xlink="http://www.w3.org/1999/xlink">
    <title>net.alistairs.daikinone/ assets/icon</title>
    <defs>
        <path d="M0,0 L960,0 L960,960 L0,960 Z" id="path-1"></path>
    </defs>
    <g id="net.alistairs.daikinone" stroke="none" fill="none" xlink:href="#path-1">
        <path stroke="#979797" stroke-width="1" d="M959.5,959.5 L0.500000293,959.5 L0.500000293,0.500000293 L959.5,0.500000293 Z" stroke-linejoin="square"></path>
        <path d="M579.30856,418.232772 L551.157164,530.648697 L501.376993,530.648697 L529.551766,418.232772 L579.30856,418.232772 Z M650.25756,418.232772 L640.938625,455.005236 L683.635141,418.232772 L734.646043,418.232772 L672.08598,471.775103 L714.725635,530.648697 L657.156731,530.648697 L631.723936,491.840559 L622.007604,530.648697 L574.446287,530.648697 L602.546509,418.232772 L650.25756,418.232772 Z M806.657717,418.232772 L778.5556,530.648697 L728.783011,530.648697 L756.885128,418.232772 L806.657717,418.232772 Z M886.825828,418.21556 L908.938555,484.410193 L925.542054,418.21556 L960,418.21556 L931.834704,530.648697 L876.717153,530.648697 L854.528611,463.873127 L837.760847,530.648697 L803.340808,530.648697 L831.461878,418.21556 L886.825828,418.21556 Z M230.917191,373.983442 L212.29772,391.305075 L18.8113609,571.304798 L2.00006972,586.944287 L2.00006972,373.983442 L230.917191,373.983442 Z M114.69507,393.983442 L22.0000697,479.581442 L22.0000698,541.022043 L180.055666,393.983442 L114.69507,393.983442 Z M290.297749,418.24431 L303.171778,418.284599 C303.171778,418.284599 354.582605,419.733851 354.582605,465.85729 C354.582605,505.056965 320.679372,530.648697 286.229007,530.648697 L261.759696,530.614651 L199.912294,530.614651 L228.011884,418.24431 L290.297749,418.24431 Z M465.355993,418.221613 L486.009912,530.632305 L437.417511,530.632305 L434.011519,511.895298 L388.305776,511.895298 L377.679032,530.632305 L344.755077,530.632305 L408.775843,418.221613 L465.355993,418.221613 Z M269.18199,445.1998 L253.645589,505.833102 L271.285858,505.833102 C302.462908,505.833102 305.695788,469.31933 305.695788,469.31933 C307.500187,446.718029 290.920064,445.233847 285.191604,445.1998 L269.18199,445.1998 Z M422.848383,450.956837 L404.441749,483.386902 L415.858234,483.386902 L428.818819,483.386902 L422.848383,450.956837 Z" id="Combined-Shape" fill="#000000" fill-rule="evenodd"></path>
    </g>
</svg>