<svg height="960" viewBox="0 0 960 960" width="960" xmlns="http://www.w3.org/2000/svg"><g fill="none" fill-rule="evenodd"><path d="m235.457827 66.1823634 333.482951 31.9533486c9.04628.8667878 17.527759 4.788159 24.048 11.118479l22.191437 21.545045c7.758566 7.532574 12.136792 17.885507 12.136792 28.699157l-.000493 69.846282c3.593606-1.57321 7.422394-2.619513 11.369817-3.083686l46.805675-5.503828c2.316396-.273708 4.652177-.341644 6.980643-.206993l149.14532 8.624814c10.64945.615839 20.611765 5.459873 27.672877 13.455543l14.558398 16.485245c6.455275 7.30965 10.017851 16.725738 10.017851 26.477741v398.157914c0 10.219285-3.911355 20.051023-10.931374 27.477537l-42.254127 44.700854c-7.555721 7.993237-18.0695 12.522464-29.068625 12.522464h-139.170779c-1.680118 0-3.358567-.105855-5.025373-.316936l-40.100443-5.078389.000633 31.828802c0 9.203929-3.174054 18.126281-8.986876 25.262346l-50.387736 61.858116c-7.205887 8.846251-17.84655 14.194241-29.245085 14.69856l-326.716416 14.455313c-4.791092.211978-9.581259-.439354-14.141806-1.922901l-66.541373-21.645914c-6.730349-2.189384-12.759294-6.125309-17.471485-11.406053l-11.861107-13.292218c-6.5401788-7.329288-10.1547486-16.808898-10.1547486-26.631953v-668.851259c0-13.893059 7.2089137-26.791076 19.0423986-34.070206l99.832245-61.4097943c7.412515-4.559659 16.10985-6.5774895 24.772809-5.7474303zm-3.815208 39.8176366-27.839911 17.124927c1.052461 1.583541 1.665656 3.48423 1.665656 5.528139v723.634l17.60001 18.342889 313.860897-13.886082 50.387736-61.858116-.001013-62.068854c-.876077-3.309998-1.337277-6.780612-1.328257-10.348884l1.117496-440.887212c.003405-1.343234.074346-2.679187.2109-4.003341l.000874-118.079073-22.191437-21.545044zm-46.175245 28.402955-53.657 33.006839v668.851259l11.861107 13.292218 45.731893 14.876684-1.150956-1.199516c-1.786515-1.862069-2.784054-4.342667-2.784054-6.923159zm519.099 126.913-7.899325 6.763698-31.783253 27.962774v410.845l14.537 14.321 7.911578 7.243528 124.280595.000325 42.254126-44.700855v-398.157914l-14.558398-16.485244zm-31.879 1.222-29.329672 3.449326-16.041328 15.489674v441.26l28.869 3.656-8.319829-8.196366c-1.907644-1.87946-2.981749-4.44553-2.981749-7.123492v-419.551424c0-2.874206 1.236716-5.609448 3.394658-7.507959z" fill="#000" fill-rule="nonzero"/><path d="m185.5 847.5-63.689626-20.238947" stroke="#000" stroke-linecap="round" stroke-linejoin="round" stroke-width="20"/><path d="m602.692801 705.078925c.630161-5.486778 5.58892-9.423846 11.075699-8.793685l42.256302 4.853165c5.486779.63016 9.423846 5.588919 8.793686 11.075698s-5.588919 9.423846-11.075698 8.793686l-42.256303-4.853165c-5.486779-.630161-9.423846-5.58892-8.793686-11.075699z" fill="#000" fill-rule="nonzero"/></g></svg>