<svg height="951" viewBox="0 0 960 951" width="960" xmlns="http://www.w3.org/2000/svg"><path d="m370.131554 21.0576596.731446.0543404.65388-.0330652c2.325646-.1032761 4.662726-.1032761 7.005466-.0036304l1.004362.0499105 303.417143 16.9820878c42.438879 2.3752803 77.056149 37.0893193 77.056149 79.3387583v715.107878c0 42.249439-34.61727 76.963478-77.056149 79.338758l-303.417143 16.982088c-2.120775.118699-4.238223.152918-6.348111.103031l-.882597-.027816-.55305.028945c-2.877929.120266-5.820576-.071059-8.790854-.604521l-.743124-.140511-39.93829-7.930903c-.820081-.16285-1.634854-.351374-2.443119-.565291-3.088984-.81754-6.376932-1.570815-10.314281-2.378554-1.617323-.331791-3.28571-.661732-5.511022-1.0926-.420932-.081502-.85473-.165275-1.418983-.274078-.715308-.137887-1.127615-.217364-1.436595-.276971-1.197327-.230986-2.066112-.399466-2.928786-.56845-8.296082-1.625064-13.794526-2.89026-19.578761-4.698852-8.870734-2.773666-16.678299-6.418585-23.847632-11.725889-18.096967-13.396797-26.791503-33.582221-26.791503-58.076372v-717.548392c0-4.712198.320521-9.363338.963095-13.938846 3.154243-22.4600668 14.049746-40.3580687 31.54683-52.8187896 11.8415-8.4330412 23.817579-13.1404682 43.448488-18.7949454l.729791-.2097225 1.505523-.4297245c1.166955-.33169 2.441251-.6909077 3.973162-1.120754.260935-.073217.772796-.2167056 1.305501-.3660127l.399842-.1120641c.495699-.1389262.959162-.2688041 1.200807-.336526l.126153-.0353569c.014855-.0041638.026452-.0074146.03453-.0096794 1.20626-.3382108 2.138437-.6002375 3.044203-.8559629l40.221035-11.5224445c4.596445-1.3167457 9.189845-1.7760723 13.632594-1.4890729zm-22.130281 76.9386097v753.8387307c0 19.690756 14.148187 35.178299 32.586262 36.917887l274.763465-15.379228 26.135879-1.502822c.722481-.041555 1.440281-.10234 2.152876-.181812 8.517227-1.071283 16.279379-4.671157 22.424387-9.934901 8.349453-7.304576 13.656756-17.844128 13.656756-29.28455v-715.107878c0-8.423933-2.877528-16.359429-7.728351-22.8746504l-.302996-.38981c-7.191075-9.1178627-18.394947-15.3480044-30.98098-16.0524377l-301.145277-16.8551502c-17.935207 2.205864-31.562021 17.4820823-31.562021 36.8066216zm-13.138728-27.6441881-7.716251 2.2122716c-31.14559 8.7933552-54.622085 14.0321777-58.571914 42.1572852-.379167 2.699892-.57438 5.491685-.57438 8.375923v717.548392c0 35.331656 27.720794 31.33438 62.06171 40.423145l6.453019 1.2824c-5.401537-8.7856-8.513456-19.229907-8.513456-30.516498v-753.8387307c0-10.0805075 2.482375-19.4891257 6.861272-27.6441881z"/></svg>