<?xml version="1.0" encoding="utf-8"?>
<!-- Generator: Adobe Illustrator 21.0.0, SVG Export Plug-In . SVG Version: 6.00 Build 0)  -->
<svg version="1.1" id="Layer_1" xmlns="http://www.w3.org/2000/svg" xmlns:xlink="http://www.w3.org/1999/xlink" x="0px" y="0px"
	 viewBox="0 0 1417.3 1417.3" style="enable-background:new 0 0 1417.3 1417.3;" xml:space="preserve">
<g>
	<path d="M708.7,0C317.9,0,0,317.9,0,708.7c0,390.8,317.9,708.7,708.7,708.7c390.8,0,708.7-317.9,708.7-708.7
		C1417.3,317.9,1099.4,0,708.7,0z M708.7,1388.7c-375,0-680-305-680-680s305-680,680-680c375,0,680,305,680,680
		S1083.6,1388.7,708.7,1388.7z"/>
	<path d="M807.2,272.7C807.2,272.7,807.2,272.7,807.2,272.7c-0.1,0-0.1,0-0.2,0c0,0-0.1,0-0.1,0c0,0-0.1,0-0.1,0
		c-63.8-15.2-132.5-15.2-196-0.1c0,0,0,0,0,0c0,0,0,0,0,0c0,0-0.1,0-0.1,0c-0.1,0-0.1,0-0.2,0c-98.7,21.9-188.3,77.3-252.4,156.2
		c-65.1,80.1-101,181.2-101,284.6c0,249,202.6,451.6,451.6,451.6c249,0,451.5-202.6,451.5-451.6c0-103.4-35.8-204.4-100.8-284.5
		C995.4,350.1,905.8,294.6,807.2,272.7z M751.7,1082.2c-2.3,0.2-4.5,0.4-6.8,0.6c-2.7,0.2-5.5,0.4-8.2,0.6c-9.3,0.6-18.7,1-28.2,1
		c-8.2,0-16.4-0.3-24.5-0.7c-2.6-0.2-5.2-0.3-7.7-0.5c-1.9-0.1-3.8-0.3-5.7-0.5c-104.9-10.1-199.3-61.4-265.4-138.3
		c4.8,3.9,9.7,7.8,14.7,11.5c76.9,57,173.4,87.2,278.9,87.2c118.4,0,229.9-39.6,313.9-111.5c11-9.4,21.4-19.4,31.2-29.7
		C980.1,1000.3,874.2,1069,751.7,1082.2z M1108.4,684.8c0,43.1-6.9,84.5-19.6,123.4c-22,40.6-51.7,77.5-88.5,109
		C919.9,986.1,812.8,1024,698.9,1024c-101.4,0-193.9-28.9-267.5-83.4c-33.7-25-62.3-54.6-85.4-88c-16.3-35-27.8-72.8-33.3-112.7
		c-2.5-18.1-3.8-36.7-3.8-55.2c0-91.9,30.3-178.2,87.6-249.7c55.6-69.4,133.6-118.9,219.6-139.2c30.1-6.7,61.3-10.1,92.6-10.1
		c31.4,0,62.7,3.4,93,10.2c174.4,41.5,300.4,195.7,306.5,375.1C1108.4,675.6,1108.4,680.2,1108.4,684.8z"/>
	<ellipse transform="matrix(0.7667 -0.642 0.642 0.7667 -182.7228 463.4495)" cx="546.3" cy="483.1" rx="135.7" ry="116.1"/>
</g>
</svg>
