<svg height="960" viewBox="0 0 960 960" width="960" xmlns="http://www.w3.org/2000/svg"><g fill="none" fill-rule="evenodd"><g fill="#000" fill-rule="nonzero"><path d="m825.300107 27.5598579-506.708893 73.0247621c-14.542911 2.094603-25.440511 14.474722-25.930905 29.289779l-23.455806 708.900336c-.519485 15.730732 10.818078 29.354509 26.287866 31.394009l506.813294 66.823575c17.790406 2.346849 33.58275-11.433446 34.078831-29.513494l23.349624-848.7475815c.517175-18.9072336-15.855606-33.8490716-34.434011-31.1713856zm14.445781 30.6245242-23.35385 848.7451639c-.173542 6.324851-5.549284 11.015688-11.471348 10.234469l-506.814064-66.823676c-5.190354-.684284-9.09559-5.377009-8.91304-10.904853l23.455779-708.899562c.17207-5.198294 3.917605-9.453375 8.793852-10.155697l506.70986-73.0249009c6.18627-.8916206 11.769739 4.2038662 11.592811 10.829056z" transform="matrix(-1 0 0 1 1128.9334 0)"/><path d="m303.53318 32.221633c3.418397 4.7351917 4.964508 10.1690286 5.52391 18.0911939l.068818 1.0711915c.010521.1810419.020574.3633518.030169.5469495l.052151 1.117196c.007801.1888272.015164.3789814.022098.5704822l.036533 1.1653216c.005257.196966.010105.3953178.014552.5950752l.021966 1.2155684.012837 1.2502447.004174 1.2858636-1.184565 841.1006274c-.260641 16.456818-7.324 27.706755-18.783838 33.340222-6.267381 3.08094-12.513803 3.976216-17.753779 3.75571l-.359295-.017971-.289506-.019728c-5.505675-.435185-9.61612-5.251204-9.180935-10.756879.427809-5.412358 5.089208-9.476381 10.477542-9.19916l.193079.011423c.67956.028597 1.714811-.011105 2.944199-.187309 1.817482-.260492 3.578396-.764296 5.14548-1.534648 4.609775-2.266089 7.371019-6.576455 7.599859-15.247944l.010508-.582371 1.181261-840.6759841-.002989-.9756536-.008928-.9394129-.02441-1.3423396-.023536-.8511541-.029282-.8167878-.034972-.782957-.040607-.7496616-.046186-.7169018-.051709-.6846775-.057177-.6529888-.062589-.6218355-.067947-.5912177c-.011767-.0960146-.023756-.1907758-.035964-.2842946l-.075878-.5462953-.081095-.5170163-.086257-.4882729-.091365-.4600649-.096415-.4323926c-.016487-.0697892-.033183-.1384476-.050085-.2059865l-.103888-.3918881c-.017726-.0631053-.035656-.1251134-.05379-.1860355l-.111235-.3525885-.116065-.3270581c-.039487-.1048239-.07977-.2054819-.120838-.3020634l-.125556-.2776041c-.127897-.2655529-.262786-.4952202-.404419-.6914116-.067774-.0938809-.146069-.1851134-.23612-.2732779l-.144051-.1298934c-.229766-.1912314-.522185-.3658691-.891347-.5191339l-.257632-.0989577c-.08977-.0318955-.183484-.0626831-.281298-.0923104l-.305891-.0853482c-.053083-.0136271-.10723-.0269509-.162459-.039965l-.344522-.0743151c-.119275-.0234977-.243035-.045704-.371435-.0665663l-.399276-.0585027-.428045-.0501246c-.073789-.0076384-.148817-.0149147-.2251-.0218221l-.472937-.0369673c-.081388-.0054062-.164071-.0104305-.248068-.0150665l-.519917-.0231018c-.089333-.003056-.18002-.0057105-.27208-.0079568l-.568983-.0085285c-.195255-.0011754-.396155-.0006661-.602854.0015805l-.637653.0120042-.673379.0227425-.710033.0337956-.747615.0451632-.661521.0474046-15.51149 1.6638185c-5.398286.5789271-10.253144-3.2519048-10.975633-8.5987736l-.033667-.2778994c-.578927-5.3982858 3.251905-10.2531436 8.598774-10.975633l.277899-.0336665 15.676201-1.681159.289313-.0267816c13.089873-1.0201673 22.330858 1.7311269 28.056783 9.6627276z" transform="matrix(-1 0 0 1 559.89675 0)"/><path d="m776.351687-.4003595c-2.390546 0-4.834582.0998988-7.339326.29325792-.367384.028361-.734359.06179712-1.100819.10029878l-15.676201 1.64700007c-.288502.0303111-.576665.06375974-.86444.10033997l-2.785854.34764863-2.524039.30153762c-.199354.02320237-.395954.04592275-.589792.0681607-.394941.04530938-.789184.09650379-1.182599.15356618l-504.12712 73.12083373c-28.938202 4.0826793-50.759324 28.3607259-51.751756 57.5650499l-23.454272 694.277016c-1.04617 31.025651 21.666352 57.758662 52.453652 61.733813l506.812928 65.444339.88054.106125c1.749693.197462 3.434251.307333 5.111011.349927l.7484.013446 50.2 2.66-.564843-.036592c2.774769.200354 5.557111.300067 8.34193.300067h1.27193c6.358865-.07667 12.704582-.668898 18.973666-1.777174l23.287317-4.127301.90072-.140358c31.347836-5.168926 54.51817-32.305813 54.51817-64.268968v-821.2086324c0-32.6111811-24.745389-59.89814708-57.198893-63.07957614l-.653167-.05862866-.654041-.04791257-1.211789-.07992423-45.110908-3.47768589c-2.201066-.18888307-4.435981-.27967361-6.710405-.27967361zm0 40c.93312 0 1.821312.0288 2.665498.0854784l46.388104 3.5775217 1.3842.09c11.9718 1.1736001 21.101401 11.2392005 21.101401 23.270401v821.2086324c0 12.587401-9.313201 23.236201-21.785401 24.915601l-23.884201 4.2318c-4.3884.7758-8.8326 1.1664-13.282201 1.1664-1.8198 0-3.6414-.0648-5.4612-.1962l-51.366602-2.7216-.2214.0018c-.8406 0-1.6884-.0378-2.5452-.1476l-506.81342-65.444402c-10.330201-1.3338-17.949601-10.303201-17.598601-20.712601l23.454001-694.269028c.328988-9.681137 7.478215-17.749452 17.012914-19.263347l504.63071-73.1952764 2.67982-.3160356 3.704777-.4599444 15.676201-1.6470001c1.5156-.117 2.9358-.1746 4.2606-.1746z" transform="matrix(-1 0 0 1 1052.81164 0)"/></g><g fill="#010101" stroke="#000" stroke-linejoin="round" stroke-width="8" transform="matrix(-1 0 0 1 165.181495 219.016448)"><path d="m10.7164804 152.467926 7.5186003-.414v-25.804801l-6.7572002.378v.0018l-9.38520042.5238-2.09160008.117v25.790401l10.4868004-.5814c.0756-.0072.153-.0072.2286-.0108"/><path d="m.0009 114.364625v9.2988l6.39540025-.3582c-.61200002-1.26-.95220003-2.8314-.94860003-4.6224.0018-1.6092.29340001-3.2562.85500003-4.671z"/><path d="m1.24200005 156.596946-1.24020005.0684v9.298801l6.38640025-.3564c-.76500003-1.593-.93780003-3.348001-.93780003-4.597201 0-1.6164.29160001-3.2742.85500003-4.6944z"/><path d="m18.2347207 109.734484v-24.0822006l-6.7662002.4176v.0018l-10.15740045.6264-1.31040005.081v23.9778006l10.4778004-.594c.135-.0144.2718-.0198.4122-.0198v.0036z"/><path d="m.70938003 72.6069629-.70920003.0432v10.5210004l6.48720026-.4014c-.67500003-1.3950001-1.04400004-3.1806001-1.03320004-5.2578002.0072-1.8450001.32220001-3.7008002.93060003-5.2506002z"/><path d="m18.2347207 43.2761417-18.2340007 1.1124001v24.6546009l18.2340007-1.1124z"/><path d="m18.2347207 15.3180006c0-8.44560033-6.8796002-15.3180006-15.33600058-15.3180006h-2.89800012v26.6526011l18.2340007-1.1124001z"/><path d="m18.2347207 181.908547v-13.347l-18.1782007 1.0062-.0558.0036v24.577201h5.97600024c6.75900026 0 12.25800046-5.490001 12.25800046-12.240001"/><path d="m1.98720008 30.1381212-1.98720008.1206v10.5246004l6.49980026-.3996c-.86400004-1.7712001-1.04940004-3.7872001-1.04940004-5.1984002 0-1.8684001.31320001-3.7476002.92700003-5.3136002z"/><path d="m10.7164804 480.930139 7.5186003-.4158v-25.804801l-6.7572002.3798-9.38520042.5256-2.09160008.117v25.788601l10.4868004-.5796c.0756-.0072.153-.009.2286-.0108"/><path d="m.0009 442.825938v9.3006l6.39540025-.36c-.61200002-1.26-.95220003-2.8296-.94860003-4.6224.0018-1.6092.29340001-3.2562.85500003-4.671z"/><path d="m1.24200005 485.058259-1.24020005.0684v9.298801l6.38640025-.3564c-.76500003-1.593-.93780003-3.348001-.93780003-4.597201 0-1.6164.29160001-3.2742.85500003-4.6926z"/><path d="m18.2347207 438.195977v-24.082201l-6.7662002.4194-10.15740045.6264-1.31040005.081001v23.9778l10.4778004-.594c.135-.0144.2718-.0198.4122-.0198v.0036z"/><path d="m.70938003 401.068276-.70920003.0432v10.521l6.48720026-.4014c-.67500003-1.3932-1.04400004-3.1788-1.03320004-5.2578.0072-1.845.32220001-3.7008.93060003-5.2506z"/><path d="m18.2347207 371.737455-18.2340007 1.1124v24.654601l18.2340007-1.1124z"/><path d="m18.2347207 343.779314c0-8.445601-6.8796002-15.318001-15.33600058-15.318001h-2.89800012v26.652601l18.2340007-1.1124z"/><path d="m18.2347207 510.36986v-13.347l-18.1782007 1.0062-.0558.0036v24.577201h5.97600024c6.75900026 0 12.25800046-5.49 12.25800046-12.240001"/><path d="m1.98720008 358.599434-1.98720008.1206v10.524601l6.49980026-.3996c-.86400004-1.7712-1.04940004-3.7872-1.04940004-5.198401 0-1.8684.31320001-3.7476.92700003-5.3136z"/></g></g></svg>