<svg height="960" viewBox="0 0 960 960" width="960" xmlns="http://www.w3.org/2000/svg"><path d="m769.076205 841.753803.019893-.00055.047322-.001346c-.082906.002405-.165789.004563-.248648.006476l-.021025.00048c-.189331.004756-.378255.007784-.567061.00953-.014237-.000323-.028339-.000295-.042414-.000201-.174968.001398-.349955.001696-.524842.000889l.514044-.000809c-.429377.003474-.858138.000309-1.286165-.009516-.004353-.000535-.008683-.000637-.013012-.000739-.402031-.008918-.803434-.024153-1.204087-.045286-.042921-.003095-.085911-.005443-.128891-.00786-.382408-.020532-.764015-.047291-1.144842-.079444-.055505-.005875-.110814-.010674-.166104-.015587-.165939-.013484-.332066-.029245-.498034-.046038-.045604-.005961-.091562-.010702-.137506-.015521-.844464-.087033-1.684191-.202078-2.518804-.344017-.010884-.003634-.022554-.005625-.034224-.007622-1.689357-.287086-3.356954-.68596-4.995636-1.196533-.017872-.007102-.035894-.012728-.053911-.018367-1.006534-.313718-2.001948-.671074-2.98458-1.070961-.041527-.017686-.082565-.03446-.123579-.051307-.155803-.063276-.311558-.128505-.46698-.194811-.0382-.016921-.076907-.033499-.115592-.050143-.139085-.059276-.277386-.119793-.415416-.181169l-.075111-.03487-.059752-.025807c-.044992-.020265-.090004-.040582-.134984-.060989-.115592-.052051-.23059-.104947-.345393-.158445-.038976-.018494-.078298-.036889-.117594-.055355-.142915-.066879-.285182-.134842-.427139-.203737l-.044638-.021909c-.039325-.019141-.078625-.038352-.117898-.057635l-.057123-.028105c-.140856-.069301-.281239-.139618-.421308-.210857-.026103-.013374-.052729-.026951-.079344-.040561-.14499-.07408-.28907-.148938-.432808-.224781-.057089-.030152-.114711-.060738-.172275-.091481-.177764-.094934-.354502-.191126-.530701-.288824l-.615326-.348861-.607293-.360556-.750778-.085569c-.013991-.001721-.027982-.00345-.041971-.005185-.231577-.028676-.462552-.059282-.693156-.091792-.037373-.005321-.074761-.010643-.112138-.016015-.201168-.028861-.402137-.059239-.60281-.091068-.062625-.009982-.124656-.019965-.186658-.030086-.177896-.028993-.355982-.059251-.533822-.090658-.087351-.015469-.174699-.031182-.261986-.047172-.129882-.023752-.259528-.048141-.389038-.073143-.114964-.022233-.229931-.044932-.344788-.068114-.131558-.026518-.2629-.053692-.394096-.081502-.106596-.022628-.213264-.045678-.319833-.069149-.147328-.032415-.294308-.06563-.441096-.099647-.079037-.018346-.157685-.036815-.236276-.055515-.156134-.037119-.312621-.075321-.468879-.114439-.088515-.022184-.177059-.044663-.265529-.067436-.110754-.028488-.220849-.057318-.330827-.086605-.696012-.185354-1.387868-.389186-2.074505-.61137-.122176-.039525-.243734-.079491-.365126-.120033-.098405-.032874-.197152-.066272-.295787-.100051-.132756-.045459-.265006-.091512-.39705-.138255-.109962-.038931-.220026-.078423-.329946-.118396-.109502-.039817-.218501-.079982-.327354-.120621-.115433-.043098-.231186-.08691-.346771-.131258-.128776-.049407-.257058-.099372-.385129-.150001l-.132-.052449-.303753.877844c-7.582168 21.493306-18.352485 39.840389-32.517779 55.188746-15.862307 17.187101-35.476484 30.105148-58.991689 39.590848-20.163621 8.133718-43.146128 13.776332-70.801582 17.89266-49.307924 7.339151-91.64807 8.782963-130.845455 4.469705-37.406691-4.116211-72.114517-13.441606-108.731374-28.60106-30.124165-12.471466-52.624047-29.369812-68.366137-51.523521-4.049647-5.699033-7.60383-11.677981-10.692677-17.968706-4.856829.09078-9.716829-.479505-14.48651-1.718513-14.488129-3.763543-27.789729-9.268403-39.731457-16.655634-12.879635-7.967425-23.991256-18.018234-33.041395-30.078395-18.227802-24.29026-27.190267-55.377448-27.190267-92.325735l-.000133-256.452487c12.946808 6.737383 26.310891 12.6701 39.999618 17.774057l.000515 238.67843c0 46.125888 16.802275 74.543482 44.101707 90.063468l-7.725065-317.325128c6.655309 1.710257 13.364367 3.233421 20.117606 4.567004l7.82399 321.413611c1.86962.582489 3.770648 1.124067 5.701799 1.625717 3.342838.86836 6.872941.489345 10.590229-1.137357-.689456-3.073398-1.317386-6.23506-1.890691-9.495602-2.090686-11.890304-3.381954-24.189404-4.716397-42.540291-.626928-8.621328-.441968-22.329725.468638-48.467335.180998-5.195287.392483-10.952514.672245-18.350341.159393-4.214895.765055-20.05414.799857-20.96248l.000737-.018983c.751723-19.713398 1.279216-34.10853 1.814767-49.917997 1.449927-42.801831 2.531297-84.427539 3.223878-128.170845 3.088542.394672 6.185409.750413 9.288058 1.066684 3.622489.558762 7.175721 1.061405 10.670609 1.506292-2.435448 150.049818-8.774777 237.340808-6.99146 261.864471.991813 13.639122 2.123746 26.454478 4.106922 38.419011.177778-.218099.354323-.437879.531188-.659793 4.134564 25.891327 12.089766 47.844809 30.945269 65.59065 9.724218 8.955998 22.285735 16.82558 38.612839 23.574254 63.279469 26.156048 124.948701 35.436106 218.629214 21.514632 66.631707-9.901862 110.593807-30.366842 130.425636-85.816886-.383171-.148634-.764313-.298183-1.145712-.450069l-.930741-.375105-.115815-.047292-.485585-.199787.6014.247079-1.012489-.418105c-.117897-.049296-.23582-.098816-.353768-.148561-.254649-.107397-.509343-.21581-.76416-.325272-.120084-.051586-.239764-.103217-.359472-.15508-.242568-.105089-.485929-.21143-.729404-.31873-.129908-.057253-.259568-.114652-.389261-.172324-.301168-.133923-.602449-.269287-.903911-.406125-.043348-.019677-.086371-.039234-.129397-.058821-.35267-.160546-.705957-.323282-1.059498-.488048-.101782-.047436-.203072-.0948-.304384-.14233-.253476-.118916-.507529-.23909-.761716-.360315-.124164-.059216-.24813-.118572-.372128-.178177-.229498-.11032-.459144-.221515-.688902-.333571-.145173-.070803-.29048-.141992-.435832-.213526-.21017-.103434-.420421-.207581-.630767-.31245l-.355046-.17765-.113763-.057188c-.193222-.097251-.386525-.195112-.579911-.293584-.22788-.116038-.456605-.233298-.685445-.351413l-.409181-.212044-.261434-.136367-.165848-.086868c-.167123-.087675-.334306-.175805-.501549-.264391-.220583-.116839-.441227-.234448-.661982-.352856-.159952-.085793-.319984-.172017-.480074-.25866-.271721-.147061-.543493-.295265-.815438-.444681-.264066-.145085-.528715-.291548-.79353-.439161-.142033-.079174-.283693-.158441-.425401-.238038l-.137929-.077569-.27866-.157299-.345371-.196036.624031.353335-.939763-.533594c-.183565-.105092-.36721-.210737-.550939-.316937-1.0309-.595894-2.064041-1.209027-3.099908-1.83981-.140451-.085526-.280704-.171225-.421007-.257248-.219551-.134613-.439014-.269887-.6586-.405954-.121421-.075238-.243418-.151054-.365454-.227115-.265322-.165368-.530574-.331736-.796011-.499264-.105507-.066589-.210838-.133233-.316199-.200059-.269239-.170767-.538828-.34283-.808609-.516092-.096113-.061726-.19213-.123527-.288171-.185479-.365588-.235827-.731703-.473968-1.09818-.71432-5.328791-3.494865-10.88141-7.253838-17.157902-11.595436-3.305569-2.28654-6.643396-4.616647-11.024895-7.6908-.072628-.050958-.160825-.112852-.26222-.184018-.13287-.093256-.289508-.203209-.463679-.325479-.068847-.048332-.139969-.098262-.213464-.149859l-.088222-.061937c-.270163-.189672-.5698-.40005-.883135-.620057-.296636-.208281-.605577-.425211-.913787-.641633l-.052908-.037151c-.283537-.199098-.566137-.397543-.837343-.58799-.628856-.441598-1.196037-.839906-1.575353-1.106297l-.056306-.039543c-.053966-.037901-.103622-.072774-.1485-.104293-.047954-.033679-.09044-.063518-.126909-.089132l-.013647-.009584c-.06786-.047662-.112751-.079194-.130723-.091823-.251232-.176394-.494042-.346853-.729461-.512099-.402445-.282485-.78301-.549537-1.147151-.804978-1.043164-.731767-1.951815-1.368433-2.846534-1.994431-8.073272-5.648527-13.639293-9.455417-18.625799-12.700058l-.195723-.127014-.390094-.25323c-.164296-.106376-.327581-.211869-.489858-.316481-.255216-.164522-.507668-.326692-.757511-.486609-.680292-.435463-1.342547-.855054-1.98664-1.258689-.623388-.390467-1.228639-.765365-1.816859-1.125253-.11593-.071455-.23187-.142249-.347153-.212463-1.388299-.844428-2.678212-1.603135-3.873381-2.277331-8.606261 13.137664-19.231478 24.332805-31.375758 32.921725-17.234838 12.189166-37.02501 18.782198-57.660039 18.782198-31.395431 0-60.466442-15.245644-81.473499-41.292008-20.282982-25.148595-31.731377-58.708656-31.731377-94.271452 0-27.336 6.749065-53.552107 19.243053-75.785283 12.528078-22.29384 30.417445-39.811639 51.524104-49.983563 2.960144-1.426581 6.226187-2.101829 9.509348-1.96604l73.218756 3.028285c3.243014.134129 6.404658 1.055535 9.21198 2.68467 25.912032 15.037187 45.844863 41.263134 56.041372 72.907985l.303445.955597c3.814373 1.264599 7.689041 2.628087 11.643736 4.094708l.018947.008019.278873.102836 1.031986.385542.144005.054415.391409.14665c.276912.104763.554263.209548.832016.314835.719917.272251 1.442711.548599 2.168396.828393.198496.077118.39708.153846.595876.230829l.641643.248547c.412693.160515.826351.322204 1.241018.485019l.104021.041433c.082322.032346.164681.064735.247078.097167.210383.082243.419681.164814.629239.247671.261121.103422.522955.207241.785179.311498.653095.259468 1.30886.521928 1.967286.787201.281632.113914.564501.228184.847828.342954l-.050956-.020638c.083697.033475.16678.067151.249907.100872l.283121.115349c.095769.038915.191591.077887.287465.116916l.303505.123672c.267535.108771.535573.218388.804065.328465.205264.084325.410601.168665.616188.253269.267934.110107.536317.22083.80516.332012.053213.022242.105898.044038.158598.06585.400244.16545.802287.332472 1.205378.500522.108244.045224.216537.090411.3249.13567.281664.117556.563941.235746.846739.35444.176902.074346.354104.148824.531492.223491l.876351.369778c.022381.009467.044766.018937.067153.02841l.839204.355898.399721.170083c.475722.202655.952947.406717 1.431708.612194.615224.264045 1.239735.534297 1.873372.810664.827131.360764 1.668893.731536 2.525817 1.112497.6182.274831 1.244224.554935 1.878004.840262.230783.103899.462792.208579.695823.313948l.259699.117522c.230006.104167.461.209001.692977.314497.222317.101104.444562.202372.667695.304241l.122765.056066.390539.178616.034185.014659.058.027.011445.005621.148144.068078c.214893.098528.430578.197594.647062.2972l.522209.240608c.823589.37999 1.65856.767686 2.504663 1.162942.786776.36754 1.583608.74182 2.389873 1.122526l.270077.127599c.422879.199907.848334.401568 1.276335.604967l.143915.068413.239281.113834c.079259.037724.158604.075507.238036.11335l.263531.125614c.178936.085336.358058.17085.537611.256658.573385.274021 1.151974.551436 1.734906.831827l1.057899.509815c1.115653.538653 2.246785 1.087928 3.392935 1.647558l.865638.423233.168444.082488c.312139.152896.625365.306542.939669.460933l.22712.111603.932985.459229c1.029178.507259 2.0696 1.022306 3.120957 1.544957l-.687668-.341543c.51463.255366 1.031961.512601 1.551946.771678.250864.12499.502606.250539.754955.376512.263078.131328.527367.263392.79232.395918 3.022308 1.511728 6.129177 3.082692 9.314658 4.709329.305986.156249.613026.313179.920787.470621 3.586115 1.834559 7.269736 3.738341 11.041281 5.705731.663257.345981 1.32989.694273 1.999193 1.044505 1.3761-61.383238 3.874959-136.262058 4.169524-207.348818.344659-83.175952-3.359923-160.893068-5.067353-208.408098-2.643326-73.55952-12.960805-114.378672-46.100427-144.529785-13.609661-12.3170795-31.04311-22.8591212-53.340156-33.1389789-42.985016-19.8178644-88.271679-28.551888-132.406261-31.8909286-.857242-.4506423-1.718412-.9015204-2.582188-1.3518059l-.106785-.0556672-.107119-.0550233c-30.328373-15.5786389-61.259913-28.7710112-92.53331-39.39685835 18.897322-.70404148 34.887603-1.01533899 50.794793-.90057431 21.992735.15866971 42.56861 1.16219383 62.526683 3.20287618 22.716453 2.32272245 44.388113 5.97370488 65.285439 11.17346748 23.019203 5.7277371 44.956389 13.3043819 65.876182 22.9492694l8.264428 3.9208355c18.811318 9.1916234 34.36337 18.7251539 47.646268 29.458205 16.708535 13.5010862 29.790547 28.924624 39.729208 47.058849 9.502998 17.339307 16.008715 36.888333 20.305204 59.888845 3.783577 20.254723 5.942006 43.518772 6.985073 72.59204.255794 7.129697 1.708632 44.798873 2.130763 56.429925.948721 26.140275 1.651072 49.12031 2.157542 72.206249.622036 28.353691.905023 55.348145.798829 81.47064-.054083 13.303875-.185351 27.132914-.389725 41.661888-.411933 29.284432-1.031854 57.401284-2.14006 100.635781-.00777.303112-.736358 28.530382-.934032 36.354539-.338375 13.393305-.595629 24.147082-.811761 34.114088-.116494 5.372172-.220076 10.484826-.310721 15.363309 1.246005.685408 2.479531 1.365396 3.6976 2.038277.596785.32977 1.18955.657562 1.778259.983451 1.726907.955881 3.419226 1.895652 5.067805 2.814036.599412.333972 1.192866.664962 1.780117.992886.357234.199435.712229.397815 1.064833.595006.824487.461127 1.63601.915773 2.433231 1.363222.461134.258785.917832.515392 1.369502.769454.337295.189752.671478.377884 1.002763.564543.238002.134077.474213.267251.708896.399646.411025.231898.817303.461351 1.218699.688304.142418.080507.284133.160667.425225.240508.758316.429129 1.498844.84913 2.22003 1.259139.635088.36105 1.255201.714378 1.85939 1.059432.344111.196529.683375.39055 1.017293.581785.264341.151383.525171.300933.78257.448692.427662.245502.845853.486053 1.254185.721438.602036.347045 1.182713.682904 1.740705 1.006822 1.217524.706782 2.327234 1.356822 3.315964 1.942651.165234.097902.326747.193808.484836.287893.193946.115426.382644.228057.566083.337889.182428.109228.359355.215507.530989.318965l.098809.059602.097339.058798.512236.315703.030097.018931.152451.096551c.141658.090231.282264.181225.422098.27315.05879.038648.117592.077558.176256.116634.112279.074788.22409.150204.335398.226221.09073.061964.180803.124103.270544.186636.089686.062494.179023.12537.268029.188636.077094.054799.154092.110002.23084.165498.118018.085338.23534.171291.352073.25793.049146.036477.098079.072994.146909.109632.114485.085901.228513.172554.341968.259867.072728.055971.144909.11197.216856.168236.093196.072882.18637.146509.279149.220585.074709.05965.148815.119311.222668.179259.306933.24914.609779.503502.908223.762724.100715.087481.200806.175405.300396.263877.083254.073958.166341.148465.249077.223354.060924.055148.121405.11027.181697.165597.111641.102447.222616.205578.332944.309405.035808.033698.071856.067761.107835.101898.109473.103871.218058.208192.326003.313192.06306.061339.12607.123075.188861.185043.092356.091149.183741.1823.274655.273941.06291.063413.125688.127158.188241.191137.090769.092837.181231.186345.271215.280346.061858.064621.123134.129098.184188.193803.087114.092321.174245.185617.260916.279381.058677.06348.11703.127048.175172.190829.443197.486175.874111.984565 1.292824 1.494779.044225.053891.088445.108072.132527.162385.073081.090042.145803.18047.218148.271258l.09841.124014.196321.250521c.034143.043936.0682.087953.10217.132052l.09243.120469c.154139.201704.306496.405111.457056.610178l.088343.120799.067853.093658.056074.077406c.070364.097669.140335.195719.20991.294143.053903.076256.107661.152865.161176.229692.167249.240105.332142.482355.494667.726697l.104169.157385c.113027.17162.224896.344259.335605.517905l.296954.476151.169457.272586c.044928.073829.089639.14781.134134.221943l.036936.061657.140146.236116c.067061.113816.133619.227984.199673.342502l-.339819-.578618c.269616.450943.531009.907042.784476 1.368592.095858.174548.190628.349965.284284.526189.046039.086628.091754.173347.137197.260252l.041477.079517c.064401.12377.128521.248449.192086.373503l.104109.206147c.015791.031471.031548.062966.047269.094484.105688.211878.209824.424875.312393.638945.022867.047728.045279.094714.067615.14175l.133873.284459.110602.238948c.040402.087951.080543.176074.120425.264367l-.231027-.503315c.157213.337088.310558.676689.460057 1.018771.045064.103108.089863.206643.134311.310404.100849.235429.199878.471972.297112.709665.008423.020583.016633.040693.02483.060812.251972.251486.500581.506139.745807.763901.1599.167787.318359.337189.475374.507897.106363.115898.212464.232571.317897.349844.042646.047186.084865.094366.126976.141642.132607.149104.264738.299604.395787.451056l.013479.015362c.04623.053858.092588.107764.138809.161789l.150487.176733c.056432.066708.112658.133595.168678.200662l.06533.07821c.023788.028979.047227.057256.070629.085565l.292325.35725.095617.119077c.062862.078347.12545.156926.187764.235738l.176065.224148c.024767.031762.049491.063561.07417.095397.089893.116055.179337.232693.268192.349818l.106877.141141c.038342.050982.076574.102054.114694.153218.053962.072786.108007.145812.161827.219022.10864.147408.216235.295757.322911.444844.043215.060789.086374.121444.129381.18222.084335.118771.16791.238155.250903.357999.066028.095781.132228.192219.198053.288952.089546.131123.178052.262729.265867.394871.055236.083626.110663.167672.165811.251931.094055.143156.18678.286655.278703.430764.041529.065712.08342.131785.125143.197986.071487.112777.141956.22571.211937.339009l.092257.150673.092283.15156c.090855.149023.180349.298552.269006.448693.028711.049197.057544.098449.08636.147762l.062066.105655-.016539-.027635c.094397.161113.187529.323327.279699.486231.026115.047231.052697.094425.079198.141676l.021844.03791c.068301.122027.136064.244437.203288.367228l-.225132-.405138c.261844.46564.515389.937185.761028 1.414148 4.048652 3.152504 7.39401 7.072205 9.967821 11.555663l.045919.081351.045216.078203c.091549.161094.182107.322907.271671.485432l-.129407-.232045-.008436-.01507c.00897.016016.017929.032037.026877.048065.050171.089859.100042.179947.149591.270222l.048513.088636c.079818.145431.158399.291499.236185.438124.02533.048396.05102.097019.076618.145695.077164.146212.153203.292931.228452.440192.029948.058933.059961.117968.089841.177077.059582.117673.118596.235822.177106.35431l.023169.047018c.025172.051102.050247.102258.075223.153468l.096672.199497c.022982.04794.04599.095981.068916.144076l.07045.14816c.034257.072523.06832.145151.10219.217883l.032874.070759c.027955.060864.055897.121543.083711.182305.057116.124087.113668.249101.169654.374414.033751.076411.067582.152749.101211.229215.061466.138739.121977.278196.181796.418012.034581.082028.069475.164301.104139.246718.056166.132199.111249.264894.165717.397902.013473.03438.027345.068384.041177.102411.07155.174438.14164.349952.210668.525994.015548.041379.03166.082658.047715.12397l.032009.080807c.046108.119287.091732.238814.13687.358579l-.168879-.439386.192713.503143c.047936.127568.095287.255413.142071.383528.030059.082305.059764.164406.089245.246615l.035031.100121c.016837.047296.033599.094625.050287.141987l.072538.20531c.025212.072643.050251.145369.075115.218176l.055561.163686c.019339.059497.039224.118831.058993.178216.052381.155147.103325.310906.153484.467022.031567.100531.063473.201004.095052.301615.243891.774601.467916 1.558231.672763 2.349797.012937.051167.026047.102141.039077.153148.050155.195278.098925.391331.146529.587853.019385.080922.03888.162271.058176.2437.041534.174504.081899.349143.121352.524138.018861.084317.03775.169104.056426.253973.229215 1.041383.426103 2.095183.590947 3.159849.013726.08873.027176.177095.040406.265534.026812.179169.052791.359223.077861.539575.012682.091261.025136.182605.037357.274023.021431.160294.042124.320669.062104.481268.013152.105714.026071.212155.038676.318694.024615.208068.047969.415866.070138.624022l.020213.193082c.042862.416647.08096.834396.114317 1.253159l-.022051-.015431c60.895286 45.943714 105.89842 94.60657 135.001741 146.200697l-.000838 41.379358-1.61272.001115c-2.003947-4.318483-4.061086-8.678314-6.171383-13.079571-.080901-.168728-.16198-.337426-.243237-.506096l.243237.506096c-.280462-.584935-.563068-1.169526-.847817-1.753775-.096834-.198684-.193995-.397491-.291405-.596258-.181652-.370665-.364227-.741316-.547667-1.111828-.103335-.208715-.206786-.417069-.310509-.625379-.157635-.31658-.315989-.633234-.474975-.949787-.160231-.319033-.321191-.638136-.482793-.957136-.112487-.222048-.22546-.444388-.338745-.666678-.145322-.285154-.290948-.569816-.437086-.854396-.147151-.286552-.294756-.572895-.44288-.859156-.129664-.250585-.259977-.501591-.39069-.752534-.194759-.373898-.39036-.747571-.586847-1.121103-.078281-.148817-.156657-.297524-.235174-.446209-.217433-.411748-.436001-.823436-.655648-1.234951-.079708-.149336-.159382-.298322-.239198-.447285-.193999-.362069-.389056-.724417-.584949-1.086632-.134158-.248065-.268677-.496009-.403588-.74389-.208051-.382266-.41704-.764395-.626962-1.146376-.072277-.131518-.144754-.26318-.217341-.394825-.917854-1.664611-1.853338-3.326252-2.80653-4.985078-.223116-.388285-.447383-.776729-.672622-1.165019-.09363-.16141-.187565-.323027-.281668-.484618-.191496-.328829-.383517-.657254-.576234-.985569-.121195-.206471-.24299-.413447-.365061-.620379-.200235-.339431-.400873-.678168-.602252-1.016789-.127356-.21415-.25537-.428857-.383682-.643517-.201143-.3365-.402743-.672427-.605075-1.008238-.172241-.285869-.344961-.571569-.51821-.857184-.113403-.186954-.22749-.374624-.341805-.562257-.209248-.343449-.418864-.686128-.629244-1.028687-.141731-.23078-.284199-.462138-.427016-.693441-.215042-.348275-.430539-.695888-.646824-1.043376-.109147-.175358-.218709-.35103-.328473-.526669-.893151-1.429177-1.799597-2.856192-2.719369-4.2811-.665945-1.031679-1.33874-2.062049-2.018517-3.091316-.213986-.324004-.428954-.648333-.644615-.972552-.143704-.216042-.287548-.431782-.4317-.647475-.158919-.237789-.318383-.475776-.478221-.713703-.240311-.357713-.481328-.715088-.723191-1.072329-.133061-.196538-.266684-.393486-.400564-.590393-.220967-.324992-.44228-.649356-.66429-.973611-.193232-.282224-.387378-.564925-.582056-.847543-.11736-.170375-.234688-.340393-.352208-.510381-.273694-.39589-.548614-.791878-.824576-1.187703-.100357-.143945-.200677-.28762-.301135-.431273-.306831-.438765-.615223-.877722-.924899-1.316477-.102005-.144521-.203812-.288545-.305758-.432548-.259274-.366236-.5199-.732971-.781424-1.099564-.111128-.155774-.222109-.311091-.333251-.466382-.344277-.481035-.69038-.96221-1.038034-1.443142-.057945-.08016-.116076-.16051-.174251-.240853-.304138-.420038-.609347-.839736-.915738-1.259248-.083339-.114108-.166921-.228414-.25059-.342707-.785479-1.072967-1.578581-2.144567-2.379416-3.214954-.211873-.283187-.424263-.566259-.637195-.849245-.186019-.247219-.372544-.494496-.559482-.741708-.223535-.295609-.447564-.590998-.672183-.886294-.19627-.258027-.393008-.516005-.590197-.773913-.166953-.21836-.334276-.436733-.501924-.655055-.253058-.329551-.506964-.659131-.761608-.988594-.178342-.230742-.3568-.461112-.535618-.691424-.265051-.341379-.531232-.683064-.798206-1.024624-.171725-.2197-.343566-.439078-.515735-.658404-.245233-.312404-.491405-.625051-.738244-.937592-.141411-.179052-.282773-.357731-.424352-.536376-.280976-.354535-.563258-.709498-.846402-1.064327-.126384-.15838-.252377-.316031-.378541-.473656-.369159-.461218-.740364-.922939-1.113029-1.384433-.084479-.104615-.168559-.208631-.252713-.312637-.293138-.36229-.587726-.725113-.883218-1.087794-.164558-.201976-.329134-.403587-.493989-.605154-.167114-.204329-.334598-.408714-.502369-.613055-.61565-.749844-1.235385-1.499345-1.858992-2.24824-.512007-.614875-1.026631-1.229352-1.543865-1.843422-.262923-.312148-.526847-.624577-.791448-.936901-.163953-.193524-.328002-.386814-.49231-.580064-.238627-.280661-.477937-.561396-.717793-.842046-.274081-.320694-.548654-.64102-.823941-.961234-.112097-.130393-.224614-.261117-.33725-.391822-.361005-.418919-.723116-.837516-1.086447-1.255923-.087823-.101135-.175645-.202177-.263538-.303208-.332022-.381649-.665229-.763334-.999452-1.144861-.246732-.281653-.493769-.562937-.741359-.844134-.158496-.180011-.317245-.360015-.47622-.539985-.304595-.34482-.610243-.68976-.916724-1.03457-.181208-.203871-.36259-.407564-.544262-.611212-.215542-.241616-.431596-.483282-.64806-.724884-.335976-.374994-.672864-.749751-1.010737-1.124354-.142734-.15825-.285745-.316585-.428932-.474892-.340633-.376603-.682153-.752928-1.024669-1.129099-.134935-.148194-.269843-.296163-.404905-.444109-1.444074-1.581828-2.906079-3.16123-4.385724-4.737899-.2939-.313173-.589178-.626961-.885154-.94064-.186429-.197578-.372591-.394539-.559029-.591457-.284148-.300122-.569353-.600582-.8552-.900942-.242224-.254523-.485037-.509108-.728313-.763622-.214279-.224178-.428483-.447848-.643043-.671463-.277874-.2896-.556802-.579582-.83633-.86947-.211761-.219608-.423677-.438969-.635938-.658276-.3442-.355628-.689449-.711264-1.035603-1.066761-.131003-.134537-.261636-.268544-.392399-.402531-.345032-.353543-.691605-.707604-1.039077-1.061527-.238822-.243255-.477827-.486199-.717256-.729078-.212274-.215333-.424601-.43033-.637259-.645277-.261493-.264305-.523862-.528911-.786735-.793438-.844014-.849325-1.693089-1.697718-2.547353-2.545311-1.447355-1.436051-2.909638-2.869833-4.386814-4.301321-.872813-.845816-1.750603-1.690619-2.63359-2.534622-.183817-.175702-.367588-.35111-.551584-.526484-.393307-.374877-.787765-.749714-1.183249-1.124394-.148543-.140728-.29665-.280886-.444901-.421021-.399838-.37795-.800917-.755923-1.203042-1.133736-.138034-.129688-.275973-.259153-.414035-.3886-.450729-.422599-.902792-.845022-1.356166-1.267244-.114683-.106803-.228927-.213107-.343254-.319398-.435926-.405286-.873161-.81048-1.311603-1.215488-.123117-.113728-.245806-.226959-.368589-.340175-.477139-.439964-.9561-.880071-1.436489-1.319959-.103626-.09489-.206937-.18942-.310313-.28394-.455768-.41672-.912622-.833065-1.370756-1.249214-.120091-.109084-.23985-.217775-.359697-.326452-.334549-.303372-.669841-.606694-1.005815-.909911-.739484-.667388-1.482028-1.334056-2.22787-2.000218-.612163-.546766-1.226882-1.093487-1.843824-1.639867-.509245-.451002-1.020373-.902097-1.533019-1.352959-.078904-.069394-.157897-.138829-.236925-.208259-.244669-.214951-.489041-.429287-.733756-.64357-.380063-.332801-.761311-.665787-1.143387-.998645-.259006-.225641-.51802-.4509-.777414-.676101-.269671-.234123-.539774-.468202-.810287-.702219-.320631-.277371-.641531-.55439-.963008-.831321-.270615-.233117-.542059-.466533-.813912-.699887-.312388-.268148-.624991-.535936-.938134-.803641-.305559-.261222-.611584-.522325-.918121-.783349-.296979-.252885-.594641-.505868-.892786-.758776-.339454-.28795-.678933-.575298-1.019035-.86255-.266854-.225386-.53388-.450536-.801289-.675628-.326705-.275004-.653683-.54967-.981231-.824248-.843912-.707438-1.691058-1.413839-2.541986-2.119664-.475192-.39416-.951223-.78786-1.428431-1.18138-.171566-.141479-.343059-.282749-.514704-.423995-1.197216-.98519-2.401719-1.969176-3.613604-2.952038-.183306-.148665-.36668-.297222-.550222-.445754-.439574-.355724-.880177-.711351-1.321748-1.066831-.346744-.279141-.694025-.558143-1.041901-.837053-.255607-.204933-.511112-.409478-.766938-.613975-.30048-.240191-.601689-.480542-.903341-.720826-.38293-.305026-.766375-.609785-1.150534-.914436-.208774-.165565-.417348-.330772-.626132-.495947-.427721-.338384-.856703-.676931-1.286567-1.015345-.327286-.257657-.654397-.514698-.982018-.771661l-.262807-.206026c-1.44245 4.749853-3.423635 9.431785-5.913474 13.924898-3.894408 7.027769-8.840019 13.244948-14.507049 18.310241 8.1993 6.50367 16.03585 13.043716 23.509178 19.620486.096402.083367.191763.167349.287064.251337 3.752814 3.308638 7.414751 6.62597 10.984888 9.95252.64572.60054 1.288116 1.202222 1.927513 1.804205.382197.360908.764607.722052 1.145938 1.083305.195151.183824.389083.367843.582734.55189.746127.710143 1.488951 1.420478 2.227612 2.131229.595684.572211 1.188336 1.14536 1.778283 1.718778 1.897502 1.84522 3.767743 3.693017 5.609997 5.543599 2.12342 2.132275 4.209385 4.268761 6.258198 6.408929.346629.362731.692654.725396 1.037613 1.088166 2.061099 2.166937 4.083913 4.338033 6.068691 6.512878.737353.808455 1.469868 1.617378 2.197129 2.426818 9.05063 10.073069 17.287252 20.226423 24.711842 30.458039.163491.225414.32679.45103.489693.676684 3.526675 4.885111 6.867981 9.787554 10.024536 14.707615.154758.241253.309309.482885.463415.724559 2.892937 4.536797 5.628643 9.088131 8.207556 13.65427.238265.421868.475289.844031.710973 1.266321.446761.800489.888369 1.600812 1.325172 2.401586.173179.317484.345825.635449.517715.953485 1.509861 2.793612 2.961079 5.592261 4.353912 8.396324l-22.554048-.000251c-22.599798-41.329792-59.230412-81.792369-110.214874-121.112995l-.028149.012009c-.244689.089855-.489777.177698-.735245.263516l.245018-.087626c.172993-.061618.345788-.124253.518376-.187899l-.518376.187899c-.114995.04096-.230078.081471-.345248.121532-.526202.183723-1.05422.357147-1.583794.521125-.066978.020441-.133629.040939-.200305.061286-.18978.058132-.380176.114909-.570762.170461-.08166.02367-.162984.047153-.244343.070412-.192743.055183-.38583.109047-.579099.161648-.069606.018904-.139609.037789-.209636.056509-.234772.062775-.469336.123536-.704146.182428-.027804.006968-.055824.013969-.083848.020943-.247877.061689-.495857.121251-.74409.17872l-.087967.020275c-.047423.009694-.094399.020407-.141385.031044-.129643.029988-.259482.059053-.389442.087392-.034044.007483-.067684.014747-.101329.021973l-.192753.040963c-.049588.009385-.098911.019677-.148245.029887l-.038604.008998c-.096944.019964-.193922.039608-.290934.05893l.329538-.067928c-.246129.05194-.492853.100855-.739782.147684-.017472.002487-.034829.005659-.052171.008914l-.070015.012404-.314757.058849c-.125644.022676-.251342.04478-.377091.066319-.090146.01559-.180495.030733-.270867.045595-.114721.018814-.229095.037187-.343506.055101-.114377.017915-.229035.035398-.343728.052428l-.146844.021553c-.071852.009733-.143232.019922-.214609.029933l-.04021.006277c-.049975.006954-.099956.013821-.149944.020602l.190154-.026879c-.127492.018525-.255794.035925-.384136.052756-.096904.012133-.193166.024451-.28942.036445-.086662.011315-.173679.021876-.260712.032175-.134734.01549-.269397.030819-.404039.045512-.102518.011558-.205206.022372-.307914.032819-.040866.003843-.081539.007931-.122209.011961l-.288058.027803c-.12268.011302-.245386.022078-.368115.032327l-.14199.011621-.147734.011533-.147591.01109-.054125.002559-.059542.005646c-.037938.002682-.075914.005311-.113891.007891-.145429.00993-.290658.019083-.43584.027488-.073517.004116-.147213.008174-.220914.01204-.154866.008331-.309311.01562-.463693.022061l-.091978.003444-.05905.002586c-.10187.003885-.203711.0074-.305524.010545l.011768-.000731-.048819.001859-.018746.000178c-.027191.000798-.05438.00157-.081566.002315zm-224.188641-204.990017c-.005423.000061-.010754.000108-.016085.000156-.422025.003793-.844656.008996-1.267804.015605-.010985.000181-.021307.000343-.031629.000506-.346806.005464-.694594.011894-1.042738.019276-.248849.005282-.498094.011049-.747523.017305-.141191.003536-.282502.007235-.423874.011091-.251993.006879-.503997.014245-.756193.022111-.180999.005642-.362343.011552-.543787.017722-.230192.007829-.460177.016058-.690325.024703-.196836.007391-.394137.015102-.591558.023119-.182544.007415-.364894.015076-.547348.022999-.312589.013572-.625862.02793-.939443.04306-.087706.004232-.174732.00849-.261781.012806-.314915.015614-.630862.032046-.947128.049262-.12217.006651-.243881.01339-.365639.020245-.274879.015475-.550491.031573-.826349.048266-.162337.009824-.324122.019815-.485992.030011-.342918.021598-.686918.044165-1.031307.06766-.066728.004552-.132793.009093-.198873.013667-.430584.029808-.862433.061116-1.294905.093886-27.02392 2.047712-41.258665 17.772432-42.704235 47.174162 1.44557 38.931929 21.41918 59.332532 59.920831 61.201812.936643.045474 1.869028.068463 2.796844.071059.435405.001219.869785-.002053 1.303128-.009599.636119-.011074 1.270265-.03137 1.902069-.060198.303568-.013853.606171-.029651.908224-.047337.459855-.026923.918826-.058254 1.376479-.093701.16838-.013042.336449-.02663.504339-.040762.132639-.011164.265198-.02267.397643-.034508.18624-.016647.372371-.033962.558276-.051918.110353-.010659.220299-.02151.330164-.032582.124829-.012579.249978-.025487.375022-.038676.485613-.051223.969318-.106641 1.451392-.165961.21154-.026031.422324-.052756.63279-.080201.062802-.008189.125758-.016467.188685-.024809.236415-.031338.472313-.063561.707803-.096644.064997-.009132.129592-.018276.194156-.027484.194504-.027738.38928-.05614.583772-.085103.107273-.015976.213841-.032028.320323-.048246.477158-.072669.953104-.148743 1.427269-.22781.125598-.020943.251581-.042183.377437-.063628.089701-.015285.179059-.030626.268352-.046068.189564-.032783.378851-.066026.567844-.099705.474631-.084578.947993-.172017 1.419449-.261872.098275-.01873.196541-.037579.294722-.05653.211227-.040772.422179-.082037.632741-.123745.066186-.01311.132119-.026221.198014-.039375.098401-.019641.197089-.039453.29569-.059357.47912-.096718.955663-.195501 1.4301-.296089.196677-.041699.392736-.083653.58843-.12589.086892-.018754.174189-.037667.261413-.056635.143954-.031304.287404-.062689.430654-.09421.134872-.029678.269801-.059528.404552-.089492.19818-.044069.395563-.088289.592557-.132726.391964-.088414.783067-.177841 1.172591-.267909.060511-.013992.121244-.028059.181938-.042141 1.042031-.241772 2.072405-.487828 3.090799-.734078.650666-.157332 1.296462-.314748 1.937213-.47116.353688-.086338.705106-.17219 1.054964-.257556l.78788-.191989.782327-.189824c.05051-.01222.100986-.024423.151428-.03661.083424-.020155.166287-.040152.249056-.0601l.065236-.015717c.124922-.030087.249631-.060062.374126-.089918l.069088-.016561c.162756-.038998.325146-.077788.487165-.116351l-.050978.012138c.64693-.154093 1.287968-.304595 1.922929-.450265l.032498-.007453c.026754-.006133.053497-.012257.080229-.018372l.232703-.053075c.488117-.110989.972597-.218968 1.453357-.32337.157869-.034284.316304-.068389.474331-.102082.038657-.008243.07675-.016345.114818-.024424.275527-.058471.550119-.115739.823442-.171626.048334-.009884.097415-.019884.146456-.029839.261804-.053142.521826-.104877.780668-.155232.036548-.007111.073496-.014275.110419-.021411.331065-.063983.659671-.125587.986315-.184713l.110409-.019904.19153-.034137c.375315-.066403.748009-.129428 1.118037-.188766.224401-.035985.447407-.070551.669426-.103698l.069845-.010386.614988-.088783.021528-.001878.044472-.007122.120395-.015148c.068162-.009101.136228-.018056.204197-.026864.190484-.024682.379699-.048143.568151-.070406.098503-.011638.197144-.022987.295575-.033999.141964-.015883.283366-.031054.424327-.045508l.279032-.027723.170482-.01605c.016715-.00154.033424-.003069.050126-.004588.32811-.029839.653617-.055595.976612-.077032.093922-.006233.1877-.012106.281267-.017607l-.026059.001541c.028919-.001716.050866-.002998.0728-.004259l.334072-.01766c.095343-.004591.190463-.008783.285359-.012569l-.619431.030229c.417202-.023989.82986-.040551 1.238244-.049161l.026406-.001817.62155-.005094c.171644 0 .34726.005076.526796.015147.14202.007965.286604.019067.433617.03326.328204.031689.668414.078763 1.020441.140792.036064.006353.072729.012951.10952.01971.064078.011773.127949.023917.192197.036537.088787.017439.178676.035867.269286.055205.050345.010745.100914.021771.151706.033077.102611.022841.206046.046803.31038.071896.262136.063037.530593.133393.804644.210765.057454.016221.115208.032765.173207.049617.089499.026006.179421.052695.269922.080108.079193.023987.159217.04865.239687.07387.243434.076299.490451.157523.741465.243725.107395.03688.215953.074823.325243.113678.027159.009657.053349.019006.07958.028407.328701.11779.665167.244218 1.008114.378664.044635.017498.089477.035171.134429.052979.318414.126143.642589.259211.972184.398947.311968.132265.628565.270401.949919.414363.101126.045304.202607.091131.304555.137529.031715.014435.062553.028504.093434.042624.153479.070176.308844.142028.465261.215162.102785.048058.206602.096943.310876.146384.313419.148609.630699.30211.952022.460511.372591.183678.750233.373744 1.133183.570203.040755.020908.080876.041532.121055.062225.343114.176709.690984.358787 1.043008.545837.122372.065024.245219.130633.368564.196838.090748.048709.181886.097805.273294.147222.099296.053681.1987.107628.298418.161949.097391.053051.196155.107049.295224.161408.581181.318896 1.173287.650509 1.775541.994068.174074.0993.349704.200006.52618.301705.111217.064092.22297.128694.335058.193688.063379.03675.126389.07335.189505.110072.178057.103597.357924.208744.538628.314867.344343.202227.691162.407662 1.040951.616538.153311.091549.307126.18372.461506.276543.043496.026153.087291.05251.131131.07892.219889.132462.441509.266598.664258.402033.8762.532747 1.769382 1.085276 2.679142 1.656521.351262.22056.704899.443849 1.060955.669848.155935.098975.313675.199324.471882.300196.951611.60674 1.920244 1.232435 2.904836 1.875549.15629.102085.313657.205051.471425.308453.13626.089306.272637.178817.40931.26865.425034.279366.852873.561798 1.283503.847219.450629.298677.903942.60038 1.36022.905219.040958.027364.081428.054412.121922.081484.237913.159056.477667.319656.718218.481093.321064.215471.643864.432644.968056.651265.515779.347818 1.035201.699381 1.558033 1.05443.724403.491933 1.455441.990619 2.192712 1.495517.205685.140857.412718.282789.620233.425199.404453.27756.810638.556863 1.218603.8379.764497.526639 1.536115 1.059968 2.313662 1.59888.830754.575788 1.669127 1.158542 2.513868 1.74705.401764.279898.805378.561384 1.210392.844105.50467.352287 1.012126.706923 1.521673 1.06335 1.256244.878739 2.525373 1.768491 3.805922 2.667149.830119.582559 1.664719 1.168637 2.503761 1.757915.502006.35257 1.004841.705751 1.509186 1.059959.569182.399743 1.139685.800372 1.712 1.20214.585257.410854 1.172697.823103 1.761919 1.236368 2.080661 1.459325 4.183267 2.931143 6.303001 4.407858 1.248437.869725 2.502317 1.740802 3.761097 2.61199.458062.31702.916199.633657 1.374932.950232.328472.226681.656915.453099.985646.679458 1.155419.795604 2.314719 1.590698 3.476782 2.383846.306274.209042.612899.418058.919702.626917 1.043723.710521 2.089196 1.419011 3.136152 2.124805 1.820987 1.227599 3.646748 2.447228 5.473997 3.654095.547933.3619 1.095831.722543 1.643783 1.081914l.635399.414479.521482.336808c1.059451.681187 2.10808 1.336586 3.145773 1.967001.060325.036648.120307.073026.180252.109321l.929624.557941c.164915.098104.329548.195575.4939.292417l-.030654-.018067c.438194.258353.874516.512304 1.308866.761862.856593.492164 1.705612.967293 2.546951 1.425859l-.037073-.020215c.537665.293282 1.072123.579761 1.603461.859624.938572.494361 1.86761.968175 2.787011 1.422156l.01597.007884c.277927.137181.554973.27255.831141.406129l.587283.282003c.611363.29142 1.218393.574067 1.821117.84819l.653354.294575c.316885.141623.63257.28089.94706.417838l.146173.063522.288928.124798c.315327.135648.629447.268965.942362.399988l.06009.025137-.009977-.004169c.600683.251149 1.196926.493846 1.78876.728355l.642499.252052c.038694.015027.07737.03002.116026.044977l.595832.228363c.062659.023786.125269.04748.187828.071083.441433.166549.879996.328416 1.316073.485861.297976.107583.594495.212998.88986.316387.319843.111953.637874.221378.954561.328482.236414.079962.472549.15878.707933.236317.635645.20938 1.26581.409427 1.890549.600516.037975.011625.075651.023122.113308.034587l.561977.169129c.334306.099439.667044.19632.99822.290702.594005.169276 1.183191.330575 1.767388.484167.065404.017207.130002.034111.194539.050922.368988.096106.736603.189306 1.102225.279511.306727.075689.61292.149463.917708.221168l.616747.142726c.486395.110691.969178.216137 1.448373.316551.381931.080023.761678.156879 1.139158.230645.521004.101826 1.037989.197809 1.550682.288183.295474.052073.589114.102226.881339.150575.125931.020846.252475.041489.378752.061797.580418.093331 1.155047.179568 1.724108.259158.023282.003264.046581.006512.06987.00975.278889.038763.556308.075921.832396.111537.540685.06976 1.076654.133639 1.607551.191975.36303.039887.724286.077247 1.083177.112128.835709.081229 1.658708.149024 2.469056.204926.36976.025507.737279.048563 1.102176.069285.812384.04613 1.611158.080673 2.397139.105289l.446441.012963c1.761141 2.185607 3.888649 4.01295 6.372468 5.39016l.485197.260895c.729678.380277 1.475214.715012 2.234555 1.005183l.404344.149835c.012683.003695.024992.008107.037304.012508l.398744.138801c.730664.244732 1.473106.449575 2.225568.615367l-.023543-.005829-.040533-.008616.082898.018583c-.006275-.001376-.012549-.002756-.018822-.004138l-.064076-.014445c.300007.067225.6023.128185.906153.182946.286504.051668.57398.097741.862668.138356l-.12809-.018483c.107774.015826.21606.0309.324568.045211.760366.100339 1.529385.163036 2.305086.188921l.532989.01199c.624945.007302 1.253943-.00899 1.886109-.048453l.513175-.037061c1.189259 1.179631 2.53079 2.196147 4.021852 3.0229 1.223725.678522 2.502441 1.203873 3.822856 1.582572l.126896.035908c.371374.103664.745999.195791 1.123582.276524l.025883.005446.036971.007883c.654564.137646 1.317953.241136 1.988639.311217l.038394.003919.109608.010993c.635967.061703 1.278374.093512 1.925926.096062l-.023692-.000217c.037664.000183.075321.000273.112996.000264l.082702-.000056c.094068-.000381.188242-.001376.282518-.002983.018519-.000443.039544-.000831.060561-.001249.113553-.002122.226625-.005241.339835-.009235l.015275-.000686c.040782-.001471.081474-.003048.122167-.004737.788834-.032554 1.584734-.107623 2.384914-.22392-.026745.003881-.053822.007774-.080895.011618l.095892-.013803c-.004999.00073-.009998.001458-.014997.002185.013879-.002028.027421-.004009.040965-.006002l.01009-.001474.085937-.01494.046561-.005396c.014619-.002085.028952-.004293.043287-.006515l.16242-.025476.095733-.015701c.060776-.010198.121573-.020566.18239-.03114.250704-.04318.50248-.090776.754541-.142354l-.023468.004447c.041904-.008394.084158-.017081.1265-.025921.274571-.057176.549442-.119235.824551-.185965l-.011693.002425c.04504-.010802.090023-.021789.134994-.032918.088068-.021528.175624-.043673.2632-.066287l.117769-.03114c.029371-.007647.058798-.01541.088248-.023251.183339-.048537.366951-.099519.550612-.152548l.452295-.135235.022782-.006466c.039013-.012008.078027-.024107.117041-.036298.079711-.025425.165024-.052524.250344-.08005.210519-.067319.42129-.137952.63203-.211232l.104226-.037026.444869-.15992c.178991-.066158.357935-.134215.536806-.204159l.422904-.169716c.048989-.019945.098001-.040087.147006-.060371.085359-.035364.170737-.071143.256097-.107347l.120501-.050663.107601-.04709c.461627-.200043.922337-.412458 1.381804-.637115.082155-.040152.164499-.080827.246801-.121895.07806-.038967.155706-.078081.233312-.117542.051328-.026086.103-.052524.154653-.079116.448895-.231111.896236-.473767 1.341789-.727869.079698-.045446.159749-.091502.23974-.137927.508897-.295347 1.015567-.605755 1.519192-.930807.199308-.128638.398151-.259577.596478-.392791.044916-.03017.089961-.060561.134978-.091069.367626-.249138.733475-.506117 1.097282-.770801l.347501-.253673c5.083918-3.780106 9.750643-9.067954 13.335772-15.537605 3.373079-6.086989 5.351883-12.431799 5.999499-18.421177l.054405-.535007c.001493-.015678.002977-.031354.004452-.047027.004141-.044017.00821-.088015.012207-.131992.005104-.056205.010104-.112484.014985-.168729l.058615-.756028c.00314-.046018.006201-.092012.009181-.137981l.038265-.678493c.002272-.047411.004458-.094793.006558-.142146l.022564-.617479c.001685-.058704.003236-.117361.004654-.175971l.010386-.664455.000276-.492988-.005043-.432371c-.006583-.377758-.018856-.753229-.0368-1.126235-.038705-.804704-.103845-1.598265-.195223-2.378583l-.001957-.016676-.007292-.061511-.073103-.569943-.073747-.508117c-.065814-.429511-.139834-.85459-.222028-1.274929l-.007044-.035909c-.051908-.263791-.10704-.525709-.165387-.785678l-.113074-.484755-.002905-.011986c-.116363-.479616-.243868-.952296-.382465-1.417546l-.208155-.667576c-.120374-.369297-.247945-.733607-.382685-1.09267-.020783-.055383-.041667-.11046-.062721-.165412l-.170807-.433881c-.446875-1.105156-.963838-2.15749-1.550072-3.149046-.096284-.162848-.194221-.323712-.294015-.482909-.135636-.216383-.274908-.42999-.417611-.640418l-.031965-.046998-.267112-.382323c-.152214-.212726-.308079-.421999-.467585-.627722l-.208145-.263431-.014-.018-.008927-.010941c-.034443-.042754-.069062-.085364-.103853-.127823-.054585-.066614-.109468-.13271-.164749-.198406l-.027673-.032815-.305132-.352409c-.176768-.199287-.357379-.394639-.541822-.585948l.103688.108395c-.048536-.051139-.097297-.101951-.146308-.15246-.470563-.484931-.965704-.943504-1.485424-1.37416l-.31242-.253159-.01828-.014464c-.022358-.017668-.044759-.035286-.067204-.052853-.187324-.146614-.377791-.289789-.571294-.429368l-.401229-.281282c-.457334-.311508-.930893-.603494-1.42058-.875011-.382839-.212274-.771059-.409556-1.163981-.592311l-.055932-.025052-.145655-.433608c-.014856-.043161-.029799-.086261-.04483-.1293l.054605.163975-.071586-.21247c-.212916-.606401-.443153-1.200696-.690612-1.781977-.077937-.183069-.157443-.364535-.238673-.544738-.400196-.887825-.841566-1.743555-1.323817-2.564001l-.049507-.083798-.025617-.043169c-.563345-.945848-1.181484-1.844147-1.853841-2.689658l-.102564-.127889-.018529-.023094c-.255629-.316013-.518942-.624497-.789908-.925171l-.034435-.03801c-.034448-.038001-.068969-.075849-.103591-.11356-1.082961-1.180082-2.286046-2.237018-3.607129-3.153403l-.036191-.131062-.118336-.428874c-.043249-.151945-.087393-.303216-.132436-.45379l-.058572-.19375-.023454-.076452c-.11298-.366781-.231408-.729397-.355319-1.08743l-.011049-.031871c-.287898-.829059-.605185-1.633257-.952584-2.408289-.136339-.304148-.277063-.603294-.422452-.897705-.04339-.087871-.087528-.175973-.132088-.26364l-.029887-.058609-.23795-.453546-.155966-.285283c-.008108-.014593-.016228-.029173-.02436-.043739-.02244-.040181-.044977-.080273-.067609-.120259-.762848-1.347763-1.634707-2.57747-2.620512-3.660623l.050328.055565c-.047113-.05223-.0945-.104123-.142153-.155675-.347093-.375473-.708002-.732809-1.08305-1.070912l-.050023-.044906-.009932-.008872c-.375151-.334803-.764346-.650452-1.16779-.945733l.02691.019743c-.046685-.03433-.093618-.068425-.140766-.102261-.228166-.163735-.460512-.320801-.697385-.471205l-.273562-.16951c-.297094-.17959-.621224-.37399-.971489-.582654-.146098-.087035-.296123-.176183-.450592-.267754-.179277-.106277-.364449-.215763-.555472-.328429-.313429-.184863-.642485-.378216-.986903-.579899-.2232-.130697-.449371-.262863-.681619-.398315l-.314108-.183038.138186.080487c-.438718-.255624-.898567-.52267-1.378851-.800716-.110855-.064176-.22265-.128852-.335524-.194108-.187083-.108159-.374809-.216572-.565385-.326516l-.338171-.194972-.169442-.097606c-.371307-.213826-.753731-.433647-1.146081-.658769-.312091-.179071-.628735-.360508-.95124-.545057-.349956-.20026-.709693-.405828-1.076501-.615148-.176598-.100776-.353006-.201379-.531-.302823-.704417-.401468-1.435761-.81728-2.190875-1.245594l-.661058-.374717c-.186983-.105921-.375351-.212569-.565087-.319933-.313734-.177531-.629616-.35612-.949123-.536602-.137452-.077644-.276511-.156166-.416587-.235233-.729231-.411621-1.477004-.832915-2.242285-1.263263l-.186419-.104815c-1.045629-.587826-2.125809-1.193603-3.23607-1.814719-.132748-.074264-.264524-.147963-.396716-.221874-1.544606-.863616-3.146244-1.756271-4.798877-2.674317-1.366721-.759214-2.769325-1.536356-4.203404-2.328803-.409466-.226271-.821287-.453666-1.235595-.682261-1.926047-1.062694-3.905931-2.151382-5.931526-3.261153-.557134-.305245-1.118134-.612302-1.682433-.920857-2.114574-1.156234-4.276623-2.33413-6.476242-3.527765-.70731-.383828-1.41787-.768936-2.132018-1.155494-.454634-.246085-.91082-.492812-1.368384-.74008-1.174932-.634937-2.359062-1.273501-3.55102-1.914872-1.602318-.862179-3.219303-1.729711-4.847342-2.600446-1.241742-.664129-2.490362-1.33036-3.744045-1.997626-.838994-.44655-1.680083-.893472-2.523027-1.340608l-.812879-.43095-.054954-.029116-.114919-.060882-1.322788-.700083-1.179325-.623065-.046368-.025308-.032499-.016322c-.022337-.01179-.044674-.02358-.067012-.035369l.145879.076999c-.654032-.345253-1.308919-.690475-1.964385-1.035506l-1.552484-.816283c-.336586-.176771-.673286-.353468-1.010073-.530076l-1.900058-.994925-.472128-.246767c-1.90113-.993293-3.803134-1.982593-5.701429-2.96513l-.251054-.129915-.373995-.193428c-3.421999-1.769263-6.830295-3.515538-10.197997-5.222572l-1.877426-.949677c-.5736-.289543-1.145478-.577653-1.715888-.864446l-1.045626-.525071c-.853128-.427867-1.702764-.852656-2.548454-1.274091l-.093899-.046787-.495128-.246519c-.294173-.146371-.587854-.292326-.881023-.437854l.161904.080386c-.60644-.301165-1.209773-.600053-1.810771-.897029l-.790894-.390368c-.888477-.438035-1.771654-.871763-2.648977-1.30085l-1.046088-.510775-.312792-.152392c-.032289-.015723-.064569-.03144-.096841-.047149l-.230781-.112301c-.17232-.08382-.344368-.167436-.516161-.250856-.619023-.300584-1.233312-.597929-1.844198-.892657l-.893375-.430317c-.807744-.388433-1.60954-.772248-2.404822-1.151115-.813052-.387332-1.61897-.769341-2.41742-1.145801-.23332-.110009-.465808-.219451-.697649-.328414-2.544684-1.195978-5.011056-2.334015-7.382723-3.404189l-.026187-.011815c-.073557-.033185-.147362-.066459-.221075-.099666l-.048288-.021749c-1.176188-.529692-2.328758-1.042478-3.455674-1.537128-.249962-.109718-.497654-.218104-.744072-.325591-.598489-.261059-1.188481-.516396-1.770671-.766264-3.080823-1.322243-6.135387-2.600874-9.168373-3.833137l-2.026888-.817831c-.157229-.062999-.31465-.125967-.472096-.188839-.908367-.362724-1.814175-.720909-2.718278-1.074767l-1.489694-.579722-1.577692-.606539c-1.776786-.67873-3.547498-1.340281-5.313111-1.984077l-.177115-.064529-.095825-.034867c-2.269957-.825585-4.531565-1.62176-6.786899-2.387303l-1.57169-.528845c-10.247764-3.417712-20.37566-6.195555-30.579079-8.218601l-1.089009-.213078c-.083606-.016133-.167217-.032216-.250833-.048248-.779224-.150101-1.559218-.295096-2.339789-.435613-.028601-.004511-.056933-.009606-.085265-.014695-.274581-.049948-.549537-.09876-.82457-.147014-.170296-.029279-.339999-.058841-.509732-.088191-.298649-.052217-.597976-.103288-.897401-.153695-.068834-.011036-.137496-.022561-.206163-.034052-.213154-.036208-.426461-.07155-.639821-.106553-.341911-.055578-.683623-.11076-1.025475-.165071-1.010013-.160925-2.021728-.313822-3.034851-.458998-.228773-.032388-.457386-.06475-.686073-.096718-.221971-.031404-.443989-.062052-.666079-.092328-.061535-.008027-.123194-.016405-.184859-.024754-.349094-.047615-.698331-.093946-1.047754-.139351-.089021-.011238-.177657-.022697-.266306-.034096-.271874-.03528-.544219-.069718-.816681-.103592-.160398-.019639-.320731-.039376-.481106-.058918-.28381-.034869-.567773-.068834-.85187-.102185-.075087-.00854-.149774-.017266-.22447-.025949-.327588-.038343-.655888-.075657-.984373-.112147-.093261-.010112-.185932-.02034-.278617-.030503-.27741-.030657-.555503-.060539-.833734-.089828-.149657-.01553-.299313-.031112-.44901-.046521-.259742-.026951-.519267-.053132-.778917-.078795-.125447-.012198-.251136-.024499-.376855-.036679-.215155-.021037-.430399-.041522-.645731-.06165-.83141-.077542-1.663759-.14992-2.497522-.216923-.172214-.013983-.344305-.027576-.516457-.04094-.152566-.011707-.305128-.023368-.457738-.03485-.220224-.016698-.440807-.032906-.661492-.048737-.256989-.018314-.513589-.036204-.770331-.053583-.163492-.011179-.327533-.022068-.491632-.032749-.147481-.009492-.294469-.018889-.441504-.028119-.273197-.017249-.54722-.033854-.821412-.049874-.107172-.006169-.213481-.012292-.319815-.018327-.344155-.01962-.689491-.038274-1.035103-.055999-.036395-.001787-.072046-.003605-.1077-.005414-.294459-.015014-.589833-.029306-.885413-.042917-.202385-.00925-.404358-.01823-.606428-.026891-.20124-.008689-.402944-.017011-.604747-.025016-.220921-.008704-.441908-.017086-.663014-.025085-.232011-.008447-.463923-.016411-.695969-.023954-.11487-.003685-.229589-.007311-.344341-.010834-.267984-.008273-.536569-.015949-.805337-.023059-.202284-.005311-.404274-.010333-.606368-.015037-.098374-.002327-.197014-.004545-.295679-.006687-.702975-.01523-1.407119-.026626-2.112593-.034119-.178813-.001924-.357395-.003569-.536064-.004964l-.64235-.003913-.029974-.000152c-.840899-.003603-1.683727-.00166-2.52858.005885zm-63.332709-66.725868c-34.790322 16.766487-59.450024 58.688614-59.450024 107.75197 0 63.823937 41.729244 115.56346 93.204876 115.56346 15.292216 0 29.724269-4.566252 42.457448-12.659219-1.451045.616771-2.916767 1.186725-4.396005 1.708976-.084986.029325-.169718.059075-.254494.088669-.168186.05936-.336925.11757-.505836.17516-.079765.02658-.159146.0535-.238564.080284-.191449.065153-.383432.12901-.575633.192068-.060104.019167-.120087.038765-.18009.058286-.181189.059475-.362792.117766-.544586.175343-.103245.032203-.206222.064576-.309259.096719-.142326.044871-.285058.088913-.427906.132514-.122441.036929-.244771.073928-.367184.110604-.143291.043349-.286742.085842-.430307.127891-.087481.025228-.175064.050709-.262689.076025-.436091.126349-.873047.248179-1.311021.365908-.037615.0098-.075268.019891-.11293.029952-.353641.094759-.708.186552-1.063007.275659-.404449.10128-.809869.199359-1.216108.293932-.100625.023626-.201236.046818-.301897.069795-.151033.034287-.302095.068264-.453268.101757-.13375.029806-.267758.059091-.401851.087997-.145094.031118-.290688.062038-.436382.092508-.119422.02512-.238048.049613-.35674.073808-.144225.029267-.289315.058384-.434502.087057-.14743.029236-.294688.057836-.442046.085978-.106801.020283-.21316.040349-.319571.060176-.143532.026848-.287849.053279-.432261.079272-.155357.027869-.310247.055226-.465242.082078-.115628.020115-.231686.039926-.347803.059453-.12062.020209-.241257.040182-.361957.05985-.425742.069433-.851942.13494-1.278899.196627-.16991.024503-.340641.048547-.511492.071979-.100057.013764-.199786.027227-.299555.040481-.270976.035964-.542389.070446-.814093.103385-.076144.009259-.151413.018261-.226705.027145-.1898.022371-.380353.044083-.571046.065037-.085583.009425-.171202.018676-.256849.027774-.215532.022877-.431427.044823-.647497.065795-.043087.004197-.085712.008295-.128344.012355-.209806.01997-.420181.039072-.630717.05725-.131589.011371-.263255.022373-.394983.033013-.130533.010534-.26093.020708-.391387.030528-.137478.010355-.27519.020321-.412969.029892-.172553.011982-.345256.023353-.518063.034102-.079742.004965-.159419.009788-.239118.014478-.203539.011977-.407216.023096-.611033.033351-.086146.004337-.172461.008524-.258802.012556-.179401.008377-.358732.01608-.538167.023114-.099788.003913-.200117.007637-.300479.011151-.238695.008355-.476915.015512-.715314.02149-.028523.000715-.057208.001418-.085894.002103-.247163.005901-.494424.010535-.741871.013898-.044193.000601-.088542.001163-.132896.001684l-.424532.003741-.424778.001247c-.342421 0-.684496-.002431-1.026213-.007284-.06563.006906-.136605.007284-.20761.007284h-12.160889c-11.685763 0-22.967993-2.83108-33.384996-8.142529-9.506042-4.846967-18.118992-11.673095-25.5087-19.994403-17.330031-19.514781-26.963643-45.943795-26.963643-74.058596 0-21.544871 5.668291-42.156765 16.269409-59.557717 8.062982-13.234788 18.665827-24.168485 31.173029-31.69868 3.114311-1.87503 6.680768-2.8658 10.315966-2.8658h17.883596c.269583 0 .539137.005451.808499.016349l55.13795 2.230771c.24208.009794.483663.023973.724637.042498.067003.00515.133898.010632.200743.016448.257919.022448.514736.049831.770682.082136.059279.007481.118548.015232.17777.023247.029809.004035.059523.008124.089224.01228.278124.038914.55529.083674.831191.134202.066184.012123.131536.024431.196814.037063.093663.018122.187643.037007.281462.056563.02236.004661.044729.009364.067088.014104.223578.047405.446099.098586.667607.15354.293632.072841.585832.152417.87602.238564.073359.021777.146898.044069.220304.066783.527069.163102 1.04695.347847 1.558611.553879.069805.028109.139362.056575.208764.085435.547716.227765 1.085673.480046 1.612235.7563.031032.01628.062231.032752.093389.04931.477975.254.946199.527679 1.403645.820741.207543.132957.413126.270083.616367.411171.382918.265816.763797.534892 1.142615.80719.457991.32921.912852.663043 1.364669 1.001521.143703.107657.286854.215598.429696.324004.079804.060566.15961.121352.23932.182283.154907.118415.309384.237328.463496.356789.375176.290822.748154.58486 1.118943.882103.348693.279527.695654.562057 1.040659.847392.014967.012378.030572.025293.046172.038213.198853.164692.396115.329525.592729.495275.15422.13001.308405.260895.462189.392345.078014.066685.155925.133515.233732.200489.146924.12647.293368.25336.439442.380764.08391.073186.167511.146377.250991.219737.103934.091334.208006.183219.311888.275365.145995.129503.291478.259401.436584.389813.071074.063877.141808.127651.212451.191547.136612.123562.27318.247849.409409.372592.103516.094789.206539.189566.309366.284604.123407.11406.246396.228368.369104.343049.112384.105032.224806.210636.33699.316553.106024.100102.211619.200278.317001.300731.115668.110258.231115.220884.346305.331844.115882.111625.231842.223916.34754.336546.084012.081785.167377.163249.250605.244889.139266.136607.278561.274115.417469.412114.063468.063054.12659.125945.189632.188938.140151.14004.280521.281204.420488.422872.089162.090245.178084.180616.266843.271192.13486.137618.269624.275994.404007.41484.076827.079377.15366.159043.230368.238863.146583.152529.292614.305517.438189.459061.067979.0717.136025.143698.20397.215818.120721.128137.240936.256455.360834.385154.086826.093197.173837.186975.260682.280954.117529.127185.234885.254883.351931.382947.085398.093436.17082.187275.256077.28131.137505.151661.274771.304045.411604.456935.080664.09013.161293.180565.24177.271177.099533.112066.198824.224391.297883.336983.322963.367082.643687.73728.961918 1.110294.099475.116599.198715.233483.297711.350641.09131.108062.182264.216181.27301.324532.134634.160749.269093.322349.403092.484459.050989.061686.101646.123123.152237.184632.313997.381764.625709.766653.934849 1.154308.08245.10339.16471.206969.246787.310744.10866.137384.217339.275546.325693.414052.101823.130158.203092.260274.304075.39069.048814.063041.097936.126639.146991.190309.128283.166503.255951.333294.383154.500568.103823.13653.207342.273387.31055.410565.093409.124152.186632.248659.2796.373427.038941.052262.077798.104517.116611.156817.148482.200079.296528.401128.443915.602842.274887.376215.547204.754359.817212 1.134782.089852.126594.179502.253518.268896.380693.243169.345944.484443.693752.723804 1.043398.290184.42388.577786.850806.862551 1.280396-9.514368-21.049264-24.188493-38.029201-41.898173-48.306426zm19.608744 40.200382c-9.863651 5.938595-18.130224 14.663801-24.409051 24.970031-8.519467 13.984075-13.349353 30.938003-13.349353 49.152165 0 23.636527 8.104932 45.22382 21.918084 60.778359 11.245036 12.662666 26.479537 21.417169 43.939254 21.417169l.654168-.0041c.359919-.004514.718876-.012746 1.076857-.024653l.720679-.028987c.02607-.00123.052134-.002479.078194-.003749l.609615-.03329c.09107-.005512.182074-.011261.273012-.017247l.659899-.04768c.005995-.000472.011989-.000945.017984-.001418.500218-.039531.998946-.086285 1.495602-.140099.06763-.007328.134873-.014748.202079-.022298.757437-.085085 1.51004-.186591 2.25764-.304083.02643-.004155.052099-.008209.077762-.012282l.658117-.108795c.039974-.006872.079932-.01379.119876-.020753l.693188-.12569c.574666-.108222 1.146254-.225889 1.714689-.352798l.636698-.146317c.013335-.003152.026668-.006308.039999-.009471-20.796973-2.149678-37.808146-9.408716-50.30206-22.169723-13.804101-14.099203-20.865228-33.658989-21.75971-57.749084-.021336-.574628-.013773-1.149909.010357-1.724239.933555-18.987772 6.375346-34.648726 16.908964-46.284917 10.815994-11.948123 25.936827-18.461518 44.259993-19.849938 12.557183-.951508 24.848744-.802394 37.128689.420234l-.714641-.636245c-.327894-.287762-.658223-.572197-.990967-.853245l-.692498-.577142c-.325346-.267528-.652942-.531844-.98277-.792895l-.632287-.494318c-.048422-.03739-.09689-.07471-.145405-.11196l-.711322-.538602c-.348305-.260061-.698972-.516537-1.05198-.769367l-.782522-.551802zm-257.950104-595.9140031c72.020195 6.5099528 144.654993 28.8006747 214.22809 64.5379756 21.02689 10.9612992 40.304068 22.2315615 57.805738 34.0716765.135664.081178.266816.169175.396592.259067 33.625637 22.445015 61.151357 46.857285 83.372201 74.732633 25.475674 32.239457 38.436362 66.919366 33.870144 100.047459-4.694446 37.471032-29.152484 71.783541-65.880892 98.166746-47.876891 34.19468-107.10075 55.962111-174.128236 66.276495-4.303442.491459-8.580453 1.037001-14.785438 1.869159-.958213.128507-1.708322.229519-3.457637.465402-24.213181 3.264983-35.033909 4.328779-48.63755 4.192592-15.146096.557442-30.915963-.647948-49.003291-3.451615-41.748782-4.079251-82.339171-16.136266-119.02806-35.457942-34.588773-17.528801-64.1964598-40.118426-86.9881024-67.237912-26.7753924-29.63053-46.0493353-66.781376-56.2892053-107.416499-7.70725051-27.711869-8.79824223-58.056291-4.75815141-93.985547 7.17833401-45.527701 29.49790401-85.3029852 63.29212191-107.3760559 27.9012782-16.8371387 61.4399952-26.215986 102.1602242-30.4337582 19.816608-1.1313826 39.840772-.791926 67.831452.740124zm46.905612 149.4100901-55.385881.050093c-8.817457 2.050652-16.542828 8.69173-18.888646 16.814442-6.034576 28.792644-10.59961 54.072678-13.940069 78.17071l-.00784.056161c-.476262 3.436168-.927476 6.848283-1.354508 10.243159-.534796 7.708811 5.056321 14.548035 12.962041 16.716236 19.690932-.242042 39.070308-.480841 58.156454-.709311 5.388559-2.659373 10.250714-6.958754 13.273394-11.867065 4.204153-11.433172 6.666605-21.778874 7.196819-31.666964-9.172079.242603-17.202385.454834-24.806845.596308-1.165816 6.576048-2.332991 13.163217-3.575221 19.8235-3.104294.002475-5.589607.052523-11.191733.201357-.973262.025857-1.408579.037336-1.95068.051314-10.815931.278887-16.896687.204586-23.535097-.512331l-.066414-.082333c1.022025-9.636623 2.210697-17.331943 5.143587-34.504641.258945-1.516181.365513-2.140565.504814-2.958424.655786-3.850232 1.12721-6.663145 1.579429-9.445386.692582-2.657357 1.071941-4.924925 1.78189-10.062606.02889-.209079.02889-.209079.057806-.418184 1.198814-8.665839 2.12188-12.620917 4.450864-16.624807 6.467716-.747397 12.136881-.885458 23.131108-.783257.532683.004995.532683.004995 1.065348.010074 5.783429.05515 8.351411.061489 11.556579.001286l.075831.083012c-.96936 8.846778-1.78552 14.844134-2.936672 20.841349l25.334233.062536c.233506-1.424395.423206-2.56532.850812-5.125095.841937-5.040079 1.209313-7.279597 1.643755-10.081649.053052-.378962.261632-1.846396.309951-2.190527.445537-3.173137.683102-5.290013.79355-7.47559.449952-8.90381-1.772915-14.670253-8.173955-17.279312zm145.017278 1.609472c-1.132105 6.12306-2.237818 12.168008-3.349489 18.318549l-3.670642 20.540093c-3.298029 18.660939-6.922175 39.696749-11.603894 67.176925-.575971 3.380766-.9856 5.786758-2.09441 12.300735-.089315.524702-.093494.549252-.175035 1.028276 4.507848.875123 8.612616 1.05056 16.290891.946811.275521-.003723.495695-.006806.991393-.013831 3.999834-.056682 5.772416-.062843 7.90355.063961 2.320592-14.676752 4.669762-27.992916 7.290287-40.749027 3.417858-.021901 6.152466-.019787 12.305824-.000303.595459.001885.595459.001885 1.190913.003735 12.610257.038797 19.102142-.026646 26.562817-.366516 9.999199.344769 19.15669-4.634526 23.277631-13.129985 2.767804-7.339239 4.257676-14.226702 6.268114-27.009068.085805-.545548.144159-.918154.311908-1.9906.748965-4.788238 1.106335-6.989794 1.586685-9.660873.055783-.514389.119776-1.063762.203144-1.751213.045022-.371249.204805-1.669224.225593-1.839359.349474-2.860214.531646-4.673106.628598-6.580095.458112-9.010821-1.673344-14.66846-8.026861-17.173596-8.567178-1.406369-16.709078-1.811386-30.40951-1.84421-.973369-.002332-1.751931-.003207-3.504078-.004433-7.269139-.005088-10.494103-.030957-14.501163-.152249-2.692743.285003-5.013185.263159-10.426324.026275-.30471-.013333-.30471-.013333-.60946-.026575-8.826547-.382261-12.946214-.074254-16.666482 1.886573zm-254.997312-1.558325c-4.074773.02153-7.334687.027603-14.669542.032903-.4951.000357-.4951.000357-.990198.000722-15.199971.011299-22.731729.061676-31.569803.266745-14.564537-1.414127-27.235397 4.228463-29.983507 16.084651-7.0675654 31.24717-12.3063767 60.696814-15.6921323 89.19455-.9807755 7.714155 4.8299799 13.975381 13.3963343 16.277096 4.560682-.023136 8.209489-.020783 16.41966.000156.644023.001643.644023.001643 1.288043.003265 16.295151.040797 24.522739-.016383 34.081186-.330032 11.60451.590831 22.264736-5.72567 24.453562-15.950595.27371-1.027359.541267-2.047507.803288-3.064243l3.357081-14.162046c.497872-2.279595.988857-4.634848 1.482483-7.102759l1.54504-7.992391c1.370743-7.332265 2.824785-15.729399 4.529301-25.937128.137283-.82214.234341-1.403952.499272-2.992553 1.528623-9.166043 2.233723-13.337523 3.135864-18.471188 2.574761-11.183448.648113-20.569835-7.383524-23.712163zm147.306261-.113824c-7.353457 44.551508-14.235864 84.176674-21.251148 121.969738 2.195686-.01898 3.991544-.016844 7.965399.00064.489603.002154.489603.002154.9792.004244 7.757671.032614 11.89826-.021717 16.487354-.232559.752148-4.375684 1.385797-7.871311 2.83493-15.729892.003534-.019169.003534-.019169.007069-.038338 2.16537-11.742704 3.097776-17.000437 4.188251-23.632924 6.537527-.940008 11.813015-1.119597 23.721505-1.094643.533228.001117.533228.001117 1.06645.002132 7.656612.013831 11.796147-.068354 16.420638-.419953 8.694017.702589 17.236392-4.314142 22.023449-12.379182 2.93595-7.347771 4.595432-14.489119 6.704974-27.02004.130877-.777424.215261-1.282682.475626-2.845137.709961-4.260489 1.056466-6.280499 1.503779-8.68926.060296-.415061.124999-.848477.211562-1.419841.014513-.095791.17476-1.149916.222308-1.464989.453247-3.003376.696867-4.920401.843525-6.928579.641855-8.788886-1.305603-14.575325-7.376568-17.755946l-3.67277-2.254657c-24.535091-.002109-49.01106-.00482-73.355533-.070814zm-161.66047 23.129559c1.029204.311662 1.412579 1.125578 1.071672 2.582484-.94344 5.953072-1.347084 8.494561-1.867637 11.750547-4.217031 26.376945-7.293273 43.749523-11.138057 61.408582l-30.636038-.001785c-.922567-.205184-1.855008-.181663-4.094329.012927-3.812657.331309-5.205458.176497-5.835344-1.222441 2.60756-19.323386 5.340295-35.041636 11.721455-69.127705.306566-1.637517.453969-2.424925.614769-3.28213l.66994-2.088043 32.38457.003529c.735628.234241 1.549528.207347 3.540855-.015643 1.990971-.222951 2.804533-.251559 3.568144-.020322zm146.716918 63.252449-2.147686 11.972426c.714973-3.88904 1.429169-7.866928 2.147686-11.972426zm180.540957-61.51932c.683747 1.733097.349509 4.452469-.840495 7.808441-.845511 2.203324-1.196489 4.349263-1.72388 9.373628-.03438.327614-.03438.327614-.068939.655448-1.004568 9.505293-2.452753 13.367261-7.241108 14.929257-1.158752.060564-1.983366.107516-4.24117.239182-4.033439.235212-5.973729.335724-8.295308.412982-7.76915.258544-13.752769-.097068-19.327688-1.376901l-.057449-.08296c1.439768-10.696214 3.198951-21.421941 5.287256-32.182671l.385165-.395147c5.342112-1.041223 10.145887-1.241776 19.268071-1.105481.299522.004475.538859.008153 1.077664.016511 4.750938.073695 6.855991.083045 9.458743.009573 3.446917-.924301 5.5333-.29373 6.319138 1.698138zm-108.274348 7.484685c-.701176 2.355544-1.054027 4.479817-1.672457 9.332236-.034025.267-.034025.267-.068121.534086-1.096902 8.583821-2.128908 12.369971-5.027441 15.401083-16.816898.888165-25.105988.924214-34.697761-.362408l-.064068-.085441c.843206-5.555227 1.611475-10.007093 3.392772-19.926756.00399-.022215.00399-.022215.007979-.044431 1.229934-6.849234 1.76702-9.896046 2.473028-13.772154 5.181364-.172933 10.266043-.161237 17.924792-.015212.966049.018419 1.739707.033994 3.477267.069593 4.403073.09021 6.358305.125819 8.784919.155594 6.425223-1.499875 8.23124 1.894385 5.469091 8.71381zm-59.750419-18.441914-4.063117 24.027721c1.328188-7.720177 2.676768-15.686971 4.063117-24.027721zm245.212235-20.837504 5.167151 5.210219c-1.602801-1.800978-3.357003-3.519666-5.167151-5.210219zm-16.28726-14.648549 6.308068 5.58844c-1.966195-1.927143-4.097343-3.775235-6.308068-5.58844zm-17.085998-13.677703 6.038034 4.752667c-1.888069-1.635188-3.925928-3.207951-6.038034-4.752667zm-17.855846-12.848624 4.417235 3.120671c-1.384329-1.071063-2.87735-2.103365-4.417235-3.120671z"/></svg>