<svg height="960" viewBox="0 0 960 960" width="960" xmlns="http://www.w3.org/2000/svg"><path d="m92.0593168 49.1350109c2.7975307-30.3762776 29.4622942-52.99946362 59.9934462-50.68613987l639.059685 48.42109857c29.20303 2.2126929 51.769048 26.553204 51.769048 55.8399414v731.928113c0 28.559819-21.492222 52.544043-49.881035 55.664695l-617.520825 67.881237c-4.111832.451995-8.268895.26344-12.322924-.558941l-26.46803-5.369174c-26.104697-5.295471-44.8668715-28.24579-44.8668715-54.882178v-843.0848507c0-1.411831.0533911-2.823157.1600588-4.2309527zm56.6571372-10.8212291c-8.679062-.4893666-16.189234 6.0597839-16.848912 14.7661869-.030477.4022273-.045731.8054633-.045731 1.2088436v843.4353377c.165438 7.460477 5.475367 13.84042 12.819106 15.330135l17.469165 3.544837c-.553127-2.006524-.872017-4.110924-.925191-6.282249l-.007039-.429906-7.155847-864.9942409c0-.7187107.021727-1.3980656.073324-2.0836362.104147-1.3838034.314801-2.7341265.623326-4.0435437l-5.688001-.4310028zm25.322472 5.9962936c-.007232.0960894-.012342.2125168-.015047.3286122l-.002217.1713103 7.155505 864.9115181c.02679 3.238358 2.614312 5.856483 5.901686 5.94811l.308299.000979.194179-.010911.247628-.023341 604.974621-66.131718c5.953419-2.369622 10.077916-8.179073 10.077916-14.866611v-732.25767c-.169998-8.2199992-6.55722-15.0008325-14.791157-15.6247121l-612.160357-46.3834038c-1.064599.9922657-1.773224 2.3721938-1.891056 3.9378373zm169.893821 138.8908536c.653853.006694 1.307605.022003 1.961038.047026l317.631775 12.163423c35.442147 1.357226 63.47444 30.483536 63.47444 65.951661v406.690581c0 34.738269-26.92756 63.530243-61.588128 65.852376l-314.856666 21.094263c-36.369263 2.436609-67.827638-25.071241-70.264248-61.440504-.08911-1.330072-.137903-2.662538-.146311-3.995565l-2.776449-439.948267c-.228579-36.450069 29.133653-66.185074 65.583721-66.414994zm-.854674 19.998687-.76064.011876c-25.051183.564242-45.106937 21.12773-44.949227 46.278277l2.776043 439.948267c.00586.92908.039868 1.857768.101975 2.784788 1.698243 25.348274 23.623777 44.520412 48.972051 42.822169l314.856666-21.094262c24.157366-1.618457 42.925059-21.68559 42.925059-45.897111v-406.690581c0-24.720208-19.537659-45.020364-44.239762-45.966309l-317.631774-12.163423c-.683135-.02616-1.366769-.033691-2.050391-.033691zm195.413357 356.596357c1.918542 1.87155 2.011943 4.908705.2527 6.893088l-.165036.177437-21 21.527273c-.819106.839673-1.905312 1.362693-3.066928 1.482274l-.250002.019418-1 .052505c-1.272333.066804-2.51877-.354634-3.487472-1.17246l-.189962-.168823-21-19.639605c-2.016855-1.886202-2.122771-5.050255-.236569-7.06711 1.830725-1.957535 4.865239-2.114887 6.886236-.39783l.180873.161262 17.91973 16.758598 18.085906-18.538363c1.928264-1.976679 5.093845-2.015927 7.070524-.087664zm-79.666129-48.327564c.37249.042392 1.86245 1.559239 4.46988 4.546276-2.60743 3.128172-4.09739 4.725639-4.46988 4.788184l-30.650602.877992c-.37249-.041786-1.86245-1.573-4.46988-4.597931 2.60743-3.165216 4.09739-4.77662 4.46988-4.838456zm64.174699-35.307586c.277778-.003769 1.944444 1.500753 5 4.508493v38.137846c-.277778.008037-3.611111-2.950338-10-8.896327v-29.089105c0-.255168 1.666667-1.810461 5-4.660907zm74.825301 31.732695c.209526.022287.772626.487667 1.6893 1.395402l.318654.31896c.663498.670685 1.48414 1.537934 2.461926 2.60153-2.60743 2.980585-4.09739 4.503049-4.46988 4.563278l-30.650602.895518c-.37249-.039029-1.86245-1.493065-4.46988-4.366293 2.60743-3.016707 4.09739-4.552759 4.46988-4.612295zm-52.39673-1.054947c1.134921-.028295 2.992064 1.464407 5.571429 4.473786v.307517c-2.579365 3.146969-4.436508 4.738697-5.571429 4.770996l-1.857142.052596c-1.134921.032192-2.992064-1.458517-5.571429-4.476452v-.308962c2.579365-3.15528 4.436508-4.744916 5.571429-4.773194zm-123.639414-31.002709c3.139558 2.533059 4.735943 3.980652 4.789156 4.347097v30.213472c-.053213.368492-1.649598 1.877487-4.789156 4.531218-3.139559-2.495502-4.735944-3.928961-4.789157-4.29607v-30.31579c.053213-.36915 1.649598-1.863866 4.789157-4.479927zm182.421686-2.066439c3.139559 2.36571 4.735944 3.718022 4.789157 4.061115v28.297793c-.053213.345264-1.649598 1.762677-4.789157 4.256335-3.139558-2.329364-4.735943-3.667997-4.789156-4.011733v-28.39682c.053213-.345901 1.649598-1.749492 4.789156-4.20669zm-145.066265-4.931657c1.330322 1.282052 2.713856 2.821281 4.150603 4.617217-1.436747 1.830221-2.820281 3.402439-4.150603 4.716185l-31.289156.421125c-1.330322-1.293616-2.713856-2.850219-4.150603-4.670285 1.436747-1.853574 2.820281-3.442472 4.150603-4.767166zm139-1.496054c1.330322 1.217469 2.713856 2.679453 4.150603 4.385491-1.436747 1.743158-2.820281 3.240859-4.150603 4.492646l-31.289156.450707c-1.330322-1.228756-2.713856-2.707695-4.150603-4.437279 1.436747-1.765926 2.820281-3.279888 4.150603-4.542347zm-70.144578-37.92964v38.13783c0 .254252-1.666667 1.798414-5 4.637463-.277778.003373-1.944444-1.50569-5-4.532283v-29.395306zm-62.789157 3.351972c3.139559 2.540303 4.735944 3.989113 4.789157 4.350736v29.751802c-.053213.362088-1.649598 1.824834-4.789157 4.392418-3.139558-2.503061-4.735943-3.93788-4.789156-4.300163v-29.853335c.053213-.36274 1.649598-1.811282 4.789156-4.341458zm95.578314.196194c3.139558 2.451992 4.735943 3.850561 4.789156 4.199938v28.748098c-.053213.349929-1.649598 1.765011-4.789156 4.249356-3.139559-2.415385-4.735944-3.800201-4.789157-4.150228v-28.847907c.053213-.350569 1.649598-1.751687 4.789157-4.199257zm6.385542-6.27505 30.650602.111919c.37249.050624 1.86245 1.534648 4.46988 4.447889-2.60743 2.903599-4.09739 4.382055-4.46988 4.43128l-30.650602-.012501c-.37249-.050095-1.86245-1.548403-4.46988-4.499134 2.60743-2.939203 4.09739-4.430984 4.46988-4.479453zm-139-.626375 30.650602.154854c.37249.053675 1.86245 1.615643 4.46988 4.681614-2.60743 3.049238-4.09739 4.601584-4.46988 4.652847l-30.650602-.052929c-.37249-.053129-1.86245-1.629729-4.46988-4.734112 2.60743-3.085764 4.09739-4.651783 4.46988-4.702274zm84.726735-77.371772.25076.001352 1 .030453c1.190299.036248 2.325635.495926 3.204189 1.291641l.184258.175622 21 21.060796c1.949797 1.955442 1.945221 5.121264-.010221 7.071061-1.896186 1.890712-4.930507 1.943704-6.890524.162172l-.180537-.172393-18.045359-18.097745-17.956777 17.187539c-1.936259 1.853214-4.97483 1.842378-6.897699.016101l-.171671-.171025c-1.853214-1.936259-1.842378-4.974831-.016101-6.897699l.171025-.171671 21-20.099316c.908142-.869193 2.107902-1.362278 3.358657-1.386888zm17.795356-103.034418c2.522706 3.762783 3.846988 7.62121 3.846988 11.525914 0 3.821803-1.270323 7.493992-3.694304 10.92752l-.274073.380516c-1.396656 1.903988-2.031623 3.67548-2.031623 5.41156 0 1.789386.673017 3.746546 2.144139 5.925811 1.545027 2.288745.942124 5.396631-1.346621 6.941658s-5.396631.942124-6.941658-1.346621c-2.528329-3.745372-3.85586-7.605884-3.85586-11.520848 0-3.826517 1.269762-7.505679 3.696109-10.947663l.274348-.381463c1.396235-1.900611 2.029543-3.6633 2.029543-5.39047 0-1.785785-.675167-3.752952-2.153012-5.957255-1.537743-2.293645-.924963-5.399599 1.368682-6.937342 2.293645-1.537742 5.399599-.924963 6.937342 1.368683zm-12.994033-.880248c2.519278 3.775165 3.841021 7.644179 3.841021 11.557813 0 3.824991-1.264207 7.50184-3.678155 10.942285l-.283628.39592c-1.400419 1.918085-2.038217 3.705813-2.038217 5.459793 0 1.807137.675581 3.780936 2.150171 5.975544 1.54008 2.292076.930467 5.398653-1.361609 6.938733-2.292076 1.540081-5.398653.930467-6.938734-1.361609-2.524862-3.757711-3.849828-7.628773-3.849828-11.552668 0-3.829726 1.263655-7.513552 3.679938-10.962432l.283911-.3969c1.400002-1.914697 2.036151-3.693601 2.036151-5.438666 0-1.803505-.677708-3.787294-2.15898-6.006997-1.532815-2.296941-.913369-5.401572 1.383571-6.934387 2.296941-1.532816 5.401572-.91337 6.934388 1.383571zm-12.994076-.883919c2.515871 3.787571 3.835097 7.667208 3.835097 11.589829 0 3.833475-1.261596 7.519851-3.672016 10.97129l-.283217.397195c-1.404162 1.932225-2.044767 3.736216-2.044767 5.508101 0 1.728847.60862 3.606294 1.929414 5.678217l.226744.347129c1.535148 2.295383.918855 5.400642-1.376528 6.935789-2.295383 1.535148-5.400642.918855-6.935789-1.376528-2.521418-3.770075-3.843841-7.651723-3.843841-11.584607 0-3.838238 1.261051-7.531607 3.673787-10.991475l.283498-.398175c1.403749-1.928823 2.042715-3.723969 2.042715-5.486936 0-1.821232-.680226-3.821668-2.164903-6.056807-1.527902-2.300212-.901821-5.403512 1.398392-6.931414 2.300212-1.527902 5.403512-.901821 6.931414 1.398392z"/></svg>