<svg height="960" viewBox="0 0 960 960" width="960" xmlns="http://www.w3.org/2000/svg"><path d="m960 236.765158c0-90.85346-73.888503-164.765158-164.713451-164.765158-59.355729 0-111.318048 31.67458-140.311941 78.903002-61.33599-31.146779-130.671194-48.818341-204.168856-48.818341-249.525961 0-451.805752 202.336775-451.805752 451.941068 0 115.7774 43.5592362 221.305033 115.11572 301.283185-6.442363-37.604197-.553691-84.461203 22.102062-121.439858 35.143126-57.373931 121.890299-172.271662 21.072848-226.570012 56.085692 12.44568 75.823165 54.14848 67.485223 104.700094-9.660288 58.677143-53.571282 119.028915-17.236091 177.158709 32.198789 51.496442 115.6173 54.878279 135.999661-7.180701 34.726228-84.304818-99.032611-135.98371-80.982268-6.933091-43.344273-39.298373-28.739846-94.241813 15.9854-113.066717 72.44239-30.501689 164.830703 41.363965 169.195095 121.544115 92.23849-70.106318-4.598897-123.955059-87.659136-170.492778-127.003803-71.181467-157.417751-194.875883-14.200559-270.318855-23.014024 21.750616-116.959187 135.032364 2.879196 175.933689-11.119428-122.977649 96.954639-268.631196 197.804661-281.878351-116.692113 43.494718-170.22431 197.567017-85.626762 296.721942 36.927966 43.299235 104.335021 77.08502 147.073491 113.646647 116.242645 99.474211 77.054315 188.93975 30.739649 240.866253 121.994523-90.899073 28.622594-220.112594-19.717931-272.996958-26.069099-30.143305-54.307366-56.618067-50.281703-98.242675 4.025663-34.046427 24.212604-64.320054 60.515224-75.664519-68.553522 35.929569 13.672924 119.687038 44.594965 149.367703 55.877244 53.666291 101.084527 94.893419 113.630525 172.147857 7.067709 43.527298-1.693645 79.854347-18.682203 112.389047 82.617286-81.887358 133.797923-195.442781 133.797923-320.974726 0-60.260547-11.888082-117.712671-33.280116-170.277747 53.695048-27.178497 90.675126-82.780059 90.675126-146.982824m-164.5 109.234842c-60.384301 0-109.5-49.115699-109.5-109.5 0-21.316331 6.215359-41.163695 16.791915-58.00784 19.390353-30.867875 53.646643-51.49216 92.708085-51.49216 60.377772 0 109.5 49.122228 109.5 109.5 0 42.306225-24.149803 79.004263-59.352761 97.232501-15.042213 7.788784-32.069162 12.267499-50.147239 12.267499"/></svg>