<svg height="960" viewBox="0 0 960 960" width="960" xmlns="http://www.w3.org/2000/svg"><path d="m291.421062 2.50828293c1.826118-.05894723 3.66195-.01610918 5.500732.12570924l412 31.77603403c26.566492 2.0489751 47.078206 24.2035975 47.078206 50.8489875v790.1302733c0 26.717591-20.61952 48.906605-47.26538 50.863077l-412 30.251087c-1.922065.141128-3.840585.174169-5.747632.094071-3.094551.649177-6.412016.553765-9.724312-.438109l-42.319121-12.672545c-20.738069-6.210056-34.943555-25.292644-34.943555-46.940562v-834.4424217c0-21.7861653 14.384205-40.9558759 35.301741-47.0463357l42.107133-12.2601346c3.421922-.99634477 6.843621-1.03999348 10.012188-.28913107zm-18.687092 61.34455797v831.2692581c0 12.190154 10.344788 21.818944 22.503652 20.946099l267.148378-19.178512 143.419506-10.529932c5.747147-.421984 10.194494-5.20785 10.194494-10.970467v-790.1302733c0-5.7470449-4.424095-10.5254929-10.154123-10.9674287l-245.685877-18.9498985-164.846997-12.4293961c-12.185541-.9188568-22.579033 8.7204153-22.579033 20.9405505zm-18.361867-11.5227187-3.88811 1.1325984c-3.841996 1.1186559-6.483993 4.6396231-6.483993 8.6411637v834.4424217c0 3.976148 2.609171 7.481114 6.418204 8.621736l3.862079 1.156868c-1.006625-3.555501-1.546313-7.312343-1.546313-11.202811v-831.2692581c0-4.0076929.572577-7.8732061 1.638133-11.5227187zm159.475709 133.1747838 194 10.312008c15.396355.818388 27.460688 13.541027 27.460688 28.959118v507.12504c0 15.304651-11.893201 27.974806-27.167259 28.942029l-194 12.284967c-16.703789 1.05776-30.832741-12.204782-30.832741-28.942029v-529.722015c0-16.621041 13.941703-29.841359 30.539312-28.959118zm-10.539312 28.959118v529.722015c0 5.194318 4.384847 9.310279 9.568781 8.982009l194-12.284967c4.740225-.300172 8.431219-4.232289 8.431219-8.982009l.000086-1.315744c-2.414148 2.001977-5.474331 3.26675-8.849575 3.428267l-169.001575 8.087288c-.155446.007439-.310454.012483-.464987.015166-.696938.153548-1.420875.234547-2.163731.234547h-12.828718c-5.522847 0-10-4.477152-10-10v-202.692834-197.632707c0-8.354381 6.825517-15.098792 15.179301-15.000023l169 2.021368c8.213748.098189 14.820699 6.784593 14.820699 14.998928v200.072505l4.308 81.605853.0005-390.947654c0-4.784925-3.744103-8.73333-8.522283-8.987313l-194-10.312007c-5.150982-.273799-9.477717 3.829058-9.477717 8.987312zm187.8045 322.348662-158.905 2.674 9.272914 182.398774 159.003148-7.60883zm-159.113-199.727502v182.401502l159-2.675v-177.825772zm-9.527974-121.25654 176.806993 8.355062c4.18992.197995 7.81098 2.989822 9.06822 6.991569 2.767086 8.807536 4.079018 20.50438 4.079018 35.265691 0 14.599686-1.288673 27.108234-3.921618 37.570915-1.131804 4.497512-5.207383 7.626659-9.844618 7.558497l-176.806993-2.598848c-5.464946-.080328-9.853028-4.533384-9.853028-9.99892v-73.155113c0-5.708168 4.77022-10.258294 10.472026-9.988853zm108.954231 49.981829c0 6.438023-.637198 14.664806-1.903737 24.739749l61.140734.900453c1.170904-7.18032 1.763003-15.527998 1.763003-25.009709 0-9.119203-.549879-16.69611-1.609706-22.634838l-61.314496-2.897923c1.28014 10.149026 1.924202 18.429661 1.924202 24.902268zm-90-1c0 6.346693-.652879 14.464215-1.950023 24.415862l69.919278 1.028609c1.357029-10.322984 2.030745-18.495322 2.030745-24.444471 0-6.218749-.736162-14.866751-2.219447-25.861147l-70.239597-3.318452c1.635293 11.687294 2.459044 21.050592 2.459044 28.179599z"/></svg>