<?xml version="1.0" encoding="utf-8"?>
<!-- Generator: Adobe Illustrator 21.0.0, SVG Export Plug-In . SVG Version: 6.00 Build 0)  -->
<svg version="1.1" id="Layer_1" xmlns="http://www.w3.org/2000/svg" xmlns:xlink="http://www.w3.org/1999/xlink" x="0px" y="0px"
	 viewBox="0 0 1417.3 1417.3" style="enable-background:new 0 0 1417.3 1417.3;" xml:space="preserve">
<g>
	<path d="M1153.3,117.1c-7.8-6.5-17.6-10.1-27.6-10.1H291c-10,0-19.8,3.6-27.6,10.1C104.8,249.5,13.8,443.9,13.8,650.2
		c0,148.9,46.5,290.9,134.3,410.6c86.1,117.3,204.3,203.3,341.7,248.8c4.3,1.4,8.9,2.2,13.5,2.2h409.9c4.6,0,9.2-0.7,13.5-2.2
		c137.4-45.5,255.6-131.5,341.7-248.8c87.9-119.7,134.3-261.6,134.3-410.6C1402.8,443.9,1311.9,249.5,1153.3,117.1z M1250.1,1047.3
		c-83.3,113.4-197.6,196.6-330.5,240.7c-2,0.7-4.2,1-6.4,1H503.4c-2.2,0-4.3-0.3-6.4-1c-132.9-44-247.2-127.2-330.5-240.7
		c-85-115.7-129.9-253-129.9-397.1c0-199.6,88-387.5,241.3-515.7c3.7-3.1,8.3-4.8,13-4.8h834.7c4.7,0,9.3,1.7,13,4.8
		c153.4,128.1,241.3,316.1,241.3,515.7C1380.1,794.3,1335.1,931.6,1250.1,1047.3z"/>
	<path d="M932.5,1151.4H496c-9.4,0-17.1,7.7-17.1,17.1v74c0,9.4,7.7,17.1,17.1,17.1h436.5c9.4,0,17.1-7.7,17.1-17.1v-74
		C949.5,1159.1,941.9,1151.4,932.5,1151.4z M938.1,1242.5c0,3.1-2.5,5.7-5.7,5.7H496c-3.1,0-5.7-2.5-5.7-5.7v-74
		c0-3.1,2.5-5.7,5.7-5.7h436.5c3.1,0,5.7,2.5,5.7,5.7V1242.5z"/>
	<path d="M1324.1,828.4c-1.2-4.6-4.2-8.5-8.3-10.8l-62.7-36.2c-8.5-4.9-19.5-2-24.4,6.5l-123.7,214.2c-2.4,4.1-3,8.9-1.8,13.5
		c1.2,4.6,4.2,8.5,8.3,10.8l62.7,36.2c2.8,1.6,5.9,2.4,8.9,2.4c6.2,0,12.2-3.2,15.5-8.9L1322.3,842
		C1324.7,837.8,1325.3,833,1324.1,828.4z M1312.4,836.3l-123.7,214.2c-1.8,3.1-5.8,4.2-8.8,2.4l-62.7-36.2c-3.1-1.8-4.2-5.7-2.4-8.8
		l123.7-214.2c1.2-2.1,3.4-3.2,5.6-3.2c1.1,0,2.2,0.3,3.2,0.9l62.7,36.2c1.5,0.9,2.6,2.3,3,3.9
		C1313.5,833,1313.3,834.8,1312.4,836.3z"/>
	<path d="M390,209.5c-29.2,0-52.9,23.7-52.9,52.9c0,29.2,23.7,52.9,52.9,52.9c29.2,0,52.9-23.7,52.9-52.9
		C442.9,233.2,419.2,209.5,390,209.5z M390,308.2c-25.2,0-45.8-20.5-45.8-45.8c0-25.2,20.5-45.8,45.8-45.8
		c25.2,0,45.8,20.5,45.8,45.8C435.8,287.6,415.3,308.2,390,308.2z"/>
	<path d="M413.8,228.6c-0.3-0.2-0.6-0.4-0.9-0.7c-0.3-0.2-0.5-0.4-0.8-0.6l-1.9-1.2l-0.1,0.1c-5.9-3.3-12.8-5.2-20-5.2
		c-22.8,0-41.4,18.6-41.4,41.4c0,7.3,1.9,14.1,5.2,20.1l-0.1,0.1l1.2,1.9c0.2,0.3,0.5,0.6,0.7,1c0.1,0.1,0.2,0.2,0.2,0.3
		c1.4,2.1,3,4.1,4.8,5.9c1.8,1.8,3.8,3.4,5.9,4.8c0.1,0.1,0.2,0.2,0.3,0.2c0.3,0.2,0.6,0.5,1,0.7l1.9,1.2l0.1-0.1
		c5.9,3.3,12.8,5.2,20.1,5.2c22.8,0,41.4-18.6,41.4-41.4c0-7.3-1.9-14.1-5.2-20.1l0.1-0.1l-1.2-1.9c-0.2-0.3-0.4-0.6-0.6-0.9
		c-0.1-0.2-0.3-0.4-0.4-0.6c-1.5-2.1-3-4-4.7-5.7C417.5,231.4,415.7,229.9,413.8,228.6z M358.1,278.2c-2.4-4.8-3.8-10.1-3.8-15.8
		c0-19.7,16-35.7,35.7-35.7c5.7,0,11,1.4,15.8,3.7L358.1,278.2z M369.2,291.3c-3.1-2.2-5.8-5-8-8l49.7-49.8c3.1,2.2,5.8,5,8.1,8.1
		L369.2,291.3z M425.7,262.4c0,19.7-16,35.7-35.7,35.7c-5.7,0-11.1-1.4-15.8-3.8l47.8-47.8C424.3,251.3,425.7,256.7,425.7,262.4z"/>
	<rect x="509.7" y="1175.5" width="60" height="60"/>
	<rect x="858.8" y="1175.5" width="60" height="60"/>
	<rect x="771.5" y="1175.5" width="60" height="60"/>
	<rect x="684.2" y="1175.5" width="60" height="60"/>
	<rect x="597" y="1175.5" width="60" height="60"/>
	<path d="M1015.7,209.5c-29.2,0-52.9,23.7-52.9,52.9c0,29.2,23.7,52.9,52.9,52.9s52.9-23.7,52.9-52.9
		C1068.6,233.2,1044.8,209.5,1015.7,209.5z M1015.7,308.2c-25.2,0-45.8-20.5-45.8-45.8c0-25.2,20.5-45.8,45.8-45.8
		c25.2,0,45.8,20.5,45.8,45.8C1061.5,287.6,1040.9,308.2,1015.7,308.2z"/>
	<path d="M1039,228.3c-0.1-0.1-0.2-0.2-0.3-0.2c-0.3-0.2-0.6-0.5-1-0.7l-1.9-1.2l-0.1,0.1c-5.9-3.3-12.8-5.2-20.1-5.2
		c-22.8,0-41.4,18.6-41.4,41.4c0,7.3,1.9,14.1,5.2,20l-0.1,0.1l1.2,1.9c0.2,0.3,0.4,0.5,0.6,0.8c0.2,0.3,0.4,0.6,0.6,0.9
		c1.3,1.9,2.8,3.8,4.6,5.5c1.7,1.7,3.6,3.3,5.7,4.7c0.2,0.2,0.4,0.3,0.6,0.5c0.3,0.2,0.6,0.4,0.9,0.6l1.9,1.2l0.1-0.1
		c5.9,3.3,12.8,5.2,20.1,5.2c22.8,0,41.4-18.6,41.4-41.4c0-7.3-1.9-14.1-5.2-20.1l0.1-0.1l-1.2-1.9c-0.2-0.3-0.5-0.6-0.7-0.9
		c-0.1-0.1-0.2-0.3-0.3-0.4c-1.4-2.1-3-4.1-4.8-5.9C1043.1,231.3,1041.1,229.7,1039,228.3z M983.7,278.2c-2.4-4.8-3.7-10.1-3.7-15.8
		c0-19.7,16-35.7,35.7-35.7c5.7,0,11.1,1.4,15.8,3.8L983.7,278.2z M994.8,291.3c-3.1-2.2-5.8-5-8.1-8.1l49.8-49.7c3.1,2.2,5.8,5,8,8
		L994.8,291.3z M1051.4,262.4c0,19.7-16,35.7-35.7,35.7c-5.7,0-11.1-1.4-15.8-3.8l47.8-47.8C1050,251.3,1051.4,256.7,1051.4,262.4z"
		/>
	<path d="M546.4,209.5c-29.2,0-52.9,23.7-52.9,52.9c0,29.2,23.7,52.9,52.9,52.9s52.9-23.7,52.9-52.9
		C599.3,233.2,575.6,209.5,546.4,209.5z M546.4,308.2c-25.2,0-45.8-20.5-45.8-45.8c0-25.2,20.5-45.8,45.8-45.8
		c25.2,0,45.8,20.5,45.8,45.8C592.2,287.6,571.7,308.2,546.4,308.2z"/>
	<path d="M570.2,228.6c-0.3-0.2-0.6-0.5-0.9-0.7c-0.3-0.2-0.5-0.4-0.8-0.6l-1.9-1.2l-0.1,0.1c-5.9-3.3-12.8-5.2-20-5.2
		c-22.8,0-41.4,18.6-41.4,41.4c0,7.3,1.9,14.1,5.2,20.1l-0.1,0.1l1.2,1.9c0.2,0.3,0.5,0.6,0.7,0.9c0.1,0.1,0.2,0.3,0.3,0.4
		c1.4,2.1,3,4.1,4.8,5.9c1.8,1.8,3.8,3.4,5.9,4.8c0.1,0.1,0.2,0.2,0.4,0.3c0.3,0.2,0.6,0.5,0.9,0.7l1.9,1.2l0.1-0.1
		c5.9,3.3,12.8,5.2,20.1,5.2c22.8,0,41.4-18.6,41.4-41.4c0-7.3-1.9-14.1-5.2-20.1l0.1-0.1l-1.2-1.9c-0.2-0.3-0.4-0.6-0.6-0.9
		c-0.1-0.2-0.3-0.4-0.4-0.6c-1.4-2.1-3-4-4.7-5.7C574,231.4,572.1,229.9,570.2,228.6z M514.5,278.2c-2.4-4.8-3.8-10.1-3.8-15.8
		c0-19.7,16-35.7,35.7-35.7c5.7,0,11,1.4,15.8,3.7L514.5,278.2z M525.6,291.3c-3.1-2.2-5.8-5-8-8l49.7-49.8c3.1,2.2,5.8,5,8.1,8.1
		L525.6,291.3z M582.1,262.4c0,19.7-16,35.7-35.7,35.7c-5.7,0-11.1-1.4-15.8-3.8l47.8-47.8C580.7,251.3,582.1,256.7,582.1,262.4z"/>
	<path d="M1110.8,326.1V187.3c0-7.8-6.3-14.1-14.1-14.1H309c-7.8,0-14.1,6.3-14.1,14.1v138.7c0,7.8,6.3,14.1,14.1,14.1h787.7
		C1104.5,340.2,1110.8,333.8,1110.8,326.1z M1099.4,326.1c0,1.5-1.2,2.7-2.7,2.7H309c-1.5,0-2.7-1.2-2.7-2.7V187.3
		c0-1.5,1.2-2.7,2.7-2.7h787.7c1.5,0,2.7,1.2,2.7,2.7V326.1z"/>
	<path d="M702.8,209.5c-29.2,0-52.9,23.7-52.9,52.9c0,29.2,23.7,52.9,52.9,52.9c29.2,0,52.9-23.7,52.9-52.9
		C755.7,233.2,732,209.5,702.8,209.5z M702.8,308.2c-25.2,0-45.8-20.5-45.8-45.8c0-25.2,20.5-45.8,45.8-45.8s45.8,20.5,45.8,45.8
		C748.6,287.6,728.1,308.2,702.8,308.2z"/>
	<path d="M726.6,228.6c-0.3-0.2-0.6-0.4-0.9-0.7c-0.3-0.2-0.5-0.4-0.8-0.6l-1.9-1.2l-0.1,0.1c-5.9-3.3-12.8-5.2-20-5.2
		c-22.8,0-41.4,18.6-41.4,41.4c0,7.3,1.9,14.1,5.2,20.1l-0.1,0.1l1.2,1.9c0.2,0.3,0.5,0.6,0.7,1c0.1,0.1,0.2,0.2,0.2,0.3
		c1.4,2.1,3,4.1,4.8,5.9c1.8,1.8,3.8,3.4,5.9,4.8c0.1,0.1,0.2,0.2,0.3,0.2c0.3,0.2,0.6,0.5,1,0.7l1.9,1.2l0.1-0.1
		c5.9,3.3,12.8,5.2,20.1,5.2c22.8,0,41.4-18.6,41.4-41.4c0-7.3-1.9-14.1-5.2-20.1l0.1-0.1l-1.2-1.9c-0.2-0.3-0.4-0.6-0.6-0.9
		c-0.1-0.2-0.3-0.4-0.5-0.6c-1.4-2.1-3-4-4.7-5.7C730.4,231.4,728.5,229.9,726.6,228.6z M670.9,278.2c-2.4-4.8-3.8-10.1-3.8-15.8
		c0-19.7,16-35.7,35.7-35.7c5.7,0,11,1.4,15.8,3.7L670.9,278.2z M682,291.3c-3.1-2.2-5.8-5-8-8l49.7-49.8c3.1,2.2,5.8,5,8.1,8.1
		L682,291.3z M738.5,262.4c0,19.7-16,35.7-35.7,35.7c-5.7,0-11.1-1.4-15.8-3.8l47.8-47.8C737.1,251.3,738.5,256.7,738.5,262.4z"/>
	<path d="M859.3,209.5c-29.2,0-52.9,23.7-52.9,52.9c0,29.2,23.7,52.9,52.9,52.9c29.2,0,52.9-23.7,52.9-52.9
		C912.2,233.2,888.4,209.5,859.3,209.5z M859.3,308.2c-25.2,0-45.8-20.5-45.8-45.8c0-25.2,20.5-45.8,45.8-45.8
		c25.2,0,45.8,20.5,45.8,45.8C905,287.6,884.5,308.2,859.3,308.2z"/>
	<path d="M883,228.6c-0.3-0.2-0.6-0.5-1-0.7c-0.3-0.2-0.5-0.4-0.8-0.6l-1.9-1.2l-0.1,0.1c-5.9-3.3-12.8-5.2-20-5.2
		c-22.8,0-41.4,18.6-41.4,41.4c0,7.3,1.9,14.1,5.2,20.1l-0.1,0.1l1.2,1.9c0.2,0.3,0.5,0.6,0.7,0.9c0.1,0.1,0.2,0.3,0.3,0.4
		c1.4,2.1,3,4.1,4.8,5.9c1.8,1.8,3.8,3.4,5.9,4.8c0.1,0.1,0.2,0.2,0.3,0.2c0.3,0.2,0.6,0.5,1,0.7l1.9,1.2l0.1-0.1
		c5.9,3.3,12.8,5.2,20.1,5.2c22.8,0,41.4-18.6,41.4-41.4c0-7.3-1.9-14.1-5.2-20.1l0.1-0.1l-1.2-1.9c-0.2-0.3-0.4-0.6-0.6-0.9
		c-0.1-0.2-0.3-0.4-0.5-0.6c-1.4-2.1-3-4-4.7-5.7C886.8,231.4,884.9,229.9,883,228.6z M827.3,278.2c-2.4-4.8-3.8-10.1-3.8-15.8
		c0-19.7,16-35.7,35.7-35.7c5.7,0,11,1.4,15.8,3.7L827.3,278.2z M838.4,291.3c-3.1-2.2-5.8-5-8-8l49.7-49.8c3.1,2.2,5.8,5,8.1,8.1
		L838.4,291.3z M894.9,262.4c0,19.7-16,35.7-35.7,35.7c-5.7,0-11.1-1.4-15.8-3.8l47.8-47.8C893.6,251.3,894.9,256.7,894.9,262.4z"/>
</g>
</svg>
