<?xml version="1.0" encoding="UTF-8"?>
<svg width="960px" height="840px" viewBox="0 0 960 840" version="1.1" xmlns="http://www.w3.org/2000/svg" xmlns:xlink="http://www.w3.org/1999/xlink">
    <title>Shelly 2.5</title>
    <g id="Shelly-2.5" stroke="none" stroke-width="1" fill="none" fill-rule="evenodd">
        <path d="M921.833019,11.4326225 C943.372863,14.2656961 960,32.7064733 960,55.0331658 L960,621.633194 C960,633.678031 955.062881,645.195733 946.341288,653.497318 L763.129394,827.886235 C754.959129,835.663042 744.114172,840 732.837823,840 L210.908405,840 C198.963425,840 187.532976,835.135015 179.248032,826.524829 L12.2899087,653.012447 C4.40498569,644.817987 6.73521363e-14,633.885111 8.56398024e-14,622.509729 L0,168.674681 L0.000690519334,168.601005 L0,55.0331658 C-1.78416255e-15,32.7064733 16.6271369,14.2656961 38.1669805,11.4326225 L38.1669805,9.94974874 C38.1669805,4.45465425 42.6188384,0 48.1104834,0 L911.889517,0 C917.381162,0 921.833019,4.45465425 921.833019,9.94974874 L921.833019,11.4326225 Z M911.837607,134.607843 L911.837607,10 L48.1623932,10 L48.1623932,134.607843 L44.0026923,134.607843 C26.1241741,134.607843 11.468421,148.414776 10.1037628,165.954011 C11.5081827,147.404702 26.9944513,132.79129 45.8917308,132.79129 L48.0566802,132.79129 L48.0566802,21.0539216 L44.0026923,21.0539216 C25.2235239,21.0539216 10,36.2869721 10,55.0778922 L10,168.631814 C10,167.7306 10.0350167,166.83757 10,168.705481 L10,622.484912 C10,631.2856 13.4079729,639.743937 19.5082434,646.08367 L186.446299,819.574788 C192.856051,826.236152 201.699363,830 210.940748,830 L732.807434,830 C741.531524,830 749.921863,826.644665 756.242891,820.628055 L939.432764,646.260509 C946.180335,639.837897 950,630.927103 950,621.608484 L950,55.0778922 C950,36.2869721 934.776476,21.0539216 915.997308,21.0539216 L911.94332,21.0539216 L911.94332,132.79129 L914.108269,132.79129 C933.005549,132.79129 948.491817,147.404702 949.896237,165.954011 C948.531579,148.414776 933.875826,134.607843 915.997308,134.607843 L911.837607,134.607843 Z" id="Combined-Shape" fill="#000000" fill-rule="nonzero"></path>
        <path d="M45.4421828,132 L914.557817,132 C935.788849,132 953,149.221888 953,170.466162 L953,601.533838 C953,622.778112 935.788849,640 914.557817,640 L45.4421828,640 C24.2111515,640 7,622.778112 7,601.533838 L7,170.466162 C7,149.221888 24.2111515,132 45.4421828,132 Z M45.4175124,137 C26.9615299,137 12,151.971799 12,170.440448 L12,601.559552 C12,620.028201 26.9615299,635 45.4175124,635 L914.582488,635 C933.03847,635 948,620.028201 948,601.559552 L948,170.440448 C948,151.971799 933.03847,137 914.582488,137 L45.4175124,137 Z" id="Rectangle" fill="#230020" fill-rule="nonzero"></path>
        <path d="M210.662119,833 C200.728094,833 191.221978,828.954871 184.331816,821.79569 L17.2208846,648.160082 C10.6633999,641.346567 7,632.25612 7,622.797738 L7,168.566654 C7,148.371449 23.3645243,132 43.5511881,132 L916.448812,132 C936.635476,132 953,148.371449 953,168.566654 L953,621.92058 C953,631.935599 948.894052,641.512317 941.640752,648.414904 L758.261173,822.927669 C751.466385,829.393914 742.447192,833 733.069233,833 L210.662119,833 Z M754.812345,819.312108 L938.202334,644.784848 C944.458507,638.831019 948,630.570618 948,621.93216 L948,168.540579 C948,151.121198 933.885145,137 916.47359,137 L43.5264103,137 C26.1148547,137 12,151.121198 12,168.540579 L12,622.809391 C12,630.967721 15.1597837,638.808689 20.8157956,644.685689 L187.936214,818.335719 C193.879169,824.510873 202.078457,828 210.646829,828 L733.0836,828 C741.172349,828 748.951652,824.88957 754.812345,819.312108 Z" id="Path" fill="#230020" fill-rule="nonzero"></path>
        <path d="M910,135.581229 L910,18 L916.642,18 C936.721969,18 953,34.3660699 953,54.5546403 L953,169 L948,169 C948,150.543322 933.118393,135.581229 914.761,135.581229 L910,135.581229 Z M915,130.568062 C929.136724,130.655086 941.454303,138.457599 948,150 L947.999999,54.5393797 C947.999999,37.1206613 933.960545,23 916.642,23 L915,23 L915,130.568062 Z M50,135.581229 L45.239,135.581229 C26.8816072,135.581229 12,150.543322 12,169 L7,169 L7,54.5546403 C7,34.3660699 23.2780311,18 43.358,18 L50,18 L50,135.581229 Z M45,23 L43.358,23 C26.0394548,23 12,37.1206614 12,54.5393799 L12,150 C18.5456959,138.4576 30.8632759,130.655086 45,130.568063 L45,23 Z" id="Combined-Shape" fill="#230020" fill-rule="nonzero"></path>
        <path d="M45,7 L913,7 L913,137 L45,137 L45,7 Z M50,12 L50,132 L908,132 L908,12 L50,12 Z" id="Rectangle" fill="#230020" fill-rule="nonzero"></path>
        <path d="M850.086268,58.2153374 L814.749652,95.0243124 C818.289329,96.854761 822.280033,97.883875 826.5,97.883875 C841.053051,97.883875 852.883875,85.6385592 852.883875,70.5 C852.883875,66.0810593 851.875825,61.9086385 850.086268,58.2153374 Z M811.710221,98.1903857 L811.194349,98.7277525 L809.726929,97.7746489 C807.821572,96.5371006 806.019285,95.0399479 804.410627,93.3642623 C802.799503,91.6860077 801.363641,89.8112046 800.183404,87.8357774 L799.355516,86.4500949 L799.801474,85.9853068 C797.30646,81.4071739 795.883875,76.1237378 795.883875,70.5 C795.883875,53.0545642 809.573503,38.883875 826.5,38.883875 C843.42369,38.883875 857.116125,53.0560232 857.116125,70.5 C857.116125,87.9439768 843.42369,102.116125 826.5,102.116125 C821.133704,102.116125 816.092749,100.69181 811.710221,98.1903857 Z M802.899349,82.7566247 L838.209513,45.9555035 C834.679769,44.1377015 830.703437,43.116125 826.5,43.116125 C811.944242,43.116125 800.116125,55.3598889 800.116125,70.5 C800.116125,74.9079426 801.118729,79.0703779 802.899349,82.7566247 Z M811.087483,92.7277994 L847.31316,54.9927193 C846.456877,53.7481772 845.522533,52.6020738 844.513245,51.5667056 C843.519564,50.531621 842.469357,49.5945034 841.374575,48.7697729 L805.122159,86.5529331 C806.780148,88.9269532 808.796154,91.0135542 811.087483,92.7277994 Z M733.086268,58.2153374 L697.749652,95.0243124 C701.289329,96.854761 705.280033,97.883875 709.5,97.883875 C724.053051,97.883875 735.883875,85.6385592 735.883875,70.5 C735.883875,66.0810593 734.875825,61.9086385 733.086268,58.2153374 Z M694.710221,98.1903857 L694.194349,98.7277525 L692.726929,97.7746489 C690.821572,96.5371006 689.019285,95.0399479 687.410627,93.3642623 C685.799503,91.6860077 684.363641,89.8112046 683.183404,87.8357774 L682.355516,86.4500949 L682.801474,85.9853068 C680.30646,81.4071739 678.883875,76.1237378 678.883875,70.5 C678.883875,53.0545642 692.573503,38.883875 709.5,38.883875 C726.42369,38.883875 740.116125,53.0560232 740.116125,70.5 C740.116125,87.9439768 726.42369,102.116125 709.5,102.116125 C704.133704,102.116125 699.092749,100.69181 694.710221,98.1903857 Z M685.899349,82.7566247 L721.209513,45.9555035 C717.679769,44.1377015 713.703437,43.116125 709.5,43.116125 C694.944242,43.116125 683.116125,55.3598889 683.116125,70.5 C683.116125,74.9079426 684.118729,79.0703779 685.899349,82.7566247 Z M694.087483,92.7277994 L730.31316,54.9927193 C729.456877,53.7481772 728.522533,52.6020738 727.513245,51.5667056 C726.519564,50.531621 725.469357,49.5945034 724.374575,48.7697729 L688.122159,86.5529331 C689.780148,88.9269532 691.796154,91.0135542 694.087483,92.7277994 Z M501.086268,58.2153374 L465.749652,95.0243124 C469.289329,96.854761 473.280033,97.883875 477.5,97.883875 C492.053051,97.883875 503.883875,85.6385592 503.883875,70.5 C503.883875,66.0810593 502.875825,61.9086385 501.086268,58.2153374 Z M462.710221,98.1903857 L462.194349,98.7277525 L460.726929,97.7746489 C458.821572,96.5371006 457.019285,95.0399479 455.410627,93.3642623 C453.799503,91.6860077 452.363641,89.8112046 451.183404,87.8357774 L450.355516,86.4500949 L450.801474,85.9853068 C448.30646,81.4071739 446.883875,76.1237378 446.883875,70.5 C446.883875,53.0545642 460.573503,38.883875 477.5,38.883875 C494.42369,38.883875 508.116125,53.0560232 508.116125,70.5 C508.116125,87.9439768 494.42369,102.116125 477.5,102.116125 C472.133704,102.116125 467.092749,100.69181 462.710221,98.1903857 Z M453.899349,82.7566247 L489.209513,45.9555035 C485.679769,44.1377015 481.703437,43.116125 477.5,43.116125 C462.944242,43.116125 451.116125,55.3598889 451.116125,70.5 C451.116125,74.9079426 452.118729,79.0703779 453.899349,82.7566247 Z M462.087483,92.7277994 L498.31316,54.9927193 C497.456877,53.7481772 496.522533,52.6020738 495.513245,51.5667056 C494.519564,50.531621 493.469357,49.5945034 492.374575,48.7697729 L456.122159,86.5529331 C457.780148,88.9269532 459.796154,91.0135542 462.087483,92.7277994 Z M384.04119,58.2308775 L347.997986,95.0096566 C351.611328,96.8491172 355.687678,97.883875 360,97.883875 C374.839008,97.883875 386.883875,85.6313375 386.883875,70.5 C386.883875,66.0880976 385.859877,61.9209373 384.04119,58.2308775 Z M344.91275,98.1578567 L344.375562,98.7060077 L342.928615,97.7853814 C340.986317,96.5495856 339.148548,95.0541131 337.507834,93.3799147 C335.867887,91.7065003 334.403667,89.8329438 333.194307,87.853821 L332.33483,86.4472838 L332.837498,85.9340827 C330.319306,81.3684696 328.883875,76.1037893 328.883875,70.5 C328.883875,53.0472962 342.807238,38.883875 360,38.883875 C377.192762,38.883875 391.116125,53.0472962 391.116125,70.5 C391.116125,87.9527038 377.192762,102.116125 360,102.116125 C354.524614,102.116125 349.380822,100.679623 344.91275,98.1578567 Z M335.95168,82.7546441 L371.974905,45.9765625 C368.368289,44.1457155 364.301541,43.116125 360,43.116125 C345.160992,43.116125 333.116125,55.3686625 333.116125,70.5 C333.116125,74.9061332 334.137447,79.0681639 335.95168,82.7546441 Z M344.303064,92.7332974 L381.291503,54.9899916 C380.421429,53.7532314 379.472229,52.6129668 378.44806,51.582358 C377.416642,50.5298903 376.32599,49.5790222 375.188071,48.7444063 L338.191531,86.5161978 C339.887476,88.907752 341.953195,91.0090396 344.303064,92.7332974 Z M267.995757,58.2464589 L231.246016,94.9962002 C234.932637,96.8439399 239.094301,97.883875 243.49891,97.883875 C258.622847,97.883875 270.883875,85.6232996 270.883875,70.5 C270.883875,66.0952418 269.843768,61.9333293 267.995757,58.2464589 Z M228.114966,98.1272506 L227.55619,98.686026 L226.12897,97.7950641 C224.151185,96.5604047 222.278483,95.0665111 220.60813,93.3961573 C218.934148,91.7245298 217.439614,89.8511753 216.204344,87.8700808 L215.314864,86.4435564 L215.872993,85.8851279 C213.331895,81.3316437 211.883875,76.0849351 211.883875,70.5 C211.883875,53.0388908 226.037969,38.883875 243.49891,38.883875 C260.960219,38.883875 275.116125,53.0392582 275.116125,70.5 C275.116125,87.9607418 260.960219,102.116125 243.49891,102.116125 C237.914375,102.116125 232.668101,100.66819 228.114966,98.1272506 Z M219.003485,82.7529591 L255.739415,45.9973528 C252.055748,44.1536492 247.898463,43.116125 243.49891,43.116125 C228.375438,43.116125 216.116125,55.3762363 216.116125,70.5 C216.116125,74.9045805 217.155939,79.066271 219.003485,82.7529591 Z M227.51779,92.7391211 L265.270087,54.9868237 C264.388089,53.7600987 263.422858,52.6253465 262.380637,51.597548 C261.312312,50.5292228 260.181523,49.565273 259.000926,48.7210035 L221.26056,86.4815844 C222.994251,88.8899828 225.109498,91.0053361 227.51779,92.7391211 Z M578.115294,98.1269223 L577.546516,98.6957007 L576.114828,97.7861579 C574.077993,96.4921683 572.222479,95.0115181 570.60813,93.3743423 C568.900896,91.6695089 567.415252,89.8131911 566.198504,87.8388455 L565.320758,86.4145776 L565.865249,85.8703772 C563.328987,81.3202457 561.883875,76.0788048 561.883875,70.5 C561.883875,53.0396195 576.03942,38.883875 593.49891,38.883875 C610.96167,38.883875 625.116125,53.0385296 625.116125,70.5 C625.116125,87.9614704 610.96167,102.116125 593.49891,102.116125 C587.91471,102.116125 582.66849,100.668048 578.115294,98.1269223 Z M581.246315,94.9959013 C584.932977,96.8438145 589.094583,97.883875 593.49891,97.883875 C608.624249,97.883875 620.883875,85.6240766 620.883875,70.5 C620.883875,66.0950388 619.843898,61.9330527 617.99604,58.2461765 L581.246315,94.9959013 Z M605.753181,46.0037989 C602.066223,44.1560543 597.904108,43.116125 593.49891,43.116125 C578.37684,43.116125 566.116125,55.3770132 566.116125,70.5 C566.116125,74.8992996 567.153672,79.0563978 568.99738,82.7399233 L605.753181,46.0037989 Z M571.252592,86.4696222 C572.987883,88.8827816 575.106067,91.0021421 577.518172,92.7387386 L615.27532,54.9815911 C614.417892,53.7852849 613.450666,52.6457621 612.402452,51.597548 C611.354126,50.549222 610.214472,49.5819017 609.018026,48.7244055 L571.252592,86.4696222 Z M151.040912,60.2311606 L114.997694,97.009955 C118.610994,98.8492423 122.687402,99.883875 127,99.883875 C141.83763,99.883875 153.883875,87.6305611 153.883875,72.5 C153.883875,68.088301 152.859749,63.9212145 151.040912,60.2311606 Z M111.912429,100.158184 L111.375562,100.706008 L109.928615,99.7853814 C107.986317,98.5495856 106.148548,97.0541131 104.507834,95.3799147 C102.863802,93.7023311 101.398279,91.8278519 100.193381,89.8523039 L99.3358289,88.4462641 L99.837192,87.934395 C97.3191565,83.3687788 95.883875,78.1040188 95.883875,72.5 C95.883875,55.0465671 109.805811,40.883875 127,40.883875 C144.191335,40.883875 158.116125,55.0480252 158.116125,72.5 C158.116125,89.9519748 144.191335,104.116125 127,104.116125 C121.524287,104.116125 116.380442,102.679764 111.912429,100.158184 Z M102.951403,84.7549269 L138.974613,47.9768602 C135.367957,46.1458402 131.301266,45.116125 127,45.116125 C112.159614,45.116125 100.116125,57.367886 100.116125,72.5 C100.116125,76.9063362 101.137319,81.0684408 102.951403,84.7549269 Z M111.302688,94.7336804 L148.291476,56.9900195 C147.420944,55.7527893 146.471399,54.6128629 145.445923,53.582358 C144.415308,52.5307106 143.324943,51.5798856 142.187505,50.7449837 L105.191166,88.5165706 C106.887067,90.9081669 108.952772,93.0094531 111.302688,94.7336804 Z M166.645156,72.5 C166.645156,94.6634655 148.903026,112.645156 127.001067,112.645156 C105.097328,112.645156 87.3548438,94.6638233 87.3548438,72.5 C87.3548438,50.3361767 105.097328,32.3548438 127.001067,32.3548438 C148.903026,32.3548438 166.645156,50.3365345 166.645156,72.5 Z M161.354844,72.5 C161.354844,53.2425287 145.965267,37.6451563 127.001067,37.6451563 C108.035039,37.6451563 92.6451563,53.2422174 92.6451563,72.5 C92.6451563,91.7577826 108.035039,107.354844 127.001067,107.354844 C145.965267,107.354844 161.354844,91.7574713 161.354844,72.5 Z M553.354844,70.5 C553.354844,48.3286456 571.328843,30.3548438 593.498918,30.3548438 C615.670798,30.3548438 633.645156,48.3282875 633.645156,70.5 C633.645156,92.6717125 615.670798,110.645156 593.498918,110.645156 C571.328843,110.645156 553.354844,92.6713544 553.354844,70.5 Z M558.645156,70.5 C558.645156,89.7495824 574.250589,105.354844 593.498918,105.354844 C612.7491,105.354844 628.354844,89.7498934 628.354844,70.5 C628.354844,51.2501066 612.7491,35.6451563 593.498918,35.6451563 C574.250589,35.6451563 558.645156,51.2504176 558.645156,70.5 Z M283.645156,70.5 C283.645156,92.6717125 265.670798,110.645156 243.498918,110.645156 C221.328843,110.645156 203.354844,92.6713544 203.354844,70.5 C203.354844,48.3286456 221.328843,30.3548438 243.498918,30.3548438 C265.670798,30.3548438 283.645156,48.3282875 283.645156,70.5 Z M278.354844,70.5 C278.354844,51.2501066 262.7491,35.6451563 243.498918,35.6451563 C224.250589,35.6451563 208.645156,51.2504176 208.645156,70.5 C208.645156,89.7495824 224.250589,105.354844 243.498918,105.354844 C262.7491,105.354844 278.354844,89.7498934 278.354844,70.5 Z M399.645156,70.5 C399.645156,92.6642063 381.903952,110.645156 360,110.645156 C338.096048,110.645156 320.354844,92.6642063 320.354844,70.5 C320.354844,48.3357937 338.096048,30.3548438 360,30.3548438 C381.903952,30.3548438 399.645156,48.3357937 399.645156,70.5 Z M394.354844,70.5 C394.354844,51.2417751 378.96618,35.6451563 360,35.6451563 C341.03382,35.6451563 325.645156,51.2417751 325.645156,70.5 C325.645156,89.7582249 341.03382,105.354844 360,105.354844 C378.96618,105.354844 394.354844,89.7582249 394.354844,70.5 Z M516.645156,70.5 C516.645156,92.6555929 499.135122,110.645156 477.501053,110.645156 C455.865228,110.645156 438.354844,92.6559503 438.354844,70.5 C438.354844,48.3440497 455.865228,30.3548438 477.501053,30.3548438 C499.135122,30.3548438 516.645156,48.3444071 516.645156,70.5 Z M511.354844,70.5 C511.354844,51.234656 496.180897,35.6451563 477.501053,35.6451563 C458.819404,35.6451563 443.645156,51.2343444 443.645156,70.5 C443.645156,89.7656556 458.819404,105.354844 477.501053,105.354844 C496.180897,105.354844 511.354844,89.765344 511.354844,70.5 Z M748.645156,70.5 C748.645156,92.6555929 731.135122,110.645156 709.501053,110.645156 C687.865228,110.645156 670.354844,92.6559503 670.354844,70.5 C670.354844,48.3440497 687.865228,30.3548438 709.501053,30.3548438 C731.135122,30.3548438 748.645156,48.3444071 748.645156,70.5 Z M743.354844,70.5 C743.354844,51.234656 728.180897,35.6451563 709.501053,35.6451563 C690.819404,35.6451563 675.645156,51.2343444 675.645156,70.5 C675.645156,89.7656556 690.819404,105.354844 709.501053,105.354844 C728.180897,105.354844 743.354844,89.765344 743.354844,70.5 Z M865.645156,70.5 C865.645156,92.6555929 848.135122,110.645156 826.501053,110.645156 C804.865228,110.645156 787.354844,92.6559503 787.354844,70.5 C787.354844,48.3440497 804.865228,30.3548438 826.501053,30.3548438 C848.135122,30.3548438 865.645156,48.3444071 865.645156,70.5 Z M860.354844,70.5 C860.354844,51.234656 845.180897,35.6451563 826.501053,35.6451563 C807.819404,35.6451563 792.645156,51.2343444 792.645156,70.5 C792.645156,89.7656556 807.819404,105.354844 826.501053,105.354844 C845.180897,105.354844 860.354844,89.765344 860.354844,70.5 Z" id="Combined-Shape" fill="#000000" fill-rule="nonzero"></path>
    </g>
</svg>
