<?xml version="1.0" encoding="UTF-8"?>
<svg width="960px" height="960px" viewBox="0 0 960 960" version="1.1" xmlns="http://www.w3.org/2000/svg" xmlns:xlink="http://www.w3.org/1999/xlink">
    <!-- Generator: Sketch 60.1 (88133) - https://sketch.com -->
    <title>dimmer</title>
    <desc>Created with Sketch.</desc>
    <g id="dimmer" stroke="none" stroke-width="1" fill="none" fill-rule="evenodd">
        <path d="M911,67 C935.852814,67 956,87.1471863 956,112 L956,112 L956,607.81378 C956,625.099985 949.114413,641.674198 936.865672,653.871789 L936.865672,653.871789 L716.760297,873.058009 C704.578344,885.18909 688.086574,892 670.894625,892 L670.894625,892 L283.823974,892 C266.525009,892 249.939645,885.104273 237.739994,872.839578 C155.782398,790.445009 113.987372,747.706082 108.387003,740.413443 C100.308468,729.893809 104.558662,717.499031 115.258915,713.151457 L115.258915,713.151457 L115.418,713.088 L108.121811,705.079422 C94.5239591,690.131366 79.7791517,673.802878 63.8868229,656.093386 L63.8868229,656.093386 L50.4777407,641.12775 C39.8153894,629.209852 33.9205091,613.779724 33.9205091,597.788413 L33.9205091,597.788413 L33.92,343.252 L33.464557,343.248198 C17.3113692,342.98603 4.26591027,329.940353 4,313.78716 L4,313.78716 L4,112 C4,87.1471863 24.1471863,67 49,67 L49,67 Z M173.5,97 L49,97 C40.7157288,97 34,103.715729 34,112 L34,112 L34,313.252 L34.4559521,313.256242 C37.2628875,313.301799 39.9759822,313.733366 42.5444657,314.500171 L247.286134,314.5 C249.16784,314.5 250.976749,315.207143 252.357464,316.474449 L252.583557,316.690828 L362.297423,426.161913 C363.633324,427.494858 364.414872,429.279405 364.49344,431.157299 L364.5,431.471085 L364.5,621.528915 C364.5,623.416076 363.788763,625.229793 362.514915,626.61181 L362.297423,626.838087 L252.583557,736.309172 C251.251517,737.638264 249.471537,738.41536 247.599016,738.493478 L247.286134,738.5 L152.018064,738.501452 C151.020119,739.083775 149.970057,739.548927 148.869439,739.92623 L148.869439,739.92623 L148.816,739.944 L151.59159,742.816209 C170.070176,761.902661 201.319668,793.622199 244.562671,837.150127 L244.562671,837.150127 L259.009523,851.68285 C265.578566,858.286916 274.509146,862 283.823974,862 L283.823974,862 L670.894625,862 C680.151828,862 689.032012,858.332587 695.591525,851.800466 L695.591525,851.800466 L915.6969,632.614246 C922.292376,626.046313 926,617.121736 926,607.81378 L926,607.81378 L926,112 C926,103.715729 919.284271,97 911,97 L911,97 L781.5,97 L781.5,201 C781.5,216.582714 768.994037,229.244504 753.4713,229.496182 L753,229.5 L202,229.5 C186.259885,229.5 173.5,216.740115 173.5,201 L173.5,201 L173.5,97 Z M244.184,329.5 L60.6051845,329.499878 C62.6531687,333.471248 63.8393555,337.959467 63.9164954,342.71728 L63.9164954,342.71728 L63.9205091,343.212726 L63.9205091,597.788413 C63.9205091,606.399119 67.0946754,614.707649 72.8359415,621.124979 C101.69997,653.387897 127.039662,681.41079 148.85198,705.19058 L148.85198,705.19058 L155.475997,712.399443 C155.860857,712.817524 156.221649,713.257137 156.556628,713.716156 C158.114486,715.850878 159.272646,718.198389 159.831107,720.994203 C159.996795,721.823682 160.099258,722.661339 160.137873,723.500155 L244.183,723.5 L349.5,618.416 L349.5,434.583 L244.184,329.5 Z M179.5,581 C193.583261,581 205,592.416739 205,606.5 C205,620.583261 193.583261,632 179.5,632 C165.416739,632 154,620.583261 154,606.5 C154,592.416739 165.416739,581 179.5,581 Z M144,406 C147.313708,406 150,408.686292 150,412 L150,564 C150,567.313708 147.313708,570 144,570 L120,570 C116.686292,570 114,567.313708 114,564 L114,412 C114,408.686292 116.686292,406 120,406 L144,406 Z M197.5,97 L188.5,97 L188.5,201 C188.5,208.247258 194.210702,214.16071 201.377658,214.48591 L201.690169,214.496515 L202,214.5 L753,214.5 C760.455844,214.5 766.5,208.455844 766.5,201 L766.5,201 L766.5,97 L755.5,97 L755.5,199 C755.5,203.060917 752.272526,206.368018 748.242731,206.496146 L748,206.5 L205,206.5 C200.857864,206.5 197.5,203.142136 197.5,199 L197.5,199 L197.5,97 Z M740.5,97 L212.5,97 L212.5,191.499 L740.5,191.499 L740.5,97 Z M313.5,104.5 C315.368563,104.5 316.895126,105.964278 316.994821,107.807965 L317,108 L317,180 C317,181.932997 315.432997,183.5 313.5,183.5 C311.631437,183.5 310.104874,182.035722 310.005179,180.192035 L310,180 L310,108 C310,106.067003 311.567003,104.5 313.5,104.5 Z M422.5,104.5 C424.368563,104.5 425.895126,105.964278 425.994821,107.807965 L426,108 L426,180 C426,181.932997 424.432997,183.5 422.5,183.5 C420.631437,183.5 419.104874,182.035722 419.005179,180.192035 L419,180 L419,108 C419,106.067003 420.567003,104.5 422.5,104.5 Z M638.5,104.5 C640.368563,104.5 641.895126,105.964278 641.994821,107.807965 L642,108 L642,180 C642,181.932997 640.432997,183.5 638.5,183.5 C636.631437,183.5 635.104874,182.035722 635.005179,180.192035 L635,180 L635,108 C635,106.067003 636.567003,104.5 638.5,104.5 Z M259,102 C280.539105,102 298,119.460895 298,141 C298,162.539105 280.539105,180 259,180 C237.460895,180 220,162.539105 220,141 C220,119.460895 237.460895,102 259,102 Z M368.5,102 C390.315248,102 408,119.460895 408,141 C408,162.539105 390.315248,180 368.5,180 C346.684752,180 329,162.539105 329,141 C329,119.460895 346.684752,102 368.5,102 Z M476.5,102 C498.315248,102 516,119.460895 516,141 C516,162.539105 498.315248,180 476.5,180 C454.684752,180 437,162.539105 437,141 C437,119.460895 454.684752,102 476.5,102 Z M585,102 C606.539105,102 624,119.460895 624,141 C624,162.539105 606.539105,180 585,180 C563.460895,180 546,162.539105 546,141 C546,119.460895 563.460895,102 585,102 Z M693,102 C714.539105,102 732,119.460895 732,141 C732,162.539105 714.539105,180 693,180 C671.460895,180 654,162.539105 654,141 C654,119.460895 671.460895,102 693,102 Z M285.034367,124.395326 L242.395326,167.034367 C247.190033,170.098791 252.887589,171.875 259,171.875 C276.051792,171.875 289.875,158.051792 289.875,141 C289.875,134.887589 288.098791,129.190033 285.034367,124.395326 Z M394.868785,124.396321 L351.683671,167.03514 C356.539594,170.09909 362.309745,171.875 368.5,171.875 C385.770404,171.875 399.770833,158.051792 399.770833,141 C399.770833,134.888012 397.972102,129.190822 394.868785,124.396321 Z M502.868785,124.396321 L459.683671,167.03514 C464.539594,170.09909 470.309745,171.875 476.5,171.875 C493.770404,171.875 507.770833,158.051792 507.770833,141 C507.770833,134.888012 505.972102,129.190822 502.868785,124.396321 Z M611.034367,124.395326 L568.395326,167.034367 C573.190033,170.098791 578.887589,171.875 585,171.875 C602.051792,171.875 615.875,158.051792 615.875,141 C615.875,134.887589 614.098791,129.190033 611.034367,124.395326 Z M719.034367,124.395326 L676.395326,167.034367 C681.190033,170.098791 686.887589,171.875 693,171.875 C710.051792,171.875 723.875,158.051792 723.875,141 C723.875,134.887589 722.098791,129.190033 719.034367,124.395326 Z M259,110.125 C241.948208,110.125 228.125,123.948208 228.125,141 C228.125,147.532283 230.153611,153.590758 233.615211,158.579804 L276.579804,115.615211 C271.590758,112.153611 265.532283,110.125 259,110.125 Z M585,110.125 C567.948208,110.125 554.125,123.948208 554.125,141 C554.125,147.532283 556.153611,153.590758 559.615211,158.579804 L602.579804,115.615211 C597.590758,112.153611 591.532283,110.125 585,110.125 Z M693,110.125 C675.948208,110.125 662.125,123.948208 662.125,141 C662.125,147.532283 664.153611,153.590758 667.615211,158.579804 L710.579804,115.615211 C705.590758,112.153611 699.532283,110.125 693,110.125 Z M368.5,110.125 C351.229596,110.125 337.229167,123.948208 337.229167,141 C337.229167,147.531844 339.28351,153.589945 342.789059,158.5788 L386.305336,115.615314 C381.252299,112.153651 375.116095,110.125 368.5,110.125 Z M476.5,110.125 C459.229596,110.125 445.229167,123.948208 445.229167,141 C445.229167,147.531844 447.28351,153.589945 450.789059,158.5788 L494.305336,115.615314 C489.252299,112.153651 483.116095,110.125 476.5,110.125 Z" id="Combined-Shape" fill="#000000"></path>
    </g>
</svg>