<?xml version="1.0" encoding="UTF-8"?>
<svg width="960px" height="960px" viewBox="0 0 960 960" version="1.1" xmlns="http://www.w3.org/2000/svg" xmlns:xlink="http://www.w3.org/1999/xlink">
    <!-- Generator: Sketch 60.1 (88133) - https://sketch.com -->
    <title>dimmer</title>
    <desc>Created with Sketch.</desc>
    <g id="dimmer" stroke="none" stroke-width="1" fill="none" fill-rule="evenodd">
        <path d="M911,67 C935.604286,67 955.596586,86.7462573 955.993971,111.255843 L956,112 L956,607.81378 C956,624.881172 949.287628,641.254484 937.328233,653.406493 L936.865672,653.871789 L716.760297,873.058009 C704.734523,885.033563 688.508731,891.824487 671.555501,891.996645 L670.894625,892 L283.823974,892 C266.525009,892 249.939645,885.104273 237.739994,872.839578 C155.782398,790.445009 113.987372,747.706082 108.387003,740.413443 C100.389254,729.999005 104.474891,717.74674 114.939848,713.284289 L115.258915,713.151457 L115.418,713.088 L108.121811,705.079422 C94.9488919,690.598492 80.6995821,674.822061 65.3733669,657.749605 L63.8868229,656.093386 L50.4777407,641.12775 C39.9699163,629.382576 34.0923766,614.226236 33.9242202,598.483325 L33.9205091,597.788413 L33.92,343.252 L33.464557,343.248198 C17.4729011,342.988652 4.52713022,330.199988 4.0118015,314.270814 L4,313.78716 L4,112 C4,87.3957144 23.7462573,67.4034143 48.2558427,67.0060287 L49,67 L911,67 Z M173.5,97 L49,97 C40.8205929,97 34.1702698,103.546786 34.0032178,111.686172 L34,112 L34,313.252 L34.4559521,313.256242 C37.2628875,313.301799 39.9759822,313.733366 42.5444657,314.500171 L247.286134,314.5 C249.16784,314.5 250.976749,315.207143 252.357464,316.474449 L252.583557,316.690828 L362.297423,426.161913 C363.633324,427.494858 364.414872,429.279405 364.49344,431.157299 L364.5,431.471085 L364.5,621.528915 C364.5,623.416076 363.788763,625.229793 362.514915,626.61181 L362.297423,626.838087 L252.583557,736.309172 C251.251517,737.638264 249.471537,738.41536 247.599016,738.493478 L247.286134,738.5 L152.018064,738.501452 C151.162683,739.000586 150.269011,739.413635 149.338033,739.759065 L148.869439,739.92623 L148.816,739.944 L151.59159,742.816209 C169.88539,761.711796 200.695955,792.989072 243.26898,835.847832 L244.562671,837.150127 L259.009523,851.68285 C265.456917,858.164619 274.179194,861.861487 283.306891,861.996185 L283.823974,862 L670.894625,862 C679.977164,862 688.696777,858.469674 695.217767,852.167144 L695.591525,851.800466 L915.6969,632.614246 C922.170238,626.167941 925.86169,617.451468 925.996191,608.330482 L926,607.81378 L926,112 C926,103.820593 919.453214,97.1702698 911.313828,97.0032178 L911,97 L781.5,97 L781.5,201 C781.5,216.582714 768.994037,229.244504 753.4713,229.496182 L753,229.5 L202,229.5 C186.417286,229.5 173.755496,216.994037 173.503818,201.4713 L173.5,201 L173.5,97 Z M60.6051845,329.499878 C62.5678361,333.305775 63.7390104,337.586346 63.9010945,342.123975 L63.9164954,342.71728 L63.9205091,343.212726 L63.9205091,597.788413 C63.9205091,606.399119 67.0946754,614.707649 72.8359415,621.124979 C101.255908,652.891544 126.259145,680.547544 147.842753,704.090038 L148.85198,705.19058 L155.475997,712.399443 C155.860857,712.817524 156.221649,713.257137 156.556628,713.716156 C158.114486,715.850878 159.272646,718.198389 159.831107,720.994203 C159.996795,721.823682 160.099258,722.661339 160.137873,723.500155 L244.183,723.5 L349.5,618.416 L349.5,434.583 L244.184,329.5 L60.6051845,329.499878 Z M179.5,581 C193.583261,581 205,592.416739 205,606.5 C205,620.583261 193.583261,632 179.5,632 C165.416739,632 154,620.583261 154,606.5 C154,592.416739 165.416739,581 179.5,581 Z M144,406 C147.313708,406 150,408.686292 150,412 L150,564 C150,567.313708 147.313708,570 144,570 L120,570 C116.686292,570 114,567.313708 114,564 L114,412 C114,408.686292 116.686292,406 120,406 L144,406 Z M197.5,97 L188.5,97 L188.5,201 C188.5,208.247258 194.210702,214.16071 201.377658,214.48591 L201.690169,214.496515 L202,214.5 L753,214.5 C760.352291,214.5 766.331834,208.622571 766.496515,201.309831 L766.5,201 L766.5,97 L755.5,97 L755.5,199 C755.5,203.060917 752.272526,206.368018 748.242731,206.496146 L748,206.5 L205,206.5 C200.939083,206.5 197.631982,203.272526 197.503854,199.242731 L197.5,199 L197.5,97 Z M740.5,97 L212.5,97 L212.5,191.499 L740.5,191.499 L740.5,97 Z M638.5,104.5 C640.368563,104.5 641.895126,105.964278 641.994821,107.807965 L642,108 L642,180 C642,181.932997 640.432997,183.5 638.5,183.5 C636.631437,183.5 635.104874,182.035722 635.005179,180.192035 L635,180 L635,108 C635,106.067003 636.567003,104.5 638.5,104.5 Z M422.5,104.5 C424.368563,104.5 425.895126,105.964278 425.994821,107.807965 L426,108 L426,180 C426,181.932997 424.432997,183.5 422.5,183.5 C420.631437,183.5 419.104874,182.035722 419.005179,180.192035 L419,180 L419,108 C419,106.067003 420.567003,104.5 422.5,104.5 Z M313.5,104.5 C315.368563,104.5 316.895126,105.964278 316.994821,107.807965 L317,108 L317,180 C317,181.932997 315.432997,183.5 313.5,183.5 C311.631437,183.5 310.104874,182.035722 310.005179,180.192035 L310,180 L310,108 C310,106.067003 311.567003,104.5 313.5,104.5 Z M259.813602,101.1875 C282.24866,101.1875 300.4375,119.37614 300.4375,141.8125 C300.4375,164.24886 282.24866,182.4375 259.813602,182.4375 C237.376702,182.4375 219.1875,164.249223 219.1875,141.8125 C219.1875,119.375777 237.376702,101.1875 259.813602,101.1875 Z M369.324032,101.1875 C392.04672,101.1875 410.46875,119.37614 410.46875,141.8125 C410.46875,164.24886 392.04672,182.4375 369.324032,182.4375 C346.59948,182.4375 328.177083,164.249223 328.177083,141.8125 C328.177083,119.375777 346.59948,101.1875 369.324032,101.1875 Z M477.324032,101.1875 C500.04672,101.1875 518.46875,119.37614 518.46875,141.8125 C518.46875,164.24886 500.04672,182.4375 477.324032,182.4375 C454.59948,182.4375 436.177083,164.249223 436.177083,141.8125 C436.177083,119.375777 454.59948,101.1875 477.324032,101.1875 Z M585.813602,101.1875 C608.24866,101.1875 626.4375,119.37614 626.4375,141.8125 C626.4375,164.24886 608.24866,182.4375 585.813602,182.4375 C563.376702,182.4375 545.1875,164.249223 545.1875,141.8125 C545.1875,119.375777 563.376702,101.1875 585.813602,101.1875 Z M693.813602,101.1875 C716.24866,101.1875 734.4375,119.37614 734.4375,141.8125 C734.4375,164.24886 716.24866,182.4375 693.813602,182.4375 C671.376702,182.4375 653.1875,164.249223 653.1875,141.8125 C653.1875,119.375777 671.376702,101.1875 693.813602,101.1875 Z M585.813602,106.0625 C566.069035,106.0625 550.0625,122.068221 550.0625,141.8125 C550.0625,161.556779 566.069035,177.5625 585.813602,177.5625 C605.556284,177.5625 621.5625,161.55646 621.5625,141.8125 C621.5625,122.06854 605.556284,106.0625 585.813602,106.0625 Z M693.813602,106.0625 C674.069035,106.0625 658.0625,122.068221 658.0625,141.8125 C658.0625,161.556779 674.069035,177.5625 693.813602,177.5625 C713.556284,177.5625 729.5625,161.55646 729.5625,141.8125 C729.5625,122.06854 713.556284,106.0625 693.813602,106.0625 Z M477.324032,106.0625 C457.32633,106.0625 441.114583,122.068221 441.114583,141.8125 C441.114583,161.556779 457.32633,177.5625 477.324032,177.5625 C497.319826,177.5625 513.53125,161.55646 513.53125,141.8125 C513.53125,122.06854 497.319826,106.0625 477.324032,106.0625 Z M259.813602,106.0625 C240.069035,106.0625 224.0625,122.068221 224.0625,141.8125 C224.0625,161.556779 240.069035,177.5625 259.813602,177.5625 C279.556284,177.5625 295.5625,161.55646 295.5625,141.8125 C295.5625,122.06854 279.556284,106.0625 259.813602,106.0625 Z M369.324032,106.0625 C349.32633,106.0625 333.114583,122.068221 333.114583,141.8125 C333.114583,161.556779 349.32633,177.5625 369.324032,177.5625 C389.319826,177.5625 405.53125,161.55646 405.53125,141.8125 C405.53125,122.06854 389.319826,106.0625 369.324032,106.0625 Z M259.40625,109.3125 C266.240344,109.3125 272.575974,111.449188 277.781391,115.09094 C279.474858,116.219063 281.076206,117.542213 282.554116,119.02021 C284.231983,120.672479 285.738704,122.561109 287.057421,124.636868 C287.276432,124.981607 287.399344,125.364204 287.42993,125.750415 C290.021603,130.381739 291.5,135.721482 291.5,141.40625 C291.5,159.130028 277.129295,173.5 259.40625,173.5 C253.720779,173.5 248.380784,172.021829 243.749544,169.428838 C243.370457,169.399753 242.99444,169.28048 242.654251,169.068362 C240.640382,167.812655 238.734948,166.293132 237.033408,164.591592 C235.467948,163.026132 234.058177,161.291662 232.869707,159.462907 C229.362778,154.318879 227.3125,148.102066 227.3125,141.40625 C227.3125,123.681014 241.680281,109.3125 259.40625,109.3125 Z M368.911458,109.3125 C375.837814,109.3125 382.258638,111.452057 387.532793,115.098275 C389.244371,116.224787 390.862472,117.54541 392.356092,119.02021 C394.05547,120.672479 395.581507,122.561109 396.917131,124.636868 C397.138759,124.98131 397.263224,125.363544 397.294336,125.749415 C399.9191,130.380966 401.416667,135.721071 401.416667,141.40625 C401.416667,159.130028 386.861722,173.5 368.911458,173.5 C363.152869,173.5 357.744212,172.021712 353.053469,169.42853 C352.669598,169.399602 352.289024,169.280346 351.94469,169.068362 C349.905002,167.812655 347.97514,166.293132 346.251785,164.591592 C344.662804,163.022724 343.232194,161.284109 342.026845,159.450962 C338.479597,154.309245 336.40625,148.096878 336.40625,141.40625 C336.40625,123.681014 350.958233,109.3125 368.911458,109.3125 Z M476.911458,109.3125 C483.837814,109.3125 490.258638,111.452057 495.532793,115.098275 C497.244371,116.224787 498.862472,117.54541 500.356092,119.02021 C502.05547,120.672479 503.581507,122.561109 504.917131,124.636868 C505.138759,124.98131 505.263224,125.363544 505.294336,125.749415 C507.9191,130.380966 509.416667,135.721071 509.416667,141.40625 C509.416667,159.130028 494.861722,173.5 476.911458,173.5 C471.152869,173.5 465.744212,172.021712 461.053469,169.42853 C460.669598,169.399602 460.289024,169.280346 459.94469,169.068362 C457.905002,167.812655 455.97514,166.293132 454.251785,164.591592 C452.662804,163.022724 451.232194,161.284109 450.026845,159.450962 C446.479597,154.309245 444.40625,148.096878 444.40625,141.40625 C444.40625,123.681014 458.958233,109.3125 476.911458,109.3125 Z M585.40625,109.3125 C592.240344,109.3125 598.575974,111.449188 603.781391,115.09094 C605.474858,116.219063 607.076206,117.542213 608.554116,119.02021 C610.231983,120.672479 611.738704,122.561109 613.057421,124.636868 C613.276432,124.981607 613.399344,125.364204 613.42993,125.750415 C616.021603,130.381739 617.5,135.721482 617.5,141.40625 C617.5,159.130028 603.129295,173.5 585.40625,173.5 C579.720779,173.5 574.380784,172.021829 569.749544,169.428838 C569.370457,169.399753 568.99444,169.28048 568.654251,169.068362 C566.640382,167.812655 564.734948,166.293132 563.033408,164.591592 C561.467948,163.026132 560.058177,161.291662 558.869707,159.462907 C555.362778,154.318879 553.3125,148.102066 553.3125,141.40625 C553.3125,123.681014 567.680281,109.3125 585.40625,109.3125 Z M693.40625,109.3125 C700.240344,109.3125 706.575974,111.449188 711.781391,115.09094 C713.474858,116.219063 715.076206,117.542213 716.554116,119.02021 C718.231983,120.672479 719.738704,122.561109 721.057421,124.636868 C721.276432,124.981607 721.399344,125.364204 721.42993,125.750415 C724.021603,130.381739 725.5,135.721482 725.5,141.40625 C725.5,159.130028 711.129295,173.5 693.40625,173.5 C687.720779,173.5 682.380784,172.021829 677.749544,169.428838 C677.370457,169.399753 676.99444,169.28048 676.654251,169.068362 C674.640382,167.812655 672.734948,166.293132 671.033408,164.591592 C669.467948,163.026132 668.058177,161.291662 666.869707,159.462907 C663.362778,154.318879 661.3125,148.102066 661.3125,141.40625 C661.3125,123.681014 675.680281,109.3125 693.40625,109.3125 Z M718.209504,130.181381 L682.181438,166.210299 C685.603736,167.761367 689.404061,168.625 693.40625,168.625 C708.436963,168.625 720.625,156.437585 720.625,141.40625 C720.625,137.404255 719.761043,133.603852 718.209504,130.181381 Z M284.209504,130.181381 L248.181438,166.210299 C251.603736,167.761367 255.404061,168.625 259.40625,168.625 C274.436963,168.625 286.625,156.437585 286.625,141.40625 C286.625,137.404255 285.761043,133.603852 284.209504,130.181381 Z M394.033161,130.18238 L357.542847,166.210347 C361.008992,167.761385 364.858001,168.625 368.911458,168.625 C384.134872,168.625 396.479167,156.437585 396.479167,141.40625 C396.479167,137.404644 395.604304,133.604592 394.033161,130.18238 Z M502.033161,130.18238 L465.542847,166.210347 C469.008992,167.761385 472.858001,168.625 476.911458,168.625 C492.134872,168.625 504.479167,156.437585 504.479167,141.40625 C504.479167,137.404644 503.604304,133.604592 502.033161,130.18238 Z M610.209504,130.181381 L574.181438,166.210299 C577.603736,167.761367 581.404061,168.625 585.40625,168.625 C600.436963,168.625 612.625,156.437585 612.625,141.40625 C612.625,137.404255 611.761043,133.603852 610.209504,130.181381 Z M601.944794,119.787446 L563.795224,157.956736 C565.488466,160.16445 567.512398,162.105199 569.793006,163.704959 L607.704356,125.793962 C606.101797,123.509522 604.157126,121.482538 601.944794,119.787446 Z M493.662107,119.7875 L455.023368,157.956736 C456.738212,160.164313 458.787944,162.104959 461.097615,163.704661 L499.495438,125.793962 C497.87235,123.509546 495.902772,121.482581 493.662107,119.7875 Z M385.662107,119.7875 L347.023368,157.956736 C348.738212,160.164313 350.787944,162.104959 353.097615,163.704661 L391.495438,125.793962 C389.87235,123.509546 387.902772,121.482581 385.662107,119.7875 Z M275.944794,119.787446 L237.795224,157.956736 C239.488466,160.16445 241.512398,162.105199 243.793006,163.704959 L281.704356,125.793962 C280.101797,123.509522 278.157126,121.482538 275.944794,119.787446 Z M709.944794,119.787446 L671.795224,157.956736 C673.488466,160.16445 675.512398,162.105199 677.793006,163.704959 L715.704356,125.793962 C714.101797,123.509522 712.157126,121.482538 709.944794,119.787446 Z M476.911458,114.1875 C461.685195,114.1875 449.34375,126.373346 449.34375,141.40625 C449.34375,145.841156 450.417861,150.028274 452.323276,153.727824 L489.377017,117.123186 C485.633285,115.245752 481.397371,114.1875 476.911458,114.1875 Z M368.911458,114.1875 C353.685195,114.1875 341.34375,126.373346 341.34375,141.40625 C341.34375,145.841156 342.417861,150.028274 344.323276,153.727824 L381.377017,117.123186 C377.633285,115.245752 373.397371,114.1875 368.911458,114.1875 Z M259.40625,114.1875 C244.372724,114.1875 232.1875,126.373346 232.1875,141.40625 C232.1875,145.840757 233.247824,150.027522 235.128803,153.726826 L271.714884,117.123626 C268.018328,115.245918 263.835725,114.1875 259.40625,114.1875 Z M585.40625,114.1875 C570.372724,114.1875 558.1875,126.373346 558.1875,141.40625 C558.1875,145.840757 559.247824,150.027522 561.128803,153.726826 L597.714884,117.123626 C594.018328,115.245918 589.835725,114.1875 585.40625,114.1875 Z M693.40625,114.1875 C678.372724,114.1875 666.1875,126.373346 666.1875,141.40625 C666.1875,145.840757 667.247824,150.027522 669.128803,153.726826 L705.714884,117.123626 C702.018328,115.245918 697.835725,114.1875 693.40625,114.1875 Z" id="Combined-Shape" fill="#000000"></path>
    </g>
</svg>