<?xml version="1.0" encoding="utf-8"?>
<!-- Generator: Adobe Illustrator 21.0.0, SVG Export Plug-In . SVG Version: 6.00 Build 0)  -->
<svg version="1.1" id="Layer_1" xmlns="http://www.w3.org/2000/svg" xmlns:xlink="http://www.w3.org/1999/xlink" x="0px" y="0px"
	 viewBox="0 0 1417.3 1417.3" style="enable-background:new 0 0 1417.3 1417.3;" xml:space="preserve">
<g>
	<path d="M913.3,1311.4H503.5c-4.6,0-9.2-0.7-13.5-2.2c-137.4-45.5-255.6-131.5-341.7-248.8C60.3,940.7,13.9,798.8,13.9,649.8
		c0-206.3,90.9-400.7,249.5-533.2c7.8-6.5,17.6-10.1,27.7-10.1h834.7c10,0,19.9,3.6,27.7,10.1c158.6,132.5,249.5,326.8,249.5,533.2
		c0,148.9-46.4,290.9-134.3,410.6c-86.1,117.3-204.3,203.3-341.7,248.8C922.5,1310.6,917.9,1311.4,913.3,1311.4z M291.1,129.5
		c-4.7,0-9.3,1.7-13,4.8C124.8,262.4,36.8,450.3,36.8,649.8c0,144,44.9,281.3,129.9,397c83.3,113.4,197.5,196.6,330.4,240.6
		c2,0.7,4.1,1,6.3,1h409.8c2.2,0,4.3-0.3,6.3-1c132.9-44,247.2-127.2,330.4-240.6c85-115.7,129.9-253,129.9-397
		c0-199.5-87.9-387.5-241.3-515.6c-3.7-3.1-8.3-4.8-13-4.8H291.1z"/>
</g>
<g>
	<g>
		<path d="M328.6,667.1c0.3-0.2,0.9-0.4,0.9-0.7c3.3-16.8,15.6-23.5,30.4-27.2c7.5-1.9,15.2-2.8,23.1-2.8c18.2,0,36.4,0,54.6,0.1
			c1.7,0,4-1,4.9,1c0.8,1.8-0.8,3.5-1.9,5c-4.6,6.6-11.1,10.1-18.9,11.2c-5.7,0.8-11.4,0.9-17.1,0.8c-7.1-0.1-13.8,1.4-20,4.8
			c-12.7,6.9-13.8,21.4-2.2,29.9c7.3,5.3,15.6,7.9,24.4,9.2c11.1,1.6,22,1.1,32.6-2.9c17.6-6.8,25.3-21.1,21.3-39.6
			c-2.1-9.6-5.7-18.7-9.2-27.9c-3.9-10.3-7.7-20.7-7.6-32c0.1-13.8,6.4-23.7,18.5-30.2c11.2-6,23.6-8,36-8.8
			c13.6-0.8,27.4-1.5,41,0.7c7.5,1.2,14.8,3.4,21,8c13.1,9.6,10.3,27.9-3.7,36.2c-1.3,0.8-2.7,0.8-4.2,0.8c-10.6,0-21.3,0.1-31.9,0
			c-4.8,0-4.9-0.3-2.7-4.9c3-6,6.1-12,9.1-18.1c0.8-1.5,1.4-3.5-1.3-3.4c-9,0.2-18-1-26.9,0.7c-7.6,1.5-10.7,5.5-10.6,13.3
			c0.1,6.4,2.6,12.3,4.6,18.3c4.5,13.1,10.3,25.7,13.2,39.4c4.9,23.5-3.2,41.8-24.1,53.7c-13.5,7.7-28.2,11.8-43.5,13.7
			c-25.6,3.1-51,1.6-75.5-7c-11.1-3.9-21.5-9-28.4-19.2c-2.7-3.9-3-8.8-5.7-12.5C328.6,673.7,328.6,670.4,328.6,667.1z"/>
	</g>
	<g>
		<path d="M768,693c7.2,0,14.3-0.2,21.5,0.1c3.9,0.2,5.6-1,7-4.9c12.1-34.7,24.5-69.2,36.6-103.9c1.5-4.3,3.4-6.1,8.1-5.9
			c9.6,0.4,19.2,0.1,28.8,0.1c5.1,0,5.2,0.1,3.4,5c-9.9,27.9-19.9,55.7-29.9,83.6c-2.4,6.7-4.8,13.4-7.1,20.2
			c-1.8,5.1-1.7,5.2,3.5,5.3c8.2,0.1,16.4-0.2,24.5,0.1c3.6,0.1,5-1.3,6.1-4.5c12-34.3,24.1-68.5,36.3-102.7c2.8-7.9,0.8-7,9.6-7
			c8.8,0,17.6,0,26.4,0c6.4,0,6.4,0.1,4.4,5.8c-9.7,27.3-19.5,54.6-29.2,81.9c-2.7,7.5-5.2,15-8,22.5c-1.1,3-0.5,4,2.7,4
			c7.6-0.1,15.1-0.1,22.7,0c3,0.1,4-1.2,4.9-4c5.5-16,11.4-31.9,17-47.9c1.2-3.3,2.6-4.9,6.5-4.8c10.4,0.3,20.9,0.1,31.3,0.1
			c5,0,5,0.1,3.2,5c-5.6,15.6-11.2,31.1-16.8,46.7c-1.6,4.6-1.6,4.7,3.3,4.7c5.5,0,12,1.6,16.2-0.8c4.3-2.4,4.5-9.6,6.3-14.7
			c4.5-12.3,8.9-24.6,13.1-36.9c1-3.1,2.5-4.1,5.7-4.1c10.6,0.2,21.3,0.2,31.9,0c3.9-0.1,4.4,1,3.1,4.5
			c-5.5,15.1-10.8,30.4-16.2,45.6c-2.3,6.5-2.3,6.5,4.9,6.5c11.5,0,22.9,0,34.4,0c4.6,0,4.6,0.2,2.5,4.4
			c-4.8,9.7-13.1,13.6-23.5,13.8c-7,0.1-13.9,0.3-20.9-0.1c-4.1-0.2-6.2,1-7.6,5c-3.4,9.4-7.7,18.5-13.2,26.9
			c-8.8,13.4-20.6,22.5-37.1,24.4c-5.6,0.6-11.1,0.3-16.3-1.4c-13-4.2-19.7-16.6-16.9-31.4c1.4-7.3,3.9-14.2,9-19.8
			c0.7-0.7,1.7-1.5,1.4-2.5c-0.5-1.6-2-1-3.1-1c-4.1-0.2-8.2-0.6-11.8-2.8c-2-1.3-3.8-1-5.8-0.1c-5.5,2.4-11.4,2.9-17.4,2.9
			c-12.3,0-24.5,0-36.8,0c-5.3,0-10.7-0.1-15.3-3.3c-1.8-1.3-3.1-0.3-4.5,0.3c-5.5,2.5-11.3,3.3-17.3,3.3
			c-77.3-0.1-154.6,0-231.9-0.1c-2.9,0-5.7,0.1-8.5-0.6c-5.9-1.6-8-4.5-7.3-10.7c0.8-7,3.9-13.3,5.9-19.9c0.5-1.6,1.1-3.1,1.6-4.6
			c0.1-0.5,0.1-1.4-0.2-1.7c-0.7-0.8-1.5-0.1-2,0.4c-2.2,1.8-4.4,3.6-6.7,5.4c-10.1,8.3-20.2,16.6-30.2,25
			c-5.6,4.7-11.8,7.1-19.1,6.9c-5.3-0.2-10.6-0.2-15.9,0c-3.6,0.2-4.1-0.9-2.9-4.2c5.2-14.2,10.1-28.5,15.1-42.7
			c9.6-26.9,19.2-53.8,28.6-80.8c1.3-3.7,2.8-5.2,6.8-5.1c9.8,0.3,19.6,0.1,29.5,0.1c5.2,0,5.3,0.1,3.6,5
			c-8.4,23.9-16.8,47.7-25.2,71.6c-1.2,3.5-2.5,6.9-3.7,10.4c-0.4,1.1-1.1,2.3-0.1,3.3c0.2,0.2,1.7-0.9,2.4-1.5
			c8.6-7,17.1-14,25.6-21c9.1-7.5,19.7-10.6,31.4-10c10.5,0.5,14.1,5.5,10.8,15.3c-4.1,12.2-8.5,24.3-12.7,36.4
			c-1.7,4.8-1.6,4.9,3.6,4.9c9,0,18-0.1,27,0c2.9,0,3.9-0.6,3-3.9c-4.9-18.3,1-33,16.9-43.2c9-5.8,18.9-9.1,29.4-9.4
			c12.6-0.3,25.3-1.3,37.9,1c4.8,0.9,9.5,2.4,13.8,4.8c14.1,7.8,14.7,26,0.9,34.4c-8.8,5.3-18.6,8.4-28,12.4
			c-1.7,0.7-3.4,1.3-5.1,2.1c-0.7,0.3-4.2,1.8-4.2,1.8s3.7,0.1,4.4,0.1C752,693.1,760,693,768,693z M739,654.4c-1.6,0-3.3,0.2-4.9,0
			c-4.5-0.6-7,0.7-8.2,5.7c-1.5,6.3-4.1,12.4-6.1,18.6c-3.1,9.3-0.2,13.7,9.4,14.3c1.2,0.1,2.2,0.1,3.7,0.1c3.1-0.1,4.7-0.7,5.8-3.8
			c3.4-10,7.2-19.9,10.7-29.9c1.7-4.7,1.6-4.8-3.7-4.9C743.5,654.4,741.3,654.4,739,654.4z M992.1,714.1c-0.8,0.3-1.9,0.6-2.7,1.1
			c-8.6,5.5-13.5,13.3-13.9,23.6c-0.1,3.2,1.2,5.9,3.3,8.3c1.7,2,3,2.5,4.1-0.6c2.3-6.7,4.9-13.3,7.3-20c1.2-3.2,2.5-6.4,3.5-9.7
			C994.1,715.7,994.8,713.8,992.1,714.1z"/>
	</g>
</g>
</svg>
