<?xml version="1.0" encoding="UTF-8"?>
<svg width="960px" height="960px" viewBox="0 0 960 960" version="1.1" xmlns="http://www.w3.org/2000/svg" xmlns:xlink="http://www.w3.org/1999/xlink">
    <!-- Generator: Sketch 60.1 (88133) - https://sketch.com -->
    <title>light_shelly_vintage_G125</title>
    <desc>Created with Sketch.</desc>
    <g id="light_shelly_vintage_G125" stroke="none" stroke-width="1" fill="none" fill-rule="evenodd">
        <path d="M478.5,-1.5 C660.199345,-1.5 807.5,145.677603 807.5,327.235602 C807.5,421.783736 767.318491,509.889836 698.298108,571.848285 L698.529,571.639 L696.891563,573.259421 C682.894569,587.059041 670.756998,598.105938 659.340193,607.186185 L658.580128,607.78863 L657.837895,608.372927 C649.567745,614.86108 642.39302,621.694748 636.157832,628.896799 C626.367611,640.205145 619.095768,652.1069 613.089986,665.647201 C610.771643,670.874009 608.725443,676.119645 606.37701,682.677752 C606.368523,682.70145 602.548979,693.582306 601.075348,697.592467 L601.075348,697.592467 L600.603056,698.855724 C600.460911,699.230541 600.320266,699.597821 600.180702,699.958547 L600.180702,699.958547 L599.991137,700.442013 C593.639571,716.429879 577.792406,735.734214 552.321123,759.210747 L552.321123,759.210747 L551.7,759.782 L551.073649,766.230552 C550.157496,775.809032 549.800199,780.418531 549.616415,784.36255 L549.616415,784.36255 L549.473331,788.003874 C549.401523,789.822235 549.329952,791.244251 549.208424,793.14086 L549.208424,793.14086 L549.055853,795.434602 C548.804367,799.365649 548.574756,805.458757 548.374547,813.0013 L548.374547,813.0013 L548.179904,821.213208 C548.045945,827.539748 547.933308,834.600499 547.888937,838.46719 L547.888937,838.46719 L547.865062,841.155677 C547.787621,844.985819 546.621749,847.238001 544.129048,850.946234 C542.934784,852.722866 541.39256,854.753103 539.665751,856.855288 C537.638744,859.322928 535.641993,861.583656 533.812772,863.421028 C533.956087,863.620301 534.026626,863.872348 533.990769,864.133771 L533.969138,864.244883 L533.918488,864.432223 L533.887228,864.536061 L533.852004,864.638611 C533.162045,866.528334 532.542058,869.038031 531.997893,872.149286 L531.896752,872.739692 L531.832331,873.128557 C531.204702,876.796705 530.682714,881.150521 530.266128,886.164623 C529.889986,890.786511 529.62664,895.669492 529.487173,900.586595 L529.445287,902.226582 C529.306387,906.772549 529.26687,911.482411 529.325783,916.120369 L529.357055,918.102976 L529.384356,919.408832 L529.39848,920.280653 L529.447964,920.41034 C529.701101,921.149085 529.64381,921.963523 529.25333,922.675457 L529.148756,922.851202 L529.030219,923.022058 L528.922429,923.155259 L528.845709,923.24126 L514.57688,938.573542 L514.491514,938.700938 L514.440237,938.769551 L514.385179,938.838651 L514.261549,938.980565 L514.146333,939.097331 L514.062445,939.174831 L509.209478,943.475629 L496.625132,954.638784 L496.522106,954.72448 L496.294437,954.901864 L496.208223,954.977641 L495.774824,955.345605 C492.088655,958.396787 488.285363,959.513043 479.850307,959.928757 L478.836306,959.974507 L478.174074,960 L477.806052,960 L476.777022,959.958134 C467.710574,959.559123 463.840514,958.419002 460.002129,955.158708 L459.788885,954.975391 L459.746062,954.936198 L459.454248,954.704857 L459.360854,954.626325 L446.792554,943.47661 L441.938235,939.17489 C441.733269,938.993257 441.5587,938.788484 441.407706,938.546757 L441.304427,938.367544 L428.069455,923.804632 C427.352579,923.421337 426.839964,922.747715 426.655862,921.944183 L426.619265,921.75652 L426.594674,921.564684 L426.585377,921.399356 L426.584526,921.277477 L426.615001,919.393181 L426.641756,918.086089 L426.67022,916.128875 C426.718387,911.823976 426.678853,907.112902 426.553556,902.221068 C426.399345,896.742882 426.120346,891.278911 425.733259,886.169789 C425.342224,881.452059 424.856306,877.315611 424.273267,873.767132 L424.162809,873.108684 C423.666628,870.06807 423.051521,867.399221 422.364205,865.283016 L422.225793,864.867197 L422.103645,864.508024 C420.246069,862.735521 418.177926,860.455339 416.058324,857.918349 L416.058324,857.918349 L415.334249,857.044221 C413.60744,854.942037 412.065216,852.911799 410.870952,851.135168 C408.289226,847.294497 407.130795,845.01574 407.130843,840.962779 L407.130843,840.962779 L407.114097,838.934135 C407.088216,836.592745 407.035008,832.960874 406.966082,829.008107 L406.966082,829.008107 L406.796024,820.282969 C406.559836,809.461715 406.270399,800.723272 405.944147,795.623535 L405.944147,795.623535 L405.825997,793.859472 C405.69497,791.869376 405.618465,790.433047 405.546285,788.679552 L405.546285,788.679552 L405.421292,785.408241 C405.249839,781.273321 404.912463,776.738103 403.939029,766.552089 L403.939029,766.552089 L403.112562,758.093749 L403.05041,757.518361 L403,757.094 L402.447925,756.578556 C378.644075,734.296562 363.733813,715.851235 357.612804,700.449073 L357.612804,700.449073 L357.420437,699.958547 C357.350655,699.778184 357.280603,699.596182 357.210228,699.412419 L357.210228,699.412419 L356.783688,698.287722 C355.718913,695.45374 352.253276,685.605571 351.410227,683.207306 L351.410227,683.207306 L350.560877,680.838603 C348.483476,675.120647 346.608702,670.376218 344.511153,665.647201 C338.505372,652.1069 331.233528,640.205145 321.443307,628.896799 C315.208119,621.694748 308.033394,614.86108 299.763244,608.372927 C289.322186,600.181639 278.251059,590.296228 265.8379,578.265044 L265.8379,578.265044 L264.189,576.662 L262.352945,575.076131 C191.906644,513.696856 150.345185,425.329588 149.512748,330.151328 L149.512748,330.151328 L149.5,327.235602 C149.5,145.677603 296.800655,-1.5 478.5,-1.5 Z M492.02424,945.288502 L490.246886,945.322713 L488.553094,945.346424 L481.695293,945.404992 L478.905441,945.414523 L473.877037,945.399881 L469.060021,945.359435 C468.036761,945.350182 467.036195,945.337586 466.061074,945.321689 L464.336675,945.289502 L467.046192,947.748223 C468.883206,949.375045 471.058525,949.94392 477.594411,950.230655 L478.017556,950.248582 L478.143309,950.256795 L478.893874,950.225252 C484.989377,949.949836 487.259044,949.419977 488.992268,948.027806 L489.10965,947.931541 L489.34868,947.72509 L489.724056,947.387897 L492.02424,945.288502 Z M521.251981,870.168394 L521.223805,870.176324 C518.206293,870.86717 514.548564,871.464501 510.165679,872.052646 L510.165679,872.052646 L508.405461,872.283531 C501.172832,873.211943 493.371423,873.872991 485.873246,874.156617 L485.873246,874.156617 L485.649,874.164 L485.388512,874.2231 L485.063936,874.284515 C484.344011,874.386943 484.119035,874.418952 483.949954,874.434456 L483.949954,874.434456 L483.593997,874.457113 L483.046589,874.480038 C482.872734,874.484105 482.662833,874.486913 482.388355,874.489173 L482.388355,874.489173 L477.009975,874.5 C470.467567,874.5 463.416342,874.153436 456.516043,873.543778 C455.459777,873.503588 454.414667,873.461387 453.380408,873.416843 L451.530062,873.334101 L450.057182,873.26396 L447.815933,873.149132 C443.753412,872.931806 439.948784,872.677169 436.443163,872.387252 L435.405348,872.298944 L435.511954,872.941585 C435.591273,873.431032 435.668894,873.931229 435.744867,874.442452 L435.857596,875.217589 L435.977459,876.080921 L436.429417,876.121373 C439.844033,876.413697 443.560039,876.670737 447.532877,876.890153 L449.725083,877.006089 L451.918639,877.112269 C461.48082,877.554848 472.261415,877.789326 482.692148,877.789326 C484.121717,877.789326 485.301575,878.873964 485.461363,880.298175 L485.475592,880.470662 L485.478579,880.596229 L485.478579,883.720528 C485.478579,885.266328 484.235584,886.527432 482.692148,886.527432 C472.907689,886.527432 462.70995,886.315972 453.383358,885.914711 L451.530035,885.831935 L450.001776,885.759099 L447.731683,885.642551 C444.366407,885.462077 441.182076,885.256241 438.199717,885.025943 L436.938686,884.924867 L437.015188,885.816236 L437.089695,886.793015 L437.223233,888.684844 L438.041116,888.752844 C441.055869,888.994658 444.285453,889.209918 447.698941,889.397071 L450.001505,889.517659 L451.918724,889.609789 C461.4761,890.05244 472.254169,890.286842 482.692148,890.286842 C484.121717,890.286842 485.301575,891.37148 485.461363,892.795691 L485.475592,892.968178 L485.478579,893.093745 L485.478579,896.218364 C485.478579,897.764164 484.235584,899.025267 482.692148,899.025267 C472.91638,899.025267 462.716554,898.813821 453.38408,898.412793 L451.529533,898.330066 L449.974676,898.255672 C446.079286,898.063617 442.416474,897.839718 439.012992,897.585023 L437.692787,897.482791 L437.748889,898.920861 L437.802268,900.481519 L437.823497,901.231768 L438.078103,901.253293 C441.101191,901.495566 444.346212,901.711461 447.787801,901.899801 L450.111036,902.021266 L451.918554,902.108255 C461.478798,902.55045 472.258397,902.784677 482.692148,902.784677 C484.121717,902.784677 485.301575,903.869315 485.461363,905.293526 L485.475592,905.466013 L485.478579,905.59158 L485.478579,908.716199 C485.478579,910.261999 484.235584,911.523103 482.692148,911.523103 C472.907689,911.523103 462.70995,911.311643 453.383245,910.910377 L451.529898,910.827599 L449.867067,910.748127 L447.474653,910.624327 C444.717427,910.474951 442.080209,910.308337 439.576414,910.125102 L437.976328,910.003715 L437.978828,910.498803 C437.980916,911.187182 437.981162,911.884231 437.97958,912.591327 L437.968285,914.830686 L441.626126,915.08738 L444.861992,915.271397 L449.074264,915.486836 L452.560041,915.643889 L458.413015,915.847626 L458.713886,915.859858 L466.293449,916.048781 L468.014739,916.079656 L474.997709,916.16797 L477.429681,916.183457 L479.951883,916.178695 L482.320502,916.157035 L489.341899,916.062443 L497.550697,915.861174 L498.980088,915.806969 L503.788692,915.64189 L508.835906,915.406291 L512.125278,915.232967 L515.241789,915.050855 L516.552711,914.961483 L518.327275,914.833686 L518.320376,914.122964 C518.301713,911.560731 518.315064,908.92112 518.360129,906.250578 L518.390971,904.644913 L518.42941,903.034054 L518.510201,900.241152 C518.659747,895.512397 518.866583,891.387419 519.143912,887.669808 L519.25124,886.294416 L519.291931,885.803434 C519.710241,880.749343 520.245608,876.170344 520.883277,872.219854 C521.000452,871.520789 521.123447,870.836549 521.251981,870.168394 Z M522.949736,833.80391 L522.242184,833.944463 C511.750185,836.015915 499.015236,837.168202 483.992596,837.438004 L483.503,837.446 L483.503632,837.5 L469.496719,837.5 L469.496,837.446 L469.007404,837.438004 C454.596771,837.179193 442.291228,836.108336 432.051286,834.193056 L432.103,837.884 L432.325484,838.192085 C432.898958,838.97788 433.603284,839.887308 434.38547,840.849147 L434.38547,840.849147 L435.065921,841.675387 C436.174859,843.00545 437.324059,844.305938 438.31789,845.357203 L438.31789,845.357203 L438.783,845.842 L439.816036,846.071187 L440.555046,846.222404 C443.000089,846.7088 446.197385,847.216358 449.777531,847.675921 C456.268483,848.509128 463.304153,849.10481 470.002473,849.360625 L470.002473,849.360625 L470.972,849.394 L471.214793,849.35831 C471.394264,849.33401 471.455664,849.334102 471.518974,849.340628 L471.518974,849.340628 L471.556187,849.344933 C471.633805,849.341689 471.685551,849.339526 471.725104,849.337954 L471.725104,849.337954 L472.508459,849.322834 L477.990025,849.311067 C486.60089,849.311067 496.413319,848.617769 505.222469,847.486988 C509.013212,847.000392 512.374739,846.459988 514.868548,845.94787 L514.868548,845.94787 L515.183964,845.882254 C515.492325,845.817255 515.779278,845.754189 516.042629,845.693811 L516.042629,845.693811 L516.216,845.653 L516.68211,845.16827 C517.80017,843.985596 519.114869,842.4875 520.347661,840.986722 L520.347661,840.986722 L520.673047,840.588175 C521.529133,839.533084 522.289405,838.543564 522.883332,837.714413 L522.883332,837.714413 L522.896,837.696 L522.938751,834.549556 C522.942298,834.305288 522.945961,834.056618 522.949736,833.80391 Z M485.471633,764.389583 L484.358,764.415 L484.358504,764.5 L468.641542,764.5 L468.641,764.415 L468.570701,764.414421 C452.900973,764.065975 439.534412,762.651114 428.433816,760.126723 C429.717274,773.282639 430.162189,778.905178 430.382251,783.957982 L430.382251,783.957982 L430.54662,788.158422 C430.59795,789.336065 430.654165,790.381089 430.737706,791.688897 L430.737706,791.688897 L430.913096,794.344635 C431.251197,799.78927 431.535266,808.308712 431.770248,818.838903 C442.56369,821.171158 456.717147,822.410778 474.15378,822.495358 L476.08,822.5 L478.872073,822.495232 C497.399165,822.404132 512.218169,821.008556 523.236781,818.384179 L523.241949,818.107157 C523.474544,807.826948 523.754632,799.506473 524.086904,794.155701 L524.086904,794.155701 L524.194164,792.53627 C524.329749,790.52339 524.403061,789.194226 524.472444,787.520883 L524.472444,787.520883 L524.54938,785.50946 L524.636812,783.342333 C524.833027,779.058658 525.200658,774.233174 526.104986,764.716182 L526.104986,764.716182 L526.597453,759.646182 C515.348941,762.41303 501.654265,763.978019 485.471633,764.389583 Z M478.5,549 C460.856128,549 446.516294,562.675901 446.011064,579.62186 L446,580.136364 L445.999872,747.901294 C454.365267,748.902259 463.892062,749.438544 474.567201,749.495018 L476.537934,749.5 L478.456044,749.494894 C490.862668,749.42844 501.717723,748.713716 511.000702,747.374486 L511.000298,580.684838 L510.993,580.039 L510.982664,579.582897 C510.423569,562.801331 496.410499,549.278475 479.038343,549.004246 L478.5,549 Z M478.5,23.5 C310.603099,23.5 174.5,159.489401 174.5,327.235602 C174.5,417.114299 213.783441,500.589455 280.778955,557.957251 L280.778955,557.957251 L281.088398,558.222224 L283.169948,560.24811 C295.033468,571.749335 305.508412,581.104761 315.194335,588.703625 L315.194335,588.703625 L316.288526,589.568255 C325.362833,596.790702 333.340073,604.443315 340.34409,612.533412 C351.856043,625.830472 360.406745,639.825322 367.364034,655.510838 C369.706139,660.791218 371.767605,666.003606 374.006911,672.160702 L374.006911,672.160702 L374.760562,674.249445 C374.853672,674.509459 379.085346,686.564397 380.186396,689.494926 L380.186396,689.494926 L380.555734,690.468853 L380.876204,691.293756 C385.591144,703.095067 399.745563,720.219939 423.216912,741.739747 L423.216912,741.739747 L425.542531,743.872505 C428.152324,744.658099 430.971692,745.36325 433.999651,745.986815 L434,580.057309 C434.315267,556.171186 454.169832,537 478.5,537 C500.591572,537 518.963314,552.795253 522.416747,573.541201 L522.51,574.136 L523,574.136364 L523.001079,745.085771 C527.330488,744.021725 531.173451,742.769032 534.52647,741.331746 L534.982152,741.133954 L535.000844,741.174381 C558.327268,719.709927 572.326429,702.668303 576.864922,690.937771 L576.864922,690.937771 L577.045406,690.468853 L577.470432,689.346093 C577.683362,688.774905 577.991145,687.927123 578.353186,686.919576 L578.353186,686.919576 L583.219285,673.195805 C585.605349,666.58255 587.764883,661.084573 590.237105,655.510838 C597.194394,639.825322 605.745096,625.830472 617.257049,612.533412 C624.541227,604.119711 632.878043,596.179192 642.406804,588.703625 L642.406804,588.703625 L643.760887,587.634024 C654.405965,579.168562 665.960369,568.650545 679.418208,555.379402 L679.418208,555.379402 L681.366948,553.451761 L683.503586,551.519329 C746.129186,494.350702 782.5,413.735325 782.5,327.235602 C782.5,159.489401 646.396901,23.5 478.5,23.5 Z M499.421721,120 C509.579973,120 523.516845,122.963483 528.565308,128.272086 C531.854095,131.730338 532.676157,136.665239 530.046624,140.995799 C528.331281,143.820786 525.514655,145.861249 521.514506,147.713062 L520.857718,148.010274 C514.25828,150.930813 503.491669,153.792452 487.930812,156.709109 L481.709717,157.861751 C465.466497,160.892272 453.457965,163.388499 444.220307,165.709839 L443.205229,165.967064 C439.453886,166.925775 436.221483,167.846577 433.510273,168.729262 L432.946,168.914 L433.792377,169.163479 C441.616565,171.425709 453.552282,173.816583 469.790401,176.324423 L474.399089,177.02691 C495.41868,180.246883 511.165813,183.398203 521.935518,186.555816 C527.808497,188.277739 532.337853,190.035467 535.65777,191.946691 C540.427893,194.692778 543.496303,198.121166 543.762841,203.026481 C544.041611,208.156896 541.118396,211.89906 536.463127,214.794694 C533.483867,216.64783 529.461998,218.332687 524.284499,219.973265 L523.657645,220.169929 C513.792916,223.234535 499.408766,226.278757 480.295447,229.396104 L477.472921,229.855421 C458.564549,232.954135 445.008221,235.777341 435.750976,238.613086 C431.34087,239.964021 428.014627,241.291412 425.823851,242.530215 L425.589,242.665 L425.664026,242.726422 C427.360898,244.099035 429.976081,245.708646 433.493186,247.485218 L434.453841,247.963563 L435.287513,248.368312 C445.311081,253.1812 460.964894,258.824889 482.826363,265.480621 L486.422365,266.576701 C505.439639,272.414426 518.925042,277.325012 527.585611,281.549974 L527.981906,281.744486 C532.806065,284.126972 536.310235,286.386649 538.692095,288.793531 C542.366029,292.50606 543.915299,297.24496 541.754226,302.03292 C539.190093,307.713878 533.325262,310.243732 522.768582,312.499748 L522.236832,312.612334 C515.399568,314.046794 507.138703,315.212996 493.59392,316.792224 L466.040332,319.969685 C451.437134,321.681525 442.679582,322.838197 435.016792,324.156968 L434.2278,324.294 C432.97753,324.513133 431.790431,324.732382 430.667076,324.951764 L429.515,325.181 L429.544456,325.19075 C439.196016,328.159274 454.121411,331.548481 474.666716,335.361637 L480.310666,336.400962 C499.099212,339.879399 512.975351,342.86749 522.524398,345.472985 L522.998248,345.602942 C534.750752,348.842883 540.429534,351.351992 542.911839,356.107457 C545.664793,361.381416 543.252677,366.278201 538.938263,368.993799 C536.947097,370.247087 534.443285,371.161015 531.161099,372.00223 L530.195726,372.242213 C526.03125,373.24664 520.710926,374.147076 512.889641,375.243888 L507.830219,375.934022 C503.884571,376.461343 497.359949,377.325539 495.549539,377.571256 L491.804858,378.087644 C485.105133,379.02791 479.972149,379.84678 475.4113,380.730613 L472.227073,381.35174 C448.997118,385.914053 434.344466,389.500749 426.932681,392.89791 L426.749,392.982 L426.822598,393.015201 C435.043065,396.673841 451.163299,400.611633 475.626698,404.64204 L480.081512,405.372632 C499.925085,408.669532 514.182927,411.860856 523.501002,415.042133 C528.529041,416.758753 532.310511,418.527789 535.035906,420.529666 C538.985713,423.430906 541.320517,427.282522 540.748048,431.985574 C540.256895,436.020582 537.864143,438.955887 534.319357,441.373581 C532.032347,442.93342 529.138443,444.33413 525.557289,445.70879 L524.770536,446.006527 C519.867262,447.836052 513.981985,449.554849 505.623033,451.708338 L490.762037,455.455528 L489.136407,455.875996 C485.475193,456.831075 482.719983,457.609534 480.504413,458.326553 L472.82904,460.815672 C457.533911,465.786229 442.572488,470.710703 427.944795,475.58908 C423.753461,476.986902 419.222556,474.722313 417.824734,470.53098 C416.426913,466.339646 418.691502,461.808741 422.882835,460.41092 L430.244029,457.961388 C442.558985,453.872474 455.105433,449.751753 467.883388,445.599216 L475.577941,443.103877 C478.129493,442.278125 481.134687,441.428264 485.049949,440.406531 L493.286693,438.318867 C496.056008,437.624172 498.768207,436.945047 499.601248,436.733454 L502.134925,436.084144 C509.902713,434.07423 515.285508,432.488469 519.493657,430.897132 L519.901,430.741 L519.537579,430.607803 L518.744102,430.326224 L518.331433,430.183981 L517.547173,429.920753 C509.024653,427.107671 495.471928,424.125 476.525226,421.001729 L472.965009,420.419243 C446.641321,416.08104 429.243969,411.778071 419.551466,407.285237 C413.644475,404.547128 409.794647,401.461142 408.151329,397.09428 C406.047227,391.502954 408.346268,386.441276 412.921516,382.755428 C417.856638,378.779663 426.348744,375.560093 438.772409,372.30883 L440.421664,371.882667 L441.465147,371.618182 C448.780582,369.777767 456.382809,368.154933 467.71554,365.929815 L472.367335,365.022836 C477.747188,363.98029 483.729311,363.044526 491.76313,361.939882 L508.171175,359.744128 L510.33647,359.445175 L511.79,359.239 L510.207008,358.860568 C501.414861,356.780442 489.916407,354.431339 475.501612,351.783942 L471.000999,350.954298 C446.640753,346.41594 429.859761,342.420243 419.751497,338.800929 L418.662206,338.40316 C413.505184,336.481353 409.904627,334.560799 407.518144,332.227483 C402.901211,327.71341 402.771329,321.162829 407.457053,316.72857 C411.330164,313.063315 418.357877,310.894819 430.201096,308.758998 L432.292418,308.390599 C439.761871,307.104532 448.041493,305.989951 461.153176,304.434985 L493.13097,300.737038 C505.381215,299.294928 512.957514,298.2108 518.951551,296.953249 L520.167031,296.690056 C520.363578,296.646098 520.557099,296.6021 520.747579,296.558069 L521.483,296.383 L520.896977,296.090349 L520.180784,295.741231 C512.510016,292.049239 500.086897,287.529557 482.51823,282.115631 L476.257245,280.203537 C454.020171,273.381474 438.017956,267.538343 427.401811,262.325626 C421.460911,259.408538 417.020067,256.606462 413.928709,253.713787 C409.777472,249.829353 407.588104,245.321161 408.417045,240.265377 C409.748524,232.144568 417.336893,227.519958 431.064685,223.314763 L432.054253,223.015958 C442.244357,219.982434 456.397915,217.076702 475.8042,213.915918 L479.519243,213.309122 C497.055344,210.406605 510.19588,207.59769 518.910824,204.89028 C519.970643,204.561033 520.956333,204.235628 521.865974,203.916014 L522.697,203.617 L522.431949,203.521443 C521.105724,203.045254 519.606648,202.556084 517.939193,202.058891 L517.43391,201.909497 C507.31348,198.942247 491.85585,195.864987 470.975211,192.689622 L467.361243,192.139007 C447.16141,189.020447 433.137757,186.033601 424.498224,182.992328 L424.131252,182.861954 C418.833108,180.962141 415.171438,178.932931 412.817019,176.114958 C408.846091,171.362207 409.476193,165.305134 413.702128,161.079806 C420.303482,154.479401 438.283038,149.687926 478.318797,142.217669 L485.131489,140.955098 C492.931487,139.489901 499.350598,138.060736 504.415304,136.695017 L505.273,136.46 L504.960702,136.419034 C503.008656,136.171224 501.17919,136.023863 499.766138,136.002658 L499.421721,136 C495.003443,136 491.421721,132.418278 491.421721,128 C491.421721,123.581722 495.003443,120 499.421721,120 Z M414.412,417.175 L414.966749,417.430925 L415.713101,417.764494 C426.314602,422.423806 443.337255,426.639076 468.385152,430.849639 L469.283135,431.000015 L472.075,431.459 L464.733977,433.833934 L458.186,435.959 L444.027503,432.364553 L443.368644,432.191423 C437.71539,430.701002 433.530256,429.468569 430.025406,428.249909 L429.623974,428.109341 L428.411519,427.672164 L427.281531,427.246051 L426.708006,427.02204 C423.69097,425.828094 421.338901,424.644803 419.495521,423.381896 C417.005254,421.675803 415.378074,419.822472 414.569538,417.640016 L414.464353,417.340352 L414.412,417.175 Z M533.376,382.865 L533.263178,383.184999 L533.151628,383.470584 C531.805955,386.778544 528.870389,389.352401 523.81664,391.772301 L523.36521,391.985437 L522.946658,392.177759 L522.51758,392.369855 C518.60845,394.097705 513.418325,395.79841 506.894125,397.483151 L506.163722,397.67028 L505.647,397.8 L503.225629,397.290836 C497.243267,396.05187 490.532561,394.810995 483.044663,393.558184 L481.855897,393.360271 L476.655575,392.508641 L474.536,392.153 L478.027062,391.473784 L478.913256,391.307211 L480.285125,391.057814 C483.057272,390.563711 486.18291,390.064241 489.931191,389.51701 L490.689229,389.406914 L494.07397,388.927672 L510.08879,386.785394 L514.997454,386.113267 L516.927403,385.838045 L518.879045,385.551571 C524.972477,384.642462 529.290949,383.850803 532.919399,382.977259 L533.30557,382.883343 L533.376,382.865 Z M411.434,347.541 L411.771409,347.682175 L412.435619,347.952524 C412.884008,348.13257 413.343667,348.312295 413.815238,348.492002 L414.531607,348.761588 L415.689097,349.18345 L416.568513,349.49327 L417.550191,349.829416 C424.357871,352.127245 433.375048,354.500414 444.836047,357.012072 L445.722486,357.205551 L447.782,357.649 L446.950536,357.834494 L445.729272,358.110424 C442.906659,358.753056 440.264705,359.389193 437.627748,360.059752 L436.497417,360.349361 L434.803387,360.792508 L433.52104,361.13612 L432.178,361.504 L431.798353,361.44404 C428.098922,360.847638 425.236057,360.294156 422.831903,359.708483 L422.435393,359.61056 L422.041307,359.510503 L421.528117,359.375765 L421.047741,359.24455 C418.528813,358.542342 416.692866,357.799015 415.239645,356.880215 C411.843013,354.732695 410.295222,351.380505 411.317663,347.901919 L411.397073,347.647178 L411.434,347.541 Z M536.191,320.292 L536.007541,320.66689 C535.528451,321.586838 534.881013,322.456807 534.076017,323.247403 C532.084192,325.203594 529.012108,326.901431 524.296491,328.670001 L523.802783,328.853222 L523.269318,329.047087 L522.352951,329.370756 L521.764991,329.572642 C520.375491,330.044742 518.862804,330.52408 517.226164,331.010743 L516.517156,331.219762 L516.041,331.357 L513.856196,330.850891 C510.068481,329.984572 505.898116,329.085281 501.328871,328.149506 L500.267342,327.932909 L497.868,327.449 L499.145054,327.297049 C510.387857,325.946973 517.466439,324.898664 523.481866,323.687585 L523.864416,323.610057 L525.682272,323.227537 L526.435425,323.061643 C529.914129,322.284316 532.89175,321.461602 535.496683,320.543483 L536.049225,320.345265 L536.191,320.292 Z M430.479,276.008 L430.82434,276.154075 L432.415906,276.816114 C436.708123,278.582144 441.516811,280.408474 446.878638,282.309429 L447.958389,282.69062 L448.208,282.778 L447.512253,283.024578 L446.101787,283.528895 C440.088186,285.695997 435.23435,287.667955 431.524085,289.449478 L431.084341,289.662346 L430.675087,289.863708 L427.726121,291.346251 L430.959407,292.119096 L431.527819,292.249478 L432.109618,292.378399 L432.70567,292.506112 L433.906764,292.752168 C436.086946,293.186347 438.513979,293.604243 441.370723,294.034712 L442.037682,294.134288 L443.839,294.395 L442.519206,294.573819 C438.931261,295.06521 435.788589,295.533204 432.829842,296.014942 L432.093835,296.135685 L430.641183,296.379403 L428.12398,296.819587 L426.791116,297.062859 L426.037629,297.203866 L424.575839,297.485413 C421.472559,298.095114 418.779018,298.704286 416.382069,299.342955 L415.834141,299.490878 L415.802,299.499 L415.609839,299.331584 L415.314088,299.055528 C414.350363,298.122374 413.60662,297.057968 413.04809,295.814964 C411.342801,292.019854 412.349136,288.07035 415.649497,284.720346 C417.530474,282.811076 420.279525,280.950926 424.15552,278.956789 L424.645908,278.706811 L425.538895,278.262711 L426.144691,277.968963 C427.168691,277.477267 428.264408,276.97499 429.432186,276.462067 L430.141503,276.153035 L430.479,276.008 Z M526.88,230.854 L527.208169,231.082316 L527.549905,231.330422 C530.689518,233.657974 532.433685,236.322169 532.972215,239.621452 C533.642066,243.725274 532.001549,247.57298 528.230461,251.117539 C525.628093,253.563583 521.876792,255.992289 516.741562,258.564936 L516.165273,258.851386 L515.516263,259.16877 L514.852638,259.487914 C513.73439,260.021299 512.555061,260.562098 511.313737,261.110697 L510.561497,261.440795 L510.148,261.619 L509.643778,261.443369 L507.753091,260.793916 C503.919427,259.486986 499.771037,258.131584 495.290349,256.721705 L494.163244,256.368096 L491.128,255.425 L491.520771,255.28544 L493.086352,254.718161 C499.770212,252.277367 505.283172,250.014967 509.66874,247.913874 L510.1896,247.662516 L510.678604,247.42308 L511.134297,247.196747 L511.641596,246.940862 C514.482518,245.495896 516.747893,244.13774 518.367606,242.914286 L518.646721,242.69979 L518.880032,242.514289 L520.075389,241.533504 L518.614731,240.691455 L518.301761,240.517838 C516.595331,239.590388 514.293712,238.63948 511.442584,237.684145 L510.901569,237.504972 L510.376911,237.335071 L509.340603,237.009732 L508.658026,236.802243 L507.959427,236.594918 L507.244667,236.387719 L507.244667,236.387719 L506.513605,236.180602 L505.981,236.033 L508.156674,235.577002 C514.789613,234.163976 520.490522,232.752054 525.318204,231.326178 L525.971118,231.131653 L526.88,230.854 Z M422.095,194.024 L422.724012,194.230014 C428.561081,196.11129 436.107173,197.932454 445.62018,199.757585 L446.490424,199.923519 L447.125,200.043 L446.420339,200.195678 L444.741797,200.565831 C441.716021,201.243593 438.973774,201.916676 436.515091,202.585056 L435.851572,202.767225 L434.566718,203.130863 L434.015918,203.291538 L432.943043,203.613746 C432.012654,203.898808 431.136696,204.182466 430.317145,204.463899 L429.713088,204.674544 L429.233846,204.846544 L426.596676,205.816645 L429.801514,206.977001 L430.340342,207.165582 C430.88666,207.354235 431.455478,207.543111 432.047069,207.732272 L432.646263,207.92153 L433.25421,208.109056 L433.877126,208.296878 C434.507527,208.484847 435.160382,208.673261 435.835694,208.862124 L436.518493,209.051137 L437.004,209.183 L436.528481,209.300946 L434.671631,209.771759 C432.846447,210.243317 431.115566,210.717288 429.472719,211.195276 L428.658602,211.434612 L427.640936,211.741101 L426.886161,211.973855 L426.14568,212.206537 C423.232369,213.130802 420.651154,214.055935 418.327954,215.012652 L417.700695,215.274381 L417.608,215.314 L417.169497,215.037316 C413.062944,212.376956 411.081365,209.24277 411.293719,205.317124 C411.502725,201.453355 413.757131,198.508711 418.203531,195.937496 C419.146392,195.392269 420.206915,194.857336 421.391004,194.329904 L421.906053,194.104313 L422.095,194.024 Z M517.075,161.319 L517.812575,161.584197 C522.776432,163.399112 526.126639,165.227362 528.203069,167.213902 L528.413343,167.419977 L528.645423,167.659793 L528.875332,167.911665 C531.050244,170.367047 531.844257,173.411735 531.085379,176.287071 L531.001328,176.583884 L530.928,176.809 L530.46412,176.648363 L529.752149,176.407379 C528.553573,176.006495 527.294875,175.609264 525.970964,175.213772 L525.168752,174.97667 L524.633311,174.821177 L523.458649,174.487443 C515.4289,172.239356 505.141261,170.022333 492.405184,167.791959 L491.420654,167.620365 L490.865,167.524 L491.903692,167.32648 C501.745865,165.443288 509.712612,163.568099 516.078918,161.628041 L516.671079,161.445968 L517.075,161.319 Z M450.793205,130 L451.036228,130.004723 L451.293683,130.020095 C453.599286,130.20586 455.585552,131.663958 456.509829,133.74218 L456.608118,133.975613 L456.681,134.172 L453.671202,134.791795 C440.00177,137.634627 430.358166,140.083492 423.134476,142.5786 L422.712332,142.725428 L422.425,142.826 L422.440917,142.602526 L422.478238,142.261769 C422.715166,140.448848 423.556509,138.711658 424.923372,137.26791 C428.904309,133.06305 440.599448,130 450.793205,130 Z" id="Combined-Shape" fill="#000000"></path>
    </g>
</svg>