<?xml version="1.0" encoding="UTF-8"?>
<svg width="960px" height="960px" viewBox="0 0 960 960" version="1.1" xmlns="http://www.w3.org/2000/svg" xmlns:xlink="http://www.w3.org/1999/xlink">
    <!-- Generator: Sketch 57.1 (83088) - https://sketch.com -->
    <title>light_bulb</title>
    <desc>Created with Sketch.</desc>
    <g id="light_bulb" stroke="none" stroke-width="1" fill="none" fill-rule="evenodd">
        <path d="M481.070931,3 C518.255044,3.14778806 542.069454,3.96383019 601.556092,7.0192483 C640.963449,9.04333229 657.944923,10.5362124 673.569728,14.0073628 C692.971233,18.3175312 706.370662,25.6994033 716.962882,38.4713254 C736.938337,62.5573941 743.000037,84.9550515 743.000037,131.547208 C743.000037,163.247924 742.11183,179.630011 739.407178,185.629768 C739.366464,185.720085 739.32441,185.809791 739.28103,185.898858 L737.034174,190.512056 L737.483963,191.227 L741.463607,197.442143 C742.493258,199.050236 743.014548,200.896488 742.999691,202.754377 C743.013013,203.858031 742.844161,204.968473 742.487166,206.039834 C712.82724,295.050855 694.868399,350.637415 688.687974,372.538708 C681.263872,398.847166 671.444819,440.089596 666.498961,463.309889 C665.142592,469.6779 661.651035,479.322636 657.445492,488.798323 C655.308316,493.613684 653.306918,497.753669 651.411525,501.118414 C651.681848,502.175082 651.782364,503.291863 651.686461,504.433348 C646.08659,571.086208 639.406452,624.522754 631.624234,664.805709 C622.227551,713.445585 608.463152,758.097524 598.752637,780.307431 C592.829236,793.855442 579.192491,801.834879 560.276327,803.618893 L560.295304,803.567005 C559.716301,805.070781 559.610027,805.356843 559.396122,806.004946 C559.110379,806.870707 558.926204,807.605286 558.830071,808.292239 C558.768932,808.729129 558.593455,809.140953 558.322864,809.486657 C557.451561,812.330277 556.737012,815.810932 555.541954,822.552862 C554.709866,827.918883 554.069399,833.640787 553.186206,842.967633 C552.601266,853.715957 552.252228,861.117179 552.030387,868.232893 C551.774169,877.739474 551.774169,886.748832 552.031294,895.266949 L552.031294,896.991072 C552.445599,897.832364 552.399627,898.898791 551.682589,899.730203 L531.262182,923.407847 C531.141845,923.787844 530.922632,924.151412 530.591481,924.465823 L523.519668,931.180117 L505.431898,948.516982 C505.308804,948.634965 505.173964,948.740046 505.029482,948.830584 L504.78702,948.98252 C499.463025,953.965434 494.331765,955.83083 479.613758,956.49744 L479.500644,956.5 L479.242532,956.5 L479.127701,956.497361 C464.620798,955.83032 459.534282,953.96307 454.213013,948.98254 L453.970518,948.830584 C453.826024,948.740038 453.691172,948.634947 453.56807,948.516951 L435.489532,931.18828 L428.409163,924.465823 C428.068123,924.142023 427.845807,923.766087 427.727945,923.373762 L408.333245,900.324995 C407.523632,899.911244 406.969349,899.069081 406.969349,898.097458 L406.970492,895.191372 C407.225833,886.748899 407.225833,877.739422 406.970033,868.22402 C406.881906,864.457784 406.723957,860.407989 406.489487,855.630073 C406.369474,853.184504 406.243834,850.81457 406.043094,847.151932 C406.023119,846.78747 406.000627,846.377725 405.966353,845.75364 L405.927809,845.051848 C405.88149,844.20804 405.847143,843.580433 405.821164,843.066721 C404.932493,833.652264 404.291128,827.921145 403.462707,822.577929 C402.551629,817.072315 401.709111,812.983077 400.809923,809.925753 C400.397708,809.480003 400.145804,808.883826 400.145804,808.228814 L400.145804,808.085971 C399.989571,806.797198 399.487888,805.415245 398.566109,803.658736 L398.487557,803.495341 C380.233393,801.494247 367.047746,793.574075 361.247363,780.307431 C351.536848,758.097524 337.772449,713.445585 328.375766,664.805709 C320.593548,624.522754 313.91341,571.086208 308.313539,504.433348 C308.198843,503.068175 308.160913,501.719779 308.201196,500.389709 C302.507077,489.999005 295.50489,472.717763 293.501039,463.309889 C288.555181,440.089596 278.736128,398.847166 271.312026,372.538708 C265.193775,350.857737 247.53122,296.160575 218.400647,208.704716 L217.512653,206.039291 C217.155769,204.968058 216.986977,203.857762 217.000741,202.754324 C216.986471,201.020344 217.439622,199.296455 218.337249,197.76687 L218.536393,197.442143 L222.482963,191.278 L222.965299,190.51195 L220.718604,185.898108 C220.675354,185.809288 220.633421,185.719831 220.592822,185.629768 C217.88817,179.630011 216.999963,163.247924 216.999963,131.547208 C216.999963,84.9550515 223.061663,62.5573941 243.037118,38.4713254 C253.629338,25.6994033 267.028767,18.3175312 286.430272,14.0073628 C302.055077,10.5362124 319.036551,9.04333229 358.443908,7.0192483 C417.930546,3.96383019 441.744956,3.14778806 478.968792,3 L481.070931,3 Z M454.943618,933.777494 L461.776549,940.222459 L461.909336,940.357573 L462.313001,940.800715 C465.348356,943.772417 468.323225,944.807959 479.564367,945.200612 C490.633895,944.813954 493.688467,943.803891 496.677825,940.935634 L496.815778,940.801929 L497.217006,940.360203 L497.327285,940.246271 L503.995826,933.780397 L503.479328,933.811774 C500.895884,933.960937 498.244938,933.996017 493.134241,933.998067 L492.227914,933.998824 L491.847621,934.000766 C490.455908,934.010377 489.051632,934.048097 486.242072,934.138056 C484.088712,934.207005 483.040844,934.236645 481.787458,934.258874 C480.983469,934.273133 480.22845,934.280508 479.500644,934.280508 C477.49901,934.280508 475.850243,934.242345 472.558136,934.138084 C469.41098,934.038413 468.051021,934.003529 466.504081,933.998752 L465.606725,933.998059 C460.630183,933.995894 458.007055,933.959906 455.453976,933.809191 L454.943618,933.777494 Z M497.230892,940.456315 L496.867354,940.751367 C496.910385,940.71912 497.00236,940.643704 497.230892,940.456315 Z M454.011419,932.898225 L453.94993,933.707216 C453.981652,933.709628 454.01332,933.71202 454.044935,933.714392 L454.139403,933.714407 L454.139403,933.018941 L454.011419,932.898225 Z M504.980975,932.825188 L504.860597,932.941907 L504.860597,933.714407 L504.953513,933.714393 C504.98459,933.712098 505.015721,933.709785 505.046908,933.707455 L504.980975,932.825188 Z M412.049576,804.000854 C412.299648,804.838142 412.521922,805.692423 412.713851,806.548426 C413.079024,807.584791 413.332955,808.352444 413.526838,809.063776 C421.738976,809.98512 431.294557,810.703898 441.459929,811.181576 C455.330711,811.89779 470.692368,812.239691 486.001067,812.239691 C487.32655,812.239691 488.411106,813.271227 488.495749,814.575315 L488.501067,814.739691 L488.501067,819.62161 C488.501067,821.002322 487.381779,822.12161 486.001067,822.12161 C470.606946,822.12161 455.148852,821.779023 441.014868,821.057171 C431.852011,820.608014 423.223451,819.946954 415.742177,819.105936 C415.919766,820.074078 416.033347,820.778244 416.122207,821.493555 C416.568209,824.299381 416.887292,826.605953 417.115738,828.856883 C424.04597,829.474601 431.81268,829.987195 441.523758,830.499094 C455.38913,831.215619 470.74498,831.557203 486.066078,831.557203 C487.391561,831.557203 488.476116,832.588739 488.56076,833.892828 L488.566078,834.057203 L488.566078,838.939831 C488.566078,840.320542 487.446789,841.439831 486.066078,841.439831 C470.684578,841.439831 455.220641,841.096933 441.047747,840.373609 C439.877797,840.301152 435.938041,840.059514 435.615747,840.03966 C427.68114,839.550882 422.683157,839.205442 418.193215,838.79934 C418.264613,839.770967 418.373578,840.88848 418.527323,842.293474 C418.600043,843.276194 418.640597,844.110285 418.710427,845.856452 C418.75386,846.942563 418.788272,847.740714 418.823669,848.40751 C419.320445,848.441706 419.839501,848.47808 420.389325,848.517168 L421.229156,848.577251 C421.7928,848.617804 422.391784,848.661321 423.147109,848.716494 C423.206425,848.720827 424.88151,848.843355 425.371199,848.879042 C432.588433,849.405018 436.829199,849.663941 441.523758,849.817315 C457.29917,850.632545 472.85023,851.087712 486.066078,851.087712 C487.391561,851.087712 488.476116,852.119248 488.56076,853.423336 L488.566078,853.587712 L488.566078,858.258758 C488.566078,859.63947 487.446789,860.758758 486.066078,860.758758 C470.697187,860.758758 455.227447,860.415552 441.118839,859.695925 C436.479143,859.540983 432.198103,859.275201 425.078676,858.747675 C424.555175,858.708886 423.98059,858.666128 422.89418,858.585251 C422.013589,858.519764 421.373177,858.472407 420.746673,858.426582 C420.269357,858.391669 419.817459,858.358941 419.385492,858.328039 C419.605172,862.529131 419.687277,864.668769 419.693057,867.230382 L419.693389,867.883348 C425.845516,868.47637 432.764839,868.974714 441.523875,869.489354 C455.382595,870.206186 470.732436,870.547458 486.066078,870.547458 C487.391561,870.547458 488.476116,871.578994 488.56076,872.883082 L488.566078,873.047458 L488.566078,877.930085 C488.566078,879.310797 487.446789,880.430085 486.066078,880.430085 C472.78842,880.430085 457.181561,879.974916 441.116228,879.155582 C433.81558,878.904141 427.01136,878.505652 420.952992,877.956772 L419.950213,877.863899 L419.950213,889.134879 L420.274331,889.170526 L420.28892,889.171985 C420.99224,889.242162 421.523088,889.278362 422.890635,889.358311 C424.56453,889.45617 425.407901,889.522167 426.324786,889.653664 C428.858563,889.661195 431.274508,889.823699 434.259915,890.148906 C435.444441,890.151853 436.468559,890.191522 438.465377,890.293887 C440.440877,890.395159 441.263412,890.428942 442.202441,890.432217 L442.360242,890.432487 L442.531045,890.438329 C443.592843,890.511042 444.396736,890.548841 446.380113,890.628592 C448.866545,890.728571 450.060618,890.793271 451.431146,890.927125 L452.443636,890.927821 C453.988026,890.930092 454.872789,890.938574 455.935479,890.963169 C457.416473,890.997446 458.752426,891.060816 460.022247,891.163651 L460.562637,891.210169 L470.297406,891.210446 C471.458984,891.213789 472.491817,891.247939 474.558312,891.338843 L474.912498,891.354523 C477.028445,891.448741 478.072072,891.486285 479.14165,891.492866 L479.679387,891.49368 C480.80114,891.490511 481.752871,891.456273 483.989295,891.354627 C486.185865,891.254792 487.335583,891.21492 488.649085,891.210574 L498.426618,891.210169 C500.63535,890.989556 502.570561,890.934518 506.711025,890.927852 L507.599952,890.927124 C508.618281,890.852163 509.517905,890.808412 511.355547,890.734038 C513.072708,890.66454 513.755267,890.633392 514.661186,890.577022 C515.28341,890.538305 515.859228,890.494529 516.408089,890.443305 C516.485317,890.436097 516.562838,890.432487 516.640402,890.432487 C517.649367,890.432487 518.449574,890.400799 520.535106,890.293887 C522.548938,890.19065 523.578774,890.150973 524.775016,890.148822 C525.154716,890.117298 525.49925,890.087392 526.205158,890.025308 C529.288216,889.754156 530.716794,889.658221 532.467334,889.653569 C533.170468,889.579182 533.829192,889.532621 535.026444,889.462686 C536.815851,889.35816 537.544319,889.306465 538.516461,889.194708 L538.701912,889.173023 L539.050419,889.134709 C539.056455,879.115838 539.108123,873.963393 539.307901,867.541892 C539.562376,856.35147 539.86027,849.283801 540.470359,842.398826 C540.731628,838.049352 541.133644,834.01366 541.842172,828.048879 C541.931091,827.300316 542.240565,824.72086 542.235759,824.761044 C542.372292,823.619322 542.476169,822.737669 542.570855,821.911285 L542.605977,821.603581 L542.621056,821.493007 C543.473739,816.136388 544.667236,810.864549 545.96196,806.505498 C546.163292,805.709895 546.419266,804.866664 546.718131,804.001721 L412.049576,804.000854 Z M511.500923,461.331294 L448.499077,461.331294 C439.184121,461.331294 431.905089,466.547595 425.013862,476.819069 C423.673545,478.816833 422.382603,480.950752 420.976826,483.450126 C420.177519,484.87124 417.73383,489.372488 417.550022,489.712562 L417.280217,490.198485 C411.704268,500.116759 404.432592,506.006549 395.228213,506.351945 C371.962645,507.450004 354.138128,508 341.704446,508 C336.376191,508 332.123952,507.946996 328.667586,507.759246 C334.124015,571.430334 340.579077,622.533659 348.012679,661.012076 C357.132282,708.217709 370.460451,751.454512 379.572424,772.29543 C382.696474,779.440763 392.059419,784.000238 408.086606,784.000238 L552.456868,784.000238 C568.16589,783.89177 577.340927,779.355219 580.427576,772.29543 C589.539549,751.454512 602.867718,708.217709 611.987321,661.012076 C619.300286,623.158109 625.666214,573.085677 631.065878,510.850066 C629.892775,510.05013 628.964175,509.031551 628.280801,507.885791 C625.445989,507.972224 622.152709,508 618.295554,508 C605.861872,508 588.037355,507.450004 564.771787,506.351945 C555.567408,506.006549 548.295732,500.116759 542.719783,490.198485 L542.459651,489.730621 C542.527956,489.854835 539.86455,484.946035 539.023174,483.450126 C537.617397,480.950752 536.326455,478.816833 534.986138,476.819069 C528.094911,466.547595 520.815879,461.331294 511.500923,461.331294 Z M496.135746,175 L463.460468,175 C442.839219,175 424.054779,175.111092 406.874268,175.333276 C338.82906,177.330639 284.601724,181.941703 244.192299,189.166617 C244.691794,191.64799 244.234882,194.261212 242.854083,196.45623 L237.981225,204.202472 C266.864484,290.93887 284.365997,345.15648 290.560299,367.106951 C298.121563,393.901464 308.033538,435.534188 313.062236,459.143408 C314.776007,467.189385 322.176167,485.011311 326.974084,492.929712 C327.847379,494.370982 328.336891,496.000176 328.411541,497.663647 C339.044136,498.382452 361.176002,497.948506 394.804786,496.362346 C399.987711,496.185407 404.63375,492.364592 408.742903,484.899902 C414.844996,473.814838 425.325446,451.826247 447.81392,451.387584 L448.499073,451.380921 L511.500927,451.380921 C534.462381,451.380921 545.093366,473.702867 551.257097,484.899902 C555.36625,492.364592 560.012289,496.185407 565.195214,496.362346 C595.416619,497.787791 616.352886,498.282685 628.004013,497.847029 C628.958027,496.013127 630.508838,494.454662 632.658336,493.513588 C633.0885,492.836339 633.589003,491.984318 634.138618,490.987616 C635.647427,488.251456 637.408835,484.642038 639.165058,480.685016 C642.855969,472.368869 645.928597,463.881343 646.937764,459.143408 C651.966462,435.534188 661.878437,393.901464 669.439701,367.106951 C675.633722,345.157475 693.135545,290.938715 722.018657,204.202822 L717.145247,196.456742 C715.668023,194.108756 715.248006,191.282168 715.921746,188.651056 C689.455783,182.75187 651.103092,178.657427 600.866678,176.3677 C572.179609,175.455765 537.903821,175 496.135746,175 Z" id="Combined-Shape" fill="#000000" fill-rule="nonzero"></path>
    </g>
</svg>