<?xml version="1.0" encoding="UTF-8"?>
<svg width="960px" height="960px" viewBox="0 0 960 960" version="1.1" xmlns="http://www.w3.org/2000/svg" xmlns:xlink="http://www.w3.org/1999/xlink">
    <!-- Generator: Sketch 60.1 (88133) - https://sketch.com -->
    <title>light_shelly_vintage_ST64</title>
    <desc>Created with Sketch.</desc>
    <g id="light_shelly_vintage_ST64" stroke="none" stroke-width="1" fill="none" fill-rule="evenodd">
        <path d="M482.778024,-0.5 L483.607124,-0.481398223 C501.379926,0.00646573696 516.313547,6.28997375 527.694054,18.1866572 L527.694054,18.1866572 L527.977,18.486 L528.343236,18.5349348 C583.184578,25.9543312 623.358449,46.7428964 649.332656,78.3916189 L649.332656,78.3916189 L650.139728,79.3841738 C672.164416,106.723477 682.5,140.633929 682.5,175.669017 C682.5,204.006919 670.58531,282.32383 651.619249,384.060637 L651.619249,384.060637 L650.449293,390.318458 C632.886761,483.989986 612.623117,579.74972 599.738673,629.636116 L599.738673,629.636116 L599.233,631.581 L599.032387,648.01773 C598.863263,660.778265 598.497489,672.469651 597.94733,684.569506 L597.94733,684.569506 L597.842017,686.843376 C597.65918,690.721352 597.104809,701.285597 596.845981,706.476003 L596.845981,706.476003 L596.611413,711.471646 L596.493024,713.729045 C595.074281,739.545457 591.3715,772.260537 588.609193,780.401688 C587.195461,784.56828 584.525277,787.069989 581.089146,788.890852 L581.046674,789.025259 C580.959009,789.300777 580.885026,789.519618 580.797117,789.762731 C580.32929,791.056514 579.740299,792.155265 578.863293,793.231649 L578.637944,793.500379 L578.51728,793.631956 C578.380987,793.771771 578.109188,794.079834 577.8557,794.371642 L577.370572,794.934249 C576.003915,796.605734 574.810257,798.291158 573.884249,799.867109 L573.638408,800.294107 L573.423627,800.682959 C572.590632,802.319162 571.982098,803.880315 571.630695,805.305494 L571.54822,805.658921 L571.498644,805.878452 L571.459038,806.033911 L571.409462,806.208397 C571.388701,806.281467 571.365109,806.353702 571.338737,806.424937 C570.089019,809.800724 568.992429,814.29222 568.046546,819.85182 L567.942068,820.473946 C566.890951,826.5327 566.030598,833.661652 565.348822,841.754856 C564.656927,850.139708 564.198545,859.023334 563.994539,867.883005 C563.72943,876.440313 563.687076,885.243331 563.84906,893.711645 L563.893803,895.821415 L563.922043,897.557011 C564.404752,898.504616 564.388671,899.695561 563.667745,900.649036 L563.548027,900.797541 L563.447852,900.908825 L539.874661,925.891479 L539.813717,925.992841 C539.721513,926.136587 539.614405,926.275378 539.491773,926.407562 L539.363945,926.537482 L539.254138,926.638001 L531.274102,933.612848 L510.61796,951.685199 L510.487364,951.793085 L510.04426,952.137175 L509.908984,952.254469 C503.97019,957.349907 498.229816,959.313449 482.369438,959.957724 L481.314705,959.998103 L481.209351,960 L480.906218,960 L480.800702,959.998097 C464.137157,959.396898 458.277097,957.460874 452.208291,952.254583 L452.074356,952.138849 L451.627869,951.790407 L451.512159,951.695178 L430.846244,933.613865 L422.864599,926.638062 C422.581622,926.390745 422.362226,926.113034 422.201455,925.818142 L422.102559,925.61772 L399.973646,901.603118 L399.90801,901.57659 C398.960458,901.153934 398.289078,900.246758 398.186079,899.185935 L398.174225,899.007765 L398.172689,898.851863 L398.222668,895.803159 L398.266736,893.679583 C398.410507,885.807817 398.358633,877.015015 398.121333,867.877937 C397.867998,859.002158 397.409342,850.113757 396.767631,841.760833 C396.087936,833.67323 395.226669,826.540008 394.169677,820.453977 C393.281445,815.085694 392.166501,810.43506 390.916967,806.823786 L390.734193,806.300206 L390.655711,806.027881 L390.618285,805.880422 L390.564296,805.641593 C390.230293,804.11709 389.583241,802.441919 388.675621,800.747907 C387.716714,798.972985 386.511671,797.161373 385.155767,795.448408 L384.767287,794.966899 L383.488101,793.498186 L383.42763,793.422385 L383.316512,793.268254 L383.219777,793.159226 C382.22865,792.017698 381.53939,790.910967 380.774274,789.328513 L380.681939,789.284576 C376.875267,787.42987 373.907978,784.873138 372.390807,780.401688 C369.610266,772.206798 365.782713,738.093784 364.464084,712.957795 L364.464084,712.957795 L364.349042,710.652383 L364.231747,707.957217 L363.401883,688.002965 C363.31468,685.798218 363.231433,683.629059 363.150561,681.4473 L363.150561,681.4473 L362.971943,676.496749 C362.525862,663.788123 362.168387,650.81332 361.908301,637.00638 L361.908301,637.00638 L361.872,635.03 L361.804561,634.880166 C361.566218,634.333698 361.354141,633.745046 361.170711,633.108819 L361.170711,633.108819 L361.06411,632.721331 C348.234273,583.79271 327.495771,486.02277 309.566222,390.401203 L309.566222,390.401203 L308.395761,384.141174 C289.421491,282.368287 277.5,204.014596 277.5,175.669017 C277.5,140.138017 288.121465,105.797445 310.761062,78.2760657 C337.457237,45.8233882 379.055234,24.8386485 436.072173,17.9648361 L436.072173,17.9648361 L436.567,17.906 L436.82,17.6464925 C448.152692,6.08739887 462.917267,-0.00983621682 480.430366,-0.482418921 L480.430366,-0.482418921 L481.221976,-0.5 L482.778024,-0.5 Z M508.489739,936.033954 L506.464383,936.089357 C503.907366,936.153329 501.208185,936.202101 498.395603,936.235197 L489.116478,936.317773 C486.724108,936.334268 484.649227,936.343164 482.54964,936.345563 L477.677652,936.33963 C475.513642,936.331661 473.212964,936.31602 470.184716,936.290266 L466.374427,936.256295 C462.461084,936.221397 458.748196,936.157078 455.297064,936.064222 L454.207848,936.033117 L461.772002,942.808035 L461.948785,942.962674 C465.200261,945.80253 468.784134,946.932763 481.022975,947.426623 L481.364272,947.439739 L482.603599,947.388363 C493.680117,946.894768 497.327144,945.818076 500.410431,943.272623 L500.826917,942.917438 L501.453231,942.362505 L508.489739,936.033954 Z M559.458443,797.32357 L559.33221,797.336187 C555.70564,797.685986 551.844113,797.987078 547.834026,798.234648 L545.950939,798.362245 C537.389031,798.928119 527.643756,799.382043 516.909887,799.732536 C505.792037,800.096806 494.322629,800.317681 483.435043,800.381479 L481.049074,800.392719 C470.292283,800.351575 458.949899,800.154797 447.866987,799.813806 L445.314382,799.732561 C433.803875,799.358461 423.437105,798.863116 414.407708,798.23589 C411.403812,798.046595 408.389278,797.819261 405.310573,797.552364 L403.181414,797.36208 L403.356487,797.719216 C404.34686,799.775352 405.084581,801.777671 405.55797,803.767224 L405.626981,804.072104 L405.773074,804.487443 C405.910245,804.886122 406.045314,805.293912 406.17831,805.710785 L406.388345,806.38273 L407.101128,806.453288 L408.928361,806.62641 C416.62,807.338116 425.282485,807.929319 434.682641,808.396705 L438.098162,808.559609 C454.093403,809.290246 471.869772,809.658258 488.773827,809.658258 C490.337186,809.658258 491.614405,810.884127 491.697816,812.427631 L491.702149,812.588399 L491.702149,817.654343 C491.702149,819.272615 490.391095,820.584484 488.773827,820.584484 C471.904587,820.584484 453.980654,820.208336 437.615084,819.459539 L435.195645,819.345907 C425.979063,818.900288 417.435112,818.33942 409.784675,817.666832 L409.028855,817.599311 L409.218916,818.657613 L409.370449,819.534422 C409.701713,821.464829 410.014347,823.497133 410.3091,825.629764 L410.498036,827.035204 L411.040909,827.083713 C418.149047,827.707073 426.026374,828.231402 434.487838,828.65362 L438.098074,828.825969 C454.108264,829.556803 471.893088,829.925659 488.773827,829.925659 C490.337186,829.925659 491.614405,831.151527 491.697816,832.695032 L491.702149,832.8558 L491.702149,837.922262 C491.702149,839.540534 490.391095,840.852403 488.773827,840.852403 C471.937143,840.852403 454.001847,840.47521 437.615102,839.726422 L435.104682,839.608424 C427.623319,839.246086 420.595178,838.80868 414.133012,838.297203 L411.726258,838.100255 L411.841433,839.358387 L412.021893,841.44646 C412.146261,843.015094 412.264184,844.619017 412.375681,846.256318 L412.456666,847.471685 L413.022368,847.520262 L415.224109,847.699196 C421.895662,848.226966 429.158866,848.67334 436.87037,849.035551 L438.098162,849.092338 C454.102126,849.823374 471.883447,850.192023 488.773827,850.192023 C490.337186,850.192023 491.614405,851.417892 491.697816,852.961396 L491.702149,853.122165 L491.702149,858.189145 C491.702149,859.807417 490.391095,861.119286 488.773827,861.119286 C471.949497,861.119286 454.010008,860.742004 437.614585,859.993799 L435.060449,859.873276 C427.451077,859.503267 420.323094,859.057327 413.786496,858.53558 L413.05488,858.475622 L413.126249,860.116987 C413.195193,861.78887 413.257094,863.468213 413.311783,865.150287 L413.392055,867.816076 L413.772649,867.848551 C420.830511,868.42745 428.593777,868.913306 436.906702,869.304942 L438.097985,869.360249 C454.105657,870.090481 471.889086,870.458906 488.773827,870.458906 C490.337186,870.458906 491.614405,871.684775 491.697816,873.228279 L491.702149,873.389047 L491.702149,878.456027 C491.702149,880.0743 490.391095,881.386169 488.773827,881.386169 C471.937143,881.386169 454.001847,881.008975 437.615098,880.260187 L434.883636,880.131439 C427.650992,879.779224 420.832995,879.355969 414.540471,878.863156 L413.586998,878.787362 L413.593969,879.691904 C413.61027,882.470645 413.607045,885.304284 413.585854,888.217827 L413.571938,889.883389 L421.157244,890.406712 L426.487238,890.705624 L433.423313,891.055467 L439.172101,891.31083 L448.273173,891.621191 C448.624955,891.634418 448.963249,891.647634 449.306112,891.661513 L461.09996,891.954109 L462.22797,891.976911 C462.984955,891.991466 463.761966,892.004909 464.619402,892.018328 L475.427357,892.154962 C477.28299,892.173711 478.706543,892.183443 480.122819,892.186789 L483.486366,892.18334 C484.805664,892.177281 486.229088,892.16501 488.185159,892.143793 L499.748346,891.990056 L513.26778,891.662988 L515.612096,891.575299 L523.539029,891.306784 L531.847797,890.924242 L537.264563,890.642723 L541.658679,890.392711 C542.521438,890.340678 543.423865,890.280919 544.567759,890.200978 L549.035289,889.884227 L549.032859,889.681074 C548.950397,883.146452 549.002139,876.244974 549.186908,869.286213 L549.231908,867.679469 C549.503046,858.038216 549.915961,849.693419 550.533226,842.22937 L550.600146,841.433002 C551.279631,833.336221 552.152578,825.937575 553.199763,819.539058 C554.179707,813.773072 555.406189,808.658204 556.810624,804.46736 L556.949289,804.058709 L557.047001,803.669547 C557.554817,801.713084 558.289552,799.751707 559.242117,797.767263 L559.458443,797.32357 Z M480.5,641.854891 C449.244313,641.854891 418.039123,639.766454 386.886603,635.589986 C387.145097,649.611884 387.504935,662.753314 387.956556,675.619772 L387.956556,675.619772 L388.073808,678.899136 C388.251622,683.782372 388.439485,688.544919 388.655329,693.732946 L388.655329,693.732946 L389.323273,709.518522 C390.206989,728.21734 392.944801,754.903879 394.91198,766.867852 L394.91198,766.867852 L395.057,767.73 L395.75468,767.87486 C398.664967,768.45849 402.57436,769.031755 407.423557,769.572321 L407.423557,769.572321 L409.344306,769.77956 C424.065657,771.317444 446.039487,772.514045 475.145627,773.351868 L475.145627,773.351868 L480.341,773.495 L485.503499,773.353291 C514.376828,772.525465 536.251077,771.347877 551.025007,769.836871 L551.025007,769.836871 L551.575701,769.780052 C557.568289,769.156284 562.274774,768.483486 565.599749,767.79745 L565.599749,767.79745 L565.947,767.724 L566.181132,766.316147 C567.93638,755.407308 570.258869,733.343634 571.366824,715.177756 L571.366824,715.177756 L571.531412,712.344046 L571.641074,710.256232 L571.803786,706.720884 C571.963108,703.416765 572.359033,695.825421 572.635171,690.38921 L572.635171,690.38921 L572.979203,683.300275 C573.514458,671.501208 573.869885,660.113005 574.034419,647.699293 L574.034419,647.699293 L574.182396,635.580732 C543.006954,639.763369 511.778763,641.854891 480.5,641.854891 Z M479.5,420 C461.126988,420 446.233814,434.342462 446,452 L446,452 L446.000281,625.987163 C457.493412,626.565656 468.99328,626.854891 480.5,626.854891 C491.339643,626.854891 502.173205,626.598219 513.000783,626.084857 L513,454.507 L512.995014,452.012814 L512.982349,451.433556 C512.403532,433.992223 497.645669,420 479.5,420 Z M482.427958,24.4978213 L481.492,24.4978213 L480.970265,24.5122031 C468.784365,24.8676554 459.657878,29.0687232 452.691994,37.3274363 L452.691994,37.3274363 L452.351147,37.7368749 L449.089745,41.7061169 L443.979749,42.2348627 C390.462448,47.7724504 353.184,66.0576899 330.067945,94.1582657 C311.384909,116.86993 302.5,145.595991 302.5,175.669017 C302.5,201.822065 314.35195,279.678152 332.988552,379.646007 L332.988552,379.646007 L334.646892,388.50441 C351.124891,476.161611 369.894831,565.25288 382.517933,615.712091 L382.517933,615.712091 L383.290829,618.783657 L383.598279,619.994428 C400.3848,622.375288 417.185304,624.136413 434.000153,625.27787 L434,451.920735 C434.322473,427.552645 454.625888,408 479.5,408 C502.081353,408 520.903373,424.116812 524.413666,445.396018 L524.413666,445.396018 L524.508,446 L525,446 L525.000473,625.410671 C542.1369,624.297517 559.258415,622.540858 576.365402,620.140621 C588.976722,570.598947 608.374379,478.820387 625.341985,388.563581 L625.341985,388.563581 L626.454024,382.631821 C645.411898,281.227281 657.5,202.081392 657.5,175.669017 C657.5,146.011829 648.850746,117.634127 630.671354,95.0679999 C608.235809,67.2186997 572.091808,48.8278827 520.22838,42.7062604 L520.22838,42.7062604 L515.143339,42.1060553 L511.940654,38.1109719 C504.787969,29.1885937 495.291356,24.7380182 482.427958,24.4978213 L482.427958,24.4978213 Z M463.173548,98.0040232 C467.078776,98.1278388 470.133081,101.077924 469.995531,104.593221 L459.146548,381.855155 C459.008998,385.370454 455.731679,388.119793 451.826452,387.995977 C447.921225,387.872161 444.866919,384.922076 445.004469,381.406779 L455.853452,104.144845 C455.991002,100.629546 459.268321,97.8802067 463.173548,98.0040232 Z M505.580686,104.144845 L515.995709,381.406779 C516.127758,384.922076 513.195624,387.872161 509.446606,387.995977 C505.697588,388.119793 502.551362,385.370454 502.419314,381.855155 L492.004291,104.593221 C491.872242,101.077924 494.804375,98.1278388 498.553394,98.0040232 C502.302412,97.8802067 505.448638,100.629546 505.580686,104.144845 Z M438.870026,92.0280353 C442.586238,92.3551956 445.317402,95.4595225 444.970252,98.9617444 L417.487342,376.223007 C417.140193,379.725229 413.846187,382.299125 410.129975,381.971965 C406.413763,381.644804 403.682599,378.540478 404.029748,375.038256 L431.512657,97.7769929 C431.859807,94.274771 435.153813,91.700875 438.870026,92.0280353 Z M530.158383,97.7769929 L556.970977,375.038256 C557.30966,378.540478 554.645109,381.644804 551.019536,381.971965 C547.393963,382.299125 544.1803,379.725229 543.841617,376.223007 L517.029023,98.9617444 C516.690339,95.4595225 519.35489,92.3551956 522.980463,92.0280353 C526.606036,91.700875 529.8197,94.274771 530.158383,97.7769929 Z M557.13214,87.6973103 L587.966624,361.13428 C588.356109,364.588195 585.291876,367.649704 581.122467,367.972351 C576.953058,368.294999 573.257345,365.756605 572.86786,362.30269 L542.033376,88.8657203 C541.64389,85.4118049 544.708124,82.3502964 548.877532,82.0276486 C553.046941,81.7050009 556.742655,84.2433949 557.13214,87.6973103 Z M403.86786,87.6973103 C404.257345,84.2433949 407.953059,81.7050009 412.122468,82.0276486 C416.291876,82.3502964 419.35611,85.4118049 418.966624,88.8657203 L418.966624,88.8657203 L388.13214,362.30269 C387.742655,365.756605 384.046942,368.294999 379.877533,367.972351 C375.708124,367.649704 372.643891,364.588195 373.033376,361.13428 L373.033376,361.13428 Z" id="Combined-Shape" fill="#000000"></path>
    </g>
</svg>