<?xml version="1.0" encoding="UTF-8"?>
<svg width="960px" height="960px" viewBox="0 0 960 960" version="1.1" xmlns="http://www.w3.org/2000/svg" xmlns:xlink="http://www.w3.org/1999/xlink">
    <!-- Generator: Sketch 60.1 (88133) - https://sketch.com -->
    <title>light_shelly_duo</title>
    <desc>Created with Sketch.</desc>
    <g id="light_shelly_duo" stroke="none" stroke-width="1" fill="none" fill-rule="evenodd">
        <path d="M480.50031,2 C620.518607,2 734,115.974284 734,256.536441 C734,288.679575 728.054973,320.006272 716.641937,349.280727 L716.085,350.695 L715.924278,351.400112 C715.807071,351.898105 715.756553,352.065194 715.681804,352.259154 L715.619203,352.416678 L715.420296,352.951263 L715.127322,353.668594 C714.867877,354.28497 714.493457,355.1444 714.021103,356.2114 L711.895681,360.957165 C710.857572,363.257117 709.956253,365.230222 709.472137,366.255386 L709.091174,367.036169 L708.914548,367.382671 C708.812654,367.565928 708.63235,367.856141 708.091437,368.72678 L707.851348,369.079695 C707.827312,369.113755 707.803468,369.146925 707.779124,369.180034 L707.668,369.325 L707.000969,370.7389 L704.863499,375.280034 C702.747845,379.787069 700.682848,384.224675 698.535352,388.888616 C690.566798,406.194751 682.956852,423.385661 675.815549,440.459918 C671.348211,451.140946 667.192419,461.47799 663.39644,471.397914 L662.485838,473.787768 C652.85757,499.166836 645.950275,520.927099 642.383308,537.914754 C637.323363,562.012578 634.064451,587.863728 632.116607,617.155472 L631.966819,619.449249 C630.530227,641.860986 629.907849,663.940727 629.470396,698.585764 C629.388899,705.740495 626.852989,712.223769 622.712231,719.272162 L621.459114,721.396859 C618.551604,726.293574 615.758264,730.765148 613.061382,734.837255 L612.335,735.926 L612.308796,736.359998 C611.949989,741.873927 611.08069,745.903028 609.067717,749.998823 L608.875631,750.383047 C607.243589,753.596139 604.39878,756.636599 598.597616,762.232453 L597.352131,763.427968 C595.941234,764.773972 594.512468,766.107945 593.136965,767.364176 C592.955189,767.653421 592.780988,767.940303 592.614064,768.224211 L592.32023,768.734252 L592.063517,769.198729 C591.067903,771.153143 590.340568,773.017912 589.920563,774.720262 L589.821987,775.142424 L589.762733,775.404649 L589.715394,775.590343 L589.656141,775.798763 C589.631327,775.886044 589.603128,775.972327 589.571608,776.057416 C588.077915,780.089732 586.767246,785.45474 585.636704,792.09558 L585.511829,792.838698 C584.255509,800.075768 583.227194,808.59117 582.41232,818.258354 C581.58535,828.273905 581.037481,838.885232 580.793649,849.467946 C580.476785,859.689493 580.426162,870.204536 580.619769,880.319781 L580.673247,882.839862 L580.707,884.913 C581.283946,886.044897 581.264724,887.467458 580.403057,888.606366 L580.259968,888.783753 L580.140235,888.91668 L551.965,918.758 L551.892159,918.879075 C551.781954,919.050777 551.653936,919.21656 551.507364,919.374451 L551.35458,919.529639 L551.223336,919.649706 L541.685409,927.981033 L516.9967,949.568123 L516.840609,949.696991 L516.311,950.108 L516.149315,950.248105 C509.051128,956.334513 502.190097,958.679927 483.233398,959.449502 L481.972757,959.497734 L481.846835,959.5 L481.484523,959.5 L481.358407,959.497727 C461.441745,958.779605 454.437663,956.46706 447.184083,950.248242 L447.024,950.11 L446.490348,949.693793 L446.352049,949.580043 L421.651659,927.982248 L412.111809,919.64978 C411.773587,919.354364 411.511359,919.022643 411.319203,918.6704 L411.201,918.431 L384.752,889.746 L384.67355,889.714312 C383.541013,889.209458 382.738564,888.125853 382.615457,886.858719 L382.601289,886.645899 L382.599454,886.459676 L382.659189,882.818056 L382.711861,880.281483 C382.883699,870.878804 382.821698,860.375964 382.538071,849.461892 C382.235279,838.859938 381.687083,828.242907 380.920095,818.265492 C380.107707,808.604999 379.0783,800.084498 377.814959,792.814845 C376.753323,786.40253 375.420716,780.847434 373.927243,776.533833 L373.708787,775.908426 L373.614983,775.58314 L373.570251,775.407003 L373.505722,775.121725 C373.106514,773.300735 372.333143,771.299774 371.248334,769.276308 L371.107559,769.022674 C369.624719,767.770922 368.122136,766.492227 366.659446,765.234236 L363.830838,762.785102 C356.294217,756.227432 353.999114,753.998084 352.215879,750.561335 L352.125624,750.385518 C349.974757,746.152924 349.06139,742.043746 348.691238,736.358486 L348.664,735.926 L348.516555,735.705911 C345.633236,731.391231 342.639797,726.61703 339.515987,721.35481 L338.29662,719.28725 C334.147011,712.223769 331.611101,705.740495 331.529827,698.604297 L331.389072,688.350088 C330.956336,659.42144 330.322849,639.568894 329.033181,619.44925 L328.883393,617.155472 L328.633048,613.511801 C326.660846,585.712509 323.465805,561.008501 318.616688,537.914738 C314.938248,520.396187 307.707482,497.802054 297.603679,471.397881 C293.80764,461.477729 289.65178,451.140457 285.184385,440.459246 C278.043049,423.384838 270.432989,406.193641 262.464814,388.888398 C260.317174,384.224163 258.251931,379.786064 256.136414,375.279379 L251.955,366.418 L251.817173,366.204006 L250.982981,364.843281 C250.893953,364.69011 250.865265,364.6274 250.814509,364.516452 L250.638004,364.161071 C250.34621,363.557883 249.557246,361.818754 248.686748,359.871642 L247.577511,357.372113 C247.275174,356.682323 247.038586,356.13095 246.862763,355.703084 L246.57565,354.969134 C246.54331,354.879797 246.505356,354.770237 246.419962,354.523727 L246.330614,354.304446 C246.304297,354.234552 246.280483,354.16307 246.256285,354.075634 L246.213,353.902 L246.155338,353.764173 C241.445068,342.329457 237.569376,330.546935 234.566693,318.495424 L234.149394,316.793251 C232.444067,309.476219 231.055024,302.43504 230.023762,295.908075 L229.845,294.758 L229.831055,294.717514 L229.682,293.69 L229.674245,293.653469 C229.643557,293.508103 229.626625,293.406767 229.615713,293.314825 L229.596,293.084 L229.396066,291.665101 C227.883708,280.666434 227.082381,269.531691 227.006029,258.309144 L227,256.536441 C227,115.973973 340.481084,2 480.50031,2 Z M449.574,930.872 L458.614856,938.964514 L458.826151,939.149228 C462.712392,942.541384 466.995921,943.891426 481.624073,944.481333 L482.032,944.497 L483.513274,944.435632 C496.75219,943.846041 501.111202,942.559953 504.79642,939.519456 L505.294213,939.095194 L506.042799,938.432337 L514.453,930.873 L512.032246,930.939177 C508.976039,931.01559 505.749914,931.073848 502.38825,931.11338 L491.29762,931.212016 C488.438203,931.231719 485.958256,931.242346 483.44878,931.24521 L477.625665,931.238124 C475.039189,931.228604 472.289364,931.209922 468.669931,931.17916 L464.115784,931.138582 C459.438463,931.096897 455.000732,931.020068 450.875857,930.909154 L449.574,930.872 Z M575.372,765.186 L575.221123,765.201072 C570.886561,765.618899 566.271172,765.978548 561.478222,766.274267 L559.227511,766.426678 C548.994117,767.102604 537.346334,767.644809 524.51696,768.063466 C511.228642,768.498579 497.520135,768.76241 484.507035,768.838616 L481.655268,768.852043 C468.798497,768.802896 455.241811,768.567849 441.995253,768.160542 L438.94432,768.063496 C425.186689,767.61664 412.796081,767.024959 402.003932,766.27575 C398.413604,766.049641 394.810563,765.778094 391.130821,765.459291 L388.586,765.232 L388.795251,765.658592 C389.978968,768.114608 390.86071,770.506342 391.426516,772.882826 L391.509,773.247 L391.683614,773.743115 C391.847563,774.219329 392.009001,774.706427 392.167961,775.204374 L392.419,776.007 L393.270934,776.091281 L395.454887,776.298071 C404.648116,777.148191 415.001722,777.854373 426.237012,778.412656 L430.319323,778.607242 C449.437213,779.479975 470.68395,779.919558 490.888075,779.919558 C492.756639,779.919558 494.283202,781.383835 494.382896,783.227523 L494.388075,783.419558 L494.388075,789.470734 C494.388075,791.403731 492.821072,792.970734 490.888075,792.970734 C470.725561,792.970734 449.302453,792.521432 429.741936,791.627007 L426.850166,791.491276 C415.834289,790.958993 405.622357,790.289046 396.478373,789.485653 L395.575,789.405 L395.802165,790.669122 L395.983281,791.716454 C396.379215,794.022289 396.752883,796.449839 397.105179,798.997228 L397.331,800.676 L397.979855,800.733943 C406.475669,801.478535 415.890837,802.104836 426.004178,802.609168 L430.319217,802.815036 C449.454976,803.688003 470.711818,804.128595 490.888075,804.128595 C492.756639,804.128595 494.283202,805.592873 494.382896,807.43656 L494.388075,807.628595 L494.388075,813.68039 C494.388075,815.613387 492.821072,817.18039 490.888075,817.18039 C470.764472,817.18039 449.327783,816.729839 429.741958,815.835426 L426.741445,815.69448 C417.799543,815.261673 409.399342,814.739201 401.675609,814.12825 L398.799,813.893 L398.936659,815.395815 L399.15235,817.889979 C399.300998,819.763684 399.441942,821.679541 399.575205,823.635266 L399.672,825.087 L400.348141,825.145025 L402.979714,825.358758 C410.953711,825.989169 419.634865,826.522354 428.851837,826.955009 L430.319323,827.02284 C449.447639,827.896049 470.700294,828.336394 490.888075,828.336394 C492.756639,828.336394 494.283202,829.800672 494.382896,831.644359 L494.388075,831.836394 L494.388075,837.888808 C494.388075,839.821805 492.821072,841.388808 490.888075,841.388808 C470.779238,841.388808 449.337537,840.938152 429.74134,840.044435 L426.688577,839.900472 C417.593675,839.458503 409.074141,838.925836 401.261444,838.302619 L400.387,838.231 L400.472302,840.19158 C400.554705,842.188614 400.628691,844.194558 400.694056,846.203765 L400.79,849.388 L401.244894,849.426791 C409.680618,850.118276 418.959457,850.698622 428.895261,851.166423 L430.319111,851.232486 C449.451859,852.104735 470.707033,852.544812 490.888075,852.544812 C492.756639,852.544812 494.283202,854.00909 494.382896,855.852777 L494.388075,856.044812 L494.388075,862.097226 C494.388075,864.030223 492.821072,865.597226 490.888075,865.597226 C470.764472,865.597226 449.327783,865.146676 429.741953,864.252262 L426.477245,864.098475 C417.832618,863.67776 409.683587,863.172191 402.162614,862.583534 L401.023,862.493 L401.031331,863.573458 C401.050815,866.892613 401.04696,870.277343 401.021633,873.757517 L401.005,875.747 L410.071137,876.372099 L416.441672,876.729144 L424.731833,877.147025 L431.60292,877.452051 L442.480736,877.822772 C442.901194,877.838571 443.305532,877.854358 443.71533,877.870935 L457.811615,878.220436 C459.159936,878.248994 460.480894,878.273102 462.018135,878.297145 L474.936058,878.460352 C477.153956,878.482746 478.855419,878.494372 480.548186,878.498368 L484.568377,878.494249 C486.145234,878.487011 487.846544,878.472353 490.184485,878.44701 L504.00508,878.263375 L520.163827,877.872697 L522.965809,877.767954 L532.440267,877.447218 L542.371103,876.990279 L548.84535,876.65401 L554.097301,876.355375 C555.128491,876.293222 556.207092,876.221841 557.574302,876.126354 L562.914,875.748 L562.911095,875.505338 C562.812534,867.699852 562.874378,859.456164 563.095218,851.144052 L563.149003,849.224826 C563.473073,837.708527 563.9666,827.740821 564.704369,818.825152 L564.784354,817.873905 C565.59649,808.202449 566.639857,799.364902 567.891477,791.721991 C569.062729,784.834627 570.52865,778.725012 572.207263,773.719126 L572.373,773.231 L572.489787,772.766153 C573.096741,770.429194 573.974914,768.086366 575.113442,765.715983 L575.372,765.186 Z M582.256105,735.617843 L581.499445,735.660548 C580.473553,735.717587 579.411171,735.773779 578.30797,735.829223 L575.351871,735.97143 C555.895163,736.867632 527.640692,737.417461 487.480496,737.491435 L481,737.497 L481,737.5 L479.978,737.498 L478,737.5 L478,737.496 L471.678056,737.491434 C432.623355,737.418263 405.018304,736.879576 385.906368,736.000575 L384.023375,735.911545 C382.154007,735.820687 380.401039,735.727902 378.745021,735.632734 L378.775,735.876 L379.457892,736.512701 C380.726491,737.685244 382.356697,739.137046 384.268337,740.800321 L384.682252,741.159949 C387.73487,743.808517 391.140768,746.687204 394.176133,749.21459 C394.954421,749.271492 395.76958,749.332034 396.624444,749.394351 L401.076769,749.710658 C411.977572,750.485931 424.259387,751.078074 438.191075,751.537349 L440.836494,751.619098 C453.23567,751.989447 466.413783,752.20508 481.400423,752.321106 L484.582943,752.295049 C498.78229,752.170631 511.358578,751.948349 523.276338,751.5791 L524.597873,751.537465 C537.102666,751.125191 548.266532,750.607475 558.340007,749.945146 L561.783813,749.710043 C564.032126,749.555842 566.218016,749.395849 568.336277,749.230328 L568.251937,749.29814 C570.265543,747.645886 573.747145,744.498401 577.049608,741.333553 L578.117381,740.303456 C579.521622,738.939441 580.768349,737.689986 581.739332,736.673137 L582.177,736.209 L582.196673,736.083884 C582.217524,735.936277 582.237326,735.781155 582.256105,735.617843 Z M598.764132,700.348464 L598.399329,700.375186 C573.054369,702.166866 534.825452,703.440805 482.674975,703.497993 L481,703.5 L480.871163,703.499482 L480.871163,703.499482 L479,703.5 L479,703.498 L475.309705,703.495243 C423.945928,703.408834 386.570964,702.153828 362.276261,700.442949 C362.692122,701.413148 363.244688,702.49551 363.922868,703.677222 L364.171636,704.105574 C367.791012,710.2821 371.167622,715.672235 374.326465,720.324227 C377.381132,720.536228 380.790117,720.73669 384.75157,720.929231 L386.610015,721.017086 C405.477627,721.884579 432.872748,722.418899 471.725136,722.4915 L479.975,722.498 L487.434206,722.491499 C528.271497,722.416468 556.665985,721.848356 575.906031,720.928937 L579.128153,720.767075 C581.895735,720.620844 584.385895,720.46955 586.681612,720.311311 C589.840322,715.66 593.215659,710.271589 596.836748,704.091285 C597.644764,702.715877 598.294253,701.459526 598.764132,700.348464 Z M479.500353,345.5 L474.251279,345.507995 C420.580541,345.666825 366.210321,348.195328 284.990589,353.579642 L279.254,353.963 L281.129971,357.935688 C284.052565,364.128827 286.808382,370.028812 289.714885,376.341141 C297.821202,393.946401 305.570442,411.452008 312.86113,428.883504 C317.441857,439.835685 321.711094,450.45497 325.622369,460.676268 L326.594428,463.227705 C336.712576,489.904106 344.037623,512.99133 347.976443,531.749935 C353.23983,556.816643 356.638426,583.428228 358.688268,613.256603 L358.817282,615.164926 C360.209026,636.094028 360.890264,656.213514 361.346453,685.336758 C385.143785,687.093106 422.818401,688.407264 475.349963,688.495295 L480.5,688.499 L484.539259,688.495406 C537.053336,688.407758 575.061289,687.074755 599.655636,685.24507 C600.082102,658.017628 600.706858,638.657076 601.926937,619.130612 L602.182718,615.164926 C604.217797,584.561335 607.648183,557.349978 613.023553,531.749951 C617.087415,512.395834 624.755953,488.433945 635.377776,460.676234 C639.288988,450.455173 643.558155,439.836124 648.138821,428.884134 C655.429468,411.45281 663.178581,393.947522 671.285262,376.341401 C673.828267,370.818493 676.255758,365.611569 678.781186,360.246331 L681.675,354.12 L650.465203,352.175895 C603.717866,349.295027 572.269781,347.648175 539.809866,346.571723 L535.092013,346.420167 C515.52524,345.812179 497.087869,345.498456 479.500353,345.5 Z M480.50031,32 C357.078801,32 257,132.51348 257,256.536441 C257,266.93557 257.702994,277.244191 259.094172,287.416231 L259.293,288.832 L259.300818,288.86541 C259.341929,289.060341 259.358548,289.177051 259.369088,289.298043 L259.377,289.403 L259.493762,290.180981 C260.366086,295.89239 261.574321,302.162411 263.08049,308.745853 L263.358,309.947 L263.718231,311.408737 C266.100002,320.937051 269.100739,330.273888 272.696354,339.370068 L281.358067,338.787897 C366.129365,333.144167 421.930521,330.559131 477.736688,330.500997 L479.499023,330.499989 C498.669526,330.498317 518.819559,330.867386 540.30703,331.579964 L548.368518,331.859742 C576.907623,332.894517 605.664941,334.409732 645.659379,336.85279 L688.251578,339.501933 C698.451621,313.748562 703.839885,286.167697 703.996486,257.809473 L704,256.536441 C704,132.513791 603.920889,32 480.50031,32 Z" id="Combined-Shape" fill="#000000" fill-rule="nonzero"></path>
    </g>
</svg>