<?xml version="1.0" encoding="UTF-8"?>
<svg width="960px" height="960px" viewBox="0 0 960 960" version="1.1" xmlns="http://www.w3.org/2000/svg" xmlns:xlink="http://www.w3.org/1999/xlink">
    <!-- Generator: Sketch 60.1 (88133) - https://sketch.com -->
    <title>light_shelly_vintage_A60</title>
    <desc>Created with Sketch.</desc>
    <g id="light_shelly_vintage_A60" stroke="none" stroke-width="1" fill="none" fill-rule="evenodd">
        <path d="M480,3.55271368e-15 C619.728042,3.55271368e-15 733,113.271958 733,253 C733,309.97209 714.09742,364.106097 679.853293,408.15555 L680.244,407.649 L679.846852,408.258501 C656.859267,443.633501 643.432809,480.504088 639.440754,519.02163 L639.440754,519.02163 L639.321495,520.201253 C635.640309,557.551674 634.553611,570.987208 634.052876,583.085974 L634.022933,583.825237 L633.860565,588.205813 C633.661068,593.490801 633.482114,597.095338 633.117038,602.626873 L633.117038,602.626873 L632.956781,605.006419 C632.11113,617.346543 631.379775,639.58131 630.795167,667.323617 L630.795167,667.323617 L630.53077,680.908067 C630.329201,692.072472 630.171624,702.740156 630.108921,708.654913 L630.108921,708.654913 L630.075476,713.045126 C629.97958,718.074478 628.155242,721.880506 624.435102,727.528578 L624.435102,727.528578 L623.797496,728.487505 C621.31014,732.196555 617.995561,736.570324 614.256778,741.132632 L614.256778,741.132632 L613.84706,741.631437 C607.684801,749.116121 601.514247,755.823144 596.969019,759.734524 L596.722707,760.529469 C596.620504,760.850906 596.53425,761.106222 596.431761,761.389853 C595.886343,762.899266 595.199666,764.181142 594.177205,765.436924 L593.914481,765.750442 L593.773804,765.903948 C593.614907,766.067066 593.298029,766.426472 593.002499,766.766916 L592.436911,767.42329 C590.843589,769.373357 589.451958,771.339684 588.372368,773.178294 L588.085754,773.676458 L587.83535,774.130119 C586.864201,776.039022 586.154738,777.860367 585.745054,779.523077 L585.6489,779.935408 L585.591102,780.191527 L585.544927,780.372897 L585.487129,780.576463 C585.462925,780.661712 585.435419,780.745986 585.404674,780.829094 C583.947686,784.767512 582.669223,790.00759 581.566461,796.49379 L581.444655,797.219604 C580.219207,804.28815 579.21616,812.605261 578.42131,822.047332 C577.614661,831.82966 577.080255,842.193889 576.842414,852.530172 C576.533336,862.513698 576.483957,872.783886 576.672807,882.663586 L576.72497,885.124984 L576.757894,887.149847 C577.320663,888.255386 577.301913,889.644821 576.46142,890.757208 L576.321847,890.930464 L576.205056,891.060296 L548.722165,920.206726 L548.651114,920.324981 C548.543617,920.492685 548.418745,920.654608 548.275775,920.808822 L548.126745,920.960396 L547.998727,921.077667 L538.695173,929.214989 L514.613134,950.299399 L514.460878,950.425265 L513.944284,950.826704 L513.786571,950.963547 C506.862807,956.908225 500.170371,959.199024 481.679491,959.950678 L480.449827,959.997787 L480.326999,960 L479.97359,960 L479.850574,959.99778 C460.423319,959.296381 453.591347,957.037686 446.516008,950.96368 L446.359859,950.828657 L445.83932,950.422142 L445.704419,950.311041 L421.610987,929.216176 L412.305557,921.077739 C411.975647,920.789203 411.719863,920.465207 411.532428,920.121166 L411.41713,919.88734 L385.618056,891.870304 L385.541533,891.839355 C384.436826,891.346256 383.654095,890.287885 383.534014,889.050257 L383.520194,888.842393 L383.518404,888.660507 L383.576671,885.103685 L383.628049,882.62618 C383.795664,873.442454 383.735186,863.184185 383.458529,852.524259 C383.163178,842.169184 382.628453,831.799383 381.880311,822.054305 C381.087886,812.618768 380.083775,804.296676 378.851477,797.196306 C377.815929,790.933309 376.516068,785.50757 375.059294,781.294417 L374.846205,780.683573 L374.754707,780.365861 L374.711074,780.193826 L374.648131,779.915192 C374.258732,778.136605 373.504364,776.182239 372.446212,774.205891 C371.328266,772.135149 369.923362,770.021602 368.342577,768.023142 L367.889666,767.461382 L366.398322,765.747884 L366.327822,765.65945 L366.198276,765.47963 L366.085496,765.352431 C364.753865,763.817657 363.889624,762.336799 362.818792,759.998282 L362.627539,759.576514 L361.80052,757.724482 C361.627059,757.34231 361.480141,757.026631 361.345127,756.748177 C357.286727,752.747429 352.501701,747.378026 347.743222,741.571417 L347.743222,741.571417 L347.185636,740.888544 C343.675049,736.573393 340.565492,732.449887 338.202504,728.92629 C333.943594,722.575568 331.92053,718.586554 331.92053,713.0619 C331.92053,709.973268 331.766415,698.436207 331.54209,685.469165 L331.54209,685.469165 L331.185072,666.829359 C330.623592,640.452629 329.928594,619.144466 329.128343,606.72664 L329.128343,606.72664 L328.933919,603.832241 C328.568878,598.377806 328.381984,594.828575 328.193489,590.047004 L328.193489,590.047004 L328.056152,586.379665 L327.929009,583.092544 C327.485833,572.650107 326.590974,561.018739 323.964172,533.806872 L323.964172,533.806872 L322.678505,520.640037 C319.180496,485.148188 307.6885,451.059788 288.108483,418.246738 L288.108483,418.246738 L287.376,417.027 L287.033681,416.626539 C248.913912,371.722225 227.43658,314.937558 227.006584,254.840724 L227.006584,254.840724 L227,253 C227,113.271958 340.271958,3.55271368e-15 480,3.55271368e-15 Z M448.847198,932.038637 L457.665895,939.942707 L457.871998,940.12312 C461.662743,943.436285 465.841014,944.75489 480.109712,945.331061 L480.507614,945.346363 L481.952489,945.286424 C494.866088,944.710562 499.117987,943.454422 502.712649,940.484726 L503.19821,940.070344 L503.928401,939.422922 L512.13194,932.039614 L509.770671,932.10425 C506.789563,932.178884 503.642713,932.235785 500.363655,932.274396 L489.545553,932.370735 C486.756399,932.38998 484.337392,932.400359 481.88958,932.403156 L476.209555,932.396235 C473.686636,932.386937 471.004383,932.36869 467.473889,932.338644 L463.03165,932.299011 C458.469264,932.258297 454.14058,932.183257 450.117065,932.074926 L448.847198,932.038637 Z M571.55399,770.210831 L571.406821,770.225552 C567.178771,770.63365 562.676795,770.984924 558.001621,771.273757 L555.806216,771.422619 C555.257903,771.458883 554.705427,771.494753 554.148825,771.530231 C553.775198,771.58044 553.400272,771.630409 553.023182,771.680294 L553.023182,771.680294 L550.832942,771.966017 C534.196693,774.106579 516.209003,775.621097 499.003752,776.244571 L499.003752,776.244571 L497.897,776.282 L496.892138,776.545213 C496.728496,776.586146 496.616506,776.61217 496.500175,776.6363 L496.500175,776.6363 L496.082163,776.716014 C495.238725,776.836297 494.957579,776.876391 494.752434,776.896043 L494.752434,776.896043 L493.932907,776.945074 L493.684636,776.95333 C493.496163,776.95874 493.263024,776.963288 492.974333,776.967227 L492.974333,776.967227 L491.181624,776.982147 L479.864642,777 C457.93295,777 433.348723,775.258884 411.167058,772.404802 C408.419043,772.051219 405.779994,771.693742 403.253824,771.331197 C402.983273,771.312379 402.714161,771.293842 402.446059,771.275206 C398.943956,771.054361 395.429452,770.789138 391.840131,770.477758 L389.357844,770.25576 L389.561953,770.672418 C390.716583,773.071243 391.576658,775.407283 392.128561,777.728427 L392.209017,778.084121 L392.37934,778.568684 C392.539261,779.033809 392.696732,779.509564 392.851786,779.995915 L393.096656,780.779852 L393.927656,780.86217 L396.057943,781.064145 C405.025268,781.894469 415.124458,782.584206 426.083665,783.129489 L430.065662,783.319543 C448.713773,784.171954 469.438418,784.601301 489.146071,784.601301 C490.968719,784.601301 492.45777,786.031481 492.555015,787.832236 L492.560066,788.019799 L492.560066,793.930066 C492.560066,795.818051 491.031569,797.348565 489.146071,797.348565 C469.479007,797.348565 448.582324,796.909726 429.502464,796.036128 L426.681752,795.903558 C415.936566,795.38367 405.97557,794.729323 397.056279,793.944638 L396.175104,793.865863 L396.396687,795.100549 L396.573352,796.123492 C396.959558,798.375634 397.324044,800.746655 397.667682,803.234725 L397.887955,804.874405 L398.520865,804.930998 C406.807914,805.658251 415.991724,806.269969 425.856553,806.762556 L430.065559,806.963631 C448.731099,807.81627 469.465601,808.246602 489.146071,808.246602 C490.968719,808.246602 492.45777,809.676782 492.555015,811.477537 L492.560066,811.6651 L492.560066,817.575972 C492.560066,819.463957 491.031569,820.99447 489.146071,820.99447 C469.516961,820.99447 448.607031,820.554411 429.502484,819.680826 L426.575703,819.543162 C417.853528,819.120433 409.659744,818.610127 402.125804,818.013404 L399.319882,817.783631 L399.454158,819.251451 L399.664549,821.687536 C399.809544,823.51761 399.947024,825.388853 400.077014,827.299037 L400.17143,828.716966 L400.830956,828.773639 L403.397864,828.982396 C411.175918,829.598127 419.643751,830.118896 428.634237,830.541476 L430.065662,830.607727 C448.723942,831.460603 469.45436,831.890694 489.146071,831.890694 C490.968719,831.890694 492.45777,833.320874 492.555015,835.121629 L492.560066,835.309192 L492.560066,841.220669 C492.560066,843.108653 491.031569,844.639167 489.146071,844.639167 C469.531364,844.639167 448.616546,844.199005 429.501882,843.326099 L426.524134,843.185488 C417.652719,842.753811 409.342534,842.233548 401.721817,841.624843 L400.86886,841.554892 L400.952066,843.469818 C401.032445,845.420348 401.104612,847.379581 401.168371,849.342002 L401.261957,852.452088 L401.705673,852.489976 C409.934108,853.165359 418.98494,853.732191 428.676594,854.189099 L430.065456,854.253623 C448.728059,855.105561 469.460934,855.53539 489.146071,855.53539 C490.968719,855.53539 492.45777,856.965571 492.555015,858.766325 L492.560066,858.953889 L492.560066,864.865365 C492.560066,866.75335 491.031569,868.283863 489.146071,868.283863 C469.516961,868.283863 448.607031,867.843804 429.50248,866.970219 L426.317995,866.820013 C417.885791,866.409095 409.937004,865.915297 402.600842,865.340349 L401.489232,865.251923 L401.497358,866.307221 C401.516363,869.549085 401.512604,872.854999 401.487898,876.254132 L401.471674,878.197288 L410.315031,878.807831 L416.529024,879.156562 L424.615473,879.564711 L431.317718,879.862635 L441.928235,880.224723 C442.338362,880.240154 442.732764,880.255574 443.132492,880.271765 L456.882392,880.613127 C458.197581,880.641019 459.48608,880.664566 460.985546,880.68805 L473.58604,880.847456 C475.749438,880.869329 477.409091,880.880684 479.060262,880.884587 L482.981666,880.880563 C484.519775,880.873495 486.179279,880.859178 488.459771,880.834425 L501.940754,880.655066 L517.702436,880.273486 L520.435566,880.171182 L529.67721,879.857914 L539.364017,879.411615 L545.679173,879.083177 L550.802069,878.791496 C551.807921,878.730791 552.860018,878.661072 554.193631,878.567808 L559.402118,878.198264 L559.399285,877.961253 C559.303145,870.337527 559.363469,862.285803 559.578883,854.167249 L559.631346,852.292714 C559.947453,841.044586 560.428852,831.308989 561.148492,822.600932 L561.226512,821.671836 C562.018692,812.225592 563.036421,803.593837 564.257285,796.1289 C565.399756,789.401917 566.829654,783.434572 568.46702,778.545253 L568.628684,778.068494 L568.742601,777.614472 C569.334641,775.331931 570.191234,773.043658 571.301785,770.728473 L571.55399,770.210831 Z M592.078382,720.856258 L591.889748,720.90339 C567.078229,727.067354 535.929209,730.520778 498.385752,731.31955 L496.321,731.36 L496.321518,731.5 L463.67889,731.5 L463.678,731.36 L463.176387,731.351183 C425.871522,730.633856 394.821747,727.320803 369.971987,721.357964 L370.090974,721.504688 L370.947014,722.556055 C374.003365,726.285614 377.262837,730.008577 380.08387,732.999709 C381.210403,734.19417 382.233037,735.235551 383.102744,736.076757 L383.102744,736.076757 L383.605826,736.557082 C383.788195,736.728751 383.95822,736.885886 384.114317,737.027365 L384.114317,737.027365 L384.184,737.09 L384.842261,737.290342 C386.482063,737.768757 388.788533,738.321469 391.617662,738.903823 L391.617662,738.903823 L392.239011,739.030514 C397.680473,740.129639 404.581033,741.256946 412.294161,742.294649 L412.294161,742.294649 L414.995551,742.650094 C431.379158,744.758148 449.196607,746.22734 466.020044,746.769237 L466.020044,746.769237 L466.336,746.778 L466.653875,746.731496 L466.986075,746.693522 C467.371751,746.658285 467.487454,746.647713 467.609935,746.639728 L467.609935,746.639728 L468.274454,746.608891 C468.447867,746.603544 468.63935,746.599417 468.864399,746.595962 L468.864399,746.595962 L470.686896,746.5798 L482.135358,746.561216 C502.713208,746.561216 526.033432,744.909619 547.004449,742.21131 C555.503564,741.117741 563.146811,739.90449 569.126689,738.71867 L569.126689,738.71867 L570.382338,738.465039 C573.211467,737.882684 575.517937,737.329973 577.157739,736.851557 L577.157739,736.851557 L577.36777,736.789587 L577.814,736.652 L578.394174,736.118297 C579.200751,735.359047 580.170058,734.3902 581.25307,733.258855 L581.25307,733.258855 L581.91613,732.560925 C584.737163,729.569792 587.996635,725.84683 591.052986,722.11727 C591.399949,721.693883 591.741945,721.273289 592.078382,720.856258 Z M605.308947,562.185999 L604.50627,562.4169 C578.119886,569.947302 543.793742,574.199671 501.450935,575.24446 L497.633,575.329 L497.633741,575.5 L462.366386,575.5 L462.366,575.329 L461.725447,575.316509 C418.569011,574.422752 383.587446,570.260681 356.701592,562.757774 C357.353704,570.976858 357.704385,576.919714 357.937209,582.667928 L357.937209,582.667928 L358.167959,588.808474 C358.330132,592.929847 358.488613,596.034584 358.774387,600.427159 L358.774387,600.427159 L359.017019,604.04858 C360.356348,624.347445 361.579026,677.185521 361.860105,703.634607 C389.615622,712.070549 428.129305,716.398498 477.278696,716.498236 L480.978102,716.5 C532.159652,716.5 571.926179,711.959842 600.141934,703.012775 C600.420248,677.094742 601.592833,626.194374 602.893864,605.010772 L602.893864,605.010772 L602.980667,603.64489 L603.179414,600.692977 C603.494715,595.919798 603.661333,592.707977 603.832041,588.369689 L603.832041,588.369689 L604.030614,583.041423 C604.264404,577.005521 604.619176,570.862737 605.308947,562.185999 Z M480,30 C356.840501,30 257,129.840501 257,253 C257,307.137948 276.340144,358.243519 310.938645,398.421483 L310.938645,398.421483 L311.742639,399.355133 L312.383504,400.407465 C335.089455,437.691796 348.506435,476.83417 352.533852,517.697551 C353.691629,529.444696 354.598779,538.890593 355.315148,546.713902 C384.34711,555.757891 425.323397,560.394885 478.105731,560.498233 L480.08512,560.5 C534.98259,560.5 577.239748,555.643809 606.704407,546.070849 C607.145719,541.247106 607.66014,535.808046 608.260667,529.59675 L608.260667,529.59675 L609.466148,517.258767 C613.82886,472.993377 629.207537,430.759452 655.468165,390.72237 L655.468165,390.72237 L655.798617,390.218561 L657.069938,388.57534 C686.68603,349.959413 703,302.741363 703,253 C703,129.840501 603.159499,30 480,30 Z M544.500464,132.776993 L569.972428,410.038256 C570.294177,413.540478 567.762854,416.644804 564.31856,416.971965 C560.874265,417.299125 557.821285,414.725229 557.499536,411.223007 L532.027572,133.961744 C531.705822,130.459522 534.237146,127.355196 537.68144,127.028035 C541.125734,126.700875 544.178715,129.274771 544.500464,132.776993 Z M518.842545,132.776993 L542.97388,410.038256 C543.278694,413.540478 540.880598,416.644804 537.617583,416.971965 C534.354567,417.299125 531.46227,414.725229 531.157455,411.223007 L507.026121,133.961744 C506.721305,130.459522 509.119401,127.355196 512.382417,127.028035 C515.645432,126.700875 518.53773,129.274771 518.842545,132.776993 Z M492.171504,132.776993 L516.973154,410.038256 C517.286435,413.540478 514.821726,416.644804 511.468071,416.971965 C508.114416,417.299125 505.141777,414.725229 504.828496,411.223007 L480.026846,133.961744 C479.713564,130.459522 482.178273,127.355196 485.531928,127.028035 C488.885583,126.700875 491.858223,129.274771 492.171504,132.776993 Z M451.828496,132.776993 C452.141777,129.274771 455.114417,126.700875 458.468072,127.028035 C461.821727,127.355196 464.286436,130.459522 463.973154,133.961744 L463.973154,133.961744 L439.171504,411.223007 C438.858223,414.725229 435.885584,417.299125 432.531929,416.971965 C429.178274,416.644804 426.713565,413.540478 427.026846,410.038256 L427.026846,410.038256 Z M425.499536,132.776993 C425.821285,129.274771 428.874266,126.700875 432.31856,127.028035 C435.762854,127.355196 438.294178,130.459522 437.972428,133.961744 L437.972428,133.961744 L412.500464,411.223007 C412.178715,414.725229 409.125735,417.299125 405.68144,416.971965 C402.237146,416.644804 399.705823,413.540478 400.027572,410.038256 L400.027572,410.038256 Z M398.828496,132.776993 C399.141777,129.274771 402.114417,126.700875 405.468072,127.028035 C408.821727,127.355196 411.286436,130.459522 410.973154,133.961744 L410.973154,133.961744 L386.171504,411.223007 C385.858223,414.725229 382.885584,417.299125 379.531929,416.971965 C376.178274,416.644804 373.713565,413.540478 374.026846,410.038256 L374.026846,410.038256 Z" id="Combined-Shape" fill="#000000" fill-rule="nonzero"></path>
        <path d="M479.5,446.5 C502.056053,446.5 520.924949,463.160303 524.051165,485.182976 L524.141067,485.85196 L524.21,486.435 L524.5,486.494435 L524.5,571.98157 L434.5,572.512515 L434.5,490.930913 C434.809641,466.309692 454.866959,446.5 479.5,446.5 Z M479.5,457.5 C461.081173,457.5 446.036805,472.163982 445.511464,490.444936 L445.5,491 L445.5,561.447 L513.5,561.046 L513.5,493.872259 L513.495431,490.935958 C513.194754,472.391057 498.060973,457.5 479.5,457.5 Z" id="Combined-Shape" fill="#000000" fill-rule="nonzero"></path>
    </g>
</svg>