<?xml version="1.0" encoding="utf-8"?>
<!-- Generator: Adobe Illustrator 21.0.0, SVG Export Plug-In . SVG Version: 6.00 Build 0)  -->
<svg version="1.1" id="Layer_1" xmlns="http://www.w3.org/2000/svg" xmlns:xlink="http://www.w3.org/1999/xlink" x="0px" y="0px"
	 viewBox="0 0 1417.3 430" style="enable-background:new 0 0 1417.3 430;" xml:space="preserve">
<g>
	<path d="M13.9,224.4c0.6-0.4,1.6-0.8,1.7-1.3c6-30.7,28.6-43,55.7-49.7c13.7-3.4,27.9-5.2,42.2-5.1c33.3,0,66.6,0,99.8,0.1
		c3,0,7.4-1.9,9,1.9c1.4,3.2-1.5,6.4-3.4,9.1c-8.3,12.1-20.3,18.4-34.6,20.4c-10.4,1.5-20.8,1.7-31.3,1.5c-13-0.2-25.2,2.7-36.6,8.8
		c-23.3,12.6-25.2,39.1-4,54.8c13.3,9.8,28.6,14.4,44.6,16.8c20.2,3,40.2,2.1,59.5-5.4c32.3-12.4,46.3-38.6,38.9-72.4
		c-3.9-17.6-10.4-34.2-16.8-50.9c-7.2-18.8-14.1-37.8-14-58.4c0.2-25.2,11.7-43.4,33.8-55.2c20.6-11.1,43.1-14.7,65.8-16
		c25-1.5,50-2.7,75,1.3c13.8,2.2,27,6.3,38.4,14.6c24,17.5,18.8,51-6.8,66.3c-2.3,1.4-5,1.4-7.6,1.4c-19.4,0-38.9,0.1-58.3-0.1
		c-8.8-0.1-9-0.6-4.9-8.9c5.5-11,11.1-22,16.6-33.1c1.4-2.8,2.6-6.3-2.4-6.2c-16.4,0.3-32.9-1.9-49.2,1.3
		c-14,2.8-19.6,10.1-19.4,24.4c0.2,11.8,4.7,22.5,8.5,33.5c8.2,24,18.9,47.1,24.2,72.1c9,42.9-5.9,76.5-44,98.3
		c-24.7,14.1-51.6,21.7-79.6,25c-46.9,5.6-93.2,2.9-138.1-12.8c-20.2-7.1-39.2-16.5-52-35.2c-4.9-7.2-5.4-16-10.5-22.9
		C13.9,236.3,13.9,230.4,13.9,224.4z"/>
	<path d="M817.4,271.8c13.1,0,26.2-0.4,39.3,0.1c7.1,0.3,10.3-1.9,12.7-8.9c22.1-63.4,44.8-126.6,66.9-190
		c2.7-7.9,6.2-11.2,14.9-10.8c17.5,0.7,35.2,0.2,52.7,0.2c9.3,0,9.4,0.2,6.2,9.2c-18.2,51-36.4,101.9-54.6,152.9
		c-4.4,12.3-8.8,24.6-13.1,36.9c-3.2,9.3-3,9.6,6.3,9.7c15,0.1,29.9-0.3,44.9,0.2c6.5,0.2,9.1-2.4,11.1-8.2
		c22-62.7,44.1-125.3,66.5-187.9c5.1-14.4,1.5-12.8,17.6-12.9c16.1-0.1,32.2,0,48.3,0c11.6,0,11.8,0.1,8,10.7
		c-17.8,49.9-35.6,99.8-53.4,149.7c-4.9,13.7-9.6,27.5-14.7,41.1c-2.1,5.5-1,7.4,5,7.3c13.8-0.2,27.7-0.3,41.5,0
		c5.5,0.1,7.3-2.2,9-7.3c10.1-29.3,20.9-58.3,31.2-87.5c2.1-6.1,4.7-9,11.8-8.8c19.1,0.6,38.1,0.1,57.2,0.2c9.1,0,9.1,0.2,5.9,9.2
		c-10.2,28.5-20.5,56.9-30.6,85.4c-3,8.4-2.9,8.6,6,8.6c10.1,0,22,2.9,29.7-1.4c7.9-4.4,8.2-17.5,11.6-26.9
		c8.2-22.4,16.3-44.9,23.9-67.5c1.9-5.6,4.6-7.6,10.4-7.5c19.4,0.3,38.9,0.4,58.3,0c7.1-0.1,8.1,1.8,5.7,8.2
		c-10.1,27.7-19.8,55.5-29.6,83.3c-4.2,11.9-4.2,11.9,8.9,11.9c20.9,0,41.9-0.1,62.8,0c8.4,0,8.5,0.3,4.6,8
		c-8.8,17.7-24,24.9-42.9,25.2c-12.7,0.2-25.5,0.5-38.1-0.1c-7.5-0.4-11.4,1.8-14,9.2c-6.1,17.3-14.1,33.8-24.1,49.2
		c-16.1,24.6-37.6,41.2-67.8,44.7c-10.2,1.2-20.2,0.6-29.9-2.5c-23.8-7.7-36-30.3-30.9-57.5c2.5-13.4,7.2-25.9,16.5-36.3
		c1.2-1.3,3.2-2.7,2.6-4.7c-0.9-2.8-3.7-1.8-5.7-1.9c-7.5-0.3-15-1.1-21.5-5.2c-3.7-2.3-7-1.8-10.5-0.2c-10.1,4.5-20.9,5.4-31.8,5.4
		c-22.4,0-44.9,0.1-67.3,0c-9.7,0-19.6-0.1-28-6.1c-3.2-2.3-5.6-0.6-8.2,0.6c-10.1,4.6-20.6,6-31.6,6
		c-141.4-0.1-282.8-0.1-424.2-0.1c-5.2,0-10.4,0.3-15.6-1.2c-10.8-3-14.6-8.3-13.3-19.6c1.5-12.8,7.1-24.3,10.7-36.4
		c0.9-2.9,2-5.6,2.9-8.5c0.3-1,0.3-2.5-0.3-3.1c-1.3-1.5-2.7-0.1-3.7,0.7c-4.1,3.2-8.1,6.6-12.2,9.9c-18.4,15.2-37,30.4-55.3,45.8
		c-10.2,8.5-21.6,13-35,12.5c-9.7-0.3-19.5-0.4-29.2,0c-6.6,0.3-7.5-1.7-5.3-7.6c9.4-26,18.4-52.1,27.7-78.1
		c17.5-49.2,35.2-98.4,52.3-147.7c2.4-6.8,5.2-9.5,12.5-9.3c17.9,0.5,35.9,0.1,53.9,0.2c9.5,0,9.7,0.2,6.5,9.2
		c-15.3,43.7-30.7,87.3-46.1,130.9c-2.2,6.3-4.5,12.7-6.8,19c-0.8,2.1-2.1,4.3-0.2,6.1c0.3,0.3,3.1-1.6,4.5-2.8
		c15.6-12.7,31.2-25.6,46.9-38.3c16.7-13.6,36-19.3,57.3-18.3c19.1,1,25.8,10,19.8,27.9c-7.5,22.3-15.5,44.4-23.2,66.6
		c-3.1,8.8-2.9,8.9,6.5,8.9c16.5,0.1,32.9-0.1,49.4,0.1c5.4,0.1,7.1-1,5.5-7c-8.9-33.5,1.8-60.3,30.8-79
		c16.4-10.6,34.5-16.6,53.8-17.2c23.1-0.6,46.3-2.5,69.4,1.8c8.9,1.6,17.3,4.3,25.3,8.7c25.8,14.3,26.9,47.5,1.6,62.8
		c-16,9.7-34,15.4-51.2,22.6c-3.1,1.3-6.3,2.4-9.3,3.8c-1.2,0.6-7.6,3.2-7.6,3.2s6.8,0.1,8.1,0.1
		C788.2,271.8,802.8,271.8,817.4,271.8z M764.5,201.2c-3,0-6,0.3-9-0.1c-8.2-1-12.9,1.4-15,10.3c-2.7,11.5-7.4,22.6-11.2,33.9
		c-5.6,17-0.4,25,17.3,26.2c2.2,0.2,4,0.3,6.7,0.2c5.6-0.1,8.7-1.2,10.6-7c6.2-18.4,13.1-36.4,19.7-54.7c3.1-8.7,2.9-8.8-6.8-8.9
		C772.7,201.2,768.6,201.2,764.5,201.2z M1227.2,310.4c-1.5,0.6-3.4,1.1-5,2.1c-15.7,10.1-24.7,24.3-25.3,43.2
		c-0.2,5.9,2.2,10.8,6,15.2c3.2,3.7,5.5,4.7,7.5-1.1c4.3-12.3,8.9-24.4,13.4-36.6c2.2-5.9,4.5-11.8,6.5-17.8
		C1230.9,313.2,1232.2,309.8,1227.2,310.4z"/>
</g>
</svg>
