<?xml version="1.0" encoding="utf-8"?>
<svg version="1.1" id="Layer_1" xmlns="http://www.w3.org/2000/svg" xmlns:xlink="http://www.w3.org/1999/xlink" x="0px" y="0px"
	 viewBox="0 0 1417.3 1259.3" style="enable-background:new 0 0 1417.3 1259.3;" xml:space="preserve">
<g>
	<path d="M1411.4,63.6L1359,7c-4.2-4.5-10-7-16.1-7h-39.6c-7.7,0-14.7,3.9-18.7,10.4c-4,6.5-4.4,14.6-1,21.4l3.2,6.3H130.6l3.2-6.3
		c3.4-6.9,3.1-14.9-1-21.4c-4-6.5-11-10.4-18.7-10.4H74.5c-6.1,0-12,2.6-16.1,7L5.9,63.6C2.1,67.6,0,73,0,78.5v276.9
		c0,12,9.6,21.7,21.5,22l4.1,2.8v463.4c0,5.7,2.2,11.1,6.1,15.2l136.7,143.9v23.3c0,5.7,2.2,11.1,6.1,15.2l201.8,210.5
		c4.1,4.3,9.9,6.8,15.9,6.8H1023c5.8,0,11.5-2.4,15.6-6.5l372.3-372.3c4.1-4.1,6.5-9.8,6.5-15.6V78.5
		C1417.3,73,1415.2,67.6,1411.4,63.6z M124.5,62h1168.4v141.2c0,16.4-13.3,29.7-29.7,29.7H154.2c-16.4,0-29.7-13.3-29.7-29.7V62z
		 M49.3,842.9V385.8l297-0.3l169.9,171.5v260.6l-181.7,189.7H192.1v-5.3c0-5.7-2.1-11.1-6.1-15.2L49.3,842.9z M1393.6,863.5
		l-371.3,371.3H393l-195.4-203.7h147.1L540,827.2V547.3L356.2,361.8l-315.3,0.3c-0.4-0.3-0.8-0.7-1.2-1l-5.3-3.6
		c-3.2-2.2-6.9-3.5-10.7-3.8V79.2l51.5-55.5h36.1l-8.3,16.5c-1.5,3-2.3,6.5-2.3,9.9v153c0,29.5,24,53.4,53.4,53.4h1108.9
		c29.5,0,53.4-24,53.4-53.4v-153c0-3.4-0.8-6.8-2.3-9.9l-8.3-16.5h36.1l51.5,55.5V863.5z"/>
	<path d="M212.1,214.4c17.6,0,35.3-6.7,48.7-20.1c26.8-26.8,26.8-70.5,0-97.4c-13-13-30.3-20.2-48.7-20.2
		c-18.4,0-35.7,7.2-48.7,20.2c-26.8,26.8-26.8,70.5,0,97.4C176.8,207.7,194.5,214.4,212.1,214.4z M168.7,102.2
		c11.6-11.6,27-18,43.4-18c16.4,0,31.8,6.4,43.4,18c23.9,23.9,23.9,62.9,0,86.9c-23.9,23.9-62.9,23.9-86.9,0
		C144.7,165.1,144.7,126.2,168.7,102.2z"/>
	<path d="M174,183.7C174,183.7,174,183.7,174,183.7C174,183.7,174,183.7,174,183.7l6.3,6.3l0.6-0.6c9.3,6.6,20.2,10,31.2,10
		c13.8,0,27.6-5.2,38.1-15.7c18.8-18.8,20.7-48.2,5.7-69.2l0.6-0.6l-12.6-12.6l-0.6,0.6c-21-15-50.4-13.1-69.2,5.7
		c-18.8,18.8-20.7,48.2-5.7,69.2l-0.6,0.6L174,183.7z M246,111.8c0.7,0.7,1.4,1.5,2,2.2l-31.7,31.7l19.2,19.2l-4.2,4.2l-19.2-19.2
		l-31.6,31.6c-0.7-0.7-1.5-1.3-2.2-2l0,0c-0.7-0.7-1.3-1.5-2-2.2l31.6-31.6l-19.3-19.3l4.2-4.2l19.3,19.3l31.7-31.7
		C244.5,110.4,245.2,111.1,246,111.8z M246,179.5c-16.5,16.5-42.2,18.4-60.8,5.7l26.9-26.9l19.2,19.2l12.6-12.6l-19.2-19.2l27-27
		C264.3,137.3,262.5,163,246,179.5z M178.2,111.8c9.3-9.3,21.6-14,33.9-14c9.4,0,18.8,2.8,26.9,8.3l-27,27l-19.3-19.3l-12.6,12.6
		l19.3,19.3l-26.9,26.9C159.8,153.9,161.7,128.3,178.2,111.8z"/>
	<path d="M376.6,214.4c17.6,0,35.3-6.7,48.7-20.1c26.8-26.8,26.8-70.5,0-97.4c-26.8-26.8-70.5-26.8-97.4,0
		c-26.8,26.8-26.8,70.5,0,97.4C341.4,207.7,359,214.4,376.6,214.4z M333.2,102.2c12-12,27.7-18,43.4-18c15.7,0,31.5,6,43.4,18
		c23.9,23.9,23.9,62.9,0,86.9c-23.9,23.9-62.9,23.9-86.9,0C309.3,165.1,309.3,126.2,333.2,102.2z"/>
	<path d="M338.6,183.7C338.6,183.7,338.6,183.7,338.6,183.7C338.6,183.7,338.6,183.7,338.6,183.7l6.3,6.3l0.6-0.6
		c9.3,6.6,20.2,10,31.2,10c13.8,0,27.6-5.2,38.1-15.7c18.8-18.8,20.7-48.2,5.7-69.2l0.6-0.6l-12.6-12.6l-0.6,0.6
		c-21-15-50.4-13.1-69.2,5.7c-18.8,18.8-20.7,48.2-5.7,69.2l-0.6,0.6L338.6,183.7z M410.5,111.8c0.7,0.7,1.4,1.5,2,2.2l-31.7,31.7
		l19.2,19.2l-4.2,4.2l-19.2-19.2L345,181.5c-0.7-0.7-1.5-1.3-2.2-2l0,0c-0.7-0.7-1.3-1.5-2-2.2l31.6-31.6l-19.3-19.3l4.2-4.2
		l19.3,19.3l31.7-31.7C409,110.4,409.8,111.1,410.5,111.8z M410.5,179.5c-16.5,16.5-42.2,18.4-60.8,5.7l26.9-26.9l19.2,19.2
		l12.6-12.6l-19.2-19.2l27-27C428.9,137.3,427,163,410.5,179.5z M342.8,111.8c9.3-9.3,21.6-14,33.9-14c9.4,0,18.8,2.8,26.9,8.3
		l-27,27l-19.3-19.3l-12.6,12.6l19.3,19.3l-26.9,26.9C324.4,153.9,326.3,128.3,342.8,111.8z"/>
	<path d="M541.4,214.7c17.7,0,35.4-6.8,48.8-20.3c26.8-26.9,26.6-70.6-0.3-97.3c-26.9-26.8-70.6-26.6-97.3,0.3
		c-26.8,26.9-26.6,70.6,0.3,97.3C506.3,208,523.9,214.7,541.4,214.7z M497.9,102.6c11.6-11.6,27-18.1,43.4-18.1c0.1,0,0.1,0,0.2,0
		c16.3,0,31.7,6.3,43.3,17.9c11.6,11.6,18.1,27,18.1,43.4c0,16.4-6.3,31.8-17.9,43.5c-23.9,24-62.8,24.1-86.9,0.3
		C474.1,165.5,474,126.6,497.9,102.6z"/>
	<path d="M503.5,184C503.5,184,503.5,184,503.5,184C503.5,184,503.5,184,503.5,184l6.3,6.3l0.6-0.6c9.3,6.6,20.1,9.9,31,9.9
		c13.8,0,27.7-5.3,38.2-15.8c10.1-10.2,15.7-23.7,15.7-38.1c0-11.3-3.6-22.1-10.1-31.2l0.6-0.6l-6.3-6.3c0,0,0,0,0,0c0,0,0,0,0,0
		l-6.3-6.3l-0.6,0.6c-9-6.4-19.8-9.9-31.1-9.9c-0.1,0-0.1,0-0.2,0c-14.4,0-27.9,5.7-38,15.9c-10.1,10.2-15.7,23.7-15.7,38.1
		c0,11.3,3.6,22.1,10.1,31.2l-0.6,0.6L503.5,184z M575.2,111.9L575.2,111.9c0.7,0.7,1.4,1.5,2,2.2l-31.6,31.8l19.2,19.1l-4.2,4.3
		l-19.2-19.1l-31.5,31.7c-0.7-0.7-1.5-1.3-2.2-2l0,0c-0.7-0.7-1.4-1.5-2-2.2l31.5-31.7l-19.4-19.2l4.2-4.3l19.4,19.2l31.6-31.8
		C573.7,110.6,574.5,111.2,575.2,111.9z M589.3,145.7c0,12.8-4.9,24.8-13.9,33.9c-16.5,16.6-42.1,18.5-60.8,5.9l26.8-27l19.2,19.1
		l12.6-12.7L554,145.9l26.9-27.1C586.4,126.7,589.3,136,589.3,145.7z M493.5,146c0-12.8,4.9-24.8,13.9-33.9c9-9.1,21-14.1,33.8-14.1
		c0,0,0.1,0,0.1,0c9.7,0,19,2.9,26.8,8.2l-26.9,27.1L522,114l-12.6,12.7l19.4,19.2l-26.8,27C496.5,165.1,493.6,155.8,493.5,146z"/>
	<path d="M706,214.2c17.7,0,35.4-6.8,48.8-20.3c26.8-26.9,26.6-70.6-0.3-97.3c-26.9-26.8-70.6-26.6-97.3,0.3
		c-26.8,26.9-26.6,70.6,0.3,97.4C670.9,207.5,688.4,214.2,706,214.2z M662.4,102.1C674.4,90,690.2,84,706,84
		c15.7,0,31.3,5.9,43.3,17.8c24,23.9,24.1,62.8,0.2,86.9c-11.6,11.6-27,18.1-43.4,18.1c-0.1,0-0.1,0-0.2,0
		c-16.3,0-31.7-6.3-43.3-17.9C638.7,165.1,638.5,126.1,662.4,102.1z"/>
	<path d="M668,183.6L668,183.6L668,183.6l6.3,6.3l0.6-0.6c9.3,6.6,20.1,9.9,31,9.9c13.8,0,27.7-5.3,38.2-15.8
		c18.8-18.9,20.6-48.3,5.5-69.2l0.6-0.6l-12.7-12.6l-0.6,0.6c-9-6.4-19.8-9.9-31.1-9.9c-0.1,0-0.1,0-0.2,0c-14.4,0-27.9,5.7-38,15.9
		c-10.1,10.2-15.7,23.7-15.7,38.1c0,11.3,3.6,22.1,10.1,31.2l-0.6,0.6L668,183.6z M739.7,111.4c0.7,0.7,1.4,1.5,2,2.2l-31.6,31.8
		l19.2,19.1l-4.2,4.3L706,149.7l-31.5,31.7c-0.8-0.7-1.5-1.3-2.2-2l0,0c-0.7-0.7-1.4-1.5-2-2.2l31.5-31.7l-19.4-19.2l4.2-4.3
		l19.4,19.2l31.6-31.8C738.3,110.1,739,110.7,739.7,111.4z M739.9,179.2c-16.5,16.6-42.1,18.5-60.8,5.9l26.8-27l19.2,19.1l12.6-12.7
		l-19.2-19.1l26.9-27C758.2,136.9,756.4,162.6,739.9,179.2z M672,111.6c9.3-9.4,21.7-14.1,34-14.1c9.4,0,18.7,2.8,26.8,8.2l-26.9,27
		l-19.4-19.2L674,126.2l19.4,19.2l-26.8,27C653.7,153.9,655.6,128.2,672,111.6z"/>
	<path d="M870.5,214.4c17.6,0,35.3-6.7,48.7-20.1c13-13,20.2-30.3,20.2-48.7S932.2,110,919.2,97s-30.3-20.2-48.7-20.2
		c-18.4,0-35.7,7.2-48.7,20.2c-26.8,26.8-26.8,70.5,0,97.4C835.3,207.7,852.9,214.4,870.5,214.4z M827.1,102.2
		c11.6-11.6,27-18,43.4-18c16.4,0,31.8,6.4,43.4,18c11.6,11.6,18,27,18,43.4s-6.4,31.8-18,43.4c-23.9,23.9-62.9,23.9-86.9,0
		C803.1,165.1,803.1,126.2,827.1,102.2z"/>
	<path d="M832.5,183.7C832.5,183.7,832.5,183.7,832.5,183.7C832.5,183.7,832.5,183.7,832.5,183.7l6.3,6.3l0.6-0.6
		c9.1,6.5,19.8,10,31.2,10c14.4,0,27.9-5.6,38.1-15.8c18.8-18.8,20.7-48.2,5.7-69.2l0.6-0.6l-6.3-6.3c0,0,0,0,0,0c0,0,0,0,0,0
		l-6.3-6.3l-0.6,0.6c-9.1-6.5-19.8-10-31.2-10c-14.4,0-27.9,5.6-38.1,15.8s-15.8,23.7-15.8,38.1c0,11.3,3.5,22.1,10,31.2l-0.6,0.6
		L832.5,183.7z M904.4,111.8L904.4,111.8c0.7,0.7,1.4,1.5,2,2.2l-31.7,31.7l19.2,19.2l-4.2,4.2l-19.2-19.2l-31.6,31.6
		c-0.7-0.7-1.5-1.3-2.2-2l0,0c-0.7-0.7-1.4-1.5-2-2.2l31.6-31.6L847,126.4l4.2-4.2l19.3,19.3l31.7-31.7
		C902.9,110.4,903.7,111.1,904.4,111.8z M904.4,179.5c-9,9-21.1,14-33.9,14c-9.8,0-19.1-2.9-26.9-8.3l26.9-26.9l19.2,19.2l12.6-12.6
		l-19.2-19.2l27-27C922.8,137.3,920.9,163,904.4,179.5z M822.6,145.6c0-12.8,5-24.8,14-33.9c9-9,21.1-14,33.9-14
		c9.8,0,19.1,2.9,26.9,8.3l-27,27l-19.3-19.3l-12.6,12.6l19.3,19.3l-26.9,26.9C825.6,164.7,822.6,155.4,822.6,145.6z"/>
	<path d="M1035.1,214.4c17.6,0,35.3-6.7,48.7-20.1c26.8-26.8,26.8-70.5,0-97.4c-13-13-30.3-20.2-48.7-20.2
		c-18.4,0-35.7,7.2-48.7,20.2c-26.8,26.8-26.8,70.5,0,97.4C999.8,207.7,1017.4,214.4,1035.1,214.4z M991.6,102.2
		c11.6-11.6,27-18,43.4-18c16.4,0,31.8,6.4,43.4,18c23.9,23.9,23.9,62.9,0,86.9c-23.9,23.9-62.9,23.9-86.9,0
		C967.7,165.1,967.7,126.2,991.6,102.2z"/>
	<path d="M1003.3,190l0.6-0.6c9.1,6.5,19.8,10,31.2,10c14.4,0,27.9-5.6,38.1-15.8c18.8-18.8,20.7-48.2,5.7-69.2l0.6-0.6l-6.3-6.3
		c0,0,0,0,0,0c0,0,0,0,0,0l-6.3-6.3l-0.6,0.6c-9.1-6.5-19.8-10-31.2-10c-14.4,0-27.9,5.6-38.1,15.8s-15.8,23.7-15.8,38.1
		c0,11.3,3.5,22.1,10,31.2l-0.6,0.6L1003.3,190z M1068.9,111.8L1068.9,111.8c0.7,0.7,1.4,1.5,2,2.2l-31.7,31.7l19.2,19.2l-4.2,4.2
		l-19.2-19.2l-31.6,31.6c-0.7-0.7-1.5-1.3-2.2-2c-0.7-0.7-1.4-1.5-2-2.2l31.6-31.6l-19.3-19.3l4.2-4.2l19.3,19.3l31.7-31.7
		C1067.5,110.4,1068.2,111.1,1068.9,111.8z M1068.9,179.5c-9,9-21.1,14-33.9,14c-9.8,0-19.1-2.9-27-8.3l26.9-26.9l19.2,19.2
		l12.6-12.6l-19.2-19.2l27-27C1087.3,137.3,1085.4,163,1068.9,179.5z M987.2,145.6c0-12.8,5-24.8,14-33.9c9-9,21.1-14,33.9-14
		c9.8,0,19.1,2.9,26.9,8.3l-27,27l-19.3-19.3l-12.6,12.6l19.3,19.3l-26.9,26.9C990.1,164.7,987.2,155.4,987.2,145.6z"/>
	<path d="M1199.9,214.7c17.7,0,35.4-6.8,48.8-20.3c26.8-26.9,26.6-70.6-0.3-97.3c-26.9-26.8-70.6-26.6-97.4,0.3s-26.6,70.6,0.3,97.3
		C1164.7,208,1182.3,214.7,1199.9,214.7z M1156.3,102.6c12-12.1,27.8-18.1,43.6-18.1c15.7,0,31.3,5.9,43.3,17.8
		c24,23.9,24.1,62.8,0.2,86.9c-23.9,24-62.8,24.1-86.9,0.3C1132.5,165.5,1132.4,126.6,1156.3,102.6z"/>
	<path d="M1168.3,190.3l0.6-0.6c9,6.4,19.8,9.9,31.1,9.9c0.1,0,0.1,0,0.2,0c14.4,0,27.9-5.7,38-15.9c18.8-18.9,20.6-48.3,5.5-69.3
		l0.6-0.6l-12.7-12.6l-0.6,0.6c-9-6.4-19.8-9.9-31.1-9.9c-0.1,0-0.1,0-0.2,0c-14.4,0-27.9,5.7-38,15.9
		c-10.1,10.2-15.7,23.7-15.7,38.1c0,11.3,3.6,22.1,10.1,31.2l-0.6,0.6L1168.3,190.3z M1233.6,111.9c0.7,0.7,1.4,1.5,2,2.2
		l-31.6,31.8l19.2,19.1l-4.2,4.3l-19.2-19.1l-31.5,31.7c-0.8-0.7-1.5-1.3-2.2-2c-0.7-0.7-1.4-1.5-2-2.2l31.5-31.7l-19.4-19.2
		l4.2-4.3l19.4,19.2l31.6-31.8C1232.2,110.6,1232.9,111.2,1233.6,111.9z M1233.8,179.6c-16.5,16.6-42.1,18.5-60.8,5.9l26.8-27
		l19.2,19.1l12.6-12.7l-19.2-19.1l26.9-27C1252.1,137.4,1250.3,163.1,1233.8,179.6z M1152,146c0-12.8,4.9-24.8,13.9-33.9
		c9-9.1,21-14.1,33.8-14.1c0,0,0.1,0,0.1,0c9.7,0,19,2.9,26.8,8.2l-26.9,27.1l-19.4-19.2l-12.6,12.7l19.4,19.2l-26.8,27
		C1155,165.1,1152,155.8,1152,146z"/>
	<path d="M138.3,563.9H90.2c-9.3,0-16.8,7.5-16.8,16.8v196.9c0,9.3,7.5,16.8,16.8,16.8h48.1c9.3,0,16.8-7.5,16.8-16.8V580.6
		C155,571.4,147.5,563.9,138.3,563.9z"/>
	<path d="M267.8,581.7c30.4,0,55.2-24.8,55.2-55.2v-60.3c0-30.4-24.8-55.2-55.2-55.2s-55.2,24.8-55.2,55.2v60.3
		C212.5,556.9,237.3,581.7,267.8,581.7z M224.4,466.2c0-23.9,19.4-43.4,43.4-43.4c23.9,0,43.4,19.4,43.4,43.4v60.3
		c0,23.9-19.4,43.4-43.4,43.4c-23.9,0-43.4-19.4-43.4-43.4V466.2z"/>
	<path d="M267.8,800.6c-24.8,0-45,20.1-45,45v55c0,24.8,20.1,45,45,45s45-20.1,45-45v-55C312.8,820.7,292.6,800.6,267.8,800.6z"/>
</g>
</svg>
