<?xml version="1.0" encoding="UTF-8"?>
<svg width="960px" height="960px" viewBox="0 0 960 960" version="1.1" xmlns="http://www.w3.org/2000/svg" xmlns:xlink="http://www.w3.org/1999/xlink">
    <!-- Generator: Sketch 60 (88103) - https://sketch.com -->
    <title>sensor_doorwindow_sensor</title>
    <desc>Created with Sketch.</desc>
    <g id="sensor_doorwindow_sensor" stroke="none" stroke-width="1" fill="none" fill-rule="evenodd">
        <path d="M421,2 C477.885329,2 524,48.1146708 524,105 L524,105 L524,855 C524,911.885329 477.885329,958 421,958 L421,958 L279,958 C222.114671,958 176,911.885329 176,855 L176,855 L176,105 C176,48.1146708 222.114671,2 279,2 L279,2 Z M421,32 L279,32 C238.683213,32 206,64.6832133 206,105 L206,105 L206,855 C206,895.316787 238.683213,928 279,928 L279,928 L421,928 C461.316787,928 494,895.316787 494,855 L494,855 L494,105 C494,64.6832133 461.316787,32 421,32 L421,32 Z M707,185 C749.525926,185 784,219.474074 784,262 L784,262 L784,745 C784,787.525926 749.525926,822 707,822 L707,822 L630,822 C587.474074,822 553,787.525926 553,745 L553,745 L553,262 C553,219.474074 587.474074,185 630,185 L630,185 Z M707,215 L630,215 C604.042617,215 583,236.042617 583,262 L583,262 L583,745 C583,770.957383 604.042617,792 630,792 L630,792 L707,792 C732.957383,792 754,770.957383 754,745 L754,745 L754,262 C754,236.042617 732.957383,215 707,215 L707,215 Z M405,637 C421.136324,637 434,650.323093 434,666.5 C434,682.676907 421.136324,696 405,696 C388.863676,696 376,682.676907 376,666.5 C376,650.323093 388.863676,637 405,637 Z M405,652 C397.268014,652 391,658.491871 391,666.5 C391,674.508129 397.268014,681 405,681 C412.731986,681 419,674.508129 419,666.5 C419,658.491871 412.731986,652 405,652 Z" id="Combined-Shape" fill="#000000" fill-rule="nonzero"></path>
    </g>
</svg>