<?xml version="1.0" encoding="UTF-8"?>
<svg width="960px" height="960px" viewBox="0 0 960 960" version="1.1" xmlns="http://www.w3.org/2000/svg" xmlns:xlink="http://www.w3.org/1999/xlink">
    <!-- Generator: Sketch 57.1 (83088) - https://sketch.com -->
    <title>sensor_floodsensor</title>
    <desc>Created with Sketch.</desc>
    <g id="sensor_floodsensor" stroke="none" stroke-width="1" fill="none" fill-rule="evenodd">
        <path d="M481,955 C743.887541,955 957,741.887541 957,479 C957,216.112459 743.887541,3 481,3 C218.112459,3 5,216.112459 5,479 C5,741.887541 218.112459,955 481,955 Z M481,935 C229.158154,935 25,730.841846 25,479 C25,227.158154 229.158154,23 481,23 C732.841846,23 937,227.158154 937,479 C937,730.841846 732.841846,935 481,935 Z" id="Oval" fill="#000000" fill-rule="nonzero"></path>
        <path d="M481,751 C631.221452,751 753,629.221452 753,479 C753,328.778548 631.221452,207 481,207 C330.778548,207 209,328.778548 209,479 C209,629.221452 330.778548,751 481,751 Z M481,741 C336.301396,741 219,623.698604 219,479 C219,334.301396 336.301396,217 481,217 C625.698604,217 743,334.301396 743,479 C743,623.698604 625.698604,741 481,741 Z" id="Oval" fill="#000000" fill-rule="nonzero"></path>
        <path d="M540.500507,466.886006 C537.308974,460.948384 522.706786,435.755559 496.424953,390.833346 C491.461206,382.349084 480.555743,379.4823 472.048599,384.406051 C469.375857,385.952976 467.150243,388.166191 465.590883,390.830322 C439.335243,435.687489 424.727141,460.882994 421.500461,466.886006 C413.833179,481.150446 409.917123,496.273872 410.002242,507.792297 C410.183761,532.355545 420.268444,550.848878 437.497077,562.668471 C450.459123,571.560999 466.816065,576.018427 481.013469,576.000105 C495.155768,575.979869 511.483328,571.519197 524.435327,562.654396 C541.702938,550.835838 551.817701,532.353184 551.999725,507.792511 C552.083419,496.271982 548.167323,481.149579 540.500507,466.886006 Z M542.000968,507.718401 C541.653084,554.52784 500.779357,565.971857 481.000484,566.000044 C461.062517,566.025889 420.347884,554.52784 420.000968,507.718401 C419.942834,499.716128 422.493532,486.16002 430.308668,471.620507 C433.446138,465.783463 448.083653,440.537227 474.221213,395.881797 C474.905271,394.713099 475.882717,393.741099 477.057866,393.060948 C480.805998,390.891611 485.61256,392.155141 487.793628,395.883121 C513.956723,440.602381 528.589614,465.848176 531.6923,471.620507 C539.507436,486.16002 542.058134,499.716128 542.000968,507.718401 Z" id="Path-10" fill="#000000" fill-rule="nonzero"></path>
        <path d="M429.5,507 L429.5,488.893398 L496.106602,555.5 L478,555.5 C451.21419,555.5 429.5,533.78581 429.5,507 Z" id="Path" stroke="#000000" stroke-width="15" stroke-linecap="round" stroke-linejoin="round"></path>
    </g>
</svg>