<?xml version="1.0" encoding="UTF-8"?>
<svg width="960px" height="960px" viewBox="0 0 960 960" version="1.1" xmlns="http://www.w3.org/2000/svg" xmlns:xlink="http://www.w3.org/1999/xlink">
    <!-- Generator: Sketch 57.1 (83088) - https://sketch.com -->
    <title>sensor_humidity</title>
    <desc>Created with Sketch.</desc>
    <g id="sensor_humidity" stroke="none" stroke-width="1" fill="none" fill-rule="evenodd">
        <path d="M480,46 C558.242516,46 631.921771,50.3391663 688.350629,58.0350731 C745.630393,65.8470286 781.027571,76.0286316 791.32725,90.5265669 C896.369005,180.737258 958,311.950097 958,453.157556 C958,456.684796 957.96176,460.207651 957.885379,463.725724 C957.859155,464.933563 957.61428,466.126654 957.162622,467.247174 C955.432655,471.539059 952.905772,475.728301 949.609296,479.811331 C950.80177,480.178092 951.880915,480.756775 952.815843,481.494811 C954.773267,482.97412 956.203854,485.184615 956.544273,487.977565 C956.675678,488.901973 956.677829,489.854813 956.535865,490.810507 L956.587655,490.162665 C946.114098,626.847865 877.580232,750.869051 770.014898,833.063883 C721.80292,880.849097 608.05434,912 480,912 C351.960083,912 238.222049,880.856046 189.99523,833.077738 C83.2414483,751.505121 14.8913566,628.69157 3.65203322,493.167183 C3.18084382,487.485555 6.99267386,483.583476 11.4602234,482.574268 C8.0596885,478.814173 5.32907948,474.962957 3.29035786,471.025011 C2.44355738,469.389352 2.0966107,467.668732 2.16947274,466.005483 C2.05655137,461.729827 2,457.446945 2,453.157556 C2,311.950769 63.6304297,180.737909 168.671616,90.5243171 C178.970398,76.0274477 214.367121,65.8466472 271.647,58.0349656 C328.077007,50.3391873 401.757371,46 480,46 Z M471.438421,849.960816 L471.43694,850.142655 L471.434378,891.951919 C474.281432,891.983905 477.136852,892 480,892 C482.863131,892 485.718535,891.983905 488.565572,891.95192 L488.563371,850.198284 L488.56183,849.975504 C486.047973,849.991806 483.527264,850 481,850 C477.802111,850 474.614719,849.986881 471.438421,849.960816 Z M933.12267,520.201678 C905.757836,541.857285 858.335168,560.395985 794.999988,574.96505 C708.566099,594.847539 597.294591,606 479.359755,606 C363.348164,606 253.760207,595.20998 167.881658,575.911411 C103.611105,561.468576 55.2273057,542.952992 27.0435268,521.327926 C44.7035955,639.478645 107.951863,745.422772 202.646465,817.57379 C203.005719,817.847518 203.346016,818.14527 203.665018,818.465001 C214.543935,829.368772 229.559599,839.426174 247.902192,848.376502 L241.125251,835.362227 C236.374026,826.240872 239.851232,814.961325 248.91407,810.156126 C257.855831,805.415123 268.908883,808.748685 273.796694,817.619709 L273.824627,817.671115 L274.006366,818.011009 L300.194036,868.287 C318.376754,873.685894 338.171548,878.279949 359.194702,881.945634 L349.944038,848.060218 C347.230861,838.127289 353.018552,827.845346 362.90018,825.097893 C372.644126,822.38872 382.73193,828.024944 385.623471,837.73924 L385.639339,837.793678 L385.741896,838.154248 L399.25162,887.622781 C419.276903,889.839392 440.096327,891.252505 461.435287,891.773718 L461.43694,850.142537 C461.43694,839.833609 469.737933,831.458692 480,831.458692 C490.103783,831.458692 498.332189,839.586269 498.559248,849.772741 L498.56306,850.142397 L498.564759,891.773715 C519.903734,891.252499 540.723145,889.839381 560.748359,887.622782 L574.258104,838.154248 C576.975927,828.204311 587.201002,822.34566 597.09982,825.097893 C606.826868,827.802367 612.609524,837.823047 610.150956,847.697554 L610.056043,848.059922 L600.805762,881.945566 C621.829419,878.279787 641.624531,873.685616 659.807305,868.286624 L685.993634,818.011009 C690.757981,808.864463 701.997798,805.337516 711.08593,810.156126 C720.000698,814.882817 723.530197,825.894759 719.051632,835.013377 L718.874904,835.361928 L712.09801,848.376079 C730.446241,839.42264 745.464663,829.361458 756.342447,818.453593 C756.661913,818.133244 757.002751,817.834943 757.362611,817.560748 C852.377258,745.164323 915.698655,638.782605 933.12267,520.201678 Z M600.71137,843.549309 L599.517025,843.683238 C593.963002,844.298963 588.337851,844.872542 582.646338,845.402753 L571.461397,886.350999 C577.711244,885.558356 583.876459,884.686692 589.948312,883.738817 L600.394755,845.479933 L600.461139,845.226881 C600.600572,844.66679 600.682744,844.105469 600.71137,843.549309 Z M359.278373,843.322844 L359.282771,843.403234 C359.305911,844.072932 359.406414,844.750797 359.590723,845.42555 L370.050763,883.738664 C376.122866,884.686591 382.288331,885.558298 388.538428,886.350976 L377.301,845.209388 C371.214717,844.629644 365.205303,844.00025 359.278373,843.322844 Z M249.865878,822.883481 L249.834581,822.952292 C248.714436,825.341476 248.679815,828.219171 249.994347,830.742796 L262.640772,855.032903 C270.227715,858.207463 278.263831,861.212999 286.704872,864.035265 L267.688571,827.528724 C261.558694,826.041981 255.613935,824.49244 249.865878,822.883481 Z M710.350807,823.376723 L709.160666,823.704051 C703.623305,825.217935 697.907588,826.676885 692.024779,828.078347 L673.294882,864.035347 C681.736912,861.212734 689.773859,858.206815 697.361451,855.031845 L709.978758,830.79519 L710.102113,830.552146 C711.246473,828.221958 711.26002,825.614636 710.350807,823.376723 Z M784.599751,111.211774 C780.04687,115.965091 772.012913,120.255449 760.723637,124.152564 L805.006379,192.226711 C810.596602,200.819227 808.131718,212.299994 799.509235,217.861092 C791.042706,223.321606 779.755526,221.052796 774.039561,212.71554 L773.820743,212.38729 L722.653768,133.73995 C714.384776,135.324638 705.388984,136.830592 695.692615,138.26591 C691.330458,138.911624 686.851208,139.536107 682.261535,140.13882 L716.591706,213.402048 C720.940111,222.680688 716.910939,233.711229 707.604564,238.03483 C698.459858,242.283322 687.586524,238.481007 683.081829,229.429303 L682.915454,229.084098 L643.275316,144.489596 C627.292017,145.992888 610.410193,147.271021 592.831362,148.307697 L611.833143,224.910856 C614.299409,234.851182 608.208909,244.894137 598.243998,247.345073 C588.442842,249.755733 578.503506,243.924505 575.844048,234.166691 L575.750582,233.806308 L554.991006,150.123041 C536.138635,150.828841 516.706023,151.270788 496.907978,151.43151 L496.905596,237.474163 C496.905596,247.710584 488.580021,256 478.320758,256 C468.061495,256 459.73592,247.710584 459.73592,237.474219 L459.733858,151.401519 C440.403475,151.213165 421.434589,150.756514 403.028422,150.047839 L382.249379,233.806465 C379.785025,243.739086 369.713249,249.794124 359.756002,247.345073 C349.791091,244.894137 343.700591,234.851182 346.16681,224.911042 L365.198191,148.190308 C347.627333,147.132907 330.764603,145.833436 314.813057,144.308317 L275.084466,229.084268 C270.741601,238.351087 259.690023,242.352954 250.395436,238.03483 C241.089061,233.711229 237.059889,222.680688 241.408198,213.402252 L275.855135,139.889452 C271.92158,139.364306 268.070903,138.823009 264.307385,138.26591 C253.910711,136.726928 244.319464,135.10674 235.565994,133.395405 L184.179276,212.387262 C178.597524,220.966757 167.100231,223.413793 158.490765,217.861092 C149.868282,212.299994 147.403398,200.819227 152.993565,192.226798 L197.651151,123.581487 C187.212331,119.837584 179.730606,115.735027 175.400567,111.214039 L173.766368,112.670967 C77.942853,198.837327 22,321.441425 22,453.157556 C22,456.682186 22.0398155,460.202051 22.1193333,463.716725 C35.9096449,486.165957 88.3946255,508.864103 168.209851,525.554558 C253.118097,543.310033 362.887484,553.314286 479.359755,553.314286 C597.883988,553.314286 709.437935,542.952379 794.865239,524.632106 C875.407732,507.359402 926.983242,483.906525 937.928875,461.311253 C937.976274,458.596314 938,455.87835 938,453.157556 C938,320.694364 881.420787,197.447481 784.599751,111.211774 Z M469.734954,151.977353 L469.734175,205.846294 C473.07718,205.864881 476.432203,205.874238 479.798578,205.874238 C482.17388,205.874238 484.54353,205.869579 486.907294,205.860307 L486.907817,151.986975 C484.442237,151.995654 481.972853,152 479.5,152 C476.238667,152 472.983395,151.992441 469.734954,151.977353 Z M582.787144,149.352202 C578.177315,149.597097 573.525809,149.825555 568.835993,150.037342 L565.311501,150.193053 L578.437326,203.096395 C584.308216,202.756763 590.112702,202.387597 595.846126,201.989793 L582.787144,149.352202 Z M375.226574,149.299522 L362.181498,201.880054 C367.912648,202.28384 373.715556,202.658963 379.585536,203.004521 L392.699125,150.150038 C387.990709,149.944042 383.320139,149.721301 378.690797,149.482051 L375.226574,149.299522 Z M672.042345,141.899641 C666.938352,142.512846 661.703777,143.101548 656.346955,143.664769 L654.04371,143.904588 L677.418179,193.785906 C683.47543,192.959689 689.387023,192.096507 695.144087,191.198069 L672.042345,141.899641 Z M286.010712,141.785411 L262.965754,190.964634 C268.716601,191.872386 274.623856,192.744776 280.678554,193.580079 L304.004638,143.806063 C298.612957,143.245634 293.343602,142.659514 288.204959,142.048698 L286.010712,141.785411 Z M751.029983,127.588869 C745.703392,129.098367 739.826525,130.558754 733.42784,131.964811 L762.763859,177.056015 C768.845237,175.338491 774.515661,173.562735 779.747895,171.733988 L751.029983,127.588869 Z M207.130414,127.349217 L178.552259,171.276381 C183.756812,173.130091 189.409613,174.930318 195.482699,176.671678 L224.693581,131.770681 C218.299,130.34989 212.435047,128.874316 207.130414,127.349217 Z M480,66 C402.610619,66 329.817744,70.2869213 274.349532,77.8515324 C247.497393,81.5135576 225.44898,85.8526461 209.509847,90.6006269 C201.734185,92.9168566 195.546733,95.2930078 191.112457,97.632434 C187.502371,99.5370361 185.48438,101.195953 185.022871,102.027653 C184.458757,103.044258 183.721809,103.954482 182.845331,104.717592 C185.708333,107.515454 191.920422,110.929589 201.541468,114.2967 C216.465263,119.519633 238.347451,124.314191 265.771692,128.373701 C322.151964,136.719464 398.506331,141.5 480,141.5 C561.493669,141.5 637.848036,136.719464 694.228308,128.373701 C721.652549,124.314191 743.534737,119.519633 758.458532,114.2967 C767.88103,110.999075 774.033819,107.656348 776.974756,104.889831 L777.153,104.718 L776.930394,104.519632 C776.151653,103.799434 775.491815,102.959321 774.976295,102.030372 C774.514368,101.197996 772.495968,99.5386945 768.885474,97.6337735 C764.450991,95.2941104 758.263399,92.9177613 750.487637,90.6013633 C734.548401,85.8530679 712.50007,81.5137782 685.647999,77.8516265 C630.180984,70.2868982 557.389243,66 480,66 Z M777.154383,104.71768 L777.153,104.718 L777.227946,104.784024 L777.154383,104.71768 Z" id="Combined-Shape" fill="#000000"></path>
    </g>
</svg>