<?xml version="1.0" encoding="utf-8"?>
<!-- Generator: Adobe Illustrator 21.0.0, SVG Export Plug-In . SVG Version: 6.00 Build 0)  -->
<svg version="1.1" id="Layer_1" xmlns="http://www.w3.org/2000/svg" xmlns:xlink="http://www.w3.org/1999/xlink" x="0px" y="0px"
	 viewBox="0 0 1417.3 1417.3" style="enable-background:new 0 0 1417.3 1417.3;" xml:space="preserve">
<g>
	<path d="M1363,272.5c3.6-7,4.1-13.5,3.4-25.8c0-0.7-0.5-9-1.1-21.4c-2-38.1-5.7-108.9-6.5-123.4l-0.1-1.2
		c-1.2-19-3.7-24.2-23.8-28.2c-35.7-7.1-241.1-43.8-322.6-57.5c-29.2-4.9-31.7-5-32.8-5.1c-5.5-0.2-10.8,0.8-15.4,1.6
		c-3.4,0.6-6.5,1.2-9.4,1.3c-24.9,0.6-620.3-4.1-655.3-4.8c-15.4-0.3-26.9,6.8-31.4,19.6c-4,11.4-7.5,21.7-8.1,32.8
		c-3.3,54.7-6.3,110.2-9.2,164c-1.2,21.6-2.3,43.2-3.5,64.8c-0.2,4-0.7,5.7-1,6.3c-0.5,0.1-1.8,0.3-4.2,0.3
		c-5.8-0.2-11.6-0.3-17.4-0.5l-13-0.3c-28.9-0.7-58.8-1.5-88.2-2.6c-19.9-0.8-29.2,9.9-33.5,19c-3.5,7.4-5.7,14.9-6.3,21.7
		c-1.3,14-11.1,186.3-19.5,337.9c-17.7,319.6-16.9,322.8-16.4,325c3.5,14.9,14,23.9,29.6,25.4c11.3,1.1,22.6,2.1,34,3.2
		c25.5,2.3,51.8,4.8,77.5,8c0.3,0.1,0.7,0.1,1,0.1c3.2,0.4,5.9,0.7,8.3,0.9c1.8,0.2,3.8,0.4,5.3,0.6c0.2,3.4-0.2,9.5-0.4,12.8
		c-0.1,1.5-8.7,159.1-12.7,231.9c-1.2,22.1,10.1,36.7,31.8,40.9c9.8,1.9,657.2,88.1,662.7,88.7c9.7,1.2,17.5,1.7,24.6,1.7
		c1.6,0,3.1,0,4.7-0.1c16.8-0.6,31.1-4.6,43.7-12.1c7.3-0.7,32-2.7,59.9-4.9c53.9-4.4,127.7-10.4,158.8-13.4c24.8-2.4,50-5.2,74.3-8
		c10.4-1.2,20.8-2.3,31.3-3.5c16.2-1.8,23.1-8.8,24.7-25c0.6-5.8,3.1-46.1,5.7-88.8c2.3-37.3,4.9-79.4,5.3-84
		c0.3-1.8,0.9-3.7,1.5-5.8c1.1-3.9,2.3-8.2,2.6-13c1.6-32.9,3.1-66.3,4.5-98.6c0.6-13.1,1.1-26.3,1.7-39.4
		c0.9-19.5-4-25.1-23.7-27.2c-0.7-0.1-2-0.6-2.7-1.2c-4.2-3.8-14.5-16.6-15.9-21.3c1.7-23.9,10.1-162.8,11.7-191.5
		c0.6-11.2-5.7-19.7-16-21.9l0.4-7.3c0.9-17.2,1.8-35,3-52.4c13.7-5,17.6-10.9,18.7-26.6c3.3-49.9,6.6-99.8,9.8-149.7
		c0.4-6.3,0.8-12.6,1.1-19c10.5-2.1,16.7-9.9,17.2-21.6c0.4-10.6,0.9-21.2,1.7-31.4c0.4-4.8,1.2-6,1.2-6c0,0,0,0,0,0
		c0.1,0,1.1-0.7,5.1-0.9c5.2,0.2,10-1.4,13.9-4.9c7.7-6.7,10-18.7,10.5-27.5c2.1-35.8,4.1-72.2,6-107.4l0-0.8
		C1370.7,282.8,1369.5,276.9,1363,272.5z M268.4,290.5c1.2-21.6,2.3-43.2,3.5-64.8c2.9-53.7,5.9-109.3,9.2-163.8
		c0.5-9,4.1-18.9,6.9-26.9c0.6-1.7,2-5.7,11-5.5c33.1,0.6,566.9,4.9,647.1,4.8c-20.4,17.7-21.2,43.9-21.2,44.9
		c-0.5,10.1-11.7,248.2-11.7,258.8c0,1.7-0.1,2.9-0.2,3.7c-16.1-2.4-89-13.5-100.5-15.6l-0.9,5.2l0.3-5.3l-0.3,0l0,0
		c-0.4,0-1-0.1-1.8-0.1l-0.3,0l-545.6-18.4C267.1,302.4,268.1,296.1,268.4,290.5z M113.1,1003.6c-11.3-1-22.6-2.1-33.8-3.2
		c-6.2-0.6-9.2-2.8-10.7-8.2c0.4-28.4,33-622.9,36.1-657c0.4-4.4,1.9-9.4,4.3-14.6c2-4.3,5.1-7.1,13.4-6.8
		c29.5,1.1,59.5,1.9,88.5,2.6l12.6,0.3l0,0l555.8,18.8c-8.6,6.7-15.1,17.3-16.7,32.9c-4.2,40.7-40.6,634.9-42.1,660.2l0,0.2l0,0.2
		c0,0.4,0.3,11,4.3,22.2c1.9,5.5,4.4,10.2,7.4,14L209,1013.8c-2.8-0.6-5.8-0.9-8.9-1.2c-2.3-0.2-4.9-0.5-7.9-0.9c0,0-0.1,0-0.2,0
		c-0.2,0-0.3,0-0.5-0.1C165.4,1008.4,138.9,1005.9,113.1,1003.6z M211.5,1280.3c4.1-76.2,12.5-229.4,12.7-231.7
		c0.6-10.3,0.9-17.2-0.8-22.6l530.7,52.3l0,0c0.6,0.1,1.2,0.1,1.8,0.2c1,0.1,2,0.1,3.1,0.1c27.4,0,101.6-4.4,123.7-5.7
		c0.5,0,0.9,0.2,1.1,0.4c0.2,0.2,0.5,0.5,0.4,1.1c-2.4,36.6-14.5,236.5-15.3,275.7c-0.3,14.9,2.9,27.1,9.5,36.4
		c-81.7-10.7-643.3-85.9-652.3-87.4C214.7,1296.8,210.8,1291.9,211.5,1280.3z M1348.7,294.2l0,0.8c-1.9,35.2-3.9,71.6-6,107.3
		c-0.4,6.9-1.9,11-2.9,12.3c-0.2,0-0.4,0-0.6,0c-17.4,0.7-25.8,8.9-27.1,26.6c-0.8,10.5-1.4,21.4-1.8,32.3c0,0.7-0.1,1.2-0.1,1.5
		c-0.1,0-0.1,0-0.2,0c-4.8,0.7-16.1,3.9-16.8,19.5c-0.3,6.3-0.7,12.7-1.1,18.9c-3.3,49.9-6.5,99.8-9.8,149.7
		c-0.3,4.1-0.6,5.7-0.8,6.3c-0.6,0.4-2,1-5.4,2.2c-6.3,2.1-11.8,9.4-12.3,16.2c-1.3,18.2-2.3,36.7-3.2,54.6l-0.5,9.3
		c-0.6,10.8,5.7,18.5,16.1,19.8c-1.6,28.8-10.2,169.9-11.7,191.8c-1.1,14.8,22.6,37.7,22.9,38c4,3.6,9.5,6,14.7,6.6
		c1,0.1,3.1,0.3,4.8,0.6c0,1.7-0.1,3.6-0.1,4.5c-0.6,13.1-1.2,26.3-1.7,39.4c-1.4,32.3-2.8,65.6-4.5,98.5c-0.1,2.3-0.9,5.2-1.8,8.2
		c-0.7,2.6-1.5,5.2-2,8.1c-0.4,2.1-1.3,16.6-5.6,86.2c-2.4,38.7-5.1,82.5-5.6,88c-0.3,3.2-0.7,4.5-0.9,5c-0.5,0.2-1.8,0.6-4.9,1
		c-10.4,1.1-20.9,2.3-31.3,3.5c-24.2,2.7-49.3,5.5-74,7.9c-31,3-104.7,9-158.5,13.4c-17.8,1.4-33.4,2.7-44.6,3.6
		c-20.6,1.7-20.6,1.7-23,3.3c-9.9,6.4-21,9.7-35,10.1c-5.3,0.2-11,0-17.8-0.6c-1.7-1.2-3.5-2.6-5.1-4.2c-7.5-7.6-11.1-19-10.8-33.9
		c0.8-37.4,12.3-228.9,15.3-275.3c0.2-3.5-1.1-6.9-3.5-9.3c-2.4-2.4-5.8-3.7-9.3-3.5c-15.7,1-95.3,5.7-123.1,5.7
		c-0.8,0-1.5,0-2.2-0.1c-0.5,0-1-0.1-1.4-0.1c-22.1-3-24.1-35.8-24.2-38.6c1-15.6,38-619.3,42.1-659.5c3.1-29.7,26.3-32.9,36.1-32.9
		l0.3,0l1.3,0c13.9,2.4,97.3,15.1,103.3,16c0.4,0.1,0.8,0.1,1.3,0.1c1.4,0,2.7-0.4,3.9-1.3c3-2.1,4.3-6.3,4.3-13.5
		c0-10.3,11.6-255.8,11.7-258.4c0-0.2,0.7-22.9,17.9-37.5c6-5.1,13.4-8.6,22-10.6c1.1-0.1,2.2-0.2,3.2-0.1c0.6,0,4.6,0.5,30.2,4.8
		c0,0,0,0,0,0c79.3,13.3,287.3,50.5,322,57.4c1.6,0.3,4.4,0.9,6.1,1.3c0.2,1.8,0.4,4.6,0.6,7.3l0.1,1.2c0.9,14.4,4.7,87.9,6.5,123.2
		c0.7,12.6,1.1,21,1.1,21.5c0.8,13.3,0.5,13.7-6.5,22.7c-2.1,2.7-2.7,6.3-1.7,9.7c1,3.3,3.6,5.9,6.9,7c1.8,0.6,3.7,1.2,5.1,1.7
		C1348.9,290.5,1348.8,292.5,1348.7,294.2z"/>
	<path d="M223.3,936.9l410.4,37c10.6,1,19.9-7,20.6-17.6l35.9-528.1c0.7-10.7-7.5-19.8-18.2-20.2l-415.4-15.3
		c-10.3-0.4-19,7.5-19.6,17.8l-31,506.4C205.5,927.1,213.1,936,223.3,936.9z"/>
	<path d="M173.3,797.6c-6.4-12.1-17.1-16.9-31.1-14c-8.2,1.7-15.8,5.1-23.7,7.7c-3.6,1.2-7.2,2.6-11,2.7c-4.6,0.1-6.9-1.7-7.6-6.2
		c-0.8-5.2,0.2-10.4,0.4-15.6c0-1.6,1.2-1.2,2-0.8c3.5,1.8,7,3.5,10.4,5.3c2.6,1.3,2.8,1.2,3-1.6c0.4-6.2,0.7-12.4,1-18.5
		c0-0.8,0.1-1.7-0.3-2.4c-4.5-8.1-15.3-9.8-21.3-2.2c-2.9,3.6-4.4,7.8-5.3,12.2c-1.7,7.9-1.7,15.9-1.6,23.8
		c0.1,7.2,0.8,14.4,4.1,20.9c3.5,7,9.2,10.7,17.3,10.8c6.7,0,12.9-2.1,19.1-4.4c5.5-2,11-4.1,16.7-5.3c11.1-2.3,19.3,2.1,22.8,12.4
		c2.1,6.1,2.1,12.5,0.8,18.9c-1,5.1-2.8,9.9-6.2,14.2c-5.4,6.7-14,6.1-17.7-1.3c-1.8-3.6-2.5-7.5-2.3-11.6c0.2-3.3,0.3-6.6,0-9.9
		c-0.4-4.5-2.3-8.4-6-11c-0.8-0.6-1.8-1.5-2.9-1.1c-1.3,0.5-0.7,1.9-0.8,2.9c-0.6,10.5-1.1,21.1-1.7,31.7c-0.3,4.5,0.1,9.1,1,13.4
		c1.7,8.6,5.3,15.8,15.2,17.7c0.2,0,0.3,0.3,0.4,0.5c1.9,0,3.8,0,5.8-0.1c2.3-1.6,5.2-1.8,7.6-3.3c6.3-4.1,9.6-10.1,12.2-16.5
		c5.8-14.3,7.4-29,6.4-43.9C179.4,814,177.4,805.5,173.3,797.6z"/>
	<path d="M190.5,562.4c0.4-7.1,0.7-14.3,1.1-21.4c0.2-3.5,0.1-6.9-1.2-10.1c-0.5-1.1-0.6-2.2,0.2-3.3c1.4-2.1,1.8-4.4,2-6.8
		c0.1-0.6-0.2-1.5,0.7-1.8c0.7-0.2,1.1,0.4,1.5,0.8c3.2,3,7.2,4.5,11.5,5.3c8.7,1.6,16.2-2.2,19.1-9.8c1.2-3.1,1.5-6.3,1.3-9.5
		c-0.6-9.6-5.7-16.4-13.4-21.6c-4.8-3.2-10-5.7-15.5-7.7c-2.4-0.8-3-2.1-2.7-4.5c0.4-4,0.5-8.1,0.7-12.1c0.2-6-1.9-10.8-7.5-13.6
		c-2.4-1.2-2.5-1.2-2.7,1.5c-0.4,6.6-0.7,13.3-1,20c-0.2,4.2-0.2,4.2-4,2.8c-8.8-3.1-17.7-6.2-26.5-9.4c-2-0.8-2.7-0.4-2.7,1.8
		c-0.2,6.2-0.5,12.4-0.9,18.5c-0.1,1.8,0.5,2.7,2.3,3.3c7.2,2.4,14.3,5,21.4,7.6c3,1.1,7.2,1.2,8.5,3.7c1.3,2.4,0.1,6.2,0,9.4
		c-0.1,2.8-0.2,2.9-2.9,1.9c-9.1-3.2-18.1-6.5-27.1-9.8c-2.9-1-2.9-1-3.1,1.9c-0.3,6.1-0.5,12.1-1,18.2c-0.2,2.3,0.7,3.1,2.7,3.8
		c9.3,3.3,18.5,6.7,27.8,10c1.6,0.5,2.3,1.1,2.2,2.9c-0.3,4.4-0.5,8.8-0.7,13.2c-0.1,1.9-0.7,2.3-2.4,1.6c-4.3-1.6-8.7-3.1-13.1-4.7
		c-15.9-5.7-31.7-11.4-47.6-17c-3.4-1.2-3.4-1.1-3.6,2.5c-0.3,5.1-0.6,10.2-0.8,15.3c-0.2,5.1-0.7,4,3.9,5.6
		c19.9,7.1,39.8,14.2,59.7,21.2c1.8,0.6,2.6,1.5,2.5,3.5c-0.4,4.8-0.5,9.5-0.8,14.3c-0.2,3-0.3,3-3.2,2c-3.9-1.4-7.8-2.8-11.7-4.2
		c-16.2-5.8-32.4-11.6-48.6-17.4c-2.9-1-2.9-1-3.1,2c-0.3,5.6-0.4,11.2-0.9,16.7c-0.3,2.8,0.7,3.9,3.3,4.7
		c20.1,7.1,40.2,14.3,60.4,21.4c2.2,0.8,2.9,1.8,2.7,4c-0.4,4.2-0.5,8.3-0.7,12.5c-0.2,4.6-0.5,9.3-0.8,13.8c0,0.4-0.2,2.6-0.2,2.6
		s-0.7-2-0.9-2.4c-0.4-1-0.7-2-1.1-3c-2-5.5-3.6-11.2-6.5-16.3c-4.5-8-15.3-7.7-20.3,0.5c-1.6,2.5-2.6,5.2-3.2,8
		c-1.8,7.3-1.5,14.7-1.7,22c-0.1,6.1,1.5,11.9,4.7,17.1c5.6,9.2,14.1,12.6,25.1,9.8c2-0.5,2.3,0,2.2,1.8c-0.3,5.2-0.5,10.5-0.8,15.7
		c-0.2,3-0.2,3-3,2.1c-7.1-2.5-14.1-5-21.2-7.4c-5.7-1.9-8.7,0.2-9.3,6.3c-0.7,6.8,0.9,12.9,5,18.2c3.9,5,7.8,10,11.6,14.9
		c0.4,0.4,0.9,1.3,0.8,1.4c-0.6,0.6-1.3,0.2-2-0.1c-2-0.7-4-1.5-6-2.2c-13.9-4.9-27.7-9.8-41.6-14.7c-2.9-1-2.9-1-3.1,2.1
		c-0.3,5.7-0.5,11.4-0.9,17.1c-0.2,2.3,0.6,3.2,2.8,4c15.7,5.5,31.3,11.1,46.9,16.7c8.3,3,16.6,5.8,24.8,8.8
		c1.9,0.7,2.5,0.4,2.5-1.7c0-3.1,0.2-6.2,0.5-9.3c0.4-4.3-0.9-7.9-3.5-11.1c-4.7-5.8-9.3-11.7-13.9-17.6c-1-1.3-2-2.6-3-3.9
		c-0.2-0.3-0.7-0.8-0.2-1.2c0.2-0.2,0.7-0.2,1-0.1c0.9,0.3,1.8,0.6,2.7,0.9c3.9,1.1,7.5,2.9,11.6,3.4c3.6,0.4,5.4-0.8,6.6-4.2
		c0.6-1.7,0.6-3.3,0.6-5c2.3-44.9,4.6-89.8,6.9-134.8c0.2-3.5-0.1-6.8-1.4-10c-0.3-0.8-0.9-1.6-0.1-2.6
		C190.2,568.6,190.3,565.4,190.5,562.4z M197.3,500.3c1.9,0.6,3.8,1.4,5.7,2.1c3.9,1.4,7.7,2.9,11.6,4.3c1.8,0.6,1.5,1.4,0.2,2.4
		c-1.5,1.2-3.1,2-5,1.9c-6.1-0.2-10.5-3.1-13.6-8.1c-0.3-0.5-0.4-1.1-0.6-1.6C195.5,499.7,196.6,500.1,197.3,500.3z M175.4,651.8
		c0,0.9-0.1,1.4-0.2,2.1c-0.7,5.6-3.3,7.3-8.8,5.5c-3.6-1.2-7.1-2.7-10.8-3.6c-2.8-0.7-3.5-2.2-3.1-4.8c0.2-1,0.1-1.9,0.2-2.9
		c0.1-1.3,0.1-2.6,0.2-3.9c0.2-3.1,0.2-3.1,3-2.2c5.8,2.1,11.5,4.3,17.4,6.3C175.1,649,175.4,650,175.4,651.8z"/>
	<ellipse transform="matrix(0.9807 -0.1956 0.1956 0.9807 -186.9717 89.3732)" cx="358.9" cy="991.2" rx="14.6" ry="17.2"/>
</g>
</svg>
