<?xml version="1.0" encoding="UTF-8"?>
<svg width="960px" height="960px" viewBox="0 0 960 960" version="1.1" xmlns="http://www.w3.org/2000/svg" xmlns:xlink="http://www.w3.org/1999/xlink">
    <!-- Generator: Sketch 60.1 (88133) - https://sketch.com -->
    <title>Shelly button1</title>
    <desc>Created with Sketch.</desc>
    <g id="Shelly-button1" stroke="none" stroke-width="1" fill="none" fill-rule="evenodd">
        <path d="M476.776708,3.00041511 L478.825136,3.00041511 L479.984582,3.00041511 C485.2967,3.04279763 491.886859,3.25158949 499.789107,3.6304276 L503.387721,3.80999084 L507.217,4.015 L508.086688,4.0191192 C555.823221,4.46145658 608.633005,26.3343378 665.093668,64.3516616 L666.805713,65.5086379 L668.554993,66.6993801 C709.608502,94.7462322 749.089884,128.770285 785.183102,164.533268 L786.872483,166.210915 L797.744738,177.065787 L800.925006,180.251374 L803.447446,182.787214 C842.311896,221.934752 870.382276,253.825025 895.692318,290.868115 C931.760654,343.656752 952.589833,395.246211 953.91905,445.917866 L953.944,447.044 L954.183008,451.582351 L954.390845,455.833056 C954.737746,463.240656 954.937923,469.334703 955,474.151741 L955,474.681714 L955,476.948276 C954.988716,483.000351 954.765986,491.198416 954.333138,501.598526 L954.193325,504.868113 L953.984,509.489 L953.979763,510.562835 C953.565666,561.739954 933.086475,613.882345 896.954528,667.259123 L895.854834,668.876979 L894.722848,670.528633 C879.93836,692.011266 863.006855,713.144415 843.896137,734.535399 L842.133978,736.502324 C830.703206,749.225577 819.673094,760.803271 805.949384,774.671477 L802.73315,777.914056 L797.722681,782.939251 L786.720242,793.92391 C750.792805,829.680918 711.282925,863.910794 670.055098,892.255505 C611.745372,932.344262 557.239874,955.504544 508.099676,955.963741 L507.281362,955.967415 L504.82512,956.119268 L502.817477,956.236406 C495.536541,956.650706 489.139655,956.897815 483.607066,956.981289 L482.119592,957 L479.991164,957 L478.565513,957 C472.294981,956.95913 464.81833,956.684449 456.102846,956.175156 L455.091714,956.115351 L452.685,955.967 L451.89564,955.96386 C404.159107,955.521522 351.349323,933.648641 294.88866,895.631317 L293.176614,894.474341 L291.427335,893.283599 C250.373825,865.236747 210.892443,831.212694 174.799333,795.449818 L173.109957,793.772176 L162.348175,783.027798 C144.409279,765.087604 131.32894,751.520058 117.506754,736.121589 L115.109268,733.440024 C96.8730653,712.95671 80.637104,692.70107 66.3570792,672.117107 C29.0817682,618.386552 7.49001626,565.898328 6.07012781,514.318905 L6.041,513.097 L5.92590183,510.686704 C5.45121887,500.621454 5.15842742,492.299981 5.0489604,485.676512 L5.01650639,483.272216 L5.00036164,481.193693 L5.00036164,478.917096 C5.03286738,473.181099 5.25115631,465.432333 5.65693668,455.617931 L5.82684816,451.636418 L6.04,446.917 L6.06972826,445.678715 C7.44467336,395.604343 27.8414445,344.655062 63.1513893,292.54135 L64.2259482,290.96179 L65.3318215,289.349257 L66.9501112,287.011 C91.812633,251.270082 118.979304,220.6062 156.988576,182.331798 L158.231863,181.081006 L162.260723,177.042653 L173.132149,166.188681 C209.188917,130.302884 248.746534,96.0380021 289.942209,67.7171751 C346.898854,28.5611411 400.254123,5.55245317 448.542039,4.08624503 L449.655362,4.05641511 L454.820539,3.78690652 C463.493155,3.35045358 470.352665,3.094505 475.472423,3.01673987 L476.776708,3.00041511 Z M478.77637,42.9999862 L477.045929,42.9999862 L475.837257,43.0159835 C471.788052,43.0813264 466.246011,43.2801809 459.256986,43.6169205 L457.041575,43.7258575 L451.512676,44.0145899 L451.185924,44.0296032 L451.185924,44.0296032 L449.678461,44.0702881 C410.642443,45.2859035 363.775287,65.4996444 312.60271,100.6793 C274.290319,127.017954 237.037645,159.177597 203.015148,192.885631 L201.371428,194.517856 L190.539634,205.332273 L187.806476,208.069636 L184.260488,211.636936 C147.572203,248.647999 121.686443,278.037379 98.2769778,312.034422 C65.63744,359.436092 47.2308015,404.562813 46.0559042,446.734653 L46.0184686,448.281299 L45.6955863,455.536809 C45.3251526,464.242978 45.1029733,471.254237 45.027509,476.526034 L45.001626,479.083663 L45.001626,481.079752 L45.0159555,483.027054 C45.075696,488.590503 45.3032474,495.871526 45.6999676,504.834037 L45.773963,506.482105 L46.0056364,511.388462 L46.0177321,511.679807 L46.0177321,511.679807 L46.0562517,513.260833 C47.2459839,555.845852 66.0007474,601.429031 99.2226419,649.316782 C122.91185,683.463628 148.534868,712.383363 185.934473,750.030241 L188.239043,752.346175 L190.621502,754.732592 L201.349123,765.442889 C236.281644,800.20977 274.606802,833.348696 313.991456,860.255423 C366.297699,895.989894 414.006321,915.970702 453.370104,915.970702 C453.794747,915.970702 454.219281,915.984226 454.643062,916.011253 L457.423711,916.183333 C465.624137,916.674791 472.549649,916.943446 478.167153,917 L478.785935,917 L479.991164,917 C485.712141,917 492.946324,916.747104 501.652706,916.237015 L502.558617,916.18333 L505.339266,916.011253 C505.763047,915.984226 506.187581,915.970702 506.612223,915.970702 C546.342399,915.970702 594.555247,895.621177 647.39363,859.294045 C686.348936,832.511724 724.132257,799.778058 758.496167,765.579514 L769.44759,754.645808 L771.810396,752.278881 C809.762993,714.198408 835.84462,684.989056 859.549419,651.05717 L860.28181,650.00621 L861.772043,647.851675 C895.488059,598.860542 913.986168,552.322006 913.986168,508.980671 C913.986168,508.668876 913.993459,508.357123 914.008035,508.045669 L914.262209,502.416037 C914.710473,492.08197 914.953825,483.974297 914.998538,478.149689 L914.998538,477.293127 L914.998538,475.728453 L914.983344,474.02155 C914.926001,469.564738 914.7234,463.687987 914.374001,456.43009 L914.187062,452.686226 L913.986497,448.912351 L913.970079,448.551893 L913.970079,448.551893 L913.93163,446.925446 C912.818641,405.126173 894.759635,360.406328 862.665396,313.434072 C839.535783,279.5822 813.483143,249.822464 777.443681,213.373796 L775.026177,210.933857 L772.605097,208.499958 L769.460021,205.349594 L758.633204,194.54009 C723.700684,159.773209 685.375525,126.634283 645.990871,99.7275562 C593.684628,63.9930846 545.976007,44.0122774 506.612223,44.0122774 C506.241279,44.0122774 505.870407,44.0019575 505.500037,43.9813295 L501.588949,43.7704968 C491.945307,43.2687974 484.31491,43.0132648 478.77637,42.9999862 Z M479,249 C611.54834,249 719,356.45166 719,489 C719,621.54834 611.54834,729 479,729 C346.45166,729 239,621.54834 239,489 C239,356.45166 346.45166,249 479,249 Z M479,269 C357.497355,269 259,367.497355 259,489 C259,610.502645 357.497355,709 479,709 C600.502645,709 699,610.502645 699,489 C699,367.497355 600.502645,269 479,269 Z M479,282 C593.322943,282 686,374.677057 686,489 C686,603.322943 593.322943,696 479,696 C364.677057,696 272,603.322943 272,489 C272,374.677057 364.677057,282 479,282 Z M479,302 C375.722752,302 292,385.722752 292,489 C292,592.277248 375.722752,676 479,676 C582.277248,676 666,592.277248 666,489 C666,385.722752 582.277248,302 479,302 Z" id="Shape" fill="#000000" fill-rule="nonzero"></path>
    </g>
</svg>