<?xml version="1.0" encoding="UTF-8"?>
<svg width="960px" height="960px" viewBox="0 0 960 960" version="1.1" xmlns="http://www.w3.org/2000/svg" xmlns:xlink="http://www.w3.org/1999/xlink">
    <!-- Generator: Sketch 60.1 (88133) - https://sketch.com -->
    <title>Shelly smoke sensor</title>
    <desc>Created with Sketch.</desc>
    <g id="Shelly-smoke-sensor" stroke="none" stroke-width="1" fill="none" fill-rule="evenodd">
        <path d="M481.075391,267 C488.365979,267 494.185569,270.581722 494.073808,275 C493.962048,279.418278 488.142458,283 481.075391,283 C474.008324,283 468.188735,279.418278 468.076974,275 C467.965214,270.581722 473.784804,267 481.075391,267 Z M480.575391,228 C488.140409,228 494.183903,231.581722 494.073914,236 C493.963924,240.418278 487.92043,244 480.575391,244 C473.230353,244 467.186858,240.418278 467.076869,236 C466.96688,231.581722 473.010374,228 480.575391,228 Z M480.575391,188 C488.694993,188 495.186222,191.581722 495.073957,196 C494.961691,200.418278 488.470462,204 480.575391,204 C472.68032,204 466.189091,200.418278 466.076826,196 C465.96456,191.581722 472.455789,188 480.575391,188 Z M481.075391,149 C489.469556,149 496.184682,152.581722 496.074044,157 C495.963406,161.418278 489.24828,165 481.075391,165 C472.902503,165 466.187377,161.418278 466.076739,157 C465.966101,152.581722 472.681226,149 481.075391,149 Z M481.075391,108 C490.023902,108 497.186759,111.581722 497.07408,116 C496.961401,120.418278 489.798544,124 481.075391,124 C472.352239,124 465.189382,120.418278 465.076703,116 C464.964024,111.581722 472.126881,108 481.075391,108 Z M480.575391,69 C489.79858,69 497.185327,72.581722 497.074153,77 C496.962978,81.418278 489.576231,85 480.575391,85 C471.574552,85 464.187804,81.418278 464.07663,77 C463.965455,72.581722 471.352203,69 480.575391,69 Z" id="Combined-Shape" fill="#000000"></path>
        <path d="M526.594059,251.061092 C533.685103,252.466823 538.608295,257.119147 537.590316,261.45235 C536.572336,265.785553 530.174914,268.193676 523.301272,266.831043 C516.427631,265.46841 511.504439,260.816085 512.305016,256.439784 C513.105592,252.063484 519.503015,249.655361 526.594059,251.061092 Z M534.114459,212.521573 C541.483322,213.982378 546.632998,218.679602 545.616583,223.013114 C544.600168,227.346627 537.97626,229.709851 530.821672,228.291524 C523.667083,226.873196 518.517407,222.175972 519.319547,217.799982 C520.121688,213.423991 526.745595,211.060767 534.114459,212.521573 Z M542.140626,174.082317 C550.070673,175.654372 555.673246,180.441378 554.654324,184.774393 C553.635401,189.107409 546.558597,191.380851 538.847839,189.852268 C531.137081,188.323685 525.534508,183.536679 526.334141,179.160191 C527.133774,174.783704 534.210579,172.510262 542.140626,174.082317 Z M550.67256,135.743325 C558.880521,137.370473 564.709571,142.202376 563.692109,146.535681 C562.674648,150.868986 555.371366,153.097531 547.379774,151.513276 C539.388181,149.92902 533.559131,145.097117 534.360225,140.720919 C535.161319,136.344721 542.4646,134.116176 550.67256,135.743325 Z M558.698728,97.3040689 C567.467594,99.0424118 573.749539,103.964096 572.729845,108.296959 C571.71015,112.629822 563.953974,114.768585 555.405941,113.07402 C546.857908,111.379455 540.575963,106.457771 541.374824,102.08113 C542.173685,97.7044891 549.929861,95.565726 558.698728,97.3040689 Z" id="Combined-Shape" fill="#000000"></path>
        <path d="M561.199283,283.248205 C567.733262,286.012294 571.531831,291.545729 569.683619,295.607492 C567.835407,299.669256 561.202688,300.789939 554.869022,298.110621 C548.535367,295.431276 544.736798,289.897841 546.384686,285.751334 C548.032574,281.604828 554.665293,280.484145 561.199283,283.248205 Z M576.163231,246.823987 C582.953203,249.69637 586.960465,255.318088 585.113694,259.380461 C583.266923,263.442834 576.425512,264.475234 569.832969,261.686405 C563.240438,258.897546 559.233177,253.275828 560.882506,249.129931 C562.531835,244.984034 569.373246,243.951634 576.163231,246.823987 Z M591.593215,210.596914 C598.900284,213.688048 603.324864,219.486304 601.475783,223.5477 C599.626702,227.609096 592.367973,228.464957 585.262951,225.459337 C578.157943,222.453682 573.733363,216.655425 575.380382,212.508551 C577.027401,208.361677 584.28613,207.505816 591.593215,210.596914 Z M607.489234,174.566989 C615.052383,177.766455 619.685648,183.652992 617.837913,187.714957 C615.990178,191.776922 608.522764,192.544503 601.158968,189.429415 C593.795189,186.31429 589.161924,180.427753 590.810289,176.281449 C592.458653,172.135144 599.926068,171.367563 607.489234,174.566989 Z M622.919218,138.339916 C630.999209,141.758025 636.04979,147.821099 634.199997,151.882194 C632.350204,155.943288 624.465474,156.534332 616.58895,153.202347 C608.712444,149.870321 603.661863,143.807247 605.30817,139.660071 C606.954478,135.512896 614.839208,134.921852 622.919218,138.339916 Z M637.883166,101.915698 C646.219316,105.442171 651.478577,111.593523 649.630044,115.655151 C647.781512,119.716779 639.688102,120.219544 631.552897,116.778131 C623.417711,113.336674 618.15845,107.185321 619.806018,103.038679 C621.453585,98.892037 629.546996,98.3892716 637.883166,101.915698 Z" id="Combined-Shape" fill="#000000"></path>
        <path d="M631.232024,330.207138 C636.229803,335.244679 637.665706,341.8395 634.43909,344.937197 C631.212473,348.034895 624.669408,346.587633 619.824636,341.704756 C614.98008,336.821664 613.544177,330.226843 616.617564,326.974704 C619.690951,323.722565 626.234016,325.169826 631.232024,330.207138 Z M658.680402,301.823056 C663.874107,307.057843 665.469641,313.813557 662.244127,316.912366 C659.018613,320.011175 652.315917,318.40302 647.273236,313.320452 C642.230556,308.237885 640.635022,301.482171 643.709512,298.231143 C646.784001,294.980115 653.486697,296.58827 658.680402,301.823056 Z M686.485369,273.798154 C692.074606,279.431602 693.989349,286.509051 690.762068,289.606078 C687.534787,292.703106 680.512881,290.773216 675.078203,285.29555 C669.643524,279.817883 667.728781,272.740435 670.801503,269.487626 C673.874226,266.234817 680.896131,268.164706 686.485369,273.798154 Z M714.646809,246.132545 C720.431924,251.96342 722.506293,259.201757 719.280041,262.299822 C716.053789,265.397887 708.872259,263.30711 703.239643,257.629941 C697.607028,251.952772 695.532659,244.714435 698.606411,241.462664 C701.680163,238.210893 708.861694,240.30167 714.646809,246.132545 Z M742.451775,218.107643 C748.632228,224.336982 751.025804,231.897051 747.797979,234.99353 C744.570153,238.090009 737.069414,235.677499 731.04461,229.605039 C725.019805,223.532578 722.626228,215.972509 725.698406,212.719151 C728.770584,209.465794 736.271323,211.878303 742.451775,218.107643 Z M769.900268,189.723447 C776.276658,196.150274 778.829856,203.871227 775.602994,206.968677 C772.376133,210.066128 764.715773,207.492734 758.493102,201.220842 C752.270431,194.94895 749.717234,187.227998 752.790376,183.975612 C755.863518,180.723226 763.523877,183.296619 769.900268,189.723447 Z" id="Combined-Shape" fill="#000000"></path>
        <path d="M676.331165,398.431526 C678.984607,405.020721 677.747125,411.640636 673.567157,413.217525 C669.387189,414.794414 663.913554,410.894909 661.341439,404.50774 C658.769348,398.120563 660.00683,391.500648 664.105446,389.721742 C668.204062,387.942836 673.677697,391.842342 676.331165,398.431526 Z M712.679305,383.150806 C715.436706,389.998158 714.283974,396.828529 710.104591,398.406871 C705.925209,399.985214 700.366824,395.875252 697.689578,389.22702 C695.012357,382.578778 696.16509,375.748408 700.264291,373.970956 C704.363492,372.193503 709.921877,376.303465 712.679305,383.150806 Z M749.216704,368.340057 C752.184097,375.708878 751.200838,382.960092 747.020517,384.536105 C742.840197,386.112118 737.112338,381.581312 734.226972,374.416274 C731.341636,367.251223 732.324896,360.000009 736.423159,358.220227 C740.521422,356.440444 746.24928,360.97125 749.216704,368.340057 Z M785.94336,353.999283 C789.014746,361.626347 788.116233,369.088011 783.936459,370.665381 C779.756686,372.242751 773.94408,367.501497 770.953625,360.0755 C767.963203,352.64949 768.861715,345.187827 772.960524,343.409402 C777.059334,341.630977 782.87194,346.372231 785.94336,353.999283 Z M822.480759,339.188534 C825.762032,347.33681 825.032993,355.219315 820.852383,356.79461 C816.671773,358.369905 810.689696,353.207809 807.49102,345.264753 C804.292381,337.321683 805.021421,329.439178 809.119394,327.658678 C813.217368,325.878178 819.199446,331.040274 822.480759,339.188534 Z M858.828899,323.907813 C862.214199,332.314413 861.569904,340.407361 857.389806,341.983928 C853.209708,343.560494 847.142885,338.187955 843.839158,329.984034 C840.53547,321.780097 841.179765,313.687149 845.27825,311.90792 C849.376736,310.128691 855.443559,315.50123 858.828899,323.907813 Z" id="Combined-Shape" fill="#000000"></path>
        <path d="M784.432444,569.492165 C791.723032,569.492165 797.542621,573.073887 797.430861,577.492165 C797.319101,581.910443 791.499511,585.492165 784.432444,585.492165 C777.365377,585.492165 771.545788,581.910443 771.434027,577.492165 C771.322267,573.073887 777.141856,569.492165 784.432444,569.492165 Z M784.432444,530.992165 C791.997461,530.992165 798.040956,534.573887 797.930966,538.992165 C797.820977,543.410443 791.777483,546.992165 784.432444,546.992165 C777.087406,546.992165 771.043911,543.410443 770.933922,538.992165 C770.823933,534.573887 776.867427,530.992165 784.432444,530.992165 Z M784.432444,491.992165 C792.552046,491.992165 799.043275,495.573887 798.93101,499.992165 C798.818744,504.410443 792.327515,507.992165 784.432444,507.992165 C776.537373,507.992165 770.046144,504.410443 769.933879,499.992165 C769.821613,495.573887 776.312842,491.992165 784.432444,491.992165 Z M784.432444,451.492165 C792.826609,451.492165 799.541734,455.073887 799.431096,459.492165 C799.320458,463.910443 792.605333,467.492165 784.432444,467.492165 C776.259555,467.492165 769.54443,463.910443 769.433792,459.492165 C769.323154,455.073887 776.038279,451.492165 784.432444,451.492165 Z M784.432444,412.492165 C793.380955,412.492165 800.543812,416.073887 800.431133,420.492165 C800.318454,424.910443 793.155597,428.492165 784.432444,428.492165 C775.709291,428.492165 768.546435,424.910443 768.433756,420.492165 C768.321077,416.073887 775.483933,412.492165 784.432444,412.492165 Z M784.432444,373.992165 C793.655633,373.992165 801.04238,377.573887 800.931206,381.992165 C800.820031,386.410443 793.433284,389.992165 784.432444,389.992165 C775.431604,389.992165 768.044857,386.410443 767.933683,381.992165 C767.822508,377.573887 775.209255,373.992165 784.432444,373.992165 Z" id="Combined-Shape" fill="#000000" transform="translate(783.500000, 480.067556) rotate(90.000000) translate(-783.500000, -480.067556) "></path>
        <path d="M857.528877,619.373574 C861.675519,621.021141 862.178284,629.114552 858.651858,637.450722 C855.125385,645.786872 848.974033,651.046133 844.912405,649.1976 C840.850777,647.349068 840.348012,639.255657 843.789425,631.120453 C847.230882,622.985267 853.382234,617.726006 857.528877,619.373574 Z M820.907485,604.875726 C825.05466,606.522033 825.645704,614.406764 822.227639,622.486774 C818.809531,630.566765 812.746457,635.617346 808.685362,633.767553 C804.624267,631.91776 804.033224,624.03303 807.365209,616.156506 C810.697235,608.28 816.760309,603.229419 820.907485,604.875726 Z M784.286107,590.377844 C788.432412,592.026209 789.199993,599.493624 786.000566,607.05679 C782.801101,614.619939 776.914564,619.253204 772.852599,617.405469 C768.790634,615.557734 768.023053,608.090319 771.138141,600.726524 C774.253266,593.362745 780.139802,588.729479 784.286107,590.377844 Z M748.059005,574.947938 C752.205879,576.594957 753.06174,583.853686 749.970642,591.160771 C746.879508,598.46784 741.081251,602.89242 737.019856,601.043339 C732.95846,599.194258 732.102599,591.935529 735.108219,584.830507 C738.113874,577.725499 743.91213,573.300919 748.059005,574.947938 Z M711.437625,560.450062 C715.583522,562.099391 716.615922,568.940802 713.743569,575.730787 C710.871186,582.520759 705.249468,586.528021 701.187095,584.68125 C697.124722,582.834479 696.092322,575.993068 698.881151,569.400525 C701.67001,562.807994 707.291728,558.800732 711.437625,560.450062 Z M674.816221,545.952242 C678.962728,547.60013 680.083411,554.232848 677.319351,560.766839 C674.555262,567.300818 669.021827,571.099387 664.960063,569.251175 C660.8983,567.402962 659.777617,560.770244 662.456935,554.436578 C665.13628,548.102923 670.669715,544.304354 674.816221,545.952242 Z" id="Combined-Shape" fill="#000000"></path>
        <path d="M775.609116,753.208489 C778.821838,756.300601 776.279828,764.008247 769.931376,770.423998 C763.582925,776.839749 755.95613,779.408707 752.896453,776.161927 C749.836776,772.915146 752.378787,765.2075 758.574193,758.946418 C764.769598,752.685335 772.396393,750.116377 775.609116,753.208489 Z M747.216107,725.949286 C750.42979,729.040428 748.046701,736.587467 741.893329,742.806071 C735.739957,749.024674 728.272084,751.433026 725.213367,748.185275 C722.15465,744.937524 724.537739,737.390485 730.536145,731.32849 C736.534551,725.266496 744.002424,722.858144 747.216107,725.949286 Z M718.823125,698.690056 C722.03524,701.782781 719.96996,709.008643 714.210194,714.829469 C708.450427,720.650294 701.300363,722.737468 698.240079,719.491301 C695.179795,716.245134 697.245074,709.019273 702.85301,703.351888 C708.460945,697.684504 715.611009,695.59733 718.823125,698.690056 Z M691.139931,670.713513 C694.353071,673.805203 692.446717,680.870453 686.88197,686.494192 C681.317223,692.117931 674.326084,694.044494 671.266826,690.797291 C668.207567,687.550088 670.113921,680.484838 675.524786,675.016612 C680.935652,669.548386 687.92679,667.621823 691.139931,670.713513 Z M662.746945,643.454287 C665.958326,646.547755 664.369783,653.291825 659.198835,658.51759 C654.027887,663.743355 647.354559,665.348738 644.293541,662.103313 C641.232523,658.857888 642.821066,652.113818 647.841651,647.04001 C652.862236,641.966202 659.535563,640.360819 662.746945,643.454287 Z M634.353915,616.195105 C637.566393,619.287463 636.136782,625.870918 631.160787,630.899662 C626.184793,635.928407 619.670397,637.373174 616.610476,634.12664 C613.550556,630.880106 614.980167,624.296651 619.803604,619.422082 C624.62704,614.547513 631.141436,613.102746 634.353915,616.195105 Z" id="Combined-Shape" fill="#000000"></path>
        <path d="M648.659636,846.689371 C650.438865,850.828638 645.066326,856.955827 636.659768,860.374914 C628.253143,863.793836 620.160194,863.14313 618.583628,858.92144 C617.007062,854.699749 622.379601,848.572559 630.583498,845.2359 C638.787459,841.899399 646.880407,842.550104 648.659636,846.689371 Z M632.908878,810.170725 C634.689377,814.309475 629.527282,820.351076 621.379045,823.665097 C613.230746,826.978962 605.348241,826.242668 603.772946,822.02046 C602.197651,817.798252 607.359747,811.756651 615.30278,808.526092 C623.245873,805.295682 631.128378,806.031976 632.908878,810.170725 Z M617.158154,773.652066 C618.936579,777.791659 614.195325,783.662102 606.568294,786.764134 C598.941208,789.86603 591.479545,788.958578 589.902175,784.737214 C588.324805,780.51585 593.066059,774.645408 600.492036,771.625149 C607.918066,768.605019 615.379729,769.512472 617.158154,773.652066 Z M602.347329,736.751144 C604.127111,740.890186 599.596306,746.675038 592.227518,749.672036 C584.858678,752.668908 577.607463,751.675864 576.031451,747.453949 C574.455438,743.232033 578.986243,737.447181 586.151264,734.53306 C593.316332,731.619059 600.567547,732.612102 602.347329,736.751144 Z M586.5966,700.232487 C588.374053,704.372476 584.264091,709.986168 577.416767,712.771075 C570.569398,715.555871 563.739027,714.391669 562.160685,710.1707 C560.582342,705.949732 564.692304,700.33604 571.34052,697.632115 C577.988777,694.928295 584.819148,696.092497 586.5966,700.232487 Z M570.845814,663.713852 C572.62472,667.85325 568.725214,673.381349 562.136045,676.061258 C555.546835,678.741065 548.92692,677.491269 547.350031,673.269709 C545.773142,669.04815 549.672647,663.520051 556.059801,660.922307 C562.446993,658.324658 569.066908,659.574454 570.845814,663.713852 Z" id="Combined-Shape" fill="#000000"></path>
        <path d="M480.924609,873.135112 C488.215196,873.135112 494.034786,876.716834 493.923026,881.135112 C493.811265,885.55339 487.991676,889.135112 480.924609,889.135112 C473.857542,889.135112 468.037952,885.55339 467.926192,881.135112 C467.814431,876.716834 473.634021,873.135112 480.924609,873.135112 Z M480.424609,835.135112 C487.989626,835.135112 494.03312,838.716834 493.923131,843.135112 C493.813142,847.55339 487.769647,851.135112 480.424609,851.135112 C473.07957,851.135112 467.036076,847.55339 466.926086,843.135112 C466.816097,838.716834 472.859591,835.135112 480.424609,835.135112 Z M480.424609,795.135112 C488.544211,795.135112 495.03544,798.716834 494.923174,803.135112 C494.810909,807.55339 488.31968,811.135112 480.424609,811.135112 C472.529538,811.135112 466.038309,807.55339 465.926043,803.135112 C465.813778,798.716834 472.305007,795.135112 480.424609,795.135112 Z M480.924609,755.135112 C489.318774,755.135112 496.033899,758.716834 495.923261,763.135112 C495.812623,767.55339 489.097497,771.135112 480.924609,771.135112 C472.75172,771.135112 466.036594,767.55339 465.925956,763.135112 C465.815318,758.716834 472.530444,755.135112 480.924609,755.135112 Z M480.924609,715.135112 C489.873119,715.135112 497.035976,718.716834 496.923297,723.135112 C496.810618,727.55339 489.647761,731.135112 480.924609,731.135112 C472.201456,731.135112 465.038599,727.55339 464.92592,723.135112 C464.813241,718.716834 471.976098,715.135112 480.924609,715.135112 Z M480.424609,677.135112 C489.647797,677.135112 497.034545,680.716834 496.92337,685.135112 C496.812196,689.55339 489.425448,693.135112 480.424609,693.135112 C471.423769,693.135112 464.037022,689.55339 463.925847,685.135112 C463.814673,680.716834 471.20142,677.135112 480.424609,677.135112 Z" id="Combined-Shape" fill="#000000" transform="translate(480.500000, 783.067556) rotate(180.000000) translate(-480.500000, -783.067556) "></path>
        <path d="M329.269718,844.27095 C337.32669,847.729593 342.535381,853.911701 340.903656,858.079077 C339.27193,862.246452 331.256341,862.751732 323.000336,859.20765 C314.744332,855.663568 309.53564,849.481459 311.366398,845.399523 C313.197156,841.317587 321.212746,840.812308 329.269718,844.27095 Z M344.089781,807.664612 C351.89056,811.013277 356.892578,817.106667 355.262101,821.274578 C353.631623,825.442489 345.822708,826.036488 337.820399,822.601311 C329.818091,819.166135 324.816073,813.072745 326.64808,808.991345 C328.480086,804.909945 336.289002,804.315946 344.089781,807.664612 Z M359.371399,771.256406 C366.66438,774.387088 371.253095,780.303057 369.62058,784.470094 C367.988064,788.63713 360.592452,789.408549 353.102017,786.193106 C345.611582,782.977662 341.022867,777.061693 342.852836,772.979418 C344.682804,768.897143 352.078417,768.125724 359.371399,771.256406 Z M375.11457,735.046333 C382.151268,738.066999 386.533304,743.894247 384.902121,748.061856 C383.270939,752.229464 376.082006,753.089605 368.845189,749.983033 C361.608372,746.876461 357.226336,741.049214 359.057638,736.967511 C360.88894,732.885808 368.077873,732.025667 375.11457,735.046333 Z M390.396188,698.638128 C396.925335,701.440916 400.894066,707.090743 399.260595,711.257369 C397.627125,715.423996 390.851497,716.461557 384.126806,713.574827 C377.402116,710.688098 373.433386,705.038271 375.262399,700.955586 C377.091413,696.872901 383.867041,695.83534 390.396188,698.638128 Z M405.216313,662.031643 C411.489011,664.724517 415.251056,670.285619 413.619013,674.452858 C411.98697,678.620098 405.418028,679.746384 398.94687,676.968489 C392.475712,674.190594 388.713667,668.629492 390.544108,664.54742 C392.374549,660.465347 398.943491,659.339061 405.216313,662.031643 Z" id="Combined-Shape" fill="#000000"></path>
        <path d="M201.506907,759.028 C207.729569,765.261658 210.282766,772.935531 207.209624,776.168086 C204.136482,779.40064 196.476123,776.842938 190.099723,770.455308 C183.723342,764.067659 181.170144,756.393785 184.397006,753.315222 C187.623867,750.236658 195.284227,752.79436 201.506907,759.028 Z M228.955399,730.816879 C234.980195,736.85232 237.373772,744.366292 234.301594,747.599812 C231.229416,750.833332 223.728677,748.435532 217.548216,742.244186 C211.367772,736.052821 208.974196,728.53885 212.202021,725.461252 C215.429847,722.383654 222.930586,724.781454 228.955399,730.816879 Z M256.760364,702.962861 C262.392972,708.60542 264.467341,715.799621 261.393589,719.031564 C258.319837,722.263507 251.138306,720.185479 245.353183,714.390166 C239.568076,708.594837 237.493707,701.400637 240.719959,698.321462 C243.946211,695.242288 251.127741,697.320316 256.760364,702.962861 Z M284.921804,675.465945 C290.356476,680.910218 292.271219,687.944512 289.198497,691.177486 C286.125774,694.410461 279.103869,692.492339 273.514624,686.893249 C267.925394,681.294144 266.010651,674.259851 269.237932,671.181708 C272.465213,668.103564 279.487119,670.021686 284.921804,675.465945 Z M312.726769,647.611927 C317.769444,652.66351 319.364978,659.37803 316.290488,662.609235 C313.215999,665.840439 306.513303,664.24209 301.319592,659.039229 C296.125893,653.836355 294.530359,647.121835 297.755873,644.041921 C300.981387,640.962008 307.684083,642.560357 312.726769,647.611927 Z M340.175262,619.400806 C345.01992,624.254022 346.455823,630.80863 343.382436,634.040939 C340.309049,637.273248 333.765984,635.834811 328.768085,630.828107 C323.770197,625.821391 322.334294,619.266782 325.56091,616.187973 C328.787527,613.109164 335.330592,614.547601 340.175262,619.400806 Z" id="Combined-Shape" fill="#000000"></path>
        <path d="M116.330789,631.108513 C119.796247,639.248982 119.28997,647.347632 115.199971,649.197361 C111.109971,651.04709 104.91565,645.784424 101.364551,637.442875 C97.8134851,629.101311 98.3197625,621.002661 102.49537,619.354027 C106.670978,617.705393 112.865298,622.968059 116.330789,631.108513 Z M152.612389,615.202205 C155.967654,623.083825 155.372482,630.97366 151.28302,632.82465 C147.193557,634.675641 141.088131,629.62179 137.646153,621.536566 C134.204206,613.451328 134.799378,605.561493 138.975523,603.91412 C143.151667,602.266747 149.257093,607.320598 152.612389,615.202205 Z M189.092512,599.762234 C192.229365,607.130794 191.456422,614.603043 187.366083,616.451974 C183.275744,618.300906 177.348089,613.664641 174.12628,606.096593 C170.904499,598.528534 171.677441,591.056285 175.852709,589.406853 C180.027977,587.757421 185.955633,592.393686 189.092512,599.762234 Z M225.771161,584.7886 C228.797781,591.89822 227.935942,599.161648 223.846176,601.011926 C219.75641,602.862204 213.917651,598.43476 210.80493,591.122958 C207.692235,583.811145 208.554074,576.547717 212.729916,574.899632 C216.905757,573.251547 222.744516,577.678991 225.771161,584.7886 Z M262.251284,569.348629 C265.059598,575.945439 264.019987,582.791278 259.929237,584.639245 C255.838488,586.487211 250.1775,582.477355 247.285057,575.682986 C244.392636,568.888607 245.432247,562.042767 249.607104,560.39237 C253.781962,558.741973 259.442949,562.751829 262.251284,569.348629 Z M298.532884,553.442321 C301.230921,559.780086 300.10241,566.417098 296.012275,568.266507 C291.922139,570.115915 286.350051,566.314887 283.566659,559.776677 C280.783287,553.238458 281.911798,546.601446 286.087269,544.952491 C290.26274,543.303536 295.834827,547.104564 298.532884,553.442321 Z" id="Combined-Shape" fill="#000000"></path>
        <path d="M177.567556,570.642947 C184.858144,570.642947 190.677733,574.224669 190.565973,578.642947 C190.454212,583.061225 184.634623,586.642947 177.567556,586.642947 C170.500489,586.642947 164.680899,583.061225 164.569139,578.642947 C164.457379,574.224669 170.276968,570.642947 177.567556,570.642947 Z M175.567556,532.142947 C183.132573,532.142947 189.176067,535.724669 189.066078,540.142947 C188.956089,544.561225 182.912594,548.142947 175.567556,548.142947 C168.222517,548.142947 162.179023,544.561225 162.069034,540.142947 C161.959044,535.724669 168.002539,532.142947 175.567556,532.142947 Z M175.567556,492.142947 C183.687158,492.142947 190.178387,495.724669 190.066121,500.142947 C189.953856,504.561225 183.462627,508.142947 175.567556,508.142947 C167.672485,508.142947 161.181256,504.561225 161.06899,500.142947 C160.956725,495.724669 167.447954,492.142947 175.567556,492.142947 Z M177.567556,451.642947 C185.961721,451.642947 192.676846,455.224669 192.566208,459.642947 C192.45557,464.061225 185.740445,467.642947 177.567556,467.642947 C169.394667,467.642947 162.679542,464.061225 162.568904,459.642947 C162.458266,455.224669 169.173391,451.642947 177.567556,451.642947 Z M177.567556,412.642947 C186.516067,412.642947 193.678923,416.224669 193.566244,420.642947 C193.453565,425.061225 186.290709,428.642947 177.567556,428.642947 C168.844403,428.642947 161.681546,425.061225 161.568867,420.642947 C161.456188,416.224669 168.619045,412.642947 177.567556,412.642947 Z M175.567556,373.142947 C184.790745,373.142947 192.177492,376.724669 192.066317,381.142947 C191.955143,385.561225 184.568396,389.142947 175.567556,389.142947 C166.566716,389.142947 159.179969,385.561225 159.068794,381.142947 C158.95762,376.724669 166.344367,373.142947 175.567556,373.142947 Z" id="Combined-Shape" fill="#000000" transform="translate(176.500000, 480.067556) rotate(270.000000) translate(-176.500000, -480.067556) "></path>
        <path d="M296.020136,390.111664 C300.102208,391.942105 301.228495,398.511047 298.535913,404.783869 C295.843039,411.056567 290.281937,414.818611 286.114698,413.186569 C281.947458,411.554526 280.821172,404.985583 283.599067,398.514426 C286.376962,392.043268 291.938064,388.281223 296.020136,390.111664 Z M259.61197,374.829955 C263.694655,376.658969 264.732216,383.434597 261.929428,389.963744 C259.12664,396.492891 253.476813,400.461621 249.310187,398.828151 C245.14356,397.194681 244.105999,390.419053 246.992728,383.694362 C249.879458,376.969672 255.529285,373.000942 259.61197,374.829955 Z M223.600045,358.625194 C227.681748,360.456495 228.541888,367.645429 225.521223,374.682126 C222.500557,381.718824 216.673309,386.100859 212.5057,384.469677 C208.338092,382.838495 207.477951,375.649561 210.584523,368.412745 C213.691095,361.175928 219.518342,356.793892 223.600045,358.625194 Z M187.588138,342.420392 C191.670413,344.25036 192.441832,351.645972 189.31115,358.938953 C186.180469,366.231934 180.2645,370.820648 176.097463,369.188133 C171.930427,367.555618 171.159008,360.160006 174.374451,352.669572 C177.589894,345.179137 183.505863,340.590423 187.588138,342.420392 Z M151.576211,326.215636 C155.657611,328.047642 156.25161,335.856558 152.902944,343.657337 C149.554279,351.458116 143.460889,356.460134 139.292978,354.829656 C135.125067,353.199179 134.531068,345.390263 137.966245,337.387955 C141.401421,329.385647 147.494811,324.383629 151.576211,326.215636 Z M115.168033,310.933954 C119.249969,312.764712 119.755248,320.780301 116.296606,328.837274 C112.837963,336.894246 106.655854,342.102937 102.488479,340.471211 C98.3211036,338.839486 97.8158243,330.823897 101.359906,322.567892 C104.903988,314.311887 111.086097,309.103196 115.168033,310.933954 Z" id="Combined-Shape" fill="#000000"></path>
        <path d="M344.379583,326.008472 C347.458392,329.255006 346.019955,335.838461 341.166778,340.713063 C336.313534,345.587599 329.758925,347.032366 326.526617,343.940007 C323.294308,340.847648 324.732744,334.264194 329.739419,329.235414 C334.746165,324.206705 341.300774,322.761938 344.379583,326.008472 Z M316.525634,298.031799 C319.605548,301.277223 318.007199,308.021294 312.955659,313.095138 C307.904046,318.16891 301.189526,319.774293 297.958321,316.680825 C294.727117,313.587357 296.325465,306.843287 301.528295,301.617483 C306.7312,296.391757 313.445721,294.786374 316.525634,298.031799 Z M289.385848,269.337821 C292.463991,272.585023 290.54587,279.650274 285.101646,285.118542 C279.657338,290.586726 272.623044,292.513289 269.39007,289.421599 C266.157095,286.329909 268.075216,279.264658 273.67427,273.640875 C279.273412,268.017181 286.307705,266.090618 289.385848,269.337821 Z M262.246094,240.643811 C265.325268,243.889978 263.24724,251.115839 257.604733,256.783269 C251.962135,262.450608 244.767935,264.537782 241.535992,261.445056 C238.304049,258.35233 240.382077,251.126469 246.17735,245.305596 C251.972719,239.484817 259.166919,237.397644 262.246094,240.643811 Z M235.106304,211.949837 C238.183901,215.197587 235.786102,222.744627 229.75072,228.806673 C223.715236,234.868616 216.201264,237.276968 212.967744,234.185826 C209.734224,231.094684 212.132023,223.547644 218.323325,217.328987 C224.514734,211.110438 232.028706,208.702086 235.106304,211.949837 Z M207.252334,183.973185 C210.330898,187.219965 207.773196,194.927611 201.539602,201.188749 C195.305898,207.449776 187.632024,210.018734 184.39947,206.926622 C181.166916,203.83451 183.724618,196.126864 190.112199,189.711056 C196.499897,183.295363 204.17377,180.726404 207.252334,183.973185 Z" id="Combined-Shape" fill="#000000"></path>
        <path d="M413.649969,286.000399 C415.226858,290.180366 411.327353,295.654001 404.940185,298.226117 C398.553007,300.798208 391.933092,299.560725 390.154186,295.46211 C388.37528,291.363494 392.274786,285.889859 398.863971,283.236391 C405.453165,280.582948 412.07308,281.820431 413.649969,286.000399 Z M398.839315,249.462965 C400.417658,253.642347 396.307696,259.200732 389.659465,261.877978 C383.011223,264.555199 376.180852,263.402466 374.4034,259.303265 C372.625947,255.204064 376.735909,249.645679 383.58325,246.88825 C390.430602,244.13085 397.260973,245.283582 398.839315,249.462965 Z M384.968549,212.547039 C386.544562,216.727359 382.013757,222.455218 374.848718,225.340583 C367.683668,228.225919 360.432453,227.24266 358.652671,223.144397 C356.872889,219.046134 361.403694,213.318276 368.772502,210.350852 C376.141322,207.383459 383.392537,208.366718 384.968549,212.547039 Z M371.097825,175.631096 C372.675195,179.81087 367.933941,185.623476 360.507944,188.613931 C353.081934,191.604353 345.620271,190.705841 343.841846,186.607031 C342.063421,182.508222 346.804675,176.695616 354.431727,173.624196 C362.058792,170.55281 369.520455,171.451323 371.097825,175.631096 Z M357.227054,138.715173 C358.802349,142.895782 353.640253,148.87786 345.697198,152.076536 C337.754127,155.275175 329.871622,154.546135 328.091122,150.448161 C326.310623,146.350188 331.472718,140.36811 339.620978,137.086797 C347.769254,133.805523 355.651759,134.534563 357.227054,138.715173 Z M342.416372,102.17775 C343.992938,106.357848 338.620399,112.42467 330.416478,115.728398 C322.212541,119.032086 314.119593,118.387791 312.340364,114.289305 C310.561135,110.19082 315.933674,104.123997 324.340258,100.738656 C332.746857,97.3533573 340.839806,97.9976522 342.416372,102.17775 Z" id="Combined-Shape" fill="#000000"></path>
        <path d="M607.852261,286.15226 C613.67206,290.170377 616.273987,296.36482 613.6638,299.987974 C611.053613,303.611129 604.364383,303.390844 598.722961,299.495992 C593.081589,295.601066 590.479663,289.406623 592.911421,285.660279 C595.343179,281.913935 602.032409,282.13422 607.852261,286.15226 Z M629.68971,253.340503 C635.737521,257.516047 638.52533,263.838826 635.916426,267.462866 C633.307523,271.086907 626.43241,270.738287 620.560405,266.684241 C614.688454,262.630117 611.900645,256.307338 614.333687,252.56188 C616.766729,248.816422 623.641842,249.165042 629.68971,253.340503 Z M651.942259,220.815332 C658.450645,225.308872 661.61016,231.888281 658.999199,235.510901 C656.388238,239.133521 649.141419,238.528271 642.812946,234.159083 C636.484534,229.789803 633.32502,223.210394 635.756004,219.463516 C638.186988,215.716638 645.433806,216.321888 651.942259,220.815332 Z M674.609904,188.576752 C681.346379,193.227773 684.69177,199.935513 682.082008,203.558961 C679.472246,207.182409 672.039551,206.448827 665.480586,201.92051 C658.921688,197.392095 655.576297,190.684355 658.00848,186.938304 C660.440663,183.192253 667.873358,183.925835 674.609904,188.576752 Z M696.862453,156.05158 C704.059276,161.020441 707.77637,167.98481 705.164775,171.606992 C702.55318,175.229175 694.748782,174.238965 687.733125,169.395352 C680.717546,164.551628 677.000451,157.587259 679.430801,153.839943 C681.861152,150.092627 689.66555,151.082837 696.862453,156.05158 Z" id="Combined-Shape" fill="#000000"></path>
        <path d="M672.489158,351.467862 C676.421806,357.467207 676.525235,364.28493 672.720172,366.695674 C668.91511,369.106418 662.740197,366.346389 658.928119,360.530977 C655.116042,354.715565 655.012613,347.897841 658.697105,345.303165 C662.381598,342.708488 668.55651,345.468517 672.489158,351.467862 Z M705.263695,328.948616 C709.350419,335.183008 709.579455,342.192349 705.77526,344.604416 C701.971065,347.016483 695.670545,344.064837 691.702656,338.011731 C687.734767,331.958625 687.505731,324.949285 691.191091,322.355932 C694.876451,319.762579 701.17697,322.714224 705.263695,328.948616 Z M738.318727,306.857273 C742.71668,313.566452 743.19689,320.958963 739.391304,323.368909 C735.585718,325.778855 729.034025,322.444039 724.757688,315.920388 C720.48135,309.396737 720.001141,302.004226 723.68511,299.408751 C727.36908,296.813277 733.920773,300.148093 738.318727,306.857273 Z M771.654254,285.193831 C776.206336,292.138138 776.812148,299.722259 773.007373,302.133441 C769.202597,304.544622 762.525302,301.018196 758.093215,294.256947 C753.661129,287.495697 753.055317,279.911576 756.740096,277.317337 C760.424876,274.723099 767.102171,278.249525 771.654254,285.193831 Z M804.709286,263.102488 C809.572444,270.521347 810.429428,278.488637 806.623414,280.89793 C802.8174,283.307222 795.888932,279.397626 791.148247,272.165603 C786.407562,264.93358 785.550578,256.96629 789.234119,254.370162 C792.91766,251.774034 799.846128,255.683629 804.709286,263.102488 Z" id="Combined-Shape" fill="#000000"></path>
        <path d="M706.243411,432.781366 C707.536331,439.660204 705.004013,445.802507 700.587256,446.500594 C696.170499,447.198681 691.573975,442.359167 690.320571,435.691249 C689.067289,429.023307 691.599607,422.881005 695.976722,421.972021 C700.353838,421.063037 704.950362,425.902551 706.243411,432.781366 Z M744.962811,425.19795 C746.306384,432.346294 743.815363,438.708303 739.398891,439.407908 C734.98242,440.107513 730.344598,435.048292 729.039962,428.107835 C727.735456,421.167354 730.226477,414.805345 734.603878,413.897878 C738.981278,412.990411 743.6191,418.049632 744.962811,425.19795 Z M783.77444,418.105165 C785.220328,425.7979 782.811888,432.599252 778.39496,433.296424 C773.978031,433.993597 769.257628,428.495034 767.851568,421.015054 C766.445661,413.535046 768.854101,406.733694 773.231044,405.823795 C777.607988,404.913896 782.328391,410.412459 783.77444,418.105165 Z M822.678285,411.503012 C824.174842,419.465344 821.807698,426.486395 817.391036,427.184984 C812.974373,427.883574 808.212674,422.165311 806.755402,414.412903 C805.298293,406.660464 807.665436,399.639413 812.042646,398.730931 C816.419856,397.822449 821.181555,403.540712 822.678285,411.503012 Z M861.489914,404.410226 C863.088735,412.91668 860.804173,420.377072 856.387103,421.073495 C851.970033,421.769918 847.125753,415.612315 845.567008,407.320121 C844.008449,399.027893 846.293011,391.567501 850.669814,390.656853 C855.046617,389.746205 859.890897,395.903808 861.489914,404.410226 Z" id="Combined-Shape" fill="#000000"></path>
        <path d="M759.990537,609.370427 C766.892234,610.780183 771.683966,615.445811 770.693169,619.791404 C769.702372,624.136997 763.475774,626.552005 756.785673,625.185482 C750.095574,623.818947 745.303842,619.153319 746.083041,614.764505 C746.86224,610.375691 753.088838,607.960682 759.990537,609.370427 Z M767.310126,570.720708 C774.482223,572.185697 779.494392,576.896351 778.505117,581.242255 C777.515843,585.588159 771.068808,587.958141 764.105261,586.535764 C757.141717,585.113374 752.129548,580.40272 752.910269,576.014217 C753.690991,571.625713 760.138026,569.255732 767.310126,570.720708 Z M775.121977,532.171538 C782.840273,533.748096 788.293246,538.54879 787.301531,542.894195 C786.309816,547.239601 779.421978,549.519543 771.917112,547.986597 C764.41225,546.453636 758.959277,541.652942 759.737558,537.26394 C760.51584,532.874938 767.403678,530.594996 775.121977,532.171538 Z M783.426091,493.72292 C791.414879,495.354729 797.088281,500.200448 796.097988,504.546144 C795.107695,508.89184 787.999427,511.126757 780.221226,509.537979 C772.443028,507.949186 766.769625,503.103467 767.549328,498.714755 C768.329031,494.326044 775.437299,492.091127 783.426091,493.72292 Z M791.237942,455.17375 C799.772659,456.917073 805.886863,461.852831 804.894396,466.198083 C803.901929,470.543335 796.35286,472.688213 788.033077,470.988812 C779.713297,469.289393 773.599093,464.353635 774.376623,459.96448 C775.154152,455.575325 782.703221,453.430446 791.237942,455.17375 Z" id="Combined-Shape" fill="#000000" transform="translate(775.500000, 540.067556) rotate(90.000000) translate(-775.500000, -540.067556) "></path>
        <path d="M803.727613,678.765294 C807.474929,681.216963 806.484719,689.089821 801.515967,696.349849 C796.547115,703.609808 789.582746,707.359508 785.960563,704.725005 C782.338381,702.090501 783.328591,694.217643 788.172212,687.140452 C793.015928,680.063326 799.980297,676.313625 803.727613,678.765294 Z M770.629252,657.155058 C774.375302,659.608576 773.641721,667.106469 768.990796,673.902103 C764.339783,680.697675 757.632043,684.072411 754.008595,681.439757 C750.385147,678.807102 751.118728,671.309208 755.647053,664.692713 C760.175461,658.076276 766.883201,654.70154 770.629252,657.155058 Z M738.10404,634.707384 C741.850918,637.159693 741.245668,644.47008 736.752217,651.035619 C732.258684,657.601102 725.679275,660.788331 722.056655,658.154467 C718.434035,655.520603 719.039285,648.210216 723.40848,641.826234 C727.777753,635.442305 734.357161,632.255076 738.10404,634.707384 Z M705.005676,613.097153 C708.751133,615.551537 708.402513,622.486958 704.227047,628.587873 C700.051509,634.688739 693.72873,637.501002 690.10469,634.869214 C686.480649,632.237426 686.829269,625.302005 690.88332,619.378495 C694.937439,613.455032 701.260218,610.642768 705.005676,613.097153 Z M671.907277,591.486972 C675.653621,593.940061 675.433336,600.687969 671.415291,606.558868 C667.397179,612.429722 661.202736,615.054472 657.579582,612.421389 C653.956427,609.788305 654.176711,603.040398 658.07157,597.349494 C661.966489,591.658633 668.160933,589.033883 671.907277,591.486972 Z" id="Combined-Shape" fill="#000000"></path>
        <path d="M702.204435,787.801675 C704.77779,791.485216 700.902489,798.413684 693.548709,803.276844 C686.194927,808.14 678.297525,808.996984 675.909366,805.19097 C673.521208,801.384956 677.396509,794.456488 684.565092,789.715801 C691.733678,784.975118 699.63108,784.118134 702.204435,787.801675 Z M679.45855,755.307652 C682.030032,758.992431 678.534539,765.669727 671.651149,770.221812 C664.767757,774.773892 657.250163,775.379704 654.860132,771.574929 C652.470101,767.770153 655.965594,761.092857 662.667532,756.660769 C669.369474,752.228685 676.887068,751.622873 679.45855,755.307652 Z M657.56092,722.252666 C660.133627,725.936636 656.828064,732.488329 650.177738,736.886284 C643.52741,741.284236 636.199745,741.764445 633.810939,737.95886 C631.422133,734.153274 634.727697,727.601581 641.194122,723.325242 C647.660548,719.048906 654.988213,718.568697 657.56092,722.252666 Z M634.815031,689.758647 C637.385635,693.444006 634.459882,699.744526 628.280178,703.831252 C622.100473,707.917975 615.152618,708.147011 612.761709,704.342816 C610.370801,700.53862 613.296554,694.238101 619.296562,690.27021 C625.296571,686.302322 632.244426,686.073287 634.815031,689.758647 Z M612.069089,657.264661 C614.641006,660.949154 611.905187,667.124066 605.958469,671.056715 C600.01175,674.989362 593.25383,675.092791 590.864234,671.287728 C588.474637,667.482665 591.210455,661.307753 596.974853,657.495674 C602.739254,653.683598 609.497173,653.580169 612.069089,657.264661 Z" id="Combined-Shape" fill="#000000"></path>
        <path d="M566.909108,850.23737 C567.836017,854.614173 561.568457,859.458452 552.910122,861.057378 C544.251784,862.656291 536.658171,860.371729 535.949312,855.954659 C535.240453,851.537589 541.508013,846.693309 549.948298,845.134651 C558.388585,843.576005 565.982198,845.860567 566.909108,850.23737 Z M558.69085,811.610202 C559.615555,815.987412 553.795181,820.749111 545.690682,822.24576 C537.58618,823.742398 530.439753,821.375254 529.728689,816.958592 C529.017625,812.541929 534.837999,807.78023 542.728858,806.323034 C550.619719,804.865849 557.766146,807.232992 558.69085,811.610202 Z M551.471328,772.7986 C552.397475,777.175544 546.800723,781.895947 538.970634,783.341921 C531.140542,784.787884 524.217738,782.379444 523.508116,777.962515 C522.798494,773.545586 528.395246,768.825183 536.00881,767.419195 C543.622376,766.013217 550.545181,768.421656 551.471328,772.7986 Z M543.253065,734.171433 C544.176736,738.548834 539.027173,743.186656 531.751194,744.530302 C524.475213,745.87394 517.999596,743.382919 517.287499,738.966447 C516.575401,734.549975 521.724965,729.912154 528.78937,728.607579 C535.853777,727.303012 542.329394,729.794033 543.253065,734.171433 Z M535.034741,695.544278 C535.959957,699.921394 531.034023,704.517918 524.032361,705.810907 C517.030697,707.103887 510.778711,704.571569 510.068158,700.154812 C509.357604,695.738055 514.283538,691.14153 521.070538,689.888183 C527.857539,688.634845 534.109525,691.167163 535.034741,695.544278 Z" id="Combined-Shape" fill="#000000"></path>
        <path d="M400.990555,845.180899 C407.892234,846.607231 412.683966,851.327428 411.693169,855.723846 C410.702372,860.120265 404.475774,862.563519 397.785656,861.181096 C391.095574,859.798496 386.303842,855.078299 387.083041,850.638154 C387.86224,846.198008 394.088838,843.754754 400.990555,845.180899 Z M408.310145,806.079129 C415.482223,807.561348 420.494392,812.327098 419.505117,816.723831 C418.515843,821.120564 412.068808,823.518265 405.105243,822.079341 C398.141717,820.640226 393.129548,815.874476 393.910269,811.434645 C394.690991,806.994814 401.138026,804.597114 408.310145,806.079129 Z M416.122,767.079077 C423.840273,768.674184 429.293246,773.531026 428.301531,777.927255 C427.309816,782.323484 420.421978,784.630093 412.917091,783.079321 C405.41225,781.528327 399.959277,776.671484 400.737558,772.231149 C401.51584,767.790814 408.403678,765.484206 416.122,767.079077 Z M424.426115,728.180759 C432.414879,729.831772 438.088281,734.734166 437.097988,739.130689 C436.107695,743.527212 428.999427,745.788268 421.221203,744.18102 C413.443028,742.573532 407.769625,737.671138 408.549328,733.231097 C409.329031,728.791056 416.437299,726.529999 424.426115,728.180759 Z M432.23797,689.180706 C440.772659,690.944553 446.886863,695.938039 445.894396,700.334112 C444.901929,704.730186 437.35286,706.900151 429.033051,705.181001 C420.713297,703.461578 414.599093,698.468092 415.376623,694.027602 C416.154152,689.587112 423.703221,687.417147 432.23797,689.180706 Z" id="Combined-Shape" fill="#000000" transform="translate(416.500000, 775.067556) rotate(180.000000) translate(-416.500000, -775.067556) "></path>
        <path d="M270.427082,787.621735 C277.50423,792.497496 281.253931,799.507987 278.802262,803.28012 C276.350593,807.052252 268.477735,806.055485 261.21773,801.053793 C253.957748,796.052069 250.208048,789.041578 252.842551,785.395408 C255.477055,781.749237 263.349913,782.746005 270.427082,787.621735 Z M292.874823,754.881174 C299.49128,759.439543 302.866016,766.191705 300.412498,769.962564 C297.95898,773.733423 290.461086,772.994984 283.665474,768.313228 C276.869881,763.631443 273.495144,756.879281 276.127799,753.231837 C278.760454,749.584393 286.258348,750.322832 292.874823,754.881174 Z M315.741304,722.429098 C322.125251,726.82728 325.31248,733.450261 322.860171,737.221954 C320.407863,740.993646 313.097476,740.384387 306.531956,735.861151 C299.966454,731.337887 296.779225,724.714905 299.413089,721.068295 C302.046953,717.421684 309.35734,718.030942 315.741304,722.429098 Z M338.189045,689.688537 C344.112524,693.769481 346.924787,700.134133 344.470403,703.904395 C342.016019,707.674657 335.080598,707.323728 328.979699,703.120586 C322.878817,698.917419 320.066553,692.552768 322.698342,688.904727 C325.33013,685.256686 332.265551,685.607614 338.189045,689.688537 Z M360.218048,656.659488 C365.908923,660.580181 368.533673,666.815647 366.080584,670.586801 C363.627495,674.357955 356.879587,674.136212 351.008703,670.091535 C345.137834,666.046836 342.513084,659.81137 345.146167,656.164221 C347.77925,652.517072 354.527158,652.738815 360.218048,656.659488 Z" id="Combined-Shape" fill="#000000"></path>
        <path d="M167.851753,683.29579 C172.592438,690.400935 173.449422,698.228449 169.765881,700.779031 C166.08234,703.329613 159.153872,699.488606 154.290714,692.199903 C149.427556,684.9112 148.570572,677.083686 152.376586,674.716662 C156.1826,672.349638 163.111068,676.190644 167.851753,683.29579 Z M200.906785,661.592014 C205.338871,668.234645 205.944683,675.685711 202.259904,678.234437 C198.575124,680.783163 191.897829,677.318603 187.345746,670.496127 C182.793664,663.673651 182.187852,656.222584 185.992627,653.853704 C189.797403,651.484824 196.474698,654.949383 200.906785,661.592014 Z M234.242312,640.308633 C238.51865,646.717834 238.998859,653.980652 235.31489,656.530592 C231.63092,659.080532 225.079227,655.804221 220.681273,649.212746 C216.28332,642.621272 215.80311,635.358454 219.608696,632.990788 C223.414282,630.623121 229.965975,633.899432 234.242312,640.308633 Z M267.297465,618.604777 C271.265233,624.551768 271.494269,631.438138 267.808909,633.985993 C264.123549,636.533849 257.82303,633.633987 253.736178,627.509055 C249.649581,621.383953 249.420545,614.497584 253.22474,612.127834 C257.028935,609.758084 263.329455,612.657946 267.297465,618.604777 Z M300.071992,596.480612 C303.883958,602.194073 303.987387,608.892188 300.302895,611.441344 C296.618402,613.990499 290.44349,611.278892 286.510724,605.384877 C282.578194,599.490706 282.474765,592.792591 286.279828,590.424141 C290.08489,588.055691 296.259803,590.767299 300.071992,596.480612 Z" id="Combined-Shape" fill="#000000"></path>
        <path d="M112.517332,549.600623 C114.226626,557.920416 112.069204,565.469485 107.698542,566.461952 C103.327879,567.454419 98.3632571,561.340215 96.609692,552.805508 C94.8562405,544.270777 97.0136623,536.721708 101.428485,535.944178 C105.843308,535.166649 110.80793,541.280852 112.517332,549.600623 Z M151.291927,541.788773 C152.889957,549.566983 150.64197,556.675251 146.270861,557.665544 C141.899751,558.655837 137.025695,552.982435 135.384301,544.993655 C133.743007,537.004855 135.990994,529.896587 140.40537,529.116884 C144.819747,528.337181 149.693803,534.010583 151.291927,541.788773 Z M190.167664,534.469186 C191.709539,541.974059 189.416263,548.861897 185.045446,549.853612 C180.674629,550.845327 175.845861,545.392354 174.260045,537.674066 C172.674321,529.955759 174.967597,523.06792 179.382265,522.289639 C183.796934,521.511358 188.625702,526.96433 190.167664,534.469186 Z M228.94226,526.657336 C230.372924,533.620889 227.989082,540.067923 223.617764,541.057198 C219.246445,542.046473 214.508243,537.034304 213.034653,529.862213 C211.561143,522.690107 213.944984,516.243072 218.359152,515.46235 C222.773319,514.681629 227.511521,519.693798 228.94226,526.657336 Z M267.615721,518.353223 C268.990206,525.04333 266.561075,531.269927 262.190069,532.260725 C257.819063,533.251522 253.126151,528.45979 251.70812,521.558099 C250.290162,514.656394 252.719294,508.429796 257.133774,507.650597 C261.548253,506.871397 266.241165,511.663129 267.615721,518.353223 Z" id="Combined-Shape" fill="#000000"></path>
        <path d="M167.490543,485.775676 C174.392234,487.193707 179.183966,491.886619 178.193169,496.257625 C177.202372,500.628631 170.975774,503.057762 164.285667,501.683277 C157.595574,500.308721 152.803842,495.615809 153.583041,491.201329 C154.36224,486.78685 160.588838,484.357718 167.490543,485.775676 Z M174.810133,446.899932 C181.982223,448.373522 186.994392,453.111725 186.005117,457.483043 C185.015843,461.854362 178.568808,464.238203 171.605255,462.807539 C164.641717,461.3768 159.629548,456.638598 160.410269,452.224431 C161.190991,447.810264 167.638026,445.426423 174.810133,446.899932 Z M182.621985,408.125324 C190.340273,409.71114 195.793246,414.539908 194.801531,418.910725 C193.809816,423.281543 186.921978,425.574818 179.417105,424.032943 C171.91225,422.490981 166.459277,417.662213 167.237558,413.247545 C168.01584,408.832876 174.903678,406.539601 182.621985,408.125324 Z M190.926099,369.451857 C198.914879,371.093251 204.588281,375.967307 203.597988,380.338416 C202.607695,384.709526 195.499427,386.957513 187.721218,385.359483 C179.943028,383.761359 174.269625,378.887302 175.049328,374.472926 C175.829031,370.05855 182.937299,367.810563 190.926099,369.451857 Z M198.737952,330.677248 C207.272659,332.430813 213.386863,337.395435 212.394396,341.766097 C211.401929,346.13676 203.85286,348.294182 195.533067,346.584888 C187.213297,344.875486 181.099093,339.910864 181.876623,335.496041 C182.654152,331.081218 190.203221,328.923796 198.737952,330.677248 Z" id="Combined-Shape" fill="#000000" transform="translate(183.000000, 416.067556) rotate(270.000000) translate(-183.000000, -416.067556) "></path>
        <path d="M301.403335,343.713723 C305.050484,346.346806 304.828741,353.094714 300.908068,358.785603 C296.987375,364.476479 290.751909,367.101229 286.980755,364.64814 C283.2096,362.19505 283.431344,355.447143 287.476021,349.576259 C291.52072,343.70539 297.756186,341.08064 301.403335,343.713723 Z M268.662829,321.265898 C272.31087,323.897686 271.959941,330.833107 267.879019,336.756601 C263.798074,342.68008 257.433423,345.492343 253.663161,343.037959 C249.892899,340.583575 250.243827,333.648154 254.44697,327.547255 C258.650137,321.446372 265.014788,318.634109 268.662829,321.265898 Z M236.499261,297.980645 C240.145872,300.614509 239.536614,307.924896 235.138458,314.30886 C230.740276,320.692806 224.117294,323.880036 220.345602,321.427727 C216.57391,318.975419 217.183168,311.665032 221.706405,305.099512 C226.229669,298.53401 232.85265,295.346781 236.499261,297.980645 Z M204.335719,274.695355 C207.983163,277.32801 207.244724,284.825904 202.686382,291.442379 C198.128013,298.058836 191.375851,301.433572 187.604992,298.980054 C183.834133,296.526536 184.572572,289.028642 189.254328,282.233029 C193.936113,275.437437 200.688275,272.0627 204.335719,274.695355 Z M172.172148,251.410107 C175.818318,254.044611 174.821551,261.917469 169.945821,268.994638 C165.07006,276.071786 158.059569,279.821486 154.287436,277.369818 C150.515304,274.918149 151.512071,267.045291 156.513763,259.785286 C161.515487,252.525304 168.525978,248.775603 172.172148,251.410107 Z" id="Combined-Shape" fill="#000000"></path>
        <path d="M367.135766,284.956666 C369.525363,288.736859 366.789545,294.871412 361.025209,298.65867 C355.260746,302.445737 348.502827,302.548489 345.930911,298.888079 C343.358994,295.227668 346.094813,289.093114 352.041464,285.186068 C357.98825,281.279225 364.74617,281.176473 367.135766,284.956666 Z M345.238291,252.117625 C347.629199,255.896956 344.703446,262.156295 338.703506,266.098354 C332.703429,270.040206 325.755574,270.267745 323.184969,266.606472 C320.614365,262.9452 323.540118,256.68586 329.71975,252.625736 C335.899527,248.565832 342.847382,248.338294 345.238291,252.117625 Z M324.189061,218.721293 C326.577867,222.502006 323.272303,229.010877 316.805957,233.259385 C310.339452,237.507652 303.011787,237.984723 300.43908,234.324832 C297.866373,230.664941 301.171936,224.156069 307.822179,219.786733 C314.47259,215.417651 321.800255,214.940581 324.189061,218.721293 Z M303.139868,185.324937 C305.529899,189.104845 302.034406,195.738498 295.332552,200.141746 C288.630526,204.544735 281.112932,205.146588 278.54145,201.485892 C275.969968,197.825196 279.465461,191.191542 286.348852,186.669212 C293.232243,182.146882 300.749837,181.545029 303.139868,185.324937 Z M282.090634,151.928609 C284.478792,155.709747 280.603491,162.592931 273.434907,167.302631 C266.266322,172.01233 258.36892,172.863714 255.795565,169.204248 C253.22221,165.544783 257.097511,158.661599 264.451292,153.830226 C271.805073,148.998854 279.702475,148.14747 282.090634,151.928609 Z" id="Combined-Shape" fill="#000000"></path>
        <path d="M447.933038,256.9803 C448.631125,261.397057 443.791612,265.993581 437.123693,267.246985 C430.455751,268.500267 424.313449,265.967949 423.404465,261.590833 C422.495481,257.213718 427.334995,252.617194 434.21381,251.324145 C441.092648,250.031225 447.234951,252.563543 447.933038,256.9803 Z M440.840352,218.168664 C441.539957,222.585136 436.480736,227.222958 429.540279,228.527594 C422.599798,229.8321 416.237789,227.341079 415.330322,222.963678 C414.422856,218.586277 419.482076,213.948456 426.630394,212.604745 C433.778738,211.261172 440.140748,213.752193 440.840352,218.168664 Z M434.728869,179.172596 C435.426041,183.589525 429.927478,188.309928 422.447498,189.715987 C414.96749,191.121895 408.166138,188.713455 407.256239,184.336512 C406.34634,179.959568 411.844904,175.239165 419.537609,173.793116 C427.230344,172.347228 434.031696,174.755667 434.728869,179.172596 Z M428.617428,140.17652 C429.316018,144.593183 423.597755,149.354881 415.845347,150.812154 C408.092908,152.269263 401.071857,149.90212 400.163375,145.52491 C399.254893,141.1477 404.973156,136.386001 412.935456,134.889271 C420.897788,133.392714 427.918839,135.759857 428.617428,140.17652 Z M422.505939,101.180453 C423.202362,105.597523 417.04476,110.441803 408.752566,112.000548 C400.460337,113.559107 392.999946,111.274545 392.089298,106.897742 C391.17865,102.520939 397.336252,97.6766593 405.84267,96.0776418 C414.349125,94.4788208 421.809516,96.7633831 422.505939,101.180453 Z" id="Combined-Shape" fill="#000000"></path>
        <path d="M480.5,1.56755585 C744.215968,1.56755585 958,215.351588 958,479.067556 C958,742.783524 744.215968,956.567556 480.5,956.567556 C216.784032,956.567556 3,742.783524 3,479.067556 C3,215.351588 216.784032,1.56755585 480.5,1.56755585 Z M425.173613,45.0434941 L423.46535,45.2514993 C276.291551,64.4121927 152.094559,156.715066 88.5411808,284.493313 L88.4276763,284.438349 C95.9406664,287.993046 99.1738522,297.017093 95.6491989,304.594122 C83.6830197,330.318097 74.3212685,357.322653 67.7245758,385.343125 C65.8946396,393.116061 58.431456,398.056061 50.7342585,396.807472 L50.7222307,396.802926 C45.6529557,423.44708 43,450.947503 43,479.067556 C43,600.504727 92.4767329,710.385989 172.371718,789.652859 L172.378228,789.645143 C178.046341,783.745664 187.358466,783.404889 193.436409,788.970604 C214.508579,808.266883 237.634664,825.491432 262.609735,840.408983 C269.828599,844.720793 272.22681,854.138701 267.96629,861.444469 L267.912069,861.536034 C330.850811,896.59427 403.3429,916.567556 480.5,916.567556 C553.117622,916.567556 621.603009,898.875359 681.880864,867.566263 C681.569796,867.124132 681.28014,866.662755 681.012497,866.181113 C676.919307,858.815152 679.524697,849.498946 686.831798,845.372785 C711.649077,831.359007 735.131816,814.767749 756.993849,795.721268 C763.330644,790.200571 772.907278,790.903529 778.38386,797.291369 C778.737275,797.703589 779.064979,798.12941 779.367116,798.566843 C864.684165,718.736102 918,605.128119 918,479.067556 C918,454.547434 915.982828,430.498447 912.105375,407.077489 C911.379129,407.343328 910.630219,407.554105 909.855782,407.708042 C901.750783,409.319091 893.879481,404.102142 892.118773,396.020025 L892.053279,395.703697 C886.533393,367.584116 878.248342,339.935755 867.226168,313.071409 C864.032432,305.287317 867.714293,296.37178 875.449835,293.157999 C875.783828,293.019239 876.119918,292.893377 876.457557,292.780185 L876.469095,292.774398 C815.241089,162.860215 691.960568,67.9509463 544.847312,46.266374 C543.496896,54.1100278 536.383221,59.698741 528.421008,58.9292109 C499.847189,56.1676151 470.80686,56.0482008 441.608994,58.6328 C433.373766,59.3617836 426.098389,53.3064459 425.173613,45.0434941 Z" id="Combined-Shape" fill="#000000" fill-rule="nonzero"></path>
        <path d="M480.5,303.567556 C577.425974,303.567556 656,382.141582 656,479.067556 C656,575.993529 577.425974,654.567556 480.5,654.567556 C383.574026,654.567556 305,575.993529 305,479.067556 C305,382.141582 383.574026,303.567556 480.5,303.567556 Z M480.5,323.567556 C394.619721,323.567556 325,393.187277 325,479.067556 C325,564.947834 394.619721,634.567556 480.5,634.567556 C566.380279,634.567556 636,564.947834 636,479.067556 C636,393.187277 566.380279,323.567556 480.5,323.567556 Z" id="Oval" fill="#000000" fill-rule="nonzero"></path>
    </g>
</svg>