<?xml version="1.0" encoding="UTF-8"?>
<svg width="960px" height="960px" viewBox="0 0 960 960" version="1.1" xmlns="http://www.w3.org/2000/svg" xmlns:xlink="http://www.w3.org/1999/xlink">
    <!-- Generator: Sketch 60.1 (88133) - https://sketch.com -->
    <title>Shelly i3</title>
    <desc>Created with Sketch.</desc>
    <g id="Shelly-i3" stroke="none" stroke-width="1" fill="none" fill-rule="evenodd">
        <path d="M939,43 C949.930636,43 958.813225,51.7687286 959,62.6555106 L959,63 L959,787.498929 C959,792.272337 957.292949,796.883161 954.195692,800.502433 L953.901261,800.838809 L856.769124,909.339881 C853.073597,913.467955 847.836028,915.873253 842.309456,915.995138 L841.883786,916 L129.015923,916.567556 C123.820392,916.567556 118.833334,914.553927 115.104889,910.952474 L114.788415,910.639899 L6.78841498,801.571272 C3.1861468,797.933361 1.12019744,793.057061 1,787.950115 L1,787.498929 L1,63 C1,52.0693643 9.76872859,43.186775 20.6555106,43 L21,43 L939,43 Z M919,83 L41,83 L41,779.272 L137.335,876.56 L832.922,876.007 L919,779.854 L919,83 Z M218,203 C221.313708,203 224,205.686292 224,209 L224,386 C224,389.313708 221.313708,392 218,392 L189,392 C185.686292,392 183,389.313708 183,386 L183,209 C183,205.686292 185.686292,203 189,203 L218,203 Z M112.5,327 C126.583261,327 138,338.416739 138,352.5 C138,366.583261 126.583261,378 112.5,378 C98.4167389,378 87,366.583261 87,352.5 C87,338.416739 98.4167389,327 112.5,327 Z" id="Shape" fill="#000000"></path>
    </g>
</svg>