<?xml version="1.0" encoding="UTF-8"?>
<svg width="960px" height="960px" viewBox="0 0 960 960" version="1.1" xmlns="http://www.w3.org/2000/svg" xmlns:xlink="http://www.w3.org/1999/xlink">
    <!-- Generator: Sketch 60.1 (88133) - https://sketch.com -->
    <title>Shelly 3EM</title>
    <desc>Created with Sketch.</desc>
    <g id="Shelly-3EM" stroke="none" stroke-width="1" fill="none" fill-rule="evenodd">
        <path d="M638.618754,0.277691889 C676.847578,-2.43631995 712.724874,14.8758224 738.86647,46.4104391 C763.491993,76.1162161 778.032423,116.636804 779.458341,160.336479 C779.665247,166.677454 779.594343,172.996547 779.24914,179.272788 L779.31,178.055 L779.498919,186.536861 L779.796458,200.330264 L780.747265,201.154408 C808.487954,225.461845 826.091892,261.809762 828.535963,301.703621 L828.535963,301.703621 L828.6158,303.110778 C828.873176,308.040142 828.897251,312.954654 828.690283,317.839537 L828.736,316.6 L828.851402,319.828811 C833.756884,459.804392 834.319038,565.846746 830.500534,638.277567 L830.383481,640.462153 L830.244826,642.958568 C830.116312,645.182468 829.931899,647.699862 829.653249,651.059226 L829.653249,651.059226 L828.994319,658.657579 L829.023607,659.737506 C829.95734,704.132661 811.792829,745.583234 780.837872,771.877618 L780.837872,771.877618 L780.384961,772.257788 L780.445872,773.614614 L780.513304,775.417261 C783.706771,870.421685 729.423424,954.234641 653.312364,959.712271 C650.235057,959.933741 647.160754,960.020704 644.094065,959.973812 L644.094065,959.973812 L643.363309,959.956946 L643.266165,959.96391 C641.272035,960.062112 639.238982,959.961325 637.189981,959.644147 L637.189981,959.644147 L637.141271,959.635945 L636.429944,959.576703 C624.903606,958.556736 613.647926,955.64367 602.901502,950.970347 L602.901502,950.970347 L602.890384,950.964887 L284.09314,868.81837 L282.260927,868.348982 C214.588945,850.597877 165.102195,794.631022 162.099479,722.433 C161.876849,717.080013 161.901089,711.742573 162.169598,706.435538 L162.169598,706.435538 L162.130663,707.276681 L162.130467,668.762311 C162.130131,646.621659 177.561239,628.085999 198.252541,623.329739 L198.252541,623.329739 L198.557502,623.261914 L196.751752,305.750477 L196.616914,305.698179 C194.771096,304.979631 192.970539,304.180579 191.215669,303.298232 L191.215669,303.298232 L190.559735,302.963441 C178.288011,296.605898 169.184513,286.465561 164.270145,273.58371 L164.270145,273.58371 L164.034399,272.953678 C162.777464,269.580672 162.13376,266.009985 162.133691,262.41027 L162.133691,262.41027 L162.131669,205.777222 L162.000561,204.652543 C161.638541,201.421468 161.374123,198.16993 161.208217,194.901564 L161.208217,194.901564 L161.133477,193.265996 C157.815961,111.630208 216.731202,41.1182624 294.200023,36.6586963 C295.217653,36.6001607 324.317408,33.5990454 378.442703,27.9693179 L378.442703,27.9693179 L623.671086,2.37416214 L624.105483,2.28277829 C628.491348,1.37712563 632.925799,0.738496127 637.398104,0.37114843 L637.398104,0.37114843 Z M749.294752,161.321273 C746.802151,84.9312639 698.207402,26.3114012 640.755343,30.3901448 C636.589198,30.6859155 632.49088,31.3032616 628.468216,32.2266394 C628.305086,32.2436985 628.142015,32.2607513 627.979004,32.2777977 C580.62621,44.5963848 545.007585,102.832608 547.218283,170.660606 C547.282666,172.635983 547.378675,174.603808 547.506101,176.563217 C547.525287,176.858235 547.527022,177.152435 547.511823,177.444447 L547.496886,177.647222 L547.496886,789.215652 L547.528924,789.293429 C547.816928,790.04225 547.987372,790.842193 548.02358,791.666745 L548.030655,791.942471 C548.043856,793.716868 548.080284,795.494099 548.140031,797.273582 C550.095381,855.51096 576.512268,903.228149 612.00638,922.14406 L612.910479,922.373153 C621.879785,926.559388 631.378175,929.073252 641.207212,929.663164 L641.207212,929.663164 L641.743347,929.797928 L641.7463,929.693571 C644.849288,929.857382 647.984789,929.829455 651.146582,929.601905 C708.639934,925.464171 753.05513,856.887543 750.350698,776.431718 C750.248422,773.389054 750.080221,770.372975 749.847818,767.38624 C738.296258,773.803724 725.442367,777.800313 711.753127,778.77021 L711.753127,778.77021 L710.079238,778.873464 C708.881106,778.936415 707.686762,778.975713 706.496553,778.991726 L706.495234,779 L706.397406,778.993006 C699.321344,779.080537 692.391824,778.345089 685.681688,776.86394 L657.386653,773.953319 C657.254163,773.944325 657.121934,773.931816 656.990105,773.915803 C595.368793,766.430928 556.392366,728.796237 553.21616,667.832284 L553.197623,667.305919 C553.052929,661.803268 552.994323,625.384169 553.00043,564.178716 L553.037868,482.919397 L553.205911,315.835065 C553.205911,249.353388 592.7113,197.941323 648.307861,195.010404 L648.505274,195 L648.702824,195 L710,195.502427 L710.000452,196.266689 C724.205798,197.363563 737.678636,201.807831 749.791674,208.929188 C749.706812,204.877051 749.620483,200.805209 749.532707,196.715706 L749.532707,196.715706 L749.115061,177.614425 C749.40992,172.253512 749.474054,166.816258 749.294752,161.321273 Z M587.091491,36.5492583 L584.10659,36.8646714 C394.676004,56.6651608 298.618024,66.6426389 295.932648,66.7971058 L295.932648,66.7971058 L294.122878,66.9172586 C234.537597,71.4001265 188.645423,127.007108 191.288225,192.039873 C191.451366,196.054371 191.795681,200.011883 192.312217,203.903587 L192.312217,203.903587 L192.313342,262.40969 L192.466546,262.820815 C196.988992,274.675336 208.430157,280.602596 226.790044,280.602596 L226.790044,280.602596 L228.919915,655.303773 L227.283091,655.060277 L223.335343,654.452479 L211.699835,652.598636 L211.138852,652.511798 L210.659949,652.448028 C210.020334,652.372417 209.376686,652.334494 208.732341,652.334503 C199.662464,652.334631 192.309981,659.689406 192.310119,668.761852 L192.310119,668.761852 L192.310673,707.961388 C192.090318,712.316669 192.067893,716.726288 192.253048,721.178203 C194.866028,784.005335 239.642851,826.614511 291.621742,839.584564 L291.621742,839.584564 L575.998659,912.86553 C551.046761,885.873525 534.601384,844.654966 533.027514,797.779421 C533.00613,797.142518 532.987527,796.505864 532.971702,795.86948 L532.945437,794.608505 L532.864871,794.406713 C532.578731,793.651511 532.411958,792.845074 532.381465,792.014517 L532.376371,791.736808 L532.376371,177.076994 L532.378903,176.930591 L532.319771,175.948593 C532.259298,174.885629 532.207351,173.820592 532.163954,172.753599 L532.105276,171.151655 C530.274334,114.975213 552.474566,64.158094 587.091491,36.5492583 Z M790.495184,305.601713 C786.852901,250.629558 745.997301,208.718216 699.104692,211.181976 C652.163825,213.648273 615.803376,259.737603 618.069064,314.989166 L618.069064,314.989166 L618.073813,315.143623 L618.075396,315.298145 L618.075678,645.827388 C618.075679,646.149021 618.055103,646.470323 618.014077,646.789327 C617.130166,653.662343 616.864338,660.676978 617.234439,667.756812 C620.150485,723.53918 661.59901,766.322301 709.288682,763.816662 C756.498062,761.336258 793.078078,715.32082 790.894288,660.143184 C790.881489,659.819799 790.889521,659.495924 790.918333,659.173571 C791.605959,651.480448 791.984982,646.951969 792.194652,643.644227 L792.194652,643.644227 L792.383415,640.321602 C796.198444,570.021138 795.724304,465.764816 790.952187,327.61693 L790.952187,327.61693 L790.651523,319.028476 C790.644621,318.833875 790.645259,318.639078 790.653435,318.444526 C790.808929,314.744487 790.789906,311.01653 790.594133,307.271502 L790.594133,307.271502 Z M654.564228,210.088919 L648.918174,210.090871 L647.696106,210.167068 C602.035307,213.403591 568.928013,256.494499 568.263838,314.06811 L568.124607,434.312795 L568.052471,550.071426 C568.035114,620.232303 568.092061,663.0872 568.237834,666.918176 L568.243412,667.044874 C570.772263,715.58352 598.473773,746.434221 644.719919,756.56217 C620.496416,736.534006 604.078889,704.820082 602.182552,668.544188 C601.765132,660.559156 602.065347,652.637102 603.064827,644.865462 L603.025,645.18 L603.002826,645.362022 L603.002826,315.42991 L602.94509,313.717961 C601.75277,269.458256 622.596555,230.150703 654.564228,210.088919 Z M777.956302,631.808831 C778.481108,637.362551 774.21813,642.22669 768.434675,642.673188 L738.67251,644.970905 C732.889054,645.417403 728.111696,640.672113 728.001981,634.372003 C727.892267,628.071893 732.352755,622.852606 737.964759,622.714399 L766.844623,622.003176 C772.456628,621.864969 777.431496,626.25511 777.956302,631.808831 Z M738.572187,263.003387 L767.427813,263.79821 C773.035108,263.952662 777.764765,268.744016 777.991797,274.5 C778.21883,280.255984 773.705227,285.047338 767.910383,285.20179 L738.089617,285.996613 C732.294773,286.151065 727.78117,281.003856 728.008203,274.5 C728.235235,267.996144 732.964892,262.848935 738.572187,263.003387 Z M221.541394,136.189126 C229.247168,127.258547 238.528503,121.473981 246.404196,123.355025 C250.666357,124.373006 253.885523,126.773945 255.752434,130.428718 C257.054942,132.978585 257.517993,135.497346 257.766605,139.323771 C258.128481,144.893474 258.123332,152.477582 257.364548,159.932387 C256.121277,172.147137 253.178457,181.677971 247.327023,187.613953 C234.052009,201.080782 216.418327,197.921121 209.765577,181.058091 C206.911851,173.824621 207.673866,165.018 210.92755,155.612156 C213.452714,148.312339 217.467748,140.982637 221.212119,136.573778 L221.212119,136.573778 Z M270.04308,131.75201 C277.601329,122.417316 286.716025,116.366116 294.676984,118.390666 C298.920912,119.469939 302.085851,121.983307 303.876399,125.715602 C305.101195,128.26862 305.538097,130.799057 305.774729,134.676969 C306.124059,140.40177 306.11908,148.208643 305.386162,155.875671 C304.188263,168.40685 301.363879,178.146515 295.73261,184.22912 C282.691856,198.315069 265.121346,194.962831 258.672413,177.557776 C255.963302,170.246145 256.690508,161.297517 259.809059,151.698466 C262.244593,144.201774 266.121726,136.665427 269.737524,132.132231 L269.737524,132.132231 Z M319.018478,126.754401 C326.816027,116.783323 336.286634,110.265822 344.544605,112.407825 C348.864646,113.528384 352.062619,116.11868 353.860365,119.940778 C355.088146,122.551103 355.52909,125.155929 355.769086,129.167483 C356.1272,135.153378 356.122091,143.324406 355.370451,151.344235 C354.145927,164.409636 351.263283,174.548631 345.539222,180.854883 C332.215647,195.533591 314.248564,192.037267 307.690378,173.984039 C304.947335,166.43305 305.687185,157.147102 308.866706,147.165029 C311.358281,139.342752 315.326333,131.475714 319.018478,126.754401 Z M372.080068,121.43861 C380.150867,111.663909 389.877482,105.328654 398.141987,107.388867 C402.560152,108.490247 405.84956,111.050841 407.728492,114.889973 C409.031689,117.552734 409.500895,120.216565 409.755541,124.307228 L409.755541,124.307228 L409.792155,124.923545 C410.13341,130.951123 410.102722,138.97968 409.333651,146.865925 C408.038447,160.147261 404.983806,170.472795 398.951758,176.859551 C385.104725,191.520841 366.664091,188.072118 359.795404,169.900514 C356.882858,162.195164 357.668172,152.72246 361.037781,142.555595 C363.672866,134.604954 367.867179,126.613181 371.762351,121.826229 L371.762351,121.826229 Z M427.232152,118.443043 C435.797632,108.697857 446.106333,102.386856 454.537868,104.361679 C459.099159,105.430018 462.518931,107.931206 464.521303,111.775291 C465.943576,114.505723 466.457511,117.247156 466.734952,121.434649 C467.145961,127.638118 467.140104,136.097833 466.277811,144.405602 C464.875098,157.920061 461.556985,168.458343 455.058984,174.922643 C440.434992,189.470788 421.295865,186.107757 413.960134,167.873452 C410.782599,159.975108 411.638539,150.274472 415.300399,139.89356 C418.153095,131.806526 422.689357,123.685579 426.890471,118.83467 L426.890471,118.83467 Z M484.516017,113.618471 C493.499761,103.13137 504.396469,96.2857511 513.221791,98.3754872 C517.916524,99.4871466 521.414132,102.073332 523.455233,106.034766 C524.795633,108.636254 525.349266,111.265932 525.652118,115.097646 L525.652118,115.097646 L525.722917,116.081297 C526.15263,122.638245 526.1465,131.58916 525.244603,140.373841 C523.782653,154.61358 520.329209,165.702017 513.601345,172.468428 C498.424635,187.73209 478.607461,184.211707 471.019372,165.143159 C467.739754,156.901617 468.62767,146.728159 472.434441,135.818031 C475.410134,127.289752 480.143922,118.7222 484.516017,113.618471 Z M242.608117,138.224427 L242.531069,138.252936 C241.882314,138.501697 241.089458,138.909374 240.206997,139.468568 C237.762548,141.017554 235.031807,143.46729 232.634993,146.28945 C226.40817,153.621303 221.105819,168.949492 223.709379,175.548853 C226.311457,182.144459 230.857595,182.959051 236.654785,177.078095 C236.693776,177.038541 236.732633,176.998205 236.771353,176.957092 C235.405149,172.341554 234.372938,165.511878 235.444933,158.562172 C236.297507,153.034961 238.799534,147.967093 242.951015,143.35857 C242.917869,142.271164 242.8686,141.245476 242.806987,140.297176 L242.806987,140.297176 L242.78528,139.977778 C242.748561,139.461698 242.70902,139.025702 242.664982,138.652277 L242.664982,138.652277 L242.608117,138.224427 Z M290.612966,133.386356 L290.554878,133.413764 C290.041928,133.660213 289.446645,134.004656 288.795858,134.443751 C286.435904,136.036045 283.785758,138.567449 281.454919,141.489667 C275.319153,149.182196 270.099971,165.247088 272.729202,172.343131 C275.202309,179.017808 279.033513,179.916399 284.293023,174.500784 L284.293023,174.500784 L284.734623,174.034855 C285.26669,173.460145 285.773252,172.729776 286.250831,171.856936 C284.696887,167.308523 283.497598,161.03886 284.211075,154.574944 C284.803235,149.210129 287.056754,144.185184 290.971632,139.50011 C290.939096,138.100542 290.883814,136.787175 290.810833,135.591179 C290.753895,134.658083 290.686344,133.937752 290.615713,133.400625 L290.615713,133.400625 L290.612966,133.386356 Z M340.540445,127.32172 L340.356193,127.407951 C339.802667,127.67283 339.154582,128.051934 338.443917,128.541001 C335.99266,130.227912 333.243651,132.906165 330.82559,135.998249 C324.425844,144.181892 319.001796,161.210638 321.780475,168.859723 C324.409316,176.09634 328.479097,177.058558 334.00738,171.237245 L334.00738,171.237245 L334.441108,170.769898 C335.089542,170.055512 335.700609,169.123059 336.269157,167.993853 C334.719871,163.32251 333.499136,156.798313 334.205212,150.068242 C334.790811,144.486514 337.047581,139.264471 340.97552,134.402115 C340.942094,132.846127 340.883059,131.387156 340.803888,130.063811 C340.731589,128.855323 340.642004,127.970935 340.54545,127.352743 L340.54545,127.352743 L340.540445,127.32172 Z M394.454006,122.134004 L394.272658,122.195945 C393.5263,122.463069 392.57858,122.955594 391.511901,123.661075 C388.886433,125.39751 385.958774,128.138733 383.387693,131.29845 C376.622313,139.612729 370.900663,156.876228 373.817601,164.593197 C376.732935,172.305922 381.740364,173.2424 388.056088,166.555288 C388.502252,166.082888 388.931338,165.518715 389.341971,164.868445 C387.693996,159.954827 386.466272,153.329118 387.234528,146.504658 C387.903988,140.557807 390.484519,134.994287 394.976122,129.814099 C394.943164,128.169793 394.879396,126.630883 394.792807,125.239908 L394.792807,125.239908 L394.772978,124.934632 C394.685435,123.642733 394.577299,122.751224 394.463512,122.177596 L394.463512,122.177596 L394.454006,122.134004 Z M451.273424,119.006692 L451.190306,119.016135 C451.019468,119.038126 450.790036,119.087849 450.509684,119.17182 C449.588711,119.447667 448.419153,120.002632 447.107032,120.817997 C444.217709,122.61345 441.02037,125.426249 438.218909,128.661017 C430.916398,137.093023 424.759561,154.546878 427.866621,162.270044 C431.107909,170.32686 437.317322,171.417947 444.490288,164.282184 C444.558952,164.213876 444.627231,164.143735 444.695121,164.071776 C442.405502,158.823287 440.25036,150.425155 441.252117,141.71949 C442.073198,134.583972 445.568463,127.97322 451.737911,121.887232 C451.627642,120.453563 451.491441,119.555943 451.3548,119.060446 L451.3548,119.060446 L451.344382,119.025696 L451.273424,119.006692 Z M509.87494,113.004292 L509.741233,113.01832 C509.543577,113.043763 509.285182,113.100299 508.973953,113.19454 C507.977255,113.496344 506.722648,114.098198 505.320446,114.9791 C502.252511,116.906463 498.865139,119.919139 495.897513,123.383374 C488.123693,132.458079 481.595091,151.168921 484.947067,159.592294 C488.465,168.432711 495.264156,169.640534 502.974563,161.885952 C503.037845,161.822307 503.100813,161.757239 503.163463,161.69076 C500.573198,156.244706 498.152393,147.589575 499.287297,138.61941 C500.205332,131.363346 504.057035,124.630866 510.842405,118.421971 C510.818916,117.955668 510.792339,117.502597 510.763541,117.063175 C510.623368,114.924295 510.430408,113.710842 510.221301,113.124433 L510.221301,113.124433 L510.210556,113.097222 L510.102979,113.063337 L509.87494,113.004292 Z" id="Combined-Shape" fill="#000000" fill-rule="nonzero"></path>
    </g>
</svg>