<?xml version="1.0" encoding="UTF-8"?>
<svg width="960px" height="960px" viewBox="0 0 960 960" version="1.1" xmlns="http://www.w3.org/2000/svg" xmlns:xlink="http://www.w3.org/1999/xlink">
    <!-- Generator: Sketch 60.1 (88133) - https://sketch.com -->
    <title>Shelly gas</title>
    <desc>Created with Sketch.</desc>
    <g id="Shelly-gas" stroke="none" stroke-width="1" fill="none" fill-rule="evenodd">
        <path d="M715,1 C848.409904,1 956.812598,108.068595 958.967311,240.965014 L959,245 L959,715 C959,848.409904 851.931405,956.812598 719.034986,958.967311 L715,959 L245,959 C111.590096,959 3.18740192,851.931405 1.03268903,719.034986 L1,715 L1,245 C1,111.590096 108.068595,3.18740192 240.965014,1.03268903 L245,1 L715,1 Z M715,41 L245,41 C133.460572,41 42.8288114,130.516366 41.0273302,241.626487 L41,245 L41,715 C41,826.539428 130.516366,917.171189 241.626487,918.97267 L245,919 L715,919 C826.539428,919 917.171189,829.483634 918.97267,718.373513 L919,715 L919,245 C919,133.460572 829.483634,42.8288114 718.373513,41.0273302 L715,41 Z M701.4,60 C754.780322,60 804.833539,81.1707258 841.831407,118.168593 C878.459296,154.796482 899.575003,204.219919 900,256.999598 L900,258.6 L900,701.4 C900,754.780322 878.829274,804.833539 841.831407,841.831407 C805.203518,878.459296 755.780081,899.575003 703.000402,900 L701.4,900 L258.6,900 C205.219678,900 155.166461,878.829274 118.168593,841.831407 C81.5407044,805.203518 60.4249972,755.780081 60,703.000402 L60,701.4 L60,258.6 C60,205.219678 81.1707258,155.166461 118.168593,118.168593 C154.796482,81.5407044 204.219919,60.4249972 256.999598,60 L258.6,60 L701.4,60 Z M701.4,80 L258.6,80 C210.578529,80 165.595051,99.0264071 132.310729,132.310729 C99.3592503,165.262207 80.3819539,209.68003 80,257.160276 L80,258.6 L80,701.4 C80,749.421471 99.0264071,794.404949 132.310729,827.689271 C165.262207,860.64075 209.68003,879.618046 257.160276,880 L258.6,880 L701.4,880 C749.421471,880 794.404949,860.973593 827.689271,827.689271 C860.64075,794.737793 879.618046,750.31997 880,702.839724 L880,701.4 L880,258.6 C880,210.578529 860.973593,165.595051 827.689271,132.310729 C794.737793,99.3592503 750.31997,80.3819539 702.839724,80 L701.4,80 Z M483,250 C619.966618,250 731,361.033382 731,498 C731,634.966618 619.966618,746 483,746 C346.033382,746 235,634.966618 235,498 C235,361.033382 346.033382,250 483,250 Z M483,290 C368.124772,290 275,383.124772 275,498 C275,612.875228 368.124772,706 483,706 C597.875228,706 691,612.875228 691,498 C691,383.124772 597.875228,290 483,290 Z" id="Shape" fill="#000000" fill-rule="nonzero"></path>
    </g>
</svg>