<?xml version="1.0" encoding="UTF-8"?>
<svg width="960px" height="960px" viewBox="0 0 960 960" version="1.1" xmlns="http://www.w3.org/2000/svg" xmlns:xlink="http://www.w3.org/1999/xlink">
    <!-- Generator: Sketch 60.1 (88133) - https://sketch.com -->
    <title>Shelly Uni</title>
    <desc>Created with Sketch.</desc>
    <g id="Shelly-Uni" stroke="none" stroke-width="1" fill="none" fill-rule="evenodd">
        <path d="M385.699,0 L385.699,130 L395.3,130 L395.3,0 L417.699,0 L417.699,130 L427.3,130 L427.3,0 L449.699,0 L449.699,130 L459.3,130 L459.3,0 L481.699,0 L481.699,130 L492.3,130 L492.3,0 L514.699,0 L514.699,130 L524.3,130 L524.3,0 L546.699,0 L546.699,130 L556.3,130 L556.3,0 L578.699,0 L578.699,130 L588.3,130 L588.3,0 L610.699,0 L610.699,130 L634,130 C675.007143,130 708.327643,162.910428 708.989952,203.759738 L709,205 L709,789 C709,830.007143 676.089572,863.327643 635.240262,863.989952 L634,864 L629.739,864 L629.739,960 L589.739,960 L589.739,864 L577.699,864 L577.699,960 L537.699,960 L537.699,864 L437.739,864 L437.739,960 L397.739,960 L397.739,864 L385.699,864 L385.699,960 L345.699,960 L345.699,864 L340,864 C298.992857,864 265.672357,831.089572 265.010048,790.240262 L265,789 L265,205 C265,163.992857 297.910428,130.672357 338.759738,130.010048 L340,130 L363.3,130 L363.3,0 L385.699,0 Z M348,170 L340,170 C320.863333,170 305.313767,185.3582 305.004689,204.421211 L305,205 L305,789 C305,808.136667 320.3582,823.686233 339.421211,824 L340,824 L345.699,824 L345.699,801 L341,801 C338.238576,801 336,798.761424 336,796 L336,700 C336,697.238576 338.238576,695 341,695 L442,695 C444.761424,695 447,697.238576 447,700 L447,796 C447,798.761424 444.761424,801 442,801 L437.739,801 L437.739,824 L537.699,824 L537.699,801 L533,801 C530.238576,801 528,798.761424 528,796 L528,700 C528,697.238576 530.238576,695 533,695 L634,695 C636.761424,695 639,697.238576 639,700 L639,796 C639,798.761424 636.761424,801 634,801 L629.739,801 L629.739,824 L634,824 C653.136667,824 668.686233,808.6418 668.995311,789.578789 L669,789 L669,205 C669,185.863333 653.6418,170.313767 634.578789,170 L634,170 L622,170 L622,223 L348,223 L348,170 Z M397.739,801 L385.699,801 L385.699,824 L397.739,824 L397.739,801 Z M589.739,801 L577.699,801 L577.699,824 L589.739,824 L589.739,801 Z M503,712 C505.761424,712 508,714.238576 508,717 L508,774 C508,776.761424 505.761424,779 503,779 L471,779 C468.238576,779 466,776.761424 466,774 L466,717 C466,714.238576 468.238576,712 471,712 L503,712 Z M487,729 C479.268014,729 473,735.268014 473,743 C473,750.731986 479.268014,757 487,757 C494.731986,757 501,750.731986 501,743 C501,735.268014 494.731986,729 487,729 Z M570,248 C577.731987,248 584,254.268013 584,262 L584,338 C584,345.731987 577.731987,352 570,352 L340,352 C332.268013,352 326,345.731987 326,338 L326,262 C326,254.268013 332.268013,248 340,248 L570,248 Z" id="Shape" fill="#000000" fill-rule="nonzero"></path>
    </g>
</svg>