<?xml version="1.0" encoding="utf-8"?>
<!-- Generator: Adobe Illustrator 21.0.0, SVG Export Plug-In . SVG Version: 6.00 Build 0)  -->
<svg version="1.1" id="Layer_1" xmlns="http://www.w3.org/2000/svg" xmlns:xlink="http://www.w3.org/1999/xlink" x="0px" y="0px"
	 viewBox="0 0 1417.3 1004.4" style="enable-background:new 0 0 1417.3 1004.4;" xml:space="preserve">
<g>
	<path d="M663.8,486.2c-16-110.8-61.4-210.6-127.8-281c-32.4-34.3-68-59.8-105.9-75.8c-39.3-16.6-79.4-22-119.1-16.3
		c-39.7,5.7-76.5,22.3-109.6,49.4c-31.8,26-58.8,60.6-80.1,102.7c-43.7,86.4-59,194.9-43,305.7c16,110.8,61.4,210.6,127.8,281
		c32.4,34.3,68,59.8,105.9,75.8c29.3,12.3,58.9,18.5,88.5,18.5c10.2,0,20.4-0.7,30.5-2.2c39.7-5.7,76.5-22.3,109.6-49.4
		c31.8-26,58.8-60.6,80.1-102.7C664.6,705.6,679.9,597,663.8,486.2z M537,890c-32.2,26.3-68.1,42.5-106.6,48.1
		c-38.6,5.6-77.6,0.2-115.9-15.9c-37.1-15.6-72.1-40.6-103.9-74.4C145,778.2,100.2,679.6,84.3,570c-15.8-109.6-0.8-216.9,42.4-302.2
		c20.9-41.4,47.4-75.3,78.5-100.8c32.2-26.3,68.1-42.5,106.6-48.1c9.9-1.4,19.8-2.1,29.7-2.1c28.8,0,57.7,6,86.2,18
		c18.2,7.7,35.9,17.6,53,29.7c-64.4,34.7-116.8,94.1-147.8,167.5l-209.7,7.3c0,0,0,0,0,0c-0.2,0-0.4,0-0.6,0.1c0,0-0.1,0-0.1,0
		c-0.1,0-0.3,0.1-0.4,0.1c-0.1,0-0.1,0.1-0.2,0.1c-0.1,0.1-0.2,0.1-0.3,0.2c-0.1,0-0.1,0.1-0.2,0.1c-0.1,0.1-0.2,0.2-0.3,0.2
		c0,0-0.1,0.1-0.1,0.1c0,0,0,0,0,0.1c-0.1,0.1-0.2,0.2-0.2,0.3c0,0-0.1,0.1-0.1,0.1c-0.1,0.2-0.2,0.3-0.2,0.5c0,0,0,0,0,0
		c0,0,0,0,0,0c-14.9,44-22.9,91-24,139.7c0,0.9,0.3,1.7,1,2.3c0.6,0.5,1.3,0.8,2,0.8c0.1,0,0.2,0,0.3,0l35.5-3.2c0,0,0,0,0,0
		l166.9-15.4c-1.4,24.2-0.7,48.8,2.1,73.2l-162,26.6l-36.6,6l0,0c-0.6,0.1-1.2,0.4-1.6,0.8c-0.7,0.7-1,1.7-0.9,2.6
		c8.8,53.9,25.7,104.8,50.3,151.4c0.4,0.7,1,1.2,1.7,1.4c0,0,0,0,0.1,0c0.1,0,0.2,0.1,0.3,0.1c0,0,0.1,0,0.1,0c0.1,0,0.3,0,0.4,0
		c0.2,0,0.4,0,0.6-0.1c0,0,0,0,0,0l190.6-44.1c46.5,91.2,124,158.2,213.2,184.3C553.2,875.8,545.2,883.2,537,890z M126.6,345.3
		l205.5-7.2l4.9,118.2l-199.2,18.4L126.6,345.3z M131.7,475.3l-29.2,2.7c1.2-41.7,7.6-82,19.1-120.3L131.7,475.3z M147.1,584.1
		l10.4-1.8l152.1-26.7l31.2-5.5l5.3,127.7l-187.1,43.3L147.1,584.1z M151.9,709.8c-20-41-34.1-85.2-42.1-131.7l16.3,3.1l15,2.9
		L151.9,709.8z M320.1,547.6l-149.6,26.3l-26.6,4.7l-14.1-2.7l-6.6-1.3l20-3.3l164.4-27l17.5,2.4L320.1,547.6z M615.5,789.2
		c-14.4,28.5-31.5,53.5-50.9,74.6l0.3-1c-89.1-25.2-166.6-92.1-212.8-183.5l-5.4-131c0.5-0.5,0.7-1.3,0.7-2c0-1.5-1.2-2.7-2.6-2.9
		l-34.5-4.8c-2.8-24.5-3.5-49.3-2.1-73.6l32.1-3c1.6-0.1,2.8-1.5,2.7-3.1l-5.1-123.3c30.6-73,82.5-131.9,146.4-166.1l-2-3.7
		c17.1,12.3,33.6,26.8,49.3,43.5c35.6,37.8,65.1,84.2,87.2,136.3c-0.8,2.4-1.5,4.8-2.3,7.2c-0.6,2.2-1.4,2.9-3.1,2.8
		c-3.2-0.2-6.3-0.1-9.5-0.1c-3.5,0-7.1-0.1-10.5-0.3c-0.3,0-2-0.1-2-0.1s1.6-0.8,1.8-1c0.7-0.4,1.5-0.8,2.3-1.2
		c4.2-2.2,8.5-3.9,12.4-6.8c6.2-4.4,6-12.9-0.6-17c-2.1-1.3-4.2-2.1-6.5-2.5c-5.9-1.2-11.8-0.6-17.7-0.4c-4.9,0.2-9.3,2.1-12.9,5
		c-6.4,5.2-8.3,11.3-6.1,21.4c0.4,1.8,0,2.2-1.3,2.1c-4-0.1-8-0.1-12-0.2c-2.3,0-2.3-0.1-1.6-2.7c1.9-6.5,4-11.9,4.4-17.8
		c0.4-4.7-1.9-7.4-6.8-7.6c-5.5-0.2-9.9,1.5-13,5.2c-2.9,3.4-5.4,6.5-9.1,9.8c-0.3,0.3-1,0.8-1.1,0.7c-0.5-0.5-0.1-1,0-1.6
		c0.6-1.6,0.6-3.1,0.6-4.7c0-11,0.4-24.6,1-37.1c0.2-2.6,0.1-2.6-2.5-2.5c-4.9,0.2-9.6,0.5-14.4,0.6c-1.9,0-2.4,0.8-2.4,2.7
		c0,13.7,4.3,28.1,0.1,40.4c-2.2,6.5-4.4,13.9-6.6,21.2c-0.5,1.7-0.3,2.3,1.3,2.2c2.4,0,4.7,0,7.1,0.2c3.2,0.2,6-1,8.5-3.4
		c4.4-4.4,8.9-8.8,13.4-13c1-0.9,2-1.8,3-2.7c0.2-0.2,0.6-0.6,0.9-0.2c0.1,0.2,0.1,0.6,0.1,0.8c-0.2,0.8-0.5,1.5-0.7,2.3
		c-0.9,3.4-2.2,6.7-2.6,10.5c-0.3,3.4,0.6,5,3.2,6c1.3,0.5,2.5,0.4,3.8,0.5c30,0.8,60,1.6,89.9,2.4c14.1,37.8,24.5,78.1,30.5,120.1
		C673.7,596.6,658.7,703.9,615.5,789.2z M591,353.1c-0.5,1.8-1.2,2.1-2.6,2.2c-0.7,0-1.1,0-1.6-0.1c-4.3-0.4-5.5-3.1-4.2-8
		c0.9-3.3,2.3-6.2,2.6-9.1c0.2-2.2,1.3-2.9,3.4-2.7c0.8,0.1,1.5,0,2.2,0c1,0,2,0,3,0c2.4,0,2.4,0.1,1.9,2.3
		C594.5,342.4,592.5,347.4,591,353.1z"/>
	<path d="M481.7,308.1c-0.2,2.3-0.1,2.4,2.1,2.4c4.8-0.1,9.6-0.3,14.4-0.4c0.7,0,1.3,0,1.8-0.5c5-4.5,3.4-13.9-4.4-18
		c-3.7-2-7.5-2.8-11.2-3.1c-6.7-0.6-12.7,0-18.4,0.7c-5.2,0.6-9.9,1.8-13.4,4.8c-3.8,3.2-4.6,7.9-2.6,14.4
		c1.7,5.3,4.8,10.3,8.1,15.1c2.9,4.3,5.9,8.6,8.5,12.9c4.8,8.3-0.6,15.2-8.4,18.4c-4.7,1.9-9.5,2-14.5,1.2
		c-3.9-0.7-7.6-1.9-10.9-4.4c-5.2-4-4.3-10.5,0.7-13.6c2.4-1.5,5.1-2.2,8.2-2.1c2.5,0,5,0,7.4-0.4c3.3-0.5,5.6-2,6.6-5.1
		c0.2-0.7,0.6-1.5,0-2.3c-0.7-1-1.6-0.5-2.3-0.5c-7.7,0-15.4,0.1-22.8,0.1c-3.2,0-6.3,0.5-9.2,1.3c-5.8,1.7-10.7,4.6-12.2,12.1
		c0,0.1-0.3,0.2-0.4,0.3c0,1.5,0,2.9,0,4.4c1.2,1.7,1.4,3.8,2.6,5.6c3.1,4.6,7.8,7,12.7,8.9c10.9,4.2,22.2,5.4,33.6,4.3
		c6.8-0.7,13.3-2.5,19.3-6.2c9.2-5.8,14.5-14.5,8.2-25.4c-3.7-6.4-8.5-12.6-12.7-19c-1.9-2.9-4-5.8-5.2-8.9
		c-1.4-3.8-0.8-5.7,2.2-6.6c3.5-1,7.7-0.7,11.7-0.9c1.2-0.1,1.3,0.8,1.2,1.6C482.3,302,482,305,481.7,308.1z"/>
	<path d="M1397.6,381.5c-13.3-28.3-48.3-21.6-50.5-21.2l-93.6,15.8l-1.2-0.3l-6.9-112.1l-0.1-1.2l-1-2
		c-41.8-84.3-108.3-150.5-187.4-186.3c-6.6-3-14.1-4.2-21.6-3.6L873.3,84.5c-44.3-28-92.7-45.1-141.3-50.1c0.1-0.3,0.1-0.6,0.2-0.9
		c0.2-2.8-1.5-7.1-2-8.4l-0.3,0.1c-0.4-3.4-4.5-5.2-14.6-6.3c-7.8-0.9-18.1-1.2-28.9-1c-10.9,0.3-21.1,1.1-28.9,2.4
		c-9.5,1.6-13.6,3.5-14.2,6.5c-0.6,1.3-1,2.7-1.2,4.2c-0.2,1.4,0,2.8,0.7,3.9c-88.1,5.3-225.1,18.7-291.9,25.4
		c-6.7,0.4-13.6,1.1-20.6,2.1l-1.4,0.2c-48.1,6.9-93,26-133.3,56.6c-38.9,29.5-72,68.4-98.3,115.7c-26.3,47.1-44.6,100.2-54.4,157.8
		C32.6,452.3,32,514,41,576.2c9,62.2,27.1,121.3,53.7,175.5c25.7,52.4,58.3,98.1,96.9,135.9c38.7,37.9,81.4,65.8,127.1,83.1
		c34.2,13,69,19.5,103.7,19.5c13.4,0,26.8-1,40.1-2.9c0.2,0,0.4-0.1,0.6-0.1c0.5-0.1,0.9-0.1,1.3-0.2c4.9-0.7,10.1-1.6,15.5-2.8
		c57.5-10.3,252.1-46.5,349.6-79.5l0.7-0.2c42.1-12.7,81-34.7,115.7-65.3c24.3-4.5,125.2-23.2,138.4-30.1
		c42.5-22.3,79.2-49.7,109.1-81.7c32.4-34.6,56.9-74.7,72.9-119.1l0.4-1.2l-7.8-127.9l18-2.9c9-1.4,16.6-6.5,21.4-13.6
		c16.9-2.8,67.9-11.5,80.7-14c9.4-1.8,16.7-7.5,21.2-16.4C1406.9,418.7,1406,399.2,1397.6,381.5z M1240.9,385.3l30.6,7.5l-196,28.5
		c-0.7-4.8-1.5-9.5-2.3-14.3l167.7-22.9L1240.9,385.3z M1240.5,378.1l-168.4,23c-7.5-39.6-19.2-77.9-34.8-113.8l196.5-18.5
		L1240.5,378.1z M1036.4,82.6c5.5-0.5,10.9,0.4,15.6,2.6c75.7,34.3,139.5,97.4,180.1,177.9l-197.5,18.6
		c-22.2-49.6-51.8-94.5-87.6-132.1c-19.6-20.6-40.6-38.6-62.6-53.8L1036.4,82.6z M725.6,30.6c0,0.1,0.1,0.2,0.1,0.3
		c0,0.1,0.1,0.2,0.1,0.3c0,0,0,0,0,0c0,0.1,0.1,0.3,0.1,0.4c0,0,0,0,0,0c0,0.1,0.1,0.3,0.1,0.4c0,0,0,0,0,0.1v0
		c0,0.2,0.1,0.3,0.1,0.4c0,0-0.1,0-0.1,0.1c0,0,0,0,0,0c0,0,0,0,0,0c0,0,0,0-0.1,0c0,0-0.1,0-0.1,0c0,0,0,0,0,0c0,0,0,0,0,0
		c0,0,0,0,0,0c0,0-0.1,0-0.1,0.1c0,0,0,0-0.1,0c0,0,0,0-0.1,0c0,0,0,0,0,0c0,0,0,0-0.1,0c0,0,0,0-0.1,0c-0.1,0-0.1,0-0.2,0.1
		c0,0,0,0-0.1,0c-0.1,0-0.1,0.1-0.2,0.1c0,0,0,0-0.1,0c0,0-0.1,0-0.1,0c0,0,0,0,0,0c0,0-0.1,0-0.1,0c0,0,0,0-0.1,0
		c-0.1,0-0.2,0.1-0.3,0.1c0,0,0,0-0.1,0c-0.1,0-0.2,0.1-0.4,0.1c0,0,0,0,0,0c0,0-0.1,0-0.1,0c0,0,0,0,0,0c-0.1,0-0.2,0-0.3,0.1
		c0,0,0,0,0,0c-0.1,0-0.2,0.1-0.4,0.1c0,0,0,0,0,0h0c0,0-0.1,0-0.1,0c0,0,0,0,0,0c-3.5,0.7-10,1.4-22.4,1.2c5.7-0.4,11-1,15.4-1.8
		C720.1,32.4,723.3,31.6,725.6,30.6C725.6,30.6,725.6,30.6,725.6,30.6z M686.5,24.1c16.5-0.4,27.8,0.6,33.5,1.8
		c-5.7,1.4-16.9,3-33.4,3.4c-16.5,0.4-27.8-0.6-33.5-1.8C658.8,26.1,670,24.5,686.5,24.1z M551.2,945.3l-0.8,0.4
		c-17,9.2-35,16.6-53.6,21.9c-0.4,0.1-0.8,0.2-1.2,0.3c-1,0.3-2.1,0.6-3.1,0.9c-0.6,0.2-1.2,0.3-1.7,0.5c-0.9,0.2-1.7,0.4-2.6,0.7
		c-0.7,0.2-1.3,0.3-2,0.5c-0.8,0.2-1.7,0.4-2.5,0.6c-0.6,0.1-1.3,0.3-1.9,0.4c-1.4,0.3-2.8,0.6-4.3,0.9c-7.5,1.4-12.7,2.3-15.2,2.7
		l-0.2,0c-0.3,0.1-0.6,0.1-0.8,0.1c-0.3,0-0.5,0.1-0.7,0.1l-0.2,0c-46,6.6-92.3,1.2-137.6-15.9c-44.1-16.7-85.4-43.7-122.9-80.4
		c-37.6-36.8-69.4-81.4-94.5-132.6c-26-53.1-43.7-110.9-52.6-171.9c-8.8-61-8.2-121.5,1.7-179.7c9.6-56.2,27.5-108,53.1-154
		c25.6-45.8,57.6-83.5,95.1-112c38.7-29.4,81.7-47.6,127.7-54.3l3.9-0.4c3.6-0.4,9.6-1,17.5-1.8c51.4-3.3,101.7,8.4,148.3,32.1
		l3.1,1.6c7,3.7,13.9,7.6,20.7,11.8c0,0,0.1,0,0.1,0.1c1.2,0.7,2.4,1.5,3.5,2.2c0.5,0.3,1,0.6,1.4,0.9c0.7,0.4,1.4,0.9,2.1,1.3
		c0.8,0.5,1.7,1.1,2.5,1.6c0.3,0.2,0.6,0.4,0.9,0.6c87.3,58.1,157.6,159.8,190.3,283.7c0.2,0.8,0.4,1.6,0.6,2.4
		c0.2,0.7,0.3,1.4,0.5,2c0.4,1.4,0.7,2.8,1,4.1c0.1,0.3,0.2,0.7,0.2,1c0.4,1.8,0.9,3.5,1.3,5.3c0,0,0,0.1,0,0.1
		c3.3,13.8,6,27.7,8.3,41.7l0,0l0.9,6c0.3,1.8,0.6,3.6,0.8,5.4c0.4,3,0.8,6,1.2,8.9c0.1,0.7,0.2,1.4,0.3,2.1c0.4,2.9,0.7,5.8,1,8.7
		c0.1,1,0.2,2,0.3,2.9c0.3,2.6,0.5,5.2,0.8,7.7c0.1,1.3,0.2,2.6,0.3,3.9c0.2,1.9,0.3,3.8,0.5,5.7c0.1,0.9,0.1,1.9,0.2,2.8
		c0.1,0.8,0.1,1.7,0.2,2.5c0.1,1.8,0.2,3.6,0.3,5.4c0.1,2,0.2,4,0.3,6c0.1,1.6,0.1,3.2,0.2,4.9c0.1,1.9,0.1,3.7,0.2,5.6c0,0,0,0,0,0
		c0.2,8.1,0.3,16.3,0.2,24.4v0c-0.2,16.6-1.1,33.1-2.8,49.5l0,0c-1.7,16.9-4.2,33.7-7.4,50.4l0,0c-3.4,17.3-7.6,34.5-12.8,51.3l0,0
		c-5.5,17.9-12,35.5-19.5,52.6l0,0c-8.3,18.8-17.8,37-28.6,54.3l0,0c-12.7,20.4-27.2,39.7-43.6,57.2l-4.5,4.8
		c-22.5,23.3-47.5,42.4-74.3,56.9L551.2,945.3z M946,826.9c-1.4,0.2-2.7,0.5-4,0.7l-1.7,0.3l-1.3,1.1c-33.7,30-71.6,51.5-112.5,63.9
		l-1,0.3c-22.9,7.8-51.4,15.7-82.1,23.5c0.5-0.2,1-0.3,1.5-0.5c-13.2,1.8-26.4,3.8-39.6,5.9c-1.5,0.2-2.9,0.4-4.4,0.5
		c-3.8,0.4-7.6,0.8-11.5,1.2c-3.9,0.4-7.6,0.6-11.9,1.3l-6.3,0.9l-6.3,0.9l-12.6,1.7c-16.8,2.3-33.7,4.9-50.4,7.7
		c-6.1,1-12.2,2.1-18.2,3.1c19.2-13.1,37.2-28.6,53.9-46.4l128.3-22.7l32.6-5.8c1.9-0.3,3.9-0.7,5.8-1l2.7-0.5
		c2.6-0.5,5.2-0.9,7.8-1.3c2.1-0.3,4.2-0.7,6.3-1.2l10-1.8c10.9-1.9,21.7-3.9,32.6-5.7c5.3-1.8,10.6-3.7,15.8-5.6
		c5.3-1.9,10.5-4,15.7-6.1c-5.6-0.2-11.3-0.4-16.9-0.4c-5.6,0-11.2,0-16.8,0.2c-10.8,2-21.7,3.9-32.6,5.8l-10,1.8
		c-2.1,0.2-4.3,0.6-6.4,1c-2.6,0.5-5.2,1-7.8,1.5l-2.6,0.5c-2,0.3-3.9,0.7-5.9,1l-32.6,5.8l-65.2,11.5L666,876h0l-15.5,2.7
		c11.4-13.5,22.1-28.1,32-43.8l131.5-22.7l33.5-5.8c2-0.3,4-0.7,6-1l2.4-0.4c2.8-0.5,5.6-1,8.4-1.4c2.8-0.4,5.6-0.8,8.4-1.4
		c2.8-0.6,5.5-1.4,8.3-2c22.1-5.4,44.2-10.9,66.2-17c-22.7,1.7-45.4,3.9-68,6.2c-2.8,0.3-5.7,0.5-8.5,0.9c-2.8,0.3-5.6,0.9-8.4,1.5
		c-2.8,0.5-5.6,1-8.4,1.5l-2.3,0.4c-2,0.3-4.1,0.7-6.1,1l-33.5,5.8l-121.3,20.9c2.8-4.8,5.5-9.7,8.2-14.7c4.6-8.8,9-17.7,13.1-26.9
		l132.9-22.3l34-5.7c3-0.5,6.1-1,9.1-1.5c2.6-0.4,5.3-0.9,7.9-1.3c2.8-0.4,5.7-0.8,8.5-1.4c2.8-0.6,5.6-1.3,8.4-2
		c22.4-5.4,44.8-10.9,67.1-16.9c-23.1,1.6-46,3.7-69,5.9c-2.9,0.3-5.7,0.5-8.6,0.9c-2.9,0.4-5.7,1-8.5,1.5c-2.6,0.5-5.3,0.9-7.9,1.4
		c-3,0.5-6.1,1-9.1,1.5l-34,5.7l-125.3,21c5.4-13.1,10.3-26.5,14.6-40.2l133.6-21.8l34.3-5.6l13.5-2.2c1.2-0.2,2.5-0.4,3.7-0.6
		c2.9-0.4,5.8-0.7,8.6-1.3c2.8-0.6,5.7-1.3,8.5-1.9c22.6-5.4,45.2-10.8,67.8-16.7c-23.2,1.5-46.4,3.6-69.6,5.7
		c-2.9,0.3-5.8,0.5-8.7,0.9c-2.9,0.4-5.7,1-8.6,1.5c-1.2,0.2-2.4,0.4-3.7,0.6l-13.5,2.2l-34.3,5.6l-127.9,20.9
		c3.7-12.8,6.8-25.9,9.6-39.2l134-21.3l34.5-5.5l13-2.1c1.4-0.2,2.8-0.4,4.3-0.7c2.9-0.4,5.8-0.7,8.7-1.3c2.9-0.5,5.7-1.2,8.6-1.9
		c22.8-5.3,45.5-10.6,68.2-16.5c-23.4,1.4-46.7,3.4-70,5.4c-2.9,0.3-5.8,0.5-8.7,0.8c-2.9,0.4-5.7,1-8.6,1.5
		c-1.4,0.2-2.9,0.5-4.3,0.7l-13,2.1l-34.5,5.5l-129.7,20.6c2.3-12.7,4.1-25.5,5.5-38.4l134.3-20.7l34.7-5.4l17.4-2.7
		c2.9-0.4,5.8-0.7,8.7-1.2c2.9-0.5,5.7-1.2,8.6-1.9c22.9-5.2,45.8-10.5,68.6-16.3c-23.5,1.3-46.9,3.2-70.3,5.2
		c-2.9,0.3-5.9,0.4-8.8,0.8c-2.9,0.4-5.8,1-8.7,1.5l-17.4,2.7l-34.7,5.4l-131.2,20.3c1.1-12.5,1.8-25.1,2-37.8l134.2-20.1l34.8-5.2
		l17.4-2.6c2.9-0.4,5.8-0.7,8.7-1.2c2.9-0.5,5.8-1.2,8.6-1.8c23-5.1,45.9-10.3,68.8-16c-23.6,1.2-47,3-70.5,4.9
		c-2.9,0.2-5.9,0.4-8.8,0.8c-2.9,0.4-5.8,1-8.7,1.4l-17.4,2.6l-34.8,5.2l-132.3,19.8c0-1.7,0-3.3,0-5c0-0.2,0-0.4,0-0.6
		c0-3.4-0.1-6.8-0.2-10.3c0-0.7,0-1.5-0.1-2.2c-0.1-1.7-0.1-3.5-0.2-5.2c-0.1-2.2-0.2-4.3-0.3-6.5c-0.1-1.5-0.2-3.1-0.2-4.6
		c-0.1-1-0.1-1.9-0.2-2.9l134.1-19.5l34.9-5.1l17.5-2.5c2.9-0.4,5.8-0.7,8.7-1.1c2.9-0.5,5.8-1.2,8.7-1.8c23-5,46.1-10.1,69-15.7
		c-23.6,1.1-47.1,2.8-70.6,4.6c-2.9,0.2-5.9,0.4-8.8,0.8c-2.9,0.4-5.8,1-8.7,1.4l-17.4,2.6l-34.9,5.1L754.8,512
		c-0.1-0.8-0.1-1.6-0.2-2.3c-0.1-1.2-0.2-2.4-0.3-3.6c-0.2-2.7-0.5-5.5-0.8-8.2c-0.1-1-0.2-2-0.3-3c0-0.4-0.1-0.7-0.1-1.1
		c-0.3-2.6-0.6-5.2-0.9-7.8c-0.1-0.7-0.2-1.5-0.3-2.2c-0.4-2.9-0.7-5.7-1.2-8.6l133.8-18.9l35-4.9l17.5-2.5c2.6-0.4,5.2-0.6,7.8-1
		c0.3,0,0.6-0.1,0.9-0.1c2.9-0.3,5.8-0.9,8.7-1.6c23-4.9,46-9.8,68.9-15.3l0.7,2.6l-0.2-3l0-0.3l-0.3,0c-23.6,1.1-47.1,2.7-70.7,4.4
		c-2.9,0.2-5.9,0.4-8.8,0.9c-0.3,0.1-0.6,0.1-0.9,0.2c-2.6,0.3-5.2,0.9-7.8,1.2l-17.5,2.5l0,0l-35,4.9l-133.9,18.9
		c-0.3-2.1-0.7-4.2-1.1-6.2c0-0.1,0-0.2,0-0.2c-0.7-3.8-1.4-7.7-2.1-11.5c-0.1-0.3-0.1-0.6-0.2-0.9c-0.7-3.8-1.5-7.6-2.3-11.3
		c0-0.2-0.1-0.4-0.1-0.6c-0.4-1.8-0.8-3.7-1.2-5.5c0,0,0-0.1,0-0.1l133.4-18.2l35-4.8l17.5-2.4c2.9-0.4,5.9-0.6,8.8-1.1
		c2.9-0.4,5.8-1.1,8.7-1.7c23.1-4.8,46.2-9.7,69.2-15.1c-23.6,0.9-47.2,2.4-70.7,4c-2.9,0.2-5.9,0.3-8.8,0.7
		c-2.9,0.4-5.8,0.9-8.7,1.3l-17.5,2.4l-35,4.8l-134.5,18.4c-0.2-1-0.5-2-0.7-3c-0.6-2.5-1.3-4.9-1.9-7.4c-0.4-1.3-0.7-2.7-1.1-4
		c-0.5-1.7-1-3.5-1.4-5.2c-0.6-2-1.2-4-1.7-6.1c-0.4-1.5-0.9-2.9-1.3-4.4c-0.6-2-1.2-3.9-1.8-5.9l132.8-17.5l35-4.6l17.5-2.3
		c2.9-0.4,5.9-0.6,8.8-1c2.9-0.4,5.8-1.1,8.7-1.7c23.1-4.7,46.2-9.5,69.2-14.8c-23.6,0.8-47.1,2.2-70.7,3.7
		c-2.9,0.2-5.9,0.3-8.8,0.6c-2.9,0.3-5.8,0.9-8.7,1.3l-17.5,2.3l-35,4.6l-134.9,17.8c-0.5-1.5-1-3-1.5-4.5c-0.5-1.3-0.9-2.7-1.4-4
		c-0.5-1.5-1.1-3.1-1.6-4.6c-0.8-2.1-1.6-4.3-2.4-6.4c-0.6-1.5-1.1-3-1.7-4.5c-0.5-1.3-1-2.6-1.5-3.9c-0.9-2.3-1.8-4.6-2.8-6.9
		c-0.1-0.3-0.2-0.5-0.3-0.8l131.8-16.8l34.9-4.5l12.5-1.6c1.6-0.2,3.3-0.4,4.9-0.6c2.9-0.4,5.8-0.5,8.7-1c2.9-0.4,5.8-1.1,8.7-1.6
		c23.1-4.6,46.1-9.3,69.1-14.5c-23.6,0.7-47.1,2-70.5,3.3c-2.9,0.2-5.9,0.3-8.8,0.6c-2.9,0.3-5.8,0.9-8.7,1.2
		c-1.6,0.2-3.3,0.4-4.9,0.6l-12.5,1.6l-34.9,4.5l-135.2,17.3c-1.1-2.5-2.2-4.9-3.3-7.4c-0.2-0.4-0.4-0.8-0.6-1.3
		c-4.1-9-8.5-17.9-13.1-26.7L820.8,269l34.8-4.3l13.1-1.6c1.5-0.2,2.9-0.4,4.4-0.5c2.9-0.3,5.8-0.5,8.7-1c2.9-0.4,5.8-1.1,8.6-1.6
		c23-4.5,46-9,69-14.2c-23.5,0.6-46.9,1.8-70.4,3c-2.9,0.2-5.9,0.3-8.8,0.5c-2.9,0.3-5.8,0.8-8.7,1.2c-1.5,0.2-2.9,0.4-4.4,0.6
		l-13,1.6l-34.8,4.3l-135.3,16.7c-6.7-12-13.7-23.6-21.2-34.9l129-15.3l34.7-4.1l13.6-1.6c1.2-0.1,2.5-0.3,3.7-0.4
		c2.9-0.3,5.8-0.5,8.7-0.9c2.9-0.4,5.7-1,8.6-1.6c22.9-4.4,45.9-8.8,68.8-13.8c-23.4,0.5-46.7,1.6-70.1,2.7
		c-2.9,0.2-5.8,0.2-8.7,0.5c-2.9,0.2-5.8,0.8-8.7,1.1c-1.2,0.2-2.5,0.3-3.7,0.5l-13.7,1.6l-34.7,4.1l-135.2,16.1
		c-7.5-10.7-15.3-20.9-23.6-30.8c-0.4-0.5-0.9-1.1-1.3-1.6c-0.6-0.7-1.1-1.4-1.7-2l126.6-14.5l34.5-3.9c2.7-0.3,5.3-0.6,8-0.9
		c2.5-0.3,5-0.6,7.5-0.8c0.6-0.1,1.2-0.1,1.8-0.2c2.9-0.3,5.8-0.5,8.6-0.9c2.9-0.4,5.7-1,8.6-1.6c22.8-4.2,45.6-8.5,68.3-13.4
		c-23.2,0.4-46.4,1.4-69.6,2.4c-2.9,0.1-5.8,0.2-8.7,0.4c-2.9,0.2-5.7,0.7-8.6,1.1c-0.6,0.1-1.2,0.1-1.8,0.2c-2.5,0.3-5,0.6-7.5,0.9
		c-2.6,0.3-5.3,0.6-7.9,0.9l-34.5,3.9L619,182.2c-0.1-0.1-0.2-0.2-0.3-0.4c-2.1-2.3-4.2-4.6-6.3-6.8c-0.9-1-1.9-2-2.8-3
		c-0.4-0.4-0.8-0.8-1.2-1.2c-7.6-7.9-15.5-15.4-23.4-22.5l122.6-13.5l34.1-3.7l8.5-0.9c2.8-0.3,5.7-0.6,8.5-0.9c0.2,0,0.3,0,0.5,0
		c0.9-0.1,1.7-0.1,2.6-0.2c1.8-0.2,3.6-0.4,5.4-0.7c2.8-0.5,5.6-1,8.5-1.5c22.6-4.1,45.1-8.3,67.6-12.9c-23,0.3-45.9,1.1-68.8,2.1
		c-2.9,0.1-5.7,0.2-8.6,0.4c-1.8,0.1-3.6,0.3-5.4,0.5c-0.9,0.1-1.7,0.2-2.6,0.3c-0.2,0-0.4,0-0.5,0.1c-2.8,0.4-5.7,0.7-8.5,1
		l-8.5,0.9l-34.1,3.7l-133.8,14.7c-15.1-12.4-30.7-23.4-46.7-32.9l13.9-1.5c0.1,0,0.3,0,0.4,0c3.9-0.5,7.9-0.9,11.8-1.3l9.5-1
		c3.9-0.4,7.8-0.8,11.7-1.2l66.6-7l3.5-0.4l35.7-3.8c3.5-0.4,7.1-0.7,10.6-1c2.3-0.2,4.7-0.5,7-0.9l9.6-1l33.2-3.5
		c5.4-1.5,10.9-2.9,16.3-4.5l8.1-2.4c2.7-0.9,5.4-1.7,8.1-2.6c-2.8-0.3-5.7-0.5-8.5-0.8l-8.5-0.6c-5.6-0.4-11.3-0.7-16.9-1
		l-33.2,3.5l-9.6,1c-2.4,0.1-4.7,0.3-7,0.6c-3.5,0.5-7.1,0.9-10.6,1.3l-39.2,4.1l-7.8,0.8l-58.7,6.2c-3.9,0.4-7.9,0.8-11.8,1.2
		l-9.3,1c-4,0.4-8,0.8-11.9,1.2c-0.1,0-0.2,0.1-0.4,0.1l-30.9,3.3c-26.9-13.9-54.8-23.8-83.2-29.4c96.2-9.2,239.3-21.8,284.3-20.4
		l0.9,0.1l0.4,0c54.3,1.5,109.1,19,158.6,50.7l1.7,1.1l4.8-0.4c23.9,15.9,46.7,35,67.7,57.2c66.9,70.4,112,166.8,127.1,271.3
		C1093.2,585.2,1042.4,737.5,946,826.9z M1184.5,719.1c-28.9,30.9-64.6,57.6-105.9,79.2c-8.4,4.4-72.7,17.4-121.8,26.5
		c49.2-48.2,86-112.8,106.4-186.4l189.3-28.1C1237.1,650.8,1214.2,687.4,1184.5,719.1z M1064.9,632.2
		c10.6-40.4,16.4-83.4,16.6-127.8l165.1-26.4l7.7,126L1064.9,632.2z M1274.8,464.5l-28.7,4.6l0.2,3l-164.7,26.3
		c-0.2-23.4-1.8-47.2-5.2-71.1l206-29.9c4.5,3.5,7.4,8.9,7.7,14.8l1.5,31.7C1292,454,1284.8,462.9,1274.8,464.5z M1394.6,429.7
		c-3.6,7.1-9.5,11.7-17,13.2c-11.7,2.3-56,9.8-76.1,13.2c1.5-4,2.2-8.3,2-12.8l-1.5-31.7c-0.7-14.1-10.7-26.2-24.3-29.6l-9.5-2.3
		l79.9-13.5l0.2,0c0.3-0.1,32.2-6.9,43.8,17.9C1399.8,400.1,1400.7,417.6,1394.6,429.7z"/>
	<ellipse transform="matrix(0.9897 -0.1431 0.1431 0.9897 -66.718 67.9404)" cx="438.8" cy="497.7" rx="46.8" ry="64.9"/>
</g>
</svg>
