<svg height="960" viewBox="0 0 960 960" width="960" xmlns="http://www.w3.org/2000/svg"><path d="m474.452475 117.359543c2.533915 0 5.067464.054413 7.598897.163192l1.898151.091777 307.505735 16.523218c92.989298 4.996597 166.02943 81.135529 167.480933 173.928094l.022019 2.816937v347.44121c0 90.954258-68.893197 166.939177-159.08718 176.091609l-2.739622.256836-307.505735 26.458104c-32.042002 2.756926-63.620851-3.187234-91.906509-16.821494l-.931297-.452266-.616867-.30476-.375549-.107242c-1.331365-.397397-2.658944-.868761-3.97855-1.416714l-.790773-.337983-.788659-.356491-151.316826-70.282081c-29.52032-13.711295-52.990569-37.086107-66.928488-65.741835l-.41944-.869967-.034715-.071687-.900984-.49701c-19.8493-11.045022-37.553737-25.83603-53.001865-44.159148l-.810975-.967634-.806805-.974151-.81651-.997985-.732015-.907916-.60303-.762032-.60983-.783043-.616691-.804122-.623613-.825272-.630597-.846493-.637641-.867783-.644746-.889144-.651912-.910574-.659139-.932076-1.002392-1.43858-.677472-.986134-.684913-1.007881-1.041453-1.552748-1.058536-1.602072-1.075824-1.651632-1.093319-1.701429-1.485327-2.346443-1.1349388-1.818543-1.1531183-1.869128-1.1715037-1.919951-1.5909597-2.639401-1.2152025-2.039458-1.2342734-2.091069-1.2535497-2.142918-1.2730318-2.195003-1.7280366-3.0081-.8772957-1.539106-1.3327118-2.352678-1.3530163-2.405709-1.835962-3.290515-1.8729121-3.385776-1.4292257-2.602184-1.9387474-3.553832-1.4399327-2.656353c-3.0612404-5.657556-4.7113574-11.96708-4.8146435-18.392604l-.0051675-.64292-.0001818-51.75645-.4260888-.16067c-14.678473-5.6659-25.1131081-19.714309-25.5807955-36.182369l-.0111157-.499766-.0006312-12.791652-21.6050426.000734c-15.00334397 0-27.16595741-12.162614-27.16595741-27.165958s12.16261344-27.165957 27.16595741-27.165957l23.231461-.000498c3.4976787-11.87024 12.3499547-21.422716 23.7238379-25.904106l.4501963-.174228.2181786-.08153.0001818-50.617744c.0000136-6.621716 1.6438096-13.132969 4.7750082-18.952498l.3076573-.561001.3169123-.556565 2.3048354-3.960485 1.1582412-1.977157 1.7205291-2.920182 1.7004665-2.865647 1.1225744-1.880207 1.6673705-2.775081 1.6477179-2.720937 1.6282191-2.666938 1.0747226-1.748032 1.0661703-1.724141 1.5833197-2.54151 1.044989-1.664603 1.5517612-2.452406 1.0240924-1.605335 1.0158134-1.581704 1.5082967-2.328343 1.489926-2.275416.983153-1.487613 1.459648-2.18753 1.441687-2.134994.951222-1.394214 1.412093-2.047758.931635-1.336192.92388-1.313059.91617-1.28997.908507-1.266923.900888-1.24392.893315-1.220961.885788-1.198044.878307-1.175171.87087-1.152341.863479-1.129555.856135-1.106811.848835-1.084112.841581-1.061455 1.24887-1.549796.206579-.253363.206134-.251955.820092-.993745.813021-.971262.805995-.948822c13.005799-15.195641 29.439228-28.880149 49.251876-41.249843l1.125079-.698769 1.03773-.637598c4.453405-2.736245 9.39807-4.572034 14.553705-5.405853l.645533-.099001 6.822388-.989438.633489-.726434c22.023696-25.09133 51.532188-42.900344 84.76751-50.446671l1.008268-.225532 1.356185-.29247 1.820548-.373161 123.527609-24.395108c1.750433-.345674 3.491939-.572105 5.217038-.685551l.738302-.041721.416051-.016352.879193-.301642c17.458197-5.9428 35.856497-9.141336 54.653418-9.396359l1.226446-.012456zm-2.04251 50.213058-.202356.00173c-68.479782 1.110296-123.783912 56.4213-124.883147 124.90377l-.016676 2.079216v390.151767c0 3.633199.155907 7.264724.467291 10.884555 5.672524 65.942969 60.775609 115.764817 125.688033 116.120962.950812-.051532 1.902025-.111963 2.853844-.182469l1.428211-.113464 315-26.747299c15.734617-1.336059 30.597191-5.502563 44.103743-11.972696 42.340369-20.4155 71.278008-63.493919 71.852527-112.932778l.008712-1.500077v-347.194549c0-56.665152-37.211766-105.020301-89.036072-121.219582-9.491416-2.94231-19.471079-4.806347-29.799891-5.446298l-1.149076-.06606-315-16.703823c-.438281-.023241-.876669-.04421-1.315143-.062905zm-99.646976 20.693961-85.573887 16.550205-1.619158.324725c-50.472119 10.503224-86.835751 54.668113-87.557976 106.128334l-.010954 1.561606v332.373102l.009595 1.116707c.40392 34.540065 20.547828 65.784183 51.78749 80.428712l.950044.438679 108.889584 49.521864c-17.651526-21.959584-29.192904-49.222486-31.789061-79.402754-.315368-3.666147-.492954-7.342659-.532422-11.021763l-.008458-1.576895v-390.151767c0-41.800028 17.446632-79.525177 45.455203-106.290755zm-260.745497 383.58608.00069 3.558726.910189 1.680687 1.793122 3.29351 2.190293 3.989641 1.286918 2.325919.846588 1.522336 1.665918 2.976807 2.031289 3.593763 1.584145 2.773212 1.929072 3.339269 1.130185 1.935697 1.109742 1.884798.728471 1.228255 1.075669 1.799967.705756 1.171701 1.384253 2.275537 1.34791 2.18505.660326 1.058593.973452 1.545474.95301 1.494575.623982.968106.918936 1.409745.601268.911552.884864 1.324913.864421 1.274014.564923.821066.555838.798444.81672 1.155251.533122.74189.524037.719269.51495.696647.75539 1.002555.734946.951656.478607.606161.467172.580648.734081.897537c9.802245 11.905748 20.613925 21.883975 32.435039 29.934681-.7495-4.7759-1.188002-9.635633-1.300105-14.553065l-.021217-1.230545-.01045-1.233539.000304-68.740229c-.748072.12176-1.521894.15982-2.310718.104833l-61.123404-4.260755-.27896-.023297c-.789543-.076883-1.549663-.244254-2.270744-.491055zm448.685843 25.019113v51.572567l-108.450748 5.674414v-52.403496zm267.450573-13.520896v49.113551l-108.450748 6.820503v-50.180977zm-716.136539-76.816316.000188 46.395077c1.229435-.422269 2.56202-.610296 3.940413-.514211l61.123404 4.260755.27896.023297c.215923.021026.429646.048819.640971.083154l-.000936-47.364072zm-26.0180002-65.251v44.095l91.7876312 4.012537v-45.258zm26.0187512-77.303046-.000751 58.100046 65.983 2.049.000584-59.740695c-.436199.070826-.881864.113433-1.335061.125888l-.279905.003842h-61.123404l-.279905-.003842c-1.035165-.028449-2.031034-.214212-2.964558-.534239zm503.370126-85.223496 50.549077.261799v108.720071l-50.549077.687785zm-418.071772-34.109333-1.367145.200678-1.03773.637599c-16.538892 10.21878-29.967876 21.263535-40.286951 33.134263l-.640892.742996-.674924.794999-.683899.818357-.172378.208238-.172938.209699-.697363.853393-.706338.876751-.177987.222837-.178548.224297-.719802.911788-.728777.935145-1.109996 1.446513-.751217.993539-1.143654 1.534104-.773656 1.051934-1.177312 1.621696-.796095 1.110327-.805071 1.133686-.814046 1.157043-1.237898 1.77936-1.258094 1.831915-.849948 1.250474-.858925 1.273831-.8679 1.29719-.876875 1.320546-1.332143 2.024617-.899314 1.378941-1.365802 2.112207-1.385996 2.164762-1.406192 2.217317-1.426387 2.269872-1.446582 2.322427-1.466777 2.374981-.989071 1.612518-.998047 1.635876-1.513899 2.497609-2.049948 3.411898-1.561021 2.620237-1.581217 2.672792-1.065364 1.811058-1.614875 2.760384-1.629298 2.802976-.000062 2.145321c1.017383-.348776 2.108816-.538081 3.244463-.538081h61.123404l.279905.003842c.453197.012455.898862.055062 1.335061.125888l.000061-31.816671c0-24.799769 7.007197-48.22575 19.31546-68.183969z"/></svg>