<svg height="960" viewBox="0 0 960 960" width="960" xmlns="http://www.w3.org/2000/svg"><path d="m382.465298 9.52263271c145.812191 0 265.858776 26.71132769 346.155758 84.30810739.959154.6879985 1.955376 1.4329677 2.985163 2.231745l1.040846.8165963c.525888.417149 1.059875.8474866 1.601524 1.2906174l1.093385.903202 1.113037.9366142 1.131913.969324c.190181.164241.381117.329816.572791.496709l1.158766 1.017071c.38912.344221.781062.693602 1.175696 1.048024l1.191847 1.078274 1.20722 1.107821 1.221815 1.136665c.204809.191809.410193.38479.616137.57893l1.242249 1.178614 1.254898 1.205702 1.266769 1.232087c.212074.207508.42461.416085.637593.625719l1.283116 1.270346 1.142204 1.143153c8.021304 8.068258 16.572874 17.514526 24.825722 27.590184 22.325759 27.256856 41.619386 57.658902 55.41329 89.745771 14.217392 33.07197 24.198979 71.065889 30.595475 111.939876 4.258802 27.213993 6.718443 54.587593 7.534489 78.748798l.09526 3.066698c.071963 2.540607.125399 5.043234.160497 7.503822l.03785 2.824711.066515 6.230314.057887 8.537029.045068 12.785418v24.550295l-.014045 12.172148-.044763 11.504303-.066037 8.297635-.059205 5.064415-.046531 3.174156c-.033953 1.981793-.079666 3.989972-.137236 6.022457l-.09526 3.066699c-.816046 24.161205-3.275687 51.534804-7.534489 78.748798-6.396496 40.873986-16.378083 78.867905-30.595475 111.939876-13.793904 32.086868-33.087531 62.488914-55.41329 89.74577l-1.180921 1.435018-1.184448 1.425969-1.782111 2.120927c-.198319.234407-.396729.468385-.595218.701927l-1.191807 1.395914-1.193186 1.384927-1.194028 1.373453-1.194332 1.361495-1.1941 1.349052-1.19333 1.336123-1.192024 1.32271-1.19018 1.308812c-.19818.216951-.396261.433301-.594231.649043l-1.186408 1.287055-1.183221 1.271944-1.767682 1.878523-1.172906 1.232045-1.167839 1.215237-1.162236 1.197944-1.156096 1.180165-1.149418 1.161901-1.142204 1.143153-1.134452 1.12392c-.188399.18569-.376454.370559-.564151.554596l-1.121818 1.09416c-.186227.18067-.372074.360488-.557532.539443l-1.107975 1.06331-1.098075 1.042135-1.087638 1.020478-1.076664.998333-1.065152.975705-1.053105.952592-1.040519.928993-1.027396.904909c-.17011.148784-.33965.296545-.50861.443272l-1.006706.867874c-.166594.142551-.332585.284048-.497962.424482l-.984807.829748-.969536.803725c-.160287.131758-.319915.262412-.478874.391951l-.945623.76378-.929009.736544c-.153421.12046-.306127.239766-.458107.357906l-.903082.69478-.885126.666331c-.145995.108658-.291219.21611-.435662.322346l-.857184.622748c-80.296982 57.59678-200.343567 84.308108-346.155758 84.308108-96.714624 0-169.589083-21.411722-219.522803-66.998398-50.337927-45.955694-74.0867016-113.374023-74.0867016-201.337957v-403.32729c0-87.963935 23.7487746-155.382263 74.0867016-201.337958 49.93372-45.5866754 122.808179-66.99839729 219.522803-66.99839729zm0 39.99999999c-175.330354 0-253.609505 74.6593073-253.609505 228.3363553v403.32729l.023503 4.58661c1.551785 150.576158 80.008951 223.749745 253.586002 223.749745 127.038259 0 245.597256-21.404053 322.841467-76.81109 14.462372-10.373815 62.64343-57.862109 89.742071-120.897963 25.966258-60.401746 33.531172-134.65558 34.92333-177.025838l.081374-2.688874c.012176-.440621.023668-.877442.034492-1.310406l.057049-2.551046.041745-2.45575.049492-3.816386.040764-3.859479c.006114-.646936.011899-1.29574.017374-1.946451l.029261-3.927429.02265-3.974936.016885-4.02421.026828-8.203304v-33.013676l-.026828-8.203305-.016885-4.02421-.036401-5.944478-.032884-3.904338-.040764-3.859478-.049492-3.816387-.041745-2.455749-.057049-2.551046c-.010824-.432964-.022316-.869786-.034492-1.310407l-.081374-2.688873c-1.392158-42.370259-8.957072-116.624093-34.92333-177.025839-27.098641-63.035854-75.279699-110.524147-89.742071-120.897962-77.244211-55.407038-195.803208-76.8110903-322.841467-76.8110903zm136.268628 53.4455813c168.396762 0 303.97188 167.290634 303.97188 372.741652s-135.575118 372.741652-303.97188 372.741652c-168.396763 0-303.971881-167.290634-303.971881-372.741652s135.575118-372.741652 303.971881-372.741652zm0 20c-156.315611 0-283.971881 157.519305-283.971881 352.741652s127.65627 352.741652 283.971881 352.741652c156.31561 0 283.97188-157.519305 283.97188-352.741652s-127.65627-352.741652-283.97188-352.741652zm27.205624 602.126538c5.425785 0 9.824253 4.736812 9.824253 10.579965s-4.398468 10.579965-9.824253 10.579965-9.824253-4.736812-9.824253-10.579965 4.398468-10.579965 9.824253-10.579965z"/></svg>