<svg height="960" viewBox="0 0 960 960" width="960" xmlns="http://www.w3.org/2000/svg"><path d="m576.626565 42.8430656c20.587712 0 37.812966 15.6271974 39.811153 36.1177105l2.119759 21.7372899 219.918.000303c22.09139 0 40 17.90861 40 40s-17.90861 40-40 40l-212.117-.000303 14.156 145.167 94.64145.000561c22.09139 0 40 17.90861 40 40s-17.90861 40-40 40l-86.84045-.000561 26.754597 274.354645c29.981448-32.710621 73.060609-53.219711 120.929926-53.219711 90.574699 0 164 73.425301 164 164s-73.425301 164-164 164c-41.637666 0-79.651168-15.51689-108.573357-41.083522-4.750086 1.987745-9.965971 3.085102-15.438192 3.083522l-543.524523-.156934c-22.091389-.006381-39.9948277-17.920161-39.9884508-40.01155.0063802-22.091389 17.9201608-39.994827 40.0115498-39.98845l150.74145.043 42.032-431.021-84.245415.000561c-22.09139 0-40-17.90861-40-40s17.90861-40 40-40l92.047415-.000561 14.156-145.167-213.506663.000303c-22.09139 0-40-17.90861-40-40s17.90861-40 40-40l221.307663-.000303 2.120898-21.7372899c1.998187-20.4905131 19.223441-36.1177105 39.811152-36.1177105zm219.373435 664.1569344c-46.391919 0-84 37.608081-84 84s37.608081 84 84 84 84-37.608081 84-84-37.608081-84-84-84zm-427.063523 34.233066-9.33 95.676 200.647.058zm216.079-160.232-208.895002 119.098647 231.821002 116.001353zm-185.239-156.02-22.261 228.278 198.912434-113.405663zm154.492-159.28-149.977 112.98-.139 1.431 172.192 111.974zm-129.949-92.397-14.757 151.327 132.267328-99.639063zm116.018049-50.461h-111.096959l-.83509 8.561 117.82 51.823z"/></svg>