<svg height="960" viewBox="0 0 960 960" width="960" xmlns="http://www.w3.org/2000/svg"><path d="m951.22136 122.254982-43.266764 159.01338c24.439599 21.31508 35.417571 56.934426 21.622838 90.702113l-3.951082 9.671725c-5.359391 17.705614-9.734135 32.640824-13.124847 44.788807-2.702227 9.681332-6.381641 22.682811-11.054405 39.060963l-.533236 1.868558c-1.433285 5.021306-2.957156 10.350542-4.572055 15.989262-5.960645 37.137587-10.099401 71.251467-12.47978 102.375938-.016734.21881-.037051.483583-.060303.78598l-.056994.740361c-.286525 3.718462-.842927 10.895212-.918453 11.87529-.425112 5.516538-.760658 9.974069-1.083687 14.437772-1.328532 18.358054-2.272931 34.662629-2.9156 51.850927-.470059 12.571822-.878136 34.055228-1.206656 64.203233l9.913229 84.226942c.127766 1.085552.233271 2.173609.316447 3.263485l1.410121 18.477021c3.483916 45.650256-31.98201 84.907617-77.750453 86.062256l-696.713528 17.576572c-41.2426458 1.040463-76.5129949-29.452557-81.4440816-70.412571-3.4630303-28.765621-7.0779145-53.457587-10.8080452-73.973826-8.0496292-44.274081-14.0219364-93.502535-15.81760295-138.879685-.45333183-11.455861-.68585409-25.829417-.69832827-41.618327l-.00022087-2.378764c.00595545-9.954181.09785231-20.431893.27550466-31.066352l.04231761-2.44548c.0073043-.407985.01473429-.816158.02228994-1.224499l.04684186-2.451899c.03223315-1.635723.06647667-3.273476.10272988-4.911942l.05588701-2.458067c.04782843-2.04856.09879649-4.097204.15290289-6.143358l.06643398-2.454026c.10191032-3.678752.21398714-7.346104.33622284-10.98705 1.6220912-48.31606 4.62624722-86.220408 9.78595452-109.918752 2.0353513-9.348293 3.790354-16.980384 5.31052-23.051793 3.272183-13.068812 8.5022882-24.602176 15.5344605-36.947189 4.1104224-7.215867 8.4002516-13.912584 13.6081697-21.569102 5.4527566-8.016471 12.7997979-17.78617 22.3213783-29.787127 4.1130451-5.184063 8.8534213-9.837764 14.1124941-13.854455 158.9146921-121.37333 289.5799931-198.888714 394.9758511-232.5822799 102.518288-32.7736473 231.600553-52.1449345 387.853018-58.7858538 54.098486-2.2992512 94.806869 48.6840583 80.59051 100.9318127zm-471.031903 652.588995c-82.516242 5.382485-207.938653 12.366442-376.294745 20.953901 3.082131 18.708417 6.043482 39.859605 8.883856 63.453135l696.713527-17.576572-1.410121-18.477022-8.540679-72.547325c-133.057715 10.921003-239.502951 18.985388-319.351838 24.193883zm331.122342-263.206647-3.252635.202687c-171.911705 10.714976-302.561206 19.371488-391.928881 25.967912l-5.589384.413877c-.922416.068523-1.840257.136818-2.753525.204884-91.301943 6.804798-198.09433 15.890112-320.3712206 27.255805-.2608568.024247-.5207733.041661-.7795722.05239-.8522063 33.795772-.7787351 66.693099.0272767 87.061312 1.5991429 40.410927 6.7858014 81.344681 12.0711004 113.22675 170.0566867-8.666711 296.5656397-15.705476 379.5017667-21.11535 79.783112-5.204205 186.281143-13.273935 319.477886-24.20846.320963-26.596625.710146-46.020281 1.168243-58.272182 1.26967-33.957588 3.580262-61.46455 5.212118-82.801759 1.64251-21.476527 4.048119-44.13915 7.216827-67.987866zm37.102524-151.051533-504.07184 24.642111c-.424622.55895-.867473 1.109171-1.328315 1.650196-5.013025 5.885245-11.837615 10.399784-20.331474 13.975432-14.036916 5.909101-33.799273 9.665023-59.813747 11.694899-41.548197 3.241953-64.50616 3.241953-78.163943 1.062585-1.930228-.308006-3.067324-.536136-5.242134-1.010669-.135064-.029471-.244789-.053244-.332693-.072152-10.180528-.675713-20.145744-8.110908-26.18834-18.290627l-31.815709 1.955349c-1.342885 1.858553-2.546175 3.569735-3.60987 5.133546-6.229777 9.158822-15.190175 22.983915-17.686343 32.953391-1.2898577 5.151578-2.871943 12.031692-4.7462562 20.640343-3.5930751 16.502861-6.0049104 47.266335-7.4299583 80.610497l-3.0140924.28056c122.4480169-11.381599 229.4187139-20.482083 320.9180299-27.301591 91.231522-6.799548 227.922187-15.865796 410.094697-27.200622.766716-4.991475 1.561947-10.031555 2.388015-15.119564 7.808151-27.24343 13.610284-47.665359 17.406399-61.265788 3.424629-12.2695 7.747154-27.048799 12.967574-44.337896zm-77.276314 57.94063c.891669.095213 1.741464.264986 2.698616.618747 1.924242.711197 3.693486 1.974566 4.97789 4.032552 1.347976 2.159849 1.692553 4.469099 1.37949 6.631094-.155814 1.076043-.431897 1.923087-.800921 2.772462-.167469.38546-.324652.702865-.53304 1.100565-.055578.106068-.276278.521608-.329132.622569l-.005892.013638c-.030664.063885-.139042.284213-.266871.540567l-.170483.339968c-.057343.113621-.113671.224379-.1644.322797-.484094.939187-1.007183 1.875552-1.612288 2.858822-1.670846 2.71505-3.693953 5.341089-6.169854 7.812307-7.401154 7.387153-17.415937 11.993636-30.061316 12.479027-15.036084.577157-46.030338 1.412485-93.034737 2.50794l-.122954.002865h-.122986c-5.701849-.015082-10.665063-4.200998-10.665063-10.503633 0-2.977485.468439-7.918076 1.717134-10.201279.01414-.026206.041014-.078183.108436-.210761l.040621-.079853c.010986-.02156.023079-.045251.047266-.092632 3.384922-6.615961 9.19115-8.969278 21.290952-8.969278 5.16684 0 14.666195-.327522 31.055532-1.016532.927186-.038979 1.894354-.079831 2.948114-.124503 21.471178-.910219 26.487653-1.115272 29.957542-1.151378l.234362-.002206c.271035-.002284.534427-.003575.797681-.004144l.338983-.000355c1.353235 0 2.905101-.695013 4.512402-2.057815.69951-.593103 1.340326-1.258301 1.861414-1.900445.140047-.172583.258593-.327938.34711-.45117 1.611102-3.040137 4.372599-5.020532 7.968497-5.653183 1.478881-.26019 2.943406-.324246 6.109059-.332069l23.121464-.000871c1.190262 0 1.774535.013663 2.547372.096187zm-488.797387-104.8748c-14.1437 0-29.165423 5.509285-45.265919 17.192569l-20.243097 44.219472c10.796466-.2318 24.841804-.982957 42.92565-2.394017 22.115483-1.725643 38.092971-4.762233 47.405789-8.682638 1.346505-.566836 2.483353-1.125097 3.406875-1.657356-2.424092-9.875207-4.771541-20.790263-7.05084-32.693103-1.534396-8.012845-3.00572-11.542462-4.508391-12.92148-.648369-.595015-1.703019-1.159996-3.634566-1.708745-3.02534-.859492-7.319164-1.354702-13.035501-1.354702zm-112.44014 37.350964.137138-.027621c1.020622-.210829 2.053668-.36397 3.094257-.458241l11.418392-1.034446 6.387224-13.952006c-6.946755 5.059142-13.959092 10.21658-21.037011 15.472314zm704.127399-249.751578c-149.672946 6.361282-271.969515 24.714244-366.889706 55.058887-63.05535 20.157904-138.763649 59.280356-227.124896 117.367356.773752-.016155 1.550426-.025629 2.327343-.025629 19.139882 0 33.282502 4.017887 43.715776 13.592621 9.317766 8.551018 13.741114 19.16236 16.748871 34.869315 1.563653 8.165635 3.153042 15.802687 4.766602 22.908321l466.329693-22.797659z"/></svg>