<svg height="960" viewBox="0 0 960 960" width="960" xmlns="http://www.w3.org/2000/svg"><path d="m305.962486 27.867726c73.671387 1.6641722 148.354587 7.2239169 224.042392 16.6711493 76.631652 9.565042 150.854352 23.9634173 222.644076 43.2064389 38.271692 10.258613 63.268082 46.9866908 58.770332 86.3533238l-7.47564 65.430677c8.177936 4.224752 15.65562 9.888137 22.04616 16.827992 6.711711 7.288633 13.839078 15.430315 21.414012 24.448425.698309.831351 1.425417 1.699927 2.181432 2.605853l.765653.918381c6.97767 8.377556 16.299612 19.783776 28.043791 34.309062 14.25497 17.63065 20.35951 40.481905 16.795951 62.87264-2.4262 15.244423-5.605223 36.10216-9.526672 62.512561-4.684568 31.5499-15.192473 72.847814-31.547384 125.197924-7.591701 24.300123-26.295996 43.536105-50.373842 51.805764-34.15652 11.73123-62.144681 34.513296-85.560651 70.888373-25.256548 39.234287-39.93567 86.519348-43.677954 143.125951-2.730237 41.298172-36.509602 73.6955-77.885753 74.699164l-415.647517 10.082392c-41.247814 1.000551-76.490767-29.532785-81.3770245-70.502381l-2.3354376-19.581845-10.5104534-88.126554c-.4369423-3.663612-.6199146-7.353063-.5476065-11.04193.6573071-33.533136 1.275062-56.953126 1.875144-70.708924 1.5796184-36.209904 3.5741683-63.21248 5.6515073-83.516089.374999-3.665186.8180195-7.802557 1.3292972-12.414516l.1832855-1.64746c2.5126269-22.506852 6.575487-55.794429 12.21408-100.12271.431247-3.390285 1.0793-6.749452 1.940176-10.056852 7.703266-29.595189 13.724092-51.933619 18.135994-67.254515 4.428836-15.3797 10.851146-36.243472 19.317141-62.785652 7.948469-24.919658 27.344606-43.8763 51.357723-51.683035l26.881701-174.700654c6.109348-39.7038548 40.715195-68.7201534 80.876087-67.812954zm478.820892 494.442751-1.602193.59758c-55.32744 20.743562-99.244615 52.563972-132.062332 95.548426-35.23447 46.149902-60.822239 109.288175-76.526679 189.514584-1.591454 8.129971-9.472226 13.430486-17.602197 11.839032s-13.430486-9.472226-11.839032-17.602197c7.402747-37.817063 16.964764-72.206463 28.707303-103.159238-2.19385 1.962413-4.986407 3.29927-8.127714 3.691385-102.751636 12.826017-180.624929 22.189689-233.642564 28.093315-52.911178 5.891773-107.619435 11.294243-164.125097 16.207582l8.732566 73.224532 2.335437 19.581845 415.647518-10.082392c4.606858-69.684335 23.352307-130.068036 56.236348-181.151102s75.164568-85.498965 126.841581-103.247697c2.493442-7.98121 4.835793-15.666428 7.027055-23.055655zm1.909272-189.399647-.012384.011485c-3.13202 2.748175-7.146271 4.544598-11.619911 4.894639-121.302976 9.491393-212.593965 16.379262-273.893472 20.664923l-1.84838.129072c-61.306746 4.275853-153.213775 10.165118-275.742151 17.669384-3.342238.204696-6.542943-.423718-9.399585-1.70609-3.995636 12.863095-7.252393 23.667591-9.770915 32.413482-4.016716 13.948561-9.583463 34.564354-16.700242 61.84738l-.620761.031193c51.669726-2.601427 107.547881-5.744686 167.633526-9.42979 60.110062-3.686602 150.413602-9.509004 270.901773-17.466693 8.266262-.545948 15.40997 5.712603 15.955919 13.978865.545948 8.266262-5.712603 15.40997-13.978865 15.955919-120.531124 7.960525-210.875626 13.785568-271.042352 17.475646-60.191144 3.691574-116.177995 6.840947-167.961495 9.448103-1.759563.088589-3.463548-.129739-5.06002-.608029-5.052471 40.29085-8.459812 69.046945-10.221799 86.268349-.999009 9.764168-3.431435 35.750268-5.312055 78.860093-.473692 10.858535-.975966 28.760728-1.506821 53.706578l-1.606109.139888c56.438038-4.903813 111.065272-10.296399 163.881374-16.177585 52.859283-5.885994 130.615738-15.235617 233.246683-28.046569 8.220476-1.026124 15.716326 4.80605 16.742451 13.026526.021424.171636.039859.342956.055345.513909 13.521972-32.885792 29.666896-61.642863 48.461602-86.260059 38.619946-50.58418 91.069355-87.145805 156.974021-109.579896 3.199577-1.089143 6.512214-1.035929 9.494369-.05862 6.203094-23.246354 10.46599-42.692397 12.789126-58.338389 2.799887-18.856843 5.229119-34.937621 7.287695-48.242336-26.666406.984541-55.690867 2.59472-87.068969 4.831825-32.599695 2.324199-82.333112 6.3653-149.170631 12.12146-8.253719.710824-15.520918-5.4039-16.231742-13.657619-.710824-8.25372 5.4039-15.520918 13.65762-16.231742 66.972318-5.767769 116.832883-9.819202 149.611315-12.156143 28.473848-2.030046 55.058501-3.550813 79.756442-4.561907-7.239611-8.887091-13.132673-16.042395-17.680602-21.467252zm-66.554641 60.615597c.891669.095213 1.741464.264986 2.698616.618747 1.924242.711197 3.693486 1.974566 4.97789 4.032552 1.347976 2.159849 1.692553 4.469099 1.37949 6.631094-.155814 1.076043-.431897 1.923087-.800921 2.772462-.167469.38546-.324652.702865-.53304 1.100565-.055578.106068-.276278.521608-.329132.622569.023787-.045438-.108412.224607-.272763.554205l-.112973.225745c-.076678.152634-.154272.305797-.22191.43702-.484094.939187-1.007183 1.875552-1.612288 2.858822-1.670846 2.71505-3.693953 5.341089-6.169854 7.812307-7.401154 7.387153-17.415937 11.993636-30.061316 12.479027-15.036084.577157-46.030338 1.412485-93.034737 2.50794l-.122954.002865h-.122986c-5.701849-.015082-10.665063-4.200998-10.665063-10.503633 0-2.977485.468439-7.918076 1.717134-10.201279.01414-.026206.041014-.078183.108436-.210761l.0236-.046414.035704-.070072c.00742-.014541.01649-.032309.028583-.055999 3.384922-6.615961 9.19115-8.969278 21.290952-8.969278l.460273-.000827c5.263043-.018464 14.680975-.346667 30.595259-1.015705.927186-.038979 1.894354-.079831 2.948114-.124503 21.959159-.930906 26.707175-1.124229 30.191904-1.153584l.230619-.001721c.114548-.000745.228087-.001322.341207-.001752l.225855-.000671c.037608-.000081.075212-.000148.112836-.000201l.226147-.000154c1.353235 0 2.905101-.695013 4.512402-2.057815.69951-.593103 1.340326-1.258301 1.861414-1.900445.140047-.172583.258593-.327938.34711-.45117 1.611102-3.040137 4.372599-5.020532 7.968497-5.653183 1.535761-.270197 3.056041-.328883 6.481974-.33273l22.748549-.00021c1.190262 0 1.774535.013663 2.547372.096187zm-415.982193-285.679104-34.701194 225.533762c98.544219-6.096561 174.242355-10.98797 227.080832-14.673202 51.514548-3.592894 124.757557-9.070211 219.716408-16.431143l15.684516-137.25925c-68.203635-18.281781-138.816997-31.979985-211.840086-41.094612-73.02309-9.114627-145.003248-14.473145-215.940476-16.075555z"/></svg>