<svg height="960" viewBox="0 0 960 960" width="960" xmlns="http://www.w3.org/2000/svg"><path d="m512.672674 356.3525c5.494035 0 10.734662 2.328491 14.390607 6.405129.018162.011254.031955.02647.043029.043554.01605.013107.029937.028708.0438.044333 3.690068 4.110559 5.419458 9.628736 4.782692 15.096886l-20.949492 180.690839h83.911226c9.822907 0 18.782166 5.088872 23.837663 13.507577l.018404.030772c5.031319 8.446559 5.254725 18.705082.624296 27.437325l-39.484899 73.937085-37.071 69.42-81.073266 151.817384c-3.308195 6.180828-9.648571 10.073237-16.654967 10.212736l-.389915.00388h-.393406c-5.535559 0-10.813863-2.363821-14.477436-6.493016-3.651218-4.11527-5.374861-9.636337-4.73898-15.096886l16.28297-140.443098 4.667124-40.252934-83.911829-.0386c-9.822906 0-18.782166-5.088872-23.856067-13.538349l-.24388-.417339.24388.417339c-.248382-.416983-.485152-.838381-.710296-1.263785l-.037222-.070568c-.433586-.824807-.823556-1.664555-1.169807-2.516261l-.004215-.010373c-.087748-.216086-.172682-.432941-.2548-.650516-.163639-.433553-.316162-.87016-.457484-1.309242-.235386-.731274-.439858-1.470086-.613144-2.21399-.017434-.074839-.034603-.149956-.051454-.225123-.073023-.325726-.140082-.652391-.201171-.979846l-.004698-.025246c-.321814-1.73392-.476302-3.489876-.46271-5.245692.001882-.243128.006987-.486263.015317-.729337l.001449-.041382c.017761-.496437.048975-.992603.09366-1.487997.037449-.41517.084354-.829766.140728-1.243524l.006641-.048416c.036322-.263097.076475-.52585.12046-.788183.045601-.27196.0953-.543363.149117-.814232.063047-.317304.131685-.633617.205971-.949062.083114-.35293.173275-.70469.270509-1.055174l.015887-.05703c.058654-.209681.119841-.418901.183563-.62762.070832-.23201.144804-.46342.221909-.694153.019613-.05869.039439-.117367.059469-.176.131138-.383886.270968-.765824.419509-1.145589.03309-.08459.0663-.168299.099935-.251898.02764-.068705.055837-.137993.084326-.207204.185766-.451269.383687-.898723.594015-1.342501.002845-.006002.005692-.012003.008541-.018004.192318-.405042.394977-.807014.607988-1.205584l157.629164-295.174469c3.369459-6.295287 9.88444-10.216616 17.044883-10.216616zm-35.609829-257.3525c136.307589 0 253.566671 90.98883 289.793356 218.396119 105.051319 13.419399 186.143799 103.132812 186.143799 211.785131 0 118.076531-95.770058 213.78625-213.89581 213.78625l-105.59419-.0005 42.722-80 62.87219.0005c73.954255 0 133.89581-59.90379 133.89581-133.78625 0-73.874851-59.929208-133.77391-133.873423-133.78512l-2.289275.018535-1.170475.026158c-19.787839.442227-36.923765-13.653927-40.305535-33.155664-18.253911-105.265279-110.124691-183.285159-218.298447-183.285159-106.987182 0-198.16167 76.344371-217.723826 180.114225l-.620937 3.424099c-3.467175 19.119401-20.173264 32.981444-39.604129 32.861919l-.64797-.003985-.570173-.001258c-73.954255 0-133.89581 59.90379-133.89581 133.78625 0 73.193188 58.876613 132.785776 132.038558 133.773719.071155.000961.14227.002108.211148.012531l38.70966.000158c-2.551545 22.997346 2.348546 46.570118 14.583327 67.109824l.1462.244448c2.678218 4.459989 5.647516 8.681797 8.875656 12.646708l-63.063998-.001138c-.18261 0-.364962 0-.542104-.025075-.102409.003869-.204729.002416-.303124-.014021-1.201568.005038-2.384416-.07273-3.546021-.225494-115.1255158-3.453804-207.109302-97.842503-207.109302-213.52166 0-107.52372 79.4165731-196.499936 182.959053-211.289685 36.229668-127.755634 153.710276-218.891565 290.103792-218.891565z"/></svg>