<svg height="960" viewBox="0 0 960 960" width="960" xmlns="http://www.w3.org/2000/svg"><path d="m917.392721 52.5231674c22.964 0 41.62348 18.4298401 42 41.3054532v.6945468 492.0371846c0 50.278638-56.066599 130.67241-137.081821 195.376904-44.979228 35.923597-95.989198 65.971698-150.543709 87.485279-60.65873 23.920781-124.427544 36.840745-189.786142 37.100632h-2.145822l-3.847794-.077004c-121.492082-2.89893-238.179509-50.035061-334.241335-125.603298-81.4684624-64.088184-138.79166191-143.049066-141.117481-193.358902-.02133785-.20511-.02133785-.410348-.02133785-.61564v-492.3451556c0-22.9639999 18.42984015-41.62348 41.30545325-42h.6945468zm0 40h-351.750904c-.506722 6.2641878-1.549658 12.4776986-3.119703 18.5722626l-.321034 1.217306-5.532918 20.503318c-3.496011 12.955159-15.161655 21.996019-28.545145 22.181052l-.418786.002894h-95.408462c-13.214868 0-24.849741-8.643487-28.717152-21.326009l-.120783-.406127-.125996-.45181-5.532918-20.503318c-1.747747-6.476619-2.897906-13.0940809-3.439287-19.7895686h-351.7523538c-1.0543618 0-1.9184195.8158778-2.0002792 1.8507376v.1492624 491.5268326l.0344997.524083c.4691195 6.516486 2.7394583 14.636425 6.6909895 23.908061l.6053236 1.399326c.1029838.234642.2070145.46999.3120904.706036l.6429817 1.424604c.2184977.477625.4411608.957988.6679745 1.441033l.6928773 1.457122.689079 1.414821.3531039.712769.3588002.716291.7346493 1.442999.7573145 1.456637.3871319.733338.7911629 1.476531c.9628908 1.779629 1.9743077 3.587093 3.0336297 5.420056l.8034641 1.379467.9137364 1.54369.4651332.776076.9467464 1.560428.4815932.784277.9795768 1.576491.4979635.792138 1.0122275 1.591877 1.0338948 1.601759.7895923 1.207623.8017016 1.212886 1.0877139 1.625148.5518823.815905 1.1197658 1.638281.5678635.822301.5731705.824359 1.1622222 1.654739.5890318.830306 1.193855 1.666294.6172007.852992c22.9932711 31.672499 55.1838324 64.670031 92.9304434 94.363875 89.633282 70.511142 198.201145 114.368345 310.449569 117.052542l3.376323.067006 3.180513-.014101c112.613308-.846876 220.083348-42.703598 308.476759-111.577415l2.672734-2.095341 2.715153-2.155062c37.435976-29.899022 69.112769-63.233072 91.409508-95.204316 1.658584-2.37824 3.253478-4.733966 4.78378-7.063144l.910423-1.394288 1.071984-1.664463 1.049524-1.654674 1.026988-1.644551.50502-.818374.499358-.815718.981693-1.623299.721337-1.210191.708504-1.203789.924652-1.594852c1.598085-2.780621 3.090755-5.506279 4.476205-8.168902l.587195-1.137241.762448-1.504072.738977-1.489763c.775697-1.581332 1.511208-3.137674 2.206124-4.667198l.513569-1.142086.620495-1.413205c.338081-.780613.665088-1.553671.980963-2.318918l.465456-1.141979.536444-1.354635c3.578788-9.186085 5.467871-17.150302 5.563636-23.413794v-.478444-492.0371846c0-1.0543618-.815878-1.9181651-1.850738-2zm-371.833442 0h-131.12l.033849.3469474c.420814 4.087798 1.121364 8.1444682 2.09773 12.1413112l.273117 1.088543.264232 1.002064 5.508251 20.413572.075807.272479c1.211326 4.177901 4.986721 7.086074 9.32012 7.207934l.283384.003982h95.408462c4.423294 0 8.3085-2.903661 9.575732-7.117961l.078912-.276688 5.532918-20.503318c1.159208-4.295674 1.997026-8.6667539 2.50865-13.0770132l.121108-1.1033601z"/></svg>