<svg height="960" viewBox="0 0 960 960" width="960" xmlns="http://www.w3.org/2000/svg"><path d="m427.693791 9.05625261 243.47606 9.82999239c26.807735 1.0823233 47.982966 23.1297241 47.982966 49.9592991v811.6009099c0 25.990197-19.911975 47.646627-45.810789 49.824196l-213.301227 17.934337c-41.374399 3.478753-82.591487-8.304562-115.875064-33.126853l-77.415894-57.735378c-12.653949-9.437087-20.10831-24.295535-20.10831-40.081004v-731.2338001c0-22.9886161 15.675244-43.0149692 37.990939-48.5364033l95.372594-23.59745c15.587971-3.856835 31.643776-5.4856375 47.688725-4.83784599zm236.676729 851.50983739c-7.724085.562675-77.754358 5.71508-210.063459 15.455204l-3.189008.233877-.000086 32.438716c1.855937-.076068 3.713494-.192039 5.571465-.348257l213.301227-17.934337c5.179763-.435514 9.162158-4.7668 9.162158-9.964839l.000444-22.796613c-3.961804 1.594384-8.860042 2.4848-14.782741 2.916249zm-238.021987-631.857222-2.304445 678.26107c2.346198.39826 4.705035.732385 7.073892 1.001627l-.00118-38.437791c-.078699-.511227-.118661-1.035174-.116801-1.568733l1.059395-303.210253c-.285733-.872516-.455142-1.79931-.489338-2.762788-.043948-1.238211.139156-2.431819.511966-3.540732l1.152511-329.6844zm-24.194256.137061-114.999325 5.912086c-.171836.008834-.342881.013276-.513027.013425l.000477 544.542832c1.924473-.001585 3.870066.551264 5.586249 1.707396l102.720434 69.199124c2.758812 1.858514 4.412882 4.967191 4.412882 8.293619v37.26916c0 1.462764-.314069 2.852174-.878451 4.104474 1.843907.719516 3.703521 1.39757 5.577138 2.032698l2.288412-673.244025c-1.398771.040951-2.797119.097357-4.194789.169211zm-115.512744 572.526939v15.888884c0 3.157094 1.490872 6.128784 4.021662 8.016201l77.415894 57.735378c3.642506 2.716515 7.409266 5.228814 11.282851 7.531915l-.000407-26.710959zm345.711 30.269-181.272 13.322-.034883 11.243399c87.367928-6.431733 147.80273-10.87946 181.312181-13.343752zm37.337254-2.468864c-3.419749.393909-8.902153.708163-16.607045.964867l-.468209.014997-.262.019.000805 9.007684 3.105583 1.98603c3.834659-.281547 6.320801-.463757 7.458514-.546635 3.323003-.24207 5.92628-.65964 7.746718-1.197285.683559-.201881 1.18586-.400025 1.499514-.566382l.011386-.005109.187403-.179473c1.908333-1.768351 4.347525-2.658201 6.790268-2.658541l-.000127-8.616072c-3.360713.842832-6.511588 1.436978-9.46281 1.776919zm0-266c-3.514742.404851-9.208323.725561-17.22324.985073l-200.429014 7.113791-.887 253.634 187.736102-13.797082c1.080057-.399196 2.247917-.617234 3.466703-.617234.703647 0 1.390319.072675 2.05292.210929l6.972674-.511217c.136249-.010013.272689-.017233.409234-.021655 7.529485-.24384 12.791667-.540249 15.613022-.865231 2.607402-.300338 5.631559-.924446 9.051927-1.883453.900981-.252618 1.807757-.373384 2.699751-.373861l-.000269-245.650979c-3.360713.842832-6.511588 1.436978-9.46281 1.776919zm-36.060254-30.977136-181.471 4.494-.051 14.566 181.522-6.443zm36.969007-1.477266c-3.961737.352103-9.591441.661118-16.968186.933383l.000394 12.455316c6.550542-.231342 11.185191-.505137 13.77044-.802923 2.607402-.300338 5.631559-.924446 9.051927-1.883453.900981-.252618 1.807757-.373384 2.699751-.373861l.001686-11.546385c-2.324436.533424-5.125558.913038-8.556012 1.217923zm-217.480007-268.793734-.89 254.757 195.419096-4.838125c9.678254-.30208 16.766212-.654304 21.180371-1.046617 2.050828-.182269 3.71667-.391045 4.9675-.61516.527746-.094558.953098-.186875 1.264493-.269945.150047-.040027.195687-.055315.109253-.017776 1.299061-.564188 2.652335-.830925 3.983689-.830236l.000197-245.489131c-.210003-.000194-.421344-.006943-.633815-.02043-5.843891-.370956-11.756125-.643594-17.736715-.817854-2.817794-.082104-6.291954-.161086-10.420384-.236861-.706044.157922-1.439407.241103-2.192198.241103-.871743 0-1.717433-.111546-2.523576-.321143-3.365242-.054333-7.082126-.106366-11.148355-.156629l-.702556-.009196zm205.051-31.272.001346 12.007077c1.141087.027956 2.205802.056333 3.194229.085133 5.99241.174605 11.922081.444519 17.788999.809796l-.000955-12.726178c-.028028-.000004-.056083-.000124-.084165-.000359zm-204.935-1.718-.046 12.99 180.670495.329398.103508.000724c1.445187.017592 2.847875.035407 4.208099.053446l-.001102-11.823568zm-63.622217-176.2116468-95.372595 23.5974501c-4.463139 1.1042868-7.598188 5.1095574-7.598188 9.7072806v128.7299161l114.485905-5.885562c1.762225-.090596 3.525426-.158972 5.289183-.205119l.540088-159.0063044c-5.836771.626732-11.631667 1.648874-17.344393 3.0623386zm37.346217-3.6653527-.542 159.6509995 252.736 2.119.000284-141.9823239c0-5.365915-4.235046-9.7753951-9.596593-9.9918598zm71.468794 22.3789834 102 4.3627169c10.79571.4617512 19.572673 9.2929067 19.572673 20.0526096v84.7794366c0 10.970264-9.100159 19.643334-20.103791 19.531409l-101.999945-1.059821c-11.004812-.114165-19.896264-9.097858-19.896264-20.103203v-88c0-11.2155458 9.221315-20.0424487 20.427327-19.5631481zm-.427327 19.9995509v87.5635972c0 .04035.062853.103855.103791.10428l101.896209 1.057123v-84.1870002l-.021729-.0105139c-.10879-.1094615-.257097-.1762376-.405598-.1825893z"/></svg>