<?xml version="1.0" encoding="UTF-8"?>
<svg width="960px" height="960px" viewBox="0 0 960 960" version="1.1" xmlns="http://www.w3.org/2000/svg" xmlns:xlink="http://www.w3.org/1999/xlink">
    <title>dk.denfrievilje.deviconnect/drivers/reg/ assets/icon</title>
    <g id="dk.denfrievilje.deviconnect/drivers/reg" stroke="none" fill="none" fill-rule="nonzero">
        <path d="M113.888181,7.84202384 L115.39191,7.85984188 L883.967056,16.9668671 L884.827457,16.9779235 C923.185673,17.7104281 955.371018,46.7828939 956.017313,85.5850874 L956.027221,86.7759292 L956.027221,864.37154 C956.027221,903.356376 923.856782,935.057711 884.877457,936.407533 L884.58748,936.417574 L884.297387,936.423408 L117.267401,951.848948 L113.326965,951.928193 L109.446837,951.236871 C78.9261928,945.799015 53.3355209,934.054712 34.6851838,916.877736 C15.1629392,898.897732 4.0176759,875.492478 4.02722135,850.974558 C4.2478755,516.238001 4.41319625,265.359229 4.52318973,98.3382445 C4.53499088,80.4186406 10.3842059,64.062425 20.9048149,50.3986649 C29.2630689,39.5432878 40.0402976,30.9728258 52.5050045,24.2535484 C70.118984,14.7584824 91.5698004,9.03989688 107.62788,8.23821964 L112.387359,7.9371645 L113.888181,7.84202384 Z M114.917974,47.8570341 L109.88125,48.1763239 C94.6118431,48.8454072 44.5478689,60.8770373 44.5231811,98.364587 C44.4131876,265.385581 44.2478668,516.26436 44.0272158,851.000924 C44.0175433,875.840602 67.2413787,903.087205 116.463134,911.857034 L883.49312,896.431495 C901.355999,895.812918 916.027216,881.355893 916.027216,864.37154 L916.027216,86.7759292 C916.027216,69.7880413 901.367159,57.0347538 883.49312,56.9640593 L114.917974,47.8570341 Z" id="Path" fill="#000000"></path>
        <path d="M135.161272,27.858514 L883.736418,36.9655392 L884.431749,36.974 C912.459922,37.5015168 935.556372,58.3568458 936.027214,85.9297759 L936.027214,864.37154 C936.027214,892.356069 912.606459,915.435312 884.185289,916.419514 L883.911615,916.427116 L146.881629,931.857034 L146.463134,931.857034 C115.835238,931.857034 94.4581619,920.909696 83.213878,900.335278 C78.8249368,892.304539 76.31072,883.436805 75.0658701,873.466906 C74.2574534,866.992363 74.0431444,861.539102 74.0262148,852.420167 L74.0262148,850.987701 C74.247535,516.251153 74.4131919,265.372389 74.5231854,98.3514158 C74.5376581,76.3752266 80.3976751,58.6821597 91.5510301,46.1607781 C101.536036,34.9510511 114.989903,28.874296 128.761621,28.2067608 L133.652667,27.8970993 C133.987469,27.8758754 134.322727,27.858514 134.65812,27.858514 L135.161272,27.858514 Z M134.917974,47.8570341 L129.88125,48.1763239 C114.611843,48.8454072 94.5478689,60.8770373 94.5231811,98.364587 C94.4131876,265.385581 94.2475307,516.26436 94.0262104,851.000924 L94.0262104,852.50434 C94.0583426,877.266853 95.5619801,911.857034 146.463134,911.857034 L883.49312,896.431495 C901.355999,895.812918 916.027214,881.355893 916.027214,864.37154 L916.027214,86.7759292 C916.027214,69.7880413 901.367159,57.0347538 883.49312,56.9640593 L134.917974,47.8570341 Z M285.699327,179.2 L308.789215,179.480514 L308.963792,179.481362 L771.614215,185.113514 L787.513869,185.307187 C809.413821,185.573649 827.027214,203.402653 827.027214,225.304226 L827.027214,729.271296 C827.027214,751.036532 809.624598,768.80715 787.864118,769.26254 L442.078215,776.498514 L309.001188,779.283896 L308.980215,779.283514 L290.213169,779.676812 L285.911521,779.780098 L285.175193,779.780098 C284.484395,779.780098 283.801401,779.751319 283.127938,779.685941 L282.871648,779.658 L257.50437,778.098639 C237.601523,776.874523 222.067133,760.486694 221.837464,740.615587 L221.837464,740.012378 L223.980957,224.26799 C224.066873,203.595799 239.182754,186.059963 259.616419,182.927521 L282.42544,179.430941 C283.508607,179.264893 284.603588,179.188148 285.699327,179.2 Z M308.549215,199.480514 L308.455819,199.481362 C295.753273,199.472983 285.449028,209.763635 285.440644,222.466182 L285.101507,736.278129 L285.101507,736.774534 C285.368999,749.318823 295.62714,759.306847 308.117291,759.298349 L743.860215,750.178514 L784.508439,749.328387 C797.02071,749.066538 807.027214,738.848432 807.027214,726.333422 L807.029403,575.400066 C806.93233,575.622141 806.834932,575.844026 806.737209,576.06572 C806.473028,576.657417 806.209508,577.249585 805.943635,577.840468 C805.793947,578.178113 805.641471,578.514298 805.488247,578.85003 C805.17856,579.525926 804.867245,580.200709 804.552852,580.873766 C804.439218,581.116958 804.32509,581.359782 804.21057,581.602364 C785.739536,620.795743 756.812162,654.085722 720.29237,676.979584 L719.217215,677.644514 L718.609469,678.225117 C673.167415,721.138351 614.599275,745.50466 552.405028,745.99253 L550.5,746 C410.914081,746 298,626.334356 298,479 C298,331.665644 410.914081,212 550.5,212 C613.405982,212 672.711113,236.426388 718.622373,279.781505 L719.233,280.362 L720.274132,281.007798 C753.875542,302.068253 781.070938,331.950267 799.599309,367.159392 C799.624134,367.210772 799.65048,367.260792 799.676809,367.310824 C800.179265,368.263282 800.673952,369.220985 801.162237,370.182522 C801.289916,370.432494 801.416797,370.683019 801.54325,370.933821 C801.841642,371.529045 802.13848,372.12513 802.432865,372.722652 C802.647016,373.150959 802.857893,373.581544 803.067518,374.012919 C803.17415,374.24071 803.283179,374.466394 803.391861,374.692279 C804.652765,377.2991 805.864808,379.937331 807.030008,382.603067 L807.027214,228.267947 C807.027214,215.674542 796.899513,205.422865 784.307041,205.269649 L769.828215,205.093514 L308.549215,199.480514 Z M270.940279,201.424721 L262.646979,202.69658 C251.94363,204.337383 244.025788,213.522821 243.980784,224.351112 L241.837133,740.0955 C241.797639,749.636306 249.209248,757.550659 258.732142,758.13636 L271.53062,758.924101 C267.6084,752.599229 265.277916,745.172755 265.11092,737.192991 C265.101507,736.883679 265.101507,736.574307 265.101507,736.264928 L265.440648,222.452981 C265.44569,214.813279 267.442751,207.640225 270.940279,201.424721 Z M550.5,232 C422.227816,232 318,342.459994 318,479 C318,615.540006 422.227816,726 550.5,726 C582.128208,726 612.768793,719.267142 640.960523,706.611428 C630.69037,708.185902 620.186045,709 609.5,709 L609.177378,708.994979 L566.000914,709 L565.5,709 C447.77121,709 351.880088,610.101296 348.113945,486.468455 L348.028091,482.714511 L348,479 C348,352.10106 445.243045,249 565.5,249 L610.025098,249 C620.533401,249.026377 630.864687,249.839856 640.969416,251.387425 C612.77358,238.733843 582.13048,232 550.5,232 Z M609.735294,269.182979 C500.924746,269.182979 412.470588,362.994076 412.470588,479 C412.470588,595.005924 500.924746,688.817021 609.735294,688.817021 C693.495149,688.817021 765.19269,633.228637 793.766046,554.718658 C793.79431,554.645417 793.821005,554.571827 793.847661,554.498219 L793.766046,554.718658 C794.089673,553.829441 794.407768,552.937282 794.720285,552.042231 L793.847661,554.498219 C794.233491,553.432792 794.611287,552.363543 794.980987,551.290565 L794.720285,552.042231 C795.101851,550.949425 795.475103,549.852307 795.839959,548.750962 L794.980987,551.290565 C795.371059,550.158463 795.752118,549.02221 796.124095,547.881917 L795.839959,548.750962 C796.11848,547.910226 796.392108,547.067027 796.660807,546.221405 L796.124095,547.881917 C796.857772,545.632831 797.556112,543.368029 798.218568,541.088357 C798.309382,540.789409 798.396421,540.487707 798.482837,540.185715 L798.218568,541.088357 C798.835568,538.96511 799.421439,536.828964 799.97574,534.680604 C800.038091,534.457814 800.095689,534.233175 800.152945,534.008387 L799.97574,534.680604 C800.527925,532.540445 801.048779,530.388165 801.537866,528.224441 C801.589616,528.017315 801.636522,527.808348 801.683133,527.599258 L801.537866,528.224441 C802.015237,526.11255 802.462345,523.989756 802.878782,521.856689 C802.943239,521.548346 803.002957,521.238704 803.062033,520.928812 L802.878782,521.856689 C803.126341,520.588651 803.36306,519.316983 803.588856,518.041816 C803.654313,517.692423 803.715513,517.341494 803.775891,516.990257 L803.588856,518.041816 C803.744342,517.16372 803.894648,516.283965 804.039747,515.402595 L803.775891,516.990257 C803.935054,516.064359 804.088504,515.136327 804.236202,514.206203 L804.039747,515.402595 C804.187284,514.506411 804.329436,513.608557 804.466175,512.709078 L804.568595,512.044089 L804.837556,510.167186 L804.989662,509.074311 L805.260308,506.98487 C805.294201,506.714817 805.327607,506.444628 805.360527,506.174305 L805.694043,503.277657 L805.76462,502.619183 C805.835111,501.949642 805.902641,501.279142 805.967195,500.607699 C806.003222,500.238769 806.03777,499.869593 806.071419,499.500136 L805.967195,500.607699 C806.192768,498.261459 806.38201,495.903696 806.534309,493.53505 C806.55157,493.270479 806.568153,493.005103 806.584272,492.739592 L806.534309,493.53505 C806.68272,491.226886 806.796051,488.908389 806.873737,486.580152 C806.881283,486.355977 806.888432,486.131591 806.89525,485.907115 L806.873737,486.580152 C806.896246,485.905562 806.915763,485.230155 806.932273,484.553944 L806.972598,482.612556 C806.974384,482.498561 806.976084,482.384549 806.977698,482.270521 L806.971391,482.612093 C806.990438,481.410514 807,480.206456 807,479 C807,476.827175 806.968981,474.662118 806.90739,472.5053 C806.899471,472.23302 806.891177,471.960763 806.882392,471.68861 L806.829443,470.192324 C806.810475,469.703477 806.789935,469.215066 806.767829,468.727096 L806.735424,468.032909 L806.609869,465.692466 L806.551629,464.733767 L806.496553,463.889277 C806.394531,462.363704 806.277183,460.842674 806.144671,459.326358 C805.974932,457.42444 805.783988,455.527461 805.569263,453.636964 C805.553053,453.451208 805.532025,453.267569 805.510774,453.084004 L805.569263,453.636964 C803.427494,434.780288 798.919705,416.568442 792.309636,399.403684 C792.128385,398.92614 791.942987,398.450599 791.755995,397.975947 L792.309636,399.403684 C791.9968,398.591323 791.679254,397.781307 791.357028,396.973679 L791.755995,397.975947 C791.292712,396.799968 790.81965,395.629444 790.336918,394.464488 L791.357028,396.973679 C790.957393,395.972035 790.550559,394.974063 790.136578,393.979847 L790.336918,394.464488 C759.746444,320.641876 690.32399,269.182979 609.735294,269.182979 Z M499.062265,281.183667 L497.284232,281.869286 C421.87905,311.384603 367.999708,388.420237 367.999708,478.923591 L368.02663,482.485198 C369.401036,572.361143 423.794532,648.25606 499.105532,676.842597 C435.234668,636.794489 392.470588,563.131205 392.470588,479 C392.470588,394.88721 435.21595,321.237758 499.062265,281.183667 Z" id="Combined-Shape" fill="#000000"></path>
    </g>
</svg>