<svg height="960" viewBox="0 0 960 960" width="960" xmlns="http://www.w3.org/2000/svg"><path d="m128.2792 3.99999999 735.802989 9.20365431c39.414133.4928368 71.106681 32.5841478 71.106681 72.0011046l.001994 309.6119131c7.166895 28.637453 10.80794 58.298454 10.80794 88.434878 0 30.137034-3.641193 59.798629-10.808367 88.436602l-.001567 296.469649c0 39.165025-31.302772 71.148243-70.458762 71.990344l-729.705031 15.692849-6.307727.148c-1.143325.026826-2.287275.011006-3.428697-.066597l-.144273-.009c-.545491.006621-1.078207-.03133-1.60244-.098288l-36.9722054-2.280285c-36.393958-2.244216-64.7177313-32.490181-64.5714396-68.952972l3.2269791-801.0605464c.1490619-37.0094344 27.2018644-68.4096538 63.7820596-74.03191085l32.6952263-5.02514997c2.17579-.33441189 4.375473-.48864165 6.57664-.46424479zm-6.615205 40.93966551-26.5801442 4.0854845c-17.1246341 2.6320006-29.7891194 17.3316834-29.8589012 34.6572613l-3.2266485 801.0605457c-.0612462 15.265433 11.7967228 27.928143 27.0333378 28.867701l32.6018111 2.012108c-8.501609-9.692919-13.767757-22.318232-14.066524-36.216911-.013121-.419019-.013121-.838125-.013121-1.257241l.509866-796.362096c.009005-14.0642186 5.128144-26.9314508 13.600324-36.8468525zm43.6677.0751831h-.43643c-20.328515-.0130072-36.818583 16.4559593-36.831598 36.784474l-.509862 796.3620964c0 .271561 0 .543115.008501.814613.436884 20.323824 17.266762 36.445374 37.590586 36.017165l694.02327-14.927481c19.816812-.425985 35.698706-16.456057 36.012268-36.20404l.001952-237.69602c-26.423542 57.807748-68.716476 106.867251-122.456564 140.195252-65.279377 61.930106-149.792389 96.801445-239.451183 96.801445-198.623389 0-359.150735-170.193059-359.150735-379.571765 0-209.378705 160.527346-379.571764 359.150735-379.571764 88.763945 0 172.485636 34.178773 237.497645 94.955061.203434.119813.404225.242686.604873.365791.995661.60852 1.986381 1.224206 2.973549 1.845528.383666.243831.768212.487058 1.152217.73114 1.147204.726849 2.28819 1.462785 3.42428 2.206268.197718.131727.396354.262046.59484.392595 1.125417.737894 2.245015 1.48487 3.359731 2.239184.234663.161107.469886.320752.70489.480723 1.08733.737863 2.16926 1.484524 3.246464 2.23811.249839.177065.500284.352821.750473.528951 1.167755.819823 2.32905 1.649452 3.484691 2.487146.144844.10724.290909.21331.436884.31951 1.121145.813433 2.235601 1.635704 3.344662 2.465487.194728.147896.390629.294823.586362.441985.95647.716943 1.907571 1.440657 2.854605 2.169906.348817.270759.698223.54099 1.047072.811975 1.017605.788344 2.02924 1.584275 3.03609 2.386545.252723.203474.506071.405984.759116.608896.933196.746239 1.861407 1.499341 2.785441 2.257847.335452.277402.671158.554133 1.006309.831578.98239.811234 1.959008 1.629781 2.930817 2.454392.261871.224177.524812.448028.787399.672323.961378.819249 1.916495 1.645087 2.866831 2.476806.273781.241508.548337.482629.822491.724241.889959.782455 1.774658 1.571044 2.655097 2.364751.331301.300486.663297.601045.994683.902331.984928.893692 1.963087 1.794337 2.935813 2.701333.202795.190826.40617.380952.609306.571355.825715.772258 1.646821 1.55019 2.463957 2.332665.381876.367329.763393.734479 1.144036 1.102619.745052.718968 1.486331 1.442942 2.22424 2.170678.414576.410419.828596.820959 1.241546 1.232685.814113.81019 1.623448 1.625896 2.428591 2.446163.332295.339992.664462.679896.99591 1.020577.716889.735446 1.429798 1.475318 2.139322 2.21879.428242.450086.856231.90115 1.282976 1.353524.585137.618974 1.166829 1.240552 1.746175 1.86457.523217.564813 1.045657 1.131581 1.566165 1.700337.753047.821656 1.501465 1.648041 2.245811 2.478541.342151.382883.684297.766455 1.025575 1.150897.675445.759793 1.346546 1.523022 2.014232 2.289624.415881.478512.831285.95828 1.245353 1.439355.585893.679742 1.168351 1.362197 1.748123 2.047244.479568.567554.9577 1.136437 1.433981 1.707086.511577.612088 1.020906 1.226948 1.528088 1.843831.540109.657719 1.07799 1.317178 1.613419 1.978917.514721.635422 1.026888 1.273334 1.536778 1.913337.501395.630001 1.000965 1.261819 1.498319 1.89565.584021.743685 1.16455 1.490199 1.742006 2.239461.426134.553445.850855 1.108182 1.273893 1.664408.551393.724523 1.099807 1.45191 1.645345 2.181807.435216.582693.868823 1.166864 1.300589 1.752624.535874.726661 1.068715 1.455863 1.598704 2.187493.442404.610992.882837 1.223407 1.321272 1.837503.459442.643309.916878 1.288959 1.372106 1.936443.494671.703731.986536 1.40917 1.475781 2.116758.442728.640234.883501 1.2826 1.322115 1.926715.487247.715542.97184 1.433222 1.453755 2.153044.488663.729963.974372 1.461785 1.457313 2.19579.421735.640851.841366 1.283484 1.258877 1.927772.472859.72989.943204 1.462056 1.410812 2.196328.424434.666216.846542 1.334297 1.266384 2.0041.322316.514534.643213 1.029644.962769 1.545764.564153.910787 1.124246 1.825265 1.680132 2.742859.097287.161034.1945.321816.291584.482694.75153 1.244861 1.495497 2.496194 2.23165 3.75317.274783.469776.548232.939345.820591 1.409695.556009.959557 1.107592 1.92319 1.654597 2.890046.303761.537621.606635 1.076476.908086 1.616323.522113.934244 1.039492 1.87135 1.552584 2.811395.103598.190638.207414.381288.311054.572059.682236 1.254925 1.356524 2.515332 2.023114 3.780881.218655.416089.436888.832556.654287 1.249576.556116 1.065743 1.10654 2.135627 1.651473 3.209084.149792.296157.29938.591925.44855.887964.598235 1.186102 1.189696 2.377503 1.7744 3.573186.249534.511485.498117 1.023135.745462 1.535562.491121 1.016209.977023 2.035988 1.458019 3.058793.127991.273476.256131.54692.38392.820579.365824.782067.728299 1.566187 1.087894 2.352051l-.003827-249.9590871c0-20.1491062-16.20051-36.5533584-36.348043-36.805165zm389.338404 765.8275044c-169.503065 0-307.096842-143.878687-309.822478-322.369881l-.001749-.152774-.039416-5.089452v-.152599c0-180.76039 138.453844-327.764706 309.863643-327.764706h62.213837l2.528359.027059 1.850776.016929c.107215.001839.214417.003736.321605.00569l-4.70074-.049678c2.577837.006486 5.148165.046213 7.710625.118797.691822.020537 1.383226.042534 2.074049.06692.962634.033037 1.923816.071641 2.883851.114858.753138.034857 1.505532.071601 2.257211.111174.946076.048843 1.891483.103157 2.83574.161936.728685.046338 1.456399.094344 2.18342.144998 1.034014.071053 2.066725.148456 3.098008.231193.638742.052253 1.277094.105561 1.914894.16091 1.076203.092367 2.150569.191538 3.223331.296486.595768.059335 1.191453.119448 1.786638.181341 1.070711.110271 2.13931.227306 3.206265.350063.601195.070268 1.202486.141335 1.80325.214218 1.005466.120859 2.008884.247839 3.010801.379874.665521.088855 1.330859.178862 1.995528.271096.983545.135304 1.965209.276589 2.945385.422719.662019.099909 1.323329.200821 1.983953.303936.996569.154311 1.991966.314928 2.985779.480536.647346.109149 1.29359.219076 1.939157.331112 1.0255.176664 2.04975.360026 3.072261.548685.600337.112106 1.200233.224736 1.799524.339187.986613.187051 1.971091.380296 2.953907.578448.652891.133041 1.305451.266932 1.957271.402983 1.010154.209404 2.018248.425362 3.024539.646479.587011.130467 1.173835.261313 1.760039.393911 1.119931.251815 2.237136.511413 3.352046.777364.477897.11555.956468.230988 1.434612.347594 1.038829.251765 2.074302.510275 3.107738.774262.329219.085716.659313.170653.989199.256148l-1.53043-.84049c-46.545037-25.475269-99.367907-39.860855-155.359892-39.860855-187.307778 0-339.150735 160.985762-339.150735 359.571764s151.842957 359.571765 339.150735 359.571765c58.009387 0 112.617177-15.440892 160.365208-42.658546-24.476985 6.672449-50.134659 10.254617-76.582588 10.337089-.016616-.006102-.032386-.005943-.048166-.005798l-.698296.007255zm61.460599-635.529412c-160.089735 0-289.868106 137.790952-289.868106 307.764706 0 169.683728 129.335868 307.294387 289.048888 307.763503l1.521976-.005209-.676161.006059 4.766902-.040879c157.794232-2.716349 284.938292-139.302972 285.074497-307.453012l-.038762-4.847633c-1.710346-111.909466-59.71749-209.300838-145.284979-261.691343l-1.592223-1.529023c-.573895-.346089-1.149012-.690159-1.725342-1.032199-.40326-.240664-.807572-.479268-1.212477-.716873l1.212477.716873c-1.293116-.76744-2.592339-1.524666-3.897573-2.271576l2.685096 1.554703c-1.350129-.792278-2.706844-1.573453-4.070035-2.343409l1.384939.788706c-1.325661-.758601-2.657522-1.50656-3.995481-2.24377l2.610542 1.455064c-1.286611-.726702-2.578991-1.44341-3.877049-2.150027l1.266507.694963c-1.31524-.724692-2.636372-1.438997-3.963301-2.142812l2.696794 1.447849c-1.432307-.779697-2.871526-1.547108-4.317534-2.3021l1.62074.854251c-1.340117-.710811-2.686146-1.410923-4.037989-2.100231l2.417249 1.24598c-1.311735-.684886-2.629057-1.359553-3.951874-2.023904l1.534625.777924c-1.357815-.692353-2.721496-1.373807-4.09094-2.044254l2.556315 1.26633c-1.325995-.665947-2.657511-1.321528-3.994456-1.966644l1.438141.700314c-1.361712-.666661-2.729123-1.32244-4.102134-1.96723l2.663993 1.266916c-1.410118-.680425-2.826275-1.349208-4.248362-2.006234l1.584369.739318c-1.369071-.642941-2.74371-1.274957-4.12382-1.895943l2.539451 1.156625c-1.347333-.622489-2.699989-1.234424-4.057875-1.835707l1.518424.679082c-1.402769-.631183-2.811189-1.250972-4.225157-1.859257l2.706733 1.180175c-1.330685-.589239-2.666393-1.168248-4.007037-1.736935l1.300304.55676c-1.388156-.597181-2.781659-1.183275-4.180412-1.758177l2.880108 1.201417c-1.484712-.629799-2.975477-1.246939-4.472177-1.851294l1.592069.649877c-1.397213-.57427-2.799664-1.137374-4.207256-1.689208l2.615187 1.039331c-1.427896-.576572-2.861195-1.141508-4.299793-1.694698l1.684606.655367c-1.427029-.559455-2.859343-1.107328-4.29684-1.64351l2.612234.988143c-1.421623-.546662-2.848421-1.081855-4.280294-1.605471l1.66806.617328c-1.414437-.527581-2.833892-1.043844-4.258269-1.548687l2.590209.931359c-1.44958-.530092-2.904361-1.04832-4.364242-1.554575l1.774033.623216c-1.457475-.516574-2.920104-1.021191-4.387783-1.513741l2.61375.890525c-1.315277-.456109-2.634693-.9025-3.958172-1.339093l1.344422.448568c-1.460426-.490117-2.925852-.968285-4.396177-1.434398l3.051755.98583c-1.442831-.475964-2.890492-.940283-4.342884-1.392854l1.291129.407024c-1.440947-.456799-2.886598-.90202-4.336859-1.33556l3.04573.928536c-1.542234-.480565-3.089804-.947883-4.642592-1.401829l1.596862.473293c-1.468421-.438969-2.941568-.865963-4.41934-1.280877l2.822478.807584c-1.488369-.435114-2.981533-.857944-4.479389-1.268379l1.656911.460795c-1.473457-.413702-2.951512-.815394-4.434067-1.204971l2.777156.744176c-1.451404-.397707-2.907214-.783776-4.367336-1.158109l1.59018.413933c-1.500882-.394393-3.006376-.77637-4.51638-1.145822l2.9262.731889c-1.47404-.377902-2.952474-.743841-4.435206-1.097718l1.509006.365829c-1.474575-.360784-2.95345-.709624-4.43653-1.046419l2.927524.68059c-1.559561-.372213-3.123877-.731079-4.692836-1.076481l1.765312.395891c-1.520912-.345386-3.046245-.678105-4.575899-.998047l2.810587.602156c-1.442467-.317555-2.888858-.623728-4.339088-.918428l1.528501.316272c-1.50518-.314824-3.014542-.617277-4.52799-.907255l2.999489.590983c-1.539407-.312822-3.083138-.612716-4.63109-.89957l1.631601.308587c-1.526832-.292543-3.057822-.57239-4.592869-.839433l2.961268.530846c-1.496778-.277372-2.997502-.542553-4.502078-.795444l1.54081.264598c-1.527997-.265818-3.060015-.51895-4.595953-.759291l3.055143.494693c-1.56451-.262964-3.133185-.512639-4.705919-.748912l1.650776.254219c-1.527632-.239041-3.059143-.46543-4.594434-.679062l2.943658.424843c-1.555776-.233725-3.115524-.454336-4.679141-.661724l1.735483.236881c-1.55436-.216285-3.112595-.419496-4.674605-.609524l2.939122.372643c-1.504925-.199604-3.013435-.386959-4.525438-.561968l1.586316.189325c-1.552251-.188841-3.108229-.364663-4.667836-.527362l3.08152.338037c-1.578544-.18271-3.160895-.351965-4.74695-.507652l1.66543.169615c-1.551618-.161865-3.106828-.310741-4.665531-.446523l3.000101.276908c-1.622798-.159294-3.249472-.304386-4.879912-.435156l1.879811.158248c-1.555478-.135501-3.114434-.257963-4.676773-.367283l2.796962.209035c-1.558543-.125005-3.120528-.236923-4.685856-.335653l1.888894.126618c-1.59601-.111675-3.19555-.209636-4.798514-.293771l2.90962.167153c-1.500668-.094651-3.00441-.177181-4.511139-.247498l1.601519.080345c-1.573484-.082588-3.150269-.151855-4.730256-.207697l3.128737.127352c-1.653889-.077185-3.311378-.139655-4.972353-.18729l1.843616.059938c-1.57608-.055703-3.155346-.098048-4.737702-.126931l2.894086.066993c-1.607092-.04609-3.217448-.078291-4.830965-.096496l1.936879.029503c-1.69052-.030856-3.384566-.046348-5.08202-.046348zm-123.564754 7.080255-3.077284.732064c-128.699598 31.399931-224.682204 153.774959-224.682204 299.952387l.038834 5.089452c2.21541 145.078513 98.977496 265.754293 227.717081 295.594089-109.740216-50.519336-186.299779-166.268648-186.299779-300.683541 0-134.416525 76.561422-250.167015 186.303352-300.684451z"/></svg>