<svg height="960" viewBox="0 0 960 960" width="960" xmlns="http://www.w3.org/2000/svg"><path d="m502.269 6 4.482295.01536187.122959.00056552c94.564603.58027475 164.926844 17.03743491 215.785155 55.19385711 57.23799 42.9427725 85.340591 110.5417315 85.340591 203.2533715v347.181587c0 58.53581-3.746711 105.184183-12.254946 144.543539-9.585443 44.342555-25.475833 80.234525-49.374474 109.095743-46.600946 56.27768-119.756343 82.497512-232.452679 87.66327l-3.436901.149705-.139161.031754c-2.483863.526999-5.052705.82344-7.682999.871505h-75.65884c-1.105205 0-2.199935-.04508-3.282471-.133003l-.369529-.033256-.54808.010941c-53.932583.9488-96.2268-2.407972-131.663971-11.211663l-1.105185-.27689c-41.978196-10.605854-75.074967-29.298288-100.301817-57.859444-24.755157-28.027117-41.042477-64.530674-50.892248-111.484977-8.875757-42.311131-12.836699-94.325379-12.836699-161.367224v-263.518461c0-132.684597 26.383929-220.750314 83.123558-274.9594749 26.987839-25.7842376 60.062155-43.1165261 99.643136-53.5967966 32.68648-8.6547411 69.533625-12.68786176 114.580733-13.43858038l.482573-.00743012c.839322-.06583055 1.682484-.10568352 2.531837-.124zm-.504079 40.3001745c-166.450146 0-273.464536 39.9426748-273.464536 302.1129935v263.506871c0 231.776214 48.443067 297.518471 219.195997 302.081047l42.191794.001476c3.969614-.090496 7.994972-.204065 12.076745-.339755l.237079-.009807.001455-.263964c158.94969-5.344661 228.305665-51.232094 253.631604-161.114719 8.852029-38.572728 12.295504-85.020578 12.295504-140.354278v-347.166318c0-168.0993026-99.715495-218.4535465-266.165642-218.4535465zm-168.717725 8.6154511-2.360937.5013442c-102.822426 22.5458177-164.686259 93.4350632-164.686259 292.7093122v263.518461c0 194.196885 34.028103 271.840462 145.556315 294.599903-16.002368-8.386174-29.847852-18.848907-41.766106-31.628874-44.592845-47.81699-61.489824-125.753142-61.489824-262.695733v-263.506871c0-130.971713 26.127917-214.964696 80.942278-264.2435431 13.029782-11.7139491 27.59005-21.3941975 43.804533-29.2539993zm75.113886 535.2990344c51.345973 0 92.591623 45.095244 92.591623 100.300174s-41.24565 100.300175-92.591623 100.300175-92.591623-45.095245-92.591623-100.300175 41.24565-100.300174 92.591623-100.300174zm297.418848 93.936246c0 53.646236-41.006088 99.421226-92.051523 102.182217-51.561844 2.788923-93.131723-40.412342-93.131723-95.818289 0-55.121746 41.114107-101.017317 92.362043-102.194177 51.368548-1.179631 92.821203 41.899811 92.821203 95.830249zm-297.418848-73.936246c-39.882215 0-72.591623 35.762286-72.591623 80.300174 0 44.537889 32.709408 80.300175 72.591623 80.300175s72.591623-35.762286 72.591623-80.300175c0-44.537888-32.709408-80.300174-72.591623-80.300174zm206.250362-1.916352-1.193557.017077c-39.980252.918109-72.821203 37.578377-72.821203 82.199449 0 44.336872 32.38518 77.99299 72.051524 75.847481 40.182752-2.173441 73.131722-38.95429 73.131722-82.211409 0-42.543189-31.855605-76.074382-71.168486-75.852598zm-206.250362-241.631641c51.345973 0 92.591623 45.095244 92.591623 100.300174s-41.24565 100.300175-92.591623 100.300175-92.591623-45.095245-92.591623-100.300175 41.24565-100.300174 92.591623-100.300174zm203.443573 1.275926 1.539258.01061c51.211801.796979 92.436017 45.227241 92.436017 99.013638 0 53.786398-41.224216 98.216659-92.436017 99.013639-51.410358.800069-92.747229-43.751608-92.747229-99.013639 0-54.15679 39.699931-98.027356 89.674945-99.007497zm-203.443573 18.724074c-39.882215 0-72.591623 35.762286-72.591623 80.300174 0 44.537889 32.709408 80.300175 72.591623 80.300175s72.591623-35.762286 72.591623-80.300175c0-44.537888-32.709408-80.300174-72.591623-80.300174zm132.235602 80.300174c0 44.480788 32.618188 79.635722 72.436018 79.01606 40.016386-.622752 72.747228-35.899101 72.747228-79.01606 0-43.116958-32.730842-78.393308-72.747228-79.01606-39.81783-.619661-72.436018 34.535273-72.436018 79.01606zm73.131723-319.366282c51.045435 2.760992 92.051523 48.535981 92.051523 102.182218 0 53.930438-41.452655 97.009879-92.821203 95.830249-51.247936-1.176861-92.362043-47.072431-92.362043-102.194178 0-55.405947 41.569879-98.607212 93.131723-95.818289zm-205.367325-4.481885c51.345973 0 92.591623 45.095244 92.591623 100.300174s-41.24565 100.300175-92.591623 100.300175-92.591623-45.095245-92.591623-100.300175 41.24565-100.300174 92.591623-100.300174zm132.235602 100.300174c0 44.621072 32.840951 81.28134 72.821203 82.199449 39.85964.915339 72.362043-32.862602 72.362043-75.83552 0-43.25712-32.94897-80.037969-73.131722-82.21141-39.666344-2.145508-72.051524 31.51061-72.051524 75.847481zm-132.235602-80.300174c-39.882215 0-72.591623 35.762286-72.591623 80.300174 0 44.537889 32.709408 80.300175 72.591623 80.300175s72.591623-35.762286 72.591623-80.300175c0-44.537888-32.709408-80.300174-72.591623-80.300174z"/></svg>