<?xml version="1.0" encoding="utf-8"?>
<!-- Generator: Adobe Illustrator 21.0.0, SVG Export Plug-In . SVG Version: 6.00 Build 0)  -->
<svg version="1.1" id="Layer_1" xmlns="http://www.w3.org/2000/svg" xmlns:xlink="http://www.w3.org/1999/xlink" x="0px" y="0px"
	 viewBox="0 0 1417.3 925.7" style="enable-background:new 0 0 1417.3 925.7;" xml:space="preserve">
<g id="path2648">
	<path d="M1246.6,914.1L14.2,914l0-9c0,0,0-83.2,0-83.4l0.1-651.9c0-41.9,16.6-81.3,46.7-110.9c29.8-29.4,69.2-45.5,110.9-45.5
		h1231.2l0,744.3C1403.2,843.9,1332.9,914.1,1246.6,914.1z M32.3,896l1214.3,0c76.4,0,138.5-62.1,138.5-138.4v-93.8l-0.2,0
		c0-0.2,0-0.4,0-0.6c0-0.6,0.1-1.1,0.1-1.7c0.1-0.8,0.1-1.4,0.1-2.1V308.3l0-9V31.4H171.9c-36.9,0-71.8,14.3-98.3,40.3
		c-26.7,26.2-41.3,61-41.3,98l-0.1,651.9L32.3,896z M1394.6,664l5.9,5.9c0.5-0.5,2.3-2.6,2.4-5.7c0,0,0,0,0,0.1L1394.6,664z"/>
</g>
<g id="path2650">
	<path d="M124.3,850.1h1109.1c55.2,0,99.8-44.6,99.8-99.7l0-225.8C730.2,513.4,254.6,771.6,124.3,850.1"/>
</g>
<g id="path2652">
	<path d="M185.3,77.4c-55.1,0-101.2,44.4-101.2,99.4v635.9c115-70.9,612.5-352.5,1248.9-341V77.4H185.3z M728.6,186.3h31.9
		l90.8,221.3h-45.2l-18.5-46.1h-88.7l-19.4,46.1h-44.8L728.6,186.3z M399.2,186.8h28.8l59.4,141.6l61.1-141.6h29.3l36.2,220.9h-42.6
		l-19.4-133.9l-59.4,136.5H481l-57.7-136.5l-22,133.9h-42.2L399.2,186.8z M265.4,187.2c23.7,0,45.5,8.2,63.7,24.1l-22,28.8
		c-11-12.3-21.6-17.7-35.3-17.7c-17.2,0-30.6,10.8-30.6,24.1c0,11.7,7.8,17.7,33.1,27.1c24,8.8,33.3,13.8,43.1,22
		c12.7,10.7,19.4,26.5,19.4,45.6c0,42.6-30.9,71.5-75.8,71.5c-31.2,0-54.6-13.1-74-41.3l27.1-26.3c9.7,18.5,26.1,28.8,45.6,28.8
		c19.2,0,33.1-13,33.1-30.6c0-8.8-3.8-16.4-11.6-22c-4.2-3.2-12.3-6.4-30.1-12.9c-39-14-53.4-30-53.4-58.6
		C197.8,213.7,226.4,187.2,265.4,187.2z M744.1,249.6l-31.4,77.9h61.6L744.1,249.6z"/>
</g>
</svg>
