<svg height="960" viewBox="0 0 960 960" width="960" xmlns="http://www.w3.org/2000/svg"><g fill="#000" fill-rule="evenodd"><ellipse cx="712.276145" cy="136.131394" rx="7.551112" ry="8.281865"/><path d="m227.130307 1.58372919 536.388312 46.26678821c20.682182 1.7839653 36.562518 19.0930445 36.562518 39.8520228v798.6473008c0 21.16915-16.493684 38.672807-37.625503 39.929459l-539.555523 32.085912c-6.480686.385389-12.957788-.812433-18.872029-3.490038l-19.806256-8.967056c-14.30926-6.478354-23.502468-20.731972-23.502468-36.439422v-855.4983015c0-14.6360084 7.993577-28.1034096 20.841603-35.1134709l22.973468-12.53464258c6.902497-3.76609804 14.761892-5.41428133 22.595878-4.73855183zm6.562051 40.71499821v875.3539996l526.388779-31.302886v-798.6473008zm-20 4.593-12.973 7.0786671v855.4983015l12.973 5.873031zm46.538653 22.0612131 477.425136 37.2562225c5.205285.406198 9.222007 4.748579 9.222007 9.96969v741.805403c0 5.31475-4.15734 9.701025-9.464463 9.98565l-477.425135 25.604627c-5.725041.307038-10.535537-4.252382-10.535537-9.98565v-804.6662521c0-5.8294913 4.966169-10.4232203 10.777992-9.9696904zm9.222008 20.7796904v783.3050001l457.425-24.532v-723.078zm34.634047 20.3126711 395.580827 31.304222c5.200653.411553 9.211118 4.751924 9.211118 9.968835v670.657028c0 5.31184-4.152941 9.69678-9.456942 9.985243l-395.580827 21.514069c-5.727778.311511-10.543058-4.249001-10.543058-9.985244v-723.475318c0-5.833829 4.973234-10.429055 10.788882-9.968835zm9.211118 20.790835v702.095l375.58-20.427v-651.946z" fill-rule="nonzero"/></g></svg>