<svg width="960" height="960" viewBox="0 0 960 960" fill="none" xmlns="http://www.w3.org/2000/svg">
<path d="M515.513 3.2041C515.904 3.20067 516.296 3.20806 516.686 3.22754C589.952 6.88323 641.683 56.686 675.738 117.299C709.868 178.046 728.543 253.243 735.083 316.862C741.629 380.557 738.317 472.366 731.482 555.071C724.667 637.534 714.114 713.738 705.391 746.029C697.151 776.533 682.582 826.672 657.417 870.111C632.511 913.101 594.201 954.531 536.917 957.742C499.271 959.853 465.43 954.795 435.717 940.781C435.533 940.694 435.35 940.605 435.168 940.513L366.323 905.43C365.88 905.204 365.446 904.961 365.021 904.703C321.627 878.346 292.817 831.326 273.995 765.748C241.666 653.114 245.118 552.777 263.388 328.133C275.922 174.013 310.941 93.325 368.033 57.0186C368.514 56.7127 369.008 56.4278 369.513 56.1641L430.237 24.4814L430.82 24.1885C430.99 24.1068 431.161 24.0288 431.333 23.9521C457.512 9.39318 486.061 4.03479 515.123 3.21094L515.513 3.2041ZM515.376 43.2236C490.181 44.0313 468.376 48.7759 449.457 59.6523C448.919 59.9611 448.37 60.2394 447.813 60.4941C434.882 68.1971 423.116 78.9171 412.462 93.5312C384.083 132.46 361.935 201.152 352.22 320.529C332.587 561.784 329.893 661.7 362.1 773.84C378.181 829.831 400.037 866.487 427.321 888.697C432.454 892.876 437.87 896.614 443.59 899.91L453.015 904.713C472.326 913.771 495.09 918.357 522.177 918.197C526.202 918.17 530.32 918.041 534.533 917.805C571.486 915.735 600.143 889.038 622.746 850.054C645.09 811.515 658.58 765.815 666.751 735.594C674.438 707.161 684.795 634.194 691.612 551.775C695.01 510.688 697.469 467.948 698.308 427.998C698.334 426.75 698.359 425.504 698.382 424.262C698.415 422.484 698.444 420.712 698.47 418.946C696.291 420.155 693.66 420.558 691.061 419.869C667.598 413.65 626.727 410.376 580.484 409.005C582.504 485.161 582.08 574.688 577.232 675.683C576.967 681.199 572.28 685.456 566.763 685.191C561.247 684.926 556.99 680.24 557.254 674.724C562.103 573.711 562.5 484.343 560.464 408.53C554.749 408.428 548.981 408.351 543.181 408.298C482.741 407.742 420.215 409.739 381.138 411.752C375.623 412.036 370.922 407.796 370.637 402.28C370.353 396.765 374.593 392.063 380.109 391.778C419.502 389.749 482.441 387.738 543.365 388.298C548.875 388.349 554.38 388.421 559.861 388.516C555.706 264.326 545.097 179.458 537.819 143.17C536.733 137.755 540.242 132.485 545.657 131.398C551.072 130.312 556.342 133.822 557.428 139.236C564.981 176.892 575.73 263.274 579.888 388.976C627.019 390.334 670.321 393.681 696.186 400.537C697.059 400.769 697.874 401.111 698.621 401.541C698.681 371.713 697.677 344.161 695.29 320.954C689.124 261.014 671.537 191.527 640.82 136.898C610.19 82.4255 568.761 46.2418 515.376 43.2236ZM524.009 772.077C550.307 769.449 579.123 767.149 605.547 772.206C617.191 774.434 622.876 784.386 624.748 793.779C626.648 803.317 625.4 814.709 621.571 825.792C613.857 848.118 594.661 871.978 562.356 880.349C532.359 888.121 509.12 886.204 492.059 877.121C474.861 867.965 465.61 852.418 461.937 836.513C458.642 822.243 457.464 806.944 468.198 794.493C478.145 782.955 496.389 776.391 523.455 772.148L523.731 772.104L524.009 772.077ZM388.819 91.208C349.467 116.698 315.627 179.27 303.256 331.375C284.911 556.953 282.425 650.134 312.442 754.713C329.184 813.043 352.547 848.603 382.1 868.171C366.19 844.847 353.227 815.394 342.877 779.36C309.513 663.191 312.691 559.694 332.286 318.907C341.461 206.154 361.785 134.737 390.376 90.3955L388.819 91.208ZM601.789 791.85C585.791 788.788 568.419 788.751 550.488 789.891C555.508 800.203 558.577 813.054 555.228 826.25C551.267 841.857 539.145 855.141 516.957 864.415C527.237 866 540.467 865.36 557.34 860.988C582.054 854.585 596.739 836.416 602.667 819.261C605.658 810.603 606.17 802.892 605.133 797.688C604.068 792.341 602.118 791.913 601.789 791.85ZM526.3 791.947C499.695 796.143 488.167 801.96 483.346 807.552C479.298 812.248 478.384 818.846 481.424 832.013C483.14 839.443 486.376 846.254 491.416 851.733C523.554 843.769 533.389 830.999 535.843 821.33C538.378 811.342 534.352 800.117 528.437 791.737C527.725 791.807 527.013 791.876 526.3 791.947ZM637.161 455.638C649.464 455.563 659.709 462.487 666.503 471.859C673.311 481.251 677.25 493.748 677.332 507.117C677.413 520.487 673.628 533.031 666.936 542.505C660.257 551.96 650.098 559.009 637.794 559.085C625.49 559.16 615.244 552.236 608.45 542.863C601.643 533.472 597.704 520.975 597.622 507.605C597.54 494.236 601.325 481.692 608.017 472.218C614.696 462.762 624.857 455.713 637.161 455.638ZM483.252 449.53C509.502 446.875 530.392 469.806 533.09 496.478C535.788 523.149 519.914 549.799 493.665 552.454C467.415 555.109 446.526 532.178 443.828 505.507C441.13 478.836 457.004 452.186 483.252 449.53ZM637.283 475.637C633.098 475.662 628.387 478.045 624.353 483.757C620.332 489.45 617.562 497.809 617.622 507.482C617.681 517.156 620.552 525.481 624.643 531.125C628.747 536.787 633.487 539.111 637.671 539.085C641.856 539.059 646.566 536.677 650.6 530.966C654.621 525.272 657.392 516.913 657.333 507.239C657.273 497.565 654.401 489.241 650.31 483.598C646.206 477.936 641.467 475.611 637.283 475.637ZM513.192 498.49C511.251 479.308 497.324 468.209 485.265 469.429C473.206 470.649 461.786 484.312 463.726 503.494C465.667 522.676 479.593 533.775 491.652 532.556C503.711 531.336 515.132 517.672 513.192 498.49ZM637.16 258.128C649.464 258.053 659.71 264.978 666.504 274.351C673.311 283.742 677.251 296.238 677.333 309.607C677.414 322.977 673.628 335.521 666.937 344.995C660.258 354.451 650.098 361.5 637.793 361.575C623.425 361.663 611.984 352.296 605.317 340.457C602.607 335.645 604.311 329.547 609.124 326.837C613.936 324.127 620.034 325.831 622.744 330.643C627.12 338.414 632.84 341.606 637.671 341.576C641.856 341.55 646.567 339.168 650.601 333.457C654.622 327.764 657.392 319.404 657.333 309.73C657.273 300.057 654.402 291.732 650.311 286.088C646.207 280.426 641.467 278.102 637.283 278.128C631.995 278.16 625.589 282.15 621.312 291.607C619.036 296.639 613.113 298.875 608.081 296.6C603.048 294.324 600.814 288.399 603.089 283.367C609.29 269.656 621.339 258.225 637.16 258.128ZM483.252 248.701C509.502 246.046 530.392 268.977 533.09 295.648C535.788 322.32 519.914 348.97 493.665 351.625C467.415 354.28 446.526 331.349 443.828 304.678C441.13 278.006 457.004 251.357 483.252 248.701ZM513.192 297.661C511.251 278.479 497.324 267.38 485.265 268.6C473.206 269.82 461.786 283.483 463.726 302.665C465.667 321.847 479.593 332.946 491.652 331.727C503.711 330.506 515.132 316.843 513.192 297.661Z" fill="black"/>
</svg>
