<?xml version="1.0" encoding="UTF-8"?>
<svg width="960px" height="960px" viewBox="0 0 960 960" version="1.1" xmlns="http://www.w3.org/2000/svg" xmlns:xlink="http://www.w3.org/1999/xlink">
    <title>se.cohen.renaultze/capabilities/availablenergy</title>
    <g id="se.cohen.renaultze/capabilities/availablenergy" stroke="none" stroke-width="1" fill="none" fill-rule="evenodd">
        <path d="M557,21 C583.509668,21 605,42.490332 605,69 L605,69 L605,101 L617,101 C651.992762,101 680.426255,129.083566 680.991426,163.941643 L680.991426,163.941643 L681,165 L681,876 C681,911.346224 652.346224,940 617,940 L617,940 L343,940 C307.653776,940 279,911.346224 279,876 L279,876 L279,165 C279,129.653776 307.653776,101 343,101 L343,101 L355,101 L355,69 C355,42.7554287 376.062674,21.4303086 402.206232,21 L402.206232,21 Z M343,141 C329.745166,141 319,151.745166 319,165 L319,165 L319,876 C319,889.254834 329.745166,900 343,900 L343,900 L617,900 C630.254834,900 641,889.254834 641,876 L641,876 L641,165 C641,151.745166 630.254834,141 617,141 L617,141 Z M595,271.5 C604.388841,271.5 612,279.111159 612,288.5 L612,850.5 C612,859.888841 604.388841,867.5 595,867.5 L365,867.5 C355.611159,867.5 348,859.888841 348,850.5 L348,288.5 C348,279.111159 355.611159,271.5 365,271.5 L595,271.5 Z M557,61 L403,61 C398.581722,61 395,64.581722 395,69 L395,69 L395,101 L565,101 L565,69 C565,64.6650857 561.552162,61.1354571 557.249179,61.0038068 L557,61 Z" id="Combined-Shape" fill="#000000" fill-rule="nonzero"></path>
    </g>
</svg>