<?xml version="1.0" encoding="UTF-8"?>
<svg width="960px" height="960px" viewBox="0 0 960 960" version="1.1" xmlns="http://www.w3.org/2000/svg" xmlns:xlink="http://www.w3.org/1999/xlink">
    <title>se.cohen.renaultze/capabilities/timetofullcharge2</title>
    <g id="se.cohen.renaultze/capabilities/timetofullcharge2" stroke="none" stroke-width="1" fill="none" fill-rule="evenodd">
        <path d="M479.5,10.5 C220.749603,10.5 11,220.483438 11,479.5 C11,738.516562 220.749603,948.5 479.5,948.5 C738.250397,948.5 948,738.516562 948,479.5 C948,220.483438 738.250397,10.5 479.5,10.5 Z M479.5,50.5 C716.149024,50.5 908,242.564857 908,479.5 C908,716.435143 716.149024,908.5 479.5,908.5 C242.850976,908.5 51,716.435143 51,479.5 C51,242.564857 242.850976,50.5 479.5,50.5 Z" id="Oval" fill="#000000" fill-rule="nonzero"></path>
        <path d="M480.028229,101.000361 C688.840224,101.285514 858,270.42692 858,479 C858,687.769889 688.533534,857 479.5,857 C272.798057,857 104.397517,691.381079 101.050664,485.244864 L101.050664,485.244864 L101.007986,480.162027 C100.918296,469.053099 109.89874,459.999322 121.008037,459.999342 L121.008037,459.999342 L460,460 L460.000917,121.000291 C460.000945,110.059119 468.785975,101.172129 479.683405,101.000361 L479.683405,101.000361 Z" id="Combined-Shape" fill="#000000"></path>
    </g>
</svg>