<svg height="960" viewBox="0 0 960 960" width="960" xmlns="http://www.w3.org/2000/svg"><g fill="#000" fill-rule="nonzero"><path d="m856 319c47.496488 0 86 38.503512 86 86v148c0 47.496488-38.503512 86-86 86h-752c-47.4964885 0-86-38.503512-86-86v-148c0-47.496488 38.5035115-86 86-86zm0 40h-752c-25.4050985 0-46 20.594902-46 46v148c0 25.405098 20.5949015 46 46 46h752c25.405098 0 46-20.594902 46-46v-148c0-25.405098-20.594902-46-46-46z"/><path d="m173.634327 335.509454c5.522847 0 10 4.477152 10 10v269.907674c0 5.522848-4.477153 10-10 10-5.522848 0-10-4.477152-10-10v-269.907674c0-5.522848 4.477152-10 10-10z"/><path d="m786.134327 335.509454c5.522847 0 10 4.477152 10 10v269.907674c0 5.522848-4.477153 10-10 10-5.522848 0-10-4.477152-10-10v-269.907674c0-5.522848 4.477152-10 10-10z"/><path d="m369.452057 400.84494.000192 102.862648c.007168 10.720235.214659 17.551647.57931 20.110969l.038334.266113c.7087 5.605172 2.307873 10.16752 4.754187 13.745254 2.385087 3.488189 6.185678 6.516302 11.496447 9.043717 5.405739 2.572611 10.773447 3.842218 16.147034 3.842218 4.60445 0 9.000803-.973478 13.238082-2.93401 4.213925-1.949727 7.696891-4.624147 10.499932-8.050086 2.823117-3.450476 4.916741-7.669446 6.270661-12.698276.928091-3.464872 1.454707-11.354043 1.472591-23.272889l.000471-102.915658h26.10455v102.284632c0 14.859982-1.464865 26.978409-4.45143 36.403542-3.129345 9.875727-9.358814 18.431134-18.564614 25.604485-9.342435 7.279819-20.634571 10.915927-33.693805 10.915927-13.953801 0-26.060897-3.374108-36.195251-10.156944-10.220065-6.840201-17.140826-16.000031-20.613685-27.307342-2.132023-6.790889-3.154336-18.243274-3.18676-34.648842l-.000797-103.095458zm133.816987 0 1.298401 3.031379 48.799095 113.930621 49.714185-113.96123 1.309043-3.00077h28.430758l-3.043272 6.99477-70.11505 161.15506-1.30751 3.00523h-10.078901l-1.299275-3.028896-69.129057-161.15506-2.990324-6.971104z"/><path d="m634.138435 675.145467c4.340066-3.415504 10.627198-2.665997 14.042702 1.674069 3.415504 4.340067 2.665997 10.627199-1.674069 14.042703-47.128152 37.088457-105.267322 57.589613-166.507068 57.589613-61.239678 0-119.378634-20.501106-166.506556-57.589634-4.340056-3.415518-5.089541-9.702652-1.674023-14.042708 3.415518-4.340055 9.702652-5.089541 14.042708-1.674023 43.632846 34.337988 97.425145 53.306365 154.137871 53.306365 56.712807 0 110.505344-18.968437 154.138435-53.306385zm-154.138435-465.597319c60.65477 0 118.27455 20.109852 165.17837 56.550657 4.361271 3.388385 5.149951 9.670723 1.761565 14.031995-3.388386 4.361271-9.670724 5.149951-14.031995 1.761565-43.424842-33.737896-96.736628-52.344217-152.90794-52.344217s-109.483098 18.606321-152.90794 52.344217c-4.361271 3.388386-10.643609 2.599706-14.031995-1.761565-3.388386-4.361272-2.599706-10.64361 1.761565-14.031995 46.90382-36.440805 104.5236-56.550657 165.17837-56.550657z"/><path d="m741.051144 676.954861c3.340416-4.398121 9.61374-5.255559 14.01186-1.915142 4.39812 3.340416 5.255558 9.61374 1.915142 14.01186-65.3269 86.011898-166.887678 137.548421-276.978146 137.548421s-211.651246-51.536523-276.978146-137.548421c-3.340416-4.39812-2.482978-10.671444 1.915142-14.01186 4.39812-3.340417 10.671444-2.482979 14.01186 1.915142 61.584542 81.084565 157.280747 129.645139 261.051144 129.645139s199.466602-48.560574 261.051144-129.645139zm-261.051144-545.554861c109.633023 0 210.819396 51.106444 276.191446 136.51661 3.356746 4.38567 2.522638 10.662138-1.863032 14.018884s-10.662138 2.522638-14.018884-1.863032c-61.627123-80.517328-156.970155-128.672462-260.30953-128.672462s-198.682407 48.155134-260.30953 128.672462c-3.356746 4.38567-9.633214 5.219778-14.018884 1.863032s-5.219778-9.633214-1.863032-14.018884c65.37205-85.410166 166.558423-136.51661 276.191446-136.51661z"/><path d="m840.751542 678.164179c2.673758-4.83248 8.758766-6.582471 13.591246-3.908713s6.58247 8.758766 3.908713 13.591246c-75.56139 136.567698-219.306339 223.153288-378.251501 223.153288s-302.690111-86.58559-378.251501-223.153288c-2.6737575-4.83248-.923767-10.917488 3.908713-13.591246s10.917488-.923767 13.591246 3.908713c72.073403 130.263601 209.155562 212.835821 360.751542 212.835821s288.678139-82.57222 360.751542-212.835821zm-360.751542-631.164179c158.529013 0 301.95557 86.130658 377.685648 222.133837 2.686815 4.825233.953284 10.914951-3.87195 13.601765-4.825233 2.686814-10.91495.953283-13.601764-3.87195-72.23447-129.725438-209.012727-211.863652-360.211934-211.863652s-287.977464 82.138214-360.211934 211.863652c-2.686814 4.825233-8.776531 6.558764-13.601764 3.87195-4.825234-2.686814-6.5587645-8.776532-3.87195-13.601765 75.730078-136.003179 219.156635-222.133837 377.685648-222.133837z"/></g></svg>