<?xml version="1.0" encoding="utf-8"?>
<!-- Generator: Adobe Illustrator 21.0.0, SVG Export Plug-In . SVG Version: 6.00 Build 0)  -->
<svg version="1.1" id="Layer_1" xmlns="http://www.w3.org/2000/svg" xmlns:xlink="http://www.w3.org/1999/xlink" x="0px" y="0px"
	 viewBox="0 0 1417.3 647" style="enable-background:new 0 0 1417.3 647;" xml:space="preserve">
<g>
	<path d="M1394.9,531.2c-2,0.8-2.7-0.1-3-2c-0.5-3.1-0.9-6.2-1.6-9.3c-4.1-16.7-13.8-29.3-28.9-37.5c-1-0.5-2.1-0.8-3.7-1.4
		c-0.4,2.6-0.8,4.8-1,6.9c-1.1,9.1-8.2,16.2-17.8,17.5c-9.3,1.3-17.7-3.4-21.4-12c-3.7-8.6-1.2-17.8,6.2-23.7
		c4.4-3.4,9.4-4.1,14.8-3.7c-0.6-15.4-27.5-32.8-45.6-29.2c-0.3,2.8-0.8,5.7-0.8,8.6c-0.2,14.1-0.2,28.1-0.4,42.2
		c-0.2,15.1,0,30.2-0.8,45.3c-1.2,22.1-6,43.3-19,61.7c-9.9,14-23.5,22.2-40.8,22.7c-16.1,0.4-28.2-6.5-35-21.7
		c-5.9-13-9.3-26.5-10.3-40.6c-1.8-24.8,2.1-48.6,13.3-71c9.2-18.4,21.3-34.6,37.2-47.8c2.1-1.8,3.3-3.5,3.2-6.4
		c-0.2-7-0.1-14.1-0.1-21.9c-0.9,1.8-1.4,2.9-2,4.1c-7.9,16.6-21.4,25.2-39.2,27.7c-14,1.9-26.8-0.8-37.7-10.3
		c-8.4-7.2-13.4-16.3-14.6-27.4c-0.1-0.7-0.3-1.4-0.6-2.7c-1.1,1.3-1.8,2.2-2.5,3.1c-4.4,5.6-8.7,11.4-13.3,16.9
		c-11.8,14.1-26.9,21.7-45.3,23.3c-15.8,1.4-29.3-3.1-40.2-14.5c-3.2-3.4-5.7-7.7-8.3-11.6c-1.1-1.7-1.9-3.7-2.7-5.4
		c-3.6,5.1-6.7,10.4-10.7,15c-8.9,10.3-20.3,15.8-34.1,16.4c-12.2,0.5-21.6-5-29.7-13.3c-6.4-6.4-11.2-14-15.2-22.1
		c-0.5-1-1.1-2.1-1.9-3.7c-0.7,1.7-1.1,2.8-1.6,4c-2.3,5.5-4.6,11-7.1,16.4c-4.5,9.8-12.4,15.3-23.1,16c-6.2,0.4-12.6,0.6-18.8-0.1
		c-9.7-1.1-15.9-7.6-17.2-17.3c-0.4-3.2-0.3-6.6-0.4-9.9c-0.7-23.6-1.3-47.2-2-70.8c-0.6-19.4-1.2-38.8-1.8-58.3
		c-0.6-19.4-1.2-38.8-1.8-58.3c-0.6-19.4-1.2-38.8-1.8-58.3c-0.3-8.4-0.6-16.7-0.8-25.1c-0.1-5.6,3-9.8,8.5-10.2
		c9.1-0.6,18.3-0.6,27,2.6c16.5,6.2,26.2,20.4,26.6,38.8c0.5,22.3,0.8,44.6,1.3,66.8c0.5,20.5,1.2,40.9,1.8,61.9
		c1.7-5.4,3.2-10.3,4.9-15.2c3.6-10.3,7.9-20.4,14.9-29c4.7-5.9,10.4-10.4,18.1-11.5c14.9-2.1,26.7,5,31.1,18.3
		c2.6,8,2.4,16.3,1.4,24.4c-2.9,25.8-15.7,47-31.4,66.9c-3.3,4.2-7,8.2-10.9,11.9c-2.1,2.1-2.8,4.1-2,6.8
		c3.8,13.7,9.5,26.5,18.6,37.5c9.9,12,26.8,12.7,38.3,1.8c6.9-6.5,10.5-14.7,11.3-23.8c1-10.8,1-21.8,0.9-32.7
		c-0.1-10.3-1.1-20.6-1.4-30.9c-0.5-14.8-0.8-29.6-1.1-44.4c-0.6-26.2-1.2-52.3-1.7-78.5c-0.2-13,2-25.7,7.7-37.5
		c10.6-22.1,28.1-34.7,52.6-37.5c11.2-1.3,22,0.5,32.7,3.9c16.9,5.4,28,16.8,33.3,33.7c7.5,23.6,6,47-2.8,69.8
		c-11.5,30.1-31,53.3-60.6,67.3c-2.5,1.2-3.5,2.8-3.4,5.5c0.6,19.9,1.2,39.7,1.8,59.6c0.2,7.2,0.8,14.3,1.1,21.5
		c0.3,6.3,2,12.1,5.3,17.4c5.2,8.6,11.9,10.7,20.9,6.1c9.8-5,17.2-12.8,23.1-22c7.7-12,11.7-25.1,11.5-39.4
		c-0.3-21.4-0.7-42.8-1.1-64.1c-0.1-4.6-0.5-9.2-0.6-13.9c-0.2-6.2,2.6-8.6,8.8-8.1c8.9,0.6,17.5,1.9,25.2,6.9
		c10.3,6.7,15.8,15.9,15.7,28.4c-0.4,31.7-0.8,63.4-1.2,95.1c0,2.8-0.5,5.7-0.5,8.5c0.1,5.7,2.9,9.9,7.6,11.6
		c4.7,1.7,9.6,0.3,13.4-3.8c3.6-3.9,4.9-8.8,5.4-14c0.2-2.1,0.1-4.2,0.1-6.3c0-33.4,0-66.7-0.1-100.1c0-4.9,0.7-9.6,3.1-13.8
		c5.1-8.9,13.3-12.2,23.1-11.6c23.7,1.5,37.4,15.9,45.9,36.6c3.2,7.8,4.4,16.1,4.3,24.6c-0.2,26.3-0.4,52.6-0.7,79
		c0,3.1,0,6.2,0,9.5c3.7,0.5,7,0.7,10.1,1.3c26.8,4.9,44.2,20.3,52.2,46.4c0.3,1.1,0.2,2.5,0.8,3.5c0.8,1.5,1.7,3.3,3,4
		c19.3,9.7,31.3,24.9,35.6,46.2c0.1,0.3,0.3,0.5,0.4,0.8C1394.9,522.8,1394.9,527,1394.9,531.2z M1079.8,288.6c1,0,1.3,0.1,1.6,0
		c0.5-0.3,1-0.6,1.5-0.9c21.1-15.9,35.9-36.2,43.1-61.7c3.2-11.5,4.2-23.2,1.1-35c-3.4-12.7-16.4-18.3-27.9-11.8
		c-13.8,7.8-21,19.9-20.8,35.7c0.1,17.8,1,35.5,1.5,53.3C1080,275,1079.8,281.8,1079.8,288.6z M1242.1,455.6
		c-0.9,0.5-1.4,0.7-1.7,0.9c-14.2,14.3-25.7,30.3-31.9,49.7c-5.5,17.1-5.9,34.6-3.1,52.3c0.8,5.3,2,10.6,4,15.5
		c2.7,6.9,8.4,7.5,13.2,1.7c2.3-2.9,4.3-6.1,6-9.4c6.8-12.9,9.8-26.9,11.6-41.2C1243,502.3,1241.9,479.3,1242.1,455.6z M951.9,348.3
		c3.2-4,6.6-8,9.6-12.1c8.1-11.2,14.6-23.2,16.3-37.3c0.5-4.7-0.6-8.1-3.4-9.4c-3-1.3-7.1-0.5-9.6,2.8c-2.2,2.9-3.9,6.3-5,9.8
		C955.2,316.9,952.9,332.2,951.9,348.3z M1345.5,483c0-1.3,0.3-2.7-0.1-4c-0.3-0.9-1.3-2.2-2-2.3c-2.3-0.3-4.8-0.4-7.1,0.2
		c-3.8,0.9-6.4,5.9-5.4,9.5c1.2,4.2,5,6.7,9.2,5.9C1344,491.6,1345.6,488.9,1345.5,483z"/>
	<path d="M24.1,235.8c8-3.8,16.3-6.8,25.1-8c7.2-1,13.9,0.8,20.5,3.7c13.1,6,25.9,3.2,39-1.3c-0.8-1-1.1-1.6-1.7-2.1
		c-9.7-9.6-8.5-28.4,8.1-36.1c6.5-3,13.3-3.3,20.1-1.3c10,3,14.7,11.4,11.3,21.3c-1.4,4.1-4.2,7.8-6.5,11.6
		c-0.7,1.2-1.9,2.2-3.1,3.6c9.2,3.8,18,3.8,26.9,0.6c8.3-3,16.6-5.9,25-8.4c7.5-2.3,7.6-2,7.5-9.9c-0.3-29.2-0.7-58.3-1-87.5
		c-0.1-8.3,2.8-11.4,10.9-11c6.8,0.3,13.8,0.4,20.5,1.7c16.7,3.4,28.7,18.3,29.2,35.2c0.6,20.3,1.1,40.6,1.7,60.9
		c0,0.9,0.2,1.8,0.3,2.5c15.8,2,31.5,3.5,47,6.1c15.4,2.6,30.4,6.8,44.8,12.8c0,0.5,0,1.1,0,1.6c-1.6,0.4-3.1,1.2-4.6,1.2
		c-9.9-0.2-19.7-0.8-29.6-1c-11.6-0.2-23.3-0.1-34.9,0.1c-7.3,0.1-14.6,0.8-22.3,1.2c-0.1,1.6-0.4,2.9-0.4,4.2
		c0.3,16.3,0.6,32.6,0.9,48.9c0.3,18.5,0.6,37.1,0.9,55.6c0.3,16,0.5,32,1,48c0.2,5.2,0.6,10.5,1.9,15.5
		c2.8,11.2,12.1,14.9,22.2,9.1c9.5-5.5,15.5-13.9,19.4-23.9c1.5-3.8,2.3-7.7,3.7-11.5c0.5-1.2,1.7-2.1,2.7-3.2
		c1.1,1.1,2.8,2,3.1,3.3c1.8,6.2,1,12.5-0.7,18.6c-6.8,24-23,38.1-46.9,43.8c-11.5,2.8-22.9,1.8-33.8-3
		c-12.2-5.5-20.6-14.3-22.4-28.1c-1.9-14.3-3.9-28.7-5.3-43.1c-1.7-18.4-3.1-36.9-4.2-55.4c-1-17-1.5-34-2.2-51.1
		c-0.2-6-0.5-11.9-0.8-17.9c0-0.7-0.4-1.4-0.7-2.7c-7,1.7-13.7,3.4-20.5,5.1c-4.1,1-8,2.4-12.1,3.2c-15.2,2.9-29.1-1-42-8.9
		c-2.6-1.6-4.7-1.8-7.5-0.8c-11.6,4.2-23.5,5.8-35.7,3.4c-3.9-0.8-7.9-2.1-11.3-4.1c-8.8-5.1-18-6-27.7-3.5c-3.6,0.9-7.2,2-10.8,2.8
		c-1.5,0.3-3.2,0.1-4.7,0.1C24.1,237,24.1,236.4,24.1,235.8z M124.8,221c4.5-3.2,7.6-6.8,9.1-11.5c1-3.1,0.2-5-2.6-5.5
		c-4.4-0.9-8.6-0.2-12.1,3c-3.4,3.1-3.3,6.9,0.1,10C121,218.5,122.9,219.6,124.8,221z"/>
	<path d="M621.1,34.7c15.6,11.9,23.8,28.4,28.7,46.9c1.3,5.1,1.3,5.1,6.4,4.2c11.8-2,23.5-1.3,35.1,1.7c6.2,1.6,11.8,4.3,15.8,9.6
		c4.4,5.9,5.3,12.5,3.4,19.6c-2.3,8.4-7.5,14.9-13.3,21c-4.7,4.8-9.6,9.5-14.6,13.9c-2.6,2.3-3.3,4.4-2.3,7.8
		c3,11,5.7,22.1,4.6,33.6c-0.7,7.4-1.8,14.8-3.6,22.1c-2,8.3-10.6,13.3-18.4,10.5c-16.1-5.7-31.8-12.3-44.8-24
		c-1.9-1.7-3.7-3.4-5.8-5.3c-2,1.6-3.7,2.9-5.4,4.4c-11.6,10.7-25.2,18.2-39.5,24.4c-13.6,5.9-27.6-2.7-29.1-17.5
		c-1.9-19.2-0.2-37.9,6.3-56.1c1-2.7-0.1-4.1-1.7-5.8c-10.9-11.5-19.7-24.4-26.7-38.6c-4.5-9.2-1.7-15.2,5.9-21.4
		c3.6-2.9,8.2-4.9,12.7-6.4c23.2-7.3,44.7-3,63.9,11.5c6.2,4.7,11.3,11.1,16.7,16.8c1.2,1.2,2.8,3.2,0.9,4.6c-1,0.8-3.5,0.4-4.8-0.3
		c-9.3-5.3-18.8-9.9-29.4-11.9c-8.5-1.6-16.9-1.8-25.3,0.7c-1.5,0.4-3,1.1-5.3,2c3.4,3.3,6.1,6.3,9.1,8.9c6,5,12.1,9.8,18.2,14.6
		c1.6,1.3,3.4,2.5,4.9,3.9c6.9,6,8.3,11.4,5.1,19.9c-2.5,6.7-4.9,13.4-7.3,20.1c0.3,0.3,0.5,0.5,0.8,0.8c1.1-0.5,2.3-0.8,3.2-1.5
		c5.8-4,11.6-7.9,17.4-12c10.3-7.3,19.3-5.9,27.4,4c6,7.3,12.4,14.1,18.8,21.1c1.5,1.6,3.3,2.8,5.6,4.7c0-4.1,0.4-7.3-0.1-10.5
		c-1.2-8.1-2.6-16.2-4.3-24.2c-1.4-6.2,0.8-10.3,5.6-13.9c7.5-5.5,14.9-11,22.1-16.8c3.1-2.5,5.9-5.5,8.6-8.5c2.6-3,2.2-4.7-1.6-6
		c-11.3-3.9-22.9-5.7-34.8-2.6c-10.9,2.8-13.8,0.5-14.3-10.7c-0.7-15.8-4.7-30.7-14.2-43.7c-0.6-0.8-1.3-1.6-2.3-2.7
		c-1.6,1.7-3,3.1-4.3,4.6c-6.5,8-11.8,16.6-14.1,26.7c-0.1,0.4-0.2,1-0.5,1.2c-1,1.1-2.2,2.9-3.3,2.8c-2.3-0.2-1.8-2.4-1.5-3.9
		c1.4-8,4-15.7,8.3-22.6c4.7-7.5,10-14.5,15-21.8C619.9,34.7,620.5,34.7,621.1,34.7z"/>
	<path d="M678.4,407.4c-1.1,2-2.3,4.1-3.4,6.1c-5.5,9.6-12,18.3-22,23.6c-20.6,11-47.5,7.4-63-14.5c-7.6-10.7-11.6-22.9-13.9-35.6
		c-3.5-19.6-3.5-39.2-2-59c0.4-5,0.7-10,1-15c-9.8,1.8-19.1,3.5-28.5,5.2c0,3.2-0.1,6.6,0,10c0.4,17.5,0.9,35,1.2,52.5
		c0.1,6.5,0.4,13.2-0.8,19.6c-4.6,23.2-23,39.1-46.5,42.3c-26.2,3.6-46.2-7-63.4-25.4c-1.3-1.4-2.5-2.8-4-4.4
		c-2.6,3.9-4.7,7.6-7.2,10.9c-7.6,10.1-17,17.7-30.1,19.2c-8.3,0.9-16.4-0.7-24.2-3.5c-23.8-8.7-36.9-26.5-42.4-50.5
		c-3.1-13.5-2.8-27.3-2.6-41.1c0.2-15.5,0.8-31.1,0.6-46.6c-0.1-9.6-2.6-18.7-10.4-25.4c-2-1.7-4.4-3-6.6-4.7
		c-3.2-2.4-2.9-5,0.6-6.9c13.4-7,27.3-8,41.8-3.9c12.2,3.4,19.9,11.4,23.2,23.3c1.7,6.1,2.8,12.6,2.9,19c0.6,22.6,0.7,45.1,1.1,67.7
		c0.1,6.9,0.4,13.7,0.8,20.6c0.6,10,9.1,18.1,19.6,18.7c15.6,0.9,24.8-8.2,24.7-25.4c-0.1-15.2-0.8-30.5-1.4-45.7
		c-0.7-18.8-1.4-37.6-2.1-56.5c-0.3-6.6-0.7-13.1-0.8-19.7c-0.1-4.9,2.3-6.8,7.1-5.9c5.4,1,10.9,1.9,16.2,3.3
		c17.9,4.7,29.9,18.6,31.9,36.9c0.4,3.9,0.7,7.7,0.8,11.6c0.7,23.5,1.3,46.9,2,70.4c0.1,4.2,0.7,8.4,1.6,12.4
		c2.8,12.4,9.8,17.4,22.4,15.8c7.8-1,14.6-4.4,19.8-10.5c3.2-3.7,5.1-8,5-13.1c-0.3-21.2-0.6-42.5-0.8-63.7c0-2.9-1.2-4.1-4-4.8
		c-7.8-1.8-15-5.1-21.4-10c-18.7-14.3-15.1-44.3,6.5-53.8c12.7-5.6,27.2-0.4,34.3,12.1c3.2,5.6,4.5,11.7,4.6,18c0,6.4,0,12.8,0,19.6
		c1.8,0,3.2,0.3,4.4,0c9.7-2.4,18.7-6.5,26.3-13c2.8-2.4,5-5.5,7.3-8.5c5.1-6.8,11.4-11.9,19.9-13.6c5.2-1,10.4-1.2,15.4,1.2
		c6.6,3.3,10.3,8.6,10.5,16c0.4,15.5,0.7,31.1,0.9,46.6c0.3,19.6,0.6,39.2,0.9,58.7c0.1,3.3,0.4,6.6,0.6,9.8
		c0.4,6.6,3.7,11.4,9.6,14c5.8,2.5,11.5,1.8,16.5-2.1c5.5-4.2,8.6-10.1,10.2-16.5c1.5-6.2,2.8-12.6,2.8-19c0-32.1-0.5-64.3-0.8-96.4
		c0-2.7-0.6-5.4-0.4-8c0.2-4.7,2.3-6.4,6.9-5.9c5.3,0.6,10.7,1.2,16,2.2c8.2,1.7,15.1,5.7,20,12.6c1.3,1.8,2.7,3.5,4.1,5.5
		c0.7-0.6,1.3-1,1.9-1.5c21.2-20.3,45.7-25,73.7-17.3c24.6,6.8,34.9,29.1,35.1,47.6c0.3,21.5,0.8,43.1,1.2,64.6
		c0.2,9,0.6,17.9,0.8,26.9c0.4,14.5,12.8,27.1,27.2,27.7c2.2,0.1,4.5-0.2,6.7,0c2.8,0.2,4.9,1.5,5.5,4.4c0.5,2.8-0.6,5.3-3.3,6.2
		c-5.4,1.8-10.8,4-16.3,4.6c-25.2,3-45.8-5.5-61.5-25.5c-7.5-9.6-10.8-20.8-11.5-32.9c-1.1-19.5-2.5-39.1-3.9-58.6
		c-0.4-6.4-1.1-12.8-1.6-19.2c-1.1-14.2-16.4-23.8-29.5-18c-4.8,2.1-9.1,5.7-13.1,9.2c-3.6,3.2-4.9,7.6-4.8,12.5
		c0.5,15.7,0.7,31.4,1.1,47.1c0.5,19.6,1.2,39.1,1.7,58.7c0.3,12.8-6.9,20.6-19.5,21.6c-3.1,0.2-6.3,0.3-9.3,0
		c-11.2-1.2-18.3-9-18.8-20.3c-0.2-4.8,0-9.6,0-14.3C679.1,407.7,678.8,407.6,678.4,407.4z M528.7,297.3c0-3.4,0.1-6.2,0-9
		c-0.1-2.7,0-5.4-0.5-8c-0.6-3.5-2.5-6.4-5.4-8.5c-5.7-4.1-13.8-0.5-14.5,6.5c-0.3,3.3,0.5,6.3,2.6,8.8
		C515.4,292.1,521.3,295.2,528.7,297.3z"/>
</g>
</svg>
