<svg height="960" viewBox="0 0 960 960" width="960" xmlns="http://www.w3.org/2000/svg"><path d="m480.71268 48.9667349c124.658541 0 242.097617 19.7443104 330.988991 55.8609211 88.263672 35.767968 141.736679 85.963327 144.865622 141.473654l.027707.59169.04454.172102c.350596 1.391771.55547 2.841823.597391 4.333085l.006774.344862 2.437295 217.953951.014919.566113c.005586.28394.016789.567881.016789.851819v1.648561c0 .355231 0 .708222-.017693 1.058759l-.008015.157748-.044361 1.479638c-2.188328 54.899358-55.164069 104.316797-143.254593 139.671352l-2.707601 1.077881c-89.427479 35.404671-207.563123 54.757864-332.967765 54.757864-125.404641 0-243.540285-19.353193-332.951144-54.751293-90.9154178-35.899808-145.19340269-86.622161-146.03909558-142.94876l.00623995.274053.01131963.474265-.02731963-.473273v-1.574992c0-.981303.01668981-1.962673.05004199-2.943965l-.00872236.28223 2.77505736-217.593256c.01184639-.929087.08691774-1.842756.22109652-2.736926l.02721106-.955009c2.11080037-56.192334 55.77238036-107.055306 144.92945106-143.185306 88.908248-36.1234577 206.347323-55.8677681 331.005864-55.8677681zm-.94824 228.2131521c-118.519518 0-229.823716 20.083369-313.104788 56.398631-79.3652794 34.517434-123.8952123 80.707479-123.8952123 125.601369 0 31.448441 21.8512259 63.532916 62.2242323 91.796798 15.66582 9.545593 34.104817 18.677475 55.165703 27.11989l2.314742.920927c84.371084 33.402826 197.581951 51.949233 318.243563 51.949233 120.661613 0 233.87248-18.546407 318.260184-51.955804 15.950331-6.298314 30.427819-12.991686 43.367506-19.963237 48.151358-30.135705 74.42407-65.384123 74.42407-99.867807 0-44.89389-44.529933-91.083935-123.903984-125.605188-83.2723-36.311443-194.576499-56.394812-313.096016-56.394812zm0 62.406515c83.424445 0 161.969328 12.143115 221.301392 34.310763 60.24257 22.449083 95.740462 53.998116 95.740462 88.689237s-35.497892 66.240154-95.732442 88.686245c-59.340084 22.170641-137.884967 34.313755-221.309412 34.313755-83.424446 0-161.969329-12.143114-221.301393-34.310763-60.24257-22.449083-95.740462-53.998116-95.740462-88.689237s35.497892-66.240154 95.732443-88.686244c59.340083-22.170641 137.884966-34.313756 221.309412-34.313756zm0 20c-81.178254 0-157.389496 11.782331-214.317635 33.051818-53.251776 19.844-82.72422 46.037868-82.72422 69.948182 0 23.910315 29.472444 50.104183 82.732239 69.951175 56.92012 21.266494 133.131362 33.048825 214.309616 33.048825s157.389496-11.782331 214.317635-33.051817c53.251776-19.844 82.724219-46.037868 82.724219-69.948183 0-23.910314-29.472443-50.104182-82.732239-69.951174-56.920119-21.266495-133.131361-33.048826-214.309615-33.048826zm0 4.28972c74.302044 0 144.257556 9.417412 197.118566 26.614824 54.30432 17.620855 86.404798 42.463192 86.404798 71.039381 0 28.57619-32.100478 53.418527-86.397494 71.037008-52.868314 17.199786-122.823826 26.617198-197.12587 26.617198s-144.257557-9.417412-197.118566-26.614824c-54.304321-17.620855-86.404799-42.463192-86.404799-71.039382 0-28.576189 32.100478-53.418526 86.397494-71.037007 52.868314-17.199786 122.823827-26.617198 197.125871-26.617198zm0 20c-72.33166 0-140.238186 9.141578-190.945733 25.638392-46.800318 15.18593-72.577632 35.134814-72.577632 52.015813 0 16.881 25.777314 36.829884 72.584936 52.018187 50.700243 16.494441 118.606769 25.636019 190.938429 25.636019 72.331659 0 140.238185-9.141578 190.945733-25.638392 46.800317-15.18593 72.577631-35.134814 72.577631-52.015814 0-16.880999-25.777314-36.829883-72.584936-52.018186-50.700243-16.494441-118.606769-25.636019-190.938428-25.636019zm.94824-294.9093871c-119.799437 0-232.194803 18.8963421-315.966053 52.9326271-77.5614658 31.431006-120.0339466 72.480545-120.0340751 109.495676l.0017899.499314c.003712 1.035465-.0713322 2.052834-.2194992 3.046433l-.0048426.024215-1.8512673 145.198197c22.1141197-32.119918 61.9788793-61.411111 116.0355293-84.921348 85.982509-37.493247 199.976545-58.061962 321.090178-58.061962 121.113632 0 235.107669 20.568715 321.081407 58.058142 55.774004 24.25715 96.439441 54.665538 118.091092 87.984567l-1.638939-146.410596-.024521-.097551c-.363087-1.490691-.558915-3.046346-.566595-4.64578l.005116-.639669-.012054-1.076045c-.831739-36.42143-42.383299-76.51828-117.721275-107.514435l-2.316811-.946005c-83.754376-34.029438-196.149742-52.9257801-315.94918-52.9257801z"/></svg>