<?xml version="1.0" encoding="UTF-8"?>
<svg width="960px" height="960px" viewBox="0 0 960 960" version="1.1" xmlns="http://www.w3.org/2000/svg" xmlns:xlink="http://www.w3.org/1999/xlink">
    <!-- Generator: Sketch 60.1 (88133) - https://sketch.com -->
    <title>com.innr/drivers/big_filament_bulb_vintage/assets/icon</title>
    <desc>Created with Sketch.</desc>
    <g id="com.innr/drivers/big_filament_bulb_vintage/assets/icon" stroke="none" stroke-width="1" fill="none" fill-rule="evenodd">
        <path d="M490.40353,0.464077752 L490.382,1.098 L490.735917,1.14759262 C504.142133,3.06388451 515.383891,9.22396844 524.158743,19.5016548 L524.595428,20.0189698 L524.823,20.294 L526.685206,20.5482143 C579.137865,27.9013925 617.434703,48.3403554 642.250104,79.3224044 L642.99796,80.2644789 L643.767966,81.252343 C664.674793,108.326177 674.5,141.966645 674.5,176.797011 C674.5,204.285707 663.70431,279.483315 646.387318,377.626784 L644.762,386.797992 L643.048036,396.38606 L642.00908,402.158116 C625.163651,495.502006 606.005289,589.94226 593.600967,640.445175 L593.219492,641.993063 L592.496,644.896078 L594.112502,644.89674 L594.703059,645.513237 C596.057684,646.927363 597.075724,648.476157 597.693317,650.107524 L597.828701,650.485435 L597.9,650.711 L597.914686,650.719494 C600.763185,652.428465 602.783665,655.452859 603.715628,659.656543 L603.805186,660.080837 L603.884971,660.499341 C603.949488,660.8591 603.986802,661.222781 603.996819,661.586624 L603.996819,661.950381 L603.570252,679.71528 L603.304086,689.720399 C602.880475,704.935201 602.487976,715.548495 602.131562,721.404894 C601.199157,736.707063 586.824972,762.725314 573.4498,772.021017 L573.305,772.119 L572.984677,772.518202 L572.632791,772.845007 L572.62,772.853 L571.839064,773.880825 L571.556418,774.231216 L571.067738,774.906064 C570.901178,775.134201 570.742009,775.332201 570.577284,775.510343 L570.410229,775.682247 L570.386,775.704 L569.900334,776.551589 C569.260284,777.676516 568.636023,778.806581 568.020596,779.954244 L567.407857,781.108234 L566.864,782.151 L566.189848,784.093574 L566.046019,784.538398 L565.9101,784.981859 C565.59904,786.013885 565.406143,786.869668 565.304169,787.667603 C565.24954,788.09507 565.091837,788.501874 564.845795,788.853282 L564.807,788.903 L564.719273,789.215434 C563.983354,791.897211 563.346301,795.065447 562.354627,801.02043 L561.872,803.963401 L561.597812,805.962836 L561.37589,807.682311 C560.845648,811.908416 560.352488,816.711701 559.745985,823.496537 L559.407217,827.353754 L559.030632,835.116786 C558.629731,843.635492 558.375511,850.082428 558.199639,856.259662 C557.947601,866.49981 557.932819,876.23549 558.15584,885.461753 L558.200444,887.185707 L558.2,889.258 L558.231803,889.321925 C558.577252,890.081064 558.560633,890.988096 558.112315,891.755023 L558.009614,891.917115 L557.901194,892.064621 L536.534,919.194 L536.481722,919.366261 C536.399847,919.603851 536.283378,919.831223 536.133364,920.041103 L536.01458,920.195119 L535.883315,920.341894 L528.497958,928.020201 L509.608913,947.8455 L509.45785,947.988382 L509.355428,948.07563 L509.190081,948.202237 L508.937,948.375 L508.763748,948.554684 C506.260652,951.113822 504.607951,952.343164 501.966832,953.502903 L501.616581,953.653882 L501.268952,953.798656 C497.20103,955.465963 491.609245,956.471044 483.720747,956.930293 L482.421277,957 L482.009076,957 L480.264777,956.900492 C467.27967,956.114933 461.778103,954.234164 456.262426,948.738166 L455.904,948.375 L455.651125,948.202234 L455.485771,948.07562 L455.38334,947.988364 L455.232263,947.845466 L436.35259,928.029254 L428.958563,920.341891 C428.678689,920.050912 428.475946,919.710874 428.353814,919.34767 L428.298,919.158 L407.992,892.733 L407.976122,892.725612 C407.272512,892.322813 406.77515,891.607102 406.664621,890.774305 L406.646923,890.594127 L406.641437,890.422336 L406.64245,887.112378 C406.877932,878.586638 406.905644,869.556246 406.725444,860.07678 L406.686632,858.174916 L406.606514,854.7162 L406.54157,852.347345 C406.477367,850.19601 406.395624,847.91418 406.294174,845.432533 L406.18248,842.799686 L405.94911,837.735928 L405.44095,827.455865 L405.014413,822.606664 L404.625639,818.4076 L404.341268,815.508192 C403.967764,811.80706 403.612954,808.729602 403.229668,805.852146 L402.975177,803.999547 L402.659842,801.95573 C401.875155,796.979813 401.143429,793.187915 400.389091,790.223694 L400.172,789.399 L400.091257,789.303483 C399.804894,788.941039 399.612601,788.502655 399.543843,788.0256 L399.522024,787.818888 L399.515746,787.631696 L399.517,787.489 L399.497698,787.310589 C399.339207,786.027672 398.921826,784.662138 398.156583,782.953941 L397.987246,782.582559 L397.807065,782.200119 L397.746672,782.060445 L397.610613,781.717726 L397.457322,781.350893 C396.907499,780.07103 396.199066,778.799197 394.736057,776.447581 L394.22,775.624 L394.058761,775.438483 C393.782189,775.107481 393.50498,774.712729 393.267104,774.314312 L393.086,773.995 L392.513,773.306 L391.447514,772.621074 C378.243267,764.140434 363.724107,738.701377 361.989558,722.807819 L361.940923,722.329146 L361.899832,721.851736 L361.86881,721.404853 L361.736852,719.052753 L361.587852,715.973029 C361.112711,705.471381 360.580533,687.365475 359.998122,661.939966 C359.991408,661.453601 360.029906,660.969534 360.115913,660.496513 C360.981739,655.708076 363.185147,652.334136 366.357723,650.558608 L366.648798,650.401605 L366.7,650.375 L366.737203,650.296095 C367.12872,649.480904 367.733031,648.496288 368.436747,647.477055 C368.087886,646.838935 367.800098,646.078214 367.568143,645.154379 L366.803577,642.086313 C354.423475,592.04601 335.049869,496.667758 318.027943,402.363247 L316.96722,396.471032 L315.819792,390.061927 L314.164371,380.748812 C296.525731,281.082291 285.5,204.576704 285.5,176.797011 C285.5,141.469046 295.599161,107.399628 317.095859,80.1437449 C342.584318,47.8266672 382.511802,26.8453277 437.63144,19.9711017 L439.639,19.728 L439.872661,19.4537068 C448.487889,9.39165925 459.467491,3.28830932 472.526192,1.25766176 L473.191984,1.15791899 L473.617,1.098 L473.597678,0.5 L481.987,0.502 L490.40353,0.464077752 Z M456.769,931.149 L464.410782,939.266948 L464.511229,939.382184 L464.911,939.878 L465.21406,940.207036 L465.514563,940.517132 C468.534755,943.550092 472.077206,944.558801 482.203313,944.981202 L482.623,944.998 L483.605017,944.957234 L485.065821,944.884048 L485.986205,944.829667 C493.932507,944.328269 497.064492,943.255823 499.780228,940.530281 L500.086128,940.214609 L500.37,939.907 L500.82312,939.349004 L500.90284,939.256436 L508.323,931.154 L507.940809,931.184775 C505.776884,931.339196 503.693595,931.405704 500.028441,931.428127 L497.23403,931.437129 L495.355079,931.440759 L494.150461,931.457875 L492.352718,931.505423 L486.799164,931.695092 L485.866341,931.721072 L484.951803,931.741636 L483.449024,931.763156 L483.147582,931.765181 L481.751807,931.764179 L480.654818,931.752235 L479.48999,931.729268 L479.48999,931.729268 L478.179123,931.693802 L471.870602,931.484249 L470.73555,931.456883 L470.060903,931.445793 L470.060903,931.445793 L469.73688,931.442154 L464.996807,931.428291 L463.565921,931.416056 L462.10339,931.394209 C460.414506,931.361849 459.060047,931.307697 457.739641,931.22027 L456.769,931.149 Z M554.576,777.443 L553.961629,777.526312 L552.309255,777.739721 C549.343577,778.111844 546.710361,778.380457 544.116965,778.573418 L543.410443,778.624189 L535.878465,779.087328 C529.003526,779.493909 523.409544,779.772177 517.984831,779.97409 L515.177601,780.072337 C503.767955,780.654006 492.487478,780.958396 482.207957,780.958396 C472.555009,780.958396 462.151404,780.690349 451.40515,780.169443 L449.505279,780.074897 L447.664813,780.026713 L445.288927,779.95241 C441.229063,779.813748 437.016592,779.609952 431.621081,779.292178 L427.128202,779.018693 L420.900545,778.621599 L419.429559,778.506781 L418.415928,778.418003 L416.464294,778.230089 L410.47,777.617 L410.571199,777.823882 C411.480688,779.926924 412.253825,782.417934 412.801619,784.954772 L412.909,785.472 L413.224565,786.458762 L413.447186,787.190165 C413.549369,787.536157 413.638538,787.855381 413.717745,788.160411 L413.791,788.453 L414.287434,788.513097 C422.004883,789.440075 430.889209,790.188904 440.422046,790.719242 L445.931909,791.014391 C459.302728,791.700727 474.143543,792.050555 489.325034,792.050555 C490.730334,792.050555 491.879086,793.146283 491.965373,794.529399 L491.970576,794.696701 L491.970576,800.237427 C491.970576,801.698433 490.786546,802.883573 489.325034,802.883573 C474.3003,802.883573 459.583514,802.543995 446.141173,801.873257 L444.395132,801.783892 L442.381627,801.67514 C433.168386,801.1838 424.551123,800.473512 417.042391,799.584537 L416.027,799.462 L416.139284,800.119623 L416.241093,800.756203 L416.327687,801.335725 C416.354269,801.521167 416.378694,801.699765 416.401341,801.874185 L416.469168,802.429732 L416.674172,803.857932 L416.855415,805.173737 C417.085242,806.882207 417.268702,808.416038 417.417199,809.884516 L417.516,810.913 L419.314272,811.08435 C425.035779,811.612926 431.433637,812.084544 439.228972,812.556003 L442.939543,812.774419 C457.080686,813.569455 473.027751,813.974929 489.392854,813.974929 C490.798153,813.974929 491.946906,815.070656 492.033193,816.453774 L492.038396,816.621076 L492.038396,822.162604 C492.038396,823.623612 490.854365,824.808751 489.392854,824.808751 C474.381474,824.808751 459.65992,824.468915 446.202534,823.797871 L444.454472,823.708466 L442.276462,823.588931 L432.260345,822.913206 L428.154166,822.619022 C424.528965,822.350631 421.658053,822.110747 419.016246,821.855079 L418.611,821.815 L418.624942,822.03011 L418.676543,822.739904 C418.714674,823.232749 418.760446,823.767409 418.814949,824.358978 L418.975033,826.015094 L419.0485,827.246478 L419.126488,829.025224 L419.254543,832.321779 L419.291,833.104 L420.938095,833.227526 L429.414914,833.893783 C434.497689,834.281299 438.006902,834.501222 441.546351,834.646279 L442.936455,834.699425 L446.121101,834.873534 L449.121826,835.028509 L452.105982,835.173811 C465.493315,835.805766 478.294603,836.141042 489.392854,836.141042 C490.798153,836.141042 491.946906,837.23677 492.033193,838.619887 L492.038396,838.787189 L492.038396,844.088585 C492.038396,845.549592 490.854365,846.734731 489.392854,846.734731 C473.584521,846.734731 458.085639,846.357027 444.09452,845.615233 L442.486919,845.528026 L440.687073,845.455992 C437.335451,845.309291 433.920407,845.090104 429.016465,844.710146 L419.857,843.98 L419.978029,846.532716 L420.077875,848.941543 L420.131156,850.540153 C420.150601,851.214166 420.164606,851.847535 420.174005,852.472242 L420.18913,854.299134 L420.189,855.203 L421.105622,855.300564 L422.936483,855.482559 C427.687028,855.942546 433.012038,856.365463 439.485154,856.800142 L442.939678,857.026341 C457.072071,857.821607 473.011741,858.226844 489.392854,858.226844 C490.798153,858.226844 491.946906,859.322571 492.033193,860.705688 L492.038396,860.87299 L492.038396,866.414518 C492.038396,867.819334 490.943693,868.969092 489.555992,869.055452 L489.388112,869.060659 L486.679478,869.054232 L484.116504,869.036903 C471.604462,868.926855 457.317928,868.436704 442.491266,867.613997 C434.553016,867.316555 427.288383,866.842196 420.911186,866.199508 L420.457,866.152 L420.457,879.325 L420.799684,879.366143 L421.285837,879.415663 L421.782249,879.458698 L421.782249,879.458698 L422.310174,879.497981 L424.693686,879.657067 L425.298545,879.704428 C425.864657,879.752133 426.324961,879.802056 426.773364,879.864854 L427.094,879.912 L427.463393,879.91395 C429.766635,879.936533 432.042634,880.093349 434.799415,880.411479 L435.334,880.474 L436.182309,880.482637 L436.90066,880.50172 L437.708823,880.533406 L437.708823,880.533406 L438.999414,880.597387 L441.537421,880.733218 L442.349504,880.768236 C442.676616,880.780295 442.96726,880.78796 443.255911,880.792349 L443.849333,880.797105 L443.98293,880.80178 L445.172027,880.881335 L445.952437,880.923687 L449.750336,881.099142 C451.055044,881.16471 451.949806,881.226118 452.82693,881.313343 L453.238,881.356 L456.301078,881.367775 L457.407171,881.384876 L457.966417,881.397695 C459.621986,881.439382 461.072104,881.518146 462.387265,881.640692 L462.763,881.677 L473.379451,881.681249 L474.218796,881.696321 L475.439015,881.736752 L475.439015,881.736752 L477.020994,881.806297 L479.750131,881.933028 L480.738965,881.970117 L480.738965,881.970117 L481.549635,881.991027 L482.523581,882.000101 L483.633179,881.989058 L484.513322,881.963687 L484.840793,881.951402 L489.071439,881.755483 L490.271324,881.710604 C490.886174,881.69146 491.432928,881.681545 492.002385,881.678772 L502.249,881.681 L503.036344,881.601333 L503.492526,881.561395 C505.095626,881.42927 506.803288,881.376294 509.772378,881.362602 L511.829,881.358 L512.985759,881.27625 L514.182908,881.210745 L517.999397,881.033013 L518.799155,880.98664 L519.207008,880.959922 C519.634193,880.931004 520.043603,880.899378 520.461003,880.862987 L521.096316,880.804568 L521.276822,880.795354 L521.771955,880.792521 L522.255956,880.783372 L523.064649,880.755291 L523.064649,880.755291 L523.373711,880.741555 L526.983718,880.551634 L528.04628,880.506632 L528.865068,880.483969 C528.995701,880.48145 529.124367,880.479535 529.252486,880.47819 L529.736,880.475 L533.708005,880.109741 L534.721126,880.032826 C535.741905,879.962374 536.637727,879.923908 537.46459,879.916679 L537.751,879.915 L538.176777,879.869 C538.586392,879.82746 539.01728,879.791908 539.609275,879.750838 L541.935515,879.596564 L542.516266,879.552575 C542.920585,879.519934 543.265138,879.487058 543.621026,879.447009 L544.631,879.324 L544.648261,870.718812 L544.65697,869.104742 C544.684373,864.639979 544.735613,861.056111 544.826768,857.312786 L544.897951,854.630403 L545.004453,849.903292 L545.107669,845.996559 L545.178492,843.655671 C545.38078,837.324593 545.631634,832.376008 545.98783,827.666328 L546.110435,826.105026 L546.206437,824.47868 L546.336675,822.547685 L546.419698,821.435137 C546.607521,819.001938 546.848641,816.401748 547.175822,813.252907 L547.458927,810.587569 L548.349763,802.424228 C549.2222,796.461573 550.458479,790.456288 551.814675,785.508379 C552.272308,783.521772 553.022246,781.22544 553.95578,778.921572 L554.192926,778.345623 L554.576,777.443 Z M376.716,664.584 L375.043,664.321 L375.549786,684.675195 C376.021348,702.182147 376.452711,714.150439 376.836646,720.38172 C377.516557,731.423012 389.908391,753.380225 399.599697,759.820183 L399.895511,760.01245 L404.321,762.825 L405.971115,763.076006 L408.581,763.481 L410.43646,763.641951 L416.379786,764.234406 L418.584334,764.441211 L420.09815,764.569149 L420.09815,764.569149 L420.809662,764.62391 L435.490816,765.560444 C439.382774,765.804331 442.776159,766.012033 445.89736,766.197498 L450.031887,766.439416 L468.864277,766.847277 L473.547026,766.927205 L477.078718,766.970856 C478.209362,766.981885 479.306149,766.989532 480.407269,766.994217 L483.216997,767.000003 L485.844397,766.995312 C494.19304,766.965805 503.545065,766.797387 515.242654,766.473134 L516.31257,766.443227 L525.283189,765.914057 L529.914,765.628363 L544.928038,764.674854 L545.968597,764.618224 L546.943828,764.554142 C549.226614,764.391498 551.585805,764.134625 554.560508,763.733141 L555.212429,763.644206 L558.02244,763.248176 L558.178212,763.232411 C559.246846,763.166382 560.278228,763.073518 561.366347,762.944464 L561.52,762.925 L566.104545,760.012414 C575.739149,753.891943 588.222313,731.984437 589.140093,720.731654 L589.16456,720.390537 L589.276909,718.424805 C589.759436,709.402511 590.311528,691.784179 590.919185,666.001575 L590.958,664.324 L590.054,664.466 L589.952722,664.500544 C584.751123,666.225749 576.431354,667.534451 563.190403,668.819137 L561.020552,669.025387 L559.051402,669.204598 C544.132578,670.530661 525.859922,671.449857 505.968246,671.871327 L503.276109,671.925137 C498.705937,672.011031 494.072312,672.070502 489.394121,672.103088 L486.582011,672.11941 L483.202527,672.130281 L482.664942,672.129278 C478.139238,672.118771 473.644735,672.083238 469.19827,672.023039 L465.872692,671.97327 L463.137056,671.925138 L460.35921,671.869509 L457.60207,671.80745 C439.292494,671.372402 422.433178,670.512174 408.418992,669.297393 L407.396406,669.207675 L405.392572,669.025387 C391.423524,667.723741 382.647544,666.422769 377.122604,664.712605 L376.716,664.584 Z M582.901,655.253 L580.715,653.232 L580.506243,653.289466 C574.300491,654.963166 565.566734,656.140825 552.158573,657.214441 L549.92244,657.389259 L548.289261,657.512038 L546.074934,657.671396 L543.71435,657.831706 C526.619128,658.95856 505.760638,659.609957 484.831897,659.672168 L481.972358,659.676991 L479.017587,659.671872 L476.105728,659.659163 L473.197292,659.638922 C453.339673,659.475037 433.875681,658.788456 417.960785,657.677811 L416.8277,657.597588 L414.01367,657.388676 L411.050523,657.155144 L408.884402,656.974249 C397.557838,656.003303 389.816668,654.927817 384.12909,653.471048 L383.546,653.318 L381.454,655.253 L382.179524,655.427701 L382.650542,655.535445 L383.563569,655.734891 L384.520751,655.932337 L385.523801,656.128186 C390.139832,657.005772 396.130839,657.832081 403.249783,658.570054 L405.669636,658.813257 L407.633457,659.000073 C427.142693,660.811752 452.455869,661.873509 479.422067,661.991298 L482.169929,662.000015 L486.399758,661.983898 L489.129646,661.965205 L491.846417,661.940076 C516.235441,661.685096 538.913757,660.65392 556.721048,659.00016 L558.67943,658.813855 L561.109601,658.569605 L562.673436,658.404095 L564.199296,658.235788 C571.481568,657.415691 577.412496,656.50081 581.692426,655.538135 L582.625392,655.321158 L582.901,655.253 Z M479.5,424.5 C459.985287,424.5 444.06818,440.038587 443.512136,459.411772 L443.5,460 L443.500946,643.208883 C445.328423,643.311249 447.142316,643.408391 448.937106,643.5 L513.057413,643.5 L515.500167,643.367092 L515.500167,643.367092 L515.500167,462.869 L515.495168,459.903535 C515.176907,440.274147 499.160199,424.5 479.5,424.5 Z M482.047,15.502 L481.952,15.502 L480.895927,15.5269759 C467.940711,15.9298053 457.907251,20.8335414 450.234083,30.4595051 L449.87613,30.9141817 L449.526887,31.3688402 L447.570013,33.9475172 L444.351313,34.2923354 C390.428284,40.0690893 352.530048,59.4384544 328.873534,89.4327903 C309.63127,113.830253 300.5,144.634502 300.5,176.797011 C300.5,203.89622 311.942643,282.683453 330.033665,384.32492 L331.731149,393.820301 L332.756733,399.517764 L334.274675,407.89734 C350.527265,497.28495 368.654453,586.431235 380.600529,635.374504 L381.125,637.514 L381.967109,637.665036 C382.93522,637.832036 384.044427,638.005741 385.284692,638.184346 L386.379637,638.338593 L387.418811,638.479259 L388.481404,638.618092 C393.737522,639.2934 400.482318,639.99756 408.169968,640.679317 L412.53442,641.05544 L417.126319,641.429309 C423.508949,641.934555 430.044965,642.394248 436.500967,642.795285 L436.5,459.95605 C436.79564,436.436063 455.95517,417.5 479.5,417.5 C501.818654,417.5 520.205589,434.518238 522.301435,456.379517 L522.363,457.103 L522.5,457.130686 L522.500211,642.955786 C528.17246,642.603693 533.937401,642.200831 539.624199,641.757239 L543.025534,641.486276 L546.892495,641.164075 L549.651988,640.924232 C556.919134,640.28112 563.435681,639.611583 568.755275,638.959301 L570.693143,638.71559 L572.40333,638.489035 L574.042216,638.259523 C575.44206,638.057501 576.688355,637.861106 577.767519,637.672914 L578.164344,637.602732 L578.885,637.469 L579.426176,635.265087 L580.564283,630.556854 C592.763214,579.643451 610.756838,490.649702 626.749112,402.25255 L628.28407,393.735529 L629.419431,387.39321 C647.826917,284.267777 659.5,204.167873 659.5,176.797011 C659.5,145.084417 650.614109,114.66007 631.89575,90.4202484 C609.163248,60.9822071 572.910206,41.5797157 521.467704,34.9821933 L519.904189,34.7861908 L516.706777,34.394555 L514.789355,31.8060592 C506.995296,21.2841794 496.640649,15.9454823 483.094358,15.5266746 L482.047,15.502 Z M468.631354,181.000007 L468.878032,181.004285 C472.843711,181.135493 476.010729,184.248786 476.000054,188.064659 L475.995199,188.304046 L467.749972,408.201442 C467.6031,412.118464 464.163708,415.129442 460.121967,414.995715 C456.15629,414.864507 452.989271,411.751214 452.999946,407.935341 L453.004801,407.695954 L461.250028,187.798558 C461.390905,184.041415 464.561011,181.117862 468.386319,181.003475 L468.631354,181.000007 Z M502.606513,187.56542 L502.618528,187.806437 L509.995836,407.703833 C510.125612,411.572079 507.210797,414.855706 503.43192,414.995443 C499.726328,415.132472 496.642371,412.193419 496.393487,408.43458 L496.381472,408.193563 L489.004164,188.296167 C488.874388,184.427921 491.789202,181.144294 495.56808,181.004557 C499.19483,180.870444 502.226115,183.682907 502.586798,187.326629 L502.606513,187.56542 Z M521.506903,183.165551 L521.532058,183.405638 L540.971189,403.302501 C541.311255,407.149354 538.604972,410.598475 534.860636,410.968091 C531.178064,411.33161 527.946659,408.575181 527.493097,404.834449 L527.467942,404.594362 L508.028811,184.697499 C507.688744,180.850646 510.395027,177.401525 514.139364,177.031909 C517.743583,176.676124 520.91563,179.308936 521.474202,182.928139 L521.506903,183.165551 Z M449.549048,177.030708 C453.375665,177.384076 456.217681,180.686607 455.98707,184.472326 L455.968637,184.709541 L435.188876,404.606404 C434.822159,408.487104 431.353999,411.329717 427.450952,410.969292 C423.624336,410.615924 420.782319,407.313394 421.01293,403.527674 L421.031363,403.290459 L441.811124,183.393596 C442.177841,179.512896 445.646001,176.670283 449.549048,177.030708 Z" id="Shape" fill="#000000" fill-rule="nonzero"></path>
    </g>
</svg>