<svg height="960" viewBox="0 0 960 960" width="960" xmlns="http://www.w3.org/2000/svg"><path d="m676.597699 169.079343.664301.048657 1.153204-.035481c15.232658-.408311 30.508379.533654 45.714277 2.842434l1.628931.252601c155.847272 24.67216 257.94179 184.49437 230.897069 355.167617-24.566526 155.033909-148.472302 270.490114-290.473964 269.64037l-.498039.007031c-.665884 0-1.33524 0-2.007644-.025593l-.357834-.015979-.768273-.012609c-11.185892-.22392-22.374393-1.176737-33.521842-2.863512l-1.759776-.272433c-2.05937-.326018-4.112619-.676381-6.159502-1.050989l-241.251211-24.441747c-5.26562-.53347-10.189223-2.065585-14.601708-4.389643l-.489688-.263067-.314275-.076595c-33.866405-8.400758-65.382556-23.12668-93.276057-43.338088l-.841668-.612317-.404145-.015419c-7.112024-.302899-14.223325-1.000614-21.312551-2.095689l-1.417545-.224314c-96.646124-15.658104-165.567085-100.50211-176.6314592-202.194674l-38.1069707-2.99022c-.6082587-.047689-1.2108766-.150944-1.8003144-.308475-23.16714179-6.191555-35.48264888-32.829519-28.89646988-59.245241 6.13813939-24.618732 27.09325498-40.805572 49.59716668-39.541184.0903427.005076.1806123.011377.2707839.018904l26.7684846 2.232229c27.258625-101.236538 110.197327-174.511632 205.521101-177.820332l1.653919-.043585 1.032347-.717096c48.313216-33.38392 105.075905-51.542354 163.267539-51.238467l.127114.001563 221.026146-16.349028c1.882168-.139216 3.74122-.146372 5.568553-.029629zm-44.261597 42.992456-181.029082 13.398374c-37.884213-.462013-74.637451 8.229874-107.923746 24.303291-.88615 2.020164-2.443632 3.760241-4.554334 4.852992-59.067381 30.580315-105.084567 83.858984-127.338272 148.358013l102.398568.000575c44.18278 0 80 35.81722 80 80 0 42.295782-34.287506 76.583288-76.583288 76.583288-1.276985 0-2.55377-.031939-3.829157-.095789l-108.693872-5.441349c12.82753 49.928927 40.459694 93.833328 78.494341 125.680925l.745143-.027214c28.275646 23.093445 62.172351 39.674006 100.016681 47.32168l-.149848 1.516841 218.762683 22.163209c-109.098094-45.068124-175.92621-171.621765-154.53798-306.661735 17.808618-112.43919 91.964749-200.383761 184.222163-231.953101zm-164.468397 235.081791c-22.931099 144.781262 62.205303 278.119448 189.438814 298.271256 38.52444 6.101672 76.584965 1.141787 111.567172-12.759485 74.903757-37.456723 132.987813-115.098205 148.274712-211.570445 18.777909-118.503228-32.643888-229.929351-120.715282-281.757893-17.549271-8.272739-36.375993-14.172271-56.22751-17.316443-127.233511-20.151808-249.406806 80.351747-272.337906 225.13301zm384.784828-73.490539c.164143.708431.257909 1.441559.268281 2.194404 5.222521 12.640864 9.731823 24.516378 13.528356 35.630963 4.368143 12.788009 7.234924 25.726799 8.593607 38.803672.629291 6.056716-4.254929 11.265067-10.339542 11.025705l-19.637328-.771369c-.978001.305954-2.020033.465609-3.100138.453587-1.2777-.01452-2.496735-.268017-3.615086-.717526l-32.769697-1.290162c.457955 9.562761.286202 19.195886-.523465 28.846655l59.823019 7.621442c5.464869.696152 9.337397 5.681077 8.660592 11.148376-2.008956 16.228531-4.613896 29.791107-7.850301 40.737021-3.134069 10.599797-8.352231 22.268753-15.635134 35.060849-.216871 5.384127-4.679398 9.65265-10.102583 9.593345-2.997132-.033452-5.671719-1.38192-7.481343-3.490966l-56.252013-8.591635c-27.707219 47.582919-72.186378 81.686477-122.775476 94.684586 6.353102 1.87143 12.88014 3.35009 19.562637 4.408494 94.715605 15.001478 185.81841-59.942526 202.940026-168.044153 7.944116-50.157174-1.464667-98.447161-23.294412-137.303288zm-666.397988 55.909291-73.562099 15.462217c-.33049 1.843103-.640095 3.696049-.928476 5.558551-16.9127458 109.230474 45.529928 210.273592 139.727725 226.870351-34.594138-35.561068-58.897054-81.290428-69.201433-132.040571-.617481-3.041157-.04736-5.745505 1.1892-8.229838.348915-.700994.729888-1.339763 1.167433-1.99647.028994-.043516.05707-.085453.084632-.126396l.049005-.072174-.235471-1.423253c-5.171236-31.74204-5.779482-61.365411-.997697-90.255402l.224528-1.332868c.696686-4.064767 1.518051-8.16062 2.482653-12.414147zm476.261236-135.450427-2.19223.715144c-48.17054 16.176475-89.508991 54.896513-112.328655 106.728856l.003718 49.915662c1.772204-.153923 3.579353-.096809 5.397382.191139 13.522528 2.141758 22.526257 16.243139 20.110391 31.496315-2.415866 15.253177-15.336487 25.882082-28.859015 23.740324-6.406094-1.014625-11.798057-4.713287-15.442212-9.946919.050041 2.285443.139894 4.561007.264633 6.827091l11.317315 3.283426c4.273176 1.24012 7.212892 5.154449 7.212892 9.603936l-.003394 62.914323c15.719692 34.236379 40.514366 62.515183 71.509175 80.425761.280442-.050578.562526-.084636.848356-.106884 56.166677-4.37193 107.597349-37.779935 137.812132-88.74593-.232834-.845967-.356235-1.734339-.356235-2.648031v-72.680219c0-5.522848 4.477152-10 10-10l17.345018-.000208c.760981-9.253341.876979-18.482843.357421-27.633366l-18.095524-.711671c-5.365766-.211084-9.606915-4.622355-9.606915-9.992272v-69.382207c0-2.213887.720663-4.26407 1.943188-5.924313-22.015757-37.573928-56.173657-65.435078-96.666306-77.87578-.193526-.059458-.383942-.124254-.571135-.194177zm125.549253 211.713994h-10.255l-.000109 53.830272c.133222.103855.263265.210681.390086.320331l52.017216 7.946165.626-56.647zm-474.175798-82.850865-105.402636.001004c-2.175733 8.178063-3.802008 15.376912-5.002157 22.3791-4.806585 28.043683-4.06571 57.063855 1.414987 88.646669l109.577359 5.485742c.942315.047175 1.885663.070773 2.829159.070773 31.250087 0 56.583288-25.333201 56.583288-56.583288 0-33.137085-26.862915-60-60-60zm-58.107302 8.689081c22.132477 2.326217 36.462556 26.186067 33.716724 52.310922-2.745833 26.124855-21.723508 46.483919-43.855985 44.157702s-36.462556-26.186067-33.716723-52.310922 21.723507-46.483919 43.855984-44.157702zm595.035293 82.155552-.109655 9.918948c.569467-3.055164 1.109654-6.268038 1.620065-9.637933l.012397-.086783zm-619.000839-35.907281c-1.699337 16.16811 6.192293 29.307822 15.916854 30.329915 9.724561 1.022092 20.175641-10.189724 21.874978-26.357833 1.699336-16.16811-6.192294-29.307823-15.916855-30.329915-9.724561-1.022093-20.175641 10.189724-21.874977 26.357833zm484.109758-29.03789c12.363454 1.958179 20.595435 14.85087 18.386643 28.796631-2.208792 13.945762-14.021931 23.663618-26.385385 21.705439-12.363454-1.958178-20.595435-14.850869-18.386643-28.796631s14.021931-23.663618 26.385385-21.705439zm-694.7556867 8.5199c-4.0101408 16.083797 2.5612789 31.04025 13.6160511 34.771275l.2636081.084936 34.0974569 2.67382c-.5362702-16.549551.4520157-33.441118 3.0874218-50.461812.4939817-3.190366 1.0419666-6.359019 1.6427781-9.504816l-23.7386568-1.980192-.2809217-.012666c-12.5892605-.502937-24.8668325 9.104643-28.6877375 24.429455zm831.0926597-22.677374-.069892 6.082645 1.312807.052101-.156274-.857765c-.330734-1.761298-.692939-3.520276-1.086641-5.276981zm-19.453892-48.778355-54.999193 1.838101v50.097l15.873454.624548.074276-.007826c.988994-.100545 1.958953-.053353 2.887946.123691l35.554517 1.399486zm-563.131628-107.146298-.236503.032936c-73.051397 10.258326-136.301837 72.418562-154.952579 157.198025l9.926147-9.931377 62.098102 2.34272c.752988-3.25716 1.589789-6.61199 2.518568-10.120194l.234198-.876477-.098251-.199388c-1.074953-2.267587-1.493844-4.840491-.760357-7.649645l.097723-.35237c14.921843-50.831852 43.391942-95.833935 81.172952-130.44423zm428.589094 8.217453-.076669.00614c34.360737 17.482286 62.881374 45.57418 81.994407 80.670746l61.478249-2.054359c1.556058-.052006 3.063511.258584 4.424592.869103 1.386822.461976 2.637662 1.219703 3.67859 2.197387-25.45467-42.304278-66.017353-72.532003-114.897852-80.273914-12.313028-1.950192-24.565-2.380306-36.601317-1.415103zm-185.550466 163.052845.086621-.502745c.393499-2.258936.817495-4.507943 1.271721-6.746551.015113-.073767.030128-.147581.045174-.221381.212918-1.045176.432632-2.088334.658914-3.129162.023362-.106268.046481-.212251.069666-.318203.484936-2.217657 1.000028-4.424931 1.544697-6.621042.020486-.080223.04046-.160562.060471-.240883 3.151443-12.65406 7.285824-24.936413 12.352494-36.742103.059102-.137711.12022-.272942.183289-.405706 37.157635-86.125894 121.263041-140.361078 209.007426-126.463733 106.190525 16.818927 176.475261 126.89686 157.704012 245.41386s-119.631956 201.488157-225.822482 184.66923c-63.714315-10.091356-114.502546-53.755954-140.884251-112.672687l-.127215-.274485c-10.201761-22.861727-16.606505-47.732818-18.838103-73.503972-.010539-.121704-.018895-.242932-.025107-.363654-1.49845-17.568459-1.066921-35.682864 1.489905-54.026483l.044151-.315446.003617-.027854.002-.014.011-.076.002-.014.003-.022.004-.03.005-.036.011-.076.005-.033.001-.009.005-.034.151255-1.0474c.138692-.946106.282936-1.892079.432736-2.837878l.002009-.018722.003-.021.007-.039.004-.026.023-.14.003-.018.454-2.741-.014.081.023-.136.014-.084.005-.027.001-.007z"/></svg>