<?xml version="1.0" encoding="UTF-8"?>
<svg width="960px" height="960px" viewBox="0 0 960 960" version="1.1" xmlns="http://www.w3.org/2000/svg" xmlns:xlink="http://www.w3.org/1999/xlink">
    <!-- Generator: Sketch 54.1 (76490) - https://sketchapp.com -->
    <title>VMB3000</title>
    <desc>Created with Sketch.</desc>
    <g id="VMB3000" stroke="none" stroke-width="1" fill="none" fill-rule="evenodd">
        <path d="M114.702215,147.962956 L107,235.045585 C107,248.272175 108.403518,265.952939 111.211906,288.079266 C114.023395,310.230026 137.578724,470.940322 181.869359,770.15065 C190.404414,792.599159 199.873457,812.710065 210.275337,830.48351 L114.702215,147.962956 Z M255.604554,923.44356 L199.530034,920.791411 C194.840855,920.569628 191.219316,916.588507 191.441099,911.899328 C191.443338,911.85372 191.443338,911.85372 191.445904,911.808129 L192.627579,891.459326 C192.897665,886.808366 196.861265,883.24149 201.514858,883.46159 L214.447435,884.073261 C209.243542,874.969605 205.76359,865.37168 204.486472,856.058645 L201.798877,836.813733 C190.755021,818.21936 180.750936,797.199284 171.774721,773.754849 C171.515131,773.07684 171.330147,772.372578 171.223042,771.654516 C126.482495,471.702642 102.728948,310.872219 99.8757415,288.563662 C96.9876366,265.982238 95.5367155,247.843248 95.5367155,234.059914 C95.5367155,233.763696 95.5498772,233.467625 95.5761618,233.172575 L104.135026,137.097694 C102.110854,118.366928 105.118308,100.884532 113.725719,88.1375347 C124.339751,72.4188663 142.282178,65.3646528 165.726153,68.6952909 L699.339143,149.392619 C728.322778,153.245433 755.187489,179.949018 760.313772,209.802047 L862.681022,829.119656 C868.015927,860.186395 847.862092,888.88926 817.515275,892.865918 C817.330674,892.890108 817.145433,892.909139 816.959769,892.922986 C495.448719,916.903093 321.447093,929.8262 294.850495,931.69999 C281.38468,932.648687 267.991541,929.646788 255.604554,923.44356 Z M246.199659,917.993149 C242.043897,915.242981 238.04283,912.120015 234.237201,908.656954 C227.838539,902.834277 222.219232,896.231081 217.613595,889.228599 L201.278637,888.456007 C199.362452,888.365377 197.730381,889.834091 197.61917,891.749192 L196.437495,912.097996 L196.435516,912.135548 C196.344194,914.066387 197.835416,915.705672 199.766254,915.796994 L246.199659,917.993149 Z M154.218343,77.8738988 C157.09428,77.8955019 160.141864,78.1258429 163.367884,78.5828658 L483.536715,126.870912 L164.230873,78.5828658 C160.679581,78.0784027 157.345106,77.8501243 154.218343,77.8738988 Z M483.536715,907.733371 C372.134968,915.993029 308.83468,920.65681 293.635852,921.724716 C292.314675,921.817545 290.998271,921.865964 289.687609,921.871651 C291.167258,921.878085 292.654429,921.829921 294.147715,921.724716 C309.305575,920.65681 372.435242,915.993029 483.536715,907.733371 Z M182.655244,89.5584478 C141.015348,83.6634942 130.14013,116.824434 134.394711,147.744427 L231.255722,838.984435 C235.510303,869.904428 269.91136,906.441636 308.534129,903.729784 C334.282642,901.921883 502.896582,889.4413 814.375948,866.288037 C838.22087,863.173964 854.101978,840.632812 849.847397,815.940965 L750.65176,217.843659 C746.397179,193.151812 723.618031,170.61066 699.773109,167.496587 L182.655244,89.5584478 Z" id="Combined-Shape" fill="#000000" fill-rule="nonzero"></path>
    </g>
</svg>