<?xml version="1.0" encoding="UTF-8"?>
<svg width="960px" height="960px" viewBox="0 0 960 960" version="1.1" xmlns="http://www.w3.org/2000/svg" xmlns:xlink="http://www.w3.org/1999/xlink">
    <!-- Generator: Sketch 54.1 (76490) - https://sketchapp.com -->
    <title>VMB4000</title>
    <desc>Created with Sketch.</desc>
    <g id="VMB4000" stroke="none" stroke-width="1" fill="none" fill-rule="evenodd">
        <path d="M939.491471,745.960858 C939.532569,744.453077 939.557242,742.934047 939.565459,741.404076 C939.573894,739.833367 939.280347,730.631196 939.218116,729.991569 L886.372949,186.833284 C886.25341,185.604628 885.673992,180.273143 885.397728,179.462001 C883.806598,174.790263 878.435325,171.591405 869.283908,169.865426 C697.816048,146.334577 572.221412,128.986531 492.5,117.821286 C372.917883,101.073418 297.867091,91.7622261 249.448407,89.3676975 C201.029723,86.9731688 173.439348,91.7622261 152.742244,95.8228336 C141.659809,97.9971191 130.829332,101.518954 120.359387,106.580513 C111.609046,110.810751 110.73525,112.439762 110.016176,113.571035 C109.297102,114.702309 108.81196,116.183621 108.859875,117.38806 C94.1766448,273.166283 84.0397566,380.789047 78.4492107,440.256352 C59.3086734,643.85654 49.2907792,751.483627 48.3955283,763.137615 C48.3559711,763.652554 48.3183021,764.169422 48.2827296,764.688264 C109.870825,772.655171 160.676738,776.636986 200.685184,776.636986 C240.76931,776.636986 478.107287,767.51783 912.446706,749.287524 C921.269326,748.851589 927.859655,748.157912 932.17262,747.222221 C934.193022,746.783898 935.659002,746.302118 936.527611,745.822626 C936.828595,745.656476 937.002909,745.521311 937.05923,745.452477 C936.98826,745.539215 936.913521,745.730732 936.913521,745.960835 L939.491471,745.960835 Z M939.342095,749.973002 C935.372244,752.423737 926.70814,753.588931 912.674923,754.282279 C478.133426,772.521136 240.881471,781.636986 200.685184,781.636986 C160.515873,781.636986 109.630483,777.655273 48.0138201,769.695107 C47.1142997,793.437794 51.7109975,821.394413 80.321454,857.511213 C111.609046,897.007531 139.347227,901.087005 172.579277,904.700372 C194.733978,907.109283 221.527717,908.943229 252.960495,910.20221 C631.210174,880.827075 830.446809,865.747303 850.6704,864.962894 C881.005787,863.786279 898.433294,849.210667 919.803517,817.249628 C931.504493,799.749794 938.075708,776.725522 939.342095,749.973002 Z M98.8597887,116.918736 C98.9238096,113.852723 99.9536036,110.760293 101.576768,108.206673 C101.625056,108.130264 101.682756,108.039012 101.730348,107.964599 C101.834551,107.801673 101.934519,107.649374 102.045396,107.486724 C102.356727,107.030019 102.69038,106.587125 103.071268,106.136982 C103.912499,105.142796 104.89828,104.218911 106.082917,103.308595 C108.313299,101.594694 111.45889,99.7760867 116.006944,97.5773891 C127.070511,92.2288514 138.691101,88.3889166 150.817026,86.0099066 C183.105715,79.6751223 208.839492,77.3471768 249.94235,79.3799039 C295.870637,81.6512708 364.594157,89.8100548 493.886996,107.917941 C573.597155,119.08161 699.184056,136.428588 870.643484,159.958279 C870.808719,159.980955 870.973362,160.00776 871.137257,160.038671 C883.457574,162.362313 891.837681,167.35308 894.863763,176.237999 C895.326196,177.595755 895.500595,178.757506 895.87005,181.776279 C896.045314,183.208343 896.235968,184.94003 896.325954,185.864933 L949.17112,729.023218 C949.277704,730.118718 949.574876,739.677448 949.565315,741.457779 C949.391091,773.899028 942.153863,801.813789 928.116466,822.807945 C903.822908,859.141087 883.600411,873.693161 851.057977,874.95538 C831.048865,875.731471 631.400208,890.842428 253.73477,920.17219 C253.344044,920.202534 252.951873,920.209883 252.560284,920.194199 C220.915513,918.926727 193.901448,917.0777 171.498335,914.641779 C147.886831,912.074467 135.732539,909.713763 121.792247,903.757734 C104.018798,896.163978 88.1892813,883.547811 72.4828963,863.720642 C57.0466268,844.234457 47.3240815,825.81465 42.2666629,807.61858 C38.1001538,792.627909 37.175997,778.629413 38.4249044,762.371678 C39.3273717,750.623751 49.3300379,643.160265 68.4931098,439.320375 C74.0781409,379.91173 84.2003482,272.44472 98.8597887,116.918736 Z" id="Combined-Shape" fill="#000000" fill-rule="nonzero"></path>
    </g>
</svg>