<?xml version="1.0" encoding="UTF-8"?>
<svg width="960px" height="960px" viewBox="0 0 960 960" version="1.1" xmlns="http://www.w3.org/2000/svg" xmlns:xlink="http://www.w3.org/1999/xlink">
    <!-- Generator: Sketch 54.1 (76490) - https://sketchapp.com -->
    <title>VMB4500</title>
    <desc>Created with Sketch.</desc>
    <g id="VMB4500" stroke="none" stroke-width="1" fill="none" fill-rule="evenodd">
        <path d="M64.6913372,877.499748 C54.4704101,878.776532 46.6721851,880.443501 42.1262606,882.505744 C39.6800268,883.615469 38.559301,884.66685 38.5023443,885.347619 C38.4777909,885.641092 38.6324402,886.072628 39.1115507,886.693413 C39.7788425,887.558025 40.9255108,888.550679 42.5674728,889.63451 C60.6981545,900.05607 93.0802001,906.450299 115.376104,905.500765 L923.060062,865.57942 C931.452879,865.221967 936.190136,863.660536 936.49905,862.425261 C936.561961,862.17369 936.169668,861.429589 934.836497,860.289607 C933.026205,858.741642 930.022899,857.028302 925.953785,855.278404 C923.778977,854.343142 921.41131,853.427622 918.886485,852.543069 C919.009619,852.627338 919.135205,852.706939 919.263221,852.781897 L916.736779,857.09665 C912.021379,854.335616 909.719963,848.60927 909.564401,840.167816 C909.91123,506.092249 909.91123,335.128195 909.568763,329.339381 C909.310151,324.967992 904.415415,321.703777 894.043126,319.918679 C711.713231,297.196883 578.159784,280.444968 493.381823,269.662809 C356.274509,252.225342 283.41898,244.37096 235.098103,242.200902 C192.519301,240.288717 166.175253,242.452836 132.801117,248.398782 C118.37187,250.969501 103.663244,256.004972 88.6732879,263.51308 L88.5597346,263.566435 C81.696928,266.583208 78.2417855,273.270075 78.2417855,284.137815 L78.2417855,844.431081 C78.2417855,865.004692 72.8947305,881.40802 60.0500249,887.35269 L57.9499751,882.815092 C60.5389715,881.616877 62.7817056,879.815771 64.6913372,877.499748 Z M938.97273,866.984814 C936.060699,869.136155 930.71872,870.25775 923.289858,870.574108 L115.605901,910.495453 C92.3826968,911.484539 59.0241699,904.891037 40.0069737,893.929818 L39.8832336,893.853622 C38.2836438,892.80331 36.9920312,891.736382 36,890.670539 L36,913.600861 L36.3630849,913.600861 C37.0191352,915.069311 38.5874396,916.683893 41.2554046,918.459389 C61.8815643,930.508667 95.9631884,935.755967 115.499521,934.912661 L923.166441,894.452564 C934.525407,893.962242 938.889552,892.034005 938.889552,887.921895 L938.889552,884.712024 L938.97273,866.984814 Z M922.064707,839.795655 C925.225759,840.892446 928.199249,842.043881 930.936974,843.237135 C939.521922,846.978936 945.211957,850.885695 947.687862,856.217634 C948.53028,857.691347 949.00843,859.399766 948.99989,861.219892 L948.889552,884.712024 L948.889552,887.921895 C948.889552,894.332636 945.124448,899.253521 939.168613,901.761571 C935.322685,903.381122 930.415802,904.14895 923.666764,904.44004 L115.93078,944.903358 C91.3602652,945.96397 56.5894747,938.998441 36.2112757,927.094015 C36.0429355,926.995675 35.8775072,926.892433 35.7152028,926.784421 C32.9489923,924.943544 30.7347338,923.017544 29.1041977,920.84298 C27.1918333,919.021509 26,916.450369 26,913.600861 L26,884.712024 C26,883.518802 26.2089868,882.37439 26.5923542,881.313397 C27.7886246,877.347227 30.6119935,874.449181 34.3868896,872.243055 C37.1209756,870.6452 40.4742035,869.366451 44.5067119,868.262075 C49.5547525,866.879577 55.7370715,865.758961 62.9182811,864.84426 C64.8053546,859.208051 65.7417855,852.046365 65.7417855,844.34719 L65.7417855,284.053924 C65.7417855,268.739999 71.5262404,257.438397 83.2811207,252.149809 C99.2425299,244.176536 115.020937,238.78578 130.608638,236.008671 C164.835463,229.91081 192.081726,227.672575 235.658904,229.629597 C284.441382,231.820385 357.502072,239.696885 494.958884,257.178801 C579.732862,267.960454 713.296526,284.713635 895.646031,307.437852 C895.797012,307.456667 895.947543,307.478926 896.097508,307.50461 C903.068059,308.698444 908.650216,310.592299 912.929394,313.43945 C918.358488,317.051698 921.677041,322.264669 922.046946,328.517278 C922.414758,334.734508 922.414867,502.411454 922.064707,839.795655 Z" id="Combined-Shape" fill="#000000" fill-rule="nonzero"></path>
        <path d="M526.891818,826.088108 L580.108182,827.442518 C587.580365,827.632692 593.797825,833.292428 593.995268,840.083891 C594.19271,846.875354 588.187463,852.53509 580.582173,852.725265 L526.417827,854.079674 C518.812537,854.269849 512.80729,848.003723 513.004732,840.083891 C513.202175,832.164059 519.419635,825.897933 526.891818,826.088108 Z" id="Rectangle" fill="#000000"></path>
    </g>
</svg>