<?xml version="1.0" encoding="UTF-8"?>
<svg width="960px" height="960px" viewBox="0 0 960 960" version="1.1" xmlns="http://www.w3.org/2000/svg" xmlns:xlink="http://www.w3.org/1999/xlink">
    <!-- Generator: Sketch 54.1 (76490) - https://sketchapp.com -->
    <title>VMC4030</title>
    <desc>Created with Sketch.</desc>
    <g id="VMC4030" stroke="none" stroke-width="1" fill="none" fill-rule="evenodd">
        <path d="M159.944905,883.092864 C140.140879,871.134845 121.84922,855.429731 105.875095,836.620562 L105.763559,836.489231 L105.671094,836.343839 C100.775288,828.645638 96.2080679,821.223545 91.9694972,814.076922 C62.5178351,772.859418 45.3749462,724.131171 45.2151455,676.463794 L44.0011455,314.016804 C43.7488757,238.722044 85.4310077,169.66786 152.590252,130.359087 C153.127567,129.957499 153.824985,129.443393 154.679862,128.822603 C156.413944,127.563358 158.418865,126.140189 160.688241,124.567216 C166.949369,120.227436 174.190977,115.458448 182.362113,110.373267 C205.298327,96.0992677 231.334341,81.9232573 260.065152,68.7517402 C341.594567,31.3749298 428.959167,9 518.901389,9 C631.593315,9 721.396044,39.1761904 787.526155,105.359131 C861.417419,179.309425 904.065082,297.011262 913.297148,464.040091 C918.481712,557.835606 914.334343,637.228106 902.200595,703.495436 C892.044788,758.960423 876.608536,803.647318 857.191919,838.888963 C846.050996,859.110015 834.098359,875.323474 821.714684,888.211949 C816.995908,893.123077 812.41468,897.340846 807.896838,901.058404 C806.147424,902.497929 804.469628,903.811774 802.768998,905.088922 C802.112835,905.581691 801.475987,906.052129 800.782387,906.558296 C800.392761,906.842632 799.262086,907.662739 799.268019,907.658424 C775.695485,924.801696 736.841147,937.23497 677.277839,942.529722 C612.764684,948.264564 455.687218,954.569 385.407389,954.569 C339.584734,954.569 306.144824,951.377891 270.164544,941.165157 C231.038375,930.059486 194.45257,911.296194 159.944911,883.092868 Z M206.5637,903.361623 C271.785566,941.331143 335.040156,944.569 385.407389,944.569 C451.404389,944.569 608.896389,938.569 676.392389,932.569 C743.889389,926.569 776.887389,911.57 793.386389,899.571 C809.886389,887.571 922.381389,809.575 903.312389,464.592 C884.244389,119.609 722.890389,19 518.901389,19 C317.256613,19 161.684902,136.011377 158.134414,138.70188 C153.064873,141.651942 148.134753,144.78763 143.354616,148.09828 C170.968408,132.524899 202.131582,122.944498 234.425911,120.849556 L234.587747,120.844312 L330.117472,120.844312 C438.048072,120.844312 522.009357,207.084253 522.532934,317.368324 C522.875929,389.615591 525.530444,519.681651 530.497311,707.607346 C530.754672,761.805883 512.486428,813.999375 480.369717,851.933593 C446.954226,891.401848 401.319175,912.427876 351.10528,909.168961 L240.596295,909.168961 L240.429914,909.163418 C228.974132,908.399311 217.64919,906.436465 206.563694,903.361619 Z M180.148705,886.066393 C194.034639,891.149398 208.401049,894.291877 222.993857,895.292355 L223.164855,895.29821 L325.980073,895.29821 C372.77381,898.417231 415.294151,878.278939 446.416454,840.494651 C476.314023,804.197261 493.316701,754.265565 493.077182,702.418554 C488.455754,522.688705 485.985865,398.295754 485.666726,329.199967 C485.171442,221.967509 404.126759,134.80113 306.378565,141.138588 L217.5742,141.138588 L217.407873,141.144127 C166.152362,144.561762 119.034698,168.817914 86.1897093,206.48096 C79.3483356,216.934921 73.4819745,227.991439 68.7038764,239.536197 L68.7551549,239.565502 C99.2683843,186.173842 155.328051,150.323043 217.657739,146.138588 L306.45985,146.138588 L306.622907,146.133265 C401.35892,139.941146 480.183969,224.691304 480.666779,329.223061 C480.986128,398.36422 483.456543,522.783662 488.078035,702.494372 C488.31147,753.144643 471.69588,801.939578 442.557095,837.31576 C412.40284,873.924781 371.381361,893.339867 326.231393,890.303843 L326.063664,890.29821 L223.250823,890.29821 C202.963286,888.895237 183.098216,883.203287 164.390327,873.79079 C169.64257,878.143546 174.897234,882.230017 180.148705,886.066393 Z M74.0319535,590.028749 C73.058813,524.868295 71.9022745,438.823538 70.5621054,331.879814 C69.8121782,292.716503 85.2093576,255.03938 112.845943,225.978323 C140.440864,196.961077 178.053616,178.824555 218.525505,175.934096 L307.312,175.934096 L307.488087,175.927887 C346.13735,173.198853 382.5342,188.269521 410.114921,216.911261 C438.769356,246.66802 455.461684,288.376499 455.667046,332.34332 C455.917968,386.064033 457.493363,473.458546 460.391975,594.440598 L74.0319535,590.028749 Z M465.394783,594.497725 C462.494212,473.454834 460.91786,386.02925 460.666992,332.319966 C460.455667,287.076495 443.268705,244.132096 413.716536,213.443067 C385.159768,183.787731 347.367977,168.126395 307.224265,170.934096 L218.436691,170.934096 L218.259969,170.94035 C176.495258,173.900055 137.686982,192.601313 109.222725,222.532703 C80.7,252.525575 64.7872803,291.464232 65.5627599,331.959007 C67.7562034,506.997273 69.4579282,626.059447 70.6688787,689.202715 C71.4907289,732.056908 89.7482605,776.620088 119.922083,811.088726 C148.640788,843.89513 185.279941,864.424151 223.874951,867.294806 L224.060386,867.301693 L326.853388,867.301693 C364.556449,870.038849 398.925921,854.428578 424.804077,824.817206 C452.466647,793.163998 468.238768,748.392003 468.078487,701.635518 L468.077657,701.579105 C467.133698,665.275791 466.279449,631.248648 465.514932,599.499423 L465.551152,599.499837 L465.608243,594.500163 L465.394783,594.497725 Z M460.512104,599.442296 C461.277599,631.2375 462.133109,665.317506 463.07861,701.680782 C463.228419,747.242609 447.873167,790.821893 421.039191,821.526973 C396.133181,850.025957 363.227848,864.957352 327.12745,862.308396 L326.944498,862.301693 L224.153705,862.301693 C186.995552,859.509478 151.56445,839.643935 123.684222,807.795352 C94.2649699,774.188687 76.4665081,730.74601 75.6679595,689.106844 C75.2160327,665.541772 74.6956974,634.183917 74.1069003,595.029931 L460.512104,599.442296 Z M217.740527,146.133049 C217.71293,146.134889 217.685334,146.136735 217.657704,146.138588 L217.5742,146.138588 L217.740527,146.133049 Z M265.393463,539.74759 C317.930568,541.509424 360.467967,497.243553 360.467967,441 C360.467967,384.756447 317.930568,340.490576 265.393463,342.25241 C212.961421,344.01072 170.48654,388.211532 170.48654,441 C170.48654,493.788468 212.961421,537.98928 265.393463,539.74759 Z M265.383348,551.381724 C324.10141,553.588861 371.648164,504.110085 371.648164,441 C371.648164,377.889915 324.10141,328.411139 265.383348,330.618276 C206.78302,332.820987 159.306344,382.226837 159.306344,441 C159.306344,499.773163 206.78302,549.179013 265.383348,551.381724 Z M265.571159,546.385253 C209.659763,544.283616 164.306344,497.087299 164.306344,441 C164.306344,384.912701 209.659763,337.716384 265.571159,335.614747 C321.364823,333.517535 366.648164,380.640926 366.648164,441 C366.648164,501.359074 321.364823,548.482465 265.571159,546.385253 Z M265.544484,515.711636 C225.928498,514.645898 193.781407,481.192536 193.781407,441 C193.781407,400.807464 225.928498,367.354102 265.544484,366.288364 C305.076159,365.224893 337.173101,398.626067 337.173101,441 C337.173101,483.373933 305.076159,516.775107 265.544484,515.711636 Z M265.439485,486.864646 C289.88124,487.233942 309.648894,466.663045 309.648894,441 C309.648894,415.336955 289.88124,394.766058 265.439485,395.135354 C241.045103,395.503933 221.305614,416.04552 221.305614,441 C221.305614,465.95448 241.045103,486.496067 265.439485,486.864646 Z M265.515022,481.865217 C243.880182,481.538332 226.305614,463.249637 226.305614,441 C226.305614,418.750363 243.880182,400.461668 265.515022,400.134783 C287.102491,399.808614 304.648894,418.068 304.648894,441 C304.648894,463.932 287.102491,482.191386 265.515022,481.865217 Z M270.010017,431.474127 C270.010017,423.678482 263.897323,417.357951 256.311395,417.413862 C248.744824,417.46963 242.649624,423.812504 242.649624,431.548288 C242.649624,439.290368 248.754716,445.603038 256.327978,445.60862 C263.907266,445.614206 270.010017,439.263476 270.010017,431.474127 Z M406.740459,460.146125 C416.601453,460.200634 424.5,451.576542 424.5,441 C424.5,430.423458 416.601453,421.799366 406.740459,421.853875 C396.897209,421.908286 389.008556,430.521574 389.008556,441 C389.008556,451.478426 396.897209,460.091714 406.740459,460.146125 Z M141.945952,441 C141.945952,431.233652 133.989619,423.361574 124.186411,423.415764 C114.400085,423.46986 106.454508,431.331296 106.454508,441 C106.454508,450.668704 114.400085,458.53014 124.186411,458.584236 C133.989619,458.638426 141.945952,450.766348 141.945952,441 Z" id="Combined-Shape" fill="#000000" fill-rule="nonzero"></path>
    </g>
</svg>