<svg height="960" viewBox="0 0 960 960" width="960" xmlns="http://www.w3.org/2000/svg"><path d="m662.685461 143.35407c21.48629.509709 42.081273 2.049872 61.67449 4.491579 17.20748 2.144397 33.353601 4.948293 48.250833 8.264011 12.642562 2.81389 24.048484 5.923411 33.780482 9.102336 8.251633 2.695369 15.02554 5.358417 19.247988 7.537685 20.24533 10.448919 37.516137 24.733652 51.981436 42.288793 12.568705 15.253428 22.800312 32.694348 31.008045 51.933552 6.80648 15.954619 12.042385 32.701638 16.038787 50.13509 2.964791 12.93327 4.9796 24.85555 6.732841 38.1712 3.866494 29.365536 5.661362 88.545628 5.504351 178.492454l-.002563-.356985c.802795 49.845219-4.221182 92.648558-15.230809 128.462307-11.349129 36.918136-29.112462 66.542002-53.386793 88.475577-18.351853 16.582195-39.915907 29.32051-64.521237 38.769698-21.304137 8.181431-44.601733 13.812003-70.47511 17.507201-15.543436 2.219891-31.764286 3.716122-49.840884 4.739839-7.39177.418612-15.012506.755365-23.576293 1.058098-6.111886.216057-8.08041.275612-22.171918.686332-7.399407.215668-11.887489.356532-16.438511.52355-32.786226 1.203217-92.177438-3.175509-162.580118-11.18521-59.642651-6.785534-118.577534-15.306781-140.969046-20.322623-8.891847-1.99183-17.042397-4.199749-24.494696-6.597273-11.944362-3.842694-21.720413-8.038197-29.712339-12.455246-3.025765-1.672306-5.642377-3.290959-8.014599-4.908756-.833708-.568568-1.54567-1.073075-2.344215-1.652995-.111976-.081319-.530696-.386405-.604296-.439662-.016863-.012202.010485.007123.153939.103108-33.490265-22.408399-57.484485-54.886738-71.787228-96.764495-16.203796-47.443951-21.83384-112.391827-17.303111-195.23255 2.033617-87.010219 10.746632-151.074063 26.628212-192.903321 12.014612-31.644352 29.585712-53.746594 53.071432-68.273677 10.157108-6.282675 21.244868-11.061105 33.707066-14.808427 10.02884-3.015622 20.498106-5.274277 33.919968-7.54006l5.812468-.965029c30.954866-5.063676 90.301626-13.70595 178.221791-25.957021l-.406488.060905c52.291844-8.385361 108.33461-11.858392 168.126125-10.439985zm-164.959442 30.187697c-93.585327 13.040473-154.740427 21.985274-183.465299 26.834404-43.087309 7.273696-82.9633 19.090508-105.32994 78.00026-14.911094 39.273168-23.356597 101.41401-25.33651 186.422527-4.443777 80.721712.969659 143.438438 16.240308 188.150178 12.925561 37.845435 34.253115 66.7142 63.98266 86.606294 2.433251 1.628093 16.655776 13.735835 58.265979 23.056785 41.610202 9.32095 229.196693 33.57892 298.443896 31.037626 69.247202-2.541294 170.006744 0 234.348892-58.137679 42.894766-38.758453 63.571012-106.017221 62.028739-201.776304.15544-89.047076-1.622306-147.66265-5.333239-175.846721-4.865257-36.951019-20.336243-128.777711-95.104912-167.366941-10.775071-5.561175-66.342282-25.088228-154.255449-27.173751-58.608778-1.39035-113.437153 2.007425-164.485125 10.193322zm165.43376-50.182072c22.160048.525693 43.421978 2.115732 63.673441 4.63947 17.839232 2.223126 34.609905 5.13548 50.122694 8.588204 25.196098 5.607965 46.700665 12.632361 57.856001 18.389797 22.730418 11.73151 42.103893 27.755366 58.243874 47.342908 13.856852 16.816727 25.048141 35.893533 33.968852 56.803982 7.305084 17.123362 12.890077 34.986937 17.137227 53.514224 3.124415 13.629599 5.238515 26.139417 7.067354 40.029215 4.022054 30.547001 5.834043 90.291611 5.675461 181.138187l-.005126-.713971c.834454 51.810897-4.430007 96.663112-16.111136 134.661227-12.360136 40.206887-31.994049 72.950315-59.095329 97.438237-20.271522 18.316753-43.954467 32.306738-70.759718 42.600763-22.826107 8.765913-47.552326 14.741755-74.817494 18.635727-16.161111 2.308106-32.93173 3.855049-51.53773 4.908747-7.546782.427391-15.304806.77021-24.000559 1.077608-6.171649.21817-8.152343.278093-22.295799.690327-7.352348.214296-11.800128.353896-16.287712.518585-18.245006.669571-43.382843-.26117-74.402146-2.548125-27.174913-2.00352-58.448335-5.028826-91.172269-8.751823-60.315967-6.862137-119.794537-15.461995-143.080017-20.67809-9.475194-2.122504-18.210547-4.488841-26.248057-7.074637-13.15759-4.233009-24.12278-8.938845-33.261685-13.989816-3.586013-1.981949-6.732549-3.928417-9.608616-5.889823-1.017164-.693681-1.882318-1.306741-2.828007-1.993521-.136067-.098814-.534907-.389416-.576429-.419461.167284.121046.359057.256558.75636.522394-37.250984-24.924704-63.911871-61.012616-79.591796-106.922695-.020319-.059494-.040622-.11901-.05997-.179844-31.010102-22.260756-55.706554-53.671163-71.5851193-90.66182-18.1156326-42.202122-24.0895567-90.040537-16.6664243-137.81257 5.5112831-35.468206 18.0609656-68.73139 36.6071966-97.758195 15.26291-23.888059 34.354517-44.525137 56.264817-60.75258 1.572546-5.067997 3.237182-9.908197 4.993501-14.53403 13.533328-35.644377 33.90691-61.271792 61.248145-78.183702 11.746029-7.265501 24.421806-12.728311 38.468864-16.952192 10.959833-3.295567 22.177357-5.715652 36.349981-8.108174 29.23798-4.93575 90.625528-13.91455 184.60322-27.009696l-.812976.121812 40.849489-5.494921c41.547124-4.551876 85.186947-6.276576 130.917637-5.191728zm-165.43376 50.182072c-93.585327 13.040473-154.740427 21.985274-183.465299 26.834404-43.087309 7.273696-82.9633 19.090508-105.32994 78.00026-2.846007 7.495875-5.456476 15.824807-7.833922 24.984341-44.620776 28.317403-78.37908 78.723371-87.901281 140.004088-12.86461 82.790999 22.359821 160.638095 82.693558 196.854288 1.232565 4.394172 2.547713 8.637501 3.945443 12.729988 12.925561 37.845435 34.253115 66.7142 63.98266 86.606294 2.433251 1.628093 16.655776 13.735835 58.265979 23.056785 41.610202 9.32095 229.196693 33.57892 298.443896 31.037626 69.247202-2.541294 170.006744 0 234.348892-58.137679 42.894766-38.758453 63.571012-106.017221 62.028739-201.776304.15544-89.047076-1.622306-147.66265-5.333239-175.846721-4.865257-36.951019-20.336243-128.777711-95.104912-167.366941-10.775071-5.561175-66.342282-25.088228-154.255449-27.173751-58.608778-1.39035-113.437153 2.007425-164.485125 10.193322zm179.909159-28.240034c21.626104.516562 42.344104 2.076605 62.041991 4.548279 17.271456 2.167207 33.461054 4.998035 48.377916 8.341009 12.607396 2.825407 23.949723 5.938907 33.58056 9.106475 7.954302 2.616158 14.402076 5.168467 18.143464 7.112764 19.040953 9.895067 35.346483 23.361401 49.101606 39.93106 12.07688 14.548017 22.005756 31.258503 30.047618 49.769138 6.758261 15.556063 12.020315 31.985532 16.076069 49.148581 3.07818 13.02617 5.235471 25.358154 7.034485 38.700017l.002722.020342.311985 2.350154.002548.019339c.118964.909747.235835 1.847088.350647 2.812126.001406.011817.002791.023636.004155.035457l.21824 1.891943c.001311.01137.002603.022742.003876.034117.037208.332592.074195.668266.110961 1.007026.001144.010549.002272.021099.003384.03165l.211122 2.004766c.001071.01017.002126.020342.003166.030515.035799.350252.071381.703593.106746 1.060027.00094.009472.001866.018944.002779.028418l.204004 2.117589c.000881.009148.00175.018297.002606.027448.034436.368078.068659.739253.102669 1.113526.000777.00855.001543.0171.002297.025651l.196886 2.230412c.001437.016276.002834.032555.004191.048838l.19214 2.305627c.001273.015266.00251.030535.003712.045807l.187395 2.380843.001696.021852c.03138.410167.062552.82344.093517 1.239821l.001508.020565.180277 2.493665c.000948.013114.00187.02623.002766.039348l.175532 2.568881.001269.018833c.029267.440538.058329.884188.087186 1.330951l.001133.017798.168414 2.681703c.000715.011384.00141.022769.002086.034155l.163668 2.756919c.000641.010786.001263.021573.001869.03236l.158923 2.832135c.000574.010233.001132.020467.001675.030701l.154177 2.90735c.000516.009722.001017.019444.001504.029168l.149432 2.982564c.000464.009248.000914.018496.001352.027745l.144686 3.05778.000624.013371c.02392.520261.047638 1.043644.071155 1.570147l.000561.012745.137569 3.170603c.000356.008203.000702.016405.001037.024609l.132823 3.245818.000934.023502.128078 3.321033.000841.022467.123332 3.396249c.000324.008909.000636.017818.000935.026728l.176101 5.235402c.000339.01008.000663.020161.000971.030242l.165424 5.404636.0007.023797.104351 3.697111.000496.018187.099606 3.772325.000446.017479.09486 3.847541.000493.020912.133393 5.91234.000509.023819.122715 6.081575.000362.018861.075879 4.148402.000313.018028.10492 6.363632.000318.020607.094243 6.532867.000223.016375.056896 4.449264.000154.012611.052151 4.524479.000163.015187.06933 6.927747.000135.014582.040288 4.712517.00011.014012.051534 7.209804.000087.013475.028424 4.900555.000055.010413.023679 4.975771.000043.010103.018965 5.060793.014188 5.126201.000026.011862.012384 7.83033.000012.011442.002324 5.314239-.000001.011044-.005417 8.118832c-.001196.912188-.002591 1.827508-.004183 2.74596 1.59156 101.123236-20.380354 173.024235-66.712983 215.177641-14.083036 12.812741-30.188562 23.311057-48.24159 31.743231-16.374639 7.648235-34.250234 13.55552-53.749668 17.99774-17.10018 3.89564-35.266982 6.633272-55.157628 8.505265-15.978767 1.50383-32.075032 2.395391-52.747246 3.092422l-.011188.000371-4.735753.154375-.021052.000664-7.001319.213465-.010543.000316-11.361871.334421-4.417014.135446-4.344794.141427c-.726763.024549-1.437143.049049-2.125522.073312l-2.125683.076695c-1.029371.038037-2.052345.074174-3.069008.108423l-.016453.000541-2.983499.09559-.016635.000519c-.497829.015121-.994126.029781-1.488901.04398l-.01683.000468-2.905704.078493-.017014.000445c-.485096.012278-.968711.024105-1.450858.035483l-.017202.000391-2.829829.061906-.017386.000365c-.47268.009518-.943933.018596-1.41377.027235l-.017566.000308-2.755873.045831-.017751.00028c-1.378026.02047-2.743752.037096-4.097493.049912l-.018151.000155-2.636875.020177c-.010241.000078-.020482.000141-.030723.000188l-2.590768.011969h-.045792-3.801567-.070321l-2.479232-.017683-.021716-.000176-2.436108-.022423-.019271-.000196c-.408268-.004544-.815421-.009469-1.221472-.014774l-.019368-.000272-2.373024-.035599-.019537-.000312c-.397941-.006747-.794824-.013865-1.190664-.021352l-.01961-.00039-2.311858-.048265c-.013176-.000275-.026352-.000576-.039527-.000903l-2.272146-.056423c-.013266-.00033-.026531-.000686-.039795-.001068l-2.233287-.064355c-.013343-.000385-.026686-.000796-.040028-.001234l-2.19528-.07206-.02014-.000681c-.368804-.01285-.736729-.026041-1.103789-.039571l-.020125-.000762-2.139869-.08319c-.013483-.000525-.026965-.001076-.040446-.001655l-2.103994-.090327-.020313-.000893c-.3538-.01591-.706824-.032144-1.059089-.048701l-.020236-.000972-2.051781-.100606c-.01353-.000663-.027059-.001354-.040587-.002072l-2.018038-.107174-.020341-.001101c-.33963-.018731-.678591-.037771-1.016903-.057118l-.020191-.001175-1.969023-.1166c-.013469-.000797-.026936-.001622-.040402-.002474l-1.937411-.1226c-.013411-.000849-.02682-.001724-.040227-.002627l-1.906652-.128372c-.013331-.000898-.02666-.001822-.039987-.002773l-1.876747-.133918c-.013229-.000943-.026455-.001914-.03968-.00291l-1.847693-.139236c-.013104-.000987-.026205-.002-.039305-.003039l-1.819492-.144326c-.012954-.001028-.025906-.002081-.038856-.003159l-1.792144-.149189c-.012779-.001064-.025556-.002152-.038331-.003265l-1.765649-.153825c-.012578-.001096-.025153-.002216-.037727-.003359l-1.740006-.158234c-.01235-.001123-.024697-.002269-.037042-.003438l-1.715217-.162415c-.012093-.001145-.024184-.002312-.036272-.003501l-1.69128-.16637c-.011808-.001161-.023614-.002344-.035418-.003547l-1.668195-.170096c-.014282-.001457-.028561-.002944-.042836-.004461l-2.460875-.261635c-.013799-.001467-.027594-.002962-.041387-.004487l-1.614214-.178418c-.010576-.001169-.021151-.002355-.031723-.003558l-1.594114-.181349c-.014983-.001705-.029961-.003443-.044936-.005215l-3.131338-.370583c-.014104-.001669-.028204-.003368-.0423-.005098l-1.53893-.188779c-.010767-.00132-.021532-.002659-.032295-.004014l-2.277368-.286889c-.013616-.001715-.027228-.003458-.040836-.00523l-2.983052-.388268c-.011882-.001547-.023762-.003114-.035638-.004704l-2.20094-.294519c-.008561-.001146-.01712-.002303-.025678-.00347l-2.172982-.296512c-.493956-.067402-.98218-.171648-1.460588-.311866l-2.142464-.627938-2.320762-.664118c-28.94482-8.191135-52.894412-19.891203-72.333264-34.923597-17.792594-13.759315-31.648931-30.174335-42.140762-49.145237-9.087496-16.43164-15.523236-34.4829-20.068672-54.781422-1.911117-8.534463-3.477041-17.404155-4.824656-27.002533-1.08826-7.751118-1.983002-15.523083-2.995353-25.556812l-.00117-.011664-.398163-3.993179-.001259-.012716-.194748-1.978737c-3.548558-36.15197-5.615862-79.837229-5.656447-125.907974-.043561-53.519968 2.616177-108.308795 8.266805-161.756836 8.252816-78.061567 41.86899-131.717149 100.654751-159.610119.015952-.007569.031925-.015096.047917-.022581l1.202736-.562894c.047424-.022195.095019-.044016.142782-.065458.034374-.019073.068894-.03788.103524-.056483.091968-.049403.18484-.098332.278677-.146851.042497-.021974.085151-.043642.127959-.065004l.302017-.150707c.039171-.019547.07847-.038836.117895-.057867.0895-.043202.179994-.086199.271521-.129027.033537-.015693.067161-.031199.10087-.046518l.348418-.15834c.060002-.027268.120272-.053942.180802-.080019l.379352-.163427c.052226-.0225.104644-.044553.157246-.066158l.410287-.168516c.045825-.018821.091789-.037302.137888-.05544l.441221-.173604c.040502-.015936.081108-.031607.121814-.047013l.472156-.178692c.036035-.013637.072149-.027067.10834-.040287l.50309-.18378c.032255-.011783.06457-.023399.096944-.034849l.534024-.188868c.035824-.012669.071719-.025134.107684-.037395l.859039-.292841c.031646-.010788.063347-.021417.0951-.031888l.61136-.201587c.022779-.007511.045585-.01494.068418-.022287l.642295-.206676c.020827-.006702.041675-.013335.062545-.019899l.673229-.211764c.019112-.006012.038242-.011966.057389-.017862l.704164-.216852c.025874-.007968.051781-.015831.077718-.023589l1.501132-.448967c.026611-.007959.053255-.015807.079931-.023544l1.207051-.350082c.017026-.004938.034064-.00983.051115-.014678l.843369-.239747c.015602-.004436.031214-.008833.046836-.013192l1.323056-.369162c.016843-.004699.033697-.009354.050564-.013965l1.351312-.369417c.017645-.004824.035304-.009599.052976-.014326l1.934966-.517578c.015279-.004087.030567-.008138.045866-.012152l1.356865-.356054c.013894-.003646.027795-.007262.041705-.010848l2.135629-.550583c.297762-.076765.598907-.139756.902473-.18877 52.837569-8.531281 109.527012-12.068606 170.067102-10.62254zm-166.520784 30.318335-1.570723.404946-1.312982.344538-1.885518.504351-1.29966.355297-1.27432.355563-.794358.225816-1.141443.331053-1.422335.425401-.636653.19606-.613286.192909-.576761.185589-.529577.17462-.757662.258283-.431659.152664-.400476.146295-.357039.135124-.311295.122483-.262641.107874-.210229.090568-.180257.081918-.08464.042236-.225361.125527c-.084937.047311-.17056.09338-.25684.138193-.31723.164767-.634629.312909-.957247.449179l-.954339.446642c-52.062269 24.704673-81.775809 72.13298-89.335878 143.642002-5.573397 52.717531-8.198951 106.802199-8.154869 159.637218.03895 45.437084 2.075717 88.477065 5.559442 123.968529l.193857 1.969681.396637 3.97788c.988411 9.796304 1.855877 17.331186 2.901855 24.781157 1.276782 9.093865 2.750537 17.441494 4.535572 25.412913 4.15463 18.553305 9.961201 34.839843 18.053752 49.472463 9.197595 16.630717 21.280414 30.944725 36.873813 43.003365 17.349891 13.416965 38.999181 23.991551 65.571639 31.508266.009757.00276.01951.005535.029258.008324l2.351518.672921c.020481.005861.040943.011787.061386.017779l1.454476.426294 1.418234.193524 2.170108.290394 2.944869.383299 2.240781.282279 1.501764.18422 3.087701.365419 1.555763.176986 1.577636.174376 2.418685.257149 1.629026.166102 1.65556.162856 1.678517.15894 1.702735.154845 1.727581.150508 1.75356.145977 1.780315.141219 1.808362.136271 1.836853.131071 1.866588.125674 1.897079.120047 1.935371.114607.962803.054078 1.984109.105373 2.018123.098955 1.00505.046216 2.070062.088871 2.106245.081884 1.050162.037647 2.161821.070962 2.193376.063205 2.232542.05544 2.278815.047574 1.138593.020419 2.347106.03521 1.16995.014151 2.412379.022204 2.433252.017112h3.743506l2.552439-.011688 2.60864-.019961c1.314341-.012445 2.640729-.028592 3.979441-.048476l2.731605-.045428 1.367114-.026337 2.806773-.061402 1.405383-.034371 2.883015-.077879 1.444383-.042665 2.961398-.094882c.993048-.033455 1.99245-.068763 3.00692-.106246l2.142648-.077307c.708185-.024965 1.429982-.049857 2.168017-.074786l.012235-.000405 4.361675-.141978.018837-.000595 4.432358-.135917.012294-.000369 11.363108-.334458 6.98549-.212983 4.715824-.153725c20.304922-.684663 36.034516-1.555933 51.545344-3.015723 19.078231-1.795534 36.403831-4.406401 52.589197-8.093634 18.178945-4.141396 34.716551-9.606521 49.728273-16.618167 16.286346-7.606996 30.703936-17.005038 43.246225-28.416008 41.384764-37.651841 61.709344-104.222429 60.173472-200.241461-.000945-.059086-.001366-.118178-.001264-.177271.001587-.915641.002977-1.828146.004164-2.731071l.005407-8.106869-.00232-5.302841-.012366-7.818937-.014139-5.110357-.018915-5.045938-.02363-4.965514-.028355-4.888594-.051436-7.196073-.040165-4.698194-.069182-6.913-.051986-4.510174-.056717-4.43523-.093973-6.514219-.104602-6.344305-.075541-4.12995-.122288-6.060414-.132883-5.88975-.094387-3.828391-.099134-3.754497-.103762-3.67623-.164594-5.377512-.175141-5.206888-.122441-3.371712-.127192-3.298063-.131843-3.221871-.136662-3.14968-.069577-1.535339-.143604-3.034904-.148013-2.954228-.152586-2.877353-.15715-2.800535-.161698-2.723728-.166583-2.652563-.083997-1.282292-.173328-2.536626-.177865-2.460306-.089247-1.183214-.184463-2.343592-.188184-2.258148-.193368-2.190566c-.03176-.349492-.063699-.695896-.095815-1.039202l-.200776-2.084086c-.032644-.32898-.065462-.65488-.098454-.977692l-.207182-1.967352c-.033436-.308052-.06704-.613036-.100811-.914942l-.213289-1.84902c-.105065-.882863-.211614-1.737311-.319612-2.563297l-.30769-2.317807c-1.718191-12.74226-3.767471-24.456605-6.677537-36.771355-3.797526-16.070284-8.702666-31.385376-14.955794-45.778731-7.32478-16.860067-16.294578-31.956406-27.092527-44.963803-12.099552-14.575328-26.33543-26.332388-42.93552-34.959004-2.630318-1.366905-8.151447-3.552407-15.169654-5.860685-9.00676-2.96231-19.723517-5.904089-31.705541-8.589346-14.297552-3.204182-29.858673-5.925118-46.494316-8.012544-19.035246-2.388526-39.081777-3.898008-60.02952-4.398367-59.214379-1.4144-114.563891 2.027703-166.043199 10.324038zm173.37726-4.034783c20.125651.472428 39.419337 1.863828 57.765198 4.058147 16.114057 1.927377 31.223303 4.441713 45.128362 7.40714 11.807249 2.518043 22.423444 5.29465 31.391387 8.113992 7.536064 2.369187 13.595719 4.67879 17.104719 6.470857 17.359139 8.865416 32.128204 20.973512 44.491311 35.900007 10.825313 13.069853 19.636002 28.083182 26.706747 44.740967 5.898177 13.895364 10.434928 28.551515 13.93342 43.989472 2.572395 11.35133 4.285945 21.504328 6.040773 34.292125l.002842.020869.303525 2.246977.002753.020544c.10684.803482.211956 1.631942.315442 2.485806.00151.01246.002996.024922.004459.037388l.208394 1.775411c.001402.01194.002782.023881.00414.035826.032441.28526.064711.573094.096812.86351.001223.011057.002426.022116.003612.033178l.202713 1.891702c.001139.010626.00226.021254.003365.031884.031837.306372.063501.615389.094991.927058.000999.009883.001983.019767.002952.029652l.196739 2.006945c.000934.009521.001853.019042.002759.028566.031114.327053.06205.656809.092811.989274.000822.008888.001633.017776.002431.026666l.188686 2.100637c.001487.016555.002933.033114.004337.049676l.182856 2.156355c.001317.015528.002598.03106.003842.046595l.180426 2.252746.001784.022593c.029106.374066.058031.750933.086774 1.130604l.001586.021246.174277 2.369082c.000982.013341.001936.026683.002864.040028l.169907 2.443653.00133.019409c.027495.406874.054805.816596.081931 1.22917l.001188.018332.163508 2.558653c.00074.011581.00146.023164.002159.034747l.158217 2.619103c.000663.010973.001308.021947.001934.032922l.153892 2.695148c.000594.010411.001172.020823.001734.031236l.149525 2.770966c.000534.009891.001053.019783.001557.029676l.145123 2.846579c.00048.009408.000946.018818.001399.028228l.141235 2.933323.00065.013709c.022933.490298.045677.983521.068232 1.479672l.000586.013064.134489 3.04616c.000369.008346.000727.016692.001074.025039l.129495 3.109872.000967.023911.124979 3.184774.000871.022859.120278 3.255002c.000335.009065.000658.01813.000968.027196l.172302 5.034089c.000351.010257.000687.020513.001006.030771l.161985 5.200972.000725.024213.102056 3.553423.000514.018506.097583 3.63196.000462.017784.09289 3.702623.000511.021279.130907 5.702067.000527.024237.120488 5.868182.000376.019193.074375 3.996074.000324.018343.103104 6.145589.00033.020969.092646 6.311356.00023.016663.05589 4.295095.000159.012833.051245 4.369165.000169.015454.068238 6.701073.000141.014837.03959 4.551063.000114.014258.050745 6.976943.00009.013711.027963 4.737748.000057.010596.02331 4.813717.000044.010281.018675 4.89726.013965 4.958786.000027.01207.012204 7.583128.000012.011643.002288 5.140664-.000001.011238-.005343 7.868636c-.001177.881512-.002549 1.766051-.004114 2.653615.733558 45.856393-3.529667 84.728386-13.022458 116.926785-9.860264 33.444825-25.418791 59.846265-46.969271 79.114571-13.096979 11.710022-28.098964 21.226153-44.944078 28.79859-15.206779 6.835953-31.815563 12.049725-49.985009 15.919225-15.790647 3.362894-32.563252 5.680487-51.117616 7.250231-14.435029 1.221239-28.282085 1.909994-48.620067 2.583994l-.01103.00036-4.646395.148848-.020689.000641-6.885607.206315-.010361.000305-11.22797.324777-4.396303.132485-4.324689.138344c-.735402.024406-1.454276.04877-2.151226.072916l-2.117572.075084c-.992173.036039-1.978109.070281-2.957889.102737l-.016355.000528-2.914004.091753-.016542.000507c-.468987.01399-.936543.027562-1.402678.040718l-.016739.000458-2.836353.075297-.016928.000435c-.455888.01133-.910399.022254-1.363542.032772l-.017119.000383-2.760608.05935-.017309.000357c-.443112.008759-.8849.017122-1.325374.025092l-.017492.000301-2.686774.043911-.017683.000274c-1.312287.019126-2.612774.034686-3.901753.046711l-.018094.000153-2.555492.019216c-.010064.000076-.020128.000136-.030192.000182l-2.481907.01127h-.045001-3.637916-.069108l-2.355886-.01652-.021341-.000171-2.365124-.021393-.019258-.000193c-.376927-.004135-.752839-.008604-1.127749-.013405l-.01936-.000267-2.304736-.033978-.019538-.000307c-.366372-.006117-.731786-.012557-1.096254-.01932l-.019616-.000383-2.223852-.045625c-.01295-.000266-.025899-.000557-.038847-.000873l-2.164231-.052816c-.013037-.000318-.026073-.000662-.039109-.001031l-2.125328-.060188c-.013114-.000371-.026227-.000768-.03934-.001191l-2.107602-.067989-.020181-.000671c-.336817-.011546-.672846-.023385-1.008101-.035516l-.020171-.00075-2.052441-.078416c-.013251-.000506-.026502-.001039-.039751-.001598l-2.016799-.085089-.020377-.000881c-.321799-.014234-.642907-.028746-.96334-.043534l-.020303-.000958-1.965144-.094695c-.013298-.00064-.026596-.001308-.039891-.002002l-1.931695-.100818-.020425-.001087c-.307813-.016696-.615036-.033655-.921685-.050876l-.020277-.001159-1.883606-.109617c-.013239-.000771-.026477-.001568-.039713-.002391l-1.832199-.113941c-.013182-.00082-.026362-.001666-.039541-.002538l-1.802237-.119248c-.013104-.000867-.026206-.00176-.039307-.002679l-1.77325-.124349c-.013004-.000911-.026007-.001849-.039007-.002812l-1.745245-.129246c-.012882-.000953-.025761-.001932-.038639-.002936l-1.718228-.133942c-.012735-.000993-.025467-.00201-.038198-.003051l-1.692205-.138439c-.012563-.001028-.025124-.00208-.037683-.003155l-1.667183-.14274c-.012366-.001059-.024729-.002141-.037091-.003245l-1.643165-.146849c-.012141-.001085-.024281-.002193-.036418-.003322l-1.620158-.150767c-.01189-.001106-.023778-.002234-.035664-.003383l-1.598166-.154497c-.01161-.001123-.023218-.002265-.034825-.003428l-1.568684-.15719c-.014043-.001407-.028084-.002844-.042121-.004311l-2.345849-.245101c-.013568-.001418-.027134-.002863-.040696-.004337l-1.520606-.165171c-.010401-.00113-.020799-.002276-.031196-.003438l-1.497137-.167379c-.014733-.001647-.029463-.003327-.04419-.00504l-3.005285-.349528c-.01387-.001613-.027737-.003255-.041601-.004926l-1.44474-.174167c-.01059-.001277-.021178-.00257-.031763-.003881l-2.175859-.269371c-.013392-.001658-.02678-.003343-.040165-.005055l-2.869743-.367075c-.011687-.001495-.023372-.003011-.035054-.004547l-2.112378-.277792c-.00842-.001107-.01684-.002225-.025258-.003354l-.616886-.082724c-.486332-.065217-.967203-.16614-1.438719-.301953l-.726308-.209202-2.385035-.670734c-41.623283-11.571169-71.580125-30.876434-91.480625-57.325911-12.477202-16.583274-20.95666-35.492372-26.599916-57.313735-2.328339-9.00323-4.155927-18.408886-5.678312-28.746513-1.175459-7.981851-2.047476-15.458785-3.230298-26.97936l-.001214-.011903-.391256-3.856196-.001303-.01293-.190873-1.9059c-3.461978-34.661325-5.475913-76.562955-5.510625-120.760479-.037585-51.318225 2.561787-103.86509 8.076727-155.129593 3.664529-34.06388 12.64064-62.834554 27.135247-86.237138 14.865721-24.001776 35.457677-42.215194 61.70447-54.464728.016834-.007856.033691-.015666.050569-.023429l1.055608-.485512c.026975-.012407.054006-.024694.081091-.03686l2.062189-.926311c.261702-.117553.528341-.22379.799177-.318416l1.133545-.39604c.071607-.025018.143496-.049221.215654-.072604l.439778-.142508c.022497-.00729.04502-.014501.067569-.021631l.503012-.159065c.020564-.006503.04115-.012939.061756-.019309l.544596-.168346c.018868-.005833.037754-.01161.056656-.01733l.559882-.169444c.025539-.007729.051108-.015356.076708-.022881l1.324528-.389312c.02626-.007719.052552-.015329.078874-.022832l1.060599-.302298c.016797-.004788.033607-.009532.05043-.014231l.734594-.205223c.01539-.0043.030791-.008562.046202-.012788l1.209087-.331541c.016612-.004555.033236-.009067.049872-.013537l1.230774-.330658c.017402-.004676.034817-.009304.052244-.013885l1.81215-.476363c.015067-.00396.030142-.007886.045227-.011776l1.252292-.322942c.013699-.003533.027405-.007036.041119-.010511l1.15777-.293332c.297372-.075342.598053-.136961.90109-.184661 50.728711-7.98496 105.178164-11.283369 163.369156-9.917398zm-159.900204 29.626794-.595256.150814-1.209125.311812-1.763373.463539-1.179772.316958-1.160995.318353-.686235.191712-.995974.283879-1.246708.366439-.493289.14929-.485332.150027-.438423.13864-.297722.096476-.619689.216508-1.628862.731665-.968084.445257c-45.211503 21.102114-70.687853 62.237087-77.409208 124.715897-5.435091 50.522259-7.999054 102.353349-7.961161 152.975235.033388 43.552328 2.015737 84.796782 5.41051 118.785257l.189964 1.896817.389697 3.840842c1.155036 11.249797 1.998525 18.481941 3.121159 26.10509 1.424821 9.675126 3.119302 18.39575 5.254702 26.652923 5.026173 19.435221 12.443504 35.975787 23.21853 50.296725 8.225889 10.932914 18.523846 20.484483 31.185715 28.642818 13.725262 8.843504 30.20051 16.028398 49.697806 21.446069.010006.002781.020007.005576.030003.008388l2.415403.679275c.020207.005683.040396.011429.060567.017239l.046188.013303 1.957979.257487 2.832239.362279 2.139972.264928 1.407983.169736 2.962409.344541 1.45939.163158 1.484644.161266 2.304441.240775 1.530174.153331 1.563036.151101 1.584003.147403 1.606562.143577 1.629749.139536 1.654279.135336 1.679734.130941 1.706446.126372 1.734106.121605 1.762831.116641 1.792605.111478 1.850502.107691.86954.047997 1.898169.099069 1.931957.093096.911311.041182 1.983504.083685 2.019133.077143.956401.033694 2.074656.066926 2.08615.059077 2.125232.051865 2.191457.04496 1.045634.018428 2.27929.033603 1.077891.012812 2.341802.021182 2.310596.015969h3.580755l2.444431-.011 2.52752-.019007c1.250517-.011668 2.51257-.026769 3.786475-.045334l2.66262-.043517 1.280078-.024234 2.737796-.058859 1.319442-.031712 2.813992-.074703 1.359337-.03946 2.89227-.091069c.956595-.031688 1.919403-.06513 2.897064-.100639l2.134278-.075676c.71645-.024825 1.446638-.049572 2.193187-.074347l.011947-.000389 4.341249-.138874.018512-.000575 4.41119-.132934.012082-.000356 11.229394-.324819 6.869845-.205843 4.627296-.148236c20.02274-.66357 33.576485-1.337758 47.594269-2.523697 17.774065-1.503729 33.737952-3.709575 48.637718-6.88274 16.850277-3.588561 32.118698-8.381571 45.950722-14.599525 15.035317-6.758874 28.303283-15.175073 39.813658-25.466511 37.161297-33.225955 54.754666-92.900534 53.323695-180.987032-.000975-.060018-.00141-.120044-.001304-.18007.001561-.884711.002928-1.76639.004094-2.638473l.005332-7.856071-.002283-5.129798-.012185-7.571071-.013915-4.942779-.018621-4.881757-.02326-4.803611-.027889-4.72537-.050645-6.963144-.039463-4.536445-.068086-6.686172-.051081-4.355132-.055697-4.280297-.092366-6.292298-.10278-6.126236-.074026-3.977299-.120037-5.846218-.130386-5.679383-.092398-3.683014-.097093-3.613757-.101446-3.532173-.161128-5.173441-.171312-5.00516-.119356-3.23003-.124064-3.161459-.128471-3.085294-.133542-3.024693-.066617-1.444673-.140121-2.910175-.143644-2.817589-.147893-2.740723-.152048-2.662861-.156177-2.585333-.161618-2.529094-.078663-1.180142-.167619-2.410763-.171777-2.33509-.082428-1.073959-.177364-2.214532-.178772-2.108181-.185022-2.059853c-.028488-.307884-.05712-.613074-.085895-.915567l-.193337-1.97224c-.028742-.284441-.057617-.566247-.086625-.845418l-.198567-1.853015c-.02876-.260158-.05764-.517758-.08664-.772799l-.203136-1.730615c-.093541-.771553-.188129-1.516929-.283778-2.236362l-.299284-2.215573c-1.682961-12.263679-3.309022-21.897872-5.731305-32.586794-3.25016-14.342132-7.440325-27.878624-12.838122-40.595155-6.349892-14.959547-14.185754-28.311778-23.699368-39.797962-10.672288-12.885101-23.320736-23.254655-38.185066-30.845957-2.336668-1.19335-7.444758-3.14027-14.006388-5.203114-8.356822-2.627217-18.363831-5.244495-29.564663-7.633212-13.313241-2.839215-27.823192-5.253822-43.332156-7.108825-17.717896-2.119209-36.375744-3.464755-55.859309-3.92211-56.894157-1.335529-110.032854 1.872129-159.430855 9.632302zm182.583061 54.94181c53.904175 8.521528 100.543969 40.522643 131.074998 88.249545 30.358391 47.457029 42.542687 106.941156 33.0502 166.761658-9.492272 59.819144-39.495035 112.631322-83.057456 148.399738-43.809683 35.971438-98.07047 52.019793-151.97283 43.498551l-10.019744-1.871044c-49.651481-10.712051-92.432414-41.63453-121.055254-86.3785-30.358391-47.457029-42.542687-106.941156-33.0502-166.761658 9.492272-59.819144 39.495035-112.631323 83.057456-148.399738 43.809683-35.971438 98.07047-52.019793 151.97283-43.498552zm-139.28122 58.955688c-39.759754 32.646105-67.266769 81.065157-75.996211 136.077042-8.729226 55.010527 2.44042 109.541101 30.145047 152.849698 27.531989 43.038724 69.260501 71.670045 117.350246 79.27239l18.037458 1.829041c42.051379 1.90091 83.547381-12.642356 118.120812-41.030054 39.759754-32.646105 67.266769-81.065157 75.996211-136.077042 8.729226-55.010527-2.44042-109.541101-30.145047-152.849698-27.531989-43.038724-69.260501-71.670045-117.350245-79.27239-48.09156-7.602631-96.645779 6.75793-136.158271 39.201013zm179.131785 242.923106c4.880788 2.584521 6.742281 8.63635 4.15776 13.517138-33.870164 63.96277-96.227947 106.472292-165.05148 111.819338-5.506254.427792-10.31675-3.689115-10.744542-9.195369-.427793-5.506254 3.689114-10.31675 9.195368-10.744543 61.853292-4.805513 118.202577-43.21902 148.925756-101.238804 2.58452-4.880788 8.636349-6.742281 13.517138-4.15776zm29.379826-116.157233c1.741444 17.097289 1.525759 34.480683-.691518 51.8654-.698733 5.478468-5.706345 9.353209-11.184813 8.654476-5.478469-.698734-9.353209-5.706345-8.654476-11.184814 2.024228-15.8711 2.220943-31.72559.633751-47.308447-.559634-5.494421 3.440801-10.402201 8.935221-10.961836 5.49442-.559634 10.402201 3.440801 10.961835 8.935221zm-141.29383-178.951586c51.478201 15.786092 94.032263 52.781785 118.978113 102.235935 2.487328 4.931029.506317 10.944795-4.424712 13.432123-4.931028 2.487328-10.944795.506317-13.432123-4.424711-22.539538-44.683734-60.822543-77.966251-106.984889-92.122205-5.280157-1.619191-8.247957-7.212218-6.628766-12.492376 1.619192-5.280158 7.212219-8.247957 12.492377-6.628766zm40.772266 232.990929c12.894664 2.038474 25.215368-8.077862 27.519063-22.595467 2.303695-14.517606-6.281982-27.93896-19.176646-29.977434-12.894663-2.038473-25.215367 8.077862-27.519062 22.595468-2.303695 14.517605 6.281982 27.938959 19.176645 29.977433zm-170.295541 7.831249c14.103539 2.229581 27.579309-8.835161 30.098975-24.713792s-6.870918-30.558237-20.974456-32.787818c-14.103539-2.22958-27.579309 8.835161-30.098975 24.713793-2.519666 15.878631 6.870918 30.558237 20.974456 32.787817zm319.343275-140.532058c6.203252 14.750177 11.495532 28.523655 15.876638 41.325493 4.546254 13.284413 7.529764 26.72472 8.943739 40.308167.630514 6.057073-4.25349 11.266592-10.338603 11.02766l-101.4663-3.984062c-5.366068-.210698-9.607654-4.622098-9.607654-9.992301v-72.227214c0-5.393068 4.276532-9.814637 9.666602-9.994441l77.374185-2.581074c4.144259-.138246 7.943907 2.29547 9.551393 6.117772zm-76.59218 16.129722v52.940179l79.840809 3.13494c-1.411899-8.184094-3.526807-16.315986-6.294579-24.403571-3.592153-10.496474-7.836717-21.715507-12.774454-33.698794zm13.041223 102.95469 78.143393 9.935715c5.466835.695092 9.340933 5.682007 8.662648 11.150953-2.092815 16.874163-4.805751 30.972457-8.174391 42.34418-3.444381 11.627406-9.313077 24.502657-17.583203 38.689679-2.06671 3.545348-6.08967 5.46815-10.146546 4.849607l-75.450387-11.503783c-4.884368-.744711-8.492737-4.944941-8.492737-9.885755v-75.660461c0-5.522848 4.477153-10 10-10h21.779906c.421702 0 .842983.026675 1.261317.079865zm-13.041223 19.920135v57.069577l60.127611 9.167547c5.768012-10.526618 9.879821-20.004294 12.368951-28.407001 2.3685-7.995489 4.424017-17.744213 6.144466-29.24841l-67.494309-8.581713zm76.039992-2.284735-.845835 80.282738c-.058184 5.522541-4.582255 9.952278-10.104796 9.894661-5.522541-.058751-9.952278-4.582822-9.894094-10.105363l.845835-80.282738c.058183-5.522541 4.582255-9.952278 10.104796-9.894661 5.522541.058751 9.952277 4.582822 9.894094 10.105363zm1.923961-132.51326-.817455 76.41369c-.059079 5.522532-4.583868 9.951535-10.106399 9.893041-5.522532-.059663-9.951535-4.584452-9.892457-10.106984l.817455-76.41369c.059079-5.522532 4.583868-9.951535 10.106399-9.893041 5.522532.059663 9.951535 4.584452 9.892457 10.106984zm-735.138362 40.233452c5.7199199.203142 10.102697 5.156667 9.60759 10.858738l-6.7580485 77.831357c-.4615762 5.315898-5.0155253 9.332957-10.3474697 9.127549l-41.7557954-1.608601c-.4529595-.01745-.8973181-.064625-1.3275636-.149379-1.9044874-.161451-3.7958073-.47887-5.6639732-.94378-11.4710662-2.854681-20.7262871-10.921043-26.05540607-22.051534-5.1084109-10.669517-6.28612406-23.46538-3.17704806-35.911766 2.79709899-11.197444 8.79024973-21.031272 16.94759983-28.028147 7.9994126-6.861405 17.7009893-10.661137 27.5912717-10.490971.4103-.046265.8297321-.057937 1.2540914-.042866zm-66.0739414 41.999603c-1.996053 7.990684-1.2573539 16.016656 1.8122734 22.427934 2.8489194 5.950303 7.4131003 9.928202 12.8462781 11.280299 1.0360892.25784 2.0830279.416996 3.138262.478977.2095369.012307.4171249.030959.61813.06883l31.4079033 1.209958 5.0232314-57.851748-28.3502188-1.006856c-.3181419.015629-.6399737.015091-.9645043-.001139-10.759079-.538066-21.9512972 9.061932-25.5313551 23.393745zm81.8560394 36.4267 64.483219 4.91637c5.506866.419857 9.6307 5.224416 9.210842 10.731281s-5.224416 9.630699-10.731281 9.210841l-64.48322-4.916369c-5.5068648-.419858-9.6306991-5.224416-9.2108413-10.731281s5.2244163-9.6307 10.7312813-9.210842zm66.453151-49.549425c5.516089.273148 9.766332 4.966251 9.493184 10.48234s-4.966251 9.766332-10.48234 9.493184l-66.718793-3.303807c-5.516088-.273148-9.7663318-4.966252-9.493184-10.48234.2731479-5.516089 4.966251-9.766332 10.48234-9.493185zm-38.407214-23.319717 38.445562 2.051779c5.514999.294327 9.74719 5.003716 9.452864 10.518716-.294327 5.514999-5.003717 9.74719-10.518716 9.452863l-35.655123-1.902858-25.80982 13.821826c-4.868662 2.607294-10.9291209.774094-13.5364149-4.094568-2.607294-4.868661-.7740936-10.92912 4.0945679-13.536414l28.27323-15.141046c1.611407-.86295 3.428521-1.267713 5.25385-1.170298zm-119.6038635 34.018935c5.244046-20.993149 23.5716524-34.508401 40.9358599-30.187162 3.943973.981495 7.4990224 2.798739 10.5769092 5.267436-9.6474102 4.525468-17.8749477 14.783435-21.1736376 27.988865-4.1680288 16.685631.8253288 32.90371 11.3725703 40.374783-6.1906419 3.066383-13.0504724 4.063111-19.766197 2.391843-17.3642062-4.321245-27.1895416-24.842614-21.9455048-45.835765z"/></svg>