<svg height="960" viewBox="0 0 960 960" width="960" xmlns="http://www.w3.org/2000/svg"><path d="m480.048818 5.49426657c127.241439.16500647 222.843303 3.38373744 287.28098 9.74059323 33.728252 3.3273334 59.477709 7.5459996 78.016551 13.0114185 11.559264 3.4077757 21.055017 7.458639 29.01389 12.9713328 5.847611 4.050334 10.901374 8.9122964 14.914325 14.9764893 3.854692 5.825039 6.444264 12.3808884 7.492186 19.3380111l.054917.3808885.233094.9403787c16.1661 65.7500073 24.11554 158.8728023 24.278572 280.2167553v3.761905c0 116.268135-2.728792 191.411749-10.652778 256.463041-9.593265 78.755103-27.059338 139.151081-56.253837 187.466138-32.066265 53.067647-78.139405 90.798549-140.654042 114.814519-60.220788 23.134751-136.490931 33.924263-234.645603 33.924263-98.157982 0-174.331931-10.790011-234.409963-33.938557-62.371005-24.032046-108.24921-61.797227-140.090845-114.92334-28.9413248-48.287097-46.1746358-108.625604-55.5906239-187.434316-7.7468507-64.838583-10.3689744-139.384078-10.3689744-256.371748 0-155.696059 6.8392859-249.066761 23.7129185-290.6724214l.2230815-.5386176.1513994-.5496468c1.4642094-5.1579603 3.7884122-9.9996054 6.8313531-14.394963l.3542902-.5051687c4.0928365-5.7611604 9.1309026-10.3842553 14.9163421-14.2500091 7.9830125-5.3341429 17.4956015-9.2885266 29.0459625-12.6184848 18.708255-5.3935724 44.610902-9.5410231 78.446915-12.7801637 64.720546-6.19573438 160.465135-9.17781872 287.699889-9.02829733zm360.915725 736.28570543-1.231265.664589c-62.238485 34.005295-171.707484 48.314698-361.414481 48.314698-187.743312 0-296.751436-14.032506-359.242395-47.141604 46.931396 117.574656 147.254074 169.882345 360.050671 169.882345 213.901047 0 314.731059-52.85207 361.83747-171.720028zm-742.7250633-653.5587462-.2863941.7878667c-12.8576126 36.0947805-19.2864189 126.7024295-19.2864189 271.8229465 0 150.338535 4.0102023 266.681085 30.0458633 352.979832l.01075-.013743c.604542.274898 1.190549.614437 1.748674 1.020098 53.442593 38.843546 161.962258 55.941033 367.846843 55.941033 211.10789 0 319.93775-17.960964 371.926679-59.032018.436884-.345137.893634-.647981 1.365313-.909114 25.552829-85.985728 29.722544-201.376671 29.722544-349.986088 0-118.233329-7.448473-208.640015-22.34542-271.2200582-.643142.4789459-1.316706.9405083-2.019611 1.3869866-4.918614 3.1242574-11.68169 5.7808948-20.435106 8.1601707-16.414184 4.4615579-40.546258 8.1038069-72.578359 11.0038329-63.361983 5.736476-158.149732 8.596288-284.473356 8.596288-126.323623 0-221.111372-2.859812-284.473355-8.596288-32.032101-2.900026-56.164176-6.542275-72.578359-11.0038329-8.753416-2.3792759-15.516492-5.0359133-20.435106-8.1601707-1.367272-.8684779-2.6235273-1.7940295-3.7551813-2.7777416zm12.6641243-17.2424933-.061505.0322778c.231108.6131656.403673 1.2549435.510907 1.9184883l.032475.2235384.057315.0488738c.253983.2145815.608979.4803843 1.070796.782972l.204479.1318905c2.938462 1.8664833 7.972949 3.8441053 14.957585 5.7426071 15.061919 4.0939974 38.167895 7.5813779 69.135794 10.385056 62.638018 5.6709316 156.898064 8.5148229 282.670031 8.5148229 125.771968 0 220.032014-2.8438913 282.670032-8.5148229 30.967898-2.8036781 54.073875-6.2910586 69.135794-10.385056 6.984636-1.8985018 12.019123-3.8761238 14.957585-5.7426071.562807-.3574893.985008-.6696265 1.275275-.9148625l.056314-.0488738.033476-.2235384c.057741-.3572945.134425-.7082779.228992-1.0518814-33.506264-17.3204366-156.119687-26.1135667-367.838949-26.383342-211.770379-.2536479-334.802511 8.2400402-369.096396 25.4844573z"/></svg>