<svg height="960" viewBox="0 0 960 960" width="960" xmlns="http://www.w3.org/2000/svg"><path d="m937.779419 38.4119005c1.473805 5.4023097 2.220581 10.9770388 2.220581 16.5767754v738.4351141c0 38.042596-30.839617 68.882213-68.882213 68.882213-22.445131 0-42.382906-10.735271-54.958855-27.351343l-.384932-.51566-18.99 2.152.000021 14.65565c0 32.073638-24.035561 58.975114-55.759799 62.689978l-.963677.105456c-.128542.013084-.257141.025601-.385793.037551l-.340615.031639-.385682.034115-495.512091 41.633298c-8.876844.745839-17.811029-.39571-26.215149-3.349592l-63.0312-22.154223c-25.276222-8.884093-42.190015-32.757087-42.190015-59.549147v-568.320971c0-34.860415 28.25995-63.120365 63.120365-63.120365h558.54329c34.860416 0 63.120366 28.25995 63.120366 63.120376l-.001021 339.789235.484507-.100684c1.898915-.397048 3.902195-.815919 6.021748-1.259101l.750745-.157215.000075-572.6043701c0-34.1710243 22.64056-64.15726685 55.403617-73.56813731l.995905-.27886306c33.558504-9.15510023 68.184722 10.62776715 77.339822 44.18627097zm-204.115764 244.8724885-383.739075.000659c-.196049.009883-.393446.014631-.592058.014111l-5.352522-.014916-90.090507.000201c-4.50086.979388-7.876911 4.980661-7.889459 9.776808l-.000034 607.18508c0 5.540408 4.491117 10.031859 10.031399 10.032401l478.451215-40.253571c9.90347-.833203 17.517386-9.114595 17.517386-19.053053v-548.851744c0-8.123921-5.066534-15.064489-12.212197-17.8343-1.922679-.649498-3.982286-1.001676-6.124148-1.001676zm-508.135876.000168-50.407414-.000168c-10.559886 0-19.120365 8.560479-19.120365 19.120365v568.05065c0 8.112909 5.119885 15.342562 12.772664 18.035938l56.245199 19.796824c-.664399-2.569702-1.017863-5.26449-1.017863-8.041834v-607.242637c.008889-3.389778.543992-6.655198 1.527779-9.719138zm646.492259-246.6102124c-14.158191 3.8624979-23.979963 16.722685-23.979963 31.3982853v608.3560811c-32.602968 6.817025-57.283164 11.97746-74.040586 15.481305l.000511 102.981227 72.235574-8.187122v6.719669c0 13.742067 11.140146 24.882213 24.882213 24.882213s24.882213-11.140146 24.882213-24.882213v-738.4351141c0-1.6877928-.225083-3.3680482-.669296-4.9963353-2.7594-10.1147259-13.195941-16.0773958-23.310666-13.317996z"/></svg>