<svg height="960" viewBox="0 0 960 960" width="960" xmlns="http://www.w3.org/2000/svg"><path d="m768.338302 138.320398c51.403333 6.646292 88.46081 19.911802 115.177875 42.191369l4.871134 4.19573c11.120515 9.900693 20.543499 20.617725 28.703953 33.027421 10.026424 15.247295 17.896266 32.737654 23.960512 53.319533 11.932106 40.497228 17.426927 95.013181 17.426927 172.414704 0 74.921014-9.176594 139.69853-25.992591 192.597023-15.123381 47.57399-36.271688 84.687121-60.706255 107.434144-10.5783 9.847723-21.990616 19.205287-34.721755 28.288774-14.244238 10.163062-29.964006 19.849621-47.465023 29.117148-39.098879 20.704507-86.649703 39.088074-144.568697 55.14516-33.022008 9.154807-62.486998 16.415149-90.05814 22.009627-31.633096 6.418692-60.497713 10.573943-87.151041 12.307104-29.98796 1.949998-57.168271.829666-81.772984-3.774777-27.849033-5.211574-52.367239-14.893981-73.170215-29.628312-17.481817-12.382021-32.01748-28.819728-43.94762-48.661193-10.191065-16.949145-18.394853-36.227976-24.961399-57.646186-5.598294-18.26005-9.94259-37.861301-13.272893-58.801155-2.028733-12.756011-3.642881-25.734085-4.940995-39.228719-1.174288-1.156939-2.337259-2.261503-3.491133-3.325373-8.498864-7.835948-23.948629-20.388287-45.959668-37.261826-14.105409-8.081838-24.731083-14.613155-32.231698-19.860313-8.163482-5.710876-15.638123-11.994463-22.383619-18.855383-2.730393-2.246124-5.359157-4.630776-7.880248-7.151516-17.1627439-7.074255-30.7134535-13.930498-41.0456361-20.959567-14.8892842-10.129303-28.0848263-23.964537-39.802611-41.234839-16.4574986-21.411647-26.83888648-48.158837-30.48672394-77.238184-3.7306215-29.739274-.33979458-61.19781 10.06022744-91.416206 12.4637129-36.214669 33.9518354-67.584106 61.3038084-89.961251 28.1921652-23.064522 61.5332842-35.670664 95.0320482-34.675685l37.405135.001107c11.294864-4.604623 22.833186-7.580259 34.43173-8.770163 2.078625-.35213 4.205332-.525549 6.359254-.526085l.116467-.000028c3.654671-.193927 7.300803-.196539 10.930476-.004676l86.775927.002275c13.136641-8.948132 27.670718-16.97507 43.437232-24.136144 18.602973-8.449379 38.83211-15.649176 60.290797-21.619206 38.072556-10.592182 79.45645-17.126021 118.490119-19.349474 86.97088-4.954073 152.01982-4.32853 201.237323 2.035142zm-192.082803 60.412618c-39.170933 2.231272-80.864935 9.286047-117.719611 20.678485-42.371787 13.097876-76.459706 31.248499-98.774501 53.729295-10.403071 10.480461-19.678147 22.183423-27.870477 34.920864l5.426868 2.37886c16.947699 7.415937 29.543117 12.874323 37.762604 16.365256 46.65555 19.815276 82.873584 33.64664 108.448807 41.451531 34.120097 10.412565 67.697964 20.117632 100.733376 29.115332.191686.052209.38197.107042.562405.179329.470107.125219.94006.255284 1.409321.391188.080559.023648.16056.046913.240519.070361.078538.022915.157602.046332.236646.069915l.408121.1233c20.594881 6.299517 36.024808 22.77133 43.73625 44.698808 7.172044 20.393703 7.301975 44.41486.233403 67.546249-.180798.591648-.365826 1.181157-.555041 1.768466-.077071.239174-.154546.47713-.232706.714718-.211665.643511-.428601 1.284951-.650525 1.923617-.052615.151232-.105279.301823-.158219.452257-.039314.111924-.078793.223595-.118426.335181-.056725.159469-.113687.318778-.170959.477908-.040548.112934-.081375.225856-.122358.338687-.069377.190689-.138912.380626-.20889.570304-.021604.058901-.043403.117852-.065244.176778-.056277.151461-.112678.302682-.169361.453736-.056007.149659-.112214.298563-.168693.447304-.058108.152585-.116353.305029-.174884.4573-.042993.112327-.086448.224883-.130059.337344-.17053.439199-.342955.876192-.517741 1.311705-.637981 1.590443-1.30789 3.161616-2.008371 4.711786-.009783.020662-.019126.041321-.028475.061976-1.761698 3.893709-3.716806 7.654731-5.849601 11.261401-.068702.115021-.137309.230576-.206098.34597-.08938.151075-.179306.301129-.269539.450911-.026361.042638-.052459.085895-.078583.12913-.115586.192398-.231786.383418-.348489.573987-.049997.080568-.099747.161581-.149587.242511-.513089.834178-1.036203 1.659253-1.568752 2.475372-.091015.138622-.181769.277035-.272792.415185-.057255.087718-.115135.175287-.173123.262751-.03516.052234-.069889.104524-.104657.156776-.615611.925882-1.243699 1.839532-1.883723 2.740947-.221171.31106-.443325.620523-.666879.928505-.310639.428258-.624493.853985-.941042 1.276816-.043055.057339-.085986.114572-.128966.171752-.081611.108715-.163371.217042-.245307.325176-.08596.11335-.172065.226533-.258363.339501-.109994.144027-.220146.287443-.33061.430512-.027496.035616-.055254.071525-.083032.107412-.101135.130624-.201975.26026-.303073.389609-.117876.150909-.236313.301621-.355098.451934-.035742.045085-.071551.090316-.107391.13551-.118069.149063-.236117.297122-.354503.444788-.082626.102826-.165779.206131-.249099.309243-.067719.084085-.135267.16743-.202925.250649-.087168.106896-.174461.213818-.261934.320531-.729637.890598-1.47183 1.766229-2.226127 2.626635-.156331.17758-.313063.355091-.470315.53195-.501413.564789-1.008079 1.122116-1.51989 1.672619-.035432.037129-.070399.074677-.105391.112194-.532439.571916-1.070286 1.135327-1.613559 1.691207-.038791.038563-.077285.077882-.115806.117164-2.254808 2.300583-4.60302 4.470765-7.036183 6.500135l-.08748.07231-.1224.102215c-.113551.094141-.227286.187975-.341204.281502l.463604-.383717c-.204828.17046-.410147.339834-.615951.508117-.325904.266812-.653773.531085-.983117.792812-.288071.228842-.576993.45567-.866812.680367-.077877.060316-.156062.120712-.234327.180965-.57511.442963-1.153822.877528-1.735895 1.303616l.533608-.393977c-.440179.32725-.882224.649575-1.326073.966943-.754655.54006-1.514662 1.065444-2.279852 1.576453-.225982.150505-.451959.299882-.678354.447995-.302008.19792-.605154.393465-.909072.586761-.257883.163803-.516641.326447-.775914.487449-.284708.176854-.570004.351584-.855942.524339-13.13783 7.941005-27.553322 11.684215-41.765969 10.45726-1.504526.018798-3.035246-.143254-4.566822-.491234-.504189-.114553-1.007247-.228722-1.508654-.342327-1.404611-.263849-2.805302-.57896-4.200438-.945087l.083149.017654c-45.607936-10.276384-81.602638-17.275704-107.85349-20.992118-26.956011-3.816246-73.73154-7.542903-139.977186-11.121289l-.841608-.046736c.221746 27.636808.714623 70.294342.978171 74.575933 2.555966 41.524177 7.017037 85.667563 15.535136 117.114037 10.961161 40.465582 27.434478 69.801309 49.861028 85.685585 26.760735 18.954092 66.003822 26.29791 117.896506 22.923534 45.2903-2.945049 98.334102-13.7082 165.55357-32.343689 25.477638-7.063255 50.870121-14.54827 74.287475-22.44146 69.177648-26.44066 108.698605-54.507034 134.730129-78.740724 11.587862-10.78756 23.785606-27.813914 34.858975-51.499946 5.053352-12.415191 9.792514-25.807461 14.056743-39.221551 14.937007-46.98771 23.283453-105.905214 23.283453-175.132254 0-72.36666-4.992129-121.895241-15.076592-156.121621-4.570438-15.511937-6.341182-27.863157-9.911434-38.407581-4.049211-8.195012-8.532334-15.305702-13.429914-21.652777-.887298-.840522-1.825453-1.675516-2.819376-2.504355l-7.209259-5.341325c-15.158471-10.003794-141.748419-34.168636-292.021754-25.608702zm-6.87971-22.512497-2.101174.124103c-.257194.01573-.514706.031676-.772535.047839-33.830289 2.120766-73.103596 7.979736-110.728894 18.784684-1.459222.419049-2.915752.845474-4.369391 1.279407-6.764254 2.019228-13.465937 4.201037-20.063347 6.552509-.568824.202742-1.136885.40675-1.704145.612024-22.025285 7.970255-42.841941 17.849018-60.886534 29.902442-.412073.275255-.823057.551886-1.232575.829657-9.601473 6.512594-18.396272 13.651096-26.1443 21.456761-69.235609 69.750657-79.313201 176.623407-79.313201 203.923065v62.783055c0 10.649646.662702 88.188083 1.124711 95.693883.431621 7.012107.960336 14.584186 1.645196 22.557556.040937.476592.082243.952455.124114 1.429706.010218.116467.020423.232484.030661.348582.049837.56511.10035 1.130844.151674 1.698444.296088 3.274432.619166 6.610778.973166 9.998636.042104.402943.084586.806052.127511 1.209869.11655 1.096459.236367 2.198165.35958 3.304744.12069 1.083922.24461 2.172265.371909 3.264949 1.415831 12.152901 3.249863 24.84317 5.672014 37.613922.122547.646122.246535 1.292122.37205 1.938269 1.38331 7.121277 2.951955 14.260342 4.735358 21.338182.127097.504415.255339 1.008731.384684 1.512706.192097.748484.386578 1.496036.583524 2.242746-2.44665-11.901405-4.555261-25.200211-6.37125-39.845071-2.373239-19.138747-4.212737-40.28382-5.646001-63.568595-.192086-3.120633-.443681-19.711255-.712363-44.11743-.239192-21.727375-.416789-43.494253-.416789-51.720877v-62.783054c0-23.275551 5.092188-56.469447 13.784872-86.692355.302837-1.052912.609694-2.102189.920568-3.147807.101326-.340683.203089-.681112.305283-1.021163.049858-.166094.10009-.33282.150424-.499452.06109-.201997.12221-.403679.183482-.605226.139408-.45889.27975-.917288.420874-1.374967.009261-.029604.018325-.058982.027392-.088358.150589-.488372.302326-.976317.454954-1.46344.068163-.216885.136227-.433357.204469-.649671.788769-2.501374 1.601593-4.981737 2.437976-7.439966.043258-.125029.085904-.250106.128611-.375126 13.899196-40.699487 34.268276-75.315518 60.978595-102.224536 24.585412-24.768305 61.172104-44.562077 107.062351-58.747571 37.709407-11.656652 80.888642-19.168563 122.488802-21.538209 36.318759-2.068805 72.82642-2.352563 108.76315-1.035599 31.900516 1.169051 62.795481 3.583222 91.414601 6.986077 17.302194 2.057256 33.456614 4.442991 47.755608 7.004409-32.342455-12.153576-79.650208-18.519459-149.739139-18.715243l-3.963929-.004504c-29.245532.014664-62.387168 1.079037-99.972597 3.219994zm-321.334498 65.171748-.971389.000241-.032591.070885-1.228853.105451c-.113204.010643-.226425.021543-.339665.032701-47.14326 4.645127-97.386344 53.879786-121.650171 124.380965-22.754426 66.115463-15.995584 131.565951 13.214565 166.421121l.23098.274426c3.548907 4.198202 7.426288 7.947257 11.619629 11.194132l.043292.033494.001027.076061c5.335344 5.587921 11.357803 10.728769 18.067378 15.422544 6.709575 4.693776 17.218412 11.117623 31.526512 19.271544 19.495193 14.908059 34.335789 26.769505 44.521787 35.584339-.188695-7.703868-.38737-22.492225-.593933-42.511873-.210966-20.446401-.390166-43.40388-.390166-49.232233v-62.783055c0-9.310138.935778-22.229258 2.837736-36.258229 2.431163-17.932409 6.265215-36.643587 11.634733-55.31244 6.462581-22.46924 14.913326-44.06411 25.548377-64.231481 12.295224-23.315573 27.255322-44.235226 45.09791-62.210546l.329551-.331314-70.25625-.001219c-3.048998-.197129-6.121898-.19343-9.210459.004486zm259.002793 231.122489c-12.021226 39.338581 1.720399 78.412878 30.692778 87.274886 1.291396.39501 2.591256.723327 3.897323.986628l.770874.145289c6.551347 1.191793 13.238514.762116 19.787631-1.075387.581164-.163063 1.160914-.337108 1.739381-.52208 2.658405-.850027 5.290199-1.931076 7.875787-3.228784.481954-.241895.962229-.491276 1.440774-.748092 2.921353-1.567776 5.77817-3.41249 8.542431-5.513285.15553-.118199.310916-.237325.466004-.357259 2.748111-2.125219 5.402292-4.504118 7.93477-7.116058.125526-.129463.251172-.259936.376514-.390983.149028-.155811.297848-.312669.446231-.470336.080103-.085115.160438-.17085.240643-.256822 2.839824-3.044018 5.517262-6.385587 7.991161-9.994096.054512-.079511.108947-.159186.163283-.23899 4.981415-7.316229 9.128032-15.720426 12.100293-24.959958.154019-.478784.304801-.95954.452386-1.442502 12.021225-39.338581-1.7204-78.412879-30.692778-87.274887l-.848381-.249587c-.043592-.012317-.087193-.02456-.130803-.036727-28.738133-8.018025-61.360298 16.572952-73.246302 55.46903zm-185.286401-147.055311-.086523.058451c-.278532.523371-.555493 1.048149-.830887 1.574323-3.82728 7.31252-7.351541 14.894197-10.579868 22.716708-.296116.717512-.589782 1.437152-.880964 2.158797-1.630168 4.040098-3.182463 8.14308-4.657798 12.30501-.424714 1.198117-.843096 2.401257-1.255121 3.60919-.202007.592222-.402448 1.185487-.601365 1.779892-.127274.380321-.253835.760844-.379774 1.141831-.435946 1.318802-.864577 2.643625-1.28577 3.973888-.246511.778563-.490345 1.558569-.731638 2.340413-.649414 2.104252-1.280286 4.2213-1.892883 6.351191-8.790429 30.562752-13.00565 61.65449-13.00565 81.164093v62.783054l2.029935.10928c66.790327 3.607808 114.025515 7.371087 141.705565 11.289837 17.976978 2.545056 40.257188 6.562706 66.84088 12.05368-3.20593-5.079674-5.888584-10.662732-7.995217-16.652941-7.172045-20.393703-7.301976-44.41486-.233403-67.546247 7.068864-23.132338 20.603709-42.975744 37.950362-55.872062 3.155361-2.345843 6.40661-4.438629 9.73072-6.266343-19.128251-5.486565-38.430601-11.201487-57.906789-17.145112-26.372569-8.048221-63.182393-22.105585-110.42947-42.172091-9.481572-4.026958-24.649686-10.611905-45.504342-19.754842zm-271.4070268 22.882267c-17.2666121 50.170022-9.7937321 101.259528 15.6293754 133.07399 9.0585526 13.368471 18.8173636 23.610403 29.2764331 30.725794 2.7200167 1.85045 5.8735753 3.752166 9.4606793 5.705164-5.8731611-12.992036-10.0234806-27.620878-12.3394636-43.433486-5.210569-35.575687-.9433309-75.792141 12.5296066-114.939227 12.923368-37.550248 33.128674-70.672558 57.741174-95.249836 4.899951-4.89294 9.940716-9.413111 15.093288-13.535908l-9.507918.000229c-47.707264-1.734572-97.1948952 37.541241-117.8831748 97.65328z"/></svg>