<svg height="960" viewBox="0 0 960 960" width="960" xmlns="http://www.w3.org/2000/svg"><path d="m483.062573 1c58.699577.13928314 113.984843 3.54370686 156.991568 9.5484624l1.32618.1865425c22.526372 3.1921206 41.38757 7.0651363 55.994644 11.6440094 8.687955 2.7234095 16.170789 5.7718033 22.640013 9.4443137l.559414.320328c6.873611 3.9702194 12.788862 8.668155 17.458197 14.7537848l.221151.2915592.225289.266738c2.902219 3.4627036 5.246437 7.4532777 6.869703 11.8581823l1.961335 5.3464495c1.777116 4.8680672 3.341238 9.2230233 4.694309 13.071113l.416638 1.2048765c1.776503 5.2254477 3.176756 10.5067363 4.192284 15.8334497l.148442.797191.022305.0993291c.433275 1.9371572.746677 3.9064897.934669 5.8997299.058777.623199.102917 1.247693.132384 1.872964l.031952.67801.026955.70362c.017389.469212.017389.938649.017389 1.408093l-4.087654 714.873254.027072.155988c.703481 4.037369 1.060582 8.126433 1.060582 12.242012 0 24.585492-12.185092 46.04275-32.48792 63.339585-15.871756 13.521818-37.079495 24.833498-62.635396 34.042341-48.349259 17.422228-111.965515 27.118074-179.376684 27.118074-67.16585 0-130.567291-9.625326-178.854981-26.930596-25.491503-9.135606-46.683369-20.355432-62.597134-33.755545l-.606826-.514216c-16.521012-14.088696-27.65713-30.91877-31.215405-50.000761l-.035308-.199882-.128344-.387363c-1.210384-3.779983-1.874114-7.80519-1.898006-11.982886l-4.164045-728.228751.006535-.782837.00986-.384163-.016395-.661947c-.098019-9.2250077 1.323002-18.3793135 4.200613-27.3071241l.317928-.9683633c2.800165-8.3753966 6.763758-16.3056789 11.814987-23.720154l.259867-.3764116.119399-.2048774c5.139766-8.6375501 12.402792-14.7768979 21.199672-19.7707946 6.469224-3.6725104 13.952058-6.7209042 22.640013-9.4443137 14.346234-4.4971075 32.796014-8.3133418 54.791383-11.4723515l1.203261-.1716579c44.074863-6.24566967 101.296633-9.7350049 161.952926-9.7350049zm198.407582 876.023142-1.290299.446912c-6.283334 2.167109-13.002741 4.227386-20.133686 6.181085-47.69545 13.067352-111.809672 20.497009-180.126173 20.497009s-132.430723-7.429657-180.126173-20.497009c-6.694249-1.834055-13.025821-3.762035-18.974419-5.784149 41.311312 24.085498 115.258888 40.13301 199.607989 40.13301 85.331532 0 160.01783-16.423506 201.042761-40.976858zm-438.168062-355.720333 1.788643 312.697191.840689.000748c.021199 1.31635.125926 2.625569.31237 3.927001 10.022426 9.053304 30.095322 18.56035 58.834771 26.434236 45.840231 12.559068 108.206448 19.786163 174.841431 19.786163s129.0012-7.227095 174.841431-19.786163c29.881048-8.186655 50.393356-18.138793 59.978426-27.510442.12679-1.111471.18754-2.228951.18754-3.351543 0-2.795649-.376764-5.559588-1.112996-8.285585l1.707316-298.43332c-12.399089 4.545377-27.850492 8.650708-45.928794 12.238231-48.579405 9.640271-113.97025 15.128822-183.672923 15.128822s-135.093518-5.488551-183.672923-15.128822l-2.216182-.445056c-23.129454-4.700535-41.824714-10.263986-55.162041-16.521504-.529478-.248417-1.051759-.498388-1.566758-.749957zm474.540735-400.501561c-13.680892 10.372052-35.184507 19.090427-63.061569 26.284507-47.089149 12.152039-110.39856 19.062393-177.861262 19.062393s-130.772113-6.910354-177.861262-19.062393c-24.667809-6.365886-44.345147-13.925309-58.027857-22.767915l2.137488 373.697359c2.487927 1.911274 5.904615 3.918192 10.195446 5.931335 11.876399 5.57209 29.524217 10.787929 51.731902 15.246871l1.04432.208457c47.19219 9.364987 111.30522 14.746286 179.779963 14.746286 67.789996 0 131.305077-5.274211 178.359134-14.466533l1.420829-.279753c20.986472-4.16463 37.969131-9.002148 49.944901-14.180847zm-445.532665-59.8910981-.3193.1020508c-11.451307 3.7314284-18.615997 7.8238719-20.539672 12.1332308l-.040865-.0002472c-3.662595 5.0397547-6.399637 10.3697084-8.211123 15.9898612-.9656 2.9957825-1.623389 5.9919909-1.973367 8.9886251 2.296469 3.1885234 6.354731 6.7163104 12.39165 10.3996344 11.137056 6.795086 27.638246 13.177709 48.414859 18.668352l2.023951.528552c45.328575 11.697697 106.987885 18.427939 172.863701 18.427939s127.535126-6.730242 172.863702-18.427939c21.730389-5.607842 38.942493-12.182621 50.438809-19.196904 9.634145-5.87811 14.229036-11.3600991 14.663359-15.7011592-.19749-.6073082-.403122-1.2147215-.616706-1.8221458l-.953038-2.6953646c-1.565386-4.4042674-3.398717-9.4574178-5.499992-15.1594511l-.412533.0002472c-1.825893-4.0903104-8.373532-7.9851969-18.826784-11.5614359 1.052229 2.4330509 1.601915 5.0236876 1.601915 7.7931088 0 10.5097734-7.916325 18.4447753-21.344977 24.9568675-10.90777 5.289616-26.226228 9.9403971-45.192276 13.8305681l-1.142708.232573c-21.854787 4.413678-47.948982 7.725398-76.466114 9.73568-18.987099 1.703081-41.785631 2.643301-65.744336 2.643301l-1.401618-.001073c-23.451556-.035931-45.737439-.972861-64.35606-2.643486-29.010543-2.045209-55.513278-5.437662-77.59548-9.966995l-1.012544-.209129c-18.499185-3.847345-33.466744-8.4262805-44.179733-13.6214391-13.428651-6.5120922-21.344976-14.4470941-21.344976-24.9568675 0-3.026692.656558-5.8398394 1.912256-8.4669545zm207.978155 31.8659444c-28.719602 0-55.65296 1.3826238-75.814665 3.7937243l-1.688653.2061814 1.688653.20637c3.671973.4391243 7.56856.8441341 11.659645 1.21289 19.341887 1.3587306 39.872207 2.108141 60.973064 2.176679l3.181956.005165c22.211734 0 43.828806-.7544387 64.135865-2.1805217 4.098827-.3688921 8.00145-.774445 11.6788-1.2142123l1.688017-.20637-1.688017-.2061814c-19.846679-2.3734271-46.255049-3.7502662-74.469761-3.792713zm-.860924-51.7760943c-39.191764 0-76.078998 1.4897456-108.313143 4.1146402-10.792846 1.4726551-20.899978 3.1676948-30.160505 5.0671436l-.916365.189215c-17.042488 3.542543-30.55198 7.6727917-39.567692 12.0448725-4.173821 2.0240534-7.182687 4.0082712-8.931325 5.7610346-.427624.4286323-.736268.7993316-.940519 1.0994097l-.066845.1006844.066845.1008932c.175072.2572098.426842.5663045.764494.919294l.176025.1801157c1.614127 1.6179354 4.302059 3.4330865 7.988859 5.2947396l.942466.4662949c9.176707 4.4501538 23.009119 8.6497613 40.484057 12.2340875l1.09983.223825c5.56714 1.1240999 11.433658 2.1751168 17.565691 3.1491314 1.176267-2.7336635 3.35629-4.8422654 6.08819-6.5167109 2.343531-1.4364055 5.273396-2.6178594 8.886889-3.6893743 5.884118-1.7448273 13.924969-3.272874 23.807976-4.5656486l1.712217-.2193104c20.592495-2.582758 48.027429-4.0840149 77.373313-4.1739547l2.800466-.0042881c29.462245 0 57.170094 1.4217874 78.192059 3.9355463l1.98172.2426965c10.669227 1.338159 19.299839 2.9404273 25.520193 4.784959 3.613493 1.0715149 6.543358 2.2529688 8.886889 3.6893743 2.7319 1.6744455 4.911923 3.7830474 6.087226 6.5165093 6.537599-1.038066 12.77346-2.1640223 18.666485-3.3727548l.916365-.1892149c17.042488-3.5425431 30.551979-7.6727917 39.567692-12.0448726 4.17382-2.0240533 7.182687-4.0082711 8.931325-5.7610345.427623-.4286324.736268-.7993316.940519-1.0994097l.065209-.1018932-.065209-.0996844c-.175072-.2572098-.426842-.5663045-.764494-.9192941l-.176025-.1801156c-1.748638-1.7527634-4.757505-3.7369812-8.931325-5.7610346-9.176707-4.4501537-23.009119-8.6497612-40.484057-12.2340875l-1.099831-.2238249c-8.20607-1.6569447-17.062608-3.1550996-26.461163-4.4819123-33.240914-2.8492324-71.679425-4.4760466-112.634502-4.4760466z"/></svg>