<svg height="960" viewBox="0 0 960 960" width="960" xmlns="http://www.w3.org/2000/svg"><path d="m483.782967 4.44795455 10.899422.01474337 11.208159.03827572 6.324985.03480941 8.029462.06110596 8.563553.08996254 7.273954.09993476 5.291717.08791352 6.04086.11723079 5.353458.119567 4.486661.1118337 4.575849.12541426 4.161764.12411658 2.775393.08809479 2.786577.09271099 4.207308.14798792 4.249116.15905849 4.300912.17053951 4.362694.18243098 4.434463.19473292 6.04152.27948966 4.640763.22503365 4.745823.23870378 6.50845.34024576c.978014.05217461 1.94925.10910422 2.913754.17087146l1.920045.13000912c29.621987 2.11587791 52.803478 8.93364601 70.89875 22.91467641 22.353198 17.2708508 33.021047 42.7079495 33.021047 73.4755384v751.386577c0 16.917222-3.412852 30.729279-13.859013 44.109694-9.646 12.355496-23.068637 20.954158-42.499713 29.043602-42.230653 17.581244-101.899612 27.624064-187.724327 27.624064h-2.628076c-83.450467-.233975-141.890277-10.049845-183.546261-27.105027l-1.257174-.519037c-1.143005-.47585-2.265219-.953462-3.367096-1.433496l-1.637622-.721952c-16.765655-7.480655-28.700113-15.622849-37.494995-26.888154-10.446161-13.380415-13.859013-27.192472-13.859013-44.109694v-751.386577c0-30.7675889 10.667849-56.2046876 33.021047-73.4755384 18.095272-13.9810304 41.276763-20.7987985 70.898749-22.91467641l1.920046-.13000912c.964504-.06176724 1.93574-.11869685 2.913754-.17087146l8.491303-.44098558 4.930893-.24414364 4.822138-.2293774 6.280372-.28367225 4.613442-.19673505 4.543314-.18352211 4.484773-.17077518 2.963049-.1069986 2.945615-.10167848 4.393243-.14284451 4.373329-.13165087 3.701449-.10312275 4.6421-.11884855 7.633518-.17057922 6.061993-.11397212 5.321805-.08522767 5.468937-.07417079 6.605567-.07312307 7.903217-.06671009 9.425676-.05475373 6.64514-.0252408 10.583164-.0258036zm194.137416 816.12262145-1.241605.499709-1.351199.532229-1.37529.531015-1.39967.529711-1.424339.528316c-.239462.087932-.479963.175801-.721511.263607l-1.461887.526054-1.487281.524431c-.250013.087265-.501095.174459-.753254.26158l-1.525916.521828-1.552035.51998-1.578443.51804-1.605141.51601c-.269765.085827-.540654.171566-.812674.257215l-1.645732.512794-1.673156.510536c-.28116.084896-.563476.169695-.846952.254394l-1.714833.506979-1.742981.504496-1.771419.50192c-.297622.083434-.596441.166757-.896463.249966l-1.814618.497888-1.84378.495085-1.873232.492192c-.314676.081786-.630591.163447-.947751.244983l-1.917952.487682-1.94813.484562-1.978595.481352-2.009351.47805-2.040397.474658-2.071733.471174-2.103359.467601c-.353211.077631-.707752.155109-1.063629.232432l-2.15134.462069-2.18369.458269c-.36666.076056-.734681.15195-1.104067.22768l-2.232759.452397c-.374874.075067-.751127.149965-1.128764.224694l-2.282479.446321c-.383198.074042-.767792.147911-1.153788.221605-6.655645 1.27068-13.532297 2.445916-20.633183 3.520039l-3.056974.454131c-8.700378 1.269072-17.732065 2.387861-27.100835 3.346215l-3.320631.331565-3.34868.318142c-.560454.0519-1.122079.103236-1.684876.154007l-3.390861.297822-3.419051.284153c-10.871689.878066-22.168261 1.549017-33.897778 1.998681l-2.042319.075165.000976.59596h-67.464184l-.000792-.59596-.18513-.006006c-11.797173-.427131-23.159352-1.077126-34.094644-1.935736l-3.439069-.278058c-1.712449-.14248-3.414277-.290123-5.105515-.442874l-3.368367-.312294-3.340185-.325814c-.554353-.055424-1.107533-.111407-1.659543-.167947l-3.298019-.345907c-16.419949-1.762798-31.788405-4.023251-46.137285-6.725262l-1.265869-.240022-2.299198-.444251c-.380411-.074387-.759432-.148946-1.137069-.223675l-2.24926-.450394c-.372124-.0754-.742877-.150966-1.112263-.226697l-2.199974-.456334c-.363946-.076378-.726539-.152917-1.087783-.229615l-2.15134-.462069-2.11928-.46578c-.350558-.077934-.699792-.156019-1.047708-.234253l-2.071733-.471174-2.040397-.474658-2.009351-.47805-1.978596-.481352-1.948129-.484562-1.917952-.487682c-.317161-.081536-.633076-.163197-.947751-.244983l-1.873232-.492192c-.309743-.082276-.618259-.164672-.925553-.247187l-1.829163-.496497c-.604868-.165964-1.204901-.332387-1.800145-.499255l-1.771419-.50192-1.742981-.504496-1.714833-.506979-1.686976-.509374c-.278857-.08509-.556566-.170276-.833132-.255556l-1.645732-.512794c-.27202-.085649-.542909-.171388-.812674-.257215l-1.605141-.51601-1.578443-.51804-1.552035-.51998-1.525916-.521828-1.500087-.523587c-.247878-.087406-.494692-.174881-.740448-.262424l-1.461887-.526054-1.436783-.527585c-.237387-.088053-.473741-.176167-.709067-.264338l-1.39967-.529711c-.231239-.088397-.461461-.176847-.690674-.26535l-1.363209-.531634c-.225198-.088705-.449398-.177459-.672607-.26626l-.666656-.266541c-2.32329-.933516-4.471652-1.900692-6.453515-2.906221l-.000476 37.77204.004713.911837c.003196.301574.008071.600799.014789.897743l.025843.884051c.496564 13.744998 5.422531 22.597722 31.686923 33.531976 27.661433 11.515863 77.22078 24.29349 169.540119 24.55083h5.328516c92.319339-.25734 141.878686-13.034967 169.540119-24.55083 1.117634-.465288 2.196628-.926806 3.238287-1.385092l1.534648-.685073c21.599933-9.786562 26.242363-18.203413 26.876114-30.591047l.037874-.870764c.005282-.146223.010064-.293.014364-.440339l.020194-.890847.010787-.90474.000486-38.230233c-1.817623.922235-3.775298 1.812209-5.879529 2.673541zm-186.610143-776.1231382h-14.201964l-13.864678.01955-9.136941.0328987-5.038033.0268767-6.13139.042615-5.967281.0533737-5.825137.0649222-6.833466.0942628-6.698369.1133951-5.50616.1100956-5.46067.1251197-4.350544.1114439-3.660202.1019947-4.442629.1339834-2.970937.0958242-4.479041.1538078-4.516837.166276-3.038129.1179898-3.063786.1238498-4.651541.197041-4.729206.2109429-4.818832.2252747-6.585202.323404-5.074475.2603886-3.454188.1823246c-47.907002 2.5557197-70.884466 18.3287862-70.884466 56.7478933l.000314 685.559242c.15373 2.047449.5982 3.355691 1.466124 4.564001 1.189248 1.655653 3.320497 3.392601 6.682403 5.192001l.713221.373175c.974627.498738 2.044422 1.002129 3.215444 1.509779l.897342.381529c.152752.063719.307109.127504.463084.191352l1.097223.441359 1.26706.498779 1.291564.498084c.217319.082951.435673.165869.655066.248752l1.32889.496866 1.354155.49594c.227815.082574.456695.165106.686647.247593l1.392622.494376 1.418649.493217 1.444978.491967c.243041.081885.487192.163714.732459.245485l1.485044.489917 1.512136.488434c.254297.081277.509735.162489.766322.243633l1.553343.486037 1.581195.484324c.531741.161146 1.068175.32199 1.609352.482518l1.637813.48062c.275358.07994.551914.159797.829675.239569l1.681075.477597c.282606.079425.566429.158761.851477.238006l1.725022.474369 1.754701.472099 1.784684.469739c.299963.078087.601188.156073.903681.233954l1.83023.466023c.307591.077457.616464.154806.926624.232045l1.87646.462099 1.907661.459368 1.939165.456543 1.970975.453628 2.003089.450618 2.035507.447516 2.06823.444323 2.101258.441035 2.134588.437657 2.168225.434185c.364191.072069.729796.143991 1.096821.215761l2.21925.428804c2.470247.471614 4.973055.929728 7.508612 1.374021l2.546481.439673c.426235.072507.853381.144627 1.28144.216358l2.579306.425716c.431712.070172.864337.139952 1.297877.20934l2.612227.411597 2.634225.402095c.881746.13244 1.767165.263284 2.656265.39252l2.678347.382875 2.700469.373157c.451925.061379.904772.12235 1.358544.182912l2.733733.358445c.914946.117836 1.833597.234023 2.755959.348548l2.778228.338579c.929792.11119 1.863302.220706 2.800538.328537l2.822889.318424 1.41984.155398 2.856494.30312 2.87895.292827 2.901447.282463 2.923986.272026 2.946565.261518 2.969188.250939c1.490256.122812 2.98901.241629 4.496287.356412l3.025923.224173c.506216.036462 1.013381.072472 1.521496.10803l3.060089.207899c1.023832.06748 2.051469.133138 3.082918.19696l3.105789.185948c1.558619.09021 3.12583.176263 4.701657.25812l3.163148.158106c1.587324.076243 3.183279.148263 4.787889.216019l3.220766.129815c.53872.020684 1.078403.040892 1.619051.060621l3.255462.112624c1.089015.035621 2.181894.069316 3.278643.101074l3.301868.089452 3.325134.077759c.55613.011981 1.113231.023472 1.671304.034471l3.360109.060083c.561965.009027 1.124903.017558 1.688816.025594l3.395178.042245c.567815.006045 1.136606.01159 1.706374.016635l3.430342.024247 3.453835.012157h3.164217l3.453836-.012157 3.430342-.024247c.569768-.005045 1.138559-.01059 1.706373-.016635l3.395179-.042245c.563913-.008036 1.126851-.016567 1.688816-.025594l3.360109-.060083c.558073-.010999 1.115174-.02249 1.671304-.034471l3.325133-.077759 3.301868-.089452c1.09675-.031758 2.189629-.065453 3.278644-.101074l3.255462-.112624c.540647-.019729 1.080331-.039937 1.61905-.060621l3.220766-.129815c1.60461-.067756 3.200566-.139776 4.78789-.216019l3.163148-.158106c1.575827-.081857 3.143038-.16791 4.701657-.25812l3.105789-.185948c1.031449-.063822 2.059086-.12948 3.082918-.19696l3.060089-.207899c.508115-.035558 1.01528-.071568 1.521496-.10803l3.025923-.224173c1.004851-.076522 2.005915-.154837 3.003198-.234933l2.980513-.245621 1.481763-.126797 2.946566-.261518 2.923986-.272026 2.901447-.282463 2.87895-.292827 2.856494-.30312 2.834081-.313341c.940963-.106143 1.878197-.213977 2.811709-.32349l2.789377-.333567c1.389113-.169291 2.769868-.342334 4.142287-.519088l2.733733-.358445c.453772-.060562.906619-.121533 1.358544-.182912l2.700469-.373157 2.678347-.382875c.44455-.064618.88818-.129638 1.33089-.195059l2.64524-.397317c.439037-.067016.877157-.13443 1.31436-.202239l2.612227-.411597 2.590269-.421028c1.289653-.21286 2.571087-.429228 3.844326-.649066l2.535559-.44429c1.683097-.29926 3.351654-.60464 5.005724-.916043l1.237838-.234681c.745466-.142322 1.485199-.285262 2.21925-.428804l2.185157-.432414c.361368-.072365.721329-.144876 1.079888-.217532l2.134589-.437657 2.101257-.441035 2.06823-.444323 2.035508-.447516 2.003089-.450618 1.970975-.453628c.325836-.07585.650348-.151821.97354-.227913l1.923375-.457967c.317941-.076562.634576-.153239.949911-.230031l1.876459-.462099c.310161-.077239.619033-.154588.926625-.232045l1.83023-.466023c.302493-.077881.603718-.155867.90368-.233954l1.784685-.469739 1.754701-.472099 1.725022-.474369c.285047-.079245.568871-.158581.851477-.238006l1.681075-.477597 1.652158-.479636 1.623544-.48158 1.595236-.483433c.26353-.080721.525894-.161516.787097-.242382l1.553343-.486037 1.525795-.487659c.252021-.081406.502906-.162876.752663-.244408l1.485044-.489917 1.458258-.491306c.240828-.081995.480552-.164044.719179-.246146l1.418648-.493217 1.392623-.494376 1.366902-.495441 1.341484-.496415c.22148-.082812.441913-.16566.661306-.248543l1.30393-.497701c.215259-.083015.42949-.16606.6427-.249135l1.26706-.498779 1.097223-.441359.916535-.382314c.448659-.190765.882976-.380939 1.303272-.5705l.821989-.378299c4.686981-2.201905 7.494398-4.318521 8.929698-6.316723.870287-1.211599 1.314811-2.523676 1.467372-4.580739l-.000934-685.542504-.006896-1.145788c-.455147-37.5874587-23.449638-53.0719428-70.87757-55.6021053l-3.401704-.1795841-4.998882-.2566721-6.489417-.319154-3.176996-.1499613-4.69037-.2132645-4.610371-.1996166-4.541792-.1863793-4.484633-.1735527-4.438893-.1611367-4.404573-.1491313-2.922954-.0929541-3.664218-.1097001-3.660203-.1019947-4.761232-.1214205-5.510619-.1249619-5.558776-.1097451-5.629472-.0953389-5.722708-.0817431-5.838484-.0689578-7.190739-.0670141-9.964796-.0649494-7.806943-.0322256z"/></svg>