<svg height="960" viewBox="0 0 960 960" width="960" xmlns="http://www.w3.org/2000/svg"><path d="m135.213168 11.4725205 415.207382 1.409828c39.11803.1326113 70.759309 31.8813376 70.759309 70.999592v780.2903585c0 38.258807-30.314433 69.637784-68.550464 70.957732l-415.188196 14.33273-2.115009.073013-2.083453-.371242c-27.867364-4.965566-50.6904618-15.440691-66.8676992-30.341334-16.0182521-14.754203-24.9108848-33.430912-24.9031147-52.612607.2290431-347.909069.400718-608.660394.5150297-782.2539747.0170357-25.8703512 15.0088309-45.3428556 38.529893-58.0233518 15.3007811-8.2488408 34.3047472-13.3412462 47.8352242-14.0740668l.431848-.0216772 5.09603-.3227805.665943-.0422195zm-14.810165 41.9312839-.075273.0183519c-6.753203 1.6021965-14.461438 4.2874809-20.8291283 7.7203818-11.7798927 6.3506862-17.5056964 13.7878033-17.5116576 22.8404182-.1143117 173.5935787-.2859866 434.3449007-.5150236 782.2489077 0 7.506622 3.9023603 15.708921 12.0026941 23.170033 8.9094864 8.206412 22.0590254 14.774326 38.9888174 18.773366-11.261604-11.766487-18.179522-27.724543-18.179522-45.298366v-786.7942489c0-8.2695904 2.229051-16.0185581 6.119093-22.6788437zm13.880907 22.6788437v786.7942489c0 23.493711 17.79475 42.831235 40.641297 45.269622l376.324168-12.992675c16.527659-.570552 29.665421-14.004294 29.930484-30.48132v-780.7905835c0-17.0798012-13.815206-30.9419211-30.894909-30.9998218l-395.912047-1.3437441c-11.457393 2.2948679-20.088993 12.4115616-20.088993 24.5442735zm643.053178 44.2948979.926821.014697 70.033389 1.110571c43.136679.684049 77.747398 35.847966 77.747398 78.990068v495.125342c0 41.427372-32.001802 75.81818-73.322034 78.79569l-57.70118 4.15791c-11.324613.815738-22.706254-.095464-33.751279-2.702339-8.298421-1.957217-13.08154-3.082264-14.227462-3.346654-26.09849-6.021512-43.3942-16.278473-53.216481-32.012952-4.415431-7.073155-7.029336-14.783453-8.356023-23.413827-.943389-6.13694-1.200384-11.831008-1.196712-20.740568.228941-162.06847.400546-329.897032.514855-503.485669.015688-23.823941 9.154484-42.724107 25.041615-55.265982 11.834474-9.342562 26.605934-14.389698 40.134824-15.129179l.326099-.016134.372542-.018273-.363542.017273-.009.001.009-.001 26.112963-2.008882zm-.251751 64.618301v523.081162c0 14.428613 9.85742 26.554902 23.205187 30.011794l49.557218-3.571441c20.398596-1.46991 36.196954-18.447651 36.196954-38.899138v-495.125342c0-21.297999-17.086304-38.657402-38.381627-38.995097l-51.519058-.817013c-10.940635 2.678659-19.058674 12.548832-19.058674 24.315075zm-13.420355-23.449615-10.592.815929-.328825.025294-.329479.014439c-5.732294.251203-12.737469 2.601564-17.799637 6.597823-6.271502 4.95095-9.819026 12.287669-9.82667 23.896438-.114315 173.598522-.28593 341.437124-.514853 503.495887-.005406 13.069741.866771 18.743427 3.484075 22.936131 3.445437 5.519304 11.642561 10.380485 28.277803 14.218612.955767.220517 3.993809.934109 9.170949 2.154061-5.138257-7.960124-8.121008-17.443651-8.121008-27.623837v-523.081162c0-8.590645 2.40549-16.619458 6.579645-23.449615z"/></svg>