<svg height="960" viewBox="0 0 960 960" width="960" xmlns="http://www.w3.org/2000/svg"><path d="m346.280283 3.19557887 1.023717.14442113 440.493803 34.0979452c11.105505.8596766 21.34084 6.3099097 28.252163 15.0241578l.33721.4311953 123.28936 159.8905207c5.396607 6.998709 8.323464 15.587617 8.323464 24.425337v.22269c0 2.246233-.186116 4.452797-.544422 6.604173l-.097578.555981v471.758l.100926.577798c.323751 1.950007.506032 3.945207.541074 5.974021v.808307c0 8.836583-2.926105 17.424451-8.321436 24.422707l-119.577798 155.103729c-5.964731 7.736821-14.554605 13.02334-24.149126 14.862247l-44.993203 8.623493c-4.99635.957611-10.12951.953339-15.124259-.012588l-28.625178-5.535714-266.921 17.258-.289999.339222c-6.520581 7.48954-15.802833 12.547355-26.354183 13.556447l-.62212.054676-48.7583 3.908266-.100794.007951-10.532604.817438-.268601.092764c-6.470559 2.126811-13.759659 2.588954-21.510661.78103l-1.16607-.288289-134.502184-35.132835c-7.074154-1.847814-13.50653-5.599224-18.598072-10.846534l-143.2915653-147.675369c-8.67252-8.937843-12.040455-19.752516-11.3561067-30.098749l.06326-.803018v-507.72813c0-12.36694 5.6580703-23.602312 14.715185-30.997846l.034815-.027024 139.835018-144.1081585c4.94128-5.0922292 11.145346-8.7755978 17.973267-10.6774663l.62242-.1679791 134.502185-35.13943631c5.457475-1.42579541 10.697386-1.72436894 15.597393-1.10338092zm-.332986 40.20195823-146.495 163.3079999v546.532l146.424 163.227 53.948503-5.005908-.000578-25.636965c-.158815-.677432-.248923-1.38185-.262451-2.10567-.015991-.85564.075968-1.688185.263351-2.484632l-.000114-46.401684c-.180736-.768692-.272674-1.571273-.264491-2.396194.0075-.755997.0987-1.491566.264712-2.197995l.000483-27.568159c0-5.352662 4.21486-9.756185 9.562394-9.990421l333.603287-14.612676c5.689128-.249198 10.437606 4.295838 10.437606 9.990421l-.000199 97.464975 34.993402-6.705774 77.698598-100.783226 19.008-26.254 22.229-30.703v-482.2l-16.058-22.181-106.856665-138.5983928-.43421-.034159.996413-.1891484 97.549462 126.7427002-1.172-1.62-3.6-4.972-93.072159-120.7029939-417.932841-32.3520063zm-268.1634968 708.0310919 128.5077648 132.438537 104.983235 27.422463-128.342698-143.459919zm622.4999998 48.525-280.458088 12.285025-.000125 12.358085c12.040574 4.9649 20.278216 18.280156 20.278216 33.344015 0 15.066227-8.236466 28.432472-20.277878 33.46653l-.001125 8.011345 35.95-2.071 244.509-15.809zm-228.624738 19.579728c17.325484.171594 30.444741 16.397072 30.444741 35.407397 0 18.980876-13.072675 35.263593-30.356914 35.58663-17.51905.327425-30.730642-16.012249-30.730642-35.406141 0-19.364444 13.16407-35.760998 30.642815-35.587886zm63-4c17.325484.171594 30.444741 16.397072 30.444741 35.407397 0 18.980876-13.072675 35.263593-30.356914 35.58663-17.51905.327425-30.730642-16.012249-30.730642-35.406141 0-19.364444 13.16407-35.760998 30.642815-35.587886zm198.76965-17.031703-13.144912.575975v83.884l10.908 2.109 2.237.261zm-134.76965 14.031703c17.325484.171594 30.444741 16.397072 30.444741 35.407397 0 18.980876-13.072675 35.263593-30.356914 35.58663-17.51905.327425-30.730642-16.012249-30.730642-35.406141 0-19.364444 13.16407-35.760998 30.642815-35.587886zm64-5c17.325484.171594 30.444741 16.397072 30.444741 35.407397 0 18.980876-13.072675 35.263593-30.356914 35.58663-17.51905.327425-30.730642-16.012249-30.730642-35.406141 0-19.364444 13.16407-35.760998 30.642815-35.587886zm-191.198073 31.998715c-5.213286-.051329-10.444742 6.46473-10.444742 15.589171 0 9.094992 5.183933 15.506314 10.356914 15.409633 5.407792-.10107 10.730642-6.730966 10.730642-15.590122 0-8.829708-5.276267-15.355227-10.642814-15.408682zm63-4c-5.213286-.051329-10.444742 6.46473-10.444742 15.589171 0 9.094992 5.183933 15.506314 10.356914 15.409633 5.407792-.10107 10.730642-6.730966 10.730642-15.590122 0-8.829708-5.276267-15.355227-10.642814-15.408682zm64-3c-5.213286-.051329-10.444742 6.46473-10.444742 15.589171 0 9.094992 5.183933 15.506314 10.356914 15.409633 5.407792-.10107 10.730642-6.730966 10.730642-15.590122 0-8.829708-5.276267-15.355227-10.642814-15.408682zm-178.635601 21.952459.000851 6.908213c.180761-1.103091.277564-2.25727.277564-3.45199 0-1.197957-.097122-2.353501-.278415-3.456223zm242.635601-26.952459c-5.213286-.051329-10.444742 6.46473-10.444742 15.589171 0 9.094992 5.183933 15.506314 10.356914 15.409633 5.407792-.10107 10.730642-6.730966 10.730642-15.590122 0-8.829708-5.276267-15.355227-10.642814-15.408682zm-484.067189-613.420443-49.68 7.752-65.7139998 10.607v495.003l115.3949878 18.623844zm291.6062 40.888371c39.140443 0 70 37.545794 70 83 0 26.922945-10.875179 51.76071-28.886081 67.236103l-.112919.094897.000378 56.553106c0 5.42924-4.326671 9.847932-9.720095 9.996158l-.279905.003842c-5.522847 0-10-4.477152-10-10v-61.370847c0-3.180084 1.512546-6.17058 4.074123-8.055059 15.213773-11.192338 24.924499-31.687802 24.924499-54.4582 0-35.179368-22.866273-63-50-63s-50 27.820632-50 63c0 22.770837 9.711103 43.266633 24.925332 54.458813 2.56166 1.884457 4.074274 4.874988 4.074292 8.055126l.000376 65.486004c.000032 5.522847-4.477095 10.000057-9.999943 10.000057-5.522847 0-10.000025-4.477095-10.000057-9.999943l-.001-60.669057-.111885-.094008c-17.81783-15.308911-28.652406-39.78044-28.883347-66.369225l-.003768-.867767c0-45.454206 30.859557-83 70-83zm346.434704-38.629099c26.03813.257885 46.220383 25.21865 46.220383 54.918206 0 29.670107-20.13567 54.750163-46.132556 55.236037-26.231696.490262-46.506284-24.584699-46.506284-54.91695 0-30.302803 20.227065-55.496696 46.418457-55.237293zm25.088303 64.967491-50.451594.221937c3.253593 14.883029 13.606319 25.182698 25.07739 24.968307 11.589886-.216612 22.01119-10.64865 25.374204-25.190244zm-25.286376-44.968472c-11.486325-.113762-21.86272 10.284329-25.145776 25.189008l50.452467-.221138c-3.333377-14.518617-13.732056-24.853233-25.306691-24.96787zm-88.917919-113.590366c25.973475.999926 45.934725 26.960614 45.934725 57.227972 0 30.426964-20.212823 55.736493-46.418456 55.476949-26.172012-.259211-46.220384-26.333205-46.220384-57.234884 0-31.061284 20.30509-56.486345 46.704115-55.470037zm-113.614597-4.373929c26.062657 1.003359 45.934726 27.736814 45.934726 58.85231 0 31.27215-20.11729 57.361777-46.418457 57.101287-26.263797-.26012-46.220384-27.107275-46.220384-58.859222 0-31.9086 20.206918-58.114462 46.704115-57.094375zm113.328939 97.079831c11.571744.114608 22.034388-10.52979 25.226643-25.741144l-50.600221-1.223489c3.276238 15.6951 13.819629 26.850201 25.373578 26.964633zm-113.614597-1.125253c11.600535.114893 22.205676-11.207636 25.308726-27.362829l-50.766424-1.228474c3.187736 16.635856 13.872104 28.476557 25.457698 28.591303zm-303.313657-163.3435742-103.813235 27.1228075-127.3597648 131.2491927 47.0669998-7.344 57.253-9.242zm391.45424 117.4938112 50.596193 1.225622c-3.352828-15.33207-13.940784-26.522229-25.60591-26.971312-11.461149-.441231-21.87399 10.163363-24.990283 25.74569zm-113.691071-2.750675 50.76308 1.229112c-3.260309-16.268569-13.990964-28.147424-25.696323-28.598056-11.481837-.442027-22.03589 10.838137-25.066757 27.368944z"/></svg>