<svg height="960" viewBox="0 0 960 960" width="960" xmlns="http://www.w3.org/2000/svg"><path d="m479.960465 2 .14707.012 2.609004.02023435.163357.00199278c138.898446 2.26181758 250.466565 116.03756887 250.466565 255.65881387 0 32.176336-5.932776 63.550707-17.354472 92.941306l-.410454 1.045653-.011585.052446c-.031859.13318-.066692.266253-.114321.445506l-.030192.113464c-.233438.863751-.413871 1.378174-.663704 2.031147-.217874.569443-.451878 1.122622-.831438 1.995091-.499777 1.148803-1.264961 2.869698-2.144699 4.827252l-.217071.482641c-.054339.120712-.054339.120712-.110986.246484l-.214712.476309c-.735161 1.629641-1.437342 3.173838-1.95551 4.299481l-.259666.562059c-.400191.862625-.595055 1.273159-.872052 1.801382-.155745.296801-.155745.296801-.519476.932167-.090652.152503-.151087.254171-.214074.355599l-.015514.023972-.136754.315439c-5.573589 12.81704-12.486912 30.262295-18.906853 48.693926l-.326004.938034c-12.019221 34.660927-20.685971 67.987038-24.38059 97.333128-.429415 3.410814-.87112 7.120805-1.3357 11.205174-.482714 4.243791-1.497339 13.814952-2.59601 24.270202l-.127118 1.210046c-.106199 1.01122-.213016 2.029033-.320053 3.04949l-.164864 1.572172c-.040839.389552-.081681.779194-.122503 1.168707l-.122385 1.167933-.122134 1.165848-.12175 1.162449c-1.255652 11.989899-2.428728 23.225408-2.862616 27.192237-6.763926 61.839361-12.741064 95.04231-23.520204 112.304725-6.079023 9.735344-10.56661 16.67851-14.063986 21.818177-1.435455 2.109513-2.686384 3.890433-3.913643 5.58419-.285544.394083-.562543.773579-.853249 1.169279l-.275584.372844-.023085.065966c-.05337.138812-.108402.277518-.165111.416101l-.175166.415356c-3.223788 7.422675-7.123877 17.580446-10.733995 27.963239l-.539099 1.558087-.543781 1.588175c-4.807415 14.115152-8.309794 26.441735-9.278353 32.6509-2.161293 13.855464-3.553695 39.376151-4.060602 75.964283-.069207 4.995278-2.005395 9.783796-5.427586 13.423328-10.270437 10.922708-19.388312 20.381665-27.400466 28.41158l-1.289584 1.289627c-13.012378 12.983974-23.026245 22.088847-30.251508 27.470148-11.546136 8.59944-23.808066 13.679291-36.606835 14.845657-1.683864.153452-4.049445.215599-7.151913.243578h-.959021c-3.098353-.027979-5.463935-.090126-7.147798-.243578-12.798769-1.166366-25.060699-6.246217-36.606835-14.845657-7.225263-5.381301-17.23913-14.486174-30.251509-27.470148l-1.289583-1.289627c-8.012155-8.029915-17.130029-17.488872-27.400466-28.41158-3.422191-3.639532-5.35838-8.42805-5.427586-13.423328-.506907-36.588132-1.899309-62.108819-4.060603-75.964283-.932695-5.97926-4.226897-17.680971-8.787838-31.203623l-.480149-1.416922-.533456-1.558409-.54945-1.588395c-3.620457-10.412606-7.520546-20.570377-10.744335-27.993052-.120145-.276632-.233537-.553832-.340276-.831457l-.027011-.072966-.17487-.23763c-.191817-.261719-.383363-.524064-.574963-.787541l-.383366-.528611c-4.475667-6.188223-9.097566-13.175875-17.969338-27.383708-10.779139-17.262415-16.756277-50.465364-23.520204-112.304725-.433887-3.966829-1.606963-15.202338-2.862615-27.192237l-.12175-1.162449-.122134-1.165848-.122385-1.167933c-.040822-.389513-.081664-.779155-.122503-1.168707l-.164864-1.572172c-1.263036-12.041397-2.495486-23.714667-3.043181-28.529738-.46458-4.084369-.906285-7.79436-1.3357-11.205174-3.69462-29.34609-12.361369-62.672201-24.38059-97.333128-6.51121-18.77697-13.564801-36.597682-19.232857-49.63196l-.13768-.315439-.014589-.023972c-.050389-.081143-.099145-.162439-.163046-.269793l-.051027-.085806c-.363732-.635366-.363732-.635366-.519476-.932167-.276997-.528223-.471862-.938757-.885778-1.831033l-.257154-.556727c-.506955-1.101324-1.209135-2.645521-1.946605-4.280283l-.214713-.476314c-.054337-.120646-.054337-.120646-.111035-.2466l-.21233-.472099c-.88212-1.962854-1.647305-3.683749-2.147081-4.832552-.37956-.872469-.613564-1.425648-.831438-1.995091-.249833-.652973-.430266-1.167396-.663704-2.031147-.063769-.239492-.106282-.399153-.144513-.55897l-.009511-.042446-.433822-1.105572c-11.242064-28.933171-17.167324-59.843933-17.333178-91.551174v-1.340213c0-139.784128 111.733165-253.40043204 250.46088-255.65877971l2.76912-.02226129h.001l.155486-.012zm-34.852534 897.426069.351822.3269c5.486809 5.130825 9.902795 8.941879 13.206932 11.402766 5.731656 4.268877 10.976328 6.497347 15.897642 7.045563l.396208.039702.050297.005517-.050297-.005517.012823.000112c.01456.000434.038184.001533.069118.002963l.051655.002365c.249109.011229.578947.022475.969456.032734.787134.020679 1.759154.035811 2.782216.044826h.324276c.880436 0 1.72035-.019963 2.438045-.036307l.348284-.008519c.39051-.010259.720348-.021505.969457-.032734.075574-.003407.125566-.005956.135342-.005766l.394462-.039376c4.772183-.531603 9.848424-2.64317 15.377919-6.663094l.519723-.382469c3.229094-2.404996 7.520106-6.099525 12.834742-11.055217-9.124024.918048-19.292844 1.376749-30.504536 1.376749-13.688295 0-25.880156-.683733-36.575586-2.051198zm-53.917438-158.925306.071422.197577c.72702 2.004909 1.450114 4.034639 2.163965 6.075137l.358973 1.029255.580481 1.678329.574012 1.676847.50953 1.50338c.144208.427558.287317.853537.429306 1.277885 20.09246 3.923826 48.120164 5.920893 83.936496 5.920893 5.522847 0 10 4.477153 10 10 0 5.522848-4.477153 10-10 10-31.324567 0-57.084324-1.490588-77.367777-4.514098 1.344646 4.946729 2.385956 9.361172 3.066412 13.088515 19.090117 2.836309 43.887677 4.276329 74.301365 4.276329 5.522847 0 10 4.477153 10 10 0 5.522848-4.477153 10-10 10-28.563934 0-52.50069-1.239434-71.877374-3.750401.271375 3.323814.521206 6.87542.750124 10.656945 18.638537 2.537623 42.372877 3.8248 71.12725 3.8248 5.522847 0 10 4.477152 10 10 0 5.522847-4.477153 10-10 10-27.733287 0-51.104603-1.168397-70.175367-3.534568.143747 4.004363.270783 8.19086.38219 12.560229 23.973452 3.315072 47.903159 4.972039 71.78857 4.972039 22.876007 0 44.935474-1.519879 66.178403-4.559636.704882-27.980642 2.04733-48.498949 4.089816-61.878471l.075599-.489912c1.419341-9.099012 5.430629-23.216691 10.946626-39.412245l.574838-1.678652.570129-1.648021c.798367-2.296141 1.610025-4.582847 2.427283-6.839775-32.613562 1.2277-59.836501 1.850192-81.688034 1.867004l-1.822847.00035c-24.276548-.019165-54.928402-.785987-91.971391-2.299735zm-13.081253-30.826372-.122428-.167445c.251528.339121.412592.556576.596697.805938l.342056.464564c.060598.082588.060598.082588.137329.187378l.231336.316865c.458268.629492.885368 1.226979 1.315444 1.842287 1.492639 2.135515 2.54601 4.530858 3.114963 7.047189 40.533287 1.73285 73.689466 2.608854 99.448019 2.628983h1.801283c23.395842-.018081 53.140468-.741971 89.22493-2.172627.510302-2.535066 1.510261-4.956477 2.953534-7.125401l.257919-.378144c.430075-.615308.857176-1.212795 1.332018-1.865019l.230479-.315629c.061014-.083294.061014-.083294.139508-.190224l.339799-.461431.406426-.550917c-1.716455.097562-3.536101.192554-5.480524.285471-20.215226.96602-50.34575 1.540118-94.194438 1.564833l-2.993055-.000062-.984146-.000641c-42.554612-.033282-71.867562-.605988-91.589008-1.564522-2.340008-.113733-4.496437-.230578-6.508141-.351446zm290.714644-350.88017-.209915.00859c-4.194709.171621-7.81653.319658-9.736702.397696-42.624226 1.732286-72.898216 2.821509-102.024971 3.565897l-2.054247.051976c-4.447372.111391-8.874075.21488-13.320186.311534-21.001209.456545-40.744458.701458-59.552976.718625l-2.252556.000966-3.58273-.002448c-1.194292-.001563-2.388723-.003874-3.583569-.006936l-3.586057-.011444c-51.37323-.196238-104.018683-1.78502-179.720395-5.028667 5.720017 13.45348 12.38185 30.505314 18.575781 48.367319 12.855828 37.073526 22.182999 72.939145 26.275013 105.441713.450754 3.580304.911044 7.446395 1.39271 11.680975.024387.214401.050062.441714.076971.681402l.084375.755658c.630446 5.673969 1.80636 16.821494 2.991996 28.126625l.248117 2.366686c.102775.980671.205343 1.959735.307352 2.93372l.12212 1.166122c1.218076 11.632388 2.335591 22.333254 2.74763 26.100335 5.839866 53.391117 11.684181 85.856234 17.686002 95.46794 1.564905 2.506142 2.981071 4.761559 4.27481 6.807561.62021-.066994 1.256055-.075046 1.901041-.020609.34148.028821 1.392526.122416 2.126805.188072l.274384.024553c.224555.02011.391765.035125.455496.040878l.017352.00104c1.354106.120744 2.556948.221866 3.903151.326226 3.668461.284384 7.828177.545341 12.927621.793192 10.254323.498397 23.212899.89178 39.410904 1.15652l.000789-205.705938c0-30.651804 24.848196-55.5 55.5-55.5s55.5 24.848196 55.5 55.5l.001289 205.661307c15.238602-.26356 27.559305-.64097 37.422093-1.112281 5.189816-.248004 9.423866-.50916 13.158293-.793793 1.370579-.104463 2.595188-.205686 3.978817-.326408l.021151-.001935c.291307-.025828 2.206722-.194558 2.820064-.246301l.075292-.006307c.200719-.016656.400544-.027263.599296-.031973 1.263723-2.002924 2.663625-4.235614 4.236054-6.753804 2.595753-4.157008 5.162045-12.588776 7.711256-25.139379 1.95057-13.685578 4.120994-27.371023 6.504819-41.102532 1.158114-8.911526 2.314107-18.658922 3.469927-29.226029.412039-3.767081 1.529554-14.467947 2.74763-26.100335l.12212-1.166122c.102009-.973985.204576-1.953049.307352-2.93372l.248116-2.366686c1.185637-11.305131 2.361551-22.452656 2.991996-28.126625l.084375-.755658c.026909-.239688.052585-.467001.076972-.681402.481666-4.23458.941956-8.100671 1.39271-11.680975 4.092014-32.502568 13.419185-68.368187 26.275013-105.441713 6.194856-17.864672 12.857754-34.918932 18.579249-48.373108zm-188.323884 91.205779c-19.606109 0-35.5 15.893891-35.5 35.5v204.5h71v-204.5c0-19.410048-15.577603-35.181751-34.912943-35.495244zm-1.519465-407.997-3.183503.0258909c-116.904434 1.904361-211.123497 97.7121711-211.123497 215.6641501 0 28.05943 5.325855 55.338829 15.522854 80.698605 84.407283 3.678029 140.375467 5.382579 195.916682 5.455421l3.560422.002438c19.329792.001113 39.666844-.243069 61.369692-.714867.6809-.014802 1.36136-.029766 2.041527-.044895l3.059258-.069213 2.038758-.047421c1.019411-.023972 2.038979-.048339 3.059196-.073112l2.041442-.050094c1.274813-.031609 2.551146-.063865 3.829953-.096796l1.920186-.049904c28.193447-.739434 57.815573-1.811143 99.031615-3.4862 2.703531-.109874 8.786671-.358772 15.091418-.616835l1.222193-.050027 1.395146-.057109c.683955-.027997 1.365384-.05589 2.040258-.083515 10.053868-25.011499 15.366892-51.82855 15.532326-79.417209v-1.299267c0-117.813191-94.083483-213.7583327-211.117837-215.6641162l.041911.0000752z"/></svg>