<svg height="960" viewBox="0 0 960 960" width="960" xmlns="http://www.w3.org/2000/svg"><path d="m477.638077 3c65.907148 0 124.675949 37.3048158 152.487553 93.8300044l.34237.7069956.767978.2744255c24.512496 8.7450725 41.688319 14.8441585 51.266825 18.2051525l.351285.123229c6.0632 2.126359 8.803248 3.097565 11.185076 4.026351l.364008.142706c.120661.047557.24078.095152.360756.142937l.359901.144068.361447.1461c.544528.221124 1.102368.452144 1.709958.706736 16.554873 6.93681 28.310216 17.029656 34.745986 34.244835 4.255599 11.383393 5.05878 21.396272 5.05878 42.180912v238.605127c0 6.600302-.154255 10.57235-.883853 15.648568-1.196308 8.323385-3.77165 16.152209-8.297867 23.598717-8.947468 14.720325-22.823833 24.089998-42.271997 31.14236-23.8417 8.645562-85.546208 23.371859-138.888464 32.680133l-1.244819.215643.621794.238012c3.524753 1.367226 6.874193 2.857149 10.029116 4.471044l.784667.406057c7.757342 4.060982 14.525935 8.968426 20.12109 15.132575 7.757848 8.546777 12.848022 19.110363 13.720888 31.149203l.003445.064109 13.724 107.315.693348.299925c38.828156 16.773577 68.487385 29.840008 89.0456 39.231477l.730352.333847c14.545452 6.652916 26.142786 14.924587 34.445937 25.572265 9.560065 12.259499 14.020245 27.013845 12.316416 42.039974l-.004653.032512.001 23.069.06213.529147c2.157179 19.385659-5.92406 36.982543-20.013189 50.646544l-.471857.454007c-10.852764 10.359977-25.294958 18.532339-41.959471 24.484521-61.921349 22.116885-118.34362 38.541949-173.645297 47.200288-66.399116 10.395816-127.344296-2.293884-178.311007-31.692866-10.212357-5.890764-16.04469-9.264598-21.399733-12.400076l-.628038-.367917c-.104385-.061182-.208645-.122307-.312809-.183392l-.673951-.39544c-.112201-.065871-.224366-.131739-.336531-.197624l-1.010486-.594044c-1.237489-.72808-2.488443-1.466208-3.802192-2.243186-4.053045-2.397053-7.881895-4.686966-11.5414-6.905377-16.205288-9.823725-28.99339-18.178396-38.87465-25.641788-6.536854-4.937336-11.902487-9.551277-16.311122-14.273215-3.221291-3.450215-6.002818-7.01908-8.363892-11.051287-2.106422-3.597316-3.810599-7.40518-4.954306-11.513471l-.021199-.082824-.041489-.118668c-1.254502-3.772187-1.962499-7.793816-2.030162-11.970928l-.005349-.660822v-33.519751c0-2.6482.257366-5.236363.748465-7.740819l.006535-.031012.044738-.529159c2.73336-30.11806 23.368689-56.003144 60.325884-68.25871l1.210909-.394795c13.13278-4.208957 32.559658-10.288318 58.316852-18.249887l.559617-.173449 20.962-103.918.030642-.281575c1.346737-11.845722 6.835458-22.188034 14.912179-30.503487l.427472-.435781c5.814562-5.869471 12.75458-10.555803 20.677014-14.422369l.336693-.162788-.364375-.066125c-31.224193-5.766819-58.631722-15.949302-84.943514-30.176998l-1.252125-.680566c-2.8768-1.571652-13.414034-7.310548-25.03388-13.643218l-.957359-.521757c-.479763-.261473-.96105-.523784-1.443404-.786685l-.965997-.526513-.483812-.263708-1.670096-.910352c-.312189-.170178-.624414-.340379-.936553-.510538l-.936037-.51028-.934789-.509626-.233417-.127258-1.164828-.635087c-12.711784-6.930952-24.561802-13.400373-27.149595-14.844625-12.794707-7.14075-21.988052-16.883612-26.934118-31.71633-3.300815-9.898788-4.127127-19.644971-4.155101-36.338272v-245.841749c0-19.032102 5.564882-35.561896 19.263491-48.52617 11.597785-10.976068 25.846844-16.5784507 44.897408-20.0613891 7.022895-1.283968 22.458513-3.0751145 47.656216-5.5684293l.511885-.0503246.264022-.4870527c28.70811-52.2207632 84.467419-86.42396024 146.86571-87.20334133zm-220.638009 815.141489-.000068 4.000093.498678.000696c-.007591.295858-.011247.588304-.011247.877117 0 11.383369 53.092457 41.895854 89.806281 63.073384 36.713824 21.177529 88.423944 36.798477 152.137355 26.82315s129.963884-32.344711 166.377947-45.350978c21.316483-7.613758 35.92522-19.45917 36.187398-31.717567-7.989071 6.181284-18.024976 11.354752-29.494588 15.455002-60.900951 21.771367-116.359672 37.929994-170.19663 46.366349-61.795858 9.683531-118.218352-2.07471-165.400166-29.314164-10.991802-6.345892-16.884843-9.759245-22.568221-13.096799l-.667961-.392476c-.222527-.130824-.445027-.261703-.667795-.39281l-.669398-.394179c-1.117984-.658678-2.25002-1.327363-3.432967-2.027591-3.997639-2.366344-7.768896-4.623777-11.366949-6.806834-15.688955-9.519006-27.993957-17.565061-37.227356-24.545193-1.147418-.867408-2.248648-1.719243-3.304313-2.5572zm34.094423-67.885092c-11.883264 3.811813-19.790689 9.014551-24.969181 14.612405-6.801431 7.625834-8.637879 15.923528-8.637879 22.396192 0 .425678.074242.878106.219095 1.355794l-.629342-.000145c2.264924 11.968732 53.886056 41.663165 89.827575 62.413265 36.754082 21.219217 88.520905 36.870913 152.304181 26.87595 63.783276-9.994962 130.106396-32.40838 166.560389-45.440249 19.594606-7.004839 33.527567-17.584498 35.878677-28.776868l-.002407-.589266c.209158-.990918.327285-1.986657.350251-2.985155-.125337-8.517006-7.20275-17.204321-23.772361-24.789664-20.426322-9.350893-50.353378-22.548576-89.781169-39.593047l6.396728 50.123915c.085754.671855.137311 1.347524.154504 2.024393l.006448.507836v1.680412c0 1.607909-.189621 3.171084-.54762 4.668538l-.03438.135297-.031846.20612c-1.537938 9.407385-7.39497 17.162102-15.919639 23.31274l-.443302.316706c-7.320314 5.178614-16.929669 9.440814-28.496988 12.916633-21.707 6.522654-50.314627 10.221261-80.799612 10.371801h-1.832178c-30.816165 0-59.882402-3.638002-81.967972-10.173506-11.735092-3.472617-21.488063-7.744568-28.91273-12.939067-10.397519-7.274387-17.013733-16.842173-17.013733-28.815262 0-.245982.00306-.491797.00917-.737406l.00183-.064759-.003638-.090179c-.053877-1.430486.046265-2.892145.315286-4.366643l.070782-.368882 10.596922-52.630764c-26.114114 8.077162-45.746067 14.224784-58.895861 18.442865zm102.538834-129.470313-20.911151 103.676585-.288174.087331-.071947.360127-.619053.189873-12.743 63.291753.146621.001442c-.097345.556013-.146621 1.115789-.146621 1.67897 0 17.633256 48.305984 31.927835 107.894435 31.927835h1.784231c58.765509-.286225 106.110203-14.470911 106.109334-31.930405l.212.00257v-1.680412l-14.167971-111.010676c-.615272 2.404265-1.367582 4.762936-2.269374 7.062449l-.304542.760361c-5.001676 12.230252-13.970978 21.599705-26.914765 25.832015-14.894499 4.870146-29.608063.479982-39.569215-10.707888-7.945118-8.923563-12.185898-21.388386-12.185898-34.227524l.000765-25.80849-1.131339.020124c-.574691.008175-1.150216.014314-1.726512.018408l-1.731149.006146c-22.53603 0-43.868755-3.125221-60.285844-8.81148-8.317019-2.880702-15.420142-6.419784-21.080831-10.739114zm143.988533-3.816014c-4.580974 3.711547-10.280289 6.60251-16.929315 8.881062-6.232422 2.135786-13.392516 3.746532-21.102399 4.782559l-.001909 35.467403c0 16.316174 10.482117 30.84858 25.539425 25.9252 15.057307-4.923381 17.944341-22.256391 17.944341-33.604508l.001596-46.933551c-1.56851 1.993106-3.403971 3.822714-5.451739 5.481835zm-77.942618-87.97007c-1.989446 0-3.961593-.014155-5.916934-.042401l.001337 39.654322-.138643.063079.000985.753354c-.090863.041751-.181567.083722-.272221.126379l-.000134.016192c-.109439.050331-.218648.10098-.327675.15258l-.513797.053199c-8.887202 4.29073-16.177625 10.727805-20.915807 18.491198-2.320101 1.986847-3.596351 4.155485-3.596351 6.426273 0 9.557743 22.60962 17.305825 50.5 17.305825s50.5-7.748082 50.5-17.305825c0-2.481337-1.523892-4.840703-4.267219-6.973902-4.50645-7.143288-11.1898-13.128317-19.28725-17.300823-.581029-.292536-1.168549-.57524-1.762868-.848564l.000058-.020521c-.124803-.058809-.249913-.117196-.375328-.175161l.000867-.720488c-.025412-.011745-.050836-.023472-.076274-.035181l-.00131-42.719133c-16.574254 2.014733-31.274204 3.099598-43.551436 3.099598zm-47.06642 50.714052-.333899.163254c-.273181.13485-.542799.270627-.808805.407315-7.054748 3.682361-11.496923 8.014809-12.410873 12.681752-.039457.347237-.059243.696205-.059243 1.046774 0 5.456214 4.79274 10.524709 12.9996 14.727982-2.536385-4.106849-3.9996-8.80553-3.9996-14.046954 0-5.624645 1.699987-10.647159 4.61282-14.980123zm135.646116 8.665401.103985.452976c.383782 1.718527.600572 3.510114.632855 5.373181l.004224.488565c0 2.224362-.263524 4.350977-.760931 6.376051 1.087383-1.358329 1.869019-2.759806 2.317183-4.195913l-.365078-2.850258-.010185-.435356c-.056855-1.214223-.351106-2.408463-.867385-3.577397-.302599-.550388-.654707-1.094442-1.054668-1.631849zm-291.968142-165.633667.004481.062794c.804704 13.503535 3.449524 17.209056 10.287587 21.027839 8.633918 4.821697 32.424853 17.69094 61.593612 33.636633 22.451981 12.27383 51.256513 24.331738 91.808898 29.234132.026294.004647.053966.007986.081644.011322l-.081644-.011322c2.121748.256499 4.275656.49341 6.462496.709738l1.455385.141388c.111438.010481.222962.020908.334571.031282 1.580663.146111 3.177775.282364 4.792193.407541.050506.004557.101752.008515.153015.012463l-.153015-.012463c.537511.041677 1.076941.082127 1.618299.121334l-1.465284-.108871c.597213.045986 1.196793.090459 1.798753.133398l-.333469-.024527c.561621.040676 1.125317.080015 1.691102.118004l-1.357633-.093477c1.149692.082011 2.308068.158431 3.475228.229132.212881.012895.425522.025568.638453.038052l.437869.025378.048248.002761c.23383.013363.468011.026497.702543.039401.371146.020097.742783.039934 1.1153.059191l-1.1153-.059191c.543721.029915 1.08933.058594 1.636837.086024l1.025244.049797.109853.00515c.180021.00841.360246.016686.540676.024827.125652.005669.251017.011256.37648.016777l-.37648-.016777c.718528.032419 1.440295.062695 2.165325.0908.125759.004875.253197.009745.380736.014548l-.380736-.014548c.497628.01929.996793.037557 1.497501.054792l.341266.011579.39497.012983c.323576.010453.647794.020475.972656.030065.209191.006175.419147.012185.629373.018014l-.629373-.018014c.565722.016699 1.133397.032087 1.703036.04615l-1.073663-.028136c.558949.015498 1.119798.029718 1.682558.042646.009542.000219.018894.000434.028246.000648l.099326.00226.641171.013923c.330397.006879.66145.013313.99316.0193l.574202.009875c1.997006.032888 4.017785.049599 6.06275.049599 62.443275 0 187.745329-30.875457 212.230965-39.760221 20.504826-7.440302 24.262129-15.30641 24.941863-26.141695-4.030485 1.414421-8.362249 2.716299-12.958772 3.906706-64.80842 16.784077-123.802593 29.236335-180.68821 35.694085-63.219521 7.176786-120.736015-1.506556-168.948211-21.670945-20.924189-8.751386-45.478903-20.39328-64.517558-30.686848-4.913884-2.656774-9.414508-5.196724-13.448523-7.595296zm-.290335-228.333484-.000459 204.429698.408749.286546c5.439888 3.783968 13.256646 8.436513 22.842627 13.619335 18.435265 9.967335 42.392432 21.32592 62.722575 29.82885 45.114503 18.868803 99.205298 27.034962 158.975192 20.249784 55.747737-6.328577 113.954853-18.614706 177.929979-35.182977 6.9244-1.79328 13.061402-3.884468 18.122185-6.136551l-.000738-218.472937c-4.772707 3.245744-10.059395 5.574201-15.518756 6.627222-64.447271 12.430823-123.109675 21.652888-179.625725 26.431259-62.540721 5.28775-119.410954-1.106782-167.106312-15.963866-2.14101-.666924-6.711381-2.080263-11.328751-3.50643l-.710414-.219412c-.236714-.073105-.47323-.146146-.709228-.219021l-.706113-.218037c-5.513996-1.702546-10.563942-3.259813-10.980109-3.38784-2.214925-.684841-4.241385-1.313112-6.17912-1.915892-22.875889-7.116103-37.794614-12.080879-48.135582-16.249731zm77.043386-63.980526-.568397.058627-.039801.003934c-24.339256 2.406013-39.366238 4.131418-45.080948 5.176215-23.724089 4.337381-31.316449 11.909039-31.354555 29.109246-.000008.003676-.000016.007353-.000023.01103l-.001889 4.113606c.690838.901406 1.52179 1.896326 2.42249 2.902101 1.012874 1.131035 2.054413 2.2084 2.90247 3.012959.097305.092313.189231.178305.274623.257098l.028592.025533.202888.085375c9.49207 3.951465 24.220465 8.894605 47.424931 16.121192l.822506.256006c1.926269.599213 3.942215 1.224225 6.144034 1.9051l.032328.009863c.602971.185636 5.779368 1.781948 11.331679 3.496426l.681468.210439 1.067373.329652c.355898.109927.71154.219785 1.065841.32924l.706491.218272c3.989665 1.232707 7.71401 2.384975 9.591924 2.969945 45.248885 14.095009 99.528572 20.198258 159.473251 15.13 55.655731-4.705632 113.714322-13.832774 177.522838-26.140391 7.120077-1.373346 14.59591-7.727774 18.121352-15.210772-2.282207-12.805826-8.721625-14.797356-26.198745-20.926566-8.828535-3.096159-24.282999-8.580268-46.362671-16.453326l-.431144-.153738.149111.654838c1.100457 4.984108 1.942212 10.067367 2.51036 15.236467.869589 7.911654-3.034832 15.58589-9.941886 19.541022-36.150305 20.700462-85.705016 32.43063-138.468435 32.43063-52.761761 0-102.316754-11.729512-138.467175-32.427388-6.907562-3.954916-10.812418-11.629392-9.942866-19.541386.85621-7.790596 2.333878-15.386201 4.381985-22.741249zm144.314377-87.4314737.279855-.0003023c-56.784345 0-105.017694 35.6816011-122.385221 85.296048l-.596812.055196c-3.009707 8.620224-5.086711 17.660477-6.113887 27.006685 31.993514 18.317845 77.736856 29.78387 128.529744 29.78387 50.792589 0 96.535691-11.46589 128.530045-29.786563-6.932562-63.0735186-61.681399-112.2143794-128.243724-112.3549337z"/></svg>