<svg height="960" viewBox="0 0 960 960" width="960" xmlns="http://www.w3.org/2000/svg"><g fill="#000" fill-rule="evenodd"><path d="m568.582745 2c3.6416 0 7.616988.05339287 11.395263.1454701l1.019018.02620855 1.35318.03900171c3.28158.10069543 6.234444.23590094 8.857212.4188008l1.28387.09548549c6.683755.52977497 10.520391 1.08587538 16.328572 3.36311026l-.053526-.02095557 7.490766 2.73794238c2.786146 1.01185914 6.140383 2.22660988 9.776836 3.54096448l21.282726 7.666005 6.193735 2.2047736c8.870437 3.1801784 15.560609 8.6714188 20.72012 15.3765452 2.438291 3.1687209 4.497131 6.5993018 6.224557 10.2537515l.149201.3218965 170.228823 6.4098155c38.415865 1.459639 68.908526 32.8416848 69.263275 71.2806895l6.637574 712.809139c.338346 37.108005-27.577467 68.399526-64.484948 72.275042l-454.623046 47.726927c-34.21052 3.485912-54.413338.267397-75.006707-11.905882-2.012005-1.189348-3.905116-2.377663-6.352165-3.962081l-4.63254-3.006712-1.671692-1.067273c-10.80616-6.850008-61.274797-38.326866-150.870572-94.095721l-101.0369148-62.870007c-21.513831-13.375909-34.2688791-37.202136-33.4728826-62.525155l17.8845603-567.571309c.84229-26.826359 19.9803632-49.570942 46.2623183-54.9850936 139.2521028-28.7081151 218.2653968-44.7686072 238.7172408-48.5105566l1.729595-.3118517c16.54389-2.9294375 23.609783-4.1811581 28.514343-4.9583275l3.387493-.5126982 2.212303-.3074763c.675158-.0910262 1.372238-.18283 2.117988-.27981l4.732814-.6043862c11.910194-1.4652613 23.16528-2.1962729 35.330368-2.1962108l.352184.0006729c2.364443.0079853 6.473828.0905889 12.416451.2491098l8.523137.2431552.638807-.6693739c6.052213-6.3004817 11.129962-10.5554193 18.364123-13.8600506l.62594-.2811801c10.217118-4.5132442 21.97751-10.1756399 35.242537-16.97795445l2.428394-1.2493435c5.67226-2.92758815 11.96279-4.45509745 18.345995-4.45509745zm-158.359141 77.0553505-.544523.0098321c-.029472.0006776-.058937.0013605-.088393.0020485-2.642111 1.3603297-5.626322 2.148017-8.789319 2.2014372l-.34449.0029071c-3.381927 0-8.175405 1.499913-11.544153 4.0588666-3.8521 2.9261147-5.993714 7.0777922-6.083102 14.0395945l-.002917.458031c0 26.2231855-19.536083 771.8334415-20.834266 802.5463045l-.033717.710391c-.185505 3.230533.347062 6.615544 1.37698 9.413573.242492.658791.491686 1.225351.717106 1.666783l.111271.211456.228066.197614c1.303689 1.146523 2.427975 2.436093 3.365168 3.82872 6.38378 1.455518 14.394496 1.986388 25.810975 1.299637-.117632-.781228-.145078-1.588506-.070958-2.410042l.893754-9.972478c14.450483-162.329562 21.672802-297.501379 21.672802-405.478601l-.005456-10.047976c-.115362-107.188511-2.060184-244.771612-5.834828-412.7380985zm20.008505.2641663.239851 10.6409893c3.727828 168.2139619 5.591928 305.5037659 5.591928 411.8809189 0 110.575022-7.513388 249.225247-22.533997 415.989531l419.948137-44.086163c-.266612-1.031296-.37169-2.123104-.288502-3.244406l.739866-10.030245c11.956105-163.036353 17.621582-287.31389 17.002359-372.747542-.631929-87.186838-8.419995-218.261416-23.368567-393.1252121-.02508-.2933684-.037227-.5848593-.036915-.8739104-23.775633-.9001864-46.52576-1.7594941-68.250958-2.5774852l-111.28613-4.1614217-.001762-.0217524c-90.716317-3.3667711-155.154645-5.6734741-193.314985-6.9201089l-.01437.0298317c-9.971517-.3247597-18.113502-.5757677-24.425955-.7530242zm-349.0338197 430.5974832-6.6356533 210.580584c-.3474731 11.054152 5.22059 21.456155 14.6128775 27.295672 120.4362895 74.922276 198.1443625 123.316927 233.1242205 145.183952l-.001502.013842c1.029795-32.98131 4.532905-163.051869 8.360857-308.645652zm766.4272327-415.4311021-.13502-1.5920356c14.9892 175.3390537 22.804232 306.8674737 23.440724 394.6837817.636181 87.773344-5.290602 215.776527-17.774062 384.09977l4.915361-.515094c1.368079-.143657 2.708362-.372076 4.015879-.679686 13.877104-3.716686 23.830349-16.422835 23.693853-31.205387l-6.630671-713.096707c-.154401-16.75878-13.196306-30.498606-29.807757-31.6302606l-.029464-.0003062c-.563495-.0213805-1.126442-.0427389-1.688843-.0640753zm-201.118777 64.4032751c101.867951 0 183.95193 92.144412 183.95193 205.271944s-82.083979 205.271943-183.95193 205.271943c-101.86795 0-183.951929-92.144411-183.951929-205.271943s82.083979-205.271944 183.951929-205.271944zm-302.597242-71.2370747-.521154.0968522c-19.560874 3.6311122-86.080979 17.1251235-199.560318 40.4820345l-37.022148 7.626532c-8.1580139 1.680572-14.0971512 8.739038-14.358545 17.064252l-10.6108066 336.728244c.924254.006462 1.8631095.142189 2.7933803.419711l246.5731713 73.563992c5.476564-208.723219 11.404334-441.019829 11.617689-462.814342l.005935-.9913065c0-4.2384492.368451-8.3026414 1.082796-12.1759692zm302.597242 91.2370747c-90.274045 0-163.951929 82.708043-163.951929 185.271944 0 102.5639 73.677884 185.271943 163.951929 185.271943 90.274046 0 163.95193-82.708043 163.95193-185.271943 0-102.563901-73.677884-185.271944-163.95193-185.271944zm-77.990882-136.889173h-56.107218c-14.364321 7.4137676-27.200199 13.6385881-38.507633 18.6744615 38.598748 1.3096703 95.610744 3.3635834 171.18869 6.1667084-1.60733-4.2671616-3.593315-6.4625959-5.157363-6.9986975l-1.661305-.5853248-26.42033-9.5049284-10.601006-3.8415135c-2.329287-.8469666-4.238896-1.5443209-5.502558-2.0105762l-1.640397-.6132741c-1.539408-.5302646-6.157579-.8518376-11.365125-1.0409147l-2.436268-.0781359-2.059933-.0520538c-2.355249-.0530527-4.688428-.0845314-6.786176-.1009669z" fill-rule="nonzero"/><path d="m593.103472 245h115.650199c4.297102 0 7.826642 3.394703 7.993935 7.688548l5.142857 132c.17201 4.414928-3.267555 8.133377-7.682483 8.305387-.103768.004043-.207605.006065-.311452.006065h-115.650199c-4.297102 0-7.826642-3.394703-7.993935-7.688548l-5.142857-132c-.17201-4.414928 3.267555-8.133377 7.682483-8.305387.103768-.004043.207605-.006065.311452-.006065z"/></g></svg>