<svg height="960" viewBox="0 0 960 960" width="960" xmlns="http://www.w3.org/2000/svg"><g fill="#000" fill-rule="evenodd"><path d="m561 446c36.450793 0 66 29.549207 66 66v380c0 36.450793-29.549207 66-66 66h-153c-36.450793 0-66-29.549207-66-66v-380c0-36.450793 29.549207-66 66-66zm-76.199071-408.9957792c260.678401 0 472 211.3215982 472 472.0000002 0 181.251983-103.093451 344.04033-262.60995 423.124705-9.896236 4.906312-21.896071.861179-26.802383-9.035057-4.906311-9.896236-.861179-21.896072 9.035057-26.802383 146.025385-72.395811 240.377276-221.380915 240.377276-387.287265 0-238.587012-193.412989-432.0000002-432-432.0000002-238.587012 0-432.0000005 193.4129882-432.0000005 432.0000002 0 163.651671 91.7932045 310.947033 234.7575395 384.449739 9.823411 5.050542 13.692586 17.108263 8.642045 26.931674-5.050542 9.823411-17.108263 13.692587-26.931674 8.642045-156.168435-80.291373-256.4679105-241.236265-256.4679105-420.023458 0-260.678402 211.3215985-472.0000002 472.0000005-472.0000002zm76.199071 448.9957792h-153c-14.359403 0-26 11.640597-26 26v380c0 14.359403 11.640597 26 26 26h153c14.359403 0 26-11.640597 26-26v-380c0-14.359403-11.640597-26-26-26zm-76.199071-321.995779c190.538238 0 345 154.461761 345 345 0 106.45236-48.546691 204.959202-130.225654 270.010362-8.640286 6.881339-21.22305 5.455431-28.104389-3.184855-6.881339-8.640287-5.455431-21.22305 3.184856-28.10439 72.248985-57.540891 115.145187-144.582239 115.145187-238.721117 0-168.446849-136.553152-305-305-305-168.446849 0-305 136.553151-305 305 0 93.883042 42.66159 180.712812 114.576659 238.267225 8.623931 6.901825 10.019973 19.487938 3.118147 28.111868-6.901825 8.623931-19.487938 10.019973-28.111868 3.118147-81.301503-65.066478-129.582938-163.334401-129.582938-269.49724 0-190.538239 154.461761-345 345-345z" fill-rule="nonzero"/><rect height="472" rx="46" width="245" x="362" y="466"/></g></svg>