<svg height="960" viewBox="0 0 960 960" width="960" xmlns="http://www.w3.org/2000/svg"><path d="m580.498768 3c31.749101 0 57.501232 25.7292592 57.501232 57.4856882v15.4873118l.226888.2325876c4.810991 4.9207898 10.216182 10.1496831 17.14941 16.6543208l.675759.6334961c2.27894 2.1347945 10.933405 10.1893735 12.922077 12.0504215 12.506324 11.703725 20.890548 19.988857 29.077045 29.060126 37.32588 41.359951 68.17158 85.607855 85.276138 122.025581 19.591442 41.71261 34.780573 89.709878 45.277257 140.101351 9.134956 43.854223 14.33619 88.059747 15.108669 124.994893.931057 44.51729-.322111 73.739659-6.109109 106.829597-7.362412 42.098126-21.831179 83.428501-45.617488 127.366857-30.449905 56.247432-76.11234 104.604129-136.437641 145.03743l-1.893005 1.261339-.004111.580823c-.366348 24.417148-17.077465 46.39254-41.750545 52.511109l-.884552.211756c-3.383545.781072-6.833298 1.239914-10.311313 1.370855-54.397247 2.036702-93.772816 3.07266-118.42891 3.104457h-5.604776c-24.604456-.031797-63.980025-1.067755-118.385541-3.104767-3.469746-.130631-6.919499-.589473-10.303044-1.370545-25.157431-5.807448-42.264388-28.015037-42.635574-52.720796l-.004634-.582892-1.892005-1.261339c-59.639786-39.973831-104.94806-87.692005-135.393684-143.122961l-1.043957-1.914469c-23.786309-43.938356-38.255076-85.268731-45.617488-127.366857-4.605978-26.336889-6.339838-50.223728-6.386258-81.322304l-.000263-2.406585c.009078-7.263406.106401-14.924063.277412-23.100708.772479-36.935146 5.973713-81.14067 15.108669-124.994893 10.496684-50.391473 25.685815-98.388741 45.277257-140.101351 17.104558-36.417726 47.950258-80.66563 85.276138-122.025581 8.186497-9.071269 16.570721-17.356401 29.077045-29.060126 1.988672-1.861048 10.643137-9.915627 12.922077-12.0504215 5.620372-5.2648763 10.245594-9.695039 14.352303-13.7843752l1.01615-1.0155193c.83825-.8408253 1.655718-1.6686442 2.456716-2.4879224l.226888-.2335876v-15.4863118c0-31.4388647 25.239663-56.9705003 56.550578-57.4856882zm-234.763981 895.573235.003655-.013168c-1.863144 8.072041 3.169934 16.126242 11.241922 17.989614.923016.213073 1.86414.338231 2.810759.37387 53.950556 2.019977 92.927992 3.04546 116.932308 3.076449h5.553138c24.004316-.030989 62.981752-1.056472 116.932308-3.076449.946619-.035639 1.887743-.160797 2.810759-.37387 8.009562-1.848961 13.027036-9.793366 11.283913-17.80234-19.613747 3.451282-39.480325 5.176691-59.59313 5.176691h-147.399329c-20.448941 0-40.643357-1.783563-60.576303-5.350797zm-190.518075-372.979314-.015411.830869c-1.180872 63.089164 1.435192 126.308301 46.988301 210.454555 29.919438 55.267546 76.694844 102.480304 140.326218 141.638273 1.327912-.320009 2.741912-.370318 4.169982-.102742 19.601623 3.67273 39.474072 5.509156 59.625288 5.509156h147.399329c19.521491 0 38.781365-1.723443 57.786842-5.170218l1.838446-.338938c1.153944-.216213 2.298702-.224868 3.395805-.052293 63.505829-39.125902 110.198407-86.287658 140.078886-141.483238 45.682135-84.384591 48.183648-147.723348 46.978176-210.990636-19.528222 5.54424-52.302531 8.186922-98.951036 8.186922h-449.653567c-47.467134 0-80.568846-2.736248-99.967259-8.48171zm325.42507-436.4173451-4.631853.0002026c-37.027777.015158-73.067928.3552271-83.739341 1.0227415l-1.078115.0687308c-11.231062.7298613-19.846402 1.7343284-25.64669 2.9377148-1.673941.3472926-2.996687.6881753-3.921077.9814227l-.014856.0041737-.263269.2247419c-1.817003 1.5083657-3.801119 2.6147696-5.864454 3.3498965-.015536.0170164-.032166.0349365-.048828.0528466-21.26724 22.860104-45.10681 41.774377-64.789126 63.5839-36.010936 39.902892-64.025974 80.84802-78.766038 112.231444-35.394198 75.35864-52.234263 167.05659-55.906876 231.432545.759103.074326 1.520132.24024 2.271214.500908 16.027363 5.562401 48.606701 8.507787 96.941498 8.507787l224.706782.000435 224.946785-.000435c47.851449 0 80.260973-2.886773 96.455712-8.3417l.485786-.166087c.417047-.144739.837162-.260264 1.258113-.347656-3.653616-64.379901-20.492272-156.16581-55.915284-231.585797-14.740064-31.383424-42.755102-72.328552-78.766038-112.231444-19.682316-21.809523-43.521886-40.723796-64.789126-63.5839-.219267-.2356892-.432846-.4730941-.640737-.7122148-1.483992-.6867732-2.912836-1.579636-4.251036-2.6905283l-.263078-.2247419-.183426-.0567918c-.806244-.2478213-1.889748-.5282957-3.22233-.8164743l-.369586-.0787665c-5.672345-1.1914795-14.106749-2.1919927-25.087532-2.9238888l-.719939-.0473898c-10.99343-.7144186-49.575014-1.079265-88.187255-1.0916749zm99.856986-46.1765759h-201.997536c-9.665664 0-17.501232 7.8286093-17.501232 17.4856882l-.000094 13.2389553c6.896162-1.4724785 16.528023-2.6105766 28.895583-3.4142943l1.102391-.0702935c10.97616-.686584 47.372248-1.0431924 84.806985-1.0626493l4.682988-.0006756c1.171218.0002703 2.342457.0008702 3.512975.0017999l2.339853.0022991 2.336606.0031788c36.18538.0560918 70.723698.429364 81.448733 1.1263406l.736419.0484676c11.420497.7611969 20.466534 1.8126206 27.138109 3.154271l-.000548-13.0273996c0-9.6570789-7.835568-17.4856882-17.501232-17.4856882z"/></svg>