<svg width="960" height="960" viewBox="0 0 960 960" fill="none" xmlns="http://www.w3.org/2000/svg">
<path d="M351.732 30.2207C378.783 21.2034 406.144 16.1986 428.038 19.0479C439.096 20.487 450.643 24.1767 459.674 32.3047C469.319 40.9854 474 52.8455 474 65.9854V898.312C474 914.932 462.58 926.155 450.985 932.171C439.254 938.258 424.083 941.15 407.176 941.244C373.043 941.435 326.774 930.289 272.613 901.515C247.057 887.937 233.011 861.08 233.062 833.667L234.372 130.058C234.426 100.794 250.547 73.1096 278.014 60.248C299.017 50.414 325.873 38.8407 351.732 30.2207ZM610.929 57.5293C636.306 49.0589 662.12 44.3016 682.887 47.0078C693.384 48.3757 704.472 51.8978 713.182 59.748C722.504 68.1489 727 79.6122 727 92.2256V871.767C727 887.868 716.006 898.708 704.999 904.487C693.878 910.326 679.592 913.085 663.812 913.239C631.938 913.551 588.895 903.318 538.613 876.878C512.974 863.396 499 836.54 499 809.232V154.217C499 124.892 515.196 97.0896 543.042 84.5234C562.795 75.6095 587.538 65.3372 610.929 57.5293ZM422.876 58.7129C409.751 57.0048 389.139 59.9151 364.382 68.168C350.991 72.6316 337.132 78.0208 323.964 83.5693C313.393 90.4818 307 102.074 307 114.504V855.882C307 864.785 310.958 873.169 317.681 878.985C355.416 895.613 385.834 901.362 406.952 901.244C420.023 901.171 428.32 898.867 432.562 896.666C433.176 896.347 433.645 896.069 434 895.839V201.436C425.499 201.842 416.962 200.218 409.123 196.613L363.971 175.852C350.275 169.553 347.539 151.272 358.792 141.24C363.496 137.047 369.84 135.198 376.06 136.208L434 145.616V65.9854C434 62.8145 433.164 62.2604 432.915 62.0361C432.052 61.2593 429.326 59.5524 422.876 58.7129ZM677.719 86.6729C665.732 85.1109 646.676 87.7672 623.594 95.4717C614.068 98.6514 604.206 102.307 594.528 106.135L591.226 107.74C579.471 113.452 572 125.389 572 138.483V830.375C572 841.491 578.507 851.568 588.615 856.132C588.716 856.177 588.814 856.227 588.913 856.275C620.233 869.004 645.549 873.416 663.422 873.241C675.359 873.124 682.765 870.984 686.406 869.072C686.628 868.956 686.824 868.846 687 868.745V92.2256C687 90.6766 686.744 89.9849 686.677 89.8223C686.628 89.7054 686.589 89.6293 686.403 89.4619C685.859 88.9719 683.598 87.4391 677.719 86.6729ZM288.86 100.158C279.914 106.903 274.395 117.876 274.372 130.133L273.062 833.741C273.039 846.235 278.651 857.349 287.639 863.855C287.219 861.247 287 858.583 287 855.882V114.504C287 109.587 287.642 104.775 288.86 100.158ZM553.92 124.178C544.717 130.702 539 141.733 539 154.217V809.232C539 821.34 544.257 832.08 552.7 838.569C552.239 835.891 552 833.152 552 830.375V138.483C552 133.578 552.662 128.774 553.92 124.178ZM372.854 155.95C372.583 155.906 372.306 155.987 372.1 156.17C371.934 156.319 371.872 156.44 371.84 156.535C371.799 156.652 371.779 156.809 371.805 156.986C371.832 157.164 371.898 157.308 371.97 157.408C372.03 157.489 372.124 157.587 372.327 157.681L417.478 178.442C422.677 180.833 428.367 181.832 434 181.401V165.878L372.854 155.95Z" fill="black"/>
</svg>
