<svg height="960" viewBox="0 0 960 960" width="960" xmlns="http://www.w3.org/2000/svg"><path d="m233.248188 335.295276c15.472403 0 28.669772 3.002828 40.65173 8.861114 8.914604 4.358578 15.032658 8.782203 25.918197 17.8056.220718.182961 1.136379.94238 1.372268 1.137908 8.919776 7.393552 13.345611 10.570976 19.071037 13.318563 7.223571 3.466535 15.429424 5.282036 26.215504 5.282036 11.12668 0 20.803261-1.960346 30.474734-5.823769.250239-.099962.498849-.200245.746111-.300992l.738026-.303773c7.10061-2.952653 13.304408-6.414316 25.467474-13.842629.793289-.48455 1.224136-.74771 1.592382-.972525 14.138435-8.631549 21.752608-12.811839 31.83626-16.842661 13.676194-5.466897 27.675924-8.318872 43.168089-8.318872 15.959455 0 30.225513 3.028393 43.956275 8.825823 10.075268 4.254001 17.424704 8.562269 31.306008 17.636024l.021828.014275c.198383.129713 1.517015.991835 1.907835 1.247154 11.152826 7.286024 16.87089 10.629699 23.608637 13.481041 8.17967 3.461548 16.299376 5.200904 25.660561 5.200904 15.602163 0 24.052461-3.780271 40.333472-16.032129.310244-.233466.999496-.753807 1.737745-1.311283l.495803-.374412c.826365-.624052 1.622683-1.225435 1.936264-1.461569 11.802096-8.887257 19.561032-13.870056 29.977993-18.348768 13.630755-5.860465 28.674072-8.87706 46.309391-8.87706h21.134015c59.838096 0 108.346456 48.508361 108.346456 108.346456v385.511811c0 59.838096-48.50836 108.346457-108.346456 108.346457h-536.771654c-59.838096 0-108.346456-48.508361-108.346456-108.346457v-385.511811c0-59.838095 48.50836-108.346456 108.346456-108.346456zm0 40h-21.134015c-37.746706 0-68.346456 30.599751-68.346456 68.346456v385.511811c0 37.746706 30.59975 68.346457 68.346456 68.346457h536.771654c37.746706 0 68.346456-30.599751 68.346456-68.346457v-385.511811c0-37.746705-30.59975-68.346456-68.346456-68.346456h-21.134015c-12.270576 0-21.93581 1.938143-30.510011 5.624571-6.772095 2.911623-12.272809 6.444189-21.715583 13.554821-.619369.4664-3.413562 2.57817-4.179996 3.154931-10.468192 7.877569-17.248823 12.290579-26.042635 16.224521-11.586149 5.183105-24.052688 7.846377-38.342443 7.846377-14.87208 0-28.266082-2.869185-41.249669-8.363698-9.56794-4.049049-16.842108-8.302667-29.896444-16.830927-.399482-.260978-1.736595-1.135184-1.921038-1.255783l-.017491-.01144c-11.95232-7.812841-17.773261-11.225099-24.979104-14.267565-8.919238-3.765899-17.916377-5.675808-28.397398-5.675808-10.251615 0-19.238726 1.830822-28.320844 5.461292-7.387357 2.953009-13.53528 6.328307-25.840636 13.840757-.363948.222191-.790278.482592-1.586796.969114-14.854558 9.07208-22.482653 13.270235-32.961546 17.456195-14.273826 5.701906-28.963627 8.677863-45.313254 8.677863-16.697326 0-30.821394-3.124875-43.521585-9.219596-9.5041-4.560943-15.991085-9.218122-27.291566-18.585027-.24154-.20021-1.157686-.960034-1.372998-1.138513-8.560703-7.09626-12.721582-10.104761-17.960327-12.666117-6.465686-3.16124-13.650286-4.795968-23.08226-4.795968zm136.14945 346.921259c15.894494 0 28.779527 12.885034 28.779527 28.779528s-12.885033 28.779528-28.779527 28.779528-28.779528-12.885034-28.779528-28.779528 12.885034-28.779528 28.779528-28.779528zm267.047244 10.708662c9.610624 0 17.401575 7.79095 17.401575 17.401575 0 9.610624-7.790951 17.401574-17.401575 17.401574s-17.401575-7.79095-17.401575-17.401574c0-9.610625 7.790951-17.401575 17.401575-17.401575zm-67.598425-89.68504c15.894494 0 28.779527 12.885034 28.779527 28.779528s-12.885033 28.779528-28.779527 28.779528-28.779528-12.885034-28.779528-28.779528 12.885034-28.779528 28.779528-28.779528zm-276.417323-57.559055c31.788988 0 57.559055 25.770067 57.559055 57.559055 0 31.788989-25.770067 57.559056-57.559055 57.559056s-57.559055-25.770067-57.559055-57.559056c0-31.788988 25.770067-57.559055 57.559055-57.559055zm373.464567-92.362204c31.788988 0 57.559055 25.770066 57.559055 57.559055 0 31.788988-25.770067 57.559055-57.559055 57.559055-31.788989 0-57.559055-25.770067-57.559055-57.559055 0-31.788989 25.770066-57.559055 57.559055-57.559055zm-267.716536 57.559055c9.610625 0 17.401575 7.79095 17.401575 17.401575 0 9.610624-7.79095 17.401574-17.401575 17.401574-9.610624 0-17.401574-7.79095-17.401574-17.401574 0-9.610625 7.79095-17.401575 17.401574-17.401575zm176.519685-313.629922c24.300529 0 44-19.699471 44-44 0-24.300528-19.699471-44-44-44s-44 19.699472-44 44c0 24.300529 19.699471 44 44 44zm-119.425196 65.937008c18.225396 0 33-14.774603 33-33 0-18.225396-14.774604-33-33-33-18.225397 0-33 14.774604-33 33 0 18.225397 14.774603 33 33 33zm-33-144.566929c31.788988 0 57.559055-25.770067 57.559055-57.559055 0-31.7889882-25.770067-57.559055-57.559055-57.559055-31.788989 0-57.559056 25.7700668-57.559056 57.559055 0 31.788988 25.770067 57.559055 57.559056 57.559055z"/></svg>