<?xml version="1.0" encoding="utf-8"?>
<!-- Generator: Adobe Illustrator 20.0.0, SVG Export Plug-In . SVG Version: 6.00 Build 0)  -->
<svg version="1.1" id="Layer_1" xmlns="http://www.w3.org/2000/svg" xmlns:xlink="http://www.w3.org/1999/xlink" x="0px" y="0px"
	 viewBox="0 0 410.06 441.13" style="enable-background:new 0 0 410.06 441.13;" xml:space="preserve">
<g>
	<path d="M271.38,380.32c16.99-11.12,32.05-25.17,44.69-41.36c18.9-24.21,32.38-53.23,38.74-84.53c0.33-1.61,0.63-3.22,0.92-4.82
		c1.47-8.2,2.43-16.38,2.91-24.49c5.44-91.98-51.29-175.63-136.3-193.82c-10.68-2.29-21.46-3.46-32.22-3.55
		c-25.55-0.21-50.98,5.7-74.57,17.41c-6.21,3.08-12.29,6.56-18.21,10.44c-14.57,9.54-27.73,21.22-39.16,34.57
		c-21.81,25.48-37.31,57.03-44.28,91.32C-7.03,284.4,52.4,384.5,146.38,404.62c11.11,2.38,22.34,3.55,33.54,3.55
		C211.75,408.17,243.34,398.67,271.38,380.32z M98.56,59.73c24.83-16.25,52.66-24.64,80.62-24.64c10.16,0,20.35,1.11,30.41,3.36
		c5.35,1.19,10.58,2.69,15.67,4.46c2.55,0.89,5.06,1.84,7.54,2.86c2.48,1.02,4.92,2.11,7.33,3.27c3.61,1.73,7.15,3.62,10.59,5.64
		c1.15,0.67,2.29,1.36,3.42,2.07c48.6,30.29,79.45,88.73,79.9,153.05c0.09,13.46-1.15,27.18-3.83,40.96
		c-9.96,51.05-38.68,95.39-78.8,121.63c-7.98,5.22-16.27,9.62-24.77,13.2c-27.58,11.62-57.42,14.53-86.27,8.09
		c-2.68-0.6-5.32-1.27-7.93-2.01s-5.19-1.56-7.74-2.45c-1.27-0.44-2.54-0.9-3.8-1.38c-2.51-0.96-4.99-1.98-7.44-3.07
		c-1.22-0.55-2.44-1.11-3.64-1.68c-67.45-32.37-106.8-116-90.08-201.71C29.71,130.31,58.44,85.97,98.56,59.73z"/>
	<path d="M378.03,97.47C348.67,48.58,303.06,15.43,249.6,4.12c-1.6-0.34-3.2-0.65-4.8-0.95c-0.48-0.09-0.96-0.16-1.44-0.25
		c-1.11-0.2-2.23-0.4-3.34-0.57c-1.09-0.17-2.19-0.33-3.28-0.48c-0.48-0.07-0.97-0.15-1.45-0.21c-1.71-0.23-3.43-0.44-5.14-0.62
		l0,0.01c-44.36-4.68-89.25,6.36-128.24,31.89C77.74,48.77,57.05,69.24,40.43,93.76c-17.2,25.38-29.13,53.81-35.45,84.51
		c-11.9,57.79-2.29,116.52,27.05,165.38c29.36,48.89,74.97,82.04,128.43,93.34c10.69,2.26,21.46,3.57,32.23,3.97v0.03
		c2.38,0.09,4.75,0.14,7.13,0.14c2.23,0,4.45-0.05,6.68-0.13c0.21-0.01,0.42-0.01,0.63-0.02c0.92-0.04,1.84-0.08,2.76-0.13
		c0.42-0.02,0.83-0.05,1.25-0.07c0.8-0.05,1.6-0.1,2.4-0.16c0.64-0.05,1.27-0.1,1.9-0.15c0.61-0.05,1.22-0.1,1.83-0.15
		c1.3-0.12,2.61-0.25,3.91-0.4c0.01,0,0.01,0,0.02,0c1.38-0.16,2.76-0.33,4.15-0.52c0.08-0.01,0.17-0.02,0.25-0.03
		c28.01-3.82,55.34-13.84,80.32-29.75c0.13-0.08,0.26-0.17,0.39-0.25c0.61-0.39,1.23-0.78,1.84-1.18c0.31-0.2,0.6-0.41,0.91-0.61
		c0.71-0.47,1.42-0.95,2.13-1.43c0.66-0.45,1.33-0.9,1.99-1.36c0.63-0.44,1.25-0.89,1.88-1.33c3.03-2.16,6-4.39,8.92-6.7
		c0.09-0.07,0.18-0.14,0.26-0.21c17.37-13.81,32.6-30.28,45.4-49.17c14.41-21.26,25.1-44.67,31.92-69.76
		c0.08-0.28,0.15-0.57,0.23-0.85c0.33-1.25,0.66-2.5,0.98-3.76c0.18-0.73,0.36-1.46,0.53-2.19c0.22-0.92,0.45-1.85,0.66-2.77
		c0.35-1.52,0.68-3.05,1-4.58c0.04-0.2,0.09-0.4,0.13-0.6c2.97-14.45,4.61-28.95,4.92-43.35
		C410.94,176.31,400.04,134.11,378.03,97.47z M7.75,178.84c6.25-30.33,18.03-58.42,35.02-83.49c16.41-24.21,36.83-44.41,60.7-60.03
		c32.69-21.4,69.57-32.48,106.75-32.48c6.55,0,13.11,0.35,19.66,1.04c1.63,0.3,3.27,0.63,4.88,0.97
		c108.78,23.11,177.55,138.22,153.29,256.6c-10,48.8-35.24,93.28-71.08,125.25c-35.21,31.42-79.24,49.68-124.02,51.45
		c-10.66-0.39-21.33-1.69-31.92-3.93C52.26,411.22-16.51,296.66,7.75,178.84z"/>
	<path d="M147.3,310.19c5.37,1.2,10.8,1.79,16.22,1.79c14.91,0,29.75-4.48,42.98-13.13c21.28-13.92,36.5-37.39,41.78-64.4
		c10.14-51.9-18.65-102.37-64.17-112.52c-20.13-4.49-41.16-0.46-59.2,11.34c-21.27,13.92-36.5,37.39-41.78,64.4
		C73,249.56,101.78,300.04,147.3,310.19z M84.52,197.94c5.2-26.64,20.21-49.78,41.16-63.49c13-8.5,27.57-12.9,42.21-12.9
		c5.32,0,10.64,0.58,15.9,1.75c44.78,9.98,73.08,59.72,63.09,110.87c-5.2,26.64-20.21,49.78-41.16,63.49
		c-17.72,11.59-38.36,15.55-58.12,11.15C102.83,298.82,74.53,249.09,84.52,197.94z"/>
	<path d="M161.65,238.72c0.31,0.01,0.62,0.02,0.93,0.02c5.64,0,10.99-2.25,15.14-6.4c4.3-4.29,6.73-10.02,6.85-16.13
		c0.12-5.95-1.99-11.55-5.94-15.75c-0.65-0.69-1.35-1.34-2.08-1.94c-0.16-0.13-0.32-0.25-0.48-0.37c-1.15-0.88-2.79-0.65-3.67,0.5
		c-0.88,1.15-0.65,2.79,0.5,3.67c0.12,0.09,0.24,0.18,0.35,0.28c0.55,0.44,1.07,0.93,1.56,1.45c3.01,3.2,4.61,7.49,4.52,12.07
		c-0.09,4.75-1.98,9.2-5.31,12.53c-3.34,3.33-7.65,5.05-12.15,4.86c-4.42-0.19-8.42-2.23-11.25-5.72
		c-2.78-3.43-4.08-7.85-3.66-12.46c0.4-4.48,2.4-8.61,5.63-11.64c0.68-0.64,1.41-1.22,2.17-1.73c0.28-0.19,0.56-0.37,0.85-0.54
		c1.25-0.73,1.66-2.34,0.93-3.58c-0.73-1.25-2.34-1.66-3.58-0.93c-0.38,0.22-0.75,0.46-1.12,0.71c-0.99,0.67-1.95,1.43-2.83,2.25
		c-4.16,3.9-6.74,9.22-7.26,14.99c-0.54,5.97,1.17,11.73,4.81,16.22C150.34,235.74,155.7,238.46,161.65,238.72z"/>
	<path d="M163.67,210.48c0.02,0,0.04,0,0.06,0c1.3,0,2.4-1.07,2.46-2.41l0.86-18.29c0.03-0.62-0.19-1.21-0.61-1.66
		c-0.42-0.45-1-0.7-1.62-0.7c-0.01,0-0.01,0-0.02,0c-1.26,0-2.35,1.03-2.42,2.3l-0.99,18.24c-0.04,0.67,0.19,1.3,0.63,1.79
		C162.45,210.2,163.04,210.46,163.67,210.48z"/>
</g>
</svg>
