<?xml version="1.0" encoding="UTF-8"?>
<svg width="960px" height="960px" viewBox="0 0 960 960" version="1.1" xmlns="http://www.w3.org/2000/svg" xmlns:xlink="http://www.w3.org/1999/xlink">
    <title>com.innr/drivers/pedestal/assets/icon</title>
    <g id="com.innr/drivers/pedestal/assets/icon" stroke="none" stroke-width="1" fill="none" fill-rule="evenodd">
        <path d="M471.44633,4.65473228 L474.106323,4.67567097 L476.749991,4.70386516 L479.376419,4.74382072 L481.984691,4.79547304 C483.139753,4.82101933 484.289164,4.85001219 485.432562,4.8824261 L487.143105,4.93360957 L489.691417,5.01996459 L492.21791,5.11775798 L494.09791,5.1985706 L495.964737,5.28575371 L498.432679,5.41186043 L500.875598,5.54917943 L503.292579,5.69764611 L505.682706,5.85719589 L508.045063,6.02776416 L510.378736,6.20928632 L512.682808,6.40169779 L513.823457,6.50196682 L514.956363,6.60493395 L517.198487,6.81893022 C522.678124,7.35888047 527.863764,7.99603959 532.693955,8.72607202 L533.894062,8.91051248 L535.66364,9.19398228 C537.298179,9.4623764 538.884785,9.74148274 540.422274,10.0313836 L541.566162,10.2508345 L543.168117,10.571373 C549.763697,11.9242246 555.36604,13.4932047 559.869719,15.2856332 C563.786562,16.8445059 567.032988,18.6215752 569.651413,20.8157143 C573.657429,24.1726021 576.279466,28.5709436 576.403122,33.9706013 L576.408327,34.2273418 L576.42126,35.4251272 L576.42126,37.2788918 L576.406098,39.47642 L576.387478,53.9284735 L576.264863,180.844181 L575.548,895.532 L575.554886,895.90868 C575.74112,916.27886 562.475274,932.122649 539.785075,942.481418 L539.094612,942.79364 L538.384138,943.108767 C526.897703,948.153981 512.979986,951.908603 497.231487,954.338904 L496.103488,954.510245 L494.108828,954.800065 C492.605761,955.012221 491.086858,955.212649 489.552617,955.401322 L488.013282,955.586076 L485.945122,955.820213 C483.729588,956.062517 481.483817,956.281001 479.209243,956.475582 L477.497934,956.617035 L475.343815,956.781235 C469.937905,957.174202 464.378216,957.435623 458.683235,957.564458 C426.727133,958.287272 398.094289,954.675498 376.829104,946.84868 C351.73468,937.612479 336.384275,922.271284 335.612279,901.340233 L335.593352,900.704249 L335.574065,899.963406 L335.484905,897.596486 L335.452848,896.310729 L335.439852,895.453457 L335.427785,893.780675 L335.42467,39.003504 C335.43335,34.0779474 337.570937,29.9032722 340.970535,26.5530791 L341.273753,26.2596153 L341.574702,25.9784167 C344.090906,23.6673082 347.253476,21.7447568 351.095773,20.0099762 C354.611213,18.4227698 358.828176,16.9454952 363.693438,15.5768583 L364.510308,15.3497579 L366.018795,14.9439238 C366.697882,14.7650148 367.388467,14.588054 368.090422,14.4130384 L369.151866,14.1519732 L370.7758,13.765841 C372.692523,13.3191766 374.68649,12.8858882 376.755381,12.4659195 C382.462384,11.3074423 388.699536,10.25969 395.3595,9.33513669 L396.697098,9.15187237 L398.974852,8.85070431 L400.125234,8.70367159 L402.44844,8.416775 C403.227753,8.32274471 404.011926,8.23032221 404.800807,8.13952516 L405.987642,8.00455087 L408.382043,7.7419698 L409.589382,7.61438949 L412.023766,7.36671556 L413.250583,7.24664841 L414.483665,7.12911214 L416.968167,6.9016852 L418.21936,6.791821 L420.73906,6.5798574 L422.007338,6.47778448 L424.560183,6.28152259 L427.133984,6.09586095 L429.727832,5.92090549 L432.340814,5.75676217 L433.654195,5.67877816 L434.972018,5.60353691 L438.285259,5.42752028 L441.623769,5.2689356 L444.311572,5.15475791 C445.808803,5.09448128 447.312571,5.03948003 448.822173,4.9898359 L451.090863,4.91939778 L453.824099,4.84556546 L456.565481,4.78355306 L459.298893,4.73372387 L460.661424,4.71338127 L463.377559,4.68179972 L464.730936,4.66959833 L466.081033,4.65473228 L471.44633,4.65473228 Z M360.422003,452.464255 L360.425,892.579346 L360.429636,894.177543 L360.444805,895.645009 L360.472957,896.824511 L360.561825,899.180356 L360.587316,900.155166 C361.029571,919.66618 399.682259,933.892606 458.117861,932.570851 C515.162534,931.280355 550.295698,916.086386 550.554116,896.44072 L550.551259,895.844044 L550.547905,895.696124 L550.990315,457.456284 C540.817399,464.042193 522.666088,469.544145 500.157803,472.838305 L498.067846,473.136077 C497.367139,473.233223 496.662412,473.328246 495.953772,473.421113 L493.816214,473.693214 C483.428953,474.976794 472.240962,475.800258 460.573855,476.063797 C408.520537,477.23922 365.498555,466.856158 360.422003,452.464255 Z M585.791409,170.149667 C585.795903,170.694352 585.783528,171.211432 585.752247,171.711626 L585.714588,172.206589 L584.55627,172.10234 C584.597674,171.642297 584.620775,171.167497 584.627336,170.66773 L584.628449,170.159262 L585.791409,170.149667 Z M551.38581,56.4567082 C549.713902,57.9547714 547.759588,59.341309 545.568055,60.6303748 C539.839144,64.0001374 532.006518,66.9388821 522.391416,69.4419251 C515.229083,71.3064528 507.143344,72.9097908 498.394022,74.2142108 L496.193017,74.5340665 C495.085753,74.6908588 493.968458,74.8429314 492.841641,74.9902106 L490.57546,75.2783559 C483.359965,76.1704389 475.776074,76.8682827 467.952702,77.3531678 L465.474353,77.4991886 C462.57401,77.6612365 459.643003,77.7941112 456.687779,77.8968765 L455.41979,77.9390727 L452.917167,78.0112579 L450.386832,78.069336 C448.157433,78.1139147 445.93933,78.1408242 443.73525,78.150539 L441.535946,78.1545398 L439.03468,78.1441749 C437.648868,78.134517 436.269494,78.1179221 434.897257,78.0944589 L432.844342,78.0541216 L430.395713,77.9921906 C425.769419,77.8608439 421.235182,77.650398 416.820751,77.3635886 L414.936268,77.2360029 L412.63776,77.0662088 C410.503481,76.9011859 408.400383,76.7178664 406.331776,76.5165766 L404.786839,76.362245 L402.602839,76.1301421 L400.446774,75.8844382 C393.307455,75.0428559 386.648799,73.9760767 380.621637,72.6989713 C372.642746,71.0083108 365.851167,68.968954 360.423667,66.5751587 L360.423667,104.139284 C365.492255,113.108221 408.359768,119.247604 460.338017,118.074061 L461.555088,118.045237 L461.555088,118.045237 L463.978536,117.980085 L463.978536,117.980085 L466.38718,117.905037 L466.38718,117.905037 L468.780368,117.820225 C469.177908,117.805283 469.574777,117.78994 469.970961,117.774198 L472.339741,117.674987 L472.339741,117.674987 L474.691431,117.56634 L474.691431,117.56634 L477.025381,117.44839 L477.025381,117.44839 L479.340937,117.321268 L479.340937,117.321268 L481.637447,117.185107 L481.637447,117.185107 L483.914257,117.040036 L483.914257,117.040036 L486.170715,116.886189 C486.545059,116.859824 486.918528,116.833099 487.291108,116.806016 L489.515814,116.63925 L489.515814,116.63925 L491.718537,116.464037 L491.718537,116.464037 L493.898623,116.280508 L493.898623,116.280508 L496.055419,116.088794 L496.055419,116.088794 L498.188273,115.889028 L498.188273,115.889028 L500.296532,115.681341 L500.296532,115.681341 L502.379544,115.465864 C502.724572,115.42931 503.068522,115.392436 503.411378,115.355246 L505.455294,115.128332 C505.793725,115.089888 506.131036,115.051132 506.467214,115.012069 L508.470566,114.774014 L508.470566,114.774014 L510.44606,114.528696 C511.426733,114.404243 512.396715,114.277116 513.355637,114.147389 L515.258629,113.88449 C515.5733,113.840103 515.886716,113.795433 516.198862,113.750482 L518.056394,113.477429 C518.363407,113.431366 518.669123,113.385028 518.973529,113.338417 L520.784133,113.055507 L520.784133,113.055507 L522.562635,112.766189 C522.856341,112.717443 523.148682,112.668436 523.439644,112.619169 L525.16877,112.320488 L525.16877,112.320488 L526.864163,112.015728 C527.423599,111.913144 527.977304,111.809568 528.52517,111.705023 L530.151138,111.388502 C538.996407,109.631891 546.222173,107.617411 551.339732,105.443625 L551.38581,56.4567082 Z M460.064471,32.1548414 L457.726504,32.1607971 C455.382355,32.1736239 453.020092,32.2071134 450.643648,32.2617151 L449.456699,32.2907164 L447.090787,32.3588693 C444.258342,32.4487309 441.450459,32.5675734 438.673888,32.7143095 L436.597437,32.8295746 L434.30481,32.9697909 L432.595888,33.083261 L430.896415,33.2037867 L428.645781,33.3753608 L427.527279,33.4657685 L425.304445,33.6557378 L423.10123,33.8577958 L420.918501,34.0718027 L418.757128,34.2976185 L417.68472,34.4149112 L415.557006,34.6581783 L413.452817,34.912905 L411.890636,35.1113861 L410.342543,35.3161755 L408.300964,35.5989389 L406.28595,35.8926724 C403.426745,36.3200608 400.651515,36.7806029 397.971648,37.2724641 L396.639714,37.5209961 L394.802311,37.8776133 C391.159857,38.6008855 387.713244,39.384105 384.493726,40.2222378 C382.063094,40.8550011 379.797056,41.5110962 377.710746,42.1824074 L376.936834,42.4348465 L375.807947,42.8159718 L374.717968,43.1997719 C374.361193,43.3281154 374.011003,43.4568511 373.667497,43.5859257 L373.157264,43.7797849 L372.167176,44.1688675 C370.093125,45.0028453 368.300452,45.8474686 366.815512,46.6886037 L366.418178,46.9179071 L366.102,47.107 L366.416407,47.2762909 C369.610799,48.9641121 374.281296,50.6071197 380.147733,52.071078 L380.780844,52.2272394 L382.074216,52.5353047 C382.948429,52.7387404 383.846437,52.9382284 384.767423,53.1333776 C391.782489,54.6198115 399.841037,55.8027198 408.627824,56.646076 L409.778031,56.7541503 L411.842754,56.9367181 L412.884448,57.0233853 L414.985954,57.1874238 L416.045548,57.2647702 L418.181871,57.410055 L420.340315,57.5427125 C421.545433,57.6128851 422.760387,57.6771654 423.984504,57.7354766 L425.827466,57.8184568 L428.056451,57.9061327 L429.177818,57.9450732 L431.433759,58.0130969 L432.568114,58.0421551 L434.849046,58.0903021 C435.866318,58.1087357 436.888203,58.1232061 437.914356,58.1336738 L439.456743,58.1463683 L441.781762,58.154088 L444.119729,58.1481322 L446.46977,58.1284012 C447.516787,58.1165559 448.567123,58.1005995 449.620433,58.0804926 L451.796398,58.0331382 L452.389568,58.0182127 L454.755544,57.95006 L457.110144,57.8684912 C459.165189,57.7912896 461.206173,57.698841 463.230479,57.5915668 L465.249129,57.4793662 L467.541797,57.3391547 L469.250747,57.2256886 L470.950247,57.1051674 L473.200912,56.9335998 L474.319429,56.8431956 L476.542289,56.6532339 L478.745528,56.4511841 L480.928275,56.2371861 L483.089665,56.0113797 L484.16208,55.894092 L486.289805,55.6508351 L488.394001,55.3961193 C492.055252,54.9404217 495.604432,54.4327269 499.020607,53.8764068 L500.476477,53.6350167 L502.391671,53.3040031 C507.775292,52.3514163 512.791973,51.2743132 517.352863,50.0870035 C519.346722,49.567954 521.229819,49.0332035 522.993802,48.4872314 L523.742478,48.2525694 L524.909657,47.8744477 C529.110745,46.4851889 532.542416,45.035759 535.072738,43.5969163 L535.428067,43.3914471 L535.744,43.201 L535.429824,43.0326385 C531.893175,41.1639793 526.547169,39.3502511 519.772014,37.7736247 L519.111905,37.6217942 L517.765225,37.3227211 L517.078807,37.1755518 C509.791272,35.6313839 501.377622,34.4147778 492.191277,33.566123 L491.038985,33.4619604 L488.961783,33.2855441 L487.914013,33.2019714 L486.860277,33.1215056 L484.735341,32.9699446 L483.664359,32.8988744 L482.587848,32.830961 L480.418672,32.7046545 C479.449905,32.6513503 478.474972,32.6018318 477.494218,32.5561386 L476.018765,32.4904726 L473.789781,32.4027967 L472.668413,32.3638562 L470.412472,32.2958325 L469.278118,32.2667742 L466.997186,32.2186273 C464.708324,32.1771516 462.396109,32.1557399 460.064471,32.1548414 Z" id="Shape" fill="#000000" fill-rule="nonzero"></path>
    </g>
</svg>