<svg height="960" viewBox="0 0 960 960" width="960" xmlns="http://www.w3.org/2000/svg"><path d="m471.30094 6.00029575 1.32748.00773022 1.32362.0133246 2.635211.02827261 2.618426.04002273 2.600748.05171284c1.439783.03196549 2.870967.0693153 4.292863.11200311l2.12579.06802943 2.531827.09215568.6296.02482565.62823.02553846 2.498935.1092633 2.475889.12059336 2.451948.13186342 1.216717.07013923 1.210396.07293424 2.401384.15422352 2.374759.16531356 2.347241.17634359c.777727.06061287 1.550719.12305408 2.318827.18731362l1.148479.09775182 2.274531.20365614 2.24388.21447614 2.212337.22523614c5.124622.53805767 9.984329 1.16349859 14.527984 1.87289234 11.048764 1.7250265 20.169495 3.927139 27.156874 6.7055726 4.545327 1.8073857 8.416811 3.9247118 11.706289 6.6787017 5.382913 4.506639 9.06515 10.5857488 9.381776 18.1864757l.015392.4770262.012811.7602724.008001.8905668v1.4577061l-.016316 2.548304-.01785 14.0976802-.120344 124.4542658-.703675 700.742517.00667.377308c.220248 23.482547-14.822608 41.448181-39.582516 52.758943l-.753269.340712-.774738.343459c-20.834731 9.143101-48.925259 14.095908-81.153711 14.824346-32.2557.728939-61.283757-2.929412-83.177793-10.980476-12.596719-4.632173-22.990616-10.747674-30.765586-18.592536-9.088426-9.170123-14.308378-20.484483-14.753194-33.13646l-.018022-.623303-.019504-.731547-.056448-1.438539-.034652-1.007925-.030569-1.287151-.023701-2.131169v-838.912373c.103564-7.0739993 3.191897-12.9488528 7.897393-17.5156851l.323319-.3093468.321048-.2986919c3.16155-2.901255 6.933505-5.1922052 11.392805-7.2037591 6.266617-2.8268198 14.33665-5.2527603 24.050063-7.346613l.915442-.1953278 1.859655-.3848687 1.950969-.387461 1.989214-.3788385c.669346-.1248313 1.344918-.2482087 2.026567-.3701156l1.027012-.1817554 2.080928-.3568431.525755-.0878126.527936-.0872501 2.133284-.3433447c3.449482-.5434905 7.029396-1.0517608 10.723195-1.5229464l1.589981-.19966069 2.336998-.28224235.588659-.06903689.590396-.06842427 2.378664-.26753958 1.199387-.13005333 1.205942-.12755896 2.431102-.24758462 1.224937-.12000057 1.231047-.11745602 2.479977-.22722818 2.503077-.21689942 2.525287-.20647029 2.546607-.19594078.639879-.0473282.641141-.04666227 2.576916-.17995834.647247-.04330907.648426-.04263372 2.605221-.16375007.654114-.03923348.655211-.03854872 2.63152-.14731598 2.647941-.13623446 1.32985-.0639303 1.333621-.06112228 2.678109-.11377031 2.691856-.1023877 2.027379-.06926054 2.034235-.06275903 2.722329-.07349203 1.365206-.03235207 2.727583-.05565682 1.359938-.02326166 1.357194-.02022661 2.705715-.0313781c1.19987-.01126356 2.396093-.01936048 3.588314-.02350692l1.785286-.00315882zm-101.299261 467.73284225.000321 411.04809.008956 1.880795.029032 1.528817.083451 2.209786.042472 1.48631c.155876 3.207438 2.433119 6.575445 7.553314 9.886271l.370573.236387.634248.390475.16275.097518.164435.097477.674656.389454.701927.388675.729461.387816c.557487.290519 1.138429.580246 1.743329.869029l.612903.288463.842241.38358.871098.382322.222314.095375.224138.095289.914877.380285.944394.378827.483349.188843.490826.188447 1.004221.375673c7.52267 2.766301 16.614072 4.906199 26.880156 6.361081l1.03051.143202 1.744115.229688.439378.055405.440704.054597 1.775958.210284 1.345583.149176 1.357062.141831 1.826968.177636 1.846651.164471c4.125235.350816 8.39322.603652 12.783609.755482l1.652093.052196 1.997324.050085c3.724087.080268 7.529755.089411 11.405129.025661l1.94344-.037957 1.013803-.02454c1.349114-.034827 2.687701-.078074 4.015342-.129645l1.9832-.083589 1.966469-.096006.488966-.025933.487895-.026703 1.940783-.114499c3.662897-.228694 7.231362-.523376 10.695784-.881878l1.478354-.157545 1.801774-.204573.447352-.052976.446105-.053706 1.771857-.222111 1.751519-.233714c.773888-.106441 1.541656-.216299 2.303183-.329546l1.137591-.172409 1.688628-.268099c12.024835-1.962029 22.386256-4.796196 30.564974-8.385341l.246849-.10878.244825-.108798.959177-.435369c11.310972-5.222976 15.726501-10.504746 15.734626-15.754072l-.002416-.228211-.003973-.236898.413655-413.659743-1.03887.388643c-.859305.315649-1.735778.626254-2.629108.931957l-.898938.304075-1.215946.400404-1.235637.394726-1.255164.389124c-.210812.064391-.422431.128552-.634854.192483l-1.284146.380859c-19.056603 5.569958-43.990312 9.007391-70.495259 9.600939-27.481413.615222-53.397165-1.898688-72.922834-6.952551-6.865042-1.77689-12.885232-3.851582-17.943532-6.222817zm171.903021-347.289855c-3.109667.807577-6.489169 1.572176-10.121761 2.292997-1.22204.242491-2.470419.479532-3.743886.71098l-1.92886.342959c-4.219286.73391-8.696953 1.407977-13.390037 2.01726l-2.181179.276589-2.210832.267281-2.239547.257865c-.375598.042187-.752354.083977-1.130247.125368l-2.280859.243539c-.382366.039785-.765832.079167-1.150376.118143l-2.320058.228969c-.388783.037344-.778605.074278-1.169448.110799l-2.357147.214156-2.380699.204147-2.403312.194029-2.424987.183802c-.405918.029776-.812701.059121-1.220328.088033l-2.455739.168262-2.475067.157766c-1.242209.076241-2.491314.148505-3.746787.216733l-2.519281.131054-2.535324.12018c-.847678.038236-1.697872.074641-2.550428.109199l-2.564594.098109c-.857121.030842-1.716447.059819-2.57782.086911l-2.590109.075606-2.601459.064192-2.582365.052017-2.571735.040267c-2.566111.034414-5.114892.0513-7.642192.050952l-2.519985-.006082c-.418753-.001968-.83687-.004411-1.254334-.00733l-2.496773-.023194-2.480146-.034521-2.462596-.045783c-.817838-.017131-1.632597-.036128-2.444124-.05698l-2.424729-.06811c-.804907-.024552-1.606429-.050948-2.404411-.079177l-2.383171-.090179c-.395374-.015942-.789825-.032341-1.183332-.049194l-2.349582-.106557c-.38966-.018665-.77834-.037781-1.166019-.057347l-2.313916-.122791-2.288986-.133531-2.263134-.144206c-.374983-.024921-.748851-.050283-1.121584-.076087l-2.222625-.160097c-.368117-.027561-.73506-.05556-1.100811-.083995l-2.180041-.175842-2.150499-.186257c-.355903-.031907-.710537-.064245-1.063882-.097013l-2.104456-.201757c-3.829254-.379306-7.497938-.810298-10.980471-1.291172l-1.880948-.267231c-.620726-.090718-1.235145-.183075-1.843103-.277059-6.581428-1.017422-12.339322-2.21399-17.178257-3.591169l-.576322-.166786v322.435l.107917.148957c.564914.744725 1.661195 1.697423 3.292735 2.736207 4.044557 2.575127 10.404611 5.071994 18.556045 7.181844 17.60708 4.55727 41.716047 6.895917 67.463653 6.31951 4.409013-.098735 8.766715-.280721 13.048925-.541485l2.328119-.15002c5.027406-.341855 9.943229-.792602 14.707553-1.344856l2.188016-.262067c12.33615-1.525586 23.593996-3.737733 33.059403-6.504329 6.385527-1.866393 11.738904-3.928898 15.826836-6.053442l.265492-265.574252zm.054305-56.5894774c-5.422759 2.881288-12.46914 5.4205945-20.915034 7.6167485-8.150694 2.1193944-17.520083 3.8939548-27.710044 5.2660016l-1.226709.1627098-2.218857.2820091c-.991548.1225417-1.990193.2413433-2.995588.3563543l-1.513111.1696673-2.288079.2437572-.575384.058912-.576702.0580973-2.319714.2242002c-2.038623.1904199-4.100202.3656832-6.18208.525405l-2.088546.154527-2.402722.1638056-2.418745.1500334-2.433885.1361335-2.448146.122106c-3.273308.1533995-6.582293.2690516-9.917551.3455942-26.264762.6027736-51.01045-1.2921931-69.620542-5.2310044-4.415741-.9345883-8.461447-1.9781175-12.106148-3.1318765l.000082 28.0092953c.132589.278022.25347.566924.361732.866716l.056768.167002.272788.13998c.442694.221272.985936.466976 1.62303.72512l.642.251991.747278.275308c.768909.274401 1.602413.545981 2.497843.813842l.915974.26659c.15607.044214.313835.088316.473283.132302l.976788.262498 1.01659.25952 1.055798.256343c.537602.127345 1.089685.253423 1.655916.378123l1.151225.24753c.194981.040937.39151.081713.589574.122324l1.206701.241643 1.242945.237469 1.278594.233096 1.313652.228524 1.348115.223751 1.381986.218781c3.408721.526953 7.053944 1.000172 10.902037 1.416976l1.940796.203688c.326232.03316.653834.065925.982786.098295l1.989762.189444c.334276.030778.669864.061155 1.006743.091132l2.036627.175034c.68394.056732 1.372892.111847 2.066701.165333l2.095842.155559c.351683.025108.704542.049806 1.058556.074091l2.137801.140757c.35856.022632.718237.044848 1.079011.066648l2.177659.125788 2.203062.115716c.738485.036885 1.481047.072078 2.227532.105568l2.251068.095347 2.273669.085052c.380776.013313.762455.026194 1.145017.038641l2.305819.069468c.772036.021413 1.54745.041079 2.326085.058986l2.345416.048429 2.363814.037799c.39545.005409.791628.010373 1.188514.014889l2.389658.021713c.39964.002719.79995.004988 1.20091.006804l2.413401.005459 1.212256-.001364 2.435041-.010961 2.4483-.022002c.409103-.004592.818719-.009646 1.22883-.015165l2.466437-.038702 2.477361-.049929 2.496076-.061565 2.484453-.072437 2.47188-.083192 2.458356-.093829c.817093-.033036 1.631774-.067825 2.443884-.104347l2.42846-.114749 2.412088-.125031c.400598-.021689.800473-.043802 1.199607-.066335l2.385748-.140235 2.366999-.150224 2.347303-.160094 2.326654-.169848c.386002-.029114.771105-.058629 1.155288-.088544l2.293902-.184255c.380424-.031501.75989-.063396 1.138377-.095682l2.259012-.198399c.374491-.033843.747963-.068073 1.120397-.102687l2.221985-.212277 2.196113-.221381c.36381-.037649.726503-.075673 1.088058-.114069l2.155523-.234817 2.127276-.243628 2.098079-.25232 2.067933-.260894 2.036835-.269351c3.705113-.50149 7.248656-1.045022 10.604289-1.627327l1.811552-.321446 1.77333-.32902c.584634-.110922 1.16274-.223086 1.734158-.336474.237821-.047191.474198-.094545.709119-.142056l1.391949-.286923 1.356386-.290479c.223066-.048697.444625-.097532.664664-.1465l1.301888-.295378 1.264785-.298354c.207672-.049961.413772-.100037.618288-.150222l1.207981-.302386c.198127-.050604.394644-.101308.589538-.152107l1.149791-.305898 1.110229-.307949 1.070051-.30977c.524879-.155301 1.03446-.311198 1.528399-.467561l.070693-.023892zm-70.995808-23.8532115-3.692021.0005578-1.23797.0039047-1.241427.0105984-2.492767.0237424-.625174.0076594-.625938.0083513-2.511107.0403486-2.522188.0515162-2.522293.0624926-2.510703.0731492-2.498204.0836871-2.484792.0941065-1.237082.0509235-1.233388.0534838-2.455235.1145895-1.221621.061076-1.21747.063577-2.422035.134598-1.204336.0709913-1.199731.073433-2.385188.1541321-.593241.040036-.591989.0406334-2.355162.1684713-.58552.043593-.584184.0441793-2.323084.1825436-2.300562.191777-2.277126.2008918-.565513.0516332-.563977.0521936-2.240266.2143414-2.214552.2231596-.549514.0571538-.547835.0576957-2.174275.2361645-2.146283.2446862-2.117382.2530893-.524722.0645714-.522845.0650873-2.07232.2654716c-.685627.0898482-1.366057.1810474-2.041139.2735781l-1.008592.1397919-1.99266.2855155-.492973.0726039-.490867.0730901-1.942131.2971862-1.907305.3048183c-.839818.1371532-1.669046.2765327-2.487327.4180916l-1.219164.213967-1.797362.3270031-.884312.1661931-.87458.1679677-1.719511.3411999-1.408157.2910267-1.369083.2938331-.336068.0738519-.333561.0739974-1.30892.2973248-1.267778.2991739-1.225809.3006398-1.183014.301723-1.139393.302423-1.094944.3027401-.266693.0756896-.263852.0756796-1.026721.3024976-.249444.0755393-.246524.0754933-.956638.3013935c-.085854.0276869-.1711.0553584-.255738.083013 3.277054 1.3988797 7.590005 2.7442387 12.760154 3.9491871l.679214.1563637 1.356671.3011581.670859.1436676c4.77886 1.0114421 10.053193 1.8791334 15.71879 2.5911621l1.220007.1501907 1.950161.2273779c2.095474.2361294 4.239411.4516979 6.426911.6461456l1.648717.1418668 2.083169.1661157c1.571456.1198895 3.163086.2291815 4.773189.3276813l1.616197.0948952 2.173431.1152603 2.193755.1022902c8.079929.3511599 16.551619.4386875 25.216095.2398386 1.050272-.0241033 2.097527-.0522798 3.141411-.0844728l1.563256-.0512949 2.334828-.0881459.581732-.0241227.580915-.0249529 2.315205-.1080669.576618-.0290694.575717-.029886 2.293577-.127665c1.269977-.0745177 2.532763-.1550012 3.787669-.2413396l1.876365-.133885 2.235311-.1721379c1.236741-.0990853 2.464846-.2039038 3.683627-.3143446l1.821094-.1698643 2.166125-.2148524 1.610355-.1689442 1.597731-.1755667 2.110022-.2442863 2.086021-.2558085c6.451582-.8136236 12.541759-1.7924502 18.149741-2.9170291l1.194286-.243205 1.763175-.3730803 1.728476-.3828802c1.368664-.3101858 2.703162-.6296416 4.001441-.9580368l.966886-.2479673 1.319134-.3497924 1.284542-.3542539.315662-.0892234.313454-.0894775 1.231552-.3603514 1.195488-.3640197 1.158837-.3673709 1.121595-.3704046c3.841347-1.2951583 6.99418-2.6397585 9.346521-3.9734552l.359363-.207583-.019967.0117043-.303949-.1571726c-.71574-.3649564-1.502655-.7276546-2.357708-1.0866318l-.680473-.1195571-.345178-.0588264-.347693-.0585509-1.415649-.2313389-1.500364-.2334588c-.770332-.1169484-1.552359-.2312979-2.345719-.3430179l-1.198494-.1656041-1.829023-.2409606c-2.052818-.2627465-4.173642-.5088201-6.356819-.7377438l-1.317343-.1352924-2.00348-.1951711-2.035624-.1857813-.513821-.0449691-.515759-.0443762-2.082123-.1715517-.525231-.0413936-.527083-.0407935-2.126562-.1571481-1.074019-.0749419-1.081024-.0725074-2.182608-.137673-2.209258-.1278195-2.234992-.1178886-2.259809-.1078806-1.138926-.0501631-1.144786-.047632-2.306699-.0876325-.580159-.0203111-.581524-.0196699-2.339461-.0722435-2.360158-.0618875-2.37994-.0514544-.597968-.0112243-.599133-.0105662-2.407895-.0356596-.604743-.0072575-.605821-.0065922-2.433789-.0196909c-.407-.0093703-.814672-.0093703-1.222996-.0093703zm112.094166 130.9994059c.0011.666667-.0029 1.333333-.0149 2"/></svg>