<svg height="960" viewBox="0 0 960 960" width="960" xmlns="http://www.w3.org/2000/svg"><path d="m296 421v30.008646h-9.736086l-24.172352 86.991354h-40.287253l-18.800718-57.994236-19.8079 57.994236h-39.280072l-24.843806-86.991354h-10.071813v-29.67147h54.723519v29.67147h-9.400359l12.421903 49.564841 22.157989-79.236311h28.201077l23.165171 77.550432 10.40754-47.878962h-9.736086v-29.67147h55.059246zm299 0v30.008646h-10.080645l-32.930108 86.991354h-39.314516l-32.594086-86.991354h-10.080645v-29.67147h54.771505v29.67147h-9.744623l17.137096 48.216138 17.473119-48.216138h-9.408602v-29.67147h54.771505zm86 0v30.008646h-14.628866v57.319884h14.628866v29.67147h-66v-29.67147h14.628866v-57.319884h-14.628866v-29.67147h66zm75.554217 9.806762c19.566265-17.191368 49.590361-15.50594 67.13253 4.382113 7.759036 8.764227 11.807229 19.888054 11.807229 31.686052v41.461535h14.506024v29.663538h-49.253012v-69.439645c0-10.786741-8.771084-19.888053-19.903615-19.888053-10.79518 0-19.903614 8.764227-19.903614 19.888053v39.776107h14.506024v29.663538h-65.445783v-29.663538h14.506024v-57.304561h-14.506024v-29.663537h46.891566zm-414.554217 48.693238c0-16.090909 13.073864-29.5 29.5-29.5s29.5 13.073864 29.5 29.5-13.073864 29.5-29.5 29.5-29.5-13.409091-29.5-29.5m-35-.983971c0 34.120226 27.65566 61.483971 61.382075 61.483971 13.490567 0 26.306604-4.391712 37.099057-12.499489v9.121249h44.518868v-29.728514h-14.502358v-57.430083h14.502358v-29.728513h-44.518868v9.796896c-26.981132-20.607265-65.429245-15.202081-86.002358 11.823841-8.09434 10.810368-12.478774 23.647681-12.478774 37.160642m-188.54286 117.469274c-64.268489 1.009988-117.43299837-50.162746-118.44245109-114.465327-1.00945271-64.30258 50.13615129-117.495291 114.40464009-118.505279h725.123531c64.268489-1.009988 117.096514 50.162746 118.442451 114.465327 1.009453 64.30258-50.136151 117.158628-114.40464 118.505279zm722.604006-28.004852c48.164653 1.013287 88.245728-37.491622 88.919359-85.791639 1.010448-48.300017-37.386549-88.493738-85.551202-89.169263h-725.164322c-48.1646536-1.013287-88.2457285 37.491622-89.264981 85.791639-.6648263 48.300017 37.3953541 88.155976 85.896823 89.169263z"/></svg>