<svg height="960" viewBox="0 0 960 960" width="960" xmlns="http://www.w3.org/2000/svg"><g transform="translate(-2 400)"><path d="m0 1h32.3429672v127.13365h76.6570328v27.86635h-109z"/><path d="m202.723577 139.305206c-.281843.35009-.98645 1.40036-2.113821 3.150808-1.127371 1.750449-2.466125 3.290844-4.01626 4.621185-4.720867 4.201077-9.283198 7.071814-13.686992 8.612209s-9.565041 2.310592-15.48374 2.310592c-17.05149 0-28.536585-6.091562-34.455284-18.274686-3.311653-6.721723-4.96748-16.629264-4.96748-29.722621v-69.002693h30.861789v69.002693c0 6.51167.775067 11.412926 2.325203 14.70377 2.747967 5.81149 8.138211 8.717235 16.170732 8.717235 10.287262 0 17.333333-4.131059 21.138211-12.393177 1.9729-4.481149 2.95935-10.397666 2.95935-17.749552v-62.280969h30.544715v114.479354h-29.276423z"/><path d="m363 156h-37.21243l-19.706865-34.262868-19.811688 34.262868h-36.269017l38.994434-57.8382353-37.317254-56.1617647h36.583488l19.077922 33.1102941 18.658627-33.1102941h35.535251l-37.526902 55.6378676z"/><path d="m433 135.041917v22.371658l-14.140753.525157c-14.105837.490146-23.742499-1.960584-28.909983-7.352188-3.351883-3.431022-5.027824-8.717595-5.027824-15.859721v-70.4759745h-15.92144v-21.3213457h15.92144v-31.9295028h29.538462v31.9295028h18.540098v21.3213457h-18.540098v60.4980055c0 4.691396.593562 7.614766 1.780687 8.77011s4.818331 1.733016 10.893617 1.733016c.907802 0 1.867976-.017505 2.880524-.052516 1.012548-.03501 2.007638-.087526 2.98527-.157547z"/><path d="m510.320695 69.2983871c-12.136914 0-20.286993 3.9139785-24.450237 11.7419355-2.328594 4.4032258-3.492891 11.1827957-3.492891 20.3387094v54.620968h-30.377567v-114.2741935h28.789889v19.9193548c4.657188-7.6182796 8.714587-12.8252688 12.172196-15.6209678 5.645077-4.6827957 12.983676-7.0241935 22.015798-7.0241935.564508 0 1.040811.0174731 1.42891.0524194.388099.0349462 1.252501.0873655 2.593207.157258v30.6129032c-1.905213-.2096774-3.598736-.3494623-5.080569-.4193548-1.481832-.0698925-2.681411-.1048387-3.598736-.1048387z"/><path d="m631.506284 56.1478934c9.662477 12.0985956 14.493716 26.4001146 14.493716 42.9045572 0 16.7841784-4.831239 31.1381484-14.493716 43.0619084-9.662478 11.923761-24.331239 17.885641-44.006284 17.885641s-34.343806-5.96188-44.006284-17.885641c-9.662477-11.92376-14.493716-26.27773-14.493716-43.0619084 0-16.5044426 4.831239-30.8059616 14.493716-42.9045572 9.662478-12.0985956 24.331239-18.1478934 44.006284-18.1478934s34.343806 6.0492978 44.006284 18.1478934zm-44.111311 7.133276c-8.752244 0-15.491472 3.094583-20.217684 9.2837489-4.726212 6.189166-7.089318 15.0183434-7.089318 26.4875323 0 11.4691884 2.363106 20.3158494 7.089318 26.5399824s11.46544 9.3362 20.217684 9.3362 15.473968-3.112067 20.165171-9.3362c4.691202-6.224133 7.036804-15.070794 7.036804-26.5399824 0-11.4691889-2.345602-20.2983663-7.036804-26.4875323-4.691203-6.1891659-11.412927-9.2837489-20.165171-9.2837489z"/><path d="m720.89858 63.8467742c-10.196078 0-17.192698 4.2983871-20.989858 12.8951613-1.968898 4.5430107-2.953347 10.344086-2.953347 17.4032258v61.8548387h-29.955375v-114.0645161h29.006085v16.6693548c3.867478-5.8709677 7.524003-10.0994624 10.969574-12.6854839 6.187965-4.6129032 14.028398-6.9193548 23.521298-6.9193548 11.883706 0 21.605139 3.0927419 29.164301 9.2782258 7.559161 6.1854839 11.338742 16.4422043 11.338742 30.7701613v76.9516129h-30.799189v-69.5080645c0-6.0107527-.808654-10.6236559-2.425963-13.8387097-2.953347-5.8709677-8.57877-8.8064516-16.876268-8.8064516z"/><path d="m829 41.340526v114.659474h-30v-114.659474zm0-41.340526v27.6655428h-30v-27.6655428z"/><path d="m964 156h-36.354935l-27.58325-49.169503-12.470589 12.978216v36.191287h-29.591226v-155h29.591226v83.7780803l37.517448-43.2607216h37.306082l-40.265205 43.9993193z"/></g></svg>