<svg height="960" viewBox="0 0 960 960" width="960" xmlns="http://www.w3.org/2000/svg"><path d="m514.452274 11.5269471c91.138033 5.6296762 205.393334 18.3097893 342.915004 38.0294927 30.769646 4.4137792 54.62916 29.1306876 57.954333 60.0369292l.009857.096631.525899 4.915869c12.780317 120.352818 19.258471 240.718719 19.437204 361.092094v5.015562c0 124.068071-6.695915 250.712327-20.082929 379.932449-3.178341 30.658775-26.580989 55.345366-57.026488 60.15514-114.741462 18.120579-229.71591 29.03004-344.916068 32.726833-111.243764 3.569831-240.640357.98892-388.263151-7.72052-4.21097-.248521-8.344154-.78504-12.379969-1.590353-14.7122671-1.908329-28.000227-8.368219-38.5255311-17.961066-18.8515877-15.086562-31.4996536-37.612737-33.5150156-63.234928-10.0179743-127.430139-15.0269516-254.86623-15.0269516-382.307555 0-127.369237 5.0033114-258.670882 15.0065188-393.9060178l.1145768-1.4048344c2.3007907-25.7216725 15.299668-48.1516138 34.3957823-63.012947 10.012246-8.8020605 22.3901039-14.81006549 35.9992884-16.88265251 6.204498-1.35142484 12.640734-2.06307294 19.233217-2.06307294 168.412038-.02329943 296.368741 2.66096602 384.144423 8.08294675zm-384.138853 31.9170534c-2.946763 0-5.837331.2559299-8.649778.7474066l.000046.5167325c-1.127272 0-2.24297.0635315-3.343809.1876487-6.469016 1.5940055-12.45546 4.4503427-17.673159 8.3017879-6.0318787 5.6697862-10.0813537 13.7714971-10.7358677 23.0391405-9.8145523 139.0065043-14.7210492 273.9192823-14.7210492 404.7377063 0 130.823059 4.9068448 261.642462 14.7206505 392.459251.6696058 8.924668 4.5039127 16.795418 10.2481714 22.41938 5.520196 4.176627 11.93511 7.232203 18.906947 8.835606.099526.008463.199313.016662.299217.024366l.470659.032565-.007958.11203c2.449987.523226 4.96647.867695 7.535048 1.019286 146.482984 8.642193 274.690852 11.19938 384.6236 7.671619 112.099304-3.597286 223.986692-14.124722 335.662165-31.582308l4.295068-.675105c12.536382-1.980495 22.172766-12.145562 23.481495-24.769763 13.246537-127.864155 19.869704-253.133437 19.869704-375.807825 0-120.632641-6.404534-241.260689-19.213603-361.884143l-.529839-4.957144c-1.369189-12.7261-11.193695-22.9036501-23.863549-24.7210886-136.537008-19.5785093-249.770832-32.1452049-339.701441-37.7002974-86.790845-5.3611465-214.015084-8.0300464-381.672718-8.0068515zm191.847111 178.4645915.42214.001559 453.357665 12.624481c5.412375.15067 9.721727 4.581655 9.721727 9.996127v470.097386c0 5.424458-4.324701 9.859804-9.747429 9.99681l-453.357665 11.457323c-.173463.003425-.346943.00262-.520262-.00249l.267691.00249c-.560944 0-1.111101-.046186-1.646875-.134964l-39.309822-5.861433c-4.899114-.730494-8.525229-4.937379-8.525229-9.890654v-475.664468c0-4.349844 2.81191-8.200762 6.955221-9.525194l39.272182-12.553877c.706384-.243007 1.448547-.409111 2.216489-.488312.047067-.005048.093391-.009616.139748-.013865.057045-.004644.115021-.009305.173134-.01347.193868-.015316.387447-.024149.581285-.027449zm10.142936 20.283258v473.634l433.358005-10.948699v-450.622zm-20 3.413-19.480995 6.227301v459.743l19.480995 2.904699zm239.478493 93.15528c5.522848 0 10 4.477152 10 10l-.000493 121.43472 112.53501.000242c5.522848 0 10 4.477152 10 10 0 5.522847-4.477152 10-10 10l-112.53501-.000242.000493 121.512158c0 5.522848-4.477152 10-10 10-5.522847 0-10-4.477152-10-10l-.000493-121.512158-112.534024.000242c-5.522848 0-10-4.477153-10-10 0-5.522848 4.477152-10 10-10l112.534024-.000242.000493-121.43472c0-5.522848 4.477153-10 10-10z"/></svg>