<svg height="960" viewBox="0 0 960 960" width="960" xmlns="http://www.w3.org/2000/svg"><path d="m527.530433 2.63723759c.169898.00349003 5.582642.11862858 6.916295.14366842 2.134801.04008167 3.695122.05888639 5.006321.05888639 10.119466 0 28.130427 2.04919854 53.588769 5.68766033 19.064013 2.72459537 41.128685 6.22432647 55.987772 8.82470897 14.235871 2.4913179 27.809279 5.8243882 38.518464 9.4598685 6.268389 2.1279498 11.697465 4.3882047 16.439932 7.0275974 3.890498 2.1652347 7.424375 4.60674 10.837727 7.8640194 2.889381 2.7572658 5.498326 5.9276112 7.73436 9.8063096 3.461062 6.0036739 5.582973 12.9814318 5.582973 20.7594043v9.1434962c0 13.1361467-6.410238 25.1300199-16.67888 32.4965219 13.561712 6.785694 22.33388 20.882685 22.019953 36.505564l-11.176136 556.191932c-.006437 3.124862-.086987 6.999456-.237779 11.688708-.324294 10.0847-3.734784 19.697677-9.271613 28.281611-.873326 1.353947-1.801494 2.684019-2.801918 3.979408l1.875035 106.836475c.402659 22.941342-15.488733 42.962178-37.92598 47.773758-2.464773.528561-4.981535.919063-7.581571 1.19804-2.846956.305471-5.631483.459806-8.391837.439449-24.510253-.180761-44.938309-18.800446-47.399132-43.176547l-6.724415-66.597253c-8.072508 1.890227-14.997159 3.38279-21.704445 4.689167-2.816809.548629-5.840938 1.126532-9.092161 1.736569-3.72401 10.348459-11.265601 19.118569-21.385697 24.28815-4.462515 2.279557-9.12273 3.818395-13.916317 4.745597-3.897349.753847-7.828778 1.092921-11.828425 1.092921-4.188658 0-8.301904-.371544-12.37786-1.202212-5.06155-1.031529-9.966442-2.751198-14.627537-5.305331-3.265609-1.78945-6.249951-3.961845-8.90693-6.446288l-5.528619 92.115248-.077709 1.294621c-.741416 12.351957-6.649682 23.809419-16.258366 31.577924-5.388921 4.356878-11.279987 7.230213-17.568833 9.120855-4.448121 1.337257-9.032097 2.15339-13.879612 2.596945-3.760685.334733-7.386938.436276-10.98292.213897-4.928188-.304765-9.747532-1.183753-14.596466-2.928215-17.151996-6.170636-28.709447-22.273465-29.092378-40.476299l-2.263325-107.55597c-8.338214-2.491433-16.55013-5.404797-24.613565-8.714582l-6.193323 37.755806c-1.53733 9.371888-6.359082 17.891034-13.602597 24.033278-10.697263 9.0709-23.880707 13.881065-37.899717 13.881065-3.593537 0-7.16531-.312947-10.730642-1.002894-4.285359-.829283-8.478654-2.188268-12.51383-4.161805-9.492304-4.642529-17.114544-12.236876-21.745984-21.822032-3.158235-6.536233-4.478216-13.808708-3.818461-21.037919l8.563116-93.82956c-4.129135-6.232015-7.143394-12.917411-8.748448-20.21117-.606291-2.755138-.919419-5.566686-.934155-8.387706-.709387-135.800619-1.201389-230.023808-1.476007-282.669639-.290998-55.785924-1.464981-105.884478-3.486173-161.991804-.53863-14.952106-2.224324-58.340495-2.384258-62.662728-.775917-20.969272-1.15326-34.618803-1.211631-45.948998-.00879-1.706248-.020279-3.938583-.035051-6.697026-.067806-13.297357 5.864806-25.726265 15.84308-34.024427-2.242951-2.546887-4.246976-5.427896-5.935932-8.731677-2.903843-5.6802366-4.559377-12.0754361-4.591928-18.8256063-.007578-1.571466-.013384-3.4386855-.017651-5.5440129-.004057-2.0013853-.006569-4.1357416-.007839-6.3065543-.00086-1.469313-.001053-2.7356698-.000885-3.8064801l.00005-.2714615c0-7.5988974 1.846746-15.0817659 5.483186-21.8521734 3.2965-6.1374976 7.786683-11.2194451 13.065083-15.2667865 4.047484-3.1035067 8.40313-5.4893762 13.037152-7.3511325 3.63553-1.4606038 7.41898-2.5860586 11.398792-3.458633.984939-.2159481 1.977692-.3945758 2.97613-.5355005 19.187828-2.708268 57.15829-6.0985561 114.882814-10.30481673 31.183369-2.2722644 57.154808-3.57995783 79.334921-4.12413634 16.497658-.40476222 28.593194-.37842706 43.133013-.07975334zm-107.996455 792.73385241 2.481667 117.93144c.034811 1.65479 1.084645 3.119186 2.642079 3.679491 1.901494.686768 4.699394.857111 8.393699.519076 4.696062-.429697 8.011004-1.426282 9.944826-2.989754.873832-.706482 1.41136-1.747351 1.478688-2.86903l.077708-1.294622 6.707863-111.775685c-10.637947-.422125-21.233178-1.492027-31.72653-3.200916zm230.666302-30.662059c-3.292201.859573-6.334759 1.652473-9.171645 2.389781l9.342195 92.510543c.410107 4.062393 3.81355 7.165945 7.896479 7.196057 1.154815.008516 2.431297-.062234 3.829447-.212252 1.276953-.137014 2.43089-.316059 3.461812-.537136 3.738248-.801653 6.386394-4.138339 6.3193-7.960988l-1.766122-100.649909c-5.922183 2.907705-12.571299 5.347431-19.911466 7.263904zm-353.83398-21.997975-7.888789 86.443354c1.413894 2.926173 4.405381 4.38926 8.97446 4.38926 4.56908 0 8.579029-1.463087 12.02985-4.38926l11.576788-70.581298c-9.576301-5.514069-17.796051-10.783488-24.692309-15.862056zm223.273353 49.953654.070679.025963c1.696612.594837 3.767077.892255 6.211396.892255 3.126788 0 5.642931-.486686 7.548428-1.460059.915177-.467493 1.598305-1.259412 1.938075-2.19411-4.991243.87415-10.246968 1.786084-15.768578 2.735951zm-235.419768-721.2288251.00165.0349654c.002911 3.122022.009399 6.9163552.023667 9.8749372.013806 2.8629824 7.556255 5.0043531 15.467384 8.2920138.846118.1464695 1.686642.4057191 2.50234.7843112l12.753946 5.919525c3.530992 1.6388491 5.790028 5.1778405 5.790028 9.0706195v43.459016c0 6.814294-6.666449 11.6328-13.136814 9.495283-6.844903-2.261248-10.609103-3.534537-11.862202-4.023304-6.098942-2.378874-11.703735-6.023914-16.828206-10.88441l-.001228-.544177c.014239 2.758337.025727 4.990563.034517 6.696679.235664 45.743655 6.376347 135.313971 7.082049 270.60095.274618 52.645705.766619 146.868819 1.476005 282.669343.141383.642479.331881 1.295491.571495 1.959035.20941.579986.456708 1.168781.741628 1.765644.096289.201706.196794.404177.301589.607569.393201.763108.846513 1.53874 1.360148 2.32731.127228.195327.258072.391323.392612.588112.114862.168009.232532.336754.3529.506078.136782.19241.276918.385391.420534.579117.040417.054521.081467.109579.122798.164697.138176.184266.279309.368976.423569.554357.137311.176458.277788.353936.421111.532024.360632.448119.739564.900425 1.136539 1.3566.084894.097555.170815.195516.257566.293655.171308.193791.345398.387782.522705.582462.032394.035567.064569.070802.096851.106059.193638.211494.391185.42393.592523.637178.42791.453233.873371.910562 1.335987 1.371571.444724.443183.905604.890049 1.382358 1.340321 6.185923 5.842305 15.044553 12.257802 26.575859 19.246462l.865524.522616c.147288.088608.295003.177308.443144.266098.718629.430724 1.447288.863599 2.185975 1.298624.083386.049108.166841.098207.250422.147334 1.194523.702106 2.414494 1.409448 3.660503 2.122374 6.772392 3.874947 13.954115 7.708939 21.545168 11.501977.611532.305566 1.224146.608435 1.837825.908607 5.374915 2.629051 10.83133 5.051053 16.357512 7.264329.670101.26838 1.341133.533654 2.013168.795856 5.227785 2.039684 10.516479 3.893553 15.855936 5.560068.513425.160247 1.027775.318902 1.542586.47582 25.831191 7.873469 52.823346 11.374578 79.849356 10.335921 1.311832-.050417 2.623513-.111518 3.935145-.18333 7.539996-.412803 15.078809-1.179644 22.591513-2.304134.866451-.129693 1.731692-.264004 2.596548-.403068.197584-.03177.395198-.063797.592792-.096072l1.520027-.253249c3.272781-.555984 6.464552-1.100392 9.575311-1.633224.306082-.052428.612047-.104858.917223-.157175.257955-.044222.514445-.088209.770376-.132116 7.941298-1.362394 15.345048-2.647995 22.210633-3.856699 1.127028-.198416 2.239555-.39476 3.337579-.589032.612448-.108359 1.220671-.216125 1.824378-.323245 1.237214-.219528 2.456396-.436513 3.656582-.650784 1.213505-.216648 2.408395-.430665 3.583838-.641904 1.55998-.280345 3.08548-.555753 4.576739-.826269.299272-.054288.597524-.108445.894394-.162404.367082-.066721.731083-.132963 1.092982-.198905.344507-.062774.687265-.125303 1.028115-.18756.901972-.164746 1.789921-.327462 2.664538-.488273.192889-.035465.384833-.070783.57613-.106009.718008-.132215 1.426567-.263065 2.126027-.392615.844555-.156424 1.675466-.310882 2.493125-.463446.256941-.047942.513457-.095862.768656-.143594 3.454748-.646167 6.668213-1.257867 9.640152-1.835057l.585517-.113877c.478124-.093124.959086-.187732 1.442886-.283808.957195-.190084 1.925537-.385919 2.905001-.587366 3.840063-.789783 7.851554-1.665933 12.034703-2.62044.788123-.179834 1.582075-.362388 2.382121-.547668.200335-.046395.400866-.092918.601779-.139611 1.868838-.434321 3.771522-.883537 5.707294-1.346792.492658-.117899.987338-.236679 1.484162-.356356 1.126941-.271464 2.264519-.547452 3.413127-.827929.280008-.068375.560723-.137028.842094-.205947 1.523528-.373173 3.066392-.754141 4.628511-1.142582 2.552183-.634636 5.154964-1.289018 7.809221-1.962053 1.126309-.285597 2.260558-.574213 3.404062-.866081.361693-.092319.724685-.185059 1.088604-.278121 1.427122-.364947 2.868245-.734791 4.32365-1.109413.525743-.135326 1.053818-.271397 1.583762-.408083.841188-.216965 1.686925-.43544 2.537369-.655431.468153-.1211.93773-.24266 1.408735-.364672.555233-.143832 1.112598-.288332 1.671948-.433453.657667-.170629 1.317968-.342087 1.981013-.514387 3.074829-.79903 6.208103-1.616016 9.400504-2.449532 13.075846-3.414023 21.972847-8.379529 27.753353-13.389604.207546-.17989.410628-.359434.609759-.538966 1.318326-1.188582 2.463388-2.37652 3.449481-3.543826.13835-.163775.273467-.327018.4055-.489799.126889-.156448.250597-.312042.371505-.467165.066403-.085195.131896-.170161.196551-.254976.168477-.221011.331219-.440931.488381-.65969.106094-.147681.209361-.294422.31013-.440592.456417-.662061.861532-1.312342 1.218252-1.9469.081492-.144958.160605-.289371.237217-.432913.174517-.326992.335869-.649065.484677-.966054.108464-.231063.210101-.459043.30525-.684112.017269-.040847.034451-.081904.051417-.122863.053222-.128487.104263-.255861.153212-.382224.02434-.062832.048236-.12561.071615-.188131.045022-.120397.088134-.239865.129355-.358344.128955-.370703.23922-.731072.331825-1.080688.037104-.140048.071533-.279063.10315-.416262.026508-.11504.05098-.228507.073516-.340661.04504-.22416.08233-.442967.112133-.656197.011386-.081439.021733-.162522.030989-.242762.012856-.111482.023578-.221005.032244-.328862.011363-.141328.019208-.280255.023579-.416186.086961-2.704269.147972-5.086002.183032-7.145198-2.631346 1.89918-5.57681 3.616848-8.841745 5.202056-4.353385 2.113677-9.223866 3.97294-14.951915 5.795201-4.180645 1.329986-7.582021 2.29265-15.033199 4.316086-5.725998 1.554947-16.285601 4.133619-28.300016 6.873225-14.980114 3.415864-31.181164 6.856496-47.37102 10.004922-19.431109 3.778749-38.099322 6.9936-55.34182 9.45461-19.927458 2.844233-37.526903 4.622078-52.315945 5.165064-42.908265 1.575394-71.707461-3.41161-87.109527-16.21759-2.285044-1.899889-3.606727-4.717647-3.606727-7.689347v-528.382767c0-5.909741 5.097515-10.530465 10.978874-9.951975 29.749148 2.926121 51.244931 4.418792 64.327894 4.483573 19.258056.095357 38.06004-.372414 57.021623-1.336757 15.433645-.784921 30.264574-1.849599 47.340451-3.316702 6.795801-.583872 27.975321-2.502419 31.300211-2.791597 1.566665-.136259 8.069029-.699951 9.743773-.845659 20.306862-1.766752 31.872126-2.888188 43.935162-4.360219 15.176692-1.851985 28.240668-3.992052 40.305494-6.69641 4.187691-.938681 10.452556-3.00119 18.65847-6.171321l.312611-15.514172c-12.383162 3.564842-43.138366 7.778246-93.491405 12.927832-5.89444.602822-11.01739-4.022926-11.01739-9.948111v-26.803978c0-9.698119 2.290618-17.414661 7.426121-23.258012 5.007385-5.697574 12.066092-8.901048 21.258372-10.31964 8.25395-1.2737859 19.993148-3.9063957 35.126198-7.8922152l35.5146-11.1780107-.000368-1.5594679c-48.562394 9.6687321-87.784605 15.6443311-117.739898 17.9217687-32.821123 2.4953201-83.736588 2.4953201-152.909901.0223924-.272005-.0097241-.5435-.0305493-.813806-.0624235-46.569433-5.4914142-80.355459-10.7203997-101.535326-15.7394334-10.931654-2.590495-19.904573-5.4523687-26.977353-8.6433832-1.379557-.6224124-2.695138-1.260534-3.946509-1.9164253zm405.990877 124.2804161c-4.501171 1.541092-8.312636 2.659765-11.480797 3.369916-12.773752 2.863265-26.469912 5.106893-42.257396 7.033411-12.356361 1.507826-24.099494 2.646508-44.62425 4.432219-1.678772.146057-8.181517.709782-9.744343.845707-3.273303.284692-24.466874 2.204511-31.321121 2.793406-17.290509 1.485542-32.344296 2.56622-48.036635 3.364297-19.320927.982618-38.492851 1.459593-58.136495 1.362327-12.124081-.060033-30.49102-1.237726-55.207738-3.529368v512.15483c5.000605 2.949373 12.179051 5.311198 21.505919 6.926282 12.627434 2.186626 28.810081 2.942134 48.476522 2.220073 26.512103-.973402 63.014276-6.183333 104.573719-14.265357 15.971768-3.106015 31.964369-6.502379 46.74248-9.872181 11.770361-2.683955 22.082589-5.202217 27.505054-6.674737 7.174707-1.948358 10.394318-2.859579 14.211395-4.073903 4.884164-1.553796 8.898692-3.086306 12.279754-4.727897 6.967879-3.38308 10.735514-6.965752 11.930162-10.998707-.032713.110434.099736-.736362.241345-2.041394.189016-1.741924.390449-4.131185.600412-7.143356.429218-6.157624.887827-14.820293 1.37367-25.965398.975932-22.387601 2.058993-54.720659 3.248283-96.983205 2.3069-81.977911 5.012457-201.274558 8.12006-358.226965zm-321.694356-94.349078c23.468875 4.152711 45.52812 6.590093 66.173726 7.318517 21.559957.760684 54.197549.742874 97.844863-.058221 5.68433-.104329 11.188678 1.997202 15.357029 5.863372 6.51724 6.044778 11.034847 13.171886 13.40411 21.254746 1.963826 6.699693 3.081923 15.949132 3.48076 27.983901.219384 6.763596-2.165856 8.311262-7.269384 10.177978-.962081.351901-2.043993.644966-3.353087.936028-2.1406.475937-5.068725.977061-8.669415 1.490251-7.461811 1.063497-17.481906 2.133209-28.549581 3.018836-27.352416 2.188718-56.819364 2.996231-83.03858 1.839674-19.934267-.879322-39.40878-3.241106-57.069683-6.605694-13.953812-2.658348-26.024535-5.843693-31.99056-8.264759-2.244068-.910664-3.745158-2.351536-4.812055-4.01982-.535118-.836753-.896137-1.639663-1.176616-2.466799-.304799-.898856-.492217-1.767338-.63523-2.729008-.180961-1.216839-.292417-2.650898-.363529-4.392159-.109652-2.684995-.121979-6.127313-.061445-10.389802.027914-1.965578.069324-3.995762.128374-6.455853.01949-.812008.095318-3.842629.110827-4.500535.032417-1.375102.047645-2.234771.047645-2.723607l.061767-1.720919c.287658-3.993807 1.576-7.830461 3.77931-11.395592 2.269545-3.672305 5.468866-7.004493 9.532908-10.065748 4.876013-3.672876 11.056935-5.158391 17.067846-4.094787zm83.40138 55.295752c-11.963997.780241-23.056667 1.947053-33.274287 3.494807 5.322621.459855 10.711483.814728 16.134712 1.053952 25.321616 1.116964 53.981482.331568 80.561931-1.795378 6.477005-.518285 12.563329-1.099872 17.916863-1.700562-28.073577-2.409045-55.185545-2.75845-81.339219-1.052819zm-48.248965-29.81978c-17.43333 1.184394-29.53301 2.273741-36.121321 3.238906-3.80467.557371-6.850727 2.757266-9.607383 7.340438l-.05715.091862c-.043262 1.88872-.07489 3.519055-.097255 5.093865-.038805 2.732487-.045168 5.078583-.013759 6.996739 2.809552.831395 6.279655 1.742537 10.198019 2.663958l-.706394.271846c21.60892-8.376969 49.369163-13.619179 83.352658-15.835438 29.050781-1.894569 59.178044-1.349692 90.379213 1.6297-1.462947-3.330691-3.675511-6.37153-6.704054-9.180521-.376916-.349592-.875203-.539836-1.389386-.530398-43.975047.807109-76.924771.82509-98.917083.049151-9.408658-.331958-19.077107-1.00068-29.00568-2.005638-.426993.086094-.864295.145221-1.310425.17553zm216.883803-6.594101c-4.944821.763106-7.789993 2.054339-9.286007 3.756554-.684767.779152-1.22705 1.791148-1.642308 3.190053-.521578 1.757071-.806554 4.02854-.806554 6.865034v15.707861c25.254247-2.671234 44.89098-5.083762 58.703008-7.189455l-26.259342-7.109492-.00115-19.412368c-8.189567 1.92725-15.084807 3.324072-20.707647 4.191813zm-320.849657 13.375441c-.220368.0415-.444621.084891-.672761.130173.571475.335862 1.148205.647465 1.728694.935921l-.000476-1.256793c-.367921.063909-.71974.127476-1.055457.190699zm207.805213-91.2066641-1.081387.0011292c-20.363826.0346217-50.735705.8389856-98.457289 4.3163538-53.465743 3.8959326-89.738892 7.0829721-108.819445 9.5611185 5.420372 2.1787631 12.300584 4.2701719 20.605408 6.2381819 20.192415 4.7850356 53.199653 9.8985569 98.860274 15.2888767 68.286684 2.4352169 118.4265 2.4302389 150.270857.0091799 26.028326-1.9788786 59.630727-6.8931562 100.754549-14.7464466-7.663628-2.2880488-17.179949-4.5256608-27.506879-6.332903-25.215108-4.4127157-85.094369-13.7249432-102.176751-13.9107465l-.504468-.0028224c-7.040661 0-16.581017-.4278631-31.944869-.4219215z"/></svg>