<svg height="960" viewBox="0 0 960 960" width="960" xmlns="http://www.w3.org/2000/svg"><path d="m638.745046 50.5986068c52.904469 0 95.792015 42.8875459 95.792015 95.7920152 0 .720723-.008134 1.441464-.024418 2.163369-.902967 39.972338-5.292278 76.979503-13.232393 111.016821-6.389079 27.38841-15.276302 53.705021-26.651846 78.913931l-.462587 1.018864 72.814468.000427c65.611429 0 118.924229 52.656686 119.983924 118.01558l.016076 1.98442c0 4.791165-.28694 9.57803-.85928 14.334887l-32.887201 273.333488c-7.375527 61.29979-59.384495 107.426198-121.126398 107.426198h-316.88471c-17.693356 0-35.226358-3.353893-51.670554-9.884076l-15.851915-6.29498c-4.471705-1.775767-8.750124-3.872229-12.813098-6.256745-16.059179 13.218081-36.629898 21.154691-59.054312 21.154691h-119.707243c-51.362482 0-93-41.637518-93-93v-287.434644c0-51.362482 41.637518-93 93-93h119.707243c19.965306 0 38.461184 6.291363 53.613283 16.999736 5.190905-4.385195 10.81378-8.341689 16.826909-11.798978l20.466612-11.767416c6.726336-3.868997 12.635385-9.00204 17.405977-15.122202 36.836969-47.234757 62.377989-81.092813 76.380434-101.212455 14.140092-20.317423 34.122932-51.940004 59.756352-94.618341 2.773342-4.617462 4.912589-9.588594 6.358849-14.775205l7.63329-27.386148c11.467692-41.1429294 48.945543-69.6032372 91.656766-69.6032372zm0 80.0000002h-12.813757c-6.800788 0-12.768281 4.531655-14.594249 11.082728l-7.634455 27.390326c-3.376441 12.108669-8.367654 23.707138-14.839527 34.482446-26.477431 44.083574-47.304718 77.042481-62.674054 99.126163-14.145634 20.325386-38.179039 52.279301-72.296883 96.155953l-2.191432 2.816832c-1.470088 1.888687-2.958444 3.798974-4.465083 5.730885-11.125919 14.273371-24.917054 26.253387-40.614179 35.282392l-20.472983 11.77108c-10.711965 6.158916-17.315627 17.573096-17.315627 29.929408v267.336604c0 5.451914 3.326435 10.352002 8.393441 12.36417l15.851915 6.29498c7.047512 2.79865 14.561656 4.236033 22.144523 4.236033h316.88471c21.255409 0 39.160136-15.879583 41.699251-36.98279l32.887201-273.333487c.19078-1.585619.286427-3.181241.286427-4.778296 0-22.09139-17.90861-40-40-40h-108.644939c-9.984548.000503-19.800149-2.576529-28.496747-7.481665-27.901007-15.736985-37.761674-51.113064-22.023135-79.013601 16.128238-28.591447 27.970283-59.091837 35.556514-91.612144 6.636437-28.448772 10.37828-59.996999 11.16104-94.648074.002697-.119546.004043-.238863.004043-.357928 0-8.721689-7.070326-15.792015-15.792015-15.792015zm-362.912229 329.284246h-119.707243c-7.179702 0-13 5.820298-13 13v287.434644c0 7.179702 5.820298 13 13 13h119.707243c7.179702 0 13-5.820298 13-13v-287.434644c0-7.179702-5.820298-13-13-13z"/></svg>