<svg height="960" viewBox="0 0 960 960" width="960" xmlns="http://www.w3.org/2000/svg"><path d="m669.458536 204.431087c116.400136 67.272309 189.660276 191.499283 189.660276 328.450101 0 209.381538-169.737274 379.118812-379.118812 379.118812s-379.118812-169.737274-379.118812-379.118812c0-136.055568 72.301742-259.591346 187.489538-327.185924 19.053093-11.180748 43.562465-4.798952 54.743214 14.254141 11.180748 19.053094 4.798952 43.562466-14.254141 54.743214-90.95573 53.374701-147.978611 150.804801-147.978611 258.188569 0 165.198758 133.920054 299.118812 299.118812 299.118812s299.118812-133.920054 299.118812-299.118812c0-108.089166-57.780217-206.066887-149.690914-259.185766-19.126818-11.054156-25.671003-35.520669-14.616848-54.647486 11.054156-19.126818 35.520668-25.671004 54.647486-14.616849zm-189.458536-104.5205898c22.09139 0 40 17.9086098 40 39.9999998v237.620365c0 22.09139-17.90861 40-40 40s-40-17.90861-40-40v-237.620365c0-22.09139 17.90861-39.9999998 40-39.9999998z"/></svg>