<svg height="960" viewBox="0 0 960 960" width="960" xmlns="http://www.w3.org/2000/svg"><path d="m810.989692 110.740631c50.810197 0 92 41.189803 92 92 0 16.237344-4.297388 32.185451-12.455675 46.224457l-322.285837 554.598387c-25.529063 43.931117-81.837665 58.84893-125.768782 33.319868-13.782565-8.009265-25.247578-19.462251-33.271305-33.236402l-323.0650133-554.598387c-25.5751598-43.904297-10.7164581-100.228526 33.1878393-125.803686 14.058737-8.189504 30.037826-12.504237 46.307923-12.504237zm0 80h-645.35085c-2.122187 0-4.206415.562791-6.040164 1.630987-5.726647 3.335891-7.664739 10.682529-4.328848 16.409177l323.065013 554.598387c1.046573 1.796628 2.542009 3.290496 4.339735 4.335183 5.730146 3.329877 13.074746 1.384076 16.404624-4.34607l322.285837-554.598387c1.064125-1.831175 1.624653-3.911363 1.624653-6.029277 0-6.627417-5.372583-12-12-12z" transform="matrix(0 1 1 0 8.259369 -8.259369)"/></svg>