<?xml version="1.0" encoding="utf-8"?>
<!-- Generator: Adobe Illustrator 21.0.0, SVG Export Plug-In . SVG Version: 6.00 Build 0)  -->
<svg version="1.1" id="Layer_1" xmlns="http://www.w3.org/2000/svg" xmlns:xlink="http://www.w3.org/1999/xlink" x="0px" y="0px"
	 viewBox="0 0 320.5 319.4" style="enable-background:new 0 0 320.5 319.4;" xml:space="preserve">
<style type="text/css">
	.st0{fill-rule:evenodd;clip-rule:evenodd;}
	.st1{fill:none;stroke:#FFFFFF;stroke-width:0.5669;stroke-miterlimit:22.9256;}
</style>
<path class="st0" d="M195.3,225c-10.2,5.4-21.9,8.5-34.3,8.5c-12.4,0-24-3.1-34.3-8.5l-42.2,43.1l-13.1,13.4
	c26,19.2,57.3,29.4,89.6,29.4s63.6-10.2,89.6-29.4l-13.1-13.4L195.3,225z"/>
<path class="st0" d="M262,245.7c19.7-23.1,31.6-53.1,31.6-85.9c0-36.6-14.8-69.7-38.8-93.7l-41.7,41.7L192.9,128
	c8.2,8.2,13.2,19.4,13.2,31.8c0,10.1-3.3,19.7-9.5,27.6l35,34.6l3.7-3.7L262,245.7z"/>
<path class="st0" d="M34.5,256.8c31.8-21.4,52.6-56.7,52.6-96.6c0-40.2-21.1-75.8-53.4-97.1C13.4,89.8,1.3,123.2,1.3,159.4
	C1.3,196.1,13.7,229.9,34.5,256.8"/>
<path class="st0" d="M63.3,33.2C84.8,65,120.1,85.8,160,85.8c40.3,0,75.8-21.2,97.2-53.5C231.7,13,200.3,1.1,166.1,0h-10.6
	C120.8,1.1,89,13.3,63.3,33.2"/>
<path class="st0" d="M93.6,234.1l25.6-26l-7.5-7.5l-25.6,26l2.5,2.5l-41.9,41.7c0.8,0.9,1.7,1.7,2.6,2.6l41.9-41.7L93.6,234.1z"/>
<path class="st0" d="M86,92.2l25.6,26l7.5-7.5l-25.6-26l-2.5,2.5L49.2,45.5c-0.9,0.9-1.7,1.7-2.6,2.6l41.9,41.7L86,92.2z"/>
<g>
	<path class="st0" d="M134.1,192.1c7.3,6,16.6,9.5,26.7,9.5c23.3,0,42.2-18.9,42.2-42.2c0-10.1-3.6-19.4-9.5-26.7L134.1,192.1z"/>
	<path class="st0" d="M186.6,126c-7.1-5.5-16.1-8.8-25.8-8.8c-23.3,0-42.2,18.9-42.2,42.2c0,9.7,3.3,18.7,8.8,25.8L186.6,126z"/>
</g>
<g>
	<path class="st0" d="M186.5,126.2c-0.1-0.1-0.2-0.1-0.2-0.2l-59.1,59.1c0.1,0.1,0.1,0.2,0.2,0.2L186.5,126.2z"/>
	<path class="st0" d="M235.2,222.4l-3.7,3.7l-38.8-38.4c6.5-7.4,10.5-17.2,10.5-27.8c0-10.3-3.7-19.7-9.8-27.1l-59.5,59.5
		c7.3,6.1,16.8,9.8,27.1,9.8c10.7,0,20.5-4,27.9-10.6l38.8,38.4l-3.7,3.7l24.8,25.4l11.2-11.2L235.2,222.4z"/>
</g>
<path class="st0" d="M277.1,50.5l-4,4c25.9,27.5,41.7,64.6,41.7,105.4c0,42.5-17.2,81-45.1,108.8c-5.4,5.4-11.1,10.3-17.2,14.8
	c-25.6,19-57.3,30.2-91.6,30.2c-34.3,0-66-11.2-91.6-30.2c-4.8-3.6-9.4-7.4-13.7-11.5l-4,4c28.6,26.9,67,43.4,109.3,43.4
	c88.1,0,159.5-71.4,159.5-159.5C320.5,117.5,304,79.1,277.1,50.5z"/>
</svg>
