<?xml version="1.0" encoding="utf-8"?>
<!-- Generator: Adobe Illustrator 21.0.0, SVG Export Plug-In . SVG Version: 6.00 Build 0)  -->
<svg version="1.1" id="Layer_1" xmlns="http://www.w3.org/2000/svg" xmlns:xlink="http://www.w3.org/1999/xlink" x="0px" y="0px"
	 viewBox="0 0 319 319" style="enable-background:new 0 0 319 319;" xml:space="preserve">
<style type="text/css">
	.st0{fill-rule:evenodd;clip-rule:evenodd;fill:#020204;}
</style>
<path class="st0" d="M159.5,0C71.4,0,0,71.4,0,159.5C0,247.6,71.4,319,159.5,319c88.1,0,159.5-71.4,159.5-159.5
	C319,71.4,247.6,0,159.5,0 M159.5,313.4c-34.3,0-66-11.2-91.6-30.2c-6.1-4.5-11.8-9.5-17.2-14.8C22.8,240.5,5.6,202,5.6,159.5
	c0-42.5,17.2-81,45.1-108.8c5.4-5.4,11.1-10.3,17.2-14.8c25.6-19,57.3-30.2,91.6-30.2c34.3,0,66,11.2,91.6,30.2
	c6.1,4.5,11.8,9.5,17.2,14.8c27.8,27.8,45.1,66.3,45.1,108.8c0,42.5-17.2,81-45.1,108.8c-5.4,5.4-11.1,10.3-17.2,14.8
	C225.5,302.2,193.8,313.4,159.5,313.4z"/>
<path class="st0" d="M159.5,117.3c23.3,0,42.2,18.9,42.2,42.2c0,10.7-3.9,20.4-10.5,27.8l38.8,38.4l3.7-3.7l24.8,25.4l-11.2,11.2
	l-24.8-25.4l3.7-3.7l-38.8-38.4c-7.4,6.6-17.2,10.6-27.9,10.6c-23.3,0-42.2-18.9-42.2-42.2c0-10.7,3.9-20.4,10.5-27.8L88.9,93.3
	L85.3,97L60.5,71.6l11.2-11.2l24.8,25.4l-3.7,3.7l38.8,38.4C139,121.3,148.8,117.3,159.5,117.3z"/>
<path class="st0" d="M125.2,94.3c10.2-5.4,21.9-8.5,34.3-8.5s24,3.1,34.3,8.5L236,51.3l13.1-13.4c-26-19.2-57.3-29.4-89.6-29.4
	S95.9,18.7,69.9,37.9L83,51.3L125.2,94.3z"/>
<path class="st0" d="M249.1,281.1L236,267.7l-42.2-43.1c-10.2,5.4-21.9,8.5-34.3,8.5s-24-3.1-34.3-8.5L83,267.7l-13.1,13.4
	c26,19.2,57.3,29.4,89.6,29.4C191.9,310.6,223.1,300.3,249.1,281.1z"/>
<path class="st0" d="M204.5,159.5c0,10.1-3.3,19.7-9.5,27.6l35,34.6l3.7-3.7l26.7,27.4c19.7-23.1,31.6-53.1,31.6-85.9
	c0-36.6-14.8-69.7-38.8-93.7l-41.7,41.7l-20.2,20.2C199.5,135.8,204.5,147.1,204.5,159.5z"/>
<path class="st0" d="M114.5,159.5c0-10.1,3.3-19.7,9.5-27.6L89,97.3l-3.7,3.7L58.5,73.6C38.8,96.8,27,126.7,27,159.5
	c0,36.6,14.8,69.7,38.8,93.7l41.7-41.7l20.2-20.2C119.5,183.2,114.5,171.9,114.5,159.5z"/>
</svg>
