<?xml version="1.0" encoding="utf-8"?>
<!-- Generator: Adobe Illustrator 21.0.0, SVG Export Plug-In . SVG Version: 6.00 Build 0)  -->
<svg version="1.1" id="Layer_1" xmlns="http://www.w3.org/2000/svg" xmlns:xlink="http://www.w3.org/1999/xlink" x="0px" y="0px"
	 viewBox="0 0 318.8 318.8" style="enable-background:new 0 0 318.8 318.8;" xml:space="preserve">
<style type="text/css">
	.st0{fill-rule:evenodd;clip-rule:evenodd;fill:#020204;}
</style>
<path class="st0" d="M33.1,256.9c31.9-21.4,52.7-56.8,52.7-96.7c0-40.3-21.2-75.8-53.5-97.2c-19,24.9-30.8,55.6-32.3,89v15
	C1.6,200.7,13.7,231.8,33.1,256.9"/>
<path class="st0" d="M62,33.1c21.4,31.9,56.8,52.7,96.7,52.7c40.2,0,75.8-21.1,97.2-53.4C230.4,13,198.9,1.1,164.6,0H154
	C119.4,1.1,87.6,13.3,62,33.1"/>
<path class="st0" d="M285.7,62c-31.8,21.4-52.6,56.7-52.6,96.6c0,40.2,21.1,75.8,53.4,97.1c20.3-26.8,32.4-60.2,32.4-96.4
	C318.8,122.7,306.5,89,285.7,62"/>
<path class="st0" d="M256.8,285.7c-21.4-31.8-56.7-52.6-96.7-52.6c-40.3,0-75.8,21.2-97.2,53.5c25.5,19.3,56.9,31.2,91.1,32.3h10.6
	C199.3,317.7,231.2,305.5,256.8,285.7"/>
<path class="st0" d="M117.7,110.7l-25.6-26l-2.5,2.5L47.8,45.4c-0.9,0.8-1.7,1.7-2.6,2.6l41.9,41.7l-2.5,2.5l25.6,26L117.7,110.7z"
	/>
<path class="st0" d="M226.6,84.7l-25.6,26l7.5,7.5l25.6-26l-2.5-2.5L273.5,48c-0.8-0.9-1.7-1.7-2.6-2.6L229,87.1L226.6,84.7z"/>
<path class="st0" d="M234.1,226.6l-25.6-26l-7.5,7.5l25.6,26l2.5-2.5l41.9,41.7c0.9-0.9,1.7-1.7,2.6-2.6l-41.9-41.7L234.1,226.6z"/>
<path class="st0" d="M92.2,234.1l25.6-26l-7.5-7.5l-25.6,26l2.5,2.5l-41.9,41.7c0.8,0.9,1.7,1.7,2.6,2.6l41.9-41.7L92.2,234.1z"/>
<path class="st0" d="M117.1,159.4c0,23.3,18.9,42.2,42.2,42.2c23.3,0,42.2-18.9,42.2-42.2s-18.9-42.2-42.2-42.2
	C136,117.2,117.1,136.1,117.1,159.4"/>
</svg>
