<svg height="960" viewBox="0 0 960 960" width="960" xmlns="http://www.w3.org/2000/svg"><path d="m346.280283 3.19557887 1.023717.14442113 440.493803 34.0979452c11.105505.8596766 21.34084 6.3099097 28.252163 15.0241578l.33721.4311953 123.28936 159.8905207c5.396607 6.998709 8.323464 15.587617 8.323464 24.425337v.22269c0 2.246233-.186116 4.452797-.544422 6.604173l-.097578.555981v471.758l.100926.577798c.323751 1.950007.506032 3.945207.541074 5.974021v.808307c0 8.836583-2.926105 17.424451-8.321436 24.422707l-20.771095 26.942077c-6.317907 8.194924-15.254533 13.315468-24.803862 14.982115l-.404607.067975-44.243 55.298.035622.248129c1.377712 10.226675-1.227705 20.807748-7.654446 29.365958l-.308923.405995-21.427487 27.79348c-5.964731 7.736821-14.554605 13.02334-24.149126 14.862247l-44.993203 8.623493c-4.99635.957611-10.12951.953339-15.124259-.012588l-28.625178-5.535714-266.921 17.258-.289999.339222c-6.520581 7.48954-15.802833 12.547355-26.354183 13.556447l-.62212.054676-48.7583 3.908266-.100794.007951-10.532604.817438-.268601.092764c-6.470559 2.126811-13.759659 2.588954-21.510661.78103l-1.16607-.288289-134.502184-35.132835c-7.074154-1.847814-13.50653-5.599224-18.598072-10.846534l-19.800119-20.405876c-6.252007-6.443278-9.747166-13.857755-10.956166-21.367941l-43.710127-45.348319-.29286-.056188c-7.7467853-1.549414-14.8665289-5.359781-20.4555704-10.955497l-.4062094-.412622-47.6705135-49.128926c-8.67252-8.937843-12.040455-19.752516-11.3561067-30.098749l.06326-.803018v-507.72813c0-12.36694 5.6580703-23.602312 14.715185-30.997846l.034815-.027024 139.835018-144.1081585c4.94128-5.0922292 11.145346-8.7755978 17.973267-10.6774663l.62242-.1679791 134.502185-35.13943631c5.457475-1.42579541 10.697386-1.72436894 15.597393-1.10338092zm-.332986 40.20195823-22.579497 25.1690917 79.67941 80.0828322c3.638322 3.656727 3.898168 9.480899.599944 13.447101l-109.297541 131.433187c-3.614287 4.346277-10.109841 4.835169-14.333975 1.078857l-80.563838-71.641977.000497 530.270908 146.424 163.227 53.948503-5.005908-.000578-25.636965c-.158815-.677432-.248923-1.38185-.262451-2.10567-.015991-.85564.075968-1.688185.263351-2.484632l-.000114-46.401684c-.180736-.768692-.272674-1.571273-.264491-2.396194.0075-.755997.0987-1.491566.264712-2.197995l.000483-27.568159c0-5.352662 4.21486-9.756185 9.562394-9.990421l333.603287-14.612676c5.689128-.249198 10.437606 4.295838 10.437606 9.990421l-.000199 97.464975 34.993402-6.705774 21.427487-27.79348-6.723041-11.718607 75.198377-93.987524 8.006775 4.800385 21.026-29.041v-482.2l-16.058-22.181-106.856665-138.5983928-.43421-.034159.996413-.1891484 97.549462 126.7427002-1.172-1.62-3.6-4.972-93.072159-120.7029939-417.932841-32.3520063zm-268.1634968 708.0310919 32.8867138 33.892094 12.130093 2.063226 75.48264 78.297831-11.791801-2.22049 19.800119 20.405876 104.983235 27.422463-128.342698-143.459919zm622.4999998 48.525-280.458088 12.285025-.000125 12.358085c12.040574 4.9649 20.278216 18.280156 20.278216 33.344015 0 15.066227-8.236466 28.432472-20.277878 33.46653l-.001125 8.011345 35.95-2.071 244.509-15.809zm-228.624738 19.579728c17.325484.171594 30.444741 16.397072 30.444741 35.407397 0 18.980876-13.072675 35.263593-30.356914 35.58663-17.51905.327425-30.730642-16.012249-30.730642-35.406141 0-19.364444 13.16407-35.760998 30.642815-35.587886zm63-4c17.325484.171594 30.444741 16.397072 30.444741 35.407397 0 18.980876-13.072675 35.263593-30.356914 35.58663-17.51905.327425-30.730642-16.012249-30.730642-35.406141 0-19.364444 13.16407-35.760998 30.642815-35.587886zm198.76965-17.031703-13.144912.575975v83.884l10.908 2.109 2.237.261zm-134.76965 14.031703c17.325484.171594 30.444741 16.397072 30.444741 35.407397 0 18.980876-13.072675 35.263593-30.356914 35.58663-17.51905.327425-30.730642-16.012249-30.730642-35.406141 0-19.364444 13.16407-35.760998 30.642815-35.587886zm64-5c17.325484.171594 30.444741 16.397072 30.444741 35.407397 0 18.980876-13.072675 35.263593-30.356914 35.58663-17.51905.327425-30.730642-16.012249-30.730642-35.406141 0-19.364444 13.16407-35.760998 30.642815-35.587886zm-191.198073 31.998715c-5.213286-.051329-10.444742 6.46473-10.444742 15.589171 0 9.094992 5.183933 15.506314 10.356914 15.409633 5.407792-.10107 10.730642-6.730966 10.730642-15.590122 0-8.829708-5.276267-15.355227-10.642814-15.408682zm63-4c-5.213286-.051329-10.444742 6.46473-10.444742 15.589171 0 9.094992 5.183933 15.506314 10.356914 15.409633 5.407792-.10107 10.730642-6.730966 10.730642-15.590122 0-8.829708-5.276267-15.355227-10.642814-15.408682zm64-3c-5.213286-.051329-10.444742 6.46473-10.444742 15.589171 0 9.094992 5.183933 15.506314 10.356914 15.409633 5.407792-.10107 10.730642-6.730966 10.730642-15.590122 0-8.829708-5.276267-15.355227-10.642814-15.408682zm-178.635601 21.952459.000851 6.908213c.180761-1.103091.277564-2.25727.277564-3.45199 0-1.197957-.097122-2.353501-.278415-3.456223zm242.635601-26.952459c-5.213286-.051329-10.444742 6.46473-10.444742 15.589171 0 9.094992 5.183933 15.506314 10.356914 15.409633 5.407792-.10107 10.730642-6.730966 10.730642-15.590122 0-8.829708-5.276267-15.355227-10.642814-15.408682zm-64.22136-742.1686669 164.731623 9.3682333c9.139547.519763 17.61888 4.9289013 23.293441 12.1122736l100.875227 127.696983c4.462359 5.648857 6.889665 12.637339 6.889665 19.836105v439.725179c0 21.41845-16.871313 39.036059-38.269715 39.962559l-574.462695 24.872887c-.590835.025582-1.182154.038377-1.773542.038377-22.643675 0-41-18.356325-41-41v-326.575584c0-.441227.012457-.882365.037358-1.322888.730611-12.925318 11.800929-22.811081 24.726246-22.080471l.989347.055924c12.708362.718347 22.645549 11.233101 22.645549 23.96175v313.884138c0 .058107.001266.116207.003797.174258.096241 2.207042 1.963419 3.918185 4.170461 3.821944l549.866381-23.977442c2.139335-.093288 3.825742-1.854834 3.825742-3.996203v-417.764518c0-.89405-.299523-1.762327-.850755-2.466223l-90.227439-115.216031c-.708807-.905112-1.77278-1.461496-2.920522-1.527233l-152.45528-8.731815c-5.138694-.294317-9.214644-4.441244-9.420213-9.584252l-1.234476-30.8846966c-.235822-5.8998983 4.664716-10.7185058 10.5598-10.3832543zm-419.845829 128.7482239-49.68 7.752-65.7139998 10.607v495.003l115.3949878 18.623844zm429.709833-108.155356.432 10.811 143.397782 8.212873c6.736749.385845 12.992496 3.588976 17.242768 8.812199l.280364.351199 90.227439 115.216031c3.307389 4.223374 5.104528 9.433035 5.104528 14.797335v417.764518c0 12.848211-10.118438 23.417488-22.954451 23.977215l-549.866381 23.977443c-13.24225.577441-24.445323-9.689416-25.022764-22.931666-.015188-.348309-.022785-.696909-.022785-1.045549v-313.884138c0-2.121442-1.656198-3.873901-3.774258-3.993625l-.989347-.055924c-1.897227-.107242-3.52217 1.343828-3.634895 3.241055v326.769763c0 11.59798 9.40202 21 21 21 .302906 0 .605777-.006554.908399-.019656l574.462696-24.872887c10.6992-.46325 19.134857-9.272055 19.134857-19.98128v-439.725179c0-2.699537-.91024-5.320218-2.583624-7.43854l-100.875227-127.696982c-2.127961-2.693765-5.307711-4.347192-8.735041-4.542103zm-103.603633 305.043727c11.321837 0 20.5 12.312169 20.5 27.5s-9.178163 27.5-20.5 27.5-20.5-12.312169-20.5-27.5 9.178163-27.5 20.5-27.5zm145-2c11.321837 0 20.5 12.312169 20.5 27.5s-9.178163 27.5-20.5 27.5-20.5-12.312169-20.5-27.5 9.178163-27.5 20.5-27.5zm-339.5082-325.5213712-43.442 48.4280002-61.410698 69.353923 80.441 71.533 96.871-116.489zm-34.873618 91.5213712c18.245491 0 32.718182 15.607804 32.718182 34.5s-14.472691 34.5-32.718182 34.5-32.718182-15.607804-32.718182-34.5 14.472691-34.5 32.718182-34.5zm0 20c-6.84832 0-12.718182 6.330244-12.718182 14.5s5.869862 14.5 12.718182 14.5c6.848319 0 12.718182-6.330244 12.718182-14.5s-5.869863-14.5-12.718182-14.5zm3.281618-108.5453712-105.261 25.8490002-94.2069998 97.085 47.0669998-7.344 57.253-9.242zm42.482018 32.5453712c18.245491 0 32.718182 15.607804 32.718182 34.5s-14.472691 34.5-32.718182 34.5-32.718182-15.607804-32.718182-34.5 14.472691-34.5 32.718182-34.5zm0 20c-6.848319 0-12.718182 6.330244-12.718182 14.5s5.869863 14.5 12.718182 14.5c6.84832 0 12.718182-6.330244 12.718182-14.5s-5.869862-14.5-12.718182-14.5zm-10.777018-87.9833712-103.813235 27.1228075-6.918765 7.1281925 102.64-25.206z"/></svg>