<?xml version="1.0" encoding="UTF-8"?>
<svg width="960px" height="960px" viewBox="0 0 960 960" version="1.1" xmlns="http://www.w3.org/2000/svg" xmlns:xlink="http://www.w3.org/1999/xlink">
    <!-- Generator: Sketch 57.1 (83088) - https://sketch.com -->
    <title>Xiaomi-Clear-Grass-Air-Detector</title>
    <desc>Created with Sketch.</desc>
    <g id="Xiaomi-Clear-Grass-Air-Detector" stroke="none" stroke-width="1" fill="none" fill-rule="evenodd">
        <path d="M662.022546,48.0406108 C673.343897,48.517308 682.897158,52.0994304 690.241859,58.5232752 L723.287115,83.3598645 C735.104136,91.9997174 738.21968,109.806821 735.070544,136.732243 C732.356284,159.939431 719.191466,276.592383 695.585009,486.612758 C806.799013,492.258095 876.535839,495.741794 904.774455,497.06285 C938.698771,498.649894 958.135324,516.990936 959.945601,549.627259 L960,550.71143 L960,839.946612 C960,879.866805 943.282184,902.98621 910.804801,904.747273 L909.879201,904.791289 L600.632657,912 L557.13451,911.435003 C553.451186,911.811315 549.632504,912 545.678436,912 C543.375658,912 539.930604,911.711518 535.16844,911.15335 L47.6156924,904.796846 C38.6430076,904.782814 28.9500431,902.082555 18.4754199,896.871465 C4.14288587,889.741077 -2.23068541,873.611224 -1.99363231,850.099688 L-1.96986193,848.797052 L8.19646647,777.84625 C8.09044806,776.758459 8.11371783,775.65587 8.27585028,774.552796 L102.834015,131.222658 L102.911156,130.87251 C110.845582,94.857301 137.308405,75.4527729 179.564365,73.6697704 C217.404603,72.0730906 375.572987,63.5291439 653.883535,48.0472837 L654.108209,48.0347855 L654.333217,48.032271 C658.299833,47.9879428 660.771703,47.9879428 662.022546,48.0406108 Z M613.844754,781.052316 L28.193,781.068 L18.2638614,850.369124 C18.0970219,866.917667 21.6231178,875.833501 27.5028405,878.758643 C35.39903,882.686971 42.1473624,884.562747 47.6859766,884.562747 L47.8181068,884.563608 L536.497323,890.934798 L537.028141,890.997956 C541.31257,891.507725 544.319481,891.764311 545.678436,891.764311 C549.141116,891.764311 552.440161,891.593093 555.57554,891.253031 L556.186024,891.186819 L575.843412,891.443702 C590.290665,885.165649 600.066322,873.422437 605.463657,856.06326 C608.329525,830.403498 611.123222,805.399868 613.844754,781.052316 Z M684.068261,501.570475 L653.157398,764.588228 C653.059581,774.661112 648.157582,780.910906 639.218701,781.065577 L638.877311,781.068516 L624.040699,781.053243 C621.426317,804.441861 618.745278,828.436503 615.997588,853.037121 L615.481615,857.656838 L615.429645,858.122156 L615.293041,858.570047 C610.994837,872.662814 604.052682,883.718826 594.565986,891.686964 L600.528062,891.764311 L909.163024,884.568322 L909.774513,884.53943 C930.098387,883.437242 939.747494,870.093297 939.747494,839.946612 L939.747494,551.217359 L939.721311,550.693642 C938.500628,528.68845 927.583028,518.386203 903.827183,517.274859 C874.676697,515.911144 801.44697,512.250099 684.114959,506.290619 L684.354,501.584 L684.068261,501.570475 Z M558.65447,819 C563.893361,819 566.709983,822.466178 565.845697,827.5 C564.981411,832.533822 560.525462,836 555.211287,836 L64.987266,836 C59.6730906,836 56.1729479,832.19442 57.1694784,827.5 C58.1660088,822.80558 63.2208165,819 68.4597073,819 L558.65447,819 Z M654.783974,68.2626881 C376.448381,83.7458041 218.388647,92.2837606 180.418939,93.8859035 C146.998106,95.2961052 128.680461,108.629299 122.765658,134.883427 L29.274,770.952 L614.975208,770.939585 C660.957206,359.622021 686.032208,138.379126 690.231164,106.944824 C691.47229,97.6534873 690.929006,89.4074213 688.648951,82.6450422 L677.397267,74.1897049 L677.073441,73.8997076 C673.303422,70.5235265 668.12649,68.5497395 661.169777,68.25682 C660.436978,68.2259647 658.222796,68.2253132 654.783974,68.2626881 Z M700.737702,91.7313685 C701.202069,96.9237139 701.051013,102.47566 700.275324,108.282638 C696.095045,139.577111 671.050176,360.55029 625.171579,770.936853 L638.877311,770.952379 C641.859418,770.952379 642.986019,769.594535 643.02989,764.590596 L643.031229,764.279657 L643.031229,763.983789 L674.117,499.476 L674.085522,499.474333 L674.200275,495.553744 L674.246963,495.138344 C698.622776,278.256941 712.188963,158.032901 714.954905,134.383825 C717.32515,114.117998 715.292667,102.565389 711.310373,99.6767416 L711.172162,99.5746862 L700.737702,91.7313685 Z M635,135 L570.150399,669.874329 L85,673 L155.486566,153.781969 L635,135 Z" id="Combined-Shape" fill="#000000"></path>
    </g>
</svg>