<svg height="960" viewBox="0 0 960 960" width="960" xmlns="http://www.w3.org/2000/svg"><path d="m635.250764 2.28386436 30.644281 7.33050044c13.198753 3.1573089 23.725079 12.121653 29.219456 23.7577236l.116499.2529116 1.976 1.834 13.955 8.482.302387.1505215c.307025.1549831.618758.3165818.943486.4899054l.497876.2694179c2.268636 1.2439955 4.408145 2.6173934 6.850151 4.6545698l.866069.7295841.695031.5960013.189755.1509641c5.195906 4.1557237 9.835416 8.9574428 13.814524 14.2820586l.189721.2579773.258798.3213574c14.649743 18.3821402 22.818555 40.6875196 24.639509 65.8253196l.063054.909827.082092 1.294434c1.48048 24.127765 9.755931 193.563401 17.88003 365.202626l2.311052 48.976121c.14571 3.097704.291153 6.191649.436286 9.280979.321397 6.841294-1.119777 13.554654-4.070763 19.547901l-.094058.186435 1.602 26.999.07243.120881c3.212167 5.419983 5.130971 11.576388 5.517338 17.987656l.029359.55015 2.644024 57.238914c3.945449 86.029905 6.117849 136.744205 6.117849 144.298463 0 41.69374-29.085383 79.194085-68.681324 93.318908-20.168771 7.194684-92.20633 17.471-229.474854 33.535368-.616837.072187-1.235271.13-1.8548.173389l-30.672867 2.146317c-48.901028 3.379503-63.525897 3.981804-84.854225 3.436131-32.328108-.827096-58.026273-5.853947-82.916616-17.127531l-1.162433-.532147-2.0347-.953606-1.240688-.600592c-4.298079-2.101409-11.115552-5.622819-18.329699-9.468127l-3.350044-1.793765-3.929231-2.125266-3.610773-1.974188-2.142954-1.182273-3.058911-1.701176c-15.271153-8.526251-23.930925-13.883623-29.873112-19.478165l-.256655-.2434c-16.775003-16.025243-25.826357-38.079848-28.372141-64.531768-.168784-1.753747-.221515-3.516729-.157848-5.277429l7.224321-199.787211c.259772-7.145142 2.249378-14.02002 5.689316-20.090292l.251238-.436241.30994-4.122009c.141403-1.834571.29696-3.804487.466989-5.917079l.761071-9.267912.195-11.054-.061177-.144987c-1.348282-3.27109-2.301748-6.532271-3.03557-9.914283l-.165524-.782669c-1.162534-5.640276-1.741769-12.130979-1.578502-16.647672l15.192538-420.279641.659123-16.125355c.101214-2.476185.432331-4.937607.98908-7.352513l2.219393-9.6266519c5.589908-24.2463065 20.963989-45.1111143 42.47976-57.7373066l22.262264-13.0606577c.197094-.1156294.395174-.2295677.594221-.3418025 5.958102-3.3595531 14.412446-7.1459928 25.102974-10.6681017 15.625183-5.1478836 33.337235-8.79460129 52.993358-10.30025144 10.239265-.78432304 21.565225-1.08730933 33.84956-.98456278 15.918801.13314534 32.761505.93412831 49.662395 2.18511556l2.641201.19921275c4.797327.36860903 9.344372.7550248 13.583776 1.14581143l3.240587.30531227 4.528178.45236844 7.883126.84292817 4.839948.5252989c23.288211 2.5412635 45.056485 5.1162469 65.333656 7.729242l1.147635.1491651.181264-.076864c10.39156-4.3419129 18.952085-7.2304145 26.483263-8.7222561l.577304-.11200325c4.632577-.8797317 9.562706-1.35440406 14.896336-1.48085813l.743833-.01401852.48645-.30698818c10.345245-6.43198651 23.081259-8.7729071 35.596314-5.77914746zm114.27203 840.46855064-.39964.189203c-7.790883 3.65021-18.472118 6.210013-32.237445 8.053512l-4.004688.52088c-26.170971 3.364487-80.665793 9.829108-135.960005 16.142589l-25.434425 2.886548c-40.276315 4.542224-78.706975 8.73422-104.41829 11.291555-36.953663 3.675537-71.993701 3.455116-102.775384.102521l-1.486103-.164664c-25.257524-2.846431-46.154251-7.75492-56.065197-12.762833l-4.713086-2.35885c-9.353167-4.644831-23.517587-11.502009-42.470503-20.55992 2.742905 10.391409 7.28613 18.616737 13.628607 24.675736 2.69046 2.57021 12.036582 8.151181 22.439162 13.964455l2.51898 1.40096 2.014245 1.111202 3.527634 1.928606 2.657413 1.43927 3.592117 1.928109c6.068457 3.240783 11.610921 6.117353 15.450523 8.045721l1.356659.67702c.706882.350207 1.333609.656167 1.869569.912615l1.720662.805018c41.097485 18.880643 84.323431 15.138911 168.948239 9.170084l10.912563-.764279 11.669464-1.370753c124.087923-14.631559 193.759706-24.668366 209.015351-30.11042 17.497154-6.241655 32.209955-20.260444 38.643578-37.153885zm-8.329794-284.216515-.004602-.124132.01712.364382-.11292.097663-.162263.133985c-.813736.634453-2.479291 1.178737-4.996668 1.632852l2.958518 49.553977c-46.533596 11.201468-432.54206 16.074698-460.71954 10.471163l-3.362418-.674182c-11.305779-2.286355-19.59206-4.168957-24.858846-5.647806l-.159384 2.285088c-.262567 3.871206-.393796 6.435881-.393796 7.694218 0 1.010858-1.187166 2.397765-3.56202 4.160019-.974911.724181-1.568021 1.852058-1.612145 3.065706l-6.948667 192.16371c1.296708.058557 2.603366.372128 3.848667.96597l20.166812 9.650062c12.902153 6.199536 22.945942 11.085845 30.141844 14.664276l3.802439 1.9027c.177822.08963.353235.178154.526238.265571l.48413.237716c7.660759 3.659174 26.194591 7.953861 48.801064 10.501529 29.266827 3.298264 62.805696 3.619006 98.295286.205431l6.798506-.677782c22.248101-2.250656 52.538089-5.539311 84.924994-9.163744l25.203464-2.839818 16.463643-1.874393 29.918655-3.442764c45.033077-5.217259 85.751232-10.096094 106.039775-12.733036l.724396-.094332c17.805279-2.323172 28.560602-5.905952 31.438837-9.151174l.098313-.114394c2.026311-2.435882 4.965401-3.66476 7.904737-3.602875l-.192515-5.483565c-1.024303-27.721128-4.294493-100.360235-8.383403-188.346349l-4.418156-3.6884c-.212436-.176778-.34224-.43359-.358599-.709473l-3.504496-59.099143c2.48037-.449868 4.121442-.989061 4.923215-1.617581l.159877-.132732.142797-.124491zm-122.69781-514.192483-.282568.4858501c-1.577731 2.6078697-4.442427 4.1161223-7.445921 3.8969364-8.417487-.6142815-15.009551-.4688275-19.776192.4363633-5.345158 1.0150516-13.41556 3.8940221-24.211207 8.6369115l-2.056121.9111346c-1.903771.2041907-3.060598.5571034-3.467356 1.0599648l-5.118094-.6770484-5.974586-.7771544c-21.407614-2.7599438-44.571442-5.4849878-69.491483-8.175132l-8.401101-.8959225c-9.742458-.9988152-61.84838-6.0308378-99.63959-3.1360482-36.633485 2.8061084-58.14652 14.0504308-61.411502 15.8754968l-22.355614 13.1130612c-12.046159 7.069099-20.629495 18.7179038-23.742947 32.2225458l-2.219393 9.626652-.659124 16.125354-15.187735 420.090966c-.045875 1.337271.586341 13.042139 4.644698 13.885246.135376.028124.238668.119945.309877.275462l.03001.074655 1.65756.190313 4.764159.513067c2.974742.30544 5.410599.520533 5.779489.462144 6.118664-.96848 10.761792-9.494144 10.868824-23.480584l.001889-.49533c0-16.256098 5.816058-208.697042 6.047538-231.012997l.007097-1.14601c0-15.57467 18.628955-30.018332 18.628955.413274l-.00628 2.007146c-.073792 12.928185-.788881 44.342406-1.671148 80.003052l-.742782 29.569554-2.026697 79.763711c-.492746 20.000507-.829845 34.9583-.856024 40.209975l-.001642.605569c0 17.948669 5.991821 27.055033 17.310865 27.235365l.344631.002733c.290351 0 .570807.017225.841366.051675l-.020301.001748 6.568511.100084c10.592759.139962 23.30386.213736 37.601628.22317h5.628271l7.941459-.01006c131.94234-.262877 370.888222-5.348247 370.448716-14.249567l.032675.053157-3.12897-66.30721c-7.92664-167.256195-16.283723-338.512882-17.499372-356.882942-1.195556-18.066431-6.780216-33.163186-16.753914-45.2901735-2.227776-3.1288321-4.912911-5.9160754-7.979272-8.2535348-.555424-.4913371-1.120111-.9764066-1.694061-1.4552087-.196436-.1638719-.522314-.3392214-.891645-.5178676l-1.090271-.5080938-15.907789-9.6701041c-2.1769-1.3233334-4.218749-2.8669512-6.094898-4.6076824l-8.804533-8.1690368c-1.239455-1.1499925-1.974505-2.757704-2.048445-4.4611654l-.011953-.4914234c-.088229-1.574924-1.178543-2.9161953-2.693787-3.2786608l-30.644281-7.3305005c-2.89582-.6927167-5.88905.5874582-7.449619 3.1571208z"/></svg>