<svg height="960" viewBox="0 0 960 960" width="960" xmlns="http://www.w3.org/2000/svg"><path d="m480 223c76.393719 0 148.911793 9.922486 206.877265 27.95759 29.464225 9.16736 54.888132 20.342693 75.25366 33.341786 11.082379 7.07376 20.741637 14.730692 28.847107 23.025823 7.367754 7.540152 13.466104 15.620614 18.097358 24.268707.75544 1.080847 1.446295 2.215419 2.08274 3.389471 8.686897 16.024757 22.78184 36.906496 42.175455 62.271656 20.001198 26.159825 46.946796 58.840504 80.774674 97.941915 1.053068 1.217234 2.0303 2.495289 2.92264 3.829628 4.609102 5.791184 8.376657 11.95943 11.202364 18.526768 3.774758 8.773068 5.766737 18.050416 5.766737 27.546656v43.4c0 8.984804-1.784104 17.783877-5.18167 26.14769-3.052165 7.513537-7.336288 14.523046-12.682483 21.054597-9.025218 11.026285-21.066152 20.704488-35.888531 29.465498-25.609362 15.136833-60.671138 28.111398-103.661548 38.859001-84.289031 21.072257-196.837117 32.973214-316.585768 32.973214s-232.296737-11.900957-316.585768-32.973214c-42.99041-10.747603-78.0521862-23.722168-103.6615476-38.859001-14.8223792-8.76101-26.8633134-18.439213-35.8885312-29.465498-5.3461951-6.531551-9.6303185-13.54106-12.6824834-21.054597-3.39756587-8.363813-5.1816698-17.162886-5.1816698-26.14769v-43.4c0-9.49624 1.99197884-18.773588 5.7667371-27.546656 2.8257068-6.567338 6.5932624-12.735584 11.2023643-18.526768.8923485-1.334351 1.8695765-2.6124 2.9226395-3.829628 33.8278781-39.101411 60.7734765-71.78209 80.7746741-97.941915 19.393615-25.36516 33.488558-46.246899 42.175455-62.271656.636454-1.174069 1.32732-2.308656 2.08274-3.389471 4.631271-8.648116 10.729615-16.728566 18.097358-24.268707 8.10547-8.295131 17.764728-15.952063 28.847107-23.025823 20.365528-12.999093 45.789435-24.174426 75.25366-33.341786 57.965472-18.035104 130.483546-27.95759 206.877265-27.95759zm0 257c-239.690246 0-433.997835 48.576563-434 108.498999 0 59.923896 194.308419 108.501001 434 108.501001s434-48.577105 434-108.5-194.308419-108.5-434-108.5zm0-43.4c-210.836914 0-386.5613258 37.585416-425.8126975 87.41722-.0318089.04115-.0640568.082216-.0962121.12329l-1.2226758 1.627929c-.0105353.014646-.0210588.029292-.0315705.043939l-1.1260846 1.641778c-.0176565.026989-.0352731.05398-.05285.080975l-1.0246528 1.654249c-.0137231.023347-.0274165.046696-.0410801.070048-.6574061 1.12278-1.2454217 2.250879-1.76358 3.384284-.0136156.030642-.0278883.061979-.0421077.09332l-.7069559 1.6737c-.0095044.024298-.0189767.048599-.0284169.072901l-.6046574 1.69381c-.0026075.008009-.0052116.016018-.0078121.024027l-.50803 1.735921c-.0043507.01669-.0086864.033381-.0130069.050073l-.3913191 1.722018c-.0046295.023655-.0092287.047313-.0137977.070973l-.2718827 1.672157c-.0049403.037391-.0098049.074787-.0145939.112188l-.1667307 1.723431c-.0003709.005664-.0007401.011328-.0011076.016993l-.0581778 1.791778-.0005178 1.67746c6.5024189-6.267686 14.5038127-12.153521 23.9297955-17.724903 23.7064834-14.012105 57.0603891-26.354675 98.3356661-36.673495 82.577271-20.644317 193.525129-32.376064 311.735056-32.376064s229.157785 11.731747 311.735056 32.376064c41.275277 10.31882 74.629183 22.66139 98.335666 36.673495 9.426465 5.571667 17.428195 11.457819 23.930793 17.725865l-.001515-1.675424-.001-.002-.057144-1.792246c-.00038-.005861-.000662-.010193-.000945-.014525l-.167184-1.728432c-.004449-.03473-.008964-.069455-.013544-.104176l-.273835-1.684165c-.003865-.019993-.007752-.039986-.011661-.059977l-.392556-1.728017c-.003457-.013353-.006923-.026706-.0104-.040058-.15193-.583533-.322199-1.165459-.510754-1.746093l-.616751-1.728662c-.006473-.016646-.012961-.03329-.019465-.049933l-.716698-1.696687c-.009994-.022005-.020013-.044007-.030059-.066008-.52245-1.14422-1.116462-2.283661-1.780609-3.417406-.006762-.011542-.013413-.022884-.020071-.034224l-1.046306-1.689256c-.008905-.013663-.017821-.027326-.026746-.040988l-1.141116-1.664769c-.010512-.014647-.021035-.029293-.031571-.043939l-1.239153-1.648966c-.02643-.033725-.052923-.067445-.079477-.101159l-1.326918-1.619139c-.009085-.010669-.018176-.021338-.027274-.032007-41.793427-49.009183-215.95552-85.767168-424.458763-85.767168zm0-173.6c-148.951179 0-272.502693 39.401774-295.588473 91.007471l-.404248.038803c-9.82341 18.121286-25.011601 40.622679-45.564573 67.504177-11.261761 14.729403-24.589301 31.377587-39.9826188 49.944552 19.6256948-8.29194 43.0518738-15.83075 69.8062088-22.519277 82.577147-20.644111 193.524436-32.375726 311.733704-32.375726 118.209927 0 229.157785 11.731747 311.735056 32.376064 26.752772 6.688193 50.177738 14.226574 69.804907 22.518691-15.393847-18.567315-28.72111-35.215166-39.982669-49.944304-20.552972-26.881498-35.741163-49.382891-45.564573-67.504177l-.404248-.038803c-23.08578-51.605697-146.637294-91.007471-295.588473-91.007471z"/></svg>