<?xml version="1.0" encoding="UTF-8"?>
<svg width="960px" height="960px" viewBox="0 0 960 960" version="1.1" xmlns="http://www.w3.org/2000/svg" xmlns:xlink="http://www.w3.org/1999/xlink">
    <!-- Generator: Sketch 54.1 (76490) - https://sketchapp.com -->
    <title>alarm_noise</title>
    <desc>Created with Sketch.</desc>
    <g id="alarm_noise" stroke="none" stroke-width="1" fill="none" fill-rule="evenodd">
        <path d="M425.59262,877.071538 C421.608768,884.197799 416.071889,889.763069 408.576845,893.970957 C393.586758,902.454601 376.435938,902.591018 361.918512,893.970957 C354.69356,889.695879 349.089158,883.858453 344.767692,876.122048 C340.446225,868.317096 338.285492,860.443595 338.285492,852.028499 C338.285492,843.476307 340.378702,835.603485 344.700169,827.93495 C348.954112,820.265057 354.558514,814.564048 361.64842,810.35616 C368.805849,806.148273 376.503461,804.112198 385.011348,804.112198 C398.245839,804.112198 409.117029,808.592241 418.097576,817.889636 C427.145647,827.18771 431.602159,838.521859 431.602159,852.570773 C431.602159,861.800978 429.576471,869.809538 425.59262,877.071538 M458.27371,715 L440.177569,715 C434.775736,715 430.386746,719.411495 430.386746,724.841027 L430.386746,782.054723 C427.010601,779.475696 423.499409,777.168144 419.785649,775.267808 C408.91446,769.49893 396.692812,766.648426 383.458321,766.648426 C360.568054,766.648426 340.716317,775.064201 324.443295,791.556405 C308.237795,808.048609 300,828.205747 300,851.416998 C300,875.035463 308.170273,895.464757 324.173203,911.956282 C340.311179,928.584225 360.095393,937 382.918138,937 C395.747492,937 407.76657,934.285234 418.637759,928.855702 C422.689134,926.819627 426.605463,924.444207 430.319223,921.729441 L430.319223,923.426169 C430.319223,928.855702 434.708213,933.267197 440.110046,933.267197 L458.206187,933.267197 C463.60802,933.267197 467.997009,928.855702 467.997009,923.426169 L467.997009,724.841027 C468.132055,719.411495 463.675543,715 458.27371,715" id="Fill-6" fill="#000000"></path>
        <path d="M532.475,839.875994 L533.555,839.875994 C552.7925,839.875994 561.5675,841.027345 565.55,841.976194 C573.38,843.87186 579.2525,847.190461 583.571825,852.066773 C587.555,856.672178 589.5125,861.887122 589.5125,868.050916 C589.5125,872.92655 588.094325,877.328776 585.259325,881.527822 C582.356825,885.862321 578.5775,888.910016 573.784325,890.941812 C570.14,892.499523 562.444325,894.32814 546.581825,894.32814 L532.5425,894.32814 L532.5425,839.875994 L532.475,839.875994 Z M573.8525,777.093482 C573.8525,781.699564 572.6375,785.694754 570.071825,789.488118 C567.506825,793.280127 564.065,795.92214 559.609325,797.682353 C556.1,799.10461 548.7425,800.730048 533.69,800.730048 L532.475,800.730048 L532.475,758.536407 L544.9625,758.536407 C558.8,758.536407 565.28,761.448649 568.25,763.886804 C572.096825,767.002226 573.8525,771.201949 573.8525,777.093482 L573.8525,777.093482 Z M623.6,842.314827 C620.021825,834.526273 614.8925,827.753618 608.4125,822.267091 C605.509325,819.761208 602.134325,817.526232 598.2875,815.426709 C601.19,812.446741 603.6875,809.195866 605.78,805.674086 C610.8425,797.140541 613.406825,787.52337 613.406825,777.161208 C613.406825,766.122458 610.505,755.895072 604.7675,746.751987 C598.9625,737.608903 590.996825,730.700795 581.006825,726.298569 C571.421825,722.031797 558.596825,720 541.79,720 L503.7875,720 C498.3875,720 494,724.402226 494,729.82035 L494,923.17965 C494,928.597774 498.3875,933 503.7875,933 L556.706825,933 C578.24,933 595.856825,926.701431 608.9525,914.239746 C622.25,901.642607 629,885.998452 629,867.712283 C629,858.569199 627.1775,850.034976 623.6,842.314827 L623.6,842.314827 Z" id="Fill-8" fill="#000000"></path>
        <path d="M126.5,394 L126.5,422.535097 C126.5,430.819368 133.215729,437.535097 141.5,437.535097 C149.784271,437.535097 156.5,430.819368 156.5,422.535097 L156.5,394 C156.5,385.715729 149.784271,379 141.5,379 C133.215729,379 126.5,385.715729 126.5,394 Z" id="Line-2" fill="#000000" fill-rule="nonzero"></path>
        <path d="M182.5,363.39823 L182.5,452.941657 C182.5,461.225928 189.215729,467.941657 197.5,467.941657 C205.784271,467.941657 212.5,461.225928 212.5,452.941657 L212.5,363.39823 C212.5,355.113959 205.784271,348.39823 197.5,348.39823 C189.215729,348.39823 182.5,355.113959 182.5,363.39823 Z" id="Line" fill="#000000" fill-rule="nonzero"></path>
        <path d="M803.5,394 L803.5,422.535097 C803.5,430.819368 810.215729,437.535097 818.5,437.535097 C826.784271,437.535097 833.5,430.819368 833.5,422.535097 L833.5,394 C833.5,385.715729 826.784271,379 818.5,379 C810.215729,379 803.5,385.715729 803.5,394 Z" id="Line-2" fill="#000000" fill-rule="nonzero"></path>
        <path d="M747.5,363.39823 L747.5,452.941657 C747.5,461.225928 754.215729,467.941657 762.5,467.941657 C770.784271,467.941657 777.5,461.225928 777.5,452.941657 L777.5,363.39823 C777.5,355.113959 770.784271,348.39823 762.5,348.39823 C754.215729,348.39823 747.5,355.113959 747.5,363.39823 Z" id="Line" fill="#000000" fill-rule="nonzero"></path>
        <path d="M239.5,335.399457 L239.5,481.537848 C239.5,489.822119 246.215729,496.537848 254.5,496.537848 C262.784271,496.537848 269.5,489.822119 269.5,481.537848 L269.5,335.399457 C269.5,327.115185 262.784271,320.399457 254.5,320.399457 C246.215729,320.399457 239.5,327.115185 239.5,335.399457 Z" id="Line-3" fill="#000000" fill-rule="nonzero"></path>
        <path d="M690.5,319.399554 L690.5,497.473994 C690.5,505.758265 697.215729,512.473994 705.5,512.473994 C713.784271,512.473994 720.5,505.758265 720.5,497.473994 L720.5,319.399554 C720.5,311.115282 713.784271,304.399554 705.5,304.399554 C697.215729,304.399554 690.5,311.115282 690.5,319.399554 Z" id="Line-11" fill="#000000" fill-rule="nonzero"></path>
        <path d="M700.257599,551.349133 C714.535519,578.511582 694.847952,611 664.25241,611 L479.526278,611 L294.711464,611 C264.115921,611 244.517038,578.422815 258.706275,551.349133 L443.521089,198.769903 C458.774519,169.743366 500.278038,169.743366 515.531468,198.769903 L700.257599,551.349133 Z M480,551 C496.517857,551 510,537.586158 510,521.15198 C510,504.717802 496.607143,491.30396 480,491.30396 C463.482143,491.30396 450,504.628969 450,521.15198 C450,537.586158 463.392857,551 480,551 Z M459.821429,322.698181 L459.821429,441.646093 C459.821429,453.105601 469.107143,462.344274 480.625,462.344274 C492.142857,462.344274 501.428571,453.105601 501.428571,441.646093 L501.428571,322.698181 C501.428571,311.238673 492.142857,302 480.625,302 C469.107143,302 459.821429,311.238673 459.821429,322.698181 Z" id="Combined-Shape" fill="#000000"></path>
    </g>
</svg>