<svg height="960" viewBox="0 0 960 960" width="960" xmlns="http://www.w3.org/2000/svg"><path d="m322.870337 158.805873-.031829-.001127.893726.031281c.201647.007056 4.983323.17442 10.052372.351835l.648343.022692c.108207.003787.216461.007576.324722.011365l.721373.025247c2.40185.084063 4.761317.16664 6.624673.23185 11.9522.418279 24.29329.85006 37.431862 1.309601 36.84544 1.288724 73.149543 2.557464 107.406538 3.753198l9.735304.339765c60.529905 2.112232 107.238467 3.736811 135.27196 4.703804l2.696996.092988c16.257971.560271 25.586613.876558 26.902772.910939 1.735042.045323 3.44189.200636 5.113942.459159l.133909.02253.594818.028766.666068.032664c.515935.025359 1.620644.080042 2.124442.104892l.074672.004678 1.320198.047635c49.153275 1.811304 91.440866 5.908785 115.253248 11.420097l.723167.169155c67.858716 16.162654 114.008625 49.859108 140.321906 104.423198 21.35698 44.148351 29.95656 101.18358 30.124411 190.542078v.150123c-.166117 88.6099-8.591271 145.404591-29.4873 189.379305l-.637035 1.328662-.746539 1.535457c-26.372914 53.656326-72.342904 86.87545-139.488512 102.869697-23.717347 5.705058-66.761146 9.847288-117.647966 11.670096l.254422-.009503-.043658.002248c-.518653.025734-2.41851.119716-3.802991.187184l-.177506.008642c-3.161207.153752-6.567858.314639-10.325077.485786-1.383086.063002-2.75215.055195-4.10381-.020132l-.216958-.014728-.049511.002166c-10.468318.365677-28.537914 1.007246-53.346924 1.893516l-.868163.031015-16.836824.602064c-2.187263.07828-2.187263.07828-4.397046.157385l-13.584705.486571c-2.313601.08291-2.313601.08291-4.64447.166454l-19.063543.683678c-2.427569.087105-2.427569.087105-4.866339.174626l-9.827346.352764c-30.553726 1.097012-63.601296 2.28555-96.647391 3.47533l-7.929757.285524c-27.745108.999097-55.34832 1.993974-81.330653 2.931121l-4.199207.151472c-1.402362.050589-2.103543.075884-2.744431.099005l-.318386.011486c-.53216.019198-1.096626.039563-2.064283.074474l-2.59157.093503c-.54743.019753-.54743.019753-1.036038.037383l-2.437872.087965c-50.812451 1.820145-94.216189.500809-118.444676-3.991362-51.597827-9.667744-91.040225-31.381488-118.7912727-66.631132l-.0265923-.033008-.5791866-.18872c-39.6415043-13.201962-69.1586519-48.246235-74.3887405-90.999058l-.1725712-1.494482c-5.59275323-51.507599-8.3895017-103.084492-8.3895017-154.724396 0-54.037261 3.062461-111.125586 9.1758354-171.273283 5.0788746-49.980076 43.0935072-89.319278 91.1661886-97.36775l.587976-.094311.285548-.265986c25.802147-23.927041 58.932455-39.322625 99.762182-47.184273l1.444247-.274343c24.050662-4.459404 67.238382-5.719734 118.44836-3.886525zm-44.166814 39.194827-.872936.001771c-28.713387.065427-52.146359 1.429322-66.116222 4.019573-39.660142 7.431468-69.248728 22.624546-90.538785 46.977534l-.561037.000422-.020234-.000422c-9.066447 10.49486-16.609943 22.690859-22.7707139 36.69991-17.9676219 40.992585-25.6680313 98.569385-25.8235951 192.312169.1555638 93.650424 7.8559732 151.227134 25.8235951 192.21951 3.3072219 7.49143 7.0058639 14.464451 11.1183459 20.936151.162686.026145.326414.050985.490317.075256 21.678784 33.665526 54.706231 53.750571 102.282107 62.664734 14.233102 2.638897 38.289306 4.047894 67.718813 4.091641 12.20288-.013117 25.301449-.262973 38.979922-.758809l2.398695-.087588c.312133-.011398.653637-.023867 1.02387-.037386l2.560998-.093506c1.447726-.052856 3.142432-.114726 5.066752-.184973l4.149647-.151475c10.131846-.369813 24.793956-.90483 42.341571-1.544754-6.444347-119.595578-9.667894-211.424453-9.667894-275.541861 0-64.694532 3.281839-157.601642 9.84314-278.775527-30.434899-1.079084-52.203809-1.850331-56.755491-2.011509l-.883506-.031293c-13.984416-.506601-27.357962-.764519-39.787359-.779568zm117.086469 9.656874-.166668 3.120199c-6.225125 116.511437-9.336585 206.13514-9.336585 268.820824 0 63.755937 3.218612 155.377587 9.658158 274.812044.470127-.016184.942359-.033398 1.415919-.050661 4.394736-7.640786 8.473643-20.130334 11.712483-37.531964 5.372492-28.865306 8.077568-68.116856 8.913761-118.828817.058086-3.522674.107314-6.974659.148191-10.425693l.015907-1.380528c.002577-.230135.005117-.460307.007621-.690536l.014585-1.382236c.002357-.230544.004679-.461186.006964-.691948l.013278-1.386175.012416-1.390042c.057941-6.729472.085934-13.629169.087649-21.203044l-.000307-2.372715c-.00546-11.445048-.067861-24.486945-.175245-40.768554-.103391-15.676183-.147961-23.091717-.164101-29.594134l-.00137-.580061-.001191-.560156c-.000748-.372509-.001407-.7434-.001982-1.114108l-.0008-.556104-.000355-.278286-.00062-.557711-.000267-.279694-.000793-1.127509-.000425-1.732257c0-82.438906-1.106218-133.630464-5.368361-183.131332-2.779576-32.282215-6.727547-57.857244-11.943599-75.66266-1.58659-5.415952-3.228157-9.891955-4.844263-13.476142zm19.411109-5.453922.15746.377939c1.59787 3.88311 3.081619 8.193288 4.469072 12.929473 5.665142 19.338419 9.792665 46.076587 12.676494 79.569612 4.284267 49.757809 5.419476 100.805947 5.441752 182.366142l.000628 3.918721.000132.28288.00079 1.120364.000267.277972.000618.554338.000354.276635.000798.552869c.011037 7.095176.053023 14.279344.168218 31.745226.105297 15.965215.167513 28.833525.175328 40.144798l.000025 4.704944c-.005016 7.025785-.033289 13.495265-.087848 19.820573l-.012526 1.399967-.013395 1.396242-.014271 1.393514c-.014711 1.392482-.030746 2.782369-.04814 4.174151l-.017847 1.39258c-.006101.464514-.012354.929405-.01876 1.39484l-.01968 1.398098c-.023499 1.633403-.048891 3.275495-.076228 4.933405-.853225 51.744908-3.622741 91.931493-9.248712 122.15869-2.424172 13.024584-5.366942 24.050984-8.944444 33.05573 17.77889-.648637 36.744585-1.339309 55.891651-2.036l3.749512-.136424c1.250424-.045493 2.501341-.091002 3.752472-.136515l3.753758-.136547 4.364234-.158733c8.726192-.317361 17.433469-.633898 26.027153-.94614l9.711508-.352775c1.60872-.058425 3.212079-.116649 4.809434-.174649l18.838893-.683702c1.53903-.055826 3.069483-.111332 4.590715-.166496l13.424782-.486594c1.460123-.052898 2.909095-.105382 4.346275-.15743l16.638924-.602103c26.599441-.961697 47.474702-1.711869 57.509903-2.063059l-.003154.187106c8.416267-.387959 13.710822-.662567 14.270515-.688362l.041357-.001791c19.992661-.72472 38.736786-1.836375 55.258535-3.24821 5.666477-7.352018 10.548457-19.13381 14.503489-35.50804 6.620895-27.411169 9.966355-64.817373 11.001243-113.179762.038416-1.795267.073708-3.571386.105971-5.338471l.02363-1.323778c.003844-.220399.007642-.440698.011392-.660914l.032497-1.98027c.010415-.659708.020413-1.319213.030001-1.979047l.01863-1.320266c.105493-7.705961.155517-15.505187.158057-24.244642l-.000399-2.286301c-.00688-10.938449-.084314-23.404839-.217515-38.967224-.123779-14.461567-.179706-21.580646-.201561-27.652338l-.001921-.557672c-.001218-.370043-.002311-.736853-.003286-1.101897l-.001377-.546425c-.00129-.545467-.002325-1.088612-.003132-1.634385l-.000732-.546833-.000311-.274417-.00072-.828906-.000552-1.695635c0-78.79854-1.372023-127.723392-6.651197-174.968978-5.367912-48.039737-14.497082-79.506048-25.274681-91.014515-14.856053-1.169757-31.303872-2.104424-48.708279-2.734918l-.075189-.003376c-.50953-.024209-3.342212-.169961-7.963582-.391233l.000166-.239017c-5.579831-.147502-141.373479-4.941928-238.347194-8.372019zm320.191314 14.107828.216166.446593c1.391548 2.884326 2.709774 5.973325 3.958208 9.257197 7.114418 18.71372 12.277174 44.484895 15.879372 76.722502 5.334942 47.744674 6.746774 96.664162 6.774477 174.812819l.000797 3.781261.000172.276192.000717.821765.000309.272107.00073.542312c.000804.541317.001835 1.080198.003121 1.621565l.001371.542378c.000972.362381.00206.726596.003273 1.094104l.001915.553914.002107.559946c.02316 5.91494.079192 13.008468.198767 26.978904.137096 16.017539.215431 28.781183.218794 39.987065v1.518578c-.002384 7.546207-.039956 14.404089-.117861 21.111252l-.01612 1.339583c-.036099 2.898764-.079837 5.775958-.13163 8.675325l-.024478 1.339903c-.029228 1.565429-.060812 3.139239-.094814 4.728258-1.063294 49.689842-4.517032 88.306714-11.555735 117.447651-2.621945 10.855119-5.733439 20.296591-9.42314 28.294091 11.702972-1.443148 21.447645-3.067267 28.648172-4.820026 56.080759-13.51845 91.782657-39.845084 112.2393-82.933358 17.967622-37.586698 25.668031-89.390457 25.823595-173.364063-.155564-83.808304-7.855973-135.611884-25.823595-173.198164-20.534425-43.090148-56.158541-69.413604-112.2393-82.930751-8.383976-2.005748-20.20385-3.865356-34.54469-5.478903zm-644.2842537 39.198933-.6912499.326197c-21.3964681 10.244159-36.9039855 31.070803-39.4460144 56.086345-5.980598 58.841349-8.970897 114.584478-8.970897 167.229389 0 50.196209 2.7185897 100.331719 8.1557692 150.40653 2.2801681 20.990886 13.6860786 38.975923 30.0090703 50.178699l-.6588968-1.477482c-19.3089224-44.052497-27.3459892-103.938807-27.5059152-200.281623.159904-96.358152 8.1947348-156.250031 27.51572-200.330236 3.4590751-7.865632 7.31972-15.241436 11.5924138-22.137819z"/></svg>