<?xml version="1.0" encoding="utf-8"?>
<!-- Generator: Adobe Illustrator 21.0.0, SVG Export Plug-In . SVG Version: 6.00 Build 0)  -->
<svg version="1.1" id="Layer_1" xmlns="http://www.w3.org/2000/svg" xmlns:xlink="http://www.w3.org/1999/xlink" x="0px" y="0px"
	 viewBox="0 0 1417.3 665.7" style="enable-background:new 0 0 1417.3 665.7;" xml:space="preserve">
<g>
	<path d="M240.7,477.6c3.7,0,7.4-0.3,11.1-0.8c42.1-6.2,73.8-47.8,75.4-98.8c0,0,0,0,0,0c0,0,0,0,0,0c0-0.1,0-0.2,0-0.3
		c0.1-3.1,0.1-6.1,0-8.9c0-1.6-0.1-3.3-0.3-4.8c0,0,0,0,0,0c-0.1-0.9-0.2-1.8-0.2-2.7c-0.1-0.7-0.1-1.5-0.2-2.2
		c-0.2-1.5-0.4-3.1-0.6-4.8l0-0.1c-0.3-1.7-0.5-3.4-0.9-5c-0.3-1.7-0.7-3.5-1.1-5.1c0,0,0-0.1,0-0.1c0,0,0,0,0,0l0,0
		c-0.4-1.6-0.8-3.2-1.2-4.9l0,0c-14.1-52.7-58.5-87.4-103.3-80.8c-24.3,3.6-45.4,18.5-59.4,42c-13.7,23.1-18.9,51.7-14.6,80.6
		C153.7,436.6,195.1,477.6,240.7,477.6z M256.4,457.3c-38.7,5.7-76.2-30.4-83.6-80.5c-1.3-9.1-1.6-18-0.9-26.6
		c26.3,35.4,82.6,62.4,130.6,72.4C292.1,441.5,275.8,454.4,256.4,457.3z M306.8,413.6C241,400.9,190.8,365.3,174,335.8
		c0.6-2.7,1.3-5.3,2-7.9c25,37.5,84,66.2,133.9,76.5C309,407.6,308,410.7,306.8,413.6z M312.3,351.4c0.3,1.5,0.5,3,0.8,4.6
		c0.1,0.5,0.1,0.9,0.2,1.3c0.4,2.6,0.6,5.1,0.8,7.4c0.1,1.4,0.2,2.8,0.2,4.3c0.1,2.6,0.1,5.3,0,8.2c0,0.1,0,0.1,0,0.2
		c-0.2,6.1-1,12-2.1,17.7c-65.8-13.2-115.8-49.2-131.9-78.7c9.9-22,27.4-37.7,49.1-40.9c2.6-0.4,5.3-0.6,7.9-0.6
		c31.6,0,62,27.5,72.8,67.3c0,0,0,0.1,0,0.1l0,0c0.4,1.5,0.8,3,1.1,4.6C311.7,348.3,312,349.8,312.3,351.4z"/>
	<path d="M1404.9,239.1c9.8-20.2,14-44.7,12-69.3c-5-60.4-45.9-106.6-91.4-102.9c-1.4,0.1-3.5,0.4-4.9,0.7l-463.1,60.9
		c-15.1-23.6-33-44.9-53.5-63.3C747.7,14.6,679.3-7.7,611.4,2.4l0.3,1.7c0,0-0.1,0-0.1,0L205.7,67.5c-66.1,9.8-123.5,50.3-161.5,114
		C6.5,244.4-7.7,322.7,4,401.9c11.7,79.2,48.1,150,102.3,199.3c46.4,42.2,101.1,64.5,156.9,64.5c10.2,0,20.5-0.8,30.7-2.3
		l406.8-58.2c0,0,0,0,0,0l0.2,1.4c79.9-11.8,144.6-67.1,180.6-143.5l471-76.4l0.3,0c35-3.5,59.4-42.5,55.6-88.4L1404.9,239.1z
		 M87.4,547.2c-31.5-41.5-52.8-92.8-61.1-148.6c-8.3-55.9-2.8-111.2,15.5-160.2c31.4-65.1,88.4-112.6,158.7-123
		c9.6-1.4,19.3-2.1,28.9-2.1c48.8,0,96.6,18.2,137.1,52.7c48.6,41.4,80.8,101.3,90.8,168.6c20.6,138.8-61.2,266.3-182.2,284.2
		c-58.5,8.7-117.5-9.3-165.9-50.6C101.4,561.7,94.2,554.6,87.4,547.2z M246.2,627.4c9.9,0,19.9-0.7,29.8-2.2
		C400.6,606.7,484.7,476,463.6,333.7c-10.2-68.8-43.2-130.1-93-172.5c-49.9-42.5-110.6-61-171.1-52.1c-41.8,6.2-79,25.1-109.2,52.8
		c32.9-34.6,74.2-56.7,119.9-63.5c9.8-1.5,19.7-2.2,29.5-2.2c50.9,0,100.8,19.4,143.2,56.1c50.8,44.1,84.6,107.7,95.2,179.2
		c21.8,147.2-62.9,282.2-188.8,300.8c-9.8,1.4-19.5,2.2-29.2,2.2c-34.8,0-68.6-9.2-99.3-25.7C188.1,621,217,627.4,246.2,627.4z
		 M490.9,329.6c-11-74.5-46.4-141-99.5-187c-42.3-36.7-91.8-56.9-142.7-59l366.2-57.2c0,0,0,0,0,0l0.2,1.5
		c60.1-8.9,121.1,11.2,171.5,56.5c51.1,46,85.4,112.2,96.4,186.6c2.5,16.6,3.6,32.9,3.6,49.1l-382.5,59.9l-1.4,0.2l-0.8,1.2
		c-5.5,8.7-5.4,32.3,4.4,41.2l1.2,1l376.9-64.8c-13.4,114.9-86.9,207.6-187.4,222.5l0.3,1.7l-367.8,52.6
		C440.9,597,511.5,468.5,490.9,329.6z M1127,270.2c7.8-17.6,11.5-39,9.6-61.6c-3.3-39.8-23.1-73-49.1-87.6l235.8-31l0.8-0.1
		c1.1-0.2,2.6-0.4,3.4-0.5c33-2.7,63,34.2,66.9,82.3c1.8,21.7-2.1,42.9-10.9,59.9l0,0.1L1127,270.2z M912.1,302.4
		c-0.6-11.7-1.7-23.4-3.5-35.3c-6.3-42.2-19.5-82-38.8-117.6l127-16.7c3.8,2,7.5,4.4,11,7.2c21.4,16.8,37,46.7,39.9,81.7
		c1.9,22.6-1.8,44-9.5,61.7L912.1,302.4z M885.3,352.1l-375.6,64.5c-5.9-7-6.3-23.5-2.9-30.6l380-59.5
		C886.6,335.1,886.1,343.7,885.3,352.1z M1350.5,364.4l-458.7,74.4c14-37.8,21.4-79.6,20.7-123.4l122.7-18.4l3.4,54l88.9-14.2
		l-3.3-53.2l258.4-38.8l3.3,55.3C1388.7,333.3,1372.8,362.1,1350.5,364.4z"/>
</g>
</svg>
