<?xml version="1.0" encoding="utf-8"?>
<!-- Generator: Adobe Illustrator 21.0.0, SVG Export Plug-In . SVG Version: 6.00 Build 0)  -->
<svg version="1.1" id="Layer_1" xmlns="http://www.w3.org/2000/svg" xmlns:xlink="http://www.w3.org/1999/xlink" x="0px" y="0px"
	 viewBox="0 0 976.9 1417.3" style="enable-background:new 0 0 976.9 1417.3;" xml:space="preserve">
<g>
	<path d="M505.9,423h-31.5c-4,0-7.2,3.2-7.2,7.2l-0.8,16.4c0,4,3.2,7.2,7.2,7.2h33.5c4,0,7.2-3.2,7.2-7.3l-1.2-16.2
		C513.2,426.3,509.9,423,505.9,423z"/>
	<path d="M549.2,948c0-9.3-7.6-16.9-16.9-16.9h-78.7c-9.3,0-16.9,7.6-16.9,16.9v111.1c0,9.3,7.6,16.9,16.9,16.9h78.7
		c9.3,0,16.9-7.6,16.9-16.9V948z"/>
	<path d="M554.5,190.8c0.5,0.5,1.1,1,1.8,1.2c0.7,0.3,1.5,0.4,2.3,0.4c0.7,0,1.4-0.1,2.1-0.4c0.7-0.3,1.2-0.7,1.7-1.1
		c0.5-0.5,0.9-1,1.2-1.7c0.3-0.6,0.4-1.3,0.4-2.1c0-1.1-0.1-2.1-0.4-3c-0.3-0.9-0.7-1.6-1.2-2.3c-0.5-0.6-1.1-1.1-1.8-1.5
		c-0.7-0.3-1.4-0.5-2.2-0.5c-0.8,0-1.5,0.2-2.2,0.5c-0.7,0.3-1.2,0.7-1.7,1.3c-0.5,0.6-0.9,1.2-1.2,2c-0.3,0.8-0.4,1.6-0.4,2.5
		c0,1,0.1,1.9,0.4,2.7C553.6,189.6,554,190.2,554.5,190.8z"/>
	<polygon points="555.4,236.8 560.3,236.8 561.6,231 556.6,231 	"/>
	<path d="M555,157.1c0.5,0.6,1.1,1.1,1.8,1.5c0.7,0.4,1.4,0.5,2.3,0.5c0.8,0,1.5-0.2,2.2-0.5c0.7-0.3,1.2-0.7,1.7-1.3
		c0.5-0.5,0.8-1.2,1.1-2c0.3-0.8,0.4-1.6,0.4-2.5c0-1-0.1-1.9-0.4-2.6c-0.2-0.8-0.6-1.4-1.1-2c-0.5-0.5-1-1-1.7-1.3
		c-0.7-0.3-1.4-0.4-2.3-0.4c-0.8,0-1.5,0.2-2.2,0.4c-0.7,0.3-1.3,0.7-1.8,1.2c-0.5,0.5-0.9,1.1-1.2,1.8c-0.3,0.7-0.4,1.4-0.4,2.2
		c0,1,0.1,1.9,0.4,2.7C554.2,155.7,554.6,156.5,555,157.1z"/>
	<path d="M488.3,246.8c3.9,0,5.8-3.9,5.8-11.6c0-8-1.9-12-5.7-12c-4,0-6,4.1-6,12.2C482.4,243,484.4,246.8,488.3,246.8z"/>
	<path d="M486.5,188.9c0.6,0.2,1.2,0.4,1.8,0.4c0.6,0,1.2-0.1,1.8-0.4c0.6-0.2,1.1-0.6,1.5-1c0.4-0.4,0.8-0.9,1-1.5
		c0.2-0.6,0.4-1.2,0.4-1.8c0-0.7-0.1-1.3-0.4-1.9c-0.2-0.6-0.6-1.1-1-1.5c-0.4-0.4-0.9-0.7-1.5-1c-0.6-0.2-1.2-0.4-1.8-0.4
		c-0.7,0-1.3,0.1-1.9,0.4c-0.6,0.2-1.1,0.6-1.5,1c-0.4,0.4-0.7,0.9-0.9,1.5c-0.2,0.6-0.3,1.2-0.3,1.8c0,0.7,0.1,1.3,0.4,1.8
		c0.2,0.6,0.6,1.1,1,1.5C485.5,188.4,486,188.7,486.5,188.9z"/>
	<path d="M484.2,201.8c0.5,0.5,1.1,0.9,1.8,1.1c0.7,0.3,1.5,0.4,2.3,0.4c0.8,0,1.6-0.1,2.3-0.4c0.7-0.3,1.3-0.7,1.8-1.2
		c0.5-0.5,0.9-1.1,1.2-1.8c0.3-0.7,0.4-1.5,0.4-2.3c0-0.8-0.1-1.5-0.4-2.2c-0.3-0.7-0.6-1.3-1.1-1.8c-0.5-0.5-1.1-0.9-1.8-1.2
		c-0.7-0.3-1.5-0.4-2.3-0.4c-0.8,0-1.6,0.1-2.2,0.4c-0.7,0.3-1.3,0.7-1.8,1.2c-0.5,0.5-0.9,1.1-1.2,1.8c-0.3,0.7-0.4,1.5-0.4,2.3
		c0,0.9,0.1,1.7,0.4,2.4C483.4,200.7,483.7,201.3,484.2,201.8z"/>
	<path d="M420.5,151.8v-13.7c-1,1.7-1.9,3.2-2.8,4.6c-0.9,1.3-1.7,2.6-2.5,3.7s-1.5,2.1-2.3,3c-0.7,0.9-1.4,1.7-2,2.5H420.5z"/>
	<path d="M476.4,1255.2h3.4v2.6h3c1.4,0,2.5-1.1,2.5-2.5v-9.3c0-1.4-1.1-2.5-2.5-2.5h-9.3c-1.4,0-2.5,1.1-2.5,2.5v9.3
		c0,1.4,1.1,2.5,2.5,2.5h3V1255.2z"/>
	<path d="M919.1,707.7H462.7c-4,0-7.2,3.2-7.2,7.2v53.8c0,4,3.2,7.2,7.2,7.2h456.4c4,0,7.2-3.2,7.2-7.2v-53.8
		C926.3,711,923.1,707.7,919.1,707.7z"/>
	<path d="M532.2,350.6H449c-8.6,0-15.6,7-15.6,15.6v78.4c0,8.6,7,15.6,15.6,15.6h2.5v14.3h77.7v-14.3h3c8.6,0,15.6-7,15.6-15.6
		v-78.4C547.8,357.6,540.8,350.6,532.2,350.6z M521.2,470.7H459v-33.2c0-17.2,14-31.1,31.1-31.1s31.1,14,31.1,31.1V470.7z
		 M525.4,460.2v10.5h-2.2v-33.2c0-18.2-14.8-33-33-33s-33,14.8-33,33v33.2h-1.7v-10.5V428c0-19.3,15.7-35,35-35
		c19.3,0,35,15.7,35,35V460.2z M544,444.6c0,6.5-5.3,11.8-11.8,11.8h-3V428c0-21.4-17.4-38.8-38.8-38.8c-21.4,0-38.8,17.4-38.8,38.8
		v28.4H449c-6.5,0-11.8-5.3-11.8-11.8v-58.9c5.2-1.1,25.3-2.1,53.4-2.1s48.2,1,53.4,2.1V444.6z M544,383.8
		c-2.3-0.4-6.5-0.9-14.2-1.3c-10.5-0.5-24.4-0.8-39.2-0.8s-28.7,0.3-39.2,0.8c-7.7,0.4-11.9,0.8-14.2,1.3v-17.6
		c0-6.5,5.3-11.8,11.8-11.8h83.2c6.5,0,11.8,5.3,11.8,11.8V383.8z"/>
	<path d="M967.9,695.6H637.1v-641c0-30.1-24.5-54.7-54.7-54.7h-187c-30.1,0-54.7,24.5-54.7,54.7v1308c0,30.1,24.5,54.7,54.7,54.7
		h187c30.1,0,54.7-24.5,54.7-54.7V787.1h330.8c4.9,0,8.9-4,8.9-8.9v-73.6C976.9,699.6,972.8,695.6,967.9,695.6z M629.5,1362.7
		c0,25.9-21.1,47-47,47h-187c-25.9,0-47-21.1-47-47V54.7c0-25.9,21.1-47,47-47h187c25.9,0,47,21.1,47,47v641h-7.6v-641
		c0-21.7-17.7-39.4-39.4-39.4h-187c-21.7,0-39.4,17.7-39.4,39.4v1308c0,21.7,17.7,39.4,39.4,39.4h187c21.7,0,39.4-17.7,39.4-39.4
		V787.1h7.6V1362.7z M586,32.8H392c-10.2,0-18.4,8.3-18.4,18.4v1271.5c0,10.2,8.3,18.4,18.4,18.4H586c10.2,0,18.4-8.3,18.4-18.4
		V787.1h13.6v575.5c0,19.6-16,35.6-35.6,35.6h-187c-19.6,0-35.6-16-35.6-35.6V54.7c0-19.6,16-35.6,35.6-35.6h187
		c19.6,0,35.6,16,35.6,35.6v641h-13.6V51.3C604.5,41.1,596.2,32.8,586,32.8z M568.3,236.8l-0.5,2.1h-5.4l-1.7,7.8h-2.5l1.7-7.8H555
		l-1.6,7.8h-2.4l1.6-7.8h-5.1l0.4-2.1h5.2l1.2-5.9h-5.4l0.4-2.1h5.4l1.6-7.9h2.5l-1.6,7.9h4.9l1.7-7.9h2.4l-1.6,7.9h5.1l-0.4,2.1
		H564l-1.2,5.9H568.3z M440,781.7c1.4,3.2,4.5,5.5,8.2,5.5h0h114.3v26.4c0,2.3-1.8,4.1-4.1,4.1H424.3c-2.3,0-4.1-1.8-4.1-4.1v-190
		c0-2,1.6-3.6,3.6-3.6h135c2,0,3.6,1.6,3.6,3.6v72.1H448.2h0c-3.7,0-6.9,2.3-8.2,5.5c-0.5,1.1-0.7,2.2-0.7,3.5v73.6
		C439.3,779.4,439.5,780.6,440,781.7z M539,1252c-2.4,0-4.8,0.1-7.2,0c-1.8-0.1-2.7,0.6-2.7,2.5c0,2,0.7,3,2.8,3c2.7,0,5.3,0.1,8,0
		c2.6-0.1,3-0.5,3.1-3c0.1-2.8,0-5.6,0-8.4c0-1.5-0.7-2.2-2.2-2.3c-3.2,0-6.4,0-9.6,0c-1.3,0-1.9,0.6-2.1,1.9c0,0.1,0,0.1,0,0.2
		l-0.3,1.5l-1.3-0.3c-0.2,0-0.4-0.1-0.5-0.1l-1.2-0.2l0.5-2.4v0c0,0,0,0,0,0l0-0.2l0,0c0.4-2.1,1.9-3.3,4.3-3.4c1.9-0.1,3.7,0,5.6,0
		c0,0,0,0,0,0c1.9,0,3.7-0.1,5.6,0c2.7,0.2,4.4,2,4.5,4.7c0.1,3.3,0.1,6.7,0,10c-0.1,2.9-1.9,5-4.9,5.2c-3.4,0.2-6.9,0.2-10.4,0
		c-3.5-0.2-5.4-2.7-5.2-6.3c0.1-3.2,2.2-5.4,5.6-5.5c2.7-0.1,5.3,0,8,0c0.3,0,0.7,0,1,0h1.3v3.2h-1.6c-0.1,0-0.3,0-0.4,0h-0.1v0
		C539.2,1252,539.1,1252,539,1252z M532.3,1079.8h-78.7c-11.4,0-20.7-9.3-20.7-20.7V948c0-11.4,9.3-20.7,20.7-20.7h78.7
		c11.4,0,20.7,9.3,20.7,20.7v111.1C553,1070.5,543.7,1079.8,532.3,1079.8z M513.1,1252c0-2.1-0.1-4.3,0-6.4c0.2-3.2,1.7-4.7,5-4.9
		c0.8,0,1.6-0.1,2.4,0v0h3.7v3.1h-2.3c-0.6,0-1.2,0-1.7,0c-3.8,0.1-3.8,0.1-3.8,3.7c0,3.1,0,6.1,0,9.2c0,0.7,0,1.3,0,2
		c0,0,0,0.1,0,0.1v2h-3.3v-2.7h0C513.1,1256.1,513.1,1254,513.1,1252z M506.1,1250.3c0,0.1,0,0.2,0,0.3v1.4h-1.6c-0.1,0-0.3,0-0.4,0
		H504v0c-0.1,0-0.2,0-0.3,0c-2.4,0-4.8,0.1-7.2,0c-1.8-0.1-2.7,0.6-2.7,2.5c0,2,0.7,3,2.8,3c2.7,0,5.3,0.1,8,0c2.6-0.1,3-0.5,3.1-3
		c0.1-2.8,0-5.6,0-8.4c0-1.5-0.7-2.2-2.2-2.3c-3.2,0-6.4,0-9.6,0c-1.3,0-1.9,0.6-2.1,1.9c0,0.1,0,0.1,0,0.2l-0.3,1.5l-1.3-0.3
		c-0.2,0-0.4-0.1-0.5-0.1l-1.2-0.2l0.5-2.4l0,0c0,0,0,0,0,0l0-0.2l0,0c0.4-2.1,1.9-3.3,4.3-3.4c1.9-0.1,3.7,0,5.6,0c0,0,0,0,0,0
		c1.9,0,3.7-0.1,5.6,0c2.7,0.2,4.4,2,4.5,4.7c0.1,3.3,0.1,6.7,0,10c-0.1,2.9-1.9,5-4.9,5.2c-3.4,0.2-6.9,0.2-10.4,0
		c-3.5-0.2-5.4-2.7-5.2-6.3c0.1-3.2,2.2-5.4,5.6-5.5c2.7-0.1,5.3,0,8,0c0.3,0,0.7,0,1,0h1.3L506.1,1250.3
		C506.1,1250.3,506.1,1250.3,506.1,1250.3z M473.4,1261.1c-3.1,0-5.7-2.5-5.7-5.7v-9.3c0-3.1,2.5-5.7,5.7-5.7h9.3
		c3.1,0,5.7,2.5,5.7,5.7v9.3c0,3.1-2.5,5.7-5.7,5.7h-3v0.6h-3.4v-0.6H473.4z M455.8,1243.7l-8.1,17.5H444l10.7-23.2h2.2l0.5,1
		l10.2,22.2h-3.7L455.8,1243.7z M457.7,1257.4v3.8h-3.8v-3.8H457.7z M408.9,233.6l1.1-3.2l6.7,2.5l-0.6-7.8h3.5l-0.6,7.8l6.7-2.5
		l1.1,3.2l-7,1.4l4.8,6.2l-2.8,1.9l-4-6.8l-4,6.8l-2.8-1.9l4.8-6.2L408.9,233.6z M417,96.1c-0.5,0.3-1,0.6-1.6,0.9
		c-0.6,0.3-1.2,0.6-1.9,0.9c-0.7,0.3-1.3,0.5-1.9,0.6v-3.2c0.7-0.2,1.4-0.5,2.2-0.8c0.8-0.3,1.6-0.7,2.3-1.1
		c0.8-0.4,1.5-0.8,2.2-1.3c0.7-0.5,1.3-0.9,1.8-1.3h1.2v28.7H418V95.2C417.8,95.5,417.4,95.7,417,96.1z M414.7,142.8
		c1.1-1.6,2.2-3.2,3.2-4.8c1-1.6,1.8-3.1,2.5-4.6h3.4v18.5h3.6v2.9h-3.6v6.6h-3.2v-6.6h-13.2V152c1.2-1.4,2.5-2.9,3.7-4.4
		C412.3,146,413.5,144.4,414.7,142.8z M409,180.5v-2.9h17.8v1.9c-0.4,0.7-0.9,1.7-1.6,2.8c-0.6,1.1-1.2,2.4-1.9,3.7
		c-0.7,1.4-1.4,2.9-2.1,4.5c-0.7,1.6-1.4,3.2-2,4.9c-0.6,1.7-1.2,3.4-1.6,5.2c-0.5,1.7-0.8,3.4-1,5.1h-3.4c0.2-1.7,0.6-3.4,1.1-5.1
		c0.5-1.7,1-3.4,1.7-5.1c0.6-1.7,1.3-3.3,2-4.8c0.7-1.5,1.4-3,2-4.3c0.7-1.3,1.2-2.5,1.8-3.4c0.5-1,1-1.8,1.3-2.3H409z M558.9,616
		h-135c-1.3,0-2.6,0.4-3.6,1V347.4h142.3V617C561.5,616.4,560.2,616,558.9,616z M420.2,343.6v-28.8c0-2.3,1.9-4.2,4.2-4.2h133.9
		c2.3,0,4.2,1.9,4.2,4.2v28.8H420.2z M492.1,96.5c-0.3-0.6-0.6-1.2-1.1-1.6c-0.5-0.4-1-0.7-1.6-0.9c-0.6-0.2-1.3-0.3-2-0.3
		c-0.6,0-1.2,0.1-1.8,0.3c-0.6,0.2-1.2,0.4-1.8,0.7c-0.6,0.3-1.1,0.7-1.6,1.1c-0.5,0.4-1,0.9-1.5,1.4v-3.4c0.9-0.9,1.9-1.5,3-2
		c1.1-0.5,2.5-0.7,4.1-0.7c1.1,0,2.2,0.2,3.2,0.5c1,0.3,1.8,0.8,2.5,1.5c0.7,0.6,1.3,1.4,1.7,2.4c0.4,0.9,0.6,2,0.6,3.2
		c0,1.1-0.1,2.1-0.4,3c-0.3,0.9-0.6,1.7-1.2,2.5c-0.5,0.8-1.2,1.6-1.9,2.3c-0.8,0.7-1.7,1.5-2.8,2.2c-1.3,0.9-2.4,1.7-3.3,2.4
		c-0.9,0.7-1.5,1.3-2,1.9c-0.5,0.6-0.9,1.2-1.1,1.7c-0.2,0.6-0.3,1.2-0.3,2h14v2.9h-17.3V118c0-1.2,0.1-2.3,0.4-3.2
		c0.3-0.9,0.7-1.8,1.3-2.6c0.6-0.8,1.4-1.6,2.4-2.5c1-0.8,2.2-1.7,3.6-2.8c1-0.7,1.9-1.4,2.6-2.1c0.7-0.7,1.2-1.3,1.7-2
		c0.4-0.7,0.7-1.3,0.9-2c0.2-0.7,0.3-1.4,0.3-2.2C492.5,97.9,492.4,97.1,492.1,96.5z M491.3,148.7c-1.2-1-3-1.6-5.3-1.6
		c-0.4,0-0.8,0-1.2,0s-0.8,0-1.3,0c-0.4,0-0.8,0-1.2,0.1c-0.4,0-0.8,0.1-1.1,0.1l1-14.1h13v2.9h-10.2l-0.6,8.2
		c0.4,0,0.9-0.1,1.3-0.1c0.5,0,0.9,0,1.3,0c1.5,0,2.8,0.2,4,0.6s2.2,0.9,3,1.7c0.8,0.7,1.4,1.6,1.9,2.7c0.4,1.1,0.6,2.2,0.6,3.5
		c0,1.4-0.2,2.6-0.7,3.7s-1.1,2.1-2,2.9c-0.9,0.8-1.9,1.4-3.1,1.8s-2.6,0.6-4.1,0.6c-2.6,0-4.5-0.4-5.8-1.2v-3.4
		c1.9,1.2,3.9,1.8,5.8,1.8c1,0,1.9-0.1,2.7-0.4c0.8-0.3,1.5-0.7,2.1-1.3c0.6-0.5,1-1.2,1.3-1.9c0.3-0.8,0.5-1.6,0.5-2.5
		C493.1,151.2,492.5,149.7,491.3,148.7z M481.5,187.9c-0.7-1.1-1.1-2.2-1.1-3.5c0-1,0.2-2,0.6-2.9c0.4-0.9,0.9-1.6,1.7-2.3
		c0.7-0.6,1.5-1.1,2.5-1.5c1-0.4,2-0.5,3.1-0.5c1.1,0,2.2,0.2,3.1,0.5c1,0.4,1.8,0.9,2.5,1.5c0.7,0.6,1.3,1.4,1.6,2.3
		c0.4,0.9,0.6,1.8,0.6,2.8c0,1.3-0.4,2.5-1.1,3.5c-0.7,1.1-1.7,1.9-2.9,2.6c0.8,0.3,1.5,0.7,2.2,1.3c0.6,0.5,1.2,1.1,1.6,1.8
		c0.4,0.7,0.8,1.4,1,2.1c0.2,0.7,0.4,1.5,0.4,2.2c0,1.2-0.2,2.3-0.7,3.4c-0.4,1-1.1,1.9-1.9,2.6c-0.8,0.7-1.8,1.3-2.9,1.7
		c-1.1,0.4-2.3,0.6-3.7,0.6c-1.3,0-2.5-0.2-3.7-0.6c-1.1-0.4-2.1-1-2.9-1.7c-0.8-0.7-1.4-1.6-1.9-2.6c-0.4-1-0.7-2.1-0.7-3.4
		c0-0.7,0.1-1.5,0.4-2.2c0.2-0.7,0.6-1.5,1-2.1c0.4-0.7,1-1.2,1.6-1.8c0.6-0.5,1.4-1,2.2-1.3C483.2,189.8,482.2,188.9,481.5,187.9z
		 M479.7,229.1c0.4-1.9,1-3.4,1.8-4.7c0.8-1.3,1.8-2.2,3-2.9c1.2-0.6,2.5-1,4.1-1c5.9,0,8.8,4.8,8.8,14.4c0,2.3-0.2,4.4-0.6,6.2
		c-0.4,1.8-1,3.3-1.8,4.6c-0.8,1.2-1.8,2.2-3,2.8c-1.2,0.6-2.5,1-4,1c-1.4,0-2.7-0.3-3.8-0.9c-1.1-0.6-2-1.5-2.8-2.7
		c-0.8-1.2-1.3-2.6-1.7-4.4s-0.6-3.7-0.6-5.9C479.1,233.2,479.3,231,479.7,229.1z M555.3,106.3H553v-2.7h2.2c4.6,0,6.9-1.7,6.9-5.2
		c0-3.2-1.8-4.8-5.3-4.8c-2,0-3.8,0.7-5.6,2v-3.1c1.8-1.1,3.9-1.6,6.4-1.6c1.2,0,2.2,0.2,3.2,0.5c1,0.3,1.8,0.8,2.4,1.4
		c0.7,0.6,1.2,1.3,1.6,2.1c0.4,0.8,0.6,1.7,0.6,2.7c0,3.7-1.9,6.1-5.6,7.1v0.1c1,0.1,1.8,0.3,2.6,0.7c0.8,0.4,1.5,0.8,2.1,1.4
		s1,1.2,1.4,2c0.3,0.8,0.5,1.6,0.5,2.6c0,1.3-0.2,2.4-0.7,3.4c-0.5,1-1.1,1.9-2,2.7c-0.9,0.7-1.9,1.3-3.1,1.7
		c-1.2,0.4-2.5,0.6-4,0.6c-2.7,0-4.8-0.5-6.4-1.5v-3.4c1.9,1.5,4.1,2.2,6.5,2.2c1,0,1.9-0.1,2.6-0.4c0.8-0.2,1.5-0.6,2-1.1
		c0.6-0.5,1-1,1.3-1.7c0.3-0.7,0.5-1.4,0.5-2.2C563.1,108.1,560.5,106.3,555.3,106.3z M550.8,142.4c0.5-2,1.3-3.7,2.3-5.1
		c1-1.4,2.2-2.5,3.6-3.3c1.4-0.8,3-1.2,4.7-1.2c1.9,0,3.5,0.3,4.7,0.8v3c-1.4-0.7-3-1.1-4.6-1.1c-1.3,0-2.4,0.3-3.4,0.8
		c-1,0.6-1.9,1.4-2.6,2.4c-0.7,1-1.3,2.3-1.7,3.7c-0.4,1.4-0.6,3.1-0.6,4.8h0.1c1.3-2.3,3.4-3.5,6.4-3.5c1.2,0,2.3,0.2,3.3,0.6
		c1,0.4,1.8,1,2.5,1.8c0.7,0.8,1.2,1.7,1.6,2.7c0.4,1.1,0.6,2.2,0.6,3.5c0,1.4-0.2,2.6-0.7,3.8c-0.4,1.1-1.1,2.1-1.8,3
		s-1.7,1.5-2.8,1.9s-2.3,0.7-3.5,0.7c-1.4,0-2.7-0.3-3.8-0.9c-1.1-0.6-2.1-1.4-2.8-2.5c-0.8-1.1-1.4-2.4-1.8-4
		c-0.4-1.6-0.6-3.4-0.6-5.4C550,146.6,550.2,144.4,550.8,142.4z M550.3,182.8c0.5-1.1,1.1-2.1,1.9-3c0.8-0.8,1.8-1.5,2.9-1.9
		c1.1-0.5,2.3-0.7,3.6-0.7c1.4,0,2.7,0.3,3.7,0.9c1.1,0.6,2,1.4,2.7,2.5c0.7,1.1,1.3,2.4,1.7,4c0.4,1.6,0.6,3.4,0.6,5.5
		c0,2.6-0.3,4.9-0.8,6.9s-1.3,3.7-2.2,5.1c-1,1.4-2.2,2.4-3.6,3.2c-1.4,0.7-3,1.1-4.8,1.1c-1.9,0-3.5-0.3-4.9-1v-3.1
		c1.6,0.9,3.2,1.3,5,1.3c1.3,0,2.4-0.3,3.4-0.8c1-0.5,1.8-1.3,2.5-2.3c0.7-1,1.2-2.2,1.6-3.7c0.4-1.5,0.5-3.1,0.5-5h-0.1
		c-1.2,2.4-3.3,3.6-6.3,3.6c-1.2,0-2.3-0.2-3.3-0.6c-1-0.4-1.9-1-2.6-1.8c-0.7-0.8-1.3-1.7-1.7-2.8s-0.6-2.2-0.6-3.5
		C549.6,185.2,549.9,183.9,550.3,182.8z M973,778.2c0,2.8-2.3,5.1-5.1,5.1h-346h-55.5H448.2c-2.5,0-4.5-1.8-5-4.1
		c-0.1-0.3-0.1-0.7-0.1-1v-73.6c0-0.4,0-0.7,0.1-1c0.5-2.3,2.5-4.1,5-4.1h118.2h55.5h346c2.8,0,5.1,2.3,5.1,5.1V778.2z"/>
</g>
</svg>
