<?xml version="1.0" encoding="utf-8"?>
<!-- Generator: Adobe Illustrator 21.0.0, SVG Export Plug-In . SVG Version: 6.00 Build 0)  -->
<svg version="1.1" id="Layer_1" xmlns="http://www.w3.org/2000/svg" xmlns:xlink="http://www.w3.org/1999/xlink" x="0px" y="0px"
	 viewBox="0 0 1417.3 1417.3" style="enable-background:new 0 0 1417.3 1417.3;" xml:space="preserve">
<g>
	<path d="M1209.4,207.3C1075.6,73.5,897.6-0.2,708.3-0.2S341.1,73.5,207.2,207.3S-0.3,519.2-0.3,708.4s73.7,367.3,207.6,501.1
		s311.8,207.6,501.1,207.6s367.3-73.7,501.1-207.6c133.8-133.8,207.6-311.8,207.6-501.1C1417,519.2,1343.3,341.2,1209.4,207.3z
		 M708.3,1391.4c-376.6,0-683-306.4-683-683s306.4-683,683-683s683,306.4,683,683S1084.9,1391.4,708.3,1391.4z"/>
	<path d="M771.5,1223.5H651.1c-24.8,0-44.9,20.2-44.9,44.9c0,24.8,20.2,44.9,44.9,44.9h120.4c24.8,0,44.9-20.2,44.9-44.9
		C816.4,1243.6,796.2,1223.5,771.5,1223.5z M771.5,1306.9H651.1c-21.2,0-38.5-17.3-38.5-38.5s17.3-38.5,38.5-38.5h120.4
		c21.2,0,38.5,17.3,38.5,38.5S792.7,1306.9,771.5,1306.9z"/>
	<circle cx="651.1" cy="1268.4" r="12.4"/>
	<path d="M865.2,708.4c0-0.9-0.7-1.6-1.6-1.6H552.5c-0.9,0-1.6,0.7-1.6,1.6s0.7,1.6,1.6,1.6h311.1
		C864.5,710,865.2,709.3,865.2,708.4z"/>
	<path d="M708.3,162.2c27.3,0,49.6-17.7,49.6-39.4s-22.2-39.4-49.6-39.4c-27.3,0-49.6,17.7-49.6,39.4
		C658.8,144.5,681,162.2,708.3,162.2z M708.3,86.6c25.6,0,46.4,16.2,46.4,36.2S733.9,159,708.3,159c-25.6,0-46.4-16.2-46.4-36.2
		S682.8,86.6,708.3,86.6z"/>
	<circle cx="686.9" cy="257.5" r="8.1"/>
	<ellipse transform="matrix(0.9945 -0.1045 0.1045 0.9945 -23.8978 68.3052)" cx="639.9" cy="262.2" rx="8.1" ry="8.1"/>
	<ellipse transform="matrix(0.9781 -0.2079 0.2079 0.9781 -43.5407 129.3498)" cx="593.6" cy="271.8" rx="8.1" ry="8.1"/>
	<ellipse transform="matrix(0.9511 -0.309 0.309 0.9511 -61.5948 183.5288)" cx="548.6" cy="286.2" rx="8.1" ry="8.1"/>
	<ellipse transform="matrix(0.9136 -0.4067 0.4067 0.9136 -80.4356 231.9325)" cx="505.4" cy="305.2" rx="8.1" ry="8.1"/>
	<ellipse transform="matrix(0.866 -0.5 0.5 0.866 -102.0954 276.1811)" cx="464.3" cy="328.6" rx="8.1" ry="8.1"/>
	<ellipse transform="matrix(0.809 -0.5878 0.5878 0.809 -127.9852 318.4326)" cx="426" cy="356.2" rx="8.1" ry="8.1"/>
	<ellipse transform="matrix(0.7431 -0.6691 0.6691 0.7431 -159.0031 360.9553)" cx="390.7" cy="387.6" rx="8.1" ry="8.1"/>
	<ellipse transform="matrix(0.6691 -0.7431 0.7431 0.6691 -195.2981 406.516)" cx="358.9" cy="422.6" rx="8.1" ry="8.1"/>
	<ellipse transform="matrix(0.5878 -0.809 0.809 0.5878 -236.3147 457.6265)" cx="330.9" cy="460.7" rx="8.1" ry="8.1"/>
	<ellipse transform="matrix(0.5 -0.866 0.866 0.5 -280.7506 516.6884)" cx="307.1" cy="501.5" rx="8.1" ry="8.1"/>
	<ellipse transform="matrix(0.4067 -0.9136 0.9136 0.4067 -326.8861 585.8752)" cx="287.6" cy="544.6" rx="8.1" ry="8.1"/>
	<ellipse transform="matrix(0.309 -0.9511 0.9511 0.309 -372.0611 666.756)" cx="272.8" cy="589.4" rx="8.1" ry="8.1"/>
	<ellipse transform="matrix(0.2079 -0.9781 0.9781 0.2079 -413.5725 760.4278)" cx="262.7" cy="635.6" rx="8.1" ry="8.1"/>
	<ellipse transform="matrix(0.1045 -0.9945 0.9945 0.1045 -448.1453 867.4174)" cx="257.6" cy="682.6" rx="8.1" ry="8.1"/>
	<circle cx="257.4" cy="729.8" r="8.1"/>
	<ellipse transform="matrix(0.9945 -0.1045 0.1045 0.9945 -79.7518 31.6413)" cx="262.1" cy="776.9" rx="8.1" ry="8.1"/>
	<ellipse transform="matrix(0.9781 -0.2079 0.2079 0.9781 -165.1848 74.4695)" cx="271.7" cy="823.1" rx="8.1" ry="8.1"/>
	<ellipse transform="matrix(0.9511 -0.309 0.309 0.9511 -254.257 130.8489)" cx="286" cy="868.2" rx="8.1" ry="8.1"/>
	<ellipse transform="matrix(0.9136 -0.4067 0.4067 0.9136 -344.2962 202.8536)" cx="305" cy="911.3" rx="8.1" ry="8.1"/>
	<ellipse transform="matrix(0.866 -0.5 0.5 0.866 -432.2281 291.8691)" cx="328.5" cy="952.5" rx="8.1" ry="8.1"/>
	<ellipse transform="matrix(0.809 -0.5878 0.5878 0.809 -514.3586 398.5415)" cx="356.1" cy="990.8" rx="8.1" ry="8.1"/>
	<ellipse transform="matrix(0.7431 -0.6691 0.6691 0.7431 -587.0604 522.8168)" cx="387.5" cy="1026.1" rx="8.1" ry="8.1"/>
	<ellipse transform="matrix(0.6691 -0.7431 0.7431 0.6691 -646.373 663.9373)" cx="422.4" cy="1057.9" rx="8.1" ry="8.1"/>
	<ellipse transform="matrix(0.5878 -0.809 0.809 0.5878 -688.6252 820.2297)" cx="460.6" cy="1085.9" rx="8.1" ry="8.1"/>
	<ellipse transform="matrix(0.5 -0.866 0.866 0.5 -710.3326 989.0232)" cx="501.4" cy="1109.7" rx="8.1" ry="8.1"/>
	<ellipse transform="matrix(0.4067 -0.9136 0.9136 0.4067 -708.4799 1167.1523)" cx="544.4" cy="1129" rx="8.1" ry="8.1"/>
	<ellipse transform="matrix(0.309 -0.9511 0.9511 0.309 -680.683 1351.0332)" cx="589.4" cy="1143.9" rx="8.1" ry="8.1"/>
	<ellipse transform="matrix(0.2079 -0.9781 0.9781 0.2079 -625.4927 1535.6375)" cx="635.4" cy="1154" rx="8.1" ry="8.1"/>
	<ellipse transform="matrix(0.1045 -0.9945 0.9945 0.1045 -541.6575 1716.7103)" cx="682.4" cy="1159.1" rx="8.1" ry="8.1"/>
	<circle cx="729.7" cy="1159.4" r="8.1"/>
	<ellipse transform="matrix(0.9945 -0.1045 0.1045 0.9945 -116.4172 87.484)" cx="776.6" cy="1154.7" rx="8.1" ry="8.1"/>
	<ellipse transform="matrix(0.9781 -0.2079 0.2079 0.9781 -220.088 196.1196)" cx="822.9" cy="1145.1" rx="8.1" ry="8.1"/>
	<ellipse transform="matrix(0.9511 -0.309 0.309 0.9511 -306.9227 323.5391)" cx="868" cy="1130.8" rx="8.1" ry="8.1"/>
	<ellipse transform="matrix(0.9136 -0.4067 0.4067 0.9136 -373.3816 466.7113)" cx="911.2" cy="1111.7" rx="8.1" ry="8.1"/>
	<ellipse transform="matrix(0.866 -0.5 0.5 0.866 -416.5727 621.9625)" cx="952.3" cy="1088.3" rx="8.1" ry="8.1"/>
	<ellipse transform="matrix(0.809 -0.5878 0.5878 0.809 -434.2553 784.9189)" cx="990.7" cy="1060.7" rx="8.1" ry="8.1"/>
	<ellipse transform="matrix(0.7431 -0.6691 0.6691 0.7431 -425.199 950.8741)" cx="1025.9" cy="1029.3" rx="8.1" ry="8.1"/>
	<ellipse transform="matrix(0.6691 -0.7431 0.7431 0.6691 -388.9518 1115.0122)" cx="1057.7" cy="994.3" rx="8.1" ry="8.1"/>
	<ellipse transform="matrix(0.5878 -0.809 0.809 0.5878 -326.0221 1272.5403)" cx="1085.8" cy="956.2" rx="8.1" ry="8.1"/>
	<ellipse transform="matrix(0.5 -0.866 0.866 0.5 -238.0072 1418.6167)" cx="1109.6" cy="915.4" rx="8.1" ry="8.1"/>
	<ellipse transform="matrix(0.4067 -0.9136 0.9136 0.4067 -127.1915 1548.8719)" cx="1128.9" cy="872.4" rx="8.1" ry="8.1"/>
	<ellipse transform="matrix(0.309 -0.9511 0.9511 0.309 3.4807 1659.6974)" cx="1143.9" cy="827.5" rx="8.1" ry="8.1"/>
	<ellipse transform="matrix(0.2079 -0.9781 0.9781 0.2079 149.7092 1747.5509)" cx="1153.9" cy="781.3" rx="8.1" ry="8.1"/>
	<ellipse transform="matrix(0.1045 -0.9945 0.9945 0.1045 307.6353 1810.2202)" cx="1159" cy="734.3" rx="8.1" ry="8.1"/>
	<circle cx="1159.3" cy="687.1" r="8.1"/>
	<ellipse transform="matrix(0.9945 -0.1045 0.1045 0.9945 -60.5623 124.1581)" cx="1154.6" cy="640" rx="8.1" ry="8.1"/>
	<ellipse transform="matrix(0.9781 -0.2079 0.2079 0.9781 -98.4331 251.0221)" cx="1145" cy="593.8" rx="8.1" ry="8.1"/>
	<ellipse transform="matrix(0.9511 -0.309 0.309 0.9511 -114.2311 376.2047)" cx="1130.6" cy="548.8" rx="8.1" ry="8.1"/>
	<ellipse transform="matrix(0.9136 -0.4067 0.4067 0.9136 -109.5134 495.7915)" cx="1111.5" cy="505.5" rx="8.1" ry="8.1"/>
	<ellipse transform="matrix(0.866 -0.5 0.5 0.866 -86.4016 606.3074)" cx="1088.2" cy="464.4" rx="8.1" ry="8.1"/>
	<ellipse transform="matrix(0.809 -0.5878 0.5878 0.809 -47.8824 704.8149)" cx="1060.6" cy="426.1" rx="8.1" ry="8.1"/>
	<ellipse transform="matrix(0.7431 -0.6691 0.6691 0.7431 2.8583 789.0127)" cx="1029.1" cy="390.8" rx="8.1" ry="8.1"/>
	<ellipse transform="matrix(0.6691 -0.7431 0.7431 0.6691 62.1232 857.591)" cx="994.2" cy="359" rx="8.1" ry="8.1"/>
	<ellipse transform="matrix(0.5878 -0.809 0.809 0.5878 126.2915 909.9314)" cx="956.1" cy="331" rx="8.1" ry="8.1"/>
	<ellipse transform="matrix(0.5 -0.866 0.866 0.5 191.586 946.2647)" cx="915.3" cy="307.2" rx="8.1" ry="8.1"/>
	<ellipse transform="matrix(0.4067 -0.9136 0.9136 0.4067 254.5194 967.5712)" cx="872.2" cy="287.8" rx="8.1" ry="8.1"/>
	<ellipse transform="matrix(0.309 -0.9511 0.9511 0.309 312.1045 975.4179)" cx="827.3" cy="272.9" rx="8.1" ry="8.1"/>
	<ellipse transform="matrix(0.2079 -0.9781 0.9781 0.2079 361.6228 972.349)" cx="781.2" cy="262.9" rx="8.1" ry="8.1"/>
	<ellipse transform="matrix(0.1045 -0.9945 0.9945 0.1045 401.151 960.9402)" cx="734.2" cy="257.7" rx="8.1" ry="8.1"/>
	<circle cx="708.3" cy="289" r="8.1"/>
	<ellipse transform="matrix(0.9945 -0.1045 0.1045 0.9945 -26.8048 71.0343)" cx="664.5" cy="291.3" rx="8.1" ry="8.1"/>
	<ellipse transform="matrix(0.9781 -0.2079 0.2079 0.9781 -48.4281 135.6428)" cx="621.1" cy="298.2" rx="8.1" ry="8.1"/>
	<ellipse transform="matrix(0.9511 -0.309 0.309 0.9511 -67.3517 193.9743)" cx="578.7" cy="309.6" rx="8.1" ry="8.1"/>
	<ellipse transform="matrix(0.9136 -0.4067 0.4067 0.9136 -85.8331 246.8072)" cx="537.7" cy="325.3" rx="8.1" ry="8.1"/>
	<ellipse transform="matrix(0.866 -0.5 0.5 0.866 -105.809 295.5482)" cx="498.6" cy="345.2" rx="8.1" ry="8.1"/>
	<ellipse transform="matrix(0.809 -0.5878 0.5878 0.809 -128.7627 341.9349)" cx="461.8" cy="369.1" rx="8.1" ry="8.1"/>
	<ellipse transform="matrix(0.7431 -0.6691 0.6691 0.7431 -155.6407 388.1036)" cx="427.7" cy="396.8" rx="8.1" ry="8.1"/>
	<ellipse transform="matrix(0.6691 -0.7431 0.7431 0.6691 -186.7297 436.2763)" cx="396.6" cy="427.8" rx="8.1" ry="8.1"/>
	<ellipse transform="matrix(0.5878 -0.809 0.809 0.5878 -221.6128 488.9276)" cx="369" cy="461.9" rx="8.1" ry="8.1"/>
	<ellipse transform="matrix(0.5 -0.866 0.866 0.5 -259.3869 548.1938)" cx="345.1" cy="498.7" rx="8.1" ry="8.1"/>
	<ellipse transform="matrix(0.4067 -0.9136 0.9136 0.4067 -298.4232 616.1807)" cx="325.2" cy="537.9" rx="8.1" ry="8.1"/>
	<ellipse transform="matrix(0.309 -0.9511 0.9511 0.309 -336.7085 694.2673)" cx="309.4" cy="578.8" rx="8.1" ry="8.1"/>
	<ellipse transform="matrix(0.2079 -0.9781 0.9781 0.2079 -371.5976 783.5739)" cx="298" cy="621.2" rx="8.1" ry="8.1"/>
	<ellipse transform="matrix(0.1045 -0.9945 0.9945 0.1045 -400.2038 884.7484)" cx="291.2" cy="664.6" rx="8.1" ry="8.1"/>
	<circle cx="288.9" cy="708.4" r="8.1"/>
	<ellipse transform="matrix(0.9945 -0.1045 0.1045 0.9945 -77.0224 34.5474)" cx="291.2" cy="752.3" rx="8.1" ry="8.1"/>
	<ellipse transform="matrix(0.9781 -0.2079 0.2079 0.9781 -158.8918 79.3567)" cx="298.1" cy="795.6" rx="8.1" ry="8.1"/>
	<ellipse transform="matrix(0.9511 -0.309 0.309 0.9511 -243.8115 136.6066)" cx="309.4" cy="838.1" rx="8.1" ry="8.1"/>
	<ellipse transform="matrix(0.9136 -0.4067 0.4067 0.9136 -329.3878 208.2267)" cx="325.1" cy="879" rx="8.1" ry="8.1"/>
	<ellipse transform="matrix(0.866 -0.5 0.5 0.866 -412.8173 295.5465)" cx="345.1" cy="918.1" rx="8.1" ry="8.1"/>
	<ellipse transform="matrix(0.809 -0.5878 0.5878 0.809 -490.8632 399.3148)" cx="369" cy="955" rx="8.1" ry="8.1"/>
	<ellipse transform="matrix(0.7431 -0.6691 0.6691 0.7431 -559.9761 519.4219)" cx="396.6" cy="989.1" rx="8.1" ry="8.1"/>
	<ellipse transform="matrix(0.6691 -0.7431 0.7431 0.6691 -616.5804 655.2908)" cx="427.6" cy="1020.1" rx="8.1" ry="8.1"/>
	<ellipse transform="matrix(0.5878 -0.809 0.809 0.5878 -657.3145 805.5253)" cx="461.8" cy="1047.8" rx="8.1" ry="8.1"/>
	<ellipse transform="matrix(0.5 -0.866 0.866 0.5 -678.827 967.6592)" cx="498.6" cy="1071.7" rx="8.1" ry="8.1"/>
	<ellipse transform="matrix(0.4067 -0.9136 0.9136 0.4067 -678.2793 1138.8199)" cx="537.7" cy="1091.6" rx="8.1" ry="8.1"/>
	<ellipse transform="matrix(0.309 -0.9511 0.9511 0.309 -653.2117 1315.5728)" cx="578.7" cy="1107.3" rx="8.1" ry="8.1"/>
	<ellipse transform="matrix(0.2079 -0.9781 0.9781 0.2079 -602.3417 1493.6368)" cx="621.1" cy="1118.7" rx="8.1" ry="8.1"/>
	<ellipse transform="matrix(0.1045 -0.9945 0.9945 0.1045 -524.3254 1668.7693)" cx="664.5" cy="1125.5" rx="8.1" ry="8.1"/>
	<circle cx="708.3" cy="1127.9" r="8.1"/>
	<ellipse transform="matrix(0.9945 -0.1045 0.1045 0.9945 -113.5094 84.7651)" cx="752.2" cy="1125.6" rx="8.1" ry="8.1"/>
	<ellipse transform="matrix(0.9781 -0.2079 0.2079 0.9781 -215.1985 189.8282)" cx="795.5" cy="1118.7" rx="8.1" ry="8.1"/>
	<ellipse transform="matrix(0.9511 -0.309 0.309 0.9511 -301.165 313.0935)" cx="837.9" cy="1107.4" rx="8.1" ry="8.1"/>
	<ellipse transform="matrix(0.9136 -0.4067 0.4067 0.9136 -368.0083 451.8029)" cx="878.8" cy="1091.6" rx="8.1" ry="8.1"/>
	<ellipse transform="matrix(0.866 -0.5 0.5 0.866 -412.8622 602.5958)" cx="918" cy="1071.7" rx="8.1" ry="8.1"/>
	<ellipse transform="matrix(0.809 -0.5878 0.5878 0.809 -433.4742 761.4167)" cx="954.9" cy="1047.7" rx="8.1" ry="8.1"/>
	<ellipse transform="matrix(0.7431 -0.6691 0.6691 0.7431 -428.5614 923.7259)" cx="988.9" cy="1020.1" rx="8.1" ry="8.1"/>
	<ellipse transform="matrix(0.6691 -0.7431 0.7431 0.6691 -397.5893 1085.2223)" cx="1019.9" cy="989.1" rx="8.1" ry="8.1"/>
	<ellipse transform="matrix(0.5878 -0.809 0.809 0.5878 -340.8138 1241.2251)" cx="1047.6" cy="955.1" rx="8.1" ry="8.1"/>
	<ellipse transform="matrix(0.5 -0.866 0.866 0.5 -259.371 1387.0106)" cx="1071.5" cy="918.1" rx="8.1" ry="8.1"/>
	<ellipse transform="matrix(0.4067 -0.9136 0.9136 0.4067 -155.5374 1518.5304)" cx="1091.4" cy="879" rx="8.1" ry="8.1"/>
	<ellipse transform="matrix(0.309 -0.9511 0.9511 0.309 -31.9084 1632.0741)" cx="1107.2" cy="838" rx="8.1" ry="8.1"/>
	<ellipse transform="matrix(0.2079 -0.9781 0.9781 0.2079 107.6735 1724.2805)" cx="1118.5" cy="795.7" rx="8.1" ry="8.1"/>
	<ellipse transform="matrix(0.1045 -0.9945 0.9945 0.1045 259.6944 1792.8904)" cx="1125.4" cy="752.2" rx="8.1" ry="8.1"/>
	<circle cx="1127.8" cy="708.4" r="8.1"/>
	<ellipse transform="matrix(0.9945 -0.1045 0.1045 0.9945 -63.2917 121.252)" cx="1125.5" cy="664.6" rx="8.1" ry="8.1"/>
	<ellipse transform="matrix(0.9781 -0.2079 0.2079 0.9781 -104.7093 246.1277)" cx="1118.5" cy="621.2" rx="8.1" ry="8.1"/>
	<ellipse transform="matrix(0.9511 -0.309 0.309 0.9511 -124.6781 370.447)" cx="1107.2" cy="578.9" rx="8.1" ry="8.1"/>
	<ellipse transform="matrix(0.9136 -0.4067 0.4067 0.9136 -124.4273 490.4194)" cx="1091.4" cy="537.9" rx="8.1" ry="8.1"/>
	<ellipse transform="matrix(0.866 -0.5 0.5 0.866 -105.7741 602.5994)" cx="1071.6" cy="498.7" rx="8.1" ry="8.1"/>
	<ellipse transform="matrix(0.809 -0.5878 0.5878 0.809 -71.4281 703.9999)" cx="1047.6" cy="461.9" rx="8.1" ry="8.1"/>
	<ellipse transform="matrix(0.7431 -0.6691 0.6691 0.7431 -24.2898 792.375)" cx="1019.9" cy="427.8" rx="8.1" ry="8.1"/>
	<ellipse transform="matrix(0.6691 -0.7431 0.7431 0.6691 32.3377 866.2367)" cx="989" cy="396.8" rx="8.1" ry="8.1"/>
	<ellipse transform="matrix(0.5878 -0.809 0.809 0.5878 94.9907 924.6334)" cx="954.9" cy="369.1" rx="8.1" ry="8.1"/>
	<ellipse transform="matrix(0.5 -0.866 0.866 0.5 159.9787 967.634)" cx="918" cy="345.3" rx="8.1" ry="8.1"/>
	<ellipse transform="matrix(0.4067 -0.9136 0.9136 0.4067 224.199 995.9292)" cx="878.9" cy="325.3" rx="8.1" ry="8.1"/>
	<ellipse transform="matrix(0.309 -0.9511 0.9511 0.309 284.6295 1010.8784)" cx="838" cy="309.6" rx="8.1" ry="8.1"/>
	<ellipse transform="matrix(0.2079 -0.9781 0.9781 0.2079 338.3723 1014.3878)" cx="795.5" cy="298.3" rx="8.1" ry="8.1"/>
	<ellipse transform="matrix(0.1045 -0.9945 0.9945 0.1045 383.8154 1008.8704)" cx="752.1" cy="291.3" rx="8.1" ry="8.1"/>
	<circle cx="708.3" cy="353.2" r="8.1"/>
	<ellipse transform="matrix(0.9945 -0.1045 0.1045 0.9945 -33.4457 72.0848)" cx="671.2" cy="355.2" rx="8.1" ry="8.1"/>
	<ellipse transform="matrix(0.9781 -0.2079 0.2079 0.9781 -61.1874 139.8009)" cx="634.5" cy="361" rx="8.1" ry="8.1"/>
	<ellipse transform="matrix(0.9511 -0.309 0.309 0.9511 -85.2238 203.1013)" cx="598.6" cy="370.6" rx="8.1" ry="8.1"/>
	<ellipse transform="matrix(0.9136 -0.4067 0.4067 0.9136 -107.3922 262.5143)" cx="563.8" cy="383.9" rx="8.1" ry="8.1"/>
	<ellipse transform="matrix(0.866 -0.5 0.5 0.866 -129.3053 319.0477)" cx="530.7" cy="400.8" rx="8.1" ry="8.1"/>
	<ellipse transform="matrix(0.809 -0.5878 0.5878 0.809 -152.117 374.0524)" cx="499.5" cy="421.1" rx="8.1" ry="8.1"/>
	<ellipse transform="matrix(0.7431 -0.6691 0.6691 0.7431 -176.5632 429.0756)" cx="470.6" cy="444.5" rx="8.1" ry="8.1"/>
	<ellipse transform="matrix(0.6691 -0.7431 0.7431 0.6691 -202.8083 485.9972)" cx="444.4" cy="470.8" rx="8.1" ry="8.1"/>
	<ellipse transform="matrix(0.5878 -0.809 0.809 0.5878 -230.6706 546.4775)" cx="420.9" cy="499.6" rx="8.1" ry="8.1"/>
	<ellipse transform="matrix(0.5 -0.866 0.866 0.5 -259.3845 612.3912)" cx="400.7" cy="530.8" rx="8.1" ry="8.1"/>
	<ellipse transform="matrix(0.4067 -0.9136 0.9136 0.4067 -287.5327 685.2369)" cx="383.8" cy="564" rx="8.1" ry="8.1"/>
	<ellipse transform="matrix(0.309 -0.9511 0.9511 0.309 -313.3098 766.0927)" cx="370.5" cy="598.7" rx="8.1" ry="8.1"/>
	<ellipse transform="matrix(0.2079 -0.9781 0.9781 0.2079 -334.8753 855.6149)" cx="360.9" cy="634.6" rx="8.1" ry="8.1"/>
	<ellipse transform="matrix(0.1045 -0.9945 0.9945 0.1045 -349.6565 954.1978)" cx="355" cy="671.3" rx="8.1" ry="8.1"/>
	<circle cx="353.1" cy="708.4" r="8.1"/>
	<ellipse transform="matrix(0.9945 -0.1045 0.1045 0.9945 -75.972 41.1884)" cx="355.1" cy="745.6" rx="8.1" ry="8.1"/>
	<ellipse transform="matrix(0.9781 -0.2079 0.2079 0.9781 -154.7541 92.1239)" cx="360.9" cy="782.3" rx="8.1" ry="8.1"/>
	<ellipse transform="matrix(0.9511 -0.309 0.309 0.9511 -234.6982 154.5201)" cx="370.5" cy="818.2" rx="8.1" ry="8.1"/>
	<ellipse transform="matrix(0.9136 -0.4067 0.4067 0.9136 -313.7166 229.8077)" cx="383.7" cy="852.9" rx="8.1" ry="8.1"/>
	<ellipse transform="matrix(0.866 -0.5 0.5 0.866 -389.3617 319.078)" cx="400.7" cy="886.1" rx="8.1" ry="8.1"/>
	<ellipse transform="matrix(0.809 -0.5878 0.5878 0.809 -458.7018 422.6265)" cx="421" cy="917.2" rx="8.1" ry="8.1"/>
	<ellipse transform="matrix(0.7431 -0.6691 0.6691 0.7431 -518.9077 540.3129)" cx="444.3" cy="946" rx="8.1" ry="8.1"/>
	<ellipse transform="matrix(0.6691 -0.7431 0.7431 0.6691 -566.9691 671.4222)" cx="470.5" cy="972.4" rx="8.1" ry="8.1"/>
	<ellipse transform="matrix(0.5878 -0.809 0.809 0.5878 -599.7745 814.5857)" cx="499.5" cy="995.9" rx="8.1" ry="8.1"/>
	<ellipse transform="matrix(0.5 -0.866 0.866 0.5 -614.6234 967.6537)" cx="530.7" cy="1016.1" rx="8.1" ry="8.1"/>
	<ellipse transform="matrix(0.4067 -0.9136 0.9136 0.4067 -609.0938 1127.9059)" cx="563.9" cy="1032.9" rx="8.1" ry="8.1"/>
	<ellipse transform="matrix(0.309 -0.9511 0.9511 0.309 -581.3498 1292.286)" cx="598.6" cy="1046.2" rx="8.1" ry="8.1"/>
	<ellipse transform="matrix(0.2079 -0.9781 0.9781 0.2079 -530.3042 1456.9395)" cx="634.4" cy="1055.9" rx="8.1" ry="8.1"/>
	<ellipse transform="matrix(0.1045 -0.9945 0.9945 0.1045 -454.8772 1618.2214)" cx="671.1" cy="1061.7" rx="8.1" ry="8.1"/>
	<circle cx="708.3" cy="1063.7" r="8.1"/>
	<ellipse transform="matrix(0.9945 -0.1045 0.1045 0.9945 -106.8685 83.7145)" cx="745.4" cy="1061.7" rx="8.1" ry="8.1"/>
	<ellipse transform="matrix(0.9781 -0.2079 0.2079 0.9781 -202.4331 185.6888)" cx="782.1" cy="1055.9" rx="8.1" ry="8.1"/>
	<ellipse transform="matrix(0.9511 -0.309 0.309 0.9511 -283.2781 303.995)" cx="818.1" cy="1046.4" rx="8.1" ry="8.1"/>
	<ellipse transform="matrix(0.9136 -0.4067 0.4067 0.9136 -346.4259 436.1298)" cx="852.7" cy="1033" rx="8.1" ry="8.1"/>
	<ellipse transform="matrix(0.866 -0.5 0.5 0.866 -389.3682 579.0957)" cx="885.9" cy="1016.1" rx="8.1" ry="8.1"/>
	<ellipse transform="matrix(0.809 -0.5878 0.5878 0.809 -410.164 729.2613)" cx="917.1" cy="995.8" rx="8.1" ry="8.1"/>
	<ellipse transform="matrix(0.7431 -0.6691 0.6691 0.7431 -407.7028 882.7213)" cx="945.9" cy="972.4" rx="8.1" ry="8.1"/>
	<ellipse transform="matrix(0.6691 -0.7431 0.7431 0.6691 -381.4417 1035.5308)" cx="972.2" cy="946.1" rx="8.1" ry="8.1"/>
	<ellipse transform="matrix(0.5878 -0.809 0.809 0.5878 -331.6521 1183.5997)" cx="995.7" cy="917.3" rx="8.1" ry="8.1"/>
	<ellipse transform="matrix(0.5 -0.866 0.866 0.5 -259.3585 1322.896)" cx="1016" cy="886.1" rx="8.1" ry="8.1"/>
	<ellipse transform="matrix(0.4067 -0.9136 0.9136 0.4067 -166.5415 1449.5066)" cx="1032.7" cy="853" rx="8.1" ry="8.1"/>
	<ellipse transform="matrix(0.309 -0.9511 0.9511 0.309 -55.1569 1560.3185)" cx="1046.2" cy="818.1" rx="8.1" ry="8.1"/>
	<ellipse transform="matrix(0.2079 -0.9781 0.9781 0.2079 71.0113 1652.3625)" cx="1055.8" cy="782.3" rx="8.1" ry="8.1"/>
	<ellipse transform="matrix(0.1045 -0.9945 0.9945 0.1045 209.1465 1723.442)" cx="1061.6" cy="745.6" rx="8.1" ry="8.1"/>
	<circle cx="1063.6" cy="708.4" r="8.1"/>
	<ellipse transform="matrix(0.9945 -0.1045 0.1045 0.9945 -64.3421 114.611)" cx="1061.6" cy="671.3" rx="8.1" ry="8.1"/>
	<ellipse transform="matrix(0.9781 -0.2079 0.2079 0.9781 -108.864 233.3673)" cx="1055.7" cy="634.6" rx="8.1" ry="8.1"/>
	<ellipse transform="matrix(0.9511 -0.309 0.309 0.9511 -133.8051 352.5757)" cx="1046.2" cy="598.7" rx="8.1" ry="8.1"/>
	<ellipse transform="matrix(0.9136 -0.4067 0.4067 0.9136 -140.122 468.803)" cx="1032.8" cy="564" rx="8.1" ry="8.1"/>
	<ellipse transform="matrix(0.866 -0.5 0.5 0.866 -129.274 579.1012)" cx="1016" cy="530.8" rx="8.1" ry="8.1"/>
	<ellipse transform="matrix(0.809 -0.5878 0.5878 0.809 -103.4929 680.6735)" cx="995.7" cy="499.6" rx="8.1" ry="8.1"/>
	<ellipse transform="matrix(0.7431 -0.6691 0.6691 0.7431 -65.2945 771.5164)" cx="972.3" cy="470.8" rx="8.1" ry="8.1"/>
	<ellipse transform="matrix(0.6691 -0.7431 0.7431 0.6691 -17.3582 850.0807)" cx="946" cy="444.5" rx="8.1" ry="8.1"/>
	<ellipse transform="matrix(0.5878 -0.809 0.809 0.5878 37.3479 915.5671)" cx="917.1" cy="421.1" rx="8.1" ry="8.1"/>
	<ellipse transform="matrix(0.5 -0.866 0.866 0.5 95.7813 967.6364)" cx="885.9" cy="400.9" rx="8.1" ry="8.1"/>
	<ellipse transform="matrix(0.4067 -0.9136 0.9136 0.4067 155.1385 1006.8089)" cx="852.7" cy="384" rx="8.1" ry="8.1"/>
	<ellipse transform="matrix(0.309 -0.9511 0.9511 0.309 212.8796 1034.1292)" cx="818.1" cy="370.6" rx="8.1" ry="8.1"/>
	<ellipse transform="matrix(0.2079 -0.9781 0.9781 0.2079 266.4338 1051.0343)" cx="782.2" cy="361" rx="8.1" ry="8.1"/>
	<ellipse transform="matrix(0.1045 -0.9945 0.9945 0.1045 314.3694 1059.4301)" cx="745.5" cy="355.1" rx="8.1" ry="8.1"/>
	<circle cx="689.8" cy="321.1" r="8.1"/>
	<ellipse transform="matrix(0.9945 -0.1045 0.1045 0.9945 -30.4304 69.6423)" cx="649.4" cy="325.2" rx="8.1" ry="8.1"/>
	<ellipse transform="matrix(0.9781 -0.2079 0.2079 0.9781 -55.992 134.0397)" cx="609.7" cy="333.4" rx="8.1" ry="8.1"/>
	<ellipse transform="matrix(0.9511 -0.309 0.309 0.9511 -78.9169 193.3616)" cx="571" cy="345.8" rx="8.1" ry="8.1"/>
	<ellipse transform="matrix(0.9136 -0.4067 0.4067 0.9136 -101.1262 248.4289)" cx="533.8" cy="362.1" rx="8.1" ry="8.1"/>
	<ellipse transform="matrix(0.866 -0.5 0.5 0.866 -124.3534 300.5288)" cx="498.6" cy="382.3" rx="8.1" ry="8.1"/>
	<ellipse transform="matrix(0.809 -0.5878 0.5878 0.809 -149.6881 351.2837)" cx="465.7" cy="406" rx="8.1" ry="8.1"/>
	<ellipse transform="matrix(0.7431 -0.6691 0.6691 0.7431 -177.9063 402.5387)" cx="435.4" cy="433" rx="8.1" ry="8.1"/>
	<ellipse transform="matrix(0.6691 -0.7431 0.7431 0.6691 -209.0867 456.4279)" cx="408" cy="463" rx="8.1" ry="8.1"/>
	<ellipse transform="matrix(0.5878 -0.809 0.809 0.5878 -242.7734 515.127)" cx="384.1" cy="495.8" rx="8.1" ry="8.1"/>
	<ellipse transform="matrix(0.5 -0.866 0.866 0.5 -277.9471 580.3003)" cx="363.6" cy="530.9" rx="8.1" ry="8.1"/>
	<ellipse transform="matrix(0.4067 -0.9136 0.9136 0.4067 -312.8761 653.7766)" cx="346.9" cy="567.8" rx="8.1" ry="8.1"/>
	<ellipse transform="matrix(0.309 -0.9511 0.9511 0.309 -345.6235 736.9205)" cx="334.3" cy="606.3" rx="8.1" ry="8.1"/>
	<ellipse transform="matrix(0.2079 -0.9781 0.9781 0.2079 -374.0781 830.1893)" cx="325.6" cy="646.1" rx="8.1" ry="8.1"/>
	<ellipse transform="matrix(0.1045 -0.9945 0.9945 0.1045 -394.9776 934.0853)" cx="321.2" cy="686.4" rx="8.1" ry="8.1"/>
	<circle cx="321" cy="727" r="8.1"/>
	<ellipse transform="matrix(0.9945 -0.1045 0.1045 0.9945 -78.4041 38.1712)" cx="325.1" cy="767.3" rx="8.1" ry="8.1"/>
	<ellipse transform="matrix(0.9781 -0.2079 0.2079 0.9781 -160.5164 86.9272)" cx="333.3" cy="807.1" rx="8.1" ry="8.1"/>
	<ellipse transform="matrix(0.9511 -0.309 0.309 0.9511 -244.41 148.1989)" cx="345.7" cy="845.7" rx="8.1" ry="8.1"/>
	<ellipse transform="matrix(0.9136 -0.4067 0.4067 0.9136 -327.8021 223.5387)" cx="362" cy="882.9" rx="8.1" ry="8.1"/>
	<ellipse transform="matrix(0.866 -0.5 0.5 0.866 -407.844 314.0893)" cx="382.2" cy="918.1" rx="8.1" ry="8.1"/>
	<ellipse transform="matrix(0.809 -0.5878 0.5878 0.809 -481.5134 420.2436)" cx="405.9" cy="951.1" rx="8.1" ry="8.1"/>
	<ellipse transform="matrix(0.7432 -0.6691 0.6691 0.7432 -545.4953 541.709)" cx="432.9" cy="981.4" rx="8.1" ry="8.1"/>
	<ellipse transform="matrix(0.6691 -0.7431 0.7431 0.6691 -596.4612 677.7259)" cx="462.9" cy="1008.7" rx="8.1" ry="8.1"/>
	<ellipse transform="matrix(0.5878 -0.809 0.809 0.5878 -631.1152 826.6856)" cx="495.7" cy="1032.7" rx="8.1" ry="8.1"/>
	<ellipse transform="matrix(0.5 -0.866 0.866 0.5 -646.7142 986.1164)" cx="530.7" cy="1053.1" rx="8.1" ry="8.1"/>
	<ellipse transform="matrix(0.4067 -0.9136 0.9136 0.4067 -640.5568 1153.2557)" cx="567.6" cy="1069.8" rx="8.1" ry="8.1"/>
	<ellipse transform="matrix(0.309 -0.9511 0.9511 0.309 -610.5221 1324.5997)" cx="606.3" cy="1082.4" rx="8.1" ry="8.1"/>
	<ellipse transform="matrix(0.2079 -0.9781 0.9781 0.2079 -555.7959 1496.0242)" cx="645.8" cy="1091.2" rx="8.1" ry="8.1"/>
	<ellipse transform="matrix(0.1045 -0.9945 0.9945 0.1045 -474.9897 1663.5426)" cx="686.3" cy="1095.5" rx="8.1" ry="8.1"/>
	<circle cx="726.9" cy="1095.8" r="8.1"/>
	<ellipse transform="matrix(0.9945 -0.1045 0.1045 0.9945 -109.8855 86.1467)" cx="767.2" cy="1091.7" rx="8.1" ry="8.1"/>
	<ellipse transform="matrix(0.9781 -0.2079 0.2079 0.9781 -207.6059 191.4454)" cx="806.9" cy="1083.3" rx="8.1" ry="8.1"/>
	<ellipse transform="matrix(0.9511 -0.309 0.309 0.9511 -289.5991 313.7069)" cx="845.6" cy="1071.2" rx="8.1" ry="8.1"/>
	<ellipse transform="matrix(0.9136 -0.4067 0.4067 0.9136 -352.6552 450.1923)" cx="882.7" cy="1054.7" rx="8.1" ry="8.1"/>
	<ellipse transform="matrix(0.866 -0.5 0.5 0.866 -394.3203 597.6146)" cx="918" cy="1034.6" rx="8.1" ry="8.1"/>
	<ellipse transform="matrix(0.809 -0.5878 0.5878 0.809 -412.5455 752.0669)" cx="951" cy="1010.9" rx="8.1" ry="8.1"/>
	<ellipse transform="matrix(0.7431 -0.6691 0.6691 0.7431 -406.2958 909.2906)" cx="981.2" cy="983.9" rx="8.1" ry="8.1"/>
	<ellipse transform="matrix(0.6691 -0.7431 0.7431 0.6691 -375.1381 1065.0228)" cx="1008.5" cy="953.8" rx="8.1" ry="8.1"/>
	<ellipse transform="matrix(0.5878 -0.809 0.809 0.5878 -319.5635 1215.0398)" cx="1032.6" cy="921.1" rx="8.1" ry="8.1"/>
	<ellipse transform="matrix(0.5 -0.866 0.866 0.5 -240.8959 1354.9866)" cx="1053" cy="886.1" rx="8.1" ry="8.1"/>
	<ellipse transform="matrix(0.4067 -0.9136 0.9136 0.4067 -141.088 1480.948)" cx="1069.7" cy="849.1" rx="8.1" ry="8.1"/>
	<ellipse transform="matrix(0.309 -0.9511 0.9511 0.309 -22.8449 1589.4961)" cx="1082.4" cy="810.5" rx="8.1" ry="8.1"/>
	<ellipse transform="matrix(0.2079 -0.9781 0.9781 0.2079 110.096 1677.8542)" cx="1091" cy="770.9" rx="8.1" ry="8.1"/>
	<ellipse transform="matrix(0.1045 -0.9945 0.9945 0.1045 254.4677 1743.5547)" cx="1095.4" cy="730.5" rx="8.1" ry="8.1"/>
	<circle cx="1095.7" cy="689.9" r="8.1"/>
	<ellipse transform="matrix(0.9945 -0.1045 0.1045 0.9945 -61.8997 117.6265)" cx="1091.6" cy="649.5" rx="8.1" ry="8.1"/>
	<ellipse transform="matrix(0.9781 -0.2079 0.2079 0.9781 -103.1099 238.5426)" cx="1083.2" cy="609.8" rx="8.1" ry="8.1"/>
	<ellipse transform="matrix(0.9511 -0.309 0.309 0.9511 -124.064 358.8826)" cx="1071" cy="571.1" rx="8.1" ry="8.1"/>
	<ellipse transform="matrix(0.9136 -0.4067 0.4067 0.9136 -126.0418 475.0728)" cx="1054.5" cy="534" rx="8.1" ry="8.1"/>
	<ellipse transform="matrix(0.866 -0.5 0.5 0.866 -110.7551 584.0532)" cx="1034.5" cy="498.7" rx="8.1" ry="8.1"/>
	<ellipse transform="matrix(0.809 -0.5878 0.5878 0.809 -80.7236 683.105)" cx="1010.8" cy="465.8" rx="8.1" ry="8.1"/>
	<ellipse transform="matrix(0.7431 -0.6691 0.6691 0.7431 -38.7252 770.1094)" cx="983.7" cy="435.5" rx="8.1" ry="8.1"/>
	<ellipse transform="matrix(0.6691 -0.7431 0.7431 0.6691 12.1338 843.7772)" cx="953.7" cy="408.3" rx="8.1" ry="8.1"/>
	<ellipse transform="matrix(0.5878 -0.809 0.809 0.5878 68.7881 903.4785)" cx="921" cy="384.2" rx="8.1" ry="8.1"/>
	<ellipse transform="matrix(0.5 -0.866 0.866 0.5 127.9683 949.1831)" cx="886" cy="363.8" rx="8.1" ry="8.1"/>
	<ellipse transform="matrix(0.4067 -0.9136 0.9136 0.4067 186.4892 981.48)" cx="848.9" cy="347.2" rx="8.1" ry="8.1"/>
	<ellipse transform="matrix(0.309 -0.9511 0.9511 0.309 242.0514 1001.819)" cx="810.4" cy="334.3" rx="8.1" ry="8.1"/>
	<ellipse transform="matrix(0.2079 -0.9781 0.9781 0.2079 291.756 1011.8948)" cx="770.7" cy="325.8" rx="8.1" ry="8.1"/>
	<ellipse transform="matrix(0.1045 -0.9945 0.9945 0.1045 334.4797 1014.0972)" cx="730.4" cy="321.3" rx="8.1" ry="8.1"/>
	<circle cx="692.6" cy="383.5" r="8.1"/>
	<ellipse transform="matrix(0.9945 -0.1045 0.1045 0.9945 -36.8274 70.9515)" cx="658.7" cy="386.9" rx="8.1" ry="8.1"/>
	<ellipse transform="matrix(0.9781 -0.2079 0.2079 0.9781 -68.229 138.6286)" cx="625.4" cy="393.9" rx="8.1" ry="8.1"/>
	<ellipse transform="matrix(0.9511 -0.309 0.309 0.9511 -95.9104 203.0255)" cx="593" cy="404.3" rx="8.1" ry="8.1"/>
	<ellipse transform="matrix(0.9136 -0.4067 0.4067 0.9136 -121.4459 264.6206)" cx="561.8" cy="418" rx="8.1" ry="8.1"/>
	<ellipse transform="matrix(0.866 -0.5 0.5 0.866 -146.1198 324.4135)" cx="532.3" cy="434.9" rx="8.1" ry="8.1"/>
	<ellipse transform="matrix(0.809 -0.5878 0.5878 0.809 -170.9503 383.475)" cx="504.6" cy="454.8" rx="8.1" ry="8.1"/>
	<ellipse transform="matrix(0.7431 -0.6691 0.6691 0.7431 -196.429 443.2943)" cx="479.2" cy="477.5" rx="8.1" ry="8.1"/>
	<ellipse transform="matrix(0.6691 -0.7431 0.7431 0.6691 -222.6279 505.4194)" cx="456.3" cy="502.7" rx="8.1" ry="8.1"/>
	<ellipse transform="matrix(0.5878 -0.809 0.809 0.5878 -249.1223 571.469)" cx="436.2" cy="530.2" rx="8.1" ry="8.1"/>
	<ellipse transform="matrix(0.5 -0.866 0.866 0.5 -275.0516 642.7143)" cx="419.1" cy="559.6" rx="8.1" ry="8.1"/>
	<ellipse transform="matrix(0.4067 -0.9136 0.9136 0.4067 -299.2471 720.3977)" cx="405" cy="590.6" rx="8.1" ry="8.1"/>
	<ellipse transform="matrix(0.309 -0.9511 0.9511 0.309 -319.9138 805.6567)" cx="394.5" cy="623" rx="8.1" ry="8.1"/>
	<ellipse transform="matrix(0.2079 -0.9781 0.9781 0.2079 -335.2266 898.6022)" cx="387.2" cy="656.3" rx="8.1" ry="8.1"/>
	<ellipse transform="matrix(0.1045 -0.9945 0.9945 0.1045 -342.9174 999.3853)" cx="383.5" cy="690.1" rx="8.1" ry="8.1"/>
	<circle cx="383.4" cy="724.2" r="8.1"/>
	<ellipse transform="matrix(0.9945 -0.1045 0.1045 0.9945 -77.095 44.5682)" cx="386.8" cy="758" rx="8.1" ry="8.1"/>
	<ellipse transform="matrix(0.9781 -0.2079 0.2079 0.9781 -155.9271 99.1622)" cx="393.8" cy="791.4" rx="8.1" ry="8.1"/>
	<ellipse transform="matrix(0.9511 -0.309 0.309 0.9511 -234.7882 165.1787)" cx="404.1" cy="823.9" rx="8.1" ry="8.1"/>
	<ellipse transform="matrix(0.9136 -0.4067 0.4067 0.9136 -311.6066 243.865)" cx="417.9" cy="855" rx="8.1" ry="8.1"/>
	<ellipse transform="matrix(0.866 -0.5 0.5 0.866 -383.9931 335.8935)" cx="434.8" cy="884.5" rx="8.1" ry="8.1"/>
	<ellipse transform="matrix(0.809 -0.5878 0.5878 0.809 -449.3155 441.5098)" cx="454.7" cy="912.2" rx="8.1" ry="8.1"/>
	<ellipse transform="matrix(0.7431 -0.6691 0.6691 0.7431 -504.7215 560.2426)" cx="477.4" cy="937.5" rx="8.1" ry="8.1"/>
	<ellipse transform="matrix(0.6691 -0.7431 0.7431 0.6691 -547.4445 691.1895)" cx="502.5" cy="960.4" rx="8.1" ry="8.1"/>
	<ellipse transform="matrix(0.5878 -0.809 0.809 0.5878 -574.8726 833.0231)" cx="530" cy="980.7" rx="8.1" ry="8.1"/>
	<ellipse transform="matrix(0.5 -0.866 0.866 0.5 -584.3041 983.3276)" cx="559.4" cy="997.7" rx="8.1" ry="8.1"/>
	<ellipse transform="matrix(0.4067 -0.9136 0.9136 0.4067 -573.9414 1139.6318)" cx="590.5" cy="1011.7" rx="8.1" ry="8.1"/>
	<ellipse transform="matrix(0.309 -0.9511 0.9511 0.309 -541.8184 1298.774)" cx="622.9" cy="1022.2" rx="8.1" ry="8.1"/>
	<ellipse transform="matrix(0.2079 -0.9781 0.9781 0.2079 -487.4286 1457.348)" cx="656.1" cy="1029.6" rx="8.1" ry="8.1"/>
	<ellipse transform="matrix(0.1045 -0.9945 0.9945 0.1045 -409.6886 1611.4805)" cx="690" cy="1033.2" rx="8.1" ry="8.1"/>
	<circle cx="724" cy="1033.4" r="8.1"/>
	<ellipse transform="matrix(0.9945 -0.1045 0.1045 0.9945 -103.4885 84.8375)" cx="757.9" cy="1030" rx="8.1" ry="8.1"/>
	<ellipse transform="matrix(0.9781 -0.2079 0.2079 0.9781 -195.3936 186.8606)" cx="791.2" cy="1023" rx="8.1" ry="8.1"/>
	<ellipse transform="matrix(0.9511 -0.309 0.309 0.9511 -272.5915 304.0708)" cx="823.7" cy="1012.7" rx="8.1" ry="8.1"/>
	<ellipse transform="matrix(0.9136 -0.4067 0.4067 0.9136 -332.3622 434.0257)" cx="854.8" cy="998.9" rx="8.1" ry="8.1"/>
	<ellipse transform="matrix(0.866 -0.5 0.5 0.866 -372.51 573.767)" cx="884.4" cy="982" rx="8.1" ry="8.1"/>
	<ellipse transform="matrix(0.809 -0.5878 0.5878 0.809 -391.3307 719.8387)" cx="912" cy="962.1" rx="8.1" ry="8.1"/>
	<ellipse transform="matrix(0.7431 -0.6691 0.6691 0.7431 -387.8369 868.5026)" cx="937.3" cy="939.4" rx="8.1" ry="8.1"/>
	<ellipse transform="matrix(0.6691 -0.7431 0.7431 0.6691 -361.6995 1016.0835)" cx="960.2" cy="914.2" rx="8.1" ry="8.1"/>
	<ellipse transform="matrix(0.5878 -0.809 0.809 0.5878 -313.2147 1158.6979)" cx="980.5" cy="886.7" rx="8.1" ry="8.1"/>
	<ellipse transform="matrix(0.5 -0.866 0.866 0.5 -243.7023 1292.5869)" cx="997.6" cy="857.3" rx="8.1" ry="8.1"/>
	<ellipse transform="matrix(0.4067 -0.9136 0.9136 0.4067 -154.7168 1414.3258)" cx="1011.6" cy="826.3" rx="8.1" ry="8.1"/>
	<ellipse transform="matrix(0.309 -0.9511 0.9511 0.309 -48.6666 1520.796)" cx="1022.2" cy="793.9" rx="8.1" ry="8.1"/>
	<ellipse transform="matrix(0.2079 -0.9781 0.9781 0.2079 71.3659 1609.3558)" cx="1029.4" cy="760.6" rx="8.1" ry="8.1"/>
	<ellipse transform="matrix(0.1045 -0.9945 0.9945 0.1045 202.2993 1678.3331)" cx="1033.1" cy="726.8" rx="8.1" ry="8.1"/>
	<circle cx="1033.3" cy="692.7" r="8.1"/>
	<ellipse transform="matrix(0.9945 -0.1045 0.1045 0.9945 -63.2089 111.2295)" cx="1029.9" cy="658.8" rx="8.1" ry="8.1"/>
	<ellipse transform="matrix(0.9781 -0.2079 0.2079 0.9781 -107.6923 226.3278)" cx="1022.8" cy="625.5" rx="8.1" ry="8.1"/>
	<ellipse transform="matrix(0.9511 -0.309 0.309 0.9511 -133.7279 341.8892)" cx="1012.5" cy="593.1" rx="8.1" ry="8.1"/>
	<ellipse transform="matrix(0.9136 -0.4067 0.4067 0.9136 -142.2015 454.7812)" cx="998.7" cy="561.9" rx="8.1" ry="8.1"/>
	<ellipse transform="matrix(0.866 -0.5 0.5 0.866 -134.6398 562.2868)" cx="981.9" cy="532.4" rx="8.1" ry="8.1"/>
	<ellipse transform="matrix(0.809 -0.5878 0.5878 0.809 -112.9155 661.8403)" cx="962" cy="504.7" rx="8.1" ry="8.1"/>
	<ellipse transform="matrix(0.7431 -0.6691 0.6691 0.7431 -79.4806 751.5867)" cx="939.2" cy="479.3" rx="8.1" ry="8.1"/>
	<ellipse transform="matrix(0.6691 -0.7432 0.7432 0.6691 -36.6775 830.3337)" cx="914.1" cy="456.4" rx="8.1" ry="8.1"/>
	<ellipse transform="matrix(0.5878 -0.809 0.809 0.5878 12.446 897.1296)" cx="886.6" cy="436.4" rx="8.1" ry="8.1"/>
	<ellipse transform="matrix(0.5 -0.866 0.866 0.5 65.5538 951.9697)" cx="857.2" cy="419.2" rx="8.1" ry="8.1"/>
	<ellipse transform="matrix(0.4067 -0.9136 0.9136 0.4067 119.9767 995.0859)" cx="826.1" cy="405.2" rx="8.1" ry="8.1"/>
	<ellipse transform="matrix(0.309 -0.9511 0.9511 0.309 173.3154 1027.5251)" cx="793.8" cy="394.5" rx="8.1" ry="8.1"/>
	<ellipse transform="matrix(0.2079 -0.9781 0.9781 0.2079 223.4464 1050.6956)" cx="760.5" cy="387.4" rx="8.1" ry="8.1"/>
	<ellipse transform="matrix(0.1045 -0.9945 0.9945 0.1045 269.1814 1066.1705)" cx="726.6" cy="383.6" rx="8.1" ry="8.1"/>
	<polygon points="689.7,108.1 687.3,108.1 687.3,118.6 676.2,118.6 676.2,121 687.3,121 687.3,128.2 676.2,128.2 676.2,130.7 
		689.7,130.7 	"/>
	<path d="M695.6,135.6c-1.3,0-2.4,1.1-2.4,2.4c0,1.3,1.1,2.4,2.4,2.4c5.7,0,10.4-2.1,13.7-6c2.9-3.4,4.5-8,4.5-12.9
		c0-9.6-6.2-19.4-18.2-19.4c-1.3,0-2.4,1.1-2.4,2.4s1.1,2.4,2.4,2.4c9.2,0,13.4,7.6,13.4,14.6c0,3.8-1.2,7.2-3.3,9.7
		C703.3,134.1,699.8,135.6,695.6,135.6z"/>
	<path d="M712.6,107c9.2,0,13.4,7.6,13.4,14.6c0,3.8-1.2,7.2-3.3,9.7c-2.4,2.8-5.8,4.3-10,4.3c-1.3,0-2.4,1.1-2.4,2.4
		c0,1.3,1.1,2.4,2.4,2.4c5.7,0,10.4-2.1,13.7-6c2.9-3.4,4.5-8,4.5-12.9c0-9.6-6.2-19.4-18.2-19.4c-1.3,0-2.4,1.1-2.4,2.4
		S711.3,107,712.6,107z"/>
	<path d="M730.3,107c9.2,0,13.4,7.6,13.4,14.6c0,3.8-1.2,7.2-3.3,9.7c-2.4,2.8-5.8,4.3-10,4.3c-1.3,0-2.4,1.1-2.4,2.4
		c0,1.3,1.1,2.4,2.4,2.4c5.7,0,10.4-2.1,13.7-6c2.9-3.4,4.5-8,4.5-12.9c0-9.6-6.2-19.4-18.2-19.4c-1.3,0-2.4,1.1-2.4,2.4
		S728.9,107,730.3,107z"/>
	<rect x="834.9" y="763" width="11.6" height="41.4"/>
	<rect x="852" y="763" width="11.6" height="41.4"/>
	<polygon points="557.7,763 557.7,804.3 573,804.3 573,783.8 582.4,783.8 582.4,804.3 597.8,804.3 597.8,763 582.4,763 582.4,779 
		573,779 573,763 	"/>
	<path d="M674.7,804.3v-18.6c0-10.4-11.7-14.5-20.1-7.4l-0.9-2.7h-12.6v28.7h12.6V787c0-3.8,2.4-5.8,4.4-5.8c1.7,0,3.9,0.3,3.9,4.1
		v19H674.7z"/>
	<path d="M784.6,792.3l-5.9-16.7H770l-5.9,17.3l-6.2-17.3h-12h-0.1H741l-6.1,14.6l-8.5-14.6H712l17,29.1l-2.2,5.5
		c-0.8,1.7-2.6,1.8-3,0.2c0-2.9-2.4-5.3-5.3-5.3c-2.9,0-5.3,2.4-5.3,5.3c0,3.1,3.1,7.1,9.2,6.8c6.1-0.3,8.6-5.3,9.5-7.4l14.1-34
		l10.1,28.6h9.2l5.6-16.5l5.8,16.5h8.7l9.8-28.7h-5L784.6,792.3z"/>
	<path d="M619.6,806.3c9.7,0,17.5-7.2,17.5-16.1c0-8.9-7.8-16.1-17.5-16.1s-17.5,7.2-17.5,16.1S609.9,806.3,619.6,806.3z
		 M615.3,782.7c0-2.4,2-4.4,4.4-4.4s4.4,1.9,4.4,4.4v15c0,2.4-2,4.4-4.4,4.4s-4.4-2-4.4-4.4V782.7z"/>
	<path d="M711.4,797.9l-3.9-1.4c-2.3,3.6-6.6,6-11.5,6c-2.4,0-4.4-2.3-4.4-4.7v-5.2h21.7c0.1-0.7,0.1-1.6,0.1-2.3
		c0-8.9-7.8-16.1-17.5-16.1s-17.5,7.2-17.5,16.1c0,8.9,7.8,16.1,17.5,16.1C702.7,806.3,708.5,802.9,711.4,797.9z M691.7,782.7
		c0-2.4,2-4.4,4.4-4.4s4.4,1.9,4.4,4.4v5.7h-8.7v-5.7H691.7z"/>
	<path d="M830.5,792.5c0.1-0.7,0.1-1.6,0.1-2.3c0-8.9-7.8-16.1-17.5-16.1s-17.5,7.2-17.5,16.1c0,8.9,7.8,16.1,17.5,16.1
		c6.7,0,12.4-3.4,15.4-8.4l-3.9-1.4c-2.3,3.6-6.6,6-11.5,6c-2.4,0-4.4-2.3-4.4-4.7v-5.2L830.5,792.5z M808.7,782.7
		c0-2.4,2-4.4,4.4-4.4s4.4,1.9,4.4,4.4v5.7h-8.7v-5.7H808.7z"/>
	<path d="M711.3,584.6c-0.7,0.3-1.1,0.4-1.2,0.4c-0.2,0-0.8-0.2-1.6-0.5c-3.1-1.2-6.3-3-9.6-4.7c-7.1-3.8-14-7.4-22.4-8.1l-7.5-0.6
		v51.1h13.9v-34.8c3.1,1.2,6.3,2.9,9.6,4.7c3.5,1.9,7,3.7,11.1,5.4l0.1,0.1c2.2,0.9,4.1,1.3,6.3,1.4c2.3,0,4.3-0.4,6.7-1.4l0,0
		c4-1.6,7.5-3.5,11-5.3c3.2-1.7,6.4-3.4,9.6-4.7V602l13.9-6.5v-24.2l-7.5,0.6c-8.4,0.7-15.4,4.4-22.4,8.1c-3.3,1.8-6.6,3.5-9.7,4.8
		L711.3,584.6z"/>
	<path d="M683.9,637.1H670c0,9,4.9,16.7,12,22.3c7.3,5.7,17.1,9.1,26.4,9.1c13.7,0,24-3.2,31.1-10s10.7-16.7,11-30.1
		c0.1-2.9,0.1-6.4,0.2-10l0.1-9.9l-13.9,7c0,0.1,0,0,0,2.7c0,3.3-0.1,6.8-0.2,9.8c-0.2,9.6-2.4,16.3-6.7,20.4
		c-4.4,4.2-11.5,6.1-21.6,6.1c-6.2,0-12.9-2.3-17.9-6.2C686.6,645.3,683.9,641.4,683.9,637.1z"/>
</g>
</svg>
