<?xml version="1.0" encoding="utf-8"?>
<!-- Generator: Adobe Illustrator 21.0.0, SVG Export Plug-In . SVG Version: 6.00 Build 0)  -->
<svg version="1.1" id="Layer_1" xmlns="http://www.w3.org/2000/svg" xmlns:xlink="http://www.w3.org/1999/xlink" x="0px" y="0px"
	 viewBox="0 0 338 441.6" style="enable-background:new 0 0 338 441.6;" xml:space="preserve">
<style type="text/css">
	.st0{fill:#010101;}
</style>
<g>
	<path class="st0" d="M317.9,441.6H20.1C9,441.6,0,432.5,0,421.4V20.1C0,9,9,0,20.1,0h297.7C329,0,338,9,338,20.1v401.3
		C338,432.5,329,441.6,317.9,441.6z M20.1,8C13.4,8,8,13.4,8,20.1v401.3c0,6.7,5.4,12.1,12.1,12.1h297.7c6.7,0,12.1-5.4,12.1-12.1
		V20.1c0-6.7-5.4-12.1-12.1-12.1H20.1z"/>
</g>
<g>
	<path class="st0" d="M181,50.7h-24c-6.1,0-11-4.9-11-11c0-6.1,4.9-11,11-11h24c6.1,0,11,4.9,11,11C192,45.7,187.1,50.7,181,50.7z
		 M157,32.7c-3.9,0-7,3.1-7,7s3.1,7,7,7h24c3.9,0,7-3.1,7-7s-3.1-7-7-7H157z"/>
</g>
<path class="st0" d="M319.8,51.6v-5.5l0-0.1c-55.2,15.5-120,24.7-150.8,24.7c-30.7,0-95.5-9.2-150.8-24.7l0,0.1v5.1c0,0,0,0,0,0V382
	H169h150.8L319.8,51.6L319.8,51.6z M32.2,54.9C84.1,68,140.8,75.7,169,75.7s84.9-7.7,136.8-20.8v312.7H169H32.2V54.9z M315.8,378
	H169H22.2V52.3c2.6,0.7,5.3,1.4,8,2.1v315.2H169h138.8V54.4c2.7-0.7,5.4-1.4,8-2.1V378z"/>
</svg>
