<?xml version="1.0" encoding="utf-8"?>
<!-- Generator: Adobe Illustrator 21.0.0, SVG Export Plug-In . SVG Version: 6.00 Build 0)  -->
<svg version="1.1" id="Layer_1" xmlns="http://www.w3.org/2000/svg" xmlns:xlink="http://www.w3.org/1999/xlink" x="0px" y="0px"
	 viewBox="0 0 182.4 178.7" style="enable-background:new 0 0 182.4 178.7;" xml:space="preserve">
<g>
	<ellipse transform="matrix(0.1916 -0.9815 0.9815 0.1916 -28.1638 209.2063)" cx="112.9" cy="121.7" rx="1.8" ry="1.6"/>
	<path d="M176,22.6c-0.7-0.8-14.8-13.1-17.6-15.6l-1.5-1.3v0.1c-3.3-2.4-7.2-3.7-11.2-3.7l-41.2,0.2c-9.7,0.1-17.8,7.5-18.8,17.3
		L72.2,148.4c-0.9,8.8,4.1,17.1,12.2,20.2l19.9,7c2,0.8,5.1,1,7.4,1l43.1,0.2h0.1c9.2,0,16.8-7.1,17.4-16.3l8.3-124.9
		C181,30.8,179.3,26.2,176,22.6z M90.5,167.6l-5-1.8c-6.8-2.6-11-9.7-10.3-17.1L88.6,20.1c0.9-8.3,7.7-14.6,15.9-14.7l41.2-0.2h0.1
		c3.9,0,7.7,1.5,10.7,4.2l1.5,1.4c0.6,0.6,1.3,1.1,2,1.7c1.8,3,2.7,6.6,2.5,10.3l-8.8,129.1c-0.6,9-8,16-16.8,15.9L91,167.6
		C90.8,167.6,90.6,167.6,90.5,167.6z M101,171.2l-6-2.1l41.9,0.2h0.1c9.6,0,17.6-7.6,18.2-17.3L164,22.9c0.2-2.7-0.2-5.4-1.2-7.9
		c2.9,2.5,5.7,5,7.8,6.9c1.5,2.8,2.2,5.9,1.9,9.1l-8.7,124.9c-0.6,8.8-8,15.6-16.8,15.6h-0.1l-45.2-0.2
		C101.5,171.3,101.2,171.2,101,171.2z M177.7,35.5l-8.3,124.9c-0.5,7.6-6.8,13.5-14.4,13.5h-0.1l-43.1-0.2c-2.8,0-5.1-0.3-6.4-0.8
		l-1.5-0.5l43.1,0.2h0.1c9.3,0,17.1-7.3,17.8-16.6l8.7-125c0.2-2.6-0.2-5.1-1.1-7.5c0.7,0.6,1.2,1,1.3,1.2
		C176.6,27.6,177.9,31.5,177.7,35.5z"/>
	<path d="M64.6,43.1L56,34.9c-2.1-2.1-4.9-3.3-7.8-3.4L24,30.8c-6-0.2-11.2,4.2-12,10.3l-10.7,75c-0.8,5.4,2.1,10.6,7,12.7l0.2,0.1
		c0.2,0.1,0.4,0.2,0.6,0.2c3.7,1.4,12.3,4.5,12.7,4.6c0.8,0.2,1.7,0.4,2.6,0.4l25.2,1.1c0.2,0,0.3,0,0.5,0c5.5,0,10.2-4.2,10.8-9.7
		l7.6-72.9c0.3-3-0.6-6-2.6-8.2C65.5,43.9,65,43.5,64.6,43.1z M10.2,126.2c-0.2-0.1-0.3-0.1-0.4-0.2l-0.2-0.1
		c-3.7-1.6-5.9-5.5-5.3-9.6L15,41.5c0.6-4.4,4.3-7.7,8.7-7.7c0.1,0,0.2,0,0.3,0l24,0.7c2.2,0.1,4.2,1,5.8,2.5l2.6,2.5
		c0.7,1.6,1,3.3,0.8,5l-8,75.4c-0.5,5.1-4.9,8.9-9.9,8.7l-25.7-1.1C12.4,127.1,11.2,126.6,10.2,126.2z M20.6,130.1
		c-0.7-0.2-1.4-0.5-2.3-0.8l21,0.9c0.2,0,0.3,0,0.5,0c5.6,0,10.4-4.3,11-10l8-75.4c0.1-1.1,0.1-2.1-0.1-3.1l3.9,3.7
		c0.5,1.3,0.6,2.8,0.5,4.2l-7.8,73c-0.5,5-4.9,8.8-10,8.6L20.6,130.1z M65.5,52.3L58,125.2c-0.4,4.1-4,7.2-8.1,7l-3.4-0.1
		c5.1-0.3,9.3-4.3,9.9-9.5l7.8-73c0.1-1,0.1-2-0.1-2.9C65.2,48.3,65.8,50.3,65.5,52.3z"/>
</g>
</svg>
