<?xml version="1.0" encoding="utf-8"?>
<!-- Generator: Adobe Illustrator 21.0.0, SVG Export Plug-In . SVG Version: 6.00 Build 0)  -->
<svg version="1.1" id="Layer_1" xmlns="http://www.w3.org/2000/svg" xmlns:xlink="http://www.w3.org/1999/xlink" x="0px" y="0px"
	 viewBox="0 0 441.6 441.6" style="enable-background:new 0 0 441.6 441.6;" xml:space="preserve">
<style type="text/css">
	.st0{fill:#010101;}
</style>
<g>
	<path class="st0" d="M346.9,441.6H94.7C42.5,441.6,0,399.1,0,346.9V94.7C0,42.5,42.5,0,94.7,0h252.1c52.2,0,94.7,42.5,94.7,94.7
		v252.1C441.6,399.1,399.1,441.6,346.9,441.6z M94.7,8C46.9,8,8,46.9,8,94.7v252.1c0,47.8,38.9,86.7,86.7,86.7h252.1
		c47.8,0,86.7-38.9,86.7-86.7V94.7c0-47.8-38.9-86.7-86.7-86.7H94.7z"/>
</g>
<g>
	<g>
		<path class="st0" d="M235.6,224.7v-66.5c0-8.2-6.7-14.8-14.8-14.8s-14.8,6.7-14.8,14.8v66.5c-8.1,5.1-13,14-13,23.5
			c0,15.3,12.5,27.8,27.8,27.8s27.8-12.5,27.8-27.8C248.6,238.7,243.7,229.8,235.6,224.7z M220.8,271.1c-12.6,0-22.8-10.2-22.8-22.8
			c0-8.3,4.5-15.9,11.7-19.9l1.3-0.7v-69.3c0-5.4,4.4-9.8,9.8-9.8s9.8,4.4,9.8,9.8v0.2h-4.5c-1.4,0-2.5,1.1-2.5,2.5s1.1,2.5,2.5,2.5
			h4.5v6.8h-4.5c-1.4,0-2.5,1.1-2.5,2.5s1.1,2.5,2.5,2.5h4.5v6.8h-4.5c-1.4,0-2.5,1.1-2.5,2.5s1.1,2.5,2.5,2.5h4.5v40.5l1.3,0.7
			c7.2,4,11.7,11.7,11.7,19.9C243.6,260.9,233.4,271.1,220.8,271.1z"/>
	</g>
	<g>
		<path class="st0" d="M224.9,232.2v-30.6c0-2.4-1.9-4.3-4.3-4.3s-4.3,1.9-4.3,4.3v30.6c-7,2-12.2,8.4-12.2,16
			c0,9.2,7.5,16.7,16.7,16.7c9.2,0,16.7-7.5,16.7-16.7C237.4,240.5,232.1,234,224.9,232.2z"/>
	</g>
</g>
<g>
	<circle class="st0" cx="220.8" cy="348.6" r="3.5"/>
</g>
</svg>
