<?xml version="1.0" encoding="utf-8"?>
<!-- Generator: Adobe Illustrator 21.0.0, SVG Export Plug-In . SVG Version: 6.00 Build 0)  -->
<svg version="1.1" id="Layer_1" xmlns="http://www.w3.org/2000/svg" xmlns:xlink="http://www.w3.org/1999/xlink" x="0px" y="0px"
	 viewBox="0 0 441.6 441.6" style="enable-background:new 0 0 441.6 441.6;" xml:space="preserve">
<style type="text/css">
	.st0{fill:#010101;}
</style>
<g>
	<circle class="st0" cx="220.8" cy="383.6" r="3.5"/>
</g>
<g>
	<path class="st0" d="M346.9,441.6H94.7C42.5,441.6,0,399.1,0,346.9V94.7C0,42.5,42.5,0,94.7,0h252.1c52.2,0,94.7,42.5,94.7,94.7
		v252.1C441.6,399.1,399.1,441.6,346.9,441.6z M94.7,8C46.9,8,8,46.9,8,94.7v252.1c0,47.8,38.9,86.7,86.7,86.7h252.1
		c47.8,0,86.7-38.9,86.7-86.7V94.7c0-47.8-38.9-86.7-86.7-86.7H94.7z"/>
</g>
<g>
	<path class="st0" d="M220.8,354.1c-73.5,0-133.3-59.8-133.3-133.3S147.3,87.4,220.8,87.4c73.5,0,133.3,59.8,133.3,133.3
		S294.3,354.1,220.8,354.1z M220.8,91.4c-71.3,0-129.3,58-129.3,129.3s58,129.3,129.3,129.3c71.3,0,129.3-58,129.3-129.3
		S292.1,91.4,220.8,91.4z"/>
</g>
</svg>
