<?xml version="1.0" encoding="utf-8"?>
<!-- Generator: Adobe Illustrator 21.0.0, SVG Export Plug-In . SVG Version: 6.00 Build 0)  -->
<svg version="1.1" id="Layer_1" xmlns="http://www.w3.org/2000/svg" xmlns:xlink="http://www.w3.org/1999/xlink" x="0px" y="0px"
	 viewBox="0 0 379.3 500.1" style="enable-background:new 0 0 379.3 500.1;" xml:space="preserve">
<style type="text/css">
	.st0{fill:#020202;}
</style>
<path class="st0" d="M379.3,118.9v-5.7c0-4.7-3.8-8.5-8.5-8.5h-1.6V21c0-9.8-7.4-17.9-17.1-18.9l-0.1,0l-0.1,0l-0.7,0l-25.4-2
	C325,0,324.3,0,323.5,0c-0.9,0-1.8,0-2.8,0.1l-0.1,0l-0.1,0L311.8,1l-0.1,0l-0.1,0c-1.8,0.2-3.7,0.8-5.2,1.8L27.8,42.1
	c-8.3,1.2-14.5,8.1-14.8,16.5L0,444.3c-0.3,8.9,6.1,16.5,15,17.7l281.6,36.4c0.7,0.1,1.4,0.1,2.2,0.1l28.3,1.5
	c1.1,0.1,2.3,0.1,3.4,0.1c2.8,0,5.7-0.2,8.4-0.7L352,497c9.8-1.4,17.2-9.9,17.2-19.8V395h3.3c3.8,0,6.8-3.1,6.8-6.8v-7.4l-10.1,0.6
	v-2l3.5-0.2c-0.4-0.9-0.5-1.9-0.5-2.6c0-0.9,0.2-1.8,0.5-2.6l-2.8,0.2l-0.7,0v-2l5.8-0.3c0,0,0.1,0,0.1,0l4.2-0.2v-14.3l-3.8,0.2v0
	l-5.2,0.3l-1.1,0.1v-2l3.5-0.2c-0.3-0.7-0.5-1.6-0.5-2.6c0-0.9,0.2-1.8,0.5-2.6l-3.5,0.2v-2l5.8-0.3c0.1,0,0.2,0,0.2,0v0l4.1-0.2
	v-13.4l-3.8,0.2v0l-5.6,0.3l-0.7,0v-2l3.6-0.2c-0.4-0.8-0.6-1.8-0.6-2.9c0-1,0.2-2.1,0.5-2.9l-3.2,0.2l-0.4,0v-2l10.1-0.6v-13.7
	l-10.1,0.6v-2l3.6-0.2c-0.5-1-0.6-2.1-0.6-2.9c0-1,0.2-2.1,0.5-3l-2.4,0.1l-1.1,0.1v-2l10.1-0.6v-5.7c0-4.7-3.8-8.5-8.5-8.5h-1.6
	v-74.6h3.3c3.8,0,6.8-3.1,6.8-6.8v-7.4l-10.1,0.6v-2l3.5-0.2c-0.4-0.9-0.5-1.9-0.5-2.6c0-0.9,0.2-1.8,0.5-2.6l-2.8,0.2l-0.7,0v-2
	l5.8-0.3c0,0,0.1,0,0.1,0l4.2-0.2v-14.3l-3.8,0.2v0l-5.2,0.3l-1.1,0.1v-2l3.5-0.2c-0.3-0.7-0.5-1.6-0.5-2.6c0-0.9,0.2-1.8,0.5-2.6
	l-3.5,0.2v-2l5.8-0.3c0.1,0,0.2,0,0.2,0v0l4.1-0.2v-13.4l-3.8,0.2v0l-5.6,0.3l-0.7,0v-2l3.6-0.2c-0.4-0.8-0.6-1.8-0.6-2.9
	c0-1,0.2-2.1,0.5-2.9l-3.2,0.2l-0.4,0v-2l10.1-0.6v-13.7l-10.1,0.6v-2l3.6-0.2c-0.5-1-0.6-2.1-0.6-2.9c0-1,0.2-2.1,0.5-3l-2.4,0.1
	l-1.1,0.1v-2L379.3,118.9z M350,490.6l-13.3,2.4c-3.4,0.6-6.9,0.8-10.3,0.5l-1.9-0.1c1.3-0.6,2.6-1.4,3.8-2.5
	c3.2-2.9,4.8-7.2,4.8-12.8h0l0.7-457.3c0-6.3-0.6-10.8-3.5-13.5c0,0,0,0,0,0l20.1,1.3c6.7,0.7,12.3,6.3,12.3,12.4v456.2
	C362.7,483.7,357,489.6,350,490.6z M328.3,9.5c2.1,1.9,2.5,5.8,2.5,11.3L330.1,478l1.5,0h-1.5c0,4.7-1.3,8.3-3.8,10.6
	c-3.8,3.5-9.2,3.2-9.3,3.2l-0.1,1l-5.3-0.4c0.3-0.2,0.6-0.4,0.8-0.7c1.1-0.9,2-2.1,2.7-3.3l0,0c0.3,0,0.5,0,0.8,0
	c2.7,0,5.3-1,7.3-2.8c2.2-2,3.4-4.9,3.4-7.8L326.5,142h0l3.4-123.2c0.1-3.8-1.4-7.3-4.2-9.8c-0.5-0.4-1-0.8-1.5-1.1
	C326,8.1,327.3,8.6,328.3,9.5z M323.6,246.1l0.2,231.7c0,2.2-0.9,4.1-2.5,5.6c-1.3,1.2-3,1.9-4.8,2c0.3-1,0.4-2,0.5-3L323.6,246.1z
	 M309.4,9.8c0.5-0.1,0.9-0.1,1.4-0.1c2.4,0,4.7,0.9,6.5,2.5c2.1,1.9,3.3,4.7,3.2,7.5l-13,461.8c-0.1,2.7-1.3,5.3-3.4,7.1
	c-2.1,1.8-4.8,2.6-7.6,2.3L14.9,454.5c-5-0.6-8.6-4.9-8.5-10l13-385.7c0.2-4.7,3.7-8.6,8.4-9.3L309.4,9.8z M306,490.9
	c2.7-2.3,4.4-5.7,4.5-9.3l13-461.8c0.1-3.8-1.4-7.3-4.2-9.8c-0.5-0.5-1.1-0.9-1.6-1.2c2.3,0.1,4.4,0.9,6.1,2.5
	c2.1,1.9,3.3,4.7,3.2,7.5l-13,463.6c-0.1,2.7-1.3,5.3-3.4,7.1c-1.6,1.4-3.6,2.2-5.7,2.3C305.3,491.5,305.7,491.2,306,490.9z
	 M350.5,8.1L350.5,8.1L350.5,8.1L350.5,8.1z"/>
</svg>
