<?xml version="1.0" encoding="utf-8"?>
<!-- Generator: Adobe Illustrator 21.0.0, SVG Export Plug-In . SVG Version: 6.00 Build 0)  -->
<svg version="1.1" id="Layer_1" xmlns="http://www.w3.org/2000/svg" xmlns:xlink="http://www.w3.org/1999/xlink" x="0px" y="0px"
	 viewBox="0 0 354.3 230.4" style="enable-background:new 0 0 354.3 230.4;" xml:space="preserve">
<style type="text/css">
	.st0{fill:#010101;}
</style>
<g>
	<path class="st0" d="M28.1,115.2c0-31.1,0-62.1,0-93.2c0-0.5,0-1.1,0-1.6c0.1-1.3,0.9-2,2.1-2.1c0.4,0,0.8,0,1.2,0
		c51.6,0,103.2,0,154.9,0c7.1,0,14,1,20.7,3.6c10.4,4,19,10.5,25.5,19.5c4.9,6.7,8.1,14.2,9.7,22.4c0.6,3.2,0.9,6.4,0.9,9.6
		c0,45.2,0,90.4,0,135.6c0,0.3,0,0.7,0,1c-0.1,1.2-0.9,1.9-2,2c-0.3,0-0.7,0-1,0c-13.2,0-26.3,0-39.5,0c-0.4,0-0.8,0-1.2,0
		c-1-0.1-1.7-0.9-1.8-1.8c-0.1-0.6,0-1.2,0-1.8c0-39.1,0-78.3,0-117.4c0-2.2-0.1-4.4-0.5-6.5c-1.1-6.4-4-11.9-8.6-16.5
		c-4.4-4.4-9.7-7.2-15.8-8.4c-2.2-0.5-4.5-0.6-6.8-0.6c-29.4,0-58.7,0-88.1,0c-0.4,0-0.9,0-1.3,0.1c-1.3,0.2-1.9,0.9-2,2.2
		c0,0.6,0,1.2,0,1.8c0,48.4,0,96.8,0,145.2c0,0.5,0,1.1,0,1.6c-0.1,1.5-0.9,2.3-2.4,2.3c-0.3,0-0.6,0-0.9,0c-13.3,0-26.5,0-39.8,0
		c-0.4,0-0.8,0-1.2,0c-1.1-0.1-1.8-0.8-2-1.8c0-0.3,0-0.6,0-0.9c0-0.4,0-0.9,0-1.3C28.1,177.1,28.1,146.1,28.1,115.2z"/>
	<path class="st0" d="M326.2,115.3c0,31,0,62.1,0,93.1c0,0.6,0,1.2,0,1.8c-0.1,1-0.8,1.7-1.8,1.9c-0.3,0-0.7,0-1,0
		c-13.5,0-26.9,0-40.4,0c-0.3,0-0.6,0-0.9,0c-1.1-0.1-1.9-0.8-2.1-2c0-0.4,0-0.9,0-1.3c0-8.6,0-17.3,0-25.9c0-53.5,0-107,0-160.5
		c0-0.6,0-1.2,0-1.8c0.1-1.4,0.9-2.2,2.3-2.3c0.3,0,0.6,0,0.9,0c13.3,0,26.6,0,39.9,0c0.4,0,0.8,0,1.2,0c1.1,0.1,1.8,0.8,1.9,1.9
		c0,0.5,0,1.1,0,1.6C326.2,53,326.2,84.2,326.2,115.3z"/>
	<path class="st0" d="M112.2,153c0-18.5,0-36.9,0-55.4c0-0.5,0-1.1,0-1.6c0.1-1.3,0.9-2.1,2.2-2.2c0.3,0,0.6,0,0.9,0
		c13.4,0,26.7,0,40.1,0c0.3,0,0.6,0,0.9,0c1.3,0.1,2.1,0.9,2.2,2.2c0,0.3,0,0.7,0,1c0,37.3,0,74.6,0,111.9c0,0.4,0,0.8,0,1.2
		c-0.2,1.2-1,1.9-2.2,2c-0.3,0-0.7,0-1,0c-13.3,0-26.5,0-39.8,0c-0.4,0-0.8,0-1.2,0c-1.1-0.1-1.8-0.8-2-1.9
		c-0.1-0.5-0.1-1.1-0.1-1.6c0-9.4,0-18.9,0-28.3C112.2,171.2,112.2,162.1,112.2,153z"/>
</g>
</svg>
