<svg height="960" viewBox="0 0 960 960" width="960" xmlns="http://www.w3.org/2000/svg"><path d="m495.062315 3.00071957 9.578716.01384239 7.254224.02401463c3.613429.01511834 7.206737.03503395 10.781735.06033518l7.126119.05795764c8.286574.07640164 16.480032.18426053 24.60338.33105093l2.81573.05267044 4.662366.09537923 4.553268.10362062 6.135182.15813538 5.032877.14804585 4.820932.15994406 4.605704.17218202 3.671306.15307856 3.517661.16200969 4.015705.20647753 3.17295.18235022 3.013223.1919105 1.730474.11981701 1.671877.12337197 1.61287.12696938 1.553452.13060926 1.493624.1342916 1.433385.13801643.921922.09410126 1.332075.14431883 1.270741.14815689 1.907335.23865912c49.262114 6.28107041 83.313161 18.85785381 109.332697 42.43270971 27.13017 24.5811397 44.450906 60.4458961 56.200294 113.8130131l.208636.980789c.070643.342924.142373.701755.215158 1.076225l.221488 1.170061.227622 1.262296c.038437.21798.077122.439736.11605.665235l.236459 1.397646.242108 1.485877.247561 1.572509.252821 1.657538c.042565.283253.08534.569982.128322.860154l.392321 2.703607.267434 1.903021.271915 1.981646.276202 2.058671.421918 3.228926.28607 2.244227.435808 3.499755.443268 3.655048.450071 3.804937.456217 3.949424.616719 5.481314.468009 4.265543.471969 4.392017.475273 4.513087.47792 4.628755.479912 4.739017.641845 6.480871.482006 4.975284.48181 5.067535.480958 5.154383.479449 5.235827.477285 5.311868.474464 5.382504.470987 5.447738.466854 5.507567.462065 5.561993.305058 3.735564.602078 7.530087c6.405038 81.266556 10.327533 166.125571 10.503751 243.954018v36.746154c0 .339427-.008641.678799-.025914 1.017787l-.261818 5.021888c-.044453.833627-.089315 1.665577-.134586 2.49585l-.276526 4.961516c-.093811 1.647132-.189257 3.287558-.28634 4.92128l-.296157 4.881055c-.050178.810157-.100766 1.618639-.151762 2.425445l-.310895 4.820734-.320727 4.780532c-.108549 1.586812-.218737 3.166925-.330565 4.740341l-.340407 4.700159-.350256 4.659987c-.059197.773317-.118805 1.544961-.178823 2.314932l-.36504 4.599747-.374901 4.559601c-.063306.756588-.127023 1.511504-.191151 2.264747l-.389705 4.499398c-.065774.746556-.131959 1.49144-.198556 2.234652l-.404522 4.439217c-.068244.736527-.1369 1.471383-.205967 2.204568l-.419351 4.379059c-2.333628 23.974558-5.116138 46.129886-8.351669 66.473346l-.593272 3.678848c-.598265 3.658885-1.211514 7.257888-1.839772 10.797054l-.633262 3.519222c-2.446691 13.413904-5.114052 25.948747-8.003485 37.607023-7.294458 29.431655-19.646946 59.394494-36.388098 85.606165-.932305 1.459712-2.075238 3.052562-3.416283 4.776232l-.686974.872726c-.234455.294536-.474356.592694-.719644.894465l-.751967.91614c-.256004.308986-.517338.621573-.783943.937751l-.81557.959296-.846849.980777-.877782 1.002195-.908366 1.023548-.938603 1.044836-.968491 1.066061c-.163887.179441-.329004.359765-.495346.540969l-1.012672 1.097775-1.041692 1.118839-1.342841 1.427423-.865921.912039c-1.981216 2.079323-4.028231 4.17826-6.066217 6.222251l-1.139758 1.138109-1.260337 1.247166-.820592.805218-1.198441 1.165437-1.53106 1.46839-1.092906 1.031813-.69998.652503-1.004037.922648-.636989.575917-.609693.543148-.581201.509161-.815754.697346-.504724.418857-.472034.380601-5.531806 4.324733-.015709.112504c-.574851 3.761271-1.783994 7.132031-4.384667 10.734006l-.318808.433386-.386814.514507-.527635.691627-.322617.412556-.304039.377652-.289517.346104-.279053.317913-.272646.29308c-.315928.328746-.627059.613644-.962386.878684l-.294025.222874c-.301303.219131-.626468.428707-.993754.643838l-.382002.217541-.414139.224601-.690342.357482-.512234.256939-1.492188.731983-.758884.360984c-.132025.061387-.266787.123375-.404236.185945l-.856512.382266c-.147986.064828-.298555.130202-.451655.196106l-.94856.401627-1.03295.424037-1.090996.435097-1.14739.4453-1.202131.454644-1.255219.463131-1.306656.470762c-.443941.158097-.896179.317323-1.356439.477535l-1.404569.483451-1.544394.519619c-.829504.275935-1.673779.551827-2.53271.827546l-1.737372.551165c-.585615.183618-1.177711.36712-1.776253.550466l-1.814932.549532c-.3057.091498-.613004.182948-.921907.274343l-1.87257.547693c-.315281.091162-.632154.18226-.950612.27329l-1.929751.545325c-.324787.090738-.651151.181398-.979089.271975l-1.986476.542428-2.024039.540205-2.061399.537746c-.693337.178813-1.392867.357177-2.098556.535054l-2.135511.532126c-.717973.176861-1.442072.353195-2.172262.528964l-2.20881.525567-2.245156.521936-2.281299.518071-2.317239.51397c-.77838.170613-1.562717.340505-2.352975.509635l-1.27745.271681c-11.950948 2.525662-24.68831 4.770131-38.21456 6.695984l-2.910558.407792c-3.896846.537184-7.858106 1.048141-11.883836 1.531996l-3.031387.357797c-.507247.058782-1.015501.117136-1.524762.175062l-3.067663.342399-3.091852.332032-3.116049.321583-3.140249.311052-3.164456.300439-3.188667.289745c-1.066926.094789-2.137887.187783-3.212885.278967l-3.237108.26811c-.541537.043776-1.084083.087095-1.627639.129958l-3.273452.251668-3.297688.240606-3.321929.229461-3.346177.218235c-1.679151.106297-3.367397.208354-5.06474.306123l-3.406818.189811-3.431084.178297c-3.443219.172514-6.922844.327635-10.438902.464996l-3.528202.131428c-1.180115.041826-2.36428.081666-3.552494.119505l-3.576794.107501c-5.383416.152208-10.848858.263627-16.396408.333013l-3.710531.040017c-1.861349.016881-3.731823.029062-5.611425.044924h-4.291209c-1.917875 0-3.826453 0-5.725735-.014713l-3.78617-.026069c-1.257926-.010846-2.511721-.023843-3.761386-.038978l-3.736607-.051805c-3.103515-.04849-6.181223-.110253-9.233133-.185069l-3.64991-.096031c-1.212509-.034089-2.420892-.070253-3.625149-.108477l-3.600392-.120839-3.575639-.133118c-2.375509-.092819-4.734519-.193767-7.077036-.302732l-3.501405-.169447c-4.652048-.233908-9.238133-.499659-13.758298-.796356l-3.377765-.22831-3.353049-.23983c-.556783-.040927-1.112535-.082331-1.667258-.124209l-3.315983-.256953c-.550605-.04377-1.100181-.088012-1.648727-.132723l-3.278927-.273885c-1.088859-.093164-2.173602-.188191-3.254228-.285068l-3.229533-.296168c-1.608593-.150844-3.207928-.305819-4.798005-.464877l-3.167814-.323547-3.143133-.33435c-1.043598-.113242-2.083083-.22827-3.118457-.345071l-3.093784-.355706-3.069116-.366258c-.509464-.061917-1.017901-.124271-1.525309-.187059l-3.032122-.381927-3.007465-.392268c-.499189-.066235-.997351-.132898-1.494486-.199986l-2.970486-.407621-2.945838-.417752c-.977838-.14093-1.951569-.283534-2.921194-.427798l-2.896556-.43776c-1.922825-.295142-3.829226-.596869-5.71921-.905068l-2.822663-.467141-2.79804-.476765c-.464288-.080258-.927551-.160914-1.389788-.241965l-2.761114-.491045c-.458135-.082628-.915244-.165648-1.371327-.249058l-2.724198-.505135c-.903964-.169931-1.803828-.34141-2.699591-.514423l-2.674989-.523627-2.650392-.532747c-1.319047-.268639-2.628871-.540666-3.929476-.816035-.392969-.0832-.7845-.166592-1.17459-.250171l-2.323209-.503674-2.288425-.507931c-.378495-.084997-.755533-.170163-1.13111-.255492l-2.235896-.513899-2.200642-.517601c-.727651-.173126-1.449394-.346832-2.1652-.52108l-2.12957-.524338-2.093753-.527373-2.057748-.530186c-.339947-.088586-.678386-.177281-1.015313-.266078l-2.003387-.53399-1.966913-.536247c-.324768-.08955-.64801-.179185-.969719-.268901l-1.911848-.539217-1.874904-.54092c-.309394-.090283-.617242-.180628-.923539-.27103l-1.819134-.543057c-.300077-.090612-.598594-.181271-.895549-.271973l-1.762943-.544696c-.290688-.090857-.579805-.181747-.867348-.272667l-1.706329-.545834-1.668352-.546315-.819875-.273269c-.738958-.247763-1.460458-.493797-2.163562-.737612l-1.381398-.484527-1.330665-.477738-1.27826-.470077c-.208583-.077659-.414913-.154963-.618955-.231894l-1.196514-.456952-1.139927-.447113c-.185179-.07365-.367931-.146854-.548221-.219594l-1.051908-.43072c-.165383-.068764-.328296-.137028-.488683-.204771l-.931576-.400057c-.750325-.327915-1.434761-.641841-2.046433-.939337l-.941135-.458864-1.078608-.535276-.473008-.242446-.434282-.230163-.399661-.221262-.369142-.215745c-.059209-.035685-.117317-.071282-.17441-.10686l-.331061-.213812c-.640495-.429436-1.159444-.876514-1.704588-1.463026l-.27544-.305439c-.092996-.106062-.187405-.216562-.283909-.332062l-.296483-.362067-.31316-.395455-.333943-.432226-.548858-.724688-.516597-.696999c-2.600673-3.601975-3.809816-6.972735-4.384667-10.734006l-.016709-.112504-3.380327-2.639952-2.382336-1.870224-.488541-.399895-.520668-.437576-.551618-.474062-.88289-.776891-.945921-.852262-.663674-.608055-1.042164-.968914-.724164-.682089-.746305-.709609-1.158401-1.113403-1.611062-1.569706-1.253054-1.235926-1.566682-1.562008c-2.018491-2.024466-4.065506-4.123403-6.071567-6.228848l-.891915-.939665-1.389043-1.477352-1.03176-1.108636-1.003496-1.088413-.974845-1.068071-.945806-1.047605-.916379-1.027018-.886565-1.006309-.856362-.985478-.825771-.964526-.794794-.943452c-.129863-.155479-.258418-.310075-.385659-.463785l-.7476-.911612-.715651-.890233-.683317-.868732c-.11117-.142991-.220976-.28508-.329411-.426266l-.634086-.836253c-.926247-1.238057-1.74009-2.402521-2.435639-3.491544-16.741152-26.211671-29.09364-56.17451-36.388098-85.606165-2.889433-11.658276-5.556794-24.193119-8.003485-37.607023l-.633262-3.519222c-.628258-3.539166-1.241507-7.138169-1.839772-10.797054l-.593272-3.678848c-3.235531-20.34346-6.018041-42.498788-8.351669-66.473346l-.419351-4.379059c-.069067-.733185-.137723-1.468041-.205967-2.204568l-.404522-4.439217c-.066597-.743212-.132782-1.488096-.198556-2.234652l-.389705-4.499398c-.064128-.753243-.127845-1.508159-.191151-2.264747l-.374901-4.559601-.36504-4.599747c-.060018-.769971-.119626-1.541615-.178823-2.314932l-.350256-4.659987c-.057555-.780012-.1147-1.561698-.171434-2.345058l-.335485-4.720248c-.055094-.790057-.109778-1.581788-.164053-2.375194l-.320727-4.780532c-.052635-.800105-.10486-1.601886-.156676-2.405341l-.305981-4.840838c-.050178-.810158-.099947-1.621991-.149306-2.4355l-.291248-4.901166c-.095446-1.640427-.189257-3.287558-.281432-4.941397l-.271623-4.981638-.261818-5.021888c-.017273-.338988-.025914-.67836-.025914-1.017787v-31.515128c0-78.505133 3.87775-164.467907 10.338208-247.076498l.301527-3.827245.457765-5.706126.463737-5.659488.626438-7.463816.634256-7.357815.640475-7.238623.645096-7.106235.648117-6.960655.487109-5.117018.487235-5.022141.32456-3.292637.485946-4.851646.645209-6.297225.480994-4.586977.636158-5.924132.47237-4.292005.467549-4.156312.462055-4.015052.304651-2.595476.451398-3.767252.444105-3.61115.291685-2.317961.287944-2.24446.284003-2.169309.279862-2.09251.275522-2.01406.270982-1.933962c.044774-.315561.08935-.627715.133725-.936429l.393817-2.684605.256161-1.683772.250821-1.597078.245282-1.508733c.040408-.244002.080576-.484255.120501-.720723l.236598-1.373125c.07787-.442389.154734-.869367.230558-1.280658l.22432-1.186542.21788-1.090777.211242-.993362c11.749388-53.367117 29.070124-89.2318734 56.200294-113.8130131 26.28236-23.8129857 60.759302-36.4045936 110.830152-42.62112296l.405074-.0496641.830241-.09806607 1.295372-.1439666 1.819906-.18617203 1.925045-.17965163 2.029252-.17322858 2.132528-.16690289 1.66661-.12108451 2.31102-.15606722 2.411734-.15000928 2.511517-.14404869 3.278298-.17182711 4.135278-.19436738 4.351932-.18177753 3.789842-.1421011 5.551411-.18499881 4.983033-.14597955 6.071254-.1560816 5.421235-.12196464 6.53921-.12797473c8.117841-.14668914 16.308201-.25449107 24.593412-.33086098l7.12536-.05793617c3.574815-.02529314 7.168223-.04520429 10.781983-.0603203l7.255175-.02401238c2.427784-.01383949 4.865134-.01383949 7.312571-.01383949zm-301.606258 627.76296243.282487 3.456617.361406 4.297966.370337 4.259071c.124934 1.413207.251355 2.81993.379262 4.220167l.388183 4.181253.397096 4.14233c.133851 1.374288.269187 2.742087.406007 4.103397l.41491 4.064456c.209681 2.02249.422699 4.030375.639051 6.023647l.437149 3.967061c.147197 1.315859.295876 2.625222.446035 3.928088l.454916 3.889104c.306237 2.579739.61839 5.133483.936454 7.66122l.481528 3.772099c.080993.625432.162355 1.249237.244087 1.871417l.494816 3.713565c1.081693 8.003773 2.225722 15.73268 3.431848 23.186298l.561082 3.420582c.282745 1.700516.568795 3.386368.858147 5.057552l.583105 3.322806c.195836 1.101081.393138 2.195641.591906 3.283679l.600702 3.244543c2.01699 10.749908 4.180479 20.847394 6.489601 30.290915l.354574 1.44033c6.291216 25.383779 16.988463 51.331581 31.273661 73.697957l.171406.259895.20098.289403.229816.317993c.040665.05533.0825.111814.125491.169431l.417704.548646.311904.398246.516168.643791.774535.940219.64241.762516.93383 1.087256.75511.864348 1.075067 1.211771 1.147669 1.272812 1.214372 1.326496 1.602787 1.722412.785781.83403.816232.859794c1.76985 1.857491 3.605878 3.740089 5.39407 5.533602l.673026.673186.918685.912653 1.33823 1.315851.859302.835782 1.228842 1.181153 1.14371 1.081719.818145.760497.869941.792842.549874.488937.314333.271633.221083.182793 6.159462 4.820361 1.331791 1.074084c2.36386 1.935785 4.235537 3.635616 5.990072 5.524672.398894.429476.786216.864092 1.162552 1.305744 2.125176 2.494019 3.442583 5.020193 4.271177 7.645795l.044036.147835 1.484548.50525 1.428258.473076c.241214.078938.484011.157919.728388.236938l1.48518.474533 1.522898.475221c.256949.079248.515462.158516.775536.237798l1.579131.475827c.266299.079321.53415.158647.80355.237974l1.634952.475925 1.671937.475706 1.708737.47526 1.745356.474589c.293933.07903.589385.158022.886351.236972l1.799938.473156 1.836096.471918c.309019.078537.619537.157014.931551.235424l1.88999.469635 1.925691.467831c.647827.155617 1.301573.310896 1.961208.465798l1.996541.463541 2.031691.461056 2.066657.458344 2.10144.455407 2.284578.483343c.407981.085262.816984.170181 1.227011.254755l2.472437.503297c.828238.166377 1.66057.331362 2.496995.49494l2.521557.486499c.422307.080375.845637.160395 1.269991.240058l2.558409.473677c.428449.078227.857922.156094 1.288419.233599l2.595271.460664c.434593.076048.87021.15173 1.306852.227044l2.632141.44746 2.656726.43855 2.681317.429556 2.705911.420476 2.73051.411312 2.755113.402061c.461236.066235.923497.132081 1.386783.197536l2.792025.388028c.467389.063885.935803.127375 1.405243.19047l2.828946.373802c.473543.061503.948112.122607 1.423706.18331l2.865878.359384c.959397.11818 1.922898.234741 2.890505.349667l2.915135.339864 2.93977.329976 2.964409.320003 2.989052.309945 3.0137.299801c1.008675.098234 2.021459.194763 3.038352.289573l3.063008.27926c.512556.045679 1.02614.090925 1.540751.135735l3.1.26363c.518722.043064 1.038472.085689 1.55925.127873l3.137002.247809c1.049779.080832 2.10367.159888 3.161675.237155l3.186352.226416 3.211034.215592c.53723.035025 1.075488.069596 1.614774.10371l3.248065.199196 3.272757.18816c1.095035.060871 2.194185.119888 3.297453.177038l3.322155.16583 3.346859.154539c.559869.024811 1.120767.049148 1.682696.073008l3.383925.137442 3.408641.125936 3.433361.114346c8.614305.271309 17.460402.433164 26.538587.479583l3.643654.013952h6.043213c.598871-.010641 1.196729-.013509 1.793574-.016876l3.568922-.026158c.592796-.005351 1.184579-.011196 1.77535-.017534l3.532477-.043927c.586723-.008302 1.172433-.017093 1.757131-.026372l3.496046-.061509c1.741952-.033666 3.474799-.071689 5.198543-.114022l3.435353-.0904 3.411086-.101812c1.699477-.053745 3.389856-.111738 5.07114-.173933l3.350441-.129979c1.112772-.045185 2.221503-.092223 3.326193-.141101l3.301951-.152141c1.09661-.052544 2.189181-.106915 3.277713-.163097l3.253481-.173972c.540228-.029897 1.079446-.060244 1.617655-.091038l3.217144-.190129 3.192926-.200795c.530136-.034351 1.059264-.069142 1.587382-.104373l3.156609-.216642 3.132404-.227103c.520051-.038718 1.039093-.077868 1.557128-.117448l3.096108-.24264 3.071917-.252893 3.047732-.263065c.50594-.044687 1.010873-.089795 1.514798-.135321l3.011465-.278167 2.987292-.288133 2.963127-.298014c.491841-.050488.982676-.101384 1.472503-.152687l2.926888-.312682c.485802-.052923.970598-.106248 1.454387-.159975l2.890661-.327165 2.866518-.336716 2.842379-.346185c.471718-.058482.942431-.117355 1.412139-.176617l2.806181-.360234 2.782056-.369495 2.757937-.378675 2.733822-.387771 2.709714-.396786c3.147272-.468142 6.245334-.95452 9.294224-1.458541l2.601294-.436326c.431542-.073437.862081-.14723 1.291617-.221378l2.565178-.449134c3.40419-.604487 6.744192-1.231469 10.020066-1.880063l2.444882-.490484c.810953-.164837 1.617899-.33101 2.420839-.498506l2.396802-.506446 2.127557-.460712 2.091816-.463684c.345647-.077516.689796-.155145 1.032443-.232882l2.037832-.467694 2.001595-.470066 1.96516-.4722 1.928526-.474095c.318357-.07916.63518-.158389.950463-.237683l1.873203-.476487 1.836074-.477782 1.798745-.478839c.296669-.079881.591775-.159796.885312-.23974l1.742381-.479974 1.704557-.480431 1.666534-.480649 1.628313-.480627 1.589894-.480366c.26177-.080026.521931-.160031.780478-.240011l1.531893-.479525 1.492978-.478666c.736727-.239078 1.458786-.477744 2.166066-.715862l.568922-.192544.689504-.23706.045036-.147835c.784984-2.487412 2.00868-4.885588 3.942289-7.251726l.328888-.394069c.376336-.441652.763658-.876268 1.162552-1.305744 1.754535-1.889056 3.626212-3.588887 5.990072-5.524672l1.04431-.845308 1.316702-1.038728 5.130241-4.010409.420788-.354419.664502-.588944.869941-.792842 1.220398-1.138757.840503-.797976.883453-.848416.920346-.893049.951183-.931878.975965-.9649 1.168596-1.166339c1.807688-1.813039 3.643716-3.695637 5.388721-5.527005l.790238-.832169 1.199889-1.275593.961758-1.033986 1.22906-1.338235 1.442616-1.597661 1.072131-1.209197.993054-1.140076.908239-1.063715.817682-.980111.550379-.675861.49379-.621705.434779-.564494.373346-.504227.213571-.30116.184474-.272112.804371-1.26522c13.923281-22.10546 24.365806-47.604072 30.550391-72.557617 1.659986-6.697705 3.245692-13.729105 4.756802-21.093638l.643051-3.176623c1.276964-6.394031 2.499089-13.032753 3.666178-19.915814l.578957-3.46189c.765824-4.642998 1.507174-9.394564 2.223988-14.254593l.53301-3.665357c.704544-4.914255 1.384539-9.936947 2.039925-15.067971l.486924-3.868579c.080385-.648148.160385-1.297988.240001-1.94952l.473072-3.929497c.078075-.6583.155765-1.318291.23307-1.979974l.459208-3.990394c.151527-1.336896.301513-2.680556.449957-4.030979l.440701-4.071554.43144-4.112119c.640212-6.198599 1.249148-12.534074 1.826725-19.006274l.380404-4.335055c.125252-1.451769.248955-2.910288.371107-4.375556l.34246-4.126112c-51.672459 19.414024-146.432611 28.683884-285.663012 28.683884-140.182682 0-235.526308-9.402889-287.397165-29.070548zm423.681734 44.960424c22.080652-.688727 40.538881 16.652854 41.227608 38.733505.012962.415558.019444.831292.019444 1.247052v3.590015c0 21.599118-17.147244 39.297245-38.735567 39.980011-45.735142 1.446448-91.470343 2.169673-137.205564 2.169673-45.735222 0-91.470423-.723225-137.205566-2.169674-21.588323-.682767-38.735566-18.380893-38.735566-39.98001v-3.590018c0-22.091389 17.908612-40.000378 40-40.000378.41576 0 .831494.006863 1.247052.019824 44.89807 1.400436 89.796085 2.100653 134.69408 2.100653s89.796009-.700217 134.694079-2.100653zm21.223684 39.0128c-.523187-10.875758-9.674836-19.363298-20.600158-19.022522-45.105824 1.406916-90.211705 2.110375-135.317605 2.110375s-90.211782-.703459-135.317606-2.110375c-.207779-.00648-.415646-.009912-.623526-.009912-11.045694 0-20 8.954495-20 20.000189v3.590017c0 10.799558 8.573622 19.648622 19.367783 19.990005 45.524496 1.439787 91.048932 2.159679 136.573349 2.159679 45.524416 0 91.048852-.719892 136.573347-2.159679 10.794162-.341382 19.367784-9.190446 19.367784-19.990005v-3.590015c0-.20788-.003241-.415747-.009722-.623526zm-448.20819-134.038049.072637 1.30222c.042306.793998.084987 1.58638.128042 2.377146l.26283 4.725204c.044554.784302.089482 1.566987.134785 2.348056l.276308 4.66701c.0468.774601.093974 1.547586.141522 2.318953l.289777 4.608796.298748 4.569974c.019909.298764.039875.597277.0599.895539 44.398003 20.515534 141.324845 31.322475 289.035388 31.322475 146.712722 0 243.068294-10.668192 287.299869-30.887252l.205881-3.098184.301202-4.679005.291859-4.719423c.047864-.789938.095338-1.58156.142423-2.374865l.277832-4.780032c.045525-.800038.090661-1.60176.135407-2.405164l.263793-4.840618.052003-.954251c-50.882749 20.286691-146.714622 29.963765-288.970269 29.963765-143.212847 0-239.62722-9.813785-290.699937-30.360344zm310.767305-537.6981422h-41.837443l-7.203477.0240463-7.146814.0299101c-13.051874.0665525-25.828996.1992562-38.391487.4262574l-2.763468.051659-5.323151.1098898-5.773923.1363149-6.292937.1718926-3.761727.1161317-4.334581.1481676-4.802348.184978-3.89152.16891-1.866057.0880322-2.403828.1210794-1.738762.0935828-2.773723.1612449-1.588548.0999062-2.02829.1368879-2.388717.1770133-1.791604.1463247-1.683676.1505073-1.190915.115621-1.490749.1578097-1.044287.1210896-2.873348.3640156c-41.174706 5.3686777-67.556871 15.2073273-86.361624 32.245269-20.037823 18.1551581-33.87264 46.8018812-43.993272 92.7709942-.029228.132761-.058784.269785-.088662.411035l-.183097.897925-.190609.997606c-.032382.174477-.065067.353034-.098052.535635l-.201462 1.143839c-.034163.19863-.068616.40123-.103355.607765l-.211817 1.286128-.218444 1.378796-.224849 1.469712-.231034 1.558874-.236997 1.646283-.366192 2.629482-.250937 1.857138-.386065 2.937547-.396993 3.114498-.407173 3.285532-.416609 3.45065-.425295 3.609851-.433237 3.763138-.58871 5.245735-.448862 4.097796-.454313 4.231361-.459018 4.35901-.462976 4.480742-.466188 4.596558-.468653 4.706459-.627413 6.436008-.628698 6.606845-.628212 6.763658-.469776 5.167216-.623102 7.004336-.61775 7.122584-.610626 7.226809-.452229 5.480068-.298339 3.678645-.442232 5.551484-.447981 5.748481c-6.203054 80.441712-9.914357 163.923286-9.914357 240.06787l-.000216 12.207892c43.539607 21.071444 141.096096 32.17996 290.853438 32.17996 148.795164 0 245.793492-10.97319 289.15183-31.75399l-.00504-17.799098c-.173709-76.699929-4.050203-160.563746-10.380102-240.876947l-.290631-3.660671-.441235-5.459089-.446934-5.415672-.451903-5.366503-.456144-5.311577-.459658-5.250899-.617082-6.896862-.465022-5.086936-.466106-5.007076-.621904-6.541927-.465804-4.798357-.464462-4.699315-.308535-3.075012-.613444-6.003476-.304478-2.925054-.603388-5.688216-.446818-4.117791-.441105-3.984224-.577993-5.094581-.424939-3.650188-.416798-3.497439-.407927-3.338935-.398328-3.174678-.25986-2.022356-.255054-1.94509-.373098-2.769032-.361071-2.585592-.233673-1.618976-.339408-2.267074-.218556-1.401302-.212131-1.311249-.205491-1.21949-.198635-1.126027-.191563-1.030858-.184275-.933985c-.060186-.294994-.119122-.573557-.176771-.835407-10.120632-45.969113-23.955449-74.6158361-43.993272-92.7709942-19.188524-17.3856548-46.266897-27.2751704-88.901069-32.5684016l-.333903-.040883-1.044286-.1210896-1.107595-.1187478-1.574044-.1546823-1.683634-.1505065-1.333629-.1101351-1.87135-.1431812-1.472474-.1046327-2.58336-.1691345-1.626397-.0983238-2.835673-.1586014-1.775247-.0919929-2.451669-.1189549-1.90133-.0864355-3.285967-.1387535-3.42946-.1321089-4.300111-.14974-4.496277-.1401268-6.290318-.1718393-5.771144-.1362583-5.309247-.1096329-2.77701-.0519333c-12.571146-.2271602-25.350973-.3599137-38.402219-.4264806l-7.146157-.0299148z"/></svg>