<svg height="960" viewBox="0 0 960 960" width="960" xmlns="http://www.w3.org/2000/svg"><path d="m389.271762 1.11152877c87.499578 10.80631493 155.968293 20.67844663 205.587288 29.66017823 49.637712 8.9851198 115.99224 23.5193703 199.234508 43.6221405 18.025567 4.3531229 30.695746 20.5244741 30.610054 39.0680255l-3.369126 725.288407c-.078367 16.872729-10.735887 31.881835-26.639887 37.517253l-16.759756 5.938647c-8.352022 2.959453-17.407018 3.048479-25.74638.303662l-128.970431 44.121666c-4.280902 9.090278-11.920398 16.380285-21.567532 20.155807l-18.580212 7.27159c-8.90081 3.483439-18.754764 3.664488-27.777528.510364-112.600744-39.362307-193.83187-71.611173-244.395548-97.162185-51.55673-26.052825-104.066353-61.677737-157.622474-106.80293-9.020193-7.600214-14.226115-18.79411-14.226115-30.589327v-641.5315995c-1.104005-3.6456107-1.677904-7.483203-1.677904-11.4049664v-3.6072087c0-6.9656357 1.818992-13.8105268 5.276948-19.8572303l1.677903-2.9340404c6.841761-11.9637457 19.360532-19.5627378 33.131524-20.1110951l18.757866-.7469333c3.176079-.1264707 6.355913.1260851 9.472209.7523227l45.43395 9.1302132 82.658874-8.8637917c6.238145-9.4576406 16.432627-16.12567981 28.406018-17.600497l17.29292-2.13004778c3.252021-.40056625 6.540939-.40003694 9.792831.00157605zm-210.224918 294.75945823.001779 424.14384c51.294791 43.219848 101.257795 77.117019 149.889012 101.691512 47.159925 23.831016 123.679728 54.364032 229.55941 91.59905l.794972-502.141105c-85.407242-17.145719-163.495499-36.495194-234.269084-58.053458-68.964536-21.007211-117.500689-39.987751-145.976089-57.239839zm410.070875-141.126064-9.423 1.729-.38523 243.761314c.438961 1.495453.533744 3.115928.210182 4.750651-.059916.302712-.13291.599508-.218278.889916l-.803674 507.017119 8.574944-3.35459.661612-5.430311-1.555271-2.301129v-4.78007l.064163-.023604c-.007451-.165035-.0109-.331105-.01025-.498116zm167.941 48.795-148.229 25.256-2.572 661.36 147.662497-50.514515.671503.305515zm27.6-80.98-7.289 1.347-2.782 717.047 6.747198-2.389426zm-605.612088-44.6901085.001575 196.1744105c1.895651-.001833 3.812888.534477 5.51294 1.657711 25.465616 16.825281 74.377985 36.37189 146.289591 58.276805 69.046389 21.032144 145.205566 39.963871 228.473414 56.790377l.371672-234.272935c-78.551294-8.276502-156.727098-21.404766-236.043381-39.063244-73.088743-16.272018-121.042829-29.3489075-144.605811-39.5631245zm40.32497 94.7744045c4.467578-1.3656 9.334934 1.600939 10.871544 6.625951s-.839409 10.205627-5.306987 11.571228c-4.467578 1.3656-9.334934-1.600939-10.871544-6.625951-1.53661-5.025013.839409-10.205627 5.306987-11.571228zm537.939118-33.843296-148.215 21.63-.108 27.609 148.22-22.716zm-389.39-81.987.000954.594768-51.246954 5.494232 284.508625 57.076975c4.68587.94004 8.051594 5.064368 8.033074 9.843563l-.041699 10.384462 115.312-16.829zm-170.114231 2.9761564-9.313966.3705146c22.334838 9.3805388 69.073063 22.069519 139.506184 37.7503062 80.360236 17.8908978 159.499183 31.0826528 239.02355 39.3192578.820918.085025 2.056828.212054 3.706266.380934.188129.019262.374595.043657.559264.073036l8.598933-1.579205-329.475-66.096-1.141244.1231396zm207.085853-16.4184313 347.784404 64.9251289c.555531-.210835 1.137726-.37491 1.74278-.486699l4.213341-.778747c-70.423094-16.723721-127.389291-29.023477-170.898591-36.8992684-44.846705-8.1178806-105.794017-17.0380188-182.841934-26.7604145z"/></svg>