<svg height="960" viewBox="0 0 960 960" width="960" xmlns="http://www.w3.org/2000/svg"><path d="m481.610074 4.03241736 1.647906.06644076c58.02003 2.43426466 106.534807 14.34769108 145.32003 36.44411078 34.777041 19.8129095 58.379016 46.0047585 70.161216 81.9858711 11.893711 36.321653 10.839366 80.62535-2.454865 136.798011-15.923392 67.281765-40.757655 175.544625-74.487398 324.724808l-.425912 1.881781-14.684 178.03.000121.011246c-.175926 5.909229-1.135087 12.67415-3.239514 19.769084l-.247922.820081c-3.475066 11.281441-9.369644 21.70091-18.30444 30.258917l-.199245.187672-.597464.884235c-.236772.35202-.472023.703985-.704831 1.054668l-.690174 1.046983c-1.054949 1.612148-1.966656 3.063418-2.655446 4.229241-.214155.362471-.393438.674912-.531645.923756l-.037914.0686c-.186211.517322-.319528 1.189083-.768539 3.727651l-.105127.595552c-.059773.33915-.114809.647816-.168879.945902l-.010981.055412-.031518.204839c-.428588 2.74389-.821763 6.081625-1.354429 11.379284l-.029053.290877-.010773.198134c-.210432 3.830656-.47807 9.444963-.799553 16.791397l-.004674.080469-.000584.059913c-.056423 4.021072-.085405 7.503304-.088559 10.416584l-.000173.856885c.001996 2.799188.029659 5.026412.081378 6.651558.316775 9.954048-3.091118 19.668269-9.557177 27.242798l-21.901302 25.655818c-1.074793 1.259045-2.226709 2.450154-3.449102 3.566457l-14.279878 13.04055c-.791173.722508-1.610576 1.412498-2.456131 2.068423l-.080472.060014-.115719.09861c-1.152427.964636-2.346115 1.889828-3.639735 2.798606l-.655409.453128c-3.732701 2.539713-7.788647 4.592595-12.219781 6.171506-7.306358 2.603416-15.244157 3.828675-25.189702 4.257463-.57398.024746-1.148427.037123-1.72294.037123h-.203773c-.583241 0-1.166412-.012756-1.749095-.038259-17.435961-.763159-29.659389-4.204132-40.500818-12.881093l-.25971-.209643-.209545-.170598c-.157113-.127911-.313252-.257014-.468404-.387297l-.155369-.130546-.078397-.059274c-.634217-.491995-1.25372-1.003153-1.857634-1.532824l-.598684-.535817-14.27937-13.04055c-1.222198-1.116165-2.373939-2.307114-3.448579-3.565979l-21.901302-25.655818c-6.465347-7.573695-9.873227-17.286644-9.557277-27.23962.176609-5.563513.176609-11.579291-.004224-17.987944l-.003857-.146157c-.06009-2.446714-.171452-5.167067-.340312-8.445359l-.032046-.616351c-.081143-1.546215-.17162-3.162778-.307894-5.531694-.018111-.314498-.028978-.503197-.038413-.666976l-.013805-.23959c-.009456-.164081-.020386-.353682-.038603-.669685-.012295-.213409-.023542-.408779-.034064-.591773l-.008539-.144589-.030742-.310875c-.54988-5.473316-.952001-8.860035-1.398275-11.658972l-.044782-.277989-.020835-.12192-.08534-.535811-.031356-.206339-.033449-.22404-.028487-.194066c-.036753-.254725-.070811-.501303-.104259-.752218-.018153-.136177-.032235-.243731-.050768-.387496l-.005707-.042274-.014943-.053773c-.010009-.035769-.020808-.074085-.032425-.114999l-.037338-.130582c-.165414-.574741-.39247-1.309586-.68864-2.216097l-.081787-.249921-.018867-.053628-.094267-.161908c-.313327-.525451-.745542-1.190518-1.268078-1.940222l-.20013-.284999c-.798011-1.128154-1.695185-2.302814-2.609252-3.433623l-.235273-.287248-.389168-.34526c-9.674168-8.665602-16.019267-19.412683-19.74938-31.119659l-.212302-.676459c-2.214791-7.165506-3.269495-14.071629-3.504802-20.081119l-.020348-.566503-14.392-174.506-.096251-.389433-.122926-.527212c-34.251968-151.522009-59.428001-261.296566-75.512235-329.257944-13.294231-56.172661-14.348576-100.476358-2.454865-136.798011 11.7822-35.9811126 35.384175-62.1729616 70.161216-81.9858711 39.165341-22.3129777 88.251546-34.24300034 147.034375-36.51317268 1.050862-.04058393 2.102916-.03970953 3.153709.00262114zm-47.287797 882.89478564 13.210694 15.473302 14.27937 13.04055.355714.212907c.224012.202347.448016.404702.678967.60593l.150901.131108.097.082.156117.130538.209545.170598c.179782.143889.366349.286674.562351.427923.051182.037206.10281.073846.155124.110375l.111104.076373c.016827.011482.033726.022952.050697.034411.030603.020983.06106.041351.091757.06168l.116536.075905c.373602.241365.782843.476924 1.241808.704378.033968.017157.068096.033891.102501.050581l.151916.072223c.037926.017828.076181.035603.114774.053323.023505.011117.047609.022105.071844.03307l.160683.071211c.096009.042053.194045.083775.294206.125152.090537.037727.183061.074945.277403.111867l.17996.068901c.428458.161996.893543.318021 1.401611.467036.122911.036376.248563.072079.37683.107355.370777.101654.763856.200173 1.181028.294762.063141.014642.126823.028866.191064.042999.499244.109501 1.031844.213745 1.601732.311907.147261.025692.297121.050669.449536.07523 1.493374.240324 3.23208.440973 5.273956.592167.819215.060984 1.686986.11367 2.607266.15779.161615.007421.324847.014905.48972.022121h.203773c1.424642-.061421 2.728263-.142219 3.923571-.240359.103063-.008137.204778-.016682.305705-.025353.622663-.053825 1.215054-.112101 1.779333-.174878.032871-.003332.064441-.006869.095923-.01042l-.095923.01042c.080593-.008966.160612-.018024.240064-.027173l-.144141.016753c.135825-.01532.270008-.030903.402578-.046744l-.258437.029991c.273318-.031473.539914-.064021.800012-.09761.041927-.005089.083578-.010517.125062-.015971l-.125062.015971c.125559-.016215.249604-.032672.37216-.049368l-.247098.033397c.119007-.015647.236639-.031513.352918-.047597l-.10582.0142c.099531-.013559.198081-.027275.295661-.041146l-.189841.026946c.109175-.015101.217156-.030393.323963-.045872l-.134122.018926c.250386-.035594.494393-.072208.732248-.109807l.385103-.062623c.466841-.07808.909103-.160094 1.328656-.245743.03745-.007319.075404-.015135.113171-.02298l-.113171.02298c.205211-.041893.404989-.084655.599553-.128252l.206627-.046739c.035487-.008216.070796-.01646.10593-.024732.283067-.066971.555242-.135592.816676-.205933.128218-.034175.253655-.069031.376604-.104285.350123-.100725.679789-.20426.991309-.310699.249261-.084839.48711-.171941.714349-.260742.07723-.030501.153798-.061104.229162-.091899.073508-.029715.145445-.059755.216288-.08997.213775-.091496.417737-.184329.612767-.278591.018402-.008571.036331-.017286.054185-.026013l-.054185.026013c.104275-.050398.205997-.101204.305324-.152394.023326-.011698.04659-.023777.069724-.035877l-.069724.035877c.150343-.077482.2952-.155841.435117-.234991.064304-.036052.127641-.072638.189985-.109384.467713-.275971.87983-.560751 1.258639-.85085.042804-.032458.085292-.065391.127385-.098387l.230306-.184498c.010375-.008457.020728-.016917.03106-.025381l.164768-.136359.008288-.007284c.033594-.028239.06699-.056509.100206-.084807l.19731-.17011c.086991-.075831.172989-.15182.258373-.227907l.123156-.110151c.033128-.029726.06619-.059464.099208-.089207l.18979-.171302.355714-.212907 14.279879-13.04055 13.041299-15.275595c-9.1294 5.577349-24.461813 8.366024-45.997239 8.366024-21.788405 0-37.464349-2.854577-47.027834-8.563731zm-23.543692-92.807107.120522.156586.066749.086975c1.136365 1.485703 2.354434 3.156195 3.526594 4.909289l.41159.622003c.78549 1.199726 1.543026 2.431838 2.232945 3.664575.031272.056089.062674.11245.093931.168809 1.681393-2.109179 4.446963-3.237318 7.279795-2.694828 16.572156 3.173581 40.874977 4.784836 72.778749 4.784836 4.142136 0 7.5 3.357864 7.5 7.5s-3.357864 7.5-7.5 7.5c-32.737439 0-57.877404-1.66468-75.549235-5.042827.060494.226545.115473.442059.166548.648154.006252.025447.012742.051739.019169.077877.055734.226455.106484.440666.153062.644665.024123.105887.046985.208159.068818.307891.005126.023189.010152.046262.015122.069199l.009494.044185c.02117.098338.041329.194172.060553.287668.047679.231639.089673.449477.127076.655446l.022632.126543c.015176.085866.029559.169666.043242.251598.025429.152043.048403.29764.069549.438077.03443.228872.064036.444034.091313.650991.629728-.043731 1.275054-.007121 1.923908.117135 16.572156 3.173581 40.874977 4.784836 72.778749 4.784836 4.142136 0 7.5 3.357864 7.5 7.5s-3.357864 7.5-7.5 7.5c-31.058221 0-55.278381-1.498285-72.77092-4.536514.067121.646289.132521 1.300698.197928 1.960944.04786.83788.096639 1.682494.145597 2.532033l-.351354-.064976c16.572156 3.173581 40.874977 4.784836 72.778749 4.784836 4.142136 0 7.5 3.357865 7.5 7.5 0 4.142136-3.357864 7.5-7.5 7.5-30.424353 0-54.286913-1.437752-71.691496-4.352416l.033705 1.155694c.060111 2.130296.102401 4.227797.12687 6.291145 18.598566 3.280203 37.155772 4.920664 55.670072 4.920664 19.183559 0 37.441393-1.761204 54.773503-5.283614l-.065907.014156c.000734-.080941.001481-.162131.002242-.243568l.005058-.525876c.016123-1.627714.037404-3.352016.063845-5.172907.372653-8.551762.677551-14.903486.914693-19.055171.559487-5.642566 1.117958-10.858786 1.880202-15.542206.762244-4.098991 1.313582-8.773992 3.91336-14.797032l.116569-.264924-.116569.265141c.067185-.155649.138676-.315737.214208-.47993.22888-.497693.494058-1.031375.788736-1.593338.063424-.120742.1286-.243729.195084-.367948 1.001005-1.87041 2.297688-4.018737 3.635326-6.128043l.456605-.716138c.112207-.175065.224498-.349606.336723-.523438.130055-.201241.260038-.401761.389701-.60104.1529-.235197.305426-.468568.45713-.699739.33482-.510003.665427-1.009193.987951-1.492597.038073-.057269.076268-.114465.114343-.171431-6.978753 1.057281-15.651328 1.848249-26.025153 2.495763-9.052702.565052-18.722754.951945-28.388689 1.194274-3.379867.084735-6.519288.145403-9.339304.18601-.989478.014248-1.869247.024974-2.62941.032675-.394593.003998-.686693.006503-.910339.007957l-4.697283-.000129c-.183365-.001325-.475464-.00383-.870058-.007828-.760162-.007701-1.639932-.018427-2.62941-.032675-2.820015-.040607-5.959437-.101275-9.339303-.18601-9.665935-.242329-19.335988-.629222-28.38869-1.194274-10.608386-.662155-19.437719-1.474324-26.49519-2.567213zm-17.492332-38.472998.52141 6.31707c0 1.079193.119316 4.0526.950733 7.779071 2.532968-.569045 5.284774-.157342 7.635271 1.367468.504205.327087 1.026472.634275 1.571844.923142 3.264654 1.730252 16.586262 3.570782 34.554201 4.692306 8.775882.547774 18.207884.925143 27.644003 1.16171 3.305853.082879 6.374599.142182 9.126016.181801.960523.013831 1.811878.024211 2.544063.031629.43505.004407.731033.006835.813999.007571l4.380486.000204c.14693-.00094.442914-.003368.877963-.007775.732186-.007418 1.58354-.017798 2.544064-.031629 2.751416-.039619 5.820162-.098922 9.126015-.181801 9.436119-.236567 18.868121-.613936 27.644004-1.16171 17.967938-1.121524 31.289547-2.962054 34.556455-4.693501.543117-.287672 1.065385-.59486 1.56959-.921947 1.994846-1.294093 4.278744-1.78644 6.472898-1.55775.790392-3.634148.898075-6.524442.898075-7.588789l.463315-5.61085c-.013079.006946-.026164.013886-.039253.020819-6.934681 3.675326-21.138654 5.637752-42.674312 6.981957-9.052759.565052-18.722874.951946-28.388871 1.194275-3.379888.084734-6.51933.145402-9.339364.186009-.989484.014248-1.869259.024974-2.629427.032676-.460362.004664-.781217.007296-1.01662.008597l-4.591036-.00077c-.183366-.001325-.475468-.003829-.870064-.007827-.760167-.007702-1.639942-.018428-2.629426-.032676-2.820034-.040607-5.959476-.101275-9.339364-.186009-9.665997-.242329-19.336112-.629223-28.388872-1.194275-21.535657-1.344205-35.73963-3.306631-42.672056-6.980762-.44477-.235579-.883306-.478349-1.31574-.728234zm187.65167-166.100098h-201.351l12.210311 148.04977c3.172451-1.904302 7.283124-1.966667 10.596408.182706.50421.327088 1.026483.634277 1.57186.923145 3.264695 1.730263 16.586399 3.570794 34.554476 4.692319 8.775942.547774 18.208008.925144 27.64419 1.161711 3.305875.082879 6.374642.142181 9.126077.1818.96053.013832 1.81189.024211 2.544081.031629.380671.003857.654869.006198.773052.007216l4.42147.00056c.14693-.00094.442916-.003368.877969-.007776.73219-.007418 1.58355-.017797 2.54408-.031629 2.751436-.039619 5.820203-.098921 9.126078-.1818 9.436182-.236567 18.868248-.613937 27.64419-1.161711 17.968077-1.121525 31.289781-2.962056 34.55673-4.693513.543123-.287674 1.065396-.594863 1.569606-.921951 2.919777-1.8941 6.458784-2.070624 9.42927-.782644zm-100.937923-545.547c-52.806517 2.0393693-95.732329 12.472156-128.777435 31.2983603-49.567658 28.2393067-72.766161 72.6307467-48.582189 174.8162787 15.76501 66.612545 40.210103 173.152814 73.335281 319.620806.797148-.109041 1.609913-.173202 2.435655-.187569l52.562611-.000876.000235-288.50945c0-5.196801 3.980556-9.527488 9.158944-9.964568 16.647683-1.405142 29.454326-2.123412 38.506958-2.149067l.499062-.000712c9.078692 0 22.050047.718616 39.006021 2.149779 5.178388.43708 9.158944 4.767767 9.158944 9.964568l-.000164 288.50945 54.45858.000876c.769965 0 1.529077.043295 2.275157.127504 33.118771-146.438044 57.559183-252.957611 73.321964-319.560741 24.183972-102.185532.985469-146.576972-48.582189-174.8162787-32.714655-18.6379422-75.11339-29.049496-127.196204-31.2346612zm27.302923 262.5-20.908996 22.041093c-3.943404 4.156763-10.566206 4.156763-14.509609 0l-20.910395-22.041093.000235 262.910203h56.329zm-27.701166-17.576112h-.92527c-4.365441.012821-9.788577.205563-16.257192.57903l16.719863 17.62585 16.720787-17.625793c-6.469054-.373505-11.892523-.566265-16.258188-.579087z"/></svg>