<svg height="960" viewBox="0 0 960 960" width="960" xmlns="http://www.w3.org/2000/svg"><path d="m554.85641 84.2969704c40.001282-3.7717017 80.367645-.7983244 119.878678 9.0528825 201.920881 50.3445301 321.290714 264.4191141 268.222904 477.2624771l-1.490828 5.805901c-49.952062 189.025159-222.189064 315.613304-405.437321 298.821267l-2.562175-.255042-.370788-.011882c-1.391013-.057718-2.793871-.188275-4.204651-.394928l-2.089561-.30619-1.750969-.208969c-6.464668-.794488-12.916021-1.767361-19.349175-2.918851l-1.642856-.30118-163.811-24.721.681426.083103c-15.954261-1.900614-31.844813-4.814908-47.602247-8.743678-203.5960262-50.762191-327.749292-256.254634-277.1863876-459.051367l1.3057577-5.087692c43.7394246-165.677224 193.4842669-280.1140707 363.2395009-281.5025456l4.05295-.0048207 169.66688-7.4743862zm107.782583 57.5676686c-174.398799-43.4825041-353.720767 72.328996-400.277047 259.056038-46.556281 186.727041 57.405413 373.169091 231.804212 416.651595 174.3988 43.482505 353.720767-72.328995 400.277048-259.056037 46.55628-186.727042-57.405414-373.169092-231.804213-416.651596zm-170.598502-14.744784-106.368488 4.691705c-152.960081-.83159-292.2404301 101.94686-330.7187145 256.27483-45.20795227 181.319193 65.8484575 365.134358 248.0514345 410.562662 14.228341 3.547524 28.469794 6.14624 42.657071 7.836355l95.374888 14.394775c-155.694224-65.769333-242.805422-245.416683-198.080651-424.797943 33.352682-133.7703 131.509083-233.251446 249.08446-268.962384zm-134.536558 290.347252c36.559472-146.632033 177.896332-237.911612 315.934489-203.494834 138.038158 34.416778 219.978031 181.365499 183.41856 327.997532-36.559472 146.632033-177.896332 237.911612-315.93449 203.494833-138.038157-34.416778-219.978031-181.365499-183.418559-327.997531zm311.096051-184.08892c-127.029325-31.671967-257.735277 52.741853-291.690136 188.927357-33.95486 136.185505 41.821757 272.081212 168.851082 303.75318s257.735277-52.741852 291.690137-188.927357-41.821758-272.081212-168.851083-303.75318zm-271.145268 196.062943c30.071921-118.218879 146.272185-191.775546 259.757247-164.04193 113.559151 27.751721 181.005903 146.30902 150.916512 264.596581-30.071921 118.21888-146.272185 191.775546-259.757247 164.041931-113.559151-27.751722-181.005903-146.30902-150.916512-264.596582zm255.009345-144.613667c-102.619004-25.078155-208.209648 41.762448-235.626611 149.544149-27.399493 107.713018 33.736766 215.177787 136.28168 240.237836 102.619004 25.078156 208.209648-41.762448 235.626611-149.544148 27.399493-107.713018-33.736766-215.177788-136.28168-240.237837z"/></svg>