<svg height="960" viewBox="0 0 960 960" width="960" xmlns="http://www.w3.org/2000/svg"><path d="m646.684588 1.34301075c110.45695 0 200 89.54305005 200 200.00000025v560c0 110.45695-89.54305 200-200 200h-329.244445c-110.45695 0-200-89.54305-200-200v-560c0-110.4569502 89.54305-200.00000025 200-200.00000025zm-26.998654 40.00000005h-302.245791c-88.36556 0-160 71.6344402-160 160.0000002v560c0 88.36556 71.63444 160 160 160h302.245791zm26.998654 0h-6.998654v880.0000002h6.998654c88.36556 0 160-71.63444 160-160v-560c0-88.36556-71.63444-160.0000002-160-160.0000002z"/></svg>