<svg height="960" viewBox="0 0 960 960" width="960" xmlns="http://www.w3.org/2000/svg"><path d="m513.47256-17.7290303c5.522848 0 10 4.4771525 10 10.00000001l-.000831 60.99999999h11.662743c5.225363 0 9.569778 4.0230633 9.970545 9.233035l10.548712 137.1309653 114.326596-1.066529c11.127635-.102029 21.795524 4.434419 29.44026 12.521015 6.387673 6.756876 11.353039 12.394416 15.075027 17.197714 2.453487 3.166272 4.509674 6.13883 6.271282 9.232142 1.340934 2.354624 2.513387 4.777207 3.51177 7.459701 1.703366 4.57667 2.773163 9.442744 2.773163 15.139159v572.1373c0 14.900591-5.616447 28.91467-18.624162 38.804204-4.956195 3.768106-10.106549 6.253839-15.706858 8.096436-3.429755 1.128448-6.854746 1.959835-10.936546 2.759779-2.200075.431167-4.442008.826689-7.826358 1.39526-.254956.042833-.716987.120137-1.241646.20784l-.461677.077159c-.156759.026195-.315261.052677-.472138.078884l-.683605.114191c-.462146.077193-.8559.142955-1.070868.17889l-.125978.021072c-1.641151.274805-2.972701.500354-4.304205.73005-14.153204 2.441559-52.39659 5.021973-104.449514 7.335152.522992 1.815656.812841 3.701383.854215 5.612428l.005158.474997v17.052961c0 6.886078-5.00837 12.749407-11.814081 13.827461-.695934.109919-1.426878.219279-2.192926.328099l-.000638 54.649665c0 5.522847-4.477153 10-10 10h-77c-5.522847 0-10-4.477153-10-10l-.000271-54.42903-.081364-.013644c-8.375549-1.575507-14.501685-8.819247-14.664783-17.339055l-.003337-.350836.000338-15.518713c-.065761.001733-.131529.003466-.197303.005198-90.044298 2.371296-151.270031-2.440463-171.434993-10.725454-4.235024-1.740004-6.435083-2.740561-9.715316-4.747936-9.41148-5.759462-16.596772-14.610817-19.671216-26.171011-.990681-3.725053-1.388634-6.953275-1.5355-10.353851-.048578-1.12555-.060009-1.848767-.062698-3.094768l-.000828-583.258059c0-10.509129 4.140343-20.596106 11.517848-28.08037l15.654256-15.880785c7.426536-7.534004 17.535195-11.81924 28.113708-11.917891l116.138188-1.083825 10.657537-138.5359653c.400767-5.2099717 4.745182-9.233035 9.970545-9.233035h10.520918l.000893-60.99999999c0-5.52284751 4.477153-10.00000001 10-10.00000001 5.522848 0 10 4.4771525 10 10.00000001v60.99999999h47.265l.000938-60.99999999c0-5.42923991 4.326671-9.84793171 9.720095-9.99615821zm14.52744 951.7290303h-57v40h57zm10.770554-41.001688-2.383091.095047c-24.637005.977128-51.640784 1.890602-80.137251 2.705892l-.000967 14.370816 1.473133.233392c16.751941 2.595747 33.342627 3.41827 49.783206 2.471269l1.540865-.093966c14.110402-.908214 25.039251-1.839883 32.70569-2.779096l.255506-.031599v-11.827532c0-.390762-.114492-.771679-.327432-1.096453l-.069968-.096015-.029132-.037588c-1.057931-1.35239-1.996873-2.650948-2.810559-3.914167zm148.281175-625.961342.328176-.010478c-60.22983 1.97707-117.259071 2.965749-171.088738 2.965749l-2.916698.000608c-.103938.000048-.207522.0001-.310785.000155l-1.225876.000829c-.101227.000084-.202266.000172-.303151.000264l-.60372.0006c-.1004.000109-.200711.000221-.300968.000338l-.60115.000756-.240451.000333-.481445.00072c-7.792558.012254-16.137455.054164-40.58906.184155-21.72169.115479-40.831243.184027-58.597363.191226h-6.403452c-15.342827-.007043-29.766925-.062702-44.133312-.176875l-2.971815-.024461c-15.8483-.134942-31.698633-.341953-48.707827-.634183-7.815556-.134276-19.206247-.953776-34.270564-2.454798l-.000289 574.144376c.012054 4.613064.411758 5.030706 6.186435 7.403294 6.571184 2.699841 49.405971 10.523755 155.180578 7.738205 105.774606-2.78555 201.94286-7.296175 223.797602-11.06632s28.253971-3.770145 28.253971-13.045991zm-130.173131 103.181978c19.329967 0 35 15.670033 35 35v5.864931c0 19.329966-15.670033 35-35 35h-57.16946c-19.329966 0-35-15.670034-35-35v-5.864931c0-19.329967 15.670034-35 35-35zm0 20h-57.16946c-8.284271 0-15 6.715728-15 15v5.864931c0 8.284271 6.715729 15 15 15h57.16946c8.284272 0 15-6.715729 15-15v-5.864931c0-8.284272-6.715728-15-15-15zm113.474733-151.650504-381.061784 3.553612-5.734066 5.816692c10.651595.96843 18.899025 1.501413 24.690176 1.600909 13.242543.227516 25.781226.403201 38.166652.533294l2.969842.03035 2.965648.028618 2.963146.026906 2.962336.025213c.987498.008125 1.975143.01597 2.963216.023539l2.965788.021884c12.859767.091273 25.839627.136474 39.558936.14262l6.386749.00009c17.720354-.00724 36.78542-.075653 58.46157-.190889 24.489434-.130192 32.845971-.172162 40.666292-.184432l.483184-.000721c.080462-.000115.160902-.000226.241335-.000334l.603413-.000756.151007-.000173.757214-.000767.152054-.000135 1.383272-.00096.155799-.00008 3.086057-.000683c51.099187 0 105.11245-.894991 162.03891-2.685223-2.229711-2.559719-4.889137-5.472504-7.976746-8.738574zm-144.479527-165.2974743h-90.929l-9.814075 127.5810003 110.478-1.03z" fill-rule="evenodd"/></svg>