<?xml version="1.0" encoding="UTF-8"?>
<svg width="960px" height="960px" viewBox="0 0 960 960" version="1.1" xmlns="http://www.w3.org/2000/svg" xmlns:xlink="http://www.w3.org/1999/xlink">
    <!-- Generator: Sketch 60.1 (88133) - https://sketch.com -->
    <title>Community/Capabilities/air_quality_index</title>
    <desc>Created with Sketch.</desc>
    <g id="Community/Capabilities/air_quality_index" stroke="none" stroke-width="1" fill="none" fill-rule="evenodd">
        <path d="M293.551481,735.699577 L267.148096,735.699577 C266.403385,735.699577 265.658674,735.631876 264.913963,735.564175 C172.366714,731.705219 100.062059,656.421721 100.062059,563.535966 C100.062059,493.330042 142.781382,430.300423 207.232722,404.03244 C233.026798,298.622003 328.755994,223 438.093089,223 C546.753174,223 642.279267,298.012694 668.54725,402.610719 C721.35402,422.853315 761.636107,468.619182 774.634697,523.863188 C776.530324,532.055007 771.45275,540.246827 763.260931,542.210155 C755.069112,544.105783 746.877292,539.028209 744.913963,530.836389 C733.6756,483.039492 697.590973,443.840621 650.809591,428.675599 C645.664316,426.983075 641.737659,422.650212 640.586742,417.369535 C620.479549,322.385049 535.311707,253.465444 438.093089,253.465444 C340.332863,253.465444 255.029619,322.858956 235.260931,418.385049 C234.177715,423.598025 230.454161,427.930889 225.376587,429.691114 C168.643159,449.595205 130.527504,503.349788 130.527504,563.468265 C130.527504,640.444288 190.713681,702.661495 267.622003,705.098731 C268.028209,705.098731 268.434415,705.166432 268.840621,705.166432 L293.551481,705.166432 C301.946403,705.166432 308.784203,712.004231 308.784203,720.399154 C308.784203,728.794076 301.946403,735.699577 293.551481,735.699577 Z" id="Path" fill="#000000" fill-rule="nonzero"></path>
        <circle id="Oval" fill="#000000" fill-rule="nonzero" cx="438.8378" cy="443.569817" r="12.2538787"></circle>
        <circle id="Oval" fill="#000000" fill-rule="nonzero" cx="438.8378" cy="529.685473" r="12.2538787"></circle>
        <circle id="Oval" fill="#000000" fill-rule="nonzero" cx="438.8378" cy="357.454161" r="12.2538787"></circle>
        <circle id="Oval" fill="#000000" fill-rule="nonzero" cx="372.016925" cy="486.627645" r="12.2538787"></circle>
        <circle id="Oval" fill="#000000" fill-rule="nonzero" cx="372.016925" cy="400.511989" r="12.2538787"></circle>
        <circle id="Oval" fill="#000000" fill-rule="nonzero" cx="305.12835" cy="443.569817" r="12.2538787"></circle>
        <circle id="Oval" fill="#000000" fill-rule="nonzero" cx="505.658674" cy="486.627645" r="12.2538787"></circle>
        <circle id="Oval" fill="#000000" fill-rule="nonzero" cx="505.658674" cy="400.511989" r="12.2538787"></circle>
        <circle id="Oval" fill="#000000" fill-rule="nonzero" cx="572.479549" cy="443.569817" r="12.2538787"></circle>
        <path d="M387.119438,735.53647 L398.302712,707.298704 L454.219079,707.298704 L464.936382,735.53647 L492.055821,735.53647 L439.308047,598.448176 L412.840967,598.448176 L360,735.53647 L387.119438,735.53647 Z M444.433714,681.856757 L407.994882,681.856757 L426.260895,634.793815 L444.433714,681.856757 Z M653.747316,746.346967 L629.889666,715.499771 C641.942749,702.017714 647.969291,685.988355 647.969291,667.411696 C647.969291,647.219674 640.995277,630.103053 627.04725,616.061832 C613.099223,602.020611 596.401975,595 576.955505,595 C564.218999,595 552.305706,598.230723 541.215627,604.69217 C530.125547,611.153617 521.411913,619.867251 515.074725,630.833072 C508.737537,641.798893 505.568943,653.836444 505.568943,666.945726 C505.568943,686.578584 512.372101,703.493285 525.978417,717.689829 C539.584733,731.886373 556.670289,738.984646 577.235087,738.984646 C589.536687,738.984646 600.688896,736.250956 610.691713,730.783578 L610.691713,730.783578 L622.806926,746.346967 L653.747316,746.346967 Z M577.141893,713.729086 C566.331395,713.729086 556.670289,710.28091 548.158576,703.384558 C537.285949,694.562198 531.849635,682.571244 531.849635,667.411696 C531.849635,653.805379 536.167621,642.591041 544.803594,633.768681 C553.439566,624.946321 564.15687,620.535141 576.955505,620.535141 C589.381364,620.535141 599.974409,625.07058 608.73464,634.141457 C617.494871,643.212334 621.874986,654.240285 621.874986,667.225308 C621.874986,677.165995 619.110233,686.236872 613.580725,694.43794 L613.580725,694.43794 L601.279124,678.501775 L570.152347,678.501775 L594.662354,710.094522 C589.194976,712.517565 583.354822,713.729086 577.141893,713.729086 Z M720.341413,735.53647 L720.341413,598.448176 L694.433497,598.448176 L694.433497,735.53647 L720.341413,735.53647 Z" id="AQI" stroke="#000000" stroke-width="4" fill="#000000" fill-rule="nonzero" stroke-linejoin="round"></path>
    </g>
</svg>