<?xml version="1.0" encoding="UTF-8"?>
<svg width="960px" height="960px" viewBox="0 0 960 960" version="1.1" xmlns="http://www.w3.org/2000/svg" xmlns:xlink="http://www.w3.org/1999/xlink">
    <!-- Generator: Sketch 60.1 (88133) - https://sketch.com -->
    <title>Community/Capabilities/alert_air_quality_index</title>
    <desc>Created with Sketch.</desc>
    <g id="Community/Capabilities/alert_air_quality_index" stroke="none" stroke-width="1" fill="none" fill-rule="evenodd">
        <path d="M496.858151,764 L510.407904,729.806934 L578.156669,729.806934 L591.141849,764 L624,764 L560.090332,598 L528.022583,598 L464,764 L496.858151,764 Z M566,700 L522,700 L544.056266,643 L566,700 Z M821,778 L792.018868,740.497537 C806.660377,724.106732 813.981132,704.619048 813.981132,682.034483 C813.981132,657.486043 805.509434,636.676519 788.566038,619.605911 C771.622642,602.535304 751.339623,594 727.716981,594 C712.245283,594 697.773585,597.92775 684.301887,605.783251 C670.830189,613.638752 660.245283,624.232348 652.54717,637.564039 C644.849057,650.895731 641,665.530378 641,681.46798 C641,705.336617 649.264151,725.900657 665.792453,743.160099 C682.320755,760.41954 703.075472,769.049261 728.056604,769.049261 C743,769.049261 756.54717,765.72578 768.698113,759.078818 L768.698113,759.078818 L783.415094,778 L821,778 Z M727.341615,739 C714.132505,739 702.327812,734.782 691.927536,726.346 C678.642512,715.554 672,700.886 672,682.342 C672,665.698 677.276052,651.98 687.828157,641.188 C698.380262,630.396 711.4755,625 727.113872,625 C742.296756,625 755.240166,630.548 765.944099,641.644 C776.648033,652.74 782,666.23 782,682.114 C782,694.274 778.621808,705.37 771.865424,715.402 L771.865424,715.402 L756.834369,695.908 L718.801242,695.908 L748.749482,734.554 C742.069013,737.518 734.933057,739 727.341615,739 Z M902,764 L902,598 L871,598 L871,764 L902,764 Z" id="AQI" stroke="#000000" stroke-width="4" fill="#000000" fill-rule="nonzero" stroke-linejoin="round"></path>
        <g id="Group" transform="translate(-2.000000, 181.000000)" fill="#000000" fill-rule="nonzero">
            <path d="M397.772849,413.946464 L233.116741,100.362172 C219.520557,74.5459426 182.52629,74.5459426 168.930106,100.362172 L4.19495003,413.946464 C-8.4526627,438.025822 9.01685239,467 36.2882673,467 L201.023423,467 L365.679531,467 C392.950946,467 410.499509,438.104771 397.772849,413.946464 Z M183.15867,210.495628 C183.15867,200.311244 191.379618,192.100578 201.576756,192.100578 C211.773894,192.100578 219.994842,200.311244 219.994842,210.495628 L219.994842,316.207956 C219.994842,326.39234 211.773894,334.603007 201.576756,334.603007 C191.379618,334.603007 183.15867,326.39234 183.15867,316.207956 L183.15867,210.495628 Z M201.023423,413.393823 C186.320573,413.393823 174.463436,401.472567 174.463436,386.867055 C174.463436,372.182594 186.399621,360.340287 201.023423,360.340287 C215.726273,360.340287 227.58341,372.261543 227.58341,386.867055 C227.58341,401.472567 215.647225,413.393823 201.023423,413.393823 Z" id="Shape"></path>
            <path d="M566.99971,240 C557.044118,240 549,248.044248 549,258 C549,267.955752 557.044118,276 566.99971,276 C576.955301,276 584.999419,267.955752 584.999419,258 C585.079064,248.044248 576.955301,240 566.99971,240 Z" id="Path"></path>
            <path d="M566.99971,340 C557.044118,340 549,348.044248 549,358 C549,367.955752 557.044118,376 566.99971,376 C576.955301,376 584.999419,367.955752 584.999419,358 C585.079064,348.123894 576.955301,340.079646 566.99971,340 Z" id="Path"></path>
            <path d="M566.99971,140 C557.044118,140 549,148.044248 549,158 C549,167.955752 557.044118,176 566.99971,176 C576.955301,176 584.999419,167.955752 584.999419,158 C585.079064,148.123894 576.955301,140.079646 566.99971,140 Z" id="Path"></path>
            <path d="M490,290 C480.044248,290 472,298.044248 472,308 C472,317.955752 480.044248,326 490,326 C499.955752,326 508,317.955752 508,308 C508,298.044248 499.955752,290 490,290 Z" id="Path"></path>
            <path d="M490,190 C480.044248,190 472,198.044248 472,208 C472,217.955752 480.044248,226 490,226 C499.955752,226 508,217.955752 508,208 C508,198.123894 499.955752,190.079646 490,190 Z" id="Path"></path>
            <path d="M412,240 C402.044248,240 394,248.044248 394,258 C394,267.955752 402.044248,276 412,276 C421.955752,276 430,267.955752 430,258 C430,248.044248 421.955752,240 412,240 Z" id="Path"></path>
            <path d="M644.99971,290 C635.044118,290 627,298.044248 627,308 C627,317.955752 635.044118,326 644.99971,326 C654.955301,326 662.999419,317.955752 662.999419,308 C663.079064,298.044248 654.955301,290 644.99971,290 Z" id="Path"></path>
            <path d="M644.99971,190 C635.044118,190 627,198.044248 627,208 C627,217.955752 635.044118,226 644.99971,226 C654.955301,226 662.999419,217.955752 662.999419,208 C663.079064,198.123894 654.955301,190.079646 644.99971,190 Z" id="Path"></path>
            <path d="M722,240 C712.044248,240 704,248.044248 704,258 C704,267.955752 712.044248,276 722,276 C731.955752,276 740,267.955752 740,258 C740,248.044248 731.955752,240 722,240 Z" id="Path"></path>
            <path d="M565.809981,35.5549578 C679.250647,35.5549578 778.708724,115.988173 802.250032,226.840631 C803.592993,233.082501 808.095861,238.060195 814.178682,240.035471 C868.766078,257.81295 910.792842,303.481318 923.985455,359.263096 C926.276387,368.823429 935.835106,374.749255 945.393825,372.536947 C954.873547,370.324638 960.798373,360.764305 958.50744,351.203972 C943.339886,286.730982 896.336267,233.319534 834.718078,209.69524 C804.066979,87.5442072 692.601255,0 565.809981,0 C466.035914,0 375.899563,54.0435359 327,136.452027 L346.986413,174.535337 C386.169261,91.5737691 470.93377,35.5549578 565.809981,35.5549578 Z" id="Path"></path>
            <path d="M397.204969,563.206349 L368.337474,563.206349 C367.86294,563.126984 367.388406,563.126984 366.913872,563.126984 C333.775569,562.095238 303.326294,551.460317 278.017805,534 L224,534 C258.799172,572.015873 308.150725,596.460317 363.750311,598.84127 C364.62029,599 365.490269,599 366.360248,599 L397.204969,599 C407.012008,599 415,590.984127 415,581.142857 C415,571.222222 407.012008,563.206349 397.204969,563.206349 Z" id="Path"></path>
        </g>
    </g>
</svg>