<?xml version="1.0" encoding="UTF-8"?>
<svg width="960px" height="960px" viewBox="0 0 960 960" version="1.1" xmlns="http://www.w3.org/2000/svg" xmlns:xlink="http://www.w3.org/1999/xlink">
    <!-- Generator: Sketch 60.1 (88133) - https://sketch.com -->
    <title>cn.kaiterra/icon</title>
    <desc>Created with Sketch.</desc>
    <g id="cn.kaiterra/icon" stroke="none" stroke-width="1" fill="none" fill-rule="evenodd">
        <path d="M881.047972,543 C888.379896,543 893.540084,548.806678 892.954799,558.270093 L892.929448,558.63587 L892.929448,938.36413 C892.929448,948.043478 888.473895,954 881.047972,954 C877.644425,954 874.864861,952.748717 872.137296,951.39316 L871.394274,951.021739 L543.911107,761.157609 C532.148446,754.523533 532.030819,742.781218 543.558227,736.044977 L543.911107,735.842391 L871.394274,545.978261 L872.137296,545.60684 C874.864861,544.251283 877.644425,543 881.047972,543 Z M863,585 L580,749 L863,913 L863,585 Z M412.116183,277 C419.44584,277 423.882211,282.800802 424,292.971288 L424,293.380435 L424,672.36413 C424,682.043478 419.543568,688 412.116183,688 C408.711964,688 405.931852,686.748717 403.203749,685.39316 L402.460581,685.021739 L74.9128631,495.157609 C63.1478838,488.523533 63.030234,476.781218 74.5599137,470.044977 L74.9128631,469.842391 L402.460581,279.978261 L403.576139,279.422745 C406.185879,278.140115 408.866701,277 412.116183,277 Z M502.917012,274 C505.647994,274.547005 507.978432,275.094011 510.202059,275.641016 L512.599585,276.23775 L841.062241,466.446461 C852.860083,473.092577 852.978061,484.856203 841.416176,491.604669 L512.599585,682.016334 L511.48091,682.572858 C508.863881,683.857815 506.175571,685 502.917012,685 C496.304278,685 491.141183,679.192857 491,669.726823 L491,669.335753 L491,289.664247 C491,279.967332 495.46888,274 502.917012,274 Z M394,319 L111,483 L394,647 L394,319 Z M521,316 L521,644 L805,480 L521,316 Z M882.116183,6 C889.448346,6 893.885244,11.0791733 894,21.9538135 L894,22.3804348 L894,401.36413 C894,411.043478 889.543568,417 882.116183,417 C878.711964,417 875.931852,415.748717 873.203749,414.39316 L872.460581,414.021739 L544.912863,224.157609 C533.147884,217.523533 533.030234,205.781218 544.559914,199.044977 L544.912863,198.842391 L872.460581,8.97826087 L873.576139,8.42274541 C876.185879,7.14011549 878.866701,6 882.116183,6 Z M864,47 L581,211 L864,375 L864,47 Z" id="Shape" stroke="#000000" stroke-width="9" fill="#000000" fill-rule="nonzero"></path>
    </g>
</svg>