<svg height="960" viewBox="0 0 960 960" width="960" xmlns="http://www.w3.org/2000/svg"><path d="m423.198984 10.547573c37.6527 0 96.918134 5.1803116 133.826525 13.4211183 5.663535 1.2645389 8.546264 1.9129524 11.240806 2.5397062l.732157.1708425.475441.1115074c.397499.0934076.799353.1882808 1.213869.2865241 23.126121 5.4810649 37.375939 10.8034643 51.177543 21.3880703 16.821995 12.9009776 27.568342 30.7500034 34.442301 54.9599682 11.357627 40.001359 19.885829 75.07699 28.636285 124.723735 13.007246 73.798144 20.803865 153.641091 21.546327 239.313565v1.559879c-.021338 8.447311-.657693 25.485974-1.790039 43.725703l-.096869 1.54408c-.049022.773304-.098924 1.54838-.149697 2.324672l-.10004 1.51416-.10223 1.516319-.124317 1.803543c-.524351 7.516283-1.128029 15.0382-1.802961 22.064843-.023169.24095-.023169.24095-.046432.481834-.812483 8.404409-1.791437 17.136729-2.90846 26.100161 14.581317 20.118574 29.152897 45.490581 43.13722 74.064558 12.58271 25.710082 24.051835 52.954734 30.014922 70.237892 7.077593 20.513393 8.08528 46.470332 3.561528 78.109544-.385815 2.698401-1.152404 5.570229-2.428937 8.387228-2.48993 5.494673-6.478995 10.178141-13.013652 12.813689-3.430266 1.383489-6.073215 2.449504-8.166567 3.279882 4.982844 54.344411 8.850001 102.00829 11.600478 143.011623l-20.045698.001212c-2.685712-39.819832-6.427162-85.992742-11.225286-138.500293-1.847372.173178-3.708471.309996-5.48692.392634-3.252188.151116-6.216199.128782-8.97073-.13634-5.440186-.523615-9.878923-1.729381-14.432274-5.318806-4.023276-3.171564-6.107341-6.271852-9.960243-13.022547-.681687-1.194388-5.425909-9.762963-6.877038-12.268759-1.102701-1.904132-2.111203-3.575326-3.067181-5.074132-2.949261-4.623921-5.724104-10.899512-9.322919-20.352649-1.316502-3.458103-2.714493-7.269721-4.509712-12.265286-.161915-.450564-.427804-1.192931-.753994-2.104539l-.255267-.713524c-.375042-1.048481-.805634-2.252873-1.239672-3.466951l-.26042-.728438-.025776-.072101-.146223.671288c-1.379678 6.328345-2.798063 12.77059-4.252393 19.316086-.748609 3.369259-1.507585 6.766794-2.271872 10.17156l-.574133 2.554601-.57565 2.55534c-.169034.749482-.338202 1.498804-.507451 2.247744l-.507937 2.245443c-.084679.373974-.169364.747796-.254049 1.121438l-.508059 2.239472c-7.873253 34.671404-15.630388 67.302515-17.858566 75.363085-5.965877 21.581921-13.998061 32.626962-30.623528 43.742567-16.107068 10.769009-32.681005 18.707835-54.053875 23.399612-18.061562 3.964878-28.177152 4.864897-54.978471 3.118758-.094644 7.537247-.242093 15.548885-.455431 24.880997l-20.005709-.000034c.229022-9.977493.382393-18.427322.476021-26.381521-3.140912-.256298-6.459001-.533228-9.97037-.830257-14.270241-1.20713-24.149918-2.145928-32.279009-3.087033-10.789269-1.249074-19.063745-2.573997-27.556099-4.412818-1.107124-.239722-2.155904-.4719-3.199502-.709628l-.569041-.130299c-.089687-.020643-.179407-.041345-.269194-.062114l-.539794-.125483c-4.689852-1.095629-9.743137-2.417106-19.906343-5.133385-9.23329-2.467745-16.555139-6.845648-25.10079-13.32923-1.9079-1.447523-3.832054-2.982322-5.792366-4.608736-1.171248-.971751-2.651509-2.244037-4.167751-3.566276l-.455679-.397919-.4562-.399413c-.291785-.255782-.582883-.511557-.871363-.765553l-.430513-.379437c-2.711084-2.391839-5.098593-4.543025-5.505662-4.932905l-.047574-.046702.034774.020624-.526332-.453766c-21.57464-18.531195-39.624044-36.323368-45.932778-48.549764l-.187572-.368788c-4.119691-8.220411-5.896711-16.605371-7.402529-29.026903-.923493-7.617924-1.662214-16.520285-2.560585-29.857813l-.001126-.018012c-.028379-.443613-.535345-8.27461-1.09568-16.793349l-.054378-.826316c-.036344-.552009-.072854-1.105981-.109414-1.660116l-.065453-.991405c-.425486-6.440304-.848637-12.757599-1.089762-16.120669-1.452713-20.261635-5.48416-104.119322-9.284051-189.091197l-.473577-10.622768c-3.933037-88.496092-7.487763-175.376273-7.487763-190.018502 0-31.45878 8.684251-50.493266 30.482766-63.631852.788634-.475332 3.333359-1.957993 4.23439-2.49431.065049-.116971.13378-.242785.205502-.376344 1.491643-2.777724 3.212432-6.94809 4.98229-12.264671 3.713961-11.156582 7.243579-26.08851 10.404169-43.677408 2.535656-14.111097 4.638618-35.607344 7.637308-74.714053.222434-2.900817 1.475906-19.405648 1.835724-24.07141 1.789983-23.210727 3.076277-37.7485622 4.537529-49.9415154 3.621172-30.2157276 15.660356-52.432292 38.156555-64.7633417 9.362932-5.1321904 19.206162-7.7983551 30.17729-8.992576 1.047663-.1140394 2.050566-.2131881 3.03959-.2993049l.739648-.0621733.719787-.0561371.72028-.0517928c4.328544-.2980524 8.82911-.3704007 16.119505-.3771907zm-32.380693 867.198004.329201.201251.394748.236055.11374.066907-.057727-.034217.327378.190778c.127162.073135.253674.144897.379498.215238.040434.022604.080458.044873.120411.066996l.021713.011988.031694.017522.136113.074626.036801.020031c.389509.211685.771921.409 1.146023.590401l.371288.176039.021081.009381.065938.030685-.043938-.020685.084019.038983.018981.008017.299418.133704c.118516.051521.236041.101205.352531.148998.053351.021887.106169.043251.158768.064219l.017664.007029.146619.05705.07959.030869-.051407-.019633c.108148.04152.215331.081298.321514.119288l-.049697-.018524.146568.052783-.096871-.034259c.111256.039805.221414.077648.330431.113475l.293975.092528.318148.090394c.403693.107894.802527.214497 1.196717.319838.33668.089972.669672.178944.999412.267013.741211.197968 1.466061.391394 2.175981.580458.29509.078587.587566.156411.87757.233496l.46541.123634.220204.058441.048918.012978c.330451.08766.657723.174348.981981.260085.239252.063261.476979.126034.713131.188298.225008.059327.44861.118196.67084.176611.154918.040722.309325.081263.463082.121585.404423.106057.803827.210461 1.199112.313401l.092041.023962c.202201.052625.403328.104867.603429.156732.722355.18723 1.431792.369658 2.130095.547458.364576.092827.726137.184397 1.084984.274747l.486674.122199c.373885.093617.744946.185912 1.113553.276934.46212.114114.920172.226176 1.375101.336333 1.130235.273678 2.241217.53561 3.344122.787247.037422.008538.074398.016965.111365.02538l-.111365-.02538c1.362528.310873 2.712727.606036 4.071712.88824l.303398.062757c.326745.067321.654088.133906.982321.199793.679442.136385 1.362085.269664 2.051123.400296l.140783.026637.066055.011906.074595.014599-.281433-.053142c.242557.045986.485907.091644.730162.136988l.416396.076836c.334221.061299.670242.122033 1.008347.182237l.17492.031067.211026.037267.216613.038013c.121168.021195.243682.042511.3665.063763l.301242.051893c.123077.021108.246466.042153.370181.063138.247433.041971.49617.083702.746315.125205l.017136.002136.226874.038204c.081487.013423.163126.026823.244921.040199l-.242795-.040403.376555.062235c.127705.020802.255791.041549.384274.062243l.386409.061885c.425263.067722.854955.134886 1.289558.201554l.216108.033048.197856.030079c.506521.076784 1.019821.152931 1.540649.228538.29706.043125.597366.086186.900273.12909.529807.07504 1.067191.149544 1.613268.223662.427843.058068.859932.115756 1.297687.173255l.468538.061188c.179985.023371.360932.046713.542864.070029.395496.050686.795621.101248 1.20065.151722l.700708.086632c.416711.051117.838615.102161 1.265971.153167.115141.013742.231009.027521.347281.041298l.561256.066119c.179503.021025.359965.042048.541403.06307.269058.031175.540695.062399.814546.09363.259903.02964.521442.059246.78502.088866.285387.03207.573165.064156.863398.096266.93196.103108 1.890037.206546 2.875601.310508 1.748267.184418 3.584247.370604 5.518752.559991 1.187088.116216 2.411011.233612 3.67477.352573 1.42983.134592 2.909199.271054 4.44344.410033.540736.048982 1.089046.098346 1.644365.148045.915741.081956 1.850533.164825 2.805169.24871l.149339.013117 1.021378.0894c.755182.065904 1.522562.132449 2.30251.199682.931719.080315 1.880857.161568 2.848538.243884l1.34556.114137c23.076211 1.952033 36.601355 3.00992 46.863834 3.018533l.599959-.000704c9.540658-.030678 16.300427-.99351 25.521989-3.017829 19.211588-4.217332 32.757586-12.473938 40.398221-17.582383 7.542679-5.042953 10.497265-7.593856 14.158658-20.634171l.143021-.5134c.06065-.219406.130694-.478909.20985-.777452.160345-.604589.361326-1.382202.598399-2.315742l.113288-.44711c.222896-.881583.474582-1.887721.753285-3.011757.745913-3.008377 1.684409-6.857361 2.782171-11.422016.512048-2.129163 1.058542-4.413185 1.636227-6.839899.006444-.027081.012894-.054175.019347-.081287.924215-3.882824 1.927973-8.129637 2.997253-12.687797.315514-1.344969.635827-2.713184.961455-4.107014l.201187-.861556c.05553-.237896.111211-.476518.167041-.715862l.533946-2.291534.153986-.661831c.310169-1.333464.624531-2.687476.942806-4.060986l.093928-.405423c.260892-1.126295.524383-2.26556.790319-3.41722.122084-.528658.243998-1.056996.366407-1.587862.407931-1.769157.821872-3.568588 1.240785-5.394139l.371109-1.618351-.000165-.002864.005-.018.009-.042.01-.042.017-.077.038-.165.018-.079.007-.03.004-.016.005-.022.001-.006.042-.184.001-.005.045-.195.149392-.650027c.234848-1.026304.471124-2.060252.708736-3.101499.114226-.500496.228355-1.000955.34278-1.503052l.290993-1.277656c.62133-2.729486 1.251079-5.505894 1.887657-8.323251l.16267-.720107c.474946-2.103374.953604-4.229177 1.435317-6.374944.006903-.030831.01407-.06276.021239-.094694.383158-1.706909.768242-3.426422 1.154921-5.157297.295827-1.3241.59294-2.656526.890842-3.99506l.130061-.584655c1.566156-7.041029 3.153454-14.248402 4.740364-21.541284.548751-2.521733 1.097259-5.052911 1.644831-7.590966l.034197-.163508.065-.301.044592-.202357-.143789.666865c.356817-1.653885.713236-3.31069 1.069012-4.969491.669638-3.12234 1.336882-6.251065 2.000208-9.380703l.03391-.160007c1.269192-5.98944 2.52393-11.981843 3.752721-17.934056l.273742-1.327422c.05962-.289416.119175-.578729.178666-.867935 1.545944-7.515344 3.048112-14.957892 4.483245-22.240313l.244281-1.241329c.273022-1.389359.543544-2.772678.811402-4.149346.258418-1.327996.514371-2.650034.767698-3.965331l.424937-2.213024c3.298423-17.228677 6.12673-33.233615 8.150536-46.759334.138589-.926237 1.993501-11.875854 4.224301-27.453106l.220587-1.546923c1.330234-9.368795 2.776079-20.287749 4.06201-31.647765l.038941-.350423.305628-2.739938c.402163-3.663615.785341-7.36224 1.140462-11.059359 3.256545-33.903502 3.956466-67.717559 3.98008-71.609529l.000306-.274364c-1.610468-186.836717-38.000799-315.918216-48.659134-353.456683-10.900169-38.3902039-30.210507-42.5664506-69.519551-51.3432685-3.144724-.7021455-6.419144-1.3716901-9.795813-2.0093564l-1.27099-.2374631c-38.695493-7.1618259-90.176907-10.2055508-114.043257-10.2055508h-1.568104c-25.520237.0153266-46.415775.7663324-46.415775 38.3166196 0 7.2144265 1.765111 121.5857582 3.086426 238.1476452l.142277 12.719485c1.005511 91.146241 1.690659 181.29836.999857 220.295217-5.122147 289.152963-.955096 308.714435 5.948191 313.943829l.024544.018586.036476.027602c.376367.284662.752646.565137 1.12803.840399l.562304.408853c.272007.196065.543327.389106.813651.578727.317849.222955.634053.441001.948379.653689.119778.081049.239775.161648.359469.241426.317391.211542.632159.417001.944279.616045.107976.068857.215319.136748.322326.203848l.082939.051541.026046.016598.034954.021402-.036-.022.035758.022216.074184.046059.068058.041725zm-33.59552-638.821097-.163983.953034-.189975 1.074492c-6.363712 35.414494-15.670566 69.383353-28.467421 79.50349-12.796856 10.120137-21.211139 6.082704-21.211139 35.866709 0 29.784004 14.368273 348.171919 17.142975 386.8719 2.774701 38.699981 3.840974 71.451997 8.241908 80.233599.099678.198896.21763.411762.353069.637911.048043.080227.098588.162606.151324.246645.035309.056262.071251.112728.108146.169914.172689.267644.365839.550504.578718.848161l.049872.069504c.044671.062051.090183.124733.136526.188037.583014.79639 1.297721 1.691351 2.1253 2.66839.52756.622832 1.100756 1.278761 1.714932 1.963777.426856.476091.873489.966212 1.338286 1.468958l.21227.229119c.335593.361482.680312.729283 1.033564 1.102888.219526.232176.443113.467394.669874.704743.454689.475921.922409.960683 1.40175 1.45301.587205.603114 1.191905 1.217637 1.811917 1.841652l.229455.23067.579563.580306c.467012.466307.941864.937346 1.4237 1.41237.189296.18662.379505.373693.570737.561334.316458.310513.63518.622058.956464.93495l.372682.362437c.134982.131089.270395.262399.406222.393915l.0941.091083c.172933.16733.346528.334989.520752.502945.342355.330039.687027.661124 1.033858.993127l.224622.214858.363813.347327c.222483.212151.445993.424821.670251.637751l.325416.308663c.258798.245225.518543.490756.779129.7365.198925.187596.398243.375223.598003.562934l.926195.867967c.512389.478885 1.027195.957907 1.543647 1.436394.075303.069768.150369.139271.225466.208762l1.507585 1.389257.941997.862306c.218454.199466.436965.398634.655476.597453-.575657-7.457338-.965233-16.38321-1.292401-27.170118-1.346849-44.406368-.921642-126.039565 1.529386-264.403807.180278-10.176954.27111-24.03207.278933-41.288583l-.000231-5.464363c-.021768-42.106746-.496287-102.757694-1.340602-178.384716-.271217-24.293438-.576489-49.741654-.914001-76.409155-.071618-5.658674-.155549-12.146031-.24813-19.2085zm401.517303 523.579563-.502222.172102c-14.169858 4.859553-25.19951 8.249679-33.175136 10.184827-6.587439 1.598328-14.290382 2.982071-23.12599 4.160771 6.165047 10.007292 11.484038 21.446651 14.358115 23.712297 3.038469 2.395237 16.701628.760199 21.524682 0 2.900049-.457098 7.988125-2.60645 15.339905-5.571558 2.113532-.852427 2.918548-4.041063 3.124784-5.483481 1.390689-9.726505 2.20931-18.784824 2.455862-27.174958zm-63.444945-162.665119-.21293 1.428701c-.335419 2.239932-.673088 4.456969-1.012253 6.64913-.176386 1.140054-.370882 2.381329-.567275 3.625286l-.090718.573966c-.589777 3.727348-1.174165 7.342394-1.315358 8.184588l-.024516.143919c-.005417.030759-.008012.043899-.007586.038209l-.145631.9637c-3.469334 22.954772-9.180681 53.256362-16.519399 88.534855 2.810267 6.87562 5.618203 14.473635 8.341703 22.03l.589393 1.638093c3.092476 8.608673 6.067295 17.091196 8.801775 24.312394 10.849565-1.251559 19.9317-2.769808 27.214555-4.536867 7.854359-1.905724 19.465105-5.516178 34.724149-10.813241.994821-.345345 2.007108-.524452 3.006586-.551991-.815014-7.830581-2.302679-14.876047-4.462609-21.136296-7.536842-21.844461-30.671946-77.222377-58.319886-121.084446z"/></svg>