<svg height="960" viewBox="0 0 960 960" width="960" xmlns="http://www.w3.org/2000/svg"><path d="m822.737244 490.847678c11.018707.771668 19.325574 10.329656 18.553905 21.348363-8.148787 116.357111-72.836371 222.044382-175.772651 281.474671-168.914485 97.522823-384.904598 39.648447-482.427421-129.266038-2.413064-4.17955-4.736532-8.397756-6.96987-12.652648l-25.036512 72.861923c-3.58954 10.446175-14.967735 16.004577-25.41391 12.415037-10.446176-3.58954-16.004577-14.967735-12.415037-25.413911l41.295904-120.178153c3.504354-10.19827 14.462862-15.782133 24.773347-12.623157l125.023934 38.305436c10.561117 3.235766 16.499488 14.42035 13.263722 24.981467-3.235767 10.561117-14.42035 16.499488-24.981467 13.263721l-82.718486-25.342907c2.475394 4.846558 5.08213 9.642117 7.819391 14.383192 86.477128 149.78278 278.003625 201.10215 427.786405 114.625022 91.298575-52.711257 148.640897-146.397759 155.870383-249.628113.771668-11.018707 10.329656-19.325573 21.348363-18.553905zm-401.595108-100.989814c7.810485 7.810486 7.810485 20.473786 0 28.284272-38.581434 38.581433-38.581434 101.134295 0 139.715728 38.581433 38.581434 101.134295 38.581434 139.715728 0 38.581434-38.581433 38.581434-101.134295 0-139.715728-7.810485-7.810486-7.810485-20.473786 0-28.284272 7.810486-7.810485 20.473786-7.810485 28.284272 0 54.202404 54.202405 54.202404 142.081867 0 196.284272-54.202405 54.202404-142.081867 54.202404-196.284272 0-54.202404-54.202405-54.202404-142.081867 0-196.284272 7.810486-7.810485 20.473786-7.810485 28.284272 0zm69.731498-69.792933c11.045695 0 20 8.954305 20 20v104.938518c0 11.045695-8.954305 20-20 20s-20-8.954305-20-20v-104.938518c0-11.045695 8.954305-20 20-20zm312.22271 6.382685 25.215638-73.398138c3.58954-10.446175 14.967735-16.004577 25.413911-12.415037 10.446175 3.58954 16.004576 14.967735 12.415037 25.413911l-41.295905 120.178153c-2.710442 7.88785-9.880142 13.015248-17.760249 13.471983-4.63832.64556-9.257599-.380541-13.113453-2.717722l-118.923579-36.43654c-10.561117-3.235766-16.499487-14.42035-13.263721-24.981467s14.420349-16.499487 24.981467-13.263721l82.151631 25.167362c-75.932651-150.302204-258.077753-214.120312-411.784792-142.445542-95.545246 44.553479-160.834679 132.885763-177.033773 235.093203-1.729076 10.909523-11.974684 18.351745-22.884206 16.62267-10.909522-1.729076-18.351745-11.974684-16.622669-22.884206 18.258968-115.204123 91.91165-214.851328 199.635918-265.083979 172.327222-80.3575033 376.351234-9.695961 462.868745 157.67907z"/></svg>