<?xml version="1.0" encoding="UTF-8"?>
<svg width="960px" height="960px" viewBox="0 0 960 960" version="1.1" xmlns="http://www.w3.org/2000/svg" xmlns:xlink="http://www.w3.org/1999/xlink">
    <title>cloud.shelly/drivers/blu_h_t/assets/icon</title>
    <g id="cloud.shelly/drivers/blu_h_t" stroke="none" stroke-width="1" fill="none" fill-rule="evenodd">
        <path d="M232.67628,3.57486088 L235.406358,3.87478803 L783.755763,26.5507172 C851.515176,29.3527019 905.147502,84.570492 906.213372,152.142325 L906.229542,154.193696 L906.229542,815.090235 C906.229542,884.338229 851.058361,940.978638 781.834276,942.798192 L231.921327,957.252641 C229.891216,957.306002 227.864035,957.311564 225.841064,957.26953 L225.518358,957.260788 L224.824339,957.297953 C222.74766,957.389529 220.6666,957.319104 218.600092,957.087134 L217.825871,956.992573 L213.033358,956.358788 L212.343229,956.275226 C211.975724,956.228504 211.608504,956.180191 211.241578,956.13029 L210.457358,956.019788 L157.387168,948.998418 C98.8152279,941.251177 54.8970981,891.732359 54.0245927,832.836414 L54.0113583,831.048851 L54.0113583,128.393284 C54.0113583,67.3775104 100.168566,16.2517841 160.865839,10.0356015 L211.165358,4.88378803 L211.710641,4.80810911 C214.18198,4.48140143 216.666312,4.22656861 219.161153,4.04424437 L219.721358,4.00678803 L224.257565,3.54347473 C227.057095,3.25777193 229.878959,3.26829223 232.67628,3.57486088 Z M228.564527,43.7016502 C226.237773,43.7016502 223.93217,43.7922066 221.65105,43.9699873 C221.452497,43.9854599 221.253361,44.0016585 221.054414,44.0185208 L221.65105,43.9699873 C221.191694,44.0057875 220.73333,44.0451248 220.275987,44.0879719 L221.054414,44.0185208 C220.611452,44.0560654 220.169427,44.0969005 219.728365,44.1410015 L220.275987,44.0879719 C219.759938,44.136319 219.245187,44.1891348 218.731774,44.2463802 L219.728365,44.1410015 C219.312791,44.182554 218.898071,44.227006 218.484226,44.2743368 L218.731774,44.2463802 C218.235759,44.3016859 217.740992,44.3611261 217.247509,44.4246655 L218.484226,44.2743368 C217.991183,44.3307254 217.499382,44.3912001 217.008857,44.4557262 C174.005944,50.1127291 140.81246,86.9068461 140.81246,131.453716 L140.81246,829.544684 C140.81246,830.313371 140.822561,831.082026 140.842759,831.850448 C141.998657,875.826069 175.314695,911.393337 217.687328,916.632154 C217.819557,916.648503 217.951964,916.664566 218.084458,916.680334 L217.687328,916.632154 C220.487329,916.978337 223.326877,917.192088 226.199306,917.26708 C226.384586,917.271917 226.569991,917.276177 226.755532,917.279858 L226.199306,917.26708 C226.709232,917.280393 227.220194,917.289333 227.732155,917.293865 L226.755532,917.279858 C227.690315,917.298402 228.628525,917.30225 229.569933,917.291187 L228.946489,917.296338 C229.586275,917.293285 230.227567,917.283346 230.870291,917.266452 L780.78324,902.812003 C828.332815,901.562163 866.229542,862.656233 866.229542,815.090235 L866.229542,154.193696 C866.229542,107.139879 829.116735,68.4606675 782.103097,66.5165613 L232.190148,43.7765815 L230.98198,43.7349553 C230.176373,43.7127535 229.370478,43.7016502 228.564527,43.7016502 Z M156.783683,51.0905037 L156.629922,51.1241501 C120.51117,58.7371232 94.0113583,90.7261629 94.0113583,128.393284 L94.0113583,831.048851 C94.0113583,867.892744 119.397401,899.434799 154.54349,907.846091 C134.456175,888.858306 121.633351,862.190968 120.849664,832.375966 C120.824863,831.432409 120.81246,830.488567 120.81246,829.544684 L120.81246,131.453716 C120.81246,99.5151667 134.708165,70.8221326 156.783683,51.0905037 Z M535.119968,155.161392 C536.200928,155.161392 537.281863,155.171878 538.36262,155.19285 L540.637967,155.237002 C630.340959,156.977649 702.772101,227.708108 707.700905,316.213735 C707.886515,319.401699 707.98078,322.613233 707.98078,325.845932 L707.98078,625.662903 C707.98078,628.851172 707.889088,632.018853 707.708081,635.163698 C702.843875,723.730617 630.385406,794.530324 540.637967,796.271833 L538.36262,796.315985 C535.903992,796.363694 533.456735,796.358065 531.021954,796.300163 L529.847982,796.316378 C433.204127,798.091067 352.91152,725.000226 351.014248,632.472903 C350.991937,631.384818 350.98078,630.29655 350.98078,629.208256 L350.98078,322.30058 C350.98078,229.737932 429.786571,155.161392 526.46426,155.161392 C527.592245,155.161392 528.720205,155.171747 529.847982,155.192457 L531.06759,155.209556 C532.414498,155.177507 533.765351,155.161392 535.119968,155.161392 Z M387.98078,322.30058 L387.98078,629.208256 C387.98078,630.159867 387.990012,631.111457 388.008474,632.062889 C389.539843,710.980894 452.931025,774.179159 531.02231,776.293361 L531.885163,776.275597 C615.731326,774.735915 683.401321,712.050538 687.757839,633.701055 C687.897515,631.039158 687.968423,628.359179 687.968423,625.662903 L687.968423,325.845932 C687.968423,323.120362 687.895966,320.411445 687.752857,317.721024 C683.351361,239.412028 615.700377,176.772352 531.885163,175.233238 L531.121848,175.21466 C451.707452,177.333175 387.98078,242.374796 387.98078,322.30058 Z M533.502957,275.131415 C569.987521,275.131415 598.110257,308.325464 598.110257,347.782654 C598.110257,387.239845 569.987521,420.433894 533.502957,420.433894 C497.018393,420.433894 468.895657,387.239845 468.895657,347.782654 C468.895657,308.325464 497.018393,275.131415 533.502957,275.131415 Z M533.502957,295.131415 C525.529388,295.131415 518.044446,297.600738 511.567096,301.92684 C513.650462,301.616458 515.769158,301.457034 517.912746,301.457034 C544.474504,301.457034 564.553217,325.156499 564.553217,352.901525 C564.553217,373.829143 553.129559,392.455064 536.116754,400.344915 C559.535941,398.74804 578.110257,375.825634 578.110257,347.782654 C578.110257,318.704178 558.138889,295.131415 533.502957,295.131415 Z M517.912746,321.457034 C511.878726,321.457034 506.31325,323.824862 501.846434,327.816309 C498.635709,333.804566 496.777092,340.903052 496.777092,348.513922 C496.777092,364.663754 505.145777,378.506505 517.043669,384.3296 C517.332226,384.340516 517.621942,384.346015 517.912746,384.346015 C532.625872,384.346015 544.553217,370.267837 544.553217,352.901525 C544.553217,335.535212 532.625872,321.457034 517.912746,321.457034 Z" id="Combined-Shape" fill="#000000" fill-rule="nonzero"></path>
    </g>
</svg>