<svg height="960" viewBox="0 0 960 960" width="960" xmlns="http://www.w3.org/2000/svg"><path d="m873.450999 269.263136c57.321863 88.794926 86.82883 185.717581 85.519719 277.377428-1.294555 90.640719-32.755022 171.997785-90.767641 230.70614l-1.275077 1.278723-.694705.927137c-15.37172 20.423038-31.413522 38.912834-48.14157 55.455472l-1.395593 1.374046-.507232.495884c-.507497.494822-1.016095.986731-1.52852 1.478145l-.513801.491339c-.415547.396252-.834175.792708-1.257313 1.190636l-.510022.478301c-.170791.159724-.342394.319764-.514902.480202l-.52033.482591c-7.150775 6.613939-15.976311 14.033496-32.785564 27.857065-15.333204 12.609697-25.221553 20.804672-34.162473 28.425378l-.862444.735823c-1.146384.979052-2.279409 1.950606-3.408738 2.922911l-1.692427 1.460053c-.564024.487559-1.128331.976338-1.69413 1.467368l-.849967.738361c-2.128468 1.850768-4.286399 3.740436-6.537481 5.723389l-.427788.375899-.067516.078169c-.112006.128622-.239142.276153-.380079.441443l-.145489.171168c-1.217246 1.436463-2.896792 3.523546-4.981078 6.201762-.306541.393891-.620428.782011-.941495 1.164155-9.319826 11.092737-21.921994 17.798614-38.222637 22.791556-12.118155 3.711831-27.016801 6.57454-45.023395 8.793777-33.665486 4.149131-79.518514 6.172543-137.963488 6.172543-99.423596 0-179.302227-5.862364-240.073873-17.803795-25.385117-4.988144-48.891652-16.912603-67.911379-34.450519-25.862029-23.848129-44.480556-43.210202-56.280985-58.832228-13.523507-17.903125-29.702288-42.15266-48.7095313-72.928987-.1909737-.309223-.3777241-.621034-.5601993-.935347-67.9387351-117.024175-87.07064656-238.19618-56.608976-361.380498 29.4623333-119.143087 85.5750726-225.975129 168.0439836-320.0384139 4.156756-4.7411583 9.166878-8.2526743 14.586801-10.5232168l.166336-.0685685.981019-.824879c19.013758-15.9191198 40.142244-29.5255341 63.174482-40.6172858l1.412514-.6759431c190.316373-90.4978424 454.316961 14.9145084 594.032984 231.3428171zm-741.858932-11.30102-.947133 1.815547c-26.548458 50.545135-46.8023506 104.042849-60.7616784 160.493144-27.9186556 112.90059-10.4614749 223.465683 52.3715424 331.695281 18.405647 29.80223 33.937084 53.081494 46.594309 69.837791 10.065755 13.325572 27.225806 31.170638 51.479615 53.535781 13.585085 12.526683 30.375468 21.044153 48.507694 24.607114 57.857633 11.368836 135.311439 17.053226 232.361407 17.053226 113.899584 0 177.427566-7.829559 190.583946-23.488678 4.797111-6.164079 8.041761-9.993067 9.733951-11.486965 31.418023-27.736443 58.200089-48.442111 76.279066-64.218676l-3.14301 1.533488c-41.481075 19.724776-86.837518 29.555995-133.730939 30.462923l-6.125057.067764c-155.379194.438604-326.430107-96.104436-428.785366-254.658732-72.818316-112.799841-96.431024-234.91074-74.418347-337.249008zm297.691622-212.5005083-5.829711.0422574c-44.626972.6937431-87.669198 9.9053261-126.858582 28.5403737-3.392742 1.6132918-6.731026 3.2850469-10.014651 5.0138827-.027527.0144929-.054505.0287029-.081479.0429167l.081479-.0429167c-1.621271.8536028-3.229217 1.7211209-4.823815 2.602388l4.742336-2.5594713c-1.678838.884638-3.343379 1.7842022-4.993597 2.6985079l.251261-.1390366c-1.650165.9119769-3.286034 1.8386777-4.907582 2.779918l4.656321-2.6408814c-1.594851.8836289-3.176323 1.7810266-4.744393 2.6920261l.088072-.0511447c-1.594268.9254054-3.174691 1.8648652-4.741245 2.8182041l4.653173-2.7670594c-1.596528.9275326-3.179164 1.8691652-4.74788 2.8247218l.094707-.0576624c-3.117401 1.8971195-6.179878 3.8492001-9.187232 5.854861-.046016.0306884-.092286.0615684-.138544.0924611l.138544-.0924611c-1.522794 1.0155793-3.031454 2.0448964-4.525954 3.087772l4.38741-2.9953109c-1.503101 1.0038339-2.992415 2.0210623-4.467918 3.0515126l.080508-.0562017c-1.472738 1.0276891-2.931725 2.0685446-4.376938 3.1223951l4.29643-3.0661934c-1.497316 1.0456842-2.98041 2.104984-4.449254 3.1777189l.152824-.1115255c-1.46065 1.0651073-2.90723 2.1434883-4.339713 3.2349673l4.186889-3.1234418c-1.451305 1.0599248-2.888698 2.1329668-4.312156 3.2189498l.125267-.095508c-1.436068 1.094209-2.857969 2.201581-4.265678 3.321938l4.140411-3.22643c-1.415 1.07953-2.816228 2.171849-4.203662 3.276786l.063251-.050356c-1.389547 1.105902-2.765266 2.224455-4.127131 3.355488l4.06388-3.305132c-1.397628 1.113055-2.781257 2.238915-4.150861 3.377403l.086981-.072271c-1.376309 1.143028-2.738468 2.298802-4.086452 3.467144l3.999471-3.394873c-1.368748 1.137776-2.72349 2.288166-4.064199 3.450994l.064728-.056121c-1.329348 1.152189-2.64491 2.316601-3.946663 3.493067l3.881935-3.436946c-1.356969 1.17693-2.699564 2.366603-4.027758 3.568837l.145823-.131891c-113.102645 102.217114-121.953723 295.424823-10.438996 468.167671 98.526341 152.623078 262.657224 245.346461 410.561447 245.495905l5.82971-.042257c44.626973-.693743 87.669199-9.905326 126.858583-28.540374 28.73597-13.664317 53.565189-31.522678 74.366208-52.735087.444141-.452922.887034-.907982 1.328083-1.364566l-1.328083 1.364566c1.146355-1.169027 2.280475-2.34824 3.402341-3.5375l-2.074258 2.172934c1.165949-1.207016 2.319021-2.424689 3.459194-3.652868l-1.384936 1.479934c1.164008-1.233933 2.314823-2.478681 3.452422-3.734087l-2.067486 2.254153c1.105928-1.19129 2.19972-2.392463 3.281357-3.603382l-1.213871 1.349229c1.264463-1.395407 2.512598-2.803981 3.744375-4.225508l-2.530504 2.876279c1.085186-1.214894 2.158137-2.439597 3.218832-3.673969l-.688328.79769c1.288099-1.486525 2.55831-2.987213 3.810597-4.501819l-3.122269 3.704129c1.359421-1.582012 2.698712-3.179907 4.017829-4.793392l-.89556 1.089263c1.050342-1.27036 2.088075-2.55051 3.113177-3.840304l-2.217617 2.751041c1.108876-1.356327 2.203497-2.72367 3.283838-4.101854l-1.066221 1.350813c1.020047-1.283434 2.027587-2.576417 3.0226-3.878806l-1.956379 2.527993c1.038326-1.324588 2.063461-2.65919 3.075383-4.003651l-1.119004 1.475658c1.01295-1.325867 2.012917-2.661482 2.999879-4.006695l-1.880875 2.531037c.989136-1.314188 1.965646-2.637797 2.92951-3.97068l-1.048635 1.439643c1.054977-1.437915 2.095096-2.886796 3.120329-4.346458l-2.071694 2.906815c.955875-1.321836 1.899313-2.652795 2.830292-3.992734l-.758598 1.085919c1.179214-1.67889 2.338735-3.372043 3.478524-5.079177l-2.719926 3.993258c1.153087-1.659614 2.287062-3.333005 3.401888-5.019905l-.681962 1.026647c.915992-1.371939 1.819239-2.752909 2.709721-4.142763l-2.027759 3.116116c.987482-1.494211 1.959939-2.99902 2.917344-4.514242l-.889585 1.398126c.886428-1.383527 1.760206-2.775857 2.621314-4.176847l-1.731729 2.778721c.911437-1.442471 1.809233-2.894379 2.693363-4.355562l-.961634 1.576841c.869736-1.415026 1.726546-2.838887 2.570408-4.271434l-1.608774 2.694593c.853895-1.411212 1.695044-2.831076 2.523425-4.259447l-.914651 1.564854c.87565-1.486507 1.737358-2.982367 2.585102-4.487413l-1.670451 2.922559c.82617-1.424557 1.63964-2.857575 2.440391-4.298911l-.76994 1.376352c1.867766-3.315949 3.667745-6.676493 5.399681-10.079858.222543-.437307.44448-.876352.665288-1.316103l-.665288 1.316103c.746889-1.467686 1.481124-2.943335 2.202684-4.426806l-1.537396 3.110703c.784457-1.56229 1.554661-3.133498 2.310587-4.713453l-.773191 1.60275c.716526-1.473122 1.420554-2.953957 2.112063-4.442365l-1.338872 2.839615c.737358-1.541144 1.461131-3.090612 2.171297-4.648246l-.832425 1.808631c.7169-1.54306 1.420345-3.09426 2.110312-4.653445l-1.277887 2.844814c.679777-1.490983 1.347087-2.989447 2.001909-4.495256l-.724022 1.650442c.786656-1.77768 1.555792-3.565739 2.307375-5.363948l-1.583353 3.713506c.657521-1.512016 1.302452-3.031437 1.934772-4.558123l-.351419.844617c.760169-1.818749 1.502381-3.647881 2.226604-5.487158l-1.875185 4.642541c.789488-1.906156 1.559316-3.823637 2.309445-5.752171l-.43426 1.10963c.609758-1.548575 1.206762-3.104343 1.790994-4.66716l-1.356734 3.55753c.675233-1.73598 1.334505-3.480916 1.977786-5.234609l-.621052 1.677079c.581212-1.554741 1.149783-3.116459 1.705692-4.685015l-1.08464 3.007936c.587715-1.602211 1.162083-3.211731 1.723082-4.82841l-.638442 1.820474c.574203-1.620174 1.134897-3.247644 1.68206-4.882254l-1.043618 3.06178c.551947-1.590591 1.090952-3.18811 1.616995-4.792414l-.573377 1.730634c.577482-1.725186 1.139892-3.458325 1.687203-5.199239l-1.113826 3.468605c.523811-1.597496 1.034769-3.20172 1.532855-4.812528l-.419029 1.343923c.641447-2.040343 1.262154-4.091363 1.862081-6.152769l-1.443052 4.808846c.602063-1.947071 1.185318-3.903763 1.749728-5.869824l-.306676 1.060978c.469084-1.611817.925463-3.229983 1.369117-4.85436l-1.062441 3.793382c.530482-1.847877 1.044318-3.70403 1.541475-5.568251l-.479034 1.774869c.450054-1.647812.887014-3.302014 1.310858-4.962462l-.831824 3.187593c.449699-1.686261.885752-3.379123 1.308138-5.078432l-.476314 1.890839c.426343-1.670238.839415-3.346794 1.239194-5.029522l-.76288 3.138683c.418261-1.682718.823121-3.371757 1.214557-5.066967l-.451677 1.928284c.416594-1.753503.818754-3.513707 1.206456-5.280445l-.754779 3.352161c.379292-1.642618.745981-3.29103 1.100045-4.9451l-.345266 1.592939c.848508-3.866607 1.627764-7.764508 2.337514-11.691948.103048-.570225.204581-1.140788.304649-1.711967l-.304649 1.711967c.305444-1.690189.598015-3.385849.877693-5.086839l-.573044 3.374872c.30996-1.769216.605869-3.544349.887704-5.325239l-.31466 1.950367c.28624-1.740903.558975-3.48739.818183-5.239311l-.503523 3.288944c.274267-1.733068.535206-3.471589.782794-5.215415l-.279271 1.926471c.263934-1.783857.513843-3.573348.749705-5.368314l-.470434 3.441843c.246274-1.734563.47934-3.474376.699176-5.219293l-.228742 1.77745c.287901-2.191.554872-4.390158.800871-6.597186l-.572129 4.819736c.216341-1.717171.419871-3.439285.610568-5.166205l-.038439.346469c.20824-1.86826.401453-3.74216.579612-5.621524l-.541173 5.275055c.254969-2.308945.486999-4.626481.696043-6.952278l-.15487 1.677223c.165746-1.748423.318464-3.501575.458134-5.259317l-.303264 3.582094c.163754-1.821905.313403-3.648879.448924-5.480764l-.14566 1.89867c.141873-1.785481.270283-3.575697.385207-5.370501l-.239547 3.471831c.133026-1.798171.252441-3.601074.358221-5.408559l-.118674 1.936728c.116888-1.82547.219827-3.655686.308792-5.490492l-.190118 3.553764c.104986-1.793934.196543-3.592381.274647-5.395195l-.084529 1.841431c.094296-1.944725.172895-3.894607.235771-5.849461l-.151242 4.00803c.077557-1.790175.14185-3.584656.192858-5.3833l-.041616 1.37527c.071701-2.229228.122955-4.464923.153723-6.70681l-.112107 5.33154c.063373-2.234631.106241-4.475688.128563-6.722896l-.016456 1.391356c.024743-1.802932.036237-3.609868.034462-5.420666l-.018006 4.02931c.019539-1.966946.023337-3.938605.011368-5.914791l.006638 1.885481c-.001803-1.837921-.017276-3.679821-.04644-5.525551l.039802 3.64007c-.011239-1.85588-.036385-3.715753-.075458-5.579467l.035656 1.939397c-.029195-1.8476-.072109-3.699037-.128764-5.554163l.093108 3.614766c-.038795-1.850462-.09132-3.704711-.157597-5.562596l.064489 1.94783c-.059144-1.936606-.133262-3.877232-.22238-5.821707l.157891 3.873877c-.06532-1.831063-.143998-3.66566-.236054-5.503645l.078163 1.629768c-.108699-2.371695-.239712-4.749117-.393084-7.131958l.314921 5.50219c-.100159-1.999761-.216154-4.003533-.348014-6.011134l.033093.508944c-.118692-1.844038-.250775-3.691321-.396269-5.541706l.363176 5.032762c-.146433-2.22949-.31243-4.463702-.498027-6.702382l.134851 1.66962c-.146092-1.857995-.305707-3.719118-.478865-5.583223l.344014 3.913603c-.162141-1.955744-.339241-3.914898-.531325-5.877294l.187311 1.963691c-.17279-1.860152-.359066-3.723274-.558848-5.589223l.371537 3.625532c-.186375-1.904079-.386857-3.81121-.601467-5.72124l.22993 2.095708c-.211914-1.979255-.439024-3.961691-.681355-5.947135l.451425 3.851427c-.2062-1.835187-.425444-3.673051-.65775-5.513454l.206325 1.662027c-.524083-4.29386-1.119358-8.601792-1.786076-12.922058-.087548-.567304-.17636-1.135025-.266405-1.702954l.266405 1.702954c-.28729-1.86161-.587845-3.725511-.901685-5.591564l.63528 3.88861c-.317713-2.003855-.650779-4.010312-.999225-6.019196l.363945 2.130586c-.320903-1.908044-.655696-3.818338-1.004401-5.730733l.640456 3.600147c-.330308-1.904319-.674437-3.81082-1.032406-5.719356l.39195 2.119209c-.355826-1.951455-.726138-3.905097-1.110959-5.860769l.719009 3.74156c-.354259-1.888754-.722074-3.7795-1.103465-5.672096l.384456 1.930536c-.420623-2.137623-.85858-4.277671-1.3139-6.419938l.929444 4.489402c-.380838-1.889849-.775212-3.781543-1.183144-5.674939l.2537 1.185537c-.489523-2.303186-.999115-4.608938-1.528814-6.916998l1.275114 5.731461c-.502257-2.331201-1.025066-4.664984-1.568466-7.001082l.293352 1.269621c-.430033-1.873787-.873319-3.749095-1.329877-5.625789l1.036525 4.356168c-.500673-2.152413-1.018825-4.306792-1.554487-6.46293l.517962 2.106762c-.462192-1.899851-.937985-3.801122-1.427401-5.70367l.909439 3.596908c-.477768-1.923102-.969465-3.847603-1.475113-5.773356l.565674 2.176448c-.500627-1.94613-1.015508-3.893596-1.544664-5.842246l.97899 3.665798c-.508018-1.934781-1.030119-3.870826-1.566322-5.807984l.587332 2.142186c-.552103-2.033155-1.119746-4.067598-1.702955-6.103158l1.115623 3.960972c-.524072-1.893331-1.061616-3.787725-1.612653-5.683044l.49703 1.722072c-.713544-2.490463-1.450387-4.982597-2.210576-7.476086l1.713546 5.754014c-.602029-2.070711-1.220163-4.142526-1.854429-6.215263l.140883.461249c-.576063-1.889536-1.165532-3.779851-1.768426-5.670805l1.627543 5.209556c-.728301-2.380036-1.477871-4.761288-2.24875-7.143482l.621207 1.933926c-.60859-1.908818-1.230861-3.818288-1.866834-5.728269l1.245627 3.794343c-.650726-2.010894-1.316637-4.022459-1.997756-6.034529l.752129 2.240186c-.643799-1.933487-1.301639-3.867498-1.973541-5.801885l1.221412 3.561699c-.648185-1.914782-1.310144-3.830022-1.985895-5.745576l.764483 2.183877c-.699095-2.012676-1.413414-4.025759-2.14298-6.039085l1.378497 3.855208c-.673284-1.908559-1.360261-3.81743-2.060952-5.726472l.682455 1.871264c-.879555-2.427238-1.781271-4.854829-2.705189-7.28248l2.022734 5.411216c-.698979-1.904382-1.411606-3.808934-2.137899-5.713516l.115165.3023c-.772157-2.028888-1.559821-4.057819-2.363017-6.086623l2.247852 5.784323c-.92917-2.436596-1.88071-4.873242-2.854659-7.309645l.606807 1.525322c-.767681-1.939095-1.549551-3.878075-2.345632-5.816791l1.738825 4.291469c-.827053-2.068928-1.670265-4.13768-2.529664-6.206077l.790839 1.914608c-.780821-1.901556-1.575313-3.802859-2.383497-5.703769l1.592658 3.789161c-.813844-1.958757-1.642204-3.917196-2.485102-5.875163l.892444 2.086002c-.845867-1.989546-1.706732-3.978661-2.582618-5.967187l1.690174 3.881185c-.825749-1.918134-1.665451-3.835816-2.519126-5.752902l.828952 1.871717c-.976418-2.216765-1.971503-4.432796-2.985287-6.647873l2.156335 4.776156c-.849428-1.907552-1.712691-3.814514-2.589809-5.720745l.433474.944589c-1.030971-2.25263-2.081279-4.504273-3.15096-6.754694l2.717486 5.810105c-1.107916-2.407823-2.237938-4.81448-3.390106-7.219687l.67262 1.409582c-.884535-1.860908-1.782316-3.72098-2.693362-5.580086l2.020742 4.170504c-1.047322-2.186336-2.112944-4.371474-3.196896-6.555199l1.176154 2.384695c-.928651-1.895032-1.871085-3.789059-2.827323-5.681943l1.651169 3.297248c-.942475-1.898708-1.898808-3.796348-2.869019-5.69278l1.21785 2.395532c-1.013623-2.006481-2.042756-4.011677-3.087423-6.015422l1.869573 3.61989c-.956365-1.869367-1.926214-3.73756-2.909567-5.604444l1.039994 1.984554c-1.127951-2.16349-2.274011-4.325289-3.43821-6.485186l2.398216 4.500632c-.999691-1.897901-2.013338-3.794448-3.040962-5.689502l.642746 1.18887c-1.249638-2.318409-2.520176-4.634629-3.81165-6.948399l3.168904 5.759529c-1.180514-2.177002-2.379475-4.352032-3.596911-6.524877l.428007.765348c-1.040795-1.864661-2.095188-3.727731-3.163199-5.589075l2.735192 4.823727c-1.268343-2.2637-2.556739-4.525028-3.865224-6.783741l1.130032 1.960014c-1.102833-1.922034-2.220186-3.842228-3.352081-5.760432l2.222049 3.800418c-1.129568-1.949865-2.274107-3.897781-3.433639-5.843593l1.21159 2.043175c-1.104248-1.871352-2.222335-3.74081-3.354283-5.608237l2.142693 3.565062c-1.158972-1.944873-2.332924-3.887643-3.521876-5.828155l1.379183 2.263093c-1.193976-1.969759-2.403373-3.937256-3.628213-5.902331l2.24903 3.639238c-1.142583-1.864831-2.29902-3.727576-3.469331-5.588098l1.220301 1.94886c-1.566699-2.513537-3.158666-5.023108-4.77595-7.528376-97.229942-150.614879-258.349349-242.8960012-404.714881-245.4419985zm151.032822 39.3240835c99.730842 39.8213598 190.20255 114.6157308 252.313654 210.8294718 45.002183 69.711019 71.070915 144.395624 76.670357 215.973317 1.182031 1.623286 1.88869 3.617367 1.911362 5.778734.018309 1.779269-.429164 3.454828-1.228875 4.910731 1.147873 22.967251.158285 45.568699-3.017573 67.534786-13.270415 91.785931-64.239262 165.500995-144.590228 203.708895-81.358291 38.686897-181.434913 36.38329-280.033238-2.985869-99.730842-39.82136-190.202549-114.615731-252.313653-210.829471-61.753861-95.66035-87.855151-200.686191-74.335271-294.197568 13.270415-91.785932 64.239262-165.500995 144.590228-203.7088961 81.358291-38.6868965 181.434913-36.3832898 280.033237 2.9858693zm309.872627 442.8011028-663.747965 6.895997c6.250186 11.529078 13.045975 22.999864 20.390075 34.376306 61.439697 95.173692 149.721344 165.886586 242.927139 203.102571 90.313914 36.061291 185.514597 40.832176 264.02813 3.497998 76.359226-36.309777 121.443561-105.916678 133.384732-188.50878 2.77331-19.181833 3.784811-39.043536 3.017889-59.364092zm-581.317174-427.7250122c-76.359225 36.3097772-121.44356 105.9166782-133.384731 188.5087802-10.11171 69.938488 3.197887 148.915087 40.734095 226.217007l672.652443-6.988661c-6.127951-65.502175-30.298648-134.91757-73.046538-201.136557-61.439696-95.173691-149.721343-165.886586-242.927138-203.102571-90.313914-36.0612909-185.514598-40.8321762-264.028131-3.4979982z"/></svg>