<?xml version="1.0" encoding="UTF-8"?>
<svg width="960px" height="960px" viewBox="0 0 960 960" version="1.1" xmlns="http://www.w3.org/2000/svg" xmlns:xlink="http://www.w3.org/1999/xlink">
    <title>com.aeotec/drivers/ZWA060/ assets/icon</title>
    <g id="com.aeotec/drivers/ZWA060" stroke="none" fill="none">
        <path d="M133.067387,243.858146 L254.577,282.245376 L255.365949,281.738055 C274.684994,269.340167 290.969656,260.954322 307.740005,253.720506 L308.538974,253.376898 C331.478375,243.540692 364.731627,244.005171 391.169911,251.754838 C400.351992,254.446316 508.779579,286.328346 716.572234,347.436078 L731.583556,351.85062 C767.004288,362.267195 805.18524,373.495619 846.126965,385.536053 L852.148,387.306376 L852.395413,387.330135 C853.721221,387.472856 855.069337,387.678538 856.438622,387.950355 L857.814921,388.244335 L857.828395,388.247416 C858.853893,388.481878 859.869743,388.756704 860.873575,389.071251 L860.953405,389.096373 L861.035221,389.122352 L861.11983,389.149473 C862.255771,389.515327 864.327531,390.251842 875.614152,394.273946 C876.102668,394.448034 876.583917,394.62771 877.057944,394.81283 L878.252,395.300376 L878.498149,395.389205 C879.203453,395.642555 879.932048,395.90424 880.683929,396.174259 L881.443573,396.447055 C882.122925,396.691008 883.870567,397.300601 885.712764,397.943289 L886.452377,398.201341 C888.302478,398.846942 890.117301,399.481298 890.92311,399.771863 C902.139361,403.81631 910.072516,407.808104 918.227157,414.935556 C928.136245,423.596458 934.991261,434.662608 939.650574,448.419747 C948.358407,474.130588 949.385687,532.821975 942.516279,555.840229 C942.126829,557.14521 941.775567,558.122399 941.383427,559.121504 C941.204009,559.57863 941.035105,559.987404 940.862477,560.391314 C940.660977,560.862776 940.463329,561.306329 940.247554,561.778701 C939.965603,562.395943 939.640086,563.088771 939.253482,563.898871 C938.648053,565.167504 937.873273,566.763798 936.959621,568.629024 L936.61274,569.336462 L936.272744,570.028603 C935.345313,571.914995 934.353294,573.919781 933.622149,575.387731 L933.346922,575.939449 C933.240905,576.151572 933.150273,576.33235 933.074085,576.483549 C933.009081,576.612435 933.009081,576.612435 932.929664,576.768778 C932.840717,576.944216 932.840717,576.944216 932.558102,577.482874 C917.826438,605.15193 892.812593,639.809718 866.194582,668.509683 C832.239546,705.120547 798.010687,730.465362 764.268686,738.976661 C750.647474,742.412563 732.774723,743.472844 709.544485,739.664672 C701.761032,738.388718 690.660397,735.42451 674.848179,730.572157 C674.576704,730.488849 674.306124,730.402652 674.036485,730.313581 C337.243336,619.059475 169.656644,563.596322 161.517406,560.681999 C142.78737,553.975552 130.904682,539.279358 125.063181,520.698686 C121.385332,509.000167 120,495.798312 120,479.342219 C120,475.840278 120.110752,472.258439 120.339922,468.607348 L120.407,467.582376 L28.5432959,434.764949 C12.7844395,429.135254 2.21303446,414.300347 2,397.602977 L2,353.464416 C2,342.158848 6.78423133,331.381266 15.1691734,323.797823 L94.1867071,252.333407 C104.722514,242.804695 119.521672,239.578756 133.067387,243.858146 Z M160.015916,477.362156 L160.009133,477.856319 C160.00294,478.363143 160,478.858544 160,479.342219 C160,503.479543 163.591085,518.937684 175.001436,523.023256 C182.608336,525.746971 353.135527,582.183288 686.58301,692.332208 C700.735343,696.675186 710.546133,699.294966 716.01538,700.191548 C738.703768,703.910894 751.888689,700.846529 754.485279,700.191548 C807.834511,686.734395 873.231015,603.798119 897.25066,558.68435 C897.267827,558.652106 897.318001,558.55321 897.396375,558.397219 L897.828317,557.532714 C898.416447,556.35189 899.377371,554.412607 900.376466,552.380452 L900.710452,551.700541 L901.044512,551.019227 C902.599343,547.845018 904.066601,544.803982 904.186737,544.401426 C907.191088,534.334339 908.012886,504.044402 905.552869,481.189795 C903.666064,485.8879 901.371073,490.817193 898.694675,495.979583 C889.268299,514.16172 875.052643,535.145948 857.324162,557.789003 C830.011004,592.673734 791.923074,633.510433 782.630201,639.435217 C763.34492,651.730782 738.605784,659.070575 711.839145,657.456516 C703.393785,656.94725 694.292052,655.604933 684.510147,653.517747 C673.192933,651.102969 661.352244,647.791239 648.150794,643.523399 L646.464198,642.975472 C642.243602,641.597651 637.96274,640.150406 632.958702,638.421955 C632.214075,638.164753 629.516708,637.227256 626.756443,636.269053 L626.036189,636.019051 C623.638872,635.187037 621.318256,634.382734 620.316941,634.039834 C576.423436,619.008477 519.438618,599.759957 447.492067,575.619154 C446.145847,575.167446 444.794047,574.713911 443.436522,574.258498 C414.865002,564.673544 385.404571,554.808844 348.275276,542.389446 C346.42418,541.770272 280.613613,519.762445 264.145032,514.25079 C205.099215,494.489512 178.20699,485.416376 172.820103,483.385212 C169.589611,482.167132 166.541687,480.640599 163.699022,478.856043 C162.414006,478.616784 161.160267,478.121914 160.015916,477.362156 Z M324.302561,290.139778 C320.610533,291.722886 315.444919,293.982364 308.874791,297.25435 L307.766777,297.809113 C297.381072,303.036766 283.655728,310.723069 266.845042,322.10556 C257.426014,331.109013 247.423657,342.040858 236.267362,355.36366 C221.648527,372.821415 212.543701,383.63356 203.267071,394.43249 L202.195604,395.678839 C201.906994,396.014301 201.618008,396.349997 201.328476,396.686124 L200.458071,397.695997 C192.752008,406.631476 184.54295,416.009162 172.666729,429.519993 C172.145612,430.112835 171.547843,430.857677 170.877482,431.800678 C169.903202,433.171203 168.9945,434.66523 168.21245,436.248058 C166.235909,440.24847 165.336328,444.249231 165.780433,448.076069 C166.20854,451.765057 167.058299,454.704323 168.299965,457.01081 C171.50063,460.305986 175.423428,462.992324 179.876312,464.671315 C180.226492,464.803354 180.686407,464.971442 181.258946,465.176571 L181.777341,465.361489 C190.060041,468.304357 217.515684,477.554654 270.492519,495.284783 C276.771518,497.38622 290.225605,501.886455 304.572277,506.684796 L305.898937,507.128505 C306.34188,507.27665 306.785485,507.425015 307.22957,507.573541 L309.230564,508.242778 C309.898229,508.466079 310.566353,508.689532 311.23432,508.912933 L313.509963,509.674016 C313.919143,509.810864 314.327999,509.947605 314.736388,510.084188 L315.960016,510.493424 C330.826986,515.465589 344.882536,520.166065 351.186526,522.274264 L351.687064,522.441656 C351.767531,522.468566 351.846507,522.494977 351.923975,522.520884 L352.370542,522.670227 C352.655998,522.76569 352.916753,522.852893 353.151666,522.931454 L353.48451,523.042766 C353.536707,523.060221 353.587252,523.077125 353.636129,523.093471 L353.909222,523.184801 C354.288397,523.311609 354.529519,523.392249 354.619582,523.422375 C391.753982,535.84348 421.219532,545.709895 449.797568,555.297035 C451.155465,555.752572 452.507638,556.206233 453.854232,556.658066 C525.836801,580.810954 582.855332,600.070862 626.796543,615.118556 C629.104791,615.909016 638.072763,619.02893 639.488375,619.517898 C645.044409,621.437014 649.668332,622.994829 654.303001,624.493151 C666.90578,628.567449 678.121461,631.70437 688.683643,633.958045 C697.547563,635.849359 705.680659,637.048822 713.042982,637.492779 C735.330791,638.83676 755.970938,632.713086 771.87831,622.571148 C772.527091,622.157509 775.551916,619.455343 779.553194,615.545872 C784.260837,610.946245 790.102401,604.934944 796.40921,598.17298 C811.542654,581.94737 827.478188,563.466276 841.576705,545.45946 C858.605192,523.710449 872.173445,503.681874 880.939026,486.774316 C890.306564,468.705669 893.544635,455.224238 890.876927,448.35305 C890.205167,446.622806 889.57582,445.139546 888.972379,443.861121 C888.714767,443.315355 888.466404,442.808159 888.222477,442.335205 C882.799537,438.947092 876.146513,437.045738 867.92487,434.093365 C865.363518,433.173589 863.060771,432.346356 861.016629,431.611665 L860.969,431.594376 L852.923754,429.228787 C548.721794,339.766687 391.053344,293.403683 379.918406,290.139778 C363.047287,285.194467 338.448712,284.074038 324.302561,290.139778 Z M42,363.507263 L42,397.096433 L146.596032,434.46213 C146.903768,434.348061 147.219773,434.24816 147.543457,434.16336 C148.268163,431.860194 149.189169,429.599924 150.281678,427.388744 C152.539057,422.819932 155.123178,419.184835 157.645121,416.315778 C160.456644,413.117285 163.061093,410.152207 165.500928,407.371018 L42,363.507263 Z M848.899664,427.238158 C848.984876,427.280839 852.840171,428.672649 860.465548,431.413589 L860.969,431.594376 L862.186848,431.952952 C853.624591,428.901704 849.200021,427.331132 848.913138,427.241238 L848.899664,427.238158 Z M121.017534,282 L50.876,345.436263 L179.653195,391.172297 C182.015649,388.452306 184.270312,385.845758 186.496114,383.260584 L187.562822,382.020711 L189.246127,380.060308 C198.080541,369.759204 206.97466,359.192976 220.933524,342.523357 C227.935966,334.161069 234.562837,326.644203 240.934391,319.882089 L121.017534,282 Z" id="Combined-Shape" fill="#000000" fill-rule="nonzero"></path>
        <polygon id="Rectangle" fill="#000000" fill-rule="evenodd" points="96.9533841 350.263528 114.513115 335.368419 137.488395 342.968558 119.928664 357.863668"></polygon>
        <polygon id="Rectangle" fill="#000000" fill-rule="evenodd" points="134.288214 317.111192 151.083684 303.816196 173.058999 310.599887 156.263529 323.894883"></polygon>
    </g>
</svg>