<svg height="960" viewBox="0 0 960 960" width="960" xmlns="http://www.w3.org/2000/svg"><path d="m619.771763 44.1891096c208.891163 17.7836927 357.680627 228.5257314 336.155302 467.9388994-21.513584 239.282578-205.418474 421.452223-414.141061 403.682881-71.659791-6.100668-138.156628-35.296194-193.328078-83.315635l-1.478926-1.29623-.406915-.186075c-2.66092-1.257001-5.247238-2.842326-7.713348-4.774311l-.736181-.590014-117.877234-96.629356c-32.438566-26.591375-51.245322-66.326242-51.245322-108.270989v-59.749255l-14.318044.000975c-20.568859 0-39.399785-11.474784-48.840581-29.709681l-.283202-.554637-3.160173-6.276657-31.5908582-.971961c-37.9554232-1.16819-68.19698814-31.975115-68.8071418-69.808863v-1.148604c0-38.688597 31.3633044-70.051901 70.051516-70.051901l52.864484-.001671.242952-.284916c10.296658-12.005522 25.293658-19.020748 41.164125-19.188047l.581009-.003062 2.095914-.000975v-49.065584c0-49.667769 26.310979-95.576641 69.068672-120.701103l1.300711-.754968 186.720764-107.0467848c3.43584-1.9697633 6.964401-3.3666761 10.506831-4.2432742l.351022-.0822855.28958-.149607c57.086092-29.2248442 119.469563-42.1352379 182.534183-36.7663089zm-19.579713 38.9375855-5.053645.2142293c-160.430266 8.2333566-297.864404 164.7407066-315.206448 368.1129426-18.64736 218.679822 108.617498 408.735367 284.254015 424.500939 4.888327.438788 9.762603.737943 14.620226.900182 171.165587-5.498628 318.609173-163.029829 337.063077-368.308782 19.658605-218.6799-114.507818-408.7355124-299.669092-424.5010904-5.353052-.4557862-10.690121-.7609109-16.008133-.9184205zm72.483042 83.1161089c143.123645 12.49776 244.298883 167.236669 228.820166 343.820999-15.478333 176.579954-142.030338 311.424466-285.147713 298.927254-143.123645-12.49776-244.298884-167.236669-228.820167-343.820999 15.478333-176.579954 142.030338-311.424466 285.147714-298.927254zm-295.56446 5.507557-.251789.245265c-71.491565 66.682991-121.295384 165.744823-131.517859 279.458372-12.288409 136.694747 35.528503 262.204891 118.334796 340.952038l.056546-.430562c1.216149 1.161426 2.439882 2.312738 3.67112 3.453822l-.005873.008157c-76.159643-83.362926-119.005855-209.501009-107.393297-345.682868 9.4391-110.693453 53.194983-208.459824 117.106356-278.004224zm30.34035 295.166125c-14.593553 166.486206 79.711562 310.717848 210.63637 322.150388 130.924809 11.43254 248.890749-114.263293 263.484302-280.749499 14.593553-166.486207-79.711562-310.717848-210.63637-322.150388-130.924809-11.43254-248.890749 114.263292-263.484302 280.749499zm-67.402316-286.061633-58.981666 33.823253-21.803155 12.500998c-31.088704 17.823116-50.263845 50.919006-50.263845 86.754337v306.038914c0 29.951007 13.424893 58.325069 36.582763 77.31917l45.042459 36.956957c-49.47768-78.421124-74.747252-178.426241-65.20391-284.585198 9.525442-105.959843 52.107892-200.003575 114.627354-268.808431zm-151.048666 222.143253-21.889852.001894c-4.602057 0-8.949428 2.112538-11.793267 5.730758l-34.427523 43.80218c-3.594183 4.572883-4.22083 10.811342-1.607961 16.007718l22.223784 44.197821c2.546717 5.064816 7.731235 8.261147 13.400228 8.261523l34.094591-.001894zm-69.926 19.478-47.0220989.00159c-16.5972067 0-30.0519011 13.454694-30.0519011 30.051901 0 16.744688 13.3009141 30.461276 30.0376774 30.976399l32.8913226 1.01111-3.515907-6.991813c-6.0966961-12.124878-4.6345183-26.681283 3.751909-37.351344z"/></svg>