<svg height="960" viewBox="0 0 960 960" width="960" xmlns="http://www.w3.org/2000/svg"><path d="m352.466099 12.6972021 399.676284 35.3003611c92.912061 8.2062146 164.16362 86.0282508 164.16362 179.3020048l.001023 302.318711c3.620471-1.360797 6.309647-2.306886 8.607939-3.017815l.541035-.165411c.445247-.133918.876686-.259303 1.298622-.37737 9.916458-2.774844 16.01449-1.040568 19.610859 6.677677 3.662563 7.860303.943304 14.506641-7.942282 21.54901-.331411.262664-.659255.520375-.986499.774881l-.490789.379574-.492115.376076-.495666.373888c-4.10091 3.072331-8.789002 6.055443-19.65005 12.237506l-.002077 189.190414c0 97.824846-78.128802 177.741271-175.92862 179.95395l-399.676284 9.042502c-1.35691.0307-2.714123.046051-4.07138.046051-1.056198 0-2.111538-.00914-3.165935-.027405l-.958065-.021165-.786843.009346-77.858157-.001346-2.22866.051012c-.444633.009889-.8893.01813-1.333991.024722l-1.334135.01978h-1.334214c-2.177253 0-4.350857-.038842-6.520066-.116381l.786066.024867-4.587877-.002662c-2.769655-.001766-5.463365-.281589-8.05786-.81116l-.224263-.048178-.12508-.011776c-22.295496-2.307122-43.33922-8.66253-62.40803-18.304664l-24.007611 10.770875c-12.158707 5.456179-25.951497 2.326346-34.873931-6.756124l-106.74827432 47.822133c-7.56025304 3.386993-16.43474968.003898-19.82174308-7.556355-3.3869933-7.560253-.0038979-16.43475 7.5563551-19.821743l105.3023235-47.175547c-3.2605132-11.514379.1740262-23.73756 8.4912578-31.681866-1.348643-1.834073-2.6605701-3.696888-3.9375264-5.585051l-23.9684615 10.754553c-12.4250221 5.575687-26.5564962 2.18512-35.4531448-7.361471l-45.58671408 21.856203c-7.47005762 3.581535-16.42914312.429264-20.01067762-7.040794-3.5815345-7.470057-.4292637-16.429143 7.040794-20.010677l45.2214387-21.682264c-3.7882992-14.72073 3.2483843-30.418047 17.3508411-36.746478l26.826816-12.040321c-1.3334086-8.375268-2.0881215-16.937994-2.2227595-25.644601l-.0218729-2.830518v-560.169633c0-5.197216.225092-10.391993.6746434-15.56973 7.3586639-84.753879 72.8790866-152.179315 156.0527786-162.9494661l1.340578-.1636852 80.201859-13.4484235c1.19988-.2011949 2.390825-.3479996 3.570989-.4426058l.720152-.0499707.808655-.1191641c13.638549-1.9524013 27.532043-2.3350197 41.466725-1.1042755zm-112.249862 881.6621059-21.066763 9.455975c5.949951 1.229603 12.03797 2.081631 18.237894 2.529919l-.054033.274786 5.205226.003317c1.689597.060396 3.386821.090851 5.091158.090851h1.037722c.691798-.008974 1.383554-.01923 2.075209-.034613l2.652069-.059901 5.647598.002227c-6.573422-3.651729-12.862633-7.7531-18.82608-12.262561zm636.092917-303.700364c-.793789.437684-1.599071.881661-2.416048 1.33205l-.215601.118858-.224614.100796-535.094312 240.12192-.002858.051909c-.899353 11.142098-7.562536 21.150836-17.868773 25.949514l-.393123.179716-58.596973 26.297917c21.033772 13.403252 45.887253 21.344137 72.56225 21.824461.144471.002602.289561.004994.434704.007165l2.135913.015962c1.055644 0 2.111255-.01194 3.166629-.035817l399.676284-9.042503c76.066525-1.720972 136.833371-63.878192 136.833371-139.964183zm-687.876946 236.423794-52.77421 23.682692c1.020422 1.357228 2.064947 2.695303 3.132939 4.01359l51.581405-23.146303c-.669389-1.504562-1.316243-3.021364-1.940134-4.549979zm687.874406-338.496674c-1.500861 1.891743-3.463451 3.780337-5.883415 5.698306-.331411.262664-.659255.520375-.986499.774881l-.490789.379574-.492115.376076-.495666.373888c-7.472759 5.598463-16.895244 10.90067-62.065024 35.802205l-.215601.118858-.224614.100796-535.094312 240.12192-.002858.051909c-.899353 11.142098-7.562536 21.150836-17.868773 25.949514l-.393123.179716-45.397993 20.371848c.616577 1.532547 1.259482 3.05167 1.928155 4.556809l80.032375-35.914138c10.91702-4.898976 23.427111-2.92681 32.432438 4.515125l.155891.131115 534.506628-239.858553.226682-.101723.234317-.082633 3.970659-1.400274c5.553742-1.954264 10.886109-3.875059 16.123768-5.803327zm-638.85841-422.1382744-5.987858 1.0057775c-64.720446 7.4553075-117.451567 59.5534619-123.305904 126.9811659-.349651 4.027129-.524723 8.067511-.524723 12.10979v560.169633c0 3.81439.152545 7.593152.451867 11.330517l68.547141-30.760058.000992-555.285408c0-4.699095.207014-9.395909.62044-14.076782 4.032556-45.657235 26.867357-85.1348335 60.198045-111.4746354zm101.733523-14.4301742.222.004-1.518-.023-.670873-.0059986-1.967456.0033283c-1.016176.0088246-2.03016.0286478-3.041826.0593643l-1.515746.0542316-1.06253.047819-.142569.0062554-.101.006-.817166.043559.145166-.007559-.247.013.101834-.005441-.267525.0153528.167691-.0099118-.379.023-1.565.103-.277.019-.574.044-1.417.116-.346.03-.35.033-1.746.173-.127.013-.096.01-1.899.217-.29.034.111491-.0130612-.112491.0130612h.001l-.024.003-1.96.256.461-.062-.543247.0734216-.070753.0095784-.075.011-2.027109.2972331-.320891.0507669-1.543.251-.405.068-1.673823.296959c-60.35798 11.1023609-108.384187 61.2861106-114.0463 125.3934486-.361748 4.095764-.542885 8.205476-.542885 12.317184l-.000992 546.310408 24.027635-10.781389c10.91702-4.898976 23.427111-2.92681 32.432438 4.515125l.155891.131115 534.506628-239.858553.226682-.101723.234317-.082633 3.970659-1.400274c9.110225-3.205727 17.624766-6.321396 26.102731-9.527721 4.492938-1.699207 8.76417-3.342584 13.741415-5.27944.539191-.209822 2.97201-1.159282 5.46278-2.130609l.649873-.253413c2.054453-.801059 4.039521-1.574447 4.920367-1.915529 6.475261-2.507358 10.565398-4.006592 13.854822-5.024107l.541035-.165411c.445247-.133918.876686-.259303 1.298622-.37737 8.229428-2.302776 13.82913-1.500149 17.551676 3.250803l-.000295-242.008918c0-72.546253-55.417879-133.0745034-127.682816-139.4571147l-399.676284-35.3003611-2.157809-.1741222-.226009-.016333-1.815358-.1170216-.458-.027-.151-.008-1.84-.088-.313-.013-.063-.002-.07-.003-.037-.001-.027-.001h.009l-.058-.002-.736518-.0260504-.199482-.0069496.921.033h.015l.049.002-.064-.002-1.659-.052-.363-.01-.25-.005-.035-.001zm-196.681727 426.9823846c20.193452 0 32.581301 27.703734 32.581301 60.5s-12.387849 60.5-32.581301 60.5-32.581301-27.703734-32.581301-60.5 12.387849-60.5 32.581301-60.5zm0 20c-.075118 0-.183106.024526-.389687.119063-.412378.188714-.930911.549396-1.528144 1.114321-1.63763 1.549038-3.362365 4.154866-4.92065 7.639757-3.597582 8.045502-5.74282 19.388142-5.74282 31.626859s2.145238 23.581357 5.74282 31.626859c1.558285 3.484891 3.28302 6.090719 4.92065 7.639757.597233.564925 1.115766.925607 1.528144 1.114321.206581.094537.314569.119063.389687.119063s.183106-.024526.389687-.119063c.412378-.188714.930911-.549396 1.528144-1.114321 1.63763-1.549038 3.362365-4.154866 4.92065-7.639757 3.597582-8.045502 5.74282-19.388142 5.74282-31.626859s-2.145238-23.581357-5.74282-31.626859c-1.558285-3.484891-3.28302-6.090719-4.92065-7.639757-.597233-.564925-1.115766-.925607-1.528144-1.114321-.206581-.094537-.314569-.119063-.389687-.119063zm429.5-224c7.731986 0 14 8.282732 14 18.5s-6.268014 18.5-14 18.5-14-8.282732-14-18.5 6.268014-18.5 14-18.5z"/></svg>