<svg height="960" viewBox="0 0 960 960" width="960" xmlns="http://www.w3.org/2000/svg"><path d="m97.4581988 467.138248v60.096085c0 12.768684-3.666246 23.594306-10.9987379 32.476869-10.0241661 12.028469-22.9256392 18.042704-38.7044193 18.042704-9.745717 0-18.6096788-2.590747-26.5918851-7.772242-14.29371841-9.252669-21.4405776-23.501779-21.4405776-42.747331v-97.430605c0-12.58363 4.3623686-23.362989 13.0871058-32.338078 9.3744517-9.807829 21.2549449-14.711744 35.6414796-14.711744 17.5422907 0 31.0470701 7.032029 40.5143381 21.096086 4.8264504 7.124555 7.6573492 15.7758 8.4926964 25.953736h-27.1487833c-.1856327-5.921708-1.8563271-10.825622-5.0120831-14.711743-4.3623686-5.366549-10.0241661-8.049823-16.9853926-8.049823-7.8893901 0-13.9688612 3.284698-18.2384134 9.854093-2.1347761 3.423488-3.2021642 7.772242-3.2021642 13.046263v97.291815c0 6.291815.8353472 11.149466 2.5060415 14.572954 1.299429 2.683274 3.2021642 4.996441 5.7082057 6.939502 3.9911032 3.053381 8.5391045 4.580071 13.644004 4.580071 7.0540428 0 12.7158403-2.775801 16.9853926-8.327402 3.0629396-3.978648 4.5944095-8.419929 4.5944095-13.323844v-40.11032h-21.7190267v-24.427046zm103.3418192 86.327402-4.733634 21.512456h-27.98413l41.48891-189.448399h30.907845l41.628135 189.448399h-28.26258l-5.290532-21.512456zm42.463482-24.427046-18.656087-86.604982-18.238414 86.604982zm112.112965 45.939502v-189.448399h27.148783v165.021352h54.297567v24.427047zm184.370495-21.512456-4.733634 21.512456h-27.98413l41.48891-189.448399h30.907845l41.628135 189.448399h-28.26258l-5.290532-21.512456zm42.463482-24.427046-18.656087-86.604982-18.238413 86.604982zm156.386365-17.903915-26.591885 63.843417h-31.325519l42.881155-99.512456-38.008297-89.935943h30.907846l22.1367 54.128114 23.250497-54.128114h29.5156l-38.147521 89.935943 41.48891 99.512456h-29.654825zm182.142904-2.637011v66.480428h-27.148784v-66.480428l-39.261317-122.967971h28.541028l24.364293 74.669039 23.389721-74.669039h29.097927z" stroke="#000" stroke-width="3"/></svg>