<svg height="960" viewBox="0 0 960 960" width="960" xmlns="http://www.w3.org/2000/svg"><path d="m80.6392804 171.607274c2.9811607 0 5.959991.166637 8.9225519.499132l819.7772557 92.005349c30.336406 3.404719 52.553365 30.183578 50.298992 60.62709-2.268733 30.637421-28.944441 53.634788-59.581863 51.366055-.626051-.04636-1.251274-.103314-1.875397-.170839l-771.57454-83.477205.000517 314.073072c-.005778 25.222247-18.437816 46.609956-43.2976894 50.403401l-.7552846.109553c-2.6910541.369992-5.5618576.673486-8.6284288.916306l-.3915046 330.919484c-.0065327 5.522844-4.4889723 9.994703-10.011816 9.988184-5.5228436-.006533-9.9947027-4.488972-9.988184-10.011816l.3890485-330.188568c-1.4878182-.015502-2.9207501-.050327-4.3015187-.105091l.099861.003475-.0878302-.002852c-27.0870006-1.066157-48.55500766-23.119833-48.99416982-50.129326v-356.825404c0-44.18278 35.81722002-80 80.00000002-80zm-14.7777206 422.327181c-8.4893098.300635-16.8978271.014353-25.2221765-.859493l-.0001029 14.528927c0 5.905877 4.6660626 10.756786 10.5673699 10.989064 3.2196931.127552 7.0793854.107802 11.5790829-.059397 5.6542344-.2101 10.4274861-.582735 14.3197584-1.117883 5.4438028-.748671 9.5000473-5.399864 9.501306-10.894907l.0009739-14.899477c-5.8620273 1.270754-12.7638898 2.030484-20.7462117 2.313166zm14.7777206-382.327181c-22.09139 0-40 17.90861-40 40l.0007747 321.408536c.3652983.000479.7342621.020926 1.1057167.062281 7.7119585.858594 15.5133311 1.148469 23.4079625.868893 7.727657-.273663 14.0257611-1.039998 18.8354498-2.249777.876636-.2205 1.7553619-.317852 2.6179164-.302976l-.0003026-307.902249c0-.503057.0271142-1.005748.0812247-1.505886.8316782-7.687128 7.7375346-13.244567 15.4246624-12.412889l800.370668 86.592925c.175322.018968.350953.034967.526817.04799 8.606354.63731 16.099823-5.822877 16.737132-14.42923.666442-8.999773-5.90138-16.916193-14.869489-17.922703l-819.7772567-92.005349c-1.4812804-.166247-2.9706955-.249566-4.4612759-.249566z"/></svg>