<svg width="960" height="960" viewBox="0 0 960 960" fill="none" xmlns="http://www.w3.org/2000/svg">
<path d="M360.152 37.365C394.163 25.7591 446.463 22.1122 498.484 26.6384C550.933 31.202 607.043 44.4009 647.132 69.5603C726.241 119.208 761.75 202.045 773.274 278C781.378 331.412 786.917 464.583 789.287 542.421C789.85 560.905 781.834 578.217 768.154 589.795C781.719 600.417 790.158 616.456 791.074 633.877L803.258 865.369C803.249 865.19 803.237 865.192 803.326 865.872C803.385 866.318 803.562 867.585 803.669 868.843C803.884 871.365 804.136 876.628 801.671 882.379C797.875 891.237 789.99 896.502 782.67 900.016C774.832 903.779 763.879 907.298 748.702 910.748C718.199 917.682 666.928 925.144 580.684 932.429C443.509 944.018 261.136 919.757 190.729 898.515C165.621 890.94 154.185 866.993 155.602 844.967L169.14 634.51C170.288 616.659 179.319 600.394 193.541 589.97C179.22 579.059 170.248 562.023 170.207 543.255C170.029 461.434 176.515 310.38 205.823 211.326C239.317 98.1237 319.733 48.4435 360.152 37.365ZM737.233 617.276C736.426 617.6 735.565 617.827 734.66 617.932C532.895 641.501 311.28 627.906 224.391 618.051L219.303 620.878C213.354 624.183 209.494 630.286 209.057 637.077L195.519 847.534C195.278 851.275 196.156 854.336 197.408 856.398C198.571 858.312 200.138 859.574 202.282 860.22C267.701 879.957 445.002 903.749 577.317 892.571C663.052 885.328 712.102 878.048 739.835 871.743C751.552 869.079 758.82 866.726 763.178 864.922L751.129 635.979C750.784 629.426 747.246 623.459 741.662 620.011L737.233 617.276ZM637.5 647C653.292 647 678.469 647.819 699.831 659.41C710.736 665.326 720.692 674.063 727.847 686.772C734.975 699.433 739 715.459 739 735.5C739 807.092 711.061 839.631 689.533 848.511C685.472 850.187 681.445 850.534 678.506 850.663L556.938 855.99C556.521 856.008 556.103 856 555.687 855.967C537.937 854.518 511.56 847.628 489.344 831.37C466.728 814.819 448.5 788.525 448.5 749.5C448.5 710.417 466.797 684.92 489.652 669.476C512.014 654.366 538.497 648.955 556.245 648.503L556.315 648.502L637.315 647.002C637.376 647.001 637.439 647 637.5 647ZM566.339 683.34C551.541 683.701 529.324 688.063 510.971 699.78C492.848 711.35 478.5 730.03 478.5 759.712C478.5 789.428 492.889 808.981 511.124 821.59C511.235 821.666 511.346 821.741 511.457 821.817C527.36 830.69 544.512 834.896 556.729 835.98L677.63 830.681C679.921 830.581 681.128 830.343 681.906 830.022C691.126 826.219 709.975 810.266 716.617 768.212C713.864 777.851 707.047 784.663 699.118 784.613C688.836 784.549 680.582 772.968 680.683 758.748C680.784 744.528 689.201 733.052 699.484 733.116C709.563 733.179 717.69 744.307 717.913 758.14C718.612 751.221 719 743.69 719 735.5C719 725.968 717.95 717.905 716.159 711.07C708.927 698.615 697.67 691.486 685.245 687.372C670.715 682.561 654.926 682.001 642.931 682L566.339 683.34ZM619.186 698.292C651.672 698.495 675.582 728.31 675.343 761.978C675.104 795.647 650.774 825.159 618.287 824.956C585.801 824.752 561.891 794.937 562.13 761.268C562.369 727.6 586.7 698.088 619.186 698.292ZM619.044 718.292C600.05 718.173 582.309 736.154 582.13 761.394C581.951 786.634 599.435 804.838 618.429 804.957C637.423 805.076 655.164 787.093 655.343 761.853C655.522 736.613 638.038 718.411 619.044 718.292ZM236.408 795.017C237.976 795.027 239.232 797.222 239.213 799.92C239.194 802.617 237.907 804.795 236.339 804.785C234.771 804.775 233.515 802.581 233.534 799.884C233.554 797.186 234.84 795.008 236.408 795.017ZM216.408 793.017C217.976 793.027 219.232 795.222 219.213 797.92C219.194 800.617 217.907 802.795 216.339 802.785C214.771 802.775 213.515 800.581 213.534 797.884C213.554 795.186 214.84 793.008 216.408 793.017ZM204.408 792.017C205.976 792.027 207.232 794.222 207.213 796.92C207.194 799.617 205.907 801.795 204.339 801.785C202.771 801.775 201.515 799.581 201.534 796.884C201.554 794.186 202.84 792.008 204.408 792.017ZM255.492 781.487C257.153 781.497 258.483 783.63 258.463 786.252C258.443 788.874 257.08 790.992 255.419 790.982C253.758 790.973 252.428 788.84 252.448 786.218C252.469 783.595 253.831 781.477 255.492 781.487ZM243.803 780.593C245.464 780.602 246.794 782.736 246.774 785.358C246.753 787.98 245.391 790.098 243.73 790.089C242.069 790.079 240.739 787.945 240.759 785.323C240.779 782.701 242.142 780.583 243.803 780.593ZM233.58 779.699C235.241 779.709 236.571 781.842 236.551 784.464C236.531 787.086 235.168 789.204 233.507 789.194C231.846 789.184 230.516 787.051 230.536 784.429C230.557 781.807 231.919 779.69 233.58 779.699ZM520.639 737.142C533.216 737.221 543.331 748.814 543.23 763.034C543.129 777.254 532.851 788.718 520.274 788.639C507.696 788.561 497.582 776.968 497.683 762.748C497.784 748.528 508.061 737.064 520.639 737.142ZM223.347 778.804C225.008 778.814 226.339 780.948 226.319 783.57C226.298 786.192 224.935 788.31 223.274 788.301C221.613 788.291 220.283 786.158 220.303 783.536C220.323 780.914 221.686 778.795 223.347 778.804ZM619.069 736.12C629.675 736.186 638.191 747.769 638.09 761.989C637.989 776.209 629.309 787.683 618.703 787.617C608.098 787.55 599.582 775.968 599.683 761.748C599.784 747.528 608.463 736.054 619.069 736.12ZM214.58 777.911C216.241 777.92 217.571 780.054 217.551 782.677C217.531 785.299 216.168 787.417 214.507 787.407C212.846 787.397 211.516 785.263 211.536 782.641C211.557 780.02 212.92 777.902 214.58 777.911ZM205.662 777.017C207.368 777.027 208.733 779.16 208.712 781.782C208.691 784.404 207.292 786.522 205.587 786.512C203.882 786.503 202.517 784.37 202.537 781.748C202.558 779.126 203.957 777.008 205.662 777.017ZM261.662 767.019C263.368 767.03 264.733 769.416 264.712 772.349C264.691 775.283 263.292 777.652 261.587 777.641C259.882 777.631 258.517 775.243 258.537 772.31C258.558 769.378 259.957 767.009 261.662 767.019ZM250.662 765.019C252.368 765.03 253.733 767.416 253.712 770.349C253.691 773.283 252.292 775.652 250.587 775.641C248.882 775.631 247.517 773.243 247.537 770.31C247.558 767.378 248.957 765.009 250.662 765.019ZM240.662 764.019C242.368 764.03 243.733 766.416 243.712 769.349C243.691 772.283 242.292 774.652 240.587 774.641C238.882 774.631 237.517 772.243 237.537 769.31C237.558 766.378 238.957 764.009 240.662 764.019ZM229.662 763.019C231.368 763.03 232.733 765.416 232.712 768.349C232.691 771.283 231.292 773.652 229.587 773.641C227.882 773.631 226.517 771.243 226.537 768.31C226.558 765.378 227.957 763.009 229.662 763.019ZM219.662 762.019C221.368 762.03 222.733 764.416 222.712 767.349C222.691 770.283 221.292 772.652 219.587 772.641C217.882 772.631 216.517 770.243 216.537 767.31C216.558 764.378 217.957 762.009 219.662 762.019ZM208.662 761.019C210.368 761.03 211.733 763.416 211.712 766.349C211.691 769.283 210.292 771.652 208.587 771.641C206.882 771.631 205.517 769.243 205.537 766.31C205.558 763.378 206.957 761.009 208.662 761.019ZM256.492 750.019C258.153 750.03 259.483 752.416 259.463 755.349C259.443 758.282 258.08 760.652 256.419 760.641C254.758 760.631 253.428 758.243 253.448 755.31C253.469 752.377 254.832 750.009 256.492 750.019ZM244.803 749.019C246.464 749.03 247.794 751.416 247.774 754.349C247.753 757.283 246.391 759.652 244.73 759.641C243.069 759.631 241.739 757.243 241.759 754.31C241.779 751.377 243.142 749.009 244.803 749.019ZM234.58 748.019C236.241 748.03 237.571 750.416 237.551 753.349C237.531 756.283 236.168 758.652 234.507 758.641C232.846 758.63 231.516 756.243 231.536 753.31C231.557 750.378 232.92 748.009 234.58 748.019ZM224.347 747.019C226.008 747.03 227.339 749.416 227.319 752.349C227.298 755.283 225.935 757.652 224.274 757.641C222.613 757.63 221.283 755.243 221.303 752.31C221.323 749.378 222.686 747.009 224.347 747.019ZM215.58 746.019C217.241 746.03 218.571 748.416 218.551 751.349C218.531 754.283 217.168 756.652 215.507 756.641C213.846 756.63 212.516 754.243 212.536 751.31C212.557 748.378 213.92 746.009 215.58 746.019ZM206.662 745.019C208.368 745.03 209.733 747.416 209.712 750.349C209.691 753.283 208.292 755.652 206.587 755.641C204.882 755.631 203.517 753.243 203.537 750.31C203.558 747.378 204.957 745.009 206.662 745.019ZM556.754 668.496L556.755 668.497C541.837 668.877 519.32 673.567 500.849 686.048C482.87 698.196 468.5 717.783 468.5 749.5C468.5 751.244 468.546 752.954 468.631 754.632C470.212 723.889 486.121 703.781 505.59 691.351C525.87 678.404 550.009 673.731 566.126 673.343C566.137 673.342 566.149 673.342 566.159 673.342L642.818 672.001L642.906 672C655.046 672 672.224 672.526 688.389 677.879C691.292 678.84 694.173 679.962 696.993 681.267C694.86 679.671 692.621 678.251 690.294 676.989C673.805 668.042 653.264 667.003 637.564 667L556.754 668.496ZM261.662 736.019C263.368 736.03 264.733 738.416 264.712 741.349C264.691 744.283 263.292 746.652 261.587 746.641C259.882 746.631 258.517 744.243 258.537 741.31C258.558 738.378 259.957 736.009 261.662 736.019ZM250.662 734.019C252.368 734.03 253.733 736.416 253.712 739.349C253.691 742.283 252.292 744.652 250.587 744.641C248.882 744.631 247.517 742.243 247.537 739.31C247.558 736.378 248.957 734.009 250.662 734.019ZM240.662 733.019C242.368 733.03 243.733 735.416 243.712 738.349C243.691 741.283 242.292 743.652 240.587 743.641C238.882 743.631 237.517 741.243 237.537 738.31C237.558 735.378 238.957 733.009 240.662 733.019ZM229.662 732.019C231.368 732.03 232.733 734.416 232.712 737.349C232.691 740.283 231.292 742.652 229.587 742.641C227.882 742.631 226.517 740.243 226.537 737.31C226.558 734.378 227.957 732.009 229.662 732.019ZM219.662 731.019C221.368 731.03 222.733 733.416 222.712 736.349C222.691 739.283 221.292 741.652 219.587 741.641C217.882 741.631 216.517 739.243 216.537 736.31C216.558 733.378 217.957 731.009 219.662 731.019ZM208.662 730.019C210.368 730.03 211.733 732.416 211.712 735.349C211.691 738.283 210.292 740.652 208.587 740.641C206.882 740.631 205.517 738.243 205.537 735.31C205.558 732.378 206.957 730.009 208.662 730.019ZM256.662 720.019C258.368 720.03 259.733 722.416 259.712 725.349C259.691 728.283 258.292 730.652 256.587 730.641C254.882 730.631 253.517 728.243 253.537 725.31C253.558 722.378 254.957 720.009 256.662 720.019ZM244.662 718.019C246.368 718.03 247.733 720.416 247.712 723.349C247.691 726.283 246.292 728.652 244.587 728.641C242.882 728.631 241.517 726.243 241.537 723.31C241.558 720.378 242.957 718.009 244.662 718.019ZM234.662 717.019C236.368 717.03 237.733 719.416 237.712 722.349C237.691 725.283 236.292 727.652 234.587 727.641C232.882 727.631 231.517 725.243 231.537 722.31C231.558 719.378 232.957 717.009 234.662 717.019ZM223.662 716.019C225.368 716.03 226.733 718.416 226.712 721.349C226.691 724.283 225.292 726.652 223.587 726.641C221.882 726.631 220.517 724.243 220.537 721.31C220.558 718.378 221.957 716.009 223.662 716.019ZM214.662 715.019C216.368 715.03 217.733 717.416 217.712 720.349C217.691 723.283 216.292 725.652 214.587 725.641C212.882 725.631 211.517 723.243 211.537 720.31C211.558 717.378 212.957 715.009 214.662 715.019ZM239.662 701.019C241.368 701.03 242.733 703.416 242.712 706.349C242.691 709.283 241.292 711.652 239.587 711.641C237.882 711.631 236.517 709.243 236.537 706.31C236.558 703.378 237.957 701.009 239.662 701.019ZM221.662 699.019C223.368 699.03 224.733 701.416 224.712 704.349C224.691 707.283 223.292 709.652 221.587 709.641C219.882 709.631 218.517 707.243 218.537 704.31C218.558 701.378 219.957 699.009 221.662 699.019ZM210.408 698.017C211.976 698.027 213.232 700.222 213.213 702.92C213.194 705.617 211.907 707.795 210.339 707.785C208.771 707.775 207.515 705.581 207.534 702.884C207.554 700.186 208.84 698.008 210.408 698.017ZM255.46 590.217C255.227 594.06 253.891 597.703 251.682 600.748C346.772 609.644 535.783 618.73 712.94 600.212C711.028 597.387 709.851 594.091 709.569 590.627C533.551 608.181 347.321 598.933 255.46 590.217ZM348.817 85.0691C315.899 102.629 267.453 144.01 244.178 222.675C216.659 315.683 210.029 461.633 210.207 543.168C210.223 550.38 214.484 557.123 221.461 560.379L238.648 568.398C323.171 577.694 532.549 590.151 724.781 568.918L738.578 561.764C745.41 558.222 749.535 551.178 749.306 543.638C746.907 464.869 741.387 334.489 733.727 284.001C730.897 265.35 726.532 246.618 720.371 228.394C729.958 285.306 727.814 347.368 725.995 411.284C724.239 472.995 713.041 508.521 685.489 527.213C672.045 536.332 655.715 540.693 637.251 543.052C618.833 545.404 597.18 545.877 572.753 546.497C520.967 547.811 486.021 530.732 464.331 502.606C443.06 475.022 435.758 438.36 435.5 402.572C435.251 367.868 434.501 322.883 429.988 278C425.458 232.951 417.209 188.848 402.367 155.573C387.724 122.745 369.654 106.796 357.861 95.1902C354.921 92.2975 351.988 89.3047 349.698 86.281C349.403 85.8907 349.108 85.4867 348.817 85.0691ZM675.423 151.353C681.969 166.124 687.04 181.537 690.839 197.06C699.419 232.121 701.688 268.203 699.906 299.79C698.134 331.204 692.307 358.954 684.115 377.112C668.173 412.452 648.126 429.93 621.166 437.387C608.209 440.971 594.099 442.119 578.96 442.343C563.917 442.565 546.985 441.866 528.797 441.498C494.229 440.797 470.841 434.032 456.199 419.092C458.354 446.431 465.606 471.509 480.168 490.393C497.229 512.517 525.533 527.688 572.246 526.503C597.069 525.873 617.541 525.408 634.717 523.214C651.847 521.025 664.58 517.23 674.261 510.662C692.958 497.978 704.26 472.005 706.004 410.716C708.846 310.857 711.566 222.813 675.423 151.353ZM495.017 66.4871C445.4 62.1699 399.068 66.193 372.559 75.3943C372.092 75.5563 371.619 75.7009 371.142 75.8279C370.103 76.1043 369.004 76.4298 367.848 76.8005C368.938 77.9855 370.268 79.3396 371.889 80.9343C383.595 92.4538 404.275 110.755 420.632 147.427C436.79 183.652 445.292 230.299 449.887 276C452.083 297.844 453.402 319.667 454.21 340.292C455.303 341.861 455.96 343.759 455.998 345.814C456.505 373.186 458.961 390.802 467.98 402.249C476.491 413.052 493.046 420.769 529.203 421.502C548.015 421.883 564.083 422.56 578.665 422.344C593.151 422.131 605.291 421.028 615.834 418.112C635.874 412.569 651.828 400.048 665.885 368.887C672.693 353.796 678.241 328.732 679.938 298.663C681.624 268.765 679.457 234.691 671.411 201.814C661.214 160.144 641.852 121.139 609.429 94.447C578.075 79.4316 536.781 70.121 495.017 66.4871ZM591.934 246.292C624.42 246.495 648.33 276.31 648.091 309.978C647.852 343.647 623.522 373.159 591.035 372.956C558.549 372.752 534.639 342.937 534.878 309.268C535.117 275.6 559.448 246.088 591.934 246.292ZM591.792 266.292C572.799 266.173 555.057 284.154 554.878 309.394C554.699 334.634 572.183 352.838 591.177 352.957C610.171 353.076 627.912 335.093 628.091 309.853C628.27 284.613 610.786 266.411 591.792 266.292ZM591.632 288.859C600.407 288.914 607.456 298.256 607.374 309.723C607.293 321.191 600.113 330.443 591.337 330.388C582.562 330.333 575.514 320.992 575.595 309.524C575.676 298.056 582.857 288.804 591.632 288.859ZM570.937 177.145C582.224 170.438 597.854 175.927 605.85 189.406C613.845 202.885 611.178 219.25 599.891 225.958C588.604 232.665 572.972 227.176 564.977 213.697C556.981 200.218 559.65 183.853 570.937 177.145ZM568.761 146.532C571.114 145.133 574.374 146.278 576.041 149.089C577.708 151.899 577.152 155.312 574.799 156.711C572.446 158.109 569.186 156.965 567.519 154.154C565.852 151.343 566.408 147.931 568.761 146.532Z" fill="black"/>
</svg>
