<svg height="960" viewBox="0 0 960 960" width="960" xmlns="http://www.w3.org/2000/svg"><path d="m468.596152 63.5974963 3.806363.0565221c12.504694.2822136 24.892383 1.4737203 37.077036 3.5511375l38.273449 4.2251198 2.893748.2646218c117.355589 11.6271551 209.475874 106.9222705 211.324916 221.2675095l.028336 3.506247v540.198702c0 43.412911-35.301682 79.736028-78.927406 83.097062l-297 22.881613c-10.953675.843898-21.785421-.503067-31.933636-3.927966l-.053958-.018789-.222297-.060012c-.908018-.255152-1.813977-.544072-2.716494-.867492l-.67622-.249046-63.650624-24.077444c-4.483707-1.696074-8.520673-4.135343-11.998643-7.141288l-.161722-.141718-.514032-.346881c-20.248787-13.835145-32.856153-36.504113-33.144968-61.853815v-565.267497c0-119.632663 100.162871-214.0648725 223.803968-215.0965867zm-127.596152 232.9025037v567.5c0 16.907539 9.990501 30.711978 24.390246 36.262054.064042.024684.128296.049252.192637.073655l-.192637-.073655c.178512.068804.357701.136339.537557.202595l-.34492-.12894c.217719.082578.436435.163274.656129.24207l-.311209-.11313c.19799.072937.396787.144324.596379.21415l-.28517-.10102c.179662.064438.359977.127605.540936.189493l-.255766-.088473c.215974.075556.432877.149283.650693.221165l-.394927-.132692c.190363.065103.381438.12879.573213.191049l-.178286-.058357c.205529.067827.411871.13401.619009.198536l-.440723-.140179c.200277.06502.401318.128482.603108.190375l-.162385-.050196c.185174.057684.370984.114044.557421.169069l-.395036-.118873c.220945.067767.442788.133652.665511.197638l-.270475-.078765c.199467.058871.39965.116214.600537.172017l-.330062-.093252c.209655.060232.42009.11878.63129.175633l-.301228-.082381c.193762.053825.388178.106217.583237.157165l-.282009-.074784c.210247.056595.421253.11151.633001.164728l-.350992-.089944c.201725.05269.404138.103837.607225.153427l-.256233-.063483c.21423.053843.429221.105951.644957.156309l-.388724-.092826c.201203.049131.403067.096734.60558.142798l-.216856-.049972c.20034.046764.401321.092019.602932.135753l-.386076-.085781c.228243.051917.45731.101879.687182.14987l-.301106-.064089c.191062.041447.382689.081527.574871.120233l-.273765-.056144c.226535.047294.453853.092673.681935.136121l-.40817-.079977c.220251.044359.441232.086912.662926.127644l-.254756-.047667c.187565.03573.375647.070154.564237.103263l-.309481-.055596c.217509.039963.435706.078174.654574.114618l-.345093-.059022c.20373.035767.408052.07.612954.102687l-.267861-.043665c.221855.036941.444401.072067.667621.105364l-.39976-.061699c.204113.032561.408801.063589.614053.093071l-.214293-.031372c.213049.031779.426713.061892.640977.090325l-.426684-.058953c.211333.030356.423264.059075.63578.086143l-.209096-.02719c.217583.028874.435785.056016.654592.081413l-.445496-.054223c.21608.027522.432764.053339.650038.077437l-.204542-.023214c.209816.024354.420187.047103.631103.068236l-.426561-.045022c.274443.030438.549828.058135.826127.083063l-.399566-.038041c.199686.020008.399861.038568.600511.055669l-.200945-.017628c.213723.019283.427992.03691.642796.052868l-.441851-.03524c.233313.019885.467271.037798.701856.053724l-.260005-.018484c.260713.019369.522213.036282.784476.050715l-.524471-.032231c.20319.013794.40685.026098.610971.0369l-.0865-.004669c.163581.009002.327458.017041.491626.024109l-.405126-.01944c.254448.013466.509611.024599.765468.033381l-.360342-.013941c.141435.00609.283086.01146.424949.016108l-.064607-.002167c.201301.006909.403032.012362.605182.01635l-.540575-.014183c.552542.018101 1.10831.025235 1.66709.021208.083517-.000602.167319-.001456.251189-.002561l-.251189.002561c.131202-.000946.262571-.002507.394103-.004686l-.142914.002125c.674638-.008889 1.353608-.03404 2.036537-.075796.226328-.013836.453526-.029529.681147-.047066l297-22.881613c23.195959-1.787074 42-21.135199 42-43.215247v-540.198702l-.024586-2.943849c-.007197-.430709-.015971-.861092-.026316-1.291142-.012779-.531268-.027957-1.062071-.045523-1.592357l.045523 1.592357c-.025289-1.051351-.059969-2.100718-.103961-3.148027l.058438 1.55567c-.032568-.983126-.073343-1.964477-.122263-2.943993l.063825 1.388323c-.041547-.989105-.0914-1.976374-.149495-2.961745l.08567 1.573422c-.049248-.986093-.106751-1.970325-.172444-2.952634l.086774 1.379212c-.050708-.860079-.107696-1.718711-.170919-2.575854l.084145 1.196642c-.064572-.965544-.137057-1.929229-.217394-2.890997l.133249 1.694355c-.073428-.99549-.155267-1.988972-.24545-2.98038l.112201 1.286025c-.080685-.965935-.169291-1.929936-.265754-2.891942l.153553 1.605917c-.088236-.969999-.18446-1.938012-.288608-2.903979l.135055 1.298062c-.095942-.956808-.199657-1.911642-.311085-2.864443l.17603 1.566381c-.104957-.973469-.217962-1.94486-.338951-2.914109l.162921 1.347728c-.114264-.977051-.236638-1.951965-.367056-2.924677l.204135 1.576949c-.114584-.917937-.236328-1.833953-.365178-2.747995l.161043 1.171046c-.125702-.937534-.258877-1.873023-.399466-2.80641l.238423 1.635364c-.140492-.996629-.289433-1.990911-.44675-2.982776l.208327 1.347412c-.141658-.940487-.290844-1.878839-.447497-2.814997l.23917 1.467585c-.148125-.933912-.303676-1.865682-.466595-2.795252l.227425 1.327667c-.161628-.965886-.331204-1.929436-.508663-2.890587l.281238 1.56292c-.161347-.920599-.32992-1.839041-.50566-2.755268l.224422 1.192348c-.172735-.935562-.352939-1.868851-.54055-2.799806l.316128 1.607458c-.186649-.973097-.381383-1.943697-.584134-2.911731l.268006 1.304273c-.187254-.929183-.381887-1.856041-.58384-2.780515l.315834 1.476242c-.191562-.914616-.39028-1.826941-.596096-2.73692l.280262 1.260678c-.204491-.936095-.416485-1.869747-.635921-2.800893l.355659 1.540215c-.211496-.935088-.430486-1.867698-.656908-2.797768l.301249 1.257553c-.217317-.922151-.441931-1.841846-.673782-2.759024l.372533 1.501471c-.225575-.926593-.458527-1.850665-.698792-2.772155l.326259 1.270684c-.234077-.925982-.47553-1.849398-.724297-2.770188l.398038 1.499504c-.236159-.905742-.479385-1.80899-.729616-2.709685l.331578 1.210181c-.253344-.937732-.514273-1.872739-.782721-2.804957l.451143 1.594776c-.254959-.91771-.517191-1.83277-.786635-2.745119l.335492 1.150343c-.254164-.882618-.515069-1.762736-.782657-2.640298l.447165 1.489955c-.272802-.923725-.552997-1.84467-.840518-2.762774l.393353 1.272819c-.274573-.90047-.556183-1.79825-.844769-2.69328l.451416 1.420461c-.281872-.900064-.570786-1.797397-.866681-2.691939l.415265 1.271478c-.302979-.939671-.613649-1.876312-.931936-2.809852l.516671 1.538374c-.293526-.887383-.593922-1.772019-.901126-2.653849l.384455 1.115475c-.307842-.902901-.62281-1.802902-.944841-2.69994l.560386 1.584465c-.3098-.889279-.626523-1.775704-.95011-2.659216l.389724 1.074751c-.321515-.895602-.65007-1.78825-.985603-2.677884l.595879 1.603133c-.325268-.888101-.657471-1.773259-.996546-2.655413l.400667 1.05228c-.441293-1.17005-.894654-2.334885-1.35994-3.494364l.959273 2.442084c-.334923-.871353-.676551-1.739775-1.024825-2.605207l.065552.163123c-.281508-.701513-.567382-1.401065-.857588-2.098626l.792036 1.935503c-.355471-.883319-.717865-1.763524-1.087118-2.640552l.295082.705049c-.819987-1.97098-1.674566-3.926061-2.563014-5.864536-.113457-.247551-.227777-.4955-.34265-.743175l.34265.743175c-.397694-.867716-.802175-1.732105-1.213377-2.593103l.870727 1.849928c-.458983-.9896-.926808-1.97483-1.403378-2.955595l.532651 1.105667c-.399514-.836523-.805372-1.669846-1.217516-2.499911l.684865 1.394244c-.402146-.827602-.810518-1.652025-1.225059-2.473213l.540194 1.078969c-.413914-.83363-.834167-1.663973-1.260701-2.490971l.720507 1.412002c-.415051-.822199-.836287-1.641154-1.263648-2.456809l.543141 1.044807c-.44083-.854718-.888367-1.705862-1.342546-2.553369l.799405 1.508562c-.449038-.857026-.904839-1.710409-1.367335-2.560082l.56793 1.05152c-.428203-.799036-.862309-1.594839-1.302263-2.387353l.734333 1.335833c-.469071-.861752-.945029-1.719689-1.427804-2.57374l.693471 1.237907c-.456071-.821547-.918426-1.639561-1.387002-2.453982l.693531 1.216075c-.468656-.829075-.943736-1.65449-1.425175-2.47618l.731644 1.260105c-.466273-.810415-.938706-1.617272-1.417239-2.420511l.685595 1.160406c-.46967-.801605-.945392-1.599665-1.427107-2.394123l.741512 1.233717c-.49475-.830459-.996021-1.657051-1.503744-2.47971l.762232 1.245993c-.461583-.761258-.928668-1.519208-1.401202-2.273798l.63897 1.027805c-.498025-.806946-1.002259-1.610108-1.512638-2.409423l.873668 1.381618c-.495108-.790639-.996198-1.57759-1.503209-2.360794l.629541.979176c-.501759-.785816-1.009458-1.567915-1.523035-2.346236l.893494 1.36706c-.521291-.805263-1.048842-1.606565-1.582587-2.403842l.689093 1.036782c-.513934-.778863-1.033755-1.553944-1.559402-2.325184l.870309 1.288402c-.531867-.794473-1.069885-1.584948-1.613988-2.371364l.743679 1.082962c-.514162-.754389-1.033899-1.505102-1.559153-2.252086l.815474 1.169124c-.537605-.777024-1.081151-1.550084-1.630574-2.319118l.8151 1.149994c-.549234-.781085-1.1045-1.558092-1.665735-2.330956l.850635 1.180962c-.544385-.761981-1.09454-1.52001-1.650404-2.274027l.799769 1.093065c-.540458-.744253-1.08645-1.484665-1.637918-2.22118l.838149 1.128115c-.564979-.766382-1.135857-1.528619-1.712568-2.286649l.874419 1.158534c-.568518-.759284-1.142856-1.514426-1.722951-2.265364l.848532 1.10683c-.559963-.736017-1.125427-1.468068-1.696331-2.196096l.847799 1.089266c-.584207-.756261-1.174253-1.508258-1.770073-2.255928l.922274 1.166662c-.579429-.738897-1.164463-1.47365-1.75504-2.204198l.832766 1.037536c-.595878-.747743-1.197532-1.491159-1.804896-2.230182l.97213 1.192646c-.58559-.724381-1.176631-1.444627-1.773062-2.160681l.800932.968035c-.614056-.747166-1.233948-1.489844-1.85961-2.227966l1.058678 1.259931c-.602458-.723289-1.210416-1.442301-1.823811-2.156975l.765133.897044c-.624557-.736821-1.254865-1.469103-1.890854-2.196782l1.125721 1.299738c-.621483-.724096-1.248547-1.443739-1.881129-2.158866l.755408.859128c-.653082-.747235-1.312156-1.489615-1.97715-2.227072l1.221742 1.367944c-.607853-.687171-1.220802-1.370172-1.838788-2.048948l.617046.681004c-.658961-.730766-1.323735-1.456697-1.994252-2.177723l1.377206 1.496719c-.647221-.710887-1.299968-1.417139-1.958175-2.118693l.580969.621974c-.627879-.675176-1.260793-1.346052-1.898685-2.012571l1.317716 1.390597c-.642501-.684813-1.290205-1.36515-1.943051-2.04095l.625335.650353c-2.170022-2.267408-4.397652-4.484398-6.680617-6.648753-.210757-.199807-.422222-.399389-.634159-.59852l.634159.59852c-.693972-.657916-1.393057-1.31097-2.097191-1.959097l1.463032 1.360577c-.731771-.687555-1.469156-1.36973-2.21208-2.046452l.749048.685875c-.683791-.629402-1.372345-1.254159-2.065601-1.874214l1.316553 1.188339c-.763189-.695181-1.532224-1.384607-2.307024-2.068201l.990471.879862c-.71054-.635512-1.42602-1.266085-2.146379-1.891657l1.155908 1.011795c-.696028-.614094-1.39671-1.223482-2.101986-1.828106l.946078.816311c-.717247-.62287-1.439329-1.240782-2.166186-1.853675l1.220108 1.037364c-.742671-.636682-1.490438-1.268083-2.243232-1.894135l1.023124.856771c-.719616-.606788-1.443912-1.208657-2.172827-1.805548l1.149703.948777c-.732858-.609473-1.47048-1.213877-2.212805-1.813152l1.063102.864375c-.729725-.597555-1.464079-1.19012-2.203002-1.777638l1.1399.913263c-.741962-.598982-1.488622-1.192839-2.239917-1.781512l1.100017.868249c-.757982-.602672-1.520772-1.200031-2.288303-1.792016l1.188286.923767c-.722822-.566362-1.449935-1.127925-2.181282-1.684634l.992996.760867c-.756474-.583455-1.517554-1.161689-2.283178-1.73464l1.290182.973773c-.776919-.591397-1.558616-1.177317-2.345027-1.757695l1.054845.783922c-.75312-.563594-1.510638-1.122076-2.272493-1.675389l1.217648.891467c-.766235-.565488-1.536945-1.125714-2.312067-1.680618l1.094419.789151c-.772877-.561319-1.550218-1.117317-2.331961-1.667934l1.237542.878783c-.776109-.555612-1.556643-1.105888-2.341538-1.650768l1.103996.771985c-.782378-.551065-1.569165-1.09674-2.360299-1.636965l1.256303.86498c-.790904-.549051-1.586236-1.092623-2.385934-1.630654l1.129631.765674c-.784896-.535966-1.574071-1.066567-2.367463-1.591744l1.237832.82607c-.787473-.529807-1.57918-1.054241-2.375059-1.573244l1.137227.747174c-.816044-.540171-1.636551-1.074605-2.461453-1.603235l1.324226.856061c-.817171-.532888-1.638741-1.060049-2.464645-1.581421l1.140419.72536c-.76912-.492884-1.542062-.980723-2.318772-1.463466l1.178353.738106c-.802743-.506751-1.60958-1.008033-2.420452-1.503786l1.242099.76568c-.854067-.530821-1.712689-1.05548-2.575796-1.573908l1.333697.808228c-.801416-.489974-1.606773-.974547-2.416013-1.453663l1.082316.645435c-.838709-.503772-1.681652-1.00166-2.528764-1.493599l1.446448.848164c-.831042-.492025-1.666179-.978296-2.505348-1.45875l1.0589.610586c-.796392-.462485-1.596468-.919712-2.400175-1.371628l1.341275.761042c-.850065-.486693-1.704267-.967419-2.562541-1.442112l1.221266.68107c-.820664-.461452-1.645113-.917366-2.47329-1.367687l1.252024.686617c-.8443-.466965-1.69254-.928094-2.544658-1.383324l1.292634.696707c-.893947-.486084-1.792237-.96565-2.694797-1.438629l1.402163.741922c-.831285-.444101-1.666261-.88259-2.50487-1.315409l1.102707.573487c-.898442-.47082-1.801115-.935113-2.707948-1.392807l1.605241.81932c-.860824-.444285-1.725475-.882596-2.593892-1.314873l.988651.495553c-.955337-.482175-1.91529-.957027-2.879775-1.424475l1.891124.928922c-.8634-.42978-1.730522-.853595-2.601305-1.271386l.710181.342464c-.803157-.389257-1.609456-.77338-2.41885-1.152321l1.708669.809857c-.885127-.424672-1.774036-.84312-2.666664-1.255281l.957995.445424c-.74861-.350483-1.499869-.696534-2.253736-1.038114l1.295741.59269c-1.526921-.705039-3.064723-1.391679-4.613082-2.059608-.224606-.09689-.449239-.193303-.674094-.289322l.674094.289322c-.698422-.301284-1.398993-.598761-2.101681-.892402l1.427587.60308c-.892726-.381218-1.788932-.756226-2.688556-1.124962l1.260969.521882c-.860187-.359456-1.723549-.713164-2.59003-1.06107l1.329061.539188c-.906875-.371708-1.817223-.737043-2.730983-1.095945l1.401922.556757c-.846937-.340058-1.696855-.674574-2.549703-1.003497l1.147781.44674c-.915928-.359753-1.835283-.713041-2.758002-1.059803l1.610221.613063c-.88385-.34088-1.770846-.675754-2.660934-1.004566l1.050713.391503c-.924523-.347441-1.852424-.688329-2.783637-1.022603l1.732924.6311c-.930421-.343712-1.864218-.680801-2.801329-1.011204l1.068405.380104c-.91039-.326799-1.823946-.647276-2.74061-.961374l1.672205.58127c-.994784-.350737-1.993301-.69394-2.995475-1.029534l1.32327.448264c-.901752-.308988-1.806511-.611803-2.71422-.908388l1.39095.460124c-.948135-.317498-1.899542-.628186-2.854157-.931998l1.463207.471874c-.947852-.309702-1.898922-.612611-2.853145-.908665l1.389938.436791c-.908723-.289208-1.820352-.572185-2.73483-.848879l1.344892.412088c-.955605-.296484-1.914371-.586092-2.876235-.868761l1.531343.456673c-.942329-.285119-1.887684-.563566-2.836003-.83528l1.30466.378607c-.926876-.272388-1.856628-.538333-2.789197-.797778l1.484537.419171c-.957047-.274214-1.917114-.541571-2.880137-.802008l1.3956.382837c-.969011-.269584-1.941064-.53215-2.916094-.787636l1.520494.404799c-.940466-.254337-1.883751-.502075-2.829796-.743157l1.309302.338358c-.967015-.253385-1.936959-.499806-2.909768-.7392l1.600466.400842c-.969112-.246959-1.94112-.486934-2.915962-.719861l1.315496.319019c-.941646-.231725-1.885976-.456866-2.832934-.675367l1.517438.356348c-.975772-.233149-1.954382-.459238-2.935767-.678205l1.418329.321857c-.977297-.225502-1.957393-.443932-2.940223-.655227l1.521894.33337c-.974911-.217522-1.95256-.428015-2.932885-.631418l1.410991.298048c-.976312-.209894-1.955322-.412749-2.936969-.608503l1.525978.310455c-.961593-.199517-1.92576-.392212-2.892444-.578029l1.366466.267574c-1.006638-.200738-2.016049-.394009-3.028165-.579748l1.661699.312174c-.978402-.188069-1.959382-.369092-2.942878-.543009l1.281179.230835c-.962898-.176708-1.928245-.346598-2.895983-.509615l1.614804.27878c-1.01044-.178681-2.023536-.349862-3.039222-.513477l1.424418.234697c-.995391-.167675-1.993312-.328078-2.9937-.481148l1.569282.246451c-.973732-.156858-1.949844-.306762-2.928278-.449656l1.358996.203205c-1.041913-.159425-2.086503-.310895-3.133697-.454341l1.774701.251136c-.992757-.144985-1.987903-.282754-2.98538-.413247l1.210679.162111c-.961484-.131706-1.925165-.256648-2.890987-.374772l1.680308.212661c-1.027785-.134458-2.058043-.26119-3.090709-.380133l1.410401.167472c-.986407-.120642-1.975047-.234174-2.965863-.340537l1.555462.173065c-.995415-.114653-1.993067-.222067-2.992896-.322185l1.437434.14912c-1.164562-.125015-2.332129-.240127-3.502605-.345244l2.065171.196124c-.989721-.099106-1.981576-.191062-2.975505-.275812l.910334.079688c-4.406409-.395728-8.854059-.649803-13.33789-.757289-105.210245-2.522072-190.5 80.72314-190.5 185.933385zm111.766904-192.427954-3.045803.239534c-94.953992 8.031309-168.721101 82.264114-168.721101 174.382503v564.392316c0 14.253699 8.010709 26.16487 20.024774 32.251386l-.053106.694768 23.749315 8.985134c-2.406725-6.488545-3.720983-13.562468-3.720983-21.017687v-567.5c0-88.435346 54.528972-162.929343 131.766904-192.427954zm83.673154 392.416933c52.678876-.312168 95.559942 40.632125 95.559942 91.638615v137.391667c0 50.678421-42.381085 94.702084-94.722595 98.783489-53.02445 4.134658-96.277405-35.745585-96.277405-88.80275v-143c0-52.719637 42.720195-95.695004 95.440058-96.011021zm.1192 19.996823c-41.720645.252906-75.559258 34.293642-75.559258 76.014198v143c0 41.383527 33.306353 72.092769 74.722595 68.863277 42.099183-3.282744 76.277405-38.785623 76.277405-78.844016v-137.391667c0-39.729823-33.677722-71.886453-75.440742-71.641792zm49.440742 201.033695c0 27.597408-22.732257 51.163784-50.847771 53.001474-28.658353 1.87317-52.152229-19.858786-52.152229-48.36642 0-28.064687 22.802671-51.704061 51.037237-53.012054 28.547608-1.322494 51.962763 20.336644 51.962763 48.377zm-51.037237-28.398426c-17.605068.815571-31.962763 15.700095-31.962763 33.03348 0 16.890438 13.666489 29.53201 30.847771 28.409005 17.724121-1.158486 32.152229-16.116007 32.152229-33.044059 0-16.485105-13.745211-29.199495-31.037237-28.398426zm43.037237-100.353849v12.62134l-83 2.360231v-12.868811zm0-23.300937v12.621341l-83 1.903362v-12.868811zm-25.269352-401.534739c75.564942 9.278209 128.351037 82.922182 118.377498 164.150139-9.973539 81.227956-79.007751 139.914277-154.572693 130.636068-75.564943-9.278208-128.351038-82.922181-118.377499-164.150138s79.007751-139.914277 154.572694-130.636069zm-66.155164 31.40026 49.366726-2.757579c.982245-.054874 1.939286.033941 2.850676.248161 4.718043-.078185 9.490878.168898 14.297214.759042 60.49032 7.427277 102.685947 66.296069 94.723027 131.148848-7.405516 60.313083-55.652445 105.109267-111.026541 105.111016l-.190109.032622c-.709889.114096-1.443126.152912-2.190663.108416l-53.457474-3.179411c11.602067 6.214569 24.389483 10.38974 38.024499 12.063909 64.217924 7.88497 123.614-42.607925 132.284384-113.222532 8.670384-70.614608-36.746039-133.976859-100.963962-141.861829-22.48756-2.761125-44.383851 1.636222-63.717777 11.549337zm-37.271588 105.024603c-6.659764 54.239429 28.166191 102.826499 77.309491 108.860538 49.143301 6.034038 94.689052-32.684627 101.348817-86.924056 6.659764-54.239429-28.166191-102.826499-77.309491-108.860538-49.143301-6.034039-94.689052 32.684627-101.348817 86.924056zm25.491508-84.337813-17.237614.965835c-.273952.015305-.545943.019432-.81553.012779-20.474231 20.170967-34.806464 48.025605-38.733383 80.007792-5.151122 41.952521 8.788303 81.345241 34.41908 108.065578l18.530754 1.102074c-29.832304-24.447655-46.814034-65.021028-41.505738-108.253632 4.170147-33.963118 21.290981-63.005875 45.342431-81.900426z"/></svg>