<?xml version="1.0" encoding="UTF-8"?>
<svg width="960px" height="960px" viewBox="0 0 960 960" version="1.1" xmlns="http://www.w3.org/2000/svg" xmlns:xlink="http://www.w3.org/1999/xlink">
    <!-- Generator: Sketch 60.1 (88133) - https://sketch.com -->
    <title>com.sonoff/driver/basiczbr3/assets/icon</title>
    <desc>Created with Sketch.</desc>
    <g id="com.sonoff/driver/basiczbr3/assets/icon" stroke="none" stroke-width="1" fill="none" fill-rule="evenodd">
        <path d="M871,243 C917.944204,243 956,281.055796 956,328 L956,328 L956,633 C956,679.944204 917.944204,718 871,718 L871,718 L89,718 C42.0557963,718 4,679.944204 4,633 L4,633 L4,328 C4,281.055796 42.0557963,243 89,243 L89,243 Z M871,283 L89,283 C64.1471863,283 44,303.147186 44,328 L44,328 L44,416 L78,416 C92.7625714,416 104.757951,427.847754 104.996383,442.553506 L105,443 L105,517 C105,531.911688 92.9116882,544 78,544 L78,544 L44,544 L44,633 C44,657.604286 63.7462573,677.596586 88.2558427,677.993971 L89,678 L871,678 C895.852814,678 916,657.852814 916,633 L916,633 L916,544 L882,544 C867.088312,544 855,531.911688 855,517 L855,443 C855,428.088312 867.088312,416 882,416 L916,416 L916,328 C916,303.395714 896.253743,283.403414 871.744157,283.006029 L871,283 Z M680,307 C705.957383,307 727,328.042617 727,354 L727,608 C727,633.957383 705.957383,655 680,655 L270,655 C244.042617,655 223,633.957383 223,608 L223,354 C223,328.042617 244.042617,307 270,307 L680,307 Z M680,327 L270,327 C255.237429,327 243.242049,338.847754 243,353.553506 L243,608 C243,622.762571 254.847754,634.757951 269.553506,634.996383 L270,635 L680,635 C694.762571,635 706.757951,623.152246 707,608.446494 L707,354 C707,339.237429 695.152246,327.242049 680.446494,327.003617 L680,327 Z M78,436 L44,436 L44,524 L78,524 C81.7854517,524 84.8690987,520.995217 84.995941,517.24065 L85,517 L85,443 C85,439.134007 81.8659932,436 78,436 L78,436 Z M916,436 L882,436 C878.134007,436 875,439.134007 875,443 L875,517 C875,520.865993 878.134007,524 882,524 L916,524 L916,436 Z" id="Combined-Shape" fill="#000000" fill-rule="nonzero"></path>
        <circle id="Oval" fill="#000000" cx="539" cy="592" r="20"></circle>
        <circle id="Oval" fill="#000000" cx="605.5" cy="592.5" r="16.5"></circle>
        <circle id="Oval" fill="#000000" cx="647.5" cy="592.5" r="16.5"></circle>
    </g>
</svg>