<svg height="960" viewBox="0 0 960 960" width="960" xmlns="http://www.w3.org/2000/svg"><path d="m458.990441 263.843628c3.233698 3.798528 5.009559 8.624159 5.009559 13.612707v405.325178c0 11.59798-9.40202 21-21 21-4.835504 0-9.522858-1.668749-13.270502-4.724442l-131.299498-107.05715-143.43.000079c-18.777681 0-34-15.222319-34-34v-151c0-18.777681 15.222319-34 34-34l143.371-.000079 131.016293-111.534027c8.831277-7.518091 22.085058-6.453543 29.603148 2.377734zm98.114835 70.579356 117.396865 117.396135 117.397593-117.396135c7.72071-7.720711 20.183316-7.809454 28.013036-.266232l.271235.266232c7.810486 7.810485 7.810486 20.473785 0 28.284271l-117.397864 117.396864 117.397864 117.397594c7.810486 7.810486 7.810486 20.473785 0 28.284271-7.810485 7.810486-20.473785 7.810486-28.284271 0l-117.397593-117.397865-117.396865 117.397865c-7.72071 7.72071-20.183316 7.809454-28.013035.266231l-.271236-.266231c-7.810486-7.810486-7.810486-20.473785 0-28.284271l117.396136-117.397594-117.396136-117.396864c-7.810486-7.810486-7.810486-20.473786 0-28.284271 7.810486-7.810486 20.473785-7.810486 28.284271 0z" fill-rule="evenodd"/></svg>