<svg height="960" viewBox="0 0 960 960" width="960" xmlns="http://www.w3.org/2000/svg"><path d="m480 591c62.408177 0 113-50.144108 113-112s-50.591823-112-113-112-113 50.144108-113 112 50.591823 112 113 112zm0-519c142.35036 0 272.102083 73.877434 346.555624 190.365607l7.700268-77.963286c1.08577-10.992201 10.8769-19.022949 21.869101-17.937179s19.02295 10.876901 17.937179 21.869102l-14.346923 145.246416c-1.297616 13.136894-14.741774 21.435365-27.066754 16.707085l-131.581756-50.479225c-10.312838-3.956354-15.465786-15.523821-11.509432-25.836659 3.956355-10.312839 15.523821-15.465787 25.83666-11.509432l84.118364 32.268984c-65.965577-111.415475-186.707365-182.731413-319.512331-182.731413-135.299127 0-256.687279 70.996516-321.623915 183.122419l85.144293-32.65999c10.312838-3.956355 21.880305 1.196593 25.836659 11.509432 3.956355 10.312838-1.196593 21.880305-11.509432 25.836659l-131.581755 50.479225c-12.32498 4.72828-25.769139-3.570191-27.0667541-16.707085l-14.3469236-145.246416c-1.0857704-10.992201 6.9449782-20.783332 17.9371787-21.869102 10.992201-1.08577 20.783332 6.944978 21.869102 17.937179l7.573002 76.709235c73.797484-116.280165 203.7764-189.111556 347.768545-189.111556z" fill-rule="evenodd"/></svg>