<svg height="960" viewBox="0 0 960 960" width="960" xmlns="http://www.w3.org/2000/svg"><path d="m847 847h113v5.770478c0 59.22123-48.008292 107.229522-107.229522 107.229522h-5.770478zm-121 0h113v113h-113zm-121 0h113v113h-113zm-121 0h113v113h-113zm-120 0h113v113h-113zm-121 0h113v113h-113zm-121 0h113v113h-113zm-121 0h113v113h-5.770478c-59.2212296 0-107.229522-48.008292-107.229522-107.229522zm846-121h113v113h-113zm-121 0h113v113h-113zm-242 0h113v113h-113zm-120 0h113v113h-113zm-242 0h113v113h-113zm-121 0h113v113h-113zm846-121h113v113h-113zm-121 0h113v113h-113zm-242 0h113v113h-113zm-120 0h113v113h-113zm-242 0h113v113h-113zm-121 0h113v113h-113zm846-121h113v113h-113zm-121 0h113v113h-113zm-604 0h113v113h-113zm-121 0h113v113h-113zm846-120h113v113h-113zm-121 0h113v113h-113zm-242 0h113v113h-113zm-120 0h113v113h-113zm-242 0h113v113h-113zm-121 0h113v113h-113zm846-121h113v113h-113zm-121 0h113v113h-113zm-242 0h113v113h-113zm-120 0h113v113h-113zm-242 0h113v113h-113zm-121 0h113v113h-113zm846-121h113v113h-113zm-121 0h113v113h-113zm-121 0h113v113h-113zm-483 0h113v113h-113zm-121 0h113v113h-113zm846-121h5.770478c59.22123 0 107.229522 48.0082924 107.229522 107.229522v5.770478h-113zm-121 0h113v113h-113zm-121 0h113v113h-113zm-121 0h113v113h-113zm-120 0h113v113h-113zm-121 0h113v113h-113zm-121 0h113v113h-113zm-13.770478 0h5.770478v113h-113v-5.770478c0-59.2212296 48.0082924-107.229522 107.229522-107.229522z" fill-rule="evenodd"/></svg>