<svg height="960" viewBox="0 0 960 960" width="960" xmlns="http://www.w3.org/2000/svg"><g fill="none" fill-rule="evenodd"><path d="m500 1c100.164893 0 192.18779 46.0519351 247.010467 121.533462l.571533.795538.029767.034151c38.857443 45.991608 60.939329 106.274961 61.381463 170.179469l.00677 1.95738c0 38.308799-7.754087 75.483055-22.483901 109.301839l-.263099.598161-.060671.548519c-5.45942 48.738659-10.190354 89.676384-14.212088 122.968647l-.140005 1.158257c-4.206236 34.776249-6.0513 49.227059-9.634806 73.57589-5.236681 35.581648-11.18999 69.212114-18.196188 101.070472-18.107104 82.336053-41.120168 144.557597-73.066101 182.744837-15.718464 18.789395-32.280758 33.059383-53.333846 44.141726-24.254981 12.767821-52.968421 20.209617-87.680614 22.398251-2.926919.184545-5.912091.384099-9.481182.6317l-.773934.053804c-15.989876 1.113906-22.150192 1.542439-26.716072 1.780699l-.339581.01752c-.112282.005727-.223697.011342-.334373.016854l-.329938.016232-.326275.015659c-.108233.005129-.215985.01017-.323384.01513l-.412774.018753c-1.920658.085809-3.780497.148842-6.329942.234216-13.315859.445913-24.849112.144322-36.266992-1.146214-34.727572-3.925176-66.703834-17.136714-104.82537-43.825688-48.50895-33.961225-80.989128-88.460767-98.197118-161.529446-.230701-.979603-.424349-1.967563-.580531-2.961772-14.483988-92.200603-24.203054-166.294353-29.157834-222.463953-4.680353-53.05857-8.656691-130.36473-11.960924-232.163327l-.080457-2.503766-.079607-1.28226c-.236034-4.093967-.370421-8.21347-.404-12.356987l-.008393-2.073753v-.592407c.350562-151.700781 134.019511-272.907593 297-272.907593zm0 40c-53.977061 0-104.067572 15.1187155-145.421462 40.949522-31.493284 33.738079-52.230581 68.808082-62.343702 105.214847-12.422891 44.721824-16.372551 118.340641-11.639829 220.418572l.285367 4.56135c9.614079 153.667416 20.839224 265.740976 33.632213 336.044693l.392112 2.139107c9.139476 49.4931 24.17976 90.793479 45.05744 123.980901 2.111227 1.641426 4.260695 3.227605 6.447467 4.75857 65.890753 46.130265 98.906248 38.933503 161.002038 35.018309s91.12831-26.317867 112.851393-52.285009c60.912744-72.813323 83.825741-270.048311 91.866612-336.52849 3.008534-24.873908 6.41485-54.047142 10.220614-87.518549-38.133946 54.806583-97.811339 90.205662-165.258602 90.205662-115.985499 0-208.994044-104.681683-208.994044-232.713944 0-128.032262 93.008545-232.7139448 208.994044-232.7139448 13.954737 0 27.57687 1.5153281 40.74443 4.4043361-35.296568-16.5749442-75.363121-25.9359323-117.836091-25.9359323zm-212.283591 101.849933-1.748652 2.348781c-27.05191 36.890375-42.857725 81.171754-42.967757 128.801286v.5c0 4.645752.14933 9.259814.451854 13.838376 3.301992 102.645744 7.277594 180.321385 11.926805 233.026923 4.863294 55.132462 14.47261 128.389526 28.827948 219.771191 6.376009 27.073849 14.939852 50.909488 25.69153 71.506916-5.91881-18.235406-10.804222-37.798273-14.660919-58.683486-13.267441-71.847306-24.78957-186.883295-34.61231-345.29495l-.008439-.155748c-4.823171-104.028777-.776879-179.448751 12.348026-226.697795 3.664113-13.190634 8.583043-26.177847 14.751914-38.961494zm283.38053 529.960587c28.363639 8.133143 43.448462 40.210477 34.54721 71.252833s-38.692306 50.251739-67.055944 42.118596c-28.363639-8.133142-43.448463-40.210476-34.54721-71.252832 8.901252-31.042356 38.692305-50.251739 67.055944-42.118597zm-47.83071 47.631344c-6.00822 20.953152 3.702292 41.602206 20.834723 46.514851 17.132431 4.912646 36.309744-7.452958 42.317963-28.406109 6.00822-20.953152-3.702293-41.602206-20.834723-46.514852-17.132431-4.912645-36.309744 7.452958-42.317963 28.40611zm53.825432-637.9102678c-104.378529 0-188.994044 95.2352768-188.994044 212.7139448 0 117.478667 84.615515 212.713944 188.994044 212.713944 104.378528 0 188.994044-95.235277 188.994044-212.713944 0-117.478668-84.615516-212.7139448-188.994044-212.7139448zm35.920778 31.7317588c92.824085 14.228941 154.341746 107.476711 137.910717 207.880855-16.419115 100.331341-104.562053 170.507896-197.302377 156.291794-56.857415-8.715634-101.968929-47.078454-124.615428-98.573352-.057158-.125406-.115056-.251651-.171199-.380076-7.792802-17.825674-12.80946-37.017252-14.803331-56.863718-.013946-.138818-.025037-.277057-.033328-.414672-1.549944-15.714681-1.213662-31.963436 1.211458-48.425957.014104-.106331.028982-.212771.045602-.319392l.453017-2.904351c2.587285-15.80733 6.988025-31.071013 13.075635-45.52986.044379-.105406.089939-.209374.13665-.311911 31.680722-74.879243 106.267908-122.379051 184.092584-110.44936zm33.594285 264.534086c-23.092443 37.947279-59.218425 65.635546-100.497241 77.633208l-.371552.109926c3.579676.849275 7.218739 1.560017 10.913238 2.126344 58.386552 8.950035 115.152043-20.527135 148.057389-71.017481-.886138.23935-1.81775.362571-2.779235.349661-2.120702-.028477-4.078341-.715081-5.681212-1.862888zm-99.227581-239.929622c-42.991517 13.437959-79.819952 47.032759-99.382101 92.090181l.002958 44.04192c0 5.523177-4.477586 10.00008-10.000762 10.00008l-4.034615-.000304c-.983257 9.745909-1.15972 19.374125-.584723 28.802296l7.229666 1.953477c4.361515 1.179019 7.390434 5.136073 7.390434 9.654136l-.006417 47.945745c13.356199 29.525258 35.016086 53.953939 62.314161 69.319022.148514-.0227.295981-.037073.44445-.048258 48.096829-3.623349 92.129898-31.174818 118.139663-73.199598-.120404-.619491-.182861-1.256709-.182861-1.906797v-61.003016c0-5.522848 4.477153-10 10-10l13.83776-.000652c.509095-6.703577.596716-13.389331.268305-20.027007l-14.486523-.550927c-5.370921-.204489-9.619542-4.617948-9.619542-9.99276v-58.234881c0-1.824387.489364-3.537512 1.345608-5.012863-18.918596-30.725413-48.013974-53.516483-82.468164-63.761439zm108.831853 177.648884h-7.502v42.372l43.523004 6.434297.595-44.292zm76.47888-44.574335-.030821.098227c-1.267561 4.207504-5.251986 7.289041-9.960658 7.109766l-16.551939-.629838c-1.007821.324668-2.084789.493541-3.202107.478581-1.291364-.017291-2.522275-.278616-3.649444-.739515l-26.426205-1.0065c.277722 7.006629.144106 14.055043-.405425 21.116327l50.556186 6.233334c5.209234.642241 8.983146 5.180819 8.768788 10.32939 2.07316-14.639148 2.310648-29.060401.901625-42.989772zm-38.902876-56.009368-45.078004 1.458424v38.927l12.414004.472576.199953-.018284c.855188-.066137 1.694839-.022121 2.504558.12039l29.396489 1.119894zm-108.097364-83.449698-1.501822.050904c27.400993 14.777701 50.22203 37.198382 65.932625 64.800985l52.602381-1.70054c.991942-.032085 1.964283.083182 2.891563.329675-21.984685-32.639664-55.545173-55.786952-95.632334-61.931885-8.149206-1.249187-16.266833-1.749783-24.292413-1.549139z" fill="#000" fill-rule="nonzero"/><g stroke="#000" stroke-linecap="round" stroke-linejoin="round" stroke-width="20" transform="translate(121.2649 139.0657)"><path d="m99.0635169 275.086566c-5.9475716-4.641198-11.0502687-9.517755-15.3080913-14.629669l-.5278274-.640215c-6.5981745-8.085825-15.2940688-21.897376-26.087683-41.434653l-.0007079-55.76993-8.0375637.242308v-36.050636l8.0375637-.340554.0007079-59.6758513c9.2737492-17.9920067 16.2940795-30.0994608 21.0609909-36.3223623l.1653736-.214691c8.948884-11.5522951 19.2652178-20.36584981 30.9490013-26.44066416l24.222185-2.41962865" transform="matrix(.99939083 .0348995 -.0348995 .99939083 4.880077 -3.102797)"/><path d="m99.0635169 275.086566c-5.9475716-4.641198-11.0502687-9.517755-15.3080913-14.629669l-.5278274-.640215c-6.5981745-8.085825-15.2940688-21.897376-26.087683-41.434653l-.0007079-55.76993-8.0375637.242308v-36.050636l8.0375637-.340554.0007079-59.6758513c9.2737492-17.9920067 16.2940795-30.0994608 21.0609909-36.3223623l.1653736-.214691c8.948884-11.5522951 19.2652178-20.36584981 30.9490013-26.44066416l24.222185-2.41962865" transform="matrix(.99939083 .0348995 -.0348995 .99939083 4.880077 -3.102797)"/><path d="m63.735085 67.934275 31-2"/><path d="m60.735085 218.934275 31 2"/><path d="m48.3678559 125.922076v35.853021l37.8902199-2.019347v-36.677048z" transform="matrix(.99939083 .0348995 -.0348995 .99939083 5.011632 -2.262427)"/><path d="m63.6221364 121.853352-41.8430914 1.481179c-11.7380465.415509-21.03855025 10.027956-21.03855025 21.744195 0 11.215838 9.11489027 20.30807 20.35867725 20.30807.2271556 0 .4542954-.003792.6813238-.011375l41.8416406-1.397575" transform="matrix(.99939083 .0348995 -.0348995 .99939083 5.031873 -1.035622)"/></g><g fill="#000"><path d="m586.776815 309.496901c10.721993 1.643567 20.966735-6.512965 22.882272-18.218124 1.915536-11.70516-5.223507-22.52644-15.9455-24.170007s-20.966735 6.512965-22.882272 18.218124c-1.915536 11.705159 5.223507 22.52644 15.9455 24.170007z"/><path d="m445.175015 315.811029c11.72718 1.797651 22.932366-7.123556 25.027484-19.926074 2.095118-12.802517-5.71321-24.638293-17.44039-26.435945-11.72718-1.797651-22.932367 7.123556-25.027485 19.926074-2.095118 12.802517 5.713211 24.638293 17.440391 26.435945z"/></g></g></svg>