<svg height="960" viewBox="0 0 960 960" width="960" xmlns="http://www.w3.org/2000/svg"><path d="m369.324292 7.13463422c74.226576-9.68429185 140.792647 9.32735198 184.090607 56.64519098l1.225853 1.3551263c.298765.3080268.593652.6218377.884515.9414235l369.057133 405.50245.449549.502197c.740894.841538 1.440027 1.705615 2.097552 2.589683l.373194.511074.070019.083702c37.226093 45.215296 40.683324 109.96552 15.379955 179.236067-23.733389 64.972568-71.894018 131.65091-135.932813 187.318985l-.135458.11722-3.652383 3.146363-.136155.116761c-63.740849 54.413834-135.719051 91.759453-202.510119 105.584775-72.764288 15.061741-136.703694 1.608537-175.725334-43.280725l-.201405-.233501c-.066834-.078092-.133367-.156441-.199598-.235046l-.708709-.842601-359.8608197-411.491395-.4331952-.503554c-.4282843-.506123-.8418402-1.019895-1.2407046-1.540788l-.0502806-.067263-.603868-.718868c-41.0038168-49.431102-50.6746765-118.047512-30.7849823-190.287625 19.1555559-69.573695 64.6620342-138.850208 128.4604124-194.309292 63.734932-55.403931 138.585545-90.811608 210.087035-100.14035978zm200.009949 561.25987678c-120.793986 105.00461-172.071339 244.058088-115.301402 311.678842l.048856.041426.889728 1.05867c.025768.02972.051557.059425.077367.089117l.486255.554814c.61913.700672 1.247896 1.390474 1.886171 2.069434.400968.426532.805974.849077 1.214705 1.267344l-1.214705-1.267344c.620344.659888 1.24967 1.309535 1.887856 1.948966l-.673151-.681622c.616093.630468 1.24065 1.251216 1.873559 1.862268l-1.200408-1.180646c.656534.657813 1.322445 1.304815 1.997605 1.941033l-.797197-.760387c.632051.610225 1.272432 1.21078 1.921034 1.801689l-1.123837-1.041302c.581679.54813 1.170223 1.088255 1.765548 1.620394l-.641711-.579092c.647772.590154 1.303744 1.170687 1.967805 1.741622l-1.326094-1.16253c.711888.636329 1.433472 1.261238 2.164611 1.874758l-.838517-.712228c.663592.570533 1.335262 1.131481 2.0149 1.682869l-1.176383-.970641c.677476.568488 1.363155 1.127198 2.056925 1.676152l-.880542-.705511c.686111.556639 1.380343 1.103534 2.082582 1.640709l-1.20204-.935198c.679312.537515 1.366382 1.065678 2.061103 1.584511l-.859063-.649313c.6939.530796 1.395619 1.052102 2.105049 1.563941l-1.245986-.914628c.790244.59017 1.590386 1.168269 2.400273 1.734329l-1.154287-.819701c.702795.507053 1.413157 1.004815 2.13098 1.493309l-.976693-.673608c.738029.515837 1.484149 1.021676 2.238242 1.517544l-1.261549-.843936c.731574.497851 1.470897.986076 2.217858 1.464698l-.956309-.620762c.702157.461716 1.411228.914787 2.127115 1.359233l-1.170806-.738471c.746603.478393 1.500837.947192 2.26259 1.406422l-1.091784-.667951c.763913.474262 1.535589.938702 2.31491 1.393346l-1.223126-.725395c.751166.452848 1.509643.896391 2.275325 1.330651l-1.052199-.605256c.780699.455446 1.569071.901062 2.365 1.336871l-1.312801-.731615c.770404.436938 1.548102.86448 2.332985 1.282647l-1.020184-.551032c.772938.423222 1.553004.837195 2.340089 1.241943l-1.319905-.690911c.795644.423901 1.598671.838169 2.408966 1.242829l-1.089061-.551918c.757568.389569 1.521639.770592 2.292119 1.143089l-1.203058-.591171c.799552.399294 1.606181.789233 2.419778 1.169839l-1.21672-.578668c.821189.397014 1.649659.784343 2.485292 1.162011l-1.268572-.583343c.817417.382394 1.641869.755368 2.473243 1.118945l-1.204671-.535602c.796196.359844 1.598896.710919 2.408 1.053245l-1.203329-.517643c.837072.366069 1.681162.722613 2.532157 1.069655l-1.328828-.552012c.834656.353136 1.676127.696962 2.524303 1.031501l-1.195475-.479489c.839666.342422 1.686054.675594 2.539056.999539l-1.343581-.52005c.874184.344798 1.755491.67973 2.643802 1.004824l-1.300221-.484774c.852509.323758 1.711625.6383 2.577238.943649l-1.277017-.458875c.843956.308861 1.694233.60884 2.55073.89996l-1.273713-.441085c.884082.311863 1.774942.614138 2.672465.906847l-1.398752-.465762c.86089.292614 1.728063.576278 2.601415.851013l-1.202663-.385251c.875427.285503 1.757193.561907 2.64519.829234l-1.442527-.443983c.921836.289987 1.850556.570028 2.786036.840148l-1.343509-.396165c.888249.267403 1.782733.525724 2.683345.774986l-1.339836-.378821c.893877.258106 1.793926.507155 2.700041.747169l-1.360205-.368348c.924165.25578 1.854782.502022 2.791736.73875l-1.431531-.370402c.890211.2358 1.786276.462881 2.688094.681262l-1.256563-.31086c.916705.231611 1.839476.454116 2.768204.667536l-1.511641-.356676c.944368.228685 1.895045.44783 2.851913.657461l-1.340272-.300785c.926355.212875 1.858636.416712 2.796737.611534l-1.456465-.310749c.96693.211836 1.940183.413956 2.919639.606386l-1.463174-.295637c.936324.194453 1.878445.379926 2.826256.55644l-1.363082-.260803c.953156.187263 1.912187.36535 2.87698.534284l-1.513898-.273481c.968363.180343 1.942666.351334 2.922793.513l-1.408895-.239519c.915103.160234 1.83539.312233 2.760768.456018l-1.351873-.216499c.980203.161678 1.966231.314029 2.957971.457076l-1.606098-.240577c.98278.152705 1.971302.296144 2.965452.430344l-1.359354-.189767c.965052.139198 1.935513.269587 2.911277.39119l-1.551923-.201423c1.005055.135672 2.015861.261899 3.032303.378707l-1.48038-.177284c.998423.124426 2.002399.239653 3.011815.345705l-1.531435-.168421c.983403.113012 1.97208.217207 2.965926.312607l-1.434491-.144186c.98873.103878 1.982679.198953 2.981741.285248l-1.54725-.141062c1.035182.099369 2.075971.189196 3.122249.269509l-1.574999-.128447c1.014993.087671 2.035263.166279 3.0607.235848l-1.485701-.107401c.996665.076504 1.99831.144374 3.004832.203632l-1.519131-.096231c1.030667.069924 2.066554.130716 3.107546.182401l-1.588415-.08617c1.012335.0596 2.029604.110489 3.0517.152688l-1.463285-.066518c1.035019.051389 2.075086.093774 3.12009.127181l-1.656805-.060663c1.060746.043795 2.126692.078231 3.197719.103333l-1.540914-.04267c1.024466.032749 2.053676.056869 3.087526.072381l-1.546612-.029711c1.039614.024366 2.084016.039938 3.133098.046738l-1.586486-.017027c2.109174.031647 4.237661.027468 6.384574-.012346l-1.630424.023418c1.083249-.011007 2.171288-.03118 3.264001-.060492l-1.633577.037074c1.075651-.019948 2.155927-.048841 3.240716-.086656l-1.607139.049582c1.060116-.028437 2.12463-.065477 3.193439-.111098l-1.5863.061516c1.081754-.037708 2.167996-.084289 3.258616-.139717l-1.672316.078201c1.091926-.046607 2.188333-.102169 3.289109-.166663l-1.616793.088462c1.091876-.055492 2.188139-.119853 3.288679-.193058l-1.671886.104596c1.080821-.063324 2.165854-.135259 3.254994-.215781l-1.583108.111185c1.095403-.072864 2.195043-.154489 3.29881-.244854l-1.715702.133669c1.13198-.08369 2.268396-.176656 3.409128-.278873l-1.693426.145204c1.081793-.088565 2.167551-.185525 3.25717-.290857l-1.563744.145653c1.101988-.098745 2.208004-.206124 3.31794-.322112l-1.754196.176459c1.14749-.110927 2.299263-.231139 3.455198-.36061l-1.701002.184151c1.082689-.113141 2.169109-.234475 3.259158-.363981l-1.558156.17983c1.126605-.126186 2.257165-.261168 3.391567-.404921l-1.833411.225091c1.144498-.135974 2.292998-.280956 3.445383-.434921l-1.611972.20983c1.106408-.140206 2.216471-.288756 3.330086-.445629l-1.718114.235799c1.133152-.151395 2.270061-.311476 3.410618-.48022l-1.692504.244421c1.168478-.1646 2.340866-.338364 3.517045-.521263l-1.824541.276842c1.126605-.166679 2.256769-.341811 3.390385-.525371l-1.565844.248529c1.121946-.174467 2.24734-.357246 3.376081-.548318l-1.810237.299789c1.167745-.189086 2.339154-.387117 3.514111-.594067l-1.703874.294278c1.147671-.194275 2.2988-.397123 3.45328-.608519l-1.749406.314241c1.163185-.204877 2.329848-.418496 3.499874-.640832l-1.750468.326591c1.168534-.21397 2.3405-.436698 3.515785-.668159l-1.765317.341568c1.131609-.215035 2.266365-.438225 3.404166-.669548l-1.638849.32798c1.184374-.233252 2.372118-.475373 3.563117-.726339l-1.924268.398359c1.16064-.235966 2.324449-.480395 3.491319-.733263l-1.567051.334904c1.181888-.249046 2.366982-.506801 3.555167-.773243l-1.988116.438339c1.172531-.254094 2.348152-.51671 3.526754-.787824l-1.538638.349485c1.154519-.258892 2.311958-.525985 3.472212-.801256l-1.933574.451771c1.219557-.280535 2.442305-.570169 3.668124-.868876l-1.73455.417105c1.151582-.273213 2.305938-.554484 3.462966-.843789l-1.728416.426684c1.193497-.290831 2.389904-.590262 3.58911-.89827l-1.860694.471586c1.206127-.301581 2.415158-.611895 3.626978-.930914l-1.766284.459328c1.167447-.299851 2.337545-.607831 3.510193-.923916l-1.743909.464588c1.21163-.31897 2.426049-.646644 3.643141-.982998l-1.899232.51841c1.205377-.324909 2.413447-.658382 3.624098-1.000397l-1.724866.481987c1.191748-.329349 2.38606-.66702 3.582826-1.01299l-1.85796.531003c1.18952-.336045 2.381531-.680335 3.575927-1.032849l-1.717967.501846c1.215739-.351455 2.434011-.711473 3.654705-1.080031l-1.936738.578185c1.231604-.363495 2.465745-.735734 3.702305-1.116691l-1.765567.538506c1.167626-.352536 2.337467-.712885 3.509424-1.081027l-1.743857.542521c1.224027-.377095 2.450424-.762734 3.679079-1.15689l-1.935222.614369c1.225037-.384815 2.452387-.778144 3.681935-1.179964l-1.746713.565595c1.207179-.387267 2.416536-.782757 3.627966-1.186448l-1.881253.620853c1.227883-.401275 2.457959-.811017 3.690116-1.229202l-1.808863.608349c1.216711-.40545 2.435512-.819172 3.656294-1.241143l-1.847431.632794c1.201659-.407834 2.405296-.823698 3.610808-1.24757l-1.763377.614776c1.253368-.433234 2.508824-.875163 3.76625-1.325762l-2.002873.710986c1.227754-.431692 2.457452-.871691 3.688984-1.319972l-1.686111.608986c1.223888-.43858 2.449642-.885374 3.677155-1.340357l-1.991044.731371c1.227244-.44672 2.456309-.901664 3.687087-1.364811l-1.696043.63344c1.220855-.452516 2.443449-.913134 3.667675-1.38183l-1.971632.74839c1.27529-.479896 2.552418-.968598 3.831263-1.466079l-1.859631.717689c1.204511-.461148 2.410602-.930117 3.61817-1.406884l-1.758539.689195c1.243735-.483824 2.489094-.975951 3.735966-1.476359l-1.977427.787164c1.255678-.495762 2.512953-.999956 3.771712-1.512558l-1.794285.725394c1.285267-.515817 2.572141-1.040432 3.8605-1.573818l-2.066215.848424c1.204285-.490419 2.409928-.988533 3.616829-1.494323l-1.550614.645899c1.219734-.504976 2.440798-1.017814 3.66309-1.538492l-2.112476.892593c1.288196-.539858 2.577825-1.08846 3.868765-1.64578l-1.756289.753187c1.232977-.52523 2.467203-1.058438 3.702571-1.599601l-1.946282.846414c1.229873-.530955 2.460936-1.069823 3.693084-1.616581l-1.746802.770167c1.242885-.544455 2.486926-1.096963 3.732015-1.6575l-1.985213.887333c1.269424-.563298 2.539999-1.134971 3.81161-1.714993l-1.826397.82766c1.28741-.579589 2.575941-1.167763 3.865472-1.764496l-2.039075.936836c1.228469-.560343 2.457905-1.128479 3.688204-1.704386l-1.649129.76755c1.230506-.569418 2.461923-1.14663 3.694147-1.731612l-2.045018.964062c1.276359-.597467 2.553647-1.203297 3.831748-1.817466l-1.78673.853404c1.261167-.598723 2.523179-1.205585 3.785925-1.820564l-1.999195.96716c1.234296-.593119 2.46935-1.194014 3.705057-1.802664l-1.705862.835504c1.281952-.624332 2.56466-1.25703 3.848007-1.898067l-2.142145 1.062563c1.265056-.623105 2.530796-1.254337 3.797109-1.893671l-1.654964.831108c1.173403-.58612 2.347341-1.179212 3.521723-1.779257l-1.866759.948149c1.307887-.660325 2.616386-1.329293 3.925373-2.006879l-2.058614 1.05873c1.181263-.603561 2.362977-1.214156 3.54505-1.831767l-1.486436.773037c1.253587-.648908 2.507622-1.30572 3.761995-1.970413l-2.275559 1.197376c1.367421-.714452 2.735322-1.438291 4.103564-2.171489l-1.828005.974113c1.227016-.650195 2.454356-1.30793 3.681919-1.973184l-1.853914.999071c1.304823-.699213 2.609955-1.406936 3.915275-2.123144l-2.061361 1.124073c1.262873-.68439 2.525981-1.376737 3.789215-2.077017l-1.727854.952944c1.291844-.708814 2.583872-1.425939 3.875965-2.151348l-2.148111 1.198404c1.234899-.684573 2.469918-1.376728 3.704953-2.076442l-1.556842.878038c1.34431-.754724 2.688691-1.518417 4.033009-2.291049l-2.476167 1.413011c1.261664-.714801 2.523345-1.437491 3.784933-2.168047l-1.308766.755036c1.197653-.688338 2.395257-1.383771 3.592717-2.086279l-2.283951 1.331243c1.276884-.739413 2.553673-1.486884 3.830253-2.242388l-1.546302.911145c1.182535-.693753 2.36493-1.394405 3.547095-2.101939l-2.000793 1.190794c1.298596-.768534 2.596975-1.54538 3.895017-2.330513l-1.894224 1.139719c1.219762-.730036 2.439279-1.467397 3.658451-2.212062l-1.764227 1.072343c1.242368-.751457 2.484426-1.510506 3.726071-2.277124l-1.961844 1.204781c1.292832-.789656 2.585276-1.587526 3.877213-2.393584l-1.915369 1.188803c1.251635-.772785 2.502849-1.553262 3.753534-2.341406l-1.838165 1.152603c1.300174-.811197 2.599835-1.630687 3.898861-2.458443l-2.060696 1.30584c1.264634-.796935 2.528728-1.601709 3.792169-2.4143l-1.731473 1.10846c1.198541-.763726 2.396541-1.534489 3.593906-2.312269l-1.862433 1.203809c1.262133-.811748 2.523615-1.631297 3.784335-2.458621l-1.921902 1.254812c1.297519-.842837 2.594291-1.693914 3.890195-2.553204l-1.968293 1.298392c1.241063-.814425 2.481387-1.636386 3.720867-2.465859l-1.752574 1.167467c1.437844-.953408 2.87462-1.916928 4.310163-2.890524l-2.557589 1.723057c1.239767-.829665 2.47869-1.666847 3.716661-2.511522l-1.159072.788465c1.074976-.729057 2.149261-1.463764 3.222785-2.204107l-2.063713 1.415642c1.300961-.887654 2.600872-1.783583 3.89961-2.687762l-1.835897 1.27212c1.267486-.874106 2.533912-1.756068 3.799163-2.645862l-1.963266 1.373742c1.216873-.847184 2.432716-1.701611 3.647427-2.563258l-1.684161 1.189516c1.230833-.865589 2.460555-1.738589 3.689059-2.618979l-2.004898 1.429463c1.273289-.903199 2.545334-1.814331 3.816019-2.733371l-1.811121 1.303908c1.175868-.842667 2.35062-1.692104 3.524166-2.548289l-1.713045 1.244381c1.230101-.889688 2.458927-1.786786 3.686372-2.691274l-1.973327 1.446893c1.597316-1.165358 3.192395-2.343218 4.785005-3.533533l-2.811678 2.08664c1.227737-.904703 2.454093-1.816797 3.678962-2.736262l-.867284.649622c1.060191-.792386 2.119288-1.59029 3.177222-2.393699l-2.309938 1.744077c1.27354-.956 2.545472-1.919968 3.815678-2.891876l-1.50574 1.147799c1.110315-.843187 2.21935-1.692438 3.327024-2.547734l-1.821284 1.399935c1.223001-.93579 2.444401-1.878942 3.664093-2.829434l-1.842809 1.429499c2.703895-2.087826 5.399685-4.211679 8.086217-6.371311.384666-.309223.769335-.619334 1.15381-.930179l-1.15381.930179c1.186932-.954143 2.372056-1.91527 3.555274-2.88336l-2.401464 1.953181c1.222299-.988219 2.442644-1.983852 3.660925-2.986876l-1.259461 1.033695c4.096209-3.351451 8.169567-6.78635 12.215946-10.303813 121.506554-105.624036 172.673893-245.699836 114.285451-312.868055s-204.222151-35.99362-325.728705 69.630416zm266.53232-91.88114c21.165518 4.558942 38.799168 14.02894 51.649289 28.811314 12.850122 14.782374 19.773829 33.562383 21.342733 55.156402 1.701483 23.418799-2.819292 49.348276-12.870695 76.865015-20.886597 57.179186-64.087349 116.595333-121.770983 166.738952-57.683635 50.143619-122.533932 84.654814-182.063506 97.38034-28.647833 6.123993-54.954136 6.992086-77.908225 2.047896-21.165518-4.558942-38.799167-14.028941-51.649288-28.811315-12.850122-14.782374-19.77383-33.562382-21.342733-55.156401-1.701483-23.418799 2.819292-49.348276 12.870695-76.865015 11.583627-31.711359 30.030574-64.110757 54.004974-95.234891.055834-.075061.112729-.149807.170252-.224395 17.089822-22.159851 36.873481-43.533937 58.856074-63.511716.339175-.307851.678613-.615555 1.018591-.92294.19858-.179859.397261-.359203.59612-.538432.221724-.199567.44331-.398956.665123-.598209.291823-.26236.584216-.524407.876987-.786205.301141-.269122.602835-.538294.904943-.807214.208836-.186012.41775-.371668.626853-.557197.310307-.275241.620791-.550084.931708-.824658.339205-.299602.679139-.599017 1.01957-.898096.142753-.125391.285583-.250739.428502-.37603.555833-.487278 1.112905-.973576 1.671286-1.458969.566258-.492241 1.133253-.983022 1.700976-1.472337l-1.700976 1.472337c.707347-.614888 1.415772-1.227424 2.125251-1.837599 7.343606-6.315932 14.80795-12.386343 22.372186-18.198616.06836-.050825.136051-.102806.203748-.154765 15.563896-11.948508 31.550465-22.802949 47.774001-32.451394l1.017102-.601451c.132982-.078618.265974-.157151.398976-.235599l.160576-.09473.05531-.032526c36.133062-21.285588 72.963936-36.293396 107.956356-43.77366 28.647833-6.123994 54.954136-6.992087 77.908224-2.047896zm-73.727322 21.606016c-26.950199 5.761094-55.622465 16.468915-84.515557 31.698583 2.618139 4.593846 3.45466 10.306351 1.419412 16.248271-10.104464 29.500055-31.733506 59.924183-60.780762 85.174578-28.126299 24.449818-60.096867 41.346848-89.92934 47.749082-6.184302 1.32719-11.7901-.208512-16.052027-3.393434-17.255529 24.760567-30.549497 49.795947-39.371205 73.94627-8.912537 24.398979-13.222469 47.7251-11.709186 68.553566 1.217221 16.753549 6.287609 31.748555 16.489503 43.484492 10.201895 11.735937 24.345308 18.843881 40.766409 22.3809 20.415156 4.397318 44.114095 3.375699 69.51601-2.054421 54.794895-11.713402 116.708581-43.875907 173.123228-92.916411 56.414646-49.040505 96.880868-105.875495 116.106251-158.50694 8.912538-24.398979 13.22247-47.725099 11.709187-68.553565-1.217222-16.75355-6.287609-31.748555-16.489503-43.484492-10.201895-11.735937-24.345308-18.843881-40.766409-22.3809-20.415157-4.397318-44.114095-3.375699-69.516011 2.054421zm-236.227932-405.092412c-68.981775-78.9706725-221.306595-59.117462-340.431689 44.436403-118.0500322 102.619327-159.2407523 248.964135-93.2134813 328.770565l1.7795582 2.096836-.0456949.039488 318.432653 364.131196c-11.880584-81.596438 43.780594-192.272632 143.780407-279.201144 98.847959-85.927219 214.644446-125.723634 293.744177-104.297833l-324.014371-356.002486zm134.210933 446.558428-1.576655.93178c-1.137548.676526-2.274928 1.359905-3.412047 2.05011-.108681.065968-.217295.131958-.325907.19801l.325907-.19801c-.554391.336503-1.10872.674629-1.662977 1.014374l1.33707-.816364c-.655093.398396-1.310098.799057-1.964995 1.201979l.627925-.385615c-.521262.31952-1.042459.640473-1.563583.962856l.935658-.577241c-.602685.370798-1.205281.743511-1.807771 1.118133l.872113-.540892c-.532677.329529-1.065278.660553-1.597793.993069l.72568-.452177c-.509339.316702-1.018604.63477-1.527786.9542l.802106-.502023c-.641834.400776-1.283543.803719-1.925111 1.208824l1.123005-.706801c-.5812.36461-1.162292.730996-1.743265 1.099154l.62026-.392353c-1.226972.774747-2.453429 1.557402-3.679256 2.347933-.989108.637871-1.977878 1.280918-2.966176 1.929075-.182226.119509-.364858.23947-.547473.359605l.547473-.359605c-.369698.242459-.739329.485634-1.108892.729522l.561419-.369917c-.608423.400255-1.216663.802448-1.824706 1.206573l1.263287-.836656c-.554813.366143-1.10947.733896-1.663961 1.103256l.400674-.2666c-.545459.36253-1.090761.726616-1.635893 1.092253l1.235219-.825653c-.632252.421158-1.264288.844406-1.896092 1.269739l.660873-.444086c-.484705.325108-.969277.651442-1.453709.979002l.792836-.534916c-.628612.423183-1.256994.848431-1.88513 1.275737l1.092294-.740821c-.510163.34496-1.020171.691278-1.530015 1.038953l.437721-.298132c-.500216.340285-1.000275.681875-1.50017 1.02477l1.062449-.726638c-1.889371 1.288408-3.776486 2.595444-5.660918 3.920988-.352177.247728-.703787.495768-1.0553.744452-.318168.225092-.636557.450925-.954864.677285l.954864-.677285c-.473157.334742-.94614.67065-1.418941 1.007724l.464077-.330439c-.515555.366632-1.030898.734648-1.546019 1.104047l1.081942-.773608c-.559978.399224-1.119701.800081-1.67916 1.202569l.597218-.428961c-.589664.422854-1.179038.847519-1.768108 1.273992l1.17089-.845031c-.579191.416685-1.158099.835118-1.736709 1.255295l.565819-.410264c-.594093.430109-1.187878.862058-1.781341 1.295841l1.215522-.885577c-.581616.422359-1.162933.84648-1.743936 1.272361l.528414-.386784c-.420798.307576-.841435.616075-1.261905.925495l.733491-.538711c-.595522.436522-1.190716.874892-1.785567 1.315106l1.052076-.776395c-.57217.421055-1.144031.843816-1.715571 1.268279l.663495-.491884c-.518336.383589-1.036412.768579-1.554219 1.154965l.890724-.663081c-.771987.573327-1.543389 1.14976-2.314176 1.72929l1.423452-1.066209c-1.33336.99495-2.664938 1.999166-3.994581 3.012605-.32413.247049-.648469.494893-.97269.743285l.97269-.743285c-.42682.325318-.85344.651586-1.279857.978803l.307167-.235518c-.52737.404029-1.05443.80951-1.581169 1.216439l1.274002-.980921c-.610747.468666-1.221075.939279-1.830969 1.411835l.556967-.430914c-.513281.396531-1.026257.794438-1.53892 1.193718l.981953-.762804c-.618126.478933-1.235806.959862-1.853023 1.442782l.87107-.679978c-.613853.47809-1.227256.958148-1.840195 1.44017l.969125-.760192c-.495909.388006-.99152.777298-1.486825 1.167872l.5177-.40768c-.538381.42339-1.076405.848294-1.614059 1.274711l1.096359-.867031c-.585346.461577-1.170264.924945-1.754742 1.390101l.658383-.52307c-2.40175 1.904842-4.796146 3.839863-7.182263 5.804803-.173928.143227-.348.286769-.522027.43047l.522027-.43047c-.512946.422405-1.025509.846192-1.537681 1.27136l1.015654-.84089c-.57751.476871-1.15453.955495-1.731048 1.435868l.715394-.594978c-.591626.491124-1.182729.984091-1.773295 1.478894l1.057901-.883916c-.532323.443549-1.064218.88859-1.595674 1.335119l.537773-.451203c-.523022.438212-1.045623.877865-1.567793 1.318956l1.03002-.867753c-.525428.441465-1.050426.884384-1.574987 1.328756l.544967-.461003c-.701473.592553-1.402168 1.187701-2.102061 1.785439l-1.76937 1.518109c-.541166.466464-1.081839.934478-1.622007 1.404039l-1.586254 1.384642c-.138352.121269-.276606.242585-.414763.363947-.370045.325063-.739022.650132-1.1073.975531l1.1073-.975531c-.620678.545227-1.239391 1.091393-1.856132 1.638482l.748832-.662951c-.501919.443479-1.002541.887571-1.501862 1.332266l.75303-.669315c-.550861.488648-1.10015.978032-1.64786 1.46814l.89483-.798825c-.454073.404397-.907069.809293-1.358987 1.214681l.464157-.415856c-.504342.451302-1.007347.903217-1.509009 1.355738l1.044852-.939882c-.62566.561242-1.249252 1.123428-1.870769 1.686541l.825917-.746659c-.490878.442793-.980471.886165-1.468775 1.330107l.642858-.583448c-2.243997 2.033127-4.460938 4.078334-6.650464 6.1348-.223613.210007-.447278.420465-.670655.63104l.670655-.63104c-1.063997.999337-2.12152 2.001333-3.172527 3.005894-.204751.195672-.40929.391504-.61358.587433l.61358-.587433c-.342112.326993-.683533.654258-1.024263.981791l.410683-.394358c-.49706.476714-.992653.954-1.486776 1.431848l1.076093-1.03749c-1.273517 1.224195-2.53737 2.452141-3.791483 3.683669-.268162.263266-.536582.527453-.804554.791803-.29425.290346-.588064.580921-.881336.871691l.881336-.871691c-.373172.368127-.745474.73657-1.116904 1.105325l.235568-.233634c-.918853.911013-1.832385 1.823935-2.740567 2.738698-.271115.272963-.541482.545929-.811373.819058l.811373-.819058c-.359819.362425-.718797.72514-1.076934 1.088139l.265561-.269081c-.434385.439594-.867535.879608-1.299447 1.320033l1.033886-1.050952c-1.264134 1.281296-2.517781 2.56614-3.76086 3.854344-.107934.111658-.2162.22396-.324385.336288l.324385-.336288c-.508985.527463-1.016198 1.055488-1.521633 1.584064l1.197248-1.247776c-.517686.537507-1.033532 1.075596-1.547533 1.614253l.350285-.366477c-.480848.502863-.960087 1.006224-1.437712 1.510073l1.087427-1.143596c-.474768.497542-.947962.995568-1.419577 1.494069l.33215-.350473c-2.436862 2.570655-4.83172 5.153999-7.183931 7.748573-.214272.235855-.428074.47216-.641521.708557l.641521-.708557c-.501091.552722-1.000246 1.105953-1.49746 1.65968l.855939-.951123c-.394362.436763-.787515.873839-1.179457 1.311222l.323518-.360099c-.421738.469672-.842079.9397-1.261019 1.410077l.937501-1.049978c-.48029.535975-.958762 1.072411-1.43541 1.609294l.497909-.559316c-3.343029 3.753477-6.596865 7.529104-9.759579 11.322507-.002983.002356-.005205.005021-.007427.007687l.007427-.007687c-3.610652 4.330667-7.102542 8.684501-10.472797 13.05499 25.602597-5.494082 54.621177-20.354904 81.002194-43.287572 27.230915-23.671474 46.336325-51.322776 54.981088-76.561224z"/></svg>