<svg height="960" viewBox="0 0 960 960" width="960" xmlns="http://www.w3.org/2000/svg"><path d="m172.887026 164.084482.798457.011577.371517.012186.244613-.005419c1.239792-.018758 2.481472-.018758 3.724618.005732l1.24362.030946 663.936335 20.393087c59.411318 1.824844 107.813775 49.912802 107.813775 108.574352v368.786114c0 58.66155-48.402457 106.749508-107.813775 108.574352l-210.206186 6.456659v32.634713c0 19.115612-6.959995 37.069798-18.937278 50.95264l-.061722.069824-.001 131.41907c-.000172 21.870355-17.552353 39.641095-39.338531 39.999685h-149.661469c-22.091448 0-40.000082-17.9087-40-40.000149v-124.370606c-10.774304-12.453086-17.533728-28.22251-18.789443-45.300125l-.054043-.789119c-.104316-1.6442-.156514-3.291292-.156514-4.938798v-31.476135l-186.730149 5.735428c-1.658769.055383-3.315182.063136-4.968238.036678l-.239613-.005929-.353365.012065c-1.626055.040739-3.273646-.017176-4.936592-.179276l-.713614-.075867-1.085429-.125922-.46744-.038504c-1.818304-.164229-3.629319-.375631-5.431628-.633859l-.416932-.062637-56.284891-6.555864c-2.016824-.234919-3.984053-.617215-5.8914312-1.135369l-.3196778-.089767-1.4256515-.249138c-50.0833226-9.152319-86.95239564-53.046227-87.72303725-105.566753l-.01231125-1.679084v-394.02254c0-53.261765 37.1192246-97.996153 87.7353485-107.245837l1.4236515-.248648.3223025-.090427c1.7166705-.466317 3.4818185-.822586 5.2879705-1.060407l.603559-.074876 56.231168-6.54829.44223-.066154c1.821541-.261481 3.651983-.475129 5.489864-.640585l.442906-.036261 1.054111-.122488c1.633759-.189185 3.253669-.277541 4.853915-.270275zm391.448312 700.56661-111 8.320215c-10.077245.755359-19.745731-1.111601-28.3356-5.02444l.000262 124.053133h149l.001908-128.894538c-3.125539.774411-6.354948 1.297401-9.66657 1.54563zm28.664662-86.499024-182 5.59v31.391493c0 .947792.03546 1.895253.106304 2.840394 1.568707 20.92811 19.80598 36.622008 40.73409 35.053302l111-8.320216c4.576947-.343073 8.914201-1.487216 12.878568-3.288877 10.439316-6.799447 17.281038-18.571727 17.281038-31.859383zm-417.134072-574.061122-1.081712.011816c-.663373.012444-1.3243.034271-1.982652.064529-.699087.033529-1.394435.078566-2.086732.134515l-.745832.064262-.275789.026419-.255288.025203c-.243423.024517-.486453.050387-.729084.077601-33.716778 3.781914-59.708839 33.534728-59.708839 70.504709v405c0 37.069859 26.13269 66.883502 59.982045 70.534766.108807.011737.217744.023208.326761.034409l.757718.073359c.055253.005022.110525.009975.165818.014858l.104858.009176c.838723.072704 1.681979.129383 2.529492.169755l-.232822-.011506c1.425286.06864 2.862708.098084 4.310952.078673.364452-.00466.730387-.012878 1.096991-.024139l5.306187-.163283 222.652-6.838823 187-5.744 248.978148-7.646981c38.13074-1.171202 69.041813-31.881427 69.041813-68.593207v-368.786114c0-36.71178-30.911073-67.422005-69.041813-68.593207l-663.936335-20.393087-1.096991-.024139c-.360308-.004829-.719946-.006634-1.078894-.005564zm-61.798814 6.81753-5.067114.591524.000085.363908c-33.8581099 3.543882-60.000085 32.55333-60.000085 68.624822v394.02254c0 36.071492 26.1419751 65.08094 60.000085 68.624822l-.000085.363908 5.066172.590529c-15.5360515-16.402695-25.066172-39.017672-25.066172-64.090529v-405c0-25.073364 9.5305058-47.688748 25.067114-64.091524zm64.286689 3.054951 663.936335 18.838624c16.039817.455116 31.086542 7.036146 42.212511 18.101501 11.16894 11.08465 17.655968 25.95979 17.655968 41.754988v369.68292c0 15.797081-6.488265 30.671561-17.647727 41.746801-11.135442 11.074771-26.182801 17.654625-42.220752 18.109688l-663.936335 18.838624c-16.339674.463624-31.710965-5.961447-42.971394-17.509762-11.199487-11.509309-17.520225-27.229549-17.520225-43.975214v-404.103194c0-16.743813 6.319522-32.464652 17.513803-43.968621l.014263-.014643c11.251362-11.539011 26.622002-17.965389 42.963553-17.501712zm-28.644063 31.464241c-7.354799 7.558268-11.847556 18.186718-11.847556 30.020735v404.103194c0 11.834017 4.492757 22.462467 11.853971 30.027322 7.178924 7.362451 17.100244 11.776968 28.070393 11.4657l663.936336-18.838624c11.201245-.317825 21.343557-4.997448 28.684554-12.298448 7.231924-7.177354 11.751179-16.911569 11.751179-27.566087v-369.68292c0-10.654518-4.519255-20.388733-11.744437-27.559389-7.347739-7.307698-17.490051-11.987321-28.691296-12.305146l-663.936336-18.838624c-10.970149-.311268-20.891469 4.103249-28.076808 11.472287zm46.53876 22.679576.609257.009204 614.755866 13.879143c19.995009.451421 36.256082 16.60321 36.256082 36.301271v324.078555c0 19.696311-16.258387 35.852682-36.251626 36.312979l-614.755866 14.153299c-20.350597.468524-36.711957-16.324644-36.711957-37.178047v-350.357242c0-20.434664 15.710837-36.975839 35.491456-37.19692zm-16.098244 37.199162v350.357242c0 9.842999 7.351243 17.388255 16.251626 17.183345l614.755866-14.153299c9.257739-.213137 16.711957-7.620583 16.711957-16.318277v-324.078555c0-8.695945-7.451531-16.097397-16.707501-16.306366l-614.755866-13.879143c-8.902118-.200981-16.256082 7.350348-16.256082 17.195053z"/></svg>