<?xml version="1.0" encoding="UTF-8"?>
<svg width="960px" height="960px" viewBox="0 0 960 960" version="1.1" xmlns="http://www.w3.org/2000/svg" xmlns:xlink="http://www.w3.org/1999/xlink">
    <title>stromleser copy</title>
    <g id="stromleser-copy" stroke="none" fill="none" fill-rule="nonzero">
        <path d="M819.412573,4.74371048 C865.439198,9.7075234 900.327148,48.5603205 900.327148,94.8538368 L900.327148,840.606992 C900.327148,879.083665 870.462487,910.954677 832.067006,913.452951 L175.801036,956.154119 C161.51242,957.083834 147.16908,955.609465 133.36839,951.792415 L122.636471,948.824139 C103.756847,943.602338 87.3057545,931.926122 76.1460519,915.827413 C65.6330331,900.661594 60,882.647946 60,864.194609 L60,80.1776215 C60,52.7315228 81.7207506,30.2074915 109.148762,29.2112315 L800.898031,4.08501336 C807.077355,3.86056344 813.264822,4.08069669 819.412573,4.74371048 Z M320.804,776.313 L157.221,786.426 L157.221993,900.356822 C157.221993,908.816057 163.766747,915.676493 171.966202,916.309632 C172.379006,916.289278 172.791463,916.265358 173.203854,916.238525 L329.766,906.051 L320.804124,906.051009 L320.804,776.313 Z M100.001316,80.3162887 L100,864.194609 C100,874.503497 103.146873,884.566753 109.019931,893.039081 C114.848071,901.44661 123.439632,907.544499 133.29949,910.271577 L139.102311,911.876715 C137.883701,908.26453 137.221993,904.391499 137.221993,900.356822 L137.221993,134.837763 C137.221993,110.565047 122.287166,89.0088815 100.001316,80.3162887 Z M499.61,765.26 L340.804,775.077 L340.804,905.332 L499.61,894.999 L499.61,765.26 Z M678.417,754.207 L519.61,764.024 L519.61,893.697 L678.417,883.364 L678.417,754.207 Z M860.327,742.963 L698.417,752.971 L698.417,882.063 L829.469823,873.537357 C846.826685,872.408 860.327148,858.000556 860.327148,840.606992 L860.327,742.963 Z M802.349982,44.0586526 L121.240057,68.7975316 C143.249656,82.9962474 157.221993,107.646266 157.221993,134.837763 L157.221,766.388 L860.240751,722.931752 L860.327,724.338 L860.327148,94.8538368 C860.327148,68.9915981 840.836719,47.2861759 815.123581,44.5131026 C810.882109,44.0556745 806.613237,43.9037996 802.349982,44.0586526 Z M790.739519,172.221542 L790.739519,628.524259 C790.739519,644.422872 778.336449,657.560683 762.464128,658.474647 L249.064815,688.037305 C231.846836,689.028754 217.340206,675.333418 217.340206,658.086917 L217.340206,193.900825 C217.340206,177.824575 230.01259,164.605782 246.074526,163.927536 L759.473839,142.248253 C776.523801,141.528285 790.739519,155.156385 790.739519,172.221542 Z M760.317625,162.230446 L246.918313,183.909728 C241.564334,184.135811 237.340206,188.542075 237.340206,193.900825 L237.340206,658.086917 C237.340206,663.835751 242.175749,668.400863 247.915076,668.07038 L761.314389,638.507721 C766.605162,638.203067 770.739519,633.823797 770.739519,628.524259 L770.739519,172.221542 C770.739519,166.533156 766.000946,161.990456 760.317625,162.230446 Z" id="Combined-Shape" fill="#000000"></path>
    </g>
</svg>