<svg id="Layer_1" data-name="Layer 1" xmlns="http://www.w3.org/2000/svg" viewBox="0 0 1417.32 1417.32"><title>1Artboard 2</title><path d="M1405.39,215.78h11.93v-188H0v188H8.6v1174.4H1405.39ZM41.37,1357.42V215.78H1372.63V1357.42Z"/><path d="M1351.47,238.48h-87.12a14.51,14.51,0,0,0-16.91,0H65.86v1099h1285.6ZM92.81,768.12H1239.69v39.76H92.81Zm1231.71-64.78h-52.44V664.08h52.44Zm0-104h-52.44V559.54h52.44Zm0-104.53h-52.44V455h52.44Zm0-104.53h-52.44V350.48h52.44Zm-84.83,0H92.81V350.48H1239.69Zm0,64.78v39.76H92.81V455Zm0,104.53V599.3H92.81V559.54Zm0,104.53v39.27H92.81V664.08ZM92.81,872.65H1239.69v39.76H92.81Zm1179.27,0h52.44v39.76h-52.44Zm0-64.78V768.12h52.44v39.76Zm52.44-522.17h-52.44V265.43h52.44Zm-84.83-20.27v20.27H92.81V265.43ZM92.81,1310.58V977.18H1239.69v222.9a16.19,16.19,0,1,0,32.39,0V977.18h52.44v333.4Z"/></svg>