<svg id="Layer_1" data-name="Layer 1" xmlns="http://www.w3.org/2000/svg" viewBox="0 0 1417.32 1417.32"><title>1Artboard 2</title><path d="M1251.27,1128H160.94V217.23H1251.27ZM186,1103H1226.22V242.28H186Z"/><path d="M1215.09,1090.18H199.71V339.42H1215.09ZM219.5,1070.4H1195.3V359.2H219.5Z"/><rect x="221.29" y="379.28" width="983.91" height="50.27"/><rect x="221.29" y="459.81" width="983.91" height="50.27"/><rect x="221.29" y="540.33" width="983.91" height="50.27"/><rect x="221.29" y="620.86" width="983.91" height="50.27"/><rect x="221.29" y="701.01" width="983.91" height="50.27"/><rect x="221.29" y="781.54" width="983.91" height="50.27"/><rect x="221.29" y="862.07" width="983.91" height="50.27"/><path d="M1127.68,1014.79a12.47,12.47,0,0,1-12.48-12.48V369.8a12.48,12.48,0,0,1,25,0v632.52A12.47,12.47,0,0,1,1127.68,1014.79Z"/><rect x="153.28" y="219.41" width="1108.24" height="150.39"/></svg>