<svg id="Layer_1" data-name="Layer 1" xmlns="http://www.w3.org/2000/svg" viewBox="0 0 1417.32 1417.32"><title>1Artboard 3</title><path d="M929.53,80.12H487.79c-80.3,0-145.63,65.33-145.63,145.63v965.82c0,80.3,65.33,145.63,145.63,145.63H929.53c80.3,0,145.63-65.33,145.63-145.63V225.75C1075.16,145.45,1009.83,80.12,929.53,80.12ZM1040.8,1191.57a111.41,111.41,0,0,1-111.27,111.27H487.79a111.41,111.41,0,0,1-111.27-111.27V225.75A111.41,111.41,0,0,1,487.79,114.48H929.53A111.41,111.41,0,0,1,1040.8,225.75Z"/><path d="M915.71,151.46H501.58a89.55,89.55,0,0,0-89.42,89.46v935.49a89.54,89.54,0,0,0,89.42,89.42H915.71a89.55,89.55,0,0,0,89.46-89.42V240.91A89.56,89.56,0,0,0,915.71,151.46Zm0,1097.19H501.58a72.33,72.33,0,0,1-72.24-72.24V717.25H988v459.16A72.34,72.34,0,0,1,915.71,1248.65ZM988,700.07H429.34V240.91a72.34,72.34,0,0,1,72.24-72.28H915.71A72.35,72.35,0,0,1,988,240.91Z"/><path d="M708.64,283.8a12.89,12.89,0,0,0-12.88,12.88V531.49a12.88,12.88,0,0,0,25.77,0V296.68A12.89,12.89,0,0,0,708.64,283.8Z"/><path d="M708.64,872.94c-71.84,0-130.26,58.45-130.26,130.29a130.39,130.39,0,0,0,130.26,130.26c71.84,0,130.29-58.42,130.29-130.26S780.48,872.94,708.64,872.94Zm0,234.78a104.5,104.5,0,1,1,104.52-104.49A104.61,104.61,0,0,1,708.64,1107.72Z"/></svg>