<svg id="Layer_1" data-name="Layer 1" xmlns="http://www.w3.org/2000/svg" viewBox="0 0 1417.32 1417.32"><title>1Artboard 27</title><path d="M708.67,1381.89c-371.22,0-673.23-302-673.23-673.21s302-673.25,673.23-673.25,673.21,302,673.21,673.25S1079.89,1381.89,708.67,1381.89Zm0-1309.66c-350.93,0-636.43,285.5-636.43,636.45s285.5,636.41,636.43,636.41,636.41-285.5,636.41-636.41S1059.58,72.23,708.67,72.23Z"/><path d="M708.67,1269.33c-309.15,0-560.65-251.5-560.65-560.65S399.52,148,708.67,148s560.65,251.5,560.65,560.65S1017.82,1269.33,708.67,1269.33Zm0-1102.9c-299,0-542.25,243.24-542.25,542.25s243.25,542.25,542.25,542.25,542.25-243.24,542.25-542.25S1007.67,166.43,708.67,166.43Z"/><path d="M831.86,557.74A30.33,30.33,0,0,0,798,608.08a160.3,160.3,0,0,1,71,133.21c0,88.43-71.95,160.37-160.38,160.37S548.29,829.71,548.29,741.28a160.34,160.34,0,0,1,70.73-133,30.33,30.33,0,1,0-34-50.26,220.92,220.92,0,0,0-97.43,183.27c0,121.87,99.16,221,221,221s221-99.16,221-221A220.87,220.87,0,0,0,831.86,557.74Z"/><path d="M708.67,776.06A30.33,30.33,0,0,0,739,745.72V485.34a30.33,30.33,0,1,0-60.66,0V745.72A30.33,30.33,0,0,0,708.67,776.06Z"/></svg>