<svg id="Layer_1" data-name="Layer 1" xmlns="http://www.w3.org/2000/svg" viewBox="0 0 1417.32 1417.32"><title>1Artboard 4</title><path d="M1342.57,681.24l-114,3.64V265a127.88,127.88,0,0,0-127.75-127.73h-33.71C1053.36,99.35,1017.29,72,974.66,72H466.12c-42.63,0-78.69,27.32-92.46,65.26h-47.2A127.88,127.88,0,0,0,198.7,265v947.75a122.37,122.37,0,0,0,4.55,31.3H194a83,83,0,0,0,0,166H1219.8a83.11,83.11,0,0,0,83-83c0-44.37-35.07-80.41-78.9-82.6,2.71-10.19,4.67-20.67,4.67-31.71V798.24l114,3.65a60.36,60.36,0,1,0,0-120.65Zm-269.21-92.78V170.72c0-.82-.22-1.57-.24-2.38h27.72A96.8,96.8,0,0,1,1197.53,265V685.88l-238.19,7.62a32.39,32.39,0,0,0-20.57,8.59,69,69,0,0,0-7.27-14.95h43.17A98.8,98.8,0,0,0,1073.36,588.46ZM912,725.36v32.4A38.27,38.27,0,0,1,873.8,796H566.69a38.27,38.27,0,0,1-38.23-38.23v-32.4a38.27,38.27,0,0,1,38.23-38.23H873.8A38.27,38.27,0,0,1,912,725.36ZM398.47,170.72a67.71,67.71,0,0,1,67.64-67.64H974.66a67.71,67.71,0,0,1,67.64,67.64V588.46a67.71,67.71,0,0,1-67.64,67.63H466.12a67.71,67.71,0,0,1-67.64-67.63ZM229.76,1212.77V265a96.8,96.8,0,0,1,96.69-96.68h41.21c0,.81-.24,1.57-.24,2.38V588.46a98.8,98.8,0,0,0,98.69,98.68H509a68.82,68.82,0,0,0-11.59,38.23v32.4A69.36,69.36,0,0,0,566.69,827H695.08v19.74H497.9a22.71,22.71,0,0,0-22.64,22.64v158c0,81.46,50.49,151.63,121.69,181H441.3a18.63,18.63,0,0,0-18.62,18.63c0,6.38,2.31,12,5.49,17H235.48A91.94,91.94,0,0,1,229.76,1212.77Zm1042,114.31a52,52,0,0,1-52,52H194a52,52,0,0,1,0-103.93H1219.8A52,52,0,0,1,1271.76,1327.09Zm-74.24-114.31a91.94,91.94,0,0,1-5.72,31.3H971.13c3.17-5,5.49-10.63,5.49-17A18.63,18.63,0,0,0,958,1208.44H817.6a197.35,197.35,0,0,0,104-100.32c48.77-20.88,120.16-63.74,120.16-136.21,0-88.2-36.47-99.1-50.25-100.48H939.3v-2a22.71,22.71,0,0,0-22.64-22.64H727.52V827H873.8a69.18,69.18,0,0,0,65-46,32.37,32.37,0,0,0,20.57,8.6l238.19,7.61ZM939.3,1027.48V918.65l45.57-.08c2.9,4.2,9.61,17.79,9.61,53.34,0,31.33-26.21,56.53-56.16,74.78C938.94,1040.37,939.3,1034,939.3,1027.48Z"/><path d="M725.14,527.31c51.9,0,94.11-57.11,94.11-127.34S777,272.63,725.14,272.63,631,329.74,631,400,673.24,527.31,725.14,527.31Zm-11-209.77a7.9,7.9,0,0,1,9.75-5.78,8,8,0,0,1,5.8,9.73c-.12.42-10.63,43.2,3.79,75.4,14.9,33.25,20,67.77,13,88a8,8,0,0,1-7.57,5.4,7.92,7.92,0,0,1-2.62-.45,8,8,0,0,1-5-10.19C736,466,734,437.24,718.84,403.45,702.1,366.09,713.64,319.51,714.12,317.54Z"/></svg>