<svg id="Layer_1" data-name="Layer 1" xmlns="http://www.w3.org/2000/svg" viewBox="0 0 1417.32 1417.32"><title>1Artboard 5</title><path d="M1398.26,214.07h-7.21v-1.48a13.78,13.78,0,0,0-13.76-13.76h-13.42a13.78,13.78,0,0,0-13.76,13.76v1.48h-73a22.23,22.23,0,0,0-22-20.22H882.83a22.24,22.24,0,0,0-22,20.22H556.48a22.23,22.23,0,0,0-22-20.22H162.15a22.23,22.23,0,0,0-22,20.22h-73v-1.48a13.78,13.78,0,0,0-13.76-13.76H40a13.78,13.78,0,0,0-13.77,13.76v1.48H19.06A15.26,15.26,0,0,0,3.81,229.3v36.29a15.27,15.27,0,0,0,15.24,15.24h7.19v1.48A13.78,13.78,0,0,0,40,296.07H53.44a13.78,13.78,0,0,0,13.76-13.76v-1.48H139.7v984.34a22.45,22.45,0,0,0,22.45,22.45H534.49a22.45,22.45,0,0,0,22.44-22.45V1158.4H860.39v106.77a22.45,22.45,0,0,0,22.45,22.45h372.34a22.45,22.45,0,0,0,22.45-22.45V280.84h72.51v1.48a13.78,13.78,0,0,0,13.76,13.76h13.42a13.78,13.78,0,0,0,13.76-13.76v-1.48h7.21a15.27,15.27,0,0,0,15.24-15.24V229.3A15.26,15.26,0,0,0,1398.26,214.07Zm-1372,55.07H19.06a3.56,3.56,0,0,1-3.55-3.55V229.3a3.55,3.55,0,0,1,3.55-3.54h7.19ZM55.5,214.07v68.24a2.07,2.07,0,0,1-2.06,2.06H40a2.08,2.08,0,0,1-2.07-2.06V212.59A2.08,2.08,0,0,1,40,210.53H53.44a2.07,2.07,0,0,1,2.06,2.06Zm84.2,55.07H67.19V225.76H139.7ZM883.3,227.3a5.39,5.39,0,0,1,.42-1.54h53.47a5.49,5.49,0,0,1,.43,1.54v40.3a5.51,5.51,0,0,1-.43,1.54H883.72a5.41,5.41,0,0,1-.42-1.54Zm-326.36-1.54H860.39v43.38H556.93Zm303.45,55.07v20.87H556.93V280.84ZM556.93,349.69H860.39V1105.4H556.93Zm401.92,341.5a8.78,8.78,0,1,1-17.55,0V407.51a8.78,8.78,0,1,1,17.55,0Zm-98.46-353.1H556.93V324.88H860.39ZM479.7,227.3a5.5,5.5,0,0,1,.43-1.54H533.6a5.4,5.4,0,0,1,.43,1.54v40.3a5.42,5.42,0,0,1-.43,1.54H480.13a5.52,5.52,0,0,1-.43-1.54ZM221.32,267.6a5.41,5.41,0,0,1-.42,1.54H167.42a5.51,5.51,0,0,1-.43-1.54V227.3a5.49,5.49,0,0,1,.43-1.54h53.47a5.39,5.39,0,0,1,.42,1.54Zm18.8,382.47a8.78,8.78,0,0,1-17.55,0V366.4a8.78,8.78,0,0,1,17.55,0ZM299.5,267.6a5.42,5.42,0,0,1-.43,1.54H245.6a5.42,5.42,0,0,1-.43-1.54V227.3a5.4,5.4,0,0,1,.43-1.54h53.47a5.4,5.4,0,0,1,.43,1.54Zm19.26,423.59a8.78,8.78,0,1,1-17.55,0V407.51a8.78,8.78,0,1,1,17.55,0ZM377.67,267.6a5.51,5.51,0,0,1-.42,1.54H323.78a5.41,5.41,0,0,1-.42-1.54V227.3a5.39,5.39,0,0,1,.42-1.54h53.47a5.49,5.49,0,0,1,.42,1.54Zm19.72,396.52a8.78,8.78,0,0,1-17.55,0V380.45a8.78,8.78,0,1,1,17.55,0ZM455.85,267.6a5.41,5.41,0,0,1-.42,1.54H402a5.51,5.51,0,0,1-.42-1.54V227.3a5.49,5.49,0,0,1,.42-1.54h53.47a5.39,5.39,0,0,1,.42,1.54Zm2.62,423.59V407.51a8.78,8.78,0,1,1,17.55,0V691.19a8.78,8.78,0,1,1-17.55,0Zm98.46,444V1117H860.39v18.23ZM1015.79,267.6a5.41,5.41,0,0,1-.42,1.54H961.9a5.51,5.51,0,0,1-.42-1.54V227.3a5.49,5.49,0,0,1,.42-1.54h53.47a5.39,5.39,0,0,1,.42,1.54Zm21.69,396.52a8.78,8.78,0,0,1-17.55,0V380.45a8.78,8.78,0,0,1,17.55,0ZM1094,267.6a5.42,5.42,0,0,1-.43,1.54h-53.47a5.51,5.51,0,0,1-.43-1.54V227.3a5.49,5.49,0,0,1,.43-1.54h53.47a5.4,5.4,0,0,1,.43,1.54Zm22.15,423.59a8.78,8.78,0,0,1-17.55,0V407.51a8.78,8.78,0,0,1,17.55,0Zm56-423.59a5.51,5.51,0,0,1-.43,1.54h-53.47a5.42,5.42,0,0,1-.43-1.54V227.3a5.4,5.4,0,0,1,.43-1.54h53.47a5.49,5.49,0,0,1,.43,1.54Zm22.61,382.47a8.78,8.78,0,1,1-17.55,0V366.4a8.78,8.78,0,1,1,17.55,0Zm55.57-382.47a5.51,5.51,0,0,1-.42,1.54h-53.47a5.41,5.41,0,0,1-.42-1.54V227.3a5.39,5.39,0,0,1,.42-1.54h53.47a5.49,5.49,0,0,1,.42,1.54Zm99.81,1.54h-72.51V225.76h72.51Zm29.23-55.07v68.24a2.07,2.07,0,0,1-2.06,2.06h-13.42a2.07,2.07,0,0,1-2.06-2.06V212.59a2.07,2.07,0,0,1,2.06-2.06h13.42a2.07,2.07,0,0,1,2.06,2.06Zm22.45,51.52a3.56,3.56,0,0,1-3.55,3.55h-7.21V225.76h7.21a3.55,3.55,0,0,1,3.55,3.54Z"/></svg>