<svg id="Layer_1" data-name="Layer 1" xmlns="http://www.w3.org/2000/svg" viewBox="0 0 1417.32 1417.32"><title>1Artboard 1</title><path d="M1379.37,236.9h-7v-1.44A13.4,13.4,0,0,0,1359,222.08h-13a13.4,13.4,0,0,0-13.38,13.38v1.44h-71a21.62,21.62,0,0,0-21.4-19.66H878.06a21.63,21.63,0,0,0-21.4,19.66h-296a21.62,21.62,0,0,0-21.39-19.66H177.12a21.62,21.62,0,0,0-21.4,19.66h-71v-1.44a13.4,13.4,0,0,0-13.38-13.38h-13a13.4,13.4,0,0,0-13.39,13.38v1.44h-7a14.84,14.84,0,0,0-14.83,14.82V287a14.85,14.85,0,0,0,14.83,14.83h7v1.44a13.4,13.4,0,0,0,13.39,13.38h13a13.4,13.4,0,0,0,13.38-13.38v-1.44h70.52v957.38A21.84,21.84,0,0,0,177.12,1281H539.26a21.83,21.83,0,0,0,21.83-21.83V301.84H856.23v957.38A21.84,21.84,0,0,0,878.06,1281H1240.2a21.84,21.84,0,0,0,21.83-21.83V301.84h70.52v1.44a13.4,13.4,0,0,0,13.38,13.38h13a13.4,13.4,0,0,0,13.38-13.38v-1.44h7A14.85,14.85,0,0,0,1394.2,287V251.71A14.84,14.84,0,0,0,1379.37,236.9ZM44.94,290.46h-7A3.46,3.46,0,0,1,34.49,287V251.71a3.46,3.46,0,0,1,3.45-3.44h7ZM73.39,236.9v66.37a2,2,0,0,1-2,2h-13a2,2,0,0,1-2-2V235.46a2,2,0,0,1,2-2h13a2,2,0,0,1,2,2Zm81.9,53.56H84.76V248.27h70.52Zm79.38-1.5a5.26,5.26,0,0,1-.41,1.5h-52a5.36,5.36,0,0,1-.42-1.5v-39.2a5.34,5.34,0,0,1,.42-1.5h52a5.24,5.24,0,0,1,.41,1.5ZM253,661a8.54,8.54,0,0,1-17.07,0V385.05a8.54,8.54,0,0,1,17.07,0ZM310.7,289a5.27,5.27,0,0,1-.42,1.5h-52a5.27,5.27,0,0,1-.42-1.5v-39.2a5.25,5.25,0,0,1,.42-1.5h52a5.25,5.25,0,0,1,.42,1.5Zm18.73,412a8.54,8.54,0,0,1-17.07,0V425a8.54,8.54,0,0,1,17.07,0Zm57.3-412a5.36,5.36,0,0,1-.41,1.5h-52a5.26,5.26,0,0,1-.41-1.5v-39.2a5.24,5.24,0,0,1,.41-1.5h52a5.34,5.34,0,0,1,.41,1.5Zm19.18,385.66a8.54,8.54,0,0,1-17.07,0V398.72a8.54,8.54,0,0,1,17.07,0ZM462.77,289a5.26,5.26,0,0,1-.41,1.5h-52a5.36,5.36,0,0,1-.41-1.5v-39.2a5.34,5.34,0,0,1,.41-1.5h52a5.24,5.24,0,0,1,.41,1.5ZM482.4,701a8.54,8.54,0,0,1-17.07,0V425a8.54,8.54,0,0,1,17.07,0Zm56.41-412a5.27,5.27,0,0,1-.42,1.5h-52A5.36,5.36,0,0,1,486,289v-39.2a5.34,5.34,0,0,1,.42-1.5h52a5.25,5.25,0,0,1,.42,1.5Zm317.42,1.5H561.09V248.27H856.23Zm75.12-1.5a5.36,5.36,0,0,1-.42,1.5h-52a5.26,5.26,0,0,1-.41-1.5v-39.2a5.24,5.24,0,0,1,.41-1.5h52a5.34,5.34,0,0,1,.42,1.5ZM952,701a8.54,8.54,0,0,1-17.07,0V425A8.54,8.54,0,1,1,952,425Zm55.38-412a5.26,5.26,0,0,1-.41,1.5H955a5.36,5.36,0,0,1-.41-1.5v-39.2a5.34,5.34,0,0,1,.41-1.5h52a5.24,5.24,0,0,1,.41,1.5Zm21.1,385.66a8.54,8.54,0,0,1-17.07,0V398.72a8.54,8.54,0,1,1,17.07,0ZM1083.41,289a5.27,5.27,0,0,1-.42,1.5h-52a5.36,5.36,0,0,1-.42-1.5v-39.2a5.34,5.34,0,0,1,.42-1.5h52a5.25,5.25,0,0,1,.42,1.5ZM1105,701a8.54,8.54,0,0,1-17.07,0V425a8.54,8.54,0,1,1,17.07,0Zm54.49-412a5.36,5.36,0,0,1-.42,1.5h-52a5.27,5.27,0,0,1-.42-1.5v-39.2a5.25,5.25,0,0,1,.42-1.5h52a5.34,5.34,0,0,1,.42,1.5Zm22,372a8.54,8.54,0,1,1-17.07,0V385.05a8.54,8.54,0,1,1,17.07,0Zm54-372a5.36,5.36,0,0,1-.41,1.5h-52a5.26,5.26,0,0,1-.41-1.5v-39.2a5.24,5.24,0,0,1,.41-1.5h52a5.34,5.34,0,0,1,.41,1.5Zm97.07,1.5H1262V248.27h70.52ZM1361,236.9v66.37a2,2,0,0,1-2,2h-13a2,2,0,0,1-2-2V235.46a2,2,0,0,1,2-2h13a2,2,0,0,1,2,2ZM1382.83,287a3.46,3.46,0,0,1-3.45,3.45h-7V248.27h7a3.46,3.46,0,0,1,3.45,3.44Z"/><rect x="472.67" y="297.98" width="479.32" height="22.54"/><rect x="491.77" y="331.72" width="442.3" height="14.57"/><rect x="491.77" y="1096.99" width="442.3" height="24.95"/><rect x="529.2" y="1071.77" width="442.3" height="14.57"/></svg>