<svg id="Layer_1" data-name="Layer 1" xmlns="http://www.w3.org/2000/svg" viewBox="0 0 1417.32 1417.32"><title>1Artboard 6</title><path d="M866.77,128.65H550.56a73.16,73.16,0,0,0-73.08,73.08V1215.55a73.16,73.16,0,0,0,73.08,73.08h316.2a73.16,73.16,0,0,0,73.07-73.08V201.73A73.16,73.16,0,0,0,866.77,128.65Zm48.58,1086.9a48.58,48.58,0,0,1-48.58,48.58H550.56A48.59,48.59,0,0,1,502,1215.55V201.73a48.59,48.59,0,0,1,48.59-48.58h316.2a48.58,48.58,0,0,1,48.58,48.58Z"/><path d="M708.66,552.48a147,147,0,1,0,147,147A147,147,0,0,0,708.66,552.48Zm0,269a122,122,0,1,1,122-122A122.16,122.16,0,0,1,708.66,821.48Z"/><path d="M708.66,589.69A109.77,109.77,0,1,0,818.43,699.45,109.89,109.89,0,0,0,708.66,589.69Z"/><path d="M868.5,172.49H548.83a29.4,29.4,0,0,0-29.36,29.36V1215.43a29.4,29.4,0,0,0,29.36,29.36H868.5a29.4,29.4,0,0,0,29.36-29.36V201.86A29.4,29.4,0,0,0,868.5,172.49Zm17.12,1042.94a17.14,17.14,0,0,1-17.12,17.12H548.83a17.14,17.14,0,0,1-17.12-17.12V201.86a17.14,17.14,0,0,1,17.12-17.12H868.5a17.14,17.14,0,0,1,17.12,17.12Z"/></svg>