<svg id="Layer_1" data-name="Layer 1" xmlns="http://www.w3.org/2000/svg" viewBox="0 0 1417.32 1417.32"><title>1Artboard 7</title><path d="M558.3,662.9a149.7,149.7,0,0,1,41.22-103.22c-41.85-17.4-84.45-23.88-129.63-17.14-103,15.38-170.77,106.29-155.45,209.18,11.29,75.86,49.49,136.63,104,188.31,8.95,8.49,19.88,15.49,31,21,26.13,13,45.29,6.62,59.62-18.59,3.43-6,6.26-12.43,9.23-18.72,22.8-48.2,51.35-92.56,87.9-131.58,3.27-3.49,6.2-7.3,9.24-10.9-.61-.61-1.14-1.25-1.73-1.86A150,150,0,0,1,558.3,662.9Z"/><path d="M982.69,959.89c60-47.71,93.58-111.17,111.1-184.2,2.88-12,3.48-25,2.71-37.32-1.79-29.14-16.91-42.53-45.9-42.33-6.95,0-13.89.79-20.83,1.36-53.15,4.35-105.84,1.81-157.9-10.34-4.66-1.09-9.42-1.72-14.06-2.55-.23.83-.52,1.61-.75,2.43A150.08,150.08,0,0,1,673.84,809c5.86,44.95,21.54,85.07,50,120.83C788.64,1011.4,901.25,1024.6,982.69,959.89Z"/><path d="M578,367.58c30.34,43.85,54.49,90.75,70,141.91,1.39,4.58,3.22,9,4.82,13.46.83-.23,1.65-.36,2.48-.57A150.07,150.07,0,0,1,852.62,620c36-27.55,62.91-61.19,79.66-103.69,38.2-96.92-6.67-201-103.43-239.21C757.5,248.95,685.78,251.64,613.77,273c-11.82,3.51-23.35,9.47-33.67,16.31-24.34,16.12-28.37,35.91-13.71,60.92C569.89,356.21,574,361.85,578,367.58Z"/><path d="M822,662.9A113.34,113.34,0,1,0,708.66,776.27,113.36,113.36,0,0,0,822,662.9Z"/><path d="M1205.58,842.15a526.15,526.15,0,0,0,31.29-179.25c0-291.25-237-528.2-528.22-528.2s-528.2,237-528.2,528.2c0,123.19,44.34,243.64,124.84,339.16,80.37,95.37,191.35,159.5,312.49,180.6l3.73.65V1299.6H507.38a87.4,87.4,0,0,0-87.31,87.31v10.39h586.54V1386.9a87.4,87.4,0,0,0-87.31-87.31H813.41V1180.32l3.58-.75a528.11,528.11,0,0,0,388.59-337.43ZM919.31,1320.37a66.41,66.41,0,0,1,64.59,50.56l1.38,5.58H441.4l1.38-5.58a66.41,66.41,0,0,1,64.59-50.56H642.29V1183.75l5,.59a525.73,525.73,0,0,0,61.34,3.9c24.14,0,49.18-2.09,78.8-6.57l5.17-.78v139.5ZM708.65,1167.46c-278.2,0-504.53-226.34-504.53-504.54S430.46,158.37,708.65,158.37s504.56,226.34,504.56,504.55S986.87,1167.46,708.65,1167.46Z"/><path d="M708.67,200.07c-255.21,0-462.83,207.62-462.83,462.83s207.62,462.84,462.83,462.84S1171.5,918.11,1171.5,662.9,963.87,200.07,708.67,200.07Zm0,904.9c-243.75,0-442.05-198.31-442.05-442.07s198.3-442.05,442.05-442.05,442.05,198.3,442.05,442.05S952.42,1105,708.67,1105Z"/></svg>