<svg id="Layer_1" data-name="Layer 1" xmlns="http://www.w3.org/2000/svg" viewBox="0 0 1417.32 1417.32"><title>1Artboard 23</title><path d="M1411.17,663.21c-.83-3.44-1.66-6.89-2.62-10.3-5.34-19-15.36-34.54-30.66-47.73q-74-63.91-147.85-128L1086.26,352.5Q932,218.72,777.49,85.18c-17-14.72-34.46-22.76-53.33-24.6a25.65,25.65,0,0,1-5.35-1.21H707.1c-3.26.95-6.56,1.79-9.87,2.63-8,2-15.51,3.94-21.86,7.12-11.07,5.49-21.46,14-29.28,20.74Q407.72,296,169.61,502.53L86.88,574.31c-11.45,10-22.89,20.06-34.55,29.83-18.5,15.53-29.56,34.56-33.79,58.17a40.76,40.76,0,0,1-1.39,5.26l1.26,25.55c1,3.92,2,7.86,3.13,11.75,10.37,36.46,35.94,54.33,73.39,52,4.8-.32,9.61-.84,14.73-1.42L133,753.1,132.94,1328c0,28.57,11.46,48.21,35,60a70.42,70.42,0,0,0,29.64,7.12c100.53.47,201.09.39,301.64.32l58.39-.05,324.18.34c83.4-.53,166.93-.45,250.43-.32l93.9.08c43.93,0,70.17-26.36,70.17-70.5l-.08-571.66,23.66,2.18c5.93.6,11.53,1.21,17.14,1.39,37.9,1.66,63.07-18.43,72.15-57.46l2.9-12.22Zm-287.86,492.2H305.86V774.09A33.11,33.11,0,0,1,338.93,741h751.32a33.11,33.11,0,0,1,33.07,33.09ZM1374.78,700c-6.62,17-15.32,26.92-38,23.92a227.13,227.13,0,0,1-46.33-10.62c-8.6-3-15.81-2.94-20.3.24-4.28,3-6.66,9.46-6.66,18.06l-.09,598.08c-.46,20.48-12.75,32.67-32.88,32.72l-80.29,0V774.09a60.06,60.06,0,0,0-60-60H338.93a60.06,60.06,0,0,0-60,60v588.36H201.27c-23.88,0-35.51-11.75-35.52-35.9l-.09-596.21c0-11.93-4.7-18.43-14-19.27-2-.29-5.44.66-8.71,1.47l-22.3,4.94c-10.42,2.31-20.83,4.6-31.32,6.52-6.18,1.1-21.66,1.68-31.91-17.22-14.09-25.94-8.17-56.72,14.69-76.62L349,390.35Q507.58,253.18,665.66,115.44c42.32-37,71.73-21.79,97.17.13q70.46,60.72,140.65,121.72L1354.3,628C1377.75,648.3,1385,673.88,1374.78,700Z"/><path d="M724,46.78v.11l0-.1Z"/><path d="M1091.09,842h-753a6.73,6.73,0,0,0,0,13.46h753a6.73,6.73,0,0,0,0-13.46Z"/><path d="M1091.09,781.42h-753a6.73,6.73,0,0,0,0,13.46h753a6.73,6.73,0,0,0,0-13.46Z"/><path d="M1091.09,902.65h-753a6.73,6.73,0,0,0,0,13.46h753a6.73,6.73,0,0,0,0-13.46Z"/><path d="M1091.09,963.26h-753a6.73,6.73,0,0,0,0,13.46h753a6.73,6.73,0,0,0,0-13.46Z"/><path d="M1091.09,1023.87h-753a6.73,6.73,0,0,0,0,13.46h753a6.73,6.73,0,0,0,0-13.46Z"/><path d="M1091.09,1084.49h-753a6.73,6.73,0,0,0,0,13.46h753a6.73,6.73,0,0,0,0-13.46Z"/></svg>