<svg id="Layer_1" data-name="Layer 1" xmlns="http://www.w3.org/2000/svg" viewBox="0 0 1417.32 1417.32"><title>1Artboard 9</title><path d="M1297.93,96.54H120.09A102.36,102.36,0,0,0,17.84,198.77v1090A102.36,102.36,0,0,0,120.09,1391H1297.93a102.36,102.36,0,0,0,102.25-102.25v-1090A102.36,102.36,0,0,0,1297.93,96.54Zm72.43,1192.22a72.5,72.5,0,0,1-72.43,72.43H120.09a72.5,72.5,0,0,1-72.43-72.43V612.41c60.55-18.15,259.77-66.57,661.34-66.57s600.8,48.42,661.34,66.57Zm0-691.55c-66.75-19.44-267.61-66-661.34-66s-594.6,46.54-661.34,66V198.77a72.5,72.5,0,0,1,72.43-72.41h61.6l-24.12,39.93A7.47,7.47,0,1,0,170.36,174l28.78-47.64H218l-42.73,70.74a7.47,7.47,0,1,0,12.78,7.72l47.39-78.45h18.89l-53.75,89a7.47,7.47,0,1,0,12.78,7.72l58.41-96.73h18.9l-59.87,99.12a7.47,7.47,0,1,0,12.78,7.72l64.53-106.83h18.9l-58.72,97.19a7.47,7.47,0,1,0,12.78,7.72L344.5,126.36h953.43a72.5,72.5,0,0,1,72.43,72.41Z"/><path d="M1172.53,264.25h-927A54.53,54.53,0,0,0,191,318.72v109.7a54.54,54.54,0,0,0,54.47,54.49h927A54.54,54.54,0,0,0,1227,428.42V318.72A54.53,54.53,0,0,0,1172.53,264.25Zm39.56,164.17A39.61,39.61,0,0,1,1172.53,468h-927a39.61,39.61,0,0,1-39.56-39.58V318.72a39.61,39.61,0,0,1,39.56-39.56h927a39.61,39.61,0,0,1,39.56,39.56Z"/><path d="M670.6,398.27v9.87l5.18,5.71q21.43-20.77,21.81-21.81V381.65H687.21Q670.72,397.49,670.6,398.27Z"/><path d="M719.93,360.87h9.35q21.43-20.77,21.81-21.81-5.07-5.7-5.71-5.71H736q-17,16.36-17.14,17.14v9.35A.91.91,0,0,0,719.93,360.87Z"/><path d="M701.76,326.6v22.34l7.27,7.79q7.8-7.14,7.79-7.79V318.81h-7.27C704.35,323.57,701.76,326.18,701.76,326.6Z"/><path d="M729.8,381.65H718.9V392q20.77,21.43,21.81,21.81c3.45-3,5.18-4.75,5.18-5.18V397.76Q730.58,381.79,729.8,381.65Z"/><path d="M753.17,364H730.84c-5.2,4.76-7.79,7.37-7.79,7.79q7.14,7.8,7.79,7.79H761v-7.79C756.2,366.6,753.59,364,753.17,364Z"/><path d="M681,333.35h-9.87q-5.7,5.07-5.71,5.71,20.77,21.43,21.81,21.81h10.38V350Q681.76,333.5,681,333.35Z"/><path d="M694,371.78c-4.76-5.18-7.37-7.79-7.79-7.79H663.84c-5.53,5.11-8.31,7.88-8.31,8.31v6.23a.92.92,0,0,0,1,1h29.6C691.36,374.82,694,372.22,694,371.78Z"/><path d="M708,385.29q-7.8,6.49-7.79,9.35V423.2H708c5.18-4.75,7.79-7.35,7.79-7.79V393.08C711,387.89,708.41,385.29,708,385.29Z"/><path d="M803.55,398.27v9.87l5.18,5.71q21.43-20.77,21.81-21.81V381.65H820.17Q803.68,397.49,803.55,398.27Z"/><path d="M813.93,333.35h-9.87q-5.7,5.07-5.71,5.71,20.77,21.43,21.81,21.81h10.38V350Q814.71,333.5,813.93,333.35Z"/><path d="M886.13,364H863.79c-5.2,4.76-7.79,7.37-7.79,7.79q7.14,7.8,7.79,7.79h30.13v-7.79C889.16,366.6,886.55,364,886.13,364Z"/><path d="M840.95,385.29q-7.8,6.49-7.79,9.35V423.2h7.79c5.18-4.75,7.79-7.35,7.79-7.79V393.08C844,387.89,841.37,385.29,840.95,385.29Z"/><path d="M852.89,360.87h9.35Q883.66,340.1,884,339.06q-5.07-5.7-5.71-5.71H869q-17,16.36-17.14,17.14v9.35A.91.91,0,0,0,852.89,360.87Z"/><path d="M834.71,326.6v22.34l7.27,7.79q7.8-7.14,7.79-7.79V318.81H842.5C837.31,323.57,834.71,326.18,834.71,326.6Z"/><path d="M862.76,381.65H851.85V392q20.77,21.43,21.81,21.81c3.45-3,5.18-4.75,5.18-5.18V397.76Q863.54,381.79,862.76,381.65Z"/><path d="M826.92,371.78c-4.76-5.18-7.37-7.79-7.79-7.79H796.8c-5.53,5.11-8.31,7.88-8.31,8.31v6.23a.92.92,0,0,0,1,1h29.6C824.32,374.82,826.92,372.22,826.92,371.78Z"/><path d="M995.71,381.65H984.81V392q20.77,21.43,21.81,21.81c3.45-3,5.18-4.75,5.18-5.18V397.76Q996.49,381.79,995.71,381.65Z"/><path d="M1019.08,364H996.75c-5.2,4.76-7.79,7.37-7.79,7.79q7.14,7.8,7.79,7.79h30.13v-7.79C1022.11,366.6,1019.51,364,1019.08,364Z"/><path d="M946.89,333.35H937q-5.7,5.07-5.71,5.71,20.77,21.43,21.81,21.81h10.38V350Q947.67,333.5,946.89,333.35Z"/><path d="M985.84,360.87h9.35q21.43-20.77,21.81-21.81-5.07-5.7-5.71-5.71h-9.35q-17,16.36-17.14,17.14v9.35A.91.91,0,0,0,985.84,360.87Z"/><path d="M973.9,385.29q-7.8,6.49-7.79,9.35V423.2h7.79c5.18-4.75,7.79-7.35,7.79-7.79V393.08C976.93,387.89,974.32,385.29,973.9,385.29Z"/><path d="M967.67,326.6v22.34l7.27,7.79q7.8-7.14,7.79-7.79V318.81h-7.27C970.26,323.57,967.67,326.18,967.67,326.6Z"/><path d="M936.51,398.27v9.87l5.18,5.71q21.43-20.77,21.81-21.81V381.65H953.12Q936.63,397.49,936.51,398.27Z"/><path d="M959.88,371.78c-4.76-5.18-7.37-7.79-7.79-7.79H929.75c-5.53,5.11-8.31,7.88-8.31,8.31v6.23a.92.92,0,0,0,1,1h29.6C957.27,374.82,959.88,372.22,959.88,371.78Z"/><path d="M1069.45,398.27v9.87l5.18,5.71q21.43-20.77,21.81-21.81V381.65h-10.38Q1069.58,397.49,1069.45,398.27Z"/><path d="M1128.66,381.65h-10.91V392q20.77,21.43,21.81,21.81c3.45-3,5.18-4.75,5.18-5.18V397.76Q1129.43,381.79,1128.66,381.65Z"/><path d="M1092.82,371.78c-4.76-5.18-7.37-7.79-7.79-7.79h-22.34c-5.53,5.11-8.31,7.88-8.31,8.31v6.23a.92.92,0,0,0,1,1H1085C1090.22,374.82,1092.82,372.22,1092.82,371.78Z"/><path d="M1106.84,385.29q-7.8,6.49-7.79,9.35V423.2h7.79c5.18-4.75,7.79-7.35,7.79-7.79V393.08C1109.87,387.89,1107.27,385.29,1106.84,385.29Z"/><path d="M1100.61,326.6v22.34l7.27,7.79q7.8-7.14,7.79-7.79V318.81h-7.27C1103.2,323.57,1100.61,326.18,1100.61,326.6Z"/><path d="M1079.83,333.35H1070q-5.7,5.07-5.71,5.71,20.77,21.43,21.81,21.81h10.38V350Q1080.61,333.5,1079.83,333.35Z"/><path d="M1152,364h-22.34c-5.2,4.76-7.79,7.37-7.79,7.79q7.14,7.8,7.79,7.79h30.13v-7.79C1155.06,366.6,1152.45,364,1152,364Z"/><path d="M1118.78,360.87h9.35q21.43-20.77,21.81-21.81-5.07-5.7-5.71-5.71h-9.35q-17,16.36-17.14,17.14v9.35A.91.91,0,0,0,1118.78,360.87Z"/><path d="M348.3,635.49H227.9A36,36,0,0,0,192,671.43v120.4a36,36,0,0,0,35.94,35.94H348.3a36,36,0,0,0,35.94-35.94V671.43A36,36,0,0,0,348.3,635.49Zm21,156.34a21.05,21.05,0,0,1-21,21H227.9a21.05,21.05,0,0,1-21-21V671.43a21.05,21.05,0,0,1,21-21H348.3a21.05,21.05,0,0,1,21,21Z"/><path d="M558.75,635.49H438.35a36,36,0,0,0-35.92,35.94v120.4a36,36,0,0,0,35.92,35.94h120.4a36,36,0,0,0,35.94-35.94V671.43A36,36,0,0,0,558.75,635.49Zm21,156.34a21.05,21.05,0,0,1-21,21H438.35a21,21,0,0,1-21-21V671.43a21,21,0,0,1,21-21h120.4a21.05,21.05,0,0,1,21,21Z"/><path d="M859.26,827.77H979.67a36,36,0,0,0,35.92-35.94V671.43a36,36,0,0,0-35.92-35.94H859.26a36,36,0,0,0-35.94,35.94v120.4A36,36,0,0,0,859.26,827.77Zm-21-156.34a21.05,21.05,0,0,1,21-21H979.67a21,21,0,0,1,21,21v120.4a21,21,0,0,1-21,21H859.26a21.05,21.05,0,0,1-21-21Z"/><path d="M612.88,671.43v120.4a36,36,0,0,0,35.92,35.94H769.22a36,36,0,0,0,35.92-35.94V671.43a36,36,0,0,0-35.92-35.94H648.8A36,36,0,0,0,612.88,671.43Zm177.35,0v120.4a21,21,0,0,1-21,21H648.8a21,21,0,0,1-21-21V671.43a21,21,0,0,1,21-21H769.22A21,21,0,0,1,790.23,671.43Z"/><path d="M1069.71,827.77h120.4a36,36,0,0,0,35.94-35.94V671.43a36,36,0,0,0-35.94-35.94h-120.4a36,36,0,0,0-35.94,35.94v120.4A36,36,0,0,0,1069.71,827.77Zm-21-156.34a21.05,21.05,0,0,1,21-21h120.4a21.05,21.05,0,0,1,21,21v120.4a21.05,21.05,0,0,1-21,21h-120.4a21.05,21.05,0,0,1-21-21Z"/><path d="M348.3,845H227.9A36,36,0,0,0,192,880.95v120.4a36,36,0,0,0,35.94,35.94H348.3a36,36,0,0,0,35.94-35.94V880.95A36,36,0,0,0,348.3,845Zm21,156.34a21.05,21.05,0,0,1-21,21H227.9a21.05,21.05,0,0,1-21-21V880.95a21.05,21.05,0,0,1,21-21H348.3a21.05,21.05,0,0,1,21,21Z"/><path d="M558.75,845H438.35a36,36,0,0,0-35.92,35.94v120.4a36,36,0,0,0,35.92,35.94h120.4a36,36,0,0,0,35.94-35.94V880.95A36,36,0,0,0,558.75,845Zm21,156.34a21.05,21.05,0,0,1-21,21H438.35a21,21,0,0,1-21-21V880.95a21,21,0,0,1,21-21h120.4a21.05,21.05,0,0,1,21,21Z"/><path d="M859.26,1037.29H979.67a36,36,0,0,0,35.92-35.94V880.95A36,36,0,0,0,979.67,845H859.26a36,36,0,0,0-35.94,35.94v120.4A36,36,0,0,0,859.26,1037.29Zm-21-156.34a21.05,21.05,0,0,1,21-21H979.67a21,21,0,0,1,21,21v120.4a21,21,0,0,1-21,21H859.26a21.05,21.05,0,0,1-21-21Z"/><path d="M769.22,845H648.8a36,36,0,0,0-35.92,35.94v120.4a36,36,0,0,0,35.92,35.94H769.22a36,36,0,0,0,35.92-35.94V880.95A36,36,0,0,0,769.22,845Zm21,156.34a21,21,0,0,1-21,21H648.8a21,21,0,0,1-21-21V880.95a21,21,0,0,1,21-21H769.22a21,21,0,0,1,21,21Z"/><path d="M1069.71,1037.29h120.4a36,36,0,0,0,35.94-35.94V880.95A36,36,0,0,0,1190.12,845h-120.4a36,36,0,0,0-35.94,35.94v120.4A36,36,0,0,0,1069.71,1037.29Zm-21-156.34a21.05,21.05,0,0,1,21-21h120.4a21.05,21.05,0,0,1,21,21v120.4a21.05,21.05,0,0,1-21,21h-120.4a21.05,21.05,0,0,1-21-21Z"/><path d="M348.3,1054.53H227.9A36,36,0,0,0,192,1090.47v120.4a36,36,0,0,0,35.94,35.94H348.3a36,36,0,0,0,35.94-35.94v-120.4A36,36,0,0,0,348.3,1054.53Zm21,156.34a21.05,21.05,0,0,1-21,21H227.9a21.05,21.05,0,0,1-21-21v-120.4a21.05,21.05,0,0,1,21-21H348.3a21.05,21.05,0,0,1,21,21Z"/><path d="M558.75,1054.53H438.35a36,36,0,0,0-35.92,35.94v120.4a36,36,0,0,0,35.92,35.94h120.4a36,36,0,0,0,35.94-35.94v-120.4A36,36,0,0,0,558.75,1054.53Zm21,156.34a21.05,21.05,0,0,1-21,21H438.35a21,21,0,0,1-21-21v-120.4a21,21,0,0,1,21-21h120.4a21.05,21.05,0,0,1,21,21Z"/><path d="M859.26,1246.81H979.67a36,36,0,0,0,35.92-35.94v-120.4a36,36,0,0,0-35.92-35.94H859.26a36,36,0,0,0-35.94,35.94v120.4A36,36,0,0,0,859.26,1246.81Zm-21-156.34a21.05,21.05,0,0,1,21-21H979.67a21,21,0,0,1,21,21v120.4a21,21,0,0,1-21,21H859.26a21.05,21.05,0,0,1-21-21Z"/><path d="M769.22,1054.53H648.8a36,36,0,0,0-35.92,35.94v120.4a36,36,0,0,0,35.92,35.94H769.22a36,36,0,0,0,35.92-35.94v-120.4A36,36,0,0,0,769.22,1054.53Zm21,156.34a21,21,0,0,1-21,21H648.8a21,21,0,0,1-21-21v-120.4a21,21,0,0,1,21-21H769.22a21,21,0,0,1,21,21Z"/><path d="M1069.71,1246.81h120.4a36,36,0,0,0,35.94-35.94v-120.4a36,36,0,0,0-35.94-35.94h-120.4a36,36,0,0,0-35.94,35.94v120.4A36,36,0,0,0,1069.71,1246.81Zm-21-156.34a21.05,21.05,0,0,1,21-21h120.4a21.05,21.05,0,0,1,21,21v120.4a21.05,21.05,0,0,1-21,21h-120.4a21.05,21.05,0,0,1-21-21Z"/><polygon points="465.88 1115.48 489.11 1115.48 489.11 1209.46 512.01 1209.46 512.01 1095.24 465.88 1099.32 465.88 1115.48"/><path d="M527.39,885.72H504.33l-47.38,75.7,1,13.73h46.6v24.78h22.83V975.16h12.94V957.5H527.39ZM504.56,957.5H478.28l24-38.11,1.81-3.23.47.16Z"/><path d="M457.18,693.37h58.68a142.57,142.57,0,0,0-24.08,38.72,164.55,164.55,0,0,0-11.44,46.25l-1.11,11.61h22.9l1.11-11.61q2.9-26.3,9.61-44.88t25.06-40.09V675.73H457.18Z"/><path d="M700.51,1191.42l20.31-22.12q13.11-14.2,18.78-22.95a34.31,34.31,0,0,0,5.69-19.1q0-15.29-10.08-24.48t-27.74-9.17q-17.89,0-28.44,10.7a34.53,34.53,0,0,0-10.16,26.17l.16.47h22.28q0-8.93,4.12-14.31t12-5.37q7.14,0,11,4.59t3.89,11.81a25.17,25.17,0,0,1-3.38,11.72q-3.36,6.31-11.37,15.49l-37,39.62v15h78v-17.65h-48Z"/><path d="M288.05,1093.6q-17.8,0-28.19,11.81t-10.4,34.39V1165q0,22.67,10.43,34.41t28.32,11.72q17.73,0,28.13-11.72T326.73,1165V1139.8q0-22.58-10.47-34.39T288.05,1093.6Zm15.86,73.52q0,13.8-4,20.07a13,13,0,0,1-11.69,6.28,13.25,13.25,0,0,1-11.88-6.28q-4-6.27-4-20.07v-29.69c0-9.1,1.32-15.73,4-19.92a14.17,14.17,0,0,1,23.54,0q4.06,6.31,4.08,19.88Z"/><path d="M889.89,1202.67q11.42,8.43,27.35,8.43,17.8,0,29.21-9t11.42-24.67a27.2,27.2,0,0,0-5-16.24q-5-7-14.47-10.35a31.36,31.36,0,0,0,12.94-10.48,24.18,24.18,0,0,0,4.7-14.15q0-15.68-10.54-24.16t-28.28-8.47q-15.94,0-26.68,8.71t-10.28,22.12l.16.47h22.21A12.35,12.35,0,0,1,907,1115a16,16,0,0,1,10.83-3.77q7.45,0,11.37,4.15t3.92,11.07c0,5.07-1.31,9-3.92,11.88s-6.64,4.28-12.09,4.28H904.29v17.18h12.86c5.85,0,10.29,1.4,13.29,4.18s4.51,7.19,4.51,13.19q0,7.51-4.59,11.9c-3.06,2.93-7.24,4.38-12.51,4.38a17.07,17.07,0,0,1-11.93-4.25,13.9,13.9,0,0,1-4.7-10.8H879l-.16.47Q878.47,1194.24,889.89,1202.67Z"/><path d="M713.29,925a31.62,31.62,0,0,0-9.89,1.6,27.29,27.29,0,0,0-7.62,3.89l3.15-26.36h44.95V885.72h-63.7l-6.58,63.62,20.15,1.34a13.33,13.33,0,0,1,5-6.6q3.49-2.42,10.09-2.43,8,0,12.07,6T725,963.42q0,9.17-3.8,14.84t-11.81,5.68a15.32,15.32,0,0,1-11.28-4.28q-4.32-4.26-4.32-11.88l-22,1.11-.15.39q-.39,15,10.82,23.69t27,8.62q18.67,0,28.6-10.91t9.93-27.37q0-18.19-9.07-28.39T713.29,925Z"/><path d="M922,1001.59q17,0,27.74-11.21t10.7-28.48q0-16.86-8.66-27.72t-24-10.88a36.63,36.63,0,0,0-13.27,2.29,26.55,26.55,0,0,0-9.73,6.28l-.23-.39q-.46-13.8,5.85-21.61A20.44,20.44,0,0,1,927.19,902a43.68,43.68,0,0,1,9.38.9,88.76,88.76,0,0,1,9.22,2.71l4.08-16.79a63.51,63.51,0,0,0-11-3.57A55.18,55.18,0,0,0,927,884.08q-20,0-33,13.25T881.13,933v22.28q0,21.71,11.39,34T922,1001.59Zm-18-53.35a16.38,16.38,0,0,1,6.92-5.56,26,26,0,0,1,10.82-2,13.65,13.65,0,0,1,11.53,5.87q4.3,5.88,4.31,15.35a27.72,27.72,0,0,1-4.27,15.62q-4.28,6.47-11.34,6.47-8.15,0-13.06-7.28T904,955.82Z"/><path d="M675.29,742.37a26.87,26.87,0,0,0-5.23,16.35q0,15.84,10.79,24.36t28.28,8.5q17.34,0,28.09-8.5T748,758.72a26.8,26.8,0,0,0-5.26-16.32,33.56,33.56,0,0,0-14.36-11,30,30,0,0,0,12.43-10.28A26.08,26.08,0,0,0,745.29,706q0-15.2-10-23.57T709,674.08q-16.32,0-26.27,8.34t-10,23.57a26.14,26.14,0,0,0,4.48,15.11,29.83,29.83,0,0,0,12.46,10.24A33.66,33.66,0,0,0,675.29,742.37Zm23.88-46.52q3.54-4.13,9.8-4.12a12.41,12.41,0,0,1,9.86,4.19q3.65,4.19,3.64,11.1,0,7.14-3.57,11.34a12.16,12.16,0,0,1-9.77,4.19q-6.36,0-9.92-4.19c-2.39-2.8-3.57-6.58-3.57-11.34S696.81,698.59,699.17,695.85Zm-1.76,49q4.35-4.61,11.56-4.62a15.49,15.49,0,0,1,11.62,4.62c3,3.09,4.47,7.18,4.47,12.29s-1.47,9.26-4.4,12.29a15.31,15.31,0,0,1-11.53,4.54c-4.86,0-8.75-1.5-11.69-4.5s-4.38-7.11-4.38-12.33S694.49,747.91,697.4,744.82Z"/><path d="M914,752.36a26.33,26.33,0,0,0,11.42-2.5,25.59,25.59,0,0,0,9.13-7.37v5.64q0,12.45-5.68,19.13a18.45,18.45,0,0,1-14.72,6.68,64,64,0,0,1-11.26-.9,55.33,55.33,0,0,1-10.08-2.87l-2.67,16.61a55.88,55.88,0,0,0,11.72,3.58,64.47,64.47,0,0,0,12.28,1.22q18.91,0,31.12-11.93T957.46,747V720q0-21.8-10.91-33.84t-28.39-12q-16.71,0-27.54,11.33t-10.82,28.44q0,17.74,9.13,28.13T914,752.36Zm-7-54.2q4.35-6.44,11.25-6.44a13.72,13.72,0,0,1,11.93,6.51q4.39,6.51,4.38,19.06v10.51a18.58,18.58,0,0,1-6.81,5.65,21.87,21.87,0,0,1-9.89,2.11,12.7,12.7,0,0,1-11.26-6q-4-6-4-15.73Q902.64,704.59,907,698.16Z"/><path d="M320.06,675.73H305.7l-5.81,32.63H284.83l5.72-32.63H276.2l-5.72,32.63H249.93V721.7h18.2l-4,22.83H244v13.34h17.81l-5.65,32.08h14.43l5.56-32.08h15.07l-5.65,32.08H300l5.65-32.08h19.93V744.53H308l4-22.83h19.61V708.36H314.33Zm-26.52,68.8h-15l3.92-22.83h15.07Z"/><polygon points="316.95 926.51 294.14 935.93 295.62 908.24 280.96 908.24 282.37 935.45 259.07 925.81 254.59 939.69 278.28 946.68 261.89 968.01 273.9 976.32 287.47 954.28 301.11 977.04 313.04 968.4 297.36 947.61 321.35 940.63 316.95 926.51"/><path d="M1101.22,1183c7.43,0,13.48-2.39,18.13-7.19s7-10.88,7-18.23v-10.79q0-11-7-18.2t-18.14-7.22q-11.07,0-18,7.22t-6.89,18.2v10.79q0,11,6.92,18.23T1101.22,1183Zm-12.93-36.26c0-4.7,1.14-8.55,3.38-11.53a11.21,11.21,0,0,1,9.51-4.47,11.51,11.51,0,0,1,9.63,4.5c2.34,3,3.51,6.83,3.51,11.5v10.88q0,7.14-3.46,11.63a11.42,11.42,0,0,1-9.62,4.48,11.24,11.24,0,0,1-9.51-4.48c-2.27-3-3.42-6.87-3.42-11.63Z"/><polygon points="1147.73 1157.15 1154.38 1157.15 1170.49 1182.17 1185.14 1182.17 1163.37 1150.15 1183.52 1122.25 1168.84 1122.25 1152.96 1146.74 1147.73 1146.74 1147.73 1122.25 1135.7 1122.25 1135.7 1182.17 1147.73 1182.17 1147.73 1157.15"/><path d="M1072,785.21a212.71,212.71,0,0,0,30.64,7.24h-2c1.26.21,2.51.41,3.77.59s2.44.31,3.67.45a23.68,23.68,0,0,0,24.69,14.9c9.38-1,17.5-7.48,19.26-14.92,1.15-.14,2.31-.26,3.46-.42s2.52-.38,3.77-.59h-2a212.69,212.69,0,0,0,30.64-7.24c6.09-1.91,8.54-8.48,4.32-13.21-8.17-9.14-10.75-19.74-10.23-31.63.33-7.52.22-15.07,0-22.61-.58-22.28-10.86-38.43-30.92-48.28-1-.47-1.93-.93-2.88-1.41a4.35,4.35,0,0,1-.62-.58c0-10.69-13.07-9.93-17.29-9.94v0h-.77v0c-4.22,0-17.29-.75-17.29,9.94a4.36,4.36,0,0,1-.62.58c-1,.48-1.92.94-2.88,1.41-20.05,9.85-30.33,26-30.92,48.28-.2,7.53-.3,15.09,0,22.61.52,11.88-2.06,22.48-10.23,31.63C1063.41,776.73,1065.86,783.3,1072,785.21Z"/><path d="M1100.85,976.76c16.41,15.6,34.68,28.1,57.25,33,6.11,1.34,12.27,2.26,18.54.64a40.45,40.45,0,0,0,19.72-12.14c5.05-5.42,5.17-11.87-.08-17.14q-10-10-20-20c-5.48-5.46-12.08-5.42-17.57.07-3.05,3.06-6.06,6.16-9.16,9.17-.45.43-1.54.84-1.94.6-5.8-3.49-11.78-6.76-17.23-10.74-12.79-9.36-22.21-21.62-29.59-35.56-.8-1.51-.72-2.38.5-3.55,3.49-3.36,7-6.73,10.24-10.33a10.75,10.75,0,0,0-.15-14.41q-11-11.38-22.45-22.42c-3.05-3-6.84-3.65-10.92-2.24-4.8,1.65-7.78,5.55-10.71,9.24-5.74,7.21-7.65,15.78-7.64,24.86,0,13.56,4.77,25.61,12,36.81C1079.8,955.32,1089.94,966.39,1100.85,976.76Z"/></svg>