<svg id="Layer_1" data-name="Layer 1" xmlns="http://www.w3.org/2000/svg" viewBox="0 0 1417.32 1417.32"><defs><style>.cls-1{fill:#231f20;}</style></defs><title>1Artboard 11</title><path class="cls-1" d="M1052.15,584.36l1.89-3.85v-.16c1.66-3.31,3.52-7.19,3.54-7.22a384.15,384.15,0,0,0,37.47-165.76c0-213.15-173.41-386.54-386.55-386.54-213,0-386.23,173.39-386.23,386.54a380,380,0,0,0,36.06,162.93c1.12,2.69,3.35,6.66,7.85,14.16.95,1.89,1.68,3.34,2.44,4.58,27.91,54.53,89.78,210.07,108.59,286.86,19.08,78.17,21.85,106.5,22.75,177.43,0,2.06.31,3.18.33,1.91l.25,3.49,3.6,7.53c6.06,9.39,24.19,30.4,40.61,41.69,2.83,5.82,5.25,11.34,7.24,16.46.52,1.33,1,2.68,1.46,4a96.1,96.1,0,0,1,3.17,10.66c.2.87.54,1.81.69,2.65,3.86,20.72,7.78,66.4,7.78,113.59l0,24.62a27.78,27.78,0,0,0,1.25,6,11.4,11.4,0,0,0,.32,1.27l1.61,4.75,1.8.9c2.45,3.21,6.53,8.55,11.41,14.7h0l.08.14c13.08,16.47,23.67,28.54,31.43,35.89,1.58,1.49,3.2,3.17,4.87,5l6.5,7.08,0,0,0,0,0,0c13.18,14.23,37.7,40.71,85.39,40.87,47.28-.14,71.8-26.64,85-40.87l-8.75-8.1,8.77,8.07,6.5-7.08c1.68-1.79,3.29-3.46,4.87-5,9.79-9.25,22.51-24.65,31.45-35.93,5.39-6.78,9.68-12.46,13-17.11l.13.1c.16-.22.2-.53.35-.76s.54-.74.75-1a17.13,17.13,0,0,0,1.21-3.28c.18-.63.27-1.29.4-2,.18-1,.3-1.79.37-2.51s.28-1.44.33-2.19v-23.52c0-47.14,3.91-92.82,7.76-113.59a98.89,98.89,0,0,1,4.74-15.88l.27-.73c2.09-5.47,4.85-11.58,7.93-17.9,17.19-12.19,34.75-33.51,39.84-41.91a13.26,13.26,0,0,0,1.66-3.12l1.94-8.68c.92-71.14,3.68-99.46,22.75-177.65C960.2,797.21,1025.24,634.3,1052.15,584.36ZM709.62,1372.62v-.28c-28.16,0-45.14-11.16-59-24.38,17,.38,36.52.61,59,.61s42-.23,59.07-.61C754.87,1361.25,737.85,1372.48,709.62,1372.62Zm137.63-262.28c-1,2.48-2,4.93-3,7.49-.84,2.24-1.6,4.37-2.34,6.63-1,3-1.69,5.81-2.38,8.69-.36,1.5-1,3.09-1.24,4.55-4.07,21.81-8.18,69.32-8.18,118l-.4,23.28c-1.29,1.7-3,3.94-5,6.47-24.45,1.4-61.64,2.75-115.12,2.75s-90.59-1.35-115-2.75c-2.32-3-4.14-5.34-5.49-7.12l0-22.63q0-8.56-.17-17c4.76.19,9.78.37,15.23.54,22.09.67,49.55,1.15,83.12,1.15a7.95,7.95,0,1,0,0-15.89c-33.39,0-60.69-.48-82.76-1.15-6-.19-10.83-.4-16-.61-.33-9.35-.79-18.34-1.34-27,5.29.22,10.87.42,17,.61,22.1.67,49.56,1.15,83.13,1.15a7.95,7.95,0,0,0,0-15.89c-33.39,0-60.69-.48-82.76-1.15-6.73-.21-12.78-.44-18.54-.68-.84-10.17-1.79-19.31-2.79-27.12q44.87,1.91,104.1,2a7.95,7.95,0,0,0,0-15.89c-40.64,0-76.25-.72-106.62-2.07-.23-1.13-.68-2.32-1-3.47-.69-2.88-1.44-5.75-2.39-8.7-.68-2.06-1.34-4-2.1-6-1.17-3.17-2.38-6.21-3.67-9.21-.35-.81-.64-1.72-1-2.52,23.39,1.69,67.24,3.86,139.11,3.86s115.7-2.17,139.08-3.86C848.18,1107.85,847.76,1109.14,847.25,1110.33Zm62.93-242c-19.7,80.83-22.66,110.48-23.34,180.89-21,2.47-69.74,6-177.21,6.07h-1l1,15.89c87.06,0,136.19-2.33,163.65-4.64a104.84,104.84,0,0,1-17.66,15.6c-19.2,1.65-64.11,4.53-146,4.53-82.72,0-127.81-2.94-146.67-4.58-5.33-3.54-11.62-9.26-17.52-15.51,27.54,2.3,76.62,4.58,163.21,4.6v-15.89c-107,0-155.84-3.57-176.94-6-1-71.16-4.13-101.09-23.6-180.94-17.86-72.88-73.44-214.64-104.8-280.52,40.89,4.35,127.94,10,305.51,10,178.64,0,265-5.6,306.14-10.14C983.87,652.63,927.88,795.58,910.18,868.36Z"/></svg>