<?xml version="1.0" encoding="utf-8"?>
<!-- Generator: Adobe Illustrator 21.0.0, SVG Export Plug-In . SVG Version: 6.00 Build 0)  -->
<svg version="1.1" id="Layer_1" xmlns="http://www.w3.org/2000/svg" xmlns:xlink="http://www.w3.org/1999/xlink" x="0px" y="0px"
	 viewBox="0 0 819.2 1417.3" style="enable-background:new 0 0 819.2 1417.3;" xml:space="preserve">
<path d="M409.4,5.5C188.2,5.5,8.2,183,8.2,401.2c0,58.5,12.6,114.6,37.4,166.7c1.1,2.7,3.4,6.6,7.9,14.1c1.1,2.2,2,3.9,2.9,5.3
	c29,55.9,93.2,215.1,112.8,293.7c19.8,80,22.7,109,23.6,181.7c0,1.3,0.2,2.4,0.2,2.5l-0.3,2.4l3.4,7.5l1.2,1.2
	c6.6,9.8,25.7,32,42.4,43.3c4.2,8.6,10.4,22.5,12.5,33.7c4,21.2,8.1,68,8.1,116.3l0,25.3c0.1,1.8,0.6,5,1.8,7.8l2.7,7.8h2.7
	c2.5,3.3,5.9,7.6,9.8,12.4l0.1,0c0,0,0.1,0.1,0.1,0.1l0,0c9.3,11.6,22.5,27.3,32.7,36.8c1.6,1.5,3.3,3.2,5,5.1l6.8,7.2l0,0l0,0l0,0
	c13.7,14.6,39.1,41.7,88.5,41.9l2,0c48-0.8,73-27.5,86.5-41.9l-9.1-8.3l0,0l9.1,8.3l6.8-7.3c1.7-1.8,3.4-3.5,5-5
	c8.1-7.6,19.1-19.9,32.7-36.8l-9.7-7.6l0,0l9.7,7.6c5.5-6.8,10-12.7,13.4-17.4l0.1,0.1c0.5-0.6,0.9-1.3,1.2-2c0,0,0,0,0,0
	c0,0,0,0,0,0c1.2-2.4,2-5.5,2.4-10.1v-24.1c0-48.3,4.1-95,8.1-116.3c2.1-11.3,8.4-25.4,12.9-34.4c18-12.4,36.6-35.1,42-43.8
	c1.2-1.7,1.7-3,1.7-3.1l2.1-9c1-72.9,3.8-101.9,23.6-181.9c19.9-80.5,87.4-247.3,115.4-298.5l2-3.9v-0.2c1.7-3.4,3.7-7.3,3.7-7.4
	c25.8-53.7,38.9-110.8,38.9-169.7C811,183,630.8,5.5,409.4,5.5z M544.3,1148.9c-4.2,22.3-8.5,71-8.5,120.8l-0.3,23.7
	c-1.4,1.8-3.2,4.1-5.3,6.8c-25.4,1.4-64.1,2.8-119.6,2.8c-55.4,0-94.1-1.4-119.5-2.8c-2.3-2.9-4.3-5.4-5.7-7.3v-23.2
	c0-5.8-0.1-11.6-0.2-17.4c4.9,0.2,10.2,0.4,15.8,0.5c23,0.7,51.5,1.2,86.4,1.2c4.6,0,8.3-3.6,8.3-8.1c0-4.5-3.7-8.1-8.3-8.1
	c-34.7,0-63-0.5-86-1.2c-5.9-0.2-11.5-0.4-16.6-0.6c-0.3-9.6-0.8-18.8-1.4-27.6c5.5,0.2,11.3,0.4,17.6,0.6c23,0.7,51.5,1.2,86.4,1.2
	c4.6,0,8.3-3.6,8.3-8.1c0-4.5-3.7-8.1-8.3-8.1c-34.7,0-63-0.5-86-1.2c-6.9-0.2-13.3-0.4-19.2-0.7c-0.9-10.4-1.9-19.7-2.9-27.7
	c31,1.3,67.3,1.9,108.1,1.9c4.6,0,8.3-3.6,8.3-8.1c0-4.5-3.7-8.1-8.3-8.1c-42,0-79.2-0.7-110.7-2.1c-2-10-6.3-21.1-10.6-30.7
	c24.3,1.7,69.8,4,144.5,4c74.6,0,120.2-2.2,144.5-4C550.5,1127.2,546.2,1138.6,544.3,1148.9z M410.6,1389.4v-0.3
	c-29.3,0-47.2-11.4-61.5-25c17.7,0.4,38.1,0.6,61.5,0.6c23.5,0,43.9-0.2,61.7-0.6C457.9,1377.8,440,1389.3,410.6,1389.4z
	 M618.9,873.2c-20.5,82.7-23.5,113-24.3,185.2c-21.8,2.5-72.6,6.2-184.1,6.2h-1l1,16.3c90.3,0,141.5-2.4,170-4.7
	c-5.6,6-12,12-17.8,15.9c-19.9,1.7-67,4.7-152.2,4.7c-86.3,0-133.5-3.1-153-4.7c-5.4-3.7-11.9-9.8-17.7-15.8
	c28.6,2.4,79.7,4.7,169.6,4.7v-16.3c-111,0-161.8-3.6-183.8-6.2c-1-72.9-4.3-103.5-24.5-185.2c-18.6-74.9-76.7-221-108.7-287.2
	c42.7,4.4,133.3,10.2,317.2,10.2c185.1,0,275.1-5.7,318-10.4C695.4,652.4,637.3,798.8,618.9,873.2z M742.3,556.9
	c0,0-3.6,7.4-4.8,9.5l-1.1,2.1c-35.4,4.6-122.8,11.4-327.6,11.4c-200,0-288.4-6.8-325-11.3l-1.3-2.3c-2.1-3.5-5-8.5-6.2-10.6L76,555
	c-23-48-34.7-99.7-34.7-153.8C41.3,200.9,206.4,38,409.4,38c203.2,0,368.5,162.9,368.5,363.2C777.9,455.2,765.9,507.6,742.3,556.9z"
	/>
</svg>
