<svg id="Layer_1" data-name="Layer 1" xmlns="http://www.w3.org/2000/svg" viewBox="0 0 1417.32 1417.32"><title>1Artboard 26</title><path d="M708.67,44.27c-366.35,0-664.4,298.05-664.4,664.4s298.05,664.38,664.4,664.38,664.38-298,664.38-664.38S1075,44.27,708.67,44.27Zm0,1291.1C363.1,1335.36,82,1054.22,82,708.67S363.1,82,708.67,82s626.69,281.14,626.69,626.71S1054.22,1335.36,708.67,1335.36Z"/><path d="M868.33,537A159.66,159.66,0,1,0,627,674l-34.8,323.35A38.51,38.51,0,0,0,630.54,1040H797.41a38.52,38.52,0,0,0,38.3-42.63l-35.49-329.7A159.38,159.38,0,0,0,868.33,537Z"/></svg>