<svg id="Layer_1" data-name="Layer 1" xmlns="http://www.w3.org/2000/svg" viewBox="0 0 1417.32 1417.32"><title>1Artboard 13</title><path d="M962.15,1322.05h-507c-200,0-362.76-162.73-362.76-362.76v-507c0-200,162.74-362.76,362.76-362.76h507c200,0,362.76,162.73,362.76,362.76v507C1324.91,1159.33,1162.17,1322.05,962.15,1322.05Zm-507-1198.82c-181.46,0-329.07,147.63-329.07,329.07v507c0,181.45,147.61,329.07,329.07,329.07h507c181.46,0,329.07-147.63,329.07-329.07v-507c0-181.45-147.61-329.07-329.07-329.07Z"/><path d="M928,1232.8H489.35c-169.65,0-307.69-138-307.69-307.69V486.49c0-169.67,138-307.69,307.69-307.69H928c169.65,0,307.69,138,307.69,307.69V925.11C1235.66,1094.78,1097.63,1232.8,928,1232.8ZM489.35,195.64C329,195.64,198.5,326.11,198.5,486.49V925.11C198.5,1085.49,329,1216,489.35,1216H928c160.38,0,290.85-130.47,290.85-290.85V486.49c0-160.38-130.47-290.85-290.85-290.85Z"/></svg>