<?xml version="1.0" encoding="utf-8"?>
<!-- Generator: Adobe Illustrator 21.0.0, SVG Export Plug-In . SVG Version: 6.00 Build 0)  -->
<svg version="1.1" id="Layer_1" xmlns="http://www.w3.org/2000/svg" xmlns:xlink="http://www.w3.org/1999/xlink" x="0px" y="0px"
	 viewBox="0 0 665 1417.3" style="enable-background:new 0 0 665 1417.3;" xml:space="preserve">
<g>
	<g>
		<g>
			<path d="M365.1,246.9h-65.3c-17.2,0-31.3-14.1-31.3-31.3v-65.1c0-17.2,14.1-31.3,31.3-31.3h65.3c17.2,0,31.3,14.1,31.3,31.3v65.1
				C396.4,232.8,382.3,246.9,365.1,246.9z"/>
		</g>
	</g>
	<g>
		<g>
			<path d="M214.5,936.7h-65.3c-17.2,0-31.3-14.1-31.3-31.3v-65.1c0-17.2,14.1-31.3,31.3-31.3h65.3c17.2,0,31.3,14.1,31.3,31.3v65.1
				C245.8,922.6,231.7,936.7,214.5,936.7z"/>
		</g>
	</g>
	<g>
		<g>
			<path d="M365.1,936.7h-65.3c-17.2,0-31.3-14.1-31.3-31.3v-65.1c0-17.2,14.1-31.3,31.3-31.3h65.3c17.2,0,31.3,14.1,31.3,31.3v65.1
				C396.4,922.6,382.3,936.7,365.1,936.7z"/>
		</g>
	</g>
	<g>
		<g>
			<path d="M515.7,936.7h-65.3c-17.2,0-31.3-14.1-31.3-31.3v-65.1c0-17.2,14.1-31.3,31.3-31.3h65.3c17.2,0,31.3,14.1,31.3,31.3v65.1
				C547,922.6,532.9,936.7,515.7,936.7z"/>
		</g>
	</g>
	<g>
		<g>
			<path d="M214.5,1089.2h-65.3c-17.2,0-31.3-14.1-31.3-31.3v-65.1c0-17.2,14.1-31.3,31.3-31.3h65.3c17.2,0,31.3,14.1,31.3,31.3
				v65.1C245.8,1075.1,231.7,1089.2,214.5,1089.2z"/>
		</g>
	</g>
	<g>
		<g>
			<path d="M365.1,1089.2h-65.3c-17.2,0-31.3-14.1-31.3-31.3v-65.1c0-17.2,14.1-31.3,31.3-31.3h65.3c17.2,0,31.3,14.1,31.3,31.3
				v65.1C396.4,1075.1,382.3,1089.2,365.1,1089.2z"/>
		</g>
	</g>
	<g>
		<g>
			<path d="M515.7,1089.2h-65.3c-17.2,0-31.3-14.1-31.3-31.3v-65.1c0-17.2,14.1-31.3,31.3-31.3h65.3c17.2,0,31.3,14.1,31.3,31.3
				v65.1C547,1075.1,532.9,1089.2,515.7,1089.2z"/>
		</g>
	</g>
	<g>
		<g>
			<path d="M214.5,1243.9h-65.3c-17.2,0-31.3-14.1-31.3-31.3v-65.1c0-17.2,14.1-31.3,31.3-31.3h65.3c17.2,0,31.3,14.1,31.3,31.3
				v65.1C245.8,1229.8,231.7,1243.9,214.5,1243.9z"/>
		</g>
	</g>
	<g>
		<g>
			<path d="M365.1,1243.9h-65.3c-17.2,0-31.3-14.1-31.3-31.3v-65.1c0-17.2,14.1-31.3,31.3-31.3h65.3c17.2,0,31.3,14.1,31.3,31.3
				v65.1C396.4,1229.8,382.3,1243.9,365.1,1243.9z"/>
		</g>
	</g>
	<g>
		<g>
			<path d="M515.7,1243.9h-65.3c-17.2,0-31.3-14.1-31.3-31.3v-65.1c0-17.2,14.1-31.3,31.3-31.3h65.3c17.2,0,31.3,14.1,31.3,31.3
				v65.1C547,1229.8,532.9,1243.9,515.7,1243.9z"/>
		</g>
	</g>
	<g>
		<g>
			<path d="M267.8,381.3H160.3c-22.1,0-40.2,18.1-40.2,40.2v262.7c0,22.1,18.1,40.2,40.2,40.2h107.5c22.1,0,40.2-18.1,40.2-40.2
				V421.4C308,399.4,289.9,381.3,267.8,381.3z M249.5,659.3h-70.8V639h70.8V659.3z M254.7,496.7h-30.8v30.9h-19.8v-30.9h-30.8v-19.6
				h30.8v-30.8h19.8v30.8h30.8V496.7z"/>
		</g>
	</g>
	<g>
		<g>
			<path d="M504.7,381.3H397.2c-22.1,0-40.2,18.1-40.2,40.2v262.7c0,22.1,18.1,40.2,40.2,40.2h107.5c22.1,0,40.2-18.1,40.2-40.2
				V421.4C544.9,399.4,526.8,381.3,504.7,381.3z M497.8,603.8l-41.3,68.8c-2.5,4.2-8.6,4.4-11.1,0.1c-10-16.7-31.1-51.8-41.4-69
				c-2.6-4.4,0.6-9.8,5.6-9.8h82.5C497.3,593.9,500.4,599.4,497.8,603.8z M492.2,511.7h-82.5c-5.1,0-8.3-5.5-5.6-9.8
				c10.3-17.1,31.3-52.3,41.4-69c2.5-4.2,8.6-4.1,11.1,0.1l41.3,68.8C500.4,506.2,497.3,511.7,492.2,511.7z"/>
		</g>
	</g>
	<g>
		<path d="M533,1404.6H132c-63.4,0-115-51.6-115-115.1V127.8C17,64.4,68.6,12.7,132,12.7h401c63.4,0,115.1,51.6,115.1,115.1v1161.7
			C648,1352.9,596.4,1404.6,533,1404.6z M132,37.3c-49.9,0-90.5,40.6-90.5,90.6v1161.7c0,49.9,40.6,90.6,90.5,90.6h401
			c49.9,0,90.6-40.6,90.6-90.6V127.8c0-49.9-40.6-90.6-90.6-90.6H132z"/>
	</g>
</g>
</svg>
