<?xml version="1.0" encoding="utf-8"?>
<!-- Generator: Adobe Illustrator 21.0.0, SVG Export Plug-In . SVG Version: 6.00 Build 0)  -->
<svg version="1.1" id="Layer_1" xmlns="http://www.w3.org/2000/svg" xmlns:xlink="http://www.w3.org/1999/xlink" x="0px" y="0px"
	 viewBox="0 0 1377.5 1240.3" style="enable-background:new 0 0 1377.5 1240.3;" xml:space="preserve">
<g>
	<path d="M1121.4,739.2c-41.6,0-80.8,10.6-115,29.2L826.6,456.9c61.6-43.8,101.9-115.8,101.9-197c0-133.2-108.3-241.5-241.5-241.5
		S445.5,126.8,445.5,259.9c0,81.2,40.3,153.2,101.9,197L369.9,764.4c-33.6-17.8-72-27.9-112.6-27.9C124.1,736.5,15.8,844.8,15.8,978
		c0,133.2,108.3,241.5,241.5,241.5c130,0,236.3-103.3,241.3-232.1l381.5,2.5c4.8,128.9,111.2,232.3,241.3,232.3
		c133.2,0,241.5-108.3,241.5-241.5S1254.6,739.2,1121.4,739.2z M482.6,259.9c0-112.7,91.7-204.4,204.4-204.4s204.4,91.7,204.4,204.4
		S799.7,464.3,687,464.3S482.6,372.6,482.6,259.9z M563,467.1c36.3,21.8,78.7,34.4,124,34.4c45.3,0,87.8-12.6,124-34.4l179.4,310.8
		c-64,41.5-107.2,112.4-110.3,193.4l-381.5-2.5c-3.1-82.1-47.3-153.8-112.6-195.1L563,467.1z M257.3,1182.3
		c-112.7,0-204.4-91.7-204.4-204.4c0-112.7,91.7-204.4,204.4-204.4c112.7,0,204.4,91.7,204.4,204.4
		C461.6,1090.6,370,1182.3,257.3,1182.3z M1121.4,1185c-112.7,0-204.4-91.7-204.4-204.4s91.7-204.4,204.4-204.4
		c112.7,0,204.4,91.7,204.4,204.4S1234.1,1185,1121.4,1185z"/>
</g>
</svg>
