<svg id="Layer_1" data-name="Layer 1" xmlns="http://www.w3.org/2000/svg" viewBox="0 0 1346.44 1346.46"><title>1Artboard 30</title><path d="M1152.52,1323.45H194c-94.26,0-171-76.7-171-171V194C23,99.71,99.7,23,194,23h958.57c94.26,0,170.92,76.7,170.92,171V1152.5C1323.45,1246.76,1246.78,1323.45,1152.52,1323.45ZM194,52.82c-77.83,0-141.14,63.3-141.14,141.14V1152.5c0,77.83,63.3,141.14,141.14,141.14h958.57c77.8,0,141.11-63.3,141.11-141.14V194c0-77.83-63.3-141.14-141.11-141.14Z"/><circle cx="462.19" cy="661.14" r="59.65"/><path d="M462.19,731.92A70.77,70.77,0,1,1,533,661.13,70.88,70.88,0,0,1,462.19,731.92Zm0-119.3a48.53,48.53,0,1,0,48.54,48.51A48.58,48.58,0,0,0,462.19,612.62Z"/><circle cx="884.28" cy="661.14" r="59.65"/><path d="M884.29,731.92A70.77,70.77,0,1,1,955,661.13,70.88,70.88,0,0,1,884.29,731.92Zm0-119.3a48.53,48.53,0,1,0,48.51,48.51A48.58,48.58,0,0,0,884.29,612.62Z"/><g id="_Group_" data-name="&lt;Group&gt;"><path d="M673.24,1106.09c-150,0-287.13-76-366.83-203.33a433.71,433.71,0,0,1-64.53-194.22c-.9-11.59-1.51-23.44-1.51-35.29a456.82,456.82,0,0,1,3.35-54.13c8.36-67,31.83-129.78,69.71-186.65l.06-.06c81-120.23,215.47-192,359.75-192,238.68,0,432.84,194.19,432.84,432.87S911.92,1106.09,673.24,1106.09ZM332,444.9c-36,53.93-58.21,113.47-66.13,177a434.55,434.55,0,0,0-3.17,51.39c0,11.27.61,22.54,1.46,33.52a410.87,410.87,0,0,0,61.18,184.11C401,1011.63,531,1083.72,673.24,1083.72c226.34,0,410.48-184.14,410.48-410.48S899.57,262.74,673.24,262.74C536.44,262.74,408.87,330.82,332,444.9Z"/></g><g id="_Group_2" data-name="&lt;Group&gt;"><path d="M1023.5,922.06,1020,700.18h81.5l-.67,8.07a428.79,428.79,0,0,1-64,192.53Zm11.65-207L1037.59,870a414.56,414.56,0,0,0,47.67-154.88Z"/><path d="M1100.08,627.91H1020l-4.19-214.6,14.15,21.23c37.59,56.4,60.86,118.63,69.1,185ZM1034.59,613h48.51a408.77,408.77,0,0,0-51.39-147.43Z"/></g><path d="M322.95,922.09l-13.37-21.31a429.5,429.5,0,0,1-64-192.53l-.67-8.07h81.5Zm-61.73-207A415.21,415.21,0,0,0,308.85,870l2.45-154.88Z"/><path d="M326.47,627.91h-80.1l1-8.39c8.3-66.36,31.53-128.61,69.13-185l14.15-21.23ZM263.34,613h48.51l2.91-147.43A409.37,409.37,0,0,0,263.34,613Z"/></svg>