<svg id="Layer_1" data-name="Layer 1" xmlns="http://www.w3.org/2000/svg" viewBox="0 0 1417.32 1417.32"><title>1Artboard 15</title><path d="M708.67,198.08c-113.35,0-205.24,91.89-205.24,205.24s91.89,205.25,205.24,205.25,205.24-91.89,205.24-205.25S822,198.08,708.67,198.08Zm0,281.21a76,76,0,1,1,76-76A76,76,0,0,1,708.67,479.28Z"/><path d="M708.67,733.24c-139.32,0-252.26,112.94-252.26,252.26s112.94,252.26,252.26,252.26S960.92,1124.81,960.92,985.5,848,733.24,708.67,733.24Zm0,364.48A112.22,112.22,0,1,1,820.88,985.5,112.21,112.21,0,0,1,708.67,1097.71Z"/><path d="M994.2,1380.15H423.14c-72.51,0-131.5-59-131.5-131.49v-1080c0-72.51,59-131.52,131.5-131.52H994.2c72.51,0,131.49,59,131.49,131.52v1080A131.63,131.63,0,0,1,994.2,1380.15ZM423.14,68.51A100.28,100.28,0,0,0,323,168.69v1080a100.27,100.27,0,0,0,100.16,100.15H994.2a100.27,100.27,0,0,0,100.15-100.15v-1080A100.27,100.27,0,0,0,994.2,68.51Z"/><circle cx="708.67" cy="403.32" r="29.44"/><circle cx="708.67" cy="985.5" r="46.5"/></svg>