<svg id="Layer_1" data-name="Layer 1" xmlns="http://www.w3.org/2000/svg" viewBox="0 0 1417.32 1417.32"><defs><style>.cls-1{fill:none;stroke:#000;stroke-miterlimit:10;stroke-width:15.2px;}</style></defs><title>1Artboard 16</title><path d="M1410,575.49V487.14h-1a57.39,57.39,0,0,0-5.07-32.78l-104.7-211.3a23.54,23.54,0,0,0-21-13.67h-1139c-8.64,0-16.68,5-21.14,13.46L13.21,454.36a57.39,57.39,0,0,0-5.07,32.78H7.26V577H8.54l.88,14.12c3.74,59.46,46.67,104.69,98.42,104.69,1.22,0,2.43,0,3.65-.07a87.84,87.84,0,0,0,19.22-3.21v511.34h1155.9V694a86.44,86.44,0,0,0,22.93,3.26c1.31,0,2.6,0,3.9-.09,51.36-1.93,92.6-47.42,95.93-105.84l.91-15.81Zm-27.67-110.44a33.41,33.41,0,0,1-1.4,32.18c-4.78,7.69-12.2,12.1-20.33,12.1H1228q-49.36-127.91-98.48-255.79h148ZM297.38,253.5H422.5l-65.1,255.82H198.9Zm278.59,0H697q-.33,127.88-.23,255.81H543.52Q559.54,381.41,576,253.51ZM886.48,509.33q-16.69-127.92-33.13-255.8H975.57l2.22,8.6q31.9,123.59,63.58,247.2ZM161.12,1173.43V677.51a105.53,105.53,0,0,0,30.78-35.18c17.64,34,49.75,56.66,86.7,56.66,1.25,0,2.51,0,3.77-.07,35.41-1.33,65.84-23.42,83-55.93,17.83,33.68,49.79,56,86.45,56,1.25,0,2.51,0,3.77-.07,33.83-1.37,63.71-22.26,81.28-53.32C555.2,677.91,586.74,699,621.8,699c1.28,0,2.57,0,3.86-.09,35.33-1.33,65.69-23.44,82.85-56,17.71,33.69,49.65,56,86.39,56,1.25,0,2.51,0,3.77-.07,34.15-1.36,64-22.23,81.35-53.14C898.15,678,929.53,699,964.8,699c1.29,0,2.6,0,3.9-.09,35.51-1.33,65.91-23.44,83-56,17.78,33.69,49.68,56,86.22,56,1.25,0,2.49,0,3.76-.07,35.58-1.34,66.13-23.64,83.28-56.41a106.67,106.67,0,0,0,31.27,35.92v495Zm49.17-567.73H347.46c-8,35.62-34.51,61.64-66.29,62.84C248.11,670.08,218.6,643.31,210.29,605.71Zm343.18,0h137c-8,35.62-34.39,61.64-66.1,62.84C591.86,669.95,562.25,643.54,553.47,605.71Zm343,0h137.1c-7.84,35.62-34.27,61.64-66.15,62.84C933.42,669.24,904.72,643.23,896.52,605.71Zm415.67,61.54c-11.34.77-23.13-2.57-33.72-9-17.72-10.78-30.7-30.25-35.86-52.87h134.74C1369.64,640.47,1343.63,666.07,1312.2,667.25Zm-71.84-91.76v-.18H176.78v.09H31.36V525.64a46.17,46.17,0,0,0,25.19,7.79h1304a46.18,46.18,0,0,0,25.29-7.87v49.92Z"/><path d="M1224.76,663.3c-19.46,27.77-49.19,45.79-82.76,47.06-36.48,1.26-69.31-16.94-90.3-46.92-19.4,27.7-49.06,45.65-82.66,46.92-35.58,1.51-67.87-16-89.06-45-19.46,26.59-48.53,43.69-81,45-36.71,1.47-69.58-16.94-90.55-46.92-19.42,27.7-49,45.66-82.47,46.93-35.2,1.41-67.75-16.16-89.07-45.24-19.57,26.71-48.71,43.93-80.94,45.23-36.69,1.51-69.55-17-90.6-46.95-19.46,27.71-49.14,45.69-82.67,47-36.84,1.33-69.45-16.9-90.41-46.79a117.18,117.18,0,0,1-22.29,24V974.37C277.76,922.08,624.6,781.69,1247.33,778.14V687.45A116.56,116.56,0,0,1,1224.76,663.3Z"/><rect class="cls-1" x="177.19" y="749.34" width="1061.41" height="404.17"/></svg>