<svg id="Layer_1" data-name="Layer 1" xmlns="http://www.w3.org/2000/svg" viewBox="0 0 1417.32 1417.32"><title>1Artboard 4</title><path d="M1380.61,565.77V481.11h-.95a55,55,0,0,0-4.86-31.41L1274.47,247.21a22.56,22.56,0,0,0-20.14-13.1H162.8c-8.28,0-16,4.84-20.26,12.9L42.09,449.7a55,55,0,0,0-4.86,31.41h-.85V567.2h1.23l.85,13.53C42,637.7,83.18,681,132.78,681c1.17,0,2.33,0,3.5-.07a84.17,84.17,0,0,0,18.42-3.08v490H1262.42V679.31a82.83,82.83,0,0,0,22,3.13c1.25,0,2.49,0,3.74-.09,49.22-1.85,88.74-45.45,91.93-101.43l.87-15.15Zm-26.51-105.83a32,32,0,0,1-1.34,30.84c-4.58,7.37-11.69,11.59-19.49,11.59h-127q-47.3-122.58-94.38-245.13h141.81ZM314.42,257.21h119.9L371.93,502.37H220Zm267,0h116q-.32,122.55-.22,245.14H550.3Q565.64,379.78,581.4,257.22ZM879,502.37q-16-122.58-31.74-245.14H964.33l2.13,8.24q30.57,118.43,60.93,236.9ZM183.83,1138.79V663.54a101.13,101.13,0,0,0,29.5-33.71c16.91,32.63,47.67,54.3,83.08,54.3,1.19,0,2.4,0,3.61-.07,33.93-1.28,63.09-22.45,79.58-53.6,17.08,32.28,47.71,53.68,82.85,53.67,1.19,0,2.4,0,3.61-.07,32.42-1.32,61.05-21.33,77.89-51.09,17.53,31,47.75,51.18,81.34,51.18,1.22,0,2.46,0,3.7-.09,33.85-1.28,62.95-22.46,79.39-53.62,17,32.29,47.58,53.69,82.79,53.69,1.19,0,2.4,0,3.61-.07,32.72-1.31,61.3-21.3,78-50.92,17.38,30.87,47.45,51,81.25,51,1.24,0,2.49,0,3.74-.09,34-1.28,63.17-22.46,79.54-53.62,17,32.29,47.6,53.69,82.63,53.69,1.19,0,2.39,0,3.6-.07,34.1-1.28,63.37-22.66,79.8-54.06a102.22,102.22,0,0,0,30,34.42v474.37ZM231,594.73H362.4c-7.7,34.14-33.07,59.07-63.52,60.22C267.2,656.42,238.92,630.76,231,594.73Zm328.87,0H691.15c-7.67,34.14-33,59.07-63.34,60.22C596.62,656.3,568.24,631,559.83,594.73Zm328.75,0H1020c-7.51,34.14-32.84,59.07-63.4,60.22C923.94,655.61,896.43,630.69,888.58,594.73Zm398.35,59c-10.87.74-22.16-2.46-32.32-8.59-17-10.33-29.42-29-34.37-50.67h129.13C1342,628,1317.05,652.58,1286.93,653.71Zm-68.84-87.93v-.17H198.84v.09H59.49V518a44.25,44.25,0,0,0,24.14,7.47H1333.27a44.25,44.25,0,0,0,24.24-7.54v47.84Z"/><path d="M1203.14,649.92c-18.64,26.62-47.14,43.88-79.31,45.1-35,1.21-66.42-16.23-86.54-45-18.59,26.55-47,43.75-79.21,45-34.1,1.44-65-15.37-85.34-43.1-18.64,25.49-46.51,41.87-77.6,43.09-35.18,1.41-66.68-16.23-86.77-45-18.61,26.55-47,43.76-79,45-33.73,1.35-64.93-15.49-85.36-43.35-18.76,25.6-46.68,42.1-77.56,43.34-35.16,1.44-66.65-16.24-86.82-45-18.64,26.56-47.1,43.78-79.22,45-35.3,1.27-66.55-16.2-86.64-44.84a112.3,112.3,0,0,1-21.36,23V948C295.61,897.92,628,763.38,1224.77,760V673.07A111.7,111.7,0,0,1,1203.14,649.92Z"/><path d="M1223.69,1127H192V725.09H1223.69ZM206.52,1112.41h1002.6V739.66H206.52Z"/></svg>