<svg id="Layer_1" data-name="Layer 1" xmlns="http://www.w3.org/2000/svg" viewBox="0 0 1417.32 1417.32"><title>1Artboard 18</title><path d="M1385.82,282.46H32.1A9.07,9.07,0,0,0,23,291.53v748.06a9.07,9.07,0,0,0,9.07,9.07H608.86a26.66,26.66,0,0,0-5.21,27.78c-178.61,5.09-387.41,19.91-389.94,20.09a27.15,27.15,0,0,0-25.15,29,26.83,26.83,0,0,0,29,25.14c3-.21,305.1-21.64,491.4-21.64,200.75,0,488.38,21.42,491.27,21.64.7.05,1.38.07,2.06.07a27.14,27.14,0,0,0,2-54.21c-2.53-.18-223.08-16.61-414-20.82a26.68,26.68,0,0,0-5.49-27.06h601a9.07,9.07,0,0,0,9.07-9.07V291.53A9.07,9.07,0,0,0,1385.82,282.46Zm-40.17,717H72.26V331.7H1345.65Z"/></svg>