<svg id="Layer_1" data-name="Layer 1" xmlns="http://www.w3.org/2000/svg" viewBox="0 0 1417.32 1417.32"><title>1Artboard 19</title><path d="M1306.6,1157.94c-2.33-1-35-14.26-80.74-20,4.8-5.78,9.41-11.72,14-17.67,30.92-4.89,53-4.1,53.41-4.1a12.65,12.65,0,0,0,1.19-25.26,270.24,270.24,0,0,0-33.81,1.12,669,669,0,0,0,120.19-383.41c0-371.25-300.95-672.19-672.2-672.2s-672.19,301-672.2,672.2a669,669,0,0,0,120.19,383.41,269.63,269.63,0,0,0-33.81-1.11,12.65,12.65,0,0,0,1.19,25.26c.47,0,22.5-.79,53.41,4.1,4.61,5.94,9.22,11.89,14,17.67-45.76,5.7-78.41,19-80.74,20a12.65,12.65,0,1,0,9.76,23.34c.6-.25,39.7-16.14,91.46-19.75,1.65,1.8,3.39,3.52,5.05,5.3-55.66,22.74-92.52,56.16-94.74,58.2a12.65,12.65,0,0,0,17.15,18.6c.53-.5,39.69-35.83,96.78-56.95l.42.4c-52.05,42.78-79.07,94.14-80.57,97.05a12.65,12.65,0,1,0,22.48,11.59c.34-.65,25.39-48.33,72.93-88-35.11,58.55-43,117.12-43.45,120.39a12.65,12.65,0,0,0,10.94,14.15l1.62.1a12.65,12.65,0,0,0,12.53-11c.09-.72,7.32-54.11,38.43-107.65-13,67-.39,124.78.34,128a12.65,12.65,0,0,0,12.32,9.86,13,13,0,0,0,2.79-.31,12.65,12.65,0,0,0,9.57-15.11c-.15-.69-10.69-49.81-1.67-107.93l2.47,1.94c11.88,63.15,40.88,109.18,42.59,111.85a12.65,12.65,0,0,0,21.29-13.66c-.32-.5-19.37-30.86-32.18-75q12.93,8.87,26.3,17.12c24.54,29.82,46.87,47.13,48.66,48.49a12.61,12.61,0,0,0,20.21-11.25,672.34,672.34,0,0,0,568.91,0,12.62,12.62,0,0,0,20.21,11.25c1.79-1.37,24.12-18.68,48.66-48.49q13.36-8.27,26.3-17.12c-12.8,44.11-31.86,74.46-32.18,75A12.65,12.65,0,0,0,1077.4,1352c1.71-2.67,30.71-48.7,42.59-111.85l2.47-1.94c9,58.12-1.51,107.24-1.67,107.93a12.65,12.65,0,0,0,9.57,15.11,12.94,12.94,0,0,0,2.79.31,12.65,12.65,0,0,0,12.32-9.86c.72-3.22,13.29-60.9.36-127.89,31,53.46,38.32,106.82,38.41,107.55a12.66,12.66,0,0,0,12.53,11l1.63-.1a12.65,12.65,0,0,0,10.93-14.15c-.42-3.28-8.34-61.78-43.4-120.3,47.4,39.64,72.54,87.28,72.87,87.92a12.65,12.65,0,0,0,22.48-11.6c-1.5-2.91-28.52-54.27-80.57-97.05l.42-.4c57.09,21.12,96.24,56.45,96.77,56.95a12.65,12.65,0,0,0,17.15-18.6c-2.22-2-39.08-35.45-94.74-58.2,1.67-1.79,3.41-3.5,5.06-5.31,51.76,3.61,90.85,19.51,91.45,19.76a12.65,12.65,0,0,0,9.76-23.34ZM263.15,263.15C377.24,149.1,534.61,78.63,708.66,78.62s331.43,70.49,445.51,184.54,184.52,271.46,184.53,445.51-70.49,331.42-184.53,445.51A629.42,629.42,0,0,1,877.3,1315.7V1141l-16.79,5.82a463.66,463.66,0,0,1-303.7,0L540,1141V1315.7a629.42,629.42,0,0,1-276.87-161.53C149.1,1040.08,78.63,882.71,78.62,708.66S149.1,377.24,263.15,263.15Zm302.16,1059V1176.19a488.07,488.07,0,0,0,286.69,0v145.94a628.19,628.19,0,0,1-286.69,0Z"/><path d="M396.84,371.09h0a459.55,459.55,0,0,1,623.63,0,16.86,16.86,0,0,0,22.89-24.77,493.28,493.28,0,0,0-669.41,0,16.86,16.86,0,0,0,22.89,24.77Z"/><path d="M708.66,1079.67c204.91,0,371-166.1,371-371s-166.1-371-371-371-371,166.1-371,371S503.75,1079.65,708.66,1079.67Zm0-539.65c93,0,168.64,75.65,168.64,168.64S801.65,877.3,708.66,877.3,540,801.65,540,708.66,615.67,540,708.66,540Z"/><path d="M708.66,852C787.7,852,852,787.7,852,708.66S787.7,565.32,708.66,565.32s-143.34,64.3-143.34,143.34S629.62,852,708.66,852Z"/></svg>