<svg id="Layer_1" data-name="Layer 1" xmlns="http://www.w3.org/2000/svg" viewBox="0 0 1417.32 1417.32"><title>1Artboard 20</title><path d="M1010.73,33H436.1c-73,0-132.33,59.35-132.33,132.31V1252.06c0,73,59.37,132.31,132.33,132.31h574.63c73,0,132.33-59.35,132.33-132.31V165.26C1143.06,92.3,1083.69,33,1010.73,33Zm100.79,1219.1a100.9,100.9,0,0,1-100.79,100.78H436.1a100.9,100.9,0,0,1-100.79-100.78V165.26A100.9,100.9,0,0,1,436.1,64.49h574.63a100.9,100.9,0,0,1,100.79,100.78Z"/><circle cx="723.42" cy="1088.22" r="38.96"/><path d="M723.42,184.21A271.33,271.33,0,0,0,497.73,304.57v-.92l-8,13.43a2.73,2.73,0,0,1-.57.92l-1,2a7.07,7.07,0,0,1-.42.74l-.92,1.76-1.06,1.32-.79,1.76c-.11.22-.28.46-.45.74l-.62,1.08-1.2,2.37-.51.06-.54,1.6A10.91,10.91,0,0,1,481,333l-.66,1.36c-.18.55-.37.92-.57,1.39l-.89,1.51-2.79,5.85c-.22.68-.45,1.36-.54,1.57L474.8,346c-.11.34-.23.62-.34.92s-.31.74-.42,1.08l-3.11,7.55a8,8,0,0,1-.63,1.26l-.55,1.39c-.12.37-.25.68-.37,1l-.8,2.53c-.09.25-.18.46-.28.71l-2,5.08a15.32,15.32,0,0,0-.37,1.57l-1.62,5a5.47,5.47,0,0,0-.45,1.26l2.29.58h-2.49l-1.22,4.25a7.41,7.41,0,0,0-.77,2.74l-.14.43a10.84,10.84,0,0,0-.66,2.74l-.18.62a256.41,256.41,0,0,0-8.05,45.43v.18c-.51,7.64-.79,15.74-.77,23.41a237.13,237.13,0,0,0,1.32,27.57v1.6l.26,1.26,0,0a7.63,7.63,0,0,0,.25,1.69v1l.12.74a5.93,5.93,0,0,1,.14,1.66l.26,1a9.07,9.07,0,0,0,.17,1.57,5.67,5.67,0,0,1,.09,1.08l.54,3.73.12.74a5.31,5.31,0,0,1,.17.83c.08.4.14.77.25,1.17l0,.83a272.91,272.91,0,0,0,26.47,78.66l.68.92.09.18a8.13,8.13,0,0,1,.42.92l.68,1.39a5.51,5.51,0,0,0,.54.89,3.7,3.7,0,0,1,.52,1l1.48,2.65.71,1a6.46,6.46,0,0,0,.55,1,3.7,3.7,0,0,1,.31.59l.4,1.29.72.71a4.43,4.43,0,0,1,.68,1.11l7.85,13v-.65a270.2,270.2,0,0,0,33.6,40.87c51.44,51.44,119.64,79.74,192.08,79.74a271.67,271.67,0,1,0,0-543.33ZM957.54,426.32v-90a268.3,268.3,0,0,1,15.8,37.91,250.68,250.68,0,0,1,11.29,52.05Zm26.78,62.83a250.36,250.36,0,0,1-11.5,49.9,263.75,263.75,0,0,1-15.28,36.22V489.15Zm-522.88-8.72c-.79-9.27-1.12-17-1.12-24.7,0-6.81.4-13.8.89-20.94h36.5V320.65a269.74,269.74,0,0,1,39.61-50.73,260.64,260.64,0,0,1,186.08-77.25c70.18,0,136.26,27.44,186.08,77.25a263.58,263.58,0,0,1,39.62,50.7V434.79h36.5c.45,6.68.89,14,.89,20.94,0,7.55-.34,15.25-1.12,24.7H949.07V591.13a281.05,281.05,0,0,1-39.59,50.7c-49.93,49.65-116,77-186.09,77a261.33,261.33,0,0,1-186.06-77,280,280,0,0,1-39.62-51V480.44ZM489,489.15v86.05a256.82,256.82,0,0,1-26.52-86.05Zm-26.81-62.83A261.9,261.9,0,0,1,489,336.39v89.93Zm-7.14,6.1Z"/><circle cx="587.35" cy="455.74" r="38.45"/><circle cx="859.43" cy="455.74" r="38.45"/><path d="M723.42,149.28c-169.06,0-306.59,137.55-306.59,306.61S554.36,762.47,723.42,762.47,1030,624.95,1030,455.89,892.48,149.28,723.42,149.28Zm0,597.42c-160.36,0-290.82-130.47-290.82-290.81S563.06,165,723.42,165s290.82,130.47,290.82,290.84S883.77,746.7,723.42,746.7Z"/></svg>