<svg id="Layer_1" data-name="Layer 1" xmlns="http://www.w3.org/2000/svg" viewBox="0 0 1417.32 1417.32"><title>1Artboard 3</title><rect x="164.55" y="428.42" width="1091.2" height="449.66"/><path d="M710.15,1001.94c-26.42,0-47.93-21.28-47.93-47.44s21.5-47.43,47.93-47.43,47.93,21.28,47.93,47.43S736.57,1001.94,710.15,1001.94Zm0-71.18c-13.38,0-24.24,10.65-24.24,23.74a24.25,24.25,0,0,0,48.49,0C734.39,941.41,723.52,930.76,710.15,930.76Z"/><rect x="698.3" y="861.27" width="23.68" height="57.65"/><rect x="154.54" y="255.43" width="1108.24" height="150.39"/><path d="M1254,1164.06H163.67V253.26H1254ZM188.72,1139H1229V278.31H188.72Z"/><path d="M1216.09,1124.45H204.22V614.63H1216.09ZM220.5,1108.18h979.31V630.9H220.5Z"/></svg>