<svg height="960" viewBox="0 0 960 960" width="960" xmlns="http://www.w3.org/2000/svg"><path d="m480.5 4c182.531072 0 330.5 148.000741 330.5 330.566757 0 135.640334-82.440881 255.979435-205.926221 306.273896-.440817.179541-2.152526.87091-2.16269.875025-.913154.369686-1.652986.67224-2.391385.979179-1.883749.783041-3.538135 1.505137-5.056262 2.215728-1.929447.903119-3.525732 1.73756-4.691818 2.449893-.116512.071174-.225279.139034-.325899.203103l-.133725.084419-.021642.032579c-.286953.417605-.509252.753459-.677216 1.020314l-.114797.185063c-.079755.129868-.088468.14632-.093381.157114-.015008.032971-.043327.099712-.092408.222122-.100476.250591-.648856 1.696827-.85466 2.23712l-.018896.048688-.241496.640794-.131822.35811c-2.943337 7.970654-4.775944 13.138994-5.322257 14.946383l-.076404.254497c-.036799.122576-.074701.244592-.113691.366038l-.10233.306178-11.692 140.499-.000547.046673c-.093976 3.804725-.715987 8.292634-2.111751 12.993069l-.19515.642241c-2.339146 7.526133-6.327278 14.37189-12.368803 19.846266l-.278749.247751-.056225.082334c-.850846 1.223795-1.70023 2.47309-2.502922 3.689156l-.592559.904902c-.127447.196259-.252521.389999-.347031.537182l-.347452.544532c-1.188469 1.874116-2.032795 3.353501-2.196417 3.729195-.746048 1.713007-.958758 2.579335-1.655668 6.498362-.056172.315877-.106182.59297-.155429.859684l-.008297.042653.003-.015-.010308.066896c-.418634 2.604366-.775757 5.61025-1.2652 10.465416l-.010492.096688-.011871.217932c-.175433 3.135082-.39808 7.750126-.666127 13.817588l-.015002.34748-.004551.314585c-.09417 6.707597-.094383 11.618388-.007477 14.605829l.00814.266284c.160853 5.009453-1.565031 9.896711-4.835982 13.694258l-17.801551 20.667448c-.540316.627302-1.119062 1.220449-1.732898 1.776016l-11.606797 10.50502c-.424461.384168-.864958.749697-1.320223 1.09565l-.152661.11191-.216344.182831c-6.371783 5.290076-13.735603 7.56947-25.769903 8.149946l-.637717.02899c-.28444.018233-.569108.018233-.853808.018233h-.165629c-.289025 0-.578016 0-.86677-.018791-12.273672-.532423-19.753371-2.807145-26.271047-8.215203l-.161782-.135006-.166193-.123033c-.303534-.230658-.600504-.470019-.890533-.717804l-.429791-.377961-11.606384-10.50502c-.613739-.555499-1.192397-1.148565-1.732635-1.775778l-17.801551-20.667448c-3.270591-3.797127-4.996468-8.683743-4.836034-13.692655.151493-4.729771.151493-9.815742-.004113-15.285991-.051858-2.092712-.146615-4.386801-.289034-7.127127-.0746-1.43539-.153451-2.839803-.280275-5.024806-.0369-.635055-.0369-.635055-.073881-1.270837-.020528-.35333-.034323-.590958-.046236-.796691l-.00334-.052849-.010925-.110781c-.488404-4.849015-.845898-7.858675-1.264706-10.464208l-.045116-.277684-.049136-.29537c-.026603-.166067-.051681-.330325-.075872-.49592l-.070553-.503941c-.027636-.207721-.027636-.207721-.04941-.376029-.007977-.061894-.007977-.061894-.013716-.106554l-.023393-.1812c-.042264-.324475-.048021-.356611-.133478-.701297-.205711-.829722-.593097-2.116927-1.225304-3.985125l-.118921-.348708c-.000738.00166-.026049-.057682-.076285-.165225-.111118-.237872-.265485-.535957-.459572-.881-.514237-.914201-1.221331-2.006573-2.067945-3.192772-.972628-1.362759-2.052439-2.744498-3.132654-4.039257-.145496-.174394-.281683-.336225-.407351-.484465l-.301075-.255158c-6.404701-5.470434-10.63287-12.424662-13.127519-20.117776l-.179448-.564218c-1.542503-4.945989-2.233975-9.72139-2.334739-13.698901l-.001882-.043411-11.612-139.533-.085706-.217707c-.135967-.354329-.262452-.714043-.379111-1.078883l-.113371-.366539-.121812-.402871-.042916-.138175c-.576133-1.818811-1.976863-5.786288-4.10309-11.586258l-.169365-.461694-1.131395-3.070933c-.444563-1.202655-.919167-2.271709-1.42261-3.22604l-.214624-.3979-.139125-.101022c-.634097-.458904-1.411777-.988633-2.272778-1.545401l-.326663-.20997c-1.298066-.829398-2.665713-1.645203-3.838843-2.294637-.504525-.279301-.937602-.508001-1.254288-.665111-.024333-.012072-.046564-.02302-.066516-.032786l-.012787-.006073-3.452817-1.334411c-123.975393-48.791179-207.774187-168.130151-209.454443-303.53774l-.02574-4.150092c0-182.566016 147.968928-330.566757 330.5-330.566757zm-8.9665 906.067246 6.2315 5.638754.220202.028876c.797383.097621 1.775966.181118 2.943628.246124h.079193c1.331573-.073901 2.425054-.170501 3.291584-.284323l.016393-.002677 6.153707-5.568351c-2.813946.146047-5.790931.219071-8.930955.219071-3.533876 0-6.86896-.092491-10.005252-.277474zm-21.888037-72.096988.257257.677858c.095005.259681.187092.519951.276222.780906.311005.910566.593761 1.761054.851314 2.561971 11.723151 1.141664 26.199706 1.718088 43.401042 1.718088 3.037566 0 5.5 2.462434 5.5 5.5s-2.462434 5.5-5.5 5.5c-15.78598 0-29.382522-.477218-40.809746-1.439211l-.061974-.3914c.252476 1.537454.476793 3.076008.694661 4.765333 11.121134.947914 24.520405 1.425461 40.177059 1.425461 3.037566 0 5.5 2.462433 5.5 5.5 0 3.037566-2.462434 5.5-5.5 5.5-14.978198 0-27.985295-.429629-39.03848-1.295341l-.001659-.032766c.03686.633707.03686.633707.074089 1.274404.084164 1.45004.148349 2.57567.204623 3.601836 10.835892.869294 23.762857 1.307539 38.761427 1.307539 3.037566 0 5.5 2.462434 5.5 5.5s-2.462434 5.5-5.5 5.5c-14.651084 0-27.416222-.411068-38.311501-1.239244l-.03227-1.265016c.030213 1.061196.055238 2.113825.075065 3.157693 8.490397.844831 16.970575 1.267628 25.439654 1.267628 8.327281 0 16.438906-.408757 24.334876-1.226272.007303-.726324.016903-1.47262.027645-2.239494l.009794-.683369c.002861-.195243.00858-.390435.017157-.585511.306562-6.972389.558183-12.167532.757299-15.622436.016167-.280511.038243-.56065.066214-.840231.613649-6.133657 1.066353-9.95282 1.693233-13.770214.024535-.149401.050764-.298519.078685-.447325.039089-.208328.081839-.443816.136412-.750703.026174-.147189.165855-.939095.208963-1.181073.095647-.536901.179158-.993424.267392-1.456485.240028-1.259694.489234-2.426844.783531-3.625454.614709-2.503585 1.382514-4.948438 2.367083-7.430418-6.106243.327827-12.480506.56413-18.85206.723261-2.74076.068451-5.286722.117464-7.574136.150277-.803058.01152-1.517327.020195-2.13481.026427-.374735.003782-.636589.005922-.841275.007023l-3.726435-.000665c-.150292-.001081-.388561-.003116-.709763-.006358-.617483-.006232-1.331752-.014907-2.13481-.026427-2.287414-.032813-4.833376-.081826-7.574136-.150277-6.477029-.161765-12.956858-.403279-19.157642-.740015zm-19.195966-28.34684.02436.103723c.324735 1.384905.923122 2.857889 1.491801 3.288444.28718.217428.568434.442575.843453.675194l.213006.180166c.660519.558685 1.284093 1.159638 1.866793 1.799071.17639.193565.434553.482092.76361.857465.114572.130699.23156.26491.350843.402546 3.332972.321333 7.021535.605497 11.008826.853431 7.072494.439775 14.679329.742965 22.290265.93305 2.667027.066609 5.142582.114267 7.361657.146099.774213.011106 1.460175.019438 2.049787.025389.262142.002645.461034.004397.566383.005335l.073046.000669 3.531201.000203c.116549-.000742.353628-.00268.70315-.006207.589612-.005951 1.275574-.014283 2.049787-.025389 2.219075-.031832 4.69463-.07949 7.361657-.146099 7.610936-.190085 15.217771-.493275 22.290265-.93305 3.460972-.215207 6.696874-.45771 9.670672-.727748l-.291497.391788c.553993-.76868 1.16191-1.497021 1.819159-2.179518l.257793-.267697c.722709-.750472 1.502956-1.443324 2.333616-2.072229.555578-.420636 1.128405-1.81516 1.444513-3.161249-4.145812.431942-8.805422.796193-13.992993 1.118749-7.348271.456906-15.192257.769535-23.032141.96533-2.74076.068449-5.286722.11746-7.574136.150271-.803058.011519-1.517327.020194-2.13481.026426-.374735.003782-.636589.005922-.841271.007023h-3.658644c-.140964-.001101-.402818-.003241-.777553-.007023-.617483-.006232-1.331751-.014907-2.134809-.026426-2.287414-.032811-4.833377-.081822-7.574137-.150271-7.839884-.195795-15.683869-.508424-23.03214-.96533-5.749216-.357478-10.84996-.766169-15.321512-1.262136zm112.494503-148.793418h-124.889l10.685002 128.404556c.05115.007113.102465.014212.153945.021297 4.882601.671999 11.028147 1.227399 18.118237 1.668251 7.072504.439759 14.679348.742937 22.290294.933014 2.66703.066607 5.142588.114263 7.361666.146094.774214.011106 1.460177.019437 2.04979.025388.305832.003086.525575.004955.611125.005736l3.61682.000079c.129275-.000936.346255-.002792.645846-.005815.589613-.005951 1.275575-.014282 2.04979-.025388 2.219078-.031831 4.694635-.079487 7.361665-.146094 7.610946-.190077 15.21779-.493255 22.290294-.933014 6.538848-.406576 12.274315-.910582 16.956642-1.513624zm-62.444-616.83c-160.437757 0-290.5 130.090206-290.5 290.566757 0 121.74831 75.553729 229.296824 187.476972 271.760562 7.441138 2.823172 21.014269 11.495709 25.536653 18.14656 2.791677 4.105584 5.118789 8.673022 6.993814 13.74547l.961561 2.610651h32.164l.000898-309.795064.000189-.056305c.000344-.026006.000789-.052008.001334-.078006l-.001523.134311c0-5.039093 3.749374-9.29097 8.748873-9.921425 12.354369-1.557931 21.847365-2.343666 28.617229-2.343666s16.26286.785735 28.617229 2.343666c4.955044.624849 8.682096 4.807004 8.747985 9.787194-.00009.025918.000355.05192.000699.077926.000137.018866.000189.03758.000189.056305l-.000102 309.795064 31.888464.00169c.247218-.672524.502759-1.366048.766712-2.080859l.203681-.551297.04611-.123487.242814-.643797.047345-.124278c-.0238.061854.84017-2.219585 1.124614-2.929001.263999-.658424.527007-1.278275.813451-1.907555 1.352413-2.971075 2.925793-5.521052 5.636617-9.31348.584934-.81832 1.208484-1.595225 1.8681-2.338816 4.387416-4.945975 10.112788-8.443465 18.002349-12.13634 2.108136-.986757 4.276569-1.933221 6.659823-2.923897.869018-.361236 1.716269-.707718 2.73463-1.119997.059956-.024273 1.707587-.689761 2.084894-.843435 108.546686-44.210082 181.014396-149.991328 181.014396-269.228694 0-160.476551-130.062243-290.566757-290.5-290.566757zm-17.367 317.746.000898 278.934845h34.732l-.000898-278.932845-9.289866 12.718308c-3.994603 5.468676-12.155665 5.468676-16.150268 0zm17.74745-22.976155h-.38045c-2.480947 0-5.513496.13397-9.08665.402985l9.086548 12.44134 9.087392-12.441364c-3.392812-.255551-6.29823-.389495-8.70684-.402961z"/></svg>