<svg height="960" viewBox="0 0 960 960" width="960" xmlns="http://www.w3.org/2000/svg"><path d="m499.663082 17.1878019c4.927609.5290332 9.952821 1.0781577 16.045596 1.7512352 2.291544.2531501 9.489983 1.051317 13.251112 1.4679412l.863842.095671c.434764.0481388.789808.0874282 1.042777.1153856 62.183255 6.8723299 208.297179 35.3912776 307.602061 57.9972799 35.492698 8.0796432 63.075146 18.5192976 82.784106 30.9613882 10.107759 6.380939 18.386197 13.434213 24.640788 21.269878 8.127189 10.181631 13.106636 21.915227 13.106636 34.943261 0 9.83783-4.540422 52.270703-14.541898 138.019394-.034486.295674-.072273.590954-.113351.885785l-43.158751 309.752979.728748.657318c15.433411 14.074501 26.582735 33.599487 32.918228 56.391785l.29805 1.087809c8.643015 32.007223 7.632958 69.497661-2.868221 106.119623-10.760755 37.527213-30.456123 70.540241-55.594086 93.152278-26.760794 24.071802-58.911443 35.632235-90.507318 29.325839l-.923401-.189652-.621829.465318c-11.211983 8.323067-24.182203 15.446357-38.812017 21.454753l-1.023376.417382c-30.781418 12.46704-62.411696 21.538282-94.947549 26.20659-39.892484 5.723852-79.48157 4.541535-118.220935-4.81767-46.311172-11.188509-97.685028-25.617613-154.153659-43.286589l-1.901635-.595784-.933218.061127c-15.839262.98608-31.915382-.077025-48.157429-3.153419l-1.282611-.247055c-18.090289-3.542567-47.537324-13.344301-75.753165-25.845125-37.513279-16.619986-71.166039-36.865906-97.270234-60.540973-22.011201-19.962947-39.688871-43.876751-53.6263513-70.975893-8.312331-16.161963-15.1074515-33.059591-20.6740938-50.690347l-.2358979-.752315-.3913394-.238507c-22.111321-13.64618-37.7929021-36.914442-45.9384166-65.490814l-.3176167-1.130761c-9.095106-32.863801-8.085619-71.785026 2.8304564-109.853905 2.8911073-10.082489 6.4045645-19.859674 10.4879714-29.226278l.3999449-.911735-.067221-.572731c-5.3838816-45.437151-19.2474472-162.099508-41.58823579-349.966318l-.69954321-5.883951-.00409819-.021404c-.01939264-.115458-.07234212-.431318-.12964035-.775128l-.04949654-.297517c-.01639969-.098773-.03247314-.195805-.04753911-.287075l-.04149426-.252499-.01720299-.105741c-.76173531-4.705721-1.15873371-8.698048-1.02920814-13.573016.19286167-7.258756 1.64002856-14.4383098 5.06710546-21.5729705 4.60997252-9.5972722 12.21194752-17.470526 22.04857412-22.4289915 19.0293629-9.5923576 47.4988685-17.7507781 87.615837-26.1841484 30.466092-6.4045675 65.139341-12.4944229 116.052244-20.6939375l5.046932-.8113699c1.64467-.2639636 3.325481-.5333215 5.062824-.811359l5.363994-.8573482c3.244605-.5179984 6.621675-1.0561903 10.713529-1.7075663 27.060599-4.3077364 56.010913-6.53276902 87.035785-6.9611518 46.808532-.64631918 92.636944 2.4548555 154.634937 9.111025zm-110.873694 821.7245061 1.134564 21.060454c.06228 1.156121-.074389 2.276936-.380139 3.329177 55.609852 17.397432 106.097484 31.57625 151.461997 42.536052 20.865362 5.04095 41.418595 7.165738 61.270565 7.162004l2.051134-.007947c47.800694-.361083 91.437373-12.965528 125.437388-26.736159 9.381584-3.799714 17.721302-8.057728 25.018894-12.773767l-43.963417-10.044471-.486475-.052555c-2.670887-.310554-5.318036-.78223-7.934082-1.415496l-.979545-.24505c-.085514-.022088-.170882-.044742-.256096-.067961l-1.180875-.321759c-.085132-.023196-.17011-.046956-.254928-.071277-3.501157-1.003941-6.858451-2.266103-10.0692-3.769402-.10577.043106-.215445.087411-.326313.129958l-30.809623 11.823447c-.411236.417481-.865037.804484-1.360317 1.154671-3.686904 2.606826-8.530832 2.366492-11.91788-.272425-70.165039-1.554162-122.842037-4.321888-158.136898-8.322214-18.521016-2.099175-41.732181-7.126698-68.926994-14.576607-9.428935-2.583019-19.227209-5.428398-29.39176-8.518673zm497.310725-49.443257.031-.072.032-.076.168074-.395519.134926-.323481.002-.005.025-.06.145-.346.308128-.74221.341648-.836338.098224-.245452.013-.032.088-.218-.002.003.064-.158.066-.164.090091-.223393.124909-.317607-.021.051.03-.076.073-.183-.011.029.066-.167.018-.045.046-.116-.019.046.034-.086.121-.308.003-.007.038-.097-.006.013.046-.117-.019.05.02-.052.011-.028.105-.272-.058995.155244.072995-.190244.045-.117.003-.008.072-.187.260993-.67879c.300392-.789476.596235-1.583179.887446-2.381032l.028561-.081178.045-.123.08-.221.190852-.526402c.114071-.317844.227408-.636336.340006-.955472 1.254454-3.55554 2.416986-7.190688 3.480366-10.899136.360192-1.256137.706279-2.511171 1.038369-3.764733l.01263-.0477c.104419-.394569.207452-.788991.309101-1.183256.052512-.203679.104625-.407199.15637-.610676l.083688-.330319c.105364-.417442.209178-.834697.311446-1.251751.018898-.077064.037634-.153678.056318-.230284l.006749-.027685c.105945-.434667.210209-.869112.312799-1.303321l.134429-.572939.009789-.042036c.044337-.190491.088351-.380936.132044-.571332.101736-.443324.20176-.886534.300042-1.329465l.376567-1.735823.06688-.31684.066287-.316735c.021962-.105394.043825-.21077.06559-.316129l.034531-.167545c.046537-.226324.09262-.452565.138249-.67872l.125731-.628761.153316-.782428.092315-.479913.022137-.116109.004399-.02649.033-.176.015-.081.025-.132.058-.311.014-.074.015-.079.01389-.070756c.058539-.316564.116187-.632941.172947-.949126.04575-.25485.090922-.509574.135518-.764169l.132341-.765047.017522-.102761c.007722-.045368.015427-.090732.023113-.136092l.11044-.659087.073879-.449371.10169-.630337c.045241-.283591.089766-.567007.133575-.850243l.066645-.434353.076206-.50552c.029344-.196533.058342-.392977.086997-.58933l.09791-.679991.067491-.479794c.036207-.259937.071811-.519709.106811-.779313l.061791-.462873.084802-.650839c.000942-.007338.001884-.014676.002826-.022014.049983-.38958.098606-.778769.145874-1.167553l.025873-.213897.039652-.332134.018067-.153128c.029172-.248173.05779-.496178.085857-.744013l.042347-.377585.057118-.521375c.034701-.321175.068473-.642055.101318-.962634l.039279-.387636.042789-.432449c.00642-.065728.012802-.131443.019145-.197144.020605-.213448.040799-.426757.060583-.639928l.055671-.611652.040103-.456269c.007105-.082081.014149-.164141.021132-.246179.012574-.147736.024951-.295402.03713-.442999l.039723-.489933.040609-.519922.042109-.56207.053412-.751882.033773-.501648c.015373-.233486.030247-.466783.044625-.699888l.018311-.301273.04266-.739619c.01355-.244278.026552-.488339.039009-.732182l.020285-.406826.029908-.640229c.011639-.259871.022656-.519486.033052-.778843l.018246-.472054.020302-.572103c.00645-.191137.012562-.38213.018336-.572977l.015551-.543855.018147-.735338c.000351-.015673.0007-.031345.001047-.047015.002325-.105026.004546-.210007.006665-.314942l.0101-.5456.011141-.771415.000477-.040012c.002062-.174705.003838-.349278.005328-.523719l.003454-.492821-.000602-.096243.001-.145v-.005l.001445-.209039-.000445-.205961-.001.061.001-.225.000988-.084705-.002416-.839746-.005402-.698247-.003509-.319986-.008687-.621908-.012475-.687155c-.002395-.11767-.004923-.235273-.007583-.352809-.001884-.083241-.003833-.166447-.00585-.24962l-.013963-.53752-.004103-.142304-.006989-.2407-.010011-.2913-.003-.091.024114.765694c-.017867-.644669-.039718-1.287269-.065535-1.927733l-.012156-.294482-.017688-.405748-.041095-.859936-.026732-.510577-.022383-.40386-.028826-.493263-.034346-.554153c-.013295-.208098-.026743-.411959-.0406-.615582l-.047355-.673074-.055337-.735829c-.001734-.022306-.003473-.044609-.005217-.06691l-.008473-.107818-.059007-.724224-.046682-.543411c-.009022-.102705-.017701-.200349-.026475-.297935l-.091784-.982824-.014048-.144238-.055276-.553384-.089467-.852526-.046632-.415187-.013-.119v-.003l-.005-.044-.005-.041-.008-.073-.006736-.066289c-.028792-.253514-.058242-.506602-.088347-.759258l-.013567-.113463c-.035239-.293677-.071365-.586771-.108375-.879273l-.083867-.650294-.001326-.010087c-.037273-.283475-.075381-.566386-.114321-.848726l-.096427-.686116-.062982-.434819-.024052-.157675.004.032-.024-.164.02.132-.023-.155-.008157-.060437-.009843-.060563-.047-.31-.005-.031-.026-.172-.024-.156-.011-.074-.004-.023-.046-.291-.012-.074-.005-.034-.032-.203.005.038-.025-.161-.01-.062-.005-.03-.003-.019-.005-.032-.028-.166-.002-.012-.015-.091-.01-.062-.025-.153-.02-.121-.006656-.042525-.012827-.076244-.006517-.034231-.008-.048-.017-.098-.044-.257-.051-.296.011071.059116-.027071-.150116-.006-.037-.006-.033-.029-.162-.068954-.391421-.012046-.063579-.024-.132-.054-.294-.01-.053-.016-.086-.002-.011-.002-.01-.019-.104-.002294-.016728.105759.573852c-.096482-.530343-.196025-1.05839-.298615-1.584091l-.007786-.039861-.112668-.569315c-.077227-.38551-.156101-.76974-.236617-1.152671l-.07477-.353022-.030009-.137164-.014-.064-.023-.106-.012-.057-.016-.073-.001-.005-.042-.193-.001-.002-.008-.038-.019-.087-.005-.024-.004-.017-.159446-.716681-.153881-.66947c-.033206-.142577-.066643-.284962-.100314-.427154l-.110348-.461857-.141352-.579905-.105886-.426182-.127881-.505752-.155949-.604104c-.001742-.006674-.003485-.013349-.005229-.020023-.026937-.103111-.054-.206114-.081188-.309007l-.120527-.452361-.181001-.665621c-.037399-.135885-.075019-.271574-.11286-.407067l-.126677-.449927-.147237-.514041-.212034-.724204-.063581-.213617-.001609-.004027-.019-.063-.022-.072-.001-.004-.066-.219-.006791-.024961-.011209-.035039.01.035-.039-.129.029.094-.077-.254.034.114-.063424-.210815-.001576-.002185v-.001l-.006-.019-.012-.039-.01-.032-.021-.069-.007-.022-.029-.094-.13-.417-.011-.035-.031-.097-.011-.035-.031-.098-.013-.042-.01-.03-.015-.049.001.006-.051-.161v-.001l-.018-.058-.004631-.014598-.024369-.074402-.049-.151-.082-.251-.018-.056-.045-.138-.005-.015-.029652-.092261-.108348-.323739-.027-.08-.006-.019-.034-.102-.051-.152-.005-.015-.249818-.732887-.142657-.409585-.056314-.160152c-.043848-.124367-.087899-.248534-.132152-.3725l-.153171-.426043-.119479-.32819c-.055479-.151564-.111263-.302821-.167352-.45377l-.221152-.589386-.014905-.037487-.089-.234-.018629-.050211-.043371-.110789-.01-.027-.007-.018-.036-.093-.008-.021-.018542-.049513c-.082502-.213202-.165625-.425766-.249367-.637685l-.232758-.583407c-.007117-.017669-.014239-.035334-.021364-.052995l-.088961-.219686-.175498-.428809-.00751-.016905-.004-.011-.017-.04-.015-.037-.102403-.247094-.039597-.092906-.047-.113-.012-.028-.014-.034-.03448-.08285.292747.702165c-.198547-.48173-.400359-.959998-.60542-1.434744l-.144744-.333282-.177331-.403434-.22004-.493313-.19108-.42203c-.024466-.053665-.048974-.107282-.073525-.160852-.035073-.076529-.070233-.15296-.105481-.229293l-.217079-.466538-.156095-.33112c-.063422-.133807-.127116-.267307-.191081-.400498-.007657-.015943-.015318-.031881-.022982-.047815l-.23641-.48756-.068576-.139977c-.100157-.203969-.200959-.407196-.302404-.609674l-.29998-.592893-.07069-.138036-.214797-.415591-.284182-.541153-.286191-.535268c-.026907-.049877-.053855-.099705-.080844-.149483l-.286333-.523472-.277515-.498678c-.030401-.054171-.060852-.108281-.091352-.162331l-.326634-.573196-.073052-.126677-.090059-.155412-.08739-.148995-.072667-.125195-.3254-.549574-.178485-.29707-.200496-.330088c-.097072-.1589-.194598-.317221-.292577-.474959l-.262679-.419776-.162117-.256-.398255-.619165-.214171-.327381-.085951-.130307-.365467-.547301-.018735-.027184-.075-.111-.009-.013-.081-.119-.031-.045-.032-.047-.077-.112.044.063-.068797-.100767-.003203-.004233-.015293-.022668-.106707-.153332-.078-.112-.035-.05-.165-.237-.027-.038-.009-.013-.097-.137-.04-.057-.024-.033-.056-.08-.072-.101-.008-.011-.287-.399-.083-.114-.061-.084-.044-.059-.034-.047-.007-.009-.078-.106-.173621-.236098-.042449-.056999-.00493-.005903-.066-.088-.068-.09-.099-.132-.154-.204-.053-.069-.128-.167-.09-.117-.004-.005-.071535-.093952-.010465-.013048-.19-.243.061.077-.214-.273-.096881-.122823-.022119-.027177-.148-.185-.097-.121-.056-.07-.003-.004-.01-.013-.006-.007-.005-.006-.203-.25.016.019-.108-.132-.156-.191-.046-.055-.1-.12-.101-.121-.023-.028-.002-.002-.028-.034-.04-.048-.006-.007-.064-.077-.032-.038-.196-.23-.148-.173-.025094-.030332-.017906-.020668-.176-.203-.013-.015-.07-.081-.036-.041-.043-.049-.036-.042-.005-.006-.062771-.071287-.115229-.129713-.108-.122-.071-.08-.09-.101-.197-.218-.017-.019-.044-.048-.006-.007-.1-.11-.006-.007-.03876-.042962c-.129638-.141817-.259795-.282844-.39047-.423074l-.227541-.242824-.250731-.264449-.050498-.052691-.022-.023-.142891-.148903-.105109-.108097-.015-.016.001.002-.011-.012-.083608-.086425-.042392-.043575-.003-.003-.125-.127-.003-.003-.087-.088-.037-.038-.148-.15-.013-.013-.071-.07h.001l-.087-.086-.032-.032-.044-.043-.044-.044-.103-.102.01.009-.051-.05-.012-.012-.081-.079-.075-.073-.069-.067-.063-.061-.055-.054.032.032-.054-.053-.029-.028-.061-.059-.02-.019-.004-.004-.012-.011-.015-.015-.013-.012-.012-.011-.01-.01-.009-.008-.016-.016-.06-.057-.25-.237-.001-.001-.208-.194-.041-.038-.264-.244-.047-.043.035.031-.033142-.030826-.035858-.031174-.035-.032-.26431-.241416-.13069-.116584-.006-.005-.257-.229-.064116-.05747-.039884-.03453.003.002-.025-.022-.065112-.057055-.124888-.107945.107.094-.165-.144-.208-.181-.189-.161-.051-.043-.089-.076-.12787-.108388c-.14379-.120814-.288087-.240771-.43289-.359867l-.44406-.361249-.594995-.471746-.106185-.08275-.428708-.329581c-.179009-.136157-.358748-.271038-.539214-.404637l-.285346-.209729c-.058642-.042793-.11736-.085451-.176155-.127973l-.4081-.292122-.401201-.281327c-.645015-.44767-1.298915-.879324-1.961605-1.294631l-.344151-.213721-.127023-.077898-.135429-.082473-.470361-.281825c-.110236-.065215-.220707-.129986-.331413-.19431l-.298113-.171813-.367911-.208198c-.142642-.079903-.285665-.159072-.429069-.237506l-.229136-.124522-.377569-.20171c-.035836-.018941-.071696-.037836-.107579-.056686-.143532-.075399-.287438-.150069-.431717-.224006l-.034007-.01741-.488633-.246403c-.163645-.081352-.327763-.161768-.492351-.241244l-.313706-.150073-.258073-.121357-.492384-.22633-.301764-.135362-.330876-.145527c-.152808-.066514-.306003-.132235-.459583-.197162l-.021037-.008887-.249567-.104523-.343072-.140952c-.040851-.016597-.08173-.033138-.122636-.049623-.130698-.052672-.26167-.104774-.392916-.156304l-.076418-.029926-.561975-.215388c-.056156-.021113-.112361-.042121-.168615-.063026-.083549-.031047-.167207-.061865-.250973-.092453l-.854138-.302614c-.765453-.262933-1.539763-.506852-2.322828-.731392-39.288876-11.265904-85.738452 30.516301-103.748031 93.323167-15.857955 55.30326-4.377844 108.467364 25.414159 128.0724l.91211.586125c.018612.011676.037231.023338.055857.034988l.075274.046986.83952.511448.178972.10608c.309333.182463.620515.361428.933535.536862l.224911.125271.701913.380975c.104896.055816.209992.11124.315289.166273l.853069.435068.127758.063319c.059599.029427.11926.05873.178984.08791l.736138.351885c.069071.032293.138224.064421.207458.096385l.953618.427585c.086114.037476.17235.074701.258709.111674l-.167891-.072777.203.087.599.251.22.09.291.116.782.303.138.052-.033-.012.16376.061505-.11176-.042505.215.079.731.262.223301.078549.017699.005451.934.308.206.066.512964.159278c.212092.06406.424836.126689.638229.187879l.554807.150843.020261.0056.605711.165651 1.172994.28771.203568.046698.992024.21404.349752.07015.419095.080439.200595.036712.119094.022008c.739584.133213 1.48116.248536 2.224501.346173l.301405.036819.936.108.158.017.326257.032502c.129593.012248.259233.023967.38892.035158l.233368.019565.334229.026026.449521.031314.371852.022719.372083.019858.41877.018858.117.004.141.005.112867.00481.003133-.00081.053885.002672-.052885-.002672.38904.012297.602779.011481c.200319.002586.400723.00395.601207.004095l.43083-.001559c.260246-.002072.520622-.006189.781118-.012344l.589133-.017381.127069-.004655c.170772-.006472.341592-.013814.512457-.022024.155943-.007494.311931-.015711.467954-.024649l-.045587.001739.096-.005.0981-.005465c.049507-.002981.099018-.006035.148533-.009161l.407911-.027387.328941-.024461.157515-.013526.11995-.008751c.202094-.016773.404239-.034746.60643-.053913l-.554862.049607c.387902-.032585.775988-.069586 1.164226-.110975l-.373744.037032.383516-.038074.152484-.017926-.154.017.198-.022-.044.005.390511-.042912.045489-.006088.184-.022.234-.029.222586-.027899c.20326-.026519.406552-.05423.609872-.08313l.478971-.07027.724124-.114534.661796-.11338c.17694-.031422.353891-.063734.53085-.096933l-.471199.085146.508-.093.046-.009.53604-.102854.54496-.112146-.167.034.181-.037.552666-.117959.585221-.132017.216967-.050569.498899-.119611.011247-.003844.286173-.069667c.099137-.024777.19827-.049828.2974-.075151l-.503573.124818.543706-.135085c.211617-.054217.423217-.109678.634794-.166377l.632267-.17314c.666204-.186334 1.33214-.384913 1.99765-.595596l.387177-.123951.096406-.032851-.063.021.258623-.083465.222377-.074535.082257-.026568.069743-.024432-.027.009.468-.159-.17.058.274128-.092832.572872-.202168-.174.061.187967-.065036.557033-.202964-.291.106.375064-.135537.350936-.131463.221833-.082641.103167-.040359-.045.017.146-.056.403595-.154413c.193325-.075439.386587-.151883.579782-.229328l.343595-.13882c.10768-.043844.215337-.087999.322973-.132464l.62897-.263464.126952-.054059.041133-.018452.204712-.087078-.240847.103395c.124608-.053218.249185-.106851.373728-.160897l.688159-.302984.187065-.083868.398689-.180895.217494-.101673.039-.018.037-.017.26459-.121463c.182525-.085363.364968-.17161.547326-.258737l.058776-.028115.082308-.040685.016-.008.013-.006.205901-.098145.273099-.133855.01-.005.033933-.015748-.028933.012748.324-.16-.062.031.345675-.170771.273325-.139229.089-.045-.072.036.287791-.144679-.609303.308533c.42235-.211481.8442-.427667 1.265508-.648523l.37812-.199546.784819-.42268.663983-.366589c.150991-.084302.301905-.169201.452738-.254696l-.144656.08018.277279-.155517.373721-.215483-.268.153.377-.216-.109.063.110139-.062184.054861-.032816-.044.025.053-.031.551701-.320805.580023-.345412c.20206-.12144.403962-.243945.6057-.367513l.717405-.444324.069171-.044946.137968-.085174c.069026-.043498.138032-.08712.207018-.130865l-.414059.260923c.361819-.226571.723093-.456554 1.083794-.689925l.577186-.376648.048932-.032227.524996-.348683.557687-.37626.589951-.404634.60594-.422703.605234-.429436.027353-.020368.036-.026.051-.037.11-.079.063317-.044286.090683-.066714-.002.001.013-.009.001-.001.007-.005.025-.018.015-.011.007-.005.01-.007.019-.014.003-.002.019-.014.021-.015.006-.004.011-.008.012-.009.017826-.011746.01187-.008628.002304-.002626.004-.003.001-.001.021-.015.019-.014.01-.007.009-.007.001-.001.028-.02.043-.032.014-.01.018-.013.05-.037.018-.013.014-.01.058-.043.015-.011.018-.013.067-.049.003-.002.03-.022.031-.023.044-.032.034-.025.052066-.037364.184934-.138636.098-.073.101-.075-.037.027.043-.032-.006.005.056-.042.051-.038.545732-.410288.040424-.030735c.246813-.187757.493276-.377098.739379-.568017l.413155-.322256.04831-.039704.019-.015.008-.006.009-.007.123-.097.062-.049.005-.004.051884-.039198.053116-.043802.096-.076.009-.007.023-.018-.012.009.095-.075.005-.004.594967-.476339.417235-.339279.065975-.053981.187828-.154181.420185-.347597.099097-.082519.544948-.4575.099765-.085604.033-.028.009-.008.047-.04.027-.023.046-.039.012-.01.057-.049.057-.048.028-.024.033-.028.021-.018.07367-.061915.02233-.020085.117-.101.008-.007.06-.052.008-.007.033-.028.008-.007.045-.039.073-.063.118-.102.088462-.075225c.199412-.173369.39854-.34778.597379-.523228l.475554-.422079.13157-.117649c.132809-.11895.265487-.238364.39803-.358239l.539157-.490845c.046588-.042694.093159-.085444.139714-.128251l.503127-.465466.131228-.12234c.159554-.148985.318904-.298641.478047-.448966l.453117-.43035.018615-.018362.004-.004.024-.023.159-.153.051-.049.001-.001.070645-.066344.035355-.035656.187-.18.007-.007.29-.282-.029.029.089-.087.287092-.279984.350908-.348016.072-.071.065-.065.281-.28.022-.022.275-.276.024-.024.034-.035.017-.017.059-.06.074-.075.016-.016.063-.064.008-.008.231529-.233708c.193422-.197377.386497-.395754.57922-.595125l.356466-.370315c.009927-.010356.019852-.020714.029777-.031075.055388-.057822.110746-.115727.166075-.173714l.520609-.548974.001324-.002089.101-.108.031-.033.005-.005.114249-.120676.049751-.054324.069-.074.061-.065.014-.015.099167-.105374c.181388-.194925.362444-.390738.543163-.587434l.503647-.551422.505762-.560325.001261-.002445.085-.095.099-.111-.08.089.104-.116.080166-.088204.164834-.186796.073811-.081723.043189-.050277.017-.019.025-.029.023-.026.009-.01.055-.063h.001l.04-.046.01-.011.015-.017.057-.065.091-.103.096-.109.036-.041.068-.078.042-.048-.04.045.077-.088.258-.297.035-.04.012-.014.062949-.070655.050051-.059345.044-.051.016-.019.016-.018.02-.024.029-.034.008-.009.182-.211.007-.008.044-.052.16-.186.03901-.04479.14499-.17221.075-.089.208155-.243426.022845-.028574.068921-.080248.042079-.051752.092-.11.025-.03h.001l.033-.04-.034.04.046-.055.309-.369.151-.182.034-.041.049-.06.018-.021.04-.049.014-.017.016-.019.048-.058.001-.001.005-.006.001-.001.011-.014.001-.001.019-.023.021662-.024113.002338-.004887.025-.03.003-.004.003-.003.024-.03.009-.011.004-.004.01377-.015302.01423-.018698.01-.013.048-.058.004-.005.017-.021.01-.012.022-.027.001-.001.005-.006.012-.015.072-.088.037-.045.005-.006.067-.082.159-.195.007-.008.001-.002.059-.072.01-.013.012-.014.02-.025.073-.091.01-.012.046-.057.044-.055.004-.004.007-.009.059-.073.04-.05.056-.069.025681-.030294.014319-.019706.009-.011.015-.018-.013.015.02-.024.495295-.619099.026553-.033466.510556-.647591c.292938-.37382.58472-.750068.875325-1.128725l.183899-.240148c.136081-.178093.271901-.356716.407459-.535865l.094862-.12551c.192307-.254728.384084-.510516.575323-.76736l.332988-.449021.00074-.002215.01-.013.018-.024.005-.007.012-.017.003-.004.017-.023.009-.012.104-.142.097477-.131005-.020477.025005.038-.051.118-.161.011-.015.018-.025.035-.048.011-.015.009-.012.036-.049.004-.006.022-.03.013-.018.035-.048.047-.065.015-.02.036-.05.015-.021.034-.047.033-.046-.01.015.023-.032.099-.137.002-.003.015-.02.054-.075.021-.029.022742-.029546.013258-.020454.053-.074.001-.001.05-.07.002-.003.021-.029.019-.026.005-.007.002-.003.102-.142.003-.004.006-.009.08-.111.04-.056.002-.003.045-.063.014365-.018515-.480366.670131c.32303-.448.64444-.899051.964195-1.353121l.06565-.093303c.192788-.274214.384974-.549527.576549-.825932l.332738-.482068.249099-.363519.00677-.011673.048-.071.034-.05.012-.017.065-.096.022-.032.038538-.054554.007462-.012446.465151-.687488.119257-.17794c.183334-.27396.366074-.548936.548212-.824924l.284725-.433005.000655-.001643.034-.053.014-.021.018-.028.019-.029.002-.003.092-.141.05-.077.020713-.029729.031287-.050271.005-.008.055-.084.039-.06.014-.022.002-.003.045-.069.004-.006.01-.016.01-.015.029-.045.006-.009.053-.082.032-.05.02-.031.022-.034.046-.072.019-.029.003-.005.01-.015.034-.053.001-.002.019-.029.015-.023.001-.002.011-.017.018-.028.02-.031.004-.006.004-.007.009-.014.017-.026.005-.008.018-.028.04-.062.001-.001.015-.024.059-.093.017-.026v-.001l.01-.015.051-.081.024-.037.022-.035.015-.024.025-.039.029-.046.003-.004.021-.033.026-.041.036-.057.008-.013.019-.03.013-.02.005-.007.011-.018.034-.054.00859-.011512-.444586.699088c.319339-.499242.636724-1.001644.952117-1.507169l.071354-.114478.419412-.677282.013113-.022647.081-.132.03-.049.009-.014.044-.072.277075-.452385.085925-.143615.104-.172.038-.062-.016.025.032-.052.021-.034-.007.01.057-.094-.05.084.06-.1.023-.038.022601-.03548.015399-.02652.107-.179.005-.008.157-.262.002-.004.156-.261.022308-.035904.000692-.002096.063-.107.031-.052.026-.044.108-.183.023-.039.042-.071.113-.191.03-.051.03212-.053253.05788-.100747.051-.088v.001l.078-.134.017-.029.042-.072.087-.149.058836-.099063.012164-.022937.038-.066.041-.071.03-.051.04-.07.003-.005.039-.068.031-.054.136-.236.008-.013.018-.032.019-.033.06-.104.014-.024.004-.007.006-.011.018-.031.074-.131h.001l.051-.091.004-.006.007-.013.039-.069.004-.006.09-.158.015-.027.016-.028.014-.024.151505-.2654c.168831-.298878.336978-.598708.504436-.899483l.235773-.424928.006606-.011948.460716-.838977.120964-.224264.065-.12.027-.05.052-.096.093-.171.012-.022.004-.008.014-.025.144-.269v.001l.013-.025-.013.024.055-.102.083-.156.058-.108.019-.036.008-.015.127109-.236277.191891-.365723.008-.015.011-.021.007-.013.078-.147.066-.126v.001l.046907-.087531.047093-.092469.005-.009.054-.103.001-.003.012-.023.021-.04.007-.013.01-.02.072-.137.003-.006.051-.098.032-.061.003-.006.021-.04.019-.037.038-.073.009791-.016904.019209-.039096.02-.038.003-.006.035-.068.014-.027.038-.074.068-.132.043-.084.048-.094.021-.04.047-.092.033-.064.024-.047.007-.013.02-.039.034-.067.02-.039.004-.008-.005.008.007-.013.005-.01.002-.003.104-.205.071-.141-.026.053.07-.138.032-.064.046-.09.02-.04.011-.021.392881-.781097.072931-.146483-.000812-.00142.032-.064.04-.081.017-.034.036-.073.002-.004.026-.053.054-.109.048-.096.014-.029.004-.007.05026-.100387.00774-.017613.051-.102-.032.063.365444-.745496.078578-.161966c.121403-.250563.242336-.501677.362798-.75334l.378515-.795877.017665-.039321.003-.005.018-.04.009-.019.011-.023.018-.038.016-.034.007-.015.013-.027-.006.011.013-.027.038-.081.022-.047.014572-.028101.006428-.016899.009-.018.071-.153.004-.008.001-.001.002-.005.024-.051.052-.111.002-.006h.001l.004-.01.016962-.033485.000038-.002515.053-.115.012-.025.076-.164.075-.162.02-.043.122-.264.016-.035.027-.059.024-.051.016-.035.001-.003.022-.047.02-.045.005-.01.034-.076h.001l.026-.058.031-.068.027-.06.028-.061.015-.032.006-.013.013-.03-.005.013.014-.032.015-.033.021-.045.025-.055.001-.003.048-.104-.02.042.331868-.732191.218121-.488476c.097434-.219076.194512-.438534.291234-.658373l.028213-.064158.210587-.481048.013977-.033754.074-.171.084-.194.092-.213.001-.003.214-.496.139-.326.018-.041zm-591.692866 25.005886c-3.017511 2.889238-3.322493 10.463688 1.771151 23.224627 2.163863 5.421054 6.076113 10.003987 11.796604 13.684209 10.604447 3.4561 19.263437 5.756496 24.895814 6.859467 12.613199 2.470005 24.974965 3.420434 37.085298 2.851288-.001548-.015789-.002393-.030856-.003205-.045932l-1.533945-28.4952c-8.390665-2.683488-16.93724-5.491415-25.888326-8.491235-3.170993-1.062709-8.634258-2.912944-13.912409-4.70295l-.853902-.28961c-5.960481-2.021696-11.509885-3.906741-13.024641-4.415163l-.188555-.063133c-10.009405-3.340102-17.275468-2.86285-20.143884-.116368zm373.022562-109.062119c-18.406266 64.190277-1.477565 125.359597 37.811311 136.625501l1.180876.321759c2.516838.650084 5.062694 1.080857 7.628248 1.300869l30.637913 7.002389c-21.349425-30.953639-26.498076-80.054237-12.378661-129.294489 13.725298-47.865801 42.821427-85.97123 76.133536-101.781721l-36.806546-10.587126-.137112.476651-.784144-.213646c-39.040588-10.083943-85.063218 32.601439-103.285421 96.149813zm-610.7418152-461.690716.326463 2.740177c15.9341624 134.025639 25.4999654 214.560219 28.6974091 241.603741 6.269092 53.023084 11.3175194 101.546426 18.7680941 142.16771 1.564621 8.530469 3.556702 18.150058 6.190374 28.444752l.308994 1.199494.16243.623964c.168185.643767.338891 1.290041.512167 1.938722.186632.698669.375985 1.399179.568377 2.102351l.024301.088771.175846.639718.17753.641159-.000866.00039.001.002v.001l.016.058.002.005.011.039.008.029.001.006.017.06.001.002.003.012.010331.035221.037669.135779.003.012.002.007.029.103.026086.092296.001914.007704.035.126.001.002.009.033.022.078.001.004.003.01.018.066.053.189-.029-.106.034.122.021378.07484.008622.03216.011.039.012.043.006.022.025.087.001.002.022.078v.001l.022.08.001.002.042.148.006.021.28685 1.005131c.150048.523297.301799 1.047899.455278 1.573757l.465647 1.581292c.277122.932775.559709 1.869314.8479 2.809347.104335.340321.209283.680711.314971 1.021545.257987.831992.520524 1.667084.787567 2.504641l-.000213.000287.052.161.01365.043719.00935.029281.045.14.025.08.017.052.011.035.037.115.016.05.003.008.084.262.032.098.022.069.01.032.013.039.006299.019532-.000299.000468.001.002.031.097.037.114.015.046.031.094.004.014.007.021.008.025.029.089.042.13.002.004.044.135.001.004.062.189-.053-.16.087818.267419.067182.205581-.004-.015.101.308.026.079.042.129.027.081.008.025.022.067.012.036.055.168.015.044.009.027.118.356.015.045.016.049.001.002.022.065.001.004.006.018.03.091.008.024.057.17.013.039.025.074.029.087.012.035.017.051.107.32.025.073.007071.021234-.061174-.181771c.533082 1.585573 1.082619 3.178573 1.649239 4.777785l.017864.049752.07.199.049.137.023.064.104791.294166.117209.327834.038.106.02316.064149.04884.136851.103.285.006.017.005.014.007.018.007.019v.001l.007.019.503209 1.38336c.402932 1.098905.814046 2.200346 1.233542 3.303935l.003249.010705.035.092.033.084h-.001l.024.062.013.034.029.076.063.164-.046151-.120825.104151.273825.024.062.035.091.005.012.076.198.007.019.035545.092049.013455.034951.034.088.089.232.002.005.029.074.519561 1.3338c.188654.480781.378922.961902.57082 1.443333l.320472.800497.081147.20137.04.1.04.098.090513.224391.023487.058609-.023-.059.069.171.016.04.06.147.001.002.079.196.037.091.062.151.001.002.213068.521199.132932.323801.003.006.002.006.012.028.003.008.018.044.042.102.024.057.001.003.049434.119275.027566.066725.145.348.583366 1.394126c.254602.603272.511837 1.206846.771739 1.810659l.072895.169215.079.182.158757.367682.106243.244318.017.038v.001l.014.032.015.034v.001l.035.081.03.069-.023-.055.08.185.078.178.669273 1.51669c.238238.535424.47861 1.070954.721139 1.606547l.734079 1.606927.350509.757836.022.047.031.067.056.12.085.182.026.055.02.043.022.048.014.029.014058.030683.065942.140317.095.204.008.017.014.029.005.01.732128 1.545353.826861 1.713795.363966.744256.173045.351596.021.043.062.125.011362.023347.154638.312653.019.038.081.164.03.061.031.061.392.785.007.013.001.003.121.24.031.062.096.19.081.16.052.103.02.039.035.069-.01-.018.029.056.075.147.066587.132521.132413.258479.065.128.034594.068638.103406.201362.058.114.052.101.21754.422959.00546.010041.033.064.155.299-.02-.037.150773.290326.053227.102674-.184-.356.429.825.028387.054913.012613.024087.001.001.149.286-.008-.017.009.017.029.056.006601.012958.091399.173042.023.044.129.244.013.025.153.289-.103-.194.102523.19406.008477.01594v-.001l.186329.351966.057671.108034.007.012.018.035.089.167.099.186.001.001.103.192.106.197.009.018.005.008.054324.101946-.331566-.618233c.331861.620927.666931 1.241394 1.005246 1.861332.828359 1.517911 1.6763 3.032882 2.544216 4.543685l.87912 1.517122.238552.407186.005108.010962.017.028.102.173.031.052.149.253.04.067.005.009.103741.174824.081259.137176.132.222.243103.407786.001897.002214.064.107.067019.112897.004981.007103.094.157.044.073.159457.266189.085543.141811.058.096.026.043.051.084.157.259.184.302.053.087.091.149-.011-.017.084.137.146.238.002.003.114.186.042.068.072.118.069.112.062.101.194.312-.095016-.152449.173016.278449.017.027-.017-.026.056.089.544.871.026.042.092677.147836-.042677-.068836.138.22.192.303-.005-.007.007.011.04.063.067.106-.043-.069.248.39-.108964-.169075.200709.315565.210255.32851.095.149 1.026759 1.587553c.348253.533375.699249 1.065895 1.053012 1.597515l1.069614 1.592107.116615.171825.001.001.083997.123895.000003.000105.074.109-.017-.026.05.074.037.054.078.114.066.096.267.389.119.174.006.009.041.059.008483.012722.038517.055278.026.038.122.176.579984.834984c.256875.367596.515128.734695.774767 1.101282l.783081 1.098208.380168.526526.04.056.023.032.451.62.163.224.056027.077475.133973.182525.076.103.494.67.038.051-.014-.018.077.104.024.032.091.122.138.186.042.056.029.039.054.073v-.001l.577444.771105c.563297.74738 1.132675 1.492263 1.708205 2.234509l.157351.202386-.017-.021.128.164.062.079.029.037.533.68-.075-.095.074398.095282.065602.082718.027.034.029.037.022.028.204.258.033.042.084.106.191.241.011.014.001.001.009.012.042.052.019.024.06.075.038.048.014.017.056.071.127.159.062.077.043448.054273.035552.044727.164.203.02.025-.02-.024.228.282.540119.667055c.297679.365592.596921.73047.897733 1.094615l.907156 1.09022.594696.706197.286296.336913-.285-.337.439.518.264.309.006.007.034.04.009.011.094.11-.061-.072.216.252.399.462-.203164-.234197.373992.43245.127172.145747.493047.565843 1.230085 1.391047c.390013.436835.782465.872429 1.17737 1.306749l.010498.011361.133672.147022c.048031.052707.09605.105343.144105.15796l.025223.027018.044.048.28435.311065.16465.178935-.237-.259.582.632-.188-.203.193.209.037.04.005.005.209.226.342.366-.14-.149.322233.344901-.123233-.132901.377.402-.253767-.269099.278079.29626.210688.222839.116.123.323361.341824 1.103639 1.151176.173.179.013.013.139.144-.108-.112.414.426.166.17-.036-.036.345933.353171.123067.124829.172.175.121.122.008.008.848535.853336c.337253.336814.676138.672703 1.016662 1.007651l1.026501 1.002005.000302.000008.112.108.035.034.17.164.076.073.940005.899859-.601005-.573859.223847.214662.378153.359338.133.126.382.361-.09-.084.132.124.041.038.072.068-.008-.007.163.153.009.008.252.236.035.033.002.002.09.084.036.034.196.182.153.142.352.326.088.081.014.013.030708.028658.067292.061342.154.141.166686.153958.074314.067042.13.119-.053-.049.099.09.40731.372274c27.834894 25.244714 64.914755 44.719981 96.472252 57.83577-5.460891-16.856711-4.024953-30.579892 5.070811-39.289001 9.280213-8.885719 23.995557-9.852256 40.306399-4.409387 1.213819.405047 7.029494 2.380585 13.277063 4.499654l.854226.28972c.42806.14517.857247.290706 1.286239.436156l.857331.29065.854462.289615c4.261217 1.444149 8.326697 2.819334 10.874724 3.673267 14.555441 4.878034 28.013681 9.238109 41.457851 13.374406 11.529089 3.547094 22.573742 6.778968 33.121591 9.668509 26.286358 7.201041 48.58782 12.031524 65.895152 13.99314 32.456815 3.678661 80.395864 6.317835 143.730024 7.902386-7.52056-17.050233-12.675191-38.763239-15.601541-65.170955-3.961285-35.747092-9.401394-141.216692-16.365401-316.960614-.099875-2.520447.756447-4.98553 2.397363-6.90126l34.292795-40.037114-2.893182-80.197267c-22.425375 1.012102-62.74168.043668-121.224973-2.887824-75.98589-3.808814-181.641572-20.671905-258.739591-37.901207-.554997-.124027-1.381046-.308067-2.381628-.530722l-.620521-.138056c-1.706454-.379593-3.810291-.847085-5.916159-1.31483l-.690544-.153373c-.196339-.043606-.392319-.08713-.587616-.130502l-.583524-.129584c-3.581804-.795394-6.819836-1.513985-7.672917-1.703258l-.117109-.025982c-.079633-.017666-.113698-.025219-.097159-.021542-8.531592-1.89647-15.507557-3.459859-22.584901-5.067293-18.840698-4.279172-35.711947-8.268574-51.732991-12.284667-30.671448-7.688598-56.026547-14.937057-75.4705125-21.840756-12.5451903-4.454246-22.4902864-8.706368-29.8124427-12.918302zm719.0903712 238.636813c-50.959474 13.350036-94.219033-.922434-128.230955-42.009836l-26.284646 30.684188.052888 1.313206c6.771075 170.252139 12.096767 273.506616 15.934655 309.244069l.117022 1.072913c3.209272 28.960838 9.173595 51.214011 17.656902 66.704987l14.962344-5.743021c-29.534816-29.396222-38.221844-86.392802-21.782-143.72535 20.217114-70.505457 72.390644-120.443199 122.90151-111.029218l.624289.124798.017294-.000452c1.680034.010227 3.385013.233965 5.080422.690305l.338944.094375 83.363514 23.98767.349565.105502.05-.353 29.544978-212.047287c-34.804962 42.911797-73.016527 69.96704-114.696726 80.886151zm78.779732 164.63186c15.552837 4.459704 25.448531 18.231891 31.172913 38.158341 6.550223 22.801184 5.774982 50.782423-2.224021 78.678261-7.999003 27.895839-22.169358 52.03609-39.807049 67.901501-15.413962 13.865128-31.104133 20.300686-46.65697 15.840982-15.552838-4.459704-25.448531-18.231891-31.172914-38.158341-6.550223-22.801184-5.774982-50.782423 2.224021-78.678261 7.999003-27.895839 22.169359-52.03609 39.80705-67.901501 15.413961-13.865128 31.104133-20.300686 46.65697-15.840982zm-33.28164 30.710432c-14.692046 13.215752-26.944455 34.088639-33.957146 58.544798-7.01269 24.456158-7.683003 48.650158-2.226723 67.64335 4.018976 13.989967 10.001161 22.315586 17.463129 24.455271 7.461967 2.139685 16.947055-1.750765 27.768893-11.485198 14.692046-13.215752 26.944455-34.088639 33.957145-58.544798 7.012691-24.456158 7.683004-48.650158 2.226724-67.64335-4.018976-13.989967-10.001162-22.315586-17.463129-24.455271-7.461968-2.139685-16.947055 1.750765-27.768893 11.485198zm-750.8341064-147.91241-.2247735.901043c-11.439614 46.838366-4.1577812 91.04389 16.7293676 114.130201-.7487733-3.622283-1.4604455-7.279574-2.138829-10.978189-4.4408967-24.212217-8.0624937-50.544576-12.8985029-91.496463-.2712949-2.297356-.8115159-6.926736-1.4672622-12.556592zm836.0901904-246.13693-.047243.017c-2.318899.682801-4.976277 1.327799-8.129505 1.999153-3.564063.758823-20.998501 4.027699-26.1134 5.073837-7.496273 1.533195-21.434532 4.460737-41.810908 8.781814l-5.544116 1.176362c-36.672459 7.785373-92.05324 19.620183-166.123184 35.500413l-3.965072.849605 3.031904 84.024779c30.04261 40.278494 67.060702 53.940128 112.878914 41.936967 45.578923-11.940474 87.473422-46.174776 125.57133-103.208454l8.44618-60.628175c.622032-5.333058 1.223732-10.507492 1.8051-15.523301zm-861.2055827-135.476628.3614851 3.032152c2.6704127 22.456772 5.211098 43.823898 7.6220561 64.101379 1.8197012 2.125488 4.6425498 4.831889 8.5693315 7.929459 5.1669633 4.075866 15.9424446 9.097701 31.3124415 14.554912 18.7271525 6.64919 43.5355615 13.741363 73.6417315 21.288259 15.859733 3.975656 32.59274 7.932369 51.299598 12.181143l1.836237.416579 1.838438.416132c5.832082 1.318608 11.795258 2.652793 18.820396 4.214397.287343.063692 5.022136 1.11436 9.750635 2.164633l.691413.153581c3.451659.766742 6.783409 1.507436 8.247162 1.834545 76.087545 17.003489 180.713365 33.702209 255.378975 37.444844 58.077282 2.911141 98.005 3.863565 119.503407 2.874988l-2.52478-69.944992c-23.854435.593625-62.357526-.457165-115.917123-3.126694-77.063444-3.841013-183.821422-20.78381-261.851282-38.12288-1.51041-.335629-5.026241-1.112769-8.611496-1.904647l-.694268-.153336-.297301-.065658-.592856-.130923c-4.236943-.935629-8.168458-1.803128-8.540794-1.885235l-.024853-.005473c-8.593218-1.899382-15.622309-3.46578-22.756454-5.076965-19.012819-4.293879-36.047255-8.299121-52.238065-12.334849-31.122943-7.757719-56.890382-15.082457-76.7974848-22.11068-16.9618183-5.988387-29.5271981-11.669317-38.0265499-17.744671zm871.4032167 44.110739-.402018.135817c-3.187317 1.045416-6.830164 1.94928-11.200896 2.8746-1.865132.394863-7.194069 1.41194-12.684483 2.457971l-1.06379.202659c-5.142826.97973-10.240514 1.951301-12.589549 2.429031-15.526024 3.157568-58.752256 12.276259-129.558496 27.331231-19.019279 4.04392-51.562265 10.974978-97.627089 20.792777l2.463909 68.242783c117.909709-25.279549 188.558784-40.329267 212.02408-45.165269l1.462019-.300617.680942-.139471c2.315025-.473487 6.860588-1.348164 11.541983-2.245319l.969816-.185815 1.001835-.191891c5.501034-1.053586 10.783734-2.064821 12.44251-2.417991 4.559677-.9708 7.607443-1.811932 9.582825-2.636926.707306-.295399 1.366881-.548498 2.18929-.84844.062308-.022724.166967-.060698.280951-.102005l.044323-.016781.074599-.096594c.802514-1.025975 1.793691-1.877596 2.907396-2.516258 3.353752-29.298684 5.840191-51.832263 7.459843-67.603492zm-289.865526-49.54311c20.189801 0 39.171811 1.491047 53.418783 4.136913 7.341242 1.363374 13.349422 3.014982 17.831032 4.982758 2.76977 1.216145 5.078277 2.594531 6.951685 4.294767 2.898916 2.63095 4.761824 6.037643 4.761824 10.135894s-1.862908 7.504944-4.761824 10.135894c-1.873408 1.700235-4.181915 3.078622-6.951685 4.294766-4.48161 1.967776-10.48979 3.619385-17.831032 4.982759-14.246972 2.645866-33.228982 4.136912-53.418783 4.136912-20.189802 0-39.171812-1.491046-53.418783-4.136912-7.341243-1.363374-13.349423-3.014983-17.831033-4.982759-2.76977-1.216144-5.078276-2.594531-6.951684-4.294766-2.898917-2.63095-4.761824-6.037643-4.761824-10.135894s1.862907-7.504944 4.761824-10.135894c1.873408-1.700236 4.181914-3.078622 6.951684-4.294767 4.48161-1.967776 10.48979-3.619384 17.831033-4.982758 14.246971-2.645866 33.228981-4.136913 53.418783-4.136913zm0 20c-18.334158 0-35.504871 1.295429-48.30909 3.537773l-.070234.012227.070234.01289c12.557984 2.199222 29.316135 3.487599 47.252663 3.536339l1.056427.001434c18.334157 0 35.50487-1.295429 48.309089-3.537773l.069587-.01289-.069587-.012227c-12.557984-2.199222-29.316135-3.487598-47.252663-3.536338zm-313.742294-97.6538232c41.769962 0 80.977946 3.1023702 110.183857 8.5660609 14.661098 2.7427225 26.525584 6.0280843 35.043062 9.7953185 4.819684 2.1317199 8.697774 4.4642529 11.630511 7.1453955 3.966429 3.6261573 6.365551 8.0455643 6.365551 13.1573883s-2.399122 9.531231-6.365551 13.157388c-2.932737 2.681142-6.810827 5.013676-11.630511 7.145395-8.517478 3.767235-20.381964 7.052596-35.043062 9.795319-29.205911 5.463691-68.413895 8.566061-110.183857 8.566061s-80.977946-3.10237-110.183856-8.566061c-14.661098-2.742723-26.525585-6.028084-35.043063-9.795319-4.819683-2.131719-8.697774-4.464253-11.63051-7.145395-3.96643-3.626157-6.365551-8.045564-6.365551-13.157388s2.399121-9.531231 6.365551-13.1573883c2.932736-2.6811426 6.810827-5.0136756 11.63051-7.1453955 8.517478-3.7672342 20.381965-7.052596 35.043063-9.7953185 29.20591-5.4636907 68.413894-8.5660609 110.183856-8.5660609zm0 20c-40.611188 0-78.613203 3.0069467-106.50616 8.225017-13.27219 2.4828926-23.752863 5.3850666-30.630839 8.4271582-1.565561.692439-2.888565 1.369001-3.954362 2.002584l-.016619.009241.016619.009567c.97698.580784 2.170086 1.197683 3.568033 1.829821l.386329.172763c6.877976 3.042091 17.358649 5.944265 30.630839 8.427158 27.892957 5.21807 65.894972 8.225017 106.50616 8.225017s78.613203-3.006947 106.506161-8.225017c13.272189-2.482893 23.752863-5.385067 30.630839-8.427158 1.565561-.692439 2.888565-1.369001 3.954361-2.002584l.015659-.009567-.015659-.009241c-.97698-.580784-2.170086-1.197683-3.568033-1.829821l-.386328-.172763c-6.877976-3.0420916-17.35865-5.9442656-30.630839-8.4271582-27.892958-5.2180703-65.894973-8.225017-106.506161-8.225017zm-260.5828739 13.7938237.1606318-.067817-.1223918.0516794c-.2184576.09215-.4354283.184373-.6509031.2766691-.1334557.057164-.2664266.1143946-.3988209.1716534l.3988209-.1716534c-.423668.1814731-.8415531.3632291-1.2535876.5452699l.2800524.0629196c-4.5327774 1.9184555-7.5718229 4.1911235-9.1172477 6.8180055-.0048907.010053-.0087541.020131-.0126017.030216l-.1248456.345483c-.0100991.029551-.0200705.059152-.0299153.088802-.0776946.234006-.1474709.470921-.2099268.710333-.0123671.047403-.0245233.09521-.0363931.143111l.0363931-.143111c-.0763103.29252-.1416922.588768-.1971575.887759-.0036327.019593-.0071692.038893-.0106647.058205l.0106647-.058205c-.0786229.423824-.1373198.853158-.1789722 1.285192-.0054812.056931-.0106367.113495-.0155071.1701-.0075196.08731-.014357.17476-.0205389.262281l.0205389-.262281c-.0108641.126268-.0203089.252734-.028406.37933l.0078671-.117049c-.0183752.260152-.030958.52094-.0383712.781756-.0024227.085793-.0042959.171329-.0056351.256847l.0056351-.256847c-.0055813.196365-.0082322.392747-.0082185.588885l.0025834-.332038c-.0021018.134216-.0028881.268388-.0024439.402431l-.0001395-.070393c.0000082.116129.0009504.232173.0027716.348077l-.0026321-.277684c.0014583.440076.0161805.878771.0411623 1.313156.0067488.118118.0143434.236597.0226441.354694l-.0226441-.354694c.0073622.128015.0156154.255655.0246828.382846l-.0020387-.028152c.0110596.157352.0233726.314025.0367933.469878 1.4502375 4.861672 6.3031007 10.530216 14.5585895 17.005633 27.4708999 21.547547 151.972314 47.882792 202.586166 59.129732 50.613852 11.246939 167.350424 33.127944 258.508496 37.671464 56.738534 2.827974 96.363432 3.818303 118.874693 2.970986 1.431859-.977424 3.135947-1.593038 4.98371-1.710628l.279584-.013936c1.303318-.047041 2.557368.157515 3.715366.570142 47.566348-10.137895 81.05413-17.270319 100.464158-21.39732 70.878373-15.070309 114.122406-24.192755 129.732098-27.367339 30.263683-6.154805 46.600751-6.758658 43.768899-17.865217-.102025-.360823-.223374-.729009-.364301-1.104357-.01988-.052955-.040318-.106484-.061153-.160157l.061153.160157c-.046998-.125176-.096173-.251149-.147549-.377903l.086396.217746c-.055165-.142106-.113118-.285221-.173892-.429322l.087496.211576c-.050499-.124595-.103124-.249945-.157896-.376037l.0704.164461c-.048638-.115328-.099084-.231288-.151352-.34787l.080952.183409c-.059748-.137546-.12205-.275975-.186934-.415269l.105982.23186c-.062761-.139983-.128151-.280864-.196199-.422622l.090217.190762c-.055032-.118142-.111921-.236906-.170685-.356282l.080468.16552c-.065113-.135644-.132659-.272091-.202664-.409326l.122196.243806c-.068643-.139445-.139844-.279724-.213629-.42082l.091433.177014c-.060444-.118493-.12272-.237573-.186846-.357229l.095413.180215c-.077405-.148016-.157653-.296931-.240778-.446725l.145365.26651c-.078676-.146806-.160135-.29448-.244408-.443003l.099043.176493c-.088589-.159641-.180443-.32028-.275602-.481894l.176559.305401c-.068881-.121398-.139642-.243362-.212299-.365884l.03574.060483c-.084726-.143895-.172071-.288562-.262062-.433985l.226322.373502c-.081571-.137552-.165531-.275806-.251904-.414747l.025582.041245c-.074992-.121185-.151822-.242895-.230504-.36512l.204922.323875c-.093139-.149826-.189084-.30045-.287864-.451854l-.276116-.414351c-.193971-.285131-.397904-.57292-.611988-.863245-.055007-.074594-.110287-.148827-.166231-.223222l.166231.223222c-.108459-.147085-.219523-.29482-.333216-.443191l.166985.219969c-.101368-.134803-.204916-.270141-.310661-.406003l.143676.186034c-.10663-.139153-.215573-.278864-.32685-.419121l.183174.233087c-.108458-.139347-.219229-.279245-.332332-.41968l.149158.186593c-.117233-.147765-.237055-.296136-.359492-.445097l.210334.258504c-.126269-.156785-.255446-.314239-.387557-.472346l.177223.213842c-.114605-.139435-.231501-.279387-.350706-.419844l.173483.206002c-.122088-.146112-.246683-.29278-.373806-.439992l.200323.23399c-.145535-.171482-.294512-.343717-.446967-.516683l.246644.282693c-.128719-.14906-.26003-.298677-.393957-.448835l.147313.166142c-.140489-.159388-.28393-.319397-.430352-.480009l.283039.313867c-.135624-.152063-.273931-.304682-.414944-.457841l.131905.143974c-.154257-.169206-.311823-.339081-.472728-.509604l.340823.36563c-.140891-.153028-.284484-.306595-.430802-.460687l.089979.095057c-.452672-.479727-.931781-.964582-1.438047-1.454106-.258049-.24951-.522789-.499895-.79466-.751429-.077746-.071932-.156504-.14435-.235854-.216861l.235854.216861c-.127375-.117847-.256316-.235947-.386832-.354292l.150978.137431c-.178765-.163359-.360534-.327193-.545333-.491485l.394355.354054c-.171912-.155882-.346557-.31219-.523958-.468911l.129603.114857c-.183254-.162919-.369487-.326288-.558724-.490091l.429121.375234c-.182084-.160858-.36707-.322151-.554983-.483863l.125862.108629c-.172003-.148886-.346487-.29813-.523472-.44772l.39761.339091c-.209171-.180006-.421968-.360531-.638425-.541553l.240815.202462c-.187402-.158396-.377607-.31718-.570639-.476338l.329824.273876c-.202782-.169587-.408775-.33961-.618007-.510052l.288183.236176c-.179512-.148012-.361469-.296347-.545888-.444995l.257705.208819c-.196431-.160016-.395718-.320401-.597882-.481141l.340177.272322c-.205225-.165418-.413499-.331223-.624847-.497399l.28467.225077c-.203659-.161929-.410238-.324218-.619761-.486853l.335091.261776c-.233499-.183592-.47075-.367637-.711787-.552113l.376696.290337c-.20185-.15668-.406432-.313681-.613766-.470989l.23707.180652c-.497609-.380842-1.011353-.763522-1.541525-1.147852-.165915-.12027-.332407-.239966-.500498-.359815l.500498.359815c-.230378-.167004-.463858-.334319-.700464-.501931l.199966.142116c-.186062-.132664-.374081-.265516-.564072-.398548l.364106.256432c-.238291-.168804-.479752-.337909-.724409-.507297l.360303.250865c-.185045-.129571-.371959-.259312-.560754-.389219l.200451.138354c-.250081-.173145-.503502-.346586-.760287-.520308l.559836.381954c-.249716-.171825-.502722-.343938-.759043-.516323l.199207.134369c-.228499-.154584-.459663-.309391-.69351-.464408l.494303.330039c-.283397-.190594-.570846-.381519-.862382-.572754l.368079.242715c-.28116-.18638-.5662-.373064-.855151-.560031l.487072.317316c-.23433-.153709-.4713-.307619-.710929-.461717l.223857.144401c-.2413-.156134-.485327-.312465-.732101-.468982l.508244.324581c-.280945-.180666-.565544-.361591-.853826-.542757l.345582.218176c-.228456-.144898-.459265-.289954-.692443-.43516l.346861.216984c-.278657-.175116-.560755-.350456-.84632-.526004l.499459.30902c-.2708-.168634-.544795-.337469-.822008-.50649l.322549.19747c-.269014-.165372-.541104-.330929-.816294-.496655l.493745.299185c-.321054-.195751-.646425-.391752-.976148-.58798l.482403.288795c-.370861-.223342-.74735-.446992-1.129523-.670917-.740874-.434105-1.503851-.869657-2.288618-1.30599-.165053-.09177-.331045-.18356-.498003-.275383l.498003.275383c-.337988-.187922-.680018-.37599-1.026121-.564182l.528118.288799c-.333714-.183534-.671291-.367196-1.012762-.550968l.484644.262169c-.27929-.151863-.561234-.303808-.845846-.455823l.361202.193654c-.283906-.152791-.570502-.305659-.859807-.458592l.498605.264938c-.365148-.195031-.73469-.390179-1.10866-.585421l.610055.320483c-.271887-.143725-.546167-.287509-.822851-.431341l.212796.110858c-.315878-.164913-.634916-.329894-.957134-.494929l.744338.384071c-.352798-.183399-.709506-.366876-1.070155-.550415l.325817.166344c-.318871-.163321-.640856-.326694-.965976-.490107l.640159.323763c-.360386-.183405-.724707-.366871-1.092991-.550379l.452832.226616c-.340197-.17099-.683825-.342024-1.030909-.513086l.578077.28647c-.335771-.167308-.674836-.334651-1.017217-.502015l.43914.215545c-.333199-.164219-.669582-.328464-1.009171-.492723l.570031.277178c-.366807-.179303-.737419-.358631-1.111865-.537967l.541834.260789c-.760355-.367782-1.536778-.735629-2.329502-1.103394-.322718-.149718-.648374-.29953-.97675-.449318-.405352-.184901-.815141-.369896-1.229112-.554836-.342181-.152867-.686702-.305469-1.034088-.458023-.189076-.083033-.379446-.166246-.570671-.249442l.570671.249442c-.315246-.13844-.632851-.27684-.952828-.415192l.382157.16575c-.361173-.157136-.725397-.314214-1.092691-.471223l.710534.305473c-.485766-.210037-.976997-.419964-1.473739-.629753l.763205.32428c-.388108-.165907-.779642-.331736-1.174626-.497475l.411421.173195c-.355701-.150224-.714227-.300377-1.075593-.450449l.664172.277254c-.453906-.190464-.912366-.380807-1.375414-.571011l.711242.293757c-.364012-.151171-.730905-.302259-1.100698-.453256l.389456.159499c-.444345-.182521-.892914-.364912-1.345735-.547156l.956279.387657c-.410768-.167727-.825113-.335341-1.243057-.502827l.286778.11517c-.409204-.16469-.821881-.329258-1.238052-.493693l.951274.378523c-.466476-.186934-.937436-.373708-1.41291-.560303l.461636.18178c-.384158-.151786-.771293-.303457-1.161422-.455004l.699786.273224c-.441182-.173137-.886252-.34612-1.335233-.518933l.635447.245709c-.501899-.194964-1.008753-.389721-1.520597-.584248l.88515.338539c-.436433-.167983-.876563-.335804-1.320412-.503451l.435262.164912c-.357246-.135772-.716923-.271432-1.079043-.406973l.643781.242061c-.518775-.195946-1.04263-.391653-1.571602-.587097-.785697-.290302-1.583645-.580367-2.393028-.869774-.441252-.157776-.885625-.315259-1.333412-.472533-.051292-.018016-.103601-.036369-.155956-.05472l.155956.05472c-.347659-.122107-.697375-.244089-1.049159-.36594l.893203.31122c-.47813-.167584-.960142-.33493-1.446057-.502024l.552854.190804c-.39599-.137163-.794599-.27416-1.19584-.410983l.642986.220179c-.530934-.182574-1.066529-.364846-1.606815-.546797l.963829.326618c-.495444-.168946-.9949-.337626-1.498394-.506025l.534565.179407c-.462531-.155766-.928501-.311296-1.397928-.466579l.863363.287172c-.521973-.174579-1.048284-.348856-1.578961-.522813l.715598.235641c-.478253-.158202-.960096-.316147-1.445548-.473823l.72995.238182c-.51002-.167187-1.024074-.334077-1.542183-.500658l.812233.262476c-.561291-.182308-1.127408-.364255-1.69838-.545821l.886147.283345c-.483631-.155494-.970796-.310718-1.461516-.465659l.575369.182314c-.532643-.169377-1.069512-.338423-1.610633-.50712l1.035264.324806c-.519057-.163889-1.042091-.32746-1.569125-.4907l.533861.165894c-.494689-.154223-.992932-.308155-1.494747-.461784l.960886.29589c-.552344-.171079-1.109081-.341795-1.670238-.512129l.709352.216239c-1.573835-.481823-3.182813-.960664-4.82753-1.43614-1.072723-.310115-2.160208-.618675-3.263051-.925699-.334137-.093021-.669647-.185891-1.006571-.278617l1.006571.278617c-.437419-.121774-.877253-.243306-1.319514-.364591l.312943.085974c-.566314-.155858-1.136623-.311308-1.710949-.466338l1.398006.380364c-.625149-.171438-1.255146-.34238-1.89002-.512808l.492014.132444c-.636417-.17179-1.277766-.343063-1.924078-.513801l1.432064.381357c-.556418-.149366-1.116582-.298337-1.680512-.446899l.248448.065542c-.57542-.15201-1.154773-.303595-1.738081-.454742l1.489633.3892c-.658597-.173502-1.322331-.346447-1.991232-.518815l.501599.129615c-.599709-.155397-1.203597-.31033-1.811689-.464786l1.31009.335171c-.64632-.166549-1.297464-.33256-1.953461-.498013l.643371.162842c-.532979-.135377-1.069187-.270387-1.608638-.40502l.965267.242178c-.672221-.169546-1.349538-.338507-2.031981-.506864l1.066714.264686c-.582785-.145448-1.169356-.290456-1.759732-.435012l.693018.170326c-.572373-.141203-1.148351-.281981-1.727954-.422322l1.034936.251996c-.801491-.196247-1.609995-.391661-2.425562-.58621l1.390626.334214c-.629825-.152503-1.26393-.30449-1.902338-.455946l.511712.121732c-.618131-.147452-1.240319-.294407-1.866585-.440852l1.354873.31912c-.6476-.153638-1.299628-.306731-1.956107-.459262l.601234.140142c-.837333-.1958-1.681956-.390687-2.53392-.58463-68.279623-15.543338-231.542274-49.3312424-303.11745-57.2415427-1.431503-.158206-2.875031-.3180838-4.33024-.4793901l-2.06208-.2286436c-3.708463-.4112762-7.490638-.8309583-11.340998-1.255106l-2.190819-.2409872c-.799656-.0878263-1.602169-.175811-2.407492-.2639195l-2.322493-.2535673c-1.357683-.1479067-2.723114-.2960677-4.096067-.4443202-.984159-.1062701-1.971038-.2124644-2.961687-.318646l-1.807863-.1933014c-2.576724-.2748241-5.178393-.5493203-7.803552-.8224531l-1.873861-.1943086c-.350255-.0361952-.700919-.072362-1.051988-.108498l1.051987.1084979c-1.79125-.1851069-3.593187-.3694708-5.405353-.5527667-.098328-.0099457-.196971-.0199169-.295643-.0298849l.295643.0298849c-.84677-.0856486-1.695773-.1710641-2.546964-.2562132l-1.657425-.1651822c-.500143-.0496568-1.001025-.0992148-1.502638-.1486675-1.273902-.1255912-2.553501-.2505983-3.837665-.3748156-.215558-.0208509-.431245-.0416796-.647059-.0624856l.647059.0624856c-1.607224-.1554669-3.221599-.3096966-4.842824-.4624747-.493715-.0465256-.987365-.0928512-1.48164-.1390365l1.48164.1390365c-1.782155-.1679435-3.572587-.334133-5.370897-.4982839-1.004531-.0916939-2.010872-.1826936-3.019598-.2730084l-2.578135-.2288546c-1.560077-.1372776-3.125674-.2728302-4.696538-.4064767-.322172-.0274099-.644218-.0547102-.966483-.0819289l.966483.0819289c-1.642808-.1397675-3.291376-.2774504-4.945414-.4128417-1.130117-.0925047-2.261316-.1838224-3.394969-.2740073l-1.93836-.1528995c-.39287-.0307245-.786027-.0613092-1.179467-.0917513l1.180788.0918546c-3.738794-.292397-7.503587-.5721276-11.291091-.8368492-.034202-.0023905-.068867-.004812-.103534-.0072322l.103534.0072322c-1.665343-.1163966-3.335077-.2298914-5.008922-.3402855-.300617-.0198264-.601235-.0395441-.901983-.0591608l.901983.0591608c-5.212038-.3437463-10.463939-.6574279-15.747266-.9350333-.509168-.0267532-1.017678-.0531226-1.526471-.0791529l1.526471.0791529c-2.003138-.1052523-4.010793-.2053186-6.022506-.2998713-.224572-.0105551-.448976-.0210313-.673431-.0314386l.673431.0314386c-5.483961-.2577522-10.998074-.4745321-16.533026-.6437027-.266473-.0081444-.532726-.0161705-.799026-.0240857l.799026.0240857c-1.78742-.0546308-3.577013-.1042966-5.368465-.1487739-.237606-.0058993-.475673-.0117176-.713771-.0174438l.713771.0174438c-1.97564-.0490503-3.953541-.0917903-5.933282-.1279203-.00317-.0000578-.006837-.0001247-.010504-.0001916l.010504.0001916c-1.664979-.0303856-3.33126-.0560959-4.998593-.0769527-.369139-.0046175-.738131-.0089948-1.107171-.0131326l1.107171.0131326c-4.741771-.0593151-9.492048-.079375-14.245074-.0560777-.27344.0013403-.546805.0028236-.820177.0044511l.820177-.0044511c-.750036.0036764-1.500141.0084324-2.250291.0142842l1.430114-.0098331c-.937187.0055795-1.874467.0128536-2.811798.0218537l1.381684-.0120206c-.942271.0073504-1.884614.0164298-2.826985.0272701l1.445301-.0152495c-.768543.0073795-1.537119.0159194-2.305705.025637l.860404-.0103875c-1.110608.0127755-2.221254.0279967-3.331864.0457159l2.47146-.0353284c-1.030892.013034-2.0618.0281869-3.092666.0455003l.621206-.0101719c-.918954.0146614-1.837883.0310331-2.756747.0491446l2.135541-.0389727c-.888884.0149289-1.777737.0314642-2.666521.0496327l.53098-.01066c-.708463.0139643-1.416888.028963-2.125254.0450095l1.594274-.0343495c-.992724.0202933-1.985362.0426241-2.977862.0670299l1.383588-.0326804c-2.113819.047884-4.22712.105099-6.339398.1720058-.092889.0029424-.184872.0058745-.276853.0088251l.276853-.0088251c-.724632.0229529-1.449143.0470463-2.173512.0722949l1.896659-.0634698c-1.04827.0336262-2.096282.0696435-3.143975.1080959l1.247316-.0446261c-.993344.0346239-1.986422.0714202-2.979183.1104263l1.731867-.0658002c-.801793.0294274-1.6034.060281-2.404791.0925807l.672924-.0267805c-1.948944.0765751-3.896664.1616671-5.84276.2555602-.210984.0101792-.422002.0204646-.633001.0308538l.633001-.0308538c-.761373.0367338-1.522499.0748148-2.283351.1142599l1.65035-.0834061c-.900484.0443384-1.800612.0905684-2.700343.1387182l1.049993-.0553121c-2.013289.1043755-4.024671.2183023-6.033703.3420958-.264167.0162777-.527829.0326969-.791449.0492867l.791449-.0492867c-.864827.0532893-1.729219.1084069-2.59314.165378l1.801691-.1160913c-.82839.0521312-1.656371.105948-2.483912.1614726l.682221-.0453813c-.947853.062506-1.89514.1272432-2.841814.1942447l2.159593-.1488634c-.843052.0565653-1.685646.114903-2.527751.1750364l.368158-.026173c-.885329.0626597-1.770122.1272998-2.654341.1939475l2.286183-.1677745c-.899845.0642566-1.799131.1305636-2.697818.1989497l.411635-.0311752c-.994582.0749664-1.988438.1524727-2.981512.2325576l2.569877-.2013824c-1.029225.0783194-2.057663.1593657-3.085254.2431816l.515377-.0417992c-.796409.0642251-1.592314.1301086-2.38769.1976704l1.872313-.1558712c-.928421.075727-1.85615.1537149-2.783144.2339953l.910831-.0781241c-.861522.0731807-1.722423.1483305-2.582666.2254747l1.671835-.1473506c-.876975.0759486-1.753291.153949-2.628911.2340279l.957076-.0866773c-1.965395.1762515-3.927358.3629138-5.885463.5602893-.214239.0215949-.42899.043375-.643695.0652845l.643695-.0652845c-.813081.0819579-1.625497.1657631-2.437217.251437l1.793522-.1861525c-.920591.0939414-1.840318.1902603-2.759137.2889879l.965615-.1028354c-.856417.0903916-1.71206.1828634-2.566893.277441l1.601278-.1746056c-.831301.0893237-1.661859.1806192-2.491642.2739098l.890364-.0993042c-1.114618.1233198-2.227859.2502197-3.339644.380756l2.44928-.2814518c-.943848.1061148-1.886692.2148109-2.828485.3261226l.379205-.0446708c-.746635.0876635-1.492615.1769671-2.237913.2679278l1.858708-.223257c-1.030593.121807-2.059926.2467461-3.087937.3748622l1.229229-.1516052c-.832616.1016175-1.664383.205303-2.495267.3110805l1.266038-.1594753c-.847592.1056314-1.694286.2134225-2.540045.3233985l1.274007-.1639232c-.905768.1153107-1.810487.2331073-2.714113.3534207l1.440106-.1894975c-.746835.0971126-1.492941.1959289-2.238294.2964662l.798188-.1069687c-1.079269.1436994-2.156981.2909891-3.23306.4419216l2.434872-.3349529c-1.105913.1491714-2.210168.3021316-3.312686.4589371l.877814-.1239842c-.759101.1064725-1.517389.2147579-2.27484.3248744l1.397026-.2008902c-.878686.1249711-1.756269.2523846-2.632708.3822694l1.235682-.1813792c-.867069.1260527-1.73304.2545049-2.597874.3853844l1.362192-.2040052c-.764244.1132578-1.527618.2283945-2.290096.3454293l-2.416508.3777758c-3.55927.5665949-7.125866 1.1348032-10.695785 1.7047376l-5.35687.8562103c-1.678954.2686937-3.358199.5377811-5.037321.8072741l-5.036578.8097068c-4.46608.7192616-8.928342 1.4414768-13.378958 2.1668661l-1.461702.2384217c-1.538125.2510836-3.074755.5025497-4.609565.7544073l1.095852-.1797096c-2.448168.401219-4.89141.8033453-7.328885 1.2064926-.264492.0437458-.529607.0876179-.794653.1315023l.294185-.0486992c-1.382125.2287511-2.762555.4578631-4.140871.6873129-1.61355.2686099-3.224039.5376549-4.831165.8071598-3.195079.5357937-6.378056 1.0736063-9.545043 1.6133767l.680756-.1159538c-.893743.1521383-1.785927.3043796-2.676722.4567664-1.180904.2020154-2.359134.404246-3.534887.6067568l-1.346303.2321974-1.392065.2407544c-3.366181.5830014-6.710908 1.1683434-10.030451 1.7561309-.25767.0456253-.515278.0912812-.772732.136952l.772732-.136952c-.78039.1381827-1.559388.2765005-2.336946.4149549l.883135-.1570856c-1.184596.2104824-2.366421.4213728-3.54478.632583-1.494837.2679363-2.983816.5363362-4.466767.8052411-.370551.0671922-.740413.1343595-1.109902.2015596l1.109902-.2015596c-.844368.15311-1.686782.3063837-2.527209.4598288l1.417307-.2582692c-2.216437.403111-4.419398.8074036-6.607711 1.2129108l.243317-.0450719c-.91298.1690592-1.82342.3383295-2.731236.5078131l-2.378489.4456788c-1.226624.2306948-2.448269.4617869-3.664724.6932826-.290335.0552519-.579465.1103534-.868299.1654777l.868299-.1654777c-2.157179.4105186-4.298034.822306-6.42138 1.2353955-.402599.0783245-.803895.156564-1.204555.2348505l1.204555-.2348505c-2.131942.414762-4.246233.8308365-6.341672 1.2482576-.038084.0075866-.075726.0150867-.113362.0225873l-.147478.0293997c-.494685.0986437-.988314.1973626-1.480873.2961571-.375344.0752847-.748576.1503131-1.121183.2253853l1.121183-.2253853c-.474205.0951132-.947417.1902965-1.419622.2855503l-.039088.0075835-2.071742.4200608c-.536066.1090789-1.07079.2182507-1.604152.327516-1.492963.3058508-2.975127.6124086-4.446151.9197116l-.893211.1869751-.047738.0100144c-.118366.0248335-.236659.0496719-.354878.0745151l.260872-.054793-1.197356.2520184c-.268494.0566686-.536604.1133627-.804325.1700823-1.824165.3864688-3.630234.7741017-5.417394 1.162945l-1.332795.29098-1.10305.2423521c-1.028315.2265888-2.050105.4535902-3.065193.6810092-.135008.030247-.27041.0606163-.405691.0909931l.405691-.0909931c-1.481118.3318279-2.947965.6645449-4.399988.9981667-.518225.1190688-1.035192.238399-1.550241.3578455-2.121912.4920994-4.211011.9861101-6.2657909 1.4821432l.8563769-.2061404c-.5173686.1241812-1.0325967.248489-1.5456565.3729243-1.055168.2559157-2.1011371.5123632-3.1376939.7693563-.0836468.0207384-.1679846.0416672-.2522599.0625996l-1.6352923.4086138c-.2753174.0692102-.5499451.13846-.8238783.2077496l.1278254-.0323169c-.3662394.0925483-.7312872.1851795-1.0950854.2778821l-1.7034945.4369737c-.5594889.1444822-1.1159146.289138-1.6692352.4339686-.6121952.1602409-1.2205892.3206958-1.8251251.4813663-.9236643.2454881-1.8376833.4913058-2.7425055.7376317l-1.4637625.4011566-.1227899.0338979c-.5451231.1505755-1.086782.3013412-1.6249307.4522984l-.0103598.002496-.2488572.0703087c-.2977529.0837332-.5944243.1675252-.8900065.2513765l-.0555205.0157544-.3726158.1055604.2519126-.0712797c-.0726858.0206557-.1453055.041315-.2178588.0619779l-1.2570538.3603018-.4718331.1364126c-.759158.2200486-1.5107362.4405055-2.2545946.6613746l-.3187662.0948155-.4238061.1263973.426-.127-.5997546.1792495c-.1746999.0524028-.3489633.1048288-.5227884.1572781l-.3858923.1166944-.1839932.0558218c-2.3046702.6999572-4.5310624 1.4040629-6.6747596 2.1124417l-.1297297.0429075-.1412154.0467945c-2.1536028.7143429-4.2230085 1.433032-6.2036946 2.1561947l-.1311722.0476178-.0246278.0093422c-.7610511.2786111-1.5089243.5578863-2.2433613.8378329-.0738036.0281319-.1471992.0561665-.2204598.0842077l.2204598-.0842077c-1.2184252.4644291-2.3998705.9307059-3.5431563 1.3988638l-.9698546.4009611-.0525344.0224677-.1754656.0735323-.1223918.0516794c-.0127517.005379-.0254984.0107582-.03824.0161376z"/></svg>