<svg height="960" viewBox="0 0 960 960" width="960" xmlns="http://www.w3.org/2000/svg"><path d="m609.3912 78c191.785621.5596607 344.527097 179.425049 347.562748 398.353679l.046052 6.646321c0 217.878101-148.284084 397.677124-336.902457 404.781934l-4.264543.120066-.208893.015153c-1.105599.071206-2.223065.097265-3.350533.083367l-.677667-.025171-.065907-.002349-2.24.02752h-.79c-8.510476 0-16.988606-.355023-25.422581-1.060903l1.046581.083383-230.056-8.074-1.684752-.033755c-2.141595-.051046-4.280898-.125133-6.417709-.222209l-1.763539-.087036-2.355862-.091406c-1.011361-.039467-2.013276-.116401-3.004367-.229477l-.266771-.033117-3.10561-.221673c-177.170785-14.318604-313.6875663-184.234193-316.4274042-388.758691l-.0419858-6.271636c0-217.344862 150.803003-396 340.5-396 4.997888 0 9.984574.1252227 14.957559.3750326l2.071441.1119674 207.353-8.491 1.19487-.0963128c7.067375-.5445241 14.165058-.8425475 21.286118-.8996872zm-.8037 40-5.013363.045586c-.057317.001062-.114631.002142-.171941.003241-168.03113 3.276616-303.392873 165.438265-303.392873 365.001173 0 192.14878 125.490703 349.623728 284.805636 363.98281l1.598588.046171c7.295019.610556 14.660092.921019 22.086453.921019l3.532-.034 1.569612-.0149c143.156192-2.746148 262.608682-120.860668 294.834039-279.18618-32.690505 155.450576-152.304047 271.39758-296.123151 271.39758-169.240791 0-304.9625-160.559669-304.9625-357.1125s135.721709-357.1125 304.9625-357.1125c145.061339 0 265.49716 117.958635 296.949546 275.435251-30.173255-156.245151-145.088306-274.30299-284.490908-282.874762-.109403-.011255-.2199-.01794-.330413-.024556l.330413.024556c-1.463719-.090003-2.930139-.167936-4.399188-.233715l4.068775.209159c-1.720144-.10298-3.444003-.189297-5.171465-.258816l1.10269.049657c-1.46619-.065651-2.934999-.119196-4.406359-.160553l3.303669.110896c-1.721834-.069292-3.447246-.121897-5.176126-.157681l1.872457.046785c-1.501271-.042198-3.005197-.071707-4.511704-.088441l2.639247.041656c-1.831366-.037905-3.666621-.056936-5.505634-.056936zm-116.352554 4.771411-116.098587 4.764927c-5.507285-.356009-11.054046-.536338-16.636359-.536338-165.961567 0-300.5 159.386629-300.5 356 0 190.215526 125.925067 345.587626 284.402088 355.497902l.003814.047114 2.526411.09859c3.074602.161852 6.161217.268968 9.259168.320547l138.161416 4.85701c-124.964252-54.753581-213.343574-196.007876-213.343574-360.771163 0-164.271523 87.852544-305.174178 212.225623-360.278589zm120.077554 23.166089c-157.380443 0-284.9625 150.930407-284.9625 337.1125s127.582057 337.1125 284.9625 337.1125 284.9625-150.930407 284.9625-337.1125-127.582057-337.1125-284.9625-337.1125zm89.6875 111.455734c0 30.763099-25.9908 56.576267-57.954144 58.082952l-52.15 2.458242c-32.455509 1.529885-58.895856-23.801615-58.895856-56.383076 0-32.361104 26.093642-58.816821 58.338246-59.096567l52.15-.452441c32.179186-.279179 58.511754 24.403704 58.511754 55.39089zm-57.700255-35.392358-.637991.000715-52.15.452441c-21.244174.18431-38.511754 17.691494-38.511754 39.09732 0 21.18547 16.920875 37.396723 37.954144 36.405259l52.15-2.458242c21.525434-1.014664 38.895856-18.266369 38.895856-38.105135 0-19.222385-16.354319-34.936585-37.064909-35.38346z"/></svg>