<?xml version="1.0" encoding="UTF-8"?>
<svg width="960px" height="960px" viewBox="0 0 960 960" version="1.1" xmlns="http://www.w3.org/2000/svg" xmlns:xlink="http://www.w3.org/1999/xlink">
    <!-- Generator: Sketch 60.1 (88133) - https://sketch.com -->
    <title>com.qubino/drivers/ZMNHQD/assets/icon</title>
    <desc>Created with Sketch.</desc>
    <g id="com.qubino/drivers/ZMNHQD/assets/icon" stroke="none" stroke-width="1" fill="none" fill-rule="evenodd" stroke-linejoin="round">
        <path d="M741.5,183.68 C741.5,192.898231 738.396887,353.038395 732.190661,664.100492 L357.5,797.68 C361.908608,572.690702 365.22019,403.645226 367.434747,290.543572 C491.849762,254.87437 616.008464,219.277185 740.167165,183.68" id="Path" stroke="#000000" stroke-width="7.5"></path>
        <path d="M816.453575,742.090349 C567.270588,833.480428 378.286063,902.343645 249.5,948.68 C254.521021,693.320067 259.500887,439.791556 264.532197,183.9892 C452.769057,130.209178 641.633544,76.3571333 829.5,22.68 C829.5,36.5768593 825.151192,276.380309 816.453575,742.090349 Z" id="Path" stroke="#000000" stroke-width="7.5"></path>
        <path d="M242.5,173.68 C249.474,177.35 257.548,180.02 264.5,183.68" id="Path" stroke="#000000" stroke-width="7.5"></path>
        <path d="M229.5,936.68 C236.173684,940.683636 242.847368,944.687273 249.5,948.68" id="Path" stroke="#000000" stroke-width="8" stroke-linecap="round"></path>
        <line x1="193.5" y1="187.68" x2="135.5" y2="247.68" id="Path" stroke="#000000" stroke-width="7.5"></line>
        <line x1="240.5" y1="306.68" x2="134.5" y2="248.68" id="Path" stroke="#000000" stroke-width="7.5"></line>
        <line x1="233.5" y1="681.68" x2="131.5" y2="625.68" id="Path" stroke="#000000" stroke-width="7.5"></line>
        <line x1="135.5" y1="247.68" x2="129.5" y2="625.68" id="Path" stroke="#000000" stroke-width="7.5"></line>
        <line x1="242.5" y1="215.68" x2="194.5" y2="187.68" id="Path" stroke="#000000" stroke-width="7.5"></line>
        <line x1="809.5" y1="10.68" x2="243.5" y2="172.68" id="Path" stroke="#000000" stroke-width="7.5"></line>
        <g id="Group-2" transform="translate(130.500000, 269.680000)" fill="#000000" fill-rule="nonzero" stroke="#000000" stroke-linecap="round" stroke-width="4">
            <polyline id="Path" points="4.5 16.7583562 4.5 0.32 4.69745098 0.669315068 110.5 58.8816438 110.5 75.32 4.69745098 17.1076712"></polyline>
            <polyline id="Path" points="3.5 50.2688026 4.53921569 34.9921718 3.69745098 34.32 109.5 92.0249271 109.5 108.32 3.69745098 50.6150729"></polyline>
            <polyline id="Path" points="3.5 83.7583562 3.5 67.32 3.69745098 67.6693151 109.5 125.881644 109.5 142.32 3.69745098 84.1076712"></polyline>
            <polyline id="Path" points="3.5 117.758356 3.5 101.32 3.69745098 101.669315 109.5 159.881644 109.5 176.32 3.69745098 118.107671"></polyline>
            <polyline id="Path" points="1.5 231.758356 1.5 215.32 1.6976 215.669315 105.5 273.881644 105.5 290.32 1.6976 232.107671"></polyline>
            <polyline id="Path" points="0.5 263.758356 0.5 247.32 0.6976 247.669315 104.5 305.881644 104.5 322.32 0.6976 264.107671"></polyline>
            <polyline id="Path" points="-0.5 295.616916 -0.5 279.32 -0.3024 279.666309 103.5 336.023084 103.5 352.32 -0.3024 295.963226"></polyline>
            <polyline id="Path" points="-0.5 326.764444 -0.5 310.32 -0.3024 310.669444 103.5 367.875556 103.5 384.32 -0.3024 327.113889"></polyline>
        </g>
        <path d="M228.5,935.68 C234,680.600811 239.333333,429.211421 244.5,173.68" id="Path" stroke="#000000" stroke-width="7.5"></path>
        <line x1="242.5" y1="173.68" x2="194.5" y2="187.68" id="Path" stroke="#000000" stroke-width="7.5"></line>
        <path d="M810.455662,11 L812.062965,11.2554752 L829,22.3331925 C829,36.2489791 824.645515,276.379039 815.936544,742.723372 C567.501669,833.84422 378.826323,902.601196 249.910507,949 C249.539171,949.128897 242.235669,944.628718 228,935.496654 C229.74769,847.860112 231.477225,760.655553 233.188603,673.566826 L129,625.400823 L134.162518,248.759024 L135.186,248.321 L135,248.169766 L193.662221,187.416119 L193.651929,187.138094 L243.061986,173 L243.806,173.494 L810.455662,11 Z" id="Combined-Shape" stroke="#000000" stroke-width="15"></path>
    </g>
</svg>