<svg height="960" viewBox="0 0 960 960" width="960" xmlns="http://www.w3.org/2000/svg"><g fill="#000" fill-rule="evenodd"><path d="m378.795511 1.89561278 283.944253 7.99800768c136.518488 3.82393274 247.872571 111.14733854 247.872571 241.41490854v457.072072c0 130.266508-111.352473 237.595718-247.863653 241.428462l-283.950532 8.016941c-153.172245 4.350414-282.1260286-105.256708-300.2272252-253.757228-1.4290859-11.724087-2.1490839-23.586998-2.1490839-35.544279v-377.310046c0-164.499086 135.7299231-294.04086318 302.3736701-289.31883822zm-99.054293 55.85304492-.717038.2633268c-75.791135 42.3752685-126.916747 125.1953845-126.916747 221.9943825v391.064069c0 5.522847-4.477153 10-10 10-5.522848 0-10-4.477153-10-10v-391.064069c0-54.371705 15.025293-104.70685 41.027968-146.925624-35.501916 42.833428-56.71356 97.747415-56.71356 158.133708v377.310046c0 10.408697.630217 20.654766 1.855196 30.704376 15.463036 126.857299 125.697016 222.410288 259.385487 218.613255l2.404506-.06758c13.665278-10.178796 18.608715-23.202704 15.626924-40.349992-10.657882-61.289923-29.241099-106.433328-56.543017-133.433532-26.595219-26.301314-74.192797-43.586586-116.06938-45.734744-27.278702-1.399326-43.994875-17.776132-48.545068-46.510992-.403938-1.087665-.624971-2.263171-.624971-3.490302l-.000888-1.699298c-.00044-.048729-.000525-.097396-.000256-.145996l.001144-356.536759c0-141.4807 101.065899-243.5407631 241.189002-239.6103213l283.562285 7.4731949c7.412105.2055948 14.73379.7754124 21.94557 1.6907838-18.70746-5.6625116-38.503848-8.9748673-58.988586-9.5486523l-283.957265-7.9983743c-34.627019-.9811928-67.680532 4.7026656-97.921306 15.8690939zm-85.8297 232.1242753-.000677 356.01958.013434.111221c2.619393 21.563352 12.084726 31.350472 30.181882 32.278808 46.406119 2.380512 98.628664 21.34536 129.108122 51.487989 30.813191 30.472674 50.879373 79.218584 62.183977 144.227587 2.84787 16.377152.283413 30.83439-7.455276 42.989657l253.676809-7.162778c40.965143-1.150155 79.177472-13.252094 111.430927-33.216123-23.091768 9.0078-48.173689 14.290233-74.386397 15.017339l-267.955217 7.477053c-5.520701.150005-10.120929-4.200591-10.274898-9.721292-.153968-5.520701 4.196628-10.120929 9.717329-10.274898l267.956721-7.473131c61.490609-1.70567 116.015893-30.928125 150.195189-74.610442 14.270918-26.855808 22.308892-56.983401 22.308892-88.642902v-457.072072c0-47.010373-17.722536-90.641947-47.256088-125.198149-33.187029-28.827207-77.075298-47.0460681-125.234167-48.3818891l-283.565403-7.4732819c-128.704594-3.6101403-220.645159 89.234825-220.645159 219.617724zm-41.835065 419.296693-.171995-.005468c82.792745 3.175477 139.696782 18.473194 170.925649 46.836243 31.202141 28.338778 48.761131 72.512779 53.079114 132.035176.102194 1.408716-.092614 2.770405-.531332 4.023671l.035685-.263219c-.674471 5.481509-5.664878 9.378383-11.146386 8.703913-63.787928-7.848765-113.69047-26.712509-149.529243-56.822516-36.716401-30.847347-61.04576-71.622205-72.898421-122.006616-.130737-.504794-.222955-1.024163-.273417-1.555009-.005397-.055326-.010329-.110629-.014795-.165892-.00195-.030226-.004187-.060569-.006288-.090948-.086488-1.198674.046862-2.37721.370446-3.488803.362331-1.25445.962779-2.403707 1.747275-3.398723.92712-1.178952 2.122541-2.1562 3.522242-2.827947.050982-.024429.101946-.04847.153138-.07209.028199-.012757.056986-.025811.085856-.038737.975657-.439308 2.03202-.725781 3.138222-.830938.053471-.005216.106922-.009998.160335-.014344.030781-.002026.06213-.004351.093517-.006531.423785-.03108.844377-.034169 1.260398-.011222zm12.569847 20.622621.208289.717106c11.801544 40.065526 32.695843 72.606279 62.748559 97.85512 30.441287 25.575299 72.872747 42.537345 127.439925 50.697432-5.126618-49.414784-20.456998-85.366698-45.659457-108.256373-25.341284-23.015761-73.646466-36.949238-144.737316-41.013285zm238.489864-560.212576c60.793077 0 109.35087 57.287283 109.35087 127.2117 0 69.924418-48.557793 127.211701-109.35087 127.211701-60.793078 0-109.35087-57.287283-109.35087-127.211701 0-69.924417 48.557792-127.2117 109.35087-127.2117zm0 20c-48.946863 0-89.35087 47.667648-89.35087 107.2117s40.404007 107.211701 89.35087 107.211701 89.35087-47.667649 89.35087-107.211701-40.404007-107.2117-89.35087-107.2117z" fill-rule="nonzero"/><circle cx="504.860284" cy="708.374581" r="10.948303"/><circle cx="544.274174" cy="708.374581" r="10.948303"/><circle cx="583.688065" cy="708.374581" r="10.948303"/></g></svg>