<svg height="960" viewBox="0 0 960 960" width="960" xmlns="http://www.w3.org/2000/svg"><path d="m775.40657 18.4271741c78.597524 6.0665789 129.085973 17.1834025 156.764734 37.8238031l.824422.6227306.483776.3738813c14.544881 11.3584679 23.061758 28.7908987 23.061758 47.2729209v118.449601c0 45.812741-6.927346 70.721474-43.121402 160.64324-13.551949 33.668931-25.54298 62.019366-35.982415 85.000598 25.260203 24.756299 41.69279 53.83733 48.556347 86.780873.133155.639113.261005 1.278796.383553 1.91907 6.389044 33.380723-1.201344 64.677803-21.793954 106.354462l-.448508.905675c-.074919.150944-.149927.301895-.22503.452868l-.451829.906201c-7.022931 14.053454-14.998035 28.525903-29.669381 54.298622-16.670623 29.284787-23.537002 41.363851-29.534313 52.185157l-.377706.681927c-.188358.340276-.376037.679633-.563319 1.018573l-.812618 1.47255c-2.525678 4.5826-5.053206 9.222036-8.278984 15.161278-31.607304 58.194785-75.0892 98.64071-128.15489 123.544428-41.240597 19.354204-84.893741 28.260036-134.999908 30.921929-44.168417 2.34645-64.28277 2.825338-81.729335 1.406344-23.067384-1.876156-40.121359-7.646642-56.380185-19.49205-12.111901-8.824156-23.773796-19.014227-34.989106-30.569077-32.402176-8.960815-62.069858-20.507832-88.988955-34.663184-23.605435-12.41287-45.454328-28.035652-65.464943-46.841858l-34.288804-.000739c-14.67197-.000317-28.166268-8.033152-35.160954-20.930479-115.6344958-213.215581-173.91989524-399.107837-173.91989524-558.32946v-106.196862c0-17.348856 7.51271721-33.847728 20.59771074-45.2429655 26.3710183-22.9626835 76.7607734-37.4116111 156.3187675-48.3114563 73.532864-10.0743719 173.466881-16.913205 300.118074-20.5994135 125.559134-3.6544239 224.862084-2.6819083 298.227292 2.9808124zm-160.416453 433.3840919c-31.651717 0-67.145966 27.673158-110.784232 87.513959-11.684645 16.023059-20.491097 30.815856-27.749913 46.018597-1.125383 2.356983-2.147622 4.554221-3.127483 6.736527l-.344173.769842c-3.597417 8.081778-6.711034 16.192467-12.433622 31.70233-.92012 2.49379-1.561919 4.226086-2.212558 5.967751-8.069189 21.600047-14.553766 35.878275-24.614157 52.329974-10.211375 16.698603-18.546599 29.641031-26.984918 42.139036-.12189.180533-3.603827 5.267377-7.340127 10.760467l-.468138.688427c-.390844.574909-.783044 1.152193-1.17309 1.726763l-.466796.687856c-2.791876 4.115421-5.39928 7.984739-6.512 9.709489-1.547162 2.398148-2.954686 4.668515-4.316738 6.970991-1.156816 1.955538-2.288253 3.947135-3.426769 6.035523-11.732257 21.520567-14.449426 43.109726-6.221541 52.830532 8.383277 9.904395 22.324273 25.352272 41.777093 46.286987.23717.06196.475109.122525.713214.182949 11.961262 13.264733 24.36364 24.575679 37.207135 33.932839 19.265242 14.03574 39.440642 14.349538 112.433589 10.471783 72.992946-3.877754 170.640139-24.088217 230.126685-133.613751 59.486547-109.525533 98.087165-158.553427 87.763071-208.106782-.155771-.747665-.318106-1.492862-.487005-2.235593-.005569-.024488-.011037-.048503-.016513-.072516l.016513.072516c-.353497-1.554497-.735748-3.098186-1.146752-4.631068l-.253712-.931667c-.071167-.257358-.143149-.514411-.215947-.771156-.291803-1.029147-.596639-2.053162-.914568-3.072255-.047695-.152877-.09566-.30557-.143919-.458153l.143919.458153c-.322116-1.032519-.657673-2.059986-1.006668-3.082402-.366322-1.07314-.747185-2.140013-1.142834-3.201327-.196913-.528229-.397404-1.054844-.601555-1.580084-.418799-1.077463-.852998-2.149157-1.302598-3.215063-.066078-.156693-.132561-.313396-.199377-.469973-.559619-1.311357-1.142498-2.613691-1.748753-3.907237-.229503-.489749-.462462-.978397-.698775-1.465785-.021964-.045231-.043987-.09058-.066038-.135919l.066038.135919c-.114059-.235245-.2289-.470196-.344521-.704853l.278483.568934c-.146145-.30048-.293566-.600481-.442263-.900003l.16378.331069c-.296942-.602651-.599035-1.203365-.906281-1.802143-.244601-.476596-.492426-.951978-.743516-1.426134-.072814-.137605-.145931-.275057-.219322-.412405l.219322.412405c-.340995-.64393-.68801-1.285596-1.041045-1.925-.083619-.151572-.167718-.303151-.252157-.454603-.425183-.762474-.858514-1.521085-1.300421-2.276471-.031463-.053938-.063062-.107863-.094705-.161771l.094705.161771c-.127055-.217187-.25482-.434107-.383294-.650761l.288589.48899c-.1611-.274456-.323332-.548487-.486699-.822091l.19811.333101c-.15424-.260106-.309503-.519829-.465787-.779167l.267677.446066c-.333354-.558298-.671427-1.114822-1.01422-1.669573-.123215-.199208-.246937-.398213-.371268-.59699l.371268.59699c-.19626-.317612-.394066-.634642-.59342-.951091l.222152.354101c-.537287-.858998-1.085941-1.713723-1.645964-2.564174-.074056-.112703-.148415-.225248-.222973-.337719l.222973.337719c-.138894-.210925-.278488-.421587-.418781-.631987l.195808.294268c-.374622-.565118-.754277-1.128345-1.138965-1.68968-.076471-.111309-.153025-.22265-.229778-.333918l.229778.333918c-.203657-.297175-.408724-.59382-.615201-.889934l.385423.556016c-.18704-.271149-.375258-.541855-.564653-.812119l.17923.256103c-.195133-.279846-.391527-.559218-.58918-.838117l.40995.582014c-.875187-1.248878-1.775518-2.488304-2.700991-3.718278-.031537-.04229-.062882-.083899-.094255-.125498l.094255.125498c-.35929-.477504-.72237-.953583-1.089239-1.428238-.113397-.147128-.227269-.293854-.341504-.440443l.341504.440443c-.203166-.262856-.407495-.525276-.612985-.787258l.271481.346815c-.194107-.249084-.389261-.497774-.585463-.74607l.313982.399255c-.294506-.375469-.5914-.750042-.89068-1.123717l.576698.724462c-.214245-.271131-.42974-.541793-.646483-.811985l.069785.087523c-.176492-.220364-.353815-.440416-.531967-.660156l.462182.572633c-.236561-.294897-.474609-.589234-.714145-.883012l.251963.310379c-.206019-.254111-.413148-.507805-.621387-.761082l.369424.450703c-.218175-.26758-.437584-.534696-.658227-.801349l.288803.350646c-.238368-.289922-.478191-.579297-.719469-.868125l.430666.517479c-.210031-.253826-.421179-.507232-.633447-.760218l.202781.242739c-.212702-.254621-.426535-.508818-.641498-.762589l.438717.51985c-.255394-.304386-.512408-.608164-.771041-.911334l.332324.391484c-.207644-.24513-.416342-.489863-.626096-.7342l.293772.342716c-.214973-.251991-.431064-.503562-.648274-.754712l.354502.411996c-.255695-.297855-.512958-.595119-.771789-.891795l.417287.479799c-.209276-.241978-.419591-.483565-.630943-.724761l.213656.244962c-.264437-.303102-.530511-.605589-.798221-.907461l.584565.662499c-.237754-.271326-.476822-.542158-.717203-.812496l.132638.149997c-.889263-1.002742-1.79658-1.998696-2.72195-2.987862-.132626-.14251-.265946-.28449-.399639-.426329l.399639.426329c-.529624-.566136-1.06516-1.130049-1.606611-1.691738-.066746-.070046-.13403-.139719-.201404-.209358l.201404.209358c-1.268769-1.316194-2.57001-2.620179-3.903722-3.911955-.049345-.048768-.099382-.097173-.149464-.145561l.149464.145561c-.513726-.497572-1.032269-.993333-1.55563-1.487282-.07976-.076325-.160084-.151991-.240522-.227614l.240522.227614c-.802771-.757658-1.616876-1.511053-2.442318-2.260186-.078992-.072854-.159064-.145392-.239241-.217889l.239241.217889c-5.017689-4.553831-10.454233-8.950179-16.309635-13.189035-.156737-.115524-.315147-.229876-.473862-.344113l-.131404-.798608c-10.019457-7.114176-18.999651-10.855871-28.52697-12.330346-1.480093-.229063-2.868568-.414004-4.251049-.553352l-.518317-.050116c-.86395-.079955-1.72974-.142028-2.618274-.185861l-.536017-.024108c-.808621-.03287-1.63905-.050907-2.506528-.053849l-.583975.000277c-5.799676.024774-13.337046.700742-26.905409 2.101634-14.360618 1.48269-23.90554 2.137989-35.37903 2.137989-22.258066 0-38.615834-2.684476-63.100897-8.979917-.554734-.14263-2.268277-.586244-4.079953-1.054955l-1.022426-.264479c-1.584788-.409871-3.092443-.799353-3.812396-.983622-3.322222-.85031-5.992082-1.509976-8.544137-2.103703-11.495357-2.674358-20.591004-3.943154-30.23399-3.943154zm147.114108 49.87606c11.012808.024034 21.224981.167862 33.960312.435726 2.207096.046422 10.761819.234486 12.757782.275733 4.283284.088515 7.291993.136963 9.749271.152922l3.713351.011289.027914.000124c8.871479.051735 14.641694.52455 20.151865 1.959215 6.206584 1.615987 11.487674 4.442059 16.071659 8.770821 1.475031.785744 2.803119 1.944448 3.868475 3.509185l1.15953 1.714726c11.050549 16.457334 17.783859 30.059414 20.806936 44.544701.096526.462511.189169.925244.277936 1.38823 4.737576 24.710007-1.209955 49.191241-18.514201 84.152812l-.420027.846631c-.070202.14117-.140507.282382-.210923.423648l-.423878.848361c-.496201.99077-.998507 1.985526-1.509337 2.988832l-.439999.862178c-6.043385 11.814614-13.3514 24.981468-25.814251 46.837153-16.945565 29.716872-23.410359 41.072375-29.470365 52.021516l-.526182.951513c-.087609.15856-.175194.317144-.262786.475807l-.525882.953359c-2.281312 4.139098-4.608821 8.405236-7.521614 13.759048-27.453404 50.460271-64.697202 85.044414-110.270462 106.395365-35.853297 16.797174-74.379187 24.643537-119.184597 27.019756l-6.185753.324141c-37.376758 1.931944-55.64101 2.267936-70.066422.947382-16.345226-1.496301-27.398562-5.346399-38.22247-13.2187-13.122122-9.543807-20.109545-27.568075-21.982086-53.673841-.322862-.915019-.508816-1.909427-.540861-2.964505l-.055547-1.831134c-.344138-12.910259 1.199359-23.45212 4.455759-35.932972.603157-2.311731 1.903247-5.028078 5.599568-12.195161.245679-.476366 3.162118-6.08273 6.262883-12.05695l.372818-.718367.747124-1.440014c1.927704-3.716236 3.811568-7.354208 5.059007-9.778962 14.731801-28.63548 29.945258-59.515176 48.091207-98.286429 22.153079-47.333025 58.952322-87.578986 103.578348-117.450662 37.70556-25.239268 78.632508-41.005155 106.833688-42.144097 14.500473-.585621 29.088764-.85931 44.090758-.87838zm-.021802 19.999992h-4.476933c-14.740766.018746-29.071376.2876-43.296406.862097-24.096307.973162-61.640432 15.435917-96.515577 38.780567-41.75554 27.950236-76.082023 65.491833-96.589311 109.308405-18.255636 39.005613-33.578763 70.107912-48.420927 98.957914-1.322976 2.571584-3.347923 6.481203-5.383592 10.404951l-.370086.713269c-3.267418 6.296717-6.454431 12.422912-6.69739 12.894005-1.51157 2.930901-2.522463 4.935913-3.220373 6.394094-.343131.716923-.59906 1.278328-.768115 1.680034-.045067.107088-.069247.1668-.068985.149903l.001998-.015052-.266381 1.035424c-2.539239 9.993946-3.726138 18.321502-3.524096 28.307494.210626.671931.331394 1.392895.374019 2.146527 1.260096 22.279022 6.30658 35.973818 13.983633 41.55739 14.514993 10.556852 29.184873 11.899786 95.485604 8.472811l6.17235-.323439c42.440096-2.250778 78.557465-9.606611 111.752568-25.158428 41.754078-19.561675 75.795845-51.172449 101.187186-97.84258 3.162442-5.812676 5.640701-10.353874 8.110864-14.828431l.794533-1.437437c6.102035-11.02548 12.594794-22.430189 29.595837-52.24435 12.600595-22.097241 19.835966-35.14756 25.784925-46.827364l.422793-.832045c.420715-.829921.835363-1.653782 1.245429-2.47438l.408594-.819615c.135725-.272912.270997-.545564.40587-.818062 15.547387-31.412007 20.542961-51.974793 16.796561-71.515073-.068272-.356091-.139558-.712149-.213869-1.068217-2.368893-11.350717-7.987795-22.762679-17.55693-37.059818-.543487-.383597-1.048162-.827662-1.507787-1.32388-4.419628-4.771495-9.59631-6.119709-23.528005-6.201201l-3.723942-.01138c-2.607535-.016872-5.697011-.06662-10.067379-.156935-2.012476-.041588-10.572168-.229761-12.765136-.275886-9.465238-.199084-17.510461-.328837-25.51689-.391259l-2.287689-.016005c-1.907516-.011813-3.82029-.01982-5.756965-.024048zm-334.945219-151.741407c-83.2269 65.134204-125.463893 158.394936-138.28007 212.99846-12.816178 54.603524-13.952621 121.250579-20.652062 143.963712-4.466293 15.14209-9.25239 29.048957-14.358289 41.720603 1.68978 1.867356 3.39504 3.705206 5.115779 5.51355l.875231.915854.799417.829685c.031264.03232.062532.06463.093805.096931l-.893222-.926616c.857274.893222 1.718367 1.779165 2.583279 2.657828.220251.223753.440753.447037.661503.66985l-.661503-.66985c1.024212 1.040497 2.05378 2.070787 3.088703 3.09087.215391.212302.430903.424054.646647.635363l-.646647-.635363c.723107.712738 1.448828 1.420493 2.177163 2.123264.863363.833063 1.730751 1.659455 2.601816 2.478839.966052.908731 1.936187 1.808442 2.910839 2.699541.180914.165405.361979.330509.5432.495317l-.5432-.495317c.650938.595136 1.303892 1.186431 1.95886 1.773884.256147.229741.512258.45859.768676.686852l-.768676-.686852c.323968.290572.648428.580205.973382.868898l-.204706-.182046c.348329.310081.697225.61908 1.046688.926998l-.841982-.744952c.857807.762086 1.719049 1.517624 2.583727 2.266612.137468.119075.274583.237605.411784.355971l-.411784-.355971c.235756.204214.471768.40794.708036.61118 1.008659.867654 2.021282 1.725859 3.038553 2.575202.14672.1225.293517.244799.440411.366915.60645.504148 1.214131 1.004816 1.823457 1.502348.145775.119029.291641.237876.437601.356543l-.437601-.356543c.735158.600275 1.472711 1.195986 2.212659 1.78713.530661.423944 1.062393.845413 1.595355 1.264536.628526.494272 1.258647.98519 1.890479 1.472846.203314.15692.406804.313501.610472.469745l-.610472-.469745c.258937.199851.518162.399153.777675.597908l-.167203-.128163c1.406116 1.078703 2.820679 2.141303 4.24369 3.1878.678025.498627 1.357927.993568 2.039746 1.484854.524202.377717 1.050089.753664 1.577112 1.127446.269789.191343.53993.382158.810369.572404l1.104562.772722c.311659.216817.623711.432884.936157.648202.494442.340737.989578.679401 1.485697 1.01619l1.124317.758902c1.506412 1.011015 3.021835 2.004852 4.54627 2.981512.838633.537287 1.680201 1.069506 2.524498 1.596523.760507.474719 1.523918.945637 2.289546 1.412328.151583.092398.303277.184644.455058.276725.866703.525802 1.736188 1.046168 2.608509 1.561128.704995.41618 1.411222.828472 2.119297 1.23724l1.211942.695176c.335846.191408.672105.382028 1.008778.57186.410656.231548.821816.46186 1.233591.691.907834.505184 1.818588 1.004634 2.732329 1.498388.838439.453032 1.672859.897834 2.509756 1.337914 16.591708 8.724716 34.437496 16.390826 53.537366 22.99833-8.242633-9.095511-14.76874-16.483162-19.585434-22.173829-15.05026-17.781078-11.330297-47.337901 3.927213-75.324867 1.250357-2.293538 2.497282-4.488421 3.773193-6.645281 1.498674-2.533431 3.041692-5.022353 4.724335-7.6305 1.206984-1.870862 3.981779-5.988892 6.899413-10.289839l.461659-.680316c.385358-.567696.771891-1.136677 1.156352-1.702241l.460151-.676737c3.746389-5.508372 7.169118-10.507971 7.212963-10.57291 8.273237-12.2535 16.446104-24.943833 26.497958-41.381571 9.28001-15.175546 15.280414-28.387685 22.941399-48.895029.639196-1.711033 1.272817-3.421259 2.184365-5.891815 5.323931-14.429388 8.484859-22.714165 11.858458-30.489977l.356004-.81687c.059499-.135913.119089-.27173.178784-.407481l.359514-.81397.362626-.813861c1.093157-2.442884 2.236616-4.904029 3.505191-7.560912 7.787231-16.309444 17.225029-32.162755 29.638575-49.185351 47.075217-64.553864 87.062148-95.729749 126.943824-95.729749 11.360191 0 21.900909 1.470376 34.765898 4.463374 2.715401.63173 5.518762 1.324381 8.971299 2.208045 1.734044.443821 7.822128 2.022109 8.935993 2.308498 22.999317 5.913436 37.845912 8.349913 58.120609 8.349913 10.644781 0 19.58972-.614108 33.32501-2.032235 12.027693-1.241822 15.094373-1.555663 18.459375-1.767501l.441366-.02712c.839762-.050392 1.72207-.096771 2.785402-.151492 7.916724-.407405 14.709847-.186043 21.346286.841031 4.759661.736619 9.402615 1.894132 14.006659 3.521473 1.271888-2.495095 2.522899-4.967463 3.754771-7.4173-6.033145-22.530907-14.046017-43.293321-24.038901-62.28664-22.82572-43.384489-35.160757-61.579821-83.513942-77.918646-48.353184-16.338825-201.985838 2.909042-285.212738 68.043245zm225.200326 382.238865c5.785184 5.785184 6.661999 14.171236 3.936416 22.843546-2.228948 7.092108-6.890367 14.393429-13.167656 20.670718-6.27729 6.277289-13.57861 10.938708-20.670718 13.167656-8.67231 2.725583-17.058362 1.848768-22.843546-3.936416l-1.027521-1.114636c-4.853193-5.719922-5.464129-13.598619-2.908895-21.728909 2.228948-7.092109 6.890367-14.393429 13.167656-20.670718 6.27729-6.27729 13.57861-10.938708 20.670719-13.167657 8.67231-2.725583 17.058361-1.848767 22.843545 3.936416zm-14.645454 14.645454c-.608842.070479-1.353777.231559-2.201559.498005-3.853478 1.211092-8.424751 4.129553-12.525115 8.229917s-7.018825 8.671637-8.229918 12.525115c-.266445.847782-.427525 1.592718-.498004 2.201559.608843-.070479 1.353778-.231559 2.20156-.498004 3.853477-1.211093 8.42475-4.129554 12.525114-8.229918 4.100364-4.100363 7.018825-8.671637 8.229918-12.525114.266445-.847782.427525-1.592717.498004-2.20156zm-62.572179-589.376387c-195.478736 2.593691-373.806331 17.4197-534.9759988 44.466955l.0008276 13.876261c0 151.662907 56.3605707 331.41622 169.0817122 539.259939l13.10851.000273c-.001554-1.653243.407546-3.329834 1.270905-4.875878 12.251864-21.939784 20.598014-44.493693 25.065501-67.6922.047637-.247365.094577-.492372.140976-.736059l.092121-.485924c.015249-.080797.030449-.161524.045605-.24222l.135408-.726467c1.360533-7.357931 2.508099-15.415238 7.769656-53.188469 4.270781-30.660351 7.479477-52.645889 10.948902-74.145652l.435132-2.685533c.485201-2.98243.976495-5.962072 1.477426-8.960865 9.000191-53.879121 18.194853-94.544584 28.389323-120.957145 15.860247-41.091857 36.196564-75.403021 65.793255-106.148182 36.306216-37.715042 84.842976-67.639112 148.526278-89.084947 63.193551-21.280907 113.99828-33.28631 160.037375-38.63526 36.003052-4.182934 62.52339-4.389047 113.648267-2.324936 21.580614.871294 33.286126 1.515509 43.763229 2.578257l.783614.080501.779819.082131.776833.083821c.129269.014115.258447.028302.387551.042564 14.230998 1.572047 24.893764 3.9508 33.635731 7.795459 19.639481 8.637312 29.293835 24.556476 32.742644 52.183249 4.132447 33.103075-15.228798 91.65846-57.870561 177.406307.397809 1.630905.786553 3.269726 1.165594 4.916657 9.891878-21.972767 21.237869-48.859261 34.037411-80.658887 33.927641-84.291008 40.228317-105.888315 40.228317-145.707482l-.000534-14.343606-.21961-.155375c-32.894816-22.678421-147.940367-33.58155-341.201219-31.017287zm205.708249 381.94878c26.711834 26.711834 8.788506 83.39957-36.085757 128.273832-44.874262 44.874263-101.561998 62.797591-128.273832 36.085757l-4.489718-5.349546c-19.876423-28.402108-1.494146-80.854665 40.575475-122.924286 44.874262-44.874262 101.561999-62.797591 128.273832-36.085757zm-114.131696 50.227893c-38.088547 38.088546-52.477506 83.597812-36.085757 99.989561l3.405753 2.71447c18.645666 11.786082 60.875795-3.092215 96.583808-38.800227 38.088546-38.088547 52.477505-83.597813 36.085757-99.989561-16.391749-16.391749-61.901015-2.00279-99.989561 36.085757zm3.952267 7.341567c20.454483-20.454483 45.551011-28.521224 56.054664-18.01757 10.503654 10.503653 2.436912 35.600181-18.01757 56.054664-20.454483 20.454483-45.551011 28.521224-56.054665 18.01757-10.503653-10.503653-2.436912-35.600181 18.017571-56.054664zm4.122224-390.613246c-44.56619 5.177824-94.026257 16.865476-155.962566 37.722998-60.713423 20.445706-106.482958 48.663715-140.500528 84.001303-27.576831 28.646922-46.577828 60.70515-61.543517 99.479324-4.084801 10.583195-8.060123 23.877169-11.95884 39.73285 3.038349-5.710107 6.226775-11.405253 9.557944-17.056804 26.225128-44.492671 59.907343-84.315483 100.447592-116.042687 41.133799-32.191722 100.145269-55.716666 164.108413-68.439629 56.705537-11.279347 110.996924-12.544913 139.83298-2.80104 26.684525 9.016858 44.583858 19.09693 59.088938 33.642114 12.456754 12.491194 21.029052 25.984568 35.722273 53.911745 7.472426 14.202721 13.89474 29.287578 19.265311 45.253212 34.123583-71.448666 49.503911-120.651057 46.305599-146.271222-2.648291-21.214206-8.512585-30.8839-20.948287-36.353039-12.301242-5.410004-28.434544-7.192191-72.881996-8.986709-50.16119-2.025203-75.817412-1.825806-110.533316 2.207584zm-196.427948-170.9294068c-250.692361 7.2964516-394.4694653 26.9951744-431.3329843 59.0942508-4.3610439 3.797872-6.8652829 9.297496-6.8652829 15.080448l-.0020264 72.039298c161.3537546-26.873194 339.5888236-41.598853 534.7118526-44.187824 181.790464-2.412069 294.684553 6.606512 341.692918 28.350218l-.00621-81.285311c0-6.2244291-2.900247-12.0934842-7.844988-15.8741028-38.372854-29.3781476-181.823947-40.4504733-430.353279-33.216977z"/></svg>