<svg height="960" viewBox="0 0 960 960" width="960" xmlns="http://www.w3.org/2000/svg"><path d="m687.254512 97.5064409c46.107489 47.6700061 78.198164 94.5723941 95.871904 141.1070971l.34657.921462.386397.810897c.855429 1.814873 1.664895 3.612493 2.432856 5.409506l.568258 1.347905c.705024 1.695626 3.49389 7.780101 6.541401 14.42904l.366826.800337c.122611.26752.24552.535697.368608.804288l1.085418 2.36927.235736.514861.469549 1.025954c2.417483 5.283824 4.683442 10.264285 5.890976 13.041123 14.07484 32.366448 21.934282 60.124169 22.181006 89.113146.201495 24.822459-5.679241 48.203665-18.549998 69.193424l-.442033.714249-.191564.521862c-11.177621 30.152426-26.412504 62.050663-44.785116 92.203605l-.88932 1.451533.002 231.759.023144.017631c8.242502 5.964962 15.399878 12.327338 21.40264 19.148281l.596425.683625c13.538914 15.654325 21.095921 33.851104 20.407308 53.570416-.94443 27.044933-16.57084 49.235699-41.51876 66.398274-19.217495 13.220409-44.816011 24.02144-75.709036 32.52713-59.258027 16.315347-137.231485 23.888081-219.630686 21.009505-69.592121-2.431167-135.584195-12.077939-189.445672-27.370613l-1.134363-.325249-.633836.15576c-8.503979 2.075142-17.448269 1.302243-25.462808-2.190535l-.544989-.242358-69.018586-31.310632c-12.519783-5.679662-21.117114-17.313383-23.058294-30.661631l-.006487-.049604-.043909-.052261c-12.082032-14.849961-18.805526-31.75076-18.346079-50.35662l.022213-.745143c.582654-16.685009 6.867443-31.672435 17.500872-44.722093l.449903-.548883.003-249.351-.298329-.925441c-13.148864-41.340567-14.662109-89.396431-7.337705-140.948884l.239333-1.664191c5.961965-40.962789 17.559485-82.540076 29.44591-110.692586 11.232643-26.604055 48.154635-73.675565 95.093243-123.820745 48.751532-52.081952 98.007254-96.3159006 133.682112-117.9216313 1.104817-.6691092 2.229088-1.3030241 3.371624-1.9015435l.498812-.2559782 1.038724-.5984131c6.142941-3.4973055 12.681654-6.6812808 19.614643-9.562727l1.391855-.5722587c76.065325-30.9372149 179.287174 6.9273442 255.518304 85.7418397zm69.198794 754.4319631-.162553.145344c-15.802995 14.810916-43.236039 26.943171-79.857141 36.213645-55.99815 14.17569-130.884481 20.738097-210.348041 17.963168-59.866598-2.090587-116.900129-9.281742-165.107178-20.533082l.02162 1.911976c.025632 2.404232-.377995 4.731071-1.146768 6.897931-.142746.401078-.297524.796675-.464408 1.186267 46.951763 11.97233 104.258333 20.032095 166.289511 22.198272 144.571341 5.048542 265.775146-23.627942 290.774958-65.983521zm-546.202842-479.731513-.130196.069073c-10.080179 5.550856-15.120268 21.255213-15.120268 47.11307v441.300334l63.005931 28.584294c-.07622-.480206-.118315-.971934-.123699-1.472653-2.751775-255.940924-5.30862-398.710176-7.619305-426.814289l-.068915-.806023c.00579.03737-.332493-4.329822-.711954-8.936305l-.074684-.903167-.055828-.670383c-.232961-2.788376-.468398-5.491023-.639157-7.184475-.852762-8.457046-1.967512-16.079202-3.512082-23.223258-5.110613-23.637965-13.920286-37.269958-26.598156-39.134182-4.291484-.631043-7.543014-3.900593-8.351687-7.922036zm54.756905 44.04232-.258728-1.212521c1.721966 7.964561 2.940582 16.296907 3.862841 25.44316.168565 1.671698.39192 4.21148.614804 6.858168l.055679.663458.108041 1.299562c.357198 4.32148.677052 8.429381.72078 9.03458l.004511.064945.070358.829476c2.382362 28.89798 4.930426 171.185474 7.696012 428.35595.003741.351521-.010698.699-.042445 1.041543l3.160778-.772336-.013103-1.228286-.020611-1.892229c-.019031-1.758862-.038052-3.512331-.057064-5.260405-.019462-1.789465-.0389-3.572058-.058328-5.349007l.058328 5.349007c-.031389-2.886151-.062752-5.757598-.094088-8.61434-.031398-2.862424-.062721-5.705674-.094017-8.534208-.005713-.516225-.0115-1.03885-.017287-1.560972l.017287 1.560972c-.012164-1.099367-.024323-2.196511-.036479-3.291431l.019192 1.730459c-.069263-6.24981-.138396-12.427494-.207401-18.53305l-.080854-7.127622c-.0648-5.68939-.129484-11.314979-.194053-16.876767-.026495-2.278532-.053019-4.553706-.079523-6.818101-.011128-.955364-.022232-1.902636-.033333-2.848015l.033333 2.848015c-.064957-5.549679-.1298-11.034617-.194529-16.454813-.086444-7.248642-.172694-14.374885-.258734-21.385563-.07028-5.70864-.140293-11.345079-.210172-16.904764-.009847-.807471-.019902-1.606585-.029955-2.404107l.029955 2.404107c-.043432-3.455465-.086812-6.88128-.130141-10.277445-.0163-1.308415-.032972-2.612324-.049636-3.911835-.446842-34.788146-.887908-66.429056-1.323729-94.915077-.084699-5.502597-.169024-10.887328-.253235-16.154257-.02908-2.109786-.06253-4.201813-.095946-6.274938-.031257-1.939151-.062432-3.858625-.093577-5.761615-.040405-2.468814-.080868-4.916353-.12128-7.336001-.128266-7.679689-.255955-15.07464-.383135-22.188926-.092564-5.17798-.184932-10.211154-.27703-15.095419-.079594-4.221101-.158958-8.329571-.238121-12.326899-.038902-1.964397-.077784-3.903331-.116618-5.815386-.063248-3.114133-.126255-6.151645-.189133-9.118109-.036149-1.705463-.072289-3.388972-.108386-5.048954-.110178-5.066558-.219861-9.909851-.329149-14.534353-.0274-1.159443-.054855-2.308455-.082284-3.443634-.049525-2.049499-.098899-4.051214-.148192-6.00796-.021644-.859196-.043424-1.715671-.065188-2.563354-.074934-2.918423-.149547-5.727795-.223971-8.433315-.055012-1.999949-.11009-3.94895-.165064-5.84086-.0824-2.835681-.164511-5.541309-.246389-8.11885l-.015812-.49627c-.033533-1.049261-.067028-2.077023-.100483-3.083284-.052299-1.57296-.104397-3.090404-.1564-4.55552-.043378-1.222191-.086798-2.410817-.130151-3.562852-.032142-.854039-.064116-1.684675-.096055-2.495361-.09498-2.410996-.189782-4.648664-.284263-6.709383-.048023-1.047231-.095659-2.04269-.143214-2.993013-.062776-1.254592-.125536-2.432766-.188153-3.531965-.089466-1.570423-.178572-2.978674-.267386-4.225951-.054692-.767932-.109074-1.472455-.163346-2.11638-.018113-.214793-.035757-.417751-.053389-.614295-.763261-8.507917-2.708515-25.36836-8.011982-42.171335zm35.410915 330.455439-1.059752.198566c.459003 36.059591.92407 75.458131 1.395714 118.2104 47.852859 11.594999 105.408091 19.042189 166.029315 21.159129 77.684597 2.712806 150.714323-3.686904 204.741958-17.363767 50.959491-12.900175 79.586143-31.133509 80.165802-47.732751.08068-2.310373.938945-4.410261 2.314496-6.05693-1.741673-2.486843-3.800503-4.946385-6.154503-7.374668-7.100236-7.19478-16.783906-14.112114-28.706515-20.627861l.000855-.207298c-21.242434-11.676129-49.672449-22.070916-83.274031-30.474891l-.004333.325393c-46.399048-11.569623-102.615638-19.346107-163.363126-21.468291-64.064379-2.238058-123.540124 2.14885-172.08588 11.412969zm418.723613-144.15574-2.816724 159.297926c-.006811.385078-.035301.764687-.084287 1.137683.979231.46406 1.946989.930829 2.904612 1.400179zm-83.115645 36.006992-.162355.108008.003518 97.172285c17.391297 4.194732 33.674878 8.942025 48.582639 14.188333 4.116906 1.448813 8.119165 2.932248 12.003122 4.449472l3.061255-173.074955c-19.357344 22.359085-40.536788 41.643406-63.488179 57.156857zm-40.161266 46.558098-.101499.051351c-12.349154 6.196909-24.882201 11.776773-37.520679 16.700282l-.224822.086367 1.256329.157166c12.115172 1.533064 23.986352 3.294396 35.559091 5.274665l1.03258.177169zm-227.423079-579.521286-1.926185 1.766411c-64.567527 59.294059-136.337923 140.333284-151.642474 172.409711-.354605.754612-.680934 1.484189-.977981 2.187732-7.091939 16.796966-16.683168 46.182614-23.280729 80.572506l.226512-.244664c7.596906-8.14906 17.596198-12.288656 28.773722-12.269383l.524804.00395c3.679609.048981 7.484013.545982 11.369966 1.496281 13.263239 3.243488 24.424098 10.794394 33.397225 21.637806 7.183239 8.680454 12.807743 19.245437 17.218446 31.357246 6.200372 17.026248 9.421082 34.830853 11.034495 52.815245 1.455766 16.227118 2.943707 72.509595 4.501551 169.778691.093957 5.841779.187944 11.833842.282176 17.973655 4.093398 2.76834 8.463811 5.717316 13.134847 8.879624 88.308982 59.785479 214.612323 34.89314 313.863475-32.158658 3.709998-2.506389 7.350311-5.106585 10.921302-7.792066l.002003.094611c53.113116-40.008771 90.875787-98.892853 114.487669-148.552915l-.246795.164528c-.750905.497837-1.510062.99199-2.277493 1.482435-24.95287 15.946704-54.699819 21.375545-87.232236 17.401726-28.287285-3.455278-58.272697-13.988767-87.951703-30.151026-54.13431-29.479853-103.488557-75.939663-124.072875-116.53917l-.474771-.947728-64.904139-123.462509c-.04724-.089861-.093795-.180079-.139659-.270646l-.135522-.272741-.570179-1.169766-.046861-.096797c-3.504351-7.288696-6.375247-14.865584-8.580815-22.646885-8.979359-31.679407-10.864214-59.62946-5.277776-83.447204zm120.689159-64.5919035-1.778619.0145672c-14.446688.2175541-28.117558 2.7468412-40.546242 7.8018236-6.61127 2.6889293-12.639416 5.6586411-18.106341 8.9013327-.742119.3461042-1.461651.7296878-2.158045 1.1514442-2.214947 1.3414364-4.490527 2.7851232-6.821102 4.3244829-35.927108 26.2220084-41.822994 67.2454859-26.759062 120.3914219 1.892899 6.678193 4.356688 13.180352 7.363727 19.434689l.57018 1.169766 64.991774 123.62861c35.539681 71.927784 184.262527 178.064923 271.171119 122.523994 14.652005-9.3637 25.168727-19.830572 32.451879-30.945644.179851-.521032.360515-1.036854.538892-1.549493 33.919922-54.566567-8.023966-124.021522-21.093476-155.470237-1.013268-2.438193-2.116579-4.836377-3.280383-7.205502-15.305839-41.696072-44.660039-84.992071-88.062602-129.887997-50.639132-52.3814854-114.692089-84.0986251-168.481699-84.2832585zm149.465661 249.2956605.296803.023494c4.338714.264576 8.767548.928298 13.237716 1.982099 19.04111 4.488769 38.162576 15.882342 53.870423 32.148294 15.707846 16.265951 26.42715 35.773398 30.248659 54.959565 4.273139 21.453611-.265027 41.661246-14.409493 55.320398-14.144465 13.659152-34.49817 17.489317-55.789582 12.47006-19.04111-4.488768-38.162576-15.882342-53.870422-32.148293-15.707847-16.265952-26.427151-35.773399-30.248659-54.959565-.89736-4.505259-1.406141-8.95557-1.51898-13.301826l-.013044-.294443c-.535193-15.130332 4.085058-29.471658 14.612678-40.394131.177192-.182594.35498-.364731.534393-.545775.035814-.036681.071706-.07274.107664-.108761.22626-.226502.455233-.45186.686781-.675463.22664-.218864.454875-.435204.684682-.649025l-.684682.649025c.271501-.262185.545017-.52069.820511-.775527.179315-.165036.359138-.328733.539896-.490913 11.285112-10.151419 25.785303-14.272608 40.894656-13.209213zm79.067856 100.628592-.089527.3536c-2.355788 9.135976-6.999212 17.506763-14.13469 24.397414-7.227374 6.979395-15.883104 11.350694-25.232127 13.352116 11.752403 1.219189 22.321251-1.521017 29.739429-8.684668 7.4182-7.163672 10.52558-17.630491 9.716915-29.418462zm-83.765726-80.720488-.370413.004053c-8.302904.203234-15.759827 2.613629-21.578332 7.417995-.02239.016526-.043991.034461-.065571.052429l.065571-.052429c-.178643.147506-.355742.29727-.531274.449295l.465703-.396866c-.195456.162747-.389133.328215-.580995.496411l.115292-.099545c-.174046.150739-.346551.303702-.517493.458894l.402201-.359349c-.184244.161518-.366815.325551-.547682.492104l.145481-.132755c-.224894.204174-.447083.412206-.666514.624108l-.517907.51235c-.036527.037019-.072945.074117-.109252.111296-.128809.132367-.256761.266013-.383316.400702l.383316-.400702c-.176104.18033-.34962.362538-.520553.54659l.137237-.145888c-5.389135 5.735499-8.246217 13.364935-8.750107 21.990339-.724751 14.96645 6.172818 32.439979 19.849836 46.602946 21.901506 22.679673 52.893749 28.281812 69.223114 12.512728 16.329364-15.769084 11.812251-46.93796-10.089254-69.617633-13.578934-14.061397-30.652347-21.55819-45.559088-21.467073zm-4.427221-204.418156c26.499831 25.136873 42.666651 57.466373 45.879583 89.648326 3.213178 32.184424-6.896202 61.406017-28.624556 79.328852-42.423239 34.993204-115.612225 17.569024-172.108692-36.021678-56.876981-53.951644-71.299861-120.987677-27.747591-156.9121726 44.609698-36.7967252 129.339078-26.5660884 182.601256 23.9566726zm-169.874889-8.5281416c-15.736674 12.9805426-21.282634 31.9739566-16.377821 54.7710126 5.059363 23.515389 20.976866 49.25999 45.163103 72.202264 50.030878 47.457655 112.58625 62.350279 145.618266 35.103512 34.717674-28.637196 28.087944-95.043103-18.292717-139.038282-23.139973-21.9498214-53.278933-35.7674797-83.826466-39.4559372-29.000157-3.5016198-55.485621 2.5608305-72.284365 16.4174306z"/></svg>