<svg height="960" viewBox="0 0 960 960" width="960" xmlns="http://www.w3.org/2000/svg"><g fill="#000"><path d="m290.138476 1.19495932c.238322.00210799.47662.00634591.714867.01271326l572.058657 15.28902172.12193.0012286c17.781838.3451569 34.579187 8.0587872 46.489149 21.2985403l.418315.469577 28.774723 32.6501398c10.522002 11.9508803 16.283883 27.3657409 16.283883 43.302598v502.609415c0 18.002765-5.444174 35.583533-15.640611 50.35855l-11.802725 17.09374c-.888534 1.286197-1.412123 2.889517-1.463041 4.594089l-2.844527 95.217635c-2.411061 80.696794-65.857916 154.896402-143.667423 156.102243h-.740776l-669.472897-2.065756-.43304.004363c-.301518.001563-.603048.001756-.904581.000579l-.904601-.007643c-54.827399-.712406-99.125778-45.586381-99.125778-100.417112v-659.098468c0-49.353832 28.9743239-94.2962259 73.9186041-114.8284715l73.2989299-33.589292c42.411106-19.4984819 88.48496-29.4084216 134.920942-28.99769018zm-118.212234 65.34076478-73.3439164 33.6099409c-30.7629935 14.053718-50.5823256 44.789759-50.5823256 78.464748v286.458281l84.420355-11.509703c4.957644-.675963 9.961317.866409 13.678024 4.216223l17.207536 15.508901c3.576725 3.22365 5.618635 7.812859 5.618635 12.627927v143.227931c0 3.358287-.994667 6.641341-2.858505 9.434941l-18.282609 27.402761c-2.784303 4.173232-7.269724 6.903571-12.25555 7.460124l-87.527886 9.769895v154.501187c0 32.941288 26.7041901 59.992462 59.645478 60.420488.541058.00703 1.08209.006684 1.622948-.001038l669.695877 2.066119c37.218838-.574514 69.688187-25.741477 88.14778-59.405594-6.567173 3.956035-14.203673 6.169859-22.197252 6.169859l-30.824701.00114c-3.255035 7.207052-8.050514 13.679757-14.150947 18.896641l-.338183.285198-14.762006 13.071998c-1.745522 1.545466-3.973329 2.430152-6.2965 2.51291h-552.296543c-8.98422 0-13.411079-10.926914-6.96026-17.180166l18.975522-18.394814-.102168-.045736c-6.582462-3.013485-12.514279-7.463703-17.316182-13.118229l-.376742-.448908-10.164899-12.249747c-8.036375-9.679785-12.504992-21.829992-12.640835-34.382711l-7.47157-693.9824069c-.148346-13.9817435 5.377265-27.4748938 15.30074-37.3775638l1.286937-1.2854906c-11.860682 3.6277397-23.505018 8.0589296-34.850252 13.2748944zm92.858436 781.7019049-.021465.016993-.024049.030065c-.128851.149123-.262822.295308-.401907.438322l-.212464.212112-13.19558 12.790501h523.489l12.030895-10.650157c.03502-.031006.070257-.061767.105708-.092278l.106993-.090786c1.443012-1.207117 2.774347-2.527185 3.985946-3.943318l-524.12669-.615384c-.495143.707176-1.079412 1.347231-1.736387 1.90393zm-16.196887-804.2992109-.361028.0516352c-4.693446 2.0257049-10.250557 6.3776366-16.885445 13.0064251l-11.722381 11.7047218c-6.11704 6.1042148-9.521253 14.4170638-9.428254 23.0068105l7.46854 693.9824563c.086104 7.956604 2.924109 15.673164 8.03152 21.825022l10.168143 12.253655c3.270381 3.943235 7.436831 6.933383 12.060594 8.763807l.403733.155671.000169-135.233698c0-5.456686 4.36896-9.887259 9.790785-9.997887l.276578-.001886 550.676617 3.709564c5.496435.037026 9.932638 4.503214 9.932638 9.999773v126.915433c0 .963105-.024763 1.923109-.073901 2.87915l25.988732-.000356c9.192583 0 17.502296-5.473642 21.131583-13.919461l17.538586-40.81556 2.52646-84.543547c.28065-9.395336 3.248552-18.483106 8.534657-26.135008l11.797309-17.085898c5.567567-8.067614 8.556574-17.720489 8.556574-27.631048v-502.609415c0-6.251234-2.2451-12.257818-6.30591-16.8700827l-28.761807-32.635477c-4.571414-5.1819059-11.0572-8.1602357-17.911687-8.226271l-479.594596-12.8182532-123.919393-.9623149c-3.313953.3506355-6.620763.7614367-9.918816 1.2320389zm19.735422 659.5842039-.000213 122.812072 520.677.611226-.001-119.917226zm321.25142 21.93674c24.163725.180346 43.425367 21.050662 43.425367 46.29754 0 25.312897-19.366491 45.950972-43.603939 45.699036-24.144952-.250974-43.396061-21.109877-43.396061-46.297278 0-25.25342 19.355755-45.880055 43.574633-45.699298zm-119.999839-2.251754c24.711159.184831 44.425206 21.503067 44.425206 47.307087 0 25.87028-19.819241 46.947575-44.604164 46.689391-24.692364-.25722-44.395836-21.564021-44.395836-47.306824 0-25.809063 19.808465-46.874896 44.574794-46.689654zm265.999861 5.485474c23.069634.172232 41.425345 20.147982 41.425345 44.27985 0 24.197692-18.460329 43.95753-41.603971 43.716891-23.050816-.239674-41.396029-20.204-41.396029-44.279588 0-24.141413 18.44963-43.889798 41.574655-43.717153zm-409.999558-6.692223c24.711045.185578 44.424903 21.504319 44.424903 47.308323 0 25.870535-19.819479 46.947357-44.604586 46.688126-24.692173-.258259-44.395414-21.565518-44.395414-47.308058 0-25.809069 19.808658-46.874385 44.575097-46.688391zm71.575956 4.000282c5.522217.083424 9.93123 4.627695 9.847806 10.149912l-1 66.194415c-.083424 5.522218-4.627695 9.931231-10.149912 9.847807-5.522217-.083425-9.93123-4.627695-9.847806-10.149912l1-66.194416c.083424-5.522217 4.627695-9.93123 10.149912-9.847806zm266.013137 5.103405c5.522103.090679 9.925142 4.640739 9.834462 10.162842l-1 60.896802c-.09068 5.522103-4.640739 9.925142-10.162842 9.834462s-9.925142-4.640739-9.834462-10.162842l1-60.896802c.09068-5.522103 4.640739-9.925142 10.162842-9.834462zm-97.16419 40.054114c0 14.521434 10.745813 26.164705 23.603939 26.298359 1.744401.018132 3.448931-.177746 5.091915-.566494l-26.684749-36.235061c-1.290855 3.192518-2.011105 6.742418-2.011105 10.503196zm-121-1.261398c0 15.06881 11.18888 27.168162 24.604164 27.307909 2.570115.026773 5.05651-.389864 7.39584-1.187898l-28.893945-39.231726c-1.974769 3.853899-3.106059 8.318731-3.106059 13.111715zm269 2.512973c0 13.427421 9.860848 24.158568 21.603971 24.280669 1.565376.016276 3.096368-.157966 4.573955-.504345l-24.446368-33.195677c-1.112591 2.873547-1.731558 6.053877-1.731558 9.419353zm-413-3.720985c0 15.068834 11.189111 27.168837 24.604586 27.309152 2.308637.024146 4.549719-.30949 6.677334-.955967l-28.532836-38.742016c-1.753522 3.685164-2.749084 7.892587-2.749084 12.388831zm288.425367-23.230445c-2.411515-.017998-4.746777.370896-6.948745 1.11084l27.677559 37.583051c1.811237-3.655138 2.845819-7.870919 2.845819-12.395794 0-14.570413-10.735279-26.20227-23.574633-26.298097zm145.999978 3.23372c-1.695008-.012655-3.349662.196881-4.939921.605277l24.647345 33.46746c1.197763-2.96876 1.867231-6.278345 1.867231-9.79233 0-13.473154-9.85035-24.192876-21.574655-24.280407zm-266.000139-5.485476c-2.037681-.015241-4.022701.246822-5.923611.75529l28.114742 38.17492c1.525672-3.496053 2.383663-7.43234 2.383663-11.622564 0-15.119528-11.178306-27.207445-24.574794-27.307646zm-144.000303-1.206754c-2.301359-.017283-4.535542.319148-6.657246.964781l28.51015 38.712026c1.736706-3.678028 2.722193-7.877107 2.722193-12.36792 0-15.119757-11.178494-27.208279-24.575097-27.308887zm-62.342425-682.3835082 600.497522 10.768.307091.0042496c5.64011.1222641 11.034411 2.2853803 15.222582 6.0933552l.346202.3211303 17.026524 16.1212298c4.808893 4.5559214 7.517601 10.9389273 7.517601 17.6164023v515.811791c0 5.764632-2.019702 11.345562-5.715044 15.730179l-17.830973 21.144282c-4.515396 5.351169-11.121044 8.427151-18.092903 8.391495l-600.210781-3.427301c-6.80289-.038817-13.262379-3.013438-17.751363-8.152974l-11.453221-13.107484c-3.832584-4.384338-5.945715-10.021369-5.945715-15.850527v-531.5149481c0-5.2529639 1.7165-10.3707187 4.88359-14.563915l11.969431-15.8539883c4.523979-5.994821 11.573953-9.5309768 19.050188-9.5309768zm-129.340481 413.9466352-85.741997 11.690272v177.829l83.920997-9.367272 17.003-25.486v-140.983zm129.134003-393.9456352h-.193837c-1.102381.0726298-2.155463.6374165-2.866101 1.5790968l-11.971904 15.8572658c-.546955.7241629-.844158 1.6102757-.844158 2.5115175v531.5149481c0 .991703.359603 1.950988 1.004911 2.689197l11.455949 13.110606c.729398.835103 1.750883 1.305501 2.803594 1.311508l600.205308 3.427004c1.012507 0 1.990789-.450367 2.69694-1.287223l17.827138-21.139733c.64021-.759626 1.00616-1.770835 1.00616-2.839029v-515.811791c0-1.220551-.476369-2.343104-1.270536-3.095495l-17.022233-16.117166c-.64986-.6149458-1.469437-.9436434-2.321045-.9449356l-.164095-.0015955zm-148.363206 426.2305142 5.292794 2.393722c6.084753 2.751894 9.994693 8.811425 9.994693 15.489534v75.229171c0 2.970855-.778541 5.889842-2.258043 8.466091l-5.453381 9.495943c-2.613601 4.551049-7.18269 7.639822-12.379924 8.369015l-39.692881 5.569072c-6.016486.844137-11.3894315-3.827589-11.3894315-9.903004v-101.7862c0-5.040452 3.7513396-9.29303 8.752411-9.921871l38.0075545-4.779119c3.110905-.39117 6.269389.085619 9.126208 1.377646zm-7.471173 18.571907-28.4150005 3.572v81.464l26.8490005-3.767 4.324-7.528v-72.495zm606.958379-253.068329v160.618042c0 47.318698-37.688578 85.719424-84.265072 85.668419h-.480964c-46.568599-.051786-84.253964-38.360984-84.253964-85.49466v-159.902981c0-46.635311 36.89353-84.868829 82.789282-86.00042l1.388718-.023585.475259-.008531c46.615561-.377894 84.346741 37.798031 84.346741 85.143716zm-84.129221-65.144278-.469857.008512-.053568.000585c-35.490762.292037-64.347354 29.831951-64.347354 66.024001v159.902981c0 36.164575 28.813674 65.455223 64.265072 65.494653h.480817c35.443492.03881 64.254111-29.316203 64.254111-65.668412v-160.618042c0-35.961213-28.194798-64.84796-63.070363-65.144078zm40.468143 24.190401c10.599268 10.701439 16.661078 25.231827 16.661078 40.732788v160.233598c0 15.491319-6.053879 30.046053-16.638038 40.80804-10.614154 10.786996-25.013647 16.973211-40.364401 16.969471-15.343423-.003744-29.738655-6.183713-40.35133-16.94954-10.588376-10.735699-16.646231-25.256075-16.646231-40.716561v-159.783202c0-15.45088 6.049949-29.995634 16.619794-40.788245 10.596895-10.825711 24.971967-17.100392 40.305153-17.217013 15.362493-.110698 29.781246 5.98094 40.413975 16.710664zm-39.725849 3.289338h-.53802c-9.934994.07554-19.243802 4.13881-26.164656 11.209104-6.943829 7.090174-10.910397 16.626248-10.910397 26.796152v159.783202c0 10.1603 3.958662 19.649015 10.887522 26.674281 6.902065 7.001668 16.190833 10.989399 26.114915 10.99182 9.921338.002417 19.20502-3.985977 26.101854-10.99512 6.931481-7.047939 10.895709-16.578734 10.895709-26.782391v-160.233598c0-10.194015-3.956296-19.677407-10.869081-26.656828-6.631066-6.691556-15.474979-10.569392-24.979178-10.77865z"/><path d="m630 153.430557c12.150264-.116271 22-10.241573 22-22.615494 0-12.373922-9.849736-22.297502-22-22.164937s-22 10.257867-22 22.615495 9.849736 22.281208 22 22.164936z" fill-rule="evenodd"/></g></svg>