<svg height="960" viewBox="0 0 960 960" width="960" xmlns="http://www.w3.org/2000/svg"><path d="m479.429872-10.1433343c108.619903 0 178.021716 13.39901319 217.682691 38.4666672 15.991258 10.1072482 27.40834 22.2940229 34.195186 36.0386547 2.958521 5.9915588 4.906276 12.0158496 5.984489 17.9726064.435429 2.4055958.71388 4.713228.869399 6.9641439.060422.8745165.099876 1.7033726.1245 2.5217048.003371.1120174.006135.2069549.008505.294085l.068455 5.0091576c.068126 6.8752737.112832 17.8052097.135014 32.8642327l.016225 29.138393c-.011744 82.623659-.416822 238.562086-1.215245 467.843007l-.706003 194.339348.022988.12715c.605411 3.650998.937055 7.340624.988125 11.051587l.006966 1.012597c0 23.807742-11.152408 45.005378-29.997602 62.334801-14.984541 13.779294-35.029449 25.319412-59.135226 34.695213-45.416712 17.664565-105.020689 27.469986-168.122007 27.469986-62.871264 0-122.273238-9.733983-167.63062-27.279385-24.044271-9.300942-44.073343-20.746873-59.099002-34.403468-15.653306-14.227055-26.102469-31.079356-29.404358-49.907502l-.076264-.454979-.12561-.401126c-1.027186-3.410547-1.611484-7.01333-1.68598-10.741623l-.007841-.659223c-1.397599-366.115562-2.117432-596.209862-2.159808-690.371651l.000912-18.964822c.003578-6.537148.017247-12.016456.033285-16.44481l.047928-8.015956.021841-.9942565c.014784-.5374679.034721-1.0780523.061139-1.6343524.103291-2.1751068.296147-4.3752175.609033-6.6710574.797618-5.8526171 2.302571-11.7666172 4.684425-17.7389698 5.703768-14.3018462 15.817337-27.3304026 30.409359-38.3879543 38.997304-29.5514032 109.967988-45.0721989 223.395101-45.0721989zm185.221322 888.4102693-.172476.059785c-5.135193 1.837615-10.56558 3.595892-16.276179 5.274117-44.585513 13.102744-104.477291 20.547311-168.282542 20.547311-63.80525 0-123.697029-7.444567-168.282542-20.547311-5.015415-1.473925-9.814688-3.009598-14.387671-4.606535 38.602047 23.457534 106.18593 39.005698 183.106548 39.005698 77.713735 0 145.897204-15.870447 184.294862-39.733065zm-403.458741-353.509842.006791 1.396069c.11984 34.666146.250097 71.422515.390768 110.269107l.736353 197.577731.778865.000748c.02431 1.629373.167186 3.247818.425444 4.854097 9.533708 8.827087 27.809849 17.935385 53.745892 25.557442 42.615082 12.523676 100.637338 19.735861 162.643431 19.735861s120.02835-7.212185 162.643431-19.735861c26.892182-7.903046 45.549283-17.403934 54.758447-26.53381.192962-1.449945.289292-2.909835.289292-4.378477 0-2.796672-.349313-5.561612-1.031895-8.288579.414924-110.480292.76313-208.519437 1.044618-294.117436-11.201959 4.753598-24.738009 8.996326-40.347045 12.784293-45.36541 11.009179-106.359596 17.26987-171.356848 17.26987s-125.991438-6.260691-171.356848-17.26987c-22.257303-5.401354-40.299688-11.727357-53.370696-19.121185zm437.298723-399.834605-.150223.102638c-11.748772 7.894142-28.423697 14.850403-49.108421 20.804995-42.607076 12.265467-99.922977 19.337606-163.312535 19.337606-66.443636 0-126.387625-5.696017-170.016746-16.155974-22.520648-5.39926-40.476673-12.004428-53.198078-19.77477-.866491-.529259-1.710996-1.065449-2.533116-1.608561l-.006736 10.55838c.002119 12.946112.018727 28.799642.049822 47.560591 5.189167.370862 9.285465 4.696844 9.285465 9.979568v34.085134c0 5.245077-4.038123 9.547-9.175061 9.96646.152664 64.955957.414214 151.772223.784665 260.443143 2.226841 2.124538 5.383924 4.428203 9.568182 6.828941 11.06702 6.349756 27.656753 12.308962 48.60141 17.391766 43.698446 10.604644 103.137825 16.705743 166.640193 16.705743s122.941747-6.101099 166.640193-16.705743l1.981525-.486711c17.95562-4.463896 32.596045-9.57768 43.155444-15.022732.362002-112.227113.604236-201.934825.725736-269.128939l.077713.008072c-5.522847 0-10-4.477153-10-10v-34.085134c0-5.522513 4.476611-9.999458 9.998997-10 .00292-3.442231.005595-6.790588.007776-10.046785l.006799-24.670591-.00023-2.871271c-.000051-.315225-.000111-.62918-.000179-.941868l-.000837-2.779931c-.002788-7.205748-.010206-13.703758-.021758-19.494027zm-219.061304-95.0658223c-207.177869 0-218.467104 54.4951208-219.14882 69.895652 4.04178 10.0822883 24.705616 21.2805173 60.285008 29.8105743 41.927974 10.052111 100.363966 15.604835 165.353937 15.604835 61.618432 0 117.096109-6.845323 157.779749-18.557082l1.861395-.542427c17.556809-5.179055 31.498645-11.092672 40.851241-17.191783 7.917142-5.163007 11.477105-9.7026962 11.599579-12.575962l.003278-.1523249c0-.8464438.105165-1.668325.303142-2.4532903-.105319-7.0487107-.7356-63.8381921-218.888509-63.8381921zm.858446 12.7199336c33.183647 0 64.349854 2.7038313 87.625245 7.4779024 11.782219 2.4166792 21.353993 5.3227302 28.302391 8.6922875 9.359204 4.5386535 15.151604 10.3447199 15.151604 18.6646625 0 8.3199427-5.7924 14.1260091-15.151604 18.6646626-6.948398 3.3695573-16.520172 6.2756087-28.302391 8.6922877l-.974359.19772c-10.960078 2.200297-23.61974 3.948118-37.382654 5.179132-13.445103 1.496759-29.711625 2.353908-46.893596 2.426345l-2.374636.005c-18.058869 0-35.21166-.866132-49.276969-2.432054-14.169131-1.267682-27.168896-3.083114-38.348276-5.376143-11.782219-2.416679-21.353993-5.3227304-28.302391-8.6922877-9.359204-4.5386535-15.151604-10.3447199-15.151604-18.6646626 0-8.3199426 5.7924-14.126009 15.151604-18.6646625 6.948398-3.3695573 16.520172-6.2756083 28.302391-8.6922875 23.275391-4.7740711 54.441598-7.4779024 87.625245-7.4779024zm1.139229 46.8219985-2.592234.0007487c-13.539988.0362273-26.468171.5780309-37.715191 1.5355077l.272274-.0224508c12.297778.8717224 25.412209 1.3339008 38.895922 1.3339008l1.310406-.0014559c13.022363-.0289448 25.685451-.4889498 37.584065-1.3323421l-.947101-.0794115c-11.045332-.9012233-23.641783-1.4068863-36.808141-1.4344969zm-1.139229-26.8219985-1.310406.0014559c-31.421051.0698395-60.750456 2.6492516-82.296253 7.0685615-10.29111 2.110834-18.376837 4.5657119-23.594172 7.095807-.360433.1747886-.701599.3473546-1.023183.5168672l-.284226.1523084.284226.1520133c.214389.1130084.437482.2273738.669184.3428502l.353999.174017c4.542986 2.203076 11.260794 4.3491221 19.715703 6.260658.991204-1.4790759 2.303192-2.7491985 3.824515-3.8333988 1.953471-1.39218 4.317661-2.5006749 7.174773-3.485775 4.682304-1.6144055 11.039034-2.9865803 18.847915-4.1253755l.841058-.1209454c14.666389-2.0796381 33.890728-3.2866807 54.422231-3.3732386l2.374636-.0050008c21.817279 0 42.312089 1.264167 57.637925 3.4991848l.776039.1146578c7.454764 1.1158849 13.545649 2.4501258 18.071876 4.0107177 2.857112.9851001 5.221302 2.093595 7.174773 3.485775 1.521322 1.0842003 2.833311 2.3543229 3.823685 3.8336388 8.455739-1.9117759 15.173547-4.057822 19.716533-6.260898.360433-.1747886.701599-.3473547 1.023183-.5168672l.283746-.1520133-.283746-.1523084c-.21439-.1130084-.437482-.2273739-.669184-.3428502l-.353999-.174017c-5.217335-2.5300951-13.303062-4.984973-23.594172-7.095807l-.902231-.1830714c-21.76091-4.3680725-51.226373-6.886946-82.704428-6.886946z"/></svg>