<svg height="960" viewBox="0 0 960 960" width="960" xmlns="http://www.w3.org/2000/svg"><path d="m481.762995 1c107.457961 0 176.144437 13.2609072 215.440649 38.0980136 15.877216 10.035168 27.222159 22.1449405 33.970191 35.8109671 2.944051 5.9622522 4.882719 11.9584382 5.956053 17.8882384.433556 2.3952524.710827 4.6931038.865688 6.9344871.060162.8707648.099445 1.6960108.123958 2.5106528.01509.50151.017959.658918.027896 1.311313.535356 34.588094-.02016 270.724602-1.665161 710.479464l-.035872 9.338864.016237.092136c.602209 3.631758.932113 7.302057.982915 10.99362l.00693 1.007304c0 23.677009-11.085541 44.747548-29.802614 61.959157-14.859888 13.664666-34.723872 25.100623-58.603478 34.388456-44.954395 17.48475-103.933218 27.187327-166.367513 27.187327-62.206621 0-120.985484-9.631876-165.880953-26.998598-23.818331-9.213543-43.666247-20.55595-58.566489-34.098555-15.546355-14.129848-25.930346-30.878538-29.212057-49.59987l-.070978-.420977-.115294-.369111c-1.027185-3.410546-1.611484-7.013329-1.68598-10.741622l-.00784-.659224c-1.396661-365.869821-2.108448-594.193313-2.135743-685.489277l-.000617-14.042781c.009696-11.129835.03162-19.318291.068239-24.567.002324-.333185.004299-.581418.006901-.811548l.004496-.339973c.001737-.11437.003752-.23257.006169-.362956.014852-.801227.039747-1.595534.079143-2.425131.102722-2.163102.294536-4.351331.605748-6.634888.793374-5.8214734 2.290306-11.703958 4.659242-17.6439163 5.669993-14.2171567 15.719938-27.1637515 30.210481-38.1444048 38.648726-29.2872577 108.89746-44.6501679 221.119653-44.6501679zm182.637464 879.010538-.930371.326486c-4.702743 1.655061-9.649807 3.243979-14.829748 4.766254-44.087562 12.956407-103.306002 20.317278-166.392817 20.317278-63.086816 0-122.305256-7.360871-166.392818-20.317278-4.777406-1.403979-9.356723-2.864645-13.728971-4.381607 38.239453 23.031787 104.818492 38.278329 180.55314 38.278329 76.511128 0 143.677947-15.56078 181.721585-38.989462zm-398.381304-349.628875.00998 2.516928c.302922 87.568624.672874 188.588877 1.109856 303.060759l.76997.000739c.023119 1.549624.154723 3.08925.392006 4.617788 9.373536 8.736482 27.463614 17.775571 53.192849 25.336852 42.11713 12.377338 99.466049 19.505827 160.753707 19.505827s118.636576-7.128489 160.753706-19.505827c26.681483-7.841127 45.147889-17.271474 54.191568-26.305879.172463-1.372793.259682-2.75433.259682-4.14379 0-2.764732-.345324-5.498094-1.02011-8.193916.409998-109.168592.7541-206.049366 1.032306-290.642324l.001335.015278c-11.073143 4.687855-24.445541 8.877135-39.860267 12.617948-44.856819 10.885755-105.163279 17.075855-169.426745 17.075855s-124.569927-6.1901-169.426745-17.075855c-21.977431-5.333435-39.803336-11.578491-52.733098-18.880383zm432.301754-395.277098-.058059.056137c-11.62917 7.819338-28.133599 14.704842-48.604888 20.597992-42.131451 12.128546-98.803254 19.121211-161.478964 19.121211-65.693095 0-124.961086-5.631782-168.10164-15.974606-22.274071-5.340145-40.03556-11.873752-52.623419-19.562522-.837745-.511703-1.654769-1.029973-2.450699-1.554806-.000043.619839-.000239 1.257199-.000376 1.903688l-.000237 8.401257c.002091 12.771119.018444 28.404274.049058 46.899466 5.193314.370387 9.293821 4.6981 9.293821 9.983537v33.695853c0 5.248129-4.042824 9.552007-9.18403 9.967189l-.00018-.011017c.150866 64.175818.409161 149.910745.774885 257.20478 2.19633 2.114735 5.334502 4.412917 9.516288 6.812237 10.92989 6.271077 27.32059 12.158788 48.016439 17.181212 43.189855 10.481219 101.941508 16.511728 164.71009 16.511728 62.768581 0 121.520235-6.030509 164.710089-16.511728 18.667876-4.53028 33.832982-9.764577 44.647184-15.349212l.000709-.015677c.358383-110.815981.597638-199.4177.717764-265.805154l.077018.015642c-5.522848 0-10-4.477153-10-10v-33.695853c0-5.522514 4.47661-9.999458 9.998997-10 .008534-9.43637.013433-18.162717.014574-26.188261l-.000154-8.018406c-.001855-9.71761-.009945-18.272506-.02427-25.664687zm-216.557914-94.104565c-203.579652 0-215.830748 53.2265328-216.632618 68.818452 3.740056 9.975952 24.179961 21.143785 59.60979 29.637985 41.439407 9.934979 99.1994 15.423468 163.438831 15.423468 60.904584 0 115.738163-6.765849 155.946178-18.340688 18.213609-5.243223 32.634575-11.283572 42.194031-17.517583 7.937493-5.176279 11.418521-9.703369 11.418521-12.487255 0-.982149.141589-1.931227.405469-2.827937-.181762-8.4930822-4.453369-62.706442-216.380202-62.706442zm.848642 12.4604531c32.811906 0 63.629705 2.6736051 86.64744 7.3948277 11.656171 2.3908253 21.127114 5.2662631 28.00604 8.6021309 9.287801 4.5040275 15.042935 10.2727394 15.042935 18.5542592 0 8.2815197-5.755134 14.0502321-15.042935 18.5542591-6.878926 3.335868-16.349869 6.211306-28.00604 8.602131-11.053407 2.267191-23.905541 4.062192-37.913456 5.315683-13.910625 1.54894-30.874377 2.405668-48.733984 2.405668s-34.823358-.856728-48.733966-2.405777c-14.007933-1.253382-26.860067-3.048383-37.913473-5.315574-11.656172-2.390825-21.127114-5.266263-28.006041-8.602131-9.287801-4.504027-15.042935-10.2727394-15.042935-18.5542591 0-8.2815198 5.755134-14.0502317 15.042935-18.5542592 6.878927-3.3358678 16.349869-6.2113056 28.006041-8.6021309 23.017734-4.7212226 53.835534-7.3948277 86.647439-7.3948277zm0 46.5144886c-13.196815 0-25.845501.4859723-36.94156 1.3734213 11.71879.794497 24.162306 1.214526 36.94156 1.214526 12.77968 0 25.2236-.420057 36.941727-1.214259l.831025.067201c-10.979982-.904417-23.527-1.412197-36.646817-1.4397093zm0-26.5144886c-31.543508 0-61.041466 2.559102-82.628854 6.9869427-10.165061 2.0849801-18.149957 4.5092448-23.29782 7.0056504-.354552.1719365-.690066.3416308-1.006231.5082529l-.09551.050154.09551.0505896c.210777.1110814.430153.2235282.658036.3370945l.348195.1711584c4.468817 2.1671091 11.075575 4.2798541 19.390565 6.1634749.981548-1.4467592 2.272235-2.6905557 3.764687-3.7541807 1.941482-1.3836353 4.287937-2.4838151 7.121887-3.4609291 4.636706-1.5986837 10.927253-2.9565724 18.653402-4.0833024 15.156721-2.2103552 35.422851-3.4604166 56.996133-3.4604166 21.573283 0 41.839412 1.2500614 56.996133 3.4604166 7.726149 1.12673 14.016697 2.4846187 18.653402 4.0833024 2.83395.977114 5.180406 2.0772938 7.121887 3.4609291 1.492452 1.063625 2.783139 2.3074215 3.764932 3.7536036 8.315031-1.8831352 14.9216-3.9958357 19.390321-6.1628978.354551-.1719365.690065-.3416308 1.00623-.5082529l.09468-.0505896-.09468-.050154c-.210776-.1110814-.430153-.2235283-.658036-.3370946l-.348194-.1711583c-5.147864-2.4964056-13.132759-4.9206703-23.297821-7.0056504-21.587388-4.4278407-51.085346-6.9869427-82.628854-6.9869427z"/></svg>