<svg height="960" viewBox="0 0 960 960" width="960" xmlns="http://www.w3.org/2000/svg"><path d="m376.523081 1.55464226 87.391122 6.78961049c6.607464.51334861 12.983845 2.66040455 18.556079 6.24820615l48.987539 31.541669.021059.0135692c6.835092 4.4069776 12.689758 9.7046742 17.313322 16.2936584 5.980664 8.522969 9.33903 18.5502017 9.33903 29.1922938v32.4227437c7.376753 4.807176 20.349347 13.232796 38.789107 25.192996l57.555828-2.161247 1.597068-.059971c10.253069-.385008 20.26204 3.184663 27.957485 9.970957l1.19868 1.057066 11.626649 10.253059 1.354348 1.194343c8.610613 7.593342 13.543476 18.520389 13.543476 30.000872v24.598147c2.003796 1.951293 3.853713 4.040486 5.567694 6.339306 2.301023 3.08617 4.280002 6.461587 5.839615 10.258429 2.097821 5.107096 3.302285 10.672919 3.302285 16.595806 0 3.569872-.518183 27.04728-1.595526 72.481483 2.360599 1.041121 4.641698 2.223769 6.850325 3.541263 18.22372 10.870847 28.55671 29.369313 28.55671 50.551457 0 .38779 0 .77556-.016916 1.163186l-3.88545 133.557601c-.266528 9.161549-3.671235 17.953682-9.644463 24.90534-9.858839 11.473745-22.776423 19.113681-37.558143 22.23422v10.100813c0 10.187167-3.865245 19.750952-10.482588 26.97172 8.408322 17.724463 14.4678 35.432471 18.188688 53.12784 6.592166 31.350268 5.709954 62.879204-2.607835 94.076333-2.560847 9.604845-8.606252 17.912069-16.958032 23.302685-19.606739 12.655075-33.635636 21.121478-42.990777 25.828206-6.088862 3.063409-12.010642 5.854803-18.297049 8.668877-2.351835 1.052785-4.63463 2.056027-7.376496 3.247089-.254802.110685-2.122812.919873-3.731778 1.617803-2.778796 4.744565-6.048684 9.482174-9.635485 13.919157-4.471569 5.531466-9.452857 10.641573-14.942285 15.151026-6.609252 5.429367-13.837584 9.89591-21.717165 13.13792-10.681387 4.394798-42.750801 17.313205-96.458642 38.856995-1.81576 2.27172-3.655964 4.387625-5.532728 6.360877-2.762342 2.904358-5.632879 5.530522-8.6773 7.873162-3.682811 2.833873-7.603976 5.242945-11.854056 7.149236-.050968.022861-1.360834.610672-1.864734.836624-.923235.413984-1.806036.80925-2.734721 1.224252-2.464963 1.101517-4.966774 2.213992-7.578491 3.368225-7.011589 3.098733-13.923996 6.104709-20.587733 8.93619-1.362738.579039-2.706053 1.146894-4.028738 1.702933-16.93828 7.120632-29.205933 11.824999-37.671385 14.042957-6.826086 1.788442-13.855436 2.355693-21.048101 1.911169-6.030076-.372673-12.163049-1.456687-18.477303-3.170604-5.620284-1.525549-11.460039-3.572177-17.57217-6.143046l-43.556113 18.106522c-11.244327 4.67433-24.005577 3.972043-34.669071-1.907933-20.759651-11.447117-34.903716-20.358584-43.849442-28.074245-.998517-.861218-1.982444-1.731095-2.952158-2.609605-9.523694-8.627954-17.280159-17.65888-24.362195-27.700877-2.364274-3.352429-4.278204-6.251964-6.992323-10.49906-2.597569-4.064717-2.997155-4.679904-3.588786-5.514863-7.133994-10.068097-13.184353-23.314119-19.05597-40.496071-5.221901-15.28071-10.426905-34.150843-15.696674-56.755353-.815287-3.497148-1.155946-7.088157-1.012795-10.676227l2.342024-58.702598c.493601-12.37204 6.688943-23.818042 16.777471-30.996666l33.389283-23.758581c3.257615-2.317998 6.844349-4.134497 10.640607-5.388928 5.8503-1.933166 10.930774-3.647605 15.2055-5.129861 2.928437-7.3553 6.749274-14.315066 11.279409-20.722364 9.099288-12.869783 20.929121-23.325062 33.993083-28.917706 6.939035-2.97058 23.305599-9.466908 37.687937-14.939955l-9.818439-16.840406-92.747442-71.129879c-9.870391-7.569802-15.657425-19.300665-15.657672-31.739576l-.000401-20.259672c-7.387487-3.354547-14.103107-7.930632-19.966994-13.664553-7.696154-7.525578-12.034439-17.835364-12.034439-28.59943v-135.930008c0-11.054539 3.79417-21.234267 10.20414-29.554588 4.813972-6.248672 10.829657-11.137354 17.594166-14.851202.972219-.533768 1.960906-1.043326 2.982029-1.501528l-.0001-82.663503c-.000007-5.148361.993863-10.248314 2.927058-15.019936l19.155536-47.2807852c4.400532-10.8616437 13.342952-19.2471165 24.464765-22.9410647l143.601458-47.69513071c5.055504-1.6791118 10.395477-2.33149755 15.706529-1.91887013zm-172.025997 689.28020074-33.389283 23.758581-2.342024 58.702598c9.978037 42.800483 19.456206 70.536195 28.434507 83.207135 5.872905 8.288343 13.675993 23.887923 31.383212 39.160346 6.241989 5.383696 18.588364 13.162529 37.039126 23.336497l2.496154-1.039538 25.342474-16.878494 7.084992-82.897606-36.197437-81.538475-57.888623-46.461062c-.645204.21409-1.29957.430763-1.963098.650018zm147.580692 10.297619 36.967206 86.528189c.686563 1.60706.939992 3.365984.735032 5.101496l-10.380798 87.902771c-.032468.318149-.080134.633908-.142579.946196-.004653.021747-.009076.043706-.013568.065636-.00816.040477-.016752.080748-.02559.120957-.304053 1.39659-.893767 2.671316-1.698977 3.769083-.847859 1.160221-1.955399 2.150585-3.284752 2.873123-.26644.145747-.539078.27898-.817891.399781l-30.315138 13.36251c4.782397 1.860186 9.156735 3.209925 13.123014 4.049216 22.316907-16.804979 35.324749-37.375347 39.447653-61.953621 5.08853-30.334754-3.222298-67.4598-25.36363-111.31806-5.871991-11.631427-11.870317-22.104716-17.961444-31.438767zm-11.290246-90.26922c-4.84405.309163-8.921974.586845-12.225564.832193-9.351555 3.145143-24.288254 8.79596-37.247524 13.856661 14.188451 3.208945 28.560439 10.920582 42.556326 23.169545 19.117928 16.731688 37.369089 41.725626 54.290847 75.244786 23.900702 47.343276 33.122481 88.537605 27.234189 123.640061-3.216559 19.175191-10.905859 36.326508-22.953663 51.388573 18.898592-7.601175 42.196029-18.089246 47.284357-20.371517 2.578005-1.156315 5.342398-3.320269 8.293178-6.491864 7.515773-12.139975 12.374341-25.555317 14.628944-40.291623 5.154303-33.689021-3.228843-74.747233-25.497287-123.109636-17.062889-37.057024-35.185105-63.418144-53.498498-79.570634-7.958744-7.019646-15.80083-11.962157-23.394047-14.946486-6.801191-2.673043-13.321182-3.742577-19.471258-3.350059zm-117.141439 111.322083c6.60187 2.975281 13.285308 8.024987 19.844238 14.808369 12.690117 13.124384 24.650753 32.479085 33.56657 54.546505 8.915816 22.067421 13.756959 44.298583 13.745416 62.554771-.005966 9.435772-1.305808 17.710933-3.987992 24.437216-3.163411 7.933088-8.295834 13.799759-15.340494 16.645986s-14.811948 2.191378-22.598302-1.317718c-6.60187-2.975281-13.285308-8.024987-19.844238-14.808369-12.690117-13.124384-24.650753-32.479085-33.56657-54.546505-8.915816-22.067421-13.756959-44.298583-13.745416-62.554771.005966-9.435772 1.305809-17.710933 3.987992-24.437216 3.163412-7.933088 8.295834-13.799758 15.340494-16.645986 7.04466-2.846227 14.811948-2.191378 22.598302 1.317718zm144.613685 82.265137-48.096 19.043-5.947 69.582 45.97-20.264zm-159.719855-65.039178c-1.496279.604537-2.971249 2.290516-4.25517 5.510286-1.644852 4.1249-2.560973 9.957181-2.565452 17.041884-.009809 15.513573 4.286539 35.242967 12.289098 55.049994 8.002558 19.807027 18.617212 36.983659 29.400901 48.136376 4.924671 5.093197 9.635116 8.652198 13.68372 10.476792 3.160216 1.424223 5.392399 1.612415 6.888679 1.007879s2.971249-2.290516 4.25517-5.510286c1.644852-4.1249 2.560973-9.957181 2.565452-17.041884.009809-15.513573-4.286539-35.242967-12.289097-55.049994-8.002559-19.807026-18.617213-36.983659-29.400902-48.136375-4.924671-5.093198-9.635116-8.652198-13.683719-10.476793-3.160217-1.424223-5.3924-1.612415-6.88868-1.007879zm360.086753-101.302477-38.140029 15.150578c-2.902349 1.152801-6.034327 1.609925-9.145093 1.334761l-94.120448-8.325475c-.867692-.076752-1.726404-.209821-2.571017-.39727 10.607766 15.048565 20.860281 33.193957 30.667953 54.494168 23.77359 51.631263 32.923051 96.44267 27.100532 134.499222-.903353 5.904399-2.165508 11.634617-3.784403 17.188879 46.749886-18.761049 75.005381-30.149177 84.76517-34.164788 13.869148-5.706384 24.055012-19.455948 28.815918-28.686236 6.046482-19.260044 7.704245-41.268943 4.922044-66.134726-3.915854-34.997755-13.462513-63.274678-28.510627-84.959113zm-231.870898 78.065655-50.858 19.723 30.074 67.745 49.738-19.693zm343.202843-38.81482-65.310822 26.683065c.933452 5.447867 1.721796 11.048452 2.365477 16.801315 2.073317 18.530171 1.895221 35.834851-.549784 51.88158 5.724224-2.520247 12.412609-5.56357 19.878387-9.319728 7.717189-3.882647 20.809372-11.783746 39.276549-23.703296 5.536952-20.767179 6.983683-41.548158 4.340193-62.342936zm-408.360226-8.31994-39.033684 13.280837c-.73155.522454-1.533093.946867-2.383218 1.257979l44.081285 35.378944 46.155-17.899zm-21.340011-15.983143c-.840781.692518-1.650078 1.415842-2.426153 2.166562-.179376.315613-.357292.634686-.532867.956243l22.479851-7.646493c2.917029-.992395 6.128672-.584643 8.705161 1.105213l69.085241 45.310867c.218312.140351.431431.289335.638783.446699-9.020811-12.978398-18.226201-23.499444-27.509283-31.62384-14.432223-12.630838-28.533829-19.011286-41.546223-19.845283-10.999131-.704962-21.004405 2.631266-28.89451 9.130032zm404.13165-49.102626-2.556629 1.098641c-.170685.073366-.342384.144349-.515047.21293l-63.676726 25.29126c9.969011 15.370739 17.553327 33.248961 22.781805 53.606032l65.725052-26.851545c-4.405737-17.486307-11.658555-35.27208-21.758455-53.357318zm-210.201256-240.847471-8.004 263.876 74.915 6.627 3.523-266.345zm224.942 165.208-137.337 52.944-.665 50.225 112.806718-44.805409 25.23451-10.846534-.000239-30.625774c-.025514-.291281-.038541-.586143-.038541-.884047zm-457.242-98.999v7.919l.000558 26.199657 98.995158 75.921379 105.589284 77.775964 1.141-37.6zm266.965684 8.549812c5.402517.296955 12.964106 1.156357 22.780421 2.57669 5.006154.724346 8.683076 5.072883 8.56529 10.129797-2.067761 88.774872-3.182983 137.037897-3.182983 137.633171 0 1.81296-.524401 4.16039-1.370094 6.469418-1.071907 2.92667-2.662165 5.820395-4.848278 8.492248-5.917676 7.232546-15.029911 11.475428-26.952704 11.475428-8.337919 0-15.312933-1.416579-20.917267-4.51319-6.360508-3.514426-10.641423-9.060927-12.420921-16.09953-.224065-.886264-.325548-1.799067-.301614-2.712903l3.251714-124.151479c-.554251-4.191414-.506082-8.23643.162571-12.113813.521389-3.02343.994719-5.92724 1.420013-8.711101.730947-4.784582 4.783555-8.358883 9.62197-8.486341 10.785635-.284125 18.81167-.284125 24.191882.011605zm-15.966539 51.267258-2.644531 101.030038c.46077 1.074559 1.182129 1.811071 2.357931 2.460747 2.276742 1.257988 6.022415 2.018709 11.244791 2.018709 3.360803 0 5.969764-.543497 7.980508-1.479749 1.485051-.691477 2.613457-1.585402 3.493197-2.660613.696008-.850658 1.211286-1.788287 1.547253-2.705592.069311-.189242.125214-.362365.16738-.510187.11173-5.4103.836652-36.842712 2.251561-97.67373-4.758286 1.544455-10.011206 2.112325-15.668727 1.687239-3.874518-.291117-7.462899-1.01653-10.729363-2.166862zm-126.621145 93.75993 4.62931 7.939412c2.073975-.083659 4.158709-.058524 6.252012.075498zm340.048-118.061-143.709 55.034-.528 39.848 139.974145-53.959059c.605544-.233441 1.219852-.404005 1.835727-.514883.264808-.275768.540237-.54309.825503-.801704l.14391-.130466zm-473.786-108.35.00074 35.554023c0 2.890429 1.222742 5.679641 3.668227 8.367636.0776.05208.153448.10588.228783.160888l211.92325 154.739453 1.229311-40.532836c-.526913-.256595-1.038515-.563266-1.528452-.921003zm483.120739 5.807953-.000702 6.2023c1.648597-.31686 3.455911-.491715 5.351187-.491715 7.731986 0 14 2.910149 14 6.5s-6.268014 6.5-14 6.5c-1.895276 0-3.70259-.174855-5.351187-.491715l.000143 52.413024 2.381695 1.297756c5.663156 3.085784 9.09252 9.110421 8.854451 15.555319l-2.088326 56.534237c-.169053 4.57653-2.177426 8.891279-5.57034 11.967208l-.095212.086317.001065 9.333035c4.54475-.05383 8.280679-.369612 11.207787-.947345 6.455735-1.27419 11.805552-4.380815 16.04945-9.319875l3.88545-133.557602c0-14.086305-11.54182-21.279953-34.625461-21.580944zm-20.000739-45.512953-130.98 47.265-1.778 134.299 136.958768-52.448761c-2.665223-3.04977-4.200588-7.00689-4.200588-11.188606zm-454.982-119.61.001583 55.123519-.000624 78.153674-6.153464 3.022427c.662694.288572 1.304162.653916 1.912255 1.097927l213.88125 156.169453 4.046-133.349-167.253758-126.187018c-.291032-.188639-.57754-.386284-.85911-.592871zm252.79369 260.514836c-.04192.252193-.086188.510018-.130787.768635-.319154 1.850713-.341778 3.899671-.041813 6.170114.900626 1.989864 2.093802 3.394651 3.674557 4.417965 1.912457 1.238045 4.587801 2.049695 8.153366 2.317599 6.800472.510964 11.326416-1.288806 14.726447-5.592895.050168-2.207076.10231-4.446454.15519-6.717262-5.079975-.639396-9.162629-1.041139-12.240632-1.210325-3.343419-.183775-8.11277-.237355-14.296328-.153831zm12.938064 1.362493c5.854434 0 10.60039 1.913649 10.60039 4.274255s-4.745956 4.274255-10.60039 4.274255c-5.854433 0-10.600389-1.913649-10.600389-4.274255s4.745956-4.274255 10.600389-4.274255zm-296.511559-173.340012.000529 115.207479c1.71989 1.681772 3.611696 3.136015 5.675417 4.362731-1.970965-4.124069-3.033401-8.583169-3.033401-13.238504v-42.72032c0-.824177.050945-1.647567.152544-2.465458l1.967568-15.839341c.574888-4.627972 2.73588-8.840169 6.018107-11.979693l-.000839-31.272068c-3.795262-.408638-7.426879-1.100321-10.779925-2.054826zm343.180309-138.044698-236.482504 80.728381 151.529949 114.326797 83.137471 4.907499 140.175072-50.582739 9.589508-35.329557-1.741719.111453-1.485349.094336v5.850443c0 11.045695-8.954305 20-20 20h-34.313904c-10.598147 0-19.270949-8.243387-19.93306-18.674343l-6.087303-4.079281h-10.455441c-11.045695 0-20-8.954305-20-20v-41.771662c0-4.464281 1.493625-8.80022 4.243041-12.317395l.848608-1.085577 8.038825-10.287325c-.118374-.076793-.236494-.153422-.354362-.229887-.309256-.200627-.617082-.40033-.923164-.598905-.330259-.214261-.658591-.427276-.984891-.638977l-.327807-.212681-.827659-.536997c-.169406-.109915-.338248-.219466-.506525-.328652-1.087378-.705537-2.151413-1.395983-3.191864-2.071182-.344625-.223644-.686705-.445642-1.026196-.665967-.436925-.283558-.869123-.564058-1.297043-.841793l-.279693-.181532c-.225568-.146404-.449937-.292032-.673106-.436885-1.020364-.662291-2.015197-1.308073-2.984986-1.937665l-.694628-.450967-.095572-.062049c-.125979-.081791-.251523-.163301-.376633-.244529-.214222-.139087-.42728-.277421-.639061-.414929-.348874-.226522-.694467-.450923-1.036593-.673083-.725631-.47119-1.435922-.932462-2.130607-1.383644-.317232-.206035-.631227-.409978-.941968-.611817-.494885-.321447-.980888-.637151-1.458658-.947532-2.994638-1.945449-5.665726-3.681715-8.013361-5.208863-.215306-.140057-.428069-.278472-.638107-.415124-.323895-.210728-.641486-.417383-.95259-.619843-1.1227-.730629-2.160659-1.406469-3.114168-2.027712-3.535979-2.303805-5.910562-3.856745-7.123856-4.658885-2.770105-1.831391-4.874048-3.597606-6.470096-5.49093zm162.876235 135.40587-1.437333 5.296667c.729807 1.388301 1.142774 2.969183 1.142774 4.646519l.000003 2.963759c.109157-4.732739.207342-9.035054.294556-12.906945zm-23.888577-56.819623c-.105772.134891-.215146.276462-.327116.422953-3.281504 4.293213-6.872786 10.292086-10.707711 17.955344-1.694531 3.386149-5.156252 5.524788-8.942733 5.524788h-25.677478c-2.326227 0-4.579679-.810992-6.372419-2.293362l-20.873157-17.259471h-7.45955c-1.69674 0-3.294781-.422577-4.694621-1.168229l-.000153 15.584719h16.537091l19.938714 13.361517-.000001 9.392107h14.313904 20v-18.431402l8.949693-6.757528 10.370091-.65901.897911-.056624 3.74647-.23794-.000097-15.378728zm-471.388378 36.118814c-3.453964.518612-6.529656 1.355098-8.961683 2.426204-.144397.063595-.284763.127283-.419554.190904.134791.063621.275157.127309.419554.190904 2.432027 1.071106 5.507719 1.907592 8.961683 2.426204zm466.907636-75.364142-1.597068.059971-66.477674 2.496267-1.856888.069727-1.144408 1.463977-8.64955 11.064889-.848608 1.085577.000153 8.523401c1.39984-.745652 2.997881-1.168229 4.694621-1.168229h11.058436c2.326228 0 4.57968.810992 6.372419 2.293362l20.873158 17.259471h16.008624c3.345101-6.216212 6.611175-11.413667 9.830501-15.625533 2.483202-3.24879 4.579676-5.48931 6.843522-6.989488.962788-.638008 1.982841-1.161187 3.125416-1.540113 1.702975-.564778 3.545443-.76344 5.483718-.423175.795336.139622 1.562943.365402 2.289619.675224l8.173589-.000866.000097-6.739994-1.354348-1.194343-11.626649-10.253059zm-139.44342-84.656538-245.426714 83.78311c-5.570008 1.901441-11.717786.95966-16.463154-2.521999l-45.574132-33.438111v22.195l55.720062 40.880381c.310755.179934.614838.378328.910827.595382l250.851015-85.631697c-.012546-.961842-.017448-1.964251-.017448-3.010559zm-144.706047-60.9089976-143.601458 47.6951307-15.706495 38.7628669 53.113707 38.969395 246.445472-84.1305035c-1.090622-1.0156825-2.381478-2.0042191-3.872566-2.9656096l-48.987538-31.541669z"/></svg>