<svg height="52.65mm" viewBox="0 0 92.54 149.23" width="32.65mm" xmlns="http://www.w3.org/2000/svg"><g transform="translate(-1.51 -1.11)"><path d="m2.51 10.71a6.62 6.62 0 0 1 3.34-2.41c3.77-1.49 7.51-3.06 11.34-4.38a29.09 29.09 0 0 1 9-1.8 55.7 55.7 0 0 1 15.15 1.88c5.43 1.39 10.94 2.42 16.41 3.65 2.14.48 2.72 1.27 2.76 3.42v1.5q0 60.22 0 120.44c0 1.74.16 3.49-1 5a4.92 4.92 0 0 1 -1.1 1.33c-2.91 1.9-5.51 4.22-8.46 6.08-6.11 3.86-12.62 4.94-19.47 2.62-6.48-2.15-12.98-4.69-19.48-7.04-1.4-.51-2.79-1.1-4.2-1.52a6.36 6.36 0 0 1 -4.27-3.72zm56.49 64.08q0-29.61 0-59.23c0-.73.35-1.74-.33-2.11s-1.31.44-2 .79c-3.05 1.67-5.93 3.67-9.28 4.77a54.39 54.39 0 0 1 -8.94 1.86 23.31 23.31 0 0 1 -8.8-.6c-7.85-1.79-15.65-3.82-23.54-5.76-1.92-.51-2.03-.41-2.11 1.49v1.25 115.43 1.75a3.45 3.45 0 0 0 2.45 3.35c3 1 5.88 2.22 8.84 3.31 4.19 1.54 8.42 3 12.59 4.59a25.71 25.71 0 0 0 10.14 2.06 20.64 20.64 0 0 0 11.45-3.57c2.31-1.59 4.46-3.44 6.81-5a5.74 5.74 0 0 0 2.72-5.39c0-19.66 0-39.33 0-58.99zm-23.13-55.61a27.77 27.77 0 0 0 10.63-1.71c4.19-1.46 7.81-4 11.77-5.93a.86.86 0 0 0 .2-.13 1.16 1.16 0 0 0 -.23-2 9.36 9.36 0 0 0 -1.88-.6c-2.89-.67-5.77-1.42-8.69-1.92-5.36-.93-10.55-2.57-16-3.3a34 34 0 0 0 -9.28.41c-3.72.51-7.09 2.2-10.56 3.53q-3.24 1.27-6.48 2.54c-.53.21-1.2.42-1.19 1.11s.63 1.13 1.24 1.41a7.42 7.42 0 0 0 1 .16c5.46 1.59 11 2.74 16.52 4.29 4.25 1.2 8.57 2.5 12.95 2.14z" stroke="#1d1d1b" stroke-miterlimit="10" stroke-width="2"/><path d="m78.51 149.71c-4.85-2.09-9.67-4.21-14.45-6.44a3.94 3.94 0 0 1 -2.57-4.06q0-34 0-68a3.08 3.08 0 0 1 2-3.29c2.68-1.09 5.32-2.29 8-3.28a14.39 14.39 0 0 1 7.86-.21c3.88.78 7.7 1.84 11.55 2.8.4.1.77.32 1.17.4a1.52 1.52 0 0 1 1.38 1.75v1.75q0 33.6 0 67.21a6.22 6.22 0 0 1 -2.2 5.27c-1.52 1.28-2.77 2.83-4.43 4-1.38 1-3 1.23-4.41 2.07zm13.49-43.25v-31.74c0-.67 0-1.34 0-2s-.27-.92-.88-.53c-.84.53-1.66 1.1-2.5 1.64a17.24 17.24 0 0 1 -12.94 2.17 94.31 94.31 0 0 1 -9.76-2.83c-.86-.27-1.92-1.06-2.53-.64-.82.56-.34 1.85-.35 2.83q0 28.62 0 57.24c0 2.25.1 4.5 0 6.74a2.55 2.55 0 0 0 1.84 2.84c1.92.79 3.75 1.8 5.69 2.53 2.56 1 4.9 2.41 7.57 3.14a9.15 9.15 0 0 0 7.61-1.06c1.73-1.07 3-2.68 4.48-4a5.07 5.07 0 0 0 1.77-4.33c0-10.67 0-21.33 0-32zm-12.62-31.79c3.47.31 6.35-1.18 9.17-2.81a30.66 30.66 0 0 0 2.9-1.86c.56-.41.37-.86-.21-1.11a7.13 7.13 0 0 0 -1.19-.37c-3.76-.92-7.51-1.94-11.31-2.69a11.28 11.28 0 0 0 -4.38-.38c-2.92.53-5.44 2-8.15 2.94-.69.25-1.35.61-2 .87-.49.18-1 .36-1 1s.58.47.95.59c3.71 1.14 7.41 2.3 11.14 3.38a9.22 9.22 0 0 0 4.08.44z" stroke="#1d1d1b" stroke-miterlimit="10"/><path d="m42 114.84c0-4.32 0-8.64 0-13 0-2.79 1.23-4.37 3.85-5.06a5.81 5.81 0 0 1 5 2.14 6.92 6.92 0 0 1 1.15 3.75c0 8.07-.07 16.14 0 24.2 0 3.55-2.93 6.26-5.92 5.87a4.46 4.46 0 0 1 -4.08-4.42c0-4.5 0-8.99 0-13.48zm8-.15c0-4.32 0-8.65 0-13a2.92 2.92 0 0 0 -2.5-3 3.37 3.37 0 0 0 -3.68 1.43 3.83 3.83 0 0 0 -.29 2.18q0 12.36 0 24.71a7.41 7.41 0 0 0 0 1.49 2.92 2.92 0 0 0 4.55 2.06 3.43 3.43 0 0 0 1.92-3.14c0-4.24 0-8.48 0-12.73z"/><path d="m14.76 44.71a4.35 4.35 0 0 1 -4.25-3.45 2.19 2.19 0 0 1 2.63-2.45 6.29 6.29 0 0 1 1.86.69c1.22.71 1.18 1.64-.06 2.46a.47.47 0 0 1 -.66 0c-.21-.2-.15-.43 0-.66s.92-.7.3-1.21a2.16 2.16 0 0 0 -2.35-.16 1.28 1.28 0 0 0 -.66 1.48 2.81 2.81 0 0 0 1.85 2.16 1.89 1.89 0 0 0 2.42-.57c.1-.13.15-.3.26-.42s.41-.35.61-.15a.79.79 0 0 1 .23.64 2.1 2.1 0 0 1 -2.18 1.64z"/><path d="m20.49 109.09c.06.94-1.2 2.5-2 2.5s-1.89-1.17-1.95-2.25a1.93 1.93 0 0 1 1.55-2.15 2.12 2.12 0 0 1 2.4 1.9z"/><path d="m32.39 43.58a3.49 3.49 0 0 1 -.08.5c-.49 1.49-1 3-1.5 4.46-.22.61-.43 1.32-1.15 1.55-.37.11-1 .19-1.16 0-.4-.56.36-.51.59-.69a1.35 1.35 0 0 0 .35-1.93c-.69-1.41-1.28-2.87-1.86-4.32-.08-.18.09-.45.15-.68.19.12.48.2.57.37.56 1.2 1.07 2.41 1.61 3.62.07.14.17.37.28.38.32 0 .26-.28.34-.47.35-.93.69-1.86 1.07-2.77a.42.42 0 0 1 .61-.18 1.37 1.37 0 0 1 .18.16z"/><path d="m22.51 42.6v1.73c-.09 1.69-.9 2.23-2.43 1.66s-3.08-3.74-2.41-5.38a.45.45 0 0 1 .38-.21.48.48 0 0 1 .35.26 8.24 8.24 0 0 1 .11 1.49 4 4 0 0 0 .49 2.14 1.48 1.48 0 0 0 1.87.83c.78-.21.57-.91.59-1.46 0-.74 0-1.49.05-2.24a.5.5 0 0 1 .49-.52c.32-.06.46.2.48.43a11.41 11.41 0 0 1 .03 1.27z"/><path d="m25.56 39.27c.25.12.56.25.84.41a1.44 1.44 0 0 1 .32.33l-.45.19c-1.31.54-1.31.54-.1 1.68.36.34.18.73-.17.67-.77-.14-1 .05-1 .84v3c0 .24-.05.54-.34.5a.74.74 0 0 1 -.5-.47 32 32 0 0 1 -.1-5.95c.02-.83.82-.94 1.5-1.2z"/><path d="m15.51 49.21c-.47.42 1.57.44.16 1-.59.24-.4.36.05.48s.77.18.63.56-.55 0-.85 0a1.43 1.43 0 0 1 -1.5-1.63c0-.48-.12-1.07.46-1.3a1.41 1.41 0 0 1 1.61.29.51.51 0 0 1 .09.38 3.73 3.73 0 0 1 -.67.21 1.33 1.33 0 0 0 -.09-.21s-.11 0-.17 0z"/><path d="m13 48.7v.51a3.52 3.52 0 0 0 -.66.15c-.12.07 0 .25.16.25s.41-.18.5-.41a.75.75 0 0 1 .29 1.21c-.26.35-.6.15-.87 0-.51-.31-1.35-.32-1.15-1.29.1-.51-.53-1.23.2-1.51a1.58 1.58 0 0 1 1.88.58c.14.19-.11.44-.35.54-.09-.24-.24-.42-.5-.41s-.28.18-.16.24a2.36 2.36 0 0 0 .66.14z"/><path d="m25.51 53.7c-.55-.07-.69-1.6-1.63-.41-.27.35-.31-.16-.35-.33s-.06-.65-.15-1-.55-.92.15-1.21a1.38 1.38 0 0 1 1.83.74 13.09 13.09 0 0 1 .15 2.18zm-.76-1.82a.55.55 0 0 0 -.46-.44s-.13.1-.15.16a.37.37 0 0 0 .32.48c.08.01.2-.08.29-.2z"/><path d="m22.51 51.52c0 .66-.06 1.36-.75 1.43a1.38 1.38 0 0 1 -1.34-1 6.94 6.94 0 0 1 -.32-.68c-.09-.39-.25-1 .06-1.15.57-.18.26.54.48.8a3.45 3.45 0 0 1 .35.66c.12.23.27.44.55.4s.39-.24.43-.51.15-.62.23-.94c.54.24.2.71.31.99z"/><path d="m31 53.21c.37.09.67.39 1.14.19s.82-.07.39.51a2.32 2.32 0 0 0 -.53 1.09 1.5 1.5 0 0 1 -.21.42c-.09-.11-.22-.2-.26-.33-.18-.62-.35-1.24-.52-1.87z"/><path d="m28.51 52.2c1 .11 1 .11.75.7a7.47 7.47 0 0 0 -.24.93c-.08.34.14 1-.3 1s-.19-.7-.21-1.1 0-1 0-1.47z"/><path d="m19 49.7c-1.4.1-1.4.1-1.5 1.5a1.06 1.06 0 0 1 -.13-1.8 1 1 0 0 1 1.63.3z"/><path d="m26.51 53a5.05 5.05 0 0 1 0-.79 4 4 0 0 1 .23-.66 3.22 3.22 0 0 1 .25.62 2.18 2.18 0 0 1 0 .72c-.1.49.33 1.23-.33 1.37-.23.04-.08-.88-.15-1.26z"/><path d="m18 51.71a5.63 5.63 0 0 1 .71 0c.19 0 .47 0 .42.3 0 .08-.26.15-.4.16a.73.73 0 0 1 -.73-.47z"/><path d="m28.51 52.21a2.66 2.66 0 0 1 -.66-.16c-.12-.07 0-.25.16-.25a.52.52 0 0 1 .5.4z"/><path d="m19 49.71.25.25c-.05 0-.13 0-.16-.05a.78.78 0 0 1 -.09-.21z"/><path d="m18 51.7a.63.63 0 0 1 -.5-.49.65.65 0 0 1 .5.51z"/><path d="m31 53.2-.25-.2a.43.43 0 0 1 .17 0 1.12 1.12 0 0 1 .09.22z"/><path d="m25.51 53.71.25.25c-.05 0-.13 0-.16-.05a.67.67 0 0 1 -.09-.21z"/></g></svg>