<svg height="960" viewBox="0 0 960 960" width="960" xmlns="http://www.w3.org/2000/svg"><path d="m341.361011 5.86281599c.924085 0 1.848147 0 2.774007.02748529l339.637033 6.72625672c76.224501 1.5095691 137.227949 63.7331061 137.227949 139.972554v377.821349c0 76.239447-61.003448 138.462984-137.228221 139.972559l-88.394779 1.74998.052978 1.078181c.010577.200406.021464.399265.032658.596586l.070825 1.16554.078042 1.129057.085102 1.093008.092008 1.057391.098757 1.022206.105353.987453c.0181.161704.036467.321977.0551.48083l.114953.936135.12116.902463c.020701.147628.041655.293872.062858.43874l.130177.852766.135995.820175.141657.788017.147163.75629c.024978.123429.050179.245553.075599.366383l.155133.709512.160251.678866.165215.648653c.02794.105615.056081.209989.084419.313132l.172368.604144c.08734.294753.176396.578581.26708.851728l.183512.532124c.030939.086338.062052.171507.093336.255516l.189734.490209.096358.234802.149063.345247.122071.264564.127918.259122c.021906.042833.044131.085513.066711.128078l.14005.254307.15038.253328c.026024.04224.052553.084513.079624.126856l.169238.255211.184051.258697.200658.263969.219059.271027.239252.279872c.041658.047481.084232.095406.12776.14381l.272905.296486c.047491.050474.09601.101502.145595.153122l.310594.317118.337962.333105.367122.350878.398077.370437.659077.596233 1.003848.880102.85454.73173 2.121907 1.790771 2.844933 2.435713 10.242919 8.859219 22.214144 19.331192 6.064281 5.26227 3.734172 3.214114 2.436168 2.087863 2.344347 2.001525 3.762755 3.194704 2.881695 2.429635 2.768942 2.318415 2.657552 2.208017 2.547526 2.098446 1.839259 1.502422 1.778712 1.441599 1.718738 1.381123 1.65934 1.320995 17.74948 13.878766 1.651002 1.304927 2.396048 1.904798 2.313216 1.853258 2.245811 1.814738 1.46738 1.194854 1.448851 1.187379 2.148534 1.775489 1.795503 1.497886c1.437522 1.204716 2.845799 2.398459 4.225582 3.582569l2.048395 1.769106c8.108843 7.048864 15.205336 13.775015 21.451302 20.467639 7.173863 7.686877 13.122944 15.227289 17.802924 22.937459 6.418243 10.573923 10.493784 21.454881 11.330923 33.219843 1.309548 18.404108-.119494 33.028344-5.962311 45.794512-8.86027 19.359105-26.816254 30.592014-47.375627 30.592014l-.661908.006443-3.231599.074936-16.612772.503025-181.09027 5.933618-48.560872 1.555734-17.772952.542865-11.93431.339027-6.015987.148914-4.643348.087074-1.930306.02909-2.793423.034154-2.678655.022785-1.726273.011988h-3.004261l-2.72292-.012865-1.757954-.017303-1.71413-.024483-1.672051-.031837-1.631717-.039362-1.593129-.04706-1.556285-.054929-1.521187-.062971-1.487835-.071185c-.24529-.012559-.489263-.025466-.731955-.038727l-1.441078-.083829-1.412088-.092473-1.384844-.10129-1.359345-.110279-1.335592-.11944-1.313583-.128773-1.293319-.138278-1.274802-.147955-1.258029-.157805-1.243002-.167827-1.22972-.178021-1.218183-.188386-1.208392-.198925-1.200345-.209636c-.199484-.035841-.398706-.072136-.597701-.108887l-1.191549-.226024c-.594708-.115783-1.188035-.235743-1.780962-.359979l-1.185614-.254198-1.186293-.26577-1.188719-.277513-.78658-.189725-.883675-.218169c-1.019141-.254943-2.053696-.524502-3.131793-.814797l-1.672331-.434574-3.558292-.879929-5.349458-1.283003-6.931572-1.633226-39.698931-9.231684-9.630743-2.262977-8.324721-1.980869-6.144805-1.48612-4.488001-1.104825-1.386498-.349107c-8.808329-2.270039-16.497425-5.375947-23.277061-9.739604-9.203081-5.923487-16.420669-14.034224-20.66266-24.148449-3.943796-9.403238-4.734254-18.991899-3.279246-28.355218.884358-5.691054 2.405061-10.532631 4.587258-15.926554l.303512-.742597.522057-1.249919 1.727115-4.040679 2.65229-6.419246 4.603726-11.232181 6.875187-16.875182 6.911849-17.063398 4.782246-11.86102 5.087206-12.670693 3.316163-8.293257 4.00034-10.046761 4.708959-11.899405 3.61955-9.213926 3.327536-8.53883 2.147938-5.55708 2.533355-6.614996 1.786752-4.718144 1.194901-3.187976 1.50796-4.074069 1.135344-3.119634.832408-2.329243.726715-2.07704.44051-1.292003v-15.445l-22.209397-1.624479c-72.43185-5.29614-128.656407-65.055624-129.773655-137.430258l-.016948-2.196989v-381.846715c0-73.1692094 56.343959-133.9977614 129.299173-139.5904449l40.390827-3.0971141.543734-.08845336c6.826187-1.08639055 13.75091-1.66925349 20.730616-1.74473065zm213.811989 646.90100001-204.929986 4.058295c-3.105958.061504-6.188053.010857-9.242417-.148222l.000264 37.557434-.018157.278894c-.193285 1.71226-1.919737 6.972481-4.697311 14.633155l-.964127 2.64089-1.038021 2.809256c-.178941.481715-.360795.970052-.545481 1.464814l-1.141422 3.044098-1.205396 3.188854-1.265404 3.324165-1.321444 3.45003-2.078562 5.390387-1.444186 3.723377-1.486339 3.816188-2.29987 5.877642-3.177001 8.073545-3.274202 8.274785-3.339663 8.400471-4.218281 10.562228-4.20898 10.492984-5.758914 14.292873-5.449076 13.462982-6.276928 15.438445-6.067037 14.841822-2.094317 5.095652-1.719504 4.157469-.818753 1.93999-.85414 1.984592-.283913.666338-.250022.594559-.367628.893934-.226636.567111-.328334.851487-.209648.567882-.20106.567801-.191448.567499-.180809.566974c-.116767.377759-.225759.75502-.32561 1.131487l-.14275.564069c-1.829969 7.6059.36843 14.825686 17.939093 19.201451l2.373242.587618 4.220512 1.031131 5.443654 1.310829 7.766951 1.844941 8.170424 1.91959 41.004212 9.537275 7.312404 1.72602 4.892902 1.177456 3.307259.818514 1.361141.347668 2.160832.571944c.669432.175535 1.332636.344333 1.994788.50642l.661994.159853.693647.162587 1.044281.234716.700655.150377.705769.145506 1.071129.209141 1.090064.19822 1.113454.187325 1.141301.176454.778538.111609.794216.106796.811213.10199.829532.097191.84917.092399.87013.087616.892409.082839.916009.078069.94093.073306.967171.068552.994731.063804 1.546664.08682 1.069412.051967 1.664874.069098 1.152345.040174 1.187829.035471 1.851164.044401 1.938431.033859 2.030154.02334 2.126332.015455h4.368492l3.336035-.03383 2.641308-.032533 2.765945-.043314 1.915543-.034854 1.939764-.041133 7.569133-.195027 11.642091-.336965 17.40796-.5338 40.695003-1.300354 147.955429-4.863045 39.280326-1.263113 14.209727-.430056 4.797814-.129822 2.181338-.046577.894685-.008401c9.440994-.161691 14.942707-8.372141 13.151523-33.545049-1.139844-16.019123-21.227812-36.118956-41.851502-53.485003l-1.965192-1.645425c-.982817-.818363-1.965523-1.630035-2.94613-2.434282l-1.957827-1.598376-1.948695-1.577266-1.936029-1.554849-1.919829-1.531123-1.900095-1.50609-1.876824-1.479747-1.850021-1.452098-1.819682-1.42314-6.078944-4.734056-4.00411-3.123404-2.24076-1.761005-1.589559-1.259828-1.773003-1.417943-1.80878-1.459177c-.304295-.246479-.609967-.494562-.916961-.74419l-1.857372-1.515855-1.886385-1.550192-1.912692-1.581767-1.936294-1.610585-1.95719-1.636641-2.969049-2.497783-3.000847-2.540889-4.034814-3.438808-2.670853-2.288634c-1.935505-1.661738-3.87251-3.331488-5.800427-4.998449l-1.650027-1.427889-4.047987-3.512215-13.560149-11.825383-10.851237-9.457868-4.457156-3.851296-2.246673-1.924331-2.066348-1.753855-1.596539-1.34154-.879463-.744465-.867442-.74432-.855187-.745737-.842692-.748716-.829962-.753258-.816995-.75936-.80379-.767026c-11.425223-11.056435-18.708189-24.95642-18.708189-62.398936zm-216.857816 89.616004c5.01674-11.028378 18.775421-11.656089 23.832565.223908l5.241234 13.028433 2.320561 5.738025 1.598703 3.92109 1.587474 3.868755 1.576761 3.816524c.26193.63174.523435 1.261309.784526 1.888708l1.561666 3.738375c.778436 1.856187 1.553341 3.692887 2.325006 5.510157l1.539098 3.608653 1.530976 3.556948 1.203607 2.772012 1.186361 2.709629c.196263.446322.391786.88998.586561 1.330944l1.159578 2.613191.816042 1.824011.804722 1.785896.793217 1.747258 1.167846 2.547291 1.140915 2.457405 1.113357 2.36575.72662 1.525374 1.066038 2.209062.694493 1.419277.681318 1.375921 1.489646 2.973088c.269552.542827.534764 1.081486.795649 1.616046l.769691 1.591451c1.008984 2.105718 1.948958 4.146931 2.820775 6.127971l.641096 1.474565c.104724.243903.208387.486882.310989.728947l.602908 1.441479c.09837.238439.195682.47598.29194.712632l.5649 1.409306c.092044.233127.183037.465383.27298.696774l.527071 1.378046c.257249.683906.505079 1.360188.743534 2.029073l.464423 1.327977c5.272757 15.379589 5.457852 26.815256 1.126709 37.208182-5.989982 14.373446-18.751247 23.262502-32.098296 20.671865l-2.786273-.55562-7.311503-1.513951-11.139579-2.365029-13.670924-2.96078-5.820336-1.279753-6.233612-1.385393-6.601992-1.487881-5.962342-1.368292-3.252406-.761717c-11.942724-2.887129-18.911736-7.359457-21.096361-15.61554-.963626-3.641714-.698633-7.153976.370032-11.154895.068869-.257835.140511-.515922.215674-.777108l.236799-.795704c.082952-.270232.170173-.546412.262409-.831385l.292505-.884153.327087-.954005 1.216766-3.44509.303778-.875167.259366-.768444.335425-1.019122.680678-2.038709.737949-2.164635.522967-1.510733.547197-1.563224.865158-2.44022.916924-2.550507.967039-2.656106 1.015503-2.757011 1.426539-3.824872 1.505847-3.984801 1.179078-3.086865.808797-2.102095 1.24609-3.215948 1.284098-3.287143.876364-2.228665 1.343772-3.395375 1.377375-3.454061 1.409328-3.508055 1.439628-3.557357 1.468278-3.601968 1.999417-4.863912 1.528707-3.687817 1.551852-3.716791 1.573347-3.741074 1.060024-2.505223 1.605503-3.771119 1.079932-2.52091 1.633071-3.788134 1.64741-3.792088 1.660099-3.79135 1.112966-2.52484 1.677577-3.779697 1.12309-2.512727 1.126282-2.50545zm11.527816 23.21918-1.44366 3.296682-1.412386 3.247163-1.401928 3.244819-1.851088 4.317438-1.827987 4.300456-1.35428 3.209792-1.33875 3.193029-1.322132 3.173178-1.735115 4.194684-1.701065 4.146576-1.251903 3.073956-2.037771 5.045581-1.583458 3.958313-1.916646 4.838189-1.480037 3.773863-1.077256 2.76919-1.390583 3.60477-1.661061 4.355065-1.263976 3.354409-.90845 2.435375-1.156489 3.134052-1.091525 2.998063-.774462 2.154901-.735385 2.071198-.917846 2.626054-.639976 1.863878-.597276 1.769878-.553488 1.672787-.303112.911663-.325065.950626-1.610345 4.581594-.278798.841198-.225013.723548-.123942.429477-.097746.364555.084025.042502c1.00505.48256 2.440048.997979 4.326516 1.517021l.836189.222584c.287986.074211.585248.148412.891848.222515l1.069782.252452 3.427137.796188 6.052032 1.381962 5.808825 1.305171 6.796501 1.507138 6.638755 1.455121 8.287783 1.79565 10.984388 2.344804 5.607968 1.177302 4.51251.929712 2.712026.541116c2.94583.57178 7.177707-2.375999 9.826394-8.731737 1.138831-2.732716 1.677669-5.819779 1.473777-9.551314l-.045288-.685627c-.026767-.346429-.059745-.698329-.099039-1.055919l-.087044-.722831c-.079608-.608788-.176962-1.233784-.292558-1.875997l-.147503-.778984-.165207-.795901c-.174122-.804487-.375085-1.634929-.603747-2.49307l-.237927-.867439c-.041203-.146133-.083185-.293052-.125947-.440765l-.265983-.895864c-.091807-.301839-.186772-.606917-.284925-.915299l-.304059-.935121c-.052281-.157527-.105368-.315895-.159264-.475115l-.333116-.96558-.352725-.986372-.372526-1.00755-.392517-1.029116c-.067096-.173338-.135033-.347591-.203815-.522767l-.422861-1.062192-.443329-1.084726-.463988-1.107649-.484836-1.130958-.505877-1.154656-.527106-1.178741c-.089631-.198485-.180154-.39799-.271574-.598523l-.55931-1.215595c-.095022-.204676-.190948-.410396-.287783-.617168l-.591941-1.25332-.613935-1.278955-.636118-1.304978-.658492-1.331387-1.414388-2.820825-1.124802-2.279713-.766206-1.576291-.779119-1.620928-.791894-1.665097-.804536-1.708794-.81704-1.752023-.829408-1.794781-1.267007-2.771316-1.294072-2.864879-.877524-1.961116-1.186243-2.673262c-.199154-.450873-.399025-.904392-.599606-1.360527l-1.211921-2.767975-1.22852-2.829377-1.55488-3.612431c-.519447-1.212431-1.040083-2.433166-1.562011-3.662259l-1.569761-3.712406-1.57813-3.762869-1.58712-3.81365c-.265303-.639858-.531007-1.281845-.797123-1.925967l-1.601763-3.890417-1.6123-3.941992c-.539258-1.322628-1.080375-2.653906-1.623454-3.993884zm-5.099283-719.6922984c-57.640263 1.5821281-103.880589 48.804653-103.880589 106.8271844v377.244953c0 .705314.006982 1.41061.020946 2.115786 1.168516 59.010075 49.952904 105.899923 108.962978 104.731406l325.947823-6.454412c58.185601-1.15219 104.752353-48.650185 104.752353-106.847192v-364.336128c0-56.453118-43.817794-102.8388144-99.553948-106.6197304zm-74.288756 6.2015947-1.362705.2683832c-46.028308 9.3024417-80.092256 49.9242565-80.092256 98.0068795v381.846715c0 48.511199 34.668258 89.406381 81.28157 98.240185-29.38326-22.677223-48.601567-57.983416-49.393576-97.979872-.016577-.837147-.024866-1.674437-.024866-2.511748v-377.244953c0-40.985543 19.435002-77.4317975 49.591833-100.6255897zm82.464825 15.8178931.765237.0166224 325.947823 6.4544124c22.481451.4451772 43.442117 9.6731812 58.879784 25.4195717 15.252692 15.5577151 24.043486 36.3894971 24.248882 58.6323901v365.075241c0 22.485858-8.811214 43.625112-24.248882 59.371503-15.252691 15.557714-35.906349 24.759216-58.140881 25.401683l-.738903.017888-325.947823 6.454413c-22.785336.451194-44.343101-8.167895-60.44812-23.647477-16.10502-15.479581-25.570791-36.67923-26.022843-59.514058l-.015765-.83948v-378.035013c0-22.789803 9.044203-44.172701 24.839599-59.9680972 15.795397-15.7953962 37.178295-24.8395994 59.968098-24.8395994zm-.297786 19.9998106h-1.277399c-17.181875.1757003-33.235655 7.0530087-45.164571 18.981924-12.081851 12.081851-18.981858 28.39501-18.981858 45.825962v377.837024l.012825.690998c.3451 17.427536 7.566602 33.600893 19.885282 45.441178s28.765246 18.415847 46.192782 18.070748l325.902388-6.45341.648008-.015674c16.967212-.490347 32.725778-7.511015 44.39173-19.410263 11.807661-12.04379 18.530428-28.17234 18.530428-45.37006v-364.938873c-.157174-16.973595-6.864476-32.868068-18.530428-44.767316-11.807661-12.043791-27.799953-19.0844517-44.994303-19.4249339l-325.923075-6.4539529zm76.559691 242.607705c5.126008-58.590548 54.383505-102.365362 110.287389-97.474406 55.903885 4.890956 96.811632 56.554207 91.685624 115.144755-5.126009 58.590547-54.383505 102.365361-110.28739 97.474405-22.491193-1.967724-42.555103-11.506038-58.170574-26.020252-23.196851-20.387785-36.725871-52.424643-33.701333-86.995273.031078-.355217.06383-.709868.098248-1.063943zm100.972287-70.70363c-40.764199-3.566405-77.303123 29.638105-81.234677 74.575974l.099216-1.064792c-2.143405 28.163838 8.606042 54.125469 26.982544 71.367437 11.042461 9.657476 24.772861 15.917134 39.968797 17.246606 40.764199 3.566405 77.303123-29.638105 81.234677-74.575974s-26.286359-83.982846-67.050557-87.549251z"/></svg>