<svg height="960" viewBox="0 0 960 960" width="960" xmlns="http://www.w3.org/2000/svg"><path d="m765.031867 45.5479526 130.02623 68.5880454c22.241518 11.732266 36.547668 34.931371 36.547668 60.044594l.000168 35.064155c.009857 20.589817.453926 29.103622 1.422475 33.919893l.01867.093408.016086.031019c.16903.328763.370042.710219.601324 1.139132l.142388.263001c1.213653 2.232995 2.55834 4.545108 5.633272 9.728371.019116.032222.019116.032222.038245.064466 3.700437 6.237587 5.541476 9.394853 7.284193 12.620746l.267572.497258c.222726.41554.44532.834863.671494 1.264603 1.64577 3.127036 3.008216 5.987151 4.158571 8.882534 2.31173 5.818502 3.730023 11.209301 3.730023 18.2603v326.914829c0 135.912118-99.153842 244.73243-233.618467 256.028948l-336.721373 28.288326c-50.151352 4.213269-101.345007-7.433158-146.576095-33.178947l-121.053676-68.90443c-65.2712583-37.152766-106.6945575-106.782728-106.6945575-180.133489v-457.192002c0-48.863655 36.6402934-88.3803264 85.2950028-91.6691982l617.2870127-41.7262359c17.723518-1.1980419 35.572134 2.6962806 51.523774 11.1106737zm-48.826084 28.7982535-617.2870122 41.7262359c-13.1786452.890826-24.7180653 6.377743-33.1771166 14.906473 14.9907296 7.937482 23.8920548 12.650381 32.0569734 16.973383l.6954847.368231c.115657.061236.2311957.122409.3466316.183528l.6915041.366124c.1150861.060934.2301002.121829.3450576.182695l1.8126634.959733 1.209879.640584c7.676757 4.064539 15.703268 8.314259 28.649253 15.168646 17.021635 9.012282 23.108571 12.235074 28.295269 14.981226l.527717.279405c.291874.154536.581946.308117.872056.461719l.522639.276717c.058164.030795.116374.061615.174644.092467l.480596.254457c2.01068 1.064575 4.139566 2.191736 6.978082 3.694618 21.656164 11.466082 35.594156 34.106746 35.594156 58.013304v483.102615c0 43.68286 21.341169 86.080868 56.436629 113.982269 37.545532 20.63204 79.549091 29.859242 120.47087 26.421359l336.721373-28.288325c113.665356-9.549149 196.967114-100.971964 196.967114-216.169363v-326.914829c0-3.305716-4.946813-11.730776-10.0417-20.321115l-.882364-1.487488-.587155-.990674c-4.199939-7.091957-8.185613-13.971202-9.243569-17.836452-2.435759-8.899064-3.214137-19.093838-3.229461-46.014699l-.000232-35.178458c0-10.120544-5.960248-19.785788-15.210158-24.665059l-130.02623-68.5880455c-9.459764-4.9899683-19.925113-7.2733635-30.163594-6.5812814zm-661.4748139 73.4337889-.1856163.461728c-2.3439911 6.014133-3.6192753 12.618727-3.6192753 19.59099v457.192002c0 58.817116 33.5759693 115.25621 86.4818315 145.370523l71.505962 40.70235c-15.340441-25.342416-23.919611-54.417743-23.919611-84.119221v-483.102615c0-16.421231-9.777173-32.303122-24.952583-40.337902-11.354062-6.011526-11.354062-6.011526-37.851003-20.040609-13.286669-7.034766-21.391536-11.325973-29.2546685-15.48919l-1.2084717-.639838-.3563547-.188676-1.4276305-.755874c-.1192307-.063128-.2385495-.126302-.3579737-.189533l-.7179449-.380123c-.719482-.380937-1.4439855-.764533-2.177205-1.152744l-.7362615-.389821c-7.8300828-4.145719-16.7755811-8.882007-31.2231944-16.531447zm683.1661249-66.6645171 79.349383 38.9602101c.831641.408332 1.602502.930255 2.290465 1.550793l30.163699 27.20747c2.102204 1.896175 3.302177 4.594544 3.302177 7.425575v81.631193c0 16.407894 9.180172 33.131647 28.35929 50.282412 6.580609 5.884654 2.864495 16.787262-5.94023 17.427883-197.67254 14.382394-346.713292 24.643323-447.136053 30.783519-50.255606 3.072802-88.351461 5.114672-114.312825 6.12618-33.111542 1.290094-42.623127 1.274668-47.134064-1.773233-6.377853-4.309321-14.592916-14.130524-21.127417-25.141155-1.311265-2.209481-2.536036-4.427713-3.666228-6.646054-.040737-.076887-.080355-.155005-.118975-.233725-5.504087-10.867969-8.731502-21.73092-8.731502-31.573194l-.000123-75.720506-.12808-.182339c-.147172-.20777-.308861-.431016-.483876-.667539l-.179414-.240866c-1.589437-2.12015-3.847214-4.79105-6.357425-7.491955-5.863663-6.309109-11.98673-11.61662-16.240118-13.937415-7.95151-4.338618-32.74094-17.832081-74.35925-40.475462-8.796588-4.785982-5.878123-18.095758 4.113966-18.761905l593.264044-39.5513698c1.749409-.1166286 3.498736.2287437 5.072556 1.0014827zm104.957004 191.9618931-574.837686 40.068705c3.115379 4.290951 6.219233 7.840998 8.569566 9.885793l.050713.042977.216615.015432c1.545566.098521 3.744152.155848 6.553231.167745l1.393003-.000069c6.661675-.011071 16.138952-.254564 28.394809-.732078 25.784654-1.004623 63.750037-3.0395 113.870886-6.104062 30.099045-1.84036 64.57595-4.051677 103.430342-6.633929l7.829245-.521396c84.134517-5.614316 188.191351-12.916798 312.166885-21.907255l2.171984-.158388-.363244-.443921c-3.663994-4.510476-6.815399-9.070683-9.446349-13.679554zm-10.282892-105.852523-579.377128 37.899099.000736 72.019405c0 4.805071 1.391612 10.56816 3.911501 16.713878l575.464891-40.112382zm-568.849142 74.810113c0-15.280246 11.473404-26.71772 25.626565-25.546313 14.153161 1.171408 25.626564 14.508108 25.626564 29.788354 0 15.280247-11.473403 26.717721-25.626564 25.546313-14.153161-1.171407-25.626565-14.508108-25.626565-29.788354zm84.055132-5.339645c0-15.280246 11.473404-26.71772 25.626565-25.546312 14.153161 1.171407 25.626564 14.508107 25.626564 29.788354 0 15.280246-11.473403 26.71772-25.626564 25.546312-14.153161-1.171407-25.626565-14.508107-25.626565-29.788354zm88.155382-5.000281c0-15.280246 11.473404-26.71772 25.626565-25.546313s25.626565 14.508108 25.626565 29.788354c0 15.280247-11.473404 26.71772-25.626565 25.546313s-25.626565-14.508108-25.626565-29.788354zm84.055132-6.364361c0-15.280246 11.473404-26.71772 25.626565-25.546313 14.153161 1.171408 25.626564 14.508108 25.626564 29.788354 0 15.280247-11.473403 26.717721-25.626564 25.546313-14.153161-1.171407-25.626565-14.508108-25.626565-29.788354zm84.055132-7.389077c0-15.280246 11.473404-26.71772 25.626565-25.546313 14.153161 1.171408 25.626564 14.508108 25.626564 29.788355 0 15.280246-11.473403 26.71772-25.626564 25.546312-14.153161-1.171407-25.626565-14.508107-25.626565-29.788354zm85.080195-6.364361c0-15.280246 11.473403-26.71772 25.626564-25.546312 14.153161 1.171407 25.626565 14.508107 25.626565 29.788354 0 15.280246-11.473404 26.71772-25.626565 25.546313-14.153161-1.171408-25.626564-14.508108-25.626564-29.788355zm82.005006-5.169963c0-15.280246 11.473404-26.71772 25.626565-25.546313 14.153161 1.171408 25.626565 14.508108 25.626565 29.788355 0 15.280246-11.473404 26.71772-25.626565 25.546312-14.153161-1.171407-25.626565-14.508107-25.626565-29.788354zm-96.380965-102.378326-16.657 1.11 49.820665 26.777825-64.925415 4.249157-45.57825-26.980982-26.386 1.759 48.806682 27.170193-64.68086 3.617786-44.849822-26.739979-21.133 1.409 49.930511 26.841155-65.234695 3.773145-41.934816-26.7983-27.637 1.843 52.462381 28.829499-71.370995 4.014162-48.459386-28.352661-16.47 1.098 48.108715 27.544292-69.714219 4.415322-40.588496-27.812614-20.436 1.362 44.840923 27.261836-57.388528 4.721139c4.991033 3.659603 10.298337 8.56946 15.423266 14.083716 2.126334 2.287866 3.995756 4.376564 5.597111 6.308297l572.701228-37.462988-11.816387-10.658101-22.369613-10.983899-60.323684 4.252317z"/></svg>