<?xml version="1.0" encoding="utf-8"?>
<!-- Generator: Adobe Illustrator 21.0.0, SVG Export Plug-In . SVG Version: 6.00 Build 0)  -->
<svg version="1.1" id="Layer_1" xmlns="http://www.w3.org/2000/svg" xmlns:xlink="http://www.w3.org/1999/xlink" x="0px" y="0px"
	 viewBox="0 0 1417.3 960.2" style="enable-background:new 0 0 1417.3 960.2;" xml:space="preserve">
<g>
	<path d="M403.6,10.6c2.8,0,5.1,0,7.4,0c114.1,0,228.3-1,342.4,0.4c80.7,1,144.8,35.1,187,105.5c22,36.7,30.5,77.3,29.7,120
		c-0.6,31.8-7.1,62.2-20,91.2c-0.3,0.7-0.5,1.6-0.8,2.9c1.9,4.8,4.3,9.9,6.1,15.2c26.9,80,19.8,155.5-32.1,223.7
		c-33.6,44.2-80,68.6-134.4,77.4c-15.1,2.4-30.6,3.3-45.9,3.3c-110,0.3-219.9,0.1-329.9,0.1c-2.9,0-5.7,0-9.2,0
		c-0.2-3-0.5-5.1-0.5-7.3c-0.1-37.6-0.2-75.3-0.1-112.9c0.2-60.2,40.1-108.9,98.9-120.8c8.5-1.7,17.3-2.1,26-2.1
		c73.4-0.2,146.8-0.1,220.1-0.3c27.9-0.1,54.9-5.1,80.4-17.1c26.4-12.4,48-30.4,64.7-54.2c1.2-1.7,2.2-3.4,3.5-5.4
		c-12.8-19.8-28.9-36-48.6-48.6c-27.6-17.7-58.1-27-90.7-27.3c-76.1-0.7-152.2-0.3-228.2-0.6c-48.4-0.2-85.6-20.5-110.5-62.5
		c-10-17-15.2-35.6-15.4-55.2C402.7,96.1,403,56,403,15.9C403,14.5,403.3,13,403.6,10.6z M918.1,379.1c-0.9,0.3-1.2,0.3-1.3,0.4
		c-1,1-2,2.1-3,3.1c-24.4,26.3-53.6,44.9-87.5,56.7c-26.4,9.2-53.7,12.9-81.4,13c-71.9,0.3-143.8,0.1-215.7,0.1
		c-5.8,0-11.7,0-17.4,1.1c-38.1,7.2-63.4,37.8-63.6,76.6c-0.1,22.9,0,45.7,0.1,68.6c0,2,0.3,4,0.4,6.7c3.4,0,6.3,0,9.1,0
		c93.1,0,186.2,0.1,279.3-0.1c13.3,0,26.7-0.4,39.8-2.2c41.4-5.6,77-23.2,104.9-54.7c30.7-34.7,43.4-75.9,42.9-121.6
		C924.5,410.7,922.7,394.9,918.1,379.1z M917.2,283.5c1.1-3.2,1.7-4.5,2-5.8c7.4-30.4,7.5-60.9,0.4-91.3
		c-18.4-78.3-83.9-129-162.8-130.1c-100.8-1.4-201.6-0.4-302.4-0.4c-2,0-3.9,0.3-5.9,0.5c-0.1,1.9-0.3,3.2-0.3,4.4
		c0,24.1-0.1,48.2,0,72.3c0,5.2,0.7,10.4,1.8,15.4c8.1,36.1,38.6,60.2,76.3,60.3c73.4,0.1,146.7-0.2,220.1,0.1
		c13.2,0,26.6,0.8,39.7,2.8c49.9,7.6,92.7,29.3,127.3,66.4C914.7,279.4,915.6,281,917.2,283.5z"/>
	<path d="M9.9,946c0-9.4-0.5-18.6,0.1-27.7c0.8-10.8,10.3-20.1,21.6-20.8c12.6-0.7,25.3-0.4,38-0.6c5.4-0.1,10.8,0,16.2-0.6
		c9.8-1,17.5-6,23.4-14.3c-6.6-10.3-16.2-14.9-27.8-15.2c-14.7-0.4-29.5-0.1-44.3-0.2c-17.4-0.1-27.4-10.1-27.4-27.5
		c0-7.2,0-14.4,0-22.2c3.2-0.2,5.6-0.4,8-0.4c19.7,0,39.5,0,59.2,0.1c35.6,0.1,55.9,28.4,44.8,62.3c-0.3,0.8-0.5,1.6-0.8,2.9
		c3.6,9.7,5.2,20,2.8,30.7c-4.2,18.7-20,33.3-39.1,33.8c-24.1,0.7-48.2,0.2-72.3,0.2C11.8,946.6,11.3,946.3,9.9,946z M19,936.9
		c3.4,0.2,5.6,0.4,7.8,0.4c12,0,24.1,0.1,36.1,0c8.1-0.1,16.3,0.1,24.2-1c19.6-2.8,31.9-22.9,26.4-42.5c-0.6,0.2-1.2,0.2-1.6,0.6
		c-10.2,9.5-22.4,12.9-36,12.6c-13.5-0.3-27-0.1-40.5,0c-7.7,0.1-13.8,4-15.1,10.6C19.2,923.6,19.5,930,19,936.9z M113.6,869.8
		c6-20.8-8.8-42.1-30.3-42.8c-20.3-0.6-40.7-0.2-61.1-0.2c-0.8,0-1.5,0.4-2.9,0.8c0,4.4-0.2,8.7,0,13c0.5,10.4,6.1,15.9,16.6,16
		c12.3,0.1,24.5,0.3,36.8,0c14.6-0.4,28.1,2.4,39.2,12.6C112.4,869.6,113.1,869.6,113.6,869.8z"/>
	<path d="M470.3,817c31.1,0,61,0,91.5,0c0,3.2,0,6.2,0,9.8c-27,0-53.7,0-80.8,0c0,16.4,0,32,0,48.6c26.9,0,53.5,0,80.8,0
		c0,3.9,0,6.8,0,10.5c-27.1,0-53.9,0-80.4,0c-5.8,33.5,14.9,47.7,40.6,50.2c10.5,1,21.2,0.3,31.8,0.3c2.5,0,4.9,0,8,0
		c0,3.6,0,6.5,0,10.4c-19.3-1.1-38.4,2.6-57-3.8c-23.4-8-34.5-23.4-34.5-48.1c0-23.3,0-46.5,0-69.8
		C470.3,822.6,470.3,820.2,470.3,817z"/>
	<path d="M401.8,817.1c3.8,0,6.6,0,10.3,0c0,2.8,0,5.2,0,7.7c0,23.1,0,46.1,0,69.2c0,27.7-12.2,43.6-39.2,50.5
		c-17.1,4.4-33.9,2.9-49.6-5.3c-16.4-8.6-25.5-21.8-25.4-41c0.2-24.9,0.1-49.9,0.1-74.8c0-1.8,0-3.7,0-6.2c3.4,0,6.3,0,9.8,0
		c0.2,2.7,0.4,5.1,0.4,7.5c0,24.3,0.3,48.6-0.1,72.9c-0.2,15.6,7,26.2,20.5,32.7c18,8.6,36.2,8.5,54-0.6
		c12.6-6.5,19.5-16.8,19.3-31.5c-0.3-24.3-0.1-48.6-0.1-72.9C401.8,822.9,401.8,820.5,401.8,817.1z"/>
	<path d="M893.7,881.5c0.1,37.4-29.8,67.6-67,67.7c-37.8,0.1-68.3-29.8-68.3-67.1c-0.1-37.3,30.4-67.9,67.8-67.9
		C863.3,814.1,893.5,844.3,893.7,881.5z M763.3,881.9c0.1,34.6,28.1,62.7,62.7,62.7c34.4,0,62.9-28.3,63-62.6
		c0.1-34.6-28.3-62.8-63.3-62.7C791,819.3,763.3,847.2,763.3,881.9z"/>
	<path d="M1284.5,947.9c0-44.4,0-87.9,0-132.1c2.4-0.2,4.4-0.4,6.4-0.5c17,0,34.1-0.1,51.1,0c34.2,0.3,63.5,27.6,65.3,60.7
		c2,36.5-22.3,67.1-57.2,71.3c-9.4,1.1-19.1,0.4-28.7,0.4C1309.4,948,1297.4,947.9,1284.5,947.9z M1289.1,943.7
		c12.1,0,23.7,0.2,35.3,0c9.9-0.2,20.1,0.2,29.8-1.4c28.5-4.8,49.5-31.9,49.1-62.1c-0.4-28.6-22.5-56-50.4-59
		c-20.6-2.2-41.5-0.9-62.2-1.1c-0.4,0-0.7,0.4-1.5,0.8C1289.1,861.3,1289.1,901.9,1289.1,943.7z"/>
	<path d="M1114.1,947.6c0-44.1,0-87.7,0-131.2c4.4-2.2,6.2,1.1,8.2,3.6c30.9,37,61.7,74.1,92.5,111.1c2.4,2.9,4.8,5.7,8.6,8.4
		c0-41.2,0-82.4,0-123.6c5.4-0.2,4.3,3.1,4.3,5.2c0.1,17,0.1,34.1,0.1,51.1c0,22.4,0,44.9,0,67.3c0,2.5,0,4.9,0,7.3
		c-4.9,2.7-6.8-0.9-8.9-3.5c-19.2-23-38.3-46-57.4-69c-12.9-15.5-25.8-31-38.7-46.5c-1-1.2-2.2-2.4-4.4-4.9c0,3.7,0,5.8,0,8
		c0,36.8,0,73.6-0.1,110.3C1118.2,943.8,1119.9,947.7,1114.1,947.6z"/>
	<path d="M714.7,816.2c0,1.3,0,2.3,0,3.8c-2.6,0.1-5.1,0.3-7.5,0.3c-20.6,0-41.2-0.1-61.7,0.1c-12.3,0.1-22.4,7.7-26.6,19.1
		c-4.2,11.5-0.9,24.4,8.4,32.3c5.4,4.6,11.6,7.1,18.8,7.1c12.9,0,25.8-0.2,38.7,0.1c17.4,0.4,30.9,12.8,33.6,30.2
		c2.3,15.1-7.3,31.1-22.2,36.5c-3.3,1.2-6.9,2-10.3,2.1c-22,0.2-44.1,0.1-66.1,0.1c-1.4,0-2.8-0.4-4.2-0.7c-0.5-4.7,2.8-3.6,4.9-3.7
		c10.4-0.1,20.8-0.1,31.2-0.1c10.8,0,21.6,0.2,32.4-0.1c15.2-0.5,27.5-11.1,29.3-24.8c2.1-15.6-6.1-29.2-20.6-33.5
		c-3.5-1-7.4-1.2-11.1-1.2c-11.4-0.2-22.9,0.2-34.3-0.1c-25.5-0.7-41.7-23.9-32.6-46.6c5.4-13.5,15.8-21.1,30.1-21.6
		c22.4-0.7,44.9-0.2,67.3-0.1C712.9,815.5,713.5,815.8,714.7,816.2z"/>
	<path d="M240.6,936.9c0,3.5,0,6.1,0,10.1c-6-0.5-11.8-0.6-17.3-1.6c-11.5-2-21.8-6.7-30.3-14.8c-8.4-8-12.9-17.9-13-29.4
		c-0.3-26.6-0.1-53.2-0.1-79.8c0-1.2,0.4-2.4,0.6-4.1c3,0,5.7,0,9.2,0c0.1,2.5,0.4,4.9,0.4,7.4c0,24.1,0.2,48.2-0.1,72.3
		c-0.2,16.5,7.4,27.9,22.2,34.2c6.6,2.8,13.9,3.7,21,5.2C235.3,936.8,237.6,936.7,240.6,936.9z"/>
	<path d="M1053.9,816c0.1,2.5,0.4,4.9,0.4,7.3c0,25.8-0.1,51.5,0.1,77.3c0.2,18.8-8.4,32.4-24.7,40.7c-21.4,10.9-43.3,10.9-64.7,0.1
		c-16.3-8.3-25-21.7-24.8-40.6c0.4-26.4,0.1-52.8,0.1-79.2c0-2.3-1.3-5.8,4.1-5.7c0.1,2.5,0.3,4.9,0.3,7.2c0,25.6,0.2,51.1,0,76.7
		c-0.2,18,8,30.7,23.9,38.1c19.9,9.3,39.9,9,59.4-1.3c13.9-7.4,21.5-18.9,21.3-35.3c-0.3-26.6-0.1-53.2,0-79.8
		C1049.2,819.1,1048.1,815.3,1053.9,816z"/>
</g>
</svg>
