<?xml version="1.0" encoding="utf-8"?>
<!-- Generator: Adobe Illustrator 21.0.0, SVG Export Plug-In . SVG Version: 6.00 Build 0)  -->
<svg version="1.1" id="Layer_1" xmlns="http://www.w3.org/2000/svg" xmlns:xlink="http://www.w3.org/1999/xlink" x="0px" y="0px"
	 viewBox="0 0 1417.3 1417.3" style="enable-background:new 0 0 1417.3 1417.3;" xml:space="preserve">
<g>
	<path d="M1410,509.5c0-0.1,0-0.2,0-0.3c-0.1-0.6-0.2-1.2-0.4-1.8c-0.1-0.4-0.2-0.7-0.3-1.1c0,0,0-0.1,0-0.1
		c-6-21.5-35.5-37.8-40.2-40.3c-9.6-5.8-336.4-203.3-406.6-245.8c-0.1-0.1-0.2-0.1-0.4-0.2c-1.6-1-3.1-1.9-4.4-2.6
		c-2.8-1.7-5.7-3.3-8.7-4.8c0,0-0.1,0-0.1-0.1c-58.4-29.3-131.1-11.1-139.7-8.8c-0.2,0-0.3,0.1-0.4,0.1L62,345.4
		c-1.3,0.2-2.6,0.5-3.9,0.8c-0.5,0.1-1.1,0.2-1.6,0.3c-0.7,0.1-1.4,0.3-2.1,0.4c-0.7,0.2-1.4,0.3-2.1,0.5c-0.4,0.1-0.9,0.2-1.3,0.3
		c-0.9,0.2-1.7,0.4-2.5,0.6c-0.2,0-0.3,0.1-0.5,0.1c-33.7,8.6-52.1,22.8-54.7,42.3c-0.6,4.1-0.4,8.2,0.3,11.9c0,0.1,0,0.2,0,0.3
		c0.1,0.5,0.2,1.1,0.3,1.6c0,0.2,0.1,0.3,0.1,0.5c0.1,0.4,0.2,0.9,0.3,1.3c0.1,0.2,0.1,0.5,0.2,0.7c0.1,0.4,0.2,0.8,0.4,1.2
		c0.1,0.3,0.2,0.5,0.2,0.8c0.2,0.6,0.4,1.1,0.6,1.6c0,0.1,0.1,0.2,0.1,0.3l67.8,338.2l0.1,0.3c0.2,0.7,1.9,7.4,7.9,18
		c5.5,10,211.9,369.9,223.6,390.2c1.5,3.5,10.7,23,32.6,38.1c19.5,13.5,41.4,18.3,62.6,18.3c21.3,0,41.9-4.8,58.8-10.5
		c111.7-37.5,838.6-286,846-288.5c1.4-0.5,35-12.5,41.8-39.7c4.7-18.9,20.6-93.4,69-340.5c1.1-5.7,1.9-9.6,2.2-11.2
		c0.4-0.9,0.7-1.8,1-2.8c0-0.1,0.1-0.3,0.1-0.4c0.1-0.3,0.2-0.5,0.2-0.8C1410.4,516.3,1410.5,512.9,1410,509.5z M1349.5,742.6
		c-1.6,8.9-3.7,20.2-5.9,32.3c-12.3,60.7-18.1,87-20.6,97c-4.9,19.5-32.2,29.4-32.4,29.4c-7.3,2.5-734.2,250.9-845.9,288.4
		c-104.7,35.2-134.7-35-135.9-37.9l-0.4-0.9c-2.2-3.8-218.2-380.4-223.7-390.4c-4.6-8.3-6.2-13.6-6.4-14.4L54.6,628.8
		C94.5,696.5,219.9,908,265.7,970.7c23.3,31.9,62.5,50.3,113.2,53.2c5.1,0.3,10,0.4,14.8,0.4c30.8,0,53.9-5.3,55.1-5.6l0.3-0.1
		c1.9-0.6,52.1-16.7,127.5-40.8c2.1,2.3,5.1,3.7,8.2,3.7c1.1,0,2.2-0.2,3.3-0.5l615.6-194c4.3-1.3,7.1-5,7.6-9.2
		c46.5-14.2,82-24.6,100.3-29.4c16.7-4.4,29.9-9.5,39.5-15.3L1349.5,742.6z M1354.6,719.9C1354.6,719.9,1354.6,719.9,1354.6,719.9
		c-9.9,9.2-28.5,15.8-45.1,20.1c-18.4,4.8-54,15.3-100.7,29.5c-2.8-3.3-7.3-4.7-11.7-3.3l-615.6,194c-4.3,1.4-7.2,5.1-7.6,9.4
		c-73.8,23.6-123.4,39.5-127.3,40.7c-5,1.1-122,26.1-173.8-44.7c-54.3-74.3-221.3-359.3-223-362.2l-0.2-0.3c0,0-0.1-0.2-0.3-0.4
		L17.6,444.3c38.4,56,168.9,245.8,215.4,309.4c23.8,32.5,61.6,52.6,109.5,58.2c10,1.2,19.5,1.6,27.9,1.6c21.6,0,36.5-2.8,37.4-2.9
		l0.5-0.1c8.3-2.2,829.5-222.7,941.2-251.9c16.9-4.4,30.2-9.5,40-15.4C1375.1,616.9,1363.7,674.7,1354.6,719.9z M1395.1,517.1
		c0,0.1,0,0.1-0.1,0.2c-0.1,0.3-0.2,0.6-0.3,0.8c-2.8,6.7-13.3,17-48.9,26.3c-111,29-921.5,246.6-941,251.8
		c-5.7,1-109.4,18-160-51.1C190.4,670.7,20.6,422.8,18.9,420.3l-0.3-0.5l-0.4-0.4c-0.1-0.1-5.4-5.9-8.5-13.7c-0.3-0.7-0.5-1.3-0.7-2
		c-0.1-0.2-0.1-0.5-0.2-0.7c-0.2-0.7-0.4-1.4-0.5-2.1c0-0.2-0.1-0.3-0.1-0.5c-0.2-0.8-0.3-1.5-0.3-2.3c0-0.1,0-0.2,0-0.3
		c-0.1-0.8-0.1-1.6-0.1-2.3c0-0.1,0-0.2,0-0.3c0-0.6,0.1-1.2,0.1-1.7c0-0.1,0-0.1,0-0.2c0.4-3.6,1.9-6.9,4-9.9
		c0.1-0.1,0.2-0.3,0.3-0.4c0.2-0.3,0.5-0.6,0.7-0.9c0.2-0.2,0.3-0.4,0.5-0.6c0.2-0.2,0.4-0.4,0.5-0.6c3.3-3.6,8-6.9,13.9-9.8
		c0,0,0.1,0,0.1-0.1c0.6-0.3,1.1-0.5,1.7-0.8c0.1-0.1,0.2-0.1,0.3-0.2c0.5-0.2,1.1-0.5,1.6-0.7c0.2-0.1,0.4-0.2,0.6-0.2
		c0.5-0.2,1-0.4,1.5-0.6c0.3-0.1,0.6-0.2,0.8-0.3c0.4-0.2,0.8-0.3,1.3-0.5c0.4-0.2,0.8-0.3,1.3-0.5c0.3-0.1,0.6-0.2,0.9-0.4
		c0.6-0.2,1.2-0.4,1.8-0.6c0.2-0.1,0.3-0.1,0.5-0.2c0.8-0.3,1.6-0.5,2.3-0.8c0,0,0,0,0,0c2.4-0.8,4.8-1.5,7.2-2.1
		c0.1,0,0.2,0,0.2-0.1c0.7-0.2,1.3-0.3,2-0.5c0.2-0.1,0.4-0.1,0.6-0.2c0.6-0.1,1.2-0.3,1.8-0.4c0.3-0.1,0.6-0.1,0.9-0.2
		c0.5-0.1,1-0.2,1.6-0.4c0.4-0.1,0.8-0.2,1.2-0.3c0.4-0.1,0.9-0.2,1.3-0.3c0.5-0.1,1.1-0.2,1.6-0.3c0.3-0.1,0.7-0.1,1-0.2
		c0.9-0.2,1.8-0.4,2.7-0.5L811.8,218l0.3-0.1l0.3-0.1c0.1,0,0.5-0.1,1.3-0.3c0,0,0.1,0,0.1,0c0.2,0,0.3-0.1,0.5-0.1
		c0.1,0,0.1,0,0.2,0c0.2,0,0.4-0.1,0.6-0.1c0.1,0,0.1,0,0.2-0.1c0.3-0.1,0.5-0.1,0.8-0.2c0,0,0.1,0,0.1,0c0.3-0.1,0.7-0.2,1-0.2
		c0,0,0,0,0,0c0.3-0.1,0.7-0.2,1.1-0.2c0.1,0,0.2,0,0.3-0.1c0.3-0.1,0.6-0.1,0.9-0.2c0.1,0,0.3-0.1,0.4-0.1c0.3-0.1,0.6-0.1,0.9-0.2
		c0.2,0,0.4-0.1,0.5-0.1c0.3-0.1,0.6-0.1,0.9-0.2c0.2,0,0.4-0.1,0.6-0.1c0.3-0.1,0.6-0.1,1-0.2c0.2,0,0.4-0.1,0.6-0.1
		c0.3-0.1,0.7-0.1,1.1-0.2c0.2,0,0.4-0.1,0.6-0.1c0.5-0.1,0.9-0.2,1.4-0.3c0.1,0,0.2,0,0.4-0.1c0.6-0.1,1.2-0.2,1.8-0.3
		c0.1,0,0.3,0,0.4-0.1c0.5-0.1,1-0.2,1.5-0.2c0.2,0,0.4-0.1,0.7-0.1c0.4-0.1,0.9-0.1,1.3-0.2c0.3,0,0.5-0.1,0.8-0.1
		c0.4-0.1,0.9-0.1,1.3-0.2c0.3,0,0.6-0.1,0.8-0.1c0.4-0.1,0.9-0.1,1.3-0.2c0.3,0,0.6-0.1,0.9-0.1c0.5-0.1,0.9-0.1,1.4-0.2
		c0.3,0,0.6-0.1,0.9-0.1c0.5-0.1,1-0.1,1.6-0.2c0.3,0,0.5-0.1,0.8-0.1c0.7-0.1,1.5-0.2,2.3-0.2c0,0,0.1,0,0.1,0
		c0.8-0.1,1.6-0.2,2.5-0.2c0.2,0,0.4,0,0.7-0.1c0.6-0.1,1.2-0.1,1.9-0.2c0.3,0,0.6,0,0.9-0.1c0.6,0,1.1-0.1,1.7-0.1
		c0.3,0,0.7,0,1-0.1c0.6,0,1.1-0.1,1.7-0.1c0.3,0,0.7,0,1-0.1c0.6,0,1.1-0.1,1.7-0.1c0.3,0,0.7,0,1-0.1c0.6,0,1.2-0.1,1.8-0.1
		c0.3,0,0.6,0,1,0c0.7,0,1.4,0,2.1-0.1c0.2,0,0.5,0,0.7,0c1,0,1.9,0,2.9-0.1c0.1,0,0.1,0,0.2,0c0.9,0,1.8,0,2.7,0c0.2,0,0.3,0,0.5,0
		c1.4,0,2.8,0,4.2,0c0.1,0,0.2,0,0.3,0c1.4,0,2.9,0.1,4.3,0.1c0.2,0,0.5,0,0.7,0c1.4,0.1,2.9,0.1,4.3,0.2c0.2,0,0.5,0,0.7,0.1
		c1.5,0.1,3,0.2,4.4,0.4c0.1,0,0.2,0,0.4,0c1.5,0.1,3,0.3,4.4,0.5c0.1,0,0.3,0,0.4,0.1c1.5,0.2,3,0.4,4.5,0.6c0.3,0,0.5,0.1,0.8,0.1
		c1.5,0.2,2.9,0.5,4.4,0.7c0.2,0,0.5,0.1,0.7,0.1c1.5,0.3,3,0.6,4.6,0.9c0.1,0,0.2,0,0.3,0.1c1.5,0.3,3,0.7,4.5,1.1
		c0.2,0,0.4,0.1,0.5,0.1c1.5,0.4,3,0.8,4.4,1.2c0.3,0.1,0.5,0.2,0.8,0.2c1.5,0.4,2.9,0.9,4.4,1.4c0.2,0.1,0.5,0.2,0.7,0.2
		c1.5,0.5,3,1,4.5,1.6c0,0,0.1,0,0.1,0.1c1.5,0.6,2.9,1.2,4.4,1.8c0.2,0.1,0.4,0.2,0.6,0.3c1.4,0.6,2.8,1.3,4.2,1.9
		c0.3,0.1,0.5,0.3,0.8,0.4c1.4,0.7,2.8,1.4,4.1,2.1c0.2,0.1,0.4,0.2,0.6,0.4c1.4,0.8,2.9,1.6,4.3,2.4
		c59.2,35.9,408.1,246.7,411.6,248.8l0.4,0.2c4.3,2.2,12.1,7.1,19.1,13c0.2,0.1,0.4,0.3,0.5,0.4c0.2,0.2,0.4,0.3,0.6,0.5
		c0.4,0.3,0.7,0.6,1.1,1c0,0,0.1,0.1,0.1,0.1C1391.3,501,1397.4,509.5,1395.1,517.1z"/>
	<path d="M923.1,727.5c0-0.1,0.1-0.2,0.1-0.3c1.3-2.9,2-5.8,2.1-8.7c0.1-3.9-0.8-7.4-3.2-10.2c-4-5.4-11.3-7.1-17.6-6
		c-9.9,1.9-19.8,3.9-29.7,5.7c-0.2,0-0.4,0.1-0.7,0.1c0,0.2-0.1,0.4-0.1,0.5c0,3.6,0,7.3,0,10.9c0,1.8,0.5,3.4,1.5,4.7
		c2.4,3.4,5.8,4.6,10.1,3.8c6.5-1.2,13-2.5,19.5-3.7c2.8-0.5,5.6-0.3,8.2,0.8c1.8,0.8,3.4,1.9,4.7,3.4c-0.1,0.2-0.2,0.4-0.3,0.6
		c-1.6,2.5-3.6,4.6-6,6.2c-2.3,1.6-4.7,2.5-7.1,3c-6.3,1.2-12.6,2.4-18.9,3.6c-0.8,0.1-1.5,0.3-2.3,0.6c-5.2,2.1-9,6.9-9.1,12.6
		c0,3.4,0,6.8,0,10.2c0,0.2,0,0.4,0.1,0.7c0.3-0.1,0.6-0.1,0.9-0.2c9.7-1.8,19.5-3.5,29.2-5.4c1.4-0.3,2.7-0.6,4.1-1.1
		c5-1.8,9.4-5.2,12.4-9.7c4.1-6,6.4-14,3.1-21C923.5,728.3,923.3,727.9,923.1,727.5z M907.5,719.9c-1.2,0.1-2.3,0.2-3.5,0.4
		c-6.2,1.2-12.5,2.4-18.7,3.6c-3.3,0.6-6.1-1.1-6.8-4.2c-0.1-0.4-0.2-0.9-0.2-1.4c0-2.2,0-4.4,0-6.5c0-0.1,0-0.2,0-0.4
		c0.2-0.1,0.4-0.1,0.6-0.1c8.6-1.6,17.2-3.3,25.9-5c6.2-1,13.6,2,15.2,8.7c0.7,2.6,0.7,5.4,0,8.3c0,0.1-0.1,0.3-0.2,0.6
		c-0.2-0.2-0.3-0.3-0.4-0.4C916,720.9,911.9,719.7,907.5,719.9z M916.6,748.6c-2.6,3.4-5.9,5.7-9.5,6.9c-1.2,0.4-2.4,0.7-3.5,0.9
		c-8.1,1.6-16.3,3.1-24.5,4.6c-0.3,0-0.5,0.1-0.8,0.2c0-0.2,0-0.4,0-0.6c0-2.1,0-4.1,0-6.2c0-3.5,2.4-6.7,5.8-8
		c0.5-0.2,1-0.3,1.5-0.4c6.2-1.2,12.4-2.3,18.6-3.5c2.4-0.5,4.8-1.3,7.2-2.6c3.1-1.7,5.8-4,8.2-6.9c0.1-0.1,0.2-0.2,0.3-0.3
		c0,0,0,0,0.1-0.1c0.5,1.3,0.7,2.7,0.7,4.2C920.7,740.9,919.4,744.9,916.6,748.6z"/>
	<path d="M913.1,969.2c-4.1-1.3-8.5-0.7-12.4,1.6c-3.8,2.2-6.6,5.9-8,10.2c-1.4,4.3-1.1,8.9,0.6,12.9c1.9,4.1,5.1,7.1,9.3,8.4
		c1.5,0.5,3,0.7,4.5,0.7c2.7,0,5.5-0.8,8-2.3c3.8-2.2,6.6-5.9,8-10.2v0C925.9,981.4,921.5,971.8,913.1,969.2z M916,988.3
		c-0.8,2.6-2.5,4.8-4.7,6.1c-2.1,1.2-4.4,1.5-6.5,0.9c-2.1-0.7-3.8-2.2-4.8-4.4c-1.1-2.3-1.2-5.1-0.3-7.7c0.8-2.6,2.5-4.8,4.7-6.1
		c1.4-0.8,2.8-1.2,4.3-1.2c0.8,0,1.5,0.1,2.2,0.3C915.4,977.6,917.7,983,916,988.3z"/>
	<path d="M1061.2,411.8c-3.9-2.6-98.8-66.6-121.3-82.1c-23.2-16-39.9-20.6-57.8-22.7c-16.6-1.9-38.1,2.9-39,3.1
		c-4,0.8-398.6,82.1-556.5,115.4c-17,3.6-27.2,10.1-30.3,19.5c-4.2,12.5,6.2,24.7,6.6,25.2l8.1,9.3l0,0l0,0l0,0
		c51.3,59.2,85.4,98.4,98.5,113.1c10.8,12.2,24.4,16.7,41.1,16.7c16.5,0,36.1-4.4,59.2-10.3c136.8-34.6,484.5-116.3,571.3-136.3
		l-0.8-3.6c0,0,0.1,0,0.1,0l0.4,1.5l0.5,2l1.1-0.2c2.8-0.6,5.2-1.2,7.2-1.7c20.6-4.7,31.3-11.6,32.7-21.2
		C1084.3,425.5,1064.1,413.4,1061.2,411.8z M837.7,476.6c-0.1,0.4-0.3,1-1.1,1.2l-234.4,54.6c-0.5,0.1-1,0-1.4-0.4l-93-95.6
		c-0.5-0.6-0.5-1.2-0.4-1.5c0.1-0.3,0.4-0.9,1.1-1l211.8-46.9c0.1,0,0.2,0,0.3,0c0.3,0,0.7,0.1,0.9,0.3l115.5,87.9
		C837.8,475.6,837.7,476.3,837.7,476.6z M1075,438.4c-0.5,3.4-4,6.7-10.1,9.5c0.3-0.7,0.5-1.4,0.6-2.2c1.6-9.4-8.7-16.6-9.8-17.3
		c-1-0.7-98.5-66.4-121.4-82.2c-23.2-16-39.9-20.6-57.9-22.7c-16.6-1.9-38.1,2.9-39,3c-4,0.8-399.6,78.1-556.7,115.4
		c-8.4,2-13.8,6-16,11.9c-0.5,1.2-0.7,2.5-0.9,3.8c-1.3-3.2-2-7-0.8-10.6c2.2-6.6,10.8-11.7,24.9-14.6
		C445.9,399.3,840.6,318,844.6,317.2c0.2,0,21.3-4.7,36.6-2.9c17.3,2,32.5,6.2,54.5,21.4c22.9,15.8,120.5,81.6,121.5,82.3l0.2,0.2
		C1062.4,420.8,1076.2,430.5,1075,438.4z"/>
</g>
</svg>
