<svg height="960" viewBox="0 0 960 960" width="960" xmlns="http://www.w3.org/2000/svg"><path d="m311.098738 57.3458727c15.317498-35.8125034 46.763629-56.80768895 89.752838-54.8954982l4.016488.17932258 23.031881 1.05009278 20.249221.94795581 34.428575 1.6558628 18.097791.89207364 19.917054 1.00020634 21.350149 1.09680763 27.547922 1.46328332 14.46454.797637 14.902947.8523315 11.487457.6876852c40.862351 2.5098646 69.671032 24.8190509 83.836717 62.1888414 4.885288 12.8876344 8.093732 27.0568235 10.080853 44.1008545l.232622 2.059185c.037803.345532.075124.692238.111969 1.040133l.215362 2.10173.204075 2.130858c.066163.715209.130474 1.435374.192962 2.160598l.182025 2.19095c.029436.367721.058423.736733.086966 1.107047l.165947 2.237625c.026777.375577.053118.752482.079024 1.130729l.150262 2.285676.140024 2.318474.129961 2.351885.120073 2.385908c.019198.400521.037991.802485.056383 1.205904l.105569 2.438089c.016803.409294.033211.820069.04923 1.232339l.091458 2.491646c.014473.418297.028563.838113.042273 1.259462l.077742 2.546581c.012208.427529.024044.856615.035512 1.287273l.064418 2.602892.055755 2.641197.047266 2.680115.038952 2.719643c.005809.456603.011279.914877.016413 1.374837l.02681 2.780084.018933 2.821143.014936 4.310038v596.023091c0 48.465654-7.339709 86.973673-22.536125 115.407963-17.086309 31.970504-44.440688 51.184768-77.628544 53.659119l-4.294745.328919-9.827561.799379-16.781248 1.439055-53.34297 4.700653-24.779323 2.135591-12.719116 1.066932-10.072299.826419-9.665034.774745-6.660406.521883-6.462337.495729-8.722225.650244-6.003492.433312-6.961268.485847-6.702872.448761-4.328483.278645-4.258512.262449c-20.186373 1.147271-37.435446-.584917-52.715838-5.95193-18.094671-6.355489-32.64465-17.653759-42.969223-33.435759-8.785594-13.429536-14.070799-29.237182-17.055121-48.223879l-.249466-1.630019c-.040691-.273179-.080942-.547121-.120753-.821841l-.23362-1.657761c-.038065-.277885-.075696-.556576-.112895-.836085l-.218033-1.686994-.207785-1.707313c-.067566-.572564-.133444-1.148625-.197651-1.728294l-.187633-1.749937-.17773-1.772245-.167941-1.795216-.158266-1.818848-.148708-1.843145-.139263-1.868105-.129934-1.893727-.120718-1.920013c-.019358-.32223-.038338-.645582-.05694-.970071l-.107112-1.960685c-.017104-.329091-.033837-.659346-.0502-.990779l-.093763-2.002849-.085008-2.031786c-.013445-.341079-.026529-.683392-.039256-1.026952l-.07209-2.076436-.06362-2.107032-.055267-2.138291-.047028-2.170212-.038904-2.202798-.030894-2.236045-.023-2.269956-.023714-3.469967v-688.038889l.016608-2.356827c.002906-.387975.00621-.773596.009923-1.156951l.027288-2.273653.03767-2.223553c.007175-.366655.014805-.7314.022903-1.094325l.054286-2.156423.066058-2.117019c.240432-6.995806.686319-13.406171 1.430251-19.9441607 1.721036-15.1251872 4.909909-28.7791612 10.261592-41.2914626zm87.975367-14.9350103c-55.582792-2.4723622-59.69772 51.7874566-59.89361 88.5818996l-.008336 2.230268v684.418471l.003675 2.261467c.243793 74.179172 12.743341 103.919993 74.718771 100.102591.626015-.038559 1.254839-.077629 1.886391-.117198l3.82139-.24331 3.882914-.25474 3.940499-.265627 6.010095-.417665 4.067212-.290467 6.181689-.452375 6.266909-.470755 6.338824-.4873 6.397436-.50201 8.598097-.689057 8.647113-.707597 6.498532-.540248 12.973353-1.097103 12.853049-1.107012 16.766314-1.46606 21.932137-1.938073 23.425659-2.061287 9.619675-.828894 5.919263-.499204 5.487391-.451416 5.023985-.399279 3.444909-.262628c11.544421-.860705 22.076228-5.260867 31.089309-13.629894-8.434497 4.924844-18.201817 7.756378-29.591449 8.671257l-9.154009.690002-12.826814 1.039144-67.620069 5.750349-10.488125.878228-8.963094.741686-6.923869.566112-5.897235.474385-4.359928.321932-3.957792.271683-6.721433.431232-7.665252.459869-7.857645.446885-11.153457.60408-9.587579.497796-.751464.044475-1.636866.087473-1.615489.074865c-.267473.01142-.53406.022312-.799763.032671l-1.58363.055753c-.524354.016444-1.045192.030743-1.56253.042878l-1.54154.029898c-.255181.003895-.509491.007245-.762933.010047l-1.510262.01072c-3.249753 0-6.353644-.078093-9.31673-.261698l-1.357598-.091729c-15.947038-1.168358-27.717263-5.287163-36.134346-13.151174l-.357211-.337915-.360317-.349514c-6.525341-6.410282-10.068419-14.465883-11.041217-23.463602-.659742-6.10217-.168333-12.222234 1.194682-19.467315l.247809-1.283945.384052-1.916666.528131-2.536379.611186-2.842347 1.746353-7.980634.407766-1.90768c.44612-2.108154.867413-4.197107 1.264242-6.282639l.388688-2.084976.250104-1.390448.253166-1.451742.245374-1.454642.23761-1.458722.229873-1.463978.222163-1.470414.21448-1.478029c.035108-.247038.069897-.494442.104367-.742237l.203006-1.491659.195391-1.502218.187802-1.513956.180241-1.526873.172707-1.540967.165199-1.556241.157719-1.572692.150267-1.590322.14284-1.609129.135441-1.629117.128069-1.650281c.020732-.276876.041158-.554683.061279-.833445l.117062-1.684238.161906-2.571932.098852-1.746723.091616-1.77378.084406-1.802015.077223-1.831428.070068-1.862019.062939-1.893789.055838-1.926737.048764-1.960863.041717-1.996168.034696-2.032651.038941-3.119961.017264-2.129014.012919-3.270028.000272-556.529818-.008876-5.012303-.019709-4.865658-.030747-4.722828-.041993-4.583814-.053448-4.448615-.042097-2.892518-.047341-2.835255-.08098-4.147991-.093125-4.025511-.068933-2.617514-.113829-3.829857-.082927-2.490612-.088632-2.441829-.0944-2.394177-.100227-2.347656-.106117-2.302265-.112068-2.258004-.11808-2.214876-.124155-2.172876-.13029-2.132007-.136486-2.09227-.142746-2.053663-.149065-2.016185-.155446-1.97984-.161889-1.944624-.168393-1.910539-.174959-1.877584-.181586-1.845761-.188274-1.815067c-.03194-.300017-.064161-.598801-.096665-.896377l-.198422-1.771148-.205265-1.74328-.212169-1.716544-.219134-1.690939-.22616-1.666463c-.038282-.275767-.07686-.550562-.115734-.824407l-.236816-1.631871c-.040065-.270143-.080431-.539384-.121096-.807746l-.247609-1.599822-.126528-.792357-.25854-1.570317-.265905-1.552059-.273332-1.534933-.280819-1.518937-.288368-1.504072-.295978-1.490338-.30365-1.477733c-.051252-.245302-.102825-.490125-.154722-.734494-4.134082-19.4663146 2.394125-36.285312 17.765565-46.23825 10.746378-6.958231 24.720934-9.9430344 41.00194-9.9351727l1.155035.0055116.768936-.0261662h.200011l3.677747.1471946.534807.0238635 1.008.0499731 18.539122.8451827 18.508323.8586385 21.648595 1.0233833 26.659418 1.2899817 24.049245 1.1960362 24.153234 1.2409883 14.91177.7930391 14.370165.7916073 9.657695.5531532 3.725271.2194902c12.787715.7603805 23.853596 3.9671191 33.198016 9.9923843l.558201.3645326c-8.407437-7.9211366-19.570355-12.5372012-34.345634-13.4447346l-3.559577-.2167208-11.503418-.6786744-10.43766-.5940957-18.051995-.9930762-19.36426-1.0298619-17.70447-.9173339-33.219958-1.672347-15.517747-.7624698-30.236149-1.4541763-33.301367-1.5507656zm27.659258 24.6489776.827637.04616-.562269-.0117526c-6.834356-.1281436-13.319175.3559796-19.059765 1.5931226l-.901605.2019512c-15.324313 3.564901-25.042629 12.7021266-21.325807 30.2036723l.322101 1.5402175.314267 1.551034c.051728.259476.103132.519455.154213.779962l.302617 1.569593c.049793.262725.099266.52604.148418.789942l.291091 1.590953.283476 1.606748.275914 1.623787.268408 1.642072.260957 1.6616.25356 1.682374c.041647.282196.082988.565309.124024.849366l.242567 1.715867.235308 1.739751c.038616.292018.076932.585083.114948.879221l.224521 1.777912.217398 1.804908.210329 1.833147c.034469.307948.068646.617123.102531.927553l.19983 1.877842.192898 1.909194c.031576.32088.062864.643119.093868.966742l.182604 1.958555.175809 1.993017.16907 2.028724.162385 2.065677.155754 2.103873.149179 2.143314.142659 2.183999.136192 2.22593.129781 2.269104.123425 2.313523c.020044.389358.039825.780618.059345 1.173807l.113993 2.382485.107773 2.430015.101608 2.478791.095498 2.528809.089442 2.580073.12293 3.968952.074543 2.713678.06868 2.769297.062871 2.826162.057117 2.88427.075005 4.438081.04297 3.034987.054043 4.66999.041712 4.814735.021048 3.292312.021571 5.065311.009732 5.221257.000645 555.490602-.00551 2.649913-.016248 2.578829c-.003589.425061-.007614.847765-.012071 1.268134l-.031873 2.494364-.041971 2.439364-.05181 2.385414c-.009441.393132-.019281.784059-.029516 1.172804l-.06609 2.306453-.075289 2.255125-.084232 2.204844c-.01477.363342-.029902.724633-.04539 1.083894l-.097165 2.131389-.105467 2.083729-.113513 2.037119-.121301 1.991556c-.020851.328187-.042017.65452-.063491.97902l-.132503 1.925179-.139651 1.882238-.146543 1.840345-.153177 1.799502c-.026068.296571-.052402.591485-.078996.884762l-.162648 1.740202-.168643 1.70198-.174379 1.664805c-.029527.274428-.059282.547351-.089261.818791l-.182504 1.611011-.187601 1.576458-.19244 1.542955-.197023 1.510499-.20135 1.479092-.205421 1.448734-.209234 1.419424-.212792 1.391164-.325298 2.036048-.220563 1.325098-.335753 1.941865-.340873 1.890074-.345126 1.841821-.23202 1.202821-.350293 1.769265-.469934 2.299251-.589158 2.789803-.820887 3.7778-.96228 4.381962c-.581297 2.661784-1.140113 5.279105-1.65675 7.932504l-.212308 1.122434-.197181 1.113575c-3.025909 17.743296.331405 31.870465 37.656061 31.870465h1.280925c3.019493-.03039 6.254321-.144919 9.718218-.354109l9.598598-.498775 11.062681-.599023 9.77052-.558946 6.770345-.411056 4.946035-.317917 5.764036-.398124 2.923943-.218642 1.525786-.12044 6.528231-.529662 8.776589-.721167 10.888719-.907044 17.079766-1.443808 48.142411-4.107301 12.805841-1.060245 8.972081-.712903 5.895177-.443557c.204256-.014869.406907-.029559.607939-.044069 21.212702-1.531049 31.285826-10.894838 39.975269-26.527613l.571029-1.0398.284205-.526683.566178-1.066866.28213-.54016.562727-1.093709.280752-.553524c4.099053-8.118712 6.799654-17.47586 8.55343-28.459743l.244147-1.580235c.039634-.26523.078743-.531394.117334-.798495l.225373-1.613905c.109625-.812622.214693-1.633779.315369-2.463613l.195545-1.67128.184126-1.69467c.059505-.568817.117155-1.141573.173-1.718312l.162166-1.742206c.026141-.292373.051843-.585751.077112-.880141l.146464-1.778518c.047122-.596912.092559-1.197911.136362-1.803039l.126552-1.827814c.020291-.306714.040185-.614471.059689-.923276l.112386-1.865446.103308-1.890849.094523-1.916504.086029-1.942409.077829-1.968568.069921-1.994976.062307-2.021637c.009766-.339175.019226-.679472.028388-1.020895l.051432-2.0621.044548-2.089389.037957-2.116931.045218-3.227586.022759-2.186884.017193-2.215306.011397-1.917007c-.609813 1.287396-1.240665 2.559633-1.892039 3.816068-14.409399 28.142789-39.110987 48.58842-68.611899 53.942167l-1.009773.173655-.49481.271681c-11.324006 6.138779-23.562793 9.547761-36.186887 9.940177l-.806312.020948-1.277991.013194-17.850621 1.140078-8.890706.522148-4.18192.21015-1.92124.069716-.733452.011175c-1.209206 0-2.416162-.028323-3.620425-.084319l.520523.019117-1.028789.052546c-.895816.044633-1.768552-.029686-2.60346-.208714l-.355458-.083095-.119452-.032802-1.211927-.118751c-50.095044-5.43292-88.195766-58.473102-88.968116-122.073888l-.011957-1.970361c0-68.260642 42.928097-124.499758 97.46859-124.499758h.181171l1.188262.037167 2.761042.130357 8.750708.498893 20.590227 1.283341.464634.003008c14.190025.143813 27.920716 4.094813 40.446033 11.442575l-.643056-.376647c30.371168 5.507835 55.897266 27.243678 70.060917 57.162977l-.002113-472.189753-.013794-3.363757-.022641-3.32336-.021691-2.192918-.043164-3.255077-.056798-3.213533-.045927-2.119065-.052721-2.100283-.059805-2.081374c-.010575-.345313-.021457-.689832-.032652-1.033556l-.070984-2.052772-.078803-2.033545c-.013802-.337315-.027942-.673823-.042425-1.009522l-.091082-2.004466c-.015884-.332452-.032125-.66409-.048729-.994911l-.104019-1.975099-.113011-1.955364c-.019601-.324242-.039589-.647657-.059969-.970241l-.127049-1.92552-.136775-1.905466c-.023622-.315899-.047662-.630958-.072125-.945173l-.151912-1.875145c-.026182-.31083-.0528-.620811-.079859-.929941l-.167709-1.844539-.178608-1.823975-.189799-1.803284c-.130328-1.195264-.268313-2.376649-.414345-3.543986l-.225133-1.740448c-1.734498-12.974016-4.512257-24.159277-8.890039-33.314139-3.617455-7.5648607-8.366745-13.6054068-14.832315-17.7743945-6.25101-4.0306399-14.022931-6.2700466-23.546929-6.8363606l-9.245204-.5380874-10.085732-.5658875-14.202258-.7701188-16.438765-.8628706-17.355128-.8860647-25.834247-1.2825659-20.377089-.9865502-22.017278-1.044299-27.923725-1.2937332-12.722318-.579619-.824714-.0405739-2.462366-.1027964zm86.665698 542.94016c-42.067373 0-77.399061 46.287434-77.399061 104.5 0 56.17309 33.017929 101.604229 73.456418 104.365736l.278023.022819.27569.030263.070869.009182.305926-.000225.320676.009759c.894873.04161 1.79209.062466 2.691459.062466h.137807l.567348-.014592 2.213184-.095352 3.731826-.199793 10.636566-.639028 2.191718-.137714c-34.380204-17.502946-58.14922-57.383452-58.14922-103.400488 0-46.022826 23.774998-85.907578 58.162198-103.407094l-13.481473-.812065-3.691314-.200107-1.594183-.073183zm58.588848 11.653929c-42.271248 0-77.259619 41.243276-77.259619 92.859104s34.988371 92.859104 77.259619 92.859104c27.299889 0 51.562151-17.202232 65.323786-43.291083 7.407436-14.261429 11.688305-31.088076 11.688305-49.081054 0-46.504857-28.626769-85.339833-66.078523-91.995126-.868938-.154413-1.711876-.422861-2.507354-.797096-2.769497-.367047-5.581363-.553849-8.426214-.553849z"/></svg>