<svg height="960" viewBox="0 0 960 960" width="960" xmlns="http://www.w3.org/2000/svg"><path d="m626.989623 39.3658085c53.040506 35.1568719 93.365347 91.0125875 112.291903 157.0852145 3.281871 11.457021 5.86562 23.019374 7.706533 34.630845 2.015013 6.046383 3.329393 12.65393 4.205089 20.079749.941374 7.982767 1.383142 17.193135 1.383142 27.782611 0 27.747548-3.328186 51.606896-10.378375 75.636921-3.185826 10.858643-7.131156 21.786194-12.089303 33.734999-4.11463 9.915987-8.800041 20.277773-15.350902 34.137971-7.827719 16.561751-12.587593 34.232762-15.059582 54.101176-1.061307 8.530162-1.701142 17.418025-2.026833 27.292747-.252033 7.64144-.30236 13.765683-.294109 26.937523.001096 1.74989.00145 2.495874.00145 3.447963v356.874366c0 20.604323-12.397146 39.183002-31.421195 47.093129-8.924332 3.710704-18.155831 6.276288-27.624958 7.664255-13.377732 1.960882-28.194553 3.565165-44.502169 4.895288-13.739105 1.120624-28.133989 2.01825-44.068462 2.805072-6.166695.304503-12.367501.583577-19.517242.88462-3.661947.154188-15.036115.619162-16.640552.686142-38.632258 1.612775-75.429309.880303-109.721052-1.581374-12.792662-.918338-24.613029-2.03613-35.472464-3.287884-7.511552-.865848-13.207917-1.625892-19.03226-2.475309-8.765699-1.278382-15.733272-2.66689-21.906072-4.500442-3.969415-1.179064-7.670402-2.562351-11.207084-4.258448-4.378226-2.099678-8.442448-4.651036-12.175878-7.785751-8.42007-7.06978-14.011826-16.159394-16.788344-26.409965-1.010049-3.728982-1.602511-7.395557-1.921929-11.200607-.223197-2.65882-.305862-5.259972-.305862-8.221255 0-3.268783.07604-11.005656.380683-39.921118.385636-36.602863.585337-56.134826.832179-82.30826.312512-33.136644.571058-64.159373.770715-93.491957.284944-41.862226.438589-78.715719.438589-109.783179 0-65.780886-10.737418-120.398845-31.723047-164.101264-.135859-.282925-.724602-1.505328-.819714-1.70276l-.010679-.022154c-.414113-.860281-.761335-1.58385-1.124943-2.345336-.98881-2.07081-1.932425-4.075118-2.899092-6.16719-2.57479-5.572393-5.018991-11.133389-7.342336-16.797706-.183124-.446457-.36507-.892566-.545823-1.338327-1.110735-2.739232-2.24112-5.65547-3.366183-8.672458-2.545048-6.51962-4.813687-13.163408-6.804484-19.912371-.014012-.047502-.027936-.095031-.041772-.142585-.038341-.131783-.240832-.820008-.301072-1.026718-.175566-.602439-.341348-1.208853-.496935-1.820393-6.249731-22.117952-9.442909-45.116857-9.442909-68.504419 0-40.123316 9.403517-78.986049 27.193775-114.05104 17.304841-34.108222 42.189885-63.8870298 72.627472-87.0297744.948375-.721082 1.911822-1.3918469 2.916169-1.9058924l7.195916-5.354087c.491776-.3659036.991898-.7204548 1.499969-1.0633725 12.615024-8.5143863 25.980455-15.8802172 39.940981-21.9955588.165861-.0726544.332207-.1441793.500379-.2113378.807164-.3737909 1.634324-.7119556 2.475007-1.0230529l.209945-.0776907 16.030269-5.932771 4.775883-1.7827197c.355914-.132854.713688-.260625 1.073545-.3822846l28.737194-10.6360867c3.961203-1.6168762 7.980336-3.1035823 12.053905-4.457984l1.072933-.3967014 1.107261-.409746c1.899989-.70309661 3.794029-1.2557595 5.672099-1.64670523.165082-.05007264.331006-.09792754.497007-.1455766 60.30282-17.30934006 124.365028-5.5924336 178.833624 30.51102023zm-263.559604 47.1895387-.62241.3849011c-2.16657 1.3516659-4.307035 2.7411823-6.420467 4.1676225l-9.777131 7.274627-.002394-.2647844c-51.067479 38.8283596-84.031327 100.1889706-84.031327 169.2394566 0 20.341852 2.860786 40.016334 8.207969 58.64186.04065.159774.085444.323624.134381.491551.095406.327378.198807.675206.306009 1.04367 1.728947 5.861272 3.70401 11.617214 5.917679 17.253188.960516 2.575736 1.959712 5.161292 2.95578 7.617737 4.815922 11.876759 9.733201 21.926339 11.73232 26.08949 23.776567 49.514527 35.664851 109.986589 35.664851 181.416185 0 70.128219-.784715 161.297611-1.460847 229.443529 1.571122.027332 3.159206.428131 4.632028 1.239165.690628.380305 1.318059.668646 1.877097.871402.74135.268877 2.195558.704476 4.249958 1.259955 5.331401 1.441531 8.484764 6.932077 7.043233 12.263477-1.441531 5.331401-6.932076 8.484764-12.263477 7.043233-2.49247-.673926-4.374864-1.236113-5.752242-1.73024-.030904 3.215102-.06331 6.357181-.09506 9.420549 1.671507-.024322 3.37141.374107 4.940491 1.238148.690628.380306 1.318059.668646 1.877097.871402.74135.268877 2.195558.704477 4.249958 1.259956 5.331401 1.44153 8.484764 6.932076 7.043233 12.263477-1.441531 5.3314-6.932076 8.484763-12.263477 7.043232-2.551216-.68981-4.463257-1.262551-5.848792-1.765065l-.216396-.08175c-.035122 3.335937-.068739 6.523932-.100611 9.552108 1.772998-.088156 3.589999.304107 5.258988 1.223164.690628.380306 1.318059.668647 1.877097.871402.74135.268877 2.195558.704477 4.249958 1.259956 5.331401 1.441531 8.484764 6.932076 7.043233 12.263477s-6.932076 8.484763-12.263477 7.043233c-2.551216-.689811-4.463257-1.262551-5.848792-1.765066l-.531326-.190191c-.076078 7.637442-.12004 12.700862-.12004 14.605961 0 14.141059 2.606772 18.788851 30.077668 22.795181 12.057235 1.758416 73.271298 10.447091 156.784857 6.960664 29.866685-1.246839 80.255996-2.970113 120.595708-8.883032 6.169311-.904286 12.19227-2.578165 18.068878-5.021636 4.104196-1.706509 6.778412-5.713809 6.778412-10.158648l-.00094-26.067085c-8.531451 3.07254-16.464379 5.349447-23.813076 6.823878-8.289786 1.663249-20.887233 3.312868-37.929833 4.984734-5.496463.539199-10.389334-3.479458-10.928533-8.975922-.539199-5.496463 3.479458-10.389334 8.975922-10.928533 16.430984-1.611866 28.45951-3.186986 35.948086-4.689482 7.312415-1.467151 15.509722-3.918561 24.570073-7.364692 1.046586-.398073 2.118423-.608849 3.178613-.648892l-.001252-8.618662c-8.531451 3.072541-16.464379 5.349448-23.813076 6.823878-8.289786 1.66325-20.887233 3.312869-37.929833 4.984735-5.496463.539198-10.389334-3.479459-10.928533-8.975922s3.479458-10.389334 8.975922-10.928533c16.430984-1.611867 28.45951-3.186986 35.948086-4.689482 7.312415-1.467151 15.509722-3.918561 24.570073-7.364693 1.046586-.398072 2.118423-.608848 3.178613-.648892l-.001252-6.720753c-8.531451 3.07254-16.464379 5.349447-23.813076 6.823878-8.289786 1.663249-20.887233 3.312868-37.929833 4.984734-5.496463.539199-10.389334-3.479458-10.928533-8.975922-.539199-5.496463 3.479458-10.389334 8.975922-10.928533 16.430984-1.611866 28.45951-3.186986 35.948086-4.689482 7.312415-1.467151 15.509722-3.918561 24.570073-7.364692 1.046586-.398073 2.118423-.608849 3.178613-.648892l-.000312-253.071139c0-16.619133-.155658-35.41439 1.820306-55.392613-3.85733 4.686545-8.317753 9.030386-13.399357 12.943648-8.85949 6.82255-19.351321 12.132927-31.454385 15.691659-16.066948 4.724255-35.945907 5.015688-59.910988 1.331029-22.57209-3.470485-49.155886-10.544148-79.883155-21.195205-1.796702-.596256-3.614552-1.233243-5.470246-1.914602-2.797948-.993561-5.579117-1.996714-8.349127-3.011206-1.6973-.621621-3.226461-1.40914-4.584339-2.334887-30.653285-13.537906-58.694406-34.695889-81.898356-61.68304-24.743752-28.778005-43.432857-63.509971-54.416132-101.852596-17.628488-61.541108-13.329576-125.39989 11.044494-178.964967 8.653613-19.017401 19.619128-36.253221 32.552668-51.2954008zm-.165588 768.8423658c40.015355 3.75041 71.292432 5.903119 93.773238 6.460735 22.506868.558262 56.255827.04554 101.173799-1.543021 5.519397-.195198 10.151992 4.120918 10.34719 9.640315s-4.120918 10.151992-9.640315 10.34719c-45.285152 1.601546-79.386328 2.119619-102.376604 1.549366-23.016338-.570899-54.711546-2.752387-95.143614-6.541853-5.498749-.515366-9.538579-5.39077-9.023213-10.889519s5.39077-9.538579 10.889519-9.023213zm0-29.377676c40.015355 3.75041 71.292432 5.903119 93.773238 6.460735 22.506868.558262 56.255827.04554 101.173799-1.543021 5.519397-.195197 10.151992 4.120919 10.34719 9.640315.195198 5.519397-4.120918 10.151992-9.640315 10.34719-45.285152 1.601546-79.386328 2.119619-102.376604 1.549366-23.016338-.570899-54.711546-2.752387-95.143614-6.541853-5.498749-.515366-9.538579-5.39077-9.023213-10.889519s5.39077-9.538579 10.889519-9.023213zm0-29.377676c40.015355 3.75041 71.292432 5.903119 93.773238 6.460735 22.506868.558263 56.255827.04554 101.173799-1.54302 5.519397-.195198 10.151992 4.120918 10.34719 9.640315s-4.120918 10.151991-9.640315 10.347189c-45.285152 1.601546-79.386328 2.11962-102.376604 1.549367-23.016338-.5709-54.711546-2.752387-95.143614-6.541854-5.498749-.515366-9.538579-5.39077-9.023213-10.889519s5.39077-9.538579 10.889519-9.023213zm95.927537-749.3401188-2.860671.8494065c-.073279.0224871-.146533.0450226-.219761.0676067-9.780719 3.0164552-19.106537 6.8985257-27.937767 11.5587375l.594514-.3115736c-.427759.2239791-.854109.4500922-1.278823.678602-79.126773 42.2350507-118.232947 147.1205407-88.429868 251.1631837 20.835006 72.735029 70.448358 127.954579 128.985827 152.498661l-.435685.099264c2.808464 1.028576 5.582198 2.028209 8.319119 3.000374 1.634792.600545 3.275696 1.177326 4.924901 1.724962 59.543167 20.658419 102.15969 27.210759 127.849568 19.65702 41.334077-12.153691 47.716749-45.683855 47.716749-51.087172 0-2.981397 4.334917-12.385179 13.00986-28.20719 38.739888-52.055953 52.744403-127.008208 31.39814-201.528079-6.170267-21.540411-14.864519-41.54464-25.56707-59.670875-38.765788-65.6548708-103.879023-106.6711203-170.834847-106.8064017-15.077902-.0304728-30.249245 2.0121919-45.234186 6.3134739zm145.23756 48.220801c40.501924 27.8882378 71.014466 71.7575318 84.830232 123.3717188 13.815171 51.611961 9.303046 104.871055-11.84022 149.289226-21.512013 45.192841-58.701819 77.972213-104.690847 90.307613l-17.349285 3.596489c-38.384621 5.667266-77.688664-3.442741-112.297073-25.353092-.122104-.078734-.244806-.156586-.367436-.234591-1.351079-.858354-2.694512-1.737319-4.030414-2.635689-.129717-.087952-.259694-.17558-.389586-.263384-.205143-.137987-.409855-.276961-.614387-.416391-.144121-.098904-.288206-.19741-.432183-.296131-.102943-.069941-.20587-.140665-.308751-.211505l-.077084-.053747c-.334631-.230654-.668675-.462473-1.002125-.695455l1.079209.749202c-.596782-.410924-1.191395-.825317-1.783819-1.243154-.105645-.07523-.211946-.150374-.318185-.225637-.202227-.142502-.403548-.285683-.604613-.429262-.214278-.153848-.429036-.307897-.643539-.462431-.174244-.124606-.347889-.250116-.521341-.375924-.277165-.202066-.554386-.404314-.831172-.607373-.157375-.114277-.314137-.229612-.470738-.345192-.117763-.08819-.235785-.175529-.353727-.263016-17.666631-13.099248-33.280163-29.309776-46.243891-47.897415-.16361-.235518-.32684-.470414-.489638-.705672-.407691-.588822-.812358-1.180133-1.214356-1.773782-12.774208-18.853614-22.791331-39.98048-29.549224-62.656144-.045539-.153659-.091076-.306987-.136464-.460388-.260512-.879899-.515941-1.762306-.766435-2.646991-.073653-.260362-.147061-.5213-.220041-.782441-.083977-.30035-.167213-.600516-.249882-.900939-.021087-.076714-.041947-.152666-.062771-.228635-.124668-.454751-.248189-.910744-.370404-1.367322-.135065-.50459-.26839-1.009359-.399975-1.514298l.399983 1.514297c-.154998-.579053-.307688-1.158313-.458074-1.737766-6.503984-25.058071-8.724379-50.531541-6.757094-75.279603.025779-.326918.052405-.653631.079759-.980193.008675-.098715.017006-.197054.025403-.295381 1.882735-22.121751 7.106027-43.543599 15.52757-63.388278.088021-.205449.175724-.411235.263759-.616818.27051-.633163.545081-1.264806.822912-1.8948.330926-.749769.66593-1.49683 1.005359-2.241068.052098-.114396.104368-.228682.156746-.342911.157928-.34438.316841-.688341.476702-1.031688.084043-.180421.1684-.360851.25303-.541137.109313-.23301.218981-.465441.329085-.697587.038147-.080264.076577-.161145.115063-.241996l.093779-.196892c.172321-.36096.345699-.721226.520129-1.080791l-.613908 1.277683c.302673-.63586.608449-1.269263.91731-1.900187.103548-.211538.207661-.423192.31214-.634598.052803-.106916.105644-.213604.158573-.32022.156708-.315485.314227-.630515.472561-.944989.201757-.401132.404844-.801064.609185-1.199964.030944-.059745.061905-.120088.092896-.180409.097145-.189839.194825-.379238.292788-.568401.086298-.165702.172427-.331355.258785-.496848 21.888365-41.962432 57.733968-72.3023116 101.576609-84.0619971 45.99232-12.336283 94.579709-2.5610919 135.789115 25.8142943zm-130.607767-6.4971096c-12.178446 3.2665618-23.558263 8.1526371-34.026147 14.4201954 33.424071-2.472749 67.081397 6.915585 96.508166 26.663938 36.593924 24.558243 64.047449 63.381836 76.304654 109.173398 12.256585 45.789265 7.873442 93.1474-11.54856 132.725615-15.730339 32.055333-40.425766 57.15814-70.903595 71.694844 12.431753.258418 24.972392-1.198511 37.391066-4.529508 82.43146-22.110165 128.274175-118.417404 102.39257-215.108237-25.881606-96.690834-113.686694-157.150411-196.118154-135.0402454zm-55.196304 38.2122324c-4.095252 1.098449-8.091061 2.396201-11.981499 3.883209-24.616959 27.796755-39.690042 65.628862-42.099479 106.934545-.009768.167404-.019318.33474-.02866.502132-1.185648 21.244933.977523 43.400438 6.913373 65.576119l.682615 2.490764c.071439.254706.14331.509155.21561.763346 7.574675 26.630674 19.869135 50.425421 35.440848 70.390874.074511.095348.14937.191145.224306.286854 13.877805 17.7252 30.342386 32.417006 48.379057 43.377052.394683.238967.789982.476922 1.186023.713084 1.177837.70325 2.362347 1.389829 3.553139 2.060355.149605.083301.298623.166902.44774.250252 1.32185.739835 2.65206 1.459322 3.989573 2.158767.175255.090632.350308.181763.525485.27255 1.264576.656432 2.535981 1.294121 3.813533 1.913683.238813.11472.477635.229798.716669.344243 5.58284 2.67415 11.281746 5.001551 17.069832 6.964838 4.303063-.674007 8.609096-1.580862 12.900383-2.731891 73.834313-19.804202 115.344044-104.392859 92.714583-188.934061-22.629472-84.541199-100.828817-137.020908-174.663131-117.216715z"/></svg>