<svg height="960" viewBox="0 0 960 960" width="960" xmlns="http://www.w3.org/2000/svg"><g><path d="m332.738392 26h-59.476784c-125.368638 0-226.9999998 101.631362-226.9999998 227v457c0 125.368638 101.6313618 227 226.9999998 227h59.476784c125.368638 0 227-101.631362 227-227v-457c0-125.368638-101.631362-227-227-227zm-59.476784 40h59.476784c103.277248 0 187 83.722752 187 187v457c0 103.277248-83.722752 187-187 187h-59.476784c-103.277248 0-186.9999998-83.722752-186.9999998-187v-457c0-103.277248 83.7227518-187 186.9999998-187z"/><path d="m223.244519 114.990901c40.79086-49.4721692 94.959669-75.2117281 153.639816-67.4388735 5.475024.7252294 9.325493 5.7515278 8.600264 11.2265517-.72523 5.4750239-5.751528 9.3254932-11.226552 8.6002638-51.264291-6.7905399-98.89826 15.8438391-135.582438 60.335322-33.168331 40.227377-53.499484 94.503927-53.90279 142.067366l-.006115 1.439241v421.126882c0 118.326913 73.596598 204.359679 169.57074 206.068502l2.915104.025918c5.522848 0 10 4.477152 10 10 0 5.522847-4.477152 10-10 10-52.678533 0-101.241765-22.887811-136.591208-63.642173-35.478099-40.902691-55.491894-97.175384-55.888622-160.530244l-.006014-1.922003v-421.126882c0-52.625449 22.067488-112.070521 58.477815-156.229871z"/><path d="m780.541284 189h-37.082568c-73.453872 0-133 59.546128-133 133v309c0 73.453872 59.546128 133 133 133h37.082568c73.453872 0 133-59.546128 133-133v-309c0-73.453872-59.546128-133-133-133zm-37.082568 40h37.082568c51.362482 0 93 41.637518 93 93v309c0 51.362482-41.637518 93-93 93h-37.082568c-51.362482 0-93-41.637518-93-93v-309c0-51.362482 41.637518-93 93-93z"/><path d="m817.714132 217.969911c0 5.522847-4.477153 10-10 10l-2.892511.006447-2.717094.0204-1.297395.015929-1.259095.020013-1.222646.024297-1.769679.04491-1.139626.035873-1.653826.063207-1.068176.048692-1.042835.054167-1.019348.059841-.99771.065714-.977925.071785-.95999.078055-.943908.084524-.929676.091191-1.37188.149722-.902197.108729-.894446.116091-.888545.123653c-.147702.02125-.295236.042824-.442639.064724l-1.324158.206061-.881954.14753-.883459.155885c-10.152239 1.83728-18.474628 5.250499-25.44126 10.772305-17.360957 13.760429-27.22104 41.526905-27.416506 88.890535l-.002962 1.441266.000196 258.613724.01065 3.172475.020444 3.078096.03096 2.988925.026839 1.945647.032048 1.909872.03747 1.875639.043107 1.842947.048957 1.8118.055022 1.782194.061301 1.75413.067793 1.727609.074499 1.702631.081419 1.679196.088554 1.657301.095902 1.636951.103464 1.618142c.017886.268209.036096.535698.054635.8025l.115208 1.592822c.01987.264182.040078.52774.060627.790708l.127434 1.570971.135852 1.558334.144484 1.547237.153329 1.537683c.026304.25557.052986.510807.080049.765741l.167 1.526246c.028609.253856.057609.507475.087004.760889l.181151 1.518278.190852 1.514894.200768 1.513052c.034299.252108.069021.504203.104169.756318l.216042 1.513183.226492 1.515198.237157 1.518755.248035 1.523856.259128 1.530497.270433 1.538683c.046027.257215.092533.514835.139524.772892l.14243.775518c4.066378 21.954886 11.103472 39.708165 21.609451 52.373654 12.06153 14.540784 28.599854 22.264798 51.151748 22.264798 5.522848 0 10 4.477153 10 10 0 5.522848-4.477152 10-10 10-28.487084 0-50.673497-10.361882-66.54518-29.495999-13.001641-15.674134-21.246333-36.47396-25.881553-61.500098l-.153838-.837468-.29822-1.665302-.28581-1.653824-.273636-1.643988c-.044605-.273269-.088712-.546197-.132327-.818817l-.255818-1.63231-.244233-1.626574-.232885-1.62248c-.037882-.270164-.075301-.540225-.112261-.810218l-.216306-1.619416-.205547-1.619424c-.066748-.539992-.131744-1.080258-.195024-1.621073l-.184739-1.624362-.174687-1.629293c-.028291-.272051-.056172-.544375-.083649-.817008l-.160055-1.639765-.150593-1.648797-.14137-1.659471-.13238-1.671785-.123628-1.685739c-.019888-.282211-.039422-.565071-.058605-.848615l-.110941-1.709748c-.017804-.286418-.035267-.573587-.052395-.861543l-.098785-1.737449-.090976-1.757966-.083403-1.780125-.076066-1.803925-.068965-1.829365-.0621-1.856446-.055471-1.885168-.049077-1.915531-.04292-1.947534-.036998-1.981179-.044911-3.03844-.023228-2.072467-.02536-3.183066-.014692-3.277223-.004819-3.37692.001149-2.036183.000675-254.437882c0-53.771303 11.892885-87.693557 34.996345-106.005537 9.760248-7.736048 21.112135-12.39174 34.30278-14.778888l1.065076-.188113 1.058944-.177638 1.055013-.167429c.175631-.027069.351189-.053723.526721-.079969l1.053243-.152612c.17561-.024632.351286-.048867.527073-.072709l1.056425-.13839 1.061297-.12924 1.068371-.120355 1.077645-.111734 1.08912-.103378c.182599-.016548.365767-.032759.549551-.048639l1.11046-.091341 1.127437-.083647 1.146615-.076218 1.167994-.069054 1.191574-.062154 1.217355-.055519 1.245336-.04915 1.27552-.043044 1.307903-.037203 1.342487-.031628 1.379272-.026317 2.142696-.030096 2.237843-.019636 2.340417-.011908h1.620933c5.522847 0 10 4.477153 10 10z"/></g></svg>