<?xml version="1.0" encoding="utf-8"?>
<!-- Generator: Adobe Illustrator 21.0.0, SVG Export Plug-In . SVG Version: 6.00 Build 0)  -->
<svg version="1.1" id="Layer_1" xmlns="http://www.w3.org/2000/svg" xmlns:xlink="http://www.w3.org/1999/xlink" x="0px" y="0px"
	 viewBox="0 0 389.5 839.3" style="enable-background:new 0 0 389.5 839.3;" xml:space="preserve">
<style type="text/css">
	.st0{fill:#010101;}
</style>
<g>
	<path class="st0" d="M365.9,836.4H23.6c-11.5,0-20.9-9.4-20.9-20.9V23.8c0-11.5,9.4-20.9,20.9-20.9h342.2
		c11.5,0,20.9,9.4,20.9,20.9v791.7C386.7,827,377.4,836.4,365.9,836.4z M23.6,8.9c-8.2,0-14.9,6.7-14.9,14.9v791.7
		c0,8.2,6.7,14.9,14.9,14.9h342.2c8.2,0,14.9-6.7,14.9-14.9V23.8c0-8.2-6.7-14.9-14.9-14.9H23.6z"/>
</g>
<g>
	<path class="st0" d="M194.7,212.4c-30.3,0-55-24.7-55-55s24.7-55,55-55c30.3,0,55,24.7,55,55S225.1,212.4,194.7,212.4z
		 M194.7,104.4c-29.2,0-53,23.8-53,53s23.8,53,53,53s53-23.8,53-53S224,104.4,194.7,104.4z"/>
</g>
<g>
	<path class="st0" d="M194.7,66.4c-6.5,0-11.8-5.3-11.8-11.8c0-6.5,5.3-11.8,11.8-11.8c6.5,0,11.8,5.3,11.8,11.8
		C206.6,61.1,201.3,66.4,194.7,66.4z M194.7,43.8c-6,0-10.8,4.9-10.8,10.8c0,6,4.9,10.8,10.8,10.8s10.8-4.9,10.8-10.8
		C205.6,48.6,200.7,43.8,194.7,43.8z"/>
</g>
<g>
	<path class="st0" d="M83.6,190.3c-18.1,0-32.9-14.8-32.9-32.9s14.8-32.9,32.9-32.9s32.9,14.8,32.9,32.9S101.8,190.3,83.6,190.3z
		 M83.6,126.5c-17,0-30.9,13.9-30.9,30.9s13.9,30.9,30.9,30.9s30.9-13.9,30.9-30.9S100.7,126.5,83.6,126.5z"/>
</g>
<g>
	<path class="st0" d="M305.8,190.3c-18.1,0-32.9-14.8-32.9-32.9s14.8-32.9,32.9-32.9c18.1,0,32.9,14.8,32.9,32.9
		S324,190.3,305.8,190.3z M305.8,126.5c-17,0-30.9,13.9-30.9,30.9s13.9,30.9,30.9,30.9c17,0,30.9-13.9,30.9-30.9
		S322.9,126.5,305.8,126.5z"/>
</g>
<g>
	<path class="st0" d="M234.2,317h-78.9c-13.7,0-24.9-11.2-24.9-24.9c0-13.7,11.2-24.9,24.9-24.9h78.9c13.7,0,24.9,11.2,24.9,24.9
		C259.1,305.8,247.9,317,234.2,317z M155.3,269.2c-12.6,0-22.9,10.3-22.9,22.9s10.3,22.9,22.9,22.9h78.9c12.6,0,22.9-10.3,22.9-22.9
		s-10.3-22.9-22.9-22.9H155.3z"/>
</g>
<g>
	<path class="st0" d="M216.5,317.1h-61.2c-13.7,0-24.9-11.2-24.9-24.9c0-13.7,11.2-24.9,24.9-24.9h61.2c13.7,0,24.9,11.2,24.9,24.9
		C241.4,305.9,230.2,317.1,216.5,317.1z M155.3,269.3c-12.6,0-22.9,10.3-22.9,22.9s10.3,22.9,22.9,22.9h61.2
		c12.6,0,22.9-10.3,22.9-22.9s-10.3-22.9-22.9-22.9H155.3z"/>
</g>
<g>
	<g>
		<path class="st0" d="M124.3,597.7H77.5c-5.2,0-9.5-4.3-9.5-9.5s4.3-9.5,9.5-9.5h46.8c5.2,0,9.5,4.3,9.5,9.5
			S129.5,597.7,124.3,597.7z M77.5,580.6c-4.1,0-7.5,3.4-7.5,7.5s3.4,7.5,7.5,7.5h46.8c4.1,0,7.5-3.4,7.5-7.5s-3.4-7.5-7.5-7.5H77.5
			z"/>
	</g>
	<g>
		<path class="st0" d="M216.8,597.7H170c-5.2,0-9.5-4.3-9.5-9.5s4.3-9.5,9.5-9.5h46.8c5.2,0,9.5,4.3,9.5,9.5S222,597.7,216.8,597.7z
			 M170,580.6c-4.1,0-7.5,3.4-7.5,7.5s3.4,7.5,7.5,7.5h46.8c4.1,0,7.5-3.4,7.5-7.5s-3.4-7.5-7.5-7.5H170z"/>
	</g>
	<g>
		<path class="st0" d="M312,597.7h-46.8c-5.2,0-9.5-4.3-9.5-9.5s4.3-9.5,9.5-9.5H312c5.2,0,9.5,4.3,9.5,9.5S317.2,597.7,312,597.7z
			 M265.2,580.6c-4.1,0-7.5,3.4-7.5,7.5s3.4,7.5,7.5,7.5H312c4.1,0,7.5-3.4,7.5-7.5s-3.4-7.5-7.5-7.5H265.2z"/>
	</g>
</g>
<g>
	<path class="st0" d="M384.7,605.5H4.7v-34.7h380V605.5z M6.7,603.5h376v-30.7H6.7V603.5z"/>
</g>
<g>
	<path class="st0" d="M190.7,316.6h-9.5v-48.8h9.5V316.6z M182.2,315.6h7.5v-46.8h-7.5V315.6z"/>
</g>
<g>
	<g>
		<path class="st0" d="M276.5,284.8h2v12.9h7.3v1.7h-9.3V284.8z"/>
	</g>
	<g>
		<path class="st0" d="M288.3,284.8h2v14.6h-2V284.8z"/>
	</g>
	<g>
		<path class="st0" d="M303.2,285.2c1.4,0.8,2.3,2.1,2.6,4h-2c-0.2-1.1-0.7-1.8-1.5-2.3c-0.7-0.5-1.7-0.7-2.8-0.7
			c-1.3,0-2.4,0.5-3.3,1.5c-0.9,1-1.4,2.5-1.4,4.5c0,1.7,0.4,3.1,1.1,4.2c0.7,1.1,2,1.6,3.6,1.6c1.3,0,2.4-0.4,3.2-1.1
			c0.8-0.8,1.3-2,1.3-3.7h-4.6v-1.6h6.4v7.8h-1.3l-0.5-1.9c-0.7,0.7-1.2,1.2-1.7,1.5c-0.9,0.5-1.9,0.7-3.3,0.7
			c-1.7,0-3.2-0.6-4.4-1.7c-1.3-1.4-2-3.3-2-5.8c0-2.4,0.7-4.4,2-5.8c1.2-1.4,2.8-2.1,4.8-2.1C301,284.4,302.2,284.7,303.2,285.2z"
			/>
	</g>
	<g>
		<path class="st0" d="M309.3,284.8h2v6h7.5v-6h2v14.6h-2v-6.8h-7.5v6.8h-2V284.8z"/>
	</g>
	<g>
		<path class="st0" d="M334.6,284.8v1.7h-4.9v12.9h-2v-12.9h-4.9v-1.7H334.6z"/>
	</g>
	<g>
		<path class="st0" d="M337.7,294.7c0,0.8,0.2,1.5,0.6,2c0.6,1,1.7,1.4,3.3,1.4c0.7,0,1.4-0.1,2-0.3c1.1-0.4,1.7-1.1,1.7-2.2
			c0-0.8-0.2-1.4-0.7-1.7c-0.5-0.3-1.2-0.6-2.3-0.9l-1.9-0.4c-1.3-0.3-2.1-0.6-2.7-1c-0.9-0.6-1.3-1.5-1.3-2.7
			c0-1.3,0.4-2.4,1.3-3.2c0.9-0.8,2.1-1.3,3.8-1.3c1.5,0,2.8,0.4,3.8,1.1c1,0.7,1.6,1.9,1.6,3.5h-1.9c-0.1-0.8-0.3-1.4-0.6-1.8
			c-0.6-0.8-1.6-1.1-2.9-1.1c-1.1,0-1.9,0.2-2.4,0.7c-0.5,0.5-0.7,1.1-0.7,1.7c0,0.7,0.3,1.2,0.9,1.6c0.4,0.2,1.2,0.5,2.6,0.8l2,0.5
			c1,0.2,1.7,0.5,2.2,0.9c0.9,0.7,1.3,1.7,1.3,3c0,1.6-0.6,2.8-1.7,3.5c-1.1,0.7-2.5,1-4,1c-1.8,0-3.2-0.5-4.2-1.4
			c-1-0.9-1.5-2.2-1.5-3.7H337.7z"/>
	</g>
</g>
<g>
	<g>
		<path class="st0" d="M36.1,294.7c0,0.8,0.2,1.5,0.6,2c0.6,1,1.7,1.4,3.3,1.4c0.7,0,1.4-0.1,2-0.3c1.1-0.4,1.7-1.1,1.7-2.2
			c0-0.8-0.2-1.4-0.7-1.7c-0.5-0.3-1.2-0.6-2.3-0.9l-1.9-0.4c-1.3-0.3-2.1-0.6-2.7-1c-0.9-0.6-1.3-1.5-1.3-2.7
			c0-1.3,0.4-2.4,1.3-3.2c0.9-0.8,2.1-1.3,3.8-1.3c1.5,0,2.8,0.4,3.8,1.1c1,0.7,1.6,1.9,1.6,3.5h-1.9c-0.1-0.8-0.3-1.4-0.6-1.8
			c-0.6-0.8-1.6-1.1-2.9-1.1c-1.1,0-1.9,0.2-2.4,0.7c-0.5,0.5-0.7,1.1-0.7,1.7c0,0.7,0.3,1.2,0.9,1.6c0.4,0.2,1.2,0.5,2.6,0.8l2,0.5
			c1,0.2,1.7,0.5,2.2,0.9c0.9,0.7,1.3,1.7,1.3,3c0,1.6-0.6,2.8-1.7,3.5c-1.1,0.7-2.5,1-4,1c-1.8,0-3.2-0.5-4.2-1.4
			c-1-0.9-1.5-2.2-1.5-3.7H36.1z"/>
	</g>
	<g>
		<path class="st0" d="M58.7,285.9c1,1,1.6,2.1,1.7,3.3h-1.9c-0.2-0.9-0.6-1.7-1.3-2.2c-0.6-0.5-1.5-0.8-2.7-0.8
			c-1.4,0-2.6,0.5-3.4,1.5c-0.9,1-1.3,2.6-1.3,4.6c0,1.7,0.4,3.1,1.2,4.2c0.8,1.1,2,1.6,3.5,1.6c1.4,0,2.5-0.6,3.3-1.7
			c0.4-0.6,0.7-1.4,0.9-2.3h1.9c-0.2,1.5-0.7,2.8-1.7,3.9c-1.1,1.3-2.7,1.9-4.6,1.9c-1.7,0-3.1-0.5-4.2-1.5
			c-1.5-1.4-2.2-3.5-2.2-6.3c0-2.2,0.6-3.9,1.7-5.3c1.2-1.5,2.9-2.2,5-2.2C56.3,284.4,57.7,284.9,58.7,285.9z"/>
	</g>
	<g>
		<path class="st0" d="M63.3,284.8h10.6v1.8h-8.7v4.4h8v1.7h-8v4.9H74v1.7H63.3V284.8z"/>
	</g>
	<g>
		<path class="st0" d="M76.7,284.8H79l7.3,11.8v-11.8h1.9v14.6h-2.2l-7.4-11.8v11.8h-1.9V284.8z"/>
	</g>
	<g>
		<path class="st0" d="M91.5,284.8h10.6v1.8h-8.7v4.4h8v1.7h-8v4.9h8.8v1.7H91.5V284.8z"/>
	</g>
	<g>
		<path class="st0" d="M106.2,294.7c0,0.8,0.2,1.5,0.6,2c0.6,1,1.7,1.4,3.3,1.4c0.7,0,1.4-0.1,2-0.3c1.1-0.4,1.7-1.1,1.7-2.2
			c0-0.8-0.2-1.4-0.7-1.7c-0.5-0.3-1.2-0.6-2.3-0.9l-1.9-0.4c-1.3-0.3-2.1-0.6-2.7-1c-0.9-0.6-1.3-1.5-1.3-2.7
			c0-1.3,0.4-2.4,1.3-3.2c0.9-0.8,2.1-1.3,3.8-1.3c1.5,0,2.8,0.4,3.8,1.1c1,0.7,1.6,1.9,1.6,3.5h-1.9c-0.1-0.8-0.3-1.4-0.6-1.8
			c-0.6-0.8-1.6-1.1-2.9-1.1c-1.1,0-1.9,0.2-2.4,0.7c-0.5,0.5-0.7,1.1-0.7,1.7c0,0.7,0.3,1.2,0.9,1.6c0.4,0.2,1.2,0.5,2.6,0.8l2,0.5
			c1,0.2,1.7,0.5,2.2,0.9c0.9,0.7,1.3,1.7,1.3,3c0,1.6-0.6,2.8-1.7,3.5c-1.1,0.7-2.5,1-4,1c-1.8,0-3.2-0.5-4.2-1.4
			c-1-0.9-1.5-2.2-1.5-3.7H106.2z"/>
	</g>
</g>
<g>
	<g>
		<path class="st0" d="M152.7,616.2h5.2c1,0,1.9,0.3,2.5,0.9c0.6,0.6,1,1.4,1,2.5c0,0.9-0.3,1.7-0.8,2.4c-0.6,0.7-1.4,1-2.6,1h-3.6
			v4.9h-1.6V616.2z M158.8,617.9c-0.3-0.2-0.8-0.2-1.4-0.2h-3.1v4h3.1c0.7,0,1.3-0.2,1.7-0.5c0.4-0.3,0.7-0.8,0.7-1.6
			C159.8,618.7,159.5,618.2,158.8,617.9z"/>
	</g>
	<g>
		<path class="st0" d="M163.6,616.2h5.3c0.9,0,1.6,0.1,2.2,0.4c1.1,0.5,1.6,1.4,1.6,2.8c0,0.7-0.1,1.3-0.4,1.7
			c-0.3,0.4-0.7,0.8-1.2,1.1c0.5,0.2,0.8,0.4,1,0.7c0.2,0.3,0.4,0.8,0.4,1.5l0.1,1.6c0,0.4,0.1,0.8,0.1,1c0.1,0.4,0.3,0.6,0.5,0.7
			v0.3h-1.9c-0.1-0.1-0.1-0.2-0.1-0.4c0-0.2-0.1-0.5-0.1-0.9l-0.1-1.9c0-0.8-0.3-1.3-0.8-1.5c-0.3-0.1-0.8-0.2-1.4-0.2h-3.5v5h-1.6
			V616.2z M168.7,621.6c0.7,0,1.3-0.1,1.7-0.4c0.4-0.3,0.6-0.8,0.6-1.6c0-0.8-0.3-1.4-0.9-1.7c-0.3-0.2-0.7-0.2-1.3-0.2h-3.8v4
			H168.7z"/>
	</g>
	<g>
		<path class="st0" d="M184.8,617.9c0.8,1,1.2,2.4,1.2,4c0,1.7-0.4,3.2-1.3,4.3c-1,1.4-2.5,2-4.4,2c-1.8,0-3.2-0.6-4.2-1.8
			c-0.9-1.1-1.4-2.6-1.4-4.3c0-1.6,0.4-2.9,1.2-4.1c1-1.4,2.5-2.2,4.5-2.2C182.3,615.9,183.8,616.6,184.8,617.9z M183.4,625.4
			c0.6-1,0.9-2.1,0.9-3.4c0-1.4-0.4-2.5-1.1-3.3c-0.7-0.8-1.7-1.3-2.9-1.3c-1.2,0-2.2,0.4-3,1.2c-0.8,0.8-1.1,2.1-1.1,3.7
			c0,1.3,0.3,2.4,1,3.3s1.7,1.3,3.2,1.3C181.7,626.9,182.8,626.4,183.4,625.4z"/>
	</g>
	<g>
		<path class="st0" d="M195.6,616.6c1.1,0.6,1.8,1.7,2.1,3.2h-1.6c-0.2-0.9-0.6-1.5-1.2-1.9s-1.3-0.6-2.2-0.6
			c-1.1,0-1.9,0.4-2.7,1.2c-0.7,0.8-1.1,2-1.1,3.6c0,1.4,0.3,2.5,0.9,3.4s1.6,1.3,2.9,1.3c1,0,1.9-0.3,2.6-0.9c0.7-0.6,1-1.6,1-3
			h-3.7v-1.3h5.1v6.2h-1l-0.4-1.5c-0.5,0.6-1,1-1.4,1.2c-0.7,0.4-1.6,0.6-2.6,0.6c-1.4,0-2.5-0.4-3.5-1.3c-1.1-1.1-1.6-2.7-1.6-4.6
			c0-2,0.5-3.5,1.6-4.7c1-1.1,2.3-1.7,3.9-1.7C193.9,615.9,194.8,616.2,195.6,616.6z"/>
	</g>
	<g>
		<path class="st0" d="M200.7,616.2h5.3c0.9,0,1.6,0.1,2.2,0.4c1.1,0.5,1.6,1.4,1.6,2.8c0,0.7-0.1,1.3-0.4,1.7
			c-0.3,0.4-0.7,0.8-1.2,1.1c0.5,0.2,0.8,0.4,1,0.7c0.2,0.3,0.4,0.8,0.4,1.5l0.1,1.6c0,0.4,0.1,0.8,0.1,1c0.1,0.4,0.3,0.6,0.5,0.7
			v0.3h-1.9c-0.1-0.1-0.1-0.2-0.1-0.4c0-0.2-0.1-0.5-0.1-0.9l-0.1-1.9c0-0.8-0.3-1.3-0.8-1.5c-0.3-0.1-0.8-0.2-1.4-0.2h-3.5v5h-1.6
			V616.2z M205.8,621.6c0.7,0,1.3-0.1,1.7-0.4c0.4-0.3,0.6-0.8,0.6-1.6c0-0.8-0.3-1.4-0.9-1.7c-0.3-0.2-0.7-0.2-1.3-0.2h-3.8v4
			H205.8z"/>
	</g>
	<g>
		<path class="st0" d="M215.6,616.2h1.8l4.2,11.7h-1.7l-1.2-3.5h-4.6l-1.3,3.5h-1.6L215.6,616.2z M218.2,623.1l-1.8-5.2l-1.9,5.2
			H218.2z"/>
	</g>
	<g>
		<path class="st0" d="M223,616.2h2.3l3.4,9.9l3.3-9.9h2.2v11.7h-1.5V621c0-0.2,0-0.6,0-1.2c0-0.6,0-1.1,0-1.8l-3.3,9.8h-1.6
			l-3.4-9.8v0.4c0,0.3,0,0.7,0,1.3s0,1,0,1.3v6.9H223V616.2z"/>
	</g>
</g>
<g>
	<path class="st0" d="M100.9,434C82.7,434,68,419.2,68,401.1s14.8-32.9,32.9-32.9s32.9,14.8,32.9,32.9S119,434,100.9,434z
		 M100.9,370.2c-17,0-30.9,13.9-30.9,30.9c0,17,13.9,30.9,30.9,30.9s30.9-13.9,30.9-30.9C131.8,384.1,117.9,370.2,100.9,370.2z"/>
</g>
<g>
	<g>
		<path class="st0" d="M97.1,396.4v-1.9c1.5-0.2,2.5-0.5,3.1-0.9c0.6-0.4,1-1.3,1.3-2.8h1.6V410H101v-13.6H97.1z"/>
	</g>
</g>
<g>
	<path class="st0" d="M194.7,434c-18.1,0-32.9-14.8-32.9-32.9s14.8-32.9,32.9-32.9s32.9,14.8,32.9,32.9S212.9,434,194.7,434z
		 M194.7,370.2c-17,0-30.9,13.9-30.9,30.9c0,17,13.9,30.9,30.9,30.9s30.9-13.9,30.9-30.9C225.6,384.1,211.8,370.2,194.7,370.2z"/>
</g>
<g>
	<g>
		<path class="st0" d="M190,405.7c0.5-1.2,1.5-2.3,3-3.3l2.2-1.5c1-0.7,1.7-1.2,2.1-1.7c0.6-0.7,0.9-1.6,0.9-2.6
			c0-1.1-0.3-2-0.9-2.7s-1.3-1-2.3-1c-1.4,0-2.4,0.6-2.9,1.9c-0.3,0.7-0.4,1.6-0.5,2.8h-2.1c0-1.7,0.3-3,0.8-4.1
			c0.9-1.9,2.5-2.8,4.7-2.8c1.9,0,3.2,0.6,4.1,1.8c0.9,1.2,1.3,2.5,1.3,4c0,1.5-0.5,2.9-1.4,4c-0.5,0.6-1.5,1.4-2.9,2.3l-1.6,1
			c-0.7,0.5-1.3,0.9-1.8,1.4c-0.8,0.8-1.2,1.6-1.4,2.6h8.9v2.3h-11.2C189.2,408.3,189.5,406.9,190,405.7z"/>
	</g>
</g>
<g>
	<path class="st0" d="M288.6,433.5c-18.1,0-32.9-14.8-32.9-32.9c0-18.1,14.8-32.9,32.9-32.9s32.9,14.8,32.9,32.9
		C321.5,418.8,306.7,433.5,288.6,433.5z M288.6,369.7c-17,0-30.9,13.9-30.9,30.9s13.9,30.9,30.9,30.9s30.9-13.9,30.9-30.9
		S305.6,369.7,288.6,369.7z"/>
</g>
<g>
	<g>
		<path class="st0" d="M284.2,408.7c-0.9-1.3-1.3-2.8-1.3-4.6h2.1c0.1,1.2,0.3,2.2,0.6,2.7c0.5,1,1.5,1.5,2.9,1.5
			c1.1,0,1.9-0.3,2.6-1c0.7-0.7,1-1.6,1-2.6c0-1.3-0.3-2.3-1-2.8c-0.7-0.5-1.6-0.8-2.9-0.8c-0.1,0-0.3,0-0.4,0c-0.1,0-0.3,0-0.4,0
			V399c0.2,0,0.4,0,0.5,0.1c0.1,0,0.3,0,0.5,0c0.8,0,1.4-0.1,1.9-0.4c0.9-0.5,1.3-1.4,1.3-2.7c0-1-0.3-1.7-0.9-2.2
			c-0.6-0.5-1.3-0.8-2-0.8c-1.4,0-2.3,0.5-2.8,1.6c-0.3,0.6-0.5,1.4-0.5,2.5h-2c0-1.4,0.2-2.7,0.7-3.7c0.8-1.8,2.3-2.7,4.4-2.7
			c1.7,0,3,0.4,3.9,1.3s1.4,2.1,1.4,3.8c0,1.2-0.3,2.1-0.8,2.9c-0.3,0.5-0.8,0.8-1.3,1.1c0.9,0.3,1.5,0.8,2,1.6
			c0.5,0.8,0.7,1.8,0.7,2.9c0,1.8-0.5,3.3-1.5,4.5c-1,1.2-2.5,1.7-4.4,1.7C286.5,410.5,285.1,409.9,284.2,408.7z"/>
	</g>
</g>
<g>
	<path class="st0" d="M100.9,530.2c-18.1,0-32.9-14.8-32.9-32.9c0-18.1,14.8-32.9,32.9-32.9s32.9,14.8,32.9,32.9
		C133.8,515.4,119,530.2,100.9,530.2z M100.9,466.4c-17,0-30.9,13.9-30.9,30.9c0,17,13.9,30.9,30.9,30.9s30.9-13.9,30.9-30.9
		C131.8,480.2,117.9,466.4,100.9,466.4z"/>
</g>
<g>
	<g>
		<path class="st0" d="M102.2,506.9v-4.7h-7.2v-2.4l7.5-12.2h1.7v12.5h2.4v2.1h-2.4v4.7H102.2z M102.2,500.1v-8.7l-5.2,8.7H102.2z"
			/>
	</g>
</g>
<g>
	<path class="st0" d="M194.7,530.2c-18.1,0-32.9-14.8-32.9-32.9c0-18.1,14.8-32.9,32.9-32.9s32.9,14.8,32.9,32.9
		C227.6,515.4,212.9,530.2,194.7,530.2z M194.7,466.4c-17,0-30.9,13.9-30.9,30.9c0,17,13.9,30.9,30.9,30.9s30.9-13.9,30.9-30.9
		C225.6,480.2,211.8,466.4,194.7,466.4z"/>
</g>
<g>
	<g>
		<path class="st0" d="M191.3,501.6c0.1,1.4,0.7,2.3,1.6,2.9c0.5,0.3,1,0.4,1.7,0.4c1.2,0,2.1-0.5,2.7-1.4s0.9-1.9,0.9-3
			c0-1.3-0.3-2.4-1-3.1c-0.7-0.7-1.5-1.1-2.5-1.1c-0.7,0-1.3,0.2-1.8,0.5c-0.5,0.3-0.9,0.8-1.3,1.3l-1.8-0.1l1.2-10.4h8.5v2.3h-6.9
			l-0.7,5.4c0.4-0.3,0.7-0.6,1.1-0.8c0.6-0.3,1.3-0.4,2.1-0.4c1.5,0,2.8,0.6,3.8,1.7s1.6,2.6,1.6,4.3c0,1.8-0.5,3.4-1.4,4.8
			c-1,1.4-2.5,2.1-4.6,2.1c-1.3,0-2.5-0.4-3.5-1.3c-1-0.9-1.6-2.2-1.7-4.1H191.3z"/>
	</g>
</g>
<g>
	<path class="st0" d="M288.6,530.2c-18.1,0-32.9-14.8-32.9-32.9c0-18.1,14.8-32.9,32.9-32.9s32.9,14.8,32.9,32.9
		C321.5,515.4,306.7,530.2,288.6,530.2z M288.6,466.4c-17,0-30.9,13.9-30.9,30.9c0,17,13.9,30.9,30.9,30.9s30.9-13.9,30.9-30.9
		C319.5,480.2,305.6,466.4,288.6,466.4z"/>
</g>
<g>
	<g>
		<path class="st0" d="M292.8,489c0.7,1.1,1.1,2.3,1.1,3.4h-2c-0.1-0.8-0.3-1.4-0.6-1.8c-0.5-0.8-1.2-1.2-2.2-1.2
			c-1.1,0-2.1,0.6-2.7,1.9c-0.7,1.2-1.1,3-1.1,5.4c0.5-0.8,1.1-1.4,1.8-1.8c0.7-0.4,1.4-0.5,2.2-0.5c1.4,0,2.6,0.5,3.6,1.5
			c1,1,1.5,2.6,1.5,4.6c0,1.7-0.5,3.3-1.4,4.6c-1,1.3-2.3,2-4.1,2c-1.5,0-2.8-0.7-4-2c-1.1-1.4-1.7-3.7-1.7-6.9
			c0-2.4,0.2-4.4,0.7-6.1c1-3.2,2.7-4.8,5.2-4.8C290.8,487.4,292.1,487.9,292.8,489z M291.2,503.8c0.5-0.9,0.8-1.9,0.8-3
			c0-1-0.2-1.9-0.7-2.8s-1.3-1.3-2.6-1.3c-0.9,0-1.7,0.3-2.3,1c-0.7,0.7-1,1.7-1,3.1c0,1.2,0.3,2.2,0.9,3.1s1.4,1.2,2.5,1.2
			C289.9,505,290.7,504.6,291.2,503.8z"/>
	</g>
</g>
<g>
	<g>
		<path class="st0" d="M201.3,763.2c0.5-0.6,0.9-1.1,1.2-1.6c2.1-2.5,4.8-3.1,7.9-2.9c2,0.1,3.8,0.7,5.5,1.9
			c1.6,1.2,2.4,2.8,2.8,4.7c0.2,1.1,0.2,2.3,0.2,3.4c0,3.3,0,6.5,0,9.8c0,2,1.1,3.4,3,3.8c1.9,0.5,4-1,4.2-3c0-0.4,0-0.8,0-1.2
			c0-6,0-12,0-17.9c0-0.6,0.1-0.8,0.8-0.8c1.8,0,3.7,0,5.5,0c0.5,0,0.7,0.2,0.7,0.7c0,1,0,2,0,3.1c0.9-1.2,1.7-2.3,2.8-3.1
			c1.1-0.7,2.3-1.2,3.6-1.3c0.4,0,0.6,0,0.6,0.5c0,1.6,0,3.2,0,4.8c0,0.5-0.1,0.6-0.6,0.5c-1.4-0.1-2.7,0-3.9,0.9
			c-1,0.8-1.7,1.8-1.9,3c-0.3,1.5-0.4,3-0.4,4.6c0,2,0,3.9,0,5.9c0,4.3-2.6,7.2-6.4,8.5c-2.9,0.9-5.9,0.9-8.8,0
			c-3.8-1.2-6.4-4.2-6.4-8.5c0-3.2,0-6.4,0-9.6c0-0.8-0.1-1.5-0.4-2.2c-0.4-1.3-1.4-2.2-2.7-2.4c-3.6-0.6-6.3,1-6.7,4.6
			c-0.4,3.3-0.3,6.5-0.3,9.8c0,2.1-0.7,4-2,5.5c-1.5,1.8-3.6,2.8-5.8,3.2c-2.5,0.5-4.9,0.4-7.3-0.4c-3.9-1.2-6.4-4.5-6.5-8.6
			c0-3.1,0-6.3,0-9.4c0-0.9-0.1-1.8-0.4-2.6c-0.4-0.9-1.1-1.6-2.1-1.9c-2.4-0.7-5.3-0.3-6.7,2.3c-0.7,1.3-0.7,2.7-0.8,4.1
			c-0.1,2.4,0,4.7-0.1,7.1c0,1.7-0.3,3.4-1.1,4.9c-1.2,2-2.9,3.3-5,4.1c-3.1,1.1-6.3,1.1-9.4,0c-3.4-1.2-6-4-6-7.9
			c-0.1-6.6,0-13.1,0-19.7c0,0,0,0,0-0.1c0-0.3,0.1-0.4,0.4-0.4c2,0,4,0,6,0c0.3,0,0.5,0.1,0.4,0.4c0,0.5,0,1,0,1.5
			c0,5.8,0.1,11.6,0,17.4c0,2.4,2.1,4.6,4.8,4c1.5-0.3,2.8-1.8,2.9-3.4c0-1.1,0-2.1,0-3.2c0-5.3,0-10.7,0-16c0-0.5,0.1-0.7,0.7-0.7
			c1.9,0,3.7,0,5.6,0c0.5,0,0.7,0.1,0.6,0.6c0,0.8,0,1.5,0,2.3c0,0.2-0.1,0.5,0.2,0.6c0.2,0.1,0.3-0.2,0.4-0.4
			c1.3-1.8,2.9-3.2,5.2-3.5c3.7-0.6,7.1-0.2,9.9,2.6c1.2,1.2,1.6,2.8,1.8,4.4c0.3,1.8,0.2,3.6,0.2,5.3c0,2.6,0,5.1,0,7.7
			c0,1.9,1.2,3.1,2.5,3.5c1.7,0.5,3.3-0.2,4.2-1.7c0.4-0.7,0.5-1.4,0.5-2.1c0-6.2,0-12.3,0-18.5c0-0.9,0-0.9,0.9-0.9
			c1.7,0,3.5,0,5.2,0c0.7,0,0.8,0.2,0.8,0.8C201.2,761.1,201.3,762.1,201.3,763.2z"/>
	</g>
	<g>
		<path class="st0" d="M151.5,756c-2.4,0-4.3-1.9-4.3-4.2c0-2.4,1.9-4.4,4.3-4.4c2.4,0,4.3,1.9,4.3,4.3
			C155.8,754.1,154,756,151.5,756z"/>
	</g>
</g>
<g>
	<g>
		<path class="st0" d="M305.8,171.2c-0.6,0-1-0.4-1-1v-25.5c0-0.6,0.4-1,1-1s1,0.4,1,1v25.5C306.8,170.7,306.4,171.2,305.8,171.2z"
			/>
	</g>
</g>
<g>
	<g>
		<path class="st0" d="M318.6,158.4h-25.5c-0.6,0-1-0.4-1-1s0.4-1,1-1h25.5c0.6,0,1,0.4,1,1S319.1,158.4,318.6,158.4z"/>
	</g>
</g>
<g>
	<g>
		<path class="st0" d="M96.4,158.4H70.9c-0.6,0-1-0.4-1-1s0.4-1,1-1h25.5c0.6,0,1,0.4,1,1S97,158.4,96.4,158.4z"/>
	</g>
</g>
<g>
	<g>
		<path class="st0" d="M194.7,147.4c-0.6,0-1-0.4-1-1v-25.5c0-0.6,0.4-1,1-1s1,0.4,1,1v25.5C195.7,147,195.3,147.4,194.7,147.4z"/>
	</g>
</g>
<g>
	<path class="st0" d="M102.7,626.3v-8.6c0-0.4-0.5-0.7-0.8-0.5l-6.4,4.3c-0.4,0.3-0.4,0.9,0,1.2l6.2,4.2
		C102.1,627.2,102.7,626.9,102.7,626.3z"/>
</g>
<g>
	<path class="st0" d="M284.8,626.3v-8.6c0-0.4,0.5-0.7,0.8-0.5l6.4,4.3c0.4,0.3,0.4,0.9,0,1.2l-6.2,4.2
		C285.4,627.2,284.8,626.9,284.8,626.3z"/>
</g>
<g>
	<circle class="st0" cx="194.7" cy="54.6" r="8.8"/>
</g>
<g>
	<path class="st0" d="M203.8,134.4v2.2c8,3.5,13.7,11.5,13.7,20.9c0,12.5-10.2,22.8-22.8,22.8c-12.5,0-22.8-10.2-22.8-22.8
		c0-9.3,5.6-17.3,13.6-20.8v-2.2c-9.1,3.7-15.6,12.6-15.6,23c0,13.7,11.1,24.8,24.8,24.8c13.7,0,24.8-11.1,24.8-24.8
		C219.5,147,213,138,203.8,134.4z"/>
</g>
<g>
	<path class="st0" d="M83.6,190.3c-18.1,0-32.9-14.8-32.9-32.9s14.8-32.9,32.9-32.9s32.9,14.8,32.9,32.9S101.8,190.3,83.6,190.3z
		 M83.6,126.5c-17,0-30.9,13.9-30.9,30.9s13.9,30.9,30.9,30.9s30.9-13.9,30.9-30.9S100.7,126.5,83.6,126.5z"/>
</g>
<g>
	<g>
		<path class="st0" d="M124.3,597.7H77.5c-5.2,0-9.5-4.3-9.5-9.5s4.3-9.5,9.5-9.5h46.8c5.2,0,9.5,4.3,9.5,9.5
			S129.5,597.7,124.3,597.7z M77.5,580.6c-4.1,0-7.5,3.4-7.5,7.5s3.4,7.5,7.5,7.5h46.8c4.1,0,7.5-3.4,7.5-7.5s-3.4-7.5-7.5-7.5H77.5
			z"/>
	</g>
	<g>
		<path class="st0" d="M216.8,597.7H170c-5.2,0-9.5-4.3-9.5-9.5s4.3-9.5,9.5-9.5h46.8c5.2,0,9.5,4.3,9.5,9.5S222,597.7,216.8,597.7z
			 M170,580.6c-4.1,0-7.5,3.4-7.5,7.5s3.4,7.5,7.5,7.5h46.8c4.1,0,7.5-3.4,7.5-7.5s-3.4-7.5-7.5-7.5H170z"/>
	</g>
	<g>
		<path class="st0" d="M312,597.7h-46.8c-5.2,0-9.5-4.3-9.5-9.5s4.3-9.5,9.5-9.5H312c5.2,0,9.5,4.3,9.5,9.5S317.2,597.7,312,597.7z
			 M265.2,580.6c-4.1,0-7.5,3.4-7.5,7.5s3.4,7.5,7.5,7.5H312c4.1,0,7.5-3.4,7.5-7.5s-3.4-7.5-7.5-7.5H265.2z"/>
	</g>
</g>
</svg>
