<svg height="960" viewBox="0 0 960 960" width="960" xmlns="http://www.w3.org/2000/svg"><path d="m317.774987 160.63049 446.250362 286.867855c31.598508 20.312732 50.05482 55.563743 49.107102 92.712712l-.003118.089013 125.889665 77.993911c14.176558 8.783041 21.401481 25.42703 18.175604 41.753025l-.100956.494621-9.397089 44.612311c-1.570199 7.454459-5.236458 14.305518-10.567563 19.747375-28.228242 28.814674-41.043864 41.896536-52.217341 53.302138l-.734479.749738c-.366196.373804-.730936.746121-1.094714 1.117456l-.726419.74151c-.241809.246833-.483337.493378-.724729.739785l-1.206511 1.231576-1.187444 1.212113-.780285.796495c-7.036613 7.182797-14.496246 14.797401-25.928203 26.466853-7.116021 7.263854-10.314233 10.528508-13.124266 13.396918l-.342386.349499c-.397746.406009-.790511.806933-1.188584 1.213276l-.342745.349866c-1.665208 1.699802-3.47199 3.544119-6.15205 6.279857-1.846431 1.88479-2.637759 2.692557-3.360573 3.430388l-.215776.220258c-.467335.477044-.947407.96709-1.711159 1.746707-.807813.824596-.807813.824596-1.321876 1.349339-.233666.238519-.318635.325254-.368458.376112l-.053629.054744c-.005794.005913-.011863.012109-.018539.018923-13.83982 14.127338-35.926347 16.020013-51.967981 4.453326-.433989-.312924-.433989-.312924-2.603932-1.877543-3.03792-2.190467-3.03792-2.190467-7.811795-5.63263-4.374605-3.154273-7.174353-5.173007-9.857111-7.107387l-.446293-.321796-.222803-.16065-.669283-.482582-.20298-.146357-.407956-.294153c-.134319-.09685-.269218-.194118-.404874-.291931l-.409413-.295204c-3.983024-2.871926-8.751284-6.31004-18.626468-13.430459-17.965046-12.953547-29.29021-21.119462-40.286037-29.047912l-1.569274-1.131511c-.261399-.18848-.522782-.376948-.784234-.565466l-1.570218-1.132192c-13.889594-10.014976-28.45105-20.514393-56.365162-40.641631l-.135681-.098716-.540416.337251c-31.385393 19.267627-71.705734 18.315709-102.342294-3.371923l-.86129-.618328-.169787-.121505c-295.444042-215.209368-449.7432792-327.812227-466.1032628-340.157186l-.4535384-.343404c-1.9329684-1.469598-10.0846081-7.27991-12.3636387-9.08683-8.1557206-6.466227-14.1794053-13.762866-18.0880492-24.02702-3.0511831-8.01245-3.9899716-15.278878-4.2709721-25.619588-.0648657-2.387035-.0973834-4.931529-.1009845-8.290289l.0003644-4.622187c.0031625-1.418177.0162191-3.926635.022729-6.471212l.0024263-.968952c.0031526-1.288509.0059311-2.551801.0078057-3.651731l.0008595-.535712.0001896-.129224.0007849-.614899.0001228-.116316.0005397-.933391c0-16.797204 6.5861968-32.282677 17.9298139-47.1036 8.7723957-11.461512 20.7931781-22.981324 36.161703-35.033571 28.1020959-22.038123 68.7906919-46.862625 122.4710179-74.940541 36.942346-19.321193 81.411594-17.332397 116.48353 5.210578zm315.976207 511.876816-.008348.588593c-.001388.097888-.002775.195699-.004162.293473l-.008318.586536-.008334.587633c-.068772 4.849129-.141975 10.01064-.289969 20.445762 82.861877 59.748604 133.998078 96.619936 153.412131 110.618276l5.678488-34.564729-158.604855-110.304868c-.072022 5.078295-.120565 8.501021-.166633 11.749324zm275.586569 20.686822-100.184 99.998-1.023602 6.228766c16.657805-17.003866 50.132903-51.174397 100.425293-102.511595zm-151.138029-140.283013-1.470607 1.161054c-32.168624 25.385896-45.764089 36.114768-59.32342 46.815125l-1.356499 1.070482c-8.599096 6.785983-17.431544 13.756117-31.206435 24.626583l-1.156206.912421c-9.142195 7.214571-12.818947 10.116083-16.376886 12.923833l-.582015.459297c-.947796.747954-1.907834 1.505569-2.980938 2.35241l157.838035 109.772808 107.621-106.128-125.63869-77.836933c-.314164-.15681-.623174-.331651-.925731-.524811l-2.644579-1.688256-8.951059-5.545805.016059-.159195zm-689.2673718-254.847153-.2328526.43161c-2.6470574 5.013958-3.9705874 9.681307-3.9705874 14.002052 0 45.39093-1.7523421 37.449989 18.9968129 53.225165 13.2130493 10.045623 165.5544079 121.227702 457.0240769 333.546239l8.875276 6.464474c19.339623 14.085849 45.697176 13.457984 64.336769-1.475071-.417129-1.132306-.63036-2.345363-.613126-3.586354.192899-13.542386.281619-19.78792.357977-25.170226l.007238-.510197c.013211-.93133.026135-1.84257.039259-2.767966l.008402-.592432c.046412-3.272546.096565-6.808845.171421-12.086903.052657-3.712919.074199-5.231841.094713-6.678234l.004729-.333461c.012636-.890946.025758-1.816225.046379-3.270236.040506-2.856092.040506-2.856092.048608-3.42731.042705-3.011139 1.440113-5.842698 3.804113-7.708251.025745-.020317.049582-.039128.072361-.057104l.066004-.052087c.24733-.19518.466637-.368247 1.946962-1.536447 2.432882-1.91991 2.432882-1.91991 6.255982-4.936912 3.596433-2.838129 5.86375-4.627384 8.065024-6.364521l.776235-.612566.389917-.307703c3.391163-2.67614 7.14922-5.641813 15.792749-12.462862 13.426209-10.595302 22.221513-17.536124 30.493177-24.063714l.900484-.710618c.2996-.23643.598706-.472469.897514-.708274l1.427965-1.126879c1.015761-.801589 2.031724-1.603337 3.055683-2.411395l.879819-.69431c13.379131-10.558152 28.485819-22.479607 62.441062-49.275414 3.342075-2.637401 7.987564-2.869624 11.576002-.578673l10.186614 6.503075c.225242-12.170262-2.872855-23.999703-8.731567-34.316446l-143.795027 114.427858c-29.785817 23.700909-71.608672 25.001669-102.809771 3.197556l-.108938-.078316-8.216091-5.741779c-270.648834-189.164677-412.1650976-288.726267-427.1419917-300.534659l-.418952-.334072c-6.3277425-5.114226-10.6835222-10.963463-13.0004241-17.286637zm683.0793708 361.153849 25.077566 17.492378-22.77063 21.668538c-16.915096-10.855826-25.372644-16.283739-25.372644-16.283739l.009227-.009151c.012301-.012201.036905-.036603.07381-.073207l.064584-.064056c.086112-.085408.209898-.208182.371358-.368322l.14762-.146414c2.169715-2.15198 9.636084-9.557322 22.399109-22.216027zm54.328819-47.949487s8.123358 5.203333 24.370073 15.609999l-21.199406 20.435786-24.01128-16.467154c13.893742-13.052421 20.840613-19.578631 20.840613-19.578631zm-586.511074-420.4035c-54.661087 28.590911-94.874342 53.397872-120.6396717 74.421057-6.6187522 6.629899-10.6738088 13.005411-11.8552981 18.462979-1.2546764 5.795637.6905338 10.810086 7.1700145 16.046951 12.0425853 9.733093 157.8848803 112.337925 434.7716553 305.849019l.048643.034279.671035.463317c23.624195 16.051235 54.910159 15.078191 77.490949-2.40989l.688512-.540507 143.886361-114.500835c-2.952572-2.775502-6.181772-5.305508-9.666185-7.545422l-446.250416-286.86789c-22.976968-14.768767-52.111993-16.07177-76.315599-3.413058zm227.770793 251.410773 29.682269 18.78932.318661-.067235c2.963054-.609239 6.019473-.943825 9.122184-.991695l.776615-.005987c21.881988 0 40.5 14.345026 40.5 33.5s-18.618012 33.5-40.5 33.5-40.5-14.345026-40.5-33.5c0-.210112.002323-.419996.006959-.62963l.012581-.383453-27.274976-16.797669c-4.620058-2.845358-6.114549-8.841018-3.419169-13.509888l.14841-.248823c2.896168-4.702558 9.056153-6.166927 13.758711-3.270759l33.01254 20.331457c3.976867 2.449236 5.728674 7.325126 4.219833 11.745265-.310011.908174-.464889 1.827018-.464889 2.7635 0 6.802409 8.692618 13.5 20.5 13.5s20.5-6.697591 20.5-13.5-8.692618-13.5-20.5-13.5c-3.085171 0-6.057932.469009-8.778522 1.356246-2.833338.924006-5.931155.536143-8.449221-1.057888l-33.36946-21.12412c-4.666431-2.954026-6.054609-9.131627-3.100584-13.798058 2.954026-4.66643 9.131627-6.054609 13.798058-3.100583zm82-60 29.682269 18.78932.318661-.067235c2.963054-.609239 6.019473-.943825 9.122184-.991695l.776615-.005987c21.881988 0 40.5 14.345026 40.5 33.5s-18.618012 33.5-40.5 33.5-40.5-14.345026-40.5-33.5c0-.210112.002323-.419996.006959-.62963l.012581-.383453-27.274976-16.797669c-4.620058-2.845358-6.114549-8.841018-3.419169-13.509888l.14841-.248823c2.896168-4.702558 9.056153-6.166927 13.758711-3.270759l33.01254 20.331457c3.976867 2.449236 5.728674 7.325126 4.219833 11.745265-.310011.908174-.464889 1.827018-.464889 2.7635 0 6.802409 8.692618 13.5 20.5 13.5s20.5-6.697591 20.5-13.5-8.692618-13.5-20.5-13.5c-3.085171 0-6.057932.469009-8.778522 1.356246-2.833338.924006-5.931155.536143-8.449221-1.057888l-33.36946-21.12412c-4.666431-2.954026-6.054609-9.131627-3.100584-13.798058 2.954026-4.66643 9.131627-6.054609 13.798058-3.100583zm-350.600271-149.275597c6.627417 0 12 3.134007 12 7s-5.372583 7-12 7-12-3.134007-12-7 5.372583-7 12-7z"/></svg>