<svg height="960" viewBox="0 0 960 960" width="960" xmlns="http://www.w3.org/2000/svg"><path d="m281.287262 29.240174c1.003353 0 2.006681.0099348 3.009838.0298027l524.712737 10.3921695c82.757957 1.6390582 148.990163 69.1960108 148.990163 151.9701968v576.687733c0 82.774186-66.232206 150.331139-148.990163 151.970197l-524.712737 10.39217c-5.305527.105078-10.589431-.063798-15.835776-.503324l-1.423324-.125945-.480352-.021095c-.713452-.038307-1.430156-.095721-2.149613-.172689l-.720355-.083503-129.033508-16.111232c-70.0684873-8.748811-122.654172-68.308714-122.654172-138.921281v-591.207845c0-71.400074 53.7313244-131.3609006 124.703629-139.1618524l120.851371-13.2845026.264193-.0426174c7.242856-1.1249707 14.586403-1.7282623 21.987167-1.8063826zm0 40-1.725808.0130268c-.094038.0014205-.188048.0029569-.282029.004609-.49601.0087221-.990675.0206515-1.484535.035778l1.484535-.035778c-.589264.010359-1.177417.0252689-1.764427.0446959-.547033.0181032-1.093221.0401364-1.638389.0660674l1.638389-.0660674c-.63491.0210122-1.268482.0473089-1.900673.0788475l.262284-.0127801c-.628203.0298805-1.255051.0649366-1.880502.1051265l1.618218-.0923464c-.572434.0285574-1.143736.0614126-1.713875.0985339l.095657-.0061875c-.573843.0368738-1.146511.0780692-1.717969.1235539l1.622312-.1173664c-.665611.0433374-1.329636.0924893-1.992025.1474055l.369713-.0300391c-1.187233.0944967-2.369249.2075071-3.545761.3387426-.195319.0217875-.390292.0440544-.585111.0668213l.585111-.0668213c-.618321.0689714-1.235122.1429767-1.85036.2219739l1.265249-.1551526c-.509362.059525-1.017681.1224677-1.524932.1888047l.259683-.0336521c-.604411.077607-1.207314.1600318-1.808669.2472346l1.548986-.2135825c-.659283.0862193-1.316763.1781723-1.972387.2758074l.423401-.0622249c-.561557.0814318-1.121765.16703-1.680591.2567625l1.25719-.1945376c-.553457.0824203-1.105592.1688897-1.656373.2593772l.399183-.0648396c-53.350062 8.5665916-94.105495 54.8129289-94.105495 110.5782069v597.472071c0 .739313 0 1.478607.02196 2.217775 1.138056 57.46179 45.357293 103.957462 101.22524 109.275433.081334.007742.1631.015435.244891.02304l-.244891-.02304c.642423.061151 1.286386.116857 1.931842.167073l-1.686951-.144033c.605629.056309 1.212619.107781 1.820931.154376l-.13398-.010343c.549605.042758 1.100292.081536 1.652031.116304l-1.518051-.105961c.609682.046699 1.220692.088501 1.83299.125364l-.314939-.019403c1.201589.075719 2.40817.132421 3.619439.169815.139895.004318.279579.008372.419326.012168l-.419326-.012168c.675469.020853 1.352396.035701 2.030728.044493l-1.611402-.032325c.594301.016145 1.189721.027642 1.786223.034457l-.174821-.002132c1.240918.016085 2.486537.011904 3.736535-.012853l524.712738-10.392169c60.979547-1.207727 109.782225-50.986534 109.782225-111.97804v-576.687733c0-60.991505-48.802678-110.7703126-109.782225-111.9780396l-524.712738-10.3921695c-.739168-.0219599-1.478462-.0219599-2.217775-.0219599zm-81.911253 8.4821608-58.301752 6.4118449c-50.6947396 5.5721344-89.074257 48.4012963-89.074257 99.4013493v591.207845c0 50.437548 37.5612033 92.980336 87.610123 99.229486l58.59894 7.319972c-29.160433-23.640847-48.094379-59.496053-48.89592-99.966781-.017253-.871162-.025881-1.742473-.025881-2.613806v-597.472071c0-41.955804 19.574287-79.339788 50.088747-103.5178392zm77.633079 740.1779702c1.281237 1.387834 1.938823 3.129468 1.986528 4.88007l4.920485-.196688c.281145-.011238.562487-.016858.843857-.016858 11.669093 0 21.128763 9.459669 21.128763 21.128763 0 11.954709-9.486467 21.752451-21.434948 22.138284l-20.12812.649965c-4.139978.133685-7.604466-3.114056-7.738152-7.254034-.133685-4.139978 3.114056-7.604466 7.254034-7.738152l20.12812-.649964c3.856894-.124545 6.919066-3.287194 6.919066-7.146099 0-3.384823-2.743941-6.128763-6.128763-6.128763-.081617 0-.163225.00163-.244776.00489l-5.516433.221068c.011948 1.427791-.382502 2.871847-1.215359 4.149098l-.147625.218072c-2.380757 3.389585-7.058543 4.207401-10.448128 1.826645l-9.142333-6.421339c-3.912116-2.747769-4.289359-8.40524-.776702-11.648096l9.142333-8.440129c3.043481-2.809717 7.788436-2.620214 10.598153.423267zm223.979799 14.86226c2.388601 3.384062 1.58162 8.063729-1.802441 10.45233l-27.981752 19.750595c-2.546206 1.797209-5.93853 1.83248-8.521553.088599l-29.254437-19.750594c-3.432994-2.317723-4.3371-6.9796-2.019377-10.412594s6.9796-4.3371 10.412594-2.019378l24.963392 16.852986 23.751244-16.764386c3.384062-2.388601 8.06373-1.58162 10.45233 1.802442zm327.430187 16.620812c.094258 4.141063-3.186326 7.574469-7.327389 7.668727l-43.933186 1c-4.141063.094258-7.57447-3.186325-7.668728-7.327388s3.186325-7.574469 7.327388-7.668728l43.933187-1c4.141063-.094258 7.57447 3.186326 7.668728 7.327389zm-179.972122-28.511854c2.583023-1.74388 5.975347-1.70861 8.521553.0886l27.981752 19.750595c3.384062 2.388601 4.191042 7.068268 1.802442 10.45233-2.388601 3.384062-7.068269 4.191042-10.45233 1.802442l-23.751245-16.764386-24.963392 16.852985c-3.432994 2.317723-8.094871 1.413617-10.412594-2.019377-2.317722-3.432994-1.413616-8.094871 2.019378-10.412594zm179.972122 12.511854c.094258 4.141063-3.186326 7.574469-7.327389 7.668727l-43.933186 1c-4.141063.094258-7.57447-3.186325-7.668728-7.327388s3.186325-7.574469 7.327388-7.668728l43.933187-1c4.141063-.094258 7.57447 3.186326 7.668728 7.327389zm0-17c.094258 4.141063-3.186326 7.574469-7.327389 7.668727l-43.933186 1c-4.141063.094258-7.57447-3.186325-7.668728-7.327388s3.186325-7.574469 7.327388-7.668728l43.933187-1c4.141063-.094258 7.57447 3.186326 7.668728 7.327389zm-567.422551-654.407229 596 10.520997c10.906427.192469 19.647108 9.088761 19.647108 19.996886v574.964357c0 10.908126-8.740681 19.804417-19.647108 19.996887l-596 10.521002c-11.182027.194152-20.352892-8.816299-20.352892-20.000067v-596c0-10.953175 8.796584-19.821731 19.663848-20.000062zm-.352892 20.000062v596l596-10.517822v-574.964357zm-128.622661 160.705124c.462466 5.50345-3.62406 10.339781-9.127511 10.802247l-26.4945609 2.226391c-5.5034507.462465-10.3397817-3.62406-10.8022475-9.127511-.4624659-5.503451 3.6240598-10.339782 9.1275105-10.802247l26.4945609-2.226391c5.503451-.462466 10.339782 3.62406 10.802248 9.127511zm0-39.5c.462466 5.50345-3.62406 10.339781-9.127511 10.802247l-26.4945609 2.226391c-5.5034507.462465-10.3397817-3.62406-10.8022475-9.127511-.4624659-5.503451 3.6240598-10.339782 9.1275105-10.802247l26.4945609-2.226391c5.503451-.462466 10.339782 3.62406 10.802248 9.127511zm0-39.5c.462466 5.50345-3.62406 10.339781-9.127511 10.802247l-26.4945609 2.226391c-5.5034507.462465-10.3397817-3.62406-10.8022475-9.127511-.4624659-5.503451 3.6240598-10.339782 9.1275105-10.802247l26.4945609-2.226391c5.503451-.462466 10.339782 3.62406 10.802248 9.127511zm0-39.5c.462466 5.50345-3.62406 10.339781-9.127511 10.802247l-26.4945609 2.226391c-5.5034507.462465-10.3397817-3.62406-10.8022475-9.127511-.4624659-5.503451 3.6240598-10.339782 9.1275105-10.802247l26.4945609-2.226391c5.503451-.462466 10.339782 3.62406 10.802248 9.127511z"/></svg>