<?xml version="1.0" encoding="UTF-8"?>
<svg width="960px" height="960px" viewBox="0 0 960 960" version="1.1" xmlns="http://www.w3.org/2000/svg" xmlns:xlink="http://www.w3.org/1999/xlink">
    <!-- Generator: Sketch 60.1 (88133) - https://sketch.com -->
    <title>net.bitron/902010_24 (Smoke detector)</title>
    <desc>Created with Sketch.</desc>
    <g id="net.bitron/902010_24-(Smoke-detector)" stroke="none" stroke-width="1" fill="none" fill-rule="evenodd">
        <circle id="Oval" stroke="#000000" stroke-width="40" stroke-linejoin="round" cx="480" cy="480" r="454"></circle>
        <path d="M480,218 C335.301396,218 218,335.301396 218,480 C218,624.698604 335.301396,742 480,742 C624.698604,742 742,624.698604 742,480 C742,335.301396 624.698604,218 480,218 Z M480,238 C613.652909,238 722,346.347091 722,480 C722,613.652909 613.652909,722 480,722 C346.347091,722 238,613.652909 238,480 C238,346.347091 346.347091,238 480,238 Z" id="Oval" fill="#000000" fill-rule="nonzero"></path>
        <path d="M480,212 C331.987687,212 212,331.987687 212,480 C212,628.012313 331.987687,748 480,748 C628.012313,748 748,628.012313 748,480 C748,331.987687 628.012313,212 480,212 Z M480,232 C616.966618,232 728,343.033382 728,480 C728,616.966618 616.966618,728 480,728 C343.033382,728 232,616.966618 232,480 C232,343.033382 343.033382,232 480,232 Z" id="Oval" fill="#000000" fill-rule="nonzero"></path>
        <path d="M599.737476,268.501328 C604.541155,271.22649 606.226127,277.329822 603.500964,282.133502 C600.775802,286.937181 594.67247,288.622152 589.868791,285.89699 C556.64539,267.049114 519.065252,257 480,257 C474.477153,257 470,252.522847 470,247 C470,241.477153 474.477153,237 480,237 C522.547533,237 563.524495,247.957442 599.737476,268.501328 Z M722.924199,473.87288 C723.060945,479.394034 718.696019,483.980668 713.174864,484.117413 C707.65371,484.254158 703.067076,479.889232 702.930331,474.368078 C701.964692,435.379971 690.965054,398.038134 671.259884,365.264122 C668.414075,360.530918 669.94411,354.386915 674.677314,351.541106 C679.410517,348.695297 685.554521,350.225332 688.40033,354.958536 C709.877982,390.680573 721.872225,431.398917 722.924199,473.87288 Z M610.24684,685.180696 C605.586792,688.144781 599.406211,686.769931 596.442126,682.109884 C593.478041,677.449836 594.852891,671.269255 599.512939,668.30517 C631.981117,647.653358 658.681242,618.879233 676.815633,584.943266 C679.418554,580.072265 685.477364,578.233623 690.348365,580.836544 C695.219366,583.439464 697.058008,589.498275 694.455087,594.369275 C674.696658,631.344403 645.616675,662.683246 610.24684,685.180696 Z M371.101171,697.289525 C366.165556,694.811309 364.173441,688.801212 366.651657,683.865597 C369.129873,678.929983 375.13997,676.937868 380.075584,679.416083 C410.819046,694.852648 444.817743,703 480.019114,702.999999 C483.797345,702.999683 487.56396,702.905495 491.316766,702.718054 C496.832738,702.442549 501.527657,706.690787 501.803162,712.206758 C502.078667,717.72273 497.83043,722.417649 492.314458,722.693154 C488.229946,722.897162 484.131222,722.999999 480.019952,722.999999 C441.683903,722.999999 404.614227,714.116728 371.101171,697.289525 Z M237.68601,498.391457 C237.273638,492.884026 241.403999,488.085077 246.91143,487.672705 C252.41886,487.260333 257.217809,491.390694 257.630181,496.898125 C260.532907,535.665432 273.416761,572.451698 294.791779,604.24829 C297.872974,608.831748 296.655149,615.045176 292.071691,618.126371 C287.488234,621.207566 281.274805,619.989741 278.193611,615.406283 C254.898092,580.752833 240.84946,540.64087 237.68601,498.391457 Z M339.519065,281.699121 C344.023033,278.502855 350.265306,279.562956 353.461573,284.066924 C356.657839,288.570892 355.597737,294.813165 351.093769,298.009431 C319.710526,320.280728 294.49291,350.348472 278.108017,385.167447 C275.756464,390.16465 269.79912,392.309374 264.801917,389.957822 C259.804713,387.60627 257.659989,381.648926 260.011541,376.651722 C277.866378,338.70902 305.33354,305.959073 339.519065,281.699121 Z M479.987091,237 C485.509938,236.999713 489.987611,241.476633 489.987611,246.99948 C489.987611,252.522327 485.510979,256.999713 479.988131,257 C472.410863,257.000395 464.881502,257.378337 457.418144,258.128474 C451.922983,258.680789 447.020535,254.673821 446.46822,249.17866 C445.915906,243.683499 449.922874,238.781051 455.418035,238.228736 C463.545384,237.411862 471.741935,237.000429 479.987091,237 Z" id="Oval" fill="#000000" fill-rule="nonzero" transform="translate(480.292479, 480.000000) rotate(-11.500000) translate(-480.292479, -480.000000) "></path>
        <circle id="Oval" fill="#000000" cx="480" cy="134" r="44"></circle>
        <circle id="Oval" stroke="#000000" stroke-width="20" stroke-linejoin="round" cx="480" cy="828" r="44"></circle>
        <path d="M85.7362303,340.804713 L104.610534,347.436431 C89.9672477,388.902631 82,433.52089 82,480 C82,525.81481 89.7411325,569.821582 103.986764,610.783683 L85.1126679,617.416215 C70.1377569,574.378553 62,528.139614 62,480 C62,431.196378 70.3637993,384.346227 85.7362303,340.804713 Z M119.709805,352.742294 L138.583809,359.374873 C125.253284,397.105124 118,437.705514 118,480 C118,521.630211 125.027234,561.619124 137.960206,598.845241 L119.086151,605.477952 C105.423873,566.176219 98,523.955079 98,480 C98,435.380682 105.649944,392.548104 119.709805,352.742294 Z M154.626637,365.012786 L173.500646,371.64537 C161.519438,405.535772 155,442.006538 155,480 C155,517.329316 161.293504,553.188706 172.877345,586.575004 L154.003271,593.207745 C141.690135,557.745816 135,519.654191 135,480 C135,439.681704 141.916096,400.978749 154.626637,365.012786 Z M189.543538,377.283123 L208.417911,383.914703 C197.785748,413.965581 192,446.307124 192,480 C192,513.028431 197.5598,544.7583 207.794553,574.304762 L188.920301,580.937108 C177.956365,549.315119 172,515.353151 172,480 C172,443.982667 178.182273,409.409281 189.543538,377.283123 Z" id="Shape" fill="#000000"></path>
        <path d="M898,480 C898,528.03629 889.897138,574.180055 874.983662,617.139049 L856.099891,610.534245 C870.290257,569.64295 878,525.721828 878,480 C878,433.613414 870.064441,389.080277 855.476836,347.684103 L874.360679,341.079509 C889.671348,384.543322 898,431.299031 898,480 Z M862,480 C862,523.870583 854.604641,566.013888 840.992569,605.251269 L822.108649,598.646862 C834.997706,561.47707 842,521.556272 842,480 C842,437.778981 834.771892,397.246178 821.485602,359.571515 L840.369802,352.967901 C854.378929,392.709928 862,435.464966 862,480 Z M825,480 C825,519.589033 818.331833,557.620633 806.05738,593.032917 L787.173173,586.429291 C798.724793,553.084377 805,517.275015 805,480 C805,442.060475 798.499059,405.639327 786.550348,371.789724 L805.434557,365.186092 C818.106101,401.103068 825,439.746456 825,480 Z M788,480 C788,515.307489 782.059011,549.227386 771.122157,580.814567 L752.237929,574.210937 C762.451963,544.691132 768,512.993473 768,480 C768,446.341962 762.226211,414.032465 751.615054,384.007928 L770.498976,377.40342 C781.833149,409.495582 788,444.027618 788,480 Z" id="Combined-Shape" fill="#000000"></path>
    </g>
</svg>