<svg height="960" viewBox="0 0 960 960" width="960" xmlns="http://www.w3.org/2000/svg"><path d="m408.621344 1.62849906.077836.00424681 1.20387-.00394771c2.442736.00747953 4.889836.10416191 7.337364.29048329l1.223782.10063263 177.83398 15.70952682c51.625641 4.5605142 91.211973 47.8076419 91.200451 99.6343241l-.094702 419.533655 99.347394-44.581507.226682-.101723.234317-.082633 3.970659-1.400274c9.110225-3.205727 17.624766-6.321396 26.102731-9.527721 4.492938-1.699207 8.76417-3.342584 13.741415-5.27944.539191-.209822 2.97201-1.159282 5.46278-2.130609l.649873-.253413c2.054453-.801059 4.039521-1.574447 4.920367-1.915529 6.475261-2.507358 10.565398-4.006592 13.854822-5.024107l.541035-.165411c.445247-.133918.876686-.259303 1.298622-.37737 9.916458-2.774844 16.01449-1.040568 19.610859 6.677677 3.662563 7.860303.943304 14.506641-7.942282 21.54901-8.285267 6.56658-14.341449 10.038252-64.530093 37.706624l-.215601.118858-.224614.100796-117.057966 52.528772-.059619 267.082666c-.012083 54.338334-43.413286 98.722884-97.737716 99.95217l-96.004736 2.172454c-1.36999.031001-2.74029.046356-4.110631.046063-4.424158-.000947-8.832382-.162265-13.218312-.482566l-.876731-.068461-58.732 1.258-.817299.148608c-1.916894.322647-3.897335.513886-5.935927.561889l-1.024117.012009-25.724657-.001506-20.824962.448624c-.179226.003856-.358462.00723-.537705.010123l-.537752.013015h-1.075581c-2.939399 0-5.867952-.127918-8.779027-.382453l-.935973-.088309-.60312.000501c-4.785129-.002415-9.330206-.829357-13.523865-2.332947l-.542015-.200554-.998487-.253493c-42.936203-11.224873-73.951887-49.92907-74.606936-95.27761l-.010577-1.465135.000198-63.617366c-2.479202 2.462469-5.399038 4.526347-8.69043 6.058849l-.393123.179716-177.6088269 79.70137c-12.4472853 5.585678-26.6071432 2.172941-35.5009174-7.412847l-46.07874408 22.091653c-7.47005762 3.581535-16.42914322.429264-20.01067762-7.040794-3.5815345-7.470058-.4292637-16.429143 7.040794-20.010678l45.7440843-21.933303c-3.7497877-14.701344 3.2869237-30.360676 17.3679981-36.679512l177.6088266-79.70137c10.91702-4.898976 23.427111-2.92681 32.432438 4.515125l.155891.131115 7.932234-3.560046.000255-621.661642c0-2.874474.123939-5.747611.371471-8.6114069 3.705905-42.8749783 34.249231-77.9774304 74.968434-88.3187428l.454095-.11188243.137296-.04972964c2.72816-.95553293 5.589183-1.62443809 8.545732-1.97262007l.522728-.05810763 52.726244-5.51354266.68013-.08060116c.436165-.0483461.872762-.09382444 1.309765-.13642914l.724105-.0659697 2.072799-.21718607c2.005085-.21010667 3.98556-.26948638 5.931365-.18806074zm-78.517419 743.44492094-29.927 13.429.000255 97.390088c0 29.665031 21.528519 54.301808 49.814167 59.138937l-.112099.390807 2.760665.001394c2.468911.309437 4.984471.468862 7.537267.468862h.645349c.215107 0 .430201-.009255.645274-.013883l4.270928-.090529c-21.501896-14.345344-35.663486-38.826717-35.65748-66.613881zm317.287-142.382-297.285 133.406-.024674 113.081119c-.007162 33.137084 26.849945 60.01297 59.987029 60.01297.456743 0 .913472 0 1.370097-.01535l177.893486-4.024763c29.495601-.667325 53.624378-22.538123 57.951483-50.850586.034593-.825367.051776-1.654543.051961-2.487619zm-294.908511-555.4081049-3.14531.3300477-.063773.3231219c-25.904371 4.7706767-46.495141 26.3360213-48.873268 53.8494493-.14852 1.718277-.222883 3.442159-.222883 5.166844l-.000255 603.711642 29.936-13.434.129716-594.60905c.000506-2.34378.104012-4.6864059.310218-7.0210973 1.666875-18.872623 9.758925-35.6335165 21.929555-48.3169576zm-2.262489 158.9871049-.105 481.984 297.286-133.406.073725-327.851104c-.06946-.003414-.139045-.007548-.208747-.012409zm.255379-108.9105495c-.154655 1.7510186-.232284 3.5079875-.232664 5.2658225l-.018132 83.596628c.008364.000563.01673.001136.025097.001719l297.22832 20.72638.020702-89.59555c.002561-11.517693-3.254331-22.3291701-8.93046-31.5165166-9.732555-15.0776901-26.071654-25.5697164-45.151337-27.2548794l-177.895398-15.7121452c-33.008588-2.9153971-62.130731 21.479954-65.046128 54.4885417z"/></svg>