<svg height="960" viewBox="0 0 960 960" width="960" xmlns="http://www.w3.org/2000/svg"><path d="m272.036455 2.51813495 424.23728 38.30121535c28.85935 2.6054951 50.964658 26.7964332 50.964658 55.7731596v769.6824811c0 29.06443-22.235231 53.298044-51.192356 55.793248l-424.172224 36.550461c-1.895549.163338-3.800337.191226-5.699856.083454l-24.221312-1.374238c-29.647948-1.682127-52.827845-26.214455-52.827845-55.910083v-841.7445449c0-29.7235524 23.222076-54.26875018 52.900052-55.91413344l24.200682-1.34171534c1.936853-.1073815 3.878951-.07372748 5.810921.10069563zm-3.323681 39.86906715-.280431.0092228c-.667335.0277954-1.324972.0969975-1.970264.2051858-.10826.0181527-.215869.0373455-.32312.057618-1.030768.194809-2.028838.4895057-2.982797.8739454-.151047.0608704-.301044.1240151-.44989.1893713-.381926.167705-.756064.3498566-1.121896.5458771-.366369.1963114-.724294.4064599-1.073154.6298316-.075222.0481658-.149834.0968206-.224019.1460802-.415194.2756973-.816967.5702998-1.204084.8826651-.491923.3969449-.960011.8224015-1.401801 1.2740992-.164522.1682241-.325025.3396718-.481762.5146174-.760802.8492783-1.432422 1.7802268-1.999919 2.7793093-.139026.2447682-.271668.4933558-.397847.7458164-.871404 1.7436555-1.434426 3.6715245-1.614459 5.7156795-.020652.2343928-.036298.4709509-.046767.7089424-.008112.1843647-.013121.3698239-.014962.5560971l-.000802.1622526v844.3750817c0 .4782.020876.951171.061737 1.418096.086646.990578.263413 1.954551.521728 2.883469.042419.152543.08706.304214.133864.454904.040661.130911.082934.261018.126812.390362.050815.149783.103712.298352.15872.445867.498845 1.337767 1.171292 2.588847 1.988787 3.727008.078389.109145.158422.217662.239775.325109.393124.519235.817133 1.013585 1.269073 1.48031.161095.166362.325616.329097.493551.488209.483921.458447.995484.886288 1.532222 1.281279.109722.080746.22051.160129.332325.238115.407683.284361.829449.550397 1.263596.796638.216117.122566.434678.23991.656131.352232.129625.065748.260448.129874.392234.192245.243759.115369.491002.224812.741342.328056.219174.090383.440215.175831.663485.256427.151037.054523.303232.10687.456408.156955.879415.287588 1.79182.500694 2.728706.631878.16788.023508.336673.0444.506207.062615.402323.043226.808753.071378 1.218752.083909l424.001751-36.536659c8.273464-.712916 14.626387-7.636805 14.626387-15.940928v-769.6824811c0-8.2790647-6.315802-15.1907613-14.56133-15.9351885l-423.894597-38.2716501c-.023242.00046-.046472.0009703-.069692.0015308zm-33.897022 5.0492901c-3.488966 2.9429894-5.690952 7.3443792-5.690952 12.2367959v841.7445449c0 4.881699 2.192484 9.275024 5.667967 12.217425-.156061-.493831-.301794-.992385-.436933-1.495419-.038031-.142976-.075495-.285894-.112101-.429167-.020887-.080461-.041071-.160659-.060986-.240967-.0196-.080252-.039317-.160922-.058762-.241703-.033418-.137721-.065681-.275399-.097153-.413388-.019482-.086438-.038836-.172733-.057879-.259149-.023868-.107367-.04707-.215057-.069791-.322931-.030963-.147841-.061199-.295982-.090525-.444464-.012531-.062695-.024667-.125037-.036642-.187438-.026148-.136939-.051725-.274508-.076519-.41236-.015276-.08432-.030026-.168073-.044488-.25193-.069261-.402053-.13204-.80697-.18803-1.214156-.015662-.113561-.030758-.227393-.045323-.3414-.015599-.12239-.030637-.24508-.045058-.367967-.007426-.06303-.014645-.125992-.021703-.189005-.016767-.149935-.032639-.300107-.047588-.450566-.009003-.09044-.017661-.181064-.025983-.27179-.014219-.155142-.027464-.31048-.039722-.46611-.004035-.051115-.007964-.102389-.011786-.153694-.013041-.175182-.02482-.350375-.035346-.525926-.003126-.052077-.006151-.104405-.009064-.156764-.008866-.159414-.016697-.319002-.02349-.478875-.002859-.067273-.005523-.134351-.008005-.201479-.005132-.138797-.00949-.278082-.013057-.417577-.004317-.168805-.007474-.337747-.009469-.506987l-.002564-.435151v-844.3750817c0-.218007.001928-.4355295.005767-.6525523l-.005767.6525523c0-.3267611.004331-.6524337.012937-.9769667.003326-.1254676.007301-.2510202.011914-.3763989.003145-.0854757.006574-.1705544.010295-.2555519.006676-.1525033.014322-.3051941.022912-.4576164.00393-.0697237.008038-.1390681.01234-.2083563.007858-.1265402.01637-.2529267.025529-.3791226.009103-.1254376.018879-.2510859.029296-.3765417.01233-.1484835.025535-.2964489.039628-.4441402.003775-.039563.007627-.0792389.011544-.1188948.01798-.1820811.03732-.3638054.058002-.5451003.005654-.049558.011382-.0988685.01721-.148147.017793-.1504616.036545-.3008815.056218-.4509966.018206-.1389042.037155-.2772292.056886-.41529.081868-.5729117.177272-1.1417291.285803-1.7056756.02423-.1259051.049126-.2516217.074673-.3770919.021691-.1065363.043847-.2128695.066469-.3190228.018442-.0865388.037261-.1732647.056392-.2598691.026891-.1217324.054347-.2430118.082413-.3640489.021678-.0934882.043722-.1868437.066127-.280053.030975-.1288639.062762-.2579294.095242-.3867095.019208-.0761523.038551-.1517965.058134-.2273411.163726-.6316491.344264-1.2567389.540988-1.8743858zm188.206829 173.2352128 189.240949 10.380243c13.785396.756157 24.575989 12.154856 24.575989 25.960975v452.53908c0 13.884186-10.908875 25.318542-24.77771 25.971253l-189.240949 8.906281c-14.822866.697611-27.22229-11.131981-27.22229-25.971254v-471.825603c0-14.919004 12.527401-26.778084 27.424011-25.960975zm-7.424011 25.960975v471.825603c0 3.424448 2.861406 6.154354 6.282067 5.993366l189.240949-8.90628c3.2005-.150626 5.717933-2.789323 5.717933-5.993366l.000119-8.228894c-4.214848 3.609079-9.612009 5.901848-15.579158 6.2049l-151.042407 7.670971c-14.858231.754603-27.318758-11.089152-27.318758-25.966534v-419.195697c0-14.963458 12.598988-26.83874 27.536301-25.954571l.181535.010033c.958997-.081182 1.928255-.024613 2.875555.170681l147.986202 8.759831c5.883841.348276 11.199578 2.629155 15.361211 6.192524l-.0006-2.202324c0-3.186028-2.490137-5.816497-5.671382-5.990994l-189.240949-10.380244c-3.437679-.188563-6.328618 2.548148-6.328618 5.990995zm27.30023 360.255226.000515 82.34454c0 2.489275 1.511649 4.610524 3.649826 5.52244.004927-.135405.003308-.27054-.002358-.406428zm23.631263-339.816121-8.923665 212.468629 8.923017 213.974743c.011537.276644.018785.552882.021779.828631l133.694856-6.790035c3.294133-.167299 5.835541-2.962212 5.689812-6.25737l-8.902157-201.290896c-.013066-.295457-.01302-.591348.00014-.886801l8.902818-199.874404c.145932-3.276277-2.36573-6.062721-5.639526-6.256504l-133.757715-7.917723c.021718.663725.018796 1.331367-.009359 2.00173zm-20.118969-2.496528-.087874.040984c-2.016893.961064-3.423905 3.018348-3.423905 5.420508l-.000515 83.054157 3.64888-86.85838c.023884-.56867-.023842-1.124726-.136586-1.657269z"/></svg>