<svg height="960" viewBox="0 0 960 960" width="960" xmlns="http://www.w3.org/2000/svg"><path d="m342.061872 9.16292432c48.206099-6.17646577 72.387931-8.69008098 82.986413-8.0290964l.632003.04443089c62.413275 4.90911108 113.249582 55.82377499 115.258069 116.54657519l.012643.526166 26.138262-8.268014c11.322014-3.574136 22.036492-6.945884 32.143597-10.1152936l3.60328-1.1262271c3.342716-1.0376095 6.497911-1.9927741 9.492291-2.8685924l1.972723-.5721579 1.477495-.4217962c15.375572-4.3576284 26.443303-6.4764884 37.299802-6.8318528 23.819398-.7796774 44.317511 8.4753372 57.05934 28.780872 8.94514 14.255085 12.649136 31.101929 14.394163 55.602981l.035371.500771c1.076286 15.366616 1.380797 31.681197 1.426039 65.967992l.006637 674.077776c0 7.269822-1.939773 14.088061-5.330758 19.964203l-.252452.43518c-2.098054 3.619595-4.659875 6.746769-7.530532 9.457694l-.432895.403527c-3.034549 2.792235-6.158042 4.906402-9.431835 6.653688-3.891321 2.076873-7.790465 3.526187-12.055585 4.726296-5.635616 1.585737-12.247211 2.784078-19.94699 3.739413-13.179284 1.635193-29.847499 2.559941-47.517463 2.642541h-2.415516c-19.054808 0-37.08012-.982899-51.015643-2.779475-7.944499-1.024209-14.692799-2.311971-20.459501-4.069676-4.765281-1.452469-9.07727-3.239757-13.442029-5.989639-4.012029-2.527654-7.729215-5.663988-11.083539-9.922164-5.469968-6.943901-8.913313-15.701389-8.913313-25.6078l-.000949-439.802246-.664899.858548c-20.768203 26.388824-52.391354 44.63-87.918858 47.96956l-1.906955.164611c-4.400027.346084-9.258132.185667-16.296691-.356962l-2.038507-.162589-1.654001-.139566c-11.557522-.998505-28.999542-2.966267-52.522177-5.917117l-12.605545-1.600614-1.040003-.120408c-57.682644-7.181984-104.567651-54.720736-105.508938-110.447187l-.014426-1.708436v-279.737702c0-57.0308143 48.211531-105.8781175 107.292495-112.36283938l-.586495.06870138zm278.79963 828.76313168c-16.414996 0-31.813747.602307-43.395395 1.651878l-1.488772.139424c-5.520472.53424-9.861719 1.1561-12.628203 1.789071l-.19707.045765-.482062.118567-.05015.045955c-1.760558 1.546371-4.068971 2.483988-6.596376 2.483988l.147526-.00355.000949 67.434092c0 4.484202 27.356653 8.144666 61.727617 8.363188l1.043671.005566h2.142737c34.950826 0 63.450232-3.56102 64.859407-8.022291l.054619-.000216.000503-67.781231c-.099963.002954-.200294.004442-.300972.004442l-.279905-.003842c-2.417742-.066446-4.621119-.991048-6.316471-2.480146l-.051155-.045955-.481057-.118567-.499487-.113537c-2.570056-.564357-6.384242-1.117679-11.161021-1.605506l-1.164765-.115793c-11.244432-1.08817-26.427742-1.735817-42.749075-1.787899zm.068286-671.104946-.668576.697969c-1.181997 1.239749-2.232362 2.352595-3.221837 3.420756l-1.003943 1.091514-.76461.842792-.946055 1.058122-1.317972 1.503664c-3.228351 3.724948-6.900575 8.261569-13.717659 16.749095-20.265192 25.230928-32.899362 48.319567-39.452905 68.902062-1.669769 5.244189-2.869874 10.110503-3.665798 14.584887l-.000592 547.051065c.840546-.255023 1.743285-.489666 2.718562-.712809 3.748276-.857605 8.862635-1.59021 15.162448-2.199869 11.910846-1.152662 27.698651-1.826603 44.600035-1.880764l2.210616-.003538c17.731819 0 34.381943.681524 46.810652 1.884302l.695091.068246c5.981689.595852 10.857906 1.305781 14.467356 2.131623 1.151195.263393 2.201322.542808 3.167399.852852l-.002-579.446121c-.032912-59.859854-.589834-91.936554-10.286691-106.158297-17.135556-1.250449-35.390916 9.412499-54.783521 29.562449zm-198.386009-125.7660119c-3.110965-.2446927-11.292432.325632-24.544403 1.7109741-28.060264 7.9880369-47.861842 32.5034953-47.861842 63.0700358v309.514404c0 39.391464 32.886032 68.733422 73.948753 65.607775 13.778294-1.048788 26.682861-5.395131 37.78937-12.093337 14.929013-9.374732 26.737716-23.028147 33.328424-38.811883 2.684374-7.014799 4.202343-14.42491 4.338854-22.009726l.010092-1.121204c0-1.896918.528169-3.670475 1.445468-5.181634l.001505-.195432-.001-84.929917-40.864 14.640846-.676597.416855c-9.80852 5.941154-20.817416 9.195329-32.256898 9.323225l-.701505.00392c-39.859221 0-70.5-37.011634-70.5-81 0-34.398225 18.795803-65.170787 47.217565-76.503589l.790435-.308411.393232-.215043c3.263605-1.756192 6.839491-3.27187 10.740017-4.572075l.90589-.296233c30.539775-9.79614 58.857666-18.852191 84.954097-27.168281l-.001236-29.48146c0-.68772-.009885-1.374033-.029528-2.058809-.855819-1.424766-1.364932-3.08073-1.413604-4.851712l-.003841-.279904c0-4.112451-.407442-8.176945-1.188191-12.158558-8.921034-32.4203348-39.486627-58.1929453-75.821057-61.0508269zm-70.266806 7.1327423-6.620291.8416688c-39.574893 4.3437371-71.656682 36.8485934-71.656682 72.6016288v279.737702c0 35.753036 32.081789 68.257892 71.656682 72.601629 2.944495.378008 5.805963.742669 8.584406 1.093984-14.979097-15.247126-24.103554-36.112933-24.103554-59.713941v-309.514404c0-22.5517703 8.331193-42.6061329 22.139439-57.6482676zm277.778527 84.2517866-1.700183.463618c-4.850638 1.340091-10.109442 2.923542-15.81076 4.710775-23.676979 7.42219-50.741877 15.972836-81.194697 25.651938l-30.34934 9.662152.00059-1.000189c-12.917097 4.118677-26.36524 8.414236-40.344428 12.886676l-38.500786 12.334292c-3.833492 1.229656-7.036345 2.648643-9.688785 4.237089-21.063073 7.344682-36.467111 30.80642-36.467111 58.614022 0 33.68937 22.60962 61 50.5 61 8.977088 0 17.407086-2.829396 24.710759-7.791131l83.865793-30.045825c.472256-7.684278 2.192746-17.121264 5.702386-28.143873 7.23239-22.714526 20.818395-47.654357 42.151898-74.402291l5.048889-6.302796 1.61945-2.005444c1.222982-1.50801 2.372831-2.909756 3.535236-4.307105 4.296745-5.165199 8.408607-9.833185 12.651525-14.283413 8.033505-8.426023 16.063295-15.566973 24.269564-21.278495zm-205.276744-45.0100495c15.223676 0 26.755282 13.9777045 26.755282 30.4154925 0 16.437789-11.531606 30.415493-26.755282 30.415493s-26.755282-13.977704-26.755282-30.415493c0-16.437788 11.531606-30.4154925 26.755282-30.4154925zm0 18.9999995c-3.835982 0-7.755282 4.750667-7.755282 11.415493 0 6.664827 3.9193 11.415493 7.755282 11.415493s7.755282-4.750666 7.755282-11.415493c0-6.664826-3.9193-11.415493-7.755282-11.415493z"/></svg>