<?xml version="1.0" encoding="UTF-8"?>
<svg width="960px" height="960px" viewBox="0 0 960 960" version="1.1" xmlns="http://www.w3.org/2000/svg" xmlns:xlink="http://www.w3.org/1999/xlink">
    <!-- Generator: Sketch 60.1 (88133) - https://sketch.com -->
    <title>Community/Capabilities/mold1</title>
    <desc>Created with Sketch.</desc>
    <g id="Community/Capabilities/mold1" stroke="none" stroke-width="1" fill="none" fill-rule="evenodd">
        <path d="M181.530104,64.8450046 L181.498802,64.7712304 L195.307224,58.9122647 L181.562193,64.9184401 L181.530129,64.8450606 L198.601847,105.078817 L187.019605,111.689091 C179.541607,115.95697 172.440711,120.861641 165.796025,126.34324 L155.286263,135.013372 L116.817167,96.5760068 L116.676724,96.4380295 C114.718974,94.5782619 111.619808,94.6140671 109.7013,96.5341565 C107.749482,98.487584 107.750786,101.653411 109.704334,103.60535 L148.445699,142.315692 L140.700543,152.717906 C135.022085,160.34442 130.075751,168.490238 125.935493,177.048264 L119.833869,189.660485 L74.7567097,171.52988 L74.7566145,171.529842 L119.886229,189.68226 L116.348383,202.57742 C113.961722,211.276606 112.359157,220.208681 111.570318,229.296287 L110.380884,242.998827 L52.7458635,242.999999 L52.5488536,243.001661 C49.8494446,243.069845 47.6824217,245.285706 47.6824217,248 C47.6824217,250.761424 49.9209979,253 52.6832936,253 L110.811277,253.003379 L112.776576,265.709858 C114.029025,273.807463 115.936143,281.750181 118.472883,289.478457 L122.77553,302.586632 L74.3770569,323.090011 L74.3769424,323.090061 L122.796228,302.57882 L129.305213,314.501506 C133.71877,322.585941 138.868937,330.250755 144.683735,337.398913 L153.22905,347.903709 L109.74911,391.349912 L109.610901,391.490357 C107.749538,393.446574 107.782794,396.545756 109.701296,398.46584 C111.653114,400.419267 114.81894,400.420571 116.772383,398.468737 L160.469765,354.807491 L170.882139,362.67267 C176.72541,367.086493 182.881655,371.069807 189.301992,374.58732 L201.003371,380.998161 L181.212395,429.9259 L181.212353,429.926005 L200.979067,381.060375 L214.316601,385.459682 C223.461105,388.475943 232.904648,390.609447 242.549425,391.819944 L255.681203,393.468086 L255.68242,455.936564 L255.684083,456.133568 C255.752267,458.832977 257.968128,461 260.682422,461 C263.443845,461 265.682422,458.761424 265.682422,455.999698 L265.683679,393.531921 L278.963436,391.999089 C286.374143,391.143699 293.671481,389.744278 300.812401,387.817633 L313.424852,384.41475 L332.834768,430.154705 L332.933421,430.380471 L319.188391,436.386646 L332.868531,430.234106 C332.865513,430.227395 332.866993,430.227975 332.866033,430.228382 C332.866033,430.228382 332.866033,430.228382 332.866227,430.22884 L332.86595,430.228186 L319.057776,436.087735 L332.802806,430.08156 L332.834711,430.154574 L313.468879,384.520902 L326.40059,378.329757 C335.197428,374.11821 343.563152,369.056713 351.382149,363.224895 L361.778167,355.471001 L404.766079,398.424028 L404.906486,398.56197 C406.864235,400.421738 409.963402,400.385933 411.88191,398.465844 C413.833728,396.512416 413.832423,393.346589 411.878856,391.39463 L369.074673,348.624562 L377.736039,338.107794 C382.998267,331.718313 387.727705,324.907615 391.871045,317.745875 L398.38462,306.487198 L440.608146,323.470125 L440.608165,323.470132 L398.505864,306.535835 L403.334563,292.965669 C406.574328,283.860908 408.930917,274.438694 410.361346,264.799677 L412.260516,252.002027 L468.618863,252.000002 L468.81599,251.998339 C471.515399,251.930155 473.682422,249.714294 473.682422,247 C473.682422,244.238576 471.443845,242 468.68218,242 L412.612364,241.999098 L411.347956,228.386637 C410.469433,218.928566 408.708591,209.643076 406.099742,200.618346 L402.403747,187.832874 L439.987813,171.910045 L439.987976,171.909974 L402.466093,187.805411 L396.163837,175.218429 C392.075097,167.052322 387.247573,159.275109 381.747829,151.981724 L373.891407,141.563074 L411.834118,103.65007 L411.972308,103.509643 C413.833672,101.553426 413.800415,98.454244 411.881913,96.5341598 C409.930095,94.5807332 406.764269,94.5794287 404.810703,96.5313856 L366.993445,134.316493 L356.495582,125.762439 C348.151403,118.963287 339.10461,113.072836 329.510018,108.203377 L317.228916,101.970455 L332.152396,65.0742336 L332.152457,65.0740796 L317.223183,101.982284 L304.174158,98.1317306 C295.968446,95.7103599 287.542411,93.9911499 278.963436,93.0009111 L265.683748,91.4680866 L265.682423,39.063479 L265.68076,38.8664319 C265.612576,36.1670229 263.396715,34 260.682422,34 C257.920998,34 255.682422,36.2385763 255.682422,39.0003669 L255.681137,91.531922 L242.549425,93.1800563 C232.030434,94.5002734 221.751927,96.918289 211.841562,100.380804 L198.574804,105.015987 L181.530104,64.8450046 L181.431578,64.619529 L195.176608,58.6133536 L181.496468,64.7658944 C181.499486,64.7726054 181.498007,64.7720246 181.498966,64.7716176 C181.498966,64.7716176 181.498966,64.7716176 181.499083,64.7718933 L181.530129,64.8450606 L181.530104,64.8450046 Z M254,249 C286.032515,249 312,274.967485 312,307 C312,339.032515 286.032515,365 254,365 C221.967485,365 196,339.032515 196,307 C196,274.967485 221.967485,249 254,249 Z M326.5,175 C351.076671,175 371,194.923329 371,219.5 C371,244.076671 351.076671,264 326.5,264 C301.923329,264 282,244.076671 282,219.5 C282,194.923329 301.923329,175 326.5,175 Z" id="Combined-Shape" stroke="#000000" stroke-width="30" fill="#000000"></path>
        <path d="M137.199299,599.10545 L137.199236,599.105307 L148.984449,626.879379 L140.930142,631.520867 C135.674602,634.549497 130.687826,638.027785 126.026044,641.912874 L118.662805,648.049335 L91.9036456,621.312521 L91.775924,621.187669 C90.4048243,619.904689 88.2492594,619.936764 86.9132145,621.27391 C85.5469422,622.641309 85.5478553,624.857388 86.9154705,626.223877 L113.905524,653.193276 L108.544184,660.465404 C104.587494,665.832263 101.146197,671.56105 98.2718082,677.576599 L94.022957,686.468636 L62.4658982,673.776504 L62.4658121,673.776471 L94.0673221,686.487128 L91.6440927,695.483082 C90.0049174,701.568327 88.9122132,707.813854 88.386317,714.166192 L87.5887679,723.799848 L47.0574817,723.8 L46.8789007,723.801954 C45.002164,723.863498 43.5,725.409771 43.5,727.3 C43.5,729.232997 45.0670034,730.8 47.0005781,730.8 L87.9248562,730.802253 L89.3284447,739.658101 C90.2207952,745.288326 91.5650082,750.810454 93.3437832,756.183551 L96.3866687,765.375111 L62.1998889,779.857229 L62.199819,779.85726 L96.4050547,765.367917 L100.969852,773.684082 C104.050794,779.296953 107.638873,784.619564 111.684779,789.585594 L117.676675,796.940173 L86.9559076,827.635721 L86.8309698,827.763319 C85.5468697,829.133361 85.5771709,831.288945 86.9132122,832.626088 C88.2794849,833.993487 90.495563,833.9944 91.8629918,832.628098 L122.748413,801.768373 L130.036248,807.268398 C134.087764,810.326019 138.353707,813.088525 142.800952,815.531985 L150.976743,820.024028 L136.976545,854.634376 L136.89749,854.837669 L127.111393,851.032105 L136.948053,854.704997 C136.95027,854.69906 136.95083,854.700336 136.949999,854.700003 L136.97657,854.634313 L136.976545,854.634376 L136.949951,854.700122 L127.216153,850.762714 L137.00225,854.568277 L136.97657,854.634313 L150.957919,820.069276 L160.303399,823.16681 C166.663314,825.274787 173.230545,826.773324 179.937919,827.634682 L189.100629,828.811352 L189.100001,872.842613 L189.101954,873.021099 C189.163498,874.897836 190.709771,876.4 192.6,876.4 C194.532997,876.4 196.1,874.832997 196.1,872.899597 L196.101691,828.88312 L205.430473,827.836338 C210.593302,827.257017 215.678532,826.301251 220.656679,824.980482 L229.457908,822.645397 L243.100804,854.794537 L243.100814,854.794559 L229.492455,822.726379 L238.603137,818.413426 C244.770014,815.494055 250.638224,811.979962 256.127215,807.926237 L263.395051,802.558801 L293.449187,832.587456 L293.576932,832.712331 C294.948032,833.995311 297.103597,833.963236 298.439642,832.62609 C299.805914,831.258691 299.805001,829.042612 298.437579,827.676316 L268.534594,797.797768 L274.665063,790.429451 C278.386092,785.957081 281.733196,781.186016 284.668465,776.165786 L289.242836,768.34218 L318.53417,780.123522 L318.534233,780.123547 L289.335488,768.379007 L292.777806,758.850547 C295.092288,752.443977 296.781727,745.810065 297.815176,739.020773 L299.172905,730.101115 L338.142388,730.100002 L338.321099,730.098046 C340.197836,730.036502 341.7,728.490229 341.7,726.6 C341.7,724.667003 340.132997,723.1 338.199444,723.1 L299.453962,723.097948 L298.60351,713.527886 C298.00848,706.832071 296.783063,700.257933 294.951797,693.868848 L292.390582,684.93305 L318.100342,674.042717 L318.299874,673.954994 L322.5258,683.567046 L318.17029,674.013014 C318.164523,674.015643 318.165029,674.014345 318.165379,674.015169 L318.165793,674.014993 L322.261199,683.683377 L318.035273,674.071325 L318.100208,674.042777 L292.438537,684.913586 L288.037981,676.069798 C285.153977,670.273824 281.739723,664.755545 277.843362,659.583779 L272.349475,652.291565 L298.396865,626.264365 L298.521887,626.136681 C299.805987,624.766639 299.775686,622.611055 298.439644,621.273912 C297.073372,619.906513 294.857293,619.9056 293.489767,621.272 L267.524524,647.214955 L260.175014,641.2172 C254.269125,636.397549 247.860187,632.227812 241.060108,628.789115 L232.444378,624.432271 L242.623386,599.2658 L242.62344,599.26566 L232.439324,624.442693 L223.313027,621.761902 C217.493329,620.052403 211.516219,618.846544 205.430473,618.163662 L196.101797,617.116892 L196.100003,581.057723 L196.098046,580.878901 C196.036502,579.002164 194.490229,577.5 192.6,577.5 C190.667003,577.5 189.1,579.067003 189.1,580.999806 L189.100668,617.188643 L179.937919,618.365318 C172.514306,619.318655 165.263297,621.052416 158.276606,623.528084 L148.963645,626.828044 L137.199299,599.10545 Z M214.522305,708.5 C239.133565,708.5 259.022305,728.681221 259.022305,753.5 C259.022305,778.318779 239.133565,798.5 214.522305,798.5 C189.911045,798.5 170.022305,778.318779 170.022305,753.5 C170.022305,728.681221 189.911045,708.5 214.522305,708.5 Z" id="Combined-Shape" stroke="#000000" stroke-width="21" fill="#000000"></path>
        <path d="M647.589303,368.548835 L647.589294,368.548692 L650.28808,420.36088 L636.898616,422.433886 C623.191472,424.556076 609.743775,428.14676 596.793656,433.131375 L583.729935,438.159717 L556.044813,378.81593 L555.960048,378.638159 C554.757221,376.221059 551.83286,375.194081 549.37076,376.342178 C546.870189,377.508213 545.788015,380.48327 546.9556,382.986093 L574.806823,442.686829 L563.542502,449.718693 C550.726506,457.719207 538.881451,467.18393 528.263669,477.931658 L518.233645,488.084437 L474.834491,449.279968 L474.834429,449.279913 L518.266555,488.114726 L510.180753,499.098315 C501.64766,510.689495 494.403435,523.254097 488.580634,536.637925 L482.952612,549.574049 L416.288517,525.311622 L416.10284,525.24581 C413.542905,524.38663 410.748701,525.727692 409.820357,528.278294 C408.875895,530.873184 410.21383,533.742395 412.808931,534.686935 L479.918901,559.114104 L477.030491,571.983198 C474.125682,584.925357 472.57401,598.047492 472.368099,611.18562 L472.148386,625.204315 L409.209446,628.468278 L408.963774,628.483649 L408.027093,613.512923 L409.12351,628.472799 C409.130849,628.472261 409.129797,628.473452 409.129743,628.472411 C409.129743,628.472411 409.129743,628.472411 409.12969,628.472414 L409.209592,628.468269 L409.209446,628.468278 L409.129503,628.472424 L408.352659,613.492553 L409.28934,628.463279 L409.209592,628.468269 L472.159618,625.202498 L473.94378,638.97473 C475.829278,653.529184 479.366942,667.8294 484.47293,681.594167 L489.283639,694.562918 L422.22151,725.821251 L422.043769,725.90593 C419.625507,727.108333 418.59743,730.032125 419.743555,732.489996 C420.911575,734.994825 423.886323,736.078203 426.388837,734.911762 L493.671809,703.550689 L500.648235,715.037756 C507.152258,725.746984 514.674003,735.805722 523.112067,745.063103 L532.234125,755.070892 L490.829077,801.380556 L490.828913,801.380743 L532.194239,755.118587 L543.308222,764.237507 C555.009464,773.838266 567.843029,782.05851 581.625025,788.731409 L593.816163,794.634054 L568.311627,864.711467 L568.24581,864.89716 C567.38663,867.457095 568.727692,870.251299 571.278294,871.179643 C573.873184,872.124105 576.742395,870.78617 577.687042,868.190775 L603.186844,798.138457 L616.460765,801.691962 C628.483472,804.910509 640.697058,806.947668 652.973216,807.805676 L666.216152,808.731254 L669.244649,866.842878 L669.244655,866.842973 L666.222059,808.830384 L680.838961,807.730555 C696.317045,806.565927 711.599551,803.536906 726.357639,798.729298 L738.983318,794.616345 L769.340787,859.688388 L769.425552,859.866158 C770.628379,862.283259 773.55274,863.310236 776.01484,862.16214 C778.515411,860.996104 779.597585,858.021047 778.429864,855.517933 L748.18713,790.687227 L760.433977,783.908006 C772.397818,777.285443 783.635294,769.422582 793.945035,760.448012 L803.926389,751.759302 L842.587531,786.325778 L842.587812,786.326023 L804.009212,751.829893 L813.595939,740.675229 C823.709838,728.907172 832.395072,715.923723 839.465951,701.924772 L845.470116,690.037704 L907.711272,712.688304 L907.89716,712.75419 C910.457095,713.61337 913.251299,712.272308 914.179643,709.721706 C915.124105,707.126816 913.78617,704.257605 911.190914,703.313009 L849.168435,680.736846 L853.006729,667.300874 C857.167773,652.735111 859.584328,637.872162 860.260965,622.943044 L860.877186,609.346927 L907.624644,606.923487 L907.870181,606.908124 L908.806862,621.87885 L907.710445,606.918974 C907.703106,606.919512 907.704158,606.918321 907.704212,606.919362 L907.704722,606.919335 L908.481296,621.89922 L907.544615,606.928494 L907.624545,606.923493 L860.925891,609.345017 L859.506854,595.112668 C858.047302,580.473975 854.918952,566.045804 850.199204,552.109661 L845.888168,539.380334 L903.164053,512.683084 L903.341832,512.598387 C905.760093,511.395985 906.78817,508.472192 905.642046,506.014321 C904.474025,503.509492 901.499277,502.426114 898.996597,503.592633 L841.82631,530.239256 L834.987935,518.215857 C826.697206,503.638893 816.559667,490.186569 804.818444,478.218513 L794.979294,468.189277 L825.653495,433.883154 L825.815725,433.69778 L837.103536,443.576308 L825.71093,433.818823 C825.706143,433.824412 825.706038,433.822826 825.706815,433.82352 C825.706815,433.82352 825.706815,433.82352 825.707033,433.823277 L825.706729,433.823616 L836.888709,443.821782 L825.600898,433.943254 L825.65343,433.883228 L794.971301,468.199127 L783.943223,459.809824 C773.032692,451.50994 761.22378,444.367595 748.651294,438.501471 L736.198841,432.691352 L757.567695,373.97275 L757.633575,373.786881 C758.492756,371.226945 757.151693,368.432741 754.601091,367.504398 C752.006202,366.559935 749.13699,367.897871 748.192402,370.493104 L726.767723,429.352455 L713.634685,426.037847 C697.515092,421.969471 681.081798,420.017661 664.655162,420.168084 L650.28589,420.299666 L647.589303,368.548835 Z M907.624644,606.923487 L907.704212,606.919362 C907.704212,606.919362 907.704212,606.919362 907.703899,606.919378 L907.624545,606.923493 L907.624644,606.923487 Z M671.5,653 C703.532515,653 729.5,678.967485 729.5,711 C729.5,743.032515 703.532515,769 671.5,769 C639.467485,769 613.5,743.032515 613.5,711 C613.5,678.967485 639.467485,653 671.5,653 Z M767,585 C797.142048,585 821.5,609.66628 821.5,640 C821.5,670.33372 797.142048,695 767,695 C736.857952,695 712.5,670.33372 712.5,640 C712.5,609.66628 736.857952,585 767,585 Z M650.5,546 C675.241158,546 695.5,565.583548 695.5,590 C695.5,614.416452 675.241158,634 650.5,634 C625.758842,634 605.5,614.416452 605.5,590 C605.5,565.583548 625.758842,546 650.5,546 Z" id="Combined-Shape" stroke="#000000" stroke-width="30" fill="#000000"></path>
    </g>
</svg>