<?xml version="1.0" encoding="UTF-8"?>
<svg width="960px" height="960px" viewBox="0 0 960 960" version="1.1" xmlns="http://www.w3.org/2000/svg" xmlns:xlink="http://www.w3.org/1999/xlink">
    <!-- Generator: Sketch 60.1 (88133) - https://sketch.com -->
    <title>Community/Capabilities/mold2</title>
    <desc>Created with Sketch.</desc>
    <g id="Community/Capabilities/mold2" stroke="none" stroke-width="1" fill="none" fill-rule="evenodd">
        <g id="Group" transform="translate(253.500000, 246.500000) rotate(88.000000) translate(-253.500000, -246.500000) translate(52.000000, 38.000000)" fill="#000000" stroke="#000000" stroke-width="30">
            <path d="M210,15 C197.438176,15 186.205035,22.2975563 180.982826,33.4839435 L174.402036,47.5805201 L160.554657,40.4903603 C156.093528,38.2061648 151.149342,37 146,37 C133.254902,37 121.886697,44.5139441 116.771141,55.9480818 L111.068692,68.6940266 L97.9477051,63.9173381 C94.478458,62.6543604 90.7950662,62 87,62 C69.326888,62 55,76.326888 55,94 C55,101.587133 57.6301347,108.729552 62.3745958,114.436569 L82.0174633,138.064578 L51.3056565,139.018516 C31.1087704,139.645851 15,156.232501 15,176.5 C15,190.285716 22.4909966,202.741674 34.3335277,209.314685 L59.9768089,223.547585 L33.4273365,236.008677 C22.2705864,241.245139 15,252.461183 15,265 C15,280.896466 26.6730125,294.327297 42.2163312,296.646402 L55.1429981,298.575095 L55.0019198,311.644092 C55.0006403,311.762619 55,311.881256 55,312 C55,326.787015 65.1201358,339.554717 79.2582254,343.060996 L94.1528095,346.754888 L90.1204674,361.56143 C89.3798185,364.281052 89,367.108118 89,370 C89,387.673112 103.326888,402 121,402 C130.187429,402 138.715832,398.127442 144.755329,391.439026 L152.232955,383.15796 L162.314652,387.938164 C166.548183,389.945479 171.184313,391 176,391 C181.360795,391 186.49908,389.692391 191.096259,387.225098 L201.766059,381.498648 L209.613586,390.721076 C215.669463,397.837953 224.479705,402 234,402 C249.896466,402 263.327297,390.326988 265.646402,374.783669 L267.575095,361.857002 L280.644092,361.99808 C280.762619,361.99936 280.881256,362 281,362 C291.243256,362 300.655046,357.17242 306.669951,349.109474 L312.343898,341.503583 L321.647167,343.37239 C323.7175,343.788271 325.840721,344 328,344 C345.673112,344 360,329.673112 360,312 C360,306.921578 358.826935,302.043202 356.603334,297.631538 L348.636237,281.824674 L365.536133,276.559213 C378.787516,272.43051 388,260.105907 388,246 C388,236.889051 384.192414,228.425366 377.601018,222.391012 L367.253374,212.917851 L376.013937,201.960341 C380.516691,196.328399 383,189.374135 383,182 C383,170.223852 376.595794,159.58673 366.472442,153.980425 L356.525142,148.471616 L359.142144,137.406036 C359.709916,135.005304 360,132.527384 360,130 C360,118.270818 353.647358,107.669801 343.586886,102.043112 L335.354158,97.4386559 L335.937542,88.023855 C335.979107,87.3530686 336,86.6782945 336,86 C336,68.326888 321.673112,54 304,54 C301.684938,54 299.412695,54.2433841 297.204874,54.7206482 L288.016113,56.7069802 L282.222536,49.3033794 C276.180732,41.5825707 266.983389,37 257,37 C255.410003,37 253.838102,37.1148026 252.29103,37.3414214 L242.492537,38.7767282 L237.32297,30.3300623 C231.534992,20.8729616 221.283209,15 210,15 Z M274.5,172 C299.076671,172 319,191.923329 319,216.5 C319,241.076671 299.076671,261 274.5,261 C249.923329,261 230,241.076671 230,216.5 C230,191.923329 249.923329,172 274.5,172 Z M202,71 C234.032515,71 260,96.9674845 260,129 C260,161.032515 234.032515,187 202,187 C169.967485,187 144,161.032515 144,129 C144,96.9674845 169.967485,71 202,71 Z" id="Combined-Shape"></path>
        </g>
        <g id="Group-3" transform="translate(50.000000, 592.000000)" fill="#000000" stroke="#000000" stroke-width="21">
            <path d="M118.077835,17.2559814 C109.030128,8.81885801 94.8558721,9.31383393 86.4187487,18.361541 C82.0327209,23.06498 79.9438156,29.2797551 80.4845716,35.5651037 L81.154033,43.3464284 L73.8940387,46.2256081 C70.8453418,47.434665 68.092222,49.3046846 65.7932353,51.7700459 C63.2340582,54.5144274 61.4504805,57.7691393 60.518617,61.3010851 L58.3562715,69.4967995 L49.8888582,69.1115946 C43.3543499,68.8143227 37.0176365,71.3377481 32.4726784,76.2116188 C24.8837686,84.3497283 24.4478797,96.7981001 31.2981828,105.405908 L36.9951602,112.564495 L30.6837923,119.187754 C30.6265312,119.247844 30.5695452,119.308297 30.512836,119.36911 C25.6227104,124.613127 23.6009068,131.736289 24.857005,138.665405 L26.0417402,145.200856 L20.6440289,149.071313 C19.4428419,149.93263 18.3209105,150.918467 17.2901466,152.023826 C8.85302324,161.071533 9.34799916,175.245789 18.3957063,183.682912 C20.9956098,186.107361 24.0534498,187.836042 27.3739212,188.804264 L39.2679672,192.272469 L33.8964279,203.436847 C29.6841174,212.191847 31.5956931,222.791717 38.8170794,229.525769 C43.4814188,233.875336 49.6321705,235.96663 55.868161,235.473002 L65.6578169,234.698074 L67.0852164,244.414061 C67.8188735,249.407901 70.1935603,253.999164 73.9687195,257.519557 C79.9975824,263.141563 88.5009128,264.941161 96.20357,262.435037 L103.772603,259.97239 L108.18829,266.594821 C109.146268,268.031548 110.276318,269.362969 111.570168,270.569503 C117.57496,276.169062 126.034965,277.97771 133.71748,275.513324 L140.005339,273.496314 L144.546969,278.289964 C144.870588,278.631541 145.20612,278.964435 145.553434,279.28831 C154.601141,287.725434 168.775397,287.230458 177.21252,278.182751 C178.317708,276.997582 179.277859,275.718147 180.087648,274.359862 L183.457474,268.70754 L190.01349,269.275992 C196.850486,269.868808 203.587319,267.347964 208.353376,262.236994 C209.112523,261.422908 209.804117,260.563405 210.425933,259.664075 L214.368799,253.961529 L221.161741,255.34759 C228.766478,256.899293 236.667357,254.454667 242.053969,248.678232 C248.050969,242.247237 249.677616,233.012729 246.443709,224.999113 L242.368254,214.900144 L252.609175,211.195817 C255.908386,210.002433 258.886305,208.047063 261.344648,205.410812 C267.429144,198.885989 269.009661,189.478767 265.598307,181.400835 L261.795891,172.396886 L270.504765,167.96011 C272.807451,166.786996 274.900802,165.213731 276.712491,163.270933 C285.149614,154.223226 284.654638,140.04897 275.606931,131.611846 C271.722633,127.98968 266.810595,125.926597 261.62434,125.631515 L240.147232,124.409535 L254.323108,108.229179 C263.644301,97.5899622 262.843261,81.4243631 252.467209,71.7485375 C245.40963,65.167239 235.456628,63.0557929 226.438054,65.9806478 L206.909298,72.3141074 L213.204679,52.7730435 C215.85013,44.5614801 213.579078,35.4847687 207.159847,29.4987391 C199.021626,21.9097256 186.5728,21.4738239 177.9654,28.3239464 L170.806869,34.0209986 L164.183546,27.7096948 C164.12351,27.6524869 164.063113,27.5955536 164.002356,27.5388967 C156.432155,20.4795697 145.064519,19.5653612 136.520527,25.129559 L127.518524,30.9920329 L121.863214,21.8584611 C120.82446,20.180829 119.558414,18.6366435 118.077835,17.2559814 Z M174.5,141.5 C201.009668,141.5 222.5,162.990332 222.5,189.5 C222.5,216.009668 201.009668,237.5 174.5,237.5 C147.990332,237.5 126.5,216.009668 126.5,189.5 C126.5,162.990332 147.990332,141.5 174.5,141.5 Z" id="Combined-Shape"></path>
        </g>
        <g id="Group-2" transform="translate(402.000000, 355.000000)" fill="#000000" stroke="#000000" stroke-width="39.5999985">
            <path d="M276.650006,19.7999992 C260.004927,19.7999992 245.123931,29.4816069 238.224342,44.3140449 L229.716503,62.6038336 L211.588118,53.7572876 C205.872366,50.9680343 199.586067,49.4999999 193.050004,49.4999999 C176.189277,49.4999999 161.149005,59.4363921 154.374871,74.5599113 L146.831454,91.4008855 L129.501676,85.0605104 C124.892006,83.3739892 119.995543,82.5000006 114.950002,82.5000006 C91.5607422,82.5000006 72.6000004,101.460742 72.6000004,124.850003 C72.6000004,134.7068 75.9531453,143.995651 82.0215382,151.48094 L106.960691,182.243079 L67.3874453,183.736 C40.8736616,184.736246 19.7999992,206.571601 19.7999992,233.200005 C19.7999992,251.471304 29.7697581,267.970367 45.5021921,276.615733 L79.7526193,295.437199 L44.3177926,311.920901 C29.4827405,318.821925 19.7999992,333.70402 19.7999992,350.350008 C19.7999992,371.363185 35.21267,389.123614 55.7527498,392.221179 L72.62034,394.764911 L72.6001642,411.823216 L72.6000004,411.950009 C72.6000004,431.573337 86.0661286,448.503635 104.846418,453.090646 L124.67886,457.934642 L119.230263,477.609571 C118.218898,481.261615 117.700001,485.061561 117.700001,488.950011 C117.700001,512.339271 136.660743,531.300013 160.050003,531.300013 C172.139951,531.300013 183.369102,526.233541 191.359443,517.468883 L201.2444,506.62601 L214.494869,512.927226 C220.109275,515.597138 226.260261,517.000012 232.650005,517.000012 C239.638053,517.000012 246.339489,515.321253 252.352759,512.149509 L266.248672,504.820006 L276.545047,516.686036 C284.556434,525.918739 296.09474,531.300013 308.550007,531.300013 C329.563034,531.300013 347.32323,515.887607 350.421226,495.346943 L352.968236,478.459486 L370.046638,478.499889 C370.098309,478.499991 370.098309,478.499991 370.150008,478.500012 C383.838555,478.500012 396.403753,471.983912 404.348575,461.137004 L411.851976,450.892761 L424.29233,453.438961 C427.079696,454.009459 429.940124,454.300011 432.850009,454.300011 C456.23927,454.300011 475.200011,435.339269 475.200011,411.950009 C475.200011,405.261383 473.662455,398.835304 470.746841,393.019331 L460.439272,372.458115 L482.304705,365.322823 C499.573032,359.687694 511.500012,343.51418 511.500012,325.050007 C511.500012,312.984219 506.454059,301.776066 497.719583,293.787791 L484.034535,281.27188 L495.629063,266.79792 C501.603954,259.339199 504.900012,250.123176 504.900012,240.350005 C504.900012,224.972706 496.651543,211.056538 483.536287,203.555707 L470.723587,196.227913 L474.087105,181.856114 C474.823745,178.708566 475.200011,175.461343 475.200011,172.150004 C475.200011,156.581097 466.742063,142.515671 453.366637,135.089443 L442.43807,129.021746 L443.21626,116.545972 C443.271994,115.652454 443.300011,114.753587 443.300011,113.850002 C443.300011,90.4607422 424.339269,71.5000004 400.950009,71.5000004 C397.920566,71.5000004 394.943725,71.814924 392.047722,72.4325118 L380.089299,74.9827085 L372.453554,65.4326936 C364.447933,55.4200741 352.405878,49.4999999 339.350007,49.4999999 C337.206577,49.4999999 335.089924,49.6576461 333.009833,49.9687308 L319.870683,51.9337358 L313.071118,40.5203924 C305.47055,27.7625346 291.761694,19.7999992 276.650006,19.7999992 Z M289.850006,317.900008 C332.072176,317.900008 366.300007,352.127839 366.300007,394.350009 C366.300007,436.572178 332.072176,470.800009 289.850006,470.800009 C247.627837,470.800009 213.400006,436.572178 213.400006,394.350009 C213.400006,352.127839 247.627837,317.900008 289.850006,317.900008 Z M400.950009,244.200006 C433.451966,244.200006 459.800009,270.548049 459.800009,303.050007 C459.800009,335.551964 433.451966,361.900007 400.950009,361.900007 C368.448051,361.900007 342.100009,335.551964 342.100009,303.050007 C342.100009,270.548049 368.448051,244.200006 400.950009,244.200006 Z M281.050006,185.900005 C311.121911,185.900005 335.500006,210.278101 335.500006,240.350005 C335.500006,270.42191 311.121911,294.800005 281.050006,294.800005 C250.978101,294.800005 226.600006,270.42191 226.600006,240.350005 C226.600006,210.278101 250.978101,185.900005 281.050006,185.900005 Z" id="Combined-Shape"></path>
        </g>
    </g>
</svg>