<svg height="960" viewBox="0 0 960 960" width="960" xmlns="http://www.w3.org/2000/svg"><path d="m198.714674 4.10944791.033326.00355209.475351-.02552799c2.427545-.1119507 4.867445-.1119507 7.313495-.01087078l1.048665.05203903 319.302857 17.88451764c43.580101 2.4409712 79.111632 38.0983737 79.111632 81.4324521v753.10878c0 43.334078-35.531531 78.991481-79.111632 81.432452l-319.302857 17.884518c-2.429404.142223-4.854418.164085-7.26904.084553l-.062471-.002913-.544956.02737c-2.876912.11779-5.818207-.075821-8.786809-.611304l-.742698-.14101-41.896049-8.352351c-.822849-.164042-1.640333-.353934-2.451238-.569394-3.277329-.870794-6.758704-1.671517-10.920252-2.528603-1.704328-.351013-3.460537-.699687-5.800975-1.154625-.442099-.085936-.897581-.174242-1.48991-.288908-.750553-.14525-1.182896-.228916-1.50686-.29166-1.254461-.242959-2.164325-.420097-3.067246-.59766-8.641433-1.699362-14.356898-3.01966-20.343883-4.899-9.1205557-2.862981-17.1262528-6.615077-24.4527172-12.060006-18.4159343-13.686471-27.2504068-34.277338-27.2504068-59.409435v-755.678983c0-4.857199.3289611-9.6495655.9882593-14.3625966 3.2243796-23.0496636 14.3350484-41.3728082 32.2315857-54.1680664 12.1924016-8.7170453 24.60579-13.6155308 45.003815-19.5140461 1.901924-.549981 3.82601-1.0968286 6.500629-1.8502605.260547-.0733952.759866-.213921 1.289483-.362948l.399636-.1124482c.562413-.1582448 1.100415-.3096027 1.367328-.3847003l.125644-.0353523c.01486-.0041818.026517-.0074623.034723-.0097721 1.266367-.3564581 2.245222-.6326862 3.196628-.9023526l42.19943-12.13668277c4.853052-1.39571698 9.703533-1.83505533 14.377513-1.44875722zm-24.068239 78.89549399v793.8169111c0 20.819483 15.020141 37.176709 34.551919 38.897413l274.322646-15.366745 42.296718-2.432274c.677231-.038953 1.350556-.09395 2.019586-.164591 21.347795-2.736491 38.162696-20.579155 38.162696-41.201266v-753.10878c0-21.6380023-18.512386-40.215969-41.348571-41.4950499l-316.542376-17.7314016c-18.998151 2.2214732-33.462618 18.3550407-33.462618 38.7857834zm-12.432583-29.4637515-9.16823 2.6376932c-32.672334 9.260635-57.2996377 14.777849-61.4430858 44.3975274-.3977536 2.843364-.6025362 5.783514-.6025362 8.82102v755.678983c0 37.209184 29.079656 32.999493 65.103951 42.571235l7.860506 1.568338c-5.902111-9.255632-9.318022-20.361116-9.318022-32.394134v-793.8169111c0-10.7883992 2.745816-20.8312174 7.567417-29.4637515zm220.931738 497.5445726c57.28293 0 103.719919 46.43699 103.719919 103.719919 0 57.28293-46.436989 103.71992-103.719919 103.71992s-103.719919-46.43699-103.719919-103.71992c0-57.282929 46.436989-103.719919 103.719919-103.719919zm0 20c-46.237235 0-83.719919 37.482685-83.719919 83.719919 0 46.237235 37.482684 83.71992 83.719919 83.71992s83.719919-37.482685 83.719919-83.71992c0-46.237234-37.482684-83.719919-83.719919-83.719919zm0-143.735166c6.978887 0 12.636394 5.657506 12.636394 12.636394 0 6.978887-5.657507 12.636393-12.636394 12.636393-6.978888 0-12.636394-5.657506-12.636394-12.636393 0-6.978888 5.657506-12.636394 12.636394-12.636394zm383.414127-314.293474.071283.005877.09098-.004412c1.990328-.082818 3.988831-.082818 5.991126.006059l.097894.005353 64.432629 1.179019c.249064.004561.498074.011448.746998.020661l.746482.034612c38.652865 2.154204 70.262891 33.718167 70.262891 72.379399v588.790361c0 38.661233-31.610026 70.225195-70.262891 72.3794-.529729.029523-1.059992.048503-1.590476.05693l-64.396633 1.022618-.059336.003294c-1.364843.056976-2.728216.077222-4.088743.056297l-.785921-.017591-.075321.004006c-2.876834.120066-5.818299-.07122-8.78734-.60436l-.742814-.140425-32.890356-6.529978c-.819935-.162788-1.634566-.351239-2.442691-.565076-2.401704-.63551-4.984956-1.227216-8.107032-1.86757-1.302018-.267051-2.652609-.53409-4.461827-.884321-.344588-.066705-.700209-.135367-1.16327-.224639-.58838-.113397-.58838-.113397-1.183687-.228165-.992071-.191348-1.713381-.3312-2.431721-.471881-7.068321-1.384281-11.79927-2.472649-16.872599-4.058629-7.999894-2.500858-15.119523-5.823929-21.731655-10.717735-16.843381-12.466211-24.925687-31.22638-24.925687-53.498957v-565.058697c0-4.206723.286614-8.364965.861893-12.460444 2.868073-20.418136 12.891202-36.879681 28.87824-48.262649 10.592691-7.542127 21.024854-11.641839 37.921011-16.507591 1.515654-.436478 3.042685-.86869 5.159587-1.462559.209484-.058768.614222-.172205 1.039994-.291517l.366035-.102568c.54459-.152597 1.041667-.291861 1.120953-.314086.989647-.277419 1.753552-.492102 2.494716-.701312l33.097225-9.479719c4.591937-1.315182 9.18106-1.774618 13.620063-1.489005zm-18.761835 69.817995v594.266825c0 17.813217 14.078497 31.443925 31.445204 30.445038l57.981217-1.027076c17.366706-.998887 31.445203-15.507186 31.445203-32.405193v-588.13365c0-3.717561-.681399-7.319461-1.929302-10.687296l-.099585-.262932c-4.818239-11.496767-16.492641-20.068518-30.12934-20.828519l-65.022558-1.190682-.315051-.013826c-13.456808 2.880198-23.375788 14.885364-23.375788 29.837311zm-15.717266-20.746712-1.371904.393206c-25.649309 7.240086-44.982893 11.553516-48.235693 34.710571-.312255 2.22298-.473019 4.521627-.473019 6.89639v565.058697c0 29.09063 22.828889 25.799438 51.109643 33.282752l1.415982.281794c-4.148929-7.245885-6.573918-15.675202-6.720671-24.735877l-.007072-.873996v-594.266825c0-7.423814 1.527875-14.43928 4.282734-20.746712z"/></svg>