<svg height="960" viewBox="0 0 960 960" width="960" xmlns="http://www.w3.org/2000/svg"><path d="m397.596975 13.4017812c.117084.0092223.234127.0189602.351125.0292134l1.592071.1395229c.235003.0205948.469819.043268.704421.0680171l1.293166.1370392 272.281559 24.839177c.153319.0139868.306555.0288584.4597.0446143l.459154.0499191c66.879484 7.6620466 117.117788 65.4248588 118.124331 134.1230128.001404.095824.002464.191654.003179.287486l.011072 1.483561c.000718.096246.001089.192494.001113.288743l.068359 279.730342-.068359 338.483856c-.00002.096814-.000391.193628-.001113.29044l-.011072 1.483561c-.000715.095832-.001775.191662-.003179.287486-.995407 67.938072-50.165451 125.281166-116.112558 133.876686-.102779.013396-.205609.026393-.308489.03899l-1.394736.170774c-.408436.050009-.817618.093713-1.227402.131096l-272.295559 24.840256-1.279166.13596c-.058982.006223-.117978.012314-.176986.018274l-.177066.017485c-15.788677 1.523718-31.506557.145402-46.557775-3.982547l-.013007-.004172-92.867812-17.789368c-51.899725-9.94178-90.051588-54.246836-92.343193-106.858764l-.058443-1.596817c-.002774-.093546-.005219-.187103-.007336-.280666l-.023726-1.048533c-.003406-.150564-.005963-.301146-.007669-.451739l-.011331-.795551v-672.609081c.384354-54.4133447 38.701138-101.1761882 91.977032-112.2503659l90.287444-18.7675928c1.579402-.328302 3.163972-.6292023 4.753004-.9026064l.85203-.1419161.838442-.2096623c13.285851-3.2598427 27.049277-4.3962205 40.888775-3.3061303zm-9.570377 39.6004394-1.386097.0009734c-.459635.0038881-.91859.0113218-1.376839.0222775-.103019.0024462-.205722.0050793-.308389.0078891l.308389-.0078891c-1.03791.0248141-2.072203.0676961-3.102574.1283727-.074228.0043299-.148847.0088176-.223446.0133985l.223446-.0133985c-.495883.0292015-.990857.0625246-1.48489.0999386l1.261444-.0865401c-.558529.0342979-1.115899.0738236-1.672061.1185334l.410617-.0319933c-1.045291.079162-2.086365.1766384-3.122904.2921407-.064684.0070989-.129005.0143366-.193308.0216436l.193308-.0216436c-1.029928.1147656-2.055378.2473278-3.076037.3974034-.030646.0043229-.061627.008894-.092603.0134813l.092603-.0134813c-.497261.0731162-.993384.1503894-1.488334.2317868l1.395731-.2183055c-.51975.0769692-1.038255.158479-1.555473.244492l.159742-.0261865c-.488531.0803419-.97592.1647017-1.46213.253048l1.302388-.2268615c-.509086.0846605-1.016925.1736836-1.523478.2670336-.422108.0780955-.84331.1589034-1.263596.2426959l1.263596-.2426959c-.477203.0879413-.953265.1797225-1.428152.2753138l.164556-.0326179c-.524428.1045552-1.04743.2137573-1.56896.3275663l1.404404-.2949484c-.482212.0970657-.963214.1980599-1.44297.3029513l.038566-.0080029c-.46099.1005977-.920831.2047947-1.379492.3125633l1.340926-.3045604c-.495953.1084326-.990575.22103-1.483828.3377575l.142902-.0331971c-.511177.120108-1.020889.2446524-1.529093.3735948l1.386191-.3403977c-.489925.11594-.978499.2359545-1.465685.3600098l.079494-.0196121c-39.358925 9.9862126-69.674132 46.3518839-71.229218 91.2794069l-.335344 307.610157v2.092508l.335344 364.289013.071533 1.676295c2.211003 43.566111 31.494391 78.792436 69.610241 89.195656.035816.009842.071175.01947.106543.029076l-.106543-.029076c.49158.13417.984629.264212 1.479107.390089l-1.372564-.361013c.494869.134409.991223.264635 1.489022.390642l-.116458-.029629c.93941.239141 1.883981.463252 2.833445.672091.087917.019405.175986.038636.264097.057736l-.264097-.057736c.524355.115334 1.050202.226011 1.577496.331988l-1.313399-.274252c.477859.103583.956949.203299 1.437235.299117l-.123836-.024865c.485678.097614.972584.191241 1.460682.28085l-1.336846-.255985c.477577.095278.956337.186702 1.436247.274243l-.099401-.018258c.479893.088102.960938.17232 1.443102.252623l-1.343701-.234365c.522672.09534 1.046709.186073 1.572066.27216l-.228365-.037795c.524868.087416 1.051062.170193 1.578539.248292l-1.350174-.210497c.492225.080659.98561.157238 1.480118.229706l-.129944-.019209c.514573.076188 1.030367.147925 1.547342.215174l.062417.007075.000752-97.265972c0-.612719.055281-1.213196.16125-1.796534l.000111-44.703382c0-5.28366 4.110424-9.655566 9.384052-9.981012l309.11234-19.076644c.797574-.060014 1.607017-.024663 2.411048.111768 1.370341.230479 2.649273.741258 3.773942 1.472741 1.162899.75295 2.124761 1.717115 2.860491 2.815414.018746.028205.037816.056862.056743.085622.021357.032639.042263.064964.062977.097399.779604 1.214518 1.3042 2.610987 1.495356 4.115155.063519.492426.090895.991198.080429 1.491904l.001447 126.161546c28.130558-16.465826 46.946162-47.694231 47.466561-83.212268l.011072-1.483562.068359-338.483829-.068359-279.712465-.011072-1.483562c-.408189-27.859547-12.072466-53.079907-30.659082-70.606975l-.984566-.915342c-10.57294-9.6898494-23.304776-16.9257567-37.428099-20.8127549-4.408774-1.2133668-8.953107-2.1004024-13.609688-2.6338835l-272.525101-24.8614725-1.612109-.1700681-1.592071-.1395229-1.3966-.0991413c-.108408-.0068523-.216786-.0135062-.325133-.0199621-.442636-.0263762-.885237-.0494695-1.327302-.0692709l1.327302.0692709c-.54783-.0326426-1.094876-.0602228-1.641097-.0827791l.313795.0135082c-.496146-.022224-.991618-.0403014-1.486384-.0542612l1.172589.040753c-.47074-.0194393-.940866-.0351472-1.410351-.0471485l.237762.0063955c-.539058-.0152096-1.077279-.0255312-1.614619-.0310021l1.376857.0246066c-.552988-.0141359-1.105087-.0231293-1.656252-.0270205zm32.11465 801.0007514-23.98 1.566.000113 58.234605 23.979887-1.910605zm44.143-2.881-24.142 1.576v57.602l20.389-1.624 3.753-.342zm44.143-2.881-24.142 1.576v56.692l24.142-2.202zm44.143-2.882-24.142 1.576v55.547l24.142-2.202zm-245.436053-777.578008-39.016327 8.1116007c-34.822382 7.238344-59.867133 37.8036383-60.117868 73.3694793v671.873975l.009013.79555.023725 1.048533c1.024416 34.549009 25.905801 63.834989 59.94468 70.355391l39.888494 7.643242c-19.326998-19.843114-31.891917-46.920571-33.433328-77.292895l-.007522-.161015-.071533-1.676295c-.01186-.277937-.01792-.556091-.018177-.83428l-.335352-364.307424v-2.114311l.335356-307.610157c.000243-.2234.00423-.44678.011958-.670047 1.064319-30.748918 13.441744-58.2978055 32.786881-78.531347zm289.579053 774.697008-24.142 1.576v54.401l24.142-2.202zm44.143-2.881-24.142 1.575v53.256l24.142-2.202zm44.142-2.882-24.142 1.576v52.11l9.329064-.850308 1.394736-.170774c4.593111-.598664 9.073643-1.542012 13.418866-2.803533zm-264.856248-11.865445-23.980752 1.524445v9.152l23.98-1.565zm44.142857-2.805473-24.142 1.535-.000609 9.075918 24.142-1.576zm44.142857-2.805473-24.142 1.535-.000466 9.000391 24.142-1.576zm44.142857-2.805473-24.142 1.535-.000323 8.924864 24.142-1.576zm44.142858-2.805473-24.142 1.535-.000181 8.848337 24.142-1.575zm44.142857-2.805472-24.142 1.535-.000038 8.772809 24.142-1.576zm44.142857-2.805473-24.142 1.535-.000895 8.697282 24.142-1.576zm-6.354895-45.547718-282.482887 17.432478-.000113 26.354522 269.363-17.704zm-81.644248-194.511398c0 23.338634-17.39399 43.098388-39.452925 43.829798l-38.431372 1.274274c-22.338532.740681-40.115703-18.275491-40.115703-41.854675 0-23.338634 17.39399-43.098388 39.452925-43.829799l38.431372-1.274273c22.338532-.740682 40.115703 18.27549 40.115703 41.854675zm-39.452925-21.86566-38.431372 1.274273c-10.83991.359421-20.115703 10.896818-20.115703 23.840784 0 12.703416 8.892612 22.215809 19.452925 21.86566l38.431372-1.274274c10.83991-.35942 20.115703-10.896818 20.115703-23.840783 0-12.703416-8.892612-22.21581-19.452925-21.86566zm-33.859227 2.863455c11.766067-.351138 21.304348 8.847873 21.304348 20.546565s-9.538281 21.46701-21.304348 21.818147c-11.766066.351138-21.304347-8.847873-21.304347-20.546565 0-11.698693 9.538281-21.46701 21.304347-21.818147zm115.501845-436.385347.231974.004554c4.190511.151443 7.587591 4.01467 7.587591 8.628758s-3.39708 8.231777-7.587591 8.080334c-4.190511-.151444-7.587592-4.01467-7.587592-8.628758 0-4.614089 3.397081-8.231777 7.587592-8.080334zm-95.912409-8.140867.231974.004553c4.190511.151443 7.587591 4.01467 7.587591 8.628758 0 4.614089-3.39708 8.231777-7.587591 8.080334s-7.587591-4.01467-7.587591-8.628758 3.39708-8.231777 7.587591-8.080334zm-109.912408-6.1408679.231973.0045534c4.190511.1514432 7.587591 4.0146695 7.587591 8.6287585 0 4.614088-3.39708 8.231777-7.587591 8.080333-4.190511-.151443-7.587591-4.014669-7.587591-8.628758 0-4.614088 3.39708-8.2317766 7.587591-8.0803335z"/></svg>