<svg width="960" height="960" viewBox="0 0 960 960" fill="none" xmlns="http://www.w3.org/2000/svg">
<path d="M454.278 21.7114C465.625 10.8869 483.375 10.8869 494.722 21.7114L495.266 22.2437L496.596 23.5874C553.202 81.1778 649 228.927 649 432.423C649 537.904 634.473 613.164 615.619 664.766C600.076 707.306 580.888 735.564 563 750.307C562.662 752.515 562.132 754.795 561.337 757.063C560.072 760.674 557.848 765.069 553.923 768.889V799.691C553.923 810.944 548.537 821.157 539.972 827.58V904.396C539.972 912.65 535.548 920.272 528.381 924.367L521.069 928.542C517.478 934.488 512.119 939.644 506.376 943.467C498.182 948.922 487.299 953 474.5 953C461.754 953 450.775 948.957 442.497 943.686C436.65 939.963 430.876 934.779 427.025 928.617L419.586 924.367C412.419 920.272 407.995 912.65 407.995 904.396V827.225C400.035 820.922 395.077 811.198 395.077 800.53V768.889C391.152 765.069 388.928 760.674 387.663 757.063C386.869 754.795 386.337 752.516 385.999 750.308C368.111 735.565 348.924 707.306 333.381 664.766C314.527 613.164 300 537.904 300 432.423C300 227.325 397.313 78.8542 453.734 22.2437L454.278 21.7114ZM492.96 899.095C478.66 900.7 466.98 901.693 457.973 902.276C459.419 904.148 460.416 906.016 461.096 907.583C461.123 907.613 461.151 907.647 461.184 907.682C461.698 908.244 462.629 909.085 463.982 909.947C466.688 911.67 470.313 913 474.5 913C478.631 913 481.901 911.707 484.211 910.169C485.385 909.388 486.181 908.626 486.616 908.123C486.645 908.089 486.67 908.056 486.693 908.028C487.779 905.37 489.691 901.995 492.96 899.095ZM499.972 879.284C476.047 882.136 458.652 883.38 447.995 883.81V892.802C458.447 892.366 475.824 891.118 499.972 888.21V879.284ZM499.972 861.284C476.047 864.136 458.652 865.38 447.995 865.81V873.802C458.447 873.366 475.824 872.118 499.972 869.21V861.284ZM499.972 842.065C476.029 844.446 458.634 845.48 447.995 845.838V855.802C458.447 855.366 475.824 854.118 499.972 851.21V842.065ZM447.995 835.833C458.464 835.47 475.842 834.432 499.972 832.013V827.322C477.573 828.488 459.971 827.987 447.995 827.015V835.833ZM420.815 833.542L421.176 833.631L420.801 833.537C420.806 833.538 420.81 833.54 420.815 833.542ZM513.923 771.444C504.608 771.888 491.563 772.211 473.741 772.211C456.867 772.211 444.275 771.922 435.077 771.514V796.359C439.671 798.568 443.348 802.241 445.587 806.713C456.443 807.824 475.737 808.716 502.22 807.167C504.602 802.194 508.736 798.167 513.923 795.956V771.444ZM522.971 740.107C510.339 740.721 493.53 741.239 473.741 741.239C454.761 741.239 438.937 741.047 427.038 740.815C430.53 743.425 433.139 747.148 434.342 751.458C443.248 751.887 456.01 752.211 473.741 752.211C492.52 752.211 505.724 751.847 514.679 751.381C516.005 746.698 518.996 742.714 522.971 740.107ZM608.852 450.221C581.554 453.838 534.836 457.84 472.706 457.84C412.012 457.84 366.904 454.022 340.15 450.463C341.701 542.779 355.08 607.6 370.951 651.039C386.432 693.407 403.518 713.504 412.72 720.461C424.076 720.807 445.287 721.239 473.741 721.239C503.752 721.239 526.58 720.033 537.905 719.162C547.398 711.173 563.439 691.025 578.049 651.039C593.934 607.562 607.321 542.665 608.852 450.221ZM474.5 58.4106C423.366 114.208 340.654 247.871 340.004 430.261C364.975 433.735 410.188 437.84 472.706 437.84C536.598 437.84 583.477 433.552 608.994 430.021C608.273 247.754 525.612 114.184 474.5 58.4106Z" fill="black"/>
</svg>
