<svg height="960" viewBox="0 0 960 960" width="960" xmlns="http://www.w3.org/2000/svg"><path d="m447.112834 7.84448223.482166.0385991.933068-.04414793c2.567845-.1046714 5.148394-.09026115 7.735481.02475985l1.109134.05898105 201 11.9437633c47.273668 2.8090821 85.627317 41.7868203 85.627317 88.7106214v690.845882c0 19.707996-6.765584 38.014307-18.116093 52.827979l-.569907.730161.148634.45711c1.561668 4.951592 2.44169 10.205709 2.529998 15.652284l.007368.909525v18.685636c.002455 27.370976-20.121902 50.578529-47.214215 54.451068-57.665366 8.247456-132.543892 12.315074-224.948018 12.315074-90.552541 0-160.110849-3.899242-209.368737-11.902336l-1.463837-.240566c-26.544686-4.400415-46.005193-27.359762-46.005193-54.261468v-19.047408c0-20.65545 11.386294-38.651488 28.22453-48.053834l.11747-.064085-.007313-.01349c-6.296311-12.781099-9.929088-27.053392-10.242094-42.044631l-.019905-1.452984-4.16387-637.948858c-.305343-46.7817696 31.864376-87.5230124 77.441474-98.0755183l144.903572-33.54965284c4.012985-.92912993 7.997167-1.22180858 11.85897-.95246463zm-46.701233 847.15445577-146.411601.001062c-8.284271 0-15 6.715729-15 15v19.047408c0 7.338259 5.307411 13.599899 12.546871 14.800012l1.407666.231297c46.666752 7.58204 114.294496 11.373061 202.88323 11.373061 90.664639 0 163.759544-3.970773 219.284739-11.912136 7.389702-1.056274 12.878164-7.385607 12.877494-14.850418v-18.689224c0-3.472424-1.179913-6.669265-3.160682-9.211465-8.427221 4.191845-17.791071 6.794232-27.652976 7.380244l-201 11.943763c-22.795816 1.354566-43.143736-8.665919-55.774741-25.113604zm51.370796-806.7317238-.400045.0043917c-.148454.0022636-.296789.005222-.445002.0088742l.444639-.0088388c-.25456.0038874-.50856.0098145-.761985.0177665l.317346-.0089277c-.265349.0065386-.530307.0153011-.794856.0262824l.47751-.0173547c-.265652.0083357-.530671.0188964-.795039.031665l.317529-.0143103c-.26311.0109216-.525814.0240379-.788095.0393439l.470566-.0250336c-.273945.0132313-.547191.0288333-.819718.0467872l.349152-.0217536c-.270231.0157699-.540012.0338643-.809322.0542777l.46017-.0325241c-.258217.0170111-.515789.0361336-.772697.0573513l.312527-.0248272c-.245654.0186202-.490917.0391699-.735773.0616449l.423246-.0368177c-.280326.0231516-.559862.0487978-.838586.0769174l.41534-.0400997c-.261867.0240365-.523269.050275-.784186.0787105l.368846-.0386108c-.25505.0257312-.50942.0535336-.763093.083391l.394247-.0447802c-.258731.0281973-.516985.0585549-.774744.0910678l.380497-.0462876c-.254331.0299349-.507962.0619355-.760875.0959857l.380378-.0496981c-.300259.0378737-.599846.0786721-.898732.1223874l.518354-.0726893c-.254637.0342823-.508546.0706421-.761711.109063l.243357-.0363737c-.25871.037839-.516895.0778635-.774535.1200682l.531178-.0836945c-21.487468 3.2609908-37.608285 21.3693852-37.608285 44.2094316v722c0 22.946064 16.270821 41.116448 37.907849 44.253881.155302.022625.310047.044253.464975.0651l-.464975-.0651c.259841.037678.520457.073187.781827.106511l-.316852-.041411c.256964.034577.514432.067007.772383.097283l-.455531-.055872c.277485.035379.555821.068294.834985.098724l-.379454-.042852c.249284.029259.49902.056508.749191.081742l-.369737-.03889c.260843.028433.522409.054696.78468.078773l-.414943-.039883c.278704.028111.557947.053722.837709.076826l-.422766-.036943c.237785.021829.476149.04186.715079.060081l-.292313-.023138c.275578.022758.551658.043084.828219.060971l-.535906-.037833c.273484.020856.547709.03934.822655.055433l-.286749-.0176c.235342.015222.471031.028677.707054.040364l-.420305-.022764c.270683.015843.542065.029368.814126.040558l-.393821-.017794c.283821.014052.568125.025546.852888.034475l-.459067-.016681c.258021.010612.516653.019122.775878.025515l-.316811-.008834c.253669.007955.507702.013873.762084.017752l-.445273-.008918c.5289.013045 1.060271.017276 1.593971.012559l-.29483.001715c.243642-.000654.487585-.003172.731814-.007559l-.436984.005844c.286675-.002533.574021-.007648.862017-.015365l-.425033.009521c.207465-.003727.415137-.008802.623006-.015229l-.197973.005708c.256178-.006865.51287-.015789.770061-.026786l-.572088.021078c.458837-.014184.918637-.03495 1.379301-.062324l201-11.943763c26.250118-1.559827 47.529659-23.185627 47.529659-48.281934v-690.845882c0-25.0963069-21.279541-46.7221073-47.529659-48.2819341l-201-11.9437633-.807213-.0412457c-.066132-.0028278-.13223-.0055184-.198295-.0080722-.21121-.0081692-.422508-.0149503-.633598-.0203372l.633598.0203372c-.324178-.0125313-.647555-.0217674-.9701-.0277377l.336502.0074005c-.244959-.0062512-.489638-.0106249-.734023-.0131251l.397521.0057246c-.405446-.0075048-.809579-.0098493-1.212336-.0070918zm-55.724472 11.1748454-96.572293 22.3607887c-26.847189 6.2159537-45.875739 30.0367557-46.077677 57.5209717v.833962l4.16387 637.948858c.188375 28.860991 21.062062 53.424892 49.514423 58.267971l91.074021 15.503628c-7.05146-10.417956-11.160269-23.075728-11.160269-36.878239v-722c0-12.3677053 3.298968-23.8162986 9.057925-33.5579404zm55.348904-1.6074257 201 11.9437633c10.459365.6215133 20.193224 5.1699156 27.406395 12.500459 6.920677 7.0332899 11.186776 16.2187663 11.186776 26.2982028v690.845882c0 10.079436-4.266099 19.264913-11.186776 26.298203-7.213171 7.330543-16.94703 11.878946-27.406395 12.500459l-201 11.943763c-9.83961.584687-19.402702-2.671433-26.496618-9.343817-7.079032-6.658383-10.910211-15.985624-10.910211-25.821549v-722c0-9.8359248 3.831179-19.1631659 10.910211-25.821549 7.093916-6.6723837 16.657008-9.9285035 26.496618-9.3438171zm-12.793946 23.9121655c-2.952619 2.7771691-4.612883 6.7963291-4.612883 11.2532006v722c0 4.456872 1.660264 8.476031 4.612883 11.253201 2.9733 2.796621 7.121621 4.213946 11.607605 3.947381l201-11.943763c5.606784-.333165 10.667363-2.833941 14.336933-6.563222 3.199645-3.25171 5.442579-7.528982 5.442579-12.270656v-690.845882c0-4.741674-2.242934-9.0189463-5.442579-12.2706556-3.66957-3.7292816-8.730149-6.2300576-14.336933-6.5632224l-201-11.9437633c-4.485984-.2665648-8.634305 1.1507602-11.607605 3.9473817z"/></svg>