<svg height="960" viewBox="0 0 960 960" width="960" xmlns="http://www.w3.org/2000/svg"><path d="m480 71c.701965 0 1.403138.0057375 2.103501.0171912l-2.103501-.0171912c225.884463 0 409 183.115537 409 409 0 225.21546-182.032476 407.914957-406.994121 408.995185l-.002329-.010781c-.588262.009163-1.177095.014293-1.766488.015378-.079419.000196-.158238.000218-.237062.000218l-.234-.002-.798828-.002142c-.324078-.002601-.647986-.006424-.971721-.011469l2.004549.015611c-225.884463 0-409-183.115537-409-409 0-225.18183 181.978116-407.8603931 406.893347-408.9946889l.003152.0118801c.700363-.0114537 1.401536-.0171912 2.103501-.0171912zm163.006932 556.729455h-326.013864c27.455621 130.254627 90.108889 221.270545 163.006932 221.270545s135.551311-91.015918 163.006932-221.270545zm-277.935578 203.021267-.532971-.617361c-17.34492-19.742499-32.868601-43.937989-46.317899-71.845282-18.307673-37.988423-32.520595-82.320016-42.053587-130.562555l-134.406282.003931c41.857061 95.700125 123.139005 170.218911 223.310739 203.021267zm453.168031-203.021267-134.406282-.003931c-9.532992 48.242539-23.745914 92.574132-42.053587 130.562555-13.587838 28.194763-29.293015 52.600859-46.854483 72.45396 100.175347-32.793673 181.457291-107.312459 223.314352-203.012584zm-548.749956-255.637606-142.460002-.003808c-10.422383 34.133254-16.029427 70.367809-16.029427 107.911959 0 37.477381 5.587119 73.64982 15.973867 107.72983l142.490298-.003781c-4.799577-34.626507-7.29549-70.801545-7.29549-107.726049 0-36.989238 2.504672-73.22638 7.320754-107.908151zm380.616871-.003808h-340.2126c-5.022835 34.133254-7.725025 70.367809-7.725025 107.911959 0 37.477381 2.692587 73.64982 7.698249 107.72983h340.266152c5.005662-34.08001 7.698249-70.252449 7.698249-107.72983 0-37.54415-2.70219-73.778705-7.725025-107.911959zm182.864273 0-142.460002.003808c4.816082 34.681771 7.320754 70.918913 7.320754 107.908151 0 36.924504-2.495913 73.099542-7.29549 107.726049l142.490298.003781c10.386748-34.08001 15.973867-70.252449 15.973867-107.72983 0-37.54415-5.607044-73.778705-16.029427-107.911959zm-467.895606-242.83008-1.707507.553904c-99.326053 33.065339-179.884809 107.207338-221.527366 202.277097l134.362851.003225c9.532757-48.171925 23.732927-92.439696 42.017539-130.380266 13.587838-28.194763 29.293015-52.600859 46.854483-72.45396zm114.925033-18.257961-.111.001-2.829766.048435c-71.605359 2.409017-132.922649 92.636296-160.027863 221.039527h325.937258c-27.461575-130.091387-90.040731-220.996402-162.857395-221.088891-.037092-.000066-.074162-.000071-.111234-.000071zm114.928646 18.249278.532971.617361c17.34492 19.742499 32.868601 43.937989 46.317899 71.845282 18.284612 37.94057 32.484782 82.208341 42.017539 130.380266l134.362851-.003225c-41.880421-95.612801-123.122891-170.058078-223.23126-202.839684z"/></svg>