<svg height="960" viewBox="0 0 960 960" width="960" xmlns="http://www.w3.org/2000/svg"><path d="m479 33c54.524584 0 99 43.7215951 99 98 0 3.122327-.148864 6.22386-.442399 9.296248l-.054211.554868c93.221176 37.004284 160.940699 124.727643 168.74407 229.403548l.222902 3.366657.036933.131921c.785835 2.998557 1.23524 6.152043 1.299729 9.425826l.008075.820932-.000737 5.770321.073695 1.701133c3.584889 82.717217 9.897039 141.429335 18.448615 174.765916l.262482 1.012579c8.407876 32.095744 28.448942 75.639564 60.163393 129.751576l.973815 1.658796.436128.621292c15.441278 22.187601 17.679305 48.388775 3.015585 71.25513l-.468687.720979c-11.461961 17.395471-30.52245 29.522691-57.096659 39.442523-38.03644 14.198544-97.042312 25.828172-161.522524 32.88314l-.08179.339301c-14.568414 59.058265-67.440567 103.032447-130.752869 104.05896l-2.265546.018354c-64.313559 0-118.276568-44.315975-133.018415-104.077314l-.078223-.329544-1.325373-.144896c-56.920388-6.276749-108.627456-16.013198-145.739122-27.783703-.145765-.046102-.291281-.092301-.436574-.138533-.532808-.169982-1.063078-.340305-1.590281-.511045-.276195-.08851-.550813-.177734-.824599-.267075-.376812-.124232-.75445-.248341-1.130462-.372665-2.90309-.957344-5.707979-1.928758-8.411902-2.912851l-.152915-.056006-1.759241-.648399-.155622-.057724c-26.574209-9.919832-45.634698-22.047052-57.096659-39.442523-7.133688-10.826584-10.445983-22.422869-10.333127-34.001574l.000199-.031434c.127209-13.051808 4.604113-26.081578 12.863991-37.963423l.432687-.616149c31.93356-54.357879 52.198923-98.147439 60.839183-130.495168l.260867-.986662c8.653996-33.073308 15.042064-91.91219 18.666789-175.117456l-.009877-1.22037c-.000441-.054247-.000772-.108494-.000993-.162742l-.000331-.162744c0-77.567514 32.892072-147.452672 85.489384-196.468643.52885-.490008 1.057625-.979713 1.588398-1.467325.283386-.260963.567703-.520582.852579-.779597 23.469836-21.376792 50.804149-38.680498 80.949443-50.718154l1.577558-.618139-.010866-.109155c-.271566-2.829238-.420442-5.683167-.443368-8.555247l-.003128-.78374c0-54.2784049 44.475416-98 99-98zm41.333853 817.249536-1.452697.051328c-13.282556.46069-26.491419.699136-39.501418.699136h-.759476c-13.481377 0-27.178987-.256301-40.952737-.750849 10.384145 10.933905 25.062219 17.750849 41.332475 17.750849s30.94833-6.816944 41.333853-17.750464zm-41.833853-648.249536c-47.888611 0-91.6063 17.857839-124.857085 47.277535l-2.070936 1.859537c-36.680892 33.513226-59.887245 81.235821-61.378074 133.849882-.007652.270063-.017905.539274-.03073.807616l-.046813.801572.000236 3.85518c0 .376373-.005313.752718-.015934 1.128922l-.019915.564187-.056052 1.297569.004239.451216c.003748.460509-.000458.921032-.012614 1.381361l-.024195.690325c-3.858469 88.301245-10.756464 151.681501-21.202595 191.557967-10.24052 39.091574-32.008037 86.932796-65.265935 144.325192l-.1189.202939.447059.204938c2.317424 1.055929 4.924554 2.138051 7.814698 3.23258l.615908.231624 1.505.555 1.096577.396791c23.406287 8.377257 58.242929 16.120303 98.669063 22.122413 50.040218 7.404599 107.977852 12.038936 162.104053 12.204975h2.681307l.659819-.006.659181.006h2.716557c28.884276-.089553 58.843694-1.451723 88.101995-3.826067.692164-.0962 1.391444-.173196 2.096404-.232201 71.24211-5.962948 136.395971-17.860526 172.08925-31.199738 3.159311-1.18069 5.990989-2.348223 8.486676-3.485377l.471118-.216796-.144107-.249567c-32.882235-56.80944-54.523144-104.263498-64.887129-143.137418l-.326936-1.237745c-10.577229-40.423398-17.518791-105.028395-21.341939-195.269981-.023896-.564053-.035849-1.128549-.035849-1.693109l-.00004-1.40018-.001434-.014596c-.131498-1.044219-.223579-2.10354-.274504-3.176758l-.030449-.807501c-2.446528-87.391772-64.81103-161.337373-149.393082-179.053351-.325822-.068244-.649561-.140057-.971198-.215383-12.187652-2.483421-24.801114-3.783553-37.712695-3.783553zm.5-89c-7.319617 0-13.556491 3.883342-16.738863 9.491278 5.371236-.328734 10.786067-.491278 16.238863-.491278 5.801482 0 11.560687.184243 17.272016.547236-3.172556-5.637085-9.427177-9.547236-16.772016-9.547236z"/></svg>