<svg height="960" viewBox="0 0 960 960" width="960" xmlns="http://www.w3.org/2000/svg"><path d="m480 1c128.72815 0 249.481813 51.0735879 338.707918 140.293914 89.218494 89.224273 140.292082 209.977936 140.292082 338.706086 0 128.729135-51.074414 249.483273-140.292998 338.701857-89.223027 89.223027-209.976807 140.298143-338.707002 140.298143-128.73118 0-249.485434-51.075942-338.700941-140.297227-89.2231171-89.217339-140.299059-209.971593-140.299059-338.702773 0-128.730195 51.0751158-249.483975 140.298143-338.707002 89.218584-89.218584 209.972722-140.292998 338.701857-140.292998zm0 80c-107.293789 0-207.768952 42.497178-282.133315 116.861541-74.368923 74.368923-116.866685 174.843789-116.866685 282.138459 0 107.295108 42.498102 207.769548 116.867601 282.134231 74.362851 74.367667 174.837291 116.865769 282.132399 116.865769 107.29467 0 207.769536-42.497762 282.138459-116.866685 74.364363-74.364363 116.861541-174.839526 116.861541-282.133315 0-107.293351-42.496837-207.76894-116.860625-282.137543-74.370435-74.36562-174.846024-116.862457-282.139375-116.862457zm74.486193 323.41051-.11371.800065-68.620954 225.726014c-2.017892 7.195185-6.091579 21.281711 5.985088 21.281711 2.618928 0 5.954405-1.456297 9.927017-4.336529 4.308325-3.094181 9.250175-7.795683 14.78584-14.021801 5.624106-6.346578 11.482851-13.845608 17.5636-22.486303 6.060895-8.620917 12.432235-18.503959 19.061677-29.519676.340184-.570499.894172-.982813 1.539838-1.146047.645666-.163235 1.329997-.063987 1.90213.275864l22.472961 16.607178c1.070313.780288 1.315781 2.268947.61367 3.376451-10.331317 17.892675-20.778148 33.516403-31.336885 46.846014-10.647176 13.423102-21.440551 24.559278-32.372904 33.35639l-.171466.125853c-10.932353 8.82408-22.144467 15.465513-33.632733 19.915309-31.970409 12.333576-82.451997 10.323527-96.907538-26.84081-9.136465-23.469752-1.619006-50.134368 5.568154-73.086326l36.25888-109.40565c2.321117-8.300892 5.255904-17.407242 6.326217-25.95984 1.757985-14.230358-4.548379-23.430198-20.119356-23.430198h-31.697867c-1.390503-.006913-2.514894-1.130146-2.517852-2.515259l.138978-.870182 8.33328-30.206474c.303183-1.093923 1.308264-1.847019 2.44746-1.833855l161.978231-5.062409c1.381763-.04313 2.539235 1.034265 2.588244 2.41051zm-37.184749-152.41051c7.478339 0 14.451264 1.392662 20.873646 4.114765 6.427798 2.747391 12.32491 6.831449 17.703971 12.244948 5.371842 5.395436 9.407943 11.39779 12.084838 18.014289 2.687726 6.616499 4.036101 13.834497 4.036101 21.635933 0 7.577453-1.333935 14.681654-4.023466 21.254802-2.676895 6.558697-6.694946 12.631497-12.079422 18.146149-5.351986 5.496589-11.249098 9.649287-17.67148 12.423772-6.442238 2.760036-13.415163 4.165342-20.924188 4.165342-7.687726 0-14.812274-1.380018-21.361011-4.114765-6.505415-2.749198-12.478339-6.876607-17.855595-12.340682-5.366426-5.502008-9.402528-11.529651-12.066787-18.120861-2.682311-6.585792-4.018051-13.7207-4.018051-21.413757 0-7.801436 1.373646-15.019434 4.119134-21.653996 2.734657-6.61108 6.85379-12.633304 12.33935-18.026933 5.465704-5.382792 11.445848-9.46685 17.898917-12.207016 6.485559-2.729328 13.471119-4.12199 20.944043-4.12199z"/></svg>