<svg height="960" viewBox="0 0 960 960" width="960" xmlns="http://www.w3.org/2000/svg"><path d="m87.0671505 28.8377312 186.9632705 187.6298728c6.696802-7.860403 13.838858-15.329842 21.387153-22.369301.539855-.50053 1.080025-1.001069 1.622282-1.499423.309999-.285539.621301-.569793.933273-.853323 23.460526-21.359092 50.77983-38.648987 80.906675-50.679276l1.577558-.618139-.010866-.109155c-.271566-2.829238-.420442-5.683167-.443368-8.555247l-.003128-.78374c0-54.2784049 44.475416-98 99-98s99 43.7215951 99 98c0 3.122327-.148864 6.22386-.442399 9.296248l-.054211.554868c93.221176 37.004284 160.940699 124.727643 168.74407 229.403548l.222902 3.366657.036933.131921c.785835 2.998557 1.23524 6.152043 1.299729 9.425826l.008075.820932-.000737 5.770321.073695 1.701133c3.584889 82.717217 9.897039 141.429335 18.448615 174.765916l.262482 1.012579c8.407876 32.095744 28.448942 75.639564 60.163393 129.751576l.973815 1.658796.436128.621292c15.441278 22.187601 17.679305 48.388775 3.015585 71.25513l-.468687.720979c-.511059.775618-1.037224 1.540763-1.578487 2.295705l100.926249 101.284304c15.593202 15.648693 15.548217 40.975252-.100476 56.568453-15.648693 15.593202-40.975253 15.548217-56.568454-.100476l-114.992214-115.405225c-37.657072 11.834299-89.885804 21.509826-146.305801 27.682902l-.08179.339301c-14.568414 59.058265-67.440567 103.032447-130.752869 104.05896l-2.265546.018354c-64.313559 0-118.276568-44.315975-133.018415-104.077314l-.078223-.329544-1.325373-.144896c-56.920388-6.276749-108.627456-16.013198-145.739122-27.783703-.145765-.046102-.291281-.092301-.436574-.138533-.532808-.169982-1.063078-.340305-1.590281-.511045-.247907-.079359-.494397-.159408-.740218-.239552-.404645-.133177-.809181-.266065-1.211854-.3992-2.904153-.957665-5.71004-1.929408-8.414891-2.913839l-.152915-.056006-1.759241-.648399-.155622-.057724c-26.574209-9.919832-45.634698-22.047052-57.096659-39.442523-7.133688-10.826584-10.445983-22.422869-10.333127-34.001574l.000199-.031434c.127209-13.051808 4.604113-26.081578 12.863991-37.963423l.432687-.616149c31.93356-54.357879 52.198923-98.147439 60.839183-130.495168l.260867-.986662c8.654006-33.073347 15.042079-91.912329 18.666802-175.117752l-.00989-1.220074c-.000441-.054247-.000772-.108494-.000993-.162742l-.000331-.162744c0-36.873246 7.432831-72.010462 20.881932-103.995087l-200.4837116-201.1992053c-15.5932011-15.648693-15.5482161-40.9752522.1004768-56.5684533s40.9752521-15.5482161 56.5684533.1004768zm350.6003745 821.4114198.413232.432335c10.359724 10.680822 24.864325 17.318514 40.919243 17.318514 16.269759 0 30.947433-6.816527 41.332901-17.749461-13.772465.493341-27.469616.749461-40.953163.749461h-.759476c-13.481377 0-27.178987-.256301-40.952737-.750849zm-147.47362-465.262197c-.007652.270063-.017905.539274-.03073.807616l-.046813.801572.000236 3.85518c0 .376373-.005313.752718-.015934 1.128922l-.019915.564187-.056064 1.298288.004251.450497c.003748.460509-.000458.921032-.012614 1.381361l-.024195.690325c-3.858469 88.301245-10.756464 151.681501-21.202595 191.557967-10.24052 39.091574-32.008037 86.932796-65.265935 144.325192l-.118912.202658.447071.205219c2.317424 1.055929 4.924554 2.138051 7.814698 3.23258l.615908.231624 1.505.555 1.096577.396791c23.406287 8.377257 58.242929 16.120303 98.669063 22.122413 50.040218 7.404599 107.977852 12.038936 162.104053 12.204975h2.681307l.659819-.006.659181.006h2.716557c28.88296-.089549 58.840963-1.451599 88.097995-3.825743.693468-.096228 1.394085-.173406 2.100404-.232525 44.285577-3.706693 86.218579-9.7066 120.184925-16.920495l-398.340792-399.754565c-2.447597 11.254099-3.886557 22.863307-4.222546 34.720961zm188.306095-182.986954c-47.888611 0-91.6063 17.857839-124.857085 47.277535l-2.070936 1.859537c-.349773.319567-.69832.640427-1.045636.96257-.274979.251959-.548153.506174-.820568.761189l.820568-.761189c-7.113027 6.597505-13.709171 13.733533-19.727054 21.338685l384.427211 385.794527c-12.162142-26.108707-21.043467-49.594951-26.638374-70.580697l-.326936-1.237745c-10.577229-40.423398-17.518791-105.028395-21.341939-195.269981-.023896-.564053-.035849-1.128549-.035849-1.693109l-.00004-1.40018-.001434-.014596c-.131498-1.044219-.223579-2.10354-.274504-3.176758l-.030449-.807501c-2.446528-87.391772-64.81103-161.337373-149.393082-179.053351-.327856-.06867-.653604-.140954-.977222-.216795-12.185763-2.482435-24.797207-3.782141-37.706671-3.782141zm.5-89c-7.319431 0-13.556173 3.883145-16.73862 9.490849 5.370993-.328305 10.785824-.490849 16.23862-.490849 5.801482 0 11.560687.184243 17.272016.547236-3.17197-5.636719-9.426833-9.547236-16.772016-9.547236z"/></svg>