<?xml version="1.0" encoding="utf-8"?>
<!-- Generator: Adobe Illustrator 20.0.0, SVG Export Plug-In . SVG Version: 6.00 Build 0)  -->
<svg version="1.1" id="Layer_1" xmlns="http://www.w3.org/2000/svg" xmlns:xlink="http://www.w3.org/1999/xlink" x="0px" y="0px"
	 viewBox="0 0 598.4 872.1" style="enable-background:new 0 0 598.4 872.1;" xml:space="preserve">
<g>
	<path d="M580,0H18.4C8.3,0,0,8.3,0,18.4v835.3c0,10.2,8.3,18.4,18.4,18.4H580c10.2,0,18.4-8.3,18.4-18.4V18.4
		C598.4,8.3,590.1,0,580,0z M506.9,801.4l-0.1-7.7h41.1l0,0c12-0.1,21.8,0.5,29.3,1.7c5.5,0.9,9.7,2.1,12.7,3.6v7.4
		c-3.2-1.3-7.2-2.4-12-3.1c-7.8-1.3-17.8-1.9-30-1.8l0,0h-41V801.4z M502.6,804.2l0.4,59.4H100.6v-59.4H150v-2.8h-49.4v-7.7H150V788
		h-49.4v-36.4H150v-2.8h-49.4V741H150v-5.7h-49.4v-36.4H150V696h-49.4v-7.7H150v-5.7h-49.4v-36.4h400.9l0.3,36.4H447v5.7h54.9
		l0.1,7.7h-54.9v2.8h55l0.3,36.4h-55.2v5.7h55.3l0.1,7.7h-55.3v2.8h55.3l0.3,36.4h-55.6v5.7h55.6l0.1,7.7h-55.7v2.8h55.3V804.2z
		 M497.3,56l0.1,7.7H100.6V56H497.3z M100.6,50.4V8.5h396.3l0.3,41.9H100.6z M500.7,538h-60.9c3.7-2.4,7.3-5,10.8-7.7h50.1V538z
		 M504.9,530.2h43c0.6,0,1.1,0,1.7,0c23.6,0,34.9,2.6,40.3,5.4v7.3c-8.3-3.4-22.1-5-42-4.9H505L504.9,530.2z M501.1,590.7H100.6V583
		h400.5V590.7z M505.3,582.9h42.6c0.6,0,1.1,0,1.7,0c23.6,0,34.9,2.6,40.3,5.4v7.3c-8.3-3.4-22.1-5-42-4.9h-42.5L505.3,582.9z
		 M501.5,643.3H100.6v-7.7h400.8L501.5,643.3z M505.7,635.6h42.2c0.6,0,1.1,0,1.7,0c23.6,0,34.9,2.6,40.3,5.4v7.3
		c-8.3-3.4-22.1-5-42-4.9h-42.1L505.7,635.6z M8.5,746.3c3-1.5,7.2-2.7,12.7-3.6c7.6-1.2,17.4-1.8,29.3-1.7l0,0h45.8v7.7H50.5l0,0
		c-12.2-0.1-22.2,0.5-30,1.8c-4.8,0.8-8.8,1.8-12,3.1V746.3z M50.5,735.3L50.5,735.3c-12.3-0.1-22.4,0.6-30.2,1.8
		c-4.7,0.8-8.6,1.8-11.8,3V704c3.1-1.4,7.2-2.6,12.4-3.4c7.6-1.2,17.5-1.8,29.6-1.8l0,0h45.8v36.4L50.5,735.3L50.5,735.3z M50.5,696
		L50.5,696c-12.2-0.1-22.2,0.5-30,1.8c-4.8,0.8-8.8,1.8-12,3.1v-7.4c3-1.5,7.2-2.7,12.7-3.6c7.6-1.2,17.4-1.8,29.3-1.7l0,0h45.8v7.7
		H50.5V696z M50.5,682.6L50.5,682.6c-12.3-0.1-22.4,0.6-30.2,1.8c-4.7,0.8-8.6,1.8-11.8,3v-36.1c7.6-3.6,21.7-5.3,42-5.2h45.8v36.4
		L50.5,682.6L50.5,682.6z M50.5,643.3c-19.9-0.1-33.8,1.5-42,4.9v-7.3c5.6-2.8,17.3-5.5,42-5.3h45.8v7.7L50.5,643.3L50.5,643.3z
		 M100.6,629.9v-36.4h400.5l0.3,36.4H100.6z M96.3,590.7H50.5c-19.9-0.1-33.8,1.5-42,4.9v-7.3c5.6-2.8,17.3-5.5,42-5.3h45.8V590.7z
		 M100.6,577.2v-36.4h400.2l0.3,36.4H100.6z M100.6,530.2h51.6c3.4,2.8,7,5.4,10.8,7.7h-62.4V530.2z M96.3,538H50.5
		c-19.9-0.1-33.8,1.5-42,4.9v-7.3c5.6-2.8,17.3-5.5,42-5.3h45.8V538z M423.5,538c4.8-2.2,9.4-4.8,13.8-7.7h3.9
		c-4,2.9-8.3,5.5-12.7,7.7H423.5z M412.2,538h-53.6c5.4-2.3,10.7-4.8,15.7-7.7h54.8C423.8,533.3,418.1,535.9,412.2,538z
		 M226.5,530.2c5.1,2.9,10.3,5.5,15.7,7.7h-51.7c-5.9-2.1-11.6-4.7-16.9-7.7H226.5z M165.5,530.2c4.4,2.9,9,5.5,13.8,7.7h-5.1
		c-4.4-2.3-8.6-4.9-12.7-7.7H165.5z M100.6,524.6v-36.4h399.8l0.3,36.4H100.6z M100.6,477.5h15c0.9,2.6,1.9,5.2,2.9,7.7h-17.9V477.5
		z M96.3,485.3H50.5c-19.9-0.1-33.8,1.5-42,4.9v-7.3c5.6-2.8,17.3-5.5,42-5.3h45.8V485.3z M100.6,424.8h9.1v7.7h-9.1V424.8z
		 M96.3,432.6H50.5c-19.9-0.1-33.8,1.5-42,4.9v-7.3c5.6-2.8,17.3-5.5,42-5.3h45.8V432.6z M100.6,372.2h9.1v7.7h-9.1V372.2z
		 M96.3,379.9H50.5c-19.9-0.1-33.8,1.5-42,4.9v-7.3c5.6-2.8,17.3-5.4,42-5.4h45.8V379.9z M100.6,319.5h9.1v7.7h-9.1V319.5z
		 M96.3,327.2H50.5c-19.9-0.1-33.8,1.5-42,4.9v-7.3c5.5-2.8,17.3-5.5,42-5.3h45.8V327.2z M100.6,266.8h9.3c-0.1,2.2-0.2,4.3-0.2,6.5
		v1.2h-9.1C100.6,274.5,100.6,266.8,100.6,266.8z M96.3,274.5H50.5c-19.9-0.1-33.8,1.5-42,4.9v-7.3c5.5-2.8,17.3-5.5,42-5.3h45.8
		V274.5z M100.6,214.1h25.7c-1.5,2.5-3,5.1-4.3,7.7h-21.4V214.1z M96.3,221.8H50.5c-19.9-0.1-33.8,1.5-42,4.9v-7.3
		c5.5-2.8,17.3-5.5,42-5.3h45.8V221.8z M100.6,161.4H200c-8.1,1.8-15.9,4.4-23.3,7.7h-76.2L100.6,161.4L100.6,161.4z M96.3,169.2
		H50.5c-19.9-0.1-33.8,1.5-42,4.9v-7.3c5.6-2.8,17.3-5.5,42-5.3h45.8V169.2z M100.6,108.7h397.1l0.1,7.7H100.6V108.7z M96.3,116.5
		H50.5c-19.9-0.1-33.8,1.5-42,4.9v-7.3c5.6-2.8,17.3-5.5,42-5.3h45.8V116.5z M117.6,424.8v7.7h-2.2v-7.7H117.6z M121.9,424.8h33.9
		c0.3,2.6,0.7,5.2,1.2,7.7h-35.1V424.8z M445.1,424.8h35.8v7.7h-37C444.4,430,444.8,427.4,445.1,424.8z M485.2,424.8h2.2v7.7h-2.2
		V424.8z M493.1,424.8h6.8l0.1,7.7h-6.9V424.8z M504.2,424.8h43.7c0.6,0,1.1,0,1.7,0c23.6,0,34.9,2.6,40.3,5.4v7.3
		c-8.3-3.4-22.1-5-42-4.9h-43.7V424.8z M117.6,372.2v7.7h-2.2v-7.7H117.6z M121.9,372.2h32.7v7.7h-32.7
		C121.9,379.9,121.9,372.2,121.9,372.2z M446.3,372.2H481v7.7h-34.7V372.2z M485.2,372.2h2.2v7.7h-2.2V372.2z M493.1,372.2h6.5
		l0.1,7.7h-6.5v-7.7H493.1z M503.8,372.2h44.1c0.6,0,1.1,0,1.7,0c23.6,0,34.9,2.6,40.3,5.4v7.3c-8.3-3.4-22.1-5-42-4.9h-44
		L503.8,372.2z M117.6,319.5v7.7h-2.2v-7.7H117.6z M121.9,319.5h32.7v7.7h-32.7C121.9,327.2,121.9,319.5,121.9,319.5z M446.3,319.5
		H481v7.7h-34.7V319.5z M485.2,319.5h2.2v7.7h-2.2V319.5z M493.1,319.5h6.1l0.1,7.7h-6.1v-7.7H493.1z M503.4,319.5h44.5
		c24.7-0.1,36.5,2.6,42,5.3v7.3c-8.3-3.4-22.1-5-42-4.9h-44.4L503.4,319.5z M115.6,266.8h2.2c-0.1,2.2-0.2,4.3-0.2,6.5v1.2h-2.2
		v-1.2C115.4,271.1,115.4,268.9,115.6,266.8z M121.9,273.3c0-2.2,0.1-4.3,0.2-6.5h38.6c-0.8,2.6-1.5,5.2-2.1,7.7h-36.7
		C121.9,274.5,121.9,273.3,121.9,273.3z M442.3,274.5c-0.6-2.6-1.3-5.2-2.1-7.7h40.5c0.1,2.2,0.2,4.3,0.2,6.5v1.2H442.3z M485,266.8
		h2.2c0.1,2.2,0.2,4.3,0.2,6.5v1.2h-2.2v-1.2C485.2,271.1,485.1,268.9,485,266.8z M492.9,266.8h5.9l0.1,7.7h-5.8v-1.2
		C493.1,271.1,493,268.9,492.9,266.8z M503,266.8h44.9c24.7-0.1,36.5,2.6,42,5.3v7.3c-8.3-3.4-22.1-5-42-4.9h-44.8L503,266.8z
		 M135.7,214.1c-1.7,2.5-3.3,5.1-4.7,7.7h-2.5c1.4-2.6,3-5.2,4.6-7.7H135.7z M140.8,214.1h49.3c-2.2,2.5-4.4,5.1-6.4,7.7h-47.9
		C137.4,219.2,139.1,216.6,140.8,214.1z M417.1,221.8c-2-2.6-4.1-5.2-6.4-7.7h51.2c1.8,2.5,3.4,5.1,5,7.7H417.1z M471.8,221.8
		c-1.5-2.7-3-5.2-4.7-7.7h2.7c1.6,2.5,3.2,5.1,4.6,7.7H471.8z M480.8,221.8c-1.3-2.6-2.8-5.2-4.3-7.7h21.9l0.1,7.7H480.8z
		 M502.7,214.1h45.2c24.7-0.1,36.5,2.6,42,5.3v7.3c-8.3-3.4-22.1-5-42-4.9h-45.2V214.1z M401.1,169.2c-7.3-1.6-14.8-2.4-22.5-2.4
		h-58.4c-5.3-0.6-10.6-0.9-16-0.9h-7.7c-5.3,0-10.7,0.3-16,0.9H224c-7.7,0-15.3,0.8-22.5,2.4h-8.9c10-3,20.5-4.7,31.4-4.7h154.5
		c10.9,0,21.5,1.6,31.4,4.7H401.1z M426,169.2c-7.4-3.4-15.2-6-23.3-7.7H498l0.1,7.7H426z M502.3,161.4h45.6
		c24.7-0.1,36.5,2.6,42,5.3v7.3c-8.3-3.4-22.1-5-42-4.9h-45.6L502.3,161.4z M547.9,119.3c20.4-0.1,34.4,1.6,42,5.2v36.1
		c-8.5-3.4-22.4-5-42-4.8h-45.6l-0.3-36.4L547.9,119.3L547.9,119.3z M502,116.5l-0.1-7.7h46c24.7-0.1,36.5,2.6,42,5.3v7.3
		c-8.3-3.4-22.1-5-42-4.9C547.9,116.5,502,116.5,502,116.5z M547.9,172c20.4-0.1,34.4,1.6,42,5.2v36.1c-8.5-3.4-22.4-5-42-4.8h-45.3
		l-0.3-36.4L547.9,172L547.9,172z M547.9,224.7c20.3-0.1,34.4,1.6,42,5.2V266c-8.5-3.4-22.4-5-42-4.8H503l-0.3-36.4h45.2V224.7z
		 M547.9,277.4c20.3-0.1,34.4,1.6,42,5.2v36.1c-8.5-3.4-22.4-5-42-4.8h-44.5l-0.3-36.4h44.8V277.4z M547.9,330.1
		c20.3-0.1,34.4,1.6,42,5.2v36.1c-8.5-3.4-22.4-5-42-4.8h-44.1l-0.3-36.4h44.4V330.1z M547.9,382.7c20.3-0.1,34.4,1.6,42,5.2V424
		c-8.5-3.4-22.4-5-42-4.8h-43.8l-0.3-36.4h44.1V382.7z M589.9,107.9c-8.5-3.4-22.4-5-42-4.8h-46l-0.3-36.4h46.3
		c20.4-0.1,34.4,1.6,42,5.2V107.9z M497.6,103.1h-397V66.6h396.8L497.6,103.1z M497.7,119.3l0.3,36.4H100.6v-36.4
		C100.6,119.3,497.7,119.3,497.7,119.3z M498.1,172l0.3,36.4H100.6V172H498.1z M498.5,224.7l0.3,36.4H100.6v-36.4L498.5,224.7
		L498.5,224.7z M498.9,277.4l0.3,36.4H100.6v-36.4H498.9z M499.2,330.1l0.3,36.4H100.6v-36.4H499.2z M499.6,382.7l0.3,36.4H100.6
		v-36.4H499.6z M500,435.4l0.3,36.4H100.6v-36.4H500z M475.6,485.3c1.2-2.5,2.2-5.1,3.2-7.7h2.4c-0.9,2.6-2,5.2-3.1,7.7H475.6z
		 M124.7,485.3c-1.1-2.5-2.2-5.1-3.1-7.7h2.4c1,2.6,2,5.2,3.2,7.7H124.7z M131.8,485.3c-1.2-2.5-2.3-5.1-3.3-7.7h45.1
		c1.5,2.6,3.1,5.2,4.8,7.7H131.8z M427.3,477.5h47c-1,2.6-2.1,5.2-3.3,7.7h-48.5C424.1,482.7,425.8,480.2,427.3,477.5z M484.3,485.3
		c1.1-2.5,2-5.1,2.9-7.7h13.1l0.1,7.7H484.3z M504.5,477.5h43.3c0.6,0,1.1,0,1.7,0c23.6,0,34.9,2.6,40.3,5.4v7.3
		c-8.3-3.4-22.1-5-42-4.9h-43.3V477.5z M547.9,471.9h-43.4l-0.3-36.4h43.6c20.3-0.1,34.4,1.6,42,5.2v36.1
		C581.4,473.4,567.5,471.8,547.9,471.9z M589.9,68.7c-8.3-3.4-22.1-5-42-4.9h-46.3l-0.1-7.7h46.4c0.6,0,1.1,0,1.7,0
		c23.6,0,34.9,2.6,40.3,5.4V68.7z M96.3,63.8H50.5c-19.9-0.1-33.8,1.5-42,4.9v-7.3c5.6-2.8,17.3-5.4,42-5.4h45.8V63.8z M8.5,71.8
		c7.6-3.6,21.7-5.3,42-5.2h45.8V103H50.5c-19.6-0.1-33.5,1.5-42,4.8V71.8z M8.5,124.5c7.6-3.6,21.7-5.3,42-5.2h45.8v36.4H50.5
		c-19.6-0.1-33.5,1.5-42,4.8V124.5z M8.5,177.2c7.6-3.5,21.7-5.3,42-5.2h45.8v36.4H50.5c-19.6-0.1-33.5,1.5-42,4.8V177.2z
		 M8.5,229.9c7.6-3.6,21.7-5.3,42-5.2h45.8v36.4H50.5c-19.6-0.1-33.5,1.5-42,4.8V229.9z M8.5,282.6c7.6-3.6,21.7-5.3,42-5.2h45.8
		v36.4H50.5c-19.6-0.1-33.5,1.5-42,4.8V282.6z M8.5,335.3c7.6-3.5,21.7-5.3,42-5.2h45.8v36.4H50.5c-19.6-0.1-33.5,1.5-42,4.8V335.3z
		 M8.5,387.9c7.6-3.6,21.7-5.3,42-5.2h45.8v36.4H50.5c-19.6-0.1-33.5,1.5-42,4.8V387.9z M8.5,440.6c7.6-3.6,21.7-5.3,42-5.2h45.8
		v36.4H50.5c-19.6-0.1-33.5,1.5-42,4.8V440.6z M8.5,493.3c7.6-3.6,21.7-5.3,42-5.2h45.8v36.4H50.5c-19.6-0.1-33.5,1.5-42,4.8V493.3z
		 M8.5,546c7.6-3.6,21.7-5.3,42-5.2h45.8v36.4H50.5c-19.6-0.1-33.5,1.5-42,4.8V546z M8.5,598.7c7.6-3.6,21.7-5.3,42-5.2h45.8v36.4
		H50.5c-19.6-0.1-33.5,1.5-42,4.8V598.7z M8.5,756.7c3.1-1.4,7.2-2.6,12.4-3.4c7.6-1.2,17.5-1.8,29.6-1.8l0,0h45.8V788H50.5l0,0
		c-12.3-0.1-22.4,0.5-30.2,1.8c-4.7,0.8-8.6,1.8-11.8,3C8.5,792.8,8.5,756.7,8.5,756.7z M8.5,799c3-1.5,7.2-2.7,12.7-3.6
		c7.6-1.2,17.4-1.8,29.3-1.7l0,0h45.8v7.7H50.5l0,0c-12.2-0.1-22.2,0.5-30,1.8c-4.8,0.8-8.8,1.8-12,3.1V799z M506.1,696l-0.1-7.7
		h41.8l0,0c12-0.1,21.8,0.5,29.3,1.7c5.5,0.9,9.7,2.1,12.7,3.6v7.4c-3.2-1.3-7.2-2.4-12-3.1c-7.8-1.3-17.8-1.9-30-1.8l0,0h-41.7V696
		z M506.5,748.7l-0.1-7.7h41.4l0,0c12-0.1,21.8,0.5,29.3,1.7c5.5,0.9,9.7,2.1,12.7,3.6v7.4c-3.2-1.3-7.2-2.4-12-3.1
		c-7.8-1.3-17.8-1.9-30-1.8l0,0h-41.3V748.7z M578.1,789.8c-7.9-1.3-17.9-1.9-30.2-1.8l0,0h-41.1l-0.3-36.4h41.4l0,0
		c12.1-0.1,21.9,0.5,29.6,1.8c5.2,0.8,9.4,2,12.4,3.4v36.1C586.7,791.6,582.8,790.6,578.1,789.8z M578.1,737.1
		c-7.9-1.3-17.9-1.9-30.2-1.8l0,0h-41.5l-0.3-36.4h41.7l0,0c12.1-0.1,21.9,0.5,29.6,1.8c5.2,0.8,9.4,2,12.4,3.4v36.1
		C586.7,738.9,582.8,737.9,578.1,737.1z M578.1,684.4c-7.9-1.3-17.9-1.9-30.2-1.8l0,0H506l-0.3-36.4h42.1c20.4-0.1,34.4,1.6,42,5.2
		v36.1C586.7,686.2,582.8,685.2,578.1,684.4z M547.9,629.9h-42.2l-0.3-36.4h42.5c20.4-0.1,34.4,1.6,42,5.2v36.1
		C581.4,631.4,567.5,629.8,547.9,629.9z M547.9,577.2h-42.6l-0.3-36.4h42.9c20.4-0.1,34.4,1.6,42,5.2v36.1
		C581.4,578.7,567.5,577.1,547.9,577.2z M547.9,524.6h-43l-0.3-36.4h43.3c20.4-0.1,34.4,1.6,42,5.2v36.1
		C581.4,526,567.5,524.5,547.9,524.6z M589.9,18.4v36.8c-8.5-3.4-22.4-5-42-4.8h-46.4l-0.3-41.9H580C585.5,8.5,589.9,13,589.9,18.4z
		 M18.4,8.5h77.9v41.9H50.5c-19.6-0.1-33.5,1.5-42,4.8V18.4C8.5,13,13,8.5,18.4,8.5z M8.5,853.7v-44.3c3.1-1.4,7.2-2.6,12.4-3.4
		c7.6-1.2,17.5-1.8,29.6-1.8l0,0h45.8v59.4H18.4C13,863.6,8.5,859.2,8.5,853.7z M580,863.6h-72.7l-0.4-59.4h41l0,0
		c12.1-0.1,21.9,0.5,29.6,1.8c5.2,0.8,9.4,2,12.4,3.4v44.3C589.9,859.2,585.5,863.6,580,863.6z"/>
	<circle cx="259.2" cy="703.4" r="6.1"/>
	<path d="M237,719.6c-2.5-1-5.2-1.4-7.8-1.5c-3.1-0.1-6.2,0.5-9,1.9c-2.5,1.3-4.7,3-6.4,5.2c-1.8,2.3-3.1,4.8-3.9,7.6
		c-0.9,3-1.4,6.2-1.4,9.3v38.5c-0.1,1,0.4,2,1.1,2.6c0.7,0.5,1.5,0.9,2.4,0.9s1.7-0.4,2.4-0.9c0.8-0.6,1.2-1.6,1.1-2.6V742
		c0-5.3,1.2-9.5,3.6-12.4c2.4-2.9,5.7-4.3,10-4.3c3.3-0.1,6.5,1.1,9.1,3.2c0.1,0.1,0.2,0.1,0.3,0.2c0.1,0.1,0.2,0.1,0.3,0.2l0.1,0.1
		c0.6,0.6,1.5,1,2.5,1.1c1,0,1.9-0.4,2.6-1.1c0.7-0.6,1.1-1.5,1.1-2.5s-0.5-1.9-1.2-2.5C241.9,721.9,239.6,720.5,237,719.6z"/>
	<path d="M256.9,720.1c-0.8,0.6-1.2,1.6-1.1,2.7v57.7c-0.1,1,0.4,2,1.1,2.6c1.4,1.2,3.4,1.2,4.9,0c0.8-0.6,1.2-1.6,1.1-2.6v-57.7
		c0.1-1-0.4-2-1.1-2.7C260.3,718.9,258.2,718.9,256.9,720.1z"/>
	<path d="M322.5,732.1c-2.3-5.5-6.7-9.9-12.2-12.2c-5.8-2.4-12.3-2.4-18.1,0c-2.7,1.2-5.2,2.8-7.2,4.9c-2.1,2.1-3.8,4.6-4.9,7.3
		c-1.2,2.8-1.8,5.9-1.8,9v39.3c-0.1,1,0.4,2,1.1,2.6c1.4,1.2,3.4,1.2,4.9,0c0.8-0.6,1.2-1.6,1.1-2.6v-39.3c0-2.2,0.4-4.3,1.3-6.2
		c1.6-3.8,4.7-6.9,8.5-8.5c4-1.6,8.4-1.6,12.4,0c3.8,1.6,6.9,4.7,8.5,8.5c0.8,2,1.3,4.1,1.3,6.2v39.3c-0.1,1,0.4,2,1.1,2.6
		c1.4,1.2,3.4,1.2,4.9,0c0.8-0.6,1.2-1.6,1.1-2.6l-0.1-39.3C324.3,738,323.7,735,322.5,732.1z"/>
	<path d="M370.4,719.9c-5.8-2.4-12.2-2.4-18,0c-2.7,1.2-5.1,2.8-7.2,4.9c-2.1,2.1-4.5,4.6-5.6,7.3c-1.2,2.8-2.6,5.9-2.6,9v18.7
		c0,3.1,1.3,6.2,2.6,9c2.4,5.5,7.1,9.9,12.6,12.2c2.9,1.3,6.2,1.8,9.2,1.8s5.4-0.5,8.2-1.7c2.7-1.1,3.8-2.7,6.7-4.7v8.1
		c0,2.2,0.2,4.3-0.6,6.2c-1.6,3.8-4.4,6.9-8.2,8.5c-2,0.8-3.9,1.3-6.1,1.3c-2.4,0-4.6-0.4-6.9-1.1c-2.3-0.7-4.2-2-5.8-3.7l-0.4-0.5
		c-0.1-0.1-0.1-0.2-0.1-0.3c-0.3-0.5-0.8-1-1.4-1.3c-0.5-0.2-1-0.3-1.4-0.3c-0.9,0-1.9,0.4-2.5,1c-0.7,0.6-1.2,1.5-1.1,2.5
		c0,0.7,0.2,1.4,0.6,2c1,1.4,2.3,2.8,3.7,3.8c1.5,1.1,3.2,2,5,2.7c1.7,0.7,3.5,1.3,5.4,1.6c1.7,0.4,3.4,0.5,5.2,0.5
		c3.1,0,6.2-0.6,9-1.8c5.5-2.3,9.5-6.7,11.8-12.2c0.9-2.8,1-5.9,1-9V741c0-3.1-0.1-6.2-1.3-9C380.1,726.6,375.9,722.2,370.4,719.9z
		 M376.4,765.4c-1.6,3.8-4.7,7.1-8.5,8.8c-4,1.6-8.4,1.8-12.4,0.1c-1.9-0.8-3.6-1.9-5.1-3.4c-1.4-1.4-3.3-3.1-4.1-5
		c-0.8-2-1.9-4-1.9-6.2v-18.5c0-2.2,1.1-4.3,1.9-6.2c1.6-3.8,5-6.9,8.9-8.5c4-1.6,8.6-1.6,12.6,0c3.8,1.6,6.3,4.7,7.9,8.5
		c0.8,2,0.7,4.1,0.7,6.2v17.4h1.2C377.6,761.6,377.2,763.4,376.4,765.4z"/>
</g>
</svg>
