<?xml version="1.0" encoding="utf-8"?>
<!-- Generator: Adobe Illustrator 20.0.0, SVG Export Plug-In . SVG Version: 6.00 Build 0)  -->
<svg version="1.1" id="Layer_1" xmlns="http://www.w3.org/2000/svg" xmlns:xlink="http://www.w3.org/1999/xlink" x="0px" y="0px"
	 viewBox="0 0 411 842.4" style="enable-background:new 0 0 411 842.4;" xml:space="preserve">
<g>
	<path d="M401.3,0H9.7C4.3,0,0,3.6,0,8.2v812.9l0.2,0.7C5,834.4,36.8,840.7,65,842.4h40.5v-7h201.9v7H341h0.1
		c16.5-0.6,31.7-2.5,43.9-5.5c13-3.2,21.4-7.2,25.2-12.1l0.8-1V8.2C411,3.6,406.7,0,401.3,0z M353.2,54.4v100.5h-20.5l0,0H81.3l0,0
		H57.8V54.4H353.2z M57.8,50.5V7.7h295.4v42.8H57.8z M403.3,154.8h-48.2V54.4h48.2V154.8z M55.9,154.8H7.7V54.3h48.2V154.8z
		 M55.9,158.7v149.4H7.7V158.7L55.9,158.7L55.9,158.7z M57.8,158.7h23.5v149.4H57.8V158.7z M85.2,159.9c39.9,1.1,80.4,1.6,121,1.6
		c40.7,0,81.6-0.6,122.5-1.6v151.5c-81.8,2.2-163.7,2.2-243.6,0L85.2,159.9L85.2,159.9z M332.6,158.7h20.5v149.4h-20.5V158.7z
		 M355.1,158.7h48.2v149.4h-48.2V158.7z M403.3,8.3v42.2h-48.2V7.7h46.2C402.4,7.7,403.1,8.1,403.3,8.3z M9.7,7.7h46.2v42.8H7.7V8.3
		C7.9,8.1,8.6,7.7,9.7,7.7z M7.7,819.6V312h48.2v521.9C26.4,831.1,10.4,824.2,7.7,819.6z M340.9,834.7h-25.7V824
		c0-3.2-2.6-5.8-5.8-5.8H103.7c-3.2,0-5.8,2.6-5.8,5.8v10.6H65.4c-2.6-0.2-5.2-0.4-7.6-0.6V312h23.5v3.2l1.9,0.1
		c40.6,1.1,81.7,1.7,123,1.7s83-0.6,124.5-1.7l1.9-0.1V312h20.5v522C349.2,834.2,345.1,834.5,340.9,834.7z M355.1,833.8V312h48.2
		v508.9C397.9,826,380.7,831.5,355.1,833.8z"/>
	<circle cx="181" cy="738.5" r="3.5"/>
	<path d="M168.2,747.8c-1.4-0.6-3-0.9-4.5-0.9c-1.7-0.1-3.6,0.3-5.2,1.1c-1.4,0.8-2.7,1.7-3.7,3c-1.1,1.4-1.7,2.8-2.2,4.4
		c-0.5,1.7-0.8,3.6-0.8,5.4v22.3c-0.1,0.6,0.2,1.2,0.7,1.5c0.4,0.3,0.9,0.5,1.4,0.5s1-0.2,1.4-0.5c0.5-0.4,0.7-1,0.7-1.5v-22.3
		c0-3.1,0.7-5.5,2.1-7.1c1.4-1.6,3.3-2.5,5.8-2.5c1.9-0.1,3.8,0.7,5.3,1.8c0.1,0.1,0.1,0.1,0.2,0.1c0.1,0.1,0.1,0.1,0.2,0.1l0.1,0.1
		c0.4,0.4,0.9,0.6,1.4,0.7c0.6,0,1.1-0.2,1.5-0.7c0.4-0.4,0.7-0.9,0.7-1.4c0-0.6-0.3-1.1-0.7-1.4C171,749.2,169.6,748.4,168.2,747.8
		z"/>
	<path d="M179.7,748.2c-0.5,0.4-0.7,1-0.7,1.5v33.4c-0.1,0.6,0.2,1.2,0.7,1.5c0.8,0.7,2,0.7,2.8,0c0.5-0.4,0.7-1,0.7-1.5v-33.4
		c0.1-0.6-0.2-1.2-0.7-1.5C181.6,747.5,180.4,747.5,179.7,748.2z"/>
	<path d="M217.6,755.2c-1.4-3.2-3.9-5.8-7-7c-3.4-1.4-7.1-1.4-10.4,0c-1.5,0.7-3,1.6-4.1,2.8s-2.2,2.7-2.8,4.2
		c-0.7,1.6-1.1,3.4-1.1,5.2v22.8c-0.1,0.6,0.2,1.2,0.7,1.5c0.8,0.7,2,0.7,2.8,0c0.5-0.4,0.7-1,0.7-1.5v-22.7c0-1.3,0.2-2.4,0.8-3.6
		c1-2.2,2.7-4,4.9-4.9c2.3-1,4.8-1,7.1,0c2.2,1,4,2.7,4.9,4.9c0.5,1.2,0.8,2.3,0.8,3.6v22.8c-0.1,0.6,0.2,1.2,0.7,1.5
		c0.8,0.7,2,0.7,2.8,0c0.5-0.4,0.7-1,0.7-1.5l-0.1-22.8C218.6,758.5,218.2,756.7,217.6,755.2z"/>
	<path d="M245.4,748.1c-3.4-1.4-7.1-1.4-10.5,0c-1.5,0.7-3,1.6-4.2,2.8s-2.2,2.7-2.9,4.2c-0.7,1.6-1.1,3.4-1.1,5.2v10.8
		c0,1.7,0.4,3.6,1.1,5.2c1.4,3.2,3.9,5.7,7,7c1.6,0.8,3.5,1.1,5.2,1.1s3.2-0.3,4.8-1c1.5-0.7,3-1.5,4-2.7v4.7c0,1.3,0,2.4-0.5,3.6
		c-1,2.2-2.6,4-4.8,4.9c-1.2,0.5-2.3,0.8-3.6,0.8c-1.4,0-2.7-0.2-4-0.7c-1.4-0.4-2.4-1.2-3.4-2.1l-0.3-0.3c-0.1-0.1-0.1-0.1-0.1-0.2
		c-0.2-0.3-0.5-0.6-0.8-0.8c-0.3-0.1-0.6-0.2-0.9-0.2c-0.5,0-1.1,0.2-1.4,0.6s-0.7,0.9-0.7,1.4c0,0.4,0.1,0.9,0.4,1.2
		c0.6,0.9,1.4,1.6,2.1,2.2c0.9,0.7,1.8,1.2,2.9,1.5c1,0.4,2,0.8,3.2,1c1,0.2,2,0.3,3,0.3c1.7,0,3.6-0.4,5.2-1.1
		c3.2-1.4,5.9-3.9,7.2-7c0.5-1.6,1-3.4,1-5.2v-25.1c0.4-1.8-0.2-3.6-0.9-5.2C251.2,752,248.6,749.4,245.4,748.1z M248.6,774.7
		c-1,2.2-2.7,4-4.9,4.9c-2.3,1-4.8,1-7.1,0c-1.1-0.5-2.1-1.2-2.9-2c-0.9-0.9-1.6-1.8-2.1-2.9c-0.5-1.2-0.9-2.3-0.9-3.6v-10.7
		c0-1.3,0.4-2.4,0.9-3.6c1-2.2,2.8-4,5-4.9c2.3-1,4.9-1,7.2,0c2.2,1,3.8,2.7,4.7,4.9c0.5,1.2,0.5,2.3,0.5,3.6v10.7h0.4
		C249.4,772.1,249.1,773.6,248.6,774.7z"/>
	<path d="M254.8,284.3c12.2-12.2,19.8-29.2,19.8-47.8c0-18.7-7.6-35.6-19.8-47.8c-12.2-12.2-29.2-19.8-47.8-19.8
		c-18.7,0-35.6,7.6-47.8,19.8s-19.8,29.2-19.8,47.8c0,18.7,7.6,35.6,19.8,47.8c10.4,10.4,24.1,17.4,39.4,19.3h16.8
		C230.7,301.7,244.5,294.7,254.8,284.3z M160.5,282.9c-11.9-11.9-19.3-28.3-19.3-46.5s7.4-34.6,19.3-46.5
		c11.9-11.9,28.3-19.3,46.5-19.3s34.6,7.4,46.5,19.3c11.9,11.9,19.3,28.3,19.3,46.5s-7.4,34.6-19.3,46.5
		c-11.9,11.9-28.3,19.3-46.5,19.3C188.8,302.2,172.4,294.8,160.5,282.9z"/>
	<path d="M244.9,198.6c-9.7-9.7-23.1-15.7-37.9-15.7c-14.8,0-28.2,6-37.9,15.7s-15.7,23.1-15.7,37.9c0,14.8,6,28.2,15.7,37.9
		c9.7,9.7,23.1,15.7,37.9,15.7c14.8,0,28.2-6,37.9-15.7s15.7-23.1,15.7-37.9C260.5,221.7,254.5,208.3,244.9,198.6z M243.5,273
		c-9.3,9.3-22.2,15.1-36.5,15.1s-27.2-5.8-36.5-15.1c-9.3-9.3-15.1-22.2-15.1-36.5s5.8-27.2,15.1-36.5s22.2-15.1,36.5-15.1
		s27.2,5.8,36.5,15.1s15.1,22.2,15.1,36.5C258.6,250.7,252.8,263.6,243.5,273z"/>
	<path d="M239.2,204.2c-8.2-8.2-19.6-13.4-32.2-13.4c-12.6,0-24,5.1-32.2,13.4c-8.2,8.2-13.4,19.6-13.4,32.2
		c0,12.6,5.1,24,13.4,32.2c8.2,8.2,19.6,13.4,32.2,13.4c12.6,0,24-5.1,32.2-13.4c8.2-8.2,13.4-19.6,13.4-32.2
		C252.6,223.9,247.5,212.5,239.2,204.2z M237.2,266.6c-7.7,7.7-18.4,12.5-30.2,12.5s-22.5-4.8-30.2-12.5s-12.5-18.4-12.5-30.2
		s4.8-22.5,12.5-30.2s18.4-12.5,30.2-12.5s22.5,4.8,30.2,12.5s12.5,18.4,12.5,30.2C249.7,248.2,244.9,258.9,237.2,266.6z"/>
	<path d="M207,211.3c-7,0-13.3,2.8-17.8,7.4c-4.6,4.6-7.4,10.9-7.4,17.8c0,7,2.8,13.3,7.4,17.8c4.6,4.6,10.9,7.4,17.8,7.4
		c7,0,13.3-2.8,17.8-7.4c4.6-4.6,7.4-10.9,7.4-17.8c0-7-2.8-13.3-7.4-17.8C220.2,214.1,214,211.3,207,211.3z M213.7,243.2
		c-1.7,1.7-4.1,2.8-6.7,2.8s-5-1.1-6.7-2.8s-2.8-4.1-2.8-6.7c0-2.6,1.1-5,2.8-6.7s4.1-2.8,6.7-2.8s5,1.1,6.7,2.8s2.8,4.1,2.8,6.7
		C216.5,239.1,215.5,241.5,213.7,243.2z"/>
</g>
</svg>
