<svg height="949" viewBox="0 0 960 949" width="960" xmlns="http://www.w3.org/2000/svg"><path d="m529 3c32.032515 0 58 25.9674845 58 58v216.408009c0 8.669881-1.915683 16.950361-5.375482 24.402561l-.233518.49343.077657.223647c1.937136 5.684967 3.010739 11.738181 3.087608 17.985295l.004439.721672c0 2.451259-.155397 4.900054-.465255 7.33165l-6.596461 51.765386c-2.288322 17.957487-12.631807 33.124604-27.122057 42.058552l-.377931.228798.002 379.911.391759.057178c10.242571 1.504533 19.728405 3.465132 28.14664 5.849226l.93095.266641c10.999194 3.186058 20.431429 7.149309 28.342429 12.400803 5.712122 3.791831 10.711993 8.290677 14.826066 13.905451 5.861903 8.000164 9.361156 17.611687 9.361156 28.140701 0 1.079478-.037699 2.156019-.11254 3.228038l-.05246.662962v12.917l.05246.663962c.05613.804014.091369 1.610572.10548 2.419005l.00706.809033c0 11.320176-4.016361 21.489789-10.608975 29.774254-4.480637 5.630495-9.85703 10.075382-15.99204 13.805194-8.564794 5.20701-18.890493 9.137202-30.944828 12.236893-21.009141 5.402361-47.960512 8.333659-76.370644 8.333659-28.047321 0-54.676537-2.857277-75.56412-8.128207-11.876794-2.99708-22.099432-6.790339-30.612677-11.763753-5.967179-3.48601-11.239646-7.612606-15.730226-12.797396-4.542812-5.245096-8.0447-11.323502-10.066656-18.115462l-.004834-.017182-.060087-.174706c-1.26016-3.779695-1.97155-7.810494-2.039539-11.997968l-.005374-.662469v-20.7c0-2.426383.216065-4.802391.630019-7.10981l.026981-.141047.018878-.135961c1.127003-7.560267 4.078495-14.521607 8.377337-20.587635l.351498-.489872c4.076491-5.61156 9.037763-10.115151 14.707031-13.91297 7.847381-5.256928 17.193892-9.224128 28.090835-12.418537 8.537265-2.502676 18.220906-4.558619 28.714473-6.132686l.081948-.012339.001-379.578-.278632-.161053c-15.163041-8.956319-25.967332-24.646274-28.139329-43.208875l-.096886-.886089-5.264225-51.765386c-.883317-8.68603.206601-17.182519 2.941739-25.000232l.151333-.426365-.089257-.193384c-3.260363-7.139204-5.107072-15.025646-5.219307-23.275148l-.005436-.799459v-216.408009c0-32.0325155 25.967485-58 58-58zm-124.139945 883.797835.126867.257381c6.096831 11.822517 45.453848 20.944784 93.096591 20.944784 47.36887 0 86.547001-9.01769 92.988156-20.741169-6.002461 2.679826-13.344413 4.914152-21.919097 6.785536-19.01612 4.150177-44.084669 6.464254-70.683796 6.464254-26.599126 0-51.667676-2.314077-70.683795-6.464254-9.060739-1.977463-16.74503-4.360181-22.924926-7.246532zm125.297936-46.09253-.016392.282401c-1.091247 16.812622-15.073595 30.111432-32.162047 30.111432-17.157826 0-31.184278-13.407009-32.174699-30.31637-6.261436.506192-12.208216 1.154618-17.758441 1.926775-23.936542 3.882457-40.577045 10.468039-43.44016 18.089753 1.904408 10.955546 43.19939 19.709325 93.862524 19.709325 48.633994 0 88.635227-8.066615 93.445963-18.403745-1.431301-8.630146-20.471412-16.086992-48.116263-20.055735-4.348155-.523037-8.906423-.973739-13.640485-1.343836zm-20.15653-1.512699-.001461-427.985606h-24.252l.000949 427.661534.005381.366347c.001102.037439.002371.074836.003809.112191.003918.100118.009048.200421.015408.30033l-.015408-.30033c.251348 6.532974 5.626888 11.752066 12.221413 11.752066 6.5055 0 11.824705-5.079129 12.208442-11.488211l.014006-.327927.00287-.083712c-.06778-.002246-.135583-.004473-.203409-.006682zm16.290838-517.985445h-56.309254c-.759974 0-1.519185.04813-2.273074.144101-7.908624 1.006776-13.961841 7.00225-15.40166 14.423809l3.604689 35.448929.542382 4.256235c.315972 2.482085 1.12782 4.792453 2.328375 6.836711 3.17023 5.235295 8.917411 8.683054 15.403794 8.683054l10.812449-.001-.000409.111117c.13462-.004994.269581-.008658.404868-.010979l24.595541-.000138v-.1l9.964242.001c9.061419 0 16.710177-6.735929 17.855611-15.72466l5.383916-42.247054c-2.520814-6.897559-9.141161-11.821125-16.91147-11.821125zm-63.739864-25.480651-.00064 6.212765c.865823-.17173 1.743629-.314742 2.632537-.427901 1.591545-.202606 3.194324-.304213 4.798713-.304213h56.309254c2.328237 0 4.607568.209385 6.820192.610352l-.000368-5.945648c-1.22423.118976-2.465471.179859-3.720933.179859h-61.844828c-1.692775 0-3.359699-.110685-4.993927-.325214zm66.838755-252.6747859h-61.844828c-9.941125 0-18 8.0588745-18 18v196.9999999c0 9.941126 8.058875 18 18 18h61.844828c8.656355 0 15.885538-6.110453 17.609524-14.253337l-.000714-200.798387c0-9.0518948-6.681628-16.5432118-15.38191-17.8109775-.72919-.0909045-1.472627-.1372984-2.2269-.1372984z"/></svg>