<svg height="960" viewBox="0 0 960 960" width="960" xmlns="http://www.w3.org/2000/svg"><path d="m612.685639 62.6471744 41.684587 2.8432216c16.814916 1.1469115 31.106952 12.7106019 35.738209 28.915794l4.195132 14.679148c2.019611 7.066806 2.053139 14.553442.096902 21.638054l-3.176469 11.500059 227.737938 22.669177c20.251417 2.015783 35.725933 18.903555 36.038062 39.187608v585.009409c0 21.149478-16.464041 38.644004-37.574604 39.9264l-870.9999999 52.910355c-23.0028103 1.397345-42.4253961-16.881187-42.4253961-39.9264v-724c0-23.6575415 20.4206393-42.1465052 43.9618525-39.803313l393.1081475 39.127764.163691-.2653c5.124084-8.198756 13.197314-14.531484 23.098497-17.3123491l.584522-.1594709 134.807007-35.6999702c4.223902-1.1185856 8.602545-1.5375307 12.961922-1.2401864zm-568.478639 55.3732756.0005907 723.864501 870.7924093-52.901501v-584.287518l-359.928-35.826481v-.132001l-76.74-7.639.019.135001zm14.0005907 10.909345 21.9810559 2.188046 810.9454334 80.723392 18.018944 1.793648v565.928783l-18.787226 1.141333-810.9454335 49.265327-21.2127738 1.288686zm20 22.089689v658.987644l810.9454333-49.265326v-528.998925zm540.3514093-21.996034-5.752 25.092 33.391484.890794 6.940516-25.136794zm-57.703-13.465-85.699362 22.695971.342362 2.463029 79.573 7.921.000651-.283099 24.867349-4.168901zm38.974-10.321-18.544 4.911 15.687 23.533 3.599264-15.698157zm19.916-2.016.339 5.833 32.838.804-1.274769-4.460777z"/></svg>