<svg height="960" viewBox="0 0 960 960" width="960" xmlns="http://www.w3.org/2000/svg"><path d="m513.228868 55.7639369c21.215053 4.5228936 47.317877 21.0204072 83.84081 50.8032081l.226212.184117.438149.046367c32.261221 3.392926 63.98745 7.591456 95.178861 12.596512l4.065412.657407c89.989635 14.663687 156.876121 91.184024 159.371579 182.325831 1.367773 49.931373 2.384824 101.138548 3.051252 153.621722.972253 76.567916-3.27926 162.922071-12.72812 259.120085-5.745878 58.509752-47.380784 106.959376-103.783612 121.736663l-1.078313.33662c-19.551073 6.114918-35.511412 10.335543-48.326629 12.69023l-.708723.128896-.660687.117509c-15.342942 2.699458-37.568633 4.61423-67.402441 5.927627-1.475872.064973-2.949407.047956-4.41413-.049473l-.488598-.036996-3.164313.160049c-54.98014 2.733348-112.316379 4.398891-172.011055 4.997997l-4.267916.040979c-68.550701.628488-132.997355-4.442208-193.330184-15.252672-76.595091-13.723855-134.093898-77.701441-139.594968-155.351832l-.280497-4.00238c-4.373116-63.159671-6.558067-128.517371-6.558067-196.07438v-11.774034c.070712-63.047988.652924-129.09529 1.747737-198.115351.921182-58.138893 31.246888-110.825402 79.372465-141.167431l.035798-.023945.050383-.038869c2.011192-1.576445 4.192305-2.974114 6.526175-4.162698l.439386-.220401c1.082065-.534539 2.156904-1.062495 3.224532-1.583869l.443524-.216163.082069-.046631c.238291-.136726.496277-.284775.64863-.372139l.077733-.04456c1.54219-.883596 2.904281-1.653192 4.447525-2.505934 4.578171-2.529736 9.234669-4.944384 14.11584-7.254402 3.331962-1.576854 6.657039-3.049604 9.978794-4.404316 13.775183-5.617937 29.512025-10.32411 42.949717-13.541095l.159533-.037847 1.056104-.248258.156379-.036429c19.875543-4.588038 48.03217-7.444328 85.371494-8.9003304 2.088346-.0814326 4.15723.0007556 6.191422.2375278l.27776.0334134 1.450453-.0736871c1.711682-.0791169 3.42881-.1328442 5.152086-.1610941l1.725353-.0197542 4.633384-.0253501c1.754363-.0077496 3.508359-.0133975 5.261989-.0169437l1.348735-.0011708.255151-.1237175c14.83937-7.2380594 27.597641-14.2590668 38.205945-20.9916282l.811782-.5173193.864504-.5554051c32.911495-21.2350634 58.931203-25.6240122 95.563596-17.8142548zm-230.829977 86.4016651-.366407.06997c-2.454513.457035-4.76129.934747-6.920332 1.433136l-1.056104.248259c-.607321.145393-1.286275.310994-2.029242.496081l-.764021.191556c-7.847941 1.979977-21.843038 5.884469-34.363995 10.990895-11.459915 4.673701-21.675247 10.640203-24.966173 12.524098l-.356997.203678c-.215954.122621-.387352.218475-.511401.284915-1.507504.731836-3.031907 1.478455-4.573209 2.239858l.02547.311914c-37.833365 22.24988-63.426691 63.104557-64.170873 110.072377-1.093469 68.935343-1.672365 134.777509-1.742717 197.526497v11.729187c0 66.649968 2.154176 131.087112 6.46253 193.311433l.278153 3.968744c4.205078 59.35668 48.17475 108.280712 106.747468 118.775425 21.468089 3.846662 43.510355 6.937245 66.1268 9.271736-59.40187-19.596844-101.768632-74.988327-102.891756-139.84037-1.148799-66.335706-1.723195-132.820016-1.723195-199.452919 0-67.459597.588738-138.486787 1.766094-213.082365.794931-50.378252 26.367161-94.662613 65.029907-121.274105zm99.024994-6.402506-4.292315.002695c-.369407.000598-.73883.00129-1.108271.002078l1.107991-.002104c-.873159.001413-1.746413.003356-2.619763.005831l1.511772-.003727c-1.64281.003502-3.285958.008884-4.929442.016143l-4.591038.025141-1.891047.025793c-.164403.003419-.328731.007143-.492984.011172-.599219.014721-1.19797.033489-1.795691.056292l1.795691-.056292c-.618219.015163-1.235373.034641-1.851433.058404l.055742-.002112c-.662416.025271-1.323568.055497-1.98342.090641l1.927678-.088529c-.785364.030294-1.56895.067553-2.350697.111717l.423019-.023188c-.676928.036054-1.352487.077285-2.026639.123654l1.60362-.100466c-.645822.036485-1.29039.077682-1.933668.123559l.330048-.023093c-.717018.049317-1.432444.104447-2.146231.165342l1.816183-.142249c-.782032.055772-1.562159.118459-2.34032.188l.524137-.045751c-.632791.053986-1.264295.112503-1.894478.175519l1.370341-.129768c-.647003.057821-1.292647.12038-1.936897.187643l.566556-.057875c-64.940057 6.493758-115.855977 60.763542-116.905843 127.297765-1.175728 74.49289-1.763596 145.415136-1.763596 212.766741 0 62.360236.503964 124.589766 1.511892 186.68859l.208305 12.418022c1.140229 65.839755 51.329896 120.428444 116.842379 127.083375 57.851821 5.877204 118.129959 8.525428 180.834426 7.94454 67.695713-.627127 128.165592-3.832214 181.409638-9.615261l1.876224-.204975c5.095245-.560915 10.0724-1.500404 14.90308-2.789746.242799-.06523.485537-.131003.7279-.197658l-.7279.197658c.427856-.114198.854563-.23114 1.280101-.350807l-.552201.153149c.385401-.105993.769855-.214218 1.153347-.32466l-.601146.171511c.436653-.122793.872076-.248454 1.306246-.376962l-.7051.205451c.449413-.129426.897505-.261896 1.344253-.397386l-.639153.191935c.393344-.116425.785661-.235186 1.176934-.356268l-.537781.164333c.408449-.123875.815774-.250275 1.221957-.379182l-.684176.214849c.430364-.133179.859465-.269166 1.287283-.407939l-.603107.19309c.419685-.133191.838152-.269059 1.255379-.407583l-.652272.214493c.452065-.146638.902698-.296388 1.351872-.449224l-.6996.234731c.391722-.130055.782352-.262452 1.171874-.397173l-.472274.162442c.404264-.137554.807346-.277608 1.20923-.420144l-.736956.257702c.563508-.194897 1.124698-.39466 1.683519-.599237.266556-.097161.53194-.195604.796783-.295132l-.796783.295132c.494579-.18106.987302-.365891 1.478136-.554459l-.681353.259327c.384505-.144497.767869-.291281 1.150074-.440335l-.468721.181008c.373468-.143479.745842-.289121 1.117108-.436911l-.648387.255903c.416754-.162528.832132-.327755 1.246111-.495661l-.597724.239758c.432007-.171971.862513-.34685 1.291494-.524614l-.69377.284856c.377449-.153089.753736-.308405 1.128845-.46593l-.435075.181074c.376946-.156201.752715-.31463 1.12729-.47527l-.692215.294196c.422596-.177468.843697-.35774 1.263279-.540795l-.571064.246599c.405478-.173894.809558-.350378 1.212218-.529432l-.641154.282833c.366864-.160054.732566-.322235 1.097093-.486528l-.455939.203695c.389634-.173262.777938-.34893 1.164896-.526986l-.708957.323291c.421302-.18988.841032-.382581 1.259168-.578078l-.550211.254787c.368086-.169373.734952-.340906 1.100583-.514584l-.550372.259797c.41401-.193568.826457-.389877 1.237319-.588905l-.686947.329108c.400363-.190175.799245-.382922 1.196625-.578218l-.509678.24911c.374698-.181509.748077-.365279 1.12012-.551293l-.610442.302183c.384789-.189109.768169-.380609 1.150122-.574481l-.53968.272298c.43397-.216975.866121-.437002 1.296426-.660054l-.756746.387756c.688538-.349487 1.372436-.706681 2.051585-1.07147.053599-.02837.10682-.057019.160012-.085714l-.160012.085714c.24279-.130409.484972-.261789.726543-.394134l-.566531.30842c.391286-.21109.780989-.424704 1.169087-.640819l-.602556.332399c.383464-.210081.765385-.422595 1.145743-.637521l-.543187.305122c.378257-.210635.754991-.423647 1.13018-.639015l-.586993.333893c.343868-.194307.686459-.390585 1.027757-.588819l-.440764.254926c.396049-.227343.790378-.457311 1.182964-.689882l-.7422.434956c.365864-.212503.730243-.427253 1.093118-.644233l-.350918.209277c.355483-.210591.709536-.423316 1.062142-.638157l-.711224.42888c.401844-.240281.801844-.483296 1.199975-.729019l-.488751.300139c.341668-.208176.681976-.418339 1.02091-.630473l-.532159.330334c.360087-.222242.718645-.4467 1.075655-.673355l-.543496.343021c.394484-.246902.787106-.496473 1.177842-.74869l-.634346.405669c.370289-.235085.738913-.472532 1.105851-.712322l-.471505.306653c.327842-.21162.654357-.425101.979528-.64043l-.508023.333777c.34869-.227864.695858-.457843 1.041485-.689919l-.533462.356142c.889442-.58899 1.768837-1.191798 2.637883-1.808123.113046-.080588.226328-.161282.339433-.242205l-.339433.242205c.346058-.245423.690474-.492989 1.033231-.742679l-.693798.500474c.384106-.274818.766171-.552284 1.146168-.832374l-.45237.3319c.336667-.245254.671733-.492557 1.005179-.741891l-.552809.409991c.386405-.284812.770672-.572337 1.152773-.862545l-.599964.452554c.322196-.240921.64288-.483738.962036-.728435l-.362072.275881c.331228-.251571.660829-.505158.988784-.760744l-.626712.484863c.33543-.257176.669173-.516427 1.001209-.777737l-.374497.292874c.34488-.268776.68794-.539762 1.02916-.812937l-.654663.520063c.33765-.265727.673535-.533582 1.007635-.803544l-.352972.283481c.317309-.254034.633028-.50996.947138-.767763l-.594166.484282c.319929-.258512.638222-.518956.954861-.781316l-.360695.297034c.317849-.260872.634052-.523666.94859-.788363l-.587895.491329c.38366-.317891.764892-.638594 1.143665-.962077l-.55577.470748c.698822-.588086 1.389429-1.18557 2.071632-1.792259.249248-.221245.497274-.444042.744169-.668057l-.744169.668057c.533068-.474061 1.061004-.953742 1.583718-1.438952l-.839549.770895c.302871-.274802.60404-.551438.903492-.829889l-.063943.058994c.215783-.200301.430677-.401544.644674-.603722l-.580731.544728c.323668-.30097.645329-.604061.964961-.909252l-.38423.364524c.293227-.277033.584772-.555823.874617-.836353l-.490387.471829c.307715-.293812.61355-.58957.917485-.887255l-.427098.415426c.307601-.297716.613287-.597391.917041-.899005l-.489943.483579c.306641-.300335.611349-.602631.914103-.906867l-.42416.423288c.287516-.285492.573299-.572722.857333-.861673l-.433173.438385c.315194-.316737.628271-.635578.939209-.9565l-.506036.518115c.296632-.301766.591356-.605409.884154-.910911l-.378118.392796c.296615-.306141.591284-.614175.883987-.924083l-.505869.531287c.306337-.319628.610565-.641291.912662-.964965l-.406793.433678c.284114-.300815.566375-.603396.846766-.907724l-.439973.474046c.283235-.303465.564598-.608698.844069-.915682l-.404096.441636c.261541-.283869.521455-.569259.779727-.856156l-.375631.41452c.703365-.772606 1.394752-1.556298 2.073878-2.350789.150769-.175975.300694-.352605.450014-.529763l-.450014.529763c.259154-.303178.516523-.607927.77209-.914233l-.322076.38447c.269697-.319977.537419-.641674.803146-.965072l-.48107.580602c.29788-.35702.593312-.716153.886272-1.077376l-.405202.496774c.253377-.308367.504941-.618281.754676-.929727l-.349474.432953c.269087-.331787.536088-.665336.800984-1.000627l-.45151.567674c.289638-.361208.576817-.724476.861511-1.089779l-.410001.522105c.237534-.300659.473375-.602719.707509-.906167l-.297508.384062c.268445-.344452.534681-.690713.798687-1.038762l-.501179.6547c.274067-.355202.545796-.712304.815163-1.071284l-.313984.416584c.255351-.336638.508616-.674949.759777-1.014913l-.445793.598329c.255617-.340656.509107-.683002.760452-1.02702l-.314659.428691c.245837-.332759.489658-.667103.731446-1.003013l-.416787.574322c.25691-.351635.511578-.705016.763984-1.060123l-.347197.485801c.290716-.403886.578491-.810036.863296-1.21842l-.516099.732619c.612069-.861112 1.210834-1.73237 1.796005-2.613479.112824-.169482.225125-.339704.336918-.510289l-.336918.510289c.212316-.319691.422842-.640679.631565-.962949l-.294647.45266c.245071-.373954.487703-.749657.727876-1.127086l-.433229.674426c.242212-.373979.481995-.749684.719327-1.127095l-.286098.452669c.214857-.337646.427745-.676674.638648-1.017067l-.35255.564398c.246829-.392512.491006-.786868.732508-1.183044l-.379958.618646c.236034-.380954.469582-.763619.700622-1.147972l-.320664.529326c.216713-.35551.431271-.712485.643657-1.070907l-.322993.541581c.204322-.339905.406682-.68113.607066-1.02366l-.284073.482079c.217601-.367221.43292-.735961.645941-1.106201l-.361868.624122c.222521-.380373.442605-.762355.66023-1.145924l-.298362.521802c.208657-.362655.415108-.72675.619334-1.092265l-.320972.570463c.229339-.404215.455947-.810194.6798-1.217911l-.358828.647448c.207098-.370652.411908-.742766.614413-1.116321l-.255585.468873c.194944-.355063.387798-.711443.578546-1.069126l-.322961.600253c.331554-.61161.656927-1.227084.976037-1.846341.265248-.51434.526157-1.031664.782692-1.551552.099485-.202004.1987-.404799.297249-.60798l-.297249.60798c.191544-.38818.38065-.777789.567298-1.168809l-.270049.560829c.202877-.418274.402932-.838184.600141-1.259706l-.330092.698877c.181049-.379291.359785-.75991.53619-1.141836l-.206098.442959c.157035-.335652.312266-.672326.465679-1.010009l-.259581.56705c.194675-.421481.386511-.844555.575484-1.269199l-.315903.702149c.177114-.38985.351807-.781045.524059-1.173566l-.208156.471417c.163953-.368421.325751-.738023.485379-1.108791l-.277223.637374c.178329-.406369.354043-.814159.52712-1.22335l-.249897.585976c.184454-.428432.36601-.858421.544643-1.289941l-.294746.703965c.165385-.391004.328362-.783286.488914-1.176829l-.194168.472864c.158802-.383614.315294-.768438.46946-1.154455l-.275292.681591c.166941-.409201.331259-.819765.492933-1.231669l-.217641.550078c.158893-.397854.315315-.796977.469246-1.197347l-.251605.647269c.35884-.91423.70466-1.835068 1.037235-2.762286.255472-.711878.502972-1.427443.742566-2.146665.061108-.183822.121775-.367722.181926-.551859l-.181926.551859c.133591-.40102.264723-.803176.39338-1.206451l-.211454.654592c.131895-.403767.261303-.808673.388206-1.214699l-.176752.560107c.132574-.415555.26252-.832297.389817-1.250209l-.213065.690102c.129316-.413746.25603-.828654.380123-1.244707l-.167058.554605c.133356-.437804.263806-.87689.391327-1.317237l-.224269.762632c.125124-.419506.247584-.840176.36736-1.26199l-.143091.499358c.119642-.413138.236706-.827386.351174-1.242725l-.208083.743367c.121597-.428222.240428-.857624.356473-1.288184l-.14839.544817c.113158-.410585.223779-.822236.331845-1.234935l-.183455.690118c.117846-.43724.232819-.875675.344898-1.315283l-.161443.625165c.147275-.562433.289804-1.126813.427545-1.693095l-.266102 1.06793c.114763-.450135.226491-.901499.335163-1.35407.131324-.546912.258184-1.095586.38054-1.645982.059847-.268836.11858-.538291.176231-.808152l-.176231.808152c.100869-.453742.198676-.908654.293399-1.364714l-.117168.556562c.091593-.428736.180457-.8585.266574-1.28927l-.149406.732708c.087988-.423629.173315-.848248.255963-1.273839l-.106557.541131c.089769-.449038.176552-.899171.260329-1.350377l-.153772.809246c.085882-.442245.168871-.88554.248947-1.329863l-.095175.520617c.079998-.430854.157254-.862687.23175-1.295479l-.136575.774862c.081768-.453709.160498-.908491.236169-1.364324l-.099594.589462c.073544-.427258.144398-.855452.212543-1.284563l-.112949.695101c.073246-.441217.143625-.883419.211119-1.326586l-.09817.631485c.080565-.507313.157345-1.015909.230311-1.525756l-.132141.894271c.063827-.419091.125074-.839046.183723-1.259846l-.051582.365575c.064721-.452233.12644-.90545.185138-1.359632l-.133556.994057c.062852-.450951.122722-.902874.179589-1.355748l-.046033.361691c.051855-.401237.101353-.803226.148477-1.205953l-.102444.844262c.070443-.560995.136278-1.123449.197467-1.687323.037112-.341633.07248-.683807.106133-1.026493l.003371-.039216.274453-2.802363c9.117386-93.661729 13.204795-177.615608 12.262024-251.861658-.400344-31.528318-.927635-62.591557-1.581858-93.189717-.430849-20.149726-.916737-40.097928-1.457677-59.844441-1.970051-71.954503-54.775167-132.365327-125.819618-143.941929l-3.870404-.625994c-.341516-.054821-.683099-.109544-1.024749-.164168-.900453-.144008-1.801206-.287263-2.702426-.429832l2.702426.429832c-1.343309-.214773-2.687657-.428019-4.033044-.639738l1.330618.209906c-1.275039-.201705-2.551012-.402038-3.827919-.600997l2.497301.391091c-1.32234-.208092-2.645684-.414708-3.970032-.61985l1.472731.228759c-1.379635-.214966-2.76036-.42833-4.142177-.640091l2.669446.411332c-1.157199-.17925-2.315164-.357374-3.473896-.534371l.80445.123039c-1.213474-.185963-2.42779-.37069-3.642947-.554181l2.838497.431142c-1.473844-.225132-2.948929-.448441-4.425254-.669928l1.586757.238786c-1.116719-.168627-2.234149-.33621-3.352289-.502749l1.765532.263963c-1.334906-.200271-2.670827-.399052-4.007762-.596343l2.24223.33238c-1.517418-.226009-3.036145-.450096-4.556181-.672261l2.313951.339881c-1.130985-.166899-2.262696-.332732-3.395133-.497499l1.081182.157618c-1.233212-.180244-2.467285-.359222-3.70222-.536935l2.621038.379317c-1.380819-.200906-2.762717-.400227-4.145693-.597963l1.524655.218646c-2.715836-.390822-5.43584-.775526-8.160012-1.154111-.821929-.114157-1.644279-.22783-2.467008-.340945-.804943-.110745-1.610394-.220903-2.416208-.330528l2.416208.330528c-1.131265-.155535-2.263247-.310017-3.395945-.463445l.979737.132917c-1.274611-.173402-2.550132-.345469-3.826561-.516201l2.846824.383284c-1.539254-.208498-3.079831-.415051-4.621733-.619658l1.774909.236374c-1.182324-.158146-2.365428-.315146-3.549313-.471001l1.774404.234627c-1.306494-.173369-2.61394-.345341-3.922336-.515917l2.147932.28129c-1.384959-.182327-2.770986-.363086-4.15808-.542279l2.010148.260989c-1.204268-.157-2.409341-.312818-3.615219-.467452l1.605071.206463c-1.387582-.179256-2.776233-.356943-4.165952-.533063l2.560881.3266c-1.271617-.163064-2.544129-.324812-3.817537-.485244l1.256656.158644c-1.211454-.153529-2.423719-.305865-3.636797-.457011l2.380141.298367c-1.323048-.166687-2.647064-.331953-3.972046-.495799l1.591905.197432c-1.537464-.191562-3.076232-.381211-4.616305-.568947l3.0244.371515c-1.247876-.154311-2.49661-.307362-3.746202-.459153l.721802.087638c-1.186187-.144596-2.373147-.288057-3.560882-.430383l2.83908.342745c-1.378757-.167482-2.758559-.33343-4.139404-.497844l1.300324.155099c-1.495575-.179215-2.992376-.356629-4.490405-.532243l3.190081.377144c-4.759308-.566679-9.531019-1.115139-14.315132-1.645378-.308998-.034619-.619038-.068904-.92913-.103112l.92913.103112c-2.421495-.268383-4.846167-.532097-7.274016-.791144-.54905-.059049-1.098027-.117376-1.647168-.175464l1.647168.175464c-1.404014-.149805-2.809091-.29805-4.21523-.444733l2.568062.269269c-1.136348-.120203-2.273393-.239386-3.411134-.357547l.843072.088278c-1.218851-.127146-2.438501-.253119-3.658949-.37792l2.815877.289642c-1.305142-.135548-2.6112-.269752-3.918175-.402613l1.102298.112971c-17.567863-1.79645-35.301158-3.349866-53.199888-4.660239-49.323305-3.610978-98.95887-5.48239-148.906696-5.614234zm169.736823 39.002614c52.412269 3.460591 103.374216 8.828013 152.888155 16.104767 27.084474 3.980301 44.797983 14.00634 64.878473 34.72481 18.926997 19.528331 33.699762 51.996895 34.767489 78.105187l.020065.583524.108811 1.530899c3.924447 56.115569 6.114905 99.168737 6.569645 129.216218l.013378.915758c.046002 3.267247.095604 6.599879.154493 10.412887.420747 27.243069.573305 37.71651.584972 46.613547v4.136492c-.012441 2.382268-.029346 4.824292-.052611 7.629894-.01945 2.345551-.04736 4.681175-.084215 7.012964l-.033791 1.997879c-.066008 3.661578-.154444 7.317983-.267188 10.992858l-.063918 2.006451c-.862571 26.111366-2.964503 53.36749-6.975633 90.197194-.68287 6.271262-4.305983 19.763885-9.190408 32.328725-7.059573 18.160255-16.26225 34.056451-27.797742 45.764072-10.625196 10.783741-24.594436 18.395143-40.577788 23.49956-10.400066 3.321349-20.161695 5.145864-28.028408 5.928421l-1.853382.182608c-22.06177 2.160894-39.21234 3.642354-56.255536 4.675744l-2.493917.148056c-23.695528 1.376655-47.636439 1.909102-84.730773 2.21902-33.390367.278971-63.48585-.877112-98.159072-3.48728-3.952099-.297511-7.101188-.536037-10.179812-.779403l-.802002-.063638-.601143-.048024c-.100243-.008033-.200531-.01608-.300887-.024145l-.603169-.048621c-9.569727-.773756-20.220698-1.747065-53.730245-4.817267-25.81216-2.364768-58.926012-16.664029-75.472639-32.894923-9.905386-9.716378-15.837767-16.435587-20.703967-24.193873-6.150939-9.806574-9.497662-20.102706-9.849954-31.687738l-.01083-.435361-.168091-2.279037c-6.04234-82.026988-9.095902-141.669613-9.157909-179.048661v-6.511879c.013158-31.986928.142694-51.263068.617858-69.747027l.039837-1.517691c.027084-1.010931.055224-2.020464.084458-3.03056l.044676-1.515812c.113766-3.791809.243181-7.605318.390225-11.543931 1.302342-34.883479 3.890938-66.345676 8.284308-97.080516 3.913015-27.3744 13.455079-48.829297 30.768948-64.300271 18.976523-16.956655 44.388287-26.669815 71.445529-26.833447l4.550489-.022474.009631-.000042c54.350132-.216073 108.324755 1.44515 161.92359 4.984086zm-161.84408 15.015756.009631-.000043-4.539398.022412c-22.189716.1342-42.901189 8.050764-58.229249 21.747299-13.347481 11.92677-20.995071 29.122027-24.296343 52.216842-4.286568 29.987684-6.819111 60.768605-8.09698 94.99656-.077439 2.07422-.149932 4.113877-.217774 6.134537l-.050015 1.512176c-.040959 1.257584-.080131 2.509267-.117588 3.758849l-.044129 1.498734c-.021658.749106-.042708 1.498003-.063167 2.247512l-.040133 1.500077-.015702.604081-.030659 1.210042c-.44244 17.768445-.568333 36.549688-.582591 67.125149l-.000443 7.511231c.061283 37.156946 3.156125 97.234848 9.288355 180.109182.013419.181353.021889.363039.0254.544853.289034 14.967455 6.704178 25.195257 24.581328 42.731286 13.117511 12.867211 41.900328 25.29624 63.292098 27.256036 46.876132 4.294871 48.871451 4.472681 65.893872 5.754113 34.14686 2.570545 63.693911 3.705561 96.490646 3.431549 64.501516-.538901 88.502743-1.737956 141.691973-6.947703l1.838303-.18112c6.563246-.652896 14.991858-2.228261 23.914407-5.077752 13.146089-4.198314 24.359601-10.308205 32.415737-18.484552 9.340407-9.479781 17.246984-23.137165 23.403172-38.973527 4.293787-11.045464 7.474646-22.891117 7.949001-27.247439 4.168023-38.270281 6.236333-65.902504 6.992652-92.733933l.0524-1.938365c.108628-4.197363.185536-8.380896.233751-12.588397l.020414-1.963823.008669-.98348c.021694-2.616246.037756-4.912581.046022-7.145162l.00598-.742184v-3.337915c-.008211-8.876272-.158201-19.196159-.582666-46.679984-.05902-3.821466-.108753-7.162893-.154896-10.440171-.421599-29.944169-2.639834-73.542339-6.656539-130.734254-.009276-.13208-.015928-.264331-.019952-.396675-.640738-21.072705-13.405632-49.32142-29.166402-65.582929-17.188526-17.734625-31.021546-25.564265-53.42494-28.856641-48.979637-7.19823-99.411302-12.509802-151.297823-15.93568-53.132356-3.508136-106.640986-5.155016-160.526422-4.940791zm9.278016 25.540871-.087798-.001597 1.88552.0171c63.154774.588114 112.052851 2.006376 146.745877 4.260825l1.057594.069275c51.207672 3.381057 100.975719 8.620954 149.30992 15.724331 16.201496 2.380953 26.57338 8.588652 39.107896 21.521407 12.525278 12.923225 23.658049 35.103204 24.147856 51.212085.011905.391518.841482 23.320592 1.629745 45.669978l.070458 1.999273c.363223 10.315217.712112 20.358606.961584 27.840372.320455 9.610598.61729 18.847601.889245 27.714862 1.13584 37.034738 1.78405 65.769958 1.809524 83.964357l.000781 9.222943c-.010391 17.935136-.055979 27.969035-.206923 36.593654l-.013198.735954c-.013459.732804-.027707 1.456618-.042788 2.175529l-.01536.717427c-.015641.716097-.03213 1.428653-.04951 2.141757l-.019527.786668-.010038.393881-.020636.789618c-.028014 1.054878-.058042 2.119059-.090223 3.205531-.038722 1.307304-.080616 2.614781-.125979 3.927505l-.046531 1.314661c-.532749 14.704106-1.510398 30.273304-3.345941 53.77161-.331782 4.247414-2.573095 12.325293-5.785176 20.066536-4.425614 10.665906-10.391858 20.398716-17.992271 28.112542-6.411771 6.507446-15.408104 11.54177-25.930761 15.416751-7.157558 2.635779-15.00857 4.623518-18.798878 5.000568l-.147128.013539c-50.844784 4.3003-97.882226 6.632145-141.117199 6.993367-32.377948.270514-61.558423-.864695-95.32287-3.425359-1.047206-.079419-2.074821-.158019-3.090461-.236446l-.867794-.067196c-.432609-.033592-.863417-.067186-1.293026-.100833l-.857795-.06738c-.428275-.03374-.855749-.067567-1.283023-.101532l-.854458-.068129-1.194419-.095932c-11.161774-.900294-22.838212-1.949451-45.65229-4.048577-4.701663-.432601-6.819434-.627249-9.478678-.870894-17.607912-1.61314-35.118108-10.82087-49.865699-26.942756-7.351735-8.036826-12.725267-19.55645-16.746878-33.274565-2.399051-8.183401-4.285766-17.602368-4.493411-20.408594-2.47091-33.393255-3.695882-56.381932-4.169458-78.913839l-.033713-1.668344c-.021569-1.111872-.041335-2.22323-.059358-3.33527l-.033861-2.233912c-.073628-5.216279-.109878-10.465142-.114873-15.869751l-.000245-2.326156c.004626-6.619827.054048-13.495243.137303-20.846762.029259-2.583625.037676-3.333906.051132-4.577392.067153-6.206111.101179-10.769559.106017-15.327551l.000604-1.140332.000574-7.176154-.000193-1.430551c-.00033-.631032-.000987-1.256401-.001988-1.87888l-.001761-.931898-.002196-.895854c-.002444-.895427-.005637-1.790506-.009628-2.693613l-.004258-.906093c-.033951-6.820422-.113607-14.249472-.258794-25.820923-.143117-11.40646-.217446-18.015834-.252897-23.933512l-.004316-.752007-.003909-.74639c-.009889-1.984572-.019244-3.929474-.019244-5.996673-.046599-37.180295 1.554148-66.075378 6.166016-98.33878 1.93279-13.521284 14.424468-34.915585 25.376063-44.701491 12.72385-11.369521 32.18205-19.640391 50.36365-19.221988zm-37.037504 34.135534c-7.610228 6.800194-17.677629 24.042475-18.90346 32.618062-4.460008 31.201028-6.010251 59.184457-5.964764 95.483043 0 1.787585.007897 3.483929.015587 5.19676l.003488.735394c.031295 6.264769.105154 12.952553.259716 25.271127.148465 11.832677.228846 19.366278.261987 26.347969l.004057.907833c.000632.150887.001242.30159.00183.452147l.0034.940238.004065 1.407829.002037.939921c.001477.784451.002408 1.572586.002822 2.36986l.000194 1.446139-.000574 7.173752-.000612 1.159583c-.004901 4.633636-.039368 9.2569-.10718 15.523896-.013506 1.248182-.021942 2.000115-.051243 4.587478-.082225 7.260538-.131201 14.044336-.13602 20.571758l.000151 2.293509c.003545 4.007686.024524 7.926954.065531 11.810175l.020358 1.789886c.30518 25.027917 1.463185 48.887158 4.173482 85.705884l.08679 1.164788c-.00209-.034928-.002958-.055186-.003337-.067683l-.000599-.021479.019587.124536c.0258.167975.056554.361618.091561.575394l.036399.220282c.174908 1.04941.400371 2.281573.672065 3.63794.763917 3.81367 1.741464 7.872767 2.935205 11.944736 3.237985 11.04509 7.461763 20.099904 12.311723 25.40182 11.49188 12.562783 24.461231 19.382712 36.933299 20.525334 2.662713.243963 4.782216.43877 9.486421.871605 22.667147 2.085607 34.28427 3.129585 45.3291 4.021169l2.11971.169814c2.400599.190858 4.805918.377185 7.324431.568186 33.235423 2.520543 61.864406 3.634297 93.643341 3.368788 42.705357-.356797 89.239904-2.663712 139.598768-6.922914l-.10461.00831.031847-.003209c.572403-.071499 2.221167-.402263 4.165015-.886683l.279615-.070237c2.966198-.750989 6.181611-1.735176 9.348361-2.901335 8.004572-2.947693 14.61715-6.648075 18.595583-10.685873 5.598164-5.681699 10.254017-13.27685 13.765847-21.740501 1.373609-3.310455 2.496839-6.58633 3.314256-9.532367.599635-2.161134.966543-3.940009 1.004562-4.426724 1.814985-23.23512 2.776078-38.536293 3.297714-52.922352l.04555-1.286045c.044397-1.283971.085369-2.562284.123214-3.839979.015768-.532346.03101-1.059382.045742-1.582715l.021718-.782424.020966-.778073c.003433-.129383.006835-.258636.010206-.387782l.019863-.773807c.0065-.257646.01288-.515069.019143-.77247l.036177-1.545743c.211931-9.43235.272092-19.371332.285153-39.615794l-.000309-9.916211c-.025342-17.938371-.670208-46.525332-1.800128-83.367064-.271381-8.848527-.567649-18.067895-.887536-27.661458-.802981-24.081757-2.643761-74.913938-2.663657-75.568291-.322097-10.593179-9.205409-28.291531-18.51862-37.900636-9.712367-10.020942-16.346264-13.991411-27.654362-15.653235-47.799653-7.024818-97.03744-12.208886-147.719588-15.555245-34.65721-2.28829-84.210041-3.725496-148.603619-4.305202l-.140042-.002241c-12.72028-.292725-27.414346 5.95311-36.577377 14.140827zm77.794535-142.26867-.927866.596202c-4.361291 2.79084-9.000731 5.598732-13.91833 8.423654 24.375374.493605 48.677643 1.401608 72.906551 2.72271-7.567017-6.19312-11.628462-13.26298-9.242546-16.670367 2.692636-3.8454219 12.57721-1.570006 22.077814 5.082283 5.957671 4.171539 10.349621 9.073623 12.132792 13.097881 4.763591.315815 9.524948.648147 14.283454.996519 5.408496.395958 10.80226.813893 16.181292 1.253805-21.70732-16.350101-37.6925-25.6189604-47.956243-27.8071151-24.84712-5.2972236-40.380582-3.9268732-65.536918 12.3044281z"/></svg>