<?xml version="1.0" encoding="utf-8"?>
<!-- Generator: Adobe Illustrator 20.0.0, SVG Export Plug-In . SVG Version: 6.00 Build 0)  -->
<svg version="1.1" id="Layer_1" xmlns="http://www.w3.org/2000/svg" xmlns:xlink="http://www.w3.org/1999/xlink" x="0px" y="0px"
	 viewBox="0 0 190.92 41.1" style="enable-background:new 0 0 190.92 41.1;" xml:space="preserve">
<style type="text/css">
	.st0{fill:#020204;}
</style>
<path class="st0" d="M170.77,23.89c0,2.37,0.47,4.11,1.42,5.24c0.95,1.13,2.14,1.7,3.58,1.7c1.45,0,2.64-0.56,3.57-1.67
	c0.93-1.11,1.4-2.9,1.4-5.36c0-2.3-0.47-4-1.41-5.13c-0.94-1.12-2.1-1.68-3.49-1.68c-1.47,0-2.68,0.57-3.64,1.7
	C171.25,19.84,170.77,21.57,170.77,23.89 M160.65,23.91c0-4.04,1.36-7.36,4.07-9.97c2.71-2.61,6.38-3.92,10.99-3.92
	c5.28,0,9.27,1.53,11.96,4.6c2.16,2.48,3.25,5.52,3.25,9.13c0,4.07-1.34,7.39-4.03,10c-2.69,2.59-6.41,3.89-11.16,3.89
	c-4.23,0-7.66-1.08-10.27-3.24C162.25,31.74,160.65,28.23,160.65,23.91z M127.94,10.63h9.43v4.3c1.41-1.76,2.82-3.02,4.26-3.77
	c1.44-0.75,3.19-1.14,5.26-1.14c2.8,0,4.98,0.83,6.56,2.5c1.58,1.66,2.37,4.24,2.37,7.72v16.79h-10.17V22.51
	c0-1.66-0.31-2.83-0.92-3.52c-0.61-0.69-1.47-1.03-2.57-1.03c-1.21,0-2.2,0.47-2.96,1.39c-0.75,0.93-1.14,2.59-1.14,5v12.68h-10.12
	V10.63z M111.36,10.63h10.12v26.4h-10.12V10.63z M111.36,0.61h10.12v6.87h-10.12V0.61z M87.27,23.73c0,2.28,0.42,3.93,1.28,4.95
	c0.85,1.03,1.92,1.53,3.23,1.53c1.2,0,2.22-0.5,3.04-1.51c0.82-1.01,1.23-2.7,1.23-5.07c0-2.09-0.4-3.64-1.2-4.61
	c-0.8-0.98-1.77-1.48-2.91-1.48c-1.37,0-2.49,0.51-3.36,1.53C87.7,20.1,87.27,21.65,87.27,23.73z M77.12,0.61h10.23v12.58
	c1.01-1.06,2.15-1.85,3.44-2.38c1.28-0.53,2.7-0.79,4.26-0.79c3.21,0,5.87,1.15,7.97,3.47c2.1,2.31,3.15,5.64,3.15,9.97
	c0,2.88-0.48,5.43-1.44,7.63c-0.96,2.2-2.29,3.84-3.99,4.93c-1.7,1.09-3.58,1.63-5.65,1.63c-1.77,0-3.4-0.38-4.87-1.14
	c-1.11-0.6-2.32-1.72-3.63-3.37v3.91h-9.48V0.61z M70.91,37.03h-9.45v-4.26c-1.41,1.76-2.82,3-4.25,3.75
	c-1.43,0.75-3.19,1.12-5.27,1.12c-2.78,0-4.95-0.83-6.54-2.5c-1.58-1.66-2.37-4.23-2.37-7.7V10.63h10.17v14.55
	c0,1.65,0.31,2.83,0.92,3.54c0.61,0.7,1.47,1.04,2.57,1.04c1.2,0,2.18-0.47,2.95-1.39c0.76-0.93,1.14-2.6,1.14-5.01V10.63h10.12
	V37.03z M25.16,25.92c0.9-1.6,1.35-4,1.35-7.2c0-3.67-0.69-6.29-2.05-7.87C23.08,9.28,21.2,8.5,18.79,8.5
	c-2.25,0-4.06,0.81-5.45,2.41c-1.4,1.6-2.09,4.11-2.09,7.52c0,3.98,0.68,6.77,2.03,8.37c1.37,1.6,3.23,2.41,5.6,2.41
	c0.76,0,1.48-0.08,2.16-0.22c-0.95-0.92-2.44-1.77-4.49-2.59l1.76-4.04c1,0.18,1.78,0.41,2.33,0.67c0.56,0.26,1.65,0.96,3.26,2.09
	C24.29,25.37,24.71,25.64,25.16,25.92z M33.78,31.69c1.4,0.97,2.31,1.59,2.75,1.84c0.64,0.36,1.51,0.79,2.59,1.27l-3.11,6.3
	c-1.57-0.76-3.13-1.66-4.66-2.71c-1.54-1.05-2.62-1.84-3.23-2.37c-2.48,1.08-5.6,1.62-9.34,1.62c-5.54,0-9.9-1.44-13.1-4.32
	C1.89,29.91,0,25.12,0,18.95C0,12.96,1.65,8.3,4.96,4.98C8.27,1.66,12.88,0,18.81,0c6.05,0,10.71,1.62,14,4.87
	c3.29,3.24,4.93,7.88,4.93,13.92C37.75,24.16,36.42,28.46,33.78,31.69z"/>
</svg>
