<?xml version="1.0" encoding="utf-8"?>
<!-- Generator: Adobe Illustrator 20.0.0, SVG Export Plug-In . SVG Version: 6.00 Build 0)  -->
<svg version="1.1" id="Layer_1" xmlns="http://www.w3.org/2000/svg" xmlns:xlink="http://www.w3.org/1999/xlink" x="0px" y="0px"
	 viewBox="0 0 301.15 548.08" style="enable-background:new 0 0 301.15 548.08;" xml:space="preserve">
<style type="text/css">
.fillpulse {
	animation: fillpulse 6s infinite;
}

@keyframes fillpulse {
	0%, 20%, 40%, 60%, 100% {
		fill: #FFFFFF;
	}
	10%, 30%, 50% {
		fill: #0078CC;
	}
}
</style>
<g>
	<polygon points="233.17,124.92 194.64,56.46 184.96,86.98 160.35,53.52 84.95,53.52 84.95,52.1 161.06,52.1 
		161.28,52.39 184.45,83.9 194.27,52.92 232.99,121.7 256.05,66.79 257.36,67.34 	"/>
</g>
<g>
	<rect x="162.08" y="53.98" width="32.37" height="1.42"/>
</g>
<g>
	<polyline points="8.35,251.38 87.01,255.13 86.94,256.55 6.31,252.7 	"/>
</g>
<g>
	
		<rect x="15.07" y="153.94" transform="matrix(0.3438 -0.939 0.939 0.3438 -64.1619 217.4769)" width="216.91" height="1.42"/>
</g>
<g>
	<path d="M124.25,415.72c-0.48-0.31-0.91-0.58-1.31-0.85c-1.81-1.18-3.11-2.03-6.68-3.55l0.56-1.3
		c3.69,1.57,5.03,2.45,6.9,3.67c0.4,0.26,0.82,0.54,1.29,0.84L124.25,415.72z"/>
</g>
<g>
	<polygon points="128.35,493.98 66.58,489.98 37.62,449.94 33.74,449.94 33.74,448.52 38.34,448.52 67.34,488.61 
		125.55,492.37 124.61,490.99 125.78,490.2 	"/>
</g>
<g>
	
		<rect x="36.63" y="446.47" transform="matrix(0.4023 -0.9155 0.9155 0.4023 -386.153 302.872)" width="4.49" height="1.42"/>
</g>
<g>
	
		<rect x="105.66" y="437.91" transform="matrix(0.8719 -0.4897 0.4897 0.8719 -203.8474 108.9706)" width="1.42" height="12.42"/>
</g>
<g>
	<polygon points="232.36,116.4 228.79,116.4 228.79,114.98 231.39,114.98 247.2,75 240.22,65.21 199.79,64.89 
		199.81,63.48 240.96,63.8 248.8,74.81 	"/>
</g>
<g>
	<polygon points="235.42,105.35 228.66,89.43 228.79,89.15 239.94,64.21 241.24,64.79 230.21,89.45 236.72,104.79 	"/>
</g>
<g>
	
		<rect x="220.84" y="81.41" transform="matrix(0.0178 -0.9998 0.9998 0.0178 128.3142 309.2183)" width="1.42" height="15.78"/>
</g>
<g>
	<path d="M82.62,164.9c-3.56,0-6.81-1.3-9.23-3.71c-5.38-5.37-4.87-14.64,1.15-20.67c6.01-6.03,15.29-6.57,20.67-1.2
		c2.62,2.61,3.94,6.21,3.71,10.13c-0.23,3.89-1.95,7.63-4.85,10.54s-6.64,4.64-10.53,4.88C83.22,164.89,82.92,164.9,82.62,164.9z
		 M85.96,137.04c-3.64,0-7.46,1.52-10.42,4.49c-5.46,5.48-5.98,13.85-1.15,18.67c2.33,2.32,5.54,3.48,9.05,3.27
		c3.54-0.22,6.95-1.8,9.61-4.47c2.66-2.66,4.23-6.08,4.44-9.62c0.2-3.51-0.96-6.72-3.29-9.04
		C91.99,138.12,89.04,137.04,85.96,137.04z"/>
</g>
<path d="M226.89,71.19c-2.94-3.67-8.66-3.98-12.75-0.7c-1.97,1.58-3.28,3.75-3.68,6.11c-0.41,2.39,0.15,4.7,1.59,6.48
	c1.43,1.79,3.56,2.84,5.98,2.96c0.16,0.01,0.31,0.01,0.47,0.01c2.24,0,4.46-0.8,6.3-2.27C228.89,80.5,229.83,74.85,226.89,71.19z
	 M223.91,82.68c-1.7,1.36-3.76,2.06-5.81,1.95c-2.01-0.1-3.77-0.96-4.95-2.43c-0.22-0.28-0.41-0.58-0.59-0.89
	c0.05-2.5,1.27-5.08,3.53-6.89c3.36-2.7,7.87-2.79,10.74-0.43C227.81,76.88,226.73,80.42,223.91,82.68z"/>
<g>
	<path d="M100.39,108.65c-1.7,0-3.34-0.6-4.57-1.83c-1.3-1.29-1.95-3.07-1.84-5.01c0.11-1.9,0.95-3.74,2.37-5.16
		c2.95-2.96,7.51-3.21,10.16-0.56c2.66,2.65,2.42,7.21-0.53,10.17C104.4,107.84,102.35,108.65,100.39,108.65z M101.94,95.67
		c-1.6,0-3.28,0.67-4.59,1.98c-1.17,1.18-1.87,2.68-1.96,4.24c-0.09,1.53,0.42,2.92,1.42,3.92c2.1,2.1,5.76,1.85,8.16-0.56
		s2.64-6.07,0.54-8.16C104.55,96.14,103.27,95.67,101.94,95.67z"/>
</g>
<path d="M91.19,187.54l-23.48-0.7L53.3,221.06l24.7,1.11l10.19-26.75h0L91.19,187.54z M77.04,220.71l-15.16-0.68l10.56-25.08
	l14.25,0.43L77.04,220.71z"/>
<g>
	<path d="M53.65,244.38c-1.98,0-3.89-0.7-5.32-2.13c-1.66-1.66-2.41-4.01-2.07-6.49c-3.3-5.25-7.39-11.22-11.7-17.53
		c-11.2-16.38-23.88-34.92-27.84-48.35C1.07,150.8-4.21,125.73,5,100.96c10.23-27.51,35.66-49,77.75-65.72
		c14.54-5.77,30.83-8.77,49.69-12.24c24.71-4.55,52.73-9.71,83.86-22.73L216.96,0l3.8,9.15l-0.65,0.27
		c-32.04,13.4-60.65,18.67-85.88,23.31c-18.37,3.38-34.22,6.3-47.83,11.7c-39.34,15.62-62.93,35.24-72.13,59.98
		c-8.19,22.02-3.27,45.06,1.93,62.67c3.52,11.92,15.74,29.78,26.52,45.55c3.71,5.42,7.21,10.54,10.3,15.32
		c2.87-0.85,5.82-0.19,7.79,1.78l0,0c3.09,3.08,2.81,8.4-0.63,11.85C58.33,243.43,55.94,244.38,53.65,244.38z M216.2,1.85
		c-31.01,12.88-58.89,18.01-83.5,22.54c-18.79,3.46-35.01,6.44-49.42,12.17c-41.7,16.55-66.87,37.78-76.95,64.89
		c-9.06,24.38-3.84,49.16,1.73,68.02c3.9,13.22,16.51,31.66,27.64,47.94c4.4,6.43,8.54,12.49,11.88,17.82l0.14,0.23l-0.04,0.27
		c-0.36,2.12,0.24,4.13,1.64,5.52c2.54,2.53,6.96,2.24,9.85-0.66c2.89-2.9,3.17-7.32,0.63-9.85l0,0c-1.7-1.7-4.33-2.18-6.85-1.27
		l-0.53,0.19l-0.31-0.48c-3.15-4.9-6.75-10.17-10.57-15.75c-10.84-15.85-23.13-33.82-26.71-45.95c-5.26-17.82-10.23-41.15-1.9-63.56
		c9.35-25.14,33.2-45.02,72.93-60.8c13.74-5.45,29.65-8.38,48.09-11.78c25-4.6,53.3-9.81,84.94-22.96L216.2,1.85z"/>
</g>
<g>
	<path d="M48.24,414.85c-1.8,1.81-2.88,4.14-3.02,6.56c-0.14,2.45,0.68,4.71,2.32,6.34c1.51,1.51,3.55,2.32,5.78,2.32
		c0.19,0,0.38-0.01,0.57-0.02c2.42-0.15,4.75-1.23,6.55-3.04c1.8-1.81,2.88-4.14,3.02-6.56c0.14-2.45-0.68-4.71-2.32-6.34
		C57.78,410.77,51.99,411.1,48.24,414.85z M62.06,420.39c-0.12,2.07-1.05,4.08-2.61,5.64c-1.56,1.56-3.56,2.5-5.64,2.62
		c-2.04,0.12-3.91-0.55-5.26-1.9c-0.34-0.34-0.63-0.71-0.89-1.1c-0.25-2.54,0.68-5.3,2.77-7.4c3.11-3.12,7.69-3.7,10.84-1.59
		C61.86,417.77,62.14,419.04,62.06,420.39z"/>
	<path d="M96.3,416.18c-1.64-1.64-3.89-2.46-6.35-2.31c-2.42,0.15-4.75,1.23-6.55,3.04c-1.8,1.81-2.88,4.14-3.02,6.56
		c-0.14,2.45,0.68,4.71,2.33,6.34c1.51,1.51,3.55,2.32,5.78,2.32c0.19,0,0.38-0.01,0.57-0.02c2.42-0.15,4.75-1.23,6.55-3.04
		c1.8-1.81,2.88-4.14,3.02-6.56C98.77,420.07,97.94,417.81,96.3,416.18z M97.21,422.44c-0.12,2.07-1.05,4.08-2.61,5.64
		c-1.56,1.56-3.56,2.49-5.64,2.62c-2.04,0.12-3.91-0.55-5.26-1.9c-0.3-0.3-0.57-0.64-0.8-0.99c-0.22-2.52,0.71-5.24,2.78-7.32
		c3.12-3.12,7.71-3.7,10.86-1.57C97.05,419.98,97.28,421.17,97.21,422.44z"/>
</g>
<g>
	<path d="M32.66,199.02c0.32,0.48,0.64,0.96,0.96,1.45L88.63,59.29h64.42L80.93,248.67l-64.96-2.93l13.89-35.65
		c-0.32-0.48-0.64-0.95-0.96-1.43l-14.96,38.4l67.95,3.06l72.85-191.3l0.37-0.96H87.66L32.66,199.02z"/>
	<path d="M258.13,65.09l-12.59,0.33l-3.74-4.58l-39.66,0.52l-5.34-8.61h-31.69l-3.21-3.47H82.35L28.49,192.57
		c0.93,1.48,1.89,2.96,2.87,4.46L85.3,53.54h74.75l3.21,3.47h31.18l5.36,8.64l40.01-0.53l3.76,4.61l11.99-0.32l40.98,80.5
		l-131.27,380.4l-2.51,6.38l-54.4-74.84l29.27-67.42l0.32-0.83l-42.08-68.6l13.56-34.45l0.88,0.04l-23.25-35.16l-1.18,0.78
		l21.72,32.84l-75.62-3.23l-22.22-33.6l17.85-45.49c-0.96-1.44-1.92-2.89-2.87-4.33L5.33,251.86l0.04,1.44l22.18,33.53l-15.01,33.4
		l48.08,69.36l-6.75,14.4l-8.82-0.44l-15.61,32.9l4.89,7.11l-2.91,6.08L92,534.29l5.89,0.6l-0.19-4.29l-3.36-0.34l-58-81.03
		l2.17-4.53L68.7,487.2l0.19,0.27l57.76,3.93l-21.1-29.21h1.31l54.45,74.91l-17.1-1.75l-1.7,4.1l22.81,2.34l3.93-10.01l131.6-381.34
		l0.29-0.85L258.13,65.09z M65.11,388.61l-47.05-67.88l76.61,5.01l41.19,67.15L65.11,388.61z M56.5,408.36l58.95,2.97l-12.56,26.64
		l-67.83-3.5l12.62-26.55L56.5,408.36L56.5,408.36z M107.93,290.48l-13.32,33.84l-76.99-5.04l14.4-32.04L107.93,290.48z
		 M123.73,489.79l-54.07-3.68l-30.45-42.88l0.02-0.04l-4.92-7.16l0.08-0.17l69.37,3.58l13.87-29.42l-60.49-3.04l7.95-16.95
		l67.81,4.11l-29.33,67.04l-0.21,0.41L123.73,489.79z M105.3,460.78l29.12-66.55l1.7,0.1l-28.84,66.45H105.3z"/>
</g>
<path d="M145.71,533.04l-5.7-13.67l-43.64-3.19l1.12,28.57l42.66,3.33l5.56-14.5L145.71,533.04z M98.86,543.47l-1-25.72
	l40.74,2.91l0.13,25.85L98.86,543.47z M140.25,544.16l-0.22-21.1l0-0.04l4.26,10.3L140.25,544.16z"/>
<g>
	<path class="fillpulse" d="M92.59,158.53c5.15-5.16,5.61-13.05,1.03-17.62c-4.58-4.57-12.47-4.09-17.61,1.08
		c-5.15,5.16-5.61,13.05-1.03,17.62C79.56,164.17,87.44,163.69,92.59,158.53"/>
</g>
</svg>
