<?xml version="1.0" encoding="utf-8"?>
<!-- Generator: Adobe Illustrator 20.0.0, SVG Export Plug-In . SVG Version: 6.00 Build 0)  -->
<svg version="1.1" id="Layer_1" xmlns="http://www.w3.org/2000/svg" xmlns:xlink="http://www.w3.org/1999/xlink" x="0px" y="0px"
	 viewBox="0 0 228.5 207.58" style="enable-background:new 0 0 228.5 207.58;" xml:space="preserve">
<g>
	<path d="M11.05,50.69c-0.82-0.09-1.65,0.21-2.26,0.84c-0.59,0.6-0.93,1.49-0.93,2.43L7.32,174.32c0,0.85,0.31,1.69,0.85,2.33
		c0.56,0.64,1.3,1.03,2.09,1.09c0.07,0.01,0.15,0.01,0.22,0.01c0.72,0,1.39-0.28,1.91-0.79c0.56-0.55,0.88-1.36,0.89-2.21
		l0.85-120.15c0.01-0.93-0.31-1.88-0.88-2.6C12.65,51.25,11.87,50.78,11.05,50.69z"/>
	<path d="M23.98,36.06c-0.83-0.08-1.62,0.17-2.24,0.72c-0.6,0.53-0.94,1.3-0.95,2.13l-0.54,103.35c0,0.74,0.31,1.49,0.87,2.04
		c0.56,0.55,1.29,0.88,2.08,0.94c0.07,0,0.15,0.01,0.22,0.01c0.71,0,1.38-0.24,1.89-0.67c0.57-0.48,0.9-1.19,0.91-1.94l0.85-103.16
		c0.01-0.81-0.32-1.64-0.9-2.27C25.58,36.54,24.8,36.14,23.98,36.06z"/>
	<path d="M36.92,25.75c-0.84-0.09-1.63,0.19-2.25,0.79c-0.59,0.57-0.93,1.42-0.94,2.31L33.2,142.7c0,0.81,0.31,1.61,0.86,2.22
		c0.56,0.61,1.3,0.98,2.09,1.03c0.07,0.01,0.15,0.01,0.22,0.01c0.72,0,1.38-0.26,1.9-0.74c0.56-0.53,0.89-1.29,0.9-2.11l0.85-113.64
		c0.01-0.88-0.32-1.79-0.89-2.47C38.52,26.28,37.74,25.84,36.92,25.75z"/>
	<path d="M134.97,136.82c-0.02-0.16-0.06-0.31-0.12-0.47l-0.01-0.04l-0.01,0c-1.7-3.75-17.58-5.14-28.45-5.14
		c-10.68,0-26.2,1.34-28.35,4.94l-0.03,0l-0.06,0.17c-0.05,0.11-0.1,0.23-0.12,0.34l-0.02,0.05l0.01,0.01c0,0.02,0,0.04-0.01,0.05
		l-0.02-0.01c-2.01,5.09-1.91,10.07,0.24,13.26c1.87,3.22,15.68,4.91,28.36,4.91c11.39,0,28.29-1.52,28.6-5.69
		c1.11-3.76,1.11-7.68,0-12.32L134.97,136.82z M106.39,132.59c17.85,0,27.19,2.86,27.19,4.39c0,0.09-0.04,0.19-0.1,0.28
		c-0.01,0.01-0.01,0.02-0.02,0.03c-0.68,0.94-4.26,2.22-10.62,3.09c0,0-0.01,0-0.01,0c-0.62,0.09-1.28,0.17-1.96,0.24
		c-0.21,0.02-0.41,0.05-0.62,0.07c-0.52,0.06-1.06,0.11-1.61,0.16c-0.31,0.03-0.63,0.06-0.96,0.08c-0.52,0.04-1.04,0.08-1.58,0.12
		c-0.34,0.02-0.67,0.05-1.02,0.07c-0.61,0.04-1.24,0.07-1.88,0.1c-0.27,0.01-0.54,0.03-0.82,0.04c-0.8,0.03-1.61,0.06-2.45,0.08
		c-0.14,0-0.28,0.01-0.42,0.01c-1.01,0.02-2.04,0.03-3.12,0.03c-1.12,0-2.2-0.01-3.25-0.03c-15.66-0.32-23.86-2.9-23.94-4.38
		C79.29,135.42,88.62,132.59,106.39,132.59z M133.61,148.89l-0.03,0.2c0,1.53-9.34,4.39-27.19,4.39c-15.25,0-25.96-2.18-27.16-4.24
		c-1.74-2.58-1.94-6.51-0.59-10.69c0.06,0.05,0.14,0.11,0.21,0.16c0.04,0.03,0.08,0.07,0.13,0.1c0.13,0.09,0.28,0.19,0.43,0.28
		c0.01,0.01,0.02,0.01,0.03,0.02c0.16,0.1,0.34,0.19,0.53,0.28c0.06,0.03,0.13,0.06,0.19,0.09c0.13,0.06,0.26,0.12,0.4,0.18
		c0.08,0.03,0.16,0.07,0.25,0.1c0.13,0.05,0.27,0.11,0.41,0.16c0.09,0.03,0.18,0.07,0.28,0.1c0.14,0.05,0.29,0.1,0.44,0.15
		c0.1,0.03,0.2,0.06,0.3,0.1c0.16,0.05,0.32,0.1,0.49,0.14c0.1,0.03,0.19,0.06,0.29,0.08c0.19,0.05,0.39,0.11,0.6,0.16
		c0.08,0.02,0.15,0.04,0.23,0.06c0.28,0.07,0.57,0.14,0.87,0.2c0.07,0.02,0.14,0.03,0.22,0.05c0.23,0.05,0.46,0.1,0.7,0.15
		c0.12,0.02,0.23,0.05,0.35,0.07c0.2,0.04,0.4,0.08,0.6,0.11c0.13,0.02,0.27,0.05,0.4,0.07c0.2,0.03,0.39,0.07,0.6,0.1
		c0.14,0.02,0.27,0.04,0.41,0.07c0.21,0.03,0.42,0.06,0.63,0.1c0.14,0.02,0.27,0.04,0.41,0.06c0.23,0.03,0.45,0.06,0.68,0.09
		c0.12,0.02,0.25,0.03,0.37,0.05c0.33,0.04,0.67,0.09,1.01,0.13c0.02,0,0.04,0,0.05,0.01c0.36,0.04,0.73,0.08,1.09,0.12
		c0.12,0.01,0.24,0.02,0.36,0.04c0.25,0.03,0.5,0.05,0.75,0.07c0.14,0.01,0.28,0.03,0.43,0.04c0.23,0.02,0.47,0.04,0.7,0.06
		c0.15,0.01,0.3,0.03,0.44,0.04c0.23,0.02,0.47,0.04,0.7,0.06c0.15,0.01,0.29,0.02,0.44,0.03c0.24,0.02,0.49,0.03,0.73,0.05
		c0.13,0.01,0.27,0.02,0.4,0.03c0.29,0.02,0.57,0.04,0.86,0.05c0.09,0.01,0.19,0.01,0.28,0.02c0.38,0.02,0.75,0.04,1.13,0.06
		c0.09,0,0.18,0.01,0.27,0.01c0.29,0.01,0.57,0.03,0.86,0.04c0.14,0.01,0.27,0.01,0.41,0.02c0.23,0.01,0.47,0.02,0.7,0.03
		c0.15,0.01,0.3,0.01,0.45,0.01c0.22,0.01,0.45,0.01,0.67,0.02c0.15,0,0.29,0.01,0.44,0.01c0.23,0.01,0.45,0.01,0.67,0.01
		c0.13,0,0.27,0.01,0.4,0.01c0.24,0,0.49,0.01,0.73,0.01c0.11,0,0.22,0,0.33,0c0.35,0,0.69,0,1.03,0c0.33,0,0.67,0,1.01,0
		c0.12,0,0.25,0,0.38,0c0.22,0,0.43,0,0.65-0.01c0.16,0,0.33-0.01,0.49-0.01c0.17,0,0.35-0.01,0.52-0.01c0.2,0,0.4-0.01,0.61-0.01
		c0.13,0,0.25-0.01,0.38-0.01c0.25-0.01,0.49-0.01,0.74-0.02c0.04,0,0.08,0,0.11,0c3.64-0.13,7.49-0.4,11.01-0.84
		c0.02,0,0.05-0.01,0.07-0.01c0.29-0.04,0.57-0.07,0.85-0.11c0.06-0.01,0.13-0.02,0.19-0.03c0.26-0.04,0.52-0.07,0.77-0.11
		c0.09-0.01,0.17-0.03,0.26-0.04c0.23-0.04,0.47-0.07,0.7-0.11c0.14-0.02,0.28-0.05,0.41-0.07c0.25-0.04,0.49-0.08,0.73-0.13
		c0.25-0.05,0.49-0.09,0.74-0.14c0.08-0.02,0.15-0.03,0.23-0.05c0.25-0.05,0.49-0.1,0.72-0.15c0.06-0.01,0.13-0.03,0.19-0.04
		c0.26-0.06,0.51-0.12,0.75-0.18c0.04-0.01,0.08-0.02,0.12-0.03c2.16-0.54,3.88-1.19,4.91-1.96
		C134.66,142.49,134.54,145.75,133.61,148.89z"/>
	<path d="M50.24,18.81c-0.83-0.09-1.65,0.21-2.26,0.85c-0.59,0.61-0.92,1.51-0.93,2.46l-0.54,122c0,0.86,0.31,1.71,0.85,2.35
		c0.56,0.65,1.3,1.05,2.09,1.11c0.08,0.01,0.15,0.01,0.22,0.01c0.72,0,1.39-0.28,1.91-0.8c0.56-0.56,0.88-1.38,0.89-2.24
		l0.85-121.78c0.01-0.94-0.31-1.9-0.88-2.63C51.84,19.38,51.06,18.91,50.24,18.81z"/>
	<path d="M37.32,173.02c-1.99-1.07-4.2-1.25-6.2-0.51c-4.11,1.51-6.08,6.47-4.39,11.05c1.35,3.67,4.65,6,8.02,6
		c0.83,0,1.67-0.14,2.49-0.44c2.01-0.74,3.56-2.31,4.39-4.41c0.81-2.08,0.82-4.43,0-6.63S39.28,174.07,37.32,173.02z M40.3,184.18
		c-0.68,1.72-1.94,3-3.56,3.6c-1.12,0.41-2.3,0.45-3.42,0.18c-2.04-0.84-3.8-2.59-4.68-4.97c-1.05-2.86-0.57-5.87,1.02-7.94
		c0.56-0.52,1.21-0.94,1.95-1.21c1.62-0.6,3.41-0.44,5.04,0.43c1.66,0.89,2.96,2.41,3.65,4.29
		C40.99,180.43,40.99,182.43,40.3,184.18z"/>
	<path d="M58.76,174.36c-1.99-1.07-4.2-1.25-6.2-0.51c-2.01,0.74-3.56,2.31-4.39,4.41c-0.81,2.08-0.82,4.43,0,6.63
		c0.81,2.2,2.34,4,4.31,5.05c1.19,0.63,2.45,0.96,3.7,0.96c0.85,0,1.69-0.15,2.51-0.45c2.01-0.74,3.56-2.31,4.39-4.41
		c0.81-2.08,0.82-4.43,0-6.63C62.26,177.2,60.73,175.41,58.76,174.36z M61.75,185.52c-0.68,1.72-1.94,3-3.56,3.6
		c-1.14,0.42-2.37,0.46-3.56,0.15c-1.91-0.88-3.55-2.59-4.38-4.85c-1.18-3.21-0.43-6.6,1.65-8.65c0.36-0.24,0.75-0.43,1.16-0.58
		c0.65-0.24,1.33-0.36,2.01-0.36c1.02,0,2.05,0.26,3.03,0.79c1.66,0.89,2.96,2.41,3.65,4.29C62.43,181.77,62.43,183.77,61.75,185.52
		z"/>
	<path d="M80.93,176.17c-2-1.07-4.2-1.25-6.2-0.51c-2.01,0.74-3.56,2.31-4.39,4.41c-0.81,2.08-0.82,4.43,0,6.63
		c1.35,3.67,4.65,6,8.02,6c0.83,0,1.67-0.14,2.49-0.44c4.11-1.51,6.08-6.47,4.39-11.05C84.42,179.02,82.89,177.23,80.93,176.17z
		 M80.35,190.94c-1.18,0.43-2.42,0.45-3.59,0.14c-1.9-0.89-3.52-2.59-4.35-4.84c-1.18-3.21-0.43-6.6,1.65-8.65
		c0.36-0.24,0.75-0.43,1.16-0.58c0.65-0.24,1.33-0.36,2.01-0.36c1.02,0,2.05,0.26,3.03,0.79c1.66,0.89,2.96,2.41,3.65,4.29
		C85.32,185.55,83.73,189.69,80.35,190.94z"/>
	<path d="M103.15,178.4c-1.99-1.07-4.19-1.25-6.2-0.51c-4.11,1.51-6.08,6.47-4.39,11.05c1.35,3.67,4.65,6,8.02,6
		c0.83,0,1.67-0.14,2.49-0.44c2.01-0.74,3.56-2.31,4.39-4.41c0.81-2.08,0.82-4.43,0-6.63C106.64,181.25,105.11,179.45,103.15,178.4z
		 M106.13,189.57c-0.68,1.72-1.94,3-3.56,3.6c-1.17,0.43-2.41,0.45-3.58,0.14c-1.9-0.89-3.53-2.59-4.36-4.85
		c-1.18-3.21-0.43-6.6,1.65-8.65c0.36-0.24,0.75-0.43,1.16-0.59c1.62-0.6,3.41-0.45,5.04,0.43c1.66,0.89,2.96,2.41,3.65,4.29
		C106.82,185.81,106.82,187.81,106.13,189.57z"/>
	<path d="M125.03,180.15c-1.99-1.07-4.2-1.25-6.2-0.51c-2,0.74-3.56,2.31-4.39,4.41c-0.81,2.08-0.82,4.43,0,6.64
		c1.35,3.67,4.65,6,8.02,6c0.83,0,1.67-0.14,2.49-0.44c2.01-0.74,3.56-2.31,4.39-4.41c0.81-2.08,0.82-4.43,0-6.63
		C128.52,182.99,126.99,181.2,125.03,180.15z M128.01,191.31c-0.68,1.72-1.94,3-3.56,3.6c-1.17,0.43-2.41,0.45-3.58,0.14
		c-1.9-0.89-3.53-2.59-4.37-4.85c-1.18-3.21-0.43-6.6,1.65-8.65c0.36-0.24,0.75-0.43,1.16-0.58c0.65-0.24,1.33-0.36,2.01-0.36
		c1.02,0,2.05,0.26,3.03,0.79c1.66,0.89,2.96,2.41,3.65,4.29C128.7,187.56,128.7,189.56,128.01,191.31z"/>
	<path d="M141.7,181.61c-2,0.74-3.56,2.31-4.39,4.41c-0.81,2.08-0.82,4.43,0,6.64c1.35,3.67,4.65,6,8.02,6
		c0.83,0,1.67-0.14,2.49-0.44c2-0.74,3.56-2.31,4.39-4.41c0.81-2.08,0.82-4.43,0-6.63C150.52,182.59,145.81,180.09,141.7,181.61z
		 M150.89,193.28c-0.68,1.72-1.94,3-3.56,3.6c-1.17,0.43-2.41,0.45-3.58,0.14c-1.9-0.89-3.53-2.59-4.36-4.85
		c-1.18-3.21-0.43-6.6,1.65-8.65c0.36-0.23,0.75-0.43,1.16-0.58c3.37-1.24,7.27,0.87,8.69,4.72
		C151.57,189.53,151.57,191.53,150.89,193.28z"/>
	<path d="M228.29,56.89c-5.53-9.17-12.05-17.57-19.37-24.98c-8.33-8.43-18-15.86-28.73-22.08c-2.02-1.17-4.1-2.31-6.17-3.39
		c-2.49-1.29-5.07-2.55-7.68-3.74l-0.25-0.11L100.62,0l-0.07,0l-0.07,0C83.66,1,70.73,2.88,59.8,5.93
		c-1.63,0.45-2.91,0.83-4.72,1.43C34.55,14.07,19.2,25.73,0.32,48.95L0,49.34v135.17l0.38,0.41c1.63,1.73,3.29,3.45,4.94,5.15
		l1.16,1.2l151.77,12.65c2.53,1.06,5.53,1.3,9.14,0.76l34.72,2.89l16.33-7.18l7.87-6.54l2.17-136.21l0.01-0.41L228.29,56.89z
		 M100.58,2.84l64.83,2.57c2.48,1.13,4.93,2.33,7.29,3.56c2.04,1.06,4.08,2.18,6.06,3.33c10.51,6.09,19.98,13.37,28.13,21.62
		c6.76,6.83,12.81,14.55,18.02,22.93l-15.14,3.89c-0.01-0.02-0.02-0.03-0.03-0.05c-0.09-0.14-0.18-0.28-0.27-0.41
		c-0.04-0.07-0.09-0.14-0.13-0.21c-0.07-0.1-0.13-0.2-0.2-0.3c-0.02-0.03-0.04-0.07-0.06-0.1c-0.07-0.11-0.14-0.22-0.21-0.33
		c-0.09-0.14-0.18-0.28-0.27-0.42c-0.04-0.06-0.08-0.13-0.12-0.2c-0.04-0.06-0.08-0.13-0.12-0.19c-0.04-0.07-0.09-0.14-0.13-0.22
		l-0.1-0.17c-0.06-0.1-0.12-0.2-0.19-0.29l-1.09-1.81l0,0.12c-0.23-0.35-0.47-0.69-0.71-1.03c-0.41-0.61-0.82-1.21-1.24-1.81
		c-0.47-0.67-0.95-1.34-1.43-2.01c-0.43-0.59-0.86-1.18-1.3-1.76c-0.49-0.65-0.98-1.29-1.48-1.93c-0.45-0.58-0.9-1.15-1.36-1.72
		c-0.5-0.63-1.01-1.24-1.53-1.86c-0.47-0.56-0.94-1.12-1.42-1.67c-0.52-0.6-1.05-1.2-1.58-1.79c-0.49-0.54-0.98-1.09-1.47-1.62
		c-0.54-0.58-1.09-1.15-1.64-1.73c-0.51-0.53-1.01-1.05-1.53-1.57c-0.56-0.56-1.13-1.11-1.7-1.66c-0.53-0.51-1.05-1.02-1.59-1.52
		c-0.58-0.54-1.17-1.07-1.76-1.6c-0.55-0.49-1.09-0.98-1.64-1.47c-0.6-0.52-1.22-1.03-1.83-1.55c-0.56-0.47-1.12-0.95-1.69-1.41
		c-0.63-0.51-1.27-1-1.9-1.5c-0.58-0.45-1.15-0.91-1.74-1.35c-0.65-0.49-1.32-0.97-1.99-1.46c-0.59-0.43-1.17-0.86-1.77-1.28
		c-0.69-0.48-1.39-0.95-2.09-1.42c-0.6-0.4-1.19-0.82-1.8-1.21c-0.73-0.47-1.47-0.93-2.21-1.39c-0.6-0.38-1.19-0.76-1.8-1.13
		c-0.79-0.48-1.6-0.94-2.4-1.41c-0.58-0.34-1.15-0.68-1.73-1.01c-0.91-0.51-1.85-1.01-2.78-1.51c-0.5-0.27-0.98-0.54-1.48-0.8
		c-1.44-0.75-2.91-1.49-4.39-2.21c-2.46-1.19-5-2.34-7.56-3.43L93.96,3.3C96.1,3.13,98.3,2.97,100.58,2.84z M177.81,161.96
		c-0.09-0.23-0.32-0.45-0.72-0.48c-23.36-1.8-50.46-3.89-76.42-6.06l-31.79-2.65l1.67-0.56l1.49-113.19l1.56-0.17l0.47-30.01
		l8.19-1.49l61.89,2.45c23.9,10.21,42.65,25.21,57.32,45.86l0.21,0.28l0,0c0.19,0.26,0.42,0.57,0.68,0.91
		c1.17,1.54,3.34,4.41,3.33,5.52l-1.11,134.12l-5.55,5.16l-20.82-1.77l-0.29-0.9l-0.04,0.01v-37.04L177.81,161.96z M31.91,155.92
		l130.39,10.87l-6.85,11.32L23.04,167.07L31.91,155.92z M22.36,165.64V152.5l12.27,1.5l-2.89,0.44l-0.04,0.04l-0.43-0.04
		L22.36,165.64z M37.64,154.98l2.21-0.34l8.14,1l5.22,0.64L37.64,154.98z M57.33,156.62l8.14-2.71l35.08,2.92
		c24.8,2.07,50.64,4.08,73.27,5.82c-1.5,0.41-2.97,0.81-4.44,1.2c-1.95,0.53-3.91,1.06-5.95,1.61L57.33,156.62z M60.33,8.72
		c0.08-0.02,0.15-0.04,0.23-0.06c6.3-1.76,13.31-3.12,21.38-4.14v1.46L60.33,9.9V8.72z M60.33,11.34l12.31-2.23L72.2,37.58
		l-11.86,1.28V11.34z M70.62,39.17l-1.47,112.02l-3.84,1.28l0,0l-7.67,2.56l0.79-114.31l1.25-0.37L70.62,39.17z M20.95,189.64
		l-13.17-1.1l-0.42-0.44c-1.51-1.56-3.03-3.13-4.52-4.72V50.35c18.35-22.49,33.28-33.81,53.13-40.3C57.09,9.68,58,9.4,58.92,9.13
		v2.47v27.5L57,39.65l-0.8,115.56l-35.26-4.31V189.64z M22.36,189.76l0-21.32l132.83,11.07l0.44,3.85l2,17.68L22.36,189.76z
		 M172.73,200.66l-4.01,1.3l-1.26-0.1l-0.17-0.01l-0.17,0.03c-3.25,0.51-5.85,0.3-7.95-0.62l-0.09-0.04l-2.46-21.72l-0.05-0.47
		l7.39-12.22l12.5-3.36v36.03l-3.59,1.16C172.82,200.63,172.77,200.65,172.73,200.66z M201.74,204.65l-0.1,0.05l-28.53-2.38
		c0.53-0.21,1.07-0.42,1.61-0.63c0.47-0.19,0.96-0.37,1.44-0.56l23.38,1.99l6.45-6l1.11-134.73c0.02-1.47-1.62-3.77-3.61-6.39
		c-0.34-0.45-0.64-0.84-0.85-1.14l-0.21-0.28h0c-14.82-20.76-33.75-35.84-57.84-46.12L83.36,5.99V4.34c0.1-0.01,0.21-0.02,0.31-0.04
		l60.23,2.38c2.5,1.06,4.98,2.19,7.38,3.35c1.49,0.72,2.96,1.46,4.41,2.22c0.6,0.31,1.17,0.64,1.76,0.96
		c0.84,0.45,1.69,0.9,2.52,1.37c0.64,0.36,1.25,0.74,1.88,1.1c0.76,0.44,1.52,0.88,2.27,1.33c0.66,0.4,1.3,0.82,1.95,1.23
		c0.69,0.43,1.39,0.86,2.07,1.31c0.68,0.44,1.34,0.91,2,1.36c0.63,0.43,1.27,0.85,1.89,1.28c0.71,0.5,1.39,1.02,2.09,1.53
		c0.56,0.41,1.13,0.81,1.68,1.23c0.69,0.53,1.37,1.07,2.05,1.61c0.53,0.42,1.07,0.83,1.6,1.26c0.68,0.55,1.34,1.13,2,1.69
		c0.5,0.43,1.02,0.85,1.52,1.28c0.67,0.59,1.32,1.19,1.98,1.79c0.47,0.43,0.96,0.86,1.42,1.3c0.66,0.62,1.29,1.26,1.94,1.89
		c0.45,0.44,0.9,0.87,1.34,1.31c0.63,0.64,1.24,1.3,1.86,1.95c0.43,0.46,0.88,0.91,1.3,1.37c0.6,0.66,1.19,1.34,1.78,2.01
		c0.42,0.48,0.85,0.94,1.26,1.43c0.58,0.68,1.15,1.39,1.72,2.08c0.4,0.49,0.82,0.98,1.21,1.47c0.55,0.7,1.09,1.42,1.63,2.13
		c0.39,0.52,0.8,1.03,1.19,1.55c0.52,0.7,1.02,1.43,1.53,2.15c0.39,0.55,0.79,1.1,1.18,1.66c0.49,0.71,0.96,1.44,1.44,2.17
		c0.37,0.56,0.74,1.1,1.1,1.67c0.04,0.06,0.07,0.12,0.11,0.18l0.01,0.01c0.02,0.02,0.03,0.05,0.04,0.07
		c0.13,0.22,0.26,0.43,0.39,0.63c0.06,0.1,0.12,0.2,0.19,0.3c0.09,0.14,0.17,0.28,0.26,0.41c0.01,0.02,0.02,0.03,0.03,0.05
		c0.1,0.15,0.19,0.3,0.29,0.45c0.04,0.06,0.08,0.12,0.12,0.18c0.15,0.24,0.31,0.48,0.47,0.72l-0.3,37.17l-0.82,100.96L201.74,204.65
		z M216.95,197.97l-10.37,4.56l2.44-1.99l10.65-4.82L216.95,197.97z M223.51,192.41l-14.47,6.55l1.11-136.83l15.5-4.02
		L223.51,192.41z"/>
</g>
</svg>
