<?xml version="1.0" encoding="utf-8"?>
<!-- Generator: Adobe Illustrator 20.0.0, SVG Export Plug-In . SVG Version: 6.00 Build 0)  -->
<svg version="1.1" id="Layer_1" xmlns="http://www.w3.org/2000/svg" xmlns:xlink="http://www.w3.org/1999/xlink" x="0px" y="0px"
	 viewBox="0 0 301.15 548.08" style="enable-background:new 0 0 301.15 548.08;" xml:space="preserve">
<style type="text/css">
	.st0{fill:#1A1A18;}
</style>
<g>
	<path class="st0" d="M82.62,164.9c0.3,0,0.6-0.01,0.91-0.03c3.89-0.24,7.63-1.97,10.53-4.88s4.62-6.65,4.85-10.54
		c0.23-3.92-1.09-7.52-3.71-10.13c-5.38-5.37-14.65-4.83-20.67,1.2c-6.01,6.03-6.53,15.3-1.15,20.67
		C75.8,163.6,79.05,164.9,82.62,164.9z M75.54,141.53c2.96-2.97,6.78-4.49,10.42-4.49c3.08,0,6.03,1.08,8.24,3.29
		c2.33,2.32,3.5,5.53,3.29,9.04c-0.21,3.54-1.78,6.96-4.44,9.62c-2.66,2.66-6.07,4.25-9.61,4.47c-3.51,0.21-6.72-0.95-9.05-3.27
		C69.56,155.38,70.08,147,75.54,141.53z"/>
	<path class="st0" d="M218.03,86.04c0.16,0.01,0.31,0.01,0.47,0.01c2.24,0,4.46-0.8,6.3-2.27c4.09-3.28,5.03-8.93,2.09-12.6
		c-2.94-3.67-8.66-3.98-12.75-0.7c-1.97,1.58-3.28,3.75-3.68,6.11c-0.41,2.39,0.15,4.7,1.59,6.48
		C213.48,84.87,215.6,85.92,218.03,86.04z M216.09,74.42c3.36-2.7,7.87-2.79,10.74-0.43c0.98,2.89-0.1,6.43-2.92,8.69
		c-1.7,1.36-3.76,2.06-5.81,1.95c-2.01-0.1-3.77-0.96-4.95-2.43c-0.22-0.28-0.41-0.58-0.59-0.89
		C212.62,78.81,213.83,76.23,216.09,74.42z"/>
	<path class="st0" d="M100.39,108.65c1.97,0,4.01-0.81,5.59-2.39c2.95-2.96,3.19-7.52,0.53-10.17c-2.66-2.65-7.21-2.4-10.16,0.56
		c-1.42,1.42-2.26,3.25-2.37,5.16c-0.11,1.94,0.54,3.71,1.84,5.01C97.05,108.04,98.69,108.65,100.39,108.65z M97.35,97.65
		c1.31-1.31,2.99-1.98,4.59-1.98c1.34,0,2.62,0.47,3.57,1.42c2.1,2.1,1.86,5.76-0.54,8.16s-6.06,2.65-8.16,0.56
		c-1.01-1-1.51-2.4-1.42-3.92C95.48,100.33,96.18,98.82,97.35,97.65z"/>
	<path class="st0" d="M88.19,195.42L88.19,195.42l3-7.88l-23.48-0.7L53.3,221.06l24.7,1.11L88.19,195.42z M61.88,220.03l10.56-25.08
		l14.25,0.43l-9.65,25.34L61.88,220.03z"/>
	<path class="st0" d="M48.24,414.85c-1.8,1.81-2.88,4.14-3.02,6.56c-0.14,2.45,0.68,4.71,2.32,6.34c1.51,1.51,3.55,2.32,5.78,2.32
		c0.19,0,0.38-0.01,0.57-0.02c2.42-0.15,4.75-1.23,6.55-3.04c1.8-1.81,2.88-4.14,3.02-6.56c0.14-2.45-0.68-4.71-2.32-6.34
		C57.78,410.77,51.99,411.1,48.24,414.85z M62.06,420.39c-0.12,2.07-1.05,4.08-2.61,5.64c-1.56,1.56-3.56,2.5-5.64,2.62
		c-2.04,0.12-3.91-0.55-5.26-1.9c-0.34-0.34-0.63-0.71-0.89-1.1c-0.25-2.54,0.68-5.3,2.77-7.4c3.11-3.12,7.69-3.7,10.84-1.59
		C61.86,417.77,62.14,419.04,62.06,420.39z"/>
	<path class="st0" d="M89.95,413.87c-2.42,0.15-4.75,1.23-6.55,3.04c-1.8,1.81-2.88,4.14-3.02,6.56c-0.14,2.45,0.68,4.71,2.33,6.34
		c1.51,1.51,3.55,2.32,5.78,2.32c0.19,0,0.38-0.01,0.57-0.02c2.42-0.15,4.75-1.23,6.55-3.04c1.8-1.81,2.88-4.14,3.02-6.56
		c0.14-2.45-0.68-4.71-2.32-6.34C94.66,414.54,92.41,413.72,89.95,413.87z M97.21,422.44c-0.12,2.07-1.05,4.08-2.61,5.64
		c-1.56,1.56-3.56,2.49-5.64,2.62c-2.04,0.12-3.91-0.55-5.26-1.9c-0.3-0.3-0.57-0.64-0.8-0.99c-0.22-2.52,0.71-5.24,2.78-7.32
		c3.12-3.12,7.71-3.7,10.86-1.57C97.05,419.98,97.28,421.17,97.21,422.44z"/>
	<path class="st0" d="M258.13,65.09l-12.59,0.33l-3.74-4.58l-39.66,0.52l-5.34-8.61h-31.69l-3.21-3.47H82.35L28.8,191.74
		c-5.77-9.16-10.6-17.87-12.6-24.66c-5.2-17.61-10.12-40.65-1.93-62.67c9.2-24.74,32.79-44.36,72.13-59.98
		c13.61-5.4,29.46-8.32,47.83-11.7c25.23-4.65,53.84-9.91,85.88-23.31l0.65-0.27L216.96,0l-0.66,0.27
		C185.17,13.3,157.16,18.45,132.44,23c-18.86,3.47-35.15,6.47-49.69,12.24C40.66,51.96,15.23,73.45,5,100.96
		c-9.21,24.77-3.93,49.84,1.7,68.91c2.78,9.43,9.87,21.39,17.72,33.34L5.33,251.86l0.04,1.44l22.18,33.53l-15.01,33.4l48.08,69.36
		l-6.75,14.4l-8.82-0.44l-15.61,32.9l4.89,7.11l-2.91,6.08L92,534.29l5.1,0.52l0.39,9.94l42.66,3.33l3.27-8.53l21.9,2.24l3.93-10.01
		l131.6-381.34l0.29-0.85L258.13,65.09z M254.94,69.43l-21.95,52.27L230,116.4h2.35l16.44-41.59l-3.64-5.12L254.94,69.43z
		 M192.98,57l-8.53,26.89L164.67,57H192.98z M236.05,103.2l-5.84-13.76l10.42-23.31l1.99,2.44L247.2,75L236.05,103.2z M235.83,65.17
		l3.67,0.03l-10.52,23.52l-14.7-0.26l-12.85-22.83L235.83,65.17z M228.96,90.14l6.34,14.94l-3.91,9.9h-2.19l-14.12-25.09
		L228.96,90.14z M6.33,101.45c10.08-27.11,35.25-48.34,76.95-64.89c14.41-5.72,30.64-8.71,49.42-12.17
		c24.61-4.53,52.48-9.66,83.5-22.54l2.71,6.53c-31.64,13.14-59.95,18.35-84.94,22.96c-18.43,3.39-34.35,6.32-48.09,11.78
		c-39.73,15.77-63.59,35.66-72.93,60.8c-8.33,22.41-3.36,45.74,1.9,63.56c3.58,12.13,15.87,30.1,26.71,45.95
		c3.82,5.58,7.42,10.85,10.57,15.75l0.31,0.48l0.53-0.19c2.52-0.92,5.14-0.43,6.85,1.27c2.54,2.53,2.26,6.95-0.63,9.85
		c-2.89,2.9-7.31,3.19-9.85,0.66c-1.4-1.39-1.99-3.41-1.64-5.52l0.04-0.27l-0.14-0.23c-3.34-5.33-7.49-11.39-11.88-17.82
		c-11.13-16.27-23.74-34.72-27.64-47.94C2.5,150.61-2.73,125.84,6.33,101.45z M34.55,218.22c4.32,6.31,8.4,12.28,11.7,17.53
		c-0.34,2.48,0.41,4.83,2.07,6.49c1.43,1.43,3.34,2.13,5.32,2.13c2.29,0,4.68-0.94,6.53-2.8c3.44-3.45,3.72-8.77,0.63-11.85
		c-1.97-1.97-4.92-2.63-7.79-1.78c-3.09-4.78-6.59-9.91-10.3-15.32c-2.89-4.23-5.88-8.6-8.78-12.97L88.63,59.29h64.42L80.93,248.67
		l-64.96-2.93l13.58-34.84C31.23,213.37,32.9,215.82,34.55,218.22z M28.59,209.47l-14.65,37.6l67.95,3.06l72.85-191.3l0.37-0.96
		H87.66L32.98,198.21c-0.44-0.67-0.88-1.34-1.31-2L85.3,53.54h74.52L85.97,255.08l-75.91-3.62l17.24-43.93
		C27.72,208.18,28.16,208.83,28.59,209.47z M10.2,252.89l75.87,3.62l21.52,32.54l-75.62-3.23L10.2,252.89z M32.02,287.24l75.91,3.24
		l-13.32,33.84l-76.99-5.04L32.02,287.24z M18.06,320.73l76.61,5.01l41.19,67.15l-70.74-4.29L18.06,320.73z M116.89,411.6
		c3.09,1.35,4.36,2.17,6.06,3.28c0.22,0.14,0.45,0.29,0.69,0.45l-14.29,32.66l-5.23-9.31L116.89,411.6z M134.41,394.23l1.7,0.1
		l-28.84,66.45h-1.98L134.41,394.23z M65.1,390.03l67.81,4.11l-8.69,19.87c-0.17-0.11-0.33-0.22-0.49-0.32
		c-1.74-1.14-3.06-1.99-6.23-3.37l0.14-0.3l-60.49-3.04L65.1,390.03z M47.67,407.92l8.83,0.44l0,0l58.95,2.97l-12.56,26.64
		l-67.83-3.5L47.67,407.92z M34.31,436.03l0.08-0.17l68.5,3.54l5.74,10.22l-5.06,11.57l-0.21,0.41l20.37,28.2l-54.07-3.68
		l-30.45-42.88l0.02-0.04L34.31,436.03z M124.8,491.28l0.75,1.1l-58.21-3.76l-28.55-39.47l1.1-2.52L68.7,487.2l0.19,0.27
		L124.8,491.28z M37.52,448.52h-0.83l1.83-3.84l0.42,0.59L37.52,448.52z M98.86,543.47l-1-25.72l40.74,2.91l0.13,25.85L98.86,543.47
		z M140.03,523.06l0-0.04l4.26,10.3l-4.04,10.84L140.03,523.06z M145.01,535.44l0.71-1.85l0-0.55l-5.7-13.67l-43.64-3.19l0.56,14.33
		l-2.59-0.27l-57.48-80.31h0.75l28.96,40.04l61.77,3.99l-1.75-2.57l0.05,0l-21.1-29.21h1.31l54.45,74.91L145.01,535.44z
		 M165.27,530.31l-2.51,6.38l-54.4-74.84l29.27-67.42l0.32-0.83l-42.08-68.6l13.56-34.45l0.88,0.04l-23.06-34.87l73.72-201.18
		l0.57,0.61l23.42,31.84l9.5-29.95l5.34,8.62l0.01,0l33.36,59.27l22.89-54.51l40.47,79.5L165.27,530.31z"/>
</g>
</svg>
