<svg height="960" viewBox="0 0 960 960" width="960" xmlns="http://www.w3.org/2000/svg"><path d="m41.7422857 525.562599v.637876c5.0986667 21.004359 21.3051429 34.3542 44.7954286 34.3542 16.8438097 0 29.2262857-4.55626 37.1929527-14.944532h40.334095c-11.836191 30.071315-40.334095 49.389857-77.5270477 49.389857-49.5754286 0-84.5377143-34.992076-84.5377143-82.696117s34.9622857-82.696118 84.5377143-82.696118c49.5754287 0 83.9003807 34.992077 83.9003807 82.696118v13.258716zm.956-30.84588v.637877h87.6788573v-.637877c-6.054667-19.090729-21.942476-30.845879-43.8394287-30.845879-21.8969524 0-37.8302857 11.75515-43.8394286 30.845879m285.3432383 96.137084v-89.712757c0-25.469493 13.338476-36.450079 31.456952-36.450079s31.866667 10.479398 31.866667 36.450079v89.712757h37.830286v-89.712757c0-49.298732-28.588953-71.578843-65.781905-71.578843-23.808953 0-42.883429 9.841521-54.036762 27.656497h-.637333c-11.426477-17.814976-30.500953-27.656497-54.036762-27.656497-37.238477.045562-66.055048 22.280111-66.055048 71.578843v89.712757h37.830286v-89.712757c0-25.788431 13.338476-36.450079 31.866666-36.450079 18.528191 0 31.866667 10.798336 31.866667 36.450079v89.712757zm119.5-225.853803h37.830286v90.669572h.637333c10.151809-15.901347 28.907619-26.061807 52.443428-26.061807 37.511619 0 77.390477 27.018622 77.390477 82.696118 0 47.704041-34.962286 82.696117-84.537715 82.696117-49.575428 0-83.763809-32.987322-83.763809-83.97187zm130.289143 147.25832c0-27.656497-18.75581-47.385103-46.388762-47.385103-27.632953 0-46.070095 19.683043-46.070095 47.430666s18.209523 47.385103 46.070095 47.385103c27.860571 0 46.388762-19.728606 46.388762-47.385103m95.6 13.349841v.637877c5.098666 21.004358 21.305143 34.354199 44.795428 34.354199 16.84381 0 29.226286-4.55626 37.192953-14.944532h40.334095c-11.745143 29.889065-40.334095 49.298732-77.390476 49.298732-49.575429 0-84.537715-34.992076-84.537715-82.696117s34.962286-82.696118 84.537715-82.696118c49.575428 0 83.900381 34.992077 83.900381 82.696118v13.258716zm.956-30.845879v.637876h87.724381v-.637876c-6.054667-19.090729-21.942477-30.84588-43.839429-30.84588s-37.830286 11.755151-43.839429 30.84588m283.56781 6.333201v-.956815c0-48.022979-27.632952-70.622028-68.649905-70.622028-41.016952 0-68.968571 22.781299-68.968571 69.984152v91.125198h37.830286v-91.125198c0-25.42393 12.701142-34.673138 31.138285-34.673138s31.138286 9.11252 31.138286 34.673138v1.594691z" fill-rule="evenodd"/></svg>