<svg height="960" viewBox="0 0 960 960" width="960" xmlns="http://www.w3.org/2000/svg"><path d="m160.30576 9.0213183 717 23.4182319c21.571573.704558 38.69424 18.3956061 38.69424 39.9786817v798.7381191c0 21.164741-16.487037 38.666353-37.614094 39.92878l-717 42.843649c-22.988561 1.373659-42.385906-16.899214-42.385906-39.92878v-197.494l-71.6310719-55.981532c-9.5552474-7.467629-15.1988091-18.859792-15.3689281-30.96606v-277.149304c0-7.712551 2.2296931-15.260648 6.4205446-21.735229l80.5794554-124.490875v-157.183c0-22.6031533 18.714653-40.71653913 41.30576-39.9786817zm-1.30576 39.9786817v169l-.082.126549v478.809l.082.064451v216.612549l717-42.882v-798.3123171zm454.558277 551.286464c12.150265 0 22 9.849735 22 22v96.437834c0 11.216719-8.438682 20.637477-19.587771 21.867354l-178.061399 19.642285c-.801039.088364-1.606329.132646-2.412228.132646-12.150265 0-22-9.849735-22-22l-.000926-8.179175c-.118094-.473992-.202875-.962547-.251512-1.463331-.11395-1.173282-.020284-2.318865.251013-3.400313l.001425-85.908912c0-11.334294 8.611245-20.813637 19.893462-21.898915l178.061398-17.128389c.70016-.067351 1.403147-.101084 2.106538-.101084zm0 20c-.063945 0-.127852.003067-.191503.009189l-1.39747.135303c-.327777 18.072069-.497832 30.890023-.511391 38.42254l-.000881.949294c0 7.155216-.835457 14.655027-2.491855 22.498577-1.788323 8.469226-8.821931 14.826824-17.426765 15.752995l-.980412.105187.000277 4.851225c0 10.797911-8.74007 19.388355-19.71758 20.454498l-137.344697 13.339277.000879 1.562034c0 1.10457.89543 2 2 2 .073263 0 .146472-.004025.219293-.012059l178.061399-19.642284c1.013553-.111807 1.780706-.96824 1.780706-1.987942v-96.437834c0-1.10457-.89543-2-2-2zm-43.002277 80.028085-137.06 14.773v1.622l135.41138-13.150614c.713003-.069248 1.267315-.324004 1.579516-.63086.040316-.039625.059186-.052843.067587-.045262zm-134.136-62.998-1.114625.107493c-1.025656.098661-1.808496.96042-1.808496 1.99081l-.000879 55.556697 2.593228-.279242c.641223-14.207607.895581-25.03361.766649-32.42011zm38.965-3.748-18.996 1.827.471522 26.999076c.1105 7.274968-.109306 17.303521-.656723 30.129307l18.874886-2.034498c.623952-13.950908.870531-24.60212.743184-31.897848zm38.965-3.748-18.996 1.827.472514 27.066465c.108996 7.175903-.103381 17.030911-.634542 29.606911l18.813499-2.027634c.524771-11.63493.789878-21.000081.797288-28.063618l-.000755-1.017254c-.003026-1.167619-.013561-2.268103-.031596-3.301292zm39.167-3.768-19.198 1.847.456053 26.134006c.110394 7.267946-.108882 17.284165-.655138 30.092177l18.876105-2.034387c.757416-13.952333 1.07047-24.595336.943588-31.864376zm-414.599-377.028-66.918 103.384555v276.598539l66.918 52.297906zm453.01232 373.33364-18.44332 1.77336.457207 26.219999c.012405.835436.019721 1.706778.021954 2.6141l.00024 1.106063c-.013195 6.740058-.289797 15.34692-.827881 25.848681l16.258147-1.751023.211898-1.027431c1.236404-6.143028 1.848467-11.922543 1.848467-17.339148l.00039-.635455c.008805-7.308275.166456-19.568386.472898-36.809146zm-29.43032-231.358189c22.342638 0 42.908206 10.204325 56.443754 26.989403l.008246.010597h24.548c.309449 0 .618192.003023.926201.00904.452129.008828.903259.024137 1.352716.045827.006197.000299.012516.000605.018835.000913l.270234.014297c.804736-.046503 1.615622-.070077 2.432014-.070077 22.919817 0 41.5 18.580183 41.5 41.5v10c0 22.919817-18.580183 41.5-41.5 41.5-.816054 0-1.626606-.023554-2.431014-.070019-.849723.046563-1.706231.070019-2.568216.070019h-26.22477l-.05157.061821c-13.389555 15.40745-32.87149 24.714791-53.96145 24.934211l-.76298.003968h-25c-40.040644 0-72.5-32.459356-72.5-72.5s32.459356-72.5 72.5-72.5zm0 20h-25c-28.994949 0-52.5 23.505051-52.5 52.5s23.505051 52.5 52.5 52.5h25c8.008381 0 15.597959-1.793106 22.389154-4.999736l-18.889154-.000264c-23.195959 0-42-18.804041-42-42v-9c0-23.195959 18.804041-42 42-42l22.708137-.000626c-7.712583-4.452003-16.662875-6.999374-26.208137-6.999374zm50.198049 27.499482-46.698049.000518c-11.874122 0-21.5 9.625878-21.5 21.5v9c0 11.874122 9.625878 21.5 21.5 21.5l46.698304.00095c-3.621479-6.160467-5.698304-13.338174-5.698304-21.00095v-10c0-7.662596 2.076728-14.840147 5.698049-21.000518zm31.163868.002986-.196607.043289c-9.546011 2.193554-16.66531 10.742498-16.66531 20.954243v10c0 10.156499 7.042476 18.66814 16.510591 20.918084l.341409.078465.077958-.000032c14.161093-.229601 25.570042-11.780708 25.570042-25.996517 0-14.23857-11.445511-25.803898-25.638083-25.997532zm-219.137828 11.970522c8.008129-.05444 14.5 7.909493 14.5 17.788223s-6.491871 18.031114-14.5 18.208859c-8.008129.177746-14.5-7.786187-14.5-17.787942 0-10.001754 6.491871-18.154138 14.5-18.20914z" fill-rule="evenodd"/></svg>