<?xml version="1.0" encoding="UTF-8"?>
<svg width="960px" height="960px" viewBox="0 0 960 960" version="1.1" xmlns="http://www.w3.org/2000/svg" xmlns:xlink="http://www.w3.org/1999/xlink">
    <!-- Generator: Sketch 60.1 (88133) - https://sketch.com -->
    <title>rs.muete.homey-buva/driver/assets/icon</title>
    <desc>Created with Sketch.</desc>
    <g id="rs.muete.homey-buva/driver/assets/icon" stroke="none" stroke-width="1" fill="none" fill-rule="evenodd">
        <path d="M742.480274,622.226257 C817.925639,719.65884 831.467641,855.660854 664.031947,933.101608 C496.596252,1010.54236 367.96007,905.374705 402.699858,812.207601 C434.446643,727.067301 487.767765,725.536139 483.355043,600.826019 C534.820151,599.627438 578.32829,566.232674 594.511589,520 C656.314088,540.569337 705.636656,574.645219 742.480274,622.226257 Z M147.792399,402.699858 C232.932699,434.446643 234.463861,487.767765 359.173981,483.355043 C360.372562,534.820151 393.767326,578.32829 440,594.511589 C419.430244,656.314694 385.354489,705.636883 337.773743,742.480274 C240.34116,817.925639 104.339146,831.467641 26.8983922,664.031947 C-50.5423618,496.596252 54.6252953,367.96007 147.792399,402.699858 Z M933.101608,295.968053 C1010.54236,463.403748 905.374705,592.03993 812.207601,557.300142 C727.067301,525.553357 725.536139,472.232235 600.826019,476.644957 C599.627438,425.179849 566.232674,381.67171 520,365.488411 C540.569443,303.685759 574.645292,254.363287 622.226257,217.519726 C719.65884,142.074361 855.660854,128.532359 933.101608,295.968053 Z M557.300142,147.792399 C525.553357,232.932699 472.232235,234.463861 476.644957,359.173981 C425.179849,360.372562 381.67171,393.767326 365.488411,440 C303.685759,419.430557 254.363287,385.354708 217.519726,337.773743 C142.074361,240.34116 128.532359,104.339146 295.968053,26.8983922 C463.403748,-50.5423618 592.03993,54.6252953 557.300142,147.792399 Z" id="Shape" fill="#000000"></path>
    </g>
</svg>