<svg height="960" viewBox="0 0 960 960" width="960" xmlns="http://www.w3.org/2000/svg"><path d="m284.991971 2.40978028 416.264543 38.39109372c28.813021 2.6573568 50.857079 26.8280403 50.857079 55.7633425v769.7229075c0 29.046726-22.208977 53.271747-51.146398 55.789269l-416.181881 36.207339c-4.756182.413782-9.548031-.027226-14.148797-1.302155l-21.591232-5.983196c-24.254439-6.721205-41.045285-28.797773-41.045285-53.966254v-836.8101643c0-28.5807812 21.52287-52.5755508 49.935567-55.67066232l19.051151-2.07532003c2.65949-.28970915 5.341336-.31188689 8.005253-.06620007zm-3.673515 39.83095892-2.793456.304v875.1149998l2.793456.774515 416.181881-36.207339c8.267834-.719292 14.613256-7.640727 14.613256-15.939791v-769.7229075c0-8.2672292-6.298302-15.1731388-14.530594-15.9323836zm-33.318456 17.9812235v836.8101643c0 6.767277 4.248685 12.752189 10.524992 15.03449l.00005-866.8815061c-6.192549 2.2515356-10.525042 8.1826181-10.525042 15.0368518zm179.897781 160.4497423 189.240949 10.380243c13.785396.756157 24.575989 12.154856 24.575989 25.960975v452.53908c0 13.884186-10.908875 25.318542-24.77771 25.971253l-189.240949 8.906281c-.407149.019161-.814691.028746-1.22229.028746-14.359404 0-26-11.640596-26-26v-471.825603c0-.474938.013013-.949787.039026-1.424012.786459-14.33785 13.047135-25.323422 27.384985-24.536963zm-7.415005 25.632357c-.006003.109436-.009006.219017-.009006.328618v471.825603c0 3.313709 2.686291 6 6 6 .094061 0 .18811 0 .282067-.006634l189.240949-8.90628c3.2005-.150626 5.717933-2.789323 5.717933-5.993366l.000114-8.228891c-4.114019 3.522742-9.354462 5.791397-15.151903 6.179742l-.42725.025155-151.042407 7.670971c-.439232.022307-.87896.033466-1.318759.033466-14.359403 0-26-11.640596-26-26v-419.195697c0-.512436.01515-1.02476.045429-1.536301.848476-14.334314 13.156559-25.266746 27.490873-24.41827l.181535.010033c.958997-.081182 1.928255-.024613 2.875555.170681l147.986202 8.759831c5.883841.348276 11.199578 2.629155 15.36121 6.192524l-.000599-2.202324c0-3.186028-2.490137-5.816497-5.671382-5.990994l-189.240949-10.380244c-3.308735-.18149-6.138121 2.353642-6.319612 5.662377zm27.291224 360.583677.000514 82.344707c0 2.479458 1.503967 4.607647 3.649403 5.522068.005366-.133689.00376-.269492-.001934-.406056zm23.631263-339.815954-8.923418 212.469597 8.92277 213.973775c.01153.276496.018777.552588.021774.828189l133.694861-6.789593c3.294133-.167299 5.835541-2.962212 5.689812-6.25737l-8.902157-201.290896c-.013067-.295457-.01302-.591348.00014-.886801l8.902818-199.874404c.145932-3.276277-2.36573-6.062721-5.639526-6.256504l-133.757716-7.917723c.021719.663725.018797 1.331367-.009358 2.00173zm87.587725 384.808075c1.862676-2.038602 5.025287-2.181219 7.063889-.318543 2.038603 1.862675 2.18122 5.025286.318544 7.063889l-17.684205 19.354449c-1.825681 1.998114-4.909846 2.180751-6.958588.41207-4.761083-4.110247-7.031754-6.070518-8.943666-7.721073l-.334106-.288434c-.165625-.142984-.329433-.2844-.492888-.425511l-.326875-.282191c-1.309089-1.130138-2.658096-2.294736-4.796764-4.14105-3.275367-2.827627-3.957735-3.416716-4.510453-3.893878l-.086553-.074721c-.114925-.099215-.229851-.19843-.367761-.317488-2.090256-1.804519-2.321891-4.961859-.517371-7.052115 1.804519-2.090256 4.961859-2.321891 7.052115-.517371.827461.714347.827461.714347 4.964766 4.286086l.263275.227286c1.90852 1.647626 3.174917 2.740908 4.383273 3.784083l.722722.623925c1.450203 1.251962 2.985044 2.576991 5.613815 4.846411l.230777.200298zm1.007012-212.87986c2.761424 0 5 2.238576 5 5v52c0 2.761424-2.238576 5-5 5h-49c-2.761424 0-5-2.238576-5-5v-52c0-2.761424 2.238576-5 5-5zm-5 10h-39v42h39zm-9 9v24h-21v-24zm-94.713286-193.422753-.103086.046509c-1.902251.912615-3.265129 2.803063-3.39863 5.058462-.006988.118048-.010484.236277-.010484.354531l-.000514 83.05499 3.64888-86.859213c.023854-.567962-.023723-1.123341-.136166-1.655279zm97.404502 19.302613 17.684205 19.354449c1.862676 2.038603 1.720059 5.201214-.318544 7.063889-2.038602 1.862676-5.201213 1.720059-7.063889-.318543l-14.406054-15.766122-.230777.200298c-2.628771 2.26942-4.163612 3.594449-5.613815 4.846411l-.722722.623926c-1.208356 1.043174-2.474753 2.136456-4.383273 3.784083l-.263275.227285c-4.137305 3.571739-4.137305 3.571739-4.964766 4.286087-2.090256 1.804519-5.247596 1.572884-7.052115-.517372-1.80452-2.090256-1.572885-5.247596.517371-7.052115.13791-.119058.252836-.218273.367761-.317488l.086553-.074721c.552718-.477162 1.235086-1.066251 4.510453-3.893878 2.138668-1.846314 3.487675-3.010912 4.796764-4.14105l.326875-.282191c2.12492-1.834445 4.309417-3.720323 9.77066-8.435018 2.048742-1.768681 5.132907-1.586044 6.958588.41207z"/></svg>