<svg height="960" viewBox="0 0 960 960" width="960" xmlns="http://www.w3.org/2000/svg"><path d="m252.40013 4c.826482 0 1.652819.02218466 2.477823.07162074l273.514646 16.38961686c1.240731.0743475 2.46534.2046635 3.667604.4002379l254.481803 15.3856711c9.712328.587196 18.877618 4.6943904 25.779769 11.5525557 25.442804 25.2806632 44.974589 46.5751539 58.761527 64.1805267 12.943025 16.527731 25.933172 38.639604 39.330432 66.595103 28.002099 7.790733 48.065662 33.397553 48.15405 63.293224l.627597 211.980603c.077615 26.546031-15.669817 50.056866-39.196223 60.451922l.000842 163.241184c.000029 5.564233-1.160834 11.067269-3.408391 16.157375-38.97678 88.271845-91.255547 154.897433-157.031279 198.932948-66.287737 44.378292-145.072569 64.987652-235.163858 62.101135-.066518-.002131-.133031-.004428-.199537-.006891l-1.418828-.05255c-1.718027.119569-3.472101.090219-5.245321-.056773l-5.03984-.41787c-9.538011-.507416-18.976105-1.291937-28.31326-2.354576l-62.358291-5.184992c-15.472015-.543351-30.673385-1.805404-45.60031-3.789029l-2.050965-.17592c-1.21354-.10409-2.421692-.263555-3.62068-.477894l-4.334434-.774855.003489-.019523c-76.102345-11.715282-144.687635-42.078918-205.11645-90.747362-59.765453-48.134182-111.2181376-113.878491-154.55926018-196.881399-2.98426387-5.715186-4.54278482-12.067061-4.54278482-18.514478v-447.688406c0-7.336915 2.01794066-14.532498 5.83304448-20.799499 21.83806492-35.872989 40.98005312-61.753529 58.47816132-78.2863801 15.5968541-14.7364767 38.0017682-33.1613963 67.4644472-55.565098 4.466217-3.3961542 9.596956-5.8147188 15.058887-7.0985667l88.40712-20.78043289c2.999839-.70512358 6.071112-1.06122831 9.152708-1.06122831h5.605632.053201zm-105.94413 465.378-12.044943 21.004 1.088943 145.313459c95.090969 178.974698 223.512635 271.932949 385.264997 278.874751l4.833003.18079.079411.003238c.434902.013934.869481.027276 1.303737.040025 4.478863.131475 8.92838.199931 13.34854.205383 156.46375.187743 269.687316-78.964656 339.670312-237.457175l-.002-189.618471zm65.079643-417.1839973-53.548395 12.5864302c-28.425239 21.6148225-49.826931 39.2147321-64.205077 52.7997291-14.3781458 13.584996-31.6388694 36.922011-51.782171 70.011043v447.688406c81.837963 156.728497 192.255998 245.657494 331.254105 266.786994l-.510152-.078938c-28.402904-12.074152-55.524114-27.457016-81.336631-46.141452-66.857525-48.394938-124.669898-118.731404-173.5692-210.766831-1.511491-2.844841-2.31342-6.012698-2.33756-9.234054l-1.088943-145.313459c-.026541-3.541768.887946-7.027058 2.649966-10.099535l15.938415-27.792204-.001-261.496132-1.961588-.079247c-.695401-.028465-1.371301-.127291-2.021121-.289337-9.568628-1.442257-16.923497-9.665526-16.993737-19.634502l-.022554-3.130542c-.028517-4.117731 1.214198-8.144049 3.558936-11.529127 20.759541-29.970368 38.699885-52.588438 54.049905-68.0064004 9.975757-10.0199116 23.928002-22.0849817 41.926802-36.2808419zm604.118688 518.7526923c4.939146-2.471169 10.946394-.470479 13.417564 4.468667 2.471169 4.939146.470479 10.946394-4.468667 13.417564l-196.623341 98.375228c-2.358292 1.179909-5.08718 1.380561-7.592691.558283-3.103419-1.018504-6.338278-1.540675-9.645917-1.540675-18.733768 0-34.29535 17.000048-34.29535 38.389878 0 21.389831 15.561582 38.389878 34.29535 38.389878 7.046251 0 13.771804-2.3804 19.473307-6.798463 5.717109-4.430157 10.151359-10.724935 12.622505-18.041801.82352-2.438375 2.55546-4.465358 4.835488-5.659231l192.183584-100.631564c4.892689-2.561921 10.935844-.672459 13.497764 4.220231 2.561921 4.892689.672459 10.935844-4.220231 13.497764l-188.827148 98.874061c-8.580289 20.657809-27.763611 34.539003-49.565269 34.539003-30.193525 0-54.29535-26.329725-54.29535-58.389878 0-32.060152 24.101825-58.389878 54.29535-58.389878 3.981485 0 7.910929.462302 11.734077 1.372866zm-662.655331-378.984695v257.574l760.760592 19.236162c.277342.007012.551761.025251.822834.054272 2.939792-4.248893 4.628492-9.390471 4.612376-14.859015l-.626843-211.980602c-.005231-1.769363-.188077-3.50059-.532424-5.175682-1.783034-5.742864-5.508627-10.671387-10.464835-13.961636zm102.111202-147.8043044c-33.204592 24.5410815-56.980603 44.0170885-71.328031 58.4280214-14.378146 14.441786-31.638869 36.203033-51.782171 65.283741l.022057 3.130542h7.977943c1.32961 0 2.612599.199609 3.820635.570496l733.234068 30.012388c-13.23431-28.300071-25.722291-49.946918-37.463943-64.940541-.798042-1.019069-1.619633-2.05438-2.464771-3.105934-12.508173-15.562992-30.174179-34.6837145-52.998122-57.362168l-.157867-.010241-257.972-15.596.001-.1-86.079-5.238zm5.018275 32.0158242c8.874711-10.4995198 21.248491-16.0987105 34.491871-14.9997325 12.835432 1.0634982 24.602408 8.0366098 33.100763 18.9829693 6.70069 8.6308662 11.03462 19.299259 12.409972 30.6053984 1.507984-11.2013462 5.881864-21.3682963 12.615834-29.1910718 8.881154-10.3171354 21.231913-15.7967882 34.429724-14.7064839 12.797554 1.0556086 24.550647 7.9117058 33.05436 18.6831815 6.729369 8.5239503 11.083312 19.0670362 12.461158 30.2416412 1.513881-11.067165 5.910177-21.1077111 12.675083-28.8216943 8.887033-10.1338317 21.213574-15.493878 34.365419-14.4123293 23.531918 1.9321609 42.353103 22.9311232 45.520719 48.2612506 1.519899-10.934031 5.939478-20.8484067 12.736139-28.4531896 8.892432-9.9497397 21.193767-15.1901409 34.299436-14.1172463 23.502099 1.9209904 42.359397 22.6151379 45.525884 47.5988889 1.525163-10.801506 5.969116-20.591007 12.798976-28.0868152 8.897238-9.764767 21.172243-14.8855019 34.231432-13.8212578 23.471181 1.9097518 42.364324 22.296103 45.530707 46.932986 1.531955-10.668608 6.001026-20.332208 12.864246-27.717794 8.901415-9.5789109 21.148962-14.5799819 34.161338-13.5243748 25.715401 2.0828098 46.00171 26.0445898 46.00171 53.4464448 0 13.398093-4.867744 25.94296-13.455891 35.184691-8.768054 9.435329-20.773932 14.732859-33.594292 14.424149-12.858844-.307443-24.776856-6.425817-33.419584-16.634279-6.905362-8.156351-11.346586-18.478723-12.705903-29.567634-1.55182 10.387145-5.997002 19.914811-12.773767 27.352293-8.763914 9.618373-20.793156 15.037759-33.656835 14.732999-12.902313-.303476-24.841242-6.537864-33.48023-16.926586-6.873236-8.265336-11.29156-18.715507-12.648044-29.93962-1.546053 10.513244-5.966548 20.162848-12.710526 27.70863-8.759164 9.800557-20.810658 15.341721-33.717288 15.040952-12.945466-.299466-24.90434-6.649722-33.539115-17.217966-6.842353-8.374469-11.238742-18.953397-12.592217-30.314159-1.53948 10.640385-5.936397 20.413173-12.649034 28.067501-8.75385 9.981894-20.826501 15.644736-33.775722 15.348-12.988306-.295417-24.966171-6.761377-33.596299-17.508421-6.812236-8.483236-11.187486-19.191057-12.538087-30.689046-1.533489 10.768765-5.907628 20.664509-12.589498 28.426707-8.748014 10.162399-20.840746 15.946795-33.832204 15.654134-13.030839-.291328-25.026761-6.872813-33.651839-17.79795-6.782117-8.590712-11.136775-19.426124-12.485149-31.060432-1.529306 10.896354-5.881244 20.913711-12.532299 28.782407-8.741699 10.342085-20.853454 16.247894-33.886801 15.959347-13.073072-.287198-25.086133-6.984017-33.705793-18.086556-8.242347-10.616542-12.882326-24.608002-12.882326-39.324325 0-14.8261715 4.711808-28.5396581 13.143972-38.5156072zm495.656512 33.3888582c-3.756536-.304828-7.366336.349442-10.657909 1.875406.826117-.024038 1.662382-.004957 2.507443.058095 15.374033 1.145552 27.83715 15.811901 27.83715 32.759611 0 13.349517-7.732781 24.501685-18.529956 28.435684 14.436631.281152 26.461531-12.701362 26.461531-29.616883 0-17.332788-12.67286-32.301589-27.618259-33.511913zm-92.563639-5.691415c-3.92267-.319764-7.689677.435446-11.104086 2.168073.971645-.048035 1.958324-.035785 2.957293.039054 15.374034 1.150212 27.83715 16.081673 27.83715 33.351753 0 13.76672-7.919522 25.247118-18.920054 29.134192l.277318.008045c6.929053.16416 13.448281-2.772867 18.401301-8.208795 5.166428-5.670141 8.17301-13.569017 8.17301-22.193225 0-17.794442-12.716362-33.086468-27.621932-34.299097zm-92.563639-5.6914162c-4.075468-.3337318-7.988061.5250281-11.514768 2.4694212 1.105314-.077176 2.230462-.074506 3.371648.011333 15.374034 1.154873 27.837151 16.351445 27.837151 33.943895 0 14.182644-8.100064 25.990115-19.295284 29.826145l.229986.011072.418683.013862c6.886098.16047 13.383075-2.826779 18.340849-8.373992 5.202919-5.821504 8.23734-13.945398 8.23734-22.815453 0-18.254531-12.759635-33.8713612-27.625605-35.0862832zm-92.563638-5.6914176c-3.424598-.2817039-6.738167.3017804-9.806928 1.6887699.551571.0014227 1.107595.0233286 1.66748.0656124 15.374034 1.1595345 27.837151 16.6212175 27.837151 34.5360375 0 15.628823-9.485371 28.433251-22.11384 31.186342 1.143058.221366 2.299831.347117 3.463347.373581 6.843503.156821 13.319324-2.880751 18.282415-8.540096 5.238543-5.973438 8.299652-14.322 8.299652-23.436776 0-18.713103-12.802648-34.6562636-27.629277-35.8734708zm-92.563638-5.6914189c-3.585855-.296299-7.054717.3819382-10.251111 1.9661134.698203-.0125235 1.40365.0079347 2.115336.0618986 15.374033 1.1641955 27.83715 16.8909897 27.83715 35.1281797 0 16.032759-9.632241 29.153715-22.406578 31.82898 1.238038.263591 2.491541.411604 3.752208.439788 6.801262.153214 13.257002-2.934803 18.225932-8.707113 5.273308-6.125899 8.360012-14.698765 8.360012-24.057187 0-19.170204-12.845376-35.441173-27.632949-36.6606597zm-92.563638-5.6914203c-3.734944-.3100039-7.34853.4660116-10.662662 2.253309.833717-.0325722 1.677658-.0165961 2.530559.0483341 15.374033 1.1688565 27.83715 17.1607619 27.83715 35.7203219 0 16.43538-9.773516 29.871934-22.687095 32.467918 1.328619.308184 2.67506.479956 4.028847.509697 6.75937.149647 13.196087-2.988959 18.171335-8.875051 5.307229-6.278849 8.418488-15.075637 8.418488-24.676679 0-19.6258816-12.887795-36.2260871-27.636622-37.44785z"/></svg>