<svg height="960" viewBox="0 0 960 960" width="960" xmlns="http://www.w3.org/2000/svg"><path d="m494.530009 5c21.714385 0 39.46297 17.3242757 39.988293 39.0323052l3.534698 146.0886948 8.660663 9.609154c2.248879 2.495358 4.15668 5.243642 5.695685 8.172693l.217652.421153.490601.116997c3.058141.737078 6.107715 1.617565 9.215116 2.664099l.778093.265105c20.827872 7.177781 38.082195 20.887515 50.391178 41.418887 2.607669 4.34959 4.914347 7.937184 7.850975 12.272253.336467.496695.687486 1.012605 1.064085 1.564106.812815 1.190307 3.817375 5.56179 3.92368 5.716801 1.732439 2.526192 3.139833 4.59874 4.606402 6.792715 3.813578 5.705086 7.564579 11.554244 11.780747 18.428649 10.284531 16.768791 23.018962 39.161164 40.019137 70.647068 46.119904 85.418353 86.149678 200.90059 107.951193 302.834924 12.825442 59.966152 24.477434 132.233133 34.996553 216.892882 3.191548 25.686148-16.838601 44.104757-38.391082 45.02316l-.322678.009354-.017187.001263c-1.966288.087964-3.973516.032565-6.012707-.177203l-.87587-.099384-66.980236-8.310676-.668496-.081138c-18.045377-2.273693-33.822808-9.031454-46.035614-20.940879l-.536484-.528761c-4.31939-4.302768-29.401346-27.093478-73.123162-66.400888l-.162244-.146334-.119296.002162c-1.936628.028252-3.693143.052704-5.272139.073327l-.200565.002511-.014778.025306c-2.558738 4.347772-8.291922 14.478568-17.542235 30.964629l-.339996.605985-.627404 1.118422c-.157119.280114-.157119.280114-.313786.55944l-.631882 1.126707c-.316495.564402-.316495.564402-.633246 1.129318l-.636678 1.135598c-.508868.907691-1.03728 1.850381-1.597793 2.850456l-.641843 1.145232c-.321045.572863-.321045.572863-.641792 1.14522l-1.96809 3.5122c-5.624395 10.037511-8.481434 15.133911-11.042699 19.692953l-.294359.523909c-.293327.522026-.583982 1.039153-.875762 1.558145l-.292295.519865-.293889.522611c-.098322.174829-.197051.350367-.296326.526863l-1.111465 1.975123c-5.183927 9.207671-8.523225 15.075346-10.370635 18.192995-5.741552 9.68932-9.835351 15.425247-16.126971 20.887202-10.083146 8.753497-20.918868 11.916821-32.729841 11.916821h-.290852c-2.106529-.011269-10.768023-.116071-28.654326-.342714-4.277147-.054198-14.78816-.188464-25.800728-.329258l-1.504284-.019233-1.085122-.013874c-.723662-.009253-1.447553-.01851-2.170066-.027749l-1.082534-.013843c-12.072258-.154378-23.532191-.301013-26.825508-.342989-1.531952-.019523-1.531952-.019523-3.06441-.039037-52.794311-.672175-82.640868-1.029665-88.494273-1.043696l-.328384-.000429c-14.272558 0-27.004497-3.371001-37.773936-12.049672-7.360286-5.931369-12.311978-13.156166-15.240451-21.050203l-.034361-.092303-77.776329 5.512618c-24.149514 1.711454-44.209575-18.236848-42.75628-42.291896l.050643-.73018c17.314613-221.152738 36.029377-355.73462 58.234134-410.466337 14.285855-35.212697 34.533902-76.126974 57.060251-116.696181 18.545512-33.399851 36.953401-63.394206 46.052495-75.115959 2.337824-3.011661 4.983024-6.727463 7.770124-10.901397l.758962-1.142668.545173-.826354c.26714-.406704.535326-.817057.79124-1.210462l.25133-.386993.566478-.876554c.788207-1.223589 1.582119-2.472849 2.3532-3.70172l.520657-.831858.541109-.86938c2.947001-4.747705 5.843659-9.62882 8.423683-14.153669 1.065692-1.869012 2.031284-3.597286 2.829918-5.059903.380028-.695983.701348-1.293954.936321-1.738078l.013891-.026029.025105-.060921c.04666-.112586.092721-.22311.135454-.324722l.041521-.098389c.608736-1.436889 1.261498-2.834677 2.067421-4.346924 2.329604-4.371307 5.319168-8.461636 9.130072-12.190825 9.283338-9.08428 20.968568-14.246177 37.253488-16.857449l.571939-.09077.083304-.150889c1.340739-2.400153 2.933764-4.670657 4.763272-6.770207l.36905-.417618 7.678374-8.568286 4.517992-147.4697354c.655183-21.3883512 18.014322-38.43140386 39.333996-38.7752646zm21.895914 239.981753-109.426848-.000753.000925.019h.056945c-46.319464 0-45.911019 8.65904-47.985639 12.982157-.03112.064846-.065215.134911-.102237.210081l-.119792.240717c-1.605862 3.197639-7.255576 13.418128-14.296961 24.762009l-.56623.909795-.571865.913917c-.861874 1.373631-1.741752 2.758909-2.63505 4.145638l-.597469.924589c-.399572.616387-.801593 1.232614-1.205662 1.847785l-.607588.921852-.814374 1.225513c-3.130287 4.688085-6.353324 9.252747-9.487803 13.290687-13.093155 16.867033-63.456581 101.336358-94.002943 173.53803 1.942991.130272 4.829036.209391 8.51832.209391 6.410755 0 15.78826.479655 28.228883 1.434066l-.0515-.003298.288438.017468c14.119591.975877 22.636692 10.083259 22.807314 24.290665l.002613.436511c0 9.177606 3.34983 143.256091 10.011061 400.572529.071642 2.767467-.988084 5.301389-2.75832 7.158968 2.040412.515372 4.52597.798108 7.542607.798108 11.347352 0 145.823308 1.793657 174.192957 2.121651.004929-.318954.031485-.640017.073925-.962652 13.608506-103.453185 23.380856-175.835624 29.320945-217.17388 4.025017-28.010894 11.586045-67.169773 20.930514-110.104734l.216476-.99377.433774-1.986117c.140407-.641778.28095-1.283109.421586-1.923815l.422143-1.920075c6.75738-30.685658 13.630723-59.530932 15.930382-67.140586 3.242963-10.731082 5.931373-16.237569 12.029352-21.305334 7.189549-5.974921 17.302984-8.569831 32.065603-8.569831l.559215-.000455.279704-.000573.560565-.001857c5.336322-.022203 11.054382-.175802 23.080881-.571053l.63883-.021026c12.470815-.411054 18.417053-.574216 24.014751-.601567l.588211-.002382c.195819-.00063.391475-.001098.587237-.001408l.989346-.000679c6.625435-.007048 16.57677-.186775 29.821506-.53973 7.647476-.203935 14.810504 3.239945 19.437463 9.068748-14.332882-37.090054-30.49658-73.281057-48.120304-105.934365-36.495243-67.618531-47.775844-82.855635-58.100562-97.975377l-.813566-1.194373c-2.979034-4.385457-5.931463-8.876328-9.44572-14.740355-13.696775-22.854977-33.972728-27.374027-52.994686-28.19799-2.793668-.112885-5.559122-.14844-8.271291-.153055l-.501985-.000538-.000711-.017823c-.191392-.000288-.382516-.000424-.573366-.000424zm37.355396 344.094565-.427839 1.952186-.639883 2.932337c-9.251322 42.506979-16.733785 81.258971-20.67636 108.696132-5.524715 38.447583-14.386073 103.915099-26.580919 196.381019 4.905163-8.607328 13.03937-23.136063 21.260879-37.81387l1.312616-2.343323c10.718029-19.133286 21.30052-37.998392 24.792047-43.818397 2.466439-4.111292 4.759738-7.578878 7.211385-10.355799-.002086-.128115-.001505-.257069.00155-.38654l6.372495-270.011594c-3.229511 13.122358-7.98624 33.633073-12.625971 54.767849zm134.992756-64.171318 6.442777 277.853147c23.309433 20.724803 75.750234 76.052502 79.948876 79.989503 3.175127 2.977267 6.371175 6.151693 9.588145 9.523279l-.369552-1.093461c.367289.381551.734851.765676 1.102685 1.152375l.101377.81963c-10.386296-83.622852-21.859537-154.808516-34.419724-213.556993-3.033167-14.187203-6.541693-29.077165-10.494282-44.447147zm-9.897309 290.153753-.04055.00142c-5.517031.086426-17.098051.286706-43.835404.750007l-1.396529.024199c-1.246081.021585-1.246081.021585-2.492993.043155-.468315.008098-.933309.016133-1.394992.024104 38.273795 34.44155 59.729026 53.972917 64.367799 58.593838 5.591815 5.570296 13.537738 8.964499 23.83777 10.18261l35.487332 4.404076c-3.724182-3.825565-8.376198-8.609377-13.179319-13.543485l-.674078-.692428-.675582-.693902-1.135672-1.166293-.568221-.583452-1.135806-1.166052-1.073558-1.101877c-6.430211-6.599003-12.62567-12.941517-16.731012-17.097598-.889369-.900362-1.768754-1.789235-2.638247-2.66668-11.590477-11.696494-21.229419-21.168116-28.553137-27.994484-3.237246-3.017406-5.951958-5.450387-8.049801-7.218129zm-444.548-11.833239-.086416.155688c-5.7643 10.269276-21.327736 37.757297-47.576473 84.03844l93.529198-6.627642-.074417-.737472c-4.281545-42.093975-6.93642-66.033521-7.754664-70.220472-.46064-2.357095-1.750549-3.505833-2.910383-3.505833-2.354955 0-8.73818-.487062-15.601017-1.102315l-.938481-.084659c-.470393-.042693-.942267-.085906-1.414495-.129526l-1.051908-.097778c-6.309445-.590141-12.53315-1.23777-15.986736-1.671419zm-57.398717 60.813465.572563-1.005252c24.456291-43.132763 38.486784-67.935726 41.052062-72.562239l.1692-.306073c.12346-.224194.203037-.371163.238487-.44047.427801-.836377.909125-1.590273 1.436521-2.266036l1.485275-271.298437c-16.0109 60.019048-30.995602 175.97855-44.954108 347.878507zm469.071938-359.371947-.973539.000673-.559731.001383-.561782.002338c-5.351541.026848-11.188796.187025-23.438468.590789-13.783532.454322-19.596598.60582-25.778062.60582-2.879845 0-5.405051.111156-7.614886.323148l-6.849217 290.245304c5.027799-.037395 15.237783-.190769 27.405654-.390045l.247121.222539c6.169636-.101714 12.821284-.214925 19.541458-.330716l2.918069-.050361 3.035849-.052545 1.515733-.026282c.252413-.004379.504706-.008756.756858-.013133l1.511037-.026236 1.506588-.026177c14.186015-.246561 27.637645-.482265 36.373087-.621227l-6.746747-290.799138c-9.474158.223509-16.898544.338222-22.289022.343866zm-404.035447-3.545506-1.547985 282.666569c.038325.004188.076811.00839.115454.012605 3.063428.334164 6.857936.724172 10.590464 1.086454 8.9471.868413 16.130559 1.441069 18.331138 1.441069 4.12836 0 8.002016 1.144727 11.352578 3.17427-4.641528-180.570068-6.950789-274.31532-6.950789-282.20492 0-4.043465-.488079-4.565427-4.379674-4.786782l-.197042-.013161c-11.973983-.918612-20.905784-1.375469-26.699032-1.375469-.207038 0-.412071-.000211-.615112-.000635zm610.219733-436.5619557v215.4404297h-35.685546v-172.381836l-52.643555 17.990234v-30.2294918l83.757812-30.8193359zm-427.369198 142.0664297-16.45 18.355h107.256l-16.539446-18.352529-73.983909.000069zm69.719-161.336-65.051226.0003688-4.385129 141.3381712 72.856355-.00054z"/></svg>