<svg height="960" viewBox="0 0 960 960" width="960" xmlns="http://www.w3.org/2000/svg"><path d="m787 0c22.09139 0 40 17.90861 40 40v735c0 102.172679-82.827321 185-185 185h-508c-22.09139 0-40-17.90861-40-40v-880c0-22.09139 17.90861-40 40-40zm0 40h-653v880h508c80.081289 0 145-64.918711 145-145zm-113 703c11.045695 0 20 8.954305 20 20s-8.954305 20-20 20h-437c-11.045695 0-20-8.954305-20-20s8.954305-20 20-20zm0-103c11.045695 0 20 8.954305 20 20s-8.954305 20-20 20h-437c-11.045695 0-20-8.954305-20-20s8.954305-20 20-20zm0-103c11.045695 0 20 8.954305 20 20s-8.954305 20-20 20h-437c-11.045695 0-20-8.954305-20-20s8.954305-20 20-20zm-40.298943-409c1.611208 0 3.143177.687215 4.199708 1.876626 1.082943 1.189411 1.584795 2.801723 1.399902 4.387605l-13.444347 115.822189h57.528072c3.803509 0 7.237232 1.95592 9.191813 5.206976 1.954581 3.277488 2.033821 7.21576.237719 10.598973l-95.246202 178.147319c-.97729 1.823764-2.852631 2.960312-4.939279 2.960312h-.237719c-1.611208 0-3.143177-.687215-4.199708-1.876626-1.05653-1.189411-1.558382-2.801723-1.373489-4.387605l13.444347-115.822189-57.528072-.026431c-3.803508 0-7.237232-1.95592-9.191813-5.206977-1.954581-3.277487-2.060234-7.215759-.264132-10.572541l95.246202-178.147319c.97729-1.823764 2.852631-2.960312 4.939279-2.960312zm-172.701057 240c5.522847 0 10 4.477153 10 10v59c0 5.522847-4.477153 10-10 10h-54c-5.522847 0-10-4.477153-10-10v-59c0-5.522847 4.477153-10 10-10zm-90-79c5.522847 0 10 4.477153 10 10v138c0 5.522847-4.477153 10-10 10h-54c-5.522847 0-10-4.477153-10-10v-138c0-5.522847 4.477153-10 10-10zm-90 42c5.522847 0 10 4.477153 10 10v96c0 5.522847-4.477153 10-10 10h-54c-5.522847 0-10-4.477153-10-10v-96c0-5.522847 4.477153-10 10-10z"/></svg>