<svg height="960" viewBox="0 0 960 960" width="960" xmlns="http://www.w3.org/2000/svg"><path d="m262.247142 2.91004391 481 34.95891209c16.206201 1.177861 28.752858 14.6694986 28.752858 30.9184468v827.1439712c0 16.290365-12.608662 29.801589-28.860173 30.926059l-481 33.281218c-.712211.049279-1.425913.07394-2.139827.07394-5.861431 0-11.499112-1.648112-16.343251-4.655931l-.288749-.182654-37.530231-14.618143c-10.6256-4.138618-17.666571-14.299855-17.837769-25.67412v-867.167091c0-11.7187188 7.297693-22.1978121 18.289053-26.2620927l33.819426-12.50542576c.573887-.21220625 1.1539-.40529624 1.739078-.57909493l.303443-.08603297.072089-.05170909c5.723955-4.00782416 12.753616-6.04866545 20.024053-5.52025264zm.825858 40.53282479.242509-.1839969c-1.296864 1.0127024-2.709198 1.8575943-4.201973 2.5196903l.000126 872.7541389c.854179.285959 1.686777.628872 2.492337 1.025895l323.038001-21.830727 147.356-10.195863v-810.3760004l-250.692-18.2201369zm-23.96 8.718-11.114 4.1101369v850.1890004l11.114 4.328863zm240.438534 365.6590573 1.022896.013867 80.280822 1.715219c1.838092.039271 3.652757.157053 5.44105.3501 31.409001 3.330239 54.883698 29.057073 54.883698 60.600888s-23.474697 57.270649-54.8839 60.600823c-1.788091.193112-3.602756.310894-5.440848.350165l-80.280822 1.715219c-.751316.016052-1.499453.018123-2.244188.006447l.384877-.006359c-34.746405.726486-62.895119-27.403862-62.895119-62.666295 0-34.557184 27.034025-62.264714 60.818424-62.67543l1.036304-.004626.655514.007402c.06746-.001057.134949-.002002.202465-.002834zm-42.371534 62.680074c0 24.468129 18.353062 43.823903 41.227763 44.310543l81.95916-1.715455c1.300225-.027185 2.583466-.10708 3.847783-.237579 21.616816-2.291865 37.605294-20.189221 37.605294-42.357509s-15.988478-40.065644-37.605276-42.357439c-1.264335-.130569-2.547576-.210464-3.847801-.237649l-81.95916-1.715455c-22.874701.48664-41.227763 19.842414-41.227763 44.310543zm44.861535-39.679994.549776.002855 80.078688.975264c10.076069.122714 17.563577 3.84642 25.131257 11.318863 7.223568 7.101313 11.378744 16.694177 11.378744 26.904956 0 10.211292-4.155616 19.803511-11.365678 26.888638-7.582352 7.483871-15.071213 11.204754-25.147987 11.323454l-80.078689.943288c-10.456647.123174-20.274477-4.019474-27.508332-11.366323-7.166047-7.309021-11.259314-17.241292-11.259314-27.816816 0-10.576014 4.093665-20.507615 11.274282-27.8286 6.967674-7.073699 16.354045-11.175683 26.398719-11.340418zm.326189 18.361493c-5.404611-.065822-10.438494 2.056223-14.179595 5.854222-3.814582 3.889165-6.008129 9.210909-6.008129 14.958464 0 5.748043 2.193945 11.071628 5.995686 14.949249 3.7557 3.81435 8.790599 5.938833 14.195703 5.875163l80.078689-.943288c4.829348-.056887 8.019049-1.641708 12.481294-6.045966 3.765514-3.700281 5.888628-8.600969 5.888628-13.807399 0-5.206944-2.123554-10.109494-5.904344-13.826329-4.449249-4.393238-7.639934-5.980037-12.469243-6.038852z"/></svg>