<svg height="960" viewBox="0 0 960 960" width="960" xmlns="http://www.w3.org/2000/svg"><path d="m283.815273 2.69977 491.241948 28.9439262c21.140906 1.2456201 37.647285 18.7531793 37.647285 39.9307492l-.000006 173.2890736 26.029907 2.516795c20.299919 1.962418 35.837685 18.870728 36.151093 39.197399v360.402276c0 20.216225-15.084196 37.254509-35.151348 39.705045l-39.359652 4.805485.000223 140.55041c0 19.152786-13.570094 35.587967-32.313639 39.254606l-.569561.107192-478.912166 86.58959c-10.48342 1.895452-21.28985-.469389-30.023393-6.570214l-163.3689709-114.121559c-10.2339163-7.148912-16.5434201-18.665848-17.0592445-31.138775l-8.6478219-209.109224c-.0301787-.729738-.0452728-1.460021-.0452728-2.190382 0-19.322547 10.3382523-36.230465 25.785165-45.494163l.5796812-.342481-1.129-181.816-.2139859-.123222c-15.6303162-9.22446-25.6569213-26.628716-24.6091594-45.910798l.0517002-.827506 17.5019747-247.8530615c1.256831-17.7985294 14.1501313-32.6123512 31.6050483-36.3127779l154.160884-32.68196909c3.497712-.74151178 7.079053-1.01071483 10.648311-.80041451zm476.559381 664.198749-419.586047 55.367226c-.410451.060845-.826028.096315-1.244403.10541-.17084.003713-.342147.003029-.513761-.002122-.025493-.00127-.050838-.002083-.076161-.002991-.051841-.001541-.103876-.003912-.155932-.006695-.04765-.00258-.095048-.005366-.142365-.008486-.033514-.002427-.067196-.004886-.100884-.007519-.067827-.004819-.13518-.010647-.202359-.017149-.018048-.002532-.036698-.004427-.05535-.006375-.068034-.006113-.135316-.013709-.202413-.02198-.020467-.003827-.041484-.006527-.0625-.009295-.922124-.118279-1.808043-.365164-2.638446-.722002l-43.931475-17.481971-.000904 212.737949 468.913069-84.78159zm-488.913-622.1480001-144.15998 30.5619693-17.501975 247.8530618c-.394319 5.584122 3.812848 10.430607 9.396971 10.824926.825802.058313 1.655638.015239 2.470965-.128262 5.962867-1.049485 11.647502 2.933598 12.696988 8.896465.106483.605007.161925 1.217893.165739 1.832187l1.389142 223.702511c.046213 7.441983-5.949244 13.512366-13.391227 13.558579l-.083676.00026c-7.185196 0-13.009947 5.824751-13.009947 13.009947 0 .179248 0 .358478.011111.537573l8.647822 209.109225 153.368067 107.135558.000904-222.300949c0-7.066992 7.13103-11.904259 13.69726-9.291408l44.170836 17.576357v-395.281l-48.913022-5.138531c-5.090306-.534827-8.955074-4.826932-8.955074-9.945257zm553.423618 252.6362121-475.554 5.835v397.743l475.554-62.752zm-112.395925 60.608407v237.612164c0 5.036212-3.745205 9.286603-8.741368 9.920476l-299.464126 37.993655c-5.974482.757996-11.258632-3.898101-11.258632-9.920476v-264.539588c0-5.379146 4.25524-9.794537 9.630718-9.993179l299.464126-11.066231c5.663786-.209296 10.369282 4.325527 10.369282 9.993179zm-20.000126 10.376-279.464 10.327v243.554l279.464-35.457zm102.855854 200.074406-.161791 24.624695c-.06622 10.119751-7.63488 19.017487-17.641411 19.753476l-35.106625 2.582123c-10.71114.787814-19.060174-8.021276-18.967753-18.747567l.213683-24.79974c.087479-10.15282 7.667249-19.073213 17.703723-19.753218l35.044227-2.374366c10.657667-.722094 18.984884 8.041984 18.915947 18.714597zm-20.010732 1.405122-31.651 2.144-.002908.036185-.201092 23.243815 31.704-2.332zm37.975335-77.341524-.143828 24.565355c-.059175 10.143611-7.665693 19.022278-17.709274 19.659654l-34.99817 2.221022c-10.658082.676374-18.933104-8.138542-18.84926-18.810696l.196495-24.740381c.080562-10.176672 7.698354-19.07822 17.772072-19.658744l34.935772-2.013265c10.604117-.61109 18.857422 8.158825 18.796193 18.777055zm-20.008863 1.324826-31.497 1.816-.183 23.191 31.546-2.002zm3.024506-75.189208-.161793 24.624694c-.066605 10.178637-7.705627 19.05754-17.791236 19.595189l-34.889715 1.859921c-10.622994.566296-18.806839-8.293772-18.715182-18.931376l.213682-24.79974c.087989-10.211907 7.738457-19.11392 17.854481-19.593811l34.827317-1.652164c10.568423-.501353 18.730801 8.31364 18.662446 18.897287zm-20.009084 1.189037-31.337 1.486-.201 23.307 31.386-1.673zm37.865232-76.764339-.14383 24.565355c-.059523 10.203208-7.738177 19.063203-17.86071 19.499411l-34.781261 1.498819c-10.567463.455381-18.678221-8.408847-18.595079-18.992548l.196497-24.740381c.081036-10.236462 7.771307-19.119797 17.924415-19.497353l34.718862-1.291062c10.512421-.390917 18.601817 8.428259 18.541106 18.957759zm-20.007214 1.110162-31.18 1.16-.184 23.213 31.229-1.345zm-502.712601-300.9601011.000904 235.0390001 48.331096 5.079 432.91-5.312.000852-206.4510736z"/></svg>