<?xml version="1.0" encoding="UTF-8"?>
<svg width="960px" height="960px" viewBox="0 0 960 960" version="1.1" xmlns="http://www.w3.org/2000/svg" xmlns:xlink="http://www.w3.org/1999/xlink">
    <title>com.innr/drivers/ceilinglight/assets/icon</title>
    <g id="com.innr/drivers/ceilinglight/assets/icon" stroke="none" stroke-width="1" fill="none" fill-rule="evenodd">
        <path d="M481,214 C605.395467,214 722.58762,233.7461 811.293784,269.866671 C902.095507,306.74403 956,358.957081 956,416.5 C956,418.183107 955.952672,419.866171 955.858187,421.548522 L955.778485,422.810141 L955.679,424.097 L957.916,543.23 L957.944762,543.903019 L957.976226,544.935319 L957.976226,544.935319 L958.000113,545.967658 L958.000113,548.029952 C958.000113,548.237855 958.000113,548.444994 958.000113,548.651322 L957.977968,548.960201 L957.930212,550.490942 C955.771068,604.822336 903.988872,653.807621 817.747555,689.09086 L815.123649,690.155846 L812.424547,691.233866 C723.274906,726.644261 605.509834,746 480.5,746 C355.490166,746 237.725094,726.644261 148.592106,691.240472 C58.8683505,655.695054 4.93819028,605.618261 3.05096289,549.986469 L3.027,549.048 L3,548.486123 L3,548.486123 L3,548.145027 L3,547 C3,545.855122 3.02266049,544.71019 3.06793368,543.565432 L3.102,542.807 L5.81015125,416.571148 C5.82317753,415.963793 5.86317982,415.363237 5.92899921,414.770617 L6.00338137,414.180683 L6.039,413.937 L6.0645492,413.053901 C8.12858927,358.004013 59.5880787,308.053871 145.367006,272.070374 L147.976857,270.984249 L150.689321,269.873542 C239.41238,233.7461 356.604533,214 481,214 Z M481.051759,378.213152 C362.450605,378.213152 251.063075,396.950728 167.716235,430.833881 C88.4592372,462.970292 44.0517593,505.914466 44.0517593,547.213152 C44.0517593,554.628671 45.4835079,562.097242 48.2917213,569.546792 C61.6057652,598.452626 99.7566686,628.203898 159.225912,652.406541 L161.034532,653.13825 L163.341361,654.059037 C247.422314,687.45614 360.247717,706 480.5,706 C600.752283,706 713.577686,687.45614 797.675291,654.052431 C873.91713,623.848078 916.38938,584.559246 917.954916,549.050638 L917.989828,547.97579 L917.999,546.952 L917.999,546.25726 L917.97642,545.514032 L917.935366,544.483296 L917.927909,544.196168 L917.910362,543.167246 C915.117821,503.124562 871.058901,461.921995 794.378844,430.830455 C711.040444,396.950728 599.652914,378.213152 481.051759,378.213152 Z M481.051759,397.119667 C591.718058,397.119667 695.868794,412.151584 774.428889,439.552935 C853.625387,467.10416 899.988034,505.571446 899.988034,547.619667 C899.988034,589.667889 853.625387,628.135175 774.436555,655.683729 C695.868794,683.087751 591.718058,698.119667 481.051759,698.119667 C370.385461,698.119667 266.234724,683.087751 187.67463,655.6864 C108.478132,628.135175 62.1154844,589.667889 62.1154844,547.619667 C62.1154844,505.571446 108.478132,467.10416 187.666963,439.555605 C266.234724,412.151584 370.385461,397.119667 481.051759,397.119667 Z M481.051759,417.119667 C372.490569,417.119667 270.528059,431.83576 194.246025,458.442529 C122.284123,483.476951 82.1154844,516.805042 82.1154844,547.619667 C82.1154844,578.434293 122.284123,611.762384 194.253691,636.799476 C270.528059,663.403574 372.490569,678.119667 481.051759,678.119667 C589.61295,678.119667 691.57546,663.403574 767.857494,636.796806 C839.819395,611.762384 879.988034,578.434293 879.988034,547.619667 C879.988034,516.805042 839.819395,483.476951 767.849827,458.439858 C691.57546,431.83576 589.61295,417.119667 481.051759,417.119667 Z M481,254 C361.47358,254 249.335315,272.894553 165.7575,306.926877 C89.1477554,338.040439 46.8509794,378.579083 46.0127048,415.385801 L46,416.5 L46.0012777,416.856713 C46.0072405,417.689204 45.962272,418.510114 45.8692955,419.3165 L45.7906074,419.91852 L45.74,420.246 L44.2113127,491.408978 C66.4188505,461.415809 106.263904,434.169483 160.192649,412.302946 C246.109059,377.375175 360.019764,358.213152 481.051759,358.213152 C602.083755,358.213152 715.99446,377.375175 801.90243,412.299519 C855.05417,433.851006 894.524591,460.62604 916.914272,490.105401 L915.665428,423.75269 C915.650811,422.974595 915.681623,422.19631 915.757705,421.421805 C915.919279,419.777011 916,418.136738 916,416.5 C916,379.399007 873.62608,338.354718 796.225604,306.920006 C712.664685,272.894553 600.52642,254 481,254 Z" id="Shape" fill="#000000" fill-rule="nonzero"></path>
    </g>
</svg>