<svg height="960" viewBox="0 0 960 960" width="960" xmlns="http://www.w3.org/2000/svg"><path d="m198.355781 14.9342046c2.902155.7205708 5.734501 1.6300711 8.497326 2.7677352 3.40313 1.4013261 6.679206 3.1361847 9.81326 5.312944 6.111268-2.1076251 12.707038-3.5807566 19.475204-4.407884.089577-.0109471.17919-.0215909.268839-.0319315l.86386-.0996416c.08993-.0103731.179896-.0204408.269895-.030203 10.409004-1.1290668 20.739681-.6727609 29.922041 1.5953041 2.874499.7100083 5.681342 1.6066511 8.421445 2.7291157 3.176363 1.3011755 6.243509 2.8944568 9.188986 4.8742052 5.655931-1.8399222 11.702728-3.1370524 17.893773-3.8936508.089577-.0109471.179191-.021591.26884-.0319315l.863859-.0996417c.089931-.010373.179896-.0204407.269895-.0302029 10.409004-1.1290668 20.739682-.6727609 29.922041 1.5953041 2.8745.7100083 5.681342 1.6066511 8.421446 2.7291157 3.408592 1.3963066 6.691413 3.128993 9.834987 5.3083021 4.214983 2.9220719 8.0319 6.5390566 11.236706 11.0262278 2.087395 2.9226415 3.82515 6.1034732 5.147848 9.491419 5.654503 4.0206396 10.194726 9.5074098 13.080055 15.9247332l40.616906 2.8293659c1.480984-3.8229746 3.448162-7.3313448 5.789404-10.5244435 4.358166-5.9438764 9.753242-10.5127227 15.839198-14.1005728 8.76938-5.169807 19.178447-8.3444318 30.407526-9.7167208.089576-.010947.17919-.0215909.268839-.0319314l.86386-.0996417c.08993-.010373.179896-.0204407.269895-.0302029 10.409004-1.1290668 20.739681-.6727609 29.922041 1.595304 2.874499.7100083 5.681342 1.6066511 8.421445 2.7291158 2.512755 1.0293329 4.957161 2.2414675 7.327223 3.6823479 4.337187-1.2386138 8.890232-2.1278428 13.58672-2.7017936.089577-.010947.179191-.0215909.26884-.0319314l.863859-.0996417c.089931-.010373.179896-.0204407.269895-.0302029 10.409004-1.1290668 20.739681-.6727609 29.922041 1.595304 2.8745.7100083 5.681342 1.6066511 8.421446 2.7291158 2.100619.8605046 4.153472 1.8487632 6.155043 2.9918233 4.688959-1.4137054 9.638682-2.4141745 14.7589-3.0399086.089576-.010947.17919-.0215909.268839-.0319315l.86386-.0996416c.08993-.0103731.179896-.0204407.269894-.0302029 10.409005-1.1290669 20.739682-.672761 29.922042 1.595304 2.874499.7100083 5.681342 1.6066511 8.421445 2.7291157 3.408592 1.3963066 6.691413 3.128993 9.834987 5.3083021 4.214983 2.9220719 8.0319 6.5390567 11.236706 11.0262278 2.087395 2.9226415 3.82515 6.1034733 5.147847 9.4914187 4.641515 3.2910187 8.52541 7.5790689 11.357149 12.5595969l95.129995 6.6287474c15.854225 1.1047373 29.550547 11.4905603 34.892328 26.4586023l9.765346 27.363183 40.201893 1.705123c18.692646.792829 34.338535 14.437115 37.666918 32.848129l67.393537 372.788588c3.275872 18.120545-6.242425 36.136318-23.057527 43.642172l-34.324077 15.321438 1.379782 71.740639c.323304 16.80989-9.899724 32.027701-25.584064 38.08397l-84.480806 32.620975-3.321079 15.00373 9.186989 65.638884c2.557519 18.27288-7.715551 35.924323-24.866812 42.726771l-65.707259 26.060483c-3.985916 1.580874-8.200095 2.510559-12.481179 2.75346l-123.542623 7.009582c-1.324296.075138-2.638031.084781-3.937502.029608-4.129133 5.865667-9.869906 10.637721-16.799643 13.621025-12.68764 5.462123-26.974935 8.497734-42.825983 9.427711-8.220774.482311-15.676517.304154-22.578898-.681387-4.207063-.600697-8.248199-1.506976-12.156459-2.791702-4.779062-1.570977-9.316525-3.6921-13.563488-6.498108-5.448483-3.599862-9.861526-8.42794-12.938732-14.011857l-310.042519 16.013018c-21.045197 1.086938-39.324192-14.340167-41.7886808-35.268809l-27.2384014-231.310745c-1.8250417-15.498404 5.5269219-30.534397 18.6281071-38.65862.8434422-9.151145 4.8388923-17.768313 11.3417044-24.33898l-23.1472832-192.939988c-20.67655 2.030203-40.8060091-12.575047-43.5356851-34.986016l-26.63011594-218.63646c-1.69515367-13.917415 4.0200812-27.706444 15.06371964-36.343924l72.2807764-56.5324328c5.1627707-4.2889768 11.4073989-7.2560191 18.1990119-8.4605923.533541-2.7514875 1.334397-5.4312189 2.374546-8.0103802 2.089831-5.1819551 4.996428-9.6454844 8.464439-13.5187013 2.581814-2.8834765 5.409982-5.3629844 8.445376-7.5435911 2.446746-1.7577261 5.017945-3.3109587 7.703925-4.6969398 8.674888-4.4762914 18.994843-7.4143655 29.749595-8.7355299.090024-.0110589.180084-.0218116.270181-.0322578l.88065-.1021072c.090381-.0104793.180797-.0206501.271248-.0305123 10.548135-1.1501147 21.013555-.6854507 30.302593 1.6209083zm286.538876 724.5534984 5.76422 49.768383c10.94078.790358 19.30742 10.366169 18.433987 21.486215l-2.329298 29.655276c-.641334 8.165099-6.19615 15.114001-14.019489 17.537946l-14.758379 4.571285 3.443 32.537.3228 3.041423c3.553889 2.348088 9.330645 3.547857 17.330267 3.599308l.56172.001727.568933-.002c1.717619-.011589 3.532615-.073483 5.44499-.185681 11.47425-.673192 21.258217-2.751984 29.351902-6.236375l-.556612-4.448402-2.226426-17.833992-.000574-.001008v-.002l-9.39203-75.212091 3.333502-10.564285-1.882766-47.813811-39.401757-.000386c.004086.033794.00809.067617.01201.101468zm-255.273892 129.716135-63.657067 22.69097 293.416-15.154-.866268-8.199946-7.819306 2.423208-.255426.074738-.266692.079276c-1.400393.392454-2.839948.631137-4.293159.711464l-190.357617 10.522085c-10.18311.562875-19.137833-6.622619-20.825274-16.642913l-.055298-.346643-.01448-.095121c-1.175528 1.792722-2.917273 3.192505-5.005413 3.936882zm-154.2827587-741.185057-31.2817343 24.465191 26.6301159 218.636459 23.1578716-12.277156v16.895715l16.1805575-4.618559 30.03466 250.348476-13.93001 10.495418 2.392054 19.367233-21.10301 10.870823 25.916187 220.091427 37.768-13.464.025047-.777233c5.748574-184.224074 2.495684-323.786006-9.715267-418.517788-12.259867-95.111278-40.94167-202.296321-86.0744717-321.516006zm653.3286917 729.176027-91.823 5.629-35.314 13.762 91.310341-5.179585zm-120.809-123.197-54.24459 22.75669 5.475808 42.362611 8.891782 69.077699 55.687036-21.700222zm-342.527 17.748-11.68 5.111-7.969 47.554 8.73571 57.971309 190.357616-10.522085 1.745674-.541224 29.32045-9.086187-.00045.001187 10.984279-3.402323 2.132721-27.166677-194.005254 9.108042-6.866167 1.586254c-5.60494 1.29488-11.144035-2.39454-12.109202-8.065565zm-148.149-656.4550005-26.1830096 20.4781265c1.0768402 1.009191 1.945982 2.273334 2.5047271 3.746219 45.9627305 121.160521 75.2208505 230.301587 87.7449525 327.462783 12.215562 94.76756 15.563718 232.926318 10.086236 414.637951l26.036976-9.278252 8.059118-48.091827-.3183-2.118818c-.254393-1.688301-.291553-3.402229-.110572-5.099969l4.299793-40.335375c.514908-4.830232 2.754792-9.222964 6.186763-12.450761l.527447-3.143295c.521756-3.113035 2.482657-5.79699 5.289791-7.240326l73.229683-37.652289c-4.570686-151.085674-11.546727-261.002987-20.886853-329.791168-9.327313-68.69382-29.025032-155.332326-59.100131-259.843271l-74.745681 55.964532-42.61494-67.2442605zm624.686695 630.8863335-114.419695 3.511667 15.838 112.702 113.869-6.98-8.795426-62.849025-.000574-.001975zm-276.840926 15.611598-180.164769 5.516069 9.104962 53.492247 176.931038-8.307247-3.861-33.332zm370.706231-42.282931-510.525 13.699-26.589 13.67 165.795509-5.076695c.172187-.005274.343965-.008347.515306-.009244l-.515306.009244c.173729-.005321.347042-.008402.519906-.009258.339412-.001703.676723.005125 1.012102.020283.009176.000663.01784.001064.026503.001472 1.707335.079127 3.364884.37452 4.943167.860838l6.897439-2.276247c2.023277-.668094 4.140316-1.00858 6.271043-1.00858h40.199037c10.739538 0 19.561949 8.481847 19.984513 19.213069l.017927.461803c.514915-.271103 1.04502-.52154 1.589536-.749962l63.781353-26.755941c2.259489-.947843 4.673916-1.472425 7.123006-1.547614l124.473932-3.821417c10.203684-.313258 19.00567 7.108441 20.420664 17.218391l.622363 4.456858zm25.093-90.339-529.159744 4.640137c1.01355 24.99561 1.945453 51.375712 2.795891 79.14129l526.693305-14.130794c.34095-.009149.67837-.001122 1.011433.023296zm-737.050304-297.727309c16.374446 62.502819 27.05822 114.440334 32.04446 155.879948 4.974852 41.344966 8.162916 104.564753 9.589551 189.797184.09243 5.522074-4.309167 10.073528-9.831241 10.165957-5.522074.09243-10.073528-4.309167-10.165958-9.831241-1.416077-84.601648-4.574238-147.228464-9.449123-187.742625-4.863496-40.419512-15.372802-91.508875-31.53478-153.200686-1.399638-5.342551 1.796725-10.808176 7.139276-12.207814 5.342552-1.399638 10.808177 1.796725 12.207815 7.139277zm260.072459 269.443155-24.721155 12.682154 505.503-4.432 39.046-17.429-508.648638-4.604381c-1.594753 5.844527-5.572597 10.906565-11.179207 13.783227zm-68.381544-412.271178-36.936449 23.574944c16.695255 65.798923 28.341284 122.969622 34.935737 171.53646 7.003613 51.580231 12.667613 125.581283 17.004081 222.067536l44.24813-22.702207c.734612-.376918 1.16119-1.169775 1.070935-1.991721-11.246768-102.424337-20.670371-179.260079-28.26282-230.461544-7.007845-47.259047-16.505686-99.987384-28.494048-158.178467-.321405-.875308-.522603-1.806962-.585414-2.773889-.390237-1.228219-1.859614-1.786265-2.980152-1.071112zm51.843288 159.08983c7.341079 49.506284 16.357761 122.623039 27.057142 219.390837l522.272959 4.728665-63.587-351.733-512.160024-20.556778c10.995013 54.164579 19.800798 103.55288 26.416923 148.170276zm110.057742-108.678471 308.675302 14.42515c4.689506.219152 8.595218 3.670945 9.389149 8.297949l45.003478 262.278908c1.048305 6.109487-3.657191 11.691148-9.855963 11.691148h-312.472059c-4.953972 0-9.161227-3.627108-9.890925-8.527045l-41.206722-276.704057c-.927783-6.23008 4.065822-11.75609 10.35774-11.462053zm-49.525443 270.729335c5.15862-1.577921 10.820912 1.987479 12.647084 7.963544s-.875311 12.09978-6.033931 13.677701-10.820912-1.987479-12.647084-7.963544.875311-12.09978 6.033931-13.677701zm60.741031-250.183376 38.145398 256.147196h291.988975l-41.63801-242.665057zm-65.968839 192.669451c6.516152-1.993164 13.548105 2.116445 15.706309 9.179067 2.158203 7.062622-1.374613 14.403786-7.890764 16.396949-6.516152 1.993164-13.548105-2.116445-15.706309-9.179067-2.158203-7.062622 1.374613-14.403786 7.890764-16.396949zm-14.393904-72.004774c6.516152-1.993163 13.548106 2.116445 15.706309 9.179067s-1.374613 14.403787-7.890764 16.39695c-6.516152 1.993163-13.548105-2.116445-15.706308-9.179067s1.374612-14.403786 7.890763-16.39695zm-10.28136-72.004773c6.516152-1.993163 13.548106 2.116445 15.706309 9.179067s-1.374612 14.403787-7.890764 16.39695c-6.516151 1.993163-13.548105-2.116445-15.706308-9.179067s1.374612-14.403787 7.890763-16.39695zm-11.309496-68.918854c6.516152-1.993164 13.548106 2.116445 15.706309 9.179067s-1.374612 14.403786-7.890764 16.396949c-6.516151 1.993164-13.548105-2.116444-15.706308-9.179067-2.158203-7.062622 1.374612-14.403786 7.890763-16.396949zm-113.357182-47.494337 31.434355-20.063051c10.937934-6.980836 24.910308-2.91765 30.915327 7.549644l444.54687 17.844708-14.508262-40.657719-511.95535-35.665758c7.091859 24.638286 13.614242 48.302037 19.56706 70.992176zm-100.88426-118.7378835-.88065.1021072c-12.962602 1.592387-22.994034 6.768663-22.405831 11.5615361l-.000133 32.4165492-7.325574-.4290085 23.345791 36.8379715 46.177209-34.5769715-1.277023-22.5243206-14.431225.0000005.427684-16.5083706c.055882-.3284062.065024-.6562872.025002-.9823932-.574834-4.6839442-11.079347-7.2683122-23.65525-5.8971001zm429.316382 33.9362502-.86386.0996417c-12.715449 1.553936-20.499344 6.6052221-19.922356 11.2823632l-.001354 5.1739294 43.631 3.039.33627-12.881558c.054817-.3204763.063784-.64044.024526-.9586716-.563875-4.5708425-10.868103-7.0928065-23.204226-5.7547047zm-60.660024-4.1145585-.863859.0996417c-12.715449 1.5539361-20.499344 6.6052222-19.922356 11.2823633l-.001331 5.0624873 43.634 3.0400005.333246-12.7711165c.054817-.3204763.063784-.64044.024526-.9586716-.563874-4.5708424-10.868102-7.0928065-23.204226-5.7547047zm-60.660023-5.1431981-.86386.0996417c-12.715448 1.5539361-20.499343 6.6052222-19.922356 11.2823633l-.001307 5.9796854 43.61 3.038.357223-13.6863141c.054817-.3204763.063784-.64044.024526-.9586716-.563875-4.5708424-10.868102-7.0928065-23.204226-5.7547047zm-238.52755-19.5441527-.863859.0996417c-12.715449 1.553936-22.555616 6.6052221-21.978629 11.2823632l-.001485 23.6198382 12.198202-9.1316409c3.841656-2.8764491 8.589554-4.2755899 13.377146-3.9420623l34.269652 2.3867032-.084785-1.4917193-14.156071.0000002.419529-16.1097477c.054817-.3204763.063784-.64044.024526-.9586716-.563874-4.5708425-10.868102-7.0928065-23.204226-5.7547047zm66.82884 5.1431981-.86386.0996417c-12.715449 1.553936-22.555616 6.6052221-21.978628 11.2823632l-.001325 8.2756401 59.817 4.168-.056946-1.0025212-14.156071.0000008.419529-16.1097483c.054817-.3204763.063784-.64044.024526-.9586716-.563874-4.5708425-10.868102-7.0928065-23.204225-5.7547047z"/></svg>