<svg height="960" viewBox="0 0 960 960" width="960" xmlns="http://www.w3.org/2000/svg"><path d="m482.5 4c170.907062 0 311.462763 134.53407 323.644326 305.86659l.023592.381336.112737.368933c.876332 2.959059 1.420693 6.063529 1.589364 9.271184l.028712.642894c10.148692 276.144667 15.101269 416.84103 15.101269 429.710156 0 16.853471-7.481296 44.582219-18.702003 70.217971-14.469302 33.057757-33.820732 60.724017-58.656993 78.259602-53.48251 37.761205-146.438558 60.281334-265.175133 60.281334-58.640078 0-110.205345-6.081686-154.529863-16.829541-33.415217-8.102557-60.667971-18.393932-79.577963-28.656496-18.528011-10.05526-42.80295-33.559942-61.964681-59.828655-24.389942-33.436037-39.393364-68.817407-39.393364-103.444215 0-35.950855 4.252295-171.137846 12.792195-407.278964l.228723-6.299203-.019608-2.339256-.000573-.080916-.000737-.242754c0-182.084351 145.110352-330 324.5-330zm-292.254804 776.531364.372141 1.122437c15.060551 44.602479 56.43973 86.728566 74.820275 96.703796 22.692032 12.315098 92.09717 40.642403 215.028259 40.642403 122.93109 0 202.452658-24.961622 242.104199-52.957502 25.69758-18.143718 43.468161-53.817972 52.79313-81.598788-52.711328 38.983534-149.92789 56.912029-291.969308 54.95521-151.0898-2.081474-248.608814-21.036164-293.148696-58.867556zm292.254804-736.531364c-157.125011 0-284.5 129.837423-284.5 290l.026082 3.223221c-8.174701 225.705894-12.501791 360.940611-12.981269 405.704149.976022.833116 1.805757 1.872934 2.419659 3.092945 22.821664 45.35358 121.900818 70.979219 296.204922 73.380502 157.855021 2.174675 257.121255-20.764287 297.312313-67.039269.604086-.695529 1.283143-1.287406 2.014706-1.774049.002781-.119235.003587-.233823.003587-.346406 0-11.248213-4.379921-136.422702-13.139764-375.523467-9.972474 90.670547-65.076445 169.253086-149.928592 198.470023-121.945299 41.989134-258.24641-34.194559-304.826793-169.473815-46.580384-135.279256 13.922992-279.228168 135.868291-321.217302 120.133019-41.3651154 254.198323 31.956263 302.690935 163.481838-36.564608-117.126899-144.143211-201.97837-271.164077-201.97837zm-25.015495 57.406904c-110.999965 38.220353-166.605976 170.517512-123.469283 295.795567 43.136694 125.278055 168.405093 195.29516 279.405058 157.074807 110.999966-38.220354 166.605977-170.517513 123.469284-295.795568-43.136694-125.278054-168.405093-195.2951597-279.405059-157.074806zm7.533668 14.602726c100.987567-32.4892547 214.384457 26.730112 253.279042 132.270157 38.894585 105.540046-11.441723 217.434902-112.429291 249.924157-100.987567 32.489255-214.384457-26.730111-253.279042-132.270157-38.894585-105.540045 11.441723-217.434902 112.429291-249.924157z"/></svg>