<?xml version="1.0" encoding="UTF-8"?>
<svg width="960px" height="960px" viewBox="0 0 960 960" version="1.1" xmlns="http://www.w3.org/2000/svg" xmlns:xlink="http://www.w3.org/1999/xlink">
    <!-- Generator: Sketch 60.1 (88133) - https://sketch.com -->
    <title>com.technisat.smarthome/drivers/single-button/assets/icon</title>
    <desc>Created with Sketch.</desc>
    <g id="com.technisat.smarthome/drivers/single-button/assets/icon" stroke="none" stroke-width="1" fill="none" fill-rule="evenodd">
        <path d="M873,1 C918.287349,1 955,37.7126505 955,83 L955,83 L955,876 C955,921.287349 918.287349,958 873,958 L873,958 L81,958 C35.7126505,958 -1,921.287349 -1,876 L-1,876 L-1,83 C-1,37.7126505 35.7126505,1 81,1 L81,1 Z M873,61 L81,61 C68.8497355,61 59,70.8497355 59,83 L59,83 L59,876 C59,888.150264 68.8497355,898 81,898 L81,898 L873,898 C885.150264,898 895,888.150264 895,876 L895,876 L895,83 C895,70.8497355 885.150264,61 873,61 L873,61 Z M790,125 C812.643675,125 831,143.356325 831,166 L831,792 C831,814.643675 812.643675,833 790,833 L164,833 C141.356325,833 123,814.643675 123,792 L123,166 C123,143.356325 141.356325,125 164,125 L790,125 Z M790.224938,160 L164,160 C160.761603,160 158.122428,162.565575 158,165.775062 L158,792 C158,795.238397 160.565575,797.877572 163.775062,798 L790,798 C793.238397,798 795.877572,795.434425 796,792.224938 L796,166 C796,162.761603 793.434425,160.122428 790.224938,160 Z" id="Combined-Shape" fill="#000000" fill-rule="nonzero"></path>
    </g>
</svg>