<svg height="960" viewBox="0 0 960 960" width="960" xmlns="http://www.w3.org/2000/svg"><path d="m219.072938 1.11670861 609.452744 22.27141629c21.359559.7805488 38.331625 18.2154168 38.537389 39.5882421l8.139145 845.222082c.209913 22.000375-17.385607 40.041713-39.384395 40.380338l-617.589997 9.511239c-2.190365.028979-4.379798-.117296-6.546211-.442087l-63.410004-9.506502c-19.582181-2.935784-34.069432-19.756885-34.069432-39.557912v-845.2220817c0-16.9816814 10.722526-32.1124114 26.744679-37.7398524l6.837812-2.4016359 56.572192-19.86978037c4.722418-1.65864893 9.714185-2.41625172 14.716078-2.23346602zm614.068239 693.46431739-603.919851.240794c-.541508 0-1.077996-.021501-1.608656-.063697l-.000493 223.177903 607.59-9.352501zm-625.529-649.979-46.572188 16.3577814-6.837812 2.4016359v845.2220817l53.41 8.006501zm21.601-3.089.000206 633.308794 603.734794-.240794-5.883252-611.2195827z"/></svg>