<svg height="960" viewBox="0 0 960 960" width="960" xmlns="http://www.w3.org/2000/svg"><path d="m292 14c32.2533 0 62.59282 2.212506 85.422525 6.1486621 11.874444 2.0473179 21.628263 4.5365512 29.011125 7.5460418 4.735773 1.9304524 8.734145 4.1468606 12.096473 6.979841 3.225743 2.7178992 5.844957 5.9746576 7.504418 9.7677984l.054459.1296567 123.425 10.448.247681-.1290771c9.396871-4.8920598 22.813556-8.1865787 40.507812-10.8150746l.819696-.1208457c21.82779-3.1937597 49.126127-4.9550026 77.910811-4.9550026 32.2533 0 62.59282 2.212506 85.422525 6.1486621 11.874444 2.0473179 21.628263 4.5365512 29.011125 7.5460418 4.735773 1.9304524 8.734145 4.1468606 12.096473 6.979841 5.005464 4.2174298 8.550498 9.7323506 9.315344 16.5355081l.043533.426947 19.859337 1.6827635c43.054662 3.6447925 76.244823 39.3312955 76.90432 82.3934695l.010004 1.307147v633.065141c0 43.958653-33.89165 80.48302-77.727133 83.765453l-18.905528 1.415026-.002656.07026-.004716.101815c-.011324.246319-.019081.432105-.023347.55444l-.000281-.063515-.003365.342358c-.145259 7.87702-3.903886 14.164894-9.465512 18.850927-3.362328 2.83298-7.3607 5.049388-12.096473 6.979841-7.382862 3.00949-17.136681 5.498724-29.011125 7.546042-22.829705 3.936156-53.169225 6.148662-85.422525 6.148662s-62.59282-2.212506-85.422525-6.148662c-11.874444-2.047318-21.628263-4.536552-29.011125-7.546042-4.735773-1.930453-8.734145-4.146861-12.096473-6.979841l-.211877-.180285-114.352 8.563-.013677.165395c-.64063 6.860408-4.090777 12.432785-9.030681 16.707876l-.331519.283084c-3.362328 2.832981-7.3607 5.049389-12.096473 6.979841-7.382862 3.009491-17.136681 5.498724-29.011125 7.546042-22.829705 3.936156-53.169225 6.148662-85.422525 6.148662-32.253303 0-62.592898-2.212506-85.422677-6.14866-11.874481-2.047316-21.628333-4.536546-29.011217-7.54603-4.735783-1.930447-8.734164-4.146847-12.0965-6.979818-5.67289-4.779752-9.469935-11.226067-9.469933-19.33563l.00046-.869209.000593-.311292c.017857-7.722379.218962-16.323986.703583-25.525953l.058691-1.090308-6.901612-1.933172c-35.903414-10.060659-60.8324956-42.562594-61.3274869-79.755576l-.0075068-1.128477-.0013943-29.627775-.4116573-.413481c-27.8848876-28.369745-44.7441411-76.231938-45.1133427-128.447568v-1.722951c0-52.884311 16.9220278-101.489018 45.1133427-130.170519l.4116573-.414481v-76.831l-.4116573-.413481c-27.8848876-28.369745-44.7441411-76.231938-45.1133427-128.447568v-1.722951c0-52.884311 16.9220278-101.489018 45.1133427-130.170519l.4116573-.415481.0013943-20.944873c0-39.39915 27.3711467-73.4451796 65.7207607-81.9871598l1.165453-.2510206.681392-.1429466-.006844-.3522715c-.050968-2.6394327-.078029-5.1388999-.086259-7.500389l-.002052-.7820555-.000596-.953284c0-8.0995626 3.797162-14.5459077 9.470186-19.3256518 3.36237-2.8329282 7.360786-5.0492953 12.096619-6.9797181 7.382977-3.0094538 17.13697-5.4986702 29.011614-7.5459799 22.830096-3.9361414 53.170014-6.1486502 85.423332-6.1486502zm-95.896084 882.524336-.006916.297664.100913.032846c4.136813 1.302647 9.74706 2.611423 16.516905 3.799401l.658756.114584c20.398025 3.516887 48.511699 5.567069 78.626426 5.567069 30.114717 0 58.228308-2.05018 78.626248-5.567066 7.065078-1.218117 12.905327-2.569314 17.175555-3.913977l.197197-.063857.000394-6.850261.001606-.290739-69.866261 5.083976c-12.405929.902549-24.87508-.305612-36.876967-3.573082l-83.710564-22.790455c-.820816 10.000809-1.260307 19.542441-1.443292 28.153897zm569.68803-34.357636-176.633862 12.850014c.184754.032911.370395.065734.556916.098465l.658752.114584c20.39794 3.516886 48.511531 5.567067 78.626248 5.567067s58.228308-2.050181 78.626248-5.567067c7.285862-1.256183 13.269146-2.653893 17.571279-4.040016l.235473-.077747.003392-.0591c.036205-.747204.066161-1.372949.085122-1.793195l.006585-.147796c.102798-2.341477.191015-4.64184.263847-6.945209zm-455.793537-785.2654774.001591.0894876.738812 795.2951538c.000881.948824-.130411 1.867058-.376491 2.737208 2.106719-.004281 4.215085-.083153 6.321224-.236378l417.858372-30.399445c7.619068-33.700238 11.469275-80.16219 11.469275-139.24366 0-62.426486-4.293574-140.595768-12.887054-234.469599l.016316.184722-.333016-2.602007c-11.599779-90.750086-17.463905-167.906366-17.581189-231.509892l-.001795-1.942814c0-55.62406 4.401854-96.655982 13.535294-123.537384l-415.088241-34.1387806c-1.223449-.100626-2.44807-.1761482-3.673098-.2266118zm-21.53626 1.7079736-132.248006 26.7326678c-.402841.08143-.803602.16787-1.202224.259246-15.821214 6.855882-26.485525 22.569184-26.485525 40.368555l-.001611 17.190919.210639-.064955c5.555553-1.702109 11.325369-2.595629 17.264578-2.595629.433173 0 .86601.004854 1.298483.014552l-1.298483-.014552c.544965 0 1.088503.007523 1.630581.022503.409277.011978.818283.02785 1.22693.048054.123559.00468.247046.01107.370454.017846.265421.016492.53111.033179.796637.051699 1.202437.079989 2.396424.199181 3.582473.354395l23.630482.002503.160982-.022311c2.139058-.276356 4.290812-.432523 6.451482-.467246l.926536-.007443c49.378352 0 87 62.05129 87 137 0 72.700249-35.398209 133.265315-82.58839 136.833789l-.71061.044211-.013936.005916c-.99616.36781-2.066976.581533-3.183543.612238l-.280078.003846h-39c-1.123291 0-2.203324-.185208-3.211229-.526753l-.21908-.073112c-.331114-.01933-.661662-.04145-.991635-.066343-.479555-.036177-.957896-.078213-1.435-.126061-.1192-.011952-.239104-.024351-.35893-.037116-.361499-.038516-.721618-.080287-1.081012-.125363-.132022-.016558-.26421-.033597-.396298-.051083-.334584-.044294-.668316-.091421-1.001407-.141396-.205361-.03081-.410675-.062734-.615743-.095738-.262314-.042218-.524143-.08619-.785564-.13192-.211241-.036952-.422079-.075027-.632649-.114244-.257766-.048007-.515219-.097744-.772268-.149186-.221374-.044302-.442584-.089898-.66349-.136755-.235657-.049987-.470812-.101374-.70562-.154189-.230451-.051834-.46059-.10505-.69039-.159635-.242043-.057492-.483863-.116542-.725303-.177107-.216521-.054313-.432679-.10983-.64853-.16656-.230701-.060633-.460936-.122619-.690816-.185983-.233087-.064249-.465908-.129941-.698361-.197046-.236344-.068226-.472562-.137989-.708395-.209208-.148264-.044775-.295956-.089995-.443497-.135786v69.321168l.210639-.064955c5.555553-1.702109 11.325369-2.595629 17.264578-2.595629h39c49.493405 0 87.223443 62.050003 87.223443 137s-37.730038 137-87.223443 137h-39c-6.014307 0-11.854911-.916259-17.475217-2.660584l.001611 25.871942c0 17.676865 10.542493 33.417657 26.400607 40.329344l131.584481 35.822562c1.407956.383311 2.823771.731984 4.246167 1.045895-.01244-.201179-.018645-.402238-.018833-.604715l-.738571-793.9922507c-.513402.0945099-1.026121.193512-1.538096.2970029zm446.762305 156.1948028c0 63.674076 5.921443 141.582526 17.776219 233.681732.015629.121419.029027.243115.040187.365025 8.644777 94.434192 12.970332 173.185721 12.970332 236.292833 0 57.112169-3.538686 102.982738-10.684538 137.731409l19.107885-1.390343c7.292355-36.253611 10.965705-83.329211 10.965705-141.139351 0-61.888881-4.207101-137.541318-12.627545-226.925722l-.239193-2.528582-.329621-2.456933c-11.604587-86.846287-17.471249-161.885036-17.588583-225.150052l-.001796-1.933007c0-53.67073 4.158582-95.9153 12.62758-126.919725l-17.814835-1.464537c-9.328538 23.48714-14.201797 64.286161-14.201797 121.837253zm39.389052 6.547009c0 63.333722 5.918853 139.038169 17.768675 227.077424.017437.129547.032332.259423.044677.389554 8.646779 91.150463 12.973386 168.315384 12.973386 231.527318 0 56.210268-3.418871 102.730866-10.303421 139.637117l12.507152-.910201c7.067485-38.332594 10.620479-85.996498 10.620479-142.935301 0-61.964578-4.206125-136.231236-12.624641-222.773182l-.237098-2.426737-.32759-2.349847c-11.609213-83.567405-17.478231-156.827183-17.595613-219.806995l-.001797-1.924743c0-53.063953 4.105066-96.274602 12.413407-129.740746l-12.298543-1.012008c-8.567523 29.068779-12.939073 70.88993-12.939073 125.248347zm32.824209 5.504407c0 63.044938 5.916449 136.894991 17.761504 221.520773.01913.136669.035428.273719.048885.411062 8.648747 88.271187 12.97635 164.045206 12.97635 227.349669 0 55.578235-3.334297 102.707502-10.036573 141.43715l-.114916.008313c.504548-.036706 1.006756-.081285 1.506507-.13361 18.630765-5.226046 32.083189-22.319223 32.083189-42.363251v-633.065141c0-20.204851-13.675243-37.434793-32.579285-42.497904-.189673-.017638-.378707-.034322-.568079-.049897l-8.449173-.695816c-8.382264 31.970762-12.628409 74.704274-12.628409 128.078652zm-661.437715 271.644585c-7.079118 0-13.986745 2.019763-20.513972 5.765535-1.110068 1.782874-2.50658 3.395333-4.154356 4.768914-22.6657703 18.894115-38.331672 59.974187-38.331672 106.465551s15.6659017 87.571436 38.331672 106.465551c1.647735 1.373547 3.04422 2.985962 4.155799 4.765376.216542.128633.434951.251802.653776.373036 6.333576 3.508926 13.016051 5.396037 19.858753 5.396037 35.805255 0 67.223443-51.669671 67.223443-117s-31.418188-117-67.223443-117zm46.61858.781741 1.049199 1.050157c24.101441 24.515943 39.555664 67.200104 39.555664 115.168102 0 48.660098-15.903399 91.882784-40.604277 116.217891 32.526884-6.692034 59.604277-55.568324 59.604277-116.217891s-27.077393-109.525857-59.604863-116.218259zm-46.61858-338.781741c-7.079118 0-13.986745 2.019763-20.513972 5.765535-1.110156 1.782975-2.506633 3.395377-4.154356 4.768914-22.6657703 18.894115-38.331672 59.974187-38.331672 106.465551s15.6659017 87.571436 38.331672 106.465551c1.647776 1.373581 3.044288 2.98604 4.15588 4.765505 6.525703 3.749181 13.43333 5.768944 20.512448 5.768944 35.805255 0 67.223443-51.669671 67.223443-117 0-63.996782-30.148639-114.884907-65.036546-116.935736-.051365-.00407-.102698-.006935-.15404-.009696l.15404.009696c-.316914-.01863-.634219-.033229-.951896-.043772l.797856.034076c-.358877-.019298-.71818-.033483-1.077905-.042547zm46.689353.849613.978426.982285c24.101441 24.515943 39.555664 67.200104 39.555664 115.168102 0 48.613914-15.873225 91.800733-40.533969 116.14855 31.918282-6.870881 58.50673-54.649495 59.077712-114.192738l.009371-1.955812c0-60.449858-26.819807-109.202104-59.087204-116.150387zm476.310647-102.349613c-20.32132 0-39.757571.931788-56.575085 2.6322519l153.248085 12.6037481-.004821-.1442679c-.043235-1.1315151-.089929-2.26449-.14008-3.4068116-.018154-.4135036-.050977-1.1003865-.091707-1.9409905l-.003392-.05993-.235473-.0769175c-4.171765-1.3441187-9.924338-2.6991337-16.912527-3.9254317l-.658752-.1145841c-20.39794-3.5168863-48.511531-5.5670667-78.626248-5.5670667zm-377-25c-30.114773 0-58.228803 2.0501881-78.627193 5.5670786-7.065286 1.2181274-12.905729 2.5693372-17.176122 3.9140195l-.095685.0299019.01414.6217014c.089303 3.8855614.235099 8.1025694.455266 12.6462242l87.929083-17.7732322c10.134348-2.0485615 20.506908-2.6580778 30.811437-1.8105534l62.402042 5.1319401c-.003497-.2966903-.000729-.5934698.008339-.8900834l.021693-.5139967-.279104-.0582454c-1.931943-.4040975-3.995086-.7998857-6.178896-1.1831038l-.658752-.1145841c-20.39794-3.5168863-48.511531-5.5670667-78.626248-5.5670667z"/></svg>