<svg height="960" viewBox="0 0 960 960" width="960" xmlns="http://www.w3.org/2000/svg"><path d="m152.052763-1.36188166 639.059685 48.42109856c29.20303 2.2126929 51.769048 26.553204 51.769048 55.8399411v731.928114c0 28.559818-21.492222 52.544042-49.881035 55.664695l-617.520825 67.881236c-4.111832.451995-8.268895.26344-12.322924-.55894l-26.46803-5.369175c-26.104697-5.29547-44.8668715-28.24579-44.8668715-54.882178v-843.0848504c0-1.411831.0533911-2.823157.1600588-4.2309527 2.3366906-30.839548 29.2313457-53.94567921 60.0708937-51.60898856zm-20.185221 54.63109766c-.030477.4022273-.045731.8054633-.045731 1.2088436v843.0848504c0 7.610397 5.360621 14.167631 12.819106 15.680623l17.540331 3.558634c-.617707-2.221468-.947869-4.562667-.947869-6.980978v-865.0820741c0-.6697948.025882-1.3393395.077589-2.0071356.085471-1.1038723.238693-2.1862869.455272-3.2434818l-12.735586-.9647068c-8.811299-.6676259-16.495486 5.9341258-17.163112 14.7454253zm49.383742-8.9932862c-.017905.1541067-.017905.3086171-.017905.4631851v865.0820741c0 3.313708 2.686292 6 6 6 .220477 0 .440786-.012153.659925-.036402l607.135044-67.184245c4.731626-2.802089 7.853148-7.955401 7.853148-13.77327v-731.928114c0-8.3676391-6.447434-15.3220708-14.791157-15.9542688l-605.597242-45.8851355c-.69688.896106-1.147621 1.9996781-1.241813 3.2161761zm343.732705 182.4122242c119.561862 3.575023 215.865878 116.1147 215.865878 250.917105 0 134.802404-96.304016 247.342082-215.865878 250.917104-120.656565 3.607756-220.612854-110.040115-220.612854-250.917104s99.956289-254.52486 220.612854-250.917105zm-200.612854 250.917105c0 130.247101 91.406052 234.173561 200.015101 230.926039 108.161438-3.234138 196.463631-106.422985 196.463631-230.926039 0-124.503055-88.302193-227.691901-196.463631-230.92604-108.609049-3.247522-200.015101 100.678938-200.015101 230.92604zm200.311562-215.928495c64.583538 1.931115 123.263912 41.112238 157.076069 102.397531.816147 1.479285 1.244198 3.141236 1.244198 4.830727v217.400473c0 1.689492-.428051 3.351442-1.244198 4.830728-33.812157 61.285292-92.492531 100.466416-157.076069 102.39753-63.134726 1.887794-121.943678-33.88678-157.28404-93.359018-.918505-1.545698-1.403276-3.310448-1.403276-5.108457v-234.922039c0-1.798009.484771-3.562758 1.403276-5.108457 35.340362-59.472238 94.149314-95.246811 157.28404-93.359018zm-138.159105 100.392718-.528211.860777v229.349l.528211.861777c31.617335 51.037281 82.121578 81.404236 135.897163 80.44143l1.664188-.039778c56.043864-1.675769 107.52904-35.337731 138.304048-88.771843l.61339-1.077586-.00057-17.054851-42.578033.000924c-5.522847 0-10-4.477152-10-10 0-5.522847 4.477153-10 10-10l42.578033-.000924.00057-175.122149-.61339-1.076586c-30.460977-52.888866-81.211623-86.407037-136.58986-88.710566l-1.714188-.061277c-54.396441-1.62651-105.618064 28.838213-137.561351 80.401652z"/></svg>