<svg height="960" viewBox="0 0 960 960" width="960" xmlns="http://www.w3.org/2000/svg"><path d="m352.003459-.10706127.748475.03970237 1.658592.11228136 167.503721 12.29398194c5.38466.4364594 10.284161 1.2776165 15.150811 2.812274 7.809313 2.4626023 14.946538 6.5694507 20.926442 12.84522 6.168825 6.4740382 9.960594 14.0717193 11.845756 22.167378.133882.5749441.256894 1.1430028.369741 1.7059704l.161733.8408574.09327.5363958.639501-.1037052c2.450856-.3861463 4.937807-.6306139 7.461034-.7502799l1.083605-.0436936.669043-.0194207.735342-.0162152 1.403258-.017905 1.008432-.0000737.984981.0119878.649969.0149658.974442.0333192.985245.0468555.669176.0390302.683493.0454559 1.060409.0805906 1.114032.09597 1.180499.1119026 1.699596.1749431 2.369165.2618897 5.35743.6216026 1.833113.1968543 1.938465.1820816c6.324858.6176042 12.125906 1.8586973 17.805968 4.1219772 8.389843 3.3430206 15.751989 8.7046849 21.340702 16.1658359 5.032289 6.7183024 7.845328 13.9798486 9.193659 21.633993.734708 4.1707563.981261 7.9312563 1.007725 12.4196333l.002449.850379-.000733 24.700026.224004.172772c9.518734 7.432067 16.119294 18.464896 17.947471 32.259108l.082193.648623.012332.114497 16.648069.692036 16.342884.650338 11.432495.409903 3.976446.112673c6.59018.214058 12.635954 1.096541 18.732006 3.109139 9.151699 3.021414 17.291508 8.357683 23.5912 16.088285 5.669894 6.957752 9.055304 14.788316 10.850219 23.273268 1.144703 5.411255 1.619998 10.934895 1.664666 17.148734l.003509.986952-.195586 176.959981-.085936 114.551328-.020197 90.069955.033095 55.887686.043894 26.934869.076107 23.080287.045059 7.137929.040943 3.879837.019359 1.144674.050391 1.856795c.781094 34.983639-18.937824 57.532588-49.232088 60.841971l-.921234.094388-1.386211.121142-1.018514.075832-1.375094.085078-1.999845.099925-46.183637 2.438995.000259 70.521693-.008996 2.459079-.009857 1.13802-.014017 1.08556-.02979 1.544016-.026347.982485-.03205.952482-.038194.928896-.044779.911727-.051805.900973-.059271.896636-.067179.898714-.075527.907209c-.60534 6.926086-1.894151 13.226534-4.498105 19.599572-7.660922 18.749691-24.005171 30.21336-44.215785 32.63029l-.613621.070469-1.54822.159212-2.494617.233388-3.224033.283919-7.187942.601936-12.752535 1.022778-24.398414 1.893044-32.656867 2.478943-44.277805 3.314218-32.433503 2.403741-.153519.090511c-6.578734 3.7823-13.550074 6.575109-21.47529 7.867272l-.823275.128298-.803328.113847c-1.230645.165898-2.471954.29101-3.724151.372654l-.941192.053041-.453568.023261-3.534132.216106-13.70595.931594-34.3489 2.471041-18.237503 1.367351-8.310837.65218-2.908557.241877-1.436804.109049-1.417665.093161-1.399021.077075-1.380871.060788c-19.20746.73609-33.224439-3.374798-48.160861-14.79765-10.759657-8.228608-18.552363-17.931718-22.411677-28.906596l-.210353-.611022-.124546-.377838-.411251-.313089c-9.493957-7.335825-15.202681-18.560404-15.529147-30.571931l-.011127-.54651v-246.739218c0-11.546389 4.86785-21.872103 12.59775-29.139644l.382458-.354946.445317-.402662-.975-242.795-.297182-.283365c-7.221651-7.004546-11.809421-16.709257-12.134804-27.485627l-.01318-.568158-.005359-.661473v-264.337424c0-13.2453879 6.555701-25.6198189 17.485663-33.0621461l.428051-.2874563 17.420226-11.5563447 14.857812-9.9172728 4.517208-3.063715 2.00086-1.4160757 1.156153-.80547751.806937-.54653415 1.106291-.72532912c2.593798-1.67162758 5.187292-3.11337943 8.143688-4.4019112 7.403722-3.22687843 15.069027-4.52418067 23.043095-4.15275169zm5.999541 879.52906127.000211 31.427455c0 2.606845-.421549 5.003566-1.206474 7.133935l.225968-.018502 6.47677-.492599v-34.847zm-13.960766-837.9728284-.542674-.0002156c-.616908.355207-1.25465.768652-1.94337 1.2400902l-.41959.2898202-.727652.5119578-1.053935.7501903-.590312.4120913-3.866487 2.6340424-5.180103 3.478918-6.464921 4.3151509-22.215715 14.7467359v264.337424h12.334468l1.216867 302.879997-13.551335-1.189122v246.207573l11.131806 7.914512c.546128.256887 1.076629.567063 1.584557.93167l15.157255 10.913773 2.937954 2.120504c1.992605 1.438569 3.945791 2.588633 5.705945 3.38228l.448008.195436.000211-32.175124c0-3.396872.128132-5.978506.453374-8.151645l.056044-.358477c.615409-3.771946 1.866048-6.799946 4.713314-9.231083 3.591342-3.066465 7.841234-3.460671 11.924816-2.253466 1.868639.552415 3.581753 1.371218 5.882446 2.681173l33.441294 19.501649 8.840497 5.123212 8.248857 4.750797 6.170146 3.527163 4.470521 2.534261 2.681316 1.507547 2.435538 1.357997 2.184143 1.205036 2.222939 1.207998.288486.15488c2.295716 1.230392 4.254351 2.060882 5.855345 2.541196l.399713.113886.000775-155.734339c0-6.728137 1.18504-11.468841 5.479547-14.966282l.284505-.226339c2.768982-2.15222 6.020494-2.949507 9.380929-2.725604 1.986546.132362 3.943669.604492 6.11577 1.375817l3.947768 1.4309 4.626592 1.63886 9.698885 3.389464 13.618197 4.705999 13.022503 4.453768 6.416569 2.173879 6.230375 2.090203 5.470669 1.803885 1.352868.436905 1.427923.452959 1.097125.336925.020244-.519816.020438-.807746.012043-.877635.003639-.87951-.001364-541.097293-4.901498 1.456826-5.762157 1.734153-13.915938 4.231944-10.041516 3.080065-12.104027 3.742828-7.129216 2.226824-4.820906 1.522994-3.386486 1.086778-1.857503.609559-1.107825.37503-.592186.21007-.163105.06088c-5.450751 2.074981-9.780804 2.730655-14.219174 1.002933-5.998796-2.335148-8.473562-7.571148-8.56157-13.753585l-.002441-.34443-.000713-52.415326c-.367794-.420412-.701013-.871987-.995154-1.35033-7.467941 1.450749-14.797996-3.343294-14.97785-12.632257l-.00338-.350446-.001267-61.2266618-.009994-.5774742-.019624-.5189071c-.024313-.4903271-.062499-.8959699-.112848-1.2264273l-.024622-.1440396-.106848-.0489071c-.246847-.1095645-.572067-.2327238-.98335-.3635257l-.21285-.0660104c-2.983928-.9028287-7.719989.2627459-12.092396 2.351997l-19.606327 9.6763441-10.2904 5.1209091-5.257447 2.657728-1.542504.803136-.2172.116425c-2.017717 1.089583-3.798482 1.855887-5.575856 2.314944-3.014703.778633-6.056979.70778-9.043732-.828683-3.246752-1.670213-5.141929-4.439544-6.007837-7.5877577-.412863-1.5010615-.569744-2.9534173-.594856-4.6345822l-.003704-.5114913-.001308-50.6093749-.010247-.7213007-.021138-.6788502-.034901-.0037967c-1.397105-.1397961-3.021332-.259655-4.5289-.3164344l-.374262-.0128558-.837473-.0194029zm28.456682 852.3955074.000425.495737c.07866 4.183775 2.058842 7.970486 5.515294 9.890043 4.913689 2.728834 11.438462.919969 15.350689-4.227717l-6.87594-3.976602-12.876357-7.504732c-.723128 1.762649-1.08432 3.572261-1.114111 5.323271zm85.773084-143.757679.000475 153.995289 7.228-.537 1.820206-76.729033 157.810641-10.795048.000085 74.333621c4.186704-1.750469 6.331514-4.938071 7.429655-9.30931l.076227-.312364.139956-.625843c.059337-.281531.11491-.567554.16696-.858006l.07546-.438993.103668-.670851.070571-.51279.064698-.520991.077568-.707302.017902-.179068.017325-.17996.063715-.728712.055232-.742795.012554-.187881.01207-.188749.043638-.76363.03666-.777329.030286-.790874.034793-1.211372.023837-1.240987.014913-1.270083.008022-1.298661.002358-93.314989-103.759979-.523417c-.497154-.00251-.985651-.041258-1.463002-.113727-2.228982-.1364-4.602829-.607494-7.265526-1.378437l-.799207-.237593-1.396407-.433895-2.055651-.658207-4.048063-1.326795-8.856877-2.96395-12.69387-4.315087-12.264526-4.214688-10.391154-3.6032-7.679092-2.689146zm21.783649 111.907848c-5.164906 9.317737-2.573091 20.628804 5.788981 25.263976 8.362071 4.635172 19.327853.839203 24.492759-8.478534s2.573091-20.628804-5.78898-25.263976c-8.362072-4.635172-19.327854-.839203-24.49276 8.478534zm52.428737-2.967665c-5.164906 9.317737-2.573091 20.628805 5.78898 25.263977 8.362072 4.635172 19.327854.839203 24.49276-8.478534s2.573091-20.628804-5.788981-25.263976c-8.362071-4.635172-19.327853-.839204-24.492759 8.478533zm51.439515-3.956885c-5.164906 9.317737-2.573091 20.628804 5.788981 25.263976 8.362071 4.635172 19.327853.839203 24.492759-8.478534s2.573091-20.628804-5.78898-25.263976c-8.362072-4.635172-19.327854-.839203-24.49276 8.478534zm-37.432197-647.923075c.003591.219402.006135.440653.00766.663765v541.81259l-.008163.998793-.015231.965357c-.006478.316338-.014397.627291-.02387.933044l-.021625.561517 148.673.751 7.814814-.420365 16.224711-.830165c.486209-.025043.971886-.052907 1.455475-.086494l.723625-.055035.539963-.048219.462062-.04701.459598-.052751.456823-.059074.453733-.065984.450333-.073476.446619-.081553.111038-.021718.110781-.022269.440462-.094764.435966-.1043.108252-.027633.107947-.028276.428637-.119701.106347-.03162.106012-.032318.420604-.136416.104265-.035936.103901-.036688.411868-.154445.102007-.040581.101615-.041387.402427-.173789c4.658423-2.106711 7.951094-6.997554 7.641139-18.851454l-.015005-.497953-.006501-.205725-.019005-.779811-.030038-1.831235-.049053-4.907708-.059989-10.519985-.047942-14.22752-.076058-53.723679-.014239-53.648081.008245-40.452528.055991-94.924963.237428-227.040598-.001458-.233093-.002047-.231414-.01416-.908967-.005052-.223096-.005665-.221449-.028859-.869426-.038964-.843491-.011349-.20686-.011999-.205266-.054578-.805225-.01531-.197373-.015983-.195811-.070742-.767725-.081824-.74315c-.931276-7.784688-3.78927-11.446436-9.90094-12.83401l-.319029-.069753-.594124-.116447-.613627-.103606c-.545528-.085137-1.113736-.155919-1.705358-.213371l-.599456-.053046-.704415-.050035-.179352-.010782-.180659-.010101-.735777-.033708-.375828-.012911-.381162-.010338-3.164776-.089274-2.180365-.074065zm112.188038 369.220323c19.831875 2.084414 34.103299 20.952236 31.876117 42.142459-2.227183 21.190223-20.109582 36.678542-39.941458 34.594127-19.831875-2.084414-34.103299-20.952235-31.876117-42.142458 2.227182-21.190224 20.109582-36.678542 39.941458-34.594128zm40.003178-154.451313c7.335077.770948 12.610061 7.782643 11.782006 15.661059-.828055 7.878417-7.445581 13.640158-14.780658 12.869211-7.335078-.770948-12.610061-7.782643-11.782007-15.661059.828055-7.878417 7.445582-13.640158 14.780659-12.869211zm0-45.504186c7.335077.770947 12.610061 7.782642 11.782006 15.661059-.828055 7.878416-7.445581 13.640158-14.780658 12.86921-7.335078-.770948-12.610061-7.782643-11.782007-15.661059.828055-7.878416 7.445582-13.640158 14.780659-12.86921zm0-45.504187c7.335077.770948 12.610061 7.782643 11.782006 15.661059s-7.445581 13.640158-14.780658 12.86921c-7.335078-.770947-12.610061-7.782642-11.782007-15.661059.828055-7.878416 7.445582-13.640158 14.780659-12.86921zm0-45.504187c7.335077.770948 12.610061 7.782643 11.782006 15.661059-.828055 7.878417-7.445581 13.640158-14.780658 12.869211-7.335078-.770948-12.610061-7.782643-11.782007-15.661059.828055-7.878416 7.445582-13.640158 14.780659-12.869211zm0-45.504186c7.335077.770948 12.610061 7.782642 11.782006 15.661059-.828055 7.878416-7.445581 13.640158-14.780658 12.86921-7.335078-.770948-12.610061-7.782642-11.782007-15.661059.828055-7.878416 7.445582-13.640158 14.780659-12.86921zm-72.535626-75.876339-168.215819 2.083141.000525 42.086711 3.602804-1.159068 5.390689-1.706361 9.234497-2.884669 15.073587-4.652107 11.025407-3.369894 12.304989-3.722298 5.218644-1.555778 3.030904-.886258 1.261473-.357946 1.365509-.372666.868655-.220149.528227-.122594c.171008-.037944.337635-.07309.501939-.1058l.488001-.091188c.161716-.028203.323169-.054335.486416-.078758l.497184-.068508.520304-.06044c1.779995-.189739 3.5204-.136159 5.207888.237945l98.456358 1.069826.000893-13.620032-.002849-.360933c-.098175-6.163018-2.726709-9.053001-6.846225-10.082176zm-21.324179-65.004657.005808.2590546-.005696.8473534-.000752 44.16039 9.49-.117.000258-34.763315-.004531-.919104-.014888-.888263-.027194-.857706-.025926-.554967-.032837-.541596-.040324-.528308-.011319-.130011-.011831-.129187-.052637-.508535-.014532-.125088-.015099-.124271-.066247-.48895-.076041-.475999-.020608-.116986-.021266-.116183-.091814-.456729c-.741286-3.4297053-2.460112-5.7508973-6.302851-7.1304359l-.334605-.115944-.533129-.168725c-.857553-.2567221-1.809064-.4738662-2.864605-.6528982l-.536487-.0863469-.478852-.0685696c1.344609 1.2010678 2.01705 2.7964364 2.088005 4.7983196zm-162.86864-8.5562023.000525 48.2197113.264696-.016329c.303203-.015423.609369-.023193.918681-.023004l.466352.006292c1.487042.039138 2.874219.267652 4.153871.666866l-.000033-46.8788768-.008054-1.2308897-.005038-.3267698zm118.473015 25.0308043c-2.720765 9.488435 2.172972 19.101795 10.752306 21.561879 8.579335 2.460085 17.823764-3.099221 20.544529-12.587656 2.720765-9.488436-2.172972-19.101796-10.752307-21.56188-8.579334-2.460085-17.823763 3.099221-20.544528 12.587657zm-49.461072-2.967665c-2.720765 9.488436 2.172971 19.101795 10.752306 21.56188s17.823763-3.099221 20.544528-12.587657c2.720766-9.488436-2.172971-19.101795-10.752306-21.5618796s-17.823763 3.0992206-20.544528 12.5876566zm-51.439516-2.967664c-2.720765 9.488436 2.172972 19.101795 10.752307 21.56188 8.579334 2.460084 17.823763-3.099221 20.544528-12.587657s-2.172971-19.1017952-10.752306-21.5618799-17.823763 3.0992209-20.544529 12.5876569zm-89.311241-68.2605088c.018631.5593692.029777 1.1351014.034037 1.7281453l.001995.5629804-.000693 39.6576191 2.941475-1.4637113v-40.267zm153.229814 11.5810335v23.394l7.882.567.000408-12.404822-.002828-.548171-.015761-.7948282-.019041-.5118245-.026549-.4975552-.034643-.4834401-.043323-.4694788-.052586-.4556715-.014663-.1117786-.015287-.1109276-.067579-.4352492-.078307-.4218268-.089618-.4085583c-.727066-3.0613408-2.489153-4.9817298-6.449203-6.0671857l-.344842-.0910015-.54952-.1315734zm-41.788154 11.688932c-.784509 2.7804376-.856609 5.6287503-.270555 8.2847057l.094709.4003623 25.86 1.861.118174-.2503891c.280153-.6220823.525361-1.2659644.733709-1.9291504l.149321-.5009699c2.36421-8.3791757-1.856826-16.8060258-9.154837-18.9327568-7.263711-2.1167358-15.174822 2.718187-17.530521 11.0671982zm-93.978425-6.6266739c-1.59971 5.6590134-.280074 11.3446131 2.946373 15.2121059l8.52483-4.2094779c2.953042-1.4561259 6.094007-2.7166973 9.797205-3.6664399 2.290148-.5873443 4.562569-.9841372 6.808919-1.153831 1.3379-7.9700687-2.922566-15.5701054-9.918942-17.6051112-7.531041-2.1905212-15.722704 2.8064707-18.158385 11.4227541zm47.978425 3.6266739c-.738082 2.6158918-.846597 5.2931982-.366082 7.8185882l.017761.0871911 2.236478.2290095 2.43603.2379908 4.358382.404134 4.278424.3771443 3.321453.2828062 7.305984.5990838 2.248249.1788314.138221-.315578c.206795-.4919243.392101-.9967346.555026-1.5132581l.155432-.5203846c2.36421-8.3791757-1.856826-16.8060258-9.154837-18.9327568-7.263711-2.1167358-15.174822 2.718187-17.530521 11.0671982z"/></svg>