<svg height="960" viewBox="0 0 960 960" width="960" xmlns="http://www.w3.org/2000/svg"><path d="m92.0593168 49.3242582c2.7975307-30.3762776 29.4622942-52.99946361 59.9934462-50.68613986l639.059685 48.42109856c29.20303 2.2126929 51.769048 26.553204 51.769048 55.8399411v731.928114c0 28.559818-21.492222 52.544042-49.881035 55.664695l-617.520825 67.881236c-4.111832.451995-8.268895.26344-12.322924-.55894l-26.46803-5.369175c-26.104697-5.29547-44.8668715-28.24579-44.8668715-54.882178v-843.0848504c0-1.411831.0533911-2.823157.1600588-4.2309527zm56.6571372-10.8212291c-8.679062-.4893666-16.189234 6.0597839-16.848912 14.7661869-.030477.4022273-.045731.8054633-.045731 1.2088436v843.4353374c.165438 7.460477 5.475367 13.840421 12.819106 15.330136l17.540331 3.558634c-.617707-2.221468-.947869-4.562667-.947869-6.980978v-865.0820741c0-.6697948.025882-1.3393395.077589-2.0071356l.036664-.4284055c.0896-.9556267.230065-1.8946373.418501-2.8145534l-12.735479-.9652297zm33.776643 2.5567246c-.69688.896106-1.147621 1.9996781-1.241813 3.2161761-.017905.1541067-.017905.3086171-.017905.4631851v865.0820741c0 3.313708 2.686292 6 6 6 .220477 0 .440786-.012153.659925-.036402l607.134276-67.183791c4.732056-2.801986 7.853916-7.955541 7.853916-13.773724v-732.25767c-.169998-8.2199998-6.55722-15.0008332-14.791157-15.6247128zm361.690453 223.1137063 3.266155.01147 2.446411.019764 2.298778.029283 2.151495.038824 2.482784.061979.865432.027534c2.977827-.077727 5.972393-.072541 8.982038.017451 102.693693 3.070647 185.323357 99.630646 185.323357 215.225494s-82.629664 212.154846-185.323357 215.225494c-5.119292.153072-10.194958.060779-15.218824-.267564l.000258.33884h-48.520633c-105.329666 0-184.937444-93.710002-184.937444-215.29677 0-120.828961 78.956683-213.072694 185.78099-214.905486l3.09901-.027773 8.131435-.170264 6.839448-.123826 5.488446-.083037 5.144548-.061637 4.025299-.034962 3.788022-.020007 2.159213-.004807zm18.34485 20.136348-.026038.326836-.53807-.042771-.876075-.060305-.958718-.055676-1.041221-.051039-1.123587-.046393-.242908-.009091c-87.917172 2.646844-160.500781 88.435958-160.500781 195.23389 0 110.164102 77.231252 197.974159 168.857888 195.234428 91.293269-2.729763 165.92111-89.938931 165.92111-195.234428 0-105.295498-74.627841-192.504666-165.92111-195.234429-1.185954-.035461-2.369496-.055752-3.55049-.061022zm-83.056285 2.688466-.685683.118999c-82.232886 14.506485-140.786432 92.060298-140.786432 192.487986 0 102.551452 60.763419 182.053533 143.549548 193.797949-61.596778-34.874485-104.328546-108.542142-104.328546-193.797949 0-84.29502 41.774066-157.261603 102.251113-192.606985z"/></svg>