<svg height="960" viewBox="0 0 960 960" width="960" xmlns="http://www.w3.org/2000/svg"><path d="m417.192757 280.327558c29.201687 1.871843 58.828515 5.180385 89.357985 10.914745 43.712098 8.210457 82.225982 20.234174 113.708292 37.390533 26.294974 14.329508 44.520745 23.976029 57.338737 30.407211l1.428135.714402c10.53989 5.256174 17.253728 8.234346 21.770525 9.832839.124532.027451.267853.058349.428209.092107 1.242762.261622 3.005056.589162 5.247712.971212 4.323961.736612 9.951033 1.60011 18.526104 2.856432.490235.071824 6.930199 1.007334 13.381473 1.947541l.789605.115093c4.338695.632495 8.572583 1.251219 10.887718 1.593784 10.601051 1.568615 19.680245 2.968522 28.397913 4.397881 11.46215 1.879349 21.814674 3.734394 31.292372 5.638089 19.218413 3.86022 38.314268 10.253439 57.200705 18.665607 9.406013 4.189512 19.78803 9.862011 29.594615 16.614867 14.12177 9.72431 26.013452 20.886597 34.719827 34.146185.527806.803835 1.15659 1.715287 2.025594 2.938533.426274.600041 2.074347 2.898785 2.397707 3.352405 1.138995 1.597819 2.050786 2.904454 2.961282 4.259663 5.002026 7.445169 8.555659 14.309499 10.891174 22.66417 3.039498 10.872979 3.902662 21.127939 3.473295 31.397011.506048 1.048137.959227 2.056014 1.455605 3.241134 2.430117 5.801986 3.952732 11.472288 3.952732 18.735635 0 4.318214-.470712 7.496749-1.405769 12.236901-.445093 2.256344-.96837 4.64458-1.747368 8.055275l-.241081 1.052888-.309217 1.345914c1.008395 2.693007 1.756743 5.173422 2.40508 8.188961 1.147702 5.338191 1.542692 10.737517.496196 17.046563-2.010461 12.12054-9.168428 23.461157-21.467015 30.011911-14.992615 7.985707-39.330749 13.713566-75.313859 18.862602-21.191622 3.032434-48.662456 4.691986-88.321258 5.885093l-3.673671.108267c-5.381183.15544-10.987556.304492-17.609331.470632-2.564863.064352-5.168584.128513-8.625762.212855-1.018225.024841-2.132134.051965-4.248314.103485-1.719005.04187-2.970224.07242-4.19753.102525-21.029708.515847-32.417625.859907-42.78773 1.347097-6.596212.309892-12.601561.618512-17.976386.925005-13.407813 13.990725-30.361247 23.759298-49.56584 27.799347-2.470631.519727-4.95529.93913-7.450732 1.249692-1.579097.326117-3.191385.524595-4.820114.624191l-34.313481 2.098255c-1.976926.120889-3.944162.094254-5.88455-.091108-31.425425-.69227-60.591326-16.882538-81.13113-42.663602-78.396817-7.900036-139.58441-14.052762-183.447497-18.446747l-5.080428-.508825c-.833414-.083452-1.660166-.166227-2.480254-.248326l-7.200863-.720622c-.780101-.078039-1.553536-.155402-2.320304-.232088l-4.5206-.451993c-.740097-.073978-1.473526-.14728-2.200285-.219904l-6.360738-.635337c-24.722468-2.46821-40.798015-4.05864-48.186093-4.76727-12.797635-1.22749-24.766001-.986216-35.967968.680791-9.053193 8.014172-19.740878 13.772368-31.630246 16.682188-3.758281.919806-7.565938 1.534026-11.398274 1.823276-.552122.081148-1.114927.129032-1.693621.118712-.254621.028966-.5103.042013-.766057.053696l-.001043-.022833-1.564055.062927.000342.014325c-.182355.004356-.364704.008018-.546997.007668-.076112.011284-.155313.010476-.23457.009439l-.2268-.002969c-1.208114.014813-2.415702-.003664-3.621867-.055046l-29.436091-.457755c-3.033693-.047176-5.986512-.431862-8.808061-1.153577-24.0322616-4.361867-43.7612964-21.008286-56.6384524-44.104778-20.7867108-8.548543-32.7162794-24.653189-37.32427496-48.083797-.54800196-2.786466-1.29800417-6.334505-2.23832666-10.58007l-.28764007-1.294063c-.67283614-3.016373-1.43432855-6.35742-2.2838508-10.019811-3.52719649-15.205199-3.08361418-31.060341 1.29482301-46.039817l.10690994-.404023c.20882656-.769815.30083751-1.831815.18616862-3.362861-1.11275358-14.85736-1.47970318-26.391818-.57732587-38.248271.74351361-9.769123 2.32799483-18.372454 5.48340189-26.41975 2.5413346-6.481215 6.042633-12.433062 11.0676282-17.733841 7.1533865-7.545981 16.5897565-12.73039 27.4347796-14.280772 1.6238376-.232141 6.4108006-1.821413 12.2822194-4.41242 5.9760011-2.637159 12.384133-5.975954 17.6063663-9.121446l.7388058-.449723c.0356612-.042166 5.2857269-3.460676 11.1177595-7.170795l.6158476-.391483c.3087985-.196146.6187592-.392801.9292069-.589514l.6213448-.393371.6214437-.392728.6203425-.391285c2.8904955-1.82139 5.7058184-3.569548 7.897158-4.878959 13.925511-8.321029 28.751539-15.986587 45.590406-23.194269 18.578203-7.952184 38.715205-14.932406 60.666177-20.784765l13.229285-3.276983c31.481336-7.232633 67.167554-11.591731 105.249428-13.541081 32.790951-1.678517 65.823847-1.419885 90.644285.171118zm133.075192 198.306116c-3.239817.681545-6.360996 1.645818-9.351489 2.86898-.513626.298596-1.062335.553733-1.64199.760868l-.594562.213166c-28.70615 13.27563-44.52228 50.927045-36.045685 90.395213 2.171069 10.108791 5.74899 19.46721 10.402967 27.806116l-.231753-.418334c.171615.311152.344723.620902.519307.929236.131688.233197.264728.465857.398608.697699l-.398608-.697699c.193793.342258.389405.682771.586814 1.021522l-.188206-.323823c.229572.397554.461611.792704.696081 1.185419l-.507875-.861596c.188699.323805.379039.646.571001.966567l-.063126-.104971c.209528.350939.420997.699935.63438 1.046964l-.571254-.941993c.233965.390712.470339.779007.709084 1.164854l-.13783-.222861c.19119.310936.383917.620295.578162.928059l-.440332-.705198c.21704.350769.43604.699516.656972 1.046217l-.21664-.341019c.248085.393071.498647.783543.751645 1.171383l-.535005-.830364c.234066.367312.470301.732329.708671 1.095023l-.173666-.264659c.184218.282401.369727.563407.556512.843005l-.382846-.578346c.215985.328632.433722.655358.65319.980158.262392.388326.527256.773899.794549 1.156684.115543.166018.231815.331353.348541.496162l-.348541-.496162c.20995.300664.4214.599609.634328.896818l-.285787-.400656c.497442.702357 1.003109 1.395159 1.516737 2.078193.051203.067561.102233.135221.153341.202785l-.153341-.202785c.183758.244365.368535.48748.554319.729335l-.400978-.52655c.293654.388206.589886.773231.888647 1.155037.125186.160502.251288.320516.377834.479957l-.377834-.479957c.222917.284879.447242.567966.672954.849243l-.29512-.369286c.267434.336952.53685.671348.808215 1.003159l-.513095-.633873c.232606.289866.466685.577812.702216.863818.204135.248381.409363.494807.615667.739764l-.615667-.739764c.250456.30413.502554.606067.756267.905789l-.1406-.166025c.524834.623167 1.056634 1.236831 1.595162 1.840799.060868.067785.121427.135486.182071.203064l-.182071-.203064c.219806.246515.440733.491416.662765.734688l-.480694-.531624c.284435.316957.570729.631219.858848.942758.187385.203081.37554.404542.564458.604843l-.564458-.604843c.258201.279188.517868.556189.778974.830983l-.214516-.22614c.277496.294216.556636.58593.83739.875116l-.622874-.648976c.234103.246373.469363.490972.705764.733781l-.08289-.084805c.262695.270585.526803.538957.7923.805097l-.70941-.720292c.326209.335053.654588.666699.985091.994899l-.275681-.274607c.262151.262785.525656.523394.790491.781807l-.51481-.5072c.237626.23597.47635.47016.716154.702554l-.201344-.195354c.297747.290527.597175.578277.89825.863224l-.696906-.66787c.316162.306392.6342.609663.954076.90978l-.25717-.24191c.252691.239155.506542.476335.761534.711525l-.504364-.469615c.266926.250437.53513.498679.804591.744706.295222.269547.591952.536436.890158.80064.205358.182353.411297.362917.617926.542202l-.617926-.542202c.270186.23938.541585.476557.814174.711513l-.196248-.169311c.290954.252452.583275.502367.876936.749722l-.680688-.580411c.29266.252255.586691.50195.882065.74906.247918.207806.496926.41351.746863.617378l-.746863-.617378c.298931.250087.599237.497527.90089.742297l-.154027-.124919c.57425.468403 1.153412.927114 1.737282 1.375967.099985.076488.199991.152975.300133.229172l-.300133-.229172c.269344.207059.539689.412021.811017.614869l-.510884-.385697c.25973.197624.520379.393303.78193.587022l-.271046-.201325c.346748.259232.695099.515013 1.045013.767307l-.773967-.565982c.335484.248478.672453.493731 1.010868.73573l-.236901-.169748c.297116.214226.595358.425938.894701.635116l-.6578-.465368c.280081.200284.561154.398339.843196.594147l-.185396-.128779c.312764.218557.62673.434347.941869.647346l-.756473-.518567c.361707.251115.725008.498536 1.08986.742224l-.333387-.223657c.275538.186234.551972.370334.829283.552286l-.495896-.328629c.282661.188792.566252.375344.850752.559639l-.354856-.23101c.380413.249599.762476.495155 1.14614.736626l-.791284-.505616c.311597.201848.624285.400989.938037.597401l-.146753-.091785c.290665.182939.582248.363533.874728.541766l-.727975-.449981c.295155.18477.591251.367125.888266.547046l-.160291-.097065c.349257.212831.699793.422295 1.05157.62836l-.891279-.531295c.338725.205186.678644.407208 1.019724.606036l-.128445-.074741c.29759.174322.596068.346213.895413.515653l-.766968-.440912c.306899.178903.614737.355221.923491.528934l-.156523-.088022c.347739.196834.696647.390361 1.046688.580552l-.890165-.49253c.338271.19032.677641.377513 1.018077.561552l-.127912-.069022c.278032.151066.55678.300028.836224.446871l-.708312-.377849c.346392.18726.693888.371254 1.042453.551957l-.334141-.174108c.319749.168022.640411.333271.96196.495724l-.627819-.321616c.327105.169577.655153.336255.984115.50001.220309.109956.441111.218354.662316.325433l-.662316-.325433c.343576.171031.68815.338874 1.033688.503504l-.371372-.178071c.320518.155154.64188.30754.96406.457137l-.592688-.279066c.293234.139709.587163.277104.881767.412168.262959.12083.526388.239497.79034.356297l-.79034-.356297c.362165.166038.72535.328555 1.089519.48752l-.299179-.131223c.694551.307343 1.392729.601758 2.094281.88304.038812.015305.077142.03063.115483.045916l-.115483-.045916c.303514.121692.607661.240926.912418.357685l-.796935-.311769c.33015.131626.661044.260343.992655.386132l-.19572-.074363c.349028.13372.698858.264194 1.049458.391397l-.853738-.317034c.384671.145915.770307.287889 1.156867.425887l-.303129-.108853c.316133.114698.632892.226736.950255.336096l-.647126-.227243c.305859.109189.612297.215889.919292.320084l-.272166-.092841c.381813.131568.7645.25926 1.148022.383044l-.875856-.290203c.354918.120459.71058.23757 1.066957.351306l-.191101-.061103c.290375.093721.581229.185201.872544.274427l-.681443-.213324c.351895.112306.704486.221322 1.057743.327023l-.3763-.113699c.393051.120385.786941.236667 1.181629.348811l-.805329-.235112c.347664.104028.695973.204845 1.044898.302428l-.239569-.067316c.329835.093718.660228.184545.991154.272463l-.751585-.205147c.324981.090886.650497.178967.976523.264224l-.224938-.059077c.383257.101821.767228.199738 1.151876.293722l-.926938-.234645c.340096.088936.680749.174798 1.021931.257565l-.094993-.02292c.308852.075465.618141.148393.927846.218769l-.832853-.195849c.366448.088896.733507.174222 1.101144.25595l-.268291-.060101c.703699.159905 1.409547.306633 2.117314.439996.092209.017184.184547.03435.276918.051289l-.276918-.051289c.684474.128975 1.370743.24545 2.058597.349255.129358.019341.258627.038394.387952.056999l-.387952-.056999c.348265.052557.696937.101867 1.045987.147906l-.658035-.090907c.298328.042918.596946.083451.895837.121584l-.237802-.030677c.379368.050038.759184.096214 1.139413.138499l-.901611-.107822c.392119.050029.784708.095928 1.177728.137667l-.276117-.029845c.328229.036501.656766.070104.985588.100788l-.709471-.070943c.330677.035118.66166.067291.992925.0965l-.283454-.025557c.371767.034692.743898.065654 1.116361.092861l-.832907-.067304c.391108.034486.782611.064841 1.17447.091034l-.341563-.02373c.367831.026867.735987.050072 1.104435.069588l-.762872-.045858c.30986.020711.619943.038821.93023.054313l-.167358-.008455c.355649.018839.71157.03424 1.067736.046182l-.900378-.037727c.403045.020124.806435.035831 1.210129.047088l-.309751-.009361c.342955.011499.686138.01979 1.029522.024853l-.719771-.015492c.323267.009015.646728.015177.970364.018468l-.250593-.002976c3.980408.058692 7.987959-.316362 11.983628-1.156913 35.865003-7.54476 57.191349-49.736652 47.633726-94.238227-9.557622-44.501576-46.379935-74.460995-82.244939-66.916235zm90.355792 142.359523-.636425 1.069782c-1.604385 2.645966-3.329494 5.19238-5.1705 7.627876 3.31136-2.224946 6.402304-4.804253 9.247536-7.693988-1.171321-.316142-2.317558-.650691-3.440611-1.00367zm-22.101426-72.532454c7.289007 33.9386-9.092707 66.756995-37.661721 72.76693l-5.344619.786288c-26.664283 2.257224-52.061879-20.254758-58.891178-52.052894-7.289008-33.9386 9.092707-66.756995 37.66172-72.76693 28.540031-6.003839 56.951212 17.348594 64.235798 51.266606zm-400.148076-212.836302c-60.207845 16.052046-94.951229 38.579736-111.647046 49.501658 4.957616.00629 9.995724.139595 15.11563.398262 4.13686.209001 7.321017 3.732018 7.112016 7.868877-.209002 4.13686-3.732019 7.321018-7.868878 7.112016-16.00741-.808724-31.1030903-.329424-45.29043 1.431544-7.7812436 3.3537-15.4177259 5.954662-21.3720842 6.805885-5.960421.852089-8.5994856 9.483094-9.6018019 19.999696.5770153-4.657031 1.1902024-8.013276 1.8398937-10.068407 1.0557249-3.339515 3.1884771-6.345426 6.3982564-9.017732 1.034319 6.360868 2.0879424 11.140929 3.16087 14.340184 1.0729277 3.199255 3.1113918 7.334658 6.1153924 12.406211-2.885411 1.396654-5.5229479 2.262214-7.9126106 2.59668s-5.9363008.334466-10.6399142 0l.5257574.036845c-.1122448 8.931387.4897913 17.884063.9331899 23.804272.4537893 6.058943-.0604936 11.756656-1.5428488 17.093139l-.1991657.693919c-2.4936585 8.444564-2.758527 17.390896-.7688244 25.968197.8740085 3.767954 1.6603573 7.218049 2.3590385 10.350287l.2940673 1.322927c1.0104498 4.562133 1.8236449 8.409087 2.4395589 11.540869.7921519 4.027912 1.7550269 7.344284 3.1994089 10.095579l.0294803.179886c-7.4162716-44.316795 9.8977539-88.277819 44.0024979-97.485421 18.5001722-4.994678 37.0222502 1.722968 51.2236412 16.551918 12.413695 12.962255 21.118627 31.62633 24.632371 52.62312 4.888963 29.214565-.96918 58.274522-15.299903 77.325656 6.520493-2.576323 12.209436-7.195445 16.819745-13.29062 18.62994-4.485568 38.570503-5.709194 59.821689-3.670879 19.874656 1.906285 101.967123 10.128118 246.281076 24.667144-3.414322-9.789602-4.938187-22.790241-4.938187-39.074424 0-22.527761 3.561279-40.866024 11.854952-56.13167 9.250055-17.026003 24.166188-29.57425 45.28634-37.508061 4.853121-2.194739 9.999995-3.891174 15.413336-5.029954 47.682643-10.030784 94.221053 27.833858 105.91624 82.288221 5.000668 23.283782 2.935599 46.374778-4.793551 65.972413 1.289329.36217 2.624902.699976 4.00317 1.012383 2.679421.607336 7.149446 1.04567 13.30482 1.285936 7.149744-.443176 15.454831-.886886 24.914872-1.331321 21.213977-.996638 49.601913-1.438173 78.190859-2.263986l3.650208-.107583c31.02691-.933429 61.941124-2.366394 83.83355-5.499111 31.802004-4.550736 52.727954-9.538051 62.175433-14.570183 1.766464-.940893.491022-4.629186-1.079076-8.396058l-.215673-.513901-.263748-.62124c-1.23375-2.893162-2.478548-5.673824-2.478548-7.121992 0-1.593462 1.049131-6.262446 2.196719-11.26171l.181878-.791702.353571-1.538971.234411-1.02381c1.126871-4.933823 2.144185-9.595857 2.144185-11.364792 0-1.878088-1.341478-4.485923-2.753561-7.16921l-.471566-.896327-.365932-.701887c-1.269307-2.453813-2.387628-4.862491-2.387628-6.728013 0-1.420186 2.178667-14.214491-1.426044-27.109365-2.172375-7.771082-8.102209-14.281947-13.189055-22.029084-12.108879-18.441515-36.09154-31.249482-47.152975-36.176332-14.759319-6.573917-31.376266-12.487953-48.802865-15.988268-45.077748-9.054337-103.041441-15.232322-113.224953-18.697034-10.183512-3.464711-27.146742-11.058709-87.52695-43.963045-60.380208-32.904337-149.329973-41.128811-186.484556-43.510439s-126.867251-3.121963-196.259749 15.378808zm339.000175 176.248418c-19.607856 4.124817-31.76609 28.48208-26.084039 54.938476 5.686473 26.476983 26.845483 43.868529 46.482322 39.737615l3.586636-1.006075c17.471312-6.171599 27.824327-29.129529 22.497403-53.9324-5.686473-26.476984-26.845483-43.86853-46.482322-39.737616zm356.645091 50.592119c-1.493636 5.499863-1.681681 11.573301-1.689762 14.731124l.000499.604151c.002297.561276.008911.990614.010211 1.258152l.000223 7.531653-35.673455 7.895636-39.77025 4.198943-37.353225 2.766629c-13.912714-.137577-20.454307-2.854892-19.624779-8.151944 1.244291-7.945577 4.892195-19.04878 21.934705-24.392162 12.030006-3.771799 28.833445-4.757289 45.750609-5.809123l2.1149-.132031c6.344457-.398369 12.677603-.822781 18.753712-1.423672 22.954188-2.27003 33.461551-4.292873 38.620889-5.357985s8.86066-.844195 6.925723 6.280629zm-813.750853-100.556485c-22.2038115 5.994587-35.4068259 39.517584-29.4897584 74.875711.9915378 5.925049 2.4570586 11.525649 4.3143471 16.715949.030253.084546.0608154.169551.0914828.254446l-.0914828-.254446c.1202082.335929.2420575.670139.3655256 1.002607l-.2740428-.748161c.1327029.367354.2673717.732634.403977 1.09581l-.1299342-.347649c.0882547.237648.1773366.474405.2672374.710264l-.1373032-.362615c.0947613.251931.1904544.502849.2870696.752745.1155449.298857.2324085.596252.3505741.892166.0940195.235444.188691.46953.2841755.702673l-.2841755-.702673c.1316448.32967.2649057.657503.3997593.983474l-.1155838-.280801c.1074506.262362.2159306.52353.325428.783492l-.2098442-.502691c.1189032.287416.2390447.573385.3604086.85789.085702.200904.1718986.400814.2586975.59999l-.2586975-.59999c.1297982.304277.2609945.60688.3935697.907789l-.1348722-.307799c.3645495.836526.7397242 1.66011 1.1251112 2.470321.0518495.109008.1041798.218388.1566961.327522l-.1566961-.327522c.2821697.593215.569814 1.17926.8627706 1.757966.0446122.088127.0893724.176133.1342553.263967l-.1342553-.263967c.2927691.578337.5908439 1.149344.8940624 1.712853.0382971.071172.0766107.142103.1150057.212915l-.1150057-.212915c.2904622.539803.5856445 1.072725.8854046 1.598618.0558868.098045.1117253.195486.1677208.292684l-.1677208-.292684c.4406705.773104.8912342 1.531017 1.3512393 2.273268.0400773.064668.0803158.12936.1206259.193933l-.1206259-.193933c.2977851.480497.5995267.954431.9051022 1.421673.0583321.089197.1175324.179253.176875.269057l-.176875-.269057c.1759557.269047.3531827.535874.5316574.800459l-.3547824-.531402c.1470379.222516.2949495.443492.4437215.662914l.3709739.541351c.049604.071619.0993006.143067.1490893.214343l-.1490287-.214255c.163908.236651.3288275.471437.494741.70434l-.3457123-.490085c.1512447.216519.3033398.431457.4562716.6448l-.1105593-.154715c.1799072.252547.3609831.50288.5432054.750975l-.4326461-.59626c.1906256.265927.3825512.529375.5757506.790318l-.1431045-.194058c.665803.906487 1.3469104 1.783101 2.0422339 2.628703.0426843.051911.0858421.104212.1290544.156394.1203487.145328.2409666.289549.3619996.43284l-.3619996-.43284c.1888619.228063.3787625.453845.56968.677323l-.2076804-.244483c.1476889.174849.2959957.348313.4449105.520382l-.2372301-.275899c.1640512.19203.3288533.382358.4943926.570971l.406546.458112c.0680004.075778.1361216.15127.2043625.226473l-.2041766-.226266c.1606352.179007.3219442.356412.4839147.5322l-.2797381-.305934c.1521732.167698.3049421.333962.4582965.498783l-.1785584-.192849c.2125721.230707.4262837.45863.6411069.683741l-.4625485-.490892c.203173.218364.4073736.434192.6125779.64746l-.1500294-.156568c.1688124.176896.3383113.352056.5084831.525464l-.3584537-.368896c.1626571.16905.3259449.33649.4898512.50231l-.1313975-.133414c.3667455.373722.7366168.739311 1.1094791 1.096627.0712907.068316.1422264.135891.213269.203165l-.213269-.203165c.4023722.385595.8082275.761556 1.2173964 1.127706.0271881.02433.0545154.048727.0818574.073081l-.0818574-.073081c.3859653.345386.7748791.682041 1.1665991 1.009818.0398663.033358.0795295.066431.1192214.099413l-.1192214-.099413c.3965787.331842.7960337.654584 1.1982174.968071.0240746.018766.0480505.037413.072036.056028l-.072036-.056028c.1922318.149838.385087.297562.5785495.443154l-.5065135-.387126c.1915804.148684.383777.295268.5765739.439738l-.0700604-.052612c.3837657.288807.769921.569229 1.15834.841134.0562814.039398.1125404.078569.1688464.117562l-.1688464-.117562c.4105369.287388.8236027.565261 1.2390489.833465.0574681.0371.1150604.074066.172698.110846l-.172698-.110846c.1910615.123345.3826264.244646.5746803.363886l-.4019823-.25304c.1773007.113139.3550299.224518.533176.334126l-.1311937-.081086c.2320027.144042.4647191.285079.6981235.423082l-.5669298-.341996c.2117562.130287.4241015.258072.6370166.383333l-.0700868-.041337c.1679588.099308.3362739.197045.504936.293202l-.4348492-.251865c.2181889.128363.4369762.254077.6563412.37712l-.221492-.125255c.218213.124406.437007.246167.65636.365261l-.434868-.240006c.208944.117198.418413.231972.628388.344303.140699.075268.281207.149224.421937.222084l-.421937-.222084c.19395.103759.388332.205434.583131.30501l-.161194-.082926c.197236.102115.394906.202078.592994.299873l-.4318-.216947c.210509.107607.421506.212763.632972.31545.160043.077715.32036.154019.480939.2289l-.480939-.2289c.227198.110325.454938.2178.683198.322401l-.202259-.093501c.18945.088345.379265.174709.56943.25908l-.367171-.165579c.196601.090094.393589.178056.590949.263872l-.223778-.098293c.254924.113103.510479.222623.766635.328529l-.542857-.230236c.207866.090384.416144.178387.624819.263991l-.081962-.033755c.173519.071741.347314.141823.521375.210237l-.439413-.176482c.218033.089444.436499.17627.655379.260458l-.215966-.083976c.437572.171986.876824.333428 1.317607.484168.071424.024426.142701.048508.214018.07231l-.214018-.07231c.455847.155893.913331.30034 1.372284.433167.023434.006782.046795.013512.070159.020211l-.070159-.020211c.174209.050418.34863.099163.523253.146223l-.453094-.126012c.223295.064027.446935.125304.670902.183809l.571119.143005c.011642.002789.023285.005571.034929.008345l-.035195-.008409c.203098.048659.406449.095036.610039.139117l-.574844-.130708c.223895.053343.448098.103913.672589.15169l-.097745-.020982c.22365.048423.447589.094076.671798.136937l-.574053-.115955c.242366.051582.485068.099907.728082.144953l-.154029-.028998c.203179.038841.40658.075389.610188.109632l-.456159-.080634c.203322.037688.406863.073079.610608.106159.218444.035467.437123.068277.65602.098412.181174.024947.36319.048142.545345.069481l-.545345-.069481c.2144.029516.42901.056467.643811.080834l-.098466-.011353c3.314491.38828 6.675379.161809 10.022798-.741928 22.203811-5.994587 35.406825-39.517585 29.489758-74.875711-5.917068-35.358126-28.713544-59.161977-50.917355-53.16739zm45.062557 55.493556c4.576583 27.347904-5.780134 53.975827-25.174589 59.211944l-3.765489.729979c-18.71438 2.21155-35.4994931-16.83535-39.8589737-42.885934-4.5765829-27.347904 5.7801342-53.975827 25.1745887-59.211944 20.186629-5.449988 38.97435 14.368665 43.624463 42.155955zm533.870876 28.21958 1.106124.052068c11.115368.520325 23.855829.999568 38.221385 1.437729 22.866753.697455 39.768367 7.211271 46.034692 9.7847 6.266324 2.573429 7.972268 6.171539 4.152548 6.171539-2.546479 0-31.56054-1.012952-87.042182-3.038855-1.871186-2.570628-3.000668-4.996734-3.388448-7.278319-.339496-1.997501-.381768-4.078805-.126814-6.243914.059677-.523859.516095-.911076 1.042695-.884948zm-573.58562-55.894026c-10.4315604 2.816313-17.7437566 21.616537-14.2900336 42.254661 3.3801932 20.198739 15.2810836 32.752663 24.9204696 30.15022l1.917496-.711917c9.386035-4.461604 15.610403-22.194503 12.372538-41.542744-3.380194-20.198739-15.281084-32.752663-24.92047-30.15022zm782.544786.843176c11.855137-.281663 17.780186.689616 17.775299 2.913836 0 .257907-.23956.87034-1.890781 1.118518-6.820132 1.025062-12.270795 2.167543-17.424212 3.048902-8.382288 1.433575-8.150249 1.2874-9.964321 4.707046-1.084486 2.044329-2.639585 5.285868-4.665217 9.724653-.072323.158169-.184647.294741-.325883.396233-.448496.322288-1.07334.219975-1.395628-.228521l-.295564-.411329c-5.302407-7.328738-9.096574-10.993108-11.382502-10.993108-2.423812 0-18.176804.618737-47.258977 1.856211l-.093713-.005716c-.122514-.020341-.232951-.090386-.303402-.195961-.139238-.208656-.082964-.490681.125693-.629919l.132328-.08827c.292264-.19482.468928-.311761.529992-.350823 7.532189-4.818272 15.485888-7.614578 23.861097-8.388917 13.684978-1.265259 32.731116-2.00135 52.575791-2.472835zm-250.90236-29.391469c31.442466-.205513 57.172049 1.602276 77.188748 5.423366 20.510472 3.915349 45.661252 11.975395 75.452802 24.179004.212994.08688.389524.244536.499833.446393.264843.484641.086661 1.092218-.39798 1.35706l-.186883.100337c-1.727791.916704-4.683388 2.220667-8.866791 3.911891-4.610015 1.863689-10.140934 2.181277-15.337332 1.955544-3.886544-.168833-15.777706-1.174188-35.673461-3.016336-1.197535-.110358-2.403305.089668-3.501058.580796l-5.564815 2.493172c-1.111952.497477-2.334477.696167-3.546741.576429-3.998793-.3967-11.042652-1.259787-21.131543-2.589605-17.88922-2.35798-27.143247-9.062495-32.716589-12.282956-3.548425-2.050397-12.949092-9.164361-28.202002-21.341892-.234905-.188194-.373406-.471765-.376504-.77274-.005685-.552256.437397-1.004556.989653-1.010241zm-154.690006-3.855522.151311.003172 23.866759 1.378663c.53183.030721 1.030176.269639 1.387201.665055.750099.830757.684786 2.11236-.145881 2.86254l-11.173601 10.090947c-.771615.69685-1.945339.696689-2.716762-.000374l-12.693159-11.469609c-.455574-.411659-.699973-1.007685-.664569-1.620712.064537-1.11748 1.022653-1.971054 2.140012-1.90651zm-185.123648-28.206599.115595.006657 14.011386 1.702384c2.855819.351762 5.144817.638511 6.866993.860246l2.918388.389195c2.326628.331446 4.466962 2.157536 6.421839 5.4777.122002.207022.17877.450793.1619.695219-.04337.628383-.552191 1.099976-1.136482 1.053333l-12.542511-1.040232c-4.637927-.389366-8.239537-.699015-10.804831-.928947l-.31538-.032042c-4.157404-.473257-6.407939-2.788021-6.751606-6.944292l-.00411-.110241.006042-.110149c.062745-.626488.585843-1.079654 1.168372-1.012174zm-141.54403-14.263083.110923.005944 13.445195 1.520157c2.740417.314109 4.936917.570163 6.589502.768164l2.800457.347534c2.23261.295967 4.286455 1.926588 6.162337 4.891354.117071.184861.171546.402539.155357.620801-.041618.561119-.529877.982232-1.090557.940582l-12.035676-.928883c-4.450511-.347688-7.906582-.624191-10.368214-.829511l-.302636-.028612c-3.989405-.422598-6.148997-2.489584-6.478777-6.200958l-.003944-.09844.005798-.098359c.060209-.559428.562169-.964085 1.121158-.903829zm233.341691-52.747519c15.240193 9.61545 35.186031 27.688301 59.837514 54.218555-8.765123.16585-16.585357.267073-23.460702.303669.308493-1.39697.596023-3.095923.863198-5.095619-4.225798-6.557542-9.554753-12.460265-15.986865-17.708168-9.648169-7.871854-15.784493-6.624657-27.283678-5.607763-4.422763.391113-8.62424.855665-12.258454 1.363627l-.861142.122729c-5.382681.782368-9.390809 1.659482-10.809382 2.525893-2.426505 1.482017-7.276056 11.247822-7.276056 14.678351 0 1.970773 1.201799 4.323446 3.605397 7.058019-31.790562-2.016325-55.658699-4.263473-71.143288-5.655842-60.38366-5.429679-96.046198-12.777681-106.983459-15.553757-18.558652-4.710525-28.618076-11.724009-30.178273-21.040454 17.14116-7.718248 31.323483-13.642465 42.546969-17.772652 16.83523-6.19528 57.287459-17.013915 103.171979-18.7929 45.884519-1.778984 73.355954 12.533138 96.216242 26.956312zm96.654015-24.13353c9.955962.005101 21.345374.068003 34.168237.188708l28.060764 7.662956 37.300363 14.171 26.749434 14.23511 57.408364 28.620122c-75.307891.499048-125.147533 1.234734-149.518925 2.20706-36.557088 1.458488-54.122503-17.523544-59.121948-21.223032-3.332963-2.466325-24.419122-16.970443-63.258478-43.512353 26.259029-1.188516 46.526236-1.908804 60.801619-2.160863 6.836099-.120705 15.105648-.183607 24.808648-.188708z"/></svg>