<svg height="960" viewBox="0 0 960 960" width="960" xmlns="http://www.w3.org/2000/svg"><path d="m534.934283 5.10054747.398717.03245253.185669-.00535499.194548-.00472728c177.462528-3.88021254 314.307933 84.04174037 405.729584 258.79255527 3.24018 6.193544 4.800798 13.128044 4.526356 20.112558l-6.675157 169.889969.510824.404267c15.582419 12.514953 25.126712 31.831494 24.680008 52.872578l-.027199.957583-7.557188 212.425576c-.819101 23.024186-13.434863 43.200586-32.213275 54.382111l-.55917.327885-.202653.478263c-.514962 1.18386-1.088037 2.344616-1.717963 3.477902l-.319694.564334c-16.030198 27.769631-30.905697 50.463194-44.804388 68.211272-13.786938 17.605373-33.318723 38.899863-58.761527 64.180527-6.902108 6.858123-16.06733 10.965311-25.779596 11.552545l-254.367179 15.380157-.032716.005298c-1.026235.158435-2.065849.27817-3.117361.357632l-.632324.042832-273.514646 16.389617c-.825004.049436-1.651341.071621-2.477823.071621h-6.005762c-3.081596 0-6.152869-.356105-9.152708-1.061228l-88.40712-20.780433c-5.461931-1.283848-10.59267-3.702413-15.058887-7.098567-29.462679-22.403702-51.8675931-40.828621-67.4644472-55.565098-17.4981082-16.532851-36.6400964-42.413391-58.4781613-78.28638-3.8151038-6.267001-5.8330445-13.462584-5.8330445-20.799499v-447.688406c0-6.447417 1.55852095-12.799292 4.5427848-18.514478 87.6437052-167.847115 208.8534942-265.1751575 361.9560002-288.007435l.313127-.0675223c1.585082-.3555651 3.205131-.6174066 4.853836-.7796367l.550621-.0503793 1.673631-.1419377 1.282747-.169779c13.989839-1.8150796 28.219224-3.0107236 42.756177-3.5913999l2.425685-.0910861 1.008391-.032735 56.503-4.633 1.616827-.19451033c11.541423-1.35616123 23.228047-2.31236679 35.058406-2.86955292l1.718767-.07693675 4.476378-.3666373c2.09704-.17167108 4.167049-.17888662 6.197905-.03281523zm352.357717 753.50278153-737.566077 29.854855c-1.180306.352487-2.431005.541816-3.725923.541816h-8.000943v3.130542c20.144245 29.080708 37.404968 50.841955 51.783114 65.283741 14.347428 14.410933 38.123439 33.88694 71.328031 58.428021l184.446798-11.051975 86.443-5.26v-.097329l257.968-15.597671.159867-.00957c24.366101-24.210781 42.853699-44.366815 55.462793-60.468102 12.609094-16.101286 26.493952-37.283526 41.654575-63.546719zm-516.126191-699.3631351-.213148.0416136c-135.09975 23.3635566-242.750636 111.8430835-322.952661 265.4385815v447.688406c20.1433016 33.089032 37.4040252 56.426047 51.782171 70.011043 14.378146 13.584997 35.779838 31.184907 64.205077 52.799729l53.548395 12.58643c-17.9988-14.19586-31.951045-26.26093-41.926802-36.280842-15.35002-15.417962-33.290364-38.036032-54.049905-68.0064-2.316192-3.343866-3.559879-7.314491-3.559879-11.382191v-3.130542c0-10.381448 7.904287-18.917431 18.024604-19.909697.461602-.085446.935221-.138944 1.418232-.158494l1.557107-.063502.000057-261.515329-18.349617-31.998589c-1.657722-2.890708-2.565636-6.147542-2.650383-9.473896v-158.822497c0-3.530067.935311-6.99724 2.70907-10.049314 67.803135-116.667592 151.437109-196.141234 250.457682-237.7745101zm438.237439 757.6855151c0 27.402057-20.286608 51.363987-46.002269 53.44652-23.935722 1.942289-43.437077-16.332091-47.025329-41.250981-3.161536 24.640889-22.056688 45.032072-45.530963 46.941799-23.983911 1.955097-43.447902-16.637753-47.02982-41.916024-3.162605 24.987509-22.021665 45.68591-45.526473 47.606841-24.032502 1.967973-43.459745-16.942844-47.034597-42.58261-3.162103 25.335783-21.985798 46.341222-45.521696 48.273425-24.080763 1.980859-43.471456-17.246335-47.039345-43.248551-3.161495 25.684709-21.950137 46.995882-45.516948 48.939365-24.127578 1.993661-43.48128-17.546504-47.04358-43.910282-3.163137 26.032824-21.91636 47.646421-45.512714 49.601095-26.802959 2.224671-47.635009-22.421373-47.635009-53.515433 0-30.741527 20.25613-56.832402 46.588119-57.410881 23.750444-.525815 42.822809 19.158651 46.419759 44.755794 3.108477-26.832584 22.124746-48.3356 46.136329-48.872422 23.710577-.534134 42.819402 18.840701 46.422762 44.089903 3.109176-26.46701 22.16042-47.661268 46.133326-48.206529 23.671354-.542437 42.817497 18.522905 46.426199 43.426552 3.107978-26.103861 22.195019-46.989492 46.129889-47.543176 23.630606-.550675 42.813553 18.201668 46.429066 42.758777 3.109599-25.740295 22.231856-46.313361 46.127022-46.875401 23.589292-.558866 42.809069 17.878485 46.431788 42.08957 3.111203-25.376674 22.268969-45.635831 46.124301-46.206191 26.176284-.630315 47.050183 21.832151 47.050183 49.60884zm-506.357901-8.872398.197363.112312c9.146477 5.280266 15.429134 16.529834 15.429134 29.707122 0 18.55956-12.463117 34.551465-27.83715 35.720322-2.652203.201909-5.217763-.069558-7.647644-.756422 4.440594 4.28783 9.957667 6.541303 15.779747 6.058065 14.748827-1.221763 27.636622-17.821968 27.636622-37.44785 0-17.891814-10.630629-31.751106-23.558072-33.393549zm92.952196-4.072698.18989.110028c8.93745 5.2705 15.044377 16.190424 15.044377 28.956457 0 18.23719-12.463117 33.963984-27.83715 35.12818-2.585666.196059-5.088995-.050151-7.464543-.685878 4.402699 4.065483 9.844785 6.189469 15.600318 5.71389 14.787573-1.219487 27.632949-17.490456 27.632949-36.66066 0-17.294139-10.381719-30.751214-23.165841-32.562017zm92.961405-4.067529.169742.100888c8.729396 5.251862 14.663086 15.846253 14.663086 28.207479 0 17.91482-12.463117 33.376503-27.837151 34.536037-2.514959.189936-4.952023-.031301-7.269375-.616061 4.361862 3.842287 9.725076 5.837983 15.408823 5.370444 14.826629-1.217207 27.629277-17.160368 27.629277-35.873471 0-16.699405-10.131471-29.756333-22.764402-31.725316zm92.967574-4.062964.139901.085075c8.522373 5.224739 14.285319 15.497743 14.285319 27.460609 0 17.59245-12.463117 32.789022-27.837151 33.943895-2.437934.18338-4.80267-.012811-7.056118-.54598 4.316696 3.618498 9.594999 5.485654 15.199238 5.026734 14.86597-1.214922 27.625605-16.831752 27.625605-35.086283 0-16.109122-9.881598-28.768728-22.356794-30.88405zm92.972442-4.058857.101612.062627c8.316438 5.189518 13.911131 15.145314 13.911131 26.716267 0 17.27008-12.463116 32.201541-27.83715 33.351753-2.354711.176406-4.641137.005059-6.824957-.476394 4.267549 3.394297 9.45486 5.133241 14.97175 4.683521 14.90557-1.212629 27.621932-16.504655 27.621932-34.299097 0-15.523946-9.632821-27.789361-21.944318-30.038677zm92.980116-4.054478.052011.032861c8.111649 5.146575 13.540582 14.789376 13.540582 25.974864 0 16.94771-12.463117 31.614059-27.83715 32.759611-2.263558.16889-4.464016.022295-6.570885-.406995 4.212743 3.169801 9.301451 4.780299 14.721351 4.340496 14.945399-1.210324 27.618259-16.179125 27.618259-33.511913 0-14.942799-9.383712-26.816451-21.524168-29.188924zm152.299275-296.284823-.265082.009678-760.914273 19.237689v257.365l742.596574-30.056148c1.760373-.071252 3.432845.31704 4.901606 1.058075 6.134019-4.583475 10.139959-11.798233 10.428554-19.910381l7.557187-212.425575c.198848-5.589431-1.394012-10.885151-4.304566-15.278338zm-373.877962-446.4515703-4.826775.0311626c-1.591696.0184503-3.187163.0449917-4.786399.0796243-.033458.000738-.066535.0014578-.099612.002181l-.093402.0020377c-1.602024.0353384-3.207831.0787931-4.817419.130364l-4.909786.1815672-.022.001-4.494198.2115769c-.154934.0080038-.309839.0160819-.464714.0242343-1.445807.0760705-2.888731.1586299-4.329065.2476601l4.329065-.2476601c-1.617189.0851267-3.231136.1783524-4.84184.279677l.512775-.0320169c-1.676693.1036401-3.349876.2160489-5.019547.3372262l4.506772-.3052093c-1.575261.099095-3.14742.2059364-4.716477.3205242l.209705-.0153149c-1.503218.1090969-3.00359.2253013-4.501116.3486131l4.291411-.3332982c-1.65774.1210644-3.312017.2507755-4.962833.3891335l.671422-.0558353c-1.579682.1300768-3.156197.2680623-4.729546.4139565l4.058124-.3581212c-1.614803.1353398-3.226293.2789532-4.83447.4308404l.776346-.0727192c-1.613611.1496277-3.223892.3075741-4.830842.4738391l4.054496-.4011199c-1.568194.1481108-3.133237.3040889-4.69513.4679345l.640634-.0668146c-1.622905.1679158-3.242413.3443163-4.858523.5292014l4.217889-.4623868c-1.563279.163991-3.123402.3358633-4.680369.5156171l.46248-.0532303c-146.376615 16.7456754-264.882493 103.0955089-355.518392 259.0495019v158.346862l14.590943 25.443329 745.962-18.86 7.448-189.5368-.897-1.6972-1.679261-3.179437c-.147474-.276444-.295064-.552641-.442768-.828592-.094775-.177074-.189328-.353535-.283928-.529895l.283928.529895c-1.571663-2.936282-3.156326-5.844662-4.75399-8.72514-.546753-.985785-1.095197-1.968578-1.645165-2.948103l1.645165 2.948103c-.864285-1.558248-1.732375-3.10833-2.60427-4.650246l.959105 1.702143c-.681904-1.214509-1.36615-2.423992-2.052738-3.628448l1.093633 1.926305c-.898126-1.588306-1.800289-3.167948-2.70649-4.738926l1.612857 2.812621c-.84741-1.486579-1.698388-2.965501-2.552933-4.436766l.940076 1.624145c-.890993-1.544615-1.785889-3.080855-2.684687-4.608719l1.744611 2.984574c-.930355-1.601784-1.864938-3.194492-2.803751-4.778124l1.05914 1.79355c-.89006-1.513008-1.783946-3.017803-2.68166-4.514383l1.62252 2.720833c-.85408-1.440702-1.711661-2.873892-2.572742-4.29957l.950222 1.578737c-.912735-1.521623-1.829426-3.034755-2.750073-4.539396l1.799851 2.960659c-.940646-1.557415-1.88547-3.105865-2.83447-4.645351l1.034619 1.684692c-.89671-1.465518-1.797172-2.922982-2.701388-4.37239l1.666769 2.687698c-1.092001-1.771464-2.189532-3.531059-3.292593-5.278784l1.625824 2.591086c-.92424-1.481507-1.852402-2.954598-2.784485-4.419273l1.158661 1.828187c-.815634-1.292315-1.634291-2.578141-2.455972-3.857477l1.297311 2.02929c-.929084-1.459962-1.862063-2.911562-2.798939-4.3548l1.501628 2.32551c-1.025673-1.596947-2.056057-3.183781-3.091153-4.760505l1.589525 2.434995c-.93982-1.447775-1.88356-2.887135-2.831222-4.318081l1.241697 1.883086c-.836157-1.273687-1.675389-2.540775-2.517695-3.801266l1.275998 1.91818c-.941192-1.421177-1.886251-2.834054-2.835178-4.238631l1.55918 2.320451c-.972194-1.454864-1.948484-2.900938-2.92887-4.338221l1.36969 2.01777c-.945358-1.399297-1.894555-2.790356-2.847591-4.173178l1.477901 2.155408c-.950618-1.393643-1.905087-2.779021-2.863406-4.156134l1.385505 2.000726c-.973105-1.411942-1.950211-2.815295-2.931319-4.210061l1.545814 2.209335c-.927708-1.333125-1.859025-2.658504-2.793951-3.976139l1.248137 1.766804c-.962928-1.36892-1.92971-2.729567-2.900347-4.081941l1.65221 2.315137c-.991489-1.397352-1.987037-2.785993-2.986644-4.165924l1.334434 1.850787c-.971591-1.353705-1.947046-2.69912-2.926362-4.036247l1.591928 2.18546c-1.104473-1.524696-2.2139-3.038757-3.328282-4.542185l1.736354 2.356725c-.959944-1.310677-1.9236-2.613389-2.890966-3.908137l1.154612 1.551412c-.914106-1.233231-1.831546-2.459308-2.75232-3.678229l1.597708 2.126817c-1.022071-1.367966-2.048284-2.727041-3.07864-4.077226l1.480932 1.950409c-.921212-1.219503-1.845762-2.431843-2.773649-3.637021l1.292717 1.686612c-.993702-1.302152-1.991257-2.596036-2.992665-3.88165l1.699948 2.195038c-1.036786-1.346621-2.077738-2.6843-3.122857-4.013037l1.422909 1.817999c-1.007619-1.293588-2.01914-2.578805-3.034561-3.855649l1.611652 2.03765c-.990831-1.259718-1.985408-2.511399-2.983729-3.755043l1.372077 1.717393c-1.010327-1.270438-2.024517-2.532588-3.042568-3.78645l1.670491 2.069057c-1.046866-1.304118-2.097849-2.599397-3.15295-3.88584l1.482459 1.816783c-1.021821-1.258504-2.047532-2.508659-3.077134-3.750463l1.594675 1.93368c-.998322-1.217213-2.000331-2.426514-3.006026-3.627903l1.411351 1.694223c-1.039835-1.254146-2.083638-2.499776-3.131409-3.736888l1.720058 2.042665c-1.069001-1.277014-2.142167-2.545088-3.219499-3.804223l1.499441 1.761558c-1.027386-1.213043-2.058586-2.417897-3.093603-3.614563l1.594162 1.853005c-1.046478-1.223075-2.096887-2.437715-3.151226-3.643921l1.557064 1.790916c-1.041311-1.203943-2.086484-2.399599-3.135519-3.586965l1.578455 1.796049c-1.039375-1.189087-2.08257-2.369976-3.129584-3.542669l1.551129 1.74662c-1.054681-1.193758-2.113266-2.379138-3.175755-3.556141l1.624626 1.809521c-1.055328-1.182004-2.114535-2.35568-3.177623-3.521028l1.552997 1.711507c-1.056965-1.170882-2.117792-2.333473-3.182483-3.487773l1.629486 1.776266c-1.068132-1.170877-2.140182-2.333348-3.216148-3.487412l1.586662 1.711146c-1.075244-1.165742-2.154428-2.323028-3.237552-3.471857l1.65089 1.760711c-1.040279-1.115785-2.084219-2.223712-3.131821-3.323781l1.480931 1.56307c-1.092688-1.158973-2.189386-2.30934-3.290094-3.451101l1.809163 1.888031c-1.067986-1.121474-2.139778-2.23478-3.215376-3.339919l1.406213 1.451888c-1.072865-1.112879-2.149539-2.217582-3.230024-3.314109l1.823811 1.862221c-1.116758-1.147431-2.237619-2.286057-3.362583-3.41588l1.538772 1.553659c-1.085562-1.10168-2.174969-2.195106-3.268222-3.280279l1.72945 1.72662c-1.098779-1.103524-2.201471-2.198649-3.308077-3.285375l1.578627 1.558755c-1.10858-1.100387-2.221114-2.192287-3.337602-3.275701l1.758975 1.716946c-1.081857-1.062421-2.167455-2.116815-3.256793-3.163181l1.497818 1.446235c-1.109472-1.076605-2.222848-2.14483-3.340128-3.204674l1.84231 1.758439c-1.125673-1.081268-2.25534-2.153963-3.389002-3.218086l1.546692 1.459647c-1.101455-1.044833-2.206705-2.081522-3.315749-3.110066l1.769057 1.650419c-1.156246-1.085323-2.316648-2.161728-3.481205-3.229217l1.712148 1.578798c-1.102289-1.022278-2.208325-2.036511-3.318111-3.042698l1.605963 1.4639c-1.170596-1.073025-2.345391-2.137039-3.524384-3.192044l1.918421 1.728144c-1.137083-1.030937-2.278102-2.053428-3.423056-3.067473l1.504635 1.339329c-1.080489-.966861-2.164505-1.926155-3.252046-2.877881l1.747411 1.538552c-1.157546-1.025197-2.319115-2.041762-3.484706-3.049693l1.737295 1.511141c-1.123451-.98315-2.250664-1.958226-3.38164-2.925226l1.644345 1.414085c-1.145107-.990218-2.294096-1.972104-3.446967-2.945658l1.802622 1.531573c-1.152821-.985678-2.309551-1.962966-3.470191-2.931863l1.667569 1.40029c-1.152364-.973126-2.308607-1.937926-3.468729-2.894402l1.80116 1.494112c-1.154766-.963994-2.313402-1.919683-3.475908-2.867065l1.674748 1.372953c-1.17542-.969089-2.354822-1.929632-3.538206-2.88163l1.863458 1.508677c-1.160043-.945377-2.32394-1.882483-3.491691-2.811318l1.628233 1.302641c-1.154808-.929009-2.313408-1.84988-3.4758-2.762613l1.847567 1.459972c-1.185219-.94273-2.374408-1.876941-3.567567-2.802632l1.72 1.34266c-1.187485-.932437-2.378927-1.85638-3.574326-2.77183l1.854326 1.42917c-1.165599-.904309-2.334986-1.800487-3.508162-2.688535l1.653836 1.259365c-1.190102-.911394-2.384127-1.81437-3.582074-2.708927l1.928238 1.449562c-1.194756-.904383-2.393442-1.800334-3.596056-2.687852l1.667818 1.23829c-1.180709-.881685-2.365228-1.755193-3.553558-2.620523l1.88574 1.382233c-1.206202-.890165-2.416356-1.771848-3.630463-2.645047l1.744723 1.262814c-1.213379-.883572-2.430731-1.758617-3.652055-2.625136l1.907332 1.362322c-1.187517-.854076-2.378815-1.700037-3.573895-2.537882l1.666563 1.17556c-1.201071-.85215-2.405984-1.696054-3.614739-2.531713l1.948176 1.356153c-1.229144-.861727-2.462288-1.714869-3.699433-2.559427l1.751257 1.203274c-1.216486-.841003-2.436864-1.673655-3.661132-2.497956l1.909875 1.294682c-1.214713-.829245-2.433283-1.650214-3.65571-2.462907l1.745835 1.168225c-1.227075-.826191-2.458059-1.643991-3.692951-2.453402l1.947116 1.285177c-1.231526-.818743-2.466966-1.629086-3.706321-2.431029l1.759205 1.145852c-1.213287-.795249-2.430347-1.5824-3.651181-2.361452l1.891976 1.2156c-1.247697-.807341-2.49936-1.606169-3.754991-2.396484l1.863015 1.180884c-1.260045-.804074-2.524111-1.5995211-3.792196-2.3863409l1.929181 1.2054569c-1.228774-.7734109-2.461347-1.5386687-3.697719-2.2957735l1.768538 1.0903166c-1.226432-.7609754-2.456625-1.5138811-3.690578-2.258717l1.92204 1.1684004c-1.278942-.7831736-2.56195-1.557623-3.849023-2.3233482l1.926983 1.1549478c-1.25013-.7546008-2.50412-1.5009188-3.761969-2.2389541l1.834986 1.0840063c-1.243846-.7400079-2.491488-1.4718678-3.742927-2.1955796l1.907941 1.1115733c-1.287933-.7556874-2.579913-1.502691-3.875939-2.241011l1.967998 1.1294377c-1.245242-.7201282-2.494243-1.4321889-3.747003-2.136182l1.779005 1.0067443c-1.265846-.7211276-2.535553-1.4339712-3.80912-2.1385308l2.030115 1.1317865c-1.306702-.7343066-2.617495-1.459836-3.932377-2.1765881l1.902262 1.0448016c-1.247583-.690185-2.49887-1.3724206-3.75386-2.0467067l1.851598 1.0019051c-1.288526-.7023851-2.580979-1.3963412-3.877359-2.0818685l2.025761 1.0799634c-1.288192-.6921246-2.580287-1.3758736-3.876284-2.051247l1.850523.9712836c-1.279701-.6767069-2.563229-1.3452005-3.850583-2.0054807l2.00006 1.0341971c-1.327996-.6920485-2.660089-1.3753028-3.99628-2.0497629l1.99622 1.0155658c-1.274649-.6537635-2.55305-1.299475-3.835203-1.9371344l1.838983.9215686c-1.287085-.6496733-2.577973-1.2911869-3.872662-1.9245407l2.033679 1.0029721c-1.337921-.6653954-2.679928-1.322023-4.026021-1.9698828l1.992342.9669107c-1.30115-.6365145-2.606141-1.2647876-3.914971-1.8848193l1.922629.9179086c-1.290056-.6208904-2.583865-1.2337278-3.881426-1.8385122l1.958797.9206036c-1.340624-.6350931-2.685277-1.2615395-4.033958-1.8793393l2.075161.9587357c-1.324449-.617317-2.652808-1.2262438-3.985076-1.8267805l1.909915.8680448c-1.327816-.6082417-2.659537-1.2081021-3.995163-1.7995814l2.085248.9315366c-1.318474-.5943187-2.640777-1.18042-3.966908-1.7583041l1.88166.8267675c-1.339753-.5933069-2.683436-1.1781807-4.031048-1.7546215l2.149388.927854c-1.340119-.5839794-2.684149-1.1595672-4.032088-1.7267634l1.8827.7989094c-1.342635-.574312-2.68917-1.1402532-4.039606-1.6978234l2.156906.898914c-1.343506-.565331-2.690897-1.1223254-4.042172-1.6709833l1.885266.7720693c-1.358358-.5608409-2.720661-1.1132124-4.086911-1.6571145l2.201645.8850452c-1.346955-.5469036-2.697768-1.0855238-4.052442-1.6158609l1.850797.7308157c-1.343319-.5347731-2.690452-1.0613587-4.0414-1.5797569l2.190603.8489412c-1.370472-.5365219-2.744894-1.0645663-4.123266-1.584133l1.932663.7351918c-1.386551-.53206-2.777121-1.0554953-4.171709-1.570306l2.239046.8351142c-1.35007-.5088985-2.703929-1.0096639-4.061578-1.5022963l1.822532.6671821c-1.36889-.5053241-2.741652-1.0023385-4.118286-1.4910432l2.295754.8238611c-1.38588-.5028762-2.775709-.9972776-4.169487-1.4832042l1.873733.6593431c-1.375063-.488147-2.753989-.9680031-4.136778-1.4395685l2.263045.7802254c-1.392368-.4854354-2.788678-.9624132-4.188928-1.4309333l1.925883.6507079c-1.34522-.4587535-2.694097-.9096606-4.046629-1.3527213l2.120746.7020134c-1.407988-.471109-2.81996-.9336667-4.235916-1.3876729l2.11517.6856595c-1.378621-.4516066-2.76104-.8950611-4.147257-1.3303636l2.032087.6447041c-1.413701-.4532831-2.831374-.898042-4.253019-1.3342767l2.220932.6895726c-1.382621-.4341729-2.76902-.8602361-4.159197-1.2781894l1.938265.5886168c-1.39151-.4269877-2.786824-.8458088-4.185944-1.2564633l2.247679.6678465c-1.425312-.4285163-2.854596-.8485077-4.287852-1.2599742l2.040173.5921277c-1.420804-.4170189-2.845532-.8256161-4.274184-1.2257916l2.234011.6336639c-1.428731-.4101677-2.86141-.8118643-4.298036-1.2050897l2.064025.5714258c-1.402594-.3928764-2.80897-.7776356-4.219129-1.1542774l2.155104.5828516c-1.466903-.4015126-2.937921-.7941933-4.413054-1.178042l2.25795.5951904c-1.435544-.3834224-2.875008-.7584325-4.318392-1.1250304l2.060442.52984c-1.429976-.3720982-2.863819-.7358969-4.301529-1.091396l2.241087.561556c-1.423023-.3614266-2.849855-.7146765-4.280498-1.05975l2.039411.498194c-1.52862-.3779783-3.061612-.7465742-4.598975-1.1057879l2.559564.6075939c-1.423995-.3434701-2.851764-.6788395-4.283308-1.0061082l1.723744.3985143c-1.446243-.3379228-2.896354-.6675425-4.350334-.9888591l2.62659.5903448c-1.47032-.3361334-2.944622-.6637212-4.422906-.9827636l1.796316.3924188c-1.406081-.3107316-2.815781-.6136981-4.229099-.9088996l2.432783.5164808c-1.478645-.3191204-2.961274-.6296911-4.447887-.9317122l2.015104.4152314c-1.404671-.2933955-2.812916-.5791207-4.224735-.8571756l2.209631.4419442c-1.478347-.3003417-2.960634-.5922286-4.44686-.8756606l2.237229.4337164c-1.49203-.2938522-2.988051-.5791379-4.488064-.8558569l2.250835.4221405c-1.460525-.2785306-2.924854-.5488962-4.392988-.8110969l2.142153.3889564c-1.499357-.2765981-3.002703-.5446371-4.510036-.804117l2.367883.4151606c-1.501453-.2681513-3.006885-.5277628-4.516297-.7788345l2.148414.3636739c-1.451343-.2498414-2.906384-.4917477-4.365121-.725719l2.216707.3620451c-1.479194-.2460455-2.96221-.4838897-4.449047-.7135325l2.23234.3514874c-1.529673-.2453488-3.063411-.481972-4.601215-.7098696l2.368875.3583822c-1.509191-.2330954-3.022319-.457741-4.539383-.6739368l2.170508.3155546c-1.531559-.2269721-3.06715-.4452893-4.606774-.6549518l2.436266.3393972c-1.490305-.2123821-2.984408-.41661-4.482311-.6126836l2.046045.2732864c-1.616605-.2201456-3.237656-.4307492-4.863154-.6318109l2.817109.3585245c-1.503352-.1967867-3.01053-.3853598-4.521536-.5657191l1.704427.2071946c-1.413518-.1748415-2.830398-.3424674-4.250639-.5028778l2.546212.2956832c-1.566508-.1869842-3.137128-.3651402-4.711863-.5344679l2.165651.2387847c-1.403361-.1585037-2.810003-.3099624-4.219929-.4543761l2.054278.2155914c-1.518413-.1632718-3.040652-.3183355-4.566714-.4651912l2.512436.2495998c-1.556694-.1594467-3.117389-.3103053-4.682086-.4525759l2.16965.2029761c-1.552691-.1494181-3.10934-.2903393-4.669949-.4227636l2.500299.2197875c-1.526079-.1387592-3.055964-.2693491-4.589656-.3917696l2.089357.1719821c-1.531807-.1299802-3.067427-.2517742-4.606863-.365382l2.517506.1933999c-1.717523-.137094-3.43982-.2639429-5.166891-.3805467l2.649385.1871468c-1.540505-.1136868-3.08483-.219176-4.632975-.3164676l1.98359.1293208c-1.53135-.1033897-3.066454-.1987248-4.605311-.2860052l2.621721.1566844c-1.578126-.0991758-3.160222-.1898334-4.746287-.2719728l2.124566.1152884c-1.622638-.0920323-3.249449-.175109-4.880432-.2492301l2.755866.1339417c-1.555909-.0805777-3.115638-.152958-4.679186-.217141l1.92332.0831993c-1.505717-.0684283-3.01499-.1292239-4.527819-.1823867l2.604499.0991874c-1.595536-.0654961-3.19505-.1224559-4.798541-.1708796l2.194042.0716922c-1.639872-.0576272-3.283923-.106286-4.932154-.1459762l2.738112.074284c-1.570973-.0474416-3.145765-.0866898-4.724374-.1177445l1.986262.0434605c-1.527077-.0367728-3.057742-.0658471-4.591993-.0872229l2.605731.0437624c-1.61094-.0316906-3.225856-.0548488-4.844747-.0694743l2.239016.0257119c-1.607618-.0223979-3.219174-.0363435-4.834668-.0418366l2.595652.0161247c-1.587712-.0143439-3.179247-.0204808-4.774607-.0184105zm70.440886 131.9940903c21.760846 0 40.91315 13.829273 49.525946 34.417524l.052704.128476 209.21808 109.551212c4.806853 2.516974 6.71493 8.394106 4.350967 13.239218l-.130736.258547c-2.56192 4.892689-8.605075 6.782151-13.497764 4.220231l-212.587897-111.315713c-2.280028-1.193873-4.011968-3.220856-4.835488-5.659231-5.040818-14.925458-17.835858-24.840264-32.095812-24.840264-18.733768 0-34.29535 17.000047-34.29535 38.389878 0 21.38983 15.561582 38.389878 34.29535 38.389878 3.307639 0 6.542498-.522171 9.645917-1.540675 2.505511-.822278 5.234399-.621626 7.592691.558283l212.381738 106.259521c4.939146 2.471169 6.939836 8.478417 4.468667 13.417563-2.47117 4.939146-8.478418 6.939837-13.417564 4.468667l-208.932799-104.534115-.51153.120183c-3.40218.769099-6.885377 1.188171-10.412425 1.244115l-.814695.006458c-30.193525 0-54.29535-26.329726-54.29535-58.389878 0-32.060153 24.101825-58.389878 54.29535-58.389878z"/></svg>