<svg height="960" viewBox="0 0 960 960" width="960" xmlns="http://www.w3.org/2000/svg"><path d="m575.581592 383.412341 343.61137 18.705358c21.215155 1.154901 37.825718 18.694296 37.825718 39.940863v72.271299c0 20.377512-15.318924 37.497833-35.571145 39.754059l-529.802274 59.023343c-3.064307.341384-6.15781.327323-9.218888-.0419l-341.8046486-41.228067c-19.6228745-2.366888-34.57514157-18.71115-35.19057174-38.466671l-2.39307765-76.818619c-.67378621-21.62877 15.97506279-39.871796 37.57516219-41.173096l530.3886298-31.953314c1.525069-.091878 3.054149-.096303 4.579725-.013255zm341.437088 58.646221-530.470711 44.569654-.000642 86.643988.348.042 530.123353-58.984343zm-874.0000002 13.247956 2.3930776 76.818619 321.1355696 38.735067.000642-84.231988c0-.611661.027571-1.217322.081579-1.815747zm425.6754692 41.152153v54.183666l-15.873 1.718943v-54.350872zm-27.737807 5.105258c2.209139 0 4 1.790861 4 4v37.708631c0 2.037803-1.531968 3.749861-3.557249 3.975421l-37.818313 4.211903c-.147015.016374-.294826.024579-.44275.024579-2.209139 0-4-1.790861-4-4v-39.151349c0-2.095806 1.617678-3.836268 3.707888-3.98932l37.818312-2.769184c.097208-.007118.194644-.010681.292112-.010681zm91.230901-11.312193v53.514342l-15.873 1.718905-15.873273 1.719324-31.746547 3.437649v-27.091672l15.873-1.635328-15.873 1.634981v-27.091285l31.746273-3.103449 15.873274-1.551734zm-65.657556 36.425437-11.544 1.195822v17.46217l2.886-.308725v2.908733l5.772-.620708v-2.905477l2.886-.308725zm15.873273-1.64428-11.544 1.19586v17.409003l2.886-.308736v2.899873l5.772-.620729v-2.896615l2.886-.308736zm15.873274-1.644281-11.544 1.195843v17.355014l2.886-.308731v2.890874l5.772-.620719v-2.887617l2.886-.308732zm49.784282-34.68861v53.347716l-15.873 1.718941v-53.514922zm-33.911009 33.044329-11.544 1.195826v17.301025l2.886-.308726v2.881875l5.772-.62071v-2.878619l2.886-.308726zm74.315705-36.994197v26.460688l-15.873 1.635312 15.873-1.635119v26.461072l-31.746273 3.437252v-53.255726zm-58.442432 35.349917-11.544 1.195865v17.247857l2.886-.308736v2.873014l5.772-.620731v-2.869757l2.886-.308737zm15.873274-1.644281-11.544 1.195848v17.193869l2.886-.308733v2.864016l5.772-.620721v-2.86076l2.886-.308732zm106.062252-39.912571v52.25263l-31.746273 3.438213-15.873274 1.719324-15.873273 1.718324v-52.921534l15.873-1.551755zm-81.53083 37.371411-11.544 1.195841v17.11073l2.886-.308731v2.85016l5.772-.620719v-2.846903l2.886-.30873zm15.873274-1.644281-11.544 1.195824v17.056741l2.886-.308727v2.841162l5.772-.620709v-2.837905l2.886-.308726zm15.873273-1.64428-11.544 1.195863v17.003573l2.886-.308737v2.832301l5.772-.62073v-2.829044l2.886-.308736zm15.873274-1.644281-11.544 1.195846v16.949584l2.886-.308732v2.823302l5.772-.620721v-2.820045l2.886-.308732zm15.873273-1.64428-11.544 1.195828v16.895595l2.886-.308728v2.814305l5.772-.620712v-2.811047l2.886-.308728zm121.935526-40.951091v51.158482l-31.746274 3.438221-63.493093 6.875298v-52.16158l31.746273-3.103486 15.873273-1.551734 15.873274-1.551734 15.873273-1.551734zm-106.062253 39.30681-11.544 1.195869v16.842426l2.886-.308738v2.805443l5.772-.620732v-2.802186l2.886-.308738zm24.531423-2.541161-11.544 1.195863v16.759287l2.886-.308736v2.791586l5.772-.620729v-2.788329l2.886-.308736zm15.873273-1.64428-11.544 1.195844v16.705299l2.886-.308731v2.782588l5.772-.62072v-2.779331l2.886-.308732zm15.873274-1.644281-11.544 1.195827v16.65131l2.886-.308727v2.77359l5.772-.62071v-2.770333l2.886-.308727zm-242.428126-1.037051-5.772.568615v2.908811l-2.886.285936v17.462638l11.544-1.182827v-17.423555l-2.886.285936zm258.301399-.607229-11.544 1.195867v16.598142l2.886-.308738v2.764729l5.772-.620732v-2.761472l2.886-.308737zm-242.428126-.956447-5.772.568608v2.899813l-2.886.285932v17.408647l11.544-1.182809v-17.369566l-2.886.285932zm15.873274-1.563675-5.772.568599v2.890815l-2.886.285928v17.354658l11.544-1.182792v-17.315578l-2.886.285928zm242.428126.875841-11.544 1.195849v16.544153l2.886-.308732v2.75573l5.772-.620722v-2.752474l2.886-.308732zm121.935525-40.34533v50.064335l-47.619546 5.156554-31.746547 3.438649-15.873274 1.718324v-51.067432l31.746274-3.103495 15.873273-1.551734 15.873274-1.551734 15.873273-1.551733zm-348.490378 37.905814-5.772.568618v2.881953l-2.886.285937v17.301492l11.544-1.182831v-17.26241l-2.886.285938zm242.428126.795236-11.544 1.195831v16.490164l2.886-.308728v2.746733l5.772-.620713v-2.743476l2.886-.308728zm-226.554853-2.358911-5.772.568609v2.872955l-2.886.285933v17.247503l11.544-1.182814v-17.208421l-2.886.285933zm251.086276-.18225-11.544 1.195824v16.407026l2.886-.308726v2.732876l5.772-.620709v-2.72962l2.886-.308726zm-235.213002-1.381426-5.772.568601v2.863958l-2.886.285928v17.193513l11.544-1.182796v-17.154432l-2.886.285929zm251.086275-.262855-11.544 1.195866v16.353857l2.886-.308737v2.724014l5.772-.62073v-2.720758l2.886-.308737zm-226.554853-2.153734-5.772.568598v2.850101l-2.886.285927v17.110374l11.544-1.18279v-17.071293l-2.886.285927zm242.428126.509454-11.544 1.195847v16.299869l2.886-.308733v2.715017l5.772-.620721v-2.71176l2.886-.308732zm-226.554852-2.073129-5.772.568617v2.841239l-2.886.285937v17.057207l11.544-1.182829v-17.018125l-2.886.285937zm242.428126.428848-11.544 1.195829v16.24588l2.886-.308727v2.706018l5.772-.620711v-2.702762l2.886-.308727zm-226.554853-1.992523-5.772.568608v2.832242l-2.886.285932v17.003218l11.544-1.182812v-16.964136l-2.886.285932zm242.428126.348243-11.544 1.19581v16.191892l2.886-.308723v2.697021l5.772-.620702v-2.693764l2.886-.308722zm64.214532-34.096901v24.788699l-15.873 1.635694 15.873-1.635326v24.789084l-31.746274 3.438241v-49.912924l15.873-1.551735zm-290.769384 32.184983-5.772.5686v2.823243l-2.886.285928v16.949229l11.544-1.182795v-16.910147l-2.886.285928zm242.428126.267637-11.544 1.195852v16.138723l2.886-.308733v2.688158l5.772-.620723v-2.684902l2.886-.308734zm-226.554853-1.831313-5.772.568619v2.814382l-2.886.285938v16.896061l11.544-1.182834v-16.856979l-2.886.285938zm15.873273-1.563675-5.772.568611v2.805383l-2.886.285934v16.842072l11.544-1.182816v-16.802991l-2.886.285934zm240.985102.255907-11.544 1.195833v16.035878l2.886-.308729v2.671018l5.772-.620714v-2.667761l2.886-.308728zm15.873273-1.64428-11.544 1.195814v15.98189l2.886-.308724v2.66202l5.772-.620704v-2.658764l2.886-.308723zm-232.326952-1.028216-5.772.568608v2.791527l-2.886.285932v16.758933l11.544-1.18281v-16.719852l-2.886.285932zm15.873273-1.563675-5.772.568599v2.782529l-2.886.285928v16.704944l11.544-1.182792v-16.665864l-2.886.285928zm15.873274-1.563676-5.772.568619v2.773668l-2.886.285937v16.651776l11.544-1.182832v-16.612694l-2.886.285937zm15.873273-1.563675-5.772.56861v2.76467l-2.886.285933v16.597787l11.544-1.182814v-16.558706l-2.886.285933zm15.873274-1.563675-5.772.568601v2.755672l-2.886.285928v16.543799l11.544-1.182797v-16.504717l-2.886.285929zm15.873273-1.563675-5.772.56862v2.74681l-2.886.285939v16.490631l11.544-1.182838v-16.451548l-2.886.285939zm24.531423-2.416589-5.772.568617v2.732954l-2.886.285937v16.407492l11.544-1.182831v-16.36841l-2.886.285937zm15.873273-1.563676-5.772.568609v2.723956l-2.886.285933v16.353502l11.544-1.182812v-16.314422l-2.886.285933zm15.873273-1.563675-5.772.5686v2.714958l-2.886.285928v16.299514l11.544-1.182794v-16.260434l-2.886.285929zm15.873274-1.563675-5.772.56862v2.706096l-2.886.285938v16.246346l11.544-1.182836v-16.207263l-2.886.285938zm15.873273-1.563675-5.772.568611v2.697098l-2.886.285934v16.192357l11.544-1.182818v-16.153275l-2.886.285934zm15.873274-1.563676-5.772.568603v2.688099l-2.886.28593v16.138368l11.544-1.182799v-16.099287l-2.886.285929zm30.303522-2.985198-5.772.568622v2.671096l-2.886.285939v16.036343l11.544-1.18284v-15.997261l-2.886.28594zm15.873273-1.563675-5.772.568613v2.662098l-2.886.285935v15.982354l11.544-1.182822v-15.943273l-2.886.285935zm-327.472909-34.401084-397.756982 23.963 210.965353 19.235358 359.553647-30.209358 25.887-2.175z"/></svg>