<svg height="960" viewBox="0 0 960 960" width="960" xmlns="http://www.w3.org/2000/svg"><path d="m176.528847 1.87443485 18.248153 1.43649224.849541-.16118331c7.824749-1.43667068 15.842409-1.89868235 23.895974-1.34922001l1.006871.07395355 534 42.01162748c49.944942 3.9293413 88.470614 45.6050052 88.470614 95.7041242v55.585698l.472884.505792c15.266108 16.466261 24.277992 38.266428 24.527116 61.576243v390.183036c0 23.662447-9.044517 45.844969-24.52395 62.54456l-.47505.506369-.001 88.119338c0 48.319041-35.892339 89.024317-83.662181 95.204048l-1.451182.176668-549.51609 62.721088c-10.235471 1.168264-20.592264.681402-30.672325-1.441765l-.246222-.052377-13.081453 1.494142c-9.894288 1.129322-19.901946.71202-29.664022-1.235032l-1.008979-.206875-10.031855-2.113013c-29.5290567-6.219716-50.665691-32.272143-50.665691-62.449123v-793.1302732c0-2.5126985.0986508-5.0244283.2957245-7.5293865 4.1583654-52.8560118 50.3776505-92.3332543 103.2331225-88.17493145zm36.252554 39.70171265-.86391.0090421c-.059394.0010776-.118767.002249-.178122.003514l.17813-.0035142c-.300599.0054539-.600696.0133098-.90027.0235506l.72214-.0200364c-.282468.0060203-.564488.0141614-.846043.0244089l.123903-.0043725c-.269499.0092126-.538575.0203552-.807212.0334153l.683309-.0290428c-.332116.0120878-.663585.0271066-.994381.0450328l.311072-.01599c-.305502.0148522-.610437.0321842-.914784.0519776l.603712-.0359876c-.265712.0143992-.530989.0306744-.795817.0488132l.192105-.0128256c-.260216.0169232-.520002.0356457-.779345.0561559l.58724-.0433303c-.313608.02148-.626586.0455735-.93891.0722603l.35167-.02893c-.661841.052342-1.320796.1163268-1.976641.1917629-.053456.0061483-.107199.012409-.160921.0187465l.160921-.0187465c-.301069.0346294-.601484.0716719-.901221.1111091l.7403-.0923626c-.280044.0330362-.559516.0681607-.838399.1053584l.098099-.0129958c-.246367.0324151-.492276.066448-.737716.1020883l.639617-.0890925c-.334801.0446562-.668753.0923003-1.001826.1429066l.362209-.0538141c-.273971.0397833-.547357.0815696-.820141.1253444l.457932-.0715303c-.272081.0413392-.543575.084655-.814466.1299334l.356534-.0584031c-.279362.0448304-.558093.0917464-.836175.1407327l.479641-.0823296c-.269057.0449718-.537519.0918797-.80537.1407097l.325729-.0583801c-.6435.1133576-1.283523.2378013-1.919846.3731403-.118602.0252246-.237351.0508882-.355969.0769308l.355969-.0769308c-.26197.0557181-.523313.1132829-.784013.172681l.428044-.0957502c-.264574.0580874-.528498.1180604-.791757.1799052l.363713-.084155c-.287807.0655741-.57483.1333826-.86105.2034076l.497337-.1192526c-.250969.0589577-.501333.1196165-.751077.1819646l.25374-.062712c-.306989.0751066-.613053.152763-.918166.2329472l.664426-.1702352c-.263303.0657326-.525917.1333428-.787826.2028165l.1234-.0325813c-.246885.0648817-.493147.1314185-.738772.1995986l.615372-.1670173c-.285482.0757265-.570127.1536671-.853913.2338037l-.800193.2324504c-21.528189 6.4291145-37.943108 25.5431143-39.810907 49.284273-.11496 1.4612256-.172506 2.9264013-.172506 4.3921421v793.1302732c0 11.262986 7.888848 20.986561 18.910009 23.307952l10.031855 2.113013c3.742092.788198 7.549395 1.189825 11.362174 1.202073l.817086-.003336c1.906628-.021696 3.813559-.140787 5.713324-.357624l549.51609-62.721088c28.287154-3.228661 49.649462-27.167936 49.649462-55.638751l.00151-81.409846c-6.588184 2.663686-13.67483 4.386812-21.101556 4.99744l-427 35.108076c-39.630772 3.258455-74.39936-26.227134-77.657814-65.857906-.161359-1.962513-.24214-3.930819-.24214-5.899954v-448.518609c0-39.764502 32.235498-72 72-72 1.358802 0 2.717332.038466 4.073958.115351l427 24.199601c8.084838.458197 15.795652 2.237999 22.927435 5.122452l-.001393-54.87749c0-29.224574-22.473309-53.535378-51.607858-55.8274937l-534-42.0116275-.857621-.0609861c-.077386-.0049177-.154747-.0096753-.232081-.0142732-.227201-.0135073-.454014-.0256276-.680594-.0363778l.680594.0363778c-.300702-.0178778-.601009-.0333397-.900904-.0464021l.22031.0100243c-.280926-.0133286-.561494-.024551-.841687-.0336806l.621377.0236563c-.299097-.0130277-.597783-.0236686-.896039-.0319392l.274662.0082829c-.311534-.0101508-.622606-.0177146-.933194-.02271l.658532.0144271c-.285095-.0079057-.569796-.0136455-.854087-.0172339l.195555.0028068c-.325964-.0052427-.651395-.0076564-.976268-.0072626l.780713.0044558c-.290437-.003666-.580446-.0050865-.870009-.0042768zm-51.768548.5642284-.286092.0403536c-25.235546 3.7457297-45.468142 24.4897819-47.554255 51.0058812-.11496 1.4612256-.172506 2.9264013-.172506 4.3921421v793.1302732c0 11.262986 7.888848 20.986561 18.910009 23.307952l10.031855 2.113013c1.211395.255157 2.429624.469802 3.65266.643842-5.433302-7.340981-8.594524-16.394457-8.594524-26.064807v-793.1302732c0-1.9892196.078099-3.9776724.234115-5.9607643 1.546557-19.6579275 10.442027-36.9783073 23.778738-49.4776126zm187.987147 142.8900901c-28.718807 0-52 23.281193-52 52v448.518609c0 1.422153.058342 2.843707.174879 4.261078 2.353328 28.622224 27.463975 49.917372 56.086199 47.564043l427-35.108076c8.31221-.683433 16.034561-3.296463 22.741336-7.376934l-.000997-2.999394c15.059314-9.16178 24.998583-25.721952 24.998583-44.448794v-386.21093c0-27.575777-21.526099-50.356378-49.057697-51.916692l-427-24.199601c-.979785-.055528-1.960946-.083309-2.942303-.083309zm275.578961 109.156582c17.880784 2.832038 34.830469 8.92117 50.311499 17.951477.959449.55966 1.791115 1.254436 2.484953 2.04615l10.92823.00105c.369929 0 .735143.02008 1.094614.059206l.162566.017068c1.166839-.007418 2.335978.001406 3.507199.026649.260431.008634.520067.014962.779713.022095.434819.009195.870828.023561 1.307107.04021.393902.017433.787271.034188 1.180644.052794.262132.010279.524841.023597.78764.037746.517084.029692 1.03334.060547 1.549575.094594.247051.014755.495068.031906.743159.049799.566836.042175 1.132979.086723 1.699064.135116.147191.011566.294805.024477.442444.037651.527281.047903 1.054157.098152 1.580957.151735.159253.015564.318946.032141.478666.049028.622745.066319 1.245053.136682 1.867216.211708.130413.015434.260442.031335.390487.047442.651794.080911 1.303816.166735 1.955633.25769.085604.011871.170914.023869.256231.035956.257269.036498.514649.073752.771993.111806l1.29375.198108c74.396644 11.78327 123.929815 86.911578 111.173313 167.452961-.180379 1.138871-.372295 2.272916-.575596 3.402009-.157208.87353-.321328 1.74438-.492184 2.612177-.07137.361645-.143822.723062-.217443 1.08395-.049431.243396-.099441.485778-.149977.727916-.11487.549041-.232295 1.097284-.352415 1.644272-.277007 1.263453-.568721 2.520135-.874561 3.769874-.062756.253615-.125557.507468-.188941.761035-.125238.504145-.25327 1.0062-.383581 1.507108-.072991.277057-.145862.554026-.219431.830643-.14854.562397-.300977 1.123495-.456271 1.683113-.048474.170452-.096151.341096-.144094.511602-.1563.560407-.316544 1.118847-.47963 1.675776-.058398.194551-.115915.389512-.17378.584288-.168388.571989-.341001 1.141554-.516584 1.7095-.052138.163141-.103036.326778-.15418.490281-.429722 1.379876-.878478 2.749362-1.344441 4.10897-.037374.102393-.072973.205882-.108673.309314-.189231.555147-.383211 1.107431-.580027 1.658051-.068126.183461-.134424.367799-.201041.551951-.205322.574959-.415871 1.146839-.629478 1.716876-.058107.147483-.11413.296255-.170361.444903-.193928.520439-.392742 1.037928-.594075 1.553865-.078667.193622-.154839.387624-.231367.581406-.240656.617575-.487735 1.232047-.738387 1.844255-.034329.07553-.065881.152399-.097489.229233-.25664.63235-.519909 1.260846-.786938 1.886901-.034865.073136-.06689.148038-.098968.222905-7.159535 16.722301-17.005683 31.695457-28.842108 44.357032-.0496.049305-.097177.100141-.144787.150939-.451736.485587-.908271.966078-1.367679 1.443149-.00559.002506-.010048.007136-.014506.011766l.014506-.011766c-.500585.51983-1.00458 1.035599-1.511936 1.547265-.052296.049918-.103918.101917-.155576.153873-.442871.448101-.889501.891476-1.33866 1.331686-.122111.117323-.243409.235827-.36489.354101-.917183.894992-1.845872 1.775534-2.784747 2.642667-.125739.114697-.25098.229998-.376402.34506-.396674.365163-.795892.727247-1.196896 1.086918-.176619.157438-.353036.314944-.529796.471985-.371429.330771-.744978.659133-1.120027.985415-.085584.073905-.170932.148003-.256357.221993-.446374.387008-.895242.770894-1.346198 1.151812-14.43886 12.200032-31.024331 21.361146-48.832124 26.714893-.071506.017628-.1418.038701-.212112.059715-.611423.186545-1.225495.365089-1.84097.539096-.076036.017811-.151684.03913-.227353.060381-.620837.177973-1.243495.347766-1.867538.512906-.05952.012269-.117847.027665-.176186.043021-.626569.168338-1.255825.328837-1.886438.484595-.078034.016013-.154674.034875-.231334.053667-.59055.147951-1.183654.288817-1.777917.425479-.130957.02709-.261281.056861-.391659.086429-.577672.133937-1.157034.261037-1.737455.384135-.108746.02029-.216765.043065-.32482.065702-.582401.124685-1.166755.242769-1.75214.356785-.138015.024373-.275.050836-.41204.077077-.533279.104521-1.068341.203361-1.604233.298796-.201588.033662-.403264.069101-.605055.104057-.484668.086081-.970011.167193-1.456006.245506-.226353.034511-.452439.070343-.678663.105569-.501117.079869-1.003456.154936-1.506461.227007-.204068.027564-.407759.056269-.611557.084481-.477609.067674-.956229.13108-1.435428.191765-.24718.029908-.494203.060482-.741375.090332-.464726.057392-.930333.110934-1.396461.161902-.254932.026764-.509987.0539-.765193.080263-.443819.046834-.888117.090291-1.332867.131405-.286958.025689-.573729.051243-.86068.07582-.403103.035242-.807026.067827-1.211305.098475-.329763.024423-.659489.048152-.989442.070589-.383632.026539-.767901.050855-1.152474.073416-.333658.019249-.667082.037514-1.000725.054457-.38626.019821-.773232.03764-1.160497.053676-.334234.013752-.668643.026298-1.00326.037511-.391444.013099-.783063.024353-1.174965.03378-.334655.008173-.669431.014918-1.004403.020326-.377531.005879-.755411.010245-1.13354.012907-.356926.002821-.714289.003843-1.071862.003338-.339581-.000864-.67913-.002742-1.018869-.005998-.395327-.003334-.790804-.008963-1.186521-.016466-.344118-.007043-.688771-.015011-1.033606-.024401-.377436-.009709-.755156-.021678-1.133081-.035361-.353917-.013425-.707446-.027727-1.061154-.04353-.374609-.016098-.749723-.034527-1.125024-.054649-.332384-.018474-.665016-.037632-.997796-.058121-.421581-.0253-.843647-.053414-1.265931-.083679-.280203-.020727-.559763-.041693-.839419-.063603-.437539-.033658-.875717-.070294-1.314111-.109256-.068279-.006652-.136655-.012782-.205036-.018969l-.243451-.02383c-.079771.051777-.160517.102595-.24223.152428-30.46601 18.579728-65.535707 25.976107-100.375836 20.457972-85.306348-13.511198-142.149414-99.726622-127.50042-192.216729s95.351993-156.920374 180.658342-143.409175zm-160.904575 146.537865c-12.981388 81.961257 36.90001 157.617731 110.875343 169.334273 13.739541 2.176129 27.526486 2.023164 40.97625-.326769-5.145409.038656-10.302934-.239645-15.454032-.837724l-.521923-.063968-2.060603-.001796c-1.473238-.001559-2.867636-.320352-4.121406-.889925l-.028991-.013279-.691153-.115976c-71.621631-12.629616-119.663074-84.291235-109.64981-162.363205l.3247-2.391905.351625-2.329726c11.279508-71.216016 68.044027-124.461739 134.019852-126.407l-1.658214.061812.064332-.013347c.527839-.101685 1.069908-.161777 1.622492-.176871l.277152-.003782 4.931047-.001337c-.49274-.084068-.986336-.165262-1.480776-.243574-73.975332-11.716541-144.794497 44.822841-157.775885 126.784099zm158.069381-106.542941-2.161743.003753-.206888.031926c-.268688.037372-.540712.064076-.815617.079682l-.275848.011892c-56.086983 1.653694-105.040096 47.572235-114.844218 109.471278l-.329551 2.183357c-9.923715 69.277933 32.508811 132.583762 94.773712 142.445999l1.113979.165735c.369395.054957.731312.129577 1.084798.222672l.125633.034459.366856.00797c.137409.005819.274682.014473.411734.025954l.410399.042926c4.663658.585299 9.33273.858724 13.989457.824212-46.012701-29.468178-72.427422-87.668645-62.712084-149.008874 7.344288-46.370015 33.770382-84.6534 69.069381-106.542941zm-49.315615 109.67163c-11.088896 70.012534 31.482608 134.581891 94.548236 144.570506 1.854203.293676 3.706138.537007 5.554615.730918.179734.019418.360177.037908.540584.055928l-.540584-.055928c.618997.064935 1.237606.124328 1.855783.178214l-1.315199-.122286c.653599.065284 1.306729.124399 1.959337.177387l-.644138-.055101c.617458.053824 1.234486.102153 1.851038.145023l-1.2069-.089922c.62082.050406 1.241167.095266 1.860999.134617l-.654099-.044695c.635871.044214 1.271236.08262 1.906047.115258l-1.251948-.070563c.593133.037655 1.185793.070265 1.777941.097861l-.525993-.027298c.632837.032536 1.265123.059339 1.896809.080447l-1.370816-.053149c.600901.028004 1.201274.050844 1.80108.068553l-.430264-.015404c.64237.021465 1.28412.03704 1.925199.046766l-1.494935-.031362c.573219.016924 1.145919.029162 1.718064.036742l-.223129-.00538c1.239903.018809 2.477297.015736 3.711814-.008933l-1.631631.022588c.630803-.002735 1.260882-.011119 1.890188-.025114l-.258557.002526c1.263551-.025249 2.52409-.073122 3.78122-.143311.024275.002284.048618.000921.072961-.000451l-.072961.000451c24.088513-1.344926 46.925969-10.883481 65.740523-26.45147.267426-.221689.533913-.444179.799579-.667878l-.799579.667878c.458542-.379419.914696-.762419 1.368419-1.148968l-.56884.48109c.541704-.456132 1.079991-.917293 1.614793-1.383429l-1.045953.902339c.473991-.403817.94533-.811507 1.413972-1.223036l-.368019.320697c17.297472-15.076544 30.950423-35.357776 38.693268-59.037183.03645-.104985.070897-.210812.105227-.316708l-.105227.316708c.414623-1.268014.812299-2.545772 1.19268-3.832998.069673-.230647.137476-.462403.204718-.694465l-.204718.694465c.187653-.635024.371096-1.272352.550288-1.911951l-.34557 1.217486c.193975-.669429.383289-1.341412.567892-2.01591l-.222322.798424c.183516-.655029.362573-1.31244.537126-1.972196l-.314804 1.173772c.169172-.618115.334388-1.238343.495611-1.860655l-.180807.686883c.170495-.644417.336693-1.291071.498553-1.93993l-.317746 1.253047c.182482-.704367.359848-1.411403.532045-2.121066l-.214299.868019c.170512-.683541.33621-1.369529.497044-2.057925l-.282745 1.189906c.145088-.597945.286507-1.197755.424223-1.799405l-.141478.609499c.308719-1.321367.59952-2.651605.872057-3.990438.104784-.513843.206843-1.029873.306189-1.547171l-.306189 1.547171c.136657-.671327.268723-1.344815.396152-2.02043l-.089963.473259c.144094-.750306.28248-1.503279.415098-2.258871l-.325135 1.785612c.259662-1.37669.500075-2.76221.720872-4.156264 11.088896-70.012534-31.482608-134.581891-94.548236-144.570506l-1.670998-.251206c-.148704-.02116-.297417-.042002-.446138-.062526-.546767-.075315-1.093161-.146351-1.639288-.213058l1.639288.213058c-.578174-.079791-1.156478-.154785-1.734883-.224987l.095595.011929c-.60507-.073906-1.209812-.142497-1.814184-.205805l1.718589.193876c-.629307-.07638-1.258731-.147089-1.888233-.212133l.169644.018257c-1.264668-.132474-2.527716-.241817-3.788764-.328325-.04182-.004376-.083807-.007243-.125794-.010084l.125794.010084c-59.580756-4.087241-114.697217 42.798822-125.236088 109.33863z"/></svg>