<svg height="960" viewBox="0 0 960 960" width="960" xmlns="http://www.w3.org/2000/svg"><path d="m288.137407 12.9339323h1.541042l3.24296.0357911c10.121084.1380998 33.695378.6392847 86.392906 1.8461334l292.437347 6.7853268c66.095639 1.511186 99.42509 2.2192115 109.405239 2.3164709l3.173757.0185309c24.038132.2722306 44.019426 9.0600338 56.321618 28.1226287 5.15602 7.9893996 8.184507 16.6740031 9.827772 26.214096 1.137964 6.6065323 1.590248 13.405565 1.64569 21.5334945v3.4625534c-.036036 10.151698-.316289 46.155014-1.380653 175.629616l-3.535134 431.17401c-.452977 57.064555-.692542 89.74079-.757704 103.389807l-.019689 5.766855c-.183646 24.1244-5.573977 43.71954-18.373872 59.035198-12.976193 15.526609-30.470144 23.139444-51.182858 25.266151l-21.740346 2.201231-327.190719 33.656259c-41.042876 4.203377-67.605702 6.899274-80.339656 8.149002l-5.636124.543931-1.968961.179762-5.900743.507259c-12.069279 1.019008-20.621663 1.60892-29.140834 1.922007l-1.749028.060417c-.985053.031861-1.972841.060169-2.968726.08516-17.360946.435659-31.340154-.459135-43.40887-3.653429l-18.874067-5.149025-4.695077-1.297791c-7.614439-2.114244-14.742843-4.138012-21.575721-6.137205l-2.910838-.855484c-4.748564-1.401937-9.261171-2.766672-13.529098-4.09493l-1.273029-.397384c-13.885199-4.347559-24.823669-8.195385-32.95569-11.782118-14.345711-6.32736-24.499686-17.379459-32.004867-31.388465-5.005569-9.343286-8.758594-19.969954-11.640512-31.746792-4.109004-16.791274-6.372298-36.286289-6.456216-50.093551l-.004175-2.32906-2.100053-730.9188523c-.061146-24.6504097 18.699011-45.2733508 43.246726-47.538909l10.952479-1.0104091c68.765224-6.3135314 109.511325-9.4453421 125.125724-9.5082863zm1.249597 40h-.784123c-13.464793 0-54.109482 3.1135842-121.934065 9.3407527l-10.935045 1.0088046c-3.928489.3625682-6.930951 3.6631672-6.921165 7.6083395l2.09976 730.9036499.001891 1.606679c0 16.357618 5.417244 68.280986 26.246171 77.467851 20.828926 9.186866 73.068547 23.034227 89.52923 27.542243 11.03614 3.02242 28.425628 2.885618 45.552868 1.868121l1.740591-.106422c7.826274-.49176 15.550662-1.151783 22.539143-1.761699l1.80294-.164924 2.590801-.24784c48.79373-4.725895 410.528758-42.20199 431.416928-44.214197 21.531955-2.074223 33.856451-12.763661 34.100788-44.860535l.029136-7.639924c.154013-28.816824.988163-132.603792 1.970951-252.292627l3.374301-411.885262c.186726-24.052596.301088-39.978046.317633-44.763474v-2.268656c-.149573-22.2898657-3.987267-35.8664404-28.248049-36.1411924l-.756864-.0042513c-25.192596 0-463.70374-10.7766278-493.733821-10.995437zm-78.023648 68.0663967h1.233849l2.993427.011609c8.507554.058082 15.061468.328099 19.661743.810052 22.350686 2.341594 33.367129 8.039573 42.004537 16.963305 14.701532 15.188877 21.721166 41.975988 21.058902 80.361332v586.946653c0 18.678057-2.623985 36.046533 43.604637 36.046533 30.819081 0 182.074675-15.215733 453.766782-45.647198 6.566998-1.801733 10.197734-8.647807 10.892208-20.538221l-.251629 37.742864-.556152.409675c-8.812014 6.575355-9.125228 10.83869-28.262528 13.12314l-2.243088.257974c-33.666277 3.832601-395.901534 44.511953-442.10584 44.511953h-2.814317c-45.727016-.139178-79.537039-4.138528-79.537039-65.90672v-586.946653c0-48.798007-10.164941-59.30611-33.048745-59.30611-15.255869 0-30.748006.453624-46.47641 1.360874-6.763149-1.388434-10.190421-8.294208-10.283693-20.717323v-.513645c0-12.746526 4.18664-18.796004 12.559919-18.148433l3.424675-.11926c13.526458-.458353 24.986046-.692487 34.378762-.702401z"/></svg>