<svg height="960" viewBox="0 0 960 960" width="960" xmlns="http://www.w3.org/2000/svg"><path d="m381.347767 213.562719c42.159381 0 80.323991 24.05628 98.70141 61.436431h.360119c18.377419-37.380151 56.542029-61.436431 98.70141-61.436431h102.638433c45.270614 0 85.918254 27.735292 102.426045 69.888836l19.733729 50.389983c13.028576-19.783262 29.103666-32.953384 48.233151-39.178974 23.462384-7.63571 67.903934-9.829552 134.293293-6.936504 5.517611.24044 9.795603 4.908264 9.555162 10.425875s-4.908264 9.795603-10.425876 9.555162c-64.049688-2.791091-106.783638-.681545-127.233207 5.97366-15.439551 5.024721-28.687395 16.336321-39.7344 34.318821l67.347939.000422c22.09139 0 40 17.90861 40 40v63.84891c0 6.919936-6.859397 11.748282-13.373645 9.413741l-9.200624-3.297269c-5.199066-1.863213-7.903309-7.588321-6.040096-12.787386 1.349223-3.764841 4.72353-6.221457 8.456732-6.582828l.156658-.014168.000975-50.581c0-10.930636-8.768729-19.813225-19.655511-19.997093l-.344489-.002907-1.461782-.000884c5.669717 7.88111 9.009014 17.55103 9.009014 28.000884l-.000207 72.609 13.673943 22.802642c4.357268 7.266303 6.711535 15.552915 6.829402 24.016775l.002655.466583.719005.769559c25.831286 27.862426 40.907764 64.622321 41.276085 103.862774l.00691 1.472667c0 85.604136-69.395864 155-155 155s-155-69.395864-155-155c0-39.579423 14.966571-76.730166 40.875217-104.894235l.123783-.134765.001-.874036c0-8.472599 2.242543-16.790142 6.494228-24.109562l.339829-.57576 13.672943-22.802642.000793-72.609c0-26.244571 21.062674-47.569691 47.206232-47.993569l.793768-.006431 32.465503-.000281-22.421029-57.255225c-13.506375-34.489263-46.763535-57.181775-83.803128-57.181775h-102.638433c-31.04873 0-59.449317 15.946959-75.778575 41.436949l22.160076.000332c2.444317 0 4.845961.182705 7.19202.535202l32.458311.0014c22.09139 0 40 17.90861 40 40v63.84891c0 6.919937-6.859396 11.748282-13.373645 9.413741l-9.200624-3.297269c-5.199065-1.863213-7.903309-7.588321-6.040096-12.787386 1.349223-3.764841 4.72353-6.221457 8.456732-6.582828l.156659-.014168.000974-50.581c0-10.930635-8.768728-19.813225-19.65551-19.997093l-.34449-.002907-.279174-.001351c5.438522 7.781696 8.628843 17.250653 8.628843 27.464749l-.000207 72.609 13.673943 22.802642c4.357268 7.266303 6.711535 15.552915 6.829402 24.016775l.002655.466583.719005.769559c25.831286 27.862426 40.907764 64.622321 41.276085 103.862774l.00691 1.472667c0 85.604136-69.395864 155-155 155s-155-69.395864-155-155c0-39.579423 14.966571-76.730166 40.875217-104.894235l.123783-.134765.001-.874036c0-8.472599 2.242543-16.790142 6.494228-24.109562l.339829-.57576 13.672943-22.802642.000793-72.609c0-26.244571 21.062674-47.569691 47.206232-47.993569l.793768-.006431 21.618549-.000332c-16.329258-25.48999-44.729845-41.436949-75.778575-41.436949h-102.638433c-37.039593 0-70.296753 22.692512-83.803127 57.181775l-22.421911 57.255225 20.69613.000085c.952018-.300907 1.965625-.463202 3.017138-.463202h47.944974c22.09139 0 40 17.90861 40 40v63.84891c0 6.919937-6.859396 11.748282-13.373645 9.413741l-9.200624-3.297269c-5.199065-1.863213-7.903309-7.588321-6.040096-12.787386 1.349223-3.764841 4.72353-6.221457 8.456732-6.582828l.156659-.014168.000974-50.581c0-10.930635-8.768728-19.813225-19.65551-19.997093l-.34449-.002907-1.997144-.001186c5.874647 7.964103 9.346813 17.80886 9.346813 28.464584l-.000207 72.609 13.673943 22.802642c4.357268 7.266303 6.711535 15.552915 6.829402 24.016775l.002655.466583.719005.769559c25.831286 27.862426 40.907764 64.622321 41.276085 103.862774l.00691 1.472667c0 85.604136-69.395864 155-155 155-85.6041362 0-155-69.395864-155-155 0-39.579423 14.9665705-76.730166 40.8752175-104.894235l.1237825-.134765.001-.874036c0-8.472599 2.2425426-16.790142 6.4942277-24.109562l.3398292-.57576 13.6729431-22.802642.0007927-72.609c0-26.244571 21.0626744-47.569691 47.2062323-47.993569l.793768-.006431 28.353644-.000422c-11.047005-17.9825-24.294849-29.2941-39.734399-34.318821-20.4495697-6.655205-63.1835194-8.764751-127.2332082-5.97366-5.5176111.240441-10.1854345-4.037551-10.4258753-9.555162-.2404407-5.517611 4.0375511-10.185435 9.5551623-10.425875 66.3893582-2.893048 110.8309085-.699206 134.2932922 6.936504 19.129723 6.225668 35.204975 19.39604 48.233638 39.179713l19.733243-50.390722c16.50779-42.153544 57.15543-69.888836 102.426044-69.888836zm503.646718 329.888579-.0761.072414c-4.800549 4.532132-11.20904 7.388857-18.303573 7.618735-28.149356.919858-49.9098 1.392914-65.344948 1.417489l-1.878057.000758c-15.471358-.012458-37.441471-.485813-65.96985-1.418129-6.617374-.214307-12.637275-2.712306-17.312881-6.722769-18.700751 20.451537-30.109076 47.683592-30.109076 77.580204 0 63.512746 51.487254 115 115 115s115-51.487254 115-115c0-30.371258-11.773443-57.992681-31.005515-78.548702zm-641.844114.166947-.207246.192467c-4.764968 4.365506-11.051395 7.106748-17.99498 7.331735-28.149356.919858-49.9098 1.392914-65.344947 1.417489l-1.878058.000758c-15.471358-.012458-37.441471-.485813-65.9698495-1.418129-6.705161-.21715-12.7968924-2.778986-17.4982515-6.883176-18.788647 20.46877-30.257039 47.765397-30.257039 77.740611 0 63.512746 51.4872538 115 115 115 63.512746 0 115-51.487254 115-115 0-30.289113-11.709843-57.843246-30.849629-78.381755zm322.089962-72.903353-.017723.017268c-4.832383 4.700932-11.362318 7.675518-18.607798 7.910287-28.149356.919858-49.9098 1.392914-65.344948 1.417489l-1.878057.000758c-15.471358-.012458-37.441471-.485813-65.96985-1.418129-6.737734-.218204-12.856064-2.803932-17.56667-6.943099-18.550074 20.418613-29.855287 47.539336-29.855287 77.300534 0 63.512746 51.487254 115 115 115s115-51.487254 115-115c0-30.241629-11.673156-57.756846-30.759667-78.285108zm308.803217 52.737023c-32.291031 1.10185-56.761016 1.659586-73.4491 1.672262h-1.157972c-16.513216-.012543-40.646102-.558783-72.436584-1.637804l.000106.113383c.001291 2.661896 1.30473 5.02728 3.314841 6.480015 1.108612.643367 2.386948 1.029035 3.754482 1.073346l1.145237.037221c28.160478.913739 49.76078 1.370608 64.800904 1.370608h.613329c15.217426-.012598 36.99503-.481814 65.332812-1.407829 4.212244-.136486 7.578218-3.511584 7.735194-7.68859zm-642.044254.012804.377588-.012804c-32.291032 1.10185-56.761017 1.659586-73.449101 1.672262h-1.157972c-16.570756-.012586-40.814376-.562596-72.7691848-1.649103l-.0006262.124682c.000842 1.736753.5559965 3.347284 1.5000747 4.660466 1.4136089 1.705195 3.5230657 2.815793 5.9025816 2.892895l1.1452373.037221c28.1604784.913739 49.7607794 1.370608 64.8009034 1.370608h.613329c15.217427-.012598 36.99503-.481814 65.332812-1.407829 4.018827-.130219 7.267317-3.208458 7.693501-7.118501.007506-.143886.01149-.288927.011561-.43486zm626.299775-35.610025c-1.374783.828828-2.969346 1.337729-4.685388 1.418669-23.347106 1.101209-41.013605 1.660935-53.054767 1.677398h-1.086903c-12.041163-.016463-29.707662-.576189-53.054768-1.677398-1.44891-.06834-2.811218-.441773-4.027754-1.055269l-9.271314 15.461674c28.907198.951479 51.026993 1.432695 66.327706 1.444411h1.139162c15.457298-.011836 37.87396-.50283 67.217328-1.473771zm-646.352055 1.418669c-23.347106 1.101209-41.013605 1.660935-53.054767 1.677398h-1.086903c-12.041163-.016463-29.707661-.576189-53.054767-1.677398-1.550468-.073131-3.001767-.495621-4.281395-1.187789l-9.3443922 15.583429c29.0672972.958615 51.2961172 1.443415 66.6544242 1.455176h1.139162c15.410441-.0118 37.738118-.499858 66.950668-1.464954l-9.414682-15.699693c-1.333703.766843-2.864883 1.236361-4.507348 1.313831zm633.545191-101.273363h-89.984414c-4.418278 0-8 3.581722-8 8l-.000497 73.301719.881385.042216c22.557832 1.056059 39.611468 1.591106 51.108039 1.606842h1.037488c11.670762-.015975 29.068259-.567116 52.137186-1.655204.15785-.007445.315018-.011189.471419-.011307l-.000275-73.612606c0-2.214222-.899556-4.218341-2.353148-5.666839-1.410913-1.247554-3.265613-2.004821-5.297183-2.004821zm-642 0h-89.984414c-4.418278 0-8 3.581722-8 8l.000056 73.288528c.061565.001784.12324.004131.185019.007045 23.068926 1.088088 40.466424 1.639229 52.137185 1.655204h1.037488c11.670762-.015975 29.06826-.567116 52.137186-1.655204.157745-.00744.314809-.011184.471107-.011307l.000038-73.612606-.002734-.228378c-.28585-4.158553-3.749796-7.443282-7.980931-7.443282zm350.551343 62.951915c-32.291031 1.10185-56.761016 1.659586-73.4491 1.672262h-1.157972c-16.511315-.012541-40.640546-.558657-72.425607-1.637431.136596 2.86108 1.778927 5.335657 4.160698 6.632944l-.317581.245763c.976445.471239 2.064294.750368 3.215335.787664l1.145237.037221c28.160478.913739 49.76078 1.370608 64.800904 1.370608h.613329c15.217426-.012598 36.99503-.481814 65.332812-1.407829 4.212244-.136486 7.578218-3.511584 7.735194-7.68859zm-15.744479-35.597221c-1.374783.828828-2.969346 1.337729-4.685388 1.418669-23.347106 1.101209-41.013605 1.660935-53.054767 1.677398h-1.086903c-12.041163-.016463-29.707662-.576189-53.054768-1.677398-1.540179-.072645-2.982501-.490029-4.255898-1.174046l-9.336891 15.570774c29.051123.957894 51.268932 1.442332 66.621427 1.454088h1.139162c15.457298-.011836 37.87396-.50283 67.217328-1.473771zm-13.156533-100.183034h-90.254148c-.630928 0-1.244797.073038-1.833614.211119-3.218497 1.036247-5.546983 4.054811-5.546983 7.617221l-.000497 73.801719.881385.042216c22.557832 1.056059 39.611468 1.591106 51.108039 1.606842h1.037488c11.670762-.015975 29.068259-.567116 52.137186-1.655204.15785-.007445.315018-.011189.471419-.011307l-.000275-73.612606c0-4.418278-3.581722-8-8-8z"/></svg>