<svg height="960" viewBox="0 0 960 960" width="960" xmlns="http://www.w3.org/2000/svg"><path d="m707.620828 34.6524755.062848.0484512c4.011095 1.6684263 8.008548 3.626961 11.878325 5.9052203l175.976289 144.508591c10.941453 8.985676 17.209202 22.454425 17.047547 36.615381l-7.264218 615.487337c-.28411 24.077532-18.833612 43.984461-42.820225 45.950417l-599.986303 49.146721c-27.129163 2.222007-53.440699-9.938275-69.335625-32.045511l-136.9882846-190.532785c-5.7082066-7.9376-8.7770183-17.467928-8.7770183-27.245628v-548.324157c0-3.942456.4412539-8.045436 1.2585345-11.922528 6.3082336-34.7463355 35.6812312-61.6720328 72.1023304-63.7923421l546.213782-31.7959694c3.080525-.1793885 6.872273-.0690822 11.132343.394003l7.68049-.4491457c6.830584-.397044 16.223373 3.751939 21.819185 8.0519447z" fill="none" stroke="#000" stroke-linecap="round" stroke-linejoin="round" stroke-width="40"/></svg>