<svg width="960" height="960" viewBox="0 0 960 960" fill="none" xmlns="http://www.w3.org/2000/svg">
<path d="M480 11C614.757 11 724 120.243 724 255C724 306.938 707.748 355.137 680.058 394.719C664.063 439.144 640.239 518.279 629.838 599.539C629.326 603.539 628.834 607.39 628.36 611.099C623.507 649.078 620.483 672.813 617.598 688.158C614.713 703.502 611.41 714.09 603.777 723.14C600.512 727.012 596.779 730.169 594.023 732.546C593.193 733.262 592.357 733.985 591.5 734.737V767C591.5 771.665 589.868 776.17 586.908 779.748L587.005 779.866C592.999 787.222 592.999 797.778 587.005 805.134L586.495 805.759L586.768 806.081C592.987 813.431 593.087 824.17 587.005 831.634L586.113 832.727L587.227 834.144C593.093 841.609 592.901 852.171 586.768 859.419L579.867 867.572C577.669 881.801 569.245 901.959 546.858 911.583C545.259 914.876 543.334 918.422 541.108 921.944C536.691 928.936 529.858 937.841 520.38 943.596C504.207 953.415 485.134 954 479 954C472.866 954 453.793 953.415 437.62 943.596C428.142 937.841 421.309 928.936 416.892 921.944C414.666 918.422 412.74 914.876 411.141 911.583C388.755 901.959 380.33 881.802 378.132 867.573L371.232 859.419C365.099 852.171 364.907 841.609 370.773 834.144L371.886 832.727L370.995 831.634C364.913 824.17 365.013 813.431 371.232 806.081L371.504 805.759L370.995 805.134C365.001 797.778 365.001 787.222 370.995 779.866L371.091 779.748C368.131 776.17 366.5 771.665 366.5 767V734.737C365.642 733.985 364.806 733.262 363.976 732.546C361.22 730.169 357.488 727.012 354.223 723.14C346.59 714.09 343.287 703.502 340.402 688.158C337.517 672.813 334.493 649.078 329.64 611.1V611.099L329.615 610.906C329.149 607.257 328.665 603.47 328.162 599.539C317.231 514.136 291.477 431.109 275.593 388.289C250.555 349.964 236 304.152 236 255C236 120.243 345.243 11 480 11ZM449.352 898.323C449.781 899.071 450.233 899.827 450.709 900.581C453.825 905.514 456.659 908.359 458.38 909.404C461.165 911.095 464.952 912.351 469.2 913.12C473.334 913.868 477.022 914 479 914C480.978 914 484.666 913.868 488.8 913.12C493.048 912.351 496.835 911.095 499.62 909.404C501.341 908.359 504.175 905.514 507.291 900.581C507.757 899.843 508.199 899.101 508.621 898.368C486.874 899.344 466.211 899.071 449.352 898.323ZM539.824 864.128C519.77 867.518 497.787 869.367 476.936 870.271C456.885 871.139 437.574 871.143 421.546 870.737C423.309 872.865 425.925 874.799 430.15 875.921L430.692 876.059L431.305 876.216C432.452 876.531 433.558 876.946 434.614 877.45C455.899 878.961 489.175 879.997 523.355 877.465C524.607 876.865 525.93 876.391 527.308 876.059C533.186 874.64 536.085 871.703 537.853 868.751C538.784 867.195 539.413 865.579 539.824 864.128ZM540.501 832.587C519.987 835.858 497.644 837.669 476.397 838.566C454.577 839.488 433.591 839.456 416.417 838.994C415.705 841.069 414.643 843.054 413.227 844.856L412.303 846.031L412.768 846.581C413.801 847.802 414.675 849.133 415.381 850.543C432.096 851.119 453.607 851.262 476.07 850.289C499.291 849.283 523.104 847.1 543.556 843.127C541.533 839.906 540.517 836.247 540.501 832.587ZM541.28 800.463C520.554 803.813 497.913 805.658 476.397 806.566C455.023 807.469 434.448 807.458 417.474 807.022C417.257 811.259 415.697 815.437 412.8 818.879C430.223 819.44 452.408 819.562 475.553 818.584C498.059 817.633 521.122 815.659 541.47 812.158C540.245 808.368 540.18 804.287 541.28 800.463ZM542.782 769.716C521.651 773.222 498.434 775.136 476.397 776.066C454.968 776.971 434.344 776.958 417.345 776.52C417.783 780.038 417.287 783.653 415.845 786.971C432.772 787.45 453.735 787.505 475.553 786.584C497.719 785.648 520.423 783.716 540.543 780.313C540.305 776.684 541.056 773.008 542.782 769.716ZM551.5 731.227C504.402 738.494 466.177 738.292 438.15 735.901C425.444 734.817 414.851 733.283 406.5 731.801V756.15C424.695 756.895 449.516 757.184 475.553 756.084C501.849 754.973 528.903 752.462 551.5 747.755V731.227ZM648.346 370.254C516.078 382.633 382.228 376.706 311.521 370.415C311.799 370.985 312.051 371.569 312.274 372.164C328.784 416.203 356.216 503.668 367.838 594.461L369.293 605.835V605.836L369.317 606.028L371.076 619.775C374.968 650.122 377.432 668.627 379.714 680.767C382.322 694.641 384.137 696.566 384.799 697.351C385.633 698.34 386.778 699.389 390.104 702.258L392.267 704.131C394.092 705.723 396.199 707.602 398.551 709.838C400.188 710.198 402.03 710.589 404.078 710.997C412.517 712.677 424.521 714.666 439.85 715.974C468.564 718.423 509.049 718.494 559.693 709.608C562.936 706.538 565.702 704.151 567.896 702.258C571.222 699.389 572.367 698.339 573.201 697.351C573.863 696.566 575.678 694.641 578.286 680.767C580.895 666.893 583.74 644.704 588.683 606.027C589.157 602.319 589.649 598.465 590.162 594.461C601.253 507.809 626.742 424.216 643.37 378.543L643.614 377.905C644.21 376.428 644.981 375.026 645.91 373.73C646.734 372.581 647.545 371.421 648.346 370.254ZM480 51C367.334 51 276 142.334 276 255C276 288.978 284.294 320.978 298.964 349.128C365.745 355.965 516.079 364.028 661.16 348.89C675.754 320.795 684 288.878 684 255C684 142.334 592.666 51 480 51Z" fill="black"/>
</svg>
