<svg height="960" viewBox="0 0 960 960" width="960" xmlns="http://www.w3.org/2000/svg"><g fill="#000" fill-rule="evenodd"><path d="m-.60289983 91.3858854c0-17.5999386-1.03259179-33.174789.23244491-48.5663533 2.07859386-25.1549033 21.64419682-43.35387461 48.11609542-43.4969272 97.5329885-.51856563 195.0659765-.3352795 292.5944955.01341118 7.912067.03129275 16.208562 2.28884139 23.651269 5.22588981 274.915272 108.43833111 472.247586 297.50467711 589.842358 568.99613511 3.942623 9.119602 4.885813 20.125711 4.921574 30.260092.357608 95.308786.219035 190.608632.214565 285.912947-.004471 55.875447-14.384764 70.140472-69.930156 69.228511-5.064617-.084937-10.124764-.630325-16.512529-1.050542-5.654669-238.021623-90.573051-442.716464-259.109018-609.681185-168.491266-166.911076-374.218418-249.9531025-614.02109883-256.8419786"/><path d="m.61239861 395.082795v-151.787756c380.25813639-8.929481 726.95003239 316.009646 724.15470639 715.092562h-157.239332c-6.09524-153.090251-60.081652-286.544595-169.563773-395.041151-109.370487-108.393609-242.42087-162.816448-397.35160139-168.263655"/><path d="m420 959.987239h-21.690871c-112.883519 0-225.767039.040331-338.6460979-.022406-42.2265006-.022406-59.61755654-17.355636-59.6353981-59.371242-.04906428-110.425402-.01784155-220.846323-.01784155-331.271726v-21.908521c198.65233555-10.015453 418.59856755 162.953872 419.99020855 412.573895"/><path d="m958.816312 273c-80.631086-105.187985-172.954816-195.5662385-279.816312-273.90627673 28.469048 0 56.933636-.00447019 85.398224 0 47.501926 0 95.008312-.26821126 142.505778.10281431 30.422281.23691995 51.296907 18.09531952 51.622446 46.65534832.856212 75.7070981.289864 151.4320761.289864 227.1481141"/></g></svg>