<svg height="960" viewBox="0 0 960 960" width="960" xmlns="http://www.w3.org/2000/svg"><path d="m336.582428 197.572569 527.55543 187.835443c26.298771 9.363643 43.862142 34.260482 43.862142 62.177318l-.001 22.16619 27.49289 12.441631c15.400805 6.969666 24.740487 22.856989 23.377702 39.669629l-.044577.509748-4.858126 51.767224c-.747654 7.966855-3.867578 15.526359-8.95654 21.70149l-77.958483 94.597651c-11.417579 13.854504-30.667266 18.404783-47.079712 11.128795l-2.959154-1.312168-33.924204 39.941769c-1.397398 1.645221-2.925391 3.174289-4.568862 4.57238l-.621685.518116c-13.416528 10.953328-25.819158 18.142952-39.100819 21.108183-.113765.025399-.22764.0503-.341623.074704l-.364945.078134c-.115606.02475-.231322.048989-.347143.072714-12.750449 2.611815-27.138601 1.440517-45.697255-2.430893-2.249449-.469244-4.45428-1.13145-6.590027-1.97927l-527.485932-209.394284c-22.117828-8.777664-37.798143-28.781874-41.04569-52.402628l-.294348-2.159958c-2.585844-19.155516-4.431146-37.391724-5.530893-54.717002-.266791-4.202995-.484975-8.430715-.654616-12.683131l-.027958-.707834-83.1701554-33.002043c-15.0880226-5.986998-25.04619284-20.489623-25.2468446-36.688506v-41.469354c0-11.637935 5.06856456-22.698818 13.8835326-30.297362l84.6707904-72.986617c10.97907-9.464009 26.219022-12.247872 39.834966-7.276602l94.697711 34.574484 34.728187-31.874693c18.023007-16.543071 43.719368-21.759424 66.767241-13.553258zm-186.40446 196.705857-.065089 2.898804c-.059275 2.940766-.095202 5.868285-.107782 8.782556-.006107 1.411305-.006722 2.819722-.001859 4.22503l-.000238.009865.002819.625743.001181.350257-.001-.315.003141.599894-.000141.067106.005.672.002.311.003.366.006468.683901.003532.378099.004.309.006387.586294.000613.105706.016329 1.165972.003671.234028.002.152.009.556.007286.444899.012714.692101-.009-.425.014.717.007002.357913.006998.363087.015.726.002867.104462.000597.027053.013536.598485.013693.577766-.003671-.152052.025978 1.048286.008053.297976.011947.445024.01.364.004.145.001778.052639.007222.253361.015.5.005.177v.007l.005.175.006.187.006.193.001836.042873.011164.356127.007.207.005.16.002.052.007.217.015.447.008.231.009.244-.001-.009.005.117.096153 2.548738c.155566 3.847652.353926 7.671021.595078 11.470108 1.038112 16.354286 2.788674 33.654223 5.251685 51.899811l.287495 2.109437c1.276824 9.286787 7.453918 17.167233 16.167001 20.625101l527.48938 209.395652c13.617097 2.840581 23.451085 3.641138 29.501961 2.40167l.364946-.078134c5.991695-1.337691 13.498369-5.689201 22.520022-13.054528l40.075279-47.183855-19.592605-8.688852c-7.230628-3.206514-11.892221-10.373164-11.892221-18.282886v-58.711155c0-4.668693 1.633306-9.190281 4.616888-12.781232l76.030091-91.50756c5.754604-6.926071 15.428185-9.152393 23.631483-5.438657l2.528364 1.144342.001-25.268185c0-6.865225-2.696383-13.26694-7.243079-18.0058l-141.003919 152.655395c-13.654443 14.78266-34.958901 19.713853-53.719957 12.434179l-514.012669-199.447441c-.65785-.255259-1.273347-.572481-1.842408-.942403zm631.014032 198.061255.000174 47.807262 44.717826 19.830738 5.965174-45.600893zm135.520376-57.145269c-.88358 1.058969-1.738942 2.084118-2.567803 3.077507l-.316902.381301c.069035.473786.1045.956007.1045 1.443576v9.23357c0 2.320888-.80728 4.569508-2.283464 6.36043l-57.103707 69.278776c-1.175121 1.425668-2.662435 2.442355-4.281107 3.032641l-2.832893 21.650468 66.067682-80.195714zm-59.490112-45.266184-69.374264 83.496453 52.038 22.627.160754-.19159c5.281034-6.32931 5.403009-6.475496 13.941246-16.708558 8.15801-9.77736 13.297556-15.937097 18.290491-21.921121l.808833-.969385c.164386-.197016.328782-.394044.493289-.591206l.493963-.592014c4.479717-5.368931 9.118436-10.928428 15.982668-19.155198.158617-.740675.404251-1.473175.74125-2.184724l.127725-.260047c1.127782-2.216039 2.968228-3.831557 5.100215-4.709498 3.562484-4.269425 7.650686-9.169129 12.434081-14.902019l-40.461515-18.311801v-.747839zm-560.359225-249.333541-21.419937 19.660171-116.572603 106.997842c-2.808666 2.578236-4.987292 5.714821-6.423852 9.168375 2.14125-.722586 4.537628-.726983 6.808587.154196l514.01267 199.447441c11.103482 4.308378 23.712242 1.389917 31.793443-7.359004l137.233653-148.573027-519.129456-184.835394c-9.079465-3.232732-19.202274-1.177805-26.302505 5.3394zm-254.863039 89.528994v29.840903l88.156645 34.982501c.060861-2.613497.139455-5.236545.235776-7.869149l.098802-2.552019c.296262-7.241092 2.294011-14.235644 5.7476-20.454173zm84.67079-84.123681-76.39079 65.848681 98.744252 35.571542c.441427.159018.864803.34588 1.26886.557893l72.762888-66.787435zm-.157372 65.331485 18.700327 7.810103-14.985704 16.680102-20.930028-8.87zm41.612934-37.941205 18.700327 7.810103-14.985704 16.680103-20.930028-8.870001z"/></svg>