<?xml version="1.0" encoding="utf-8"?>
<!-- Generator: Adobe Illustrator 21.0.0, SVG Export Plug-In . SVG Version: 6.00 Build 0)  -->
<svg version="1.1" id="Layer_1" xmlns="http://www.w3.org/2000/svg" xmlns:xlink="http://www.w3.org/1999/xlink" x="0px" y="0px"
	 viewBox="0 0 393.8 1417.3" style="enable-background:new 0 0 393.8 1417.3;" xml:space="preserve">
<path d="M244.2,410.4c-2.1-1.1-4.6-0.3-5.7,1.8c-1.1,2.1-0.3,4.6,1.8,5.7c32.1,16.6,52,49.3,52,85.4c0,53-43.1,96-96,96
	s-96-43.1-96-96c0-36,19.9-68.7,51.9-85.3c2.1-1.1,2.9-3.6,1.8-5.7c-1.1-2.1-3.6-2.9-5.7-1.8c-34.8,18.1-56.4,53.6-56.4,92.8
	c0,57.6,46.9,104.5,104.5,104.5c57.6,0,104.5-46.9,104.5-104.5C300.8,464.1,279.1,428.5,244.2,410.4z"/>
<path d="M196.3,490.8c2.3,0,4.2-1.9,4.2-4.2v-93.1c0-2.3-1.9-4.2-4.2-4.2c-2.3,0-4.2,1.9-4.2,4.2v93.1
	C192,488.9,193.9,490.8,196.3,490.8z"/>
<path d="M350.8,349c-23-23.7-53.8-36.8-86.9-36.8h-40.2V24.8c0-6-4.9-11-11-11h-33c-6,0-11,4.9-11,11v287.3h-40.2
	c-33,0-63.9,13.1-86.9,36.8c-23,23.7-35,55-33.9,88l18,545.9c1,31.5,14.1,61,36.8,82.9c22.7,21.9,52.5,34,84.1,34h23
	c0,0.3-0.1,0.7-0.1,1v291.2c0,5.9,4.8,10.8,10.8,10.8h33.4c5.9,0,10.8-4.8,10.8-10.8v-291.2c0-0.3,0-0.7-0.1-1H246
	c31.5,0,61.4-12.1,84.1-34c22.7-21.9,35.7-51.4,36.8-82.9l18-545.9C385.8,404,373.8,372.7,350.8,349z M177.3,24.8
	c0-1.4,1.1-2.5,2.5-2.5h33c1.4,0,2.5,1.1,2.5,2.5v14.6c-2,1.2-4.4,2.2-7.2,2.2c-4,0.1-7.7-1.6-11-5.1c-6.1-6.4-14.1-5.4-19.8-3V24.8
	z M177.3,312.2V165.5V38.4c1.2-0.6,2.7-1.3,4.5-1.8c4.9-1.4,9-0.3,12.2,3c4,4.2,8.8,6.4,13.8,6.4c0.1,0,0.3,0,0.4,0
	c2.4-0.1,4.8-0.6,7.1-1.7v121.3v146.6v4.7c0,0.7-1.1,1.3-2.5,1.3h-33c-1.4,0-2.5-0.6-2.5-1.3V312.2z M215.9,1392.1
	c0,1.3-1,2.3-2.3,2.3h-33.4c-1.3,0-2.3-1-2.3-2.3v-9.8c1.1-0.5,2.4-1.1,3.8-1.5c4.9-1.4,9-0.3,12.2,3c4,4.2,8.8,6.4,13.8,6.4
	c0.1,0,0.3,0,0.4,0c2.7-0.1,5.4-0.8,7.8-2V1392.1z M215.9,1100.9v87.5v194.8c-2.1,1.5-4.8,2.6-7.9,2.7c-4,0.1-7.7-1.6-11-5.1
	c-5.9-6.2-13.4-5.5-19-3.3v-189.2v-87.5v-1.6c0-0.4,1-0.7,2.3-0.7h33.4c1.3,0,2.3,0.3,2.3,0.7V1100.9z M367.8,436.5l-18,545.9
	c-0.9,27.1-12.1,52.4-31.6,71.3c-19.5,18.9-45.1,29.2-72.3,29.2h-99.4c-27.1,0-52.8-10.4-72.3-29.2c-19.5-18.9-30.7-44.2-31.6-71.3
	l-18-545.9c-0.9-28.4,9.4-55.3,29.2-75.7c19.8-20.4,46.3-31.7,74.7-31.7h135.3c28.4,0,54.9,11.2,74.7,31.7
	C358.3,381.2,368.7,408.1,367.8,436.5z"/>
</svg>
