<?xml version="1.0" encoding="utf-8"?>
<!-- Generator: Adobe Illustrator 21.0.0, SVG Export Plug-In . SVG Version: 6.00 Build 0)  -->
<svg version="1.1" id="Layer_1" xmlns="http://www.w3.org/2000/svg" xmlns:xlink="http://www.w3.org/1999/xlink" x="0px" y="0px"
	 viewBox="0 0 1417.3 780" style="enable-background:new 0 0 1417.3 780;" xml:space="preserve">
<g>
	<path d="M1151.3,14.3c0.1,0.7,0.4,1.5,0.4,2.2c0,25.3,0,50.6,0,75.9c0,0.5-0.1,1-0.1,1.6c-105.7-0.2-197.3,35-272.2,109.8
		c-75,74.8-110.3,166.4-110.3,272.5c-1-0.9-1.8-1.6-2.5-2.3c-24.8-24.3-53.3-42.8-85.9-55.1c-32.7-12.4-66.5-17.5-101.3-15.3
		c-64.7,4.2-119.4,30-164.2,76.8c-3.1,3.3-5.5,3.8-9.7,2.3c-40.8-14.3-82.9-20.7-126-17.7c-111.9,7.8-199.2,58.6-261.9,151.6
		c-0.4,0.6-0.8,1.2-1.7,1.7c1.9-5.4,3.7-10.9,5.7-16.3c38.6-103.7,126.6-180.1,234.8-204c33.7-7.4,67.7-9.4,101.9-5.9
		c9.6,1,19.1,2.8,28.7,4.1c1.2,0.2,2.7-0.2,3.6-0.9c39.3-31.3,83.5-52.7,132.6-63.6c30.3-6.8,61-9.1,92-7c31,2,61,8.3,90.2,19
		c0.5,0.2,1,0.3,1.6,0.5c1.4-4.5,2.8-9,4.2-13.4c47.1-147.8,167-261.6,317.3-301.1c34.5-9.1,69.6-14,105.3-14.7
		c1.3,0,2.5-0.2,3.8-0.4C1142.1,14.3,1146.7,14.3,1151.3,14.3z"/>
	<path d="M784.5,768c-4.7-0.5-9.4-0.8-14-1.6c-39.8-6.4-69.9-26.5-84.5-64.8c-16.4-42.9-7.3-99.9,42.4-131.8
		c17.2-11,36.2-15.5,56.4-14.6c5.5,0.3,11,1.6,16.4,2.6c0.5,0.1,1,0.9,1.3,1.4c0.2,0.4,0.1,1,0.1,1.5c0,22.8,0,45.7,0,68.5
		c0,0.8-0.1,1.7-0.1,2.7c-7.6-1.6-15.1-1.1-22.5,0.5c-12,2.6-19.1,10.6-20.1,22.8c-0.4,4.9-0.4,10,0.7,14.7
		c2.6,10.8,10.4,16.4,21,18.5c11.7,2.2,21.1-2.3,29.1-10.4c4.5-4.6,5.9-10.4,5.9-16.7c0-54.7,0-109.4,0-164.2c0-1.1,0-2.2,0-3.5
		c26.9,0,53.6,0,80.6,0c0,1,0,1.9,0,2.8c0,56.3-0.4,112.5,0.1,168.8c0.5,55.1-42.7,94.2-85.1,100.8c-5.1,0.8-10.3,1.3-15.5,2
		C792.7,768,788.6,768,784.5,768z"/>
	<path d="M1404.7,436.6c-0.3,6.9-0.5,13.8-0.9,20.7c-2.6,43.6-13.2,85.3-33.2,124.1c-47.4,92.1-121.8,150-222.9,173.3
		c-24.4,5.6-49.3,7.6-74.3,7.2c-0.4,0-0.8-0.1-1.5-0.1c0-26.2,0-52.4,0-78.9c70.1,0.7,131.2-22.2,181.1-72.1
		c49.9-49.9,73-110.9,72.3-181.4c0.8-0.1,1.5-0.2,2.2-0.2c24.9,0,49.8,0,74.6,0c0.8,0,1.7,0.1,2.5,0.2
		C1404.7,431.8,1404.7,434.2,1404.7,436.6z"/>
	<path d="M279.7,559.8c25,0,49.6,0,74.5,0c0,1.2,0,2.3,0,3.4c0,38.1,0,76.3,0.1,114.4c0,2.9,0.5,6,1.6,8.7
		c2.8,6.9,10.6,11.4,17,10.2c9.2-1.7,13.9-6.9,14.5-15.9c0.1-1.3,0.1-2.6,0.1-3.8c0-37.9,0-75.8,0-113.6c0-1,0-2,0-3.2
		c26.5,0,52.9,0,79.7,0c0,0.9,0,1.8,0,2.7c0,37.4,0,74.9,0,112.3c0,18.3-3.7,35.7-14,51.1c-14.2,21.2-34.2,33.8-59.2,38.3
		c-20.5,3.6-40.7,2.7-60.3-5.1c-4.9-1.9-9.5-4.6-14.1-7.1c-1.7-1-2.8-1-4.6-0.1c-33.3,17.6-67.6,20-101.6,3.5
		c-27.3-13.2-42.3-36.1-46-66.3c-0.7-5.7-0.9-11.4-0.9-17.1c-0.1-36.3,0-72.7,0-109c0-1,0-2,0-3.2c26.7,0,53.1,0,79.8,0
		c0,1.2,0,2.3,0,3.4c0,38,0,75.9,0,113.9c0,2.6,0.2,5.3,0.9,7.8c2.2,7.7,9.7,12.6,17.5,11.6c8-1,14.6-8.1,15-16.1
		c0.1-1.2,0-2.4,0-3.6c0-38,0-75.9,0-113.9C279.7,562,279.7,561,279.7,559.8z"/>
	<path d="M1198.5,143.9c10.5,0,20.2,1.9,29.6,5.7c29.9,12.1,49.5,40.5,49.6,73.2c0.2,72.4,0.5,144.8-0.1,217.3
		c-0.8,93-66.8,172.3-157.9,191.1c-15.3,3.2-30.8,4.3-46.4,4.1c-0.4,0-0.8-0.1-1.4-0.1c0-26.3,0-52.5,0-79.4c5.1,0,10.1,0.2,15.1,0
		c50.3-2.6,94.7-38.9,107.4-87.6c2.8-10.6,4.1-21.5,4.1-32.5c0-96,0-192,0-288C1198.5,146.4,1198.5,145.3,1198.5,143.9z"/>
	<path d="M1024.2,761.8c-7.9,0.2-15.3-1-22.5-3.1c-32.9-9.7-56.5-39.9-56.6-74c-0.3-73.8-0.8-147.6,0.2-221.3
		c0.7-52.6,20.9-97.7,58-135c31-31.1,68.7-49.5,112.2-55.9c11.6-1.7,23.3-2.1,35.2-1.8c0,26.3,0,52.5,0,79.2c-2.8,0-5.7,0-8.5,0
		c-19.7,0.2-38.3,4.6-55.5,14.2c-34.9,19.6-55.5,49.3-61.4,88.9c-0.9,5.9-1.1,11.9-1.1,17.9c-0.1,95.7,0,191.3,0,287
		C1024.2,759.1,1024.2,760.3,1024.2,761.8z"/>
	<path d="M1151.6,142.3c0,26.4,0,52.7,0,79.2c-70.8-0.7-132.3,22.5-182.5,72.7c-50.1,50.1-73.2,111.5-72.5,182.3
		c-26.5,0-52.9,0-79.6,0c-0.9-50,8.5-97.9,29.4-143.3c30.8-66.9,78.8-117.8,143.6-152.8C1049.8,148.1,1110.9,140.7,1151.6,142.3z"/>
	<path d="M35.9,693.9c3.4-0.4,6.7-0.5,10-1.2c6-1.2,7.7-3.4,7.7-9.5c0-18.1-0.1-36.2,0-54.4c0.1-16.7,5.2-31.6,17.1-43.7
		c8.8-9,19.5-14.8,31.4-18.7c15.7-5.1,31.9-6.8,48.3-6.8c0.3,0,0.6,0.1,1.1,0.2c0,24.7,0,49.2,0,74c-4.4-0.7-8.5-0.6-12.4,1.6
		c-3.5,2-5.3,4.7-5.3,8.9c0,20.2,0.2,40.4-0.3,60.5c-0.4,13.5-3.9,26.3-12.6,37.2c-8,10.1-19,15.3-31.1,18.8
		c-13.6,3.9-27.6,4.8-41.6,5c-4,0-8,0-12.2,0C35.9,741.7,35.9,717.8,35.9,693.9z"/>
	<path d="M663.5,761.8c-26.6,0-53.2,0-79.8,0c0-60.2,0-120.2,0-180.8c9.8,14.2,22.9,22,39.8,22.1c17,0.1,30.1-7.6,40.1-21.9
		C663.5,641.6,663.5,701.5,663.5,761.8z"/>
	<path d="M486.1,614.9c19.5,29.4,60.8,29.2,79.8,0.2c0,49,0,97.7,0,146.6c-26.5,0-53.1,0-79.8,0C486.1,713,486.1,664.2,486.1,614.9z
		"/>
	<path d="M582.9,556.4c0-22.6,18.1-40.8,40.6-40.9c22.6,0,40.9,18.2,40.9,40.6c0,22.5-18.2,40.8-40.7,40.9
		C601.3,597.1,582.9,578.9,582.9,556.4z"/>
	<path d="M566.7,590.1c0.1,22.5-18.2,40.8-40.7,40.8c-22.5,0-40.8-18.1-40.8-40.7c0-22.5,18.2-40.8,40.6-40.9
		C548.4,549.4,566.6,567.6,566.7,590.1z"/>
</g>
</svg>
