<?xml version="1.0" encoding="utf-8"?>
<!-- Generator: Adobe Illustrator 21.0.0, SVG Export Plug-In . SVG Version: 6.00 Build 0)  -->
<svg version="1.1" id="Layer_1" xmlns="http://www.w3.org/2000/svg" xmlns:xlink="http://www.w3.org/1999/xlink" x="0px" y="0px"
	 viewBox="0 0 1417.3 1417.3" style="enable-background:new 0 0 1417.3 1417.3;" xml:space="preserve">
<style type="text/css">
.pair {
	animation: pair 4s infinite;
}

@keyframes pair {
	0%, 20%, 40%, 60%, 100% {
		fill: rgba(255,255,255,0);
	}
	10%, 30%, 50% {
		fill: #0074CC;
	}
}
</style>
<g>
	<path d="M1345.3,14.2H72c-31.9,0-57.9,26-57.9,57.9v1273.2c0,31.9,26,57.9,57.9,57.9h1273.2c31.9,0,57.9-26,57.9-57.9V72
		C1403.1,40.1,1377.2,14.2,1345.3,14.2z M1386,1345.3c0,22.4-18.3,40.7-40.7,40.7H72c-22.4,0-40.7-18.3-40.7-40.7V72
		c0-22.4,18.3-40.7,40.7-40.7h1273.2c22.4,0,40.7,18.3,40.7,40.7V1345.3z"/>
</g>
<g>
	<path d="M1112.7,264.8h-808c-22,0-39.9,17.9-39.9,39.9v808c0,22,17.9,39.9,39.9,39.9h808c22,0,39.9-17.9,39.9-39.9v-808
		C1152.5,282.7,1134.7,264.8,1112.7,264.8z M1135.4,1112.7c0,12.5-10.2,22.7-22.7,22.7h-808c-12.5,0-22.7-10.2-22.7-22.7v-808
		c0-12.5,10.2-22.7,22.7-22.7h808c12.5,0,22.7,10.2,22.7,22.7V1112.7z"/>
</g>
<g>
	<path d="M1337.6,42.5H79.8c-20.6,0-37.3,16.7-37.3,37.3v1257.8c0,20.6,16.7,37.3,37.3,37.3h1257.8c20.6,0,37.3-16.7,37.3-37.3V79.8
		C1374.8,59.2,1358.1,42.5,1337.6,42.5z M1366.3,1337.5c0,15.8-12.9,28.7-28.7,28.7H79.8c-15.8,0-28.7-12.9-28.7-28.7V79.8
		c0-15.8,12.9-28.7,28.7-28.7h1257.8c15.8,0,28.7,12.9,28.7,28.7V1337.5z"/>
</g>
<g>
	<path d="M1112.7,1152.5h-808c-22,0-39.9-17.9-39.9-39.9v-808c0-22,17.9-39.9,39.9-39.9h808c22,0,39.9,17.9,39.9,39.9v808
		C1152.5,1134.7,1134.7,1152.5,1112.7,1152.5z M1135.4,304.6c0-12.5-10.2-22.7-22.7-22.7h-808c-12.5,0-22.7,10.2-22.7,22.7v808
		c0,12.5,10.2,22.7,22.7,22.7h808c12.5,0,22.7-10.2,22.7-22.7V304.6z"/>
</g>
<g>
	<path d="M1104.9,290.8H315.8c-8.8,0-16,7.2-16,16v129c0,8.8,7.2,16,16,16h789.1c8.8,0,16-7.2,16-16v-129
		C1120.9,298,1113.7,290.8,1104.9,290.8z M1112.9,435.8c0,4.4-3.6,8-8,8H315.8c-4.4,0-8-3.6-8-8v-129c0-4.4,3.6-8,8-8h789.1
		c4.4,0,8,3.6,8,8V435.8z"/>
	<path d="M708.7,566.6c22.5,0,40.8-18.3,40.8-40.8S731.1,485,708.7,485s-40.8,18.3-40.8,40.8S686.2,566.6,708.7,566.6z M708.7,493
		c18.1,0,32.8,14.7,32.8,32.8s-14.7,32.8-32.8,32.8s-32.8-14.7-32.8-32.8S690.6,493,708.7,493z"/>
	<path d="M962.8,741c17.8,0,32.3-14.5,32.3-32.3c0-17.8-14.5-32.3-32.3-32.3s-32.3,14.5-32.3,32.3C930.4,726.5,944.9,741,962.8,741z
		 M962.8,684.3c13.4,0,24.3,10.9,24.3,24.3c0,13.4-10.9,24.3-24.3,24.3c-13.4,0-24.3-10.9-24.3-24.3
		C938.4,695.2,949.4,684.3,962.8,684.3z"/>
	<path d="M962.8,558.1c17.8,0,32.3-14.5,32.3-32.3s-14.5-32.3-32.3-32.3s-32.3,14.5-32.3,32.3S944.9,558.1,962.8,558.1z
		 M962.8,501.5c13.4,0,24.3,10.9,24.3,24.3s-10.9,24.3-24.3,24.3c-13.4,0-24.3-10.9-24.3-24.3S949.4,501.5,962.8,501.5z"/>
	<path d="M1041.8,645.4c15.5,0,28.2-12.6,28.2-28.2s-12.6-28.2-28.2-28.2c-15.5,0-28.2,12.6-28.2,28.2S1026.2,645.4,1041.8,645.4z
		 M1041.8,597c11.1,0,20.2,9.1,20.2,20.2s-9.1,20.2-20.2,20.2c-11.1,0-20.2-9.1-20.2-20.2S1030.6,597,1041.8,597z"/>
	<path d="M1104.9,965.5H315.8c-8.8,0-16,7.2-16,16v129c0,8.8,7.2,16,16,16h789.1c8.8,0,16-7.2,16-16v-129
		C1120.9,972.7,1113.7,965.5,1104.9,965.5z M1112.9,1110.5c0,4.4-3.6,8-8,8H315.8c-4.4,0-8-3.6-8-8v-129c0-4.4,3.6-8,8-8h789.1
		c4.4,0,8,3.6,8,8V1110.5z"/>
	<path d="M708.7,932.3c22.5,0,40.8-18.3,40.8-40.8s-18.3-40.8-40.8-40.8s-40.8,18.3-40.8,40.8S686.2,932.3,708.7,932.3z
		 M708.7,858.8c18.1,0,32.8,14.7,32.8,32.8s-14.7,32.8-32.8,32.8s-32.8-14.7-32.8-32.8S690.6,858.8,708.7,858.8z"/>
	<path d="M962.8,923.9c17.8,0,32.3-14.5,32.3-32.3s-14.5-32.3-32.3-32.3s-32.3,14.5-32.3,32.3S944.9,923.9,962.8,923.9z
		 M962.8,867.2c13.4,0,24.3,10.9,24.3,24.3s-10.9,24.3-24.3,24.3c-13.4,0-24.3-10.9-24.3-24.3S949.4,867.2,962.8,867.2z"/>
	<path d="M1041.8,828.3c15.5,0,28.2-12.6,28.2-28.2c0-15.5-12.6-28.2-28.2-28.2c-15.5,0-28.2,12.6-28.2,28.2
		C1013.6,815.6,1026.2,828.3,1041.8,828.3z M1041.8,779.9c11.1,0,20.2,9.1,20.2,20.2c0,11.1-9.1,20.2-20.2,20.2
		c-11.1,0-20.2-9.1-20.2-20.2C1021.6,789,1030.6,779.9,1041.8,779.9z"/>
</g>
<g>
	<circle class="pair" cx="962.8" cy="525.8" r="21.5"/>
</g>
</svg>
