<?xml version="1.0" encoding="utf-8"?>
<!-- Generator: Adobe Illustrator 21.0.0, SVG Export Plug-In . SVG Version: 6.00 Build 0)  -->
<svg version="1.1" id="Layer_1" xmlns="http://www.w3.org/2000/svg" xmlns:xlink="http://www.w3.org/1999/xlink" x="0px" y="0px"
	 viewBox="0 0 1152.7 1417.3" style="enable-background:new 0 0 1152.7 1417.3;" xml:space="preserve">
<g>
	<circle cx="360.8" cy="834.4" r="60.8"/>
	<path d="M575.7,407.7c-114.1,0-221.4,44.4-302,124.7c-21.8,21.8-40.5,45-57.2,70.9v-0.8l-8.1,13.5c-0.5,0.8-0.8,1.6-1.6,2.1l-1,2.6
		c-0.3,0.5-0.8,1.6-1,1.6l-1.3,2.6l-1.8,2.1l-1,2.3c-0.3,0.3-0.5,0.8-0.8,1.3c-0.3,0.5-0.8,1-0.8,1.6l-2.1,3.9l-0.3,0.3l-0.5,0.8
		h-0.5l-0.3,0.8c-0.3,1-0.8,1.8-1,2.6l-0.8,1.8c-0.3,1-0.8,1.8-1,2.6l-1.3,2.1l-3.4,7.3l-0.8,1.3l-0.3,0.3c-0.3,1-0.8,2.3-1,2.9
		l-0.8,1.3v0.3c-0.3,0.5-0.5,1-0.5,1.6c-0.3,0.5-0.5,1-0.8,1.6l-0.8,2.1l-1.3,2.6l-2.1,5.2l-0.5,1.3v0.5c0,0.3-0.3,0.5-0.3,0.8
		c-0.3,0.8-0.8,1.6-1,2.3l-0.5,1.6c-0.3,0.5-0.5,1-0.5,1.6c-0.3,0.5-0.5,1-0.8,1.6l-0.5,1.3v0.8c-0.3,0.5-0.3,0.8-0.5,1.3
		c-0.3,0.5-0.3,0.8-0.5,1.6l-2.6,6.5c-0.3,0.8-0.3,1.3-0.5,1.8c0,0.5,0,0.8-0.3,1l-0.5,0.5l-2.1,7.3c-0.3,0.5-0.5,1-0.5,1.6
		c0,0.3-0.3,0.8-0.3,1l-1.8,5.5l-0.3,1.3c-0.3,0.5-0.8,2.1-1,3.6l-0.3,1c-0.5,1.3-0.8,2.6-0.8,3.9l-0.3,1
		c-6.2,23.4-10.7,46.5-12.7,71.2v0.3c-0.8,12.2-1.3,24.7-1.3,36.9c0,17.7,0.8,30.4,2.1,42.9v3.9l0.5,0.5c0,1,0,2.3,0.5,3.4v1.6v0.8
		c0.3,1,0.3,2.1,0.3,3.4l0.5,1.6v0.3c0,0.8,0,1.3,0.3,2.1c0,0.5,0.3,1,0.3,1.8l0.5,1.8l0.5,2.6v1.3v0.8c0.3,0.5,0.3,1,0.3,1.6
		c0,0.8,0.3,1.3,0.5,1.8v1.3c7.5,42.9,21.3,84.5,41.6,123.7l0.3,0.8h0.3c0,0.3,0.3,0.8,0.5,1c0.3,0.5,0.5,1,0.8,1.8l0.8,1.8
		c0.3,0.3,0.5,0.8,0.8,1c0.3,0.5,0.8,1,1,1.8l0.8,1.8l2.3,3.6l0.3,0.3c0.3,0.8,0.5,1,0.8,1.6c0.3,0.5,0.5,0.8,0.8,1.3l0.8,1.3v0.5
		l0.3,0.3c0.8,0.8,1,1.3,1.6,2.3l7.8,13.5v-0.8c16.6,26,35.6,49.1,57.2,70.9c80.8,80.8,188.1,125.3,302,125.3s221.1-44.4,302-125.3
		c80.6-80.6,124.7-187.9,124.7-302c0-114.1-44.4-221.4-124.7-302C797.1,452.1,690,407.7,575.7,407.7z M207.7,636.1v154.4h-47.6
		C165.9,736.1,181.7,684.4,207.7,636.1z M207.5,1032.9c-25.2-46.5-41.1-96.2-47-148.1h47V1032.9z M972.2,966.9
		c-7.8,23.4-17.7,45.7-28.8,66V884.8h47.3C987.3,913.4,981.1,940.9,972.2,966.9z M943.4,636.1c12,22.3,21.8,45.5,29.6,68.9
		c9.1,28.1,15.3,56.7,18.2,85.5h-47.8V636.1z M992.5,799c0.8,10.4,1.6,23.4,1.6,35.3c0,12.7-0.5,25.5-2.1,41.3h-57.2v173.1
		c-17.7,29.1-39,56.4-63.4,81.1c-79.3,79-184.5,122.4-295.7,122.4c-111.7,0-217-43.4-295.7-122.4c-23.9-24.4-45.2-52-63.4-81.6
		V875.4h-57.2c-0.8-7.8-1.3-15.1-1.6-21.8c-0.3-6.8-0.5-13.3-0.5-19.5c0-12,0.8-24.9,1.6-35.6h57.4V620
		c18.2-30.1,39.5-57.4,63.4-81.1C358.4,459.6,463.4,416,575.4,416c111.5,0,216.5,43.7,295.7,122.9c24.4,24.4,45.7,51.7,63.4,81.1
		v179H992.5z"/>
	<path d="M575.7,362.4c-125.8,0-244.3,49.1-333.9,138.2c-89.1,89.1-138.2,207.6-138.2,333.7c0,126.3,49.1,244.8,138.2,333.9
		c89.7,89.1,208.4,138.2,333.9,138.2c125.8,0,244.3-49.1,333.9-138.2c89.1-89.1,138.2-207.9,138.2-333.9s-49.1-244.5-138.2-333.7
		C820.2,411.6,701.5,362.4,575.7,362.4z M895.1,1154c-85.2,85.2-198.5,132-319.4,132s-234.1-46.8-319.4-132
		c-85.2-85.8-132-199.1-132-319.6c0-120.3,46.8-233.6,132-319.4c85.5-85.2,199.1-132,319.4-132s233.9,46.8,319.4,132
		c85.2,85.5,132,199.1,132,319.4C1027.1,954.9,980.3,1068.2,895.1,1154z"/>
	<circle cx="788.8" cy="849.2" r="60.8"/>
	<path d="M575.7,243.5c49.4,0,89.7-40.2,89.7-89.7c0-49.5-40.2-89.7-89.7-89.7c-49.5,0-89.7,40.2-89.7,89.7
		C486,203.3,526.2,243.5,575.7,243.5z M575.7,72.7c44.7,0,81.1,36.4,81.1,81.1c0,44.7-36.4,81.1-81.1,81.1
		c-44.7,0-81.1-36.4-81.1-81.1C494.6,109.1,531,72.7,575.7,72.7z"/>
	<path d="M1132.6,714.2l-38.1-235.6c-13.8-126.9-73.8-244.2-169-330.2C829.5,61.8,705.4,14,575.9,14c-62,0-122.6,10.8-180.3,32
		c-55.7,20.5-107.2,50.3-153,88.4c-87.7,72.9-149.4,173-174.9,283.3l-0.7-0.8l-3,18.4c-2,10.1-3.6,20.3-5,30.4L14.3,737.3l-0.2,1.4
		c-0.2,1.4-0.5,2.8-0.7,4.2l-1,6.4l0.1,0c-4.1,27.8-6.2,56.1-6.2,84.2c0,76.9,15.1,151.4,44.8,221.7c28.7,67.8,69.7,128.7,122,181
		s113.2,93.4,181,122c70.2,29.7,144.8,44.8,221.7,44.8c76.9,0,151.4-15.1,221.7-44.8c67.8-28.7,128.7-69.7,181-122
		c52.3-52.3,93.4-113.2,122-181c29.7-70.2,44.8-144.8,44.8-221.7C1145.1,793.4,1140.9,753.3,1132.6,714.2z M1115.7,717.2l0.1,0.4
		c8.1,37.9,12.2,76.9,12.2,116c0,74.6-14.6,146.9-43.4,215c-27.8,65.8-67.6,124.8-118.4,175.6c-50.7,50.7-109.8,90.5-175.6,118.4
		c-68.1,28.8-140.4,43.4-215,43.4c-74.6,0-146.9-14.6-215-43.4c-65.8-27.8-124.8-67.6-175.6-118.4
		c-50.7-50.7-90.5-109.8-118.4-175.6c-28.8-68.1-43.4-140.4-43.4-215c0-31.3,2.7-62.7,7.9-93.4l2-12.1l-0.1,0l8.7-53
		c5.9-19.7,12.8-39.1,20.9-58.2c28-66.3,68.2-125.8,119.3-176.9S292.8,348.8,359,320.7c68.6-29,141.5-43.7,216.6-43.7
		s148,14.7,216.6,43.7c66.3,28,125.8,68.2,176.9,119.3c51.1,51.1,91.2,110.6,119.3,176.9c7.6,17.9,14.1,36,19.7,54.4L1115.7,717.2z
		 M75.9,468.5l0-0.3c1.3-9.8,3-19.8,4.9-29.7l0.1-0.7c22.2-113.1,83.5-216.1,172.6-290.3c44.3-36.9,94.1-65.6,148-85.5
		C457.3,41.6,516,31.2,575.9,31.2c125.2,0,245.2,46.2,338,130c92.1,83.2,150.2,196.7,163.5,319.5l0,0.2l23.1,142.7
		c-1.3-3.4-2.7-6.7-4.1-10c-28.5-67.3-69.2-127.7-121.1-179.6C923.4,382,863,341.3,795.7,312.8c-69.7-29.5-143.7-44.4-220-44.4
		c-76.3,0-150.3,14.9-220,44.4C288.4,341.3,228,382,176.1,433.9c-51.9,51.9-92.7,112.3-121.1,179.6c-1.6,3.9-3.2,7.8-4.8,11.7
		L75.9,468.5z"/>
</g>
</svg>
