<svg height="960" viewBox="0 0 960 960" width="960" xmlns="http://www.w3.org/2000/svg"><path d="m259.790914 3.20601843 579.490304 36.81470927c54.064676 3.4346999 98.718782 46.4361069 98.718782 98.9072593v682.144026c0 52.471152-44.654106 95.472559-98.718782 98.907259l-579.490304 36.81471c-4.449164.282653-8.883254.274119-13.279498-.023495l-.090144-.007487-.532466-.01116c-1.948735-.061709-3.920828-.267053-5.905233-.625147l-.297301-.056693-.551773-.07552c-3.736032-.534744-7.425586-1.280976-11.053237-2.234308l-.38699-.104172-94.184-18.997-.499366-.035c-62.1342281-4.813009-111.3835531-55.299562-112.3821718-115.615438l-.0154619-1.868534v-665.846212c0-59.8816356 37.2569322-112.8312155 94.3224797-124.1405216.358187-.0709858.708234-.1361317 1.055567-.1972267l-.319047.0579323 114.91-21.395 1.204892-.27621639c2.578819-.57131646 5.185289-1.03943947 7.814067-1.40293403l.19691-.0362037c2.220915-.4102355 4.426068-.62943614 6.600202-.67037185l.066929-.00027403.046144-.0034867c4.396244-.29761394 8.830334-.30614786 13.279498-.02349487zm-63.426874 97.53323857v758.51779c0 33.835669 27.42923 59.523577 61.264899 57.375549l579.585388-36.794484c8.718865-.55351 17.01234-2.71704 24.52072-6.144447 21.373481-9.959142 36.264953-30.19922 36.264953-52.621652v-682.144026c0-22.502618-14.998171-42.8072465-36.493651-52.7276485-7.447999-3.3688377-15.661609-5.4942516-24.292022-6.042146l-579.585388-36.7944836c-33.835669-2.1480286-61.264899 23.5398795-61.264899 57.3755481zm-4.313956-47.2603326-69.129253 12.8723443c-.074726.0131441-.144508.0261226-.209073.0389182-38.3733078 7.6048597-62.0984857 44.6738851-62.0984857 84.9036291v665.846212c0 40.038698 33.8825618 75.708721 78.1157887 77.766326l52.570072 10.605482c-9.401331-12.80735-14.935093-28.744932-14.935093-46.254789v-758.51779c0-17.9710899 5.829135-34.2859827 15.686044-47.2603326zm228.180118 612.8017256c3.191168 2.640783 3.637345 7.368513.996562 10.559681l-16.929457 20.456441 16.729137 18.611084c2.708846 3.013567 2.526078 7.617164-.367114 10.408246l-.196893.18335c-3.080535 2.769041-7.822554 2.516527-10.591596-.564008l-21.053335-23.42165c-2.484842-2.764365-2.570067-6.93171-.200321-9.795353l21.053336-25.441228c2.640782-3.191168 7.368512-3.637345 10.559681-.996563zm187.269798 2.390773v37.934167c0 3.994951-3.131464 7.288726-7.121319 7.490434l-39 1.971657c-4.285396.21665-7.878681-3.199565-7.878681-7.490434v-38.136339c0-4.009952 3.154233-7.310542 7.160064-7.492292l39-1.769486c4.271173-.193789 7.839936 3.216726 7.839936 7.492293zm143.300966-16.504029 21.053335 22.347337c2.63634 2.798376 2.729677 7.137106.216121 10.04627l-21.053336 24.366914c-2.708058 3.13428-7.444209 3.4798-10.578488.771741-3.134279-2.708058-3.479799-7.444209-.771741-10.578488l16.629115-19.246878-16.412994-17.421104c-2.778597-2.949377-2.703566-7.55599.123547-10.413985l.192551-.187905c3.014919-2.840343 7.761547-2.698821 10.60189.316098zm-158.300966 24.352029-24 1.088v23.081l24-1.214zm-190.5-344.923549c.289092 0 .57817.004044.867149.01213l358 10.018087c16.776546.469467 30.132851 14.204757 30.132851 30.98787v184.772078c0 16.783113-13.356305 30.518403-30.132851 30.98787l-358 10.018087c-17.114128.478913-31.376106-13.006594-31.855018-30.120721-.012131-.288979-.012131-.578057-.012131-.867149v-204.808252c0-17.120827 13.879173-31 31-31zm0 20c-6.075132 0-11 4.924868-11 11v204.808252c0 .102581 0 .205157.004304.307698.169937 6.072755 5.230639 10.857935 11.303394 10.687998l358-10.018087c5.952968-.166585 10.692302-5.040398 10.692302-10.995696v-184.772078c0-5.955298-4.739334-10.829111-10.692302-10.995696l-358-10.018087c-.102541-.004304-.205117-.004304-.307698-.004304z"/></svg>