<svg height="960" viewBox="0 0 960 960" width="960" xmlns="http://www.w3.org/2000/svg"><path d="m409.528147 75.999846.810029.0109073c27.544431.6388183 51.700576 9.9718353 69.252964 27.0043107 17.164292 16.655875 26.40886 39.240821 26.40886 62.984936 0 .65164-.007051 1.302861-.02114 1.953551l-.02486.905449 21.334 20.018.398795.352968c.693932.622454 1.373499 1.260791 2.038112 1.915561l.296093.296471.730659.703674c1.541739 1.522761 2.923846 3.113855 4.151965 4.759302l.524376.723024 28.818.766.37167-.357565c18.755721-17.903496 45.197054-27.270459 72.486087-24.663646l1.121927.113878c.100148.010765.200255.021907.300319.033428l.837867.096466.299698.035651c49.27741 6.050505 85.62795 49.317634 79.658132 97.937898-5.432534 44.244441-43.797132 75.709356-87.792784 76.455176l-1.271916.010714.005508.013089c2.976579 6.934847 4.640736 14.390932 4.733401 22.237552l.004091.693359c0 9.513898-2.300931 18.444156-6.443742 26.577759l-.218258.421241.218014.422811c4.041921 7.935325 6.330646 16.628998 6.439886 25.883085l.0041.695104c0 9.878608-2.475904 19.116054-6.913378 27.48583l-.008622.01317.008206.014472c4.334539 8.175288 6.797568 17.178503 6.909783 26.79835l.004011.688178c0 13.192207-4.481524 25.432157-12.255952 35.92037-6.009576 8.107312-13.792514 14.955211-23.048513 20.862686-7.496292 4.784374-16.1023 9.024867-25.662028 12.726055l-.033507.012889v216.478c0 22.079671-8.607602 42.660456-23.193736 57.960998l-.074264.076002-.021623.260959c-1.479511 16.022156-8.550273 30.618038-19.431264 41.593141l-.279113.2779v97.831314c-.000172 21.870355-17.552352 39.641096-39.338531 39.999686h-67.661469c-22.091418 0-40.000039-17.908653-40-40.000071v-98.847929l-.352523-.367876c-10.32437-10.895207-16.982815-25.129467-18.375026-40.676719l-.006451-.070405-.071204-.074889c-14.381316-15.085142-22.95113-35.30318-23.189681-57.030046l-.005115-.932065v-216.478l-.033312-.012857c-9.230125-3.573559-17.571161-7.649871-24.8827-12.233057l-.779434-.492995c-9.256027-5.907474-17.038987-12.755376-23.048578-20.862695-7.774445-10.488218-12.255976-22.728179-12.255976-35.920396 0-9.878608 2.475904-19.116054 6.913378-27.48583l.007622-.01417-.007206-.013472c-4.334539-8.175288-6.797568-17.178503-6.909783-26.79835l-.004011-.688178c0-9.513898 2.300931-18.444156 6.443742-26.577759l.217258-.422241-.217014-.421811c-4.041921-7.935325-6.330646-16.628998-6.439886-25.883085l-.0041-.695104c0-3.96272.394799-7.814199 1.151293-11.543019l.027707-.131981-.791818-.576013c-21.18177-15.703029-34.930941-41.259135-35.376041-69.818545l-.011141-1.430442c0-47.762696 37.22758-87.5 84.5-87.5 9.942252 0 19.549805 1.786484 28.50209 5.103181l.68091.255819-.062604-.299358c-2.317882-11.270731-3.552634-24.340892-3.617685-37.926355l-.002711-1.133287c0-16.638234 1.750926-32.559979 5.094712-45.420693 2.099753-8.075975 4.850468-15.223461 8.768497-21.5972558 3.079642-5.0099172 6.849275-9.5194468 11.778277-13.3987542 7.53061-5.9268681 16.89171-9.583451 27.358514-9.583451zm46.995472 789.250114c-11.530345 0-22.37107-.141421-32.523474-.424589l-.000145 99.174629h67l.001928-99.201487c-11.093745.301013-22.586407.451447-34.478309.451447zm-50.962688-41.648518.023259.115933c2.024144 9.756161 9.124811 17.653117 18.416023 20.804885l-.000914.295144c10.11855.288255 20.96045.432556 32.52432.432556 11.972188 0 23.524091-.154667 34.655361-.463843l-.178044.05409c9.646369-2.871269 17.113991-10.801055 19.326652-20.713144-15.368448 1.195257-32.922487 1.789562-52.677062 1.789562-22.33394 0-39.634632-.753808-52.089595-2.315183zm128.439969-283.158915c-22.733336 4.908924-48.823997 7.557473-76.0009 7.557473-27.176504 0-53.266798-2.648471-75.999899-7.557257l-.000101 225.557257c0 15.411933 7.92387 28.973147 19.919883 36.831915 11.031186 2.023896 29.721746 3.08471 55.730643 3.08471 20.862143 0 39.11084-.677143 54.726677-2.023636 12.94301-7.659622 21.622797-21.762669 21.622797-37.892989zm-116.961932 176.594475c4.545095 3.137507 5.686172 9.365487 2.548665 13.910583l-14.504251 21.011335c-3.137507 4.545095-9.365487 5.686171-13.910582 2.548665-4.545096-3.137507-5.686172-9.365487-2.548665-13.910583l14.50425-21.011335c3.137507-4.545095 9.365487-5.686171 13.910583-2.548665zm0-59c4.545095 3.137507 5.686172 9.365487 2.548665 13.910583l-14.504251 21.011335c-3.137507 4.545095-9.365487 5.686171-13.910582 2.548665-4.545096-3.137507-5.686172-9.365487-2.548665-13.910583l14.50425-21.011335c3.137507-4.545095 9.365487-5.686171 13.910583-2.548665zm0-50c4.545095 3.137507 5.686172 9.365487 2.548665 13.910583l-14.504251 21.011335c-3.137507 4.545095-9.365487 5.686171-13.910582 2.548665-4.545096-3.137507-5.686172-9.365487-2.548665-13.910583l14.50425-21.011335c3.137507-4.545095 9.365487-5.686171 13.910583-2.548665zm171.37468-142.782807-.208727.132324c-7.528269 4.708906-16.499569 8.849393-26.718147 12.429625-27.803677 9.741434-64.529184 15.183856-103.486774 15.183856s-75.683097-5.442422-103.486774-15.183856c-10.313611-3.613528-19.356637-7.797781-26.927812-12.561151l-.214195.234674c-4.138662 4.577831-6.371219 9.452735-6.371219 14.510333l.014494.705437.003528.081124.003911.081093.046067.651192.003211.043632.014789.145368.062.537.013.1.018.126.091.559.025.146.003.013.085528.43009c.071644.336748.153205.672528.24458 1.007304l.147759.512443c.051807.170549.106164.340831.163056.510842l.17827.509212.083807.223109.215.542.041.1.004.01.06.141.212.479.056.124.013547.028268.022453.046732.249.512.079.155-.046975-.089553.094975.184553-.039-.077.210921.404042c.18307.340432.376399.679595.579869 1.017448l.04821.07851.045.074.408094.645951.071906.108049.051.076.266.393.11.159-.052358-.074476.076358.109476.076.106.342.471.12.161.089.117-.034-.043.055.071.328.422-.031-.039.039.05.019.024.045.057.018.023.033.042-.007-.01.241813.299119c.103656.126411.208755.252607.31529.378587.038508.045529.077365.091227.116411.136896l.333695.384392.342603.383022.534292.575924.095896.09906.523.538.247.247.052.051.383.372.177277.170773.618723.574227.102307.094869-.010491-.009508.38321.34394.455352.398783.064658.055793.578964.490123.11.092.149.122.574.467.133.105.302.238.246.191-.173-.133.17091.133046.24009.183954-.054-.042.064.049.125146.096822.640854.479178-.074-.054.201841.149176-.123841-.092176.38504.282902-.261199-.190726c.418071.307044.845178.612288 1.281202.915689l.660708.453714.119439.080743-.06019-.041322.117.079.72.478.232.152.065105.04218.069895.04482.075.048.646154.412364.292846.182636.674.415.187.114.614264.368296c.227004.134572.455829.268721.686464.402445l.697321.399888c.72319.41021 1.463516.816318 2.220627 1.218203l.196133.103791c.065388.034511.130815.068948.196364.103354l.257403.134646.213424.110377.160991.083669.128009.065331.15557.080349-.10957-.057349.355.182.15.076.152867.077749.205133.102251.205.103-.096745-.048019.169745.084019.146.072.334.165.043.021.901214.437861c.83057.397925 1.678203.791202 2.54252 1.179699.055813.02505.111872.050196.168.075322l1.040266.459118-.067-.029.137.06.112.049.014.006.037.016.278.119-.194438-.082544.443776.19134-.243338-.105796.769.329.223.095.193.081.133.055.858.355.137.057.453.184-.038-.015.047.019.498.2-.25-.1.248323.100055.670338.266299.268339.104646.591.23.521301.201647c.488348.186863.980862.372368 1.47749.556497l.794209.290856-.192-.069.082366.03013.136634.04887.171.063-.083-.031.13689.050796.11211.040204.216084.078376.082916.029624.119.042.229558.083153.281442.099847-.398-.143.745.265.342.12.436.152.379.131-.233-.08.27799.096422.19801.067578.015.005.273.094.115.039-.096-.033.296.1 1.193716.39971-.699716-.23271.14741.049222c.26654.089017.534102.177662.80268.265931.502132.165028 1.007816.328746 1.517005.491137l1.188905.37371.127.04 1.003318.309423c.349976.106663.701511.212715 1.054593.318149l1.063874.314448.815996.236859.143219.040121.221332.064451.219668.061549.146.042-.051-.015.115.033.112.032 1.219433.341804c1.747784.483347 3.529987.952093 5.34511 1.405712l.659457.162484.935.229.792687.191762.228933.054627.486397.115094-.484017-.115483.582.138.51.119.86476.200802c21.524595 4.932597 47.252557 7.800352 74.89224 7.800352 28.582891 0 55.12136-3.066819 77.081055-8.31251.198711-.047468.397492-.095221.595895-.143153l-.30095.071509.382-.092.115-.028.159-.039.716-.175.457-.113 1.148649-.287819c1.81624-.461569 3.598876-.938377 5.34638-1.429889l.397971-.113292-.153.043.312-.089 1.185-.34-.755.218.20244-.057079c.25703-.073956.513278-.148234.768739-.222832l-.170717.04977c1.082802-.315155 2.151525-.636044 3.205789-.962533.04585-.014199.09189-.028476.137902-.042763l.085847-.027563 1.211-.381.216418-.068372 1.408136-.456775c.062088-.020423.124121-.040866.1861-.06133l-.095654.030477.271-.09 1.047-.35.286789-.096359-.095827.032582.235038-.081223.864-.297.408-.142.33-.117.713-.253.193-.069.44858-.161012 1.04442-.383988.312244-.115137 1.18631-.448389.320739-.123205-.160293.060731.3-.115.081-.032.625-.244.6937-.273206.6453-.260794-.15.061.113445-.044559.103555-.043441.073-.029.015-.006.037281-.014278.233719-.095722.2-.083.848-.351.23675-.097842.09425-.040158.223-.095.769-.329-.243.105.444115-.190366-.195115.082366.314-.135.195-.086.821-.361.018-.008.372532-.165559-.16845.075561c.847042-.379178 1.678163-.762931 2.493011-1.151137l.412907-.199865.748-.363.409996-.201075-.074996.036075.31617-.156199.46383-.233801-.151247.076941.424247-.215941.222-.114.184-.095.486-.252.148733-.076468-.145733.074468.298-.156.622576-.329733c.51265-.275159 1.01746-.552274 1.514319-.831306.772554-.43386 1.525884-.872356 2.259572-1.315342.041432-.025016.082326-.049759.123158-.074515l-.062625.036896.187-.114.719-.443.164-.102.2-.127.546-.349.315-.204.83-.55-.406.272.085654-.055731.439346-.295269-.061015.0419c.411663-.27771.815807-.557006 1.212338-.837858l.589075-.422439.382602-.282603-.122692.0928.127692-.0958.52-.389.208404-.156091.584596-.453909.227-.179.155-.123.640671-.519733.12557-.104081-.043241.034814.162-.136.447-.379.209983-.178643c.259721-.225347.51425-.451133.764013-.677749l.009004-.009608.71196-.659441.16804-.162559.506956-.493072.206044-.208928.549436-.56308.101564-.10892.419-.453.210965-.230033.526528-.601365c.22621-.264582.44608-.530122.659549-.796601l.005958-.008001.008-.01.011-.014.014-.018.039998-.048972.023002-.031028.019-.024.039-.05.297-.383.135-.178.095-.128.342-.471.075-.106-.033038.049277.034038-.050277.07707-.108063-.05407.074063.121-.174.256-.378-.17.254.074006-.106996.183223-.275086.084771-.132918.315-.498.089-.145.244985-.409378c.189766-.326523.370071-.65425.54081-.983147.037052-.071371.073771-.143028.110034-.214741l-.095829.184266.127-.25.249-.512.023551-.046939.012449-.028061.056-.124.212-.479.06-.141.045-.11.215-.542.06-.159.145793-.404715c.116186-.336903.22241-.674881.318566-1.013898.09919-.349712.187667-.700529.265315-1.052409l.108335-.528613.027991-.162365.096-.59.015-.102.003-.024.013-.1.062-.537.015801-.145503.002199-.043497.04-.548.011-.222.012506-.314453c.00366-.144646.005494-.289444.005494-.434393 0-5.057598-2.232557-9.932502-6.371219-14.509992zm.573529-54.361713-.101849.064389c-7.666106 4.887101-16.870322 9.170549-27.398554 12.859273-27.803677 9.741434-64.529184 15.183856-103.486774 15.183856s-75.683097-5.442422-103.486774-15.183856c-10.574772-3.70503-19.813797-8.010054-27.500129-12.924119l-.181053.208235c-3.793053 4.399839-5.832044 9.066362-5.832044 13.89974 0 .506733.022412 1.011633.066906 1.514583.031896.36053.075138.720058.129607 1.078542l.090108.536938.01313.070657-.006751-.035874.09704.484568c.185453.864316.436236 1.722246.750624 2.573187l.043336.115245.234.591.024057.060864c.209334.502729.44091 1.002929.694366 1.500475.022155.043427.044465.086872.066941.130297l.325723.606944c.023843.0429.047849.08578.072019.12864.302092.53577.629557 1.06819.981977 1.597211l.360722.527885.008195.012684.018.025.01.014.008.011.349113.484724c.402244.546158.831237 1.088549 1.286462 1.626992.034803.04088.069575.081803.104499.122704l.512164.586045c.03184.035613.063796.071209.095867.106786l.010491.011972c.207775.230303.420374.459856.637755.688644l.6469.664011.094335.094741.090414.088381.443.432.147.141.101.095.497.462.199951.183065.544049.482935.307607.268304.535393.453696.02.017.089047.075077-.067047-.057077.185755.154671.276986.227947.17286.139321-.316601-.258939.451.366.323897.258622.077103.060378.483.375.345837.264113.055163.041887.262361.197306.309639.228694-.144-.107.430018.315439-.076018-.055439.233948.170802.208052.148198-.206-.149.346.249.426923.30041c.242102.170252.488043.339443.736753.508051.299457.203012.602928.405178.910375.606488.315833.206799.635862.412693.960048.617669l-.654597-.42028c.312299.202143.628619.40341.948924.603789l.047574.029873.571.353.573405.347684c.35866.215407.721973.429746 1.08989.642998l.030705.017318.625957.35937c.220486.125181.442569.249981.666238.374394 1.194024.664164 2.433249 1.317334 3.716164 1.958979 24.767825 12.39619 65.831656 20.501411 112.298641 20.501411 46.154437 0 86.978161-7.996553 111.800575-20.251054l1.060484-.531088c.111649-.056723.222959-.113535.333928-.170434l.896197-.46533c.785576-.413072 1.553364-.830652 2.30298-1.252606l.233737-.132045.895365-.514852.054516-.031823-.053782.031078.10823-.062917-.03823.020917.733744-.432632c.797448-.477473 1.572026-.960204 2.323208-1.44801.682-.44288 1.344715-.889942 1.987751-1.34105l.057297-.041308.023053-.015153.062947-.045847.672-.481.146-.106.127-.093.012-.009.700951-.522024c.899726-.682477 1.755062-1.373613 2.564709-2.072951l.078475-.067933-.040135.033908.529998-.464932c1.121187-1.00066 2.149235-2.017712 3.080406-3.049845l.010491-.011634c.032371-.035912.064624-.071843.09676-.107792l.511559-.585425c.027059-.031692.054027-.063398.080904-.095118.598328-.706123 1.1518-1.419417 1.658932-2.139108l.01695-.025146-.009.014.027008-.038578-.015008.019578.321965-.466501c.22304-.331765.436256-.664859.639533-.999242l.405396-.691951c.02417-.04286.048176-.085741.072019-.128643l.325723-.606959c.270641-.522921.516983-1.048504.738752-1.576887l.011612-.028817.035-.086.231-.586.032-.085.170903-.474937c.292764-.854223.521492-1.715346.684455-2.582763l.012909-.069475-.007267.034175.08468-.488769c.054876-.349883.099058-.700763.132432-1.052603.051124-.538955.076888-1.08016.076888-1.623474 0-4.833378-2.038991-9.499901-5.832044-13.899545zm-70.057333-119.392482-3.159844-.000154-.447029.357569c-4.362739 3.422091-9.703352 6.10027-15.88025 8.223579-11.186365 3.845313-25.448944 5.919006-40.442721 5.919006l-.976794-.002937h-.046412c-.325236.001957-.650842.002937-.976794.002937-14.993777 0-29.256356-2.073693-40.442721-5.919006-5.94854-2.044811-11.121486-4.604223-15.39238-7.847078l-7.442577 6.451367c-.394777 2.117767-.856866 4.24106-1.385761 6.362343-3.618004 14.51102-10.040432 27.63744-18.277747 37.173062-10.499054 12.153841-24.063954 18.744546-38.563784 15.129332-2.366398-.590009-4.583191-1.408342-6.651676-2.432831l-.144329.125935.052103.00099c-5.020201 4.991992-7.751128 10.3622-7.751128 15.955886 0 .514442.023099 1.026993.068952 1.537534.002335.025999.004757.052298.00724.078592l-.00724-.078592c.047788.532074.120291 1.061964.21712 1.589534l.012686.068365.148685.712247.007857.034019c.000929.004002.001858.008003.002789.012005l.184802.726378c.094375.341723.198977.682397.313698 1.021985l.179656.508562c.210898.57196.450532 1.140764.718376 1.706229l.277229.564344.03615.070644.061.117.269.501.071.128.056.1.316.54.076068.127551.460549.72833.229916.344695.236971.343737c.18499.264042.376216.527226.57362.789531l.528075.681026c.017021.02133.034084.042654.051187.063971l.042722.05329.465278.56387.107685.126937.064906.075891.515086.586703c.283709.316068.576728.630867.878804.944263l.459876.469027.086257.086178-.031-.032.138.137.479.466.072.069.149.141.484.45.159136.145847.744192.659869.066672.057284.011.01.445969.381014c.353839.298305.716019.595091 1.086438.890321.043794.034344.087098.068743.130514.103121l.760242.591099.194509.147867.333628.251172.100234.073965.226466.168441-.174-.13.366.269-.119-.086.386955.281104.433045.308896-.118-.085.354615.250981.740385.510019.259684.17654.647129.430203.059257.03887c.135122.088535.271013.176903.407671.265105l.68734.439193c.324037.204061.652197.407207.984442.609425l-.174523-.108336.558417.339314c.214986.130349.432821.259835.652335.388929l-.652335-.388929c.350124.210334.704683.41965 1.063633.627932.227316.133209.457626.265424.689703.397216l-.343753-.198462.185133.106827.267905.152228.177962.099945-.138-.077.383904.216748c.178739.099849.358497.199451.53927.298804l-.536174-.299552.505155.281034c.222422.122333.446382.244289.671872.365865.551013.297086 1.111157.5919 1.680292.884393l.277279.143711c24.693191 12.596267 66.097335 20.857151 113.008402 20.857151 47.608165 0 89.544526-8.508221 114.098117-21.421552l.209773-.110655.039852-.021098c.696382-.368868 1.378613-.741302 2.046422-1.117207 1.487167-.837117 2.902815-1.691449 4.24395-2.561948.054765-.035547.10948-.071169.16407-.106818l-.083184.053124.668776-.439765c.494463-.330109.978279-.662484 1.451287-.997067l.701387-.503524.17755-.131644-.059912.0457.247912-.1837-.177.13.663-.494.084443-.062727c.888189-.674859 1.732985-1.35817 2.533135-2.049496l.012453-.010763.09442-.081853c.33114-.287859.653905-.576493.968665-.866271l.466182-.43557.096068-.091399.582634-.568921.051284-.049226-.025284.023226.065-.065.331782-.333479c.122396-.125318.243354-.250871.362867-.376654l.630129-.680194.061644-.068463.274072-.308851.025506-.030359.031429-.034743.182571-.213257.028779-.031379-.026779.028379.063-.073.153-.182.434-.525.03-.037.02275-.027874-.023151.028892c.379997-.473644.739771-.950254 1.078975-1.429708l.036426-.05331.011-.016.227664-.326767c.090138-.132239.178713-.26469.265719-.397352l.460549-.72826c.013584-.022304.027124-.044614.040619-.06693l.350449-.600691.054-.096.084-.152.25-.467.068-.131.253776-.506025c.18549-.385082.357891-.771723.517039-1.159864l.228759-.583328c.129677-.346417.248811-.693997.357285-1.042699l.154702-.523888c.072722-.260155.139517-.520919.200336-.782275.000945-.004061.001874-.008062.002803-.012064l.007857-.034019.148742-.712552c.098283-.523971.172569-1.050237.222477-1.578666.050683-.536639.076224-1.075507.076224-1.616466 0-4.827183-2.033768-9.487938-5.817468-13.88282l1.498789.01267zm-143.499844-9.467154.001-.005.007254-.400976c.006179-.413324.008707-.824463.007609-1.233043l-.00033-.097144c-.000334-.081673-.000814-.163243-.001439-.244709-.002883-.376149-.008862-.750384-.017914-1.122308-.001642-.067479-.003403-.135551-.005267-.203545-.030816-1.123803-.089753-2.225957-.176227-3.304167l-.036516-.435234c-.026837-.306335-.055956-.611056-.087311-.913727-.008954-.086445-.018123-.173022-.027476-.25943l-.037683-.338572c-.008296-.072524-.016676-.144541-.025185-.216435-.043295-.365855-.089989-.729053-.139996-1.088975-.007388-.053182-.014917-.106769-.022519-.160284-.062338-.438796-.129557-.872296-.201667-1.300678-.084674-.503075-.176229-.99977-.274469-1.489054l-.042391-.208651c-.020203-.098281-.040724-.196479-.061517-.294369-.062271-.29317-.127071-.583954-.194303-.871897-.021004-.089956-.042158-.179268-.063547-.268302-.172885-.719753-.361425-1.42242-.565089-2.105731l-.111149-.366132-.058031-.18598c-.019724-.062633-.039794-.125771-.059998-.188733-.038191-.119018-.076812-.237272-.115906-.354893-.016476-.049567-.032894-.098604-.049394-.14753-.09141-.27105-.185524-.539177-.282158-.803809-.053867-.147508-.10838-.293571-.163669-.438539-2.310178-6.057692-5.976063-10.204395-10.760195-11.397213-.859568-.214315-1.73203-.327487-2.613333-.34421l-.117692-.00166c-.241674-.002232-.483999.002759-.72689.014879-.06908.003433-.13802.007448-.207005.012034-.032807.00219-.065459.004487-.09812.006912-.095206.007065-.190607.015231-.286084.024479-.011965.001155-.023953.002333-.035942.003527-.108564.010828-.217196.023043-.325918.036646-.02891.0036-.057926.007327-.086947.011153-.088464.011683-.17707.024275-.265731.037782l-.164388.026045c-.051699.008557-.103752.017451-.155823.026657-.080476.014188-.16116.029191-.241883.04494l-.130546.026159c-.069356.014165-.139021.028989-.208712.044362l-.165714.037639c-.065258.015147-.13058.030842-.195922.047017-.054408.013531-.108435.027232-.162474.041259l-.196081.05225-.203948.057482c-.048736.014012-.097394.028333-.146059.042915l-.177909.054541c-.192156.059988-.384633.12419-.577177.192415l-.096125.034481c-.08744.031497-.175073.063979-.262714.097289-.008832.003449-.017496.00675-.026159.010059-.275761.105226-.551771.218801-.827747.340433-.200429.088442-.400716.180973-.600942.277696l-.10785.052399c-.08575.042182-.171403.084979-.257039.128539-.062823.031844-.125874.064331-.188914.09723l-.166461.087953c-.051469.027345-.103184.055216-.154891.083361-.086788.047354-.173717.095463-.260617.144346-.032182.01799-.06385.03591-.095515.053933-.071593.040861-.143661.082422-.215707.124513-.068508.039908-.136777.080281-.205025.121128-.030753.018522-.061104.036785-.091452.055141-.090767.054783-.182072.110879-.273332.167819-.058816.036814-.117452.073759-.17607.111051-.05345.033889-.10651.067941-.159554.102277-.07114.046165-.142871.093133-.214569.140617-.05337.035229-.106618.070791-.159847.106638l-.054318.036801c-.10067.068057-.201595.137473-.302446.207905-.056165.039344-.11188.078581-.16757.118127l-.183455.131335-.023614.017209c-.360361.261126-.719661.53515-1.077632.821761-.177092.141677-.353738.286449-.530027.434259-.062272.052327-.123945.104449-.185573.156941-.035335.029985-.071004.060503-.106658.091145-.074213.063894-.148131.128014-.221979.192664-.175542.153565-.350959.310483-.525952.470373-.071224.065185-.142206.130595-.213116.196492-.05265.048822-.105309.098065-.157927.147576-.043573.041106-.086889.082072-.130177.12322l-.189639.181493c-.30336.292736-.605321.594291-.90569.904549-.171792.17735-.343225.357817-.514103.541099l-.023274.025079c-.162648.174748-.324792.352046-.486404.531861l-.305928.344028c-.20133.229012-.401953.462025-.601659.698889-.165424.196126-.329825.394495-.49357.595457-.042838.052655-.085116.104772-.127351.157061-.170062.210469-.339844.424378-.508867.64106l-.152394.196455-.170308.22182-.209242.276226-.100494.133962c-.054419.072895-.108894.146201-.163281.219795-.184031.248955-.367237.501521-.549398.757346-.130219.182941-.25984.367391-.388909.553485-.255994.369048-.509468.744082-.760645 1.125405-.472958.718068-.937772 1.458385-1.393536 2.219951-.015257.025454-.030366.050741-.045464.076051-.176627.296114-.352024.595621-.525998.898266-.04703.081777-.094326.164469-.141516.247392-.042843.075322-.085143.149993-.127356.22485-.056946.100949-.114192.20309-.171276.305574-.419139.752535-.829266 1.522979-1.229868 2.310936-.110175.216685-.219651.43476-.32839.654142-.150845.304343-.300604.611872-.448895.921876-.090954.190142-.181357.381215-.271198.573208-.183837.392866-.36532.789584-.544365 1.190055-.021453.047969-.042986.096264-.064483.144614-.234953.528454-.465573 1.063167-.691756 1.604133-.11606.277575-.230869.556601-.344485.83724l-.100195.248685c-.132844.331292-.264087.664968-.393624 1.000819-.366706.950749-.71984 1.9192-1.058325 2.903959-.051796.150688-.103285.301865-.154426.453419-.043033.127526-.085957.255729-.128631.384199-.036417.109627-.072732.219698-.108864.329962-.042463.129583-.084761.25971-.126802.390104-.056129.174084-.111814.34869-.167036.523767l-.115898.370326c-.109343.352137-.216919.7065-.322575 1.062686-.04446.149881-.08863.300258-.132456.450954-.062729.215694-.124754.432044-.186065.649039l-.046236.164246c-.101171.360715-.200462.723547-.297737 1.088105-.125767.471329-.248264.945949-.367295 1.423355-.165625.664288-.322792 1.326963-.471583 1.987664-.080061.355516-.157613.710069-.232759 1.063997-.105591.497323-.206435.993438-.30256 1.48816-.205137 1.05575-.388815 2.10534-.551343 3.147078-.012225.078355-.02433.156665-.036315.234931l-.070262.467564-.011283.076792c-.106427.726675-.202525 1.449314-.288413 2.1674-.048813.408128-.094305.814568-.136525 1.219444-.002436.023361-.004892.047021-.007338.070675l-.054143.54172-.010774.112467c-.048983.515225-.092637 1.027799-.131006 1.537524-.026277.349047-.050111.697324-.071473 1.044197-.002732.04436-.005419.08862-.008066.132858-.009896.165425-.019214.330228-.027972.494704l-.007851.150269c-.010228.199597-.019628.39864-.028206.597185l-.004099.09633c-.016141.385192-.029189.768592-.039161 1.150011-.008061.308337-.014113.615402-.018164.921123-.007503.566085-.00815 1.127532-.002011 1.684069l.002649.210589c.00205.144897.004553.289105.007515.432973.011852.575955.031059 1.146768.057535 1.711768l.013322.271843c.008441.164994.017508.329546.027197.493585.014852.251444.031149.501468.048896.750257.022138.310342.04653.618725.073164.925126.013112.150828.026712.300583.040849.449855.026852.283534.055659.565474.086396.845619.024267.221163.049713.441019.076355.659733.016375.134411.033103.267637.050277.400431.013544.104719.027306.208744.041343.312499.010752.079481.02169.15898.032789.238318.015908.113707.032032.226298.048482.338563l.041815.280057c.014783.097197.029864.194475.045193.291499.010104.063951.020202.127089.030405.190118.018214.112526.036774.224767.055667.336659.073697.436425.15237.867007.23606 1.292066l.04789.239918c.010991.054325.022066.108558.033223.162699l.027467.132308.005896.028147c.023934.11407.048086.227041.072601.339598.020273.093077.040827.186022.061629.278681.014006.062384.028046.124295.042198.186077l.089819.384147c.016234.068033.032654.136109.049212.204022l.069826.282189c.016532.065837.03319.131498.049978.197001l.089379.342613c.016776.063187.033572.125839.050488.188342.024344.089946.049041.179952.073991.269644.068163.245029.138165.48755.210037.727671.026358.088056.052741.175047.079369.261718l.091849.294584c.015545.04913.031052.09779.04664.146347l.106297.325812c.017566.052983.035282.106002.053096.158891.090031.267306.182434.53107.277274.791458.021426.05883.043118.117868.064935.17673l.08624.230025c.02615.068963.052576.13794.079178.206668.036613.094585.073372.188226.110459.281395l.079643.198099.083673.20398.046415.111377c2.323395 5.544054 5.851522 9.32376 10.382826 10.453541 3.065169.764233 6.294294.242355 9.503603-1.3529l.369929-.189359.319618-.170037.159972-.088127c.09549-.053138.190828-.107144.28613-.162078l.103849-.060238c.095527-.055757.190915-.112384.286259-.169935.040427-.024403.080781-.048931.121126-.073625.099068-.060634.198095-.12227.297067-.184895.033844-.021415.067812-.043028.101773-.064759.397581-.254396.79407-.524609 1.18929-.81034l.013171-.009528c.060369-.043701.120709-.087764.181018-.132188.067464-.049694.134828-.099794.202152-.150342l.16198-.122542.238429-.183746.15-.117658c.074509-.058839.149073-.118313.223578-.178332.069548-.056028.13883-.112352.20806-.169147l.181729-.150267c.07376-.061469.147442-.123456.221059-.185972.054008-.045865.107681-.091756.16132-.137928.054807-.047178.109813-.094854.164782-.142825.103158-.090026.206164-.181071.30903-.273145.023226-.020789.046575-.041747.069916-.062759.093633-.084286.187024-.169311.280294-.255181.047158-.043416.094181-.086952.141172-.130701.060183-.056031.120519-.112606.180802-.169534l.216213-.205909c.191999-.184383.383864-.372762.575119-.564674.15896-.159508.3174-.321352.475393-.485604.153148-.159213.305882-.320696.458173-.484413.179473-.192943.35803-.388653.535938-.587415.073055-.081617.146327-.164118.219486-.247136.061091-.069324.121845-.138711.182518-.208453.05049-.058037.100739-.116105.150933-.174416.082726-.096101.165683-.193315.248484-.291191.053251-.062948.105934-.125568.158552-.188455.048593-.058078.097193-.116457.145737-.175064.096061-.115976.191696-.232589.287107-.350083l.025161-.031012c5.51119-6.797413 10.272887-16.539142 13.091256-27.843004 1.530978-6.140418 2.339233-12.143049 2.489595-17.723042l.000759-.0403.001-.029v-.03l.001-.029v-.006l.001-.024.001-.069.002-.059.001-.04.002-.091zm-44.93-42.032846c-24.576671 0-44.5 21.266474-44.5 47.5 0 18.101563 9.485948 33.838201 23.441159 41.855024-.327644-1.134853-.625397-2.291634-.893138-3.468011-2.796414-12.28664-2.304601-26.891729 1.313403-41.402748 3.618003-14.511019 10.040432-27.63744 18.277747-37.173062 2.262031-2.618557 4.666376-4.978878 7.191724-7.03453-1.586757-.182859-3.198562-.276673-4.830895-.276673zm297.67-27.060154-.031259.000936-.722045.003721-.161681.002144-.134015.001199-.099173.00274-.166404.003421.238015-.004737-.329666.006839-.035516.000857-.021256-.00012-.064.002-.208448.00609.193503-.00543-.43854.013297-.083515.002043-.056141.002936-.152859.005064-.145208.006768.063208-.002768-.143.006-.03.001.014-.001-.092.005-.238235.011533-.092565.004739.2728-.013272-.462.023-.065.004-.177561.010478.09911-.005862c-.252585.014708-.504732.031169-.756425.049372l.157876-.010988-.327.023-.033.003-.475.038-.026.002.02-.002-.034.003-.078.007.046642-.003643-.102642.008643-.168.015-.100051.00965-.369996.03581.095047-.00946-.367482.037478-.678235.075861-.675286.084227c-.091166.011958-.182483.024177-.273776.036632l-.098221.012802-.451621.065123-.238379.034877-.068.011.016-.003-.069.011-.081006.012744c-.146601.022804-.293009.046203-.439219.070195l.182225-.029939-.408703.067603-.142495.024211-.099802.016186-.107012.019662-.348537.062314-.379358.070549-.044093.008475-.066.012-.047.009-.052388.010703-.092612.017297-.144.029-.017.003-.146415.029854c-.133162.026879-.266144.054254-.398943.082121l.221358-.045975-.310368.064734-.569632.124266-.251.056-.200507.046393-.179493.041607-.037.009.024-.006-.160974.038799.060826-.014535-.192852.045736-.22.054-.277321.069671-.088731.022495-.309948.079834-.062.016-.083053.022096-.094947.024904.096-.025-.372.099-.21.057-.174.049-.239.068.192535-.054608.130675-.036522c-.258098.071776-.51538.145447-.771827.220997l.294104-.085714-.325113.094859-.208374.061988-.097322.029286-.125678.037714-.259089.080052-.213911.066948-.06475.020361-.18525.058639.095-.031-.236494.076913.137494-.044913-.287.093-.241.08-.219.073-.055.018-.120538.041816-.486462.168184-.205.073-.134.048-.078.028-.217076.079364-.340916.126384c-.313486.117461-.625481.237809-.935942.361014-.10226.040581-.204563.081556-.306697.122842l.154631-.062604-.18048.073061-.13952.056939-.146991.060051-.170009.069949-.180751.076004-.033249.013996-.720932.31013-.786417.353258-.277651.127612-.03.014-.261321.123913-.106679.050087.063284-.029487c-.491605.233643-.978693.474703-1.461081.723047l-.118737.061324-.118519.061605-.318947.167511.109304-.057576-.113612.060096-.127692.06748-.257.138-.256708.140719-.110292.060281-.648179.364605-.721017.419943-.030804.017452-.107911.065175.034819-.020797.103896-.06183c-.212641.126203-.42422.253883-.634721.383027l.067917-.041575-.123.075-.101.062-.025.016-.714677.451141-.759652.498047-.097456.065328-.097364.065598-.056563.038262-.082288.055624-.190954.1308-.157046.1082-.050976.035514-.169024.117486-.498324.354209c-.181559.130575-.362149.262311-.541758.395198-.150474.11133-.300434.223601-.449696.336675l-.132826.100977-.107396.081941-.024873.019317c-.409272.314414-.813197.634913-1.211607.961377l-.593458.494155-.265062.225151-.226.196-.187.163-.03778.033525-.070577.062224-.131643.116251.132-.117-.228.203.087-.078-.08915.080035-.298032.26887c-.322894.293725-.641976.591968-.956767.894312-.022931.022024-.045929.044157-.068904.066311l.034853-.033528-.465659.454181c-.16534.163479-.329445.328111-.4923.493886l-.117773.120308-.117286.120658-.047982.048967-.313346.328165-.017654.017835-.156.166-.032.034-.144154.155292-.059777.064573-.534097.587815-.523943.596448-.209029.243872.031481-.037086-.041481.048086-.021.024-.032.038-.132754.158148-.225193.269892-.231037.281228-.090016.110732.017-.022-.047.059-.108805.135256.044805-.055256-.352005.442393-.517569.671899-.022206.029402-.06422.085306-.05.066-.067262.090823-.160738.217177-.072.098-.426432.593063c-.150701.213039-.299603.427372-.446685.64298l-.024883.035957-.155.229-.008724.013713-.041276.061287-.084.125-.009.014-.022.033-.064.097-.032.049-.048.073-.009484.015172-.045591.069863-.018925.027965-.067.104-.063.096-.006.01-.012134.020443-.052866.081557.017-.026-.412811.65802-.435613.722135-.113576.192845-.142.245.044-.077-.05042.088601-.12558.218399-.048212.086436.035212-.062436-.290362.520208c-2.67864 4.872082-4.479707 10.279733-5.190492 16.068609-.378026 3.078778-.430731 6.127533-.183547 9.115995l.068029.745842.023777.232249.000595.009097.009.085.003284.026926.017716.162074.007707.068127.008293.077873.005.038.006.059.014.115.007766.060748.008234.074252.005.039.016.126.005.04.006.044.008.067.007.048.004736.035513.118952.839231.13466.835432.001652.009824.008284.048071.003716.019929.006.035.014.082.011.063-.002-.016.004.025.01438.081895.00662.037105-.006-.038.027.151.006354.037276.043646.232724.005.026.02.105.010416.055813.006584.035187.012.058-.009-.041.012686.062163.022314.115837.022696.110595.031304.153405.008.038.01.049.013.064.007581.035667.010419.050333.023.107.049.227-.006-.025.00593.025252.027397.124419.030673.138329.004.017.034006.149442.018994.082558.006.027.068.289.018.073.016.069.006.024.005.021.00507.019888c.02444.100326.049222.200549.074342.300669l.031351.1242.051237.199243.007.026.013.051.009.035.003187.012261.048813.184739.043.162.033.12-.013-.05.038.14.101919.364822c.10753.377908.219923.754227.337121 1.128887l.01993.06355.01203.039741-.012-.04.02.063801.05.155199-.017-.051.025645.080007.015355.047993.028.087.036991.113094.020468.062436.068541.20547.029.088.02.06.005243.014875.004757.014125.048.141.057.166.006304.017798.050696.144202.025.074.02.056.006.017.042.118.016.044.03.085.004402.010173.057598.157827.083784.228274.071216.189726.027.072.014.038.015.04c.044526.115901.087315.227089.130533.338106l.014831.038048.008636.021846.048.122.021.053.041.105.027.068.110378.27186c.140008.343457.284142.685219.432349 1.025226l.055341.126446.055685.126213.010247.024255.275856.608844c.096943.210334.195457.419963.295529.628873l.07533.156517.042285.087766-.014-.03.053198.109882.111802.226118.042999.087815.099001.198185.063783.125728.007557.014889.03766.074383.053.103.046.09.089.172.014.026.043777.083821-.115004-.220718c.105839.20444.213191.408141.322042.611088l-.026936-.050293.060121.112102.049.09.244155.446285.33502.593612c.198826.346482.402085.690614.609716 1.032322l.314716.510732.191044.303233.098538.154472.046811.072344.023.036.118.182.013.021.052703.080244.091297.138756.068911.104511.022089.034489.171.255.197187.29015.092813.13485.104938.152128.053062.076872.024236.034119.044764.063881.012.017.101.143.455998.634878c.165767.226725.333568.452137.503379.67621l.117168.153978.117964.153764.070491.09017.079.102.036.046.139039.178495.020961.026505.189979.239468.135021.168532.0182.022334.2018.247666.088702.108984.011298.014016.089.107.134.162.042.05.186.221.01.012.066.077.09815.115454.17385.201546.028.032.014396.01732.153604.17568-.060643-.068865.159594.181962.082049.093903.024.027-.018-.021.019.021c.464938.524198.939809 1.03741 1.426025 1.54137l.21701.223543.218578.222394c.125089.12649.250903.252377.377436.377654l.410951.402039.14074.135935.02126.020065.039.037.022.021.086.082.031.029.107018.102651.155982.146349.026.024.037.035.136.127.048.044.157.144-.042-.038.123.113-.057-.053.146.134.186.167-.061-.054.133.119.10501.094338.15599.137662.019134.01765.080866.07035.023.02.021.019.029.025.088.077.019104.017461.137582.119376-.136686-.119837.206.179.037.032.082.07.144135.123787.136865.115213.051.043.020525.017915-.249217-.210857c.217222.184976.43617.368294.656822.549931l.22287.181011-.089-.072.087304.072028.222443.180023-.034747-.028051.142.114.066.053.104962.083356.058038.045644.178.14.257.2.085043.066347.008957.006653.029.022.11.084.119236.091837c.089317.067898.178888.13553.26871.202894l.039054.029269.029916.022367.207084.153633.038394.028706.286606.210294.017.012.012873.009494.018127.013506.269048.193666.087952.062334-.06-.042.2.142-.105-.075.202028.143549.132972.092451.079.055.073.051.01433.010899.166414.115054.027256.018047.009.006.116.08.668651.449736c.227557.150387.456509.299135.68684.446224l.455854.287812.263655.163228.044107.027403.102893.062597.016.01.101504.062121.028496.016879.019.012.023.014.246075.148033.009925.005967.10742.064031.06758.039969-.067-.04.2.118.088.052.096.056.134263.078605.016737.009395.102439.059442.230822.132149.186739.105409.165154.093093-.058154-.033093.094.053.270982.150288.128018.069712.011.006.169.092.019.01.134.072.194.104-.038-.02.037828.02069.069172.03631.036.019.061.032.740075.383746c.258414.131168.518214.260373.779379.387589l.089843.043659.060703.029006.029116.014432.153349.073683.236535.111885.045.021.359872.168799.149128.068201.089.041.083.038.037641.017022.109359.048978.224.1.027035.012766.131965.057234.038.017.134523.059929.206477.089071.095.041.108796.047133.109204.045867-.108-.046.227.096-.031-.013.082599.035657.258401.107343-.183852-.07608.298351.123791.251501.102289.04789.019819.05383.021731.05728.02245.2.08.083963.033734.021475.00848.139562.054786.18741.073005.04859.018995.042957.016343.380826.144944.205217.075713.108958.04138.43881.159823.027232.009797.503.177-.24525-.085306.072802.025639.235448.081667.239.082.015.005.090128.031271.218872.072729.336.111.033989.011903.123006.039919.169005.053178.13011.042537.20189.062463.074.023.08.025.026086.008991.097914.029009-.056018-.016096.074018.022096.145.044-.092322-.027271.242269.073299.282053.082972.080734.024487.065266.018513.262091.076094.106909.029906.053.015.032.009.011.003.117923.033662.478077.130338.141.038.765092.198255c.56005.140479 1.124167.27253 1.692205.395981l.222129.047794.039574.00797.078299.017002c.089527.018863.179149.037514.268868.05595l.089833.018048.113574.023351.214426.041649.126.025.096.019.268284.051622c.11218.021094.224504.041855.336972.062281l.088174.01594.03857.006157.064.011.187302.034208.081698.013792.297417.050989.516583.083011.084.013.875677.130601c.30753.042989.616046.083495.925529.121495 2.236526.274611 4.455762.409971 6.647797.413272l.820719-.004938c24.85529-.336717 46.030805-17.644373 48.940132-41.338939 3.197062-26.037985-16.874487-49.928644-44.83106-53.361279l-.837868-.096466-.796165-.079794-.138708-.01272-.560053-.048232-.081-.007-.057-.004-.204-.015-.828319-.054981c-.296555-.017471-.592706-.032515-.888431-.045149-.181274-.007746-.3629-.014603-.54436-.020554l.07311.002684-.152-.005-.054842-.001906-.026158-.001094-.241721-.006383c-.066722-.001699-.133421-.003275-.200096-.004729l.063647.001425-.07383-.002313h-.014l-.02182-.000096-.02818-.000904-.105-.003h-.016l-.063-.001-.081927-.000474-.034073-.000526zm-217.170601 43.285723.000601 10.774431.54719.000474c-.360342.815114-.54719 1.649819-.54719 2.499526 0 9.001641 20.969714 16.319684 47.033038 16.496719l.458153-.00453c.122326-.001283.2441-.002718.365757-.004309l.481843-.007123.138161-.002347c.190736-.003332.381284-.00705.571533-.011149.10869-.002341.217435-.004811.32608-.007405l.439992-.011197.371649-.010541c.10158-.003016.20328-.006148.304889-.009389.143347-.004573.286333-.009356.429134-.014354.106171-.003716.212457-.007559.31864-.011521.407061-.015189.812348-.032116 1.216044-.050769l.295249-.013962c.125314-.006063.2506-.012298.375728-.018699l.29928-.015643c.151883-.008108.303462-.016457.454801-.025049.143522-.008147.287023-.016526.430305-.025122.08735-.005241.175152-.010596.262871-.016032.461988-.028637.920744-.059478 1.37711-.092548.1087-.007877.217167-.015873.325496-.023994.623436-.04674 1.242445-.097654 1.856667-.152644.117549-.010524.234255-.021137.350787-.031896.168597-.015566.337266-.031482.505561-.047705l.062171-.006009c.163832-.015875.327434-.032055.490674-.048524.129182-.013034.257868-.026221.386326-.039589.571437-.059463 1.138592-.122516 1.701019-.18906.113579-.013439.226771-.026996.339769-.040695 1.072134-.129971 2.127062-.272699 3.162992-.427625.162082-.02424.323443-.048739.484335-.073534.531845-.081963 1.058519-.167149 1.579853-.255492.175015-.029658.349498-.059683.52337-.090062.055322-.009665.110641-.019377.165897-.029125.139796-.024661.279146-.049542.418094-.07465.062997-.011384.12594-.02282.188801-.034302.147462-.026937.294446-.054125.440968-.081569.084074-.015747.168077-.031594.251926-.047524l.293133-.056152.348651-.068c.098836-.019465.196789-.038915.294523-.058481.170381-.034108.340743-.068699.510425-.10364.024902-.005128.049607-.010226.074298-.015332.093451-.019322.187193-.038855.280726-.058495.131524-.027619.262002-.055314.392063-.083217.697379-.149613 1.383128-.305292 2.056275-.466751.355599-.085296.707005-.172034 1.054819-.260347.300365-.076269.597422-.153545.891753-.231972.127561-.033991.253988-.068029.379903-.102279.071215-.01937.143237-.039075.215091-.05885.071781-.019755.142722-.039393.213497-.059099.305441-.085044.607885-.17138.907162-.258956l.140604-.041305.200569-.059478c.052704-.015716.105308-.031471.157811-.047265l.29001-.087948c.08867-.027108.17715-.054359.265333-.081721l.190641-.059472.114523-.036034c.070368-.022213.140543-.044496.210524-.066851l.253957-.081713c.228293-.073983.455342-.149019.68023-.224809.216655-.073016.431205-.146698.643721-.221068.397964-.139273.788436-.280827 1.171585-.424724.410055-.154003.811704-.310681 1.204717-.469957.07088-.028724.141901-.057707.212636-.086774l.136782-.056462.183327-.076481.181865-.076801c.035224-.014966.070231-.029893.105163-.044841.106155-.045424.211862-.09115.316876-.137072.058052-.025386.115694-.050745.173125-.076163.071497-.031641.143324-.063671.214816-.095793.0856-.038463.170216-.076829.254353-.115325.255842-.11705.508229-.235778.756072-.355692l.141486-.068826c.276477-.135222.547197-.271936.812038-.410099.357623-.186572.704177-.375588 1.039733-.567139.062429-.035638.124245-.071229.185682-.106907.051947-.030166.103864-.060536.155505-.090968.052957-.031207.105647-.062493.158046-.093843.194754-.116527.38505-.23367.57128-.351682.048634-.030818.097252-.061863.145588-.092968.065728-.042298.130486-.08441.194729-.126631.043057-.028296.086331-.056939.129368-.085632.069806-.046541.138623-.092963.206817-.139511.047309-.032291.094568-.064816.141523-.097402l.156593-.109696.153736-.109747c.074796-.053908.148356-.107674.221094-.161597.024869-.018435.05041-.037463.075849-.056511.401196-.300418.776504-.605328 1.125446-.914755.029922-.026534.05951-.052975.088905-.079448.145406-.130954.286146-.262754.422098-.39533l.073887-.072595c.05814-.057551.115897-.115778.172731-.174151.022906-.023526.045743-.04716.068429-.070818.049187-.051296.097585-.102621.14527-.154055.02666-.028754.053299-.057766.079711-.086811l.136015-.152176c.030193-.034374.060028-.068749.089545-.103171.039931-.046563.079537-.093521.118551-.140564.027154-.032745.05366-.065088.079886-.09747.032312-.039891.064519-.080253.096291-.120675.036412-.046328.072195-.09266.107404-.139072.036736-.048427.072658-.096681.107959-.145019.021253-.029102.042219-.058147.06296-.087223.030689-.043018.061033-.086314.090879-.129676.082185-.119405.160535-.239214.235071-.359507.051577-.083341.09901-.162877.14477-.242619l.008683-.015166c.033436-.058557.065972-.117224.097601-.176.010911-.020273.021921-.040953.03282-.061646.020915-.039721.041159-.078979.060998-.118285.022518-.044608.044696-.089655.066343-.134765l.051686-.110028c.022979-.049993.04531-.100071.066985-.150223.012466-.028846.024775-.057858.036865-.086894.02406-.057795.047176-.115497.069422-.173293.012671-.032918.025067-.06589.037181-.098893l.030846-.085851.017345-.049976.020828-.064551c.004374-.010456.007975-.02143.011545-.032408l.019455-.063592.033756-.108154c.019159-.065067.037175-.130078.05409-.195197.007853-.030233.015499-.060607.022904-.091004.010665-.043779.020804-.087479.030447-.131228.031556-.143152.057807-.286883.078672-.431102l.002552-.01783c.002351-.016612.004632-.033231.00684-.049857l.006287-.048898.017707-.160509.020034-.277254.004711-.191967-.000659.088654c.001771-.058428.002659-.116928.002659-.1755 0-.849707-.186848-1.684412-.54719-2.499526l.54719-.000474.003121-8.606553c-1.190027.587933-2.416845 1.147226-3.678486 1.678917-11.46006 4.829597-26.035376 7.427636-41.324635 7.427636s-29.864575-2.598039-41.324635-7.427636c-2.728112-1.149704-5.293403-2.428465-7.675966-3.846795zm116.001601-18.807723-.002 24.04 31.099716 1.077092c-.148919-3.512512-.012139-7.082598.430507-10.687661.576914-4.698585 1.643585-9.213826 3.14459-13.507982zm-66.353-56.217-29.775 25.695577-15.801989 13.636976.43061-.000922c-1.913567 2.169629-2.959248 4.517113-2.959248 6.967523l.003644.250432.010904.249695.014079.204719c.006675.076945.013373.147199.020929.21736l.017244.148137c.006184.049413.012784.098718.019807.147975l.027893.181906c.007596.046298.015639.09296.024061.139577.011386.062998.023349.125347.035989.187613l.029981.14178.037666.163949c.014325.059805.02936.119856.045024.179827l.033526.12476c.016476.059628.033413.118636.050959.177565.017473.058686.035571.11736.054271.175952.009771.030622.01984.061624.030078.092604.025982.078622.052974.156887.081037.235003.012293.034212.024594.067864.037094.101489.022128.059529.044987.119243.068471.178869.020499.052051.041622.104391.063227.156662.024021.058112.04848.115773.073523.173349.022902.052652.046349.105357.070286.157989.019329.042498.038909.084803.058805.127061.026333.055933.053303.111952.080828.167885l.072046.143736.110065.210103c.014203.026429.028311.052438.04254.078429.036789.06721.074742.134918.113509.202492.025954.045234.051949.08986.078299.134428.0358.060555.072412.121256.109682.181846.022066.035872.044235.071503.066632.107095.112246.178391.230372.356053.354128.532697l.048229.068387.11798.163624c.183621.250768.378573.499361.584652.745743.217817.260404.447813.518072.689914.773148.028824.030368.057741.060619.086829.090832.046015.047798.092535.095583.139479.143275.14379.146077.291496.29121.443131.435446.04785.045512.095571.09045.143672.135299.049373.046035.099459.092264.14995.138398.145069.13255.29347.26431.445165.395267l.178345.152314.029566.024938c.16976.142937.343464.284897.521052.425856l.126321.099585c.858416.672145 1.805413 1.32122 2.834406 1.94445.21808.132086.439933.263063.66541.392851.329911.189902.667508.377222 1.012661.561916.241783.12938.487293.257481.736444.384265l.063905.03245c.35942.182116.726367.3615 1.100642.538067.25299.119348.509091.237303.76847.353946.085442.038422.170874.07654.256656.114517.08986.039782.180367.079522.271258.119105.040916.017818.081829.03557.12282.05329.292751.126555.589755.251607.890629.374991.270982.111125.545087.220891.82227.329278l.194496.075633c.09793.03787.196503.075671.295454.113298.080541.030626.161376.061155.242461.091568.099758.037417.199977.07469.30057.111788.0899.033153.180056.06615.27051.099006.092932.033756.186467.067467.280317.101027l.269903.095794c.110292.038853.221546.077685.333226.116306.061909.021408.123658.042653.185536.063834l.317925.107875c.1086.036528.217727.072904.327242.109082l.138421.045555c.341557.111984.687411.222219 1.036913.330485.041402.012824.082375.025474.123398.038097.158432.048749.318172.097264.478653.145369.044437.01332.088053.026347.131724.039344.116784.034757.234658.069502.352923.104027.148351.043308.297304.086265.446864.128872.036592.010424.072917.020742.109277.031038.143834.040732.28843.081198.433579.121337.066391.018359.133098.036705.19992.054982.130841.035787.26212.071309.393839.106564.068881.018435.137329.036652.205895.054796.141995.037578.285377.075076.429266.112259l.291248.074659.170451.043136c.166831.042021.335101.083813.504032.125178l.165577.040356c.138819.033677.278557.06718.418736.100392.070408.016681.14077.033252.211242.04975.13811.032331.276833.064425.415976.096233.125513.028693.251456.057174.377738.085422.037688.00843.074707.016684.111754.024918.161699.035939.324746.071667.488343.107007.123254.026625.246429.052947.369912.079047.048965.01035.097673.020601.146428.030818.142755.029915.286416.059638.430483.089063.136975.027976.274317.055683.412022.083119.042737.008514.085031.016908.127359.025276.149403.029538.299562.058821.450143.087781.105565.020304.21185.040546.318343.060627.119996.022627.239687.044946.359638.067061l.428501.077941.159452.028464c.130462.023171.261477.046147.392786.068882.141546.024507.283607.048763.426008.072738.04405.007416.088052.014791.132086.02214.381194.063616.764957.125233 1.151069.184798.152125.023467.304337.046574.456908.069362l.218747.032416c.174397.025642.349914.05096.525892.075855.059423.008406.118108.016654.176843.024854l.418128.057465c.119193.016121.238244.032004.357498.047693.062932.00828.125912.016505.188948.024676.18093.023453.362371.046469.544267.069038.101371.012578.202979.025028.304726.03734.099721.012066.199788.024022.299988.035844.402174.047447.806103.092675 1.21211.135698.097836.010368.195848.020613.29398.030729.237311.024465.475205.048165.713783.071109.118387.011385.236943.022583.355666.033594.130201.012075.260353.023903.390703.035505.105329.009376.211232.018643.317264.027761l.43806.03676c.906997.07424 1.823944.137636 2.749331.189793l.211159.011699.534743.027812c.065594.003253.131041.00644.196529.009571.235744.011271.472247.021824.709261.031643.013938.000577.028296.001169.042656.001759.181572.007451.362984.014455.544688.021027.083689.003027.167161.005953.250694.008787l.228169.007511c.27751.008853.555195.016687.833525.023511.635997.015594 1.275698.025913 1.918521.030846l.096319.000699.784799.002679c.520773 0 1.039586-.003535 1.556313-.010551.018247-.000248.036259-.000497.054269-.00075.216324-.00304.432446-.006693.648191-.010953.37682-.00744.752978-.016746 1.127934-.027887.11491-.003415.229601-.006999.344178-.010754.160678-.005265.321449-.01088.481991-.016831l.111968-.004207c.16469-.00627.329035-.01289.493134-.019863l.393536-.017417c.122929-.005659.245244-.011493.367417-.017522.087691-.004327.175761-.008779.263755-.013332.152641-.007898.304575-.016074.456283-.024553.964915-.053924 1.920999-.120093 2.867018-.198106l.211634-.017664c.16134-.013629.321852-.027554.482065-.041821.102608-.009137.205068-.018411.307405-.027825.137387-.012637.274643-.025534.411674-.038681.135185-.01297.26994-.026163.404473-.039596l.206037-.02078c.128632-.013103.25622-.026338.383604-.039791.582321-.061496 1.160244-.12751 1.733679-.197963.334848-.04114.667763-.083741.999106-.127832.787115-.104742 1.565097-.217856 2.333626-.339127.285831-.045102.570502-.091358.853834-.13873.065687-.010983.131299-.022025.19684-.033128.088143-.01493.176217-.02998.264159-.045138.342812-.059088.683473-.119791 1.022074-.182111.129321-.023801.258655-.047897.387684-.072229.094415-.017805.188409-.035686.282239-.053692.121745-.023363.243472-.046987.36492-.070821.08851-.01737.176834-.034845.26501-.05243.098683-.019682.196952-.039456.295033-.059368.339028-.068828.676176-.139382 1.011021-.211562.521926-.11251 1.038169-.228951 1.548596-.349251.581744-.137108 1.155871-.279212 1.722118-.426187.122095-.031692.243521-.06353.364579-.095592.113161-.02997.226146-.060175.338806-.090576.054872-.014806.109902-.029723.164854-.044686.151378-.041222.301751-.082681.451528-.124488.04167-.011631.084336-.023582.126953-.03556.125705-.035336.24993-.070614.373736-.106132l.338645-.098058c.6246-.182535 1.238552-.371308 1.841102-.566034.242632-.078412.483322-.157758.722132-.238055.430881-.144877.855756-.29289 1.274319-.443921.067977-.02453.135134-.0489.202128-.073348l.298079-.109694c.11511-.042718.229278-.085498.34295-.128506l.12993-.049339c.101322-.038621.201306-.077059.300898-.115673.097078-.03764.194413-.075695.291367-.11392.08728-.034412.174008-.068863.260427-.10345l.15857-.063756c.110971-.044825.220917-.089665.330348-.134726l.322151-.133917c.032366-.013582.064955-.027298.097498-.041034.2967-.125235.589088-.251945.877483-.380264.425143-.189162.841744-.381887 1.249396-.577999.233235-.1122.464117-.225799.692004-.340491l.101588-.0513.121849-.061993.314001-.162117c.033712-.017591.067865-.035474.101947-.053383.260044-.13665.515568-.274574.766853-.41393.052647-.029198.10468-.058218.156529-.0873.062267-.034923.124993-.070347.187446-.10586.075962-.043197.151112-.086291.225861-.129516.071278-.041219.141776-.082314.211912-.123525.20536-.120665.408025-.242587.607521-.365495.059653-.036752.119235-.073724.17853-.110785.196259-.122663.389552-.246409.579647-.371102.257119-.16873.503545-.335801.744234-.504492.039129-.027423.078315-.055038.117347-.082695.181822-.128839.359973-.258363.534749-.388796.094778-.070735.188162-.141428.280555-.212383.026374-.020256.052726-.040577.078996-.060919l.189844-.148497c.063418-.050116.125778-.099901.187652-.14981.048781-.039345.09779-.079202.146491-.119137.041439-.033982.082405-.067813.123149-.101699.17018-.14154.336462-.284028.49881-.42746.042141-.037231.083965-.074479.125524-.111791.405693-.364231.786064-.734437 1.140186-1.110239.223706-.237394.437126-.477246.63981-.719233.033537-.040041.066708-.080053.099586-.120123.038015-.046329.075823-.092967.113232-.139682l.02245-.02922v-3.581c.303581-.91699.458627-1.845287.458627-2.788846 0-2.45041-1.045681-4.797894-2.959248-6.967523l.070808.000922-.506631-.476293c-.479922-.504137-1.007148-.998126-1.579363-1.480994l-11.567193-10.853266-10.570466-9.918519-15.470211-14.51396zm-51.648-65.200846c-7.179702 0-13 22.385763-13 50 0 15.615113 1.861099 29.558368 4.776696 38.727459l19.963572-17.228566c.80763-6.512542 1.259732-13.802652 1.259732-21.498893 0-27.061953-5.589814-49.102478-12.570885-49.973274l-.219625-.020365zm27.389437 5.54493.074354.239168c.381867 1.235823.742887 2.511886 1.085047 3.827886 2.883013 11.088508 4.451162 25.348208 4.451162 40.388016 0 1.06144-.007811 2.118994-.023343 3.171821l4.646895-4.010825c4.030769-3.478434 9.08939-5.081945 14.066124-4.833601 1.684695-.083975 3.376918.044559 5.033783.384562-1.730494-16.454705-11.595671-31.413876-29.334022-39.167027z"/></svg>