<svg height="960" viewBox="0 0 960 960" width="960" xmlns="http://www.w3.org/2000/svg" xmlns:xlink="http://www.w3.org/1999/xlink"><defs><path id="a" d="m0 0h960v960h-960z"/></defs><g fill="none" xlink:href="#a"><use fill="#fff" fill-rule="evenodd" xlink:href="#a"/><path d="m327.076087 6c6.213424 0 12.174595 1.4347384 17.512324 4.0358683l.038337.0190748 17.267345-2.60682376c1.693911-.2557086 3.402206-.40229013 5.114326-.43895203l.856331-.00916731h6.211337c5.523 0 10.846693 1.13360274 15.710388 3.2123451l.245273.107598.424532-.0768829c.157503-.0276415.315312-.0543672.47342-.0801719l.475218-.0746454 17.489175-2.64012356c1.976229-.2983267 3.972037-.44811934 5.970657-.44811934h6.211337c5.350469 0 10.513886 1.06388408 15.253237 3.0203039l.081424.0356392 18.154798-2.64001946c1.633089-.23736093 3.279041-.37339396 4.928412-.40741644l.824926-.0085072h6.451203c6.494655 0 12.716657 1.56805153 18.23957 4.3995647l.130091.0683784 14.757006-2.07748086c1.583205-.22284836 3.17811-.35054118 4.776123-.38247691l.799227-.00798533h6.383874c5.252829 0 10.328981 1.0260098 15.001683 2.9177533l.243087.1011898.035107-.0061808c.159799-.025034.319888-.0491243.480262-.0722655l.481966-.0665709 19.172751-2.53011844c1.735001-.22895818 3.483158-.34380746 5.233201-.34380746h6.809265c13.811017 0 26.424774 7.0966219 33.675736 18.4103062l.104712.1676369 88.144093 1.0089392c9.759821.1117955 19.135287 3.7878873 26.36622 10.324946l.406996.3730729 22.076321 20.5181474c8.142602 7.5678873 12.768627 18.1829329 12.768627 29.2993571l-.000257 30.0985373 11.45815.136306c16.795085.198703 31.657292 10.865222 37.240699 26.668165l.166347.480444 16.865588 49.723177c1.36259 4.017191 2.077498 8.225556 2.117928 12.467353l.205288 21.584555.123893.018193c19.290005 2.935453 33.69197 19.411999 33.966329 38.980883v.606198l-.507398 456.110403c-.022105 19.870051-14.552368 36.42274-33.687226 39.458258l-.099598.014065.000529 7.172255c0 4.23411-.672255 8.439769-1.990224 12.460213l-.23928.707536-10.698333 30.6872c-5.361087 15.377792-19.509945 25.970085-35.775178 26.782454l-16.336514.815342-3.124196 24.811155c-1.594554 12.662043-9.133032 23.792078-20.273214 29.975382l-.459838.251315-22.897909 12.320842c-5.15938 2.776144-10.865625 4.385006-16.715301 4.712837l-32.115542 1.799469-.231439.373388c-7.146016 11.350848-19.645642 18.511765-33.357537 18.678686l-.490219.002983h-6.241219c-5.884405 0-11.685308-1.29816-16.993063-3.789l-.585523-.280057-.333079.207083c-6.013205 3.672854-13.011081 5.769565-20.356887 5.858991l-.490229.002983h-6.241219c-5.666464 0-11.255497-1.20378-16.401304-3.517154l-.145282-.066903-.181591.120177c-6.21853 4.043145-13.568097 6.365822-21.307547 6.460845l-.494529.003035h-6.062899c-6.923583 0-13.728616-1.797106-19.749445-5.215529l-2.892989-1.642528-.321427.278877c-6.970542 5.949099-15.927739 9.458878-25.478703 9.576145l-.494537.003035h-6.062899c-6.923583 0-13.728616-1.797106-19.749445-5.215529l-3.222989-1.830528-.178953.159854c-7.012583 6.128533-16.105607 9.761664-25.825363 9.883061l-.503297.003142h-5.706258c-5.782908 0-11.47869-1.253656-16.701535-3.653608l-.295594-.138449-.17291.11688c-6.279622 4.169401-13.744262 6.573667-21.620419 6.672035l-.503284.003142h-5.706258c-6.639635 0-13.164417-1.652625-18.990405-4.795381l-.179281.119969c-6.413299 4.258256-14.062641 6.675412-22.124056 6.675412h-5.706258c-7.28218 0-14.426202-1.987965-20.661658-5.749513l-14.464471-8.726544-78.731264 4.41338c-10.011714.561125-19.861852-2.658596-27.604583-9.009097l-.427971-.356023-39.214601-33.085904c-8.922702-7.528208-14.111276-18.578786-14.204531-30.252681l-1.826936-228.701376c-.064213-8.038344 2.164007-15.334275 5.9771-21.443701l.257786-.403598-2.40812-257.781479c-.045608-4.883818.773724-9.534819 2.303168-13.827316l.169952-.462205v-13.451l-.190544-.224991c-5.57402-6.702562-8.981501-15.237656-9.226272-24.505877l-.011469-.605478-2.716493-236.3266094c-.211973-18.6913956 12.547363-35.039146 30.731225-39.3706043l37.95362-9.040683c3.185541-.7588069 6.452209-1.1235631 9.726664-1.0860798l78.531269.8993226.176121-.2235286c6.07882-7.6087633 14.850323-12.8898894 24.810846-14.51552855l.475203-.07464305 17.489175-2.64012356c1.976229-.2983267 3.972037-.44811934 5.970657-.44811934zm355.562883 868.765-460.264 25.939-1.75 1.245 78.893778-4.421057.609346 4.702338 17.852783 10.769719h5.706258l6.280613-17.178057 16.47-.923.690346 5.331338 17.852783 10.769719h5.706258l6.517613-17.825057 14.294-.801.629346 4.856338 17.852783 10.769719h5.706258l6.338613-17.337057 23.5-1.317.672851 4.884338 18.968583 10.769719h6.062899l6.788667-17.475057 22.496-1.261.683851 4.966338 18.968583 10.769719h6.062899l6.821667-17.559057 11.554-.647.628104 4.436338 19.526482 10.769719h6.241219l6.825195-17.068057 11.705-.656.702104 4.954338 19.526482 10.769719h6.241219l7.039195-17.602057 56.917347-3.189801zm-498.921516-809.5643112-28.717454 6.8399942 2.713826 236.32661 9.43043 1.04087v52.665658l-2.474372-.543885 2.474372 264.961412 3.053503 1.271301.343843 18.22832-9.698016-4.778249 1.826936 228.701376 31.692135 26.740046c.597483-.787427 1.322781-1.498911 2.170509-2.102439l12.396202-8.825751.000114-65.332208c0-7.300001 7.552805-12.110314 14.141465-9.102291l.232127.109421 29.678294 14.434078 9.244-30.473.000211-56.942539c0-6.840186 6.701056-11.634261 13.143658-9.493172l.24765.085779 11.635481 4.193932-3.32-452.246-17.946755-3.155908c-1.136297-.179425-2.209329-.550361-3.184799-1.078852-.025746-.01458-.052026-.028943-.078231-.043419-.270662-.149219-.53325-.310932-.787456-.484064-.104205-.070828-.206621-.143389-.307542-.21778l-.019843-.014923c-.093902-.069615-.186543-.140837-.277883-.213626-.41042-.326631-.793815-.684883-1.146848-1.070457-.097945-.106789-.193368-.215531-.286433-.326323-.033438-.040292-.066635-.080491-.099519-.120946l.099519.120946c-1.342356-1.598052-2.194248-3.622706-2.32246-5.843063-.002007-.03776-.003993-.07568-.005765-.113649-.006651-.139787-.010277-.280173-.010984-.421256l-.000001-56.80968-12.498-44.157-32.867786-.671667c-5.284155-.10805-9.554333-4.304283-9.785719-9.55281l-.008433-.277193-1.156062-68.8023298-15.518887-18.6031677c-.981221-1.1762225-1.646457-2.5112919-2.005027-3.9020957zm523.915516 760.7493112-78.278983 4.227845c.027947.512961.041967 1.027728.041967 1.543807 0 14.464523-11.030045 26.537037-25.109053 26.537037-7.602664 0-14.31625-3.520345-18.884026-9.036704l-.050926-.061634-.18722.298265c-4.410523 6.861726-11.796817 11.464582-20.347328 11.611276l-.421447.003612c-7.743455 0-14.564598-3.651935-19.135577-9.345212l-.049428-.062941-.15647.240008c-4.433708 6.67581-11.717687 11.131355-20.128025 11.275644l-.421448.003612c-13.901065 0-24.82975-11.769276-25.103782-25.989756l-14.430445.779276c.019463.429824.029221.860837.029221 1.292761 0 14.894644-11.589482 27.205357-26.197371 27.205357-9.641206 0-17.967595-5.362547-22.515015-13.291229l-.028665-.049673-.159951.37222c-4.056111 9.208972-12.920535 15.716996-23.394132 15.89357l-.437323.003683c-9.787285 0-18.219608-5.526279-22.719105-13.653381l-.156305.334691c-4.130877 9.006395-12.894222 15.337314-23.222354 15.511435l-.437322.003684c-9.787286 0-18.219608-5.526279-22.719106-13.653381l-.184402-.338521-.149194.320019c-4.200751 8.804559-12.862397 14.960816-23.045062 15.132485l-.437322.003683c-13.789114 0-24.888702-10.969351-26.089651-24.726878l-30.568506 1.650792c-.723615.039075-1.43341.000209-2.121225-.109275-1.856662.240432-3.809772-.037842-5.642717-.929275l-25.845904-12.56995-.000398 43.926048 473.812123-26.701832c.47623-.026838.946552-.019895 1.408633.018747zm59.621-43.427-487.504 23.966-6.951 22.913 487.285-26.314zm3.452-45.411-472.492999 20.339771c-.995874.085677-2.022172.021018-3.050795-.213872-.055578-.012483-.110933-.0254-.166116-.038777-.027655-.007443-.055282-.014368-.08291-.021417-.386801-.096367-.764745-.216216-1.132521-.357239l-11.555261-4.166514-.000398 33.689048 488.438021-24.011836.042979-.002164zm34.283-457.591-501.044 2.974 3.336 454.547 497.222-21.403zm-315.99766 383.837938c.002706.101088.003788.141523.004221.194097l.000288 25.240111c0 6.824295-5.435297 12.407031-12.257149 12.589637l-93.803344 2.510918c-6.953065.186119-12.740517-5.299574-12.926636-12.252639-.002706-.101088-.003788-.141523-.004221-.194097l-.000288-25.240111c0-6.824295 5.435297-12.407031 12.257149-12.589637l93.803344-2.510918c6.953065-.186119 12.740517 5.299574 12.926636 12.252639zm129.996565-5.07773c.005296.178866.006355.21464.007245.336317l.000699 25.320632c0 6.781488-5.369676 12.345369-12.146886 12.586203l-93.803345 3.333374c-6.951168.247016-12.786448-5.187774-13.033463-12.138942-.005296-.178866-.006355-.21464-.007245-.336317l-.000699-25.320632c0-6.781488 5.369676-12.345369 12.146886-12.586203l93.803345-3.333374c6.951168-.247016 12.786448 5.187774 13.033463 12.138942zm127.003435-3.92227c.002706.101088.003788.141523.004221.194097l.000288 25.240111c0 6.824295-5.435297 12.407031-12.257149 12.589637l-93.803344 2.510918c-6.953065.186119-12.740517-5.299574-12.926636-12.252639-.002706-.101088-.003788-.141523-.004221-.194097l-.000288-25.240111c0-6.824295 5.435297-12.407031 12.257149-12.589637l93.803344-2.510918c6.953065-.186119 12.740517 5.299574 12.926636 12.252639zm-274.98731 14.880062-83.009 2.222v14.299l83.009-2.222zm130-4.918-83.009 2.949v14.408l83.009-2.949zm127-4.082-83.009 2.222v14.299l83.009-2.222zm24.161403-299.035433v248.127496c0 5.382204-4.259912 9.798954-9.6386 9.993467l-369.04099 13.345867c-5.660847.204717-10.3614-4.32892-10.3614-9.993468v-256.693422c0-5.472336 4.398611-9.928288 9.870488-9.999161l369.040989-4.780797c5.573028-.071327 10.129513 4.426523 10.129513 10.000018zm-20.00099 10.13-349.04 4.521v236.453l349.04-12.621zm-466.261443-204.121567 11.276425 39.840759c.250782.886052.377976 1.802497.377976 2.723356l-.000401 48.099885 493.591-2.465-.441693-46.353374-13.702166-40.399185c-.875068.24639-1.798627.376632-2.752908.373091zm364.055437-44.712c0 12.728034-8.190069 23.657349-19.442858 25.996551l92.340421.342449v-50.044l-87.882851-.8558067c8.89394 3.9450757 14.985288 13.5840447 14.985288 24.5608067zm-50 0c0 12.422784-7.801944 23.132091-18.638605 25.813524l39.999735.148084c-11.167805-2.411226-19.277944-13.295835-19.277944-25.961608l.001384-.325887c-.000922-.094003-.001384-.188077-.001384-.282221 0-7.943936 3.293108-15.373406 8.926132-20.294464.542331-.473785 1.145213-.870691 1.791522-1.180981 1.446658-1.0597757 3.007487-1.9515091 4.661888-2.6476211l-33.666594-.3276691c9.551418 3.5774962 16.203866 13.5876582 16.203866 25.0588432zm-111-1c0 13.732759-9.534118 25.371618-22.162406 26.386586l103.722281.386219c-10.752375-2.747581-18.476689-13.411979-18.476689-25.772805l.001132-.35289c-.000754-.085015-.001132-.170088-.001132-.255218 0-7.943936 3.293108-15.373406 8.926132-20.294464.542331-.473785 1.145213-.870691 1.791522-1.180981 1.799391-1.318249 3.775413-2.3763552 5.888432-3.1215251l-33.612701-.3281778c8.860313 3.9622589 14.923429 13.5819609 14.923429 24.5332559 0 14.37663-10.449105 26.458407-23.958407 26.458407s-23.958407-12.081777-23.958407-26.458407l.001384-.325887c-.000922-.094003-.001384-.188077-.001384-.282221 0-7.943936 3.293108-15.373406 8.926132-20.294464.542331-.473785 1.145213-.8706906 1.791522-1.1809807 1.428552-1.0465083 2.968435-1.9291616 4.599813-2.6213924l-44.829504-.4367806c9.671776 3.5036466 16.428851 13.5806857 16.428851 25.1417257zm-50 0c0 13.165361-8.76255 24.406275-20.613414 26.206973l44.685373.164972c-12.541946-1.107178-21.988773-12.702197-21.988773-26.371945l.001132-.35289c-.000754-.085015-.001132-.170088-.001132-.255218 0-7.943936 3.293108-15.373406 8.926132-20.294464.542331-.473785 1.145213-.8706906 1.791522-1.1809807 1.863577-1.3652832 3.916611-2.4515113 6.115073-3.2000712l-36.910523-.3601378c10.500422 2.9390399 17.99461 13.4684567 17.99461 25.6437617zm-197.606437-27.391.880398 52.429952 30.555602.624048 138.702137.518277c-11.767159-1.879445-20.448514-13.077053-20.448514-26.181277l.001132-.35289c-.000754-.085015-.001132-.170088-.001132-.255218 0-7.943936 3.293108-15.373406 8.926132-20.294464.542331-.473785 1.145213-.8706906 1.791522-1.1809807 2.302438-1.6868694 4.89407-2.9476185 7.691864-3.6719744l-36.844655-.3581804c9.630674 3.5290961 16.351951 13.5833315 16.351951 25.1137075 0 14.37663-10.449105 26.458407-23.958407 26.458407s-23.958407-12.081777-23.958407-26.458407l.001384-.325887c-.000922-.094003-.001384-.188077-.001384-.282221 0-7.943936 3.293108-15.373406 8.926132-20.294464.542331-.4737846 1.145213-.8706906 1.791522-1.1809807 1.842114-1.3495558 3.869346-2.426454 6.039171-3.1740734l-33.952935-.3303051c8.985152 3.9843294 15.112924 13.8666412 15.112924 25.0879312 0 14.61486-10.394566 26.958407-23.958407 26.958407s-23.958407-12.343547-23.958407-26.958407l.000655-.302838c-.000437-.065687-.000655-.131408-.000655-.197162 0-8.323293 3.505148-16.091417 9.464466-21.0869138.282715-.2369909.580918-.453497.892283-.6482506 1.581175-1.2273548 3.305504-2.2469888 5.145587-3.0209909zm329.041826 20.879688-.053955.068348c-1.388153 1.796713-2.306125 4.261615-2.377012 7.0894l-.004422-.254544c0 2.245392.586419 4.340272 1.611923 6.048264l.05567.089844.036594.003807.251199.007786c2.639565 0 5.1278-2.757057 5.1278-6.541593 0-3.554074-2.194417-6.201997-4.647797-6.511312zm50 0-.053955.068348c-1.388153 1.796713-2.306125 4.261615-2.377012 7.0894l-.004422-.254544c0 2.245392.586419 4.340272 1.611923 6.048264l.05567.089844.036594.003807.251199.007786c2.639565 0 5.1278-2.757057 5.1278-6.541593 0-3.554074-2.194417-6.201997-4.647797-6.511312zm-211-1-.053955.068348c-1.388153 1.796713-2.306125 4.261615-2.377012 7.0894l-.004422-.254544c0 2.245392.586419 4.340272 1.611923 6.048264l.05567.089844.036594.003807.251199.007786c2.639565 0 5.1278-2.757057 5.1278-6.541593 0-3.554074-2.194417-6.201997-4.647797-6.511312zm50 0-.053955.068348c-1.388153 1.796713-2.306125 4.261615-2.377012 7.0894l-.004422-.254544c0 2.245392.586419 4.340272 1.611923 6.048264l.05567.089844.036594.003807.251199.007786c2.639565 0 5.1278-2.757057 5.1278-6.541593 0-3.554074-2.194417-6.201997-4.647797-6.511312zm61 0-.053955.068348c-1.388153 1.796713-2.306125 4.261615-2.377012 7.0894l-.004422-.254544c0 2.245392.586419 4.340272 1.611923 6.048264l.05567.089844.036594.003807.251199.007786c2.639565 0 5.1278-2.757057 5.1278-6.541593 0-3.554074-2.194417-6.201997-4.647797-6.511312zm-210.884053-1.990629-.071516.091659c-1.448893 1.901123-2.416442 4.548631-2.476821 7.606057l-.002999-.195775c0 2.384523.617142 4.607432 1.692885 6.411223l.072708.117858.042685.004723.233315.007789c2.511171 0 5.041593-2.919718 5.041593-7.041593 0-3.842686-2.199244-6.640553-4.53185-7.001941zm49.884053.990629-.053955.068348c-1.388153 1.796713-2.306125 4.261615-2.377012 7.0894l-.004422-.254544c0 2.245392.586419 4.340272 1.611923 6.048264l.05567.089844.036594.003807.251199.007786c2.639565 0 5.1278-2.757057 5.1278-6.541593 0-3.554074-2.194417-6.201997-4.647797-6.511312zm-12.317709-66.988688h-6.211337l-17.489175 2.6401236-4.374827 15.5738195-92.191778-1.0559431 9.09 10.897 475.748 4.63-10.867286-10.1007417-114.565936-1.3123152-6.900448-18.2719431h-6.809265l-19.172751 2.5301184-5.156536 15.3068247-10.044-.115-6.27477-17.7219431h-6.383874l-17.974986 2.5301184-4.45537 14.7908247-9.685-.111-6.586661-19.2099431h-6.451203l-18.164559 2.6401236-5.025577 16.1548195-9.885-.113-6.167661-18.6819431h-6.211337l-17.489175 2.6401236-4.375575 15.578484 8.073748.1633355-21.008-.24-5.989661-18.1419431h-6.211337l-17.489175 2.6401236-4.245827 15.1138195-12.911-.148z" fill="#000"/></g></svg>