<?xml version="1.0" encoding="utf-8"?>
<!-- Generator: Adobe Illustrator 21.0.0, SVG Export Plug-In . SVG Version: 6.00 Build 0)  -->
<svg version="1.1" id="Layer_1" xmlns="http://www.w3.org/2000/svg" xmlns:xlink="http://www.w3.org/1999/xlink" x="0px" y="0px"
	 viewBox="0 0 610 131.8" style="enable-background:new 0 0 610 131.8;" xml:space="preserve">
<path d="M583.5,127.8V104h7.5c3.1,0,5.5,1.1,7.1,3.1s2.4,5,2.4,9c0,3.9-0.8,6.9-2.4,9c-1.6,2.1-4,3.1-7.1,3.1h-7.5V127.8z
	 M580.4,130.9h11.3c3.7,0,6.7-1.4,8.8-3.9s3.2-6.3,3.2-10.9s-1.1-8.3-3.2-10.9c-2.1-2.5-5-3.9-8.8-3.9h-11.3V130.9z M548.8,104h9.6
	v-2.7h-23.1v2.7h10v26.9h3.2V104H548.8z M500.3,101.3h-3.2v29.6h18.1v-2.7h-15v-26.9H500.3z M433.7,119.1l11.1-17.9H441l-8.8,15.1
	l-9.1-15.1h-3.9l11.4,18v11.6h3.2L433.7,119.1L433.7,119.1z M398.3,115.6h-11.9v2.7h9.2v1.2c0,2.8-1,5.2-2.8,6.9
	c-1.8,1.7-4.2,2.7-7.1,2.7c-1.6,0-3.1-0.3-4.4-0.8c-1.4-0.5-2.5-1.3-3.5-2.4s-1.9-2.6-2.4-4.3c-0.6-1.7-0.9-3.6-0.9-5.5
	c0-3.8,1.1-7,3-9.2s4.7-3.5,8-3.5c2.4,0,4.4,0.6,6,1.7c1.5,1.1,2.6,2.6,3,4.5h3.2c-0.6-2.8-1.9-5-3.9-6.5c-2.1-1.6-4.9-2.5-8.3-2.5
	c-1.8,0-3.5,0.2-4.9,0.7c-1.5,0.5-2.8,1.2-3.9,2.1c-1.7,1.4-3.1,3.3-4,5.4c-0.9,2.2-1.4,4.7-1.4,7.4c0,4.6,1.4,8.4,3.8,11.1
	s5.8,4.3,9.7,4.3c2,0,3.8-0.4,5.4-1.1c1.7-0.8,3.2-2,4.6-3.6l0.5-0.5l1,4.4h1.8v-15.2H398.3z M335.7,103.5c3.4,0,6.2,1.3,8.1,3.6
	c1.9,2.3,3,5.5,3,9.4c0,3.7-1.1,6.9-3.1,9.1s-4.7,3.5-8.1,3.5c-3.3,0-6.1-1.3-8.1-3.5c-1.9-2.2-3-5.4-3-9.3c0-3.8,1.1-7,3-9.3
	C329.6,104.8,332.4,103.5,335.7,103.5z M335.7,100.8c-4.2,0-7.8,1.6-10.3,4.3c-2.5,2.7-3.9,6.6-3.9,11.2c0,4.7,1.4,8.5,3.9,11.3
	c2.5,2.7,6.1,4.3,10.3,4.3c1.8,0,3.5-0.3,5-0.8s2.9-1.3,4.1-2.3c1.6-1.4,2.9-3.2,3.7-5.2c0.9-2.1,1.4-4.5,1.4-6.9
	c0-4.8-1.4-8.7-3.9-11.5C343.6,102.3,340.1,100.8,335.7,100.8z M285.2,101.3H282v29.6h18.1v-2.7h-15v-26.9H285.2z M245.1,103.5
	c3.4,0,6.2,1.3,8.1,3.6c1.9,2.3,3,5.5,3,9.4c0,3.7-1.1,6.9-3.1,9.1s-4.7,3.5-8,3.5s-6.1-1.3-8.1-3.5c-1.9-2.2-3-5.4-3-9.3
	c0-3.8,1.1-7,3-9.3C239,104.8,241.8,103.5,245.1,103.5z M245.1,100.8c-4.2,0-7.8,1.6-10.3,4.3c-2.5,2.7-3.9,6.6-3.9,11.2
	c0,4.7,1.4,8.5,3.9,11.3c2.5,2.7,6.1,4.3,10.3,4.3c1.8,0,3.5-0.3,5-0.8s2.9-1.3,4.1-2.3c1.6-1.4,2.9-3.2,3.7-5.2
	c0.9-2.1,1.4-4.5,1.4-6.9c0-4.8-1.4-8.7-3.9-11.5C253,102.3,249.4,100.8,245.1,100.8z M207.5,101.3h-2.9v25.6l-16.4-25.6h-3.6v29.6
	h3v-25.4l16.2,25.4h3.8v-29.6H207.5z M155.7,117.4v13.4h3.2v-29.6h-3.2v13.1h-16.3v-13.1h-3.2v29.6h3.2V117h16.3V117.4z M112.2,110
	c-0.6-3-1.8-5.3-3.6-6.8c-1.9-1.6-4.4-2.4-7.7-2.4c-2,0-3.8,0.3-5.4,0.9s-2.9,1.5-4,2.7l0,0c-1.3,1.5-2.4,3.2-3.1,5.3
	c-0.7,2-1.1,4.3-1.1,6.7c0,2.4,0.4,4.7,1.1,6.7s1.8,3.8,3.2,5.2c1.1,1.2,2.4,2,3.9,2.6s3.2,0.8,5.1,0.8c3.6,0,6.4-1,8.4-2.9
	c1.9-1.9,3.2-4.7,3.6-8.4h-3.3c-0.2,0.9-0.3,1.7-0.5,2.4c-0.2,0.8-0.5,1.5-0.8,2.1c-0.7,1.3-1.7,2.3-2.9,3c-1.3,0.7-2.8,1.1-4.5,1.1
	c-3.1,0-5.7-1.3-7.5-3.5s-2.7-5.4-2.7-9.2c0-4,0.9-7.2,2.6-9.4c1.7-2.3,4.2-3.5,7.3-3.5c1.3,0,2.5,0.2,3.6,0.5s2,0.8,2.7,1.5
	c0.6,0.6,1.1,1.2,1.4,1.9c0.3,0.7,0.6,1.5,0.8,2.6L112.2,110L112.2,110z M47.9,117.1H64v-2.7H47.5V104h17.1v-2.7H44.4v29.6h21v-2.7
	H47.5v-11.1L47.9,117.1L47.9,117.1z M13.5,104h9.6v-2.7H0v2.7h10v26.9h3.2V104H13.5z M609.9,127.2h-3.6v3.6h3.6V127.2z"/>
<path d="M0.7,76.3h17.1L18.1,49c11.1-0.7,25.2-0.3,36.5-0.1c12.3,0.2,9.1,10.5,9.3,27.4h19.2c0.1-9.9,1.8-22.2-2.8-29
	c-2.2-3.3-3-2.8-5.4-5.2c2.6-4.3,10.2-8.3,7.8-24.7C81.5,8.2,76.3,0.7,67.1,0.2c-10.5-0.5-22.3,0-33,0c-11.1,0-22.3,0-33.4,0
	C-0.1,4.7,0,73.1,0.7,76.3 M182.6,76.2l16.7,0.1c0-9.6,0-19.2,0-28.8c0-12.1,0-15.5,13.3-15.7c13.2-0.2,13.9,3.1,13.9,15.2
	c0,9.7-0.1,19.5,0,29.2l16.8,0.1c0.1-9.8,0-19.5,0-29.3c0-12.2,0.5-15.3,13.7-15.2c13.1,0.1,13.5,3.5,13.5,15.7
	c0,7.3-0.8,22.3,0.2,28.8h16.1c1-5,0.2-22.5,0.2-28.8c0-9,1.5-19.3-4.6-24.5c-7.2-6.1-27.4-5.6-36.7-3.2c-2.5,0.6-10.7,4.2-10.9,4.2
	c-0.6,0-8.1-3.4-10.4-4c-10-2.7-29.4-3.1-36.9,2.7c-6.6,5.1-5.2,13.8-5.2,23.8C182.6,56.4,182.6,66.3,182.6,76.2z M166.6,58.6
	l-18.7-0.1c-1.6,7.1-11.2,7.1-19.3,6.6c-10-0.6-14.4-2.1-14.1-12.7h47.6c4.2,0,5.4,0.8,5.6-3.8c1.2-22.1-4-28.3-27.5-29.7
	c-10.3-0.6-25.1,0-33.2,4.1c-9.4,4.8-9.3,16.4-9.1,29.1c0.2,12.7,1.1,22.5,13,25.1c7.2,1.6,29.1,1.7,36.8,0.6
	C159.4,76.2,166.3,71.2,166.6,58.6z M115.2,41.4c0.5-7.9,8.9-9.1,16.9-9.1c7.2,0,18.1,0.5,16.8,9.2L115.2,41.4z M525,58.7
	c-24.3-0.2-16.1-1.1-20.9,3.4c-3.9,3.8-11.3,3.4-17.1,3c-9.5-0.6-14.8-2.1-14.2-12.7h47.8c4.3,0.1,5.2,0.8,5.4-3.8
	c0.2-4.9,0-13.2-1.4-17.5c-3.2-9.6-14.2-11.4-25.6-12.1c-10.4-0.6-25.6-0.1-33.8,4.2c-9.1,4.8-9.2,16.1-8.9,28.9
	c0.3,12.7,1.2,22.3,12.8,25.1c7.1,1.7,29.1,1.7,36.8,0.7C518.3,76.2,524.2,71.4,525,58.7z M473.6,41.4c0.5-8.1,8.8-9.2,17-9.2
	c7.5,0.1,17.8,0.5,16.6,9.2H473.6z M325.1,19.3c-10.1,0.9-18.3,2-21.4,10.3c-2.4,6.3-2.1,22.9-1.5,30.4c1,10.6,4.9,15.1,14.9,17.1
	c8.6,1.7,21.1,1.6,30,1c10.3-0.7,18.1-2.5,21.1-10.4c2.5-6.5,2.3-22.2,1.7-29.9c-0.8-11.1-4.3-15.4-14.6-17.4
	C346.7,18.6,334.1,18.5,325.1,19.3z M327.8,33c4.6-0.9,10.8-0.9,15.5-0.2c5.4,0.7,7.8,2.4,8.9,7.1c1,4,1,11.1,0.3,15.2
	c-0.8,5.2-2.8,7.2-7.8,8.2c-4.2,0.8-11.7,0.7-16.1,0.2c-5.1-0.6-8.1-2.2-9-7c-0.8-3.8-0.8-11.7-0.2-15.5
	C320.4,35.6,322.6,34,327.8,33z M609.5,58.4h-18.3c-2.7,4.1-2.2,4.8-8.2,5.9c-4,0.8-9.5,0.9-13.7,0.6c-10.9-1-12.7-5.9-12.5-16.8
	c0.1-4.7,0.2-9,3.3-11.5c2.5-2,6.9-3.1,10.9-3.6c5.5-0.7,13.5-0.7,18,2.8c2.2,1.7,1.5,2,2.7,4.6l18.3,0.1
	c1.7-21.2-19.7-21.9-37.8-21.8c-25.6,0.2-31.3,6.7-31.3,28.4c-0.1,26.6,1.7,30.5,28.3,31.2C588.2,78.8,608.7,79.6,609.5,58.4z
	 M394,10.6l-0.1,10.8l-9.2,0.2V36l9.3,0.2c0,8.7-0.9,24.5,1.1,32c2.6,9.7,14.8,10.3,23.5,10.3c13.7,0,22.9-4.7,22.9-18.9v-6.5h-16
	c-0.1,3.7,0.2,7.4-3.2,8.8c-3.2,1.3-8.1,0.9-9.4-1.5c-1.3-2.3-0.6-20.1-0.6-24.1l27.3-0.2V21.7l-27.3-0.1l-0.1-12.8L394,8.5V10.6z
	 M18.1,15.4c8.6-0.6,19.2-0.1,28-0.1c10.3,0,18.4-2.2,18.3,9.7c-0.1,11.8-8.2,9.3-18.3,9.3c-9.1,0-18.7,0.3-28,0L18.1,15.4z"/>
</svg>
