<?xml version="1.0" encoding="utf-8"?>
<!-- Generator: Adobe Illustrator 21.0.0, SVG Export Plug-In . SVG Version: 6.00 Build 0)  -->
<svg version="1.1" id="Layer_1" xmlns="http://www.w3.org/2000/svg" xmlns:xlink="http://www.w3.org/1999/xlink" x="0px" y="0px"
	 viewBox="0 0 905 572.2" style="enable-background:new 0 0 905 572.2;" xml:space="preserve">
<style type="text/css">
	.fillpulse {
		animation: fillpulse 1s infinite;
	}
	
	@keyframes fillpulse {
		0%, 100% {
			fill: rgba(255,255,255,0.0);
		}
		50% {
			fill: #0074CC;
		}
	}
</style>
<g>
	<path d="M567.4,173.5H337.6c-16.8,0-30.5-13.7-30.5-30.5v-22.8c0-16.8,13.7-30.5,30.5-30.5h229.8c16.8,0,30.5,13.7,30.5,30.5V143
		C597.9,159.8,584.2,173.5,567.4,173.5z M337.6,94c-14.5,0-26.2,11.8-26.2,26.2V143c0,14.5,11.8,26.2,26.2,26.2h229.8
		c14.5,0,26.2-11.8,26.2-26.2v-22.8c0-14.5-11.8-26.2-26.2-26.2H337.6z"/>
</g>
<g>
	<path d="M567.4,149.7H337.6c-3.7,0-6.7-3-6.7-6.7v-22.8c0-3.7,3-6.7,6.7-6.7h229.8c3.7,0,6.7,3,6.7,6.7V143
		C574.1,146.7,571.1,149.7,567.4,149.7z M337.6,115.6c-2.5,0-4.6,2.1-4.6,4.6V143c0,2.5,2.1,4.6,4.6,4.6h229.8
		c2.5,0,4.6-2.1,4.6-4.6v-22.8c0-2.5-2.1-4.6-4.6-4.6H337.6z"/>
</g>
<g>
	<path d="M719.5,440H504.1c-3.8,0-7-3.1-7-7v-40.4c0-13.6,11.1-24.7,24.7-24.7h180c13.6,0,24.7,11.1,24.7,24.7V433
		C726.5,436.8,723.3,440,719.5,440z M521.8,370.1c-12.4,0-22.5,10.1-22.5,22.5V433c0,2.7,2.2,4.8,4.8,4.8h215.4
		c2.7,0,4.8-2.2,4.8-4.8v-40.4c0-12.4-10.1-22.5-22.5-22.5H521.8z"/>
</g>
<g>
	<path d="M628.9,415.5h-34.2c-4,0-7.2-3.2-7.2-7.2v-18.8c0-4,3.2-7.2,7.2-7.2h34.2c4,0,7.2,3.2,7.2,7.2v18.8
		C636.1,412.3,632.9,415.5,628.9,415.5z M594.7,386.5c-1.6,0-3,1.3-3,3v18.8c0,1.6,1.3,3,3,3h34.2c1.6,0,3-1.3,3-3v-18.8
		c0-1.6-1.3-3-3-3H594.7z"/>
</g>
<g>
	<path d="M555,415.5h-34.2c-4,0-7.2-3.2-7.2-7.2v-18.8c0-4,3.2-7.2,7.2-7.2H555c4,0,7.2,3.2,7.2,7.2v18.8
		C562.2,412.3,559,415.5,555,415.5z M520.8,386.5c-1.6,0-3,1.3-3,3v18.8c0,1.6,1.3,3,3,3H555c1.6,0,3-1.3,3-3v-18.8c0-1.6-1.3-3-3-3
		H520.8z"/>
</g>
<g>
	<path class="fillpulse" d="M704.4,389.5c0-0.9-0.7-1.6-1.6-1.6h-34.2c-0.9,0-1.6,0.7-1.6,1.6v18.8c0,0.9,0.7,1.6,1.6,1.6h34.2
		c0.9,0,1.6-0.7,1.6-1.6V389.5z"/>
</g>
<g>
	<g>
		<path d="M702.8,415.5h-34.2c-4,0-7.2-3.2-7.2-7.2v-18.8c0-4,3.2-7.2,7.2-7.2h34.2c4,0,7.2,3.2,7.2,7.2v18.8
			C710,412.3,706.7,415.5,702.8,415.5z M668.6,386.5c-1.6,0-3,1.4-3,3v18.8c0,1.6,1.4,3,3,3h34.2c1.6,0,3-1.3,3-3v-18.8
			c0-1.6-1.3-3-3-3H668.6z"/>
	</g>
</g>
<g>
	<path d="M844.4,0H60.6C27.2,0,0,27.2,0,60.6v451.1c0,33.4,27.2,60.6,60.6,60.6h783.9c33.4,0,60.6-27.2,60.6-60.6V60.6
		C905,27.2,877.8,0,844.4,0z M844.4,563.7h-1.9V373c0-13.1-10.6-23.7-23.7-23.7H89c-13.1,0-23.7,10.7-23.7,23.7v190.7h-4.7
		c-28.7,0-52.1-23.4-52.1-52.1V60.6c0-28.7,23.4-52.1,52.1-52.1h783.9c28.7,0,52.1,23.4,52.1,52.1v451.1
		C896.5,540.4,873.2,563.7,844.4,563.7z M67.4,563.7V373c0-11.9,9.7-21.6,21.6-21.6h729.8c11.9,0,21.6,9.7,21.6,21.6v190.7H67.4z"/>
	<path d="M83.1,544.9h741.6V443H83.1V544.9z M85.2,445.1h737.4v97.6H85.2V445.1z"/>
</g>
<g>
	<path d="M546.2,420.1l-3.6,12.6h-1.7l-2.6-9.2c-0.1-0.4-0.2-0.8-0.2-1.3h0c0,0.4-0.1,0.9-0.2,1.3l-2.6,9.2h-1.7l-3.7-12.6h1.6
		l2.7,9.7c0.1,0.4,0.2,0.8,0.2,1.3h0c0-0.3,0.1-0.7,0.3-1.3l2.8-9.7h1.4l2.7,9.7c0.1,0.3,0.2,0.7,0.2,1.2h0c0-0.3,0.1-0.7,0.2-1.2
		l2.6-9.7H546.2z"/>
</g>
<g>
	<path d="M609.5,421.5v4.6h2c0.4,0,0.7-0.1,1-0.2c0.3-0.1,0.6-0.3,0.8-0.5c0.2-0.2,0.4-0.5,0.5-0.8c0.1-0.3,0.2-0.6,0.2-1
		c0-0.7-0.2-1.2-0.7-1.6c-0.4-0.4-1.1-0.6-1.9-0.6H609.5z M617.1,432.7h-1.8l-2.1-3.5c-0.2-0.3-0.4-0.6-0.6-0.8
		c-0.2-0.2-0.4-0.4-0.6-0.6c-0.2-0.1-0.4-0.3-0.6-0.3c-0.2-0.1-0.5-0.1-0.7-0.1h-1.2v5.4h-1.5v-12.6h3.8c0.5,0,1.1,0.1,1.5,0.2
		c0.5,0.1,0.9,0.3,1.2,0.6c0.3,0.3,0.6,0.6,0.8,1c0.2,0.4,0.3,0.9,0.3,1.5c0,0.4-0.1,0.8-0.2,1.2c-0.1,0.4-0.3,0.7-0.6,1
		c-0.2,0.3-0.5,0.5-0.9,0.7c-0.3,0.2-0.7,0.4-1.2,0.5v0c0.2,0.1,0.4,0.2,0.6,0.3c0.2,0.1,0.3,0.3,0.4,0.4c0.1,0.2,0.3,0.3,0.4,0.6
		c0.1,0.2,0.3,0.4,0.5,0.7L617.1,432.7z"/>
</g>
<g>
	<polygon points="689.9,432.7 683.3,432.7 683.3,420.1 684.8,420.1 684.8,431.4 689.9,431.4 	"/>
</g>
</svg>
