<?xml version="1.0" encoding="utf-8"?>
<!-- Generator: Adobe Illustrator 21.0.0, SVG Export Plug-In . SVG Version: 6.00 Build 0)  -->
<svg version="1.1" id="Layer_1" xmlns="http://www.w3.org/2000/svg" xmlns:xlink="http://www.w3.org/1999/xlink" x="0px" y="0px"
	 viewBox="0 0 907.8 575.1" style="enable-background:new 0 0 907.8 575.1;" xml:space="preserve">
<style type="text/css">
	.st0{fill-rule:evenodd;clip-rule:evenodd;}
	.st1{fill:#0074CC;}
</style>
<g>
	<path d="M845.9,0H62C27.8,0,0,27.8,0,62v451.1c0,34.2,27.8,62,62,62h783.9c34.2,0,62-27.8,62-62V62C907.8,27.8,880,0,845.9,0z
		 M896.5,513.1c0,27.9-22.7,50.6-50.6,50.6H62c-27.9,0-50.6-22.7-50.6-50.6V62c0-27.9,22.7-50.6,50.6-50.6h783.9
		c27.9,0,50.6,22.7,50.6,50.6V513.1z"/>
	<path d="M732.1,107.7H175.7c-37.5,0-68,30.5-68,68v223.6c0,37.5,30.5,68,68,68h556.4c37.5,0,68-30.5,68-68V175.7
		C800.1,138.2,769.6,107.7,732.1,107.7z M794.5,399.3c0,34.4-28,62.4-62.4,62.4H175.7c-34.4,0-62.4-28-62.4-62.4V175.7
		c0-34.4,28-62.4,62.4-62.4h556.4c34.4,0,62.4,28,62.4,62.4V399.3z"/>
	<path d="M732.1,130.4H175.7c-25,0-45.4,20.3-45.4,45.4v223.6c0,25,20.3,45.4,45.4,45.4h556.4c25,0,45.4-20.3,45.4-45.4V175.7
		C777.5,150.7,757.1,130.4,732.1,130.4z M451.1,284.7H296.4V136.1h154.7V284.7z M451.1,290.4V439H296.4V290.4H451.1z M456.8,290.4
		h154.7V439H456.8V290.4z M456.8,284.7V136.1h154.7v148.6H456.8z M175.7,136.1h115v148.6H136.1V175.7
		C136.1,153.9,153.9,136.1,175.7,136.1z M136.1,399.3V290.4h154.7V439h-115C153.9,439,136.1,421.2,136.1,399.3z M732.1,439h-115
		V290.4h154.7v108.9C771.8,421.2,754,439,732.1,439z M771.8,284.7H617.1V136.1h115c21.9,0,39.7,17.8,39.7,39.7V284.7z"/>
</g>
<g>
	<circle class="st0" cx="212.4" cy="210.4" r="7"/>
</g>
<g>
	<path d="M212.4,217.6c-4,0-7.3-3.3-7.3-7.3s3.3-7.3,7.3-7.3s7.3,3.3,7.3,7.3S216.4,217.6,212.4,217.6z M212.4,203.7
		c-3.7,0-6.7,3-6.7,6.7s3,6.7,6.7,6.7s6.7-3,6.7-6.7S216.1,203.7,212.4,203.7z"/>
</g>
<g>
	<circle class="st0" cx="354.1" cy="210.4" r="7"/>
</g>
<g>
	<path d="M354.1,217.6c-4,0-7.3-3.3-7.3-7.3s3.3-7.3,7.3-7.3s7.3,3.3,7.3,7.3S358.1,217.6,354.1,217.6z M354.1,203.7
		c-3.7,0-6.7,3-6.7,6.7s3,6.7,6.7,6.7s6.7-3,6.7-6.7S357.8,203.7,354.1,203.7z"/>
</g>
<g>
	<circle class="st0" cx="393.5" cy="210.4" r="7"/>
</g>
<g>
	<path d="M393.5,217.6c-4,0-7.3-3.3-7.3-7.3s3.3-7.3,7.3-7.3c4,0,7.3,3.3,7.3,7.3S397.5,217.6,393.5,217.6z M393.5,203.7
		c-3.7,0-6.7,3-6.7,6.7s3,6.7,6.7,6.7c3.7,0,6.7-3,6.7-6.7S397.2,203.7,393.5,203.7z"/>
</g>
<g>
	<circle class="st0" cx="674.8" cy="229.6" r="7"/>
</g>
<g>
	<path d="M674.8,236.9c-4,0-7.3-3.3-7.3-7.3s3.3-7.3,7.3-7.3s7.3,3.3,7.3,7.3S678.8,236.9,674.8,236.9z M674.8,222.9
		c-3.7,0-6.7,3-6.7,6.7s3,6.7,6.7,6.7s6.7-3,6.7-6.7S678.5,222.9,674.8,222.9z"/>
</g>
<g>
	<circle class="st0" cx="714.2" cy="229.6" r="7"/>
</g>
<g>
	<path d="M714.2,236.9c-4,0-7.3-3.3-7.3-7.3s3.3-7.3,7.3-7.3s7.3,3.3,7.3,7.3S718.2,236.9,714.2,236.9z M714.2,222.9
		c-3.7,0-6.7,3-6.7,6.7s3,6.7,6.7,6.7s6.7-3,6.7-6.7S717.9,222.9,714.2,222.9z"/>
</g>
<g>
	<circle class="st0" cx="674.8" cy="193.3" r="7"/>
</g>
<g>
	<path d="M674.8,200.6c-4,0-7.3-3.3-7.3-7.3s3.3-7.3,7.3-7.3s7.3,3.3,7.3,7.3S678.8,200.6,674.8,200.6z M674.8,186.6
		c-3.7,0-6.7,3-6.7,6.7s3,6.7,6.7,6.7s6.7-3,6.7-6.7S678.5,186.6,674.8,186.6z"/>
</g>
<g>
	<circle class="st0" cx="714.2" cy="193.3" r="7"/>
</g>
<g>
	<path d="M714.2,200.6c-4,0-7.3-3.3-7.3-7.3s3.3-7.3,7.3-7.3s7.3,3.3,7.3,7.3S718.2,200.6,714.2,200.6z M714.2,186.6
		c-3.7,0-6.7,3-6.7,6.7s3,6.7,6.7,6.7s6.7-3,6.7-6.7S717.9,186.6,714.2,186.6z"/>
</g>
<g>
	<circle class="st0" cx="514.4" cy="228.7" r="7"/>
</g>
<g>
	<path d="M514.4,235.9c-4,0-7.3-3.3-7.3-7.3s3.3-7.3,7.3-7.3c4,0,7.3,3.3,7.3,7.3S518.4,235.9,514.4,235.9z M514.4,222
		c-3.7,0-6.7,3-6.7,6.7s3,6.7,6.7,6.7c3.7,0,6.7-3,6.7-6.7S518.1,222,514.4,222z"/>
</g>
<g>
	<circle class="st0" cx="553.8" cy="228.7" r="7"/>
</g>
<g>
	<path d="M553.8,235.9c-4,0-7.3-3.3-7.3-7.3s3.3-7.3,7.3-7.3s7.3,3.3,7.3,7.3S557.8,235.9,553.8,235.9z M553.8,222
		c-3.7,0-6.7,3-6.7,6.7s3,6.7,6.7,6.7s6.7-3,6.7-6.7S557.5,222,553.8,222z"/>
</g>
<g>
	<circle class="st0" cx="534.1" cy="193.3" r="7"/>
</g>
<g>
	<path d="M534.1,200.6c-4,0-7.3-3.3-7.3-7.3s3.3-7.3,7.3-7.3s7.3,3.3,7.3,7.3S538.1,200.6,534.1,200.6z M534.1,186.6
		c-3.7,0-6.7,3-6.7,6.7s3,6.7,6.7,6.7s6.7-3,6.7-6.7S537.8,186.6,534.1,186.6z"/>
</g>
<g>
	<circle class="st0" cx="354.1" cy="389.7" r="7"/>
</g>
<g>
	<path d="M354.1,396.9c-4,0-7.3-3.3-7.3-7.3s3.3-7.3,7.3-7.3s7.3,3.3,7.3,7.3S358.1,396.9,354.1,396.9z M354.1,383
		c-3.7,0-6.7,3-6.7,6.7s3,6.7,6.7,6.7s6.7-3,6.7-6.7S357.8,383,354.1,383z"/>
</g>
<g>
	<circle class="st0" cx="393.5" cy="389.7" r="7"/>
</g>
<g>
	<path d="M393.5,396.9c-4,0-7.3-3.3-7.3-7.3s3.3-7.3,7.3-7.3c4,0,7.3,3.3,7.3,7.3S397.5,396.9,393.5,396.9z M393.5,383
		c-3.7,0-6.7,3-6.7,6.7s3,6.7,6.7,6.7c3.7,0,6.7-3,6.7-6.7S397.2,383,393.5,383z"/>
</g>
<g>
	<circle class="st0" cx="393.5" cy="364.8" r="7"/>
</g>
<g>
	<path d="M393.5,372.1c-4,0-7.3-3.3-7.3-7.3s3.3-7.3,7.3-7.3c4,0,7.3,3.3,7.3,7.3S397.5,372.1,393.5,372.1z M393.5,358.1
		c-3.7,0-6.7,3-6.7,6.7s3,6.7,6.7,6.7c3.7,0,6.7-3,6.7-6.7S397.2,358.1,393.5,358.1z"/>
</g>
<g>
	<circle class="st0" cx="213.4" cy="364.7" r="7"/>
</g>
<g>
	<path d="M213.4,371.9c-4,0-7.3-3.3-7.3-7.3c0-4,3.3-7.3,7.3-7.3c4,0,7.3,3.3,7.3,7.3C220.7,368.7,217.4,371.9,213.4,371.9z
		 M213.4,358c-3.7,0-6.7,3-6.7,6.7c0,3.7,3,6.7,6.7,6.7c3.7,0,6.7-3,6.7-6.7C220.1,361,217.1,358,213.4,358z"/>
</g>
<g>
	<circle class="st0" cx="193.7" cy="383" r="7"/>
</g>
<g>
	<path d="M193.7,390.2c-4,0-7.3-3.3-7.3-7.3c0-4,3.3-7.3,7.3-7.3s7.3,3.3,7.3,7.3C201,387,197.7,390.2,193.7,390.2z M193.7,376.3
		c-3.7,0-6.7,3-6.7,6.7c0,3.7,3,6.7,6.7,6.7s6.7-3,6.7-6.7C200.4,379.3,197.4,376.3,193.7,376.3z"/>
</g>
<g>
	<circle class="st0" cx="233.1" cy="383" r="7"/>
</g>
<g>
	<path d="M233.1,390.2c-4,0-7.3-3.3-7.3-7.3c0-4,3.3-7.3,7.3-7.3c4,0,7.3,3.3,7.3,7.3C240.4,387,237.1,390.2,233.1,390.2z
		 M233.1,376.3c-3.7,0-6.7,3-6.7,6.7c0,3.7,3,6.7,6.7,6.7c3.7,0,6.7-3,6.7-6.7C239.8,379.3,236.8,376.3,233.1,376.3z"/>
</g>
<g>
	<circle class="st0" cx="193.7" cy="346.7" r="7"/>
</g>
<g>
	<path d="M193.7,353.9c-4,0-7.3-3.3-7.3-7.3c0-4,3.3-7.3,7.3-7.3s7.3,3.3,7.3,7.3C201,350.7,197.7,353.9,193.7,353.9z M193.7,340
		c-3.7,0-6.7,3-6.7,6.7c0,3.7,3,6.7,6.7,6.7s6.7-3,6.7-6.7C200.4,343,197.4,340,193.7,340z"/>
</g>
<g>
	<circle class="st0" cx="233.1" cy="346.7" r="7"/>
</g>
<g>
	<path d="M233.1,353.9c-4,0-7.3-3.3-7.3-7.3c0-4,3.3-7.3,7.3-7.3c4,0,7.3,3.3,7.3,7.3C240.4,350.7,237.1,353.9,233.1,353.9z
		 M233.1,340c-3.7,0-6.7,3-6.7,6.7c0,3.7,3,6.7,6.7,6.7c3.7,0,6.7-3,6.7-6.7C239.8,343,236.8,340,233.1,340z"/>
</g>
<g>
	<circle class="st0" cx="354.1" cy="364.8" r="7"/>
</g>
<g>
	<path d="M354.1,372.1c-4,0-7.3-3.3-7.3-7.3s3.3-7.3,7.3-7.3s7.3,3.3,7.3,7.3S358.1,372.1,354.1,372.1z M354.1,358.1
		c-3.7,0-6.7,3-6.7,6.7s3,6.7,6.7,6.7s6.7-3,6.7-6.7S357.8,358.1,354.1,358.1z"/>
</g>
<g>
	<circle class="st0" cx="354.1" cy="339.9" r="7"/>
</g>
<g>
	<path d="M354.1,347.2c-4,0-7.3-3.3-7.3-7.3s3.3-7.3,7.3-7.3s7.3,3.3,7.3,7.3S358.1,347.2,354.1,347.2z M354.1,333.2
		c-3.7,0-6.7,3-6.7,6.7s3,6.7,6.7,6.7s6.7-3,6.7-6.7S357.8,333.2,354.1,333.2z"/>
</g>
<g>
	<circle class="st0" cx="393.5" cy="339.9" r="7"/>
</g>
<g>
	<path d="M393.5,347.2c-4,0-7.3-3.3-7.3-7.3s3.3-7.3,7.3-7.3c4,0,7.3,3.3,7.3,7.3S397.5,347.2,393.5,347.2z M393.5,333.2
		c-3.7,0-6.7,3-6.7,6.7s3,6.7,6.7,6.7c3.7,0,6.7-3,6.7-6.7S397.2,333.2,393.5,333.2z"/>
</g>
<g>
	<circle class="st0" cx="534.1" cy="364.7" r="7"/>
</g>
<g>
	<path d="M534.1,371.9c-4,0-7.3-3.3-7.3-7.3c0-4,3.3-7.3,7.3-7.3s7.3,3.3,7.3,7.3C541.4,368.7,538.1,371.9,534.1,371.9z M534.1,358
		c-3.7,0-6.7,3-6.7,6.7c0,3.7,3,6.7,6.7,6.7s6.7-3,6.7-6.7C540.8,361,537.8,358,534.1,358z"/>
</g>
<g>
	<ellipse transform="matrix(0.6802 -0.733 0.733 0.6802 -105.1015 488.4541)" class="st0" cx="507.2" cy="364.7" rx="7" ry="7"/>
</g>
<g>
	<path d="M507.2,371.9c-1.8,0-3.5-0.6-4.9-1.9c-2.9-2.7-3.1-7.3-0.4-10.3c1.3-1.4,3.1-2.2,5.1-2.3c1.9-0.1,3.8,0.6,5.2,1.9
		c2.9,2.7,3.1,7.3,0.4,10.3C511.1,371.2,509.2,371.9,507.2,371.9z M507.2,358c-0.1,0-0.2,0-0.3,0c-1.8,0.1-3.4,0.8-4.7,2.1
		c-2.5,2.7-2.4,7,0.4,9.5c2.7,2.5,7,2.4,9.5-0.4c2.5-2.7,2.4-7-0.4-9.5l0,0C510.5,358.6,508.9,358,507.2,358z"/>
</g>
<g>
	<ellipse transform="matrix(0.9556 -0.2947 0.2947 0.9556 -91.2139 170.6957)" class="st0" cx="520.7" cy="387.9" rx="7" ry="7"/>
</g>
<g>
	<path d="M520.7,395.2c-3.1,0-6-2-6.9-5.1c-1.2-3.8,1-7.9,4.8-9.1c3.8-1.2,7.9,1,9.1,4.8c1.2,3.8-1,7.9-4.8,9.1
		C522.1,395.1,521.4,395.2,520.7,395.2z M520.7,381.2c-0.7,0-1.3,0.1-2,0.3c-1.7,0.5-3.1,1.7-3.9,3.3c-0.8,1.6-1,3.4-0.5,5.1
		c0.5,1.7,1.7,3.1,3.3,3.9c1.6,0.8,3.4,1,5.1,0.5c1.7-0.5,3.1-1.7,3.9-3.3c0.8-1.6,1-3.4,0.5-5.1c-0.5-1.7-1.7-3.1-3.3-3.9
		C522.8,381.5,521.7,381.2,520.7,381.2z"/>
</g>
<g>
	<ellipse transform="matrix(0.2225 -0.9749 0.9749 0.2225 47.4687 835.411)" class="st0" cx="547.5" cy="387.9" rx="7" ry="7"/>
</g>
<g>
	<path d="M547.5,395.2c-0.5,0-1.1-0.1-1.6-0.2c-1.9-0.4-3.5-1.6-4.5-3.2c-1-1.6-1.4-3.6-0.9-5.5l0,0c0.4-1.9,1.6-3.5,3.2-4.5
		c1.6-1,3.6-1.4,5.5-0.9c1.9,0.4,3.5,1.6,4.5,3.2c1,1.6,1.4,3.6,0.9,5.5C553.8,392.9,550.8,395.2,547.5,395.2z M547.5,381.2
		c-1.2,0-2.5,0.4-3.6,1c-1.5,1-2.6,2.4-3,4.2l0,0c-0.4,1.7-0.1,3.5,0.9,5.1s2.4,2.6,4.2,3c3.6,0.8,7.2-1.4,8-5
		c0.4-1.7,0.1-3.5-0.9-5.1s-2.4-2.6-4.2-3C548.5,381.3,548,381.2,547.5,381.2z"/>
</g>
<g>
	<ellipse transform="matrix(0.6802 -0.733 0.733 0.6802 -87.9154 527.8461)" class="st0" cx="561" cy="364.7" rx="7" ry="7"/>
</g>
<g>
	<path d="M561,371.9c-1.8,0-3.6-0.7-4.9-1.9l0,0c-2.9-2.7-3.1-7.3-0.4-10.3c2.7-2.9,7.3-3.1,10.3-0.4c2.9,2.7,3.1,7.3,0.4,10.3
		c-1.3,1.4-3.1,2.2-5.1,2.3C561.1,371.9,561,371.9,561,371.9z M561,358c-1.8,0-3.6,0.7-4.9,2.1c-2.5,2.7-2.4,7,0.4,9.5l0,0
		c1.3,1.2,3,1.9,4.8,1.8c1.8-0.1,3.4-0.8,4.7-2.1c2.5-2.7,2.4-7-0.4-9.5C564.2,358.6,562.6,358,561,358z"/>
</g>
<g>
	<ellipse transform="matrix(0.9556 -0.2947 0.2947 0.9556 -76.3057 176.5512)" class="st0" cx="547.5" cy="341.4" rx="7" ry="7"/>
</g>
<g>
	<path d="M547.5,348.7c-1.2,0-2.3-0.3-3.4-0.8c-1.7-0.9-3-2.4-3.5-4.3c-1.2-3.8,1-7.9,4.8-9.1c3.8-1.2,7.9,1,9.1,4.8
		c1.2,3.8-1,7.9-4.8,9.1C549,348.6,548.2,348.7,547.5,348.7z M547.5,334.7c-0.7,0-1.3,0.1-2,0.3c-1.7,0.5-3.1,1.7-3.9,3.3
		c-0.8,1.6-1,3.4-0.5,5.1c0.5,1.7,1.7,3.1,3.3,3.9c1.6,0.8,3.4,1,5.1,0.5c1.7-0.5,3.1-1.7,3.9-3.3c0.8-1.6,1-3.4,0.5-5.1
		c-0.5-1.7-1.7-3.1-3.3-3.9C549.7,335,548.6,334.7,547.5,334.7z"/>
</g>
<g>
	<ellipse transform="matrix(0.2225 -0.9749 0.9749 0.2225 71.9473 773.0381)" class="st0" cx="520.7" cy="341.4" rx="7" ry="7"/>
</g>
<g>
	<path d="M520.7,348.7c-0.5,0-1.1-0.1-1.6-0.2c-1.9-0.4-3.5-1.6-4.5-3.2c-1-1.6-1.4-3.6-0.9-5.5s1.6-3.5,3.2-4.5
		c1.6-1,3.6-1.4,5.5-0.9c3.9,0.9,6.4,4.8,5.5,8.7l0,0c-0.4,1.9-1.6,3.5-3.2,4.5C523.4,348.3,522,348.7,520.7,348.7z M520.6,334.7
		c-1.2,0-2.5,0.4-3.6,1c-1.5,1-2.6,2.4-3,4.2c-0.4,1.7-0.1,3.5,0.9,5.1s2.4,2.6,4.2,3c1.7,0.4,3.5,0.1,5.1-0.9c1.5-1,2.6-2.4,3-4.2
		c0.8-3.6-1.4-7.2-5-8C521.7,334.8,521.2,334.7,520.6,334.7z"/>
</g>
<g>
	<ellipse transform="matrix(0.9556 -0.2947 0.2947 0.9556 -76.0348 224.8462)" class="st0" cx="707.9" cy="364.7" rx="7" ry="7"/>
</g>
<g>
	<path d="M707.9,371.9c-3.1,0-6-2-6.9-5.1c-1.2-3.8,1-7.9,4.8-9.1c3.8-1.2,7.9,1,9.1,4.8c1.2,3.8-1,7.9-4.8,9.1
		C709.3,371.8,708.6,371.9,707.9,371.9z M707.9,358c-0.7,0-1.3,0.1-2,0.3c-1.7,0.5-3.1,1.7-3.9,3.3c-0.8,1.6-1,3.4-0.5,5.1
		c0.5,1.7,1.7,3.1,3.3,3.9c1.6,0.8,3.4,1,5.1,0.5c1.7-0.5,3.1-1.7,3.9-3.3c0.8-1.6,1-3.4,0.5-5.1c-0.5-1.7-1.7-3.1-3.3-3.9
		C710,358.2,709,358,707.9,358z"/>
</g>
<g>
	<ellipse transform="matrix(0.2225 -0.9749 0.9749 0.2225 173.945 947.4401)" class="st0" cx="681" cy="364.7" rx="7" ry="7"/>
</g>
<g>
	<path d="M681,371.9c-0.5,0-1.1-0.1-1.6-0.2c-1.9-0.4-3.5-1.6-4.5-3.2c-1-1.6-1.4-3.6-0.9-5.5s1.6-3.5,3.2-4.5
		c1.6-1,3.6-1.4,5.5-0.9c3.9,0.9,6.4,4.8,5.5,8.7l0,0C687.3,369.6,684.3,371.9,681,371.9z M681,358c-1.2,0-2.5,0.4-3.6,1
		c-1.5,1-2.6,2.4-3,4.2c-0.4,1.7-0.1,3.5,0.9,5.1s2.4,2.6,4.2,3c3.6,0.8,7.2-1.4,8-5c0.8-3.6-1.4-7.2-5-8C682,358,681.5,358,681,358
		z"/>
</g>
<g>
	<circle class="st0" cx="694.4" cy="341.4" r="7"/>
</g>
<g>
	<path d="M694.4,348.7c-4,0-7.3-3.3-7.3-7.3s3.3-7.3,7.3-7.3s7.3,3.3,7.3,7.3S698.5,348.7,694.4,348.7z M694.4,334.7
		c-3.7,0-6.7,3-6.7,6.7s3,6.7,6.7,6.7s6.7-3,6.7-6.7S698.1,334.7,694.4,334.7z"/>
</g>
<g>
	<ellipse transform="matrix(0.6802 -0.733 0.733 0.6802 -36.7604 598.5576)" class="st0" cx="667.6" cy="341.4" rx="7" ry="7"/>
</g>
<g>
	<path d="M667.6,348.7c-1.8,0-3.6-0.7-4.9-1.9c-1.4-1.3-2.2-3.1-2.3-5.1c-0.1-1.9,0.6-3.8,1.9-5.2c2.7-2.9,7.3-3.1,10.3-0.4
		c1.4,1.3,2.2,3.1,2.3,5.1c0.1,1.9-0.6,3.8-1.9,5.2s-3.1,2.2-5.1,2.3C667.8,348.7,667.7,348.7,667.6,348.7z M667.6,334.7
		c-1.8,0-3.6,0.7-4.9,2.1c-1.2,1.3-1.9,3-1.8,4.8c0.1,1.8,0.8,3.4,2.1,4.7s3,1.8,4.8,1.8c1.8-0.1,3.4-0.8,4.7-2.1
		c1.2-1.3,1.9-3,1.8-4.8c-0.1-1.8-0.8-3.4-2.1-4.7C670.8,335.3,669.2,334.7,667.6,334.7z"/>
</g>
<g>
	<ellipse transform="matrix(0.6802 -0.733 0.733 0.6802 -19.5762 637.9435)" class="st0" cx="721.3" cy="341.4" rx="7" ry="7"/>
</g>
<g>
	<path d="M721.3,348.7c-1.8,0-3.5-0.6-4.9-1.9c-2.9-2.7-3.1-7.3-0.4-10.3c2.7-2.9,7.3-3.1,10.3-0.4c1.4,1.3,2.2,3.1,2.3,5.1
		c0.1,1.9-0.6,3.8-1.9,5.2C725.2,347.9,723.3,348.7,721.3,348.7z M721.3,334.7c-1.8,0-3.6,0.7-4.9,2.1c-2.5,2.7-2.4,7,0.4,9.5
		s7,2.4,9.5-0.4c1.2-1.3,1.9-3,1.8-4.8c-0.1-1.8-0.8-3.4-2.1-4.7C724.6,335.3,722.9,334.7,721.3,334.7z"/>
</g>
<g>
	<circle class="st0" cx="694.4" cy="387.9" r="7"/>
</g>
<g>
	<path d="M694.4,395.2c-4,0-7.3-3.3-7.3-7.3s3.3-7.3,7.3-7.3s7.3,3.3,7.3,7.3S698.5,395.2,694.4,395.2z M694.4,381.2
		c-3.7,0-6.7,3-6.7,6.7s3,6.7,6.7,6.7s6.7-3,6.7-6.7S698.1,381.2,694.4,381.2z"/>
</g>
<g>
	<ellipse transform="matrix(0.6802 -0.733 0.733 0.6802 -70.8749 613.4415)" class="st0" cx="667.6" cy="387.9" rx="7" ry="7"/>
</g>
<g>
	<path d="M667.6,395.2c-1.8,0-3.6-0.7-4.9-1.9c-2.9-2.7-3.1-7.3-0.4-10.3c2.7-2.9,7.3-3.1,10.3-0.4c1.4,1.3,2.2,3.1,2.3,5.1
		c0.1,1.9-0.6,3.8-1.9,5.2s-3.1,2.2-5.1,2.3C667.8,395.2,667.7,395.2,667.6,395.2z M667.6,381.2c-1.8,0-3.6,0.7-4.9,2.1
		c-2.5,2.7-2.4,7,0.4,9.5c1.3,1.2,3,1.8,4.8,1.8c1.8-0.1,3.4-0.8,4.7-2.1c1.2-1.3,1.9-3,1.8-4.8c-0.1-1.8-0.8-3.4-2.1-4.7
		C670.8,381.8,669.2,381.2,667.6,381.2z"/>
</g>
<g>
	<ellipse transform="matrix(0.6802 -0.733 0.733 0.6802 -53.6908 652.8267)" class="st0" cx="721.3" cy="387.9" rx="7" ry="7"/>
</g>
<g>
	<path d="M721.3,395.2c-1.8,0-3.5-0.6-4.9-1.9l0,0c-2.9-2.7-3.1-7.3-0.4-10.3c2.7-2.9,7.3-3.1,10.3-0.4c1.4,1.3,2.2,3.1,2.3,5.1
		c0.1,1.9-0.6,3.8-1.9,5.2C725.2,394.4,723.3,395.2,721.3,395.2z M716.8,392.9c2.7,2.5,7,2.4,9.5-0.4c1.2-1.3,1.9-3,1.8-4.8
		c-0.1-1.8-0.8-3.4-2.1-4.7c-2.7-2.5-7-2.4-9.5,0.4C713.9,386.1,714,390.3,716.8,392.9L716.8,392.9z"/>
</g>
<g>
	<path class="st0" d="M76.1,73.5L76.1,73.5c3.2-3.2,8.5-3.2,11.8,0l10.4,10.4c3.2,3.2,3.2,8.5,0,11.8h0c-3.2,3.2-8.5,3.2-11.8,0
		L76.1,85.3C72.8,82,72.8,76.7,76.1,73.5z"/>
</g>
<g>
	<path d="M92.3,98.3c-2.3,0-4.5-0.9-6.1-2.5L75.9,85.5c-1.6-1.6-2.5-3.8-2.5-6.1c0-2.3,0.9-4.5,2.5-6.1c3.4-3.4,8.8-3.4,12.2,0
		l10.4,10.4c3.4,3.4,3.4,8.8,0,12.2C96.8,97.4,94.6,98.3,92.3,98.3z M82,71.4c-2.1,0-4.1,0.8-5.7,2.3v0c-1.5,1.5-2.3,3.5-2.3,5.7
		c0,2.2,0.8,4.2,2.3,5.7l10.4,10.4c1.5,1.5,3.5,2.3,5.7,2.3s4.2-0.8,5.7-2.3c3.1-3.1,3.1-8.2,0-11.4L87.6,73.7
		C86.1,72.1,84,71.4,82,71.4z"/>
</g>
</svg>
