<svg height="960" viewBox="0 0 960 960" width="960" xmlns="http://www.w3.org/2000/svg"><path d="m436.849235 131.916451c2.917359 0 5.825715.323436 8.671711.964373l108.603189 24.458182c1.149496.258874 2.28681.569092 3.408519.929721l309.185647 99.402839c19.248788 6.188463 30.698767 25.920812 26.513099 45.691412l-24.640535 116.3872 13.041538 3.49137c1.141886.265605 2.274173.568701 3.39491.909113l.106788.028714c.178972.048124.357298.097386.5209.171056.307372.090296.611894.189491.915518.291374 2.583471.752478 5.000389 1.780699 7.241731 3.038074 10.00262 5.052774 18.276351 13.128929 23.562199 23.23123l12.200186 23.313856c20.73359 21.444756 30.668796 52.018359 30.068107 85.962063-.596456 33.704489-11.57875 69.796554-31.327642 102.644835-10.449567 17.380738-22.863287 33.049796-36.696273 46.379631l-15.813686 24.072227c-7.07313 10.767675-17.943775 18.478818-30.448333 21.598667l-62.657744 15.632918c-10.134795 2.528601-20.671509 2.058629-30.378677-1.248982-3.107286-.840749-6.157086-2.127486-9.088396-3.837021l-170.774389-99.59529c-4.357817-2.54147-8.17415-5.886981-11.2505-9.846715-4.849834.390427-9.931622.586702-15.167941.586702-2.33789 0-4.669099-.042918-6.981524-.137805-7.690421 9.118977-16.791348 17.948105-26.531835 25.858671-19.579659 15.901277-39.946518 26.929097-59.372225 29.605427-.183748.025315-.367672.049335-.551758.072057l-.847028.104552c-.188544.023273-.377254.045184-.566115.065732-13.810778 1.502606-36.447786 3.461556-68.135532 5.898849-3.333428 9.573219-9.032751 18.260464-16.693106 25.194765l-76.073966 68.863626c-11.245003 10.179194-25.875094 15.816577-41.047058 15.816577h-105.987147c-15.113622 0-29.69171-5.594203-40.921504-15.703238l-78.4992405-70.664843c-12.3159189-11.086763-19.60034847-26.695677-20.1845419-43.250989l-3.55843654-100.841643c-.03231481-.915761-.04399197-1.831042-.02931883-2.744807-1.19783117-8.374408.31148727-17.299973 5.2105941-25.525676l50.46079997-84.724737c2.780113-4.667867 6.1259131-8.975064 9.9610671-12.823464l19.2239546-19.291041.0000814-78.375445c0-68.554859 53.6084606-125.15773 122.0999666-128.920533l6.222091-.341898 1.962396-44.092143c.702365-15.781121 10.762252-29.619602 25.562653-35.164244l82.820717-31.026942c4.427655-1.658723 9.11764-2.508357 13.846144-2.508357zm-187.826906 369.876545h-112.05812c-5.555806 0-10.899916 2.130071-14.930888 5.951196l-75.7700197 71.825547c-2.7494181 2.606287-4.736396 5.854707-5.8197459 9.400305l-.1271343.428407-.002.007-.1263117.470558-.1259293.512522-.001759.00392-.003.013-.0249519.112482-.0030481.013518-.0291261.130895-.0178739.081105.047-.212-.08.367-.0144796.072768-.0936614.487628-.0879242.524723-.0823629.58394-.066535.586993-.0252544.27093-.0177825.213018-.006.077-.0082816.125323-.0017184.009677-.002.034-.0011165.029773-.0008835.005227-.0131647.234702c-.0055406.104567-.0103266.209238-.0143548.314007l-.0004805.008291-.001.009-.0050079.173299-.0019921.051701.001-.008-.002.069-.0018264.078317-.0011736.052683-.002.17.0007852-.087764-.0014507.123577-.0003345.078187-.001.074.001-.029-.001.08.001.122-.001-.028.001.061.001.118v.022l.001.037.0009115.043478.0010885.061522.005.205.0039781.112785 3.5584365 100.841644c.2072944 5.874465 2.792092 11.413112 7.1622568 15.347125l78.4992405 70.664842c3.984766 3.587077 9.157636 5.572117 14.520534 5.572117h105.987147c5.3836 0 10.574923-2.000361 14.565085-5.612334l76.073966-68.863626c4.356896-3.943946 6.926029-9.485955 7.119439-15.357709l.177917-5.405844.398736-12.084864 2.71333-82.390291.01112-.547055-.000186-.23079-.002-.177-.002-.151.002.079-.002-.102v-.001l-.003667-.191597-.008333-.210403-.006-.151v-.003l-.003-.058-.007-.149-.001-.016-.000157-.019045.005656.105465c-.02067-.403829-.052595-.806101-.095597-1.206388l-.011537-.104981-.007365-.059051.002.022-.015179-.139265.008179.069265-.037909-.304775c-.013462-.102128-.027646-.204114-.042549-.30595l-.030542-.199275.006.045-.007-.046-.027-.171-.011-.069-.019889-.119563-.014111-.075437-.018888-.110278-.052112-.273722-.093925-.456477c-.926534-4.251409-3.122069-8.169705-6.357957-11.202559l-79.580635-74.587408c-4.021599-3.769267-9.32819-5.867011-14.841575-5.867011zm-20.066189 33.788833c67.36261 19.304548 107.863947 85.328313 89.942787 147.789946s-87.276163 97.003187-154.638788 77.698691c-67.3626101-19.304548-107.8639465-85.328313-89.9427867-147.789946 17.9211597-62.461633 87.2761627-97.003187 154.6387877-77.698691zm-135.6789757 83.132122c-14.8068747 51.607239 19.1747787 107.00286 76.4196137 123.407891 57.244847 16.404985 115.435462-12.576258 130.242337-64.183497 14.806874-51.607239-19.174779-107.00286-76.419614-123.407891-57.244847-16.404986-115.435462 12.576258-130.2423367 64.183497zm773.7202767-157.283571-28.953912 4.580415c-1.129186 2.325267-2.711896 4.420253-4.671815 6.154003l-86.719351 76.712171c-1.830663 1.619409-3.933721 2.873534-6.195428 3.714473l-.246312.345622-4.84048 6.82818c-1.436156 2.0259-2.33867 4.380649-2.624279 6.847003l-11.723093 101.233882c-.4158 3.590615.498991 7.209065 2.571451 10.171357l33.843791 48.374961c1.430999 2.045413 3.315839 3.645163 5.449365 4.722546l.278604.137045c.217524.103995.437493.202659.659695.295911.041216.017813.082841.035086.124543.052168l-.124543-.052168c.730681.306646 1.485507.554764 2.256973.741447.005354.002465.011019.003833.016686.005197l-.016686-.005197c.617432.149408 1.245522.259464 1.880423.328676.035499.004865.071172.008616.106865.012237l-.106865-.012237c.664576.072447 1.336614.100142 2.0117.081375.119747-.003329.23959-.00812.359504-.014382l-.355471.014788c.144007-.004079.288152-.010273.432392-.018596l-.076921.003808c.136988-.007154.274069-.016228.411207-.027237l-.334286.023429c.120585-.006958.241236-.015405.361929-.02535l-.027643.001921c.137066-.011003.274189-.023938.411332-.03882l-.383689.036899c.146268-.012052.292596-.026305.438942-.042773l-.055253.005874c.124814-.013545.249644-.028701.374463-.045481l-.31921.039607c.152013-.017107.304043-.036605.456042-.058514l-.136832.018907c.118537-.015936.237064-.033335.355557-.052208l-.218725.033301c.121666-.017537.243311-.036617.36491-.057252l-.146185.023951c.139058-.022148.278069-.046324.416996-.072544l-.270811.048593c.118601-.020126.237158-.04173.355648-.064822l-.084837.016229c.105989-.020004.211929-.041197.317802-.063587l-.232965.047358c.252289-.049166.504273-.105074.755721-.167809l62.657744-15.632918c2.885667-.719966 5.394277-2.49946 7.026538-4.984308l18.269754-27.81095c12.29293-11.298043 23.727993-25.216827 33.403341-41.30981 33.451963-55.640563 34.066863-117.641744 3.038557-144.448143l-15.12167-28.896644-.178619-.331128c-.030401-.054693-.061116-.109137-.092141-.163332-.029741-.051949-.05966-.103485-.08986-.154792l.08986.154792c-.05486-.095826-.11069-.19087-.167474-.285124l.077614.130332c-.059877-.101726-.120857-.20255-.182919-.30246l.105305.172128c-.067554-.112129-.136458-.223139-.206683-.333016l.101378.160888c-.066649-.107294-.134546-.213535-.203665-.31871l.102287.157822c-.061087-.09558-.123175-.190302-.186243-.284156l.083956.126334c-.080465-.12244-.162586-.243435-.246323-.362964l.162367.23663c-.06811-.101359-.137364-.201706-.207738-.301029-.123627-.174482-.250709-.345804-.381117-.513902-.011477-.014795-.023063-.02967-.034675-.04452l.034675.04452c-.061012-.078645-.122752-.156585-.185206-.233812l.150531.189292c-.078231-.100049-.157645-.198945-.238213-.296676l.087682.107384c-.073873-.091346-.148746-.181695-.224596-.271036l.136914.163652c-.08288-.100535-.166981-.199835-.252274-.297887l.11536.134235c-.065199-.076794-.13112-.152845-.19775-.228143l.08239.093908c-.350016-.402374-.720098-.783715-1.108167-1.142976-.018606-.017225-.037231-.034378-.055897-.051481l.055897.051481c-.088525-.081954-.177986-.162759-.268359-.242402l.212462.190921c-.096932-.088815-.194971-.176261-.294084-.262323l.081622.071402c-.093291-.082216-.187554-.163195-.282761-.242922l.201139.17152c-.090169-.078295-.181228-.155445-.273151-.231437l.072012.059917c-.09396-.078684-.18884-.156149-.284613-.232382l.212601.172465c-.09796-.080982-.196902-.160649-.296798-.238986l.084197.066521c-.213571-.169998-.431585-.33387-.653751-.491472-.046348-.03288-.093185-.065701-.140203-.098244l.140203.098244c-.09801-.069526-.196828-.137833-.29643-.204906l.156227.106662c-.082486-.057092-.165528-.113329-.24911-.168704l.092883.062042c-.091113-.061357-.182882-.121683-.275287-.180967l.182404.118925c-.118803-.078708-.2387-.155674-.359647-.230876l.177243.111951c-.10125-.064958-.203264-.128667-.306017-.191112l.128774.079161c-.08542-.053113-.171365-.105345-.257819-.156691l.129045.07753c-.248334-.150919-.500986-.294462-.757601-.430451-.037567-.019909-.07545-.039776-.113417-.059478l.113417.059478c-.104307-.055276-.209269-.109304-.314862-.162072l.201445.102594c-.105071-.054524-.210792-.107789-.31714-.159782l.115695.057188c-.107146-.053544-.214943-.105791-.323365-.156729l.20767.099541c-.111226-.054379-.223137-.107367-.335706-.158951l.128036.05941c-.109472-.051431-.219582-.101526-.330303-.150274l.202267.090864c-.103778-.047556-.208115-.093917-.312989-.139075l.110722.048211c-.112955-.049731-.226546-.098059-.340748-.14497l.230026.096759c-.525542-.226291-1.064577-.422336-1.614403-.586777l-.386577-.109921c-.026617-.007179-.053257-.014285-.07992-.021317l.079711.021261c-.132714-.035794-.26601-.069761-.399851-.101883l.32014.080622c-.147054-.038783-.294811-.075327-.443221-.109605l.123081.028983c-.158654-.038076-.318073-.073559-.478196-.106418l.355115.077435c-1.812912-.418729-3.723203-.499449-5.639677-.196318zm7.475706 37.557812c26.149287 21.26683 28.675377 67.402876 5.334547 122.35822-25.276419 59.512134-69.812135 98.871593-102.977698 84.801953-33.165563-14.069639-35.77313-73.428426-10.496878-132.940632 11.74532-27.653688 30.428561-51.422415 50.96322-66.177736 21.372835-15.357597 42.986783-19.582345 57.176809-8.041805zm-158.959737 56.214396-99.801183 7.299346c-.508968 13.193914-2.226313 25.525344-4.81164 36.414878-1.280308 5.392724-2.738704 10.242538-4.235028 14.188188-.762419 2.010416-1.542931 3.809661-2.354765 5.383888-1.808673 3.507195-3.40918 5.862232-7.018983 8.459092-1.532993 1.102821-3.552245 2.150748-5.975704 3.123597l1.023394 1.711494 126.42392 73.72938-11.333698-16.1994c-4.83574-6.912015-6.970253-15.355066-6.000052-23.733166l11.723093-101.233883c.36522-3.153828 1.162761-6.229444 2.360646-9.143414zm113.296916-32.167698c-17.552934 12.612787-33.965346 33.49258-44.321277 57.875029-10.84771 25.540723-16.15262 51.398451-15.238538 72.206738.833419 18.972085 6.67208 31.23216 15.286217 34.886493 8.614142 3.654323 21.494383-.664739 35.728759-13.244698 15.612041-13.797503 30.538415-35.573572 41.386278-61.11423 20.299399-47.794395 18.272792-84.808095.371999-99.36655-5.526215-4.494391-18.226144-2.01201-33.213438 8.757218zm-597.541905-239.834439-22.087507 1.214616c-47.578363 2.613872-84.817828 41.933424-84.817828 89.555501l-.000665 66.725883 10.490105-10.525732c8.69784-8.727881 20.515786-13.634122 32.841301-13.634122h79.094277c11.64822 0 22.869427 4.38311 31.430549 12.277069l57.448031 52.971147c6.792255 6.262939 11.556182 14.412099 13.67999 23.400951l19.876403 84.125337c.292629 1.238526.461975 2.47149.490041 3.683743.219957 1.793694.324701 3.609518.308382 5.43694l-.004059.316465c-.003209.195176-.007835.390829-.013853.586594-.000933.030378-.001899.060699-.002898.091021l-2.64266 80.272603c37.967428-2.85918 64.487907-5.108767 79.561437-6.74876l.847027-.104552c17.468756-2.406715 43.119542-21.1277 60.085465-40.545002l-.398545-.106728c-3.353961-.917305-6.386609-1.951766-9.025825-3.101125-2.331607-1.015398-4.441854-2.14996-6.382831-3.521119-3.453123-2.439381-6.28758-5.440856-8.173166-9.893135-1.915799-4.523621-3.606226-15.233313-5.580325-31.404266l-.172143-1.423565c-1.481642-12.369172-2.413711-22.971911-2.413711-28.998706 0-5.491594.455736-14.944831 1.369076-28.598304l-79.364316-26.321312c-.295954-.098154-.589092-.203158-.879201-.314868l-.432748-.172529c-.808969-.333645-1.593022-.719992-2.34736-1.155819-1.921795-1.110258-3.651176-2.542171-5.108159-4.242102l-153.697505-179.326174c-3.258067-3.801343-4.947215-8.699002-4.724742-13.699327zm265.154074 248.46959c-.662133 10.481299-.9932 17.875122-.9932 22.181468 0 4.865565.824326 14.077685 1.910962 23.559411l.215794 1.857429c.048628.413024.097684.826055.147119 1.238758l.16948 1.401438.11971.974265c1.483443 11.995496 3.216181 23.159232 4.043086 25.111735.929373 2.194452 7.736454 4.923071 17.841762 6.828009l.520658.09688c.732864.134591 1.48247.264825 2.247866.390202.035839.00587.072138.0118.108472.017718l.603182.096726c.038257.006038.076552.012065.114884.018079l.046123.007228c.121644.019039.243666.037955.366063.056745l-.366169-.056762c.33357.05221.669983.10349 1.009163.1538.452386.067105.910438.132587 1.37325.196245l.6684.090221c.141785.018777.284.037381.426641.055811l.462789.05899.062032.007785c.038368.004807.076767.009601.115196.014382 1.328325.165273 2.692718.315365 4.088787.448144.12427.011819.248805.023503.373588.035048.726995.067262 1.462972.129861 2.206837.187455.177614.013751.354942.027163.532709.040287.188827.013942.378635.027594.568931.040916l.210858.014612c.299739.02056.600677.0403.902779.059202.894324.05596 1.799753.104613 2.7145.145426.02437.001088.048659.002165.072954.003238l.691016.028931c.081252.003217.162574.006372.243967.009465l.104414.003932c.270081.010077.540931.019466.812525.028153l.888158.025826c.079522.002081.159106.004102.238751.006062l.632074.014246.022018.000449c.125337.002548.250819.004944.376444.007188l.522445.008437.494845.006343.567059.005294c.05363.000401.107285.000774.160963.001119l.013711.000087.96307.003049c.402822 0 .802996-.001429 1.200502-.004244l.116915-.000869.001843-.000949.357057-.002225-.242245.002226c.480018-.004066.956121-.010152 1.428275-.018185 2.247178-.038232 4.404924-.120549 6.469686-.238894l.283227-.016922.047-.003.027605-.001003-.192422.011355c.523587-.030571 1.04116-.063456 1.55266-.098523l.065085-.004476.044072-.003353.170123-.011576c.092891-.006541.18558-.013153.278065-.019836l-.427728.030299c.635429-.044109 1.261441-.091581 1.877924-.142162.313085-.025686.624416-.052236.933263-.079558.702175-.062118 1.391229-.128196 2.06728-.197865.165278-.017032.329412-.03424.49277-.051656.320751-.034194.639488-.069301.955194-.10517.487895-.055433.968553-.112687 1.441902-.171601l.704532-.089596c.38813-.050415.771166-.101926 1.149065-.154439.142911-.019859.285558-.039927.427463-.060135.378403-.053887.751131-.108703 1.118555-.164409.175063-.026541.349058-.053306.521842-.080264.267395-.041718.53184-.083888.793369-.126478l.026606-.004336.015775-.003218.224589-.036236c.088649-.014644.176958-.029336.264924-.044074l.229621-.038706.409982-.070288c.07885-.013665.157521-.027383.235905-.041136 1.157396-.203074 2.252032-.413607 3.282226-.627791.1418-.029481.28238-.059031.421734-.088641l.203846-.043542.008173-.002586.052-.011.096201-.020128c.079772-.017268.159129-.034554.238069-.051855l-.192363.041949c.230691-.050057.457894-.100254.681586-.150544.362361-.081465.715826-.163249 1.059975-.245075l.341471-.081938c.082528-.019985.164497-.039969.245908-.059948.443552-.108851.87082-.21765 1.281268-.32584.162218-.042759.321762-.085411.478668-.127937.284178-.077017.560811-.153942.828642-.230279.298562-.085098.585933-.169388.862275-.252704 2.584123-.779303 4.202101-1.472281 4.769876-1.880733 1.62393-1.168241 7.717672-16.759728 9.749043-41.055972l.057381-.708996.065973-.844173c.079349-1.054518.15094-2.124731.214107-3.21019l.030448-.536218.039952-.761429c-1.870553-.066662-3.725803-.399231-5.509188-.990679zm-229.107074-86.08859-.296483 40.61081c3.754116 1.809835 7.244727 4.190611 10.337307 7.089149l62.823176 58.881041-10.028721-42.44658c-1.22006-5.163809-3.956784-9.845241-7.858717-13.4431zm350.845-127.498-179.315524 7.006268-16.704565 150.195087c-.471564 4.239953-3.568501 7.551326-7.49184 8.495914l180.314929 59.798731zm127.183-4.552-100.528765 3.511791-6.747235.263209-23.196 225.491 10.553947-.77172 98.589053-7.21028zm-606.45 140.517-43.9919999 44.145-1.2595929 1.264082c-1.5457105 1.551049-2.894018 3.286785-4.0143621 5.167866l-9.122045 15.315052 27.9543649-26.498323c4.816835-4.566077 10.615841-7.867317 16.88136-9.698184zm616.325258-37.399982-9.037258 93.765982 22.113232-31.192402c-9.09227-12.989814-13.556019-35.822656-13.075974-62.57358zm-235.282396-86.955526c46.612323 0 84.319594 38.43373 84.319594 85.748258s-37.707271 85.748258-84.319594 85.748258c-46.612324 0-84.319595-38.43373-84.319595-85.748258s37.707271-85.748258 84.319595-85.748258zm-273.148178 106.555898-78.10926.000499c-.069092.177797-.143706.354669-.223919.530415l-20.676505 45.300696h99.546l.325353-44.389294c.003544-.483921.041925-.959441.112748-1.424201-.324168-.01216-.649003-.018115-.974417-.018115zm273.148178-86.843655c-35.63133 0-64.595713 29.522404-64.595713 66.036015s28.964383 66.036015 64.595713 66.036015c35.631329 0 64.595712-29.522404 64.595712-66.036015s-28.964383-66.036015-64.595712-66.036015zm134.98983-102.913523-122.211994 1.719647c-.400048.005629-.798494.051793-1.189221.137784l-145.088787 31.930969c-2.488152.54759-4.346238 2.625422-4.61229 5.157762l-14.860219 141.442233c-.269469 2.564854-1.500437 4.796194-3.297405 6.373871l40.256177 46.968965.836732.278633c-1.655482-1.988128-2.530416-4.620705-2.221928-7.394395l17.641978-158.623609c.538925-4.845619 4.541758-8.56933 9.416374-8.759764l214.489464-8.379225 137.681292-4.809049c.114776-.004009.229614-.006014.34446-.006014l64.215675-.00002-68.763304-22.10631c-.400699-.02889-.804026-.082539-1.208261-.162102l-120.202083-23.658513c-.403914-.0795-.815028-.116655-1.22666-.110863zm-134.98983 116.712093c28.620634 0 51.775189 23.413139 51.775189 52.237445 0 28.824307-23.154555 52.237445-51.775189 52.237445-28.620635 0-51.77519-23.413138-51.77519-52.237445 0-28.824306 23.154555-52.237445 51.77519-52.237445zm282.776501-29.212588c-.376747.161845-.90672.463565-1.558712.938283-2.812186 2.047562-6.159418 6.07824-9.432288 11.637397-.799839 1.358572-1.580316 2.779394-2.339099 4.25718 1.651492.170126 3.29817.620136 4.911254 1.381865 13.555913 6.401364 19.200955 25.979126 16.45757 52.065325-1.351857 12.854432-4.661778 24.803494-9.323074 33.740454-5.57271 10.684389-13.113018 17.382401-22.511532 16.768651.704634 2.595089 1.485403 4.937862 2.321722 7.000242 5.13165-5.164537 11.805681-8.610515 19.093603-9.763255l1.995282-.315925c5.709064-13.137779 10.056177-30.723065 12.057969-49.757537 2.135635-20.307296 1.407245-37.260476-1.758679-49.786267-2.466092-9.756946-6.16547-15.862143-9.914016-18.166413zm-282.776501 48.924832c-17.675462 0-32.051308 14.536391-32.051308 32.525201s14.375846 32.525202 32.051308 32.525202c17.675461 0 32.051307-14.536392 32.051307-32.525202s-14.375846-32.525201-32.051307-32.525201zm1.972388 8.870509c11.710189 0 21.203173 9.708019 21.203173 21.683468 0 11.975448-9.492984 21.683467-21.203173 21.683467s-21.203173-9.708019-21.203173-21.683467c0-11.975449 9.492984-21.683468 21.203173-21.683468zm265.533392-20.186164c-.859188.886235-1.837365 2.129656-2.832884 3.681135-2.300537 3.585297-4.30507 8.142193-5.794331 13.225353.758948-.462037 1.491111-.57617 2.12885-.270775 2.729823 1.307238 4.579778 6.30862 3.698887 14.684794-.880891 8.376173-4.229686 14.88965-7.479744 14.548257-.374821-.039372-.73196-.168198-1.069159-.378169.303916 4.154457.919671 7.945247 1.818078 11.175975.719045 2.585731 1.571791 4.618472 2.419322 5.963548 1.108833-1.139576 2.365825-2.950705 3.607077-5.330522 3.438734-6.59298 6.091036-16.167992 7.197518-26.689213 1.084576-10.312998.591621-18.803366-1.165104-24.895924-.710268-2.463307-1.58755-4.380883-2.52851-5.714459zm-350.592828-200.259408h-99.419945l-82.820717 31.026943-4.383703 98.52884 98.115551 114.475731 13.867355-131.993098c1.152896-10.973473 9.204602-19.977412 19.986591-22.350299l145.088787-31.93097c1.69315-.372626 3.419749-.572671 5.153294-.597064l109.920973-1.547569-96.904998-31.154332zm399.235119 140.900777h-53.801328l-17.057605.595737-6.655511 69.049294c3.245249-17.196466 8.953142-33.08811 16.15232-45.316325 4.533183-7.69987 9.543633-13.733365 14.817677-17.573414 6.869129-5.001436 14.55142-6.486487 21.582723-2.887206 8.44946 4.325227 14.785593 12.979345 18.850181 25.118898z"/></svg>