<svg width="960" height="960" viewBox="0 0 960 960" fill="none" xmlns="http://www.w3.org/2000/svg">
<path d="M433.764 140.858C537.866 40.8722 719.694 72.9756 839.229 197.431C955.254 318.233 981.863 493.707 888.47 595.569L766.986 800.809L764.557 802.926C698.123 860.819 506.97 948.325 255.792 860.629C153.797 825.019 91.2762 775.687 55.8418 722.806C20.3759 669.878 13.2124 615.11 18.9141 570.958C24.0741 531.003 49.8488 499.922 75.0664 476.455C195.144 364.712 315.788 254.168 433.764 140.858ZM325.195 298.657C251.05 367.988 176.43 436.769 102.316 505.738C79.0443 527.394 61.9078 550.345 58.584 576.082C53.9685 611.822 59.6347 656.609 89.0713 700.54C118.54 744.518 172.995 789.354 268.978 822.865C502.54 904.41 677.179 824.057 735.898 774.799L783.673 694.087C741.233 715.3 688.05 721.98 633.732 714.96C559.283 705.339 481.075 669.86 421.967 608.318C363.273 547.208 327.47 474.652 317.399 406.396C311.795 368.41 314.152 331.478 325.195 298.657ZM401.351 227.024C392.024 235.856 382.686 244.677 373.336 253.485C340.477 291.307 328.532 344.828 337.186 403.476C346.582 467.164 380.242 536.003 436.391 594.463C492.124 652.492 566.044 686.046 636.296 695.125C704.068 703.883 766.933 689.747 806.933 654.792L828.859 617.748C733.128 671.982 591.13 640.375 489.723 535.824L488.367 534.42C399.172 441.553 368.015 319.068 401.351 227.024ZM494.904 512.102C497.476 514.946 500.105 517.768 502.792 520.566C614.076 636.431 769.993 654.475 851.699 575.999C851.832 575.871 851.964 575.741 852.097 575.613L784.033 495.625C725.881 542.595 631.073 523.828 567.618 457.761C566.462 456.557 565.323 455.342 564.199 454.119L494.904 512.102ZM685.89 574.427C691.676 568.87 700.344 571.433 705.086 576.37C709.827 581.306 712.039 590.071 706.253 595.628C700.467 601.185 691.799 598.623 687.058 593.686C682.316 588.749 680.104 579.985 685.89 574.427ZM654.406 568.191C660.192 562.634 668.861 565.197 673.603 570.133C678.344 575.07 680.555 583.835 674.77 589.392C668.983 594.949 660.316 592.386 655.574 587.45C650.833 582.513 648.62 573.748 654.406 568.191ZM694.41 581.355C693.408 581.206 692.967 581.496 692.816 581.64C692.666 581.785 692.36 582.214 692.468 583.22C692.577 584.236 693.117 585.558 694.27 586.758C695.422 587.959 696.721 588.55 697.731 588.701C698.734 588.85 699.175 588.561 699.326 588.417C699.477 588.272 699.782 587.843 699.674 586.835C699.565 585.82 699.027 584.498 697.874 583.297C696.721 582.097 695.421 581.505 694.41 581.355ZM662.927 575.119C661.924 574.97 661.484 575.259 661.333 575.404C661.182 575.549 660.876 575.978 660.984 576.984C661.094 577.999 661.633 579.321 662.786 580.522C663.939 581.722 665.238 582.314 666.248 582.464C667.25 582.613 667.692 582.325 667.843 582.18C667.993 582.035 668.299 581.606 668.19 580.599C668.081 579.584 667.543 578.261 666.391 577.061C665.238 575.86 663.937 575.269 662.927 575.119ZM672.454 546.441C678.24 540.884 686.909 543.447 691.65 548.383C696.392 553.32 698.603 562.085 692.817 567.642C687.031 573.199 678.364 570.636 673.622 565.7C668.881 560.763 666.668 551.998 672.454 546.441ZM680.975 553.369C679.972 553.22 679.531 553.509 679.381 553.654C679.23 553.799 678.924 554.228 679.032 555.234C679.141 556.249 679.681 557.571 680.834 558.772C681.987 559.972 683.286 560.564 684.296 560.714C685.298 560.863 685.74 560.575 685.891 560.43C686.041 560.285 686.346 559.856 686.238 558.849C686.129 557.834 685.591 556.511 684.438 555.311C683.285 554.11 681.985 553.519 680.975 553.369ZM785.527 283.599C834.565 347.766 842.737 430.725 798.454 481.71L865.674 560.708C891.829 528.08 904.968 485.637 904.777 439.509C904.488 377.394 880.047 308.583 830.75 248.136L785.527 283.599ZM754.581 278.191C692.509 213.564 605.143 203.146 559.113 247.355C513.084 291.564 519.971 379.28 582.043 443.908C644.115 508.535 731.481 518.953 777.511 474.744C823.54 430.534 816.653 342.818 754.581 278.191ZM446.395 186.387C386.38 262.966 396.888 392.245 481.887 496.917L551.332 438.808C500.807 372.933 493.413 287.126 541.728 236.477L471.379 163.906L446.395 186.387ZM870.383 421.116C876.196 415.533 884.913 418.103 889.688 423.075C894.463 428.046 896.68 436.861 890.867 442.444C885.054 448.027 876.337 445.456 871.562 440.485C866.786 435.513 864.57 426.699 870.383 421.116ZM837.978 411.344C843.791 405.761 852.508 408.332 857.283 413.303C862.058 418.275 864.275 427.089 858.462 432.672C852.649 438.255 843.931 435.685 839.156 430.713C834.381 425.742 832.164 416.928 837.978 411.344ZM878.956 428.029C877.934 427.877 877.474 428.17 877.31 428.328C877.145 428.485 876.834 428.933 876.944 429.96C877.056 430.996 877.605 432.339 878.774 433.557C879.944 434.775 881.264 435.378 882.294 435.531C883.316 435.682 883.776 435.389 883.94 435.231C884.105 435.073 884.416 434.625 884.306 433.598C884.194 432.563 883.645 431.219 882.476 430.001C881.306 428.784 879.986 428.182 878.956 428.029ZM846.551 418.257C845.529 418.106 845.069 418.398 844.904 418.556C844.74 418.714 844.429 419.161 844.539 420.189C844.65 421.225 845.199 422.568 846.369 423.786C847.539 425.003 848.858 425.606 849.889 425.759C850.911 425.911 851.371 425.617 851.535 425.459C851.699 425.301 852.011 424.854 851.9 423.827C851.789 422.791 851.24 421.448 850.07 420.23C848.901 419.012 847.581 418.41 846.551 418.257ZM870.383 391.53C876.196 385.947 884.913 388.517 889.688 393.489C894.463 398.461 896.68 407.275 890.867 412.858C885.054 418.441 876.337 415.87 871.562 410.899C866.786 405.927 864.57 397.113 870.383 391.53ZM837.978 381.757C843.791 376.174 852.508 378.745 857.283 383.716C862.058 388.688 864.275 397.502 858.462 403.085C852.649 408.668 843.931 406.098 839.156 401.126C834.381 396.155 832.164 387.341 837.978 381.757ZM878.956 398.443C877.934 398.291 877.474 398.584 877.31 398.742C877.145 398.899 876.834 399.347 876.944 400.375C877.056 401.41 877.605 402.753 878.774 403.971C879.944 405.189 881.264 405.792 882.294 405.945C883.316 406.097 883.776 405.803 883.94 405.645C884.105 405.487 884.416 405.039 884.306 404.012C884.194 402.977 883.645 401.633 882.476 400.416C881.306 399.198 879.986 398.596 878.956 398.443ZM846.551 388.67C845.529 388.519 845.069 388.812 844.904 388.969C844.74 389.127 844.429 389.574 844.539 390.602C844.65 391.638 845.199 392.981 846.369 394.199C847.539 395.417 848.858 396.019 849.889 396.172C850.911 396.324 851.371 396.03 851.535 395.873C851.699 395.715 852.011 395.267 851.9 394.24C851.789 393.204 851.24 391.861 850.07 390.643C848.901 389.425 847.581 388.823 846.551 388.67ZM660.192 355.383C663.762 351.954 670.252 352.918 674.687 357.536C679.121 362.153 679.823 368.675 676.253 372.104C672.683 375.533 666.194 374.57 661.759 369.953C657.324 365.335 656.623 358.812 660.192 355.383ZM447.016 319.502C452.727 314.017 461.259 316.56 465.908 321.4C470.557 326.24 472.754 334.868 467.043 340.354C461.331 345.839 452.799 343.296 448.15 338.456C443.502 333.615 441.305 324.988 447.016 319.502ZM455.393 326.47C454.445 326.329 454.056 326.606 453.942 326.714C453.829 326.824 453.538 327.201 453.641 328.153C453.744 329.113 454.256 330.377 455.362 331.529C456.469 332.681 457.711 333.243 458.667 333.385C459.614 333.526 460.003 333.251 460.116 333.142C460.23 333.033 460.52 332.656 460.418 331.704C460.315 330.743 459.803 329.479 458.696 328.327C457.59 327.175 456.348 326.612 455.393 326.47ZM669.259 134.893C602.458 113.514 535.922 118.627 486.528 150.044C486.377 150.14 486.226 150.236 486.075 150.333L556.767 223.255C615.199 180.414 707.049 199.83 769.006 264.337C770.25 265.633 771.473 266.941 772.68 268.258L817.687 232.964C815.3 230.337 812.865 227.728 810.38 225.14C808.638 223.327 806.886 221.538 805.123 219.773C802.723 217.369 800.302 215.011 797.864 212.696C758.4 175.227 714.15 149.389 669.988 135.128C669.745 135.05 669.502 134.971 669.259 134.893ZM648.151 173.674C653.973 168.083 662.705 170.656 667.49 175.638C672.275 180.62 674.493 189.449 668.672 195.04C662.851 200.63 654.12 198.058 649.335 193.076C644.55 188.094 642.331 179.265 648.151 173.674ZM656.741 180.583C655.713 180.43 655.246 180.725 655.078 180.886C654.91 181.048 654.598 181.502 654.709 182.535C654.821 183.576 655.372 184.926 656.547 186.149C657.722 187.372 659.048 187.977 660.084 188.131C661.111 188.284 661.577 187.989 661.745 187.828C661.913 187.666 662.227 187.213 662.116 186.179C662.004 185.138 661.453 183.788 660.278 182.565C659.104 181.342 657.777 180.736 656.741 180.583ZM648.151 140.568C653.973 134.977 662.705 137.551 667.49 142.533C672.275 147.515 674.493 156.343 668.672 161.934C662.851 167.524 654.12 164.951 649.335 159.969C644.55 154.987 642.331 146.159 648.151 140.568ZM656.741 147.477C655.713 147.324 655.246 147.619 655.078 147.781C654.91 147.943 654.598 148.396 654.709 149.428C654.821 150.47 655.372 151.819 656.547 153.042C657.722 154.265 659.048 154.871 660.084 155.025C661.112 155.177 661.577 154.883 661.745 154.721C661.913 154.56 662.227 154.107 662.116 153.074C662.004 152.032 661.453 150.683 660.278 149.459C659.104 148.236 657.777 147.631 656.741 147.477Z" fill="black"/>
</svg>
