<?xml version="1.0" encoding="UTF-8"?>
<svg width="960px" height="960px" viewBox="0 0 960 960" version="1.1" xmlns="http://www.w3.org/2000/svg" xmlns:xlink="http://www.w3.org/1999/xlink">
    <!-- Generator: Sketch 60 (88103) - https://sketch.com -->
    <title>icon</title>
    <desc>Created with Sketch.</desc>
    <g id="icon" stroke="none" stroke-width="1" fill="none" fill-rule="evenodd">
        <path d="M554,407.868589 C577.156601,409.076396 587.701687,402.069199 589.027687,382.250623 C590.377884,362.106131 590.252059,341.750752 589.08092,321.582296 C588.030767,303.589809 580.849075,298.130714 562.880327,298.001306 C560.058948,297.977341 557.237569,298.288879 554,298.471008 L554,407.868589 Z M553.823725,486.936847 L553.823725,663.710575 C539.508565,666.213305 461.907349,666.842562 435.776425,664.702133 C435.522168,660.311631 435.03764,655.739978 435.032843,651.163559 C434.994464,512.407481 434.994464,373.65617 435.008856,234.895324 C435.008856,215.240557 435.066424,215.211954 454.917674,215.178585 C475.296629,215.145215 495.685178,214.740011 516.04974,215.273927 C545.183777,216.04143 574.48572,215.884116 603.360703,219.20202 C625.975202,221.804858 648.124362,228.116503 665.692095,245.244706 C678.836712,258.05868 684.262465,273.694779 686.934564,290.651365 C692.206803,324.159335 691.189774,358.015303 690.215921,391.718724 C689.817745,405.509954 687.582201,419.463266 683.960235,433.144853 C676.908196,459.769125 657.968433,473.117015 633.156768,479.719453 C613.756464,484.882226 593.905213,488.080952 573.607813,486.989286 C567.70233,486.66989 561.77286,486.936847 553.823725,486.936847 L553.823725,486.936847 Z" id="Fill-1" fill="#000000"></path>
        <path d="M117,407 C123.583867,405.226867 128.125135,402.894045 132.603329,403.011627 C144.121458,403.322042 146.867567,395.411141 148.682133,387.429691 C150.724733,378.446445 151.311799,369.148079 152.461671,359.981404 C154.52853,343.538771 150.084298,327.538244 148.555987,311.363697 C147.862182,304.007782 142.107969,298.805965 134.495524,297.489049 C128.852902,296.515472 122.890063,297.296215 117,297.296215 L117,407 Z M116.992024,485.320398 L116.992024,662 L0,662 L0,215.006539 C4.53877017,214.72651 9.08228801,214.232899 13.6305535,214.209167 C33.7844023,214.123734 53.9429986,213.74878 74.0826044,214.275615 C103.484909,215.039763 132.934691,215.66627 162.242043,217.92549 C182.082546,219.44904 201.358076,225.31542 218.212296,236.312509 C232.626214,245.7196 240.51209,260.641848 244.789739,276.731676 C248.378975,290.244284 249.247798,304.359667 248.943948,318.560483 C248.378975,345.210744 249.14335,371.889483 248.597368,398.539744 C248.36948,409.56531 246.911946,420.685802 244.74701,431.512026 C241.043829,450.03194 229.715894,463.126877 212.534085,470.564269 C200.845328,475.623785 188.738776,479.23569 176.000784,481.760701 C156.805964,485.576696 137.492452,483.69243 116.992024,485.320398 L116.992024,485.320398 Z" id="Fill-3" fill="#000000"></path>
        <path d="M395.482399,664 L280.733737,664 C277.971744,650.074308 276.90688,334.075527 279.416918,299.510564 C292.432985,296.861216 365.661438,296.077807 394.379504,298.285596 C397.046419,311.760235 398.116037,627.72578 395.482399,664" id="Fill-9" fill="#000000"></path>
        <path d="M855.767395,636.310774 C863.516919,643.834287 871.722298,643.169749 881.036766,638.527481 C894.571412,631.77768 903.674401,620.153022 913.670301,609.629598 C926.960571,595.63634 934.526814,579.027652 932.740993,558.877929 C931.641303,546.460574 924.643703,542.463856 914.088559,549.351311 C908.303438,553.129681 902.654603,557.39696 897.799989,562.30979 C882.20225,578.130526 870.646106,597.022375 859.259145,615.985424 C855.508921,622.232075 853.929879,628.934409 855.767395,636.310774 M843.868941,653.999583 C841.279977,660.068149 838.009458,665.112645 837.006057,670.574355 C833.962723,687.130163 831.463687,703.809239 829.395356,720.521503 C827.80506,733.384019 827.161369,735.56491 816.346411,746 C804.599047,741.311084 804.599047,741.311084 797.38592,732.336243 C806.771505,680.658606 822.859051,630.204164 825.978113,574.174227 C810.382802,596.058995 796.169533,614.587088 775.964257,627.089283 C767.066173,632.588921 757.936172,637.794614 746.434925,636.528748 C734.947878,635.262883 725.945668,630.901101 721.823205,619.788039 C718.439093,610.637778 716.176708,601.070304 713.317962,591.341633 C708.679599,597.05936 702.81065,602.701231 698.877508,609.471476 C690.523722,623.855875 676.760091,631.683377 663.853137,640.639254 C651.234897,649.391265 637.305609,652.7432 621.93275,649.94597 C608.756014,641.55428 605.097387,629.222763 605,613.80007 C604.865468,591.175696 609.92507,569.864597 617.057736,548.847444 C620.792092,537.848167 622.533844,537.246051 635.218346,537.127525 C639.463868,542.290547 640.524065,547.003168 638.266413,554.356564 C633.363001,570.338703 630.537386,586.984592 627.441989,603.474025 C626.604244,607.925887 626.963954,613.027276 628.265535,617.374835 C631.744307,629.014156 636.316408,630.327432 647.836586,625.605329 C671.293449,615.990444 687.456723,597.955422 700.037099,577.346001 C708.395618,563.653798 717.123313,549.440077 719.669679,532.590323 C720.460094,527.365666 725.084258,522.287983 729.0174,518.163254 C730.905876,516.186229 735.856618,515.223792 738.369854,516.290532 C740.944618,517.380978 743.339528,521.339769 743.822296,524.355088 C744.536983,528.887549 744.153608,533.846706 743.112343,538.364943 C739.283327,554.892305 736.088537,571.448113 736.949947,588.53018 C737.09667,591.488606 736.675431,594.556077 737.323856,597.386494 C740.745831,612.33508 750.652049,616.829613 764.363617,610.097296 C779.452495,602.687008 791.237723,591.251553 802.284599,578.976929 C806.970292,573.775977 811.646519,568.390125 815.276748,562.449567 C819.683192,555.214698 826.011244,549.321551 826.120104,539.151961 C826.191099,532.244225 831.198638,525.037802 835.089183,518.627879 C838.146716,513.588124 845.317246,513.910516 848.497837,518.902861 C850.959009,522.76209 853.628435,527.33722 853.756226,531.665815 C854.049674,541.565164 853.770425,551.692084 851.952944,561.387568 C850.400513,569.651249 850.547236,577.488233 852.270057,586.1312 C861.897026,567.806973 876.550466,554.171663 890.957788,540.408343 C897.281107,534.363482 904.238652,528.859103 911.456512,523.895205 C929.200616,511.691697 955.771808,519.727806 959.643421,547.628989 C961.219518,559.002811 957.319507,572.073934 952.879931,583.153809 C943.636337,606.228585 929.702316,626.060471 908.952743,641.141807 C898.350771,648.846042 887.871857,655.696885 875.362477,659.333284 C864.457592,662.505058 853.756226,663.818334 843.868941,653.999583" id="Fill-11" fill="#000000"></path>
        <path d="M396.955506,274 L279.33966,274 C276.992421,265.447077 278.50136,256.93977 278.233104,248.592117 C277.979219,240.623073 278.070235,232.635784 278.247475,224.657617 C278.372022,219.215677 281.758753,216.496988 287.296322,216.086448 C289.083098,215.949601 290.884245,216.031709 292.680601,216.031709 C322.610296,216.031709 352.539991,215.935916 382.469687,216.077325 C395.269326,216.141187 396.768685,217.651063 396.912393,229.803056 C397.080053,243.994065 396.955506,258.185075 396.955506,274" id="Fill-13" fill="#000000"></path>
    </g>
</svg>