<?xml version="1.0" encoding="UTF-8"?>
<svg width="960px" height="960px" viewBox="0 0 960 960" version="1.1" xmlns="http://www.w3.org/2000/svg" xmlns:xlink="http://www.w3.org/1999/xlink">
    <!-- Generator: Sketch 60 (88103) - https://sketch.com -->
    <title>icon2</title>
    <desc>Created with Sketch.</desc>
    <g id="icon2" stroke="none" stroke-width="1" fill="none" fill-rule="evenodd">
        <path d="M340,537.147664 C354.151256,537.894308 360.595475,533.562587 361.405809,521.311103 C362.230929,508.858145 362.154036,496.27482 361.43834,483.807046 C360.79658,472.684418 356.407768,469.309705 345.426866,469.229707 C343.70269,469.214893 341.978514,469.40748 340,469.520069 L340,537.147664 Z M339.872362,585.852943 L339.872362,694.81768 C331.093143,696.360383 283.501772,696.748262 267.476167,695.428884 C267.320236,692.722544 267.023084,689.904541 267.020142,687.083599 C266.996605,601.553245 266.996605,516.025829 267.005431,430.492537 C267.005431,418.377181 267.040736,418.35955 279.215136,418.338981 C291.713167,418.318412 304.217082,418.068641 316.706286,418.397751 C334.573645,418.870846 352.543977,418.773876 370.252462,420.819059 C384.12151,422.423469 397.705175,426.314017 408.479136,436.871978 C416.540484,444.770614 419.867996,454.40883 421.506745,464.861005 C424.74011,485.515586 424.116385,506.384675 423.519139,527.159732 C423.274945,535.660757 421.903928,544.261689 419.682644,552.695129 C415.357761,569.106543 403.742359,577.334288 388.52583,581.404084 C376.627988,584.586458 364.453588,586.558179 352.005573,585.885267 C348.383851,585.688388 344.747418,585.852943 339.872362,585.852943 L339.872362,585.852943 Z" id="Fill-1" fill="#000000"></path>
        <path d="M71,537.2289 C75.0234746,536.132781 77.7986936,534.690673 80.5353679,534.76336 C87.5742246,534.955254 89.2524019,530.064878 90.3613035,525.130891 C91.6095591,519.577611 91.9683214,513.82953 92.6710211,508.162859 C93.9341015,497.998322 91.2181821,488.107087 90.2842141,478.108276 C89.8602223,473.560983 86.3437589,470.345314 81.6917091,469.531221 C78.2434402,468.929374 74.5994828,469.412015 71,469.412015 L71,537.2289 Z M70.8866651,585.381645 L70.8866651,694.2289 L-1,694.2289 L-1,418.849 C1.78888288,418.676482 4.580683,418.372382 7.37540036,418.357762 C19.7590905,418.305129 32.145698,418.07413 44.5206364,418.398698 C62.5871131,418.869468 80.6827621,419.255441 98.6908939,420.647282 C110.882046,421.585898 122.726047,425.200007 133.082254,431.974999 C141.938999,437.77044 146.784537,446.96361 149.412972,456.876093 C151.618407,465.200825 152.152262,473.896909 151.965558,482.645626 C151.618407,499.064091 152.088082,515.500099 151.7526,531.918564 C151.612572,538.7111 150.716979,545.562117 149.386717,552.231844 C147.111268,563.641434 140.15073,571.708851 129.593233,576.290816 C122.410985,579.407839 114.972019,581.63303 107.14506,583.188618 C95.3506524,585.539543 83.4833139,584.378701 70.8866651,585.381645 L70.8866651,585.381645 Z" id="Fill-3" fill="#000000"></path>
        <path d="M630.653422,506.2289 C640.355272,498.844987 647.939876,492.766356 655.834891,487.126721 C672.260389,475.385041 689.195432,464.322342 705.161169,451.99826 C710.054556,448.219968 714.444255,447.142965 720.005321,447.148818 C773.774009,447.207351 827.539769,447.101992 881.311386,447.230764 C897.637318,447.26881 911.9075,434.286235 913.734833,417.215144 C914.838847,406.913371 917.026375,396.72281 918.798068,386.49713 C920.695683,375.571983 922.643081,364.661469 924.628549,353.753882 C925.779417,347.432339 927.091349,341.137136 928.248074,334.815594 C929.990483,325.312794 931.674323,315.79536 933.358164,306.280854 C935.29092,295.367413 937.375954,284.474459 939.059794,273.520045 C940.368797,265.003523 941.821293,256.422614 942,247.841706 C942.166846,239.503708 935.10643,233.018274 926.739939,232.321734 C924.561195,232.140282 922.353168,232.280761 920.159783,232.280761 L637.052016,232.280761 C635.590736,232.280761 634.117741,232.175402 632.665246,232.298321 C621.14192,233.284598 611.946686,237.964296 606.593538,248.751891 C602.370759,257.26256 601.293101,266.572202 599.770323,275.744292 C598.010344,286.356288 596.768694,297.056084 594.882793,307.644668 C593.131599,317.478178 590.531163,327.16243 588.841466,337.007647 C586.293742,351.842786 584.469338,366.800843 581.857188,381.621348 C579.379747,395.683853 576.102847,409.600026 573.528767,423.644972 C571.391022,435.310559 575.716295,442.53936 586.850142,446.282532 C589.509145,447.178084 592.560557,447.134185 595.436264,447.148818 C611.841263,447.221984 628.252119,447.183938 645.175449,447.183938 C640.422626,466.505615 635.857222,485.069293 630.653422,506.2289 L630.653422,506.2289 Z M601.168759,546.504141 C607.848408,519.818696 614.528058,493.133251 621.40115,465.680596 C618.534675,465.361413 616.143014,464.892888 613.748423,464.863605 C605.691224,464.766971 597.631095,464.775756 589.570965,464.828465 C570.994564,464.951453 554.915338,448.324661 555,430.066815 C555.056024,417.328783 558.535069,405.179336 560.393295,392.757559 C561.290168,386.748721 562.937365,380.851159 563.819583,374.84525 C565.534192,363.146759 567.245871,351.49512 570.12407,339.972325 C572.465904,330.607675 573.204505,320.853564 574.90446,311.316145 C577.66542,295.816742 581.129811,280.419829 583.310442,264.844291 C584.471101,256.57189 584.846263,248.12965 589.254422,240.952428 C599.078987,224.975714 612.338633,214.214274 632.371719,214.2289 C730.189454,214.299194 828.007189,214.246485 925.824924,214.284552 C940.324365,214.290409 956.007912,225.593582 958.865594,239.456075 C960.451242,247.15746 960.172801,255.508924 959.258343,263.391862 C957.898379,275.099138 955.330861,286.668785 953.082818,298.261859 C951.177696,308.086249 948.788967,317.816934 947.004014,327.661822 C945.145788,337.899101 943.967544,348.259367 942.121041,358.499573 C937.865293,382.104464 933.401446,405.671288 928.984495,429.246896 C927.753494,435.817963 924.590992,441.375845 920.059733,446.292433 C912.814409,454.154873 905.079616,461.232534 894.129563,463.361395 C890.263632,464.111036 886.295117,464.758187 882.370566,464.764043 C830.349023,464.857748 778.324549,465.001234 726.303006,464.614701 C719.538359,464.561992 714.338843,466.658642 709.329839,470.272144 C680.023207,491.417277 650.757608,512.615119 621.530112,533.871527 C615.167006,538.501143 609.023722,543.432372 602.783716,548.2289 L601.168759,546.504141 Z" id="Fill-6" fill="#000000"></path>
        <path d="M242.069035,695 L171.676998,695 C169.982667,686.424506 169.329431,491.831251 170.869202,470.546015 C178.853848,468.914536 223.775504,468.43211 241.392469,469.791675 C243.028476,478.089409 243.684628,672.662197 242.069035,695" id="Fill-9" fill="#000000"></path>
        <path d="M525.472243,677.732397 C530.241181,682.356222 535.290645,681.947808 541.022625,679.094748 C549.351638,674.946432 554.953478,667.802112 561.104801,661.334591 C569.283428,652.734567 573.939578,642.527144 572.840611,630.143461 C572.163879,622.511961 567.857663,620.055645 561.36219,624.28856 C557.802116,626.610683 554.32591,629.233282 551.338455,632.252625 C541.739846,641.975786 534.628373,653.586401 527.621012,665.240775 C525.313182,669.079863 524.341464,673.199006 525.472243,677.732397 M518.358586,688.674531 C516.761451,692.404992 514.743863,695.505937 514.124863,698.863352 C512.247426,709.040516 510.705767,719.293454 509.429811,729.566793 C508.448755,737.473622 508.051661,738.814256 501.379899,745.2289 C494.132933,742.346536 494.132933,742.346536 489.683145,736.829534 C495.473126,705.062329 505.397555,674.047044 507.321709,639.604399 C497.70094,653.057373 488.932754,664.446936 476.468091,672.132269 C470.978851,675.512999 465.34654,678.713035 458.251405,677.934884 C451.165029,677.156733 445.611553,674.475464 443.068399,667.644058 C440.980736,662.019223 439.585068,656.137918 437.821503,650.157523 C434.960091,653.672316 431.339528,657.140479 428.913167,661.302275 C423.759705,670.144633 415.268901,674.956344 407.306583,680.461688 C399.522373,685.841712 390.929376,687.902209 381.445837,686.1827 C373.31709,681.024172 371.060078,673.443759 371,663.963142 C370.917007,650.055518 374.038283,636.955189 378.438434,624.035554 C380.742163,617.274094 381.816653,616.903962 389.64174,616.831101 C392.260809,620.004907 392.914846,622.901843 391.522097,627.422113 C388.497175,637.246631 386.75405,647.479169 384.844495,657.61553 C384.327689,660.352173 384.549594,663.488091 385.352541,666.160617 C387.498601,673.315524 390.319136,674.122819 397.42595,671.220054 C411.896522,665.309606 421.867669,654.223142 429.62852,641.554148 C434.784902,633.137295 440.169029,624.399857 441.739887,614.041999 C442.227495,610.830305 445.080148,607.708959 447.506509,605.173411 C448.671512,603.958097 451.725632,603.366469 453.276051,604.022214 C454.864427,604.692531 456.34185,607.126074 456.63967,608.979647 C457.080561,611.765835 456.844057,614.814321 456.201699,617.591766 C453.839574,627.751442 451.868703,637.928606 452.400108,648.42927 C452.490622,650.24787 452.230759,652.133501 452.630773,653.873412 C454.741795,663.062586 460.852954,665.825458 469.31164,661.686978 C478.61999,657.131736 485.890314,650.102149 492.705147,642.556709 C495.595758,639.359587 498.480529,636.048803 500.720022,632.397032 C503.438364,627.949623 507.342148,624.326996 507.409303,618.07556 C507.453101,613.829246 510.542258,609.399324 512.942341,605.459025 C514.828537,602.360993 519.252047,602.559174 521.214159,605.628061 C522.732459,608.000401 524.379231,610.812819 524.458066,613.473687 C524.639094,619.559001 524.466826,625.784207 523.345619,631.744201 C522.387922,636.82404 522.478436,641.64158 523.541246,646.954572 C529.480137,635.690329 538.519865,627.30845 547.407762,618.847882 C551.308627,615.131993 555.600746,611.748348 560.053454,608.696948 C570.999817,601.195224 587.391622,606.135171 589.780026,623.286547 C590.752322,630.278247 588.3464,638.31331 585.607619,645.124315 C579.905233,659.30881 571.309316,671.499839 558.508875,680.770617 C551.968504,685.506554 545.504047,689.717894 537.786993,691.953256 C531.059754,693.903005 524.458066,694.7103 518.358586,688.674531" id="Fill-11" fill="#000000"></path>
        <path d="M242.972705,455 L170.821808,455 C169.381905,449.691289 170.307557,444.410891 170.142997,439.22959 C169.987252,434.283287 170.043085,429.325659 170.151812,424.373693 C170.228215,420.995938 172.30579,419.308475 175.702786,419.053657 C176.798875,418.968718 177.90378,419.019682 179.005747,419.019682 C197.36598,419.019682 215.726213,418.960224 234.086446,419.047995 C241.938326,419.087633 242.858101,420.024797 242.946258,427.567414 C243.049108,436.375627 242.972705,445.18384 242.972705,455" id="Fill-13" fill="#000000"></path>
    </g>
</svg>