<svg height="960" viewBox="0 0 960 960" width="960" xmlns="http://www.w3.org/2000/svg"><path d="m107.003683 2.35369047 794.191771 5.17500187c16.491914.10744909 29.804546 13.50709936 29.804546 29.99936326v4.1437149l-.000781.2164277-.541764 75.0944028c-.043783 6.068775-1.887954 11.70826-5.025048 16.411111l-.211407.310978 5.113188 23.863558c1.953269 9.116074-.440007 17.983352-5.627604 24.670127l-.092584.116315 5.719098 26.670186c1.950947 9.097539-.42778 17.950627-5.59541 24.635032l-.127688.160782 5.722192 26.661676c1.948318 9.078905-.41604 17.917579-5.563743 24.59938l-.161449.204944 5.724285 26.653161c1.945688 9.060286-.404342 17.884533-5.532143 24.563683l-.195142.249156 5.726375 26.64464c1.94306 9.041686-.392686 17.851492-5.500608 24.527942l-.228767.292418 5.728464 26.637113c1.940322 9.0226-.380826 17.817546-5.468373 24.491151l-.263091.338736 5.730645 26.628018c1.93754 9.003977-.369479 17.784352-5.437208 24.455067l-.296437.381915 5.73273 26.620481c1.9744 9.168806-.4533 18.109029-5.718366 24.824798l-.017364.021721 5.734814 26.610938c1.971717 9.149901-.441235 18.075423-5.685889 24.788726l-.052925.064336 5.737895 26.60439c1.969036 9.131014-.429214 18.041824-5.653483 24.752611l-.087412.109999 5.739856 26.594284c1.96655 9.112223-.416956 18.008445-5.620858 24.716784l-.121998.153932 5.741933 26.586723c1.96387 9.093377-.405025 17.974865-5.588597 24.680588l-.156336.197689 5.744009 26.579157c1.96119 9.074552-.393141 17.941294-5.556411 24.644352l-.190598.242491 5.746083 26.570586c1.958511 9.055746-.381303 17.907734-5.524298 24.608078l-.225785.287336 5.749155 26.562008c3.87232 17.892133-9.03734 35.001586-27.213882 36.271905l-.552404.033631-809.9650543 42.036136c-14.8061031.768417-27.9530929-9.394055-30.9398219-23.916128l-11.0349462-53.654113c-1.8909958-9.194399.6289779-18.143547 5.9912129-24.824798l.0297405-.036641-6.0217177-29.297828c-1.8566295-9.033095.5436632-17.82637 5.7112251-24.465859l.3074926-.388313-6.0195225-29.305296c-1.8592711-9.052064.5556242-17.860165 5.743554-24.502374l.2729685-.34333-6.0173259-29.313758c-1.8619131-9.071055.5676313-17.893971 5.7759573-24.538849l.2373686-.298393-6.0141276-29.322216c-1.8645558-9.090066.579684-17.927786 5.8084341-24.575281l.2026935-.253503-6.0119278-29.330668c-1.8670886-9.108559.5915035-17.960638 5.8401439-24.610609l.1687839-.209723-6.0098124-29.339535c-1.8695845-9.127551.6038588-17.994307 5.8729828-24.646706l.1338296-.165759-6.0076093-29.346977c-1.8722284-9.14662.6160466-18.028144 5.9056742-24.683011l.0979351-.121012-6.0044047-29.355415c-1.8748725-9.165707.6282795-18.061987 5.9384364-24.71927l.0629683-.077315-6.0021985-29.362847c-1.8775169-9.184813.6405573-18.095835 5.9712685-24.755484l.02793-.033669-5.9998838-29.36975c-1.8427402-9.019931.5530598-17.772745 5.6862133-24.389541l.3106705-.392709-5.9976747-29.377173c-1.845332-9.03869.5648334-17.80601 5.717954-24.425509l.2767207-.349318-5.9954642-29.384591c-1.8479236-9.057466.5766496-17.839279 5.7497611-24.461431l.2427031-.304978-5.9932521-29.393005c-1.6239215-7.964879.0555127-15.714157 4.000657-21.969515l.2715951-.42248-.3374664-.024449c-15.2553522-1.238365-27.2839707-13.889961-27.5395336-29.404446v-81.1780245c0-14.441048 10.2885484-26.8328632 24.4833338-29.4884112l49.8082302-9.31808001c1.883354-.35233632 3.796132-.52343526 5.712119-.51158882zm775.031317 841.50942453-789.499 38.403 6.9337838 33.733744 789.3040002-40.983zm-.007-51.529-789.487 35.81 6.921 33.69 789.291-38.389zm-.007-51.529-789.473 33.218 6.921 33.715 789.277-35.797zm-.007-51.529-789.46 30.625 6.922 33.742 789.264-33.207zm-.007-51.53-789.447 28.034 6.923 33.766 789.25-30.614zm-.007-51.528-789.433 25.441 6.922 33.791 789.238-28.022zm-.008-51.529-789.419 22.849 6.924 33.816 789.223-25.431zm-.007-51.53-789.405 20.258 6.923 33.841 789.21-22.84zm-.006-51.529-789.393 17.667 6.924 33.864 789.196-20.248zm-.008-51.528-789.379 15.074 6.923 33.889 789.184-17.658zm-.007-51.529-789.366 12.483 6.925 33.913 789.169-15.068zm-.007-51.53-789.353 9.893 6.926 33.937 789.155-12.477zm-.007-51.528-789.338 7.301 6.924 33.959 789.143-9.885zm-.021216-51.59683-789.3250002 4.706 6.9392162 34.05483 789.13-7.295zm1.054216-47.25917-775.63001 5.466486-13.41199-.000486 5.271 26.178575 789.464-4.763zm-782.249-82.9969999-33.192 6.21.0008299 62.2529269 32.8065341.000713c-.022461-.283925-.033051-.571158-.031275-.8612zm20.008-1.219-.424096 68.9445849c-.001337.217057-.009579.432456-.024517.64599l770.237613-5.429575.427-59.1414245z"/></svg>