<svg height="960" viewBox="0 0 960 960" width="960" xmlns="http://www.w3.org/2000/svg"><path d="m335.323974 2.66958633c9.39861.94301013 21.751736 3.50184326 37.93372 7.71959787l172.701406 3.6107089c4.032809-1.7463737 8.433641-2.8076514 13.05692-3.0911411 6.804891-.4172617 13.410003-.6272805 19.817826-.6272805 7.31286 0 17.870397.3742883 28.212945 1.0309667 12.69447.8060087 24.318496 1.9667209 33.730429 3.5112402 14.658206 2.4054443 30.02337 6.4266329 43.783299 11.7578035 8.230433 3.1888131 15.87431 6.8333392 22.811846 11.0034551 8.463539 5.0873879 15.859235 10.9335383 22.004162 17.8195571 11.665039 13.07187 19.228068 29.6364598 23.3229 49.1177799 3.470041 16.508856 4.507219 35.391624 3.328713 56.855483l.000001 597.315135c0 17.744526-3.320749 36.074754-9.503742 54.207732-5.75574 16.87996-13.951033 33.435975-24.019091 48.714686-10.061876 15.26933-21.883243 29.094029-34.802385 40.565805-14.022309 12.451351-29.226897 22.054691-45.09566 27.998676-12.398586 4.644156-30.296651 7.578004-56.159661 9.869944-23.366414 2.070695-53.769269 3.588894-91.359749 4.580742-.176744.004663-.353516.008155-.530305.010474-20.233045.265456-34.039834.747959-40.590376 1.360139-5.56866.520418-10.741159 1.22572-15.735351 2.096769-3.333943.581481-6.14992 1.149851-9.978788 1.982694-.34899.075911-1.752342.382342-2.103542.458674-.852111.185204-1.506245.325178-2.139046.45651-2.217159.460155-3.93401.770401-5.959422 1.011632-23.38962 2.78575-81.863337 7.097953-94.410954 7.097953-6.973321 0-13.641313-1.274926-20.428676-3.471417-4.99338-1.615932-10.061639-3.750589-15.315631-6.359151-8.465512-4.203053-17.53137-9.70355-26.967728-16.180879-11.457677-7.864809-24.946982-19.787974-41.177882-36.108689-10.404153-10.461725-16.250152-24.616807-16.250152-39.377601v-789.4496016c0-18.1711366 10.151403-34.8194941 26.303734-43.141548 11.820499-6.0901935 22.953766-11.1082758 33.451874-15.04618632 6.336674-2.37692873 13.225452-4.09800027 20.716027-5.36110196 6.086072-1.0262665 12.551627-1.74014222 19.216627-2.17392218 11.469796-.74649176 23.457401-.63637754 32.135712.23436139zm-58.019925 44.75251617c-6.18481 2.3199634-12.738147 5.1290847-19.660011 8.4273637 13.05921 1.2071273 21.651979 2.0316399 25.815779 2.4777665 3.18206.3409391 5.926005.8421243 8.860196 1.757685 3.933296 1.2273131 7.638795 3.0720556 11.084284 5.6790734 8.154341 6.1699546 14.050857 16.0044308 17.368885 29.8920845.404938 1.6948773 2.992758 12.2431964 3.689693 15.2392734 2.551698 10.96958 4.068837 20.090452 5.166617 32.417593 1.267785 14.236148 1.880946 32.534512 1.880946 58.009059v513.004142c0 27.793628-.645803 50.735417-1.873402 68.222409-1.2016 17.11664-2.9292 28.866835-5.331734 35.439518-.301952.826061-.619135 1.897521-1.039709 3.499979-.169824.64706-.79819 3.109217-.828631 3.227343-.373376 1.448888-.684385 2.605281-1.020487 3.770794-.909342 3.153355-1.888763 5.944114-3.105706 8.670716-2.641106 5.917488-6.22477 11.061639-11.13263 15.465305-5.579729 5.006511-12.646732 8.818757-21.357108 11.381039-14.587799 4.291209-25.645161 7.341808-33.291243 9.174058 12.607213 12.410084 22.951789 21.389634 31.035266 26.938315 14.906484 10.232148 30.718156 18.989703 40.075015 18.989703 3.746105 0 14.989196-.630831 28.678465-1.572295 10.479059-2.909259 19.210065-8.801322 26.33546-17.171636 6.765946-7.948064 11.760048-17.83069 14.545043-27.569124 3.238176-11.323099 5.373413-41.742601 6.112714-89.962155l.000001-430.236164c0-.010473.000017-.020946.000049-.03142.400535-127.477377-.636692-209.938745-3.094931-247.091489-1.128516-17.055895-5.150413-30.4008816-11.87462-40.1685147-4.529727-6.5799153-10.368162-11.6585203-17.649831-15.2873936-16.084676-4.2785248-27.871782-6.7938682-35.361797-7.5453793-11.465595-1.1504012-38.644283-.8176488-54.026573 4.9523511zm378.826951 652.6469775-236.82 9.122.000752 73.725143c0 .025502-.000097.051003-.000293.076504l-.000878.076501c-.768415 50.215755-2.964791 81.523226-6.882414 95.22218-3.530743 12.346128-9.811508 24.774883-18.544933 35.034175-.29002.340691-.58244.678644-.877258 1.013825 7.792062-.69943 14.863651-1.402122 20.314401-2.051317 3.95063-.470528 16.437704-4.198841 36.92482-6.113461 7.931356-.741223 22.527222-1.251302 43.787599-1.530237 68.871498-1.817215 112.554388-5.409477 131.048671-10.776787 1.25739-.620467 2.488999-1.331183 3.707552-2.146079 4.407592-2.947535 8.432999-7.147502 12.039719-12.989138 4.428157-7.172076 8.049946-16.560292 10.669861-28.47879 3.023682-13.755312 4.631854-30.540208 4.631854-50.605212zm2.034679-640.2660574c4.671101 6.8705567 8.289366 14.8466912 11.012131 23.8554131 2.374659 7.8569533 4.048826 16.4262463 5.154978 25.7770303.85241 7.20579 1.355412 14.738013 1.603134 22.980609.181442 6.037198.214278 10.787257.198706 20.216432-.003222 1.951311-.004175 2.700152-.004175 3.686774l.001211 108.237611c.004764.126788.007167.25418.007167.382132 0 .127616-.002391.254674-.007129.381131l-.001702 423.952925.001421.019413c.010353.268796.009998.535521-.000685.799766l-.000283 109.556128c0 21.435187-1.744393 39.641857-5.098224 54.899079-.851767 3.874852-1.806533 7.555941-2.862112 11.048424 27.43266-27.796193 47.858024-69.637036 47.858024-106.902998v-598.174255c2.200963-37.530771-3.297782-63.6912654-16.496235-78.481482-8.851827-9.9193772-24.88232-17.2618312-41.064131-22.1425774zm-414.666679 14.8300571.000193 14.7096901c.727831-.0715973 1.474892-.063949 2.231117.0307717 13.391445 1.6773418 21.839241 2.7738158 25.451278 3.304761 2.509552.3688873 4.653238.8430566 7.092323 1.7101729 3.403384 1.2099325 6.633458 2.9863088 9.622664 5.455844 7.22448 5.9685096 12.178105 15.2647586 14.417579 28.1242616.940397 5.399946 1.609303 9.973577 2.105415 14.476813.75492 6.852441 1.134411 13.747842 1.300043 23.14859.132796 7.537117.1382 12.974073.08445 35.615126-.022048 9.287341-.031999 15.606194-.031999 22.902049v468.615651c0 52.850829-.779831 82.230661-2.567781 93.437076-.61779 3.872151-.905267 5.527694-1.434387 7.974227-.758654 3.507846-1.683622 6.754754-2.884606 9.89823-2.069793 5.417514-4.869729 10.265363-8.610893 14.490431-4.344565 4.906516-9.801645 8.772172-16.402196 11.435959-12.901779 5.206775-21.717403 8.443125-26.804419 9.801738-1.198042.319967-2.403391.408269-3.568501.292409l-.000622 14.657218c6.695838-1.383673 18.999533-4.697481 36.678223-9.89792 5.93685-1.74641 10.358371-4.131568 13.644449-7.08006 2.700512-2.423083 4.677129-5.260407 6.225959-8.730613.798904-1.789972 1.481531-3.735047 2.15226-6.060958.274995-.953609.54025-1.939881.870156-3.220079.015429-.059874.66078-2.588586.851057-3.313571.566107-2.156968 1.038362-3.75227 1.600142-5.289148 1.564494-4.280033 3.089796-14.654308 4.165232-29.973764 1.191122-16.967381 1.824302-39.460748 1.824302-66.821842v-513.004142c0-24.931441-.59459-42.675592-1.802109-56.235001-1.01118-11.354702-2.376406-19.56229-4.725367-29.660315-.663991-2.854457-3.231679-13.320715-3.662287-15.123031-1.247633-5.2219835-2.883331-9.3877789-4.82255-12.6220969-1.57136-2.6207847-3.293326-4.5549968-5.161564-5.9685931-1.529143-1.1570208-3.16529-1.9715588-4.973902-2.5359031-1.504508-.4694541-3.04184-.75025-5.033529-.9636477-5.204381-.5576187-17.814628-1.750643-37.750862-3.5707963zm.001554 34.6174563-.00128 710.732001c4.441723-1.357375 12.153145-4.234122 22.888063-8.566417 6.949554-2.804634 11.15423-7.553166 13.815065-14.517684.808403-2.11593 1.461712-4.409232 2.01944-6.988045.426225-1.970768.671932-3.385763 1.232234-6.897592 1.544152-9.67835 2.317987-38.832303 2.317987-90.285989v-468.615651c0-7.314903.009972-13.647693.032055-22.949529.053332-22.465018.047957-27.873253-.081403-35.215321-.155597-8.831196-.502564-15.135641-1.18287-21.310806-.446953-4.057019-1.056433-8.224322-1.92914-13.235579-.802614-4.608771-2.009124-8.275159-3.521535-11.113434-1.181113-2.216544-2.497935-3.839649-3.930809-5.023419-1.117557-.92327-2.300237-1.573684-3.58386-2.030023-1.01013-.35911-1.973015-.572094-3.301524-.767376-3.393227-.498782-11.685972-1.575508-24.772423-3.215136zm175.80914 481.50417.001306 98.421374 236.82-9.122.002729-81.255023c-19.423207 46.544148-64.367337 79.233094-116.885295 79.233094-55.494631 0-102.532547-36.499524-119.93874-87.277445zm119.93874-154.239185c-59.172295 0-107.140918 49.588187-107.140918 110.758315 0 47.915181 29.432336 88.723975 70.627063 104.159846-36.36158-18.314642-61.307648-56.096786-61.307648-99.709735 0-61.54245 49.673042-111.474501 111-111.474501.517457 0 1.034084.003555 1.549858.010641.520733-.006786 1.042625-.010641 1.564965-.010641 5.063014 0 10.083564.362275 15.034047 1.077446-9.908755-3.128914-20.427999-4.811371-31.327367-4.811371zm14.784748 23.747151c-8.171451.143384-16.071159 1.449458-23.553246 3.76626l-.00097 25.743751c-24.11267 10.960955-41.097964 37.263926-41.097964 67.969323 0 29.494008 15.671523 54.926106 38.27797 66.601062l.000567 14.148004c8.309372 2.896206 17.17247 4.533439 26.380566 4.694271 10.223458-.179718 20.035099-2.052885 29.169732-5.353043l-.000801-13.378463c22.722291-11.6243 38.493469-37.124196 38.493469-66.711831 0-30.106827-16.329527-55.981197-39.696009-67.310896l.001203-25.240222c-8.37396-2.891888-17.299972-4.590112-26.576962-4.892548zm-43.554458 10.264061c-29.146675 15.246298-49.051793 45.88509-49.051793 81.197214 0 26.014537 10.803122 49.492714 28.145742 66.148672-2.458386-3.172144-4.726119-6.522874-6.784143-10.033685-8.71965-14.874967-13.407528-32.146238-13.407528-50.096928 0-18.683062 5.079228-36.623262 14.479173-51.879884 6.918372-11.228894 16.005198-20.712584 26.619231-27.756696zm91.529415 4.479937-.001639 4.048421c10.29124 7.13197 19.075529 16.58159 25.751001 27.684663 9.061159 15.071101 13.945004 32.681127 13.945004 51.002252 0 6.676047-.648424 13.258051-1.911456 19.657673 2.36739-8.145029 3.635882-16.761472 3.635882-25.675732 0-32.135862-16.485305-60.401297-41.418792-76.717277zm-182.640294-200.069205c.050815 23.715468.032058 49.603845-.056093 77.668222l-.001667 151.186138c17.406507-50.777327 64.444133-87.276304 119.938349-87.276304 52.517582 0 97.461443 32.688477 116.884877 79.232093l-.002311-220.810534zm223.91466 99.166682c5.522272-.079764 10.063619 4.33226 10.144448 9.854531.078699 5.522272-4.333324 10.063619-9.855596 10.143383l-205.394572 2.966741c-5.522271.079764-10.063619-4.33226-10.144448-9.854531-.078699-5.522272 4.333325-10.063619 9.855596-10.143383zm-79.756569-323.3900336c-.684429.0374525-1.371695.0773366-2.061798.1196522l-.0201 3.4986159-162.841028-3.4051508c.761191.985649 1.498926 1.9971588 2.213021 3.0344587 8.951243 13.0026419 14.00662 29.7768006 15.357203 50.1889216 1.793199 27.101617 2.835533 77.327266 3.133181 150.785105l236.823585.001364.000453-98.617799c0-1.001653.000961-1.756955.004203-3.719803.015235-9.225128-.016532-13.820445-.189707-19.582596-.231317-7.696736-.696418-14.661405-1.473675-21.231895-2.043285-17.2727649-6.179991-30.9597457-12.879347-40.7875034-7.511524-11.0191849-18.196325-17.1049606-33.623453-17.9153535-18.649963-.9796896-31.983988-1.6865417-40.005083-2.1207207-1.003096-.0542973-2.319651-.1260857-3.95005-.2153858-.034718-.0019016-.069427-.0039842-.104124-.0062479z"/></svg>