<svg height="960" viewBox="0 0 960 960" width="960" xmlns="http://www.w3.org/2000/svg"><path d="m547.26208 108.565374 26.179311 39.970519c2.192429 3.347396 3.833221 6.940961 4.922781 10.656713l.056638.197973 368.619188 396.212476c9.749979 10.479805 13.14856 25.359449 8.943838 39.015131l-.151561.481448-16.600761 51.599961c-5.320292 16.537002-20.706146 27.74956-38.077904 27.74956l-46.0308-.000576 38.829885 69.147552c5.972932 10.636682 6.760789 23.40743 2.163304 34.684501l-.219452.527505-17.040827 40.152559c-5.977586 14.084726-19.466206 23.525506-34.746296 24.319177l-499.415151 25.940367c-16.169273.839856-31.25012-8.15063-38.201128-22.773702l-291.3475996-612.917866c-5.0288096-10.579278-5.16766412-22.831201-.3799114-33.521733l20.558154-45.904125c.6783839-1.514757 1.4503882-2.985824 2.3115359-4.404669l19.9206917-32.821741c7.1274138-11.743274 19.7822028-19.0076633 33.5172082-19.24031l422.0498052-7.1545348c13.728168-.2267739 26.616238 6.5979988 34.139051 18.0838148zm306.839729 666.332706-480.849 26.882-15.61 26.714 484.391753-25.160358zm-789.2980002-588.757-13.5319986 30.215143 287.4909988 604.805857 17.251-29.522zm18.209-34.115-6.932 11.421 297.3639982 618.291192 480.952002-26.888192-57.423-102.26-52.129.719 30.193507 53.360447c3.667752 6.482009-.783499 14.555084-8.222631 14.91309l-361.681323 17.405823c-3.825393.184096-7.419929-1.832797-9.256238-5.193674l-172.25643-315.269686c-.128368-.234944-.247249-.474948-.356357-.719433l-78.9899-176.998577c-.280764-.629128-.491276-1.271789-.634906-1.919186l-42.000875-53.045107-.052607-.066595c-.031432-.040407-.062576-.081086-.093429-.122034l.146036.188629c-.074655-.094283-.147338-.189496-.218054-.285588-.031923-.043289-.063299-.086727-.094351-.130453-.038582-.054116-.076658-.108752-.114117-.16365-.013905-.020934-.027888-.041649-.0418-.062425-.193872-.288035-.370645-.583541-.53065-.884851zm271.8750002 465.036 55.538532 101.647657 282.597-13.6-25.874532-50.728657-246.966571 3.408841c-1.322446.330701-2.734293.394857-4.163379.142004-.961318-.17009-1.866088-.472241-2.69895-.884488-.628916-.263224-1.232495-.592378-1.80032-.983438zm367.155 36.562-32.599.45 25.493532 49.980657 34.697-1.669zm182.462711-60.760781-466.915711.545781-7.828 44.244 463.811711-6.396781zm-611.053711-88.244219 40.358638 73.864704c.578191.252458 1.140757.563559 1.679757.934767l75.111605 51.729529 7.616-43.046zm248.316-325.901-412.019 10.407 113.425072 143.245699c1.768909 1.169691 3.142092 2.885697 3.882585 4.903486l23.652095 29.871431c.555438.444361 1.066609.950564 1.522527 1.513268l35.645325 43.993556c1.198512.935398 2.176772 2.137126 2.847712 3.513571l39.369665 48.592752c1.436011 1.772356 2.148732 3.677066 2.292626 5.538536l81.647393 103.115701 474.427-.553zm-291.176 247.456 22.135 40.513 109.083 72.989-50.333-63.566zm-20.315-41.731 3.501 7.846 28.346 17.5 10.060661.000681c.084754 0 .169504.001077.254231.003232l6.661108.169087-19.863-25.086zm-15.208-34.079 6.231976 13.963658c.038059-.001961.076172-.003709.11434-.005243l.278142-.007053h.279931l21.235611.318638-11.087-14.002zm-21.751-48.739 12.761 28.595 10.005.157zm320.482652-171.143501-415.9186522 7.044501 17.4487492 31.957251 417.114251-10.535251z"/></svg>