<svg width="960" height="960" viewBox="0 0 960 960" fill="none" xmlns="http://www.w3.org/2000/svg">
<path d="M345.552 7.64802C355.013 3.2709 365.735 1.24132 376.865 2.25642L680.169 29.9195C711.8 32.8046 736 59.3392 736 91.0953V868.904C736 900.66 711.8 927.195 680.169 930.08L376.865 957.743C364.575 958.864 352.796 956.271 342.661 950.918L264.267 920.604C240.597 911.451 225 888.68 225 863.305V96.6158C225 71.2987 240.528 48.5671 264.12 39.3746L345.396 7.70564C345.447 7.68556 345.5 7.66766 345.552 7.64802ZM371.293 42.0035C359.669 42.042 350 51.504 350 63.4332V896.566C350 908.595 359.831 918.116 371.585 917.996C372.129 917.987 372.679 917.958 373.232 917.908L676.535 890.246L677.05 890.192C686.119 889.146 693.359 882.5 695.413 873.901C695.472 873.652 695.527 873.402 695.577 873.15C695.79 872.093 695.927 871.01 695.978 869.905C695.993 869.573 696 869.239 696 868.904V91.0953C696 90.922 695.998 90.7491 695.994 90.5767C695.98 90.0027 695.943 89.4342 695.885 88.8717C694.844 78.7911 686.805 70.6901 676.535 69.7535L373.232 42.0914C372.579 42.0318 371.932 42.0054 371.293 42.0035ZM278.643 76.6451C270.423 79.848 265 87.7748 265 96.6158V863.306C265 872.167 270.447 880.107 278.693 883.296L330.551 903.349C330.189 901.145 330 898.879 330 896.566V63.4332C330 61.0328 330.206 58.6839 330.595 56.401L278.643 76.6451ZM361 86.7008C361 69.169 375.97 55.3727 393.443 56.8004L657.443 78.3697C673.012 79.6419 685 92.6491 685 108.27V851.729C685 867.35 673.013 880.357 657.443 881.629L393.443 903.199C375.97 904.626 361 890.83 361 873.298V86.7008ZM381 697.712V873.298C381 879.142 385.99 883.741 391.814 883.265L655.814 861.696C661.004 861.272 665 856.936 665 851.729V687.299L381 697.712ZM431 719C438.623 719 444.84 723.052 448.834 728.258C452.82 733.454 455 740.202 455 747.25C455 753.967 453.017 760.411 449.38 765.5C453.017 770.588 455 777.032 455 783.75C455 790.797 452.82 797.545 448.834 802.741C444.84 807.947 438.623 812 431 812C423.377 812 417.16 807.947 413.166 802.741C409.18 797.545 407 790.797 407 783.75C407 778.227 411.477 773.75 417 773.75C422.523 773.75 427 778.227 427 783.75C427 786.781 427.954 789.159 429.035 790.568C430.108 791.967 430.891 792 431 792C431.109 792 431.892 791.967 432.965 790.568C434.046 789.159 435 786.781 435 783.75C435 780.718 434.046 778.34 432.965 776.931C431.892 775.533 431.109 775.5 431 775.5C425.477 775.5 421 771.022 421 765.5C421 759.977 425.477 755.5 431 755.5C431.109 755.5 431.892 755.467 432.965 754.068C434.046 752.659 435 750.281 435 747.25C435 744.218 434.046 741.84 432.965 740.431C431.892 739.033 431.109 739 431 739C430.891 739 430.108 739.033 429.035 740.431C427.954 741.84 427 744.218 427 747.25C427 752.772 422.523 757.25 417 757.25C411.477 757.25 407 752.772 407 747.25C407 740.202 409.18 733.454 413.166 728.258C417.16 723.052 423.377 719 431 719ZM381 677.699L665 667.286V491H381V677.699ZM424.748 513.489C428.95 511.94 433.944 511.364 439.148 512.908C444.348 514.45 448.824 517.829 452.49 522.568C457.636 529.22 458.943 536.691 457.379 543.857C455.922 550.531 452.116 556.407 448.039 561.186C446.929 562.487 445.751 563.759 444.526 565H447.332C452.855 565 457.332 569.477 457.332 575C457.332 580.522 452.855 585 447.332 585H415.001C410.506 585 406.563 582 405.363 577.668C404.164 573.335 406.003 568.735 409.858 566.423C417.248 561.992 426.785 555.285 432.824 548.206C435.848 544.661 437.37 541.738 437.839 539.591C438.2 537.937 438.031 536.564 436.671 534.805C435.014 532.664 433.847 532.197 433.463 532.083C433.084 531.97 432.552 531.927 431.664 532.254C430.692 532.613 429.515 533.353 428.367 534.463C427.21 535.582 426.445 536.73 426.097 537.461C423.726 542.449 417.76 544.571 412.771 542.2C407.784 539.829 405.662 533.863 408.033 528.876C410.806 523.043 416.833 516.406 424.748 513.489ZM381 471H665V292.726L381 281.329V471ZM428 325.339C431.094 323.553 434.906 323.553 438 325.339C441.094 327.126 443 330.427 443 334V383.815C443 389.338 438.523 393.815 433 393.815C427.477 393.815 423 389.338 423 383.815V351.32L421 352.475C416.217 355.236 410.101 353.598 407.34 348.815C404.578 344.032 406.217 337.915 411 335.154L428 325.339ZM391.814 76.734C385.99 76.2581 381 80.857 381 86.7008V261.312L665 272.71V108.27C665 103.063 661.004 98.7274 655.814 98.3033L391.814 76.734ZM403.299 143.572C406.297 138.934 412.488 137.604 417.126 140.601C421.764 143.599 423.094 149.789 420.097 154.427C417.584 158.316 416 163.307 416 168.875C416 183.11 425.641 192 434.5 192C443.359 192 453 183.11 453 168.875C453 165.224 452.319 161.816 451.137 158.802C449.121 153.661 451.654 147.858 456.796 145.841C461.937 143.825 467.74 146.359 469.757 151.501C471.854 156.849 473 162.735 473 168.875C473 191.228 457.121 212 434.5 212C411.879 212 396 191.228 396 168.875C396 159.528 398.656 150.755 403.299 143.572ZM436 126C441.523 126 446 130.477 446 136V165.9C446 171.423 441.523 175.9 436 175.9C430.477 175.9 426 171.423 426 165.9V136C426 130.477 430.477 126 436 126Z" fill="black"/>
</svg>
