<svg height="960" viewBox="0 0 960 960" width="960" xmlns="http://www.w3.org/2000/svg"><path d="m321.762173 6.10151574 523.439424 52.94089976c10.214276 1.0330764 17.987459 9.6320987 17.987459 19.8984842v808.2307543c0 10.355069-7.903985 18.997734-18.217862 19.920442l-523.439425 46.828345c-2.90039.259477-5.822459-.117527-8.562012-1.104668l-132.749631-47.83358c-7.932321-2.858248-13.220126-10.384207-13.220126-18.815773v-827.2255203c0-9.1903918 6.263347-17.1978969 15.18322-19.4113016l132.749632-32.94089977c2.231514-.55373488 4.5418-.7185435 6.829321-.48718259zm7.986827 41.01148376v865.9120005l404.893-36.222-7.242038-404.04708c-.161625-9.016999-3.797608-17.623606-10.14983-24.025299l-26.222956-26.427181c-6.505135-6.555797-10.155452-15.417012-10.155452-24.652554l-.000724-315.0248865zm-20 1.975-102.749 25.4960005v797.53l102.749 37.024zm461.786 42.708v781.7060005l51.654-4.621v-771.861zm-227.601598 518.2040005c1.005111 0 1.960791.428702 2.61988 1.170685.675567.741984.988634 1.747784.873294 2.737095l-8.386913 72.252714h35.887418c2.372722 0 4.514762 1.220151 5.734078 3.248239 1.219315 2.044577 1.268747 4.501367.148295 6.611898l-59.41691 111.132654c-.609657 1.137708-1.779541 1.846715-3.081243 1.846715h-.148295c-1.005111 0-1.960791-.428702-2.61988-1.170685-.65909-.741984-.972157-1.747784-.856816-2.737095l8.386912-72.252714-35.887418-.016488c-2.372722 0-4.514762-1.220151-5.734077-3.24824-1.219316-2.044577-1.285225-4.501367-.164773-6.595409l59.41691-111.132654c.609658-1.137708 1.779541-1.846715 3.081243-1.846715z"/></svg>