<svg height="960" viewBox="0 0 960 960" width="960" xmlns="http://www.w3.org/2000/svg"><g fill="none" fill-rule="evenodd"><g fill="#000" fill-rule="nonzero"><path d="m807.300107 27.5598579-506.708893 73.0247621c-14.542911 2.094603-25.440511 14.474722-25.930905 29.289779l-23.455806 708.900336c-.519485 15.730732 10.818078 29.354509 26.287866 31.394009l506.813294 66.823575c17.790406 2.346849 33.58275-11.433446 34.078831-29.513494l23.349624-848.7475815c.517175-18.9072336-15.855606-33.8490716-34.434011-31.1713856zm14.445781 30.6245242-23.35385 848.7451639c-.173542 6.324851-5.549284 11.015688-11.471348 10.234469l-506.814064-66.823676c-5.190354-.684284-9.09559-5.377009-8.91304-10.904853l23.455779-708.899562c.17207-5.198294 3.917605-9.453375 8.793852-10.155697l506.70986-73.0249009c6.18627-.8916206 11.769739 4.2038662 11.592811 10.829056z" transform="matrix(-1 0 0 1 1092.9334 0)"/><path d="m285.53318 32.221633c3.418397 4.7351917 4.964508 10.1690286 5.52391 18.0911939l.068818 1.0711915c.010521.1810419.020574.3633518.030169.5469495l.052151 1.117196c.007801.1888272.015164.3789814.022098.5704822l.036533 1.1653216c.005257.196966.010105.3953178.014552.5950752l.021966 1.2155684.012837 1.2502447.004174 1.2858636-1.184565 841.1006274c-.260641 16.456818-7.324 27.706755-18.783838 33.340222-6.267381 3.08094-12.513803 3.976216-17.753779 3.75571l-.359295-.017971-.289506-.019728c-5.505675-.435185-9.61612-5.251204-9.180935-10.756879.427809-5.412358 5.089208-9.476381 10.477542-9.19916l.193079.011423c.67956.028597 1.714811-.011105 2.944199-.187309 1.817482-.260492 3.578396-.764296 5.14548-1.534648 4.609775-2.266089 7.371019-6.576455 7.599859-15.247944l.010508-.582371 1.181261-840.6759841-.002989-.9756536-.008928-.9394129-.02441-1.3423396-.023536-.8511541-.029282-.8167878-.034972-.782957-.040607-.7496616-.046186-.7169018-.051709-.6846775-.057177-.6529888-.062589-.6218355-.067947-.5912177c-.011767-.0960146-.023756-.1907758-.035964-.2842946l-.075878-.5462953-.081095-.5170163-.086257-.4882729-.091365-.4600649-.096415-.4323926c-.016487-.0697892-.033183-.1384476-.050085-.2059865l-.103888-.3918881c-.017726-.0631053-.035656-.1251134-.05379-.1860355l-.111235-.3525885-.116065-.3270581c-.039487-.1048239-.07977-.2054819-.120838-.3020634l-.125556-.2776041c-.127897-.2655529-.262786-.4952202-.404419-.6914116-.067774-.0938809-.146069-.1851134-.23612-.2732779l-.144051-.1298934c-.229766-.1912314-.522185-.3658691-.891347-.5191339l-.257632-.0989577c-.08977-.0318955-.183484-.0626831-.281298-.0923104l-.305891-.0853482c-.053083-.0136271-.10723-.0269509-.162459-.039965l-.344522-.0743151c-.119275-.0234977-.243035-.045704-.371435-.0665663l-.399276-.0585027-.428045-.0501246c-.073789-.0076384-.148817-.0149147-.2251-.0218221l-.472937-.0369673c-.081388-.0054062-.164071-.0104305-.248068-.0150665l-.519917-.0231018c-.089333-.003056-.18002-.0057105-.27208-.0079568l-.568983-.0085285c-.195255-.0011754-.396155-.0006661-.602854.0015805l-.637653.0120042-.673379.0227425-.710033.0337956-.747615.0451632-.661521.0474046-15.51149 1.6638185c-5.398286.5789271-10.253144-3.2519048-10.975633-8.5987736l-.033667-.2778994c-.578927-5.3982858 3.251905-10.2531436 8.598774-10.975633l.277899-.0336665 15.676201-1.681159.289313-.0267816c13.089873-1.0201673 22.330858 1.7311269 28.056783 9.6627276z" transform="matrix(-1 0 0 1 523.89675 0)"/><path d="m591.990936 72.0159546c5.468651-.7718203 10.527552 3.0357128 11.299372 8.5043633.562513 3.9856266-1.307385 7.753607-4.479978 9.8029357l-.08533.0527464-.061142.1564758c-.287808.7482659-.584651 1.700498-.874443 2.8110445l-.191973.7633173c-.063526.2619231-.126526.5311632-.188826.8072193l-.092901.4191336c-.471824 2.1673063-.865734 4.5502707-1.177514 6.9417665l-.063724.498222-.114129.946829c-.017551.151916-.03437.300764-.050462.446355l-.124224 1.214271c-.013547.156237-.030767.312134-.051646.46756l-.211224 1.579723-.419101 3.17847-.41467 3.203953-.410276 3.229578-.405918 3.255345-.401598 3.281255-.397315 3.307307-.393068 3.3335-.38886 3.359836-.575478 5.089445-.378499 3.426297-.374419 3.45313c-.062066.577766-.123963 1.156655-.185692 1.736672l-.551058 5.250656-.542129 5.311989-.356521 3.575638-.352645 3.603251-.348807 3.631009-.345006 3.658907-.341241 3.686948-.337514 3.715131-.499364 5.62585-.491185 5.690061-.322976 3.829283-.477834 5.798145-.469989 5.863634-.30903 3.945709-.305637 3.975172-.452173 6.018308-.297314 4.049447-.439863 6.130388-.432644 6.198275-.425551 6.266642-.418582 6.335489-.275245 4.262143-.407245 6.451299-.40061 6.521423-.394101 6.592028-.387715 6.663113-.254991 4.481803-.377352 6.782652-.572227 10.629372-.570759 10.91748-.445163 8.776162-.256724 5.192504-.547778 11.465049-.5896 13.011748-.592586 13.82029-.763823 18.818093-1.063301 27.59354-1.322763 35.600544-1.280001 35.040156-.577139 15.996344-.555821 15.580801-.878598 25.052673-.334593 9.70328-.483703 14.217194-.610766 18.330473-.432254 13.282381-.541633 17.094878-.380008 12.363802-.357371 11.975094-.441032 15.36729-.303987 11.079706-.280863 10.700937-.174324 6.925004-.163938 6.758871-.226339 9.82874-.137785 6.347405-.127247 6.184363-.116667 6.022206-.106042 5.860933-.095375 5.700542-.084665 5.541035-.07391 5.382412-.063113 5.224672-.052272 5.067815-.041388 4.911842-.03046 4.756753c-.004164.779917-.007871 1.553409-.011119 2.320494l-.013987 4.525775c-.002826 1.483063-.003812 2.940645-.002952 4.372894l.008128 4.220897c.006841 2.072597.017853 4.088525.033061 6.048283l.036016 3.844768c.020812 1.885085.045836 3.714329.075096 5.488232l.064176 3.474161c.093118 4.534222.216474 8.677253.370532 12.438516l1.075306 24.073683.700121 14.686055.280866 5.407586.303869 5.359909.287935 4.513806.220225 3.075618.152156 1.955237.160248 1.895164.120308 1.307159.120383 1.210601.120429 1.115251.12045 1.021106.120442.928169.080277.567742.080253.527331.080222.487276.098001.539805.078265.096545c1.562232 1.972083 2.383456 4.528282 2.111706 7.212291l-.032026.278093c-.707076 5.477398-5.720583 9.344507-11.197981 8.637431-4.181327-.539767-6.920872-3.016006-8.599897-6.195674-.819522-1.551976-1.360398-3.241862-1.803349-5.284335l-.06475-.304802-.126643-.633892-.123013-.667305-.119605-.701956-.116417-.737843-.113448-.774967-.165089-1.234764-.106991-.873187-.104794-.914641-.153552-1.452389-.149847-1.552614-.146886-1.657012-.351966-4.503286-.225733-3.272705-.250997-4.034761-.263067-4.662516-.311963-6.011083-.543278-11.318335-.588707-12.936166-.572815-12.89751c-.164651-3.731949-.298337-7.83822-.401516-12.329299l-.071671-3.440624-.060275-3.58591c-.027295-1.829441-.050333-3.713732-.069137-5.653427l-.03197-3.953426c-.01317-2.013813-.022123-4.083398-.026883-6.209308l-.003936-4.327086c.00082-2.201257.005818-4.459207.014968-6.774405l.023829-4.706889.03486-4.860531c.006727-.822947.013912-1.652336.021554-2.488188l.051325-5.092837.062249-5.248936.073129-5.406018.083966-5.564084.094759-5.723132.105511-5.883164.116218-6.044178.126883-6.206176.137504-6.369157.148083-6.53312.241864-10.109263.174341-6.94733.281049-10.735186.304366-11.115163.327538-11.498459.23116-7.880219.365834-12.144657.523196-16.803449.41877-13.064817.441215-13.464701.62295-18.580712.493021-14.410667.51498-14.82161.906707-25.624902 2.215035-60.906026 1.094313-29.432409 1.04967-27.32716.647252-16.104281.662012-15.663205.605966-13.530774.474794-10.075177.465336-9.479549.440957-8.684974.565053-10.804264.322682-6.041763.502318-9.150259.383976-6.778612.521865-8.926991.39899-6.612527.405641-6.542183.412421-6.472343.278779-4.276341.424011-6.357055.431138-6.288552.586162-8.279042.298015-4.094559.453299-6.086052.306439-4.020395.466115-5.975503.315104-3.947161.318637-3.918127.322209-3.889241.490094-5.780029.498346-5.715874.506729-5.652221.342541-3.733032.346362-3.705113.526794-5.505648.356085-3.635967.360041-3.608569.364037-3.58132.36807-3.554218.559752-5.280838.378322-3.487117.38249-3.460536.386697-3.434103.390941-3.407821.395226-3.381686.399547-3.3557.403908-3.329862.614122-4.946674.414978-3.26592.419473-3.240602.424007-3.215435.181651-1.360777.084589-.848898.059379-.55225.107499-.934952.13017-1.05352.044392-.3439501c.379436-2.9104487.861951-5.8294289 1.467414-8.6106041.805529-3.7001687 1.768911-6.9028593 3.012535-9.5998255 2.334069-5.0617449 5.579274-8.6690624 11.204958-9.4630457z" transform="matrix(-1 0 0 1 1147.449462 0)"/><path d="m758.351687-.4003595c-2.390546 0-4.834582.0998988-7.339326.29325792-.367384.028361-.734359.06179712-1.100819.10029878l-15.676201 1.64700007c-.288502.0303111-.576665.06375974-.86444.10033997l-2.785854.34764863-2.524039.30153762c-.199354.02320237-.395954.04592275-.589792.0681607-.394941.04530938-.789184.09650379-1.182599.15356618l-504.12712 73.12083373c-28.938202 4.0826793-50.759324 28.3607259-51.751756 57.5650499l-23.454272 694.277016c-1.04617 31.025651 21.666352 57.758662 52.453652 61.733813l506.812928 65.444339.88054.106125c1.749693.197462 3.434251.307333 5.111011.349927l.7484.013446 50.2 2.66-.564843-.036592c2.774769.200354 5.557111.300067 8.34193.300067h1.27193c6.358865-.07667 12.704582-.668898 18.973666-1.777174l23.287317-4.127301.90072-.140358c31.347836-5.168926 54.51817-32.305813 54.51817-64.268968v-821.2086324c0-32.6111811-24.745389-59.89814708-57.198893-63.07957614l-.653167-.05862866-.654041-.04791257-1.211789-.07992423-45.110908-3.47768589c-2.201066-.18888307-4.435981-.27967361-6.710405-.27967361zm0 40c.93312 0 1.821312.0288 2.665498.0854784l46.388104 3.5775217 1.3842.09c11.9718 1.1736001 21.101401 11.2392005 21.101401 23.270401v821.2086324c0 12.587401-9.313201 23.236201-21.785401 24.915601l-23.884201 4.2318c-4.3884.7758-8.8326 1.1664-13.282201 1.1664-1.8198 0-3.6414-.0648-5.4612-.1962l-51.366602-2.7216-.2214.0018c-.8406 0-1.6884-.0378-2.5452-.1476l-506.81342-65.444402c-10.330201-1.3338-17.949601-10.303201-17.598601-20.712601l23.454001-694.269028c.328988-9.681137 7.478215-17.749452 17.012914-19.263347l504.63071-73.1952764 2.67982-.3160356 3.704777-.4599444 15.676201-1.6470001c1.5156-.117 2.9358-.1746 4.2606-.1746z" transform="matrix(-1 0 0 1 1016.81164 0)"/></g><g fill="#010101" stroke="#000" stroke-linejoin="round" stroke-width="8" transform="matrix(-1 0 0 1 147.181495 219.016448)"><path d="m10.7164804 152.467926 7.5186003-.414v-25.804801l-6.7572002.378v.0018l-9.38520042.5238-2.09160008.117v25.790401l10.4868004-.5814c.0756-.0072.153-.0072.2286-.0108"/><path d="m.0009 114.364625v9.2988l6.39540025-.3582c-.61200002-1.26-.95220003-2.8314-.94860003-4.6224.0018-1.6092.29340001-3.2562.85500003-4.671z"/><path d="m1.24200005 156.596946-1.24020005.0684v9.298801l6.38640025-.3564c-.76500003-1.593-.93780003-3.348001-.93780003-4.597201 0-1.6164.29160001-3.2742.85500003-4.6944z"/><path d="m18.2347207 109.734484v-24.0822006l-6.7662002.4176v.0018l-10.15740045.6264-1.31040005.081v23.9778006l10.4778004-.594c.135-.0144.2718-.0198.4122-.0198v.0036z"/><path d="m.70938003 72.6069629-.70920003.0432v10.5210004l6.48720026-.4014c-.67500003-1.3950001-1.04400004-3.1806001-1.03320004-5.2578002.0072-1.8450001.32220001-3.7008002.93060003-5.2506002z"/><path d="m18.2347207 43.2761417-18.2340007 1.1124001v24.6546009l18.2340007-1.1124z"/><path d="m18.2347207 15.3180006c0-8.44560033-6.8796002-15.3180006-15.33600058-15.3180006h-2.89800012v26.6526011l18.2340007-1.1124001z"/><path d="m18.2347207 181.908547v-13.347l-18.1782007 1.0062-.0558.0036v24.577201h5.97600024c6.75900026 0 12.25800046-5.490001 12.25800046-12.240001"/><path d="m1.98720008 30.1381212-1.98720008.1206v10.5246004l6.49980026-.3996c-.86400004-1.7712001-1.04940004-3.7872001-1.04940004-5.1984002 0-1.8684001.31320001-3.7476002.92700003-5.3136002z"/><path d="m10.7164804 480.930139 7.5186003-.4158v-25.804801l-6.7572002.3798-9.38520042.5256-2.09160008.117v25.788601l10.4868004-.5796c.0756-.0072.153-.009.2286-.0108"/><path d="m.0009 442.825938v9.3006l6.39540025-.36c-.61200002-1.26-.95220003-2.8296-.94860003-4.6224.0018-1.6092.29340001-3.2562.85500003-4.671z"/><path d="m1.24200005 485.058259-1.24020005.0684v9.298801l6.38640025-.3564c-.76500003-1.593-.93780003-3.348001-.93780003-4.597201 0-1.6164.29160001-3.2742.85500003-4.6926z"/><path d="m18.2347207 438.195977v-24.082201l-6.7662002.4194-10.15740045.6264-1.31040005.081001v23.9778l10.4778004-.594c.135-.0144.2718-.0198.4122-.0198v.0036z"/><path d="m.70938003 401.068276-.70920003.0432v10.521l6.48720026-.4014c-.67500003-1.3932-1.04400004-3.1788-1.03320004-5.2578.0072-1.845.32220001-3.7008.93060003-5.2506z"/><path d="m18.2347207 371.737455-18.2340007 1.1124v24.654601l18.2340007-1.1124z"/><path d="m18.2347207 343.779314c0-8.445601-6.8796002-15.318001-15.33600058-15.318001h-2.89800012v26.652601l18.2340007-1.1124z"/><path d="m18.2347207 510.36986v-13.347l-18.1782007 1.0062-.0558.0036v24.577201h5.97600024c6.75900026 0 12.25800046-5.49 12.25800046-12.240001"/><path d="m1.98720008 358.599434-1.98720008.1206v10.524601l6.49980026-.3996c-.86400004-1.7712-1.04940004-3.7872-1.04940004-5.198401 0-1.8684.31320001-3.7476.92700003-5.3136z"/></g></g></svg>