<svg height="960" viewBox="0 0 960 960" width="960" xmlns="http://www.w3.org/2000/svg"><path d="m726.735243 27.4901209 208.859451 94.4918951c16.437599 7.436675 25.862407 24.956666 23.008542 42.771106l-37.175121 232.055109c-4.401509 27.475172-34.814972 42.173651-59.078195 28.551817l-176.849408-99.286125-41.148798 180.978516c-2.861368 12.584439-11.615211 23.004291-23.491554 28.000787l-.476713.196959-228.228935 92.581738 131.579556 122.674171c21.150892 19.719382 14.995332 54.570372-11.376086 65.96128l-.805315.337959-267.890408 109.170821c-14.322268 5.836617-30.725925 2.893746-42.126085-7.557562l-185.2992801-169.876556c-12.0739786-11.069044-16.1791761-28.380853-10.36097626-43.69272l92.64964026-243.827805c3.8841911-10.222099 11.7839851-18.408335 21.8613161-22.653996l237.973638-100.261592 73.88558-193.921608c3.94578-10.356266 12.007772-18.603424 22.252329-22.788058l.505582-.202518 240.622433-94.4918948c10.050929-3.9469777 21.270676-3.6626767 31.108807.7882767zm-399.661292 594.3537971-86.347 262.134 255.730249-104.214816zm-24.115439 9.286638-251.4415606 95.489362 168.9619996 154.9zm-171.329561-144.618638-83.6119996 220.044 250.4539996-95.115zm264.034568-102.890378-64.868568 225.935378 262.968-106.675zm-17.848568-10.306622-232.932 98.137 168.525 126.187zm277.889-96.603-243.364 93.605 195.341 117.6zm261.556-106.764-249.357 100.373 214.028769 120.160009zm-451.236-2.072-71.591 187.9 240.552819-92.5241zm232.715-99.4230002-217.118 85.2610002 169.985 95.953zm20.753-.337-46.44631 178.5760052 233.45231-93.971005z"/></svg>