<svg height="960" viewBox="0 0 960 960" width="960" xmlns="http://www.w3.org/2000/svg"><path d="m792.282745 33.2261386c9.382729 8.1135536 31.438385 28.4782765 66.880068 61.7253703 16.655658 15.6208961 20.970768 39.4664021 12.558023 59.3330681l-.27964.644423-1.369 74.953 61.063454 38.880252c13.434111 8.553547 22.669118 22.331618 25.485709 37.987983l.10387.595441c.258369 1.528887.453729 3.062055.586662 4.596034l.037305.47229.003851.014244c.654248 2.804573 1.012958 5.72008 1.043607 8.710882v.642025l-2.570458 433.052849.029135.514204c.101645 2.085481.088315 4.171134-.038921 6.248137l-.041214.581659.000769.018805c-.101022 4.427388-.92007 8.674046-2.344309 12.629558l-.11146.299637-.033104.111292c-5.94368 18.857585-21.392015 33.625458-41.205351 38.325204l-.669511.154597-612.700262 137.636517c-55.625452 12.495659-113.811001-3.723643-154.951174-43.192853l-120.6518739-115.751438c-7.2801812-6.984487-12.5761368-15.776108-15.34698074-25.47696-.08319725-.291277-.16404052-.583049-.24252816-.875288l-.07421475-.288071-.0083446-.020458c-1.49964316-4.079634-2.35347272-8.47062-2.43812339-13.048539l-.00684713-.655246-1.05368743-435.560941c0-2.434272.20588574-4.818185.61674931-7.133362l.08825324-.475454.00279119-.032278c2.36893029-23.976236 19.83993946-44.502111 44.23830266-49.976183l.8639818-.186934 12.0629244-2.514605-.808-122.884-.0000008-.063201-.0021315-.227901-.0008329-.227908-.0002183-.270986c-.0002448-.30383.0029721-.607652.0096502-.911409.271915-12.368292 5.1148824-23.701007 13.2814065-32.5669338 5.9832456-6.4956665 13.1870899-11.1864366 21.4277454-14.7356797 11.4425139-4.9282807 25.4907999-7.8514075 43.0155129-9.5328105 32.502684-3.1184598 93.787821-10.4036722 183.587024-21.833234l356.828711-44.76564587c.5309-.06660363 1.063084-.12254815 1.596228-.16779977 7.845645-.66591326 17.823748-1.52737584 29.929799-2.58402287 29.40374-2.56643335 58.032377 7.44721711 81.606655 27.83267011zm115.247441 320.7505884-635.432837 106.849691c-39.099333 6.574655-79.211376-2.598139-111.56705-25.513075l-116.5041051-82.510929.9655704 399.145588.5878233.006427c.0538014 1.323602.264255 2.661997.6441766 3.99212.8263921 2.893236 2.4058876 5.515299 4.5771697 7.598391l120.6518741 115.751438c31.460132 30.182337 75.954963 42.585333 118.492074 33.029829l612.700262-137.636517c6.820319-1.532111 11.754457-6.964727 12.981078-13.421147l.160344.002429.006948-1.06728c.161641-1.297982.174223-2.629911.023634-3.973496l2.408354-405.779767c-3.281135 1.674278-6.869989 2.88306-10.695316 3.526298zm-58.251992-89.630313-.553314 28.337133c-.240502 12.293535-7.856677 22.759171-18.612544 27.172882l-.348336.139571-.309841.194253c-2.28529 1.398634-4.915249 2.363776-7.817758 2.746465l-.437412.053017c-79.853646 8.833421-133.052521 16.385462-158.839716 22.47492-.478366.112962-2.250863.519783-2.484431.574042-.96308.223729-1.730704.409412-2.429155.58976-.097225.025104-.192133.04987-.284642.074265l-.042045.010278-.029839.041296c-.121357.164147-.25488.346701-.402067.549803l-.151796.210031c-.026659.036982-.050573.070168-.0741.102846l-.071786.099797c-.087908.122323-.200007.278697-.437508.610079l-.49543.689792c-2.801351 3.886692-4.895105 6.414932-7.958911 9.107074-4.652521 4.088133-10.13092 6.93097-16.501373 8.182026-64.175845 12.603114-101.633465 19.71812-124.76927 23.693233-15.534727 2.669122-35.766127 2.25563-48.238495-1.865269l-.130439-.043595c-1.01138-.341894-1.934462-.652623-2.778652-.934931l-.704491-.235082c-5.599142-1.864038-7.464293-2.37386-8.82201-2.470675l-.163934-.009855-.160179-.00611c-.079369-.002183-.157824-.003106-.236105-.002985-.167945.00026-.297108.011089-.417014.031691-36.715418 6.308313-92.096096 15.385574-166.170774 27.236938l-2.113633.33731-1.054299.174671c-36.424127 5.879439-73.703678-2.858873-103.794364-24.354789l-81.0682147-57.912788c-6.6726507-4.766749-9.1733331-12.194385-8.17572-19.095254l.0544037-.347254-.1238061-17.423586-26.6557252 5.458959c-7.2838526 2.686791-11.8784483 10.058647-10.9899481 17.85071l-.5453241-.000022.0278679 11.613667c.6286778.611882 1.3073765 1.177644 2.0317875 1.690687l126.0915621 89.300566c28.041584 19.859611 62.805355 27.809366 96.691443 22.111331l635.432837-106.84969c6.906819-1.1614 12.135777-6.335503 13.700419-12.732757l-1.029848-.049664c.667301-2.353212.834873-4.888075.40018-7.46035-.704127-4.166631-2.929972-7.899883-6.21147-10.497035-.189825-.132382-.383551-.26077-.580281-.385407zm-748.063-101.051 1.049142 148.704586 8.381664-.117-8.646 1.786496 81.068214 57.912787c26.064307 18.619587 58.406303 26.074221 89.927678 20.727784 73.142379-11.6979 128.212427-20.713737 165.210144-27.047508l.332998-143.08536c-36.540469 5.684617-86.337327 13.193348-149.402678 22.528183l.122496-.01852c-37.420649 5.776044-82.076404-2.270755-111.557608-21.436645-.498626-.32416-.982545-.670399-1.450314-1.037686zm529.806584 41.405474c-64.121168 11.459551-101.545255 17.928687-124.648962 21.541174-15.275983 2.388548-35.209676 2.017791-47.400479-1.647725l-.121846-.03706-.318297-.097863-.332056 142.641751c1.920164.625321 3.929175 1.321005 6.062724 2.042245 9.518336 3.144879 26.934215 3.144879 38.577354 1.144396 23.032816-3.957417 60.567081-11.090699 124.301909-23.607204 5.904336-1.159517 9.143062-5.270166 12.08947-9.358115l.475609-.662242c.593425-.828026 1.180083-1.648486 1.77986-2.43646l-.286561-132.967881c-3.120996 1.622394-6.510502 2.78941-10.178725 3.444984zm195.087974-37.682092-.213081.019532c-85.605514 7.447111-140.500769 13.758295-163.590899 18.720341-.208455.044797-.669029.141699-1.139054.240318l.299057 139.156055c27.920816-6.166999 80.432225-13.515017 157.534225-22.044051l-.631-1.008991.499816-.006194c5.392418-.074529 9.754407-4.411549 9.85989-9.80345l2.468366-126.155468c-1.66099.424083-3.361452.720331-5.08732.881908zm-111.81261-121.1712544c-12.134869 1.0586713-22.142828 1.922311-30.023877 2.5909192l-356.815729 44.7432671c-90.121444 11.4653251-151.701175 18.7821631-184.739195 21.9505161-33.038019 3.168353-46.3751299 11.136985-40.011332 23.905894l85.895244 67.444014c26.047137 16.933384 66.105032 23.301048 97.605641 18.438789 66.673276-9.868875 118.494797-17.693602 155.464564-23.474182 7.258368-1.134916 14.046869 1.222252 23.058765 3.994634 9.512065 2.860077 26.916471 2.860077 38.55194 1.040759 23.017642-3.59903 60.527181-10.086317 124.220022-21.469319 6.087762-1.087987 9.339852-5.032959 12.361124-8.864559l.488324-.619878c1.948495-2.471782 3.859116-4.828309 6.442768-6.258924 2.334413-1.292607 8.385161-2.436206 11.308324-3.064391 24.212728-5.203292 79.565937-11.567126 166.059625-19.091502 2.778229-.242616 5.393448-1.370621 7.468915-3.201119l.018779-.968309c.246737-.225889.485447-.461938.715467-.707824 2.724904-2.91287 3.85132-6.746544 3.414915-10.41949l-.005885-.044004c-.039031-.275002-.086861-.548938-.143476-.821352-.589527-2.32369-1.828756-4.512009-3.707891-6.273492-34.975187-32.7914953-56.862787-52.9916029-65.664139-60.5988933-15.699657-13.5697165-33.760591-19.819561-51.962893-18.2315541zm46.902753 24.0859484c4.245754 3.6697416 17.243185 15.3318341 39.292634 35.251296.799335.722119 2.024224 1.828922 3.674991 3.320702 12.904408 11.661567 5.801442 33.099395-11.513183 34.748532-3.258562.310362-5.685986.541993-7.280865.694757-72.519347 6.946199-116.133042 11.948224-128.89555 14.690875-.32611.070081-.496579.10586-1.234164.259869-.927159.193591-1.924753.42797-2.936837.684235l-.676255.173879c-3.837319 1.001334-7.703998 2.255078-8.583733 2.742203-2.605279 1.44259-5.363535 3.977956-8.65079 8.088321l-.225492.282792-.02864.038353-.157644.197809c-4.640476 5.822767-10.430352 8.07486-16.00091 7.840808l-.403806-.02397-.63799.114091c-57.106339 10.186029-91.566616 16.134241-113.483285 19.583825l-.673846.105893-.696777.109136c-11.989074 1.874607-25.753424 1.995178-35.06473-.787208l-.159908-.048512c-.0439-.013519-.086822-.02674-.129224-.039806l-.251815-.077655c-.337154-.104051-.699363-.216162-1.320102-.408441-11.871008-3.677141-18.53037-4.636096-24.684925-3.673772-36.967286 5.780192-88.753239 13.599415-155.402199 23.464691l.12208-.018456c-30.773407 4.749349-66.803473-1.20515-91.144789-16.466586-.596687-.374109-1.173198-.779475-1.727122-1.214402l-53.111544-41.701809c-14.162618-11.120121-7.5672-33.82732 10.348913-35.630015l.086819-.008736c33.908661-3.408682 92.726525-10.429756 176.054241-21.020946l2.741592-.348594 356.239562-44.6710183c.264773-.0332015.530185-.0611006.796075-.0836806 7.797116-.6621504 17.628919-1.5108419 29.489002-2.5455404 16.596731-1.4479334 32.604034 4.5995349 46.230216 16.3770803zm-82.893337 60.534517c-1.247411.19793-2.284176.306155-3.750169.425498-.235887.019073-.235887.019073-.447483.03597-.510309.040787-.780235.064152-.92252.07843l-.012072.000927-416.556786 62.372713-.180092.026129-.180322.024489c-3.873073.508055-7.614228.154589-11.050949-.903335l-.067695 4.987215c12.617592 1.766975 25.517521 1.739055 37.007918-.034291 66.577383-9.854681 118.324412-17.667894 155.241008-23.44016 10.624905-1.661307 20.743875.318338 33.692337 4.329229.547978.16974 1.104227.342058 1.669464.516118 6.509245 1.94508 18.375299 1.421161 26.248903.190047l.691564-.10832c22.26923-3.493978 57.937058-9.658224 117.298677-20.254868l1.510853-.269384.305799-.382961c4.316176-5.392022 8.961244-9.961771 14.553659-13.058392 3.634547-2.012514 12.099433-4.491609 17.797246-5.681319.410592-.085732.788286-.164398 1.119977-.235678 5.255347-1.129369 14.789045-2.550038 28.601095-4.262007l-.083836-4.846789c-.819713.197204-1.644702.357157-2.486576.490739zm38.401361-56.9872774c-11.878475 1.036303-21.723437 1.8861226-29.534885 2.5494899l-356.239562 44.6710185-2.70711.34424c-83.653802 10.632636-142.513055 17.656152-176.576728 21.080417l-.084983.008551 53.111544 41.701809c6.080039 3.812043 13.061939 6.886127 20.520442 9.234689l.359932-26.51265c.036148-2.663545 1.110437-5.069714 2.832655-6.838742 3.126642-10.001977 11.861626-17.796496 22.665413-19.213696l418.721616-54.92629c.147204-.0193097.350179-.0498503.701427-.106094.533455-.0863832.911962-.1469332 1.287405-.2033739.712064-.1070454 1.361533-.1914782 2.054897-.2589063 2.663093-.2589804 5.17718-.2171834 8.105158.4522768 7.316433 1.6728469 12.538031 6.4315566 15.166874 12.4930727 1.966721 1.7894922 3.219723 4.3545157 3.269918 7.2227597l.47721 27.300389c21.219222-2.382735 48.76168-5.195999 82.627376-8.439793 1.599183-.153176 4.029681-.385101 7.291495-.695773-1.650044-1.491126-2.874254-2.597315-3.672629-3.318568-21.894655-19.779621-34.882627-31.4332262-38.963915-34.9608142-9.475751-8.1901948-20.278922-12.5554204-31.41355-11.5840122zm-44.330427 31.9289534-418.721617 54.926291c-3.592922.471306-6.505561 3.823086-6.505561 7.48641 0 3.663325 2.912639 6.250967 6.505561 5.779661l416.825357-62.4127c.67791-.088926 1.404359-.145929 2.136897-.204497l.439914-.035596.439337-.037579c2.849407-.254191 5.533159-.735912 5.533159-3.431566 0-3.663324-3.060125-2.541729-6.653047-2.070424z"/></svg>