<svg height="960" viewBox="0 0 960 960" width="960" xmlns="http://www.w3.org/2000/svg"><path d="m802.683015 182c36.309071 0 70.346175 12.894873 90.078338 36.150643l.213647.256357.260153.070507c1.91225.522434 3.524746.913396 4.81638 1.171635l.254043.049878c1.235756.238032 6.211725.82953 13.661833 1.532466l.581072.054279c25.194424 2.348843 44.456814 23.495014 44.451519 48.790318l-.000362 6.481917 43.722012.000363c5.52284 0 10 4.477153 10 10 0 5.522848-4.47716 10-10 10l-43.722012-.000363.000362 9.460869c0 16.402199-6.987701 31.287586-21.256812 41.052392-7.572773 5.18229-13.821579 7.419472-26.389196 10.884737-.798687.220222-1.562987.425549-2.325564.624116l-.653977.168734c-3.057035.781468-6.235827 1.491938-11.626921 2.651929-.072463.015591-.072463.015591-.144752.031146-1.202385.258717-2.282257.493256-3.257001.707864l-1.053154.23325c-2.358154.525676-4.036843.924993-5.350544 1.274782l-.160079.042181-.162593.151986c-17.990012 16.446599-50.863549 28.876045-81.426779 29.153282l-1.041008.004732h-4.30324c-30.85519 0-64.273343-12.524522-82.467787-29.158014l-.163593-.151986-.159079-.042181c-1.313701-.349789-2.99239-.749106-5.350544-1.274782l-1.053154-.23325c-.974744-.214608-2.054616-.449147-3.257001-.707864-.072289-.015555-.072289-.015555-.144752-.031146-5.391094-1.159991-8.569886-1.870461-11.626921-2.651929l-.653977-.168734c-.762577-.198567-1.526877-.403894-2.325564-.624116-12.567617-3.465265-18.816423-5.702447-26.389196-10.884737-14.269111-9.764806-21.256812-24.650193-21.256812-41.052392l-.000362-18.984869-126.814238-3.822337c-3.909163-.117868-7.447008 2.302346-8.753888 5.98847-1.660965 4.684836.790368 9.829124 5.475193 11.490084l213.559124 75.715069c11.559295 4.095918 19.292571 15.020095 19.314229 27.283594.028179 16.01623-12.932659 29.022833-28.950603 29.051069-4.980878.007927-9.729787.012987-14.247229.015169l-9.264763.000294c-18.049471-.00822-31.808813-.070027-41.31814-.186364l.000677 19.787571c0 16.74258-7.050688 31.8338-21.545251 41.800214-7.818904 5.376253-14.435909 7.756559-27.772122 11.451293-3.567641.988398-7.164263 1.849651-11.893194 2.891651l-1.164756.255341c-.77083.168234-1.407239.306161-2.721978.590401-.079271.017138-.079271.017138-.158368.034238-.098701.02134-.164501.035566-.21877.0473l-.149579.032345c-.052573.011369-.114984.024868-.208599.045115l-1.11591.241782c-.589642.128031-1.109153.241395-1.552701.338815l-1.073961.23727c-3.197853.711039-5.590546 1.297082-7.344431 1.792001l-.14838.041615-.319312.304375c-18.793893 17.622727-54.257354 31.234254-87.151005 31.534557l-1.107774.005068h-4.707818c-33.202389 0-69.253719-13.71889-88.258779-31.539625l-.320312-.304375-.145076-.041105c-1.662212-.46929-3.894074-1.019298-6.826342-1.676429l-.468829-.104652-1.078667-.238375c-.490406-.107745-1.009917-.221109-1.5823-.345397l-1.120413-.242763c-.293602-.063504-.293602-.063504-.589704-.127522-.079097-.0171-.079097-.0171-.158368-.034238-.910204-.196781-1.495291-.323437-2.037167-.441244l-.357942-.077901c-.119243-.025978-.239445-.052191-.363701-.079313l-1.16939-.256398c-4.687465-1.032886-8.284087-1.894139-11.851728-2.882537-13.336213-3.694734-19.953218-6.07504-27.772122-11.451293-14.494563-9.966414-21.545251-25.057634-21.545251-41.800214l-.004757-24.802334c-119.148009 5.354402-177.895321 25.399262-177.895321 54.486854 0 8.740171 13.178769 19.430393 40.022266 30.400103 23.143837 9.457828 51.077517 17.588708 100.406295 30.121755 1.756619.446307 5.163664 1.308874 8.750059 2.216208l.674191.170559c.216531.054776.433377.10963.650219.164482l.97469.24654.646573.163533c4.833652 1.222503 9.261386 2.341542 9.646374 2.438707l.874371.221333c8.087863 2.048154 14.219569 3.61433 20.134368 5.148175 35.232081 9.1365 58.132111 16.039821 75.729082 23.386016 10.810372 4.512998 19.195928 9.080125 25.280227 13.994064 7.709044 6.226153 12.143447 13.370837 12.143447 21.61916 0 18.774903-9.02134 32.2918-26.008148 38.546828-12.246574 4.509537-28.521475 5.23138-49.023156 2.41883l-.00078 9.472841c0 17.071632-7.176862 32.364643-21.926143 42.461127-8.01981 5.489886-14.936635 7.966987-28.919478 11.823649-4.114203 1.134754-8.139389 2.081906-13.953483 3.344659l-1.185385.256623c-.463109.099991-.858603.185186-1.638736.353097-.085151.018327-.085151.018327-.170129.036617-7.229612 1.556072-10.829112 2.396551-13.485566 3.191493l-.13008.038462-.280354.272523c-19.426729 18.552943-57.184511 33.128076-92.118637 33.446168l-1.163396.005309h-5.057226c-35.256197 0-73.639451-14.69239-93.2820332-33.451477l-.2813538-.272523-.12908-.038462c-2.5960798-.776875-6.0928276-1.597241-12.998232-3.086498l-.4873345-.104995c-.0849771-.01829-.0849771-.01829-.170128-.036617-.780134-.167911-1.175628-.253106-1.6605297-.357808l-1.1895367-.257538c-5.7881488-1.257127-9.8133347-2.204279-13.9275386-3.339033-13.9828423-3.856662-20.8996672-6.333763-28.9194772-11.823649-14.749281-10.096484-21.9261433-25.389495-21.9261433-42.461127l-.00036222-4.640273-27.59099998.000608c-5.5228475 0-10-4.477153-10-10 0-5.522848 4.4771525-10 10-10l27.59099998-.000608.00036222-18.80483c0-25.640004 19.83301-46.892077 45.4039295-48.701206 4.8584497-.341954 9.977002-1.08659 15.3588636-2.250699 5.5823352-1.207471 12.1047886-2.739065 19.5499867-4.592423l.0732202-.017842.2848377-.333899c17.1471113-19.810146 44.0787833-32.816107 74.4198603-37.492517-10.036277-4.726512-18.216031-9.594977-24.574644-14.752893-10.526589-8.538854-16.416132-18.204153-16.416132-29.142552 0-24.713562 19.967563-42.744835 57.022921-54.760879 32.395234-10.504894 79.346012-17.04706 141.060304-19.755297l.024926-.296768c2.157635-23.248832 20.850884-41.935597 44.615985-43.624472 4.380506-.309691 9.007374-.985803 13.883892-2.045313 4.787081-1.040078 10.327329-2.340334 16.606879-3.898874l.696171-.172536.415326-.477126c20.734401-23.450265 55.661585-36.68071 93.103703-37.003813l1.405236-.006061c9.242683 0 18.340991.785616 27.120196 2.31637l-7.831948-2.775823c-15.095584-5.351995-22.994323-21.928034-17.642327-37.023618 4.211058-11.87751 15.610781-19.675977 28.206973-19.296181l126.254774 3.80658c1.015781-24.031834 19.938073-43.640429 44.137468-45.352001 3.845653-.270588 7.920756-.863244 12.228524-1.794739 4.074959-.881153 8.757441-1.970538 14.036068-3.266609l.660007-.161979.301688-.336695c19.724298-21.70294 52.234255-33.810326 86.956711-34.10962zm-733.0322946 465.992489-25.6510826-.000489.0003622 14.733342c0 8.826033 4.8954449 11.159124 21.4810545 15.737387 3.7052957 1.022804 7.7140687 1.92863 11.7817671 2.812811l1.1635917.252117c.5823863.125846 1.1654999.251436 1.7486277.377047l1.1660634.251333c.9713832.209606 1.9414857.419786 2.9070067.631827l1.1562148.255424c11.3436658 2.522082 21.8655541 5.37497 26.1422991 10.672809 6.813796 8.440626 35.475332 24.283903 67.424762 24.283903h5.057226c31.94943 0 60.610966-15.843277 67.424762-24.283903 4.276745-5.297839 14.798633-8.150727 26.142299-10.672809l1.156215-.255424c.965521-.212041 1.935623-.422221 2.907007-.631827l1.166063-.251333c.583128-.125611 1.166241-.251201 1.748628-.377047l1.163591-.252117c4.067699-.884181 8.076472-1.790007 11.781768-2.812811 16.585609-4.578263 21.481054-6.911354 21.481054-15.737387l-.000362-14.733342-25.590318.000489c-6.377792 0-12.818555.47653-19.325709 1.43136l-.867973.131151-.024992.011007-.102663.039718c-.468854.18347-1.082787.450447-1.727203.752364-.63158.295902-1.243166.602298-1.709218.854548-.074083.040097-.141018.076962-.199387.109642l-.022155.011784-.200885.163496c-5.177827 4.150659-11.126256 7.855841-17.688374 11.064646-.281417.176704-.56456.352421-.849231.526984-17.944219 11.00353-41.392311 17.085143-66.104296 17.085143-24.711986 0-48.160078-6.081613-66.104297-17.085143-.829025-.508365-1.645088-1.026525-2.44785-1.554263-5.562235-2.864535-10.653345-6.096658-15.17214-9.663463l-.200309-.159463.042382.034063-.087914-.044528c-.075333-.038147-.159664-.079992-.251886-.124854l-.144114-.06947c-.7126966-.340571-1.6446592-.744435-2.6155556-1.131419-.9888255-.39413-1.9462132-.742195-2.7030795-.983658-.2172644-.069314-.4059096-.125932-.5567681-.168116l-.0516824-.013955-.3780993-.029482c-10.0701043-.772772-18.0217624-1.167056-23.8013466-1.187272zm193.5959876-34.514526-.112302.216521c-4.901507 9.370046-13.58501 17.179918-24.719305 23.012168-14.755354 7.728995-33.802063 11.948846-53.827867 11.948846s-39.072514-4.219851-53.827867-11.948846c-11.220093-5.877191-19.951478-13.7626-24.83194-23.229054.614463 11.835581 8.177958 22.595228 20.271026 30.79547 15.678944 7.827521 36.391262 12.452085 58.61254 12.452085 21.441388 0 41.473181-4.306345 56.929814-11.634194 12.812011-8.29609 20.87113-19.380001 21.505901-31.612996zm74.112093-35.05859.277689.186992c12.957007 8.862755 21.357752 23.75265 21.36351 40.465239l.000535 14.018192c18.799974 2.82959 32.911336 2.408893 42.112475-.979229 8.964673-3.301048 12.919074-9.226024 12.919074-19.778793 0-1.242555-1.261439-3.274979-4.709721-6.059958-4.363236-3.523935-11.206815-7.251237-20.41888-11.096991-12.747353-5.321627-28.942363-10.537788-51.544682-16.755452zm-250.9218944 26.020286-.2828591.068173c-4.7011399 1.125863-9.0127172 2.112965-12.9347319 2.961306-7.208112 1.55913-14.210451 2.577752-21.0069993 3.056116-4.6241989.32716-8.2087008 4.165799-8.2123136 8.792914l.0001861 6.997597c.172269.506758.3050052 1.031787.3945343 1.571413l.0152973.105885 25.2407-.000574c5.0236621 0 11.3827298.256476 19.1052434.767117-1.8763162-5.357927-2.8687022-10.996187-2.8687022-16.844691 0-2.533086.1861619-5.026732.549645-7.475256zm98.2162094-40.439659c-17.079442 0-32.892221 3.31991-45.810041 8.963122-10.695106 5.915308-17.255841 13.902514-17.255841 22.692376 0 18.225397 28.20606 33 63 33 34.793939 0 63-14.774603 63-33 0-8.928-6.768568-17.027917-17.764434-22.968612-12.797942-5.475281-28.371142-8.686886-45.169684-8.686886zm98.330226 42.332288.004055.048559c.198693 1.821751.299809 3.667198.299809 5.534068 0 5.773225-.967004 11.341584-2.796347 16.637798 4.324385-.373942 8.630653-.560224 12.918461-.560224l25.2397.000574.016298-.105885c.078841-.475203.191188-.939087.334532-1.389141l-.000212-7.436037-.003405-.25268c-.130318-4.53146-3.626572-8.276702-8.167978-8.696421l-.633456-.058588c-6.504075-.604116-11.719121-1.149689-15.645139-1.636721l-.743778-.093533c-2.425607-.30934-4.314678-.594313-5.667213-.854919-1.578664-.304177-3.297107-.683127-5.155327-1.13685zm3.071739-41.232665.504807.617684.168112.211693.14729.043561c3.470953 1.001202 6.333016 1.722542 8.535171 2.160996l.296198.058036c.379487.073119 1.501922.242443 3.090077.445043l.67727.085226c.531594.065946 1.095657.1337 1.691849.203211-1.683874-.428495-3.45488-.877705-5.332133-1.353096l-.867084-.219977.021284.00511c-.189884-.047121-4.280384-1.080887-8.932841-2.257487zm112.582985-117.327498-.606745.000047c-2.871765.005419-7.248865.081955-14.499934.230554-2.839799.058198-4.849731.096955-6.799994.129432l-.778749.012687c-3.328168.053024-6.320136.083139-9.030085.086576l-1.230918-.000322c-3.732342-.006913-6.911165-.068954-9.692311-.196968l.00067 4.322488c0 8.246206 4.557214 10.426024 19.996909 14.703517 3.087939.855499 6.402296 1.623405 9.77973 2.367625l1.127923.247284c1.129812.246582 2.264615.491321 3.398361.736584l1.133169.245525c.566185.122938 1.131601.246203 1.695492.370093l1.125525.2487c.183947.0409.367676.081889.551161.122976l1.097764.247788c10.032069 2.283752 19.164273 4.928519 22.973733 9.664721 6.343025 7.886117 33.02431 22.688568 62.766324 22.688568h4.707818c29.742014 0 56.423299-14.802451 62.766324-22.688568 3.80946-4.736202 12.941664-7.380969 22.973733-9.664721l1.097764-.247788.551161-.122976 1.125525-.2487c.563891-.12389 1.129307-.247155 1.695492-.370093l1.133169-.245525c1.133746-.245263 2.268549-.490002 3.398361-.736584l1.127923-.247284c3.377434-.74422 6.691791-1.512126 9.77973-2.367625 15.439695-4.277493 19.996909-6.457311 19.996909-14.703517l.001232-4.259392c-3.211171.152633-6.968454.222103-11.491954.227709l-1.376293-.000209c-1.399586-.002076-2.869706-.009695-4.416255-.02234l-.33914-.002833-.676452-.006014c-1.91938-.017761-3.897531-.041993-6.833542-.081593-5.828229-.078607-8.110144-.105978-10.214359-.11076l-.322777-.000561-.978768.000223c-2.379156.003591-4.132052.048232-5.001368.102696l-.060683.003012-.145007.05883c-.331808.134082-.725875.304636-1.142728.495089l-.25253.116527c-.583034.271674-1.147063.55271-1.574003.782534-.033084.01781-.06448.034849-.094016.051003l-.056716.030017-.153822.12402c-18.511404 14.759059-47.39733 23.506593-78.655466 23.681805l-.957615.002683c-31.369061 0-60.44408-8.632887-79.16808-23.332452l-.10002-.079613-.031685-.015334c-.06712-.033772-.14277-.071088-.22588-.111288l-.130125-.062378c-.656641-.312079-1.519814-.684101-2.419852-1.040892-.916378-.36327-1.802637-.683725-2.49936-.904793-.176745-.05608-.331527-.102626-.457857-.138439l-.023238-.006319-.064426-.003838c-.867901-.051416-1.942778-.078677-3.499149-.081594zm159.482101-30.951157-.282411.303101c-4.526046 4.831904-10.162294 9.074892-16.651653 12.628588-14.833051 8.122862-34.002231 12.562891-54.154019 12.562891-20.151789 0-39.320969-4.440029-54.15402-12.562891-6.625028-3.627991-12.360901-7.974397-16.934065-12.932412 8.259948 19.342294 36.956354 33.612485 71.088085 33.612485 34.13173 0 62.828137-14.270191 71.088083-33.611762zm22.110632-16.711784.054861.544408c.150254 1.555923.226588 3.129945.226588 4.720547 0 7.821226-1.845628 15.241566-5.249896 22.080563l-.322714.638298.282096.000566c2.791768.003534 6.570749.048112 11.915586.1202 2.90792.039221 4.861173.06315 6.746373.080605l.996562.008684c1.419099.011603 2.768564.018751 4.052061.021119l1.876229-.000072c4.567887-.00934 8.234386-.088122 11.192645-.253385l-.00119-15.940162c0-4.646132-3.53883-8.527735-8.164918-8.958835l-.605912-.056662c-3.889568-.364874-7.271204-.706601-10.144909-1.025181l-.890602-.099835c-4.077348-.462304-7.051599-.87434-8.922752-1.236106-.958068-.185232-1.971438-.400148-3.040108-.644752zm-186.162268-1.840764c-3.927318.936993-7.547629 1.764855-10.868005 2.485516-6.710096 1.456372-13.228638 2.407859-19.555606 2.854695-4.30688.305752-7.64492 3.89486-7.64492 8.219937l-.000362 16.180432.458889.024162c2.595133.129858 5.699186.192604 9.451455.197773l1.159139-.000189c2.555235-.004201 5.396999-.032893 8.564928-.083363l.76601-.012481c1.919512-.031971 3.906475-.070287 6.721545-.127977 7.254344-.148667 11.705867-.229919 14.782479-.238295l1.055464.00033c-3.504953-6.925738-5.407627-14.453641-5.407627-22.394821 0-2.40834.174997-4.778669.516611-7.105719zm92.963553-37.952872c-22.688051 0-42.974489 6.305326-56.453349 16.214208-1.931756 1.445682-3.718806 2.966191-5.348445 4.553411-.785862 2.17756-1.198206 4.428601-1.198206 6.732381 0 19.053824 28.20606 34.5 63 34.5 34.793939 0 63-15.446176 63-34.5 0-2.354685-.430769-4.654273-1.251504-6.876421-13.087781-12.410034-35.853924-20.623579-61.748496-20.623579zm70.638964-22.535798c9.994186 5.820901 18.707617 12.993645 25.64136 21.402649l.314592.387601.123545.034519c2.762295.785064 5.055822 1.357788 6.842955 1.715927l.277965.054765c.102706.019877.515459.087243 1.159005.179401.893371.127933 2.030102.274586 3.390064.435641 2.967619.351443 6.83056.751967 11.531618 1.193427l.594445.055571c25.19369 2.347793 44.453403 23.491964 44.453403 48.789749l-.000533.539191c9.27711.114853 22.8946.177445 40.811406.186816l8.367596.000617c4.923923-.001704 10.129967-.006914 15.617443-.015647 4.970559-.008762 8.99289-4.045296 8.984131-9.015852-.006707-3.805913-2.40669-7.196175-5.995726-8.467914zm144.384055-42.90001-19.055465-.00074.000362 11.13754c0 7.502129 4.165579 9.485256 18.278425 13.37678 2.625645.724004 5.43038 1.379051 8.294021 2.011942l1.076392.236386.539827.117586 1.082034.234299 1.084036.233593.542329.116703 1.626114.350558.270661.058582 1.35045.294089c10.061488 2.204812 19.556358 4.639837 23.331748 9.311625 3.710669 4.5917 15.035984 11.760707 29.835969 16.327308l.696279.212337c8.152571 2.452072 17.324974 4.101672 26.840095 4.101672h4.30324c9.515121 0 18.687524-1.6496 26.840095-4.101672l.696279-.212337c14.799985-4.566601 26.1253-11.735608 29.835969-16.327308 3.444216-4.261982 11.648503-6.662404 20.700546-8.724743l1.048006-.236548c.525661-.117611 1.053644-.234291 1.583196-.350334l1.07995-.23544c.180274-.039124.360671-.078197.541161-.117231l1.626114-.350558.542329-.116703 1.084036-.233593 1.082034-.234299.539827-.117586 1.076392-.236386c2.863641-.632891 5.668376-1.287938 8.294021-2.011942 14.112846-3.891524 18.278425-5.874651 18.278425-13.37678l-.000362-11.13754-20.107114.00074c-5.472777 0-11.000196.398046-16.585414 1.195773l-1.040472.153487.325176-.047572-.193725.076308c-.281945.112721-.61366.253969-.965159.411416l-.266865.120929c-.529865.24285-1.041796.493744-1.425974.697158-.028776.015236-.055974.029753-.081427.043439l-.093592.073361c-3.049331 2.391475-6.397677 4.610591-10.004351 6.64469-2.08929 1.596239-4.300841 3.110194-6.62481 4.535269-15.771258 9.671055-36.281037 14.990572-57.857917 14.990572-21.576879 0-42.086659-5.319517-57.857917-14.990572-2.868009-1.758685-5.564805-3.652733-8.071828-5.670816-2.709671-1.620814-5.260569-3.351122-7.63468-5.184484l-.038755-.02927-.022961-.01117c-.037775-.01844-.078322-.038014-.12142-.058584l-.136719-.064563c-.595447-.278355-1.383318-.612353-2.205773-.933043-.837245-.326456-1.645957-.614077-2.277602-.811208-.104535-.032625-.19993-.061417-.284336-.086046l-.101189-.029386-.303426-.02276c-8.679019-.650423-15.53567-.98306-20.518467-1.002064zm33.189001-35.434906-.061346.518763c-.094572.893477-.142594 1.794734-.142594 2.702869 0 8.970659 4.685862 17.270197 12.638528 24.028439 13.833396 7.884552 33.434146 12.659754 54.652023 12.659754 20.455827 0 39.403489-4.439144 53.125089-11.815145 8.57149-6.905534 13.66002-15.524895 13.66002-24.873048 0-.523794-.015975-1.045301-.047645-1.564346-1.365204 2.510882-3.05144 4.884143-5.018691 7.094569-4.471641 5.024387-10.313104 9.133616-17.177817 12.396054-12.250222 5.821887-27.889691 8.96562-44.293677 8.96562h-.5c-3.923726 0-7.803195-.195854-11.599966-.580511-11.900421-1.155775-23.00128-4.01643-32.193711-8.385109-6.864713-3.262438-12.706175-7.371667-17.177816-12.396054-2.395349-2.691441-4.37407-5.624298-5.862397-8.751855zm-19.893821-2.155403-.03256.008126c-2.645683.61706-5.130597 1.176872-7.454742 1.679437-6.133448 1.326273-12.091802 2.192763-17.875046 2.599683-3.928389.277847-6.974958 3.533046-6.987894 7.460532l-.000403 5.842791 19.055465-.00026c3.971746 0 8.888019.178668 14.769.534378-1.169812-4.087314-1.783939-8.348533-1.783939-12.747652 0-1.816693.104735-3.60987.310119-5.377035zm173.588528 1.318025.013334.144754c.1086 1.291751.163679 2.59682.163679 3.914256 0 4.328363-.594531 8.523228-1.728344 12.550875 3.179401-.225073 6.347832-.337601 9.505044-.337601l20.107114.00026.000362-4.813419-.003763-.262138-.011216-.251098c-.253519-4.41309-3.696663-8.025146-8.149586-8.440286l-.588311-.054955c-8.759224-.826434-14.594995-1.520137-17.507311-2.08111-.578291-.111391-1.178625-.23457-1.801002-.369538zm-86.255796-36.607456c-9.241251 0-18.046698 1.141891-26.060128 3.207733-13.541261 4.2431-22.544893 11.771137-22.544893 20.35063 0 11.613355 16.49719 21.300148 38.413346 23.521267 2.781671.267897 5.645769.427187 8.572291.468148l1.184007.009222.624124-.001852c26.143558-.211939 47.206232-10.874499 47.206232-23.996785 0-9.665621-11.427575-17.996716-27.895882-21.799862-6.171188-1.143625-12.717808-1.758501-19.499097-1.758501z"/></svg>