<svg height="960" viewBox="0 0 960 960" width="960" xmlns="http://www.w3.org/2000/svg"><g fill="#000"><path d="m80.1601478 84.9754581 840.0219292 37.4565789c21.377239.953211 38.21817 18.561813 38.21817 39.960294v646.56737c0 21.612841-17.168282 39.317014-38.770919 39.981112l-844.9820054 25.976051c-3.4784345.106933-6.9559512-.24053-10.3444618-1.033585l-31.0179943-7.259533c-18.0909244-4.234047-30.88461925-20.367733-30.88461925-38.947526v-692.592696c0-17.909452 11.90455105-33.636204 29.14148325-38.4979558l35.978071-10.1477722c4.1084278-1.1588 8.3758607-1.6524913 12.6403463-1.4623379zm7.4550994 40.3722929v709.152l830.7849998-25.54005v-646.56737zm-20 2.624-25.215 7.111773v692.592696l25.215 5.901531zm66.8207308 94.032532.277061.00562 747.681437 24.816916c5.390745.178929 9.668264 4.600783 9.668264 9.994496v494.127466c0 5.433988-4.339371 9.873475-9.771946 9.9974l-747.681437 17.058274c-5.610668.12533-10.228054-4.387928-10.228054-10.000056v-536c0-5.467532 4.379993-9.88382 9.779273-9.997857zm9.945325 20.337116v515.432l727.681-16.6v-474.679z"/><path d="m530 191.228531 18 .514196c4.418278.126214 8 3.810253 8 8.228531v18c0 4.418278-3.581722 7.897683-8 7.771469l-18-.514196c-4.418278-.126214-8-3.810253-8-8.228531v-18c0-4.418278 3.581722-7.897683 8-7.771469z" fill-rule="evenodd"/></g></svg>