<svg height="960" viewBox="0 0 960 960" width="960" xmlns="http://www.w3.org/2000/svg" xmlns:xlink="http://www.w3.org/1999/xlink"><defs><path id="a" d="m0 0h960v960h-960z"/></defs><g fill="none" xlink:href="#a"><use fill="#fff" fill-rule="evenodd" xlink:href="#a"/><path d="m531.424484 23c101.42847 0 202.855118 2.0125077 304.302592 6.0384226l8.925221.3593357c59.802187 2.4415362 107.19171 51.3355751 107.763591 111.1852927.998717 104.641492.716675 212.270574-.845813 322.887933-1.543686 109.286242-4.295728 218.554206-8.256735 327.820553l-.461587 12.587634c-2.117013 57.108705-46.766091 103.529417-103.748409 107.865862-93.172037 7.092522-195.208618 12.800084-306.120055 17.125601-110.075893 4.292931-220.214329 6.88606-330.435114 7.779545l-10.643861.080969c-1.324087.009447-2.646351-.004223-3.966316-.040919l-.175998-.006229-.368991.046168c-3.82747.449622-7.761721.349449-11.692261-.35267l-.512649-.094999-63.520099-12.196499-1.615309-.220187c-52.8525708-7.598575-93.4243892-51.710023-96.1174476-105.568212l-.0711851-1.668796c-4.57538369-129.536404-6.8640583-248.794737-6.8640583-357.785578 0-103.124828 2.04892415-206.246844 6.1477086-309.389562l.3661131-9.076394c2.2649618-55.3149946 44.4662865-100.6182581 99.1962863-106.9965188l.033217-.0038643c2.956953-.343524 5.932937-.570541 8.921417-.6798263 3.729363-.1364765 7.45207-.270869 11.168121-.4031774l55.112745-2.7336564c1.542323-.0764912 3.068599-.0645648 4.573907.0313322l.100485.00744 2.797307-.1029467c117.300081-4.2760701 227.984473-6.4415687 332.058188-6.4960533zm-1.020375 40.000014 1.020375-.000014c-106.029401 0-219.026572 2.2107614-338.991511 6.6323091l-2.494973.0926909-.001173-.0382247c-.939783.0348101-1.879994.0697561-2.820633.104838-37.758654 1.4084046-68.075396 31.6348947-69.596369 69.3891817l-.357196 8.992125c-4.108419 104.908206-6.162629 209.819148-6.162629 314.732826 0 110.786804 2.290639 232.116307 6.871966 363.988507 1.271602 36.582501 29.532666 66.009293 65.191846 69.494641l.049206-.090899c2.524897.277583 5.087949.424979 7.682131.435449l10.509756-.083496c109.607969-.890726 219.153698-3.473901 328.637186-7.749525 110.255623-4.305778 211.637511-9.983884 304.145668-17.034248 36.693009-2.796066 65.441975-32.689018 66.804844-69.46316l.460495-12.571871c3.944475-108.956925 6.685443-217.932058 8.222904-326.925398 1.555977-110.305926 1.836813-217.619593.842526-321.941001-.366326-38.540095-30.880317-70.0275798-69.389914-71.6036739-103.539739-4.2344468-207.081242-6.3547684-310.624505-6.3610571zm-401.244434 9.4496177 5.350349-.1901135c-3.787177.1347547-7.581328.2716834-11.382456.4107862-1.943393.0710677-3.867128.2184856-5.768291.4393531l-.026051.0030313c-35.0274469 4.082116-62.3868705 33.0977692-63.8528947 68.9010762l-.3651229 9.05203c-4.0768056 102.589815-6.1152084 205.182292-6.1152084 307.777432 0 108.497964 2.27971 227.289167 6.8391299 356.37361 1.2774704 36.167263 28.9334266 65.328835 64.0287571 69.329588l2.692767.517134c-13.476533-15.44624-21.9108373-35.443963-22.6766301-57.474912-4.5890345-132.094064-6.8840239-253.65335-6.8840239-364.682901 0-108.179666 2.1786751-216.35636 6.5360203-324.530028 1.0601693-26.315755 13.0808717-49.7662014 31.6236547-65.9260863zm485.998563 202.1735893c84.515843 27.824083 137.472059 109.332112 136.835445 197.788106.144234 23.18388-3.387357 46.87616-10.98622 70.254621-36.63645 112.714738-154.049129 175.778097-262.395007 140.587082-108.347508-35.191544-166.256864-155.202717-129.619919-267.918978 30.074449-92.526261 114.580635-151.594525 203.820741-150.319428 20.68079-.278286 41.681457 2.805813 62.34496 9.608597zm-62.373015 10.404042-1.092098.018745c-75.934387 1.629591-147.102527 53.686139-172.96121 134.323642-32.341025 100.85198 18.574728 207.803866 113.363987 239.010136 94.729448 31.18658 197.848829-24.952557 230.172183-125.749436 6.434292-20.064642 9.573143-40.370729 9.726689-60.273741-.558086-80.225165-49.502448-153.486106-126.785554-178.587854-17.355423-5.637085-34.98276-8.469565-52.423997-8.741492zm-332.285223 247.972737c3.589851 0 6.5 3.134007 6.5 7s-2.910149 7-6.5 7-6.5-3.134007-6.5-7 2.910149-7 6.5-7zm39 0c3.589851 0 6.5 3.134007 6.5 7s-2.910149 7-6.5 7-6.5-3.134007-6.5-7 2.910149-7 6.5-7zm20-19c3.589851 0 6.5 3.134007 6.5 7s-2.910149 7-6.5 7-6.5-3.134007-6.5-7 2.910149-7 6.5-7zm551.5-98c28.932089 0 52 25.264855 52 56s-23.067911 56-52 56-52-25.264855-52-56 23.067911-56 52-56zm-590.5 98c3.589851 0 6.5 3.134007 6.5 7s-2.910149 7-6.5 7-6.5-3.134007-6.5-7 2.910149-7 6.5-7zm-39 0c3.589851 0 6.5 3.134007 6.5 7s-2.910149 7-6.5 7-6.5-3.134007-6.5-7 2.910149-7 6.5-7zm629.5-78c-17.45983 0-32 15.924948-32 36s14.54017 36 32 36 32-15.924948 32-36-14.54017-36-32-36zm-610.5 58c3.589851 0 6.5 3.134007 6.5 7s-2.910149 7-6.5 7-6.5-3.134007-6.5-7 2.910149-7 6.5-7zm-39 0c3.589851 0 6.5 3.134007 6.5 7s-2.910149 7-6.5 7-6.5-3.134007-6.5-7 2.910149-7 6.5-7zm118 0c3.589851 0 6.5 3.134007 6.5 7s-2.910149 7-6.5 7-6.5-3.134007-6.5-7 2.910149-7 6.5-7zm-40 0c3.589851 0 6.5 3.134007 6.5 7s-2.910149 7-6.5 7-6.5-3.134007-6.5-7 2.910149-7 6.5-7zm-19-19c3.589851 0 6.5 3.134007 6.5 7s-2.910149 7-6.5 7-6.5-3.134007-6.5-7 2.910149-7 6.5-7zm39 0c3.589851 0 6.5 3.134007 6.5 7s-2.910149 7-6.5 7-6.5-3.134007-6.5-7 2.910149-7 6.5-7zm-78 0c3.589851 0 6.5 3.134007 6.5 7s-2.910149 7-6.5 7-6.5-3.134007-6.5-7 2.910149-7 6.5-7zm19-21c3.589851 0 6.5 3.134007 6.5 7s-2.910149 7-6.5 7-6.5-3.134007-6.5-7 2.910149-7 6.5-7zm-39 0c3.589851 0 6.5 3.134007 6.5 7s-2.910149 7-6.5 7-6.5-3.134007-6.5-7 2.910149-7 6.5-7zm118 0c3.589851 0 6.5 3.134007 6.5 7s-2.910149 7-6.5 7-6.5-3.134007-6.5-7 2.910149-7 6.5-7zm-40 0c3.589851 0 6.5 3.134007 6.5 7s-2.910149 7-6.5 7-6.5-3.134007-6.5-7 2.910149-7 6.5-7zm-19-19c3.589851 0 6.5 3.134007 6.5 7s-2.910149 7-6.5 7-6.5-3.134007-6.5-7 2.910149-7 6.5-7zm39 0c3.589851 0 6.5 3.134007 6.5 7s-2.910149 7-6.5 7-6.5-3.134007-6.5-7 2.910149-7 6.5-7zm-78 0c3.589851 0 6.5 3.134007 6.5 7s-2.910149 7-6.5 7-6.5-3.134007-6.5-7 2.910149-7 6.5-7zm19-19c3.589851 0 6.5 3.134007 6.5 7s-2.910149 7-6.5 7-6.5-3.134007-6.5-7 2.910149-7 6.5-7zm39 0c3.589851 0 6.5 3.134007 6.5 7s-2.910149 7-6.5 7-6.5-3.134007-6.5-7 2.910149-7 6.5-7z" fill="#000"/></g></svg>