<svg height="960" viewBox="0 0 960 960" width="960" xmlns="http://www.w3.org/2000/svg"><path d="m480 1c198.588557 0 360 157.186591 360 351.624183 0 107.056295-49.32757 206.193579-132.419326 272.46529l-1.511674 1.193527-2.322027 2.057237c-24.488848 21.74431-43.15764 39.874412-55.847749 54.140695l-.479028.5399c-5.774751 6.525315-10.087485 12.017446-12.882649 16.281292-.918714 1.401439-1.593687 2.54933-2.027855 3.394157l-.094692.185719-.086481.382593c-.008412.0374-.062127.280519-.151375.684585l-.057734.261396c-.010307.046665-.02095.094851-.031919.144512l-.069646.315307c-.367012 1.661467-1.009843 4.570002-1.664679 7.516811l-.155187.69805-.154857.695912c-.591991 2.659005-1.159541 5.192237-1.505221 6.69509-1.794868 7.803245-3.511817 14.629726-5.408437 21.280473-4.974662 17.444306-10.711084 32.019631-18.353365 44.437941-5.254098 8.537636-11.352783 15.911584-18.670273 21.944054-4.46757 3.683024-9.299065 6.777936-14.45327 9.195172l-.633556.292104-.04555.372752c-.932038 7.518188-1.54918 12.194798-1.927489 14.593194l-.009961.054054c-.205375 1.324879-.399399 2.793056-.607114 4.611786l-.083876.746679c-.169449 1.532715-.349799 3.30747-.553872 5.430376l-.024138.244159-.033124.61085c-.331008 6.14404-.536592 10.548502-.669514 14.650261l-.012362.354889-.030744 1.269082c-.112825 4.884381-.113058 9.507872-.003048 13.837318l.032734 1.173443c.012323.405195.018486.810553.018486 1.215934v1.947433c0 9.527482-3.400729 18.742098-9.590101 25.985342l-11.858327 13.876448-.432222.598609c-1.21497 1.635438-2.581473 3.217319-4.104971 4.731923l-.774858.751633-4.886154 4.625152-12.345259 11.797641c-.588003.561892-1.192687 1.105413-1.813158 1.629869l-.626378.517173-.071573.063794c-.040907.035914-.081887.071745-.12294.107492l-.123379.106989c-10.640603 9.189116-22.786585 12.862615-39.776004 13.629081-.600532.027093-1.201597.040644-1.802739.040644h-.178123c-.610273 0-1.220466-.013966-1.8301-.041888-16.958839-.776722-29.044521-4.590124-39.449771-13.523566l-.424371-.368546-.016169-.013366c-.630945-.51172-1.246399-1.042741-1.845467-1.592366l-.593574-.555801-12.481903-11.928023-4.748551-4.494279c-2.101309-1.989064-3.921897-4.101795-5.474712-6.305675l-.017624-.02449-9.614-11.392-.369401-.375133c-6.842336-7.054413-11.108119-16.62213-11.279383-27.185184l-.005359-.661473v-1.947433c0-.404368.006132-.808714.018394-1.212897.153353-5.055082.153353-10.525001-.003859-16.355046l-.003522-.139688c-.052136-2.221367-.148931-4.6956-.295865-7.680602-.078361-1.591911-.161798-3.160962-.296633-5.613634-.039566-.718937-.039566-.718937-.07938-1.44163-.010753-.195286-.020588-.374071-.029791-.541538l-.006201-.100742-.025393-.27209c-.475736-4.952957-.823313-8.015663-1.205896-10.528529l-.015711-.102381-.012859-.074786c-.019331-.115731-.040131-.239952-.06233-.372247l-.070723-.420691c-.436205-2.590482-1.279223-7.526495-2.151807-12.582755l-.149805-.86755c-.099969-.578598-.200043-1.157106-.299658-1.732202l-.053818-.310769-.091176-.045158c-4.227403-2.15438-8.227124-4.771594-11.975312-7.79981l-.560339-.457308c-7.31749-6.03247-13.416175-13.406418-18.670273-21.944054-7.642281-12.41831-13.378703-26.993635-18.353365-44.437941-1.991875-6.984772-3.775152-14.120116-5.671927-22.430495-.157345-.68938-.373671-1.651695-.624677-2.775061l-.154571-.692451c-.923668-4.14159-2.212616-9.981948-2.824886-12.724077l-.013474-.058645-.110086-.216602c-.538435-1.041031-1.384655-2.44608-2.539446-4.154896l-.252179-.370803c-3.486142-5.094253-8.819372-11.617417-15.929699-19.35905-15.410872-16.779158-38.215885-38.272461-68.239671-64.2228-.811423-.701334-1.585125-1.421599-2.321674-2.159092l-.216245-.222757-2.02557-1.820982c-72.034686-65.315975-114.226664-156.65196-115.080224-254.690596l-.013206-3.034239c0-194.437592 161.411443-351.624183 360-351.624183zm-1.347671 907.968109c-7.632724 0-14.565216-.326214-20.797475-.978643l4.184303 3.996382.310937.194744c.06294.059491.12588.118983.18902.178441l.190227.17824.192646.17783.199329.179935c2.11704 1.885221 5.062607 3.629584 15.441926 4.104962h.178123c10.235367-.461762 13.324394-2.120856 15.434755-3.943342l.198225-.174032c.097831-.087229.193886-.174755.288832-.262464l.282176-.263572.186394-.175998.310937-.194744 4.215892-4.027334c-6.251678.673063-13.25376 1.009595-21.006247 1.009595zm-54.454097-104.606954.026701.133789c.015891.090892.031777.18178.047658.272657 17.372454 2.317395 41.25125 3.49318 71.527436 3.49318v20c-27.701789 0-50.340164-.964251-67.991215-2.917158.072061.422602.126051.744834.160968.955199.157954 1.015547.305898 2.058482.44621 3.127508 16.91728 2.22777 39.410108 3.358403 67.384037 3.358403v20c-26.487073 0-48.361156-.990524-65.694498-2.998085.06183 1.262215.118215 2.523218.167458 3.776463 16.730801 1.834952 38.598475 2.7651 65.52704 2.7651v20c-26.321273 0-48.071227-.870539-65.315132-2.632553-.012696.667578-.028236 1.329482-.045989 1.986563 16.129327 2.299926 32.228507 3.450681 48.297514 3.450681 16.759424 0 32.85928-1.251765 48.299569-3.755295l.033439 1.21317c-.177679-5.842297-.177679-12.073594 0-18.646178.178122-5.696727.488615-11.73328.799552-17.42952.48906-5.161183.977231-9.932392 1.643525-14.216257.04333-.243824.099839-.604373.16953-1.081649l.043396-.300373c.239883-1.676693.614747-4.548667 1.124678-8.61595l.097195-.776623c.381459-3.053251.833736-6.733203 1.356862-11.039869-29.321827 1.27292-80.161651 1.232055-108.105934-.123203zm55.816582-763.3385791c-176.577858 0-319.722495 139.5914011-319.722495 311.7861211 0 73.230138 25.888991 140.563673 69.228538 193.771636 11.060706 13.527376 23.252928 26.139366 36.437126 37.699277l-.13455.01036c.111589.098254.22325.196433.334982.294536l1.511851 1.311694c58.866667 51.022486 91.281897 85.991314 97.24569 104.906482.264126.806947.482856 1.586497.654403 2.337371 2.188355 9.578561 4.8183 22.712841 8.506821 36.002724 7.061046 25.275645 17.979293 50.997537 37.006163 53.763281 2.174565.316095 5.366365.596402 9.348643.840409.027299.129819.055603.266056.084874.408479 13.220555.813727 35.124945 1.23137 57.260301 1.253167l2.604716.000738c.434127-.000181.868215-.000515 1.302201-.001001l2.602177-.00474c19.066147-.048157 37.687375-.390937 50.435536-1.028189.014205-.135587.030495-.272314.046822-.409371 5.83635-.29154 10.441523-.644704 13.295043-1.059492 25.458746-3.700681 36.400174-48.501034 43.011274-78.34007.768125-3.477172 1.477772-6.74576 2.145108-9.716836l.386969-1.709099.016993-.072053.066787-.289225c3.867792-16.906092 31.699414-48.356089 83.497708-94.349193l3.20127-2.834075c21.863511-17.122137 41.367476-36.985286 57.961812-59.053764 38.601686-51.525306 61.385732-115.034474 61.385732-183.733046 0-172.19472-143.144637-311.7861211-319.722495-311.7861211zm2.968514 136.7307381 74.693661 24.853025c12.210077 4.062692 18.814838 17.254379 14.752146 29.464456-2.456417 7.382552-8.435705 13.051838-15.938459 15.112113l-109.500211 30.068499 108.286632 28.456712c12.321213 3.237886 19.734281 15.757275 16.707858 28.08336l-.094911.373449c-2.309158 8.787101-9.515385 15.430543-18.460872 17.019134l-118.712707 21.081345 114.360076 27.206531c12.39365 2.948498 20.097827 15.290878 17.360849 27.684447l-.086141.375568c-2.23366 9.388919-10.024337 16.42901-19.590753 17.703331l-58.006031 7.726123 1.334517.3555c33.633693 8.955383 54.58638 15.214552 63.506008 18.999022l.409297.175585c14.745239 6.398054 24.749964 17.397601 25.252995 31.018169.553602 14.989894-10.315354 26.298915-26.807093 31.558842-10.197374 3.252382-35.74693 6.276883-78.272335 9.376633l-.268389.019249.342442.134052c40.49354 16.010356 65.031138 35.359341 73.274538 59.466892l.329596.993404c2.790539 8.674915-1.97969 17.969503-10.654606 20.760042-8.674916 2.79054-17.969503-1.97969-20.760043-10.654605-6.093619-18.94316-39.142434-38.353919-100.008592-54.578484-9.714893-2.586617-16.675238-11.112639-17.265031-21.148667-.754936-12.846141 9.046988-23.872004 21.899519-24.627124 69.739613-4.070508 111.529152-8.04699 121.355447-11.18102l.16073-.05349-.239572-.122249c-.345435-.173661-.708498-.346601-1.088979-.51791l-.386277-.170732c-10.876289-4.719291-53.529475-16.531419-125.461025-34.584113-7.911534-1.97747-13.815881-8.58174-14.898386-16.664496-1.458903-10.893207 6.189111-20.90657 17.093844-22.367012l72.844395-9.704488-86.469564-20.57098c-9.762356-2.322502-18.601139-7.512687-25.382965-14.895699l-.430078-.474228c-2.778187-3.102846-4.635806-6.91912-5.36403-11.01981-2.162003-12.174419 5.954663-23.796386 18.129082-25.958389l113.278555-20.116894-100.520457-26.415879c-7.903583-2.076979-14.130864-8.138739-16.430884-15.958984l-.115453-.406052c-3.40751-12.408881 3.889544-25.2306 16.298425-28.63811l113.484369-31.163975-44.359726-14.759907c-8.543685-2.842764-13.211888-11.99726-10.546343-20.556296l.099544-.309092c2.877014-8.646621 12.218767-13.323812 20.865388-10.446798z"/></svg>