<svg height="960" viewBox="0 0 960 960" width="960" xmlns="http://www.w3.org/2000/svg"><g fill="#000" fill-rule="evenodd"><path d="m202.161757 331 242.853313.006291c92.098879 0 167.808513 70.357004 167.808513 158.552311 0 73.202105-52.156367 134.115403-122.550473 152.710384l-2.230269.571106 152.020314 155.118507c63.252206-58.118586 104.362213-140.111522 108.884702-232.012053l.043603-1.12893c.011305-.357452.02233-.758113.033019-1.197384l72.975521.000186-.065897 2.784587c-.023858.851943-.049593 1.623217-.077167 2.300575l-.037178.832677c-6.727578 136.70967-79.980176 255.367004-187.64655 324.940389l-314.718674-319.385244h125.560536c52.962468 0 94.84829-38.924518 94.84829-85.5348s-41.885822-85.534799-94.84829-85.534799l-338.484237-.003756c-20.8836178 43.938556-32.5706102 93.10122-32.5706102 144.995672 0 186.653893 151.1941572 337.966769 337.7016032 337.966769 50.790622 0 99.041944-11.250839 142.348544-31.426785l54.285172 54.331258c-58.469582 31.97011-125.502787 50.113039-196.633716 50.113039-226.802264 0-410.661826-184.00393-410.661826-410.984281 0-79.644971 22.6373933-155.041652 61.8241995-218.015719l139.3375575.006291zm619.801273 201.798744.019334.567459c.006159.200181.012034.411299.017636.633797h-72.957217l-.175323-3.858211c-9.327533-173.781628-149.58963-311.974105-322.86746-319.099238v-73.042551c214.307861 7.238084 387.812092 179.30226 395.96303 394.798744zm134.03697 1.201256h-73.01018c-7.57195-249.64761-208.512999-450.612239-457.98982-457.9221353v-73.0778647c286.889007 7.2785442 518.706925 236.353527 530.70391 522.315001zm-560-396v72.838678c-83.632537 3.671578-159.369028 37.638816-216.433971 91.161322l-97.566029-.00438c72.141758-95.980201 185.55412-159.363164 314-163.99562z" fill-rule="nonzero"/><circle cx="455.042628" cy="488.274056" r="42.7517"/></g></svg>