<svg height="960" viewBox="0 0 960 960" width="960" xmlns="http://www.w3.org/2000/svg"><path d="m414 214c14.640844 0 29.058999.952947 43.195764 2.800168-11.753055 30.472478-18.195764 63.583767-18.195764 98.199832 0 54.096482 15.734436 104.51799 42.876464 146.937679l-179.444238-.002391c-12.886644 0-23.333333 10.441268-23.333333 23.321225 0 12.879958 10.446689 23.321226 23.333333 23.321226l217.069214.002498c49.359895 49.085801 117.386789 79.419763 192.49856 79.419763 9.888701 0 19.654603-.525765 29.271277-1.550866-20.911868 162.022698-159.46464 287.208391-327.271277 287.208391-53.803081 0-104.598845-12.869175-149.474006-35.695753l-137.921603 39.69373c-25.444251 7.324078-48.8633491-16.498108-41.0892217-41.796448l40.3135037-131.190076c-26.6418455-47.58159-41.828673-102.438286-41.828673-160.840215 0-182.159396 147.746033-329.828763 330-329.828763zm-111.567774 367.307815c-12.886644 0-23.333333 10.441269-23.333333 23.321226s10.446689 23.321226 23.333333 23.321226h153.457423c12.886644 0 23.333333-10.441269 23.333333-23.321226s-10.446689-23.321226-23.333333-23.321226zm409.567774-498.307815c128.130062 0 232 103.869938 232 232s-103.869938 232-232 232-232-103.869938-232-232 103.869938-232 232-232z" fill-rule="evenodd"/></svg>