<svg height="960" viewBox="0 0 960 960" width="960" xmlns="http://www.w3.org/2000/svg"><path d="m669.678549 116.820629 221.765104 522.371115c2.278305 5.366583 4.177751 10.88622 5.684383 16.518355 6.905004 25.812488 5.32638 52.659403-4.07312 77.052529l-.241916.617372-.170799.594534c-6.617889 22.475195-22.135745 43.121094-43.224332 62.111257l-.729396.654177c-16.463845 14.706906-35.885801 27.702634-50.058559 33.664296l-1.124914.470736.000064 1.655895c0 17.094297-6.546436 32.741925-19.720519 44.84485l-.49096.446632c-10.989028 9.899283-25.507734 16.653802-44.729205 21.886077-8.791138 2.393034-70.705196 19.526311-79.549839 21.964843-.301012.08299-.301012.08299-.605692.166984l-3.967236 1.093254c-39.003231 10.743869-65.061827 17.792093-78.336557 21.111898-35.419514 8.857873-72.090988 13.354567-113.101153 13.354567-21.139413 0-40.442856-2.205951-59.510094-6.517863-15.169372-3.43044-28.771465-7.730895-47.749881-14.655073l-1.779683-.650965-.88295-.32405c-20.577529-7.559689-45.338403-16.71831-70.251117-25.984963l-4.983373-1.854329c-56.474093-21.022043-112.347435-42.088469-120.670584-45.83682-11.915471-5.366163-19.600434-10.130117-26.345523-18.33603-4.837381-5.885042-8.029079-12.591033-9.615248-19.785177-1.006794-4.566361-1.240499-8.099762-1.240499-12.715324v-60.331056c0-19.604789 3.667423-37.409445 10.699733-54.352799 5.376585-12.954121 11.829716-23.868881 21.853646-38.386117l.918398-1.326206.893198-1.283784c.289607-.415425.589016-.844197.906597-1.298369 5.384144-7.699852 13.404639-20.034386 24.455733-37.483101l1.246208-1.968944c2.43995-3.857444 4.952956-7.843641 8.112675-12.865383.735547-1.169005 6.12695-9.741982 7.609173-12.096356 5.763559-9.154878 9.259427-14.660378 11.909147-18.723885l.045541-.071406.026959-.050469.031738-.063364c.170793-.344603.383352-.829579.622581-1.442354.629866-1.613365 1.296657-3.731422 1.950606-6.270048.789387-3.064388 1.517228-6.570713 2.167805-10.42726l.043311-.263505-89.33585-213.471356c-.080987-.193523-.160385-.387702-.238187-.582519l-.228609-.586344c-23.7536185-62.430899-30.8976452-118.293555-20.2797694-167.472549 7.4213164-34.373439 24.8984354-61.95091 50.8844574-82.4924177 21.071605-16.6567454 46.646747-28.0366472 77.278867-36.0486356l.262532-.0813932c4.466078-1.3710357 9.014717-2.5179978 13.632809-3.435976l1.387498-.2685191 221.627493-41.73028544c86.563697-16.29909616 172.797658 29.87489714 207.219308 110.95562404zm-434.789248 474.556339c-4.842216 7.415165-13.424263 21.155232-22.72124 35.908204l-.860125 1.364535-.863657 1.36936c-1.009455 1.600041-2.025043 3.208038-3.042986 4.817356l-1.252089 1.978239c-.512491.809179-1.025186 1.618005-1.537605 2.425634l-1.024326 1.613412c-8.530611 13.427647-16.895524 26.366736-22.871204 34.912541l-.875282 1.253517-.872569 1.254163-.869238 1.255379c-.271776.393602-.542969.787467-.813496 1.181674l-.809495 1.183725c-12.917169 18.958545-24.101038 38.886745-24.101038 68.513643v60.331056c0 6.748938.797957 9.621299 14.569537 15.823365 13.771581 6.202066 164.3255 61.971243 193.37872 72.644699l.871185.319729 1.740148.636481c28.111135 10.256182 55.277105 18.83632 94.069362 18.83632 39.992018 0 73.454149-4.622066 103.784821-12.207298 13.411495-3.354008 40.944851-10.83849 69.979136-18.822675l1.779377-.489421 1.89635-.521824c1.265234-.348235 2.532295-.697123 3.800151-1.046368l4.95432-1.365394c.330254-.09106.66047-.182118.99063-.273168l2.969448-.819114c31.317924-8.641127 61.639852-17.074102 75.32038-20.798077 28.801112-7.839947 36.626548-17.758008 36.626548-30.125766l.000749-6.822998c-.993052.31061-1.991938.607214-2.996428.88969l-1.233872.339117-228.069566 61.234509c-81.73542 21.945183-167.103416-19.9358-199.771619-98.006655l-87.363157-208.781329c-1.406306 3.867932-2.994784 7.257072-4.78187 9.993739zm-74.859349-462.718483-.030874.037918c-11.838853 12.763889-20.656872 28.863712-25.078354 49.344972-2.309602 10.698575-3.598807 21.899284-3.867614 33.602128l-.026488 1.333529c-.534346 32.962832 6.975225 69.883625 22.528715 110.76238l93.40708 223.200546-.005498.04275 98.527291 235.461626c28.803058 68.833887 104.070724 105.759713 176.135601 86.410979l228.069567-61.234509c3.234379-.8684 6.376371-1.909277 9.417861-3.110239l-.001231-.084015c.4532-.178902.904179-.36135 1.352911-.547302 4.402191-1.464781 9.107357-3.178763 14.115499-5.141944l-201.370677 53.822689c-81.972914 21.910155-167.486608-20.343778-199.88333-98.766135l-217.131768-525.608263c-3.128932-7.57417-5.469511-15.450441-6.984696-23.504166-5.059383-26.892356-.671554-53.37361 10.826005-76.022944zm313.658202-85.773151-1.782576.2948832c-.780211.1341924-1.560515.2747375-2.340853.4216674l-3.840806.722823-217.794196 41.0139878c-4.052646.7631557-8.001134 1.7623453-11.832886 2.9821245-1.33426.344874-2.664271.698671-3.989475 1.0618143-44.720707 16.4374678-72.350368 63.2200158-63.248234 111.6009748 1.261299 6.704241 3.20969 13.260761 5.814338 19.565801l217.131768 525.608263c28.563698 69.1438 103.959822 106.398451 176.234095 87.0806l231.845664-61.96894c24.410541-6.524579 43.572925-22.873552 54.37115-43.657561.706309-1.790044 1.310725-3.583596 1.804129-5.376898.095051-.345466.182026-.690267.261091-1.033047 5.17097-12.381642 7.498981-26.032717 6.400744-39.943898-.412701-5.164212-1.297453-10.364143-2.684322-15.548019-1.042668-3.897314-2.357029-7.716813-3.933434-11.430458l-221.773184-522.446428c-26.821242-63.1846558-93.213251-99.7115474-160.643013-88.94769zm46.923536 695.646329c11.142968 20.102447 7.474492 44.449369-10.007281 54.139675-17.481773 9.690305-40.073131-.100555-51.216099-20.203001-11.142968-20.102447-7.474492-44.449369 10.007281-54.139675 17.481773-9.690305 40.073131.100555 51.216099 20.203001zm240.12538-217.01519c10.207149 18.414184 7.450631 40.578937-7.406637 50.822969 14.930353-2.377294 31.242426 6.849859 40.099503 22.752194.397341.713418.776376 1.434037 1.155637 2.199219l.170206.347201c.227304.468414.446914.939395.658766 1.41274l.277374.633912-.030919-.071708 30.998419 67.828455c.395857.866189.657401 1.756989.794237 2.650001l.022344.164544.153648.453148c5.710497 17.225944 1.016693 35.36269-13.029497 43.43666l-.451456.25425c-16.939722 9.345075-38.789871-.121142-49.578679-19.49178-.404649-.72654-.790325-1.460579-1.156763-2.201344l-.210253-.433934-.044259-.073688c-.140067-.236507-.271369-.480425-.393308-.731495l-.118797-.253444-14.983467-33.150399c-1.967989 26.502311-12.646466 49.931758-31.501237 64.833328-3.184076 2.54444-6.603703 4.843625-10.257563 6.868992l-.20745.111414-11.14 7.227-.022442.039405c-7.441046 12.417041-17.495709 22.443422-29.756197 29.403942l-.696343.390713c-49.266469 27.318543-116.719044-2.907716-151.513551-65.700944-34.793563-62.791534-24.674069-136.02729 24.589812-163.344398 10.126985-5.615472 21.242469-8.886187 32.921227-9.797442l.487575-.036984 13.84536-9.127452c.818026-.539379 1.68446-.942494 2.573311-1.215574l.059329-.016974.697645-.39492c8.711206-4.830414 18.033221-7.715256 27.639295-8.817005 4.658754-.548227 9.385395-.67477 14.143034-.398529 22.616169 1.197586 45.936149 11.439677 65.968503 28.74879-1.708276-14.318888 3.62024-28.039998 15.629329-34.696744 16.983452-9.414081 38.868437-.010104 49.614264 19.375881zm-281.645286 214.304584c-6.670183 3.697342-8.472054 15.65599-2.21108 26.951087 6.260975 11.295097 17.357329 16.104142 24.027512 12.406799 6.670183-3.697342 8.472054-15.65599 2.21108-26.951087-6.260975-11.295097-17.357329-16.104142-24.027512-12.406799zm72.014637-170.810471-.77338.518837c-31.189424 21.301841-36.973706 74.257284-10.717427 121.524754 27.45354 49.422586 78.646961 72.40172 113.474718 53.137252 1.191271-.658935 2.352815-1.360513 3.484178-2.10402-34.419464-5.148384-69.37478-30.642075-90.914143-69.500114-19.289422-34.799039-23.787628-73.042935-14.553946-103.576709zm73.735474-36.98937-.791812.006694c-9.253909.153695-18.130038 2.349837-26.140425 6.780666-.724907.400973-1.438809.817738-2.1416 1.250132-.416523.256266-.844236.478278-1.2799.666866-31.754884 20.804289-37.873993 74.288633-11.335397 122.165528 26.081989 47.053153 73.472692 70.225945 107.819489 55.914908l3.972795-2.584979c.196573-.127846.397583-.248737.602655-.362451 34.676032-19.228061 42.244811-74.639264 14.895984-123.995371-20.745911-37.439896-55.091734-59.679513-85.601789-59.841993zm128.670232 65.090679c-5.91113 3.261017-7.696671 13.798583-2.356036 24.158483.078578.152427.153222.306851.223858.463117l29.071051 64.312505.086106.149737c.089624.160518.175281.324288.256797.491234l.119144.252791c.342876.754235.719648 1.500694 1.129683 2.236903 5.902895 10.598285 16.298832 15.102153 22.445143 11.71144 5.330938-2.94094 7.396806-11.903372 3.565454-21.508275-.211553-.530348-.37448-1.067613-.490991-1.60697l-30.120919-65.91084c-.016195-.035437-.032182-.070968-.047962-.106591l-.046712-.107143c-.183861-.428536-.378667-.854931-.565726-1.240616l-.132875-.271095c-.218661-.441044-.449008-.878979-.69092-1.313327-5.902847-10.598198-16.298784-15.102066-22.445095-11.711353zm-54.282663 2.208386c18.346416 33.097809 13.218917 72.135742-13.535195 86.965789-26.754113 14.830046-62.577318-1.508541-80.923733-34.606351-18.346416-33.097809-13.218917-72.135742 13.535195-86.965789 26.754113-14.830046 62.577318 1.508541 80.923733 34.606351zm-71.22754-17.113957c-15.753331 8.732214-19.255181 35.393357-5.738994 59.777203 13.516187 24.383847 37.981815 35.542362 53.735146 26.810149 15.753331-8.732214 19.255181-35.393357 5.738994-59.777203-13.516187-24.383847-37.981815-35.542362-53.735146-26.810149zm-169.390234 11.325339c11.142968 20.102447 7.474492 44.449369-10.007281 54.139675-17.481773 9.690305-40.073131-.100555-51.216099-20.203001-11.142968-20.102447-7.474492-44.449369 10.007281-54.139675 17.481773-9.690305 40.073131.100555 51.216099 20.203001zm-41.519906-2.710606c-6.670183 3.697342-8.472054 15.65599-2.21108 26.951087 6.260975 11.295097 17.357329 16.104142 24.027512 12.406799 6.670183-3.697342 8.472054-15.65599 2.21108-26.951087-6.260975-11.295097-17.357329-16.104142-24.027512-12.406799zm310.708366-10.477016.089839.154434c.32902.575459.655059 1.153947.97807 1.73544 1.447038 2.605009 2.810617 5.2295 4.091197 7.868779 2.115717-3.499572 4.91033-6.546155 8.367225-8.938868-4.465917.71855-9.053629.401629-13.526331-.819785zm-6.981152-56.711055c-6.202426 3.438061-7.91853 14.591908-2.063674 25.154349 5.854857 10.562441 16.223252 15.01774 22.425678 11.579679s7.91853-14.591908 2.063674-25.154349c-5.854857-10.562441-16.223252-15.01774-22.425678-11.579679z"/></svg>