<?xml version="1.0" encoding="utf-8"?>
<!-- Generator: Adobe Illustrator 21.0.0, SVG Export Plug-In . SVG Version: 6.00 Build 0)  -->
<svg version="1.1" id="Layer_1" xmlns="http://www.w3.org/2000/svg" xmlns:xlink="http://www.w3.org/1999/xlink" x="0px" y="0px"
	 viewBox="0 0 436.8 852.5" style="enable-background:new 0 0 436.8 852.5;" xml:space="preserve">
<style type="text/css">
	.st0{fill:#010101;}
</style>
<g>
	<path class="st0" d="M353.5,0.8H83.3c-45.4,0-82.4,37-82.4,82.4v686.2c0,45.4,37,82.4,82.4,82.4h270.2c45.4,0,82.4-37,82.4-82.4
		V83.2C435.9,37.7,399,0.8,353.5,0.8z M428.9,769.3c0,41.6-33.8,75.4-75.4,75.4H83.3c-41.6,0-75.4-33.8-75.4-75.4V83.2
		c0-41.6,33.8-75.4,75.4-75.4h270.2c41.6,0,75.4,33.8,75.4,75.4V769.3z"/>
	<path class="st0" d="M218.4,72.4c-37.4,0-72.5,14.5-98.8,40.9c-7.2,7.2-13.3,14.8-18.9,23.4v-0.2l-2.5,4.2
		c-0.1,0.3-0.2,0.5-0.5,0.7l-0.4,0.8c-0.1,0.2-0.2,0.5-0.3,0.6l-0.4,0.9l-0.5,0.7l-0.3,0.8c-0.1,0.1-0.2,0.3-0.3,0.5
		c-0.1,0.2-0.2,0.4-0.3,0.5l-0.7,1.3l-0.1,0.1l-0.1,0.3l-0.1,0l-0.1,0.3c-0.1,0.4-0.3,0.7-0.4,0.9l-0.3,0.6
		c-0.1,0.4-0.3,0.6-0.4,0.9l-0.4,0.7l-1.1,2.4l-0.3,0.4l0,0.1c-0.1,0.4-0.3,0.8-0.4,1l-0.3,0.4l0,0.1c-0.1,0.2-0.1,0.4-0.2,0.5
		c-0.1,0.2-0.1,0.4-0.2,0.6l-0.3,0.7l-0.4,0.9l-0.7,1.7l-0.1,0.4l0,0.2c0,0.1-0.1,0.1-0.1,0.2c-0.1,0.2-0.2,0.5-0.4,0.8l-0.2,0.5
		c-0.1,0.2-0.1,0.4-0.2,0.5c-0.1,0.2-0.1,0.4-0.2,0.6l-0.1,0.4l0,0.2c-0.1,0.2-0.1,0.3-0.2,0.5c-0.1,0.2-0.1,0.3-0.2,0.5l-0.1,0.1
		l-0.6,1.8l-0.1,0.1l-0.1,0.1c-0.1,0.2-0.1,0.4-0.1,0.6c0,0.2-0.1,0.3-0.1,0.4l-0.2,0.2l-0.7,2.4c-0.1,0.2-0.1,0.3-0.2,0.5
		c0,0.1-0.1,0.2-0.1,0.4l-0.6,1.8l-0.1,0.5c-0.1,0.2-0.3,0.7-0.3,1.2l-0.1,0.4c-0.1,0.4-0.3,0.8-0.3,1.3l-0.1,0.4
		c-2.1,7.7-3.4,15.3-4.1,23.3l0,0.1c-0.3,4-0.4,8.1-0.4,12.1c0,5.7,0.2,10,0.7,14v1.3l0.1,0.1c0,0.4,0,0.7,0.1,1.1v0.5l0,0.3
		c0.1,0.4,0.1,0.7,0.1,1.1l0.1,0.5v0.1c0,0.2,0,0.5,0.1,0.7c0,0.2,0.1,0.4,0.1,0.6l0.1,0.6l0.1,0.9v0.4l0,0.3
		c0.1,0.2,0.1,0.4,0.1,0.6c0,0.2,0.1,0.4,0.1,0.6l0,0.4c2.4,14.1,7,27.7,13.6,40.5l0.1,0.2l0.1,0c0.1,0.1,0.1,0.3,0.2,0.4
		c0.1,0.2,0.2,0.4,0.3,0.6l0.3,0.4l0,0.2c0.1,0.1,0.1,0.2,0.2,0.4c0.1,0.2,0.2,0.3,0.3,0.6l0.3,0.6l0.4,0.7l0.3,0.5l0.1,0.1
		c0.1,0.2,0.2,0.4,0.3,0.5c0.1,0.2,0.2,0.3,0.2,0.5l0.3,0.4v0.2l0.1,0.1c0.2,0.2,0.3,0.5,0.5,0.7l2.5,4.2v-0.2
		c5.5,8.6,11.7,16.3,18.9,23.4c26.5,26.5,61.6,41,98.8,41c37.3,0,72.4-14.6,98.8-41c26.4-26.4,40.9-61.5,40.9-98.8
		c0-37.4-14.5-72.5-40.9-98.8C290.9,86.9,255.8,72.4,218.4,72.4z M97.9,146.9v50.9H82.2C84.1,179.9,89.3,162.8,97.9,146.9z
		 M82.4,228.6h15.5l0,48.8C89.6,262.1,84.3,245.7,82.4,228.6z M348.4,255.6L348.4,255.6c-2.6,7.8-5.9,15.1-9.6,21.9v-48.8h15.7
		C353.4,237.9,351.3,247,348.4,255.6z M348.6,169.7c3,9.2,5,18.6,6,28.1h-15.8l0-50.9C342.8,154.3,346.1,161.9,348.6,169.7z
		 M355,200.4c0.3,3.6,0.5,7.7,0.5,11.7c0,4.2-0.2,8.4-0.7,13.6l-18.7,0v56.7c-5.8,9.5-12.8,18.5-20.8,26.6
		c-26,25.9-60.4,40.1-96.9,40.1c-36.6,0-71.1-14.2-96.9-40.1c-7.9-8-14.8-17-20.8-26.8v-56.6H82c-0.5-5.2-0.7-9.4-0.7-13.6
		c0-4,0.3-8.1,0.5-11.7h18.8V142c6-9.9,13-18.8,20.8-26.6c25.8-26,60.2-40.3,96.9-40.3c36.6,0,71,14.3,96.9,40.3
		c8,8,15,16.9,20.8,26.6v58.5H355z"/>
	<path class="st0" d="M218.4,57.6c-41.2,0-80.1,16.1-109.4,45.3c-29.2,29.2-45.3,68-45.3,109.3c0,41.4,16.1,80.2,45.3,109.4
		c29.4,29.2,68.2,45.3,109.4,45.3c41.2,0,80.1-16.1,109.4-45.3c29.2-29.2,45.3-68.1,45.3-109.4c0-41.3-16.1-80.1-45.3-109.3
		C298.5,73.6,259.6,57.6,218.4,57.6z M323,316.8C295.1,344.7,258,360,218.4,360s-76.7-15.4-104.6-43.3
		c-27.9-28-43.3-65.2-43.3-104.6s15.4-76.6,43.3-104.6c28-27.9,65.2-43.3,104.6-43.3c39.4,0,76.6,15.4,104.6,43.3
		c27.9,28,43.3,65.2,43.3,104.6S350.9,288.7,323,316.8z"/>
	<circle class="st0" cx="148" cy="212.2" r="19.9"/>
	<circle class="st0" cx="288.9" cy="212.2" r="19.9"/>
	<path class="st0" d="M243.8,595.4h-48c-9.8,0-17.7,8-17.7,17.7v48c0,9.8,8,17.7,17.7,17.7h48c9.8,0,17.7-8,17.7-17.7v-48
		C261.5,603.4,253.5,595.4,243.8,595.4z M258,661.2c0,7.9-6.4,14.2-14.2,14.2h-48c-7.9,0-14.2-6.4-14.2-14.2v-48
		c0-7.9,6.4-14.2,14.2-14.2h48c7.9,0,14.2,6.4,14.2,14.2V661.2z"/>
	<circle class="st0" cx="219.8" cy="716.2" r="5.6"/>
	<path class="st0" d="M201.7,556.7c-1.3,0-2.4,1.1-2.4,2.4c0,1.3,1.1,2.4,2.4,2.4s2.4-1.1,2.4-2.4c0-0.2,0-0.3,0-0.5l5.8-3.3
		c0.6,0.7,1.5,1.1,2.5,1.1c0.6,0,1.1-0.2,1.6-0.4l5.9,6.7c-0.6,0.8-1,1.8-1,2.9c0,2.7,2.2,4.8,4.8,4.8c2.7,0,4.8-2.2,4.8-4.8
		c0-0.4-0.1-0.8-0.1-1.1l6.2-3c0.4,0.4,1,0.7,1.6,0.7c1.3,0,2.3-1,2.3-2.3s-1-2.3-2.3-2.3c-1.3,0-2.3,1-2.3,2.3c0,0.1,0,0.2,0,0.3
		l-6.1,3c-0.9-1.4-2.4-2.3-4.1-2.3c-1,0-2,0.3-2.8,0.9l-5.8-6.6c0.4-0.5,0.6-1.2,0.6-1.9c0-1.8-1.5-3.3-3.3-3.3s-3.3,1.5-3.3,3.3
		c0,0.3,0.1,0.6,0.1,0.9l-5.9,3.3C202.9,556.9,202.4,556.7,201.7,556.7z"/>
	<path class="st0" d="M226.3,624.3c-0.6-0.3-1.4-0.1-1.7,0.5c-0.3,0.6-0.1,1.4,0.5,1.7c3.9,2,6.4,6.1,6.4,10.5
		c0,6.5-5.3,11.8-11.8,11.8S208,643.5,208,637c0-4.3,2.4-8.3,6.2-10.4c0.6-0.3,0.8-1.1,0.5-1.7c-0.3-0.6-1.1-0.8-1.7-0.5
		c-4.6,2.5-7.5,7.3-7.5,12.6c0,7.9,6.4,14.3,14.3,14.3S234,644.9,234,637C234,631.6,231.1,626.8,226.3,624.3z"/>
	<path class="st0" d="M219.8,632.7c0.7,0,1.2-0.6,1.2-1.2v-11.2c0-0.7-0.6-1.2-1.2-1.2s-1.2,0.6-1.2,1.2v11.2
		C218.5,632.2,219.1,632.7,219.8,632.7z"/>
</g>
</svg>
