<svg height="960" viewBox="0 0 960 960" width="960" xmlns="http://www.w3.org/2000/svg"><path d="m303.177151 312.793614.464557.004639 624.743531 13.186842c10.878794.229626 19.577942 9.11433 19.577942 19.995547v253.409774c0 10.773106-8.533123 19.61047-19.299621 19.987733l-624.743531 21.891293c-1.376889.048246-2.755079-.045909-4.112613-.280967l-271.2196501-46.961785c-9.5865062-1.659907-16.5877659-9.977615-16.5877659-19.706766v-228.339282c0-10.668125 8.3731991-19.458325 19.0287368-19.976403l271.2196502-13.186843c.464077-.023597.9288-.028948 1.393321-.019143zm9.822849 40.210981v247.92l594.963-20.846595v-214.515zm-20 .309-241 11.718405v192.453l241 41.727595z"/></svg>