<svg height="960" viewBox="0 0 960 960" width="960" xmlns="http://www.w3.org/2000/svg"><path d="m348.833666 2.9671057c1.898017.11289922 22.539632 1.62307857 64.014715 4.67372684l2.106253.15493051c1.583613.11649489 1.583613.11649489 3.171379.23330592l3.180566.23401198 4.246145.31245463 1.018904.074983 2.03613.14984945c3.814734.28075438 11.58597.85284751 19.678799 1.44863017l1.18619.0873257c.395881.0291442.792105.0583138 1.188251.0874776l1.187778.0874429.500979.0368815.999585.0735885c9.144884.6732375 17.731008 1.3053441 20.467415 1.5067307 14.34683 1.0558585 21.904524 1.6108814 24.026107 1.7639112 5.41114.3903052 10.326362 1.1952102 15.260917 2.7512811 7.607831 2.3990662 14.595965 6.4201265 20.467706 12.5823809 6.065128 6.3652106 9.789141 13.8271265 11.633839 21.7490152.064799.2782748.126955.5547213.186554.8295569l.026287.1284123.279414.004481c4.08339.0589669 9.568227.1829377 15.106357.3452052l1.146138.0341103c.955011.028866 1.908843.0588157 2.854586.0897121l1.326513.0441468 1.302671.0449166c9.017143.3165263 16.296673.6828033 21.238416 1.1203748 6.205481.5494705 11.913037 1.7160889 17.551568 3.9310548 8.068979 3.1697109 15.213858 8.2672238 20.71322 15.4019754 5.019538 6.5122391 7.877501 13.5975192 9.270074 21.0340157.806388 4.3062057 1.05458 8.1364336 1.070014 12.7035206l.000222.113872-.000015.804191c-.007327 3.7814-.090581 10.889608-.276961 24.806441l-.018684 1.392995c-.004686.348819-.004686.348819-.009381.698092l-.018766 1.394895c-.089848 6.674985-.155615 11.637516-.202709 15.381889l-.001677.049112.231306.010482c19.568614.816598 31.861217 1.287872 36.675168 1.407062l.220176.005329c6.547694.154659 12.556186.983167 18.676788 3.003871 8.901177 2.938704 16.849163 8.149219 23.003274 15.701171 5.523806 6.778483 8.807515 14.37381 10.53759 22.552244 1.142168 5.399275 1.576124 10.852091 1.576122 17.018823l-.000419.924157-.000078.110538-.000896 1.075335-.000043.03844-.000976.833557c-.006532 5.531361-.041982 35.141087-.076844 65.365172l-.003318 2.879591c-.01933 16.799691-.038191 33.559095-.051523 46.254892-.03751 35.720627-.068298 69.657664-.091102 101.744039l-.000225.507297.307083.19472c11.989539 7.702925 19.995595 21.067248 20.242857 36.317657l.005895.72762v45c0 15.502164-8.030582 29.183696-20.219058 37.02577l-.378777.239233.000875 1.629522c.011996 59.867962.097228 96.977672.239044 101.826557l.004314.137051c1.210446 35.530016-19.662057 57.439493-50.087336 59.75475l-.182358.013457-.452374.032345-.171702.011906c-.362041.02432-.724428.046619-1.094736.067641l-.110568.006124-.483945.026129-.204494.010516-.821438.040023-.254427.011823c-3.439554.158806-15.477459.792927-35.966147 1.894779l-.539708.028377.000989 159.554884.000012.031123.000094 1.081866c-.002165 5.435414-.073673 8.644035-.383118 12.416703-.538025 6.55946-1.714201 12.544568-4.150675 18.674879-7.404865 18.631078-23.662587 30.05955-43.626523 32.257829-5.972254.657619-31.644162 2.671358-73.437204 5.823532-.93623.070613-1.878584.141646-2.826917.213086-16.608147 1.251137-34.398853 2.578681-52.189037 3.897735-6.226152.461639-12.007701.889255-17.196597 1.272225-1.816425.134063-3.429137.252977-4.819626.355414-.769669.056693-.769669.056693-1.270799.093585-.362232.026659-.362232.026659-.437413.032189-1.516828.11777-3.038784.136526-4.558454.074764-.255887-.0104-.870514-.031116-1.750239-.053221-2.703523-.067934-5.530027-.084889-7.998235-.023328-.656113.016365-1.264476.037906-1.829386.064844-6.798972.321695-11.790434-.801155-16.930636-2.68629-2.282444-.837072-4.380929-1.789192-6.537511-2.894472-2.887214-1.47974-6.019465-3.318203-9.657298-5.617724-1.720267-1.087402-3.5915-2.303105-5.617867-3.649465l-1.02613-.684078c-5.022299-3.359113-10.954671-7.483592-17.855912-12.406701-19.762204-14.097678-47.935823-35.085561-84.636001-63.041684-9.931846-7.56552-15.761517-19.334605-15.761517-31.819742v-258.226802c0-11.031533 4.443412-20.948826 11.580967-28.149383l.297033-.294768-.848-211.047-.169536-.176564c-6.594022-7.009341-10.68741-16.398034-10.855105-26.741024l-.005359-.661473v-234.0032725c0-13.417406 6.727085-25.9410858 17.913714-33.3496024 19.499381-12.9137641 31.089276-20.6565442 32.992343-22.0171491.467036-.3339093.880324-.6280738 1.261295-.8966869l.549895-.3855304c.796523-.5548728 1.483683-1.0163192 2.305585-1.5460113 2.488578-1.60381646 4.992491-2.99576918 7.861754-4.24632468 7.446302-3.24543655 15.172092-4.49087239 23.167915-4.01525902zm94.286339 670.2761043.000411 230.507823c.000293 2.5121-.369942 4.937703-1.059044 7.225158 12.627987-.932674 38.400469-2.841233 64.672254-4.818097l4.338312-.32673c33.985986-2.561875 67.644465-5.154502 73.667967-5.817765 12.175163-1.340638 12.533012-10.1826 12.538358-23.605656l-.000024-.853836-.000077-.215344-.000997-181.404511-89.236854.033604c-1.611731.0006-3.134547-.380128-4.483133-1.056932-2.072155-.173752-4.268529-.647986-6.723361-1.387653-4.102087-1.236003-16.153422-5.297773-28.487957-9.526007l-1.542737-.529204c-8.744251-3.001556-17.470331-6.031038-23.453752-8.14334zm-104.555631-627.7180137-.112755.01048c-.468835.3240934-.965144.677557-1.500479 1.0602968-1.328517.9498284-5.152369 3.5336811-11.471555 7.751558l-.72604.484476c-5.525247 3.6859241-12.849374 8.5498116-21.97238 14.5916624v234.0032725h10.919021l1.077225 268.122876-11.996246-1.052664v258.226802c14.090683 10.733487 26.904305 20.424007 38.440865 29.071569 13.277294 9.07664 38.045176 25.823879 74.105225 50.105498.825589.556055 1.798358.853039 2.793744.852923 2.761424-.000322 4.999739-2.239159 4.999418-5.001748v-235.906106c0-6.415191 1.169877-10.95392 5.545911-14.355237 2.693979-2.093923 5.848515-2.867431 9.084947-2.65179 2.034196.135537 4.008155.640919 6.222105 1.463434 3.663607 1.361085 14.869317 5.276414 26.616988 9.318749l1.440724.49545 1.443284.495729c11.308303 3.881716 22.589486 7.697984 27.666058 9.306812l.073571.022971.001181-.040613c.003253-.240205.005431-.489928.006521-.749424l.000819-.396608-.000521-477.468355-.177592.053035c-5.975878 1.773489-16.445616 4.95297-26.782619 8.128815l-1.63038.501214c-13.29475 4.089641-25.963906 8.049877-28.087754 8.858379-5.071461 1.930593-9.141933 2.54696-13.411994.884756-5.93885-2.311813-8.312519-7.522856-8.312519-13.54958l.000767-1.120999.000134-.13969.000832-.807163.000199-.183325.000906-.806989c.000083-.072185.000167-.14561.000254-.220277l.000829-.705643.000928-.773313.000332-.272908.000698-.568653.000742-.599242.000388-.311145.00081-.645448c.00347-2.753867.008122-6.315494.014008-10.740667.000095-.07152.000195-.146542.000299-.224974l.000681-.510755.000328-.245087.000711-.532127c.000375-.279686.000776-.579445.001203-.897651l.000885-.66053c.004435-3.306792.011067-8.236206.01791-13.320295l.00164-1.218443.001642-1.219878c.00718-5.333595.014243-10.580175.018912-14.056838l.000963-.717296c.000309-.229659.000604-.449675.000885-.659434l.000852-.635475c.000134-.09983.000263-.196555.000389-.290085l.000698-.522071.000253-.188989.000843-.630914.000788-.590103.000226-.169487.000905-.678171c.000083-.062208.000169-.126976.00026-.195155l.000609-.456822c.000227-.170462.000482-.361384.000773-.57958.027415-20.582235.046433-35.622074.056567-45.129906l.000911-.8619341.000872-.8428533c.000423-.4133315.000827-.8145205.001211-1.203568l.000741-.7619066c.00012-.1242864.000237-.2472239.000352-.3688124l.000663-.7133443c.000106-.1161929.00021-.231037.000311-.3445323l.000857-.9850405.000738-.9122109.00022-.2878871.000899-1.3180715.000034-.2679301-.097225-.0755141c-.406806-.306101-.921914-.637687-1.515501-.9612651l-.259112-.1380885c-1.264782-.6589157-2.672494-1.1765233-3.942959-1.4569501-.958241-.2115105-1.632983-.2435508-1.736722-.222287-2.094386.4292988-11.745972 3.7081977-25.055311 8.4935525-5.137669 1.8472419-10.616921 3.842861-16.204079 5.8958844-3.729953 1.370586-6.705912 2.471024-9.735601 3.595578-1.717239.6374-3.068305 1.064121-4.394411 1.340344-2.506566.522109-4.867273.531918-7.440354-.479936-3.482901-1.369638-5.738282-4.1373176-6.731095-7.3886434-.504071-1.6507603-.645405-3.1500439-.645405-5.0143462v-44.4633079c0-.1107435-.000369-.2193488-.001095-.325818l-.00313-.2042026c-.953841-.0804317-1.967423-.1465182-2.926976-.1832932l-.357066-.0123872c-1.351515-.041814-2.512902-.0213693-3.347589.0556668zm154.207176 756.0473777c16.373032 2.326162 27.099987 19.258837 25.219718 37.269529-1.905771 18.256366-16.242939 32.135875-32.950174 29.784242-16.38288-2.307013-27.11251-19.248032-25.232611-37.275792 1.905581-18.272648 16.248722-32.153687 32.963067-29.777979zm67.027433-3.842194c16.373032 2.326161 27.099987 19.258836 25.219717 37.269528-1.905771 18.256367-16.242939 32.135875-32.950174 29.784242-16.38288-2.307013-27.11251-19.248032-25.232611-37.275791 1.905582-18.272649 16.248722-32.153687 32.963068-29.777979zm-80.098369 35.694565c-.842936 8.08355 3.363907 14.725736 8.128722 15.396711 4.439138.624832 9.452952-4.228934 10.270029-12.056137.842466-8.069795-3.366319-14.713431-8.141632-15.391873-4.43287-.63007-9.439977 4.21572-10.257119 12.051299zm67.027433-3.842195c-.842937 8.08355 3.363906 14.725737 8.128721 15.396711 4.439139.624833 9.452952-4.228934 10.270029-12.056136.842466-8.069796-3.366319-14.713432-8.141632-15.391874-4.43287-.63007-9.439977 4.215721-10.257118 12.051299zm13.070936-116.445576c16.373032 2.326162 27.099987 19.258837 25.219717 37.269529-1.905771 18.256366-16.242939 32.135875-32.950174 29.784242-16.38288-2.307013-27.11251-19.248032-25.232611-37.275792 1.905582-18.272648 16.248722-32.153687 32.963068-29.777979zm-13.070936 31.852371c-.842937 8.08355 3.363906 14.725737 8.128721 15.396711 4.439139.624832 9.452952-4.228934 10.270029-12.056137.842466-8.069795-3.366319-14.713431-8.141632-15.391873-4.43287-.63007-9.439977 4.21572-10.257118 12.051299zm95.7336-553.389481-121.240258.016461c.00076.130936.001137.262544.001137.394827v478.744213c0 1.135515-.013732 2.202041-.04642 3.207809l150.095005-.056445c.248344-.011944.470696-.022449.667056-.031515l.242121-.011254.726527-.035498.483945-.02613c.227292-.012903.454308-.026774.680844-.041992l.452374-.032344c.286022-.021766.571057-.046099.854692-.073772l.424352-.04411c6.630107-.733333 12.37303-3.52419 11.866569-18.390241-.183417-5.383812-.255316-47.25181-.26655-103.317534l-.000762-4.455332-.000123-.897931-.000991-9.550024-135.401165.000748c-13.254834 0-24-10.745166-24-24v-45c0-13.254834 10.745166-24 24-24l135.435034-.000022c.068157-105.178264.217574-213.57161.233224-230.942359l.000848-1.028893c.000036-.049437.000069-.097577.000101-.144415l.000384-.871636c0-14.005443-3.411951-18.005419-14.738329-18.272953-4.315937-.101944-14.472475-.48183-30.469615-1.139658zm-86.059611 272.399776-4.402036.00016c-2.209139 0-4 1.790861-4 4v45c0 2.209139 1.790861 4 4 4l4.402036.00016c-.218256-1.300884-.331861-2.637255-.331861-4.00016v-45c0-1.362905.113605-2.699276.331861-4.00016zm147.597964.00016h-123.929825c-2.209139 0-4 1.790861-4 4v45c0 2.209139 1.790861 4 4 4h123.929825l.19964-.004895.20342-.01516.188031-.023315c.023441-.003472.046815-.007148.070122-.011025.108198-.01799.215187-.040389.320514-.066966.028448-.007177.056849-.01468.085125-.022486l-.085125.022486c.064666-.016316.128705-.034208.192074-.053631l.018759-.0058c.013751-.004289.02747-.008651.041158-.013084.100842-.032676.199529-.069082.296301-.109177.05234-.021677.10461-.044661.15628-.068717l.130848-.063854.069096-.036152c.018496-.009909.036905-.019959.055226-.030149l-.055346.030213c.054764-.029337.108766-.059911.161969-.091686l-.106623.061473c.060339-.033561.119719-.068637.178089-.105178l-.071466.043705c.05236-.031272.103947-.063708.154722-.09727l-.083256.053565c.116433-.07289.228846-.151607.336829-.235743.016305-.012703.03262-.025619.048831-.038659l-.048831.038659c.040216-.031334.079818-.06342.118784-.096237l-.069953.057578c.05772-.046427.114123-.094425.169146-.143927l-.099193.086349c.044565-.037531.088299-.076018.13117-.115429l-.031977.02908c.039987-.035975.079245-.072744.117748-.110284l-.085771.081204c.054318-.049935.107252-.101353.158737-.15419l-.072966.072986c.047424-.046236.093704-.09364.138793-.142165l-.065827.069179c.039853-.0409.078838-.08265.116925-.12522l-.051098.056041c.042184-.045399.083327-.09178.123389-.139104l.067414-.081796.049236-.062634c.021122-.027423.041895-.055128.062314-.083108l-.06231.083103c.033402-.043368.065934-.087441.09757-.132193l-.03526.04909c.037315-.051134.073447-.103186.108355-.156117l-.073095.107027c.041393-.058553.081252-.118268.119519-.179085l-.046424.072058c.033575-.05091.066018-.102633.097293-.155132l-.050869.083074c.03268-.051939.0642-.104683.094521-.158194l.062286-.114222c.022322-.042572.0439-.085595.064716-.129053l.067215-.14801c.004597-.010699.009148-.021421.013655-.032168l-.013576.031982c.144224-.335685.243822-.695074.291328-1.0707.020981-.165778.031818-.335092.031818-.506937v-45c0-2.209139-1.790861-4-4-4zm-261.042835-377.5947476.000806.9368144-.000899 1.3194559-.000219.2881388-.000738.9129207-.000857.9856884-.000154.1713571-.000821.8871132-.000173.1834887-.000919.9477775c-.000384.389223-.000788.7905809-.001211 1.2040763l-.000872.8431744-.00091.8622391c-.010134 9.5110831-.029155 24.5525831-.056587 45.1473501-.000194.145468-.000372.278814-.000536.402057l-.000846.634376c-.000091.06818-.000177.13295-.00026.19516l-.000905.67819-.000226.169491-.000788.590119-.000843.630931c-.000081.060669-.000165.123605-.000253.188994l-.000698.522086c-.000125.093532-.000255.19026-.000389.290092l-.000852.635487c-.000281.209763-.000576.429783-.000885.659446l-.000963.717305c-.004669 3.476707-.011732 8.723299-.018912 14.056877l-.001642 1.219874-.00164 1.218438c-.006843 5.084066-.013475 10.013433-.01791 13.32016l-.000885.660516c-.000427.3182-.000828.617952-.001202.897631l-.000712.532111c-.000112.084064-.000221.165777-.000327.24508l-.000682.510737-.000299.224964c-.005167 3.884539-.009385 7.105575-.012686 9.698033l-.001265.337208.038875-.011131c6.020692-1.936898 15.883453-5.00571 25.779549-8.047896l2.070469-.635954c12.410216-3.808673 24.453935-7.447884 28.587943-8.623143l.264811-.07496c2.423243-.682693 3.516966-.946708 5.186687-1.124692.416431-.04439.831022-.074774 1.243557-.090037.472002-.068228.955318-.10377 1.446932-.103838l89.199337-.012307.000996-9.781794c.005221-3.389695.120469-12.273754.251122-22.013066l.014852-1.105968c.014907-1.109123.029966-2.226963.045039-3.34679l.018763-1.394616.009368-.697176.018674-1.392283c.137096-10.236807.263433-20.053787.273257-24.266051l.000128-.786823c-.02822-8.3510608-1.317961-12.4039864-12.13314-13.3616272-4.395451-.3891996-11.668013-.7277431-19.113625-.9891044l-1.277581-.0440438-1.277945-.0425019-.538118-.0174483-1.073908-.0340498c-8.575221-.2678468-16.707344-.4258819-20.215845-.4330955l-.253321-.000491c-.245385-.008298-3.737849-.2384679-10.477392-.6905095-.779951.1451049-1.589919.1992479-2.417577.151311zm118.226001 13.307537c16.477251 2.3409686 27.277811 19.3898296 25.384123 37.5290496-1.91919 18.384909-16.351722 32.356738-33.163171 29.990436-16.487095-2.321689-27.290334-19.378929-25.397017-37.535367 1.919-18.401313 16.357501-32.3746398 33.176065-29.9841186zm-73.747207-1.9665922c16.47725 2.3409678 27.27781 19.3898298 25.384122 37.5290498-1.919189 18.384909-16.351721 32.356738-33.16317 29.990435-16.487096-2.321688-27.290335-19.378928-25.397017-37.535366 1.918999-18.401314 16.3575-32.37464 33.176065-29.9841188zm60.463274 34.0251028c-.856355 8.212228 3.424097 14.970636 8.293127 15.656286 4.543353.639501 9.652531-4.306585 10.483026-12.26233.855884-8.198324-3.426506-14.958147-8.306037-15.651395-4.537089-.644883-9.639557 4.293195-10.470116 12.257439zm-73.747208-1.966593c-.856355 8.212229 3.424097 14.970637 8.293128 15.656286 4.543353.639502 9.65253-4.306584 10.483026-12.262329.855883-8.198324-3.426506-14.958147-8.306038-15.651395-4.537089-.644883-9.639556 4.293195-10.470116 12.257438zm-108.982247-85.5561657.011316.3359972c.012955.5218156.019136 1.0584182.019136 1.610692l-.000225 34.3899794.586094-.2145079c.237713-.0874692.478316-.1759708.722049-.2655924l.740829-.2723125c5.627767-2.0679452 11.149269-4.0789525 16.335329-5.9435935 14.896002-5.3558373 24.27356-8.5416415 27.806161-9.2657397 3.543424-.7263165 7.599048-.4603311 11.596132.592151l83.657566 4.8446375.000336-5.4111375c0-7.1310568-1.524651-10.1279502-11.679361-10.860409-4.728032-.3410328-36.398868-2.6752848-69.293336-5.0962312l-2.036045-.1498432-1.01877-.0749731-4.245893-.3124361-3.180173-.2339831c-1.058782-.0778956-2.116002-.1556713-3.1708-.2332633l-2.106111-.1549201c-16.871643-1.2409727-32.971622-2.4236706-44.744234-3.2845145z"/></svg>