<svg height="960" viewBox="0 0 960 960" width="960" xmlns="http://www.w3.org/2000/svg"><path d="m479.427345 1c60.656294 0 117.878064 3.48933523 161.952927 9.7350049 22.526372 3.1921206 41.387569 7.0651363 55.994644 11.6440094 8.687955 2.7234095 16.170789 5.7718033 22.640013 9.4443137l.559414.320328c6.87361 3.9702194 12.788862 8.668155 17.458196 14.7537848l.229806.3025592.216635.255738c2.902219 3.4627036 5.246436 7.4532777 6.869702 11.8581823 2.608076 7.077291 4.825019 13.2113234 6.655645 18.4175625l.416638 1.2048765c1.776503 5.2254477 3.176756 10.5067363 4.192284 15.8334497l.147096.797191.023651.0993291c.433274 1.9371572.746676 3.9064897.934669 5.8997299.058777.623199.102917 1.247693.132384 1.872964l.031952.67801.026955.70362c.017389.469212.017389.938649.017389 1.408093l-4.089 714.873254.028418.155988c.703481 4.037369 1.060582 8.126433 1.060582 12.242012 0 24.585492-12.185093 46.04275-32.487921 63.339585-15.871755 13.521818-37.079494 24.833498-62.635395 34.042341-48.349259 17.422228-111.965515 27.118074-179.376684 27.118074-67.16585 0-130.567291-9.625326-178.854981-26.930596-25.491503-9.135606-46.683369-20.355432-62.597134-33.755545l-.606826-.514216c-16.521012-14.088696-27.657131-30.91877-31.215405-50.000761l-.036654-.201882-.126998-.385363c-1.210384-3.779983-1.874114-7.80519-1.898006-11.982886l-4.164045-728v-.228751l.006534-.782837.010515-.397163-.017049-.648947c-.098019-9.2250077 1.323002-18.3793135 4.200612-27.3071241l.317929-.9683633c2.800165-8.3753966 6.763758-16.3056789 11.814986-23.720154l.256522-.3724116.122745-.2088774c5.139766-8.6375501 12.402791-14.7768979 21.199671-19.7707946 6.469224-3.6725104 13.952058-6.7209042 22.640014-9.4443137 14.607074-4.5788731 33.468272-8.4518888 55.994643-11.6440094 44.074863-6.24566967 101.296633-9.7350049 161.952927-9.7350049zm202.042761 876.023142-1.29025.446912c-6.283334 2.167109-13.002741 4.227386-20.133686 6.181085-47.69545 13.067352-111.809672 20.497009-180.126173 20.497009s-132.430723-7.429657-180.126173-20.497009c-6.694249-1.834055-13.025821-3.762035-18.974419-5.784149 41.311263 24.085498 115.258839 40.13301 199.60794 40.13301 85.331531 0 160.01783-16.423506 201.042761-40.976858zm-438.248392-369.759639 1.868973 326.736497.840689.000748c.021198 1.31635.125926 2.625569.31237 3.927001 10.022475 9.053304 30.095371 18.56035 58.83482 26.434236 45.840231 12.559068 108.206448 19.786163 174.841431 19.786163s129.0012-7.227095 174.841431-19.786163c29.881262-8.186713 50.39365-18.138936 59.978632-27.510643.126535-1.11127.187285-2.22875.187285-3.351342 0-2.795649-.376765-5.559588-1.112996-8.285585l1.787173-312.462598c-12.412571 4.557027-27.891492 8.672284-46.008602 12.267509-48.579405 9.640271-113.97025 15.128822-183.672923 15.128822s-135.093518-5.488551-183.672923-15.128822c-24.153236-4.793055-43.617489-10.510391-57.378223-16.96656-.557044-.26135-1.106123-.524421-1.647137-.789263zm474.621114-386.462255c-13.680892 10.372052-35.184507 19.090427-63.061569 26.284507-47.089149 12.152039-110.39856 19.062393-177.861262 19.062393s-130.772113-6.910354-177.861262-19.062393c-24.667809-6.365886-44.345147-13.925309-58.027857-22.767915l2.056919 359.635246c2.494535 1.929884 5.938678 3.958485 10.276015 5.993448 12.061968 5.659154 30.07712 10.950837 52.776222 15.455328 47.19219 9.364987 111.30522 14.746286 179.779963 14.746286s132.587773-5.381299 179.779963-14.746286c21.033561-4.173975 38.045321-9.02386 50.025438-14.215712zm-445.532665-59.8910981-.319349.1020508c-11.451307 3.7314284-18.615998 7.8238719-20.539672 12.1332308l-.040865-.0002472c-3.662596 5.0397547-6.399637 10.3697084-8.211124 15.9898612-.9656 2.9957825-1.623389 5.9919909-1.973367 8.9886251 2.296519 3.1885234 6.354781 6.7163104 12.3917 10.3996344 11.496316 7.014283 28.70842 13.589062 50.43881 19.196904 45.328575 11.697697 106.987885 18.427939 172.863701 18.427939s127.535126-6.730242 172.863702-18.427939c21.730389-5.607842 38.942493-12.182621 50.438809-19.196904 9.634145-5.87811 14.229036-11.3600991 14.663359-15.7011592-.19754-.6073082-.403171-1.2147215-.616755-1.8221458-1.758371-5.0007491-3.909382-10.9523544-6.453031-17.8548157l-.412532.0002472c-1.825893-4.0903104-8.373532-7.9851969-18.826784-11.5614359 1.052278 2.4330509 1.601964 5.0236876 1.601964 7.7931088 0 10.5097734-7.916325 18.4447753-21.344977 24.9568675-10.90777 5.289616-26.226228 9.9403971-45.192276 13.8305681-37.959966 7.786059-88.982889 12.212564-143.353158 12.212564-54.37027 0-105.393192-4.426505-143.353158-12.212564-18.966048-3.890171-34.284506-8.5409521-45.192277-13.8305681-13.428651-6.5120922-21.344976-14.4470941-21.344976-24.9568675 0-3.026692.656558-5.8398394 1.912256-8.4669545zm344.611972-11.2718038.070055.08047c2.769262 3.1371206 4.296128 6.7644597 4.296128 11.0572782 0 8.5856369-6.107464 14.5093565-16.046628 19.1732449-7.430729 3.4868218-17.707508 6.5059248-30.375624 9.0202074-25.102417 4.9821592-58.74727 7.8065477-94.577748 7.8065477s-69.475331-2.8243885-94.577748-7.8065477c-12.668117-2.5142826-22.944895-5.5333856-30.375624-9.0202074-9.939164-4.6638884-16.046628-10.587608-16.046628-19.1732449 0-4.3294623 1.553044-7.9820355 4.367315-11.1375071-.908784.1789214-1.809268.3601095-2.701887.5431966-17.474938 3.5843263-31.30735 7.7839338-40.484057 12.2340875-4.173821 2.0240534-7.182687 4.0082712-8.931325 5.7610346-.427624.4286323-.736268.7993316-.940519 1.0994097l-.066938.1007888.066938.1007888c.175072.2572098.426842.5663045.764494.919294l.176025.1801157c1.748638 1.7527634 4.757504 3.7369812 8.931325 5.7610345 9.176707 4.4501538 23.009119 8.6497613 40.484057 12.2340875 36.529619 7.4926775 86.2327 11.8046791 139.334572 11.8046791s102.804953-4.3120016 139.334572-11.8046791c17.474938-3.5843262 31.30735-7.7839337 40.484057-12.2340875 4.17382-2.0240533 7.182687-4.0082711 8.931325-5.7610345.427623-.4286324.736268-.7993316.940519-1.0994097l.065116-.1017888-.065116-.0997888c-.175072-.2572098-.426842-.5663045-.764494-.9192941l-.176025-.1801156c-1.748638-1.7527634-4.757505-3.7369812-8.931325-5.7610346-9.176707-4.4501537-23.009119-8.6497612-40.484057-12.2340875-.892436-.1830498-1.792736-.3642012-2.700755-.5434377zm-136.633817-4.8622518c-34.602368 0-66.969218 2.7171038-90.684228 7.4238997-11.213816 2.2256427-20.041325 4.8189809-25.773141 7.5085985-.726371.3408447-1.384792.6751285-1.973109.9978852l-.125522.0696166.125522.0696166c.490264.2689639 1.029212.5459327 1.615596.8280326l.357513.1698526c5.731816 2.6896175 14.559325 5.2829558 25.773141 7.5085985 23.71501 4.7067958 56.08186 7.4238997 90.684228 7.4238997s66.969218-2.7171039 90.684228-7.4238997c11.213815-2.2256427 20.041325-4.818981 25.773141-7.5085985.726371-.3408447 1.384792-.6751285 1.973109-.9978852l.124522-.0696166-.124522-.0696166c-.490264-.2689639-1.029212-.5459328-1.615596-.8280326l-.357513-.1698526c-5.731816-2.6896176-14.559326-5.2829558-25.773141-7.5085985-23.71501-4.7067959-56.08186-7.4238997-90.684228-7.4238997z"/></svg>