<svg height="960" viewBox="0 0 960 960" width="960" xmlns="http://www.w3.org/2000/svg"><path d="m582.867212-13.9559318-.000073 32.4366142c33.2542 2.1948694 58.288876 4.4270484 75.380522 6.8942907 34.293201 4.9503505 66.010166 19.8228209 90.017692 43.1929286 26.419974 25.7185026 42.034526 60.1918643 44.155168 99.9024123 1.746076 32.696542 3.873995 91.477045 5.604043 158.241491 2.127965 82.120496 3.544237 170.617605 3.951861 258.351814.005001 1.015865.017368 2.337799.040063 4.358907.005203.463365.054965 4.746812.070768 6.18148.149076 13.533917.172052 24.061488-.00201 34.861686-.03286 2.038901-.072753 4.034086-.120065 5.985536-.513075 21.162261-2.005373 43.852549-3.499262 54.755195-6.41467 46.81532-21.183597 88.878871-43.231972 125.717401-19.731465 32.967423-44.913088 61.099445-73.954531 83.916714-25.557059 20.079659-53.559576 35.568781-81.414516 45.709674-26.221521 9.546229-51.662588 14.081533-72.504327 12.634144-35.551356-2.468923-72.215134-8.95283-108.287971-19.641409-40.573634-12.022191-79.652794-29.1243-116.122297-51.503454-21.058495-12.922339-39.790406-29.950586-56.052179-50.318671-14.642117-18.339446-27.126461-39.202957-37.271886-61.71811-18.419707-40.87779-28.609387-86.34107-28.609387-124.77459v-485.196163c0-71.2077861 51.705625-131.8790426 122.012568-143.1661433 42.157165-6.7679257 74.68845-10.9142622 98.335172-12.3125469l.001086-16.57553146c.001369-20.88108074 16.064385-38.24794564 36.881927-39.87566384l101.501533-7.9363784c23.24947-1.81787 43.118124 16.5579417 43.118073 39.8783731zm-188.131376 65.0431889-1.00228.082963c-41.006159 9.0555497-71.669606 46.1942607-70.475612 90.3274239l4.256063 157.315327c1.610542 30.862726 2.647333 76.300054 3.115063 136.354539.467169 59.982512.467793 147.575309.001862 262.80522 3.619953 52.021628 15.248691 94.957208 34.754564 128.88164 19.330576 33.619556 46.463026 58.518538 81.609398 74.891774 6.447641 3.003689 12.274326 5.5222 18.343089 7.832511 1.058746.403053 2.110428.793815 3.154875 1.171968 21.53985 4.463256 42.281273 7.185519 61.638907 8.529842 1.683524.116915 3.450364.173616 5.294652.1689 9.745769-.024917 21.65417-1.764796 34.859189-5.396845-4.286114.372211-8.01824.634923-11.945175.81526-5.789833.265889-11.458186.314287-17.19722.105247-14.009836-.510297-27.843862-2.537057-41.793688-6.473536-16.3527-4.614542-32.371473-11.736586-48.004962-21.697958-17.312079-11.030938-33.908946-25.396375-49.705573-43.37335l-5.772866-7.058235c-13.133288-17.226335-23.883221-39.725123-31.69902-66.921171-9.618061-33.467242-14.729986-73.728877-14.807511-120.35115-.045128-27.139504-.047836-48.629751-.028117-89.557279.02885-59.876605.004509-80.987262-.180913-104.905603-.450366-58.094356-1.447639-101.941764-2.98317-131.439811-.004432-.085136-.008319-.170299-.011662-.255484l-6.327216-161.240239c-2.402753-61.230807 49.343339-110.7445931 110.408771-105.6457811l225.617227 18.8384788c.46358.0387078.925668.0935778 1.385421.1645099 6.661355 1.0277346 12.963995 2.4645997 18.892812 4.3165723-13.378814-7.3653571-28.25052-12.1926219-43.599995-14.4083753-.931372-.134447-1.890121-.2680724-2.875193-.4008773-.181039-.0244059-.36058-.0484662-.540981-.0724995l-1.299644-.1707581c-.058069-.007526-.116222-.0150493-.174458-.02257-1.539411-.1987992-3.137173-.3957295-4.789671-.5907961-.191271-.0225773-.380692-.0448276-.570821-.0670536l-1.063416-.1232156c-.32848-.037727-.658988-.0753835-.991498-.1129694-3.493238-.3948859-7.211136-.7823466-11.119321-1.1620438-.13655-.0132663-.272371-.0264301-.40842-.0395847-2.50045-.2417683-5.078035-.4803987-7.724501-.7158813-.993037-.0883576-1.99254-.1759929-3.001258-.2631884-3.345597-.2891995-6.792491-.5735551-10.325353-.8530887-.691657-.0547255-1.384269-.109084-2.080039-.1632591-1.168407-.0909776-2.34776-.1815924-3.535507-.2716886-.369355-.0280172-.738827-.0559319-1.109092-.0837967-1.271989-.0957269-2.555275-.1910066-3.847279-.285696-1.926753-.1412089-3.872489-.2810762-5.835409-.4196333-4.710976-.3325368-9.521964-.6575939-14.401596-.9751344-1.376959-.0896047-2.758301-.1785419-4.14442-.2668823l-1.303246-.0827951c-.361746-.022909-.723802-.0457776-1.086155-.0686057-5.545594-.3493721-11.161772-.6893226-16.804504-1.0198426-.459358-.0269066-.918217-.0537114-1.377229-.0804539l-1.705938-.0990649c-.335775-.0194353-.671616-.0388374-1.007514-.0582061l-2.068052-.1187927c-.41188-.0235691-.823818-.0470883-1.235797-.0705576-39.395772-2.2442683-79.166582-4.0322759-104.747513-5.3799431-1.540338-.0811474-3.032054-.1608513-4.468928-.238956-.49886-.0271173-.98876-.0539125-1.47198-.080517-.574006-.0316015-1.142639-.0631606-1.701486-.0944468-.189517-.0106102-.374687-.0210076-.558761-.0313747-.133319-.0075083-.269323-.015185-.404719-.0228451-.873723-.0494337-1.717389-.0978936-2.535171-.1456675-.357688-.0208951-.712894-.0418055-1.063002-.0625829-.611977-.036318-1.208768-.0722537-1.789545-.107783-.284385-.0173959-.569595-.0349842-.850785-.0524718-2.151759-.1338212-4.539308-.203429-7.162647-.2088234-6.67759-.0137311-14.882945.3885984-24.616064 1.2069883zm-34.922703 109.8277389 6.327215 161.240239c1.553948 29.851847 2.557152 73.960003 3.009612 132.324468.366114 47.226396.072425 112.087079.209604 194.584668.15651 94.123256 21.487732 151.783385 47.303269 181.162143 61.127714 69.564938 122.574618 66.593124 153.839709 63.723196 47.300826-4.341903 92.546388-37.730734 135.736686-100.166492 17.802755-33.864148 28.632288-59.728583 32.4886-77.593307 13.708572-63.506235 9.088881-118.551282 9.088881-133.719417 0-32.35272-6.348629-354.741919-9.088881-416.427797-1.826835-41.123918-23.339327-64.863966-64.537476-71.2201442l-225.617227-18.8384788c-49.091818-4.099045-90.691617 35.706156-88.759992 84.930922zm-20.72325-103.116951c-5.90332.8595283-12.06008 1.7872838-18.47163 2.7841384-17.269843 6.2262171-32.428581 18.8833331-44.032928 36.5387295-12.869405 19.5801131-20.630158 44.2688001-21.875161 69.9127011-.781567 16.098311-1.141429 25.727891-1.171027 30.509329.287483.60927.495129 1.2179.661806 1.844842.431496 1.62303.520986 3.205283.520986 6.154661v464.528541c0 11.432979 1.214357 26.25358 3.697285 41.828741 3.068851 19.250601 7.867532 38.567764 14.475094 56.873846 7.715813 21.376464 17.654612 40.712012 29.919343 57.300779 13.101535 17.720594 28.647591 32.027235 46.796927 42.471738 12.538098 6.556724 25.150676 12.374183 37.736751 17.515669-15.355668-13.972476-28.464625-30.393257-39.300108-49.238226-21.172535-36.823075-33.594925-82.763794-37.394067-137.752916-.01678-.242879-.024685-.486291-.023699-.729748.467281-115.372247.467281-203.049149.000221-263.017597-.46637-59.879952-1.499766-105.104977-3.095822-135.623633-.004388-.083894-.007718-.167841-.00999-.251819l-4.258605-157.409288c-.903509-33.396086 13.118236-63.5152609 35.824624-84.240488zm331.604873 485.151938c33.224467 30.406787 54.971997 73.783935 60.133504 121.835995 5.162643 48.062633-6.898332 94.937816-32.952019 131.461965-26.245584 36.793164-64.744649 60.345377-108.113107 64.805532l-16.207518.75899c-37.661671-.340161-73.962819-15.323637-103.245288-42.122738-33.224466-30.406787-54.971997-73.783935-60.133504-121.835995-5.162643-48.062633 6.898332-94.937816 32.95202-131.461965 26.245584-36.793164 64.744648-60.345377 108.113106-64.805532 43.354194-4.458687 85.987128 10.736204 119.452806 41.363748zm-146.895074-14.763795-.898672.326966c-24.983748 9.189329-46.931085 26.279259-63.490123 49.493046-23.190559 32.510387-33.991329 74.487762-29.348453 117.711522 4.644011 43.234333 24.138256 82.117127 53.750565 109.218095 15.18541 13.897576 32.41891 24.138049 50.706138 30.255063.160934-1.118454.484213-2.235934.984993-3.324607 2.855689-6.20814 4.851098-11.855192 6.004107-16.916635.066965-.293961.133181-.595125.198587-.903895-20.148945-9.56521-37.991558-24.595872-51.835014-43.602759-15.792812-21.683326-25.858878-47.791809-28.866697-75.792255-3.50825-32.662406 2.939886-64.719739 17.969782-91.736253 13.019534-23.40285 31.936479-42.012685 54.505425-53.46262l-8.53468-16.218657c-.852266-1.61958-1.214066-3.355648-1.145958-5.047011zm46.70286 5.804841c-8.683684 0-16.012584.441905-21.877097 1.293918l7.49517 14.243249c2.770816 5.265448.358859 11.770796-5.17485 13.957213-22.617816 8.9365-41.766326 26.274988-54.493418 49.152168-13.015544 23.395678-18.630121 51.308918-15.561625 79.877142 2.633844 24.519029 11.418314 47.303419 25.147606 66.15356 13.350137 18.329565 30.905085 32.26233 50.521106 40.103232 4.25342 1.700174 6.807863 6.072907 6.199858 10.613006-.50088 3.740168-1.081828 7.071467-1.750632 10.007363-.830033 3.643652-1.965486 7.425535-3.414455 11.355275 7.573034 1.16633 15.132519 1.732897 22.682952 1.732897 10.322149 0 20.648761-1.058884 30.990244-3.232721 4.259339-5.835098 7.32107-11.121061 9.206449-15.808336.811986-2.018691 1.647794-4.527891 2.492658-7.509023.854575-3.015397 3.073438-5.455717 5.994185-6.592444 22.740931-8.850555 42.013137-26.178703 54.831453-49.103733 13.106458-23.44036 18.769659-51.444371 15.690829-80.108804-2.779493-25.874917-12.409966-49.806275-27.43359-69.197145-14.632028-18.88544-33.788223-32.668086-54.907203-39.468866-3.072318-.989355-5.4782-3.400791-6.460468-6.475382l-5.137551-16.081019c-10.007172-3.258335-21.682817-4.91155-35.041621-4.91155zm103.396872 260.536651c-9.87703 8.918594-21.005162 16.167351-33.075499 21.404226-.58632 1.797567-1.183908 3.451726-1.794856 4.970617-.583287 1.450118-1.235686 2.918569-1.95698 4.405973 13.708084-7.791665 26.145316-18.174223 36.827335-30.780816zm-411.5978-711.9629863-.410936.3136136c-25.054888 19.3440987-40.873825 49.6372937-40.873825 83.1536517v485.196163c0 35.551048 10.806882 83.082212 33.39153 125.240523-.108068-.302271-.217308-.6034-.326127-.904879-7.055687-19.547602-12.155304-40.07619-15.413651-60.515477-2.646175-16.599193-3.946676-32.471135-3.946676-44.977302v-463.870942c-.288945-.611521-.497505-1.222321-.664795-1.851567-.431495-1.62303-.520985-3.205282-.520985-6.154661 0-4.981911.363868-14.958441 1.197544-32.130054 1.414973-29.144857 10.264935-57.298559 25.138491-79.9278822.794646-1.2090111 1.604562-2.399537 2.42943-3.5711871zm363.138933 452.8964323 2.807048 8.786266c12.983028 4.749943 25.200773 11.727522 36.238373 20.582791-2.356992-2.457553-4.789245-4.834064-7.293882-7.12629-9.817384-8.984797-20.490793-16.441058-31.751539-22.242767zm78.559453-99.461126c20.55906 0 37 17.354326 37 38.5s-16.44094 38.5-37 38.5-37-17.354326-37-38.5 16.44094-38.5 37-38.5zm0 20c-9.264317 0-17 8.165444-17 18.5 0 8.282991 4.969233 15.172591 11.71196 17.581553-4.65294-3.594433-7.71196-9.679723-7.71196-16.581553 0-9.495879 5.790608-17.446079 13.556399-19.490113-.184823-.006592-.370303-.009887-.556399-.009887zm-161.132788-469.9560198-101.501533 7.93637839-.002826 36.28517341 47.672587 2.2455007c1.370479.0645236 2.663502.4020075 3.828993.9574281 20.484247 1.0208257 34.619692 1.7583726 50.002727 2.622141z"/></svg>