<svg height="960" viewBox="0 0 960 960" width="960" xmlns="http://www.w3.org/2000/svg"><path d="m293.577438 21.8035838c.168964.0115273.337909.0153845.506824.0203121l.501993.0146441c.150555.0043919.301083.0096342.451578.0157266l491.005298 19.876929c9.890931.4004057 19.549244 3.1498797 28.168612 8.030982 27.564021 15.6093595 50.128693 28.5300587 67.715193 38.7749796l.303233.1766437.304942.1776465c.231835.1350659.427278.2489534.614974.3583616 4.974631 2.8997229 7.951672 4.6736633 11.279456 6.7631617 4.578154 2.8745995 8.712938 5.6880643 12.687743 8.6934103 10.094788 7.632662 18.667063 16.163081 25.93383 26.405268 16.435647 23.165318 24.38672 52.746012 24.38672 91.104945v529.144317c0 30.30958-10.540563 59.121788-29.448542 82.056444-14.875029 18.042841-34.334184 31.713619-56.338772 39.442071-6.390748 7.819846-15.559027 12.97478-25.690721 14.315076l-39.169027 5.18157c-13.686274 6.879166-24.957274 12.250297-33.930528 16.156249-8.232444 3.583485-16.813829 6.929184-25.743584 10.040641-12.164868 4.238691-24.955403 6.403307-37.837437 6.403307h-445.275776c-7.95279 0-15.884453-.825475-23.667604-2.462754-27.894624-5.867968-50.501605-11.376315-67.999831-16.601962-17.615596-5.260698-41.498117-14.776893-72.328713-28.717586-26.6839268-6.260305-50.4823251-21.103558-67.9898065-42.039325-18.9773729-22.693489-29.57965889-51.345619-29.57965889-81.538128v-535.415581c0-33.371241 4.26519551-60.470955 12.78031539-82.530202 7.9144583-20.503174 19.2716781-36.2046347 33.8156629-48.4099621 4.340632-3.642663 8.7559202-6.8148922 13.6112628-9.9121544 1.7540113-1.1188979 3.4754681-2.1726214 5.501761-3.3807804.7811924-.465779 3.5710168-2.1143819 4.1715602-2.4730737 12.5021385-7.4672611 32.5016621-18.6673765 60.2329951-33.7459167 9.799499-5.3283461 20.859949-7.9077708 32.002512-7.4565077l2.580035.1040081 119.750122-8.4732465c1.168498-.0826803 2.328152-.1144566 3.469373-.0618755.269594-.0095238.539156-.0171643.808695-.0230499.250065-.0054613.500237-.0145884.750417-.0145884h.101585.112902.292526.212207.190938.638428.055086zm303.108396 842.2120002-302.493 4.652-.539655.122695c-1.272559.267089-2.593541.401301-3.945898.401301h-30.45808l-.026827-.000004-7.223981.000004c-.433454 0-.866793-.014086-1.299331-.042243l-77.534144-5.047345c3.836148 1.339951 7.375192 2.49401 10.617131 3.462179 16.290551 4.864988 37.886568 10.127007 64.788053 15.786056 4.702116.989146 9.487546 1.524047 14.29025 1.597322l4.233282-4.494843c4.462678-4.738783 10.751522-7.325406 17.25798-7.098267 5.93259.207106 9.223677 6.776521 6.142537 11.601525l17.915683-.00038 3.937054-4.180049c4.462679-4.738783 10.751522-7.325406 17.257981-7.098267 5.801271.202522 9.076685 6.488807 6.337815 11.278641l16.88615-.000325 4.815163-5.112643c4.462679-4.738784 10.751522-7.325407 17.257981-7.098267 6.186859.215982 9.500935 7.351336 5.710954 12.21167l17.772902-.00076 4.511418-4.789814c4.462678-4.738783 10.751521-7.325406 17.25798-7.098267 6.050999.21124 9.353999 7.041293 5.950402 11.888283l164.5252-.000202 4.62188-5.354583c4.10994-4.76278 9.889615-7.373876 15.860711-7.165426 5.706266.199205 8.728674 7.41188 5.152522 12.295982l-.165113.224027h16.228l4.457328-5.164612c4.10994-4.76278 9.889615-7.373876 15.860711-7.165426 5.706267.199205 8.728674 7.411881 5.152522 12.295983l-.026561.034055h15.211l5.379735-6.233061c4.10994-4.76278 9.889616-7.373876 15.860711-7.165426 5.706267.199205 8.728674 7.411881 5.152522 12.295983l-.808968 1.102504 10.711389.000685c1.865291 0 3.727637-.069592 5.583227-.20813l5.034568-5.835644c4.10994-4.762781 9.889615-7.373876 15.86071-7.165426 3.455909.120645 5.927398 2.813777 6.544849 6.004138 5.011211-1.889192 9.875133-3.861261 14.59303-5.914905 4.80938-2.093466 10.45156-4.700263 16.926542-7.82039zm-357.962639-798.6038328-56.143361 3.9708326-14.838 1.0507551-4.799128-.1934655c-.327498-.0132634-.654778-.0190982-.981601-.0175632-3.595054.0168848-7.134849.9255141-10.302174 2.6477046-27.292675 14.8400256-46.902495 25.8218997-58.8294605 32.9456222-19.0261657 11.363924-50.3916369 26.681768-50.3916369 112.365296v535.415581l.005.82207.0041229.452522c.0664364 4.638286.4949062 9.187923 1.2582609 13.62218.1294885.752214.2686632 1.501344.4173481 2.247021.0454472.227898.0916567.454884.1387462.681545.1445496.69581.2974656 1.388861.4585727 2.078744 1.0092425 4.321824 2.3401793 8.519904 3.9658959 12.567245.3094371.770443.6295461 1.535334.9601495 2.294583.0466449.107038.0935902.214256.1407446.32136.2939631.667785.5959862 1.330931.9060095 1.989553 1.4821115 3.148509 3.147028 6.193654 4.9809844 9.121814.6591955 1.052673 1.3401489 2.089943 2.0422959 3.111471 12.7092188 18.490142 32.3632769 31.823508 55.1637858 36.259722 3.209672.625685 6.481567 1.073898 9.805209 1.335377l-.010751.271128 68.437471 4.457112c-24.907131-19.977137-40.881181-50.659269-40.881181-85.119623v-547.115057c0-31.694324 3.966381-56.884967 11.66442-76.819176 6.805168-17.622104 16.315705-30.765032 28.511125-40.9951765 3.681191-3.087972 7.474246-5.8120134 11.720307-8.5194815 1.591786-1.0149898 3.182294-1.9881523 5.087761-3.1237965.749137-.4464803 3.610323-2.1365485 4.278218-2.535302 6.780059-4.0478974 15.85075-9.240875 27.230866-15.5905973zm7.719846 660.8669538v107.65464c0 1.300242-.253572 2.588004-.746517 3.79118l-2.577479 6.291093 353.410789-.000034 219.989-3.383 18.236866-2.41159 8.480713-13.448569v-96.338908zm46.185068-664.4751069c-.533759-.00259-1.066961.0140856-1.598108.0497842l28.376857 1.0909513 9.716647 13.0842988c3.70862 4.9939738.142859 12.0798951-6.078817 12.0798951-6.510425 0-12.705137-2.8044561-16.999664-7.6960494l-16.195989-18.4480163c-.009994.0012097-.019988.0024262-.02998.0036494-2.770393.3391243-5.463247 1.1979764-7.934326 2.5410328-27.900677 15.164298-47.947348 26.3861393-60.140013 33.6655239-19.450014 11.6122391-51.514218 27.2647971-51.514218 114.8206131v547.115057c0 34.945263 20.117885 65.134802 49.343797 79.733703l4.016366-.917716 2.85238-6.962067v-115.721727c0-5.536952 4.499189-10.019925 10.036106-10l616.793373 2.227092c5.508717.01989 9.963894 4.491183 9.963894 9.999935v109.192591c0 1.887861-.534397 3.737161-1.541388 5.33403l-.823736 1.310291c.605391-.237542 1.207533-.481504 1.806343-.731802l1.218843-.520209c2.551019-1.11141 5.039576-2.338537 7.459091-3.674705.751901-.41524 1.496743-.840779 2.234727-1.276637 2.390003-1.411565 4.707809-2.931166 6.94701-4.552181l1.038338-.763144c2.21027-1.649139 4.341207-3.398242 6.386155-5.240556.636519-.573441 1.265052-1.15624 1.885043-1.747876 1.671433-1.594995 3.280688-3.254103 4.823938-4.97343.846811-.943441 1.673359-1.904542 2.479402-2.883098 1.484624-1.802378 2.899582-3.663823 4.240928-5.580356.749567-1.070989 1.476193-2.159253 2.179121-3.264003 1.243391-1.954172 2.412547-3.959768 3.503644-6.012961.406435-.764827.801853-1.535881 1.186247-2.313328 1.039513-2.102405 1.998653-4.252158 2.873131-6.444623l.448258-1.146995c.008317-.021727.016626-.043457.024926-.065192.316081-.82766.619999-1.660748.911722-2.499513.770491-2.215256 1.456117-4.470901 2.052729-6.762227.220642-.847398.429073-1.699513.625137-2.556308.533717-2.332303.975829-4.699483 1.32233-7.097322.195593-1.353468.36078-2.717286.494766-4.090157.238361-2.442322.377977-4.913352.414827-7.408959l.009888-1.339977v-529.144317c0-66.855566-28.031096-83.02986-55.645396-99.116422-17.427482-10.152286-39.857948-22.996138-67.291398-38.5315552-3.0815-1.745037-6.53693-2.7268934-10.075868-2.870157l-87.848338-3.557876 8.838815 12.9992681c3.357475 4.9382465.218327 11.9171421-5.348511 12.1048591l-.23013.003869c-5.974735 0-11.659735-2.81115-15.600901-7.7144188l-14.867273-18.4955774-213.948-8.661 9.413544 12.6758045c3.661073 4.9299485.233093 11.8985487-5.840841 12.0764204l-.237976.0034747c-6.510425 0-12.705137-2.8044561-16.999664-7.6960494l-16.033063-18.2616502-60.694-2.457 9.331629 12.5662375c3.661073 4.9299486.233092 11.8985488-5.840842 12.0764205l-.237975.0034747c-6.510425 0-12.705137-2.8044561-16.999664-7.6960494l-15.935148-18.1510833-41.92696-1.696053-.558963-.0155891c-.077621-.001188-.155222-.0019689-.232802-.0023436zm2.900788 684.8714609c9.472718 0 18.265007 4.254846 24.609286 11.513573 6.10535 6.985359 9.545294 16.29056 9.545294 26.122584s-3.439944 19.137225-9.545294 26.122584c-6.344279 7.258727-15.136568 11.513573-24.609286 11.513573-9.472717 0-18.265007-4.254846-24.609286-11.513573-6.105349-6.985359-9.545293-16.29056-9.545293-26.122584s3.439944-19.137225 9.545293-26.122584c6.344279-7.258727 15.136569-11.513573 24.609286-11.513573zm77.531842 0c9.472718 0 18.265007 4.254846 24.609286 11.513573 6.10535 6.985359 9.545294 16.29056 9.545294 26.122584s-3.439944 19.137225-9.545294 26.122584c-6.344279 7.258727-15.136568 11.513573-24.609286 11.513573s-18.265007-4.254846-24.609286-11.513573c-6.105349-6.985359-9.545293-16.29056-9.545293-26.122584s3.439944-19.137225 9.545293-26.122584c6.344279-7.258727 15.136568-11.513573 24.609286-11.513573zm77.531842 0c9.472718 0 18.265007 4.254846 24.609286 11.513573 6.105349 6.985359 9.545293 16.29056 9.545293 26.122584s-3.439944 19.137225-9.545293 26.122584c-6.344279 7.258727-15.136568 11.513573-24.609286 11.513573s-18.265007-4.254846-24.609286-11.513573c-6.10535-6.985359-9.545294-16.29056-9.545294-26.122584s3.439944-19.137225 9.545294-26.122584c6.344279-7.258727 15.136568-11.513573 24.609286-11.513573zm77.531842 0c9.472717 0 18.265007 4.254846 24.609286 11.513573 6.105349 6.985359 9.545293 16.29056 9.545293 26.122584s-3.439944 19.137225-9.545293 26.122584c-6.344279 7.258727-15.136569 11.513573-24.609286 11.513573-9.472718 0-18.265007-4.254846-24.609286-11.513573-6.10535-6.985359-9.545294-16.29056-9.545294-26.122584s3.439944-19.137225 9.545294-26.122584c6.344279-7.258727 15.136568-11.513573 24.609286-11.513573zm114.202307 0c9.472718 0 18.265007 4.254846 24.609286 11.513573 6.10535 6.985359 9.545294 16.29056 9.545294 26.122584s-3.439944 19.137225-9.545294 26.122584c-6.344279 7.258727-15.136568 11.513573-24.609286 11.513573s-18.265007-4.254846-24.609286-11.513573c-6.105349-6.985359-9.545293-16.29056-9.545293-26.122584s3.439944-19.137225 9.545293-26.122584c6.344279-7.258727 15.136568-11.513573 24.609286-11.513573zm78.788424 0c9.472718 0 18.265007 4.254846 24.609286 11.513573 6.10535 6.985359 9.545293 16.29056 9.545293 26.122584s-3.439943 19.137225-9.545293 26.122584c-6.344279 7.258727-15.136568 11.513573-24.609286 11.513573s-18.265007-4.254846-24.609286-11.513573c-6.105349-6.985359-9.545293-16.29056-9.545293-26.122584s3.439944-19.137225 9.545293-26.122584c6.344279-7.258727 15.136568-11.513573 24.609286-11.513573zm80.257315 0c9.472718 0 18.265007 4.254846 24.609286 11.513573 6.10535 6.985359 9.545294 16.29056 9.545294 26.122584s-3.439944 19.137225-9.545294 26.122584c-6.344279 7.258727-15.136568 11.513573-24.609286 11.513573-9.472717 0-18.265007-4.254846-24.609286-11.513573-6.105349-6.985359-9.545293-16.29056-9.545293-26.122584s3.439944-19.137225 9.545293-26.122584c6.344279-7.258727 15.136569-11.513573 24.609286-11.513573zm-495.924059 35.433975-18.541404 16.140413c2.494693 2.41162 5.50529 3.697926 8.621891 3.697926 1.412393 0 2.803015-.264175 4.133715-.777542 3.659435-4.521777 5.872597-10.414201 5.872597-16.858615 0-.741791-.029323-1.476268-.086799-2.202182zm77.525152-.082914-18.581535 16.177875c2.5038 2.440906 5.532588 3.743378 8.668712 3.743378 1.412393 0 2.803014-.264175 4.133715-.777542 3.659435-4.521777 5.872597-10.414201 5.872597-16.858615 0-.770046-.031599-1.532211-.093489-2.285096zm77.525077-.080845-18.622461 16.212027c2.512983 2.470985 5.560341 3.790071 8.716403 3.790071 1.412392 0 2.803014-.264175 4.133715-.777542 3.659434-4.521777 5.872597-10.414201 5.872597-16.858615 0-.797621-.033903-1.586786-.100254-2.365941zm77.524731-.082048-18.663026 16.246994c2.522069 2.501307 5.588031 3.837152 8.764079 3.837152 1.412037 0 2.802315-.264043 4.132711-.777155 3.660438-4.522164 5.873601-10.414588 5.873601-16.859002 0-.825631-.036326-1.642202-.107365-2.447989zm114.195128-.080109-18.702458 16.28068c2.530858 2.531198 5.61505 3.883575 8.81069 3.883575 1.412393 0 2.803014-.264175 4.133715-.777542 3.659435-4.521777 5.872597-10.414201 5.872597-16.858615 0-.853004-.038775-1.696337-.114544-2.528098zm78.780827-.082038-18.741349 16.316029c2.539532 2.561254 5.641946 3.930264 8.857178 3.930264 1.412392 0 2.803014-.264175 4.133715-.777542 3.659435-4.521777 5.872597-10.414201 5.872597-16.858615 0-.881061-.041367-1.751804-.122141-2.610136zm80.249673-.079964-18.780068 16.349038c2.548088 2.591474 5.668715 3.977219 8.903539 3.977219 1.412038 0 2.802316-.264043 4.132712-.777155 3.660438-4.522164 5.8736-10.414588 5.8736-16.859002 0-.908434-.043977-1.805899-.129783-2.6901zm-515.720101-14.946057c-3.51412 0-6.893471 1.635367-9.550447 4.675312-2.895906 3.313314-4.604132 7.934142-4.604132 12.960845 0 1.323393.118401 2.618653.345705 3.869328l20.147109-17.54057c-.658985-1.123696-1.396795-2.189295-2.205158-3.187964-1.330062-.512776-2.720684-.776951-4.133077-.776951zm77.531842 0c-3.51412 0-6.893471 1.635367-9.550448 4.675312-2.895905 3.313314-4.604131 7.934142-4.604131 12.960845 0 1.296918.113711 2.566817.332193 3.794214l20.127082-17.522481c-.65045-1.102734-1.376943-2.149178-2.17162-3.130939-1.330761-.512909-2.721038-.776951-4.133076-.776951zm77.531842 0c-3.51412 0-6.893472 1.635367-9.550448 4.675312-2.895906 3.313314-4.604132 7.934142-4.604132 12.960845 0 1.27009.109056 2.514268.31877 3.71799l20.10624-17.504179c-.641668-1.081469-1.356603-2.108461-2.137354-3.073017-1.330761-.512909-2.721039-.776951-4.133076-.776951zm77.531842 0c-3.514121 0-6.893472 1.635367-9.550448 4.675312-2.895906 3.313314-4.604132 7.934142-4.604132 12.960845 0 1.243381.104517 2.461929.305674 3.641998l20.084929-17.486005c-.632786-1.060268-1.336123-2.067848-2.102947-3.015199-1.330761-.512909-2.721039-.776951-4.133076-.776951zm114.202307 0c-3.51412 0-6.893471 1.635367-9.550448 4.675312-2.895905 3.313314-4.604131 7.934142-4.604131 12.960845 0 1.216443.100037 2.409116.292735 3.565243l20.063759-17.466236c-.623922-1.039397-1.315764-2.027849-2.068839-2.958213-1.330761-.512909-2.721038-.776951-4.133076-.776951zm78.788424 0c-3.51412 0-6.893472 1.635367-9.550448 4.675312-2.895905 3.313314-4.604131 7.934142-4.604131 12.960845 0 1.189854.095712 2.356966.280232 3.489379l20.041137-17.448716c-.614732-1.018056-1.294743-1.986929-2.033714-2.899869-1.330062-.512776-2.720684-.776951-4.133076-.776951zm80.257315 0c-3.51412 0-6.893471 1.635367-9.550447 4.675312-2.895906 3.313314-4.604132 7.934142-4.604132 12.960845 0 1.162915.091427 2.304107.267836 3.412411l20.019483-17.427978c-.605763-.997515-1.27431-1.947522-1.999663-2.843639-1.330761-.512909-2.721039-.776951-4.133077-.776951zm-472.894513-169.512087c6.939912 0 12.565822 5.624149 12.565822 12.561889s-5.62591 12.56189-12.565822 12.56189c-6.939911 0-12.565821-5.62415-12.565821-12.56189s5.62591-12.561889 12.565821-12.561889zm221.969891-402.790205c14.97095 0 28.911814 6.776693 39.058742 18.438315 9.900733 11.378675 15.509821 26.619655 15.509821 42.783268 0 16.163614-5.609088 31.404594-15.509821 42.783269-10.146928 11.661622-24.087792 18.438315-39.058742 18.438315s-28.911814-6.776693-39.058742-18.438315c-9.900733-11.378675-15.509821-26.619655-15.509821-42.783269 0-16.163613 5.609088-31.404593 15.509821-42.783268 10.146928-11.661622 24.087792-18.438315 39.058742-18.438315zm0 20c-8.991575 0-17.509083 4.140384-23.970724 11.566594-6.707837 7.709156-10.597839 18.279046-10.597839 29.654989 0 11.375944 3.890002 21.945834 10.597839 29.65499 6.461641 7.426209 14.979149 11.566594 23.970724 11.566594s17.509083-4.140385 23.970724-11.566594c6.707837-7.709156 10.597839-18.279046 10.597839-29.65499 0-11.375943-3.890002-21.945833-10.597839-29.654989-6.461641-7.42621-14.979149-11.566594-23.970724-11.566594zm-191.64482 32.313482c6.153634 0 11.14214 4.985366 11.14214 11.135127 0 6.14976-4.988506 11.135127-11.14214 11.135127-6.153635 0-11.142141-4.985367-11.142141-11.135127 0-6.149761 4.988506-11.135127 11.142141-11.135127zm374.375928 0c6.153634 0 11.14214 4.985366 11.14214 11.135127 0 6.14976-4.988506 11.135127-11.14214 11.135127-6.153635 0-11.142141-4.985367-11.142141-11.135127 0-6.149761 4.988506-11.135127 11.142141-11.135127zm19.093293-166.0280823 27.255815 1.1437181 8.917145 13.115529c3.403467 5.0058937.131103 12.1087282-5.578642 12.1087282-5.974735 0-11.659735-2.81115-15.6009-7.7144189zm-41.514779-1.2591873 27.255815 1.1437181 8.917145 13.115529c3.403467 5.0058937.131103 12.1087285-5.578642 12.1087285-5.974735 0-11.659735-2.81115-15.600901-7.7144192zm-83.029559-3.7775618 27.255815 1.143718 8.917145 13.115529c3.403468 5.0058937.131104 12.1087284-5.578641 12.1087284-5.974736 0-11.659736-2.8111503-15.600901-7.7144191zm-247.546684-10.0495118 29.699547 1.1409947 9.716648 13.0842988c3.708619 4.9939739.142858 12.0798951-6.078818 12.0798951-6.510424 0-12.705137-2.804456-16.999664-7.6960494z"/></svg>