<svg width="960" height="960" viewBox="0 0 960 960" fill="none" xmlns="http://www.w3.org/2000/svg">
<path d="M68.0913 114.606C79.1368 114.606 88.0913 123.56 88.0913 134.606V606.293L194.864 601.042V141.358C194.864 130.312 203.819 121.358 214.865 121.358C225.91 121.358 234.864 130.312 234.864 141.358V599.076L345.197 593.65V148.258C345.197 137.213 354.152 128.258 365.198 128.258C376.243 128.259 385.197 137.213 385.197 148.258V591.682L494.694 586.297V155.396C494.694 144.35 503.648 135.396 514.694 135.396C525.74 135.396 534.694 144.35 534.694 155.396V584.331L551.674 583.496C552.995 583.431 554.32 583.496 555.627 583.693L931.288 640.114C941.076 641.584 948.318 649.994 948.318 659.892V771.304C948.318 781.625 940.464 790.251 930.189 791.216L314.563 849.066C311.69 849.336 308.791 848.98 306.068 848.024L23.2505 748.752C15.2378 745.94 9.8747 738.373 9.87451 729.881V629.182C9.87451 618.518 18.2412 609.729 28.8921 609.206L48.0913 608.261V134.606C48.0913 123.56 57.0456 114.606 68.0913 114.606ZM324.015 710.876V808L908.318 753.095L908.317 677.112L884.906 673.595L324.015 710.876ZM49.8745 648.222V715.705L302.146 804.254V710.064L61.1616 647.667L49.8745 648.222ZM279.272 716.977C282.033 716.977 284.272 719.216 284.272 721.977V781.458C284.272 784.22 282.033 786.458 279.272 786.458C276.511 786.458 274.272 784.22 274.272 781.458V721.977C274.272 719.216 276.511 716.977 279.272 716.977ZM265.034 714.14C267.795 714.14 270.034 716.379 270.034 719.14V777.631C270.033 780.392 267.795 782.631 265.034 782.631C262.272 782.631 260.034 780.393 260.034 777.631V719.14C260.034 716.379 262.272 714.14 265.034 714.14ZM250.912 709.939C253.673 709.939 255.912 712.178 255.912 714.939V772.624C255.911 775.385 253.673 777.623 250.912 777.624C248.15 777.624 245.912 775.385 245.912 772.624V714.939C245.912 712.178 248.15 709.939 250.912 709.939ZM236.602 705.684C239.363 705.684 241.602 707.923 241.602 710.684V767.615C241.602 770.376 239.363 772.615 236.602 772.615C233.841 772.615 231.602 770.376 231.602 767.615V710.684C231.602 707.923 233.841 705.684 236.602 705.684ZM222.648 702.449C225.409 702.449 227.648 704.687 227.648 707.449V763.359C227.648 766.12 225.409 768.359 222.648 768.359C219.887 768.359 217.648 766.12 217.648 763.359V707.449C217.648 704.687 219.887 702.449 222.648 702.449ZM171.796 692.684L186.371 725.378L171.796 748.636L164.774 746.67L141.073 739.208L127.536 707.294L141.073 683.906L171.796 692.684ZM117.761 676.483C120.522 676.483 122.761 678.722 122.761 681.483V729.358C122.761 732.119 120.522 734.358 117.761 734.358C115 734.358 112.761 732.119 112.761 729.358V681.483C112.761 678.721 115 676.483 117.761 676.483ZM104.522 672.66C107.283 672.66 109.522 674.898 109.522 677.66V725.759C109.522 728.52 107.283 730.759 104.522 730.759C101.761 730.759 99.5223 728.52 99.522 725.759V677.66C99.522 674.898 101.761 672.66 104.522 672.66ZM91.3882 669.368C94.1496 669.362 96.3938 671.596 96.3999 674.358L96.5034 721.017C96.5092 723.778 94.2754 726.021 91.5142 726.027C88.7529 726.032 86.5097 723.798 86.5034 721.037L86.3999 674.377C86.3938 671.616 88.627 669.373 91.3882 669.368ZM78.0913 666.033C80.8524 666.033 83.0912 668.272 83.0913 671.033V717.648C83.0913 720.409 80.8525 722.648 78.0913 722.648C75.3299 722.648 73.0913 720.409 73.0913 717.648V671.033C73.0914 668.271 75.33 666.033 78.0913 666.033ZM65.1372 663.498C67.8984 663.498 70.1372 665.736 70.1372 668.498V715.113C70.1371 717.874 67.8983 720.113 65.1372 720.113C62.3759 720.113 60.1373 717.874 60.1372 715.113V668.498C60.1372 665.736 62.3758 663.498 65.1372 663.498ZM128.214 644.369L311.038 691.707C311.185 691.69 311.334 691.676 311.483 691.667L792.393 659.701L551.65 623.544L128.214 644.369Z" fill="black"/>
</svg>
