<?xml version="1.0" encoding="UTF-8"?>
<svg width="960px" height="960px" viewBox="0 0 960 960" version="1.1" xmlns="http://www.w3.org/2000/svg" xmlns:xlink="http://www.w3.org/1999/xlink">
    <!-- Generator: Sketch 60.1 (88133) - https://sketch.com -->
    <title>com.innr/drivers/long_filament_bulb_vintage/assets/icon</title>
    <desc>Created with Sketch.</desc>
    <g id="com.innr/drivers/long_filament_bulb_vintage/assets/icon" stroke="none" stroke-width="1" fill="none" fill-rule="evenodd">
        <path d="M481.5,1.5 L481.5,1.532 L482.171488,1.53772108 C634.493237,3.99926044 757.517648,126.624551 759.962904,278.463202 L760,283.073221 C760,369.542223 720.633563,449.558765 654.367096,502.645444 L652.32735,504.264247 L640.104957,513.122745 L639.292592,513.743266 C618.01242,530.120991 604.078729,549.569227 597.29717,572.207876 C595.418114,578.480664 594.525129,585.552203 594.378896,594.057872 L594.359974,595.645373 L594.355776,597.313204 C594.363321,600.50453 594.46187,603.74266 594.67478,608.365651 L594.763981,610.2483 L595.007214,615.116413 C595.863407,632.577481 595.710665,639.941929 593.474039,647.826221 L593.293114,648.449939 L593.115092,649.039089 C590.546247,657.383074 585.62815,663.508879 578.230561,667.219459 L585.407678,667.219769 L585.850373,667.680555 C587.186418,669.071197 588.162236,670.599738 588.707354,672.205791 L588.817,672.553 L589.000675,672.660023 C591.555921,674.208343 593.377556,676.934954 594.231932,680.739653 L594.319761,681.15142 L594.397565,681.557279 C594.454989,681.87655 594.488197,682.199244 594.497109,682.52212 L594.497109,682.844936 L594.168079,696.65075 L593.832125,709.3705 C593.43819,723.409182 593.073012,733.217882 592.741248,738.653266 C591.870186,752.906792 578.393497,777.228565 565.897036,785.889167 L565.712,786.015 L565.463047,786.324917 L565.314133,786.484448 L565.184251,786.604719 L565.074,786.692 L564.297565,787.711904 L564.020583,788.055077 L563.561281,788.687501 C563.413812,788.888898 563.274122,789.062327 563.130754,789.217251 L562.985736,789.366359 L562.928,789.419 L562.318047,790.480232 C561.836201,791.327925 561.363619,792.179208 560.896945,793.040072 L560.200947,794.339302 L559.558,795.567 L558.914602,797.416855 L558.777351,797.84008 L558.647968,798.260955 C558.349426,799.248547 558.163309,800.071828 558.064448,800.843138 C558.020736,801.184179 557.894611,801.508588 557.697989,801.788625 L557.627,801.88 L557.39874,802.708889 C556.755876,805.136828 556.173626,808.074668 555.299943,813.301397 L554.833022,816.139387 L554.66723,817.330717 C554.051721,821.846262 553.524938,826.75504 552.850289,834.261841 L552.508903,838.133984 L552.075432,847.108507 L551.846748,852.219003 C551.638042,857.076964 551.486855,861.240886 551.37144,865.282842 C551.134885,874.86576 551.120141,883.978862 551.327624,892.609097 L551.372084,894.328702 L551.372,896.364 L551.433201,896.484633 C551.706335,897.07919 551.699916,897.788766 551.360707,898.394415 L551.268941,898.543536 L551.171152,898.677463 L530.999,924.214 L530.988155,924.264569 C530.928723,924.49314 530.830326,924.712501 530.694333,924.913163 L530.585311,925.060005 L530.462318,925.198946 L523.506528,932.409458 L505.719344,951.023565 L505.605909,951.130543 L505.509462,951.212461 L505.385413,951.307169 L505.115,951.491 L504.905663,951.707541 C502.604221,954.05123 501.09097,955.174699 498.679372,956.234668 L498.344791,956.378925 L497.998123,956.523045 C494.224087,958.065365 489.01596,959.001056 481.675996,959.431195 L480.396702,959.5 L480.029948,959.5 L478.389411,959.407277 L477.255663,959.334523 L476.163065,959.255274 C465.617069,958.442584 460.843364,956.622658 456.05575,951.874322 L455.676,951.491 L455.406723,951.307167 L455.282669,951.212454 L455.186214,951.130528 L455.072769,951.023538 L437.293159,932.41666 L430.330451,925.198943 C430.136465,924.997852 429.988843,924.767484 429.889377,924.521162 L429.823834,924.333638 L429.786,924.185 L410.564,899.244 L410.500965,899.21141 C409.943377,898.899122 409.544721,898.341559 409.445014,897.688992 L409.426396,897.523958 L409.420687,897.367624 L409.421498,894.270163 C409.643408,886.259355 409.669521,877.774899 409.499718,868.868515 L409.463145,867.081627 L409.387685,863.833572 L409.326485,861.607795 C409.265984,859.586444 409.188957,857.442578 409.093358,855.11092 L408.988105,852.637176 L408.768286,847.881482 L408.288787,838.215229 L407.887062,833.661507 L407.509557,829.599946 L407.30423,827.503801 C406.898502,823.449463 406.518594,820.189444 406.097334,817.122902 L405.96391,816.1677 L405.666778,814.247518 C404.930612,809.592976 404.243315,806.036604 403.534033,803.247531 L403.293,802.334 L403.284412,802.325292 C403.001254,802.02311 402.8082,801.6383 402.73897,801.213173 L402.716978,801.028632 L402.710636,800.861048 L402.712,800.705 L402.688966,800.494426 C402.534929,799.266386 402.138004,797.967312 401.41957,796.360085 L401.248034,795.983608 L401.06487,795.595543 L401.019372,795.490627 L400.884524,795.1522 L400.723382,794.769272 C400.226647,793.624016 399.592919,792.479107 398.357517,790.48683 L397.649,789.355 L397.613942,789.317435 C397.328794,789.000777 397.030471,788.588821 396.779963,788.172014 L396.635884,787.922072 L396.594,787.844 L395.993,787.122 L394.938582,786.446381 C382.606003,778.548799 368.994384,754.768705 367.37199,739.960306 L367.32651,739.514338 L367.288105,739.069598 L367.259103,738.653235 C366.748096,730.288588 366.157084,711.525883 365.498279,682.837102 C365.492298,682.404969 365.526582,681.97515 365.603172,681.555153 C366.392689,677.201541 368.375543,674.146634 371.221699,672.526587 L371.491045,672.378916 L371.717,672.264 L371.732885,672.228433 C372.570652,670.393522 374.791528,667.405326 376.570796,665.450696 L376.821776,665.17873 L377.159619,664.82599 C372.065194,661.163079 368.504805,656.011117 366.414015,649.469277 L366.277008,649.031755 L366.091155,648.41386 C363.700257,640.301554 363.518451,633.013695 364.392794,615.117466 L364.661009,609.7113 L364.824487,606.073179 C365.010257,601.588035 365.069618,598.428072 365.031272,594.942609 C364.933311,586.038312 364.047659,578.692111 362.110182,572.200691 C355.352585,549.559702 341.469628,530.111543 320.268698,513.735237 L319.245169,512.955865 L307.752675,504.612076 L307.257729,504.237647 C240.01812,451.165168 200,370.409357 200,283.073221 C200,129.120155 323.52337,4.02424578 476.84487,1.5377229 L477.5,1.532 L477.5,1.5 L479.503,1.516 L481.5,1.5 Z M505.493,934.598 L505.157,934.598 L504.16032,934.675547 L502.977089,934.750352 L502.034447,934.796611 C500.179231,934.876377 497.988827,934.906463 494.490539,934.912212 L492.219605,934.916285 L491.561195,934.923853 C491.113411,934.930612 490.640328,934.94096 490.096285,934.955854 L489.354105,934.977582 L484.075278,935.156662 L483.190668,935.181137 L482.324826,935.200483 L481.179689,935.218139 L480.616019,935.222671 L479.29122,935.221733 L478.502212,935.214055 L477.257585,935.191412 C476.966033,935.184769 476.661774,935.177 476.339354,935.168004 L469.904803,934.957504 L468.821557,934.931571 L467.865778,934.917592 L463.360171,934.904505 L461.947701,934.892358 C459.426129,934.86353 457.687152,934.799584 455.929081,934.670205 L455.05,934.6 L454.58,934.598 L462.504499,942.959447 L462.580189,943.0457 L462.936529,943.489775 L463.268666,943.847723 L463.577947,944.164322 C466.427987,946.999521 469.751978,948.008389 478.700726,948.437285 L480.124,948.499 L481.06932,948.45919 L482.03086,948.4128 C490.804582,947.959647 494.0219,946.925944 496.867156,944.010233 L497.019254,943.852226 L497.304,943.545 L497.797373,942.945588 L505.493,934.598 Z M548.405,790.829 L547.955307,790.892359 L546.369781,791.103668 C543.527471,791.472576 541.023233,791.74137 538.583086,791.936332 L537.256806,792.03551 L532.657196,792.32327 C523.85603,792.862136 517.30496,793.186386 510.710911,793.403704 C499.987469,793.953039 489.385657,794.240502 479.725364,794.240502 C470.685348,794.240502 460.944071,793.989113 450.873604,793.500213 L448.981624,793.405765 L447.254474,793.360338 L444.681679,793.278426 L443.094214,793.2193 C439.176999,793.065434 434.947177,792.841093 429.455859,792.502042 L427.952266,792.408333 L422.101098,792.033475 L420.719925,791.92515 L419.084719,791.777281 L417.938248,791.66433 L412.514347,791.106304 L411.618,791.022 L412.00988,791.825629 C412.848688,793.774632 413.564036,796.085424 414.07333,798.441402 L414.19,799 L414.49068,799.946154 L414.697495,800.628813 C414.792352,800.951464 414.875023,801.248731 414.948382,801.532456 L415.079,802.066 L415.875488,802.164559 C423.430654,803.074521 432.167723,803.802294 441.539175,804.305189 L442.713871,804.366877 C456.026506,805.118339 471.036714,805.5019 486.418244,805.5019 C487.533208,805.5019 488.443023,806.368224 488.52003,807.461981 L488.525309,807.612479 L488.525309,812.848211 C488.525309,814.011919 487.583888,814.958789 486.418244,814.958789 C472.295049,814.958789 458.46163,814.638048 445.827485,814.004586 L444.186429,813.920187 L442.292681,813.817408 C433.300304,813.335523 424.913049,812.630636 417.671651,811.745544 L417.026,811.665 L417.21899,812.80126 L417.328463,813.492506 L417.41919,814.11515 C417.446707,814.314097 417.471699,814.505859 417.494765,814.694683 L417.527994,814.976247 L417.720627,816.324756 L417.902146,817.651092 L418.084104,819.059782 C418.226382,820.201322 418.345887,821.267827 418.447207,822.30341 L418.539,823.294 L420.557872,823.487479 L422.514236,823.664191 C428.030467,824.14917 434.255794,824.587194 441.857614,825.031108 L442.776483,825.08441 C456.082119,825.836096 471.085625,826.219429 486.482022,826.219429 C487.596985,826.219429 488.506801,827.085751 488.583808,828.179509 L488.589088,828.330007 L488.589088,833.566498 C488.589088,834.730207 487.647665,835.677076 486.482022,835.677076 C472.398058,835.677076 458.585795,835.357304 445.95719,834.725945 L444.24253,834.63792 L442.198942,834.525247 L432.152057,833.842606 C427.39788,833.50718 423.934691,833.23114 420.847813,832.937002 L419.511,832.805 L419.559742,833.57933 L419.631109,834.522662 C419.667275,834.966293 419.709559,835.445044 419.758709,835.969402 L419.881198,837.230596 L419.950105,838.390935 L420.001087,839.51105 L420.133557,842.947174 C420.149954,843.335332 420.165781,843.679557 420.18199,843.996732 L420.196,844.27 L422.078076,844.411096 L430.050527,845.040746 C435.025842,845.421906 438.400778,845.631722 441.866798,845.768483 L442.774156,845.802567 L445.769566,845.967123 L448.686508,846.118357 L451.586727,846.259824 C464.114029,846.851544 476.090719,847.165389 486.482022,847.165389 C487.596985,847.165389 488.506801,848.031712 488.583808,849.125469 L488.589088,849.275967 L488.589088,854.285543 C488.589088,855.449252 487.647665,856.396122 486.482022,856.396122 C471.644275,856.396122 457.096874,856.040425 443.956731,855.341642 L442.38674,855.256142 L440.695569,855.188131 L438.967923,855.105497 L436.896876,854.989429 C435.295187,854.892981 433.563826,854.774096 431.562668,854.624049 L429.150111,854.438495 L420.689,853.76 L420.824105,856.612882 L420.922054,858.999434 L420.95936,860.106115 C420.997256,861.346426 421.015981,862.429096 421.021059,863.566388 L421.022,865.139 L422.226961,865.268318 L423.948329,865.440264 L426.330259,865.664065 C430.797137,866.069426 435.842652,866.450053 441.938748,866.84631 L442.77659,866.900445 C456.074009,867.652351 471.070566,868.035458 486.482022,868.035458 C487.596985,868.035458 488.506801,868.901781 488.583808,869.995538 L488.589088,870.146036 L488.589088,875.382527 C488.589088,876.49564 487.727748,877.410359 486.629604,877.487792 L486.478448,877.493101 L483.932118,877.487031 L481.442061,877.469941 C469.701332,877.364592 456.301427,876.901946 442.389879,876.126334 C434.997293,875.847995 428.227468,875.405605 422.276638,874.807193 L421.274,874.704 L421.274,887.929 L421.936867,888.008933 L422.497476,888.065408 L422.7837,888.090261 L422.7837,888.090261 L423.372776,888.134874 L425.611798,888.285032 C426.51562,888.351575 427.129063,888.414967 427.749269,888.508897 L427.869,888.527 L428.275662,888.529123 C430.403963,888.551475 432.510825,888.697318 435.057887,888.991609 L435.618,889.058 L436.435668,889.06609 L437.09994,889.083782 L437.585037,889.101895 C437.92451,889.115836 438.299976,889.133653 438.734513,889.156215 L440.927917,889.275605 C441.866048,889.324681 442.468535,889.348761 443.056887,889.358274 L443.652434,889.363319 L443.753115,889.366859 L444.874914,889.442263 L445.613532,889.482534 L449.183555,889.648258 C450.526785,889.716088 451.403348,889.779005 452.303535,889.874544 L452.47,889.892 L455.358616,889.902555 L456.395162,889.918659 L456.919281,889.93073 L458.045581,889.966737 C459.137658,890.009457 460.130148,890.072609 461.050821,890.158799 L461.424,890.195 L471.41909,890.198773 L472.204023,890.212947 L473.095299,890.241315 L473.095299,890.241315 L474.829919,890.316541 L476.841614,890.4121 C477.390968,890.436871 477.843426,890.455205 478.239564,890.46851 L479.102938,890.491506 L480.025933,890.500077 L481.073481,890.489578 L481.615255,890.475241 L482.218557,890.453675 L486.195614,890.268605 L487.318897,890.226379 C487.779157,890.211973 488.198368,890.203129 488.620216,890.198834 L489.260426,890.195676 L498.58,890.199 L498.955174,890.159851 L499.641543,890.095291 C501.168954,889.963956 502.768865,889.911484 505.604815,889.897889 L507.583,889.894 L508.691705,889.815379 L509.812866,889.753737 L513.40338,889.585712 L514.544403,889.516317 L514.544403,889.516317 C514.948519,889.488828 515.335903,889.458758 515.730784,889.424164 L516.331759,889.368635 L516.467788,889.361658 L516.93577,889.35896 C517.162131,889.356203 517.389572,889.351165 517.636875,889.343255 L518.457157,889.310308 L521.850292,889.130929 L522.843583,889.088644 L523.608067,889.067365 C523.729976,889.065001 523.850022,889.063205 523.969541,889.061942 L524.441,889.059 L528.18417,888.712713 L529.13433,888.64022 C530.086983,888.574152 530.921858,888.538122 531.691241,888.531348 L531.978,888.53 L532.395988,888.484387 L532.907674,888.436655 L533.732574,888.373655 L533.732574,888.373655 L535.919713,888.227903 L536.542707,888.180055 C536.92534,888.148382 537.25419,888.116024 537.59893,888.076154 L538.808,887.928 L538.824851,879.451752 L538.856941,874.889958 L538.880728,872.806815 C538.907381,870.771052 538.942917,868.858891 538.989903,866.903491 L539.059562,864.256023 L539.159699,859.789865 L539.238792,856.737757 L539.329417,853.697215 C539.517673,847.835076 539.750793,843.229042 540.079975,838.843057 L540.199192,837.315302 L540.28938,835.780004 L540.411435,833.961415 L540.53075,832.381785 C540.700468,830.242098 540.914719,827.944853 541.197611,825.207993 L541.465648,822.671853 L542.147285,816.41866 C542.19909,815.935045 542.246969,815.482774 542.301576,814.972112 C543.11975,809.353225 544.279117,803.694255 545.554059,799.019005 C545.976522,797.176185 546.668726,795.042708 547.53017,792.900671 L547.76923,792.316479 L548.204963,791.287016 L548.405,790.829 Z M380.584,685.06 L378.529,684.736 L378.918034,700.648784 C379.400765,719.237307 379.840425,731.807639 380.228857,738.132111 C380.875832,748.672219 392.591493,769.501436 401.81296,775.65553 L402.103319,775.844963 L406.335,778.542 L407.964992,778.791568 L410.448,779.178 L412.186904,779.328387 L417.779798,779.887696 C419.314429,780.037998 420.505501,780.144515 421.626179,780.23101 L421.960543,780.256381 L439.203143,781.354474 C441.674324,781.507584 443.93257,781.644758 446.062784,781.771206 L449.47184,781.970762 L467.192414,782.355773 C472.209496,782.45132 475.757732,782.492625 479.598123,782.500002 L480.704848,782.500002 L483.177651,782.495572 C490.293045,782.470344 498.182001,782.337591 507.789789,782.085137 L511.866008,781.973809 L517.082446,781.669206 L523.760472,781.261052 L538.787015,780.304787 C541.574313,780.168448 544.230361,779.90679 547.849134,779.417422 L548.497958,779.328679 L551.141923,778.954856 L551.259115,778.942957 C552.204101,778.884382 553.118433,778.803577 554.074026,778.693378 L554.51,778.64 L558.896723,775.844936 C568.064097,770.00261 579.869336,749.222342 580.748272,738.474737 L580.77238,738.138703 L580.87817,736.281766 L581.025318,733.288036 C581.432131,724.385193 581.887218,709.386067 582.382045,688.556148 L582.471,684.739 L581.137,684.949 L581.003765,684.995132 L580.462487,685.169619 L579.89741,685.341171 C574.991735,686.787189 567.454631,687.926464 555.958851,689.046447 L553.875264,689.245221 L551.942349,689.421517 L549.921262,689.596879 C536.307502,690.748529 519.920075,691.550386 502.15739,691.928873 L499.570891,691.980804 C495.444207,692.058611 491.262495,692.11344 487.041754,692.144906 L483.869131,692.164118 L480.691262,692.174378 L480.185616,692.173432 C475.92875,692.163517 471.701246,692.129988 467.519175,692.073187 L464.391392,692.026229 L461.81786,691.980805 C442.609177,691.618633 424.890115,690.764025 410.403478,689.505658 L409.398049,689.417211 L407.513448,689.245221 L405.449523,689.048346 L403.467741,688.851138 C392.682945,687.753971 385.624261,686.625283 381.011542,685.196086 L380.584,685.06 Z M575.815,677.102 L573.131,674.669 L572.995531,674.70632 C567.172841,676.280127 558.921375,677.382533 546.144468,678.386319 L543.972721,678.552768 L542.434238,678.666068 C525.617872,679.885563 504.208963,680.595192 482.718262,680.658779 L479.974672,680.663377 L477.190921,680.658653 L474.388636,680.646594 L471.521565,680.626722 C452.902409,680.472973 434.661126,679.841505 419.733067,678.822304 L418.618369,678.745043 L415.967568,678.552266 L413.088629,678.329764 L411.677806,678.215019 C400.543704,677.293145 393.046992,676.273581 387.601703,674.87735 L387.114,674.749 L384.518,677.103 L384.584917,677.120311 C384.850742,677.187679 385.126301,677.255024 385.411251,677.32224 L386.293931,677.523397 L387.156663,677.708003 L388.090672,677.89658 C392.716421,678.804219 398.949894,679.655527 406.477234,680.404817 L408.033066,680.556475 C426.645749,682.333201 451.232091,683.377248 477.486215,683.491595 L480.161707,683.50001 L484.148272,683.48513 L486.810381,683.467165 L490.778375,683.428309 C513.611864,683.162785 534.782045,682.188902 551.346597,680.646519 L552.297113,680.556906 L554.588373,680.331316 L556.064677,680.178257 L557.552598,680.017367 C564.406147,679.260221 569.991891,678.415469 574.031746,677.525339 C574.489105,677.424565 574.925408,677.323428 575.339744,677.222219 L575.815,677.102 Z M478,459.5 C459.888055,459.5 445.099083,473.886627 444.518088,491.870437 L444.504842,492.416491 L444.5,493 L444.5,660.301856 C455.135212,660.890384 465.936303,661.27631 476.903588,661.459548 L479.503,661.498 L482.114109,661.45954 C492.045303,661.294216 501.840738,660.963908 511.500417,660.468678 L511.500417,493.028354 L511.495503,492.444877 C511.199345,474.178734 496.294894,459.5 478,459.5 Z M481.923768,16.5357149 L479.494,16.516 L477.092948,16.5357131 C331.942163,18.8897566 215,137.320696 215,283.073221 C215,364.9418 252.124324,440.676671 314.648719,490.947878 L316.563776,492.473162 L328.624614,501.23969 C352.690676,519.600635 368.71015,541.866049 376.483625,567.910687 C378.795723,575.657254 379.849407,584.028474 380.016588,593.796145 L380.030364,594.777596 C380.081775,599.450676 379.973755,603.488608 379.654154,610.21328 L379.323469,616.924637 C378.587304,632.493467 378.801423,638.712445 380.617493,644.632836 C382.725613,651.505311 386.978453,654.990084 396.151627,656.093946 C409.63913,657.716975 423.421881,658.98028 437.499893,659.883657 L437.5,492.971646 L437.505417,492.331398 C437.863506,470.245491 455.881872,452.5 478,452.5 C499.896946,452.5 517.775716,469.892355 518.478891,491.697679 L518.494928,492.359783 L518.5,493 L518.501235,660.079463 C532.855928,659.218854 546.906703,657.989066 560.653574,656.390309 L563.166346,656.09356 C572.388066,654.987892 576.663493,651.49735 578.779114,644.625503 L578.931662,644.116262 C580.517014,638.671947 580.76893,632.757829 580.190027,619.412393 L580.104072,617.504811 L579.778416,610.910128 C579.464219,604.433318 579.338064,600.415034 579.356888,596.1216 L579.367337,594.777295 L579.381167,593.795628 C579.548997,584.025792 580.606813,575.652323 582.928024,567.903502 C590.64668,542.136573 606.463637,520.07045 630.184111,501.825307 L630.960406,501.231711 L643.019704,492.499179 L644.987664,490.939623 C707.741718,440.6673 745,364.935572 745,283.073221 C745,137.326761 627.625015,18.8898779 481.923768,16.5357149 Z M461.992722,151.003871 C465.429323,151.12299 468.117111,153.961175 467.996067,157.343134 L458.448962,424.088236 C458.327918,427.470195 455.443877,430.115249 452.007278,429.996129 C448.570678,429.87701 445.882889,427.038825 446.003933,423.656866 L455.551038,156.911764 C455.672082,153.529805 458.556123,150.884751 461.992722,151.003871 Z M501.448962,156.911764 L510.996067,423.656866 C511.117111,427.038825 508.429322,429.87701 504.992722,429.996129 C501.556123,430.115249 498.672082,427.470195 498.551038,424.088236 L489.003933,157.343134 C488.882889,153.961175 491.570677,151.12299 495.007278,151.003871 C498.443877,150.884751 501.327918,153.529805 501.448962,156.911764 Z M439.468072,145.026972 C442.821727,145.341723 445.286436,148.328299 444.973154,151.697678 L420.171504,418.442134 C419.858223,421.811513 416.885584,424.287779 413.531929,423.973028 C410.178274,423.658277 407.713565,420.671701 408.026846,417.302322 L432.828496,150.557866 C433.141777,147.188487 436.114417,144.712221 439.468072,145.026972 Z M524.171504,150.557866 L548.973154,417.302322 C549.286435,420.671701 546.821726,423.658277 543.468071,423.973028 C540.114416,424.287779 537.141777,421.811513 536.828496,418.442134 L512.026846,151.697678 C511.713564,148.328299 514.178273,145.341723 517.531928,145.026972 C520.885583,144.712221 523.858223,147.188487 524.171504,150.557866 Z" id="Shape" fill="#000000" fill-rule="nonzero"></path>
    </g>
</svg>