<svg height="960" viewBox="0 0 960 960" width="960" xmlns="http://www.w3.org/2000/svg"><path d="m386.663235 267.174186c57.832012-11.476699 117.355684-11.476699 175.187696 0l336.537068 66.785409c28.554914 5.666691 49.126167 30.721443 49.126167 59.833202v186.848139c0 26.945557-17.679365 50.698971-43.491085 58.433192l-296.400102 88.813292c-83.200929 24.930317-171.8388 25.249822-255.217293.91996l-307.4928932-89.726493c-26.0230629-7.593535-43.9127928-31.449567-43.9127928-58.557897v-186.730193c0-29.111759 20.5712529-54.166511 49.1261672-59.833202zm-345.6630158 142.25746-.0002192 171.474224c.1692586 9.173452 6.2814822 17.198038 15.1175188 19.776396l307.4928932 89.726493 2.28044.658279c75.301315 21.500864 155.203633 20.990681 230.250872-1.496465l296.400101-88.813292.368621-.114121c8.685272-2.775842 14.60372-10.854722 14.60372-20.002224l.000428-171.091819c-1.930768 1.094675-3.999859 1.995938-6.184504 2.67401l-.408006.123639-300.32895 88.813292c-77.851409 23.022223-160.736303 23.544535-238.851084 1.532102l-2.365645-.673942-311.5687776-89.726492c-2.4145669-.695355-4.6937245-1.661724-6.8074082-2.86008zm511.4833908-103.333133c-52.194687-10.144942-105.86978-10.041422-158.034255.31056l-336.5370679 66.785409-.3541105.073409c-5.0973585 1.10206-9.4313361 4.006074-12.3852697 7.960977.0442781.333402.0709198.671658.0803343 1.014217l.0038418.279905c0 4.759449 3.1433163 8.99143 7.798386 10.463177l.2868793.086639 311.5687777 89.726493c74.391168 21.423387 153.430742 21.359088 227.759468-.159563l2.250934-.658648 300.32895-88.813292c4.675164-1.38254 7.873963-5.525817 8.002579-10.23201l.004026-.29485c0-.473605.032924-.939521.096607-1.395583-3.022439-4.054674-7.494-7.007465-12.751811-8.050871l-336.537068-66.785409zm-144.635684 95.556538c.609946 2.618657-.959533 5.235994-3.525207 5.950201l-.210187.0537-130.063429 30.294785c-2.689432.626431-5.37747-1.045962-6.003901-3.735394-.609946-2.618658.959533-5.235994 3.525206-5.950201l.210187-.0537 130.06343-30.294785c2.689432-.626431 5.37747 1.045962 6.003901 3.735394zm144.931115-7.973316.212918.041574 134.540224 29.257711c2.698357.586797 4.410115 3.24994 3.823318 5.948297-.571355 2.627348-3.111213 4.31934-5.735379 3.864893l-.212918-.041574-134.540223-29.257711c-2.698358-.586797-4.410115-3.24994-3.823319-5.948297.571355-2.627348 3.111213-4.31934 5.735379-3.864893zm-76.779041-19.681735c22.643675 0 41 3.80558 41 8.5s-18.356325 8.5-41 8.5-41-3.80558-41-8.5 18.356325-8.5 41-8.5zm188.774027-32.188988c.609946 2.618658-.959534 5.235994-3.525207 5.950201l-.210187.0537-109.1129 25.414921c-2.689432.626432-5.37747-1.045961-6.003901-3.735393-.609946-2.618658.959533-5.235994 3.525207-5.950201l.210187-.053701 109.112899-25.414921c2.689432-.626431 5.37747 1.045962 6.003902 3.735394zm-367.128509-3.61174.212918.041575 109.676117 23.850653c2.698357.586796 4.410115 3.249939 3.823319 5.948296-.571355 2.627348-3.111213 4.31934-5.735379 3.864893l-.212918-.041574-109.676118-23.850653c-2.698357-.586797-4.410115-3.24994-3.823318-5.948297.571354-2.627348 3.111212-4.319339 5.735379-3.864893z"/></svg>