<svg height="960" viewBox="0 0 960 960" width="960" xmlns="http://www.w3.org/2000/svg"><path d="m480.5 85c104.584986 0 202.253849 8.1949753 276.830607 23.032957l2.787972.55996 2.764847.565887c.458876.094808.916784.189863 1.373722.285164l2.729979.574773 2.706612.580693 2.683149.586614c.890462.196524 1.776997.394035 2.659589.592531l2.635933.598447c.437345.100235.873701.200715 1.309065.301442l2.600267.607318c.43139.101712.861783.203671 1.291178.305876l2.564385.616184 2.540342.622093 2.516202.628 2.491967.633905 2.467634.639807c.409239.107127.81746.214499 1.224662.322117l2.430954.648659c.806228.217203 1.60836.435388 2.40638.654557l2.38171.660454c.789781.221133 1.575434.44325 2.356943.666348l2.332079.672241c4.639229 1.350374 9.128697 2.736093 13.464925 4.157092l2.155328.713439c1.071263.358189 2.132913.718582 3.184894 1.081179l2.091056.72813 2.065178.734003 2.039203.739875c3.039276 1.114216 5.990562 2.248241 8.85239 3.402047l1.894617.772135c.62711.258355 1.249787.517687 1.868014.777994l1.841315.783852c1.218623.52452 2.419382 1.052944 3.602148 1.585269 13.734237 6.181338 25.336026 13.001769 34.777772 20.764495 8.495568 6.984806 15.386158 14.83043 20.257764 23.715791l.401285.742857.142933.272815.208915.302259c1.169252 1.717456 2.213211 3.539197 3.116268 5.454987l.332011.72281.19279.437868 7.562016 17.457076.051611.068363c8.276286 11.22516 13.222687 23.911988 13.803892 37.686036l.029497.841601 24.173 324.533.142494.556537c.649848 2.634391 1.038659 5.371579 1.137424 8.182553l.019723.768437.005359.661473c0 1.081952-.022606 2.162993-.067735 3.242749l-.052634 1.079313-.046631.747938.070179.981337c.523634 7.125349-.71018 14.375992-3.799238 20.848615-26.872287 77.796865-63.014115 137.711885-109.085556 179.201495l-1.399144 1.251621-.150241.131932-.089381.108503c-24.128815 28.513192-70.476427 49.543289-133.913593 64.639933l-1.927564.455659-2.040283.475728c-63.66936 14.74146-142.277877 22.835177-224.998179 22.835177-82.720469 0-161.328961-8.093746-224.998806-22.835363-64.818599-15.007591-112.295627-36.041557-137.138194-64.700164l-.745871-.870778-.090129-.108695-.123307-.108893c-46.8373268-41.611281-83.4974748-102.109887-110.67904932-180.982841l.17077188.505734-.27454904-.588441c-2.89093035-6.33054-4.03512537-13.369045-3.52468836-20.288576l.00727389-.06419.06254795-.875793-.06577642-1.137925-.02726376-.578649-.02294993-.578915-.03294557-1.158578-.00659318-.419299-.00827408-.789396c-.03465523-3.30632.33262583-6.522382 1.05616159-9.602026l.17327304-.708244.07236831-.278968 24.197-324.85.0413563-1.142891.0162678-.343509.0413925-.686542c.8419369-12.215306 5.0986594-23.519495 12.0345349-33.673657l.4279867-.620244.2054618-.294157 5.242-12.667.1979488-.544332c.3740111-1.00895.7820516-2.006548 1.223586-2.991806l.3374226-.736614.2950426-.619248.0437662-.094996c1.0892772-2.369226 2.3936367-4.598089 3.8841316-6.667128l.4527036-.615898.2123986-.280978.0344206-.047274c.8095419-1.115622 1.6628732-2.200374 2.5581668-3.255665l.6793096-.785966.5779882-.646627c.2382948-.262601.4778534-.523328.718661-.782219 3.5167565-3.780855 7.1026935-6.98662 10.9014233-9.95453l.7370073-.571319.7020978-.534884.7126246-.533694 1.0903008-.804822.6983735-.585388c28.9798135-24.092486 81.2065865-42.87957 151.0441135-56.476266l2.121674-.410433 2.198541-.4198c72.053219-13.6674671 159.730329-21.192113 252.568298-21.192113zm416.844691 555.900168-.106234.064798c-23.379752 14.294275-55.16198 27.034737-94.117156 37.971351-85.379194 23.970094-200.443931 37.633649-323.121301 37.633649s-237.742107-13.663555-323.121301-37.633649c-38.256046-10.740334-69.5942994-23.220349-92.8502516-37.203234 22.5792014 49.97374 50.0581796 88.949196 82.4371796 116.925951 32.949587 43.20623 167.46671 75.685905 329.127335 76.331178l4.907038.009788 4.907038-.009788c161.660625-.645272 296.1777-33.124934 329.122527-76.329733 32.562336-28.133124 60.167378-67.386561 82.815126-117.760311zm-113.196428-316.449174c-80.346004 18.238416-188.658521 28.637743-304.148263 28.637743s-223.802259-10.399327-304.148263-28.637743c-50.404665-11.44178-88.0198395-25.350476-110.1251059-41.759327l-22.0687096 296.308333h-.6579215v.789397c.0303277 1.051774.096425 2.100517.2060575 3.14608l.0903794.783575-.2964369 4.113713.7752512 2.290288c1.7201978 5.051777 3.4788444 10.017305 5.2759385 14.896582 18.4306656 19.667108 57.2867003 38.954167 113.2334743 54.661149 83.484361 23.438123 196.759614 36.889182 317.715336 36.889182s234.230975-13.451059 317.715336-36.889182c57.710688-16.202198 97.235958-36.21378 114.91889-56.523487 1.557418-4.278619 3.088625-8.623558 4.590523-13.034244l.775251-2.290288-.295807-4.11872c.163862-1.303578.260042-2.61217.295807-3.925489v-.788556h-.658078l-22.121197-297.020323c-21.969578 16.718872-59.940367 30.864412-111.072462 42.471317zm107.234371-85.641564-.415803.457698c-18.202828 19.678775-58.936333 35.761622-117.711021 48.560852-77.469283 16.870307-181.902357 26.489426-293.25581 26.489426s-215.786527-9.619119-293.25581-26.489426c-58.415989-12.721117-99.0103324-28.685893-117.3752313-48.200958-.4136895 1.470606-.6904425 2.950814-.8245591 4.439278l-.0390582.491222-.0552029 1.602888-.828973 11.119367c1.1656386 1.470581 2.5545139 2.965262 4.1697061 4.478591l.6568563.605136.6809469.607042.705081.608868c.9562168.813009 1.9769075 1.630684 3.0625366 2.452205l.826405.616848c.6988296.514619 1.4230712 1.03066 2.1728381 1.547922l.9119797.621288c.4621231.310924.9334518.622258 1.4140104.93396l.9734311.62388c.164292.104057.3296114.208152.4959591.312283l1.0104326.625205 1.0351547.625991c.1745883.104393.3502086.208815.5268617.313266l1.0723195.627026c.1807879.104556.3626105.209137.5454686.313741l1.1095823.627888c.1870039.10469.3750451.2094.5641246.314128l1.1469431.628576c.1932361.104796.3875122.209606.5828294.314429l1.324327.702482 1.350818.700185 1.3771926.697847 1.4034509.695468 1.429593.693049c.7213126.345912 1.452385.690902 2.1931512 1.034946l1.49444.68682c.753663.342772 1.516977.684583 2.289876 1.02541l1.558559.680335c1.047533.452672 2.11203.903568 3.193334 1.352631l1.634544.672215c.274518.111804.550082.223493.826689.335064l1.672143.668016 1.697064.665166c.284914.110621.570862.221122.85784.331502l1.734228.660814c.291093.10989.583213.219658.876357.329302l1.771129.656369 1.795585.653356 1.819925.6503c.305342.108127.611694.216124.919053.323992l1.856216.64564c.93413.322035 1.877278.642885 2.829379.962528l1.91612.63767 1.939878.63441 1.96352.631109 1.987045.627766c.333129.104347.667232.208553 1.002309.312617l2.022116.622677 2.04535.619232c.342822.102916.686607.205687 1.031352.308312l2.079985.613988 2.102929.610442 2.125757.606853 2.148469.603225c.359964.100232.720869.200312 1.082714.300238l2.182318.597704 1.099574.297456 2.215905.592091 2.238152.588299 2.260281.584465 2.282296.580589 2.304193.576674 2.325974.572717 2.347639.568719 2.369188.56468 2.39062.5606 2.411937.556479c.403759.092401.808401.184629 1.213925.276682 78.77645 17.88213 185.63185 28.141556 299.720928 28.141556s220.944478-10.259426 299.720928-28.141556l2.422551-.554403c.40199-.092747.803094-.185667 1.203311-.278758l2.39062-.5606 2.369188-.56468 2.347639-.568719 2.325974-.572717 2.304193-.576674 2.282296-.580589 2.260281-.584465 2.238152-.588299 2.215905-.592091 2.193543-.595844c.36372-.099617.726504-.19939 1.088349-.299316l2.15978-.601394c.358079-.100538.715214-.201228 1.071403-.302069l2.125757-.606853 2.102929-.610442 2.079985-.613988 2.056924-.617495 2.033748-.620959c.33702-.10378.673069-.207702 1.008146-.311767l1.998765-.62608 1.975297-.629443 1.951714-.632764c.323313-.105735.64564-.211607.966976-.317615l1.91612-.63767c.634734-.213095 1.265489-.426727 1.892246-.640889l1.868255-.644067c.61874-.215214 1.233462-.430951 1.844147-.647204l1.819925-.6503 1.795585-.653356 1.771129-.656369 1.746557-.659343c.289039-.110136.577049-.220394.864028-.330773l1.70948-.663726c.282845-.110861.564654-.221842.845424-.332942l1.672143-.668016c.276607-.111571.552171-.22326.826689-.335064l1.634544-.672215c1.081304-.449063 2.145801-.899959 3.193334-1.352631l1.558559-.680335c.772899-.340827 1.536213-.682638 2.289876-1.02541l1.49444-.68682c.740766-.344044 1.471839-.689034 2.193151-1.034946l1.429593-.693049 1.403451-.695468 1.377193-.697847 1.350818-.700185 1.324327-.702482 1.159418-.628767c.191157-.104763.381275-.20951.570354-.314238l1.122025-.628137c.36986-.209297.735575-.418508 1.097151-.62762l1.072319-.627026 1.047532-.626355c.172526-.104333.34402-.208634.514485-.312902l1.010432-.625205c.166348-.104131.331667-.208226.495959-.312283l.973431-.62388c.480559-.311702.951888-.623036 1.414011-.93396l.91198-.621288c.749766-.517262 1.474008-1.033303 2.172838-1.547922l.826405-.616848c1.085629-.821521 2.106319-1.639196 3.062536-2.452205l.705081-.608868.680947-.607042.656856-.605136c2.058638-1.928809 3.749631-3.827324 5.079357-5.684259l-.738624-9.913699-.004537-.459735c-.045744-2.317196-.437142-4.61518-1.16269-6.891245zm-788.952686-47.270607-.100698.060399-1.007134.589739c-.165765.098204-.330486.196365-.494164.29448l-.9695542.588125c-.4785263.293773-.9476828.5871-1.4074992.87993l.2657171-.171353c-.1103586.090078-.2201476.1802-.3293662.270364l-1.4592904 1.235147-.1895199.152382-.3533095.269245-1.7036525 1.254631-.645745.485021-.6972121.535846-.7426727.587058-.5174047.420013-.5331599.44306-.8253877.708052c-.0932342.081582-.1869395.164136-.2810788.247665l-.569747.512886c-.4786348.437184-.9662657.898851-1.4582577 1.3853l-.5921872.595653c-.0989479.101264-.197996.203525-.2971074.306784l-.5951303.631554c-.0992159.107262-.1984209.215528-.2975778.324799-.5841456.643728-1.0561123 1.257796-1.436053 1.844006l-.1823948.290793-.0626681.00051-.1613539.38683c-.3065006.556895-.531173 1.087378-.6933558 1.593181l-.0899657.300534-2.9490235 7.123981c.4119516 3.955474 3.1851037 8.38425 8.4546533 13.055834l.6488669.565625c.6610332.566776 1.3585919 1.136962 2.0929145 1.710151l.7465861.574174c.1264764.095858.2539762.191795.3825006.28781l.7834494.577007c.2652538.192637.5346146.38557.8080911.578784l.832786.580469c.281717.193761.5675586.387787.8575337.582065l.8823346.583569c.2982508.194764.600644.389764.9071883.584984l.9320951.586308c.1574276.097823.3158953.195698.4754041.293622l.9695542.588125.994594.589223c.503566.294872 1.016541.590121 1.538956.885697l1.057424.591573c.178338.098664.357726.19736.538168.296086l1.09528.592713 1.120586.593359.569798.296894c.64079.33211 1.291568.66341 1.952264.993879l1.334599.65982c.224631.109783.450359.219472.677181.329066l1.374053.656416c.231192.10921.463473.218324.696842.32734l1.413238.65292c.95083.43449 1.918976.867392 2.904279 1.298652l1.490803.645651c.250606.107401.502278.214697.755016.321889l1.529182.641879.774138.31998 1.567294.638015c.263324.106118.5277.212127.793126.318025l1.605136.63406c.269616.105454.540277.210795.811981.316024l1.64271.630013c.82759.314322 1.664518.627613 2.510716.939851l1.704737.623063 1.729339.620211c.290267.103129.581553.206137.873858.309024l1.766017.615858 1.790322.612905c.300405.101903.601818.20368.904237.305332l1.826552.608399 1.850557.605343 1.874443.602248 1.89821.59911 1.921856.595933 1.945384.592714c.326184.098515.653344.196895.981477.295138l1.980452.58781c.332014.097692.664996.195247.998944.292662l2.01525.582814c.3378.096855.676559.193569 1.016277.290142l2.049781.577726c.343539.096002.688032.19186 1.033475.287575l2.084043.572546 2.106735.569043 2.129308.565498c.356759.093952.714454.187754 1.073081.281406l2.162944.560104 2.185217.556457 2.207373.55277 2.229408.549041 2.251325.545271 2.273122.541462 2.294799.53761c.384266.089279.769431.178396 1.155491.267349l2.327092.531758 2.348471.527805 2.369732.523811c75.447125 16.539099 177.791723 26.028478 287.065375 26.028478s211.61825-9.489379 287.065375-26.028478l2.369732-.523811 2.348471-.527805 1.166226-.265388 2.316357-.533719 2.294799-.53761 2.273122-.541462 2.251325-.545271 2.229408-.549041 2.207373-.55277c.366052-.092436.731182-.185027 1.095385-.27777l2.174096-.558285 2.151761-.561912c.356759-.093952.712583-.188054 1.067468-.282304l2.118037-.567275 2.095404-.5708 2.072652-.574283c.343539-.096002.686126-.192147 1.027757-.288435l2.038301-.579433c.337799-.096855.674638-.193851 1.010514-.290987l2.00368-.584489c.332015-.097693.663061-.195524.993137-.293493l1.968792-.589455 1.945384-.592714 1.921856-.595933 1.89821-.59911 1.874443-.602248 1.850557-.605343 1.826552-.608399c.302419-.101652.603832-.203429.904237-.305332l1.790322-.612905 1.766017-.615858c.292305-.102887.583591-.205895.873858-.309024l1.729339-.620211c.286176-.103608.571327-.207334.855451-.311178l1.692391-.624473c.560007-.208625 1.115884-.417715 1.667611-.627263l1.64271-.630013c.271704-.105229.542365-.21057.811981-.316024l1.605136-.63406c.265426-.105898.529802-.211907.793126-.318025l1.567294-.638015c.259104-.106553.517151-.213213.774138-.31998l1.529182-.641879c.252738-.107192.50441-.214488.755016-.321889l1.490803-.645651c.985303-.43126 1.953449-.864162 2.904279-1.298652l1.413238-.65292c.233369-.109016.46565-.21813.696842-.32734l1.374053-.656416c.226822-.109594.45255-.219283.677181-.329066l1.334599-.65982c.660696-.330469 1.311474-.661769 1.952264-.993879.19099-.098986.380922-.197952.569798-.296894l1.120586-.593359c.184654-.098842.368253-.197657.5508-.296443l1.082648-.592356c.178338-.098663.355625-.197294.531862-.29589l1.044832-.591148c.344083-.196902.683975-.393651 1.019686-.590232l.994594-.589223c.163677-.098115.326311-.196184.487903-.294205l.957055-.587542.932095-.586308c.306545-.19522.608938-.39022.907189-.584984l.882334-.583569c.434963-.291416.860625-.582268 1.277017-.872504l.820432-.579638c.134682-.096465.268335-.192857.400962-.289176l.78345-.577007c.128524-.096015.256024-.191952.3825-.28781l.746586-.574174c.734323-.573189 1.431881-1.143375 2.092915-1.710151l.648867-.565625c5.730384-5.080126 8.508647-9.873118 8.508647-14.082569l-.002584.165297-4.32614-9.986271c-.191009-.229966-.38843-.460752-.592281-.692329l-.492615.001214-.309485-.881203c-1.615718-1.714213-3.579188-3.468903-5.89755-5.251895l-.75886-.575142-.78345-.577007c-.663134-.481593-1.351937-.965035-2.066547-1.450092l-.869928-.582828c-.147055-.097262-.295145-.194585-.44427-.291967l-.907189-.584984c-.459816-.29283-.928972-.586157-1.407499-.87993l-.969554-.588125c-.327356-.19623-.658884-.392643-.994594-.589223l-.606723-.353398c.948639 2.791223 1.429269 5.66303 1.429269 8.617883 0 27.669804-42.145497 48.057493-116.073056 63.183593-69.467861 14.213614-163.096872 22.316407-262.926944 22.316407s-193.459083-8.102793-262.926944-22.316407c-73.927559-15.1261-116.073056-35.513789-116.073056-63.183593 0-2.955558.480859-5.828031 1.429948-8.61988zm377.570052-56.538823c-56.733902 0-111.600013 2.557951-161.803697 7.332416-35.755657 3.600423-68.570634 8.396549-97.114164 14.236756l-1.131506.232533c-.376278.077668-.751665.155493-1.126158.233474l-2.236207.469753c-.370907.078602-.740913.157359-1.110018.236269l-2.203781.475294-2.182004.478936-2.160097.482538c-.358183.080721-.715448.16159-1.071793.242606l-2.126995.487861-2.104767.491358-2.08241.494813-2.059924.498228c-.34144.08332-.681938.166781-1.02149.250381l-2.025955.503271-2.003147.506582-1.980212.50985-1.957147.513078c-.324262.08578-.647558.171692-.969884.257736l-1.922309.517842-1.898923.520965-1.875409.524047-1.851765.527088-1.827993.530088-1.804092.533045-1.780063.535961-1.755905.538837-1.731619.54167-1.707203.544461-1.68266.547212-1.657987.549921c-.274268.091877-.547502.183865-.819701.275964l-1.620737.553906c-.536087.185072-1.068009.370578-1.595743.556512l-1.570621.559075-1.545369.561598c-.25545.093807-.509843.187718-.763175.281732l-1.507251.565303-1.481678.567722-1.455977.570098c-.240513.095213-.479951.190522-.71831.285928l-1.417182.573587c-.234033.095788-.46698.191671-.698841.287648l-1.3781.576981c-.227503.096349-.453912.19279-.679227.289323l-1.338728.580282c-1.325545.581363-2.611475 1.16595-3.857214 1.753574l-1.23232.588629-1.061779.519399-1.036011.518361c-.170525.0863-.33998.172552-.508366.258752l-.9975.51657-.971922.515217-.94642.51374-.920993.512137c-.151385.085216-.301713.170359-.450986.255428l-.882998.509497c-.290122.16952-.576038.33872-.857761.507579l-.832603.505537c-.273349.168158-.542518.335954-.807519.503368l-.782512.501074-.757581.498653-.732726.496109-.707947.493437-.683245.49064-.658619.487718c-.323165.243107-.637124.485071-.94192.725822l-.597386.479861-.573026.4765-.548743.473011c-.268313.235613-.527548.46987-.777749.702702l-.488366.463742c-.238173.230899-.46734.460326-.687543.688208l-.428467.453687c-.20827.225793-.407606.449996-.598049.672537l-.369043.442846c-1.845598 2.276376-2.744762 4.370319-2.744762 6.203839 0 1.715228.786885 3.658361 2.399355 5.765549l.345407.43829c.714425.881178 1.570667 1.789693 2.571468 2.72102l.51246.467544c.087422.078233.175851.15662.265289.235158l.548743.473011c.280436.237389.569978.476085.868669.716018l.609595.481496c.207273.161034.418625.322598.634068.484669l.658619.487718c.11182.081533.224666.163188.338539.244963l.695587.492054c.117991.08224.237012.164595.357066.24706l.732726.496109.757581.498654.782512.501073.807519.503368c.136675.084079.274395.168248.413161.252505l.845173.506574.87037.508554c.147166.084917.295384.169911.444658.25498l.908309.511288.933697.512955c.157736.085624.316533.171312.476393.257062l.971922.515218.9975.516569c.168386.0862.337841.172452.508366.258752l1.036011.518362 1.061779.519399c.406293.196542.817074.392754 1.23232.588628l1.259115.586605c.636234.292789 1.282469.584803 1.938631.87602l1.325539.581362c.223122.096714.447342.193337.672657.289869l1.365008.578092 1.39116.57586c.234032.095789.469148.191482.705346.28708l1.430146.572435 1.455977.570099 1.481678.567721c.249081.09442.499228.188739.750437.282957l1.519989.564078 1.545369.561598 1.570621.559075 1.595743.556512c.268043.092536.537129.184964.807252.277282l1.633186.552588c.274268.091877.54957.183643.825902.275296l1.670339.548572 1.694948.545842 1.719427.543071 1.743778.540258 1.768.537404 1.792094.534509 1.816058.531571 1.839895.528593 1.863603.525573 1.887182.522512 1.910632.519408c.320386.086307.641743.172483.96407.258528l1.945566.514676 1.968696.511469 1.991695.508221 3.030388.756151 2.048633.499919 2.071183.496526 2.093605.493091 2.115897.489614c.3545.081311.709924.162475 1.066268.243491l2.149095.484322 2.171066.480743 2.192909.47712 2.214623.473458 2.236207.469753 2.257664.466007c68.040771 13.921621 160.353122 21.910469 258.917861 21.910469s190.87709-7.988848 258.917861-21.910469l2.257664-.466007 2.236207-.469753 2.214623-.473458 2.192909-.47712 2.171066-.480743c.360017-.080423.719118-.160995 1.077302-.241716l2.138061-.486097 2.115897-.489614 2.093605-.493091 2.071183-.496526 2.048633-.499919 3.030388-.756151c.333858-.08443.666764-.168998.998714-.253702l1.980212-.50985 1.957147-.513078 1.933954-.516264 1.910632-.519408 1.887182-.522512 1.863603-.525573 1.839895-.528593 1.816058-.531571 1.792094-.534509 1.768-.537404 1.743778-.540258 1.719427-.543071 1.694948-.545842c.280444-.091202.559863-.182518.838254-.273947l1.657987-.549921c.274268-.091877.547502-.183865.819701-.275963l1.620737-.553907 1.595743-.556512 1.570621-.559075 1.545369-.561598 1.519989-.564078c.251209-.094218.501356-.188537.750437-.282957l1.481678-.567721 1.455977-.570099 1.430146-.572435c.236198-.095598.471314-.191291.705346-.28708l1.39116-.57586 1.365008-.578092c.225315-.096532.449535-.193155.672657-.289869l1.325539-.581362c.656162-.291217 1.302397-.583231 1.938631-.87602l1.259115-.586605c.415246-.195874.826027-.392086 1.23232-.588628l1.061779-.519399c.174814-.086484.348554-.172924.521222-.259319l1.023155-.517795.9975-.516569.971922-.515218c.15986-.08575.318657-.171438.476393-.257062l.933697-.512955.908309-.511288c.149274-.085069.297492-.170063.444658-.25498l.87037-.508554c.14296-.084597.28487-.169112.425731-.253542l.832603-.505537.807519-.503368.782512-.501073.757581-.498654.732726-.496109c.120054-.082465.239075-.16482.357066-.24706l.695587-.492054c.113873-.081775.226719-.16343.338539-.244963l.658619-.487718c.215443-.162071.426795-.323635.634068-.484669l.609595-.481496c.298691-.239933.588233-.478629.868669-.716018l.548743-.473011c.089438-.078538.177867-.156925.265289-.235158l.51246-.467544c1.000801-.931327 1.857043-1.839842 2.571468-2.72102l.345407-.43829c1.61247-2.107188 2.399355-4.050321 2.399355-5.765549 0-1.83352-.899164-3.927463-2.744762-6.203839l-.369043-.442846c-.190443-.222541-.389779-.446744-.598049-.672537l-.428467-.453687c-.220203-.227882-.44937-.457309-.687543-.688208l-.488366-.463742c-.250201-.232832-.509436-.467089-.777749-.702702l-.548743-.473011-.573026-.4765-.597386-.479861c-.304796-.240751-.618755-.482715-.94192-.725822l-.658619-.487718-.683245-.49064-.707947-.493437-.732726-.496109-.757581-.498653-.782512-.501074c-.397502-.251121-.804381-.503102-1.22068-.755873l-.845173-.506574c-.285919-.169195-.576038-.33872-.87037-.508554l-.895644-.510408-.920993-.512137-.94642-.51374-.971922-.515217c-.164117-.085986-.329299-.172028-.495548-.258124l-1.010318-.517198-1.036011-.518361-1.061779-.519399-1.23232-.588629c-1.245739-.587624-2.531669-1.172211-3.857214-1.753574l-1.338728-.580282c-.225315-.096533-.451724-.192974-.679227-.289323l-1.3781-.576981c-.231861-.095977-.464808-.19186-.698841-.287648l-1.417182-.573587c-.238359-.095406-.477797-.190715-.71831-.285928l-1.455977-.570098-1.481678-.567722-1.507251-.565303c-.506665-.188027-1.01757-.375644-1.532695-.562844l-1.558011-.560341-1.583198-.557799c-.531916-.185505-1.068009-.370578-1.608256-.555214l-1.633186-.552589-1.657987-.549921-1.68266-.547212c-.282492-.090974-.566007-.181833-.850542-.272577l-1.719427-.543071-1.743778-.540258-1.768-.537404-1.792094-.534509-1.816058-.531571-1.839895-.528593-1.863603-.525573-1.887182-.522512-1.910632-.519408-1.933954-.516264-1.957147-.513078c-.328117-.085245-.657195-.170356-.987231-.255331l-1.991695-.508221-2.014568-.504932-2.03731-.5016c-.341439-.08332-.683821-.1665-1.027143-.249538l-2.071183-.496526-2.093605-.493091-2.115897-.489614-2.138061-.486097c-.358184-.080721-.717285-.161293-1.077302-.241716l-2.171066-.480743-2.192909-.47712-2.214623-.473458c-.370906-.078602-.742711-.15705-1.115413-.235342l-2.246952-.467885-3.179993-.6484c-28.092856-5.658699-60.234855-10.316795-95.184382-13.832615-50.171558-4.766774-104.995853-7.32069-161.684992-7.32069z"/></svg>