<svg height="960" viewBox="0 0 960 960" width="960" xmlns="http://www.w3.org/2000/svg"><path d="m484.254417 1.00005085 2.152623.02101327c69.385672.45197241 113.843384 8.1504704 143.448294 24.60388168 14.48045 8.0477468 25.585609 18.2347597 34.438641 31.0262425 1.635964 2.3637552 3.163018 4.7466592 4.625063 7.2203324l.670333 1.1484014c.222012.3851226.442645.7726545.66206 1.1628563l.654746 1.1788762c.108568.1979013.216871.3965353.32493.5959346l.645573 1.2058398c.642955 1.215545 1.278535 2.4609876 1.911057 3.7433692l.631662 1.2949554c.10516.217965.210275.4370213.315365.6572015l.630402 1.3348284c.21014.4496121.42034.9039807.63076 1.3633663l.632078 1.393469.634354 1.4251365c.105969.2402486.212072.4818819.318331.7249325l.639567 1.4755716.644242 1.5111509.649876 1.5482951c.108835.2612314.217945.5240757.32735.7885655l.660124 1.6069452.668156 1.6480012.677146 1.690622.687095 1.7348076.298408.7720875.311356.8341397c.05295.1441282.106424.2907923.160413.4399675l.330059.9249866.342051.9840637.353659 1.0419509.489443 1.4814055c.076621.2353223.153604.4733087.230917.7138817l.467628 1.473849.474196 1.532177c.079502.260015.159221.522305.239127.786792l.481444 1.612652.484543 1.661623.297254 1.039272c4.031458 14.200463 7.240032 29.482378 8.755614 43.749732.777535 7.319547 1.5258 15.074459 2.241824 23.273742l.387344 4.51646c.192056 2.280319.381673 4.593812.568792 6.940662l.370889 4.73823c.122507 1.594271.243886 3.203422.364119 4.827506l.357243 4.917108c.058962.827003.117633 1.657752.17601 2.492256l.346728 5.052118.339584 5.142531.332333 5.233269.324975 5.324332.317509 5.415719c.156871 2.730761.310902 5.495914.462033 8.295641l.298378 5.645609c.098159 1.897272.195011 3.809965.290539 5.738133l.282591 5.830981c.046431.979586.092526 1.963054.138283 2.950411l.27047 5.970864c.221984 5.0147.435411 10.126964.640003 15.337636l.241251 6.300098c.078991 2.115814.156551 4.247428.232662 6.394895l.223965 6.490018.215162 6.585465c.035121 1.105549.069871 2.215089.104247 3.328626l.201756 6.729245.192685 6.825503.183508 6.922087c.029813 1.161748.05924 2.327534.088278 3.497364l.169539 7.067572.160094 7.164967c.025889 1.202296.05138 2.408663.076471 3.619109l.145725 7.31167.136011 7.409878.12619 7.50841c.020208 1.259631.040002 2.523381.05938 3.791256l.111259 7.656818c.017706 1.284406.034991 2.572951.051853 3.865643l.096088 7.805956c.015163 1.309303.029899 2.622765.044207 3.940394l.080674 7.955826.070264 8.056144.059749 8.156787.049125 8.257756.038395 8.359049.027558 8.460666.016613 8.562609c.003701 2.87123.005561 5.759504.005561 8.664877l.000652 4.663799.022274 26.88332v16.104753l-.015808 14.464105-.028285 11.305856-.033523 8.584188-.031968 6.182965-.052295 7.920158-.064003 7.56889-.056116 5.458475-.041441 3.539886-.068431 5.167585-.076222 5.004579-.084315 4.850218-.092707 4.704501-.066617 3.059651-.107367 4.480853-.076668 2.918557-.122862 4.281221-.132561 4.172968-.093911 2.726108-.098445 2.6844-.156363 3.954-.11017 2.591336-.115016 2.558593-.119951 2.528412-.124977 2.500793-.197081 3.705006-.208888 3.657271-.220998 3.618182-.154208 2.394675-.241849 3.572245-.254761 3.556209-.177163 2.366168-.183125 2.365445-.286062 3.552416-.299978 3.565198-.234726 2.686901c-.088546.993784-.178737 1.98292-.270589 2.96744l-.280559 2.939747c-.047597.487661-.095613.974176-.14405 1.459549l-.295707 2.898569-.305933 2.87136-.316263 2.844345c-.053577.471817-.107589.942516-.162037 1.412102l-.331952 2.804185c-.056204.465147-.11285.92919-.169939 1.392131l-.347871 2.764461c-.706451 5.502618-1.477353 10.847795-2.316417 16.042509l-.425229 2.584852c-4.884029 29.153608-11.976641 53.513052-21.952708 74.34812l-.134085.278621.447068.786932c10.738547 19.036005 16.288621 38.943911 16.440718 59.498934l.003214.868906c0 28.893252-13.800822 54.523204-43.067248 73.057366-32.32966 20.47408-82.876898 31.914975-154.511774 33.583073l-1.419705.045142c-3.267374.095227-6.625549.149642-10.075326.166647h-7.119368c-4.655968 0-9.135216-.073038-13.438854-.219622l-1.927318-.046774c-69.790857-1.82542-119.356044-13.029806-151.397053-32.917019l-.975376-.611504c-29.266961-18.533919-43.067978-44.16386-43.067978-73.057309 0-21.486715 5.890521-42.267281 17.431168-62.090582l.007832-.01319-.110658-.231407c-11.30241-23.920925-18.853957-52.454936-23.66186-87.521974l-.359899-2.675912c-.059109-.448089-.117783-.897233-.176023-1.347435l-.344256-2.713947-.33395-2.739537-.323743-2.765315-.313633-2.791278c-.10287-.934775-.204072-1.873907-.303621-2.81743l-.293709-2.843768-.283893-2.870292-.274175-2.897004c-.089784-.970141-.177964-1.944765-.264557-2.923903l-.146068-1.673364-.202012-2.376188-.291434-3.549582-.186696-2.360308-.268874-3.537719-.255734-3.542082-.163336-2.368064-.234495-3.568486-.149451-2.393639-.214081-3.618807-.136118-2.435158-.130938-2.456231-.186888-3.729437-.118374-2.520073-.113503-2.550074-.161314-3.886944-.10171-2.636238-.144037-4.028149-.134067-4.124352-.083986-2.807266-.118111-4.303824-.108934-4.422987-.100053-4.550761-.061916-3.109077-.085915-4.782849-.102023-6.613095-.08835-6.901474-.057713-5.377632-.066117-7.455248-.041848-5.8164-.024377-3.98951-.040702-8.259083-.0165-4.274675-.030727-11.130456-.020972-11.7963v-12.889772l.027765-48.598903.011011-8.907198.018258-8.800157.025427-8.693411.032517-8.586958.039532-8.480797.046467-8.374931.053327-8.269357.092679-12.206729.070133-8.006708.076721-7.902162.08323-7.797909.089662-7.693949.096017-7.590283.102294-7.486911.108493-7.383831.114615-7.281046.12066-7.178553.126626-7.076354.132516-6.974448.138327-6.872836.144062-6.771517.226675-9.967944.23914-9.741628.166223-6.369176.17157-6.269323.176839-6.169766.18203-6.0705.187144-5.971528.19218-5.872851.197139-5.774465.202021-5.676374c.034072-.937904.068345-1.871734.102816-2.801495l.209197-5.529786.213884-5.43243.218495-5.335364.223026-5.238593.227481-5.142116.231859-5.045931.236158-4.950041c.039714-.817032.079604-1.630081.119668-2.439153l.242462-4.806754c.040755-.793188.08168-1.58241.122776-2.367675l.248592-4.664128.252581-4.56941.256494-4.474987.260328-4.380857.264085-4.287019.267765-4.193475.271366-4.100226c.133785-1.985509.329736-4.06259.579722-6.204623l.174574-1.437353c.0304-.241065.061445-.482859.093124-.725346l.197586-1.462933c.034169-.24511.068949-.490839.104329-.73715l.219394-1.484571.233264-1.496805.246598-1.507286.259396-1.516015c.04427-.253299.089051-.506889.134331-.760732l.277592-1.525821.289052-1.530167.299978-1.53276.310369-1.533602.320223-1.532689.329543-1.530025.338327-1.525607.346576-1.519437.35429-1.511513.361468-1.501838.368112-1.49041.37422-1.477227.379792-1.462294c.063734-.242374.127677-.484052.191819-.724999l.387148-1.436606.391382-1.41729.395082-1.3962205.398245-1.3733991c.066608-.2269007.133326-.4527774.200142-.6775937l.401988-1.3358802c.067165-.2204284.134406-.4397233.201712-.6578482l.404525-1.2944174.405548-1.2645846.406036-1.2329989.405988-1.1996606.405405-1.1645693c.067489-.1910733.134932-.3806114.202317-.5685778l.403526-1.1086462c.134219-.3630672.268117-.7195556.401606-1.069173l.399149-1.0279472c.397742-1.00675.790996-1.9490319 1.177355-2.8189583 13.485119-30.3631861 29.177935-48.5720672 57.716241-61.4349944 27.124688-12.22577425 65.636641-18.55047471 122.689784-19.96998889l3.87445-.08827772c5.854052-.12130375 11.89935-.192676 18.143291-.22266514zm-165.655684 807.16293115-.035544.060162c-8.45934 14.185018-12.563189 28.405607-12.563189 42.924628 0 15.322378 6.901251 28.138727 24.468559 39.263595 25.190454 15.952385 69.02234 25.872657 134.04534 27.386016l1.6641.052169c3.400215.100186 6.939712.150475 10.595763.150475h5.419659c4.200051 0 8.229904-.065328 12.089944-.195102l2.150702-.053816c63.951676-1.665166 107.159609-11.546363 132.097624-27.339382 17.567063-11.125062 24.468309-23.941588 24.468309-39.263955 0-14.435556-4.056133-28.572254-12.414076-42.673087-32.680374 33.884685-82.318107 50.17869-154.617471 51.064168l-3.963319.038358h-4.794412c-74.53916-.379107-125.386642-16.747711-158.611989-51.414229zm.184873-726.0233591-.069769.1096834c-.852821 1.3390428-1.68983 2.7374272-2.516492 4.2001381l-.599463 1.075202c-.39853.724457-.794939 1.4643198-1.189851 2.2201566l-.591323 1.1458067c-.098393.1929882-.196711.3869926-.294965.5820219l-.58883 1.1825473c-.098036.1991649-.196027.3993726-.293982.6006319l-.587389 1.2202466-.587013 1.2459122-.587103 1.2720039c-.097884.2141986-.195792.4295022-.293732.6459195l-.588116 1.3119404c-.135909.3060142-.274729.6319186-.416106.9765416l-.28606.713857c-.04821.12302-.096678.248033-.145391.374996l-.29511.784827c-.04964.134588-.099499.271039-.149563.40931l-.302748.85111-.307054.892697-.310733.9322-.313782.96962-.316203 1.004959-.317996 1.038214-.319162 1.069387-.319697 1.098478-.479179 1.697705-.31829 1.162091-.316627 1.183893-.47045 1.812161-.309723 1.229285-.305861 1.243797-.301371 1.256226-.296253 1.266573-.290507 1.274837-.284132 1.281019-.277128 1.285118-.269498 1.287134-.261238 1.287068-.25235 1.28492-.242834 1.280688-.232689 1.274374-.221917 1.265977-.210516 1.255498-.198486 1.242937-.185828 1.228292-.172543 1.211565-.158628 1.192755-.144086 1.171863-.128915 1.148889-.113116 1.12383c-.070005.740406-.129058 1.462718-.176322 2.164159l-.267515 4.042471-.264007 4.135921-.260421 4.229663-.256757 4.323696-.253015 4.41802-.249193 4.512635-.245295 4.60754-.241318 4.702738c-.039884.791739-.079599 1.587456-.119143 2.387158l-.235206 4.846079-.231033 4.942003-.226782 5.038218-.332032 7.738368-.215814 5.28003-.211288 5.377263-.206686 5.474789-.202005 5.572605c-.033273.936935-.066347 1.877957-.099222 2.823074l-.194837 5.719874-.18996 5.818417-.185006 5.917252-.268047 9.061828-.172276 6.165611-.167048 6.265464-.240598 9.586056-.153635 6.516369-.148133 6.61724-.142552 6.718402-.136894 6.819856-.131157 6.921601-.125342 7.023635-.119448 7.125963-.167953 10.881441-.104373 7.383051-.098206 7.486396-.091962 7.590032-.085638 7.693958-.079236 7.798177-.072757 7.902685-.066198 8.007485-.059563 8.112576-.052848 8.217958-.046055 8.323631-.039184 8.429594-.032236 8.53585-.035152 13.003638-.014521 8.80276-.007297 8.910033-.001568 9.169277-.02317 40.164882.009921 12.881099.024691 12.100593.041064 11.367765.059042 10.682614.064089 8.413194.061685 6.430359.071456 6.178822.081702 5.941411.092423 5.718127.103618 5.508969.115289 5.313937.094412 3.865961.101444 3.770163.071635 2.463162.11361 3.623741.079932 2.371066.126332 3.493872.134234 3.423899.142335 3.359884.150636 3.301828.159138 3.249733.167841 3.203598.176743 3.163421.185847 3.129204.19515 3.100948.204653 3.07865.288003 4.080482.18202 2.450018c.24703 3.264455.511491 6.522707.794492 9.807699l.262342 2.970495c.089115.984593.179903 1.963624.272376 2.937132l.282491 2.90399c.047929.481248.096283.961125.145063 1.439635l.29781 2.854691c.151477 1.41918.30682 2.826138.466074 4.221l.323738 2.773631c4.715364 39.525261 12.669331 69.177869 24.909264 91.887772l.063501.116488.174217.248848c1.561272 2.28249 2.668294 4.870909 3.156005 7.631572 28.577389 35.31708 74.794847 51.983667 147.944288 52.771266l2.863072.022655 5.474626-.009559c75.116712-.464021 122.164526-17.362549 150.988673-53.640997.42637-1.668227 1.074545-3.293902 1.943822-4.835944 12.850565-22.796063 21.159631-52.798886 26.052879-93.134697l.335862-2.830931c.440463-3.797033.851595-7.68411 1.234301-11.663747l.281714-3.002123c.092137-1.006518.182513-2.018861.271139-3.037068l.196926-2.293342.190919-2.2872.275303-3.424739.262265-3.424946.249512-3.43357.237046-3.450609.224865-3.476066.21297-3.509938.201359-3.552226.127931-2.395801.182645-3.641411.115719-2.46305.110982-2.494313.10633-2.528071.101763-2.564321.097279-2.603067.1377-3.9827.128088-4.083903.080195-2.782982.112706-4.271277.070204-2.91569.128948-6.006218.087017-4.667464.079025-4.816358.048385-3.297781.06634-5.08322.05911-5.254557.06806-7.28715.04335-5.687076.048084-7.89439.04544-10.39686.030382-11.020864.016645-11.683832.00418-12.769962-.029483-48.077391-.016385-8.482791c-.007267-2.810566-.016331-5.604118-.027176-8.380711l-.037858-8.27895c-.014388-2.742726-.030538-5.468545-.048432-8.177511l-.058895-8.076393c-.010682-1.337656-.021796-2.671113-.033338-4.000377l-.074388-7.925317c-.026501-2.625035-.054701-5.233351-.084581-7.825001l-.094664-7.725005-.104639-7.625331c-.018265-1.262601-.036942-2.521061-.056026-3.775389l-.119398-7.476421-.1291-7.377549-.138695-7.278998-.14818-7.180767c-.025481-1.188627-.051353-2.373174-.077613-3.553648l-.162204-7.034023-.171417-6.936595-.180522-6.839488-.189518-6.742701-.198405-6.646236-.207184-6.550091c-.035256-1.083688-.070873-2.163383-.106849-3.239092l-.220147-6.406475-.228653-6.311133c-.077624-2.087856-.156647-4.159875-.237051-6.216111l-.24534-6.12141c-.083149-2.024723-.167662-4.033715-.25352-6.027031l-.261591-5.932971c-.08853-1.962016-.178387-3.908409-.269553-5.839233l-.277407-5.745816c-.046883-.949869-.094089-1.895859-.141615-2.837976l-.288984-5.606292c-.048799-.926655-.097914-1.849451-.147342-2.768395l-.300316-5.467489-.307734-5.375355-.315044-5.283542-.322246-5.19205-.329337-5.100879c-.166424-2.5277-.335466-5.021332-.507066-7.481075l-.346593-4.874354-.353304-4.784307c-.059437-.789898-.119149-1.576058-.179134-2.358485l-.363168-4.649836c-.061067-.767527-.122403-1.531335-.184005-2.291431l-.372786-4.516087-.379062-4.427323c-.700635-8.035586-1.432365-15.625269-2.192174-22.777945-1.249204-11.759739-4.005065-24.885452-7.447816-37.012392l-.460185-1.60054-.368051-1.250085-.363784-1.209584-.357649-1.163745-.349649-1.112569-.339783-1.056057-.393835-1.191156-.214493-.63295-.3917-1.121828-.173799-.480628-.228343-.608987-.696345-1.759142-.623499-1.55125-.617851-1.515094-.612764-1.479595-.608239-1.444752-.604277-1.4105659-.600876-1.3770366-.598037-1.3441639c-.099468-.2213244-.198841-.4413065-.29813-.6599599l-.594834-1.2960862c-.099004-.2133936-.197949-.4254859-.296845-.6362905l-.592895-1.2494862c-.296253-.617127-.592285-1.2229117-.888413-1.8177237l-.592474-1.1751029c-.098798-.1934486-.19763-.3857054-.296508-.576784l-.593908-1.1324431c-.02756-.0518397-.055125-.1035903-.082695-.1552523-2.150061 1.9264536-4.563595 3.792225-7.224161 5.5873705-19.195729 12.9518067-67.913007 18.4517327-148.859408 17.8761817-.028751-.000204-.057472-.00053-.086163-.000976l-.086952.000976c-80.946401.575551-129.66368-4.924375-148.859409-17.8761817-5.005401-3.3772609-9.136461-7.0044952-12.286773-10.8050424zm161.081271 453.9088011c34.278964 0 62.067522 27.788593 62.067522 62.067544v125.894597c0 33.89697-27.195266 61.510405-61.125479 62.060202l-.942043.007304c-34.278936 0-62.067521-27.788567-62.067521-62.06751v-125.894585c0-33.89699 27.195238-61.510451 61.125478-62.060249zm.018772 19.998627-.71769.007034c-22.935523.371865-41.368603 19.088418-41.368603 42.061883v125.894589c0 23.233248 18.834278 42.067842 41.98651 42.067842l.779929-.005989c22.935502-.371865 41.368604-19.088403 41.368604-42.061849v-125.894601c0-23.233255-18.834257-42.06796-42.067522-42.06796zm.196714-515.0470841h-4.109435c-3.209698.0189924-6.358896.0439817-9.448643.0823984l-3.679228.0525444-3.622559.0654309c-2.396239.0479153-4.754967.1044191-7.076721.1695066l-3.45497.1040682c-1.142457.0368349-2.275739.0758152-3.399912.11694l-3.345258.1298081c-44.793885 1.8392511-74.756948 7.1952947-94.352012 16.0272792-2.034831.9171494-3.958197 1.8637944-5.783058 2.8517512l-.985687.5430536c-3.071663 1.7223071-5.860025 3.5726677-8.430633 5.6108447.053237.1042922.111041.2113371.172134.3207176 1.537601 2.7528804 4.744872 5.9531074 9.692304 9.2912555 12.246845 8.263232 47.857971 13.3156361 105.17059 14.3119284l4.081619.0635787 4.153577.050039c7.680773.0792866 15.723679.0899776 24.125115.0302411l.228063.0016984.229456-.0016984c7.701316.0547584 15.101368.0503382 22.19738-.0118496l1.927735-.0183915 4.153577-.050039 4.081619-.0635787c57.312619-.9962923 92.923745-6.0486964 105.170589-14.3119284 2.775558-1.8727339 5.003432-3.7020595 6.696068-5.4333425-3.988729-3.9951638-8.52792-7.2761915-14.048087-10.3441146-22.700657-12.6162603-61.861065-19.2970118-126.302159-19.5789064zm.173078 15.8534731c14.671693 0 26.565451 3.9645858 26.565451 8.8551502s-11.893758 8.8551502-26.565451 8.8551502-26.565451-3.9645858-26.565451-8.8551502 11.893758-8.8551502 26.565451-8.8551502z"/></svg>