<svg height="960" viewBox="0 0 960 960" width="960" xmlns="http://www.w3.org/2000/svg"><path d="m480 179c123.303775 0 239.1082 11.212526 325.803709 30.973556l.674281.154.672958.154314 2.67858.62038 2.6573.625368 2.635923.630335.65563.158358.654286.158667 2.603676.63775 2.582058.64267 2.560341.647568 2.538528.652447 2.516618.657308 2.494609.662147 2.472506.666968 2.450303.671769.609095.168689.6077.168989 2.416819.678933 2.394374.683684.595075.171662.593665.171956 2.360525.690775 2.337837.695478 2.315054.70016.575191.17577.573761.17606 2.280694.707148 2.257668.711781 2.234543.716396.555011.179817.553558.180104 2.199675.72328.546271.181534.54481.181819 2.164587.730119 2.141075.734655 2.117466.739171.525666.185496.524182.185776 2.081869.745908.516744.187175.515251.187455 2.046054.752599.507767.188844.506266.189121 2.010019.759249.995962.381278.989914.382377 1.961635.768044 1.937297.772412 1.912861.776761c1.055896.432738 2.100433.86748 3.133539 1.304211l1.541074.656587 1.826574.791826 1.801702.796086.446528.199685.444965.19995 1.764212.80244c2.432875 1.117428 4.79308 2.247042 7.079445 3.388603l1.362948.686368 1.612066.827411c.533078.276487 1.061872.553657 1.586368.831505 29.506968 15.631118 47.036699 34.133011 48.633077 56.920681l.021377.348844.015277.349165.061359 1.752903.010712.349774.00153.349881v445c0 24.122866-16.733298 44.476991-45.848306 61.610745-2.118107 1.246475-4.309897 2.480463-6.574243 3.701726l-1.367306.731229-1.663676.873427c-.931191.484007-1.873913.965962-2.828092 1.445848l-1.439852.718277-1.750434.857821c-.783439.380255-1.57416.759175-2.372127 1.136754l-1.202379.56536-1.823886.844252-1.848183.839689-1.402027.626762-1.415601.624175-1.908519.828196c-1.066955.458825-2.145007.915505-3.234085 1.370026l-1.641877.680159-1.992006.811899-.501699.202241-.503176.201947-2.027437.80484-1.022538.400647-1.028402.399462-2.074351.795359-2.097667.790589-2.12089.785798-1.069125.391097-1.074896.389892-2.167057.77616-1.092138.386262-1.097862.385048-2.21285.766441-.556772.190847-.558193.190542-2.24695.7591-.565275.189008-.566687.188699-2.280839.751716-.573725.187156-.575129.186847-2.314518.744286-.582124.185294-.583517.184983-2.347988.736812-2.370184.731804-.596003.182166-.597383.181852-2.403303.724256-.604261.180274-.605632.179958-2.436212.716663-2.458034.711577-2.479763.70647-.623325.175817-.624676.175497-2.512182.698773-2.533677.693618-.636767.172597-.638103.172273-2.565746.685847-2.587008.680641-2.608177.675417-2.629252.670173c-.879919.222514-1.763336.444151-2.650234.664907-87.042445 21.665587-204.030413 33.982002-328.685674 33.982002-123.407245 0-239.318859-12.069915-326.120776-33.34843l-.668592-.164222-.667297-.164554-2.656203-.661522-.660797-.166206-.659493-.166536-2.624897-.669429-.652949-.168178-.651635-.168506-2.593379-.67729-.645046-.170139-.643725-.170463-2.561645-.685105-2.540371-.690289-.631758-.173379-.63042-.173702-2.508282-.698025-.623713-.175309-.622366-.175629-2.475978-.705716-.615615-.177226-.614259-.177545-2.44346-.713359-2.421663-.718428-2.39977-.723478-2.377783-.728506-2.3557-.733514-2.333522-.738501-2.311249-.743467-.574321-.186641-.572921-.186949-2.277662-.750878-2.25515-.755793-.56026-.189714-.558844-.190019-2.221207-.763126-2.1984576-.767989-2.1756143-.772832-.5403231-.193962-.5388879-.194263-2.1411706-.780056-1.590736-.588188-1.5777126-.590873-2.0832889-.791994-.5171823-.198739-.5157234-.199036-2.0482744-.799095-2.0248127-.803802-1.0035785-.40366-.9976773-.40483-1.9776038-.813156-.4906942-.204016-.4892085-.204305-1.9419474-.820117c-.857786-.365524-1.7084935-.732415-2.5520849-1.100665l-1.2600455-.553393-1.8699928-.8339c-1.3934407-.627134-2.7664838-1.25811-4.1189485-1.892888l-1.3455985-.636044-1.7727217-.851986-.4393473-.213696-.4378111-.213975-1.7358526-.858683c-3.7342919-1.865298-7.2946673-3.761853-10.6767727-5.688719-29.2653681-16.67318-46.57269549-36.318989-48.10156849-59.790155l-.01849426-.324572-.0132161-.32483-.06135892-1.885198-.00926199-.325262-.00132314-.325348v-445l.00153021-.349881.01071145-.349774.06135891-1.752903c.00815126-.232866.02037136-.465571.03665471-.698009 1.59637769-22.78767 19.12610832-41.289563 48.63307652-56.920681l.789966-.416263.7964025-.415242 1.6120659-.827411c2.2567809-1.14633 4.587637-2.280761 6.9913975-3.403054l1.4509954-.671917 1.7642116-.80244.4449657-.19995.4465278-.199685 1.8017018-.796086 1.8265739-.791826c1.0216542-.438716 2.0547783-.875451 3.0992974-1.31019l1.5753155-.650608 1.9128616-.776761 1.9372967-.772412 1.9616348-.768044.9899138-.382377.9959619-.381278 2.0100195-.759249.506266-.189121.5077674-.188844 2.0460532-.752599.5152517-.187455.5167439-.187175 2.0818685-.745908.5241827-.185776.5256659-.185496 2.1174652-.739171 2.141075-.734655 2.1645876-.730119 1.0910808-.363353 1.0969225-.362212 2.2113215-.720989 2.234543-.716396 2.257668-.711781.568018-.177222.569457-.176932 2.292171-.704824 2.315054-.70016.582327-.174309.58375-.174017 2.349193-.693128 2.371832-.688417.596484-.171365.597892-.17107 2.405608-.681311 2.428004-.676549 2.450303-.671769 2.472506-.666968 2.494609-.662147 2.516618-.657308 2.538528-.652447 2.560341-.647568 2.582058-.64267 2.603676-.63775.654286-.158667.65563-.158358 2.635923-.630335 2.6573-.625368 2.67858-.62038 1.347239-.308314c86.695509-19.76103 202.499934-30.973556 325.803709-30.973556zm438.003292 169.579754c-18.29612 12.183939-44.617745 23.086098-77.957086 32.672471l-.002498 80.500982c0 29.430808-19.831566 55.166302-48.290562 62.666835-3.538772.932664-7.183092 1.404843-10.842705 1.404843-23.261941 0-42.163514-18.668954-42.539219-41.841361l-.0057-.703558.001774-80.278936c-75.252303 11.84315-164.602392 18.37422-258.367296 18.37422-123.820396 0-239.942113-11.389066-326.067235-31.360109-49.727041-11.530908-87.80937-25.368697-111.9360573-41.435387l.0032923 401.109246.036 1.125.0213714.203656c.1675668 1.50057.7047019 3.129015 1.6277182 4.865201l.2198611.402562.2997075.517797c.2331525.390609.4851676.786276.7562195 1.186784l.2774041.402115.389681.541092.4124041.546632c.1883538.244161.3834676.489931.5853777.737264l.3079667.372167.4811241.562572.1238854.141443.1253299.141758.5157941.570161.2666018.286931.2724204.288146.5623423.579881.5857541.584571.3016852.294008.621044.591394.1589515.148541.1604304.148815.6565407.597962.5080056.451257.5214201.453593.716161.60834.182788.152708.18429.152952.7522086.614228.3851536.30854.3912017.309471.8005936.621682.2039465.15598.2054685.156201.8371235.626974.2131005.157277.2146311.157487.87386.632011.2223061.15851.2238454.158709.9108033.636793.9355468.63984.2377637.160423.2393173.160604.9728344.644197.9978077.646961 1.0228727.64961.5208644.325763.5271652.326384 1.0732783.654569 1.0986189.65688 1.1240514.659076 1.1434582.657673 1.3328412.751042 1.3584723.749035 1.3839917.746982 1.4093996.744882.3563069.185887.3578861.185752 1.4473025.741646 1.1019741.554782 1.1160621.553515 1.5099164.736017 1.1487514.550484 1.1626828.549152 1.5718332.730097 1.5964049.727647 1.6208649.725151.409025.180892.4105451.180732 1.657346.721319.4181191.179923.4196288.179759 1.693576.717381.4271506.178928.4286497.17876 1.7295552.713339.4361193.177907.4376079.177733 1.7652835.709192.4450252.176859.4465033.176682 1.8007609.70494 1.824273.702047.459729.175054.46119.17487 1.859332.697619 1.882566.69461 1.905687.691554 1.928698.68845 1.951597.685301.491464.170827.492887.170627 1.985736.680489 2.008356.677222 2.030864.673909.51122.167954.512618.167743 2.064419.668852 2.086648.665421 2.108766.661946 2.130773.658422 2.152668.654852 2.174452.651236 2.196124.647572 2.217685.643863 2.239133.640107.563122.159434.564454.159195 2.271098.634384.571087.157993.572408.15775 2.302812.628557 2.323815.624613.584223.155532.585526.155282 2.355111.618611 2.375835.614551.597184.152998.59847.152741 2.406712.608374 2.427158.604197 1.221211.300518c83.444836 20.455564 196.213091 32.19816 316.597202 32.19816 120.374964 0 233.115113-11.742478 316.506142-32.175803l2.517995-.621849 2.416287-.606068 2.395741-.610211.595713-.153194.59442-.15345 2.364717-.616334 1.174558-.309679 2.333444-.62235.580087-.156207.578772-.156453 2.301922-.62826 2.280768-.632139 2.259504-.635971 2.238129-.639755.556179-.160524.554835-.160757 2.205859-.645342 2.184206-.649006 2.162444-.652624 2.140571-.656193 2.118587-.659714.526199-.165473.524816-.16569 2.085403-.664907 2.063141-.66831 2.040771-.671663 2.018287-.674971 1.000679-.33871.995016-.33952 1.97299-.68144.977947-.34191.972229-.342695 1.927251-.68772.478217-.172411.476776-.172602 1.892655-.692304 1.869452-.695301.463725-.174288.462266-.174471 1.834441-.699706 1.810962-.702583 1.787372-.705412.443144-.17679.441661-.176962 1.75178-.709567 1.727913-.712277.428236-.178487.426735-.178652 1.691905-.716252 1.667762-.718843 1.643506-.721386.407074-.180738.40555-.180893 1.606918-.725111 1.582386-.727534c1.177563-.546547 2.334334-1.095099 3.470103-1.645565l1.128761-.551101 1.483154-.736751 1.458069-.738936 1.432873-.741073 1.407567-.743162c1.673852-.893029 3.292803-1.790468 4.855991-2.691946l1.161923-.67686 1.100483-.65383 1.075034-.651167.264796-.162365.263214-.16219 1.037077-.646993.761291-.483345.747188-.481671.974398-.639556.949529-.636412.924776-.633174.453143-.315342.446997-.314497.87562-.626407.851216-.622881.826929-.619257.20295-.154237.201442-.154003.790715-.613643.766717-.60978.374396-.303412.730939-.603805.707232-.599702.173118-.149273.171644-.149009.67189-.593368.164309-.147667.162848-.147394.636808-.586817.155567-.146006.154115-.145725.601989-.58005c1.119368-1.095319 2.11437-2.165669 2.98857-3.208107l.367272-.445042.431812-.542976c1.07277-1.377806 1.929042-2.703417 2.577483-3.969668l.208461-.419875.225636-.488262c.694842-1.567395 1.059437-3.036724 1.111418-4.393418l.006492-.336818zm-534.228934 167.439014c2.766613 1.008089 4.983189 3.545587 5.594726 6.404747l32.117449 150.160762c.824944 3.856917 4.483966 6.924617 8.172654 6.851899 2.552493-.050319 4.55643-1.617379 5.163413-4.037739l21.907968-87.358684c.877169-3.497739 4.568744-5.014325 8.245363-3.38739 2.65218 1.173613 4.675751 3.732959 5.150951 6.514754l22.350535 130.838727c1.097921 6.427166-3.040781 11.501952-9.24405 11.334852-.226215-.006093-.453589-.021208-.681809-.038686-66.341054.084168-116.104369-1.344936-149.289944-4.287311-26.778602-2.374305-66.961553-8.920222-120.548853-19.63775-6.258243-.554864-11.916335-6.197232-12.637703-12.602582-.149791-1.33006-.075058-2.630417.221297-3.844114l29.725856-121.793352c.855961-3.50706 4.534392-5.047569 8.216006-3.440823 2.407815 1.050829 4.326613 3.256883 5.019642 5.771114l29.403007 106.670812c1.05966 3.844328 4.859948 6.701553 8.48818 6.381792 2.169407-.191193 3.886146-1.504843 4.587437-3.510308l25.739042-73.605338c1.172877-3.354048 5.036571-4.528217 8.629802-2.62258 1.320542.700338 2.478657 1.759185 3.320454 3.035843l20.388388 30.920752c2.290552 3.473821 6.584834 4.930108 9.591547 3.252709 1.397309-.779537 2.331824-2.149969 2.610107-3.827626l19.916782-120.070349c.598806-3.609961 4.109678-5.434012 7.841753-4.074131zm96.225642-297.018768c-119.282706 0-231.104754 10.711447-314.398956 29.404379l-2.515313.568893-2.44231.560984-2.421916.564909-2.40141.568792-.597135.142799-.595845.143039-2.370439.574533-2.349652.578306-2.328751.582036-.578909.146087-.577594.146316-2.297191.587549-2.276009.591169-2.254715.594747-2.233309.59828-.55497.150117-.553622.150335-2.200989.603499-2.179302.606923-2.157501.610305-2.13559.613642-2.113564.616937-2.091427.620186-2.069178.623394-2.046815.626557-2.024341.629676-2.001753.632753-1.979054.635785-1.956242.638775-1.933317.641719-.958027.321951-.952253.322671-1.887131.64748-1.863869.650295-1.840495.653066-.456458.163694-.454988.163864-1.8052222.657141-1.7815664.659803-.4416822.165362-.440195.165524-1.7458722.663715-.4327323.16633-.4312345.166488-1.7099249.667529-1.6858194.670016-1.6616015.672461-.4116031.168492-.4100808.168642-1.6250637.676045-.4024424.169379-.4009094.169523-1.588273.679533-.3932183.170239-.3916748.170381-1.5512291.682922-1.5263926.685126c-.6728609.304984-1.3383294.610609-1.9963613.916857l-.9814647.459836-1.4512084.69148-1.0718183.519944-1.0575472.521068-1.3877817.696475-.68431.34896-.6779041.349435-1.3365341.700274-.5703856.303583-1.1216498.60552-1.0962373.603209-.2701002.150425-.2685197.15027-1.0583041.599483-1.0331389.596827-1.0080727.594032-.9831054.591099-.9582372.588029-.9334679.58482-.2295084.145687-.227968.145477-.8964994.579747-.8719775.576194-.4268239.286721-.4207306.28578-.8232305.568671-.2020185.141554-.2005061.141302-.78693.562667-.1929667.14002-.1914634.139756-.7508521.556352-.1839704.138408-.1824765.138133-.7149969.549726-.1750298.136719-.1735451.136431-.6793644.542789-.6557331.537992-.6322008.533057-.1543848.132477-.1529218.132158-.5970877.525395-.2898058.260726-.283997.259389-.5506167.514697-.5275296.50914-.1282867.1264-.1268514.126043-.4930846.500546-.1196985.124219-.1182727.123849-.4588621.491642-.1111662.121961-.1097495.121577-.4248624.482426c-.2297636.266273-.4490907.529622-.6580577.78994l-.30569.388191-.3463955.459715c-.1862671.253522-.362258.503895-.5280492.751015l-.2410464.368224-.2691408.435313c-.7944592 1.328291-1.2786209 2.553157-1.4654569 3.656493l-.0405223.273292-.0144452.11827-.032.912-.0012591 17.898113c1.192045 1.131031 2.4928632 2.269135 3.9032511 3.412735l.7143285.572251.8632835.673955c.9343295.719503 1.9118591 1.440943 2.9327854 2.163931l.7738346.542526.9902062.678917c1.5760586 1.067502 3.2465433 2.13789 5.0120821 3.209922l.8906935.536147 1.1565499.682711 1.182276.683027.299593.170798.3012036.170812 1.2209329.68337 1.2925859.708353.678852.366041.6852501.365464 1.3896412.729183 1.4150743.726823 1.4404009.724424 1.4656215.721987 1.4907358.719513 1.5157439.717001c.8490069.397629 1.7095426.794077 2.5815249 1.189315l1.3165482.591946 1.6024359.707909 1.2179306.529173 1.231684.527648 1.6635621.70113 1.6878267.698353 1.7119852.695537 1.7360373.692683 1.7599833.689791.8889383.3438.8948849.343062 1.8075567.683895 1.8311841.680889.4614753.169748.4629438.169558 1.8664259.67631.9419804.336995.9478076.336215 1.913043.670071.481882.167023.483328.166824 1.947727.665294 1.970718.66206 1.993602.658789.501964.164182.503385.163975 2.027729.653812 2.050346.650446 2.072859.647043 2.095265.643601 2.117565.640121.532863.159483.534248.159262 2.150816.634831 2.172849.631257.546643.157251.548011.157025 2.205702.625824 2.22747.622155 2.249132.618448 2.270689.614704 2.292139.61092 2.313483.607099 2.33472.60324 2.355852.599344.592252.149223.593565.148976 2.38735.593428 2.408216.589436 2.428975.585406 2.449629.581339 2.470176.577234c84.525002 19.600001 199.159101 30.843163 321.549425 30.843163 84.951998 0 166.167166-5.416784 236.170473-15.285135l-.025859-.317468-.014317-.319422-.003981-.283379v-8.432015c0-4.822092 3.437978-8.942847 8.151618-9.82774l.273341-.047443 77.446858-12.352379c1.346556-.214768 2.721485-.151679 4.040445.183858l.358266.098261 26.290156 7.737612 1.536429-.438965.272808-.078711.816364-.236469 2.161846-.633048 2.139758-.636605 2.117565-.640121.525911-.160576.524515-.160792 2.084075-.645327 2.061617-.648749 2.039051-.652134 2.016379-.655481 1.993602-.658789 1.970718-.66206.489091-.166022.487653-.166223 1.936193-.666896.480435-.167221.478987-.16742 1.901429-.671645.94198-.336995.93614-.33777 1.854705-.677846 1.831184-.680889.454109-.170693.45263-.170881 1.795703-.685383.445213-.171808.443725-.171992 1.759983-.689791 1.736038-.692683 1.711985-.695537 1.687826-.698353.41817-.175023.416651-.175197 1.65139-.702505.816543-.352275.810423-.352951 1.602436-.707909c.883409-.394021 1.755411-.789266 2.615927-1.185707l1.282146-.595554 1.515744-.717001 1.490736-.719513 1.465621-.721987 1.440401-.724424 1.415075-.726823 1.389641-.729183 1.025477-.548413 1.011066-.549704.620145-.341741 1.220933-.68337.301203-.170812.299593-.170798 1.182276-.683027 1.15655-.682711c1.797241-1.072545 3.499323-2.143654 5.106875-3.212083l.795901-.533986.990206-.678917c1.042637-.723739 2.041828-1.446026 2.99777-2.166473l.70885-.539984.863284-.673955c1.688088-1.336287 3.22686-2.66545 4.617579-3.984986l-.001259-17.869113-.033-.941-.013445-.11827c-.159751-1.259377-.720128-2.685144-1.701533-4.24883l-.216753-.337176-.302165-.446037-.324266-.452976-.170453-.229047-.176016-.23073-.368769-.46644-.291271-.354119-.303912-.35773-.424953-.482492-.109773-.121594-.111191-.121978-.45896-.491709-.238023-.248102-.243734-.249578-.504651-.503515-.129751-.126774-.13119-.127127-.539178-.512007-.562321-.517494-.58556-.522845-.608901-.528056-.155884-.132813-.15735-.133127-.644096-.535616-.498547-.404913-.511855-.407593-.703251-.547524-.727085-.552045-.751019-.556428-.775052-.560674-.19753-.140815-.199039-.14107-.811287-.566782-.835567-.570682-.859946-.574443-.884425-.578066-.909002-.581552-.231102-.145916-.232646-.146124-.946053-.58652-.240389-.147127-.241941-.14732-.983328-.591178-1.008301-.594112-.255989-.14897-.257557-.149142-1.045946-.598251-1.071167-.600839-.271744-.150598-.273329-.150748-1.109183-.604461-1.128613-.603503-1.336535-.700274-1.019259-.523975-1.033657-.5229-1.400523-.695497-.709793-.347006-.716129-.346504-1.451208-.69148c-.650584-.306866-1.308627-.613118-1.974085-.918738l-1.003741-.457955-1.526393-.685126-.385483-.170939-.387034-.1708-1.563605-.681803-1.588273-.679533-.400909-.169523-.402443-.169379-1.625064-.676045-.41008-.168642-.411603-.168492-1.661602-.672461-1.685819-.670016-1.709925-.667529-.863967-.332818-.869951-.332179-1.757798-.662422-1.781567-.659803-.449092-.164537-.450569-.164369-1.817007-.655793-1.840495-.653066-1.863869-.650295-.469606-.162136-.471058-.161959-1.89872-.646056-.958027-.321951-1.933317-.641719-1.956242-.638775-1.979054-.635785-2.001753-.632753-2.024341-.629676-2.046815-.626557-2.069178-.623394-2.091427-.620186-2.113564-.616937-2.13559-.613642-.537325-.152891-.538694-.152681-2.168415-.60862-2.190159-.605217-2.211791-.60177-.556314-.149899-.557658-.14968-2.244026-.596519-2.265376-.592964-2.286614-.589364-2.307739-.585722-2.328751-.582036-.585458-.144928-.586762-.144694-2.36006-.576425-2.380791-.57263-2.40141-.568792-2.421916-.564909-2.44231-.560984c-83.551245-19.044339-196.426687-29.973272-316.914269-29.973272zm0 62.196607c46.576014 0 84.333333 9.849735 84.333333 22 0 12.150264-37.757319 22-84.333333 22s-84.333333-9.849736-84.333333-22c0-12.150265 37.757319-22 84.333333-22z"/></svg>