<svg height="960" viewBox="0 0 960 960" width="960" xmlns="http://www.w3.org/2000/svg"><path d="m480 89c117.666261 0 228.393336 10.6000089 312.272842 29.41682l2.533565.572719 2.748291.631254 2.726765.636826 2.705152.642392 2.68345.647954 2.661658.653509 2.639779.659059.656515.165632.655141.165978 2.606793.667377.648248.167709.646866.168056 2.573607.675681.639931.169784.638541.17013 2.540222.683974 1.261729.344058 2.506638.692255 2.484138.69777.617508.175303.616096.175648 2.450221.706031 1.216595.355079 1.210903.356454 2.404689.717029.597597.180115.596165.180459 2.370306.725263.588981.182173.58754.182515 2.335724.733487.580315.184227.578866.18457 2.300942.741697.571599.186279.570141.186621 2.265962.749897.562833.188327.561367.188669 2.230782.758085 1.106559.381087 1.100658.38245 2.183564.768984 1.082885.386533 1.076938.387892 2.135992.779862c.944021.347813 1.880955.697235 2.810767 1.048264l1.389371.527749 2.06397.79614c8.747537 3.40562 16.835748 6.958881 24.233719 10.657973l1.226599.617866 1.704608.87416c.563963.292277 1.12368.585444 1.679138.8795 14.861081 7.867374 27.061984 16.544412 36.469945 26.46758 12.149731 12.815086 19.749201 27.853475 20.933951 44.75418l.04256.693381.030511.694016.016262.485518.021858.382074.02566.636054.019482.638483v427.640834c0 15.075718-4.801909 28.867643-13.370145 41.221626l-.438914.626929-.219941.307.00726.269682.016302 1.013265.005438 1.014053c0 33.588771-17.319827 63.709726-47.371198 88.994218-20.507709 17.254686-47.312339 32.58957-79.449152 45.856294l-1.342117.551583-2.496558 1.013073-2.517486 1.004875-1.26656.499358-1.271755.497302-2.559048.988432c-1.427434.54684-2.864421 1.089863-4.310885 1.629059l-2.176794.80592-2.630839.959511c-.880334.318456-1.764049.635528-2.651131.951215-83.14688 29.589637-193.825853 46.24916-311.456477 46.24916s-228.309597-16.659523-311.456477-46.24916l-1.328096-.474569-1.323035-.476646-2.630839-.959511c-1.455922-.535364-2.902405-1.074562-4.339373-1.617583l-2.148306-.817396-2.559048-.988432-1.271755-.497302-1.26656-.499358-2.517486-1.004875-2.496558-1.013073c-32.733143-13.392709-59.9987306-28.913542-80.7912689-46.407877-29.7508576-25.031647-47.0235284-54.803511-47.3660067-87.987597l-.0051914-1.006621.005-.949-.3988912-.540972c-8.1451868-11.154174-13.18887009-23.537209-14.35433059-37.127169l-.06075294-.756239-.04791157-.683984-.03703708-.649568-.02646693-.650085-.05841154-1.793461c-.0141321-.289255-.0188428-.578599-.02041303-.867981l-.00078512-427.681996.01556588-.951574c.39535481-17.100735 7.45092442-32.57643 19.26530132-45.763414 9.2219004-10.293311 21.351149-19.240903 36.2265289-27.328294 2.8628505-1.556464 5.8430697-3.088182 8.9385856-4.595073l1.3337026-.64429 1.8001688-.854322c3.436496-1.614523 7.0074949-3.199877 10.7103625-4.755955l1.5950092-.665097 1.9851867-.813659 2.0094906-.808222c2.1563881-.859203 4.3541084-1.709122 6.5926916-2.549738l1.6865918-.628718 2.1297216-.780989c.9518356-.345894 1.9107199-.690171 2.8766179-1.03283l1.454105-.512775 2.200829-.764608c.983382-.338611 1.973736-.675603 2.971028-1.010973l1.501137-.501839 2.271164-.748197.57143-.186194.572884-.185851 2.306041-.73998 2.329185-.734497.585903-.182767.587342-.182424 2.36374-.726268.594522-.180708.595952-.180366 2.398103-.718029.603091-.178649.604515-.178305 2.432271-.709784 2.454942-.704283.617268-.17521.618678-.174867 2.488789-.696024.625709-.173146.627112-.172801 2.522442-.687758 2.544769-.682243.639671-.169699.64106-.169354 2.578101-.673965 1.297348-.334911 1.302866-.33353 2.622241-.662914.658992-.164865.660362-.164518 2.655121-.654618.667192-.16279.668553-.162443 2.687808-.646313.675343-.160713.676697-.160366 2.720301-.638001 1.368239-.316921c84.387541-19.46539 197.022747-30.462903 316.871629-30.462903zm421.869964 608.238342-.516253.40511c-22.820232 17.714996-60.833916 32.940327-111.308444 45.447766-82.032527 20.327418-192.398533 31.908782-310.045267 31.908782-116.796048 0-226.429342-11.413625-308.302928-31.479573-51.03265-12.507311-89.4880853-27.771678-112.6130287-45.555523-.0557529 1.008811-.0840433 2.020778-.0840433 3.035096 0 82.842712 188.711978 150 421.5 150s421.5-67.157288 421.5-150c0-1.257568-.043486-2.511521-.130036-3.761658zm4.133142-448.016721c-21.982039 18.165665-61.585883 33.532543-115.558203 46.047863-82.008562 19.016479-192.563801 29.859591-310.444903 29.859591s-228.436341-10.843112-310.444903-29.859591c-53.970698-12.514944-93.5737836-27.881275-115.5562211-46.046225l.0011241 407.235741.0106435.212735.0353565 1.078265.047954.56831c2.2481203 21.830242 44.6744803 46.170518 117.845706 64.652829l2.226711.558269 2.291495.565911c80.195376 19.654644 188.257327 30.904681 303.542134 30.904681 89.387795 0 174.425159-6.764052 245.486395-18.958912-.045405-.384473-.068332-.775674-.068332-1.173034v-94.95165c0-27.875751 19.532601-51.938131 46.812863-57.66917 22.830378-4.796208 45.22615 9.823376 50.022358 32.653754.599952 2.855827.90235 5.766137.90235 8.684302l.000973 89.335527c52.401598-17.043241 81.788953-37.189415 82.819862-55.42917l.025186-.673594zm-426.003106-120.221621c-204.778061 0-376.583059 32.65205-423.3993949 76.673832-1.632097 2.905798-2.4414235 5.714599-2.4414235 8.390706 0 5.184898 3.0380682 10.867912 9.2606135 16.783067l.40151.377876.6835972.626794.1746099.156954.1760955.157053.7192483.629192.7430637.630702.3804746.315896.3864429.316248.7908095.633515.6088095.475995.6222865.476697.8507077.63664.2164295.159339.2179318.159408.8867617.638305.6808742.479404.6944377.47995.9470435.640732.2405374.160319.2420493.16037.9833277.641979.2496175.160614.2511329.16066 1.0196982.643069c.4585952.285957.9243889.572102 1.3973963.85841l.7149232.42958 1.0926981.64478 1.1171082.645211.2830957.161362.2846242.161383 1.1537952.645726 1.2447942.682026c.9929366.538165 2.0077848 1.074402 3.0443336 1.608636l1.0437745.533563 1.4141227.70931c1.2485406.619583 2.5263948 1.236359 3.8332274 1.850206l1.3164797.612867 1.5281085.697995c.6847286.309639 1.3768719.618501 2.076386.92657l1.0547936.461506 1.6028491.690002.404574.172073.406116.171901 1.639844.68587.829125.341886.835242.34118 1.688781.680222.853511.339032.859572.338306 1.737274.674414.438086.168142.439588.167956 1.773352.669953.89565.333845.901614.333084 1.821067.663865.458973.165483.460451.165288 1.856561.659195 1.880085.65603 1.903497.652827.47952.162702.480974.162498 1.938408.647947 1.961543.644643 1.984566.6413 2.00748.637916 2.03028.634493 2.052971.631029 2.07555.627526 2.098018.623983.528002.155438.529398.155213 2.131511.618593 2.153701.61495 2.17578.611267 2.197748.607544.552857.1513.55422.151063 2.230492.601885 2.25218.598062.566422.148913.567768.148672 2.284507.592252 1.15029.294658 2.316584.586354.582469.145967.583796.145718 2.34841.580365.5904.144461.591716.144208 2.379985.574285 2.400898.570184 2.421698.56604c80.408441 18.645436 189.476063 29.342645 305.927093 29.342645 115.28652 0 223.336561-10.484334 303.506264-28.785669l2.420829-.556976 2.421698-.56604 2.400898-.570184.596961-.143188.595652-.143444 2.369488-.576322.589083-.144714.587764-.144965 2.337828-.582371.581142-.146217.579813-.146465 2.305919-.58833.573138-.147697.571799-.147941 2.27376-.594199 2.25218-.598062.559661-.150114.558303-.150353 2.219605-.603781 2.197748-.607544 2.17578-.611267 2.153701-.61495.534963-.154309.533573-.154535 2.120375-.6204 2.098018-.623983 2.07555-.627526 2.052971-.631029 2.03028-.634493 2.00748-.637916 1.984566-.6413 1.961543-.644643.486775-.161679.485328-.161884 1.926799-.649584 1.903497-.652827 1.880085-.65603.46635-.164504.464878-.164701 1.844757-.660761.457492-.165677.45601-.16587 1.809179-.665402.448572-.166828.447078-.167017 1.773352-.669953.877674-.336098.871654-.336839 1.725192-.675881.427514-.169425.425997-.169607 1.688781-.680222.835242-.34118.829125-.341886 1.639844-.68587.406116-.171901.404574-.172073 1.602849-.690002c.706874-.307271 1.406399-.615344 2.098531-.924202l1.032649-.463874 1.528108-.697995c1.326115-.611882 2.623362-1.226732 3.891408-1.84443l1.258299-.618643 1.414123-.70931c1.226158-.621704 2.422874-1.24617 3.589815-1.873278l1.157002-.627983.586085-.322964 1.153796-.645726.284624-.161383.283095-.161362 1.117109-.645211 1.092698-.64478c.480225-.286463.953228-.572778 1.419026-.858917l.693293-.429073 1.019698-.643069.500751-.321274.494691-.321087.971223-.641581.947044-.640732.694437-.47995.680875-.479404.886761-.638305.217932-.159408.21643-.159339.850707-.63664.622287-.476697.608809-.475995.79081-.633515.386443-.316248.380474-.315896.743064-.630702.719248-.629192.176096-.157053.17461-.156954.683597-.626794c6.4934-6.050976 9.662123-11.865728 9.662123-17.160943 0-2.677639-.810253-5.488125-2.450925-8.394825-46.819322-44.020036-218.619274-76.669713-423.389893-76.669713zm0 60.230981c44.328926 0 80.26462 9.374529 80.26462 20.938597 0 11.564067-35.935694 20.938596-80.26462 20.938596s-80.26462-9.374529-80.26462-20.938596c0-11.564068 35.935694-20.938597 80.26462-20.938597z" fill-rule="evenodd"/></svg>