<svg height="960" viewBox="0 0 960 960" width="960" xmlns="http://www.w3.org/2000/svg"><path d="m810 1c82.290428 0 149 66.7095723 149 149v660c0 82.290428-66.709572 149-149 149h-660c-82.2904277 0-149-66.709572-149-149v-660c0-82.2904277 66.7095723-149 149-149zm-520.559373 40h-139.440627c-60.1990377 0-109 48.8009623-109 109v660c0 60.199038 48.8009623 109 109 109h139.440627zm520.559373 0h-500.559373v878h500.559373c60.199038 0 109-48.800962 109-109v-660c0-60.1990377-48.800962-109-109-109zm-625.222707 699.731441c36.226503 0 65.593886 29.367383 65.593886 65.593887 0 36.226503-29.367383 65.593886-65.593886 65.593886-36.226504 0-65.593887-29.367383-65.593887-65.593886 0-36.226504 29.367383-65.593887 65.593887-65.593887zm226.209607-.430131c36.226503 0 65.593886 29.367383 65.593886 65.593887 0 36.226503-29.367383 65.593886-65.593886 65.593886-36.226504 0-65.593887-29.367383-65.593887-65.593886 0-36.226504 29.367383-65.593887 65.593887-65.593887zm184.993449 0c36.226504 0 65.593887 29.367383 65.593887 65.593887 0 36.226503-29.367383 65.593886-65.593887 65.593886-36.226503 0-65.593886-29.367383-65.593886-65.593886 0-36.226504 29.367383-65.593887 65.593886-65.593887zm184.99345 0c36.226503 0 65.593887 29.367383 65.593887 65.593887 0 36.226503-29.367384 65.593886-65.593887 65.593886s-65.593886-29.367383-65.593886-65.593886c0-36.226504 29.367383-65.593887 65.593886-65.593887zm-596.196506 20.430131c-25.180809 0-45.593887 20.413078-45.593887 45.593887 0 25.180808 20.413078 45.593886 45.593887 45.593886 25.180808 0 45.593886-20.413078 45.593886-45.593886 0-25.180809-20.413078-45.593887-45.593886-45.593887zm596.196506-.430131c-25.180808 0-45.593886 20.413078-45.593886 45.593887 0 25.180808 20.413078 45.593886 45.593886 45.593886s45.593887-20.413078 45.593887-45.593886c0-25.180809-20.413079-45.593887-45.593887-45.593887zm-184.99345 0c-25.180808 0-45.593886 20.413078-45.593886 45.593887 0 25.180808 20.413078 45.593886 45.593886 45.593886 25.180809 0 45.593887-20.413078 45.593887-45.593886 0-25.180809-20.413078-45.593887-45.593887-45.593887zm-184.993449 0c-25.180809 0-45.593887 20.413078-45.593887 45.593887 0 25.180808 20.413078 45.593886 45.593887 45.593886 25.180808 0 45.593886-20.413078 45.593886-45.593886 0-25.180809-20.413078-45.593887-45.593886-45.593887zm0-168.569869c36.226503 0 65.593886 29.367383 65.593886 65.593887 0 36.226503-29.367383 65.593886-65.593886 65.593886-36.226504 0-65.593887-29.367383-65.593887-65.593886 0-36.226504 29.367383-65.593887 65.593887-65.593887zm184.993449 0c36.226504 0 65.593887 29.367383 65.593887 65.593887 0 36.226503-29.367383 65.593886-65.593887 65.593886-36.226503 0-65.593886-29.367383-65.593886-65.593886 0-36.226504 29.367383-65.593887 65.593886-65.593887zm184.99345 0c36.226503 0 65.593887 29.367383 65.593887 65.593887 0 36.226503-29.367384 65.593886-65.593887 65.593886s-65.593886-29.367383-65.593886-65.593886c0-36.226504 29.367383-65.593887 65.593886-65.593887zm-596.196506 0c36.226503 0 65.593886 29.367383 65.593886 65.593887 0 36.226503-29.367383 65.593886-65.593886 65.593886-36.226504 0-65.593887-29.367383-65.593887-65.593886 0-36.226504 29.367383-65.593887 65.593887-65.593887zm411.203056 20c-25.180808 0-45.593886 20.413078-45.593886 45.593887 0 25.180808 20.413078 45.593886 45.593886 45.593886 25.180809 0 45.593887-20.413078 45.593887-45.593886 0-25.180809-20.413078-45.593887-45.593887-45.593887zm184.99345 0c-25.180808 0-45.593886 20.413078-45.593886 45.593887 0 25.180808 20.413078 45.593886 45.593886 45.593886s45.593887-20.413078 45.593887-45.593886c0-25.180809-20.413079-45.593887-45.593887-45.593887zm-596.196506 0c-25.180809 0-45.593887 20.413078-45.593887 45.593887 0 25.180808 20.413078 45.593886 45.593887 45.593886 25.180808 0 45.593886-20.413078 45.593886-45.593886 0-25.180809-20.413078-45.593887-45.593886-45.593887zm226.209607 0c-25.180809 0-45.593887 20.413078-45.593887 45.593887 0 25.180808 20.413078 45.593886 45.593887 45.593886 25.180808 0 45.593886-20.413078 45.593886-45.593886 0-25.180809-20.413078-45.593887-45.593886-45.593887zm184.993449-168.569869c36.226504 0 65.593887 29.367383 65.593887 65.593887 0 36.226503-29.367383 65.593886-65.593887 65.593886-36.226503 0-65.593886-29.367383-65.593886-65.593886 0-36.226504 29.367383-65.593887 65.593886-65.593887zm-184.993449 0c36.226503 0 65.593886 29.367383 65.593886 65.593887 0 36.226503-29.367383 65.593886-65.593886 65.593886-36.226504 0-65.593887-29.367383-65.593887-65.593886 0-36.226504 29.367383-65.593887 65.593887-65.593887zm369.986899 0c36.226503 0 65.593887 29.367383 65.593887 65.593887 0 36.226503-29.367384 65.593886-65.593887 65.593886s-65.593886-29.367383-65.593886-65.593886c0-36.226504 29.367383-65.593887 65.593886-65.593887zm-596.196506 0c36.226503 0 65.593886 29.367383 65.593886 65.593887 0 36.226503-29.367383 65.593886-65.593886 65.593886-36.226504 0-65.593887-29.367383-65.593887-65.593886 0-36.226504 29.367383-65.593887 65.593887-65.593887zm226.209607 20c-25.180809 0-45.593887 20.413078-45.593887 45.593887 0 25.180808 20.413078 45.593886 45.593887 45.593886 25.180808 0 45.593886-20.413078 45.593886-45.593886 0-25.180809-20.413078-45.593887-45.593886-45.593887zm184.993449 0c-25.180808 0-45.593886 20.413078-45.593886 45.593887 0 25.180808 20.413078 45.593886 45.593886 45.593886 25.180809 0 45.593887-20.413078 45.593887-45.593886 0-25.180809-20.413078-45.593887-45.593887-45.593887zm184.99345 0c-25.180808 0-45.593886 20.413078-45.593886 45.593887 0 25.180808 20.413078 45.593886 45.593886 45.593886s45.593887-20.413078 45.593887-45.593886c0-25.180809-20.413079-45.593887-45.593887-45.593887zm-596.196506 0c-25.180809 0-45.593887 20.413078-45.593887 45.593887 0 25.180808 20.413078 45.593886 45.593887 45.593886 25.180808 0 45.593886-20.413078 45.593886-45.593886 0-25.180809-20.413078-45.593887-45.593886-45.593887zm0-168.569869c36.226503 0 65.593886 29.367383 65.593886 65.593887 0 36.226503-29.367383 65.593886-65.593886 65.593886-36.226504 0-65.593887-29.367383-65.593887-65.593886 0-36.226504 29.367383-65.593887 65.593887-65.593887zm226.209607 0c36.226503 0 65.593886 29.367383 65.593886 65.593887 0 36.226503-29.367383 65.593886-65.593886 65.593886-36.226504 0-65.593887-29.367383-65.593887-65.593886 0-36.226504 29.367383-65.593887 65.593887-65.593887zm184.993449 0c36.226504 0 65.593887 29.367383 65.593887 65.593887 0 36.226503-29.367383 65.593886-65.593887 65.593886-36.226503 0-65.593886-29.367383-65.593886-65.593886 0-36.226504 29.367383-65.593887 65.593886-65.593887zm184.99345 0c36.226503 0 65.593887 29.367383 65.593887 65.593887 0 36.226503-29.367384 65.593886-65.593887 65.593886s-65.593886-29.367383-65.593886-65.593886c0-36.226504 29.367383-65.593887 65.593886-65.593887zm-596.196506 20c-25.180809 0-45.593887 20.413078-45.593887 45.593887 0 25.180808 20.413078 45.593886 45.593887 45.593886 25.180808 0 45.593886-20.413078 45.593886-45.593886 0-25.180809-20.413078-45.593887-45.593886-45.593887zm226.209607 0c-25.180809 0-45.593887 20.413078-45.593887 45.593887 0 25.180808 20.413078 45.593886 45.593887 45.593886 25.180808 0 45.593886-20.413078 45.593886-45.593886 0-25.180809-20.413078-45.593887-45.593886-45.593887zm184.993449 0c-25.180808 0-45.593886 20.413078-45.593886 45.593887 0 25.180808 20.413078 45.593886 45.593886 45.593886 25.180809 0 45.593887-20.413078 45.593887-45.593886 0-25.180809-20.413078-45.593887-45.593887-45.593887zm184.99345 0c-25.180808 0-45.593886 20.413078-45.593886 45.593887 0 25.180808 20.413078 45.593886 45.593886 45.593886s45.593887-20.413078 45.593887-45.593886c0-25.180809-20.413079-45.593887-45.593887-45.593887zm-369.986899-217.6635328c36.226503 0 65.593886 29.3673828 65.593886 65.5938868 0 36.226503-29.367383 65.593886-65.593886 65.593886-36.226504 0-65.593887-29.367383-65.593887-65.593886 0-36.226504 29.367383-65.5938868 65.593887-65.5938868zm184.993449 0c36.226504 0 65.593887 29.3673828 65.593887 65.5938868 0 36.226503-29.367383 65.593886-65.593887 65.593886-36.226503 0-65.593886-29.367383-65.593886-65.593886 0-36.226504 29.367383-65.5938868 65.593886-65.5938868zm184.99345 0c36.226503 0 65.593887 29.3673828 65.593887 65.5938868 0 36.226503-29.367384 65.593886-65.593887 65.593886s-65.593886-29.367383-65.593886-65.593886c0-36.226504 29.367383-65.5938868 65.593886-65.5938868zm-369.986899 19.9999998c-25.180809 0-45.593887 20.413078-45.593887 45.593887 0 25.180808 20.413078 45.593886 45.593887 45.593886 25.180808 0 45.593886-20.413078 45.593886-45.593886 0-25.180809-20.413078-45.593887-45.593886-45.593887zm184.993449 0c-25.180808 0-45.593886 20.413078-45.593886 45.593887 0 25.180808 20.413078 45.593886 45.593886 45.593886 25.180809 0 45.593887-20.413078 45.593887-45.593886 0-25.180809-20.413078-45.593887-45.593887-45.593887zm184.99345 0c-25.180808 0-45.593886 20.413078-45.593886 45.593887 0 25.180808 20.413078 45.593886 45.593886 45.593886s45.593887-20.413078 45.593887-45.593886c0-25.180809-20.413079-45.593887-45.593887-45.593887z"/></svg>