<svg height="960" viewBox="0 0 960 960" width="960" xmlns="http://www.w3.org/2000/svg"><path d="m699.320108 55 5.484051.0186557 7.275247.0338924 3.620703.0232129 5.408475.0425956 7.166495.071203 5.339048.0641201 7.067715.0996535 7.005693.1156874 5.211127.0971899 6.887395.1433555 3.41651.0775329 3.397709.0814093 5.060203.1293378 5.01505.1379453 4.968186.1464842 3.285243.1023662 4.886276.1605635 4.834849.1689195 4.781711.177207 3.157441.1227083 4.689346.1908671 4.631645.1989718 3.054862.1371165 3.02795.1406677 4.490357.2176158 2.958452.1494569 2.929765.1529371 4.339753.2358864 2.855831.1615485 2.825371.1649574 4.179833.2537836 2.747.1733911 4.059902.2663388 5.297422.3666823 2.59795.1882515 2.217618.1653267 3.271232.2520608 3.204376.2569051 4.167289.3499974 3.045649.2680321 1.992035.1812981 2.929937.2758285 1.914244.1864536 1.882764.1884923 2.764667.2865315 2.692669.2910428 1.754767.1965124 1.722249.1984837 2.521947.3013924 2.447611.3057524 2.372576.3100668 2.296837.3143357 1.488803.2119065 1.454623.2137701 2.117391.3241202 2.039317.3282378 1.315824.2210903 1.525415.2662913 1.48115.269788c.729582.1358188 1.442732.2730628 2.139699.411903l1.372431.2798593c.450334.0940297.89355.1888194 1.329721.2844199l1.287457.2892844 1.245636.2944529c2.449747.5942769 4.651239 1.2213886 6.62048 1.8922784 3.056152 1.0411836 5.730689 2.2322025 8.209322 3.8164667 2.982817 1.9065232 5.586549 4.2422857 7.529338 7.2702732l.061705.0990239 9.820156 9.8328859.375616.2968324c.3955.3192118.788215.6588401 1.17892 1.0216729l.390063.3706708c3.817628 3.7113768 6.448487 8.8281603 6.448487 15.1567083l-.000963 25.338619.022665.237551c.03899.460878.062702.926107.073603 1.395178v51.517496c0 3.05339-.669039 5.951043-1.868771 8.554161l-.085475.179658-.253592.56325c-1.409584 3.004573-3.436254 5.536669-5.842229 7.658412l-.333631.289537c-2.311712 1.974393-4.827619 3.462261-7.652632 4.737399-3.841989 1.734175-8.494342 3.1508-14.197829 4.4497l-1.166902.260737c-.197344.043274-.396118.086456-.596318.129547l-1.218313.257454-1.252466.25527-1.286525.253093-1.320487.250919-1.354354.248751-1.388123.246589-1.421799.244431-1.455377.242279-1.48886.240131-1.522246.237989-1.555538.235852-1.588732.233719-1.621832.231593-2.494598.343411-1.70416.226297-2.617641.335492-1.785888.221034-2.739784.327621-1.867017.215802-2.861028.319797-1.947547.210603-1.979591.208531-4.801912.483782c-.470683.045972-.943741.091769-1.419313.137402l-2.884708.271924-2.951724.268563-3.025427.265772-5.352673.448056-5.509807.433914-5.619168.416428-2.181832.154976-6.597271.447466-3.039637.195887-6.065016.372857c-.687038.040912-1.376573.081532-2.068625.121863l-4.182675.238513c-1.404399.078349-2.819025.155543-4.244038.231589l-4.306359.224697-4.369637.217837-6.639013.312088-6.763416.295602-6.883989.278815-7.000713.261724-7.113567.244322-7.22254.22661-7.298487.207816-2.474455.065725-8.734561.213424-7.573183.162128-7.636725.142525-3.89311.064677-7.794183.113671-7.848401.093451c-.991977.010491-1.985133.020498-2.979852.030022l-5.990162.051359-3.014944.021356-8.035084.042336c-.901299.003563-1.803294.006731-2.706458.009506l-5.436827.011913-4.07551.002677c-4.08539 0-8.159089-.008048-12.24579-.024221l-1.552886-.008761.64628.524224c49.072184 40.383907 78.235617 110.312163 73.836854 186.216162l-.1997 3.122646c-3.318914 47.445079-19.336821 91.702869-45.235692 126.87088l-.604811.814376-.001024 130.65375c0 118.040456-89.417878 216.665793-206.510601 228.5903l-3.556671.334741c-5.632496.486721-11.283369.731766-16.93687.731766-1.503897 0-3.006006-.018258-4.506136-.05204l.888074.05204c-.394347 0-.789372 0-1.186707-.014693l-.358216-.016539-1.494853-.081956-1.551671-.056669c-1.833892-.075415-3.664382-.176095-5.491104-.301949l-1.551013-.114147-140.77741-7.791403-1.468538-.047159c-2.414632-.08928-4.823346-.223276-7.225275-.401766l-1.475418-.11696-3.499734-.195931c-1.186826-.066675-2.34518-.233417-3.467095-.491723l-.096558-.023539-.318657-.035131c-93.935889-11.339379-166.164042-89.879032-169.130321-184.976032l-.069119-2.916251-.02507-3.010334-.002704-102.862826-1.215271-.477627-1.34679-.537996c-.296325-.119234-.591903-.238704-.887068-.358541l-1.768693-.724445c-.589685-.243636-1.180379-.489773-1.774743-.739448l-1.796764-.760673-1.834754-.78812-2.858295-1.247258-.98906-.436217-7.866109-3.491421-1.163849-.500597-.765939-.317212-.549817-.214007-.740377-.233509c-29.5543518-9.528064-52.6505465-32.084533-69.1723615-66.3033l-.5037161-1.051154-.4350187-.921345c-1.2897679-2.731653-1.9586517-5.714832-1.9586517-8.735461v-79.706661h-21.5c-10.76955262 0-19.5-8.730447-19.5-19.5s8.73044738-19.5 19.5-19.5h21.5v-24.985018c0-3.224239.6083291-6.504587 1.8922393-10.07866l.220252-.59844.2970538-.766213.3173784-.77583.3378433-.785943c.0580205-.131861.1168995-.264164.17664-.396919l.3688047-.802044c.3159912-.673032.6536664-1.357892 1.0133917-2.055875l.4422778-.84396.4635867-.857054.4850359-.870645c.0826346-.146267.1661688-.293122.2506055-.440574l.5174736-.891962c.0880585-.149883.1770253-.300383.2669034-.451512l.5502277-.914398.5722395-.929976.594392-.946051.6166849-.962622.6391187-.97969.6616929-.997256 1.0351736-1.529905 1.0867567-1.572222.7533961-1.072485.7766734-1.092535.8000914-1.11308.8236499-1.134123 1.2799547-1.741728.8831615-1.188904.9072121-1.211687 1.4062209-1.861332 1.461126-1.915386 1.5165055-1.971116 2.1089737-2.717745c16.552883-21.238157 36.4599717-35.312876 59.5385197-41.614157l-.042639.011012 31.433099-11.129406.097121-.207088c32.1552-68.05522 100.855472-112.801445 177.418207-113.389425l1.719668-.003047 90.999977-5.192222.000042-43.529816c0-6.170334 2.50096-11.188735 6.164412-14.8757229l.284075-.2809854c.519268-.5048162 1.041649-.966728 1.568983-1.3923437l.374611-.2968324 9.794564-9.8062801c1.555116-2.3957301 3.55416-4.4309696 5.820799-6.1450757l.310729-.2317547c2.59982-1.9124562 5.395098-3.2791225 8.609385-4.4525818 2.274152-.8302385 4.863493-1.5889108 7.801178-2.298595l1.280431-.301217c.433984-.0994498.875174-.1979656 1.323666-.2956134l1.36748-.2904048c.69479-.143966 1.406228-.286127 2.13464-.426705l1.479553-.2791111c.500793-.0923774 1.009226-.1841171 1.525397-.2752849l.634444-.1110648 1.29495-.2207843 1.329535-.2189806 1.363925-.2171647 2.109934-.3223157 1.449034-.2125717 1.482731-.2107132 1.516233-.2088425 2.336732-.3097294 2.410999-.3054517 2.484602-.3011328 1.696962-.1983355 1.729182-.1963856 1.761202-.1944234 1.793027-.192449 1.824655-.1904625 2.79585-.2819423 1.902859-.1854428 1.933796-.1834136 2.958268-.271289 4.050795-.3545025 4.17099-.3461663 4.289609-.3377325 3.50025-.2628878 3.98804-.2865733 5.440103-.3701645 4.169757-.2685786 2.821533-.1747045 2.85426-.171201 4.341578-.2501847 4.412187-.2421795 4.480977-.234101 6.078503-.2994412 4.634421-.2149659 4.697153-.206643 3.16539-.133102 6.409845-.2549221 4.874445-.1812344 4.929908-.1726183 4.983553-.1639288 3.351273-.1044223 5.068922-.1492835 6.834156-.185211 5.179957-.128438 5.224513-.119382 5.267254-.1102528 5.308175-.1010501 5.34728-.0917742 5.384567-.082425 7.234283-.0952301 5.464502-.0603251 7.334266-.0654975 7.385475-.0482685 5.570121-.0247903 5.594685-.0193757zm-255.397297 136.096315-28.189287 1.607575c-56.895291 26.037052-96.587483 82.005178-100.019774 147.128581-.126843 2.406681-.202975 4.8157-.228354 7.225453l-.009517 1.807427v357.603368c0 69.013242 42.10983 128.193682 102.043092 153.261035l51.118068 2.825828c.154991.008579.309879.018919.464635.031018l1.448487.106517c1.932831.133157 3.871668.230839 5.815904.292847l.233261.008771.524935.02763.200961-.001247.525676.00524c1.192778.026861 2.387458.040313 3.583904.040313 4.47635 0 8.950619-.192958 13.410338-.578336 97.665207-8.43955 172.64663-90.152066 172.64663-188.145408l.002181-117.570062c-28.386394 28.606657-64.550948 45.91094-103.596205 46.222879l.359254-.006744-.158714.011h-72.671945c-1.430439 0-2.790251-.292436-4.02421-.81986l-.085654-.038855-2.01755-.238524c-84.213431-10.829853-144.768518-99.875706-138.907226-202.897458l.202501-3.190626c7.080235-101.089872 76.01599-181.396719 159.27493-184.709313l-1.501789.072725.22858-.039882c.457306-.07578.9246-.121237 1.399682-.134284l.285966-.003923 75.431308.000797c-.79302-2.302068-1.137787-4.703126-1.073875-7.084178l-7.668694-.154832-8.065731-.180062-9.427492-.230954-6.12567-.162851-7.470007-.2134-7.254008-.224172-5.641832-.186978-6.303052-.223249-6.336177-.241383-6.076692-.249488-5.811528-.257344-5.540685-.264949-4.406247-.226419-3.384528-.184716-4.052312-.235247-3.851082-.239948-2.21269-.146166-3.522276-.247169-2.66694-.200856-2.531001-.20355-1.992606-.170593-1.987106-.180709-1.885408-.182952-1.2005-.12328-1.155389-.124377-1.64858-.18871-1.042768-.127293-.997783-.128531-.952831-.129807-.907915-.131125-.863035-.13248-.81819-.133878c-.13263-.022432-.263392-.044923-.392289-.067476-2.161199-.37813-3.903698-.786425-5.382424-1.30774l-.533577-.192978c-.087762-.032599-.174932-.065429-.261502-.098516l-.512138-.201777-.497261-.209027-.481915-.217386c-2.19757-1.028744-3.885509-2.362569-4.854332-4.497936zm-72.176824 4.113907-33.283833 1.902487c-.419029.023906-.838694.034926-1.2584.033045l-1.918862.003074c-63.255427.486434-119.78931 39.023853-143.776538 96.854859l-.166378.389692c-.362842.826085-.777772 1.622537-1.240655 2.385433-5.896778 15.687508-9.517997 32.536789-10.445599 50.167916-.12339 2.345288-.197449 4.692853-.222137 7.041134l-.009258 1.76132.001103 227.863181c.098978.814335.149731 1.641156.14974 2.477041l.000641 116.986819.021162 2.72332.054284 2.250461c2.335348 74.852252 59.214531 136.702037 133.118233 145.624324l2.267636.256556c.357645.037755.712316.08456 1.063796.140173l.346626.057811 1.321095.07425.279753.017637 1.98412.154522c2.275033.164788 4.558726.279061 6.850034.342475l.282685.009778.282523.013681 44.186783 2.44976c-45.682506-33.363074-75.625848-86.981331-76.609545-147.637616l-.024996-3.084636v-357.603368c0-3.371755.088776-6.742927.266236-10.110012 3.079301-58.425855 32.230705-110.263931 76.479751-143.545117zm207.00545 36.542113c-76.497516-5.350569-144.942187 68.281364-151.738067 165.491363-6.795881 97.209999 50.737676 179.653398 127.235193 185.003967 76.497516 5.350569 144.942187-68.281364 151.738067-165.491363 6.795881-97.209999-50.737676-179.653398-127.235193-185.003967zm-81.078727.528186-1.608807.20467c-67.261892 9.071665-122.953898 77.906562-129.036943 164.758792-6.659379 95.081 48.385321 176.217702 122.717624 184.576267-54.41086-34.254941-88.73764-106.094517-83.151169-186.004813 5.02744-71.91378 41.155652-132.855014 91.079295-163.534916zm-333.247943 78.486092-25.484634 9.027098c-.505023.178817-1.016874.337749-1.534369.476428l-.648424.17353c-14.039734 3.8335-26.592267 12.708398-37.9336375 27.259931l-1.4713964 1.896582-.9480127 1.231784-.9216181 1.205575-1.3328245 1.758981-1.2731465 1.699399-1.2132948 1.639448-1.153269 1.579133-1.0930694 1.518448-1.0326958 1.457399-.6548371.937502-.6278756.910096-.6008626.882583-.5737979.85496-.5466818.827229-.5195141.79939-.492295.771441-.462467.739287-.4270687.697822-.392172.656299-.3570262.613492-.3216315.569401-.2859878.524025-.1749835.330908v136.198108l.2921039.578981c11.6789355 22.949796 26.0993756 36.591911 43.3843776 42.175153l.915324.290803c.726655.235456 1.46367.500305 2.262385.809835l.821182.324989.873725.358172.937675.394753.609572.261186.538549.234378 8.971432 3.977811 2.408965 1.052506 1.537825.662452c.252559.108109.503404.21513.752776.32116l1.48046.625019 1.456579.605728 1.444187.59097 1.845898.740777c2.236257.886968 4.407091 1.708801 6.520805 2.465297l-.000995-208.72368c0-3.294634.086593-6.588698.259689-9.878769.634458-12.059273 2.391758-23.792631 5.165078-35.1038zm287.010748 87.510776c5.548552-83.877528 62.767342-148.930334 129.24664-144.01628 66.403757 4.908469 114.427519 77.634795 108.88233 161.461502-5.548552 83.877528-62.767342 148.930334-129.24664 144.01628-66.403757-4.908469-114.427519-77.634795-108.88233-161.461502zm127.741557-123.633692c-16.155254-1.194173-31.853384 2.968224-46.043091 11.371274 30.875401 30.447782 47.86314 79.070993 44.428922 130.571401-2.992066 44.8698-21.035134 85.492785-48.882601 112.304721 10.202463 5.943748 21.36569 9.594676 33.142626 10.46521 53.778534 3.975231 102.491544-51.40724 107.358656-124.98344 4.870474-73.62702-36.150436-135.74835-90.004512-139.729166zm-62.702659 23.808065-.778492.71678c-24.083465 22.492869-41.103251 58.520161-43.877505 100.458595-3.190279 48.227491 13.309457 91.518386 40.208436 116.766308 25.362019-23.069136 42.242102-59.915808 44.992176-101.156613 3.137617-47.052512-12.740383-90.914867-40.544615-116.78507zm-39.406215 106.723657c.85775-12.95769 9.581434-22.868938 19.484895-22.137392s17.236458 11.828864 16.378709 24.786554c-.85775 12.95769-9.581434 22.868938-19.484895 22.137392s-17.236458-11.828864-16.378709-24.786554zm213.954545-227.973944-11.807202.013395-9.757639.026343-9.67378.039954-11.485178.06566-11.33593.084697-11.171144.103426-9.172196.100274-9.037978.112889-8.894765.125327-7.006657.109097-5.188297.086917-10.196674.186767-8.304743.168629-6.511331.143279-9.53543.228662-6.195861.161471-6.061617.16859-7.381225.220608-5.742732.184273-6.968051.239923-6.332079.235272-5.079971.202059-5.854485.249394-4.673298.213382-3.55348.172237 5.070773.266002 4.482707.218235 4.673298.213382 5.854485.249394 5.079971.202059 6.332079.235272 6.968051.239923 5.742732.184273 7.381225.220608 6.061617.16859 6.195861.161471 9.53543.228662 6.511331.143279 8.304743.168629 10.196674.186767 5.188297.086917.079225.001187c1.305406-.199814 2.672244-.282277 4.095806-.233232l7.644115.241613 3.562562.104069 7.262744.19648.711274.01642 1.583674.020776 9.172196.100274 11.171144.103426 11.33593.084697 11.485178.06566 9.67378.039954 9.757639.026343 11.807202.013395 9.811579-.00413 11.638767-.022931 5.777931-.018727 13.361343-.062265 11.303792-.073774 9.487845-.078698 1.441903-.030773 7.391903-.178927 3.61469-.095133 7.209625-.20522 7.10225-.222831 6.990666-.240095 6.874859-.257012 6.754809-.273576 6.630498-.289784 6.537008-.307373 4.253815-.212089 4.195323-.218912c.694127-.03704 1.385653-.074355 2.074496-.111939l4.100204-.228695c1.355564-.077282 2.699739-.155601 4.031869-.234917l5.985259-.367952 2.173196-.139516 6.462288-.434911 2.084886-.146946 6.148955-.453799 2.842498-.2246-2.398508-.082235-7.080769-.229234-5.82459-.175775-8.993042-.250769-6.159616-.158455-7.876454-.188098-6.437266-.142394-6.553406-.135113-6.665079-.127743-8.481582-.14918-8.640365-.137354-8.790422-.125356-8.931753-.113186-7.241298-.081669-9.164162-.090843-11.150533-.092294-11.303792-.073774-13.361343-.062265-5.777931-.018727-11.638767-.022931zm3.954514-52.999328-9.811579.004129-11.638767.02293-5.777931.018725-13.361343.062261-11.303792.073768-9.303394.075632-9.188239.08832-9.06436.100834-8.931753.113177-8.790422.125346-8.640365.137344-8.481582.149169-5.009104.095106-8.209381.16773-6.437266.142383-7.876454.188083-6.159616.158443-7.515257.207878-5.85935.174055-5.718638.180849-5.573459.187557-8.025369.291759-6.117573.241804-3.932605.165428-4.748529.211374-3.662803.172654-5.263203.264687-4.980493.271253-3.92998.23083-3.725764.234985-2.831165.190856-2.696336.193304-1.932666.146528-1.845719.149672v32.727l.188361-.014436 2.66694-.200856 3.522276-.247169 2.21269-.146166 3.851082-.239948 4.052312-.235247 3.384528-.184716 4.406247-.226419 5.540685-.264949 5.811528-.257344 6.076692-.249488 6.336177-.241383 6.303052-.223249 5.641832-.186978 7.254008-.224172 7.470007-.2134 6.12567-.162851 9.427492-.230954 8.065731-.180062 9.917226-.20094 8.452757-.154637 6.879251-.1152 8.738051-.13322 7.096193-.097845 7.185365-.089989 10.935482-.120063 11.111024-.101897 7.497437-.057692 11.370135-.070963 9.579177-.044669 11.606856-.035988 9.755359-.01511h11.850308l11.815.020162 7.814986.024458 7.760279.033184 13.435021.078799 7.586129.056717 9.380945.082681 11.0961.11627 9.102019.110896 10.735311.149616 12.246934.196976 6.85507.123224 8.413785.164769 6.601384.140298 8.082131.185826 4.755378.117004 7.762903.204064 7.551713.215235 5.883279.180112 7.148943.234897 6.345241.224691 6.336177.241383 6.076692.249488 3.904165.170706 4.711916.218178 4.521858.223372 4.328515.228422 4.131885.233326 3.931968.238085 3.728765.2427 3.522276.247169 2.66694.200856 1.873361.150436.000784-25.492808-.022637-.24732c-.038976-.46089-.062674-.92613-.070583-1.395213l-.002964-.352524-.0006-5.244135-.386545-.033625-2.421169-.197917-2.559671-.195658-2.696336-.193304-3.559809-.238177-2.99712-.187664-3.127819-.185005-4.090771-.227374-4.288533-.222888-4.482707-.218218-4.673298-.213366-5.854485-.249375-5.079971-.202043-6.332079-.235254-6.968051-.239905-5.742732-.184259-7.381225-.220591-6.061617-.168577-6.195861-.161459-9.53543-.228645-6.511331-.143267-8.304743-.168617-10.196674-.186753-8.679161-.142429-8.834963-.130242-10.794952-.139952-7.306408-.083258-11.112761-.109592-11.282728-.090967-9.520899-.061357-7.687889-.0395-7.746164-.03088-9.757639-.026341zm4.295044-28.270161h-10.971208l-5.453645.0187066-3.622386.0148868-7.2103.0423456-5.375492.042673-5.345893.0519453-7.078745.0835557-3.517142.0478549-6.987193.1077541-6.9209.1236663-5.14464.1030864-5.10321.111864-3.378246.0794157-5.030216.1263282-4.984052.1349078-4.936116.1434132-3.263236.1002974-4.852277.157424-4.799607.1657315-4.745163.1739647-3.13232.1205139-4.65048.187522-4.591304.1955574-6.026619.2731143-4.446326.214018-4.381233.2218059-4.314368.2295198-4.245727.2371593-4.175312.2447247-2.743546.1673161-4.05401.2571684-5.288144.35434-2.592659.182026-2.557683.185235-3.260325.244706-3.907161.306836-2.857297.234418-3.710659.318071-2.707575.242549-3.507901.328518-1.709577.166381-3.32913.336843-2.417071.256077-2.347734.258908-1.52621.174126-1.494756.175303-2.182596.265093-2.110387.267561-2.037316.269922-1.31719.181206-1.284075.182174-1.250706.183109-1.812932.27635-1.166165.185309-1.684923.279497-1.080027.187307c-.188782.033343-.375486.066658-.560089.099933l-1.604028.298095c-.171776.032935-.341378.065795-.508782.098571l-.977858.195541-.923953.192956-1.282334.283395-.78414.184111-.726194.179622-.488152.126565-.83466.834119 2.778342-.180287 3.129476-.19083 4.092164-.234271 5.170728-.274678 4.521858-.223356 4.711916-.218161 3.904165-.170692 6.076692-.24947 6.336177-.241364 6.345241-.224674 7.148943-.23488 5.883279-.180098 7.551713-.215218 7.762903-.204049 4.755378-.116995 8.082131-.185812 6.601384-.140286 8.413785-.164757 6.85507-.123214 12.246934-.196961 10.735311-.149605 9.102019-.110888 11.0961-.116261 13.165303-.112085 7.620379-.052485 11.551102-.062718 9.726532-.037398 7.840616-.02006 11.849134-.013447 9.846244.004146 11.68039.023022 11.567579.042417 9.542613.049951 7.564303.049396 7.497437.057688 11.111024.101889 10.935482.120054 7.185365.089982 7.096193.097838 8.738051.133209 6.879251.115192 8.452757.154625 9.917226.200924 8.065731.180049 9.427492.230936 6.12567.162838 7.470007.213384 7.254008.224155 5.641832.186963 6.303052.223233 6.336177.241364 6.076692.24947 5.811528.257324 5.540685.264929 4.406247.226402 3.384528.184701 4.052312.235229 3.851082.23993 2.21269.146154.753577.052606-.947214-.948096-.88856-.227424c-.128122-.031649-.258793-.063476-.391989-.095469l-.82931-.193879c-.143209-.032621-.288898-.065388-.437045-.098291l-.918185-.198985-.976065-.201788-1.032845-.20411-1.088528-.205953-1.143114-.207316-1.105024-.192563-1.121168-.188309-1.155963-.187463-1.798618-.279539-1.241815-.185209-1.926178-.276009-2.001543-.273746-2.076034-.271378-1.424972-.17955-2.947055-.355669-1.521563-.176057-1.55324-.174829-2.388687-.259871-3.293362-.3419-2.550219-.252839-2.617985-.249648-3.594544-.327711-2.772696-.24178-3.797642-.316832-2.922631-.233328-3.994375-.305174-3.575213-.260615-2.594363-.182191-2.628779-.178954-4.006552-.262311-2.712522-.1707628-4.129702-.249923-2.79298-.162436-4.247925-.2373301-2.870152-.1539725-4.36122-.2245326-2.94404-.1453725-2.972675-.1418944-4.511553-.2062722-4.573025-.1983235-4.632724-.1903011-4.690648-.182205-4.746798-.1740353-4.801174-.1657918-4.853776-.1574747-3.264198-.1003261-6.594064-.1893772-5.000938-.1320811-5.046445-.1234693-5.090176-.1147838-3.416871-.0716608-5.159121-.100144-5.198122-.091262-5.235349-.0823063-5.270803-.0732768-5.304482-.0641737-5.336388-.0549969-5.366519-.0457464-5.394876-.0364222-7.234213-.0339313zm-215.857301-2.737986-.018358.5221048c-.10868 2.2112609-.574667 4.3733269-1.365335 6.4073702l-.112132.278717.09119-.212232c.839067-2.0186579 1.354666-4.3522956 1.405984-7.0276497z"/></svg>