<svg height="960" viewBox="0 0 960 960" width="960" xmlns="http://www.w3.org/2000/svg"><path d="m653 10.5c22.09139 0 40 17.90861 40 40v809.189494c0 16.224687-6.730436 31.195854-17.860924 41.872615l-.499122.471891-.140018.280466c-4.433325 8.69625-11.025786 16.367869-19.230492 22.851183l-.504339.395451c-11.305912 8.796633-25.791212 15.559571-43.343831 20.816506-32.21068 9.64696-76.5309 14.622394-130.921274 14.622394-54.867863 0-102.068815-5.074408-136.880295-14.597956-18.784537-5.138978-34.302012-11.628805-46.371629-19.935143-7.719748-5.312748-14.219134-11.48128-19.236447-18.817739-.877431-1.283004-1.702606-2.593413-2.473342-3.929267l-.167333-.295895-.474103-.412255c-12.222553-10.777017-19.698696-26.518856-19.656921-43.656544l.00727-.779935 12.757776-808.7062091c.34458-21.8426639 18.149642-39.3690569 39.995024-39.3690569zm-323.920903 888.262488.311383.151538c27.481308 13.221879 80.224573 22.085974 151.10952 22.085974 71.017083 0 118.448325-8.897173 142.279074-22.160015-40.688411 3.110199-88.1036 4.660015-142.279074 4.660015-54.657277 0-105.128353-1.577739-151.420903-4.737512zm-33.270341-34.763488.004179.015209.028821.109791.016366.060919.031634.113081-.024-.088.109587.388758c.13543.457571.2886.907793.458749 1.349828l.047664.121414-.02-.049.068814.1732c.02482.061753.049974.12334.075458.18476l-.050867-.124264c.205718.506484.433885 1.001773.683325 1.484572l.256488.478589.159713.281518.164614.27839c.127656.211532.259558.420271.395594.626093l.207141.306529.010793.015784.197126.278874.213662.290324.015139.020631.019.025.06.078.009529.012978.031471.041022.037.048.004.005.109087.139083.019568.024481.030345.038436.061.076.016.02.105845.128487.008155.010513.076.091.039.046.054799.064628-.035799-.042628.304097.350093c.11136.124807.224446.248066.339225.36974.069333.073616.139421.146676.210122.219147l.169921.171773.172153.169524.069482.066723-.029-.028.360876.339568c.271462.248154.550643.488159.837173.719607.237787.192141.480839.378472.728748.558667l.241413.172413.243978.168288.047808.032328-.023996-.016871.269772.179337c.098543.064003.197766.127074.297654.189198l.040574.024465h-.001l.015.009.026278.016554.022722.013446.016952.010837.103048.062163.016.01.064.038-.061884-.036779c.400367.24033.811068.465619 1.231363.67505l.423466.204114.080145.037112c-.026643-.012253-.053249-.02457-.080145-.037112l.136233.062781.033822.014834-.08991-.040503.17691.079503-.072-.032.070701.032122.089299.038878.095111.042288.137889.058712-.137-.059.138124.05986.119876.05014-.045-.019.072596.030535.009404.003465.154.063.020268.00819c.312958.125201.630395.241927.952043.349883.136636.045865.274376.090251.41286.133024 1.244236.384306 2.548449.638385 3.897622.745716 50.794973 4.044754 107.02412 6.067187 168.687451 6.067187 60.710319 0 112.749165-1.960402 156.116571-5.880829 1.457474-.131426 2.861361-.434132 4.192527-.887176.21664-.073722.43133-.151424.644012-.233017l.162369-.0632.057277-.023778.060814-.02335c.047497-.019146.09489-.038488.142179-.058023l.20017-.08412.096837-.042507-.085141.037519.247366-.108147-.020225.008628.029-.013.067693-.029981c.045442-.020533.09078-.041247.136013-.062142l-.138706.062123.289755-.132736c.120429-.056997.240102-.115284.359005-.17484.032111-.016107.064086-.032243.096005-.048472l.375736-.196663.370339-.205133c.18541-.105579.368714-.214338.549842-.326201l.075624-.046936.173694-.111019.016803-.009634.021197-.014366.025623-.015763.051377-.034237.034-.022.035-.023.064-.042.238139-.160419c.086676-.059563.172794-.119862.258345-.180886l.112305-.080798-.056789.040103.080651-.057393.033349-.025607.055-.04.021036-.014637.02581-.019071c.175313-.130045.348139-.263184.518402-.399333.260808-.208587.515904-.424463.764694-.647114l.04961-.044521.022448-.021324-.024.021.050768-.044207-.098826.089052c.075848-.067878.151109-.136387.225777-.205516l-.113719.102671.116-.106.106637-.098348.064363-.062652.192243-.183634c.077334-.075715.15398-.152116.22993-.229195.11501-.116772.228365-.234982.340091-.354706.223633-.239568.441209-.485815.651965-.737864l.046821-.056273.01195-.015328-.013.015.02-.024.046274-.054726.036726-.046274-.038.046.222464-.275032c.078897-.100167.156745-.201183.23353-.303032l.036784-.048913.030222-.042023.009-.012.024-.033.024-.032.043-.059.008-.011.077363-.105149.024608-.034321c.125815-.176203.248515-.354742.368024-.535537.398709-.603168.761908-1.231432 1.08679-1.881721.018829-.03774.03776-.07597.056559-.114274l.005656-.012998.064-.131.211392-.456412c.275878-.618948.517767-1.255965.723412-1.908585l.015196-.051003.036-.117.037645-.122563.000355-.002437.013258-.043654.04575-.158519.037992-.136827.006339-.02227.041728-.155212.027933-.110518.012441-.045226.003559-.014774.027-.11.004-.015.007234-.027863.005342-.021973.020424-.089164.051614-.219352c.023128-.103165.045368-.206652.066713-.310453.023909-.116231.046741-.233135.068432-.350421l.056119-.319595c.030238-.181828.057745-.364539.082478-.548087l.009631-.072571.003013-.028521.00631-.043997.00269-.023003.01734-.141439.003146-.02706.013514-.128501.006397-.051656c.00634-.060137.012384-.120358.018129-.180661l-.008526.072317.021547-.214967c.010666-.122221.020107-.244774.028312-.367645.018709-.280091.031001-.562344.036701-.846105.002453-.122142.003684-.244499.003684-.367123l.000111-172.760947c-57.35748 5.328658-115.028718 7.992948-173.01272 7.992948-61.018908 0-121.691453-2.950489-182.016478-8.851557l-2.730959 173.134605c-.002506.161696-.002867.322952-.001107.48374l-.000091.001051.001735.114117.001265.068883v.003l.002.089.003761.119938.005239.164062.004.079.004.085.004.068.005475.094697.001136.019603.010497.160534.001145.015524.009747.131642.003.04.002119.02348.012881.15652.006.061.008.087.004.037.037584.338162c.014608.121811.030437.243267.047476.364356.028721.204765.060969.408377.096613.610875l.006327.037607.015.08h-.001l.022924.11825.002933.01597-.002933-.01597c.021226.111794.04349.223238.06678.33432.007439.036023.015179.072383.02303.108703l.01079.049058.024282.109714.034194.147955.002277.01031.004723.02169.011.044.029.118.003.014.011226.044789.027774.110211zm11.842675-791.4670109-9.363289 593.4744499c60.213889 5.944451 120.779909 8.916722 181.699249 8.916722 57.990849 0 115.661532-2.693376 173.013073-8.080049l.001212-594.2174898c-2.943716.7851337-6.390539 1.4679534-10.44367 2.1067985-9.36316 1.4757998-22.482028 2.7703652-38.751706 3.8550104-32.622493 2.1748329-76.517542 3.4125689-123.3063 3.4125689s-90.683807-1.237736-123.3063-3.4125689c-16.269678-1.0846452-29.388546-2.3792106-38.751706-3.8550104-4.21342-.6641096-7.77163-1.3757408-10.790563-2.2004316zm345.348569-22.0319891h-345c0 6.3512746 77.230881 11.5 172.5 11.5s172.5-5.1487254 172.5-11.5z"/></svg>