<svg width="960" height="960" viewBox="0 0 960 960" fill="none" xmlns="http://www.w3.org/2000/svg">
<path d="M477.646 14C614.104 14 714.714 21.3314 785.238 30.5879C854.898 39.731 897.023 50.9691 915.065 59.8281C922.255 63.3585 926.644 70.8383 926.221 78.8369L919.965 197.149C919.944 197.546 919.911 197.942 919.867 198.337L889.625 466.234C889.428 467.98 889.001 469.693 888.356 471.328L861.933 538.334C868.876 622.882 845.52 721.391 789.053 799.683C731.012 880.159 638.079 939 508.931 939C308.786 939 195.356 808.768 160.15 736.84L117.114 709.719C111.898 706.432 108.489 700.923 107.876 694.789L46.3494 79.7715C45.5132 71.4115 49.9907 63.4201 57.5574 59.7686C75.7025 51.0124 117.1 39.761 184.39 30.6006C252.445 21.3363 348.651 14 477.646 14ZM739.423 330.184C718.989 331.061 698.298 333.699 680.818 337.327C662.382 341.153 648.852 345.817 642.599 349.915C613.59 368.929 595.781 400.612 572.786 454.417C548.436 511.391 503.026 542.469 448.949 571.856C394.846 601.258 339.499 621.561 252.743 660.789C218.394 676.321 199.682 690.469 190.095 701.179C188.54 702.916 187.261 704.517 186.208 705.979L186.41 706.107L187.023 706.511C190.05 708.577 192.455 711.438 193.969 714.786C221.161 774.902 323.089 899 508.931 899C514.824 899 520.627 898.862 526.342 898.596C522.985 896.466 519.768 894.13 516.698 891.589C490.501 869.906 476.707 835.038 474.363 795.645C469.676 716.88 510.251 615.466 599.327 545.798C669.833 490.654 725.521 475.488 767.316 481.087C794.75 484.762 815.312 497.274 829.312 511.932C812.202 414.235 762.897 350.622 739.423 330.184ZM764.661 500.909C730.22 496.295 679.842 508.216 611.648 561.552C527.35 627.483 490.06 722.742 494.328 794.457C496.461 830.303 508.849 859.129 529.451 876.182C540.574 885.389 554.65 891.619 571.882 893.447C619.297 884.746 659.547 866.274 693.031 841.311C672.996 849.355 652.397 850.553 635.574 839.975C614.605 826.789 607.579 800.389 609.546 772.484C611.547 744.076 622.873 711.065 642.542 679.785C662.211 648.506 687.056 623.996 711.792 609.884C736.089 596.021 762.926 590.915 783.895 604.101C802.563 615.839 810.178 638.05 810.238 662.472C821.782 620.003 825.491 576.732 821.687 537.317C821.578 536.18 821.567 535.039 821.651 533.907C811.012 519.14 792.312 504.614 764.661 500.909ZM772.717 621.878C761.486 614.816 743.82 615.788 722.198 628.124C701.015 640.21 678.521 662.018 660.319 690.964C642.117 719.91 632.207 749.632 630.493 773.96C628.743 798.792 635.522 815.135 646.753 822.197C657.983 829.259 675.649 828.286 697.27 815.95C718.454 803.864 740.948 782.055 759.149 753.109C777.351 724.164 787.26 694.442 788.974 670.114C790.724 645.283 783.947 628.94 772.717 621.878ZM707.101 661.626C719.019 654.257 734.294 649.703 746.878 657.616C759.462 665.529 761.976 681.269 760.498 695.203C758.938 709.901 752.723 726.782 742.679 742.754C732.636 758.726 720.114 771.642 707.544 779.416C695.626 786.785 680.351 791.339 667.767 783.426C655.183 775.513 652.669 759.773 654.147 745.839C655.707 731.141 661.922 714.26 671.966 698.288C682.009 682.316 694.531 669.4 707.101 661.626ZM735.699 675.394C733.665 674.115 728.102 673.332 718.147 679.487C708.845 685.24 698.458 695.607 689.743 709.467C681.028 723.327 676.185 737.179 675.031 748.055C673.796 759.695 676.912 764.369 678.946 765.648C680.98 766.927 686.544 767.71 696.499 761.554C705.801 755.801 716.187 745.435 724.902 731.575C733.617 717.715 738.461 703.862 739.615 692.986C740.85 681.347 737.733 676.673 735.699 675.394ZM843.482 296.663C820.253 280.912 780.877 271.118 720.728 278.506C660.037 285.96 624.015 299.149 597.049 321.268C569.781 343.634 550.645 375.971 525.553 424.824C499.854 474.86 474.05 503.25 437.282 525.438C401.429 547.074 354.999 562.781 289.779 588.032C237.929 608.107 201.931 630.936 178.076 651.06C164.134 662.821 154.507 673.515 148.255 682.062L169.281 695.312C170.991 692.827 172.965 690.328 175.193 687.839C187.325 674.286 208.767 658.724 244.503 642.565C332.96 602.568 386.08 583.26 439.399 554.284C492.745 525.295 532.856 496.954 554.395 446.557C577.289 392.99 597.026 355.872 631.635 333.188C641.287 326.862 658.069 321.622 676.754 317.744C695.87 313.777 718.391 310.958 740.512 310.123C762.548 309.291 784.701 310.407 802.884 314.58C820.33 318.584 837.394 326.153 844.331 340.957C848.898 350.705 851.739 364.631 853.589 379.829C854.652 388.564 855.421 398.037 855.956 407.88L865.791 320.763C861.133 311.964 853.831 303.681 843.482 296.663ZM879.844 196.266C554.959 135.664 236.067 168.429 98.1589 195.83L144.167 655.719C150.044 649.362 157.022 642.655 165.18 635.772C190.9 614.077 228.864 590.171 282.558 569.382C349.27 543.553 393.055 528.768 426.948 508.315C459.926 488.415 483.401 463.119 507.763 415.687C532.732 367.072 553.489 331.129 584.365 305.804C615.543 280.231 655.916 266.316 718.291 258.655C781.208 250.928 826.05 260.679 854.707 280.11C860.08 283.754 864.853 287.723 869.044 291.946L879.844 196.266ZM767.56 330.189C789.705 355.154 818.485 398.817 836.931 458.373C837.014 449.468 836.983 440.429 836.802 431.508C836.446 413.837 835.506 396.792 833.735 382.245C831.933 367.436 829.37 356.166 826.22 349.443C823.51 343.659 814.956 337.871 798.41 334.073C789.353 331.995 778.85 330.736 767.56 330.189ZM176.937 221.812C184.932 220.793 192.684 229.92 194.25 242.198C195.815 254.476 190.603 265.256 182.608 266.275C174.613 267.295 166.863 258.169 165.297 245.891C163.731 233.613 168.942 222.832 176.937 221.812ZM477.646 54C350.106 54 255.735 61.2576 189.786 70.2354C138.881 77.1651 105.839 85.0037 87.6638 90.9219L96.1589 175.84C236.781 148.183 555.538 115.896 881.018 176.141L885.515 91.1309C867.473 85.2316 833.572 77.2753 780.033 70.248C711.573 61.2625 612.741 54 477.646 54Z" fill="black"/>
</svg>
