<svg height="960" viewBox="0 0 960 960" width="960" xmlns="http://www.w3.org/2000/svg"><path d="m541.913099 18.8372913c72.487917 36.9344384 102.658962 124.2799777 66.404155 195.4340427-1.630672 3.200373-3.376334 6.327124-5.23316 9.375892l-.084802.136621.000708 196.827682c0 25.259603-20.016594 45.983663-45.16531 46.95502l-.763637.023373-7.073201.159918.002148 439.25016c0 16.949619-13.602977 30.722092-30.487358 31h-.512642c-17.120827 0-31-13.879173-31-30.99997l-.001148-437.84819-20.001.452.002148 437.39616c0 16.949619-13.602977 30.722092-30.487358 31h-.512642c-17.120827 0-31-13.879173-31-30.99997l-.001148-436.00019-.065123.001296c-25.846247.147751-46.933729-20.728961-46.933729-46.682538l.000292-192.615751-.733276-.977734c-31.862353-43.071762-38.352635-100.380742-14.316536-149.0978024l.821774-1.6388616c36.254807-71.15406508 124.652928-98.0855961 197.140845-61.1511577zm-93.914247 451.2185487-22 .498.001148 436.44616c0 6.075132 4.924868 11 11 11s11-4.924868 11-11zm82-1.854-22 .498.001148 438.30016c0 6.075132 4.924868 11 11 11s11-4.924868 11-11zm-109.742632-210.599479c-7.642873-3.894238-14.741218-8.431275-21.258159-13.50723l.001939 180.223386c0 3.281254 2.312159 5.970145 5.395891 6.561895l82.590961-1.716572 21.01244-.474993-.00044.000993 48.167815-1.089693c3.773945-.085304 6.833333-3.214215 6.833333-6.988618l.001375-179.847697c-37.590206 33.293084-94.201254 41.572882-142.745155 16.838529zm-45.822283-143.459253-.426943 1.413958c-13.922557 47.185621 8.519598 99.813401 55.556031 123.779661 51.726507 26.355972 114.012592 8.275011 140.962978-40.247573-31.509338 14.848001-77.660722 12.690576-120.36263-7.396024-38.966022-18.329272-66.77102-47.752212-75.729436-77.550022zm20.494419-36.508355-.26528.3051285c-.036352.0904359-.07412.1806351-.113315.2705725-12.792746 29.354294 14.157153 71.879726 64.126633 95.384928 50.776107 23.884632 105.312658 18.595208 123.506819-9.39866l.034851-.050359c5.958521-43.056-16.447592-87.6989206-58.69158-109.2233075-44.922437-22.8891246-97.809159-12.2628516-128.598128 22.7116975z"/></svg>