<svg width="960" height="960" viewBox="0 0 960 960" fill="none" xmlns="http://www.w3.org/2000/svg">
<path d="M478.732 30.2207C505.783 21.2034 533.144 16.1986 555.038 19.0479C566.096 20.487 577.643 24.1767 586.674 32.3047C596.319 40.9854 601 52.8455 601 65.9854V898.312C601 914.932 589.58 926.155 577.985 932.171C566.254 938.258 551.083 941.15 534.176 941.244C500.043 941.435 453.774 930.289 399.613 901.515C374.057 887.937 360.011 861.08 360.062 833.667L361.372 130.058C361.426 100.794 377.547 73.1096 405.014 60.248C426.017 50.414 452.873 38.8407 478.732 30.2207ZM549.876 58.7129C536.751 57.0048 516.139 59.9151 491.382 68.168C477.991 72.6316 464.132 78.0208 450.964 83.5693C440.393 90.4818 434 102.074 434 114.504V855.882C434 864.785 437.958 873.169 444.681 878.985C482.416 895.613 512.834 901.362 533.952 901.244C547.023 901.171 555.32 898.867 559.562 896.666C560.176 896.347 560.645 896.069 561 895.839V201.436C552.499 201.842 543.963 200.218 536.123 196.613L490.971 175.852C477.275 169.553 474.539 151.272 485.792 141.24C490.496 137.047 496.84 135.198 503.06 136.208L561 145.616V65.9854C561 62.8145 560.164 62.2604 559.915 62.0361C559.052 61.2593 556.326 59.5524 549.876 58.7129ZM415.86 100.158C406.914 106.903 401.395 117.876 401.372 130.133L400.062 833.741C400.039 846.235 405.651 857.349 414.639 863.855C414.219 861.247 414 858.583 414 855.882V114.504C414 109.587 414.642 104.775 415.86 100.158ZM499.854 155.95C499.583 155.906 499.306 155.987 499.1 156.17C498.934 156.319 498.872 156.44 498.84 156.535C498.799 156.652 498.779 156.809 498.805 156.986C498.832 157.164 498.898 157.308 498.97 157.408C499.03 157.49 499.124 157.587 499.327 157.681L544.478 178.442C549.677 180.833 555.367 181.832 561 181.401V165.878L499.854 155.95Z" fill="black"/>
</svg>
