<svg height="960" viewBox="0 0 960 960" width="960" xmlns="http://www.w3.org/2000/svg"><path d="m767.179016 225.164771 2.620329 1.01489c41.33397 16.144293 75.312981 35.857502 100.122364 58.755633 3.820223 3.525923 7.427571 7.132561 10.813878 10.81597 2.666048-1.414669 5.129269-2.819345 7.376813-4.208888l.741175-.462613c9.344789-5.889168 21.694351-3.087833 27.583519 6.256956 5.889167 9.344789 3.087833 21.694351-6.256956 27.583518-1.994214 1.256771-4.079669 2.500234-6.254481 3.731641.385906.760873.76385 1.523915 1.133277 2.289209 8.891881-3.838408 16.518535-7.689655 22.619496-11.470761l.647824-.404847c9.344789-5.889167 21.694351-3.087833 27.583519 6.256957 5.889167 9.344789 3.082368 21.694351-6.256956 27.583518-9.29491 5.857733-20.570543 11.431907-33.579227 16.802396.073591.758952.139162 1.520536.196861 2.283638 5.725838-1.562469 10.592467-3.122611 14.378172-4.624536l.487639-.195568c10.236202-4.150608 21.899016.782741 26.049624 11.018943s-.782741 21.899015-11.018943 26.049623c-6.576689 2.666737-14.575524 5.149706-23.86091 7.528205-1.946763.498673-3.900013.693042-5.809457.612889l-.317724 91.942325.00193.086278c.027317 1.569322.025982 3.137955-.009735 4.705389l-.020443 3.505294c-.016931 2.784344-.318332 5.501808-.885834 8.120994-3.456243 33.037872-19.601025 63.975501-46.018484 91.484964-25.030093 26.064748-59.270793 49.05632-100.807132 68.293072-36.253824 16.790256-77.607033 30.51466-122.394331 40.762135l1.240982.71475c8.807631 5.039884 15.761973 8.305738 20.69034 9.764345l.34055.09883c10.624538 3.021022 16.788405 14.082934 13.767383 24.707472s-14.082934 16.788405-24.707471 13.767383l-.918449-.26818c-15.116415-4.527709-35.881034-16.281634-63.628605-35.511484-1.095312-.759083-2.091362-1.607951-2.98511-2.529834-2.395729.373428-4.799776.736677-7.210686 1.090516 1.259388 2.713668 2.639419 5.546557 4.131521 8.483582 2.85809 5.62581 6.07979 11.542248 9.59829 17.665487 5.356379 9.321696 11.120652 18.647363 16.885637 27.503533l1.484245 2.269402c1.293376 1.968147 2.515685 3.803241 3.652039 5.488313l1.129506 1.667105 1.316959 1.918337c6.317718 9.060564 4.094203 21.527124-4.96636 27.844843-9.060564 6.317718-21.527125 4.094203-27.844843-4.966361l-1.576777-2.295282-1.610423-2.380698c-1.43185-2.129179-2.977199-4.459572-4.613748-6.966298l-.493678-.757283c-6.143047-9.436949-12.286805-19.376563-18.044589-29.396822-3.844052-6.689795-7.390119-13.201912-10.578041-19.476957-3.883237-7.64369-7.183884-14.827201-9.835786-21.52727-5.078262.505196-10.181574.968312-15.306673 1.390273-.051321.397726-.114669.796171-.190434 1.195134l-.677796 3.601019-3.276358 17.801112c-5.253197 28.264317-8.678994 42.484136-14.459353 56.668569-4.168443 10.228952-15.839838 15.141965-26.06879 10.973521-10.118963-4.123621-15.035694-15.589708-11.104842-25.738335l.54712-1.36647c4.301052-10.883159 7.32665-23.842739 12.121598-49.802749l1.990533-10.856846c-2.351793.092464-4.707569.174284-7.066591.247481-1.024782 2.579344-2.218582 5.158376-3.571823 7.739373-7.216721 13.764245-18.847534 27.492385-33.747741 41.304338-8.273227 7.668981-17.066529 14.897722-25.856114 21.50878l-1.520741 1.137513c-2.253747 1.676398-4.382254 3.217578-6.357167 4.612731l-1.767419 1.238397c-.603445.419181-1.123769.776512-1.555294 1.069772l-.78671.52954c-9.198753 6.114763-21.612811 3.614695-27.727573-5.584058-6.046821-9.096545-3.669188-21.337339 5.279917-27.521427l.897926-.608165c.573396-.391182 1.249589-.859016 2.019795-1.399854l1.143193-.807672c1.942175-1.380354 4.065882-2.930726 6.330176-4.633807 7.766124-5.841265 15.528532-12.222536 22.707302-18.876995 7.241344-6.712464 13.393694-13.260089 18.161643-19.391682-4.399092-.074861-8.784453-.181801-13.156508-.318925-7.169595 4.245032-16.116151 8.586326-26.575207 13.063086-8.832871 3.780708-18.25806 7.447957-27.697541 10.877332l-1.774789.641837c-2.334866.840483-4.541237 1.619208-6.590153 2.329489l-3.869309 1.322612c-.179178.060036-.337582.11282-.474604.158209-10.485391 3.47332-21.801162-2.211086-25.274483-12.696477-2.788574-8.418252.32571-17.371748 7.088228-22.372281-66.9321-8.526749-128.431776-24.507621-179.737334-46.927355-42.697809-18.658282-77.7097727-41.509975-102.9683409-67.919265-28.4042087-29.698239-44.38405996-63.851788-45.02078911-100.432137-.06620891-3.803729.0359199-7.6022.3157665-11.390331l.00313899-121.244281c.00008302-3.206307.37750842-6.324827 1.13111439-9.297326 3.79509483-30.843757 20.54563473-59.170438 47.40586653-83.994597 25.1146612-23.210908 59.3049806-43.588754 100.7598606-60.649029 81.341949-33.475335 188.534192-53.309404 302.552269-55.30517 116.543237-2.039967 226.574681 14.798806 309.636337 46.700463zm109.07324 258.258121c-22.495701 22.500215-55.58306 44.173335-94.418164 62.266108-59.641079 27.786007-122.823572 44.934301-188.800171 53.804986-25.773878 3.465349-51.163265 5.557805-76.907818 6.603266l-4.47631.173101c-15.553623.56995-28.611637.70618-48.355827.664199l-10.238057-.026194-1.822672-.001068c-47.903091 0-66.867397-11.03875-71.538238-34.515683-78.522315-5.059504-151.001381-19.093669-209.912064-40.632878l7.943633 119.314902c.099434 1.493661-.134436 2.932514-.637968 4.243841 75.051858 31.116874 176.126754 49.246568 287.0006 47.305838 224.109722-3.922806 405.354759-88.395641 411.926549-190.243106l.135595-.00261.021315-3.505288c.031267-1.252875.036075-2.508252.014182-3.766012l-.010002-.268287zm-830.5627189-32.77657.000855 59.739771c-.2673175 3.071928-.3757938 6.160111-.3217873 9.262802.8651351 49.702367 43.270304 94.224643 112.0065162 126.920733l-8.175838-122.875936c-47.449707-19.916976-83.025329-44.661724-103.5097459-73.04737zm767.8711779 88.588267c4.336233-.003172 7.854012 3.51931 7.857181 7.867687v21.874875c-.001581 7.558587-3.610365 14.659901-9.71034 19.099929-4.06573 2.962944-8.024446 5.67509-11.87615 8.136439l-1.501162.95061c-3.954397 2.48263-8.814169 5.373839-14.579296 8.673664l-2.60922 1.486309c-1.069713.606506-2.266457.952752-3.493944 1.010878-4.331407.20511-8.008517-3.149749-8.213054-7.493287l-1.062126-22.760462-.017928-.489203c-.235796-9.12062 4.794274-17.582225 12.944791-21.701913l1.657429-.838732c4.064524-2.06673 7.547561-3.885102 10.44911-5.455115l2.119285-1.159526.981797-.545634c2.842684-1.586686 6.203242-3.519553 10.081207-5.799388l2.985207-1.762922c1.207742-.715346 2.584535-1.093178 3.987213-1.094209zm62.845878-99.958135c-21.699295 30.390105-60.140576 57.276378-111.615731 79.141569-79.37844 33.717718-186.243431 53.921841-300.351637 55.919185-21.483836.376052-42.733537.098121-63.612993-.80722 1.155049 2.477691 2.879972 4.267764 5.675057 5.977384 7.429623 4.544343 21.258841 7.275314 43.205495 7.395759l13.59413.030572c49.567782.082365 83.311137-1.378168 127.067948-7.261358 64.087726-8.616722 125.343482-25.242083 183.019128-52.11242 47.124308-21.954606 84.939185-49.463767 102.970394-74.86556zm-391.929529-169.625401c-9.640838.153157-19.694659.551307-29.746149 1.129135l-2.412101.142095c-1.607753.096985-3.214596.198437-4.818828.304086l-2.404177.16159-2.438916.170533c-23.545924 1.678258-46.151598 4.210285-62.367294 6.739007-132.25236 20.623809-228.868303 64.340888-239.897761 114.770712-2.142418 9.795742 2.310776 18.912594 14.364822 29.019267l.444395.370201c10.893095 9.016536 25.905759 17.501372 50.996932 29.504577l4.528958 2.153801c1.708324.808356 3.512914 1.658333 5.578729 2.628154l12.691399 5.946663 14.481217 5.928452c46.403816 18.953628 69.2596 27.820594 91.362277 35.762251l1.674006.600245c3.067714 1.097743 6.132006 2.182091 9.254017 3.277616 12.138122 4.259312 24.502597 14.093786 35.18257 26.774541 5.038807 5.982776 9.390655 12.251512 12.604933 18.127166 22.935655 1.187156 46.503287 1.599743 70.533107 1.179126 224.839715-3.935583 406.701987-79.355764 412.360642-169.669829l.11891-2.805187-.001508.063897c.018344-.932246.018344-1.866009.007839-2.801226-.210105-12.070588-3.564919-23.788615-9.748051-35.032563l-30.200876-7.102607-.209436-.051647-67.210342-17.386821c-13.522546-3.553209-43.496679-12.275697-90.086954-26.211693-24.173852-6.688379-49.057798-12.256879-74.26134-16.461036-26.636691-4.443219-77.178096-7.91684-120.38102-7.230506zm-24.270498-24.523325-7.856504.418994c-24.690625 1.34521-43.532771 2.661582-62.065506 4.48132l-1.916303.190066-1.915458.193789-2.874584.297947-1.919308.203667c-30.026142 3.215659-56.783016 7.634258-81.130941 13.718271-122.145004 30.521358-204.3338616 78.35596-203.5644429 122.871444.5433085 30.901225 29.0653299 61.282102 81.3315339 85.72751.222665.101065.441707.212002.657819.33175.98726.544763 1.849359 1.235665 2.571983 2.032919l.145361.16397c.901558 1.037242 1.562953 2.233025 1.969205 3.503286l.126107.426814.035505.134203c.344599 1.335412.415496 2.746845.180443 4.145098l-.03265.183827c-.021036.112017-.044054.224097-.069071.336022-.21808.983822-.588898 1.946755-1.118239 2.854702-.157807.27221-.326891.534331-.506408.786255l-14.039357 20.075763.102078 1.633969c54.209318 20.992179 123.183285 35.751687 200.255456 41.718129-.928533-1.219487-1.905654-2.435961-2.919491-3.639731-8.577998-10.184995-18.274637-17.897522-26.507404-20.786431-2.012979-.706362-4.00243-1.408202-5.984166-2.111875l-2.54494-.906232-3.053221-1.09437c-15.397104-5.5393-31.228706-11.551122-54.916698-21.017913l-11.664788-4.684763c-11.381732-4.591282-24.449427-9.915792-39.803635-16.21486-.153447-.062952-.305303-.129711-.455428-.200216l-17.505722-8.212641-4.863425-2.308077c-26.992213-12.883087-43.259828-22.048263-55.905976-32.515853-17.59404-14.563105-25.616438-30.681011-21.594721-49.069444 7.254798-33.170999 39.080279-61.378453 90.149355-84.486346 43.947696-19.885589 101.556346-35.556422 164.302014-45.4736l1.902947-.298758c19.67954-3.068883 48.199061-6.116651 76.750137-7.744976l2.447107-.136062c9.379298-.507995 18.734832-.858435 27.754149-1.001719 44.373628-.704932 96.11788 2.851359 123.989401 7.500557 25.930691 4.325452 51.515065 10.051916 76.365463 16.928873l.19871.057208 21.413737 6.386061c33.067584 9.827669 55.38613 16.28286 66.870664 19.3428l68.312882 17.679632 6.374178 1.498801c-26.253629-26.497444-69.150182-49.340851-123.520886-66.54504-1.045191 3.686614-4.170882 6.599701-8.206935 7.178159l-36.556777 5.239416c-.093668.013425-.187218.025505-.280632.036255-1.341922.314182-2.770072.353999-4.209361.069559l-7.157326-1.404477c-38.057329-7.412309-66.725465-12.066544-95.966008-15.234934-37.487009-4.061945-73.644543-5.241521-111.579923-3.258718zm34.82471 29.000363c13.156067 0 28.041549 1.789007 44.689444 5.115904 11.851574 2.368406 24.241196 5.435017 37.90965 9.268995l3.759073 1.065001c3.765623 1.08168 9.775193 2.871962 16.080451 4.762684l23.743856 7.118894c.689483.202312 1.22482.356987 1.57813.455319l2.631121.736728c24.786279 6.983206 43.768688 13.575702 70.906704 24.651006 35.723185 14.579001 43.513675 49.067353 13.824097 72.804369-11.699039 9.35346-28.46095 19.612858-52.715697 32.522419l-3.055908 1.619815c-20.006791 10.565678-41.910046 21.424794-86.715197 43.204249-33.885701 16.47159-69.20717 24.436209-106.141965 25.3078-29.528801.696823-58.532504-3.023135-90.592401-10.420119-32.098592-7.405912-77.168913-24.264834-135.444253-50.595842l-.309572-.142685c-3.582548-1.676259-18.792524-9.473457-20.946636-10.722035-18.171939-10.532917-21.34919-28.550893-11.500944-46.59036 7.630638-13.977377 22.795088-27.451138 39.051698-35.25356l3.51207-1.6807c27.749586-13.238314 47.751483-21.748834 101.74377-43.318461 54.247173-21.671454 98.22872-29.909421 147.992509-29.909421zm0 20c-46.78202 0-87.887371 7.611616-139.020223 27.864588l-6.481643 2.588268c-52.078624 20.838395-70.783585 28.899521-99.092538 42.486512-12.66164 6.077003-24.649359 16.728207-30.151225 26.806218-4.955267 9.076782-4.003822 14.942967 3.67729 19.527769l.454151.263692.843952.456106c1.631181.867784 4.799952 2.507441 8.0747 4.183978l5.481892 2.788881c.511576.25829 1.001188.504767 1.461163.735492l2.473225 1.227476c.364566.177707.660043.319139.872346.417065l20.920974 9.293213 4.21515 1.830278c45.135203 19.517213 80.738914 32.272937 106.668495 38.25551 30.557365 7.050314 57.970557 10.566277 85.624219 9.913703 34.167342-.806284 66.672417-8.135836 97.87021-23.300853l10.369051-5.046837c80.752113-39.359129 109.290949-54.677758 128.372136-69.933294 8.720411-6.972027 11.865552-14.199181 10.402365-20.676684-1.531974-6.782019-8.179332-13.453096-19.294361-17.989254l-2.7554-1.120369c-24.53751-9.939208-42.172223-16.038577-64.773055-22.445596l-4.452442-1.252405c-5.979062-1.720084-32.504961-9.803912-41.580907-12.388841l-2.960267-.83684c-13.223597-3.709508-25.14635-6.660922-36.449099-8.919651-15.458183-3.089147-29.09535-4.728125-40.770159-4.728125zm-166.619443-65.010314-2.34463.3576-4.048.631-2.870646.459263-2.902354.472737-3.839.644-2.11.361-1.478.256-4.573.809-3.019638.548885-2.890699.535591-2.883355.544709-2.969032.571935-2.827085.555106-2.983498.597058-2.188693.444716-3.996.83-3.225.685-2.059.445-2.979241.653967-2.656708.593416-3.015169.685458-2.836922.6567-2.88996.680459-2.893.693-2.457604.600112-3.327396.824888-2.634.665-2.708.696-2.408.627-2.544154.673076-3.140846.843924-2.488.682-3.317771.923151-1.629229.459849-2.820345.80756-2.399898.697603-3.141757.927837-2.193.658-2.579.785-3.316 1.029-1.495.469-3.933 1.257-1.512.491-3.148 1.036-1.655.553-3.242866 1.099617-1.922134.661383-1.855.646-2.698098.95313-3.284902 1.18087-1.479601.540297-4.733653 1.760727-1.212746.458976-4.065 1.566-3.88 1.533-1.143.457-4.02 1.641-1.546.642-2.682 1.13-1.516.647-2.715 1.176-3.034 1.339-1.48.664-2.139.971-2.181 1.004-2.044.956-2.34 1.11-1.495.72-2.25 1.098-2.101 1.041-2.103 1.058-1.403.715-2.116 1.094-2.423 1.275-1.638.875-2.13 1.155-1.877 1.033-1.522.85-1.88 1.066-2.147 1.236-2.074 1.218-1.241.737-2.322 1.405-1.524.937-1.492.929-1.648 1.043-.559.357-2.06 1.334-1.231.809-1.639 1.094-1.619 1.098-1.619 1.117-1.624 1.139-1.521 1.085-1.8359997 1.334-1.334.987-1.57 1.181-1.578 1.209-1.218.948-1.414 1.121-.598.48-.769.622-1.5 1.233-.527.438-1.139.96-1.363 1.168-1.363 1.192-1.045.929-1.3 1.177-.379.347-1.287 1.197-1.203 1.14-1.068 1.032-.37.362-1.069 1.058-1.166 1.18-1.274 1.317-1.117 1.181-1.115 1.207-.899.992-1.214 1.371-.98 1.136-.991 1.175-.302.364-.765.932-.4123066.510022-.8006934 1.006978-1.174 1.516-.707.938-1.052 1.432-.619.864-.191.27-.74 1.062-1.07 1.588-.656 1.004-.753 1.182-.134.215-1.051 1.722-.565.96-.606 1.057-.2862597.510488-.4247403.769512-.677 1.267-.164.315-.555 1.082-.565 1.144-.156.322-.66 1.404-.321.706-.704 1.613-.209.497-.302.732-.546 1.384-.191893.501714c-.4955852 1.313441-.9539275 2.631253-1.3745773 3.953245l-.3475297 1.123041-.243.818-.504 1.831-.216.842-.465245 1.978642-.250755 1.189358-.3073735 1.597151-.1356265.778849-.057.35-.237 1.556-.131.979-.153 1.309-.0492145.467538-.0857855.914462-.0714703.880283c-.1577683 2.114589-.2189687 4.237454-.1818861 6.367867.7305213 41.968746 39.4778561 79.67533 102.9430241 108.011985.290413-.72285.659621-1.411706 1.109001-2.054373l9.417649-13.469299c-51.901012-26.618837-81.5973464-60.551454-82.2545408-98.30754-.5448699-31.302999 24.0400478-60.116551 68.2146658-85.826548 38.292556-22.286587 91.075914-41.949392 150.49283-56.796377 25.332218-6.329965 52.970678-10.894149 83.849699-14.201147 3.262165-.349363 6.50554-.68083 9.758905-.997182l3.910676-.372547 1.962388-.181166c18.671574-1.705539 38.228778-2.974256 64.001488-4.321341 39.035729-2.040316 76.258923-.825975 114.778367 3.34784 1.119776.121335 2.238548.244771 3.356846.370377l2.236123.254122 2.235805.260027c1.568405.184492 3.137273.37343 4.70807.566997l2.357827.293848 2.397642.305547c25.600906 3.298625 52.100838 7.868093 85.785702 14.502704l13.91864-1.998186c-61.272445-15.581886-133.956751-24.588405-212.164381-24.757934l-6.816801.007597c-4.553629.019997-9.12526.069934-13.713742.15025-3.397407.059468-6.785001.135258-10.162323.227174l-3.362204.096022-3.032.097-3.549.125-3.265.125-3.555.148-3.482834.157523-1.623166.077477 1.829-.086-3.238.155-3.577.184-3.233.177-3.393053.197481-2.667947.162519-4.004.258-3.441959.234772-3.001785.214123-1.637729.120636-1.919527.144469-3.108.242-3.649.298-2.794.236-3.213224.282447-3.239361.295038-3.22905.304886-4.174365.409629-2.28.232-3.216039.336441-3.096899.334013-3.291062.365546-3.213985.369277-3.091015.364723-3.121383.3795-3.152176.393653-2.985286.382848-3.355155.441999-4.259.579-2.656.371-2.155483.307879-3.17824.462737z"/></svg>