<svg height="960" viewBox="0 0 960 960" width="960" xmlns="http://www.w3.org/2000/svg"><path d="m589.683591 2c21.870476 0 39.641409 17.5522287 39.994641 39.3385269l.005359.6614731v876c0 21.870476-17.552229 39.64141-39.338527 40h-.661473-210.940063c-21.870476 0-39.64141-17.552229-39.994641-39.338527l-.005359-.661473v-876c0-21.8704761 17.552228-39.64140952 39.338527-40h.661473zm0 845.823-114.849577.001151c-.841021 4.562937-4.779574 8.040788-9.554109 8.172006l-.279905.003842h-44c-4.899849 0-8.976613-3.524042-9.834014-8.175848l-32.422458-.001151v70.177h210.940063zm-134.684063-32.824-24 .001.000608 20.423302c.046896.190338.088342.38282.124162.577273l23.875702-.000575zm-39.619-110.702h-36.637v123.526h32.256l.000472-32.386687c0-.080282.000967-.160558.0029-.24081l.008698-.240671zm174.303 0h-119.066l4.370874 90.657832.008698.240671.0029.24081-.000472 32.386687h114.684zm.000063-662.297h-210.940063v642.298h37.313l.002383-454.494862c.010034-5.222866.064717-10.275605.164959-15.159379l.039729-1.823498.082309-3.242421.082061-2.751655c.01454-.455447.029513-.909313.044919-1.3616l.097643-2.694778.108081-2.656923c.018885-.439669.038207-.877763.057967-1.314282l.123811-2.600237.13435-2.56251c.046543-.847887.09485-1.689495.144926-2.524832l.155543-2.487207c.026811-.411402.054066-.821238.081766-1.22951l.171543-2.430863.18226-2.393364c.062544-.791544.126881-1.576847.193017-2.355917l.203812-2.318519c2.615301-28.747965 7.770299-48.742847 15.815061-60.431125l.326614-.467734.383163-.531724.337161-.451177c3.975964-5.320483 11.938378-5.357903 15.964172-.075023 8.518826 11.178896 13.981756 31.114234 16.765026 60.274648l.203727 2.204336.193713 2.238973c.031453.376051.062491.753548.093113 1.13249l.178759 2.291013.168834 2.32576c.027314.390525.054216.782499.080707 1.175924l.154012 2.377965.144175 2.412822c.046423.810089.091212 1.625994.134373 2.447724l.124607 2.48267c.019956.416692.039507.834843.058652 1.254453l.110555 2.548062.122169 3.171311c.131256 3.654782.233868 7.413941.308281 11.278029l.034859 1.94079.049729 3.43851.034296 3.351477c.013865 1.68812.022813 3.394821.026878 5.120144l.002539 2.166356-.001254 452.725683h119.742063zm-146.366419 106.808889-.316172-1.310889-.234155.964656-.327102 1.407941-.256139 1.153085-.126215.585445-.248708 1.18868-.303885 1.519173-.29607 1.556156-.116232.632806-.228685 1.283331-.223633 1.306932-.218559 1.33051-.107372.674089-.210915 1.365831-.205794 1.389348-.200655 1.412841-.195497 1.436309-.190319 1.459754-.185122 1.483173-.179907 1.506569-.174672 1.52994-.169417 1.553287-.164145 1.576609-.158853 1.599908-.153541 1.623182-.148211 1.646432-.142861 1.669657-.137493 1.692859-.196132 2.582737-.183945 2.634803-.115828 1.785421-.110364 1.8085-.10488 1.831556-.146999 2.790509-.091089 1.889088-.126222 2.876695-.113671 2.928295-.068775 1.980825-.063149 2.003697-.084132 3.048381-.048999 2.060774-.043307 2.083563-.037594 2.106326-.031863 2.129067-.037006 3.236183-.024003 3.287211-.010936 3.338157-.002434 435.528551c2.083568.155055 4.198275.232583 6.344121.232583 2.486155 0 5.000177-.104068 7.542067-.312203l.000349-435.447804-.01093-3.33484-.023987-3.283988-.036977-3.233054-.0499-3.182036-.062758-3.130934-.048947-2.058859-.084037-3.04558-.063071-2.001879-.105129-2.959994-.077072-1.944745-.126036-2.874177-.090948-1.887456-.146758-2.788128-.159101-2.736388-.112891-1.795473-.118329-1.772415-.123744-1.749333-.129142-1.726226-.134518-1.703095-.139876-1.679938-.145213-1.656757-.15053-1.633552-.155828-1.610321-.161105-1.587066-.166364-1.563786-.171602-1.540482-.17682-1.517153-.182018-1.493798-.187197-1.47042-.192356-1.447017-.197495-1.423589-.202614-1.400136-.207714-1.376659-.212793-1.353156-.273103-1.658359-.280971-1.621549-.230415-1.270705-.235405-1.247091-.119568-.614684-.242854-1.211625-.247794-1.18795-.125743-.58509-.255168-1.152391zm79.004862 486.099586c7.106688 0 12.867797 5.761108 12.867797 12.867796s-5.761109 12.867797-12.867797 12.867797-12.867797-5.761109-12.867797-12.867797 5.761109-12.867796 12.867797-12.867796z" fill-rule="evenodd"/></svg>