<svg width="960" height="960" viewBox="0 0 960 960" fill="none" xmlns="http://www.w3.org/2000/svg">
<path d="M405.576 4.80518C409.081 3.54836 412.82 3.31192 416.382 4.04932C419.705 3.67784 423.104 3.61253 426.545 3.88135L601.215 17.5269C629.069 19.7029 650.562 42.9411 650.562 70.8804V174.813L663.02 180.882C677.579 187.976 686.818 202.753 686.818 218.949V396.509C686.818 413.019 680.505 428.904 669.173 440.911L650.96 460.207V636.325C650.96 636.862 650.939 637.4 650.896 637.936L630.173 894.222C628.09 919.983 607.912 940.513 582.317 943.143L581.095 943.254L426.641 955.599C422.395 955.938 418.208 955.769 414.146 955.14L413.929 955.163C410.534 955.502 407.108 954.967 403.978 953.609L353.288 931.614C320.396 917.341 299.114 884.906 299.113 849.051V463.587L281.484 450.874C276.272 447.114 273.184 441.079 273.184 434.653V204.151C273.184 194.391 280.229 186.056 289.853 184.43L299.113 182.866V107.971C299.113 70.9742 321.755 37.746 356.187 24.2104L405.01 5.01807L405.576 4.80518ZM422.28 43.7173C414.93 43.7586 408.859 49.7412 408.859 57.2339V902.253C408.859 909.861 415.116 915.907 422.614 915.766C422.836 915.762 423.059 915.752 423.285 915.737C423.341 915.733 423.396 915.731 423.452 915.726L428.418 915.329V613.276C428.418 612.89 428.441 612.503 428.485 612.12L447.002 453.045V68.6763C447.002 60.2957 449.57 52.5465 453.94 46.1431L423.43 43.7603C423.041 43.7299 422.658 43.7159 422.28 43.7173ZM486.213 48.6646C475.636 49.0697 467.002 57.8027 467.002 68.6763V453.624C467.002 454.01 466.98 454.396 466.936 454.78L448.418 613.853V913.73L577.906 903.381C578.174 903.36 578.44 903.327 578.703 903.291C578.969 903.253 579.233 903.208 579.494 903.156C579.886 903.077 580.272 902.982 580.65 902.871C581.156 902.722 581.648 902.546 582.127 902.342C586.641 900.418 589.887 896.118 590.301 890.998L610.958 635.521V477.348C610.736 476.52 610.615 475.649 610.615 474.75V188.775C610.58 188.292 610.562 187.806 610.562 187.317V70.8794C610.561 66.8763 608.813 63.2563 606.017 60.772C605.868 60.6398 605.716 60.5109 605.562 60.3853C604.461 59.4909 603.216 58.7643 601.862 58.2485C601.803 58.226 601.743 58.2067 601.684 58.1851C601.388 58.0773 601.089 57.9767 600.784 57.8892C600.692 57.8628 600.6 57.8374 600.508 57.813C600.208 57.7338 599.904 57.6648 599.596 57.606C599.458 57.5797 599.32 57.5558 599.182 57.5337C599.015 57.5071 598.847 57.4838 598.678 57.4634C598.486 57.4402 598.294 57.4209 598.1 57.4058L486.213 48.6646ZM339.113 849.051C339.114 868.97 350.937 886.989 369.21 894.918L388.883 903.455C388.869 903.056 388.859 902.656 388.859 902.253V492.599L339.113 463.402V849.051ZM362.008 209.711L360.58 210.425C353.565 213.851 346.124 216.331 338.452 217.799L313.184 222.633V423.474C315.291 425.674 317.704 427.612 320.383 429.219L388.859 469.41V195.886L362.008 209.711ZM630.615 423.484L640.082 413.455C644.407 408.872 646.816 402.81 646.816 396.509V218.949C646.816 218.052 646.305 217.234 645.499 216.841L630.615 209.589V423.484ZM370.821 61.437C351.692 68.9567 339.113 87.4173 339.113 107.971V197.157C343.486 196.014 347.738 194.439 351.804 192.454L352.884 191.914L388.859 173.391V57.2339C388.859 56.2428 388.903 55.2625 388.987 54.2944L370.821 61.437Z" fill="black"/>
</svg>
