<svg height="960" viewBox="0 0 960 960" width="960" xmlns="http://www.w3.org/2000/svg"><g fill="#000"><path d="m376 72c49.153343 0 89 39.846657 89 89v218c0 49.153343-39.846657 89-89 89h-218c-49.153343 0-89-39.846657-89-89v-218c0-49.153343 39.846657-89 89-89zm0 40h-218c-27.061953 0-49 21.938047-49 49v218c0 27.061953 21.938047 49 49 49h218c27.061953 0 49-21.938047 49-49v-218c0-27.061953-21.938047-49-49-49zm0 379c49.153343 0 89 39.846657 89 89v218c0 49.153343-39.846657 89-89 89h-218c-49.153343 0-89-39.846657-89-89v-218c0-49.153343 39.846657-89 89-89zm0 40h-218c-27.061953 0-49 21.938047-49 49v218c0 27.061953 21.938047 49 49 49h218c27.061953 0 49-21.938047 49-49v-218c0-27.061953-21.938047-49-49-49zm425-40c49.153343 0 89 39.846657 89 89v218c0 49.153343-39.846657 89-89 89h-218c-49.153343 0-89-39.846657-89-89v-218c0-49.153343 39.846657-89 89-89zm0 40h-218c-27.061953 0-49 21.938047-49 49v218c0 27.061953 21.938047 49 49 49h218c27.061953 0 49-21.938047 49-49v-218c0-27.061953-21.938047-49-49-49zm49-447c22.09139 0 40 17.90861 40 40v176.537065c0 22.09139-17.90861 40-40 40l-17.805-.000065.000531 19.243635c0 21.870476-17.552229 39.64141-39.338527 39.994642l-.661473.005358-3.704531-.000635.00062 15.22c0 21.870476-17.552229 39.64141-39.338527 39.994641l-.661473.005359h-112.100559c-22.09139 0-40-17.90861-40-40l-.000061-15.22-13.703849.000635c-21.870476 0-39.64141-17.552228-39.994641-39.338526l-.005359-.661474-.000151-19.243635-8.687.000065c-21.870476 0-39.64141-17.552229-39.994641-39.338527l-.005359-.661473v-176.537065c0-22.09139 17.90861-40 40-40zm0 40h-316v176.537065h39.860335c4.824135 0 8.744384 3.860363 8.825533 8.653182l.001283.151659v50.438729h44.877095c4.824135 0 8.744384 3.860364 8.825532 8.653183l.001283.151659v46.414523h112.100559v-46.414523c0-4.812126 3.869998-8.722615 8.674779-8.803562l.152037-.00128h34.877095v-50.438729c0-4.812125 3.869997-8.722615 8.674778-8.803561l.152037-.00128h48.977654zm-257.5 14c4.672891 0 8.5 3.734941 8.5 8.391627v60.216746c0 4.656686-3.827109 8.391627-8.5 8.391627s-8.5-3.734941-8.5-8.391627v-60.216746c0-4.656686 3.827109-8.391627 8.5-8.391627zm35 0c4.672891 0 8.5 3.734941 8.5 8.391627v60.216746c0 4.656686-3.827109 8.391627-8.5 8.391627s-8.5-3.734941-8.5-8.391627v-60.216746c0-4.656686 3.827109-8.391627 8.5-8.391627zm32 0c4.672891 0 8.5 3.734941 8.5 8.391627v60.216746c0 4.656686-3.827109 8.391627-8.5 8.391627s-8.5-3.734941-8.5-8.391627v-60.216746c0-4.656686 3.827109-8.391627 8.5-8.391627zm33 0c4.672891 0 8.5 3.734941 8.5 8.391627v60.216746c0 4.656686-3.827109 8.391627-8.5 8.391627s-8.5-3.734941-8.5-8.391627v-60.216746c0-4.656686 3.827109-8.391627 8.5-8.391627zm33 0c4.672891 0 8.5 3.734941 8.5 8.391627v60.216746c0 4.656686-3.827109 8.391627-8.5 8.391627s-8.5-3.734941-8.5-8.391627v-60.216746c0-4.656686 3.827109-8.391627 8.5-8.391627zm32 0c4.672891 0 8.5 3.734941 8.5 8.391627v60.216746c0 4.656686-3.827109 8.391627-8.5 8.391627s-8.5-3.734941-8.5-8.391627v-60.216746c0-4.656686 3.827109-8.391627 8.5-8.391627z"/><path d="m792.5 143c2.485281 0 4.5 1.966198 4.5 4.391627v60.216746c0 2.425429-2.014719 4.391627-4.5 4.391627s-4.5-1.966198-4.5-4.391627v-60.216746c0-2.425429 2.014719-4.391627 4.5-4.391627z"/><path d="m792.5 139c4.672891 0 8.5 3.734941 8.5 8.391627v60.216746c0 4.656686-3.827109 8.391627-8.5 8.391627s-8.5-3.734941-8.5-8.391627v-60.216746c0-4.656686 3.827109-8.391627 8.5-8.391627zm0 8c-.297672 0-.5.197455-.5.391627v60.216746c0 .194172.202328.391627.5.391627s.5-.197455.5-.391627v-60.216746c0-.194172-.202328-.391627-.5-.391627z"/></g></svg>