<svg height="960" viewBox="0 0 960 960" width="960" xmlns="http://www.w3.org/2000/svg"><path d="m173.659774 6.01736918 651.728571 8.53934612c69.189095.9065578 124.611655 58.852987 124.611655 129.0092477v672.868074c0 70.156261-55.42256 128.10269-124.611655 129.009248l-651.728571 8.539346c-19.068138.249842-37.610981-3.972167-54.463312-12.199727l-.673348-.333016-.112337-.049716c-.271786-.124616-.543152-.252574-.814062-.383896l-.811319-.404084-31.1822817-15.950304-.4656648-.184006c-45.3177006-18.36234-75.51640271-63.488811-76.12798413-114.514231l-.00946537-1.579963v-655.767376c0-42.704647 20.7258177-81.7375635 54.4035495-104.4945464l.3375648-.2268772.1448197-.1336128c2.5745282-2.3739303 5.482981-4.4292596 8.6772616-6.0880589l.4373508-.2237348 43.9999996-22.1708994c.269836-.135966.540148-.2685641.810897-.3978179l.678671-.3148762.706348-.348792c16.852331-8.22756007 35.395174-12.44956962 54.463312-12.19972722zm-1.509108 39.98301612-.154258.0006151c-46.365236.2290738-83.7097338 39.768248-83.7097338 89.0256166v689.946766c0 49.257369 37.3444978 88.796543 83.7097338 89.025617.37919.001045.758957-.0011 1.139306-.005888l651.728572-8.546394c47.019156-.616074 85.135714-40.468409 85.135714-89.012681v-672.868074c0-48.5442723-38.116558-88.3966071-85.135714-89.0126808l-651.728572-8.5463938-.462714-.0039984zm-92.9494914 40.2471182-.2261447.1928851c-18.2869765 15.4659144-29.9750299 39.2988164-29.9750299 66.1759234v655.767376c0 27.33525 12.0899149 51.521629 30.9159076 66.959492l.0979423.079531c-7.4984677-15.085599-11.7271757-32.246582-11.7271757-50.449328v-689.946766c0-17.53441 3.9238842-34.102151 10.9145004-48.7791135zm159.7565534 48.3642765.542587.000828 305.469295 3.128036c18.015521.184252 32.416167 15.360208 32.416167 33.730273v520.076092c0 18.381892-14.41923 33.532022-32.447621 33.659629l-305.468386 2.164007c-18.11055.125821-32.588342-15.042985-32.588342-33.594101v-525.639c0-18.376948 14.207567-33.40217 32.0763-33.525764zm488.774636 199.201726c.237748.000991.473524.01027.707056.027562.761412-.020946 1.526035-.029716 2.29339-.026591 41.54605.178013 75.066634 35.044384 75.066634 77.72361v231.249128c0 42.668155-33.503224 77.613777-75.037758 77.915046-.79209.005468-1.581272-.001745-2.367371-.021454-.209544.01453-.420929.022704-.633916.024233-41.598989.283656-75.176258-34.404769-75.176258-77.266155v-232.174865c0-42.851132 33.560799-77.618631 75.148223-77.450514zm-488.434936-179.200778h-.286667c-6.623098.102173-12.129333 5.962113-12.129333 13.524816v525.639c0 7.684129 5.685583 13.641082 12.447621 13.594089l305.467513-2.163494c6.844751-.048448 12.589215-6.084095 12.589215-13.66013v-520.076092c0-7.58786-5.763048-13.661183-12.620778-13.73132zm491.351817 199.20191-.906653.00489c-29.913407.384781-54.158451 25.81743-54.158451 57.444492v232.174865c0 31.93546 24.719878 57.472167 55.035987 57.262873 30.384114-.220354 55.179316-26.083052 55.179316-57.914543v-231.249128c0-31.820554-24.777972-57.593313-55.150199-57.723449zm-4.50844-217.570934 1.260144.002284c.956503.00971 1.880276.153399 2.753674.41306l.639438.00141c41.519938.424641 75.005383 35.456043 75.005383 78.113021 0 42.718855-33.582807 77.304456-75.168453 77.05298l-.450701-.006604c-.930962.279669-1.918777.427248-2.941521.421078-42.02178-.255161-75.939325-35.473953-75.939325-78.532462 0-42.258135 32.668153-76.495593 73.586216-77.446095zm-50.556664 77.468019c0 31.9856 24.798569 57.92907 55.168453 58.114724 30.33028.183422 55.04685-25.271194 55.04685-57.052968 0-31.843653-24.813932-57.803195-55.20992-58.114067-30.304437-.309935-55.005383 25.12859-55.005383 57.052311zm139.915859-91.711723c6.351275 0 11.5 5.596441 11.5 12.5s-5.148725 12.5-11.5 12.5-11.5-5.596441-11.5-12.5 5.148725-12.5 11.5-12.5z"/></svg>