<svg width="960" height="960" viewBox="0 0 960 960" fill="none" xmlns="http://www.w3.org/2000/svg">
<path d="M480 24C628.565 24 749 144.435 749 293C749 338.829 737.523 382.037 717.271 419.847C706.232 440.456 692.806 460.168 680.142 478.795C649.087 524.47 623.583 563.176 624.99 607.87C626.455 654.369 621.374 686.492 601.811 706.379V730.642C601.811 734.685 600.584 738.62 598.315 741.936L601.359 745.896C606.495 752.581 606.888 761.767 602.343 768.866L599.757 772.903L600.775 774.108C606.726 781.149 607.093 791.346 601.664 798.797L599.56 801.685L601.852 804.938C607.009 812.26 606.669 822.118 601.021 829.068L597.298 833.647L600.864 844.822C603.448 852.921 600.63 861.769 593.838 866.882L552.602 897.918L531.221 928.275C528.436 932.229 524.313 935.04 519.615 936.188C512.866 937.836 496.361 940.75 478.5 940.75C460.771 940.75 444.392 937.831 437.683 936.177C432.972 935.015 428.844 932.182 426.068 928.203L404.892 897.853L364.056 866.827C356.112 860.792 353.851 849.849 358.678 841.18L356.921 838.997C351.347 832.073 351.011 822.301 356.098 815.011L358.419 811.683L356.283 808.725C350.928 801.305 351.291 791.196 357.165 784.18L358.224 782.914L355.611 778.795C351.131 771.731 351.519 762.625 356.586 755.969L359.652 751.938C357.382 748.622 356.155 744.686 356.155 740.642V714.609C345.229 707.288 336.673 696.866 331.065 682.071C324.116 663.736 322.014 639.501 323.01 607.87C323.213 601.421 323.001 594.534 322.431 587.337C319.209 546.717 297.544 511.073 272.199 470.222C260.319 451.073 247.715 430.792 237.459 409.472C220.495 374.206 211 334.684 211 293C211 144.435 331.435 24 480 24ZM445.745 886.5L454.258 898.701C460.393 899.702 469.255 900.75 478.5 900.75C487.909 900.75 496.926 899.687 503.141 898.679L511.718 886.5H445.745ZM557.897 843.866C533.912 848.849 505.153 851.373 477.679 852.517C454.096 853.498 431.025 853.473 411.993 853.012L429.745 866.5H527.828L557.897 843.866ZM556.894 810.073C533.112 814.919 504.771 817.389 477.679 818.517C449.61 819.685 422.265 819.428 401.595 818.705C401.025 820.176 400.277 821.597 399.346 822.932L397.485 825.597L398.522 826.885C399.953 828.661 401.038 830.63 401.776 832.699C422.045 833.42 449.103 833.688 476.847 832.533C505.022 831.36 533.274 828.742 555.742 823.882C556.476 821.338 557.718 818.929 559.438 816.813L560.43 815.592L558.606 813.004C557.946 812.066 557.375 811.085 556.894 810.073ZM555.049 776.443C531.655 781.046 504.074 783.418 477.679 784.517C450.215 785.66 423.445 785.44 402.941 784.753C402.894 789.268 401.323 793.75 398.278 797.386L397.822 797.929L398.284 798.568C418.876 799.385 447.477 799.756 476.847 798.533C506.505 797.299 536.248 794.462 559.24 789.096L560.087 787.935L559.683 787.456C556.982 784.261 555.426 780.405 555.049 776.443ZM552.924 743.352C529.994 747.686 503.279 749.951 477.679 751.017C451.138 752.121 425.245 751.953 405.029 751.32C405.094 755.682 403.737 760.065 400.946 763.731L400.25 764.645C420.676 765.407 448.401 765.717 476.847 764.533C506.048 763.318 535.332 760.549 558.173 755.342L556.99 753.803C554.599 750.69 553.245 747.055 552.924 743.352ZM561.811 706.258C550.721 708.712 536.979 710.185 523.858 711.101C522.112 711.222 520.363 711.331 518.617 711.436C518.274 711.474 517.925 711.496 517.572 711.498C500.916 712.459 484.647 712.647 474 712.5C462.015 712.666 442.908 712.41 424.142 711.101C414.729 710.444 404.998 709.499 396.155 708.112V730.981C416.879 731.857 446.451 732.298 476.847 731.033C507.622 729.752 538.49 726.747 561.811 720.979V706.258ZM455.495 588.202C451.967 591.919 450 596.848 450 601.973V692.304C459.242 692.555 467.597 692.59 473.858 692.501L474 692.499L474.143 692.501C482.493 692.619 494.566 692.519 507.5 691.975V604.897C507.5 599.803 505.556 594.9 502.064 591.19L477.468 565.057L455.495 588.202ZM480 64C353.527 64 251 166.527 251 293C251 328.553 259.088 362.16 273.506 392.133C282.675 411.194 294.106 429.657 306.189 449.134C330.505 488.326 358.185 532.222 362.306 584.174V584.175C362.971 592.566 363.248 600.952 362.99 609.13C362.035 639.446 364.406 657.175 368.469 667.895C371.936 677.041 376.608 681.197 383.999 684.348C385.004 684.776 385.96 685.284 386.863 685.856C396.12 688.325 410.149 690.076 425.534 691.149C427.021 691.253 428.511 691.347 430 691.438V601.973C430 591.724 433.935 581.866 440.991 574.433L467.5 546.51V520H385C382.239 520 380 517.761 380 515C380 512.239 382.239 510 385 510H388.392L467.5 307.859V282.645L410.368 138.07C409.834 138.267 409.319 138.461 408.827 138.654C406.257 139.663 403.355 138.398 402.346 135.827C401.337 133.257 402.603 130.355 405.173 129.346C405.661 129.154 406.168 128.962 406.692 128.768L404.35 122.838C403.335 120.27 404.594 117.365 407.162 116.35C409.73 115.335 412.635 116.594 413.65 119.162L416.233 125.7C428.854 122.156 446.651 118.884 467.5 118.153V113.5C467.5 107.977 471.977 103.5 477.5 103.5C483.023 103.5 487.5 107.977 487.5 113.5V118.265C503.561 119.009 520.842 121.398 538.572 126.259L541.344 119.178C542.35 116.606 545.251 115.337 547.822 116.344C550.394 117.35 551.663 120.251 550.656 122.822L548.188 129.129C548.307 129.168 548.427 129.206 548.547 129.245C551.172 130.099 552.609 132.92 551.755 135.546C550.901 138.172 548.08 139.609 545.454 138.755C545.148 138.655 544.841 138.558 544.535 138.46L487.5 284.195V306.043L568.099 510H571C573.761 510 576 512.239 576 515C576 517.761 573.761 520 571 520H487.5V546.533L516.628 577.482C523.611 584.902 527.5 594.708 527.5 604.897V690.766C544.076 689.418 558.55 687.249 566.35 684.19C566.509 684.128 566.666 684.062 566.824 683.999C567.819 682.873 568.946 681.851 570.195 680.96C578.107 675.316 586.674 661.959 585.01 609.13C583.121 549.159 617.694 499.501 647.063 456.305C659.951 437.349 672.139 419.387 682.01 400.96C699.227 368.816 709 332.079 709 293C709 166.527 606.473 64 480 64ZM399.131 510H467.5V335.3L399.131 510ZM487.5 510H557.345L487.5 333.255V510ZM487.5 256.758L534.906 135.626C518.453 131.203 502.421 128.998 487.5 128.277V256.758ZM467.5 128.16C448.165 128.866 431.666 131.84 419.929 135.05L467.5 255.431V128.16Z" fill="black"/>
</svg>
