<svg height="960" viewBox="0 0 960 960" width="960" xmlns="http://www.w3.org/2000/svg"><path d="m662.947739 350.162986c5.522848 0 10 4.477153 10 10l-.000498 138h25.061l.000289-40.637547c0-5.42924 4.326671-9.847932 9.720096-9.996158l.279904-.003842h52.695822c5.522848 0 10 4.477152 10 10l-.000111 40.637547h27.104l.000696-15.518346c0-5.42924 4.326671-9.847931 9.720095-9.996158l.279905-.003842h54.024288c5.522848 0 10 4.477153 10 10l-.000984 15.518346h57.718692c5.429239 0 9.847931 4.326671 10 9.720096v.279904c0 5.522848-4.477153 10-10 10h-67.717708c-5.522847 0-10-4.477152-10-10l-.000984-15.519h-34.024l.000696 15.519c0 5.42924-4.32667 9.847932-9.720095 9.996159l-.279905.003841h-47.104585c-5.522847 0-10-4.477152-10-10l-.000111-40.638h-32.696l.000289 40.638c0 5.42924-4.32667 9.847932-9.720095 9.996159l-.279905.003841h-45.060791c-5.522847 0-10-4.477152-10-10l-.000498-138h-34.18l.000493 138c0 5.42924-4.326671 9.847932-9.720095 9.996159l-.279905.003841h-47.357627c-5.522847 0-10-4.477152-10-10l-.000866-3.207h-28.034l.000842 3.207c0 5.42924-4.326671 9.847932-9.720096 9.996159l-.279904.003841h-48.588769c-5.522848 0-10-4.477152-10-10l-.000073-23.256h-32.249l.000939 23.256c0 5.42924-4.326671 9.847932-9.720095 9.996159l-.279905.003841h-50.068086c-5.522848 0-10-4.477152-10-10l-.000853-91.022h-31.406l.000568 91.022c0 5.42924-4.326671 9.847932-9.720096 9.996159l-.279904.003841h-47.654464c-5.522847 0-10-4.477152-10-10l-.000104-104.239h-32.779l.000558 104.239c0 5.42924-4.326671 9.847932-9.720095 9.996159l-.279905.003841h-45.046193c-5.522847 0-10-4.477152-10-10l-.000365-40.638h-30.967l.000479 40.638c0 5.42924-4.326671 9.847932-9.720095 9.996159l-.279905.003841h-84.3544792c-5.5228475 0-10-4.477152-10-10 0-5.522847 4.4771525-10 10-10h74.3540002l.000479-40.637547c0-5.42924 4.326671-9.847932 9.720095-9.996158l.279905-.003842h50.966886c5.522848 0 10 4.477152 10 10l-.000365 40.637547h25.046l.000558-104.238469c0-5.42924 4.326671-9.847932 9.720095-9.996159l.279905-.003841h52.778546c5.522848 0 10 4.477152 10 10l-.000104 104.238469h27.654l.000568-91.021935c0-5.42924 4.32667-9.847932 9.720095-9.996158l.279905-.003842h51.406285c5.522847 0 10 4.477153 10 10l-.000853 91.021935h30.068l.000939-23.255566c0-5.42924 4.326671-9.847931 9.720095-9.996158l.279905-.003842h52.248134c5.522847 0 10 4.477153 10 10l-.000073 23.255566h28.588l.000842-3.20692c0-5.42924 4.32667-9.847932 9.720095-9.996158l.279905-.003842h48.034024c5.522848 0 10 4.477153 10 10l-.000866 3.20692h27.358l.000493-138c0-5.42924 4.326671-9.847931 9.720095-9.996158l.279905-.003842z"/></svg>