<svg width="960" height="960" viewBox="0 0 960 960" fill="none" xmlns="http://www.w3.org/2000/svg">
<path d="M170.252 15.2432C174.317 11.688 179.649 9.92811 185.032 10.3643L907.362 68.8984C917.747 69.7401 925.747 78.4138 925.747 88.833V871.019C925.747 881.436 917.749 890.11 907.366 890.953L185.08 949.632L184.662 949.665C179.416 950.091 174.213 948.432 170.182 945.048L169.864 944.781L109.037 893.716C104.51 889.916 101.896 884.308 101.896 878.398V731.75L44.8239 701.239C38.3166 697.76 34.2537 690.98 34.2536 683.602V358.647C34.2538 350.032 39.7713 342.385 47.9469 339.668L59.0329 335.983L65.8425 258.626L65.9069 258.008C66.6672 251.638 70.4424 246.004 76.0759 242.884L101.896 228.583V84.0928C101.896 78.3233 104.388 72.8349 108.731 69.0371L170.252 15.2432ZM202.724 908.064L885.747 852.577V107.277L202.724 51.9287V908.064ZM141.896 93.1719V210.693H141.906V740.275H141.896V869.074L182.724 903.351V57.4707L141.896 93.1719ZM544.053 195.291C549.576 195.291 554.053 199.768 554.053 205.291V470.438H786.058C791.581 470.439 796.058 474.916 796.058 480.438C796.058 485.961 791.581 490.438 786.058 490.438H554.053V752.367C554.053 757.89 549.576 762.367 544.053 762.367C538.531 762.367 534.053 757.89 534.053 752.367V490.438H309.113C303.59 490.438 299.113 485.961 299.113 480.438C299.113 474.916 303.59 470.439 309.113 470.438H534.053V205.291C534.053 199.768 538.531 195.291 544.053 195.291ZM104.756 272.725L97.7272 352.575C97.0281 360.518 91.6776 367.287 84.111 369.802L74.2536 373.076V384.422L77.363 383.729C82.7531 382.526 88.0977 385.92 89.3005 391.311C90.5032 396.701 87.1086 402.045 81.7184 403.248L74.2536 404.913V431.191L78.6784 430.721C84.1698 430.136 89.0959 434.113 89.6813 439.604C90.2665 445.096 86.289 450.022 80.7975 450.607L74.2536 451.305V470.371H79.738C85.2604 470.371 89.7376 474.849 89.738 480.371C89.738 485.894 85.2606 490.371 79.738 490.371H74.2536V509.012L81.1305 509.979C86.5991 510.749 90.4091 515.806 89.6403 521.274C88.8711 526.743 83.8142 530.553 78.3454 529.784L74.2536 529.208V554.775L81.9469 556.52C87.333 557.74 90.7107 563.095 89.4909 568.481C88.2706 573.868 82.9143 577.245 77.528 576.024L74.2536 575.282V671.614L121.906 697.09V263.226L104.756 272.725ZM686.931 624.864C692.375 624.864 696.788 630.513 696.788 637.48C696.788 644.448 692.375 650.096 686.931 650.097C681.488 650.097 677.075 644.448 677.075 637.48C677.075 630.513 681.488 624.864 686.931 624.864ZM721.453 624.429C726.896 624.429 731.309 630.077 731.309 637.045C731.309 644.013 726.896 649.661 721.453 649.661C716.01 649.661 711.597 644.012 711.597 637.045C711.597 630.077 716.009 624.429 721.453 624.429ZM367.586 610.45C373.029 610.45 377.442 616.099 377.442 623.066C377.442 630.034 373.029 635.683 367.586 635.683C362.142 635.683 357.729 630.034 357.729 623.066C357.729 616.099 362.142 610.45 367.586 610.45ZM395.841 609.414C401.285 609.414 405.698 615.063 405.698 622.03C405.698 628.998 401.285 634.646 395.841 634.646C390.398 634.646 385.985 628.998 385.985 622.03C385.985 615.063 390.398 609.414 395.841 609.414ZM423.749 608.85C429.192 608.85 433.605 614.498 433.605 621.466C433.605 628.433 429.192 634.082 423.749 634.082C418.305 634.082 413.892 628.433 413.892 621.466C413.892 614.498 418.305 608.85 423.749 608.85ZM686.931 583.617C692.375 583.617 696.788 589.266 696.788 596.233C696.788 603.201 692.375 608.849 686.931 608.85C681.488 608.85 677.075 603.201 677.075 596.233C677.075 589.266 681.488 583.617 686.931 583.617ZM721.453 583.617C726.896 583.617 731.309 589.266 731.309 596.233C731.309 603.201 726.896 608.85 721.453 608.85C716.01 608.849 711.597 603.201 711.597 596.233C711.597 589.266 716.009 583.617 721.453 583.617ZM693.546 330.451C698.989 330.451 703.402 336.099 703.402 343.066C703.402 350.034 698.989 355.683 693.546 355.683C688.102 355.683 683.689 350.034 683.689 343.066C683.689 336.099 688.102 330.451 693.546 330.451ZM721.453 330.451C726.896 330.451 731.309 336.099 731.309 343.066C731.309 350.034 726.896 355.683 721.453 355.683C716.009 355.682 711.597 350.034 711.597 343.066C711.597 336.099 716.01 330.451 721.453 330.451ZM395.667 320.072C401.11 320.072 405.523 325.72 405.523 332.688C405.523 339.655 401.11 345.304 395.667 345.304C390.223 345.303 385.811 339.655 385.811 332.688C385.811 325.72 390.223 320.073 395.667 320.072Z" fill="black"/>
</svg>
