<svg height="960" viewBox="0 0 960 960" width="960" xmlns="http://www.w3.org/2000/svg"><path d="m459.345015 3.48102249 2.943866.49740392c2.932828.57257692 5.852787 1.36879052 8.942074 2.37168041 2.938696.95400271 6.100791 2.12516847 9.568402 3.53288344 6.672832 2.45855804 12.579159 5.04703514 17.815505 7.86855544 6.88279 3.7086803 12.810458 7.9009752 17.869238 13.1012862 13.210315 13.5799034 20.440014 32.9579625 20.440014 52.3569545 0 3.0931065-.022077 5.5041983-.087319 10.8495422-.118531 9.7113674-.118531 13.8793534.060297 18.7420524.540467 14.696369-2.663751 28.546124-10.206524 40.607427-7.716903 12.339749-19.08853 21.356911-32.861109 26.956778-.480603.195411-.964962.381453-1.452803.558021l-3.117652 1.128395.665343 26.976614c.096605 3.916894-.3725 7.71359-1.363982 11.300755l-.000733 113.276297c.935612.069877 1.842146.148889 2.730841.236027 5.516947.540946 10.256084 1.367715 15.124938 2.982048 2.018346.669209 4.019513 1.468802 6.045254 2.462458 2.840551 1.393333 5.606262 3.103027 8.310613 5.293711 3.907525 3.165325 7.377028 7.087138 10.11752 11.942488 3.443484 6.100846 5.323163 13.050241 5.323163 20.246305 0 .259755.176507 22.534525.257995 34.805852.130752 19.690064.218562 38.453213.24866 56.106676.007342 4.306011.011098 8.503201.011098 12.584871 0 9.395509.452011 16.709125 1.25983 22.577219.582434 4.23087 1.293071 7.448867 2.403714 11.303333.332881 1.155259 2.002412 6.636253 2.481815 8.302714 1.322083 4.595709 2.28925 8.698625 3.018393 13.247937.862027 5.378404 1.29096 10.913466 1.29096 16.889776 0 10.442943-.57949 39.006724-1.748144 89.703908-.046361 2.01116-.094054 4.075058-.143526 6.211332l-.000581.024727c-.030161 1.290941-1.061109 45.524412-1.292147 55.70442-.21922 9.65927-.377131 16.969506-.471491 21.836332 1.606527.223267 3.175221.492858 4.714047.807934 2.521206.516221 4.98064 1.160532 7.429627 1.988468 3.375811 1.141271 6.652114 2.597244 9.900858 4.558315 1.116202.673783 2.209864 1.394874 3.27384 2.175346 9.568415 1.631143 17.893061 3.428085 25.073416 5.428532 10.869336 3.028197 20.588773 6.924738 29.171566 11.863247 14.06788 8.09461 22.665235 23.123179 22.531112 39.309099.493385.830693.950232 1.686681 1.388631 2.554473 1.037267 2.053223 1.969885 4.169879 2.788344 6.346726 7.558783 6.815401 12.592826 15.665278 14.965448 25.446627 1.311774 5.407904 5.51383 23.785903 12.757759 55.781794 2.604604 11.50434.235081 23.407758-6.265229 32.93824-6.487158 9.511199-16.674201 16.051994-28.29911 17.844804l-2.182847.33662c-.518779.314732-1.042353.617769-1.570233.90991-2.958321 1.637205-5.934498 2.865483-8.972653 3.81585-4.157868 1.300624-8.317845 2.05116-12.759418 2.480392-2.343778.226501-4.702978.245603-7.050115.057083-3.126982-.251157-5.946661-.589185-8.637498-1.078131-.165521-.030077-.330707-.060744-.494164-.09559l-84.4352 13.021514c-10.738787 1.656151-21.58922 2.34499-32.421321 2.056533-2.192605.884885-4.491904 1.578196-6.87729 2.06511-2.821436.575922-5.461687 1.018326-8.001337 1.318923-3.48414.412387-6.827072.574854-10.33517.371335-4.20657-.244039-8.2695-1.006595-12.163463-2.229365-7.874307-1.232544-14.9641-4.801735-20.547214-9.987003l-52.803934-9.83401c-3.532457.885269-7.173458 1.358597-10.84476 1.444134-.155435.003622-.310889.006337-.466356.008146l-.283135.003294c-.155108.001805-.310226.002707-.465346.002707-10.088922 0-20.008498-2.927657-28.386763-8.562695-.279118-.187729-.556375-.378363-.825495-.58134l-14.559336-2.71145c-23.379194-4.354108-39.334463-26.147778-36.422241-49.74998l5.473331-44.358811c2.378356-19.275469 16.799147-34.673821 35.512206-38.533675 1.062879-2.546621 2.300942-4.991367 3.676941-7.338189 4.125839-7.036786 9.486737-13.213831 16.174177-18.038035 3.166117-2.283982 6.562733-4.210087 10.143095-5.725317 1.21342-1.609652 2.600336-3.100198 4.107097-4.487712 5.245029-4.82993 10.681294-9.02771 16.335637-12.521759-.113366-.992209-.170139-1.999107-.188903-3.014258-1.854809-100.345465-2.779367-159.591968-2.779367-178.405887 0-8.161393.517803-15.99927 1.493249-23.840198.76088-6.116178 1.71828-11.735656 3.06961-18.552036.338324-1.706579 1.427754-7.063454 1.419327-7.021629.463808-2.302126.772157-3.910728 1.015919-5.318046.243525-1.405949.406165-2.525222.502545-3.422777.07085-.659791.097858-1.117481.097858-1.391909v-124.514383c0-10.356372 3.947881-19.83675 10.473595-26.950885l.00051-130.38894c-1.216665-3.743087-1.892484-7.731147-1.940307-11.872165-.093254-8.074738-.82287-26.36486-2.180318-54.292036-1.173939-24.151772-2.166969-48.017824-2.979046-71.5982323l-.001048-.0260534c-.00614-.160367-.035458-.9455624-.049433-1.3681697-.117754-3.5606712-.120902-7.0839624.072398-11.0682712.282422-5.8212679.954644-11.5905051 2.17015-17.3390154.885254-4.1866458 2.042621-8.267915 3.5368-12.2486681 1.826797-4.8669042 4.126394-9.5047601 7.013323-13.8736692 3.526146-5.3362639 7.835189-10.1230039 12.996518-14.1587404 5.835202-4.56264912 12.51226-7.95562941 19.796971-9.97225944 3.605535-.9981219 8.230606-1.6353478 13.026477-1.91505536 6.196876-.36141775 12.86753-.13699537 19.902146.86440999zm167.394077 836.06891951.253664-.218722c-3.495159 3.108166-9.515124 5.294001-15.093664 6.028803-4.047277.533105-32.573007 3.792288-59.094068 6.743715-33.713693 3.751867-57.804314 6.31157-64.190191 6.759156-7.431254.520857-13.062872.401351-18.21459-.396975-4.476929-.693759-8.100042-1.744226-13.960314-3.849636-2.137624-.767981-4.796241-.833553-7.568816-.187435-2.491511.58062-4.751231 1.680819-5.9282 2.70249-6.813225 5.914235-16.789426 8.544588-25.392012 7.05163-2.490288-.432183-16.935082-3.373579-33.336567-6.756265-.584497-.074498-1.169448-.174974-1.754452-.302485l-5.249575-1.144264c-20.134429-4.165186-41.065315-8.547929-45.439973-9.559044-2.065806-.47747-3.778139-1.012156-5.276622-1.712362l-.286738-.138936-4.502769 36.502143c-.32358 2.622467 1.449228 5.043986 4.046916 5.527776l137.918119 25.685675c8.485088 1.580251 17.081336 2.380806 25.681904 2.400003 7.155499-.011679 14.312203-.564343 21.408795-1.658789l94.445182-14.565245.051853.075437 16.737047-2.577669c.006844-.029954.013622-.060113.020336-.090477l14.848073-2.289751c1.14654-.176821 1.904276-1.286358 1.648112-2.417817-5.99935-26.498679-9.923167-43.702331-11.77145-51.610956zm-18.65422-31.509488c-.314308.059917-.634919.10292-.960506.130616l-124.792664 10.615654c-7.282557.619501-14.613694.339568-21.827804-.833475l-54.164247-8.808549c1.361387 5.156301 2.061825 10.6578 2.061825 16.264962 0 5.563698-.689232 11.022827-2.031647 16.148841 7.671922 1.565271 13.228498 2.680838 14.600904 2.919015 2.777223.481981 6.665438-.543197 8.861623-2.4496 3.739977-3.246495 8.953018-5.784591 14.499599-7.077161 6.327557-1.474568 12.867233-1.313273 18.870171.843393 4.759082 1.709788 7.317468 2.451553 10.260825 2.907665 3.518027.545164 7.704472.634003 13.753512.210025 5.967106-.418234 30.149143-2.98765 63.376494-6.685394 21.846774-2.431244 45.214341-5.090066 54.678019-6.20805.743151-4.171342 4.013475-7.318698 8.013925-8.055292-1.181208-4.2756-3.079734-7.605511-5.200029-9.92265zm-235.632946-9.833397c-8.808693 0-15.94955 12.179021-15.94955 27.202605 0 .818949.021219 1.629445.062769 2.429977.02192.422321.049504.841945.082618 1.258572.012203.153528.02516.30669.038862.459434.045729.509735.099737 1.014688.161794 1.514573l24.540064 5.34865c1.793562.371074 3.580164.740304 5.347173 1.105078l-.016462.057078c1.076438-3.662663 1.682282-7.797343 1.682282-12.173362 0-15.023584-7.140856-27.202605-15.94955-27.202605zm154.024677-33.213933c-2.301696.010715-7.110957.244637-14.427732.701751-1.714111 1.230965-3.574208 2.242518-5.550173 3.027379-2.473581.982515-5.675401 1.776317-9.965369 2.622624-3.953783.779986-8.603486 1.534508-13.49338 2.171524-12.272238 1.598727-24.768393 2.329571-36.101946 1.818242-8.392262-.378628-15.898293-1.687135-22.48528-3.803892-8.045933.224484-14.633553 1.161012-19.762802 2.80864-5.241302 1.683622-10.512079 4.608374-15.81233 8.774255.502075.322911.996719.659939 1.483482 1.011081 1.149131.828964 2.244491 1.728562 3.286047 2.692898l70.066698 11.394893c5.592962.909438 11.276653 1.126465 16.92268.646178l123.537802-10.510682c-.304036-.30248-.649653-.568299-1.031585-.788061-5.482651-3.154698-12.135169-5.821706-19.957554-8.001022-9.094661-2.533772-21.26252-4.823937-36.503576-6.870493v-.011288-2.455746c0-4.065806-10.107887-5.200186-20.204982-5.228281zm-59.303243-391.990735.017371-.000183c-.532349 0-1.059548.002038-1.581442.005997-.049071.000372-.097461.000756-.145805.001156l-.733076.007363c-.367242.004335-.731752.009609-1.093475.015781-.426575.007278-.848856.015794-1.267179.025486-.579004.013413-1.150905.029093-1.714968.046844-.68266.021481-1.35452.046023-2.01445.073276-.717982.029646-1.423266.062575-2.11382.0983-.528903.027363-1.048752.056342-1.559725.086768-.152009.009051-.303259.018232-.453717.027536-.78309.04843-1.543744.100121-2.282073.154431-.298577.021962-.593619.044362-.884945.067143-.298501.023344-.59246.047035-.882471.071076-3.450903.28607-6.342532.621528-8.566011.922272.584599 1.268776.910096 2.681893.910096 4.171034v115.424628c1.104928 10.43373-.210483 19.251124-3.808257 27.136575-1.585805 3.475701-3.576755 6.702809-6.033514 9.930333-1.882217 2.472729-3.842273 4.724244-6.733372 7.837401-.50274.541353-2.643486 2.829726-3.19899 3.428527-2.545283 2.743668-4.256662 4.710449-5.823604 6.750611-1.85094 2.409927-3.3491 4.756391-4.581041 7.232328-.83321 1.674573-1.55311 3.428042-2.155846 5.284175-.009305.643461-.013569 1.293019-.013569 1.948504 0 18.448049.924178 77.670264 2.772535 177.666644 1.757292.308533 2.890076 1.070407 3.398351 2.285624.024851.059416.05747.126266.098098.200039.066868.121408.155343.261442.266551.417911.075211.105843.161248.219738.25812.340509.070094.08738.145638.178101.226948.272132.066531.076938.136906.156075.21121.237279.240192.262515.521808.546988.846934.848137.126213.116907.259039.236375.398565.358067.301887.263297.635077.536952 1.001016.818052.158568.121801.323013.244802.493699.368957.146484.106554.297972.214241.454155.322629.063052.043756.126586.087434.190883.131216.128487.087486.259666.175153.393913.263153.400176.262338.828552.528186 1.28529.794912.124938.072955.25106.145446.379293.217959.874.494216 1.845644.989295 2.921516 1.472193 4.901844 2.200034 11.965729 4.146891 21.78286 4.589804 6.74758.304427 13.746779.086385 20.33532-.407676l-.012502-.041118c15.024924-1.164725 27.80449-3.739672 30.401778-4.771324 3.763267-1.494783 4.858519-5.823449 4.858519-17.240207s3.761897-155.996452 3.761897-180.30756c0-24.311107-10.454712-24.555912-10.454712-72.320979 0-47.765066-.517753-100.204953-.517753-103.497399 0-3.255499-13.370049-3.755505-29.038601-3.766316zm-44.366386 6.395223-4.748989.291161v124.514383c0 .231438-.001867.463453-.005543.696075l.005543-.696075c0 .265366-.002454.53149-.007276.798419-.00835.461979-.023756.925689-.045774 1.39205-.002663.05639-.005417.112727-.008267.169103-.022971.454406-.052153.911389-.087125 1.371138-.004486.058975-.009043.11768-.013693.17643-.012973.163926-.026712.328659-.041164.493759-.032036.366015-.067602.734121-.106464 1.104145-.100928.961065-.224168 1.935595-.366007 2.92505-.018605.129793-.037618.260439-.056945.391348-.063789.432023-.130864.866055-.201053 1.303111-.008336.051904-.016748.104056-.025205.156251-.119041.734775-.246839 1.478593-.381901 2.231757-.021221.11834-.042681.237236-.064316.356367-.110014.605802-.224598 1.217938-.342976 1.836551-.09924.518609-.20124 1.04224-.30548 1.570663 2.238323-2.738139 3.669822-4.967318 4.799479-7.443252 2.128876-4.665981 2.898511-10.064751 2.068864-17.305057-.043306-.377929-.065012-.758021-.065012-1.138423zm25.753-149.383h-20.028l-.000838 127.186636c1.634246-.687099 3.345941-1.20354 5.115859-1.537588 2.766082-.522059 6.879348-1.110907 11.653357-1.590421 1.071279-.107602 2.157466-.208009 3.257936-.300797zm-4.137334-187.5470257-.277973.0061372c-.332435.0081614-.653942.0190122-.964093.0320616-.557648.0234737-1.077641.053982-1.558562.0887331-.150947.0109088-.297648.0222029-.440444.0338256-.448622.0365152-.858702.076274-1.227873.1165786-.311102.0339637-.593294.0683344-.844985.1014763-.117731.0155037-.228507.0306982-.3325.0454608-.062252.0088361-.122587.0175937-.180417.0261579-.127453.0188749-.242739.0368099-.345517.0534179-.047012.007598-.090887.0148306-.132176.0217563-.185395.031101-.31847.0559758-.396713.0714558-.017806.0035232-.032699.0065444-.044748.0090466-.024227.0050976-.033468.0071998-.036694.0080929-18.070433 5.0024463-16.381559 35.7627473-16.231225 40.1279995.805545 23.3907556 1.790737 47.0684166 2.955576 71.0329846.356685 7.338176.67071 14.020688.942077 20.047538.174307 3.871221.331025 7.472201.470139 10.80262.157413 3.768477.292286 7.190511.404621 10.266136.09645 2.640726.176282 5.025972.239501 7.155871.089322 3.009335.14548 5.509032.16847 7.498939l1.38987-.000263.553164.000969-.000164.000031h20.028l.551-.001h.824l-.92914-37.733289c.232913-8.265714 1.226485-13.760038 2.980716-16.482972s5.857132-5.139402 12.308703-7.249405l14.468141-5.236559c12.630263-5.135406 18.683836-14.8154 18.16072-29.039979-.37953-10.320166 0-20.7077478 0-31.0616216 0-9.3834664-3.484895-18.6812511-9.111757-24.4655375-3.751241-3.8561908-10.895534-7.7057776-21.432878-11.5487602-5.775268-2.3620146-9.999197-3.7332485-12.671786-4.1137018-3.147391-.4480433-5.979597-.6106879-8.376943-.624265-.311474.0006571-.613876.0042931-.90811.0100644zm7.789913 15.6602476c1.235295.2522794 2.417291.6271795 3.74098 1.1394203 1.089882.4217622 4.963753 2.1126703 5.748554 2.4318149.083199.0338334.165658.0671488.247486.0999857l.036577.0146695c.230481.0924068 1.145611.4589783 1.426411.5718417.573743.2306076 1.041079.4201475 1.490392.6050764 2.546212 1.0479723 4.436257 1.922143 6.256904 2.9561332 2.47614 1.4062602 4.596129 3.0050835 6.421469 4.967981 4.23544 4.5546225 6.271382 10.4405761 6.271382 17.7202964v19.936211c0 6.624898-1.289888 12.311377-3.914779 16.889415-2.764567 4.821642-6.92604 8.216831-11.897134 9.739524-3.143963.963026-8.713112 2.691546-16.695978 5.182061-3.674346 1.146332-7.680485.08208-10.301493-2.736645-2.108958-2.268049-3.548504-5.046744-4.417691-8.210503-.724078-2.635575-1.056694-5.55223-1.056694-8.782156v-42.6276841c0-4.4184812.309205-7.6887735 1.137912-10.4392954.62124-2.0619274 1.55585-3.9094723 2.970196-5.5221075 1.766811-2.0145156 4.078029-3.380471 6.672675-3.9518001 2.007245-.4419863 3.930181-.3789364 5.862831.015761zm3.356386 22.6604502v37.3321159c2.797374-.868252 4.992641-1.546403 6.586223-2.034571.038995-.031803.084504-.076845.141422-.144828.089848-.107313.187598-.248124.290982-.428433.745249-1.299778 1.265142-3.591732 1.265142-6.941304v-19.936211c0-1.4569058-.155021-2.4953751-.399883-3.2032763-.139445-.4031385-.289626-.6523313-.517507-.897386-.729892-.7848956-2.273633-1.6616241-5.644454-3.0489899-.390857-.1608691-.810288-.3309801-1.337064-.5427099-.081325-.0326871-.221525-.0889241-.384861-.1544068z"/></svg>