<?xml version="1.0" encoding="UTF-8"?>
<svg width="960px" height="960px" viewBox="0 0 960 960" version="1.1" xmlns="http://www.w3.org/2000/svg" xmlns:xlink="http://www.w3.org/1999/xlink">
    <!-- Generator: Sketch 60.1 (88133) - https://sketch.com -->
    <title>com.ubnt.unifiprotect/driver/icon</title>
    <desc>Created with Sketch.</desc>
    <g id="com.ubnt.unifiprotect/driver/icon" stroke="none" stroke-width="1" fill="none" fill-rule="evenodd">
        <path d="M797.739202,319 C815.444248,319 827.519804,322.875126 833.965871,330.625378 L948.224494,459.000396 C954.888921,468.435843 958.854068,479.913793 959,492.310364 L959,493 L959,597 C959,629.258952 933.110463,655.471079 900.975673,655.992096 L900,656 L60,656 C27.7410478,656 1.52892096,630.110463 1,597.975673 L1,597 L1,493 C1,480.339602 4.98766319,468.610573 11.7755063,459.000396 L126.034129,330.625378 C132.480196,322.875126 144.555752,319 162.260798,319 L797.739202,319 Z M900,464 L60,464 C44.1439048,464 31.2599781,476.725366 31,492.520432 L31,493 L31,597 C31,612.856095 43.7253658,625.740022 59.520432,625.996115 L60,626 L900,626 C915.856095,626 928.740022,613.274634 929,597.479568 L929,597 L929,493 C929,477.143905 916.274634,464.259978 900.479568,464.003885 L900,464 Z" id="Shape" fill="#000000" fill-rule="nonzero"></path>
        <rect id="Rectangle" fill="#000000" x="664" y="489" width="242" height="90" rx="6"></rect>
    </g>
</svg>