<svg height="960" viewBox="0 0 960 960" width="960" xmlns="http://www.w3.org/2000/svg"><path d="m306.549488 202.428436c19.867028-3.070486 38.132701-4.445919 49.966307-3.256676 12.164663 1.222513 28.760839 3.848806 49.683682 8.194129 27.823659 5.778506 60.817307 14.088733 99.273058 25.314646 7.107767 2.074882 14.285819 4.328033 21.537729 6.766301 32.87201 1.071472 60.623835 8.025887 83.09178 21.623043 15.306719 9.263323 28.443161 20.091001 39.21283 32.521036 14.998886 8.046158 30.283024 16.756304 45.84538 26.108763 36.870152 16.820643 64.625487 31.161462 83.769816 43.402306 21.706066 13.878813 44.204418 30.362835 67.334089 48.856808 8.939409 7.147753 17.679345 14.362005 26.42805 21.768354 6.317295 5.348001 11.340605 9.679726 18.715496 16.096612 12.663613 11.018598 23.667311 23.026537 33.048074 35.756698 8.237389 11.178546 15.079691 22.720028 20.545755 34.290474 4.705763 9.961057 8.290816 19.745167 10.669752 28.733229 1.112419 4.202925 1.95668 8.223111 2.500895 11.946996.72003 4.926931.987792 9.464793.496134 14.32579-.579156 5.726093-2.626953 21.555313-6.274248 48.615688-.352756 2.617205-.963832 5.193042-1.824283 7.689804-6.978902 20.25062-15.305215 37.942156-25.125825 53.066437-10.529823 16.216507-22.818466 29.538184-36.952349 39.69347-21.41643 15.387844-45.891872 27.550118-79.666616 40.14881-14.842915 5.536721-31.842465 11.304987-53.172527 18.105291-17.159505 5.470677-34.874816 10.926601-67.480168 20.840096-9.158144 2.784488-38.268605 11.734315-43.50517 13.328802-15.398447 4.688688-26.559909 7.959973-36.903186 10.764452-25.83905 7.006008-46.051055 10.848968-66.342476 12.151079-24.934643 1.600068-49.515617-.778864-78.742664-7.468142-41.389694-9.472979-105.247534-37.378025-193.960429-84.113217-14.553646-7.667064-25.600394-20.641775-30.840665-36.238326-.396697-1.180685-.786525-2.347588-1.126945-3.416468l-53.837786 19.946622c-5.612883 2.079544-11.388776 2.81915-16.973989 2.34577-13.531893 1.405991-27.327995-.65847-40.770363-5.744097-15.27926-5.780574-29.9243867-15.38378-43.5397877-28.05929-25.3758787-23.624144-46.9603-57.764976-61.1427672-96.730985-14.52634649-39.910808-19.84742257-80.928714-15.0158273-115.873789 2.61158941-18.888624 8.1677057-35.93424 16.8752028-50.228774 10.3112739-16.92735 24.8664973-29.648522 42.933234-36.224276 1.8243234-.663999 3.6699926-1.259154 5.5353335-1.782475l54.4015899-19.25938c1.582566-.699853 3.190185-1.344473 4.819465-1.937482 2.863981-1.042404 5.778701-1.919445 8.735992-2.62772 1.444063-.385424 2.893898-.65953 4.34227-.841471 6.353963-1.245853 12.779137-1.644405 19.212327-1.266527-1.644958-14.506383-3.283233-29.345503-4.537862-41.079141-1.786021-16.703356-2.247104-21.323876-2.247104-24.563117 0-3.937164.494323-7.185467 1.279461-10.402659.431061-1.76632.935306-3.41437 1.513024-5.060788.780767-2.225078 1.70577-4.466127 2.782641-6.834333 1.702528-3.744122 3.866699-7.963251 6.204444-12.141616 2.405482-4.299434 4.932952-8.447447 7.352613-12.004986 1.538849-2.262514 3.064672-4.336761 4.654694-6.270335 1.092083-1.328045 2.220581-2.598135 3.446066-3.843643 1.863001-1.893439 3.866056-3.659064 6.273577-5.367219 2.660657-1.887757 5.140703-3.272773 8.059727-4.705023 1.792189-.879356 3.767452-1.773639 6.021739-2.740671 3.568253-1.530691 7.935765-3.286478 13.630856-5.500109 4.626344-1.798219 27.951547-10.682877 34.444438-13.202033 14.728278-5.714378 34.499697-10.394979 55.345516-13.616738zm557.932678 452.172104c-1.93248.309654-4.496418 1.061975-7.680012 2.339043-8.087936 3.244397-33.29405 12.625021-75.361659 28.118062l-.671627.247345c-7.558611 2.783574-15.274355 5.622199-25.389656 9.341626-2.70886.996056-12.020127 4.419509-11.950156 4.393777-4.57203 1.681034-7.863503 2.891438-10.940262 4.023256-16.250515 5.977922-24.784871 9.130274-28.242963 10.439143-7.466377 2.825982-13.040843 5.740482-17.525712 9.24751-4.778157 3.73637-8.483708 8.291261-11.43914 14.259785-2.357579 4.761156-4.322366 8.219506-6.59006 11.38142-2.791877 3.8928-5.933323 7.116472-9.722659 9.850464-7.627194 5.502996-17.709853 8.905482-32.740828 11.263998-10.018324 1.571978-18.870573 2.816251-29.043262 3.984149-13.756953 1.579397-27.684723 2.724072-41.875581 3.331838-16.949578.725916-33.707552.656781-50.168716-.335352-18.760825-1.130736-36.820676-3.443315-54.026481-7.075385-43.64545-9.213364-102.982155-35.850327-178.362921-79.910439.079067.2465.159919.495592.241166.745488.146111.449418.293475.901352.442113 1.355883.35269 1.078509.71254 2.171599 1.079565 3.279308.15981.48232.321369.968579.484295 1.457623.261959.786308.527766 1.580748.797113 2.382404l-.008956-.024849.008956.024849c1.915884 5.702221 5.902914 10.469077 11.160399 13.369182l.406914.219387c85.795796 45.198424 147.209439 72.035387 184.240929 80.510891 20.678478 4.732743 38.11878 6.939273 54.919063 6.939101 41.131725-.000421 78.427135-13.227933 150.014413-34.993688 3.799353-1.155174 7.52653-2.289103 11.183569-3.403169l3.281939-27.528255c.654213-5.483963 5.630188-9.399249 11.114151-8.745036 5.483963.654212 9.399249 5.630187 8.745036 11.11415l-2.236806 18.767358c2.872578-.882668 5.697618-1.753021 8.476362-2.6119l3.458054-29.012468c.654213-5.483963 5.630188-9.399249 11.114151-8.745036s9.399249 5.630187 8.745036 11.11415l-2.39714 20.110439c2.924192-.92455 5.791546-1.836867 8.60395-2.738232l3.4908-29.275771c.654213-5.483963 5.630188-9.399249 11.114151-8.745037 5.483963.654213 9.399249 5.630188 8.745036 11.114151l-2.390802 20.040802c2.901017-.974823 5.736682-1.939706 8.509812-2.89656l3.5786-30.001252c.654213-5.483963 5.630188-9.399249 11.114151-8.745036 5.483963.654212 9.399249 5.630187 8.745036 11.11415l-2.391499 20.058799c2.845265-1.073853 5.616846-2.143826 8.319115-3.212882l3.769994-31.609817c.654213-5.483963 5.630188-9.399249 11.114151-8.745036s9.399249 5.630187 8.745036 11.11415l-2.407704 20.190796c2.89049-1.338818 5.694502-2.688876 8.420197-4.055709l3.685117-30.898987c.654213-5.483963 5.630188-9.399249 11.114151-8.745036s9.399249 5.630187 8.745036 11.11415l-1.942524 16.295835c2.89501-1.860933 5.706156-3.771491 8.448787-5.742089 7.162326-5.146178 13.810627-11.630067 19.944902-19.451668-.81561-.047205-1.627648-.144346-2.434936-.291243-3.88443-.706827-7.360819-2.498692-10.325115-5.04842-3.742655-3.219231-6.723041-7.755082-7.854069-12.06611zm-581.985108-58.499215-.036711.820505c-.227195 4.608913-.640473 9.111365-1.24149 13.486402-2.049772 14.921075-6.253111 28.079702-12.509465 38.746668-1.651974 2.816586-3.442792 5.451928-5.367742 7.894121.322639 1.358063.673601 2.772561 1.051676 4.242288 82.556717 49.63518 146.321979 79.151293 190.850943 88.551163 16.193068 3.418286 33.281712 5.606501 51.098843 6.680359 15.742636.948827 31.818786 1.015149 48.109702.317442 13.689543-.586295 27.146469-1.692274 40.450197-3.219637 9.862264-1.132259 18.456278-2.340234 28.224148-3.872914 12.201319-1.914513 19.49907-4.377207 24.139026-7.724919 3.768781-2.719163 6.329343-6.289433 10.091754-13.88766 4.282859-8.649277 9.901997-15.556364 17.042267-21.139832 6.265507-4.899431 13.559556-8.712982 22.765884-12.197526 3.545763-1.342051 12.077488-4.493432 28.417863-10.50441 3.078829-1.132579 6.372165-2.343669 10.947002-4.025734.027266-.010019 9.25217-3.40172 11.946018-4.392256 10.112469-3.718385 17.825417-6.555982 25.380362-9.338205l.671234-.2472c41.73808-15.37168 67.013327-24.778032 74.827528-27.912623 10.736871-4.306991 19.007239-5.177477 25.430676-2.160511 3.478864 1.633956 6.060271 4.288908 7.590439 7.526024.919915 1.946106 1.401499 3.951251 1.540953 5.928425.015356.028538.031475.05783.048307.087758.357786.636169.877353 1.285267 1.411822 1.744989.232791.200234.447825.347522.63062.441741.112739.058111.187282.084089.232923.092394.020795.003784.041629.00408.103559-.005585.184535-.0288.4491-.116077.816177-.302624 2.353731-1.196151 5.389881-3.671083 8.923881-7.450474 3.881032-4.15052 8.20727-9.703372 12.936192-16.637211.170727-.25033.350815-.490467.539475-.720262 1.093505-2.847018 2.157174-5.771408 3.191402-8.772418 1.089362-8.082301 2.036281-15.166902 2.840758-21.253802-3.379715 3.004881-7.487048 5.037652-12.287683 6.388334-3.753082 1.055948-7.697299 1.659138-12.803792 2.111678-1.393287.123474-2.200103.18527-4.994402.390442-4.555445.334483-6.640504.540724-8.610937.897225-1.703148.308142-5.175801 1.428063-10.471714 3.419809-4.537111 1.706367-8.901658 3.440422-20.30388 8.032425-13.06498 5.261644-19.520917 7.837758-28.306958 11.25894-12.011208 4.677025-23.628725 9.039364-35.507825 13.295947-5.157189 1.847951-28.840085 10.303756-34.736341 12.422117-11.660669 4.189353-20.074232 7.271983-27.352551 10.040576-16.699512 6.352311-27.297954 11.044041-34.420019 15.309751-.837453.501587-4.456804 2.719015-4.830251 2.946156-2.376534 1.445475-4.453373 2.675101-6.668359 3.933482-5.954624 3.382949-12.038313 6.462643-18.744881 9.376862-17.195375 7.471941-36.656378 13.032851-59.24297 16.178418-27.502274 3.830159-58.418037 3.864885-93.160821-.549921-27.111382-3.445075-54.136596-11.108958-80.95148-22.479858-23.458222-9.9475-46.39122-22.573352-68.719374-37.413955-18.661563-12.403571-36.370848-25.993904-53.171642-40.428143-6.286982-5.4014-12.169767-10.673411-17.810343-15.924761zm64.528436-357.363051-.640047.001439c-19.21612.107976-58.591109 6.014056-80.712849 14.597-15.411652 5.979518-30.591449 11.609488-40.943715 15.763726 110.751206 45.230464 203.191406 100.367623 277.282793 165.448867 75.911543 66.680054 135.210176 136.20206 177.851716 208.587334 2.803221 4.758549 1.218114 10.888576-3.540436 13.691797-4.75855 2.80322-10.888577 1.218113-13.691797-3.540437-41.508484-70.461875-99.433228-138.373128-173.818414-203.712443-74.246681-65.217653-167.6774-120.390413-280.334813-165.475512-.882833-.353306-1.687572-.818318-2.404465-1.372267-2.192812 3.466319-4.50158 7.542804-6.39677 11.234671 1.440986.652098 2.747544 1.657388 3.781283 2.997178l115.937431 150.26236c2.643456-2.861678 5.369378-5.766644 8.177804-8.715124 3.809109-3.999067 10.138885-4.153058 14.137952-.343949s4.153058 10.138886.343949 14.137952c-30.146709 31.650105-50.110461 57.725132-59.838138 77.908761-2.111619 4.381326-3.712015 8.428689-4.819143 12.130127 1.871939 8.462149 3.249429 16.846102 4.125911 25.05597 9.913449 9.86518 20.148011 19.434964 31.816942 29.460213 16.206296 13.923481 33.270357 27.018661 51.209194 38.941866 21.343897 14.186408 43.201426 26.220156 65.456557 35.657484 25.19661 10.684667 50.463767 17.849996 75.664608 21.052296 33.020412 4.195942 62.163077 4.163208 87.880956.581556 20.762172-2.891485 38.473505-7.952433 54.031028-14.712675 6.018217-2.615109 11.47284-5.376356 16.836145-8.423364 2.021821-1.148639 3.935015-2.281378 6.154643-3.631418.296862-.180559 4.007421-2.453866 4.946784-3.016491 8.386685-5.023146 19.864088-10.103975 37.585885-16.845153 7.417324-2.821469 15.933629-5.941741 27.701-10.16943 5.918978-2.126524 29.61282-10.586237 34.752133-12.427783 11.697657-4.191567 23.147181-8.490826 34.997283-13.105118 8.693428-3.38512 15.095825-5.939869 28.092534-11.174018 11.565414-4.657726 15.994464-6.417408 20.734943-8.20026 6.394499-2.404914 10.691157-3.790574 13.951389-4.380433 2.906969-.525944 5.432778-.775781 10.707078-1.163046 2.682347-.196951 3.440387-.255012 4.693466-.36606 3.976876-.352433 6.829703-.788717 9.152501-1.442247 2.223817-.625682 3.703905-1.387421 4.578785-2.23337 2.499136-2.416492 5.700702-7.860781 8.314508-14.290603 2.45809-6.04677 3.992642-12.024124 3.992642-14.784159 0-.352143.018202-.700035.053716-1.042786-6.258475-18.410027-20.683062-46.453054-49.677082-71.680725-18.566562-16.154749-62.489041-54.245998-107.769065-83.19795-17.603943-11.255924-44.552569-25.136588-80.845878-41.641991-.765208-.461069-1.529682-.920552-2.293422-1.378449-2.462487-1.476371-4.917384-2.936271-7.364651-4.379676-1.402438-.827159-2.801712-1.648518-4.198483-2.464465-.243275-.142113-.487074-.284412-.730797-.426546-1.346609-.785314-2.690608-1.565429-4.032278-2.34051-1.664298-.961462-3.32526-1.915319-4.982638-2.861427l-1.982566-1.129015c-3.687271-2.09472-7.356739-4.150951-11.008403-6.168693-1.634857-.903346-3.265756-1.798765-4.893089-2.686474-2.419331-1.319741-4.830445-2.622261-7.233677-3.907743l-2.088342-1.113814-.557342-.296162c-37.036015-19.664901-72.191176-35.263708-105.465483-46.796423l-2.201401-.758001c-.909441-.311077-1.817471-.619101-2.724088-.924072-1.348469-.453539-2.693842-.90041-4.036078-1.340521-.971136-.318466-1.940697-.633373-2.908621-.944744l-1.98527-.634409c-.890466-.282654-1.779541-.562302-2.667226-.838944-1.349768-.420644-2.696916-.834524-4.040842-1.241444-.892056-.270103-1.783234-.5373-2.672992-.801428l-2.205098-.649156c-6.630486-1.935556-13.00904-3.757033-19.141393-5.471085l-.084374-.024196c.003835.036667.007526.073365.011074.110093.043058.445745.064963.895946.064963 1.349859l.000964.973094c1.459781.209993 2.905795.437322 4.337062.682153l4.180899.823351c10.274537 2.260623 24.151121 6.880056 40.964536 13.491115 17.093989 6.721382 36.843774 15.368213 56.879742 24.835317 18.891176 8.926185 37.183806 18.184355 51.750416 26.180223 15.279772 8.387336 25.567806 14.844679 29.979666 19.122401 3.150801-.949659 6.422432-.265869 8.883382 1.57862 14.324178 5.474522 26.046682 10.723301 35.208406 15.785309 9.595812 5.30185 23.652931 14.323884 42.29884 27.127951 2.716154 1.865172 4.339214 4.948614 4.339214 8.243513l-.000168 1.142859c34.751293 25.873996 75.226543 80.90057 122.130205 165.406008 2.680219 4.8289.938369 10.916243-3.890531 13.596462-4.828899 2.680219-10.916243.938369-13.596461-3.890531-19.946139-35.93658-38.641698-66.31509-56.027692-91.10821 1.126928 2.859596 1.924549 5.704773 2.366325 8.563908.901279 5.832997-.529435 12.057826-4.307942 17.519417-4.066189 5.877418-10.595726 10.572958-19.404863 13.809766-27.069586 9.946383-86.584792 31.851483-90.529115 33.288831-4.535956 1.652946-9.249158 2.819236-14.308176 3.356721-6.317924.671235-12.797679.304516-19.396378-1.2901-15.829674-3.825338-31.172312-14.395604-45.61377-32.741775-13.759342-17.479621-56.79455-57.465784-105.10315-97.738307-52.480425-43.750369-100.156012-78.784385-125.780481-91.519877-14.922654-7.416636-25.444054-13.16374-32.801562-17.970807-3.974498-2.596759-7.127732-4.984688-9.573152-7.286535-2.887046-2.717544-4.938838-5.445292-6.109035-8.447268-1.47549-3.785163-1.40134-7.757526.266611-11.392854 1.323326-2.884212 3.462275-5.241363 6.317231-7.380252 2.125224-1.592186 4.691191-3.092771 7.907739-4.694852 2.547815-1.269001 5.433791-2.572623 9.492082-4.316761 10.184656-4.377074 22.988734-8.221514 36.921097-11.111686l.000338-4.637204c0-2.57217.703391-5.02519 1.97337-7.223231 1.036769-1.794409 2.409939-3.358011 4.051344-4.732432 2.585677-2.165101 5.875049-3.889507 9.748388-5.261315.599399-.212287 1.213759-.416242 1.842102-.611723-30.439271-6.791709-49.025886-9.341224-57.995348-10.242629-1.535003-.154264-3.382881-.230458-5.490565-.23301zm-261.8018125 204.853219-.2058279.051484c-.3998093.10292-.7971124.21445-1.1919306.334622-.0517634.015991-.1034627.031874-.1551115.047903-.1784038.05521-.3563236.112406-.5337368.171376l-.1258729.042223-.6315141.221432c-6.8272123 2.484902-12.6636794 7.585937-17.3329084 15.251107-4.8741465 8.001571-8.320873 18.575788-10.0477042 31.065295-3.6565413 26.44636.6099879 59.335214 12.471627 91.924799.0369673.101567.073993.203089.111077.304565l-.111077-.304565c.3661543 1.006001.738036 2.007568 1.1155249 3.004543.2196499.580139.4413345 1.159058.6648976 1.736394.0631049.16292.1264314.32594.1899073.488833.2190164.562103.4398229 1.122668.6623873 1.681692.3402356.854477.684373 1.704927 1.032532 2.551663.2232986.543228.4484387 1.085233.675217 1.625686.4487458 1.069233.9039729 2.132719 1.3654488 3.189891.2427986.556495.4872685 1.110845.7334464 1.663423 2.0950456 4.70214 4.3133709 9.275387 6.640788 13.700953.2245682.427542.4503381.853532.677115 1.278131.4414792.826071.8867474 1.647349 1.335726 2.463217.0124669.02316.0251262.046154.0377885.069144.1101071.19941.2203397.398825.3307933.597913.0678408.122777.1359238.245218.2040905.367535.2660354.476887.5336773.952967.8025736 1.427124.228287.403016.4579996.805083.6886112 1.205746.2868967.498018.5751521.994255.8647711 1.488282.7529964 1.28484 1.5158905 2.555443 2.2876428 3.810596.2890455.469831.5791673.937511.8705043 1.40299.0452077.072448.0905323.144761.1358863.217022.286232.455849.5735406.909646.8619949 1.361296.0638289.100083.1278533.200131.191934.300074.4518267.70459.9066462 1.404357 1.3641807 2.098752 2.9507267 4.478067 6.0149764 8.733533 9.1720914 12.738938.292078.371361.585775.740832.880249 1.10812 4.64094 5.787352 9.476238 11.035473 14.441667 15.658132l-.33729-.31493c.323007.302843.646563.603028.970651.90053.263988.24241.52779.482548.791537.720548l-.118366-.107149c.504322.456138 1.008894.904793 1.513617 1.345914.120529.10624.241444.211548.362343.316404 8.514081 7.378226 17.063147 12.610867 25.161332 15.460037 7.316113 2.565558 14.219205 3.164555 20.398006 1.739404 1.126564-.260744 2.23038-.587913 3.311078-.981255l2.513419-1.054368c5.754672-2.745857 10.733914-7.489715 14.819489-14.196739 4.874147-8.001571 8.320873-18.575788 10.047705-31.065295 3.656541-26.44636-.609988-59.335213-12.471627-91.924799-11.86164-32.589586-29.733836-60.526381-49.534302-78.435089-9.35093-8.457532-18.788251-14.342339-27.665374-17.338857-7.3442894-2.479101-14.1261653-2.933524-20.2370075-1.410687zm108.0365985-9.580232c-15.30903-11.754518-30.291043-16.456413-42.628147-13.570966-.013768.00322-.027535.00641-.041301.007619-.046276.012491-.092804.024025-.139416.035224-1.123099.269842-2.22814.60235-3.31534.998058-.917739.33403-1.816207.710707-2.695726 1.129854-.314432.149847-.636479.283164-.964824.399406l-21.129216 7.477725c.613122.311148 1.225997.631217 1.838545.960133.84471-.503558 1.778501-.891119 2.784986-1.134341l30.290213-7.319771c5.368324-1.297281 10.771865 2.002952 12.069145 7.371276 1.297281 5.368325-2.002952 10.771865-7.371277 12.069146l-16.604797 4.010509c.39682.350769.793073.705094 1.188733 1.062953 7.971155 7.209581 15.597908 15.753764 22.698457 25.375227l29.085827-8.094458c5.320581-1.480966 10.834324 1.631658 12.315289 6.95224 1.480966 5.320581-1.631658 10.834324-6.95224 12.315289l-22.813853 6.348283c5.745196 9.609295 10.988684 19.959029 15.601325 30.866421l26.389834-8.856894c5.235791-1.757369 10.904866 1.062448 12.662236 6.298238 1.757369 5.23579-1.062448 10.904866-6.298238 12.662235l-25.655473 8.611582c4.219442 12.515572 7.414594 25.059617 9.560369 37.330729l18.27753-6.811978c5.175066-1.928868 10.933943.702697 12.86281 5.877764 1.928867 5.175066-.702697 10.933943-5.877764 12.86281l-22.644259 8.43986c.986697 12.213935.84728 23.959568-.445588 34.908475l10.384862-2.78588c5.334146-1.431336 10.818654 1.732517 12.24999 7.066664 1.431336 5.334146-1.732517 10.818654-7.066664 12.24999l-20.065758 5.384218c-1.232065 4.018939-2.66506 7.831517-4.296367 11.41636l25.921274-9.603088c.52103-.355163 1.083308-.665018 1.683094-.922683 4.175316-1.793695 7.984115-4.541263 11.377727-8.218858.549698-1.048974 1.196423-2.054653 1.936552-3.003842 5.711472-7.324756 9.984875-17.552555 12.431109-29.990388l-11.36691 3.065781c-5.332317 1.438136-10.820854-1.718722-12.25899-7.05104-1.438136-5.332317 1.718722-10.820854 7.051039-12.25899l18.861011-5.086667c.166854-5.800045.008471-11.803331-.472808-17.955277-4.099597-6.075974-6.169329-13.235664-6.169329-21.214552 0-.961557.029798-1.934223.089215-2.918118l-14.654984 4.239355c-5.305328 1.534714-10.850277-1.521973-12.38499-6.8273-1.534714-5.305328 1.521973-10.850276 6.8273-12.38499l17.837274-5.161967-.189205-.635272-4.27615-12.832374c-2.194985-6.022039-4.600882-11.879642-7.191104-17.539127l-17.403598 4.410267c-5.353693 1.3564-10.793297-1.884045-12.149698-7.237738-1.3564-5.353692 1.884046-10.793297 7.237738-12.149697l12.937665-3.277969c-6.070527-10.570869-12.7863-20.156435-19.920368-28.46921l-19.912721 5.214009c-5.342822 1.398608-10.80783-1.798808-12.206438-7.14163-1.398608-5.342821 1.798808-10.807829 7.141629-12.206438l8.436307-2.209173c-.810582-.700382-1.559017-1.460741-2.240412-2.272266zm-74.831776 57.738977c5.814826 1.999514 11.515397 5.684742 16.907845 10.756534 10.268018 9.657443 19.248474 24.190441 25.254943 40.989182 5.989847 16.752252 8.361798 33.913985 6.767425 48.317895-.827956 7.47993-2.715886 14.133779-5.689862 19.612199-3.407603 6.277213-8.225277 10.972715-14.297443 13.475798l-2.340906.83447c-5.518407 1.668357-11.410877 1.395256-17.257622-.615233-5.814826-1.999514-11.515397-5.684742-16.907845-10.756534-10.268018-9.657443-19.248474-24.190441-25.2549433-40.989182-5.989847-16.752253-8.3617979-33.913986-6.7674247-48.317895.8279557-7.47993 2.7158856-14.133779 5.6898618-19.612199 3.4076035-6.277214 8.2252771-10.972715 14.2974429-13.475798 6.1748163-2.545399 12.9165343-2.516939 19.5985283-.219237zm-11.976295 18.709817c-1.5341.632391-3.008422 2.069325-4.342576 4.526998-1.639522 3.020194-2.8281107 7.209275-3.3883709 12.270786-1.2433007 11.232245.7108472 25.371055 5.7212139 39.383921 4.993744 13.966378 12.306627 25.800757 20.12491 33.154135 3.455536 3.250057 6.798905 5.411432 9.709034 6.412123 2.285524.785911 4.04131.793323 5.472759.203248l.286923-.128055c1.430919-.68794 2.804883-2.094875 4.055653-4.398943 1.639522-3.020194 2.828111-7.209275 3.388371-12.270786 1.243301-11.232245-.710847-25.371055-5.721214-39.383921-4.993744-13.966378-12.306627-25.800757-20.12491-33.154135-3.455536-3.250057-6.798905-5.411432-9.709034-6.412123-2.285524-.785911-4.04131-.793323-5.472759-.203248zm271.317929-70.950975c2.94736-4.038877 8.424842-5.280145 12.825386-2.906398 33.178559 17.897219 63.766989 39.560114 91.750962 64.978011 27.774207 25.227365 50.106451 48.60183 67.006612 70.16675 2.37392 3.029166 2.798846 7.151854 1.092705 10.601553-.944522 1.909758-2.246056 3.271694-3.792805 4.383803-.922411.663211-1.914404 1.213637-3.017042 1.716723-1.649934.752792-3.652925 1.440681-6.099271 2.127352-4.358036 1.223268-10.401675 2.511058-18.219732 3.896957-2.169162.384524-4.514251.695649-7.05835.891711-3.37179.259848-6.790976.29048-10.217924.03252-4.187366-.3152-8.242468-1.051429-12.110948-2.287349-4.565419-1.458583-8.766477-3.581778-12.493676-6.449344-3.795037-2.919758-6.714392-5.240244-15.963438-12.647865-8.655769-6.932462-13.428403-10.720814-18.970208-15.01912-4.142798-3.213216-8.02373-6.162319-11.737243-8.910873-1.749587-1.294956-3.457012-2.541611-5.125651-3.741724-5.919783-4.257607-12.096938-8.578277-19.105157-13.386456-2.75119-1.887529-5.547043-3.793528-8.935402-6.094255-1.380168-.937146-6.897026-4.678026-8.252565-5.598693-6.418369-4.359286-10.352357-7.070937-13.700426-9.46822-4.292871-3.073779-7.221153-5.354025-9.195292-7.245856-3.929956-3.766103-6.534902-8.416573-7.683239-13.725386-1.067636-4.935725-.849862-10.273318.521097-15.978104 2.440195-10.15405 8.627543-21.832349 18.481607-35.335737zm11.13616 19.059895c-5.46053 8.335595-8.82832 15.360269-10.171422 20.949136-.708766 2.949292-.804534 5.296548-.419529 7.076445.304304 1.406809.918182 2.502733 1.973233 3.513795 2.212529 2.120281 7.851363 6.157796 20.294835 14.609266 1.347488.915198 6.862981 4.655153 8.250526 5.597308 3.412808 2.317328 6.233734 4.24042 9.015055 6.148621 7.121467 4.885877 13.415543 9.288328 19.468235 13.641525 1.744442 1.254631 3.525243 2.554861 5.346347 3.90275 3.84239 2.843943 7.841096 5.882542 12.096334 9.182968 5.6476 4.380363 10.482108 8.217827 19.215233 15.212244 9.127235 7.310062 12.008842 9.600544 15.656435 12.406863 3.510868 2.70113 8.263517 4.21953 13.910331 4.644588 4.283234.322416 8.497237-.002337 12.284091-.673628 3.304643-.585811 6.240657-1.147177 8.780519-1.6795-14.829761-17.552625-33.42093-36.473484-55.707094-56.716049-24.568972-22.316044-51.22096-41.597981-79.993129-57.816332zm388.245995 25.046968-.001455 4.393389c0 .920304-.127041 1.836203-.377526 2.721763l-3.091859 10.930903c-.848998 3.001536-3.04999 5.434981-5.951506 6.580065l-23.063067 9.101842c-2.626829 1.036678-5.569523.914356-8.101253-.336753l-11.720159-5.791771-19.859912 6.715149c-.072483 1.241097-.388041 2.471055-.936823 3.623767l-3.195022 6.711126c-1.111319 2.334318-3.08352 4.147514-5.502813 5.059159l-27.544655 10.379458c-1.891951.712931-3.955569.835629-5.918671.351912l-19.856282-4.891897c.931191.71521 1.862274 1.393157 2.793101 2.034448 5.555585 3.827504 11.010008 6.288729 16.376077 7.585472 4.537034 1.096402 8.947792 1.346027 13.266446.887201 3.504215-.372298 6.812884-1.191034 10.046817-2.36951 3.912446-1.425733 63.382354-23.31416 90.483972-33.272313 5.509502-2.024398 8.993962-4.530153 10.809961-7.155063 1.157428-1.672989 1.519598-3.24874 1.321714-4.52943-.452893-2.93108-1.751612-6.239223-3.885982-9.921598-1.592766-2.74796-3.579888-5.600557-6.091103-8.807319zm-26.846758-5.42603c-1.071903 1.125524-2.414879 2.010602-3.954942 2.546142l-100.573833 34.972071c1.283012 1.552632 2.582941 3.132875 3.899825 4.740777l13.982005 3.44523 19.619346-7.39302-.025155-.047069c-2.911829-5.448509-.235877-12.207703 5.616414-14.186514l33.49192-11.324482c2.511226-.849111 5.256847-.666372 7.633394.50805l11.455737 5.661101 14.333493-5.656715 1.367099-4.833217v-1.444301zm-275.191768-191.941276.000157 9.771465c0 2.57217-.703391 5.02519-1.973371 7.223231-1.036769 1.794409-2.409938 3.358011-4.051344 4.732432-2.585677 2.165101-5.875048 3.889507-9.748388 5.261315-6.944651 2.459564-15.897795 3.800744-25.335758 3.800744-9.340616 0-18.20725-1.313725-25.121189-3.725328-3.835483-1.337828-7.106369-3.017524-9.69667-5.117349-1.629757-1.321161-3.006738-2.820709-4.071355-4.540208-1.308296-2.113072-2.089941-4.481611-2.205017-6.995325-.003487-.076177-.006103-.152391-.007847-.228628l-.004167-.182198c-.001744-.076216-.002615-.15245-.002615-.228686l-.000413-5.92685c-11.348646 2.539301-21.649294 5.72733-29.813532 9.236087-6.708409 2.883083-10.57644 4.760054-12.920042 6.322318.087403.085901.179649.174338.275583.26464 1.577182 1.484584 3.924158 3.261937 7.081048 5.324508 6.640702 4.338738 16.624077 9.791957 30.967411 16.920667 14.264551 7.089555 34.030407 19.99108 57.964897 37.579144 21.705403 15.950038 46.370548 35.426126 71.330384 56.233923 41.962629 34.982197 79.874318 69.614326 99.325616 90.719106-5.729365-6.671466-11.022258-12.63962-15.878415-17.903931-9.783159-10.605424-24.667952-24.854626-44.599793-42.676654-2.336062-2.088787-3.557874-5.151861-3.300775-8.275019l.769381-9.346179c-15.476598-15.00886-28.879964-26.976904-40.205048-35.927472-12.19662-9.63937-31.02845-22.930966-56.426266-39.812741-2.788553-1.853535-4.464377-4.979703-4.464377-8.328078v-20.402686c0-4.637463 3.188341-8.666451 7.701658-9.732298l66.273303-15.650847c.808431-.190916 1.632189-.279176 2.452517-.266518-22.953189-9.504777-41.883112-16.026849-53.012446-17.930621zm-277.846169 35.426078c.053217.501261.107413 1.010687.162554 1.527938.149746 1.404715.306482 2.867418.469455 4.381081.020611.191428.041255.38306.061998.575489.042933.398297.086426.801314.130326 1.207643.052817.488851.106104.981379.159956 1.478469.046735.431404.09394.866637.141556 1.305176.05722.526987.115041 1.058804.173431 1.595155.08572.787394.172701 1.584869.260828 2.391365.029159.266847.058404.534322.087772.802755.331426 3.029422.678723 6.183539 1.037392 9.420442.287358 2.593334.582193 5.241407.882159 7.922391.156249 1.396491.313984 2.802747.472805 4.21507.061071.54308.12236 1.087561.183792 1.632776.108072.959155.216601 1.920701.325478 2.88363.08427.745305.168807 1.491952.253508 2.239014.109586.966546.219465 1.933945.329522 2.90114.08387.737056.167883 1.474338.251957 2.211104.16357 1.433417.327358 2.864754.491062 4.291205.151623 1.321184.303261 2.638918.454577 3.950123.529558 4.588807 1.055238 9.098156 1.56625 13.427496.029395.249039.058773.497742.088099.74583.073559.622258.146627 1.239202.219346 1.851989.13113 1.104999.261201 2.197137.389946 3.273984.078794.659051.157009 1.31168.234684 1.958191.079195.659163.158147 1.314596.236488 1.96319.039106.323759.077995.645278.116726.965045.12746 1.052311.253406 2.087219.377438 3.101185.192027 1.569822.37932 3.08828.561271 4.549545.034603.277894.069198.555209.103592.830384.197024 1.576274.387205 3.080275.569831 4.504989.263391 2.054827.511422 3.947376.740704 5.646661l-.090619-.676462c2.177233 1.787093 4.338096 3.678194 6.478649 5.669701 21.629863 20.123782 40.428651 49.752418 52.847522 83.872986.283352.778502.562654 1.557344.8379 2.336451 8.346099-14.732169 20.657644-31.459872 36.947407-50.257882zm377.406333 88.526605.000078 31.246742c18.060604 16.279947 31.779454 29.508644 41.255264 39.780887 4.464991 4.840269 9.267927 10.234191 14.412193 16.186202l.000646-48.229318c-12.6646-10.449288-22.872825-18.309521-30.564937-23.548161-6.002073-4.087655-14.379972-9.241113-25.103244-15.436352zm156.369418 15.627108-80.700705 25.901768v41.216811l82.403789-28.654983zm-62.850072 28.561628c5.340201 1.031775 8.51224 7.784822 7.084949 15.083352-1.42729 7.29853-6.913426 12.378739-12.253626 11.346964-5.340201-1.031775-8.51224-7.784822-7.084949-15.083352s6.913426-12.378739 12.253626-11.346964zm53.791416-18.149848c4.531228.872585 7.082491 7.298544 5.698406 14.352782s-6.179394 12.065458-10.710622 11.192873-7.082492-7.298545-5.698406-14.352782c1.384085-7.054238 6.179394-12.065458 10.710622-11.192873zm-56.478354-62.606514-7.103572 2.123943-66.079367 21.60775c7.346886 4.355404 13.395512 8.144387 18.201554 11.395482l.51018.346275c8.148527 5.549477 18.604216 13.588425 31.424139 24.147929l84.179128-27.019565c-12.451695-8.341148-22.13224-14.414673-29.01159-18.215631-8.135314-4.4949-18.843741-9.301189-32.120472-14.386183zm-137.204834-48.758655-55.299643 13.05935v7.146215c23.617824 15.777958 41.336923 28.344352 53.291816 37.792678 8.457561 6.684274 17.913529 14.875936 28.379562 24.581043l.000149-12.788569c0-5.522847 4.477152-10 10-10 .577772 0 1.144101.048999 1.695056.143069l55.976322-18.303188zm-73.186581-39.32019c-6.186001 1.631239-13.489917 2.505486-21.109861 2.505486-6.638329 0-13.036809-.663511-18.665245-1.913007l-.736216.095375c-.569984.07578-1.139133.153407-1.707337.232847l-.000062 6.873675c.659774.341371 1.5282.714101 2.574539 1.079067 4.649777 1.621856 11.31583 2.609532 18.534321 2.609532 7.287882 0 14.010683-1.007075 18.658815-2.653288.99418-.352106 1.820014-.709451 2.450046-1.034886zm-21.109861-19.529957-.830602.004368c-4.078069.042938-7.958165.401042-11.36228 1.013354.312917.056285.629855.110423.950599.162365 5.433482-.511309 10.834259-.852305 16.168351-1.01822l.055642-.002218c-1.319081-.085661-2.671682-.137815-4.04711-.154117l-.104758-.001173z"/></svg>