<svg height="960" viewBox="0 0 960 960" width="960" xmlns="http://www.w3.org/2000/svg"><path d="m693.805974 3c18.241172.0581111 33.144561 1.50114468 46.205697 4.83671952 16.700141 4.26491028 30.68933 11.76845568 41.710255 23.31121358 10.798395 11.309691 17.555407 25.2156109 21.280611 41.6335811 2.261528 9.9671595 3.447658 20.9036462 3.843722 33.8441768l.056012 2.060047c.024765 1.038501.0447 2.089833.059944 3.154503l.024276 2.147277c.003018.360894.005524.723308.013509 1.087261v723.431947c0 6.258864-.134172 12.122389-.418907 17.651981l-.113865 2.058064-.128172 2.027477c-.58669 8.720504-1.581779 16.599755-3.055595 23.901255-3.252421 16.112973-8.942629 29.821055-18.012604 41.342331-9.898197 12.573336-22.979488 21.359601-38.638047 26.517673-12.795 4.21479-27.064818 5.994493-43.912292 5.994493h-340.738223c-30.26826 0-56.06321-6.880151-76.368762-23.504703-21.257277-17.403748-32.839644-42.796621-34.943544-74.222629l-.037989-.582668-.854929-.405312c-57.534575-27.839833-95.867113-94.508784-96.761092-169.599353l-.015979-2.685335c0-76.183045 38.557561-144.113428 96.777071-172.284688l.540929-.257312.001-10.866-28.319.000239c-24.057524 0-43.60555-19.307452-43.994105-43.27238l-.005895-.72762v-342.315129c0-12.618246.736435-23.6274856 2.58655-34.1812149 2.441204-13.9255255 6.765107-26.5002273 13.670157-37.7753378 17.014956-27.7833656 46.418108-42.3205573 84.617968-42.3205573zm-1.12099 40h-315.797984l-.602394.0766181-.881781.1215027-.858969.1286063c-.141293.022034-.28166.0443697-.421113.06701l-.825848.1395195c-.135846.0238701-.270803.0480504-.404882.072544l-.794042.150742c-.261237.0515153-.519061.1043062-.77357.1583956l-.753682.1661866c-.743932.1701279-1.45891.3521486-2.147563.5466806l-.679977.1987254-.663012.2072039c-.327362.1057444-.648582.2147198-.963989.3270035l-.623159.2290014c-.205201.0778194-.407915.1571321-.608241.2379609l-.593908.247058c-.097822.0419421-.195072.0842689-.291761.1269834l-.573505.2609614-.281889.1340124-.554416.2751741-.542423.2848211c-.178873.0965635-.355845.1947577-.531012.2946056l-.520188.3045275c-.257485.1547672-.51113.3133066-.761264.4756957l-.495684.3299339-.486906.340337c-.402259.287987-.795983.5869538-1.182695.8972585-6.794556 5.4520725-11.338267 15.4883727-13.402198 32.0946503l-.168508 1.4190315c-.108397.9565067-.208902 1.9340438-.301476 2.9329665l-.132906 1.5144675c-.338524 4.081588-.549805 8.5081856-.631225 13.3025181l-.02444 1.815157c-.003057.305413-.005606.612275-.007645.920589l-.006121 1.867369v755.933883c0 37.149661 12.184227 53.6682 42.67348 56.02446l316.524307-.000998c50.613787 0 64.276234-19.523506 64.276234-79.529823v-721.561215c0-11.841532-.565995-21.9699711-2.011303-30.58607-5.667438-32.2569075-24.063465-42.946055-72.172342-42.946055zm-355.466989-.0004725-58.34332.0004725c-53.517777 0-60.874675 37.1367971-60.874675 74.27711v342.315129c0 .13835.007024.27506.020734.409791.44259 1.727145 2.009949 3.004449 3.875638 3.004449l64.317575.000001c2.063174.000906 3.760832 1.563675 3.975374 3.569726.084928.324507.130145.664949.130152 1.01595l-.000599 75.291192c-.03543.00722-.070854.014459-.106272.021719l-.000602 288.187933.106874.023652.000599 18.458615c0 9.851803 1.088629 18.411706 3.123734 25.818387 6.643674 23.657242 23.014981 35.448991 44.411695 39.964851-9.507092-12.3458-14.250126-29.759184-14.45346-52.239951l-.006834-1.518853v-755.933883c0-29.381945 4.294913-49.4683028 13.823387-62.6662905zm216.110423 450.0267655 2.790869.021372c.300572.004606.600982.009954.901229.016044 1.054179.021392 2.106212.051911 3.156169.091494 2.041988.07695 4.07609.188201 6.101781.333215.294516.021154.589155.042977.883614.065513.288828.022026.577155.044789.865307.068235.629224.051291 1.257661.105758 1.885253.16347.212246.019409.424957.039348.63757.05966.698735.066874 1.396086.137623 2.09236.212368.286009.030563.571388.061887.856584.093882.612666.068887 1.224951.140778 1.836376.215755.368486.04501.736191.091252 1.103582.138609.541536.069996 1.082752.142278 1.623272.216975.234648.032216.468994.06507.703207.098379.664709.094755 1.328443.19296 1.991095.294799.290128.044339.58021.089645.870083.135647.598863.095304 1.196558.193274 1.793345.294197.496909.083743.993688.169904 1.489827.258107.384345.068637.768127.138164 1.151521.208912.509584.093709 1.018435.189884 1.526592.288206.382433.074341.764644.149593 1.146458.226058 1.57439.314927 3.141763.650784 4.702098 1.006996.179796.041468.359172.082711.538455.124223.674338.155705 1.347698.315724 2.019711.479529.191599.047157.383509.094273.575308.141698.711899.175562 1.421608.35566 2.129769.539976.159683.042047.319742.083944.479723.126056.486332.127525.971521.257419 1.45597.389292.402089.109962.804232.220939 1.20586.333278.366929.102112.732775.205694 1.098187.310404.483149.138983.966047.279558 1.448177.422103.594471.175209 1.187462.353863 1.779268.535491.24402.075455.48791.150876.731597.226801.633816.196905 1.26631.39781 1.897411.602111.219788.071735.43941.1433.658862.215276.595784.194811 1.190294.393234 1.783537.59467.24873.085059.4973.170069.745646.255607.635246.218189 1.268935.440412 1.901137.666073.197293.07104.394546.141836.591654.212967.605918.218038 1.210333.439809 1.813352.664723.236634.088888.472877.177566.708905.266726.667121.251373 1.332784.50733 1.996696.767116.150671.059592.301628.118894.452494.178394.534528.210178 1.067424.423277 1.599168.638842.313485.127723.627009.255845.940129.384825.476871.195793.952402.394044 1.426987.59427.331188.140366.662028.281102.992405.422799.572738.245006 1.144175.493574 1.714198.74501.231665.102821.463173.205515.694448.308682.5604.249353 1.119312.502064 1.676831.757535.253261.116678.506162.233263.758774.350417.464735.214907.928608.432415 1.391494.651835.347027.165114.693717.330792 1.039846.497541.441877.21227.882463.426713 1.32213.642892.348198.171804.696009.34419 1.043239.517663.397038.197765.79324.397507 1.188676.598663.409079.208676.817456.418341 1.225005.629514.411934.212876.822955.42783 1.233124.644316.345586.182954.690996.366666 1.035795.551465.459974.245986.918135.494058 1.375201.744047.323315.177362.646136.355181.968406.533957.387129.214239.77375.430541 1.159567.648218.384304.217322.767642.435408 1.150179.654853.465534.266576.929488.535422 1.392245.806265.294036.172555.587854.345606.881186.519463.418997.247894.83682.497773 1.253642.749286.348023.210424.695086.421395 1.041448.633498.377666.230866.75498.46379 1.131453.698058.379861.236761.758836.47448 1.136947.71356.336442.212371.671742.425895 1.006355.64049.416745.267606.832866.536812 1.247911.807673.277018.180467.553217.361771.828936.543808.462491.305643.923903.613227 1.383948.922865.320406.215386.640017.431952.958961.649508.389874.266181.778921.533709 1.166965.802711.358449.248273.71578.497846 1.07225.748669.385273.271276.769742.543961 1.153195.818102.295632.211195.590504.42331.884769.636285.408169.295547.815211.592635 1.221078.891371.376465.276994.752149.555688 1.126812.835794.325379.243333.6498.487508.973449.732742.352507.267058.704162.535476 1.054893.805145.365568.281089.730276.563626 1.093973.847517.292523.228353.584145.457378.87511.687274.402622.318069.804096.637929 1.204303.959448.295457.237446.59034.47582.884528.715094.385836.313705.770191.628825 1.153344.945484.326747.270187.65309.541752.97855.814434.350259.293282.699544.588066 1.047799.884138.306312.260627.611282.521579.915453.78352.376937.324359.75306.650826 1.127944.978806.241569.21162.482427.423428.72277.63586.414571.366121.827613.734397 1.239109 1.104521.335448.302068.669745.604915 1.003007.908982.306203.279.611598.559457.916115.840939.364978.337782.728683.676626 1.091119 1.016935.293303.27495.58575.551273.877361.828551.275537.26247.550365.52536.824441.789099.383018.368063.764361.738073 1.144229 1.10973.227497.22312.455117.446939.682203.67135.402057.396751.801662.795134 1.199587 1.195351.242338.24434.485052.489775.727135.735893.376189.381824.750326.765379 1.122933 1.150569.222879.231078.445354.462226.667277.693958.380071.396164.758686.794899 1.135673 1.195335.32569.346684.650579.694359.974242 1.043299.277447.298348.553602.597958.828854.898492.309958.339225.619097.679194.927081 1.020328.294685.325577.587858.652531.879972.980544.283783.319512.567239.639941.849684.961368.309649.351503.617554.704471.924241 1.058627.248514.287891.496561.576046.743802.86498.339109.395357.676377.792721 1.012123 1.191538.201865.24075.403623.481599.604827.722973.360879.431943.719711.866235 1.076748 1.302203.201471.247021.403234.494633.604419.742781.377272.464306.752396.931382 1.125471 1.400326.181021.228602.36147.456472.541435.68478.368817.466809.735764.936737 1.100663 1.408494.210823.273663.421168.547107.630825.821158.334131.435639.666018.873276.996151 1.312443.192043.256606.384395.513805.576146.771524.354236.474957.705628.951751 1.054962 1.4303.174872.240725.349839.481564.524285.722844.333966.460734.665312.923263.994744 1.387388.206281.291816.412729.58437.618417.877553.327484.46558.652365.932979.975314 1.401953.148111.2163.296192.432262.443863.648556.355231.519082.707784 1.040847 1.057955 1.564513.188976.283842.37746.567307.565247.851324.28097.423714.560134.849527.837728 1.276564.222641.343744.444888.687987.666115 1.033018.288395.448544.574654.899035.859176 1.35085.173772.277192.3474.554441.520374.832185.297148.475889.591718.953428.884353 1.432409.190976.313824.381946.628374.57208.94354.270912.447829.539548.897168.806488 1.347745.214138.362675.4278.72597.640359 1.09006.237452.40551.47302.812357.70721 1.220185.214713.375114.428752.750698.641623 1.127105.239704.422664.47732.846486.713454 1.27134.18127.327315.362518.655606.542881.984506.258881.470927.515387.943255.770065 1.416826.15169.283205.303215.566611.454086.850458.275271.516772.548083 1.035606.818708 1.555893.173365.334394.346397.669381.518523 1.004965.249016.484428.495614.970153.74031 1.457111.16208.323586.323794.647606.484666.972168.229672.462355.457271.926107.68315 1.39095.206396.425723.41168.852046.615517 1.279276.188272.393667.37499.788383.560472 1.183866.179896.384473.358929.769399.536791 1.155044.215684.466789.429322.934804.641235 1.403863.144049.319667.287788.640074.43072.960963.217822.488241.433447.97766.647196 1.46819.185207.425755.369346.85239.552064 1.279853.180869.422462.359942.845472.537624 1.269285.168155.401715.335581.804757.501747 1.208517.18541.449946.368921.900562.550861 1.352063.16655.413825.331932.828226.49599 1.243364.164152.414909.326827.830651.488174 1.247124.178715.461703.356015.924443.531674 1.388074.15428.406865.307197.814515.458844 1.222847.159448.429618.317585.859939.47431 1.291008.160413.441002.319213.882647.476531 1.325069.12455.350416.248438.701914.371389 1.053897.190558.54544.378915 1.092305.56501 1.640327.131192.386352.261091.772742.389863 1.1597.154743.465058.308023.931402.459667 1.398563.136884.42156.272345.843613.406469 1.266324.144805.456585.28811.91394.429847 1.372058.139655.451094.277905.903575.414625 1.35679.133149.44174.264894.884001.395182 1.326954.130776.44418.25993.888938.387612 1.334385.132178.461638.262898.923956.392031 1.387007.121923.436614.24241.874361.361476 1.312756.123253.454469.244997.909045.365214 1.36431.122508.463215.243393.927708.362685 1.392909.112795.440662.224338.881864.334447 1.323695.122281.489814.242539.980199.361029 1.471349.096684.401694.19234.803617.28681 1.206047.129455.550465.256619 1.102569.381548 1.655612.079758.354126.15876.708298.236845 1.062853.115545.523562.228893 1.048148.340229 1.573558.092233.436388.183307.873293.27299 1.310764.092442.449767.18313.899913.272342 1.35065.094208.477154.187067.95533.278264 1.434164.08956.469055.177245.938461.263329 1.40849.083372.456411.165491.913598.246094 1.371368.081711.462895.161663.926386.240058 1.390466.211193 1.251287.411261 2.506775.599905 3.76644l-.361209-2.321818c.177949 1.101576.347142 2.206419.507498 3.314453l-.279156-1.832769.132867.840134.056133.397866.090156.594769.135844.991231.065.459.09312.117548c.399465.512892.773308 1.044404 1.12033 1.592558.025545.04093.051111.081566.076534.1223.041589.066312.082827.133378.123666.200684 1.838571 3.024766 2.89735 6.575693 2.89735 10.37391v33c0 4.544166-1.515494 8.73437-4.068632 12.092761-.102627.135485-.207147.269501-.313404.40222l.252365-.322345c-.144744.18843-.292767.374208-.443986.55725l-.039343.046114-.26065 1.746457c-.022786.145355-.045725.290653-.068815.435895l-.019954.115735c-.024371.152729-.048911.305395-.073618.457998-.118694.742499-.242724 1.482583-.370694 2.221153-.031437.172613-.061687.345865-.092153.519032-.124802.718047-.254754 1.434092-.388404 2.148679-.044035.227255-.086933.454471-.130205.681539-.133081.706365-.271221 1.410861-.412951 2.113904-.024891.1159-.048537.232668-.072282.349395-.160834.79811-.327583 1.59323-.498915 2.386446-.041266.18404-.08141.36865-.121803.553157-.152719.704483-.31044 1.406893-.47175 2.107772-.058399.247232-.11581.494551-.173667.741679-.152795.658985-.310144 1.316135-.470646 1.971905-.051041.202515-.10112.405764-.151501.60888-.170094.691634-.344956 1.380903-.523299 2.06861-.038751.143843-.076399.288362-.114201.432813-.191609.737675-.3884 1.472551-.589159 2.205601-.063729.227527-.126501.455167-.189656.68263-.187357.679854-.379466 1.357855-.574969 2.034255-.045671.153234-.090259.30682-.135022.460323-.202657.699646-.410182 1.397095-.621311 2.092801-.091896.298391-.183319.597149-.275407.895582-.172064.561904-.347648 1.122132-.525571 1.681202-.092663.287076-.184729.574135-.27741.860886-.198522.618177-.401068 1.234531-.606456 1.849442-.016975.047045-.032916.094716-.048875.142378-.259608.779048-.524718 1.554854-.794346 2.328311-.121207.344223-.242332.688662-.364353 1.03263-.175006.496682-.352869.991808-.532585 1.485947-.129808.353711-.259488.707171-.390115 1.060121-.188489.51237-.379973 1.023265-.573442 1.533078-.117334.306251-.234378.612411-.352136.918179-.21001.54814-.423314 1.094741-.6389 1.640068-.084727.21162-.168807.423248-.25323.634682-.250305.629495-.504506 1.256771-.761728 1.882318-.108836.262216-.217538.524985-.326774.787447-.232888.561946-.468909 1.121747-.707352 1.680131-.130826.304113-.261614.608297-.393119.912057-.22408.519764-.451057 1.037931-.680122 1.554846-.11847.265279-.236651.53041-.355381.795209-.25816.577749-.519736 1.153698-.783908 1.728054-.076174.16374-.151886.327768-.227809.491665-.293282.63493-.590349 1.267378-.890565 1.89785-.134536.280833-.269224.561989-.404539.842748-.235574.49042-.47347.97884-.713259 1.466045-.208959.423025-.418845.845667-.630154 1.267385-.199539.399692-.401044.798445-.603823 1.196361-.1571.306884-.31414.613079-.471934.918774-.253897.493215-.510432.985088-.768916 1.47565-.163966.309923-.328283.619779-.493377.929108-.247624.46516-.497355.928571-.748831 1.390784-.19316.353901-.38711.707806-.582082 1.061001-.235083.426929-.471954.852275-.710308 1.27658-.207673.368675-.416124.736977-.62569 1.104485-.217386.382182-.436192.762914-.656197 1.142785-.210927.363287-.422626.726148-.635418 1.088215-.252664.43077-.507.859763-.762869 1.287629-.197137.328845-.395013.65756-.593795.985603-.25673.42444-.515292.847502-.775359 1.269432-.203879.33005-.408194.659352-.613425.987958-.26694.428092-.535777.854859-.806161 1.280438-.187057.293784-.374702.587413-.563084.880472-.290278.452182-.582577.902808-.876617 1.352068-.160517.244683-.32113.488894-.482257.732697-.320766.485895-.6438.969965-.96886 1.452408-.201879.299121-.404241.597683-.60738.895616-.301519.442693-.604871.883695-.909925 1.323299-.181539.261174-.363865.522561-.546793.78345-.306889.438097-.615471.874365-.925736 1.309223-.248872.34842-.498152.695394-.748504 1.04146-.278174.384891-.558129.768913-.839404 1.151802-.219355.298261-.439409.596039-.660261.893125-.294731.396787-.590998.792165-.888679 1.186304-.264047.349307-.529023.697701-.795104 1.045115-.26168.341948-.524571.682845-.788526 1.022787-.257506.331372-.515736.661735-.774972.991187-.30138.38326-.604467.765469-.908908 1.146437-.181063.226343-.362234.452021-.54388.677259-.364228.45186-.730748.902191-1.099171 1.350739-.225564.274413-.451372.547801-.677886.820521-.321307.387047-.64459.773205-.969292 1.158005-.249337.295298-.498687.589019-.748864.881939-.334871.392265-.671797.783579-1.010201 1.173448-.160466.184701-.320993.368936-.48185.552846-.408215.46688-.818613.931565-1.231119 1.39414-.216431.242548-.433702.484958-.651552.726784-.361343.401256-.724017.800465-1.088272 1.198058-.230077.250991-.460771.501467-.692094.751295-.359539.388442-.72046.775035-1.082887 1.160055-.294839.313079-.590354.62492-.886856.935715-.305028.319868-.611597.639007-.919209.957032-.294182.304005-.588721.606513-.884204.907999-.317501.324086-.636356.647125-.956297.968978-.244093.24542-.489204.490666-.734946.735216-.36454.362906-.730919.724588-1.09868 1.084727-.27703.271152-.55423.540966-.832206.809903-.368206.356369-.738272.71154-1.109696 1.06516-.188971.179776-.378011.35902-.567401.537863-.428209.404503-.858547.807136-1.290659 1.2077-.302162.279957-.604704.558598-.908104.836226-.336379.30795-.67415.614814-1.012973.920424-.366875.330762-.734867.660098-1.104082.987955-.270273.240152-.541375.479512-.81313.718076-.331921.291223-.664588.581215-.99822.870015-.342183.296364-.68564.591533-1.030109.885439-.239412.204102-.47899.407487-.719054.610262-.418642.35379-.839185.705907-1.261194 1.056151-.28042.232555-.561077.464122-.842376.694862-.387125.317732-.775897.634062-1.165878.948813-.294737.237689-.589713.474303-.885373.710014-.383409.305866-.768486.610424-1.154709.913451-.200278.156935-.400375.313277-.600778.469208-.498657.388209-.99969.77404-1.502601 1.157307-.173789.13223-.347941.264472-.522317.396406-.494868.374639-.991481.746544-1.489881 1.115956-.352344.260929-.705596.520849-1.059735.779517-.354467.259143-.7098.516783-1.066014.773164-.38389.276059-.768848.550924-1.154822.824318-.305349.216533-.611357.431917-.917999.646376-.476677.333126-.954834.664235-1.434504.993097-.237209.162892-.475157.325226-.713476.487007-.371925.252212-.744204.502976-1.117373.752391-.36434.243787-.730022.486342-1.096549.727603-.296837.195108-.593852.3894-.891418.582841-.421216.274108-.843912.546473-1.267703.817123-.323711.206444-.647687.411939-.972296.616431-.414309.261296-.829734.520717-1.246183.778497-.261996.161874-.52471.32359-.787829.484652-.47356.290183-.948171.577792-1.424077.863275-.257989.15445-.516726.308804-.775843.462528-.486185.28875-.973447.574824-1.462032.858674-.247705.14359-.496198.287184-.74503.430203-.495575.285161-.99246.567699-1.490678.847943-.344548.193477-.689574.386096-1.035231.577615-.419504.232767-.840164.463706-1.261748.693015-.296636.161012-.593684.321526-.891187.481232-.4755.255595-.952138.508775-1.429927.759876-.298177.156366-.596953.312341-.896175.467504-.454064.2358-.909064.46934-1.365081.700999-.43448.220373-.869898.439392-1.30623.656697-.345694.172513-.692264.34375-1.039406.513906-.364527.178326-.729153.355552-1.094401.531583-.41554.200622-.832174.399482-1.249607.596788-.338106.159459-.676884.318318-1.016183.476152-.46127.214924-.923533.427616-1.386751.638405-.17772.080519-.3553.160984-.533019.24117-.618118.27924-1.23805.5548-1.859648.826953-.166386.072499-.333329.145294-.500393.217843-.620862.269967-1.243113.536078-1.866992.798776-.225053.094414-.449964.188585-.675084.282313-.579763.24173-1.16135.480342-1.744315.71599-.160579.064564-.320915.12911-.481355.193431-.652305.261857-1.306759.519831-1.962907.774068-.13326.051294-.266272.102652-.399352.153856-.66761.257207-1.337283.51033-2.008676.759559-.306021.113266-.612502.226094-.919337.338111-.516475.188879-1.034202.375215-1.552925.559237-.356928.126299-.713695.251608-1.070928.375822-.461414.160759-.924038.319516-1.387431.476435-.306941.103625-.614071.20671-.921535.308985-1.362446.453515-2.731565.890879-4.107057 1.312172-.158546.048268-.316894.09653-.475326.144579-.682464.207261-1.36666.410329-2.05239.609417-.218808.06325-.438046.126451-.657439.189246-.603161.172905-1.207217.342382-1.812432.508768-.525762.144284-1.052727.286586-1.580556.426543-.325349.08652-.65088.171857-.976737.256301-.391955.101326-.784441.201625-1.177394.300626-.467024.117902-.934806.233755-1.403239.347769-.522197.126869-1.045007.251639-1.568616.374113-.323348.075852-.647137.150639-.971229.224547-1.407527.320778-2.820661.625184-4.239285.912827-.32539.06616-.65116.13127-.977217.195496-.188767.037006-.377462.073861-.566252.110419-.664278.128806-1.330128.253838-1.997142.375174l-.066943.012006c-.389786.070756-.779969.140251-1.170543.208479-.474394.083021-.950227.164167-1.426634.243431-.228253.037837-.455873.075258-.683622.112249-1.520649.247117-3.047816.475037-4.580536.683544-1.371833.186526-2.748052.357596-4.128538.512947-1.292245.145484-2.587625.277063-3.8866.394743-.154414.013937-.309198.027759-.464033.041384-.74031.065187-1.481533.125791-2.223889.18186-3.586492.270856-7.199322.435859-10.83557.492102l.437961-.010823-.431899.010731-2.821683.021856c-103.535289 0-187.276236-87.681698-187.276236-195.618647 0-107.93695 83.740947-195.618647 187.276236-195.618647zm0 20-2.763117.023498c-91.007969 1.548896-164.513119 79.47432-164.513119 175.595149 0 97.091746 74.997602 175.618647 167.276236 175.618647l2.508622-.019476c1.277764-.01985 2.552353-.054838 3.823603-.104808 2.053423-.0807 4.098151-.200499 6.133453-.358726.455933-.035482.91102-.072827 1.365628-.112089l-1.365628.112089c.826686-.064268 1.651816-.134875 2.475345-.211778l-1.109717.099689c.834943-.07211 1.668269-.15069 2.499928-.235693l-1.390211.136004c.81987-.076562 1.638153-.159363 2.454801-.24836l-1.06459.112356c1.030683-.105346 2.058807-.220557 3.08428-.345548l-2.01969.233192c.81329-.088631 1.62496-.183407 2.434964-.284285l-.415274.051093c.45667-.055661.912815-.113262 1.368426-.172795l-.953152.121702c1.631949-.203243 3.257136-.431256 4.875187-.683686 1.251152-.195306 2.497912-.405081 3.740238-.629291.892767-.160985 1.783095-.329527 2.671068-.505459 1.563012-.30984 3.118458-.642366 4.666266-.997454.303235-.069384.60647-.139883.909408-.211246l-.909408.211246c.701272-.160881 1.400977-.326394 2.099081-.496507l-1.189673.285261c.784034-.184697 1.566081-.375188 2.346096-.571431l-1.156423.28617c.745138-.181575 1.488453-.368391 2.229905-.560412l-1.073482.274242c.791657-.199171 1.581222-.404268 2.368645-.615244l-1.295163.341002c.89938-.23292 1.796019-.473498 2.689847-.721667l-1.394684.380665c.76977-.206247 1.537494-.418112 2.303128-.635554l-.908444.254889c.820833-.227902 1.639294-.462206 2.455331-.70286l-1.546887.447971c.777208-.220729 1.552262-.447205 2.325116-.679384l-.778229.231413c.705573-.208078 1.409333-.420903 2.111245-.638443l-1.333016.40703c.775196-.232882 1.548179-.471502 2.3189-.715815l-.985884.308785c1.644825-.509771 3.2795-1.045429 4.903573-1.606546.218582-.075257.437112-.151286.655448-.227776l-.655448.227776c.633971-.219037 1.266327-.441953 1.89704-.668723l-1.241592.440947c.760561-.266448 1.518774-.538486 2.274592-.816071l-1.033.375124c.690674-.248329 1.379378-.50128 2.066077-.758819l-1.033077.383695c.757859-.278334 1.513311-.562244 2.266307-.851685l-1.23323.46799c.734023-.275288 1.465756-.555818 2.195154-.841549l-.961924.373559c.745326-.286494 1.488247-.578406 2.228716-.875694l-1.266792.502135c1.117688-.437839 2.229895-.887891 3.336464-1.350009l-2.069672.847874c.730062-.293111 1.457742-.591447 2.182994-.894967l-.113322.047093c.602355-.251552 1.203039-.506679 1.802028-.765357l-1.688706.718264c.741775-.310435 1.481012-.626293 2.217663-.947531l-.528957.229267c.649059-.280303 1.296127-.564775 1.941172-.853387l-1.412215.62412c.741686-.323433 1.480751-.652319 2.217147-.986612l-.804932.362492c.692351-.309779 1.382371-.624327 2.070021-.943607l-1.265089.581115c.725803-.329484 1.449012-.664221 2.169583-1.004168l-.904494.423053c.734412-.340992 1.466121-.687383 2.195078-1.039125l-1.290584.616072c.725851-.342437 1.449023-.690161 2.169472-1.043127l-.878888.427055c.788155-.380307 1.573094-.766872 2.354755-1.159635l-1.475867.73258c.717475-.351508 1.432249-.708216 2.144274-1.070078l-.668407.337498c.782288-.393079 1.561294-.792368 2.336956-1.197809l-1.668549.860311c.700294-.3559 1.397929-.716787 2.092862-1.082619l-.424313.222308c.600522-.313894 1.19904-.631476 1.795525-.952718l-1.371212.73041c.719824-.378935 1.436749-.763175 2.150725-1.152674l-.779513.422264c1.436963-.77389 2.862131-1.569025 4.275108-2.385033.224888-.129624.449366-.25997.673534-.390842l-.673534.390842c.734802-.424355 1.466308-.854355 2.194461-1.289947l-1.520927.899105c.677139-.395323 1.351447-.795453 2.022881-1.200346l-.501954.301241c.542064-.324271 1.08227-.651641 1.620595-.982088l-1.118641.680847c.713383-.430191 1.423521-.86576 2.130362-1.306657l-1.011721.62581c.655462-.402351 1.308136-.809265 1.95798-1.220702l-.946259.594892c.659146-.411148 1.315424-.826929 1.968792-1.247304l-1.022533.652412c.786148-.497736 1.568155-1.002092 2.345946-1.512998l-1.323413.860586c.667065-.429187 1.331097-.863163 1.99205-1.301883l-.668637.441297c.555957-.36519 1.109761-.733727 1.661384-1.105586l-.992747.664289c.687327-.456227 1.371323-.917585 2.051939-1.384026l-1.059192.719737c.533241-.359467 1.064446-.722039 1.593588-1.087691l-.534396.367954c.659911-.452251 1.316643-.909281 1.97015-1.371044l-1.435754 1.00309c.711866-.49192 1.420001-.989416 2.124344-1.492432l-.68859.489342c.640444-.452534 1.277791-.909614 1.911997-1.3712l-1.223407.881858c.741031-.529217 1.477867-1.064545 2.210437-1.605919l-.98703.724061c.642314-.467487 1.281406-.939596 1.91723-1.416283l-.9302.692222c.832904-.61552 1.660295-1.238856 2.482073-1.869912l-1.551873 1.17769c.621337-.465825 1.239554-.936023 1.854608-1.410552l-.302735.232862c.523095-.401692 1.043915-.806513 1.562435-1.214437l-1.2597.981575c.652503-.503423 1.301446-1.011721 1.946779-1.524846l-.687079.543271c.558181-.439127 1.113697-.88185 1.666514-1.328138l-.979435.784867c.630649-.501451 1.257851-1.007511 1.881557-1.518137l-.902122.73327c.538587-.434801 1.074613-.872987 1.608047-1.314528l-.705925.581258c.633192-.518392 1.262781-1.04149 1.888718-1.569246l-1.182793.987988c.702096-.581149 1.399703-1.168111 2.092752-1.760824l-.909959.772836c.597047-.503397 1.190771-1.011033 1.781129-1.522867l-.87117.750031c.650731-.55652 1.297443-1.118109 1.940081-1.684713l-1.068911.934682c.600726-.520822 1.197967-1.045991 1.791678-1.575463l-.722767.640781c.671236-.591819 1.338027-1.18911 2.000309-1.791811l-1.277542 1.15103c.590542-.526648 1.177592-1.057553 1.761105-1.592674l-.483563.441644c.499746-.454788.996924-.912657 1.491506-1.373581l-1.007943.931937c.608148-.557713 1.212453-1.120006 1.812866-1.68683l-.804923.754893c.529339-.493315 1.055704-.990128 1.579062-1.490409l-.774139.735516c.584372-.55168 1.165056-1.107653 1.742006-1.667875l-.967867.932359c.636886-.608802 1.269318-1.222739 1.897235-1.841752l-.929368.909393c.562494-.546184 1.121439-1.096408 1.676792-1.650629l-.747424.741236c.574585-.566437 1.14539-1.137124 1.712367-1.712018l-.964943.970782c.577288-.576112 1.150694-1.156544 1.720171-1.741249l-.755228.770467c.601269-.609665 1.198234-1.224061 1.790839-1.843135l-1.035611 1.072668c.55529-.570141 1.106844-1.144345 1.654617-1.722571l-.619006.649903c.583792-.609867 1.163353-1.224275 1.738628-1.843171l-1.119622 1.193268c.546051-.576409 1.088345-1.156814 1.626836-1.741174l-.507214.547906c.506774-.545201 1.010223-1.093886 1.51031-1.64602l-1.003096 1.098114c.55885-.606451 1.113604-1.217162 1.664213-1.832083l-.661117.733969c.504872-.557418 1.006318-1.118351 1.504299-1.682765l-.843182.948796c.538416-.601306 1.07287-1.206638 1.603313-1.815954l-.760131.867158c.499535-.566173.995584-1.135849 1.488108-1.708991l-.727977.841833c.539088-.619247 1.074035-1.242608 1.604792-1.870037l-.876815 1.028204c.546686-.636167 1.089029-1.276604 1.626979-1.921262l-.750164.893058c.517367-.611602 1.030753-1.227069 1.540112-1.846359l-.789948.953301c.488099-.584919.972581-1.173313 1.453407-1.765146l-.663459.811845c.517121-.628727 1.030091-1.261393 1.538863-1.897955l-.875404 1.08611c.569931-.701508 1.134726-1.407847 1.694319-2.118956l-.818915 1.032846c.497046-.621891.990085-1.2475 1.479074-1.876785l-.660159.843939c.496719-.631211.98934-1.266181 1.477818-1.904865l-.817659 1.060926c.495115-.63717.986077-1.278108 1.472841-1.922771l-.655182.861845c.510359-.667294 1.016194-1.338643 1.517455-2.014l-.862273 1.152155c.488806-.64737.973379-1.298497 1.453671-1.953336l-.591398.801181c.493173-.664458.981917-1.332795 1.466184-2.004964l-.874786 1.203783c.475466-.64826.946737-1.300158 1.413769-1.955653l-.538983.75187c.486197-.674849.967882-1.35356 1.445004-2.036088l-.906021 1.284218c.476568-.66888.948722-1.341505 1.416413-2.017829l-.510392.733611c.45948-.65729.914728-1.31812 1.3657-1.982446l-.855308 1.248835c.465065-.672527.925717-1.348711 1.38191-2.02851l-.526602.779675c.449233-.661765.894223-1.327 1.334926-1.995664l-.808324 1.215989c.446839-.66586.889399-1.335186 1.327637-2.007938l-.519313.791949c.445656-.676177.886927-1.355861 1.323769-2.039008l-.804456 1.247059c.451132-.692546.897682-1.388721 1.339604-2.08848l-.535148.841421c.434435-.679382.864488-1.362189 1.290117-2.048379l-.754969 1.206958c.433204-.685956.86196-1.375356 1.286223-2.068158l-.531254.8612c.423886-.683381.843383-1.370117 1.258447-2.060167l-.727193 1.198967c.432265-.705869.859866-1.415269 1.282754-2.128154l-.555561.929187c.46469-.772555.923823-1.549264 1.377338-2.330068l-.821777 1.400881c.404693-.682215.805072-1.367621 1.201092-2.05618l-.379315.655299c.404041-.695625.803622-1.394501 1.1987-2.096586l-.819385 1.441287c.421648-.733119.838357-1.469812 1.250074-2.21003l-.430689.768743c.401676-.713813.798699-1.430942 1.19102-2.151346l-.760331 1.382603c.395438-.710949.786272-1.425151 1.172457-2.142563l-.412126.75996c.384997-.706957.765468-1.417067 1.141368-2.130288l-.729242 1.370328c.387675-.720179.770665-1.443593 1.148924-2.170198l-.419682.79987c.408483-.775042.811568-1.553759 1.2092-2.336098l-.789518 1.536228c.376256-.722756.74783-1.448669 1.11468-2.177698l-.325162.64147c.363843-.715859.723121-1.434752 1.07779-2.156636l-.752628 1.515166c.376257-.747723.747543-1.498724 1.11381-2.252956l-.361182.73779c.368453-.749941.731933-1.503111 1.090391-2.259465l-.729209 1.521675c.356025-.733143.707308-1.469338 1.053805-2.208546l-.324596.686871c.419674-.885522.832466-1.775409 1.238297-2.669588l-.913701 1.982717c.351909-.750754.69888-1.504614 1.040868-2.261536l-.127167.278819c.300087-.661191.596369-1.324728.888815-1.990583l-.761648 1.711764c.341638-.756148.678302-1.515352 1.009946-2.277568l-.248298.565804c.324307-.738399.643896-1.479649.958725-2.223709l-.710427 1.657905c.330963-.760651.656927-1.524302.977845-2.290909l-.267418.633004c.326832-.772429.648534-1.547887.965058-2.326328l-.69764 1.693324c.322029-.769262.638979-1.541501.950801-2.316672l-.253161.623348c.294543-.724383.584602-1.451349.87014-2.180863l-.616979 1.557515c.316477-.786745.627673-1.576511.933539-2.369251l-.31656.811736c.287901-.735552.571204-1.473694.849872-2.214389l-.533312 1.402653c.303893-.787625.602524-1.578186.895845-2.371638l-.362533.968985c.317833-.844796.629634-1.692913.935347-2.544296l-.572814 1.575311c.283936-.768063.562897-1.538835.83684-2.312275l-.264026.736964c.320315-.892052.633946-1.787689.940825-2.686849l-.676799 1.949885c.276635-.781044.548154-1.564809.814511-2.351253l-.137712.401368c.256319-.751017.507927-1.504491.754786-2.260386l-.617074 1.859018c.271581-.80187.537797-1.606526.798598-2.413922l-.181524.554904c.252649-.773624.500324-1.549783.742982-2.328438l-.561458 1.773534c.259484-.803314.513608-1.609341.762327-2.418037l-.200869.644503c.263181-.844511.520461-1.691957.771787-2.54229l-.570918 1.897787c.244941-.796413.48464-1.595414.719052-2.396962l-.148134.499175c.478075-1.61751.934606-3.245462 1.369226-4.88351.050774-.185938.099892-.372247.148726-.558685l-.148726.558685c.219121-.825849.432672-1.654264.640607-2.485201l-.491881 1.926516c.218349-.833609.431026-1.669812.637985-2.508565l-.146104.582049c.189395-.756848.374131-1.515789.554171-2.276788l-.408067 1.694739c.203059-.822948.400612-1.648351.592615-2.476165l-.184548.781426c.206382-.87234.406595-1.747385.600585-2.625086l-.416037 1.84366c.191413-.825274.37731-1.652945.557644-2.48297l-.141607.63931c.185797-.840633.365886-1.683702.540219-2.529162l.001425.00046.006576-.056052h-276.809c-1.279956 0-2.548272-.12154-3.790496-.360586l-.530743-.10963-.076761-.018784-27.34151-1.011552c-10.429978-.385917-18.780429-8.719214-19.240585-19.08987l-.012408-.346435-.007497-.413794v-29.5234c0-10.430226 8.014225-19.101174 18.393106-19.935409l.415449-.0286 26.772445-1.41494.220937-.06229c1.514871-.407183 3.080138-.636052 4.667983-.677754l.53008-.006956h277.157l-.070461-.377883c-.094505-.476894-.190838-.953042-.288994-1.428437l.289199 1.428331c-.167118-.843336-.339961-1.684346-.518481-2.522985l.229282 1.094654c-.171374-.830017-.3483-1.657736-.530734-2.483117l.301452 1.388463c-.180472-.847802-.366746-1.693181-.558775-2.536093l.257323 1.14763c-.184378-.83418-.374383-1.665971-.569967-2.495329l.312644 1.347699c-.190352-.835549-.386359-1.668673-.587975-2.499327l.275331 1.151628c-.200941-.852074-.407771-1.70158-.620441-2.548472l.34511 1.396844c-.205583-.846998-.416997-1.691427-.634193-2.533242l.289083 1.136398c-.205046-.816529-.415521-1.630628-.631379-2.442254l.342296 1.305856c-.218611-.847295-.443079-1.69194-.673354-2.533889l.331058 1.228033c-.217869-.819185-.441223-1.635852-.670016-2.449955l.338958 1.221922c-.223147-.815885-.451748-1.629237-.685756-2.440014l.346798 1.218092c-.236748-.84241-.47932-1.682075-.727665-2.518948l.380867 1.300856c-.235226-.814993-.475916-1.627383-.722023-2.437126l.341156 1.13627c-.237697-.800992-.480682-1.599425-.728912-2.395257l.387756 1.258987c-.249037-.819379-.50362-1.636046-.763703-2.449958l.375947 1.190971c-.255894-.820409-.517362-1.638053-.784354-2.452887l.408407 1.261916c-.258276-.808253-.521974-1.613788-.791049-2.41656l.382642 1.154644c-.26636-.812907-.538217-1.623016-.815525-2.430282l.432883 1.275638c-.264147-.78807-.533474-1.573477-.807939-2.356179l.375056 1.080541c-.273678-.796703-.552664-1.590636-.836911-2.381756l.461855 1.301215c-.303634-.865885-.613554-1.728459-.9297-2.587665l.467845 1.28645c-.278802-.775964-.562666-1.549222-.851547-2.319731l.383702 1.033281c-.293963-.798918-.593309-1.594924-.89799-2.387971l.514288 1.35469c-.292402-.779901-.589945-1.556986-.892583-2.331212l.378295.976522c-.303422-.789772-.612135-1.57661-.92609-2.360468l.547795 1.383946c-.307826-.787498-.620923-1.572038-.939243-2.353574l.391448.969628c-.309037-.771578-.623154-1.540268-.942304-2.306027l.550856 1.336399c-.321646-.789702-.648625-1.576338-.980888-2.35986l.430032 1.023461c-.304506-.730622-.613594-1.458575-.927226-2.183823l.497194 1.160362c-.333744-.787014-.672818-1.570887-1.017173-2.35157l.519979 1.191208c-.336489-.778105-.678207-1.553095-1.025106-2.324923l.505127 1.133715c-.327601-.742702-.659982-1.482517-.997099-2.219405l.491972 1.08569c-.36446-.810903-.734638-1.618315-1.110478-2.422183l.618506 1.336493c-.344796-.753674-.694547-1.504287-1.049206-2.251793l.4307.9153c-.345184-.738301-.695143-1.473613-1.049834-2.205893l.619134 1.290593c-.363499-.766138-.732154-1.529013-1.105915-2.288578l.486781.997985c-.359146-.74148-.723143-1.479851-1.091946-2.21507l.605165 1.217085c-.365935-.74366-.736764-1.484148-1.112441-2.221417l.507276 1.004332c-.375171-.747917-.755315-1.492572-1.140384-2.233919l.633108 1.229587c-.379269-.74432-.76348-1.48536-1.152583-2.223074l.519475.993487c-.385212-.741625-.775353-1.47994-1.170374-2.214899l.650899 1.221412c-.385408-.730709-.775616-1.458156-1.170578-2.182296l.519679.960884c-.414678-.771535-.834735-1.539371-1.260113-2.303455l.740434 1.342571c-.389115-.713421-.782845-1.423632-1.181144-2.130592l.44071.788021c-.393741-.707256-.792042-1.411298-1.194858-2.112083l.754148 1.324062c-.408874-.725729-.822562-1.448031-1.241018-2.16686l.48687.842798c-.411205-.715379-.827116-1.427366-1.247685-2.135914l.760815 1.293116c-.423601-.727668-.852087-1.451778-1.285408-2.172281l.524593.879165c-.428315-.721597-.861462-1.439628-1.299391-2.154046l.774798 1.274881c-.412945-.686623-.83028-1.369971-1.251963-2.050002l.477165.775121c-.421373-.687411-.847174-1.371476-1.277358-2.052153l.800193 1.277032c-.446977-.720823-.898839-1.43792-1.355534-2.151241l.555341.874209c-.421264-.666564-.846732-1.329879-1.276361-1.989906l.72102 1.115697c-.440711-.688356-.885922-1.373196-1.335588-2.054476l.614568.938779c-.472483-.725862-.949999-1.447747-1.432493-2.165602l.817925 1.226823c-.447531-.678046-.899474-1.352567-1.355783-2.023518l.537858.796695c-.470288-.699696-.945306-1.395563-1.425002-2.087552l.887144 1.290857c-.457875-.673253-.920147-1.342913-1.386768-2.008934l.499624.718077c-.479144-.691195-.962955-1.378521-1.451384-2.06193l.95176 1.343853c-.466755-.666212-.937863-1.328785-1.413277-1.987673l.461517.64382c-.462606-.64728-.929354-1.291046-1.4002-1.931257l.938683 1.287437c-.49009-.679229-.984757-1.354542-1.483949-2.025893l.545266.738456c-.464392-.631436-.932771-1.259414-1.405095-1.883895l.859829 1.145439c-.490233-.659302-.98483-1.314781-1.483744-1.966393l.623915.820954c-.52359-.692262-1.052028-1.380227-1.585257-2.063839l.961342 1.242885c-.482308-.629923-.96865-1.256232-1.458983-1.878885l.497641.636c-.536137-.68734-1.077118-1.370279-1.622884-2.048764l1.125243 1.412764c-.50156-.63691-1.007296-1.269996-1.517162-1.899213l.391919.486449c-.498183-.619331-1.000353-1.234949-1.506468-1.846814l1.114549 1.360365c-.518285-.639608-1.040837-1.275218-1.567608-1.906784l.453059.546419c-.493655-.596803-.991063-1.190034-1.492182-1.779655l1.039123 1.233236c-.543977-.652196-1.092453-1.30008-1.645374-1.943601l.606251.710365c-.51488-.605812-1.033677-1.207814-1.556349-1.805962l.950098 1.095597c-.51716-.601901-1.038209-1.199984-1.563102-1.794208l.613004.698611c-.532444-.609332-1.068909-1.214665-1.609347-1.815955l.996343 1.117344c-.541449-.612967-1.086988-1.221827-1.636569-1.826534l.640226.70919c-.576087-.640955-1.15669-1.277315-1.741752-1.909028l1.101526 1.199838c-.531749-.585087-1.067282-1.166286-1.606556-1.743556l.50503.543718c-.54705-.59067-1.097998-1.177277-1.652798-1.759776l1.147768 1.216058c-.569235-.609343-1.142638-1.214308-1.720157-1.814846l.572389.598788c-.5259-.552156-1.055261-1.100622-1.588044-1.64536l1.015655 1.046572c-.564128-.586614-1.132184-1.169004-1.704119-1.747126l.688464.700554c-.568027-.580772-1.139943-1.157306-1.715701-1.729558l1.027237 1.029004c-.567123-.573256-1.138059-1.142314-1.712764-1.70713l.685527.678126c-.547548-.544212-1.09857-1.084551-1.653026-1.620978l.967499.942852c-.591668-.581487-1.187329-1.158479-1.786933-1.730925l.819434.788073c-.548707-.530865-1.100777-1.057897-1.656171-1.581061l.836737.792988c-.589589-.562886-1.182991-1.121379-1.780157-1.675431l.94342.882443c-.613922-.578295-1.231905-1.151862-1.853895-1.72065l.910475.838207c-.577174-.535504-1.157865-1.066861-1.742028-1.594029l.831553.755822c-.658416-.602098-1.321323-1.19884-1.988655-1.790166l1.157102 1.034344c-.599415-.540932-1.202486-1.077453-1.809165-1.609519l.652063.575175c-.576584-.510913-1.156471-1.017782-1.739623-1.520569l1.08756.945394c-.612957-.53757-1.229597-1.070592-1.849873-1.59902l.762313.653626c-.585941-.505192-1.175177-1.006263-1.767666-1.503172l1.005353.849546c-.613796-.522908-1.231152-1.041317-1.852021-1.555182l.846668.705636c-.616527-.517071-1.236578-1.029635-1.860104-1.53765l1.013436.832014c-.623179-.515778-1.249897-1.026978-1.880106-1.533555l.86667.701541c-.611709-.498386-1.226763-.992393-1.845119-1.481978l.978449.780437c-.634124-.509723-1.271782-1.014766-1.912926-1.515082l.934477.734645c-.653338-.517282-1.310361-1.029629-1.971017-1.53699l1.03654.802345c-.635343-.49579-1.274109-.986937-1.916251-1.473398l.879711.671053c-.593055-.455444-1.189036-.906871-1.787907-1.354244l.908196.683191c-.646432-.489711-1.296285-.974673-1.949511-1.454839l1.041315.771648c-.62857-.469558-1.260324-.934651-1.895217-1.395236l.853902.623588c-.654134-.480833-1.311649-.956858-1.972499-1.428027l1.118597.804439c-.630643-.457502-1.264383-.910556-1.901179-1.359122l.782582.554683c-.651734-.464671-1.306711-.924621-1.964884-1.379804l1.182302.825121c-.716115-.504439-1.436094-1.003203-2.159875-1.496232l.977573.671111c-.651598-.450636-1.306329-.896601-1.964146-1.337852l.986573.666741c-.708331-.482505-1.420304-.959519-2.135862-1.430985l1.149289.764244c-.665294-.446266-1.333746-.887709-2.005308-1.324287l.856019.560043c-.695819-.458461-1.395027-.911677-2.097573-1.359599l1.241554.799556c-.686856-.446519-1.376965-.887948-2.070279-1.324239l.828725.524683c-.573361-.365558-1.148946-.727589-1.726725-1.086067l.898.561384c-.687432-.432589-1.378015-.860127-2.071698-1.282568l1.173698.721184c-.628653-.390042-1.259905-.775878-1.893717-1.157471l.720019.436287c-.698178-.425177-1.399498-.845191-2.103909-1.259994l1.38389.823707c-.664185-.399879-1.331182-.7951-2.000949-1.185623l.617059.361916c-.681297-.401191-1.365486-.797508-2.052522-1.188907l1.435463.826991c-.804125-.468862-1.612243-.930951-2.42428-1.386197l.988817.559206c-.694227-.395496-1.391362-.785971-2.091357-1.171382l1.10254.612176c-.691993-.387947-1.386832-.770925-2.084473-1.14889l.981933.536714c-.703327-.387244-1.409541-.769375-2.118598-1.146349l1.136665.609635c-.661794-.358545-1.326109-.712579-1.992907-1.062066l.856242.452431c-.733328-.389878-1.469696-.774239-2.209051-1.153035l1.352809.700604c-.59279-.310698-1.187541-.617801-1.784227-.921285l.431418.220681c-.715396-.36652-1.43359-.727829-2.154533-1.083882l1.723115.863201c-.73848-.375602-1.479922-.74566-2.224277-1.110124l.501162.246923c-.715626-.353428-1.433962-.701676-2.154961-1.044702l1.653799.797779c-.787987-.385828-1.579237-.765387-2.373689-1.13862l.71989.340841c-.718424-.341801-1.439493-.678417-2.163161-1.009804l1.443271.668963c-.79364-.37285-1.590475-.739387-2.390445-1.099551l.947174.430588c-.729431-.334027-1.461503-.662741-2.196169-.986099l1.248995.555511c-.720143-.324225-1.442827-.643286-2.168006-.957141l.919011.40163c-.749643-.32995-1.501987-.654323-2.256981-.973072l1.33797.571442c-.644177-.278797-1.290323-.553486-1.938407-.824038l.600437.252596c-.750492-.316848-1.503604-.628138-2.259286-.933825l1.658849.681229c-.710734-.296705-1.423798-.588434-2.139153-.875147l.480304.193918c-.741953-.300133-1.486383-.594863-2.233246-.884149l1.752942.690231c-.780976-.313014-1.564681-.62005-2.351062-.921057l.59812.230826c-.758902-.293948-1.520315-.582274-2.284192-.864931l1.686072.634105c-.785329-.300605-1.573326-.595196-2.36394-.883725l.677868.24962c-.735529-.272168-1.473341-.53908-2.213394-.800696l1.535526.551076c-.813539-.296894-1.629848-.587369-2.448868-.871368l.913342.320292c-.79317-.280393-1.588913-.554702-2.387177-.822876l1.473835.502584c-.542492-.188112-1.086174-.373383-1.631028-.555796l.157193.053212c-.762645-.256208-1.527591-.506817-2.294791-.751782l2.137598.69857c-.832915-.278854-1.668571-.551032-2.506908-.816476l.36931.117906c-.765252-.244343-1.532747-.483071-2.302439-.716141l1.933129.598235c-.855114-.270756-1.713018-.534506-2.573647-.791189l.640518.192954c-.775088-.234703-1.552404-.463669-2.331901-.686851l1.691383.493897c-.89723-.267599-1.797422-.527517-2.700504-.779685l1.009121.285788c-.765873-.219282-1.533852-.432981-2.303891-.641056l1.29477.355268c-.825888-.230613-1.654193-.454745-2.48486-.672342l1.19009.317074c-.797119-.215392-1.596447-.424757-2.397933-.628047l1.207843.310973c-.731571-.191639-1.464974-.378209-2.200172-.559675l.992329.248702c-.785721-.199292-1.573516-.392745-2.36334-.580317l1.371011.331615c-.837431-.206699-1.67719-.406776-2.51922-.600177l1.148209.268562c-.795849-.189003-1.593757-.372033-2.393677-.549047l1.245468.280485c-.716371-.164539-1.434385-.324246-2.15401-.479087l.908542.198602c-.804537-.178034-1.611109-.349982-2.419667-.515797l1.511125.317195c-.856032-.184193-1.714342-.361501-2.574873-.531871l1.063748.214676c-.789527-.161912-1.580948-.317977-2.374217-.46815l1.310469.253474c-.992541-.196504-1.988037-.383778-2.986397-.561734l1.675928.30826c-.803697-.152148-1.609291-.298249-2.416735-.438259l.740807.129999c-.617804-.110123-1.236706-.216678-1.856683-.319646l1.115876.189647c-.83039-.143989-1.662738-.281535-2.496991-.412591l1.381115.222944c-.646916-.107442-1.295003-.210977-1.944238-.310583l.563123.087639c-.798468-.125434-1.598681-.244922-2.400597-.358422l1.837474.270783c-.940366-.144272-1.88314-.280301-2.828249-.408017l.990775.137234c-1.642618-.23249-3.292377-.439854-4.948891-.621726-1.542932-.169509-3.091964-.316801-4.646561-.441677-.095851-.00763-.192018-.015268-.288207-.022821l.288207.022821c-.476611-.038285-.953746-.074463-1.431395-.108526l1.143188.085705c-4.159488-.326603-8.358549-.49273-12.591237-.49273zm-283.117759 36.336056c-44.990013 20.086234-77.210659 74.126046-77.210659 137.637651 0 63.512076 32.221123 117.552217 77.211659 137.638098zm452.479598 124.255357h-282.412403v32.14007h282.412403zm-302.413257.912294-11.277.596v29.387401l11.277.416599zm132.858182-309.153491c2.303693 0 4.171206 2.334391 4.171206 5.214007 0 2.879617-1.867513 5.214007-4.171206 5.214007s-4.171205-2.33439-4.171205-5.214007c0-2.879616 1.867512-5.214007 4.171205-5.214007zm0 2c-1.088693 0-2.171205 1.35314-2.171205 3.214007s1.082512 3.214007 2.171205 3.214007c1.088694 0 2.171206-1.35314 2.171206-3.214007s-1.082512-3.214007-2.171206-3.214007z"/></svg>