<svg height="960" viewBox="0 0 960 960" width="960" xmlns="http://www.w3.org/2000/svg"><path d="m506.774139 234.634122 130.030024 72.272922c12.694695 7.055929 20.567294 20.438585 20.567294 34.962407l-.000189 37.836078 49.890932 25.601993c13.200461 6.773934 21.554774 20.289836 21.7378 35.099128v230.936997c0 20.273392-15.167213 37.340904-35.300179 39.722937l-20.300732 2.401882c-6.89919.816278-13.556351-.167275-19.531566-2.559674l-.173255-.071263-2.416.255-.167879.121411c-5.140001 3.64299-11.198252 6.111984-17.808235 6.994593l-.602417.075856-95.3 11.277c-7.374949.872689-14.473373-.311251-20.757914-3.074254l-.263555-.118606-.343011.262812c-5.332019 4.013219-11.721989 6.733936-18.732631 7.670129l-.602422.075864-45.169105 5.34547c-10.373712 1.227662-20.816096-1.65152-29.09483-8.022048l-48.412637-37.25355c-10.427014 44.336346-15.632208 88.174084-15.632208 131.538531 0 44.964106 5.596152 89.623565 16.79944 134.014209l-41.168338.000116c-10.417775-44.360516-15.631102-89.041615-15.631102-134.014325 0-52.200764 7.023583-104.929977 21.047184-158.151754l-23.828369-18.335157c-16.969038 70.718725-25.416126 131.387764-25.416126 181.885177 0 53.697375 5.825613 96.247699 17.180597 127.453796.14045.385988.268275.773492.383687 1.16206l-42.12827.000316c-10.35991-34.275824-15.436014-77.1018-15.436014-128.616172 0-57.665924 10.130712-126.479678 30.3005-206.590531.161511-.641495.352335-1.267873.570682-1.878067l-5.865921-4.51419c-9.840183-7.572071-15.606106-19.284419-15.606106-31.700757v-302.892992c0-20.920288 16.12036-38.306935 36.980976-39.885906l187.748165-14.210937c7.804423-.590728 15.61068 1.121126 22.45173 4.923499zm44.547974 166.084386-94.859121 5.830706c.017437.253968.025379.510515.023475.769285l-2.147354 291.792009 37.660155-4.455979.000732-6.328818 40.699843-4.290917-.000575 5.803735 95.3-11.277.000732-5.235818 40.699843-4.290917-.000575 4.710735 20.300732-2.401882-.000887-220.584139-37.86 3.195.000432 72.927711c0 7.193265-5.451218 13.215953-12.608884 13.930714l-36.969839 3.691793c-.462268.046162-.926547.069285-1.391115.069285-7.731986 0-14-6.268013-14-14l-.000594-71.136503-24.005233 2.026012c-5.833829.492304-10.840889-4.110018-10.840889-9.964582l-.001583-43.978464c-.12559-.484728-.216294-.985034-.269041-1.498418-.126056-1.226895-.02467-2.424733.270046-3.551592zm-251.729-96.23.000155 282.21195 134.808845 103.73505 2.084895-283.264197c.01106-1.502837.353072-2.925803.956383-4.20027zm319.715709 131.430494-14.221423 1.093064.014701.02789c.64763 1.28678 1.016355 2.71144 1.06264 4.1804l.004967.31542-.000308 82.40829 24.97-2.493v-78.823l-7.089144-5.326062c-1.359943-1.02178-3.045415-1.513406-4.741433-1.383002zm6.379291-27.513494-54.366 5.586.000878 26.62753 8.226738-.69374c-1.286418-1.89701-2.097805-4.096418-2.338225-6.411125l-.033749-.373495c-.59275-7.709233 5.176299-14.439319 12.885532-15.032068l27.712295-2.130751c6.541782-.502986 13.042888 1.393285 18.288384 5.334437l11.082435 8.32668c1.490434 1.119823 2.61713 2.616601 3.287531 4.30502l21.486181-1.813488zm-8.317-60.009-92.046974 7.606466 41.108287 25.485121c.179017.106613.354423.218657.52599.335907 3.182144 2.148419 4.529924 5.471121 4.363818 8.696551l-.000121 3.364955 46.049-4.731zm-130.029681-78.799979-182.814319 13.836979 144.886026 103.509466 79.938-4.912-40.323553-24.998231c-8.11221-5.029109-5.222305-17.420195 4.159214-18.437932l.28627-.02734 102.690043-8.486963zm-40.511269 32.842247c33.857506 0 61.304439 3.977816 61.304439 8.884701 0 4.857816-26.900739 8.805052-60.290658 8.883511l-1.013781.00119c-33.857507 0-61.304439-3.977816-61.304439-8.884701s27.446932-8.884701 61.304439-8.884701z"/></svg>