<svg height="960" viewBox="0 0 960 960" width="960" xmlns="http://www.w3.org/2000/svg"><path d="m85.0997216 336 1.3700943.007246.1179485.000756c4.5954204.036224 10.3770266.18032 18.9347726.446501.992934.030885 2.030676.063611 3.221722.101525 11.331115.3607 14.733103.465378 17.008759.500146l.192456.002813c.063339.000884.125916.001714.187892.002497l.184279.002206.181618.001943.17991.001703.447827.003664.709271.001713c.049835.000155.099671.000403.149505.000744l.149502.001302.552685.005846.222506.002973c21.038449.339612 37.225386 9.259091 46.062676 27.071849.057003.114896.113452.230066.169347.345505l.130185.268872c.145351.300192.286941.602191.424737.905924l.085381.188199c.058383.128689.116084.257686.1731.386987 2.586353 5.865331 3.843115 11.568867 4.460016 18.043591.384356 4.034039.532419 8.507468.560378 14.895104l.004383 2.108613-.00022.239888-.017798 4.534776c-.067994 13.395207-.332003 53.991167-.792393 121.850231l-1.046261 151.746883.091588.182968c2.752398 5.608799 4.292481 11.859678 4.378189 18.414916l.003782.579185-.000663.271169-.000584.119879c-.003836.697852-.023566 3.486663-.044473 6.447412l-.00466.659995c-.017112 2.424637-.034283 4.869051-.043551 6.295099-.024738 3.80642-.045003 7.384264-.060394 10.795315l-.006257 1.442893-.000975.236434-.000177.043272-.000807.198988-.000258.064202-.00067.16732-.005435 1.442184c-.009823 2.756172-.015628 5.319244-.017031 7.641725l.00034 2.63995c.001311 1.407773.004518 2.713348.009646 3.909715l.00039.170379.576346.333404c5.264609 3.079978 9.987382 6.763999 14.092934 11.411539l.509974.585986c7.015097 8.182214 11.398746 18.513706 11.398746 30.232453 0 .280568-.002617.561079-.007847.8415l-.001153.022118.009 15.067868v.127591c0 10.149478-3.34045 19.414071-8.921878 27.09776-3.886554 5.350434-8.569419 9.592938-13.86515 13.122556-7.127967 4.750807-15.4009 8.20806-24.859336 10.885911-15.556434 4.404302-35.080512 6.782703-55.696654 6.878314h-1.156982c-20.7599672 0-40.5664359-2.33588-56.3517786-6.737308-9.5522001-2.663441-17.9058711-6.111192-25.0952271-10.85062-5.3393066-3.519823-10.0626548-7.754147-13.9902761-13.105958-5.66411628-7.717974-9.0627182-17.04915-9.0627182-27.290655v-16.059077c0-12.019162 4.59488488-22.537696 11.8888994-30.795685 4.5104296-5.106526 9.7480461-9.048522 15.6317507-12.298393l.2673499-.146304-.0009232-34.719325-.0000773-.052772-.0008818-.476902c-.0043311-2.14244.0019924-3.56006.0435375-4.924001l.020033-.583216c.0223328-.583843.0517794-1.175437.0902737-1.827612.2630032-4.455827.880651-8.664152 2.1931441-13.149553.8881276-3.035147 2.047046-5.952224 3.4621643-8.716342l.2127297-.409277-.0000827-292.512444c0-.226211.0019189-.452414.0057563-.678584l.0172675-.67839c.2987247-8.800544 2.4719699-17.332671 7.6715086-25.358242 6.8939239-10.640881 17.7079157-17.641759 29.9462432-19.812865.1647408-.029226.3296634-.057417.494758-.084573l.1618188-.026617c.1629555-.026804.3260755-.052599.4893504-.077382 3.3850367-.513819 6.0624838-.613337 10.3877215-.627903zm45.9824644 449.271038-27.158186 2.448962.028156.269789c.394602 4.202535-.173452 8.321515-2.444573 12.621268l-.241049.445457c-.363809.65661-.754717 1.283725-1.17036 1.881961 1.7814.040503 3.58381.061525 5.403826.061525 17.319194 0 33.044071-1.903581 44.631007-5.001405l-.26971.001405-1.185739-.000903c-2.565143-.006189-4.005553-.057313-5.543405-.263684-2.939592-.394476-5.486385-1.325491-7.765783-3.374973-2.542078-2.285668-3.803382-5.180277-4.210888-8.411046-.028413-.22526-.052791-.45098-.073296-.678356zm-56.080186-94.020039-.195.058.0009173.608956c-2.6660622.746441-4.1544746 2.3335-4.9842481 4.457212-.7109349 2.274309-.7957856 5.074022-.8011757 8.077246l.0003399.976949c.0003862.218495.0008784.43786.0012739.657976l.0006946 47.020203c0 12.299231-1.9947737 17.480892-4.0083153 34.664469-.0191245.163209-.0310134.754291.0190908.890198.6873915 1.864536 5.8431968 4.323712 8.6946347 4.965992.5295799.119287 1.0201192.208656 1.4811971.269842 1.9598122.180086 3.410918-.175883 5.1815172-.918616 2.3199711-.973185 3.651768-.994558 3.083625-4.137312-.0862241-.476959-.2173003-1.407896-.3776287-2.665643l-.0656545-.520227c-.3692738-2.953797-.8700612-7.407284-1.3362545-12.006361l-.0979874-.974016-.0966078-.975511c-.032797-.33389-.0652901-.667543-.0974164-1.000445l-.0952153-.995943c-.5169387-5.459653-.9168604-10.575213-.9168604-13.040461l-.0008424-11.038812c-.1343789-.465308-.25671-.934778-.3675333-1.407926-.6498151-2.774319-.857737-5.396458-.8577334-8.46591l-.0004016-.588517-.0008703-.670136-.0004304-.282091-.0001169-.073438-.0009226-.547043-.0001469-.082897-.000791-.432485-.0001697-.090119-.0009058-.468863c-.000636-.322777-.0013364-.666041-.0021028-1.030294l-.0009512-.447211c-.0126156-5.869333-.0409698-16.764257-.0899462-34.521374-.7632463-2.721017-1.9682472-4.847564-3.8690171-5.231574zm-29.5110898 87.154523-.0153548.010903c-2.8886662 2.042481-4.4755554 4.267831-4.4755554 6.596539 0 2.049374 1.2290195 4.018698 3.4927311 5.85378-.2394178-1.891104-.1482943-3.620909.073387-5.496045.2284425-1.932326.5592525-4.384747.9247921-6.965177zm104.7968578-24.314528c-4.007859.604698-6.735981 3.959058-6.867943 8.68755-.148709 5.328565-.267206 8.541916-.342471 9.418959-.093231 1.086411-.108998 1.882887-.009643 2.666311.174635 1.377012.715162 2.610747 1.804559 3.58494.976826.873526 2.068243 1.270341 3.327992 1.438474.65904.087959 1.276322.109749 2.375603.112387l.508143.000385c2.064538 0 3.938203-.25233 5.441169-.739074.90273-.292354 1.702102-.674767 2.391096-1.195974 1.222538-.92482 2.083727-2.245483 2.083727-3.996218 0-.785574-.349011-2.929611-1.214999-7.907416l-.069344-.39805c-.086416-.49538-.176141-1.007109-.266261-1.518991l-.077274-.438416c-.321815-1.823739-.638051-3.590397-.815978-4.562135-.683483-3.732795-4.624223-5.702554-8.268376-5.152732zm698.982662-418.090994 1.125814.005984.116912.000742c3.844725.03004 8.633257.148336 15.716158.366706.81772.025211 1.672024.051915 2.65224.082844 10.3822.327587 12.6261.394549 14.502922.412559l.258286.002202.099238.000963.63287.001736c.049397.000151.098795.000395.148191.00073l.148188.001279.454143.004762.220551.002921c19.739282.315838 35.49571 8.921746 44.066356 26.045132.057717.115314.114877.230907.171476.346773l.106974.218991c.147218.301376.29064.604592.430231.909576l.070158.153284c.059158.12925.117626.258814.175402.388686 2.506549 5.634364 3.709284 11.044717 4.288709 17.072628.343509 3.573618.471801 7.415595.495794 12.852804l.003601 1.717423-.000225.242015-.014664 3.702483c-.055906 10.916632-.272848 43.98202-.651199 99.258645l-.850556 122.223132.11082.251876c2.177955 5.065387 3.370987 10.566878 3.445691 16.234575l.003737.567314-.000127.064449c-.000042.013653-.000095.028738-.000157.045218l-.000826.184983c-.004147.845854-.019285 3.22062-.034705 5.615708l-.004022.624275c-.012712 1.972047-.024981 3.868443-.030768 4.838737-.021196 3.553627-.038008 6.862531-.049916 9.984697l-.004291 1.178768c-.008548 2.471031-.013578 4.757926-.014718 6.814772l-.000718.884628.570517.381564c3.457676 2.345792 6.652815 5.064675 9.560554 8.303828l.510142.577046c6.926686 7.955937 11.300787 18.109278 11.300787 29.704728l-.007.694834.007 12.281037v.10392c0 9.993341-3.3061 19.082033-8.791965 26.567754-3.756725 5.126227-8.229731 9.142971-13.244341 12.45583-6.551598 4.328257-13.98337 7.406679-22.392776 9.766594-13.133359 3.68559-29.347976 5.689114-46.462619 5.849879l-1.142285.007986h-.966014c-17.6394 0-34.518383-1.973121-48.132309-5.735713-8.484658-2.344974-15.981341-5.411819-22.582932-9.725506-5.052206-3.30127-9.560948-7.307663-13.355557-12.432762-5.565934-7.517498-8.929202-16.670459-8.929202-26.754062v-13.079791c0-11.825429 4.535872-22.1178 11.671721-30.125865 3.274718-3.674987 6.907481-6.682723 10.869018-9.233895l.293261-.186406-.000988-23.652964c0-.026561-.000005-.052612-.000016-.078825l-.000976-.634328-.000439-.238611-.000185-1.097609c.003541-2.050958.033389-3.310427.140648-5.111653.247995-4.164605.836578-8.139633 2.102463-12.42771.681682-2.309141 1.527629-4.548529 2.530184-6.70135l.176309-.37395-.000851-236.427009c0-.228216.001953-.456424.005859-.684599l.017575-.684399c.289562-8.455603 2.416007-16.730579 7.533668-24.560308 6.785663-10.381675 17.390415-17.186721 29.318158-19.284122.163417-.028735.327011-.056454.490773-.083153l.132968-.02168c.161629-.026352.323418-.051711.485358-.076076 3.232309-.486321 5.628593-.574605 9.531827-.587654zm-697.97093 434 .04284.152629c.154463.562366.299697 1.095424.434861 1.596296l.061299.230786-.096797.003753c-.127617.00446-.256826.008511-.38757.012137l-.192633.004399.012045-.145325c.040411-.538892.082358-1.154414.125955-1.847784zm-19.387146-10.10031-.247228.030064c-1.754817.214064-3.769107.456753-6.063679.731112l-.569532.068061c-.54761.065407-1.115504.133142-1.715896.204671l-.681854.081198c-.137568.016375-.271662.032335-.404748.048171l-.398703.047433c-.801233.095301-1.655026.196736-3.094313.367674-4.170151.495269-5.948901.707255-7.538207.899609l-.315988.038288c-.136258.016528-.305773.038679-.570779.074574l-.718695.097388c-.104743.013977-.104743.013977-.273733.03616l-.410727.052645c-2.607136.325714-4.756119.443717-7.361321.204236-.257852-.023703-.515267-.050925-.772185-.081747.125049 1.517842.277553 3.234364.452503 5.083171l30.531128-2.753744c.04945-1.618124.100808-3.361785.153957-5.228964zm4.155373-354.747582c-.713341.011366-1.460858.023114-2.239656.02317l-.381491.000797c-.496501.001549-.990511.005124-1.483231.010367l-.561758.006685c-.309166.004055-.618649.008716-.929811.013895l-.378772.006539c-1.191828.021279-2.418295.049652-3.751137.080462-.292862.00677-1.103592.011808-2.43219.015114l-.375184.000859c-.194012.000408-.397654.000784-.610926.001127l-.439382.000644c-.075371.0001-.151811.000197-.229322.00029l-.726482.000741c-.08393.000071-.168931.000139-.255001.000204h-5.687803l-.187686-.0001-1.358743-.000845-.200526-.000142-1.026704-.000792c-.418706-.000343-.847043-.000719-1.285009-.001127l-.888772-.000859c-3.305908-.003306-7.129684-.008344-11.4713273-.015114-.3065391 62.039248-.4681866 108.542253-.485167 139.509014l-.0004703 8.790806c.0021673 4.989204.0089773 9.480581.02043 13.474133.0044389 1.547819.0088824 3.097282.0133288 4.647781l.0133457 4.653988c.0069071 2.408773.0138163 4.818567.0207207 7.2271l.0082826 2.889488.0041386 1.444016.0082705 2.886028c.1102034 38.459642.2173631 76.01198.292536 103.306643.2917977 1.418214.5248393 2.883648.7151885 4.404619.2875552 2.297692.4575952 4.627726.5446542 7.016719.051075 1.401544.067334 2.479769.070316 3.88446l.000007 32.19278c.125626.149173.263173.283864.413611.403847 1.464916 1.168352 3.518676 1.068454 5.622905.805569l.341584-.043884c.056976-.007494.113967-.015064.170964-.022687l.683518-.092651c.284332-.038513.567725-.076184.848852-.110285 2.029313-.246159 4.828936-.578664 7.903841-.943856 1.262466-.149937 2.571413-.305395 3.892466-.462648l.680902-.081085c.569401-.067836 1.13996-.135881 1.708909-.203837l.56831-.067916c5.77028-.689943 11.278815-1.360342 13.617425-1.69713.474652-.068355.859542-.20576 1.070531-.539917.577597-.914778.623652-2.151459.627317-3.332466l.00074-.494692c.013817-4.002088.363162-64.305797.755424-132.003362.504599-87.084953 1.080189-188.695375 1.103011-196.169462l.000702-.339052c0-.164645.435614-.724945.214309-.866324-1.000976-.639469-2.65809-.237798-4.549989-.207652zm749.527114 307.613072-17.063841 1.53382-.002387.055711c-.1502 2.679976-.803784 5.374697-2.175658 8.154529l-.249955.49076.994753-.00308c9.490608-.053306 18.368713-.796243 26.005321-2.054932-1.373327-.515186-2.659625-1.266962-3.879364-2.354197-1.856916-1.655194-3.006849-3.638254-3.628869-5.822611zm-45.015628-79.984378c-.156079 0-.307219.006776-.453576.020084-3.461137 1.575607-3.813659 5.405694-3.842145 9.85787l-.002096.576114.000178.593456c.000592.397566.001817.798807.001817 1.202631v37.707234c0 10.004159-1.627315 14.218907-3.269941 28.19598-.015602.132753-.025301.613538.015574.724084.560766 1.516609 4.766818 3.516895 7.092991 4.039324 2.495728.560509 3.928611.308936 5.80517-.482925.71511-.301758 1.314145-.491049 1.756295-.751282.304343-.425122.38687-1.053888.190316-2.141154-.242938-1.34384-.922851-7.110603-1.514203-13.016145l-.116934-1.181689-.038291-.393403-.09205-.960229c-.423161-4.464571-.751105-8.653012-.751105-10.66814l-.000061-1.956708c-.318441-1.969104-.4258-3.891771-.425798-6.078193l-.000203-.394986c-.000056-.064711-.00012-.132347-.000192-.202943l-.000875-.716176-.00019-.13517-.000886-.587036-.000125-.078647-.000675-.411018c-.000096-.056788-.000194-.114375-.000293-.172765l-.000626-.359998c-.000109-.061616-.000219-.124043-.000333-.187285l-.000705-.389267c-.000122-.066519-.000246-.133862-.000373-.202033l-.000786-.418996c-.010578-5.576976-.034995-16.242712-.077919-34.016326-.565239-3.663108-1.757554-7.047478-4.27196-7.014263zm57.084387 55.644102c-.241738 8.723461-.43072 13.884538-.566947 15.483231-.412995 4.846724.352062 5.080069 5.165571 5.091298l.512509.000549.267306.000018c5.511028 0 8.957961-1.371533 8.957961-2.674366 0-.660592-.801711-5.511149-1.678098-10.605699l-.146631-.850674c-.808904-4.683691-1.646617-9.388198-1.953137-11.074117-.659483-3.62728-10.28642-5.189887-10.558534 4.62976zm-330.084957-510.330403 24.684995 1.699833c16.841343 1.159711 31.141678 12.767517 35.739709 29.010481l2.484295 8.775996c.841528 2.972775 1.331973 6.019086 1.471064 9.077863l.016294.446326 119.986403 11.941557c20.251648 2.015533 35.726462 18.903402 36.038597 39.187656v350.121887c0 21.149629-16.464268 38.644225-37.574995 39.926424l-521 31.6439c-23.002669 1.39711-42.425005-16.881366-42.425005-39.926425v-433c0-23.657269 20.420193-42.146145 43.961176-39.803379l227.072824 22.59838.329888-.299046c4.400363-3.931676 9.724302-6.935262 15.722131-8.634901l.58253-.160398 79.830711-21.343392c4.260375-1.139046 8.679788-1.565723 13.079383-1.262762zm324.312314 222.191665c-.521086.00955-1.067136.019421-1.636037.019468l-.278675.000669c-.362686.001302-.723554.004306-1.083479.008712l-.410357.005616c-.225841.003408-.451914.007323-.679213.011675l-.276688.005494c-.870614.01788-1.766531.04172-2.740153.067608-.253419.006738-1.037665.011434-2.35274.014089l-.410448.000735-.217167.000322-.699277.000781h-4.210818l-1.10536-.000781-.384379-.000322-.792643-.000735c-2.695229-.002655-5.921286-.007351-9.678171-.014089-.219399 51.074568-.33719 89.617127-.353373 115.627675l-.000871 1.592917-.000178.393234-.000161 7.885031c.002143 3.837187.006987 7.313705.014755 10.429553.006485 2.601068.012984 5.207665.019486 7.815687l.019501 7.824238.009737 3.907631c.074281 29.817133.146746 59.013525.200795 81.421021l.001957 1.106605.100162.860346c.179761 1.663325.291672 3.339222.353861 5.045746.048841 1.340254.06019 2.329417.06019 3.74271l-.000441 33.992479c.180844.544885.431108.976504.771987 1.289221 1.070101.981692 2.570344.897754 4.107454.676868l.249522-.036873c.04162-.006296.083252-.012656.124887-.019061l.499301-.07785c.2077-.03236.414715-.064012.620074-.092665 1.482385-.206832 3.527471-.486215 5.773646-.793063.922215-.125982 1.878382-.256604 2.843393-.388733l.497389-.068131c.41594-.056998.832725-.114172 1.248335-.171272l.415143-.057064c1.351804-.185918 2.683943-.370146 3.926344-.543981 1.071727-4.50624 3.429752-8.174986 6.720896-10.591598l1.182433-171.681608c.374202-55.225336.588903-88.28066.644099-99.165972-.740648-.342128-1.847884-.065186-3.094718-.042333zm-806.9885789-23.286166h-.7873643c-2.1646313.007181-3.7561861.059351-4.5175092.174929l-.1618189.026621c-2.1553045.382409-3.5595645 1.763314-4.2127799 4.142715-.1062267.615056-.1712568 1.284916-.1957291 2.008916l-.0001767 287.874818.21656.004372c1.2775974.036546 2.532354.176962 3.7562192.414721-.0713659-25.311784-.1686769-59.395479-.2980905-104.52176-.0107148-3.736232-.0173801-7.905596-.0199963-12.508192l-.0004986-8.862417c.0141202-31.007693.1760307-77.853548.4858641-140.55952.0544462-11.019156 9.0116636-19.918338 20.0309415-19.901156 4.3310746.006754 8.1757876.011722 11.5047646.015003l.85671.000817.210508.000193 1.030432.000891.201652.000164.985991.00075.192731.000136 1.307208.00082c.120992.000067.24098.000132.359962.000193l5.912028.000029.115854-.000091.766535-.000758c.069289-.000082.137513-.000167.20467-.000255l.575551-.000871.090297-.00016.427262-.000864c.271352-.000612.515675-.001295.732667-.002048l.247252-.000936c.507206-.002102.82884-.004673.959598-.007695 1.990641-.046016 2.811059-.063955 3.868133-.082825l.391104-.006748c.342014-.005693.674173-.010666 1.024713-.015249l.586915-.006968c.554584-.005902 1.097511-.009731 1.654305-.011457l.421772-.000839c.511162-.000038.957147-.005251 1.92247-.020633l-.023235-.000328c.004757-.001641.097296-.007792.31191-.023568.772361-.056777.927119-.067502 1.390848-.090693.82911-.041465 1.627343-.054532 2.492425-.0234-.162163-.605871-.350445-1.139757-.564827-1.626l-.085381-.188225-.130186-.268909c-1.352176-2.725872-2.91617-4.726501-10.875783-4.855006l-.552684-.005847-.838117-.002601c-7.458791-.047308-29.1960921-.973392-40.6015815-1.063309zm142.0976219-149.462001v432.462001l520.267-31.599001.000963-349.074281zm9.440129 10.989151 21.981055 2.188045 460.827835 45.871873 18.018944 1.793648v331.004165l-18.787226 1.141333-460.827835 27.995513-21.212773 1.288686zm20 22.089689v367.941692l460.827834-27.995513v-294.074306zm592.634693 115.383161h-.325075c-1.760546.005847-3.054995.048326-3.674197.142434l-.131611.021676c-2.392188.424916-3.646812 2.363898-3.763874 5.816946l-.000065 230.806944.105986.002071c1.189457.034755 2.358764.161963 3.500885.375964-.049552-19.845935-.112216-45.068789-.191285-76.782353-.007787-3.123561-.012647-6.607336-.014819-10.45141v-8.291751l.001207-1.595245c.016146-26.047972.134018-64.617426.353562-115.72578.047364-11.026056 9.009547-19.933832 20.035687-19.914056 2.930044.005255 5.56741.009197 7.883528.011934l.804068.000917c.395318.000433.780527.000829 1.15547.001189l.736152.000671.357723.0003 1.031337.000755 4.921337.000118.641378-.000813.165719-.000279.307836-.000619.142047-.00034.260179-.00074c.488328-.001558.783932-.003591.876762-.006059 1.469237-.039066 2.077666-.054368 2.8747-.070732l.290871-.005771c.259463-.004967.511942-.009316.788364-.013467l.439291-.005991c.425703-.005211.843304-.008598 1.280251-.010152l.325007-.000727c.245333-.00002.477487-.002413.880094-.009186l.116709-.002089c.117682-.009858.214334-.018035.307275-.025689l.138165-.011201c.260922-.020798.506614-.038227.770713-.05342.230459-.013257.459699-.024006.689917-.031813-1.065-1.875996-2.682866-3.200072-8.498261-3.294065l-.449511-.004761-.68166-.002118-.071684-.001292-.202617-.000837c-.076532-.000725-.154641-.001545-.234294-.002459-.188381-.002116-.385806-.004795-.591636-.007985-.153083-.002428-.310805-.005076-.472913-.007985-.207328-.003704-.421922-.007883-.643416-.012474-.210126-.00428-.4262-.008962-.648066-.013984l-.137416-.003326c-7.714874-.177394-22.205092-.751994-30.324006-.815443zm-275.985822-137.758001-.818 3.566 15.656 1.558 1.293-4.729zm-41.908649-11.24516-29.221351 7.81216 36.865 3.669-7.415875-11.12357c-.078765-.118157-.154685-.237381-.227774-.35759zm23.541649-6.29384-3.15.842 3.505 5.258z"/></svg>