<svg height="960" viewBox="0 0 960 960" width="960" xmlns="http://www.w3.org/2000/svg"><path d="m672.259442 295.334861c10.076133-1.920124 20.50485.104029 29.13105 5.654165l234.461533 150.853606c29.491129 18.974725 22.027494 64.01352-12.007908 72.460902l-733.887181 182.146394c-16.408612 4.072519-33.605736-2.610927-42.957986-16.695081l-140.18571258-211.114676c-15.81860333-23.822251-2.25561318-56.067026 25.83484238-61.419987zm7.48772 39.292926-639.6113618 121.885324 140.1857128 211.114676 733.887181-182.146394zm-390.409565 207.586637c42.182304-2.213006 78.338599 12.578001 79.628803 37.222455 1.290135 24.643117-33.122315 43.135724-75.303997 45.348697-42.182304 2.213006-78.338599-12.578001-79.628803-37.222455-1.290135-24.643117 33.122315-43.135724 75.303997-45.348697zm45.980871 24.23708c-11.772638-4.816013-27.891027-7.161372-45.037835-6.2618-17.146902.899576-32.932257 4.91873-44.137771 10.940364-9.70529 5.215441-14.369131 10.99839-14.133879 15.491993.235219 4.492962 5.47655 9.755402 15.672549 13.926435 11.772638 4.816013 27.891027 7.161372 45.037835 6.2618 17.146902-.899576 32.932257-4.91873 44.137771-10.940364 9.70529-5.215441 14.369131-10.99839 14.133879-15.491993-.235219-4.492962-5.47655-9.755402-15.672549-13.926435zm320.813054-43.528451 7.822833 6.163883c4.338033 3.418086 5.083797 9.705664 1.66571 14.043696-3.418087 4.338033-9.705664 5.083796-14.043697 1.66571l-7.822833-6.163883c-11.99774-9.453436-27.658517-12.904186-42.518297-9.368628l-145.637712 34.651293c-1.403602.333956-2.690766 1.041279-3.725184 2.047065-3.167728 3.080045-3.238808 8.144867-.158762 11.312594l4.608282 4.73947c3.850058 3.95966 3.761207 10.290686-.198452 14.140743-3.95966 3.850057-10.290686 3.761207-14.140743-.198452l-4.608283-4.73947c-10.78016-11.087047-10.531379-28.813921.555667-39.594081 3.620463-3.520249 8.125537-5.995879 13.038143-7.164726l145.637713-34.651293c20.803691-4.949781 42.72878-.118731 59.525615 13.116079zm-440.772435-80.652822c52.951383-2.761227 98.042302 15.573546 99.601103 45.168929 1.559136 29.601758-41.364936 52.529227-94.319277 55.290609-52.951383 2.761227-98.042302-15.573546-99.601103-45.168929-1.559136-29.601758 41.364936-52.529227 94.319277-55.290609zm59.920943 26.160589c-15.500391-6.302736-36.589075-9.352806-58.98358-8.185012-22.394066 1.167771-43.046038 6.394314-57.798226 14.27405-13.237878 7.070881-19.845671 15.214822-19.48333 22.094227.362503 6.882472 7.793506 14.298403 21.705076 19.955095 15.500391 6.302736 36.589075 9.352806 58.98358 8.185012 22.394066-1.167771 43.046038-6.394314 57.798226-14.27405 13.237878-7.070881 19.845671-15.214822 19.48333-22.094227-.362503-6.882472-7.793506-14.298403-21.705076-19.955095zm383.777238-5.654427c1.729479-24.697397 40.098357-38.470438 84.817042-35.347867 44.719845 3.122652 80.798078 22.095174 79.068422 46.795081-1.729479 24.697397-40.098357 38.470438-84.817042 35.347867-44.719845-3.122652-80.798078-22.095174-79.068422-46.795081zm-316.052406-13.860613c.599833-34.503758 54.872305-58.018305 120.021416-56.876512 65.148298 1.14178 118.568662 26.54295 117.96886 61.044952-.599833 34.503758-54.872305 58.018305-120.021416 56.876512-65.148298-1.14178-118.568662-26.54295-117.96886-61.044952zm119.705999-38.879275c-28.349356-.496847-54.891325 4.121719-74.297943 12.529994-17.770559 7.699422-27.252047 17.531728-27.410775 26.662156-.158744 9.131287 8.976213 19.290958 26.469217 27.608812 19.102846 9.083328 45.46831 14.62918 73.817779 15.126028 28.349356.496847 54.891325-4.121719 74.297943-12.529994 17.770559-7.699422 27.252047-17.531728 27.410775-26.662156.158744-9.131287-8.976213-19.290958-26.469217-27.608812-19.102846-9.083328-45.46831-14.62918-73.817779-15.126028zm279.909616 35.348299c-18.43268-1.287099-35.8184.70736-48.584473 5.289919-11.024221 3.957297-16.725333 9.112472-17.022708 13.359073-.297289 4.245354 4.628484 10.14103 14.992657 15.591255 12.002748 6.311906 28.941041 10.703058 47.37357 11.990145 18.43268 1.287099 35.8184-.70736 48.584473-5.289919 11.024221-3.957297 16.725333-9.112472 17.022708-13.359073.297289-4.245354-4.628484-10.14103-14.992657-15.591255-12.002748-6.311906-28.941041-10.703058-47.37357-11.990145zm-172.57075-56.09797c1.542423-22.097278 36.313797-33.723405 76.971549-30.875233 40.65624 2.848066 73.471193 19.207539 71.928997 41.301565-1.542423 22.097278-36.313797 33.723405-76.971549 30.875233-40.65624-2.848066-73.471193-19.207539-71.928997-41.301565zm75.713689-12.919237c-16.482796-1.154659-32.009432.45728-43.367175 4.254845-9.478723 3.169297-14.199503 7.185706-14.390205 9.917769-.190818 2.733731 3.92786 7.371281 12.875588 11.832056 10.720106 5.344371 25.871994 9.105465 42.35496 10.260136 16.482796 1.154659 32.009432-.45728 43.367175-4.254845 9.478723-3.169297 14.199503-7.185706 14.390205-9.917769.190818-2.733731-3.92786-7.371281-12.875588-11.832056-10.720106-5.344371-25.871994-9.105465-42.35496-10.260136z"/></svg>