<svg height="960" viewBox="0 0 960 960" width="960" xmlns="http://www.w3.org/2000/svg"><path d="m437.264939 209.629256c2.993597.261812 6.02121.756508 9.027812 1.531286 1.94702.501732 3.892505 1.121976 5.855779 1.899655 2.65961 1.053507 5.283905 2.363993 7.905246 4.060693l2.76719 1.889539c6.400998 4.603287 12.380081 10.55223 17.27639 17.534154 1.570964 2.240127 3.018071 4.566181 4.307474 6.9863 6.487814.04218 13.112186.8955 19.91845 2.450558 6.294365 1.438101 12.082095 4.028111 17.13495 7.550809 12.665829-13.238829 30.495728-21.399563 50.09073-21.399563 38.315934 0 69.376054 31.062193 69.376054 69.378014 0 38.315822-31.06012 69.378014-69.376054 69.378014-9.829669 0-19.205703-2.051228-27.675001-5.819278 8.169266 7.669176 13.789868 17.661396 16.03933 29.16505 1.441612 7.372346 4.252589 23.508075 8.497944 48.761913l64.979506 16.03418c-.000639-.400342.009164-.800712.023144-1.201058.349613-10.011608 3.277822-19.52945 8.319008-28.076338 4.209485-7.136813 9.738265-13.370328 16.319138-18.826672 10.515404-8.718549 23.812301-15.529074 39.36453-20.770117 27.864968-9.39039 63.46285-13.788997 100.753145-12.486209 37.290227 1.302787 72.494733 8.174957 99.636907 19.486987 15.148714 6.313521 27.93809 14.035243 37.819633 23.466129 6.184177 5.902142 11.264626 12.506113 14.966013 19.919114 4.224843 8.461359 6.473428 17.668685 6.344009 27.185312l.028577-.000004v24.454953c0 .830316 0 1.661087-.032237 2.49175-.25276 7.238093-1.861654 14.275743-4.68227 20.890907-2.521448 5.913528-5.942384 11.343186-10.104412 16.287896-1.804773 2.144166-3.739514 4.188682-5.806463 6.133348l-5.373494 123.592843c-.382751 8.803454-3.661762 17.234158-9.327776 23.982756-11.23848 13.385772-24.951082 24.069411-40.868891 31.980279l-2.085286 35.908131c-.364279 6.27278-2.201184 12.371518-5.361871 17.802035-5.842157 10.037668-11.470439 18.485393-17.057851 25.456529-3.186174 3.975231-6.410253 7.53635-9.746652 10.700789-3.999128 3.793011-8.19282 7.053892-12.745386 9.738314-7.574345 4.466216-15.668585 7.841224-24.152431 10.240193-7.315027 2.068463-14.818664 3.383545-22.447341 4.046577-12.111545 1.052651-24.083869.439828-35.14883-1.319855-14.472823-2.301643-26.919633-6.141274-37.527003-12.101315-6.509747-3.657681-12.309715-8.115378-17.246393-13.473987-5.542568-6.016283-9.809666-12.983297-12.556035-20.686809-1.537033-4.311348-2.322692-8.854519-2.322761-13.431657l-.000986-65.055821c-14.253638-9.850459-25.820674-22.248091-34.395541-37.044724-1.84767-3.188305-3.245905-6.616637-4.155032-10.187724-3.26335-12.81856-6.521385-23.058136-9.639211-30.555266-1.314008-3.159667-2.534303-5.663422-3.590756-7.469068-.223751-.382425-.424516-.706702-.597672-.9709-.041063-.026415-.083947-.053648-.128597-.081649-1.127097-.706827-2.792588-1.548294-4.983016-2.454595-5.482919-2.268587-13.086548-4.466176-22.695083-6.430629l-54.829777-7.398272.000558 315.723982c.000039 22.091417-17.908582 40.00007-40 40.00007h-58.0276c-22.091389 0-39.999998-17.908607-40-39.999996l-.000033-316.48953-172.675221 24.008383-.002053-.014764c-14.806619 2.415885-29.574782 1.471147-43.844849-2.823011-10.923973-3.287248-20.797845-8.519481-28.817669-14.963389-4.062338-3.264078-7.696505-6.877479-10.729405-10.819256-2.036181-2.646368-3.843738-5.482147-5.376079-8.657767-1.070825-2.219175-1.989613-4.570331-2.715729-7.12298-.934435-3.284993-1.516116-6.764795-1.598127-10.518367-.001266-.024236-.003156-.058307-.005658-.10113-.018495-.316461-.052626-.810723-.102228-1.469257-.047994-.637182-.106847-1.382577-.191045-2.424871-.0199-.246345-.1878-2.313716-.239425-2.955428-.046394-.576676-.088026-1.099467-.127564-1.602949-.437044-5.565424-.65042-9.08589-.65042-12.375251 0-9.028742 2.322404-17.622825 6.607495-25.128114l.000457-31.41246-33.478661 17.53226c-6.441671 3.373404-13.604889 5.135534-20.8764076 5.135534h-41.6577092c-17.9980803 0-33.6634632-10.5321-40.8681572-26.164031s-5.03610026-34.383639 6.6552087-48.067359l8.3033828-9.718428-20.6617833-31.544256c-9.25414518-14.128264-9.66503572-31.766469-1.94532272-46.05128 7.71971302-14.28481 22.69962862-23.605607 39.58888682-23.605607h58.2501747c11.343645 0 22.268797 4.284168 30.588809 11.99508l39.476717 36.586865c.512493-.134645 1.045231-.215947 1.581104-.288401 11.379824-1.538628 20.668318-2.339271 28.313733-2.339271 7.645416 0 16.93391.800643 28.313734 2.339271 7.978677 1.07877 15.262138 4.119214 21.363142 8.630457l78.993854.000002c10.035652-5.096237 21.882539-6.142041 33.001544-2.434046l19.298577 6.435739c7.409019 2.470778 13.939773 6.871285 18.941351 12.71538 2.114991-5.154334 3.795713-9.259499 5.052442-12.340249-10.630588-6.342384-18.825948-16.273676-23.421943-28.698781-2.845328-7.692243-4.167001-15.795031-4.364611-24.349405-.156759-6.785963.403808-13.870551 1.574963-21.276179.125644-.794489.252817-1.574046.382181-2.338097-2.621681-3.779037-4.836732-7.866446-6.657472-12.212976-3.652575-8.719547-5.163016-17.867628-4.806539-27.000082.288998-7.403744 1.788225-14.552849 4.226453-21.35087 3.963648-11.051038 10.596787-21.483998 18.18853-28.460748 6.363478-5.847985 14.424839-10.851744 22.199617-14.023148 3.021355-1.232438 5.859064-2.004543 8.684037-2.521548 1.893469-.346529 3.734954-.563856 5.558816-.685405 2.864999-.190934 5.764083-.1463 8.605094.102167zm37.207349 363.12935-25.143772 3.494212.000231 342.243987h58.0276l-.000831-341.302987zm247.89723 130.842528.001942 66.819661c3.647352 10.230752 15.625527 16.961019 35.934526 20.190801 4.553789.724198 10.372495 1.329423 16.818962 1.334911 11.972011.010192 26.109157-2.0481 38.330289-9.254295 7.030987-4.145823 15.463005-14.666034 25.296056-31.560632l2.359481-40.625483c-17.626965 4.000491-37.485416 5.337143-59.577885 4.109957-22.518169-1.250832-42.238848-4.880213-59.163371-11.01492zm-275.545504-302.593876-.047066.096825c-.126022.265154-.243947.534068-.353572.806749-2.758826 6.862279-13.242804 32.385629-31.451933 76.570049-.9293.248307-1.855651.495832-2.779051.742577-1.126527.301022-2.248543.600849-3.366168.899515-.78013.208476-1.558144.416391-2.334018.623741-.51657.138051-1.032272.275872-1.547025.413442-2.275371.608105-4.531569 1.211131-6.769245 1.809255-2.882994.770614-5.735747 1.533223-8.557746 2.287691-1.747823.467284-3.4857.931939-5.211753 1.393465-.447969.119781-.895824.239534-1.342879.359076-1.092235.29206-2.181086.583229-3.265156.873131-.481686.128813-.963277.257603-1.443921.386142-.336305.089938-.672946.179968-1.009121.269874-.982304.262706-1.961903.524699-2.937514.785637-5.388887 1.441314-10.656905 2.850631-15.803209 4.227725-.542063.14505-1.082268.289607-1.621125.433806-.844972.226118-1.68701.451459-2.525732.675923-1.957135.523779-3.895998 1.042721-5.816802 1.556881-.729802.195353-1.456757.389952-2.181106.583861-1.603668.429303-3.193956.855063-4.771485 1.277444-5.108355 1.367756-10.083631 2.700281-14.925073 3.997374-.611965.163954-1.220256.326931-1.826419.489345-.654695.175417-1.307777.350409-1.958371.524743-1.119206.299904-2.23083.5978-3.335093.893747-.956195.256264-1.90688.51107-2.852045.764414-.452538.121299-.903746.242246-1.353689.362858-2.189331.586874-4.34833 1.165716-6.477389 1.736631-1.275978.342159-2.54055.681296-3.79438 1.017588-2.039227.546946-4.048577 1.085977-6.029552 1.617495-.644399.1729-1.284358.344619-1.921327.515547-.990509.265798-1.975206.530063-2.952654.792408-.413984.111113-.824358.221261-1.233446.331069-.43309.116251-.864439.232039-1.294349.347447-.602022.16161-1.201532.322557-1.798217.482755-.836061.224467-1.665319.447128-2.489048.668325-1.243251.333852-2.473884.664363-3.691923.991539-4.723618 1.268809-9.2573 2.48733-13.60161 3.655716-1.106726.29765-2.201745.592202-3.28446.883498-1.236964.332795-2.457055.661119-3.661109.985197-1.274639.343077-2.531594.681473-3.770569 1.015109-.444866.119796-.88757.239019-1.327954.357629-.336263.090566-.670962.180717-1.004309.270511-.189206.050966-.379269.102165-.568891.153247l4.237232 19.000351c1.88193 8.441763-.572457 17.102319-6.242498 23.264531 39.104962-7.846313 112.407276-22.654893 219.900307-44.425023l140.534147 28.279954c7.722033 1.772326 12.909514 3.155984 15.562442 4.150971 8.11605 3.043946 11.666864 6.171493 13.032392 7.473076 13.090311 12.477313 22.308339 30.404705 27.654085 53.782175 3.905074 9.437598 7.694821 21.372685 11.36885 35.804407.193262.333489.388922.665197.586981.995125l.411289.676961c.133568.217237.268191.433691.40387.649361.054823.087144.109909.174304.165168.261336.294124.463234.59294.922522.896647 1.37818.404423.606766.817648 1.207274 1.239552 1.80134.341234.480472.687928.956439 1.040293 1.428198.163872.2194.329212.438205.495781.656096.063996.083715.128174.167294.192533.250739l.020776.026923c.352083.456063.709903.90848 1.07316 1.356862.446354.550952.900928 1.095824 1.363709 1.634603.391289.455544.788396.906678 1.19137 1.353457.184474.204527.370227.408195.55721.61095.069892.075788.140203.151715.210687.227513.406771.437406.817457.868638 1.233856 1.295629.200545.205646.402327.41022.605434.61381.097236.097465.193856.193793.290775.289901.201159.199478.403927.39832.607982.596206.409048.396683.823304.789561 1.242733 1.178601.409087.379437.822459.754659 1.240737 1.12624.136776.121503.27372.242307.411186.362723l.688702.596303c.212586.181937.426389.362972.641409.543103.200008.167556.401367.334575.603781.50081.101583.083425.203322.166564.305327.249506.267884.217822.537599.434284.809145.649388l.696754.545836c1.275059.987854 2.589573 1.946421 3.94354 2.875702.03739.025662.074696.051223.112031.076762l.202302.137968c.530831.360928 1.067218.717101 1.609606 1.06882l.705032.452532c.071841.045642.143786.091208.215834.136697 1.186027.748823 2.400043 1.47687 3.642048 2.184142.560578.319224 1.126605.634079 1.69833.944705.685119.372242 1.379083.738753 2.081243 1.099179l.844683.428667.863426.4282c.141024.06913.282367.138023.424029.20668 1.232618.597396 2.489623 1.177008 3.770756 1.738709 16.323504 7.156749 36.562898 11.405861 60.718959 12.747674 23.648365 1.313613 44.152077-.54234 61.511138-5.567859.438957-.127081.875743-.25614 1.310519-.387224l.872997-.266764c.056661-.017546.113289-.035128.169881-.052744.677383-.210858 1.349861-.42672 2.017388-.647573.434864-.143875.867827-.289936 1.298686-.438117l.862773-.300551c.029612-.010447.059213-.020905.088805-.031372.680282-.24064 1.355862-.486874 2.026113-.738479.721656-.270903 1.437014-.547985 2.146195-.831292.624392-.249427 1.24488-.504054 1.860568-.763519.44143-.186029.880463-.374576 1.317027-.565612.882425-.386144 1.754434-.782299 2.616363-1.188613.73616-.347021 1.465517-.701728 2.187511-1.063856l.820206-.416207c.29021-.148984.579212-.299185.867005-.450605.035076-.018454.070133-.036927.105172-.055417 1.585819-.836854 3.134872-1.710763 4.647161-2.621729.542199-.326606 1.079868-.658099 1.612809-.994359.373391-.235589.744912-.473811 1.114105-.71438.791389-.515667 1.572417-1.042345 2.342743-1.57981.346242-.241578.69-.485105 1.031601-.730808l.721952-.524876c.00665-.004888.0133-.009776.019949-.014665l.801232-.596235c.240465-.181094.479819-.363308.718061-.546643.023739-.018269.047122-.036281.070493-.054305.095822-.073895.191465-.147972.286927-.222231.456931-.355442.909577-.714918 1.358098-1.078552.504126-.408708 1.003548-.823099 1.497748-1.242753.551676-.468463 1.096645-.943307 1.635112-1.424704.445501-.398281.886774-.801256 1.323591-1.208722.328191-.306134.654309-.615228.977905-.926864.424753-.409061.844713-.822051 1.260338-1.239412.529281-.531522 1.049869-1.068372 1.563471-1.612264.612097-.648192 1.214416-1.306547 1.806806-1.97491.108586-.12251.216964-.245501.325008-.368829.393883-.449603.783227-.903571 1.168129-1.362016l5.221497-120.08536c-3.080908 1.289655-6.311195 2.502165-9.682288 3.638211-25.427253 8.568889-58.653284 12.674422-93.667842 11.451139-34.28145-1.197671-66.50497-7.371234-91.095215-17.325021-12.873312-5.210937-23.586964-11.421783-31.63192-18.613199-4.198623-3.753164-7.706949-7.803067-10.428585-12.179901l-126.427457-31.1976c-6.120273-36.831167-10.177406-60.562045-12.171399-71.192636-2.697903 5.20685-7.209674 9.44103-12.945587 11.725283-7.661498 3.051093-15.515722 4.615014-23.449412 4.615014-7.980074 0-15.87926-1.582223-23.582718-4.668259-6.871398-2.75271-11.993096-8.31348-14.318779-15.00238zm27.619897 138.170271c-102.555436 20.769328-173.184399 35.039084-212.578572 42.947341l187.463369-26.063883 25.102843-3.489093 32.923965 4.441924 101.57949 13.705432c9.378771 1.87645 17.585678 4.020361 24.62072 6.431731-1.220138-1.416298-2.485079-2.74791-3.794299-3.995822-.20156-.192122-.405358-.355917-.957613-.708939-1.209084-.772894-2.931379-1.626932-5.299006-2.514917-.219853-.082456-.648788-.224995-1.247918-.406761-.747549-.226794-1.672529-.488106-2.763453-.779089-2.288144-.610316-5.211902-1.326273-8.75214-2.140541zm-247.935573-61.024172c-.102432.008883-.205027.017193-.307783.024929l-.029941.002235c-.017301.001284-.034606.002551-.051915.003801-.102051.007378-.205105.014238-.308314.020519-.045658.002776-.090608.005399-.135588.007911-.091963.005139-.18467.009846-.277499.014084-.045276.002067-.090251.004008-.135255.00584-.093536.003808-.187559.007151-.281704.010012-.277775.008436-.556077.012677-.835369.012677l-35.283454-.000547.000649 70.055076c0 2.322396 1.340878 4.437528 3.44217 5.426513 5.346508 2.516365 13.071978 3.436437 23.176409 2.760216 9.977669-.667737 17.635691-2.581491 22.974066-5.741259l.212779-.131978c2.09287-1.359101 3.132135-3.884258 2.585346-6.336986l-4.044173-18.136929zm454.197809 23.149913.015839.016697c.212009.225215.42832.449787.648896.6737.025415.027097.052443.054458.079535.08181.134449.134459.269031.268552.405141.402402.264743.261555.535821.521488.812637.780477.101857.094171.203182.188142.305261.281987.092157.085817.186047.171445.280565.256967.29977.270183.604352.539076.915116.806885.27551.238388.556202.475212.841713.711162.146848.120451.293492.240383.441379.360085.303152.246242.612749.491592.927555.735948.108825.083666.217448.167392.326682.250999 19.917722 15.244833 60.147363 26.563549 106.866923 28.195762 54.650433 1.90929 101.365807-10.023187 117.434523-28.143489-6.969784 4.301567-15.183664 8.008874-24.464849 11.136591-23.829168 8.03032-54.507654 12.140711-87.088606 11.618847-1.722318.020724-3.4644.008837-5.218705-.035387l-3.926539-.152956c-1.945206-.102813-3.864611-.244964-5.748006-.42531l-4.703928-.253619c-30.085011-2.188366-57.951547-8.22833-79.623342-17.260492-7.251086-3.022037-13.791217-6.368104-19.52779-10.039066zm81.470004-1.654898c-.207405 4.287482 10.707252 8.151191 25.478278 9.406152 1.961128.103889 3.934187.190712 5.91896.260052 1.984468.069331 3.958475.12041 5.920931.153604 16.003214-.222193 28.457802-3.645223 28.676018-8.156178.239403-4.948957-14.339824-9.333294-32.563615-9.792693-18.223792-.459399-33.191168 3.180107-33.430572 8.129063zm22.629222-82.202191c-11.065983.019333-21.718485.609777-31.754878 1.703046-.866866.094428-1.729424.19264-2.587252.294562-12.88742 1.531185-24.707686 3.899753-35.017109 6.956283-1.215569.360393-2.40995.73029-3.582606 1.109504-6.368908 2.059613-12.096475 4.393783-17.067044 6.963524-.185122.095707-.369096.191688-.552014.287994-7.379822 3.885367-13.042998 8.29917-16.594848 13.108275-.285362.386347-.557564.775952-.815885 1.16805-1.308802 1.986603-2.261247 4.037091-2.830664 6.142526-.101451.375102-.19078.752126-.267789 1.130845-.008511.041648-.01678.083067-.024903.124506-.084036.428893-.152355.860215-.204643 1.293628-.035091.290783-.062908.582004-.083468.874141l-.030475.560286c-.000796.020712-.001555.041429-.002279.062151l-.010044.679113c.000069.039022.000264.078038.000592.117046l.000817.091005-.000422-.049999c.227673 18.091971 28.306624 34.604051 69.060997 43.211025-.231493-1.488591-.317851-3.022547-.241945-4.59168.250016-5.168338 2.20698-9.758305 5.249456-13.480354 2.073014-2.536047 4.502402-4.512454 7.221-6.138891 3.671548-2.196552 7.913606-3.76431 12.751773-4.940771 8.069548-1.962212 18.159092-2.861781 28.688997-2.596335 10.546536.265865 20.551709 1.675133 28.461187 4.05371 4.792632 1.441265 8.957483 3.255682 12.517514 5.707301 2.673695 1.841243 5.021343 4.043183 6.944098 6.821736 2.798678 4.04434 4.367915 8.909469 4.113442 14.169954-.070185 1.450862-.274885 2.856145-.600352 4.209446 40.532515-6.06873 68.780531-20.709306 69.410346-38.752936.883576-25.313634-52.924576-47.739277-120.183872-50.089074-4.035557-.140988-8.027848-.2065-11.967727-.199617zm-740.8847417-46.30268c-3.9751235 0-6.3607109 4.41437-4.1826182 7.739654l35.0438705 53.501328c1.2175498 1.858828 1.0622578 4.298161-.3811796 5.987586l-25.3537265 29.674461c-2.77246 3.244937-.4665999 8.247932 3.8014387 8.247932h41.6577092c.8079465 0 1.6038596-.195792 2.3196008-.570615l56.2907898-29.480029.000853-20.228174c0-2.876032.452488-5.658149 1.294039-8.273474l-48.841855-45.26589c-.862807-.799643-1.977775-1.267617-3.147358-1.32646l-.251389-.006319h-43.5938697zm158.2105377 45.954273c-5.546935 0-13.198346.659531-22.954232 1.978592-3.47189.469422-6.059568 3.435797-6.059568 6.939278v25.239721c0 3.785452 3.004784 6.869099 6.75935 6.995941l.24065.004059 8.744339-.000864 33.211808.000317 2.071454.000547c3.865993 0 7-3.134007 7-7v-25.239721c0-3.503481-2.587678-6.469856-6.059568-6.939278-9.755887-1.319061-17.407298-1.978592-22.954233-1.978592zm147.995018 6.325752c-1.565276.03679-2.926017 1.315028-2.926017 3.001487v1.642491l-96.055654-.000686v9.288l96.055654.001258v2.655497c0 1.671702 1.333065 2.933729 2.869524 2.999938l.165347.002482.166596-.006885c.278527-.019398.560966-.07872.840886-.18244l19.298578-7.150822c2.656345-.984271 2.594056-4.762834-.093288-5.659016l-19.298577-6.43574c-.285687-.095271-.572751-.145262-.854611-.154717zm148.314329-85.055708-10.446815.000488c-2.314517 10.135419-7.750667 19.38613-15.431684 26.720284-1.703919 1.626974-3.501796 3.142637-5.377954 4.537262l-1.728466 22.801379c-.164887 2.174785 1.100065 4.205676 3.124676 5.016743 5.381746 2.155949 10.763492 3.233923 16.145238 3.233923 5.349948 0 10.699897-1.065274 16.049845-3.195822 2.073163-.82561 3.346203-2.927988 3.121726-5.148178l-.432566-4.267079zm-15.059861 28.324931c4.193808 0 7.866363.089309 11.332627.307501l-19.350737-.000831c2.635454-.204749 5.314204-.30667 8.01811-.30667zm-41.62094-71.329519c-7.823625 0-12.627054 2.864103-15.900769 9.032822-.247568.46647-.486645.952403-.717602 1.457466-.023298.050952-.046201.101407-.069025.152052-.238.528108-.46731 1.076806-.688668 1.646339-.145199.373592-.286874.755858-.425335 1.147135-.144064.407093-.284838.824525-.422354 1.251807-.02232.069353-.04452.138856-.066635.208618-.076121.24013-.151098.482856-.225116.728651-.024495.081344-.048639.162195-.072681.243376-.052825.178365-.105121.358188-.156944.539605-.064175.22467-.127481.451264-.190091.6803-.075175.274999-.149328.553449-.222526.835431-.016451.063372-.032865.12697-.049232.190747-.077835.303305-.154555.610513-.230256.921778-.159302.655032-.314016 1.327705-.464764 2.018493-.059428.272324-.118223.54738-.176435.82526-.084504.40339-.167733.812484-.249838 1.227552-.188863.954731-.371879 1.941625-.550197 2.960527-.123416.705217-.244479 1.425131-.363708 2.160474-.04174.257438-.083131.515983-.124317.776413-3.184483 20.136603 0 35.898653 15.924596 35.898653s32.921439-14.740414 32.921439-32.923636c0-.451436-.008452-.900169-.025151-1.34605-.036076-.963693-.110683-1.914255-.221698-2.850054-.073818-.621004-.163673-1.235992-.269-1.844012-.010725-.063955-.02193-.127643-.033303-.191254-.190376-1.06151-.427612-2.101712-.708785-3.118094l-.178042-.6269c-1.301897-4.388813-3.422897-8.318783-6.088269-11.600635-.193943-.238852-.390721-.474164-.590275-.705972-.633586-.735917-1.294553-1.436001-1.980068-2.09851-.361023-.34891-.728751-.687293-1.102791-1.014919-.308638-.270376-.622141-.533871-.939678-.789826-.390906-.315042-.788116-.618834-1.190925-.910826-.446414-.323697-.899328-.632575-1.358404-.926499-.267271-.170965-.53708-.337277-.808844-.498407-.32778-.194564-.658882-.381652-.992589-.561011l-.418907-.220103c-3.355977-1.727959-6.962537-2.676791-10.572813-2.676791zm129.789245-23.230543c-.276843 0-.552792.00383-.827796.01144-1.541102.042649-3.052437.203977-4.525301.475174-.214141.039426-.427831.081251-.640679.125378-.046269.009593-.092516.019298-.138722.029111-.215806.045835-.430652.09402-.644595.144545-4.137037.977034-7.935952 2.828674-11.191037 5.349016-.185856.143903-.369994.290032-.552321.438303-.385198.31324-.762719.636415-1.131769.968813-.082954.074717-.165262.149699-.24714.22514-.169714.156372-.337639.314772-.50368.475112-.048211.046555-.096351.093361-.144332.140329-.068828.067376-.137454.135215-.205746.203388-.151364.151083-.302248.30502-.451438.460594-.735978.767465-1.430842 1.574986-2.080867 2.418832-.363343.471687-.712588.954594-1.047208 1.448222-.120229.177354-.238832.356496-.355508.536999-.111361.172285-.220753.345462-.328373.519849-.434305.703772-.839517 1.426797-1.214253 2.167856-.127246.251634-.250965.505322-.371107.761025-.085209.18136-.168455.363368-.249886.546362-.094988.213453-.187635.428559-.277768.644975-.029384.070549-.058612.141511-.087569.212612-.084092.206493-.165639.413466-.244889.621572-.176667.463916-.341941.933531-.495451 1.408436-.076584.236932-.150158.474899-.220768.714138-.361608 1.225268-.645399 2.483337-.845821 3.769014-.019328.124-.037785.247598-.055471.371445-.195408 1.368181-.296558 2.767444-.296558 4.190334 0 1.809742.163628 3.581264.476896 5.300577.082753.454184.17596.904767.279353 1.351449.478639 2.068042 1.1759 4.053022 2.066018 5.928695.085162.179454.172041.357811.260662.535146.11734.234804.237702.467758.361062.69887.042454.079534.085152.158646.128201.23754.521939.956551 1.095707 1.881159 1.717391 2.769774.134089.191667.270534.381831.409175.57028.876434 1.191383 1.841309 2.314912 2.884497 3.360248.151429.151741.304538.301864.459269.450309.062118.059593.124431.118855.187004.177845.171801.161959.345138.321497.520378.478957.143677.1291.288752.256906.435086.383293.175741.151784.353362.301572.532765.449273.150206.123662.30156.245782.45414.36642.182952.144651.367538.287072.553846.427328.76719.577539 1.563231 1.118137 2.385845 1.619436.124401.07581.249403.150717.375004.224716 1.321558.778609 2.709305 1.456696 4.152818 2.023805.214267.084175.429416.165779.645756.244911.047823.017494.096436.03513.145109.052642 1.018096.366269 2.061587.67774 3.127583.931114.198591.047205.398177.092439.598523.135629.2263.048789.453952.095044.682544.138649 1.414842.269881 2.865482.438265 4.344248.497328.138216.00552.276579.010082.41518.013685.097023.002522.19441.004578.291914.006159l.485786.003936c16.223947 0 29.376054-13.152985 29.376054-29.378014s-13.152107-29.378014-29.376054-29.378014zm-87.917735 11.37393c-3.565828 0-7.49338.489995-11.782657 1.469985l-.286772.069943c-.25569.06634-.506964.142263-.753469.22733l-.263643.095139c-.014902.005615-.029786.011264-.044652.016947l-.277855.11102c-.147529.061529-.293126.126418-.43671.194562 2.035325 1.652192 3.957049 3.479526 5.743504 5.464791 6.767795 7.520969 11.299814 16.959238 12.981366 27.211804l9.450179-.00032.02484-.012678c.028062-.015359.05604-.030847.083931-.046464.114329-.064018.226956-.130032.338098-.198134.042515-.026048.084865-.052438.126947-.079103l.25643-.168043c.034229-.023191.068302-.046585.102217-.070182.172608-.12007.341728-.245864.506387-.376599l.018748-.01492c.200209-.159728.393984-.326899.580939-.501062.029519-.027497.05875-.055059.087782-.082766.249836-.238438.486828-.489213.710322-.751496l-.028515.033317c.022293-.025932.044454-.051978.066279-.077897.025103-.02981.050033-.059765.074945-.090058.230392-.280154.445681-.572897.644723-.87689.05292-.080835.104475-.162109.154894-.244183l.112071-.186974c.020995-.035907.04177-.071953.062325-.108136.017994-.031668.035743-.063312.053308-.095033l.097913-.181199-.068139.127031c.066706-.122236.13092-.245976.192486-.370956l.026039-.053255c.147551-.304028.280221-.616773.396948-.93684.028959-.079398.057077-.15966.084201-.240389.060006-.178627.114996-.359066.164933-.541476.019572-.071476.038499-.143777.056629-.216371.083322-.333729.149727-.673069.198499-1.017627l.04057-.324895c.002452-.02264.004827-.045302.007127-.067983.033916-.334558.051262-.673571.051262-1.016134l-.000139-1.463605-.000682-1.490831.000682-7.743169.000139-4.158902c0-4.663841-3.225092-8.708513-7.771773-9.747314-4.289276-.97999-8.216828-1.469985-11.782657-1.469985zm-51.536019-34.096848-.317666.006545c-.939131.02959-1.747106.148675-2.252734.354925-3.293885 1.343606-7.347283 3.778444-10.241253 6.43798-4.374767 4.020375-13.306959 18.712803-7.780799 31.905032.146461.349639.298809.695523.457043 1.037652 7.13799-9.232082 17.451006-13.788673 29.799918-13.788673 3.860197 0 7.667011.546114 11.34451 1.580536-.020797-.341358-.043815-.684533-.068307-1.028965l-.074401-.992779c-.974814-12.378445-9.11411-20.643044-14.642649-24.221469-1.375859-.890543-4.076633-1.31228-6.223662-1.290784z"/></svg>