<svg height="960" viewBox="0 0 960 960" width="960" xmlns="http://www.w3.org/2000/svg"><path d="m835.985524 5.7089475c22.09139 0 40 17.90861 40 40v867.6504085c0 22.091402-17.908629 40-40.000032 40h-135.458411c-11.59813 0-19.738273-.539376-30.025725-2.741371-15.507638-3.319359-29.944712-9.848071-42.743859-20.454287-29.742605-24.646682-44.754587-66.215467-44.754587-125.472324v-663.994746c0-.682903.017489-1.365694.052448-2.047702 1.715441-33.465637 10.501686-64.0922727 25.399683-87.5967336 17.636497-27.8249712 43.691887-45.3432449 74.14881-45.3432449zm-368.575472 0c22.09139 0 40 17.90861 40 40v867.6504085c0 22.091396-17.90862 40-40.000017 40h-266.236755c-11.59813 0-19.738273-.539376-30.025725-2.741371-15.507638-3.319359-29.944712-9.848071-42.743859-20.454287-29.7426049-24.646682-44.7545868-66.215467-44.7545868-125.472324v-663.994746c0-.682903.0174884-1.365694.0524479-2.047702 1.7154406-33.465637 10.501686-64.0922727 25.3996829-87.5967336 17.636497-27.8249712 43.691887-45.3432449 74.14881-45.3432449zm287.173775 39.9983632-71.979976.0016368-.928508.0118831c-30.587694.7834915-55.866268 40.2317845-58.672433 94.9757974v663.994746l.016381 3.195593c1.012869 98.079414 48.74739 104.954186 73.120039 105.436066l1.539319.023062c.250919.002647.498962.013261.744043.013261l57.00504.000632c-23.35275-20.600602-35.676284-56.063344-35.676284-108.537603v-664.26228c0-.341315.008738-.682573.026203-1.02344 1.547904-30.209405 9.379535-57.5194984 22.316513-77.9382971 3.770376-5.9508907 7.953458-11.2763623 12.489663-15.8910572zm81.401697.0016368-40.165053-.0020324c-29.407722 2.8861345-53.34288 41.6488547-56.069023 94.8531899v664.26228l.016381 3.196881c.960477 93.043554 43.934093 104.040837 69.160056 105.34066l27.057639-.00057zm-484.855897-.0006357-167.879577.0006357-.928508.0118831c-30.587694.7834915-55.866268 40.2317845-58.672433 94.9757974v663.994746l.01638 3.195593c1.01287 98.079414 48.747391 104.954186 73.12004 105.436066l1.539319.023062c.250918.002647.498962.013261.744042.013261l152.905625.000632c-23.352749-20.600602-35.676283-56.063344-35.676283-108.537603v-664.26228c0-.341315.008737-.682573.026203-1.02344 1.547903-30.209405 9.379535-57.5194984 22.316513-77.9382971 3.770103-5.9504604 7.952853-11.2755921 12.488679-15.8900561zm116.280425.0006357-75.054637-.0008685c-29.402306 2.8953754-53.331406 41.6548312-56.057183 94.852026v664.26228l.01638 3.196881c.960477 93.043554 43.934094 104.040837 69.160057 105.34066l61.935383-.00057z"/></svg>