<svg width="960" height="960" viewBox="0 0 960 960" fill="none" xmlns="http://www.w3.org/2000/svg">
<path d="M480 22C596.205 22 702.04 32.8833 779.373 50.7793C817.879 59.6902 850.425 70.5869 873.83 83.3926C885.523 89.7903 895.873 97.1662 903.511 105.804C911.26 114.567 917 125.589 917 138.5C917 138.797 916.995 139.093 916.989 139.389C916.995 139.592 917 139.795 917 140V180.867C917 198.333 906.718 212.162 894.638 222.281C885.045 230.317 872.688 237.456 858.45 243.839C851.487 382.401 778.645 502.795 672 569.537V775.351C672 798.128 663.522 822.04 644.125 838.14C625.745 853.394 605.38 866.16 583.5 875.932V898H585C596.046 898 605 906.954 605 918C605 929.046 596.046 938 585 938H546C534.954 938 526 929.046 526 918C526 907.801 533.634 899.386 543.5 898.155V889.94C523.162 895.203 501.895 898 480 898C457.026 898 434.743 894.92 413.5 889.144V898H415C426.046 898 435 906.954 435 918C435 929.046 426.046 938 415 938H376C364.954 938 356 929.046 356 918C356 907.801 363.634 899.386 373.5 898.155V874.569C352.756 864.984 333.412 852.695 315.875 838.14C296.478 822.04 288 798.128 288 775.351V569.537C181.355 502.795 108.512 382.402 101.549 243.839C87.3113 237.457 74.955 230.316 65.3623 222.281C53.2816 212.162 43.0001 198.333 43 180.867V140C43 139.795 43.0046 139.592 43.0107 139.389C43.0046 139.093 43 138.796 43 138.5C43 125.589 48.7405 114.567 56.4893 105.804C64.127 97.1662 74.4767 89.7903 86.1699 83.3926C109.575 70.5869 142.121 59.6902 180.627 50.7793C257.96 32.8833 363.795 22 480 22ZM632 575.778C585.614 597.761 534.197 610 480 610C425.803 610 374.386 597.761 328 575.778V775.351C328 788.766 332.968 800.345 341.421 807.36C379.755 839.176 427.843 858 480 858C532.157 858 580.245 839.176 618.579 807.36C627.032 800.345 632 788.766 632 775.351V575.778ZM310.298 532.155C360.451 562.635 418.403 580 480 580C541.566 580 599.491 562.652 649.626 532.2C596.71 547.604 539.589 556 480.041 556C420.435 556 363.258 547.588 310.298 532.155ZM220.266 453.306C231.508 467.137 243.696 480.057 256.722 491.951C323.214 520.036 399.229 536 480.041 536C560.788 536 636.748 520.061 703.204 492.017C716.097 480.25 728.172 467.479 739.32 453.813C660.749 477.044 573.065 490 480.643 490C387.554 490 299.273 476.853 220.266 453.306ZM785.189 380.213C693.711 407.572 589.84 423 479.796 423C369.942 423 266.239 407.626 174.875 380.355C179.398 390.326 184.333 400.039 189.657 409.47C192.984 415.055 196.445 420.539 200.04 425.912C283.458 454.009 379.012 470 480.643 470C581.597 470 676.558 454.22 759.584 426.469C763.313 420.917 766.9 415.249 770.342 409.47C775.691 399.994 780.649 390.233 785.189 380.213ZM818.702 237.292C805.957 241.288 792.042 245.025 777.118 248.479C700.721 266.158 595.678 277 480 277C364.322 277 259.279 266.158 182.882 248.479C167.957 245.025 154.042 241.288 141.297 237.292C142.92 279.255 151.189 319.33 164.984 356.372C258.063 386.044 365.412 403 479.796 403C594.369 403 701.884 385.988 795.069 356.225C808.832 319.224 817.081 279.199 818.702 237.292ZM877 168.109C822.989 206.919 665.665 235 480 235C294.335 235 137.011 206.919 83 168.109V180.867C83.0001 181.472 83.3117 185.138 91.0469 191.617C98.6185 197.959 110.912 204.865 128.395 211.73C128.512 211.777 128.627 211.827 128.743 211.875C145.192 218.02 164.87 223.782 187.391 228.993C261.917 246.24 365.376 257 480 257C594.624 257 698.083 246.24 772.609 228.993C795.124 223.783 814.797 218.022 831.243 211.879C831.364 211.829 831.484 211.778 831.605 211.73C849.088 204.865 861.381 197.959 868.953 191.617C876.688 185.138 877 181.472 877 180.867V168.109ZM860.215 121.732C858.67 127.802 854.984 133.077 850.418 137.497C844.365 143.357 835.98 148.531 826.087 153.165C806.246 162.458 778.173 170.567 744.28 177.281C676.329 190.743 582.897 199 480 199C377.103 199 283.671 190.743 215.72 177.281C181.827 170.567 153.754 162.458 133.913 153.165C124.02 148.531 115.635 143.357 109.582 137.497C105.016 133.077 101.329 127.802 99.7842 121.732C99.4968 121.91 99.2118 122.085 98.9326 122.262C93.1036 125.951 89.0579 129.356 86.4541 132.301C83.0938 136.101 83 138.087 83 138.5C83 138.913 83.0938 140.899 86.4541 144.699C89.9259 148.625 95.9614 153.369 105.369 158.517C124.166 168.801 152.69 178.699 189.646 187.251C263.237 204.281 365.903 215 480 215C594.097 215 696.763 204.281 770.354 187.251C807.31 178.699 835.834 168.801 854.631 158.517C864.039 153.369 870.074 148.625 873.546 144.699C876.906 140.899 877 138.913 877 138.5C877 138.087 876.906 136.101 873.546 132.301C870.942 129.356 866.896 125.951 861.067 122.262C860.788 122.085 860.502 121.911 860.215 121.732ZM480 62C365.903 62 263.237 72.7189 189.646 89.749C161.929 96.1631 138.955 103.334 121.271 110.857C121.073 110.941 120.877 111.027 120.681 111.111C119.308 113.096 119 114.554 119 115.5C119 116.902 119.674 119.43 123.493 123.128C127.325 126.837 133.516 130.894 142.396 135.054C160.103 143.347 186.362 151.077 219.606 157.663C285.931 170.803 378 179 480 179C582 179 674.069 170.803 740.394 157.663C773.638 151.077 799.897 143.347 817.604 135.054C826.484 130.894 832.675 126.837 836.507 123.128C840.326 119.43 841 116.902 841 115.5C841 114.554 840.691 113.097 839.317 111.111C839.122 111.027 838.926 110.941 838.729 110.857C821.045 103.334 798.071 96.1631 770.354 89.749C696.763 72.7189 594.097 62 480 62Z" fill="black"/>
</svg>
