<svg height="960" viewBox="0 0 960 960" width="960" xmlns="http://www.w3.org/2000/svg"><path d="m486.958658 132.548014c120.749716 0 210.652432 11.77504 270.34411 35.882779 5.698429 2.30143 10.022397 7.094932 11.726285 12.999628l30.587984 106.000593.112675.260126c1.493589 3.458921 2.729946 6.034714 3.62426 7.614375l.110002.192262c.727761 1.258065 1.959331 3.103853 3.659472 5.457978l.247591.342259.656606.440014c20.706576 13.964185 37.038466 29.839749 47.441471 45.774786l.461838.713542.077832.122271.659675 1.044664.077926.124412c1.445585 2.326891 2.760439 4.650191 3.938978 6.963488l.125674.250823 1.472794.797318c55.162119 30.168179 93.490765 82.438597 94.387719 127.431859l.015925 1.448835-.000542.19253-.007896.957458.032028 4.412559.011708 3.383032v2.111734l-.011774 2.669683-.001046.135449-.02655 2.372321c-.003578.227211-.003578.227211-.00745.454218-.498523 28.350819-16.350483 54.301395-44.601576 76.76693-25.396828 20.195795-61.115004 37.843117-105.156205 52.339044-88.068657 28.98733-205.867374 44.263177-331.005775 42.082682-64.351274-1.121299-126.601438-6.788386-183.725339-16.386241-.264104.840619-.647223 1.660156-1.151682 2.435785l-10.187002 15.662971c-2.284066 3.511854-6.515039 5.227766-10.600059 4.298957l-101.267899-23.025228c-4.552453-1.035088-7.782892-5.08248-7.782892-9.751124v-17.414161c0-1.409163.291473-2.750249.817419-3.966258-5.244285-1.770619-10.390817-3.585821-15.435831-5.443618-43.507862-16.021515-78.5876213-34.902592-103.2632665-55.971122-27.4491158-23.436572-42.38465482-49.924373-41.8927951-78.206482l.02198627-1.549131.01438568-1.79698.00668727-2.021431-.00644839-3.889397-.0196973-3.384168-.01818603-2.227853c-.01050051-.170078-.00060708-.340167.00234363-.510226.83845118-48.322506 45.03765577-103.797318 107.24238347-132.883966l1.745532-.806979.153782-.301424c10.321158-20.162985 27.065248-37.505981 49.162397-50.795226l.764821-.45835.433953-.911573c15.119512-31.820923 26.768774-56.528122 34.941692-74.108226l.277275-.596561c4.345079-9.350627 7.679603-16.628692 9.993111-21.809822 1.124861-2.519141 1.996957-4.517274 2.605659-5.966929.271236-.645961.478675-1.155835.615256-1.508224l.009099-.023253.006185-.012198c-.001734.009335-.015875.056564-.046574.159442l-.015656.052344.084963-.272001c1.766516-5.539283 5.86017-10.043313 11.222298-12.325379 56.946859-24.235995 145.469682-36.02562 266.33836-36.02562zm-305.76269 499.751395.001556 7.242216 86.685 19.709 3.314989-5.096281c-31.999211-6.056343-62.189821-13.379968-90.001545-21.854935zm-21.097178-246.570629c-54.64475 17.966317-93.4416494 40.273193-113.4791663 64.145399-3.3137606 7.915777-5.0906174 15.4017-5.2068627 21.961722l.0092757-.202887.0169203 1.967042.0203346 3.513386.0066873 4.069919-.0072851 2.213804-.0149896 1.893352-.0013121.12014-.0296311 1.736651c-.5442895 31.61091 41.4416767 67.459318 118.988719 96.015563 82.494434 30.378093 195.304587 49.024168 316.207798 51.130866 120.903312 2.1067 234.296726-12.597879 317.803106-40.083559 78.499034-25.837539 121.713884-60.202392 122.269683-91.810482.00312-.182974.00312-.182974.004951-.285715l.025404-2.285999.010474-2.447438v-1.954999l-.011194-3.239609-.032143-4.482173.000067-.295987.007411-.958762-.003714-.461175c-.08942-6.039837-1.569536-12.913826-4.351475-20.211179-18.950866-24.826637-57.090738-48.711182-111.288311-68.707251-1.18651.201122-2.442707.188195-3.733206-.0808l-114.344172-23.834194c-2.999657-.625256-5.547088-2.591232-6.912194-5.334473l-2.134178-4.288433c-58.863963-10.708944-123.461568-16.994907-190.292608-18.284382l-2.512754-.046109c-121.928526-2.122236-236.391837 12.704817-321.015635 40.527762zm326.780769-26.116495c99.818035 1.747317 193.237526 17.087827 262.402382 42.372103 71.659548 26.196248 113.305285 61.479972 112.616009 101.303214-.696973 39.822158-43.546186 73.627658-116.074431 97.300177-70.002755 22.848224-163.899276 34.909785-263.717395 33.162466-99.818034-1.747316-193.237525-17.087827-262.402382-42.372102-71.659547-26.196249-113.305284-61.479973-112.616009-101.303214.696973-39.822159 43.546186-73.627659 116.074431-97.300178 70.002756-22.848223 163.899276-34.909784 263.717395-33.162466zm307.178415 84.863826.502196.629221c6.028275 7.801305 9.157551 15.903161 9.014079 24.183271-.975646 55.200738-147.04088 97.420509-326.255414 94.3005-179.214534-3.12001-323.713471-50.398317-322.756993-105.599055.071648-4.053717.92574-8.037431 2.517944-11.938325-19.363279 14.107546-29.733507 29.289695-30.000147 44.371258-.488206 28.499028 35.061081 58.617627 99.490957 82.170958 66.925244 24.465551 158.169395 39.448846 255.885575 41.15937 97.716151 1.710523 189.426036-10.070151 257.161722-32.178426 65.209578-21.283776 101.784341-50.139105 102.288152-78.635334.335928-19.609836-16.390634-39.986483-47.848071-58.463438zm-562.650939-33.348611-1.36062.439754c-39.057665 14.540488-60.22069 31.799825-60.484501 46.683959-.307518 17.798738 29.127992 40.029385 83.479342 57.812307 58.607873 19.17559 138.716554 31.033747 224.53868 32.527855 85.822209 1.49411 166.297119-7.568408 225.54043-24.692357 54.941505-15.880535 85.138363-37.074074 85.453811-54.87158.307518-17.798737-29.127992-40.029384-83.479342-57.812306-30.903511-10.111152-67.785059-18.187781-108.330101-23.783231-35.058754-4.47386-72.155555-7.156094-110.235221-7.82268-96.73899-1.693417-187.591238 9.835887-255.122478 31.518279zm573.560242-37.958486 1.65597 4.641474c13.538167 4.952978 26.209673 10.168462 37.960773 15.623819-3.372191-1.876482-6.821478-3.655897-10.344173-5.329237-3.218932-1.529048-5.716359-3.604729-7.545629-6.002539-6.434148-2.838954-13.156655-5.617987-20.160804-8.330811zm-644.835882-13.051117c-7.138234 2.369393-14.006096 4.813534-20.597096 7.326232-1.460507 1.250203-3.174347 2.336922-5.148052 3.209293l-.595788.253539c-10.147717 4.154829-19.768611 9.123377-28.723259 14.752818 14.73071-6.768725 31.031962-13.093561 48.78488-18.930436 86.902888-28.572274 203.566555-43.68435 327.610404-41.525296 63.297968 1.101737 124.708055 6.619064 181.394529 16.095435l-3.0243-6.08017c-55.834328-9.4355-116.326704-14.920638-178.683716-16.016368-121.930983-2.142557-236.395576 12.826375-321.017602 40.914953zm496.14025-93.103166c.355751.477148.671145.989157.940477 1.531817l42.181878 84.989452 19.203277 4.013014 64.301 13.265-31.586912-88.661407-34.318733.000086c-.693242 0-1.384226-.072086-2.061839-.214867l-.404875-.094141zm136.990239 73.291383 4.058079 11.395535c2.203301-.872894 4.723319-.970373 7.123379-.090121 1.254763.460201 2.502666.922882 3.743645 1.38802-4.378052-4.261454-9.372606-8.525393-14.925103-12.693434zm-512.937233-50.093302-2.984789.47697c-40.080469 6.448893-71.830282 16.16804-95.403082 28.999442-10.291991 5.976139-18.806673 12.913649-25.475108 20.58037 86.634942-28.289379 202.2203-43.221714 325.038708-41.063563 58.065383 1.020318 114.572821 5.790429 167.365631 13.976679l-16.145479-32.445322c-29.935582-4.25972-63.536936-7.132783-100.794607-8.612549l-1.873925-.073839-3.033044-.020594c-84.837522-.516419-167.067403 5.545397-246.694305 18.182406zm210.106726-117.664798h-3.472719c-110.148389 0-191.298618 10.074242-242.790604 29.659649l-.486017.186351-.237091.541198c-6.145442 13.980254-18.993073 41.477388-39.816976 85.374871 20.266525-7.287224 43.791188-13.06333 70.534782-17.366338 82.669038-13.301334 168.070451-19.596993 256.199218-18.890247.100632.000807.201246.003133.301807.006977 34.411534 1.31548 65.850332 3.797146 94.323382 7.449909.35612-1.312381.983515-2.560969 1.871491-3.659046l7.343224-9.080677c2.456373-3.037567 6.456661-4.366662 10.242428-3.403046l73.800063 18.784992 32.445912-.000593-17.32824-60.049-1.091193-.391259c-53.687344-19.082908-134.471013-28.952556-241.839467-29.163741z"/></svg>