<svg height="960" viewBox="0 0 960 960" width="960" xmlns="http://www.w3.org/2000/svg"><g fill="#000" fill-rule="evenodd"><path d="m489.049195 50c2.867852 0 5.735285.0693219 8.59979.2079051l8.176479.3985706 12.193875.6056678 8.082022.4089867 12.052194.6212931 7.987571.4194044 7.949793.4235718 7.912015.4277396 11.797194.6494245 7.817576.43816 11.655541.6650563 7.723145.448582 7.685375.4527512 7.647604.4569207 11.400592.6931993 7.553185.4673455 7.51542.4715158 7.477655.4756864c48.384341 3.0992594 96.754923 6.6135832 145.111721 10.5429675 91.503265 7.435387 162.186243 83.2006317 163.590753 174.7236977l.021305 2.778195v456.408038c0 89.532753-66.449796 165.146114-155.214147 176.6185l-4.767708.613427-7.21159.917487-4.847748.60989-4.879767.608475-7.379694.910062-7.451749.906883-5.007868.602824-7.57186.90159-7.643936.898416-7.716018.895245-5.184062.59507-5.216105.593661-5.248149.592254-7.932311.885743-8.004423.882581-8.076542.879419-8.148669.876259-8.220802.873103-5.520613.580316-8.341042.867845-5.600779.576813c-53.566056 5.49423-107.166219 10.352177-160.800424 14.573832-26.656016 2.098147-53.009813-1.774265-77.480308-11.136672l-1.078354-.416608-.694058-.273731-191.332289-62.388982c-53.689621-17.506877-91.349463-65.21466-96.554029-120.707984-12.270662-8.803793-22.855472-18.357431-31.695578-28.727509l-.776193-.917955-.783032-.940819-.789931-.963739-.397571-.490484-.800393-.998231-.8074439-1.021298-.4063847-.519318-.818133-1.05601-.825335-1.079223-1.2516388-1.662489-.843605-1.137513-.8510191-1.160932-.8584937-1.184408-.8660289-1.207944-.8736246-1.231537-.881281-1.25519-.888998-1.2789-.8967755-1.302669-.9046136-1.326497-.9125123-1.350382-.9204716-1.374328-.9284914-1.39833-1.4079069-2.142629-.9488061-1.458593-1.438663-2.233298-.9694995-1.519221-1.4699869-2.324515-.9905715-1.580216-1.5018789-2.416279-1.0120221-1.641575-1.5343388-2.508592-1.5540875-2.564244-1.5740404-2.620091-1.594198-2.676137-1.0740983-1.815325-1.0832086-1.840381-1.0923796-1.865494-1.6558973-2.845458-1.0695604-1.848868c-3.4300613-5.936479-5.2852511-12.647982-5.3945828-19.496783l-.0051298-.642458-.0005452-40.578712-.2023709-.106099c-12.1995366-6.51181-20.6801898-19.136591-21.2886049-33.836932l-.0350305-1.017058v-48.306814c0-15.164229 8.4012715-28.430486 20.8736698-35.288723l.4172485-.226229.235088-.124617.0005452-40.953289c.0000447-6.217874 1.4402418-12.344971 4.1999986-17.902958l.3007321-.593299.3107978-.588813 1.8770039-3.472177 2.2905642-4.197759 2.2298472-4.040811 1.740998-3.120612 1.7035729-3.021822 1.6667849-2.923768 1.2263299-2.128922 1.206264-2.074492.793161-1.352909 1.1734181-1.984465.7715126-1.293179 1.141319-1.895302 1.1224178-1.842218 1.1037856-1.789445 1.0854222-1.736983.7135456-1.128997.7055833-1.10591 1.0436195-1.615779.6860257-1.048596 1.0146567-1.530241.666966-.991859.6594814-.969324.6520767-.946883.6447514-.924533.6375059-.902274.9428477-1.31188.9269932-1.262318.9114076-1.213066.5990792-.781502.5923513-.759842.9397704-1.178191c11.3821941-14.065315 24.2200841-25.918798 38.4473511-35.430504l-.000372-36.480734c-.000509-71.975017 47.740907-135.086273 116.704202-154.786183l2.359487-.654077 1.859895-.489975 178.53423-45.8342488c.76013-.1951444 1.519692-.3673049 2.278042-.5169783l.757922-.1421961.205138-.0347728.735503-.2187641c15.421902-4.5435771 31.472941-6.9876376 47.806605-7.2184612l1.324963-.0180387zm.493198 40c-15.14515 0-29.720132 2.4413452-43.352927 6.9519923l-1.020687.3421727-.002881-.4038865-3.040977.7763904c-47.023915 18.4733511-80.451013 64.0060471-81.114853 117.4303611l-.010068 1.621314v531.826746c0 4.217972.208706 8.433361.625351 12.630702 3.879911 39.086707 24.974979 72.307238 55.025949 92.893607l21.250992 6.923996c15.837192 6.408071 33.068874 9.942764 50.995564 10.006605h1.034998l1.03651-.008071c3.111771-.035313 6.243554-.175286 9.391725-.423017 53.366158-4.199402 106.698619-9.031759 159.997385-14.497072l5.568238-.573301 8.292012-.862498 8.219596-.865552 8.147181-.868605 5.391223-.580767 8.026489-.873695 5.310762-.58416 7.905797-.878785 7.833381-.881839 7.760966-.884893 7.688551-.887946 7.616135-.891001 7.543721-.894054 7.471305-.897108 7.398889-.900162 4.892363-.601805 7.278197-.905252 4.811901-.605198 7.157505-.910341 4.73144-.608591c44.858069-5.796107 82.359964-32.730999 103.014706-70.007836 6.688959-15.365018 10.438059-32.264858 10.581168-49.957382v-1.021596-488.299818c0-18.076761-3.764014-35.324005-10.572022-50.969915-21.707355-39.182366-61.991765-66.843258-109.529814-70.705052-48.171743-3.913272-96.357088-7.413175-144.556037-10.4997115l-11.191436-.7092828-7.508313-.4676792-11.333503-.6937546-7.603023-.457327-11.475569-.6782263-7.697735-.4469748-11.617635-.6626981-11.702875-.6533811-7.849272-.4304113-7.887157-.4262704-7.92504-.4221296-7.962926-.4179886-8.000809-.4138479-8.038694-.4097069-8.076578-.4055661-8.114463-.4014252-8.152347-.3972843c-2.219165-.1073325-4.4406-.1610223-6.662359-.1610223zm-106.542393 24-22.988841 5.925265c-23.504037 20.960691-38.445095 51.184637-38.995416 84.868502l-.015743 1.928477v545.989302c0 3.84498.191566 7.687617.573999 11.513842 3.093877 30.954063 17.755856 57.033004 39.25407 72.249958l10.765054 3.524654c-16.578537-21.299707-27.538905-47.414552-30.395909-76.30068-.426616-4.313368-.663974-8.643223-.711454-12.977007l-.008902-1.625329v-531.191873c0-40.505311 16.231899-77.205461 42.523142-103.905111zm-57 14-59.249666 15.207635-1.596717.421306c-27.943403 7.575865-51.374706 24.620237-67.187349 47.128703-10.544406 20.064338-16.680482 43.760315-16.956534 68.894965l-.009734 1.773259.003156 449.270814c.000086 12.142118 1.666432 23.911816 4.764711 34.932507 11.457425 24.098799 32.318195 43.255942 58.726995 52.159131l.96959.32145 76.35975 24.89023c-10.650641-16.323708-17.58333-35.932618-19.729799-57.328364-.400857-3.995693-.623884-8.006688-.668497-12.021335l-.008365-1.505641v-546.2171c0-28.96208 9.084349-55.816828 24.582459-77.92756zm78.87072 314.883179c23.937113-150.939668 152.429229-256.506076 287.542617-235.133591 135.113387 21.372485 224.653057 161.427564 200.715943 312.367233-23.937113 150.939668-152.429229 256.506076-287.542617 235.133591-135.113387-21.372485-224.653057-161.427564-200.715943-312.367233zm284.743977-215.389162c-19.47403-3.08547-38.826383-3.255514-57.698009-.801259 48.123797 22.007537 87.983223 60.051157 113.895315 108.403565l80.798871-2.700582c4.169934-.139413 7.992749 2.311648 9.607611 6.16008 7.629355 18.181769 14.136296 35.154362 19.520618 50.922854 5.549817 16.253158 9.190771 32.691854 10.916088 49.303314.623046 5.998721-4.12872 11.170128-10.115368 11.097997l-.281513-.007239-79.108396-3.113441c.829533 14.066183.588122 28.260459-.740513 42.479183l79.612237 10.145241c5.495175.700259 9.389179 5.714596 8.70862 11.214152l-.154872 1.240056-.156688 1.231817-.318831 2.438926-.162146 1.207114-.329763 2.389542-.167621 1.182433-.340726 2.340201-.17311 1.157773-.174943 1.149558-.355393 2.27448-.362746 2.241648c-.122142.741746-.245512 1.478023-.370113 2.208834l-.187823 1.092118-.381189 2.159651-.19337 1.067537-.195221 1.059348-.396006 2.094139-.200788 1.034795-.407154 2.045055c-.182612.901645-.367431 1.793602-.554463 2.675877l-.282207 1.316154-.429544 1.947015c-1.15543 5.148509-2.390758 9.94884-3.707153 14.402617-4.189713 14.175111-11.351517 29.922442-21.462442 47.306076-2.027823 3.486419-5.934862 5.415673-9.918176 4.925133l-.291571-.040224-82.171714-12.554592c-36.940633 64.496152-97.950498 109.818163-166.884485 124.444424 11.289815 3.95896 23.038238 6.946557 35.181859 8.870596 123.416485 19.554141 241.946-77.986298 264.196279-218.518553s-60.346956-269.939271-183.763441-289.493413zm-94.006177 6.505983-.314374.095646c-84.945812 26.899462-154.190528 107.406227-170.6693 211.471466-17.800248 112.410509 31.446863 217.707684 115.012674 265.432888.577202-.153782 1.175105-.256037 1.790246-.303929 73.629703-5.732457 140.971618-49.718634 180.226195-116.723583-.419222-1.044335-.66598-2.169792-.711139-3.341196l-.007547-.392122v-93.56614c0-5.465021 4.35425-9.912834 9.782052-10.062038l.281689-.003867 24.897564.000272c1.268273-13.764542 1.439719-27.496351.532479-41.088121l-25.825633-1.016261c-5.306865-.208811-9.520635-4.50096-9.66436-9.779418l-.003791-.278707v-89.320388c0-2.866833 1.200274-5.460957 3.132017-7.297533-28.644989-49.84948-73.600625-86.848481-127.031992-103.267922-.496562-.152593-.972777-.340117-1.42678-.559047zm-434.60852 382h-56l1.336708 2.242386 1.437043 2.393251 1.416348 2.33924.932736 1.529487 1.381858 2.249221.909742 1.469475 1.347368 2.159201 1.326674 2.105191.872952 1.373454 1.292183 2.015172.849959 1.313441 1.257693 1.925153 1.236998 1.871141 1.216305 1.81713 1.19561 1.763118 1.174916 1.709107.77178 1.109398 1.140425 1.619088.748787 1.049386 1.105935 1.529069.725793.989373 1.071445 1.43905.7028.92936.693602.905356 1.023158 1.313023.670608.845343.661412.821337.974871 1.186997.954177 1.132985c6.875915 8.057194 15.399286 15.675549 25.570114 22.855067zm0-78-62 1.840021.0010127 56.159979h61.9989873zm596.109733-31h-16.109733v73.633546c.754636.447014 1.430691.979895 2.022577 1.579566l70.279789 10.786888.697634-78.718471zm77.273934 10-.383667 43 .348681-1.089229.334859-1.080329.231955-.770345c1.350602-4.541881 2.619123-9.527968 3.803953-14.956038l.252611-1.169922.415315-1.979923.20498-1.004044.404594-2.036236.397428-2.07375.196021-1.050936.194224-1.060305.383044-2.14871.188818-1.088399.372214-2.204871.364975-2.242283.179767-1.135164.17795-1.144509.350445-2.317041.198166-1.355808zm-594.883667-95c25.504161 0 43.5 30.95574 43.5 67.5s-17.995839 67.5-43.5 67.5-43.5-30.95574-43.5-67.5 17.995839-67.5 43.5-67.5zm-.5 20c-11.239784 0-23 20.529197-23 47.5s11.760216 47.5 23 47.5 23-20.529197 23-47.5-11.760216-47.5-23-47.5zm-82 48-70 2.884157v27.115843l70-2.048616zm4-78-61.9989873 3.661944-.0010127 56.338056 62-2.582655zm675.306431-17-.306431 33.648145 9 .351855-.275607-1.629089c-1.681533-9.669256-4.090161-19.283227-7.227691-28.845284l-.52967-1.593196zm-20.306431-42-73.989493 2.471238c-.335073.092046-.672335.165873-1.010507.221905v69.386417l23.268091.913879.26284-.030135c1.057636-.107432 2.093561-.046496 3.081093.161067l47.7142 1.875629zm-679.767152-4.524922-.468652.496833c-2.121324 2.259707-4.193214 4.614269-6.215673 7.063685l-1.007109 1.232613-.673619.846663-.460952.594146-.47045.617909-.723482.971419-.494194.677316-.7591 1.06053-.780469 1.113997-.532185.772368-.816087 1.203108-.837456 1.256575-.570176.86742-.873073 1.345687-.894443 1.399153-.915814 1.452619-.937183 1.506087-.958553 1.559553-.979923 1.61302-1.339807 2.233864-1.029787 1.737776-1.7638 3.015108-1.45378 2.51902-1.115267 1.951643-1.520265 2.685361-1.558257 2.780413-1.083292 1.951036 56-3.336122-.001139-63.663878c-8.88909 5.608935-17.144428 12.433961-24.766013 20.475078z" fill-rule="nonzero"/><path d="m72.2258671 465.279409-37.2743966 2.466823c-19.5004875.692007-34.9514705 16.701019-34.9514705 36.213781 0 18.679371 15.1426222 33.821993 33.8219933 33.821993.377375 0 .7547236-.006316 1.1318873-.018945l37.2719865-2.327585z"/><path d="m650.447702 498.548634c15.812098 2.50439 30.920377-9.924151 33.745286-27.759923s-7.703288-34.324732-23.515387-36.829123c-15.812098-2.50439-30.920377 9.924151-33.745286 27.759923-2.824909 17.835773 7.703288 34.324733 23.515387 36.829123z"/><path d="m441.622572 508.169806c17.294483 2.739177 33.819163-10.85454 36.908907-30.362416s-8.425471-37.542676-25.719954-40.281853c-17.294482-2.739177-33.819163 10.85454-36.908907 30.362416s8.425472 37.542676 25.719954 40.281853z"/></g></svg>