<svg height="960" viewBox="0 0 960 960" width="960" xmlns="http://www.w3.org/2000/svg"><path d="m89.4567849 103.469676 468.9608541 13.907415c14.062011.41702 26.871161 8.190505 33.733193 20.471652l128.827978 230.566356 206.155796 360.63275c6.108148 10.685151 6.952308 23.577096 2.312748 34.954272l-.218028.524011-17.406466 41.014099c-5.977586 14.084727-19.466206 23.525507-34.746296 24.319178l-510.13094 26.496961c-16.169273.839856-31.25012-8.15063-38.201128-22.773702l-297.5989506-626.069046c-5.0288096-10.579278-5.1676641-22.831201-.3799114-33.521733l20.9992636-46.889075c6.6202974-14.782405 21.50185-24.113266 37.6918873-23.633138zm797.9650241 657.178314-491.387 27.47-16.075 27.508 495.041892-25.712732zm-804.5220002-605.202-15.6279986 34.895183 293.7709988 618.017817 17.768-30.406zm16.601-11.661 296.7582652 624.289109 491.405735-27.472109-201.545861-352.570206-128.88702-230.672271zm63.5339542 37.210551.256461.004213 366.936145 10.695093c2.021141.058886 3.938362.725604 5.529325 1.864228.044383.026008.088297.052878.132082.080127 2.346041 1.460058 3.877632 3.733357 4.456969 6.227904l267.978109 487.659817c3.54657 6.453929-.863086 14.397615-8.216226 14.800955l-376.592105 20.657112c-3.985662.218624-7.719577-1.953954-9.499045-5.52702l-259.967819-522c-3.329563-6.685567 1.577245-14.494083 8.986104-14.462429zm462.447046 269.326449-320.591 3.157 124.096191 249.17601 326.253809-17.89701zm-95.641-228.041-2.547 4.093 73.416 137.89 176.717 319.277 5.713191-.31299zm77.497 197.294-316.132 2.219 5.896213 11.760586 316.077-3.112zm-427.947809-218.09399 5.502809 11.04899 323.595433 6.72152c.243138-.724506.573748-1.432427.995144-2.109532l3.693423-5.935988z"/></svg>