<svg height="960" viewBox="0 0 960 960" width="960" xmlns="http://www.w3.org/2000/svg"><path d="m316.48215 26.4195024c26.81969 0 52.334096 1.3588418 78.283484 4.7721796 33.714654 4.4347674 65.421366 12.071095 94.741859 23.6902204 35.601364 14.1081093 60.613245 35.4006262 76.489372 64.8668396 12.697817 23.567244 18.722068 49.37678 22.852544 87.823418 5.29494 49.285523 8.0612 115.52104 8.648855 197.673765l.007753 1.191577.460659-.108275c7.585742-1.752916 15.746335-2.505498 25.066848-2.553642l.968353-.00248 8.490021.020463c14.773692.065647 33.797212.279951 58.710579.638169l3.636179.052686c.373197.00545.373197.00545.746387.01091 5.265827.077079 10.78306.160095 17.018203.255709 54.558629.836641 62.077626.955179 67.178131.968662l.312801.000706.077512.000138 2.000164.000115c.068365-.000055.137453-.000112.207352-.000168l1.617546-.000806c45.480572 0 73.342703 32.329877 73.342703 77.605863l-.001438 161.82695.030164.037192 5.598724 6.971207c7.036727 8.721244 15.963283 19.659653 26.822113 32.885053l47.947633 58.253987c.047879.058171.095594.116477.143144.174918 1.153032 1.41712 1.995147 2.4625 2.608948 3.242737 5.025293 6.387927 7.809078 13.025509 9.803562 20.694338 1.259533 4.842931 2.177553 10.209512 2.875835 16.322517 1.192091 10.435992 1.801126 23.723743 1.902877 40.171923.030209 5.042523-.892565 10.045432-2.72045 14.745096l-19.093629 49.092629c6.613324 24.566751 11.363536 47.768194 14.241333 69.647608 1.57551 11.978342-7.747627 22.608318-19.829139 22.608318h-50.489252c-9.903982 0-18.316409-7.248502-19.780372-17.043689-1.725044-11.542051-4.104752-23.690827-7.14149-36.434154-5.830802-.221605-11.552587-1.715028-16.760818-4.389361l-37.584089-19.298758-.122701-.063272c-15.793853-8.178867-27.529853-21.170172-37.473029-39.134291-.089245-.161236-.177373-.323086-.264381-.48554l-6.472983-12.085458-.199688.008773c-48.588101 1.84593-83.453084 2.790651-104.880865 2.830839l-.645214.000941-.746616.000384c-31.038713 0-52.683956-4.090316-77.229015-13.298355-2.240581-.84055-6.618909-2.576279-11.159593-4.391247l-.909716-.363809c-.30357-.12146-.607277-.243031-.910534-.364471l-.90784-.363683c-2.565079-1.027948-5.055428-2.02894-7.111598-2.854504l-.278321-.111868-.638655.759842c-14.299559 16.837362-31.737476 29.02151-50.945834 35.320442l-.916016.295496c-29.45125 9.34374-76.24826 17.142716-119.577881 19.647609l-1.489614.083611.000245 3.29063c.000198 19.538816-14.108145 36.186705-33.316311 39.438117l-.583617.094417c-9.899393 1.527542-17.71238 2.330836-24.219604 2.330836-6.507225 0-14.320211-.803294-24.219604-2.330836-13.316002-2.054748-24.250217-10.530289-29.848542-21.981749l-.000187 50.892641c0 11.045695-8.954305 20-20 20h-50c-11.045695 0-20-8.954305-20-20l.000048-70.397211c-8.846495-5.562947-16.0169-13.02078-20.868788-22.80214-2.740295-5.524408-4.166178-11.607596-4.166249-17.774304l-.000391-15.207401-.085739-.085502c-5.520477-5.499782-7.631884-7.457998-9.307962-8.722865l-.195356-.14578-.085282-.062617c-.730859-.533987-.898949-.61091-2.617577-1.032786-1.030293-.252909-3.221331-.614626-7.213449-1.151315-.994984-.133762-4.71714-.623386-5.223066-.690623-2.33788-.310705-4.22767-.571803-6.130065-.851681-5.187538-.763183-9.809375-1.575802-14.395056-2.581709-15.5668693-3.414723-28.9902022-8.683548-40.9419183-17.453663-16.6856436-12.243851-28.0816067-31.39774-36.0681624-55.743382-6.4589164-19.688896-10.6288469-43.05808-12.3496826-67.908376-2.04951366-29.596679-4.05621602-108.124262-6.09286481-237.017056-.00257009-.162652-.00414794-.325319-.00473346-.48799-.53771602-149.390996 6.65011917-242.448061 23.70990087-285.878385 7.5489123-19.217814 20.0166881-35.254219 35.6845668-47.706217 12.7405435-10.1255077 27.3012476-17.5652697 41.1785409-21.5301541 15.808544-4.5166622 28.231033-8.1938224 37.195629-11.0065919 3.689185-1.1575343 6.739253-2.1521452 9.110588-2.9674102l.091688-.0328964.158437-.1317281c.65369-.5489409 1.345014-1.1298901 2.073835-1.7427331l.441791-.3715321c11.584928-9.7436818 32.681754-20.5721646 57.064552-28.3192583 29.224742-9.2855138 62.593706-13.7767484 104.673518-13.7767484zm-125.63658 871.9860556-.000173 61.594h50l.001094-55.969621c-4.089531.080275-8.360235.019861-12.825671-.170582l-1.04661-.046844c-13.826278-.647751-25.762912-2.34537-36.12864-5.406953zm727.042544 9.959382-.148455.10286c-1.349195.925993-2.760111 1.77251-4.2266 2.532706l-20.028644 10.38241c-5.338844 2.76754-11.232984 4.295705-17.243962 4.470819l-5.560395.162966c2.71308 11.807616 4.878601 23.13643 6.499749 33.983324h50.489252c-2.156048-16.392208-5.419041-33.601261-9.780945-51.635085zm-621.094477-40.632151.000561 23.823749c8.048752 1.241976 14.088596 1.862964 18.119532 1.862964 4.030935 0 10.070779-.620988 18.119532-1.862964l-.001164-22.565461c-14.743683-.112365-25.744061-.505254-36.238461-1.258288zm386.237044-202.981371c-14.200443 11.749928-22.787126 28.037664-23.77438 45.774048-.986206 17.717578 5.730222 34.723178 18.517331 47.774589 12.884396 13.150707 30.915923 21.234147 50.657999 22.208286 5.315015.26226 8.025057.027815 10.751032-.753122.408505-.117028 1.2752-.416614 2.343846-.799647-6.874967-14.475543-12.157673-24.186759-15.639543-28.861462-2.812808-3.77643-8.039262-7.094334-15.937214-9.697445-5.245289-1.728812-8.095957-7.382437-6.367146-12.627726s7.382436-8.095957 12.627725-6.367146c11.503676 3.791533 20.161737 9.28792 25.716332 16.74543 3.39822 4.562395 7.612944 11.89169 12.741143 22.114216l.584458 1.169634c2.745731 5.516034 5.747437 11.840907 9.019416 18.993247l.183362.401279.789418 1.42463c1.945814 3.509999 3.85338 6.947935 5.712653 10.295466l.925565 1.666147 1.055507 1.899345c.671456 1.208021 1.347539 2.423906 2.02637 3.644293.465125.533406.879963 1.123932 1.234185 1.769169l.712603 1.29808 18.218781 33.045773 5.479918 9.739097.303098.51979c5.9314 10.097453 11.947169 16.282223 18.764341 19.771349l.394193.198314 35.52045 17.43045 21.459541-.588287 16.492459-8.055713 2.557-1.961 18.875748-48.529584c-.250829-10.891868-.946636-20.080393-2.017149-27.31543l-.089715-.596035c-.610026-3.984173-1.319648-7.228638-2.075592-9.637451-.317134-1.010543-.626933-1.822982-.908304-2.418694-.101811-.21555-.189658-.380883-.25755-.49335l-.00663-.011427-.02985-.037913c-.665498-.814295-2.011167-2.418684-3.956264-4.716927l-.257101-.303698-44.734709-52.56219c-9.720104-11.460103-17.720296-20.952228-24.061552-28.564106l-5.391036-6.493534c-7.487784-8.909489-15.409962-16.402094-23.498625-22.482607-.925749-.695917-1.719433-1.544175-2.349746-2.503928-3.276696-2.418998-6.575658-4.60685-9.876295-6.56631-8.838849-5.247281-17.132979-8.468181-22.561189-9.335735l-.6399-.095368-.074547-.009058c-.61232-.084278-1.148616-.161725-2.06245-.296499l-.285929-.042217c-1.158133-.171157-1.63791-.240806-2.286164-.329957-4.83153-.664457-10.654275-1.11546-22.199251-1.5737l-7.619556-.288682c-.098915-.003748-.197769-.008964-.29653-.015647-.494937-.033491-.990782-.062498-1.48749-.087007-19.75735-.974893-38.618577 5.299951-52.923067 17.13597zm-497.22067 178.483809.000397 5.790215c4.338509 8.746391 18.683748 13.690022 43.035718 14.830894 10.151886.475608 18.5647.127385 25.238443-1.044668-2.963984-.524531-6.064014-1.121286-9.513852-1.825262-24.129454-4.92387-43.365011-10.578263-58.760706-17.751179zm7.995883-741.330947-.019298.020191c-23.175766 22.391862-27.60778 65.79878-29.323241 82.898634-13.669479 136.25844-5.50603 359.005473-4.634154 489.945311.090663 13.616039 1.95245 55.632436 7.731553 79.910597 3.530183 14.830393 17.78009 46.041573 36.533051 62.694513 19.661446 17.459691 43.742743 21.988712 61.834097 25.099045 7.668631 1.318419 14.242849 2.412274 20.793857 3.303955l1.403822.187989c.491487.064718.983274.128309 1.475812.19078l.986213.123454c8.077067.997632 16.435935 1.697549 27.055019 2.141108 6.409755.07497 14.388837.101268 24.810371.106645h4.257079c45.699869 0 103.286417-8.489122 135.14296-18.595968 1.026429-.325647 2.049215-.681544 3.067591-1.067342 9.108038-3.605212 18.195432-9.642349 26.474282-18.242575-4.69166 2.83846-9.602717 5.143809-14.703209 6.883956-30.561274 10.426663-84.106462 18.914929-127.028083 18.914929-41.711898 0-55.717236-1.185152-86.138251-6.588078.083905.014902-1.101-.192758-2.337417-.410974l-.412377-.072838c-.753399-.133188-1.475523-.26152-1.888555-.336612-2.070287-.376389-3.913502-.736928-5.775251-1.138588-4.865824-1.04977-9.444373-2.298274-14.057148-3.91213-11.842349-4.143245-22.86991-10.367106-33.182183-19.367818-11.528422-10.062185-21.69358-23.239118-30.387662-39.888052-8.07348-15.460499-14.098189-34.001169-18.478183-55.054904-3.794851-18.241072-6.193995-37.550657-7.515255-57.207188-.483677-7.195714-.795793-14.059084-.977494-20.650351-.067911-2.463529-.114479-4.773147-.146822-7.063434-.011928-.844625-.021308-1.637766-.030453-2.529447-.000743-.072468-.003866-.389234-.007323-.736766l-.003493-.34988c-.002878-.286931-.005514-.5458-.006726-.653035-.000834-.07304-.000834-.07304-.001649-.141279-.133669-11.050436-.302994-23.047668-.530971-37.916647-.089283-5.823125-.183467-11.831412-.314169-20.074729-.023801-1.50108-.040509-2.553541-.081274-5.119882-.018394-1.157682-.028511-1.794407-.037817-2.380161l-.006165-.388109c-.009314-.586309-.019476-1.226088-.037953-2.389323-.066456-4.184993-.116221-7.327642-.164984-10.422785-.719976-45.698881-1.144815-77.914175-1.35956-108.402222l-.013423-1.943813c-.008759-1.294463-.017141-2.58625-.025153-3.876269l-.013914-2.301917-.006664-1.149906-.012747-2.298425c-.008242-1.531858-.015972-3.063119-.023202-4.595313l-.015428-3.449652c-.006486-1.534452-.01248-3.070981-.017992-4.611117-.350652-97.96619 1.73537-173.392201 7.333708-231.040975 1.636842-16.855349 3.355-28.538667 7.096048-42.477339 3.390094-12.631058 7.855535-23.911161 13.72018-33.575264zm128.145688-34.9644409-.800271.0438158c-25.024318 1.3755946-44.431461 5.2073403-60.913618 10.8388667-2.577366.8806194-22.008798 6.3286399-38.093907 20.690791-23.28814 20.7936294-27.607145 64.4824554-29.247764 81.3766994-11.739065 120.882789-6.121056 312.795749-4.580111 440.186209.123633 10.220789.123633 87.929717 24.897203 135.370442 24.773569 47.440726 57.026619 51.712179 73.80962 54.692925 25.407291 4.512463 37.864772 6.279914 82.640882 6.279914s95.611991-9.328579 120.57014-17.84361c24.95815-8.515031 50.823459-39.790079 56.296409-97.710016 2.589271-27.402122 5.210426-71.492965 7.253747-119.484705.105435-2.586541.208914-5.177517.310354-7.771154l.150621-3.892227c.049691-1.297926.098863-2.596296.147504-3.894887l.144324-3.896214c.047572-1.298811.094604-2.597622.141085-3.89621l.137784-3.894876c1.406502-40.235568 2.274571-80.044148 2.301775-112.816196l.000658-1.580225c0-96.940828-2.707238-173.578198-8.53689-227.84084-3.615324-33.651582-8.617764-55.083401-18.238442-72.939454-1.430971-2.655893-2.965808-5.216452-4.610969-7.685005-11.047213-16.397508-27.454392-29.448133-52.549119-39.205436-21.269494-8.2699801-43.240383-13.9302125-64.561339-17.7802313-6.282314-1.1120157-12.663174-2.0908111-19.13743-2.9424236-22.264075-2.928578-44.358631-4.2319592-67.532246-4.405953zm305.790819 376.8987899-.109458-.000017-.661352-.000156c-1.932242.000376-2.828527.012862-3.86105.062449-4.968956.238635-7.122187 1.246487-9.288936 4.77522-3.939721 6.416164-6.343742 19.407201-6.398487 40.559172l-.000955 294.285835c0 12.950485 2.595404 20.683597 7.157156 24.828854 2.675152 2.430906 6.492151 4.044381 11.758964 4.860193 5.681631.453507 11.884542.69626 18.769351.69626l.725729-.000379c7.213079-.007473 16.115609-.125477 26.707632-.35404-10.722104-6.595274-20.377119-15.285458-28.527103-25.762777-18.07215-23.232889-27.452248-53.648942-25.732132-85.378696 1.719666-31.721455 14.330259-61.007163 34.800453-82.270961 21.203284-22.025309 49.280662-33.87835 78.572184-32.394321 20.550872 1.041191 39.890773 8.54503 56.20387 21.473133 11.956395 9.475424 21.992788 21.658925 29.480473 35.696562l.000715-161.589578c0-23.854357-10.917169-37.605693-33.342703-37.605693-12.103758 0-45.000603-.567092-79.615595-1.089122l-2.12127-.031899-2.284613-.034139c-1.905108-.02837-3.812956-.056525-5.720394-.084366l-3.631913-.052624c-.901015-.012955-1.801492-.025826-2.701098-.038601l-2.695868-.038029c-19.296878-.270336-38.03699-.49164-52.91184-.557735l-3.533725-.00777c-.341215.035191-.687519.053225-1.038035.053225zm39.748266 190.171661c-17.123712 17.787578-27.776951 42.527703-29.238231 69.482896-1.460853 26.947309 6.45409 52.612428 21.547801 72.016345 15.243593 19.596601 36.587891 31.313808 59.914796 32.495645 10.597434.53691 21.03432-1.118126 30.934355-4.815832l.822736-.313842-.318856-.565135c-.62969-1.117603-1.26479-2.245192-1.90493-3.382101l-.686673-1.219051-.335198.122179c-1.172509.420146-2.174864.751265-3.194863 1.051425l-.340911.098986c-5.047642 1.446048-9.891328 1.865073-17.244729 1.502232-24.762671-1.221871-47.545812-11.435434-63.958379-28.187238-16.639949-16.983885-25.505734-39.431532-24.200372-62.882864 1.304285-23.431993 12.594167-44.84732 30.993507-60.071556 18.151201-15.018919 41.911832-22.92372 66.658695-21.702628.338899.016722.677519.035129 1.015851.055219.547004-.063767 1.106201-.083293 1.674095-.054867l.916178.050111.782585.049288 7.360855.282548c11.775167.474102 18.11155.963769 23.532557 1.706097l.300254.041502c.727077.101433 1.245358.177757 2.452714.358763 1.105565.165746 1.627132.242312 2.280046.33273l.122872.017794.742908.112298.105776.016569c1.506351.244223 3.100922.588855 4.768788 1.030565l.824649.835231c-2.648858-2.721404-5.448435-5.254718-8.383348-7.580631-13.101662-10.383046-28.471083-16.346348-44.793782-17.173323-23.33804-1.182401-45.854917 8.32324-63.151746 26.290645zm-77.40954-177.23199-.087592.144419c-7.585608 12.716642-8.170696 36.040913-12.919309 75.750115l-.526579 4.328498c-.256621 2.073322-.513521 4.085251-.7709 6.037767-.243909 7.835058-.508583 15.710748-.791899 23.578615l-.156373 4.290497c-2.293838 62.19251-5.729705 123.344568-9.257334 159.483058-2.216454 22.706277-7.506855 43.001924-15.252496 60.244663.838735.328442 1.693109.662898 2.561679 1.001595l3.715148 1.442903c12.615941 4.913738 22.841337 9.491589 33.914659 13.096729-2.048998-6.357611-3.087968-13.884547-3.087968-22.656027v-293.544663c0-13.311726.871561-24.282406 2.658964-33.198169zm-426.63995-347.105734-.050669.017224c-.300333.10084-.606793.20319-.91938.307051-8.119105 10.532951-18.93233 42.159919-22.363125 78.621919-12.880689 136.894099-5.437296 356.418613-4.520825 486.149656.096189 13.616039 2.071439 55.632436 8.20274 79.910597 3.603871 14.270275 9.353025 26.813318 14.627219 36.29062.537612.361504 1.074087.738133 1.611241 1.130594.117208.085636.23344.171005.348855.256252l.343955.255519.340011.255655c.114398.086557.228284.173286.341824.260339l.230996.177929c-6.306806-11.799686-11.116694-23.8587-13.529644-33.995568-5.133481-21.565886-8.108014-59.370841-8.274731-84.408768-.029803-4.475791-.058394-8.45073-.091506-12.345499l-.011884-1.37198c-.003264-.369906-.006576-.739533-.009939-1.109246l-.010253-1.109758-.00504-.533508-.010332-1.069845c-.169828-17.334146-.478895-36.779114-1.42775-95.07908-.796144-48.916984-1.257494-83.027852-1.483015-115.57539l-.016275-2.408269-.015422-2.403746-.014577-2.40042-.020301-3.597009-.012504-2.397337c-.016128-3.196757-.030086-6.395806-.04197-9.609907-.377964-102.218621 1.870512-180.917934 7.904367-241.06387 1.763059-17.574312 3.613537-29.754878 7.640451-44.278698 2.93732-10.593996 6.625587-20.269961 11.237483-28.875457zm-27.632477 8.531198-.479624.142494c-5.578773 1.640228-11.755487 3.428099-18.530906 5.363905-20.6646858 5.904111-41.3550682 22.347729-50.2931009 45.101928-14.4461779 36.776683-21.4238639 127.11306-20.9062872 270.919192 2.0226191 128.004899 4.0233098 206.297233 6.0011628 234.859072 3.1308415 45.211952 14.9777248 81.325139 31.9746429 93.797402 6.7254887 4.935133 15.1455374 8.240107 25.6595654 10.546446 3.557166.780295 7.288046 1.436264 11.612221 2.072431 1.68707.248199 3.403776.485383 5.570761.773376.454403.06039 4.220007.555729 5.283668.698724l.395409.05427c-3.09805-7.399242-5.7067-15.073952-7.697482-22.956865-5.471312-21.6648-8.633602-59.547376-8.811053-84.666439-.033896-4.798202-.064702-8.921732-.10037-12.975457l-.023248-2.55661-.012248-1.281926c-.156047-16.065616-.426982-34.019802-1.301925-91.065866-.73479-47.908036-1.170952-82.154658-1.381012-114.299457l-.01382-2.164012c-.004493-.720363-.008872-1.439796-.013139-2.158431l-.012465-2.153636c-.002021-.358584-.004014-.717-.00598-1.075267l-.011461-2.147921c-.003709-.715458-.007308-1.430446-.010798-2.145094l-.011728-2.491785c-.001882-.415137-.003726-.83021-.005534-1.245245l-.019948-4.980275-.008676-2.491878c-.006873-2.077565-.012856-4.158058-.017969-6.244701-.243669-99.443037 1.933563-176.904909 7.558597-236.686951 2.363251-25.11629 8.207185-50.11923 15.612747-68.541424z" fill-rule="evenodd"/></svg>