<svg width="960" height="960" viewBox="0 0 960 960" fill="none" xmlns="http://www.w3.org/2000/svg">
<path d="M230.566 145.572C242.912 139.328 257.07 136.191 271.919 137.177L314.845 140.025C356.883 142.816 389.546 177.739 389.546 219.86V423.835L392.092 423.856C407.987 423.987 421.301 430.817 430.156 442.244C438.576 453.11 441.956 466.736 441.956 479.822C441.956 492.892 438.586 506.505 430.184 517.368C421.346 528.794 408.053 535.633 392.169 535.786L389.546 535.811V739.905C389.546 782.091 356.787 817.042 314.681 819.75L271.756 822.511C262.942 823.078 254.222 821.566 248.438 820.258C245.39 819.569 242.799 818.851 240.941 818.298C240.007 818.02 239.245 817.778 238.688 817.597C238.41 817.506 238.182 817.431 238.009 817.372C237.922 817.343 237.848 817.317 237.789 817.297C237.76 817.287 237.733 817.277 237.711 817.27C237.7 817.266 237.689 817.262 237.68 817.259C237.675 817.257 237.67 817.255 237.666 817.254C237.664 817.253 237.661 817.252 237.66 817.252L244.247 798.368L237.654 817.25C237.449 817.178 237.243 817.103 237.04 817.024L196.504 801.367C196.211 801.254 195.922 801.134 195.635 801.008C166.643 788.212 147.938 759.509 147.938 727.819V538.134L58.3945 538.995C22.9678 539.335 2.74512 509.978 2.74512 480.051C2.74519 450.158 22.9169 420.815 58.3145 421.106L147.938 421.844V231.798C147.938 200.782 165.877 172.272 194.47 159.412C201.458 156.269 208.163 153.304 213.493 151.041C216.145 149.915 218.582 148.91 220.601 148.128C221.99 147.59 224.883 146.466 227.517 145.939C228.529 145.737 229.549 145.617 230.566 145.572ZM528.936 166.856C538.432 162.852 555.999 155.496 574.36 156.707L625.798 160.1C665.503 162.719 696.533 195.554 696.533 235.356V425.983L908.377 427.83C923.023 427.945 935.558 434.185 944.079 444.547C952.296 454.539 955.922 467.234 955.922 479.71C955.922 492.174 952.304 504.86 944.101 514.851C935.587 525.218 923.056 531.466 908.408 531.591L696.533 533.717V724.882C696.533 764.744 665.413 797.606 625.643 800.148L574.206 803.436C558.984 804.408 544.519 800.826 532.174 793.891C531.758 793.74 531.344 793.577 530.936 793.397L497.88 778.898C470.458 766.87 452.678 739.837 452.678 709.899V249.846C452.678 220.538 469.74 193.708 496.757 181.588L496.896 181.523C496.994 181.479 497.121 181.419 497.28 181.345C497.601 181.195 498.014 181 498.516 180.763C499.518 180.289 500.807 179.677 502.301 178.967L502.77 178.744C505.66 177.37 509.201 175.686 512.666 174.055C516.296 172.345 519.956 170.639 522.747 169.383C524.103 168.773 525.468 168.172 526.586 167.718C526.938 167.575 527.53 167.338 528.22 167.097L528.936 166.856ZM325.578 516.425C316.75 528.489 303.54 536.908 288.084 536.908C272.936 536.908 259.945 528.821 251.122 517.141L216.621 517.473V732.018C216.621 759.719 239.422 781.226 265.858 779.487L306.123 776.838C330.293 775.248 349.448 754.646 349.448 729.359V516.195L325.578 516.425ZM656.533 707.714C644.487 725.768 624.607 738.097 601.597 739.546L589.124 740.332C563.305 741.958 540.163 728.908 527.253 708.509V719.721C527.253 735.308 535.361 748.852 547.439 756.527C548.262 756.912 549.063 757.355 549.838 757.856C550.161 758.066 550.488 758.268 550.818 758.467C557.514 761.918 565.198 763.662 573.276 763.14L622.411 759.964C627.933 759.607 633.161 758.213 637.913 755.98C649.082 749.93 656.533 738.175 656.533 724.882V707.714ZM187.935 517.748C187.935 517.812 187.937 517.877 187.938 517.941V727.819C187.938 739.597 193.106 750.549 201.713 758.022C198.434 750.018 196.621 741.233 196.621 732.018V517.665L187.935 517.748ZM510.863 219.201C499.704 225.221 492.678 236.955 492.678 249.846V709.899C492.678 722.679 499.633 734.426 510.777 740.686C508.496 734.13 507.253 727.077 507.253 719.721V240.412C507.253 232.963 508.527 225.826 510.863 219.201ZM288.085 712.281C292.932 712.281 296.861 717.366 296.861 723.639C296.861 729.911 292.932 734.996 288.085 734.996C283.238 734.996 279.309 729.911 279.309 723.639C279.309 717.366 283.238 712.281 288.085 712.281ZM588.432 230.178C558.229 228.069 532.035 249.815 527.253 279.243V680.866C532.033 710.382 558.199 732.259 588.495 730.352L600.969 729.566C627.689 727.884 649.624 709.06 656.533 683.959V514.118L623.953 514.445C616.922 523.839 606.381 530.533 593.926 530.533C569.229 530.533 553.274 505.745 553.273 480.865C553.274 455.985 569.229 431.197 593.926 431.197C604.592 431.197 613.924 436.135 620.774 443.476C621.314 444.053 621.768 444.68 622.145 445.337L656.533 445.637V276.191C649.703 251.506 628.194 232.955 601.923 231.12L588.432 230.178ZM287.13 639.035C296.045 638.726 304.648 640.848 311.379 645.051C318.048 649.215 323.822 656.157 324.141 665.338C324.459 674.518 319.18 681.844 312.815 686.461C306.392 691.12 297.957 693.832 289.041 694.142C280.125 694.451 271.522 692.329 264.791 688.126C258.122 683.961 252.348 677.019 252.029 667.839C251.711 658.658 256.99 651.333 263.354 646.717C269.778 642.057 278.214 639.344 287.13 639.035ZM300.786 662.016C297.864 660.191 293.3 658.834 287.823 659.023C282.346 659.213 277.886 660.884 275.098 662.906C272.251 664.971 271.999 666.628 272.017 667.146C272.035 667.663 272.4 669.299 275.384 671.162C278.306 672.987 282.87 674.344 288.348 674.154C293.825 673.964 298.284 672.293 301.072 670.271C303.919 668.206 304.17 666.549 304.152 666.031C304.134 665.514 303.769 663.878 300.786 662.016ZM288.084 578.971C293.607 578.971 298.084 583.448 298.084 588.971V610.242C298.084 615.765 293.607 620.242 288.084 620.242C282.561 620.242 278.084 615.765 278.084 610.242V588.971C278.084 583.448 282.561 578.971 288.084 578.971ZM286.008 516.806C286.699 516.873 287.391 516.908 288.084 516.908C288.908 516.908 289.732 516.857 290.554 516.762L286.008 516.806ZM57.9844 461.105C53.0196 461.065 49.7324 462.876 47.4131 465.537C44.8632 468.464 42.7451 473.378 42.7451 480.052C42.7451 481.038 42.7927 481.986 42.8799 482.895C42.8975 483.078 42.9175 483.261 42.9385 483.441C42.996 483.938 43.0653 484.422 43.1465 484.895C43.8783 489.148 45.5312 492.405 47.4219 494.571C48.4384 495.736 49.6407 496.738 51.0879 497.492C51.3981 497.654 51.7194 497.804 52.0527 497.942C52.2747 498.034 52.5018 498.121 52.7344 498.202C53.4142 498.439 54.1402 498.627 54.917 498.761C55.0716 498.787 55.2281 498.813 55.3867 498.835C56.2055 498.95 57.0786 499.006 58.0107 498.997L391.784 495.788C392.025 495.786 392.256 495.778 392.48 495.767C392.679 495.756 392.871 495.741 393.057 495.724C394.059 495.629 394.887 495.434 395.587 495.163C395.822 495.072 396.042 494.972 396.25 494.865C397.252 494.349 397.954 493.658 398.544 492.896C399.371 491.826 400.224 490.222 400.87 488.054C401.112 487.24 401.326 486.348 401.498 485.374C401.584 484.887 401.66 484.38 401.724 483.853C401.766 483.501 401.803 483.14 401.834 482.771C401.913 481.845 401.956 480.863 401.956 479.822C401.956 477.116 401.665 474.804 401.209 472.868C401.139 472.57 401.065 472.281 400.987 472.001C400.91 471.721 400.828 471.45 400.744 471.188C400.576 470.663 400.397 470.173 400.208 469.719C399.689 468.468 399.107 467.48 398.537 466.745C397.315 465.168 395.614 463.887 391.762 463.855L57.9844 461.105ZM576.78 464.356C574.628 468.823 573.273 474.36 573.273 480.865C573.273 487.311 574.605 492.805 576.723 497.25L590.258 498.437C587.315 493.431 585.595 487.537 585.447 481.173L585.437 480.275C585.437 474.253 586.838 468.556 589.354 463.576L576.78 464.356ZM618.733 465.309C611.962 465.268 605.437 470.809 605.437 480.275C605.437 489.169 611.423 494.546 618.742 494.496L676.32 493.918C676.325 493.918 676.329 493.918 676.333 493.918L908.038 491.592C908.048 491.592 908.059 491.592 908.069 491.592C908.426 491.589 908.759 491.571 909.069 491.541C909.225 491.526 909.375 491.508 909.52 491.486C909.954 491.422 910.342 491.33 910.691 491.215C910.925 491.138 911.141 491.051 911.342 490.955C911.743 490.763 912.085 490.536 912.387 490.284C912.688 490.032 912.949 489.756 913.188 489.466C913.266 489.37 913.346 489.268 913.426 489.159C913.586 488.941 913.748 488.697 913.908 488.427C914.149 488.022 914.386 487.557 914.607 487.032C914.903 486.332 915.173 485.525 915.39 484.606C915.444 484.377 915.495 484.14 915.542 483.896C915.589 483.653 915.632 483.402 915.672 483.145C915.83 482.114 915.922 480.97 915.922 479.71C915.922 478.765 915.87 477.886 915.777 477.07C915.746 476.799 915.711 476.534 915.672 476.276C915.632 476.019 915.588 475.768 915.541 475.524C915.304 474.306 914.976 473.263 914.605 472.388C914.457 472.038 914.303 471.715 914.145 471.418C913.829 470.825 913.5 470.337 913.184 469.953C912.229 468.792 910.914 467.85 908.056 467.829C908.047 467.829 908.038 467.829 908.029 467.829L618.733 465.309ZM619.051 467.234C625.013 467.235 629.847 472.98 629.847 480.067C629.846 487.154 625.013 492.899 619.051 492.899C613.088 492.899 608.254 487.154 608.254 480.067C608.254 472.98 613.088 467.234 619.051 467.234ZM216.621 442.411L251.796 442.701C251.922 442.522 252.052 442.343 252.191 442.17C260.967 431.239 273.549 423.778 288.084 423.778C302.619 423.778 315.2 431.239 323.976 442.17C324.268 442.534 324.528 442.913 324.762 443.303L349.448 443.506V342.108L216.621 337.672V442.411ZM201.686 201.72C193.114 209.043 187.938 219.966 187.938 231.798V442.01C187.938 442.064 187.936 442.119 187.936 442.174L196.621 442.246V227.659C196.621 218.468 198.424 209.707 201.686 201.72ZM265.952 180.196C257.758 179.64 249.91 181.32 242.979 184.726C241.767 185.58 240.481 186.287 239.145 186.844C225.749 195.092 216.621 210.133 216.621 227.659V327.667L349.448 332.104V230.402C349.448 205.154 330.348 184.568 306.217 182.93L265.952 180.196ZM573.364 196.999C548.457 195.338 527.253 215.2 527.253 240.412V251.688C540.178 231.349 563.35 218.402 589.128 220.202L602.619 221.145C625.19 222.721 644.663 234.844 656.533 252.539V235.356C656.533 222.052 649.069 210.284 637.881 204.238C633.163 202.027 627.977 200.642 622.5 200.276L573.364 196.999Z" fill="black"/>
</svg>
