<?xml version="1.0" encoding="UTF-8"?>
<svg width="960px" height="960px" viewBox="0 0 960 960" version="1.1" xmlns="http://www.w3.org/2000/svg" xmlns:xlink="http://www.w3.org/1999/xlink">
    <!-- Generator: Sketch 60.1 (88133) - https://sketch.com -->
    <title>ocupancy4</title>
    <desc>Created with Sketch.</desc>
    <g id="ocupancy4" stroke="none" stroke-width="1" fill="none" fill-rule="evenodd">
        <path d="M570.5,635 C632.632034,635 683,685.367966 683,747.5 L683,803 C683,834.480231 657.480231,860 626,860 L334,860 C302.519769,860 277,834.480231 277,803 L277,747.5 C277,685.367966 327.367966,635 389.5,635 L570.5,635 Z M186.5,558 L343.526701,558.001494 C352.220478,575.674497 364.246581,591.412106 378.785519,604.393964 C305.27914,609.81958 247.172304,670.617321 246.017518,745.234681 L246,747.5 L246,783 L131,783 C99.5197693,783 74,757.480231 74,726 L74,670.5 C74,608.367966 124.367966,558 186.5,558 Z M773.5,558 C835.632034,558 886,608.367966 886,670.5 L886,726 C886,757.480231 860.480231,783 829,783 L714,783 L714,747.5 L713.982482,745.234681 C712.827696,670.617322 654.720874,609.81965 581.215954,604.401012 C595.754657,591.415462 607.78069,575.675522 616.474335,558.000912 L773.5,558 Z M480,370 C546.826455,370 601,424.173545 601,491 C601,557.826455 546.826455,612 480,612 C413.173545,612 359,557.826455 359,491 C359,424.173545 413.173545,370 480,370 Z M277,293 C327.917423,293 371.48926,324.450187 389.34937,368.984419 C352.115908,396.686505 328,441.026967 328,491 C328,501.696039 329.104786,512.134041 331.20649,522.206025 C314.901443,530.392558 296.488784,535 277,535 C210.173545,535 156,480.826455 156,414 C156,347.173545 210.173545,293 277,293 Z M683,293 C749.826455,293 804,347.173545 804,414 C804,480.826455 749.826455,535 683,535 C663.511216,535 645.098557,530.392558 628.791872,522.20752 C630.895214,512.134041 632,501.696039 632,491 C632,441.026967 607.884092,396.686505 570.655233,368.981574 C588.51074,324.450187 632.082577,293 683,293 Z" id="Combined-Shape" fill="#000000"></path>
        <path d="M433.351234,65.6369832 C468.957656,101.276818 491.5,149.84339 491.5,203.001481 C491.5,256.164901 468.95712,304.732628 433.352413,340.364799 C425.544939,348.178295 425.549821,360.841594 433.363318,368.649068 C441.176814,376.456542 453.840113,376.45166 461.647587,368.638164 C504.367816,325.884982 531.5,267.429784 531.5,203.001481 C531.5,138.578961 504.368989,80.1262895 461.648766,37.3659795 C453.841944,29.5518316 441.178646,29.545893 433.364498,37.3527151 C425.55035,45.1595372 425.544412,57.8228354 433.351234,65.6369832 Z" id="Stroke-58" fill="#000000" fill-rule="nonzero" transform="translate(479.500000, 203.001481) rotate(-270.000000) translate(-479.500000, -203.001481) "></path>
        <path d="M477.725401,256.195201 C503.192489,220.862675 517.500741,180.767221 517.500741,138.000741 C517.500741,95.2342604 503.192489,55.1388062 477.725401,19.8062799 C471.266728,10.8456477 458.766912,8.81740849 449.80628,15.2760808 C440.845648,21.7347532 438.817409,34.2345693 445.276081,43.1952015 C466.057656,72.0271405 477.500741,104.09365 477.500741,138.000741 C477.500741,171.907831 466.057656,203.974341 445.276081,232.80628 C438.817409,241.766912 440.845648,254.266728 449.80628,260.725401 C458.766912,267.184073 471.266728,265.155834 477.725401,256.195201 Z" id="Stroke-60" fill="#000000" fill-rule="nonzero" transform="translate(479.500000, 138.000741) rotate(-270.000000) translate(-479.500000, -138.000741) "></path>
    </g>
</svg>