<?xml version="1.0" encoding="UTF-8"?>
<svg width="960px" height="960px" viewBox="0 0 960 960" version="1.1" xmlns="http://www.w3.org/2000/svg" xmlns:xlink="http://www.w3.org/1999/xlink">
    <!-- Generator: Sketch 60.1 (88133) - https://sketch.com -->
    <title>ocupancy1</title>
    <desc>Created with Sketch.</desc>
    <g id="ocupancy1" stroke="none" stroke-width="1" fill="none" fill-rule="evenodd">
        <circle id="Oval" fill="#000000" cx="388" cy="449" r="121"></circle>
        <path d="M297.5,593 L478.5,593 C540.632034,593 591,643.367966 591,705.5 L591,761 C591,792.480231 565.480231,818 534,818 L242,818 C210.519769,818 185,792.480231 185,761 L185,705.5 C185,643.367966 235.367966,593 297.5,593 Z" id="Rectangle" fill="#000000"></path>
        <path d="M572,239 C638.826455,239 693,293.173545 693,360 C693,426.826455 638.826455,481 572,481 C505.173545,481 451,426.826455 451,360 C451,293.173545 505.173545,239 572,239 Z M572,259 C516.21924,259 471,304.21924 471,360 C471,415.78076 516.21924,461 572,461 C627.78076,461 673,415.78076 673,360 C673,304.21924 627.78076,259 572,259 Z" id="Oval" fill="#000000" fill-rule="nonzero"></path>
        <path d="M662.5,494 C729.478333,494 783.901817,547.7537 784.983588,614.474239 L785,616.5 L785,672 C785,708.633047 755.600017,738.399361 719.107968,738.991024 L718,739 L592.44832,739 L592.44832,719 L718,719 C743.697809,719 764.578656,698.376131 764.993703,672.777231 L765,672 L765,616.5 C765,560.456905 720.022414,514.918888 664.195025,514.013732 L662.5,514 L481.5,514 L481.5,494 L662.5,494 Z" id="Path" fill="#000000" fill-rule="nonzero"></path>
        <g id="alarm_siren" transform="translate(4.000000, 262.000000)" fill="#000000" fill-rule="nonzero">
            <path d="M98.1355019,5.85123375 C105.94965,13.6580559 105.955588,26.3213541 98.1487662,34.1355019 C62.5423438,69.7753364 40,118.341908 40,171.5 C40,224.66342 62.5428796,273.231147 98.1475868,308.863318 C105.955061,316.676814 105.950179,329.340113 98.1366824,337.147587 C90.3231859,344.955061 77.6598873,344.950179 69.8524132,337.136682 C27.1321839,294.383501 2.27373675e-13,235.928303 2.27373675e-13,171.5 C2.27373675e-13,107.077479 27.1310112,48.6248082 69.8512337,5.86449811 C77.6580559,-1.94964972 90.321354,-1.95558837 98.1355019,5.85123375 Z M853.864498,5.85123375 C861.678646,-1.95558837 874.341944,-1.94964972 882.148766,5.86449811 C924.868989,48.6248082 952,107.077479 952,171.5 C952,235.928303 924.867816,294.383501 882.147587,337.136682 C874.340113,344.950179 861.676814,344.955061 853.863318,337.147587 C846.049821,329.340113 846.044939,316.676814 853.852413,308.863318 C889.45712,273.231147 912,224.66342 912,171.5 C912,118.341908 889.457656,69.7753364 853.851234,34.1355019 C846.044412,26.3213541 846.05035,13.6580559 853.864498,5.85123375 Z M146.692979,48.7753402 C155.653612,55.2340125 157.681851,67.7338286 151.223178,76.6944608 C130.441604,105.5264 118.998519,137.592909 118.998519,171.5 C118.998519,205.407091 130.441604,237.4736 151.223178,266.305539 C157.681851,275.266171 155.653612,287.765987 146.692979,294.22466 C137.732347,300.683332 125.232531,298.655093 118.773859,289.694461 C93.3067706,254.361935 78.9985186,214.26648 78.9985186,171.5 C78.9985186,128.73352 93.3067706,88.6380655 118.773859,53.3055392 C125.232531,44.344907 137.732347,42.3166678 146.692979,48.7753402 Z M805.305539,48.7753402 C814.266171,42.3166678 826.765987,44.344907 833.22466,53.3055392 C858.691748,88.6380655 873,128.73352 873,171.5 C873,214.26648 858.691748,254.361935 833.22466,289.694461 C826.765987,298.655093 814.266171,300.683332 805.305539,294.22466 C796.344907,287.765987 794.316668,275.266171 800.77534,266.305539 C821.556915,237.4736 833,205.407091 833,171.5 C833,137.592909 821.556915,105.5264 800.77534,76.6944608 C794.316668,67.7338286 796.344907,55.2340125 805.305539,48.7753402 Z" id="Combined-Shape"></path>
        </g>
    </g>
</svg>