<svg height="960" viewBox="0 0 960 960" width="960" xmlns="http://www.w3.org/2000/svg"><path d="m412.00281 4c10.792686 0 21.479344 2.12922813 31.447868 6.2657272l3.256333 1.3512351c8.686335 3.6044473 16.257595 9.3728487 22.02095 16.7057748l.125039.1612629 1.178116.6438075c8.168949 4.4589975 14.971766 10.9891928 19.754947 18.8858883l.093937.1563042 288.997372-1.090619 1.131336-.0401533c.79355-.0256959 1.473167-.039136 2.285063-.0392277 1.642646-.0001844 3.275781.0630104 5.030937.2271563 5.976107.5588981 11.892704 2.1174204 17.913903 5.4377898 15.351269 8.4654036 22.571985 23.3211842 23.079598 39.1172858l11.244004 381.2326291c6.540629 222.562385 10.213352 348.720451 10.427828 359.451317l.009959.663856c0 12.291445-4.113188 23.997745-12.855939 33.259367-3.608469 3.822629-7.524142 6.733227-11.733602 9.090353-2.500975 1.400444-4.702179 2.404027-7.309588 3.460533l-1.663871.661713-.098522.151603c-3.431269 5.185276-7.800337 9.63015-12.86975 13.368186l-.52691.384174c-5.910788 4.261288-12.681803 7.549637-20.545044 10.280113-12.835985 4.45724-30.011238 7.851497-52.894525 10.523006l-14.480733 1.664912-176.391762 20.48301c-56.572071 6.53308-99.470278 11.399975-128.160821 14.50854l-12.297758 1.316579c-83.64427 8.826394-129.42555 2.550513-169.848873-26.528831-1.571372-1.130398-3.223054-2.316018-4.953134-3.555486l-5.089323-3.639968c-14.247666-10.174363-33.039973-23.471676-56.360796-39.880341l-20.187213-14.186959c-18.8884-13.251126-29.901064-35.067045-29.348527-58.133103l17.042691-711.194435.006655-.4488614c.204298-10.305777 3.195849-20.3783536 10.552626-29.2249022l.413211-.4902072c9.161189-10.7229507 21.772628-15.643412 34.503887-15.6433396l98.156621-.3636896.241459-.4058716c4.598628-7.634057 11.199205-14.0621597 19.309029-18.4663932l.498402-.2671112c12.184618-6.443782 24.049468-11.3361416 35.661711-14.6084284 12.570319-3.5422688 26.818715-5.74240183 42.855458-6.75071408 1.948084-.12267821 3.898704-.20449177 5.851146-.24544487l.215795-.00403665.263224-.10834515c6.440781-2.6339833 13.339007-4.04307631 20.338219-4.13565485zm-254.09465 572.268878-5.536332 231.046852c-.232193 9.693075 4.395141 18.860915 12.332517 24.429369 30.480542 21.397749 54.673109 38.475662 72.577702 51.233736l6.695365 4.779071 7.703614 5.524322c30.424624 21.886574 66.917964 27.174505 142.292535 19.220754 22.518907-2.376263 56.914186-6.242373 95.281296-10.631843l64.347965-7.412348 3.718617-.430727c60.716299-7.034368 120.215016-14.00538 151.517163-17.614313l15.352039-1.756678c43.991387-5.081242 57.100033-12.067396 59.621408-18.590034 1.519935-3.931975 2.319057-5.89664 2.716375-7.002733l.159251-.4636c.12728-.394319.181155-.645852.19207-.860411l.002147-.084103c0-.757465 6.842797-1.912085 12.648419-4.364217l.567239-.236002c5.53921-2.272379 9.90245-3.200318 9.90245-9.925939 0-1.635489-1.185447-43.042074-3.001725-105.514838l-4.059531-138.642848c-.645257.188864-1.307041.374775-1.985429.557954-10.110944 2.730163-24.268556 4.919348-41.53254 6.431841l-.980518.084889c-62.57077 5.352843-334.537115 24.766032-405.940894 28.20849l-2.101938.099397c-30.979814 1.4345-56.420376.03013-78.034518-3.879282-17.130858-3.098506-30.989017-7.500786-45.585773-13.855824l-1.6978-.747804c-1.894993-.847863-4.834659-2.205544-7.791705-3.581228l-.709499-.330258c-4.488942-2.090634-8.82816-4.13196-9.409991-4.396819l-2.041046-.923228c-4.341779-1.951905-9.280785-4.098954-15.515208-6.758563l-19.739302-8.384827-3.975196-1.710043c-3.01319-1.303631-5.635091-2.457317-7.989227-3.518165zm484.595891 100.36825v66.840557c0 6.591968-5.491628 12.506531-12.265896 13.210547l-116.526008 12.109967c-6.774267.704016-12.265895-4.216895-12.265895-10.991162v-68.689016c0-6.774267 5.491628-12.738948 12.265895-13.322488l116.526008-10.037626c6.774268-.58354 12.265896 4.287253 12.265896 10.879221zm-473.513591-562.848128-10.564563 440.622003.471649.235074c1.219011.604219 2.610489 1.268951 4.171738 1.993004l2.293268 1.051019c3.216247 1.458345 7.00587 3.116926 11.730091 5.142089l19.604802 8.328766 5.811305 2.489037c4.542768 1.957658 8.385289 3.646618 11.900459 5.236741l2.11715.972223c1.594835.744806 4.613829 2.161076 7.759138 3.627689l6.419215 2.974587c1.24858.572772 2.323748 1.060346 3.09305 1.39933 13.616245 5.999844 26.241189 10.06149 42.124842 12.934411 20.054644 3.62734 44.004541 4.949423 73.549726 3.581353 67.009074-3.102811 338.78638-22.476845 405.310546-28.090636l1.952635-.165872c16.320664-1.39621 29.538627-3.399614 38.510078-5.766151l.494038-.131846c2.736489-.738909 4.956137-1.487387 6.586361-2.184781l-3.392785-115.833654c-4.242389-144.298534-8.436631-286.386989-9.97786-338.414173l-.100664.011796-487.454914 4.415356c-2.776788.025152-5.553795-.010574-8.329017-.107153l-123.959618-4.313842zm283.688-27.137h-140.271l-.006834 2.1920086-137.422125.5116086c-3.063007 0-4.859808 1.482065-5.390401 4.446195.0731.0013733.145781.0031225.218617.0056573l123.959617 4.3138423c2.483094.0864126 4.967784.1183782 7.452279.0958737l487.139847-4.4131855-.032573-1.0446828c-.274863-5.2457877-3.140637-5.7927878-6.282617-5.7578399l-.356752.0062212-1.660033.0553461-.368919.0097282-.366115.0055714-326.613177 1.2336315zm-40.67565-42.652h-13.009123c-2.749265 0-5.449575.727498-7.826747 2.1086259l-.39914.2241232c-2.278217 1.2355924-4.831079 1.8845027-7.427607 1.8845027h-2.934045c-2.090589.0001003-4.180661.0657588-6.267117.1971509-13.390808.8419489-24.897514 2.6187303-34.520119 5.3303442-8.743562 2.4639031-18.013946 6.2864593-27.811152 11.4676685-.760672.4022756-1.460703.8870889-2.091434 1.4400649l144.272702-.0009249c-.900774-.9585176-1.952914-1.7752406-3.12262-2.4137213l-5.77777-3.1537788c-2.788637-1.5221701-5.117871-3.7645634-6.744847-6.4933819l-.206005-.3352057c-1.612102-2.5459037-3.972357-4.5356482-6.761524-5.69303l-3.256333-1.3512352c-5.108896-2.1199672-10.585838-3.2112025-16.117119-3.2112025z"/></svg>