<svg width="960" height="960" viewBox="0 0 960 960" fill="none" xmlns="http://www.w3.org/2000/svg">
<path d="M480 17C613.653 17 722 125.347 722 259C722 295.256 714.014 329.702 699.686 360.627C693.193 374.641 685.437 388.931 679.057 401.564C672.42 414.705 666.666 427.165 662.63 439.944C650.027 479.848 637.505 530.166 632.399 580.999C627.792 626.869 624.486 656.649 622.216 675.27C621.083 684.567 620.196 691.178 619.525 695.665C619.192 697.893 618.894 699.73 618.625 701.171C618.537 701.644 618.047 704.588 616.962 707.192C615.982 709.544 614.562 711.686 612.778 713.504L593 733.67V762C593 766.236 591.655 770.345 589.185 773.748C594.295 780.775 594.331 790.473 588.934 797.588L587.266 799.785L588.727 801.644C594.425 808.896 594.425 819.104 588.727 826.356L588.611 826.502C591.487 830.094 593.053 834.587 592.999 839.232C592.936 844.617 590.705 849.749 586.81 853.467L582 858.058V866.5C582 872.276 579.502 877.77 575.15 881.568L548.743 904.613C541.656 912.903 527.73 929.12 523.243 934.015C518.818 938.842 513.245 941.181 510.05 942.333C506.323 943.676 502.416 944.564 498.995 945.176C492.126 946.404 485.035 946.895 480.435 946.995C480.29 946.998 480.145 947 480 947H479.5C479.355 947 479.21 946.998 479.065 946.995C474.465 946.895 467.374 946.404 460.505 945.176C457.084 944.564 453.177 943.676 449.45 942.333C446.255 941.181 440.682 938.842 436.257 934.015C431.77 929.12 417.843 912.903 410.756 904.613L384.35 881.568C379.998 877.77 377.5 872.276 377.5 866.5V858.058L372.69 853.467C368.795 849.749 366.564 844.617 366.501 839.232C366.447 834.587 368.012 830.093 370.888 826.502L370.773 826.356C365.075 819.104 365.075 808.896 370.773 801.644L372.233 799.785L370.566 797.588C365.169 790.473 365.205 780.774 370.314 773.748C367.845 770.346 366.5 766.236 366.5 762V733.67L346.722 713.504C344.938 711.686 343.518 709.543 342.538 707.192C341.453 704.588 340.963 701.644 340.875 701.171C340.606 699.73 340.308 697.893 339.975 695.665C339.304 691.178 338.417 684.567 337.284 675.27C335.014 656.649 331.708 626.869 327.101 580.999C321.864 528.86 308.825 477.269 295.906 436.913C291.977 424.637 286.448 412.65 280.086 400.002C273.971 387.846 266.543 374.075 260.3 360.595C245.981 329.678 238 295.243 238 259C238 125.347 346.347 17 480 17ZM508.066 890.592C487.257 892.214 468.257 892.111 451.83 891.055C456.475 896.445 461.095 901.774 463.959 905C464.824 905.246 466.018 905.527 467.545 905.8C471.822 906.565 476.672 906.922 479.75 906.999C482.828 906.922 487.678 906.565 491.955 905.8C493.482 905.527 494.675 905.246 495.54 905C498.485 901.682 503.288 896.138 508.066 890.592ZM542 853.733C501.654 861.814 456.843 863.927 425.046 863.994L430.626 868.864C454.446 872.131 489.244 873.724 529.688 868.154L542 857.409V853.733ZM542.266 824.748C498.217 833.364 448.953 835.187 416.237 834.982C415.751 836.288 415.129 837.554 414.364 838.752C415.395 840.369 416.186 842.125 416.717 843.965C449.141 844.274 499.512 842.438 542.681 833.171C541.948 830.427 541.806 827.553 542.266 824.748ZM542.198 797.193C497.979 805.371 449.02 807.125 416.263 806.93C415.554 808.848 414.542 810.682 413.227 812.356L411.935 814L412.682 814.95C445.651 815.325 497.74 813.591 542.47 804.308C541.955 801.97 541.864 799.558 542.198 797.193ZM543.071 768.029C499.044 776.268 450.169 778.092 417.202 777.935C416.645 781.141 415.305 784.233 413.189 786.903C446.163 787.239 497.429 785.556 542.139 776.853C541.79 773.899 542.098 770.88 543.071 768.029ZM406.5 754.452L409.496 757.856C444.83 758.397 504.308 756.643 553 745.565V738.788C494.208 746.148 439.831 743.081 406.5 738.767V754.452ZM646.008 378.315C602.162 383.155 533.968 389 475.666 389C418.75 389 354.851 383.429 314.109 378.649C314.676 379.763 315.247 380.888 315.819 382.026C322.465 395.237 329.109 409.435 334.002 424.718C347.467 466.781 361.298 521.228 366.899 577.001C371.492 622.73 374.768 652.2 376.99 670.43C378.103 679.557 378.94 685.771 379.535 689.753C379.54 689.786 379.545 689.819 379.55 689.852L400.778 711.496C402.734 713.49 404.231 715.851 405.202 718.415C437.068 722.863 493.468 726.527 554.282 718.456C555.253 715.877 556.755 713.501 558.722 711.496L579.949 689.852C579.954 689.819 579.96 689.786 579.965 689.753C580.56 685.771 581.397 679.557 582.51 670.43C584.732 652.2 588.008 622.73 592.601 577.001C598.063 522.613 611.349 469.493 624.486 427.897C629.508 411.998 636.423 397.251 643.352 383.532C644.244 381.764 645.13 380.027 646.008 378.315ZM480 57C368.438 57 278 147.438 278 259C278 289.32 284.667 318.028 296.596 343.785C298.697 348.322 300.861 352.731 303.087 357.145C341.268 362.087 412.933 369 475.666 369C539.259 369 615.236 361.897 657.019 356.924C659.203 352.594 661.329 348.263 663.392 343.812C675.328 318.048 682 289.33 682 259C682 147.438 591.562 57 480 57Z" fill="black"/>
</svg>
