<svg height="960" viewBox="0 0 960 960" width="960" xmlns="http://www.w3.org/2000/svg"><path d="m479.673535 2c140.671124 0 254.672926 114.496952 254.672926 255.693041 0 32.176336-5.932776 63.550707-17.347521 92.925063l-.415535 1.058896-.027648.106091c-.409299 1.483506-.409299 1.483506-.597454 2.005917-.139158.393277-.259399.702458-.3996 1.047692-.384729.947362-1.195055 2.787541-2.379269 5.430561l-.145411.324349c-.073992.164918-.073992.164918-.154496.3442l-.558403 1.240922c-1.529791 3.392937-2.599608 5.729238-3.044723 6.602805l-.038996.073463-.123206.309891c-4.054301 10.128517-9.986451 26.569366-16.056969 44.978287l-.239693.72768c-10.337966 31.419639-20.232901 65.667797-28.432087 99.548901-15.024688 62.085801-26.180558 120.961914-33.021826 180.352439-.81431 7.069194-3.580585 14.657109-7.238265 20.883199-3.16945 5.409484-6.208419 10.328435-9.140597 14.790078l-.454357.686525-.005187.086214c-.433206 5.565493-1.429172 9.841583-3.651707 14.349556l-.211977.423348c-1.074036 2.114515-2.171758 3.681587-3.851938 5.587747l-.224191.251135-.213043.499518c-7.028093 16.498355-11.532843 31.057756-13.574495 43.584879l-.121922.764427c-2.161293 13.855464-3.553695 39.376151-4.060602 75.964283-.069207 4.995278-2.005395 9.783796-5.427586 13.423328-10.270437 10.922708-19.388312 20.381665-27.400466 28.41158l-1.289584 1.289627c-13.012378 12.983974-23.026245 22.088847-30.251508 27.470148-11.546136 8.59944-23.808066 13.679291-36.606835 14.845657-1.776314.161877-5.61522.252881-8.633721.252881h-.878056c-.988956 0-1.842097-.015241-2.435813-.036794-13.99472-.508019-27.422207-5.693921-40.00002-15.061744-7.225263-5.381301-17.23913-14.486174-30.251509-27.470148l-1.289583-1.289627c-8.012155-8.029915-17.130029-17.488872-27.400466-28.41158-3.422191-3.639532-5.35838-8.42805-5.427586-13.423328-.506908-36.588132-1.89931-62.108819-4.060603-75.964283-1.791965-11.487803-5.683186-24.7147-11.723623-39.606104l-.170979-.41872-.30244-.297201c-4.321517-4.271874-6.58758-6.9229-8.252584-10.11302l-.126916-.246494c-2.374064-4.66995-3.419878-9.039271-3.866769-14.778975l-.006291-.08631-.452969-.685958c-2.748204-4.181575-5.588739-8.762477-8.537853-13.764503l-.591275-1.006026c-3.669481-6.246206-6.435757-13.834121-7.250066-20.903315-6.841269-59.390525-17.997139-118.266638-33.021827-180.352439-8.199185-33.881104-18.094121-68.129262-28.432086-99.548901-6.153778-18.702854-12.189016-35.44418-16.296663-45.705967l-.124261-.309891-.037941-.073463c-.429217-.842368-1.439313-3.044855-2.888029-6.255426l-.162766-.360861-.558529-1.24123c-.074305-.165492-.074305-.165492-.150058-.334337l-.145439-.324413c-1.182426-2.639029-1.992752-4.479208-2.37748-5.42657-.140202-.345234-.260443-.654415-.399601-1.047692-.188155-.522411-.188155-.522411-.597453-2.005917-.008949-.033793-.017642-.066621-.026092-.098599l-.431434-1.100064c-11.400403-29.34068-17.333178-60.715051-17.333178-92.891387 0-141.196089 114.001801-255.693041 254.672925-255.693041zm-33.505111 897.558817.376348.350277c5.255069 4.907893 9.519627 8.595189 12.757198 11.03486l.282672.211781c6.37376 4.747109 12.132349 6.971165 17.558209 7.168128.097758.006352.246812.008469.435763.009175l.996893.000353c1.920345 0 4.980132-.045544 5.433656-.086874 5.050408-.460249 10.438805-2.692545 16.344148-7.090782 3.254001-2.423546 7.586364-6.156596 12.957905-11.170116-9.41054.994347-19.953805 1.491648-31.627699 1.491648-13.237952 0-25.076316-.639483-35.515093-1.91845zm-54.177085-159.025404.159054.386955c1.853616 4.52158 3.550357 8.947651 5.089377 13.279477 19.988675 3.7515 47.559753 5.660221 82.574908 5.660221 5.522847 0 10 4.477153 10 10 0 5.522848-4.477153 10-10 10-30.668213 0-56.002376-1.428777-76.085546-4.326059 1.110948 4.459804 2.024317 8.806124 2.740046 13.040505 18.959743 2.74373 43.437086 4.1363 73.3455 4.1363 5.522847 0 10 4.477153 10 10 0 5.522848-4.477153 10-10 10-28.110214 0-51.739082-1.200372-70.950564-3.631708.271354 3.325098.520488 6.878791.74875 10.662022 18.496092 2.455894 41.920917 3.70103 70.201814 3.70103 5.522847 0 10 4.477152 10 10 0 5.522847-4.477153 10-10 10-27.288072 0-50.353097-1.131184-69.253586-3.421538.143675 4.008412.270439 8.19929.381571 12.573133 23.66595 3.231358 47.288263 4.846105 70.867408 4.846105 23.23668 0 45.63087-1.568183 67.18257-4.704547.705366-27.906764 2.046699-48.377205 4.085649-61.73356l.075599-.489912c2.351023-15.07177 7.249992-31.585475 14.645585-49.620617-33.113382 1.255226-60.711897 1.891922-82.814743 1.908928l-1.822847.00035c-24.101382-.019026-54.486401-.77496-91.170545-2.267085zm-15.477621-30.957627.139486.207899c.774093 1.159448 1.534103 2.272654 2.28034 3.340293 1.478317 2.115027 2.525756 4.484919 3.098453 6.974795 41.30409 1.780761 75.024579 2.680968 101.140659 2.701377h1.801283c23.346854-.018043 53.015933-.738942 88.998345-2.16365l1.233605-.049084c.543886-2.668319 1.629703-5.210475 3.204433-7.463438.766164-1.096149 1.546846-2.240332 2.342515-3.433501-1.975514.114418-4.088938.226518-6.374809.335752-20.215226.96602-50.34575 1.540118-94.194438 1.564833l-2.993185-.000062-.984016-.000641c-42.554612-.033282-71.867562-.605988-91.589008-1.564522-2.970573-.144381-5.645299-.293777-8.103663-.450051zm-89.419576-350.86616.18606.48571c4.338919 11.243348 9.750661 26.481439 15.24224 43.171707 10.659653 32.397327 20.850028 67.668053 29.313762 102.642339 15.253311 63.03053 26.640411 122.980353 33.702872 183.64296.113874.005633.229002.013374.344422.023115.34148.028821 1.392526.122416 2.126805.188072l.274384.024553c.224555.02011.391765.035125.455496.040878l.017222.00104c1.354236.120744 2.557078.221866 3.903281.326226 3.668461.284384 7.828177.545341 12.927621.793192 19.56256.950811 48.967151 1.519427 91.929576 1.541791h2.388341c43.701782-.022368 73.614138-.591082 93.517158-1.542183 5.189816-.248004 9.423866-.50916 13.158293-.793793 1.370579-.104463 2.595188-.205686 3.978817-.326408l.021151-.001935c.138643-.012293.645172-.056955 1.204123-.105968l-.159374 1.371895c7.048378-61.188489 18.498856-121.619423 33.881269-185.183435 8.463735-34.974286 18.654109-70.245012 29.313762-102.642339 5.566732-16.918677 11.051427-32.345159 15.419771-43.631057-4.87269.19964-9.199429.376553-11.363927.464521-42.624226 1.732286-72.898216 2.821509-102.024971 3.565897l-2.054247.051976c-2.052633.051411-4.100864.101139-6.148631.149289l-2.04776.047627c-1.706581.039257-3.413752.077443-5.123795.114618-21.001209.456545-40.744458.701458-59.552976.718625l-2.252556.000966-3.58273-.002448c-54.164837-.070882-108.617245-1.680446-188.995459-5.137431zm192.621419-316.7096702h-2.045231c-118.540834 0-214.672925 96.5496722-214.672925 215.6930852 0 28.024797 5.312716 55.271489 15.493673 80.624688 87.172165 3.80811 144.086609 5.528426 201.182415 5.531776 19.329792.001113 39.666844-.243069 61.369692-.714867.6809-.014802 1.36136-.029766 2.041527-.044895l3.059258-.069213 2.038758-.047421c1.019411-.023972 2.038979-.048339 3.059196-.073112l2.041442-.050094c29.958103-.742796 60.755527-1.843635 104.781754-3.6329 2.703531-.109874 8.786671-.358772 15.091418-.616835l1.222193-.050027 1.395146-.057109c1.029398-.042137 2.053075-.08404 3.057291-.125145 10.042778-24.999878 15.349951-51.802357 15.515293-79.375579v-1.299267c0-119.143413-96.132092-215.6930852-214.6309-215.6930852z"/></svg>