<svg height="960" viewBox="0 0 960 960" width="960" xmlns="http://www.w3.org/2000/svg"><path d="m540.047593 2.90045706.126652.00100229.629818.00485887c1.345887.01015431 2.751163.01927659 5.076393.03351354 16.757562.10260346 27.381903.26879808 37.54505.75440699l1.107151.05425491c3.870531.19441316 7.703897.43674835 11.81582.74124558 21.441661 1.5878034 41.199005 4.63586749 60.306131 9.73979006 56.451167 15.0793154 102.647402 47.1590562 136.041346 100.8194117 37.704309 60.586633 57.13173 146.26959 57.13173 261.219745 0 168.110255-31.972316 272.168537-98.324337 328.822992-29.425384 25.124766-64.188945 39.8719-105.504111 47.18508-19.002489 3.363623-36.410615 5.051897-59.793197 5.831529l-.357434.011738 71.232276 98.957492c1.373284 1.909265 2.614644 3.909628 3.715573 5.987113l.406249.782645c12.953468 25.483596 2.795793 56.642993-22.687803 69.596461l-.371298.186313-.946885.468997-.128549.063385c-39.595636 19.43556-136.617293 28.195766-242.09438 24.058064l-3.034711-.120405c-1.35524-.054378-2.703848-.109308-4.045827-.164789-87.065954-3.599566-131.406959-11.163539-169.978236-25.870083-3.596693-1.368295-7.015157-3.165547-10.181285-5.352796-21.73874-15.017723-27.187201-44.814724-12.153351-66.576792l102.412227-148.022605-.076952-.039691c-16.503742-8.569148-33.422678-18.709675-51.797071-30.858581l-1.314946-.8712c-89.278349-59.270088-138.383736-170.608968-134.759395-292.484672.976752-32.845219 2.278453-55.528178 4.851143-77.71012l.197853-1.683898c3.424423-28.773588 8.912359-54.244864 17.35159-78.231503 19.572795-55.631318 54.886472-102.025606 111.011359-142.6961031 53.924462-39.075974 103.454217-62.2591236 155.387124-74.0214594 22.661696-5.13267015 45.696348-8.11440122 71.294614-9.55883681.439217-.02478376.877725-.0491126 1.315688-.07299171l1.312414-.07029338c.218517-.01149244.436939-.02287375.655286-.03414458l1.309346-.06630444 1.308529-.0636842c.606353-.02890989 1.212761-.05698577 1.819661-.08424165l1.822623-.07932159c11.254061-.47415219 22.827632-.6724438 37.507282-.68347474h2.600665c6.144751 0 12.834275.03896472 20.258175.09795266zm-193.32543 709.08587694-118.247446 170.908084c-2.461274 3.562792-1.568319 8.446262 1.994473 10.907537.518901.358471 1.079157.653025 1.668624.877277 25.614633 9.766397 60.538482 19.285346 157.407744 23.29021 1.325728.054809 2.658129.109079 3.997204.162808l3.016767.11969c99.505406 3.903438 191.344675-4.516226 222.883391-19.997038l.946885-.468997c5.79032-2.943255 8.098321-10.023216 5.155066-15.813536-.27241-.535918-.585511-1.050161-.93655-1.538207l-102.10243-141.842658-2.093893-.024915c-16.171427-.043702-30.67344-.223353-38.637221-.548861-25.593332-1.046092-47.643878-3.475306-67.751289-7.919675-24.217483-4.194795-46.128847-10.105471-67.301325-18.111719zm176.806445-669.1069208-4.904733-.0002579c-2.465821 0-4.670094.0090153-6.509661.0194169-10.062909.0568993-19.932464.1971305-29.58867.511984-.663529.026411-1.328076.0535331-1.992127.0816996-30.938201 1.3122805-60.800463 4.891742-91.854389 13.9511808-79.025904 27.0785633-129.529996 104.1727184-131.429179 322.9905604-2.074052 238.965747 68.781714 309.251 159.806761 329.832584 28.108478 4.874549 60.056725 7.478009 98.629561 8.211997.381234.007254.762114.014307 1.143641.021179 1.49216.026879 2.995476.051002 4.508857.072372 1.933731.003043 3.885654.005737 5.851543.006605l3.167259-.000171 1.590195-.001249 2.390759-.003314 2.741512-.005895 1.454923-.004029c.727327-.00217 1.454359-.004573 2.18068-.007205l1.451575-.005571c1.692113-.006856 3.378855-.014956 5.054957-.02427l1.43393-.008281c18.842525-.112928 36.137936-.379493 44.309926-.757264.817069-.039088 1.630749-.081643 2.443711-.126047.373677-.020411.747201-.041211 1.12057-.06241l2.047639-.12039c1.729823-.105239 3.456197-.219341 5.178823-.343049.135545-.009734.270707-.019502.405845-.029328l3.758615-.289448c.848303-.069047 1.695631-.140587 2.541948-.21471l1.056845-.093959 1.255935-.115337c4.439807-.414876 8.850754-.903416 13.22758-1.478665l.53725-.07107 1.139795-.153845 3.637627-.519627c.192699-.028709.385327-.057599.577883-.086671l2.998057-.468437 1.297111-.212669 2.283331-.389513c1.158195-.202562 2.313558-.412298 3.465986-.629462l.161839-.03055c.447321-.084583.894199-.170288 1.340628-.25713l-1.340704.257145c1.219585-.23061 2.435877-.469557 3.648754-.717141l-2.30805.459996c1.194443-.232349 2.385672-.472832 3.573572-.721734l1.718256-.366438c.241238-.052354.482336-.105063.723292-.158129l1.116735-.248735c2.349459-.529216 4.68529-1.092871 7.00659-1.693204.299869-.077551.599674-.155762.899235-.23459l-.899235.23459c1.144546-.296001 2.285559-.600919 3.422931-.915022l-2.523696.680432c1.263552-.3325 2.522751-.675988 3.777449-1.030828l.245739-.069658c.678794-.192862 1.356266-.389057 2.032394-.588642l1.203377-.359243.019042-.00575c1.774081-.535768 3.538764-1.095228 5.293626-1.679427l.302728-.101058c.434208-.145348.867813-.292216 1.300808-.44062l-1.301005.440686c1.170814-.39192 2.337241-.794893 3.499153-1.209231l1.148676-.413868c.584939-.21293 1.168717-.428782 1.751319-.647595l1.586884-.604482c.181278-.070029.36244-.140351.543485-.210967l-.543478.210965c1.090614-.421316 2.177023-.853216 3.25912-1.295964l1.094409-.452111c.415683-.173373.830719-.34837 1.245105-.525004l.929254-.399327 1.279698-.560603c.672749-.298003 1.343732-.600445 2.012923-.907392l1.262619-.585504.64232-.30279c.474561-.224948.948198-.452217 1.420903-.681831l1.192718-.585333c.713576-.353787 1.424992-.713001 2.134215-1.077723l-2.133669 1.077453c1.061919-.5265 2.119056-1.065016 3.1713-1.615821l2.454382-1.312053c.151243-.082555.302383-.165372.453417-.248452.279829-.153927.559208-.308705.838225-.464391l.018268-.010195c2.261863-1.262466 4.499973-2.584579 6.713195-3.969154l1.960007-1.246794c.392783-.254036.78476-.510093 1.175926-.768186l1.04399-.694975c.291622-.195857.582787-.392863.873491-.591024l1.139117-.784059 1.960899-1.385813 1.022961-.741538c.807207-.590258 1.610649-1.189958 2.410267-1.799249l.511933-.391796c.984482-.756757 1.963121-1.528162 2.935803-2.314499l.760786-.619081.233813-.1919c.637903-.524606 1.273206-1.055732 1.905875-1.593456.119339-.101429.238747-.203233.358061-.305272-12.472256 9.323033-26.195184 16.694937-41.196259 22.30601-23.199299 8.677574-48.661415 13.017135-79.904939 14.674338-7.532194.399519-24.20137.666996-42.23176.771495l-1.426139.007911c-.952455.005047-1.908114.009641-2.865843.013776l-1.438005.005859c-.479758.001838-.959891.003561-1.440259.005168l-3.604936.016022h-8.191959c-16.89092-.011872-32.605538-.175955-40.758428-.517793-32.681045-1.370264-59.024994-5.303123-83.098986-13.46393-29.160133-9.884951-53.716991-25.80936-73.856572-49.134657-44.316816-51.32693-65.967674-137.355964-64.853932-268.989347 1.217403-143.88513 24.194438-231.045865 71.869246-279.358163 21.97705-22.270919 48.837376-36.0963185 81.795426-43.6479426 25.944696-5.944666 53.448502-7.9572462 95.416131-8.20067 1.716714-.0099574 3.653507-.017855 5.749906-.0194871l4.530484-.0003102c4.288633 0 8.992208.01846 13.712086.0430048l2.1237.0116856c11.553709.0670736 22.846354.1899637 28.015497.3409496 28.588559.8350453 52.137353 3.7441496 75.221972 10.4556714 18.950103 5.509471 36.44249 13.4012441 52.420039 24.0391653l.00346-.0114237c-.647212-.4859027-1.296056-.9660067-1.946482-1.4403815-.852606-.6218302-1.707846-1.2337569-2.565688-1.8359981l-.611781-.42755-.046819-.0325596c-.827496-.5752815-1.65738-1.1416156-2.489547-1.6991425l-.704752-.4697001c-.280569-.1860155-.561394-.3710374-.842471-.5550711l-.895023-.5821328c-.50332-.3251921-1.007431-.6472454-1.512309-.9661903l-1.239452-.7758183c-.66967-.4153159-1.340653-.8252338-2.012896-1.2298243l2.012464 1.2295564c-1.134293-.7034611-2.272351-1.3914352-3.413922-2.0642663l-1.6092-.9371299c-.088146-.0507169-.176312-.101345-.264497-.1518844l-1.436885-.8146763-2.01022-1.1106483-1.28908-.6947318-1.452047-.7665361c-2.521649-1.316613-5.057189-2.5650686-7.604004-3.7489297l-1.053133-.4855754c-1.116325-.5105289-2.234742-1.0087712-3.355031-1.4950261l-1.398674-.6004729c-.668482-.2838471-1.337597-.5634817-2.007297-.838967l-1.039082-.4239241c-.779603-.3154405-1.559967-.6253124-2.341017-.9297152l-1.260685-.4863754-2.130976-.7998875c-.490388-.1808984-.981004-.3597074-1.47183-.5364515l1.472113.5365559c-1.140745-.4208096-2.282725-.830313-3.425714-1.228818l1.953601.6922621c-1.127958-.4061719-2.257026-.8014385-3.386985-1.1860968l-.343427-.1165728c-.583472-.1974848-1.167176-.39215-1.751082-.5840363l-1.326241-.4309685c-.70352-.2260427-1.407299-.4481003-2.111286-.6662442l2.11082.6660946c-1.155982-.3714171-2.312666-.732075-3.469819-1.0822903l1.358999.4161957c-1.224868-.379549-2.450364-.7472502-3.676212-1.1034795l2.317213.6872838c-1.127576-.3412637-2.255597-.6726117-3.383849-.994337l-1.269223-.3578562c-1.860066-.5185102-3.720537-1.011171-5.580453-1.4792945l-1.150272-.2864156-.795104-.1943843c-.516367-.1252923-1.032665-.2487275-1.548874-.3703339l-1.326077-.3084343-.308983-.0707368c-1.451391-.3312761-2.901903-.6483167-4.351075-.9517471l-.855086-.1774975c-.476185-.0979897-.952215-.194522-1.428075-.2896193l-.07696-.0153678c-.647885-.1292697-1.295452-.2558812-1.942659-.3798904l-1.436961-.2711911-.307174-.0569044c-.582609-.1075748-1.164896-.2130774-1.74683-.3165487l-1.379962-.2416947c-.630374-.1087395-1.260306-.215129-1.889759-.3192208l-1.532677-.2490993c-.29802-.0475934-.595924-.0946799-.893709-.1412652l-1.133604-.1750189c-.438297-.0667759-.876324-.132479-1.314069-.1971271l1.313805.1970869c-1.511197-.2302342-3.019189-.4477151-4.523438-.6531731l3.209633.4560862c-1.120804-.1655256-2.239756-.3241351-3.356633-.4761276l-2.62789-.3460557c-.966606-.1230798-1.93152-.2413501-2.894598-.3550068l-1.178421-.1368867c-.43308-.0495088-.865776-.0980978-1.298075-.145785l-.014402-.0015885c-1.592738-.1756259-3.180078-.3390122-4.761363-.491053l-.619679-.0590328c-.459587-.0433756-.918655-.0858007-1.377186-.1272975l-1.126103-.100152c-.281566-.024604-.562924-.0488633-.84407-.0727833l-1.452096-.1207061c-.578925-.047-1.156921-.0925907-1.733953-.1368172l-1.377036-.1031103c-3.302304-.2414811-6.572031-.4392237-9.80292-.6017564l-3.088502-.1454497-1.225334-.0523725c-.28656-.0119046-.572785-.0235567-.85867-.0349624l-1.063118-.0413498-1.305156-.0479075c-1.722984-.0612064-3.433009-.1139693-5.129063-.1596632-5.709504-.1415567-15.960955-.2490475-26.623125-.315166l-1.958887-.0116596-1.564248-.0086239c-5.866578-.0312193-11.720291-.0527142-16.881157-.0552791zm17.457164 26.1836529-5.953469.0002522c-1.906647.0020081-3.621676.0087381-5.08136.0172047-131.798444.7644672-226.713887 17.8350266-229.197522 311.376325-2.295246 271.275524 94.726463 306.911299 202.648038 311.436278 7.88475.330595 22.763779.492014 38.841038.50178l4.005794.000473c2.043831 0 4.099062 0 6.154131-.009923l2.465265-.007481c20.530891-.070796 40.583067-.351861 48.593928-.776769 103.373076-5.483064 194.220715-44.089149 194.220715-314.986857 0-280.1692635-127.216831-304.6225647-214.29965-307.1661731-4.965726-.1450443-14.865054-.2532661-25.140114-.3176579l-1.234519-.0075162c-.205957-.0012175-.411991-.0024173-.618065-.0035995l-1.489561-.0082347-1.487927-.0076136c-4.313788-.0211947-8.568255-.0378579-12.426722-.0404879zm-241.237268 28.8277195-2.130998 1.3225653c-9.950128 6.2050301-20.163123 13.0854491-30.6902 20.7138201-105.270776 76.283712-113.761594 163.560641-116.90074 269.120704-3.139146 105.560064 37.794211 205.453641 116.90074 257.970863l2.367069 1.565524 2.198389 1.443068c.199202.130273.398282.260332.597242.390177.45339.295892.90575.59041 1.357504.883823l-1.357504-.883823c.715148.46672 1.428742.93068 2.140855 1.39189l-.783351-.508067c.828309.537984 1.654585 1.072254 2.478945 1.602827l-1.695594-1.09476c.85195.551777 1.701782 1.099619 2.549623 1.643543.436619.280108.871826.558613 1.306525.836086l-1.306525-.836086c.686851.440643 1.372397.878715 2.056703 1.314227l-.750178-.478141c.889696.567901 1.777262 1.13148 2.662848 1.690757l-1.91267-1.212616c.83497.531397 1.668095 1.058982 2.499501 1.582772l-.586831-.370156c.655475.413955 1.309865.825553 1.96323 1.234803l-1.376399-.864647c.702351.442486 1.403475.882263 2.103446 1.319344l-.727047-.454697c.815897.511056 1.630197 1.018452 2.443016 1.522203l-1.715969-1.067506c.822081.513329 1.642571 1.022938 2.461591 1.528844l-.745622-.461338c1.58996.98539 3.174253 1.956837 4.75376 2.914467.159957.09698.320289.194074.480572.291026l-.480572-.291026c.661206.400879 1.321574.799337 1.981167 1.195384l-1.500595-.904358c.846774.512196 1.692195 1.020419 2.5364 1.524691.444353.265426.888288.52971 1.331907.792902l-1.331907-.792902c.720311.430265 1.439737.857653 2.158361 1.282176l-.826454-.489274c.83412.494871 1.66712.985882 2.49913 1.473053l-1.672676-.983779c.734677.434006 1.468518.865018 2.20161 1.293048l-.528934-.309269c.690599.404369 1.380515.806093 2.069826 1.205181l-1.540892-.895912c.740908.432593 1.481052.862141 2.220526 1.288657.786373.453567 1.571989.903706 2.356958 1.350432.545462.310421 1.090008.618854 1.634279.925649l-1.634279-.925649c.645676.367454 1.290914.7326 1.935778 1.095445l-.301499-.169796c.787054.443645 1.573534.883864 2.359554 1.320673l-2.058055-1.150877c.719562.404877 1.438656.80689 2.157371 1.206052l-.099316-.055175c.640695.356049 1.281084.709831 1.921229 1.061357l-1.821913-1.006182c.877872.487557 1.755176.97086 2.632071 1.449932.481051.262813.9621.524418 1.44305.784752l-1.44305-.784752c.757567.413881 1.514828.824605 2.271884 1.232186l-.828834-.447434c.672171.363841 1.34415.7252 2.01601 1.08409-1.030104-1.108056-2.049817-2.23151-3.059524-3.371514-48.971172-55.290666-72.974394-148.267348-71.738444-290.669625 1.196829-137.894854 21.326246-227.557173 62.497902-282.3696324z"/></svg>