<svg height="960" viewBox="0 0 960 960" width="960" xmlns="http://www.w3.org/2000/svg"><g fill="#000" fill-rule="evenodd"><path d="m414.027336 208.537168.167664.073709 456.335203 150.525203c1.42975.471614 2.808798 1.010776 4.135931 1.612167l.510866.23763.833901.322815c32.363977 12.678999 58.254213 38.370063 70.880488 71.608462l.398455 1.063356c5.099632 13.798534 7.710156 28.392553 7.710156 43.10329 0 89.481285-54.243441 170.031153-137.15851 203.676237l-189.541975 76.911901c-33.303327 13.513747-69.978676 12.087761-101.490695-2.721678l-.67782-.322383-.175952-.023728c-3.221502-.457636-6.417547-1.313618-9.516396-2.58142l-.464089-.19326-428.648563-181.650592-.7003394-.2594c-31.0568926-11.679801-56.026664-35.874657-68.4188052-67.385024l-.3792447-.976874c-5.1744883-13.503632-7.8276107-27.842026-7.8276107-42.303125 0-57.300563 24.3942204-110.381988 64.8545241-147.516919-6.1694279-.679582-11.7659786-1.173323-16.7800325-1.479175-21.1948963-1.292867-49.99554777-.320808-85.9749054 2.944441-16.5007303 1.497497-31.0911766-10.665027-32.5886739-27.165757s10.6650263-31.091177 27.1657566-32.588674c38.99002947-3.538477 70.5375812-4.573986 95.0509696-3.078695 23.5878569 1.438835 56.2627705 6.181088 98.5853885 14.273054l169.471799-59.146931c27.835849-9.714916 57.77056-8.408341 84.24251 3.04137zm386.990291 189.751948-186.712557 69.008369c-72.561722 26.818582-120.742472 95.992269-120.742472 173.351431 0 11.173347 2.160142 22.241323 6.361521 32.594686 6.962099 17.15654 18.79335 30.873979 33.252303 40.204902l.395845-.386602c22.928029 14.812232 52.473154 18.588121 79.687194 7.545271l189.541975-76.911901c18.91463-7.675134 36.005295-18.334149 50.81834-31.30338 38.072986-33.534413 60.991622-82.371722 60.991622-134.982616 0-9.980226-1.771145-19.881259-5.231052-29.24256-16.15022-43.696857-64.665862-66.027819-108.362719-49.8776zm-86.492492 84.271353v169.10357c0 4.008674-2.393856 7.629943-6.082046 9.200523l-125.525135 53.453661c-6.596065 2.80887-13.917954-2.031296-13.917954-9.200523v-172.143806c0-4.083955 2.483399-7.757539 6.273136-9.279573l125.525135-50.413425c6.570505-2.638847 13.726864 2.198963 13.726864 9.279573zm-371.559693-239.298663-185.572561 64.766194c-64.3118662 22.445315-107.392881 83.110316-107.392881 151.226454 0 9.568327 1.7554643 19.055466 5.1792151 27.990276 8.5087689 22.204955 26.0387622 38.299113 46.8084729 45.704325l387.844105 164.360419c-3.233924-5.173976-6.066767-10.697404-8.439921-16.545514-5.170736-12.742126-7.829274-26.363743-7.829274-40.115044 0-85.730795 53.394761-162.3903 133.808948-192.111128l186.712556-69.008369c1.730967-.63976 3.468047-1.230709 5.209729-1.773541l-399.536842-131.787751c-17.241651-7.931264-37.457993-9.453874-56.791547-2.706321zm351.559558 254.090663-105.525 42.38v150.258l105.525-44.937zm173.733911-76.234769v165.451337c0 4.008674-2.393856 7.629944-6.082046 9.200524l-125.525135 53.453661c-6.596064 2.80887-13.917954-2.031297-13.917954-9.200524v-168.491574c0-4.083955 2.483399-7.757538 6.273136-9.279573l125.525136-50.413425c6.570504-2.638847 13.726863 2.198963 13.726863 9.279574zm-20.000135 14.792-105.525 42.38v146.605l105.525-44.937zm-505.708813-162.503797c4.449558 1.242995 8.042948 2.651471 10.928798 4.30073 4.030693 2.303537 6.900268 5.215899 8.496262 8.840457.730493 1.658976 1.135492 3.333726 1.293781 5.042921.100576 1.086011.09757 1.838287.047129 3.074367-.01085.265869-.014268.363599-.014953.402324l-.000141 7.205324c-.002782 6.092636-3.69054 11.57833-9.333325 13.881593-11.035077 4.501553-20.503281 8.277264-28.418979 11.332344-13.284941 5.12735-29.999454 6.391349-49.75893 4.86121-13.301517-1.030046-22.728607-4.683439-27.823413-12.253619-1.110628-1.650241-1.703865-3.594214-1.703865-5.583381v-8.887851c0-4.032864 1.618807-7.577501 4.298501-10.526565 1.844923-2.03038 4.153747-3.750253 6.974064-5.368806 3.917065-2.247966 8.334756-4.107823 15.858655-6.905762.574542-.213657 1.166409-.432753 1.933652-.716035.140639-.051927 1.516844-.559733 1.92023-.708777.583549-.21561 1.076905-.398355 1.546868-.5731 19.005883-7.066909 48.416298-11.702467 63.755666-7.417374zm-56.785366 26.163438c-.484401.180113-.99009.367427-1.585559.587442-.40826.150843-1.787536.659783-1.924519.71036-.753904.278357-1.332409.492507-1.889913.699828-6.507757 2.420063-10.220316 3.983058-12.87476 5.506418-.464479.26656-.8588.512633-1.180333.729083l-.047186.031039v2.243l.07065.034583c.17293.08081.356792.161531.551733.241858l.300738.120156c2.372821.919567 5.774165 1.595038 10.148299 1.933763 17.049204 1.32026 31.064485.260385 41.013485-3.579452 4.018608-1.550989 8.454941-3.295161 13.309219-5.23262l1.839946-.735608c3.09923-1.241114 6.361731-2.557736 9.787556-3.949892l.016374-.007788v-3.971l-.161119-.085751c-1.246539-.647196-3.07524-1.345891-5.530487-2.05172l-.439792-.124623c-10.293277-2.875453-36.014807 1.178676-51.404332 6.900924zm-317.280289-26.202827c-5.5002434.499165-9.5544179 5.362647-9.0552522 10.862891.4991658 5.500243 5.3626479 9.554418 10.8628913 9.055252 36.90106364-3.348897 66.6454987-4.352809 89.0002601-2.989192 10.3233478.629713 22.7861122 1.989123 37.3675669 4.072181 8.6879849-5.98509 17.9096699-11.317998 27.6053609-15.920193-25.8352391-4.356693-46.8156533-7.041222-63.0532972-8.071209l-.7019149-.043674c-23.3618939-1.425051-53.95884581-.420745-92.0256149 3.033944z" fill-rule="nonzero"/><g transform="translate(611 528)"><path d="m0 28.5925905 15-5.5925905v45.4074095l-15 5.5925905z"/><path d="m53 5.59259047 15-5.59259047v45.4074095l-15 5.5925905z"/><path d="m22 125v-23.971845c0-7.6400499 5.1128845-15.0785532 12.5-18.1856816 5.2484746-2.2075849 10.6840819.0728711 12.1407685 5.093541.2383872.8216341.3592315 1.6884532.3592315 2.5767768v23.9718448z"/></g><g transform="translate(761 465)"><path d="m0 28.5925905 15-5.5925905v45.4074095l-15 5.5925905z"/><path d="m53 5.59259047 15-5.59259047v45.4074095l-15 5.5925905z"/><path d="m22 125v-23.971845c0-7.6400499 5.1128845-15.0785532 12.5-18.1856816 5.2484746-2.2075849 10.6840819.0728711 12.1407685 5.093541.2383872.8216341.3592315 1.6884532.3592315 2.5767768v23.9718448z"/></g></g></svg>