<?xml version="1.0" encoding="UTF-8"?>
<svg width="960px" height="960px" viewBox="0 0 960 960" version="1.1" xmlns="http://www.w3.org/2000/svg" xmlns:xlink="http://www.w3.org/1999/xlink">
    <!-- Generator: Sketch 60.1 (88133) - https://sketch.com -->
    <title>com.sonoff/driver/snzb-02/assets/icon</title>
    <desc>Created with Sketch.</desc>
    <g id="com.sonoff/driver/snzb-02/assets/icon" stroke="none" stroke-width="1" fill="none" fill-rule="evenodd">
        <path d="M827,6 C832.30433,6 837.391408,8.10713681 841.142136,11.8578644 L841.142136,11.8578644 L950.142136,120.857864 C953.892863,124.608592 956,129.69567 956,135 L956,135 L956,844.294574 C956,905.987777 905.987777,956 844.294574,956 L844.294574,956 L124.76,956 C119.455635,956 114.368526,953.892835 110.617793,950.142064 L110.617793,950.142064 L11.8577928,851.381064 C8.10710901,847.630342 6,842.543295 6,837.239 L6,837.239 L6,117.705426 C6,56.0122229 56.0122229,6 117.705426,6 L117.705426,6 Z M818.715,46 L117.705426,46 C78.1036129,46 46,78.1036129 46,117.705426 L46,117.705426 L46,828.954 L133.045,916 L844.294574,916 C883.500369,916 915.357178,884.535249 915.990394,845.480354 L915.990394,845.480354 L916,844.294574 L916,143.285 L818.715,46 Z M476,344 C495.882251,344 512,360.117749 512,379.999987 L512,379.999987 L512,402.615 L540.05195,402.61551 C545.574797,402.61551 550.05195,407.092663 550.05195,412.61551 C550.05195,418.04475 545.725279,422.463442 540.331855,422.611668 L540.05195,422.61551 L512,422.615 L512,436.5 L525.364473,436.5 C530.88732,436.5 535.364473,440.977153 535.364473,446.5 C535.364473,451.92924 531.037802,456.347932 525.644378,456.496158 L525.364473,456.5 L512,456.5 L512,497.871 L512.195425,498.000989 C529.757096,509.779491 540.756382,529.542999 540.996003,551.274883 L540.996003,551.274883 L541,552 C541,587.898509 511.898509,617 476,617 C440.101491,617 411,587.898509 411,552 C411,529.982739 422.048211,509.909591 439.80558,498.000314 L439.80558,498.000314 L440,497.871 L440,380 C440,360.316572 455.797006,344.322731 475.404674,344.004823 L475.404674,344.004823 Z M476,364 C467.163444,364 460,371.163444 460,379.999933 L460,379.999933 L460.000869,509.499288 L454.734731,512.32943 C440.232917,520.123031 431,535.242057 431,552 C431,576.852814 451.147186,597 476,597 C500.852814,597 521,576.852814 521,552 C521,535.242387 511.767449,520.123613 497.266083,512.329867 L497.266083,512.329867 L492.000174,509.499709 L492.000243,446.5704 C492.000081,446.546953 492,446.523486 492,446.5 L492,446.43 L492,380 C492,371.268641 485.006099,364.170795 476.314871,364.003036 Z" id="Combined-Shape" fill="#000000" fill-rule="nonzero"></path>
        <path d="M476,400 C478.761424,400 481,402.238576 481,405 L481.000373,530.570755 C490.741598,532.834828 498,541.569769 498,552 C498,564.150264 488.150264,574 476,574 C463.849736,574 454,564.150264 454,552 C454,541.56941 461.258901,532.834227 471.000631,530.570522 L471,405 C471,402.238576 473.238576,400 476,400 Z" id="Combined-Shape" fill="#000000"></path>
    </g>
</svg>