<svg height="960" viewBox="0 0 960 960" width="960" xmlns="http://www.w3.org/2000/svg"><path d="m480 63c230.302741 0 417 186.697259 417 417 0 58.8342-12.184268 114.822611-34.167152 165.579583l-.011761-.006016c-.421416-.522471-.846166-1.04214-1.274217-1.558976 22.143812 26.736651 35.45313 61.056751 35.45313 98.485409 0 85.327994-69.172006 154.5-154.5 154.5-37.428658 0-71.748758-13.309318-98.485792-35.453447.517219.428368 1.036888.853118 1.559359 1.274534l.006016.011761c-50.756972 21.982884-106.745383 34.167152-165.579583 34.167152-230.302741 0-417-186.697259-417-417s186.697259-417 417-417zm262.5 561.023121c-65.432973 0-118.476879 53.043906-118.476879 118.476879s53.043906 118.476879 118.476879 118.476879 118.476879-53.043906 118.476879-118.476879-53.043906-118.476879-118.476879-118.476879zm-409.5-110.543121c-34.7949 0-63 28.151376-63 62.88v20.96c0 82.643184 78.099 167.68 210 167.68 41.610902 0 77.867334-8.463014 108.000071-22.649266.000705-.746324.006703-1.49141.017956-2.235221l-.018027 2.384487c0 .791545.005952 1.5817.017815 2.370423-.011859-.788201-.017815-1.578617-.017815-2.370423 0-67.37428 43.125642-124.676026 103.278464-145.806777l-.823931.292075-.455669.163806.001136-20.789104c0-34.728624-28.2051-62.88-63-62.88zm466.6 214.733007v30h-111.6v-30zm-319.6-487.213007c-63.7896 0-115.5 51.611904-115.5 115.28s51.7104 115.28 115.5 115.28 115.5-51.611904 115.5-115.28-51.7104-115.28-115.5-115.28z" fill-rule="evenodd"/></svg>