<svg height="960" viewBox="0 0 960 960" width="960" xmlns="http://www.w3.org/2000/svg"><g fill="none" fill-rule="evenodd"><g stroke="#000" stroke-linecap="round" stroke-linejoin="round"><path d="m235.947 881.38591c-53.437 0-96.911-43.543-96.911-97.063v-608.262c0-53.521 43.473-97.0619998 96.909-97.0619998 2.595 0 5.23.104 7.833.312l595.853 47.3439998c24.405 1.939 46.995 12.911 63.607 30.896s25.761 41.372 25.761 65.854v513.608c0 24.483-9.149 47.872-25.763 65.856s-39.204 28.957-63.61 30.895l-595.854 47.31c-2.601.207-5.234.312-7.826.312z" stroke-width="20"/><path d="m281.904 189.48691 531.62 42.24c11.132.885 19.715 10.176 19.715 21.344v454.274c0 11.168-8.584 20.46-19.716 21.344l-531.62 42.209c-12.454.989-23.106-8.851-23.106-21.344v-538.723c0-12.494 10.653-22.333 23.107-21.344z" stroke-width="20"/><path d="m189.312 79.7399102-124.036 38.4239998c-27.314 15.068-44.276 43.796-44.276 74.991v574.664c0 31.313 17.088 60.129 44.564 75.149l124.305 37.953" stroke-width="20"/><path d="m939 223.40191v513.61c0 55.84-42.92 102.3-98.58 106.72l-595.86 47.31c-19.66 1.56-38.42-2.28-54.89-10.23l-124.11-37.84c-27.47-15.02-44.56-43.84-44.56-75.15v-574.67c0-31.19 16.96-59.92 44.28-74.99l123.98-38.3899998.05-.03c16.56-8.07 35.45-11.97 55.26-10.4l595.85 47.3399998c55.67 4.43 98.58 50.89 98.58 106.72z" stroke-width="40"/><path d="m189.26 79.7719102-9.31 5.14c3.01-1.88 6.11-3.59 9.31-5.14z" stroke-width="40"/></g><path d="m404.128798 435.942361 21.288546.173193v90.11975c17.360284 4.645146 30.135985 20.724161 30.135985 39.985609 0 23.024273-18.257896 42.135827-40.781867 42.681299-22.520753.545394-40.781866-17.968937-40.781866-41.347366 0-19.557727 12.778918-36.132988 30.139202-41.132972" fill="#000" fill-rule="nonzero"/><path d="m390.686333 337.219689c6.213241-6.288865 14.786624-10.042628 24.189398-9.792622 9.241931.245729 17.689685 4.317637 23.803465 10.775452 6.013182 6.351556 9.737036 14.990593 9.737036 24.366937v148.106939c18.298487 11.650907 29.729885 32.078447 29.729885 54.67499 0 17.796888-7.044605 34.097159-18.438205 46.063013-11.473572 12.049843-27.336677 19.693355-44.832181 20.158535-17.669256.4698-33.674536-6.569478-45.256994-18.357013-11.424356-11.626634-18.548184-27.904534-18.548184-46.126802 0-22.988384 11.454194-43.955721 29.729885-55.985941v-149.580345c0-9.568533 3.812358-18.155682 9.885895-24.303143z" stroke="#000" stroke-linecap="round" stroke-linejoin="round" stroke-width="20"/><path d="m724.575015 460.460978c-16.572478-22.418837-64.399317-67.006549-64.399317-116.082792 0 48.346585-46.46158 91.575398-63.678509 114.575251-3.915576 5.254227-12.418668 17.757945-14.489464 21.180733-8.13658 13.483088-11.505441 30.2497-11.505441 47.156839 0 49.544975 40.151454 88.647522 89.673414 87.330805 49.518905-1.316635 89.64898-41.160882 89.64898-88.987923 0-16.960989-3.66818-32.767667-12.388126-46.133891-1.814237-2.789516-9.410211-14.392393-12.861537-19.039022z" stroke="#000" stroke-linecap="round" stroke-linejoin="round" stroke-width="20"/></g></svg>