<svg height="960" viewBox="0 0 960 960" width="960" xmlns="http://www.w3.org/2000/svg"><path d="m713.608654 165.629531c113.168223-4.376697 200.836451 25.65788 239.817182 93.174487 2.407804 4.170439 4.598877 8.430249 6.576576 12.775059l.00091 147.601959c-10.139275 30.288593-25.582313 61.819739-45.794325 93.897592 17.115056 15.840665 32.433838 31.948493 45.794229 48.19929l-.000748 56.004208c-15.604463-25.210545-37.153024-50.919897-64.332661-76.516519l-3.504601 4.910406c-32.744901 45.358867-74.501375 91.33076-123.797621 136.000631 21.091583 65.622286 34.474886 128.405876 39.796937 185.689674 69.713854-16.460471 121.685779-43.643158 151.83904-78.914277l-.001883 45.761854c-36.72138 30.088937-87.945375 52.3968-149.63122 66.394759.800487 20.698171.449866 40.543331-1.070649 59.393613l-32.952555.00027c1.441668-16.613708 1.896065-34.282721 1.336876-52.925534l-5.950308.994062c-55.227366 8.919367-117.26027 11.900136-183.703888 8.628891-7.643187 14.882885-15.489195 29.326428-23.514694 43.300139l-38.212247.00049c8.826189-14.678387 17.430619-29.912732 25.785776-45.654009-37.495352-3.034833-76.208768-7.997817-115.733176-14.935221l-1.842356.854492c-35.759942 16.57525-71.250087 31.103331-106.087825 43.533574 5.122525 5.499944 10.264497 10.901423 15.422978 16.201403l-45.302856-.00042c-1.408647-1.536768-2.816063-3.081053-4.222189-4.632809l-4.420308 1.409543c-3.459595 1.095876-6.911108 2.17022-10.354145 3.222979l-152.349411.000774c45.334703-5.749621 93.57686-16.446535 143.37528-31.710955-24.367668-28.658509-48.232764-59.542275-71.275199-92.395615-37.70082-13.756937-73.709015-28.815521-107.7052761-44.931509l-.0461409 1.504702c-2.0067698 58.691276 1.0938517 113.944336 9.326499 163.741278.209768 1.268825.422663 2.532895.638672 3.792193l-33.3734458-.000255c-9.0841118-55.540726-12.1362313-118.016359-8.8398373-184.970785-20.6391053-10.599326-40.4333016-21.588701-59.30127336-32.905909l-.00017808-38.669113c19.51836094 12.297816 40.11186244 24.199277 61.65483184 35.633857 3.0348322-37.495352 7.9978163-76.208768 14.9352207-115.733176-16.9313168-36.386025-31.7448601-72.495579-44.3880657-107.930181l-1.0964423 1.031833c-10.7555563 10.044367-21.13164548 20.162852-31.10553872 30.333278l.00022189-46.275037c6.72154441-6.420171 13.60083693-12.819406 20.63358433-19.192141-7.9906165-24.861223-14.87486481-49.315008-20.63355142-73.216653l-.00027072-297.938219c15.47208204-38.7620259 39.29292804-68.8232149 71.80543574-87.59432 67.5165269-38.9806849 158.4565929-21.15736656 254.2746099 39.216839 22.59084-24.4082873 45.725051-45.1632319 69.042401-61.79460706l65.471799.00223738c-34.064441 14.81317508-69.547356 41.16638988-104.845968 78.23924318l-1.98246 2.084708c46.948438 33.2510505 94.629221 76.2333505 140.912244 127.3098205 65.622286-21.091583 128.405876-34.474886 185.689674-39.796937-19.897595-84.2708609-55.462747-142.6167969-102.043286-167.83689459l54.353307-.00286761c37.517536 37.1087703 64.766489 94.394682 80.932315 165.6338252zm-460.099154 688.756803 2.521261 3.305902c15.844597 20.779607 32.046494 40.668218 48.503967 59.561597 24.955096-8.564032 50.216608-18.225795 75.620752-28.938902-21.083822-4.611576-42.341137-9.780009-63.711429-15.506162-21.3704-5.726181-42.364096-11.878877-62.934551-18.422435zm487.780436-148.961106-4.8487 4.107484c-27.289315 22.941521-56.540966 45.42099-87.546915 67.167715-13.756937 37.70082-28.815521 73.709015-44.931509 107.705276 59.249206 2.105642 115.022578-.977206 165.24598-9.280358 2.182459-.360814 4.350853-.730879 6.505083-1.110134-.19169-2.178368-.395456-4.368659-.6118-6.570143-4.978556-50.661222-16.43601-105.332211-33.812139-162.01984zm-139.982533 103.1698-1.967128 1.264406c-17.554026 11.204687-35.580608 22.158848-54.04776 32.820863-19.159821 11.061928-38.354861 21.555915-57.52701 31.474267 27.311402 3.766284 54.212257 6.560612 80.533218 8.3743 11.590218-23.70152 22.620715-48.395558 33.00868-73.933836zm-244.151549-510.74579-1.123946.534681c-32.019407 15.235074-64.08526 32.074751-95.87433 50.42818-32.1614 18.568393-63.122616 38.156843-92.634812 58.522517-12.033086 33.777259-22.940705 68.753306-32.552397 104.624629-9.611755 35.87156-17.653547 71.61575-24.121131 106.884901 15.375497 32.392178 32.39447 64.836879 50.962861 96.998276 18.568393 32.1614 38.156843 63.122616 58.522517 92.634812 33.777259 12.033086 68.753306 22.940705 104.624629 32.552397 35.87156 9.611755 71.61575 17.653547 106.884901 24.121131 32.392178-15.375497 64.836879-32.39447 96.998276-50.962861 32.1614-18.568393 63.122616-38.156843 92.634812-58.522517 12.033086-33.777259 22.940705-68.753306 32.552397-104.624629 9.611755-35.87156 17.653547-71.61575 24.121131-106.884901-15.375497-32.392178-32.39447-64.836879-50.962861-96.998276-18.568393-32.1614-38.156843-63.122616-58.522517-92.634812-33.777259-12.033086-68.753306-22.940705-104.624629-32.552397-35.87156-9.611755-71.61575-17.653547-106.884901-24.121131zm11.098344 99.766062c29.077914 0 55.772393 5.005215 80.083437 15.015644 24.311043 10.01043 45.285277 23.715185 62.9227 41.114265 17.637424 17.39908 31.461351 38.254142 41.47178 62.565185 10.01043 24.311044 15.015645 50.767179 15.015645 79.368407v37.181595h-306.748166c6.67362 25.264418 19.663344 45.166106 38.969173 59.705063 19.305828 14.538957 43.259356 21.808436 71.860584 21.808436 22.880982 0 42.186811-4.647699 57.917486-13.943098s28.362884-21.808436 37.896626-37.539112l80.798468 47.192026c-19.544172 27.171166-43.378528 48.86043-71.503069 65.067793-28.12454 16.207362-63.637731 24.311043-106.539572 24.311043-30.984664 0-59.109204-5.124387-84.373622-15.37316-25.264417-10.248773-46.83451-24.430215-64.710277-42.544326s-31.580522-39.326688-41.114265-63.637731c-9.533742-24.311044-14.300613-50.528835-14.300613-78.653376 0-28.12454 5.124386-54.461504 15.373159-79.010891 10.248774-24.549387 24.430216-45.881136 42.544326-63.995247 18.114111-18.11411 39.565032-32.414724 64.352762-42.901841 24.787731-10.487117 51.48221-15.730675 80.083438-15.730675zm-266.408762 277.150205-.555377 4.119361c-3.4895773 25.89721-6.0964775 51.417042-7.8189225 76.413857 23.7015195 11.590218 48.3955575 22.620715 73.9338355 33.00868-11.647047-18.16966-23.023393-36.855156-34.085269-56.014888-11.061928-19.159821-21.555915-38.354861-31.474267-57.52701zm599.469495-78.920985-.496479 2.286037c-4.489661 20.335481-9.490618 40.82796-15.009683 61.425392-5.726181 21.3704-11.878877 42.364096-18.422435 62.934551 21.974916-16.649496 42.972959-33.695672 62.867499-51.025228-8.564032-24.955096-18.225795-50.216608-28.938902-75.620752zm26.031645-171.9333-.52481 6.332612c-3.074377 35.518818-7.863079 72.098513-14.410411 109.400564 16.931317 36.386025 31.74486 72.495579 44.388066 107.930181 43.384525-40.407374 80.642192-82.024858 110.284179-123.409232 1.288001-1.798231 2.559517-3.593058 3.814523-5.384369-1.675921-1.405461-3.368617-2.810014-5.078118-4.213588-39.343092-32.30238-86.102723-62.858837-138.473429-90.656168zm-605.73291 16.59828-3.305902 2.521261c-20.7796069 15.844597-40.6682185 32.046494-59.5615968 48.503967 8.5640321 24.955096 18.2257949 50.216608 28.9389014 75.620752 4.611576-21.083822 9.7800098-42.341137 15.5061624-63.711429 5.726181-21.3704 11.878877-42.364096 18.422435-62.934551zm246.640532 40.76439c-25.264418 0-46.953682 6.67362-65.067793 20.02086-18.114111 13.347239-31.223007 31.46135-39.326688 54.342332h205.928838c-6.673619-24.311043-18.829141-42.782669-36.466565-55.414878-17.637423-12.632209-39.326688-18.948314-65.067792-18.948314zm354.703254-283.036558-2.875904.072404c9.685445 56.709242 13.007786 120.817266 9.618408 189.660319 61.315621 31.488974 115.174134 66.420491 159.443405 103.163255 53.440885-86.47838 66.343327-162.959421 35.790079-215.879199-30.263675-52.418222-101.864996-79.471076-201.975988-77.016779zm-101.362424 176.455265 1.264406 1.967128c11.204687 17.554026 22.158848 35.580608 32.820863 54.04776 11.061928 19.159821 21.555915 38.354861 31.474267 57.52701 3.766284-27.311402 6.560612-54.212257 8.3743-80.533218-23.70152-11.590218-48.395558-22.620715-73.933836-33.00868zm-601.8038198-86.817942c-2.1824594.360814-4.3508529.730879-6.5050836 1.110134.1916906 2.178368.3954567 4.368659.6117999 6.570143 4.9785567 50.661222 16.4360102 105.332211 33.8121391 162.01984 28.6585092-24.367668 59.5422754-48.232764 92.3956154-71.275199 13.756937-37.70082 28.815521-73.709015 44.931509-107.705276-59.249206-2.105642-115.0225785.977206-165.2459798 9.280358zm667.2240028-87.58853-2.910717.262805c-1.21634.112452-2.436155.228782-3.659426.348995-50.661222 4.978556-105.332211 16.43601-162.01984 33.812139 24.367668 28.658509 48.232764 59.542275 71.275199 92.395615 37.70082 13.756937 73.709015 28.815521 107.705276 44.931509 2.105642-59.249206-.977206-115.022578-9.280358-165.24598-.360814-2.182459-.730879-4.350853-1.110134-6.505083zm-466.313934 80.185011-1.294804 2.656009c-11.117291 22.888628-21.713333 46.692006-31.713876 71.277827 18.16966-11.647047 36.855156-23.023393 56.014888-34.085269 19.159821-11.061928 38.354861-21.555915 57.52701-31.474267-27.311402-3.766284-54.212257-6.560612-80.533218-8.3743zm263.763995-34.724969-2.793623.962543c-24.046143 8.323705-48.370541 17.662843-72.827129 27.976359 21.083822 4.611576 42.341137 9.780009 63.711429 15.506162 21.3704 5.726181 42.364096 11.878877 62.934551 18.422435-16.649496-21.974916-33.695672-42.972959-51.025228-62.867499zm-152.684296-140.64429-1.872759 2.243736c-.780567.939599-1.560849 1.884396-2.340829 2.834382-32.30238 39.343092-62.858837 86.102723-90.656168 138.473429 37.495352 3.034833 76.208768 7.997817 115.733176 14.935221 36.386025-16.931317 72.495579-31.74486 107.930181-44.388066-40.407374-43.384525-82.024858-80.642192-123.409232-110.284179-1.798231-1.288001-3.593058-2.559517-5.384369-3.814523zm-243.5268653-54.0353169c-52.9195936 30.5531416-79.98626715 103.2384879-76.938252 204.8564369 56.7031191-9.68999 120.8111433-13.012331 189.6541963-9.622953 31.488974-61.315621 66.420491-115.174134 103.163255-159.4434047-86.47838-53.4408848-162.959421-66.3433273-215.8791993-35.7900792z"/></svg>