<svg width="960" height="960" viewBox="0 0 960 960" fill="none" xmlns="http://www.w3.org/2000/svg">
<path d="M251.864 11.1194C330.338 11.2078 408.648 18.2936 485.863 32.2932L544.271 42.8831C582.329 49.7831 610 82.922 610 121.6V838.401C610 877.078 582.329 910.216 544.271 917.116L485.863 927.706C408.648 941.706 330.338 948.793 251.864 948.881L206.09 948.933C195.33 948.945 185.021 946.82 175.597 942.946C175.245 942.827 174.894 942.699 174.547 942.56L85.1875 906.675C54.8685 894.499 35.0001 865.11 35 832.438V127.24C35.0001 94.4489 55.0104 64.9784 85.4883 52.8821L173.505 17.9504C183.486 13.5097 194.527 11.0546 206.09 11.0676L251.864 11.1194ZM206.045 51.0676C203.957 51.0653 201.913 51.2243 199.922 51.5266C180.717 54.4543 166 71.0406 166 91.0676V868.933C166 889.656 181.758 906.695 201.94 908.729C202.342 908.769 202.746 908.802 203.151 908.83C203.761 908.873 204.374 908.905 204.991 908.92C205.341 908.929 205.692 908.933 206.045 908.933L251.819 908.881C327.915 908.795 403.852 901.924 478.727 888.349L481.107 887.917L537.136 877.758C538.028 877.596 538.908 877.406 539.776 877.188C540.355 877.042 540.928 876.884 541.496 876.714C558.241 871.702 570 856.229 570 838.401V121.6C570 102.261 556.164 85.6915 537.136 82.2415L478.728 71.6516C403.852 58.0763 327.915 51.2051 251.819 51.1194L206.045 51.0676ZM100.244 90.0608C85.0052 96.109 75.0001 110.844 75 127.24V832.438C75.0001 848.774 84.9343 863.468 100.094 869.556L149.594 889.434C147.352 883.267 146.093 876.629 146.005 869.708L146 868.933V91.0676C146 83.8265 147.282 76.885 149.633 70.4583L100.244 90.0608ZM794.422 161.548C820.893 159.591 847.507 161.338 873.495 166.737L876.507 167.362L877.798 167.645C904.784 173.871 924 197.924 924 225.736V734.734C924 763.016 904.098 787.394 876.388 793.053L873.533 793.636C847.474 798.958 820.8 800.615 794.282 798.561C789.748 798.21 785.352 797.325 781.165 795.968L720.976 785.83C692.131 780.972 670.993 756.022 670.94 726.771L670.061 233.462C670.008 204.14 691.158 179.075 720.071 174.193L783.105 163.55C786.749 162.515 790.536 161.835 794.422 161.548ZM816.589 200.774C810.183 200.744 803.772 200.966 797.371 201.44C796.799 201.482 796.24 201.553 795.693 201.649C787.854 203.033 782 209.868 782 217.989V742.072C782 750.061 787.646 756.815 795.286 758.386C795.53 758.436 795.776 758.48 796.025 758.52C796.136 758.537 796.248 758.554 796.359 758.57C796.692 758.615 797.029 758.653 797.371 758.68C798.796 758.79 800.222 758.888 801.648 758.974C803.075 759.059 804.502 759.133 805.929 759.194C807.355 759.254 808.782 759.301 810.209 759.337C810.923 759.355 811.636 759.37 812.35 759.382L814.49 759.407C816.631 759.424 818.771 759.412 820.91 759.372C822.336 759.346 823.762 759.306 825.188 759.255C827.326 759.178 829.462 759.073 831.598 758.941C838.003 758.543 844.393 757.893 850.753 756.994C851.459 756.895 852.165 756.792 852.871 756.686C854.989 756.368 857.103 756.021 859.213 755.648C859.916 755.523 860.619 755.396 861.321 755.265C862.726 755.003 864.129 754.73 865.529 754.444L868.384 753.861C872.36 753.049 875.846 751.061 878.51 748.306C878.605 748.208 878.699 748.108 878.792 748.008C878.978 747.807 879.16 747.603 879.337 747.395C879.426 747.291 879.513 747.185 879.6 747.079C879.773 746.867 879.941 746.652 880.105 746.433C880.188 746.323 880.269 746.213 880.349 746.102C880.827 745.434 881.263 744.736 881.655 744.012C881.851 743.65 882.036 743.281 882.209 742.906C882.613 742.031 882.954 741.122 883.226 740.187C883.303 739.919 883.375 739.65 883.441 739.378C883.508 739.106 883.569 738.833 883.624 738.557C883.761 737.868 883.862 737.167 883.925 736.456C883.962 736.03 883.986 735.6 883.995 735.167C883.998 735.023 884 734.878 884 734.733V225.735C884 224.427 883.871 223.145 883.624 221.902C883.569 221.625 883.508 221.351 883.441 221.078C883.375 220.806 883.303 220.536 883.226 220.268C883.168 220.071 883.107 219.875 883.044 219.68C882.849 219.081 882.627 218.493 882.378 217.919C882.323 217.792 882.266 217.666 882.208 217.54C882.073 217.246 881.93 216.956 881.78 216.67C881.547 216.224 881.299 215.787 881.033 215.361C880.888 215.128 880.738 214.898 880.583 214.671C880.428 214.444 880.269 214.221 880.104 214.001C879.986 213.843 879.864 213.686 879.741 213.531C879.353 213.042 878.942 212.571 878.508 212.12C878.317 211.923 878.123 211.729 877.924 211.539C877.129 210.781 876.27 210.087 875.353 209.468C875.304 209.435 875.254 209.403 875.205 209.37C874.954 209.204 874.698 209.043 874.438 208.888C874.217 208.756 873.993 208.628 873.766 208.504C872.884 208.024 871.959 207.608 870.996 207.264C870.862 207.216 870.727 207.169 870.592 207.124C869.976 206.919 869.346 206.743 868.702 206.598C868.592 206.573 868.482 206.549 868.371 206.526H868.37L865.359 205.9C862.566 205.319 859.765 204.788 856.956 204.306C855.552 204.065 854.146 203.836 852.738 203.619C851.33 203.403 849.921 203.199 848.51 203.007C846.394 202.719 844.274 202.46 842.152 202.228C835.078 201.454 827.974 200.987 820.859 200.83C819.436 200.799 818.013 200.78 816.589 200.774ZM726.73 213.635C717.093 215.263 710.043 223.617 710.061 233.391L710.94 726.699C710.958 736.45 718.004 744.767 727.619 746.386L763.484 752.426C762.517 749.137 762 745.661 762 742.072V217.989C762 214.319 762.544 210.77 763.555 207.417L726.73 213.635ZM211.5 157.217C211.5 145.627 221.32 136.464 232.882 137.265L328.382 143.879C338.866 144.605 347 153.322 347 163.831V271.558C347 282.943 337.509 292.032 326.135 291.539L230.635 287.406C219.936 286.942 211.5 278.133 211.5 267.424V157.217ZM231.5 267.424L327 271.558V163.831L231.5 157.217V267.424Z" fill="black"/>
</svg>
