<svg height="960" viewBox="0 0 960 960" width="960" xmlns="http://www.w3.org/2000/svg"><path d="m348.948633.99999808c.780505 0 1.561759 0 2.343522.02904868l353.399845 9.83595324.020382-.0004787.197632.0050224 5.025902.1401533c40.420194 1.1248483 73.259226 34.0231048 73.064084 74.4174287l-2.302151 472.1161273c-.043198 8.86371-1.690606 17.528804-4.78319 25.643572l-.104659.270175-1.225567 289.630357c-.188714 39.680941-32.031451 72.251318-71.562816 74.000415l-1.200249.043545-347.373258 9.839081c-1.427966.046674-2.853853.046674-4.276149-.002898l-.072961-.0035-.626562.028742c-3.156662.110713-6.386945-.154486-9.640922-.835421l-.751316-.164537-130.581829-29.871265c-33.642484-7.695891-57.498371-37.625153-57.498371-72.13665v-782.7187589c0-38.6026791 31.250767-69.9189803 69.853362-69.99984643l127.062845-.26626559zm385.871193 600.78010992c-8.55007 5.587134-18.766097 8.886084-29.708587 9.009496l-353.393351 3.991347c-12.598453.139157-24.224647-4.018713-33.489468-11.109053l1.17948 279.955379c.08083 17.137127 12.47203 30.990325 28.591117 33.095584 1.557974.197197 3.150043.294319 4.769269.27465l-.111032.000359c.191869-.002161.384122-.005969.576744-.011437l346.617066-9.839081c18.592251-.52776 33.734986-15.862108 33.822245-34.250225zm-428.546236-560.6933549-85.336435.1794228c-16.543969.0346569-29.937155 13.4559289-29.937155 29.9999342v782.7187589c0 15.856634 10.960813 29.607917 26.41817 33.143866l87.373724 19.987566c-3.413862-7.052255-5.34413-14.990379-5.383817-23.404802l-1.314969-312.177655c-.692454-3.41683-1.063651-6.952283-1.080572-10.573921l-2.273965-486.5116235c-.05875-12.6823113 4.261124-24.2538139 11.535019-33.3615464zm202.308368 740.5754679c5.522847 0 10 4.477153 10 10v62.854386c0 5.522848-4.477153 10-10 10-5.522848 0-10-4.477152-10-10v-62.854386c0-5.522847 4.477152-10 10-10zm26.57749-.000004c5.522745.033765 9.972596 4.538055 9.939208 10.0608l-.363915 59.826383c-.033577 5.522746-4.537866 9.972596-10.060612 9.939208-5.522745-.033765-9.972596-4.538054-9.939208-10.060799l.363916-59.826384c.033576-5.522745 4.537865-9.972596 10.060611-9.939208zm-11.86084-132.905297c25.827303 0 46.194086 23.239022 46.194086 51.298381 0 28.059358-20.366783 51.29838-46.194086 51.29838s-46.194086-23.239022-46.194086-51.29838c0-28.059359 20.366783-51.298381 46.194086-51.298381zm0 20c-14.15158 0-26.194086 13.740808-26.194086 31.298381 0 17.557572 12.042506 31.29838 26.194086 31.29838 14.151581 0 26.194086-13.740808 26.194086-31.29838 0-17.557573-12.042505-31.298381-26.194086-31.298381zm-174.366558-627.751961c-.311781.001849-.622482.0069769-.93205.0159673-17.937695.5862305-32.083145 15.1081684-32.000365 33.3517971l2.08259 494.8577986c3.81013 14.851163 17.348233 25.727838 33.412465 25.550402l353.390872-3.990047c18.955592-.213786 34.395625-15.285792 34.48628-33.664267l2.329217-472.0428679c.085217-17.4275606-13.833715-32.1107672-31.63824-34.0334857-.41139-.025854-.824631-.0444905-1.239627-.0560393l-5.028192-.1402171-.058953-.0013524-283.034047-7.8766495-71.373801-1.9624285zm202.322385 469.105348c7.719788 0 13.977913 7.395966 13.977913 16.519352 0 9.123387-6.258125 16.519352-13.977913 16.519352s-13.977913-7.395965-13.977913-16.519352c0-9.123386 6.258125-16.519352 13.977913-16.519352z" fill-rule="evenodd"/></svg>