<?xml version="1.0" encoding="UTF-8"?>
<svg width="960px" height="960px" viewBox="0 0 960 960" version="1.1" xmlns="http://www.w3.org/2000/svg" xmlns:xlink="http://www.w3.org/1999/xlink">
    <!-- Generator: Sketch 60.1 (88133) - https://sketch.com -->
    <title>nl.homewizard/drivers/energylink/assets/icon</title>
    <desc>Created with Sketch.</desc>
    <g id="nl.homewizard/drivers/energylink/assets/icon" stroke="none" stroke-width="1" fill="none" fill-rule="evenodd">
        <path d="M875.012658,119 C922.034182,119 960.241689,156.737292 961.001137,203.577833 L961.012658,205 L961.012658,778 C961.012658,812.446 933.367898,840.43522 899.054478,840.99156 L898.012658,841 L64.0126582,841 C29.5666584,841 1.57743823,813.35524 1.01265823,779.04182 L1.01265823,778 L1.01265823,205 C1.01265823,157.978476 38.7499499,119.77097 85.590491,119.011522 L87.0126582,119 L875.012658,119 Z M875.012658,159 L87.0126582,159 C61.8616107,159 41.4250373,179.185063 41.0126582,204.239306 L41.0126582,205 L41.0126582,778 C41.0126582,790.575524 51.1051897,800.79381 63.6323112,801 L64.0126582,801 L898.012658,801 C910.588182,801 920.806469,790.907469 921.012658,778.380347 L921.012658,778 L921.012658,205 C921.012658,179.848952 900.827595,159.412379 875.773352,159 L875.012658,159 Z M722.512658,714 C726.102509,714 729.012658,716.910149 729.012658,720.5 L729.012658,735.5 C729.012658,739.089851 726.102509,742 722.512658,742 L241.512658,742 C237.922807,742 235.012658,739.089851 235.012658,735.5 L235.012658,720.5 C235.012658,716.910149 237.922807,714 241.512658,714 L722.512658,714 Z M718.012658,425 C724.08779,425 729.012658,429.924868 729.012658,436 L729.012658,688 C729.012658,694.075132 724.08779,699 718.012658,699 L246.012658,699 C239.937526,699 235.012658,694.075132 235.012658,688 L235.012658,436 C235.012658,429.924868 239.937526,425 246.012658,425 L718.012658,425 Z M489.371592,466.53249 L431.396815,575.304945 C430.341252,577.261871 430.422449,579.544951 431.559209,581.420338 C432.69597,583.295726 434.6853,584.437266 436.877624,584.437266 L472.23899,584.437266 L463.997478,655.538901 C463.916281,656.435825 464.241069,657.29198 464.850048,657.944289 C465.418428,658.596597 466.352196,658.963521 467.245364,658.963521 C468.382125,658.963521 469.437688,658.351982 469.965469,657.332749 L527.940247,548.519524 C528.955212,546.644137 528.874014,544.320288 527.777853,542.444901 C526.641092,540.569514 524.651762,539.427974 522.459438,539.427974 L487.098072,539.427974 L495.339584,468.326338 C495.420781,467.429414 495.095993,466.573259 494.487014,465.92095 C493.147261,464.412487 490.345958,464.738641 489.371592,466.53249 Z" id="Shape" fill="#000000" fill-rule="nonzero"></path>
    </g>
</svg>