<svg height="960" viewBox="0 0 960 960" width="960" xmlns="http://www.w3.org/2000/svg"><path d="m559.511443 1.01148743.039557.01051257 1.05704-.04783558c8.976593-.37032457 18.031371-.230613 27.133956.42392979l1.606828.12085279c136.418419 10.7109674 237.15886 110.741265 237.15886 245.565463v465.603919c0 135.373688-100.445167 234.831313-237.15886 245.565464-12.481372.979981-24.874686.992493-37.101212.05075l-.692612-.056543-.345722.047997c-2.680044.340702-5.437056.413268-8.241507.190998l-.702084-.061726-99.929948-9.651152c-2.445951-.236228-4.823091-.689551-7.112999-1.33985l-.01974-.006267-.561817-.069516c-118.595436-15.681533-206.685365-107.135222-208.47077-222.146175l-.02764-3.564493-.000773-283.589816-.505523-.309198c-13.336131-8.230495-25.280548-18.784412-35.748036-31.497909l-.695643-.850764-.079331-.098007-.208932-.258956-.07743-.096272c-7.194325-8.973383-15.884302-23.27401-27.182173-44.183406-3.155998-5.840923-4.808528-12.375544-4.808568-19.014573l.000636-27.910915-.27741-.184091c-10.453557-7.095954-17.341813-19.000117-17.55959-32.474603l-.000348-9.390309-2.83654.000976c-10.309201 0-18.66646-8.357259-18.66646-18.66646s8.357259-18.66646 18.66646-18.66646l3.68788.000125c2.151855-10.268764 8.239098-19.072195 16.590798-24.786428l.39521-.26675-.000636-27.13018c.00004-6.826242 1.746977-13.535244 5.069697-19.490119l.316116-.556041c13.02751-22.494646 23.763891-38.761618 32.986897-49.543478 10.174971-11.894723 22.989516-22.4399346 38.301498-31.8006437 4.619791-2.8242273 9.764889-4.6811007 15.123526-5.4581029l27.665197-4.0114523c7.617495-1.1045364 14.993401.0067878 21.518093 2.8169571l.126612.0550598.822752-.7554506c35.845063-32.655805 82.394698-54.4280462 133.976462-61.6303811l1.790786-.2411683.219886-.0440115c.979619-.1884707 1.972616-.3416294 2.977688-.4580576l.604481-.0654379 108.158941-10.890262c4.492525-.45234144 8.871293-.14592197 13.016447.81025643zm21.210406 40.02753067-.416491.0080705c-85.84861 2.1023225-198.714749 79.6235144-198.714749 192.4853954v491.935032c0 115.165184 91.305185 201.359116 203.935839 192.519534 112.630655-8.839582 200.37131-88.314025 200.37131-205.686305v-465.60149c0-21.498756-2.869746-42.063661-8.278378-61.307931-.003517-.003735-.004926-.00839-.006335-.013045-24.986924-82.543185-99.991614-136.8054552-191.395207-143.9820587-1.837778-.1442941-3.669875-.2632657-5.495989-.3572022zm-94.385063 5.4223084-38.442134 3.8696705-5.551355.559265-.001491.094725-2.631743.3350154-.778061.1049492-1.093501.1520742-.145849.0209712-.164567.023176-.310433.044824-.47105.0682352.22705-.0322352-.84608.1237442-1.234727.1876948-.156193.024561-.172883.0266288-.336117.0533712-.567149.0896645.270149-.0426645-.552.088-.732.12-1.803.305-.313.054-.458.082-2.097.38-.559.105-.719.138-1.771.348-.366.073-.24.049-2.198.46-.608.131-.623.136-1.623.363-.386.089-.556.129-1.912.453-.794.192-.343.085-1.635.412-.508.13-.63.164-1.844.49-.773.209-.294.081-1.715.481-.43.123.252304-.072623-.582201.1670567.325897-.0934337-.537.155-1.944.573-.686.206-.281.086.150392-.046657-.247392.075657.082-.025-1.629.504-.51.16.289577-.0918686-.718471.2273038.425894-.1344352-.735.234-1.708.554.187-.062-.403.132.21-.068-.697.23-.212.071-1.616.547-.736.253-.332.116-2.172.77-.176.063-.498.182.284172-.1040362-.674172.2460362.36-.131-1.694.626-.49.183-.311.118-1.946.748-.618.242-.495.196-1.445.579-.45.183-.632.259.243804-.1009407-.548804.2259407-.278186.115061-.130814.054939-.293622.1218058-1.054693.4435609-.373685.1586333-.292.126-1.382.597-.879283.3852484c-.82766.3656736-1.652047.7362873-2.47312 1.1118045l-1.967597.9129471-.386.182-1.519578.724441c-.574637.2771814-1.147573.5567985-1.718793.8388384l-1.708496.8533748c-1.664027.8407657-3.31318 1.7022294-4.947069 2.5840625l-.020064.0102833-.074.04-.260329.1416815-.229671.1243185.218-.118-.399.217-1.619.892-.431205.2410709-.985992.5555657-.286803.1623634-.120337.0696186-.219663.1253814-.501.287.194-.11-.683.394-.264.153-1.589.933-.177521.1054844.154521-.0914844-.287.17-.251.15-.008.005-.071.043-1.534.929.146-.09-.424.258.243-.147-.852.523.513-.317-.619.382-.125.077-.032.02-.019.012-1.143.715-.41.258-.415069.2638515.321069-.2038515-.514.327.192931-.1231485-.298931.1901485.048-.03-1.398.901-.813.531-.2.131-1.189.79-.112.075-.38.255-.473.32-1.518 1.04-.70258.4861287-.641579.448656-.395841.2792153 1.036-.727-1.465 1.032-.507.362-.39.28-1.54 1.119-.63.463-.007742.006696-.110258.081304-.445409.3307283-.522037.3915494-.345554.2587223.133-.099-.569.43-.067.051-.112.085-.13.099-1.478 1.138-.816994.6377807-.014006.0102193-.005.004-.444527.3500147-.294473.2339853.394-.311-.85.674.059-.048-.249356.1994054.181356-.1444054-.679.545-.264.213-.153.125.079-.065-.366984.29696-.583016.47704.866-.705-1.189.971-.279.229.277-.227-.890833.73776-.002167.00124-.089.074-.224302.1871063-.682698.5748937-.795.676-.196705.1687203-.100295.0852797-.149857.1280758-.824143.7129242.314-.271-.339395.294216c-.365248.317771-.729179.636814-1.091786.957122l-.125819.110662-.510582.452678-.613418.548322.241-.214-.714.642-.140388.127906.088388-.080906-.125.113-.457602.415995-.957398.880005.245-.224.112073-.103822.383927-.351178-.496.455-.974019.904284-.047981.043716-.541993.50894c-.196039.184713-.391509.369894-.586554.555459l1.176528-1.108115c-.639517.598231-1.274582 1.200546-1.905149 1.806909l.222168-.214193-.511045.49064-.900955.87536.226-.219-.927801.9117-.045199.0443-.599057.593913c-.2141.213456-.427574.427568-.640499.642158l.168556-.168071-.752.761.464-.472-.724244.734775c-.280265.286071-.559562.572976-.83789.860712l.861134-.882487-.999832 1.028379c-.343847.35626-.686208.713789-1.027074 1.072582l-.005094.004039-.014.015-.257.272.2-.212-.3962.417715-.3888.413285.266-.281-.25922.276189-.70378.753811.568-.611-.756171.812619-.669829.728381.641-.696-.868299.947602c-.312369.342724-.623403.686544-.933097 1.031455l-.001604.000943-.034.038-.512925.572102-.373075.419898.755-.845-.733849.824248-.808151.918752.399-.458-.556349.635919-.675651.780081.604-.695-.700472.810241c-.280438.32614-.559702.653206-.837788.981195l-.04374.050564-.134.159.073-.087-.473107.559325-.490893.585675.351-.416-.218441.261438-.805559.971562.535-.651-.692316.83933-.723684.88667.66-.806-.885149 1.088727c-.326438.404426-.651125.810179-.974051 1.21725l-.0378.046023-.738989.940064-.598011.768936.558-.722-.595667.76623-.680333.88477.473-.612-1.047572 1.373483c-.742104.982468-1.474155 1.972219-2.196026 2.969145l-.029402.039372-.172006.234967-.176994.243033.336-.46-1.020346 1.425879c-.703506.992321-1.397006 1.991601-2.080379 2.997734l-.008275.011387-.986085 1.468211c-.658052.989654-1.306377 1.985805-1.944859 2.988355l-.001056.000434-1.017281 1.61742c-.673211 1.082227-1.335038 2.171752-1.985339 3.268454l-.00438.005126-.938941 1.60475c-.623375 1.076647-1.235717 2.16007-1.836894 3.250157-14.224553 25.779173-22.201044 55.288442-22.201044 87.062379l.000782 93.004755c.962711 1.6283 1.47487 3.547518 1.373983 5.578171-.083322 1.67712-.575218 3.237155-1.374574 4.588563l-.000191 381.123945c0 99.038641 77.49597 176.074786 180.034097 186.800725l.004144.510931 18.900733 1.827499c-62.223533-36.168001-103.491138-104.369058-103.491138-185.319356v-491.935032c0-60.118602 28.681932-114.678052 76.674027-155.1204013 14.829863-12.4969444 31.110389-23.2457533 48.07215-31.9507562zm105.216285 647.5626485c25.774331 3.942085 42.748799 29.468712 38.387521 56.64474-4.373658 27.124144-28.588301 46.261953-54.440579 42.340176-25.946777-3.938667-42.883193-29.505535-38.291047-56.711717 4.551045-27.085225 28.674561-46.201825 54.344105-42.273199zm-34.621827 45.594601c-2.792581 16.544664 7.057256 31.413777 21.569392 33.616689 14.647278 2.221985 29.015667-9.133933 31.693814-25.742997 2.659085-16.569324-7.266729-31.496011-21.666106-33.69834-14.459681-2.212999-28.79477 9.146795-31.5971 25.824648zm28.885284-9.965332c7.028603 1.074998 11.738063 8.152806 10.509422 15.808727-1.234486 7.655921-7.987529 12.990814-15.073892 11.915816-7.081768-1.074998-11.767441-8.152806-10.475194-15.808727 1.2864-7.655921 8.015655-12.990814 15.039664-11.915816zm35.489799-667.1290126c102.35362 15.654592 170.606751 118.2953486 152.865161 228.8469456-17.818419 110.50458-115.581964 187.771058-218.638334 172.137457-103.069766-15.645777-171.067479-118.293732-152.395847-228.913923 18.566068-110.494634 116.001298-187.7068603 218.16902-172.0704796zm-198.446742 175.3918816c-16.872067 99.958672 44.039067 191.908874 135.674192 205.818896 91.85137 13.933808 179.768662-55.550778 195.891568-155.540278 16.039398-99.944894-45.165079-191.9857104-136.143745-205.9005471-90.957859-13.9207537-178.604663 55.5346671-195.422015 155.6219291zm193.416993-144.741633c86.809393 13.277162 144.653872 100.26513 129.628246 193.892976-15.089372 93.579842-97.923805 159.04724-185.309124 145.79093-87.415179-13.269443-145.048361-100.271316-129.234613-193.959954 15.721269-93.564015 98.275532-158.9838677 184.915491-145.723952zm31.081753 247.078769c-21.5297 34.261878-54.895825 59.368407-93.051578 70.605175l-.891729.261858c3.338972.784546 6.733956 1.441179 10.181298 1.964478 54.584703 8.280473 107.530558-18.987946 138.089371-65.669827-.180635.045549-.359524.08723-.5397.12399-.987202.311839-2.040453.474224-3.132461.461093-1.450223-.017836-2.824584-.343472-4.0617-.914027zm-450.163621 2.15933-.358346-.663904c10.20965 18.895384 17.942642 31.621154 23.198978 38.177309l.208932.258955c7.712003 9.497017 16.344924 17.234567 25.898763 23.21265l-.000385-58.512592-48.037723-2.385992c-.307531-.015279-.611126-.044295-.910219-.086426zm358.873418-225.24383-.124917.038073c-51.985265 15.901473-94.520157 63.477096-104.859846 125.013012l-.065203.404702c4.320259-3.635046 9.899165-5.46643 15.600398-4.596701 10.946902 1.669815 18.209317 12.663913 16.219082 24.556004-1.991457 11.892092-12.491462 20.178884-23.450441 18.509069-4.137657-.630508-7.747703-2.590431-10.530791-5.426135 1.853924 51.893156 28.559899 97.643458 69.480948 121.476274.306766-.055814.616144-.093115.929971-.116171 45.373515-3.333342 86.836702-28.72993 111.141515-67.390458-.010007-.165668-.014344-.331605-.01457-.498395l-.077004-56.664905c-.007502-5.528149 4.471845-10.013588 10-10.013588l12.34064-.000406c.347788-5.753773.429705-11.494977.249014-17.199745l-13.019271-.493204c-5.366495-.203219-9.614284-4.608913-9.621581-9.97925l-.07351-54.09362c-.002233-1.645926.393933-3.201726 1.098644-4.574476-17.318361-28.12963-43.821017-49.140071-75.223078-58.95008zm100.573142 165.290781h-6.311l.051 38.022 37.898382 5.556467.482-39.645zm-459.805618 14.768467.000066 25.438145c.731103-.130429 1.488281-.180921 2.261621-.1425l47.045313 2.337355v-25.571zm-17.836-44.801v24.039l63.070455 2.637058v-24.804zm548.634431-9.515385-.024073.036318c-1.810393 2.972201-5.132852 4.945757-8.927609 4.802056l-45.746144-1.732127c.150772 6.056726.034507 12.146154-.35177 18.245599l46.636906 5.711454c3.691758.452122 6.664943 2.861623 8.008883 6.060197 1.269627-11.247591 1.370453-22.337868.403807-33.123497zm-129.384428-7.057596c10.013265 1.526688 16.687123 11.578434 14.904828 22.451204-1.783318 10.872769-11.355861 18.449265-21.379223 16.922577-10.022557-1.526688-16.692258-11.578434-14.898844-22.451203 1.792392-10.87277 11.360777-18.449266 21.373239-16.922578zm-401.4137-36.332899-.000303 33.42588 49.327823 1.464204c.167284-11.872288 1.346389-23.473836 3.464901-34.734622l-51.027242-.000162c-.602314 0-1.19219-.05325-1.765179-.1553zm492.880697-10.43412-39.51209 1.274658.048 34.782 9.000275.339876c.71577-.230913 1.469034-.384171 2.250806-.449158 1.630391-.135531 3.201883.128061 4.618197.709273l23.138812.876351zm-407.677386-78.086997-27.665197 4.011452c-11.902932 7.276647-21.492549 15.168035-28.768853 23.674164-6.966322 8.143755-16.053056 21.808587-27.2602 40.994494l.256118-.003693 55.873436-.000153c6.162323-20.675865 15.592924-39.954153 27.787087-57.346817zm310.952118.477346-.289781.003777c24.165814 13.870834 44.321749 34.151056 58.40052 58.840604l44.632071-1.437456c1.291433-.584522 2.728207-.902421 4.23919-.884286.188558.002314.375833.009832.561692.022415l-.054086-.077743c-20.488814-28.982731-51.020608-49.462269-87.229139-55.000224-6.788709-1.038986-13.555837-1.517393-20.260467-1.467087z"/></svg>