<svg height="960" viewBox="0 0 960 960" width="960" xmlns="http://www.w3.org/2000/svg"><path d="m73.0156753 96.4696764 459.1098817 13.6152756c14.062012.417021 26.871161 8.190505 33.733193 20.471653l121.45206 217.365494 252.560557 167.597851c14.777219 9.806033 21.316005 28.154959 16.1219 45.067629l-.160992.512055-16.600761 51.599961c-5.320292 16.537002-20.706146 27.74956-38.077904 27.74956l-46.0308-.000056 38.829885 69.147032c5.972932 10.636682 6.760789 23.40743 2.163304 34.684501l-.219452.527505-17.040827 40.152559c-5.977586 14.084726-19.466206 23.525506-34.746296 24.319177l-499.415151 25.940367c-16.169273.839856-31.25012-8.15063-38.201128-22.773702l-291.3475996-612.917866c-5.0288096-10.579278-5.16766412-22.831201-.3799114-33.521733l20.558154-45.904125c6.6202974-14.782405 21.50185-24.1132663 37.6918873-23.6331376zm781.0861337 644.4283136-480.849 26.882-15.61 26.714 484.391753-25.160268zm-787.6430002-592.452-15.1869986 33.910233 287.4909988 604.805767 17.266-29.548zm16.601-11.661 290.4191552 610.951109 480.917845-26.886109-57.423-102.26-52.129.719 30.193507 53.360537c3.667752 6.482009-.783499 14.555084-8.222631 14.91309l-361.681323 17.405823c-3.825393.184096-7.419929-1.832797-9.256238-5.193674l-172.25643-315.269686c-.13107-.23989-.252249-.485054-.363231-.734873l-87.397241-196.730314c-2.954123-6.649701 1.954343-14.0946 9.174006-14.064305l.255763.004186 359.412217 10.467446c2.588446.075353 5.005927 1.147575 6.786134 2.93047 1.408377 1.239108 2.402013 2.819027 2.933769 4.535291l61.167717 112.24157c.227771.124183.451158.257475.6696.399706l63.581381 41.398733-108.901963-194.905616zm271.8290002 446.278 55.538191 101.64701 294.463-14.171-26.254191-50.31601-258.453571 3.566931c-1.322446.330701-2.734293.394857-4.163379.142004-.955557-.169071-1.855242-.468624-2.683969-.877088-.634278-.265384-1.242952-.596663-1.815301-.990838zm367.154 36.561-21.009.29 25.863191 49.56601 22.737-1.094zm182.462711-60.760691-466.915711.546691-7.828 44.243 463.811711-6.396691zm-611.054711-88.245309 40.359638 73.865794c.578191.252458 1.140757.563559 1.679757.934767l75.111605 51.729439 7.616-43.046zm-78.262-154.252 6.201213 13.957545c.008365-.000357.016733-.000703.025103-.00104l.278142-.007053h.279931l326.83898 4.897688c1.879097.028151 3.712233.585243 5.289249 1.607408l257.115143 166.652765c8.358757 5.417845 4.521969 18.39147-5.439048 18.39147l-75.382684.000111c-.103106.001548-.206298.001505-.309539-.000137l-49.144134.000344c-2.02722.653893-4.164462.624821-6.113835-.000046l-211.325934-.000272c-1.855474 0-3.674358-.516231-5.25319-1.490947l-207.658397-128.200836 22.136 40.514 159.507711 106.728309 470.477289-.548309-135.139695-89.676718c-2.262096.282928-4.632506-.20203-6.692545-1.543344l-193.114453-125.739106zm80.295 80.018 170.855591 105.480475 194.408409-.000475-18.663099-34.104129c-.110559-.202032-.213415-.406207-.308668-.612187l-100.880253-64.521913zm381.325 93.169 6.737 12.311h12.512zm-118.896-126.428-.177139 26.327446-.004861.200554 175.447 112.211 38.786591.000475zm-327.585-12.681 3.5 7.876 28.296 17.469 10.060661.000771c.084754 0 .169504 0 .254231.003232l265.343108 6.747997.185-27.489zm273.851-136.509-12.551 20.168 34.58 67.148 25.777.406zm-324.079 23.446 26.14 58.84 297.288 4.674-29.551696-57.384921zm-19.512809-43.92399 10.543809 23.73299 303.526 6.33 12.788-20.547z"/></svg>