<svg width="960" height="960" viewBox="0 0 960 960" fill="none" xmlns="http://www.w3.org/2000/svg">
<path d="M147.822 14.6001C153.419 12.7735 166.221 7.69207 180.113 9.00342L826.702 70.0347C857.997 72.9886 881.91 99.2644 881.91 130.699V828.704C881.91 860.135 858.002 886.411 826.709 889.368L180.119 950.467C169.959 951.427 160.122 949.828 151.279 946.198L91.127 927.511L91.1182 927.509L91.1104 927.506C65.6496 919.571 48.3067 896.001 48.3066 869.333V90.77C48.3066 64.2169 65.502 40.7208 90.8115 32.6899L147.822 14.6001ZM176.051 48.8013C174.633 48.7095 172.825 48.8787 170.263 49.5034C168.334 49.9737 166.589 50.5294 164.465 51.231C157.945 54.7505 153.453 61.6426 153.453 69.6675V889.803C153.453 902.142 164.072 911.805 176.356 910.644L334.369 895.712V63.7407L176.354 48.8267C176.253 48.8171 176.152 48.8093 176.051 48.8013ZM102.909 70.8169C94.2141 73.5759 88.3066 81.6478 88.3066 90.77V869.333C88.3067 878.488 94.2563 886.58 102.993 889.312L134.515 899.104C133.823 896.121 133.453 893.009 133.453 889.803V69.6675C133.453 66.6247 133.784 63.6652 134.409 60.8208L102.909 70.8169ZM354.369 694.96V893.822L822.945 849.544C833.696 848.529 841.91 839.502 841.91 828.704V673.292L354.369 694.96ZM354.369 674.941L841.91 653.273V489.706H354.369V674.941ZM354.369 469.706H841.91V306.29L354.369 284.385V469.706ZM354.369 264.366L841.91 286.27V130.699C841.91 125.299 839.856 120.342 836.458 116.609C836.352 116.492 836.244 116.377 836.136 116.263C833.634 113.635 830.449 111.652 826.845 110.602C826.531 110.511 826.215 110.426 825.896 110.349C824.937 110.118 823.951 109.953 822.943 109.858L354.369 65.6294V264.366Z" fill="black"/>
</svg>
