<svg height="960" viewBox="0 0 960 960" width="960" xmlns="http://www.w3.org/2000/svg"><path d="m584.827974 13.0782824c80.449518 2.1712048 152.418147 48.3549106 186.829558 117.2754266l.60847 1.237291 1.186089.952913c39.682288 31.96838 74.586839 70.48353 103.33163 114.428049l.935145 1.434896c136.339384 209.971739 92.838871 482.077584-100.006716 607.329377-26.482828 17.200402-54.710448 30.909725-84.236818 41.018269l-.76633.259496-.512045.305476c-2.647462 1.5448-5.516466 2.807617-8.579712 3.736061l-.659373.193816-134.180483 38.220441c-4.491014 1.279236-9.029811 1.737741-13.45193 1.461143l-.311457-.022937-5.143156.881042c-166.450213 27.329504-342.771808-53.381314-445.4064599-207.540904l-3.1832518-4.841357c-136.3393822-209.971739-92.8388711-482.077583 100.0067157-607.329377 40.179629-26.0963739 84.324444-44.1219997 130.803296-53.7491354l1.100856-.2262683 45.57-13.62.200395-.0733208c42.855391-15.6841051 88.241632-23.5652815 134.444206-23.5950281l1.131399.0013489.684478-.3034448c27.789445-12.2507107 58.260615-18.2792217 89.605494-17.4332731zm-303.412416 104.8279716-1.245255.423026c-26.712814 8.989973-52.585226 21.3748-77.094885 37.293643-173.5141782 112.696186-213.02332893 359.83514-88.246158 552.000304 98.376939 151.507045 269.50419 223.608173 422.550869 192.107367l.439389 1.269406 11.29062-3.20835c-133.338961-5.884112-266.87357-79.865512-350.164069-208.121634-127.7560459-196.727059-90.777396-449.507329 82.469489-571.763762zm182.81988-45.4310207-.350712.0307316c-55.977988 4.5947675-110.690124 22.3100913-159.907757 54.2723961-173.536458 112.695894-213.0506823 359.834208-88.257489 551.998874 105.634552 162.662946 295.138688 233.795442 456.088858 183.450208l-.143765-.419214c29.253337-9.133381 57.564975-22.279285 84.260009-39.617513 102.311627-66.450652 158.03235-179.644401 160.954271-300.749405 1.933828-84.136186-21.615449-172.065175-72.728265-250.77201-21.586176-33.239797-46.674577-62.657468-74.305876-87.997467 2.50628 11.813253 3.819661 24.017125 3.819661 36.488366v252.642725c0 37.755285-12.037242 73.060113-32.614396 102.533689-14.944563 53.454326-47.317369 99.134862-93.240385 129.47085l-1.467235.96101c-58.139907 37.756498-127.712673 44.892575-191.885427 25.922295-3.081178.485207-6.256751-.499838-8.520537-2.686511-54.790845-18.313054-105.026692-55.819298-139.976614-109.637459-77.362114-119.127208-51.248602-274.167474 59.514209-346.097685 8.734617-5.672326 17.795557-10.694192 27.1363-15.052841l1.388046-.642273.001666-41.177666c0-58.456954 27.412231-109.892676 70.235438-142.9211007zm61.790837 577.1852057-.120409.301548c-8.710776 21.697648-16.72403 37.077404-24.321799 46.388061-5.222809 6.400271-12.737662 12.999989-22.575255 19.883881 9.132611 1.877106 18.338554 3.183588 27.562106 3.906008 23.8877-5.296849 46.581777-14.75463 67.339877-28.235097 16.388354-10.642722 30.97398-23.406164 43.543824-37.978436-10.442852 2.005952-21.180187 3.190687-32.133814 3.486269-20.699637.558578-40.634426-2.187251-59.29453-7.752234zm177.34825-35.23356-2.249755 1.768562c-15.50357 12.006143-32.947974 21.78629-51.783613 28.809153-16.964141 25.329-38.71938 46.907121-64.537581 63.673657-3.022493 1.96283-6.075596 3.824538-9.159083 5.590587 20.819324-5.35076 40.984401-14.051481 59.805084-26.273775 29.23167-18.983269 52.021692-44.384583 67.924948-73.568184zm-273.254929-32.537812-.050814.038121c-9.412714 7.01846-22.421137 13.133813-39.058328 18.557665-18.772226 6.119891-40.709658 9.668272-65.82628 10.691923 32.43968 48.16326 78.134185 81.65726 127.694372 98.065882l1.51669-.906875c15.266504-9.190523 25.860399-17.482532 31.693351-24.630501l.511842-.639021c5.916082-7.520958 12.861429-20.981235 20.585352-40.159694-31.062722-13.059229-57.666093-34.271294-77.066185-61.0175zm-141.690273-167.758818-.08794.344562c-14.062581 56.626497-6.576743 120.239239 24.788782 176.997102 28.216123-.265601 52.115015-3.62336 71.681239-10.0021 15.682656-5.112667 27.182204-10.690188 34.45577-16.458116-14.893333-26.24934-23.368939-56.639076-23.368939-89.202364l-.000193-5.9456c-20.555253-2.375488-39.903514-8.535758-57.974918-18.462182-15.705617-8.626923-32.18581-21.05444-49.493801-37.271302zm107.46876-136.287539c-6.64648 3.335019-13.165791 7.065996-19.531314 11.199815-38.884192 25.25169-66.370193 61.859805-81.412929 103.619569 18.848667 18.585491 36.405571 32.315506 52.59809 41.209879 15.122415 8.306577 31.217378 13.581127 48.346153 15.839986zm191.854143 30.495589.448821.005571 36 .723914c14.744489.296493 26.798953 12.108557 26.798953 26.65613v34.552172c0 14.547573-12.054464 26.359637-26.798953 26.65613l-36 .723914c-14.988775.301406-27.201047-11.665293-27.201047-26.65613v-36c0-14.69102 11.728666-26.477658 26.305127-26.659567zm-6.752226 26.661701v36c0 3.786845 3.010046 6.736363 6.798953 6.660173l36-.723914c4.033192-.081103 7.201047-3.185256 7.201047-6.660173v-34.552172c0-3.474917-3.167855-6.57907-7.201047-6.660173l-36-.723914c-3.788907-.07619-6.798953 2.873328-6.798953 6.660173zm11.819874-280.404945-.247033-.0201362-1.246502-.095431-1.217703-.0848498-2.167762-.130583-1.465-.073-.533-.024-1.289732-.0514067c-.550422-.0198354-1.101473-.0371844-1.653142-.0520352l-2.869116-.0538129c-.905377-.0098003-1.809274-.0098003-2.711385-.0098003l-2.848625.0390551-2.644753.0768829c-1.207384.0441534-2.411314.1008449-3.611658.1699488l-1.797809.1129493c-1.833903.12487-3.659229.2787409-5.475505.4611599-1.776882.1784623-3.545102.3842478-5.304215.6169325l-.34506.0461266-2.426.344-.592.09-2.189461.3484217-2.539539.4415783-2.47.469-.32.064-2.182.451-.412.088-2.49207.5581424-1.379732.326382-1.488198.3664756-1.867.48-.582663.1536258-1.197417.3253226c-68.071813 19.5975916-117.355559 81.0333456-117.355559 155.1247886v260.655541c0 91.772001 75.611526 164.127539 168.883069 161.610618 56.947359-1.536717 107.311474-29.77631 137.90255-71.784063.373467-1.416176.732767-2.837232 1.078446-4.262639 17.84047-25.966011 28.2377-56.852339 28.2377-89.769102v-252.208294c0-22.971062-5.063438-44.953304-14.186391-64.96459l-.357735-.775208-.628-1.344-.404-.847-.782-1.602-.299-.603-.803-1.586-.489-.944-.861-1.629-.234-.434-.896-1.637-.361-.648-.714-1.26-.581-1.008-.764-1.299-.53-.884-.849-1.393-.75304-1.213115-.72296-1.138885-.584-.905-.566-.867-.606-.914-.971-1.439-.494-.721-1.087-1.556-.373-.525-.994-1.381-.46-.625-1.015-1.367-.679-.898-.837-1.091-.605-.776-.887-1.122-.315-.394-1.475-1.811-.633-.763-.809-.962-.791-.926-1.212-1.394-.413-.467-1.134-1.268-.699-.769-.881-.956-.779-.833-.983-1.036-.683-.709-1.318-1.347-.785-.788-.947079-.939816-.742921-.725184-.705363-.68134-1.049637-.99666-1.241-1.161-.609-.562-1.092-.991-.534-.481-.399-.355-1.002-.884-.813-.705-1.441-1.233-.665-.559-1.097-.91-.831-.68-1.271-1.023-.686-.543-1.272-.994-.962-.741-1.07-.81-.846-.631-1.495-1.098-.458-.33-1.948794-1.3868581-.326206-.2261419-.4438-.3101561-.3392-.2338439.783.544-1.232-.851-.409-.28-.567-.384-1.05-.703-.862-.569-1.641-1.063-.706-.45-1.41345-.8878497-.91055-.5611503-1.211512-.7349972-.916488-.5450028-1.469-.862-.688-.398-1.969-1.114-.718885-.3990979-.403115-.2209021.657.362-1.346-.738-.818-.439-1.588-.84-.777-.404-1.317-.673-1.002-.503-1.319-.65-.377-.183-1.398724-.670439c-.720773-.3414702-1.444326-.678314-2.170617-1.0104886l-1.192659-.5400724-.749-.333-1.559-.682-1.558289-.6642577c-1.129899-.4748818-2.265968-.9386086-3.408052-1.3910275l-.713659-.2797148-1.775-.684-.741-.278-2.04-.75-1.898-.67-.589-.204-.613-.209-1.581-.528-1.648425-.5336592c-.585899-.186356-1.173152-.3698007-1.76174-.5503154l-1.769746-.5327357-.789089-.2302897-1.442-.412-.512-.144-2.36-.638-.564-.148-1.899-.482-1.077-.264-1.314-.312-.512-.119-1.538778-.3477028c-1.184553-.2619601-2.373617-.512252-3.567049-.7507377l-1.182173-.2315595-1.076-.204-.622-.115-.635-.114-2.269-.393-2.061-.328-1.331-.2-1.233-.176-1.293-.175-1.53-.195-.979872-.1186121-1.759128-.1973879-1.755-.18-1.186-.112-.976-.085-1.936-.155z"/></svg>