<?xml version="1.0" encoding="UTF-8"?>
<svg width="960px" height="960px" viewBox="0 0 960 960" version="1.1" xmlns="http://www.w3.org/2000/svg" xmlns:xlink="http://www.w3.org/1999/xlink">
    <!-- Generator: Sketch 60.1 (88133) - https://sketch.com -->
    <title>com.technisat.smarthome/drivers/dual-button/assets/icon</title>
    <desc>Created with Sketch.</desc>
    <g id="com.technisat.smarthome/drivers/dual-button/assets/icon" stroke="none" stroke-width="1" fill="none" fill-rule="evenodd">
        <path d="M876,1 C921.287349,1 958,37.7126505 958,83 L958,83 L958,876 C958,921.287349 921.287349,958 876,958 L876,958 L84,958 C38.7126505,958 2,921.287349 2,876 L2,876 L2,83 C2,37.7126505 38.7126505,1 84,1 L84,1 Z M876,61 L84,61 C71.8497355,61 62,70.8497355 62,83 L62,83 L62,876 C62,888.150264 71.8497355,898 84,898 L84,898 L876,898 C888.150264,898 898,888.150264 898,876 L898,876 L898,83 C898,70.8497355 888.150264,61 876,61 L876,61 Z M793,125 C815.643675,125 834,143.356325 834,166 L834,792 C834,814.643675 815.643675,833 793,833 L167,833 C144.356325,833 126,814.643675 126,792 L126,166 C126,143.356325 144.356325,125 167,125 L793,125 Z M465.507,160 L167,160 C163.761603,160 161.122428,162.565575 161,165.775062 L161,792 C161,795.238397 163.565575,797.877572 166.775062,798 L465.991,798 L465.507,160 Z M793.224938,160 L500.507,160 L500.991,798 L793,798 C796.238397,798 798.877572,795.434425 799,792.224938 L799,166 C799,162.761603 796.434425,160.122428 793.224938,160 Z" id="Combined-Shape" fill="#000000" fill-rule="nonzero"></path>
    </g>
</svg>