<svg height="960" viewBox="0 0 960 960" width="960" xmlns="http://www.w3.org/2000/svg"><path d="m479.5 224c121.407872 0 235.62817 17.250007 321.395719 47.874241 43.861818 15.661338 79.712992 34.609387 105.683165 56.533061 30.749489 25.958309 48.421116 56.793758 48.421116 91.092698 0 2.675769-.111013 5.346727-.332292 8.00975l-.030708.33325.015979.373613c.881353 21.683787 1.331873 38.732516 1.347021 51.27808v.634029c0 14.890102-.626639 31.216896-1.871307 49.006285-.04387.627008-.102031 1.249814-.174153 1.868107l-.03954.311886-.030669.857482c-1.447593 35.447608-16.442689 68.984985-42.734034 98.847763l-.842918.951817c-25.317582 28.421715-60.775287 53.379644-104.272466 74.121826-85.227145 40.641645-198.851008 63.955304-319.968606 64.877555l-.152383.00087-7.200781.027687h-.152189c-122.408572 0-229.270418-21.364778-310.751158-61.254994-83.0515943-40.659253-137.8816357-99.873865-154.4288618-170.451161-1.1391599-4.858749-1.99198-9.734932-2.5561564-14.619915l-.0837778-.76393-.179202-.944348c-3.81210793-20.24055-6.1222833-38.459618-6.89032708-54.754465l-.05223705-1.160647c-.83182077-19.404675-.83182077-36.190347.03705368-50.47849.10257495-1.686786.30866381-3.343931.61186321-4.965399l.08584924-.435651.05606383-.656071c2.79782928-30.570924 19.79700747-58.151014 47.57388597-81.737487l.9196213-.776128c26.0265682-21.832008 61.8793219-40.704782 105.6960279-56.30367 85.716631-30.515396 199.730443-47.697644 320.900401-47.697644zm-418.9662542 331.39116.7817926 1.844123c43.9601696 101.366674 195.9979796 173.764717 417.2454156 173.764717l7.200781-.027397c195.416495-1.488001 359.540065-63.432776 411.266617-147.744523-23.604958 18.11216-57.151919 35.081674-98.561309 49.884459-87.455951 31.26324-201.443373 49.767338-319.442862 49.767338-186.580751 0-347.618237-51.624559-418.4904352-127.488717zm855.3962482-84.317733-.529903.709295c-6.085141 8.074673-13.567322 15.844358-22.34652 23.26716-23.91583 20.220809-57.707577 38.108173-99.47245 53.043956-83.426764 29.834737-195.359238 46.765505-314.55694 46.765505-119.197701 0-231.130175-16.930768-314.55694-46.765505-41.764873-14.935783-75.5566202-32.823147-99.4724502-53.043956-8.102809-6.850916-15.1007587-13.997325-20.9152086-21.406285 1.0086469 13.233234 3.111023 28.108599 6.3081281 44.626028l-.0173374-.001937c.3315724 3.529851.887352 7.083693 1.6736921 10.659419l-.0108829.002776c56.5079829 83.389175 226.3049179 143.949994 426.9909989 143.949994 203.458122 0 375.167871-55.063617 429.267541-113.162591 3.753105-10.810621 5.708278-21.906722 5.708278-33.217286l-.003-.156.229242-.000842c1.182505-16.900932 1.773758-32.305744 1.773758-46.214436 0-2.763171-.023335-5.781603-.070006-9.055295zm-436.429994-207.073427c-240.052435 0-434.7417408 69.349301-435.4977905 154.999328l-.3042344.000993c-.0001884.059775-.0002827.119559-.0002827.17935 0 85.979509 194.9023076 155.679672 435.3264886 155.679672s435.326489-69.700163 435.326489-155.679672c0-27.365055-19.7433-53.081039-54.413773-75.425627-74.474259-47.581507-216.933144-79.754044-380.436897-79.754044z"/></svg>