<svg height="960" viewBox="0 0 960 960" width="960" xmlns="http://www.w3.org/2000/svg"><path d="m427.321845 267.031198c9.997144.440856 22.681532 1.58601 35.28803 3.021803l2.223305.256308c14.06868 1.641326 27.836887 3.615305 37.44424 5.344434 37.664598 6.778861 70.321645 15.147256 98.064818 25.215026 15.524383 5.633671 29.815872 12.006798 45.036725 19.914529.86407.448913 1.723325.898232 2.581783 1.35014l1.030026.543672.993959.527393c8.953049 4.762697 18.162313 9.992155 32.168184 18.153521.829111.483131 2.519414 1.469313 4.257706 2.483717l.614183.358423.483811.282352c2.326072 1.357518 4.427045 2.583967 4.299952 2.509815 3.960314 2.310627 7.03542 4.100105 10.107933 5.880005 7.88818 4.569606 14.943694 8.599861 22.126463 12.623453.919712.515198 2.834332 1.412185 5.565883 2.539657 2.830004 1.168109 6.28692 2.481444 10.348542 3.924301 50.998474 10.957871 85.7539 20.123946 105.909628 28.172131 9.720829 3.881529 18.988578 8.115213 27.805455 12.6512 15.694643 8.074365 29.386924 16.787556 41.156831 25.709169 4.390993 3.328382 8.295064 6.52234 11.76171 9.561332 1.325806 1.162252 2.53 2.251437 3.648617 3.291922.424242.39461.815099.76255 1.202896 1.131157.206537.196315.606278.578354.578264.551685 5.621205 5.351143 9.405452 9.56687 12.889531 15.222518 5.230187 8.490076 7.799302 17.787807 7.799302 27.650352v18.281001c0 2.952404-.113607 5.168692-.3776 8.818404.323391.906549.674985 1.884963 1.028033 2.867114l.264641.73625c.924272 2.571873 1.812488 5.052136 2.180826 6.208508 2.49689 7.838834 3.781724 15.442552 3.781724 24.181061 0 7.650657-.724617 15.075561-2.207381 22.227569 1.469178 4.976147 2.207381 10.208121 2.207381 15.58867 0 13.237443-5.227004 23.701618-13.033002 32.273998-4.297068 4.718948-9.248974 8.639828-14.872239 12.202536-8.009825 5.074751-17.701654 9.533736-27.342788 12.857905-18.775363 6.473561-103.959287 22.039072-133.309416 23.799412-7.827818.469491-15.006706.840877-22.117555 1.131893l-1.640022.065739c-.546448.021442-1.092757.042418-1.639193.062933l-1.63995.060178-1.642294.057469c-15.088524.515171-30.673623.694285-52.274392.705836l-2.296222.000604c-4.336639 0-9.854067-.135299-16.6366-.407623-14.135268 15.767636-32.440536 26.811101-53.407197 31.234976-2.568262.541883-5.151219.978304-7.74543 1.300876-1.597417.333941-3.229067.536344-4.877564.63745l-36.092052 2.213608c-2.050939.125788-4.091569.092794-6.103104-.10925-34.772374-.791533-66.789379-20.015692-88.074458-50.039912-166.836215-18.093628-257.872025-27.791034-270.777821-28.855008-3.749496-.309115-6.96725.068846-12.195698 1.361479-8.33604 6.61833-17.899775 11.398117-28.357495 13.95043-3.732868.911044-7.514466 1.519973-11.320428 1.807823-.542414.079237-1.09504.126535-1.663466.116275-.268029.030324-.537176.044104-.80641.056368l-.001061-.023304-1.586557.064967.000305.013051c-.15971.003737-.319415.006941-.479076.006553-.079609.011851-.162526.011078-.245503.010053l-.257156-.003177c-1.190357.014407-2.380184-.0036-3.568632-.053607l-29.23095-.45395c-3.124521-.048523-6.163618-.455171-9.06158-1.220652-15.876437-2.949675-30.1095214-11.472936-41.6471589-23.796083-6.6873083-7.142595-12.4158357-15.51203-17.047134-24.782152-10.8298645-5.430729-19.2473749-11.801301-25.6318437-20.637322-5.4633523-7.561207-9.1987697-17.253365-13.14529599-30.557554-3.18497962-10.736928-5.7528236-21.941214-6.8518308-30.701021-1.55872291-12.424042-1.07683333-22.080132.76641192-36.098658.01527011-.116134.38590799-2.910993.47926228-3.633132.14468943-1.119239.24763804-1.969207.32568401-2.693353.27690446-2.569245.58251036-4.677509.96599984-6.698655.00621835-.200008.012403-.423607.01847828-.670108.0703526-2.854517.10643904-7.891383.11153367-16.469383l.00062995-2.197588c0-26.798644 3.68546554-48.19366 12.63593244-65.119749 2.9616727-5.600774 7.2113934-10.417926 12.3992122-14.05478l29.6819627-20.808159c51.3662651-40.171221 104.0755571-65.778641 158.0260561-76.324601l18.673283-3.120238c46.089524-6.536613 109.855051-7.876265 192.268422-4.241985zm113.441424 234.741363c-37.723994 7.959535-60.155749 52.470935-50.102726 99.418995 1.990365 9.295091 5.104867 17.98881 9.113127 25.893156.063803.125702.128087.251821.192598.377738l-.192598-.377738c.439642.866979.890036 1.724462 1.350878 2.5722.005783.010516.011233.020538.016685.030559l-.016685-.030559c.407343.749323.822849 1.491034 1.246309 2.224959.032355.055955.064849.112146.097389.16829l-.097389-.16829c.203905.353402.409654.704998.617224 1.05477l-.519835-.88648c.249364.43025.501464.857812.756259 1.28265l-.236424-.39617c.219668.370159.441375.738274.665094 1.104324l-.42867-.708154c.191934.320026.385397.638508.580371.955428l-.151701-.247274c.459427.751719.927336 1.494726 1.403487 2.228826.080902.124607.162299.249474.243935.37408l-.243935-.37408c.224702.34643.451238.690877.679585 1.033319l-.43565-.659239c.219944.335719.441617.669552.664997 1.00148l-.229347-.342241c.282546.423722.567863.844375.855903 1.26192l-.626556-.919679c.26842.398857.539304.794963.812611 1.188286l-.186055-.268607c.216359.313636.434255.625518.653667.93563l-.467612-.667023c.237475.341757.476779.681412.717886 1.018945l-.250274-.351922c.517042.730775 1.042503 1.45172 1.576119 2.162619.062454.083082.125027.166157.187712.249095l-.187712-.249095c.263126.350544.528235.698647.795295 1.04428l-.607583-.795185c.236778.31328.475144.624591.715075.933914l-.107492-.138729c.282074.365065.566325.727376.852714 1.086902l-.745222-.948173c.264076.34045.530047.678492.797883 1.014102l-.052661-.065929c.231124.290147.46364.57848.69753.864983l-.644869-.799054c.284674.356706.571455.710665.860306 1.061846l-.215437-.262792c.257222.315084.516105.627955.776622.938592l-.561185-.6758c.252257.30669.506093.611261.761484.913694l-.200299-.237894c.307736.366938.617752.730759.930007 1.091426l-.729708-.853532c.282244.334231.566387.66585.852395.99483l-.122687-.141298c.235974.272561.473226.543321.711737.812265l-.58905-.670967c.288928.332339.57976.661984.872462.988909l-.283412-.317942c.206011.232296.41296.463237.620838.692813l-.337426-.374871c.258177.288362.517808.574607.778871.858716.23878.259973.478844.518137.720088.774498l-.720088-.774498c.271109.295042.543762.58778.817933.878193l-.097845-.103695c.27436.291552.550247.580772.827634.867638l-.729789-.763943c.294309.311746.590368.620812.888142.927173l-.158353-.16323c.298101.308288.597934.613857.899467.916682l-.741114-.753452c.31337.322405.62864.641814.945774.958196l-.20466-.204744c.263323.26445.527943.526808.793837.787054l-.589177-.58231c.286913.286233.575352.569988.865287.851243l-.27611-.268933c.287188.281088.575863.559713.865997.835853l-.589887-.56692c.308194.298967.61808.595109.929623.888397.238224.224371.477145.446715.717018.667382l-.717018-.667382c.26974.253935.540723.505731.812926.75537l-.095908-.087988c.267384.245976.535951.489869.80568.731662l-.709772-.643674c.305723.28038.612985.558039.921757.832953l-.211985-.189279c.264123.236766.52936.471519.795693.704243l-.583708-.514964c.344919.307097.691721.610768 1.040363.910978.189601.163366.380099.325904.571136.48741l-.571136-.48741c.313526.269973.62854.537146.945012.801495l-.373876-.314085c.230141.194564.461064.387628.692759.579184l-.318883-.265099c.262923.21962.526852.43729.791769.652996l-.472886-.387897c.417587.345244.837678.685587 1.2602 1.020968l-.787314-.633071c.347172.282683.696042.561993 1.046567.837896l-.259253-.204825c.289251.229597.579642.456868.87115.681796l-.611897-.476971c.293458.230986.588078.459584.883834.685776l-.271937-.208805c.655764.50599 1.317181 1.000121 1.983988 1.48218.079688.057517.159612.115069.239614.172448l-.239614-.172448c.303139.21915.607393.435805.912736.649946l-.673122-.477498c.302448.21692.605994.431361.910615.643304l-.237493-.165806c.323178.226648.647577.450479.973168.671469l-.735675-.505663c.376135.2617.753908.519589 1.133274.773632.229017.153447.458344.305228.68824.455602l-.68824-.455602c.275532.184511.551905.366992.8291.54743l-.14086-.091828c.322014.210628.645144.418496.969363.623581l-.828503-.531753c.322881.210176.646878.41758.971964.622189l-.143461-.090436c.355602.224937.712513.446526 1.070699.664739l-.927238-.574303c.351947.221515.705169.439755 1.059633.654689l-.132395-.080386c.293732.178946.58832.355622.883746.530011l-.751351-.449625c.337943.204917.677014.40683 1.017183.605715l-.265832-.15609c.38825.229183.777945.454416 1.16904.675662l-.903208-.519572c.335442.196122.671953.389299 1.009502.579507l-.106294-.059935c.293431.165996.58765.329748.882638.491241l-.776344-.431306c.362457.204245.726113.405067 1.09093.602436l-.314586-.17113c.361278.197783.723709.392176 1.087259.583152l-.772673-.412022c.296411.160362.593589.318445.891514.474233l-.118841-.062211c.349395.183539.699823.363922 1.051253.541122l-.932412-.478911c.391223.204574.783736.405192 1.177494.601818l-.245082-.122907c.324352.163546.649558.324382.975593.482486l-.730511-.359579c.325817.162699.652488.322664.979986.479876l-.249475-.120297c.368907.178895.738876.354293 1.109871.526166l-.860396-.405869c.324031.155548.648872.3084.9745.458536.306591.141427.613878.280378.921843.416906l-.921843-.416906c.396517.182821.794201.361617 1.193007.53635l-.271164-.119444c.317308.14067.635335.278767.954059.414274l-.682895-.29483c.323267.141637.647272.280605.971992.416886l-.289097-.122056c.414438.1762.830055.348021 1.246803.515422l-.957706-.393366c.349938.146865.700705.290608 1.052275.431208l-.094569-.037842c.331997.133358.664712.263912.998121.391642l-.903552-.3538c.355734.142264.712288.28131 1.069634.417111l-.166082-.063311c.34161.130872.683948.258778 1.026987.383699l-.860905-.320388c.34628.131597.693302.260147 1.04104.38563l-.180135-.065242c.362121.131869.725023.26041 1.088677.385598l-.908542-.320356c.415618.149977.832259.295572 1.249875.436746l-.341333-.11639c.322017.110855.644624.219081.967798.324661l-.626465-.208271c.338342.114375.677325.225849 1.016924.334402l-.390459-.126131c.751188.245409 1.505442.47652 2.262496.693115.106148.030319.212171.060352.318247.0901l-.318247-.0901c.362065.103587.724769.203853 1.088085.300776l-.769838-.210676c.317977.089172.636441.175784.955371.259819l-.185533-.049143c.397246.105974.795223.207949 1.193891.305896l-1.008358-.256753c.394967.104069.79065.204186 1.187011.300319l-.178653-.043566c.33321.081864.666904.160913 1.001058.237129l-.822405-.193563c.371613.090131.743822.17676 1.116596.259863l-.294191-.0663c.378974.086439.758541.169234 1.138669.248358l-.844478-.182058c.345754.077079.691994.151123 1.038695.222114.307321.062968.615167.123526.923358.181668l-.923358-.181668c.38786.079418.776298.155014 1.165278.226759l-.24192-.045091c.355455.067058.711368.130902 1.067715.191509l-.825795-.146418c.35312.065131.706687.127088 1.060675.185851l-.23488-.039433c.407603.069325.815772.134416 1.224467.195241l-.989587-.155808c.396281.065783.79309.127563 1.190391.185309l-.200804-.029501c.319315.047522.638952.092441.958891.134739l-.758087-.105238c.369642.053726.73971.103961 1.110174.150681l-.352087-.045443c.411374.054387.823248.104443 1.235583.150135l-.883496-.104692c.327263.041272.654835.0798.982696.115569l-.0992-.010877c.344848.038213.690018.073375 1.035486.105465l-.936286-.094588c.455796.049726.912151.094119 1.36901.133134l-.432724-.038546c.349992.03251.700291.061868 1.050871.088053l-.618147-.049507c.331801.028335.663868.053834.99618.076479l-.378033-.026972c.446806.033373.894069.061593 1.341741.084618l-.963708-.057646c.346643.023622.693553.044139 1.040705.061531l-.076997-.003885c.334189.017189.668606.031484 1.003228.042867l-.926231-.038982c.42232.021159.845.037694 1.267998.049571l-.341767-.010589c.371737.012645.743728.021697 1.115945.027132l-.774178-.016543c.321296.009021.642775.015355.964419.018986l-.190241-.002443c4.18319.061082 8.394846-.334672 12.594025-1.220673 37.723994-7.959535 60.155749-52.470935 50.102726-99.418994-10.053023-46.94806-48.783948-78.554504-86.507942-70.59497zm96.563517 145.257392-.084318.164597c-2.933093 5.605367-6.351426 10.845928-10.218054 15.634884 6.064117-3.629536 11.4823-8.356324 16.137707-13.952958-2.004324-.540846-3.949859-1.156172-5.835335-1.846523zm-25.150441-71.500501c7.621583 35.59313-9.492114 69.980367-39.310334 76.271831l-5.580467.823078c-27.842663 2.360638-54.387839-21.239892-61.530135-54.594726-7.621583-35.59313 9.492114-69.980368 39.310334-76.271832 29.797538-6.2871 59.492153 18.193158 67.110602 53.771649zm-388.12245-261.879013c-47.904112 9.364044-95.412575 32.587869-142.5253875 69.671475l-24.523502 17.192028c24.9393225-1.34548 47.0720775-.943593 66.4133695 1.217228 23.84029 2.663452 48.39907 8.552715 73.67325 17.65461 3.897126 1.403457 5.918644 5.700429 4.515187 9.597556-1.403458 3.897126-5.70043 5.918644-9.597557 4.515187-24.20083-8.715354-47.618575-14.330993-70.256327-16.860097-20.228476-2.259937-43.8757022-2.507553-70.9219072-.727707 1.7122501 4.719386 3.1905409 8.554392 4.4342138 11.505705 2.1922849 5.202426 5.0975251 11.080868 8.7157204 17.635326-5.4402125.857524-9.5023258 1.286286-12.18634 1.286286-2.0136024 0-4.7140418-.241321-8.1013182-.723962-.0379319 1.657609-.0563202 3.353522-.0563202 5.086636l-.0004139 1.811026-.0007397 1.154716c-.0128207 15.68714-.1334247 19.567111-.4073193 21.576522l-.0200673.142139c-.0169463.115966-.0344529.226013-.0525296.332312l-.0219665.1259c-.0111207.06219-.0224482.123343-.0339845.18393l-.0538836.273121c-.0061485.030276-.0123512.060588-.0186082.090998l-.0381971.184107c-.0323784.155201-.0661302.315853-.10129.489513l-.0428698.21512c-.1524253.778155-.3299319 1.83908-.5350836 3.742571-.9769129 9.064241-3.3043678 19.990542-1.6521839 33.159529 1.6521839 13.168988 8.8012146 37.373418 12.7303841 42.811337.1156983.160125.2371499.320283.364355.480474-5.6100495-42.028284 11.3524002-82.792753 43.875322-91.565402 18.2258383-4.916191 36.4636313 1.692404 50.4289763 16.26177 12.180579 12.707405 20.714297 30.987937 24.157435 51.544315 4.795904 28.632721-.963432 57.131511-15.068552 75.813595 5.805711-2.045743 10.976416-5.6967 15.343434-10.565806 8.035281-1.619811 19.069396-6.125916 34.863267-4.823844 13.369978 1.102242 102.95949 10.64325 268.771344 28.62352-2.046699-5.574311-3.734954-11.382033-5.019931-17.382933-12.192809-56.940957 15.910434-112.70631 65.530423-123.175828 49.56529-10.457976 98.009184 29.074755 110.193583 85.976435 4.886041 22.818027 3.301115 45.44727-3.546298 65.048516 1.659555.577916 3.391737 1.086956 5.196222 1.526932 4.827922 1.17716 11.024224 2.068909 18.55278 2.652538 8.725857.402855 15.514862.609663 20.368672.620049l1.933589.000179c30.871112-.009388 50.908292-.309681 79.302169-2.012668 28.867107-1.73137 109.785127-17.245375 122.665839-21.686519 12.880711-4.441143 28.286393-12.603862 28.286393-19.519084 0-4.610149-1.701811-8.599273-5.105433-11.967371 3.403622-7.631172 5.105433-16.247462 5.105433-25.848868 0-10.380448-3.441172-15.05985-6.877624-26.265701-1.298114-4.23299 0-10.260087 0-16.545636v-18.281001c0-5.036972-2.192441-8.116981-8.268592-13.901213-2.577129-2.453315-26.769807-26.097766-73.407227-44.720096-17.778621-7.099007-51.787976-16.022042-102.028066-26.769106-11.373912-3.962465-19.544412-7.334912-24.511501-10.11734-1.121087-.628003-2.230379-1.251294-3.328285-1.869934 5.102875 3.651539 10.415362 7.46911 15.938949 11.452794-20.971582-.924736-48.812678-1.387104-83.523289-1.387104-45.538253 0-100.233694 6.173733-111.016147 3.097924-2.622098-.747981-4.746023-1.748017-6.159081-3.097924-.714065-.682153-1.615061-1.569255-2.731257-2.65876-7.01915-6.851303-22.548301-21.706528-53.617038-43.932028-10.652686-7.620562-31.488747-20.933674-62.508185-39.939336 20.011334-4.13591 51.68121-5.733612 95.00963-4.793108 6.47875.140631 12.706936.418332 18.68382.809155-5.229936-1.05126-10.580698-2.069329-16.051277-3.053922-6.984019-1.256981-22.934057-3.638517-39.714709-5.516885l-1.626254-.180153-1.629802-.176682c-9.242498-.990754-18.576943-1.798611-26.661681-2.155133-91.951337-4.054887-158.684307-1.712431-201.505735 6.658077zm324.108577 222.784226c-20.855803 4.400448-33.761366 30.332113-27.739561 58.454207 6.02494 28.136733 28.469887 46.640361 49.346371 42.235549l3.814616-1.072681c18.580447-6.577781 29.570387-31.017062 23.924945-57.381525-6.02494-28.136734-28.469887-46.640362-49.346371-42.23555zm-445.32598-51.216185c-21.6522853 5.840432-34.5273467 38.501358-28.7572547 72.950221.7024673 4.193902 1.6488955 8.220959 2.8085412 12.049096.1023482.033541.202597.067423.3027579.101276 7.1826136 22.969434 21.969116 38.718542 37.7778516 40.393949l.003101.077486c2.902693.226236 5.836792-.033065 8.760354-.821659 21.652285-5.840431 34.527346-38.501358 28.757254-72.950221s-28.00032-57.640579-49.652605-51.800148zm813.110217 83.487211c-1.802986 7.56136-3.346346 13.952014-4.630079 19.171964-12.272209 5.618725-28.784768 9.803983-49.537678 12.555771-20.752909 2.751789-47.057428 5.748876-78.913556 8.991262 5.979866-8.508307 11.373823-15.217501 16.18187-20.127581 7.212071-7.365121 8.822215-15.628236 32.46369-15.628236s34.357794-1.317072 56.923358-4.186371c22.565564-2.869298 30.216876-12.118847 27.512395-.776809zm-768.830977-30.563396c4.547689 27.099616-5.746712 53.493661-25.026543 58.684346l-3.742128.723421c-18.5983155 2.191627-35.279934-16.684907-39.6117336-42.498043-4.5476888-27.099616 5.7467122-53.493661 25.0265436-58.684346 20.061339-5.401089 38.733275 14.240611 43.353861 41.774622zm-39.454286-27.290378c-10.3155933 2.777254-17.5535041 21.334696-14.1329707 41.717608 3.347636 19.948518 15.1270527 32.339722 24.6611387 29.772872l1.896256-.702252c9.282441-4.401813 15.443465-21.906376 12.236714-41.015356-3.347635-19.948518-15.127052-32.339722-24.661138-29.772872zm584.671968 36.168688c13.134123.038674 29.021603.947507 47.66244 2.7265 19.055078 1.818527 32.778735 6.39753 41.17097 13.737011l-84.975854-2.877274-3.959957-13.586482zm218.703508-50.035014c-5.332353.710796-9.749798 1.316726-13.252335 1.817788l-.763281.109621c-5.112844.737282-8.116003 1.232751-9.009476 1.486408-1.427682.405319-4.189577 5.289473-8.285687 14.652463-.220746.506252-.810585.736442-1.316364.514617-.214818-.094216-.389679-.260949-.494005-.471044-3.12509-6.303438-5.395728-9.878636-6.811026-10.726033l-.105981-.06338-.212331-.126104c-2.23575-1.318786-4.747329-2.45496-14.901309-1.967556-7.091668.34041-20.21309 1.059423-39.364265 2.15704 13.107239-8.174845 32.62951-13.27541 58.566813-15.301694 25.937304-2.026284 37.920386.613007 35.949247 7.917874zm-279.014628-30.101998c26.699574-1.345507 45.219571-1.345507 55.559993 0 62.197861 8.093251 91.506301 19.413664 95.036132 20.554627 6.615127 2.138238 10.675416 3.662946 6.475054 6.781178-4.200361 3.118233-20.075266 10.150013-23.286804 10.150013h-16.352224c-13.689696 0-71.820348-3.823638-85.154338-8.884374-8.889326-3.373825-19.648597-12.907639-32.277813-28.601444zm-151.384565-5.983677.157757.002727 23.760754 1.234174c.529468.027501 1.025601.241381 1.38104.595355.746767.743692.681744 1.890979-.145233 2.562539l-11.123973 9.033388c-.768188.623818-1.936699.623674-2.704696-.000335l-12.636782-10.267562c-.453551-.368517-.696864-.902077-.661618-1.450858.064251-1.000365 1.018112-1.764481 2.130508-1.706701zm-232.853205-30.010458c-1.29852-1.518437-.646281-3.125734 2.010996-2.713941 1.301843.201779 12.019634 1.141751 23.246718 2.10426l1.376685.117922c11.25382.963156 22.653395 1.919639 25.292069 2.153789 5.385048.477858 6.025328 5.024898 7.81432 7.869531 1.788991 2.844633-1.788992 2.130067-5.884591 1.564518-2.129712-.294086-13.068712-1.368255-23.842271-2.386977l-1.241858-.117251c-9.507454-.896311-18.615323-1.724084-21.110845-1.904923-3.229733-.234045-5.760182-4.463927-7.661223-6.686928zm98.779598-108.598485c43.48052 8.395854 85.63159 37.489445 114.231645 63.294526 17.258253 15.571669 30.944854 29.168766 41.059804 40.791289.724699.8336.63824 2.096975-.194313 2.822875-.395145.344525-.909768.520126-1.433093.489003-14.743732-.872005-28.879329-1.726934-42.406791-2.564787l.617833-2.181361c-6.138856-10.64034-11.791979-19.161604-16.959371-25.563793-7.751087-9.603284-31.466067-8.773155-45.708303-5.210904-11.599347 2.901215-13.657841 8.764003-14.968911 15.787002l-.098281.535594c-.016188.089628-.032292.179434-.04833.269415l-.095574.541958c-.142597.815997-.282717 1.645573-.433361 2.486064l-.102132.561915c-.034658.187824-.069979.376159-.106105.564973.88109 2.83677 1.641428 5.258632 2.281013 7.265587-43.110318-3.001093-76.930826-5.740718-101.463049-8.219529-66.53808-6.72321-131.508203-14.676512-147.436018-18.641505-15.927816-3.964994-22.242649-7.536892-23.518025-14.381502-1.275375-6.84461 15.047216-25.765053 78.072389-46.002352 63.025174-20.237299 115.228452-21.040321 158.708973-12.644468z"/></svg>