<?xml version="1.0" encoding="utf-8"?>
<!-- Generator: Adobe Illustrator 21.0.0, SVG Export Plug-In . SVG Version: 6.00 Build 0)  -->
<svg version="1.1" id="Layer_1" xmlns="http://www.w3.org/2000/svg" xmlns:xlink="http://www.w3.org/1999/xlink" x="0px" y="0px"
	 viewBox="0 0 430.5 192.1" style="enable-background:new 0 0 430.5 192.1;" xml:space="preserve">
<g>
	<path d="M250.2,75.2c2.3-2.9,3.9-5.2,5.7-7.4c9.4-11.4,22-14.1,36-13.2c9.2,0.6,17.6,3.1,25.1,8.6c7.4,5.4,10.8,12.9,12.7,21.5
		c1.1,5.1,1,10.3,1,15.5c0.1,15,0,29.9,0.1,44.9c0,9.2,5,15.4,13.6,17.4c8.8,2.1,18.4-4.8,19.3-13.8c0.2-1.8,0.2-3.6,0.2-5.4
		c0-27.4,0-54.7,0-82.1c0-2.8,0.6-3.9,3.7-3.8c8.4,0.2,16.8,0.2,25.1,0c2.4,0,3.1,0.8,3,3.1c-0.2,4.5,0,9.1,0,14.4
		c4.2-5.5,7.7-10.7,13-14.1c5-3.3,10.5-5.4,16.5-6c2.1-0.2,2.8,0.1,2.7,2.3c-0.1,7.3-0.1,14.6,0,22c0,2.1-0.5,2.7-2.7,2.5
		c-6.3-0.6-12.4,0-17.8,3.9c-4.8,3.5-7.7,8.1-8.8,13.8c-1.4,6.9-2,13.8-2,20.9c0.1,9,0.1,18,0,27c-0.2,19.5-11.8,33.2-29.4,38.8
		c-13.4,4.3-26.9,4.3-40.3,0c-17.6-5.7-29.3-19.3-29.4-38.8c-0.1-14.6,0-29.3,0-43.9c0-3.5-0.5-6.9-1.6-10.3c-2-6.1-6.4-9.9-12.4-11
		c-16.3-3-28.6,4.4-30.8,21.2c-1.9,14.9-1.3,29.9-1.5,44.8c-0.1,9.6-3,18.1-9.3,25.3c-7.1,8.1-16.3,12.6-26.7,14.6
		c-11.3,2.2-22.5,1.7-33.6-1.8c-18-5.6-29.4-20.5-29.5-39.4c-0.1-14.3,0-28.6,0-43c0-4.1-0.3-8.2-2-12.1c-1.9-4.2-5-7.4-9.5-8.8
		c-10.8-3.4-24.4-1.3-30.5,10.6c-3,5.9-3.3,12.5-3.5,18.9c-0.4,10.8-0.2,21.6-0.4,32.4c-0.1,7.8-1.2,15.4-5.2,22.3
		c-5.3,9.2-13.3,15.2-23.1,18.6c-14.3,5-28.7,5-43,0c-15.5-5.4-27.5-18.3-27.7-36c-0.3-30-0.2-60-0.2-90c0-0.1,0-0.2,0-0.3
		c-0.1-1.5,0.5-2,2-2c9.1,0.1,18.2,0,27.4,0c1.5,0,2.1,0.5,2,2c-0.1,2.2,0,4.5,0,6.7c0,26.5,0.3,53-0.1,79.5
		c-0.2,11.2,9.8,21.1,21.8,18.3c6.8-1.6,13-8.3,13.3-15.5c0.2-4.9,0.1-9.8,0.1-14.6c0-24.4,0-48.8-0.1-73.2c0-2.5,0.6-3.3,3.2-3.2
		c8.5,0.2,17,0.1,25.5,0c2.2,0,3,0.5,2.9,2.8c-0.2,3.5-0.1,7,0,10.5c0,1-0.6,2.4,0.7,2.8c1,0.3,1.4-1,1.9-1.8
		c5.9-8.4,13.4-14.5,23.7-16.2c16.7-2.6,32.6-0.9,45.2,12.1c5.3,5.5,7.3,12.7,8.4,20.1c1.2,8.1,0.8,16.3,0.8,24.5
		c0,11.8,0.1,23.5,0,35.3c-0.1,8.6,5.7,14.2,11.6,16c7.6,2.2,15.1-0.8,19.2-7.6c1.8-3,2.3-6.3,2.3-9.8c0-28.2,0-56.4,0-84.6
		c0-4.1,0-4.1,4-4.1c8,0,15.9,0.2,23.9-0.1c3.1-0.1,3.7,1,3.6,3.8C250,65.5,250.2,69.9,250.2,75.2z"/>
	<path d="M22.4,41.8C11.5,41.9,2.7,33.3,2.7,22.4c-0.1-10.9,8.8-20,19.5-20c10.8,0,19.8,8.9,19.9,19.7
		C42.1,33.2,33.6,41.8,22.4,41.8z"/>
</g>
</svg>
