<svg height="960" viewBox="0 0 960 960" width="960" xmlns="http://www.w3.org/2000/svg"><path d="m274.572968 9.29753109c13.651577-3.25402346 27.798104-4.44413954 42.046139-3.46692136l1.181836.08635148 386.50466 30.28012279c107.049089 8.3867297 190.079532 96.876781 191.729163 204.123019l.024919 2.934107v456.067283c0 104.624527-77.71412 192.928234-181.373026 206.288942l-2.838584.345359-403.583778 45.873198c-4.757145.540742-9.541116.811756-14.328954.811756-6.571069 0-13.092302-.502938-19.518951-1.497889l-1.204392-.192859-28.544991-2.685466c-100.597149-9.466233-178.124342-92.414437-181.1698284-192.986203l-.0694362-3.052967-.0234304-2.777043v-535.161838c0-95.923832 68.104325-178.3078348 162.217066-196.3989221l2.567538-.4755223 42.731905-7.58138201c.981425-.17409795 1.959594-.31099494 2.933193-.41179369l.354984-.0338629zm17.15022 37.36674141-.631188.0993381c-4.494715.7231286-8.897803 1.7486022-13.185734 3.0563104l.001197-.6041548-42.44971 7.5302785-2.285503.4223558c-75.214071 14.4582371-129.767936 80.3093685-129.767936 157.1180825v534.857701l.018801 2.472639c1.239434 81.45972 63.618001 149.166375 144.991355 156.823641l29.492993 2.775302-.000968-.050669c5.195067.968994 10.552789 1.475651 16.028848 1.475651.275414 0 .550809-.00131.826176-.003929-56.279338-23.976306-95.956593-79.371423-97.006982-144.156346l-.021368-2.637513v-570.323727c0-4.327332.170421-8.652986.510866-12.966905 4.802467-60.854026 42.077263-111.370543 93.479153-135.8880555zm-73.541144 137.4615195c-.2564 3.248956-.403043 6.505486-.439708 9.764028l-.009167 1.629413v570.323727c0 77.040007 62.453266 139.493273 139.493273 139.493273 2.620201 0 5.239318-.073826 7.854238-.221294l341.952027-38.86824 2.540608-.308089c83.63162-10.77937 146.48637-82.028895 146.48637-166.617117v-455.759826l-.020188-2.626368c-1.330837-86.520697-68.305453-158.079468-154.858109-164.8604106l-323.482515-25.3427153c-1.179124.366457-2.446359.5191802-3.752436.4161075-79.733875-6.2924237-149.471969 53.2436364-155.764393 132.9775114zm332.787956 44.918208c116.31369 0 209.796 112.272724 209.796 249.956s-93.48231 249.956-209.796 249.956-209.796-112.272724-209.796-249.956 93.48231-249.956 209.796-249.956zm0 20c-21.335649 0-41.879317 4.286767-61.063278 12.195629 16.232211-5.367416 33.354356-8.239629 51.063278-8.239629 105.297472 0 189.849372 101.547257 189.849372 226s-84.5519 226-189.849372 226c-17.708922 0-34.831067-2.872213-51.062914-8.242548 19.183597 7.911781 39.727265 12.198548 61.062914 12.198548 104.374878 0 189.796-102.591197 189.796-229.956s-85.421122-229.956-189.796-229.956zm-10 23.956c-93.358659 0-169.849372 91.865731-169.849372 206s76.490713 206 169.849372 206 169.849372-91.865731 169.849372-206-76.490713-206-169.849372-206z"/></svg>