<svg height="960" viewBox="0 0 960 960" width="960" xmlns="http://www.w3.org/2000/svg"><path d="m476.859067 11.0021151 5.827266.0491869c.159707.0013116.319404.0035797.479084.0068042l.414439.0089901 1.522894-.0274649c.805318-.0116888 1.61088-.0206524 2.416679-.0375163h2.78534l5.827233.049286c.123209.0010119.246412.002593.369607.0047434 106.761629 1.8635311 205.732345 51.410112 277.897075 135.8048205l.096369.113126 1.864158 2.196552.095851.113368c71.161012 84.483155 110.543796 197.123138 108.466402 316.136994-2.077265 119.006432-45.356726 230.193977-119.408951 312.137324-56.437417 62.451479-127.663371 104.501979-205.229252 120.830152l-2.539405.521615.332304.925016c2.420708 6.905259 3.789582 14.305083 3.914462 22.00731l.009378 1.157578v91c0 38.65993-31.340068 70-70 70s-70-31.34007-70-70v-91c0-6.958788 1.015418-13.680412 2.906169-20.024787l.098687-.323117-2.289291-.32032c-89.411966-12.953289-171.089883-59.700471-233.012504-132.068694l-2.177282-2.564797c-71.151103-84.481272-110.5276214-197.112949-108.450392-316.117337 2.0772659-119.006484 45.356967-230.194065 119.409598-312.137418 73.664965-81.5143789 172.611264-128.339318 278.006843-128.4414149zm15.140933 881.9978849c-16.568542 0-30 13.431458-30 30v91c0 16.56854 13.431458 30 30 30s30-13.43146 30-30v-91c0-16.568542-13.431458-30-30-30zm-2.023721-841.9979037c-1.433341 0-2.864807.0116057-4.294349.032853l-2.142864.0388569-1.181225-.023853-5.827265-.0478569c-96.148253.093139-183.858858 43.8771434-248.368563 115.2607177-65.555264 72.540544-107.130437 173.597189-109.092718 286.01623-1.962282 112.419041 36.065881 214.866128 99.051329 289.651908 63.237 75.084459 151.608278 122.302277 250.048783 124.020562 1.644527.028706 3.286689.044624 4.926413.047834l2.457746-.004705c1.637267-.009477 3.272058-.031622 4.904301-.066355l1.157212.023261c1.968799.034365 3.934208.050403 5.8961.04825l2.940187-.016855c94.97976-.985003 181.541827-44.59847 245.384047-115.243818 65.554908-72.540545 107.129861-173.597186 109.092143-286.016218 1.962438-112.428015-36.071739-214.882478-99.065854-289.669801l-1.864159-2.196553c-63.10859-73.8037963-150.714499-120.1049902-248.194031-121.8065017zm.319319 2.5814531 5.674195.0484099c94.463945 1.6553632 182.252265 45.6020921 246.794183 120.8808307l1.861601 2.188063c64.669853 76.590673 100.56319 179.172207 98.662765 287.844584-1.900422 108.672226-41.358506 209.940651-108.666662 284.231631-67.302183 74.284386-157.413461 115.993583-252.838503 114.331036-95.425252-1.66255-184.023694-46.485522-248.687857-123.069454-64.669853-76.590672-100.56319-179.172207-98.662765-287.844584 1.900421-108.672225 41.358506-209.94065 108.666662-284.231631 65.878189-72.7126612 153.686483-114.2716594 246.961693-114.3788856zm-.083958 19.9999934h-.127741c-87.452021.1005258-169.959972 39.1509122-232.163152 107.8073042-64.030912 70.673741-101.674866 167.286235-103.49125 271.152919-1.816382 103.866533 32.426514 201.731182 93.947082 274.592049 61.05269 72.306746 144.288275 114.416586 233.754995 115.975324 89.46693 1.558741 174.124577-37.62617 237.668575-107.762483 64.030913-70.673741 101.674866-167.286235 103.491251-271.152919 1.816381-103.866533-32.426514-201.731181-93.922684-274.563264l-1.812672-2.130557c-60.906072-71.037951-143.37354-112.321068-231.84542-113.8718442zm17.277752 51.7302722 4.942945.040543.107534.001456c74.931424 1.418081 144.48284 37.087398 195.916529 97.59604 54.09653 63.641316 83.950593 149.402843 82.364295 240.439699-1.586299 91.036998-34.410125 175.702854-90.69115 237.414455-53.597754 58.769421-124.487773 91.994411-199.552766 90.681869-75.064799-1.312538-144.753733-36.995421-196.271091-97.602495-54.09653-63.641315-83.950593-149.402842-82.364295-240.439699 1.5863-91.036998 34.410125-175.702854 90.69115-237.414455 51.881917-56.888022 120.063405-89.911403 192.616081-90.70523l2.101105-.012183zm-.106348 19.998832-1.967014.012584c-66.723392.730169-129.727431 31.245877-178.006107 84.182979-52.959986 58.070113-83.969009 138.054864-85.471566 224.285916-1.50256 86.231194 26.701085 167.251578 77.605951 227.138092 47.933243 56.390578 112.304944 89.350874 181.382125 90.558716 69.076986 1.207839 134.557393-29.481755 184.425732-84.161907 52.959986-58.070114 83.969009-138.054864 85.471566-224.285916 1.50256-86.231194-26.701085-167.251578-77.605951-227.138092-47.377167-55.73639-110.818421-88.586512-178.989127-90.504152l-2.040486-.047752zm2.336938 5.84727 4.645184.039914.112932.001603c67.90221 1.347263 130.912681 33.760235 177.834683 88.56061 50.514878 58.996509 78.335475 138.696653 76.885675 223.371981-1.449827 84.676908-31.983068 163.341753-84.489663 220.508168-48.885213 53.223644-113.148382 83.388744-181.224717 82.177343-68.074174-1.211363-131.26139-33.642352-178.291692-88.569211-50.514879-58.996508-78.335475-138.696652-76.885675-223.37198 1.449827-84.676909 31.983067-163.341754 84.489663-220.508169 47.319774-51.519276 109.122304-81.494637 174.918802-82.200326l1.866141-.009933zm103.961894 520.363571-196.103 8.602-26.637915 29.392304c33.990592 22.792887 72.560987 35.587106 112.898953 36.304909 49.125269.874172 96.242302-16.245006 136.147155-47.787527zm-22.126735-23.523488-207.186714 9.082702-24.009029 28.067154c4.670173 4.372019 9.465647 8.529668 14.376655 12.46573l30.826225-34.012163c1.793296-1.978579 4.303446-3.157736 6.971215-3.274767l196.869674-8.637541zm-81.952559-476.841225-1.726912.010358c-5.216874.055964-10.408666.315014-15.569046.772737 65.96609 3.334942 124.230425 34.982802 166.736651 81.961907 48.905382 54.051637 77.501193 128.270174 76.088654 209.194474s-32.577382 154.09899-83.338046 206.409749c-1.968414 2.028524-3.967115 4.025452-5.995346 5.989655l9.408515 9.480771c5.069012-4.708734 9.997157-9.666668 14.772019-14.865287 49.148711-53.510526 77.855086-127.468697 79.222316-207.321501 1.367256-79.854386-24.790886-154.791949-72.08055-210.021718-42.925788-50.133182-99.950116-79.747364-161.182675-81.527021l-1.827995-.044784zm-29.232726 20.492321-1.695.008-1.258984.016348c-20.730422.329254-41.07284 3.748646-60.700833 10.09568l-.045183.014972c-25.154654 12.222374-48.415556 29.526192-68.669944 50.94614l-.932679.991532c-48.404734 51.7293-76.727433 123.354895-78.079306 200.803626-1.351837 77.4467 24.456311 150.018293 71.028923 203.408205 2.885975 3.308425 5.844614 6.531214 8.872289 9.66438l.086717.088117 20.194635-23.606268c3.508898-4.10188 8.522422-6.606585 13.896976-6.956775l.425037-.023161 207.186714-9.082702c1.652539-.072444 3.307684.060401 4.927514.395494l19.18663 3.969114c4.34733.899327 8.271887 3.219499 11.15534 6.594964l12.916154 15.120334.016767-.015829c46.873499-49.083258 74.408507-116.346442 76.206362-189.105057l.04699-2.229007c1.297865-74.35468-24.451526-144.066193-70.922208-195.426931-42.057331-46.482973-97.798147-73.907861-157.598492-75.590528l-1.792108-.042629z"/></svg>