<svg height="960" viewBox="0 0 960 960" width="960" xmlns="http://www.w3.org/2000/svg"><path d="m477.941634 2c24.233592 0 43.907083 2.11945029 59.725259 6.89655465 9.960121 3.00796605 18.740843 7.15563445 26.310022 12.88604775 9.675417 7.3249869 16.941607 16.9848857 20.719335 28.5839068 1.643865 5.0472711 2.266683 10.3712564 1.832157 15.6616651l-.598407 7.2778257-.030102 4.6285958c-2.633296 396.2145912-4.206205 636.3198052-4.708848 718.7285662l-.01505 2.419838.966432.3568c8.072419 3.001998 15.440259 6.413863 21.992233 10.23689l.782314.460737c9.216346 5.478666 17.020853 11.899271 23.135947 19.631373 8.156958 10.313893 12.947074 22.591679 12.947074 35.993897v11.833593c0 19.34859-9.52019 35.387538-24.394274 47.51096-10.268227 8.369326-23.280397 15.009315-38.594735 20.288866-27.413912 9.450825-62.753592 14.603884-100.010991 14.603884s-72.597079-5.153059-100.010991-14.603884c-15.314338-5.279551-28.326508-11.91954-38.594735-20.288866-14.874084-12.123422-24.394274-28.16237-24.394274-47.51096v-11.833593c0-.313275.00368-.626538.01104-.939726l.016479-.701223c.007361-.313255.018403-.626412.033123-.939407.616627-13.111286 5.763862-24.93016 14.041947-34.834576 6.209631-7.429589 14.018532-13.620208 23.183723-18.915706 6.778572-3.916549 14.426248-7.400447 22.818167-10.450581l.716521-.258478-.015638-2.648327c-.506507-82.958582-2.078203-322.863748-4.705461-718.1703776l-.099017-14.8968401c-.018453-2.7758408.252098-5.5460625.807277-8.2658803 2.5954-12.7148361 9.467989-23.6037253 19.318554-31.8088873 7.550546-6.2893304 16.440001-10.7392649 26.595348-13.91941873 15.585849-4.88071983 35.145172-7.01326897 59.532323-7.01326897zm109.410357 895.029252-.023432.009612c-4.163016 1.706885-8.680273 3.301493-13.52224 4.787097-25.616723 7.859676-59.848483 12.302039-96.271319 12.302039s-70.654596-4.442363-96.271319-12.302039c-3.922668-1.203546-7.63222-2.478635-11.112955-3.827005 20.915787 13.11419 61.372143 22.001044 107.849274 22.001044 47.614543 0 88.910018-9.327144 109.351991-22.970748zm-190.69754-63.072926-.735742.225072c-22.707749 7.019052-37.802044 16.906348-40.488403 28.00901.069707.469322.104694.949371.104694 1.437592 0 1.765458 1.775587 4.427743 6.24501 7.669861 5.622203 4.078344 14.286962 8.01345 25.350118 11.407828 23.573358 7.232734 55.857207 11.422311 90.404872 11.422311s66.831514-4.189577 90.404872-11.422311c11.063156-3.394378 19.727915-7.329484 25.350118-11.407828 4.469423-3.242118 6.24501-5.904403 6.24501-7.669861 0-1.106338.17966-2.170715.511397-3.165546-3.718737-10.286953-18.127757-19.429503-39.273273-26.064979-1.610511 13.920006-9.323432 25.258795-21.779854 32.935257l-.413521.251491-.166804.239126c-5.103412 7.212082-11.711094 12.680465-19.682644 16.020841l-.558365.229592c-7.001127 2.824175-16.680334 4.317631-29.897606 4.902064l-.433581.018377-.13702.02877c-.900818.184278-1.231228.240281-1.473237.255675l-.078057.003748c-.012684.000414-.025261.000733-.037813.000971l-.154716-.000028-.042025-.000534c-.432446.032424-.742263.045395-1.1288.056389-.80074.022774-2.492134.038343-4.625516.039919l-2.490802.000132c-2.30228 0-4.13987-.016012-4.985095-.040051-.386537-.010994-.696354-.023965-1.1288-.056389l-.021273.000276-.175468.000286c-.225932-.004292-.459929-.034584-1.184-.178539l-.260169-.052315c-.046608-.00946-.094892-.019302-.144938-.02954l-.138271-.02877-.43233-.018377c-12.963094-.573194-22.522893-2.020785-29.490717-4.740605l-.406889-.161459c-8.221767-3.316568-15.018913-8.870628-20.241009-16.250433l-.167055-.238126-.41327-.252491c-12.587884-7.757478-20.331616-19.254992-21.829028-33.376406zm82.083298 35.278897-.507499.007544c-.249904.00313-.501071.006007-.753501.00863-6.918689.07189-4.636595.113467-.913046.124729l.292928.000817c.049263.000126.098734.000246.148398.000362l.30015.000632c.100729.00019.202089.00036.303947.00051l.845384.000767h.567729l.845384-.000767c.101858-.00015.203218-.00032.303947-.00051l.30015-.000632c.049664-.000116.099135-.000236.148398-.000362l.292928-.000817c3.723549-.011262 6.005643-.052839-.913046-.124729l-.753501-.00863zm8.236939-794.7451326-.421194 777.1846176c-.001951 3.58985-2.913681 6.496468-6.503532 6.496468-3.58985 0-6.498417-2.913681-6.496468-6.503532l.420285-776.1618353c-4.20427.1375551-8.129032.055007-11.778692-.2506235l.000177 775.3883978c0 7.090505-1.230324 12.969877-4.137646 17.390717 5.423498.678729 12.238508 1.078921 20.442959 1.200923h.475595c15.337402-.228112 25.819187-1.428318 31.445355-3.603225l.268444-.105998c5.73419-2.313107 10.303897-6.650421 13.709121-13.011941 10.944341-5.140321 16.506201-12.860448 16.685582-23.160382-.026795-.004788-.05322-.010236-.079652-.01568.006072-.243329.009108-.488108.009108-.734338 0-9.912117 1.465902-235.687228 4.397707-677.325333-.944423 1.304454-1.976096 2.548585-3.08796 3.719236-1.492523 1.571434-3.117488 2.986935-4.818855 4.214309l-.327722 680.57299c-.001727 3.58985-2.913275 6.496874-6.503125 6.496874-3.589851 0-6.4986-2.913275-6.496875-6.503126l.325087-675.410311c-.37954.025691-.756212.038704-1.129436.038704l-.367452.00094c-.068309.000291-.149742.000663-.250775.001137-2.755247.012909-4.922403-.058889-7.00831-.340233l.000458 683.77069c0 3.589851-2.910149 6.5-6.5 6.5s-6.5-2.910149-6.5-6.5l-.000221-688.925856c-6.594555-5.024972-10.38833-13.442433-10.38833-25.000357l-.001049-60.1340319c-1.833104.2665026-3.627224.5034858-5.382584.7107993zm-75.507688-3.8080904-.052251-8.0567585c3.315228 500.2486185 4.972842 755.6524155 4.972842 766.2113905 0 8.801414 3.865433 15.750138 11.5963 20.846171.701689.191756 1.392345.464631 2.060725.821077l7.541133 4.021184.188216.089111c1.553312.724685 2.840029 1.179336 3.819279 1.397836l.071505.014053.0507-.194378c.278848-1.145564.455152-2.738918.47742-4.750629l.002395-.437474-.000515-772.2485191zm98.671654-12.0391645-.513396.0162635.080132.1366988c1.64396 2.8647283 2.581832 6.1405785 2.649049 9.5588446l.003882.3950321v65.1636485c0 4.206677.712399 6.811065 1.75507 8.265971.589538.822619 1.378023 1.335799 2.639141 1.701949 1.46622.425698 2.989513.541732 5.908484.528055l.104139-.000484.172709-.000767.160394-.000948.048213-.012066c.245814-.069133.557957-.187901.911791-.355514l.217107-.106423c1.174425-.594701 2.420472-1.522836 3.546954-2.708876 2.884149-3.036638 4.609484-7.245683 4.609484-12.690377l-.000645-63.1423378c-1.123398-.7417801-2.102838-1.7128113-2.859637-2.8738465l-6.224267-2.6365597-.66091-.1300109c-4.397473-.8416398-8.576129-1.2076377-12.547694-1.1082526zm-32.19702-16.6428355h-.706565c-20.650987 0-36.495517 1.7257733-47.533591 5.1773198 14.327351 4.5201251 25.258154 7.1853004 32.617246 7.997995 4.496223.4965364 9.774477.5276111 15.817161.0813261-.256191-3.5386152 1.285481-7.2191396 5.054218-9.9472232 1.675753-1.2130306 3.759218-2.1972271 6.440107-3.1073629-3.715477-.1346935-7.612441-.2020548-11.688576-.2020548z"/></svg>