<svg height="960" viewBox="0 0 960 960" width="960" xmlns="http://www.w3.org/2000/svg"><g fill="#000" fill-rule="evenodd"><path d="m711.999514 355c69.035192 0 125.000347-55.965 125.000347-125s-55.965155-125-125.000347-125-125.000347 55.965-125.000347 125 55.965155 125 125.000347 125"/><path d="m346.998472 305c82.84273 0 150.000417-67.1575 150.000417-150 0-82.84275-67.157687-150-150.000417-150s-150.000416 67.15725-150.000416 150c0 82.8425 67.157686 150 150.000416 150"/><path d="m741.999583 425c71.797048 0 130.000417 58.203207 130.000417 130v250c0 71.796793-58.203369 130-130.000417 130-71.797047 0-130.000416-58.203207-130.000416-130v-250c0-6.267889-.339214-12.456552-1.000373-18.548538l.000373-31.451462c0-29.412266-8.465376-56.8474-23.092553-80.001837z"/><path d="m446.99875 375c71.797048 0 130.000417 58.203207 130.000417 130v300c0 52.180913 23.510096 98.870902 60.565908 130h-290.569103c-56.957371 0-109.079156-20.704202-149.250067-54.997239l118.00498-.002761c44.873261 0 81.250226-36.376965 81.250226-81.250226v-237.499548c0-44.873261-36.376965-81.250226-81.250226-81.250226l-196.351993.000091c11.655797-59.835588 64.353455-105.000091 127.599302-105.000091z"/><path d="m315.750885 520c22.781871 0 41.250226 18.468355 41.250226 41.250226v237.499548c0 22.781871-18.468355 41.250226-41.250226 41.250226h-237.5006593c-22.7818706 0-41.2502257-18.468355-41.2502257-41.250226v-237.499548c0-22.781871 18.4683551-41.250226 41.2502257-41.250226zm-31.770088 45.715h-173.976983v41.92h61.17917v186.65h51.620143v-186.65h61.17767z"/></g></svg>