<svg width="960" height="960" viewBox="0 0 960 960" fill="none" xmlns="http://www.w3.org/2000/svg">
<path d="M634.808 121.237C811.89 122.347 949.854 286.542 948.467 482.166C947.079 677.79 806.799 840.242 629.717 839.132C600.03 838.946 571.315 834.117 544.12 825.263L258.955 769.255L258.948 769.254C167.592 751.277 94.1874 679.868 62.209 586.74C61.4918 584.651 61.126 582.457 61.126 580.247V500H33C21.9544 500 13.0001 491.046 13 480C13 468.955 21.9543 460 33 460H61.126V380.256C61.1261 378.051 61.4902 375.86 62.2051 373.773C94.0254 280.884 166.812 209.543 257.134 190.501C257.247 190.477 257.36 190.455 257.474 190.433L546.233 134.761L546.782 134.663C546.932 134.639 547.082 134.617 547.231 134.596C575.079 125.717 604.469 121.046 634.808 121.237ZM634.524 161.236C633.059 161.226 631.596 161.232 630.136 161.249C629.459 161.257 628.784 161.268 628.108 161.281C627.259 161.299 626.411 161.32 625.564 161.346C479.403 165.875 357.298 303.254 356.056 478.453C354.818 652.981 474.039 791.484 619.363 798.831C622.892 799.008 626.438 799.111 630.001 799.133C632.346 799.148 634.685 799.129 637.019 799.075C639.352 799.022 641.68 798.935 644.001 798.814C645.742 798.723 647.479 798.614 649.213 798.486C650.369 798.4 651.523 798.306 652.676 798.204C653.828 798.102 654.978 797.992 656.127 797.873C656.701 797.814 657.275 797.753 657.849 797.69C658.996 797.563 660.141 797.428 661.284 797.285C662.999 797.071 664.71 796.839 666.417 796.588C666.986 796.504 667.555 796.418 668.123 796.33C670.395 795.98 672.658 795.597 674.914 795.183C676.042 794.976 677.167 794.76 678.291 794.537C679.415 794.314 680.537 794.084 681.656 793.845C683.335 793.487 685.009 793.111 686.679 792.718C687.792 792.456 688.903 792.185 690.012 791.907C691.674 791.491 693.332 791.058 694.984 790.607C696.637 790.156 698.284 789.687 699.926 789.201C701.02 788.878 702.112 788.547 703.201 788.208C707.56 786.853 711.879 785.378 716.156 783.785C717.225 783.387 718.292 782.981 719.355 782.569C720.951 781.949 722.541 781.314 724.124 780.662C724.652 780.445 725.179 780.226 725.705 780.005C726.232 779.784 726.757 779.562 727.282 779.337C729.382 778.439 731.471 777.513 733.548 776.558C735.625 775.603 737.69 774.62 739.743 773.609C741.797 772.597 743.838 771.558 745.867 770.491C750.432 768.092 754.933 765.553 759.366 762.879C759.859 762.582 760.35 762.284 760.841 761.984C761.332 761.683 761.822 761.381 762.312 761.077C762.801 760.773 763.29 760.468 763.777 760.16C764.265 759.853 764.752 759.545 765.237 759.235C766.209 758.614 767.177 757.987 768.142 757.353C770.071 756.085 771.987 754.792 773.888 753.473C774.838 752.813 775.785 752.147 776.729 751.475C779.087 749.794 781.423 748.073 783.735 746.313C785.123 745.257 786.502 744.187 787.872 743.103C788.786 742.38 789.696 741.651 790.602 740.916C791.507 740.181 792.409 739.441 793.307 738.694C793.756 738.32 794.204 737.944 794.651 737.568C795.992 736.438 797.324 735.294 798.647 734.137C799.529 733.366 800.407 732.589 801.281 731.806C803.466 729.848 805.626 727.852 807.76 725.821C808.186 725.414 808.612 725.006 809.036 724.597C809.461 724.188 809.884 723.777 810.307 723.365C810.729 722.952 811.151 722.539 811.571 722.124C813.673 720.049 815.748 717.938 817.795 715.792C818.204 715.363 818.612 714.932 819.02 714.5C819.834 713.636 820.644 712.766 821.45 711.891C822.659 710.578 823.857 709.253 825.045 707.915C825.441 707.469 825.836 707.022 826.229 706.573C826.623 706.125 827.016 705.674 827.408 705.223C827.8 704.771 828.19 704.319 828.579 703.865C829.747 702.502 830.904 701.128 832.051 699.741C832.433 699.28 832.814 698.816 833.193 698.352C835.473 695.563 837.709 692.726 839.902 689.843C840.268 689.362 840.632 688.88 840.995 688.397C842.447 686.464 843.88 684.512 845.293 682.538C847.765 679.085 850.177 675.57 852.525 671.995C852.861 671.485 853.194 670.972 853.527 670.459C854.193 669.433 854.854 668.402 855.509 667.366C856.164 666.33 856.815 665.29 857.46 664.244C858.105 663.199 858.744 662.148 859.378 661.093C860.012 660.038 860.641 658.979 861.265 657.914C861.888 656.85 862.506 655.781 863.119 654.707C863.732 653.633 864.339 652.555 864.941 651.472C867.649 646.599 870.247 641.634 872.729 636.581C873.556 634.897 874.371 633.202 875.173 631.498C876.242 629.226 877.287 626.937 878.31 624.631C878.565 624.055 878.819 623.477 879.071 622.899C879.577 621.742 880.076 620.581 880.569 619.415C882.296 615.337 883.951 611.208 885.53 607.031C886.207 605.24 886.869 603.441 887.519 601.633C887.735 601.03 887.95 600.427 888.163 599.823C888.803 598.009 889.429 596.187 890.041 594.356C890.449 593.135 890.851 591.911 891.246 590.683C892.036 588.227 892.802 585.756 893.541 583.271C894.096 581.406 894.636 579.534 895.161 577.654C895.386 576.848 895.607 576.04 895.827 575.232C896.633 572.266 897.404 569.282 898.137 566.278C898.292 565.64 898.445 565.002 898.598 564.363C898.902 563.085 899.2 561.804 899.49 560.52C900.116 557.754 900.71 554.972 901.273 552.176C903.719 540.037 905.568 527.615 906.78 514.948C906.91 513.593 907.032 512.235 907.147 510.874C907.205 510.194 907.261 509.513 907.314 508.831C907.422 507.468 907.522 506.102 907.615 504.734C907.662 504.049 907.706 503.365 907.749 502.679C907.835 501.308 907.913 499.934 907.983 498.557C908.195 494.427 908.339 490.273 908.415 486.098C908.44 484.706 908.458 483.312 908.468 481.915C908.493 478.424 908.469 474.947 908.398 471.485C908.37 470.1 908.334 468.718 908.29 467.338C908.247 465.958 908.196 464.58 908.138 463.205C908.079 461.83 908.013 460.458 907.939 459.088C907.866 457.719 907.785 456.352 907.696 454.988C907.608 453.623 907.512 452.261 907.409 450.902C907.358 450.222 907.304 449.543 907.249 448.865C907.028 446.151 906.778 443.449 906.499 440.757C906.08 436.72 905.597 432.709 905.05 428.724C904.502 424.739 903.891 420.78 903.217 416.849C902.431 412.263 901.56 407.715 900.606 403.206C900.334 401.918 900.055 400.633 899.769 399.352C898.91 395.507 897.992 391.692 897.014 387.908C896.362 385.386 895.684 382.877 894.979 380.382C894.451 378.511 893.909 376.648 893.352 374.793C892.98 373.557 892.603 372.324 892.219 371.095C891.45 368.636 890.657 366.193 889.838 363.764C888.61 360.121 887.325 356.512 885.985 352.939C885.539 351.747 885.086 350.56 884.627 349.376C884.168 348.193 883.703 347.014 883.232 345.838C882.526 344.075 881.806 342.32 881.073 340.575C880.584 339.412 880.09 338.253 879.59 337.098C878.338 334.21 877.049 331.349 875.725 328.514C874.135 325.112 872.494 321.747 870.802 318.423C869.11 315.099 867.367 311.814 865.574 308.571C864.081 305.867 862.553 303.193 860.991 300.547C858.805 296.844 856.553 293.198 854.237 289.611C852.583 287.048 850.897 284.516 849.179 282.015C845.055 276.013 840.748 270.189 836.27 264.555C835.523 263.616 834.772 262.683 834.016 261.754C832.504 259.897 830.973 258.061 829.424 256.247C828.649 255.34 827.869 254.439 827.085 253.542C826.301 252.646 825.513 251.755 824.72 250.869C823.927 249.984 823.128 249.105 822.326 248.231C816.711 242.111 810.875 236.263 804.835 230.704C803.972 229.91 803.105 229.121 802.234 228.339C801.363 227.557 800.489 226.78 799.609 226.01C798.73 225.24 797.846 224.475 796.959 223.717C796.515 223.338 796.071 222.96 795.625 222.584C794.734 221.832 793.839 221.085 792.939 220.345C791.141 218.865 789.326 217.409 787.496 215.978C786.581 215.262 785.663 214.553 784.74 213.85C783.818 213.147 782.892 212.45 781.962 211.76C781.032 211.069 780.098 210.385 779.16 209.707C778.691 209.368 778.222 209.031 777.751 208.696C776.339 207.688 774.919 206.695 773.491 205.717C770.159 203.434 766.783 201.23 763.364 199.108C762.388 198.501 761.407 197.901 760.424 197.308C759.932 197.011 759.439 196.716 758.945 196.423C757.958 195.837 756.968 195.257 755.975 194.684C755.478 194.397 754.981 194.112 754.482 193.829C753.485 193.263 752.485 192.703 751.481 192.151C750.478 191.598 749.472 191.052 748.462 190.513C747.452 189.974 746.439 189.442 745.423 188.916C741.866 187.078 738.27 185.325 734.639 183.657C733.601 183.181 732.56 182.711 731.517 182.249C725.777 179.708 719.949 177.382 714.041 175.281C712.43 174.707 710.812 174.151 709.189 173.612C707.025 172.892 704.851 172.202 702.666 171.542C701.573 171.212 700.478 170.891 699.381 170.576C691.7 168.375 683.9 166.546 675.997 165.108C674.868 164.902 673.737 164.705 672.604 164.516C669.204 163.947 665.785 163.451 662.35 163.028C661.205 162.887 660.058 162.754 658.909 162.629C656.611 162.38 654.306 162.164 651.993 161.981C650.259 161.843 648.52 161.724 646.778 161.624C643.294 161.425 639.795 161.301 636.282 161.253L634.524 161.236ZM265.19 229.675C191.758 245.223 129.602 303.576 101.125 383.62L101.126 576.812C129.757 657.086 192.445 715.394 266.702 730.006H266.701L480.925 772.08C393.445 712.737 335.171 603.239 336.057 478.328C336.936 354.282 395.939 246.164 483.249 187.633L265.19 229.675ZM637.902 210.229C768.21 211.046 870.503 334.04 869.456 481.671C868.409 629.302 764.381 751.003 634.073 750.187C503.765 749.37 401.471 626.376 402.518 478.744C403.565 331.113 507.594 209.412 637.902 210.229ZM729.375 576.945C729.38 578.124 729.176 579.296 728.772 580.405C704.161 648.047 655.343 701.565 594.39 725.557C607.306 728.514 620.622 730.102 634.215 730.187C736.452 730.827 824.211 646.358 844.869 531.398L729.177 528.275L729.375 576.945ZM561.601 246.151C488.671 278.227 433.824 355.716 424.062 450.592C427.457 448.656 431.225 447.587 435.187 447.612C449.937 447.704 461.787 462.906 461.654 481.566C461.522 500.226 449.457 515.277 434.707 515.185C430.957 515.161 427.396 514.159 424.17 512.374C434.211 606.477 488.845 683.333 561.688 714.82C627.454 699.703 682.724 646.947 709.367 575.224L709.135 518.041C709.124 515.335 710.21 512.74 712.146 510.849C714.081 508.958 716.699 507.931 719.404 508.004L847.736 511.469C848.8 501.672 849.385 491.687 849.457 481.545C849.537 470.309 848.985 459.259 847.845 448.435L719.094 450.998C713.584 451.108 709.024 446.739 708.897 441.23L707.491 379.869C680.316 311.043 626.135 260.613 561.601 246.151ZM197.273 379.512C218.112 379.643 235.644 392.478 247.468 410.562C259.34 428.719 266.265 453.165 266.077 479.615C265.89 506.066 258.619 530.424 246.49 548.431C234.411 566.365 216.698 578.979 195.859 578.849C175.021 578.718 157.488 565.883 145.664 547.799C133.791 529.641 126.867 505.195 127.055 478.744C127.242 452.293 134.512 427.936 146.642 409.929C158.721 391.995 176.435 379.381 197.273 379.512ZM197.131 399.511C185.102 399.436 172.917 406.708 163.228 421.093C153.588 435.404 147.218 455.798 147.055 478.869C146.891 501.941 152.971 522.413 162.406 536.844C171.891 551.349 183.972 558.773 196.001 558.849C208.03 558.924 220.216 551.652 229.905 537.267C239.545 522.956 245.915 502.562 246.078 479.49C246.242 456.419 240.161 435.947 230.726 421.516C221.241 407.011 209.16 399.586 197.131 399.511ZM186.824 422.598C192.822 422.635 197.732 425.481 201.331 428.989C204.882 432.449 207.631 436.967 209.737 441.777C211.952 446.834 209.645 452.732 204.586 454.95C199.527 457.169 193.63 454.869 191.415 449.812C189.954 446.474 188.487 444.41 187.366 443.318C187.076 443.035 186.847 442.853 186.682 442.737C186.493 442.865 186.223 443.076 185.874 443.42C184.651 444.626 183.081 446.876 181.536 450.456C178.463 457.578 176.279 468.125 176.192 480.31C176.106 492.495 178.141 503.068 181.112 510.227C182.606 513.826 184.145 516.094 185.351 517.316C185.694 517.664 185.961 517.877 186.148 518.008C186.343 517.876 186.624 517.657 186.987 517.295C188.233 516.054 189.822 513.749 191.375 510.1C193.539 505.017 199.413 502.647 204.494 504.806C209.575 506.966 211.941 512.836 209.777 517.919C207.601 523.031 204.756 527.813 201.094 531.46C197.394 535.144 192.281 538.188 186.005 538.149C179.787 538.11 174.75 535.058 171.112 531.374C167.514 527.73 164.744 522.975 162.64 517.906C158.415 507.727 156.092 494.384 156.192 480.184C156.293 465.983 158.805 452.669 163.174 442.545C165.35 437.503 168.187 432.783 171.837 429.185C175.526 425.547 180.606 422.559 186.824 422.598ZM642.478 443.345C659.1 443.449 672.454 460.58 672.305 481.609C672.155 502.637 658.56 519.598 641.938 519.494C625.315 519.39 611.96 502.259 612.109 481.231C612.259 460.203 625.855 443.241 642.478 443.345ZM216 471C221.523 471 226 475.477 226 481C226 486.523 221.523 491 216 491H196C190.477 491 186 486.523 186 481C186 475.477 190.477 471 196 471H216ZM637.761 230.229C622.867 230.135 608.28 231.849 594.163 235.199C653.78 258.253 701.667 309.405 726.773 374.264C727.191 375.343 727.419 376.488 727.445 377.645L728.663 430.803L845.038 428.487C824.966 314.873 739.062 230.864 637.761 230.229Z" fill="black"/>
</svg>
