<svg height="960" viewBox="0 0 960 960" width="960" xmlns="http://www.w3.org/2000/svg"><path d="m504.126036 240.637441c-7.952663-1.137441-15.905326-1.137441-23.857989-1.137441-7.952662 0-17.04142 0-23.857988 1.137441l-24.994083-238.86255948c15.905326-1.13744076 32.946746-2.27488152 48.852071-2.27488152 15.905326 0 32.946746 1.13744076 48.852071 2.27488152zm-449.8934916 15.92417 212.4497046 112.606635c-3.408285 6.824645-6.816569 14.78673-10.224853 22.748816-3.408284 7.962085-5.680473 15.92417-7.952662 22.748815l-230.6272192-67.109005c4.5443787-15.924171 10.2248521-30.7109 15.9053254-46.635071 5.6804734-14.78673 12.4970415-29.57346 20.4497042-44.36019zm115.8816566-144.454976 154.508876 184.265403c-5.680473 5.687204-12.497041 11.374407-18.177515 17.061611-5.680473 5.687204-11.360947 11.374408-15.905325 18.199052l-188.591716-149.004739c10.224852-12.511848 20.449704-25.023697 32.946745-37.535545 11.360947-11.374408 22.721894-22.748815 35.218935-32.985782zm164.733728-90.9952606 70.43787 230.9004736c-7.952663 2.274882-15.905326 5.687204-22.721894 7.962086-7.952662 3.412322-14.76923 6.824644-21.585798 10.236966l-115.881657-210.4265398c14.76923-7.9620853 28.402367-14.7867299 44.307692-21.6113744 14.769231-6.8246446 30.674556-11.3744076 45.443787-17.0616114zm-94.295858 436.7772516c-1.136095 7.962085-1.136095 15.92417-1.136095 23.886256 0 7.962085 0 17.061611 1.136095 23.886255l-238.57988165 25.023697c-1.13609467-15.92417-2.27218935-32.985782-2.27218935-48.909952 0-15.924171 1.13609468-32.985782 2.27218935-48.909953zm127.242604 237.725118c6.816568 3.412322 14.76923 6.824645 21.585798 10.236967 7.952663 3.412322 15.905326 5.687204 22.721894 7.962085l-67.029586 230.900474c-15.905325-4.549763-30.674556-10.236967-46.579882-15.92417-14.76923-5.687204-29.538461-12.511849-44.307692-20.473934zm-72.71006-59.146919c5.680474 5.687203 11.360947 12.511848 17.041421 18.199052 5.680473 5.687204 11.360946 11.374407 18.177514 15.92417l-148.828402 188.815166c-12.497041-10.236967-24.994083-20.473933-37.491124-32.985782-11.360947-11.374407-22.721894-22.748815-32.946746-35.260663zm-43.171597-80.758294c2.272189 7.962085 5.680473 15.92417 7.952662 22.748815 3.408284 7.962085 6.816569 14.78673 10.224853 21.611374l-210.1775152 116.018958c-7.9526628-14.78673-14.7692308-28.436019-21.5857989-44.36019-6.816568-14.78673-11.3609467-30.7109-17.0414201-45.49763zm202.224852 162.654028c7.952663 1.137441 15.905325 1.137441 23.857988 1.137441s17.04142 0 23.857988-1.137441l24.994083 238.862559c-15.905325 1.137441-32.946746 2.274882-48.852071 2.274882s-32.946746-1.137441-48.852071-2.274882zm143.147929-29.573459 117.017751 209.289099c-14.76923 7.962085-28.402367 14.78673-44.307692 21.611374-14.769231 6.824645-30.674556 11.374408-45.443787 17.061612l-71.573964-229.763033c7.952662-2.274882 15.905325-5.687204 22.721893-7.962086 7.952663-3.412322 14.769231-6.824644 21.585799-10.236966zm70.43787-61.421801 188.591716 147.867298c-10.224852 12.511848-20.449705 25.023697-31.810651 37.535545-11.360947 11.374408-23.857988 22.748815-35.218935 32.985782l-155.644971-183.127962c5.680474-5.687204 12.497042-11.374407 18.177515-17.061611 5.680474-5.687204 11.360947-12.511849 15.905326-18.199052zm42.035503-81.895735 230.627219 67.109005c-4.544379 15.92417-10.224853 30.7109-15.905326 46.635071-5.680473 14.78673-12.497041 29.57346-20.449704 44.360189l-212.449704-113.744075c3.408284-6.824645 6.816568-14.78673 10.224852-21.611375 3.408284-7.962085 5.680473-14.78673 7.952663-22.748815zm9.088757-40.947867c1.136095-7.962086 1.136095-15.924171 1.136095-23.886256 0-7.962086 0-17.061612-1.136095-23.886256l238.579882-25.023697c1.136094 15.924171 2.272189 32.985782 2.272189 48.909953 0 15.92417-1.136095 32.985782-2.272189 48.909952zm179.502959-259.336493c7.952662 14.78673 14.76923 28.436019 21.585798 44.360189 6.816568 14.78673 11.360947 30.710901 17.041421 45.497631l-230.627219 70.521327c-2.27219-7.962086-5.680474-15.924171-7.952663-22.748815-3.408284-7.962086-6.816568-14.78673-10.224852-21.611375zm-122.698225-142.180095c12.497041 10.236967 24.994083 20.473934 37.491124 32.985782 11.360947 11.374408 22.721893 22.748815 32.946746 35.260664l-182.911243 154.691943c-5.680473-5.687204-11.360947-12.511849-17.04142-18.199053-5.680474-5.687203-11.360947-11.374407-18.177515-15.92417zm-163.597633-85.3080569c15.905325 4.5497631 30.674556 10.2369669 46.579881 15.9241706 14.769231 5.6872038 29.538462 12.5118484 44.307693 20.4739337l-112.473373 212.7014216c-6.816568-3.412322-14.769231-6.824644-22.721894-10.236967-7.952662-3.412322-15.905325-5.687203-22.721893-7.962085z" fill="#231815" fill-rule="evenodd"/></svg>