<svg height="960" viewBox="0 0 960 960" width="960" xmlns="http://www.w3.org/2000/svg"><path d="m634.296666 40c89.580983.6655084 171.899282 50.5484443 231.192394 135.021523 57.207791 81.502187 89.51094 190.15755 89.51094 305.478477 0 115.694617-32.513976 224.675518-90.055705 306.252377-59.530777 84.396731-142.083425 134.013169-231.807681 134.247623h-.636614c-6.702256 0-13.383914-.276562-20.03758-.827662l.95258.074662-264.96007-10.241282-.57193-.027718-3.644003-.036026c-187.784782-3.78604-335.23402858-192.354362-338.19364147-421.902347l-.04535553-7.039627c0-232.720038 148.538043-425.1173008 338.238997-428.941974l3.769003-.038026.307759-.0163927 263.154241-11.0896073.779909-.0686428c6.112467-.5116906 12.248789-.791677 18.403223-.8453572zm-1.868123 40.0000019-.089543.0009981-4.222558.046238c-.266037.0057373-.531984.0119959-.797841.0187751-1.217984.0278692-2.433531.0692009-3.647153.121375l3.647153-.121375c-1.662572.0423949-3.321638.1051516-4.977078.1881017-1.036935.0462311-2.071196.1054744-3.104011.1725732l3.104011-.1725732c-1.633214.0818364-3.262899.1833276-4.888942.3043119-.729472.0460144-1.456969.1037004-2.183726.1652782l2.183726-.1652782c-1.133887.0843659-2.266002.1782105-3.396308.2814792l-.188385.0074035c-147.449386 13.5252961-264.089737 187.2862966-264.089737 399.6526906 0 214.165809 118.625351 389.069233 267.844408 399.961911.526312.030949 1.052056.067556 1.578176.102123l-1.578176-.102123c1.559914.11387 3.123171.209817 4.689672.287698l-3.111496-.185575c1.491126.097968 2.985272.179548 4.48235.244615 1.205991.056243 2.414537.097334 3.624939.127641l-3.624939-.127641c1.484755.064532 2.972394.112821 4.462832.144746l-.837893-.017105c1.670285.041823 3.344104.063112 5.021338.063698l-4.183445-.046593c1.425151.030528 2.852861.046094 4.283054.046593l-.02848.000012c81.137334 0 154.288951-48.451452 205.83292-126.050914.041212-.046393.077053-.100402.112883-.154425l-.112883.154425c.963488-1.450532 1.919426-2.911248 2.867725-4.382023l-2.754842 4.227598c1.01744-1.534035 2.026443-3.079445 3.026906-4.63608l-.272064.408482c.949708-1.472961 1.891755-2.95601 2.826051-4.44902l-2.553987 4.040538c.997478-1.55199 1.986465-3.115139 2.966859-4.6893l-.412872.648762c.923788-1.47622 1.839999-2.962179 2.748545-4.457754l-2.335673 3.808992c.984984-1.58153 1.961293-3.174176 2.928822-4.777786l-.593149.968794c.926391-1.52495 1.844814-3.059898 2.755178-4.604714l-2.162029 3.63592c.950865-1.575991 1.893249-3.162572 2.827054-4.759602l-.665025 1.123682c.913527-1.550184 1.818938-3.110305 2.71614-4.680231l-2.051115 3.556549c.929577-1.589801 1.850652-3.189957 2.763124-4.800326l-.712009 1.243777c.889381-1.556239 1.770695-3.122114 2.643854-4.697496l-1.931845 3.453719c.925504-1.633368 1.842159-3.277243 2.749861-4.931479l-.818016 1.47776c.854632-1.541957 1.701451-3.093023 2.540372-4.653077l-1.722356 3.175317c.916273-1.669858 1.823424-3.350274 2.721347-5.041097l-.998991 1.86578c.829297-1.542159 1.650876-3.093101 2.464656-4.652711l-1.465665 2.786931c.901353-1.697284 1.793408-3.405056 2.676056-5.123162l-1.210391 2.336231c.823052-1.577381 1.638126-3.163629 2.445138-4.758624l-1.234747 2.422393c.86571-1.685137 1.722372-3.380217 2.569883-5.085095l-1.335136 2.662702c.822316-1.625245 1.636262-3.259572 2.441746-4.902854l-1.10661 2.240152c.843179-1.696163 1.6773-3.402024 2.502266-5.117443l-1.395656 2.877291c.796431-1.624812 1.58459-3.25838 2.364392-4.90058l-.968736 2.023289c.835923-1.738204 1.662444-3.486221 2.47946-5.243904l-1.510724 3.220615c.762629-1.606037 1.517264-3.22033 2.263824-4.842766l-.7531 1.622151c.818147-1.760116 1.626763-3.529925 2.425744-5.30928l-1.672644 3.687129c.758633-1.648672 1.508928-3.305753 2.2508-4.971121l-.578156 1.283992c.77726-1.730983 1.545401-3.470999 2.304328-5.219913l-1.726172 3.935921c.758526-1.702753 1.508246-3.414169 2.249071-5.134122l-.522899 1.198201c.778263-1.793474 1.546836-3.596305 2.305615-5.408345l-1.782716 4.210144c.709964-1.648303 1.411758-3.304445 2.105302-4.968314l-.322586.75817c.751208-1.793961 1.492818-3.59695 2.224727-5.408822l-1.902141 4.650652c.706287-1.69444 1.404018-3.396893 2.093109-5.107239l-.190968.456587c23.65801-58.566391 37.181654-126.415725 37.181654-198.743027 0-81.32279-17.096757-156.984478-46.472708-220.155334-.104387-.23015-.210633-.458013-.317037-.685712l.317037.685712c-.701503-1.508532-1.410009-3.009941-2.125451-4.504135l1.808414 3.818423c-.818763-1.752101-1.64699-3.494546-2.484577-5.227188l.676163 1.408765c-.735482-1.536043-1.478293-3.06446-2.228365-4.585151l1.552202 3.176386c-.825458-1.707552-1.660007-3.405583-2.50355-5.093954l.951348 1.917568c-.756542-1.53381-1.52047-3.059759-2.291711-4.577744l1.340363 2.660176c-.848358-1.698011-1.705812-3.38625-2.572261-5.064576l1.231898 2.4044c-.746523-1.469335-1.499896-2.931208-2.260055-4.385525l1.028157 1.981125c-.878627-1.701915-1.766504-3.393635-2.663525-5.075012l1.635368 3.093887c-.737678-1.411307-1.481744-2.815497-2.23214-4.212485l.596772 1.118598c-.890064-1.668334-1.78913-3.326486-2.697098-4.974309l2.100326 3.855711c-.793567-1.477361-1.594213-2.946668-2.401864-4.407818l.301538.552107c-.897457-1.628749-1.803611-3.247407-2.718362-4.855834l2.416824 4.303727c-.854109-1.545198-1.716054-3.081275-2.585749-4.60811l.168925.304383c-49.078751-86.29629-122.905545-143.1424209-206.201877-148.8874474l.001404-.0113047c-.003664-.0002513-.007328-.0005024-.010992-.0007535l.009588.0120582c-1.502022-.1035958-3.007122-.1905755-4.515213-.2608121l4.505625.2487539c-1.627258-.1115179-3.258129-.2035177-4.892498-.2758379l.386873.027084c-1.495446-.0696477-2.993833-.1228318-4.495071-.1594287l4.108198.1323447c-1.663802-.0736225-3.33123-.1268502-5.002163-.1595126l.893965.0271679c-1.640027-.0399801-3.283458-.0601642-4.930178-.0603909zm-102.239445 4.3644612-180.189098 7.6036702v.0318667c-167.894564 0-304 174.161232-304 389s136.105436 389 304 389v.03557l181.002818 7.001106c-118.042212-57.925495-201.224667-214.294787-201.224667-396.536676 0-181.822845 82.800358-337.891938 200.410947-396.1355369zm111.967788 23.9227709c147.471101 0 264.376899 161.994915 268.438158 361.478204.077091 3.56586.119221 7.143784.119221 10.734562s-.04213 7.168702-.12577 10.732823c-4.05471 199.485028-120.960508 361.479943-268.431609 361.479943-150.107648 0-268.547307-167.839114-268.547307-372.212766s118.439659-372.212766 268.547307-372.212766zm0 20c-137.268887 0-248.547307 157.691027-248.547307 352.212766s111.27842 352.212766 248.547307 352.212766c54.545227 0 104.986681-24.898677 145.973279-67.11309-33.093917 24.738483-71.137187 38.825856-111.888173 38.825856-131.288526 0-234.472272-146.220183-234.472272-323.925532s103.183746-323.925532 234.472272-323.925532c40.750986 0 78.794256 14.087373 111.884627 38.831045-40.983052-42.219602-91.424506-67.118279-145.969733-67.118279zm34.085106 48.287234c-118.449765 0-214.472272 136.072096-214.472272 303.925532s96.022507 303.925532 214.472272 303.925532c116.064378 0 210.5957-130.646735 214.356047-293.824158.072572-3.354182.106153-6.722221.106153-10.101374s-.033581-6.747192-.100295-10.103482c-3.766205-163.175315-98.297527-293.82205-214.361905-293.82205zm5.680851 36.808511c46.868747 0 89.08056 27.376726 121.580473 73.431879 35.969471 50.971813 56.083289 119.947326 56.083289 193.685142s-20.113818 142.713329-56.083289 193.685142c-32.499913 46.055153-74.711726 73.431879-121.580473 73.431879-46.868746 0-89.08056-27.376726-121.580473-73.431879-35.969471-50.971813-56.083289-119.947326-56.083289-193.685142s20.113818-142.713329 56.083289-193.685142c32.499913-46.055153 74.711727-73.431879 121.580473-73.431879zm0 20c-42.062381 0-78.30637 26.796708-105.23951 64.963268-32.896542 46.61721-52.424252 111.205447-52.424252 182.153753s19.52771 135.536543 52.424252 182.153753c26.93314 38.16656 63.177129 64.963268 105.23951 64.963268s78.306371-26.796708 105.23951-64.963268c32.896542-46.61721 52.424252-111.205447 52.424252-182.153753s-19.52771-135.536543-52.424252-182.153753c-26.933139-38.16656-63.177129-64.963268-105.23951-64.963268z"/></svg>