<svg height="960" viewBox="0 0 960 960" width="960" xmlns="http://www.w3.org/2000/svg"><path d="m373.896235 1.99847681 1.511822.0128907 256.646134 3.40088002c.901796.0119521 1.803494.03048454 2.705021.05559585 101.215398 2.81927492 181.404423 86.32399482 180.228072 187.45010962l-.056087 2.890614-14.398255 517.004403c-2.537454 91.111383-66.632255 168.831119-155.505405 188.702553l-2.424044.52552-237.555176 49.703763c-10.344536 2.16435-20.884824 3.255194-31.453333 3.255194-28.949848 0-56.76544-8.064628-80.781281-22.940699l-.255703-.159301-.4409-.151721c-4.859145-1.70234-9.431965-4.358114-13.42433-7.928056l-.372574-.337359-1.99815-1.83132-9.723025-8.888159-7.456875-6.788177-6.290051-5.704404-7.764974-7.011334-7.402069-6.647757-5.505994-4.918899-4.544333-4.040858-5.097273-4.50963-5.555607-4.883726-4.624813-4.036711-6.389926-5.532193c-17.599685-15.402614-30.444079-35.338791-38.914987-57.574025-6.758688-17.74084-10.442003-36.560354-10.442003-51.476107l-.001684-.217111-.039304-2.168268-.221036-10.014239-1.108937-46.969681-4.205359-172.996402-1.482296-61.852485-.457998-19.570415-1.005506-43.858657-.803141-36.295094-.389277-18.200097-.409884-19.79267-.40921-20.702041-.264854-14.171064-.262795-15.050659-.156885-9.765353-.153954-10.626199-.116115-9.425828-.056173-5.612382-.030889-3.854773-.026093-4.664784-.00818-3.140885v-2.256043c0-1.698841.017889-3.38003.039046-5.043966l.038132-2.483016c.051958-2.881873.130111-5.711526.234888-8.49111l.096339-2.370287.109439-2.346065.122599-2.322142.13582-2.298521c.2849-4.573619.649483-9.007315 1.095914-13.311916l.230046-2.141592c.118443-1.065468.242024-2.12298.370777-3.172706l.264412-2.089119c.904425-6.929461 2.039709-13.517876 3.41587-19.815386l.420084-1.880576c2.635207-11.543686 6.098241-22.108911 10.452527-32.013147l.671012-1.508552c.337295-.749456.677343-1.491801 1.020458-2.227571l.690408-1.462935c1.620922-3.393803 3.313145-6.652225 5.108423-9.829817l.775806-1.357035c3.25959-5.6350191 6.862265-11.0371356 10.988846-16.5169663l1.000531-1.3168106c.168463-.2197701.337787-.4397043.507983-.6598225l1.03175-1.323076c.521205-.6628009 1.050475-1.3276155 1.588123-1.9949805l1.086558-1.3382896 1.109453-1.3460449 1.132904-1.3547543 1.156911-1.3644181c.19485-.2282614.390723-.4569651.587631-.6861312l1.193962-1.3807028 1.219356-1.3927521 1.245308-1.4057556 1.271813-1.4197132c.214208-.2378351.429545-.4762914.64602-.715389l1.312614-1.4424389 1.340508-1.4587822 1.368959-1.4760796 1.397965-1.4943312c.235442-.2506292.472115-.5020587.710033-.7543082l2.175135-2.2929261 1.488314-1.5548115 1.519542-1.57688.771655-.7970138c29.967081-30.9051489 80.385718-47.26402172 151.673949-52.93704798l1.897714-.14786933c2.054997-.16012481 4.088516-.16146743 6.087856-.01387979l1.56609-.05043262c1.00436-.02711447 2.009748-.04449108 3.01606-.05809027zm386.951311 341.80100019-7.279 1.411-10.223299 367.085033c-.844035 30.304156-11.776018 59.054509-30.77779 82.099351l-.578279.696578c-19.358174 23.160764-45.944768 39.279594-75.978559 45.562786l-220.438085 44.696332c-53.619556 11.21778-106.698572-21.270002-121.102839-74.122764-2.35447-8.639187-3.559823-16.12394-3.559823-22.549449v-344.6673l.001674-70.301567h-20.897l.000126 427.817519c0 56.646461 45.461819 102.674745 101.890252 103.589646l1.713274.01388c7.128578 0 14.238121-.735732 21.215635-2.195502l237.30464-49.646649c67.535847-14.129216 116.545166-72.765598 118.466162-141.736861zm-27.34 3.336-422.592 25.712-.005674 415.830876c0 4.292142.87209 9.85054 2.667062 16.589236l.188981.701313c11.62199 42.643913 54.448467 68.856479 97.771662 59.793002l220.438085-44.696331c25.538673-5.342961 48.173529-19.065944 64.667856-38.800306 16.494327-19.734363 25.983058-44.445108 26.709482-70.526583zm-546.277 5.566.277239 12.708653.605955 27.236736.641622 28.132885.838598 35.973343.86298 36.32825 1.215974 50.350072 3.839094 156.564795.47915 20.047062.293875 12.725136.162379 7.416423.078531 3.861533.053453 2.951972c.020271 1.242401.03072 2.129779.03072 2.641227l.002645.517917c.174872 17.303471 9.054323 55.497687 36.220227 78.885484l1.242179 1.070698 4.487924 3.888289 3.339272 2.911492 4.154102 3.641345 5.049099 4.451686 4.501497 3.990114 3.873725 3.448059 2.527063 2.262005c-7.688753-16.107803-11.993177-34.141054-11.993177-53.179657l-.000126-427.817519-2.316705.000766c-1.020354 0-2.033936-.15616-3.005682-.462397l-.362375-.121862zm123.590374-303.4508971-.063958.015544c-34.342948 7.1351795-58.974884 18.3967677-73.895807 33.7847648l-1.949421 2.0170428-1.916359 1.9983186c-30.395837 31.8392879-47.995375 57.6393869-47.995375 132.6456309 0 5.469206.05689 12.685831.162704 21.384287l.102494 7.812522.125343 8.501148c.022733 1.472179.046371 2.971502.070891 4.497195l.157527 9.464401.177588 10.06011.196536 10.618653.214369 11.140026.231088 11.624235.341208 16.590823c.368294.075545.735899.172611 1.101308.291911l.269419.09215 61.281525 21.920658.582546-.000523.000126-199.161811.054497-2.494952c1.293455-43.886906 25.398022-81.9074523 60.751751-102.8021341zm62.456872 2.8804227c-56.435602.1670664-102.503384 45.5895278-103.25512 102.2965904l-.008.225182-.000126 199.056702h20.897l.003452-122.04119.004804-36.62615c.831496-62.741899 46.438493-115.9000134 108.324718-126.25999.504221-.0844099 1.001592-.165159 1.492167-.2422325l1.451396-.2201792c.47704-.0697077.94734-.135725 1.410956-.1980372l1.370847-.1758063c3.152107-.3842098 5.979366-.5861427 8.500724-.60338h2.632607l2.609526.0103576 5.854009.043949 9.934687.1048051 17.461939.2242799 22.281898.3209185 39.821167.6201067 55.966406.9227153 68.916123 1.1795522.885036.0214191c32.59576.9078608 62.808907 14.6908139 84.771636 37.9120108 21.962729 23.221197 34.042619 54.154679 33.134758 86.750439l-3.601856 129.273412 7.279-1.411 3.582244-128.606412c2.061327-74.009703-55.660486-135.8008762-129.352038-139.0496051l-2.23792-.0804793c-.658441-.0183389-1.317007-.0318733-1.975646-.040602l-256.362079-3.397806zm42.812038 35.2114982h-2.50724l-.741172.0148113c-1.524923.0415286-3.304767.1829005-5.329609.4269166l-1.032791.1305747c-.17552.0231924-.352729.0471008-.531622.0717269l-1.093524.1563816c-.185607.0275033-.372887.0557275-.561833.0846742l-1.153637.1823637-.591734.0977089c-52.347706 8.7631944-90.925284 53.7280343-91.628622 106.7995073l-.0025 157.502311 423.151-25.744 3.681609-132.169239c.751077-26.966595-9.11842-52.52873-27.124765-71.866608l-.548135-.584086c-18.354013-19.405701-43.559088-30.9040183-70.798073-31.6626817-.492723-.0137234-.985539-.0238514-1.478409-.0303832l-58.092965-.9966631-57.816173-.9600394-39.31619-.6208077-29.072295-.4261409-17.829159-.2322771-11.169651-.119781-5.823112-.0439287z"/></svg>