<svg height="960" viewBox="0 0 960 960" width="960" xmlns="http://www.w3.org/2000/svg"><g fill="#000" fill-rule="nonzero"><path d="m213.227977 52.4656472c-.151907 1.6783496-.227977 3.3627008-.227977 5.0479109v844.3750819c0 30.927946 25.072054 56 56 56 1.609474 0 3.218201-.069386 4.821698-.207964l422.113593-36.480194c28.951102-2.502032 51.178302-26.733019 51.178302-55.792035v-769.6895002c0-28.9718862-22.098147-53.1604609-50.952089-55.7720235l-422.113593-38.20538856c-30.494018-2.76000539-57.487093 19.47042506-60.728986 49.80249636zm39.837159 3.6056507c.786942-8.6945512 8.390086-15.1324555 17.059486-14.5182303l.317638.0256267 422.113594 38.2053886c8.134063.7362119 14.389029 7.4739842 14.557739 15.6044968v.3303671 769.6895002c0 8.191875-6.182407 15.040853-14.292537 15.908687l-.329835.031894-422.113593 36.480194c-.458142.039594-.917778.059418-1.377628.059418-8.731359 0-15.829205-6.993901-16-15.685129v-.314871-844.3750819c0-.4814886.021734-.9627318.065136-1.4422602z"/><path d="m395.541169 262.362503c1.331064-24.020672 21.690501-42.470505 45.640218-41.532524l.726832.034372 168.004089 9.309657c13.641568.755924 24.34552 11.932814 24.558235 25.546888l.003227.413285v11.57712c0 5.522848-4.477153 10-10 10-5.42924 0-9.847932-4.326671-9.996158-9.720095l-.003842-.279905v-11.57712c0-3.108904-2.371103-5.689056-5.442098-5.974076l-.225932-.016733-168.004089-9.309656c-13.23453-.733369-24.557749 9.400825-25.291118 22.635355-.016336.294802-.02723.589868-.032677.885047l-.004086.442835v433.906867c0 13.254834 10.745166 24 24 24l.570054-.006771.569733-.020309 168.14516-7.994421c3.123139-.148489 5.594868-2.666083 5.710799-5.765436l.004254-.227794v-11.639781c0-5.522847 4.477152-10 10-10 5.42924 0 9.847932 4.326671 9.996158 9.720096l.003842.279904v11.639781c0 13.74056-10.684597 25.082629-24.350217 25.947665l-.415014.022998-168.14516 7.994421c-.696045.033093-1.392778.049647-2.089609.049647-24.057524 0-43.605551-19.307452-43.994105-43.27238l-.005895-.72762v-433.906867c0-.81195.022475-1.623744.067399-2.43445z"/><path d="m422.815271 270.658242c-.027166.4846-.040757.969866-.040757 1.455227v419.293867c0 14.359404 11.640597 26 26 26 .416549 0 .833038-.01001 1.249106-.030022l162-7.791887c13.857783-.666532 24.750894-12.096174 24.750894-25.969977v-402.420561c0-13.794046-10.772349-25.187187-24.544772-25.959243l-162-9.081421c-14.193526-.795662-26.365087 9.948883-27.386928 24.074928zm26.295065-4.535368 162 9.08142c3.178252.178167 5.664178 2.807354 5.664178 5.990595v402.420561c0 3.201647-2.513795 5.839256-5.711744 5.993072l-162 7.791886c-.096016.006928-.192129.006928-.288256.006928-3.313708 0-6-2.686291-6-6v-419.293867c0-.112007.003137-.223991.009406-.335822.185469-3.308514 3.017902-5.840242 6.326416-5.654773z"/></g></svg>