<svg height="960" viewBox="0 0 960 960" width="960" xmlns="http://www.w3.org/2000/svg"><path d="m482.591354 5c68.973937.12776663 133.876359 6.4770084 183.265457 17.7353482l2.501972.5775794c2.902686.6786017 5.748292 1.3738819 8.535838 2.086068l2.375083.6145906c.78694.2062472 1.569117.4138797 2.346508.6229029l2.317796.6312469c18.043253 4.9775309 33.431148 10.7259862 45.866838 17.3141682 10.07677 5.3384736 18.566708 11.3807471 25.400492 18.5940221 9.522444 10.0512397 15.684886 22.2548163 16.667189 36.2777877.032821.468539.057387.93762.073686 1.407024l-.010213-.216738.023316.411115c.019787.421021.033051.843687.044684 1.267895v723.07219c0 .61085-.010007 1.221225-.029982 1.830951l-.034018.815849.03139.810357c.010866.357687.019018.715515.024454 1.073463l.008156 1.07418c0 25.353551-12.956731 47.256784-34.440625 64.827543-16.724409 13.678179-39.111718 25.141278-66.145341 34.49287-51.369073 17.769818-119.098674 27.679587-190.914034 27.679587s-139.544961-9.909769-190.914034-27.679587c-27.033623-9.351592-49.420932-20.814691-66.145341-34.49287-21.483894-17.570759-34.440625-39.473992-34.440625-64.827543 0-.716005.010868-1.431582.032577-2.146585l.032423-.860415-.010139-.261386-.033694-1.035285c-.01411-.433566-.021167-.867333-.021167-1.301129l.00084-722.801267.005877-.366503c.264416-14.4260985 6.094389-27.2092174 15.563626-37.7234025 6.767502-7.5143084 15.27108-13.7679498 25.416427-19.2725423 12.190825-6.6144147 27.293303-12.3855127 45.028773-17.3917247l2.278384-.6349418c.382108-.1051332.765402-.2099215 1.14988-.3143659l2.321052-.6225445c4.28123-1.1337859 8.70506-2.2261315 13.267919-3.2780423 50.013274-11.5299432 116.187876-17.989866 186.467222-17.989866zm247.828013 835.808545-.403566.281852c-14.237146 9.888979-36.253507 18.172918-64.693522 25.060734-28.887863 6.996279-63.657307 12.213157-101.727289 15.314923l-3.882801.308129c-25.310856 1.955277-52.025631 2.981396-79.39885 2.981396-27.37322 0-54.087995-1.026119-79.39885-2.981396l-3.882801-.308129c-38.069983-3.101766-72.839426-8.318644-101.72729-15.314923-28.382668-6.873928-50.367562-15.138353-64.607303-25.000932 14.530592 43.266749 120.829385 76.849801 249.802905 76.849801 129.313362 0 235.832345-33.760266 249.919367-77.191455zm1.582657-727.94594c-12.647169 12.454705-37.366222 22.388307-71.732115 30.357209-30.955766 7.178149-68.855731 12.345044-110.342847 15.082548l-3.839671.24578-3.85946.231908-3.878664.217961c-18.792336 1.019657-38.237024 1.548052-58.035928 1.548052-19.798905 0-39.243592-.528395-58.035929-1.548052l-3.878664-.217961-3.85946-.231908-3.839671-.24578c-41.487115-2.737504-79.387081-7.904399-110.342847-15.082548-34.029104-7.890807-58.599523-17.707992-71.356809-29.991764l.000753 691.826533c1.789 1.754136 2.921639 4.175236 2.995446 6.86083l.003842.279905c0 2.741588 2.160394 6.184247 6.829969 9.997035l.652346.522189c.333982.262211.679703.526072 1.037272.791479l.730969.532844c1.244723.891405 2.621918 1.799208 4.13568 2.719526l.924678.553661.95765.556477c3.148426 1.802775 6.7046 3.575414 10.646091 5.308748l1.407077.610117c1.423003.608456 2.893676 1.211881 4.411031 1.809872l1.53288.596165c.258062.099054.517411.197953.778043.296696l1.579152.590562c2.657459.981091 5.44231 1.946154 8.349988 2.893322l1.759309.566138c.295662.093994.592544.187805.89064.281431l1.803116.559528 1.832045.55501 1.860757.550401 1.889249.545704 1.917522.540915 1.945576.536039 1.97341.531072 2.001025.526015 2.028422.520869 2.055599.515634 2.082556.510308c26.960163 6.529415 59.446364 11.477306 95.121543 14.525204l3.76696.313801c25.819994 2.096159 53.247507 3.203499 81.412784 3.203499 28.165276 0 55.592789-1.10734 81.412784-3.203499l3.766959-.313801c35.675179-3.047898 68.16138-7.995789 95.121543-14.525204l2.082557-.510308 2.055598-.515634 2.028422-.520869 2.001025-.526015 1.973411-.531072 1.945575-.536039c.643862-.179497 1.283048-.359807 1.917522-.540915l1.889249-.545704 1.860757-.550401c.615479-.18424 1.226173-.369248 1.832046-.55501l1.803115-.559528c.298096-.093626.594978-.187437.89064-.281431l1.75931-.566138c.872303-.284151 1.733552-.569912 2.583623-.857233l1.685202-.576707c9.742985-3.376086 17.953384-6.959948 24.435436-10.671542l.957651-.556477c1.882263-1.110201 3.56669-2.203501 5.060357-3.273187l.73097-.532844c5.721106-4.246512 8.408911-8.097293 8.516235-11.122694l.003351-.188009c0-2.980968 1.304339-5.65729 3.373428-7.489382zm-251.502024-67.862605c-95.998037 0-179.433876 12.4489625-221.817748 30.7526317-.380383.1829072-.759421.3654222-1.13371.54832l-1.178352.5849865c-.968465.4885484-1.903119.9797163-2.803404 1.4732842-.311065.1705368-.616768.3405965-.917145.5101441l-.885187.5070714c-.14488.0842441-.288437.1683515-.430676.2523177l-.83765.5020684c-.273967.1667682-.542697.3329367-.806224.4984705l-.775011.4946627-.74401.4906447c-.485721.3257105-.950917.6486024-1.395871.9683956l-.652285.4773309c-.318588.2374684-.62587.4731151-.921965.7068218l-.57731.464792c-.281233.2310678-.55136.4601169-.810499.6870292l-.503665.4509405-.474579.4450323-.445706.4389142c-2.300481 2.3241871-3.378113 4.3783709-3.378113 6.0191731 0 1.6408023 1.077632 3.6949861 3.378113 6.0191732l.445706.4389141.474579.4450324.503665.4509405c.259139.2269123.529266.4559613.810499.6870293l.57731.464792c.296095.233707.603377.469353.921965.706822l.652285.477331c.222477.159896.450015.320567.682648.481978l.713223.486417.74401.490645.775011.494663c.263527.165533.532257.331702.806224.49847l.83765.502068c.142239.083967.285796.168074.430676.252318l.885187.507072c.300377.169547.60608.339607.917145.510144.900285.493568 1.834939.984735 2.803404 1.473284l1.178352.584986c1.990848.972835 4.116044 1.934841 6.371113 2.88426l1.368591.568127c.461368.188863.927894.377208 1.399545.565022l1.430285.561833c.481861.186737.968809.372928 1.46081.558559l1.49112.555201c.251034.092249.503322.184354.75686.276315l1.536183.550006c.258517.091372.518275.182596.77927.27367l1.580762.544621c1.063683.361858 2.146999.721253 3.249664 1.078071l1.668472.533283c.841455.265661 1.693713.529841 2.556652.792493l1.740086.523254c.584752.173729 1.174216.346765 1.768356.519094l1.79641.514851 1.824251.510523 1.851876.506111 1.879287.501615c.630973.166446 1.26648.332129 1.906483.497034l1.933463.492369 1.96023.48762c.328923.080869.658953.161537.990085.242002l1.999976.480338 2.026206.475377c17.489171 4.05546 37.367943 7.456034 58.962537 10.113827l3.423833.413465c1.145966.135756 2.296586.269442 3.451762.401044l3.479101.388545c5.820957.637115 11.75337 1.22183 17.784961 1.752544l3.630758.311935c13.355697 1.119906 27.179528 1.976892 41.340745 2.553901l3.870417.150412c12.928618.478148 26.126244.72363 39.494647.72363 13.368402 0 26.566029-.245482 39.494647-.72363l3.870417-.150412c14.161217-.577009 27.985048-1.433995 41.340744-2.553901l3.630758-.311935c6.031591-.530714 11.964005-1.115429 17.784961-1.752544l3.479101-.388545c24.258708-2.763648 46.507996-6.445985 65.838132-10.928336l2.026206-.475377 1.999976-.480338c.331132-.080465.661162-.161133.990085-.242002l1.96023-.48762 1.933464-.492369 1.906482-.497034 1.879287-.501615 1.851876-.506111c.30635-.084722.611549-.169627.915592-.254715l1.810358-.512698c.598806-.171618 1.192955-.34395 1.78241-.516983l1.754247-.521184 1.72587-.525302c.855806-.263665 1.700889-.528843 2.535129-.795486l1.653988-.535225c.819729-.268575 1.628535-.538583 2.426297-.809976l1.580763-.544621c.260994-.091074.520752-.182298.77927-.27367l1.536183-.550006c.507075-.183921 1.009152-.368422 1.506195-.553491l1.475992-.55689c1.217349-.465469 2.403013-.934392 3.556433-1.406549l1.36859-.568127c2.255069-.949419 4.380265-1.911425 6.371113-2.88426l1.178352-.584986c.968465-.488549 1.90312-.979716 2.803404-1.473284.311065-.170537.616768-.340597.917145-.510144l.885188-.507072c.144879-.084244.288437-.168351.430676-.252318l.837649-.502068c1.643803-1.000609 3.099051-1.979631 4.373402-2.929504l.622136-.472473.592199-.467405c4.041111-3.2536053 5.897501-6.1192726 5.897501-8.2728255s-1.85639-5.0192202-5.897501-8.2728255l-.592199-.4674048-.622136-.4724728c-1.274351-.9498737-2.729599-1.9288955-4.373402-2.9295044l-.837649-.5020684c-.142239-.0839662-.285797-.1680736-.430676-.2523177l-.885188-.5070714c-.300377-.1695476-.60608-.3396073-.917145-.5101441-.900284-.4935679-1.834939-.9847358-2.803404-1.4732842l-1.178352-.5849865c-.796339-.3891341-1.614174-.7765354-2.453218-1.1620915l-1.274438-.5769363c-.455964-.2033824-.917848-.4062305-1.385609-.6085277-43.574009-17.3157482-124.647687-28.9533962-217.46487-28.9533962zm-.5 37.1695775c21.170915 0 38.333333 4.4771525 38.333333 10s-17.162418 10.0000005-38.333333 10.0000005-38.333333-4.477153-38.333333-10.0000005 17.162418-10 38.333333-10z"/></svg>