<svg width="960" height="960" viewBox="0 0 960 960" fill="none" xmlns="http://www.w3.org/2000/svg">
<path d="M577 9C785.82 9 947 225.627 947 481.5C947 737.373 785.82 954 577 954C447.018 954 334.86 869.128 269.458 744.535L246.088 739.271C245.964 739.244 245.839 739.214 245.716 739.184C244.225 738.818 242.742 738.426 241.266 738.015C240.639 738.653 239.968 739.254 239.251 739.81C234.362 743.597 227.996 744.91 222.008 743.366L118.008 716.554C109.174 714.276 103.001 706.309 103.001 697.187V681.571C54.6006 661.219 18.1371 610.64 1.91113 552.362C0.23432 546.34 1.47045 539.879 5.25195 534.9C8.52987 530.585 13.3941 527.814 18.7031 527.152V433.915C13.3366 433.295 8.40932 430.521 5.09473 426.173C1.31197 421.21 0.0624822 414.766 1.71582 408.749C17.8733 349.949 54.3171 299.395 103 279.133L103.001 262.813C103.001 253.691 109.174 245.724 118.008 243.446L222.008 216.634C227.996 215.09 234.362 216.403 239.251 220.19C240.108 220.854 240.901 221.583 241.629 222.364C242.765 222.045 243.906 221.74 245.051 221.448L245.696 221.295C245.912 221.247 246.129 221.203 246.346 221.163L270.384 216.704C335.911 93.0764 447.631 9.00021 577 9ZM577 49C574.63 49 572.266 49.0357 569.906 49.1016C481.063 51.6112 399.08 101.137 339.951 180.863C325.769 200.068 312.883 221.05 301.507 243.595C301.188 244.226 300.837 244.834 300.458 245.422C266.801 312.746 247 393.52 247 481.5C247 568.912 266.546 649.212 299.809 716.273C300.191 716.869 300.544 717.487 300.864 718.126C312.416 741.195 325.546 762.64 340.024 782.234C399.148 861.903 481.1 911.389 569.907 913.897C572.266 913.963 574.631 914 577 914C586.028 914 594.99 913.514 603.869 912.559C605.235 912.412 606.6 912.254 607.962 912.085C608.643 912 609.323 911.913 610.003 911.823C611.363 911.643 612.721 911.452 614.077 911.25C628.993 909.028 643.654 905.483 657.979 900.698C659.933 900.046 661.88 899.37 663.82 898.672C665.114 898.206 666.405 897.731 667.693 897.245C670.27 896.274 672.834 895.262 675.387 894.21C676.663 893.684 677.936 893.148 679.206 892.603C680.476 892.057 681.744 891.502 683.008 890.937C685.535 889.806 688.05 888.636 690.552 887.427C693.679 885.916 696.786 884.344 699.871 882.713C700.488 882.387 701.104 882.058 701.72 881.727C702.95 881.065 704.178 880.393 705.401 879.712C707.237 878.69 709.064 877.648 710.884 876.584C713.31 875.166 715.722 873.71 718.118 872.218C718.717 871.845 719.316 871.469 719.913 871.091C721.108 870.335 722.298 869.571 723.485 868.797C724.672 868.023 725.856 867.24 727.035 866.448C728.214 865.656 729.389 864.855 730.561 864.045C731.146 863.64 731.732 863.233 732.315 862.823C734.067 861.595 735.809 860.346 737.542 859.077C739.275 857.808 740.998 856.519 742.713 855.211C743.856 854.339 744.995 853.457 746.13 852.567C746.697 852.122 747.264 851.676 747.829 851.227C748.959 850.328 750.085 849.421 751.207 848.505C752.89 847.131 754.563 845.738 756.227 844.326C757.89 842.914 759.543 841.482 761.187 840.031C762.282 839.064 763.373 838.089 764.46 837.105C765.546 836.122 766.628 835.129 767.705 834.129C771.476 830.627 775.19 827.024 778.845 823.322C779.889 822.264 780.929 821.199 781.964 820.125C782.481 819.588 782.997 819.049 783.512 818.508C787.631 814.18 791.671 809.725 795.629 805.146C797.113 803.43 798.585 801.695 800.046 799.943C801.02 798.776 801.989 797.601 802.952 796.418C804.879 794.052 806.783 791.655 808.667 789.229C809.609 788.016 810.546 786.796 811.477 785.568C811.942 784.954 812.406 784.338 812.869 783.721C814.72 781.25 816.548 778.75 818.354 776.222C820.612 773.061 822.835 769.855 825.021 766.605C826.771 764.005 828.497 761.377 830.199 758.721C831.05 757.393 831.895 756.058 832.734 754.716C833.574 753.374 834.407 752.025 835.234 750.67C835.648 749.992 836.06 749.312 836.471 748.631C837.292 747.269 838.107 745.899 838.916 744.523C839.32 743.836 839.724 743.146 840.125 742.455C840.928 741.072 841.725 739.683 842.516 738.287C843.306 736.891 844.091 735.489 844.869 734.08C845.647 732.671 846.419 731.256 847.185 729.834C847.95 728.412 848.709 726.983 849.462 725.548C850.967 722.678 852.447 719.782 853.9 716.861C856.081 712.48 858.204 708.043 860.266 703.55C860.953 702.052 861.634 700.548 862.308 699.038C866.014 690.734 869.516 682.247 872.804 673.588C873.7 671.226 874.582 668.852 875.446 666.465C877.175 661.691 878.839 656.866 880.438 651.992C880.97 650.368 881.496 648.738 882.014 647.103C883.568 642.197 885.055 637.243 886.474 632.243C887.419 628.91 888.335 625.556 889.22 622.182C891.873 612.059 894.249 601.755 896.334 591.284C896.855 588.666 897.358 586.038 897.843 583.399C898.489 579.882 899.102 576.346 899.683 572.792C900.263 569.238 900.811 565.666 901.324 562.077C901.838 558.488 902.317 554.882 902.763 551.26C903.32 546.731 903.824 542.176 904.273 537.597C904.453 535.765 904.624 533.929 904.786 532.089C904.948 530.249 905.102 528.405 905.247 526.558C905.464 523.786 905.662 521.006 905.839 518.218C906.016 515.429 906.173 512.632 906.311 509.826C906.448 507.02 906.565 504.206 906.661 501.384C906.725 499.503 906.781 497.618 906.827 495.729C906.85 494.785 906.87 493.84 906.889 492.894C906.963 489.11 907 485.312 907 481.5C907 477.688 906.963 473.89 906.889 470.106C906.87 469.16 906.85 468.215 906.827 467.271C906.781 465.382 906.725 463.497 906.661 461.616C906.565 458.794 906.448 455.98 906.311 453.174C906.173 450.368 906.016 447.571 905.839 444.782C905.662 441.994 905.464 439.214 905.247 436.442C905.102 434.595 904.948 432.751 904.786 430.911C904.624 429.071 904.453 427.235 904.273 425.403C903.824 420.824 903.32 416.269 902.763 411.74C902.317 408.118 901.838 404.512 901.324 400.923C900.811 397.334 900.263 393.762 899.683 390.208C899.102 386.654 898.489 383.118 897.843 379.601C897.358 376.962 896.855 374.334 896.334 371.716C894.249 361.245 891.873 350.941 889.22 340.818C888.335 337.444 887.419 334.09 886.474 330.757C885.055 325.757 883.568 320.803 882.014 315.897C881.496 314.262 880.97 312.632 880.438 311.008C878.839 306.134 877.175 301.309 875.446 296.535C874.582 294.148 873.7 291.774 872.804 289.412C869.516 280.753 866.014 272.266 862.308 263.962C861.634 262.452 860.953 260.948 860.266 259.45C858.204 254.957 856.081 250.52 853.9 246.139C852.447 243.218 850.967 240.322 849.462 237.452C848.709 236.017 847.95 234.588 847.185 233.166C846.419 231.744 845.647 230.329 844.869 228.92C844.091 227.511 843.306 226.109 842.516 224.713C841.725 223.317 840.928 221.928 840.125 220.545C839.724 219.854 839.32 219.164 838.916 218.477C838.107 217.101 837.292 215.731 836.471 214.369C836.06 213.688 835.648 213.008 835.234 212.33C834.407 210.975 833.574 209.626 832.734 208.284C831.895 206.942 831.05 205.607 830.199 204.279C828.497 201.623 826.771 198.995 825.021 196.395C822.835 193.145 820.612 189.939 818.354 186.778C816.548 184.25 814.72 181.75 812.869 179.279C812.406 178.662 811.942 178.046 811.477 177.432C810.546 176.204 809.609 174.984 808.667 173.771C806.783 171.345 804.879 168.948 802.952 166.582C801.989 165.399 801.02 164.224 800.046 163.057C798.585 161.305 797.113 159.57 795.629 157.854C791.671 153.275 787.631 148.82 783.512 144.492C782.997 143.951 782.481 143.412 781.964 142.875C780.929 141.801 779.889 140.736 778.845 139.678C775.19 135.976 771.476 132.373 767.705 128.871C766.628 127.871 765.546 126.878 764.46 125.895C763.373 124.911 762.282 123.936 761.187 122.969C759.543 121.518 757.89 120.086 756.227 118.674C754.563 117.262 752.89 115.869 751.207 114.495C750.085 113.579 748.959 112.672 747.829 111.773C747.264 111.324 746.697 110.878 746.13 110.433C744.995 109.543 743.856 108.661 742.713 107.789C740.998 106.481 739.275 105.192 737.542 103.923C735.809 102.654 734.067 101.405 732.315 100.177C731.732 99.7671 731.146 99.3602 730.561 98.9551C729.389 98.1451 728.214 97.3437 727.035 96.5518C725.856 95.7597 724.672 94.977 723.485 94.2031C722.298 93.4293 721.108 92.6647 719.913 91.9092C719.316 91.5313 718.717 91.1555 718.118 90.7822C715.722 89.2896 713.31 87.8343 710.884 86.416C709.064 85.3523 707.237 84.3095 705.401 83.2881C704.178 82.6071 702.95 81.9355 701.72 81.2734C701.104 80.9424 700.488 80.6134 699.871 80.2871C696.786 78.6559 693.679 77.0842 690.552 75.5732C688.05 74.3645 685.535 73.1941 683.008 72.0635C681.744 71.498 680.476 70.9432 679.206 70.3975C677.936 69.8518 676.663 69.3158 675.387 68.79C672.834 67.7384 670.27 66.7264 667.693 65.7549C666.405 65.2692 665.114 64.7936 663.82 64.3281C661.88 63.6299 659.933 62.9541 657.979 62.3018C643.654 57.5174 628.993 53.9721 614.077 51.75C612.721 51.548 611.363 51.3568 610.003 51.1768C609.323 51.0868 608.643 50.9995 607.962 50.915C606.6 50.746 605.235 50.5883 603.869 50.4414C599.088 49.9272 594.283 49.5483 589.456 49.3086C586.009 49.1374 582.55 49.0375 579.082 49.0088C578.388 49.003 577.694 49 577 49ZM598 117C757.092 117 882 282.741 882 481.5C882 680.259 757.092 846 598 846C438.908 846 314 680.259 314 481.5C314 282.741 438.908 117 598 117ZM598 137C525.299 137 458.527 175.902 410.324 239.346C448.323 204.005 495.188 183 546.5 183C677.166 183 779 319.214 779 481.5C779 643.786 677.166 780 546.5 780C495.188 780 448.323 758.994 410.324 723.653C458.527 787.097 525.299 826 598 826C741.56 826 862 674.31 862 481.5C862 288.69 741.56 137 598 137ZM546.5 203C431.4 203 334 325.118 334 481.5C334 637.882 431.4 760 546.5 760C661.6 760 759 637.882 759 481.5C759 325.118 661.6 203 546.5 203ZM237 694.124C242.932 696.718 248.969 698.784 255.089 700.296L272.234 704.158C256.659 668.601 244.699 630.049 237 589.336V694.124ZM143 278.311V289.503L154.185 287.158C157.133 286.54 160.203 287.283 162.541 289.182C164.879 291.08 166.237 293.933 166.237 296.945V663.055C166.237 666.067 164.879 668.919 162.541 670.818C160.203 672.717 157.133 673.46 154.185 672.842L143.001 670.495V681.689L211.221 699.277C212.588 697.521 214.257 695.981 216.183 694.743C216.452 694.57 216.725 694.406 217 694.247V266.387C216.747 266.241 216.495 266.091 216.247 265.933C214.102 264.565 212.272 262.824 210.82 260.825L143 278.311ZM55.1201 558.418C54.4479 559.384 53.6885 560.297 52.8447 561.141C51.4719 562.513 49.9191 563.665 48.2432 564.574C66.0598 608.509 96.3117 639.171 128.396 648.159C129.137 648.367 129.859 648.616 130.559 648.901C133.046 648.489 135.662 648.522 138.311 649.077L144.187 650.309C127.348 625.007 114.217 595.216 105.914 562.772L55.1201 558.418ZM146.237 348.219C127.43 386.118 116.168 431.727 115.827 479.77C115.478 529.067 126.861 575.661 146.237 614.069V348.219ZM191 500C195.418 500 199 510.745 199 524C199 537.255 195.418 548 191 548C186.582 548 183 537.255 183 524C183 510.745 186.582 500 191 500ZM58.7031 422.131V538.65L101.391 542.311C97.6133 522.115 95.676 501.091 95.8281 479.644C95.9778 458.549 98.1119 437.842 101.998 417.922L58.7031 422.131ZM191 412C195.418 412 199 422.745 199 436C199 449.255 195.418 460 191 460C186.582 460 183 449.255 183 436C183 422.745 186.582 412 191 412ZM138.311 310.923C136.121 311.382 133.954 311.481 131.863 311.27C130.747 311.821 129.567 312.276 128.332 312.617C96.0122 321.557 65.7636 352.105 48.0117 396.344C50.7731 397.799 53.1523 399.881 54.9609 402.4L106.698 397.37C115.275 364.765 128.62 334.799 145.64 309.385L138.311 310.923ZM254.343 260.361C248.48 261.893 242.692 263.943 237 266.491V373.663C244.841 332.201 257.101 292.98 273.098 256.882L254.343 260.361Z" fill="black"/>
</svg>
