<svg height="960" viewBox="0 0 960 960" width="960" xmlns="http://www.w3.org/2000/svg"><path d="m188.299645-3.87405557 625.330126 49.74063077c36.912413 2.9361239 65.370229 33.7474453 65.370229 70.7761048l.002 288.60732.040537.079899c11.14624 22.093078 16.699133 46.982206 15.877833 72.535769l-.034254.970704c-.003895.101357-.008177.202699-.012843.304023l-.080459 1.746963c-.004663.101241-.009711.202464-.015143.303666-1.125503 20.968254-6.47921 41.144579-15.573612 59.417491l-.202059.401485-.002 279.510635c0 36.212738-27.237313 66.558336-63.111043 70.560495l-1.089707.113193-619.729435 59.621839c-3.145426.30261-6.315631.231431-9.444306-.212047l-39.274025-5.566954c-40.930159-5.801705-71.351484-40.839238-71.351484-82.178538v-773.0361928c0-36.0985985 23.3323569-68.0579252 57.715137-79.0548904l40.22733-12.86628218c4.954912-1.58477565 10.171379-2.18780719 15.357178-1.77531319zm-3.171702 39.87405557-11.001317 3.5180482c-11.038354 8.6937834-18.539043 21.8069841-19.686982 36.9219309-.099513 1.3102813-.149323 2.6238637-.149323 3.9379184v789.5255015c0 15.12082 6.453914 28.734248 16.757334 38.235877l20.191597 2.860724 619.729435-59.621839c15.897502-1.529439 28.031313-14.886622 28.031313-30.857526l.004363-256.637035c-21.24406 22.192836-50.170272 35.819723-81.843652 35.819588l-.470791-.001023c-.492895.002122-.986464.000944-1.480686-.003553l-.070789.008742c-1.105634.1912-2.241401.292681-3.399012.292681l-.34793-.002575-78.710212-1.254442c-1.954327-.031147-3.838017-.341381-5.614025-.89193l-.061194-.020088-1.28953-.161004c-32.65793-4.378771-60.572059-22.925601-78.78956-49.328665-22.292552 40.589303-63.428857 67.617124-109.954376 67.3315-.507306.003156-1.015976.001209-1.525285-.004012l-.232374.038301c-1.106401.19141-2.242994.292917-3.401477.292917h-.348193l-85.785288-1.375383c-1.838977-.029429-3.615408-.305972-5.298422-.797328l-.292068-.088326-1.7533-.212542c-64.65745-8.420146-112.251574-68.407352-109.645357-137.966503l.097823-2.176792c3.660262-69.841956 56.857381-125.577832 122.378715-127.88691l.03162-.001255.314783-.03558c.452099-.04542.908594-.075793 1.368971-.090618l.346002-.008195 89.467638-1.360661c1.734707-.023976 3.418508.170569 5.025657.559309l.051448.013747 2.008142.156895c40.003609 3.486933 74.046657 26.822098 94.433955 60.396118 20.049412-31.945104 53.441816-53.542906 91.572189-55.656378l1.670287-.077635.076935-.010515c.567876-.067351 1.142974-.110924 1.724255-.129707l.349503-.008286 82.088864-1.243548c1.618665-.022133 3.193008.145712 4.702107.484195l.235336.055861 1.708357.133329c27.594016 2.404283 52.12243 14.975517 70.660279 34.049564l-.003708-266.079869c0-16.167593-12.425244-29.6204236-28.541931-30.9023932zm-44.326109 14.4099849-.063108.0276807c-15.507572 6.7887226-25.738726 22.1792157-25.738726 39.3847646v773.0361928c0 17.99933 11.132025 33.692664 27.272227 40.026906-5.101279-9.880959-7.981906-21.095141-7.981906-32.98213v-789.5255015c0-1.8194603.068968-3.6382668.206754-5.4525023.663467-8.7358848 2.859549-16.9888438 6.304759-24.5154103zm230.877669 424.0198971c-3.344826 63.823065 41.328217 118.0452 99.780034 121.10853l.346463.014586.002103-.052998c.228836.013595.457886.026397.687148.038412.523806.027452 1.046941.050702 1.569378.069778.171656.006267.343365.012089.514998.01746.379247.011867.757917.021531 1.136202.029009.153958.003044.308258.005732.462493.008057.265694.004003.531065.006929.796185.008781 56.056458-.197478 103.138626-48.342208 106.377747-110.148316 3.344825-63.823064-41.328218-118.0452-99.780034-121.10853-58.451817-3.063329-108.547892 46.192167-111.892717 110.015231zm39.551999-109.343637-17.69914.272056-.003063.080901c-55.3697 1.031965-101.590586 48.361183-104.768043 108.99068-3.262632 62.254719 40.073903 115.307081 97.250564 119.794933l-.01182.402399 23.754858.381389c-37.2303-25.291396-60.699163-71.037217-58.047946-121.62544 2.400833-45.810631 25.688695-85.433124 59.52459-108.296918zm249.042556 103.82382c-3.056478 58.321076 37.76544 107.86889 91.178307 110.668139l.276635.011794.002624-.049226c.222169.013287.44456.025766.667169.037432 1.425351.0747 2.845265.115354 4.259074.122618 51.150928-.276502 94.084601-44.236778 97.041291-100.653777 3.056478-58.321076-37.76544-107.86889-91.178307-110.668139-53.412867-2.79925-99.190315 42.210083-102.246793 100.531159zm33.04425-99.871655-13.407172.202796-.003155.08073c-36.70081.818909-68.960788 23.894852-84.93337 57.695002 6.570351 16.974748 9.992986 35.654629 9.551622 55.139343l-.066361 2.205194-.006123.148442-.085974 1.91177-.007216.148213c-.723937 13.813537-3.347 27.064425-7.585728 39.462854 15.248437 29.109853 43.194113 49.591055 76.236912 52.316195l-.011743.396608 18.984597.305821c-33.282217-23.720045-54.087181-65.316001-51.68313-111.188032 2.171806-41.440533 22.816439-77.430475 53.016841-98.824936z"/></svg>