<svg height="960" viewBox="0 0 960 960" width="960" xmlns="http://www.w3.org/2000/svg"><path d="m77.9728806 29.0000208 1.4604616.0257464 1.402882.027417c5.0475195.1213537 9.0853498.4806188 13.7800151 1.3695035 10.1301327 1.9180322 19.4957797 6.0080887 27.6903257 13.1301359 8.711819 7.5716193 14.643934 17.4032455 18.083712 28.8179966 2.726285 9.0470566 3.918082 19.1112813 3.918082 30.7116768l.000798 136.623475c.000531-.007061.001325-.00824.002381-.003594l.016465.1975.030073.502596.306127 6.102598.734917 15.766456.898025 19.97597 1.19107 27.328315.99483 23.55874 1.138122 27.959191.454962 11.568073.608941 15.959949.40805 11.096694.455159 12.899083.438238 12.886453.426004 12.956177.277107 8.676261.27152 8.707361.265875 8.738504.388095 13.166248.251499 8.816557.245644 8.847856.239729 8.879199.233756 8.910587.227721 8.942018.221628 8.973494.215475 9.005014.311544 13.566719.199831 9.084009.193469 9.115683.187047 9.147404.180566 9.179167.174025 9.210976c.028455 1.537815.056636 3.076958.08454 4.617429l.164102 9.258771.157411 9.29069.150661 9.322653.149234 9.758227 1.299614-.259386c5.201979-1.013382 10.724683-1.809548 16.629339-2.402416l15.635419-1.556118 213.993056-21.93727 68.453905-6.986821 27.21723-2.748012 10.5056-1.048169 10.310118-1.013052 6.04393-.577798 2.803821-.258142 1.712532-.150308 1.246881-.100914 1.194798-.084045c.634336-.043087 1.263837-.083713 1.889017-.121866l1.863095-.107032c.617055-.033197 1.230304-.06391 1.840263-.092127l1.820521-.07715c5.736985-.220524 11.223497-.21472 16.901083.027534l1.799788.084373c4.21673.215265 8.562436.559485 13.213764 1.036711l2.012653.21268 2.053166.229038 2.09677.245465 2.143462.261964 2.193245.278534 2.246119.295175 5.784171.794123 36.037638 5.076873 222.015132 31.578901 2.104198.313997c.347133.052716.692505.105632 1.036151.158759l2.041438.321401 2.001669.327059c.330389.055013.65919.110286.986438.165831l1.945117.33663c.321172.05668.640858.113657.959094.170941l1.892293.347499c8.439495 1.581243 15.872151 3.404539 22.976933 5.70678 14.664659 4.751952 27.263345 11.438647 38.007007 20.954637 23.469431 20.787594 33.890532 51.017608 33.890532 91.697042 0 56.076281-24.932842 99.620127-72.467838 124.629923l-1.208046.628709c-4.145037 2.155428-8.635634 3.568031-13.268161 4.173751l-393.054955 51.393296-.619266.090346-2.029663.285836c-.334886.04612-.668084.091478-.999609.136073l-1.969174.258372-1.929643.239893c-8.913761 1.076166-16.557048 1.544178-23.22136 1.341374l-.672096-.022853c-8.690131-.326878-18.45219-1.918234-29.821861-4.673417l-.248328-.061624-278.353921-59.789025c-.356113-.076491-.711156-.157842-1.065031-.244027l-.529922-.132902-2.29487-.599931-1.592898-.427802-1.491388-.41203-.941606-.267349-.902103-.262478-1.284002-.386454c-.13829-.042544-.275169-.084974-.410682-.127309l-.797071-.252996-.76655-.251546-.738277-.250953c-.241629-.083647-.47892-.167338-.712247-.251214l-.793533-.288761c-7.902105-2.910847-14.800837-6.522337-20.092461-11.128285-10.3911537-9.044691-18.935206-19.515865-25.5733728-31.240834l-.3540652-.629104-.3559943.04444c-11.6562014 1.376414-24.8852148.739023-40.2682228-1.47457l-1.0062995-.146595c-19.9374035-2.939567-34.57440842-20.252257-34.16560889-40.400875l.83332999-40.814976.42912411-22.595058.37907556-22.082265.14468988-10.273297.04400856-4.140011.02091262-3.20544.00137746-1.540355-.07414456-10.45351-.05930655-9.860806c-.01779658-3.288971-.03362749-6.579859-.0475125-9.872309l-.03583718-9.881679-.0242806-9.888911c-.00618062-3.297271-.01045494-6.595393-.01284274-9.894008l-.00152362-9.896969.00967677-9.897795c.00253956-1.649583.00554086-3.299111.00900142-4.94854l.02625473-9.895029c.00528771-1.648855.01102974-3.297521.01722362-4.945955l.04256553-9.887458c.01598268-3.294652.03375294-6.588017.05329099-9.87974l.06389772-9.869887c.02305383-3.288083.04785566-6.574168.0743857-9.857899l.08475497-9.843774.04622885-4.915923.10008623-9.818583.11015865-9.799118.12011235-9.77752.12994731-9.753784c.02247087-1.623534.04534658-3.24599.06862466-4.867324l.14447713-9.714176.15401526-9.685103.16343465-9.653891.17273532-9.620546.18191724-9.585064.19098045-9.547446c.03257874-1.587988.06553017-3.174319.09885182-4.758949l.20435262-9.487016c.03479259-1.577649.06995046-3.153508.10547111-4.727532l.21745765-9.421779.22604591-9.375619c.03838341-1.558638.07711971-3.115264.11620645-4.669832l.23870568-9.302374.12246955-4.632008.42749594-15.47406.35306202-12.041139.4525486-14.571173.55541371-16.690498.28119504-7.985491.5187551-13.955154.42512188-10.705082.35599443-8.461451.3248083-7.304423.38124-8.02406.1989736-3.92662.1915926-3.589384.2534381-4.415826.1360679-2.188062.162926-2.417985.1249742-1.681927.2601173-3.187807.0007863-130.528793c0-17.6219566 3.0537379-33.5083623 10.1653361-46.9094707l.378047-.7030226c10.6617324-19.5672993 29.5971999-31.9746929 52.6174337-31.9746929zm836.3354034 701.7721282c-10.468161-29.575276-36.208184-48.154086-66.626965-44.45707l-377.794595 45.916136c-40.27139 4.894477-72.342285 48.09014-71.632348 96.480215.585733 39.924233 23.084409 70.700087 53.333806 77.283269l.754648-.021568c.17172-.00444.344912-.00943.519573-.01497l1.065619-.039842 1.100911-.053047 1.136205-.066251 1.171499-.079455 1.206792-.092659 1.242086-.105864c.209955-.018745.421381-.038039.634278-.057884l1.295026-.12567c.218779-.022045.439028-.044641.660748-.067787l1.347966-.145477c.227602-.025346.456675-.051243.687218-.07769l1.400907-.165283 1.4362-.178487 1.471493-.191692 1.506787-.204896 2.326356-.332103 389.265116-50.895861c24.383651-9.674834 44.347546-33.167846 52.948325-61.532463 2.034829-8.750775 3.052339-18.208964 3.052339-28.374048 0-12.598624-1.168558-23.143642-3.409046-32.005186zm-352.316019-87.969442c-8.652631-.604075-16.503598-.581222-25.82112.083091l-.896106.070654-1.794494.157523-3.168004.294578-5.086809.489249-14.021953 1.385167-23.780539 2.392741-46.810629 4.764964-241.040039 24.727739-14.706529 1.481623-5.519634.541253c-20.85301 2.10407-33.093427 7.256032-42.631816 14.218708l-.799761.592678-.787689.601133c-.13032.100884-.260169.202114-.389566.303685l-.771068.613504c-.255297.205851-.508913.413041-.760979.621544l-.751681.629418-.743177.637126-.735465.644669-.728545.652045-.72242.659255-.717085.6663-.712544.673178-.708796.679891-.70584.686438-.704653.694183-.709495.71013-.714512.727726-.718663.745629-.721943.763838c-.120549.128841-.241199.258453-.361931.388843l-.725236.791726c-.120989.133527-.242025.267844-.363088.402959l-.726575.820302c-.726622.829968-1.452954 1.689086-2.175087 2.578731l-.720588.899872c-9.225867 11.680259-17.545537 28.46384-16.697215 53.2619 0 22.06613 4.919739 40.53458 14.759219 55.405353 3.877806 5.777861 8.506388 11.007723 13.885097 15.689472l.131445.10768.168906.126121.323758.221579.262873.167863.300584.182818.338365.196775.376218.209737.414141.221701.452136.232671.490201.242643.528337.25162.566544.259601.604822.266585.643171.272572.68159.277565c.116804.046621.235212.093409.355225.140343l.739353.283184.77795.285686.362753.127016.621869.205768.715154.224062 1.399227.414086.963917.272842 1.057203.291136 1.969308.525877 1.305966.339916 255.302226 54.837575c-14.380842-17.504727-23.189229-41.358586-23.582021-68.131726-.850953-58.001926 38.05973-110.409967 89.217206-116.627509l317.496785-38.588291-133.472788-19.004223-47.430958-6.724042-15.466523-2.174785-6.971892-.964166-2.705625-.357822-2.058075-.261984c-.338431-.042289-.674626-.083889-1.008671-.124802l-1.979132-.237207c-.325777-.038156-.649572-.075622-.971468-.112399l-1.909261-.212372c-.94391-.102041-1.872242-.197862-2.787266-.287446l-1.812973-.170852c-.898286-.081265-1.784774-.156284-2.661734-.225045zm-484.7233178-573.802707h-1.8540988c-15.7127236 0-23.1200621 16.4392211-23.1200621 39.587207v133.535075c-.14737.208791-.3868855 2.901258-.6940313 7.841947l-.1740939 2.91647c-.0601688 1.045535-.1224259 2.163976-.1866241 3.353908l-.1982701 3.782853-.2090322 4.203308-.21891 4.615272-.2279039 5.018743-.2360136 5.413725-.2432392 5.800215c-.0410929.998438-.08245 2.012626-.1240529 3.042387l-.25242 6.364028-.2574353 6.72929-.2615666 7.086061-.2648139 7.43434c-.0443571 1.267608-.0888127 2.549374-.1333483 3.845121l-.2680269 7.940838-.2690639 8.267889-.2692168 8.586449c-.0448331 1.45715-.0896357 2.927219-.1343894 4.410031l-.2677884 9.048369-.2657311 9.3457c-.0881359 3.163846-.1757815 6.375831-.2627896 9.634542l-.258964 9.914891-.2542543 10.186749c-.0838683 3.439949-.1668043 6.923793-.2486607 10.450116l-.2421827 10.704993c-.0397749 1.804933-.079243 3.620133-.118386 5.445421l-.2308083 11.071386c-1.4729758 72.73256-2.395345 160.272558-1.674533 252.126444l.0030998.531776.0012936 1.259009-.0092896 2.21799-.0383178 4.298455-.0586242 4.799514-.2013387 13.257294-.2848612 16.276977-.6601335 34.308191-.6000643 29.451109c.276536.040772.5519069.080887.8261127.120344l1.631254.228852 1.6032921.213069 1.5753302.197285c.5204497.063132 1.0362391.123633 1.5473682.181503l1.5194064.165721c.7527128.078914 1.4949398.15191 2.2266811.218987l1.4495016.126263c.4785069.039457.9523535.076284 1.4215397.11048l1.3935779.094697 1.3656159.078914 1.3376541.063132 1.3096921.047349c.8638075.026304 1.7089737.042087 2.5354986.047348h1.2258065c6.0591275-.039457 11.0696838-.670772 15.0316689-1.893944.8034756-.248055 1.6598843-1.05982 2.5701-2.076298l.3933893-.44712.4686776-.549807c-1.3947046-7.966487-2.0911764-16.365386-2.0911764-25.174158l.0000095.3293-.0172355-.597873c-.4619167-17.42498 2.8269823-32.931731 9.345877-46.678161l.3587762-.74806c5.4094038-11.153109 12.4249093-20.290204 21.2673433-28.996688 1.815677-1.787762 3.628319-3.48165 5.452257-5.085334-.679775-58.767702-1.74506-113.167505-2.98536-162.275475l-.34144-13.2231c-.115147-4.36376-.231576-8.683351-.349129-12.958086l-.355876-12.688943c-.179469-6.276498-.361116-12.450519-.544413-18.519741l-.368636-11.998022-.372095-11.714429c-.124504-3.857086-.249428-7.666217-.374614-11.426707l-.376194-11.134854c-.062778-1.831259-.125583-3.650185-.188395-5.456693l-.3768-10.689335-.37603-10.387161-.374319-10.080857-.371669-9.770426-.36808-9.455865-.363549-9.137175-.35808-8.814357-.35167-8.487408-.34432-8.156332-.336032-7.821126-.486448-11.094147-.610814-13.580438-.81998-17.706942-1.126458-23.823009-.264039-5.782427-.139673-3.296134c-.012604-.316078-.024216-.615351-.034816-.897733l-.051315-1.490901c-.019434-.643413-.029415-1.133254-.029415-1.4672v-136.662364c0-28.890625-9.8029963-33.2990036-22.5788589-33.9651813l-.875608-.0398658-.8843405-.0297289-1.3418314-.0287823z"/></svg>