<?xml version="1.0" encoding="utf-8"?>
<!-- Generator: Adobe Illustrator 21.0.0, SVG Export Plug-In . SVG Version: 6.00 Build 0)  -->
<svg version="1.1" id="Layer_1" xmlns="http://www.w3.org/2000/svg" xmlns:xlink="http://www.w3.org/1999/xlink" x="0px" y="0px"
	 viewBox="0 0 1417.3 1212.6" style="enable-background:new 0 0 1417.3 1212.6;" xml:space="preserve">
<g>
	<polygon points="907.8,488 911.4,484.3 677.9,250.8 572.5,351.3 617.5,398.5 676.8,342 822.7,488 695.9,488 431.8,223.8 
		13.8,641.8 150.1,641.8 150.1,1136.9 234,1136.9 234,1136.1 442.3,1136.1 442.3,1070.8 234,1070.8 234,575.7 172.3,575.7 
		431.8,316.2 650,534.4 651.3,533 651.3,534.6 1402.8,534.6 1402.8,488 	"/>
	<path d="M825,807.6c-27.8,4-45.3,7.6-52.4,10.7c-18.7,8.5-28.1,24.4-28.1,47.8c0,17.6,4.6,31.4,13.7,41.4c9.1,10,22.4,15,39.8,15
		c25.8,0,44.8-9.5,56.8-28.4c0.2,8.5,2,15.8,5.3,22h49.1v-8c-6.7-3.3-10-11.6-10-24.7V782.9c0-18.7-8.7-32.2-26.1-40.4
		c-12.7-6.4-29.5-9.7-50.4-9.7c-20.5,0-37.1,4.5-49.8,13.4c-14.7,10.2-22,25.3-22,45.1v3.3h44.1c0-16.5,9.8-24.7,29.4-24.7
		c19.4,0,29.1,6.7,29.1,20C853.4,799,843.9,804.9,825,807.6z M854.1,829.3v16.4c0,12.7-3.7,22.6-11.2,29.7
		c-7.5,7.1-17.5,10.7-30.2,10.7c-6.7,0-12.2-1.8-16.5-5.5c-4.3-3.7-6.5-9-6.5-15.9c0-10.9,8.4-19,25.1-24.4
		C827.8,836.6,840.9,832.9,854.1,829.3z"/>
	<path d="M1016.1,950.9c-15.8,0-25.2-5.9-28.1-17.7h-51.4c1.1,19.4,9.7,33.8,25.7,43.4c13.6,8,30.7,12,51.4,12
		c31.2,0,53.6-6.3,67.1-19c13.6-12.7,20.4-34.4,20.4-65.1V739.1h-44.8v21.4c-10.5-18.5-27.4-27.7-50.8-27.7
		c-24.7,0-43.8,9.7-57.1,29.1c-11.6,16.9-17.4,38.5-17.4,64.8c0,25.2,6.1,45.9,18.4,62.1c13.6,18.3,32.5,27.4,56.8,27.4
		c23.4,0,39.8-8.4,49.1-25.1c0,22.5-1.2,36.7-3.7,42.8C1046.9,945.2,1035,950.9,1016.1,950.9z M1017.4,876.4
		c-25.6,0-38.4-17.1-38.4-51.4c0-14.5,2.7-26.2,8-35.1c6.5-10.9,16.4-16.4,29.7-16.4c13.6,0,23.7,5.2,30.4,15.7
		c5.6,8.9,8.4,20.6,8.4,35.1C1055.5,859.1,1042.8,876.4,1017.4,876.4z"/>
	<rect x="1143.7" y="676.7" width="47.1" height="42.8"/>
	<rect x="1143.7" y="739.1" width="47.1" height="177"/>
	<path d="M1307.7,881.1c-23.2,0-34.7-17.6-34.7-52.8c0-37,11.6-55.4,34.7-55.4c18,0,28.4,9.7,31.1,29.1h46.8
		c-1.8-22-9.7-39.1-23.7-51.1c-14-12-32.2-18-54.4-18c-27.2,0-48.2,9.1-63.1,27.4c-13.6,16.9-20.4,39.4-20.4,67.5
		c0,27.8,6.6,50.1,19.7,66.8c14.5,18.5,35.2,27.7,62.1,27.7c22.5,0,41-6.5,55.4-19.5c14.5-13,22.7-30.8,24.7-53.3h-46.4
		C1336.1,870.5,1325.5,881.1,1307.7,881.1z"/>
	<polygon points="581.8,1085.3 510.3,1085.3 510.3,1022.5 474.4,1022.5 474.4,1191.2 510.3,1191.2 510.3,1116.4 581.8,1116.4 
		581.8,1191.2 617.7,1191.2 617.7,1022.5 581.8,1022.5 	"/>
	<path d="M708.5,1062c-20.5,0-36.4,6.1-47.7,18.2c-11.3,12.2-17,28.4-17,48.6c0,20.2,5.6,36.2,16.7,48c11.5,12.4,27.5,18.6,48,18.6
		c20.5,0,36.5-6.2,48-18.6c11.1-11.8,16.7-27.8,16.7-48c0-20.2-5.7-36.4-17-48.6C745,1068.1,729.1,1062,708.5,1062z M732.1,1155.2
		c-5.2,8.2-13,12.2-23.5,12.2c-10.5,0-18.4-4-23.8-12c-4.2-6.7-6.3-15.6-6.3-26.6c0-11.1,2.1-20,6.3-26.6c5.2-8,13.1-12,23.8-12
		c10.5,0,18.3,4,23.5,12c4.2,6.7,6.3,15.6,6.3,26.6S736.2,1148.6,732.1,1155.2z"/>
	<path d="M936.6,1063c-15.2,0-27.3,6.1-36.4,18.4c-8.1-12.2-20-18.4-35.6-18.4c-14.2,0-26,5.8-35.4,17.4v-13.9h-32.5v124.7h33.7
		v-75.3c0-7.1,1.9-12.8,5.6-17.3c3.7-4.5,9-6.7,16-6.7c12.4,0,18.7,6.4,18.7,19.3v80h33.4v-75.5c0-6.9,1.9-12.6,5.6-17.1
		c3.7-4.5,9.1-6.7,16-6.7c12.8,0,19.1,6.3,19.1,19.1v80.3h33.7v-87.1c0-12.6-3.8-22.6-11.3-30C959.8,1066.7,949.5,1063,936.6,1063z"
		/>
	<path d="M1060.9,1062c-19.4,0-34.3,6.4-44.8,19.3c-9.9,11.8-14.8,27.4-14.8,46.8c0,19.5,4.9,35.3,14.8,47.5
		c10.8,13.2,25.9,19.8,45.3,19.8c14.7,0,27.3-3.6,37.9-10.9c10.6-7.3,17.7-17.7,21.4-31.2h-34.4c-4,9.4-11.8,14.1-23.3,14.1
		c-16.8,0-25.6-9.9-26.4-29.7h85.6c0.2-2.2,0.2-5.1,0.2-8.7c0-20.4-5-36.5-15-48.2C1097,1068.3,1081.5,1062,1060.9,1062z
		 M1036.7,1115.9c1.5-17.3,9.8-25.9,25-25.9c16.5,0,24.9,8.6,25.2,25.9H1036.7z"/>
	<polygon points="690.7,916.1 690.7,564 570.7,564 494.1,831.6 416.3,564 297.5,564 297.5,916.1 373,916.1 373,631.8 453.5,916.1 
		535.7,916.1 615.1,631.8 615.1,916.1 	"/>
	<circle cx="1097.4" cy="406.9" r="38.7"/>
	<path d="M1184.7,338c6.2,0,12.3-2.4,16.9-7.3c8.9-9.3,8.5-24.1-0.9-33c-28.1-26.6-64.8-41.3-103.3-41.3s-75.2,14.7-103.3,41.3
		c-9.3,8.9-9.7,23.6-0.9,33c8.9,9.3,23.6,9.7,33,0.9c19.4-18.4,44.7-28.5,71.3-28.5s51.9,10.1,71.3,28.5
		C1173.1,335.9,1178.9,338,1184.7,338z"/>
	<path d="M861.1,157.5c64.1-60.8,148-94.2,236.2-94.2s172.1,33.5,236.2,94.2c4.5,4.3,10.3,6.4,16,6.4c6.2,0,12.3-2.4,16.9-7.3
		c8.9-9.3,8.5-24.1-0.9-33c-72.8-69-168.1-107-268.3-107s-195.5,38-268.3,107c-9.3,8.9-9.7,23.6-0.9,33S851.8,166.4,861.1,157.5z"/>
	<path d="M1268.1,250c6.2,0,12.3-2.4,16.9-7.3c8.9-9.3,8.5-24.1-0.9-33c-50.7-48-117-74.5-186.8-74.5s-136.1,26.5-186.8,74.5
		c-9.3,8.9-9.7,23.6-0.9,33c8.9,9.3,23.6,9.7,33,0.9c42-39.8,96.9-61.7,154.7-61.7s112.7,21.9,154.7,61.7
		C1256.6,247.9,1262.3,250,1268.1,250z"/>
</g>
</svg>
