<svg height="960" viewBox="0 0 960 960" width="960" xmlns="http://www.w3.org/2000/svg"><g fill="none" fill-rule="evenodd"><ellipse cx="480.288318" cy="66.377104" rx="191.353535" ry="36.377104" stroke="#000" stroke-linecap="round" stroke-linejoin="round" stroke-width="20"/><g fill="#000"><path d="m480.5 1h-3.225183l-3.214223.01866207-3.205609.02316927c-.533526.00462364-1.066675.00962776-1.599437.01501154l-3.191866.03685187-3.182154.04592352c-.529525.00840767-1.058628.01719165-1.587298.02635111l-3.166764.05945589-3.155955.06842739-3.144707.07735882-3.13302.0862502c-.521171.01511376-1.041838.03059632-1.56199.04644685l-3.114665.09951215-3.101881.10830337-3.088656.11705452-3.074994.12576562-3.060891.13443666-3.04635.14306762c-.506489.02456163-1.012353.04948121-1.517585.07475791l-3.023714.15593897c-.502661.02670184-1.004671.05375913-1.50602.08117104l-3.000091.16872016-2.983794.17719089-2.967056.18562155-2.949881.19401215-2.932265.20236269-2.914212.21067316c-.484173.0358025-.967575.07194961-1.450198.10844048l-2.886307.22306376c-.479467.0378626-.958137.07606729-1.435999.11461325l-2.857414.23536421-2.837604.24351443-2.817354.2516246c-.467847.04261105-.934833.08555836-1.400947.12884109l-2.786156.26371472-2.764809.27172474-2.743022.27969467c-.455331.04727772-.909735.09488585-1.363204.14282355l-2.70952.29157449-2.686635.29944427-2.663312.307274c-.441917.05186258-.882844.10404973-1.322772.15656062l-2.627504.31894348-2.603082.32667305-2.578222.33436255-2.552923.34201201c-.423355.05763723-.845637.11559152-1.266837.17386203l-2.514151.35341106c-.833675.11906413-1.66295.23938647-2.487753.36096036l-2.460918.36846958c-.815784.12407029-1.627022.24938543-2.433642.37593876l-2.405928.38336785-2.377774.3907569c-1.181776.1972191-2.352829.397194-3.512913.5999022l-2.30547.4090542c-.381783.0687809-.762329.1378639-1.141628.207248l-2.233641.4147101c-.369805.069689-.738376.1396643-1.10571.2099273l-2.189141.4250444c-.724755.1428407-1.444546.2868447-2.159357.4320241l-2.12948.4390763c-1.057255.2213132-2.103271.4452981-3.137995.6719953l-2.054376.457023c-1.359526.307109-2.698915.6190882-4.018041.9360339l-1.963478.4791556-1.93299.4866777c-9.908197 2.5340582-18.591878 5.3722111-25.992816 8.5593368-8.402243 3.6183254-15.58366 7.8220221-21.708664 13.2700772l-.423123.3798644c-7.300093 6.6149357-12.822184 14.8214449-15.326734 24.5298675l-.077195.3054545-.018942.0447895c-2.22861 5.183395-4.12567 10.4178931-5.683249 15.7003146l-.381254 1.3178574c-1.371945 4.8351888-2.457917 9.7036673-3.253968 14.5988084l-.195587 1.2362301-.14705.8059129c-.260251 1.4939764-.451441 3.0026151-.571635 4.5223201-.041449.524079-.072563 1.048924-.093322 1.574229l-.026794.67801-.018963.590224c-.012236.393559-.012236.787252-.012236 1.180949l3.445 719.047355-.060341.569321c-.255965 2.553414-.384659 5.119107-.384659 7.691679 0 22.836261 9.891454 43.622972 26.924511 60.940384 13.867277 14.098783 32.482721 25.947913 54.827107 35.556567 41.923351 18.028108 96.765245 28.003049 154.748382 28.003049 57.771257 0 112.426373-9.902103 154.29332-27.807894 22.287166-9.531848 40.887823-21.284218 54.795988-35.260307l.536338-.542444c14.223121-14.478343 23.460772-31.373745 26.097227-49.898395l.116127-.85596.119341-.490669c.67276-2.876866 1.035161-5.873418 1.049927-8.952505l3.49175-728v-.405711l-.008819-.664066-.006199-.287049.002869-.104102c.142106-8.7540509-.963157-17.4663631-3.278597-26.032893l-.224254-.815811c-1.667221-5.9645891-3.835399-11.5321063-6.611723-16.6680109l-.115295-.2101831-.015492-.049038c-2.861503-8.8288187-8.267718-16.3262154-15.201163-22.4304454-6.18006-5.4409474-13.428054-9.6391427-21.9155-13.2542701-7.835886-3.3376031-17.100859-6.2936106-27.720926-8.9165133l-1.945837-.4732316c-.653578-.1565275-1.312118-.3118423-1.975602-.4659552l-2.005269-.4587436-2.034837-.4515967-2.064306-.4445147-2.093677-.4374973-2.122947-.4305448c-1.068775-.213545-2.14849-.4245072-3.239089-.6329228l-2.195694-.4134468-2.224619-.4067209-1.150181-.2056363-2.322383-.4057968c-.778984-.1340454-1.562801-.2668684-2.351377-.3984626l-2.379928-.391089c-1.596037-.2582594-3.210814-.51157668-4.84374-.75989932l-2.462927-.36873135-2.489709-.36119984c-.417158-.05957016-.835414-.11882486-1.254759-.17776327l-2.529052-.34982856-2.554727-.34219836-2.57996-.33452867-2.604752-.3268195-2.629099-.31907087c-.440188-.05253056-.881372-.10473662-1.323542-.15661736l-2.664793-.30737388c-.446081-.05057613-.893131-.10082529-1.34114-.15074666l-2.69949-.29558807-2.722069-.28768152-2.744206-.27973549c-.459187-.04595822-.919279-.09158371-1.380265-.13687564l-2.77658-.26774242-2.797611-.25969768-2.818199-.25161348-2.838344-.2434898c-.474712-.03990246-.950244-.0794648-1.426588-.11868618l-2.867733-.23123024c-.479555-.03785427-.959902-.07536594-1.441034-.11253419l-2.896126-.21888187c-.484232-.03579127-.969229-.07123748-1.454982-.1063378l-2.923524-.20644466-2.941237-.19810385-2.958506-.18972355c-.494499-.03092004-.989699-.06148926-1.485592-.09170683l-2.983581-.17707908-2.999746-.16860009c-1.00256-.05478248-2.00774-.10814522-3.015467-.16008163l-3.030746-.15152367c-.506373-.02453859-1.013364-.04871896-1.520965-.07254027l-3.052835-.13861273-3.067008-.12995609c-.512325-.02093577-1.025221-.0415092-1.538681-.06171946l-3.087438-.1168971-3.100505-.10814176c-.517816-.01729182-1.036157-.03421719-1.555015-.05077529l-3.119276-.09493472-3.131238-.08608069-3.142756-.07718717-3.153832-.06825418c-.526537-.01062909-1.053518-.02088432-1.580932-.03076488l-3.169617-.05478067c-.529112-.00837857-1.05864-.01638081-1.588575-.02400592l-3.184406-.04121833-3.193713-.03212742c-.533037-.0045948-1.066443-.00880917-1.600209-.01264228l-3.206843-.01841704c-.53517-.01038272-1.070681-.01038272-1.606525-.01038272zm0 40c105.76253 0 191.5 15.4461761 191.5 34.5 0 .2244192-.011894.4483378-.035574.6717367l-.146335-.1717367c2.665486 3.1365442 4.757762 7.5148927 6.276829 13.1350455 1.449429 5.3625125 2.071788 10.7263895 1.867079 16.0916305.017549.171131.028588.342856.033998.514946l.004003.258378-3.491272 728-.512106.000748c-.626635 46.437637-88.361087 83.999252-196.496622 83.999252-108.523953 0-196.5-37.831939-196.5-84.5 0-1.953949.154224-3.892409.457722-5.81325l-3.457722-721.68675.026794-.67801c.038902-.491867.120055-.981628.242748-1.469138.603032-4.2833574 1.534673-8.5678297 2.798159-12.852852 1.474525-5.0007491 3.400567-10.0007491 5.778126-15l.176254-.000037-.022081-.499963c0-18.8632856 84.031295-34.1907157 188.333197-34.5z" fill-rule="nonzero"/><ellipse cx="480.288318" cy="86.309764" rx="107.636364" ry="9.96633"/><path d="m690.209559 95.7441077c5.522848 0 10 4.4771523 10 10.0000003 0 8.063592-4.72609 14.520424-13.112449 19.985353l-.784491.501656-.805096.496128c-.951226.575635-1.944143 1.140204-2.977418 1.694477l-.895517.472587c-.452669.235051-.912681.468251-1.379932.69966l-.94412.460448-.963236.455782c-.162122.07558-.325033.150971-.488728.226174-2.600822 1.194836-5.443152 2.357236-8.517432 3.485681l-1.435334.518405-1.468064.513549-1.500586.50866c-1.263981.421838-2.561621.838549-3.892377 1.250047l-1.612768.49129-1.64435.486252c-1.106715.322481-2.234345.641582-3.382611.957258l-1.737844.470939-1.76859.465769c-.297315.077195-.595903.154174-.89576.230935l-1.814318.45795c-.304911.075889-.611081.151558-.918507.227008l-1.859577.450057c-.312428.074569-.626102.148917-.941018.223043l-1.904366.44209-1.933964.436737-1.963353.43135c-.329663.071441-.660542.142657-.992633.213645l-2.007045.423209-2.035913.417739-2.064571.412237c-.346472.068246-.694129.136261-1.042967.204045l-2.40817.460732c-.808167.152236-1.621751.303127-2.44067.452666l-2.47268.444547c-3.318029.587296-6.720109 1.152807-10.201007 1.695988l-2.625369.40319-2.654436.394766c-1.779204.260357-3.577457.515063-5.394107.764051l-2.73869.369183-2.765793.360554-2.792405.351872c-.467591.05792-.936271.115475-1.406029.172665l-2.831405.338756-2.85679.329947-2.881685.321086-2.906091.312176c-.486354.051284-.973706.102194-1.462043.15273l-2.941777.298713-2.964955.289673-2.987642.280584c-.499804.046003-1.000532.091626-1.502176.136867l-3.020753.266852-3.042213.257634-3.063184.248364c-.512251.040619-1.025355.080849-1.539302.12069l-3.093718.234365c-.517279.038279-1.03538.076166-1.554294.113661l-3.123149.220249c-.522122.035921-1.045037.071446-1.568733.106575l-3.151476.206019-3.169747.196468c-.529787.031946-1.060314.063492-1.591572.094637l-3.196234.182046-3.213279.172367c-.536939.027918-1.074569.055431-1.612877.082538l-3.237926.157753-3.253743.147946-3.26907.138088-3.283907.12818-3.298253.118219c-.550877.01887-1.102332.037323-1.654353.055358l-3.318852.103183c-.554249.016357-1.109044.032295-1.664376.047811l-3.338346.088031c-.557437.013826-1.11539.027229-1.673848.040207l-3.356737.072765-3.368384.062523-3.379541.052229c-.56416.007845-1.128763.015258-1.693801.02224l-3.395356.036694c-.566733.005249-1.133881.010064-1.701432.014443l-3.410066.021044-3.41926.010547c-.570616.001321-1.141594.001321-1.712925.001321l-3.423673-.005279c-.56988-.001758-1.139387-.003955-1.708512-.006589l-3.410066-.021044-3.400382-.031491c-.565896-.006116-1.131368-.012665-1.696406-.019646l-3.384935-.047065c-.56326-.008705-1.126066-.01784-1.688406-.027404l-3.368385-.062523-3.356737-.072765c-.558458-.012978-1.116411-.026381-1.673848-.040207l-3.338346-.088031c-.555332-.015516-1.110127-.031454-1.664376-.047811l-3.318852-.103183-3.305242-.11322c-.549712-.019703-1.098836-.039823-1.647363-.060357l-3.283907-.12818-3.269071-.138088-3.253743-.147946-3.237926-.157753-3.221616-.167509c-.53555-.028728-1.0704-.05786-1.60454-.087396l-3.196234-.182046-3.178699-.191674c-.528294-.032745-1.055838-.065889-1.58262-.099431l-3.151476-.206019-3.132714-.215518c-.520528-.036709-1.040254-.073811-1.559168-.111306l-3.103651-.229672c-.515624-.039061-1.030414-.078513-1.544361-.118354l-3.073484-.24371c-.510534-.041395-1.020205-.083176-1.529002-.125344l-3.042213-.257634-3.020753-.266852c-.501643-.045241-1.002372-.090864-1.502176-.136867l-2.987642-.280584-2.964955-.289673-2.941777-.298713-2.918108-.307701c-.484352-.05203-.967697-.104432-1.450025-.157205l-2.881686-.321086-2.85679-.329947-2.831405-.338756c-.469758-.05719-.938437-.114745-1.406029-.172665l-2.792405-.351872-2.765793-.360554-2.73869-.369183c-1.816649-.248988-3.614903-.503694-5.394107-.764051l-2.654435-.394766-2.62537-.40319c-3.480898-.543181-6.882978-1.108692-10.201007-1.695988l-2.47268-.444547c-.818919-.149539-1.632503-.30043-2.44067-.452666l-2.40817-.460732-1.042967-.204045-2.064571-.412237-2.035913-.417739-2.007045-.423209-1.97797-.428645c-.327227-.071892-.653233-.144009-.978016-.21635l-1.933964-.436737-1.904366-.44209c-.314916-.074126-.62859-.148474-.941018-.223043l-1.859577-.450057c-.307425-.07545-.613596-.151119-.918507-.227008l-1.814318-.45795c-.299856-.076761-.598444-.15374-.89576-.230935l-1.76859-.465769-1.737843-.470939c-1.148267-.315676-2.275897-.634777-3.382612-.957258l-1.64435-.486252-1.612768-.49129c-1.330756-.411498-2.628396-.828209-3.892377-1.250047l-1.500586-.50866-1.468064-.513549-1.435334-.518405c-3.074279-1.128445-5.91661-2.290845-8.517431-3.485681l-.488729-.226174-.963236-.455782c-.158951-.076349-.317106-.152893-.474461-.229634l-.934493-.462823c-.308276-.155073-.613319-.31095-.915098-.467651l-.895517-.472587c-1.033275-.554273-2.026191-1.118842-2.977418-1.694477l-.805096-.496128-.784491-.501656c-8.386359-5.464929-13.112449-11.921761-13.112449-19.985353 0-5.522848 4.477152-10.0000003 10-10.0000003 5.335632 0 9.695262 4.1787615 9.984699 9.4420933l.006866.181799.008421.014733c.171642.290421.492746.691937.987043 1.179358l.171212.165621c1.874909 1.780382 5.09325 3.790992 9.541963 5.834763.670742.308143 1.364766.615037 2.081724.920563l1.092593.45725c.739804.30413 1.502367.606834 2.287341.907996l1.194226.450571c1.009122.374488 2.052988.746474 3.130917 1.115729l1.309822.441781c.442028.146814.889463.293177 1.342261.439073l1.374439.436276 1.406355.433391 1.43801.430419c.242292.071484.485892.142841.730794.214068l1.485002.425796c.250091.070703.501473.141272.754142.211707l1.531405.420976c.257793.069888.51686.139637.777198.209247l1.57722.415958 1.607437.412503 1.637392.40896 1.667085.40533 1.696517.401611c.285191.066621.571598.133083.859214.199384l1.740176.39587c.292434.065652.586068.131141.880895.196463l1.783245.38993 1.811631.385861 1.839755.381703c.308955.063266.619071.126355.930342.189266l1.881452.375303c.315872.062188.632888.124194.951044.186016l2.326679.445066c.390523.073539.782412.146757 1.175655.219655l2.375631.433523c6.377928 1.145733 13.097383 2.208659 20.116248 3.184173l2.646028.361712c.886632.119198 1.777861.237022 2.673603.353462l2.700687.345159 2.727275.336803 2.753371.328391 2.778974.319927c.465268.052613.931583.10487 1.398933.156772l2.816451.307128 2.84082.298528 2.864694.289874c.479412.047589.959797.094814 1.441146.141676l2.899582.276792 2.922222.268003 2.944369.259161 2.966024.250264c.496114.040966.99311.081559 1.490977.121779l2.997579.236817c.501312.038718 1.003475.077061 1.506478.115025l3.028024.22325 3.047703.214137c.509564.034927 1.019926.069472 1.531078.103634l3.076298.200366c.514267.032626 1.029303.064866 1.545097.096719l3.103781.186475c.518786.030303 1.03831.060217 1.558561.089742l3.130155.172461 3.147121.163052 3.163592.153588 3.17957.144071c1.062465.046431 2.12751.091267 3.195055.134498l3.210046.124873 3.224544.115194c.538604.018389 1.077792.036373 1.617554.05395l3.245365.100573c.542013.015946 1.084579.031483 1.627687.046609l3.265075.085831 3.277599.075935 3.289629.065986 3.301165.055982 3.312208.045925c.552928.006813 1.106295.013205 1.660091.019174l3.327847.030737c1.110945.00855 2.223524.015401 3.337656.020545l3.346972.010298c.558578.000859 1.117523.00129 1.676825.00129l3.351444-.005155c1.115665-.003434 2.229817-.008579 3.342376-.015428l3.332813-.025648c1.10929-.010246 2.216903-.022187 3.322758-.035813l3.312208-.045925 3.301165-.055982 3.289629-.065986 3.277599-.075935 3.265075-.085831 3.252059-.095672c1.081795-.033525 2.161338-.068681 3.238548-.10546l3.224543-.115194 3.210046-.124873c.533773-.021615 1.06692-.043632 1.599433-.066049l3.187374-.139292c.529932-.024012 1.059208-.048421 1.587819-.073228l3.163592-.153588 3.14712-.163052 3.130155-.172461 3.112696-.181817c.5173-.031079 1.033852-.062546 1.549647-.0944l3.085582-.195749c.51272-.033395 1.024661-.067174 1.535812-.101336l3.057359-.20956c.507954-.03569 1.015098-.071761 1.521422-.108211l3.028024-.22325c.503003-.037964 1.005166-.076307 1.506478-.115025l2.997579-.236817 2.976665-.245796c.494341-.041711.987789-.083793 1.480336-.126247l2.944369-.259161 2.922223-.268003 2.899581-.276792 2.876446-.285528 2.852819-.294208c.473474-.049755.945942-.099869 1.417395-.150342l2.816451-.307128 2.791589-.315674 2.766234-.324166c.458899-.054732.916721-.109816 1.373455-.16525l2.727276-.336803 2.700686-.345159c.895742-.11644 1.786971-.234264 2.673604-.353462l2.646027-.361712c7.018866-.975514 13.73832-2.03844 20.116248-3.184173l2.375631-.433523c.393243-.072898.785132-.146116 1.175655-.219655l2.326679-.445066 1.89522-.373126c.313577-.062551.626004-.125283.937276-.188193l1.853719-.379592c.306628-.063618.612089-.127411.916379-.191377l1.81163-.385861 1.783245-.38993 1.754597-.393911c.290031-.065979.578857-.13212.866474-.198422l1.711135-.399719c.282755-.066936.564289-.134029.844596-.201276l1.667086-.40533 1.637391-.40896 1.607437-.412503 1.577221-.415958c.260337-.06961.519405-.139359.777197-.209247l1.531405-.420976c.252669-.070435.504052-.141004.754143-.211707l1.485001-.425796c.244903-.071227.488502-.142584.730794-.214068l1.43801-.430419 1.406355-.433391 1.374439-.436276c.452798-.145896.900233-.292259 1.342261-.439073l1.309822-.441781c1.07793-.369255 2.121796-.741241 3.130917-1.115729l1.194226-.450571c.784974-.301162 1.547537-.603866 2.287341-.907996l1.092593-.45725c.716958-.305526 1.410982-.61242 2.081724-.920563 4.448714-2.043771 7.667054-4.054381 9.541963-5.834763.533076-.5062.890324-.929294 1.095473-1.244092l.070209-.11562.00786-.181799c.284359-5.170993 4.49735-9.2951362 9.704795-9.4382515z" fill-rule="nonzero"/><path d="m686.223027 795.380471c5.522848 0 10 4.477153 10 10 0 24.272027-25.112567 44.062953-67.262481 58.112924-39.533547 13.177849-92.565708 20.654753-149.040549 20.654753s-109.507002-7.476904-149.040549-20.654753c-42.149914-14.049971-67.262481-33.840897-67.262481-58.112924 0-5.522847 4.477152-10 10-10 5.42924 0 9.847931 4.326671 9.996158 9.720096l.003842.279904c0 12.701281 18.857689 27.562809 53.587036 39.139258 37.345714 12.448571 88.270915 19.628419 142.715994 19.628419s105.37028-7.179848 142.715994-19.628419c34.382054-11.460685 53.208295-26.141075 53.581382-38.757577l.005654-.381681c0-5.522847 4.477153-10 10-10z" fill-rule="nonzero"/></g></g></svg>