<svg height="960" viewBox="0 0 960 960" width="960" xmlns="http://www.w3.org/2000/svg"><g fill="none" fill-rule="evenodd"><path d="m0 0h960v960h-960z"/><path d="m92.0186814 242c5.8238367 0 11.5836756 1.153197 16.8955266 3.331457l3.90389 1.857928 354.934049 188.355448c2.559928 1.345396 4.351878 3.779922 4.99186 6.534781l.255993 2.114194v73.548318c0 2.882991-1.279964 5.63785-3.455903 7.495778l-1.79195 1.217263-354.934049 188.355448c-5.119856 2.754859-10.751698 4.420587-16.5115368 4.997186l-4.351878.192199h-65.9821501c-8.6397577 0-13.5676196-9.353706-9.4717344-16.336952l1.2159659-1.665729 172.0911754-197.452888c3.135912-3.587723 7.359793-6.022249 12.031662-6.855113l2.815921-.320333 190.778652-9.930304v-12.749229l-190.778652-9.930304c-4.735867-.256266-9.279739-2.114194-12.799641-5.189385l-1.983944-1.986061-172.1551734-197.581021c-5.6958403-6.470715-1.855948-16.336953 6.1438277-17.810482l2.0479426-.192199zm842.0341726 0c9.342931 0 14.33436 10.955368 8.255055 18.002681l-172.076313 197.452888c-3.775568 4.292454-9.08696 6.91918-14.846301 7.239512l-190.762176 9.930304v12.74923l190.762176 9.930304c5.695348.320332 11.070733 2.882991 14.846301 7.239512l172.076313 197.452888c6.143298 7.047313 1.087876 18.002681-8.255055 18.002681h-66.040445c-7.295165 0-14.398352-1.793861-20.861613-5.189385l-354.903396-188.355448c-3.199634-1.729795-5.2474-5.061252-5.2474-8.648975v-73.548318c0-3.651789 1.983773-6.983246 5.2474-8.648974l354.903396-188.355449c6.399268-3.395523 13.566448-5.189385 20.861613-5.189385h66.040445z" fill="#000" fill-rule="nonzero"/></g></svg>