<svg height="960" viewBox="0 0 960 960" width="960" xmlns="http://www.w3.org/2000/svg"><path d="m149.946908 167.428365.400092.063635.646773-.073611c2.810961-.303353 5.652071-.443056 8.510754-.414824l.780067.011866 289.074236 5.939649c38.167376.78423 69.519035 30.730914 71.537861 68.399137l-.171259-.000067c4.623627 0 8.931509 1.519345 12.359268 4.095819 2.081788-1.565728 4.488736-2.740543 7.093909-3.4217 2.023557-26.848029 21.227347-48.417546 46.575803-55.528382l.519588-.141887.286813-.110392c2.720098-1.026136 5.588093-1.767476 8.570273-2.185905l.597949-.079369 53.302426-6.672555c3.103312-.388481 6.159607-.411977 9.128681-.105963l.372858.042184.4437-.038827c1.906449-.151678 3.825561-.220485 5.752382-.205047l.826238.011778 219.528735 4.499569c34.931266.715968 63.915945 28.637029 63.915945 63.819537v469.33398c0 35.182508-28.984679 63.103569-63.915945 63.819537l-219.528735 4.499569c-2.204483.045184-4.399821-.019922-6.57862-.193269l-.4447-.038827-.422746.047541c-2.743524.279204-5.561182.277035-8.421247-.034459l-.715881-.084334-44.858126-5.684748-.911595-.002843c-34.401851-.408039-63.600915-26.764076-64.193233-61.654915l-.009172-1.0818.000602-435.088081c-2.537247-.687688-4.882391-1.844662-6.917348-3.374212-3.358743 2.525351-7.563494 4.034867-12.082291 4.093925l-.000963 434.891109c0 39.464625-32.177268 71.452867-71.64117 72.263737l-289.074236 5.939649c-3.121935.064146-6.224318-.072027-9.290821-.402958l-.646773-.073611-.355612.056847c-3.393267.510439-6.913991.58892-10.499494.180484l-.717946-.088196-54.074948-7.126135-.3323237-.035056c-.7997618-.092522-1.5973415-.19771-2.3924625-.315506l-.3682138-.058438-2.8401904-.373585c-3.7922683-.50054-7.4015724-1.521775-10.7599554-2.985857l-.5178542-.230558-.1398147-.049597c-27.5599059-10.019097-46.9281053-35.517388-47.3414392-65.49579l-.0067461-.97913v-470.014966c0-37.468187 29.3409725-67.359993 66.2798397-70.685291l.5191603-.042226 51.920864-6.914971c3.836236-.510866 7.604017-.462486 11.227044.078336zm-22.375713 71.567302v481.980832c0 17.916679 14.524338 32.142632 32.441018 31.774555l288.879537-5.934686c6.672015-.137069 12.873597-2.225105 18.029872-5.692705 8.503321-5.874379 14.078378-15.531845 14.078378-26.34248v-469.562366c0-11.487705-6.295257-21.673272-15.710341-27.399927-4.810956-2.848671-10.415314-4.540187-16.397909-4.663092l-288.879537-5.934687c-17.91668-.368076-32.441018 13.857877-32.441018 31.774556zm-11.678598-28.253691-24.9476402 3.323297c-17.3340116 1.03941-30.9449568 14.366588-30.9449568 30.927244v470.014966c0 14.273149 10.1105037 26.1444 24.0011294 29.81705l-.0011294.26782 3.2764982.432464c.7430733.122242 1.4948703.221577 2.2545277.297214l26.4080621 3.479451c-5.293481-8.121586-8.367893-17.842437-8.367893-28.324983v-481.980832c0-10.45182 3.056415-20.146404 8.321402-28.253691zm539.108052 8.397482.000098-.597276c-8.499668 3.59828-14.40097 11.768195-14.40097 21.389675v480.108451c0 9.62148 5.901302 17.791396 14.40097 21.389675l-.000098-.569441c3.24694 1.441951 6.888427 2.212794 10.734983 2.133953l219.528736-4.499568c4.881938-.100063 9.433553-1.526755 13.267478-3.906926 6.556474-4.334928 10.864934-11.521571 10.864934-19.570634v-470.062569c0-7.769518-4.01439-14.735479-10.190032-19.108627-3.969553-2.640268-8.770612-4.235095-13.94238-4.341098l-219.528736-4.499568c-3.846556-.078841-7.488043.692002-10.734983 2.133953zm-29.888603 1.601855-23.414472 2.931242-.001115.522055c-10.684518 1.266581-19.197358 8.585566-21.232447 18.127087 1.793417.566962 3.479649 1.371911 5.016029 2.377891 2.615338-1.329365 5.586031-2.076576 8.709569-2.076576 3.364392 0 6.551459.866887 9.308401 2.395419l13.938226-1.259244v32.588128l-15.39978.610165c-2.398528 1.071552-5.061937 1.665532-7.846847 1.665532-2.247239 0-4.415364-.386766-6.429038-1.099134l-3.670428.144803.000766-.290032c-1.284475.701483-2.655019 1.270044-4.089792 1.687796l-.001118 435.191997c0 12.829935 11.445043 23.009274 25.563218 22.736189l1.765782-.034631 17.77383 2.25239c-2.88152-5.757287-4.503053-12.256496-4.503053-19.172082v-480.108451c0-6.922955 1.624991-13.428646 4.512269-19.190544z"/></svg>