<svg height="960" viewBox="0 0 960 960" width="960" xmlns="http://www.w3.org/2000/svg"><path d="m181.741074 3.30176422c.413028 0 .826207 0 1.2395.01225165.093528.0019343.093528.0019343.186998.00406077.542524.0126225 1.085159.03257383 1.627733.0598561l300.964609 15.13341836c4.176438.2100041 8.292259.8518289 12.284983 1.9189547l42.729505 2.2749525c31.852594 1.6956009 56.810551 28.0174754 56.810551 59.915361l-.000357 74.1134647c3.05817 3.97086 5.324782 8.464369 6.706801 13.234862 4.124176-3.371369 8.967355-5.95295 14.330081-7.482375l14.051701-4.007483c4.903919-1.398576 10.030034-1.846554 15.102211-1.319804l28.964596 3.007999 11.574106-4.505159c5.451985-2.122156 11.303121-3.022528 17.14089-2.637639l49.609204 3.270779c11.262166.742524 21.181432 6.096668 27.964849 14.147378l29.833187-9.93344c5.080001-1.691648 10.447926-2.346195 15.78558-1.924842l49.759593 3.928015c10.902037.860606 20.497263 6.03748 27.132157 13.799273 19.458539 2.875033 34.052322 19.614085 34.052322 39.512599v142.406052c0 22.09139-17.90861 40-40 40h-4.543291c-5.31368 2.924564-11.378377 4.653023-17.83765 4.857301l-49 1.549651c-1.058567.033477-2.118046.0249-3.175932-.025713l-32.390176-1.549651c-6.490295-.310517-12.558222-2.155671-17.859632-5.174456-5.950064 4.016202-13.050399 6.478026-20.728799 6.789975l-49.609204 2.015459c-1.144683.046505-2.29074.043807-3.435001-.00806l.00008 438.965981c0 42.531144-14.099612 82.296413-38.263279 114.351033l-25.941472-.001377c27.662613-30.442754 44.204751-70.773696 44.204751-114.349656l-.000746-440.089022-35.605197 1.571409c-2.194241.096792-4.392727.012693-6.573161-.251444l-14.051701-1.702215c-11.19931-1.356678-20.850574-7.25709-27.19791-15.719812l.000968 181.274293c5.356351 6.954909 8.284421 15.513022 8.284421 24.354507v45.564616c0 9.064147-3.046415 17.553948-8.284421 24.355443v24.001186c5.237989 6.801532 8.284421 15.291391 8.284421 24.35555v45.564615c0 8.841505-2.928082 17.399616-8.284348 24.354515l.000358 74.912529c0 30.248087-22.515815 55.766322-52.528463 59.532984l-283.08404 35.527748c-1.425803.178942-2.853467.33582-4.282479.470624.14539.800991.300291 1.602503.463951 2.402454.265964 1.299997.553369 2.590128.861773 3.8701l-20.484172-.001102-.26763-1.350018c-.287309-1.491221-.54886-2.986808-.784584-4.486093-4.042841-.206815-8.077719-.590518-12.092651-1.151268l-36.541096 4.330682c-2.34422.277903-4.702798.417218-7.063433.417218h-1.019957c-.798552-.022098-1.59612-.051421-2.391905-.096511-.184917-.010667-.184917-.010667-.369854-.022096-.531918-.033423-1.062996-.073882-1.619592-.123737l-.051905-.004691c-.261763-.023785-.523371-.04929-.78471-.076614-.597796-.019764-1.201846-.083932-1.812475-.216868-.24616-.032855-.492033-.067595-.737722-.103866-.082265-.012184-.082265-.012184-.164621-.024537l.002122-.014097c-.855778-.060385-1.720528-.220206-2.587005-.409509l-30.423861-6.646858c-2.505706-.414949-4.976002-.993527-7.3956-1.735076-1.634213-.43852-3.208776-1.002197-4.720088-1.673917-11.960686-4.693191-21.861552-13.045231-28.5217859-23.556519l-1.4642814-.356413c-26.4996261-6.449966-45.3036614-29.955853-45.8003643-57.20055-.0022161-.121559-.0038781-.243127-.0100014-.364701v-772.4923161c0-28.5689642 20.1436121-53.1756905 48.149234-58.8180189l.025601-.0051581c8.088624-12.0643302 20.488935-21.0149542 35.13413-24.62446858.931867-.30013449 1.895062-.52933647 2.883039-.69393271.034579-.01151835.070958-.01869494.10735-.02583914l1.410943-.23925839-.00337-.01963488c1.331227-.22843576 2.671087-.41198083 4.017688-.54876856l30.099233-3.83049344c.111525-.0141929.223089-.02791299.335108-.03518262.647913-.08762574 1.298161-.16088626 1.949883-.22351766l.392913-.03645548c.461798-.04131295.92406-.07727739 1.386796-.1078835.158595-.01034973.158595-.01034973.31721-.02013867.469321-.0285487.939148-.05159588 1.454942-.07080112l.091908-.00329526c.473985-.01658425.948169-.03679767 1.423294-.03679767zm-19.466435 898.88861478.057508.247677c1.217883 5.082384 4.376123 9.410375 8.647736 12.156991-3.659438-3.538825-6.618471-7.75029-8.705244-12.404668zm81.989866-854.7856466-.353552.0049602c-.052752.0012027-.105458.0026116-.158118.0042261l-.126387.0042725-.251925.010573-.149.008-.049881.0031591-.017119-.0001591-.044.004h-.01l-.027908.0022958-.032092.0017042-.233366.0171778-.163634.0138222-.342492.0320415c-.376822.0389861-.750749.0885167-1.121459.1483045l-.010271.0016592-.075778.0119948-.33.058-.167.031-.059.012-.256.05-.039.008-.055.013-.052293.0115709-.364707.0824291-.153.037-.433303.1113642-.496029.1403459-.49989.1556802-.494396.1683726-.247448.0897681-.151915.0569576-.040019.0155114-.306265.1196506c-7.010199 2.8119738-12.119421 9.494668-12.537245 17.5334007-.019318.3716667-.02696.7438003-.02696 1.115966l3.220869 827.5053245c.03431 8.815333 5.76674 16.276391 13.695103 18.90822l.429079.136964.034375.010516.034402.010457.186642.054501-.077-.023.292.084-.187251-.052209.049745.014733c.088296.025418.176843.050244.265635.074473l-.096129-.027997.291602.079366c.09867.025729.197638.050717.296895.074958.598975.009875 1.198125.014767 1.797348.014273l1.032016-.006176c3.78422-.042176 7.569669-.299213 11.338041-.772153l283.084041-35.527748c10.004216-1.255554 17.509487-9.761632 17.509487-19.844328v-775.5765292l-.00143-.0676626-.001516-.25489c-.077989-4.5814473-1.700277-8.8018614-4.379321-12.1477031l-.087757-.109452-.104022-.1269834c-.037883-.0458621-.075968-.0915533-.114252-.1370722l-.148112-.1740818-.024099-.0279495.022079.027132-.084-.098-.070192-.0805292-.065808-.0734708-.043152-.0491299-.020848-.0228701-.080109-.0889528c-.033791-.0371475-.067721-.0741678-.101789-.1110602l.067702.0741314c-.143433-.1569121-.289346-.3115408-.437679-.4638231-.104843-.1079896-.211001-.21454-.318348-.319894-.117935-.1154398-.237299-.2297499-.358072-.3425863-.237519-.22191-.480486-.4381203-.728688-.6484066l-.030017-.0254084-.090737-.0760861-.030606-.0256565-.023657-.0192574-.231596-.1891868c-.085671-.0687956-.171924-.1369024-.258753-.204312l-.098155-.0755759-.026958-.0207687-.134105-.1015433c-.129045-.096742-.259629-.1923244-.391414-.2863525l-.053802-.0383473-.064299-.0452746-.111918-.0786389-.008334-.0052987-.056666-.0387013-.085957-.0589531-.14505-.0975761-.01376-.009247-.130095-.0858028c-.132517-.0865847-.266058-.1716759-.400677-.2552181l-.073426-.0454032-.055035-.0337997-.133-.081-.113883-.0671104.087844.0522351c-.186189-.1112436-.374363-.2195557-.564459-.324871-.289593-.1604374-.583646-.3139201-.881942-.4602176-.035376-.0173774-.071343-.0348834-.10737-.0522849l-.133368-.0638079c-.078266-.0370884-.156816-.0736855-.235645-.109787l-.096125-.043714c-.090181-.0407224-.180724-.0807978-.271623-.1202204l-.275083-.1168528c-.081645-.0339594-.163567-.0673953-.245765-.1003036-.052742-.0211056-.105849-.0421033-.159068-.0628805l-.246587-.0943949c-.104233-.0391042-.208888-.0773668-.313955-.1147793l-.253288-.0882628c-.026973-.0091962-.053973-.0183365-.080998-.027421-.060194-.0202091-.111439-.0371752-.162777-.05394-.063473-.0207233-.127187-.0411746-.191041-.0613157l-.274418-.084385-.231613-.0678591c-.03406-.0097554-.068158-.0194232-.102295-.0290031l-.071449-.0199101c-.050233-.0138955-.100548-.0276009-.150943-.0411153-.103985-.0278821-.208079-.054895-.312508-.0810911-.243029-.0609716-.488358-.117622-.735417-.169739l-.030127-.0063311c-.399356-.0836007-.803218-.1553598-1.211216-.2148858-.052637-.0076791-.105191-.0151337-.157812-.0223851l-.143208-.0192104c-.090925-.0118645-.182049-.0231226-.273367-.0337701l-.076785-.0088038c-.402414-.0453575-.80858-.0788624-1.218154-.1001505l-293.1969-15.2392948-.480339-.0192952c-.040689-.0011537-.081355-.0021845-.121996-.0030927-.187002-.0041782-.373443-.0057608-.559338-.0047809zm-114.484279 775.8965536.001903 67.555029c0 8.848805 5.746653 16.355406 13.711514 18.991361l-.000098.031017.168916.036878c-1.221253-3.833222-1.880332-7.917286-1.880332-12.155286l-.000301-72.824187c-.711779-.068451-1.424438-.141959-2.137971-.220526-3.455685-.380501-6.74381-.850584-9.863631-1.414286zm77.072481-769.7510084-8.473842 1.3443498c-2.787621.5644082-4.661469.9983065-5.621543 1.3016949-7.748694 2.4486273-13.531103 9.5082536-13.951316 18.1000476-.015916.3254247-.023877.6511898-.023877.9770035l.001603 39.3046296c6.426694.356896 12.324885 1.281058 17.700899 2.785142 4.319331 1.208449 7.305694 5.145004 7.305694 9.630198l.000647 233.967794c.080855.39073.13923.790512.173619 1.198073.464356 5.503291-3.620509 10.341025-9.123801 10.805381l-16.059267 1.354173.001 196.748 17.214122.913263c1.230753.01907 2.423957.268382 3.529759.711446.008194.004139.01688.007608.025559.01109.062531.024449.124288.050116.185758.076388.021056.009258.042374.018402.063652.027617l.147235.065387c.034718.01551.069339.031416.10385.047512.030226.014593.060558.028991.090814.043538.840491.401863 1.613669.917259 2.301497 1.525121 1.824254 1.606134 3.078795 3.878069 3.334395 6.501459l.015615.175404c.007896.099422.014455.200007.019539.301072.008112.153349.012422.307597.013169.462601l-.00003 28.480827c.001432.089995.001645.179796.000653.269386l-.000653 171.730614c.001096.068898.001478.137684.001152.206348l-.001258 26.816813c0 4.342651-2.802774 8.188929-6.936646 9.519236-6.605212 2.125602-13.309389 3.743586-20.108601 4.854308l.000025 62.026428c0 8.262857 5.010791 15.355382 12.159476 18.404675.536403.228804 2.938529.770908 7.206398 1.626343l.749911.149716c2.878101.572424 6.525855 1.274104 10.943269 2.105048-1.429608-4.087545-2.214309-8.478866-2.232109-13.052457l-3.220718-827.5053239.011235-1.1163404c.008936-.3720253.023065-.7439255.042383-1.1155922.214867-4.1339433 1.050069-8.0885801 2.410733-11.7784129zm-97.071184 19.1174866-1.823055.3675981c-9.3354077 1.8808164-16.049945 10.0830585-16.049945 19.6060466v772.1278911c.168685 9.068503 6.427491 16.912075 15.270122 19.064357l2.602878.633107.000121-67.104159c-6.28144-2.886112-11.277473-6.554819-14.9726855-11.090017-1.4537176-1.784173-2.2475378-4.015165-2.2475378-6.316592l-.0012721-24.872403c-.0018522-.111842-.0018191-.223872.0001182-.336045l.0011173-168.792613c-.0030457-.134372-.0033676-.269115-.0009264-.404159l.000963-28.511678c0-3.795597 2.0036893-6.852841 4.8148003-8.551281.6349454-.386311 1.3157722-.703205 2.0311608-.941117 1.3629602-.458424 2.8287032-.629731 4.2967162-.462078l6.077425.321142v-187.265l-.379312.032947c-1.330295.112248-2.621701-.041325-3.821844-.416497-6.1611616 1.983082-13.0189463-2.534142-13.0189463-9.548094v-225.102552c0-2.733833 1.1192516-5.348472 3.097329-7.235547 3.9594794-3.777321 8.6686923-7.0854 14.1223953-9.94444zm387.718477 677.3322358c30.66964 0 54.5 29.988768 54.5 66s-23.83036 66-54.5 66-54.5-29.988768-54.5-66 23.83036-66 54.5-66zm0 20c-18.483703 0-34.5 20.15534-34.5 46s16.016297 46 34.5 46c9.696422 0 18.713819-5.546706 25.09618-14.551704-3.898095 2.267398-8.32503 3.551704-13.09618 3.551704-16.912581 0-29.5-16.137717-29.5-35s12.587419-35 29.5-35c4.771559 0 9.198845 1.284526 13.096312 3.55236-6.382187-9.005465-15.399725-14.55236-25.096312-14.55236zm12 31c-4.626525 0-9.5 6.248046-9.5 15s4.873475 15 9.5 15 9.5-6.248046 9.5-15-4.873475-15-9.5-15zm-396.938463-182.367843-.000323 149.42648c12.19935 4.400388 23.941307 6.878221 35.23778 7.463318 11.384657.589664 24.064148.031721 38.027532-1.686937l-.000204-151.858712c-14.125515 1.626194-27.143022 2.136206-39.061834 1.518876-11.129864-.576468-22.531561-2.199534-34.202951-4.863025zm-.000116-27.453854.000404 6.888118c12.144611 3.05229 23.889285 4.867774 35.237169 5.455534 11.384657.589664 24.064148.031721 38.027532-1.686937l.000825-7.549363c-2.228024.315853-4.575654.575239-7.043412.779156l-.185458.015202c-.13445.010932-.269255.0217-.404415.032305l.588872-.047425c-.327329.027046-.656772.053116-.988329.078212-.064224.004861-.128519.009685-.192893.014473-.671132.049914-1.351195.09588-2.039899.137893-.175721.01072-.352328.021202-.5295.031425-.339036.019564-.679884.038169-1.022797.055834-.131862.006793-.263393.013415-.395226.019899-.114177.005616-.229.011149-.344051.016577-.151962.00717-.304091.014149-.456619.020947-.197011.008781-.394864.017268-.593382.025453-.088227.003638-.175947.007191-.263797.010685-.198688.007903-.398629.015528-.599235.022851-.064482.002354-.128213.004648-.192011.006911-.215307.007639-.432353.014964-.650171.021941-.119868.003839-.239409.007556-.359181.011168-.142458.004297-.285577.008456-.429026.012466-.511678.014306-1.027617.026728-1.54775.037272-.095939.001944-.191483.003815-.287167.005622-.211026.003986-.423521.007678-.636707.011061-.100783.001598-.201011.003118-.301391.004569-.790503.011432-1.591006.018645-2.400989.021652-.165722.000616-.332182.001056-.499041.001319l-.713561.000055c-.304141-.000431-.609589-.001439-.916343-.003024l-.135343-.000736c-.845214-.004829-1.700329-.014023-2.565357-.027561-.217196-.0034-.433942-.007054-.651307-.010979-.050396-.00091-.100193-.001823-.150023-.002751-.265379-.004936-.532543-.010294-.800634-.016056l-.284571-.00626c-.116928-.002631-.234174-.005342-.351596-.00813-.655063-.015552-1.315786-.033494-1.981992-.053812-.937787-.028602-1.886064-.061899-2.845209-.099874-.086832-.003438-.173848-.006918-.260953-.010437-.66826-.026993-1.341925-.056253-2.020852-.087767-.083328-.003868-.166232-.007746-.249215-.011657-.171532-.008086-.34361-.016325-.516023-.024707-1.27386-.061932-2.56639-.131712-3.877279-.209265-.381451-.022567-.764252-.04578-1.148606-.069649-.948314-.058891-1.882726-.1197-2.803332-.182495-4.19748-.286312-8.107939-.613913-11.740384-.989283l-.260061-.027006c-.412294-.043022-.820983-.086667-1.22608-.130943-.042328-.004627-.08534-.009339-.128311-.014059-.741478-.081441-1.470096-.164917-2.186748-.250573l-.734716-.089098-.078432-.009665c-.398444-.049176-.792657-.098994-1.183108-.149519-.144982-.018761-.290065-.0377-.434625-.056739-.08195-.010793-.16437-.021702-.24662-.032644-.135246-.017992-.269602-.036013-.403501-.054122-.129702-.017542-.258578-.035112-.387029-.052763-.769154-.105694-1.523303-.214367-2.262299-.326069-.025016-.003781-.050418-.007627-.075802-.011477-.440109-.066742-.874397-.134493-1.303332-.203339-.106086-.017028-.211008-.033987-.31561-.051011-.950042-.154627-1.873952-.314787-2.771569-.480612-.134571-.02486-.269261-.049981-.403354-.075231-.057552-.010837-.114997-.021699-.172332-.032584-.340519-.064651-.676804-.130072-1.009242-.196345l-.484182-.097683c-.043516-.008885-.087484-.017891-.131384-.026913-.239722-.049267-.476966-.098903-.712169-.149002zm29.220102-213.737539-12.001 1.013v190.013l12.001.637zm511.862-179.457v168.747l15.605016-.687723c-.010721-.189708-.016154-.380831-.016154-.573223v-164.517023c0-.454616.030337-.902147.089096-1.340678zm59.179-4.387v172.723l39.610142-1.609389v-168.501767zm-79.179 6.2-4.051649 1.156031v164.517023l4.051649.490946zm201.861-.493.994 165.051 29.425-.931-.922745-161.472132zm-19.986 2.479-20.962155 6.981823v154.343001l21.941155 1.049176zm69.554 12.729.094 16.488 3.333611.000236c3.865993 0 7 3.134007 7 7v32c0 3.865993-3.134007 7-7 7l-3.070611-.000236.155 27 2.915611.000236c3.865993 0 7 3.134007 7 7v32c0 3.865993-3.134007 7-7 7l-2.652611-.000236.047 8.23 13.697351.000535v-142.406052zm-192.25-17.682-3.929241 1.531368c.221179.826566.339103 1.695344.339103 2.591663l-.000651 156.413861c.577804-.103841 1.172839-.158048 1.780535-.158048.618425 0 1.223739.056138 1.811123.163594zm-554.571162 144.067301c-9.204899 1.498231-16.510303 2.93902-21.865425 4.302809-1.431965.364679-2.708923.720073-3.825232 1.062563l.000717 8.053215.802102-.279888.274176-.093955c.236826-.080493.474652-.160178.713642-.239116.062703-.02071.125623-.041414.188624-.062066.241113-.07904.483491-.157349.727048-.234901l.189824-.060215c.236521-.074746.474954-.14903.714499-.222601.091669-.028154.183296-.056142.275086-.084025.183999-.055895.368587-.111355.553827-.166398.13234-.039325.265499-.078581.398994-.117623.184683-.054011.369504-.10747.554962-.160524.120471-.034463.241459-.068825.362716-.103015.609207-.171773 1.225087-.339176 1.847764-.502274.162636-.0426.325966-.084965.489761-.127036.14941-.038375.298674-.076372.448323-.114126.16006-.040381.321189-.080641.482761-.120622.16427-.040648.328693-.080933.493571-.120931l.449683-.10811c.18675-.044491.373777-.088548.561381-.132242l.43214-.099776c.190754-.043659.382253-.086982.574342-.129935.127071-.028414.254211-.056623.381608-.084672.222512-.04899.446149-.097559.670573-.145636.11609-.024869.232357-.049599.348834-.074197.264274-.055811.52943-.110901.795669-.165317.066742-.013641.133708-.027272.200743-.04086l.030047-.006087c.341729-.069182.685233-.137258 1.030509-.204231.066864-.01297.133667-.025873.200536-.038736l.77432-.146552.399754-.073812c.25263-.046255.506682-.092026.76166-.137223l.089869-.0159.597064-.104095c3.233803-.556607 6.614599-1.02239 10.14141-1.400053l1.26263-.130821c.339396-.033999.680116-.067201 1.022161-.099608.571651-.05416 1.142108-.105215 1.711369-.153163 1.096635-.092366 2.188485-.173178 3.275884-.242454.035574-.002267.070932-.004507.106286-.006736.770043-.048539 1.538055-.091301 2.303827-.128266.137636-.006644.275041-.013093.412373-.019355.695764-.031728 1.389692-.058661 2.081762-.080795.101932-.003261.204339-.006432.306705-.009499.305246-.009143.609721-.017342.913835-.024607.591346-.014129 1.181485-.024732 1.770255-.031804.2363-.002837.471886-.005102.707252-.006801.329694-.002379.658955-.003646.987785-.003802l.237721.000082c.166306.000193.3325.00067.498584.001433.186997.000858.374157.002079.561175.003664l.595721.006277.662766.00989c.123039.00212.246453.004408.369805.006854.284868.00565.569078.012141.852958.019478.156939.004057.313665.008369.47029.012939.193542.005648.387087.011696.580479.018139.247502.008246.494614.017135.741473.026671.168925.006525.337892.01336.50674.020498.180101.007615.359816.015564.539397.023857.224448.010365.448727.021271.672795.032715.160999.008223.322111.016736.483115.025528.226966.012393.453867.02535.680551.038862.201582.012017.40232.02443.602889.037278.171033.010957.342363.022259.513567.033879.213026.01446.425694.029401.638169.044835l.570731.042678.580046.045887c.1882.0153.376156.030982.563961.047053.197675.016915.395351.034277.592858.052071.21125.019032.421932.038523.632421.058507l.498694.048302.595404.060185c.178855.018491.35759.037343.536184.056553.240531.025872.481087.052424.721387.079628.130843.014813.261201.029772.391484.044922.24204.028146.48437.057021.726439.086561l.419483.05189c.253237.031748.50631.064242.759096.097468.12321.016194.246553.032589.369827.049158.251455.033798.502434.068295.753128.103516.14895.020927.297967.042133.446882.063596.223302.032184.446225.064921.668921.098234.141774.021209.283428.042646.42499.064316l.715538.111646c.075384.011986.150277.023963.225143.036005 1.682487.270638 3.351893.574427 5.008146.911427l.000418-9.049375c-15.214157-2.527069-30.379799-2.554677-45.539382-.087233zm7.280932-179.026816c-15.311471 2.838732-26.314463 6.853036-32.971427 11.672588l-.000065 151.986981c5.934182-1.467046 13.360845-2.889104 22.47755-4.37298 16.227856-2.641321 32.490255-2.777674 48.752205-.412693l.000527-160.535445c-10.673003-1.61037-23.430469-1.087608-38.25879 1.661549zm-.70698-113.8998789-.321813.0850402c-8.11568 2.2184776-14.256842 9.4447245-14.696762 18.3045973-.016404.3303589-.024609.6610738-.024609.9918397l-.001168 52.9304097c3.786409-1.035021 7.786751-1.946275 12.000206-2.736911l.000962-54.2431213c0-.6699117.016829-1.3397177.050472-2.0087837l.411642-4.0742356c.493359-3.23264 1.370309-6.3305899 2.58107-9.2488353zm26.288852-1.5878838-.210926.1355731c-4.30749 2.7970317-7.490532 7.2151928-8.646507 12.438292 2.118315-4.7413276 5.13622-9.0087693 8.857433-12.5738651zm-54.107642 752.2652777.1.05.097031.048855c.059205.029387.118701.058699.178486.087937l.431543.20737.441395.204817c.343941.156846.696663.311396 1.058172.463601l.368651.153147c.101561.041632.203793.083082.306698.124351l.086576.034615.025448.010307.061814.024368-.173838-.06929c.279371.11204.563694.222741.852972.332082l.137911.051883.119141.043957-.118-.044.119232.044934.252768.092066-.234384-.085242.232932.085736.142452.051506.069237.025263c.067628.024353.135512.048635.203652.072845l-.152889-.055108.235.084.188193.066302.246807.084698-.169488-.057776c.11193.038877.224535.077564.337815.11606l-.142166-.048534c.230375.079008.463569.157224.699583.234637l.024256.007613.494687.15986.527881.16491.273417.083338.156015.046892.077783.023278c.081866.024397.164039.048705.24652.072923l-.204562-.060434.233259.068233.241.07-.194522-.055777-.075175-.022022c.177479.052111.356383.103805.53671.15508l.056706.016097.209281.058622-.209-.059.239949.067974.195051.053026.357966.098989c.186613.050468.37468.100504.564201.150102.33975.088915.684287.176455 1.033505.26257.530951.130927 1.072368.258483 1.624602.382683 3.661398.823463 7.798325 1.499385 12.414008 2.007612.679701.074842 1.358251.144398 2.035652.208669l.048764.004618.019302.000757.029637.003859-.019637-.002859-.01-.001-.068066-.005375.078066.006375.250486.024391c.109487.010117.218945.020096.328372.029937l-.559221-.051469c.422684.039793.84492.077527 1.266712.113202l-.628349-.055061.449379.039802.347621.029198.121.01.151.012.495.039-.46067-.03562.453042.035906.507628.037714.145528.011303.187472.012697.260097.01901c.174039.012032.348002.023711.52189.035037l-.338533-.022489.519546.033442.012.001.032.002.340255.021637.518745.029363.067.004.015.001h-.002l.028.001.1334.008617c.200168.010995.400235.021519.600202.031573l-.259602-.01419-.019542-.000147-.406458-.022853-.048-.003-.026-.001.074.004.426.023.496482.025883-.23688-.011693.535694.025821.188704.007989.124799.006088c.204001.008912.407897.017332.611688.025262l-.389978-.015768.485491.018418.014.001.414.015.02.001.188.006.562187.01814.231813.00586.065153.002338.080847.001662.3076.008013-.1876-.005013.344793.00859c1.306598.028919 2.608878.037519 3.906878.025791.156077-.001411.311666-.003111.467193-.005102.365589-.004682.730837-.010979 1.095747-.018892l-.103611.001613.356-.008.151982-.003046-.033982.000046-.118.003-.252389.006387.370389-.009387.049-.001.138-.004h.012l.198-.006.16717-.003431.11483-.004569.045-.001.254-.008.115881-.003096-.040881.000096-.075.003-.192.006.267-.009.064-.002.676539-.023629-.380539.013629.286233-.009953.482767-.020047-.365.015.456913-.018488c.16006-.006933.320054-.01418.479982-.021741l-.449934.020436c.373843-.016287.74733-.034285 1.12046-.053994.334766-.017684.669245-.036745 1.003438-.057184l-.594859.033971.638-.037.601-.039.174-.012 1.451855-.106352c1.007741-.080803 2.012875-.174238 3.015422-.280309l1.066538-.117721 1.064588-.127274.49836-.062949.330237-.043395.239777-.031248c.155317-.020724.310572-.041755.465765-.063092l-.464542.06234.554171-.074698.123829-.018302.241641-.032816c.15164-.021452.30322-.043198.454741-.065237l-.193413.027969.290031-.043916.606-.09.52539-.079293-.45539.069293.515223-.078658.200777-.032342.248289-.038955c.169558-.027257.339042-.054884.508452-.08288l-.43625.07125.470776-.076961.100733-.017454.03-.005.339661-.056409.063339-.011591 1.236568-.216596c.432815-.07849.865143-.15941 1.296985-.242758l.10594-.020498c2.32713-.451376 4.640162-.97332 6.939335-1.565892l-.001029-7.920714c-14.125515 1.626194-27.143022 2.136206-39.061834 1.518876-11.163635-.578217-22.566898-2.696366-34.202737-6.336791l-.001228 3.443373.000898 3.231143.285987.227852c.13784.107662.278686.214643.42254.320933l.393593.283803.408013.280401.131969.087868c.103044.068148.201489.13216.301099.195894l-.148099-.095894.423143.269328c.598795.372143 1.237975.734572 1.917621 1.08678.023797.012333.047819.024743.071892.037141zm39.266744-663.135461c-.281563.03536-.564161.07158-.847794.108662l-.40795.053799.361147-.047673-.364788.048194-.074359.009479-.097.013h.005l.092-.013.078-.01-.17.023-.07.009-.176679.024047c-1.011328.137193-2.035613.2852-3.072816.44405-.205573.031485-.411653.063395-.618241.095731l.310736-.048828-.433496.068084c-.155474.024439-.311235.049119-.467283.07404l.463779-.074124-.535209.085545-.197791.031455-.193001.031511-.274128.044652-.347235.057126-.348167.057912c-.477797.079907-.958219.162026-1.44126.246362l-1.122429.200048-1.108382.205739-.287398.05465-.668.129-.353499.070196.168999-.033454c-.767994.151567-1.525475.307365-2.27245.467357-4.744408 1.016185-9.065198 2.201684-12.964278 3.547552l-.581274.202932-.574783.205263-.260715.094154.051922-.01843-.057922.02043-.046.017-.402986.149046c-.50459.187507-1.0016.377874-1.491033.571078l-.728469.291933-.247812.101342-.1137.046601-.152293.063354c-.124746.051857-.248972.103906-.37268.156148l.310973-.130502-.314557.132016-.228443.096984.227-.097-.258382.110367c-.08754.037386-.174817.07487-.261831.112451l.129379-.055723-.223166.095905-.051.022.006-.003.045-.019.093787-.040182-.138787.059182-.034.015-.034077.015561-.011923.004439.012-.005.034-.015.028-.012-.062.027-.011.005h-.001l-.114.05-.207698.091999.091698-.040999-.212754.094663.121056-.053664c-.362749.160381-.720812.322494-1.074193.48633-.192747.089361-.384309.179334-.574475.269818l-.101634.047853-.031178.015533-.111822.052467.112-.053-.110681.053566c-.08085.0389-.161444.077894-.241783.116981l-.086583.042209-.188953.092244-.182.09-.198.099-.215768.10919-.125232.06381-.164612.0841-.127388.0649-.114974.060367.211713-.109506c-.668903.344224-1.318921.695308-1.950075 1.053168-.054883.031118-.10942.062172-.163815.093276-.369963.211552-.733378.425453-1.090248.641687-.580706.35186-1.144082.709896-1.690148 1.074033-.037473.024989-.074186.049552-.11082.074142l.055367-.037167-.411642.278881-.458496.318877-.201456.143003-.054406.038239-.188891.136908c-.080248.058219-.160078.116584-.239489.175093l-.404722.302191-.000898.997808.736196-.32246c7.904316-3.422321 17.431409-6.126201 28.589723-8.194942 15.586065-2.889641 29.550661-3.638257 41.904209-2.174424l-.000326-4.865013c-1.831821-.262561-3.751545-.456397-5.758538-.580983-.341165-.021174-.683844-.040296-1.029026-.057427-.269555-.013378-.540537-.025536-.813044-.03648l-.558165-.020643-.56265-.017276c-.205162-.005661-.411161-.010654-.617997-.014977l.246415.005476-.335105-.007288-.158692-.003563-.213516-.003128-.166484-.002872-.118667-.001266-.087333-.001734-.091166-.000426.070166.000426-.213775-.001923c-.406594-.00394-.816329-.00536-1.229201-.004254l-.385915.001762-.039109-.000585-.633944.007106c.11263-.001453.225033-.002723.337209-.00381l.131735-.001296.165-.002h.032l-.197.002-.135902.001336c-.113491.001105-.227215.002396-.341171.003876-.147662.001905-.300721.004217-.455289.006887l.455289-.006887-.45775.00693-.017577.000305-.44266.008633c-.619711.013353-1.246148.032141-1.879296.056376l-1.048143.04481-1.05988.054637-.341621.019097-.146.008-.146471.009948-.296422.018414c-.539547.034148-1.083644.072012-1.632283.1136-.105672.00801-.211749.016177-.317996.024482l-.038828.002556-.414309.033624-.345691.028376.39-.033-.499489.042481.512117-.042486c-.285091.023119-.57139.04723-.858896.072333l.346779-.029847c-.281047.023838-.563256.048632-.846625.074381l-.042886.003138-.023493.002909-.039507.003091-.262818.024843c-.123119.011506-.246455.023191-.370009.035056l.103007-.009855-.22618.020956-.081.008.028-.003.053-.005.123173-.011101-.176173.016101-.065.007-.067151.006834c-.137378.013484-.275022.027189-.412934.041113l.416085-.041947.064-.006.037-.004-.101.01-.159156.01623c-.155116.01539-.310571.031061-.466366.047012l.209437-.021295-.387005.039582-.27891.028471.283-.029-.392491.041264c-.998482.106013-2.010751.223427-3.036765.352275z"/></svg>