<svg height="960" viewBox="0 0 960 960" width="960" xmlns="http://www.w3.org/2000/svg"><path d="m479.5 223c200.807883 0 376.42398 57.274872 436.206677 147.175593l.187323.288407.811376.77038c26.097302 24.93897 40.97595 53.817379 41.294624 85.410007v65.445456c0 7.95135-2.318745 15.361141-6.318405 21.589175l-.126595.191982-.291367.770738c-9.41227 24.444482-28.20511 46.107349-54.520044 65.052086l-.943014.675442c-27.416474 19.537569-63.39996 36.494548-106.274444 50.50216-84.735903 27.684243-194.164261 43.128574-310.026131 43.128574s-225.290228-15.444331-310.026131-43.128574c-42.874484-14.007612-78.85797-30.964591-106.2744442-50.50216-26.80917-19.104791-45.9387365-40.99204-55.46305798-65.727528l-.29136682-.770738-.12540334-.190126c-3.8886821-6.054494-6.18942208-13.225971-6.31959666-20.926237v-65.090193c0-31.993777 14.9190405-61.22747 41.3009696-86.435939l.8110304-.770505.1879281-.288335c59.1752739-88.98031 231.8252269-145.997451 430.0610069-147.151801zm-.906831 131.09197c-232.437606 0-422.6393507 63.863033-437.5941211 144.614912l.0000057 20.520469c.1774099.957964.3794826 1.913552.6059962 2.866684l.927888-.000145c13.2943706 56.341658 111.8911892 104.119275 250.0192282 127.158378.452809.078532.910048.15395 1.367716.229097l-1.367716-.229097c1.339927.223493 2.683575.444659 4.0309.663482l-2.663184-.434385c56.127422 9.215863 118.699028 14.360867 184.673287 14.360867 242.199595 0 438.541161-69.339958 438.541161-154.875131s-196.341566-154.875131-438.541161-154.875131zm0 9.781587c113.79786 0 220.41469 15.349931 299.720489 42.496916 39.192465 13.415882 70.308226 29.142863 92.049567 47.109991 20.528601 16.964916 32.098724 34.677304 32.098724 55.486637 0 20.809334-11.570123 38.521722-32.098724 55.486637-21.741341 17.967129-52.857102 33.69411-92.049567 47.109992-79.305799 27.146985-185.922629 42.496915-299.720489 42.496915s-220.41469-15.34993-299.720488-42.496915c-39.192465-13.415882-70.308226-29.142863-92.0495672-47.109992-20.528601-16.964915-32.0987246-34.677303-32.0987246-55.486637 0-20.809333 11.5701236-38.521721 32.0987246-55.486637 21.7413412-17.967128 52.8571022-33.694109 92.0495672-47.109991 79.305798-27.146985 185.922628-42.496916 299.720488-42.496916zm381.76589 107.343858-.264499 1.223147c-18.955129 80.377164-182.873373 139.451618-381.501391 139.451618-199.632792 0-364.203757-59.673631-381.777905-140.673029l.0120154-.001736c-13.3979007 11.666527-22.1028902 24.050724-22.1028902 37.749686 0 14.610728 9.9023122 27.725852 24.8392574 40.069802 20.0020804 16.529796 49.4387444 31.162702 85.7862164 43.604721 75.047507 25.689339 178.745007 41.419021 293.243306 41.419021s218.1958-15.729682 293.243306-41.419021c36.347472-12.442019 65.784137-27.074925 85.786217-43.604721 14.936945-12.34395 24.839257-25.459074 24.839257-40.069802 0-13.698962-8.704989-26.083159-22.10289-37.749686zm-381.76589-87.343858c-114.498299 0-218.195799 15.729683-293.243306 41.419022-27.768566 9.505393-51.503583 20.289515-70.079699 32.221273l-.007574-.715216c0 33.726078 36.836667 67.57393 102.968493 93.275819 68.327806 26.555348 161.17396 41.817725 260.362086 41.817725 99.188127 0 192.03428-15.262377 260.362086-41.817725 65.663937-25.520046 102.445781-59.071195 102.962964-92.559958-18.578161-11.932403-42.313178-22.716525-70.081744-32.221918-75.047506-25.689339-178.745007-41.419022-293.243306-41.419022zm0-76.840846c-121.245113 0-234.772242 16.946746-318.405516 46.463053-36.008402 12.70828-64.9803216 27.235632-86.0732959 42.746998-.0249787.043933-.0512277.087383-.077439.130839-20.0969127 17.828263-31.6898038 37.2711-32.9265405 57.649898 5.7623638-7.158566 12.6490631-14.065914 20.5859157-20.692897 24.0773268-20.103693 58.0944107-37.885967 100.1413777-52.735268 84.003012-29.666491 196.719216-46.503364 316.755498-46.503364 120.036283 0 232.752487 16.836873 316.755498 46.503364 42.046968 14.849301 76.064051 32.631575 100.141378 52.735268 8.833914 7.375997 16.366873 15.099316 22.497349 23.129321-.365246-18.246071-9.031735-35.768286-24.683701-52.085192-21.51486-18.564494-54.069658-35.97304-96.305007-50.878967-83.633275-29.516307-197.160403-46.463053-318.405517-46.463053zm.906831-44.032711c-148.103867 0-278.239051 32.62992-352.621555 81.86519 8.465647-3.535774 17.355623-6.948021 26.65307-10.229326 85.923438-30.324564 201.6736-47.603153 325.061654-47.603153 123.388055 0 239.138216 17.278589 325.061655 47.603153 11.123923 3.925915 21.664556 8.039272 31.592502 12.327929-73.829576-50.404047-205.548091-83.963793-355.747326-83.963793z"/></svg>