<?xml version="1.0" encoding="UTF-8"?>
<svg width="960px" height="960px" viewBox="0 0 960 960" version="1.1" xmlns="http://www.w3.org/2000/svg" xmlns:xlink="http://www.w3.org/1999/xlink">
    <!-- Generator: Sketch 60.1 (88133) - https://sketch.com -->
    <title>ZCTS-808/icon</title>
    <desc>Created with Sketch.</desc>
    <g id="ZCTS-808/icon" stroke="none" stroke-width="1" fill="none" fill-rule="evenodd">
        <path d="M347.519975,2 L345.214093,2 C263.461544,2 198.099701,7.82171212 148.944489,19.5823821 C117.897854,27.0104699 96,54.7655537 96,86.6884288 L96,873.414399 L96.0065418,874.265791 C96.4392526,905.814525 118.233836,933.069916 148.944489,940.417618 C198.099701,952.178288 263.461544,958 345.214093,958 C422.253217,958 481.650794,952.834233 523.69784,942.347239 C554.432456,934.681688 576,907.074269 576,875.398138 L576,84.6018624 C576,52.9257314 554.432456,25.3183115 523.69784,17.6527614 C482.071264,7.27063657 423.439434,2.10384746 347.519975,2 Z M345.214093,32 C420.018265,32 477.189876,36.9721759 516.43791,46.7610662 C533.809649,51.0937685 546,66.6979623 546,84.6018624 L546,875.398138 C546,893.302038 533.809649,908.906232 516.43791,913.238934 C477.189876,923.027824 420.018265,928 345.214093,928 C265.616829,928 202.459156,922.374611 155.925146,911.241079 L155.405935,911.113124 C138.322332,906.779802 126.245795,891.503925 126,873.854361 L126,873.311 L126,86.6884262 C126,68.6450609 138.377047,52.9574057 155.925146,48.7589212 C201.993815,37.7367243 264.355338,32.1130586 342.831108,32 L345.214093,32 Z" id="Combined-Shape" fill="#000000" fill-rule="nonzero"></path>
        <path d="M261,98 C248.184983,98 235.541562,98.8224155 223.07385,100.468302 C206.979497,102.592948 194.458628,115.505753 192.830905,131.65793 L192.613729,133.88176 C191.53649,145.283308 191,156.641036 191,168 C191,180.068353 191.605589,192.332214 192.815349,204.790493 C194.434716,221.466963 207.645645,234.656688 224.324695,236.249264 L226.571878,236.457196 C238.075503,237.487015 249.537242,238 261,238 C273.204791,238 285.574814,237.418452 298.109011,236.256456 C315.219791,234.670182 328.647988,220.896745 329.799484,203.751218 L329.974624,201.039902 C330.659007,190.001238 331,179.000629 331,168 C331,156.056903 330.598075,144.303298 329.793672,132.739581 C328.635285,116.08715 315.878251,102.570294 299.320594,100.451495 L297.354502,100.206441 C285.206585,98.7336572 273.103802,98 261,98 Z M261,128 C271.894766,128 282.791896,128.660572 293.694626,129.982317 L295.562012,130.215074 C297.878077,130.511532 299.70051,132.442511 299.865994,134.821429 C300.621814,145.686742 301,156.746135 301,168 C301,178.381127 300.678196,188.762687 300.034545,199.145122 L299.864378,201.779431 C299.702414,204.190303 297.7841,206.157936 295.339704,206.384547 C283.71872,207.461882 272.272506,208 261,208 C250.431046,208 239.861778,207.526958 229.290875,206.580699 L227.132077,206.380942 C224.793514,206.157582 222.906239,204.273336 222.674901,201.890984 C221.557828,190.387201 221,179.090568 221,168 C221,157.584198 221.492013,147.16807 222.476258,136.750063 L222.68434,134.619381 C222.912255,132.358469 224.70095,130.513784 227.000143,130.210263 C238.159413,128.737106 249.491328,128 261,128 Z" id="Rectangle" fill="#000000" fill-rule="nonzero"></path>
        <path d="M783,151 C775.013309,151 765.805694,151.39062 755.354267,152.166902 C717.374674,154.987893 688,186.625309 688,224.709497 L688,789.406122 L688.008763,790.427223 C688.589012,828.045254 717.793707,859.043231 755.354247,861.833096 L757.656326,861.999253 C767.163086,862.665106 775.604916,863 783,863 C790.986691,863 800.194306,862.60938 810.645733,861.833098 C848.206293,859.043231 877.410988,828.045254 877.991237,790.427223 L878,789.290503 L878,224.593878 L877.991237,223.572777 C877.410988,185.954746 848.206293,154.956769 810.645753,152.166904 L808.343674,152.000747 C799.217184,151.361528 791.072134,151.027321 783.892436,151 L783,151 Z M783,181 C790.185193,181 798.667355,181.359844 808.423599,182.084491 C830.492616,183.7237 847.65397,201.938828 847.994805,224.035465 L848.000446,224.825115 L848.000446,789.174885 L847.994805,789.964535 C847.65397,812.061172 830.492616,830.2763 808.423579,831.915511 L806.276511,832.07054 C797.417855,832.691492 789.652956,833 783,833 L781.381951,833 C774.5512,832.944688 766.60996,832.586478 757.576401,831.915509 L756.915815,831.861373 C735.165839,829.911609 718.342622,811.840205 718.005195,789.964535 L718,789.29 L718,224.709497 C718,202.331768 735.260149,183.742064 757.576421,182.084489 L759.723489,181.92946 C768.227799,181.333346 775.724102,181.025181 782.196309,181 L783,181 Z" id="Combined-Shape" fill="#000000" fill-rule="nonzero"></path>
    </g>
</svg>