<svg width="960" height="960" viewBox="0 0 960 960" fill="none" xmlns="http://www.w3.org/2000/svg">
<path d="M345.552 7.64819C355.013 3.27108 365.735 1.24149 376.865 2.25659L680.169 29.9197C711.8 32.8047 736 59.3394 736 91.0955V868.904C736 900.66 711.8 927.195 680.169 930.08L376.865 957.743C364.575 958.864 352.796 956.271 342.661 950.918L264.267 920.604C240.597 911.451 225 888.68 225 863.305V96.616C225 71.2989 240.528 48.5673 264.12 39.3748L345.396 7.70581C345.447 7.68573 345.5 7.66783 345.552 7.64819ZM371.293 42.0037C359.669 42.0422 350 51.5042 350 63.4333V896.566C350 908.595 359.831 918.116 371.585 917.996C372.129 917.987 372.679 917.958 373.232 917.908L676.535 890.246L677.05 890.192C686.119 889.147 693.359 882.5 695.413 873.901C695.472 873.652 695.527 873.402 695.577 873.15C695.79 872.093 695.927 871.01 695.978 869.905C695.993 869.573 696 869.239 696 868.904V91.0955C696 90.9222 695.998 90.7493 695.994 90.5769C695.98 90.0029 695.943 89.4343 695.885 88.8718C694.844 78.7912 686.805 70.6903 676.535 69.7537L373.232 42.0916C372.579 42.032 371.932 42.0055 371.293 42.0037ZM278.643 76.6453C270.423 79.8481 265 87.7749 265 96.616V863.306C265 872.167 270.447 880.108 278.693 883.297L330.551 903.349C330.189 901.145 330 898.879 330 896.566V63.4333C330 61.0329 330.206 58.6841 330.595 56.4011L278.643 76.6453ZM361 86.7009C361 69.1692 375.97 55.3729 393.443 56.8005L657.443 78.3699C673.012 79.6421 685 92.6492 685 108.27V851.729C685 867.35 673.013 880.357 657.443 881.63L393.443 903.199C375.97 904.627 361 890.831 361 873.299V86.7009ZM381 697.713V873.299C381 879.143 385.99 883.741 391.814 883.265L655.814 861.696C661.004 861.272 665 856.936 665 851.729V687.3L381 697.713ZM529 729C551.692 729 566 751.715 566 774C566 796.284 551.693 819 529 819C506.307 819 492 796.284 492 774C492 751.715 506.308 729 529 729ZM529 749C521.869 749 512 757.625 512 774C512 790.375 521.869 799 529 799C536.131 799 546 790.375 546 774C546 757.625 536.131 749 529 749ZM381 677.699L665 667.286V491H381V677.699ZM487.756 556.189C492.07 552.741 498.362 553.442 501.811 557.756L529.135 591.936L556.159 557.794C559.587 553.463 565.876 552.732 570.206 556.159C574.536 559.587 575.268 565.875 571.841 570.206L537.016 614.206C535.124 616.595 532.246 617.992 529.198 618C526.246 618.007 523.447 616.71 521.545 614.465L521.363 614.244L486.189 570.244C482.741 565.93 483.442 559.638 487.756 556.189ZM381 471H665V292.726L381 281.329V471ZM529.198 344C532.246 344.007 535.124 345.404 537.016 347.794L571.841 391.794C575.268 396.124 574.536 402.413 570.206 405.841C565.876 409.268 559.587 408.536 556.159 404.206L529.135 370.063L501.811 404.244C498.362 408.558 492.07 409.259 487.756 405.81C483.442 402.362 482.741 396.069 486.189 391.756L521.363 347.756L521.545 347.535C523.447 345.29 526.246 343.993 529.198 344ZM391.814 76.7341C385.99 76.2583 381 80.8572 381 86.7009V261.312L665 272.71V108.27C665 103.063 661.004 98.7275 655.814 98.3035L391.814 76.7341ZM528 133C533.523 133 538 137.477 538 143V211C538 216.523 533.523 221 528 221C522.477 221 518 216.523 518 211V143C518 137.477 522.477 133 528 133Z" fill="black"/>
</svg>
