<?xml version="1.0" encoding="utf-8"?>
<!-- Generator: Adobe Illustrator 20.0.0, SVG Export Plug-In . SVG Version: 6.00 Build 0)  -->
<svg version="1.1" id="Layer_1" xmlns="http://www.w3.org/2000/svg" xmlns:xlink="http://www.w3.org/1999/xlink" x="0px" y="0px"
	 viewBox="0 0 275.7 578.7" style="enable-background:new 0 0 275.7 578.7;" xml:space="preserve">
<style type="text/css">
	.st0{fill:#1A1A18;}
	.st1{fill-rule:evenodd;clip-rule:evenodd;fill:#1A1A18;}
</style>
<g>
	<path class="st0" d="M230.3,0h-185C20.3,0,0,20.3,0,45.4v488c0,25,20.3,45.4,45.4,45.4h185c25,0,45.4-20.3,45.4-45.4v-488
		C275.7,20.3,255.3,0,230.3,0z M270,533.3c0,21.9-17.8,39.7-39.7,39.7h-185c-21.9,0-39.7-17.8-39.7-39.7v-488
		c0-21.9,17.8-39.7,39.7-39.7h185c21.9,0,39.7,17.8,39.7,39.7V533.3z"/>
	<path class="st0" d="M230.3,9.9h-185C25.8,9.9,9.9,25.8,9.9,45.4v488c0,19.5,15.9,35.4,35.4,35.4h185c19.5,0,35.4-15.9,35.4-35.4
		v-488C265.7,25.8,249.9,9.9,230.3,9.9z M262.9,533.3c0,18-14.6,32.6-32.6,32.6h-185c-18,0-32.6-14.6-32.6-32.6v-488
		c0-18,14.6-32.6,32.6-32.6h185c18,0,32.6,14.6,32.6,32.6V533.3z"/>
</g>
<g>
	<circle class="st0" cx="61.3" cy="299.1" r="3.1"/>
	<circle class="st0" cx="61.3" cy="282.1" r="3.1"/>
	<circle class="st0" cx="61.3" cy="265.1" r="3.1"/>
	<circle class="st0" cx="61.3" cy="248.1" r="3.1"/>
	<circle class="st0" cx="78.4" cy="299.1" r="3.1"/>
	<circle class="st0" cx="78.4" cy="282.1" r="3.1"/>
	<circle class="st0" cx="78.4" cy="265.1" r="3.1"/>
	<circle class="st0" cx="78.4" cy="248.1" r="3.1"/>
	<circle class="st0" cx="95.4" cy="299.1" r="3.1"/>
	<circle class="st0" cx="95.4" cy="282.1" r="3.1"/>
	<circle class="st0" cx="95.4" cy="265.1" r="3.1"/>
	<circle class="st0" cx="95.4" cy="248.1" r="3.1"/>
	<circle class="st0" cx="112.4" cy="299.1" r="3.1"/>
	<circle class="st0" cx="112.4" cy="282.1" r="3.1"/>
	<circle class="st0" cx="112.4" cy="265.1" r="3.1"/>
	<circle class="st0" cx="112.4" cy="248.1" r="3.1"/>
	<circle class="st0" cx="129.4" cy="299.1" r="3.1"/>
	<circle class="st0" cx="129.4" cy="282.1" r="3.1"/>
	<circle class="st0" cx="129.4" cy="265.1" r="3.1"/>
	<circle class="st0" cx="129.4" cy="248.1" r="3.1"/>
	<circle class="st0" cx="146.4" cy="299.1" r="3.1"/>
	<circle class="st0" cx="146.4" cy="282.1" r="3.1"/>
	<circle class="st0" cx="146.4" cy="265.1" r="3.1"/>
	<circle class="st0" cx="146.4" cy="248.1" r="3.1"/>
	<circle class="st0" cx="163.4" cy="299.1" r="3.1"/>
	<circle class="st0" cx="163.4" cy="282.1" r="3.1"/>
	<circle class="st0" cx="163.4" cy="265.1" r="3.1"/>
	<circle class="st0" cx="163.4" cy="248.1" r="3.1"/>
	<circle class="st0" cx="180.4" cy="299.1" r="3.1"/>
	<circle class="st0" cx="180.4" cy="282.1" r="3.1"/>
	<circle class="st0" cx="180.4" cy="265.1" r="3.1"/>
	<circle class="st0" cx="180.4" cy="248.1" r="3.1"/>
	<circle class="st0" cx="197.4" cy="299.1" r="3.1"/>
	<circle class="st0" cx="197.4" cy="282.1" r="3.1"/>
	<circle class="st0" cx="197.4" cy="265.1" r="3.1"/>
	<circle class="st0" cx="197.4" cy="248.1" r="3.1"/>
	<circle class="st0" cx="214.4" cy="299.1" r="3.1"/>
	<circle class="st0" cx="214.4" cy="282.1" r="3.1"/>
	<circle class="st0" cx="214.4" cy="265.1" r="3.1"/>
	<circle class="st0" cx="214.4" cy="248.1" r="3.1"/>
</g>
<g>
	<circle class="st0" cx="214" cy="548.2" r="3.1"/>
	<circle class="st0" cx="214" cy="536.9" r="3.1"/>
	<circle class="st0" cx="225.4" cy="548.2" r="3.1"/>
	<circle class="st0" cx="225.4" cy="536.9" r="3.1"/>
	<circle class="st0" cx="242.5" cy="542.5" r="9.2"/>
</g>
<path class="st0" d="M137.8,347c-20.4,0-37,16.6-37,37c0,20.4,16.6,37,37,37c20.4,0,37-16.6,37-37C174.9,363.6,158.3,347,137.8,347z
	"/>
<g>
	<path class="st0" d="M137.8,440.6c-25.2,0-45.7,20.5-45.7,45.7s20.5,45.7,45.7,45.7s45.7-20.5,45.7-45.7S163,440.6,137.8,440.6z
		 M137.8,529.1c-23.6,0-42.8-19.2-42.8-42.8s19.2-42.8,42.8-42.8c23.6,0,42.8,19.2,42.8,42.8S161.5,529.1,137.8,529.1z"/>
	<path class="st0" d="M137.8,450.7c-19.7,0-35.6,16-35.6,35.6s16,35.6,35.6,35.6c19.7,0,35.6-16,35.6-35.6S157.5,450.7,137.8,450.7z
		 M137.8,516.3c-16.5,0-30-13.4-30-30s13.4-30,30-30c16.5,0,30,13.4,30,30S154.4,516.3,137.8,516.3z"/>
</g>
<g>
	<path class="st1" d="M137.8,61.4c-41.7,0-75.7,33.9-75.7,75.7s33.9,75.7,75.7,75.7s75.7-33.9,75.7-75.7S179.6,61.4,137.8,61.4z
		 M137.8,173.6c-20.1,0-36.5-16.4-36.5-36.5s16.4-36.5,36.5-36.5c20.1,0,36.5,16.4,36.5,36.5S157.9,173.6,137.8,173.6z"/>
	<path class="st1" d="M137.8,107.1c-16.6,0-30,13.4-30,30c0,16.6,13.4,30,30,30s30-13.4,30-30C167.8,120.5,154.4,107.1,137.8,107.1z
		 M154.6,137.1c0,9.3-7.5,16.8-16.8,16.8c-9.3,0-16.8-7.5-16.8-16.8s7.5-16.8,16.8-16.8C147.1,120.3,154.6,127.8,154.6,137.1z"/>
	<path class="st1" d="M137.8,121.6c-8.5,0-15.5,7-15.5,15.5s7,15.5,15.5,15.5c8.5,0,15.5-7,15.5-15.5S146.4,121.6,137.8,121.6z
		 M143.5,138.8c-3.2,0-5.8-2.8-5.8-6.2s2.6-6.2,5.8-6.2s5.8,2.8,5.8,6.2S146.7,138.8,143.5,138.8z"/>
</g>
</svg>
