<?xml version="1.0" encoding="utf-8"?>
<!-- Generator: Adobe Illustrator 20.0.0, SVG Export Plug-In . SVG Version: 6.00 Build 0)  -->
<svg version="1.1" id="Layer_1" xmlns="http://www.w3.org/2000/svg" xmlns:xlink="http://www.w3.org/1999/xlink" x="0px" y="0px"
	 viewBox="0 0 265.2 263.3" style="enable-background:new 0 0 265.2 263.3;" xml:space="preserve">
<g>
	<path d="M169.5,88.5c2.4,13.7,22,13.4,22.9-4.1c0.9-17.5-19.2-21.6-23-6l9.4,4.7C176.1,85.9,173.1,86.8,169.5,88.5z"/>
	<path d="M238.8,62.2c-7.5-2.4-7.8-7.2-16.5-20.5c-12.3-18.5-27.7-31.3-49-38C133.3-8.7,91,11.7,70.7,39.8
		C57.6,58,49.3,83.1,52.3,106.7c1.3,10.3,2.2,16,2.2,27.8c-6.9,0-12.5,0.3-18.1-0.9c-10.1-2.1-20.5-4-29.7,5.1
		c-5,5.5-6.7,11.7-6.7,17.7c1.1-1.2,2.3-6.8,3.1-8.4c1.2-2.6,2.3-5.6,4.8-8c13.2-12.8,29.8-1.4,48.4-3.7c2.7-13.2-4.8-34.2-1.9-52.8
		C66.4,4.4,169.7-31,219.4,40.6c4.6,6.6,6.4,11.1,10.5,18.5c4.3,7.7,27.6,4.1,30.5,25.6c1.7,12.2-4.9,16.9-7.4,20.9
		c3.2,7,4.4,13,1.1,20.6c-2.8,6.4-7.1,9-12.6,12.3c-9.5,5.8-8.2,13.5-18.2,32.8c-9.6,18.6-33.3,44.1-52.4,48.7
		c0.5,29.2-4.4,37.3-34.4,36.3c-11.7-0.4-22.4,2.6-30.6-5.2c-9.2-8.8-6.3-12.8-8.1-26.9c-24.3-9.6-32-10.7-55.8-25.2
		C7,177.8,7.6,172.4,3,165.9c-0.8-1.1-1.4-3.8-2.5-5c0,7.1,4.9,13.1,9.3,17.3l1,1c11.3,11,28.5,22.8,42.6,30.4
		c11.3,6.1,30.5,16.1,43,19c0,17.5,2.4,17.8,11.2,26.8c9,9.1,15,8.3,29.9,7.4c5-0.3,19.5,3.9,30.6-5.4c8.9-7.5,8.3-15.2,8.3-30.7
		c18.3-9.7,28.9-17,42-34c6.4-8.3,14-22.6,18.3-32.7c1.4-3.3,1.9-6.5,3.3-9.7c1.7-4-1.1-0.6,7-6c6.2-4.1,9.6-6,12.7-13.3
		c4.1-9.3,0.4-13.9-1.3-21.3C267.6,103.4,272.4,72.9,238.8,62.2z"/>
	<path d="M24.6,155.8c0.2,4.7,15.1,14.8,19.1,17.5c13,9,33.7,19.6,48.8,25.2c7.2,2.7,23.7,5.8,28.4,8l0.4,27.5l8.8-0.1l0.2-27.5
		l9.8-0.2l-0.1,28.1l9.6,0.1l-0.1-30l5-0.9l0-0.1c-1-10.2-0.4-19.1,2-26.9c2.4-7.9,6.6-14.6,12.7-20.3c5.8-5.4,11.8-9.2,18.9-11.9
		c7-2.7,15-4.4,25-5.8l0.7-0.1c1.2-4.2,3.1-11.2,7.1-13.4c4.4-2.1,11.3-5.2,13.5-8.5c-3.3-4.4-7.3-8.1-10.2-13.1l14.8-16
		c-9.4-3.1-13.3-3.4-23.4-3.5c-5.1-11.7-2.6-16.6-16.1-34.1C169.5,11,117.8,23.3,98,45c-6.8,7.4-13.6,18.2-18.2,30.9
		c-5.6,15.5-2.9,27.1-0.9,43.1C84.6,163.8,61.5,161.9,24.6,155.8z M167.3,53.1c15.7-5.7,27.2,7.7,29.6,20
		c2.9,14.8-5.4,29.2-16.3,32.5C150.9,114.8,137.5,63.9,167.3,53.1z"/>
	<path d="M201.4,143.2L201.4,143.2l-0.2,0.1l-0.6,0.1l-0.2,0l-0.1,0l-0.1,0l-0.2,0l-0.1,0l-0.1,0l-0.2,0l-0.1,0l-0.1,0l-0.2,0
		l-0.1,0l-0.1,0l-0.2,0l0,0l-0.1,0l-0.2,0l0,0l-0.1,0l-0.2,0l0,0l-0.2,0l-0.2,0l0,0l-0.2,0l-0.2,0l0,0l-0.2,0l-0.2,0l0,0l-0.2,0
		l-0.2,0l0,0l-0.2,0l-0.1,0l0,0l-0.2,0l-0.1,0l0,0l-0.2,0l-0.1,0l0,0l-0.2,0l-0.1,0l-0.1,0l-0.2,0l-0.1,0l-0.1,0l-0.2,0l-0.1,0
		l-0.1,0l-0.2,0l-0.1,0l-0.1,0l-0.2,0l-0.1,0l-0.1,0l-0.2,0l-0.1,0l-0.1,0l-0.2,0.1l0,0l-0.1,0l-0.2,0.1l0,0l-0.1,0l-0.2,0.1l0,0
		l-0.1,0l0,0l-0.2,0.1l0,0l-0.2,0.1l0,0l-0.1,0l-0.2,0.1l0,0l-0.2,0.1l-0.3,0.1l-0.1,0l-0.1,0l0,0l0,0l-0.3,0.1l0,0l-0.2,0.1l-0.1,0
		l0,0l-0.2,0.1c-0.5,0.2-1.1,0.4-1.6,0.6c-6.7,2.6-12.4,6.2-18,11.4c-5.7,5.3-9.7,11.6-11.9,19c-2.1,6.9-2.7,14.8-2.1,23.8
		c2.2-1.1,4.1-2,6-2.8c4.2-1.9,7.8-3.5,12-6.4c3.2-2.2,6.1-4.3,8.7-6.6c2.6-2.3,4.9-4.6,6.9-7.2c3.4-4.3,8.1-10.4,12.3-17.2
		c3.8-6.1,7-12.8,8.5-19.3c-3.6,0.5-6.9,1.1-9.9,1.8h0L201.4,143.2z"/>
</g>
</svg>
