<svg width="960" height="960" viewBox="0 0 960 960" fill="none" xmlns="http://www.w3.org/2000/svg">
<path d="M327.976 62.1C342.719 60.8653 361.179 60.892 379.609 64.0951C397.833 67.2623 417.731 73.8319 433.659 87.0102C452.243 102.385 450.547 126.093 444.084 140.859C415.872 205.308 379.471 308.571 356.472 422.715C336.414 522.26 326.849 628.638 340.852 724.261C376.404 676.568 433.66 575.209 469.795 443.529C516.968 271.623 558.198 141.579 592.161 85.8725C600.285 72.548 614.343 63.4529 630.59 62.3823C655.224 60.7591 693.685 61.8988 727.945 74.353C752.218 83.1765 761.452 108.088 758.142 128.858C750.966 173.88 742.327 237.737 736.01 289.617C780.52 233.983 843.843 159.939 909.461 100.642C915.7 95.0039 924.675 93.5705 932.36 96.9838C940.046 100.397 945 108.018 945 116.427V255.778C945 261.825 942.427 267.587 937.923 271.622C884.55 319.446 744.024 504.09 626.625 850.138C621.072 866.505 606.584 882.165 585.354 883.884C565.799 885.468 541.03 883.862 516.969 876.47C493.052 869.123 468.391 855.577 451.145 832.206C446.158 837.946 440.982 843.587 435.649 849.028C418.769 866.251 399.59 882.283 379.25 893.282C358.988 904.238 335.88 911.083 312.193 907.014C264.98 898.904 226.751 880.114 200.886 839.252C181.35 808.391 170.042 766.661 164.928 711.591L46.792 829.314C40.7016 835.383 31.5568 837.189 23.6162 833.892C15.6756 830.595 10.5 822.842 10.5 814.244V681.276C10.5 675.496 12.8519 669.966 17.0137 665.956C59.5984 624.922 153.37 515.92 191.33 407.567C201.756 337.701 234.928 181.773 290.084 86.4086C297.835 73.0065 311.653 63.4671 327.976 62.1ZM372.324 106.017C358.288 103.578 343.584 103.492 331.526 104.501C329.965 104.632 328.151 105.578 326.917 107.711C275.51 196.595 243.079 347.802 233.13 415.762C233.107 415.915 233.083 416.068 233.058 416.22L233.172 416.242C203.017 576.537 205.165 656.145 205.165 675.425H205.112C208.296 745.327 219.367 788.896 236.837 816.494C254.319 844.111 279.915 858.297 319.396 865.08C329.12 866.75 340.59 864.758 353.768 858.512C338.875 842.252 316.626 815.008 308.148 778.74C307.807 777.843 307.523 776.918 307.303 775.968C280.815 661.752 291.154 531.467 314.76 414.311C338.422 296.876 375.812 190.714 405.104 123.796C405.973 121.811 406.105 120.199 406.031 119.385C397.951 112.909 386.274 108.442 372.324 106.017ZM713.408 114.342C689.679 105.716 661.671 103.78 640.533 104.49C634.588 176.431 622.19 288.562 601.515 405.712C579.614 529.803 548.28 660.405 505.097 754.805L485.684 801.543C485.014 803.156 484.837 804.559 484.89 805.497C484.938 806.347 485.147 806.624 485.181 806.67C495.443 820.73 511.208 830.188 529.463 835.796C547.726 841.407 567.017 842.679 581.92 841.472C582.333 841.439 582.937 841.285 583.766 840.556C584.674 839.757 585.685 838.374 586.331 836.468C593.905 814.142 601.583 792.458 609.333 771.412C657.02 618.235 671.212 451.692 685.568 359.789C689.181 315.909 704.561 194.707 716.122 122.161C716.511 119.72 716.068 117.623 715.39 116.276C714.787 115.08 714.112 114.598 713.408 114.342ZM365.526 839.529H365.527H365.526ZM352.708 823.877V823.876V823.877ZM345.009 784.422C344.393 785.01 343.786 785.579 343.189 786.128C343.786 785.579 344.393 785.01 345.009 784.422ZM873.117 278.271C872.124 279.442 871.122 280.631 870.111 281.84L871.621 280.041C872.122 279.446 872.621 278.856 873.117 278.271Z" fill="black"/>
</svg>
