<svg height="960" viewBox="0 0 960 960" width="960" xmlns="http://www.w3.org/2000/svg"><path d="m537 10c227.883241 0 410 211.649207 410 470s-182.116759 470-410 470c-30.052711 0-59.708382-3.708052-88.582782-10.987389l-1.322218-.337611-.243164-.031621c-1.810422-.2589-3.630251-.645716-5.45025-1.167393l-.779983-.231853-118.495603-36.486133-1.444134-.3873c-8.334055-2.266166-16.588252-4.808559-24.752488-7.622308l-1.436378-.500392-6.733121-2.079589c-2.546398-.786629-4.969183-1.811071-7.247237-3.044239l-.356642-.196172-4.361716-1.74157c-155.419994-63.241717-260.630335-220.864444-262.7613019-399.650303l-.0329821-5.536127c0-197.996782 126.398581-369.897441 305.390276-419.7400666l.032451-.0059104c16.203008-5.0361281 38.369702-11.934848 113.520161-35.3276524l2.317125-.721274c2.571843-.8005631 5.147697-1.3291945 7.701092-1.6053395l.457895-.0447571.632134-.1713108c30.008964-8.0530484 60.9013-12.2329723 92.239093-12.3836892zm0 40-6.010651.0555912c-.062638.0011593-.125272.0023368-.187901.0035324-1.945541.0371404-3.887204.0917239-5.825105.1636259l5.825105-.1636259c-2.068248.0394815-4.132368.0986851-6.192228.1774561l.367123-.0138302c-2.039492.0756713-4.074818.1705246-6.105846.2844096l5.738723-.2705794c-2.03022.0776376-4.056301.1742834-6.078116.2897894l.339393-.01921c-2.061189.1155762-4.117953.2507536-6.170157.4053753l5.830764-.3861653c-1.972214.1126724-3.94037.2432909-5.904347.3917178l.073583-.0055525c-2.014145.1517542-4.023897.3222381-6.02913.5113034l5.955547-.5057509c-1.998601.1510437-3.992875.3205294-5.982698.5083121l.027151-.0025612c-1.992568.1878712-3.980673.3940898-5.96419.6185104l5.937039-.6159492c-2.009169.1896083-4.013799.3978711-6.013763.6246392l.076724-.00869c-1.967065.222559-3.929617.4630193-5.887535.7212388l5.810811-.7125488c-2.0211.2291648-4.037434.477228-6.04887.7440356l.238059-.0314868c-1.985067.2618-3.96537.5418551-5.940781.8400174l5.702722-.8085306c-1.995166.2646497-3.985513.5477418-5.970911.8491261l.268189-.0405955c-1.98545.2996775-3.965959.6176466-5.941397.9537572l5.673208-.9131617c-1.958024.2972288-3.911235.6122488-5.859508.9449159-1.876247.3203675-3.748121.6571402-5.615303 1.0101539l5.615303-1.0101539c-1.966127.3357158-3.927227.6894036-5.883171 1.0609151l.267868-.0507612c-1.943355.3674151-3.881629.7524235-5.814696 1.15488l5.546828-1.1041188c-1.968154.3738308-3.931088.7657087-5.888672 1.1754826l.341844-.0713638c-1.955669.4071623-3.90601.832183-5.850892 1.2749118l5.509048-1.203548c-1.946382.4074291-3.887475.8325501-5.823151 1.2752145l.314103-.0716665c-1.95137.4442057-3.897246.9062378-5.837495 1.3859445l5.523392-1.314278c-1.911933.4372347-3.818581.8915851-5.719822 1.3629082l.19643-.0486302c-1.94012.4796745-3.874616.9770212-5.803355 1.4918883l5.606925-1.4432581c-1.891332.4688668-3.777312.9545298-5.657819 1.4568483l.050894-.0135902c-1.870118.4992182-3.734825 1.0149078-5.594002 1.5469305l5.543108-1.5333403c-1.942902.5189853-3.879962 1.0557496-5.811047 1.6101378l.267939-.0767975c-10.753216 3.0771437-21.321436 6.7006764-31.681612 10.8438122l.004962.0104297c-.08586 2.0459246-1.432804 3.9121232-3.499097 4.5609324-10.327841 3.2429084-20.45658 6.9810091-30.367738 11.1888985-127.296863 67.9806474-215.691779 217.4645264-215.691779 390.9421024 0 173.436396 88.352955 322.890486 215.604282 390.888022 3.832962 1.636554 7.701929 3.197946 11.603005 4.688039 1.256437.479921 2.207515 1.411674 2.738779 2.539331 19.995678 9.521921 40.871312 17.058192 62.443349 22.409372.094596.023466.189577.046981.284572.070455l-.284572-.070455c1.92606.47778 3.857672.938142 5.794707 1.380935l-5.510135-1.31048c1.925282.475737 3.856102.934071 5.792332 1.374855l-.282197-.064375c1.934304.442169 3.874015.866819 5.819008 1.273803l-5.536811-1.209428c1.938496.4413 3.882414.865007 5.831627 1.270974l-.294816-.061546c1.953278.408718 3.911881.799618 5.875681 1.172552l-5.580865-1.111006c1.937469.403521 3.880168.789513 5.827973 1.157832l-.247108-.046826c1.963677.372909 3.93255.727854 5.90649 1.064684l-5.659382-1.017858c1.921877.363416 3.848724.709626 5.780421 1.038488l-.121039-.02063c1.945238.331932 3.895397.646272 5.850354.942877l-5.729315-.922247c1.981881.337406 3.968867.656552 5.960827.957286l-.231512-.035039c1.981406.300618 3.967741.583018 5.958875.847049l-5.727363-.81201c1.971808.297692 3.948489.577342 5.929917.838804l-.202554-.026794c2.004346.265783 4.013556.512954 6.027498.74136l-5.824944-.714566c1.967715.259652 3.940111.501367 5.917065.725l-.092121-.010434c3.969344.450173 7.95707.827452 11.962177 1.13067.051954.003934.10366.007836.155368.011725l-.155368-.011725c1.992507.150849 3.989315.283368 5.990301.397413l-5.834933-.385688c2.026119.152408 4.056682.285862 6.091558.400212l-.256625-.014524c2.024754.115401 4.053785.211886 6.086967.289307l-5.830342-.274783c2.031359.114153 4.067016.209267 6.106843.285194l-.276501-.010411c2.034456.07747 4.073066.135853 6.115703.174998l-5.839202-.164587c2.024766.075365 4.05364.131825 6.086496.169232l5.97553.054943c204.345357 0 370-192.517558 370-430 0-235.107618-162.358115-426.1451524-363.881373-429.9423923zm-220.459712 805.660942.007312.165483c.000599.516107-.078771 1.036411-.243067 1.542025 2.103158.676331 4.216021 1.330835 6.336596 1.96572-2.047324-1.202155-4.080168-2.427795-6.100841-3.673228zm-28.259501-742.732929-.404412.172386c-137.514993 57.472509-234.876375 200.078558-234.876375 366.899601 0 166.976385 97.54279 309.692657 235.260636 367.059933-112.320227-76.144691-183.260636-214.441952-183.260636-367.059933 0-152.615851 70.937492-290.922279 183.280787-367.071987zm-29.406029 35.245641-3.062297 2.696226c-87.290992 77.634981-140.812461 197.913022-140.812461 329.13012 0 132.795788 54.817774 254.379174 143.960442 331.899224-86.132892-79.459072-138.960442-200.218745-138.960442-331.899224 0-131.673743 52.823674-252.388128 138.874758-331.826346zm12.963144 1.750943-.021572.036115c-87.615904 77.385081-141.81633 198.015026-141.81633 330.039288 0 131.96908 54.153677 252.59464 141.781723 330.006545l-.866811-.928324c-83.962026-79.190972-135.914912-198.490824-135.914912-329.078221 0-130.844473 52.134337-250.020915 135.904282-329.066332.308514-.338789.620828-.674222.93362-1.009071zm-104.563098 186.481258-.903906 2.851491c-13.866626 44.1654-21.370898 91.602951-21.370898 140.742654 0 50.221974 7.842274 98.717267 22.333453 143.778076-13.191789-45.174991-20.333453-93.535325-20.333453-143.778076 0-50.17369 7.122044-98.470133 20.274804-143.594145zm269.488753 120.396966c12.77381 0 23.129029 10.355219 23.129029 23.129028 0 12.77381-10.355219 23.129029-23.129029 23.129029h-243.634875c-4.142136 0-7.5-3.357864-7.5-7.5 0-4.142135 3.357864-7.5 7.5-7.5h243.634875c4.489539 0 8.129029-3.63949 8.129029-8.129029 0-4.489538-3.63949-8.129028-8.129029-8.129028h-243.634875c-4.142136 0-7.5-3.357865-7.5-7.5 0-4.142136 3.357864-7.5 7.5-7.5zm256.039634.095156c127.811999.780724 193.412424 1.17222 196.325497 1.17222 4.14213 0 7.5 3.357864 7.5 7.5s-3.35787 7.5-7.5 7.5c-2.965296 0-68.279064-.389785-196.417082-1.172061-4.43691-.027095-8.055687 3.547763-8.082774 7.984668l-.000144.049045c0 4.411681 3.576368 7.988055 7.988048 7.988055l.072378-.000328 196.371613-1.779339c4.141965-.037531 7.530116 3.289771 7.567961 7.431737.037217 4.141965-3.290085 7.530116-7.432051 7.567647l-196.371613 1.779339-.146451.000944h-.061837c-12.695952 0-22.988048-10.292103-22.988048-22.988055v-.140618c.078084-12.721028 10.453476-22.970499 23.174503-22.893254zm-370.194608-356.219583-2.311232.698093c-1.532869.470643-3.061649.951556-4.586272 1.442664.216864.606357.308859 1.235938.285622 1.856257 2.188696-1.356963 4.393234-2.688807 6.611882-3.997014z"/></svg>