<?xml version="1.0" encoding="UTF-8"?>
<svg width="960px" height="960px" viewBox="0 0 960 960" version="1.1" xmlns="http://www.w3.org/2000/svg" xmlns:xlink="http://www.w3.org/1999/xlink">
    <title>dk.denfrievilje.deviconnect/ assets/icon</title>
    <g id="dk.denfrievilje.deviconnect" stroke="none" fill="none" fill-rule="nonzero">
        <path d="M318.832507,362 L318.832507,397.687107 L239.978591,397.687107 L239.978591,438.199048 C266.430523,438.199048 292.799008,438.115602 319,438.199048 L319,472.222195 L240.146084,472.222195 L240.146084,516.228241 L318.832507,516.228241 L318.832507,551 L189,551 L189,362 L318.915953,362 L318.832507,362 Z M381.406532,362.16615 C385.841785,376.538443 390.361062,390.99385 394.796315,405.366161 C399.315591,419.904364 403.750844,434.443167 408.353544,448.898634 C412.872821,463.270765 417.056603,477.642897 421.659903,491.932292 L422.579963,491.766219 C436.137193,448.565891 449.694423,405.449197 463.251653,362.083078 L498.734276,362.083078 C498.734276,363.246152 498.901724,364.243076 498.901724,365.240025 C498.901724,375.624627 498.734276,386.009229 498.985147,396.310735 C499.152594,403.455373 497.89764,410.18459 495.553978,416.913808 C480.992664,459.117164 466.682822,501.403197 452.204932,543.68923 C451.368296,546.098175 450.615083,548.590456 449.86187,551 L390.77938,551 C389.440402,547.012471 388.018,542.85827 386.594998,538.787406 C381.239085,522.920026 375.967195,506.969311 370.611282,491.101331 C365.255369,475.150616 359.816033,459.199901 354.46012,443.249185 C350.694056,432.033623 346.844569,420.901397 343.413399,409.603038 C342.241868,405.864617 342.157845,401.710776 342.074421,397.723068 C341.906974,386.341553 342.074421,374.876943 342.074421,363.49538 C342.074421,363.079996 342.157845,362.664612 342.241868,362 L381.155661,362 L381.406532,362.16615 Z M573,362 L522,362 L522,551 L573,551 L573,362 Z M114.045059,486.177271 C109.122566,502.985404 97.8595276,512.75574 80.5898151,515.157243 C72.8306206,516.233408 64.8213225,515.984832 56.9791391,516.316466 C56.4785729,516.316466 55.9780067,516.15035 55.1436899,515.984832 L55.1436899,398.243888 C55.1436899,398.243888 55.7276638,397.829914 55.8945391,397.829914 C66.4900759,397.747096 77.0859716,397.167484 87.4311654,400.065481 C100.029086,403.625909 108.371657,411.574652 112.877111,423.663493 C116.130851,432.440124 117.382566,441.630849 117.632669,450.904631 C117.96654,462.827895 117.382566,474.585043 114.045059,486.177271 Z M164.853782,419.606213 C164.853782,418.115835 164.52051,416.45982 164.102873,415.05226 C158.930276,399.154715 149.002121,386.817537 134.986149,377.957967 C117.799604,367.028409 98.6104367,362.805647 78.6709582,362.308848 C54.4762484,361.729255 6.08688856,362.143253 6.08688856,362.143253 L3,362.143253 L3,550.926436 C3,550.926436 49.3869994,551.091954 70.4947249,550.926436 C83.092646,550.760919 95.6073987,549.601696 107.871449,546.372603 C130.981499,540.327913 149.252823,528.239132 159.681185,506.048979 C161.766977,501.577605 164.603678,496.775196 164.686847,492.055845 C165.187652,467.961339 164.937549,443.783776 164.937549,419.689271 M607.996973,361.87 C615.812175,361.87 622.13,368.174599 622.13,376.00003 C622.13,383.769364 615.784335,390.13 607.996973,390.13 C600.186822,390.13 593.87,383.824395 593.87,376.00003 C593.87,368.175615 600.186812,361.87 607.996973,361.87 Z M607.996973,364.13 C601.434079,364.13 596.13,369.424677 596.13,376.00003 C596.13,382.575331 601.434087,387.87 607.996973,387.87 C614.534978,387.87 619.87,382.522392 619.87,376.00003 C619.87,369.423824 614.56507,364.13 607.996973,364.13 Z M608.496943,369 C611.13174,369 613.377432,370.024378 613.377432,373.353669 C613.377432,375.402426 612.556463,376.675345 611.292786,377.351443 L611.175,377.41 L614,382.914615 L610.820456,382.914615 L608.44,377.963 L606.86826,377.963433 L606.86826,383 L604,383 L604,369 L608.496943,369 Z M609.969983,375.060946 L608.030017,377.109764 L608.44,377.963 L608.496943,377.963433 C609.470703,377.963433 610.374266,377.79842 611.132548,377.43286 L611.175,377.41 L609.969983,375.060946 Z M608.26348,371.475622 L606.86826,371.475622 L606.86826,375.402426 L608.26348,375.402426 C609.73652,375.402426 610.586993,374.719527 610.586993,373.353669 C610.586993,371.987811 609.814341,371.475622 608.26348,371.475622 Z M13.7105809,620.101033 C13.7105809,620.763461 13.7105809,621.425292 13.9635801,621.922263 C14.6382647,624.73624 17.0840041,626.805359 20.1200547,626.805359 C24.589848,626.805359 27.3728995,623.411981 27.3728995,617.452513 C27.3728995,612.320932 25.0115335,608.182695 20.1200547,608.182695 C17.2526299,608.182695 14.6382647,610.251813 13.9635801,613.231248 C13.7948938,613.810649 13.7105809,614.473078 13.7105809,615.134909 L13.7105809,620.018602 L13.7105809,620.101033 Z M3,634.255141 C3.16866814,632.102995 3.25300523,628.047188 3.25300523,624.322297 L3.25300523,586 L13.7105809,586 L13.7105809,604.954177 L13.8792672,604.954177 C15.9033211,602.1402 19.3610572,600.236539 24.0837892,600.236539 C32.1800049,600.236539 38.0834804,606.857838 37.999107,617.03857 C37.999107,629.040532 30.3246373,635 22.5657941,635 C18.6019992,635 14.8912639,633.592713 12.4455245,629.619933 L12.2768987,629.619933 L11.8552132,634.255141 L3,634.255141 Z M50.7429444,602 L55.8858191,618.247399 C56.4858478,620.226989 57.1715685,622.618448 57.6000902,624.433172 L57.8572277,624.433172 C58.3715644,622.701179 58.8858396,620.144258 59.4001147,618.247399 L63.6000082,602 L75,602 L67.0289192,623.77311 C62.1431206,636.886257 58.8001475,642.164966 54.9429608,645.463489 C51.2572196,648.597741 47.3143407,649.669672 44.6572114,650 L42.4286036,641.257307 C43.7142916,641.09244 45.4286241,640.432973 47.0572032,639.525909 C48.6857822,638.700981 50.4000533,637.051124 51.4286651,635.401862 C51.7714947,634.907263 52.0286323,634.412067 52.0286323,633.917467 C52.0286323,633.587734 52.0286323,633.010403 51.5143571,632.268206 L39,602 L50.8286364,602 L50.7429444,602 Z M99.5449488,626.651768 C100.473054,626.818648 101.907564,626.818648 103.172668,626.818648 C112.705413,626.818648 118.863944,621.642949 118.863944,610.623427 C118.863944,601.022688 113.29652,595.93073 104.269575,595.93073 C101.907564,595.93073 100.388956,596.097611 99.5449488,596.348232 L99.5449488,626.568026 L99.5449488,626.651768 Z M89,588.918143 C92.8806186,588.333761 97.8581442,588 103.172668,588 C112.030812,588 117.682938,589.586267 122.15406,592.925078 C126.962784,596.515113 130,602.191453 130,610.372805 C130,619.221678 126.793982,625.316123 122.322861,629.072436 C117.430039,633.079973 110.005799,635 100.894755,635 C95.4114305,635 91.6149101,634.665637 89,634.331876 L89,589.001884 L89,588.918143 Z M152.561834,618.416526 C147.218965,618.416526 143.027312,619.666827 143.027312,623.666707 C143.027312,626.333293 144.753252,627.666586 147.054505,627.666586 C149.602743,627.666586 151.657602,625.916526 152.397375,623.833293 C152.561834,623.24994 152.643769,622.666586 152.643769,622.083233 L152.643769,618.50012 L152.561834,618.416526 Z M153.794396,634.25006 L153.219083,630.917128 L152.972688,630.917128 C150.835305,633.583714 147.465949,635 143.602625,635 C136.945259,635 133,630.083594 133,624.750421 C133,616.083113 140.643534,611.916647 152.232915,611.916647 L152.232915,611.416887 C152.232915,609.666827 151.328683,607.083233 146.232798,607.083233 C142.862852,607.083233 139.328447,608.24994 137.191653,609.583233 L135.301254,602.916767 C137.602507,601.583474 142.041144,600 148.041262,600 C158.972806,600 162.506622,606.583474 162.506622,614.416647 L162.506622,626.083714 C162.506622,629.333654 162.671081,632.417007 163,634.25006 L153.794396,634.25006 Z M170.243856,611.695211 C170.243856,607.427173 170.081479,603.756095 170,600.768838 L178.764855,600.768838 L179.251403,605.463802 L179.41378,605.463802 C180.712213,603.329784 184.039482,600 189.395588,600 C196.050127,600 201,604.609948 201,614.683083 L201,635 L190.937295,635 L190.937295,615.963864 C190.937295,611.524563 189.476485,608.536691 185.825045,608.536691 C183.065803,608.536691 181.36172,610.585693 180.712213,612.549064 C180.468938,613.146639 180.306562,614.256156 180.306562,615.195642 L180.306562,635 L170.243856,635 L170.243856,611.695211 Z M245.835083,600 C256.552948,600 262.916529,607.083233 262.916529,617.083233 L263,617.166827 C263,629.416647 254.292036,635 245.332458,635 C235.535773,635 228,628.583714 228,617.75018 C228,606.916647 235.117219,600 245.835083,600 Z M223.559057,586 C225.867157,586 227.598823,586.247891 229,586.661839 L228.587924,594.608092 C227.681001,594.359604 226.60913,594.111115 225.290132,594.111115 C221.910161,594.111115 220.508984,596.760264 220.508984,599.988224 L220.508984,601.64342 L227.103977,601.64342 L227.103977,609.258155 L220.591163,609.258155 L220.591163,634.83454 L210.286893,634.83454 L210.286893,609.424213 L206,609.424213 L206,601.808879 L210.286893,601.808879 L210.286893,600.484604 C210.286893,596.511776 211.523122,592.041971 214.491016,589.310391 C217.046834,586.827299 220.591163,586 223.559057,586 Z M245.667542,607.416406 C240.643693,607.416406 238.801335,612.583594 238.801335,617.5 C238.801335,623.24994 241.145718,627.583594 245.667542,627.583594 C249.686741,627.583594 252.282736,623.583714 252.282736,617.5 C252.282736,612.5 250.356307,607.416406 245.667542,607.416406 Z M267.738304,625.226404 C269.642246,626.395884 273.533246,627.732346 276.596058,627.732346 C279.65887,627.732346 280.983377,626.646659 280.983377,624.892439 C280.983377,623.138219 279.990145,622.386497 276.099739,621.050034 C269.228449,618.711075 266.66255,614.95186 266.66255,610.942473 C266.66255,604.677919 271.960579,600 280.073261,600 C283.963667,600 287.357754,600.918705 289.427333,601.921202 L287.605913,609.105064 C286.115768,608.269549 283.30171,607.183862 280.487058,607.183862 C278.003681,607.183862 276.596058,608.185756 276.596058,609.939976 C276.596058,611.527213 277.838043,612.362728 281.977203,613.782983 C288.268464,615.954358 290.917478,619.212022 291,624.140717 C291,630.405873 286.115768,635 276.679174,635 C272.374377,635 268.483377,633.997503 266,632.66104 L267.82142,625.226404 L267.738304,625.226404 Z M297.738304,625.226404 C299.642246,626.395884 303.533246,627.732346 306.596058,627.732346 C309.65887,627.732346 310.983377,626.646659 310.983377,624.892439 C310.983377,623.138219 309.990145,622.386497 306.099145,621.050034 C299.228449,618.711075 296.661957,614.95186 296.661957,610.942473 C296.661957,604.677919 301.959986,600 310.072667,600 C313.963667,600 317.357754,600.918705 319.426739,601.921202 L317.605913,609.105064 C316.115768,608.269549 313.301116,607.183862 310.486464,607.183862 C308.003087,607.183862 306.596058,608.185756 306.596058,609.939976 C306.596058,611.527213 307.83745,612.362728 311.976609,613.782983 C318.26787,615.954358 320.916884,619.212022 321,624.140717 C321,630.405873 316.115768,635 306.67858,635 C302.373783,635 298.483377,633.997503 296,632.66104 L297.820826,625.226404 L297.738304,625.226404 Z M943.603012,362.414496 L943.855219,521.332515 C943.855219,531.52919 935.400284,539.818626 925.101837,539.818626 C914.803391,539.818626 906.348456,531.52919 906.348456,521.332515 L906.594658,393.667497 C906.594658,376.258666 892.194848,362.165801 874.528358,362.165801 C856.861868,362.165801 842.462057,376.341584 842.462057,393.667497 L842.708259,521.249358 C842.708259,531.446033 834.253324,539.736066 823.870809,539.736066 C813.488293,539.736066 805.117428,531.446033 805.117428,521.249358 L805.363629,393.584578 C805.363629,376.175748 790.963819,362.0829 773.297329,362.0829 C755.630839,362.0829 741.231029,376.258666 741.231029,393.584578 L741.477231,521.166798 C741.477231,531.362875 733.022296,539.652909 722.723849,539.652909 C712.425403,539.652909 703.886399,531.362875 703.886399,521.166798 L704.138606,393.50172 C704.138606,376.092889 689.73279,362 672.0663,362 C654.399811,362 640,376.175748 640,393.50172 L640,549.932741 L653.312919,549.932741 L653.312919,393.667497 C653.312919,383.470881 661.767854,375.180968 672.0663,375.180968 C682.364747,375.180968 690.819682,383.470881 690.819682,393.667497 L690.57348,521.332515 C690.57348,538.741167 704.97329,552.834283 722.63978,552.834283 C740.30627,552.834283 754.712086,538.658009 754.712086,521.332515 L754.459879,393.750415 C754.459879,383.5538 762.914813,375.263886 773.21326,375.263886 C783.511707,375.263886 791.966641,383.5538 791.966641,393.750415 L791.720439,521.415075 C791.720439,538.824324 806.12025,552.916842 823.78674,552.916842 C841.45323,552.916842 855.85304,538.741167 855.85304,521.415075 L855.606838,393.833274 C855.606838,383.636718 864.061773,375.346744 874.36022,375.346744 C884.658666,375.346744 893.113601,383.636718 893.113601,393.833274 L892.867399,521.498232 C892.867399,538.906883 907.26721,553 924.9337,553 C942.600189,553 957,538.824324 957,521.498232 L956.753798,362.580296" id="Combined-Shape" fill="#000000"></path>
    </g>
</svg>