<svg height="960" viewBox="0 0 960 960" width="960" xmlns="http://www.w3.org/2000/svg"><path d="m498.82837 1.00089987 4.97663.02153031 3.306456.02146766 4.941567.04548964 3.281619.03913855 3.270865.04615091 3.259645.05313129 3.247956.06007967 3.235799.06699606 3.223176.07388047 4.81007.12365897 3.189569.09095151 3.175309.09772394 3.16058.10446437 3.145384.11117283 3.129719.11784928 4.664187.18922229 4.626312.20406436 4.586859.21879846 3.035208.15399794 4.517597.24311536 2.987571.17010922c.496286.02888481.991743.0580358 1.486363.08745231l2.957586.17968002 2.937012.18602057 2.91597.19232912 2.894459.19860567 2.872482.20485025 2.850037.21106282 2.827123.21724341 2.803743.22339199 2.779894.2295086 2.755579.23559321 2.730794.24164583 2.705543.24766646 4.009945.38271837 2.640368.26257805 2.61348.26848672 2.586123.27436337 2.5583.28020805 2.530009.28602073 2.501249.29180141 2.472023.29755012 2.442328.30326681 2.412166.30895154 2.306709.3045615 2.202679.29944577c.364721.05029948.728243.10079521 1.090564.15148769l2.159495.30651971c.357507.05148142.713807.10316054 1.068899.15503794l2.116018.3136467c.350245.0526722.699275.1055436 1.047088.1586146l2.07225.3208267 2.042909.3256429 2.013438.3304825 1.983837.3353458 1.954107.3402326 1.924246.3451431 1.894256.350077 1.864137.3550345c.308172.0595869.615084.1193813.920732.1793837l1.818713.362515 1.788269.3675315 1.757695.3725715 1.72699.3776351 1.696157.3827223c.280116.0642123.558942.1286375.836475.1932761l1.649663.3903972c1.634105.3929663 3.221473.7936517 4.761519 1.2021623l1.524251.4111229c1.508434.4137391 2.969352.8353388 4.38217 1.264905 8.035754 2.4432653 14.905861 5.2305391 20.952404 8.8211937 4.506051 2.6758546 8.597762 5.8123158 12.277581 9.7684898 3.986659 4.286059 7.243202 9.277911 9.409438 14.997198l.188287.5099085.058863.1495145c1.623795 4.245222 2.544856 8.836601 2.621879 13.6308533l.005258.6550057v777.7066265c0 23.694538-12.257815 43.70835-32.140715 59.414191-14.907919 11.776019-34.614538 21.521791-58.302259 29.436018-44.537154 14.880163-103.056172 23.149791-165.057026 23.149791-61.370053 0-119.336211-8.102101-163.709559-22.703014-23.510581-7.736084-43.164004-17.257051-58.159376-28.724518-19.827665-15.162886-32.435645-34.373059-33.555178-57.442985-.01567-.322912-.027425-.646002-.035262-.969199l-.028871-1.190652c-.011754-.323151-.011754-.646386-.011754-.969632v-714.02566c0-3.400469.433219-6.761444 1.272037-10.007395l.108963-.411945.020842-.328875c1.23265-19.281606 5.298315-36.28836 12.647459-50.9745703l.411667-.8135129c9.266413-18.1091666 23.329559-31.9330617 41.287229-40.360207l.065803-.0318348.604127-.3638246c3.345687-1.9909985 7.075669-3.8096711 11.209843-5.4806128l1.252397-.4968752c1.896845-.7387386 3.875941-1.4480598 5.939101-2.1302047l1.387914-.4507618c.466803-.1489283.937776-.2965391 1.412941-.4428571l1.438088-.4351c.725351-.2156354 1.460176-.4284172 2.204544-.6384284l1.501477-.4163529 1.527041-.4091123c.513288-.1351805 1.030856-.2691787 1.552725-.4020194l1.578529-.3950738c.265245-.0652751.53157-.1302669.798978-.1949786l1.617457-.3849323c.271748-.0636033.544583-.1269325.818509-.1899908l1.656654-.375123 1.682935-.3687677c.565372-.1218798 1.135144-.242725 1.709335-.3625602l1.735855-.3565001c.583051-.1178398 1.170542-.2346941 1.762493-.3505877l1.789251-.3448227c.300445-.0569983.60201-.1137625.904697-.1702957l1.829613-.3364521 1.856669-.3310562 1.883844-.3258078c.316246-.0538721.633629-.1075317.952151-.1609818l1.924833-.3182118 1.952306-.3133324 1.979901-.3086005 2.007614-.3040161 2.035446-.2995794 2.063398-.29529014 2.091469-.29114854 2.119659-.28715448 2.14797-.283308 2.176399-.27960907 3.318164-.41280095 2.247994-.2710074 3.568666-.41694757c.45034-.05163832.902041-.10299778 1.355091-.15407761l2.734399-.30311715c.4584-.04995819.918126-.09963519 1.379165-.14903023l2.781903-.29298048 2.812857-.28617611 2.843237-.2793345 2.873044-.2724556c.481293-.04483396.963804-.08937975 1.447521-.13363658l2.916682-.26206741 2.945058-.25509536 2.97286-.24808606 3.000089-.24103949 3.026746-.23395565 3.052831-.22683455 3.078341-.2196762 3.10328-.21248057 3.127645-.20524768 3.151437-.19797754 3.174657-.19067012c.531013-.03116733 1.062969-.06202864 1.595857-.09258314l3.208412-.17963913 3.230199-.17223857 3.251414-.16480073 3.272056-.15732564 3.292125-.14981327 3.31162-.14226365 3.330543-.13467677c.556636-.02181182 1.114036-.04330596 1.672189-.06448166l3.357854-.12322657c.561116-.01989879 1.122961-.03947758 1.685522-.05873559l3.383875-.11169253 3.400507-.10395659 3.416566-.09618339 3.432051-.08837293 3.446964-.0805252 3.461304-.0726402c.578048-.01144755 1.156668-.022565 1.735851-.03335159l3.48174-.06074285 3.494648-.0527647c.583485-.0081272 1.167485-.01592043 1.751986-.0233789l3.512935-.04072761c.586462-.00611637 1.173402-.01189642 1.760807-.0173394l3.529935-.02860668 3.540551-.02047947 3.550594-.01552843zm-212.083128 69.58802753-.129682.1068548c-13.826397 11.4848972-21.021281 31.1707298-21.58465 59.0574978l-1.03091 1.22106v714.02566l.028871 1.190652c1.903035 39.215336 97.643939 70.809348 215.471129 70.809348 119.017364 0 215.5-32.235498 215.5-72l.001075-762.3984949c-3.269519 1.8675907-7.359039 3.5446309-12.301594 5.1155606-.190483.0605427-.382369.1209603-.575652.1812521l-1.176447.3602384c-.198859.059787-.399108.1194472-.600742.1789802l-1.226392.3556668-1.25943.352588-1.292261.3494845c-.218101.0579875-.437561.1158445-.658377.1735707l-1.341117.3447828-1.373431.3416174-1.405535.3384271c-.23692.0561373-.475169.1121406-.714742.1680095l-1.453305.3335953-1.484891.3303432c-.250103.0547848-.501513.1094331-.754226.1639443l-1.531884.3254186-1.562951.3221044-1.593814.3187656-1.624467.315402-1.654915.3120135-1.685154.3086004-1.715187.3051625c-.288355.0505725-.577954.1010008-.86879.1512842l-1.759847.2999591-1.78936.2964593-1.818668.2929345-1.847767.2893852c-.310375.0479337-.621953.0957185-.934731.1433538l-2.847273.4246692-2.911348.4165157-1.97615.2731063-2.131652.2863179-2.289407.2983535-2.320014.2930754c-.389194.0484042-.779644.0965871-1.17134.1445479l-2.365055.285095-2.3945.2797325-2.42348.2743361-2.451993.2689061c-.411016.0443633-.823201.088499-1.236544.1324062l-2.493893.2606976-2.521243.2551831-2.548128.2496348-2.574547.2440526-2.600503.2384367-2.625991.2327873-2.651014.227103-2.675573.221387-2.699666.215635-2.723292.20985-4.128222.303856-2.780325.19524-2.802323.189338-2.823856.183401-2.844923.17743-2.865526.171425-2.885662.165388-4.365231.236686-2.933968.150144-2.952475.143988-2.970517.137797-2.988094.131574-4.51408.185616-3.03.115865-3.045948.109524-3.061431.103147-3.076447.096738-3.090999.090294-3.105085.083816-4.683022.113506-3.138264.067475-4.730609.088836-4.757067.073881-3.185301.04089-3.195896.034159-3.206027.027395-3.215691.020596-3.224891.013764c-.538222.001723-1.076809.00316-1.615749.00431l-3.237817.003453-4.853567-.007763-3.224891-.013764-3.215691-.020596-3.206027-.027395-3.195896-.034159-4.773833-.063848-4.748422-.078879-3.150722-.06088-3.138264-.067475-3.125342-.074037-3.111954-.080565-3.0981-.08706-3.083782-.09352-3.068997-.099946-3.053747-.10634-4.55101-.171422-3.013587-.122174-2.996708-.128449-4.462396-.204364-2.952475-.143988-2.933968-.150144-2.914994-.156267-2.895556-.162356-2.875652-.168411-2.855282-.174432-2.834448-.180419-2.813148-.186374-2.791382-.192293-2.769151-.19818-2.746455-.204032-2.723292-.20985-2.699666-.215635-2.675572-.221387-2.651015-.227103-2.625991-.2327873-2.600502-.2384367c-.431268-.0402084-.861453-.0806508-1.290548-.1213265l-2.561396-.2468479-2.534744-.2524131-2.507625-.2579446-2.480043-.2634422-2.451993-.2689061-2.42348-.2743361-2.3945-.2797325c-.396642-.0470699-.792058-.0943632-1.186237-.1418793l-2.350158-.2877636-2.320014-.2930754-2.289406-.2983535-1.13308-.1511454-1.990156-.2712665-1.962093-.2749398-1.933822-.2785882c-.319936-.0467341-.638686-.0936191-.956245-.1406546l-2.825759-.4273684-1.847767-.2893852-1.818667-.2929345-1.789361-.2964593c-.295773-.0497022-.590316-.0995502-.883625-.1495436l-1.745012-.3016997-1.715187-.3051625-1.685154-.3086004-1.654914-.3120135-1.624468-.315402-1.593813-.3187656c-.26307-.0534065-.524854-.1069522-.785347-.1606364l-1.547443-.3237646-1.516272-.3270663-1.484891-.3303432c-.244855-.0553289-.488395-.1107933-.730614-.1663927l-1.437433-.3352121-1.405535-.3384271-1.37343-.3416174c-.226219-.0572007-.45109-.1145333-.674611-.1719972l-1.324884-.3463563-1.292261-.3494845-1.25943-.352588-1.226392-.3556668c-.201634-.059533-.401883-.1191932-.600742-.1789802l-1.176446-.3602384-.575653-.1812521c-5.884898-1.8704418-10.560474-3.8913131-14.082491-6.2051455-4.340453-2.8515144-7.389686-6.4043601-8.287477-10.9229928zm9.93377 63.7321656c5.42924 0 9.847932 4.326671 9.996159 9.720095l.003841.279905v700.888784c0 5.522847-4.477152 10-10 10-5.42924 0-9.847931-4.326671-9.996158-9.720096l-.003842-.279904v-700.888784c0-5.522847 4.477153-10 10-10zm372.293014-69.6177853c-2.953523 1.4320641-6.674871 2.6921655-11.228421 3.8677415l-1.103774.2791555c-.186878.0463127-.375211.0925184-.564993.1386167l-1.156051.2752969c-.195561.0456667-.392563.091225-.590999.1366745l-1.207797.2713866c-.204156.0450121-.409737.0899143-.616739.1347063l-1.259011.2674246-1.29286.2647544-1.326472.2620614-1.359847.2593453-1.392987.2566062-1.425891.2538443-1.458558.2510593-1.490989.2482513-1.523185.2454203-1.555144.2425664-1.586867.2396895-1.618354.2367896-1.649605.2338666-1.68062.2309209-1.711399.227952-1.741941.2249601-1.772247.2219454-1.802318.2189075-1.832152.2158468-2.803651.317981-3.115755.3370089-2.198791.2280976-2.230501.2235931-2.261678.2190568-2.292317.2144891-3.494756.3131-2.366576.2029314-2.395341.198253-3.645778.2885385-2.464913.1864187-3.747625.270639-2.531139.174387-3.844453.2524431-2.594017.1621577-3.93626.233951-2.653548.1497309-4.023047.2151626-2.709733.1371065-4.104813.196078-2.76257.1242846-4.181559.1766969-4.225196.1649262-4.267027.1530486-4.30705.1410645-4.345265.1289737-2.917182.0792126-4.404942.1085853-2.955293.0655216-2.9696.0599899-4.480055.0795438-3.003025.0460223-3.015458.04038-3.027356.0347061-3.038717.0290005-3.049544.0232633-4.593443.0240687-3.074267.0087822-3.083218.0029344-3.083219-.0029344-3.074267-.0087822-4.593443-.0240687-3.049544-.0232633-4.553849-.0456423-4.527682-.0584443-3.003025-.0460223-2.990057-.0516331-4.459598-.0879006-4.427406-.1003469-2.932828-.07376-2.917182-.0792126-4.345266-.1289737-4.30705-.1410645-4.267027-.1530486-2.821557-.1086376-2.80243-.1138849-4.166611-.1805969-2.752271-.1268648-2.731269-.1320015-2.709733-.1371065-2.68766-.1421799-3.988935-.2227136-3.93626-.233951-3.881778-.2450818-3.825489-.256106-2.518161-.1768092-2.491806-.1816298-3.687118-.2814141-3.624806-.2920828-2.381025-.2005962-2.351992-.2052587-3.472378-.3165614-2.277064-.2167769-2.246157-.2213289-2.214713-.2258493-2.182734-.230338-2.028419-.2212808-2.803651-.317981-1.832152-.2158468-1.802318-.2189075-1.772247-.2219454-1.741941-.2249601-2.555571-.3430428-1.665141-.2323966-1.63401-.235331-1.60264-.2382424-1.571035-.2411308-1.539194-.2439963-1.507116-.2468386-1.474804-.2496582-1.442254-.2524546-1.409468-.2552282-1.376447-.2579786-1.343189-.2607063-1.309695-.2634107-1.275965-.2660924-1.241999-.2687509c-.204156-.0450121-.406887-.090134-.608189-.1353653l-1.190607-.2726958c-.195561-.0456667-.389683-.0914417-.58236-.1373247l-1.138684-.2765889-1.103774-.2791555c-4.553817-1.175645-8.275335-2.4358254-11.228941-3.8679938l-1.141332.2879357-1.171333.3049728-1.138317.3066639-1.105036.3082959-1.071494.309869c-.175772.0517726-.350136.1036084-.523086.155506l-1.020687.3121181-1.063095.3384562c-.744741.2423003-1.452039.4838016-2.120799.723477l.52946.1880126c.538922.1884916 1.100361.3773777 1.684627.5667254l.969807.3081647 1.020687.3121181 1.054624.3106334 1.088298.3090899c.368349.1027661.742266.2052651 1.121709.3074872l1.154858.3058257 1.187743.3041052c.200683.0505375.402726.1010009.606122.1513889l1.236579.3014139c.417579.1001632.84053.2000151 1.268808.2995458l1.300774.297619 1.332478.2956331 1.363917.2935883 1.395095.2914845 1.426011.2893216 1.456662.2871 1.487051.2848192 2.286982.4228235 1.561875.2788595c.262776.046271.526779.0924383.792005.1385008l1.605981.2751067 1.635055.2725312 1.663869.2698966 1.692418.2672032 1.720705.2644507 1.74873.2616393 1.776491.258769 1.803989.2558396 2.756969.3781378c.36681.0493117.734932.0984134 1.104359.1473046l2.232121.2908139 2.262937.2857241 2.293284.280599 2.323163.2754388 2.352576.2702433 2.381519.2650126 2.409994.2597468c.404013.0428503.809193.0854798 1.215529.1278876l2.451831.2517819 2.479136.2464279 2.505973.2410388 2.532344.2356144 2.558244.2301548 2.583679.22466 2.608644.21913 2.633142.2135648 2.657172.2079643 2.680733.2023286 2.703827.1966578 2.726453.1909516 2.748611.1852103 2.7703.1794338 2.791522.1736221 2.812276.1677751 2.832562.1618929 2.852379.1559755 2.87173.1500229 2.890611.144035 2.909025.138012 2.926971.1319538 2.944449.1258602 2.961459.1197316 2.978001.1135676 4.496993.1587171 3.017308.0980038 4.553761.1352063 3.05369.0822198 3.067425.0758447 4.625864.1017364 4.654133.087194 3.117681.0499917 3.129074.0434403 4.713952.0527998 4.736956.0378613 3.169971.016883 3.179025.0101556 3.187612.003393 3.187611-.003393 3.179025-.0101556 4.751415-.0278363 4.729463-.042854 3.140001-.0368538 3.129075-.0434403 3.11768-.0499917 4.654133-.087194 4.625865-.1017364 3.067424-.0758447 3.05369-.0822198 4.553761-.1352063 3.017308-.0980038 3.001936-.1042557 2.986096-.1104725 4.448421-.1772881 2.944449-.1258602 2.926971-.1319538 2.909025-.138012 2.890611-.144035 2.87173-.1500229 2.852379-.1559755 4.241265-.2450474 2.801957-.170703 4.163438-.2669735 2.748611-.1852103 2.726453-.1909516 4.04711-.2971155 2.669011-.2051508 2.645215-.210769 2.620951-.2163517 2.59622-.2218994 2.571021-.2274119 2.545352-.232889 2.519217-.238331 2.492613-.2437377 2.465542-.2491093 2.438002-.2544456 2.409994-.2597468 2.381519-.2650126 2.352576-.2702433 2.323163-.2754388 2.293285-.280599 2.262936-.2857241c.374601-.0480458.747919-.0963037 1.119942-.1447729l2.216538-.2933456 2.756969-.3781378 1.80399-.2558396 1.77649-.258769 2.612602-.3935169 1.706594-.2658343 1.678177-.2685573 1.649495-.2712213 1.620551-.2738263 1.591344-.2763724 1.561875-.2788595 2.286982-.4228235 1.487051-.2848192 1.456663-.2871 1.42601-.2893216 1.395095-.2914845 1.363918-.2935883 1.332477-.2956331 1.300774-.297619 1.268808-.2995458c.20879-.0500817.416236-.1002411.622335-.1504771l1.220366-.3023257 1.187744-.3041052c.195224-.0508292.389077-.1017301.581556-.1527015l1.138316-.3066638c.186953-.0512483.37252-.1025646.556695-.1539476l1.088297-.3090899 1.054624-.3106334 1.020687-.3121181.497535-.1565974c.954244-.3032944 1.85041-.6057416 2.686359-.9053358l-.530174-.1887169c-.538207-.1877873-1.099647-.3766735-1.683913-.5660212l-.969807-.3081646c-.167271-.0521402-.335968-.1042209-.506085-.156241l-1.037688-.3113831-1.071494-.309869-1.105036-.3082959-1.138316-.3066639-1.171334-.3049728zm-173.06468-13.7634079c-.531958 0-1.063578 0-1.59485.000849l-4.771787.0126997-3.169971.016883-3.160448.0235751-4.721796.0478335-3.134596.0401515-3.123436.0467204-4.663205.0823202-4.635463.0969022-3.074116.0726438-3.060616.0790366-3.046648.0853943-3.032212.0917166-3.017308.0980038-3.001936.1042558-4.473058.168029-4.435839.1818978-2.935768.1289114-2.918057.1349873-2.899876.1410279-2.881229.1470334-2.862113.1530036-2.842529.1589386-2.822478.1648383-2.801957.170703-2.78097.1765323-2.759514.1823265-2.73759.1880854-2.715199.1938091-2.692338.1994976-2.669011.2051509-2.645216.2107689-2.620951.2163518-3.88491.3349184-2.558244.2301549-2.327111.2160485 2.05052.1951013 2.25687.2073062 2.286907.202837 2.316405.1983349 2.345366.1937998 2.373787.1892319 2.401671.1846311 2.429015.1799974 2.455821.1753309 2.482089.1706314 2.507819.1658991 2.533009.1611339 2.557661.1563358 2.581775.1515048 3.916698.2181272 3.967925.2070725 4.017334.1959069 2.704775.1243466 4.095645.1770508 4.140208.1655893 4.182954.1540166 4.223883.1423331 2.837762.0883431 4.288058.1226138 4.324139.1106344 2.901908.0670461 4.380238.0904219 4.411474.0781464 4.440892.06576 2.976041.0369038 4.485883.0448693 3.004353.0228739 3.014735.0172044 4.540391.0151044 3.038335.0028868 3.038334-.0028868 4.540392-.0151044 3.014734-.0172044 3.004353-.0228739 4.485884-.0448693 2.97604-.0369038 4.440892-.06576 4.411474-.0781464 4.380238-.0904219 2.901908-.0670461 2.886679-.0724197 2.870912-.0777604 4.275627-.1265824 2.829138-.0909681 4.210441-.14624 4.168908-.1578865 2.755299-.1116732 4.095645-.1770508 4.049265-.1884014 2.672845-.1318521 3.967924-.2070725 2.616936-.1441967 3.881537-.2254353 2.557661-.1563358 2.533009-.1611339 2.507819-.1658991 2.482089-.1706314 2.455821-.1753309 2.429015-.1799974 2.401671-.1846311 2.373787-.1892319 2.345366-.1937998 2.316406-.1983349 2.286907-.202837 2.256869-.2073062 2.048829-.1951013-2.325419-.2160485-3.846935-.3431739-2.59622-.2218994-2.620951-.2163518-2.645215-.2107689-2.669011-.2051509-4.04711-.2971154-2.726453-.1909517-2.748611-.1852103-2.7703-.1794338-2.791522-.173622-2.812276-.1677751-2.832562-.1618929-2.852379-.1559755-2.87173-.1500229-2.890611-.1440351-2.909025-.138012-2.926971-.1319537-2.944449-.1258603-2.961459-.1197315-4.473058-.168029-3.001936-.1042558-3.017308-.0980038-3.032212-.0917166-3.046648-.0853943-3.060616-.0790366-4.61609-.1065574-4.644886-.0920547-3.111808-.0532541-3.123436-.0467204-3.134596-.0401515-4.721795-.0478335-3.160449-.0235751-4.758381-.0228039z"/></svg>