<svg height="960" viewBox="0 0 960 960" width="960" xmlns="http://www.w3.org/2000/svg"><path d="m529.7052 220.218939c33.271895-1.338185 59.083542 3.471695 77.970364 13.035147 9.750952 4.93745 17.807079 11.325908 22.80005 18.169056l.116386.160858.657552-.554205c20.765333-17.424043 37.856764-22.189425 54.644535-19.199485l.535396.097997 2.547827.4937c5.732698 1.137713 10.430607 4.073313 14.361883 8.106195 2.703815 2.773697 5.015639 6.058722 7.110226 9.849156 3.323152 6.013683 6.215685 13.568291 8.632118 22.151573l.61633 2.213001 1.444842 5.296386.673849 2.453084.66512 2.372629.660872 2.303427.440433 1.502728c.073487.248493.147035.496053.220669.742747l.443074 1.470345.446493 1.452922.45124 1.438835.457313 1.428081.464715 1.42066.473441 1.416574.483497 1.41582c.081494.236093.163462.472293.245933.70867l.501066 1.420942.514438 1.428523.529138 1.439438.545163 1.453688.562517 1.47127c.095272.246862.191323.494596.28818.743271l.591034 1.503895c.100192.252716.201245.506512.303186.761458l.622538 1.544021.645198 1.574939.669187 1.60919.694502 1.646775c.117934.27778.236977.557265.357159.838524l.734962 1.709404.763595 1.755324.793555 1.804578.824841 1.857164.424567.949344c14.148542 31.56686 12.119244 65.363217-2.086296 92.179376-3.47046 6.551276-8.034846 13.048522-13.682549 19.530427l-.027339.029609 2.405975.709962 2.693814.805844 2.45482.748375 2.719505.84637 3.461055 1.089009c.573623.181476 1.145648.362942 1.716093.544402l3.403856 1.088723c.564198.181453 1.126852.362908 1.68798.544369l3.348606 1.088874c.555098.181502 1.108706.363019 1.660842.544554l3.295304 1.089462c.546322.181624 1.091208.363275 1.634678.544957l3.243949 1.090487c1.613614.545459 3.214796 1.091266 4.804032 1.637529l3.162689 1.093166 3.131701 1.094579 3.101577 1.096184 3.07232 1.097984 3.04393 1.099979 3.016404 1.102167c.500488.183887.999865.367874 1.49815.551965l2.97674 1.105813 2.951379 1.108487 2.926885 1.111356 2.903256 1.114417 2.880493 1.117674c.956467.373123 1.909284.74682 2.858596 1.121125l2.837565 1.12477c.471224.187776.941606.375712 1.411167.563812l2.807643 1.1306c.466344.188773.931902.377717 1.396692.566838l2.779668 1.136868 2.7621 1.141291 2.207128.920848 1.67844.70895 1.696649.724927 1.714864.740906 2.60647 1.141326 1.760442.780864 1.778688.796852 2.702261 1.225257 1.82434.836829 2.770779 1.285233 1.870045.876819 1.888342.89282 2.866838 1.369234 1.934121.932829 2.935547 1.429259 1.979954.972853 1.998302.988866 3.031873 1.513329 2.044209 1.028908 2.062586 1.04493 2.080972 1.060952 2.099367 1.076978 2.11777 1.093005 2.136182 1.109035 2.154602 1.125066 2.173031 1.1411 3.294118 1.741719 3.33563 1.777808 3.377171 1.813904 3.418741 1.850007 3.460339 1.886118 3.501966 1.922236 4.73409 2.619178 3.599207 2.006541 3.640929 2.042683 3.682681 2.078833 3.724461 2.114991 5.030988 2.876245 3.822058 2.199387 3.244355 1.876383 6.70876.000942c15.24374 0 24.389458 12.314598 23.337654 25.591005l-.034999.402598c-.625332 6.60736-3.656881 13.166907-7.935558 18.303499-1.95449 2.346382-5.029098 4.732163-9.132174 7.229683l-.863557.518346c-.146362.086665-.293939.173468-.442728.260413l-.907243.523397-.936143.526941c-.158422.088127-.31804.176407-.478852.264844l-.979152.532525-1.0076.536426-1.035868.540468-1.063955.544654-1.091862.548982-1.119589.553451-1.730974.838871-1.188115.56525-1.83292.857235-1.893275.868894-1.95302.881035-2.012159.893654-1.373992.603019-1.399825.608983-1.477227.637133-1.520563.648918c-.251776.10683-.502724.212994-.752841.318488l-1.490703.624862-2.198307.906484-1.440143.583378-1.419643.566299-1.398985.548939-1.378168.531304-1.357194.513388-1.336062.495196-1.314771.476725c-.217346.077899-.433797.155017-.649352.231349l-1.28254.448496c-.423907.14632-.844201.289446-1.260853.429331l-1.23901.409885-1.217009.390163c-.200992.063369-.401061.125903-.600204.187599l-1.183709.360057c-6.05811 1.807789-11.219416 2.798002-15.385824 2.797998l-7.284544.006362h-1.954492l-3.932642-.014896c-.658102-.002812-1.317544-.006019-1.978343-.009629l-3.981205-.02657c-.666291-.005258-1.33397-.010937-2.003054-.017045l-4.031491-.041873c-.674767-.007861-1.350971-.016169-2.028628-.024933l-4.083498-.058121c-1.367062-.021243-2.740062-.044378-4.119128-.069476l-4.155523-.081252-4.192683-.093447-4.23061-.106061-4.269301-.119095c-.714817-.020959-1.431279-.042478-2.1494-.064567l-4.328775-.139432c-.724825-.0244-1.451342-.049388-2.179567-.074971l-4.389972-.160713c-.73512-.028-1.47198-.056613-2.210596-.085847l-4.452891-.182938c-1.491405-.063513-2.989961-.129583-4.495794-.19828-.610245-.027839-1.219567-.056035-1.827957-.084588l-3.639078-.175627c-.604624-.029991-1.208298-.060343-1.811011-.091057l-3.604691-.188647c-.598837-.03217-1.196697-.064706-1.793568-.097608l-3.569308-.201834-3.545167-.210717c-.588825-.035864-1.176625-.072101-1.763392-.108713l-3.508126-.224182-3.482879-.233252c-.578352-.039635-1.155633-.079651-1.731834-.12005l-3.444181-.246995c-.571846-.041935-1.142594-.084255-1.712235-.126963l-3.404487-.260905c-.565175-.044263-1.129225-.088916-1.69214-.133961l-3.363797-.274982c-.558339-.046618-1.115524-.093631-1.671547-.141041l-3.322114-.289227-3.293771-.298816c-1.093151-.101211-2.181505-.204034-3.264988-.308479l-3.235761-.318217-3.206093-.328028c-3.191111-.332959-6.337057-.680747-9.435846-1.043697l-3.082997-.368018c-2.044754-.248731-4.068255-.50425-6.069914-.766657l-2.986032-.398789-2.952826-.409194c-3.425422-.483492-6.782146-.98838-10.067011-1.515194-33.189732-5.322846-70.737795-16.49946-106.65138-30.991741-.321247-.129634-.642083-.259427-.9625-.389375l-1.917392-.781511-1.906868-.784999-1.895894-.788255-2.822273-1.187982-2.795037-1.194006-1.847474-.798965-1.83424-.801064-1.820553-.80293-1.806415-.804565-2.682124-1.209407-2.647771-1.211783-1.745343-.808789-1.728945-.809267c-.286766-.134905-.57283-.269819-.858183-.40474l-1.703501-.809548-1.685974-.809445-2.495108-1.213471-2.45313-1.211939-.808118-.403504-1.601508-.80612-1.581496-.804745-1.561031-.803137-1.540114-.801298-1.518746-.799227-1.496926-.796925-.740139-.397527-1.463348-.793037-1.440398-.790155-1.416997-.787043-1.393142-.783698-1.368837-.780121-1.344079-.776314c-.221925-.129056-.442799-.257943-.662614-.386657l-1.306096-.770167-1.280208-.765781-1.25387-.761162-1.227078-.756312c-.202255-.125635-.403375-.251058-.603351-.376265l-1.186045-.748602-1.158123-.743173c-.190669-.123397-.380156-.246558-.568451-.369479l-1.115395-.734595c-.366982-.243876-.729122-.486751-1.086345-.728586l-1.056843-.722347-1.026889-.715876-.996482-.709172c-.163522-.117624-.325757-.234959-.486698-.352l-.950026-.698684-.91849-.691401c-.300858-.229227-.596384-.457203-.886503-.683887l-.43997-.338507c-7.840318-5.940211-19.244702-9.754002-31.975441-11.048348-5.499961-.559186-10.906035-.59977-15.508776-.191456-1.930477.171255-3.606475.413332-4.898398.688227l-.200579.043646-.361912.084305-.306913.078784-.248707.071416-.092967.042885c-4.860164 2.12936-13.438635 3.989836-24.609602 5.521214l-1.99803.266815c-.337414.043896-.677013.087504-1.018769.130822l-2.076187.256429-2.126573.249412-2.175585.242322-2.223221.235159c-1.123291.115776-2.263929.228838-3.421142.339146l-2.336297.216928-2.379122.209508c-.400012.034296-.801752.068279-1.20519.101949l-2.440779.198239c-.410117.032408-.821876.064499-1.235246.096272l-2.499345.186805-2.536669.17909c-.425813.029201-.853123.058078-1.281902.086628l-2.590079.16738-2.623966.159481-2.656478.151509c-.44538.024583-.892057.048831-1.340002.072742l-2.70267.139412c-.452906.022558-.907023.044776-1.362324.066652l-2.745767.127151-2.77278.118885-2.798418.110545-2.822681.102131-2.845569.093644-2.867083.085084c-.479564.013463-.959966.026567-1.441179.039309l-2.896775.072105-2.914852.063361-2.931552.054543-2.946879.045652-2.96083.036686c-.494558.005364-.98964.01035-1.485218.014959l-2.979179.023101-2.989694.013953-4.412238.006597c-1.851981.004969-3.736893.019838-5.651562.044306l-2.893924.043865-2.936179.05804-2.976055.071988-3.013549.085712-3.048664.099211-3.081397.112484-3.111752.125531-3.139725.138355-3.165318.150951-3.188532.163324-3.209364.175471-3.227817.187392-3.243889.199088-3.257581.210559-3.268892.221805c-1.636878.113677-3.277105.231486-4.919342.353301l-3.286759.248933c-.548107.042367-1.096339.085169-1.644645.128403l-3.290337.264535-3.289748.274654c-1.09622.093213-2.191944.188075-3.286777.284548l-2.227295.198696-4.386509.40577-3.220526.310502-3.15176.314691-2.058829.211631-3.018512.319471-2.927382.321015-1.896819.214379-2.756861.321387-2.643367.320288-2.174749.27366-1.894749.247104-1.786849.241688-1.673254.235393-1.049581.153-1.471271.222955-1.599304.256943-1.431536.247963-.750538.140308-.570712.115661-.301377.068175-1.35821.349205-1.211922.305357-1.157609.284552-1.120137.267934-1.099508.255502-1.095718.247257-1.61427.351886-7.853286 1.652131-3.375779.734125-3.067284.682925-3.371936.765059-3.502344.807166-2.497202.581936-6.486784 1.529246-1.666516.384912-1.745557.394567-1.822623.403884-1.897717.412862-2.643688.563865-4.199031.872844-5.234159 1.056109-3.946599.777024-4.950149.954874-4.292929.812596-5.339211.993013-6.252087 1.140583-5.088623.911908-6.25375 1.10194-5.360612.929955-5.164548.882184-3.729306.627535-4.281949.709271-3.424353.557221-4.315011.686994-4.004719.618812-3.668602.546028-2.51534.358989-2.6627117.361212-2.03685.258014-1.5159618.177146-1.089487.116122-.9764055.09275-.8600959.0688-.7405584.044277-.4750303.016768-.2776502.003216c-2.6910897 0-5.1297153-.353438-8.2432794-1.07282l-1.0067481-.239353-1.0581094-.263768-1.1159608-.288272-1.6703595-.447093-1.9022485-.526917-8.135469-2.297173-1.4620013-.397967-1.1264806-.299316-1.0710617-.277275-1.0176835-.255599c-.1652791-.040813-.3284191-.080739-.4894626-.119784l-.9414424-.223766-.8931659-.202998-.84693-.182595c-.2748307-.057505-.5422956-.11167-.8027348-.162556l-.3034877-.058373-.5740154-.105096-.5279535-.089872-.700012-.107079-.4016946-.053445-.3467493-.039528-.2892661-.025983-.2292448-.012813-.7321766-.007981c-21.1401949-.421533-41.4196877-21.605905-41.4196877-43.148575 0-2.769983.2637684-5.353859.9578139-7.962683 1.1877243-4.464497 3.5128513-8.596966 7.5620214-11.880324 4.731816-3.836896 10.45396-5.276208 15.9897109-4.704281 3.2762081.338482 6.0546732 1.284402 8.7405075 2.63589 2.4177312 1.216581 4.4338791 2.565954 7.1425902 4.617017l.4162191.314897c1.7846089.217923 3.3888328.775637 4.9957022 1.584114 1.2535011.630684 2.4484328 1.374598 3.8662897 2.383785l.6712495.485168c.1148547.084185.2312848.170079.3494184.257749l.7302679.547905.7773011.59388 3.7443858 2.914812 1.3522623 1.034971.6238398.468391.8519311.628184c.4404152.320965.8689512.627083 1.2880659.919764l.322197.073119.2022263.040269 1.333388-.410308 4.8331585-1.469921 7.6120947-2.276158 8.2050673-2.419735 7.5881985-2.215069 10.73045-3.10188 9.711627-2.780061 10.166008-2.883935 9.53698-2.681294 8.989752-2.505387 6.615955-1.829482c2.459246-.677695 5.242911-1.411041 8.314677-2.192841l3.166455-.797684c2.173199-.542201 4.469061-1.104872 6.876827-1.685879l3.694231-.884995 3.854016-.910902c1.310405-.307773 2.646096-.619598 4.005728-.935207l4.14937-.957914c.703084-.161455 1.411816-.323791 2.126029-.486972l4.349702-.988975 4.473166-1.007684 4.588561-1.024794 4.695885-1.040303 4.795138-1.054214 4.886319-1.066525 4.969432-1.077238 5.044471-1.08635 5.111442-1.093864 5.17034-1.099779 5.221168-1.104093 5.263926-1.106809 5.298612-1.107926 5.325228-1.107443 8.020091-1.65676 8.034579-1.646679 8.021826-1.631198 7.981836-1.610321 7.914606-1.584047 5.225603-1.038768 5.175546-1.023092 5.117418-1.005817 7.549483-1.472836 7.373297-1.42497 4.804199-.920724 7.019124-1.3332 4.542862-.854546 6.589286-1.226437c.716302-.132413 1.427155-.263505 2.132392-.393245l4.162673-.761938 4.019803-.727871 3.86886-.692203c.631784-.112306 1.256941-.22306 1.875305-.332227l3.627315-.635704 3.456197-.59604 3.277006-.554775c19.952065-3.343028 43.011121-4.961877 69.222837-4.889986l3.038422.015796c4.578629.034944 9.251749.120497 14.019599.256485l1.209433.035724.389504-.91599 1.258479-2.942855 1.179017-2.740155-.514879-.560812c-2.314589-2.538277-4.664163-5.247595-7.080771-8.150915l-.727025-.87684c-4.006722-4.850844-7.314396-11.144124-10.087874-18.879747l-.422496-1.201475c-.62749-1.819283-1.226981-3.715376-1.800501-5.688279l-.378521-1.326647-.370958-1.349407-.36353-1.372164c-.059977-.230591-.11965-.46213-.179021-.694617l-.352638-1.406302-.345542-1.42906-.33858-1.451818c-.111714-.487733-.222291-.979258-.331752-1.474576l-.325057-1.497335c-.053625-.251452-.106977-.503852-.160059-.757201l-.315265-1.531471-.308903-1.554228-.302675-1.576986c-.099868-.529456-.198721-1.062703-.29658-1.599744l-.290619-1.622502c-.047947-.272313-.095651-.545575-.143116-.819784l-.281927-1.656638-.276299-1.679395-.270805-1.702152-.265444-1.724909-.260216-1.747667c-.042941-.293174-.08567-.587296-.128189-.882367l-.252625-1.781802-.247731-1.804559-.24297-1.827315-.238343-1.850073c-2.700489-21.293491-4.202989-46.141544-4.488221-67.649582l-.003919-.292665.00103-.586242c.118585-10.441532 4.64164-22.086517 15.997013-32.180989 12.332194-10.962826 30.887378-18.00869 56.489347-20.692763l1.818912-.182214c3.966383-.379075 8.09805-.655878 12.397949-.828819zm178.1358 254.785717-2.363989 2.407211-1.106925 1.111005c-.366375.36475-.733825.727464-1.113376 1.098779-2.58856 2.532388-5.30592 5.033711-8.334647 7.623859-8.101795 6.928603-17.390449 13.597262-28.179956 19.873189-7.269178 4.228259-15.604864 8.626764-24.285577 12.872567l-2.613843 1.268837c-2.622751 1.263611-5.270061 2.510571-7.92245 3.732162l-2.653361 1.212812c-1.80176.8173-3.602868 1.621564-5.397226 2.410064 27.313879 9.899278 54.797763 17.452556 79.127318 21.35444 9.414811 1.509912 19.290893 2.819876 29.527029 3.948902l3.425241.369667c7.449649.786539 15.081237 1.479802 22.856634 2.086951l3.598718.274134 3.618307.262062 3.637063.250146c.607694.040706 1.216135.080923 1.825305.120653l3.663637.232564c1.224037.075592 2.450854.149264 3.68031.22104l3.696151.209671 3.711159.19846 3.725334.187403 3.738675.176505 3.751184.165762c.626193.026741 1.252873.05304 1.880022.078902l3.768385.149942c1.257912.048246 2.517562.094768 3.778811.13959l3.788403.129395c1.264308.04145 2.530075.081227 3.797164.119357l3.80509.109476c.634796.017431 1.269887.034456 1.905257.05108l3.815418.094946 1.909953.043904 3.823872.080768 3.828466.071513 3.832228.062412 3.835156.05347c.639391.008175 1.278869.015984 1.918416.02343l3.837987.040349 3.838833.031796 3.838845.023402 3.838025.015162 3.836371.00708h3.083409l3.644174-.006475.169288-.029287.331815-.065194.602069-.132869.540374-.130518c.106572-.026606.215205-.054203.325861-.082783l.687929-.183203c.118605-.032476.23916-.065918.361628-.100318l.757487-.217815.801659-.24038.844076-.262538.884734-.284289.923633-.30563c.439633-.147478.888565-.300825 1.346096-.459757l1.397697-.493267 1.445106-.525074c.244569-.090068.490939-.18139.739022-.273931l1.508362-.569586c.254587-.097274.510714-.195695.768292-.295228l1.562188-.610263c.263035-.10384.527347-.208721.792849-.314607l1.606584-.647103 1.396251-.57336-1.052773-.599489-3.62453-2.057619-3.581549-2.021147-2.363805-1.327166-4.67023-2.605684-3.452432-1.91169-3.409335-1.875191-3.366212-1.838683-3.323059-1.80217-3.279878-1.76565-2.162583-1.156807-3.207848-1.704767-2.114535-1.116213-3.135739-1.643865-3.092434-1.607314-3.049103-1.570757-3.005743-1.534192-2.962355-1.497621-1.950784-.978093-2.889977-1.436653-1.902506-.937442-1.883181-.921177-1.863847-.904911-2.7595-1.326862-1.815474-.864236-1.796111-.847963-1.776739-.831687-1.757359-.815409-1.73797-.79913-1.718573-.782848-2.541471-1.143739-1.670043-.742135-1.650617-.725846-2.439482-1.058222-1.602013-.685114-1.582558-.668818-2.113536-.881869c-.437874-.181846-.876431-.363515-1.31569-.545013l-2.644109-1.086945-2.661803-1.083003-2.680362-1.079256-2.699788-1.075703-2.720079-1.072348c-.455085-.178456-.911052-.356781-1.367919-.534977l-2.752137-1.067682c-.460537-.177702-.92201-.355285-1.384436-.532753l-2.786144-1.063456c-1.398938-.531068-2.806784-1.061171-4.224024-1.59042l-2.847149-1.057391c-.476661-.176053-.954401-.352018-1.43324-.527902l-2.886349-1.054339c-.483302-.175569-.967739-.351063-1.453327-.526486l-2.927496-1.051729c-.490269-.175158-.981725-.350253-1.474387-.525291l-2.970592-1.049558c-.497559-.17482-.99636-.349591-1.496421-.524316l-3.015634-1.047828c-1.010348-.349113-2.025881-.698076-3.046744-1.046919l-3.078719-1.046207-3.111561-1.045689c-.521378-.17425-1.044161-.348486-1.568366-.522713l-3.162446-1.045281c-1.059935-.348412-2.125703-.696819-3.197451-1.045254l-3.233321-1.045422-3.270057-1.045786-3.307659-1.046345-3.346127-1.047102-1.937779-.59671-3.035178-.914141-3.928173-1.1569zm-43.096876-17.694077-.352731.188886c-24.480004 13.074755-54.684141 23.000714-82.329717 27.973447-9.382044 1.687591-15.54374 6.482815-17.972542 12.341145-.668478 1.612386-.963413 3.14811-.938101 4.41403l1.917376.997403 1.350676.694533 1.372007.698122 1.392849.701434 1.413204.704468 1.433071.707227 2.185789 1.065404 1.480604.712909 2.254801 1.072631 1.525087.716861 2.31924 1.077261 2.355708 1.078792 1.589918.719584 1.604907.719573 2.434396 1.078731 1.640243.718331 1.653524.717351 2.50412 1.073581 1.301447.550373.598292-.218764 1.195985-.446593 1.238543-.470967 1.932878-.750315 1.335476-.528229 1.370465-.549664 2.116575-.862853 1.448481-.599581 1.475904-.61808 2.260545-.959968 1.535002-.660654c8.813246-3.81307 17.878161-8.063151 26.351924-12.367835l2.404261-1.231065c5.171225-2.669096 10.085148-5.34516 14.541826-7.937473 9.714037-5.65036 18.02522-11.617257 25.237167-17.784868 1.296164-1.108471 2.526228-2.197145 3.709814-3.279227l-.560124-.154623-8.401194-2.295931c-5.407292-1.470659-9.452387-4.823088-11.927696-9.005387zm-140.085096-56.241683-.645426 1.379463-.921068 1.982063-1.396003 3.032367-.940262 2.061084-.947933 2.092683-.651252 1.449897c-.163795 2.277675-.72026 4.552158-1.690736 6.723123l-1.157981 2.600724-1.169059 2.646128-1.180129 2.691521-1.191191 2.736898-1.807505 4.190402-1.218804 2.850284-1.848884 4.360416-1.246362 2.963584-1.257369 3.008881-1.268368 3.054163c-1.831354 4.423318-5.125858 7.924306-9.172793 10.052544-1.786354 2.700766-3.622387 5.288389-5.504415 7.760797 18.966638 2.27848 36.646593 8.531116 50.542573 19.388723l.333653.258734c.112618.086685.226633.173808.342035.261363l.708971.530472c.241817.178522.489099.358727.741766.540568l.774073.550389.805893.559932c.13694.094102.275185.18859.414726.283458l.852706.573727.059662.039658c.184525-.514629.382678-1.027673.594454-1.538481 5.026086-12.123043 16.668746-21.279209 32.351816-24.262907l.555194-.102739c12.704795-2.285268 26.041358-5.719435 38.989868-10.053795l.260704-.088568c-10.766682-16.367864-21.816325-28.515629-33.053388-36.483226-15.444591-10.950928-41.866992-18.070371-60.059166-18.09433zm-127.832039 64.867527-.809957.119978c-1.464683.218801-2.908139.447358-4.330346.685653l-.68882.115689-2.844235.483115-4.523746.783874-5.645869.999896-6.014214 1.086251-6.353005 1.166738-6.662249 1.241356-7.954754 1.502537-10.389964 1.991104-9.708866 1.886115-10.054964 1.976271 1.475393-.059093c.526225-.020972 1.051341-.041442 1.575257-.061401l3.128383-.11355c.518758-.017878 1.036137-.035228 1.552045-.052038l3.077094-.094327 3.037496-.08096 2.993572-.06715 2.945324-.052898c2.433133-.038021 4.811502-.060736 7.123845-.066994l2.837112-.003142c.51134-.000909 1.022693-.002271 1.534014-.004084l3.067151-.016262 3.064082-.026944 3.058735-.037497 3.051109-.047922 3.041205-.058215 3.029024-.06838c1.007391-.024473 2.012371-.050619 3.014562-.078415l2.997824-.088321 2.978807-.098097c.494757-.017157.988626-.034716 1.48156-.052674l2.946009-.112518 2.921296-.12197 2.894305-.131293 2.865034-.140487 2.833487-.14955 2.79966-.158485 2.763556-.167289 2.725172-.175964c.45087-.030043.900046-.060442 1.34748-.091195l.782407-.056229-.061039-.106442c-.05273-.091229-.105779-.182748-.159148-.274558-2.097215-3.607814-4.379339-6.657465-6.830033-9.237195-.629744-.662901-1.266201-1.290872-1.910791-1.887038zm55.198313-3.536119-2.559311.008668c-.84896.004853-1.693777.011669-2.534449.020446l-2.509575.032217-2.484689.043977-2.459791.055729c-1.631558.041068-3.246509.089964-4.844835.146676l-2.38502.090929c-.79085.032263-1.577541.066478-2.360072.102644l-2.33511.11435-2.310137.126047-2.285151.137735c-.378776.023929-.75651.048345-1.133202.073247l-1.176846.079914c.757979 1.152594 1.495337 2.344488 2.211573 3.57662l.646742 1.123172.624997 1.107263.603092 1.091565.581028 1.076077c.284972.534201.56161 1.062673.829825 1.585533l.525174 1.038274c.171297.343621.338824.684783.502554 1.02352l.202901.426749.62285-.072214 1.445604-.176133 1.403076-.1783 1.35958-.180342 1.315122-.182255 1.269699-.18404 1.22331-.1857 1.139021-.181218 1.051613-.175391.99921-.174839.945549-.173915.89063-.172617c.143792-.02864.285243-.057211.424328-.085705l.805892-.169969.747826-.167739.351746-.082915.508139-.125306.452166-.118307.394008-.110137.418398-.126101c.006435-.001115.0043.001044-.007023.007018l.701558-.306258c4.568903-1.940701 10.598798-3.25036 17.39405-3.906877 1.818697-1.754631 3.61209-3.634319 5.374891-5.636521l-2.060897-.052286c-.45137-.010367-.901707-.02024-1.351011-.029619l-2.683429-.050365c-.445172-.007408-.889311-.014324-1.332416-.020747l-2.646226-.03263c-2.19485-.02227-4.363848-.032237-6.506962-.029924zm160.868242-152.028645-1.555668 1.052137-7.70251 5.186192-5.55346 3.765954-2.87193 1.980963-2.889275 2.021845-1.542463 1.097178-1.540645 1.111781c-1.026324.745927-2.050938 1.501203-3.072842 2.265055l-1.530699 1.152114-.763592.5807-1.523199 1.170323-1.517265 1.181737c-.252341.197875-.504403.396202-.756172.594968l-1.506957 1.197771-1.49915 1.207735c-.498332.404175-.995239.809914-1.490594 1.217121l-1.48129 1.225924c-.246065.205022-.49171.410387-.736922.616083l-1.465929 1.238044-1.454753 1.245398c-.724458.624441-1.444444 1.251423-2.159537 1.880619l-1.423538 1.261248c-.236127.210667-.47168.421557-.706642.632656l-1.402562 1.269017-1.387643 1.273472c-.229989.212585-.459325.42533-.687993.638225l-1.36386 1.279067c-.451863.426888-.900928.854278-1.347069 1.282071l-1.32953 1.284496c-.44017.428505-.877292.857318-1.311242 1.286341l-1.292204 1.287606c-9.12587 9.165781-16.748886 18.383589-21.65508 26.712984 20.875945 1.959278 45.624433 9.729008 61.914955 21.27974 14.344512 10.170922 27.846769 25.378775 40.624523 45.574347 13.124545-5.542992 25.211536-11.968185 35.018331-18.972474 3.004876-2.36864 5.790819-4.69254 8.363376-6.971055l1.181125-1.056459c8.937385-8.07421 15.163695-15.563645 18.727503-22.291135 8.611461-16.256075 9.866636-37.16002.931754-57.094665l-.918468-2.058784-.885851-2.005397-.85452-1.955201-.191509-.446313c-4.002403-4.290403-9.45359-7.667511-16.532843-10.623292l-.992677-.407446c-.167193-.067473-.335261-.134733-.504206-.201786l-1.024217-.399882c-.172463-.06625-.345808-.132304-.520037-.198169l-1.002721-.373874-1.028751-.373339c-.174102-.062359-.349644-.124831-.526803-.187485l-1.083799-.378634-1.131166-.38623-1.18707-.397078-3.442733-1.116165-5.10295-1.632126c-16.30978-5.278236-29.152862-7.10695-46.174633-7.10695-1.877188 0-3.63357-.517239-5.134398-1.416973zm-63.097174-50.164089c-4.404099-.209332-9.080832-.266837-14.037417-.15916l-1.761014.044884c-.295443.008631-.591858.017839-.889245.027627l-1.796007.065705-1.492966.065126-1.467667.074184c-.24251.013113-.483971.026597-.724386.040452l-1.429957.087546c-.236241.015324-.47144.031013-.705602.047065l-1.392532.100638-1.367739.109216c-.225898.01891-.450768.038174-.674613.057787l-1.330789.121857-1.306315.130135-1.281966.138293c-.211639.023722-.422268.047779-.631891.072168l-1.245681.150304-1.221649.158162-1.197743.165899-1.173965.173516-1.150313.181013c-.189755.030787-.37853.061882-.566327.093281l-1.115073.192034-1.091738.199232c-.540056.101395-1.071409.205443-1.59413.312078l-1.033954.216699-1.011062.223476-.988296.230132-.965659.23667-.943146.243085c-.310644.082085-.617558.165219-.920761.249383l-.898503.255559c-.295805.086202-.587922.173414-.876371.261615l-.854365.267552c-.140568.04508-.280224.090403-.418971.135965l-.821595.276231-.799906.281868c-.131518.047441-.262137.095112-.39186.14301l-.767612.290097-.746239.295433c-.858195.347738-1.673014.706125-2.445363 1.074304l-.651634.31796c-.748153.373704-1.454095.756954-2.118731 1.148893l-.559592.338055c-.183173.113381-.362995.227451-.539487.34219l-.519509.346206c-.084927.058029-.169026.11622-.252302.174571l-.489778.352004c-.559914.412862-1.079684.833309-1.560217 1.260484-1.482997 1.318324-2.213689 2.380117-2.546503 3.236975l-.017229.044971.018546 1.234573c.317255 19.043245 1.641028 40.768969 3.91512 59.411315l.230574 1.853743c.089485.70559.180199 1.405278.272131 2.098948l.279445 2.062839.286694 2.026031c.096766.669131.194729 1.332011.29388 1.988521l.301004 1.950311c.101515.643657.204206 1.280829.308064 1.911399l.31506 1.871787c1.008702 5.863866 2.121692 11.121352 3.329923 15.6723 1.052944 3.966043 2.153238 7.295587 3.254237 9.894776.043981.10383.087696.205867.131117.306098l.256767.579613c.042131.092955.083912.184077.125315.273354l.243653.513407.233236.468474.221478.422903.208379.376696c.033564.058897.066526.115842.098859.170821l.186218.30619c.029703.047067.05872.092141.087024.13521l.161042.234251c.050678.069993.09828.131861.142581.185495l1.146575 1.37831 1.128005 1.335993c.186498.219177.372255.436619.557289.65234l1.101646 1.273786c1.700235 1.949286 3.340324 3.751171 4.93375 5.417093.121171-3.139426 1.715618-5.976024 4.177321-7.738803l.435444-.892175.911579-1.851193.903944-1.818642 1.332719-2.649409c6.492809-12.812951 18.215109-26.917512 32.317319-40.338557l1.49311-1.410132c.500552-.469146 1.00391-.937364 1.509952-1.404571l1.526055-1.398498c1.53386-1.395291 3.090766-2.780704 4.667396-4.153937l1.58308-1.369087c.264902-.227476.53032-.454592.796241-.681338l1.601419-1.355946c.803596-.675665 1.611431-1.347806 2.423089-2.016133l1.628289-1.331485c1.360951-1.105192 2.731751-2.199259 4.110477-3.280867l1.658154-1.291864c.830856-.642857 1.664288-1.281037 2.499882-1.914252l1.673945-1.259724 1.67897-1.245972 1.683255-1.231709c.280858-.204068.561865-.40752.843004-.610346l1.688299-1.209353c.563214-.400555 1.126834-.79852 1.690738-1.193809l2.602277-1.815874 1.394736-.964053 4.051533-2.764068 7.712817-5.19788c-.881591-2.24453-1.374082-4.725519-1.374037-7.390805l.000381-16.371095c-1.496746-1.209545-3.463294-2.495307-5.926519-3.775134l-.46768-.239878c-1.670966-.846103-3.463605-1.642781-5.380455-2.385338l-.968787-.366746c-.163194-.060365-.327253-.12035-.492179-.17995l-.999973-.352971c-1.0104-.348319-2.052117-.682619-3.125469-1.002312l-1.083908-.314802-1.105068-.304934c-1.859454-.499927-3.807368-.958191-5.845213-1.372075l-1.23351-.242983c-1.451713-.277216-2.947635-.53242-4.488272-.764678l-1.331507-.193437-1.353478-.182069c-.227415-.02939-.455748-.058301-.685001-.08673l-1.386567-.16477c-.465876-.052982-.935444-.104014-1.408715-.153076l-1.430932-.141249c-1.922753-.180392-3.904942-.3289-5.947318-.444133zm126.31663 10.81743-.268509.027018c-.578727.067914-1.198857.197978-1.930244.400781l-.375289.107513c-3.235085.954656-7.179342 2.991546-11.89024 6.430724l-.839304.621535c-.564858.424149-1.140373.867966-1.72664 1.331974l-.887475.711221c-.298521.242164-.599741.489442-.903673.741897l-.919939.772965c-.154683.131438-.310047.264187-.466092.398254l-.944473.820299-1.776507 1.568967c-3.365269 2.961103-6.662979 5.769285-9.936701 8.46512 8.484146 1.213545 16.843684 3.176175 26.054744 6.104575l8.391527 2.689285.754148.246861 1.450866.481738 1.384405.469693 1.330083.462373c.217828.076715.433898.153321.648464.229918l1.271356.460249 1.247376.464737c.371792.140552.740676.281938 1.106689.424215l-.406938-1.295552c-.083427-.269019-.16662-.538605-.249607-.808825l-.49565-1.629469-.49197-1.647885-.489575-1.669494-.488468-1.694293-.733436-2.59492-.738178-2.66867-1.458651-5.35287-.5326-1.926143-.402453-1.426584c-1.371924-4.771165-2.864943-8.806824-4.26708-11.678998z"/></svg>