<svg height="960" viewBox="0 0 960 960" width="960" xmlns="http://www.w3.org/2000/svg"><g fill="#000" fill-rule="nonzero"><path d="m683.66999 472.583055 8.714524.963404c5.397017 27.03368 10.74229 72.925 8.53731 75.37644-1.017589 1.018198 0 7.89103 1.780782 15.272961.030417.107907.060564.215904.09044.324006l.176019.649997c2.56293 9.663928 2.990934 20.399841 1.514323 42.808484-2.289577 37.418754-1.780782 53.455363 1.526384 59.819096 1.780782 3.309142 1.526384 5.090987-.763192 5.854635-2.289577.763648-2.035179 2.290944 1.017589 5.854635 2.798372 3.054592 4.833551 11.454721 5.596743 22.654892.335805 3.808058.794738 7.89948 1.330749 12.005934l.148061 1.120112.151676 1.119649c.047302.345029.095091.689819.143338 1.034212l.146088 1.031821c.024569.171718.049245.343297.074025.514716l.149907 1.026443c1.838432 12.461228 4.196439 23.860432 5.742475 26.438699.763192 1.145472 2.241877 16.036608 3.47014 32.323789l.097708 1.305719.09653 1.31027c.015984.218679.031915.43749.047789.656402l.094557 1.314462.093103 1.315501.045972.657701.090718 1.314424c.194722 2.845746.377278 5.674069.542636 8.420657 0 2.036394 1.01759 5.090986 2.289577 6.618283 3.052769 3.81824 5.596743 57.528151 2.798371 59.309997-1.271987 1.018197-1.271987 7.89103.254398 17.054806 1.526384 8.654678 1.780781 17.309355 1.017589 19.854849-2.798371 6.872832-13.483062 9.163776-44.519544 9.163776-1.520536.023407-3.047525.048966-4.570682.076876l-1.141489.021376c-14.635755.280058-28.678263.78243-32.956233 1.683594-4.83355.763648-15.518241 1.527296-23.40456 1.527296-8.140717.254549-14.755049.763648-14.755049 1.781845 0 .763648-2.035179 1.527296-4.324755 1.781846-2.476135 0-14.110666 1.205772-26.458589 2.913145l-1.01633.141447c-15.772638 1.781845-23.150163 1.781845-24.42215 0-1.017589-1.781846-4.83355-.763648-10.939088 2.545493-5.087948 3.054592-13.228664 5.345536-17.807817 5.345536-7.123127 0-8.903909-1.272746-10.175896-6.363733-1.780782-7.127382-9.158306-8.654678-14.755049-3.054592-1.780782 1.781845-6.359935 5.345536-10.175896 7.891029-5.087948 3.309142-6.868729 3.563691-7.886319 1.018198-1.01759-2.545494-2.543974-2.036395-5.342345 1.527296-4.579153 5.600085-25.43974 8.654678-27.983714 4.327339-2.798371-4.327339-10.430293-3.309142-15.263843 2.036394-4.579153 5.090987-13.228665 7.127382-38.414007 9.163777-32.562866 2.545493-73.266449 9.163776-75.556026 12.472918-1.017589 1.527296-3.052769 1.272746-5.596743-.763648-2.289576-2.036395-6.614332-2.800043-10.175895-1.781846-3.815961 1.018198-6.614333.25455-7.377525-1.781845-.763192-2.290944-3.307166-1.781846-10.175896 1.781845-5.087947 2.545494-11.447882 4.07279-14.246254 3.309142-2.798371-.763648-9.412703.254549-14.755048 2.290944-13.483062 4.836437-13.73746 4.581888-27.220522-5.854635-10.430293-7.89103-11.956677-10.436523-10.68469-16.291158.763192-3.563691.254397-7.63648-1.01759-8.909227s-1.271987-6.872833.254398-13.491115c2.035179-8.909228 1.780781-12.982017-1.526385-19.6003-4.83355-10.436523-5.087948-16.545707 0-14.763862 5.596743 2.290944 4.833551-5.600086-1.526384-14.254763-3.052769-4.07279-4.833551-8.909227-4.070358-11.200171.763192-2.036395.508794-4.581889-.763193-5.345537-3.307166-2.036394-3.052768-27.491329 0-40.727895 1.780782-8.145579 1.526385-10.691072-1.271987-12.982016-2.035179-1.527297-3.561563-5.600086-3.561563-8.909228.254397-3.309141-.254397-7.891029-1.271987-10.181973-1.271987-3.054592-.254397-4.581889 3.561563-5.600086 4.833551-1.272747 5.087948-2.036395 2.289577-7.381931-6.614332-12.472918-7.123127-14.763862-5.85114-18.582102.763192-2.036395.763192-5.854635-.508795-8.400128-2.035179-4.836438-3.307166-13.236566-4.324756-33.600514-.508794-7.63648-1.780781-16.545707-2.798371-19.854849-1.526384-4.327339-.763192-6.872832 2.798371-9.672875 3.131134-2.395826 3.995319-3.323928 2.109829-5.392593l9.84576-2.569554c.082454-.02152.167321-.032413.252537-.032413.552285 0 1 .447715 1 1v5.83444c0 .052005.004057.10393.012133.155304.085772.545584.597587.918335 1.143171.832563l8.61378-1.354189c.051374-.008076.103299-.012133.155304-.012133.552285 0 1 .447715 1 1v8.015133c0 .092254.012766.184064.037934.272818.150673.531334.703549.839921 1.234883.689248l.21752-.061683c.119561-.033904.244394-.045225.368104-.033384.549772.052626.952788.540965.900163 1.090737l-.462273 4.829307c-.024818.25927.054374.51778.220156.718662.345225.418317.964198.47757 1.382516.132345l1.048963-.865678c.002768-.002285.005549-.004555.008342-.00681.429722-.346925 1.059319-.279806 1.406245.149916l1.501478 1.859814c.189846.235154.475857.371835.77808.371835h3.835907c.160616 0 .318868-.038688.461368-.112791l5.813892-3.023353c.142499-.074103.300752-.112791.461368-.112791.552285 0 1 .447715 1 1v6.815131c0 .29633.131425.577398.358827.767397.423821.35411 1.054459.297597 1.408569-.126224l3.197144-3.826545c.119667-.143225.277028-.250103.45428-.308542.524513-.17293 1.089902.112085 1.262832.636598l.768125 2.329324c-2.283957 14.521638-1.612299 52.148196 1.880914 72.503171 1.221107 7.331021 2.767843 27.369146 3.728448 48.775727l.070932 1.607883c.05817 1.341745.113962 2.687728.167153 4.035181l.092886 2.426405c.099978 2.696441.189017 5.392119.265336 8.064887 2.289577 68.473774 2.798372 77.63755 5.342346 80.183044 1.271987 1.018197 11.193485.254549 22.132573-2.036395 17.55342-3.309142 20.097394-3.309142 24.167752 0 4.833551 4.327339 20.351792 5.345536 24.930945 1.527296 1.780782-1.272747 5.596743-1.018197 9.667101.763648 5.342345 2.545494 9.412704 2.290944 22.386971-1.527296 8.903908-2.545493 18.316612-6.363734 21.114983-8.145579 2.798372-1.781845 9.921499-3.309142 15.772639-3.309142 6.105537 0 15.772638-1.018197 21.623778-2.545493 5.087948-1.060622 20.422458-3.181867 36.728624-5.185264l1.224639-.150016 1.227414-.149463c.409504-.049717.819325-.099323 1.229318-.1488l1.230354-.148027c.410193-.049201.820415-.098255 1.230519-.147143l1.229815-.146148c.409724-.048539.819187-.096893 1.228242-.145044l1.225798-.143829c1.741209-.181012 3.508549-.37007 5.289512-.565207l1.338081-.147461c.670123-.07427 1.341722-.149325 2.014137-.225062l1.345724-.152354c1.346421-.153201 2.694351-.308853 4.038511-.466127l1.342709-.157783c.894041-.105509 1.785625-.211615 2.67319-.318073l1.328135-.159921c13.468088-1.627917 25.819459-3.309106 31.50948-4.171745 6.383785-1.161382 21.887837-2.76433 38.122799-4.137295l1.335853-.112315c4.680041-.391193 9.401548-.76183 13.964801-1.095926 96.162215-6.872833 118.040391-8.909227 119.821173-10.691073 1.017589-1.018197.508794-6.109184-1.01759-11.200171-3.561563-12.472918-8.395114-61.091843-6.359935-66.18283 1.01759-2.290944-.254397-5.345536-3.052769-7.381931-4.070358-3.054592-4.579153-10.945622-6.359934-89.601369-1.01759-47.600728-2.798372-87.819524-3.815961-89.601369-1.01759-1.781846-1.780782-23.163991-1.780782-47.346179l.464952-40.35196c.1462-.415527.225722-.86247.225722-1.327987v-30.696433l7.881942 1.986721.177114.040632c3.003222.621444 5.592087-2.268433 4.585025-5.213592zm164.293528-462.0320199c13.991857 11.4547205 31.036482 32.8368655 31.036482 38.9460498 0 2.8000428-2.289577 7.1273816-5.087948 9.9274244s-5.087948 7.381931-5.087948 10.4365231c0 4.0727896-1.017589 4.8364376-5.342345 3.5636909-4.968381-1.6571163-5.536196-.452156-1.498819 10.3715827l.266868.7117185c.227717.6043319.468759 1.2368871.723156 1.8987154.508795 1.527296-1.271987 5.3455362-3.815961 8.6546777-4.324755 5.3455364-7.123127 6.1091844-21.369381 6.1091844l-16.53583.254549 1.017589 10.181974c.763192 7.381931.508795 9.163776-1.526384 6.363734-1.271987-2.036395-3.307166-2.800043-4.324756-1.781846-1.01759 1.018198 1.271987 5.090987 5.087948 9.163777l7.123127 7.381931-5.596743 3.054592c-4.324755 2.290944-5.342345 4.836437-4.83355 13.491115 1.017589 19.091201 0 27.23678-3.815961 27.23678-3.052769 0-3.307166 1.781845-1.271987 8.145579 3.307166 11.963819 2.798371 17.309355-1.526384 17.309355-2.03518 0-4.833551 2.290944-6.359935 5.345537-2.035179 3.56369-4.324756 4.581888-7.123127 3.56369-2.289577-1.018197-5.85114-2.290944-7.377525-3.054592-2.289576-1.018197-3.307166 2.036395-3.307166 10.436523 0 16.036609-9.667101 31.818669-18.57101 30.291372-6.359935-1.272746-9.667101 3.818241-10.430293 15.78206-.254397 3.054592-2.798371 5.345536-6.614332 6.363733-4.324756 1.018198-5.342345 2.036395-3.052769 3.563691 4.070359 2.545494 3.815961 14.509313-.254397 22.654892-3.052769 5.854635-3.815961 6.109184-9.667101 2.800043-3.307166-1.781846-6.86873-3.309142-7.886319-3.563691-2.289577 0 4.324755 8.400128 12.974267 16.545707l5.85114 5.854635-5.342345 1.781846c-3.815961 1.272746-9.158307-.509099-17.807818-6.109185-11.956678-7.891029-20.606189-10.181973-20.606189-5.600085 0 1.272747 5.342345 7.891029 12.211075 14.509312 6.614332 6.618283 10.175896 10.691073 7.886319 9.163777-8.140716-6.109184-7.123127.763648 1.526384 8.654678 4.833551 4.327338 8.903909 9.418325 8.903909 10.945621 0 4.07279-9.158306 3.309142-12.719869-1.018197-4.579154-5.345536-6.86873-4.836438-6.86873 2.036395 0 3.81824 2.543974 7.381931 7.377524 10.181974 4.070359 2.290944 6.614333 5.600085 5.85114 6.872832-1.017589 1.527296 0 5.345536 2.289577 8.654678 3.561563 5.854635 3.561563 6.109184-1.271987 4.836437-4.070358-1.272747-5.087948-.254549-4.83355 3.309142 1.017589 8.654677 0 11.200171-3.815961 11.200171-2.03518 0-3.815961 1.018197-3.815961 2.545493 0 1.272747 1.271987 2.545494 2.543974 2.545494 1.526384 0 2.543974 3.309141 2.543974 7.63648 0 4.07279-1.271987 7.63648-2.798372 7.63648-2.035179 0-2.035179 1.272747.254398 3.818241 2.543974 3.054592 2.543974 3.81824-.763193 3.81824-2.035179 0-4.324755 1.272746-4.83355 2.800043-.763192 2.290944-2.543974 2.290944-6.86873 0-8.140716-4.327339-9.921498-1.272747-3.307166 5.600085 3.052769 3.309142 5.596743 7.63648 5.596743 9.672875 0 3.054592-.508795 3.054592-2.543974-.254549-3.561564-5.600086-5.596743-1.527296-2.798371 5.854635 2.798371 7.127381 1.526384 9.418326-5.342346 9.418326-5.342345 0-5.85114 2.800042-1.526384 7.127381 2.070286 2.071523 1.771324 3.089417.408594 3.02019-.277526-1.732579-1.681216-3.137399-3.509773-3.339661l-2.643385-.293025c-1.369633-1.187769-2.0176-1.3843-2.102398-.232763l-12.752996-1.4098c-2.913935-.322319-5.173161 2.495919-4.224619 5.269936l1.747922 5.110816-5.655303-1.424336c-.749588-.674508-1.557521-1.101271-2.304524-1.101271-1.928148 0-2.739951 1.015464-2.243114 3.046392-.309149.565774-.487059 1.217236-.487059 1.919172l-.001208 33.143363c-2.837652-.291577-4.900541-1.415249-4.900541-2.726568 0-2.036395-1.01759-2.036395-3.561563 0-2.798372 2.290944-3.815961 2.290944-4.833551-.25455-1.01759-2.290944-1.526384-2.290944-1.526384-.254549-.254398 3.054592 3.561563 7.63648 11.956677 13.236566 4.833551 3.309141 5.087948 4.072789 1.01759 6.872832-3.307166 2.545494-5.596743 2.290944-10.939088-1.781845-6.614332-4.581888-6.86873-4.581888-11.193486.254549-4.83355 5.345536-3.307166 10.181974 3.815961 10.181974 2.543974 0 5.596743 1.018197 6.359935 2.545493 1.526385 2.545494-1.780782 3.563691-8.395114 2.800043-5.85114-.763648-6.105537 6.872833 0 12.982017l5.85114 5.854635-5.85114.763648c-4.579153.763648-5.342345 2.036395-4.070358 7.63648.763192 3.81824.508795 5.854635-.763192 4.327339-3.307166-4.07279-19.079805-11.70927-20.860587-9.927424-.80336.80384 3.255723 5.274318 7.80068 9.329146l.547447.484323c3.936068 3.452937 8.102012 6.477689 9.714088 6.477689 1.01759 0 2.03518 2.290944 2.03518 5.090986 0 2.800043-1.01759 5.090987-2.543974 5.090987-1.271987 0-2.543974 4.07279-2.543974 9.163777 0 6.872832-1.271987 9.418326-5.087948 10.436523-3.307166.763648-4.833551 3.309141-4.324756 6.872832.254397 4.07279-1.017589 5.345536-5.087948 5.345536-7.631922 0-10.430293 3.818241-4.83355 6.872833 3.815961 2.036395 4.070358 3.054592 1.271987 4.836437-3.052769 2.036395-3.052769 2.545494 0 4.581889 2.035179 1.272746 2.289576 2.800042.763192 3.81824-1.526384.763648-3.307166.509098-4.324756-1.018198-2.543974-4.072789-6.359935-2.800042-4.579153 1.527296 1.271987 3.563691.508795 4.07279-5.087948 2.545494-8.140716-2.036395-8.395114-.763648-1.780782 8.654678 4.833551 6.872832 6.359935 11.963819 5.596743 20.873046-.508795 5.854635-4.83355 5.854635-16.53583-.25455-12.211075-6.109184-13.991857-3.309141-2.798372 4.836438 10.430293 7.63648 11.193486 11.200171 1.780782 6.109184-.339197-.148487-.681926-.296974-1.026128-.44443l-.689757-.293231c-3.567572-1.504769-7.145624-2.82603-8.460011-2.82603-1.780782 0-3.307166-1.018197-3.307166-2.290944 0-4.072789-27.220521-21.127595-32.054072-20.109398-4.070358.763648-3.561563 1.781846 2.798372 5.090987 4.324755 2.290944 9.921498 6.363734 12.465472 9.418326 2.798371 3.054592 6.359935 5.345536 8.140717 5.345536 1.780781 0 2.798371 1.527296 2.035179 3.563691-.763192 2.290944 1.271987 5.345536 5.087948 7.89103 3.561563 2.545493 6.614332 5.854634 6.614332 7.63648 0 1.781845.763192 3.81824 2.035179 4.581888 2.289577 1.272747-1.526384.254549-8.395114-2.036395-3.052769-1.018197-3.815961-.763648-2.289576.509099 1.526384 1.018197 3.561563 4.581888 4.579153 7.63648 1.526384 4.581889 1.017589 5.600086-1.780782 4.327339-4.833551-1.781845-7.886319 6.109184-4.070358 10.691073 1.526384 2.036394 3.561563 3.054592 4.579153 2.545493 2.798371-1.781845 9.667101 4.581888 9.667101 9.418326 0 4.072789-.508795 4.072789-6.614333.254549-4.324755-3.054592-6.614332-3.563691-7.377524-1.527296-.508795 1.781846-2.035179 3.054592-3.307166 3.054592-1.01759 0-1.526385-1.527296-.763192-3.309141.763192-2.036395-.763193-5.090987-3.052769-7.127382-4.070358-3.054592-4.324756-3.054592-3.052769.763648 1.01759 2.545494.254398 4.836438-2.035179 5.600086-2.798371 1.018197-1.780782 3.309141 4.579153 9.163776 7.886319 7.381931 8.140717 7.89103 2.035179 6.109184-11.447882-3.054592-16.53583-5.600085-21.878176-10.691072-2.798371-2.800043-7.886319-5.854635-11.447882-6.872832-3.307166-1.018198-6.614333-2.800043-7.377525-3.81824-.763192-1.018198-3.815961-2.545494-6.868729-3.563691-10.684691-3.309142-5.85114 2.290944 9.667101 11.200171.56916.327894 1.139489.661638 1.708927.999646l.85323.510011c.273688.164721.546929.330248.819493.496403l.815432.500173c6.909994 4.264472 13.229962 8.822036 15.137119 10.730333 3.815961 4.327339 3.561564 4.581888-4.579153 3.054592-4.83355-.763648-11.193485-2.800043-14.246254-4.07279-7.886319-3.81824-10.175895-.763648-4.579153 5.600086 3.052769 3.309141 7.377525 5.090987 12.465473 4.581888 4.324755-.254549 10.939087 1.527296 15.009446 4.07279 9.158306 6.109184 8.649511 7.63648-1.01759 2.800043-9.412703-5.090987-17.299023-3.309142-12.465472 2.545493 4.324756 5.090987 1.780782 7.381931-4.324756 4.072789-2.076713-1.246772-7.543979-3.850575-13.35722-6.288212l-.8742-.364208c-.292012-.120861-.584507-.241116-.877107-.360574l-.877729-.355797c-.43864-.176513-.876657-.350807-1.312767-.522238-6.868729-2.800043-15.772638-6.872833-19.588599-8.909227-9.158306-5.090987-13.991857-5.090987-9.667101 0 1.780782 2.036394 4.579153 3.81824 6.105538 3.81824 4.579153.254549 10.939087 5.854635 12.719869 11.963819 1.526385 4.327339.763192 5.090987-3.052768 4.07279-2.543974-.509099-6.105538.509098-7.88632 2.545493-2.289576 3.054592-2.035179 4.581888 1.01759 7.89103 5.087948 5.090987 4.070358 5.090987-5.342345.509098-4.070359-2.036394-10.175896-4.327338-13.483062-5.345536l-6.105538-1.781845 6.86873 8.909227c6.614332 8.654678 6.614332 8.909227 1.271987 10.181974-3.561564 1.018197-5.087948 2.800042-4.070358 5.090987 2.289576 5.854634-.763193 6.872832-7.377525 2.545493-5.596743-3.563691-6.614332-3.563691-12.211075.254549-3.815961 2.545494-6.868729 3.054592-7.886319 1.527296-2.289577-3.81824-11.447883-3.054592-11.447883 1.018198 0 1.781845 2.289577 4.072789 5.087948 4.836437 6.105538 1.527296 6.614332 5.854635 1.01759 7.89103-4.833551 1.781845-9.921499-1.018197-9.921499-5.854635 0-2.036395-1.526384-4.072789-3.052768-4.581888-1.780782-.763648-3.307167.763648-3.307167 2.800043 0 3.309141-1.526384 3.81824-6.868729 2.545493-7.886319-1.781845-14.246254-8.145579-12.465472-12.472918.508794-1.781845-1.780782-2.545493-6.359935-1.781845-5.342346.763648-7.377525 0-7.377525-2.545494 0-4.836437 7.123127-19.34575 10.684691-21.382145 4.070358-2.545493-8.903909-8.145579-13.737459-5.600085-2.543974 1.272747-4.833551 1.018197-5.851141-.509099-.763192-1.272747-5.087947-2.545493-9.158306-2.545493-4.324755 0-10.68469-1.527296-14.500651-3.563691-4.070358-2.036395-9.412704-3.563691-11.956678-3.309142-6.868729.763648-7.886319-8.145579-1.526384-12.472918 7.886319-5.600085 6.614332-8.654677-3.307166-8.654677-9.412704 0-13.737459-5.854635-8.903909-11.70927 3.307166-3.81824 1.01759-8.654678-4.324756-8.654678-2.035179 0-3.561563-1.272747-3.561563-2.545493 0-1.527296-2.035179-2.545494-4.579153-2.545494-2.798372 0-6.86873-2.290944-9.412704-5.090987-3.307166-3.81824-5.596743-4.327338-9.158306-2.290944-10.175896 5.345537-4.324756-2.545493 9.921498-13.236566 10.430293-8.145579 13.228665-11.45472 10.175896-11.963819-2.543974-.509099-7.631922 1.527296-11.193485 4.327339-3.815961 3.054592-8.649512 5.345536-10.939088 5.345536-2.289577 0-7.886319 2.290944-12.71987 5.345536-10.430293 6.363734-13.228664 4.836438-4.070358-2.290944 3.815961-3.054592 6.105537-6.618283 5.087948-8.145579-1.01759-1.781845-4.579153-.254549-9.412704 3.818241-8.649511 7.381931-18.062215 8.654677-15.518241 2.290944 1.271987-3.309142.508795-3.818241-4.324756-2.290944-1.484335.436829-2.549122.693746-3.256075.750165l.962849-1.569505c.229471-.374426.187808-.854748-.102705-1.184072l-.74406-.843476c.043699-.453848-.17528-.707746-.656937-.747274l-4.507244-5.106793c-.298198-.338036-.333377-.833792-.0859-1.21055l4.750159-7.231604c.17858-.271868.213772-.613607.094347-.916164-.202772-.513714-.783599-.765782-1.297312-.56301l-12.593275 4.970793c-.025768.010171-.051103.021409-.075938.033684l-7.725093 3.818177c-.051144.025278-.104357.046133-.159057.062337-.529539.156867-1.085981-.145243-1.242847-.674782l-2.681707-9.052706c-.060852-.205418-.054123-.424948.019195-.626254l2.432703-6.679349c.055586-.15262.073159-.316483.051199-.477419-.074668-.547214-.578803-.930288-1.126017-.85562l-11.159399 1.522714c-.153673.020969-.310118.005906-.456967-.044-.522913-.177707-.802758-.745673-.62505-1.268586l1.670258-4.914822c.053742-.158139.067019-.327219.038618-.491808-.09391-.544242-.611235-.909308-1.155477-.815397l-18.436541 3.181281c-.309803.053458-.626711-.041887-.855589-.257411-.402078-.378618-.421095-1.011498-.042477-1.413575l7.260222-7.710067c.174694-.185517.271974-.430727.271974-.685549 0-.552285-.447715-1-1-1h-11.317331c-.084286 0-.168234.010656-.249847.031714l-2.102207.542549c-.02712-.89588-.039794-1.848839-.039794-2.865207 0-7.127382-1.01759-12.982017-2.543974-12.982017-1.271987 0-1.780782-1.527296-1.01759-3.563691.763192-1.781845-.508794-4.072789-2.543974-4.836437-2.289576-1.018198-4.070358-3.054593-4.070358-4.836438 0-2.290944.763192-2.036395 2.543974.509099 1.271987 2.036394 2.543974 2.545493 2.543974 1.272746 0-1.527296-1.271987-4.327338-2.543974-6.363733-2.035179-3.309142-2.798371-3.309142-4.83355-.25455-3.052769 4.836438-17.044626 0-16.027036-5.600085.508794-3.054592-.508795-3.81824-3.561564-2.545494-3.307166 1.272747-3.815961.509099-2.289576-3.81824 1.526384-5.090987 1.017589-5.345536-5.087948-3.054592-5.342346 2.036395-6.614333 2.036395-5.596743-.509099 5.342345-13.236565 5.342345-13.236565.254397-11.200171-15.263843 5.854635-24.167752 4.07279-15.263843-3.563691 2.035179-1.527296 3.307166-4.327338 2.543974-6.363733-.763192-1.781846 2.035179-5.345536 6.359935-7.89103 4.324755-2.545493 7.886319-5.600085 7.886319-6.618283 0-1.018197 1.526384-2.036395 3.307166-2.036395 1.526384 0 7.123127-3.56369 11.956677-7.891029 2.686437-2.436037 4.514053-4.095903 5.501134-5.071074l.170211-.169779c.751134-.757284.897942-1.02563.451592-.860916l-.104721.041903c-.663786.282868-2.253134 1.236156-4.746229 2.750724-4.070358 2.545494-12.211074 7.127382-17.807817 10.181974s-14.755049 8.145579-20.097394 11.454721c-5.596743 3.309141-9.412704 4.836437-8.649512 3.56369.763193-1.527296.254398-5.345536-1.017589-8.654677l-2.289577-6.363734-6.359935 6.872832c-6.105537 6.618283-11.193485 8.909227-11.193485 4.836438 0-1.018197 3.561564-4.581888 7.631922-7.89103 7.377524-5.600085 9.921498-10.436523 5.596742-10.436523-1.271986 0-4.579153 2.290944-7.631921 5.090987-3.052769 3.054592-5.596743 4.327339-5.596743 3.054592s2.798371-4.836437 6.359935-8.145579c3.307166-3.054592 5.596743-6.872832 4.83355-7.89103-.763192-1.272746.254398-1.781845 2.035179-1.018197 1.780782.763648 6.105538-1.018197 9.667101-3.81824l6.359935-5.090987-7.123127 2.545493c-10.68469 3.818241-11.447882 3.054593-3.052768-3.81824 4.070358-3.309141 6.614332-6.872832 5.85114-7.63648-2.289577-2.290944-11.956678 4.327339-13.73746 9.418326-.763192 2.545493-2.798371 3.81824-4.83355 2.800042-3.052769-1.018197-2.798371-2.800042 2.035179-8.654677 3.052769-3.81824 7.631922-7.89103 10.175896-8.654678 4.579153-1.781845 6.105537-8.909227 1.780782-8.909227-1.271987 0-1.780782-1.781845-1.01759-3.81824 1.01759-2.036395.254397-3.81824-1.526384-3.81824-2.289577 0-2.03518-1.527296.763192-4.581889 5.087948-5.600085 5.596742-8.909227 1.271987-7.63648-1.780782.763648-4.579153 0-6.105538-1.527296-2.035179-2.036395-1.271987-3.81824 3.052769-7.381931 3.307166-2.545493 6.105537-6.109184 6.105537-7.89103 0-1.781845 2.798372-5.854635 6.359935-9.163776 4.833551-4.327339 5.596743-6.618283 3.561564-9.163777-2.035179-2.545493-1.526385-4.581888 1.780782-7.891029 2.543974-2.545494 5.087947-4.327339 5.85114-4.07279.678393.226266 4.371866-1.156471 8.400348-2.896764l.60645-.26357c.101382-.044323.20289-.08883.304481-.133502l.610219-.269855c7.377524-3.56369 8.903909-3.56369 10.939088-.509098 1.271987 2.036395 1.01759 3.81824-.254397 4.327339-1.526385.509098-2.543974 2.036394-2.543974 3.56369 0 1.527297 1.526384 1.527297 3.815961-.509098 2.035179-1.781846 5.342345-2.545494 7.631921-1.527296 1.836466.656272 6.851963-2.680538 11.279775-6.660238l.000828 8.292599.004234.188478c.126522 2.805757 3.06468 4.632891 5.656001 3.4507l7.479765-3.41225.000908 13.257046.004896.19964c.104025 2.116391 1.852909 3.80036 3.995104 3.80036l5.289092-.000046.000937 3.18255.004823.198796c.112084 2.303873 2.161782 4.054158 4.478946 3.771842l14.073294-1.715188-2.443752 9.044216c-.687269 2.54251 1.227653 5.043784 3.861414 5.043784l5.048028.000753c.704995.760553 1.703434 1.066655 3.084274 1.066655 5.596743 0 20.097394 6.618283 26.457329 11.96382 4.579153 4.072789 3.561564 10.945621-1.780782 10.945621-1.780781 0-4.070358 1.781846-4.83355 4.07279-1.271987 3.054592.763192 2.545493 7.886319-1.781845 5.087948-3.309142 8.395114-4.327339 7.377525-2.800043-1.271987 2.036395 0 3.054592 3.307166 3.054592 6.105537 0 6.359935 1.018197 2.543974 8.400128-3.052769 5.345537-2.798372 5.345537 3.052768 1.527296 6.86873-4.327338 20.097394-1.272746 20.097394 4.581889 0 1.781845 1.780782 3.309141 4.070359 3.309141 3.052769 0 3.561563 1.781845 2.289576 7.63648-1.526384 6.363734-1.017589 7.636481 3.052769 7.636481 7.123127 0 16.790228 11.200171 17.807818 20.363947.254397 4.327339 1.780781 9.927425 3.307166 12.472918 1.526384 3.054592 1.271987 5.600086-.254398 7.127382-3.561563 3.563691 6.614333 10.945622 14.755049 10.945622 7.377525 0 7.377525 2.800042 0 9.672875-5.087948 4.836437-8.140716 18.073003-4.324755 18.582102 3.307166.509099 17.044625-3.81824 22.132573-6.872832 4.070358-2.545494 7.123127-2.800043 10.175896-1.272747 2.654581 1.505161 6.878828 3.533857 11.366693 5.53979l.844246.375713c.141116.06253.28241.125004.423841.187406l.849926.373412c.425471.186139.851466.371327 1.276908.555116l.849828.365576.75597.322599c6.787496 2.885418 13.081456 5.262405 14.414672 5.262405 1.271987 0 8.395114 7.127381 15.518241 15.782059 13.483062 16.800257 16.281434 26.727681 9.158307 32.582316-6.86873 5.600086-4.833551 10.691072 3.561563 8.909227 4.324756-.763648 8.140717-.509099 9.158306 1.018197 2.798372 4.836438 11.447883 3.309142 11.447883-2.036394 0-2.800043-1.01759-5.854635-2.543974-6.618283-4.579153-2.800043-2.543974-8.909227 3.815961-11.963819 4.579153-2.036395 7.123127-2.036395 9.921498.254549 7.631922 6.363734 8.649512 0 1.271987-7.89103-8.903909-9.672875-9.158306-11.45472-2.035179-13.491115 4.070358-1.272747 4.833551-3.054592 3.561564-8.654678-2.03518-9.927424 3.561563-30.800471 8.140716-30.800471 2.798372 0 3.307166-1.781845 2.035179-7.127381-1.017589-5.090987 0-9.163777 3.815961-13.745665 2.798372-3.563691 5.087948-7.891029 5.087948-9.418326 0-4.072789 2.035179-3.56369 10.175896 2.290945 9.921498 7.127381 11.956677 2.036394 2.289577-6.109185-4.070359-3.563691-6.86873-7.63648-6.105538-9.163776 1.01759-1.527296 2.543974-2.036395 3.815961-1.272747 3.815961 2.290944 5.087948-3.054592 1.526384-6.363733-3.307166-2.545494-3.052768-3.563691 1.01759-7.636481 2.798371-2.800043 6.86873-4.072789 9.921498-3.309141 6.86873 1.781845 7.123127-4.581888.508795-8.654678-4.83355-3.054592-4.83355-11.200171.254397-17.563905 1.01759-1.527296 1.526385-4.836437.508795-7.127381-1.017589-2.800043-.254397-4.07279 2.543974-4.07279 2.289577 0 4.070359-1.781845 4.070359-4.072789 0-2.800043 1.271986-3.563691 4.324755-2.545494 4.070359 1.527296 4.070359 1.527296 0-3.054592-6.614332-7.127382-5.342345-9.927424 6.359935-13.745665 9.921498-3.309141 10.939088-4.581888 12.71987-14.509312 1.017589-6.109185 4.83355-15.78206 8.140716-21.891244 1.944007-3.195632 3.433257-6.315426 4.260904-8.655676l12.450095-5.57305.166195-.080557c1.247712-.652534 1.881325-2.096074 1.496544-3.46783l-1.410971-5.030147 10.080282-2.106329.179049-.043146c1.295904-.354398 2.207134-1.534861 2.207134-2.893388l-.000465-4.649137 7.213348-2.24906c1.561526-.487017 2.445105-2.13516 1.9864-3.705236l-1.48657-5.086704.003554-.191911c.133988-3.893127 4.105686-4.567489 6.356456-.813964 2.543974 4.072789 7.123127 2.800042 5.342345-1.527296-.763192-2.036395.254397-7.127382 2.289577-11.200172 2.035179-4.072789 3.815961-12.472917 3.815961-18.836651s1.017589-11.963819 2.289576-12.727467c1.01759-.763648 6.359935 1.018197 11.956678 3.563691 11.70228 6.109184 12.211074 6.109184 10.175895 1.272746-1.017589-3.054592 0-3.563691 5.596743-2.290944l6.86873 1.781846-6.359935-5.345537-6.359935-5.345536 6.614332-.254549c3.561564 0 7.123127-.763648 8.140717-1.527296 2.035179-2.036395-5.596743-18.582102-11.70228-25.709484-4.833551-5.345536-4.833551-5.854635.254397-22.909441 1.243721-4.185923 2.738698-9.528316 4.239259-14.97686l.843035-3.069077c1.587393-5.792138 3.129089-11.481787 4.33041-15.809126 5.596742-22.145793 8.649511-30.291372 15.518241-39.455148 2.157991-3.058981 6.222829-9.552335 10.21753-16.512817l.58386-1.021597c1.457252-2.560608 2.892207-5.164366 4.208056-7.665972 5.087948-9.672875 12.974267-21.382145 17.299023-25.964033 6.614332-7.63648 9.158306-8.654677 20.097394-8.654677 13.228664 0 14.500651-1.781846 8.649511-12.727468-3.052768-5.345536-2.798371-7.381931 1.271987-15.018411 2.543974-5.090987 4.833551-10.691073 4.833551-12.472918 0-2.290944 1.780782-2.800043 5.087948-1.781845 7.123127 2.290944 6.359934-2.545494-1.271987-8.400129-5.342346-4.327339-6.105538-6.109184-4.070359-11.200171 2.798372-7.127382 15.009447-18.8366514 30.782085-29.2731745 17.044625-11.4547205 30.527687-27.7458786 30.527687-36.6551057 0-5.8546349 1.271987-7.381931 5.342346-7.381931 9.667101 0 31.545276-8.4001283 38.414006-14.763862 3.815961-3.5636908 7.631922-9.67287505 8.395114-13.49111522 1.780782-8.40012838 2.543974-8.14557904 18.57101 4.83643752zm-655.429075 642.3265169.22046.130913c.014936.008983.029635.018354.044081.028105.457771.308973.578394.930542.26942 1.388313l-.211495.31374c-.125162-.583613-.23213-1.202111-.322466-1.861071zm336.414743-5.444056c-.508795 0-1.01759 1.018197-1.01759 2.545493 0 1.272747 1.271987 2.545494 2.798371 2.545494 1.271987 0 1.780782-1.272747 1.01759-2.545494-.763192-1.527296-2.035179-2.545493-2.798371-2.545493zm79.371987-45.818882c-5.342346.254549-5.342346.254549-.508795 3.81824 6.868729 5.345536 13.483062 5.090987 9.158306 0-1.780782-2.036395-5.596743-3.81824-8.649511-3.81824zm-174.77101-199.312137c2.543974 6.872832 13.737459 21.127595 16.790228 21.127595.763192 0 1.271987-2.036394 1.271987-4.581888 0-4.836437 16.790228-11.70927 19.334202-7.63648 1.780782 2.800043 23.913355 0 28.238111-3.563691 2.289576-1.781846 4.579153-1.018197 7.631921 2.800043 4.036439 4.989167 4.748752 5.321778 12.478664 2.239581l.679991-.272522c.348829-.140413.711091-.287034 1.087599-.439763 5.342346-2.290944 11.956678-3.309142 14.500652-2.545494 2.798371.763648 9.158306.509099 13.991857-1.018197 9.451207-2.537204 15.351476-1.730353 16.375907 2.420554-.521886.544903-.832995 1.281891-.832995 2.074454l-.000465 4.417331-10.834921 2.265275-.173453.041562c-1.596411.432252-2.554038 2.090988-2.101245 3.705207l1.577619 5.627956-11.452764 5.12824c-3.230341-.33874-7.811812-.456873-12.530721-.366306l-.977889.021712c-8.158782.205685-16.4773 1.029323-18.735067 2.409894-1.952111 1.220797-16.777195 2.909983-33.250212 3.719747l-1.053599.050479c-.351874.01642-.704385.032429-1.057427.048014-.527153.023618-1.05382.04821-1.579601.073738l-1.050263.052293c-.174808.00892-.349488.017942-.524025.027063l-1.045391.055913c-15.477732.846822-29.590988 2.462449-31.92515 3.863782-2.798371 1.527296-12.465472 2.545494-21.878176 2.290944-9.412703 0-22.132573.763648-28.492508 2.036395-6.359935 1.527296-17.55342 3.81824-24.930944 5.345536-9.412704 1.781846-17.044626 2.036395-24.676548.25455-9.667101-2.290944-12.719869-1.781846-21.623778 2.800042-7.631922 4.07279-12.974267 5.090987-20.097394 3.818241-5.85114-.763648-14.755049 0-22.132573 2.290944-6.86873 2.036394-16.535831 3.81824-21.369382 3.81824-4.83355 0-13.228664.763648-18.316612 1.527296-2.475795.424675-4.322184.790309-5.697771 1.266543l.333161-1.229914.044939-.182431c.594516-2.672091-1.635602-5.167592-4.390121-4.831991l-15.48612 1.886036.000937-2.664954-.004895-.199641c-.104026-2.116391-1.852909-3.800359-3.995105-3.800359l-5.290937-.000046.000908-15.478964-.004234-.188478c-.126522-2.805757-3.06468-4.632891-5.656001-3.4507l-7.480673 3.412142v-5.768c0-1.320779-.640142-2.492045-1.627094-3.220466.892846-1.293684 1.426296-2.419762 1.426296-3.22208 0-1.018197 3.052769-3.81824 6.614332-6.363734 6.359935-4.072789 6.86873-4.072789 10.175896.25455 3.052769 4.327339 3.307166 4.327339 7.886319-.763648 5.087948-6.363734 9.158306-6.872833 13.228665-1.781846 2.289576 2.800043 2.289576 4.836438-.254398 9.163777-2.798371 4.327338-2.798371 5.600085.508795 7.63648 2.798371 1.781845 4.324756.509099 6.86873-5.345536 2.035179-4.836438 4.83355-7.381931 8.395114-7.381931 2.798371 0 5.85114-1.527296 6.614332-3.563691s3.052769-3.054592 5.087948-2.290944c2.289576.763648 3.561563-.509099 3.561563-4.07279s1.526385-5.345536 5.087948-5.345536c2.798372 0 5.087948 1.781845 5.087948 3.81824s1.271987 3.81824 2.543974 3.81824c1.526384 0 2.543974-.763648 2.543974-2.036394 0-.868463 5.922442-1.551738 13.662986-1.575967l.807063-.000136c1.084283.003005 2.200463.01886 3.337769.048807 1.427618.026952 2.752562.042489 3.980569.045705l.804373.000308c9.74504-.018955 13.022875-.884529 13.022875-3.100606 0-2.036394 2.289577-3.56369 4.833551-3.56369 2.798371 0 5.85114-1.272747 6.614332-2.545494 2.289576-3.563691 6.359935-.763648 8.903909 6.109184 1.780781 5.090987 2.035179 5.090987 5.087948-1.781845 3.561563-7.127382 8.649511-9.927424 6.105537-3.054592-2.543974 6.363733 6.359935 7.63648 12.211075 1.527296 4.579153-5.090987 5.596743-5.345536 10.430293-2.036395 3.052769 2.036395 5.596743 5.854635 5.85114 8.654678.254398 6.363734 3.052769 10.945622 6.359935 10.945622 1.526384 0 2.035179-1.018198 1.01759-2.290944-.763193-1.272747.508794-6.618283 3.052768-11.454721l4.324756-9.163776 5.85114 5.600085 5.85114 5.345537 2.798372-8.400129 3.052768-8.400128 4.579153 5.345536c5.087948 6.618283 13.73746 7.63648 11.447883 1.781845-1.017589-2.800042.763192-4.836437 5.087948-6.363733 9.412704-3.563691 10.430293-3.309142 13.483062 4.327339zm-291.030619 54.21901c-4.070358 2.800043-6.359935 5.090987-4.833551 5.090987 1.780782 0 5.596743-2.290944 8.903909-5.090987 7.886319-6.363734 5.596743-6.363734-4.070358 0zm262.029316-45.818882c-6.614332 0-8.649511 3.563691-3.052769 5.600086 4.070359 1.527296 9.412704-.25455 9.412704-3.309142 0-1.272747-2.798372-2.290944-6.359935-2.290944z"/><path d="m587.422273 708.5c.773318-1.25 2.8355-2.5 4.124363-2.5 1.546637 0 1.804409 1.25 1.031091 2.5-.773318 1.5-2.8355 2.5-4.124363 2.5-1.546637 0-1.804409-1-1.031091-2.5z" transform="matrix(1 0 0 -1 0 1417)"/><path d="m544.844087 778.123077c2.065211-5.415385 5.937482-8.123077 11.874963-8.123077 6.711935 0 5.421179 3.2-3.097816 8.123077-9.551601 5.169231-10.842357 5.169231-8.777147 0z" transform="matrix(1 0 0 -1 0 1552)"/><path d="m532.198864 789.173607c.735463-1.541669 0-3.854172-1.716081-5.138896-2.451544-1.541669-1.961235-2.312504 2.206389-2.312504 2.941853 0 5.393397-1.284724 5.393397-3.083338 0-1.541668.735463-2.055558 1.470926-1.284724.980618 1.02778.245155 3.340283-1.225772 5.395842-1.71608 2.055558-2.451544 5.138896-1.470926 6.680565.735463 1.284724-.245154 2.569448-2.451544 2.569448-2.206389 0-3.187007-1.284724-2.206389-2.826393z" transform="matrix(1 0 0 -1 0 1569)"/><path d="m495 400.725547c0-2.913037 6.867092-6.068827 8.829119-4.126802.73576.728259-.981014 2.42753-3.6788 4.126802-3.678799 1.699271-5.150319 1.699271-5.150319 0z" transform="matrix(1 0 0 -1 0 798)"/><path d="m449.887405 406.759876c-3.327664-1.59195-5.887405-4.510525-5.887405-6.633125 0-2.918576 1.023897-2.918576 4.607535.53065 2.559741 2.65325 7.935198 4.510525 11.774811 4.510525 4.095586 0 6.399353 1.0613 5.375457 2.65325-2.047793 3.1839-8.447147 2.918575-15.870398-1.0613z" transform="matrix(1 0 0 -1 0 808)"/><path d="m120.190678 464.507247c-4.75121-2.847577-5.751465-7.507247-1.500382-7.507247 3.750956 0 10.252612 7.248376 7.751975 8.8016-1.000255.517741-3.750956 0-6.251593-1.294353z" transform="matrix(1 0 0 -1 0 923)"/><path d="m89.2047073 536.989223c-.8032968-1.238035.8032968-2.723677 4.0164841-3.466497 4.2842497-.990428 4.8197809-.742821 2.1421248 2.228462-3.4809528 3.961711-4.2842496 4.209318-6.1586089 1.238035z" transform="matrix(1 0 0 -1 0 1072)"/><path d="m82.1161957 548.435757c-3.6791087-3.8354-2.6279348-4.314825 3.6791087-2.157412 2.3651413.719137 4.2046956 2.397125 4.2046956 3.595687 0 3.355975-4.2046956 2.636837-7.8838043-1.438275z" transform="matrix(1 0 0 -1 0 1097)"/></g></svg>