<svg height="960" viewBox="0 0 960 960" width="960" xmlns="http://www.w3.org/2000/svg"><path d="m162.455132 60.1054719.054971.0017308 705.930689 22.7122914c45.878718 1.5408436 81.559208 39.7390769 81.559208 85.9060159v557.013684c0 44.238571-32.83434 81.560184-76.638513 85.734069l-185.894806 17.518615-.392347 13.173333c-.207316 6.953947-2.224566 13.729709-5.84742 19.660228l-.34434.55349-5.181366 8.179169c-6.619401 10.449217-17.7007 17.248177-30.014896 18.415721l-70.055219 6.642131c-5.869929.556544-11.790308-.191502-17.33733-2.19059l-34.994082-12.611482-.039808.023861c-5.10587 2.931481-10.630021 5.083059-16.731301 6.782068l-.835585.228908c-11.22811 3.026012-25.404006 4.764342-43.346428 5.597629l-.977793.044171c-12.149535.534331-23.142456.566552-33.101874-.026894l-.513211-.032743-.003662.015836c-3.042869 11.875219-11.445267 21.906457-23.04167 26.857192l-.447585.187901c-12.223993 5.045309-26.431408 6.89936-43.508724 6.622159-17.630182-.286174-31.780868-2.681865-43.820459-8.777612-3.947984-1.998897-7.467628-4.599504-10.470313-7.657616l-.223587-.22986-.543177.077785c-.790613.107046-1.588634.191122-2.393369.251535l-.6048.040863-107.386838 6.45065c-16.448868.988072-31.82041-8.212264-38.721601-23.176058l-8.252215-17.892775-.178588-.020367c-2.995796-.371744-5.96549-.889654-8.900185-1.550951l-.791227-.183682-.669719-.036017c-47.9880193-3.011158-86.1115315-42.718631-86.892483-91.13982l-.0122179-1.515967-.00058-9.159196-.6812545-.657503c-1.1366862-1.103406-2.2523915-2.204776-3.3467571-3.303824l-1.0872392-1.098262-.67336-.681564-.0285369-.028699c-.0072781-.007314-.0157825-.015859-.0254614-.025583l-.1174175-.117937c-.2438708-.244926-.7169315-.71998-1.2438985-1.249639l-.3212467-.322943c-.7039738-.707825-1.4398036-1.448606-1.8223917-1.836725-1.6313921-1.654975-3.0411956-3.12146-4.4467797-4.640812-20.3677271-22.016285-31.0963379-47.708623-31.0963379-85.360594v-429.650701c0-1.661511.10352305-3.321407.3099675-4.970042 3.52137313-28.121173 9.7761484-50.2727 19.9759206-67.139051 5.9678059-9.873345 14.4890861-19.906563 25.6761462-30.578816l.0616468-.059305.0155262-.097762c6.7200983-42.4097397 42.0898547-75.0977627 85.0753777-78.1431742l1.189096-.0740641.621235-.1471683c7.666435-1.7666924 15.563939-2.5505763 23.530216-2.3052375zm226.544868 775.9380591-54 4.985v4.053945c1.792835.494289 3.749826.916234 5.870972 1.265826l.000028 16.497731-5.871.151069v19.652669c5.496371 2.782859 14.296783 4.272983 26.401237 4.469464 12.104454.19648 21.304042-1.003795 27.598763-3.601867v-21.911029l-7.07.18181.001542-15.876895c2.586866-.464413 4.943018-1.023658 7.068458-1.677747zm-87.09 8.04-119.26 11.009 10.261049 22.249152 107.386837-6.450651zm27.09-2.501-21 1.939v15.358134c1.711327 1.426872 5.211327 2.180565 10.5 2.260933l.475861.005301c5.02329.035142 8.36467-.614458 10.024139-1.948923zm318.951-29.443-66.927 6.178.166 36.592 60.720732-5.757126 5.181366-8.17917zm-139.951 12.919-110 10.155v10.374092c9.960914 6.660208 30.498009 9.309867 61.611285 7.94152l.928903-.041991c30.505465-1.416794 46.325402-5.681064 47.459812-12.789823zm53.032-4.895-30.032 2.772v18.135111l30.177 10.875889zm-416.097201-717.445026-.524621.159905-.150184.021704c-1.48855-.013113-2.964297.037449-4.424582.149179-18.710662 7.483158-32.377716 25.450595-33.372892 46.811808-.037796.811245-.056702 1.622996-.056702 2.434593v631.783907c0 23.03364 14.9014 42.791237 35.566966 49.984753.342093.012153.685678.020424 1.030052.025318l.878125.005019.4415-.002951.150076.022004c4.647736 1.426782 9.495829 2.196126 14.439059 2.275441l.047404-.000654 250.565-22.824 460.037539-42.411089c15.633978-1.489917 28.687288-11.266266 35.292019-24.937541 2.948738-6.180305 4.596116-13.139163 4.596116-20.481833v-557.73501c0-.988056-.029753-1.968753-.088397-2.941167-1.746751-22.92165-19.732272-41.004485-42.278933-41.761865l-705.766956-22.711575c-5.591696-.172245-11.104023.556041-16.380589 2.134054zm-62.9359883 643.828769-.0001329.420971c1.4318754 1.332993 2.9002343 2.671004 4.4050768 4.014041l.0004177-.456078c-1.5045429-1.331227-2.9729953-2.657536-4.4053616-3.978934zm.0013231-578.939944-.0000649 577.578431c1.4311438 1.329344 2.89915 2.663798 4.404025 4.003366l.0014719-585.568786c-1.5265254 1.351265-2.9950001 2.680263-4.405432 3.986989zm-25.2593875 551.156198.1940837.320936c1.6061477 2.63574 3.3131033 5.020214 5.0659468 7.219561l-.0002905-.204044c-1.9228544-2.376478-3.6757737-4.80974-5.25974-7.336453zm4.3441624-527.277972c-6.8153609 11.167413-11.6833913 28.25006-14.5849087 51.177184v429.798512c0 23.595662 5.1011284 38.768716 15.5004343 52.033735l-.0012116-534.458401c-.3180409.488092-.6228119.971082-.914314 1.44897zm423.5816473 38.492229 157.279924 1.384053c3.813686.034036 6.867558 3.192016 6.867558 7.101658v123.463931c0 3.962556-3.134007 7.190193-7 7.209129l-157.279924.770467c-3.865994.018852-7-3.155841-7-7.090959v-125.7734c.074399-3.93518 3.267141-7.098135 7.132442-7.064879z"/></svg>