<svg height="171.9mm" viewBox="0 0 459.54 487.29" width="162.11mm" xmlns="http://www.w3.org/2000/svg"><g stroke="#1d1d1b" stroke-miterlimit="10" transform="translate(-19.73 -16.09)"><path d="m21.88 270.37c-.53-28.7.33-56.52 2.2-84.27 1.48-21.9 1.41-44 5.75-65.61 5.7-28.42 19.17-52.4 42.37-70.36 15-11.65 32.36-18.37 50.8-22.38 27.76-6 55.94-8 84.27-9.2 25.86-1.1 51.64-.06 77.38 1.51 19.64 1.21 38.84 5.84 57.88 10.76 27.68 7.15 54.61 16.3 79.11 31.44 13.3 8.21 25.44 17.92 33.17 31.84 6.3 11.33 8.7 24.08 11.31 36.63 5.62 27 7.49 54.36 9.23 81.79 1.56 24.63 2.11 49.25 1.85 73.91a371.26 371.26 0 0 1 -4.83 54.66c-2.74 17.11-5.07 34.22-10.93 50.66-8.11 22.79-20.9 41.67-41.7 55-21.86 14.05-43.14 29-64.61 43.63-11.19 7.63-23.92 9.85-37 10.7-14.51.95-28.95-.76-43.37-2.12-25.85-2.42-51.63-5.54-77.27-9.76-30.18-5-59.77-12.5-87.91-24.35-35.29-14.85-60.2-40.2-72.66-77.16-9.82-29.14-15.67-58.84-15.07-89.69.15-9.5.03-19 .03-27.63zm49.12-204.37 1-1c1.48-.75 3-1.43 4.44-2.25a141.34 141.34 0 0 1 51.91-17c22-2.88 44-5.15 66.1-6.2 36.53-1.72 72.88-1.37 108.9 6.21 30.59 6.43 54 22.48 69.64 49.77 16.9 29.44 24.75 61.45 26 95 1.59 42.13-1.35 84.26-2.13 126.39-.32 17.46-.05 35-1.56 52.42-2 23.29-7 45.76-18.1 66.53-15.8 29.61-40.17 46.76-73.81 50.57-10.16 1.14-20.3.55-30.44.9-.83 0-1.66.09-2.49.13.89.14 1.78.33 2.68.41l27.37 2.2c19.3 1.54 37.48-.28 54.12-12.25 13.49-9.7 26.7-18.88 35-34 16.18-29.5 23.62-61.35 27.13-94.39 1.75-16.41 1.83-32.91 2.36-49.39 1.08-33.43 4.22-66.8 1.84-100.31-2-27.92-6.9-55.15-17.18-81.28-13.3-33.84-36.25-58.25-69.56-73.45-25.31-11.62-51.82-15.42-79.22-15.76-30.65-.38-61.29-.42-91.81 3-19.56 2.2-39 4.89-57.58 11.87-12.52 4.73-24.38 10.71-33.61 20.88zm322.58 142.76a224.48 224.48 0 0 0 -1.83-34.87c-3.24-27.43-10.66-53.55-25.07-77.36-13.06-21.59-31.29-36.26-56-42.86-25.5-6.8-51.52-8.85-77.67-9.25-31.83-.49-63.54 2.1-95.14 5.88-18.64 2.23-36.92 5.87-53.62 14.86-20 10.78-35.74 25.46-41.76 48.44-2.84 10.85-3.73 21.91-4.69 33.05-2.14 24.35-3.8 48.81-4.38 73.26-.63 27.13-1.26 54.26-.63 81.43.53 22.84 2.8 45.19 9.47 67 5.05 16.56 9.83 33.17 21.49 46.85 18.13 21.26 41 35.25 66.63 45.35 36.67 14.47 75.47 17.13 114.13 20.11a335.43 335.43 0 0 0 54.9.16c20.56-1.79 38.81-8.49 54-23 17.05-16.32 25.63-36.93 31.45-59.16 5.3-20.22 5.1-40.94 5.72-61.53 1.29-42.78 2.03-85.57 3-128.36zm73.19 61.24c-.82-27.43-1.86-59.2-4.74-90.89-1.9-20.94-4.81-41.68-10.22-62-2.44-9.19-5.26-18.25-11.9-25.56a105.89 105.89 0 0 0 -19.91-17.41c-22.5-14.91-47.51-23.92-73.31-31a24.52 24.52 0 0 0 -2.85-.46c.24 1.45 1.64 1.47 2.56 1.94 29.8 15.15 49.48 39.27 62 69.77 13.9 33.8 18.7 69.35 19.5 105.51.6 26.81-1.83 53.57-2.8 80.36-.74 20.62-.81 41.29-3.91 61.78-4.66 30.66-12.06 60.42-28.29 87.34a20.45 20.45 0 0 0 -1 2.18c1.17.48 1.84-.5 2.59-1 7.48-5 14.84-10.17 22.39-15.06 13.61-8.82 22.84-21.18 29.58-35.67 7.67-16.49 11.08-34 13.94-51.89a489 489 0 0 0 6.37-77.94z" stroke-width="4"/><g stroke-width="3"><path d="m383.23 345.24c-.28 27-3.28 53.54-15.8 78.07-14.11 27.67-36.82 42.65-67.78 45-20.68 1.57-41.26-.52-61.79-2.39-22.53-2.05-45.09-4.16-67.32-8.68-20.76-4.22-41.41-9-60.66-18.09-24-11.36-39.9-30.59-50.55-54.48-10.52-23.58-15.24-48.47-16.69-74.12a207.94 207.94 0 0 1 -.56-22.46c.33-6.43 1.19-7 7.55-6.44 37.29 3.44 74.58 6.8 111.86 10.3 37.12 3.49 74.21 7.19 111.33 10.68 33.8 3.18 67.61 6.21 101.42 9.29 6.33.57 7.4 1.58 7.86 7.87.61 8.46 1.51 16.92 1.13 25.45zm-98.05 117.6h6.5c35.2-.25 60-16.47 73.69-48.89 12.33-29.15 13-59.86 11.11-90.84-.28-4.41-3.06-5.38-6.66-5.71-18.39-1.7-36.77-3.45-55.16-5.14-26.5-2.45-53-4.84-79.52-7.33-30.31-2.84-60.62-5.81-90.93-8.66-30.15-2.83-60.32-5.45-90.44-8.51-4.78-.49-5.67.85-5.72 5.14-.25 25.33 2.71 50.21 10.77 74.28 7.58 22.65 18.95 42.88 38.56 57.61 15.87 11.93 34.52 17.14 53.23 21.9 44.12 11.21 89.33 13.92 134.57 16.15z"/><path d="m182.78 254.49c0-10.1 6.75-18.45 15.05-18.55s15.17 8.06 15.31 18.31-6.94 18.93-15.35 18.82-14.98-8.3-15.01-18.58zm24.22-1.09a17.82 17.82 0 0 0 -.6-4c-1.38-4-3.62-7.18-8.39-7.22-4.54 0-6.78 3-8.25 6.71a17 17 0 0 0 -1 4.33c-.73 6.79 3.44 13.26 8.69 13.65 5.55.4 9.55-4.87 9.55-13.47z"/></g></g></svg>