<svg height="960" viewBox="0 0 960 960" width="960" xmlns="http://www.w3.org/2000/svg"><path d="m482.423225 1c8.937302 0 26.707206 1.70279746 34.792596 3.31690664 22.853957 4.56239982 48.625894 15.21093606 71.912416 30.77219846 29.014812 19.3892029 53.011197 45.3855874 69.121688 77.6787669 8.045979 16.128018 12.972543 33.404918 15.671816 53.261365 1.84678 13.585322 2.673391 28.016213 2.87446 46.902259l.005799.628504.035778.55977.050526 1.542029.000328.018342c.002579.144463.004375.288938.005388.43342l.000943.134501.000596.104316.000328.080649.000804.249952.000239.09789.000112.049689.000819.451442.000143.099765.000929.829838.00019.221222.000827 1.26321.000148.297399.000827 2.432237.00009.413407-.001015 208.464922.099885.152654c1.355298 2.104496 2.569183 4.296656 3.657531 6.563497l.322754.68228c4.605222 9.88104 6.920537 21.407516 7.01983 33.186586v.761071c0 11.899295-2.262558 23.570914-6.847004 33.573721-1.160399 2.531877-2.471846 4.974851-3.955689 7.311617l-.296307.459574.000497 329.169833c0 13.74415-2.041144 29.576995-5.757256 43.740476l-.322617 1.209837c-5.470026 20.185103-13.734947 36.453981-27.984378 47.52205l-.316788.259841c-8.271942 6.725869-17.576243 10.152443-30.329775 13.112422l-.739625.17027c-9.329606 2.130643-20.832396 3.920976-34.208903 5.386641-26.078901 2.857469-58.945571 4.43363-93.628169 4.43363-37.980287 0-73.738109-1.890607-100.770249-5.269753-14.322807-1.790419-26.162276-3.981093-35.41291-6.715066-6.511485-1.924433-12.148411-4.18993-17.410343-7.404355-4.497673-2.747552-8.595477-6.10001-12.246761-10.594377-2.61865-3.223298-4.809407-6.822006-6.438489-10.738556l-.005234-.014893-.342017-.605123c-1.235039-2.21193-2.423995-4.562757-3.595493-7.081735l-.389892-.845927c-4.871004-10.66269-7.925413-18.296654-10.460025-27.038424-3.31556-11.435231-5.021997-22.968835-5.021997-35.39014l.000424-245.432651-.153159-.588224c-2.185214-8.589597-3.284859-17.619431-3.363316-27.038419l-.004525-1.088531.002-54.159826-.461602-.593912c-3.096276-4.051031-5.52312-8.459086-7.463156-13.159539l-.287377-.707252c-3.879457-9.698643-5.789865-20.99042-5.789865-32.533297s1.910408-22.834654 5.789865-32.533297c1.986402-4.966007 4.499443-9.613208 7.750533-13.866791l.461602-.594912-.002-202.046072c0-23.607275.740253-40.494429 2.822887-56.172019l.101822-.757672c2.699274-19.856447 7.625837-37.133347 15.671817-53.261365 16.390843-32.8551413 40.936487-59.1823942 70.595538-78.6550204 23.729068-15.5793008 49.977397-26.09720625 72.843197-30.25472649 7.410579-1.34741106 23.929562-2.85812511 32.387964-2.85812511zm-146.962979 607.076933c-1.35155-.144856-2.673737-.451309-3.939946-.898779l-.000184 69.098034c4.259118-1.06979 8.897924-.992659 13.627863.560635 1.365623.448465 2.691814.994058 3.972147 1.62812 11.034393 5.464583 17.758327 19.039452 17.758327 30.397591v96.863336c0 6.2369-2.117865 12.942265-5.6152 18.269799-2.341701 3.567141-5.335974 6.64415-9.22671 8.898304-5.752472 3.332779-12.666868 4.275621-19.368683 2.074771-.389657-.127962-.772282-.263838-1.148091-.407385l.000807 12.740292c0 18.145039 5.217559 31.255591 11.865346 45.807681 1.760794 3.854399 3.317237 6.604059 4.763506 8.597084-.019547.118438-.029369.237175-.029369.356199 0 9.354259 60.662698 16.937385 135.493927 16.937385 68.389237 0 124.94439-6.333707 134.170625-14.564141.13868-.101412.277271-.205298.415773-.311656 12.435165-9.549188 18.701113-40.721494 18.701113-60.95937l.000558-164.642978c-.784181.17959-1.582757.324225-2.394128.4321l-.347164.044251c-20.800534 2.48216-48.607171 4.376738-83.532071 5.708203-53.453776 2.037855-100.476789 1.572028-141.697655-.459492-6.86524-.338345-13.020572-.694271-19.125128-1.088691-.838905-.054202-2.492299-.16439-4.180855-.276837l-.633334-.042169c-2.106462-.140216-4.115653-.273469-4.50545-.294827-14.787203-.810211-26.045585-6.675503-31.998969-18.606281-2.305662-4.620621-3.466031-9.46969-4.001486-15.049421-.325258-3.38936-.404461-6.358535-.409232-11.88359l.000326-30.234414c-2.654676 1.166262-5.56374 1.633451-8.616663 1.306246zm-3.940567 92.832989.000946 103.464113c1.184769 4.654029 4.045921 10.495793 7.387294 11.593087 4.402005 1.445601 7.970534-5.890744 7.970534-10.241252v-96.863336c0-3.90045-2.868395-10.610065-6.634168-12.474996-.434517-.215186-.880982-.399546-1.336366-.549093-3.342262-1.097586-6.204048 1.738266-7.38824 5.071477zm152.703139-522.380745h-1.456401c-22.131876.039723-57.127458 1.69896-104.986746 4.977943l-1.600056.110158c-6.815304.471238-12.103267 6.137187-12.103267 12.968764l.001239 252.720759c2.586135 6.769627 3.922413 14.612325 3.922413 22.693199s-1.336278 15.923572-3.922413 22.693199l-.001239 142.679876c.019407 15.056722.660233 24.278372 17.504108 25.201272 8.827412.483666 71.98289 5.818021 168.286316 2.146581 34.432731-1.312702 61.740789-3.173311 81.924174-5.581825 2.525345-.303268 4.527314-2.146547 5.111802-4.521512l-.000984-158.057789c.046321.001257.092711.001888.139168.001888l.035068-.00169.000835-47.821389c-.011963-.000084-.023931-.000126-.035903-.000126l-.139932.002515.000015-225.901925-.000089-.404556-.000825-2.427486-.000146-.291027-.000824-1.25696-.000183-.212934-.000919-.819495-.000126-.086394-.000795-.436924-.000139-.059559-.000871-.280812-.000151-.034357-.000943-.134501-.000328-.018343-.00117.032654c-.000501.043399-.00102.123078-.001555.235554l-.000815.192878c-.000413.108302-.000835.234073-.001265.375843l-.000869.304437c-.004398 1.624491-.009535 4.750932-.014688 7.909766l-.001363.835311c-.00454 2.780172-.009044 5.484793-.013015 7.106517l-.000907.354562c-.000747.278686-.001473.514457-.002175.700151l-.00083.198337c-.000545.115588-.001074.197292-.001584.241445l-.00144.031818-.000287-.038594-.000713-.113414-.000138-.031275-.0008-.249937-.000128-.052275-.000854-.454205-.000115-.077803-.000763-.638612-.000203-.213434-.000855-1.192303-.000152-.277591-.000971-2.718513-.000089-.404556-.000482-5.47356c0-10.147095-.13672-19.57716-.555133-28.411915-.959393-2.477068-3.088844-4.549264-7.81415-5.3937-4.047664-.723337-50.376194-9.291604-139.457098-10.587157-1.521266-.022125-3.12035-.036979-4.797251-.036979zm-148.222818 338.470823h-7.999l-.001 56.154496c0 3.422767.192302 6.711896.576906 9.867384 3.138958-.498592 6.1971.530736 8.380026 2.563314l.180644.172142.005902-.013472c2.490128-6.700125 3.88825-17.920507 3.934162-33.346828l.001168-.788012.000032-35.105566c-1.64311.326019-3.339129.496542-5.07884.496542zm-11.094031-69.898786-.145636.030567c-5.909119 1.26344-10.547735 11.459618-10.753228 23.999746l-.005556.424c-.000628.090038-.001066.180192-.001312.270459l-.000237-.172215c0 1.389511.045512 2.752448.133011 4.080001.75357 10.485125 4.632695 18.840951 9.598663 20.820218.076597.005485.153942.0077.231494.0077 5.502505 0 9.963167-11.151655 9.963167-24.907919 0-10.162145-2.434272-18.902903-5.924557-22.776628l-.000469.204506c-.96227-1.051497-2.003522-1.735321-3.09534-1.980435zm139.610259-404.8526338-.222504.0235465c-3.009337.3278356-5.588825.6654752-7.102875.9407639-30.228633 5.4962501-86.292379 30.2660141-114.801245 87.4115084-12.359035 24.773458-14.389604 53.229319-14.389604 92.334529l.001 204.041072h7.999c1.739711 0 3.43573.170523 5.07884.496542l-.000032-237.041782c0-15.538879 3.035992-30.091301 11.244272-56.961303.325574-1.065775 2.297312-6.517111 2.750012-7.494631 16.141109-34.8536782 39.493128-58.1509864 69.615034-69.5207304 12.196076-5.6643571 24.87857-10.251907 38.04093-13.7603176.584417-.1557755 1.180139-.3121742 1.787172-.4691978zm17.363147 88.7016878c-43.740111 0-84.09598 3.329077-110.562007 8.824122l-.110032.359565c-3.217244 10.569076-5.539874 18.960636-7.142625 26.120131 3.269162-1.404396 6.817388-2.296787 10.548103-2.575699l.19296-.014127c49.155781-3.384564 85.086971-5.09947 108.066746-5.134802h1.496385c1.723894 0 3.371187.015967 4.942004.038812 38.47875.559618 71.996953 2.47639 100.627865 5.33274 11.31554 1.128889 21.198285 2.340503 29.713039 3.576331 3.138879.455576 5.92268.890228 8.402255 1.303499.929759.154963 1.772236.299504 2.566998.439327.295328.051957.568281.100473.854952.151819.324307.058208.324307.058208.519507.093231.702659.125568 1.395201.268991 2.077024.430174-1.052851-7.313166-2.482997-14.206259-4.410439-20.780679-1.397618-.769035-3.343448-1.625036-5.774824-2.505568l-.439634-.157595c-7.831661-2.779099-19.49858-5.463041-33.932154-7.78637-30.030054-4.833847-69.293958-7.714911-107.636123-7.714911zm48.617238-81.2811112-.770457.1272395c-7.353896 1.2053864-14.215863 2.3805693-20.58433 3.525044 32.977794 9.1915196 61.013106 31.1911027 83.792868 65.6362957l-.24077-.038382c10.034939 1.615294 18.91391 3.412697 26.411472 5.359316-22.724718-40.7459127-59.610336-63.8118025-88.608783-74.6095132zm-58.553771 18.7201788c-14.50425 0-27.6717 2.1748003-39.547367 6.5622888-4.483494 2.1035945-8.895406 4.3669945-13.235171 6.7904557-.975813.5449246-2.003632.9088846-3.044762 1.1028443-13.193308 8.0954546-24.434263 19.6217196-33.808382 34.6501196 26.908856-4.162546 62.080639-6.544776 99.572215-6.544776 28.687895 0 57.882055 1.571153 83.656093 4.362604-25.483861-31.4833093-56.507311-46.9235364-93.592626-46.9235364z"/></svg>