<svg width="960" height="960" viewBox="0 0 960 960" fill="none" xmlns="http://www.w3.org/2000/svg">
<path d="M269.849 322.629L876.48 338.526C883.859 338.72 890.216 342.893 893.523 348.957L929.016 350.062C939.814 350.398 948.394 359.248 948.394 370.052V590.367C948.393 601.196 939.775 610.057 928.951 610.359L893.09 611.358C889.683 617.004 883.564 620.838 876.507 621.032L269.875 637.736C268.781 637.766 267.686 637.707 266.603 637.559L203.006 628.822L71.4795 631.992C70.0254 632.027 68.5708 631.904 67.1436 631.624L26.2949 623.603C16.8929 621.756 10.121 613.501 10.1484 603.92L10.8564 357.086L10.8623 356.648C11.0868 347.487 17.5242 339.624 26.5059 337.622L67.8086 328.418L68.4102 328.294C69.8155 328.026 71.2464 327.909 72.6777 327.946L202.542 331.319L266.69 322.796L267.084 322.748C268.001 322.645 268.925 322.605 269.849 322.629ZM279.305 597.461L855.916 581.584V378L279.305 362.89V597.461ZM214.288 370.108V589.996L259.305 596.18V364.128L214.288 370.108ZM81.0068 591.751L146.754 590.166V369.883L81.125 368.178L81.0068 591.751ZM166.754 589.685L194.288 589.021V371.118L166.754 370.402V589.685ZM50.8096 373.187L50.1953 587.531L61.0088 589.654L61.124 370.888L50.8096 373.187ZM875.916 571.821L908.394 570.916V389.438L875.916 388.428V571.821Z" fill="black"/>
</svg>
