<svg height="960" viewBox="0 0 960 960" width="960" xmlns="http://www.w3.org/2000/svg"><path d="m470.362695 4.08910168c27.837814 2.15957824 110.929986 8.58684592 249.509096 19.29980132 19.174407 1.4837788 34.849933 14.5794851 40.315451 32.0886316 2.705316.5560552 5.264835 1.2117155 7.748454 1.9879164 8.716946 2.7242915 16.437739 6.9236237 23.035354 13.4367221 7.239919 7.1471746 11.715926 15.7705887 13.895782 25.1763688 1.328047 5.7303401 1.712588 10.8899491 1.712588 17.3443971v734.86463c0 13.875184-5.0061 26.733945-14.161032 36.795471-7.014569 7.709206-15.550857 12.966703-25.290523 16.673507-2.256392.858757-4.532234 1.626382-6.876847 2.291411-5.400566 17.546325-21.045764 30.711175-40.215261 32.256774-137.980785 11.18118-221.56238 17.958214-249.524732 20.232129-19.239649 1.564579-31.786208 2.343597-43.322289 2.369501l-1.15045.000081c-1.147503-.002427-2.286796-.012374-3.42356-.029809l-1.119673-.019605c-4.103943-.080767-8.199252-.259168-12.554056-.533673-21.779572-1.372873-45.140492-5.458388-76.898826-13.439678-37.835802-9.508638-68.588357-17.438824-92.270847-23.794956l-.873944-.23405c-15.750933-4.226159-27.74044-16.326361-32.157874-31.39-1.35315-.325139-2.750072-.660881-4.157377-.999137-21.119886-5.082833-36.002709-23.977047-36.002709-45.695986v-726.703229c0-21.4078188 14.462739-40.112251 35.187721-45.4960571 1.67825-.4357398 3.36071-.8728697 5.075292-1.3206135 4.547129-15.075099 16.690399-27.1142073 32.553163-31.1818298l.877406-.2249048c6.513246-1.6674362 13.558553-3.4478169 21.136603-5.3413336l2.07995-.5192188c19.536156-4.8722253 42.524545-10.47761 68.976459-16.8193127l11.495015-2.6753904c25.964359-5.84698708 46.14426-8.96095758 65.095378-10.10054971 3.541169-.21294195 6.910314-.36486392 10.253856-.4549255l1.113766-.02772825c.55661-.01271741 1.112961-.02371388 1.66973-.03298552l1.114298-.01624236c.185876-.00232338.371849-.00445482.557943-.00639419l1.118232-.01466734 1.139936-.00426532c11.805693-.01960336 24.495735.7198533 44.338527 2.25920057zm-225.305088 874.01077632.066998.221144c.623823 1.87344 2.151794 3.367036 4.138601 3.900119l.855638.229144c23.469489 6.298958 54.027053 14.178862 91.672694 23.63971 60.821064 15.285139 83.128777 14.022285 125.477367 10.578474 27.864281-2.265939 111.042966-9.010354 249.536069-20.233049 3.116144-.251249 5.51716-2.853115 5.517796-5.979371l.001407-.614518c-.36446.028169-.73172.056143-1.101832.083942-2.317981.174096-3.876855.282547-8.336114.585656-20.971542 1.4255-62.062123 4.048228-105.168667 6.714478l-2.813968.173935c-.938818.057991-1.878403.115991-2.818569.173988l-2.822053.173969-2.824423.17388-4.957475.304618-2.988402.183267c-32.863247 2.013866-65.343588 3.954408-89.530213 5.31747-83.034973 4.67952-128.035725 4.339429-157.677335-2.636237-15.389749-3.621724-47.479736-11.288649-96.227519-22.990619zm76.897345-797.7928231c-27.520881 7.3275067-53.983664 14.3155432-79.388349 20.9641091l2.250473-.589126c-2.860189.748944-5.707032 1.493606-8.540528 2.233991-4.906226 1.28197-9.772508 2.551126-14.598776 3.807444-2.932272.763428-5.849551 1.521977-8.752056 2.275807l-1.106297.287281c-3.085974.801655-5.239999 3.587421-5.239999 6.77582v726.707168c0 3.235327 2.21659 6.049359 5.362105 6.806377 1.760287.423098 3.504491.8423 5.232611 1.257606.605282.145463 1.20973.290722 1.812197.435501 1.209695.290702 2.411016.579376 3.604358.866117 1.806763.434137 3.59466.863705 5.364278 1.288845 2.748834.660392 5.454811 1.3104 8.11664 1.949713.820851.197151 1.637948.393392 2.450843.588614 55.073363 13.226265 90.854687 21.77947 107.344188 25.660003 29.230074 6.878818 78.703538 6.265127 151.970486 2.136093 20.599939-1.16093 44.468414-2.573929 68.712691-4.044476l3.732464-.226666 3.736052-.227416 5.183833-.316397c57.876294-3.53791 115.03336-7.210739 132.327734-8.38629l.775369-.052694 1.55612-.106033 1.561987-.107556c.260733-.018097.521645-.036291.782703-.054598l1.567849-.111334c2.136263-.153791 4.277942-.317353 6.407233-.499733.396264-.033941.792399-.068561 1.187989-.103891.111664-.009973.223567-.020028.335423-.030141l.66053-.060459c.350581-.032488.700656-.065577 1.050144-.099306.34605-.033398.6918-.067451 1.036896-.102174.325995-.032802.651275-.066187.975904-.100202.156137-.016361.312072-.032861.46785-.049512l-.46785.049512c.912571-.095622 1.820006-.196225 2.720837-.302557.411634-.048588.82219-.098409 1.231225-.1495.051319-.00641.102598-.012838.153852-.019286l-.153852.019286c.234981-.02935.46946-.059119.70341-.089321l-.549558.070035c.227533-.028624.454589-.057645.681145-.087075l-.131587.01704c.424325-.054778.84691-.110978 1.267597-.168681.387147-.053102.772571-.107461 1.156265-.163155.541461-.078593 1.079908-.159912 1.614556-.244071.150371-.023669.300917-.047639.451154-.07184l-.451154.07184c.24389-.03839.486988-.077371.729263-.116961l-.278109.045121c.16441-.026484.32845-.053243.492107-.080283l-.213998.035162c.217522-.035544.43438-.071578.650549-.108114l-.436551.072952c.244151-.04034.487453-.081304.729871-.12291l-.29332.049958c.203642-.034419.406673-.069283.609073-.104603l-.315753.054645c.1886-.03237.376664-.065128.564178-.098282l-.248425.043637c.460141-.080297.917023-.162949 1.370411-.248076.041673-.007825.082997-.01561.124291-.023416l-.124291.023416c.204801-.038453.408889-.077411.612242-.116885l-.487951.093469c.242235-.045788.483464-.092288.723651-.139518l-.2357.046049c.154913-.030071.309401-.060441.463452-.091116l-.227752.045067c.213249-.041933.425677-.084441.637258-.127538l-.409506.082471c.240902-.047968.480738-.09668.719472-.146155l-.309966.063684c.183012-.037277.36539-.074994.547118-.11316l-.237152.049476c.186612-.038674.37255-.077813.557798-.117428l-.320646.067952c.71117-.149355 1.412389-.305577 2.102678-.46916.30187-.071539.600971-.144318.897911-.218538.333513-.083362.66445-.168584.992542-.255686.058587-.015554.117057-.031161.175436-.046827l-.175436.046827c.12338-.032755.246359-.065776.368928-.099066l-.193492.052239c.390983-.104927.777873-.212556 1.160471-.322987.086539-.024979.172605-.050026.25845-.075217l-.25845.075217c.178684-.051574.356432-.10376.533223-.156566l-.274773.081349c.18886-.055421.376653-.111536.563354-.16836l-.288581.087011c.410992-.122761.816817-.24888 1.217223-.378484.032786-.010613.065095-.021105.097368-.03162l-.097368.03162c.189253-.061258.377296-.123294.564101-.186123l-.466733.154503c.179376-.058443.357656-.117591.534817-.177456l-.068084.022953c.150296-.050549.29979-.101611.44847-.153193l-.380386.13024c.20515-.069322.4088-.139605.610914-.210866l-.230528.080626c.144787-.050231.288801-.100956.432029-.152179l-.201501.071553c.179475-.06328.357739-.127331.534767-.192166l-.333266.120613c.18056-.064574.359871-.129942.537908-.196117l-.204642.075504c.163485-.059875.325916-.12042.487273-.181642l-.282631.106138c.198348-.073724.395116-.14845.590267-.224195l-.307636.118057c.392246-.148828.778148-.301667 1.157425-.458659.44285-.183308.876556-.372227 1.300789-.567032.060077-.027587.119951-.055286.179634-.083104l-.179634.083104c.16975-.077949.337984-.156839.504672-.236687l-.325038.153583c.181789-.08473.361803-.17056.540008-.25751l-.21497.103927c.135226-.064776.269434-.130182.40261-.196226l-.18764.092299c.157685-.076936.313953-.154749.468779-.23345l-.281139.141151c.166716-.082676.331813-.166351.495263-.25104l-.214124.109889c.132716-.067462.264373-.135577.394955-.204353l-.180831.094464c.16079-.083311.319985-.167603.477557-.252891l-.296726.158427c.147694-.077789.294014-.156423.438937-.235913l-.142211.077486c.13812-.074759.274992-.150283.410598-.226583l-.268387.149097c.148789-.081612.296105-.164127.441923-.247557l-.173536.09846c.156827-.088239.311962-.177515.465373-.267843l-.291837.169383c.142721-.081658.284007-.164193.423835-.247617l-.131998.078234c.125894-.074126.250629-.14896.374186-.224511l-.242188.146277c.156871-.093591.311907-.1883.465076-.284145l-.222888.137868c.121614-.074362.242087-.149418.361405-.225177l-.138517.087309c.138564-.086705.275599-.174338.411084-.262913l-.272567.175604c.129402-.082161.257444-.165148.384107-.24897l-.11154.073366c.130673-.08543.259903-.171735.387669-.258926l-.276129.18556c.145452-.096257.289086-.193617.430871-.292093l-.154742.106533c.126107-.08606.250787-.172983.374019-.26078l-.219277.154247c.600407-.417016 1.167658-.854073 1.699457-1.312337.038621-.033282.076822-.066471.114837-.099771l-.114837.099771c.106089-.091419.210766-.183681.314014-.276797l-.199177.177026c.115635-.101293.229553-.203612.34173-.30697l-.142553.129944c.118469-.106843.235056-.214809.349735-.323912l-.207182.193968c.106854-.098455.212129-.197851.315802-.298201l-.10862.104233c.106387-.101214.21113-.203407.314209-.30659l-.205589.202357c.112935-.109315.22397-.21976.333079-.331351l-.12749.128994c.101998-.1021.202365-.20517.301081-.309219l-.173591.180225c.110505-.113018.219033-.227211.325556-.342593l-.151965.162368c.099525-.104903.197372-.210801.293518-.317707l-.141553.155339c.103854-.11249.205803-.22611.305819-.340873l-.164266.185534c.098419-.109433.195056-.219921.289888-.331476l-.125622.145942c.082253-.094379.163199-.189532.242824-.285465l-.117202.139523c.110511-.129999.218571-.261448.324143-.394365l-.206941.254842c.089981-.108409.178274-.217816.264861-.328229l-.05792.073387c.093896-.118216.185824-.237594.275757-.358147l-.217837.28476c.089594-.11425.17736-.229578.263274-.345997l-.045437.061237c.089169-.119528.176377-.240211.2616-.362061l-.216163.300824c.089451-.121211.176895-.243604.262305-.367193l-.046142.066369c.079232-.113285.156747-.22758.232526-.342894l-.186384.276525c.083863-.121349.165765-.243852.245682-.367519l-.059298.090994c.075128-.114324.148548-.229651.220242-.345989l-.160944.254995c.079068-.122353.156193-.245846.23135-.370492l-.070406.115497c.325061-.527483.614617-1.075775.866816-1.64582.032783-.074111.06462-.147842.095833-.221936l-.095833.221936c.061338-.138642.120466-.278571.177358-.419799l-.081525.197863c.045595-.10823.089862-.217234.132787-.327017l-.051262.129154c.054232-.134626.106432-.270434.156576-.407434l-.105314.27828c.055175-.141113.108134-.283515.158851-.427217l-.053537.148937c.050062-.136775.098075-.274738.144017-.413903l-.09048.264966c.054063-.153183.105578-.307844.154515-.463999l-.064035.199033c.046011-.139372.089944-.279949.131776-.421743l-.067741.22271c.041207-.131492.080585-.264044.118115-.397665l-.050374.174955c.043225-.146516.084208-.294331.122922-.443457l-.072548.268502c.04142-.147467.080588-.296237.117481-.446322l-.044933.17782c.037972-.14627.073763-.293802.107346-.442607l-.062413.264787c.03541-.14405.068722-.289312.099916-.435797l-.037503.17101c.029561-.130981.057413-.26295.083539-.395914l-.046036.224904c.03387-.159053.065242-.319549.094087-.481501l-.048051.256597c.030306-.154241.05829-.309822.083927-.466756l-.035876.210159c.025425-.142753.048886-.286638.070365-.431664l-.034489.221505c.028127-.172183.053428-.345995.075868-.521452l-.041379.299947c.021289-.14375.04063-.288622.058003-.434625l-.016624.134678c.020372-.159279.038386-.319914.054018-.481917l-.037394.347239c.019464-.163565.036457-.32855.050954-.494968l-.01356.147729c.033443-.346585.055981-.699435.067368-1.058674.000553-.017429.00109-.035226.001599-.053038l-.001599.053038c.005782-.182391.008689-.36643.008689-.552132v-734.86463c0-13.045988-2.304736-17.7534399-22.763601-20.0397532l-.579073-.0628847c-.124341-.0131645-.253619-.0266627-.387782-.0404909l.011593.0011953c-.159974-.0165007-.326926-.0334727-.500764-.0509099-.048276-.0048424-.097237-.0097361-.146731-.0146657-.174565-.0173922-.362841-.0359208-.558169-.0549252l.558169.0549252c-.262388-.026134-.539745-.0532786-.831783-.0814136-1.967233-.1895525-4.608859-.4247255-7.832065-.6988528-.703412-.0598193-1.424187-.1206288-2.171009-.1831797-.841689-.0705001-1.724691-.1438908-2.640101-.2194433-.175285-.0144664-.343972-.0283712-.513738-.0423479l.009393.0007734c-.096966-.0079835-.194283-.0159904-.291951-.0240207l.282558.0232473c-.545318-.0448956-1.101758-.0905327-1.669055-.1368928l.009485.0007751-.009485-.0007751c-.983267-.0803535-1.999153-.162879-3.046287-.2474795l-1.953237-.1573072c-1.992052-.1599442-4.086651-.3266865-6.275301-.4996272-.335883-.0265404-.670884-.0529824-1.008029-.0795657-.819026-.0645796-1.657567-.1305305-2.508536-.1972976-.960907-.0753917-1.929721-.1512044-2.913508-.2279974-64.271816-5.0170265-192.490326-14.2206367-212.577935-15.4630975-25.616836-1.5844551-113.144548-10.9613386-174.317526 5.3261272zm285.846623 571.1724881c20.732898 0 36.665796 19.402916 36.665796 42.473326s-15.932898 42.473326-36.665796 42.473326c-20.732897 0-36.665795-19.402916-36.665795-42.473326s15.932898-42.473326 36.665795-42.473326zm0 20c-8.721327 0-16.665795 9.674691-16.665795 22.473326s7.944468 22.473326 16.665795 22.473326 16.665796-9.674691 16.665796-22.473326-7.944469-22.473326-16.665796-22.473326zm-266.010037-617.4187482c-37.605817 9.0157909-68.138546 16.5266016-91.598188 22.5324322l-.865608.2218824c-1.681976.4313022-3.043417 1.5499951-3.814983 3.0090253 22.916512-6.0087313 46.682216-12.2901754 71.296411-18.8437694 18.52074-4.9311954 39.787459-7.9021023 63.50015-9.2567749 28.396047-1.622226 57.309034-.918087 90.469268 1.351474 2.565247.1755712 7.331068.5261732 12.158648.88305l.965706.0714091c6.113325.4521538 12.096966.8963249 13.604219.9895516 16.182153 1.0009002 63.084881 4.337217 111.945056 7.9215431l3.05605.2243244c1.019359.0748699 2.039308.1498286 3.059586.2248571l6.655988.4901135c26.532518 1.9563236 52.905515 3.9321572 74.547768 5.5957563l2.795698.2151933c8.467564.6526841 16.150369 1.2533653 22.758056 1.7809717l-.002594-2.2218718c-.000954-3.1334595-2.412964-5.7385334-5.537083-5.980288-138.481531-10.7054118-221.653792-17.1388654-249.516781-19.3003967-42.34859-3.285283-64.656303-4.490004-125.477367 10.0915168z"/></svg>