<svg height="960" viewBox="0 0 960 960" width="960" xmlns="http://www.w3.org/2000/svg"><path d="m427 0v110c0 64.109067-35.981193 120.986427-90.236428 149.573467l-.823572.426533.823572.426533c53.593586 28.238417 89.35612 84.081355 90.220407 147.231278l.016021 2.342189v140c0 64.109067-35.981193 120.986427-90.236428 149.573467l-.823572.426533.823572.426533c53.593586 28.238417 89.35612 84.081355 90.220407 147.231278l.016021 2.342189v110h-40v-110c0-53.12952-32.118693-98.757318-77.998402-118.525716l-.001598 56.525716c0 .549448-.009428 1.096694-.028132 1.641585 17.142092 14.490369 28.028132 36.153106 28.028132 60.358415v110h-40v-110c0-1.434285-.078048-2.854132-.230672-4.25489l-.050328-.43411-.309224.189697c-9.761783 5.854257-21.137792 9.293106-33.301808 9.490327l-1.107968.008976c-15.911324 0-30.527209-5.546431-42.019729-14.811323l-.436271-.357677-.010019.039604c-.871557 3.243207-1.333981 6.64137-1.333981 10.129396v110h-40v-110c0-28.112028 14.683617-52.794514 36.799619-66.796225l-.000384-55.142949c-50.520324 17.481332-86.799235 65.473556-86.799235 121.939174v110h-40v-110c0-64.357598 36.206697-121.130476 90.315642-149.618165l.737358-.382835-.736457-.380361c-53.415713-28.1223-89.3852128-83.809587-90.298728-147.147116l-.017815-2.471523v-140c0-64.357598 36.206697-121.130476 90.315642-149.618165l.737358-.382835-.736457-.380361c-53.415713-28.1223-89.3852128-83.809587-90.298728-147.147116l-.017815-2.471523v-110h40v110c0 56.465555 36.278831 104.457735 86.799066 121.939115l.000553-55.14289c-22.116002-14.001711-36.799619-38.684197-36.799619-66.796225v-110h40v110c0 .348803.004624.696707.013819 1.043647l.007181.237353.176118-.152904c11.458439-9.830303 26.276226-15.8561586 42.494914-16.1191199l1.107968-.0089761c12.581047 0 24.352182 3.4676442 34.409776 9.499205l.590224.360795v-104.86h40v110c0 24.191245-10.873395 45.842874-27.99946 60.334161l.001058 58.191555c45.879709-19.768398 77.998402-65.396196 77.998402-118.525716v-110zm336 0v34.8l1.635318.7130716c59.048979 26.2292143 99.406439 84.9530554 100.347854 152.0857964l.016828 2.401132v140c0 64.123371-35.975298 120.879698-90.023269 149.462826l-1.033731.537174 1.033731.537174c53.372371 28.225839 89.121063 83.924949 90.006441 147.061694l.016828 2.401132v140c0 68.131081-40.612739 127.945462-100.364682 154.486928l-1.635318.712072v34.801h-40v-127c0-14.911688-12.088312-27-27-27s-27 12.088312-27 27v127h-40.001v-34.457l-1.613061-.693398c-59.471377-26.038121-100.218425-84.976393-101.168948-152.436722l-.016991-2.41288v-140c0-64.437886 36.324159-121.409249 90.76952-149.855375l.28048-.144625-.28048-.144625c-53.764794-28.090549-89.858585-83.997662-90.752529-147.442495l-.016991-2.41288v-140c0-68.465254 41.00657-128.5015032 101.185939-154.8496016l1.613061-.6943984v-34.456h40.001v130c0 14.911688 12.088312 27 27 27s27-12.088312 27-27v-130zm-114.000021 509.519709c-48.424847 18.580826-82.799979 65.516187-82.799979 120.480291v140c0 54.964104 34.375132 101.899465 82.799979 120.480291v-56.390684c-19.869191-14.348131-32.799979-37.708795-32.799979-64.089607v-140c0-26.380812 12.930788-49.741476 32.799979-64.089607zm94.000822.310359v56.666253c19.415136 14.393401 31.999199 37.478957 31.999199 63.503679v140c0 26.024722-12.584063 49.110278-31.999199 63.503679v56.666253c48.002607-18.788997 81.999199-65.5093 81.999199-120.169932v-140c0-54.660632-33.996592-101.380935-81.999199-120.169932zm-481.000801 68.169932c-14.911688 0-27 12.088312-27 27v183c0 14.911688 12.088312 27 27 27s27-12.088312 27-27v-183c0-14.762571-11.847754-26.757951-26.553506-26.996383zm394.43067 49.072808-.11467-.085808-.002929.031913c-.074971.98543-.113071 1.979647-.113071 2.981087v140c0 2.837414.305858 5.61684.889631 8.302716l.028369.128284.149097-.107194c10.655725-7.562267 23.617886-12.087727 37.624935-12.31483l1.107968-.008976c14.06117 0 27.11065 4.331556 37.886893 11.732805l.299107.209195.038552-.1827c.477613-2.35964.741248-4.788823.772336-7.263718l.003112-.495582v-140c0-.661569-.016625-1.320001-.049522-1.974843l-.028478-.486157-.189097.137194c-10.655725 7.562267-23.617886 12.087727-37.624935 12.31483l-1.107968.008976c-14.801231 0-28.481478-4.799507-39.56933-12.927192zm-441.431051-339.011982c-50.520708 17.481332-86.799619 65.473556-86.799619 121.939174v140c0 56.465555 36.278831 104.457735 86.799619 121.939115v-55.14289c-22.116002-14.001711-36.799619-38.684197-36.799619-66.796225v-140c0-28.112028 14.683617-52.794514 36.799619-66.796225zm94.001979 3.413458-.001598 53.525716c0 1.513783-.071566 3.01085-.211498 4.488004 17.24816 14.490435 28.211498 36.220903 28.211498 60.511996v140c0 24.191245-10.873395 45.842874-27.99946 60.334161l.001058 58.191555c45.879709-19.768398 77.998402-65.396196 77.998402-118.525716v-140c0-53.12952-32.118693-98.757318-77.998402-118.525716zm386.998402 71.525716c-14.911688 0-27 12.088312-27 27v183c0 14.911688 12.088312 27 27 27s27-12.088312 27-27v-183c0-14.911688-12.088312-27-27-27zm-475.212881 34.829019-.509119-.404019-.014471.04327c-1.340991 3.952076-2.063529 8.171698-2.063529 12.53173v140c0 1.220809.056647 2.43061.167656 3.626612l.047344.485388.768558-.648233c11.346259-9.4369 25.858392-15.197806 41.708474-15.454791l1.107968-.008976c12.581047 0 24.352182 3.467644 34.409776 9.499189l.590224.360811v-137.86c0-2.390474-.216801-4.740845-.634323-7.029576l-.075677-.400424-.772083.456225c-9.560103 5.534167-20.61454 8.773554-32.409949 8.964799l-1.107968.008976c-15.541293 0-29.8467-5.291457-41.212881-14.170981zm428.21286-328.3093102c-48.424847 18.5808259-82.799979 65.5161872-82.799979 120.4802912v140c0 54.964104 34.375132 101.899465 82.799979 120.480291v-56.390684c-19.869191-14.348131-32.799979-37.708795-32.799979-64.089607v-140c0-26.380812 12.930788-49.741476 32.799979-64.089607zm94.000822.3103588v56.6662534c19.415136 14.393401 31.999199 37.478957 31.999199 63.503679v140c0 26.024722-12.584063 49.110278-31.999199 63.503679v56.666253c48.002607-18.788997 81.999199-65.5093 81.999199-120.169932v-140c0-54.660632-33.996592-101.3809352-81.999199-120.1699324zm-481.000801 65.1699324c-14.911688 0-27 12.088312-27 27v183c0 14.911688 12.088312 27 27 27s27-12.088312 27-27v-183c0-14.762571-11.847754-26.757951-26.553506-26.996383zm394.629 49.215-.052395.359549c-.248547 1.777782-.376605 3.589477-.376605 5.425451v140c0 1.835974.128058 3.647669.376605 5.425451l.052395.358549.638097-.460194c10.655725-7.562267 23.617886-12.087727 37.624935-12.31483l1.107968-.008976c14.06117 0 27.11065 4.331556 37.886893 11.73287l.758107.52913.04879-.366123c.182075-1.446877.284445-2.915358.303098-4.400295l.003112-.495582v-140c0-1.653923-.103904-3.288236-.30621-4.895877l-.04879-.367123-.758107.529883c-10.492657 7.206784-23.140483 11.503014-36.778925 11.724141l-1.107968.008976c-14.431201 0-27.796765-4.562532-38.732903-12.323894z"/></svg>