<?xml version="1.0" encoding="UTF-8"?>
<svg width="960px" height="960px" viewBox="0 0 960 960" version="1.1" xmlns="http://www.w3.org/2000/svg" xmlns:xlink="http://www.w3.org/1999/xlink">
    <title>com.govee.developer/drivers/matter_pair/assets/pair</title>
    <style type="text/css">
        #pair {
            animation: pair 4s infinite;
        }
        
        @keyframes pair {
            0%, 20%, 60%, 100% {
                fill: rgba(255,255,255,0);
            }
            40% {
                fill: #0074CC;
            }
        }
    </style>
    <g id="com.govee.developer/drivers/matter_pair" stroke="none" stroke-width="1" fill="none" fill-rule="evenodd">
        <circle id="pair" fill="#0074CC" cx="479.5" cy="238.5" r="91.5"></circle>
        <path d="M481,10 C617.966618,10 729,121.033382 729,258 L729,703 C729,839.966618 617.966618,951 481,951 C344.033382,951 233,839.966618 233,703 L233,258 C233,121.033382 344.033382,10 481,10 Z M481,30 C355.079077,30 253,132.079077 253,258 L253,703 C253,828.920923 355.079077,931 481,931 C606.920923,931 709,828.920923 709,703 L709,258 C709,132.079077 606.920923,30 481,30 Z M479.5,624.22 C533.778545,624.22 577.78,668.221455 577.78,722.5 C577.78,776.778545 533.778545,820.78 479.5,820.78 C425.221455,820.78 381.22,776.778545 381.22,722.5 C381.22,668.221455 425.221455,624.22 479.5,624.22 Z M479.5,637.78 C432.710436,637.78 394.78,675.710436 394.78,722.5 C394.78,769.289564 432.710436,807.22 479.5,807.22 C526.289564,807.22 564.22,769.289564 564.22,722.5 C564.22,675.710436 526.289564,637.78 479.5,637.78 Z M479.5,383 C532.795478,383 576,426.204522 576,479.5 C576,532.795478 532.795478,576 479.5,576 C426.204522,576 383,532.795478 383,479.5 C383,426.204522 426.204522,383 479.5,383 Z M479.5,393 C431.727369,393 393,431.727369 393,479.5 C393,527.272631 431.727369,566 479.5,566 C527.272631,566 566,527.272631 566,479.5 C566,431.727369 527.272631,393 479.5,393 Z M479.5,142 C532.795478,142 576,185.204522 576,238.5 C576,291.795478 532.795478,335 479.5,335 C426.204522,335 383,291.795478 383,238.5 C383,185.204522 426.204522,142 479.5,142 Z M479.5,152 C431.727369,152 393,190.727369 393,238.5 C393,286.272631 431.727369,325 479.5,325 C527.272631,325 566,286.272631 566,238.5 C566,190.727369 527.272631,152 479.5,152 Z" id="Combined-Shape" fill="#000000" fill-rule="nonzero"></path>
    </g>
</svg>