<svg height="960" viewBox="0 0 960 960" width="960" xmlns="http://www.w3.org/2000/svg"><path d="m493.051415 264.726255 25.084733 5.093971c57.577001 13.228245 108.204838 35.562053 146.195245 60.898286 30.421198 20.288241 52.249158 32.121731 62.435487 34.960017 43.970827 7.683065 80.516067 16.620453 109.877278 26.963507 32.094965 11.30607 62.611582 29.06315 91.48024 53.051486 3.370956 2.801087 6.248551 6.128633 8.513722 9.851484 9.127652 8.535294 14.810804 20.372113 14.810804 34.469557 0 .053875.000074.109608.000226.167355l.000689.179442c.009275 1.857986.090765 5.669775.32405 15.655607.007209.308641.007209.308641.014464.619537l.028743 1.234525c.116768 5.028091.196681 8.690044.244866 11.451407.149686.330051 1.025849 2.246983 1.304776 2.865033.673043 1.491338 1.216941 2.743351 1.749672 4.061877 2.551733 6.315615 4.006933 11.450803 4.006933 18.998795 0 .56038 0 1.100531-.020191 1.633004l-.013855.454819c-.010534.302349-.023706.603362-.03978.905381l-.026321.454075c-.130665 2.083254-.404205 4.26899-.906004 7.313751l-.107105.642456c-.460076 2.73004-1.094162 6.137251-1.956959 10.706316l-.185182.978543c-.035537.187374-.035537.187374-.071057.374486-.081911.431197-.081911.431197-.16362.860574-.052762.277157-.136925.718246-.236313 1.238775 1.007093 3.555928 1.541286 7.334635 1.541286 11.282802 0 9.024608-2.734584 16.950814-7.125052 23.758286-2.711746 4.204595-5.884694 7.728571-9.565802 11.026874-10.768285 9.648471-29.791853 16.89386-57.177342 23.907657-27.760821 7.109926-61.954987 13.00591-100.243631 16.815954-36.769018 3.658829-67.877281 5.524111-93.527139 5.549633-14.569568 18.259019-34.384616 31.105822-57.486981 35.952396-2.557821.536569-5.130142.968708-7.713491 1.2881-1.59116.330816-3.216205.531395-4.857923.631506l-35.986076 2.194424c-2.040591.124435-4.071031.091692-6.072912-.108466-34.925576-.790771-67.097996-20.152836-88.346634-50.371088-9.434076-1.373363-18.802761-2.556068-28.122615-3.597134-23.074686-2.577537-59.639458-5.885827-109.51183-9.901455-.290941-.023426-.581616-.050036-.871973-.079825l-144.056378-14.77923c-11.10087 12.996769-25.581601 22.342265-42.565565 26.275576-3.742865.866809-7.529119 1.445703-11.336721 1.71968-.51468.071828-1.038159.116163-1.576922.10464-.301302.03216-.603688.047053-.906168.06013l-.000985-.022777-1.580369.065074c-.112356.012016-.224922.014275-.337461.013895-.091665.013541-.186781.012742-.281975.011611l-.319302-.003794c-1.234231.015121-2.467989-.002839-3.700407-.053496l-31.155859-.45845c-2.921237-.042985-5.76785-.399005-8.496205-1.064172-18.5591421-3.201238-35.1004308-13.624499-47.9510691-28.796121-7.8587229-9.278106-14.2422053-20.228191-18.8996056-32.275054-1.9861078-.903904-3.9275057-1.885334-5.9357914-3.030625-7.3285104-4.179322-13.7400155-9.460559-18.950803-17.067419-4.8269062-7.046459-7.32584373-14.453982-8.40196218-22.101272-.7078687-5.030373-.72372127-8.886618-.45214233-13.757905.00153978-.027619.01304538-.229398.02458698-.432646v-10.839441c-1.61439582-25.571275-2.40661875-40.139392-2.44773737-45.722948v-.546798c0-5.532715.88756875-10.696531 2.50061246-15.656393.52007439-1.599149 1.06715601-3.041065 1.68521036-4.524237.19566782-.469553.38666056-.91503.60121073-1.40661.11541033-.264429.236896-.540489.4142495-.942956.34071573-.774546.42585511-.982792.48156995-1.142859.09421524-.270678.20797826-.701998.36284065-1.547288.29857447-1.629717.5497597-3.854715.70755896-6.793938.31266832-5.823869.56095521-11.079107.81153641-16.95745-.00072629.017038.11264262-2.71698.23623971-5.657351l.02256178-.53632c.00377138-.089577.00754636-.179202.01132207-.268803l.02546407-.603657c.09316699-2.206217.18279242-4.300784.22505739-5.210155.25275284-5.438218.49798795-9.041193.91332508-12.523694.92339018-7.742403 2.38468038-13.572738 6.92959948-20.852278 5.019958-8.040404 11.2258909-13.018464 18.3702934-16.429896 6.1117512-11.917658 17.152233-21.09498 31.905579-24.054769.8062624-.161751 1.4507223-.328312 1.9198551-.479801.3957809-.243325.9146936-.583503 1.5391317-1.01507 1.7277583-1.194102 3.9222314-2.850956 6.5231573-4.944892 1.2398077-.998136 2.5380863-1.921382 3.8879103-2.764812 66.4837476-41.541994 137.4511926-65.793495 212.4550906-72.493636 65.000989-5.806575 141.974261-5.092008 199.522039 5.074677zm62.035132 228.740436c-37.613226 7.890556-59.979115 52.016209-49.955611 98.557406 1.993508 9.256266 5.118027 17.91096 9.140719 25.775168.047461.092412.095112.185213.142889.277904l-.142889-.277904c.177845.347679.357445.693814.538781 1.038387l-.395892-.760483c.193843.376072.389743.750324.587675 1.122733l-.191783-.36225c.248155.471542.499559.94016.754162 1.405812l-.562379-1.043562c.204147.384103.410456.766246.618898 1.146407l-.056519-.102845c.17797.325495.357503.64954.53858.972123l-.482061-.869278c.229044.417734.460663.833076.694821 1.245992l-.21276-.376714c.167168.297802.335653.594357.50544.889654l-.29268-.51294c.19697.347339.395736.692962.596276 1.036852l-.303596-.523912c.290853.505853.585529 1.008014.88396 1.506425l-.580364-.982513c.250627.429781.504025.856855.760151 1.281186l-.179787-.298673c.197794.330338.397238.659029.59831.986056l-.418523-.687383c.208315.345122.418434.688431.630335 1.029906l-.211812-.342523c.459711.747681.927935 1.486666 1.404432 2.216759.090946.138961.182013.277711.273379.416137l-.273379-.416137c.186319.285479.373902.569599.562736.852347l-.289357-.43621c.224212.339701.450222.67745.678005 1.013228l-.388648-.577018c.317613.475576.638763.947272.963382 1.415032l-.574734-.838014c.249622.367972.501373.733576.75522 1.096786l-.180486-.258772c.20366.293465.408685.585381.615058.875734l-.434572-.616962c.23717.339348.47617.676606.716974 1.011753l-.282402-.394791c.253086.356075.5082.7098.765309 1.061149l-.482907-.666358c.22457.312555.45071.623273.678396.932138l-.195489-.26578c.276006.377171.554311.751604.834878 1.123267l-.639389-.857487c.282406.383095.567192.763338.854316 1.140695l-.214927-.283208c.237242.314271.476101.626563.716553.936854l-.501626-.653646c.251445.330466.504684.658719.759688.984736l-.258062-.33109c.274696.354482.55147.706353.83029 1.055588l-.572228-.724498c.264777.338512.531458.674614.800012 1.008281.169332.210764.339606.420426.510618.629111l-.510618-.629111c.282018.350396.566102.698108.852216 1.043105l-.341598-.413994c.210057.256331.421228.511189.6335.764561l-.291902-.350567c.224766.271026.450785.540376.67804.808036l-.386138-.457469c.355277.424069.713636.843977 1.075008 1.259671l-.68887-.802202c.310642.365876.623593.728596.938807 1.088123l-.249937-.285921c.251802.289653.505068.577259.759773.8628l-.509836-.576879c.254857.290686.511194.579284.768987.865777l-.259151-.288898c.26434.296342.530231.59046.797648.882333l-.538497-.593435c.27874.309773.559184.617084.841301.921909.197621.213888.396298.426446.595786.637772l-.595786-.637772c.30834.33316.618679.66335.930978.99054l-.335192-.352768c.267337.2832.536133.56419.806364.842949l-.471172-.490181c.240068.251515.481295.501257.723661.749212.345849.353821.69402.704003 1.044461 1.050504.153554.152169.307243.302994.461362.453111l-.461362-.453111c.267337.26433.535995.526517.805953.786544l-.344591-.333433c.261875.255075.524991.508107.789329.75908l-.444738-.425647c.305396.294162.612454.585558.921143.874163.193277.181039.387436.36087.582228.539598l-.582228-.539598c.311137.290895.62393.578953.938345.864147l-.356117-.324549c.254043.233093.509162.464308.765338.693631l-.409221-.369082c.266175.241438.533512.480823.801992.71814l-.392771-.349058c.304868.272911.611233.543141.919067.810668l-.526296-.46161c.327246.289262.65619.575451.986793.858536.199877.17147.400585.341672.601892.51073l-.601892-.51073c.271632.23259.544384.463084.818237.691467l-.216345-.180737c.281516.236418.564206.4706.848047.702527l-.631702-.52179c.311178.259511.623776.516296.937765.770329l-.306063-.248539c.354935.290018.71167.576512 1.07016.859444l-.764097-.610905c.311677.252163.624724.501616.939112.748334l-.175015-.137429c.306614.241989.614511.481373.923666.71813l-.748651-.580701c.315664.24772.63268.492683.951018.734866l-.202367-.154165c.257472.197177.515815.392532.775015.586052l-.572648-.431887c.36863.280443.739032.557158 1.111161.830106.207114.152208.415116.303209.623646.453033l-.623646-.453033c.285198.209187.57141.416161.858615.620907l-.234969-.167874c.287883.206837.576774.411431.866651.613764l-.631682-.44589c.309199.220424.619548.438264.931023.6535l-.299341-.20761c.376281.262643.754225.521477 1.133784.776465l-.834443-.568855c.321119.221901.643435.441033.966918.657374l-.132475-.088519c.290178.194941.581301.387634.873347.578062l-.740872-.489543c.34438.230317.690083.45747 1.037075.681431l-.296203-.191888c.261926.170789.524595.339755.787992.506888l-.491789-.315c.305757.197346.612514.392214.920248.584585l.83641.515243c.091199.055355.182482.110491.273846.165409l-.274475-.165531c.323629.196434.648303.390117.973996.58103l-.699521-.415499c.304383.182958.60968.363487.91587.541569l-.216349-.12607c.272338.159637.545388.317336.819135.473085l-.602786-.347015c.397127.230972.795756.457828 1.195838.680529.202948.113211.406015.224969.609448.335656l-.609448-.335656c.303454.168914.607743.335437.912847.499552l-.303399-.163896c.337081.183403.675169.363864 1.014235.541359l-.710836-.377463c.303408.163203.607621.324025.91262.482449l-.201784-.104986c.366902.192067.734949.380662 1.104106.565754l-.902322-.460768c.39984.207688.801029.411254 1.203521.610662l-.301199-.149894c.315772.158327.632356.314091.949729.467274l-.64853-.31738c.311838.154495.624458.306493.937837.455977l-.289307-.138597c.711958.343634 1.427884.67428 2.147523.991731.084649.037132.16931.074274.254023.111233l-.254023-.111233c.353507.155941.70791.308698 1.063179.458246l-.809156-.347013c.325681.142091.652115.281481.979277.41815l-.170121-.071137c.366874.154433.734671.305445 1.103357.453007l-.933236-.38187c.388188.162162.777401.320495 1.1676.474965l-.234364-.093095c.337326.135011.675396.267134 1.014185.39635l-.779821-.303255c.340906.134957.682564.266965 1.024949.396005l-.245128-.09275c.354123.135064.709031.26695 1.064696.395636l-.819568-.302886c.322774.121648.646193.240657.970235.35701l-.150667-.054124c.358779.129812.718328.256367 1.078616.379641l-.927949-.325517c.427331.15344.855746.302259 1.285194.446417l-.357245-.1209c.305675.104587.611882.206812.918603.30666l-.561358-.18576c.324115.1088.648818.214944.974088.318415l-.41273-.132655c.74541.242656 1.493855.471272 2.245072.685635.135857.03861.271564.076845.407361.114614l-.407361-.114614c.409543.116865.81991.229493 1.231058.337851l-.823697-.223237c.297725.082806.595877.163373.894439.241687l-.070742-.01845c.358233.094411.717058.185581 1.076447.273484l-1.005705-.255034c.428898.112503.858642.220357 1.289185.323524l-.28348-.06849c.330833.080919.662145.159072.993912.234439l-.710432-.165949c.336414.080612.673316.158363 1.010682.233232l-.30025-.067283c.384177.087272.768965.170811 1.154331.250587l-.854081-.183304c.332515.073793.665481.144788.998876.212967l1.020897.199704c.058953.01101.117919.021931.176897.032763l-.17702-.032662c.326005.060878.652397.119059.979155.174528l-.802135-.141866c.360249.066168.720965.129042 1.082121.1886l-.279986-.046734c.414206.070313.829.136266 1.24434.197826l-.964354-.151092c.399671.06591.799881.127758 1.200591.185515l-.236237-.034423c.331887.049191.664123.095576.996687.139139l-.76045-.104716c.365002.052611.73042.101826 1.096224.147624l-.335774-.042908c.361648.047373.723684.091407 1.086079.132081l-.750305-.089173c.334246.041847.668815.08084 1.003685.116962l-.25338-.027789c.395767.04442.791963.084832 1.188552.121208l-.935172-.093419c.428675.046241.857844.087777 1.287462.124571l-.35229-.031152c.361452.033152.723231.062952 1.08531.089376l-.73302-.058224c.325346.027864.650949.053009.97679.075419l-.24377-.017195c.417447.030465.835293.056445 1.253495.077904l-1.009725-.060709c.384238.026425.768806.049048 1.153672.06784l-.143947-.007131c.339101.0174.678437.031829 1.017986.043268l-.874039-.036137c.385171.018808.770641.033779 1.156377.044889l-.282338-.008752c.339672.011443.679556.019895 1.019632.025336l-.737294-.016584c.357148.010286.714524.017261 1.072103.020905l-.334809-.004321c4.198982.067189 8.427017-.324473 12.642443-1.208791 37.613226-7.890555 59.979115-52.016209 49.95561-98.557405-10.023504-46.541197-48.640704-77.873732-86.253931-69.983177zm97.559113 141.654908-.629247 1.265364c-3.021464 5.961876-6.590266 11.524248-10.662297 16.584428 6.926507-4.169057 13.000098-9.771662 18.044577-16.463774l.569221.098894c-2.638045-.448535-5.07751-.942388-7.322254-1.484912zm-21.628478-70.020902c7.653259 39.365598-11.697429 76.865996-44.330155 83.208027l-6.105253.797651c-30.430862 2.057825-58.996729-24.437642-66.171599-61.342586-7.653259-39.365598 11.697429-76.865996 44.330154-83.208027 32.632263-6.341941 64.623658 21.179662 72.276853 60.544935zm-69.415208-45.820432c-23.635534 4.593466-38.668321 33.726047-32.467487 65.620899 6.200897 31.895176 31.054899 53.276612 54.690896 48.683056l4.327766-1.143525c21.103922-7.102302 33.953003-34.575949 28.139721-64.477373-6.200897-31.895176-31.054899-53.276612-54.690896-48.683057zm-264.513548-219.787337c-68.664677 6.133854-133.604004 28.325385-194.81798 66.574591-6.6270422 5.335256-11.8201116 8.92433-15.5792083 10.767223-2.9768857 1.459415-6.8485297 2.776552-11.6190529 3.733605-4.1940894.84141-4.7391805 4.448043-5.2439701 6.062237-.0676451.216312-.1365799.429916-.2068044.640811l-1.951591.077138c24.4022017-1.011648 47.6172417-.491501 69.6453347 1.563874 21.918468 2.045145 53.060367 6.582289 93.486268 13.613023 4.080879.709733 6.813732 4.59329 6.104 8.674168-.709732 4.080879-4.59329 6.813732-8.674168 6.104-40.06934-6.968723-70.859414-11.454608-92.309651-13.456065-18.682793-1.743234-38.2875549-2.347464-58.8141411-1.810387-6.2965943 6.104725-11.3614775 10.971337-15.1955813 14.600855-5.3266511 5.042423-9.733424 9.030183-13.2203187 11.96328.3165697-10.889383.683453-18.148079 1.1006499-21.776086-.0251785.192393-.0502683.391732-.0749316.598528-.7646055 6.411032-.8338439 17.04222-2.02155 39.164846s-6.6957302 23.535912-6.6957302 29.869874v.266296c.0329629 4.560813.848549 19.475936 2.4477374 44.745367v12.859281c0 2.257399-1.0056775 8.785856 1.8294823 12.924705 2.2754425 3.321758 6.4880982 5.466555 9.5326636 6.777556-.3135207-3.387539-.4727444-6.822601-.4727444-10.290002 0-22.368121 6.6261073-43.390405 18.3781647-59.048043 11.5540044-15.393765 27.1365504-24.451957 44.1218354-24.451957 16.452048 0 31.588051 8.498374 43.021825 23.020958 15.983987 8.684284 28.901288 27.533852 33.429888 50.883984 3.386151 17.459494 1.553723 34.498266-4.191273 48.228571l.945421.130841 164.368148 16.862846c50.250681 4.046089 87.164695 7.385977 110.742042 10.019663 8.323252.929742 16.684019 1.968009 25.082152 3.115068-1.886213-5.230195-3.449131-10.664426-4.656106-16.268661-12.181967-56.563382 15.895161-111.956737 65.401065-122.342155 49.408867-10.365061 97.745022 28.853065 109.911878 85.346288 4.646987 21.576916 3.435668 42.983577-2.588708 61.786589 1.303184.276069 2.697038.54117 4.178744.793098 1.490949.253499 3.243882.523304 5.257164.809081l-.064561-.003407c26.987628 1.473497 64.051234-.135148 111.19082-4.825936 79.441843-7.905136 127.075658-23.889464 134.688929-30.711016 7.61327-6.821552 0-7.251766 0-9.477815 0-.46478.242764-1.97221.626917-4.102972l.125894-.693103c.586606-3.207804 1.437185-7.585225 2.260828-11.928958l.182471-.96423c1.242233-6.578435 2.372666-12.873657 2.372666-14.672239 0-3.991974-7.002668-14.278181-7.002668-20.62404 0-2.900963-.140382-9.261316-.292797-15.824398l-.028688-1.232158-.011261-.482408-.022521-.963662-.010982-.469771-.021867-.936008c-.148832-6.376322-.283635-12.29819-.283635-14.701133 0-3.576069-2.156479-6.231438-6.469435-7.966108l-2.419121-5.590012c-25.329253-21.047276-51.73141-36.410224-79.206472-46.088845s-62.624873-18.227186-105.449432-25.645695c-13.578129-3.384448-34.391907-14.055002-62.441331-32.011661 5.781685 4.397204 9.943456 7.491356 12.484511 9.282487 7.922627 5.584474 19.193347 11.781057 33.812161 18.589749l-154.527939 1.918431c-15.000922 0-25.689357-2.147512-32.065304-6.442534-15.656799-10.546874-35.432894-24.077619-54.396258-41.32743-24.196429-22.010008-45.122594-35.872029-62.778495-41.586062 29.894638-3.34296 63.549708-4.1787 100.96521-2.50722 8.422109.376245 16.602891.948192 24.542344 1.715843-11.840471-3.135247-24.323076-5.927786-37.406791-8.239221-62.111454-10.972927-141.761478-8.843571-189.004146-4.623357zm-226.4823211 259.858468.0368945.218489c2.1913393 13.047171 7.0671504 24.886613 14.0690562 34.215474 6.2777452 8.364038 13.7733508 14.110738 21.8123444 16.771492 2.160131.699644 4.354997 1.168138 6.568686 1.390697l.003476.075147c.280875.032958.562168.062222.843851.087775l.611587.00753-.003472-.090131c-19.9796937-2.277716-37.8738019-23.676299-43.9424231-52.676473zm95.8823561 35.028903c-1.690858 2.944352-3.53646 5.754016-5.529487 8.409389-2.410905 3.212125-4.997215 6.148394-7.735075 8.784073 1.430922-.154514 2.856091-.397146 4.272549-.727118.262635-.061183.524207-.125193.784706-.192006 7.68567-2.638687 14.314874-7.792311 19.539852-14.7011zm-56.970461-115.858467-.13221.002016c-2.308108.037696-4.606396.347264-6.880356.931625-1.484136.381393-2.9308903.87301-4.3375733 1.468427-4.8694836 3.090916-9.4149395 7.39026-13.4558051 12.774032-8.9329104 11.901599-14.4053433 27.889475-15.2578333 45.258266.016193 5.554088.508385 11.262764 1.520624 17.02025 5.3503601 30.432162 23.7366934 53.066968 44.1055327 55.127245l.430005.043494.005116.115138 8.673699.128638c9.15551-2.133681 17.73058-8.222736 24.773023-17.605604 9.747751-12.987237 15.374917-30.840234 15.374917-50.043713 0-19.20348-5.627166-37.056477-15.374917-50.043714-5.032909-6.705503-10.848577-11.728756-17.099459-14.828293l-20.756444-.323634c-.525568-.022083-1.05097-.030155-1.588319-.024173zm805.409296 78.972502c0 2.406834-1.043244 9.091655-3.129732 20.054465-14.835984 6.748396-30.331637 11.923917-46.486959 15.526564-16.155321 3.602648-43.092261 7.889622-80.810819 12.860923 11.06655-13.635478 17.930575-21.876743 20.592076-24.723796 3.992251-4.270579 10.081666-10.032442 26.60515-12.192063 5.248636-.685997 11.52541-1.55091 17.968576-2.473986l1.434204-.206036 2.156979-.312001c.239824-.034832.479657-.069714.719455-.104639l1.438028-.210014c11.974287-1.753597 23.643565-3.583964 29.53518-4.724249 2.303621-.445851 5.133406-1.062488 8.125457-1.703836l.783976-.167773.789903-.168318c.132065-.028067.264316-.056132.396725-.084183l.796101-.168055c9.304263-1.956533 19.0857-3.730178 19.0857-1.203003zm-798.090157-71.252688c11.278199 0 21.291539 6.845175 28.502999 18.144122 7.056943 11.056849 10.997001 25.757161 10.997001 41.355878 0 15.598716-3.940058 30.299028-10.997001 41.355877-7.21146 11.298947-17.2248 18.144123-28.502999 18.144123s-21.2915397-6.845176-28.5029993-18.144123c-7.0569426-11.056849-10.9970008-25.757161-10.9970008-41.355877 0-15.598717 3.9400582-30.299029 10.9970008-41.355878 7.2114596-11.298947 17.2248003-18.144122 28.5029993-18.144122zm571.144468 26.782634c17.210679 1.217273 31.324302 2.171666 42.340868 2.863178 11.016567.691512 27.31204 1.645905 48.886419 2.863178-3.554463 4.563491-6.873148 7.662843-9.956057 9.298058-.696141.369242-1.25791.703846-1.76088 1.005873l-.21218.127451c-.069673.041823-.138367.082987-.206301.123499l-.201745.119582c-.033318.019605-.066502.03905-.099578.058333l-.19739.113774-.19614.109947-.196211.106156-.197604.102402c-2.119904 1.072389-4.703183 1.510132-14.969634 1.510132-14.918437 0-21.931166-1.299612-33.110017 0-2.726799.317008-5.46357.655069-8.210311 1.014184.462709 1.549623.918019 3.073494 1.371614 4.593151l.586197 1.964761c1.856318 6.224509 3.727409 12.523797 6.026974 20.279652 2.826199 9.53206 3.818875 12.846501 3.908173 13.078083 1.156784 2.999966 3.321296 3.764187 14.569948 4.610221 17.230497 1.29594 31.991218 2.358675 44.280507 3.188122 4.132734.278933 7.256856 3.855295 6.977924 7.988028-.278933 4.132733-3.855295 7.256856-7.988028 6.977923-12.331264-.83228-27.12918-1.897693-44.395405-3.19632-.873627-.065707-1.691512-.129492-2.460429-.192754l-.89963-.075752c-5.700453-.491924-8.58662-.986086-11.873667-2.14664-5.792865-2.04528-9.937675-5.87151-12.206787-11.756152-.202162-.524282-3.484418-11.524713-7.140676-23.792797l-.261761-.878323c-.131162-.440115-.262719-.881568-.394547-1.323938l-.263983-.88584c-.08809-.295605-.176265-.591494-.264487-.887542l-.264774-.888497-.399317-1.339957c-2.328335-7.812834-4.626066-15.51954-6.221985-20.836076-.195065-.649825-.297793-1.305399-.315767-1.952636zm-571.144468-11.782634c-5.513235 0-11.169262 3.866492-15.858844 11.21415-5.4520374 8.542275-8.6411561 20.440841-8.6411561 33.28585 0 12.845008 3.1891187 24.743574 8.6411561 33.285849 4.689582 7.347659 10.345609 11.214151 15.858844 11.214151 5.513234 0 11.169262-3.866492 15.858844-11.214151 5.452037-8.542275 8.641156-20.440841 8.641156-33.285849 0-12.845009-3.189119-24.743575-8.641156-33.28585-4.689582-7.347658-10.34561-11.21415-15.858844-11.21415zm44.572883-15.942244.410077.563778c11.214108 15.527019 17.51704 36.062645 17.51704 57.878466 0 12.831778-2.180586 25.220655-6.258548 36.407932l14.994065 2.083349c5.746954-13.581434 7.605146-30.516339 4.234489-47.895944-4.281119-22.074081-16.130078-40.041663-30.897123-49.037581zm498.362868-19.516145c31.832913 4.745256 54.615425 8.478219 68.347537 11.198889 2.265798.44891 4.490922.894025 6.704884 1.331992l1.206686.238162 1.808206.35432c1.607209.313291 3.21561.621996 4.836554.924824l1.218238.225999c15.058316 2.773237 31.432769 5.016083 58.10839 5.707863 20.754026.538215 50.747697-.558081 85.588009-5.615257 3.668648-.532516 8.615162-1.788813 14.839543-3.768892l2.237808 6.138479c.784744.263911.038808.72098-2.237808 1.371208-3.414925.975341-19.680523 4.207041-39.685057 6.193604-8.60195.854222-23.181388 1.682421-37.845203 2.26497l-2.046068.079669c-18.749775.715285-37.189163 1.01197-42.986338.430468-10.540319-1.057277-85.33342-6.596703-94.869245-8.968711-6.357216-1.581339-14.765928-7.617201-25.226136-18.107587zm-542.935751 9.458389c-4.735454 0-9.387293 1.049118-13.833606 3.062653 1.911407-.440727 3.838792-.694129 5.774181-.753182l-.007533-.039234.613272.008088.135433.001937c.542876-.006196 1.086083.002149 1.616234.024599l18.451463.287643c-4.116108-1.706421-8.397466-2.592504-12.749444-2.592504zm379.175025-18.963878.151474.002908 22.814389 1.316607c.508379.029338.984752.257503 1.326034.63512.717024.793363.654591 2.01728-.139449 2.733693l-10.680917 9.636741c-.737592.665484-1.859562.665329-2.596971-.000357l-12.133472-10.953347c-.435486-.39313-.669109-.962328-.635266-1.547762.061691-1.067181.977561-1.882334 2.045652-1.820695zm-190.017594-32.095807.211866.38712 20.591869 1.97772c2.748775.264002 4.763081 2.706341 4.499078 5.455116-.264002 2.748775-2.706341 4.763081-5.455116 4.499078l-23.228363-2.230938c-1.649118-.158388-3.112705-1.12335-3.908075-2.576643l-1.483447-2.710544c-1.325734-2.422373-.436733-5.460814 1.985639-6.786549 2.422373-1.325734 5.460814-.436733 6.786549 1.98564zm-146.043023-9.661562.08024.171629 18.635926 1.913609c2.74698.282071 4.745183 2.737601 4.463113 5.484581-.282071 2.746979-2.737601 4.745183-5.484581 4.463112l-21.454588-2.20304c-1.748486-.179541-3.274286-1.263986-4.018699-2.856245l-1.280277-2.738443c-1.169519-2.501536-.089706-5.477515 2.411831-6.647034s5.477516-.089705 6.647035 2.411831zm270.543235-58.706948c17.315519 13.416849 34.828444 31.410365 52.538775 53.980548l-25.451676-1.511276c.022586-.180273.033879-.357386.033879-.53134 0-2.683585-6.329664-16.638548-7.849265-19.500342-1.519601-2.861795-10.139331-11.569463-19.303669-11.057044-8.747778.489127-13.668873 1.172462-18.5491 2.352611l-.697306.172005c-5.117534 1.286633-11.699807 7.629397-14.377673 11.45515-1.785245 2.550502-3.589377 6.671826-5.412397 12.363971l-.00802.055285c-123.271924-9.678506-194.359041-16.066248-213.261351-19.163225-20.919303-3.427443-33.948141-12.04325-39.086515-25.847418 23.616215-12.687815 42.087549-21.32235 55.414002-25.903606 41.267673-14.186655 84.997396-21.109078 112.127902-21.946876 60.40841-1.865428 97.909136 24.956283 123.882414 45.081557zm-376.6120147 45.106652-.0835877.031958c-2.4272273.934289-3.3003726 1.854598-3.8200541 4.678873.456534-1.936313 1.757929-3.506785 3.9036418-4.710831zm7.4527431-2.59651-.1328372.064423c-.3870857.182809-.7841281.344708-1.1911272.485696l-.238546.081288 1.7377255-.316262c-.0608325-.103458-.1192641-.20853-.1752151-.315145z" fill-rule="evenodd"/></svg>