<?xml version="1.0" encoding="UTF-8"?>
<svg width="960px" height="960px" viewBox="0 0 960 960" version="1.1" xmlns="http://www.w3.org/2000/svg" xmlns:xlink="http://www.w3.org/1999/xlink">
    <title>com.popp/drivers/thermostat/ assets/icon</title>
    <g id="com.popp/drivers/thermostat" stroke="none" stroke-width="1" fill="none" fill-rule="evenodd">
        <path d="M289.812958,181.352281 L290.228269,181.373646 L290.80082,181.41184 L291.587333,181.487556 L292.344405,181.578828 L293.210942,181.698687 L294.638449,181.919826 L295.581464,182.076746 L298.09164,182.519762 L300.100325,182.890653 L304.129412,183.657981 L313.256312,185.446694 L341.438491,191.071906 L381.166032,199.097839 L467.294722,216.647997 L517.116082,226.844886 L603.59361,244.586962 L686.425182,261.614928 L793.53,283.665 L794.753556,283.881441 C797.991053,284.468744 801.216608,285.147 804.428251,285.916249 L806.032903,286.308457 C919.12532,314.505564 981.737367,446.660585 948.41151,580.323299 C915.461416,712.478906 800.273431,799.523841 688.096209,773.899373 L685.553,773.293 L221.67512,696.825339 C220.709119,696.6661 219.756376,696.436187 218.824545,696.137568 L218.268018,695.950168 C160.774382,675.645695 112.604589,631.313345 83.4965036,573.024061 L83.23,572.487 L81.9623544,572.133917 C42.7879669,561.11131 17.9957204,543.990232 9.42116255,518.759164 L9.14436252,517.92443 C-2.27688177,482.610227 -4.20510479,428.409718 9.42116255,360.957505 C15.8033027,329.364886 35.2341168,302.210625 55.8045965,283.61701 C72.8281658,268.22944 93.0908627,258.629208 107.898591,259.146305 L121.723,259.628 L121.976007,259.34172 C165.287845,210.461644 224.212061,181.956469 287.408416,181.361776 L289.426758,181.352281 L289.812958,181.352281 Z M289.426758,221.352281 C270.563614,221.352281 252.114406,224.419963 234.525017,230.280951 C155.115907,261.183834 94.6999929,342.334063 94.6999929,442.930756 C94.6999929,489.711455 106.690468,533.362657 127.354655,569.953013 C151.651823,610.833395 187.311799,641.724753 228.600481,657.147649 L229.968,657.652 L692.758468,733.940694 C693.070256,733.99209 693.380761,734.050865 693.689721,734.116966 L694.15197,734.221605 L697.055,734.914 L699.67886,735.486749 C787.118151,753.626126 879.93956,683.448139 908.738163,574.008819 L909.599681,570.646423 C937.957939,456.907659 886.124003,347.501956 796.356028,325.120286 C793.040193,324.293556 789.707211,323.592803 786.359735,323.017592 L786.034924,322.959016 L785.711125,322.895087 L705.125168,306.30084 L580.167251,280.610804 L505.801711,265.35771 L442.228851,252.352862 L391.94014,242.102815 L347.193821,233.03396 L320.768875,227.725634 L303.702539,224.341943 L294.20943,222.499648 L290.940862,221.882973 L288.64,221.462 L288.571757,221.43531 C288.550143,221.420971 288.549768,221.403672 288.622537,221.388584 L288.721611,221.374425 L288.880982,221.362889 C288.91321,221.361249 288.948431,221.359766 288.986884,221.358463 Z M620.745743,499.81995 C645.393066,400.964937 722.881036,332.799342 798.44402,345.452752 C798.931784,345.534431 799.412817,345.652181 799.883159,345.805033 C880.773258,372.092755 924.167786,470.284341 899.476581,569.315353 C874.785579,668.345552 790.373173,734.671407 706.612121,719.907385 C706.125082,719.821538 705.645083,719.69968 705.176074,719.542813 C632.514998,695.240335 596.098229,598.675728 620.745743,499.81995 Z M793.223325,364.878542 C729.898136,355.694916 662.291227,415.861424 640.151657,504.658388 C617.788285,594.352974 650.1002,680.032933 711.519919,700.575588 L711.510765,700.572281 L710.826,700.334 L712.261566,700.573241 C783.420784,711.704958 856.484091,654.27545 879.385332,567.153158 L880.070666,564.476915 C902.389326,474.961663 863.78105,387.600237 793.701769,364.825822 L794.407765,365.062281 Z M106.828,299.132 L106.487836,299.189532 C106.428038,299.200738 106.365539,299.213052 106.300428,299.226492 L105.879121,299.320789 L105.399373,299.442981 C103.785453,299.876801 101.79565,300.624242 99.5945244,301.66711 C94.1540956,304.244722 88.2518765,308.206904 82.6270298,313.291191 C68.2838058,326.256003 57.6057249,344.488381 52.9535689,367.517301 C40.5822816,428.757161 38.436621,478.508842 47.2033863,505.615461 C50.3660034,515.394194 63.7910939,524.942495 89.0471687,532.543256 C80.155915,505.804852 75.1335759,476.948424 74.7268144,446.896149 L74.6999929,442.930756 C74.6999929,388.710302 90.966133,339.469219 118.079316,299.523455 L106.828,299.132 Z" id="Combined-Shape" fill="#000000" fill-rule="nonzero"></path>
        <path d="M191.105564,289.81167 C194.714015,289.81167 255.120677,301.65854 372.325552,325.352281 C375.001661,316.970677 384.000168,307.095214 399.321072,295.725893 C411.091396,286.991382 426.40096,275.49979 459.366632,266.777088 C465.996144,265.022921 479.257569,263.313205 499.150906,261.647939 L325.429138,221.352281 C307.0754,222.363677 294.45362,223.56238 287.563797,224.948391 C250.68976,232.36626 229.254263,244.448952 214.824056,257.162563 C189.687587,279.308837 188.688468,289.81167 191.105564,289.81167 Z" id="Path-2" fill="#000000"></path>
    </g>
</svg>