<svg width="960" height="960" viewBox="0 0 960 960" fill="none" xmlns="http://www.w3.org/2000/svg">
<path d="M326.569 11.5103C444.285 7.76588 562.033 17.8676 677.396 41.6069L724.953 51.3931L726.71 51.7632C800.938 67.7611 858.757 126.205 873.937 200.759C911.4 384.767 911.331 574.766 873.87 758.764C858.626 833.639 800.39 892.479 725.632 908.275L680.437 917.825C563.099 942.618 443.184 953.037 323.333 948.85C292.469 947.772 262.461 940.358 235.92 926.356L180.375 899.506C180.253 899.447 180.131 899.387 180.01 899.326C126.224 871.959 88.7086 811.248 79.9531 751.029L75.3057 719.062C52.232 560.361 52.2319 399.151 75.3057 240.45L79.5361 211.348C88.2523 151.399 123.118 91.5479 176.668 63.3091L177.067 63.104C177.201 63.0372 177.336 62.9715 177.472 62.9077L252.428 27.5884C253.838 26.924 255.304 26.4364 256.794 26.1196C278.534 17.3926 302.059 12.2899 326.569 11.5103ZM375.775 50.7524C359.801 50.7371 343.82 50.9824 327.841 51.4907C306.972 52.1546 287.039 56.6967 268.76 64.4478C267.898 64.8134 267.017 65.1124 266.126 65.3511L258.029 69.1655C211.287 92.8265 177.068 138.125 169.113 192.79L164.486 224.583C139.838 393.965 139.838 566.024 164.486 735.407L169.568 770.33C180.202 843.398 238.696 899.427 310.956 907.87C315.492 908.376 320.087 908.712 324.729 908.875C341.075 909.445 357.421 909.736 373.762 909.75C473.932 909.797 573.88 899.397 671.979 878.688L717.217 869.138C776.398 856.645 822.566 810.078 834.649 750.781C871.074 572.041 871.138 387.473 834.715 208.743C822.599 149.289 776.183 102.793 716.744 90.5728L669.143 80.7866C572.571 60.9326 474.284 50.8789 375.775 50.7524ZM184.724 105.062C150.42 128.284 125.77 171.365 119.12 217.104L114.889 246.206C92.3699 401.09 92.3699 558.423 114.889 713.307L119.537 745.273C125.83 788.553 150.211 830.574 182.836 854.256C165.822 830.962 154.168 803.379 149.777 773.209L144.695 738.287C119.769 566.994 119.769 392.995 144.695 221.703L149.321 189.91C153.939 158.174 166.454 129.255 184.724 105.062ZM542.736 241.382C543.549 235.92 548.636 232.149 554.099 232.961C569.053 235.185 583.953 237.821 598.781 240.868L624.849 246.223C665.613 254.599 697.452 286.468 705.764 327.228C710.437 350.145 714.043 373.232 716.584 396.411C717.186 401.901 713.223 406.839 707.733 407.441C702.244 408.042 697.305 404.08 696.703 398.59C694.229 376.019 690.717 353.538 686.167 331.223C679.457 298.317 653.749 272.579 620.823 265.814L594.756 260.458C580.288 257.485 565.749 254.914 551.157 252.745C545.695 251.932 541.924 246.845 542.736 241.382Z" fill="black"/>
</svg>
