<svg height="960" viewBox="0 0 960 960" width="960" xmlns="http://www.w3.org/2000/svg"><path d="m672.057644-4.21941076 105.133467 221.58717376 29.831 7.286 97.220003 23.290039c22.960192 5.502285 39.683657 25.282898 41.290335 48.838452 3.358301 49.091377 5.821208 86.295325 7.389663 111.633359 1.465261 23.67098 2.105477 34.406667 2.128469 40.679034v.542077c0 2.654624-.130984 4.489022-.357201 6.230674l-.050202.373387-.053284.372135-.056325.372492-.029291.186881c-2.394087 15.107432-10.516351 28.147775-23.002375 36.973701-1.226145.866718-2.500121 1.663708-3.815877 2.387183-118.323093 65.060576-188.131363 103.277422-209.81899 114.864033-20.816918 11.121434-37.386212 16.947392-56.2417 18.930629-16.702781 1.756813-32.720519.504655-60.591093-3.768617-17.906728-2.745559-94.621408-12.919073-258.790256-34.447334-.209707-.0275-.340773-.044688-.45218-.059297l-.214077-.028073c-.111407-.014609-.242475-.031796-.452184-.059296-213.393804-27.982931-247.6352753-32.497082-262.7339412-34.769441-10.7741679-1.621519-18.6771012-3.090375-25.5122189-4.856686-9.7272174-2.513679-17.7512316-5.736029-25.0807092-10.792613-9.8463922-6.792996-16.9436032-16.130568-20.78938163-27.321623-2.69923867-7.854671-3.53318428-15.246708-3.53318428-24.25047v-153.163262c0-19.30441 8.85053441-37.54325 24.01492311-49.489026l191.6382451-150.9634c13.915372-10.961861 29.587529-19.038516 46.128336-24.037107l53.597774-116.43584364c2.30934-5.01685089 8.248392-7.21172206 13.265242-4.90238197 5.016851 2.30934008 7.211723 8.24839132 4.902382 13.26524221l-47.422195 103.0213114c16.315387-1.897051 33.029813-.931319 49.381333 3.062653l70.38896 17.192188 9.35533-128.18543366c.401981-5.50819895 5.193128-9.64760644 10.701327-9.24562532 5.508199.40198109 9.647607 5.19312865 9.245626 10.7013276l-9.600283 131.54173138 96.679 23.615-13.560702-155.01304805c-.481335-5.5018325 3.588582-10.35214826 9.090414-10.83348346 5.501833-.48133519 10.352149 3.58858201 10.833484 9.09041452l14.151804 161.76711699 205.886 50.289-98.164793-206.89799128c-2.367419-4.9897066-.241635-10.95383527 4.748072-13.32125424 4.989706-2.36741898 10.953835-.24163483 13.321254 4.74807176zm-415.297553 355.95231176c-114.012282 82.676039-175.9787465 127.278606-186.702283 134.376215-8.2304693 5.447518-14.5502141 11.575578-17.0742011 16.566277-1.842025 3.64225-1.4901459 5.17276 2.3916287 7.760702.6195507.413048 1.1781409.883268 1.6734381 1.398995 6.0970307 2.214032 14.8366569 3.931021 27.2959141 5.806147 35.7252272 5.376668 478.8471082 62.648311 522.7518352 69.380029 43.904727 6.731717 59.707325 6.305899 91.921915-10.904739 21.172042-11.311159 89.306092-48.607485 204.402152-111.888977.770211-1.537577 1.944149-2.896086 3.487096-3.901008 1.016271-.661897 2.000539-1.696205 2.5904-2.745256.453351-.806274.570452-1.380964.501731-1.736459-.112245-.580635-.697586-1.427566-2.352475-2.623178-2.842459-2.053599-7.552461-3.962371-14.23154-5.456935-21.172521-4.737734-210.377717-41.975229-566.577819-111.504796-24.494229-4.781549-49.874167.822266-70.077792 15.472983zm69.661842-.220128 515.52154 101.137825c9.213002 1.808569 15.215482 10.743317 13.406913 19.95632-.972376 4.953367-4.095784 9.218422-8.523756 11.640032-90.163965 49.321547-141.194973 77.155474-153.440155 83.690355l-.651206.34727c-14.422996 7.685445-25.478243 11.377185-37.82117 12.41054-10.851372.908482-21.434095-.052788-43.239923-3.387484-18.505913-2.830051-96.432908-13.136475-264.355561-35.099514l-7.880027-1.030597-1.655128-.216455c-6.253627-.817836-12.60192-1.647976-21.90812-2.864861-61.536738-8.046583-128.917597-16.926877-202.143333-26.64098-9.854791-1.307956-16.783237-10.357257-15.4751026-20.211999.65425-4.928747 3.3180386-9.367358 7.3607046-12.263972 50.305314-36.034408 101.783006-73.090371 154.441484-111.173567l3.425979-2.477815c18.147062-13.124322 40.946343-18.128486 62.936861-13.815098zm-51.216423 30.021002-3.425907 2.477764c-50.866234 36.787024-100.631859 72.616469-149.303692 107.492899l-1.3688.979325.267357-.190763 1.433133.190819c69.654635 9.237078 133.968943 17.712331 192.942798 25.425744l2.718079.355463c9.306306 1.216898 15.654696 2.047052 21.908504 2.864911l1.655178.216462 7.880151 1.030613c168.410301 22.026819 246.045549 32.294657 264.785253 35.160461 37.182225 5.686161 46.464395 4.909054 68.629599-6.901907l.645647-.344306c5.77416-3.081494 20.337673-10.989259 43.700403-23.728698l2.904721-1.58408c.49145-.268038.986565-.538089 1.485345-.810152l3.036662-1.656529c23.61827-12.885211 54.992173-30.02906 94.129871-51.436016l.723656-.396785-507.381489-99.540279c-16.551616-3.24656-33.712136.519965-47.366469 10.395054zm-31.323801-213.753469-191.6382453 150.963399c-5.5362054 4.361157-8.7673529 11.019781-8.7673529 18.067422l-.0003797 145.382944c4.286424-4.510478 9.5810511-8.8164 15.5434933-12.762775 10.3416239-6.844832 72.6092266-51.664153 185.9999066-133.889437 24.693316-17.90643 55.713252-24.75554 85.650523-18.911447 356.919929 69.670076 545.646807 106.813432 567.113403 111.616971 6.447076 1.442649 11.993693 3.3544 16.58025 5.725489-1.233761-22.522059-4.146277-67.346241-8.738329-134.468608-.416352-6.107009-4.752065-11.235316-10.704707-12.661834l-97.271011-23.301292-468.158357-114.350922c-29.876804-7.297617-61.449798-.441521-85.609194 18.59009z"/></svg>