<svg height="960" viewBox="0 0 960 960" width="960" xmlns="http://www.w3.org/2000/svg"><g fill="none" fill-rule="evenodd"><path d="m383.468496 1.11040128 101.501338 7.55691027c20.88147 1.55465335 37.030166 18.95033565 37.030166 39.88959875v24.6870897l157.803055 12.9387781c10.041955.8233465 19.396077 5.4051562 26.199905 12.8180425l.375355.4147337 7.410685 8.3034457.271054-.018839c16.785902-1.105587 34.003476 3.514432 49.934724 12.742888l.757652.442929c21.150276 12.477845 39.500577 32.813511 52.037539 57.413424 10.288098 20.187212 15.947013 41.846688 16.362885 62.454067l.012146.732531 12.680222 14.210973c6.416797 7.191004 10.017337 16.45196 10.154778 26.076343v617.703045c0 21.445206-16.912058 39.074848-38.338761 39.965489l-493.750219 20.523639c-3.32624.138261-6.65673-.139266-9.914211-.826142l-191.249781-40.32717c-18.503786-3.901732-31.747028-20.228672-31.747028-39.139347v-742.188567c0-18.898672 13.226812-35.218691 31.71573-39.1327341l11.28427-2.3895289v-19.5344796c0-19.2867817 13.755933-35.7965682 32.661827-39.3211861l.574474-.1028214 206.498662-35.42752047c3.213411-.5513023 6.482172-.70765932 9.733533-.46559115zm-51.629496 96.69859862v820.7810001l483.161-20.088701v-616.397526l-139.262003-156.090067-172.793997-14.171706-.360677 11.790035c-.347795 11.358494-10.077738 20.14532-21.412789 19.337262l-101.373071-7.226723c-10.467283-.746196-18.577841-9.455526-18.577841-19.949373l-.000622-15.574201zm-20 1.336-133.865 28.3440001.019.047-46.993 9.948263v741.237568l180.839 38.141169zm333.049435 296.2400141 55.111498 3.717006c18.869289 1.272643 33.982221 17.460769 33.982221 36.386543v114.997689c0 19.157973-15.470447 34.779827-34.594184 34.896253l-55.111905.336597c-1.634244.009843-3.240899-.097038-4.812896-.312952-.780003.199609-1.597164.308678-2.43926.313817-19.277076.114876-34.715054-16.010104-34.715054-35.753161v-120.365823c0-19.980387 15.818629-35.531786 35.328067-34.215969.38543.025996.764282.073502 1.135462.141269 1.986439-.229821 4.030149-.281953 6.116051-.141269zm-15.328067 34.215969v120.365823c0 8.866522 6.638435 15.800211 14.594184 15.752285l55.111579-.336215c8.109503-.049371 14.716023-6.720548 14.716023-14.896624v-114.997689c0-8.408278-6.964036-15.867763-15.328067-16.431877l-55.111499-3.717006c-7.723882-.520938-13.98222 5.631676-13.98222 14.261303zm-114.388095-204.627397 55.111498 3.717006c18.869289 1.272642 33.982221 17.460769 33.982221 36.386542v114.997689c0 19.157974-15.470448 34.779828-34.594184 34.896253l-55.111906.336597c-1.634062.009842-3.240542-.097014-4.812372-.31288-.780526.199537-1.597687.308606-2.439783.313745-19.277076.114876-34.715055-16.010104-34.715055-35.753161v-120.365823c0-19.980387 15.81863-35.531786 35.328068-34.215968.386775.026086.766925.073833 1.139347.141978 1.984609-.230583 4.027313-.282592 6.112166-.141978zm-15.328068 34.215968v120.365823c0 8.866522 6.638436 15.800211 14.594185 15.752285l55.111579-.336215c8.109502-.04937 14.716023-6.720548 14.716023-14.896624v-114.997689c0-8.408277-6.964036-15.867763-15.328067-16.431876l-55.111499-3.717006c-7.723882-.520939-13.982221 5.631675-13.982221 14.261302zm222.050084-111.483979 69.484044 77.880058c-1.890085-9.529947-5.281714-19.419826-10.227054-29.123529-14.553272-28.556298-38.320158-47.176907-59.25699-48.756529zm-340.675289-106.6515751.000622 74.7392011 101.37307 7.226724.391308-12.814925-.115-.009.001-.025-.87-.072v-61.5420897zm-20.219 3.292-187 32.0815205v31.4584796l143.827739-30.4522168c1.897868-.4018441 3.844104-.5254266 5.777556-.3668642l37.394705 3.066081z" fill="#000" fill-rule="nonzero"/><path d="m519.450382 234.959336 63.663283 4.293783c15.72959 1.060885 28.480942 14.719419 28.480942 30.50719v132.842158c0 15.78777-12.751352 28.663918-28.480942 28.75968l-63.663283.388097c-15.72959.095249-28.480942-13.223077-28.480942-29.747826v-139.043279c0-16.524749 12.751352-29.060688 28.480942-27.999803z"/><path d="m644.215512 405.362347 55.111498 3.717006c13.61666.918379 24.655144 12.742184 24.655144 26.40921v114.997689c0 13.667025-11.038484 24.81354-24.655144 24.896439l-55.111498.335964c-13.61666.082455-24.655144-11.446842-24.655144-25.751849v-120.365823c0-14.305007 11.038484-25.157014 24.655144-24.238636z"/><path d="m393.025085 58.8471671 79.427553 5.1095458-1.282986 41.9005031-78.144567-5.570801z" fill="#000"/></g></svg>