<svg height="960" viewBox="0 0 960 960" width="960" xmlns="http://www.w3.org/2000/svg"><path d="m185.657284 78.2121977 341.729896 22.1423513c205.551768 13.276733 331.247602 21.18275 346.892208 21.69783l.440362.013344c26.681149.726891 48.061156 8.083732 63.496722 25.069782 14.491996 15.9477 19.783528 35.654987 19.783528 59.953886v559.532919c0 26.777467-12.268579 48.767664-33.236349 61.833349-13.991547 8.718579-29.696179 12.476971-46.654001 13.237309l-1.458267.061903c-8.381091.389562-73.167035 4.102552-184.848045 10.577112l-498.246376 28.980224-4.160004.217101c-8.560366.426681-14.311765.568235-19.894138.404335l-.877332-.028312-1.315765-.051959c-10.684028-.467573-20.034041-2.160338-29.103195-5.890304l-2.185317-.915252c-4.912367-2.035542-14.677324-5.886697-25.720168-10.164051l-7.688226-2.967248-4.7074174-1.806526-11.3737298-4.330997c-8.8478801-3.34868-16.9207802-6.351238-22.4011958-8.301245l-2.2850603-.804072c-37.1550968-12.898486-58.84649852-41.956203-58.84649852-83.818024v-570.959691c-.05161561-15.701598 1.80243414-27.599424 8.49426662-38.877835 6.1173513-10.310182 14.3909074-18.033304 24.1283312-24.162852 3.4182093-2.151706 6.8446066-3.993143 10.4366774-5.697485.9643804-.457573 1.9054499-.888725 2.8769788-1.321059l1.2593145-.553988 8.0868364-3.470809c4.9358144-2.107606 11.9967716-5.110492 21.193198-9.013072l49.4367399-20.9425199.325053-.147358c8.056319-3.6269935 15.273358-6.1313691 22.374653-7.4333601l.788593-.1397136c12.33809-2.1094497 24.69276-2.4341819 33.257727-1.9237127zm-6.46435 41.7878023h-1.172252c-4.597983.015119-11.451416.285657-18.428342 1.450526-12.511275 6.569372-21.545297 19.174466-22.925453 34.327975-.11886 1.30503-.178382 2.614813-.178382 3.925276v640.596563c0 18.27922 11.332644 33.903838 27.335882 40.192367 6.47123.763586 14.271142.563406 24.04599.068358l4.144901-.219817 29.486544-1.701196c129.459256-7.510008 627.180094-36.562356 653.490045-37.794301l.70125-.030693c18.018889-.696012 41.307509-6.849671 41.307509-34.045468v-358.743646c-.09238 5.70922-4.762804 10.26366-10.433642 10.172626l-152.911234-2.363968c-6.413895-.089572-12.121548-.144061-17.257383-.155655l-2.624995-.002117c-22.779045.016332-33.902062.97312-46.538398 3.635831l-.916291.195467c-10.08945 2.178144-18.689438 4.759638-32.365894 9.487598l-10.253652 3.57677c-22.240591 7.717255-35.765679 11.474886-54.093123 14.190751l-.862668.126554c-11.40899 1.65696-23.289222 2.110199-44.794861 2.110199l-6.14649-.005112c-68.024938-.110185-193.5854-2.001694-376.737193-5.674457-5.670435-.11371-10.175669-4.833798-10.064802-10.542611.115023-5.708813 4.803379-10.244541 10.473813-10.130831l38.724098.76676c163.907677 3.202117 277.156464 4.837577 339.700283 4.906438l6.503982.000127c19.001074-.034149 29.684599-.483948 39.408709-1.896207l1.554482-.230314c16.194165-2.447816 28.485405-5.853717 48.757869-12.864262l10.422867-3.635555c14.538374-5.0402 23.852697-7.865092 34.819302-10.263206l.647051-.140587c14.563489-3.144013 26.704033-4.252804 51.122035-4.289249l3.59788.002045c5.428639.013589 11.439741.073219 18.173014.16974l151.989046 2.350937c5.576324.089516 10.043546 4.637615 10.106195 10.217683v-199.85085c0-28.200148-9.65888-42.731268-42.353012-43.90337l-.997796-.03143c-31.296025-.851515-598.78686-38.019938-687.525341-43.67275l-3.038658-.188156c-.716857-.033561-2.073132-.082222-3.892885-.094783zm-59.042679 17.009648-48.1112844 20.405951-5.2492391 2.252297c-5.6210114 2.431465-15.1483789 6.897594-20.0438732 15.137799-1.8958121 3.191073-2.8099356 9.326112-2.7458583 18.405117v569.796522c0 25.286003 11.6310743 38.004462 30.679274 44.77974l2.9647567 1.039877c7.7114212 2.730566 18.9538191 6.938656 30.4812463 11.336818l9.689828 3.715138 3.180293 1.226812c-3.216563-7.624153-4.995398-16.006425-4.995398-24.805379v-640.596563c0-1.934493.087867-3.867983.263326-5.794456.54005-5.929514 1.873972-11.594702 3.886929-16.899673zm775.325765 630.781077c5.515652-.281836 10.215444 3.961009 10.49728 9.476661.281837 5.515652-3.961009 10.215444-9.476661 10.49728l-728.814291 37.240597c-5.515651.281836-10.215444-3.96101-10.49728-9.476662-.281836-5.515651 3.96101-10.215444 9.476662-10.49728zm9.29653-25.788138c5.521418-.125617 10.099246 4.248544 10.230033 9.769963.120447 5.521418-4.253714 10.099246-9.775133 10.224863l-12.88955.309414c-33.100033.833396-74.172429 2.14765-122.885434 3.935711l-15.43271.568551c-15.847253.543087-41.236573 1.000437-67.964698 1.26912l-7.853477.073156-5.953865.047758-7.806305.052435c-8.655145.051628-17.221073.080796-25.423213.084061l-9.509142-.008417c-16.132641-.036237-30.283455-.186945-40.089918-.481768l-2.751606-.085497c-4.657232-.134673-9.929231-.206568-15.746889-.219604l-2.777735-.001804-2.475303.005409c-5.426856.018697-11.265297.082603-17.467408.189004l-14.445407.279017-5.83038.125696-5.242568.131867c-10.803643.293837-24.436417.803394-57.423856 2.160434l-157.41616 6.567143c-8.561806.350078-16.625452.674082-24.627717.988939l-12.446853.483998c-36.527423 1.402926-70.597183 2.553325-105.489142 3.524096l-.279903.003945-.278214-.003723c-5.269349-.142945-9.567871-4.384671-9.723821-9.71824-.145906-5.520711 4.204999-10.120648 9.72571-10.274246l6.95351-.196151c34.722888-.992932 68.848622-2.170137 105.653252-3.604524l28.194055-1.12604 174.735983-7.274236c11.681518-.471999 20.222364-.803368 27.000938-1.046783l5.735035-.199184c8.95504-.298985 14.745811-.428495 22.357304-.579037l11.006725-.21364c7.681846-.138856 14.840926-.21515 21.401226-.223496l1.829233-.000551c6.527953.004498 12.434758.079171 17.641516.229612l3.983737.121293c10.788635.301162 26.52802.43781 44.253772.446909l3.707863.000068c10.580914-.004929 21.778235-.053113 32.988483-.137026l7.86671-.064704 14.52511-.150088c23.599818-.276698 45.381577-.695757 59.313842-1.181966l27.178849-.996681c49.798856-1.793255 91.163428-3.064284 123.723521-3.805056zm-452.136339-30.745611 96.47516-2.046047c17.194428-.349847 27.668943-.294815 37.507689.329683l3.077419.204335c18.287306 1.238483 32.503087 2.626527 52.993875 5.030648l21.394236 2.552138c5.53482.652751 10.446942 1.212819 15.23931 1.732134l3.215098.344168 2.188849.229401 1.472847.144489c16.859203 1.591221 39.390311 1.608435 67.187658.175111l16.922012-.892505c54.577371-2.842037 99.528365-4.763591 134.406156-5.752705 5.520628-.156562 10.122899 4.191873 10.287449 9.712501.148574 5.520628-4.199861 10.1229-9.720489 10.279461l-8.096791.240819c-36.238303 1.125815-82.540504 3.18187-138.433533 6.156111l-4.406348.233492c-29.512628 1.520142-53.45535 1.453863-71.666079-.401827l-1.114996-.116343-4.317052-.460006c-2.794263-.302608-5.622834-.618226-8.583015-.95688l-7.846754-.914116-16.788749-2.008226c-22.215497-2.639761-36.711884-4.088663-55.704443-5.374867l-2.129408-.142295c-5.389608-.362604-11.02941-.538705-18.103005-.556911l-2.028228-.000981-2.598484.009953c-4.438843.026696-9.432846.103571-15.206684.225196l-105.374237 2.240951c-14.504096.317159-28.020946.620125-38.457456.868117l-11.129103.269841c-72.655982 1.786089-147.623602 4.067095-231.928992 7.189574-5.519063.204414-10.158858-4.103961-10.376777-9.623025-.190908-5.519063 4.117467-10.158858 9.636531-10.363271l18.833347-.689208c76.802325-2.776188 146.063208-4.854069 213.344339-6.508028l14.700615-.354065c12.445723-.291361 28.472129-.646133 45.128033-1.006817zm86.981702-43.080031 6.357044-.08104c17.191545-.199249 27.941621-.106128 37.519017.478803l.924057.058194c.716135.046468 1.426582.095763 2.133591.14797l1.058219.080506c17.561935 1.351726 30.562482 3.328501 51.260905 7.400549l12.560076 2.505285c13.699945 2.712922 22.569634 4.221272 32.739013 5.411954l.650933.075578c16.767474 1.89697 39.387183 2.222338 67.435725 1.101298l19.922635-.841479c53.781884-2.235983 98.140003-3.66612 132.641998-4.283368 5.521964-.09879 10.078485 4.297562 10.180487 9.819526.095576 5.521964-4.300776 10.078485-9.822739 10.177274l-5.748059.108581c-36.191941.718748-82.679143 2.284491-138.972846 4.689906l-6.22623.265906c-29.517515 1.215381-53.464726.894004-71.67897-1.166665l-1.37941-.161477c-9.829583-1.169927-18.526375-2.623011-30.94138-5.04941l-14.054783-2.798847c-20.327183-4.020022-32.734854-5.944411-49.271051-7.248825l-.84444-.065799c-6.770642-.530203-13.93635-.76853-23.844205-.79699l-3.012953-.002376-3.313618.009989c-3.696597.017509-7.749313.056446-12.244716.113785l-7.639673.103133c-62.873274.893279-168.683886 3.441596-374.740439 8.926715-5.520892.146963-10.115597-4.209467-10.26961-9.730358-.139913-5.520892 4.216517-10.115597 9.737408-10.26256l61.224437-1.620748c170.394597-4.48212 261.531007-6.607431 317.659577-7.36501zm-2.110681-37.156154 8.534419-.01918c19.146533-.017872 30.300531.230027 40.731729 1.081236l2.72813.232101c16.868106 1.481625 29.841972 3.552766 50.236539 7.622917l11.712553 2.361364c14.001528 2.800977 22.964709 4.345719 33.423501 5.606868l1.475018.16963c16.883627 1.88113 39.432781 2.357638 67.248402 1.54176l13.350953-.40852c56.193112-1.693871 102.346185-2.66602 137.981975-2.91387 5.522714-.038411 10.030896 4.407495 10.069798 9.930209.03792 5.522713-4.407986 10.030896-9.9307 10.069307l-8.098103.067124c-34.274289.327872-77.548595 1.274508-129.423163 2.838228l-13.471029.412072c-29.481802.862167-53.39742.309908-71.578666-1.847527l-2.060746-.254228c-9.539872-1.204115-18.110065-2.672018-30.227533-5.066103l-14.280323-2.871892c-19.801768-3.953607-32.165078-5.928371-48.232352-7.338708l-2.551028-.216935c-9.468554-.771523-19.880976-1.018328-37.532272-1.015865l-4.075342.004601c-64.901416.131874-181.079496 1.547744-382.385769 4.632582-5.522199.084623-10.067426-4.323404-10.154412-9.845603-.08226-5.522199 4.325767-10.067427 9.847966-10.152049l63.414919-.958361c157.442046-2.342266 254.658281-3.480963 313.245536-3.661158zm1.953925-39.019236 7.507372.001341c18.616068.032501 29.600852.346286 39.90126 1.325899l.949065.092328c17.901135 1.780459 31.053933 4.212922 52.151043 9.182554l11.74765 2.802661c14.198154 3.370967 23.013144 5.193631 33.42195 6.732518 17.234285 2.547997 40.663225 3.361209 69.725921 2.57128l10.393569-.292138c57.454752-1.590922 104.029943-2.386673 139.741013-2.386673 5.522847 0 10 4.477153 10 10 0 5.522848-4.477153 10-10 10l-5.696438.006589c-34.33629.078192-78.238524.852309-131.694008 2.322826l-10.941473.306903c-30.268811.864998-54.909094.064998-73.653942-2.627305l-.799741-.116544c-11.306571-1.671616-20.740294-3.634729-35.937746-7.25357l-6.632883-1.587557c-22.884953-5.477179-35.807548-7.969765-53.804362-9.759741l-1.759542-.167032c-9.596538-.86771-20.394043-1.140334-38.903531-1.155239l-7.746286.002796c-67.845045.074892-193.288451 1.368931-376.29273 3.882146-5.522327.075839-10.060536-4.339412-10.138276-9.861739-.073938-5.522327 4.341313-10.060536 9.86364-10.136375l33.308025-.452501c166.864144-2.241255 281.950306-3.38574 345.29045-3.433427zm-2.08378-36.998056 9.519514-.000727c18.683431.031863 29.68744.345957 40.012511 1.329794l.909452.088557c17.901135 1.780459 31.053933 4.212922 52.151043 9.182554l11.74765 2.802661c14.198154 3.370967 23.013144 5.193631 33.42195 6.732518 17.234285 2.547997 40.663225 3.361209 69.725921 2.57128l10.393569-.292138c57.454752-1.590922 104.029943-2.386673 139.741013-2.386673 5.522847 0 10 4.477153 10 10 0 5.522848-4.477153 10-10 10l-5.696438.006589c-34.33629.078192-78.238524.852309-131.694008 2.322826l-10.941473.306903c-30.268811.864998-54.909094.064998-73.653942-2.627305l-.799741-.116544c-11.306571-1.671616-20.740294-3.634729-35.937746-7.25357l-6.632883-1.587557c-22.884953-5.477179-35.807548-7.969765-53.804362-9.759741l-1.685746-.160345c-9.615013-.872997-20.420378-1.146982-38.977327-1.161926l-7.788251.002842c-67.854801.07538-193.284211 1.369403-376.250765 3.8821-5.522327.075839-10.060536-4.339412-10.138276-9.861739-.073938-5.522327 4.341313-10.060536 9.86364-10.136375l33.308025-.452501c165.050404-2.216894 279.442316-3.36073 343.20667-3.431483zm4.054123-43.002937h3.731458l3.411679.009038c18.026319.071507 28.81972.558953 39.11851 2.008913l.475003.067606c18.736455 2.695573 32.31147 6.407494 54.870383 14.161657l9.452957 3.268507c13.875023 4.766239 22.550006 7.373748 32.591505 9.548915l1.580156.33596c16.101269 3.353404 29.785234 3.965468 68.252935 3.40529l150.924913-2.313431c5.522149-.087814 10.069923 4.317586 10.16028 9.839735.085271 5.522149-4.320129 10.069923-9.842278 10.157737l-152.211661 2.331876c-38.947444.54825-53.606454-.140318-71.352578-3.83925l-1.1134-.235119c-11.229908-2.401563-20.607498-5.206446-35.412112-10.290718l-9.445676-3.265989c-21.182413-7.283379-33.672877-10.7226-50.522634-13.195531l-1.192761-.172073-.827765-.113853-.871471-.11424c-9.334713-1.19301-19.982149-1.573272-38.097479-1.594627l-7.754178.004025c-67.806081.108297-193.210385 1.979513-376.158679 5.613714-5.521758.109688-10.086947-4.277662-10.200588-9.79942-.105734-5.521758 4.281616-10.086947 9.803374-10.196635l44.112966-.863634c162.808693-3.138172 274.966157-4.724342 336.517141-4.758453zm363.448953-83.021547c5.612834.082831 10.119547 4.662398 10.119547 10.283134v82.4536c0 5.679835-4.598441 10.284251-10.270906 10.284251h-189.841391c-10.472968 0-21.590138-2.166097-34.628376-6.351971l-2.028636-.65998-2.024187-.668186-1.650876-.555828-1.145943-.394072-2.017555-.713663c-2.746915-.989669-5.793891-2.160709-10.430538-4.004789l-6.595717-2.642358-12.972027-5.235917c-32.23732-12.947196-50.605525-18.125816-70.735361-18.125816h-411.387581c-5.672465 0-10.270906-4.604415-10.270906-10.28425v-3.173839c0-5.679834 4.598441-10.28425 10.270906-10.28425h411.387581c12.648472 0 24.392155-2.043723 36.52291-6.033964.915985-.3013 1.815365-.60513 2.70664-.914884l.888887-.311855c.443407-.15704.885496-.315843 1.327329-.476835l.883638-.325026c6.94633-2.579111 14.004326-5.768514 25.298142-11.214985l6.909792-3.336582c13.236341-6.355392 21.457993-9.884215 30.944342-12.959618 12.854907-4.167464 25.409553-6.331332 38.747536-6.331332l6.893667.006936c37.968562.073486 98.992999.730884 183.099083 1.972079zm-151.153286-66.720347 18.907163.514395c54.030133 1.430751 98.066197 2.145873 132.0944 2.145873 5.672666 0 10.27127 4.564697 10.27127 10.195537 0 5.630839-4.598604 10.195536-10.27127 10.195536l-8.07631-.012741c-36.157676-.111632-82.511236-.95683-139.074929-2.535067l-1.848088-.051724c-29.230801-.820612-52.832393-.067696-70.240885 2.387368l-.731882.104748c-9.797138 1.422926-18.183046 3.09295-30.976497 6.046226l-13.144906 3.077735c-21.028601 4.887341-34.165929 7.332955-51.490134 9.098815l-1.776688.177305c-10.901593 1.065169-22.32999 1.380312-42.585283 1.397326l-9.960741-.005641c-68.470847-.097123-193.355424-1.368902-374.690684-3.815306-5.672142-.076523-10.207826-4.702833-10.132647-10.333152.079004-5.63032 4.739679-10.132561 10.41182-10.056038l49.473042.656566c158.1764 2.062253 267.882357 3.116029 329.088454 3.161353l7.441555-.00127c18.021696-.03094 28.544873-.325168 38.065926-1.213171l.876209-.083666c17.155142-1.67619 29.700041-3.979473 50.659901-8.852088l11.555755-2.709593c14.191363-3.298057 23.335362-5.142098 34.210846-6.721642 18.333031-2.66267 42.398982-3.513649 71.944603-2.767684zm0-36 18.907163.514395c54.030133 1.430751 98.066197 2.145873 132.0944 2.145873 5.672666 0 10.27127 4.564697 10.27127 10.195537 0 5.630839-4.598604 10.195536-10.27127 10.195536l-8.07631-.012741c-36.157676-.111632-82.511236-.95683-139.074929-2.535067l-1.848088-.051724c-29.230801-.820612-52.832393-.067696-70.240885 2.387368l-.731882.104748c-9.797138 1.422926-18.183046 3.09295-30.976497 6.046226l-13.144906 3.077735c-21.028601 4.887341-34.165929 7.332955-51.490134 9.098815l-1.776688.177305c-10.901593 1.065169-22.32999 1.380312-42.585283 1.397326l-9.960741-.005641c-68.470847-.097123-193.355424-1.368902-374.690684-3.815306-5.672142-.076523-10.207826-4.702833-10.132647-10.333152.079004-5.63032 4.739679-10.132561 10.41182-10.056038l49.473042.656566c158.1764 2.062253 267.882357 3.116029 329.088454 3.161353l7.441555-.00127c18.021696-.03094 28.544873-.325168 38.065926-1.213171l.876209-.083666c17.155142-1.67619 29.700041-3.979473 50.659901-8.852088l11.555755-2.709593c14.191363-3.298057 23.335362-5.142098 34.210846-6.721642 18.333031-2.66267 42.398982-3.513649 71.944603-2.767684zm-.005678-35.874074 15.26648.460452c55.272583 1.637425 100.706379 2.577762 135.81247 2.818993 5.672528.038978 10.238912 4.596127 10.199813 10.178677-.040115 5.58255-4.670714 10.076502-10.343242 10.037523l-5.779726-.045179c-33.257126-.290454-75.098204-1.1663-125.170512-2.625651l-20.482121-.613736c-28.228699-.818046-51.031544-.3213-67.987182 1.605145l-.733516.084659c-10.673811 1.2716-19.790877 2.835344-34.303247 5.713897l-10.838431 2.159899c-20.41668 4.025556-33.407892 6.074519-50.298772 7.540303l-1.825175.154881c-.452721.038141-.906402.075136-1.361641.11101l-1.830688.137593-1.488896.102176c-8.824399.580134-18.722694.782778-33.752982.794243l-4.092397-.001291-1.707526-.002835c-65.06331-.130613-181.368029-1.530982-382.890896-4.582005-5.671995-.085873-10.199319-4.680612-10.114508-10.262637.089704-5.582025 4.758499-10.037537 10.430494-9.951664l63.424503.946982c161.127024 2.368276 259.175928 3.491286 317.228699 3.628381l4.50668.008032 4.907965-.001954c15.590993-.028844 25.252971-.286909 34.076232-.994042l.925886-.076103c16.624601-1.379506 29.010334-3.285565 48.89989-7.191298l13.622352-2.709234c13.631422-2.682775 22.770679-4.234797 33.327192-5.512047l.705932-.084753c18.209769-2.134836 42.153609-2.681117 71.66687-1.828417zm.141585-34.699822 17.009404.696577c54.468943 2.195481 99.304403 3.596603 134.033054 4.196514 5.671824.097976 10.190576 4.790135 10.095973 10.480229-.10072 5.690095-4.777813 10.223402-10.449637 10.125426l-6.957061-.128199c-35.427181-.692189-80.473229-2.152145-134.719447-4.373287l-7.287312-.300663c-29.783686-1.256996-53.672755-.997797-71.187157.915449-2.444761.271792-4.807841.560048-7.172804.87644l-1.290669.175438-2.594512.369303c-6.305862.924202-12.941606 2.088218-21.438425 3.705942l-12.410821 2.390973c-20.977269 4.003891-34.040488 5.959056-51.454774 7.28593l-.904682.068078c-.620434.046914-1.242669.091612-1.868244.134152l-.941062.062199c-6.764988.434256-14.005025.622335-23.633271.634132h-2.050738l-3.3667-.010239c-2.596741-.0121-5.359075-.03413-8.315565-.065044l-4.059551-.046394c-62.037511-.764049-168.010299-3.206474-382.890804-8.72953-5.670805-.145756-10.15012-4.875818-10.011547-10.564889.152003-5.689071 4.866877-10.182816 10.537682-10.03706l67.011033 1.711814c168.620376 4.276745 258.475469 6.288493 313.735284 6.989129l6.767984.078242c3.145565.031325 6.058471.051945 8.775707.06061l3.590987.004285 2.588805-.007153c8.985831-.041893 15.696364-.26137 22.008554-.721788l2.273949-.172087c15.579939-1.216206 27.62076-2.993893 46.432413-6.552213l14.401895-2.769366c13.935486-2.652687 23.176924-4.149068 34.036723-5.35637 18.218694-1.990202 42.17504-2.300624 71.705336-1.12658zm.117192-34.652744 22.305452 1.128143c52.080568 2.586278 95.131931 4.343389 128.725603 5.260819 5.67009.154848 10.140407 4.852502 9.99243 10.492504-.163371 5.640002-4.886085 10.086598-10.556176 9.93175l-8.140882-.233148c-36.034033-1.077884-81.896349-3.033958-137.154172-5.85707l-3.656984-.187396c-29.781337-1.549453-53.668522-1.535702-71.180269.182685l-4.381533.44605c-4.756563.492536-9.596137 1.020405-15.014321 1.632881l-20.22647 2.324935c-22.658977 2.582348-37.543337 3.98796-57.637811 5.264058l-.932169.058639c-5.677952.346476-11.569542.510475-18.842863.522417h-1.79706l-3.348377-.014775c-3.677703-.02547-7.706947-.081966-12.203112-.166483l-101.535484-2.073768c-12.264176-.256591-24.062707-.507804-34.195369-.731122l-13.799563-.311239c-75.340357-1.750879-152.889011-4.002154-240.498565-7.126893-5.668584-.202179-10.099106-4.936988-9.908865-10.575492.216275-5.638504 4.976343-10.045516 10.644927-9.843336l21.933984.771398c77.602835 2.690079 147.534249 4.693199 215.58717 6.284513l19.594503.442141c45.964453 1.005407 121.883967 2.507945 125.530723 2.589608l5.344135.113164c6.55552.129812 12.093899.202246 16.95711.20934l1.696852-.000237 1.778311-.006529c6.119823-.034382 11.171234-.190441 15.985552-.487534l3.518948-.226501c6.065425-.399131 11.68283-.815676 17.25646-1.2824l3.663681-.314542c10.708252-.941942 21.582032-2.095598 35.487709-3.693297l16.354662-1.883263 4.982829-.560402c5.643957-.62791 10.755514-1.171182 15.967879-1.692644l1.59867-.151117c18.013174-1.639059 41.430272-1.658041 70.102455-.235857zm-589.715461-43.032028.282621.003873 6.972815.192005c35.979579 1.004328 71.314288 2.201072 109.625313 3.668798l15.229244.591198 67.895283 2.75445c120.629577 4.92761 142.669516 5.838633 161.296779 6.284869l7.688352.165968 10.100283.193982c8.82154.170223 16.966645.262048 24.308014.268435l1.746432-.000111c6.231131-.006331 11.854675-.076862 16.788527-.21613l3.812232-.11358c18.124013-.49806 49.927576-.547727 81.823413-.315424l12.837184.108587c26.776833.257935 52.314107.701385 68.403416 1.229812l30.074576 1.072664c48.977053 1.716731 89.704237 2.93546 121.811782 3.648516 5.669251.125905 10.162669 4.807985 10.041425 10.457719-.131436 5.649734-4.82969 10.127683-10.498941 10.001778l-11.722161-.273403c-32.208933-.785033-72.004154-2.017464-119.087514-3.69098l-20.206839-.726442c-16.533435-.562871-44.099803-1.033538-72.646394-1.289637l-10.911129-.086996-5.077335-.032985c-8.450079-.050861-16.82207-.080949-24.855685-.087094l-7.848868.001872c-16.874104.02176-31.752264.161036-41.980199.450134l-3.838243.114348c-10.450064.28438-23.667309.276043-39.029068.01809l-17.865018-.342044-5.528903-.126265c-15.611972-.386715-34.815281-1.13936-111.571224-4.270964l-93.494214-3.821064c-13.954973-.564696-26.262281-1.051607-38.484064-1.519833l-7.365757-.280216c-37.874255-1.43053-73.002918-2.595363-109.002944-3.573076-5.668554-.153951-10.138592-4.858203-9.991692-10.507242.156786-5.460738 4.572937-9.805386 9.987561-9.949898zm3.521086-42.986356 729.474606 37.390547c5.660427.290135 10.014867 5.132811 9.725915 10.816419s-5.111876 10.055882-10.772303 9.765746l-729.474606-37.390547c-5.660427-.290135-10.014867-5.132811-9.725915-10.816419s5.111876-10.055882 10.772303-9.765746z"/></svg>