<svg height="960" viewBox="0 0 960 960" width="960" xmlns="http://www.w3.org/2000/svg"><path d="m481.091052 5 1.50307.01226766c49.507662.80861686 89.640805 41.48801754 89.640805 91.19953344l.00073 299.1901989.024415.018841c39.832764 28.99537 63.844585 75.366506 63.844585 125.445601 0 85.669234-69.394533 155.133558-155.013605 155.133558-85.624137 0-155.020499-69.462493-155.020499-155.133558l.008688-1.649597c.520955-49.446546 24.440856-95.119264 63.835896-123.796004l.02552-.018841-.000374-299.1901989c0-50.2160132 40.950369-91.2118011 91.150769-91.2118011zm0 40c-28.096931 0-51.150769 23.0751083-51.150769 51.2118011v312.6328659c0 5.29723-2.793866 10.201724-7.350415 12.903296-34.759956 20.60913-56.519315 57.967584-56.519315 99.118479 0 63.589924 51.498009 115.133558 115.020499 115.133558 63.516538 0 115.013605-51.544578 115.013605-115.133558 0-41.150895-21.759359-78.509349-56.519315-99.118479-4.55655-2.701572-7.350415-7.606066-7.350415-12.903296v-312.6328659c0-28.1358632-23.053011-51.2118011-51.143875-51.2118011zm23.217918 205.0833v187.81686c37.295692 10.030595 64.742169 43.989847 64.742169 84.360407 0 48.257159-39.224064 87.38682-87.613082 87.38682-48.382106 0-87.613082-39.129661-87.613082-87.38682 0-40.37056 27.453389-74.329812 64.749081-84.360407v-187.81686zm340.152092 458.834744c43.078211 0 78 34.92179 78 78v73.750154c0 .93058-.016653 1.861084-.049952 2.791068-1.541464 43.050622-37.690492 76.700444-80.741115 75.15898l-738.3674-26.437866c-34.9709194-1.252164-62.6741112-29.965044-62.6741112-64.958374v-46.587022c0-34.984102 27.6890861-63.692881 62.6503222-64.957517l738.362643-26.708443c.939487-.033984 1.879512-.05098 2.819613-.05098zm0 40c-.457998 0-.915959.00828-1.373658.024837l-89.08792 3.222119v143.288l89.101827 3.190863c20.973381.750969 38.584446-15.642534 39.335415-36.615914.016223-.453069.024336-.906391.024336-1.359751v-73.750154c0-20.98682-17.013179-38-38-38zm-130.461578 4.692956-128.009 4.631-.991063 130.374044c-.002001.263081-.009073.524938-.021122.785477l129.021185 4.619479zm-168.021 6.078-128.035 4.632-.905 119.067 127.965 4.582zm-168.046 6.079-128.035 4.632-.813 106.974 127.964 4.582zm-168.046 6.079-105.161722 3.804323c-13.4466297.486399-24.0962782 11.528237-24.0962782 24.983661v46.587022c0 13.458973 10.6550738 24.502389 24.1054272 24.98399l104.360573 3.736004z"/></svg>