<svg height="960" viewBox="0 0 960 960" width="960" xmlns="http://www.w3.org/2000/svg"><path d="m651.14165 1 1.913031.0156328c63.011471 1.03042642 114.153748 52.868167 114.153748 116.1521732l.000065 455.192194.772691.509786c58.593019 39.01702 94.221309 104.693917 94.221309 175.890963 0 116.655714-94.488508 211.239251-211.060844 211.239251-116.580098 0-211.071097-94.581044-211.071097-211.239251l.011828-2.246468c.740786-70.330295 36.233231-135.03818 94.20948-173.644494l.773633-.509787-.000876-455.192194c0-63.9262477 52.18368-116.167806 116.077032-116.167806zm0 40c-41.788836 0-76.077032 34.3198311-76.077032 76.167806v464.981877c0 7.87862-4.155343 15.173123-10.932343 19.191196-51.698818 30.652158-84.061722 86.215747-84.061722 147.41987 0 94.577907 76.593486 171.239251 171.071097 171.239251 94.46876 0 171.060844-76.662748 171.060844-171.239251 0-61.204123-32.362904-116.767712-84.061722-147.41987-6.777-4.018073-10.932343-11.312576-10.932343-19.191196v-464.981877c0-41.8467409-34.286965-76.167806-76.066779-76.167806zm-386.939547 397 .005569 1.124203c.363798 36.738065 18.543446 74.874018 52.537132 119.482737l1.04556 1.3676c1.71121 2.231068 3.347843 4.340831 5.007167 6.451353l.623501.791719c5.520335 6.998048 11.423053 14.171835 21.243465 25.957977 10.669035 12.804632 15.740738 19.017724 20.107367 24.877902l.362359.487665.359723.486834c.119539.162228.238743.324452.357718.486804l.534191.731906c.177783.24456.355404.489861.533217.736354 3.374503 4.674157 8.992842 13.186601 14.678481 22.030775l.793564 1.235871c.13226.20622.264503.412532.396699.618891l.792416 1.238368.790011 1.237392c1.576743 2.472398 3.131194 4.926258 4.616151 7.285512 16.16435 25.656299 23.81768 56.255394 23.81768 90.612804 0 93.93178-76.069897 170.087333-169.931971 170.087333-93.871426 0-169.9724734-76.159853-169.9724734-170.087333 0-33.549319 7.175711-64.391854 22.1375042-89.206928 2.1022708-3.484771 7.1164212-11.053275 12.3549812-18.740804l1.125004-1.647705c.125165-.182959.250348-.365826.375513-.548546l.750485-1.094133c3.353452-4.882487 6.641769-9.582297 9.163686-13.064888l.568057-.781596c.276907-.379524.542892-.741782.796878-1.085186.112242-.151704.224098-.302619.335679-.452881l.500612-.672234c.221991-.297222.443527-.59265.665476-.887374l.500448-.662402.172038-.226717.345692-.454012c.057824-.075769.115763-.151602.17383-.227515l.350066-.456605c3.987602-5.189246 8.706806-10.924754 18.774771-23.005651 8.66608-10.398727 14.4208-17.395902 19.693782-24.054017l.700423-.886008.695993-.883603c.462803-.588625.923506-1.176723 1.383816-1.766442l.690383-.886066c.920685-1.183761 1.84321-2.378315 2.781224-3.600869 35.028971-45.654746 53.606132-84.508003 53.606132-121.950485l.012713-.844668c.836221-27.592488 42.647287-27.310932 42.647287.844668zm421.471781-91.97763v279.341828c55.470242 14.9186 96.291652 65.426524 96.291652 125.470046 0 71.773338-58.338329 129.97126-130.307781 129.97126-71.959173 0-130.307782-58.197922-130.307782-129.97126 0-60.043522 40.83169-110.551446 96.301932-125.470046v-279.341828zm-442.809254 175.56063-.058793.120674c-10.352791 21.113548-23.866956 41.853228-41.024286 64.215105-1.741216 2.269401-3.426479 4.440926-5.131646 6.610366l-.732225.929911-.352423.446379-.708029.894477c-5.446732 6.869278-11.353646 14.049325-20.095293 24.538727-9.417332 11.300179-13.914245 16.763147-17.451091 21.342368l-.323867.420332-.305517.398415c-.354129.462892-.700591.919564-1.043724 1.375441l-.2934.390683c-.292786.390741-.584037.782037-.876484 1.177304-2.367713 3.201285-6.066844 8.479442-9.839671 13.975747l-.686501 1.001318c-.114458.16715-.228915.334396-.343334.501687l-.685787 1.003874c-4.907584 7.192389-9.616738 14.277003-11.344877 17.141603-10.581942 17.550817-16.008052 40.873246-16.008052 67.175256 0 70.374386 57.008894 127.427333 127.312473 127.427333 70.290852 0 127.271971-57.04528 127.271971-127.427333 0-26.766553-5.69255-49.526174-17.2564-67.880493-1.864112-2.961645-3.87732-6.131976-5.907951-9.301512l-.717202-1.118285c-5.500812-8.568041-11.015782-16.949818-13.936273-20.995108-.20543-.284775-.406969-.562573-.610135-.84095l-.306066-.418121c-3.94596-5.374563-8.636584-11.142974-19.519747-24.204595-9.327071-11.194049-15.257131-18.390867-20.683545-25.227196l-.662138-.835547c-.660015-.83424-1.314248-1.665301-1.968014-2.499859l-.653805-.835971-.654674-.839787c-1.092501-1.403648-2.193538-2.829377-3.327704-4.308097-17.151203-22.361672-30.66113-43.103384-41.010463-64.22007zm193.113441-231.411571c11.045695 0 20 8.954305 20 20s-8.954305 20-20 20c-12.230034 0-25.7103 7.076255-40.599816 22.708293-21.831627 22.920343-45.072504 35.120278-69.563612 35.120278-24.491109 0-47.731985-12.199935-69.563612-35.120278-14.889516-15.632038-28.369783-22.708293-40.599817-22.708293s-25.710301 7.076255-40.599817 22.708293c-21.831626 22.920343-45.072503 35.120278-69.563612 35.120278-24.4911082 0-47.7319846-12.199935-69.5636114-35.120278-7.61822-7.998131-7.3102411-20.657685.6878901-28.275905s20.6576851-7.310241 28.2759051.68789c14.889516 15.632038 28.3697825 22.708293 40.5998162 22.708293 12.230035 0 25.710301-7.076255 40.599817-22.708293 21.831627-22.920343 45.072503-35.120278 69.563612-35.120278s47.731985 12.199935 69.563612 35.120278c14.889516 15.632038 28.369782 22.708293 40.599817 22.708293 12.230034 0 25.7103-7.076255 40.599816-22.708293 21.831627-22.920343 45.072504-35.120278 69.563612-35.120278zm0-97.585715c11.045695 0 20 8.954305 20 20s-8.954305 20-20 20c-12.230034 0-25.7103 7.076256-40.599816 22.708293-21.831627 22.920344-45.072504 35.120279-69.563612 35.120279-24.491109 0-47.731985-12.199935-69.563612-35.120279-14.889516-15.632037-28.369783-22.708293-40.599817-22.708293s-25.710301 7.076256-40.599817 22.708293c-21.831626 22.920344-45.072503 35.120279-69.563612 35.120279-24.4911082 0-47.7319846-12.199935-69.5636114-35.120279-7.61822-7.998131-7.3102411-20.657685.6878901-28.275905s20.6576851-7.310241 28.2759051.687891c14.889516 15.632037 28.3697825 22.708293 40.5998162 22.708293 12.230035 0 25.710301-7.076256 40.599817-22.708293 21.831627-22.920344 45.072503-35.120279 69.563612-35.120279s47.731985 12.199935 69.563612 35.120279c14.889516 15.632037 28.369782 22.708293 40.599817 22.708293 12.230034 0 25.7103-7.076256 40.599816-22.708293 21.831627-22.920344 45.072504-35.120279 69.563612-35.120279zm0-97.585714c11.045695 0 20 8.954305 20 20s-8.954305 20-20 20c-12.230034 0-25.7103 7.076255-40.599816 22.708293-21.831627 22.920343-45.072504 35.120278-69.563612 35.120278-24.491109 0-47.731985-12.199935-69.563612-35.120278-14.889516-15.632038-28.369783-22.708293-40.599817-22.708293s-25.710301 7.076255-40.599817 22.708293c-21.831626 22.920343-45.072503 35.120278-69.563612 35.120278-24.4911082 0-47.7319846-12.199935-69.5636114-35.120278-7.61822-7.998131-7.3102411-20.657685.6878901-28.275905s20.6576851-7.310241 28.2759051.68789c14.889516 15.632038 28.3697825 22.708293 40.5998162 22.708293 12.230035 0 25.710301-7.076255 40.599817-22.708293 21.831627-22.920343 45.072503-35.120278 69.563612-35.120278s47.731985 12.199935 69.563612 35.120278c14.889516 15.632038 28.369782 22.708293 40.599817 22.708293 12.230034 0 25.7103-7.076255 40.599816-22.708293 21.831627-22.920343 45.072504-35.120278 69.563612-35.120278z"/></svg>