<svg height="960" viewBox="0 0 960 960" width="960" xmlns="http://www.w3.org/2000/svg"><path d="m480.14165 1 1.913031.0156328c63.011471 1.03042642 114.153748 52.868167 114.153748 116.1521732l.000065 455.192194.772691.509786c58.593019 39.01702 94.221309 104.693917 94.221309 175.890963 0 116.655714-94.488508 211.239251-211.060844 211.239251-116.580098 0-211.071097-94.581044-211.071097-211.239251l.011828-2.246468c.740786-70.330295 36.233231-135.03818 94.20948-173.644494l.773633-.509787-.000876-455.192194c0-63.9262477 52.18368-116.167806 116.077032-116.167806zm0 40c-41.788836 0-76.077032 34.3198311-76.077032 76.167806v464.981877c0 7.87862-4.155343 15.173123-10.932343 19.191196-51.698818 30.652158-84.061722 86.215747-84.061722 147.41987 0 94.577907 76.593486 171.239251 171.071097 171.239251 94.46876 0 171.060844-76.662748 171.060844-171.239251 0-61.204123-32.362904-116.767712-84.061722-147.41987-6.777-4.018073-10.932343-11.312576-10.932343-19.191196v-464.981877c0-41.8467409-34.286965-76.167806-76.066779-76.167806zm34.532234 305.02237v279.341828c55.470242 14.9186 96.291652 65.426524 96.291652 125.470046 0 71.773338-58.338329 129.97126-130.307781 129.97126-71.959173 0-130.307782-58.197922-130.307782-129.97126 0-60.043522 40.83169-110.551446 96.301932-125.470046v-279.341828zm180.090053-261.7262225c3.424166 0 6.2 2.7758346 6.2 6.2l-.00027 71.1880005h81.420001l.000039-71.1880005c0-3.3480729 2.653835-6.0763094 5.972707-6.195911l.227293-.004089h18.56327c3.424166 0 6.2 2.7758346 6.2 6.2v184.5038525c0 3.424165-2.775834 6.2-6.2 6.2h-18.56327c-3.424165 0-6.2-2.775835-6.2-6.2l-.000039-82.853852h-81.420001l.00027 82.853852c0 3.348073-2.653834 6.076309-5.972706 6.195911l-.227294.004089h-18.56327c-3.424165 0-6.2-2.775835-6.2-6.2v-184.5038525c0-3.4241654 2.775835-6.2 6.2-6.2zm172.964523 0c3.424165 0 6.2 2.7758346 6.2 6.2v184.5038525c0 3.424165-2.775835 6.2-6.2 6.2h-18.437843c-3.424165 0-6.2-2.775835-6.2-6.2v-184.5038525c0-3.4241654 2.775835-6.2 6.2-6.2z"/></svg>