<svg height="960" viewBox="0 0 960 960" width="960" xmlns="http://www.w3.org/2000/svg"><path d="m458.722771 28.155332-.012713.844668c0 42.8367738-11.659113 87.095372-33.774223 133.348083-10.504775 21.970241-23.112993 43.957331-38.000802 66.628023l-1.872862 2.837445c-.94238 1.420551-1.893693 2.843881-2.853983 4.270153l-1.932561 2.856513c-9.722772 14.302661-20.346044 28.910336-31.912821 43.985807-.949191 1.237122-1.890254 2.459683-2.826677 3.672082l-2.798838 3.611113-2.922982 3.743783-1.970952 2.508351-3.097809 3.916672-3.619021 4.537521-3.266218 4.062755-2.405882 2.97492-4.003398 4.921227-4.228691 5.164929-5.66496 6.877406-7.459357 9.003623-20.292462 24.396578-6.893592 8.345441-4.496135 5.489218-3.946004 4.868617-1.12059 1.394654-1.934593 2.423568-1.19021 1.502416-1.150874 1.462073-1.663806 2.131583-1.656882 2.145668-1.431998 1.874092-.847968 1.118544-.843074 1.118541c-.56106.746497-1.120783 1.495408-1.68302 2.251565l-1.145985 1.546841-1.255042 1.711076-1.685091 2.322103-1.806219 2.513985-1.918691 2.693287-3.282235 4.650814-2.170599 3.100609-3.173491 4.563192-3.791504 5.492453-1.951088 2.841883-2.904249 4.248627-3.981011 5.858798-3.075241 4.554737-2.946731 4.390518-3.85318 5.786405-2.328478 3.527685-3.267251 5.00501-1.306792 2.027432-1.621246 2.546954-1.180973 1.889582-.826233 1.351539c-27.452224 45.53124-40.790668 102.862343-40.790668 165.681062 0 174.276858 141.19648 315.582444 315.355243 315.582444 174.138614 0 315.275127-141.295435 315.275127-315.582444 0-64.249172-14.179934-120.942552-43.901893-168.117693l-4.05006-6.404228-2.71997-4.278502-2.73086-4.281029-2.747243-4.292173-2.748123-4.278383-2.733502-4.23966-2.703376-4.176005-2.358831-3.628644-2.837149-4.343344-3.448167-5.242581-2.828249-4.26355-1.908528-2.854072-2.163747-3.20815-2.02198-2.96524-1.267249-1.838492-1.491146-2.13892-1.385742-1.958334-.779888-1.08667-.850363-1.17495-.567991-.780417c-.758294-1.039523-1.521121-2.075726-2.296108-3.118323l-2.353945-3.136717-1.835828-2.406675-1.920182-2.483907-2.321942-2.964078-2.484826-3.13206-3.025125-3.768919-4.084026-5.031019-4.577987-5.585436-5.145024-6.232894-8.646116-10.413072-15.081032-18.133079-6.810067-8.235119-3.854939-4.684696-4.949261-6.048465-4.206979-5.179824-3.990257-4.953693-1.932518-2.415474-3.029016-3.809545-1.266036-1.601178c-.988649-1.252456-1.971047-2.501923-2.952221-3.754707l-2.355039-3.016284-1.239713-1.59518-2.497237-3.22814-2.535878-3.29721-2.299922-3.008825c-21.348831-28.025123-39.421812-54.460014-54.498087-80.36292l-1.603861-2.773324c-6.63508-11.547437-12.674909-22.996382-18.144321-34.440991l-.660102-1.387215c-21.460832-45.296237-32.871648-88.6870441-33.09998-130.7115129l-.003495-1.2860371c0-28.1556-41.811066-28.437156-42.647287-.844668zm21.308229 113.378668.275487.749579c4.712866 12.759725 10.16804 25.588011 16.336741 38.495865 12.973562 27.146854 28.738471 54.029671 47.575311 81.781739l2.067128 3.031001c1.732784 2.528798 3.49104 5.065121 5.274979 7.60982l2.153069 3.057714c1.082711 1.530921 2.174699 3.064981 3.276009 4.602362l2.215061 3.079246c4.455036 6.167569 9.059705 12.39025 13.816922 18.679812l2.391335 3.150409c.801358 1.052031 1.606967 2.105974 2.41684 3.161884l2.179383 2.835068 2.148033 2.781055 2.12721 2.740269 1.814729 2.326365.906599 1.158192 1.361272 1.733978c.908583 1.155313 1.819922 2.31006 2.737746 3.468927l4.099042 5.149128 4.528901 5.631945 3.012174 3.71679 4.063023 4.98266 6.848712 8.33633 6.498894 7.859182 7.1959 8.664768 11.892725 14.28885 6.858992 8.277617 2.375812 2.880351 3.945082 4.805351 2.41229 2.956677 3.325868 4.107925 2.369985 2.956576 2.203995 2.777993 2.343366 2.991411 2.187153 2.835038 1.55729 2.048324 1.501228 2.000726 1.218036 1.643391.528109.718288.916175 1.254432 1.132583 1.565344.93985 1.317528 1.275616 1.815546 1.384387 1.997807 1.799964 2.630243 1.945617 2.875353 2.810379 4.198731 3.044482 4.595232 2.8448 4.328451 2.711607 4.151382 1.008211 1.549154 2.637545 4.065562 2.677714 4.14496 2.701901 4.198704 2.710109 4.226795 2.702336 4.229231 5.222311 8.214262 2.777554 4.396851c25.121459 39.873161 37.340613 88.727066 37.340613 145.385382 0 150.737282-122.047734 272.922444-272.615127 272.922444-150.590916 0-272.695243-122.19868-272.695243-272.922444 0-55.015696 11.358225-104.385611 33.972491-142.497922l.934304-1.556209 1.018338-1.643814 1.854891-2.918537 2.527159-3.899328 2.968976-4.518215 3.340519-5.031032 2.960405-4.42362 4.194401-6.221302 3.651126-5.375945 1.487294-2.179791 2.640198-3.855078 3.636877-5.278983 3.895836-5.609975 2.855204-4.076913 2.675619-3.78803 2.132071-2.990462 1.651314-2.294428 1.817863-2.49711 1.360576-1.843098.783058-1.051924 1.570575-2.092178 1.924002-2.529756 2.170592-2.811059 1.77901-2.272952 2.72846-3.440133 3.008639-3.742589 4.074314-5.008194 5.539032-6.738638 6.559813-7.922013 19.77631-23.773159 4.351035-5.252583 6.35076-7.702247 4.296699-5.243029 4.565461-5.607914 3.863984-4.782523 2.803216-3.493729 4.092977-5.141941 2.234126-2.82851 1.349663-1.716468 1.794141-2.290849 2.2413-2.876376 2.023684-2.610785 2.265112-2.937152c.379508-.493384.760154-.988877 1.142147-1.486745l2.417716-3.161924c.801648-1.052042 1.599043-2.102169 2.392198-3.150435l2.36676-3.139272 2.341403-3.128438 2.316128-3.117929c28.793963-38.909805 51.682995-75.433472 69.380151-112.44624 6.170985-12.906325 11.628185-25.732847 16.342806-38.490578z"/></svg>