<svg height="960" viewBox="0 0 960 960" width="960" xmlns="http://www.w3.org/2000/svg"><g fill="#000" fill-rule="nonzero"><path d="m468.75683 93.6688c153.051221 0 284.781568 104.205646 322.098115 249.612065l.457055 1.837135.283397.107899c73.127529 28.107927 128.703551 90.619073 147.578816 167.211997l.589919 2.449211c2.698346 11.467713-4.41063 22.951574-15.878343 25.649921-11.351878 2.67109-22.719578-4.268015-25.565472-15.532176l-.084449-.346167c-15.668497-66.589603-65.079975-120.621677-129.696551-142.404964l-1.962713-.650209c-7.117455-2.316481-12.49029-8.189585-14.177358-15.461965l-.086841-.390918c-28.214339-132.862185-146.021518-229.419429-283.555575-229.419429-136.71772 0-253.887032 95.388281-283.02861 226.889862l-.856063 3.995889c-1.489801 7.200878-6.580322 13.116901-13.45538 15.672395l-.376762.136046c-78.8464944 27.63984-132.708815 102.321722-132.708815 187.256092 0 106.078793 83.383314 193.094138 188.649294 198.147081l3.196512.127967c.474587.015224.945143.045866 1.411194.091438l.1978.02003 34.668535.0008c11.663087 0 21.139971 9.360253 21.328342 20.97845l.002858.35275c0 11.663087-9.360253 21.139971-20.97845 21.3312h-.35275-36.961443c-.848224 0-1.684885-.049509-2.507251-.145794l-.660841-.088406-1.400951-.055525c-126.6504548-6.078764-227.20581588-109.740578-229.22431512-236.861292l-.03093388-3.898699c0-99.066689 60.3077568-186.648047 149.907562-223.214207l.132638-.053277.51761-2.120794c36.352139-144.683634 166.138793-249.0543895 317.784264-251.1909867z"/><g stroke="#000"><path d="m462.511888 593.25533c18.305461 0 34.821777 3.658132 49.567734 10.897863 16.823503 8.259732 30.201442 20.280214 40.149858 36.042547l-24.683872 18.938488-4.539844-5.854637c-7.267856-9.279435-15.937613-16.3548-26.033062-21.196112-10.380687-4.978099-21.788105-7.441162-34.209959-7.441162-13.549152 0-26.100922 3.242992-37.650002 9.748974-11.471159 6.462086-20.378352 15.127556-26.689444 26.028532-6.331036 10.935426-9.459582 23.239882-9.459582 36.892674 0 20.592116 7.016875 37.804069 21.150311 51.592787 14.209754 13.863174 32.162306 20.701111 53.777564 20.701111 25.829018 0 47.058878-10.996692 63.740901-32.876082l25.016577 18.978093-4.75498 5.994644c-9.742458 12.170195-21.823852 21.616564-36.253664 28.327085-14.585721 6.783025-30.872638 10.210683-48.877681 10.210683-34.439054-.000001-61.506531-11.617008-81.370335-34.509373-16.676381-19.351677-25.069955-42.679694-25.069955-70.049505 0-28.889604 10.152042-53.182044 30.405481-72.898968 20.164541-19.630381 45.402637-29.527642 75.783954-29.527642zm205.7011 0c29.795835 0 54.699174 10.000137 74.759996 29.88264 20.094915 19.916294 30.175164 44.422825 30.175164 73.54739 0 28.845561-10.040885 53.30584-30.086381 73.395981-20.049497 20.09415-44.492285 30.159476-73.343649 30.159477-29.19145-.000001-53.813002-10.028237-73.89248-30.018473-20.108577-20.019206-30.164688-44.238365-30.164688-72.658993 0-18.898239 4.576892-36.41179 13.713265-52.545289 9.165335-16.184639 21.666872-28.853263 37.492565-38.017859 15.819458-9.160986 32.93425-13.744874 51.346208-13.744874zm.877992 31.26156c-12.465035 0-24.274131 3.266524-35.436408 9.76511-11.17405 6.50544-19.906211 15.262653-26.182859 26.28506-6.300511 11.064312-9.420355 23.401967-9.420355 36.996292 0 20.053322 6.922027 37.001399 20.819086 50.82189 13.889565 13.813039 30.629776 20.719443 50.220536 20.719443 13.119107 0 25.263327-3.174727 36.427531-9.54331 11.107186-6.336059 19.776355-14.996423 25.998459-25.990078 6.262924-11.065781 9.366198-23.366206 9.366198-36.885937 0-13.412935-3.092119-25.553532-9.34152-36.403719-6.236587-10.827939-15.031482-19.477688-26.353436-25.980162-11.342655-6.514362-23.37278-9.784589-36.097232-9.784589z" stroke-width="13.2"/><path d="m862.159382 691.6c15.101177 0 27.259665 4.971196 36.575085 14.694862 9.333766 9.742815 13.984066 21.237779 13.984066 34.471716 0 9.211327-2.211096 17.851421-6.632501 25.920484-4.118314 7.515924-12.069511 17.724973-23.95105 30.568022l-28.001546 30.220248h60.574487v24.924668h-117.128821l64.306663-69.455773c10.948858-11.716693 18.120537-20.376482 21.418678-26.044163 2.915126-5.009488 4.389952-10.284815 4.389952-15.835077 0-6.730213-2.542817-12.505496-7.555854-17.355948-5.11164-4.945857-11.379739-7.38331-18.774915-7.38331-7.799038 0-14.314466 2.548014-19.497052 7.758314-6.283348 6.316949-9.177558 15.69537-9.233055 27.851766h-24.569734c-.767545-18.513873 4.642442-33.420188 16.003154-44.821619 10.283301-10.320159 22.971181-15.51419 38.092443-15.51419z" stroke-width="10.8"/></g></g></svg>