<svg height="960" viewBox="0 0 960 960" width="960" xmlns="http://www.w3.org/2000/svg"><g fill="#000" fill-rule="nonzero"><path d="m468.761237 92.6688c153.054503 0 284.786184 104.290328 322.101851 249.802083l.459912 1.847117.282229.10763c73.124629 28.123243 128.705634 90.68943 147.570678 167.333915l.589587 2.450856c2.695146 11.468466-4.417034 22.950342-15.8855 25.645488-11.352623 2.667923-22.718386-4.274355-25.561137-15.53931l-.084351-.34619c-15.819821-67.316972-66.083931-121.819912-131.653512-143.171191-7.117153-2.317543-12.48914-8.191488-14.175106-15.464167l-.086783-.390934c-28.216933-132.974437-146.028607-229.612897-283.557868-229.612897-136.716764 0-253.887471 95.463625-283.030831 227.080831l-.856117 3.999405c-1.488526 7.200581-6.577456 13.117123-13.451407 15.674033l-.376702.136124c-78.8510723 27.662255-132.71498 102.400287-132.71498 187.415908 0 106.170061 83.385945 193.248959 188.651883 198.305662l3.196511.128063c.474578.015235.945125.045888 1.411167.091469l.282239.029305 34.583969.000381c11.663087 0 21.139971 9.360252 21.328342 20.978449l.002858.352751c0 11.663087-9.360253 21.13997-20.97845 21.3312h-.35275-36.961803c-1.060281 0-2.102494-.077358-3.121303-.226737l-.122863-.019044-1.325563-.052984c-126.655966-6.083318-227.20728732-109.81313-229.22570438-237.017257l-.03093262-3.901258c0-99.137367 60.3017126-186.77357 149.90392-223.36739l.13428-.054111.520174-2.131883c36.350326-144.792862 166.135806-249.2436366 317.787898-251.381872z"/><g stroke="#000" stroke-width="10.8"><path d="m412.570923 515.881022c12.663184 0 24.504636 3.134913 35.524112 9.405665 11.610247 6.606936 24.05013 19.135715 37.122325 37.832253l-28.759206 21.809065-3.738933-4.938748c-8.569814-11.281486-15.810227-18.849571-21.89123-22.487778-5.739516-3.433898-11.995041-5.145865-18.763803-5.145865-8.46854 0-15.449168 2.467321-20.845632 7.625003-5.256766 5.024166-7.874549 11.214373-7.874549 18.561502 0 4.651415.97509 9.155762 2.912818 13.515648 2.038027 4.585561 5.819353 9.532698 11.211801 14.924233 3.284134 3.143671 13.793641 11.231957 31.48457 24.307862 22.197453 16.386602 37.338228 31.036604 45.584731 43.812876 8.622362 13.358589 12.855742 26.791826 12.855742 40.25793 0 19.488553-7.350067 36.447341-22.160609 50.831241-14.71311 14.289276-32.598411 21.457827-53.675607 21.457827-16.180986 0-30.84744-4.329486-44.007405-12.96194-13.845082-9.081866-26.643336-24.65793-38.164465-46.962033l30.33044-18.198264 3.13954 5.741792c6.964152 12.651501 14.407837 22.195273 22.445924 28.526836 7.467506 5.882119 15.414808 8.899223 23.891201 8.899223 7.434147 0 14.416821-1.731166 20.947089-5.197231 6.373677-3.382952 11.257845-7.892064 14.595347-13.585451 3.325415-5.672766 5.00157-11.685465 5.00157-18.045265 0-7.29195-2.545026-14.402805-7.460958-21.383429-7.548372-10.720876-21.391236-23.570601-41.405369-38.663229-21.368691-16.142652-34.571588-27.890703-39.796404-35.087502-9.498346-12.690824-14.204548-26.425879-14.204548-41.177654 0-11.807632 2.847271-22.563015 8.503395-32.276793 5.675048-9.746277 13.652601-17.439139 23.956812-23.054008 10.19522-5.55548 21.273834-8.343766 33.241301-8.343766zm240.361476 0c39.138826 0 71.86619 13.109434 98.222983 39.231944 26.384687 26.150157 39.60386 58.331895 39.60386 96.567957 0 37.875207-13.175918 69.997006-39.498075 96.377788-26.325431 26.384062-58.421871 39.591025-96.301826 39.591025-38.334978 0-70.677114-13.154521-97.049171-39.409369-26.395865-26.278551-39.595289-58.070491-39.595289-95.377061 0-24.831082 6.009613-47.844248 18.014596-69.043291 12.028678-21.240885 28.43316-37.870461 49.203591-49.898535 20.765329-12.02512 43.231273-18.040458 67.399331-18.040458zm1.182383 35.123298c-17.402102 0-33.891885 4.550807-49.476815 13.624225-15.594563 9.079026-27.777043 21.3041-36.536298 36.686205-8.778777 15.416391-13.143285 32.603789-13.143285 51.548556 0 27.985792 9.673979 51.630071 29.065304 70.914556 19.385194 19.278389 42.748918 28.917488 70.091094 28.917488 18.290794 0 35.220494-4.431507 50.784903-13.310174 15.517759-8.852055 27.626605-20.953697 36.319135-36.312277 8.725929-15.417593 13.06583-32.552435 13.06583-51.391976 0-18.70797-4.330775-35.634705-13.045639-50.76542-8.70438-15.112513-20.971333-27.194422-36.775293-36.271021-15.820897-9.086326-32.602006-13.640162-50.348936-13.640162z"/><path d="m874.649301 670.0861c17.031911 0 30.752582 5.594167 41.261634 16.563775 10.527397 10.988757 15.774513 23.953172 15.774513 38.880069 0 10.400202-2.496426 20.155462-7.488491 29.265981-4.688975 8.557379-13.748204 20.176435-27.275148 34.798042l-33.223089 35.85552h70.261448v26.950513h-131.381066l72.323155-78.114155.590841-.63318c12.242972-13.138732 20.275518-22.879523 24.003424-29.285731 3.404943-5.851213 5.124677-12.013442 5.124677-18.495782 0-7.909578-2.982702-14.700161-8.875507-20.401848-5.991408-5.797092-13.336628-8.660163-22.006279-8.660163-9.14009 0-16.770685 2.995032-22.842549 9.099366-7.175917 7.21429-10.594806 17.842728-10.775431 31.618125h-26.779337l.203507-6.324242c.649278-17.687558 6.731843-32.199456 18.096442-43.604788 11.610086-11.6517 25.936237-17.511502 43.007256-17.511502z"/></g></g></svg>