<svg height="960" viewBox="0 0 960 960" width="960" xmlns="http://www.w3.org/2000/svg"><g fill="none" fill-rule="evenodd"><path d="m468.75683 93.6688c153.051221 0 284.781568 104.205646 322.098115 249.612065l.457055 1.837135.283397.107899c73.127529 28.107927 128.703551 90.619073 147.578816 167.211997l.589919 2.449211c2.698346 11.467713-4.41063 22.951574-15.878343 25.649921-11.351878 2.67109-22.719578-4.268015-25.565472-15.532176l-.084449-.346167c-15.668497-66.589603-65.079975-120.621677-129.696551-142.404964l-1.962713-.650209c-7.117455-2.316481-12.49029-8.189585-14.177358-15.461965l-.086841-.390918c-28.214339-132.862185-146.021518-229.419429-283.555575-229.419429-136.71772 0-253.887032 95.388281-283.02861 226.889862l-.856063 3.995889c-1.489801 7.200878-6.580322 13.116901-13.45538 15.672395l-.376762.136046c-78.8464944 27.63984-132.708815 102.321722-132.708815 187.256092 0 106.078793 83.383314 193.094138 188.649294 198.147081l3.196512.127967c.474587.015224.945143.045866 1.411194.091438l.1978.02003 34.668535.0008c11.663087 0 21.139971 9.360253 21.328342 20.97845l.002858.35275c0 11.663087-9.360253 21.139971-20.97845 21.3312h-.35275-36.961443c-.848224 0-1.684885-.049509-2.507251-.145794l-.660841-.088406-1.400951-.055525c-126.6504548-6.078764-227.20581588-109.740578-229.22431512-236.861292l-.03093388-3.898699c0-99.066689 60.3077568-186.648047 149.907562-223.214207l.132638-.053277.51761-2.120794c36.352139-144.683634 166.138793-249.0543895 317.784264-251.1909867z" fill="#000" fill-rule="nonzero"/><g stroke="#fff" stroke-linejoin="round" stroke-width="18.788" transform="translate(338 601)"><path d="m79.2048569 189.350413h4.0249772l80.3322029-184.70611185h-20.080849l-62.1977871 142.69421485-61.202552-142.69421485h-20.0808489z"/><path d="m234.400754 12.8704931c-14.831644 8.5891382-26.527858 20.4465535-35.106256 35.5986741-8.587205 15.1521206-12.876404 31.599219-12.876404 49.3501044 0 26.6131144 9.4151 49.2972484 28.262914 68.0524024 18.8302 18.746344 41.949598 28.128326 69.340581 28.128326 27.038686 0 49.97313-9.426029 68.768099-28.251657 18.79497-18.834439 28.201263-41.774045 28.201263-68.8100086 0-27.2914358-9.423907-50.2662792-28.262914-68.9333394-18.839007-18.66706021-42.249049-28.004995-70.221319-28.004995-17.24487 0-33.283127 4.29016438-48.105964 12.8704931zm88.408579 15.7687767c12.400805 7.1267823 22.018475 16.6144765 28.844202 28.4630824 6.843342 11.8486059 10.260609 25.1155208 10.260609 39.7743166 0 14.7468892-3.417267 28.1459452-10.260609 40.2147852-6.825727 12.060031-16.337708 21.565344-28.535943 28.524748-12.198235 6.950595-25.453357 10.421488-39.791787 10.421488-21.463609 0-39.800595-7.558442-55.010957-22.684134-15.210363-15.116884-22.819947-33.651803-22.819947-55.59595 0-14.8349832 3.434882-28.2780855 10.313453-40.3381164 6.869764-12.0600309 16.425782-21.6534375 28.668054-28.7802198 12.233465-7.1267823 25.189135-10.6769594 38.849397-10.6769594 13.915676 0 27.073916 3.5501771 39.483528 10.6769594z"/><path d="m555.85375 10.2382527c-13.889254-6.81845432-29.460719-10.23649083-46.696781-10.23649083-28.535944 0-52.280667 9.23222233-71.242977 27.68785763-18.953503 18.4556352-28.430254 41.2014349-28.430254 68.2462083 0 25.6969392 7.829769 47.6322772 23.471694 65.7883932 18.662859 21.521297 44.151445 32.268732 76.456951 32.268732 16.980648 0 32.35835-3.197803 46.133108-9.602216 13.757143-6.404414 25.250787-15.460449 34.454509-27.176914l-14.558615-11.055763c-17.41221 20.261557-39.04316 30.383526-64.910464 30.383526-23.506923 0-42.988869-7.532014-58.428224-22.60485-15.439354-15.055218-23.163435-33.854418-23.163435-56.3711743 0-14.8966488 3.452497-28.313323 10.35749-40.2412133 6.904994-11.9278903 16.628352-21.4332032 29.18769-28.5071293 12.550531-7.0651167 26.193178-10.6064844 40.927941-10.6064844 13.466499 0 25.832074 2.7044774 37.087919 8.0958133 11.255844 5.4089547 20.908743 13.3373899 28.941083 23.794115l14.558615-11.1702843c-8.869042-12.3066933-20.256997-21.8736718-34.14625-28.692126z"/></g><g fill="#000"><path d="m619.740945 593.25533c29.795836 0 54.699175 10.000137 74.759997 29.88264 20.094915 19.916294 30.175163 44.422825 30.175163 73.54739 0 28.845561-10.040885 53.30584-30.086381 73.395981-20.049497 20.09415-44.492284 30.159476-73.343649 30.159477-29.191449-.000001-53.813001-10.028237-73.892479-30.018473-20.108577-20.019206-30.164688-44.238365-30.164688-72.658993 0-18.898239 4.576891-36.41179 13.713265-52.545289 9.165334-16.184639 21.666871-28.853263 37.492564-38.017859 15.819458-9.160986 32.934251-13.744874 51.346208-13.744874zm.877993 31.26156c-12.465036 0-24.274131 3.266524-35.436409 9.76511-11.17405 6.50544-19.90621 15.262653-26.182859 26.28506-6.300511 11.064312-9.420355 23.401967-9.420355 36.996292 0 20.053322 6.922027 37.001399 20.819086 50.82189 13.889566 13.813039 30.629776 20.719443 50.220537 20.719443 13.119107 0 25.263327-3.174727 36.42753-9.54331 11.107187-6.336059 19.776356-14.996423 25.998459-25.990078 6.262925-11.065781 9.366198-23.366206 9.366198-36.885937 0-13.412935-3.092119-25.553532-9.34152-36.403719-6.236587-10.827939-15.031481-19.477688-26.353435-25.980162-11.342655-6.514362-23.37278-9.784589-36.097232-9.784589zm225.518645-31.26156c18.305461 0 34.821777 3.658132 49.567734 10.897863 16.823503 8.259732 30.201442 20.280214 40.149858 36.042547l-24.683872 18.938488-4.539844-5.854637c-7.267856-9.279435-15.937613-16.3548-26.033062-21.196112-10.380687-4.978099-21.788105-7.441162-34.209959-7.441162-13.549152 0-26.100922 3.242992-37.650002 9.748974-11.471159 6.462086-20.378352 15.127556-26.689444 26.028532-6.331036 10.935426-9.459582 23.239882-9.459582 36.892674 0 20.592116 7.016875 37.804069 21.150311 51.592787 14.209754 13.863174 32.162306 20.701111 53.777564 20.701111 25.829018 0 47.058878-10.996692 63.740901-32.876082l25.016577 18.978093-4.75498 5.994644c-9.742458 12.170195-21.823852 21.616564-36.253664 28.327085-14.585721 6.783025-30.872638 10.210683-48.877681 10.210683-34.439054 0-61.506531-11.617008-81.370335-34.509373-16.676381-19.351677-25.069955-42.679694-25.069955-70.049505 0-28.889604 10.152042-53.182044 30.405481-72.898968 20.164541-19.630381 45.402637-29.527642 75.783954-29.527642zm-484.312521 4.640817 56.78564 132.577562 57.835066-132.577562h34.459034l-86.016632 197.703853h-12.690236l-84.807023-197.703853z" fill-rule="nonzero" stroke="#000" stroke-width="13.2"/><g transform="translate(266 265)"><path d="m221.673081 137.999559c0 9.489719-7.684375 17.180271-17.166472 17.180271-9.482096 0-17.166471-7.690552-17.166471-17.180271s7.684375-17.189091 17.166471-17.189091c9.482097 0 17.166472 7.699372 17.166472 17.189091"/><path d="m221.673081 258.810909c0 9.489719-7.684375 17.189091-17.166472 17.189091-9.482096 0-17.166471-7.699372-17.166471-17.189091 0-9.489718 7.684375-17.180271 17.166471-17.180271 9.482097 0 17.166472 7.690553 17.166472 17.180271"/><path d="m221.673081 17.1802713c0 9.4897186-7.684375 17.1802713-17.166472 17.1802713-9.482096 0-17.166471-7.6905527-17.166471-17.1802713 0-9.48971865 7.684375-17.1802713 17.166471-17.1802713 9.482097 0 17.166472 7.69055265 17.166472 17.1802713"/><path d="m128.007418 198.410085c0 9.489718-7.684375 17.180271-17.166471 17.180271-9.482097 0-17.1752844-7.690553-17.1752844-17.180271 0-9.498538 7.6931874-17.189091 17.1752844-17.189091 9.482096 0 17.166471 7.690553 17.166471 17.189091"/><path d="m128.007418 77.5899152c0 9.4897186-7.684375 17.1802713-17.166471 17.1802713-9.482097 0-17.1752844-7.6905527-17.1752844-17.1802713 0-9.4897187 7.6931874-17.1890908 17.1752844-17.1890908 9.482096 0 17.166471 7.6993721 17.166471 17.1890908"/><path d="m34.3417557 137.999559c0 9.489719-7.6843754 17.180271-17.1664717 17.180271-9.48209623 0-17.175284-7.690552-17.175284-17.180271s7.69318777-17.189091 17.175284-17.189091c9.4820963 0 17.1664717 7.699372 17.1664717 17.189091"/><path d="m281.001394 198.410085c0 9.489718 7.684375 17.180271 17.166472 17.180271 9.482096 0 17.166471-7.690553 17.166471-17.180271 0-9.498538-7.684375-17.189091-17.166471-17.189091-9.482097 0-17.166472 7.690553-17.166472 17.189091"/><path d="m281.001394 77.5899152c0 9.4897186 7.684375 17.1802713 17.166472 17.1802713 9.482096 0 17.166471-7.6905527 17.166471-17.1802713 0-9.4897187-7.684375-17.1890908-17.166471-17.1890908-9.482097 0-17.166472 7.6993721-17.166472 17.1890908"/><path d="m374.667057 137.999559c0 9.489719 7.684375 17.180271 17.166471 17.180271 9.482097 0 17.166472-7.690552 17.166472-17.180271s-7.684375-17.189091-17.166472-17.189091c-9.482096 0-17.166471 7.699372-17.166471 17.189091"/></g><path d="m288.87137 597.727303v24.795293h-28.798154v116.597404h-25.409887l-.000001-116.597404h-28.885953v-24.795293z" fill-rule="nonzero" stroke="#000" stroke-width="12.24"/></g></g></svg>