<svg height="960" viewBox="0 0 960 960" width="960" xmlns="http://www.w3.org/2000/svg"><g fill="#000" fill-rule="nonzero"><path d="m468.75683 93.6688c153.051221 0 284.781568 104.205646 322.098115 249.612065l.457055 1.837135.283397.107899c73.127529 28.107927 128.703551 90.619073 147.578816 167.211997l.589919 2.449211c2.698346 11.467713-4.41063 22.951574-15.878343 25.649921-11.351878 2.67109-22.719578-4.268015-25.565472-15.532176l-.084449-.346167c-15.668497-66.589603-65.079975-120.621677-129.696551-142.404964l-1.962713-.650209c-7.117455-2.316481-12.49029-8.189585-14.177358-15.461965l-.086841-.390918c-28.214339-132.862185-146.021518-229.419429-283.555575-229.419429-136.71772 0-253.887032 95.388281-283.02861 226.889862l-.856063 3.995889c-1.489801 7.200878-6.580322 13.116901-13.45538 15.672395l-.376762.136046c-78.8464944 27.63984-132.708815 102.321722-132.708815 187.256092 0 106.078793 83.383314 193.094138 188.649294 198.147081l3.196512.127967c.474587.015224.945143.045866 1.411194.091438l.1978.02003 34.668535.0008c11.663087 0 21.139971 9.360253 21.328342 20.97845l.002858.35275c0 11.663087-9.360253 21.139971-20.97845 21.3312h-.35275-36.961443c-.848224 0-1.684885-.049509-2.507251-.145794l-.660841-.088406-1.400951-.055525c-126.6504548-6.078764-227.20581588-109.740578-229.22431512-236.861292l-.03093388-3.898699c0-99.066689 60.3077568-186.648047 149.907562-223.214207l.132638-.053277.51761-2.120794c36.352139-144.683634 166.138793-249.0543895 317.784264-251.1909867z"/><g stroke="#000"><path d="m771.782276 670.0861c9.621666 0 18.592568 2.203243 26.916349 6.595188 8.453907 4.460604 14.97281 10.492386 19.600532 18.049583 4.683271 7.647911 6.993451 15.645227 6.993451 23.974912 0 13.406496-5.347073 24.626116-16.327847 33.509035 5.161872 3.146683 9.624923 7.027505 13.396403 11.630931 8.115821 9.891157 12.14406 20.972778 12.14406 33.224144 0 10.423085-2.733271 20.373314-8.238445 29.840545-5.514246 9.482833-13.036844 16.810364-22.560644 21.989975-9.412869 5.119279-19.935301 7.707819-31.582651 7.707819-15.840036 0-29.009057-4.649599-39.580507-13.764353-11.691314-10.080307-19.046692-25.343703-21.646638-46.055866h26.807244l1.256172 4.657833c2.528811 9.235698 5.957843 16.072055 10.62097 20.275257 5.957287 5.290204 13.578297 7.82288 22.770231 7.82288 10.512395 0 19.032478-3.023602 25.431613-9.356766 6.251827-6.187376 9.430934-13.423896 9.430934-21.752492 0-5.480084-1.562111-10.603047-4.650686-15.379194-3.116895-4.819941-7.295989-8.44846-12.533129-10.890317-6.534799-3.0469-17.185004-4.611712-31.836404-5.057411v-25.903972l6.140095-.037325c6.58825-.082156 12.612831-1.26653 18.063776-3.597958 5.166257-2.209664 9.020004-4.927769 11.367115-8.370199 2.209647-3.240814 3.326728-6.77376 3.326728-10.606302 0-5.765939-2.369603-10.708588-6.946178-14.896304-4.839741-4.42852-10.987576-6.545394-18.362544-6.545394-5.912782 0-11.040089 1.615393-15.343852 4.952369-5.22466 4.051005-9.343183 11.433471-12.799292 21.775593h-27.659413l1.691525-7.35761c3.454558-14.736313 10.01106-26.028645 19.462467-34.013454 9.779157-8.261702 21.321547-12.421147 34.648565-12.421147z" stroke-width="10.8"/><path d="m523.631883 494.515298c43.487585 0 79.851322 14.566038 109.136647 43.591049 29.31632 29.05573 44.004289 64.813217 44.004289 107.29773 0 42.083563-14.639908 77.774451-43.88675 107.086431-29.250478 29.315624-64.913189 43.990028-107.002029 43.990028-42.59442 0-78.530126-14.616135-107.832411-43.788188-29.32874-29.19839-43.994767-64.522768-43.994767-105.974512 0-27.590091 6.677349-53.160276 20.016219-76.714768 13.365197-23.600983 31.5924-42.07829 54.670656-55.442817 23.072588-13.361244 48.034749-20.044953 74.888146-20.044953zm1.313759 39.025886c-19.335669 0-37.657651 5.056453-54.974239 15.138028-17.327292 10.087807-30.863382 23.671223-40.595886 40.762451-9.754198 17.129322-14.60365 36.226432-14.60365 57.276173 0 31.095324 10.748865 57.366745 32.294782 78.793951 21.539104 21.420432 47.498797 32.130543 77.878993 32.130543 20.323104 0 39.133882-4.923897 56.42767-14.789083 17.241955-9.835616 30.696228-23.281885 40.354594-40.346975 9.695477-17.130658 14.517589-36.169371 14.517589-57.102195 0-20.786633-4.811972-39.594117-14.495154-56.406023-9.671534-16.791681-23.301482-30.216023-40.861437-40.301133-17.578775-10.095918-36.224451-15.155737-55.943262-15.155737z" stroke-width="12"/></g></g></svg>