<svg height="960" viewBox="0 0 960 960" width="960" xmlns="http://www.w3.org/2000/svg"><g fill="#000" fill-rule="nonzero"><path d="m468.75683 93.6688c153.051221 0 284.781568 104.205646 322.098115 249.612065l.457055 1.837135.283397.107899c73.127529 28.107927 128.703551 90.619073 147.578816 167.211997l.589919 2.449211c2.698346 11.467713-4.41063 22.951574-15.878343 25.649921-11.351878 2.67109-22.719578-4.268015-25.565472-15.532176l-.084449-.346167c-15.668497-66.589603-65.079975-120.621677-129.696551-142.404964l-1.962713-.650209c-7.117455-2.316481-12.49029-8.189585-14.177358-15.461965l-.086841-.390918c-28.214339-132.862185-146.021518-229.419429-283.555575-229.419429-136.71772 0-253.887032 95.388281-283.02861 226.889862l-.856063 3.995889c-1.489801 7.200878-6.580322 13.116901-13.45538 15.672395l-.376762.136046c-78.8464944 27.63984-132.708815 102.321722-132.708815 187.256092 0 106.078793 83.383314 193.094138 188.649294 198.147081l3.196512.127967c.474587.015224.945143.045866 1.411194.091438l.1978.02003 34.668535.0008c11.663087 0 21.139971 9.360253 21.328342 20.97845l.002858.35275c0 11.663087-9.360253 21.139971-20.97845 21.3312h-.35275-36.961443c-.848224 0-1.684885-.049509-2.507251-.145794l-.660841-.088406-1.400951-.055525c-126.6504548-6.078764-227.20581588-109.740578-229.22431512-236.861292l-.03093388-3.898699c0-99.066689 60.3077568-186.648047 149.907562-223.214207l.132638-.053277.51761-2.120794c36.352139-144.683634 166.138793-249.0543895 317.784264-251.1909867z"/><g stroke="#000"><path d="m886.31944 712.46888c13.62553 0 24.602067 4.475334 33.009308 13.25102 8.421918 8.791006 12.61961 19.162538 12.619611 31.104055 0 8.320162-1.997142 16.12437-5.990794 23.412785-3.75118 6.845903-10.998563 16.141148-21.820118 27.838433l-26.578471 28.684417h56.209159v21.56041h-105.104853l57.858403-62.491193.527614-.565517c9.763515-10.481369 16.171212-18.254432 19.147919-23.369743 2.723954-4.68097 4.099741-9.610753 4.099741-14.796626 0-6.327662-2.386161-11.760128-7.100405-16.321478-4.793127-4.637674-10.669303-6.92813-17.605024-6.92813-7.312072 0-13.416547 2.396025-18.274039 7.279492-5.740733 5.771433-8.475845 14.274183-8.620345 25.294501h-21.426294l.168763-5.14331c.535699-14.111888 5.400249-25.693621 14.474021-34.799915 9.288069-9.32136 20.748989-14.009201 34.405804-14.009201z" stroke-width="8.64"/><path d="m674.594431 571.783131c34.790068 0 63.881057 11.65283 87.309318 34.872839 23.453055 23.244584 35.203431 51.850573 35.203431 85.838184 0 33.666851-11.711927 62.219561-35.1094 85.669144-23.400383 23.4525-51.930552 35.192023-85.601623 35.192023-34.075536 0-62.824101-11.692908-86.26593-35.030551-23.462991-23.358711-35.195813-51.618214-35.195813-84.779609 0-22.072073 5.341879-42.528221 16.012975-61.371814 10.692158-18.880787 25.27392-33.662632 43.736525-44.354254 18.458071-10.688995 38.427799-16.035962 59.910517-16.035962zm1.051007 31.220709c-15.468535 0-30.126121 4.045162-43.979392 12.110422-13.861833 8.070245-24.690705 18.936978-32.476708 32.60996-7.803358 13.703458-11.68292 28.981146-11.68292 45.820939 0 24.876259 8.599092 45.893396 25.835825 63.035161 17.231284 17.136345 37.999038 25.704434 62.303195 25.704434 16.258483 0 31.307105-3.939118 45.142136-11.831266 13.793564-7.868493 24.556982-18.625508 32.283675-32.27758 7.756382-13.704527 11.614071-28.935497 11.614071-45.681756 0-16.629307-3.849577-31.675294-11.596123-45.124818-7.737227-13.433345-18.641185-24.172819-32.68915-32.240907-14.063019-8.076734-28.97956-12.124589-44.754609-12.124589zm-326.626266-25.665388 139.851965 161.015656v-161.015656h31.370853v230.461548h-11.937263l-138.656981-158.955219v158.955219h-32.42186v-230.461548z" stroke-width="9.6"/></g></g></svg>