<svg height="960" viewBox="0 0 960 960" width="960" xmlns="http://www.w3.org/2000/svg"><path d="m267.284472 36.0001257c70.387329.2124427 168.44642 1.0970974 294.209899 2.6545644l-.135261-.0014463 249.68329 2.2476446c18.91912.1702978 36.793359 8.7028473 48.822612 23.3062432l51.533664 62.5613644c9.439553 11.459525 14.601324 25.844418 14.601324 40.691164v598.085964c0 14.846746-5.161771 29.231639-14.601324 40.691164l-51.533664 62.561364c-12.029253 14.603396-29.903492 23.135945-48.822596 23.306243l-248.8546 2.240131.136133-.001457c-125.707158 1.559481-224.043507 2.444874-295.041896 2.65692-27.522583.080143-66.10628-5.047225-116.751692-15.251096l-1.460361-.295893-.368716-.022879c-19.498033-1.321042-37.781574-10.297608-50.5913292-25.141112l-.4249586-.496954-46.775083-55.225165c-10.9043937-12.879301-16.9099132-29.14455-16.9099132-45.990864v-576.146768c0-16.846314 6.0055195-33.111564 16.914854-45.996699l46.7752408-55.2253491c12.8238762-15.1345012 31.2965452-24.2963668 51.0111922-25.6320503l.304713-.0191596 1.363289-.2792242c49.542958-10.1113645 87.929872-15.2483801 116.03219-15.2766501zm10.478102 40.0361484-.221017.0122201c-6.488099.4235649-12.558014 3.4669912-16.782867 8.4757108l-51.103948 60.585611c-3.651735 4.329266-5.654742 9.810502-5.654742 15.474221v611.831926c0 5.663719 2.003007 11.144955 5.654742 15.474221l51.103948 60.585611c4.274055 5.06705 10.436396 8.122766 17.009713 8.489442 3.441666-.014117 6.944427-.028578 10.50719-.044513l239.290528-2.158173c11.184777-.132999 22.605323-.2718 34.261639-.416405l248.8546-2.24013c7.09467-.063862 13.79751-3.263568 18.30848-8.739841l51.533663-62.561365c3.539833-4.297322 5.475497-9.691656 5.475497-15.259186v-598.085964c0-5.56753-1.935664-10.961865-5.475497-15.259187l-51.533663-62.5613638c-4.51097-5.4762735-11.21381-8.6759795-18.30848-8.7398412l-249.683315-2.2476449c-12.328998-.1526835-24.391261-.2988928-36.186787-.4386288l-236.377421-2.1321377c-3.620929-.0164007-7.17835-.0312615-10.672263-.0445825zm-123.94592 15.3691805c-9.929561-.0272821-19.332838 4.2535658-25.608774 11.6603084l-46.7701416 55.21933c-4.8105432 5.681786-7.4377384 12.797321-7.4377384 20.144165v576.146768c0 7.346844 2.6271952 14.462378 7.4377384 20.144164l46.7701416 55.219331c6.275936 7.406742 15.679213 11.68759 25.608774 11.660308 35.069349 7.17714 63.99993 11.845639 86.791743 14.005759l-46.24137-54.82022c-6.694847-7.936988-10.367027-17.98592-10.367027-28.369405v-611.831926c0-10.383485 3.67218-20.432417 10.367027-28.369405l46.274559-54.8616634c-23.047607 2.1420092-51.989251 6.8260861-86.824932 14.052486zm648.116125 569.3006604c5.548992-.037071 10.067221 4.450887 10.067221 10v123c0 5.496619-4.436289 9.96283-9.932779 9.999779l-490 3.294111c-5.548992.037071-10.067221-4.450888-10.067221-10.000005v-123c0-5.496614 4.436289-9.962826 9.932779-9.999774zm-9.932779 20.067004-470 3.159v103l470-3.159zm-47.867535 14.835217c20.686007-.139055 37.475304 16.53738 37.475304 37.223615 0 20.633731-16.707356 37.453398-37.340863 37.5921-18.743956.126001-34.288521-13.554344-37.042035-31.514019-2.713384 17.97316-18.199541 31.824715-36.916285 31.950533-18.743821.126-34.288298-13.554147-37.041976-31.513631-2.714018 17.973286-18.199948 31.824329-36.916345 31.950145-18.743261.125996-34.287368-13.553329-37.041728-31.512021-2.714841 17.97219-18.200543 31.822721-36.916592 31.948534-18.74417.126002-34.288875-13.554655-37.042129-31.514632-2.71329 17.973773-18.199448 31.825328-36.916192 31.951146-18.743608.125998-34.287944-13.553837-37.041881-31.513021-2.714113 17.972676-18.200042 31.823719-36.916439 31.949534-20.686007.139056-37.475304-16.537379-37.475304-37.223614 0-20.633731 16.707356-37.453398 37.340863-37.592101 18.743125-.125995 34.287142 13.55313 37.041668 31.51163 2.715476-17.972313 18.20095-31.822332 36.916652-31.948143 18.74417-.126002 34.288875 13.554655 37.042129 31.514632 2.712881-17.973407 18.1992-31.825326 36.916192-31.951146 18.743124-.125995 34.287142 13.55313 37.041668 31.511629 2.715475-17.972312 18.20095-31.822332 36.916652-31.948142 18.743125-.125996 34.287142 13.55313 37.041668 31.511629 2.714901-17.971799 18.200603-31.82233 36.916653-31.948143 18.744517-.126005 34.289452 13.555163 37.042282 31.515633 2.712562-17.97426 18.198947-31.826327 36.916038-31.952147zm-369.657161 22.182117c-9.640627.064806-17.475304 7.95215-17.475304 17.592552 0 9.587898 7.752737 17.28852 17.340863 17.224066 9.640626-.064806 17.475304-7.95215 17.475304-17.592552 0-9.587898-7.752737-17.28852-17.340863-17.224066zm73.95832-.436514c-9.640626.064806-17.475304 7.95215-17.475304 17.592552 0 9.587898 7.752738 17.28852 17.340863 17.224067 9.640627-.064807 17.475304-7.95215 17.475304-17.592552 0-9.587899-7.752737-17.28852-17.340863-17.224067zm73.958321-.436514c-9.640627.064807-17.475304 7.95215-17.475304 17.592552 0 9.587899 7.752737 17.28852 17.340863 17.224067 9.640626-.064806 17.475304-7.95215 17.475304-17.592552 0-9.587898-7.752738-17.28852-17.340863-17.224067zm73.95832-.436513c-9.640626.064806-17.475304 7.95215-17.475304 17.592552 0 9.587898 7.752737 17.28852 17.340863 17.224066 9.640627-.064806 17.475304-7.95215 17.475304-17.592552 0-9.587898-7.752737-17.28852-17.340863-17.224066zm73.958321-.436514c-9.640627.064806-17.475304 7.95215-17.475304 17.592552 0 9.587898 7.752737 17.28852 17.340863 17.224067 9.640626-.064806 17.475304-7.95215 17.475304-17.592552 0-9.587898-7.752738-17.28852-17.340863-17.224067zm73.95832-.436514c-9.640626.064807-17.475304 7.952151-17.475304 17.592553 0 9.587898 7.752737 17.28852 17.340863 17.224066 9.640627-.064806 17.475304-7.95215 17.475304-17.592552 0-9.587898-7.752737-17.28852-17.340863-17.224067zm33.000461-572.738038c27.890996.745981 50.732633 22.398158 50.732633 48.861382 0 26.539879-22.957584 47.873319-50.919252 48.099112-14.136281.114152-27.360258-5.342296-36.885451-14.843477l-.0227-.022344-107.771789.142423c-5.429236.007172-9.853639-4.313657-10.008991-9.706881l-.004261-.2799c-.007246-5.522842 4.463988-10.005906 9.98683-10.013202l112.198108-.14822c3.003937-.003969 5.85053 1.342661 7.75275 3.667572 5.791532 7.078461 14.767477 11.284031 24.594008 11.204681 17.325681-.139907 31.080748-12.921865 31.080748-28.099764 0-15.254552-13.871013-28.403244-31.267367-28.868532-9.797235-.26204-18.712341 3.748675-24.455819 10.661452-1.944633 2.340535-4.84917 3.668279-7.891537 3.607439l-112.197617-2.24369c-5.521743-.110421-9.908486-4.676194-9.800104-10.197937.112462-5.521744 4.678234-9.908487 10.199977-9.798065l107.718064 2.153624.348746-.336466c9.538559-9.128829 22.644172-14.212822 36.613024-13.839207z"/></svg>