<svg height="960" viewBox="0 0 960 960" width="960" xmlns="http://www.w3.org/2000/svg"><path d="m364 29.0264055c4.29147 0 8.582168.1151044 12.867466.3451892l328 17.6108668c127.364894 6.8384335 227.132534 112.1064665 227.132534 239.6548105v381.230251c0 124.579601-95.320184 228.446554-219.441897 239.117888l-328 28.199721c-12.388169 1.065069-24.751489 1.175584-37.009258.346136l-1.130489-.080863-.297759.01151c-2.381141.066067-4.806023-.080764-7.254262-.457748l-.735152-.120017-3.053827-.527745-.630788-.074471c-7.894509-.97271-15.71911-2.337149-23.449716-4.085535l-.581496-.134994-46.515289-8.105209c-113.781793-19.816104-197.140795-117.792617-198.7965969-232.946304l-.0251143-3.4947v-407.080936c0-119.429488 87.8137262-220.6869741 206.0408912-237.5853085l37.180109-5.314542.91263-.216825c17.338905-4.0515893 35.167519-6.1716079 53.238486-6.291175zm.089747 50.506174c-104.934102 0-190 85.0658975-190 190.0000005v427.024476c0 5.435495.233247 10.868486.699097 16.283981 8.993394 104.548002 101.036882 182.010317 205.584884 173.016923l327.602955-28.180955c98.259245-8.452425 173.71602-90.678782 173.71602-189.300903v-381.244375c0-100.973629-78.979472-184.309837-179.807713-189.7264278l-327.602956-17.5991472c-3.39437-.1823488-6.793022-.2735725-10.192287-.2735725zm-93.45519 1.8893989-2.652187.4801305c-94.050735 17.7028387-162.904014 99.9933111-162.904014 196.5321471v407.080936c0 94.97169 66.716133 176.505262 159.088979 195.772395-60.005809-32.530176-103.0176-93.642709-109.304902-166.732447-.514887-5.985547-.772686-11.990432-.772686-17.998084v-427.024476c0-82.405052 47.463982-153.724297 116.54481-188.1106016zm311.635713 696.5780216c11.194961 0 20.270271 11.192881 20.270271 25s-9.07531 25-20.270271 25-20.27027-11.192881-20.27027-25 9.075309-25 20.27027-25zm-140.279991-567.666869c2.719412 0 5.438334.072979 8.15383.218858l181.801891 9.766574c80.662593 4.333272 143.846171 71.002239 143.846171 151.781142v218.021902c0 78.897697-60.365419 144.678783-138.972816 151.440723l-181.801892 15.638903c-83.638401 7.194715-157.273191-54.775137-164.467907-138.413539-.37268-4.332395-.559277-8.678788-.559277-13.027184v-243.427379c0-83.947282 68.052718-152 152-152zm0 20c-72.901587 0-132 59.098413-132 132v243.427379c0 3.776238.162045 7.550737.485688 11.313081 6.248042 72.633349 70.194044 126.449273 142.827393 120.201231l181.801892-15.638903c68.264318-5.872211 120.686919-62.997891 120.686919-131.514312v-218.021902c0-70.1501-54.869949-128.046834-124.919043-131.809939l-181.801892-9.766574c-2.358194-.126684-4.719363-.190061-7.080957-.190061zm-83.710733-83.567137c12.071271 21.724336 4.245916 49.121089-17.47842 61.19236-17.974151 9.987456-32.41453 25.508436-41.051332 44.130006-10.456909 22.545851-37.210932 32.345875-59.756783 21.888967-22.545851-10.456909-32.345876-37.210932-21.888967-59.756783 16.649919-35.898431 44.373788-65.702052 78.983142-84.932969 21.724336-12.071271 49.121088-4.245916 61.19236 17.478419zm-51.478151.003976c-30.91322 17.177136-55.684895 43.8071-70.553851 75.865644-5.809394 12.525473-.364936 27.388819 12.160537 33.198213 12.525473 5.809393 27.388819.364935 33.198213-12.160538 10.418019-22.462002 27.810862-41.156384 49.480623-53.197331 12.069076-6.706261 16.416495-21.926679 9.710233-33.995755-6.706261-12.069075-21.92668-16.416495-33.995755-9.710233z"/></svg>