<svg height="960" viewBox="0 0 960 960" width="960" xmlns="http://www.w3.org/2000/svg"><path d="m294.624095 3.35168814 387.897695 35.46243326c41.188877 3.7655748 72.716603 38.3071137 72.716603 79.6677606v725.937026c0 41.383018-31.560809 75.935492-72.774701 79.673051l-383.718105 34.798188c-11.764393 1.066875-23.616514.640533-35.273845-1.268865l-19.079362-3.125079c-37.572157-6.154084-65.153987-38.621183-65.153987-76.694004v-790.7090635c0-31.2381424 18.34895-59.5625524 46.857838-72.332238 21.484306-9.62323888 45.084557-13.55244645 68.527864-11.40920936zm-33.336454 77.69681176c-.108505 1.1988211-.162841 2.4019292-.162841 3.6056507v791.9411404c0 22.09139 17.90861 40 40 40 1.149625 0 2.298715-.049562 3.44407-.148546l374.113593-32.331904c20.679359-1.787166 36.55593-19.095014 36.55593-39.851454v-725.748315c0-20.6942044-15.784391-37.9717578-36.394349-39.8371596l-374.113593-33.8609214c-22.001456-1.9913459-41.451465 14.2300532-43.44281 36.2315089zm-6.699919-34.2761375-.680765.2055286c-3.894279 1.1834809-7.722005 2.614216-11.459324 4.2882342-14.120788 6.3249758-23.20924 20.3543901-23.20924 35.8270103v790.7090635c0 18.476944 13.38561 34.233401 31.619579 37.220011l4.862237.797312c-9.094272-10.517883-14.595409-24.228627-14.595409-39.224231v-791.9411404c0-1.8055823.081503-3.6102443.244261-5.408476 1.11959-12.3698269 5.918301-23.5216033 13.218661-32.4733122zm168.434859 173.8993426 189.240949 10.380243c13.785396.756157 24.575989 12.154856 24.575989 25.960975v452.53908c0 13.884186-10.908875 25.318542-24.77771 25.971253l-189.240949 8.906281c-.407148.019161-.814691.028746-1.22229.028746-14.359403 0-26-11.640596-26-26v-471.825603c0-.474938.013014-.949787.039026-1.424012.786459-14.33785 13.047135-25.323422 27.384985-24.536963zm-7.415005 25.632357c-.006003.109436-.009006.219017-.009006.328618v471.825603c0 3.313709 2.686292 6 6 6 .094061 0 .18811 0 .282067-.006634l189.240949-8.90628c3.2005-.150626 5.717933-2.789323 5.717933-5.993366l.000901-8.229564c-4.114138 3.523126-9.354879 5.792045-15.15269 6.180415l-.42725.025155-151.042407 7.670971c-.439232.022307-.87896.033466-1.318758.033466-14.359404 0-26-11.640596-26-26v-419.195697c0-.512436.015149-1.02476.045428-1.536301.848476-14.334314 13.156559-25.266746 27.490873-24.41827l.189091.009396c.954217-.080052 1.918509-.023738 2.86114.169906l147.993061 8.761243c5.883841.348276 11.199578 2.629155 15.361211 6.192524l-.0006-2.202324c0-3.186028-2.490137-5.816497-5.671382-5.990994l-189.240949-10.380244c-3.308735-.18149-6.138121 2.353642-6.319612 5.662377zm27.290817 360.570196.000922 82.358188c0 2.479847 1.504437 4.608313 3.65041 5.522497.004351-.13479.002739-.270259-.002942-.406485zm23.63167-339.802473-8.923418 212.469597 8.92277 213.973775c.011537.276644.018785.552882.021779.828631l133.694856-6.790035c3.294133-.167299 5.835541-2.962212 5.689812-6.25737l-8.902157-201.290896c-.013066-.295457-.01302-.591348.00014-.886801l8.902818-199.874404c.145932-3.276277-2.36573-6.062721-5.639526-6.256504l-133.757726-7.918052c.02173.663833.018812 1.331586-.009348 2.002059zm-20.118759-2.495533-.102876.047504c-1.902251.912615-3.265128 2.803063-3.39863 5.058462-.006987.118048-.010483.236277-.010483.354531l-.000922 83.078509 3.649287-86.882732c.023869-.568316-.023782-1.124033-.136376-1.656274z"/></svg>