<svg height="960" viewBox="0 0 960 960" width="960" xmlns="http://www.w3.org/2000/svg"><path d="m498.461859 3.51025226c20.633203 3.80713649 38.015554 11.31007804 52.300584 24.23230584 20.131934 18.211333 30.629685 45.3478347 34.047012 80.2334719.126953 1.295995.190545 2.597417.190545 3.899615v684.805355l.447093.214895c6.33912 3.062978 12.150324 6.462731 17.369615 10.209433l.708047.513065c17.91711 13.105709 29.475245 30.877864 29.475245 52.728829l-.005494.793054-.001506.041724.007 13.929131c0 .189376 0 .378747-.003776.5681l-.01184.567989c-.511109 18.286133-9.277763 33.863756-23.042117 45.99048-9.947692 8.764155-22.574937 15.783606-37.368531 21.359196-26.486584 9.982585-60.393825 15.403104-96.073736 15.403104-35.921622 0-70.044391-5.493998-96.608301-15.605892-14.889211-5.667769-27.563195-12.808992-37.494945-21.747448-13.018112-11.716146-21.403303-26.604446-22.314139-43.851452l-.026615-.553208-.003837-.04849c-.023088-.455588-.038575-.91327-.046335-1.372927l-.005828-.690953v-14.782408c0-21.844516 11.529094-39.584479 29.418414-52.687265l.544042-.395634c5.482845-3.958789 11.62715-7.533828 18.356726-10.73555l.678818-.320773.002-740.434704c.002124-25.1403067 17.345605-46.91633386 41.77224-52.59279927l.742358-.16707305c9.692766-2.10958171 21.310815-3.01342368 35.477998-3.01342368 21.998069 0 36.961847.83341569 51.469263 3.51025226zm-136.180337 879.91579874.228917.42724c11.127773 20.077029 57.935531 35.146709 113.989561 35.146709 54.253972 0 99.845985-14.117358 112.812051-33.228372-6.400061 4.17511-13.906224 7.855366-22.367661 11.051102-24.120961 9.110063-55.841326 14.17727-89.44439 14.17727s-65.323429-5.067207-89.44439-14.17727c-10.012611-3.781587-18.687595-8.241624-25.774088-13.396679zm26.245901-52.152743-.410624.180783c-13.213247 5.851486-22.485107 13.029855-26.247748 20.938289 7.03683 21.756906 56.123566 38.60762 115.630949 38.60762 57.204052 0 104.778541-15.571491 114.62918-36.103755-2.889631-8.973355-12.82055-17.118288-27.625065-23.609194l-.000635 10.837527c0 14.995673-10.110681 28.106037-24.614104 31.916716l-35.286835 9.271362c-12.165096 3.196241-24.917543 3.44156-37.196642.715536-16.354154-3.630775-28.986447-6.902606-38.071034-9.890721-13.134427-4.320195-24.409396-12.444305-33.568331-23.953666l-.340014-.433768-.149063-.184896c-4.104908-5.255537-6.458089-11.652328-6.750034-18.291833zm20.473001-759.3598676-.00112 739.4924896-.001304-.00093.000383 12.793412-.502383.137588.00052 5.531821c0 2.676789.895147 5.2767 2.542851 7.386266 6.876118 8.802388 15.057361 14.764178 24.544561 17.884722 8.341248 2.743615 20.393456 5.865193 36.156615 9.364762 9.17041 2.035879 18.694388 1.852666 27.779713-.5344l35.286759-9.271342c5.713466-1.501176 9.696461-6.665864 9.696461-12.573251l.00074-186.687453c-6.921285 2.191552-13.951003 4.072333-21.087332 5.642081-8.377024 1.842658-17.268638 3.284005-26.677446 4.330789l.010905-.001402-.076755.007537-.276716.029054-.073284.005946-.329114.029608c-12.193439.964426-23.050459-7.820381-24.612121-19.996303l-.045326-.377649c-.095303-.852351-.142441-1.709366-.142441-2.557225v-425.209508c.009256-12.233503 9.593267-22.31909 21.798082-22.951188 8.595195-.45047 16.482514-1.125052 23.653897-2.018916 7.854418-.978999 15.714293-2.328835 23.58129-4.050451 1.439885-.315105 2.870829-.467257 4.275708-.470237l-.000182-44.786119c-5.803001 3.746426-12.970805 6.35891-21.524583 7.633033-12.511308 1.863615-24.020685-.472099-34.580304-6.362983-8.22198-4.586788-15.376714-10.941214-22.85697-19.503604-1.246872-1.427251-3.378165-4.008109-5.541477-6.654587l-.519374-.635858-.431861-.529395c-2.872492-3.523099-5.579651-6.879176-6.100974-7.489307-3.658368-4.281572-10.604479-10.3045029-24.826423-21.8485226-.436179-.3540043-.436179-.3540043-.87281-.7082285-9.513376-7.717257-13.853559-11.2644185-17.416909-14.3313157l-.348143-.3002432-.344062-.2979259c-.046441-.0402944-.092794-.0805464-.139071-.1207647zm135.503056 135.9436896c-8.460315 1.851458-16.921378 3.30454-25.38319 4.359247-7.665417.955442-16.025704 1.6705-25.080863 2.145077-1.593539.082531-2.843628 1.398043-2.844835 2.993717v425.19439c0 .111869.006148.223654.018579.33483.18411 1.646593 1.668187 2.832171 3.314781 2.648062l1.53452-.174866c8.154703-.953409 15.840642-2.223879 23.057818-3.811411 8.637193-1.899886 17.098256-4.294522 25.38319-7.183907zm-97.036595-167.4290933h-.975825c-11.552912 0-20.543862.6993794-26.972851 2.098138-2.193152.4776235-4.171805 1.4541773-5.827356 2.7948266-.423143.3765393-.822421.7783086-1.195905 1.2023889.236206.4749982.4355.9713587.594448 1.4854395l.050641.1767666.084383.1042599c.08348.1032788.175115.2136177.274716.3305726l.155354.1803389c1.240364 1.4242417 3.231077 3.3667256 5.924248 5.7746145.273092.244164.542197.4838749.809699.7211311l.320385.2836571.479695.4227457c.26668.234345.534141.4682336.804767.7036641l.326423.2833844c3.501313 3.0333901 7.677491 6.4503515 17.528594 14.4415731.164494.1334482.267302.2168534.354702.2877654l.167965.1362926c.087421.0709434.190284.1544271.354864.288001 15.403539 12.5031261 22.627022 18.7665649 27.427393 24.3846813.632882.7406938 3.059097 3.740838 5.670253 6.948613l.54235.665967c2.447704 3.004127 4.959567 6.065574 6.237546 7.528433 13.07821 14.970173 24.676587 21.440548 39.428849 19.243133 11.076228-1.649854 17.148587-5.862608 20.275736-11.920856 1.988246-3.851845 2.548406-7.519454 2.548406-12.297276 0-1.150515.194294-2.255651.551862-3.284385-3.17379-21.2063134-9.833329-36.3980189-19.977262-45.5750338-16.921247-15.3083164-43.277649-17.3317792-74.991576-17.4065944z"/></svg>