<?xml version="1.0" encoding="utf-8"?>
<!-- Generator: Adobe Illustrator 21.0.0, SVG Export Plug-In . SVG Version: 6.00 Build 0)  -->
<svg version="1.1" id="Layer_1" xmlns="http://www.w3.org/2000/svg" xmlns:xlink="http://www.w3.org/1999/xlink" x="0px" y="0px"
	 viewBox="0 0 1227.8 1045.7" style="enable-background:new 0 0 1227.8 1045.7;" xml:space="preserve">
<style type="text/css">
	.st0{fill:#010101;}
</style>
<g>
	<path class="st0" d="M147.2,582.2l3,0.3c1.5,0.3,3,0.4,4.5,0.4c0.4,0,0.8,0,1.2,0c0.7,0,1.3,0,2,0h0.4c0.2,0,0.5-0.1,0.7-0.2
		l1.4-0.7c0.1-0.1,0.3-0.2,0.4-0.3l1.1-1.1c0.2-0.2,0.3-0.6,0.4-1l0.2-0.5c0-0.1,0.1-0.2,0.1-0.3c0.3-0.3,0.4-0.6,0.4-1V574
		c0-0.2,0-0.3-0.1-0.5l-0.4-1.1c-1.3-3.4-4.9-5.2-9.7-4.8l-3-0.4H147c-0.4,0-0.8,0.2-1.1,0.4c-0.3,0.3-0.4,0.7-0.4,1.1l0.4,12
		C145.9,581.5,146.5,582.1,147.2,582.2z M149.7,570.1l3.1,0.4c2.7-0.2,6,0.2,7,2.9l0.3,0.8v3.1c-0.1,0.2-0.3,0.6-0.3,0.9l-0.2,0.5
		c0,0.1-0.1,0.2-0.1,0.3l-0.5,0.5l-0.9,0.4c-0.7,0-1.4,0-2.1,0c-1.8,0-3.4,0-5.2-0.3l-1.9-0.2l-0.3-9.3L149.7,570.1z"/>
	<path class="st0" d="M147,562.3l1.9,0l2.4,0.4h5.3c0.3,0,0.7-0.1,1-0.4h0.1c0.4,0,0.8-0.2,1-0.4l0.3-0.3c0.4-0.1,0.8-0.5,1-1
		l0.5-0.5c0.3-0.3,0.4-0.7,0.4-1.1V559c0.2-0.3,0.4-0.6,0.4-1v-3.9c0-0.4-0.1-0.7-0.4-1v-0.1c0-0.4-0.2-0.8-0.4-1l-2.1-2.1
		c-0.3-0.3-0.7-0.4-1-0.4h-0.5c-0.3-0.2-0.6-0.3-1-0.3l-3.2,0l-1.8-0.4h-3.5c-0.8,0-1.4,0.6-1.5,1.4l-0.4,10.6
		c0,0.4,0.1,0.8,0.4,1.1C146.2,562.2,146.6,562.3,147,562.3z M148.8,551.7l1.8,0l1.8,0.4h3c0.3,0.2,0.9,0.3,1.3,0.3l1.4,1.3v0.1
		c0,0.4,0.1,0.7,0.4,1v2.7c-0.2,0.3-0.4,0.6-0.4,1l-0.3,0.4c0,0-0.1,0.1-0.1,0.2c-0.1,0-0.2,0.1-0.2,0.2l-0.3,0.3h-0.1
		c-0.4,0-0.7,0.1-1,0.4l-4.5,0l-2.4-0.4h-0.6L148.8,551.7z"/>
	<path class="st0" d="M140.8,589.6l3,0.4l2.3,0l3.1,0.4c2-0.2,3.6,0,5.2,0.1c1.2,0.1,2.3,0.2,3.6,0.2c0.3,0,0.6,0,0.9,0h1.8
		c0.2,0,0.5-0.1,0.7-0.2l0.4-0.2c0.2,0,0.5-0.1,0.7-0.2l1.4-0.7c0.1-0.1,0.2-0.1,0.3-0.2c0.3-0.1,0.6-0.2,0.8-0.4l1.6-1.6
		c3.5-4.7,4.4-11,2.3-16.8l-0.6-1.6c-0.1-0.3-0.4-0.5-0.7-0.7l-0.4-0.9c-0.1-0.1-0.2-0.3-0.3-0.4l-1.2-1.2l-0.9-0.6
		c0.1-0.1,0.2-0.2,0.2-0.3c0.3-0.5,0.6-1,0.9-1.5c0.6-0.9,1.2-1.8,1.7-3.1l0.7-3.4c0.2-1.6,0-2.9-0.3-4.2l-0.1-1
		c0-0.2-0.1-0.5-0.2-0.7l-0.2-0.4v-0.4c0-0.2-0.1-0.5-0.2-0.7l-0.3-0.5c-1-2.8-3.7-6.2-7.1-7l-1.8-0.4h-0.8c-0.3-0.2-0.6-0.4-1-0.4
		h-2.8l-12.8-0.7c-0.4-0.1-0.8,0.1-1.1,0.4c-0.3,0.3-0.5,0.6-0.5,1l-0.4,12.8v12.8l0.4,20.6C139.5,588.9,140.1,589.5,140.8,589.6z
		 M142.1,554.9l0.3-11.2l11.3,0.6h2.2c0.3,0.2,0.6,0.4,1,0.4l1.1,0l1.5,0.4c2.2,0.5,4.2,3,5,5.2l0.2,0.4v0.4c0,0.2,0.1,0.5,0.2,0.7
		l0.3,1.5c0.2,1.2,0.4,2.2,0.3,3.2l-0.6,3c-0.3,0.8-0.8,1.5-1.3,2.3c-0.3,0.4-0.6,0.9-0.9,1.3l-0.3,0.2c-0.1,0.1-0.3,0.2-0.4,0.3
		l-0.7,0.7c-0.3,0.3-0.5,0.7-0.4,1.2c0,0.4,0.3,0.8,0.7,1.1l2.2,1.6l0.9,0.9l0.6,1.2c0.1,0.2,0.3,0.4,0.5,0.5l0.5,1.1
		c1.7,4.6,1,10-1.8,13.7l-1,1c-0.3,0.1-0.5,0.2-0.8,0.4l-1.1,0.6c-0.2,0-0.5,0.1-0.7,0.2l-0.4,0.2l-1.5,0c-1.5,0-2.8-0.1-4.2-0.2
		c-1.2-0.1-2.4-0.2-3.6-0.2c-0.6,0-1.2,0-1.8,0.1l-3-0.4l-2.3,0l-1.6-0.2l-0.3-19.2V554.9z"/>
	<path class="st0" d="M128.8,588.5l6,0.7c0.1,0,0.1,0,0.2,0c0.4,0,0.7-0.1,1-0.4c0.3-0.3,0.5-0.7,0.5-1.1l-0.4-20.5v-12.7l0.4-12.8
		c0-0.8-0.5-1.4-1.3-1.5l-6.4-0.7c-0.4,0-0.8,0.1-1.1,0.4c-0.3,0.3-0.5,0.7-0.5,1.1v12.7l-0.4,13.2l0.7,20.2
		C127.5,587.8,128.1,588.4,128.8,588.5z M130.1,553.8v-11.1l3.4,0.4l-0.3,11.4v12.8l0.3,18.9l-3.1-0.4l-0.7-18.8L130.1,553.8z"/>
	<path class="st0" d="M111,568.1l10.5,0.6c0.4,0.1,0.8-0.1,1.1-0.4c0.3-0.3,0.5-0.7,0.5-1.1v-7.8c0-0.8-0.6-1.4-1.4-1.5l-10.7-0.6
		V549l12.6,0.9c0.4,0,0.8-0.1,1.1-0.4c0.3-0.3,0.5-0.7,0.5-1.1v-7.8c0-0.8-0.6-1.4-1.4-1.5l-19.8-1.4c-0.4,0-0.8,0.1-1.1,0.4
		c-0.3,0.3-0.5,0.7-0.5,1.1v35.8l0.4,10.3c0,0.8,0.7,1.4,1.5,1.4l2.7,0l2.8,0.4c0.1,0,0.1,0,0.2,0c0.4,0,0.7-0.1,1-0.4
		c0.3-0.3,0.5-0.7,0.5-1.1L111,568.1z M109.6,565c-0.4-0.1-0.8,0.1-1.1,0.4c-0.3,0.3-0.5,0.7-0.5,1.1l0.3,17.4l-2.7-0.2l-0.3-8.8
		v-34.2l16.9,1.2v4.8l-12.6-1c-0.4,0-0.8,0.1-1.1,0.4c-0.3,0.3-0.5,0.7-0.5,1.1v11.3c0,0.8,0.6,1.4,1.4,1.5l10.7,0.6v4.8L109.6,565z
		"/>
	<path class="st0" d="M246.5,573.1l0.3,2.4c1.1,14.1,11.9,21.6,22,21.6h0c9.3,0,19.1-6.2,20.2-20.1l0.4-2.5c0,0,0-0.1,0-0.1
		c0,0,0-0.1,0-0.1v-2.8c0.2-10.4-4-19-11.5-23.4c-6.5-3.8-14.5-3.9-20.8-0.2c-4.1,2.4-10.9,8.5-10.6,22.2v2.8
		C246.5,572.9,246.5,573,246.5,573.1C246.5,573,246.5,573.1,246.5,573.1z M258.7,550.4c5.4-3.2,12.2-3.1,17.8,0.2
		c6.6,3.9,10.3,11.5,10.1,20.8v2.7l-0.4,2.5c-1,12.9-9.9,17.4-17.3,17.4h0c-8.5,0-18.1-5.9-19.1-18.9l-0.3-2.4V570
		C249.3,561,252.6,554,258.7,550.4z"/>
	<path class="st0" d="M263.1,587.8l2.2,0.7c1,0.3,2,0.4,3,0.4c4.4,0,8.6-2.6,10.1-6.5l1.2-2.4l0.7-3l0.4-2.8c0-0.1,0-0.1,0-0.2
		l0-3.7l-0.4-3.9c-0.6-8.2-6.4-12.4-11.8-12.9c-4.8-0.5-10.6,2-12.4,8.7l-0.7,3.4l-0.4,3.9C254.5,576.1,256.3,584.2,263.1,587.8z
		 M258,569.8l0.3-3.7l0.7-3.1c1.3-4.9,5.2-6.6,8.4-6.6c0.3,0,0.6,0,0.9,0c4.2,0.4,8.6,3.7,9.1,10.2l0.3,3.8v3.5l-0.3,2.6l-0.6,2.5
		l-1.1,2.3c-1.3,3.5-5.8,5.6-9.5,4.4l-1.9-0.6C258.9,582.3,257.5,575.1,258,569.8z"/>
	<path class="st0" d="M209,581.8l0.4,10.3c0,0,0,0.1,0,0.1c0,0,0,0.1,0,0.1c0,0.1,0,0.1,0,0.2c0,0,0,0.1,0,0.1c0,0.1,0,0.1,0.1,0.2
		c0,0,0,0.1,0.1,0.1c0,0,0.1,0.1,0.1,0.1c0,0,0,0.1,0.1,0.1c0,0,0.1,0.1,0.1,0.1c0,0,0.1,0,0.1,0.1c0,0,0.1,0.1,0.2,0.1
		c0,0,0.1,0,0.1,0c0.1,0,0.1,0.1,0.2,0.1c0,0,0,0,0,0l0,0c0,0,0,0,0.1,0l1.7,0.4l3.7,0l2.4,0.3c0,0,0,0,0,0l0.1,0c0.1,0,0.1,0,0.2,0
		c0,0,0,0,0,0h0c0.2,0,0.3,0,0.4-0.1c0,0,0.1,0,0.1,0c0.1-0.1,0.3-0.1,0.4-0.2c0,0,0,0,0.1,0c0.1-0.1,0.2-0.2,0.3-0.4c0,0,0,0,0,0
		c0.1-0.1,0.1-0.3,0.2-0.5c0,0,0,0,0,0c0,0,0-0.1,0-0.1c0,0,0-0.1,0-0.1l-0.3-18h1.1l0.8,0.3c0.1,0.1,0.3,0.1,0.5,0.1l1.5,0.6
		l0.4,0.4c0.1,0.2,0.2,0.3,0.3,0.4c0.7,0.6,1.9,2.9,2.7,4.4c0.3,0.6,0.7,1.2,0.9,1.7l3.5,5.6l3.2,6c0,0,0,0,0,0
		c0.1,0.2,0.3,0.4,0.5,0.5c0,0,0,0,0,0c0.1,0.1,0.2,0.1,0.3,0.1c0,0,0,0,0.1,0c0.1,0,0.2,0,0.4,0h0h0h0l6.5,0l2.8,0.4
		c0.1,0,0.1,0,0.2,0c0,0,0,0,0,0c0,0,0,0,0,0c0,0,0,0,0,0c0,0,0,0,0,0c0.2,0,0.3,0,0.4-0.1c0.1,0,0.1,0,0.1-0.1c0,0,0.1,0,0.1-0.1
		c0.1,0,0.2-0.1,0.2-0.2c0,0,0,0,0,0c0.1-0.1,0.2-0.2,0.3-0.4c0,0,0,0,0,0c0.1-0.2,0.1-0.3,0.2-0.5c0,0,0,0,0,0c0,0,0,0,0,0
		c0-0.1,0-0.2,0-0.3c0,0,0,0,0,0c0-0.1,0-0.1,0-0.2c0,0,0-0.1,0-0.1c0,0,0-0.1-0.1-0.1c0,0,0-0.1-0.1-0.1c0,0,0,0,0,0l-1.5-2.5
		c-0.7-1-1.5-2.7-2.5-4.6c-3-5.7-5.5-10.3-7.9-12.4l1.8-0.7c3.1-1.8,5.2-4.7,6.2-8.4c1.2-4.4,0.5-9.3-1.7-13.1l-0.7-1.4
		c-0.1-0.1-0.2-0.3-0.3-0.4l-1.5-1.5c-3.6-3.1-9.3-3.2-14.3-3.3c-1.6,0-3.2-0.1-4.6-0.2l-4.7-0.4h-4.6c-0.8,0-1.5,0.7-1.5,1.5v25.9
		c0,0,0,0,0,0V581.8z M214.9,547.1l4.6,0.4c1.5,0.1,3.1,0.2,4.8,0.2c4.5,0.1,9.7,0.2,12.4,2.5l1.2,1.2l0.6,1.3
		c1.8,3.2,2.4,7.3,1.4,10.9c-0.5,2-1.8,4.8-4.6,6.5l-1.6,0.6l-1.3,0.3h-0.9c-0.2,0-0.4,0-0.5,0.1c0,0,0,0,0,0
		c-0.2,0.1-0.3,0.2-0.5,0.3c0,0,0,0,0,0c0,0,0,0,0,0c-0.1,0.1-0.2,0.3-0.3,0.5c0,0,0,0,0,0c-0.1,0.2-0.1,0.4-0.1,0.5
		c0,0.4,0.2,0.8,0.4,1c0,0,0,0,0,0l1.4,1.4c0.1,0.1,0.2,0.2,0.3,0.2c2.2,1.3,5.6,7.7,7.8,12c1,2,1.9,3.7,2.6,4.7l-0.1,0h-5.8
		l-2.8-5.3l-3.5-5.6c-0.2-0.4-0.5-1-0.9-1.6c-1.2-2.2-2.2-4-3.1-4.9l-0.2-0.5c-0.1-0.3-0.4-0.5-0.7-0.7l-2.1-1.1
		c-0.2-0.1-0.4-0.2-0.7-0.2l-1.3-0.3c-0.1-0.1-0.3-0.1-0.5-0.1h-2.8c0,0,0,0,0,0c0,0,0,0,0,0c-0.1,0-0.1,0-0.2,0c0,0-0.1,0-0.1,0
		c-0.1,0-0.1,0-0.2,0.1c0,0-0.1,0-0.1,0c-0.1,0-0.1,0.1-0.2,0.1c0,0-0.1,0-0.1,0c0,0-0.1,0.1-0.1,0.1c0,0-0.1,0-0.1,0.1
		c0,0-0.1,0.1-0.1,0.1c0,0-0.1,0.1-0.1,0.1c0,0,0,0.1-0.1,0.1c0,0-0.1,0.1-0.1,0.1c0,0,0,0.1,0,0.1c0,0.1,0,0.1,0,0.2
		c0,0,0,0.1,0,0.2c0,0,0,0.1,0,0.1c0,0,0,0,0,0c0,0,0,0,0,0l0.3,17.8l-1-0.1l-3.5,0l-0.3-0.1l-0.3-9.1v-10.3c0,0,0,0,0,0v-24.4
		L214.9,547.1z"/>
	<path class="st0" d="M218.2,567.3C218.2,567.3,218.2,567.3,218.2,567.3C218.2,567.3,218.2,567.3,218.2,567.3h12.4
		c0.4,0,0.8-0.2,1-0.4l0.7-0.4c0.1-0.1,0.3-0.2,0.4-0.3l1.4-1.4c0.2-0.2,0.3-0.4,0.4-0.6l0.4-1.3c0.5-3.2,0.7-6.2-2.6-9.1
		c-0.1-0.1-0.2-0.2-0.3-0.2l-0.7-0.4c-0.2-0.1-0.4-0.2-0.7-0.2h-0.7c0,0,0,0,0,0h-0.1c-0.3-0.2-0.6-0.4-1-0.4l-4.1,0l-3.4-0.4h-3.2
		c-0.8,0-1.5,0.7-1.5,1.5c0,0,0,0,0,0s0,0,0,0v12C216.8,566.6,217.4,567.3,218.2,567.3z M224.6,555.6h3.6c0.3,0.2,0.6,0.4,1,0.4h0.7
		c0,0,0,0,0,0l0.6,0.1c1.9,1.7,2,3.3,1.6,6.1l-0.2,0.7l-1,1l-0.5,0.2c-0.1,0.1-0.2,0.1-0.3,0.2h-10.3v-9.1l1.5,0L224.6,555.6z"/>
	<path class="st0" d="M169.7,589.7c0,0,0,0.1,0,0.1c0,0,0,0,0,0c0,0,0,0.1,0,0.1c0,0.1,0,0.1,0,0.2c0,0,0,0.1,0,0.1
		c0,0.1,0,0.1,0,0.2c0,0,0,0.1,0,0.1c0,0.1,0,0.1,0.1,0.2c0,0,0,0.1,0.1,0.1c0,0,0.1,0.1,0.1,0.1c0,0,0.1,0.1,0.1,0.1
		c0,0,0.1,0.1,0.1,0.1c0,0,0.1,0.1,0.1,0.1c0,0,0.1,0.1,0.1,0.1c0,0,0.1,0,0.1,0.1c0,0,0.1,0,0.1,0c0,0,0,0,0,0c0,0,0.1,0,0.1,0
		c0,0,0.1,0,0.1,0l7.4,0.7c0,0,0.1,0,0.1,0c0,0,0,0,0,0c0,0,0,0,0,0c0,0,0,0,0,0c0,0,0,0,0,0c0.2,0,0.3,0,0.5-0.1
		c0,0,0.1-0.1,0.1-0.1c0.1-0.1,0.2-0.1,0.3-0.2c0,0,0.1-0.1,0.1-0.1c0.1-0.1,0.1-0.2,0.2-0.3c0-0.1,0.1-0.1,0.1-0.2
		c0-0.1,0.1-0.1,0.1-0.2l2.2-9.4l3.3,0.3c0,0,0.1,0,0.1,0c0,0,0,0,0,0h1.2c1.8-0.1,2.7,0,3.5,0.1c0.7,0.1,1.4,0.2,2.5,0.2
		c0.3,0,0.6,0,0.9,0l2.9,9.9c0,0,0,0,0,0c0,0.1,0.1,0.3,0.2,0.4c0,0,0,0,0,0c0.2,0.2,0.4,0.4,0.7,0.5c0,0,0,0,0,0
		c0.1,0,0.2,0.1,0.4,0.1l8.1,0.4h0.1c0.1,0,0.2,0,0.3,0c0,0,0,0,0,0c0,0,0,0,0,0c0.1,0,0.1,0,0.2-0.1c0,0,0.1,0,0.1,0
		c0.1,0,0.1-0.1,0.2-0.1c0,0,0.1,0,0.1-0.1c0,0,0.1-0.1,0.1-0.1c0,0,0-0.1,0.1-0.1c0,0,0.1-0.1,0.1-0.1c0,0,0-0.1,0.1-0.1
		c0-0.1,0.1-0.1,0.1-0.2c0,0,0-0.1,0-0.1c0-0.1,0-0.1,0-0.2c0,0,0-0.1,0-0.1c0,0,0-0.1,0-0.1c0,0,0,0,0-0.1c0-0.1,0-0.1,0-0.2
		c0,0,0-0.1,0-0.1c0,0,0,0,0-0.1l-0.8-3c-1.5-3.5-3-8.7-4.2-12.9l-0.8-2.7l-1-2.4l-3.9-13l-3.5-13.1c0,0,0-0.1,0-0.1
		c0,0,0-0.1,0-0.1c0-0.1-0.1-0.1-0.1-0.2c0,0,0,0,0,0c0-0.1-0.1-0.1-0.2-0.2c0,0,0,0,0,0c-0.1-0.1-0.1-0.1-0.2-0.2c0,0,0,0,0,0
		c-0.1,0-0.1-0.1-0.2-0.1c0,0-0.1,0-0.1,0c-0.1,0-0.1,0-0.2-0.1c0,0-0.1,0-0.1,0l-2.1-0.4h-4.6c0,0,0,0,0,0s0,0,0,0h-0.8l-0.8-0.3
		c0,0,0,0,0,0c0,0,0,0-0.1,0c0,0-0.1,0-0.1,0c0,0-0.1,0-0.1,0c0,0-0.1,0-0.1,0c-0.1,0-0.1,0-0.2,0c0,0-0.1,0-0.1,0
		c-0.1,0-0.1,0-0.2,0c0,0-0.1,0-0.1,0c-0.1,0-0.1,0-0.2,0.1c0,0-0.1,0-0.1,0.1c0,0-0.1,0.1-0.1,0.1c0,0-0.1,0.1-0.1,0.1
		c0,0-0.1,0.1-0.1,0.1c0,0-0.1,0.1-0.1,0.1c0,0,0,0.1-0.1,0.1c0,0.1-0.1,0.1-0.1,0.2c0,0,0,0,0,0c0,0,0,0,0,0c0,0,0,0,0,0.1
		l-9.6,34.4l-2.8,11.3C169.7,589.6,169.7,589.6,169.7,589.7z M184.5,546C184.6,546,184.6,546,184.5,546l1.1,0c0,0,0,0,0,0s0,0,0,0
		l4.3,0l0.9,0.2l3.3,12.3l3.9,13.1c0,0,0,0,0,0c0,0,0,0.1,0,0.1l1,2.3l0.7,2.5c1.2,4.2,2.8,9.5,4.2,13l0.2,0.9l-5.1-0.2l-2.9-10
		c0,0,0-0.1,0-0.1c0,0,0-0.1-0.1-0.1c0,0,0-0.1-0.1-0.1c0,0,0-0.1-0.1-0.1c0,0-0.1-0.1-0.1-0.1c0,0-0.1-0.1-0.1-0.1
		c0,0-0.1-0.1-0.1-0.1c0,0,0,0-0.1,0c-0.1,0-0.1-0.1-0.2-0.1c0,0,0,0,0,0c-0.1,0-0.2-0.1-0.2-0.1c0,0,0,0,0,0c-0.1,0-0.2,0-0.3,0
		c0,0,0,0,0,0h-1.1c-1.4,0.1-2,0-2.8-0.2c-1-0.2-2.1-0.3-4.2-0.2h-1l-4.5-0.3c0,0,0,0,0,0c0,0-0.1,0-0.1,0c-0.3,0-0.5,0.1-0.7,0.2
		c0,0-0.1,0-0.1,0.1c0,0-0.1,0.1-0.1,0.1c-0.1,0-0.1,0.1-0.2,0.2c0,0,0,0,0,0c-0.1,0.1-0.1,0.1-0.1,0.2c0,0,0,0,0,0
		c0,0.1-0.1,0.2-0.1,0.2c0,0,0,0,0,0c0,0,0,0,0,0.1l-2.2,9.4l-4.4-0.4l2.4-9.6L184.5,546z"/>
	<path class="st0" d="M181.7,572.3c0,0,0,0.1,0,0.1c0,0.1,0,0.1,0,0.2c0,0,0,0.1,0,0.1c0,0.1,0,0.1,0.1,0.2c0,0,0,0.1,0.1,0.1
		c0,0.1,0.1,0.1,0.1,0.1c0,0,0.1,0.1,0.1,0.1c0,0,0.1,0.1,0.1,0.1c0,0,0.1,0,0.1,0.1c0,0,0.1,0.1,0.1,0.1c0,0,0.1,0,0.1,0
		c0.1,0,0.1,0,0.2,0.1c0,0,0,0,0,0c0,0,0,0,0,0c0,0,0.1,0,0.1,0l2.5,0.3c0.1,0,0.1,0,0.2,0c0,0,0,0,0,0h0c0,0,0,0,0,0h0l2.1,0
		c1.4,0,1.6,0,3.9,0.4h1.1c0.1,0,0.2,0,0.3,0c0,0,0.1,0,0.1,0c0.1,0,0.2-0.1,0.2-0.1c0,0,0,0,0,0c0,0,0,0,0,0c0.1,0,0.1-0.1,0.2-0.1
		c0,0,0.1,0,0.1-0.1c0,0,0.1-0.1,0.1-0.1c0,0,0.1-0.1,0.1-0.1c0,0,0.1-0.1,0.1-0.1c0,0,0-0.1,0.1-0.1c0,0,0-0.1,0.1-0.1
		c0,0,0-0.1,0-0.1c0-0.1,0-0.1,0-0.2c0,0,0-0.1,0-0.1c0,0,0-0.1,0-0.1c0,0,0,0,0,0c0-0.1,0-0.1,0-0.2c0,0,0-0.1,0-0.1
		c0-0.1,0-0.1-0.1-0.2c0,0,0-0.1,0-0.1c0,0,0,0,0-0.1l-0.2-0.4v-0.4c0-0.4-0.1-0.7-0.4-1v-0.1c0,0,0,0,0,0c0-0.1,0-0.1,0-0.2
		c0,0,0-0.1,0-0.1c0,0,0,0,0-0.1l-4.3-15.2c0,0,0,0,0-0.1c0,0,0-0.1,0-0.1c0-0.1,0-0.1-0.1-0.2c0,0,0-0.1,0-0.1
		c0-0.1-0.1-0.1-0.1-0.2c0,0,0,0,0,0c-0.3-0.3-0.6-0.5-1-0.5c0,0,0,0-0.1,0c-0.1,0-0.1,0-0.2,0c-0.3,0-0.5,0.1-0.8,0.3c0,0,0,0,0,0
		c-0.1,0-0.1,0.1-0.2,0.1c0,0,0,0-0.1,0.1c0,0-0.1,0.1-0.1,0.1c0,0-0.1,0.1-0.1,0.1c0,0,0,0,0,0.1c0,0.1-0.1,0.1-0.1,0.2
		c0,0,0,0,0,0l-2.1,8.1c0,0,0,0,0,0l-2.5,8.9c0,0,0,0.1,0,0.1c0,0,0,0,0,0.1c0,0,0,0,0,0c0,0.1,0,0.1,0,0.2
		C181.7,572.2,181.7,572.3,181.7,572.3z M187.7,571.1l-1.9,0L185,571l2-7.2c0,0,0,0,0,0c0,0,0,0,0,0l0.7-2.9l2.7,9.8v0.5
		c0,0,0,0.1,0,0.1C189.4,571,188.9,571,187.7,571.1z"/>
	<path class="st0" d="M1227.7,474.3c0,0,0-0.1,0-0.1l-1.4-18c0,0,0,0,0-0.1l0,0c0-0.1,0-0.1,0-0.2c0-0.3-0.1-0.6-0.2-0.9l0-0.5
		c0-0.6-0.3-1.3-0.7-1.9c-0.1-0.5-0.3-0.9-0.6-1.3l-1.1-1.4c-0.2-0.2-0.4-0.4-0.6-0.6l-1-0.8c-0.1-0.7-0.2-1.3-0.3-2
		c-1.2-8.1-2.7-16.1-4.4-23.9c1.5-2.2,2.2-4.9,1.9-7.1v-1.1v0c0-0.1-0.1-0.2-0.1-0.3c0-0.1,0-0.3,0-0.4l-4.6-17.4
		c0-0.1-0.1-0.1-0.1-0.2c0-0.1-0.1-0.2-0.1-0.3c0,0,0-0.1,0-0.1l-1-1.9l-2.1-2.8c-0.4-0.5-0.9-0.8-1.4-1l-0.3-0.1l-0.3-0.2
		c0,0,0,0,0,0l-0.3-0.3c-0.1-0.1-0.2-0.1-0.3-0.2c-0.1-0.1-0.2-0.2-0.3-0.2l-0.1-0.1c-2.5-7.7-5.4-15.2-8.4-22.6l0.9-2
		c0.1-0.2,0.2-0.5,0.3-0.7l0.4-2.3v-0.7c0-0.3-0.1-0.6-0.2-0.9l-0.2-0.9c0-0.5-0.1-0.9-0.3-1.3l-0.3-0.6l-3.6-8.2l-3.7-7.4
		c-0.1-0.6-0.3-1.1-0.8-1.5l-0.5-0.6c-0.1-0.3-0.3-0.5-0.6-0.8l-1.1-1.1c-0.1-0.1-0.2-0.2-0.4-0.3c-0.1-0.1-0.2-0.1-0.4-0.2
		l-0.6-0.5c0,0-0.1,0-0.2-0.1c0,0-0.1-0.1-0.1-0.1l-4.2-2.4c-3.5-6.5-7.2-12.9-11.1-19.2c0.8-2.6,0.6-5.5-0.6-8.4l-0.4-0.7
		c0-0.1-0.1-0.1-0.1-0.2c0-0.1,0-0.1-0.1-0.2l-10-13.9c0,0-0.1,0-0.1-0.1c-0.1-0.1-0.3-0.3-0.4-0.4c-0.1-0.1-0.1-0.1-0.2-0.2
		c-0.2-0.3-0.5-0.6-0.6-0.7c-0.1-0.1-0.1-0.1-0.2-0.2c-0.4-0.5-1-0.8-1.7-0.9l-4.3-3.2c-0.8-0.5-1.7-1.1-2.6-1.6
		c-4.4-5.8-9.1-11.4-13.8-16.8c0-0.3-0.1-0.5-0.2-0.7l-0.8-2l-0.8-1.4c0-0.7-0.3-1.4-0.9-2l-6.2-5.8l-5.4-4.5c-0.2-0.4-0.6-0.7-1-1
		c0,0,0,0,0,0c-0.2-0.1-0.3-0.2-0.5-0.3l-0.1-0.1v0c-0.1-0.1-0.1-0.1-0.2-0.2c-0.3-0.4-0.7-0.7-1.2-0.8l-1.1-0.8
		c-62-61.3-144.6-98.4-228.8-96.3C806.7,68,694,13,568.4,1.8l-26-1.4c-0.8-0.1-1.6,0-2.4,0.1c-0.4-0.1-0.9-0.1-1.3-0.1L526.5,0
		h-11.7c-0.3,0-0.7,0-1,0.1c-0.5-0.1-1-0.1-1.5-0.1l-29.7,1.4c-133.1,10.8-255.6,70.5-345,168C48.2,266.9-0.7,393.8,0,527.2
		l0.7,18.1C10.9,791,194.8,998.5,438,1038.7l14,2.2l14.1,1.8l0.9,0c0.4,0,0.7,0,1-0.1l9.9,1.1c15.1,1.3,30.5,1.9,45.9,1.9
		c31.5,0,62.2-2.7,91.1-8.1l9.7-1.8c0.4-0.1,0.7-0.2,1-0.3l11.3-2.3l10.7-2.5c126.2-31.1,231.8-106.4,302.6-206.5l7.3-1.6
		c79.4-11.8,153.7-58.4,203.9-128c10.2-14.2,19.2-28.9,27.1-44.2c0.2-0.2,0.4-0.4,0.6-0.6c0.1-0.1,0.2-0.1,0.3-0.2
		c0.3-0.3,0.6-0.6,0.8-1c0.2-0.2,0.4-0.4,0.5-0.7l0.4-0.7c0,0,0,0,0,0l7.8-15.2c0.2-0.4,0.3-0.9,0.3-1.3l0.1-0.1
		c0.1-0.3,0.2-0.7,0.3-1.1l0.2-0.7c0.1-0.3,0.1-0.6,0.1-0.9l-0.2-1.3c3.8-9.1,7.2-18.3,10.2-27.6c0.1-0.1,0.1-0.1,0.2-0.2
		c0.1-0.1,0.2-0.1,0.2-0.2l0.7-0.9c0,0,0.1-0.1,0.1-0.1c0.5-0.3,1-0.7,1.3-1.3l1.1-2.1c0.2-0.4,0.3-0.8,0.3-1.2l2.4-8.3l2.1-8.2
		l0.2-0.4c0.2-0.4,0.3-0.9,0.3-1.4c0-1.7-0.2-3.5-0.9-5.3c2-9.2,3.7-18.6,4.9-27.9l0.8-0.8c0.2-0.2,0.4-0.5,0.6-0.8l0.5-0.6
		c0.6-0.6,0.9-1.3,0.9-2.1v0c0.2-0.3,0.3-0.7,0.3-1c0,0,0,0,0,0c0-0.1,0.1-0.1,0.1-0.2c0.1-0.2,0.1-0.4,0.1-0.5
		c0-0.2,0.1-0.3,0.1-0.5l1.4-17.8c0,0,0-0.1,0-0.1v-0.4v-2.5c0-0.5-0.1-0.9-0.3-1.3l-1-2.3c-0.1-0.4-0.4-0.7-0.7-1l-0.2-0.2
		c0.3-9.1,0.3-18.3-0.1-27.5l0.3-0.4c0.3-0.3,0.5-0.6,0.6-1l0.3-0.6c0.6-0.5,1-1.3,1-2.2v0c0.2-0.4,0.4-0.9,0.4-1.4v-1.8v0v0
		C1227.8,474.4,1227.7,474.3,1227.7,474.3z M1211.1,574.3c-1.5,0.5-3.1,1.1-4.7,1.7c-3.1,1.2-6.3,2.3-9.4,3c0,0,0,0,0,0.1
		c-0.4,0.1-0.7,0.2-1.1,0.2l-3.5,0.7c0,0,0,0,0,0c0,0,0,0,0,0l-3.2,0.7c-10.8,2.6-25.5,4.7-39.2,5.6l-2.9,0.2V586
		c0-0.2,0-0.5-0.1-0.7l-0.7-2.8c-0.1-0.3-0.2-0.6-0.4-0.9l-0.2-0.3l1.2-0.1c26-2.2,44.9-5.8,57.6-10.9c0.8-0.3,1.6-0.6,2.3-1
		l0.8-0.3l0.9-0.3l0.7,0.3c1.7,0.7,2.5,2.1,3,4.9L1211.1,574.3z M1205.9,551.4l-1.7,9.1l-0.2,0.1l-0.9,0.4l-5,2.1
		c-0.2,0.1-0.4,0.3-0.6,0.4c-0.2,0-0.4,0.1-0.6,0.1c0,0-0.1,0-0.1,0l-3.2,0.7c-0.1,0-0.2,0.1-0.3,0.2c-0.1,0-0.2,0-0.3,0.1l-0.8,0.4
		h-0.4c-0.5,0-0.9,0.1-1.3,0.3l-0.4,0.2l-5.7,1.3c-9.8,2.3-20,4-32.2,5.2l-4.6,0.4c-0.1,0-0.2,0.1-0.3,0.1c-0.4,0-0.8,0-1.2,0.2
		l-0.2,0.1l-1.1,0.1c0.3-0.7,0.6-1.3,1-1.7l5-1.1C1171.2,565.9,1189.6,559.6,1205.9,551.4z M1220.4,525.4l-0.7,6.3l-0.2,1.4
		c-0.1,0-0.1,0.1-0.1,0.1c-0.1,0.1-0.1,0.1-0.2,0.1c-0.1,0.1-0.2,0.1-0.4,0.2l-0.8,0.8c-3.2,1.9-6.1,3.4-9.1,4.9
		c-0.3,0.2-0.6,0.3-0.9,0.5c-1.7,0.9-3.5,1.8-5.3,2.8l-6.7,2.8l-2.2,0.7c-12.7,5.5-26.9,9-39.2,11.9l-6.1,1.3h-0.4
		c-0.5,0-0.9,0.1-1.3,0.3l-0.9,0.5c-6,3.5-7.8,10.7-9.2,16.3l-0.4,2.9l0,2.6c-0.4,6.4,2.4,9.2,4.9,10.3c0.4,0.2,0.8,0.3,1.3,0.3h1.1
		c0.1,0,0.1,0,0.2,0l6.4-0.3c14-1,29.1-3.1,40.1-5.7l3.2-0.7l0,0l3.4-0.7c3.9-0.7,7.8-2.1,11.5-3.5c0.5-0.2,1.1-0.4,1.6-0.6
		c0.2-0.1,0.4-0.1,0.6-0.2l-0.7,2.9l-1.6,4.7l-1.1,3.1l-0.8,0.8l-1.5,1.1c-3.4,3.1-6.7,5.2-10.3,7.5c-1.5,1-3.1,2-4.5,3
		c-0.5,0.4-1,0.7-1.5,1.1l-7.1,3.5c-0.1,0-0.1,0.1-0.1,0.1c-0.1,0-0.1,0-0.2,0.1l-1.7,1.2c-14.1,6.3-25.8,10.9-40.9,14.7l-6.4,1.4
		c-0.1,0-0.2,0.1-0.2,0.1c-0.1,0-0.2,0.1-0.4,0.1c0,0-0.1,0-0.1,0l-1.3,0.6c-6,2.7-11.2,11.9-12.7,17.9l-0.2,2l-0.4,1.1
		c-0.1,0.3-0.1,0.6-0.1,0.9v2.8c0,0.5,0.1,0.9,0.3,1.3l0.3,0.7c0,0,0.1,0.1,0.1,0.2c0.2,0.7,0.7,1.6,1.2,2c0.2,0.2,0.5,0.4,0.8,0.5
		l0.3,0.1c0.6,0.6,1.3,0.9,2.1,0.9h1.4c0,0,0,0,0,0c0,0,0,0,0,0l0,0l0,0c0.2,0,0.4,0,0.6-0.1l1.2-0.3h1.8h0h0.7
		c0.4,0,0.9-0.2,1.4-0.5l5-0.6c11.7-1.6,23.6-4.4,35.5-8.4l0.4-0.2c0,0,0,0,0,0l2.1-0.9v0c0,0,0,0,0,0l1.3-0.5l0.3-0.1c0,0,0,0,0,0
		c0,0,0.1,0,0.1,0l3.4-1.4c4-1.3,7.7-3.3,11.1-5.3l-2.8,5.4l-1.4,1.4l-1.7,1.7c-4.5,4.2-10.4,8.6-15.5,12.4
		c-1.2,0.9-2.3,1.7-3.4,2.5l-4.3,2.5c0,0,0,0-0.1,0.1c0,0-0.1,0-0.1,0l-1.5,0.9c-0.1,0.1-0.2,0.2-0.3,0.3c-0.2,0.1-0.4,0.1-0.5,0.2
		l-5,2.8c0,0,0,0,0,0l-5.1,2.7c-10.9,5.1-22.6,10.4-34.9,13.3l-6.6,1.7c0,0,0,0,0,0l-0.2,0c-0.1,0-0.2,0.1-0.2,0.1
		c-0.1,0-0.2,0-0.3,0.1l-0.1,0c-0.8,0-1.5,0.3-2.1,0.9l-0.6,0.3c-0.3,0.1-0.6,0.3-0.9,0.5l-3.8,3l-5.7,6.5l-1.6,2.4l-2.1,4.2
		l-0.9,2.2c-0.1,0.3-0.1,0.6-0.1,0.9v2.5c0,0.8,0.7,1.9,1.2,2.5l1.3-0.9c0,0,0,0,0,0c0,0.1,0,0.2,0,0.3c0,0.1,0.1,0.2,0.1,0.2
		c0,0,0,0,0,0l-0.7,1c0.4,0.4,0.9,0.6,1.5,0.8l0.3,0.2c0.4,0.2,1.2,0.3,1.7,0.3l0,0l0,0c0,0,0,0,0,0s0,0,0,0c0.2,0,0.3,0,0.5,0
		l6.5-1.1c12.7-2.6,20.1-4.3,32.2-9c0.3-0.1,0.6-0.2,0.9-0.4l0.7-0.3l4-1.7c0.1,0,0.2-0.1,0.3-0.1c0.1,0,0.1,0,0.2-0.1
		c0.1-0.1,0.2-0.1,0.4-0.2c0.1-0.1,0.2-0.2,0.3-0.3c0,0,0.1-0.1,0.1-0.1l3.5-1.4c0,0,0.1-0.1,0.1-0.1c0,0,0,0,0,0c0,0,0,0,0,0
		c0,0,0,0,0,0l2.3-1.3l0.3-0.2l0.4-0.2l3.2-1.6l-1.9,1.9l-0.4,0.4l-4.8,3.9l-2.5,2l-3.3,2.4l-4.7,3.5l-8.1,5.3c0,0,0,0,0,0l-2.1,1.2
		c-0.1,0.1-0.2,0.1-0.3,0.2c-0.1,0.1-0.2,0.1-0.2,0.2c-0.3,0.1-0.5,0.3-0.8,0.4c-0.2,0.1-0.4,0.3-0.6,0.4l-0.3,0.1c0,0,0,0-0.1,0.1
		l-0.3,0.2c-0.1,0-0.2,0.1-0.3,0.2c-0.1,0-0.2,0-0.3,0.1l-4.3,2.7c-2.8,1.2-5.6,2.5-8.3,3.8c-2.1,1-4.2,2-6.3,2.9c0,0,0,0,0,0
		l-1.4,0.6c-0.2,0.1-0.4,0.2-0.6,0.3c-4.2,1.9-8.5,3.6-12.8,4.9l-5,1.4c0,0,0,0-0.1,0c0,0,0,0-0.1,0l-2.1,0.7
		c-0.1,0-0.1,0.1-0.2,0.1c-0.1,0-0.1,0-0.2,0.1l-0.5,0c-0.1,0-0.3,0.1-0.4,0.1c-0.1,0-0.3,0-0.4,0l-6.4,1.8c-0.1,0-0.1,0.1-0.2,0.1
		c-0.1,0-0.2,0.1-0.2,0.1c0,0-0.1,0-0.1,0l-0.1,0c-0.5,0-1,0.1-1.4,0.4c-6.9,3.7-11.9,7.6-16.1,12.4l-1.4,1.8
		c-0.1,0.2-0.2,0.3-0.3,0.5l-0.5,0.7c-0.5,0.5-0.7,1.1-0.8,1.7c-0.3,0.4-0.4,0.9-0.4,1.5v1.4c0,0.8,0.7,1.9,1.2,2.5
		c0.6,0.5,1.3,0.9,2.1,0.9h1.8l0,0c0.2,0,0.4,0,0.5,0l5.7-1.1c0.1,0,0.1,0,0.2-0.1c0.1,0,0.2,0,0.2,0l1.2-0.2c0.4,0,0.9-0.1,1.2-0.3
		c0,0,0.1,0,0.1,0l0.4,0c0.3,0,0.5,0,0.8-0.1l4.9-1.4c5.2-1.4,9.4-2.7,13.1-4c0.1,0,0.3-0.1,0.4-0.1c0.3-0.1,0.5-0.2,0.8-0.3
		c0.5-0.2,1-0.4,1.5-0.6l-0.2,0.1l-1.9,1.3l-6,3.5c0,0,0,0,0,0c0,0,0,0,0,0h0l-3,1.7c0,0,0,0,0,0c0,0,0,0,0,0c0,0,0,0,0,0l0,0
		c0,0,0,0,0,0l-9,4.8l-10.7,4.7c-0.1,0-0.1,0.1-0.2,0.1l-3.5,1.5l-14,5.1h-0.5c-0.3,0-0.6,0.1-0.9,0.1l-1.1,0.4c0,0,0,0,0,0l-2,0.7
		l-6.3,1.7l-2.1,0.5l-4.2,2l-0.2,0.1c-0.2,0.1-0.4,0.2-0.6,0.3l-0.4,0.2l-5.8,2.7l-6,4c-1.3,0.6-2.2,1.6-3.1,2.5
		c-0.3,0.3-0.5,0.6-0.8,0.8c-0.6,0.6-1,1.4-1,2.2v0.7c0,1.1,0.7,2,1.6,2.5c0.3,0.3,0.8,0.5,1.4,0.6l-2.9,1.2c0,0,0,0,0,0l0,0
		c0,0,0,0,0,0l-8.4,3.2l-1.7,0.6l-6.3,2c-0.5,0-0.9,0.1-1.4,0.2l-0.5,0.2c-0.1,0-0.2,0-0.3,0l-1.2,0.4l-7.7,2c0,0,0,0,0,0
		c0,0,0,0,0,0l-1,0.3l-3.3,0.9v0c0,0,0,0,0,0l-1.3,0.3l-0.1,0l-4.4,1.6c-0.4,0.1-0.8,0.3-1.2,0.4c-0.8,0.2-1.7,0.5-2.5,0.8l0-0.6
		c61.4-91.8,94.1-203.1,87.8-319.8l-0.7-10.7l-1-10.2c-11.2-116.6-60.6-221.8-135.5-303.3c5.7,0.2,11.4,0.7,17.1,1.3l-0.1-2.9
		l0.6,0.1c0.1,0,0.2,0,0.3,0h1.1c0.4,0.2,0.7,0.3,1.1,0.4l2.1,0.2l4.1,0.4l6.1,1l0.2,0c0,0,0.1,0,0.1,0l6.1,1l1.5,0.4
		c0.3,0.1,0.6,0.3,0.9,0.3l1.1,0.2l0.1,0c-0.7,0.1-1.3,0.4-1.8,0.9c-0.5,0.5-0.8,1.2-0.8,2v1.1c0,0.8,0.7,1.9,1.2,2.4
		c0.3,0.3,0.8,0.5,1.3,0.7l1.9,1.3l1.5,0.7c0.1,0,0.1,0.1,0.2,0.1l1.7,0.8c1.7,0.5,3.5,1.2,5.2,1.9c3.4,1.3,6.8,2.7,10.2,3.1
		l1.4,0.4c0.2,0.1,0.5,0.1,0.7,0.1h1.2l6.3,0.7c0.1,0,0.2,0,0.3,0l1.8,0.3c0.2,0.1,0.5,0.1,0.7,0.1c0,0,0,0,0,0h1.9l5.5,1
		c5.1,0.8,10.2,1.9,15.6,3.3c0.2,0.1,0.4,0.2,0.6,0.3l1.6,0.3c0.8,0.2,1.7,0.5,2.5,0.7c0,0,0,0,0,0c0.9,0.3,1.9,0.5,2.8,0.8
		c0.5,0.1,0.9,0.3,1.4,0.4c0.4,0.1,0.9,0.3,1.3,0.4c2.3,0.7,4.6,1.4,7,2.2c0.3,0.1,0.6,0.2,0.9,0.3l0,0l0.4,0.2
		c0.4,0.2,0.8,0.3,1.2,0.3c0.2,0.1,0.5,0.2,0.7,0.2c1.2,0.5,2.5,0.9,3.7,1.4c0.2,0.1,0.4,0.2,0.6,0.3c0,0,0,0,0,0c0,0,0,0,0,0
		l6.4,2.7c-0.1,0-0.3-0.1-0.4-0.1c-3.4-0.7-6.8-1.3-10.7-1.9c0,0,0,0,0,0c-1.9-0.3-3.9-0.5-6-0.8l-5-0.4c0,0-0.1,0-0.1,0
		c0,0-0.1,0-0.1,0h-1.8h-2l-5.6-0.3c0,0-0.1,0-0.1,0c0,0-0.1,0-0.1,0h-0.7c-0.4,0-0.8,0.1-1.2,0.4c-1,0.1-1.8,0.7-2.3,1.6
		c-0.4,0.5-0.7,1.1-0.8,1.7c-0.3,2.6,1.2,4,2,4.6c0.1,0.1,0.3,0.3,0.7,0.7l2.4,2.3c3.4,2.7,10.1,7.5,16.9,9l2.1,0.7
		c0.2,0.1,0.4,0.1,0.6,0.1c0.1,0,0.1,0.1,0.2,0.1l6,0.3l0.7,0.2c0.3,0.1,0.6,0.2,0.9,0.2h1c0,0,0,0,0,0l1.2,0.2c0.1,0,0.2,0,0.3,0.1
		c0.1,0,0.1,0.1,0.2,0.1l5.3,0.7c9,1.3,21.4,4.3,31,7.6l1.3,0.5c0,0,0,0,0,0l1,0.4l2.6,0.9c0,0,0,0,0,0l1.8,0.7c0.1,0,0.3,0,0.4,0.1
		l0.2,0.1c0.2,0.1,0.3,0.1,0.5,0.1l0.6,0.4c0.3,0.2,0.6,0.3,0.9,0.4l1.2,0.3l8.5,3.7l1.1,0.6c0,0,0.1,0.1,0.1,0.1
		c0.1,0.1,0.2,0.2,0.3,0.2c0.3,0.2,0.5,0.3,0.9,0.4l6.3,3.3l7.1,4.1c1.1,0.7,2.2,1.4,3.3,2.1c0.2,0.1,0.4,0.2,0.6,0.4l-3.5-1.3
		c0,0,0,0,0,0l0,0c-0.1-0.1-0.1,0-0.1-0.1c-0.1,0-0.1,0-0.2-0.1l-2.2-0.7c-0.2-0.1-0.4,0-0.6-0.1l-4-1.4c-0.1,0-0.2,0-0.3,0
		c0,0-0.1,0-0.1,0c0,0-0.1,0-0.1,0c-0.1,0-0.3-0.1-0.4-0.1h-0.4l-0.4-0.1l-4.2-0.9c-0.7-0.2-1.4-0.3-2.1-0.5
		c-10.4-2.4-18.4-2.8-28.4-3.3l-10.3-0.2h0h-0.7c-0.4,0-0.9,0.2-1.3,0.4c-0.5,0.1-1,0.4-1.5,0.8l-0.7,0.7c-0.2,0.3-0.4,0.6-0.6,1
		c-0.4,0.6-0.6,1.5-0.6,2.1c0,0.3,0.1,0.6,0.2,0.9l1,3.3c0.1,0.4,0.3,0.8,0.6,1.2l2.1,2.5c4.2,5,6.9,8.3,15.4,11.9l2.3,0.6
		c0.2,0.1,0.4,0.1,0.6,0.1c0.1,0,0.1,0.1,0.2,0.1l6.8,0.3c15.5,2.2,27.8,4.5,44.6,10.1l1.8,0.8c0,0,0,0,0,0l0.3,0.1
		c0.2,0.1,0.4,0.3,0.6,0.4c0.3,0.2,0.7,0.3,1,0.3l1.7,0.6l3.2,1.5l1.5,0.7c1.1,0.4,2.4,0.9,3.7,1.6c5.7,2.7,13.2,7,17.3,9.8l2.1,1.4
		l1.7,1.1l2.6,3.6l0.9,1.3c-0.2-0.1-0.4-0.1-0.5-0.2c-1.8-0.6-3.6-1.2-5.4-1.7c-1.5-0.4-3.1-0.9-5.1-1.5c-0.1,0-0.3-0.1-0.4-0.1
		l-0.5-0.1l-3.2-0.6l-0.9-0.3c-0.3-0.1-0.5-0.1-0.9-0.1c0,0,0,0-0.1,0h-0.3l-2.4-0.7c-0.9-0.1-1.8-0.2-2.6-0.4
		c-13.8-2-26.9-2.3-38-2.1l-6.4,0.4c-0.1,0-0.1,0-0.2,0c-0.2,0-0.4,0.1-0.6,0.2c-0.1,0-0.3,0.1-0.4,0.1c-0.1,0-0.2,0-0.4,0.1
		c-0.2,0.1-0.5,0.1-0.7,0.2l-0.7,0.4c-0.6,0.3-1,0.8-1.3,1.3l-0.1,0.3c-0.6,0.6-0.9,1.3-0.9,2.1v3.5c0,0.2,0,0.5,0.1,0.7l1.2,3.6
		c2.1,4.8,7.5,13,13.8,15.7l1.4,0.7c0.2,0.1,0.4,0.2,0.6,0.2l1.4,0.4c0.1,0,0.3,0,0.4,0.1c0,0,0.1,0,0.1,0l6.6,0.3
		c14,1.3,28.9,3.2,42.6,8l2.1,0.7c0.1,0,0.1,0,0.2,0c0.1,0,0.1,0.1,0.2,0.1l5.7,1.9c5.2,2,10,3.9,15.1,6.6l6.3,3.5l0.6,0.3l0.4,0.2
		l3.5,7.3l1.1,2.6c-0.5-0.1-1-0.2-1.5-0.3c-2.6-0.5-5.3-0.8-7.8-1c-1.4-0.2-2.8-0.3-4.4-0.5l-3.5-0.4c-0.1,0-0.1,0-0.1,0
		c-0.1,0-0.1,0-0.2,0c0,0,0,0,0,0l0,0h-0.7c0,0,0,0,0,0l-2.3,0c-12.3-1-25.6-0.2-36.9,0.7l-5.6,0.3h-0.6c-0.1,0-0.2,0-0.3,0.1
		c-0.1,0-0.2,0-0.3,0l-1.2,0.3h-1.8h0h-0.7c-0.6,0-1.4,0.4-2,0.8c-3.7,2-3.6,6.2-3.5,8.8c0,0.6,0.1,1.2,0,1.7c0,0.3,0,0.7,0.1,1
		l1.5,5.2c2.7,6.8,4.8,10.3,11.1,14.2c0.5,0.3,1,0.4,1.5,0.4h1.3l7.4,0.4c0,0,0.1,0,0.1,0h0.6l5.1,0.3c3,0.4,6.1,0.7,9.1,1
		c8.3,0.9,16.8,1.7,25.2,4l2.1,0.4c0,0,0,0,0,0l1.3,0.3c2,0.6,4,1.2,6,1.8c4,1.1,7.8,2.2,11.7,3.9l5.4,1.9l0.2,0.2
		c0.1,0.1,0.2,0.1,0.3,0.2l1.5,5.1l0.6,2.1l0.5,2l0.8,3.5l-0.5,0.1h-2.6l-2.5,0.4l-9.6,0.9c0,0,0,0,0,0l-1.2,0.1c0,0,0,0,0,0
		l-4.3,0.4c-7.7,0.7-15.3,1.7-22.9,2.7c-6,0.8-11.9,1.6-17.9,2.2l-6,0.7c-0.1,0-0.2,0.1-0.4,0.1c-0.2,0-0.4,0.1-0.5,0.1
		c0,0-0.1,0-0.1,0l-0.1,0c-0.8,0-1.5,0.3-2.1,0.9l-1,1c-0.2,0.2-0.4,0.5-0.6,0.8l-0.5,0.6c-0.2,0.2-0.4,0.5-0.6,0.8l-0.3,0.7
		c-0.2,0.4-0.3,0.9-0.3,1.3l-0.6,2.3c-0.1,0.3-0.1,0.6-0.1,0.9l0,5.3l0.7,5.4c0,0.2,0.1,0.4,0.2,0.6l1.7,4.9
		c0.1,0.2,0.2,0.5,0.3,0.7l2.4,3.8c0.2,0.3,0.5,0.6,0.8,0.8l1.8,1.5c0.6,0.6,1.3,0.9,2.1,0.9l0.1,0c0.4,0.2,0.9,0.3,1.3,0.3h0.7
		c0,0,0,0,0,0h7.1c0,0,0,0,0,0h0.5l5,0.4c9.9,0.2,21.6,0.5,33.7,1.8h2.1c0,0,0,0,0,0l3.7,0.7c0,0,0.1,0,0.1,0c0,0,0,0,0,0l2.7,0.3
		c1.7,0.3,3.6,0.5,5.6,0.7c2.8,0.3,5.6,0.6,8.2,1.2c0.7,0.2,1.3,0.3,2,0.5l1.1,13.5l-0.3,0.1c-4,1.9-9.1,3.3-13.9,4.6c0,0,0,0,0,0
		c-0.2,0.1-0.4,0.1-0.6,0.2l-3,1l-2.1,0.5l-1.5,0.6c0,0-0.1,0-0.1,0c-0.1,0-0.3,0-0.4,0.1l-1.9,0.6c-12.8,3-22.8,5.2-32.5,7.1l-5,1
		c0,0,0,0,0,0c-0.1,0-0.2,0-0.2,0c-0.1,0-0.1,0-0.2,0l-7.1,1.1c-0.1,0-0.2,0.1-0.3,0.1c-0.2,0-0.3,0.1-0.5,0.1c0,0-0.1,0-0.1,0
		l-0.5,0.3c-6.2,2.6-8.6,12.9-7.7,21.3c0.8,7.1,3.8,11.6,8.3,12.3c0.2,0,0.7,0,0.9,0l18.4-0.4c9.6-0.3,19.5-0.7,29.3-1.3l4.2-0.3
		c0,0,0,0,0,0l2.3-0.2c0,0,0,0,0,0l8.3-0.6c0.1,0,0.1,0,0.1,0c0,0,0,0,0,0c0,0,0.1,0,0.1,0l2.5-0.3h2.1c0.1,0,0.1,0,0.2,0
		c0.1,0,0.1,0,0.2,0c0,0,0,0,0,0l0,0c0,0,0,0,0,0c0.1,0,0.2,0,0.3,0c0.1,0,0.1,0,0.2,0l0.1,0h0.1l-0.2,2.9L1220.4,525.4z
		 M1141.6,693.5c0,0-0.1,0.1-0.1,0.1c0,0,0,0,0,0c-0.1,0.1-0.1,0.1-0.1,0.1l-2.2,1.2l-0.4,0.1c0,0,0,0,0,0l-3.7,1.6
		c-0.3,0.1-0.6,0.3-0.8,0.5l-4.4,1.9c-12.1,4.8-19.4,6.5-32,9.1l-1.3,0.2c0-0.2,0.1-0.3,0.1-0.5v-1.4c0-0.3,0-0.6-0.1-0.9l-0.2-1.6
		c0-0.2-0.1-0.5-0.2-0.7l0.9-1.6l4.4-0.9c23.7-4.6,45.1-14.1,62.1-27.7l1-1c0.9,1.1,1.2,2.6,1,4c-0.1,0.5-0.2,0.9-0.4,1.3l-0.1,0.1
		c-0.1,0.1-0.1,0.1-0.1,0.2c-0.1,0.1-0.1,0.1-0.2,0.2l-0.1,0.1l-0.9,0.9c0,0,0,0.1-0.1,0.1c0,0,0,0-0.1,0.1l-0.2,0.1l-1.4,1.1
		c-4.9,4.4-8.5,6.6-13.5,9.6l-1.3,0.8l-1.9,1.2L1141.6,693.5C1141.7,693.5,1141.7,693.5,1141.6,693.5L1141.6,693.5z M1193.1,629
		l-0.1,0.1l-0.4,0.3c-0.1,0.1-0.1,0.1-0.2,0.2c-0.1,0.1-0.2,0.1-0.2,0.1l-4,2.6c-0.1,0-0.1,0.1-0.2,0.1c-2.1,1.3-4.1,2.5-6.2,3.6
		c-2.1,1.1-4.3,2.1-6.6,2.9l-1,0.4c0,0,0,0,0,0l-2.5,1c0,0-0.1,0-0.1,0.1c0,0-0.1,0-0.1,0l-1.4,0.5c0,0-0.1,0.1-0.1,0.1
		c0,0-0.1,0-0.1,0l-2.3,1c-11.3,3.8-22.8,6.5-34.2,8l-5.7,0.7c-0.3,0-0.5,0.1-0.7,0.2c0.3-1.8,0.1-3.1-1.3-6l3.2-0.4
		c19.7-3.1,40.8-7.7,61.2-20.4l1.2-0.9c1.3,1.2,2.1,3,2.1,4.5C1193.3,628.2,1193.3,628.6,1193.1,629z M1181.2,618.5l-5.6,3.1
		l-1.5,0.6c0,0-0.1,0-0.1,0l-0.2,0.1c-0.1,0.1-0.2,0.2-0.4,0.3c-0.1,0.1-0.3,0.1-0.4,0.3l0,0l-0.9,0.5l-5.9,2.4
		c-5.4,2.1-10.8,3.8-16.5,5.3c12.8-4.1,24.2-8.9,34.2-14.3L1181.2,618.5z M1088.8,745.4C1088.8,745.5,1088.8,745.5,1088.8,745.4
		c-7.2,3.5-13.1,5.7-23.5,8.5l-4.6,1.3h-0.6c-0.5,0-0.9,0.1-1.3,0.3l-0.1,0h-0.4c-0.3,0-0.6,0.1-0.9,0.2l-0.6,0.2l0.2-1.3v-0.9
		c1.8-2,4-3.6,6.5-5.1l6.4-1.8l13-4.4l6-2.7c10.2-3.9,19.7-8.3,28.6-13.4c0.1-0.1,0.3-0.2,0.4-0.2c1.1-0.6,2.1-1.2,3.1-1.8
		c0.6-0.3,1.1-0.6,1.7-1l-7.7,6.5l-4.8,3.4l-5.3,3.2c0,0,0,0,0,0c0,0,0,0,0,0l-4.7,3.1c-1.7,0.9-3.3,1.7-4.8,2.5
		C1093,743.4,1090.9,744.4,1088.8,745.4z M1018.8,788.5l2-0.7l0.2-0.1l0.8-0.4h0c0.2,0,0.5,0,0.7-0.1c0.1,0,0.1,0,0.2-0.1
		c0.2-0.1,0.4-0.2,0.6-0.3c0.1,0,0.1,0,0.2-0.1l0.4-0.2l6.2-1.6c1-0.3,2-0.6,3-1c-5.1,2.2-10.1,4-15.3,5.9l-0.1,0l-4,1.1l3.7-1.8
		l0.4-0.2L1018.8,788.5z M21.7,567.2c-5-52.9,0-104.7,14.1-151.9c8.4-26.6,19.9-51.5,34.4-74.2c39.5-62.1,96.1-99.6,159.4-105.6
		c5.9-0.6,11.8-0.8,17.7-0.8c57.2,0,112.9,26.1,158.6,74.8c50.8,54.1,83,129.3,90.8,211.9c7.8,82.6-9.9,162.6-49.6,225.2
		c-39.5,62.1-96.1,99.6-159.4,105.6c-63.3,6-125.9-20.3-176.3-74C84.3,749.5,62.6,714.8,47,676.3C33.9,642.3,25.3,605.5,21.7,567.2z
		 M269.9,864.7c6.3,0,12.5-0.3,18.8-0.9c67-6.3,126.8-45.7,168.3-111c41.2-64.8,59.5-147.4,51.4-232.6c-8-85.2-41.4-163-93.9-218.9
		c-52.9-56.4-119-83.9-186-77.6c-6.9,0.7-13.8,1.7-20.5,3c10.5-2.8,21.2-4.7,32.1-5.8c6.1-0.6,12.2-0.9,18.2-0.9
		C388,220.1,503,350.3,519,520.4c8.2,86.6-10.3,170.4-52,236c-41.2,64.9-100.3,104-166.3,110.2c-22,2.1-44,0.4-65.4-4.9
		C246.7,863.7,258.3,864.7,269.9,864.7z M103.9,801.5c51.1,54.5,113.8,83.7,178.4,83.7c6.7,0,13.4-0.3,20.1-0.9
		c71.6-6.7,135.3-48.8,179.6-118.3c43.8-68.9,63.2-156.6,54.7-247.2C519,331,385.1,189.6,238.3,203.3
		c-71.2,6.7-134.8,48.4-179,117.4C131.3,154.2,290,34.9,483.7,19.1l29.4-1.4c0.2,0,0.4,0,0.6-0.1c0.4,0,0.7,0.1,1.1,0.1l11.4,0
		l12.3,0.4c0.5,0,1.1,0,1.6-0.1c0.4,0.1,0.8,0.1,1.1,0.1l25.9,1.4c12.4,1.1,24.8,2.7,36.9,4.7c214.7,50.5,342.2,288.3,343.1,506.6
		v21.5c-2.1,169.4-83.6,371.3-256.5,447.2c-15.3,5.4-31.1,10.1-47.1,14.1l-10.3,2.4l-10.7,2.1c-0.4,0.1-0.7,0.2-1,0.3l-9.8,1.8
		c-41.5,7.7-87.2,9.7-132,5.9l-9.6-1.1c-0.3,0-0.6,0-0.9,0c-0.4,0-0.7,0-1.1,0.1l-13.6-1.7l-13.7-2.1
		c-144.6-23.9-267.6-109.1-343-226.4C99.8,797,101.8,799.3,103.9,801.5z M782.8,956.1c118-97.7,174.4-261.9,176.2-403.8v-21.6
		c-0.8-186.6-92.4-387.1-251.3-478.1c173.5,68.2,299.9,228.9,318.4,421.7l1,10l0.7,10.1C1038.3,685.5,940.2,861.6,782.8,956.1z
		 M973.5,179.7c0.2,0,0.4,0.1,0.6,0.1c0.9,0.2,1.7,0.3,2.6,0.5c0.1,0,0.3,0.1,0.4,0.1c0.4,0.1,0.8,0.2,1.2,0.2
		c1.7,0.3,3.3,0.7,5,1.1c-0.9-0.1-1.8-0.3-2.8-0.4l-4-0.4c0,0,0,0,0.1,0l-3.5-0.3c-0.1,0-0.3,0-0.4,0c-0.1,0-0.2,0-0.2,0l-0.2,0
		c0,0-0.1,0-0.1,0c-3.2-0.5-6.3-1.4-9.3-2.5l4.2,0.6c1.6,0.2,3.3,0.5,5.1,0.8C972.7,179.5,973.1,179.6,973.5,179.7z M1043.6,210.6
		c4.1,1.1,8.4,2.5,13.5,4.3l5,2.1h0l0,0c0,0,0,0,0,0l8.9,3.9c0,0,0.1,0.1,0.2,0.1c0.1,0,0.1,0.1,0.2,0.1c0.2,0.2,0.5,0.4,0.8,0.5
		l0.1,0.1c0.1,0.1,0.2,0.1,0.3,0.1c0.1,0.1,0.2,0.1,0.3,0.1c0.1,0,0.1,0.1,0.2,0.1l1.1,0.4c0,0,0,0,0.1,0l7.1,4.4
		c-4.6-1.9-9.4-3.5-14.2-5c-1.1-0.3-2.1-0.7-3.2-1c-0.5-0.1-1-0.3-1.4-0.4c-1.8-0.5-3.5-1-5.3-1.4c0,0,0,0-0.1,0c0,0,0,0,0,0
		c-3.6-0.9-7.2-1.8-10.8-2.5c-0.1,0-0.2-0.1-0.4-0.2l-13.4-2.9l-12.7-1.3c-2.9-1.2-5.5-2.6-7.6-4.3l-0.2-1.2l-0.2-0.7h2h1.7l4.7,0.3
		C1029.5,207.4,1036.2,208.6,1043.6,210.6C1043.5,210.6,1043.6,210.6,1043.6,210.6z M1129.3,264.3l1.5,1l0.4,0.7l1.1,2.2l0,0.1v0.1
		l-0.4,1.8l-0.2,1l-0.4-0.2l-1-0.6c-0.8-0.5-1.6-0.9-2.5-1.4c-0.2-0.1-0.4-0.2-0.6-0.3c-0.8-0.5-1.7-0.9-2.5-1.3
		c-0.2-0.1-0.4-0.2-0.6-0.3c-19.3-9.8-38-12.8-59.8-14.1h-4l-1.3-1.2c0-0.1,0-0.2,0.1-0.3c0.1-1.4,0-3.3-0.5-5l1.3,0l3.8,0.2
		c10.7,0.6,18.5,1,29.4,3.6l5,1.1c0,0,0,0,0,0c0,0,0,0,0,0c0.1,0,0.3,0,0.4,0c0.1,0,0.1,0,0.2,0h0.2l3.8,1.3
		c0.3,0.1,0.5,0.1,0.8,0.1l2,0.6l3.8,1.4c5.6,2,11.1,4.8,16.3,7.6l0.4,0.3L1129.3,264.3z M1148.8,318.5
		C1148.8,318.5,1148.8,318.5,1148.8,318.5l1.1,0.3c0,0,0.1,0,0.1,0c0.2,0.1,0.4,0.3,0.6,0.3l6.2,2.1l5.2,2l1.1,0.4l0.1,0.1l0.2,0.1
		c-1.2-0.4-2.3-0.8-3.5-1.3c-10.7-3.7-22.6-6.7-35.3-8.7c5.1,0.5,10.1,1.3,16.1,2.4l6.4,1.8c0.3,0.1,0.5,0.1,0.8,0.1L1148.8,318.5z
		 M1166.7,308.8c1.1,1.8,0.7,3.8-0.3,5.4c0,0,0,0,0,0.1c0,0,0,0.1-0.1,0.1c-0.1,0.2-0.2,0.4-0.4,0.5l-1.7-0.9
		c-2.2-0.9-4.5-1.7-6.7-2.4c-0.2-0.1-0.3-0.1-0.5-0.2c-0.6-0.2-1.1-0.4-1.7-0.5c-15.9-5.1-33.2-7.2-54.6-6.6h-3.1l0.4-2
		c0.4-2,0.4-2.5-0.2-4.3l2.2-0.1c11.5-0.1,25.2,0.1,39.2,2.4l2.5,0.7c0.2,0,0.3,0.1,0.5,0.1c0.1,0,0.2,0.1,0.3,0.1c0,0,0,0,0,0
		l0.8,0.2c0.1,0,0.2,0,0.2,0c0,0,0,0,0,0c0.1,0,0.1,0.1,0.2,0.1l3.5,0.6c1.9,0.6,3.6,1.1,5.3,1.6c4,1.2,7.5,2.2,11.9,4.4l1.6,0.6
		L1166.7,308.8L1166.7,308.8L1166.7,308.8z M1177.3,357.6c1.5,0.2,3,0.3,4.4,0.5c4,0.4,7.7,0.7,11.5,1.9l1.3,0.3
		c0.1,2-0.1,3.2-0.9,4.1c-0.4,0.4-0.8,0.9-1.5,1.3l-0.1,0.1l-0.2,0.2l-1.9-0.4c-1.7-0.4-3.4-0.7-5.2-1c-14.5-2.5-33.3-2.8-55.9-0.8
		l-1.5,0.1l0.6-2.5c0.1-0.2,0.1-0.5,0.1-0.7v-2.3l0.2,0h0.4c0.1,0,0.1,0,0.2,0l5.7-0.4c11.2-0.9,24.1-1.6,36.3-0.7h3L1177.3,357.6z
		 M1131.5,372.1c11.5-1,22.6-1.2,36.6-0.7l6.4,0.7c0.1,0,0.1,0,0.2,0c0.1,0,0.1,0,0.2,0h1.1l0.1,0c0.4,0.2,0.9,0.3,1.3,0.3h0.5
		l2.7,0.3l0.8,0.3c0.3,0.1,0.6,0.1,0.9,0.1h0.7l5.9,1.3l1.1,2.5l1.1,2.6l1.3,3.6c-1.9-0.6-3.8-1.2-5.8-1.7c0,0,0,0,0,0
		c-15.1-4.3-31.4-6.7-51.6-7.9l-5.5-0.3l-0.5-0.5l-0.2-0.5L1131.5,372.1z M1212,417.8c0,0,0.1,0,0.1,0l0.6-0.1l0.1,0
		c0,0.4-0.1,0.8-0.3,1.1c-0.3,0.8-0.9,1.4-1.9,2.2c-0.3,0.2-0.6,0.4-0.9,0.7l-0.1,0l-1,0.2l-2.5,0.4h-0.1h-1.1
		c-1.2,0.1-2.5,0.2-3.8,0.4c-0.7,0.1-1.4,0.1-2.1,0.2c0,0,0,0,0,0c-14.4,1.1-29,2.9-43.3,4.7l-8.7,1.1c0.4-1.2,0.5-2.4,0.5-3.6
		l3.4-0.4c6-0.7,12-1.4,18-2.2c7.6-1,15.1-2,22.7-2.7l4.2-0.4c0,0,0,0,0.1,0l2.3-0.2c0,0,0,0,0,0l8.7-0.8c0,0,0,0,0,0
		c0,0,0.1,0,0.1,0l2.1-0.3h2.4c0,0,0,0,0.1,0c0,0,0.1,0,0.1,0c0,0,0,0,0,0C1211.9,417.8,1212,417.8,1212,417.8z M1203.7,430.2
		l1.2-0.2l0.1,0l1.6,8l0,0l0,0.1l0.8,6l-2.6-0.5c-0.1,0-0.2,0-0.3,0c-0.1,0-0.2-0.1-0.3-0.1h-0.9l-0.6-0.2c-0.1,0-0.2,0-0.3,0
		c-0.1,0-0.1-0.1-0.2-0.1l-7.1-1.1c-0.1,0-0.2,0-0.2,0c-0.1,0-0.1,0-0.2,0h-0.1l-2-0.4h-1.8c0,0,0,0,0,0h-0.1l-2.4-0.4h-1.6l-9.4-1
		c-0.1,0-0.1,0-0.2,0c-0.1,0-0.1,0-0.2,0l-1.5,0.1l-1.8-0.4c-0.1,0-0.2,0-0.2,0c-0.1,0-0.2-0.1-0.3-0.1l-13.3-0.3l-2-0.4h-6.4
		c0,0,0,0,0,0l-2,0l-2.1-0.4c-0.1,0-0.2,0-0.2,0c-0.1,0-0.2,0-0.2,0h-1.4c0,0,0,0,0,0h-0.3c-0.2-0.6-0.4-1.2-0.4-1.9h0.4l0,0
		c0.1,0,0.3,0,0.4,0l12.2-1.7h0.4h0c0.1,0,0.2,0,0.3,0l12.4-1.4c0,0,0,0,0,0c0,0,0.1,0,0.1,0l3.8-0.7c0,0,0,0,0,0l2.1-0.3l2.5,0
		l4.8-0.7l2.1,0l1.5-0.3h0c0,0,0,0,0,0c0.2,0,0.4,0,0.6-0.1l1.2-0.3h1.8h0.4l0,0c0.1,0,0.2,0,0.3,0l6.7-0.7c0,0,0,0,0,0
		c0,0,0.1,0,0.1,0L1203.7,430.2z M1204.4,449.8C1204.4,449.8,1204.4,449.8,1204.4,449.8c1.5,0.3,3,0.5,4.5,0.7
		c0.4,0.1,0.9,0.1,1.3,0.2l0.1,0l0,0c0,0,0,0,0,0c0.1,0,0.1,0,0.2,0c0.6,0.1,1.2,0.2,1.8,0.3c0.1,0,0.3,0,0.4,0.1l3.2,0.7
		c0,0,0,0,0.1,0c0,0,0,0,0.1,0l0.1,0l0.1,0c0,0,0,0,0,0c0,0,0.1,0,0.1,0.1c0,0,0,0,0,0c-1.9-0.3-3.8-0.5-5.7-0.7
		c-1.9-0.2-3.7-0.4-5.4-0.7l-0.9-0.1c0,0,0,0,0,0l-1.9-0.2l-3.8-0.7c-0.1,0-0.2,0-0.3,0c-0.1,0-0.2-0.1-0.3-0.1h-0.4l-1.8,0
		c-12-1.2-23.9-1.6-33.7-1.8l-5-0.4c0,0-0.1,0-0.1,0c0,0-0.1,0-0.1,0h-0.7c0,0,0,0,0,0h-4.6l0-0.1c-0.1-0.3-0.2-0.5-0.3-0.7
		l-0.5-0.7C1169.1,446.4,1186.1,447.1,1204.4,449.8z M1207.5,483.2l0.9-0.3c0.4-0.1,0.8-0.2,1.2-0.3c2.3-0.6,4.8-1.3,7.1-2.1
		l-0.8,0.4l-0.6,0.3c-2.1,0.7-4.2,1.4-6.3,2.1c0,0-0.1,0-0.1,0c-15.3,4.9-33.3,9.3-53.8,13.1c0.2-0.6,0.3-1.2,0.5-1.8l4.6-0.7h0.1
		c0,0,0,0,0,0c0.2,0,0.4,0,0.6-0.1l5.3-1.1c9.7-1.9,19.8-4.1,33-7.2l1.9-0.6c0.3,0,0.5,0,0.8-0.1l1.3-0.6l1.8-0.4
		c0.1,0,0.1-0.1,0.2-0.1c0.1,0,0.1,0,0.2,0L1207.5,483.2C1207.5,483.2,1207.5,483.2,1207.5,483.2z M1157.2,502.9c0.2,0,0.3,0,0.5,0
		l6.6-1.4c0.1,0,0.1,0,0.2,0c0.2,0,0.4,0,0.6-0.1l13.1-2.8c0,0,0,0,0,0l3.3-0.7c0,0,0,0,0,0l0,0l9.6-2.5c0.1,0,0.1-0.1,0.1-0.1
		c0.1,0,0.1,0,0.2,0l1.3-0.6l1.5-0.3c0,0,0,0,0,0c0.6,0,1.2-0.2,1.6-0.6l2.2-0.5c0,0,0,0,0,0c0.8,0,1.6-0.3,2.1-0.9l5.5-1.7
		c0,0,0,0,0,0l2.5-0.7c0,0,0,0,0,0c0,0,0,0,0.1,0l1.1-0.4l1.7-0.6v14.3l-0.5,0l-1.6,0.1l-1.5,0.3c0,0,0,0,0,0l-0.5,0.1h-2.1
		c0,0-0.1,0-0.1,0c0,0,0,0-0.1,0l-6.6,0.3h-0.3c-0.1,0-0.2,0-0.3,0.1c-0.1,0-0.2,0-0.3,0l-1.2,0.3h-1.8h-0.3l-2.4,0.1l-1.5,0.3
		l-4.7,0l-2.1,0.3h-2.5l-2.3,0.1l-1.5,0.3l-12.5,0.3h-0.6l0,0l-3.5,0l-3.4,0.3h-0.5h-5.3h-0.6l0-0.7l0.2-1.2h0.1
		c0.5,0,0.9-0.1,1.3-0.3l0.3-0.1l2.8-0.4L1157.2,502.9z M1166.5,513.6c15.5-0.7,31.5-1.4,47.3-2.6l2.5-0.3l0.1,0c0,0,0,0,0,0l0,0
		c0.1,0,0.2,0.1,0.3,0.1c0.3,0.1,0.6,0.2,1,0.2l1.9,1.3l0.1,0.2l1,1.6l-0.8,0.2h-0.1l-5.1,0.4l-7.5,0.5c0,0,0,0,0,0l-3.2,0.2
		c0,0,0,0,0,0c0,0,0,0,0,0l-4.2,0.3c-9.7,0.6-19.6,1-29.1,1.3l-11.8,0.4h-3.6c-0.2-1.5-0.6-2.6-1.1-3.5L1166.5,513.6z"/>
</g>
</svg>
