<svg height="960" viewBox="0 0 960 960" width="960" xmlns="http://www.w3.org/2000/svg"><g fill="#000" fill-rule="evenodd"><path d="m502.355365 153c113.863435 0 220.85845 9.904678 300.940756 27.431761 40.820198 8.934045 74.089448 19.711966 98.447158 32.31589 14.292082 7.395454 25.971251 15.613707 34.929652 25.195241 12.025503 12.86198 19.182434 28.285954 19.182434 45.557108v309.498373c0 4.19404-.65926 8.362015-1.954121 12.351164-11.660918 35.924413-36.921184 62.639359-73.253604 78.435997-15.806549 6.872384-31.58216 10.616022-47.015264 11.053382l-.59421.014084-.408787.805158c-2.307143 4.43993-5.237363 8.567635-8.672306 12.345771l-.422156.459841c-6.237979 6.729264-13.909514 12.173901-22.969921 16.90254-14.068489 7.342364-32.400606 13.332321-54.543457 18.220259-41.887803 9.246551-97.226951 14.413431-155.972424 14.413431-73.775127 0-141.396299-8.080766-184.783181-22.128512l-.431768-.141488-.183275.019984c-1.401253.137209-2.81462.214882-4.236889.232156l-1.136303.002944c-4.430917-.012643-10.004223-.182765-16.670334-.482666l-3.283457-.153806-2.838291-.141866c-.87408-.044849-1.758594-.091254-2.653244-.139156l-4.09333-.225475c-3.443442-.194694-6.872833-.400288-10.433153-.622442l-9.537207-.60974c-8.284587-.557113-16.686624-1.265523-25.161721-2.117509l-2.619796-.268424-.221993.246022c-1.422301 1.562337-2.787896 2.911668-4.196456 4.154619l-.235175.206191c-18.511234 16.125613-54.127151 21.900282-99.490887 14.043335-30.471928-5.277703-54.209061-22.234745-70.311113-48.410759l-.635376-1.043408-.367311.207231c-7.753996 4.297902-16.529478 6.666541-25.576926 6.767494l-.603558.003367h-32.4461747c-11.0299889 0-21.7954571-3.377686-30.8484706-9.678765l-16.1368425-11.231567c-1.9384547-1.349204-3.7536072-2.867437-5.4241836-4.536908-8.7747234-8.768913-15.7610661-17.415627-20.9267303-26.271141-6.57789173-11.2765-10.33221777-23.080978-10.33221777-35.509436l-.00253548-1.877655-.19125763-19.005869c-.02258062-2.887698-.03896233-5.555944-.03896233-8.403131v-4.084825c.06951839-28.824601 1.27830684-57.230589 4.32199797-89.385928l.03815298-.398662c1.17804063-12.17808 4.24303326-32.123257 9.25182966-60.511448l1.3661082-7.683211c3.1971403-17.877046 15.0174588-32.494703 30.8603684-39.680181l.370713-.165365.1092542-.405488.2013965-.697716c4.8321894-16.187645 7.4959522-27.595544 7.9870635-32.709589l.0641585-.73808.5808962-5.803138.1200441-1.343176c.4174427-4.988051.5319442-9.58785.2465061-13.438126-.0662493-.893638-.1515657-1.697864-.2501984-2.395976l-.0071207-.044711-.08051-.183118-.2682039-.574515c-.6827417-1.416169-1.7102844-3.24015-3.0825657-5.412031l-.9024619-1.414287c-3.9703113-6.353215-6.0788839-13.697923-6.0788839-21.198066l.0013415-18.947038.0082294-.852633c.1822397-16.612985 7.002147-31.512708 18.4037809-44.033633l.4711343-.513218c8.837065-9.549175 20.3572424-17.741424 34.449064-25.113713 23.972641-12.541544 56.693909-23.274892 96.869872-32.20315 78.643257-17.476802 183.898393-27.541281 296.393499-27.940411zm-319.304852 529.81753.357868.536139c10.173569 15.069382 23.927101 24.105144 41.260597 27.107285 37.81743 6.549936 57.214754.559906 64.104608-3.259742-27.40378-3.992861-54.409354-9.313424-78.720041-15.511151-8.956974-2.283476-17.957753-5.241664-27.003032-8.872531zm506.809632-62.356594-.003423.034422c-1.25976 12.656131-10.703131 23.167427-23.419787 25.595289-24.135926 4.605447-48.284252 6.909353-72.436935 6.909353s-48.301009-2.303906-72.437948-6.909547c-11.687146-2.231308-20.609878-11.291351-22.955033-22.568881-24.03856 4.690698-44.095507 10.937008-58.343128 18.12872-12.078923 6.097027-18.843817 12.25655-20.720481 17.44976l.115055 11.520027c.061508.444884.093742.899046.094707 1.360459l.006016 4.880331c-.016687 4.512049-.154337 8.115388-.538925 11.196041l-.008416.06409.478716.158729c36.608341 11.946807 98.802516 19.553613 167.244616 19.720271h2.258571c55.338067 0 107.132208-4.835892 145.194612-13.238002l.938388-.208507c17.764823-3.973222 31.844814-8.605454 41.248929-13.513474 4.382233-2.287093 7.553918-4.5381 9.435346-6.567704.709674-.765565 1.165447-1.424021 1.406765-1.948562.12625-.274422.160575-.423902.160575-.523751l.000823-12.52935c-1.955732-6.071365-10.739759-13.445354-26.58861-20.428872-17.712845-7.804854-42.299291-14.244575-71.130433-18.580842zm-404.176115-242.849626 8.018564 310.094888c3.343829.478672 6.692819.936956 10.042475 1.373973l.186464-.263667c17.0273 2.252721 34.359519 3.999272 51.449112 5.07412 2.788302.17537 10.431442.678364 18.991552 1.147545l5.768591.30228 1.884869.091948c5.422773.259033 10.755242.464563 15.063117.530836-.367625-2.182984-.015166-4.509292 1.185403-6.60646l.05972-.107269c.964318-1.781131 1.38513-5.003591 1.424042-12.183488l.001941-2.394291-.004033-1.372725-.012015-.095259c-.032655-.271908-.054407-.547163-.064806-.825315l-.006599-.2791-.066565-6.663545c-.391963-1.071413-.605862-2.228618-.605862-3.435781 0-1.829611.173468-3.627723.515557-5.393736l-2.029618-204.630506c-1.999328.525454-4.122215.871758-6.349264 1.03399-9.977776.726843-22.049213-2.277908-31.200844-7.101877-9.306288-4.905492-33.341427-27.112149-74.251801-68.296561zm-169.604419-59.410186.181871.132077c.80413.584312 1.538554 1.079216 2.201434 1.483812l.214078.129004c27.801575 16.532602 37.058511 32.346195 37.058511 62.366801 0 10.087178-1.5184 17.985641-5.006137 23.869663-4.348377 7.335973-11.56994 11.058465-20.129273 10.456516-10.755057-.756366-23.790934-8.33908-40.1872383-22.648554-.1424797.49353-.2874037.992926-.4342133 1.496308l3.3993566 69.932249 24.98753 155.39641c33.283522 26.432487 65.505816 43.560099 96.628751 51.494529 18.2882 4.662364 38.182368 8.820149 58.61974 12.265774l-8.322722-321.831783c-65.783048-11.009056-117.068865-26.092445-149.211688-44.542806zm-2.684811 324.069227-.268431.637837c-2.3854 5.636413-4.538035 10.333571-6.468495 14.108003l-.221761.431417c-1.480581 2.865758-3.345182 6.179599-5.597419 9.950301l19.509677.000183c4.01884 0 7.843877-1.727076 10.501577-4.741658l4.408254-5.000189c-7.149733-4.641085-14.327056-9.686048-21.532296-15.133936zm-42.0378039-217.926351-.3379897.027519c-6.3420286.507226-11.544591 5.227009-12.6646534 11.489921-5.6932371 31.788804-9.0963565 53.562408-10.2093583 65.320812l-.1209502 1.286969c-3.2745347 35.094942-3.9791305 63.449113-4.0230516 84.770221v3.628287c.0145243 10.873373.1840968 19.764654.2242654 26.630271l.0084932 2.672275c0 9.310683 6.5112836 20.472996 19.5338506 33.48694l15.4361102 10.742852c4.1789906-6.629477 7.3386776-12.019393 9.4637318-16.132567l.3870627-.757031c2.6460695-5.227706 5.9061696-12.719516 9.7426968-22.416735l-25.2535301-157.046705c-.0586798-.364925-.0970824-.732822-.1150309-1.101999zm804.8800429-36.644296-.698375 1.054666c-9.878359 14.788049-19.123312 23.058121-29.79501 23.058121-14.627795 0-27.574396-5.976681-38.165621-16.57928l.00054 255.364043c17.326928 6.693363 36.366954 5.528514 57.120078-3.494546 8.610181-3.743541 16.236475-8.217136 22.878883-13.420785l-.001126-265.657203c-3.840865 7.423419-7.633215 14.029789-11.339369 19.674984zm-206.237039 209.438296-3.001076.298336c-24.524371 2.375711-49.050526 3.563664-73.577358 3.563664-24.533404 0-48.796669-1.188591-72.788628-3.56612l-2.632938-.26588v20.436285c0 4.229986 2.942639 7.875948 7.04808 8.786427l.263611.05438c22.905821 4.370727 45.799244 6.554908 68.688309 6.554908s45.782488-2.184181 68.687296-6.554714c4.243507-.81017 7.312704-4.521015 7.312704-8.841343l-.000001-8.444568c-.001527-.104013-.001434-.208328.000301-.312919zm89.542096-163.750213-.000662 65.98953c.147874.684125.225746 1.39431.225746 2.122683 0 .796763-.044869 1.58029-.133418 2.350859l1.300401 1.28262c5.225495 5.179489 9.055149 9.324882 11.557057 12.537367l.21265.274963c3.381158 4.403389 7.156935 10.684817 11.443408 18.950575.737648 1.422432 1.122685 3.001294 1.122685 4.603616 0 19.504553-23.379797 33.329576-63.199165 43.288749-9.837446 2.460431-20.589051 4.632201-32.070156 6.490741l.00058 8.982118c43.171416 6.199966 77.346779 16.628832 97.578658 30.504182l.000146-208.764163c-7.443166 4.215235-16.852323 7.987442-28.03793 11.38616zm-340.842939 140.812915.56212 56.549338c17.116265-11.787206 44.327658-21.065513 78.737532-27.476365l.000913-10.430024c-31.122408-4.40721-58.979811-10.914738-79.300565-18.642949zm488.878281-250.918309.00083 287.957742c3.392043-5.610344 6.151076-11.690389 8.277097-18.240135l.000088-291.732334c-2.472064 6.942715-5.29597 14.470875-8.278015 22.014727zm-463.657129 196.989033-.70184.461247c-4.806167 3.171772-7.687628 5.119003-8.389525 5.663075-5.698961 4.41753-11.573882 12.249818-14.432696 19.27851-1.157422 2.845643-1.675074 5.222359-1.628634 6.723377l.011566.226204.50676.225566c33.650071 14.758863 99.680469 25.923127 164.095294 26.147162l1.971342.003433 3.013164-.005962c49.14918-.194592 95.012619-5.144028 128.852359-13.607643 16.453617-4.115193 29.447672-8.925718 38.037278-14.004954 5.377414-3.179791 8.36228-6.011272 9.487784-8.113654l.076019-.146948-.632186-1.169032c-2.745701-5.035016-5.139116-8.897012-7.126957-11.537191l-.219199-.288322c-1.643348-2.140184-4.442575-5.214846-8.34877-9.151306-1.837682 1.39406-3.875626 2.724708-6.097138 3.995863-8.646853 4.947751-20.611763 9.271802-35.338871 12.893183l-.924035.225421c-30.086704 7.281622-70.42147 11.410545-113.375844 11.410545-53.178082 0-110.97353-11.847807-145.500496-26.870268-1.303872-.567306-2.425775-1.379097-3.335375-2.358306zm294.846049-81.433941c-39.615227 9.030048-92.849881 14.162515-149.572608 14.162515-49.920824 0-96.825405-3.979977-134.046296-10.950833l1.42367 62.815371c32.171964 13.653845 86.42794 24.635462 136.185056 24.635462l2.760175-.00587c40.421869-.172019 78.118929-4.117181 105.911067-10.843469 13.472697-3.260679 24.085535-7.062608 31.034603-11.038882 3.068744-1.755944 5.24196-3.446972 6.478935-4.909978l.230568-.280365c.162458-.203707.283005-.369802.371459-.502161l-.000483-63.259544c-.258065.059382-.516781.118633-.776146.177754zm-321.470549-5.970379.811512 81.598042c1.461641-1.404482 2.957498-2.705143 4.468744-3.87658l.58381-.436166c1.460719-1.063038 4.376166-3.033432 8.922236-6.034455l4.402069-2.895108-1.439995-63.459786c-6.326457-1.533093-12.257816-3.167335-17.748376-4.895947zm-40.039405-88.829841-85.098329 11.687845c43.352647 43.867933 69.903008 68.6946 77.103766 72.490233 6.036747 3.182065 14.468767 5.280914 20.421761 4.847261l.548079-.044916c4.441451-.407666 5.760718-1.67516 5.810746-5.723725l.001493-.246267c0-1.680936.414743-3.265004 1.147479-4.655455l-.018194-1.784325c-.266677-1.266803-.289764-2.59429-.039249-3.910771l-.048109-4.933145-13.546-61.193-.397403-.317801c-2.327014-1.890508-4.29734-3.968899-5.88604-6.215934zm349.930476-28.282514-1.68733.262919c-7.542565 1.201336-14.381649 2.643658-19.593051 4.135844l-.5723.165993c-2.38001.699389-4.307385 1.383435-5.667976 1.992993l-.372473.171669-.446587 1.166214c-.450428 1.156841-.731542 1.802626-1.186973 2.71189l-.101788.201924c-1.004246 1.980449-2.232184 3.791379-3.806782 5.500134-8.521994 9.248072-26.934335 14.430179-65.190591 17.838371-2.803259.249738-5.636276.457406-8.498681.623952-29.888606 1.739035-60.677295-.863272-95.490503-6.653192l-3.187125-.54294-25.958374-4.677766c-6.551352-1.160814-12.024901-2.091579-13.391174-2.200319l-.558139-.040852c-9.370912-.629224-31.214525.605283-64.791323 3.741226-4.978132.465192-9.747679 2.209-13.848231 5.059391l14.001766 63.24798c.149943.677322.228998 1.368409.235888 2.062096l.010824 1.195499c36.555722 12.999485 101.091966 21.282223 172.107793 21.282223l3.314647-.005979c54.067094-.195149 104.534148-5.158853 141.813095-13.656361l1.868087-.431432c17.308269-4.050007 31.043338-8.748345 40.268764-13.720111 4.380333-2.360648 7.552681-4.685543 9.445013-6.793475 1.202711-1.339741 1.631967-2.235228 1.671886-2.805315l.003123-.087327v-5.215l-.141078-2.456418c-.939464-15.848115-2.195834-28.05201-3.736465-36.506911l-.175624-.941137-.221327-1.123808c-1.672934-8.250098-4.730886-18.172252-9.183346-29.714228l-.734246-1.885862c-.355926-.905961-.577126-1.857623-.657861-2.824674l-.026571-.432962-.041819-.066772c-.082415-.128115-.194573-.279095-.338977-.450644-.213834-.018855-.427971-.045155-.642556-.078572l-.275979-.046873c-8.494771-1.563024-26.381332-.719307-44.215636 1.998612zm-627.8075023 14.714583.0356437.479939c.8514246 11.607768-.6323093 23.199301-.9502311 26.442139l-.0720952.836333c-.311532 3.665796-1.0809166 8.299651-2.3081538 13.901563l.3831266.362444c16.6401971 15.573275 28.9449441 23.584905 35.3376071 24.180325l.499944.036574c.765401.046219.805297-.025426 1.219484-.724185 1.289618-2.175663 2.165015-6.613108 2.209059-13.151127l.001743-.520521c0-22.641962-5.353573-32.013873-26.63124-44.788442l-.649663-.388167c-2.615587-1.555396-5.627427-3.771197-9.0752243-6.666875zm788.1973723-20.514691-95.305572-.000269c.12691.590737.225646 1.190836.29565 1.800589l.004019.051037.225515.580001c4.824995 12.512238 8.199873 23.470986 10.115144 32.928476l.152093.763535c.095129.485719.189135.981754.282024 1.488121.462878.715003.840231 1.500707 1.114387 2.34696l.082604.267466c7.303764 24.854061 22.717972 41.631932 41.20104 41.631932-.047546 0 .154897-.05518.631335-.299661.888228-.455788 2.002137-1.265785 3.277071-2.437367 2.909226-2.673389 6.254625-6.851073 9.866052-12.351981 6.806755-10.368016 14.223938-24.890281 21.740967-42.152315 2.140738-4.915971 4.259458-9.987704 6.317926-15.102127zm-385.221385-116.954643-6.837979.012124c-192.918817.68458-353.721389 30.284658-395.8737542 69.86112-1.0881753 2.430691-1.6436318 4.829212-1.6436318 7.182443 0 12.084968 15.306206 26.260568 45.829883 39.61635 29.754341 13.019155 71.849645 24.346445 122.631805 32.983929 1.530393-2.415919 4.074085-4.148324 7.092916-4.562957l99.346992-13.645854c1.788666-9.693821 9.770785-18.89411 23.293488-28.638869.294684-.212356.599586-.407698.9132-.585561l.303563-.165725.319711-.224648c8.815509-6.054776 23.256718-11.398495 41.89124-15.828976-.713718-.319029-1.396107-.647652-2.04568-.985055-6.378477-3.313121-10.577118-7.820918-10.577118-14.518321 0-3.864245 1.547445-7.132006 4.081904-9.806898l.162096-.168102.050941-.064187c.732293-.9116 1.663878-1.728369 2.807565-2.40077l.226494-.129043.224155-.156009c1.633048-1.113004 3.506149-2.108639 5.621429-3.021766l.128416-.055225 1.595774-.834143c4.147355-2.152082 7.709802-3.856671 10.720088-5.122895l.449527-.187525c4.357793-1.80247 10.721858-3.97452 19.187437-6.562497l2.100693-.637736c1.032879-.311462 2.109352-.453736 3.187683-.421306l.169798.005102c7.52403-1.841789 16.681304-2.869395 26.320515-2.933778l.965485-.003222c12.969927 0 25.087098 1.737338 33.666828 4.843012l.267172.098988.142685.028978c.369049.08275.7335.186459 1.09156.310759l.355863.131151c6.444344 2.514815 11.855635 4.918958 16.261925 7.237313l.645501.338449c1.087243.568117 2.231512 1.156403 3.432608 1.764717l.840858.423633.567921.196215c3.629439 1.271366 6.683007 2.708277 9.157208 4.389436l.430609.299226c4.31518 3.067161 7.139262 7.152408 7.139262 12.438123 0 .530599-.026353 1.047454-.078055 1.551061 2.509947-.027535 5.032005-.0441 7.564261-.051061h2.707544c52.641548 0 102.043168 4.21142 138.800935 11.619962 18.373731 3.703233 33.216415 8.131308 43.794626 13.172023 1.622913.773348 3.163923 1.567981 4.618492 2.386256 1.716657-1.390835 3.904051-2.223598 6.285947-2.223598h114.883252c.349149 0 .694119.017894 1.034043.052814l.621545-1.804972c1.67128-4.884911 3.096692-9.288359 4.156644-12.821471l.397843-1.344215c.39917-1.368931.719141-2.534192.94925-3.451828l.179854-.731107c.035338-.128837.06008-.179258.073115-.086414l.006704.080881-.008276-.399806c-.123704-3.065281-1.181607-6.204794-3.14128-9.386566-47.178783-38.620772-208.159264-67.061959-399.491079-67.061959zm86.838385 92c-86.01359 0-160.921107 11.762279-180.951876 26.902767l-.28769.20952c-.290973.204089-.591637.391836-.900576.562785l-.165761.087928-.691039.512322c-4.565658 3.415111-8.034028 6.556679-10.392866 9.355307l-.277734.334185c-1.80369 2.201785-2.69987 3.907755-2.940463 5.041849 6.660792-4.353891 14.29323-7.024575 22.239633-7.767144l6.251102-.574487c31.583389-2.853119 52.113846-3.921973 62.222966-3.174299l.731647.059049c3.03444.267069 6.853413.88115 13.97144 2.192037l13.362986 2.492522 3.430384.629164c3.98701.725508 7.683509 1.376567 11.386852 2.001187 34.165057 5.762406 64.102246 8.360699 92.71788 6.69573 2.659891-.154763 5.288622-.347456 7.885653-.578822l1.788877-.162258c17.723242-1.636695 30.48977-3.696049 39.111747-6.122683 6.538769-1.840319 9.90915-3.614102 11.357002-5.185312l.121438-.135902c.368446-.427372.598196-.855886 1.097868-2.12544l.636322-1.651793c.400712-1.025566.72203-1.766953 1.158356-2.633533 2.713076-5.388398 8.185148-8.056149 17.637536-10.833822 6.43103-1.889819 14.701371-3.631308 23.721046-5.031356l-.43767-.086631c-34.536411-6.852372-80.983831-10.849264-130.705399-11.007958zm-84.19375-34c-8.982381 0-17.367582.972606-23.594866 2.636137-.939138.250878-1.909839.363482-2.88147.334261l.058336.000602-1.152776.352665c-2.828687.869131-5.383103 1.681547-7.65871 2.435038l-.975281.325049c-2.957162.992237-5.406805 1.876882-7.33782 2.648532l-.74472.30262c-1.691337.699571-3.698622 1.621055-6.012443 2.76216l-.36425.179936.760187.201689c.900596.233978 1.849467.463771 2.843647.687824l.536913.11947c11.535759 2.534371 27.458944 4.014017 44.523253 4.014017s32.987494-1.479646 44.523253-4.014017c1.082428-.237806 2.113452-.482522 3.089424-.732233l.359323-.09375-1.073139-.548816-1.634316-.84679-1.278458-.668795c-3.289987-1.701366-7.398055-3.536498-12.30554-5.48884l-.297547-.118759-.135234-.027497c-.38044-.087757-.755848-.197819-1.124252-.329771l-.365995-.139233c-5.966123-2.404398-16.338495-3.991499-27.757519-3.991499z" fill-rule="nonzero"/><ellipse cx="505" cy="248" rx="29" ry="7"/></g></svg>