<svg height="960" viewBox="0 0 960 960" width="960" xmlns="http://www.w3.org/2000/svg"><path d="m247.937188 1.57125412c10.151513.74256508 21.318165 2.18955036 33.522228 4.33280253 1.319569.23173993 2.579483.58413394 3.772465 1.0427068l.243119.09723655.802728.14883805.883272.17316195.716794.13565877c6.148603 1.16190464 10.749683 1.90373421 14.98188 2.37435271l.48676.053107c.426648.04564937.851716.10501692 1.274544.17801052.073206.0126377.141663.0244614.208131.0359505l.196202.0339427c.358897.0621453.741196.128667 1.606358.27931 2.965329.5163266 4.566101.7868696 6.146786 1.02884l.452239.0685445.227887.034041c2.85228.4240722 5.186639.6741767 7.265476.768657.79451.0361095 1.58616.1195792 2.37073.2499644 8.498005 1.4122557 13.397889 2.190166 17.884274 2.7852787l.653962.0858371.650277.0835418c.649172.082499 1.296144.1620266 1.950894.2399981l.046806.0059652.258121.0072658c3.048883.1081787 5.808588.5180101 9.570203 1.2682957l.636434.1282066 1.415154.29012c.258945.0530674.481904.0984618.683677.1391193l.077411.0169926.463563.0657583c.974272.1401965 1.93813.2787335 2.895905.4162252l.955908.1371661c.318067.045621.635618.0911486.952814.1366056l2.37482.3399582c.158211.0226229.316434.0452424.474689.0678613l.950066.135729.951784.135851c.158828.0226596.317767.0453299.476838.0680139l.956168.1362899c11.816191 1.6834852 24.573544 3.4726645 46.396856 6.5197357 11.522145 1.608775 18.000195 2.5143758 24.206814 3.3858002l.743797.1044497.772754.1085558c.773024.1086136 1.547886.2175452 2.333863.3280951l.949967.133758c2.723902.3147368 4.874881.6592612 9.172499 1.4173662l.486485.0859554c.763192.135048 1.112131.1966067 1.532297.2700735 3.800796.6645751 6.024123.9736488 8.01611 1.0899712.49527.0289214.989292.0762609 1.481041.1419205 1.497664.1999717 2.994504.4012257 4.49348.6041722l1.799988.2443744 1.829723.249791 1.834195.2517908c19.286674 2.6548789 39.509273 5.6677102 66.85687 9.8960989l1.125312.1734859.298649.0391623c.930705.1230336 1.85815.2462505 2.788298.3704561l1.117857.1495729c7.65277 1.0260294 15.647681 2.1402074 27.272687 3.7866378.185851.0263219.364613.0516419.541706.0767286l.35357.0500898c.945493.1339574 1.946375.2758487 3.825271.5422515 9.602132 1.3614557 15.408649 2.1803739 20.693971 2.9119368l.734434.1015575c.365855.050541.729914.1007599 1.09329.1508112l.757731.1042637c.883736.1214785 1.768005.2426011 2.668856.3655989l.204074.0270799.090731.007772c.61862.0504613 1.21704.1058331 1.811294.1680711l.712131.0781065c2.848733.32661 5.749222.8294367 10.474523 1.7247389 3.815745.7229687 5.425415 1.0028383 7.229605 1.2320809l-.089284-.0127694.188119.0224779c1.067025.1224474 2.096004.2448899 3.129624.372941l.690236.08626c4.266473.5378198 8.771704 1.1915149 16.481694 2.3511234 1.294416.1946846 2.048603.3079981 2.746966.4125311l.346772.0518709c.115535.0172704.231762.034633.350923.0524239 6.05667.9042615 10.30826 1.4975643 14.355759 1.9792198l.244907.028152c3.313565.0359603 6.230416.446888 10.254117 1.2449849l.644737.1292345c.241561.0488959.429993.0873085.847961.1727132 2.59932.5311266 3.556047.6917338 4.246318.7321059.196836.0115124.393492.025935.589901.043263 7.035502.6206998 13.90081 1.5797173 20.642325 2.9053597l1.161247.2331918-.177606-.035853.416302.0638809c.728015.1099872 1.448669.2184221 2.165171.3257651l.858014.1283169c.99917.1491603 1.992715.2965413 2.989437.4434061l1.283943.1886412c9.152566 1.3408402 18.886018 2.6837852 35.927157 4.9942156.875266.1186683.875266.1186683 1.750855.2373944 17.75974 2.4082902 28.498365 3.900102 38.786456 5.4337341l1.027551.1535381 2.051932.3087644 1.541924.2338891c1.030077.156774 2.065504.3154036 3.112853.4768472l-.127595-.0203931.422519.0599801c7.861857 1.1039047 8.220407 1.1542498 16.142909 2.26667l.565195.0793606.248893.0365452c12.318138 1.8879055 23.408903 7.8250111 30.954285 18.3424201l.161199.228024.022606.031853.176608.239406c6.351654 8.762297 9.442452 19.495764 10.161665 31.143257l.040314.699938.009841.203499c.148555 3.4342.21179 6.390821.216268 10.342613l.00007.862581c-.002161 2.343699-.022888 5.046701-.057226 8.383805-.000617.059981-.000617.059981-.001234.119932-.032214 3.13137-.050795 5.431522-.053933 7.369928l-.000208.994998c.001393 1.073736.008241 2.050967.020911 3.027252l.008304.586421c.004504.293918.009539.589471.015114.889239.001749.094061.002835.188133.003257.282209.003792.845287.00636 1.653695.007687 2.46978l.000761.6142.000118 1.253744-.000648.647899c-.00324 2.408986-.016024 5.212981-.03876 9.338606l-.00067.121532-.000669.121502c-.019942 3.620625-.032405 6.749452-.03492 9.530208l-.000269 1.670353c.004036 6.373589.068826 10.895878.228934 15.580473l.027573.782614c.018978.523204.039157 1.049794.060584 1.582531.005969.14841.010285.296883.012946.44539.02399 1.338654.035673 2.532332.037116 3.944996l-.000003.619895c-.001339 1.376755-.011253 2.987161-.028089 5.122627-.014778 1.874439-.022552 3.033282-.025162 4.049607l-.000773.400287.000306.987698c.004566 2.544855.044726 4.664271.130301 6.580579.146012 3.085704.030028 5.192725-.345049 9.330844-.041393.456668-.057821.639264-.078098.870084-.122595 1.395543-.163707 2.153183-.154874 2.700745l.002171.191316c.006834 1.041186.012976 2.053485.018512 3.060629l.004041.754762c.031437 6.036301.041869 12.100658.050032 23.319656.009244 12.704914.024267 20.084223.070279 26.943177l.005791.837598.009289 1.250933c.001074.138832.002161.277652.003263.4165l.006781.833757c.006183.742001.012782 1.487131.019828 2.241586l.00692.832814.000394-.041853c.027617.618836.052223 1.218788.07449 1.813586l.025609.711803c.004085.118394.008079.236712.011984.355019l.022369.710218c.083904 2.798373.119648 5.662581.126169 9.446209l.000729 2.210714c-.00125 1.407788-.005451 2.939341-.011866 4.627862-.005809 1.529069-.009507 2.612178-.011501 3.525927l-.000857.444042-.000326.213837-.000317 1.64106c.001734 1.837114.01169 3.469305.032422 5.050634.031775 2.754892-.030158 4.857737-.220443 9.231731-.001735.039878-.001735.039878-.003467.079686-.129522 2.976908-.188852 4.691589-.194009 6.151033l-.000075.392458c.00083.258429.003402.511447.00762.765106l.007877.395941.004066.237694c.108416 9.712997.168926 18.662675.176307 27.146234l.000559 2.663871c-.003539 7.689662-.052183 15.013941-.149953 22.201759l-.026781 1.824429.003-.156.005608.317638c.078321 5.162606.111841 10.39512.115797 16.884941l.000127 2.494938c-.000399.852838-.001231 1.72764-.002465 2.626726l-.022585 11.148682c-.002228 1.262468-.003785 2.458704-.004599 3.600525l-.000491 2.641942c.001343 3.399417.010872 6.338415.030914 9.204168l.008013 1.07198c.002345.294628-.001822.589272-.012496.883717-.025318.698367-.048297 1.382924-.0691 2.063892l-.029593 1.020037-.017977.68082-.016616.684105c-.073578 3.167287-.104882 6.512012-.109884 11.037987l-.000481 2.208111c.001018 1.776955.005142 3.728499.011621 5.901952.007215 2.420182.011884 4.383144.013338 6.078614l.000215 1.848397-.000765.687389c-.001692 1.124931-.005499 2.152033-.011724 3.167663l-.004028.608692c-.002882.405798-.006161.812524-.009856 1.225704l-.005973.56838.008367.287153c.114606 4.658134.165421 9.349569.169326 14.880998l-.000146 1.603962c-.001626 1.899582-.008285 3.901033-.019353 6.03423-.000789.15199-.001576.301397-.002371.449489l-.00241.4416c-.008154 1.467308-.017739 2.929999-.036381 5.656851-.036549 5.346056-.055936 8.798505-.060058 11.793493l-.000565 1.876463.000727.612134c.00127.81452.003742 1.625191.007372 2.465512l.000136.131641c-.041046 18.142604-.067041 32.111017-.075667 43.979307l-.000952 1.414247c-.000434.702216-.000805 1.397171-.001113 2.085311l-.000411 8.54417.000728 1.537605c.002714 4.840245.009317 9.413657.020037 13.923241l.003523 1.422194.001864.70995.01036 3.545378c.011232 3.546177.025088 7.105845.041682 10.778894l-.000214.570351c-.000216.282315-.000599.561009-.001163.839092l-.001374.556246c-.00677 2.321735-.0268 4.740511-.068468 8.99902-.000282.028804-.000282.028804-.000564.057604-.040909 4.181096-.065051 7.302415-.06969 9.93099l.00004 1.801406c.002287 1.155276.009144 2.229433.020867 3.283698l.011872.945122.00455.314368.009998.629931.005451.316298.004394.278198.004521.042198c.439683 5.036921.591582 9.36854.600135 16.155856l.000181 1.09255c-.001292 1.485172-.0086 3.086557-.020576 4.833651l-.00973 1.324441c-.009592 1.229597-.014711 1.912506-.018929 2.56931l-.00205.328636c-.000335.055213-.000668.110848-.001.167205-.011792 1.998336-.013668 3.61845-.003402 5.225761.004988 1.715982.009617 3.400966.013911 5.071607l.002813 1.111819c.000461.18501.000918.369888.00137.554658l.002668 1.107501c.003056 1.290992.005918 2.578906.008596 3.871578l.002252 1.109354.002163 1.112781c.013072 6.874974.021212 14.008034.026105 22.556553l.000766 1.398836.000362.709067.000682 1.438114.000322.729322.000604 1.479861.000283.750812.000775 2.29761.000234.781384.000824 3.206768.000178.822685.000853 5.123005.000108.886263.000928 21.239467.000072.924149.000904 7.04332.000157.838737.000733 3.268281.000211.796088.000961 3.104538.00027.756867.000577 1.491574.000308.734981.000656 1.449035.000347.714329.000737 1.408966c.000382.698056.000785 1.386609.00121 2.066277l.000879 1.34767c.004546 6.680943.011344 12.514467.021291 18.117826l.002032 1.117785c.000346.185848.000695.371485.001048.556935l.00216 1.110636.001114.553977.002293 1.105957c.00039.18415.000783.368227.00118.552254l.003679 1.655512c.000421.183933.000845.367884.001273.551877l.002616 1.104639c.005773 2.395253.012221 4.805241.019418 7.280188 0 8.694199-1.52971 17.276048-4.675704 25.143819l-.250763.612983-.012.03-.012.029-.011.027-.01.027-.011.026-.08763.220011c-4.635916 11.317384-13.363117 20.639059-24.39693 24.525005l-.446046.152131-.187808.070987c-4.89658 1.79289-9.604312 2.827842-15.616668 3.685299l-.791742.110883c-.128493.017677-.252897.034696-.375726.051388l-.366274.049433c-.733155.098243-1.500113.196738-2.84394.367373-1.892523.240307-2.941924.377935-3.899084.517008l-.356079.052423c-.118229.017633-.236483.035491-.356229.053779-.126209.019275-.252599.037341-.379153.054195-.826299.110047-1.637856.218485-2.44311.326473l-.803466.10788-.787337.105976-.386481.052117-.773468.104496c-.387114.052364-.775009.104932-1.164635.157832l-.78184.106285c-6.408471.872251-13.447545 1.856575-25.255251 3.520049-.544439.0767-1.091809.130918-1.640715.162514-2.1163.121819-4.402532.433729-8.409171 1.118061-.380319.064958-.681723.116798-1.391105.239084-3.982282.686481-6.2798 1.057594-8.631086 1.346861l-.615742.073758c-.309624.036104-.622734.071161-.94319.105689l-.040094.00301-.019442.004016c-3.286662.438496-6.051558.832156-12.021903 1.701012l-.519681.075649c-1.562201.227467-2.316688.337169-3.218413.467748-7.100957 1.028292-11.889954 1.679202-16.81281 2.255688-.904951.105974-1.816086.149983-2.727039.131722l-.434311-.005845-.437858.000005c-2.569988.017548-5.464691.345795-11.19914 1.197356l-2.07995.308044c-2.258305.33146-3.962618.564299-5.695936.768008l.251877-.030256-.356329.050128c-3.320041.466708-5.221095.733945-6.978154.98094l-.455936.064092-.568395.079901c-1.901652.26732-3.927901.552156-7.716108 1.084675-3.788206.53252-5.814456.817355-7.716108 1.084676l-.852859.119889c-1.901113.267245-3.923232.5515-7.703715 1.082934-.13649.019186-.273175.036962-.410032.053323l-.419965.051661-.202322.025972-.406006.054339c-1.835828.252494-3.832873.619537-7.709143 1.384526-.814914.160825-1.31201.258695-1.761668.346445l-.295712.05758c-.098206.01908-.197036.03824-.299459.05806-5.831666 1.128508-10.018892 1.750938-14.490081 1.976197l-.465008.021662-.20794.021348c-1.941458.205288-4.016474.546196-7.856309 1.260874l-.450983.084136c-.186316.034843-.186316.034843-.374005.069955-5.749139 1.07555-8.427524 1.520744-12.059903 1.89839-.294712.03064-.590067.054727-.885849.072243-3.159643.187115-6.543097.581721-11.480599 1.301721-.954622.139205-1.746751.257154-3.474233.5162-3.527025.528896-5.684881.844387-7.665577 1.106725l-.562122.073646c-.652588.084556-1.298105.164902-1.9807.246974-.155699.01872-.311612.035608-.467708.050661-1.589611.153294-3.125518.416472-6.732381 1.135607l-.394471.078811c-4.70155.941117-7.170966 1.38339-10.129243 1.704778l-.200977.020931-.145954.02513c-1.967373.322976-3.634568.475821-6.431518.660273l-.476864.03107c-2.376947.153152-3.108367.237309-3.467182.333091-.171368.045744-.343336.089208-.51586.130377-3.449178.823089-6.837396 1.355459-10.860411 1.790599-.283393.030653-.567409.055243-.851852.073755l-.383716.025408-.765457.053331-.382319.027983-.765267.058745c-5.363848.424602-10.930917 1.136067-20.271619 2.497161l-4.027084.587535c-3.162087.459831-5.509493.79208-7.806347 1.099889l-.397944.052506-.688295.099951c-13.086382 1.878733-26.497062 3.772522-44.260173 6.257903l-1.139766.15945c-1.102557.154223-2.100861.29383-3.116094.435754l-.470212.065729c-2.991212.41811-6.286357.878273-12.912028 1.803389-11.457081 1.599706-18.322177 2.559505-24.910399 3.484277l-1.286664.180655c-.142836.02006-.285674.040122-.428559.060193l-.858221.120574c-.71624.100644-1.435858.201807-2.164397.304264-.568271.079919-1.139718.135342-1.712756.166116-1.14997.061757-2.2613.091925-3.668496.108336l-1.409968.012202c-2.887028.021522-3.854819.089335-4.406074.225781-.073291.018141-.146684.035867-.220175.053177-4.06082.956461-7.037076 1.376914-13.272705 2.061905-4.487091.492913-6.298499.742228-8.243012 1.172775-.446203.098796-.89566.18227-1.347582.250274-.409295.061589-.805927.12018-1.197962.176847l-.585613.083694c-2.434097.343832-4.846222.633546-9.206055 1.131738-8.362961.955622-11.932699 1.469219-16.024346 2.418995-.42428.098486-.851665.183086-1.28147.253664-7.167218 1.176931-13.429611 2.077263-25.121221 3.666999-.695738.094582-.695738.094582-1.390425.188983-8.693475 1.181351-13.695001 1.877389-18.336847 2.577722l-.677114.102575c-.225107.03424-.449744.068547-.674299.102977l-1.011249.155967c-.675536.104791-1.355553.211464-2.050494.321554-.187883.029763-.376182.056845-.564837.081236-.161006.020817-.319817.04145-.477418.062034l-.470152.061742-.450711.059846c-1.807312.2413-3.710201.511352-7.21916 1.017335-2.167637.312568-3.196186.459889-4.449141.635866-5.198163.730082-9.24339 1.228163-13.200353 1.587818l-.515163.04585-.104101.016899-.366497.055959c-1.224741.187348-2.519223.388895-5.04962.784422-7.253052 1.133726-11.610209 1.782387-15.771242 2.297305l-.35354.043415-.324535.095438c-1.638292.466457-3.357406.728528-5.125442.762562h-26.949539c-.958102 0-1.914966-.068847-2.8632-.206009l-52.159484-7.544868c-9.837285-1.422963-17.1368-9.854323-17.1368-19.793991l-.002019-166.713597c-21.012141-6.32055-23.946375-22.752914-23.946375-32.117973v-178.846144c9.943201-4.787697 17.267939-9.559051 21.974214-14.314064.676053-.683053 1.335401-1.405023 1.975043-2.196512l-.000218-111.081846c-5.657488-9.104261-13.640501-15.711542-23.949039-19.821842v-182.343725c0-13.763913 7.982499-23.171436 23.947496-28.22257l.000898-163.1139281c0-9.4324142 6.590268-17.5826487 15.813743-19.5569744l52.159484-11.16496967c.712242-.15245871 1.432282-.26589501 2.1569-.33980189 8.038929-.81992478 17.280572-.81992478 27.807061-.04993082zm-20.303469 39.57634238-.534413.0312066c-.598138.0369565-1.181811.0795824-1.750938.1278279l-.148368.012369-35.2 7.535v865.286l33.598 4.86 3.616653.000459c-1.567192-3.517855-2.695799-7.500234-3.448749-11.817963l-.101528-.597961c-.015131-.091566-.028986-.183339-.041562-.275291-1.034576-7.564718-1.273909-14.482536-1.20907-26.494426.003446-.638293.00657-1.149762.013812-2.290989.012803-2.017535.021118-3.611155.024109-4.971362l.000906-1.59247c-.000794-.599385-.003007-1.16026-.006742-1.706438l-.004246-.542161c-.005554-.628864-.013228-1.248528-.023187-1.896805-.014361-1.468521-.026761-2.895105-.037329-4.315715l-.00902-1.277905c-.022754-3.408626-.035183-6.844973-.039094-10.806164l-.000801-1.00152-.000099-3.702454c.002226-4.424732.012294-9.560729.0284-15.905113.000503-.197912.000918-.361571.001276-.502831l.00065-.256168c.000099-.038889.000193-.076166.000285-.112272l.000521-.206093.000674-.267486.000364-.144663.000859-.342393c.000326-.130086.000699-.278904.00114-.454779.010971-4.403231.018278-8.334138.021033-11.915322l.000858-1.414113.000207-2.723289c-.002329-7.527651-.029865-13.510464-.092944-19.376207l-.030168-2.584773c-.004338-.344834-.008805-.68999-.013402-1.035759l-.014185-1.03943c-.00486-.347283-.009853-.695469-.01498-1.044847-.001326-.090393-.001427-.1808-.000302-.271195.14247-11.445688.111209-21.430425-.128559-31.030047-.003542-.14185-.004066-.28376-.001569-.425633.015393-.874744.02948-1.734905.042323-2.58895l.01243-.852318.011614-.850122.017231-1.387215c.043154-3.705382.064141-7.488967.067972-12.048034l.000447-2.503725c-.001688-3.906489-.013903-8.39486-.034034-13.828092l-.000325-.087576-.00066-.177985-.000325-.087583c-.018672-5.036354-.030879-9.200332-.034794-12.820982l-.000924-1.070224-.000061-2.545893c.002324-3.608691.015454-6.699307.041822-9.709811l.007521-.819389c.012761-1.329349.028166-2.650783.046425-4.002425l.018733-1.338245.001008-.261128c.001454-.336272.002784-.668775.003991-.999164l.00225-.658451.003518-1.311775c.000717-.328562.001313-.658323.001787-.990941l.000789-.669534.000242-2.445871c-.002026-3.03887-.012274-6.621211-.030273-11.705686-.003692-1.04285-.005324-1.506841-.00732-2.086313-.012214-3.545852-.019943-6.560276-.022268-9.255793l-.000464-2.641819c.001455-2.514757.008677-4.780504.022598-7.012621l.005929-.891565.008435-1.114077.006778-.871262-.006882-.150656c-.037623-.867522-.072394-1.720486-.104499-2.567528l-.031223-.845387c-.017395-.483786-.033934-.966571-.049652-1.449982l-.030354-.968137c-.170803-5.657946-.233107-11.548505-.242525-20.253194l-.000806-4.207856c.000683-1.199776.002055-2.449398.004008-3.753861l.00079-.530562c.00025-.168856.000487-.330001.000711-.484289l.000835-.582615.000373-.267686.000664-.495734.000295-.231091.000756-.644424.000216-.203597.00072-.798892.000076-4.698711-.000859-1.221974-.000271-.31047-.000609-.629767-.000341-.320113-.000754-.652726c-.003212-2.647494-.008824-5.760219-.017768-10.278068-.008379-4.232017-.013319-6.923822-.020902-9.289977v-8.852089c0-8.067865.033152-14.908619.098667-21.516033l.008843-.858865-.012084-1.346833c-.129828-15.471335-.084127-28.558438.185254-41.172783l.02383-1.025384-.002082-.387032c-.002758-.817245-.005212-1.626362-.007357-2.430076l-.002426-.962037-.002128-.957895-.002629-1.431366c-.000509-.317568-.000967-.634882-.001375-.952116l-.001834-1.903837-.000235-3.352248c.005433-10.930446.071413-22.875581.20987-42.67756l.004687-.781549-.006109-.238849c-.069194-2.897927-.101495-5.693872-.103816-8.973225l.000196-.998893c.002885-2.705511.024514-5.757867.061348-9.456789.004875-.489578.008844-.88106.017813-1.760509.047486-4.656462.074389-7.956682.07885-10.740837l.000351-1.352962c-.000768-.658868-.002958-1.294233-.0066-1.919224l-.004126-.62202c-.001537-.206511-.003237-.412355-.0051-.61802l-.00608-.616938c-.006573-.61737-.014625-1.237494-.024187-1.873498l-.001124-.139522c-.003411-3.156422-.00608-6.217915-.008003-9.269618l-.000729-1.220361-.000335-.610167-.00061-1.221064-.000276-.6112-.000901-2.452785.000085-12.089749.000674-2.018502.000265-.681796.000916-2.074398c.000336-.69902.000702-1.405822.001097-2.121087l.000832-1.442015c.006398-10.660482.0193-23.239067.038802-39.884615.002079-1.774686.003805-3.250255.005301-4.535504l.000872-.749182c.000423-.364042.000827-.712914.001217-1.049552l.00076-.657838.000367-.318318.000711-.618698.000346-.301686.000675-.591308.000332-.290929.000654-.575669.000324-.286047.000645-.57178.000323-.287039.00065-.579642.000329-.293907c.013572-12.143139.022802-22.90056.026942-32.713429l.000784-2.016917.000337-.998621.000562-1.978111-.000037-12.292404-.00059-1.813391-.000355-.89979-.000831-1.786309c-.00471-9.184674-.015915-17.689836-.034531-26.054366l-.003696-1.61733-.005894-2.421309-.01077-4.030255c-.000758-.268706-.001524-.537446-.002298-.806239l-.00474-1.613533c-.003225-1.076303-.006579-2.154027-.010066-3.23433.001069-.197434.002129-.394564.003181-.591412l.006213-1.177861.006019-1.172066c.01283-2.533912.024306-5.033966.034559-7.545323l.004646-1.160054c.04484-11.418332.064897-23.212583.072378-39.604411l.000717-1.682979.000328-.853685.000859-2.611315.000247-.887603.0008-3.639525.000155-.932776.000826-16.024294.000078-1.026096.000806-5.925476.000195-.950419.000694-2.790461.00027-.910372.000929-2.673809c.000341-.877233.000713-1.740647.001118-2.590897l.000856-1.683141c.007807-14.438454.025948-25.052676.063642-35.2484117l.004436-1.1747676c.005279-1.3688477.010918-2.7324855.01694-4.0992215l.005256-1.1724405c.010703-2.3471735.022551-4.7104278.035656-7.1316175l-.001112-.0833184c-.006574-1.0842303-.017241-2.0332941-.042982-3.9916879l-.004701-.3563093c-.034222-2.5847874-.047186-3.7848137-.05264-5.2700334-.04494-12.2388671.825728-20.4228496 3.835005-28.1912406l.11907-.3069006.079636-.2202088c.348767-.9534098.733614-1.8732316 1.152477-2.7590477zm584.935113 125.0883495c-.027906-1.585777-.042503-3.060669-.045254-4.710218l-.000152-1.087294c.002741-2.109839.022483-4.56743.056602-7.884025l.000778-.07558.000457-.044443c.031791-3.089605.051041-5.57318.054086-7.695996l-.000021-1.157652c-.003556-2.245674-.028491-4.092967-.080024-5.891105l-.018169-.598038c-.009585-.298588-.019924-.596888-.031043-.896517l-.023283-.60151-.012434-.302983-.008375-.183585-.021955-.378073c-.296068-4.569209-1.307822-8.14275-2.545155-9.938895l-.124467-.17366c-.129934-.174043-.257025-.350191-.381221-.528374-.419998-.602566-1.070023-1.113326-2.00866-1.508529-.099913-.01873-.199669-.036369-.299893-.053437l-.441043-.071179-.444088-.06068c-3.519447-.487691-5.524114-.765478-7.374267-1.021854l-.460106-.063757-.567799-.07868c-1.993153-.276192-4.102712-.568514-8.058136-1.116618l-.131334-.019088c-1.369719-.208365-2.719184-.411935-4.064189-.612981l-2.016137-.299961c-.504185-.07466-1.008854-.149123-1.514839-.223512l-1.013971-.148712c-9.654089-1.412484-19.983785-2.826584-36.70182-5.063867-.862239-.115382-.862239-.115382-1.724635-.230771-17.116818-2.290239-26.824867-3.612628-36.070633-4.951572l-.865648-.125605-2.160617-.315618-.866185-.127364-.869199-.128271c-1.016319-.15025-2.041391-.302722-3.084305-.458704-.170525-.025505-.340361-.055415-.50934-.089702-5.537359-1.123556-11.20561-1.953702-17.049502-2.510503l-1.35025-.12318-.116695-.0071c-2.324668-.148634-4.133774-.443737-7.639154-1.145539l-.447168-.089862c-.281491-.056763-.450606-.090824-.602367-.121255l-.179865-.035996c-2.903352-.579974-4.420794-.784183-5.735141-.753303-.451848.010616-.903896-.009414-1.353034-.059951-.335308-.037729-.670059-.075929-1.005045-.114697l-1.006457-.118099c-4.2031-.499971-8.566582-1.103555-14.635962-1.998235-.923094-.136072-1.660251-.2453003-3.317207-.491242-7.322285-1.0868452-11.562657-1.6942521-15.479214-2.1827823l-.650234-.0803828-.945445-.1142926c-.735018-.0876739-1.471952-.1728506-2.229558-.2579822l-.12753-.0151604c-.45959-.0576297-.900148-.1157849-1.338599-.1770741l-.526213-.0752183c-1.75789-.256855-3.59037-.5805477-6.580541-1.1380188l-.457344-.0853948c-4.490753-.8396974-6.807857-1.2261295-9.023094-1.4411858l-.473889-.0435631c-.236921-.0205727-.47437-.0394092-.714897-.0568563-.203794-.0147825-.407086-.0358077-.609591-.063046-.647817-.0871354-1.284726-.1729896-1.916526-.258358l-.756078-.1022598c-.241785-.0327334-.483157-.0654421-.724446-.0981712l-1.086356-.1475717c-5.681903-.7729685-11.591364-1.5947165-22.00982-3.0525322-1.850313-.2589075-2.835788-.3967814-3.766267-.5268818l-.347933-.0486445c-.174259-.0243612-.350144-.0489469-.532993-.0745036-11.620486-1.6241943-19.520302-2.7101432-27.115503-3.713412l-1.109715-.1462824c-.923611-.1214984-1.84517-.2420976-2.770872-.362624l-.218557-.0309128c-30.006371-4.5824563-51.241537-7.6928283-71.994331-10.4657908l-1.752794-.233557-2.277056-.302546-.039957-.0015141c-3.077622-.1963595-6.001019-.5937789-10.260047-1.3200302l-.589196-.1010845c-.440288-.075975-.797654-.138193-1.569328-.2729504-4.11081-.7178698-5.879295-.999082-7.985636-1.2344464-.088489-.0098879-.176843-.0209573-.265037-.0332051-.932739-.1295327-1.843732-.2559751-2.748219-.381435l-.774036-.1073456c-.4868-.0674983-.972973-.134886-1.460915-.2024942l-.733537-.1016193c-5.8837-.8149402-12.194465-1.6855032-23.071232-3.1842395-20.854726-2.8736238-33.325059-4.5991966-44.696623-6.1963884l-.972184-.1366115-.967823-.1361254-.482594-.067925-1.899283-.267632-1.896088-.2676692-.949294-.1341915c-1.900404-.2687578-3.81365-.54004-5.775013-.8187834-.164247-.0233423-.327887-.0507682-.490769-.0822522-.577135-.1115561-.96818-.1900393-2.048635-.4092222-.298493-.0605528-.565572-.1145083-.808191-.163176l-.454688-.090673c-.71033-.1406643-1.20042-.2322752-1.727893-.3233325-1.490666-.2573322-2.623169-.3782708-3.56196-.3808062-.369205-.0009971-.738071-.0224404-1.104904-.0642312-1.455113-.1657712-2.843756-.3336036-4.249962-.5151168l-.704956-.0919504c-4.596783-.6057877-9.52701-1.3765337-17.67537-2.7111146l-.082139-.0131499-.114629-.0052722c-2.698152-.1467814-5.480717-.438582-8.579671-.8756003l-.853188-.1227874c-.265386-.0389394-.524987-.0775379-.783087-.1164722l-.515466-.0785171c-1.634006-.2513258-3.322319-.5342253-6.153097-1.0206557-.764151-.1313088-1.139703-.1958074-1.459572-.2505223l-.179781-.0304571-.273222-.0295257c-5.028459-.5514569-10.216695-1.3761381-16.923661-2.6261586l-.812213-.1520538-.089431-.0172368c-.682463-.1347626-1.344849-.2598883-2.007638-.3784385l-.568682-.1000756c-3.513374-.6080834-7.201514-1.0568967-14.088853-1.7985608-.75687-.0815037-1.266193-.136498-1.733834-.187364l-.519368-.0566629c-.346722-.0379985-.679697-.0767026-1.009716-.1176204l-.49416-.0632254c-1.483922-.1957882-3.017234-.4516726-5.583229-.9050756-5.740973-1.0144116-8.059726-1.2569153-10.519672-.9763228-3.683781.396447-6.283149 2.2803406-7.66601 6.2349158-.048035.1373656-.099062.2736662-.153046.4088046-1.951965 4.8863743-2.632042 11.0812736-2.594983 21.1735882.005143 1.4006368.017637 2.5571236.051021 5.0787034.031483 2.3779505.043014 3.3918073.050248 4.6946892l.000007.1096524c-.009806 1.8115605-.018906 3.5907276-.027347 5.3551323l-.005531 1.1742764c-.009963 2.1495399-.018958 4.2828803-.027073 6.4322119l-.004339 1.1741422c-.036152 9.9969778-.053714 20.4635128-.061356 34.6078178l-.000854 1.681197c-.000405.849276-.000776 1.711714-.001116 2.587965l-.000928 2.670849-.000269.90938-.000693 2.787457-.000194.94941-.000806 5.919314-.000077 1.025049-.000827 16.028278-.000155.933763-.000801 3.643379-.000247.888542-.000861 2.614064-.000328.854578-.000719 1.684729c-.007128 15.612802-.025661 27.056564-.066126 37.958165l-.005655 1.483562-.009005 2.217212c-.009325 2.214249-.019617 4.423058-.030967 6.657467l-.006027 1.170022-.006223 1.175666-.003186.590257c.004369 1.347878.008531 2.691911.012491 4.034351l.004654 1.610307c.00076.268306.001512.536583.002255.804851l.010558 4.025544c.001329.537244.002626 1.074808.003892 1.612839l.003705 1.615634c.001204.539107.002377 1.078824.003519 1.619295l.003336 1.623819c.014597 7.318664.02365 14.801046.027766 22.801808l.000834 1.786624.000357.899982.000592 1.813845.000048 12.297333-.000562 1.979139-.000337.999159-.000783 2.018036c-.004139 9.818424-.013375 20.583408-.026956 32.734411l-.000328.29395-.000651.579724-.000323.287079-.000645.571855-.000324.286083-.000654.575739-.000331.290963-.000676.591374-.000346.301717-.000711.61876-.000367.318349-.00076.657897c-.00039.336668-.000795.685569-.001218 1.04964l-.000871.74924c-.001497 1.285346-.003222 2.761013-.005302 4.535808-.019494 16.638944-.03239 29.211891-.038786 39.866425l-.000832 1.441202c-.000396.714857-.000761 1.42125-.001097 2.119859l-.000915 2.073156-.000266.68138-.000674 2.017239-.000087 12.08123.0009 2.450839.000275.610704.000609 1.220059.000335.609658.000728 1.219328c.001537 2.43928.003551 4.884714.00604 7.379868l.001551 1.858264.000404.023104.003746.191696c.009478.65972.017388 1.303892.023765 1.946021l.005866.641948c.008037.9634.012649 1.932329.013954 2.952362l-.00021 1.394329c-.0043 2.865228-.031751 6.237897-.080133 10.982225-.008961.878645-.012911 1.268263-.017765 1.75571-.035933 3.608487-.057034 6.576883-.060125 9.194259l-.000308.965627c.001553 2.692522.023888 5.029569.070817 7.357875l.017591.821956c.006208.274241.012763.548926.01967.824618.002678.106863.003642.213761.002892.320654-.140304 19.991429-.208096 32.034313-.215399 42.945112l-.000075 3.830776.000755.947251.001704 1.419972.002385 1.422014c.000907.474736.001927.950398.003058 1.427572l.00241.956538c.002558.958903.005559 1.925418.008993 2.904234.000305.086739-.00052.173478-.002472.260196-.30153 13.13688-.342028 26.776328-.194225 43.181128l-.000136.194219c-.071118 6.829558-.107169 13.875079-.107169 22.269844v8.808107c.007568 2.360695.0125 5.048207.020868 9.274736.00896 4.525225.014582 7.643942.017801 10.298352l.000755.654475.000341.321005.000611.63159.000271.311403.000862 1.225872-.000081 4.724395-.000724.802802-.000216.204468-.000759.646871-.000296.231867-.000666.497262-.000374.268446-.000836.584158c-.000225.15468-.000463.316222-.000713.485485l-.000792.531811c-.001439.960993-.002559 1.891473-.003316 2.793491l-.000573 4.282407c.0062 8.867384.064002 14.754425.229135 20.32401l.028525.925782c.004923.153959.009931.307787.015026.461542l.031614.9221c.016336.461064.03347.922492.051435 1.385825l.032485.817744c.022237.546889.045645 1.097644.070275 1.654757.00784.177331.010957.354839.009342.532336-.006672.736595-.012571 1.466329-.017724 2.197089l-.005828.877911c-.013685 2.198533-.020777 4.434703-.022178 6.921475l.000076 2.046917c.001675 2.811275.009551 5.972293.022535 9.741515.001993.578622.003622 1.041868.007312 2.084401.015929 4.499497.025825 7.831859.029343 10.655864l.000801.758075.00001 2.839613-.000803.676581c-.000806.560327-.00195 1.112955-.003437 1.66562l-.00195.66371c-.002116.664718-.004728 1.333942-.007843 2.021036l-.000973.101342c-.02033 1.385798-.037638 2.728435-.052148 4.068579l-.012309 1.206553c-.02827 2.953076-.043313 5.953129-.047487 9.433183l-.000871.961332-.000167 2.001877c.001651 3.94563.014479 8.544967.035789 14.292806l.000555.149747.000754.203442c.019285 5.204669.03136 9.552562.033916 13.358744l.000361 2.253711c-.001828 4.690715-.020619 8.569979-.06148 12.335205l-.009823.867192c-.003407.2886-.006946.576844-.010621.865047l-.011433.864808c-.001973.144221-.003982.288511-.006024.43291l-.012676.86802c-.008731.579975-.018027 1.162966-.027905 1.751511l-.012765.683845.025648 1.013856c.209711 9.078934.240424 18.493877.12078 29.089996l-.015919 1.299864.006177.419313c.0077.537155.015085 1.071752.022164 1.604828l.013752 1.064428.006574.531267.018534 1.592775c.063911 5.768647.093483 11.602024.098432 18.826732l.000471 3.724562c-.00155 4.029893-.009363 8.498554-.022059 13.594392-.000441.175997-.000814.324917-.001141.45509l-.00086.342612-.000364.144745-.000674.267607c-.000168.066379-.000339.133926-.000522.206157l-.000934.368514c-.000358.141283-.000774.304964-.001276.502904-.015338 6.041578-.025176 10.980535-.02799 15.247027l-.000305 4.255502c.0024 4.022978.013063 7.4757.033731 10.849686l.005377.842141c.012105 1.822317.027189 3.63355.045528 5.511816.020913 1.356672.032234 2.590947.035417 4.012962l.000362 1.609556c-.00227 1.481697-.011111 3.22078-.025356 5.465561-.00554.873014-.008652 1.374618-.01134 1.846334l-.001579.282175c-.00026.047342-.00052.095068-.000781.14352-.005001.926464-.008098 1.818726-.009068 2.679738l.000165 1.268448c.012406 8.512615.259762 13.896972.98024 19.330531l.033325.251077.053203.308598c.838851 4.775028 2.300875 8.392747 3.72864 9.890707l.129684.130312c.106809.102576.211326.207511.313473.314729 1.716082 1.801255 3.827843 2.523595 6.473309 2.255918 3.860894-.367491 7.920265-.883161 12.93809-1.619273 2.374053-.348272 10.180357-1.550334 12.767976-1.943384l.340186-.051551c.100152-.01513.186651-.028142.258259-.038843.215476-.0322.431946-.057349.649065-.075408 3.634341-.302286 7.40669-.752143 12.546146-1.464507 1.187294-.164568 2.175995-.304322 4.276704-.603265 4.489608-.638896 6.4283-.907781 8.920769-1.225804l-.137504.016771.21555-.032901c.94855-.147821 1.870971-.289651 2.792351-.429134l1.037435-.156122c4.851663-.725744 9.933918-1.42451 18.876986-2.623831.684147-.091749.684147-.091749 1.367771-.183465 9.620522-1.29096 15.378178-2.097071 21.038023-2.982955l.828009-.130277 1.037042-.165046 1.024324-.165985-.286491.046716.239148-.053226c4.151316-.926058 8.309141-1.579029 13.78289-2.240706l.7547-.09031c.613497-.07269 1.833531-.212382 3.094274-.355987l.582712-.066328c1.550617-.176389 3.031038-.344004 3.386357-.385223 2.684945-.311468 4.756751-.576458 6.740874-.871104l-.268955.038884.079808-.015084c4.453784-.871866 17.06766-2.259839 20.170007-2.922752l.168304-.037432.242198-.058282c3.364721-.792305 5.926557-.953848 11.038656-.991081 1.495339-.010891 2.283365-.022621 3.01207-.05277l.064957-.003599.415175-.056758c1.283103-.178023 2.54467-.352925 3.816578-.529117l.849821-.117701c6.109535-.846023 12.617275-1.743908 23.005402-3.175377l.714335-.098433c6.546712-.902096 9.792533-1.349424 12.745442-1.756766l.452388-.062408.450201-.062113c.074986-.010347.149982-.020695.22504-.031051l.462019-.063754c.618205-.08531 1.24745-.172159 1.915551-.264385 16.874042-2.329322 29.754173-4.122324 42.096717-5.867177l1.680067-.237682 1.67535-.23736.102505-.013992c2.794491-.366757 4.978416-.674716 10.185986-1.425401 11.238845-1.62011 17.154512-2.381772 23.421324-2.865661l.769506-.057903c.64336-.047161 1.292788-.091677 1.954313-.134165l-.23072.014204.366907-.039114c2.376038-.265981 4.290627-.564221 6.054709-.959357l.333384-.077529.14033-.035819c2.56908-.654639 4.564541-.888494 8.339646-1.136313l.481327-.031082c2.384536-.151625 3.355053-.241691 4.389322-.428325.274225-.049483.550398-.087483.827797-.1139.213575-.020339.424117-.04185.634577-.064983l.421685-.048562c1.69329-.203967 3.507165-.530956 6.951906-1.211447l.490773-.096739c4.32358-.850233 6.491587-1.219601 9.19767-1.488223l.201458-.020323-.040491.004716.159734-.018807c.164807-.019758.327965-.039526.490402-.059427l.486069-.060233c2.02399-.253681 4.080019-.547737 7.978912-1.124726 1.306034-.193277 2.086789-.308347 2.814476-.41409l.543193-.078636.184293-.026551c5.631295-.810394 9.70256-1.278988 13.833007-1.520385l-.236086.013855.040974-.003917c.241083-.025561.479383-.052095.717764-.080023l.477718-.057841c1.99801-.249785 4.134188-.615861 8.065471-1.341675.185432-.034236.185432-.034236.371541-.068583 5.405343-.997396 8.181688-1.439967 11.581985-1.74762.184072-.016655.368571-.028203.553284-.034632 2.935286-.102156 5.979298-.532539 10.809491-1.454982.046778-.008933.092815-.017734.138462-.026468l.271975-.052154c.454766-.087399.940138-.181665 1.804678-.350044 1.700731-.331239 3.104009-.599696 4.330185-.823846l.715416-.12932c2.204282-.393614 3.856116-.640615 5.780979-.867708l-.108923.012813.452478-.062577c3.4532-.479057 5.3486-.742003 7.163593-.993793l.604046-.083799c1.815363-.251842 3.714472-.515302 7.174718-.995336l.547129-.075902c3.732991-.517872 5.729707-.794873 7.603641-1.054841l.840429-.116591c1.873403-.259894 3.866048-.53633 7.591429-1.053146.073896-.010251.147904-.019676.222011-.028271 1.724419-.200004 3.130304-.39554 6.413185-.877 1.733131-.254176 2.741516-.39993 3.709654-.532796l.414449-.056432c.138658-.018733.278491-.037482.421493-.056525 4.375914-.582721 7.928742-.885685 11.415404-.88787l.515341.001879.304137-.03536c4.061621-.479781 8.225248-1.039387 14.14199-1.882464l.690575-.098548c.878563-.125556 1.616703-.231472 3.148677-.45161 5.264394-.756472 8.134283-1.163195 10.943618-1.54113l.581143-.077888c.484842-.06474.972669-.129282 1.475442-.195272.089805-.011787.179765-.022353.269857-.031696.308923-.032036.611004-.06514.913551-.100332l.455085-.054479c1.75284-.21581 3.641969-.517439 7.057171-1.09844.714145-.121491 1.020877-.173555 1.415711-.240108 4.96071-.836168 8.100155-1.258862 11.567145-1.455811l-.416102.024138.352531-.048719c11.345335-1.57705 18.181386-2.519826 24.462519-3.363021l.816456-.109461.812113-.108596.809718-.107993c.134862-.017963.269706-.035912.404571-.053853l.809784-.107585c1.080933-.143425 2.168482-.287002 3.283449-.433545l-.115141.014773.163503-.023677c1.323442-.197272 2.473103-.349276 4.652792-.623199l.395588-.049639c1.350655-.169252 2.059213-.259198 2.747449-.350789l.318468-.042684.162397-.021983c2.401042-.325979 4.377029-.6605 6.116497-1.056232.17914-.061868.354439-.125281.526549-.190399l.176642-.064967.016631-.016209c.440437-.466817.90183-1.177438 1.261207-1.999562l.115845-.277989c.040176-.101315.081179-.202299.123005-.302943 1.250135-3.008097 1.922385-6.660097 1.92247-10.494-.008868-3.045054-.016601-5.992535-.023335-8.936004l-.003683-1.655895c-.000796-.368157-.001576-.736525-.002342-1.105287l-.002251-1.107652c-.012875-6.470332-.021255-13.117334-.026566-20.920353l-.000881-1.349168c-.000425-.680428-.000829-1.369761-.001211-2.068615l-.000738-1.410586-.000348-.715156-.000656-1.450726-.000308-.735843-.000579-1.493333-.00027-.757763-.000962-3.108233-.000211-.797038-.000735-3.272185-.000157-.839739-.000906-7.051676-.000072-.925235-.000926-21.234925-.000108-.885145-.000849-5.116242-.000178-.821542-.000819-3.202131-.000233-.780205-.000771-2.294012-.000282-.749591-.000601-1.477381-.000319-.728063-.000679-1.435553-.00036-.707763-.000761-1.396181c-.005127-8.993122-.013833-16.409236-.028064-23.597207l-.002234-1.104224-.002322-1.101716-.002412-1.100298c-.00041-.183326-.000823-.366638-.001241-.549959l-.002551-1.100219c-.000433-.183449-.00087-.366953-.00131-.550534l-.002693-1.102597c-.005026-2.023796-.010538-4.062461-.016581-6.14626-.011147-1.723851-.009091-3.499393.003595-5.649241.000692-.117214.001382-.23124.002089-.344547l.002183-.340231c.004151-.628857.009291-1.310669.018227-2.456357.01699-2.177958.027189-4.097632.028393-5.819195l-.00025-.919748c-.005645-4.353986-.076609-7.407065-.253335-10.261871l-.038086-.588183c-.019812-.293038-.040784-.584768-.062963-.876411l-.045981-.583531c-.031743-.389425-.065684-.780141-.10193-1.175043-.043456-.473468-.070015-.948336-.079627-1.423697-.02168-1.072326-.038745-2.101058-.051471-3.133789l-.007843-.689603c-.013213-1.267271-.020034-2.556315-.020967-3.954024l.000072-.773685c.002382-2.88019.02795-6.258234.072674-10.82927l.000564-.057615c.04067-4.156569.060093-6.499999.066742-8.66753l.001355-.517669.00089-.515944.000522-.781683c-.016645-3.677577-.030544-7.24245-.041811-10.794509l-.006445-2.130497c-.016348-5.681486-.026014-11.381312-.029457-17.508626l-.000732-1.540971.000405-8.563312.00016-.345422.000954-1.744629c.007531-12.199453.033997-26.586215.076772-45.493345l-.001228-.195518c-.002178-.542917-.003886-1.074656-.005113-1.603612l-.001242-.633949-.000447-.31698-.000214-1.927342.00088-.661818c.00504-3.009645.024718-6.47668.060584-11.722986.017592-2.573098.027044-4.009913.034839-5.387313l.002414-.434249c.001187-.217394.002349-.436132.003513-.660453.010623-2.04751.017041-3.963812.018707-5.777203l.000252-1.529791c-.003437-5.521665-.05535-10.106664-.172698-14.633386-.006256-.241301-.008142-.482696-.005659-.724066.00137-.134197.00137-.134197.002694-.268461.003882-.397151.007363-.786338.01046-1.17289l.006327-.867545c.00696-1.060394.011114-2.131089.012827-3.322907l.000695-.662761-.00001-1.413582-.000679-.758814c-.001794-1.556308-.006177-3.352682-.012677-5.533001-.006087-2.041818-.010161-3.899157-.011592-5.608827l-.000285-2.195282c.003367-5.109404.037105-8.855438.122364-12.469508l.018382-.746259c.028697-1.117777.062496-2.231022.102029-3.376545l.010525-.325836-.000073-.111823c-.020674-2.764135-.03166-5.559481-.03499-8.713513l-.000929-1.281519.000204-2.262302c.000711-1.294927.002396-2.656795.004948-4.102875l.022573-11.140832c.000803-.584941.001431-1.159172.001878-1.723354l.000434-3.269815c-.00392-6.582993-.038835-11.802998-.120794-16.954171-.003267-.205348-.003371-.410733-.000312-.616083.113669-7.63037.169824-15.41207.173378-23.636902l-.00062-2.612386c-.007465-8.321356-.067014-17.116561-.173731-26.677416l-.002865-.080939c-.012907-.632107-.020074-1.234958-.021319-1.839137l.000736-.605754c.009075-2.028211.08461-4.184465.233284-7.601562.001731-.039775.001731-.039775.003458-.07948.129328-2.972801.184579-4.586115.189696-6.028852l.000171-.390137c-.000519-.193848-.001929-.386533-.00417-.581071-.022655-1.726023-.033578-3.51671-.035457-5.506035l.000302-1.716413.000734-.448733c.001897-.995086.005807-2.157193.012237-3.849451.005992-1.57719.009952-3.003548.011289-4.30911l-.000035-1.871499c-.005194-4.321994-.048732-7.253988-.15875-10.226708l-.02372-.616096c-.016458-.411744-.034217-.82614-.053353-1.246942-.010793-.237347-.017355-.474869-.019685-.71245-.007156-.729907-.013896-1.448417-.020246-2.160692l-.007436-.852067c-.002418-.283244-.004775-.565822-.007074-.848062l-.00672-.846039c-.001092-.140948-.002169-.281894-.003232-.42288l-.006211-.84672-.005886-.849651c-.046761-6.956179-.061938-14.403824-.071249-27.199938-.007777-10.689797-.017604-16.66194-.045713-22.389602l-.003772-.746067c-.006463-1.242361-.013824-2.482359-.022248-3.76595l-.003671-.321225c-.013369-2.032461.092958-3.874863.308969-6.333792.024637-.280448.043148-.486196.087946-.980442.211656-2.335145.257634-3.170402.224041-3.881791-.116479-2.606255-.167018-5.273477-.172534-8.347072l-.000398-1.093182.0008-.43706c.002722-1.105229.010935-2.332093.026406-4.294475.014418-1.828691.023345-3.229798.02592-4.408016l-.000153-1.371492c-.002296-.822411-.008888-1.556759-.020219-2.307846l-.005839-.350579-.008044-.210604c-.045808-1.165591-.086148-2.30259-.121455-3.434462l-.025544-.848309-.023698-.848586-.021892-.851063c-.094514-3.838656-.135433-7.81936-.139527-12.844146l-.000024-1.714836c.002157-2.926633.015104-6.206449.035967-9.994116l.000398-.072197.000544-.09878.000398-.072175c.022311-4.048494.034826-6.790197.03807-9.125923l.000655-.627628.000126-.912579-.000895-.890125-.001161-.587711c-.00023-.097853-.00048-.195714-.000748-.293666l-.001831-.589493-.001665-.446009-.002068-.338739zm-431.888621-1.246242c1.677608.022853 2.746869.187641 4.917041.621825.53313.106663.755433.149334.9772.186616.10798.018153.192477.03077.255099.038897l.29938-.025203c4.321624-.358802 7.727346-.254466 11.333533.617532l.516654.129827c1.268119.330608 2.415667.890299 3.409848 1.623141l.083973.064222.174656-.053201c.68811-.199067 1.407646-.326519 2.150363-.373501l.279589-.01383c2.26777-.080988 4.320771.087577 7.131656.477748.358493.049761.644682.090754 1.252883.178796 1.564718.226504 2.361355.332184 3.069777.396109l.135076.012879.273729.002997c2.837556.047708 5.218278.290731 9.749684.891003l.512472.068176c4.172965.557331 5.920076.742235 7.917764.785113.512498.011001 1.023391.061392 1.528162.150728 2.300007.407065 4.277877.575992 8.969005.834261 2.271088.125035 3.321274.189237 4.650377.294433.543461.043013 1.082494.130396 1.611711.261274 2.272149.561913 4.717242.824576 8.486006.967804l.149636.005628.295296.010723c.495016.017528 1.02856.034153 1.964369.062189 3.041381.091119 4.913226.167732 6.673857.309318l.525911.044504c.262345.023307.52457.048254.790245.075109l.037776.00474.150062-.005757c2.930047-.084218 5.345625.246303 9.702357 1.091355l.511455.099795c.190669.037408.190669.037408.378271.074154 2.75147.538486 4.06466.729223 5.265903.743441.289114.003421.577943.01938.865674.047832 4.85897.480464 9.943027.973811 15.674761 1.522386 4.545381.43503 8.183156.780143 16.369991 1.554533 12.131088 1.147474 19.209347 1.821409 25.785944 2.462219l.819791.079961 1.631806.159651c1.358811.133211 2.72054.267373 4.12634.406469.334497.033097.656459.0666.975739.101729l.47814.054066c1.51554.176034 3.081722.402514 5.754529.810152 2.414565.368253 3.466209.520685 4.73093.675292l-.130693-.016278c1.858129.184038 12.33213 1.213879 23.510827 2.314471l1.317915.129762 3.30445.325417 1.31813.129836c8.550218.842253 16.696159 1.645834 20.900238 2.063873 19.308389 1.919957 35.211533 3.545931 50.465381 5.173646.631055.067197 1.250987.132715 1.865687.197138l.735508.076818c.352764.036715.704573.073144 1.056557.109397l.704536.072306c5.52595.565092 11.280078 1.105567 21.613867 2.052104 3.242212.296974 4.986243.457135 6.74848.620393l.4822.044706c.161644.014998.324577.030127.48994.045491 14.320775 1.330593 24.197419 2.366945 34.189062 3.660313l-.148778-.019671.021103.002042c.121209.011418.258128.023801.444199.040268l.149291.013165c1.194012.104979 1.681046.152626 2.42461.249611 5.040111.657395 9.167589 2.410703 12.617361 6.394058 4.557102 5.252221 7.358413 12.450003 7.392402 19.619658l-.002299.47449-.001-.058-.001354.725468c-.030102 13.554267-.04647 21.554193-.054717 28.976811l-.000899.837811c-.000288.278627-.000565.556699-.000831.834485l-.000779.847366-.000365.423541-.00068.847856-.000318.424737-.000588.852147-.000272.427832-.000732 1.293063-.00042.872127-.000583 1.589156.000481 6.429096c.006174 13.696507.046173 25.929684.129015 37.722705.000697.099254-.000084.198512-.002342.297743-.088543 3.891021-.127744 7.835462-.130263 12.539051l.000332 1.434556c.001407 1.458743.006002 2.99216.013442 4.619307.000979.214093.00196.42261.002968.629943l.002057.414389c.006317 1.246238.014146 2.555256.028615 4.875641.028899 4.634457.045561 7.957431.048607 10.790064l.000042 1.786286c-.00115 1.040184-.00443 2.032621-.009924 3.02651l-.003992.663348c-.004321.664643-.009634 1.334791-.015964 2.025021-.007318.407833-.013884.807969-.019722 1.205105l-.008213.594041c-.017902 1.383588-.027024 2.759202-.028371 4.328239l-.000104.684873c.001159 2.209986.016375 4.829215.043135 8.361108.001503.198362.002442.322338.003239.42776l.001527.202648c.000793.105496.001724.22966.003213.428321.020282 2.719956.032577 4.996821.034821 7.014862l.000314.913696c-.001037 2.241651-.015879 4.176458-.0477 6.087491l-.014145.790158-.016133.791901-.008828.397997-.004236.159448.017006.683837c.24052 10.093216.371201 17.910999.377559 24.884035v1.258835c-.004201 3.125409-.034052 6.094197-.091132 9.040729l-.024287 1.177744c-.004291.196199-.008704.392379-.013239.588579l-.02868 1.177766-.031633 1.180169-.016929.591583-.004488.126262c-.126627 3.024535-.181015 5.987995-.185784 9.798631l-.000032 1.11259c.001492 1.326747.008258 2.757235.01946 4.325105l.001068.148629.002138.291996c.003619.487982.007701 1.006484.01496 1.914045.022569 2.821485.036458 5.044362.039328 6.949102l-.000098 1.461241c-.002115 1.170008-.009404 2.231862-.02256 3.268667l-.008603.619741-.010044.617718c-.007185.412024-.015352.825359-.024546 1.245323l-.012797.543965.000602 69.379927c-.05468 5.548157.02452 11.236761.230001 18.409255l.026342.904388c.00257.086822.004008.173674.004314.260534.046878 13.288231.070574 27.042532.074819 42.030919l.000262 9.057354c-.000513 2.397276-.001472 4.82768-.002865 7.294049l-.000276.481502-.000571.957291-.000296.476066-.00093 1.419538-.000325.470755-.000674.938703-.000348.468226-.000722.934891c-.000369.467063-.000751.933693-.001147 1.400512l-.000808.934074-.000431.48075-.00089.963381c-.010325 10.935922-.028613 22.547978-.063978 42.721999l-.000573.322769-.000153.795735.000972 3.060638.000198.33935.000709 1.024964.000276.344955.000613.696656.000337.352299.000738.714035c.000269.24806.000553.498709.000853.752385l.000948.770549c.004483 3.512286.011928 7.656239.023394 13.510998.015412 7.869349.025386 14.197281.028619 19.639717l.000133 6.89566-.000754.982374c-.003869 4.384619-.014203 8.295554-.032062 12.266094l-.004093.88354-.004343.886803c-.005214 1.037012-.010944 2.083341-.01721 3.14828-.001291.11412-.002239.226276-.002824.338537l-.000113.512864c.003293.703374.020716 1.522195.056481 2.903139.035012 1.351875.048841 1.975589.057695 2.771151.060252 5.413871-.37215 9.496329-1.862305 13.711789l-.133615.366605-.006.016-.017.046-.020053.058468-.08093.224724c-2.751041 7.434573-8.791907 13.1951-16.131078 14.448513l.133394-.024997c-2.48501.460443-4.888095.732963-7.986596.957401l-.629203.044288-.156145.010635-.306287.02053c-.460988.030548-.95167.06147-1.778256.112794-.482638.029968-.912923.057047-1.302149.082125l-.554455.036227c-1.316211.087372-2.13443.152845-3.05021.243219-2.077613.212402-4.114018.420157-6.1341.625768l-1.21029.123128-1.207567.122734c-.201101.020429-.402138.040847-.603136.061256l-3.015174.305776c-.201232.020382-.402551.040768-.603979.061159l-1.210097.122443c-15.551701 1.572789-32.05376 3.211139-60.867237 6.056843l-.115229.010708c-1.5972.1391-3.146961.276002-4.691995.414716l-.842533.075867c-.280859.025364-.561819.050813-.843135.07637l-.845279.077019c-8.045203.735222-16.58902 1.577856-31.574314 3.08601-2.884379.290291-4.509528.453723-6.079425.611177l-.470515.047178c-.235633.02362-.472732.047377-.71536.07168-17.169222 1.719766-29.043174 2.836662-40.430647 3.748979l-1.337748.106411-2.335492.182112-2.24978.169739-.013.001-.01.001-.66868.068317c-3.086287.305013-6.314203.627762-9.909828.990364l-.989912.099895c-3.016404.3046-5.430463.549664-10.863265 1.102143-23.390282 2.378634-37.890933 3.803397-50.825351 4.916184l-1.018017.087215-1.012311.085989c-.336575.028467-.672332.05674-1.007404.084833l-1.003299.083748c-1.168432.097099-2.330116.192125-3.490776.285579l-2.208306.176022c-.552497.043595-1.105584.086907-1.659874.129989l-1.11037.085874c-1.112341.0856-2.231142.170425-3.361328.254907l-1.446279.106941-.17579.024628c-.488612.063417-.974894.125814-1.460386.187374l-.97039.122055c-6.46835.806965-12.97925 1.486396-23.188317 2.467472l-.755724.072529-.148195.014203-.291515.027927c-.487312.046673-1.004786.096171-1.895855.181372-9.389859.897831-14.684432 1.424063-19.709241 1.991072l-.699771.079424c-1.164649.132952-2.324332.269147-3.527163.413771l-.212466.023246c-4.293604.423375-6.20617.603754-8.627518.800873-3.250599.264626-6.151715.4386-8.922897.522224-.651928.022578-1.362025.071884-2.17143.149478l-.16673.016185-.330247.033346c-.718094.074468-1.483979.166835-2.905605.345132-3.964522.497223-5.807138.676711-8.299152.711487-4.899099.06485-9.008588-2.188274-12.171837-5.755986-2.090409-2.357695-3.737414-5.261012-5.009887-8.492176l-.135976-.342494c-1.645016-4.238459-2.135906-8.505463-2.152343-14.441168l-.000245-.677455c.001257-.565365.006311-1.17702.016212-2.166805.008999-.899686.013285-1.399149.014796-1.867266l.000662-.422803c.003085-1.340681.005782-2.650851.008106-3.951396l.001493-.865834c.00024-.144144.000475-.288227.000705-.432277l.001329-.864135c.000212-.144033.00042-.288091.000623-.432202l.001165-.86553c.000741-.577751.00141-1.157268.002008-1.740386l.000844-.877605.000383-.441257.000686-.888285.000304-.44737.00053-.902058.000007-9.307602-.000805-1.637091-.000315-.558483-.000702-1.137175-.000421-.629724-.000923-1.285226c-.003258-4.342839-.008326-9.283012-.015036-15.114882l-.000965-.838844c-.006797-5.914697-.011821-10.929736-.014859-15.356246l-.000814-1.248971-.000366-.612979-.00065-1.203952-.000966-2.325525.000027-6.940449.000716-1.499775.000299-.493721.000691-.979344c.001003-1.299132.002334-2.573057.004007-3.838977l.001319-.948207c.00023-.157874.000466-.31569.000707-.473482l.001513-.946728c.000526-.315658.001073-.631488.001643-.947758l.001774-.9504c.001841-.952258.003881-1.910898.006125-2.883176.003523-.546742.006688-1.08644.009492-1.621893l.003935-.800346c.001832-.398931.00346-.796262.004884-1.193172l.004601-1.588203.001478-.797671.000532-.400645.000292-2.445753c-.00478-5.400784-.044839-11.59534-.122279-21.177806l-.000404-.050058c-.075193-9.304281-.115496-15.438677-.122767-20.732541l-.000709-2.80957c.000244-.265948.000578-.530744.001002-.794724l.00154-.789829c.000302-.131343.000625-.262565.000972-.39371l.002346-.786278c.004356-1.310033.010942-2.620733.019723-3.974234-.001571-.746648-.00304-1.483157-.004408-2.213611l-.001594-.873899c-.000774-.435758-.001511-.869924-.002214-1.303381l-.001359-.866229c-.00197-1.298708-.003629-2.596325-.004996-3.916671l-.000868-.883859c-.000413-.443875-.000794-.890863-.001143-1.341847l-.000657-.907557-.000297-.458264-.00077-1.395091-.000216-.472449-.000886-2.926317-.000057-4.75456.000952-4.081388.000203-.614885.000709-1.896711.000269-.650243.000585-1.328672.000316-.67882.000677-1.387591.000362-.709162.000769-1.450038c.000798-1.471574.001684-3.008536.002654-4.617945l.000479-.797405.000223-.372111.000611-1.021569.000185-.312159.00096-1.642831.00014-.244478.000889-1.603093.000121-.225154.000748-1.448265c.000487-.985118.00092-1.952161.001295-2.902103l.000673-1.877371.000026-12.0103-.000721-1.574938c-.004359-8.318113-.017031-15.355967-.041152-22.296559l-.004657-1.30051c-.003994-1.083289-.008273-2.16601-.012848-3.252673-.055999-13.680183-.015889-27.423803.119951-41.106855l.075141-6.713113.000403-51.495619.000031-1.512151.000957-27.519175.000066-1.261019.000943-14.51519.000092-1.166551.000928-10.292024.000115-1.125625.00087-7.822738.000134-1.112756.000861-6.678491.000153-1.115984.000805-5.608922.00017-1.129516.00089-5.701421c.008708-54.02726.026609-101.399441.057643-146.651626l-.003594-.246559c-.06459-10.683458 4.601678-20.781881 13.176924-24.524825l.052037-.021583.108948-.056996c2.193425-1.089476 4.494135-1.588929 6.859142-1.615861zm.708728 20.176857-.063673.10863c-.083795.145152-.17126.312722-.259378.501732-.665123 1.426669-1.062537 3.416999-1.024938 5.505462l.001618.18686c-.031032 45.248337-.048932 92.61713-.057639 146.641133l-.00089 5.701211-.00017 1.129475-.000805 5.608724-.000153 1.115946-.000861 6.678267-.000134 1.11272-.000871 7.822493-.000114 1.125591-.000928 10.29173-.000092 1.16652-.000943 14.514824-.000066 1.260989-.000957 27.518597-.000031 1.512122-.000403 51.494749-.000753.122792c-.194355 15.826761-.259392 31.764165-.194511 47.614143.00653 1.551144.012458 3.094133.017819 4.642004l.004457 1.328246c.019438 5.985227.030583 12.098506.035421 19.08798l.000973 1.567944c.00029.527658.000546 1.060428.000769 1.598614l.000115 12.202322-.000678 1.909657c-.000506 1.288599-.001118 2.608592-.001829 3.962411l-.000363.68248-.000889 1.603564-.00014.244538-.000961 1.643177-.000185.312216-.00061 1.021744-.000223.372171-.000957 1.595502c-.000784 1.320006-.00151 2.590551-.002175 3.815739l-.000768 1.448717-.000361.708523-.000678 1.386359-.000316.678231-.000584 1.327548-.000269.649713-.00071 1.895251-.000204.614446-.000956 4.079087.000043 4.753994.000871 2.927765.000214.47285.00076 1.396591.000294.458866.000649.90892.000355.450447.000774.893854c.003129 3.409962.008125 6.641987.015282 10.095665-.009546 1.481127-.016463 2.909798-.020706 4.342031l-.002049.781908c-.001188.521957-.002022 1.045731-.002499 1.574017l-.000109 2.007482c.004196 5.437737.044384 11.663335.122832 21.37043l.000404.050059c.076038 9.408978.116305 15.581034.122643 20.938169l.000492 2.463191c-.000445.542615-.001261 1.080411-.002448 1.616201l-.004665 1.604167c-.004327 1.202834-.010515 2.409761-.018538 3.652834-.002594 1.127349-.004912 2.23666-.006963 3.3394l-.001692.943863c-.000271.157132-.000537.314196-.000797.471227l-.001497.942044c-.001911 1.256232-.00348 2.514578-.004717 3.792154l-.000866.962055-.000386.484233-.000682.975881-.000295.492048-.000705 1.494986.000004 6.923037.00097 2.321033.000312.597301.000706 1.216459c.002915 4.72048.008226 10.112748.015663 16.583535l.000317.276342.000647.562475c.006718 5.838201.011792 10.784124.015054 15.132132l.000923 1.286759c.000145.211569.000286.421716.000421.630479l.000703 1.138539.000316.559153.000805 1.63906-.000009 9.31853-.000836 1.35091c-.000317.44672-.000674.890115-.00107 1.330958l-.000846.878512c-.000599.583712-.001269 1.163804-.002011 1.742111l-.001167.866349c-.000815.576978-.001701 1.153088-.002662 1.730162l-.001496.866564c-.002327 1.301618-.005029 2.612761-.008118 3.954316l-.000304.312165c-.001141.56323-.005657 1.10809-.016129 2.154953-.008367.836457-.012995 1.377664-.014718 1.843769l-.000325.745054c.010434 3.767768.278891 5.991937.852646 7.399005l.044723.111592c.205434.521656.419783.990661.625903 1.388169l.030573.058351h.040195c.857575-.082969 1.898822-.203323 3.322396-.380456l.363974-.045476c1.943036-.243691 2.827867-.348128 3.982878-.458854 1.190396-.114118 2.29806-.191029 3.431895-.2302 2.443498-.073822 5.014331-.227989 7.948196-.46683.162149-.013201.322091-.026342.480837-.039516l.473658-.039711.47255-.040454c1.738068-.15036 3.576168-.326738 6.860673-.65061l-.087252.008107.245992-.029394c.98641-.118069 1.946087-.230768 2.90416-.340813l.718647-.082079c5.273626-.598883 10.688748-1.138007 20.426038-2.069058 1.156866-.110616 1.682842-.160939 2.330968-.223062 10.485889-1.005073 17.003745-1.682135 23.416168-2.482433l1.373884-.173543c.458362-.058586.917594-.117966 1.379103-.178303.186474-.024379.373599-.043493.561152-.057319.940024-.069299 1.870742-.138701 2.794979-.208457l1.106155-.083892c.735604-.056062 1.467784-.112414 2.197988-.169181l1.094006-.08548 1.637824-.129599.545635-.043615 1.637886-.132259c1.821597-.148211 3.651195-.30081 5.511412-.459783l1.119985-.096165c12.738907-1.09889 27.10274-2.510837 50.202571-4.859934 4.248029-.431996 6.652613-.676263 8.94265-.908003l.548295-.055467c.091311-.009234.18266-.018471.274158-.027721l.551655-.055754c.18507-.018699.37162-.037542.560535-.056619 4.345115-.438774 8.148531-.819123 11.784913-1.177692.077689-.007661.155465-.014412.233312-.020251.658243-.049374 1.315405-.09922 1.972455-.149617l1.314235-.101556.645796-.050453 1.293436-.102142c11.439803-.909837 23.326254-2.025767 40.717004-3.767722 2.017739-.202108 3.653548-.366542 7.255909-.729092 1.056425-.106321 2.08104-.209355 3.075914-.309297l1.470263-.147617c1.931298-.193794 3.747765-.375606 5.465945-.546988l1.270465-.126605c10.020423-.997583 16.651414-1.633669 23.46647-2.243684l1.280853-.114155c.999253-.088676 2.007171-.177244 3.034837-.266744l-.034653.002548 1.03514-.102036c26.78198-2.64528 42.809988-4.236254 57.537985-5.723036l1.049916-.106034c.17466-.017647.349168-.035283.523539-.052908l1.211622-.122534 1.208412-.122332c.603603-.061136 1.206451-.122241 1.809215-.183383l1.808715-.183605c2.81526-.285992 5.643347-.574261 8.552579-.871675.23407-.02311.460263-.044739.684147-.065343l.446339-.039972c1.190821-.103662 2.421506-.186732 4.536468-.318052.795209-.049375 1.262045-.078792 1.689497-.107095l.282304-.018911.142723-.009719c2.711992-.185608 4.588392-.389146 6.34758-.714194l-.240181.042829.049427-.043333.061517-.057765c.390578-.378994.775238-.988238 1.035262-1.727601l.060813-.1681c.597267-1.605972.823411-3.625788.785806-7.004731l-.001666-.141083-.003922-.279335c-.008029-.515102-.021124-1.07027-.046641-2.055503-.041266-1.593378-.061371-2.552506-.06398-3.432456l.000025-.40253c.00062-.200475.002142-.401282.00452-.60924.003537-.602486.006902-1.199107.010098-1.791586l.004667-.885825c.000757-.147192.001503-.294178.002239-.440987l.006344-1.317187.001991-.437678.005607-1.311135c.000592-.145631.001175-.291272.001748-.43695l.003316-.874729c.002664-.729669.005081-1.461608.007257-2.199179l.002496-.888003c.005557-2.079321.009247-4.213343.011214-6.475881l.000738-.977743.000137-6.269236c-.00286-5.557255-.012972-12.043583-.028916-20.185297-.01318-6.730013-.021056-11.20318-.025225-15.059553l-.000738-.716243-.000338-.353451-.000612-.699062-.000276-.346213-.000906-1.36973-.000225-4.215309c.035354-20.167945.053635-31.775461.063954-42.704821l.000891-.962796c.000145-.16024.000288-.320383.00043-.480454l.000808-.93349c.000395-.466524.000777-.932854.001146-1.399614l.000721-.934277.000349-.467915.000672-.938071.000325-.470433.000627-.944356.000303-.474199.000867-1.432341.000275-.481157c.001392-2.463468.00235-4.890959.002862-7.285305l.000182-7.086439c-.002555-15.077948-.024371-28.887529-.069165-42.195665l-.006024-1.596013-.022816-.809815c-.159038-5.552917-.245182-10.272269-.254233-14.708403l-.000155-1.468977c.001807-.973332.007444-1.935697.016958-2.893135v-69.428822c0-.079696.000953-.159389.002858-.239061.04769-1.994318.070924-3.793498.074558-6.033903l-.000132-1.402281c-.003009-1.831763-.016495-3.983305-.038411-6.723094-.009483-1.185527-.013579-1.711636-.018295-2.371753-.011707-1.638527-.018743-3.137921-.020135-4.533949l.00021-1.172117c.005733-4.019648.064748-7.200987.203276-10.509753l.011786-.442565c.015916-.568391.030756-1.135587.044532-1.702634l.026133-1.134208c.071461-3.28011.107528-6.578577.110053-10.097615l-.000398-1.181459c-.009538-6.942737-.145116-14.804373-.393119-25.071535-.00387-.160208-.003888-.320485-.000054-.480693.003017-.126086.005952-.251818.008806-.377286l.01616-.750347.014262-.748287c.031098-1.746934.047057-3.512061.050443-5.540493l-.000116-1.808857c-.003076-1.884774-.014851-4.01445-.033708-6.543385-.001483-.197909-.002411-.321602-.003201-.426784l-.001524-.202187c-.000795-.105258-.001734-.22914-.003236-.427352-.025917-3.420607-.041251-6.011267-.043708-8.206841l-.000145-1.066876c.001265-1.383972.008424-2.624563.022154-3.850619l.01154-.918831c.007108-.511184.015386-1.025437.024883-1.55208.016644-1.830112.025835-3.527296.027986-5.392369l.000082-1.696877c-.002758-2.809207-.019304-6.129372-.048471-10.806923-.014524-2.329065-.02239-3.64449-.028754-4.900192l-.003081-.62729c-.000667-.140255-.001326-.281735-.001985-.425749-.007604-1.662842-.01229-3.231807-.013691-4.726504l-.000294-1.470666c.002487-4.34209.035634-8.074595.109353-11.726975l.022629-1.073458-.00799-1.167898c-.076987-11.429267-.114415-23.297033-.120394-36.518846l-.000487-6.454211.000788-2.031414.000217-.435611.000733-1.295098.000273-.428492.000589-.85344.000318-.425371.000682-.8491.000365-.424152.000779-.848563c.000267-.278174.000544-.556629.000833-.835635l.0009-.838935c.008417-7.570077.02537-15.736092.058234-29.761886l.000802-.105364c.027374-2.125206-.822001-4.543801-2.121365-6.275435l-.059277-.076549-.015602-.002283c-.070343-.011706-.152666-.024467-.247718-.037934l-.152218-.020683-.167968-.021107c-.310178-.0374-.655939-.070059-1.421576-.137375-.439673-.038657-.689541-.061376-.979735-.090007-.100797-.009945-.201437-.021421-.301885-.034423l-1.293815-.16607-1.295771-.163492c-5.622645-.703289-11.366645-1.34194-18.093329-2.019527l-1.570148-.157105c-3.441482-.342095-7.1452-.695916-11.218819-1.07441-.246714-.022923-.488038-.045323-.727804-.067552l-.47859-.044338c-1.675745-.15512-3.400343-.313463-6.488214-.596301-10.189911-.933357-15.973217-1.476086-21.47635-2.03694l-.71655-.073291-.357719-.036786-.715599-.073978-.358388-.037242-.748085-.078142c-.625359-.065546-1.2564-.132242-1.899084-.200677-15.201916-1.622173-31.059954-3.243536-50.324442-5.159127-4.30644-.428217-12.760167-1.262071-21.545404-2.127415l-1.319795-.129991-1.982756-.195258-1.319706-.129944-.477974-.047061-.953406-.093865c-9.514379-.936679-18.383537-1.808888-21.678961-2.133372l-.310781-.030604c-.389116-.038325-.676222-.066625-.849637-.083756-.076875-.007595-.153659-.01608-.230338-.025453-1.527055-.186677-2.708832-.357971-5.319464-.756127-3.168499-.483238-4.538818-.673878-6.162293-.834512-.979886-.096955-1.938405-.191515-2.889635-.285043l-.813884-.079946-.406219-.039843-.812223-.079545-.813578-.079516c-6.790937-.663042-13.928268-1.342926-26.542448-2.536096-6.860254-.648909-10.530266-.996768-14.216411-1.348662l-.615057-.058738c-.513588-.049067-1.030923-.098539-1.560597-.149234-5.367819-.513744-10.172136-.97947-14.757899-1.43175l-.598458-.059187-.228389-.004873c-2.342818-.072874-4.394701-.372331-7.658572-1.002248l-.498859-.096979c-.195269-.038248-.195269-.038248-.387472-.075957-3.545032-.695519-4.939899-.880558-6.24465-.804936-.565691.032786-1.133145.017432-1.696235-.045896-1.870799-.210403-3.467238-.291235-7.199204-.403044-.976951-.029269-1.541169-.046855-2.080615-.065995l-.323799-.011776c-.054506-.002029-.10954-.0041-.16549-.006226-4.560009-.173298-7.988254-.512799-11.47797-1.291288l-.186412-.043074-.171182-.011113c-.749213-.05214-1.586721-.101633-2.910996-.174997l-.34144-.018853c-4.102821-.225881-6.544283-.402957-8.915218-.725681l-.592185-.083828c-.296278-.043544-.593526-.089616-.894851-.138598l-.195128-.03293-.107857-.002984c-2.491072-.087574-4.667332-.322747-8.775212-.867612l-.482686-.064253c-4.38281-.585357-6.26593-.776767-8.388352-.79106-.216969-.001462-.433833-.009984-.650248-.025554-1.481699-.1066-2.563107-.24369-4.919776-.584835-.071263-.010315-.137677-.019923-.199943-.028922l-.3294-.047482c-.24233-.034803-.415886-.059344-.608043-.086016-1.755997-.243745-2.817756-.330923-3.668072-.300556-2.338699.083522-4.518456-.643-6.26906-1.927989l-.103351-.078737-.173059.053838c-1.591787.463945-3.31854.53754-5.040454.138802l-.271821-.066895c-1.284988-.335007-2.883332-.377539-5.612378-.128711l-.14392.012075c-1.681097.128828-3.216507.011849-4.918574-.27429-.491758-.082671-.851119-.15165-1.585104-.298497-.063123-.012629-.123328-.024615-.180731-.035988zm126.899019 455.276923c1.897906 2.983376 3.010471 6.747754 4.515707 10.116909 8.115183 18.529859 15.183246 37.958779 23.625654 56.005327.719896 1.706355 1.178011 3.615058 1.570681 5.527838-1.954625 2.160614-4.058173 4.018375-6.181578 5.844736l-1.594261 1.368125c-1.328291 1.142267-2.651735 2.298778-3.938821 3.535805-2.356021 2.0293-4.450261 4.691648-7.068063 6.095891-.962041.332729-1.47513-.734883-1.965772-1.799962l-.139941-.303078c-.163411-.350705-.328841-.686276-.512088-.954735-6.479057-14.893395-12.63089-30.148563-19.175392-45.157905-2.814136-6.477467-5.497382-13.160982-8.180629-19.761799-.589005-1.468722-.91623-3.233309-1.243455-4.810634 5.431937-5.343465 11.191099-9.75168 16.819372-14.605858 1.04712-.610627 2.421466-2.355827 3.468586-1.10066zm108.018285-6.443484c4.159681 2.138428 8.253335 4.633438 12.082882 7.763103 2.442987 2.027892 5.216107 3.228866 7.461014 5.708627.59424 2.206523-.726294 4.336896-1.38656 6.343229-4.687894 11.021256-9.177708 22.15191-13.733549 33.317526-5.282133 11.336527-9.309761 23.792153-14.988055 34.867515-4.291733-1.938241-7.989227-5.466946-12.016854-8.16399-2.641067-1.896168-5.480214-3.508983-7.725121-6.167517.968391-3.790077 2.429945-7.237837 3.917526-10.684483l.811182-1.88193c.673456-1.5716 1.334742-3.155788 1.939986-4.784607 6.338561-16.083689 12.875201-32.026106 19.543896-47.641162 1.18848-3.035988 2.442986-6.072999 4.093653-8.676311zm-53.702602-133.930786c3.688088.070051 7.310317-.132428 10.998405.30071.592728 12.97818.131717 25.966152.263435 38.947266 0 8.806603.197576 17.517834.065858 26.327313-.065858 6.266198.329294 12.609704-.263435 18.892238-7.771327.428587-15.476797.399806-23.248125.463259-.131717-1.64192-.395152-3.279938-.395152-4.926159.065859-25.060619-.131717-50.02487.065859-75.086435 0-1.646187.395152-3.11192.724446-4.576919 3.951522-.662048 7.837186-.318825 11.788709-.341273zm55.696105-257.534732c.52804 2.623799.79206 5.31667.990075 8.004359 6.468484 1.5318 13.200989 1.125727 19.471459 4.409987 10.626797 6.667584 17.557316 23.881215 14.521089 38.763866-1.848139 12.153037-9.966748 20.726621-18.745406 23.28297-5.08238.272047-10.164761.456821-15.247142.197458-.198015 2.574245-.330025 5.062951-.462035 7.640987-4.554341.49247-9.108683-.264298-13.663024-.306564-.759057-.059234-1.518114-.084851-2.277171-.103474l-1.138585-.026017c-1.897642-.045713-3.795285-.13091-5.692927-.671571-1.188089-.95568-.924069-3.007744-1.056079-4.540639.066005-24.238265 0-48.484125 0-72.726188 0-1.885494.13201-3.671474.26402-5.367529 7.656574-.506493 15.379153 1.230829 23.035726 1.442355zm-96.259271-6.63759 4.1995.381219 1.399834.123806c.589404 5.755404.261957 11.443446.327446 17.25206v62.645799c0 1.93465-.130978 3.770727-.261957 5.699085-3.274464.025225-6.483439-.776846-9.757903-.751717-4.191315-.389212-8.382629.518105-12.508454-.33102-.523914-2.994229-.851361-5.979493-1.113318-9.054775-1.843331-.335233-3.700371-.408292-5.555597-.448518l-1.011668-.020064c-3.539556-.068474-7.062211-.169255-10.459949-1.898066-11.198668-4.884895-18.860915-22.644306-17.027215-38.849299.982339-7.99776 3.6674-15.781342 8.25165-20.519519 3.208975-3.327137 6.941865-5.863341 10.936711-6.789803 4.911696-.857411 9.954371.249747 14.931557-.041878.261957-2.764539.523915-5.528636.851361-8.287404 5.599334-.068031 11.198668.38503 16.798002.890094z"/></svg>