<svg height="960" viewBox="0 0 960 960" width="960" xmlns="http://www.w3.org/2000/svg"><path d="m815.371085 44.5802446c6.188394 5.5680491 10.770377 12.221857 14.522305 19.9557551 5.186732 10.6914746 9.076335 24.2613778 12.340862 41.5150923 3.297484 17.427893 21.170775 103.945511 53.434685 259.10509.042715.205417.069411.333803.092103.442931l.043605.209696c.022692.109128.049389.237513.092104.44293 2.614075 12.571086 8.461819 40.679433 14.750509 70.906615l.39774 1.911777c.199138.957172.398656 1.916176.598468 2.876588l.416669 2.002754.41734 2.005982.426367 2.049366 1.362016 6.546646c.453883 2.181628.907305 4.361041 1.359248 6.533349l.451412 2.16976c6.912944 33.227786 13.398503 64.402315 15.789389 75.903067 11.487768 55.259008 17.219669 82.961259 18.307335 88.555416 8.309398 42.73746-11.6723 84.815337-54.154351 103.8524-4.404911 1.973929-9.913058 3.560179-17.734713 5.103719l-.284052.054822-.000126 1.743692c0 26.565383-8.040144 55.294783-22.477367 78.665052l-.500368.803736c-18.219155 29.04018-45.429859 48.562793-78.762077 51.756686-18.076159 1.732058-118.484006 11.773781-279.866948 27.968097-.393895.039526-.393895.039526-.787789.079053-78.281442 7.855372-277.191522 27.834822-281.443216 28.258405-.235996.023498-.303423.030211-.450472.044815l-.230562.022893-1.311933.129524c-15.3384 1.506097-25.009394 2.087993-34.980078 1.694168-7.253926-.286517-13.951451-1.136929-20.370433-2.792494-8.914563-2.299217-17.074956-6.088938-24.252132-11.999026-5.874302-4.837228-16.443648-13.788857-27.279511-23.123507l-1.182938-1.019666-2.36711-2.044141c-2.3653765-2.045195-4.7204421-4.089246-7.0192015-6.093398l-1.554382-1.356525-1.5563023-1.360931-1.5400722-1.349531c-9.0654536-7.952339-17.0493321-15.10552-23.564966-21.143658-7.5632204-7.008952-12.1649016-11.554566-16.8112359-16.913923-6.6506146-7.671213-11.8996893-15.556948-15.8623346-24.465297-8.6264276-19.392909-9.9039598-40.837325-4.9166647-67.028625 1.6277916-8.548516 4.3894815-26.150161 9.9281904-63.006231l1.8742493-12.492287c.4180915-2.790256 1.3683371-9.138129 2.3508893-15.702483l.2160053-1.443124.1667082-1.113784c1.0821672-7.230027 2.1249079-14.197164 2.4603598-16.437212 1.9448945-12.987431 3.6282765-24.207612 5.3058418-35.357128l.4026349-2.675396c.1342617-.891926.268617-1.784267.403197-2.677894 4.4461293-29.522822 8.7422261-57.81331 13.204197-86.890613l.924946-6.032247-56.0753779-322.12464c-5.76705741-33.127327 9.2290029-66.388128 37.7817821-84.0186499l.869378-.5294577 4.4349891-2.6637014c5.0285725-3.0202139 10.4419443-5.3329185 16.0869288-6.8784461l.7212999-.1931049.3957518-.1298147c2.722278-.8721111 5.5813571-1.4638421 8.5472902-1.7382285l.6863292-.0576697 700.200176-52.9096348c.154751-.0116935.309569-.0224864.464445-.032378 13.43886-.8583063 25.668444 3.9907957 35.108967 12.4849703zm22.637042 677.8146294c-3.287637.420708-6.754913.854749-10.409431 1.304111-18.620777 2.289625-41.847557 4.899567-69.68959 7.831163-1.572029 2.704291-3.340254 5.016615-5.305068 6.937544-11.849834 11.585167-29.61565 27.270879-55.621585 30.038144-16.376539 1.74261-184.857355 16.378644-505.442447 43.908102l-.012704.001501c.069584.169901.136903.340998.201915.513254l-20.925876 3.253879-2.272095.195488c-5.984851.514456-12.020489 1.033223-18.106913 1.556301l-1.592876 21.965585c-1.381928 19.075656 8.581472 36.35379 24.168059 45.218433l-.000175-.140807.011021.270315 20 2.752113.009979-.338428 1.582709-.100892c3.21734-.215754 6.510571-.496067 9.837178-.80657l1.270856-.119872 1.273571-.122378 1.27576-.12446 1.290602-.127424.645768-.064209c21.529701-2.14494 519.804994-52.25333 562.248078-56.320226s65.555137-53.988934 65.555137-91.407849zm-727.622005-241.7956c-14.0106863 90.636429-24.2114474 159.532581-31.273056 206.649531l-.7317619 4.879237c-4.9215415 32.791755-8.2310943 54.314462-10.1782918 64.553636-7.4545396 39.199065 4.7497383 52.376656 25.4520488 71.586687 6.6247389 6.14721 14.6127769 13.287478 22.7245649 20.412478l1.522108 1.335512c2.09406 1.835407 4.191197 3.66561 6.270168 5.47333l1.037874.901907c2.011557 1.74697 4.002664 3.470044 5.953893 5.153418-2.030279-7.311212-2.859571-15.089077-2.279935-23.090169l12.964007-178.950614c.06745-.931056.260316-1.823073.560873-2.660722 5.230194-97.259636 8.253778-153.282751 9.070883-168.073926.120493-2.181157.148318-4.259335.091425-6.234635l.011053-.417283c.916362-42.452778-34.833183-42.679087-41.195853-1.518387zm-27.7700169-355.646869.0244576.187842c-.4325519.064575-.8657973.14114-1.2993785.229931-2.6777396.548364-5.2429002 1.547521-7.5860642 2.95485l-4.4349891 2.663701c-5.2857532 3.174679-9.6882129 7.383684-13.0387349 12.258111-5.7753132 8.784811-8.1968019 19.61788-6.3145723 30.423093l49.1934083 282.399415c1.643256-2.845608 3.486122-5.472848 5.521884-7.858632 8.127839-9.52531 19.194335-14.927922 30.96252-14.135729 12.200055.821265 22.568029 8.130236 28.842157 19.373008 5.447528 9.761564 7.748269 22.196412 6.962256 36.424757-1.067437 19.322655-5.907072 109.13505-14.516783 269.398021 1.210689.934303 2.535821 1.712417 3.943414 2.318485 2.84722.972751 5.973073 1.261744 9.146007.704416 1.437885-.252565 2.840723-.674851 4.179095-1.258001l25.590297-11.1501c18.292538-7.970349 28.498556-27.66731 24.46095-47.208067l-115.369959-558.354665c-2.550315-12.342728-13.998481-20.570128-26.2659649-19.370436zm700.1955189-52.9384631-662.69359 50.0752701c4.012146 5.182141 6.934762 11.335862 8.350299 18.18662l115.369959 558.354665c4.902661 23.727351-4.441051 47.610937-22.958471 61.860838 44.966364-3.829796 87.630132-7.497338 127.996201-11.004597 338.54404-29.469201 515.475494-47.644109 530.800516-54.524693 22.446953-10.078168 32.330303-29.177871 32.323458-48.586847-.012664-3.685556-.382517-7.381536-1.091484-11.02794-2.224133-11.439312-27.219962-131.342271-52.658961-253.666399l-3.053378-14.683731c-24.421178-117.454227-48.427662-233.230655-52.264601-253.509685-5.329082-28.1653193-12.035732-41.9898197-20.119948-41.4735011zm.201336 126.9017511 72.395176 328.139258c.655676 2.971925 1.149354 5.977287 1.478851 9.002791 5.022679 46.119224-28.292653 87.577929-74.411878 92.600608l-418.724553 45.601788c-50.376971 5.486375-96.48847-28.728011-105.84003-78.532508l-64.24901-342.177102c-.56775-3.023724-.968953-6.076355-1.201794-9.144095-3.511043-46.258866 31.142915-86.60535 77.401781-90.116393l411.084138-31.201243c48.154168-3.654896 91.663033 28.668302 102.067319 75.826896zm-100.553675-55.884256-411.084138 31.201243c-35.24485 2.67508-61.647866 33.415258-58.972785 68.660109.177403 2.337325.483081 4.66314.915653 6.966929l64.249009 342.177103c7.42348 39.535934 44.02783 66.696087 84.018207 62.340878l418.724553-45.601788c35.138457-3.826803 60.521567-35.414387 56.694764-70.552844-.251045-2.305146-.627181-4.594946-1.126744-6.859269l-72.395175-328.139258c-8.259158-37.435557-42.797478-63.094442-81.023344-60.193103z"/></svg>