<svg height="960" viewBox="0 0 960 960" width="960" xmlns="http://www.w3.org/2000/svg"><path d="m251.855531 1.99999999 484.1964 6.04703322c33.716018.42085573 60.827144 27.87250439 60.827144 61.59103009l.001496 503.9636807c4.721751 19.40411 7.119429 39.463665 7.119429 59.82459 0 20.361785-2.397881 40.422176-7.120001 59.826963l-.000924 192.748462c0 33.503291-26.778276 60.86264-60.273823 61.581756l-480.15287 10.30864-4.164726.097c-1.148924.02676-2.298467.010845-3.44543-.068239l-.095275-.006.000793-.012571-.216541-.0061-.156848-.004418c-.292431.006123-.578008-.015382-.858957-.052864l-23.730907-1.460499c-31.408452-1.933426-55.86696-28.01238-55.784514-59.480176l2.176003-828.358708c.082514-31.414147 23.03555-58.0865052 54.08645-62.85064671l21.027629-3.22627037c2.172151-.33327332 4.368073-.48697583 6.565472-.46266293zm-16.35232 42.43170011-5.174565.7945703c-11.569676 1.775136-20.122059 11.7133516-20.152804 23.4183746l-2.175863 828.358708c-.02696 10.290321 7.971245 18.818431 18.242161 19.450683l10.41518.641958c-4.418562-6.928915-7.053328-15.118557-7.242576-23.935016-.010693-.338591-.010693-.677252-.010693-1.015922l.346386-825.3292028c.003407-8.1171185 2.089512-15.746875 5.752774-22.3841531zm15.843171 22.3932168-.346384 825.3292031c0 .181149 0 .362293.005719.5434.294355 13.71302 11.649576 24.590997 25.362597 24.302481l456.208408-9.798521c13.505371-.289897 24.302362-11.321137 24.302362-24.829619l.004693-136.33716c-18.371334 33.293581-44.650156 61.163936-76.156007 80.720861l.539891-.512746c-44.428598 41.814036-101.884381 65.353131-162.824635 65.353131-135.614145 0-245.038973-115.819108-245.038973-258.095947s109.424828-258.095947 245.038973-258.095947c60.331045 0 117.24789 23.070839 161.492581 64.104108l.808172.746215c31.498744 19.556428 57.771776 47.422982 76.139998 80.710923l-.004693-448.4406843c0-12.2137497-8.822413-22.3881109-20.472268-24.4528283-.283639-.0151862-.568213-.0243-.854141-.027869l-463.004701-5.7787033c-11.989367 1.7612236-21.196355 12.0814534-21.201592 24.5597028zm280.879108 790.7710301c-116.514896 0-210.926092-98.463518-212.793287-220.416628l-.001899-.1654-.026251-3.348708v-.165211c0-123.496925 94.998012-224.095947 212.821437-224.095947h41.063979l1.078508.011947 2.156255.018157c5.425944.092759 10.80148.399334 16.119464.912019l-.196741-.066705c-23.161143-8.601802-48.066431-13.279471-74.003929-13.279471-123.404176 0-223.443026 105.884657-223.443026 236.5s100.03885 236.5 223.443026 236.5c26.009064 0 50.980214-4.703518 74.195382-13.351025-6.463808.628412-13.014988.946972-19.638408.946972zm40.77451-426.595947c-105.486387 0-191 90.662338-191 202.5s85.513613 202.5 191 202.5l1.592977-.014 1.343796-.013129c33.569226-.576364 65.0357-10.312825 92.267623-26.951894.011571-.018407.025856-.032076.040139-.045747 27.428452-16.762495 50.559128-40.531067 67.212035-68.996919.074229-.118786.144995-.240059.215644-.361417l-.215644.361417c1.016563-1.737675 2.008987-3.492853 2.976776-5.26501.108805-.191707.214338-.385729.319576-.579953l-.319576.579953c.9816-1.797445 1.937857-3.612357 2.868254-5.444187.114592-.218636.226501-.439994.338033-.661597l-.338033.661597c.359624-.708054.715385-1.418635 1.067252-2.131712l-.729219 1.470115c.398219-.791227.791624-1.585581 1.180174-2.383021l-.450955.912906c.530435-1.074954 1.052022-2.155581 1.564659-3.241772.150132-.311655.297083-.625105.443287-.939014l-.443287.939014c.358611-.759837.712842-1.522396 1.062659-2.287641l-.619372 1.348627c.4078-.875569.809801-1.75471 1.205948-2.637368l-.586576 1.288741c.466866-1.021301.925869-2.047385 1.376925-3.078164.190958-.430441.378467-.863025.564576-1.296426l-.564576 1.296426c.370337-.846316.735317-1.695797 1.094893-2.548395l-.530317 1.251969c.389889-.907953.773632-1.81949 1.151174-2.734554l-.620857 1.482585c.427145-1.012809.846664-2.030016 1.258481-3.051539.191686-.470027.379921-.941999.566511-1.414881l-.566511 1.414881c.356498-.884301.707224-1.771837 1.052128-2.662554l-.485617 1.247673c.342034-.866831.67854-1.736717 1.009472-2.609609l-.523855 1.361936c.389526-1.005954.771626-2.015965 1.146228-3.029957.202526-.543237.40144-1.08874.598181-1.635378l-.598181 1.635378c.330445-.894467.655055-1.792031.973782-2.69264l-.375601 1.057262c.325961-.905668.64596-1.814451.959947-2.726296l-.584346 1.669034c.302182-.853862.599076-1.710462.890638-2.569755l-.306292.900721c.362688-1.053277.717353-2.110638 1.063918-3.172002l-.757626 2.271281c.373688-1.101335.738618-2.207093 1.094701-3.31718l-.337075 1.045899c.298424-.913929.590841-1.830826.877202-2.750638l-.540127 1.704739c.27555-.859026.545803-1.720644.810716-2.58481l-.270589.880071c.34602-1.111439.683198-2.227134 1.011444-3.346992l-.740855 2.466921c.331238-1.080522.654129-2.165027.968592-3.253433l-.227737.786512c.262643-.89604.519568-1.794746.77073-2.696068l-.542993 1.909556c.268274-.928535.530414-1.859908.78637-2.794065l-.243377.884509c.231249-.829859.457612-1.661937.679055-2.496196l-.00527-.446644c4.431481-16.694168 6.893999-34.262234 7.105143-52.404876l.013073-1.672656c.000749-.187544.001258-.375148.001526-.562811l-.025384-3.174726c-.014912-.974125-.036295-1.945639-.064118-2.915438l-.020903-.694473c-.063842-2.004627-.155166-4.001866-.273585-5.991306l-.043482-.70276c-.122295-1.945426-.270534-3.883334-.444354-5.813341-.023008-.254229-.046307-.507839-.070047-.761311l.070047.761311c-.107495-1.193563-.224773-2.384103-.351749-3.571531l.281702 2.81022c-.099753-1.065067-.2073-2.127706-.32258-3.187852l.040878.377632c-.103711-.969863-.213892-1.937648-.330495-2.903307l.289617 2.525675c-.119504-1.098995-.247317-2.195312-.383372-3.288877l.093755.763202c-.14416-1.19387-.298137-2.38449-.461843-3.571766l.368088 2.808564c-.130596-1.04969-.268785-2.096845-.414507-3.141402l.046419.332838c-.134142-.972867-.274817-1.943488-.421975-2.911813l.375556 2.578975c-.151488-1.085884-.311116-2.16896-.478817-3.249156l.103261.670181c-.173174-1.139516-.355327-2.275851-.54638-3.408922l.443119 2.738741c-.176739-1.138413-.362446-2.273628-.557039-3.40556l.11392.666819c-.157236-.932519-.320501-1.862827-.489749-2.790877l.375829 2.124058c-.177536-1.032714-.36247-2.062695-.554741-3.089879l.178912.965821c-.219144-1.201653-.448321-2.39952-.687433-3.593501l.508521 2.62768c-.191824-1.024798-.390952-2.046812-.597323-3.06598l.088802.4383c-.187952-.938514-.382042-1.874626-.582225-2.808288l.493423 2.369988c-.21377-1.055712-.435313-2.108369-.664561-3.157901l.171138.787913c-.240487-1.121642-.489766-2.239746-.747758-3.354228l.57662 2.566315c-.243995-1.117045-.496719-2.230551-.758091-3.340431l.181471.774116c-.214855-.928143-.435753-1.853774-.662647-2.776842l.481176 2.002726c-.228837-.971722-.464303-1.940666-.706345-2.906774l.225169.904048c-.282584-1.149638-.574469-2.295302-.875563-3.436895l.650394 2.532847c-.280668-1.120286-.570178-2.23676-.868447-3.349332l.218053.816485c-.238744-.905193-.483278-1.807826-.733557-2.707854l.515504 1.891369c-.247798-.924314-.501641-1.845935-.761481-2.764812l.245977.873443c-.3085-1.109393-.625729-2.214826-.951603-3.31621l.705626 2.442767c-.320045-1.131781-.649187-2.259399-.987337-3.382758l.281711.939991c-.268486-.907428-.542842-1.812108-.823018-2.713989l.541307 1.773998c-.270281-.897894-.546316-1.793067-.82806-2.685471l.286753.911473c-.339563-1.093044-.687677-2.181978-1.044257-3.266713l.757504 2.35524c-.3607-1.142491-.730757-2.280444-1.110074-3.413756l.35257 1.058516c-.297002-.903495-.599877-1.804076-.908579-2.701693l.556009 1.643177c-.289248-.864207-.583881-1.725717-.883856-2.584483l.327847.941306c-.373085-1.08483-.75468-2.16533-1.144698-3.241409l.816851 2.300103c-.382043-1.093708-.77275-2.182965-1.172034-3.267679l.355183.967576c-.312842-.863147-.631103-1.723451-.95474-2.580863l.599557 1.613287c-.323976-.880128-.653598-1.757264-.988819-2.63136l.389262 1.018073c-.403159-1.068089-.814659-2.131691-1.234415-3.190717l.845153 2.172644c-.424996-1.108183-.858991-2.211479-1.301891-3.309784l.456738 1.13714c-.337283-.85095-.679897-1.698946-1.027797-2.54394l.571059 1.4068c-.335704-.832483-.676524-1.662099-1.022418-2.488805l.451359 1.082005c-.436624-1.060491-.881575-2.116254-1.334765-3.167197l.883406 2.085192c-.472186-1.128551-.953827-2.251676-1.444816-3.369265l.56141 1.284073c-.349509-.810506-.703917-1.618145-1.063186-2.422874l.501776 1.138801c-.491682-1.119163-.992738-2.232774-1.503062-3.340717-.154548-.341638-.311924-.680934-.47017-1.019695l.47017 1.019695c-.351866-.763922-.708138-1.525149-1.068781-2.283645l.598611 1.26395c-.36744-.786591-.739563-1.570292-1.116332-2.351061l.517721 1.087111c-.504903-1.061902-1.018373-2.118451-1.540315-3.169545-.172183-.353325-.34768-.70428-.524122-1.054622l.524122 1.054622c-.400118-.805765-.805215-1.608324-1.215246-2.407632l.691124 1.35301c-.406717-.807576-.81845-1.611891-1.235155-2.412899l.544031 1.059889c-.560982-1.093567-1.1312-2.181048-1.710545-3.262325-.142815-.273627-.288785-.544642-.435328-.815263l.435328.815263c-.39653-.740076-.797336-1.477246-1.202381-2.211473l.767053 1.39621c-.402679-.743631-.809687-1.484297-1.220985-2.221961l.453932.825751c-.704635-1.277293-1.422102-2.545676-2.152212-3.804953-.024362-.049638-.051758-.096855-.079173-.14406l.079173.14406c-.316012-.545051-.634393-1.088395-.955128-1.630017l.875955 1.485957c-.391998-.674977-.787629-1.347334-1.186866-2.01704l.310911.531083c-1.047926-1.769626-2.120977-3.520867-3.218621-5.253161-.072857-.123315-.149773-.244444-.22681-.36548l.22681.36548c-16.298598-25.722323-38.019852-47.267354-63.430053-62.799146l-.044276-.046667c-27.718481-16.937914-59.824606-26.724302-94.070157-26.978377-.379857-.003314-.760056-.004493-1.140515-.004493zm-122.789518 19.520345-.554573.278058c-64.273317 32.632652-108.655909 102.17848-108.655909 182.701597l.025619 3.348708c1.214669 79.33436 45.511982 147.578282 109.196291 179.639044-54.400136-40.638688-89.817857-107.541926-89.817857-182.987752 0-75.440765 35.412969-142.340087 89.806429-182.979655z"/></svg>