<svg height="960" viewBox="0 0 960 960" width="960" xmlns="http://www.w3.org/2000/svg"><path d="m92.3407979 472.966339c11.0777311 2.225339 20.0190421 6.278635 26.8239341 12.159888 6.804891 5.881253 10.207337 14.862085 10.207337 26.942497 0 17.961664-6.488385 30.558672-19.465155 37.791024-12.9767705 7.232351-31.0967728 10.848527-54.3600073 10.848527h-55.5469067v-165.708275h49.1376482c23.7379944 0 41.89756 3.29827 54.4786968 9.894811 12.581137 6.59654 18.871706 17.524544 18.871706 32.784011 0 9.69612-2.888123 17.445068-8.664368 23.246844-5.776246 5.801777-12.937207 9.815334-21.4828851 12.040673zm-48.4255084-47.208976v34.57223h11.3942373c7.7544115 0 13.4515301-1.430575 17.0913559-4.291725s5.4597387-7.470781 5.4597387-13.828892c0-5.881253-1.9386029-10.093501-5.8158086-12.636746-3.8772058-2.543244-10.1677743-3.814867-18.8717055-3.814867zm11.8689972 103.478261c9.3369444 0 16.379216-1.390837 21.1268149-4.17251 4.7475989-2.781674 7.1213983-7.987378 7.1213983-15.617111 0-7.311828-2.2155461-12.597008-6.6466384-15.85554s-10.8403507-4.887798-19.2277754-4.887798h-14.2427966v40.532959zm201.0156583 31.472651h-36.793891l-1.66166-15.021038c-8.862185 12.875175-21.443322 19.312763-37.743411 19.312763-11.710744 0-20.533365-3.536699-26.467864-10.610098-5.934498-7.073399-8.901748-16.888733-8.901748-29.446003v-91.318373h42.25363v85.834502c0 5.404395.83083 9.179523 2.49249 11.325386 1.661659 2.145862 4.154149 3.218794 7.477468 3.218794 3.006813 0 5.974062-1.072932 8.901748-3.218794 2.927686-2.145863 5.657555-5.28518 8.189608-9.417953v-87.741935h42.25363zm70.931449-159.032258v31.949509h28.722973l-4.272839 29.088359h-24.450134v53.169705c0 5.722301.909956 9.775597 2.729869 12.159888 1.819913 2.384292 4.549783 3.576438 8.189608 3.576438 4.431093 0 8.703932-1.192146 12.818517-3.576438l14.005417 26.465638c-4.905852 3.496962-10.602971 6.119683-17.091356 7.868163-6.488385 1.748481-12.818517 2.622721-18.990395 2.622721-29.27686 0-43.91529-16.213184-43.91529-48.639551v-53.646564h-16.379216v-29.088359h16.379216v-26.942497zm93.245164 0v31.949509h28.722973l-4.272839 29.088359h-24.450134v53.169705c0 5.722301.909956 9.775597 2.729869 12.159888 1.819913 2.384292 4.549783 3.576438 8.189608 3.576438 4.431093 0 8.703932-1.192146 12.818517-3.576438l14.005417 26.465638c-4.905852 3.496962-10.602971 6.119683-17.091356 7.868163-6.488385 1.748481-12.818517 2.622721-18.990395 2.622721-29.27686 0-43.91529-16.213184-43.91529-48.639551v-53.646564h-16.379216v-29.088359h16.379216v-26.942497zm99.417042 27.657784c19.781662 0 35.290485 5.960729 46.526469 17.882188 11.235984 11.921458 16.853976 28.6115 16.853976 50.070126 0 13.669939-2.532053 25.591398-7.596158 35.764376s-12.38332 18.041141-21.957645 23.604488c-9.574324 5.563347-20.849871 8.345021-33.826642 8.345021-19.781662 0-35.290485-5.960729-46.526469-17.882188s-16.853975-28.611501-16.853975-50.070126c0-13.669939 2.532052-25.591398 7.596158-35.764376 5.064105-10.172978 12.38332-18.041141 21.957644-23.604488 9.574325-5.563347 20.849872-8.345021 33.826642-8.345021zm0 30.757363c-6.804891 0-11.829433 2.980365-15.073626 8.941094s-4.866289 15.299205-4.866289 28.015428c0 13.193081 1.622096 22.690509 4.866289 28.492286 3.244193 5.801776 8.268735 8.702665 15.073626 8.702665 6.804892 0 11.829434-2.980365 15.073627-8.941094 3.244192-5.96073 4.866289-15.299205 4.866289-28.015428 0-13.034128-1.622097-22.491819-4.866289-28.373072-3.244193-5.881252-8.268735-8.821879-15.073627-8.821879zm159.948928-30.757363c10.761224 0 19.227776 3.338008 25.399654 10.014025 6.171879 6.676017 9.257818 16.054231 9.257818 28.134642v93.225807h-42.25363v-85.596073c0-5.563347-.791266-9.417952-2.373799-11.563815-1.582533-2.145862-3.956333-3.218794-7.121399-3.218794-6.646638 0-12.97677 4.84806-18.990395 14.54418v85.834502h-42.25363v-127.082749h36.793891l3.085939 14.30575c5.697119-6.358111 11.631618-11.047218 17.803496-14.067321 6.171879-3.020103 13.055897-4.530154 20.652055-4.530154zm222.467207-34.333801v58.026549h56.190265v49.946902h-56.190265v58.026549h-53.61947v-58.026549h-56.190265v-49.946902h56.190265v-58.026549z"/></svg>