<svg height="960" viewBox="0 0 960 960" width="960" xmlns="http://www.w3.org/2000/svg"><path d="m479.771211.79375801c25.161954 0 52.651529 2.37778381 82.521007 7.08710332 16.195183 2.55338527 28.837863 14.60459637 32.57934 29.94619177 11.817438 7.0723479 19.398186 19.9601897 19.398186 34.25467v768.2499179c3.026604.894181 5.842446 1.864049 8.469795 2.927821 5.49837 2.226201 10.419962 4.912171 15.076285 8.752339 3.80042 3.134288 7.192084 6.873163 9.987581 11.503631 3.895703 6.452853 6.161354 13.965813 6.161354 22.019591v17.204302c0 10.256081-3.59297 19.343398-9.338112 26.596147-3.600191 4.544931-7.672601 7.961912-12.15116 10.767832-5.273812 3.304163-10.929783 5.635511-17.453198 7.61283-9.235994 2.799531-21.025891 5.036883-35.275338 6.863735-26.834202 3.440282-62.305512 5.363757-99.97574 5.363757-37.670229 0-73.141539-1.923475-99.975741-5.363757-14.249447-1.826852-26.039344-4.064204-35.275338-6.863735-6.523415-1.977319-12.179386-4.308667-17.453198-7.61283-4.478559-2.80592-8.550969-6.222901-12.151159-10.767832-5.745143-7.252749-9.338113-16.340066-9.338113-26.596147v-17.204302c0-.841496.026555-1.682783.079624-2.522604l.017978-.284505c.052718-.834275.131577-1.666693.236458-2.496026.951913-7.527079 3.805538-14.213812 7.912522-19.855976 2.86373-3.934187 6.132562-7.105971 9.709347-9.784122 4.495603-3.366124 9.22539-5.785057 14.485217-7.812703 2.808952-1.082841 5.83762-2.069438 9.118972-2.975181l-.000001-767.7221829c0-14.0227592 7.304676-26.7434451 18.816472-33.9141146 3.617575-15.4336527 16.229715-27.6100316 32.453783-30.25401044 29.038102-4.7322365 56.148403-7.11984005 81.363177-7.11984005zm130.332821 902.79920699c-8.150684 2.890557-19.087316 5.318809-32.476844 7.327238-26.0686 3.91029-60.849154 6.11693-97.855977 6.11693-37.006824 0-71.787378-2.20664-97.855978-6.11693-13.389528-2.008429-24.32616-4.436681-32.476844-7.327238-1.344557-.476833-2.630917-.9708-3.862026-1.487859l.001299.634219c0 9.501673 60.080498 17.204301 134.193549 17.204301 74.11305 0 134.193548-7.702628 134.193548-17.204301l.001299-.634219c-1.231109.517059-2.517469 1.011026-3.862026 1.487859zm-240.573314-27.869208-.213986.038196c-9.325422 1.729052-16.244459 3.687732-20.136456 5.796468 8.557407 5.42879 31.767758 10.007078 63.020574 12.744519l-.058477-.190928c-14.922008-2.274882-26.426643-5.658173-34.918224-10.504573-3.309462-1.88881-5.946798-4.642177-7.693431-7.883682zm222.172199.317911-.068638.11911c-2.008374 3.513739-5.075398 6.40775-8.889368 8.192079-8.813861 4.123481-20.064594 7.186996-33.97775 9.351345-.045048.163006-.092019.324853-.140875.485537 30.60448-2.750396 53.297242-7.277391 61.738683-12.630804-3.686503-1.99636-10.081617-3.857751-18.662052-5.517267zm-113.268594 10.974603c-17.9028 0-33.581127-.530816-47.157153-1.66817l.001372 2.480518.107259.00022c-.071132.102646-.107259.2062-.107259.310555 0 2.574541 21.989252 4.66162 49.114369 4.66162 27.125118 0 49.11437-2.087079 49.11437-4.66162 0-.104355-.036127-.207909-.10726-.310555l.10726-.00022.000232-2.771826c-14.731723 1.326721-31.723555 1.959478-51.07319 1.959478zm2.723654-339.908267-1.386766.000437c-37.681269 0-68.541727-.962081-92.634016-2.898203l.000584 311.027113c.272184.155344.550893.309151.836127.461421l.122394.065033c.017229.009112.034482.018219.051759.02732l.155761.08157.168739.087298c.051198.026322.102596.052597.154194.078825.397579.202093.806912.401352 1.228088.597818l.240316.111219c.088257.040518.177022.080916.266297.121194l.126572.056854c.073442.032864.147225.065648.221349.098351l.09028.03974c.099448.043628.199504.087112.300169.130452.116598.050171.234319.100305.352861.150247l.427694.177928c.10334.042435.207284.084728.311832.126879l.172558.069222c.103946.04149.208481.082841.313607.124053l.02753.01071.136079.053132c.051554.020024.103249.040015.155084.059974l.167143.063963c.14212.054206.285282.108167.429485.161882.045676.01713.092391.034468.139215.05178l-.139215-.05178c.169529.063149.340497.125958.512905.188427l-.37369-.136647c.184587.068249.370866.136099.558836.203552l-.185146-.066905c.213706.077432.429623.154343.647751.230731l-.462605-.163826c.185855.066693.373363.132997.562525.198911l.45771.157634c.059582.020282.119324.040526.179225.060732l-.179131-.060915c.806208.274368 1.641614.541839 2.506213.802407.072439.022282.1447.043958.217163.065587l-.217163-.065587c.200118.060311.401801.120251.605047.179822l-.387884-.114235c.202738.060511.407064.120649.612977.180413l-.225093-.066178c.694531.203565 1.407324.402811 2.138378.597735.022931.006926.046551.013218.070191.019506l-.070191-.019506c.24372.064984.489469.129488.737248.193512.050679.014033.104517.027908.158451.04176.084949.021819.170593.043698.256476.065521l-.256476-.065521c.180981.046483.363038.092714.546171.13869l-.289695-.073169c.216744.055075.435014.10979.65481.164146l-.365115-.090977c.22906.057508.459803.114619.692229.171333l.618873.149129c.211096.050233.423546.100148.63735.149744.100456.023303.201672.046642.30319.069909l-.30319-.069909c.220472.051143.442384.101947.665735.152412l-.362545-.082503c.191251.043834.383571.087416.576962.130746l-.214417-.048243c1.225302.276851 2.49392.543501 3.805854.799952.084175.016454.168412.032843.252826.049191l-.252826-.049191c.222566.043506.446378.086718.671437.129637l-.418611-.080446c.232924.045107.467202.089896.702834.134366l-.284223-.05392c.287389.054805.576811.109132.868265.16298l-.584042-.10906c.25898.048877.519596.097368.781848.145475l-.197806-.036415c.190209.035142.381284.07008.573225.104815l-.375419-.0684c.840346.154149 1.697485.304344 2.571417.450585.148559.024859.297707.049621.44734.074269l-.44734-.074269c.242685.04061.486665.080915.73194.120915l-.2846-.046646c.283925.046768.5696.093124.857024.139069l-.572424-.092423c.270321.044084.542214.087799.815681.131142l-.243257-.038719c1.137594.181842 2.302594.357231 3.495.526166.092985.013173.185743.026252.278666.039292l-.278666-.039292c.258547.036629.518382.072956.779505.108979l-.500839-.069687c.318034.044631.638003.088805.959908.132524l-.459069-.062837c.628323.086679 1.264106.171601 1.907349.254767.058683.007587.118095.015246.177571.022889l-.177571-.022889c.152273.019688.304964.039277.458074.058767l-.280503-.035878c.347017.044597.696195.088685 1.047536.132264.514091.063767 1.033629.12654 1.557811.18822.118886.013989.23765.02788.35665.041715l-.35665-.041715c.252365.029696.505807.059138.760325.088326l-.403675-.046611c1.177721.13692 2.378695.268364 3.602922.394332.096352.009914.193382.019849.290557.02975l-.290557-.02975c.396914.040841.796272.081106 1.198074.120795.217116.021447.435298.04276.654195.063904l-.654195-.063904c.292076.028851.585444.057398.880104.085641l-.225909-.021737c.668002.064525 1.342671.127479 2.024009.188863.082793.00746.166205.014942.249716.022401l-.249716-.022401c13.317949 1.199864 29.183545 1.799796 47.596786 1.799796 7.954266 0 15.47625-.111954 22.565954-.335863l-.000277-303.171487c0-5.312513 4.153957-9.697761 9.458681-9.985338l48.57764-2.633463c5.727146-.310477 10.541319 4.249782 10.541319 9.985338l-.000978 296.3093.281953-.103753c.056392-.021118.112653-.042269.168785-.063454l-.169455.063704c.189748-.071054.378024-.142489.564829-.214305l.241348-.093316.254672-.099634.185378-.073293c.158096-.062786.315096-.125856.471-.18921.312883-.127144.621376-.255442.925454-.384883l.217552-.093128c.134559-.057925.268241-.116076.401046-.174454l.169638-.074905c.0419-.018584.083712-.037191.125436-.055821.289544-.129287.574617-.259571.855446-.390955l.000989-311.543763c-21.937305 2.259313-52.934958 3.389073-93.112756 3.414416zm68.419663 108.629921-28.57764 2.934408v206.519557l27.079289-2.620091c.429538-.072749.855627-.146391 1.278268-.220926l.219105-.040115zm-13.663659 118.831516c4.049614-.252824 7.332474 3.014855 7.332474 7.298565s-3.28286 8.014189-7.332474 8.332259c-4.049613.318069-7.332474-2.94961-7.332474-7.298565s3.282861-8.079435 7.332474-8.332259zm0-23.446235c4.049614-.154957 7.332474 3.192059 7.332474 7.475769s-3.28286 7.934853-7.332474 8.155054c-4.049613.220202-7.332474-3.126814-7.332474-7.475769s3.282861-8.000097 7.332474-8.155054zm0-23.446235c4.049614-.05709 7.332474 3.369263 7.332474 7.652974 0 4.28371-3.28286 7.855515-7.332474 7.977849-4.049613.122334-7.332474-3.304019-7.332474-7.652974s3.282861-7.92076 7.332474-7.977849zm0-42.984765c4.049614.122334 7.332474 3.694139 7.332474 7.977849v19.390859c0 4.28371-3.28286 7.776178-7.332474 7.800772-4.049613.02434-7.332474-3.481351-7.332474-7.830306v-19.6862l.003489-.245192c.120666-4.232227 3.35578-7.527808 7.328985-7.407782zm-7.332474-15.970466c0-4.348955 3.282861-7.695971 7.332474-7.475769 4.049614.220201 7.332474 3.871344 7.332474 8.155054s-3.28286 7.630726-7.332474 7.475769c-4.049613-.154957-7.332474-3.806099-7.332474-8.155054zm20.996133-97.289484-28.57764 1.549234-.000338 65.585268 28.577-2.934zm-71.143317-496.6737886h-1.292583c-42.528703.0557659-72.530024 2.829907-90.003961 8.3232557l-.000172 441.0619489c23.384394 1.948588 53.82554 2.94085 91.268676 2.964341l1.364928.000428c41.578475 0 73.124198-1.185257 94.499428-3.526868l-.000895-440.4998499c-20.676359-5.5488371-52.6215-8.3232557-95.835421-8.3232557zm1.336888-33.9647094c-22.957476 0-47.93394 2.1996766-74.929394 6.5990299l-.00011.4678353c.187387-.0276379.375322-.0551315.563806-.0824809.091853-.0134641.183874-.026763.276025-.0400276.443988-.0637746.890529-.1268234 1.340099-.1890808.123403-.0172198.247152-.034265.371129-.0512505.480935-.0657618.965039-.130719 1.452587-.194781.088495-.0117508.177163-.0233566.265945-.0349328.124449-.0161055.248756-.0322277.373285-.0482923.783653-.1012116 1.576764-.2001001 2.378699-.2967108.10539-.0125904.210645-.0252138.316052-.0377981.446673-.0534296.896253-.1060735 1.348561-.1580161.191468-.0218937.38411-.043835.577244-.0656499.115442-.0131306.230825-.0260977.346384-.0390198.437219-.0488052.87739-.097104 1.320081-.1447593.240161-.025932.481508-.0516412.723599-.0771604.065917-.0068737.130891-.0137036.195917-.0205199.574696-.0603123 1.15466-.1195927 1.738828-.1778058.038132-.0037394.075135-.007421.112155-.0110983.280683-.02794.563489-.055686.847272-.0831844.035821-.0034175.070812-.0068031.105818-.010185.285343-.0276174.572443-.0550047.860536-.0821412.448471-.0421998.899238-.083828 1.352412-.1248499.467347-.0423374.936815-.0839552 1.408841-.1249307.499167-.0433084 1.001051-.0859129 1.505798-.1278011.122014-.0101411.244389-.0202401.366932-.0302973.503578-.0413182 1.009983-.0819407 1.519226-.121856.245182-.0192206.491455-.0383065.73839-.0572281.111958-.0085797.223239-.0170636.334653-.0255143.776573-.0588961 1.56022-.1162185 2.350396-.1719282.650107-.0458537 1.305792-.0906776 1.965917-.1344087.059554-.0039223.118845-.0078388.178172-.0117464.2118-.0139745.424316-.0278303.637289-.0415738.225865-.0145493.452463-.0290116.679577-.0433474.511303-.0323031 1.025368-.0639466 1.542053-.09495.14803-.0088513.296036-.0176668.444256-.0264299 1.312551-.0776366 2.642593-.1511723 3.989511-.2206219.06746-.003447.134125-.0068722.200831-.0102875.589688-.0302223 1.183629-.0596818 1.780812-.0883595.546939-.02624 1.096637-.0518531 1.64906-.0768122.957745-.0432883 1.924094-.0846063 2.898653-.1239633.347782-.0140458.697748-.0278886 1.048768-.0414805.037821-.001458.074534-.002876.111259-.0042913.334273-.0128924.670624-.0255923 1.007935-.0380638.057571-.0021116.114625-.0042129.171706-.0063077.297428-.0109362.596015-.0216918.895351-.0322701.107019-.0037535.214421-.0075216.321919-.0112669.212237-.0074276.424378-.0147195.636893-.0219231.217609-.0073356.436108-.0146331.655-.0218374 1.075193-.035447 2.159512-.0685932 3.253345-.0995068.060969-.0016288.122028-.0033456.183117-.0050555.192767-.0054951.385624-.0108191.578777-.0160741.366987-.0098723.735697-.0196184 1.105474-.0291146.620805-.01608 1.244151-.0313197 1.870506-.0458586.037098-.0006974.0734-.0015367.109713-.0023736.075503-.001907.151557-.0036502.227656-.005383.738378-.0166284 1.481093-.0324591 2.227981-.0473208.764483-.0154509 1.533226-.0296654 2.306349-.0428693.065583-.0008384.130334-.0019348.195115-.0030242.736109-.012684 1.47691-.0241791 2.221687-.034761.120351-.0013567.240453-.0030342.360658-.004688 1.154215-.0162756 2.317841-.0300047 3.491007-.0415587.127588-.0007751.255351-.0020019.383226-.0032029 2.576779-.0247845 5.198807-.0386264 7.866912-.0421228h1.305461c31.36302 0 57.170607 1.4236596 77.628322 4.3687768l-.000006-.7344563c-27.903477-4.3993533-53.333953-6.5990299-76.291428-6.5990299z"/></svg>