<svg width="960" height="960" viewBox="0 0 960 960" fill="none" xmlns="http://www.w3.org/2000/svg">
<path d="M145.316 49.2151C195.663 26.5266 251.025 17.2543 306.017 22.2981L560.037 45.5959C596.049 48.899 623.617 79.0893 623.644 115.252L624.077 708.858C704.689 714.663 757.587 724.127 791.275 734.209C809.31 739.607 822.764 745.449 832.187 751.622C836.901 754.711 841.242 758.293 844.612 762.514C847.827 766.54 851.056 772.314 851.388 779.487L858.123 893.995C858.652 902.986 853.106 911.221 844.576 914.112C759.204 943.038 650.439 948.706 551.195 944.627C451.583 940.533 359.387 926.51 305.985 914.698C298.032 912.938 292.069 906.584 290.636 898.8C241.249 900.882 191.983 891.497 146.731 871.299L134.792 865.97C109.568 854.711 93.3235 829.672 93.3232 802.049V117.88C93.3234 90.3482 109.463 65.3735 134.563 54.0618L145.316 49.2151ZM330.146 874.851C330.25 875.675 330.305 876.51 330.305 877.35V878.936C382.968 889.478 464.879 901.046 552.838 904.661C644.561 908.431 740.952 903.457 817.278 880.813L812.292 796.058C809.57 797.039 806.619 797.932 803.508 798.749C790.037 802.29 771.133 805.09 748.421 807.139C702.852 811.249 640.365 812.465 571.693 809.871C503.022 807.278 440.799 801.352 395.66 793.816C373.162 790.06 354.518 785.841 341.346 781.294C339.114 780.524 336.972 779.719 334.945 778.879L330.146 874.851ZM239.731 351.819C228.449 351.494 217.16 352.175 205.998 353.854L177.746 358.104V446.783C177.746 457.127 172.903 466.591 166.27 473.283C159.662 479.949 150.268 484.862 140.031 484.593C137.743 484.533 135.5 484.214 133.323 483.644V802.049C133.323 813.887 140.286 824.618 151.096 829.444L163.035 834.773C206.292 854.08 253.74 862.098 300.938 858.075L308.606 857.422C309.405 857.354 310.203 857.335 310.996 857.363L315.798 761.332C315.638 760.389 315.566 759.396 315.604 758.353C315.648 757.171 315.827 756.064 316.112 755.03L316.211 753.074L316.795 753.103C318.816 748.473 322.961 745.52 325.866 743.846C330.373 741.249 336.305 739.168 342.966 737.417C356.437 733.877 375.341 731.075 398.054 729.027C443.622 724.916 506.11 723.701 574.781 726.294C577.898 726.412 581.002 726.539 584.091 726.67L583.823 361.723L239.731 351.819ZM574.043 746.281C505.947 743.709 444.351 744.934 399.866 748.947C377.553 750.959 359.937 753.64 348.064 756.761C344.794 757.621 342.134 758.471 340.027 759.275C342.069 760.235 344.658 761.285 347.856 762.389C359.466 766.396 376.835 770.398 398.938 774.088C443.002 781.445 504.336 787.313 572.432 789.885C640.527 792.457 702.123 791.231 746.607 787.219C768.921 785.206 786.537 782.526 798.41 779.406C798.581 779.361 798.749 779.314 798.916 779.269C793.98 777.174 787.698 774.891 779.807 772.53C748.492 763.157 695.286 753.539 609.195 747.931C597.724 747.287 585.987 746.732 574.043 746.281ZM470.486 379.275C513.201 379.542 545.335 418.897 545.014 464.27C545.004 465.645 544.963 467.015 544.895 468.377V636.809C544.573 682.174 511.891 721.111 469.187 720.843C426.495 720.575 394.374 681.26 394.661 635.922V463.366H394.761C394.761 463.354 394.761 463.341 394.761 463.328C395.083 417.956 427.772 379.007 470.486 379.275ZM507.791 633.647C506.785 661.126 494.012 685.828 474.434 700.59C501.497 697.766 524.617 671.469 524.895 636.739V633.266L507.791 633.647ZM414.661 635.725V635.992C414.48 661.609 426.786 682.796 444.091 693.439C467.25 687.635 486.211 664.217 487.753 634.094L414.661 635.725ZM524.895 521.24C511.235 537.871 491.633 548.464 469.287 548.324C447.268 548.186 428.06 537.661 414.661 521.279V615.72L524.895 613.261V521.24ZM470.345 399.275C441.123 399.092 415.022 426.509 414.76 463.453C414.498 500.398 440.207 528.141 469.43 528.324C497.646 528.501 522.95 502.944 524.895 467.926V464.183H525.014C525.014 464.17 525.014 464.157 525.014 464.145C525.276 427.2 499.567 399.458 470.345 399.275ZM475.405 431.881C492.734 431.99 504.456 447.667 504.341 463.99C504.225 480.315 492.281 495.843 474.952 495.735C457.623 495.626 445.902 479.949 446.018 463.625C446.133 447.301 458.076 431.773 475.405 431.881ZM475.264 451.88C471.427 451.856 466.073 455.855 466.017 463.75C465.961 471.646 471.257 475.711 475.094 475.736C478.93 475.76 484.286 471.761 484.342 463.865C484.398 455.97 479.1 451.904 475.264 451.88ZM278.191 103.304C250.2 101.159 222.081 105.244 195.857 115.265L133.323 139.159V461.184C135.946 463.84 138.507 464.546 140.557 464.6C144.046 464.692 148.379 462.922 152.065 459.203C155.726 455.511 157.746 450.888 157.746 446.783V349.496C157.746 344.548 161.366 340.344 166.259 339.608L203.022 334.076C215.359 332.22 227.837 331.467 240.307 331.826L583.809 341.714L583.651 126.706L278.191 103.304ZM302.363 62.1301C254.245 57.7168 205.804 65.8315 161.751 85.6838L150.998 90.5295C140.281 95.3593 133.376 106.001 133.324 117.748L188.719 96.5823C217.703 85.5069 248.782 80.9922 279.72 83.3625L582.341 106.548C578.869 95.1629 568.798 86.5677 556.384 85.429L302.363 62.1301Z" fill="black"/>
</svg>
