<?xml version="1.0" encoding="UTF-8"?>
<svg width="960px" height="960px" viewBox="0 0 960 960" version="1.1" xmlns="http://www.w3.org/2000/svg" xmlns:xlink="http://www.w3.org/1999/xlink">
    <!-- Generator: Sketch 60.1 (88133) - https://sketch.com -->
    <title>com.aeotec/driver/ZWA001/icon</title>
    <desc>Created with Sketch.</desc>
    <g id="com.aeotec/driver/ZWA001/icon" stroke="none" stroke-width="1" fill="none" fill-rule="evenodd">
        <path d="M479.5,2 C621.703669,2 737,117.047676 737,258.987793 C737,275.276645 735.478986,291.381305 732.481241,307.15227 L732.12601,308.980628 L732.021095,309.473912 C730.659069,315.694038 724.550259,337.890376 722.497406,344.171992 L722.331585,344.670697 L722.198505,345.05438 C718.708988,354.854926 714.626147,364.422624 709.976487,373.710018 L709.591,374.473 L707.561938,379.603393 L704.164998,388.229965 C668.404731,479.304313 647.807809,540.205419 642.659628,569.441459 L642.503777,570.344776 L642.353666,571.254253 C636.437867,607.971715 634.003168,648.62802 633.675021,683.536556 L633.659203,685.4349 L633.640035,690.234009 L633.629449,691.118762 C633.53248,697.069373 632.944649,702.103044 631.355256,707.486594 C629.139345,714.99227 625.198264,721.797244 619.311142,727.629181 L618.80176,728.126672 L617.966505,728.917545 L617.966505,728.917545 L617.850668,729.033086 L617.794,729.092 L617.758393,729.203322 L617.150082,731.263355 L616.836239,732.286813 C616.478422,733.418445 616.1356,734.367988 615.658992,735.51684 C613.62342,740.423526 610.563557,744.71395 606.165985,748.528503 C605.44096,749.157406 604.700051,749.745332 603.937791,750.295231 C599.175534,765.212508 596.703997,783.025236 596.613746,803.735996 L596.611181,804.916099 L596.611181,863.726396 C596.611181,866.925984 595.588082,870.041742 593.691342,872.618511 C556.139938,923.633031 522.912949,952.276677 492.137272,957.955723 C488.903742,958.552407 484.145627,959 479.5,959 C475.677643,959 470.522882,958.576475 467.965505,958.149534 C436.870159,952.958324 403.297629,924.227476 365.308658,872.618511 C363.494385,870.153775 362.479436,867.1959 362.394609,864.14322 L362.388819,863.726396 L362.388819,804.916099 C362.388819,783.694638 359.91315,765.483961 355.058459,750.280126 C354.177844,749.663402 353.327109,748.997201 352.497188,748.277309 C348.099616,744.462755 345.039753,740.172332 343.004181,735.265646 C342.459486,733.952673 342.089532,732.90002 341.672231,731.538374 L341.513091,731.012161 L341.006081,729.285938 L340.869,728.841 L340.651,728.623 L339.998951,728.007465 C333.854994,722.137351 329.72966,715.229596 327.41007,707.576864 C325.746572,702.088698 325.13396,696.958195 325.033993,690.883861 L325.023817,690.086097 L325.0081,685.802358 C324.784546,650.501027 322.38875,608.734965 316.309507,571.003059 C311.598004,541.760279 289.908872,477.701428 251.559885,380.495697 L250.392695,377.539924 L248.273,372.185 L247.844007,371.314838 C244.067212,363.575335 240.682646,355.644656 237.704601,347.549234 L237.072676,345.811988 L236.453227,344.069758 C235.267232,340.695316 228.982752,318.522425 227.945982,314.108575 L227.874431,313.794046 L227.525734,312.167877 C223.86254,294.808372 222,277.012712 222,258.987793 C222,117.047676 337.296331,2 479.5,2 Z M437.078566,908.602071 L437.505712,908.967542 C450.549141,920.111997 462.20315,926.581995 472.265888,928.446393 L472.905484,928.559052 L473.15034,928.595135 L473.519775,928.64021 C474.898287,928.796101 477.669615,929 479.5,929 C481.043072,929 482.624943,928.919416 484.126138,928.7782 L484.930156,928.695774 L485.646768,928.610133 C486.088458,928.553334 486.451127,928.498493 486.693274,928.453809 C496.864808,926.576853 508.652886,920.001228 521.850886,908.661441 C509.464758,908.886883 496.612728,909 483.295332,909 C482.507723,909 481.742242,908.957144 480.998889,908.873841 C480.258441,908.957106 479.492628,909 478.704668,909 C464.283604,909 450.408236,908.867357 437.078566,908.602071 Z M392.386682,821.114737 L392.388911,852.82646 L396.148294,853.001307 C421.327817,854.138524 448.846608,854.707132 478.704668,854.707132 C479.492628,854.707132 480.258441,854.750026 481.002105,854.833403 C481.742242,854.749988 482.507723,854.707132 483.295332,854.707132 L487.91636,854.702555 C516.296585,854.646106 542.528647,854.0675 566.612546,852.966738 L566.612546,834.440624 L563.587004,834.393394 C513.628226,833.51279 437.343615,827.318395 392.386682,821.114737 Z M391.596714,783.891196 L391.684631,784.998206 C392.125436,791.003554 392.358647,797.214235 392.386077,803.630175 L392.388819,804.916099 L392.384913,805.969635 L395.114591,806.349284 C440.361594,812.551217 517.648579,818.764209 566.612792,819.439452 L566.611181,804.916099 C566.611181,802.387907 566.642844,799.891316 566.70628,797.426329 L563.623997,797.374037 C512.724854,796.408157 435.036104,790.004443 391.596714,783.891196 Z M388.019599,758.007998 L388.186159,758.822152 C388.820377,761.973917 389.382275,765.196309 389.872217,768.489312 L392.483506,768.868686 C435.910976,775.075104 516.920735,781.727086 567.518443,782.437581 C568.230503,773.953864 569.366941,765.888808 570.931601,758.241819 L568.944015,758.344471 C559.068087,758.81663 549.547877,758.974525 525.689029,758.994067 L520.141953,758.996204 L503.739,758.987 L503.715976,758.996204 L503.659372,758.987151 L457.757775,758.953038 L455.813606,758.92674 L455.770159,758.939453 C455.730601,758.947794 455.673809,758.949266 455.533376,758.934615 L455.320458,758.908702 L454.166,758.737 L428.101404,758.735137 C411.145361,758.702367 402.16204,758.582998 394.327464,758.290097 L391.568785,758.178055 L389.043206,758.060344 L388.019599,758.007998 L388.019599,758.007998 Z M290.460766,370.111496 L291.280321,372.193559 C329.175419,468.62976 350.58261,532.256359 355.800228,564.640441 C362.163779,604.13695 364.686034,646.896748 364.993625,683.704901 L365.007568,685.603416 L365.02214,689.719772 C365.071124,695.068331 365.677912,697.19674 367.594617,699.050582 L368.297011,699.714621 L368.959036,700.360366 C372.214816,703.602015 374.721069,707.041295 376.592837,710.773861 C377.416739,712.416836 378.080423,714.035008 378.660766,715.728651 L378.766093,716.03953 L378.766093,716.03953 L378.868824,716.349689 L379.092,717.049 L379.607521,717.128886 L380.310683,717.228122 C382.848081,717.570135 386.189683,717.856111 390.421192,718.078356 L392.335052,718.172048 L395.444532,718.303004 C402.357631,718.566264 410.391566,718.685829 425.003382,718.727138 L436.525369,718.744172 L488.475891,718.719823 L499.983,718.732 L499.911,718.768 L500.504,718.764 L500.518,718.733 L502.499067,718.749992 L503.117975,718.772957 L504.22008,718.858517 L504.406747,718.879652 L504.406747,718.879652 L504.509071,718.893298 L505.11,718.988 L531.469565,718.983032 C546.973614,718.948156 555.419643,718.837628 562.521918,718.580092 L563.632996,718.538196 L567.033832,718.390107 L569.357108,718.268335 C573.267054,718.044084 576.363933,717.761734 578.723568,717.428091 L579.377754,717.331375 L579.571,717.3 L579.724751,716.814999 L579.830943,716.489554 L580.050713,715.839612 C580.66344,714.070203 581.370553,712.37903 582.253071,710.665502 C584.241058,706.805555 586.915028,703.266349 590.394377,699.938026 L591.08,699.29 L591.197673,699.174666 C592.904782,697.459796 593.527005,695.452318 593.628781,690.776612 L593.64,690.039 L593.65989,685.209823 C593.920876,649.261189 596.274729,607.730659 602.202078,569.09459 L602.52894,566.990089 L602.862944,564.891635 C608.123986,532.238044 629.838879,467.842285 668.303875,370.120664 L664.85195,370.367979 C612.888658,374.03783 552.626829,375.913443 484.053843,375.997073 L479.239831,376 C407.095971,376 344.175291,374.03887 290.460766,370.111496 Z M479.5,42 C359.368412,42 262,139.158422 262,258.987793 C262,274.709126 263.672575,290.19926 266.957813,305.279984 L267.001911,305.469457 C267.683798,308.28258 273.382592,328.402299 274.161446,330.722314 L274.782851,332.470551 C276.853301,338.210008 279.165538,343.852812 281.712591,349.386068 L285.045932,349.647852 C339.696369,353.880522 404.434241,356 479.239831,356 L486.742639,355.992829 L493.370857,355.97436 C563.787373,355.716645 625.10046,353.516245 677.293794,349.378113 C679.694546,344.158384 681.886947,338.842222 683.864591,333.440915 L684.557189,331.518849 L684.775002,330.849631 C686.346882,325.852436 691.990259,305.331302 692.859042,301.344218 L692.918847,301.057806 L693.20371,299.583407 C695.721587,286.303014 697,272.732516 697,258.987793 C697,139.158422 599.631588,42 479.5,42 Z" id="Shape" fill="#000000" fill-rule="nonzero"></path>
    </g>
</svg>