<svg height="960" viewBox="0 0 960 960" width="960" xmlns="http://www.w3.org/2000/svg"><path d="m345.447488 1c1.268915 0 2.537111.06038043 3.800286.18093645l43.986394 4.19801188c20.526002 1.95897852 36.199713 19.19979227 36.199713 39.81906357l-.000881 15.2749881.410045.1266069c24.497875 7.7263274 43.840328 27.0688435 51.566641 51.5669891l.175314.572404 23.2.505.130544-.760394c4.73236-26.3403905 27.561089-46.3988593 55.157067-46.846286l.942599-.0076364h62.793916c29.276614 0 53.398026 22.0720485 56.631568 50.4835994l.094306.899717 75.395754.989885c38.457419.50419 69.444016 31.515087 70.059903 69.830611l.009343 1.163288v189.080998c0 28.094588-19.521234 52.416206-46.877622 58.479362l-.514937.115055c-1.309218.290018-2.624696.542554-3.944891.757569l-.19255.029232-.386162.114779c-1.487815.427416-3.013654.772176-4.572702 1.028689l-.586191.092046-10.297945 1.539486-.014106.192519c-.995889 12.629027-1.518508 29.048838-1.537523 49.120754l-.000538 1.140045c0 20.562365.522852 36.797555 1.522603 48.477388l.024564.284294 30.230597 10.899695c3.754853 1.353757 7.175144 3.205231 10.2176 5.450734l.518803.389571.037514.024036c14.997073 10.035521 24.486146 26.953304 24.704795 45.611789l.003861.659249v123.606298c0 53.887289-17.069158 107.93102-48.116504 149.992217-34.616029 46.895847-84.320748 76.217168-142.665125 80.462404-.708614.046807-.708614.046807-1.035261.063206l-.168705.008156-.242311.011202-.113023.005064c-.953056.041358-2.755212.104547-4.936762.175036l-.642104.02059c-2.918286.092872-5.14806.156465-6.131851.171072h-.822968c-17.49891-.10059-34.847128-2.431344-51.673522-6.882875l-.371034-.100444-107.831-23.853-.870057.023003c-57.219281 1.323379-111.628384-11.612355-162.599993-38.614659l-.48395-.257344-32.888509-.000766c-3.098264-.000073-6.185149-.360111-9.198659-1.07228l-.751813-.185373-46.671786-11.988176c-17.684309-4.542415-30.048298-20.483332-30.04859-38.741709l-.000643-8.676696-.661953-.363281c-20.81377-11.622205-34.987432-33.710825-35.399803-59.144678l-.009244-1.141041v-31.927l-.146049-.01798c-19.700726-2.551252-34.551381-19.195625-34.853951-39.058623v-486.885245c0-12.611654 5.862719-23.955655 15.108795-31.314657l.343205-.269495-.000741-40.571978c0-35.340701 23.205932-65.2613662 55.21122-75.3554197l1.130521-.3476023.000986-15.0539881c0-20.8564725 16.015049-38.17374843 36.732259-39.86638584l.629222-.04649702 63.503331-4.19801188c.878308-.05806229 1.758293-.08711716 2.638519-.08711716zm423.69609 586.652523h-2.550369c-8.091721 0-15.893233 3.01449-21.882823 8.455149l-.992925.897038c-32.853525 29.434775-72.208994 44.60857-118.066408 45.521386-46.683708.929262-89.649911-13.169983-128.89771-42.298948l-.344617-.25227c-3.886467-2.806068-8.314455-4.697872-12.956027-5.582933-.748722.064061-1.516125.042649-2.291285-.070954l-3.424033-.502773c-1.085208-.012658-2.174622.02894-3.264357.125889l-3.07528.273681c-8.957251.797018-15.816433 8.313375-15.793752 17.305985l.389287 148.271974c.003611 1.378255.025032 2.756406.064258 4.134108 1.928319 67.725774 48.691147 123.621652 110.21837 144.872026l10.640239 2.349599c13.733799 3.733185 28.084295 5.761131 42.741262 5.848277l.035694-.001299c.768794-.010297 2.690795-.072243 4.699031-.135331l1.020292-.032451c1.921723-.061875 3.757201-.125276 4.569653-.160472l.242743-.011203c.065739-.003312.115792-.006184.148634-.00857 97.623385-7.091175 153.958744-100.925855 153.958744-190.575876v-123.616539c0-.392741-.014465-.782107-.042892-1.167595-.022636-.307035-.054166-.611887-.094315-.914019l-.044642-.307024c-.27156-1.756529-.834705-3.416663-1.638381-4.929311-2.756125-4.491611-7.712389-7.487544-13.368391-7.487544zm-557.479142 138.863237c15.294909 52.147949 44.822671 91.309034 88.583287 117.483255 1.923417 1.15044 3.851912 2.277402 5.785485 3.380886l-.114988-.065655 1.249936.71034 1.25135.703804c.417138.233393.834511.465698 1.252119.696914l-.379625-.211304.607.337.044.024.612176.337682.861824.471318.037.02.623.339-.427-.232.426614.232431.404386.218569-.127-.069.601.324-.240838-.128636.305439.164586.446973.240076.379779.203262.393647.209712.263598.140483.213402.112517.219.116.089.047.039698.021878.509302.268122-.412772-.217105.700291.368833.698481.365272.092.048.678.352.054053.028878.163947.084122.151.078.095.049.37409.193702.42391.217298.349549.179322.018946.009681.143505.072997.385.196.037.019.059.03.130035.066239.017965.008761.651.329.04533.023601.08767.043399.726218.365534.268782.133466.472204.236237.191796.094763.564696.280124.241304.118876-.157045-.077281.249045.122281.136.067.279861.137842.479139.234158.186155.09117.094478.046039.409367.198791-.16-.078.542557.263538c-11.662586-8.593706-22.374125-18.371654-32.277137-29.307466-.343866-.379728-.685574-.762048-1.025128-1.146958-.093793-.106333-.187353-.212775-.280747-.319414-.120389-.137442-.240642-.275385-.360622-.413657l-.324136-.375162-.350237-.408858c-.105604-.12391-.210433-.247367-.315049-.371081-.376336-.444945-.750174-.893583-1.121259-1.345537-.361882-.440905-.720932-.884568-1.077368-1.331381-.110349-.138106-.220229-.276451-.329859-.415096-.610088-.771855-1.212562-1.552921-1.807326-2.343293-.294313-.390641-.586337-.783448-.876482-1.178526-.124445-.170012-.248919-.340413-.373045-.511233l-.255466-.352209c-.098363-.13698-.196899-.274142-.295212-.411571l-.347948-.488083c-.373235-.527671-.743675-1.05915-1.110883-1.594538-.109289-.158423-.218188-.317942-.326802-.477807l-.099787-.147942-.099785-.147656c-.06669-.097747-.132898-.19606-.198999-.294503l-.24387-.365574c-.066428-.099661-.132748-.199454-.198959-.299379-6.256325-9.440078-11.539471-20.057527-15.874818-31.84099-.032399-.092124-.065826-.1832-.099197-.274346-.093622-.251643-.1857-.504864-.277344-.758619l-.041246-.118421-.207434-.574457c-2.472574-6.932236-4.623735-14.260187-6.458312-21.981533-.038368-.164517-.077129-.328406-.115748-.492471-.470339-1.995465-.918997-4.017439-1.346684-6.065539-.041525-.201075-.083245-.402041-.124763-.603257-.419382-2.030706-.817902-4.087465-1.195987-6.169751-.318283-1.753901-.62221-3.525394-.911681-5.314903l-.07538-.468075c-.209411-1.308607-.411171-2.626746-.60525-3.954473l-.192607-1.337779zm23.951771 88.474964-19.546207-.000724.001643 20.335058 46.671786 11.988176 6.731267.001375c-12.598234-9.582565-23.886951-20.36473-33.858489-32.323885zm-55.616207-95.359724v46.369c0 16.016258 12.983742 29 29 29l3.226085-.000307c.146584-.006377.293988-.009599.442144-.009599l8.206727.000736c-13.613545-20.960306-23.895773-44.858014-30.816008-71.602602l-.364948-1.427228zm85.245925-558.654328-14.022603.874143c-5.115064.318326-9.895004 2.629694-13.319068 6.427337l-.580077.657962c-3.421843 3.793502-8.209946 6.085656-13.322975 6.364454l-4.778457.260555c-7.296889.397877-13.009724 6.430702-13.009724 13.73843v15.18432l-61.213021 4.137173v485.766307l34.95451 3.994442 26.410205 6.86752.029285.141685 45.172197 7.369483c-.149316-1.887863-.285426-3.792417-.408373-5.713643-.035644-.556979-.064981-1.308705-.096995-2.325421l-.016888-.562169c-.021958-.766173-.037444-1.444802-.043941-1.921855v-501.358114c0-15.125985 5.336785-29.028118 14.245925-39.902609zm353.319544 215.11161-.658484.104646c-6.360164 1.018504-12.910719 2.471506-19.651904 4.361782l-.353742.099119.065936.991658c3.639579 55.235886 5.80015 97.363809 6.481344 126.428327l.021238.923156c.19873 8.804977.303445 18.352387.314219 28.642948l.000112 3.457712c-.021051 21.790443-.450083 46.808993-1.286424 75.062151 7.936666.407622 17.22009.724135 27.83708.948199l-.441024-.010179.256693-.016948c11.987618-.827052 20.632209-2.0457 25.656131-3.530417l.285823-.085951c3.935488-1.204443 9.150342-3.708476 15.52411-7.511022l.121423-.074463-.034286-.880367c-.444002-11.169162-.829295-21.704744-1.156191-31.624269l-.053942-1.647553c-.02118-.651192.021412-1.298923.125068-1.93453-.914095-28.078805-1.37853-51.525032-1.391846-70.349033v-1.661382c.014272-20.226738.547166-47.444931 1.598258-81.671183-.055958-.479857-.07638-.964411-.061211-1.450922.282151-9.049559.599731-18.579662.95274-28.590409l.06541-1.872352-.331802-.152093c-2.800358-1.265212-5.788426-2.314108-8.970752-3.145609l-.799632-.203346c-5.955302-1.473218-14.583971-2.647547-25.769257-3.468506-.074807-.005491-.14955-.011823-.224214-.018995-6.121515-.588039-12.161691-.961315-18.120874-1.120169zm-40.903392 1.611482-.422562.047975c-5.272663.647155-10.431519 1.706628-15.447744 3.14807-2.917749 1.084631-5.782889 2.256832-8.595544 3.518526l.01016.090811c5.330469 49.623074 8.37801 87.264139 9.140518 113.010111l.02356.817642c.166931 5.961092.254696 12.529937.263371 19.707459l.000405 1.972598c-.01829 23.371328-.849792 53.00263-2.491936 88.924318.089642.285796.166588.575765.230474.869793l.814204.240033c7.68236 2.228961 15.117488 3.758696 22.305831 4.595525l.040858.004223c.812133-27.662048 1.228738-52.156759 1.250465-73.477854l.00007-3.42131c-.010121-10.180877-.113232-19.614259-.309258-28.299426-.669247-29.651853-2.940065-73.58483-6.812872-131.748494zm139.0457 124.569015-.005512.087009c-1.675045 26.244993-10.371866 51.052925-24.923769 71.868332.350801 10.379545.761887 21.378591 1.232703 32.994999 13.337058-6.362094 25.753233-14.710853 37.298868-25.054954l.952849-.860734c2.31065-2.098885 4.788319-3.974121 7.399492-5.612754l-14.822353-5.341409c-4.384694-7.188395-6.76212-29.881892-7.132278-68.080489zm-182.517838-107.449173-.246549.160303c-6.837959 4.502258-13.313421 9.641083-19.437933 15.417397l-.635028.602163-.204783.200519c-.668444.640135-1.352508 1.260389-2.051276 1.860384-18.338016 20.781543-29.61437 48.909329-29.61437 79.939627 0 44.410631 23.330335 83.927445 58.675359 103.378143 1.287564-30.379387 1.9396-55.791766 1.958935-76.217024l-.000082-1.940034c-.007386-7.057597-.092715-13.500682-.25591-19.328334-.664733-23.737492-3.393578-58.45371-8.188363-104.073144zm-55.452436 30.774838-12.781019.352239-33.039633 2.127782c-11.456859.737697-20.398402 10.153905-20.583441 21.592648l-.002926.361888v94.980077c0 10.918064 8.007216 20.184303 18.809885 21.76748l48.32837 7.081831c2.756256.110829 5.491444.438278 8.180915.975527-15.922295-22.549354-25.287051-50.385912-25.639344-80.094481l-.01031-1.739437c0-24.504926 6.082984-47.522131 16.737503-67.405554zm164.519443 34.702073 20.228555 13.448484c2.788111 1.85361 4.463611 4.979518 4.463611 8.327568v27.766705c0 3.342673-1.670159 6.464303-4.450982 8.319158l-20.617124 13.75197c-3.224885 2.151053-7.402421 2.244544-10.720308.239917l-19.839987-11.98708c-2.997109-1.810817-4.828711-5.0574-4.828711-8.559075v-29.531595c0-3.34805 1.6755-6.473958 4.463611-8.327568l20.228555-13.448484c3.354122-2.22991 7.718659-2.22991 11.07278 0zm47.554235-6.185105-.017276.769003c-.369698 16.762798-.558703 31.067331-.567104 42.910159v1.643129c.006923 9.739442.136592 20.75328.389073 33.040079 4.182747-12.472384 6.384126-25.785935 6.384126-39.473783 0-13.473621-2.132889-26.58453-6.188819-38.888587zm-53.091181 26.520673-10.228 6.8v18.531l9.574 5.784 10.883-7.258v-17.056zm55.159787-95.97066-.007749.206181c-.335519 9.492361-.639113 18.551358-.910788 27.176733l-.086901-.124709c14.264347 20.453601 22.878326 44.74968 24.742405 70.46967l.066246.9637.009263-1.20306c.310422-39.607633 2.693236-65.196503 7.147792-76.767046l.066532-.011208c.070903-.194034.142347-.384411.214332-.57113l3.083619-.460025c-10.715463-8.004482-22.146685-14.563606-34.324751-19.679106zm-206.645358-229.573183c-17.120828 0-31 13.879173-31 31v201.642894c.132132 9.907806 8.269847 17.833819 18.177653 17.704835l5.392052-.072705c6.893806-.091747 13.531672-2.477491 18.885523-6.736391 12.37863-13.708009 27.434507-24.652386 44.281842-31.87263 5.901112-2.603629 12.050692-4.791215 18.446406-6.562389 18.440881-6.090336 38.588041-9.135244 60.441253-9.135244 47.994192 0 89.144318 13.74402 123.448659 41.234206 5.229102 4.189106 11.612033 6.525972 18.170435 6.78277l.216748-.032588.000333-.726425c.63461.009956 1.27052.000426 1.906849-.028794l.237016-.011794.088802-.005987.659195-.04319c1.432498-.111603 2.864812-.323471 4.286893-.637941l.492371-.108913c9.132594-2.020695 15.633541-10.117285 15.633541-19.470759v-189.033197l-.00408-.48513c-.110234-6.85793-2.448843-13.1799-6.327044-18.268042-5.598365-6.972681-14.152621-11.476532-23.778909-11.602641l-269.24946-3.527285c-.135352-.00266-.270714-.00266-.406078-.00266zm-269.441429-58.529242.000986.3960222h-17.342727c-21.539106 0-39 17.4608948-39 38.9999998l-.000259 35.339978-.001 16.236 25.945-1.754.020597-.193162c1.759732-16.04477 14.783308-28.808074 31.18229-29.959625l.535936-.033424 4.509177-.245789.258369-.292332.074284-.083794.074753-.083376c6.929282-7.685296 16.596597-12.352945 26.93049-12.996055l55.763872-3.472086.029957-.003917.038879-.003469.230939-.031154c.212788-.026839.425911-.05262.639365-.077337l-.218908.02652.566454-.064639c.22194-.025613.444795-.04898.667999-.071185.068223-.00588.136516-.012585.204827-.019178.266345-.026489.533328-.050473.800794-.072792.022014-.001221.043669-.003023.065324-.004814.29178-.02465.584539-.046743.877859-.066834l.428297-.027607c.176414-.011176.353841-.02139.531468-.03087.268791-.014207.536906-.026859.805231-.037821.060619-.002538.121712-.004941.182828-.007256.012499-.000425.024834-.00089.03717-.001351l.977089-.029044 132.431681-2.926529c-.523673-21.083026-17.778604-38.0130578-38.987755-38.0130578h-16.620385l-.000343-.3956447zm406.207 10.441h-63c-5.293502 0-10.021916 2.41943-13.139749 6.212797-1.797499 2.695249-2.845041 5.933735-2.845041 9.416887l-.00021 12.539316 95.985 1.256v-12.425c0-9.388841-7.611159-17-17-17zm-275.992-65.344v34.903l42.410488.000383-.000488-31.362383-28.25-2.697zm-20-.097h-45.091v35h45.091zm-65.091.753-3.908.161-41.215014 2.7250119-.000986 31.3609881h45.124zm41.705 767.684.062644.078462.108356.135538.099.122.430119.530349.620748.751956.628127.745987.63377.737891.081236.093817.499419.569521c.194327.219999.389431.438885.585311.656657.072774.080908.1456.1616.218534.24214 19.137546 21.133432 43.385018 39.532202 75.918838 51.772865 4.505151 1.695038 17.555661 5.273938 39.15153 10.736702l40.147368 8.865115.028-.118978 37.470503 8.29044c-37.926707-31.675326-62.764372-77.885634-64.239864-129.707389-.04413-1.549935-.068229-3.100376-.072291-4.650824l-.389357-148.273907c-.021545-8.542037 2.839663-16.465637 7.699938-22.802356l-15.063665-2.206811c-20.623278-3.022427-35.90978-20.712521-35.90978-41.556097v-94.980077c0-22.14819 17.198827-40.49005 39.301247-41.913205l9.308559-.598445c-3.532156-5.673604-5.610242-12.35275-5.705861-19.522659v-201.90645c0-11.7199 3.953242-22.51647 10.598999-31.128985l-132.781926 2.930486-.81795.025688-.242115.010542-.316437.015027-.106505.006621-.052495.002379-.104757.006721.081757-.004721-.196.012-.522606.035416c-.423703.03153-.845666.06918-1.265801.112861l-.185593.019723-.468.053-.329.041-.156.02-.589871.081303c-20.848029 3.022445-36.780129 20.960406-36.780129 42.551978v501.159442c0 .336066.017949.927044.035733 1.547571l.016056.53386c.02229.707446.047287 1.369386.065208 1.649419.220492 3.445508.48512 6.827685.793886 10.146532l.015341.164452c.061997.662848.125758 1.323166.191281 1.980954.188516 1.892511.391629 3.764134.609336 5.614831l.222572 1.843721.02188.176267.094707.75267-.016-.122.01596.122388.00804.065612.019.148.013144.10145.028856.22755.042.323.008.063.034.254.009.075.031.236.001.006.017.127.001.008.022.163.04.297.020008.151816-.094248-.705524c.163413 1.234739.333558 2.459819.510435 3.675239.109343.751362.221322 1.499446.335877 2.243834l.181049 1.159851c.045091.284822.090563.569099.136416.852828.112546.6964.227362 1.389365.344473 2.079037.120234.708067.24288 1.412625.367944 2.113714l.024132.135069.004914.030136.007.038.012319.067075.062556.34711.036125.201815-.036-.202.11205.615775.236192 1.268591.241565 1.260882.103252.528253.011941.060499.052.261.013.069.027.135.102436.512097.006564.031903.016535.082757.094465.465243.023.113.012.059.122.594.0084.039139.0536.258861.0691.328889.0439.208111.026.124.054014.253899.009986.046101.07822.36654.06078.28346.02803.128313-.027221-.125821c.163698.757678.330469 1.510947.500312 2.259808.130591.575793.26295 1.148769.397124 1.719141l.0054.02295c.094551.401743.190004.802193.286357 1.201351l.244319 1.00153.377866 1.508817.386612 1.496267.121201.461644.025.093.115614.432963.039386.149037.066.244.012.045.191457.701722c.092887.338808.186469.676619.280746 1.013432l.082797.293846-.049-.172.048701.172005.057299.203995-.042-.151.245645.865011c.115488.402508.231983.80357.349485 1.203188.162664.553212.32728 1.103728.493826 1.651474.929884 3.058296 1.920117 6.030705 2.970569 8.916806l.530244 1.435857.171741.456284.08049.21338.092277.241432.025723.066568.012397.033222.006603.016778.124.325.02.051.037.095h-.001l.014.035.051.131.131.337.032248.082413-.265408-.683905c.265586.689116.534745 1.373107.807476 2.051973.19271.479681.387151.956677.583375 1.431115.276893.66948.55727 1.333718.841172 1.992816l.428504.984804.195865.443607.003768.008177.038.086.025.056.066.147.005.012.011.024.035.079.098.218.042378.095201.054622.120799.07.155-.011-.023.054.119.005.01.11.242.038.084.03689.079873.03011.066127.159129.345679.054871.119321.022.047.02.043.326297.699029c.158091.336172.31717.670927.477239 1.004262l.054464.113709.016.034.009.017h-.001l.015.031.065535.134262.036465.076738.006535.012112.106465.218888.027.056.063.13.00658.012434.01942.040566.049.1.039.079.075.153.033.067.024.048.044.089.056.113.116521.234447.221322.442142.009157.018411.044.088.067.132.017.033.001.002.042.083.270621.531552c.302151.589634.607567 1.174582.916248 1.754845.089335.167934.178935.335459.268808.502591l.460646.84883c.109629.200174.219657.399777.330083.598807.453615.817599.91427 1.626084 1.381658 2.424904.566838.968791 1.143605 1.923408 1.730278 2.863812l.153658.244659h-.001l.012.018.046399.07436.007601.01264.203.322.138885.217799.084115.131201.126.197-.089-.14.310166.484039c.190626.294849.382261.588251.574903.880208l.022931.034753.587207.880105c.20449.303359.410091.605125.616802.905296.234667.340768.47096.679759.708688 1.016693.344718.488572.692357.972688 1.043009 1.45248l.062294.085426.500941.678044c.188601.253261.378058.505295.568371.7561l.001688.002856.222.291.038.05.033.043.018.023.186937.243208.227063.292792.111.143.242997.310429.020003.025571.059.075.256413.32382.175587.22018z"/></svg>