<svg height="960" viewBox="0 0 960 960" width="960" xmlns="http://www.w3.org/2000/svg"><path d="m496.91782 2.99085598 5.777537.01168293 6.146908.03001326 5.168607.03702017 6.756032.06230178 7.063466.07984758 7.348779.09711317 7.611974.11409858 9.45064.1589445 9.759562.18251582 10.030262.20560297 6.818354.14965573 8.650987.20097797 8.772611.21617012 10.656535.27906327 10.761598.30005231 9.02068.26572758 10.251621.3180181 6.936326.22509057 6.925905.23298261 6.905514.2407484 6.875157.24838791 6.83483.25590117 6.784537.26328816 6.724275.27054888 6.654045.27768334 6.41229.27670295 9.456572.42382409 6.195644.28848826 6.107988.29331327 6.019765.29820165 5.930973.30315339 1.468803.07656949 1.463209.07688392 5.796717.31069982 5.706502.31581 5.615719.3209835 5.524365.3262204 5.432444.3315207 5.339953.3368843 5.246893.3423113 5.153264.3478017 1.27362.0878157 1.267724.0881638 5.011754.356156 1.238109.0899192 1.23216.0902732 4.868964.3646529c10.657183.8124001 20.611419 1.6669003 29.835052 2.5665807l1.530503.1503656 4.085795.4123779c31.962442 3.2907017 54.472969 7.1695349 66.259589 11.7781594l.353887.1398788 1.335453.5429858c13.386864 5.5394939 22.109737 12.1417298 26.824098 22.0465733.768296 1.6117251 1.403419 3.2663392 1.911496 4.9610699.799072 2.6653417 1.267991 5.3505228 1.478902 8.1125988l.051179.7552428.009383.1601752.083114 1.8510753v.4177563c0 1.2663828-.030975 2.5415989-.093949 3.8325867l-.053246.9713065-.061107.9343837-.297116 3.9073572-.080037 1.1336307-.041245.6687332-.070483 1.3865394c-.606077 10.5807314-5.269875 19.6361406-13.133693 26.5840304l-.424333.370189-.430425.366137c-3.252123 2.731752-6.910289 5.069823-11.091858 7.160748l-.790206.389188-.363747.173688-.132031.907414c-14.489416 97.920748-46.39688 184.725879-90.458261 258.94616l-1.338908 2.245246-1.417379 2.355083c-18.447332 30.507916-38.27194 57.594924-58.207293 80.482803l-.355652.407854-.35546.406693-1.419767 1.615035-1.416073 1.595961-.353383.395964-.353113.394741-1.409597 1.566611-1.404655 1.546552-1.399213 1.526098-1.393272 1.505251-1.38683 1.48401-1.379889 1.462374-1.372448 1.440343-1.364508 1.41792-.339827.350931-.339293.349497-1.35166 1.383546-1.342471 1.360136-1.332781 1.336333-.331623.330317-.330978.3288-1.31731 1.299889-.327638.321114-.326947.319559-1.300715 1.262558-.323372.31169-.322634.310097-1.282996 1.224341-.318825.302043-.318039.300413-1.264152 1.185237-1.250965 1.158675-1.237278 1.131719-1.223091 1.104369-1.208405 1.076625-1.193219 1.048486-.590758.513568-.586775.506386-1.161348.991027-.574448.484543-.570215.477163-1.127478.931992-1.109794.901883c-.366928.295565-.730826.586047-1.09161.871379l-.538829.424128-1.063397.824887-.524442.400659-.519521.392739-.399678.300516-.794666.540466c-9.062425 6.270984-14.626268 15.250657-16.996919 28.417695l-.112219.640389-.181988 1.120814c-.654707 4.24001-.997517 8.897128-1.03781 14.01678l-.004028 1.030111-.000937 3.156693-.014112 9.241262-.024837 7.453124-.055003 10.085878-.066178 8.349438-.083982 8.103861-.102012 7.884132-.098945 6.420911-.065506 3.794143-.119499 6.236602-.160591 7.358855-.148304 6.045707-.128215 4.790604-.136795 4.758048-.18316 5.913444-.252632 7.487154-.195312 5.373597-.20694 5.380901-.218667 5.39962-.230494 5.429753-.242419 5.4713-.254445 5.524262-.266568 5.588638-.278793 5.66443-1.458857 29.042755-.389971 8.377465-.118484 2.679169-.167538 3.933082-.205285 5.115601-.185882 5.012606-.167876 4.957473-.114932 3.710717-.054148 1.860134-.052032 1.866684-.064731 2.373231c-.309057 9.177631-2.557713 15.353634-8.688069 21.765996l-.35116.363238-1.641649 1.646862-1.194299 1.228658-.535256.55995-.836751.885493-1.497264 1.610278-1.645708 1.79938-1.439027 1.591963-1.971334 2.200913-9.879212 11.128908-3.626308 4.046762-1.388071 1.530459-1.31886 1.443784-1.294252 1.406046-1.270706 1.369114-1.248225 1.332987-1.226805 1.297667-.303479.318992-.302224.316848-1.196671 1.246196-1.177911 1.212891-1.160214 1.18039-1.14358 1.148697-.283421.282316-.282464.280398-1.120623 1.102666-.277931.270998-.277074.269155-1.10006 1.058449c-.820269.78306-1.630093 1.542098-2.431489 2.278643l-.798663.729104-1.05692.949402c-1.052679.936644-2.093168 1.835417-3.126252 2.699946-8.683299 7.266552-16.549419 11.980555-24.974045 13.529766l-.000622 33.555654 8 .000144c5.42924 0 9.847931 4.326671 9.996158 9.720095l.003842.279905v45.685267c0 4.690297-3.259819 8.750363-7.839324 9.763784-17.416238 3.854127-34.860342 5.261783-52.308866 4.21716-6.090276-.364502-12.174542-1.026892-18.255753-1.987627-3.921839-.620119-7.841494-1.363416-11.756006-2.229372-4.488255-.992877-7.709115-4.912178-7.836155-9.483286l-.003896-.280659v-45.685267c0-5.42924 4.326671-9.847932 9.720095-9.996158l.279905-.003842 8-.000144v-33h-110v33l8 .000144c5.42924 0 9.847931 4.326671 9.996158 9.720095l.003842.279905v45.685267c0 4.690311-3.259838 8.750385-7.83936 9.763792-17.416417 3.854099-34.86081 5.261783-52.308323 4.217152-6.091545-.364571-12.177386-1.027082-18.255481-1.987535-3.920528-.619673-7.839068-1.362814-11.756749-2.229456-4.488272-.992863-7.709151-4.912172-7.836191-9.483293l-.003896-.28066v-45.685267c0-5.42924 4.326671-9.847932 9.720095-9.996158l.279905-.003842 8-.000144.000276-33.55956c-7.260173-1.346749-14.096219-5.060879-21.365391-10.630119-4.227696-3.239029-8.611775-7.144674-13.359418-11.824266l-.714899-.707757-1.320051-1.322646-.333046-.33681-.334289-.339284-1.34988-1.382036c-.453419-.467352-.91035-.941406-1.370949-1.422242l-.693671-.726351-.568067-.598034-1.146659-1.2156-1.163856-1.244857-1.184846-1.277963-1.824927-1.987449-1.253924-1.377584-1.946331-2.154934-13.148994-14.788598-1.89248-2.104888-1.382621-1.522133-1.278714-1.39179-1.186678-1.273871-.836751-.885493-1.05418-1.097408-.751011-.767414-1.566014-1.570648c-6.39597-6.543612-8.724341-12.778441-9.038333-22.095255l-.015384-.520793-.101005-3.706532-.068964-2.35584-.072338-2.347019-.075886-2.343845-.115858-3.380936-.12409-3.402925-.179154-4.600584-.195936-4.709623-.213944-4.858633-.233177-5.047611-.348291-7.203445-1.373037-27.236148-.264254-5.445994-.252848-5.379842-.241532-5.324035-.230307-5.278573-.21917-5.243456-.208125-5.218684-.050316-1.302013-.049633-1.301273-.191725-5.200923-.097824-2.773614-.120282-3.539292-.225735-7.100762-.206149-7.152019-.18679-7.229298-.141034-6.102222-.078298-3.702032-.120048-6.248325-.126982-7.645692-.091741-6.512164-.079083-6.656188-.078377-8.198738-.060566-8.453838-.037029-7.258507-.024949-7.468791-.016906-13.113159-.009404-1.021879-.017483-1.009599-.035904-1.327169c-.668181-20.401656-6.535531-33.058183-18.264315-41.176211l-.384538-.263114-.414197-.280168-.919198-.693255-.26161-.199342-.262832-.201317-1.063397-.824887c-.357649-.280166-.718454-.565515-1.08233-.85598l-.54811-.439527-1.109793-.901883-1.127479-.931992c-.378718-.315638-.7603-.636229-1.144663-.961706l-.578619-.491873-1.169503-1.00554-.294886-.255889-.295873-.257679-1.193219-1.048486-1.208405-1.076625-1.223091-1.104369-1.237278-1.131719-1.250964-1.158675-1.264152-1.185237-.31804-.300413-.318825-.302043-1.282996-1.224341-1.294933-1.249918-1.306372-1.2751-.328322-.322664-.328997-.324207-1.322592-1.312135-.33226-.331831-.332889-.333336-1.337688-1.348284-1.347128-1.371889-1.356068-1.395103-1.364508-1.41792-1.372448-1.440343-1.379889-1.462374-1.38683-1.48401-1.393271-1.505251-.349266-.379585-.349629-.380883-1.401997-1.536374-1.407188-1.556631-1.411881-1.576493-1.416074-1.595961-1.419767-1.615035-.711112-.814547c-19.935352-22.887879-39.759961-49.974887-58.207292-80.482803-45.032193-74.473556-77.7647061-161.829408-92.7654145-260.551435l-.4491338-2.995054-.1329207-.907414-.500239-.240968c-3.86519-1.88523-7.2896812-3.970054-10.3644044-6.366194l-.610308-.483412-.506828-.413668c-8.3217897-6.886026-13.3744993-15.9975391-14.1997639-26.7666924l-.0395263-.5683251-.0735981-1.4291685-.0428014-.715299-.0832237-1.1907826-.2494209-3.2348605-.113919-1.6762525c-.0735931-1.2098521-.1192155-2.4105042-.1374271-3.6030335l-.0090955-1.1898617v-.4177563l.074277-1.6924522.0688156-1.0642581c.211494-2.7718585.6804111-5.4570346 1.479466-8.1223164.5080957-1.6947961 1.1432188-3.3494102 1.9064255-4.9504512 4.8713056-10.2345736 13.9699052-16.9279389 28.1646407-22.6002432 12.6054365-5.0372106 37.7208105-9.1152362 74.2539595-12.485313l1.110559-.1019071 4.336399-.3879396c7.508219-.6583927 15.468425-1.2891177 23.871953-1.8941678l1.807539-.1292613 4.998476-.3485711 5.098893-.3428457 5.198925-.337209 5.298575-.3316604 5.397839-.3262005 1.364924-.0807073 1.371099-.080373 5.546015-.318176 5.644318-.312937 5.742238-.3077863 1.450814-.0761521 1.456905-.0758371 5.888396-.300226 5.985356-.2952962 6.08193-.29045492 6.17812-.28570198 6.273926-.28103743 6.369349-.27646128 6.464385-.27197352 6.55904-.26757415 7.572555-.29900856c8.520265-.33064828 17.069391-.64311189 25.633113-.93827714l8.568059-.28943194 8.57462-.27809667 4.288779-.13485915 4.289231-.13209918 8.578232-.25601697 4.288208-.12396702 8.57262-.2399742 8.564916-.22952524 8.554042-.21927321 2.13644-.05323951 2.135512-.05261414 8.531788-.20426449 2.130133-.04953348 2.12891-.04892659 8.502401-.18969891 2.122043-.04593825 2.120523-.04534982 8.465882-.17557649 8.437573-.16640774 8.406096-.15743595 2.096233-.03798023 2.094019-.03743487 8.352934-.14434756 2.082201-.03475429 2.079688-.0342274 8.292641-.13170232 8.248482-.12351836 12.282994-.17036346 8.124218-.10392015 8.958524-.10619471.451525-.00459436.455993-.00440125 3.806134-.02829165 4.079338-.02013378zm-73.79182 905.00914402-36.999555-.000144.000412 29.807558c11.456963.551416 22.915121-.081097 34.385332-1.90023l1.346942-.219065 1.266869-.216119zm172 0-36.999555-.000144.000445 29.807577c11.457464.551378 22.915463-.081127 34.385396-1.900236l1.346926-.219065 1.266788-.216132zm-226.999555-.000144-3.000445.000144v27.469l.960384.167578 1.758924.287277c.093949.014846.187899.029612.28185.044299zm172 0-3.000445.000144v27.469l.959314.16735 1.759465.287453c.093994.014849.187988.029619.281981.044309zm-155.127-52-1.873445.000144v32l1.873445-.000144zm20.126555.000144-8.126555-.000144v32l8.126555.000144zm151.873445-.000144-1.873445.000144v32l1.873445-.000144zm20.126555.000144-8.126555-.000144v32l8.126555.000144zm-233.343855-65.918161 1.541629 1.700484 1.139705 1.248116 1.108481 1.205263 1.080594 1.165829 1.056039 1.129812 1.545318 1.634665 1.091954 1.140463 1.069383 1.103972 1.046939 1.067522 1.024622 1.031116 1.002435.994749.980373.958427.958442.922144.936636.885905.91496.849706.225368.206776.224023.204516.882684.795488.861327.759395c.283563.24712.563589.488232.840097.723343l.412128.348165.808493.669344c.532011.434242 1.050083.844519 1.554385 1.230888.676486.518286 1.310827.979673 1.897424 1.38325l.346184.235203.566027.3708.135963.086284.133703.08371.511794.309037c.246548.144175.478902.272806.696303.385769l.173887.087876 219.154555.000144.158985-.080381.322346-.173207c1.600568-.884024 3.727552-2.401172 6.244932-4.507822l.188861-.158515.189712-.160164.767529-.657274.781804-.684171.197742-.175294.198675-.177006.804184-.725283.819749-.753202.835831-.781529.852427-.810265.869541-.83941.88717-.868964.905315-.898925.923976-.929296.943153-.960075.962847-.991263.983055-1.02286 1.003781-1.054865 1.545661-1.643201 1.057851-1.136666 1.629185-1.767819 1.115148-1.221021 1.341482-1.479094.130998-.144147c-12.918938 1.32397-27.998773 2.354636-45.327154 3.116018l-4.086064.172858-4.168002.163144c-.701509.026385-1.406442.052367-2.114805.077949l-4.291374.148698-4.37393.139153c-.735882.0224-1.475214.044406-2.218002.066018l-4.498231.124961c-.75663.020044-1.516726.039697-2.280292.058961l-4.623089.110923-4.706638.10165-4.790435.092443-4.874478.083306-4.95877.074236c-.8335.01162-1.670522.022866-2.511072.033737l-5.085672.060758c-.854682.009383-1.712901.018395-2.574663.027037l-5.213132.047433-5.298415.038634-5.383946.029904-5.469725.021241-5.555751.012646-5.623973-.012816-5.541688-.021541-5.459429-.030326-5.377198-.039169-5.294993-.048072-5.212817-.057034c-.861956-.010256-1.720489-.020887-2.5756-.031896l-5.089603-.070589-5.007494-.0797c-.827741-.014045-1.652062-.028473-2.472964-.043284l-4.884383-.093477-4.802342-.102736-4.720329-.112054-4.638343-.121432c-.766227-.021023-1.529038-.042439-2.288436-.06425l-4.515416-.13561-4.433499-.145135-4.351608-.154721c-1.436891-.053178-2.860138-.107963-4.269746-.164365l-4.187911-.17407c-.691166-.029823-1.378925-.060054-2.063275-.090692l-4.065208-.188737c-15.61128-.751225-29.376855-1.724844-41.3039-2.936444zm309.663158-285.318177-.113483.034501-3.466604 1.0241-3.40819.996607-3.360162.971715-3.32252.949423c-.551194.156524-1.101252.312228-1.65039.467165l-3.285532.920862-3.273855.905072c-1.090493.299348-2.180771.596498-3.272565.891883l-3.281661.881294-3.301144.873306c-50.068618 13.145477-96.771126 20.699964-141.582752 20.699964-44.811627 0-91.514135-7.554487-141.582753-20.699964l-3.151592-.833457-3.133411-.840627-3.124263-.85006c-.52045-.142588-1.040895-.285664-1.561524-.429274l-3.127478-.86845-3.140913-.883536c-.525107-.14864-1.05115-.298001-1.578317-.448133l-3.178003-.910409-3.214021-.931151-3.259072-.954155-3.267508-.966668c5.009102 12.055349 7.521473 25.968596 7.724738 41.668738l.010011 1.030458.003425 1.056747.005999 7.88063.023171 9.138855.032785 7.369397.045185 7.162382.057726 6.971224.055303 5.449996.080651 6.667087.113864 7.808161.109288 6.365119.148637 7.491839.138604 6.139882.120632 4.855694.197366 7.208879.142626 4.767982.203233 6.301568.18988 5.470897.202047 5.469943.048656 1.271006.049319 1.271789.203935 5.098109.214656 5.123174.225466 5.158285.236364 5.203441.247351 5.258644.258428 5.323893 1.671377 33.385106.259871 5.584944.293049 6.672087.210893 5.152666.145452 3.79011.178219 4.995272.122723 3.730742.114072 3.741222.083408 3.022362 1.02709 1.06366.646309.677996.629707.667833c7.646863 1.322013 16.859857 2.47023 27.610747 3.448563l3.097655.273546 3.180367.264414 3.262935.255301c6.057646.459711 12.530845.873579 19.4156 1.242158l3.796112.196556 3.877599.187592c.653049.030519 1.309487.060666 1.969312.090441l3.999558.174185 4.080685.165273 4.161667.156379 4.242505.147506 4.323198.138653c.72725.022373 1.457856.044377 2.191815.066013l4.443969.125411 4.524303.116608c.760737.018702 1.524815.037039 2.292231.055009l4.644533.103441 4.724505.094688 4.804335.085954 4.884019.077241 4.96356.068548 5.042956.059874 5.122208.051222 5.201317.042588 5.280281.033974 5.3591.025381 8.186123.022003 5.412101-.012356c.895126-.00276 1.786809-.00587 2.675049-.009332l5.288152-.024994 5.205627-.033456 5.12319-.041948 5.040842-.050469c.833282-.009123 1.663137-.018603 2.489567-.028439l4.917481-.063306 4.835352-.071901 4.753308-.080526 4.671352-.089179 4.589484-.097863c.758097-.017036 1.512786-.034435 2.264069-.052197l4.466846-.110944 4.385197-.119701c.724066-.020681 1.444735-.041729 2.162007-.063143l4.262886-.132893 4.181455-.141723 4.100112-.150584 4.018855-.159473c3.978257-.163929 7.834761-.341237 11.569906-.532058l3.694706-.195329c.609047-.033307 1.214727-.066991 1.817041-.101052l3.573511-.208896c1.177717-.071145 2.341987-.143803 3.492823-.217979l3.412223-.22709c.561992-.038609 1.12063-.077599 1.675914-.116971l3.291487-.240812c1.083761-.0818 2.154125-.165131 3.211106-.249998l3.130811-.259212c.515116-.043972 1.02689-.088329 1.535323-.133071l3.010535-.27309c10.350441-.967727 19.242557-2.104614 26.692998-3.41628l.361354-.383144.974828-1.024942 1.024201-1.06166.033658-1.192084.116322-3.962351.082955-2.633219.133034-3.954349.143946-3.980234.210049-5.387019.171988-4.130128.121908-2.808996.262101-5.782063.372007-7.771519 1.564589-31.14528.252879-5.290012.241847-5.229787.230903-5.179607.22005-5.139474.209284-5.109386.198608-5.089344.202048-5.469943.189879-5.470897.166185-5.113152.144851-4.762001.135981-4.788969.127183-4.824054.174437-7.31962.130541-6.1937.139073-7.568977.120126-7.7438.085807-6.606476.086021-8.135458.067761-8.3879.035149-5.745706.037866-8.869513.012313-4.555104.015202-12.021012c.104806-16.122441 2.61633-30.380761 7.734752-42.699204zm-155.574665-461.7730458h-5.800142l-3.662864.0213651-1.74413.0118737-2.503932.0226705-8.832123.1047973-8.083301.1034005-8.135406.1110577-8.184292.1189088-8.229955.1269537-8.272399.1351925-8.31162.1436254-8.347621.1522521-8.380401.1610727-8.409959.1700873-8.436297.1792957-8.459414.1886982-2.118087.0486663-2.119281.0492692-8.488049.2031654-2.124492.0523286-2.125383.0529496-8.509437.2180688-8.519669.2282469-4.262665.1180008-8.528978.2438776-8.531158.2545405-8.530116.2653973-8.525854.2764479-8.518371.2876926c-4.729752.1629887-9.454549.3312729-14.171905.5050024l-7.070142.2646969-8.466812.3285759-6.178762.2485007-6.102174.2535013-6.024499.2584489-5.945737.2633436-5.865888.2681853-5.784949.2729742-5.702925.2777101-5.619813.2823931-5.535613.2870231-1.370619.072473-1.365272.0727583-5.407274.293869-5.320355.2983667-5.232348.3028115-5.143255.3072034-5.053074.3115424-4.961805.3158284-4.869449.3200614-1.202804.0806706-1.196946.080931-4.728875.3263119-1.167406.0822208-1.161447.0824762-4.585854.3324432c-1.008374.074325-2.009585.148948-3.003578.2238661l-1.485571.1125984-4.391354.3404331-1.082431.0857221-1.076234.085966-4.242624.3462864-4.142112.3501226-4.040511.3539058-3.937824.3576361c-2.698693.2496413-5.322317.5019428-7.869233.7568247l-1.518931.1532381-3.569853.3702752-3.462271.3737673c-22.152766 2.4407223-37.418631 5.0994021-44.4536271 7.9106301-.3127975.1249958-.6165944.2485686-.9114721.3706574l-.4356372.1820126-.8313813.3571645-.7785966.3477119c-1.2414052.5657252-2.2692415 1.0913551-3.0933605 1.569496l-.2671748.1576113-.1924634.1172321v.1643825l.0454986.7903573.0403963.6183623.325625 4.2927349.0768041 1.130445.0334109.5417663.0302919.5318299.0099732.2011218.185678.1431837c.4430641.3334499.9841021.6834837 1.6252479 1.0479176l.3289251.1834068.5449643.2899271.1425978.0733395.1451476.0736755.6061569.2979901.3184672.1509181.3287636.152162.6885281.3079416.3598201.1557226.3702281.1568524.7717917.3169801.1994965.0799065.2021228.080164.8348252.3231595.8771263.3269937.2259173.0823208.2285786.0825426.9409966.332317.9838556.3355805 11.8423748 3.9712089 1.6282004 12.3839131c13.0769955 99.4621833 44.9353775 186.8533173 89.5385975 260.6174433 17.243736 28.517428 35.705375 53.742167 54.141128 74.908348l.313058.359024.312792.35792 1.248345 1.420534 1.863179 2.096702 1.235152 1.374518 1.228987 1.355449 1.222313 1.336002 1.21513 1.316176 1.20744 1.295971 1.199242 1.275389 1.190536 1.254427 1.181321 1.233086 1.171599 1.211368 1.161368 1.189271 1.15063 1.166794 1.139383 1.14394 1.127628 1.120707 1.115365 1.097096 1.102595 1.073105 1.089315 1.048736.270195.258332.269325.25678 1.068444 1.011473 1.053895.986158 1.038838.960465.257298.236057.256316.234421 1.0153.921214.998972.894573.982137.867555.242844.212622.241752.210905.955931.826316.937825.798351.231568.195174.230397.193396.909714.755694.224421.184421.223202.182607.88046.712184.860322.682704.839676.652846.486254.370622.26112.179315c3.596331 2.487343 6.905494 5.179952 9.933947 8.075384l18.535933 5.599301 3.350932 1.003824 3.46467 1.028587 3.399469.999393c.561725.164278 1.121167.327449 1.678544.489567l3.321222.960511c.549987.158125 1.098343.315306 1.645286.471598l3.266437.92752 3.242948.9088 3.229886.892696c.537806.147587 1.075501.294612 1.613304.441129l3.229847.873453c.539102.144707 1.078747.289015 1.61915.432979l3.104851.821148c48.550262 12.746833 93.664149 20.044349 136.503899 20.044349 42.839749 0 87.953637-7.297516 136.503899-20.044349l2.957449-.781893 2.941998-.78861c.978961-.264208 1.956653-.529864 2.934381-.797294l2.934599-.807947 2.942651-.820565c.491548-.137922.983759-.276451 1.476794-.41563l2.969419-.843183c.496989-.141937.99513-.284605 1.494585-.428044l3.013815-.870227 3.053206-.890715 4.670803-1.378791 3.185956-.950542 20.137512-6.087283c3.027623-2.893531 6.335689-5.584436 9.930645-8.070275l.735338-.502903-.482495.328697.493426-.375454.852719-.6632.873984-.69396.894716-.724325.226857-.185779.22811-.187647.92482-.769129.944223-.798505.239026-.20417.240197-.205974.972333-.841825.245928-.214906.24705-.216675.999247-.884253 1.016525-.912043 1.033272-.939438 1.049486-.966436 1.06517-.993039.268681-.25237.26962-.254002 1.087699-1.0322 1.102053-1.057812 1.115877-1.083029 1.129169-1.107849 1.141929-1.132273.287414-.286838.288169-.288334 1.160073-1.168167 1.171504-1.191601 1.182404-1.214639 1.192772-1.237281 1.202609-1.259526.302127-.318312.3027-.31967 1.216368-1.292154.611408-.654072 1.228931-1.323888 1.236641-1.34455 1.243821-1.364816 1.250468-1.384686 1.256585-1.404159 1.895183-2.141885 1.260059-1.440214c18.435754-21.166181 36.897393-46.39092 54.141128-74.908348 44.157188-73.026485 75.823161-159.4088 89.14066-257.637201l.397938-2.9802423 1.6282-12.3839131 11.842375-3.9712089.25239-.0849991.249643-.0848003.971172-.3371372.927503-.3336515.884067-.3299216.214256-.0818691.21156-.0816168.819341-.3238693.77648-.3195294.372239-.1580608.361609-.1568844.691447-.310117c.861844-.3955135 1.61912-.7784499 2.27403-1.1464746l.318935-.182759.462354-.2791991c.276165-.1725202.528362-.3412818.756843-.5060167l.220587-.1633826.14489-.1147132.020607-.3849363.055552-.9269586.087761-1.2777284.25649-3.3365767.062707-.8739896.05496-.9034572.022923-.397712v-.1686412l-.302185-.1825237c-.156117-.0922497-.320353-.1865304-.492794-.2827749l-.264823-.1458311-.566812-.3002976-.149491-.0768367-.152623-.077529-.641956-.3169132c-.222411-.1074223-.453275-.2166068-.692677-.3274863l-.365516-.1675821-.769697-.3425902-.404308-.1749073-.417362-.1772482-.380756-.1594797-.908196-.3688858c-7.043007-2.814429-22.372217-5.5242252-44.456799-8.0366005l-.77313-.0875607-3.42653-.3790042-.872654-.0942665-.879025-.0940704-3.579443-.3742983-.910604-.0930732-.916863-.0928703-3.729681-.3694304-3.828355-.3660951-3.925838-.3626878-4.022134-.3592083-1.020441-.0892499-1.026366-.0890269-4.164349-.3538541-1.055715-.0878945-1.06153-.0876647-4.303889-.3483377-4.395431-.3445701-4.485783-.3407305-4.574946-.3368187-4.662922-.332835-1.179338-.0825779-1.184743-.0823232-4.792656-.3267243-4.877659-.3225603-1.232558-.0799811-1.237777-.0797152-5.002936-.3161795-1.263598-.0783689-1.268707-.0780963-5.125538-.3096365-5.205788-.3051844-5.284847-.3006603-5.36272-.2960642-5.439403-.2913959-5.514897-.2866557-5.589203-.2818434-1.408771-.0697005-1.413323-.0693941-5.698433-.2744899-5.769767-.2694974-5.839913-.264433-5.90887-.2592965-6.278234-.2666302-6.590657-.2700963-6.655035-.2630625-6.709623-.2559059-6.754419-.2486266-1.694456-.0610048-1.696492-.0605404-6.803253-.2374774-6.82357-.2298912-7.989398-.2589608-12.812088-.3930668-9.568049-.2761766-12.650857-.342754-6.261585-.1602285-9.289847-.226122-9.142567-.2087533-8.968014-.1910428-8.766187-.1729902-11.327158-.201981-6.843923-.1092719-9.241732-.1306118-8.806164-.1040237-4.819864-.0472957-6.918929-.0541109-6.521645-.0336081z"/></svg>