<svg height="960" viewBox="0 0 960 960" width="960" xmlns="http://www.w3.org/2000/svg"><path d="m359.188872 125.15648 30.565148 18.397928c10.879756 6.548797 17.142629 18.032046 17.429313 30.003718l.002667.162874 136.532 226.316 87.559767-68.168353c4.702044-3.660744 10.236642-6.095023 16.105758-7.088706l.608323-.097647 17.426568-2.64456c2.785371-.422692 5.568236-.512702 8.299866-.292159l.311718.026425-64.212897-41.607718c-10.101005-6.545175-16.253361-17.697892-16.420023-29.710898l-.003475-.501029v-37.019392c0-16.487712 11.200704-30.868099 27.186696-34.904522l11.583741-2.924866c3.18698-.804704 6.360661-1.159046 9.462202-1.108928l.658756.016353.221346.002746c6.664919.119924 13.229149 2.090127 18.922617 5.777496l.447661.294673 240.405833 160.820489c8.18039 5.472306 13.763655 14.055193 15.450642 23.751532 1.34866 7.751729 2.116901 14.588713 2.246151 20.732456.126789 6.026733-.328825 12.987104-1.302284 21.179658-1.921595 16.171977-14.460777 29.039766-30.577646 31.378976l-14.571574 2.114925c-1.6502.239511-3.306313.36293-4.956919.372748l-.503827-.001699-.209792.002296c-6.747102.009577-13.394165-1.878466-19.161729-5.491404l-.465698-.296718-145.895781-94.536174.224567.357372c6.148003 9.860396 10.163257 17.912447 12.25914 25.804424l.149935.5772c1.920468 7.562583 2.611827 16.565745 2.606776 28.400499-.00452 10.589644-4.67127 20.640176-12.758301 27.476879l-131.626117 111.274626-.149318.180215c-4.638384 5.426761-11.065106 9.562681-19.121307 11.371102l-.294375.061683-.427561.102577c-1.679507.389915-3.38441.658713-5.100989.804595l-.18745.013828-10.837 1.552275c-6.139913.878788-12.39914.155864-18.171808-2.093675l-.575622-.23004-19.370741-7.935291c-9.027576-3.698178-16.167725-10.901835-19.78582-19.961805l-2.722009-6.814464-148.245-246.047-160.302 84.626.000669 465.634077c0 8.12508-2.748376 16.005535-7.789219 22.36408l-.347241.431164-6.325509 7.731923c-6.837426 8.35766-17.065351 13.204756-27.86354 13.204756h-36.8086011c-1.5679201 0-3.1341655-.102432-4.6887303-.306642l-14.6470108-1.924052c-7.3448165-.964826-14.2131669-4.172008-19.668131-9.184052l-5.2188789-4.795128c-7.4200224-6.817548-11.6431387-16.432814-11.6431387-26.509306v-485.231299c0-2.899354.3466726-5.735195 1.005606-8.462024l.1017248-.408497-.1730454-.504047c-1.2414953-3.738085-1.8513065-7.626225-1.833963-11.508315v-.590712c.0273669-5.643774 1.3805046-11.274526 4.0469419-16.411838l.2538257-.480163 8.2632408-15.349925 7.2236899-13.921788c1.8464413-3.558375 4.2624834-6.761367 7.1321554-9.493238l.1111547-.104974.0400332-.04032c2.6726588-2.628182 5.7541657-4.837458 9.1440377-6.53206l.510781-.250318 7.2291481-3.472302 7.3928308-3.798062c4.9081297-2.521832 10.3277829-3.880372 15.8396246-3.974194l.6127849-.005215 2.4437597-.000529 222.186991-111.893859c11.042152-5.560902 24.165391-5.066545 34.757881 1.309339zm-258.03924 211.679494.000368 470.916937 2.037111 1.236954 22.620521 13.724109 6.092037-7.445897-.000037-467.303103zm-19.999632 3.021937-11.1568733 1.114297c-.3674986.036678-.7323325.05297-1.0933787.049794l.0006175 464.18872c1.6830924-.018329 3.3936824.388578 4.9691441 1.266923l5.7484904 3.204266 1.532-.185zm446.096632 165.008063-6.462 3.005 11.186773 4.582467 9.506227-1.360467zm143.573106-147.235745-17.426569 2.644561-109.201537 85.016184-4.918 43.007 21.232 9.289 121.068811-102.349845c.003847-9.065004-.495917-15.57314-1.499316-19.524409s-4.088528-9.978766-9.255389-18.082491zm-316.850738-126.676229-2.668708 1.452388c-.18067.098269-.363221.189708-.547355.274405l157.56637 261.518455c.619425-.536706 1.323101-.997107 2.103259-1.359924l5.549434-2.581324zm24.473632-35.185026-10.52 23.548 153.824 246.213 3.097-27.086zm253.154 16.607-2.203027.556989v37.019392l238.412679 154.484892.452716-.063247.09787.063247 2.872762-.417273-235.579578-155.025474c-2.52967-1.664673-4.052587-4.489923-4.052587-7.518185zm18 2.808.000835 21.441026 234.324112 154.197501c.073391-1.708012.095269-3.266319.065635-4.674919-.086556-4.114359-.660332-9.220691-1.721326-15.318996zm-308.973247-59.183974-214.096753 107.819974-20.776508 44.807793 4.891 10.374 22.646508 8.195207 208.719295-110.18537c.222529-.148002.453524-.287416.692781-.417552l5.989924-3.259078 18.478-41.358zm-239.815753 115.740974-1.0073917.000555-7.8112403 4.013471-7.6765415 3.687152-.1924585.355848-.3781307.195238-7.3438693 14.152762-8.398 15.601281.144.305719-.144.277425 4.6576319 10.276549 15.882-1.586-2.8729096-6.094331c-1.2633392-2.680047-1.2731732-5.782337-.02685-8.470339z"/></svg>