<?xml version="1.0" encoding="UTF-8"?>
<svg width="960px" height="960px" viewBox="0 0 960 960" version="1.1" xmlns="http://www.w3.org/2000/svg" xmlns:xlink="http://www.w3.org/1999/xlink">
    <title>com.smappee/drivers/gas-water/ assets/icon</title>
    <g id="com.smappee/drivers/gas-water" stroke="none" stroke-width="1" fill="none" fill-rule="evenodd">
        <path d="M280.682527,76.2021772 C370.734073,41.9494168 463.948127,50.262676 549.897401,96.1827333 C629.179043,138.540479 698.843661,211.379778 747.871514,301.42932 C748.139443,301.921425 748.407413,302.413207 748.675473,302.904757 L750.285293,305.851962 C757.537789,319.108151 764.925714,332.323139 773.393937,347.236527 L776.876536,353.358808 L791.703828,379.265841 L808.79239,409.161552 C814.340936,418.936633 819.240783,427.666604 823.958492,436.199556 L826.477901,440.769322 C827.815412,443.202409 829.135214,445.614882 830.439833,448.011685 L831.434,449.842 L832.579531,449.719849 C832.911135,449.686056 833.23042,449.655175 833.536962,449.627256 L833.898668,449.595177 C847.027389,448.463347 858.932734,450.978155 868.331448,456.614171 C878.523953,462.726191 885.644775,472.433334 885.644775,483.659496 L885.653642,484.561151 C885.722027,485.009508 885.827367,485.621272 885.970739,486.399189 L886.277885,488.011227 L887.901435,496.234432 L888.44928,499.100374 C889.827361,506.456971 890.515588,511.430522 890.499294,515.838201 L890.479153,518.770056 L890.440143,521.667322 C890.204767,536.222772 889.5299,543.537368 886.392664,549.787034 C885.600029,551.366037 884.708673,552.88447 883.722956,554.3424 L883.514,554.644 L884.539844,556.820012 C920.447476,633.231732 938.662817,692.147275 939.0525,742.137424 L939.0525,743.746924 C939.0525,800.87032 908.807466,842.255286 857.224138,868.942222 C821.552387,887.39721 780.020305,897.336154 732.57439,902.75186 C692.452199,907.331601 639.81814,901.452843 587.27696,883.855094 C520.913993,861.62798 458.385298,822.492425 404.640926,765.122121 L403.967944,764.393711 L403.535738,763.915266 C402.854267,763.147765 402.253258,762.40381 401.633813,761.509488 C400.824734,760.341382 400.110085,759.107724 399.455781,757.511134 L399.3,757.122 L398.144969,755.865674 C396.926102,754.549867 395.804812,753.371996 394.78086,752.333765 L394.613,752.164 L393.956405,752.385387 C383.775887,755.772748 374.497011,756.374711 365.876891,754.099222 L365.303189,753.943259 C358.413621,752.015822 353.814019,749.16866 347.641561,744.191138 L345.635137,742.571998 C344.82651,741.929584 344.306143,741.544992 343.926615,741.29946 L343.863001,741.258779 L343.772,741.203 L343.570751,741.126661 L343.164773,740.961621 L342.762485,740.787715 L326.746,733.655 L324.4271,732.797589 L302.690996,724.816364 C279.609725,716.291299 263.660018,709.997526 248.206817,702.997392 L246.842772,702.377073 C241.844765,700.095283 236.878353,697.730301 231.718029,695.182285 C201.789343,680.404381 173.068482,662.517038 142.870174,639.198503 C93.7780777,601.29056 61.92951,568.677658 44.1533078,540.113868 C29.8029266,517.054878 25.0935993,497.802208 26.7531939,479.650485 C27.4009967,472.565179 28.1428518,465.481787 28.9812788,458.408088 C38.4100683,378.858631 59.2303782,305.104678 93.7901666,242.292402 C136.444905,164.767588 198.116141,107.60782 280.682527,76.2021772 Z M839.386911,551.291656 L839.025943,551.295854 C838.636555,551.301281 838.238786,551.308721 837.8329,551.318228 L837.218016,551.334046 C828.811176,551.569397 818.172498,552.618772 805.66661,554.614066 L803.646507,554.941806 C770.486744,560.410145 729.257163,571.532453 680.313671,589.380127 C609.772152,615.103711 521.519686,657.727912 415.644841,717.241687 C419.990481,720.644693 424.760854,725.569668 431.16076,732.720138 L432.06793,733.73722 C433.10901,734.908249 433.958288,735.926861 434.694383,736.912126 C435.788981,738.377248 436.66098,739.709621 437.386765,741.335071 L437.535,741.679 L438.272322,742.447003 C485.849162,791.793366 540.433265,825.658922 598.175188,845.316328 L599.980647,845.925998 C647.057911,861.693704 693.816108,866.916181 728.038053,863.009922 C771.066832,858.098409 808.404553,849.163208 838.844013,833.415176 C878.115778,813.097699 899.0525,784.449507 899.0525,743.746924 C899.0525,697.766338 880.009145,638.878109 841.381906,559.271896 C840.136882,556.706048 839.487014,553.990855 839.386911,551.291656 Z M841.144593,491.434516 C825.011801,492.825327 784.675239,501.019948 740.505941,513.528879 L739.166325,513.909256 C673.562604,532.58572 604.744871,558.688377 536.359363,592.914498 L534.028211,594.084446 C425.724708,648.589782 357.146429,678.408122 320.117448,688.60738 L341.259364,696.375444 C341.659046,696.523633 342.053889,696.684561 342.443287,696.857983 L358.544,704.028 L358.927249,704.179123 C363.095452,705.850716 366.352646,707.961071 370.346684,711.118206 L370.871959,711.535993 L373.234886,713.442304 C374.32938,714.314768 374.982965,714.792865 375.51448,715.121873 L375.633501,715.194446 C375.891529,715.349133 376.01531,715.404253 376.079869,715.422314 L376.101362,715.427251 L376.189511,715.439176 C376.343439,715.455285 376.557036,715.459825 376.849823,715.442746 C377.905026,715.381197 379.378199,715.079917 381.276829,714.448263 L381.83091,714.262338 C382.605606,713.277458 383.579592,712.422704 384.734986,711.763482 C500.8859,645.492425 597.092484,598.439194 673.461845,570.590436 L676.518275,569.480904 C726.28386,551.497333 768.397711,540.3073 802.515498,534.863863 L804.007423,534.628883 C824.57352,531.431978 841.215525,530.602019 849.965643,531.783099 L849.983703,531.577496 L850.009575,531.268944 C850.247635,528.355167 850.3986,524.443943 850.463972,519.78908 L850.476124,518.835718 L850.499894,515.62837 C850.503907,514.536531 849.948454,510.725129 848.913549,505.304199 L848.722122,504.308609 L846.989929,495.525007 L846.600025,493.472097 C846.454686,492.684545 846.32793,491.970628 846.218584,491.309072 C844.62366,491.242197 842.930183,491.28058 841.144593,491.434516 Z M73.283808,487.413841 L72.877185,487.899541 C71.2532414,489.834782 69.0523169,491.000217 66.7371342,491.355374 C67.6572951,498.58885 70.7744789,506.946777 77.3835453,517.793228 L78.1138773,518.979069 C93.0464314,542.973527 121.697033,572.311715 167.317228,607.538725 C195.403208,629.226162 221.865861,645.707094 249.427609,659.316273 C251.608179,660.392975 253.754384,661.435681 255.886622,662.453349 L257.164452,663.061017 C258.015439,663.464221 258.864844,663.863705 259.713973,664.260044 L260.987623,664.852263 L262.261837,665.440192 L263.537595,666.024261 L264.815877,666.604901 C272.346379,670.012022 280.058753,673.263354 288.850528,676.75294 C290.67052,674.281279 293.601124,672.677865 296.906226,672.677865 C303.495452,672.677865 316.139061,669.560347 335.133744,662.788205 C334.618706,662.170605 334.085379,661.526728 333.533162,660.855776 L326.463986,656.482074 C291.342143,634.686417 264.597984,617.189113 246.183908,603.951594 L245.586401,603.521445 C225.69385,589.180082 203.861264,571.364502 180.070234,550.069282 C179.807333,549.833961 179.559799,549.58787 179.327703,549.332274 C161.104721,548.743509 145.579861,546.164061 132.065749,541.65502 C115.090274,535.991081 101.696366,527.579849 88.2845469,515.268335 C79.5804323,507.278305 74.6110553,497.890521 73.283808,487.413841 Z M531.048168,131.46313 C454.992666,90.8290112 373.781365,83.5862129 294.903272,113.588945 C221.661747,141.447705 167.112928,192.006086 128.835731,261.574736 C97.0254765,319.389746 77.569908,388.309233 68.7032303,463.116228 L68.8553246,461.854364 C72.8380831,457.351819 76.3328886,453.618179 79.9697417,450.000813 L80.8297041,449.150213 C81.4051724,448.58416 81.9853679,448.019711 82.5727332,447.454337 C93.0692207,437.350831 103.246188,429.883339 113.857917,425.097052 C140.768246,412.959487 168.191204,419.298363 195.321983,446.872068 C199.40203,451.018724 203.562998,455.44358 207.80496,460.138986 C220.621111,474.325116 234.029383,490.804808 248.151476,509.493243 L251.018251,513.304059 L252.500331,515.286822 C253.288509,516.343489 254.074754,517.401116 254.859824,518.460707 L256.42862,520.582801 C267.402369,535.45993 278.244807,550.852586 291.036148,569.508653 L310.609113,598.186194 L313.736176,602.709077 C316.803735,607.115737 319.040377,610.221562 320.701544,612.371802 L331.996964,626.819348 C338.882341,635.604503 343.864668,641.873077 348.031769,646.952015 L349.96679,649.29525 C351.952277,651.682202 353.657684,653.672741 355.071448,655.250712 C355.55267,655.058166 356.039165,654.86468 356.528503,654.669505 L357.476682,654.290626 C396.004302,638.867576 449.859743,613.964435 520.680155,578.409448 L525.037309,576.219293 C595.369442,540.823609 666.177506,513.893481 733.690191,494.673561 L736.435263,493.896155 C760.041457,487.245822 782.565536,481.799442 801.129905,477.917299 C797.570601,471.271464 793.916276,464.552308 790.107153,457.644776 C785.260968,448.85662 780.247928,439.911129 774.533052,429.836453 L769.754132,421.4347 L749.962897,386.87137 L738.496704,366.787379 C730.505129,352.711726 723.450562,340.10547 716.556587,327.538189 L714.968168,324.638087 L712.740929,320.556316 C667.289496,237.075592 603.094699,169.955379 531.048168,131.46313 Z M247.725364,542.582007 L247.575503,542.61752 C242.490417,543.775168 235.93732,545.00204 229.251093,546.069656 L227.963019,546.273096 L226.330044,546.524575 C220.068026,547.475065 213.859323,548.257255 208.795374,548.684334 C225.758581,563.296184 241.572353,575.914102 256.228946,586.536408 L258.455699,588.141329 C268.792697,595.55104 281.854131,604.366762 297.631238,614.581393 C296.959881,613.617317 296.250835,612.594998 295.501652,611.51012 L291.672715,605.929105 L277.935829,585.779199 C266.723074,569.364358 257.088505,555.541195 247.725364,542.582007 Z M122.080936,443.328397 C114.753923,446.633154 107.298499,451.872404 99.4294852,459.061008 C99.3350955,459.291729 99.2298377,459.520231 99.1151626,459.746431 C89.8796049,477.963832 91.0485103,490.656689 101.809391,500.534748 C113.268597,511.053841 124.295307,517.978498 138.395783,522.683181 C155.382901,528.351005 176.720153,530.571333 204.508151,528.944156 L205.600486,528.873261 C210.656789,528.515211 217.566576,527.638695 224.414017,526.581717 L226.342101,526.27909 L228.922587,525.858392 C230.899858,525.529095 232.835166,525.190657 234.679849,524.851664 C234.546163,524.674202 234.413125,524.496866 234.280016,524.319536 L232.204685,521.563885 C218.406377,503.303496 205.351391,487.257458 192.964402,473.546366 C188.907258,469.055535 184.940091,464.83677 181.06581,460.899239 C159.587857,439.070646 141.031032,434.781195 122.080936,443.328397 Z" id="Combined-Shape" fill="#000000" fill-rule="nonzero"></path>
    </g>
</svg>