<svg height="960" viewBox="0 0 960 960" width="960" xmlns="http://www.w3.org/2000/svg"><path d="m710.780502 166.979759c.576417 0 1.152955.010757 1.727999.051536l.443301.031438 16.449651 1.1644c37.293103 2.634716 66.932836 4.692029 88.342817 6.132469 12.095687.813785 21.51906 1.427596 28.193229 1.836595 3.300583.202263 5.914877.353564 7.824489.453054.916871.047769 1.658316.082898 2.212554.105131.397501.015946.643247.022699.609414.022699 7.093732 0 18.538205 2.028819 29.741448 5.0041 7.409066 1.967649 13.411267 3.945034 18.546938 6.218831 6.71075 2.971157 12.137875 6.524956 16.387025 11.271079 1.839349 2.054475 5.408424 6.4442 11.140232 13.621406l.194308.24334c1.483573 1.858193 9.870084 12.405242 10.482498 13.151804 4.145022 5.052979 5.879772 7.264514 7.53243 9.749488 2.239061 3.366702 3.650388 6.373889 4.918277 10.212561.041542.125772.192265.580295.223612.675122.100369.303619.178847.543799.257437.789615.241381.754987.442834 1.437397.633486 2.177675.480294 1.864923.775433 3.681302.939895 5.701814.20232 2.485616.216751 3.872635.216751 12.700406v361.935092c0 13.169037-2.754029 23.390388-9.551509 33.430788-.073036.10788-1.911233 2.838092-2.388574 3.546683-.906568 1.345753-1.578062 2.341276-2.005285 2.972373-2.426881 3.585013-4.544989 6.666982-6.565886 9.549095-.555356.792023-1.098074 1.561232-1.628863 2.308554-3.737916 5.262777-6.853441 9.402765-9.529173 12.61913-.441533.530745-.881268 1.068537-1.47982 1.809672-.164006.203074-.320812.39761-.759638.942346-.343421.426067-.580139.718688-.814612 1.00679-1.750887 2.151353-3.066577 3.650894-4.598898 5.190622-7.754577 7.792062-16.613702 11.620758-28.508099 13.028477-3.910103.462766-102.980254 12.846037-286.918586 35.861706l-.194407.024326c-42.003376 5.255762-108.016091 13.517042-181.959755 22.771462-28.169548 3.52556-55.520386 6.948739-76.3197 9.552015-9.318574 1.166328-16.792106 2.101747-21.61929 2.705962-2.387806.298881-4.095583.512651-5.06481.633987l-.622604.077948c-2.158784.270143-4.42695.563184-7.127882.920611-31.219769 4.131465-34.825694 4.500109-47.503279 4.75946-14.181595.29012-27.264049-1.003129-40.478695-4.079897-11.997002-2.793264-30.159534-7.619038-56.895715-15.082546-1.28128-.357675-2.586665-.722637-3.919217-1.095739-1.752782-.490762-5.158088-1.450358-11.177294-3.148973-.424447-.119778-13.494864-3.809031-17.576385-4.960533l-.086989-.024542c-16.329909-4.607054-26.005393-7.326269-28.930517-8.123474-22.6521569-6.173548-37.8388179-13.684944-48.2603262-24.338388-.0775511-.079277-.138962-.142117-.5744439-.587768-.3121997-.31949-.4719713-.482959-.5471152-.559749l-.0793848-.081102c-3.856093-3.938429-8.4483771-8.240241-21.6077635-20.191764-11.915701-10.821993-19.4186676-20.247144-24.228712-31.360536-2.50281475-5.782642-4.18171552-11.869043-5.19536691-18.578785-.8938551-5.916765-1.28140563-12.339947-1.28140563-19.957332v-366.915771c0-.509281.01945251-1.018376.058315-1.526172l.02982015-.389644c.93592291-12.229216 4.09139745-23.664335 9.47412699-34.074722 3.1913356-6.172155 8.7831734-13.894908 15.7845631-22.268427 6.1930681-7.406782 12.9701554-14.65524 18.2537181-19.48157 6.0658799-5.540947 14.6237221-10.901848 26.6707518-17.038889l2.120696-1.080333c2.7175281-1.384373 5.7156681-2.128914 8.7651215-2.176682l2.3804697-.037288 625.0002628-9.790187zm168.207269 54.266227-525.059333 14.613333c-72.24914 2.795303-119.097911 2.79444-141.222963-.078114-21.139504-2.744597-65.399692-7.57573-132.6830755-14.480901-3.5226298 2.107953-6.0609138 3.898988-7.6460582 5.346956-3.3839357 3.091095-7.569532 7.521259-11.5978423 12.150514 5.9661725.612707 24.7088892 2.301558 57.701777 5.223068l.72629.064309c4.315402.38208 28.532977 2.523403 34.583347 3.059731 11.644251 1.032189 18.874469 1.679214 22.828632 2.045342 5.69512.527329 10.846993 1.441822 15.659616 2.902764 5.860515 1.779045 11.065674 4.333115 15.552758 7.837151 10.549419 8.238212 16.142938 20.943195 16.142938 37.934124v399.698735c0 .818208.002445 1.495089.00945 2.930522.016824 3.447523.014561 4.90583-.026744 6.753566-.057206 2.559102-.189481 4.759752-.434841 6.824342-.668294 5.623384-2.176262 10.214191-5.150428 14.067587-3.598352 4.662104-8.825927 7.410688-15.294787 8.224113-5.613103.705818-12.308647.000471-20.524442-2.04542-16.225184-4.040384-46.971219-12.198632-92.2808573-24.485497.8807319.503784 1.8342361 1.010589 2.8650451 1.520433 5.2106942 2.577234 12.0981992 5.06701 20.9544152 7.480656 3.103374.845784 12.721499 3.548879 29.273648 8.218632l.087065.024563c4.084389 1.152312 17.156692 4.842097 17.578998 4.961271 5.986876 1.689491 9.383529 2.646649 11.098478 3.126818 1.322704.370345 2.618129.732522 3.88932 1.08738 26.209248 7.316413 43.934086 12.025893 55.211344 14.651578 9.897563 2.304452 19.662868 3.269788 30.589975 3.046247 10.740912-.219732 13.278434-.47915 43.07376-4.422112 2.621768-.346951 4.8645-.6372 6.99825-.905128.049386-.006379.050067-.006464.060335-.007756.041289-.005204.041289-.005204.073391-.009223l.897415-.112364c.969539-.121374 2.677506-.335169 5.065544-.634078 4.827304-.60423 12.300925-1.539661 21.619591-2.706 20.799403-2.603288 48.150328-6.026477 76.319959-9.552048 73.944004-9.254462 139.957009-17.515778 181.960845-22.771598l.194408-.024326c185.031045-23.152397 283.121888-35.413259 287.183695-35.89398 2.098217-.248327 3.308923-.540133 3.956927-.820185.256978-.111059.436875-.236119.900032-.701516.44687-.449029.946158-1.018087 1.927297-2.223633.188735-.231903.388439-.47877.69216-.855581l.046955-.055386c-40.528408 4.794494-235.799044 27.816739-585.930101 69.080686-29.134522 3.433586-54.738579-19.326088-54.738579-48.661229v-387.520848c0-26.370627 20.87185-48.01042 47.226017-48.966444 370.551922-13.442145 565.251983-20.651296 583.363508-21.599015 5.962342-.31199 11.613783.136021 16.86914 1.310256-4.003066-4.99824-6.831629-8.470547-7.946164-9.746193-.060001-.043946-.141863-.100805-.246067-.16904-.604991-.396161-1.508086-.875803-2.709115-1.407553-2.385201-1.056038-5.581125-2.158754-9.690928-3.329509zm4.768241 33.314714c-18.289487.957031-212.60512 8.151948-583.683572 21.613194-15.598303.565844-27.95106 13.373099-27.95106 28.97959l-.000087 96.433711 10.454087-1.054343c4.712057-.475734 8.803602 3.223524 8.803602 7.959537v180.357356c0 3.836247-2.723201 7.132474-6.490542 7.856305l-12.767147 2.452145.000087 93.516137c0 17.360817 15.153574 30.830963 32.397722 28.798691 384.408064-45.303589 582.24525-68.630179 593.355014-69.961292 5.784977-.693125 10.756577-3.390952 14.354284-7.55413 3.415993-3.952904 5.322131-8.950479 5.322131-13.82088v-343.523146c0-10.096536-3.092195-18.398167-8.647301-23.947028-5.738738-5.732285-14.214523-8.67792-25.147218-8.105847zm-836.2433187 3.746386c-.3138072.063311-.5498297.132249-.7170113.199495-.044586.017934-.0745357.031375-.0933702.040518-.0366714.048397-.088026.12995-.1540632.257462-.35253.680704-.7723882 1.303852-1.2472066 1.865516-1.88942 4.571738-3.0619212 9.56778-3.5027491 15.033215v366.067001c0 11.034627.9868477 17.566946 3.185934 22.647836 2.0199531 4.667011 5.6253995 9.386926 12.3386066 15.720201l-1.8364785-.500711c67.478037 18.421592 111.473468 30.18654 131.898506 35.272768 6.023957 1.500081 10.398101 1.960879 13.1964 1.609008.871251-.109555 1.434669-.276588 1.764636-.45008.111108-.058419.141881-.084348.192825-.150352.142146-.184167.31568-.526488.498638-1.083479.2566-.781183.46866-1.816179.624118-3.124286.297429-2.502726.352169-4.951528.322067-11.120081-.00716-1.46738-.009688-2.167024-.009688-3.028119v-399.698735c0-5.965117-.906952-10.753911-2.567755-14.526218-1.401574-3.183501-3.348736-5.664415-5.884796-7.644865-4.687548-3.660582-11.515917-5.733434-20.746734-6.588143-3.91802-.362782-11.134867-1.00861-22.750609-2.038272-6.04769-.53609-30.263808-2.677285-34.58127-3.059547l-.726508-.064328c-35.529365-3.146115-54.3229299-4.843097-59.1296807-5.370762-5.2020639-.571061-8.2243949-.638165-10.073811-.265042zm49.649485 137.695694 47.7076637 4.22888c15.481279 1.372285 27.35114 14.34085 27.35114 29.882831v127.143544c0 19.637792-18.554827 33.980155-37.559021 29.032072l-47.7076629-12.421546c-13.21661-3.441181-22.4409794-15.374821-22.4409794-29.032072v-118.950878c0-17.614078 15.1035765-31.438071 32.6488596-29.882831zm694.6882237 129.608594v38.738985l-61.425412 9.081356v-41.433099c0-17.547196 13.259614-32.257086 30.712706-34.071923 16.422431-1.707665 30.712706 11.173704 30.712706 27.684681zm-707.3370833-99.725763v118.950878c0 4.552417 3.0747898 8.530297 7.4803265 9.677358l47.7076638 12.421545c6.334731 1.649361 12.519673-3.131426 12.519673-9.677357v-127.143544c0-5.180661-3.95662-9.503516-9.117047-9.960944l-47.7076631-4.22888c-5.8484277-.518413-10.8829532 4.089584-10.8829532 9.960944zm636.4087263-94.544172v121.50367l-39.35209 3.924025v-124.403423zm117.068153 7.410152v90.897352l-34.358209 3.070088v-92.327124zm-215.049905-130.387396-416.152428 6.518891c3.148744.38345 5.979575.738304 8.49265 1.064583 20.616667 2.676716 66.821329 2.676716 137.938163-.07575.036173-.0014.072354-.002604.10854-.003611z"/></svg>