<svg height="960" viewBox="0 0 960 960" width="960" xmlns="http://www.w3.org/2000/svg"><path d="m816.845057 15.272716c.088892.0229761.170376.0440374.248157.0641415l.114356.0295577.054667.0141297.10864.0280802c.725498.18752 1.533172.3962802 5.874422 1.518366 7.466948 1.9299877 7.466948 1.9299877 19.200725 4.9628254 11.051085 2.8563817 18.013268 4.6559022 24.776847 6.4040894l1.09567.2831986.668225.1727164c.445694.1151989.891996.230555 1.340023.3463569l.673474.1740732c10.350698 2.6753523 21.908682 5.6627528 48.248664 12.4708669 17.655776 4.5635009 29.989973 20.4909286 29.990132 38.7269352l.006107 700.4275919c.000004.484496-.008794.96861-.026353 1.452106l-.006813.134249.043536.160731c.118062.449173.231048.903402.339736 1.366195l.159907.701049.020276.092355c.487025 2.229122.827856 4.482538 1.024142 6.749962.003305.038606.005783.067561.007839.091693l.010502.125548.007511.091802c.085549 1.059673.139435 2.120446.162098 3.179684.000746.036291.001304.063508.001762.086189l.010691.117931v.086173c.009807 1.046949 0 2.092694-.046866 3.13605-.00119.028287-.002082.049502-.00283.067183l-.003995.091983-.003008.067252c-.094759 2.082831-.307214 4.152417-.631091 6.204624-.019068.12028-.019068.12028-.038467.240452-.156551.965432-.337545 1.92588-.54239 2.881749-.015654.072891-.015654.072891-.03135.145388-.409507 1.887635-.910877 3.752117-1.49838 5.59322-.019813.062017-.019813.062017-.039791.124257-.276402.860025-.571381 1.71433-.903316 2.614248l-.042535.114745c-.298631.803022-.613384 1.601036-.943684 2.393875-.049257.118028-.049257.118028-.098833.235985-.660109 1.567847-1.381086 3.116022-2.160155 4.646691-.028139.05525-.028139.05525-.056628.111031-.749484 1.466442-1.552055 2.916572-2.43605 4.403377l-.092249.154568c-1.212465 2.025937-2.527929 4.026294-3.951903 6.020149l-.077616.108406-.185834.258565c-1.66496 2.307864-3.469845 4.597427-5.454237 6.927202l-.206406.241501c-.055827.065105-.055827.065105-.111928.130407-.478865.55713-.965857 1.113686-1.461282 1.670151-.068862.077306-.068862.077306-.138169.154947-1.519868 1.701698-3.120508 3.404921-4.802891 5.113646-.083545.084811-.083545.084811-.167282.169647-.895664.906961-1.814618 1.815779-2.757278 2.727199l-.072918.070323-.503443.484298c-6.396833 6.15357-14.658728 10.004678-23.484717 10.946906l-238.385994 25.449153c-23.299029 2.487313-39.295037-13.076049-43.344552-31.290828l-.033932-.156662-.63817.107437c-27.613579 4.657863-61.501346 11.770382-87.930117 19.309417l-1.196123.34297c-.545373.157193-1.090556.315316-1.635514.474354-.610839.178265-1.221246.357636-1.831319.538137-1.446302.427914-2.890354.86206-4.329492 1.301548l-.06863.020963c-.748414.228661-1.496393.459034-2.243755.691054-1.030545.319933-2.060458.643173-3.088501.969304l-.328303.104267c-.218531.069484-.437082.139131-.650556.207309l-.315765.100962-.455963.146178-.151624.048709c-.87316.280651-1.744811.563333-2.61229.847158l-.069552.022762c-.610455.199821-1.220098.400612-1.828843.602337l-.796483.264134-.237482.079685-.032642.010893-1.059092.354713c-.349335.117411-.698822.235281-1.045049.352456l-.078217.026478c-.446195.151083-.891714.302604-1.327868.45159l-.240214.082116c-.56092.191898-1.120871.384521-1.67191.575118l-.215612.074627-.650118.22565c-.536336.186551-1.071489.373665-1.60567.561411-.453856.159515-.90722.31956-1.359813.480036l-.620307.220381-.544006.193846-.853982.306071-.500831.180193c-.254784.091866-.254784.091866-.509235.183812-.945252.341757-1.88565.684864-2.821987 1.029582-.253589.093411-.253589.093411-.507703.187219l-.707264.261826c-.895495.33226-1.787277.66601-2.66689.998032l-.184753.069774-.338536.128066-.529748.200963-.777059.296034-.029725.011366-.770217.294955-.175446.067393c-.455049.174894-.908728.350033-1.350521.521336l-.266718.103503c-.298308.115861-.59589.231777-.866859.337624l-.092526.035251-.773957.304145-.369738.145424-.593332.234096-.403143.159581c-.242331.09605-.484187.192142-.705223.280166l-.500129.199495c-.441185.176268-.880328.352495-1.302045.52247l-.380886.153705c-.198203.080084-.396044.160182-.587544.237867l-.127073.051566-.380752.154789c-.1863.075866-.1863.075866-.348158.141876l-.566237.231487c-.142513.058391-.142513.058391-.28472.116732l-.059063.023601-.010637.005006-.35792.147136-.239345.098598-.580653.239868c-.217875.090231-.217875.090231-.434573.180154-.41845.173735-.833545.34683-1.204239.502057l-.951925.39995-.079039.033327c-.848846.358023-1.688636.715484-2.48645 1.058186l-.686043.295404-.055176.023314-.087.037-.027992.01319c-.01534.006631-.031851.01377-.051896.022438l-.073094.03161-.324612.140584-.614338.267059-.589373.257395-.176254.077199c-1.271905.557468-2.516666 1.111291-3.73188 1.660222l.011439-.006697-.022667.011766-.430506.194841c-.421953.191316-.838731.381318-1.247114.568522l-.17213.078961-.028705.013179c-.217104.099691-.4331.199162-.643245.296223l-.079696.036821c-.776111.358712-1.537121.714259-2.272532 1.061622l-.11628.054932-.481356.228178c-.415457.197402-.825537.393503-1.230002.588177-.167314.080579-.167314.080579-.327595.157955l-.053975.026072-.274207.132738c-.219752.106533-.437732.212599-.644544.313605l-.123282.060249c-.351265.171786-.697625.342227-1.039021.511282-.269996.133699-.537244.266712-.7942.39526l-.080593.040337c-.364139.182346-.721769.362745-1.072744.541106-.254157.129158-.505012.257346-.752147.384343-.134533.069181-.134533.069181-.267958.137982-.218548.112774-.434433.224756-.647047.335626-.269818.1407-.534143.27949-.792867.416296-.18912.100004-.374386.198484-.556683.295906l-.011665.006235c-.088446.047277-.176179.094298-.258268.138403l-.118286.063639-.123588.066664c-.335064.180955-.658519.357579-.965924.527369l-.029121.016089c-4.664987 2.577316-9.797989 4.196393-15.09748 4.76212l-293.08803 31.287515c-4.421637.472015-8.891033.203439-13.224326-.794681l-83.2566164-19.177118c-18.156936-4.182222-31.0215996-20.346959-31.0215996-38.979332v-795.9858293c0-21.35584 16.776133-38.9451397 38.1080719-39.9552326 346.8827941-16.4253158 346.8827941-16.4253158 567.6263911-26.8777895 86.720698-4.1063289 86.720698-4.1063289 141.906597-6.7194474 12.482525-.5910625 17.778142-.8418162 22.657987-1.0728828l.768034-.0363673.127749-.0060491.639297-.0302715c.170784-.0080868.341934-.0161909.513741-.0243262l.51769-.0245132c2.774662-.1313836 5.792685-.2742906 10.252152-.4854517 5.420043-.2566456 5.420043-.2566456 8.869162-.4199655 1.868981-.0884984 2.320114-.1098601 2.64413-.1252027l.086186-.004081c.070811-.003353.141118-.0066821.226072-.0107047 4.006392-.1897075 8.018533.2242385 11.901797 1.2279485zm-766.845057 85.103284v785.446882l62.999 14.511118.001-780.499131c0-1.483923.16203-2.931589.469711-4.325757zm701.761993 686.829801c-129.817434 12.502897-314.500317 49.457633-553.899223 110.867494l227.452254-24.285831c15.454511-8.691388 49.056933-23.507691 89.843915-35.277718 43.764798-12.629345 96.688835-21.487243 115.569334-24.07193 33.846374-4.633473 59.400011-7.112257 76.660908-7.436424 1.899346-.034764 3.722028.582973 4.983005 1.688821l.012022.009393c.173796.122295.339802.252484.49708.390249 2.370244 2.076175 2.126293 5.252709-.545913 7.094081-7.551517 5.2091-14.398343 9.637861-20.540476 13.286284-.296568.176161-.598933.354922-.907095.536283l-.160746.094531c-.066381.039006-.133028.078132-.19994.117377l-.379795.222368c-.215342.125865-.433355.252927-.654037.381187l-.136911.079528c-.118893.069022-.238554.138388-.358935.208072l-.158874.091907c-1.875993 1.084573-3.936114 2.251731-6.180362 3.501472l-.318538.17725-.436817.242641c-.611384.339271-1.235947.684453-1.87369 1.035547l-.25096.138091-.107527.059124c-1.334581.733678-2.725998 1.492849-4.180022 2.280637-.531718.288079-1.071082.579586-1.618707.874853-.125727.067789-.251859.13576-.378395.203912l-.756476.407006-.318552.171138c-2.516318 1.351284-5.187046 2.771823-8.012183 4.261616l-.154509.081466c-.764284.402915-1.539825.810878-2.326621 1.223889l-.234297.122963c-.289145.151718-.579803.304114-.871682.457037l-.308973.161836-.967854.506408-.260034.135921-1.241021.647906c-.607219.316705-1.220566.636159-1.840041.95836l-.684305.355454 228.054626-24.352145c-.436067-3.080356.567245-6.318874 2.986261-8.634231 9.764508-9.346083 14.182999-16.510855 14.107576-20.461158-.044798-2.346274-2.849825-4.987007-11.129899-7.667843-22.049851-7.139068-68.344702-7.571612-137.773571-.884822zm-618.763156-647.959605.000163 755.026804 5.475635-1.440008c139.76153-36.726195 262.20239-65.695509 367.349189-86.907356-101.257524-187.563785-170.986528-315.456364-209.171515-383.643842-48.353439-86.345426-91.022068-160.574991-127.596384-222.61276-12.795793-21.704369-23.914445-40.332318-33.304769-55.874356-.955714-1.581814-1.873206-3.097984-2.752319-4.548482zm765.873163-58.7141965-754.626265 38.7241565c.025471.041648.051051.083479.076741.125492 2.393457 3.914234 5.244531 8.604777 8.546824 14.070441 9.427449 15.603484 20.582982 34.293223 33.415408 56.05973 36.649167 62.164732 79.391587 136.522668 127.817721 222.997908 38.617276 68.959421 109.356728 198.723206 212.239216 389.328465 86.813178-17.035737 161.306598-28.550051 223.502992-34.540272 50.05312-4.820685 88.610782-6.077415 116.044721-3.632067zm10.369 199.9570005-23.464061 485.988991c3.620645.754654 6.926436 1.616126 9.919166 2.58508 5.279812 1.709442 9.831787 3.844659 13.548764 6.415706l-.000869-166.882777zm-102.405812-226.489s-240.583769 11.3919296-721.751306 34.1757889l48.618118 11.5962106 709.379221-36.4034613c-24.164022-6.2456921-36.246033-9.3685382-36.246033-9.3685382z"/></svg>