<?xml version="1.0" encoding="UTF-8"?>
<svg width="960px" height="960px" viewBox="0 0 960 960" version="1.1" xmlns="http://www.w3.org/2000/svg" xmlns:xlink="http://www.w3.org/1999/xlink">
    <!-- Generator: Sketch 60.1 (88133) - https://sketch.com -->
    <title>com.innr/drivers/rgbw_osl/assets/icon</title>
    <desc>Created with Sketch.</desc>
    <g id="com.innr/drivers/rgbw_osl/assets/icon" stroke="none" stroke-width="1" fill="none" fill-rule="evenodd">
        <path d="M811.332073,124.298316 C813.554969,127.164696 815.734485,130.053438 817.869809,132.963047 L819.129616,134.692138 L819.408942,134.742236 C833.231899,137.298975 847.10526,146.620057 857.612935,159.952305 L858.020614,160.473766 C866.327546,171.185392 871.686349,183.449047 873.124657,195.188933 C874.388897,205.508034 872.613791,215.287648 867.466348,222.996295 L867.214944,223.366847 L867.721056,224.717057 C897.715809,305.675874 891.343813,380.062388 844.54307,418.349186 L838.811569,422.905874 L838.118873,423.448751 C837.718621,423.760334 837.330959,424.059803 836.951909,424.350005 L835.898619,425.149373 C834.181904,426.439817 832.6522,427.524173 831.207069,428.44867 L830.808678,428.699717 L766.37203,476.53078 C765.955675,476.839832 765.525997,477.130329 765.084257,477.401445 L764.638542,477.666069 C739.290031,492.216595 709.144719,497.697798 676.829739,494.315229 L676.036899,494.229464 L552.571,571.332 L584.929236,847.717845 C584.983273,848.17941 585.005799,848.635555 584.99874,849.084471 C585.065357,852.880913 583.071098,856.721922 578.788662,858.506594 L578.788662,858.506594 L339.797458,958.104378 C338.053088,959.363018 335.900658,960.074805 333.606391,959.993752 C332.24679,960.043687 330.913478,959.815215 329.677976,959.350053 L204.124491,934.569376 C199.197035,933.596842 195.737507,929.130349 196.015642,924.100285 L196.015642,924.100285 L218.670812,514.373566 C199.597901,529.822313 184.01293,545.74149 171.891148,562.102288 C148.435634,593.760251 95.259112,682.300397 60.9396843,743.141354 C43.660388,773.773827 0.750987177,806.426052 -38.5248319,822.51747 L-39.7138658,823 L-51,794.856182 C-17.2605834,781.295699 20.9345695,752.387074 34.5619618,728.22864 L36.6828129,724.47574 C71.6744321,662.668787 123.562852,576.4247 147.560471,544.035057 C165.323352,520.060455 189.217828,497.372001 219.18941,475.906275 L219.277019,475.844531 C218.976575,473.343258 218.694295,471.04449 218.537559,470.411989 C206.272073,420.915336 214.42183,373.848841 242.592824,342.955099 L243.28005,342.210916 L243.397435,342.042592 C243.902944,341.334076 244.466272,340.655564 245.086988,340.01386 L245.356521,339.741117 L420.769298,165.993848 L420.873161,165.286983 C425.411956,134.637108 437.329912,107.899577 456.247526,87.3483675 L456.866885,86.680415 L457.020561,86.5179591 L458.897385,84.5588973 L459.053288,84.3982129 C462.859384,80.524816 466.914745,76.9042687 471.211248,73.5485513 C473.95559,71.4051251 476.781211,69.3831063 479.68463,67.4838474 L480.113983,67.2057821 L536.977067,22.0460567 C537.090631,21.9558633 537.205297,21.8670769 537.321037,21.7797176 L537.671454,21.5219403 C608.826475,-29.4830035 729.077352,18.2324727 811.332073,124.298316 Z M254.183075,474.199687 C246.884152,474.080862 240.751864,479.760918 240.346337,487.094875 L240.346337,487.094875 L216.605115,916.44561 L321.837,937.215 L318.282,900.762 L272.268786,490.872351 C271.284202,482.101759 264.339215,475.231466 255.659024,474.298041 L255.301338,474.263034 L254.86407,474.228856 L254.458335,474.208657 Z M455.060561,837.49219 L336.917345,883.480281 L338.978,904.617 L342.409,935.182 L539.628722,852.993748 L455.060561,837.49219 Z M304.869126,600.775997 L334.293,862.879 L444.213,820.091 L450.514425,632.061746 C402.580709,649.476861 351.574631,637.8823 304.869126,600.775997 Z M533.672,583.134 L484.944611,613.564453 L484.839485,613.656109 C482.609202,615.542687 480.007781,617.380904 477.360053,619.024252 L476.697344,619.430945 C474.798651,620.582999 472.892581,621.685712 470.979636,622.739322 L464.428651,818.281442 L563.333622,836.491391 L533.672,583.134 Z M433.261945,203.351403 L272.115507,362.967946 L271.967296,363.168399 C271.586587,363.669447 271.175938,364.154318 270.735493,364.620485 L270.467652,364.89792 C250.966531,384.667469 243.834418,417.295827 251.079909,454.121132 C252.46081,454.003813 253.86338,453.970675 255.282571,454.02629 L255.282571,454.02629 L256.10217,454.068323 L256.859567,454.124175 C275.338095,455.669455 290.19905,470.092166 292.278069,488.61189 L292.278069,488.61189 L298.743,546.201 L302.328117,550.391325 L303.624441,551.76305 C354.270906,604.901878 408.719594,618.391645 456.92236,590.075452 L458.395993,589.195569 C459.920103,588.270798 461.471328,587.166782 462.163763,586.554023 L462.276862,586.451124 C462.97787,585.792643 463.73118,585.192798 464.52919,584.657445 L465.013298,584.344019 L643.516331,472.872794 C591.705579,457.125671 540.539454,421.607372 500.812536,371.032901 C496.031554,364.946458 491.474452,358.74158 487.149182,352.433652 L486.645639,351.694617 L486.145235,351.519785 C476.361789,348.02123 466.69354,340.789848 458.974777,331.151844 L458.53164,330.593144 C444.930315,313.277937 440.426881,292.101121 448.616613,278.490067 L448.80892,278.176342 L448.368994,276.942799 C439.514685,251.982102 434.431983,227.078203 433.261945,203.351403 Z M565.93916,307.31065 L508.600641,347.799263 C511.22676,351.432435 513.936068,355.027143 516.726784,358.579873 C559.100835,412.524284 615.015644,447.894929 669.046514,458.482449 C670.850221,458.171851 672.704013,458.14356 674.542383,458.409271 C701.57166,462.315976 725.95147,458.660403 745.747684,447.742077 L746.215185,447.480945 L763.626599,434.563853 C700.914265,429.71047 626.256288,384.619253 570.101397,312.733592 C568.696248,310.934815 567.308764,309.127038 565.93916,307.31065 Z M559.804925,49.1712669 L558.501713,50.0771166 L530.344948,72.4393562 C512.209994,107.663513 514.144777,160.533254 537.447905,217.525756 C539.284498,222.017516 537.670448,227.167764 533.638133,229.809292 L533.393301,229.964748 C533.213592,230.075303 533.040723,230.195425 532.873862,230.32581 C527.221393,234.742659 529.1124,250.568172 540.464356,265.100171 C548.716388,275.663861 559.408945,282.086844 567.177344,282.282694 L567.528421,282.287301 C570.787487,282.290132 573.84423,283.870975 575.734271,286.531086 C579.029141,291.168403 582.446483,295.753858 585.982474,300.280392 C648.17361,379.893244 733.172218,423.418442 792.229206,413.33337 L810.410679,399.830907 C810.776063,399.55969 811.151733,399.302744 811.53684,399.060634 L812.157968,398.679875 C812.798452,398.272729 813.86921,397.508681 815.227016,396.475782 L816.120916,395.789227 L820.090216,392.655659 C820.703922,392.168348 821.156107,391.808896 821.211828,391.765038 C856.744117,363.796754 860.650413,299.128619 830.017605,225.311712 C826.507689,216.85375 830.045087,207.218314 837.944784,202.967262 L838.104056,202.882551 L838.123744,202.760983 C838.226715,202.029325 838.24068,201.036915 838.113859,199.828287 L838.075742,199.493334 C837.447214,194.363102 834.673723,188.015952 830.129306,182.156015 C826.534749,177.520904 822.360698,173.8656 818.299951,171.603056 C816.590238,170.650448 814.99961,170.002809 813.634566,169.658529 C812.755879,169.436914 812.106888,169.370705 811.725876,169.392857 L811.628637,169.401039 C805.176153,170.133093 798.843097,167.259755 795.138954,161.919592 C791.403991,156.534996 787.502567,151.218178 783.440766,145.980565 C712.063862,53.9414527 612.339078,13.7335503 559.804925,49.1712669 Z M566.267166,69.6396814 C617.649769,31.8120553 709.522779,70.0411305 774.292947,152.664734 C839.725443,236.133231 854.366522,335.40959 803.277419,375.190714 C752.209017,414.95572 659.131466,376.793451 593.707053,293.335266 C528.274557,209.866769 513.633478,110.59041 564.722581,70.809286 L564.722581,70.809286 Z M758.388846,165.103873 C698.921861,89.2452367 617.02438,55.6668539 577.141539,86.7220913 C549.197677,108.480905 547.168774,157.880777 568.936578,211.604601 C570.222856,210.080866 571.659378,208.693932 573.248778,207.456538 C594.867093,190.626153 636.581551,207.834063 666.420838,245.89137 C696.259758,283.948963 702.924045,328.444372 681.305782,345.274824 C681.026474,345.492271 680.743813,345.704037 680.457866,345.910149 C723.199261,372.646155 765.512896,379.013527 790.858461,359.277909 C830.720601,328.23879 817.847748,240.952197 758.388846,165.103873 Z M510.560227,247.938764 L470.021854,282.858693 C469.526032,284.592611 468.564624,286.19755 467.186718,287.47664 L466.957503,287.683031 C462.508844,291.568259 464.423372,305.380923 474.445888,318.140116 C480.502445,325.850435 488.032948,331.22033 494.577411,333.032503 L546.334273,296.48431 C538.607408,292.230665 531.204852,285.896388 524.981587,278.0591 L524.583279,277.553371 C517.273738,268.196195 512.451101,257.802212 510.560227,247.938764 Z M501.1857,95.5935365 L501.385718,95.4396093 C501.026564,95.7248505 500.656496,95.9959424 500.276362,96.2522798 L499.892906,96.5036765 C497.499178,98.0289431 495.177775,99.6691537 492.930581,101.42429 C490.160543,103.587785 487.532744,105.902879 485.048149,108.366129 L484.291851,109.1249 L482.588822,110.901708 L482.140958,111.386934 C467.383125,127.45919 458.16526,149.300164 455.169485,175.287832 L455.067506,176.196058 C454.860001,178.094539 454.348431,179.932185 453.564533,181.643196 C452.028924,206.399219 455.670715,233.474089 464.355963,261.024752 L515.544,216.932 L515.015631,215.529041 C498.798001,171.942653 494.138654,130.172512 501.1857,95.5935365 Z" id="Combined-Shape" fill="#000000" fill-rule="nonzero"></path>
    </g>
</svg>