<svg height="960" viewBox="0 0 960 960" width="960" xmlns="http://www.w3.org/2000/svg"><path d="m509.59051 1.11084796c65.922789 2.05225574 125.601982 28.90357334 169.725632 74.57038944 42.772203 44.2681036 68.218642 103.5454636 71.121178 166.6281076.219325 4.766735.306297 9.538917.260842 14.311031l-3.989631 418.861043c-.003752.393937-.006193.786953-.007319 1.179053-.186539 64.916246-26.089184 131.577614-70.324605 184.153476-22.197685 26.382986-48.481384 48.563843-77.496935 65.043234-30.802518 17.494299-64.193601 28.302372-98.761009 31.438057-33.098979 3.002481-65.616385-1.136391-96.119404-11.930041l.007108-.020085c-.325015-.060689-.647884-.179791-.970472-.303348-.445222-.170529-.886955-.339841-1.3252-.507937-2.320548-.841814-4.630289-1.730228-6.928683-2.664101-11.352095-4.397372-19.889663-7.808377-25.843047-10.332549-7.705432-3.267023-15.487141-6.913595-23.347558-10.937159-1.396905-.715043-2.739513-1.505453-4.00951-2.382032-38.389224-18.427802-70.722388-47.166568-93.755668-83.161016-24.641039-38.506916-37.826229-83.988791-37.826229-132.214966v-436.558281c0-52.319435 15.518963-102.058579 44.118381-143.743023 26.846359-39.1293108 64.265181-69.7139079 107.936166-87.8868118 1.769363-1.0707456 3.643233-2.0024172 5.603725-2.7896971 14.092187-5.6590363 27.556563-10.3498028 40.413817-14.0637338 7.886657-2.2781301 17.91393-4.872148 30.189512-7.81848745 7.179167-2.03940951 14.440279-3.73112117 21.763131-5.0684586.445385-.09780945.915274-.20336101 2.043008-.45772233 2.04709-.46172301 4.083451-.75871838 6.088687-.84617268 13.734022-2.10460789 27.584416-2.92992607 41.434083-2.49876928zm-17.396929 40.17277164-1.493148.0778919c-.008669.0005336-.017337.0010677-.026006.0016025l-3.380355.2383968c-.073027.0057952-.146047.0116317-.219061.0175094-2.258712.1818229-4.511917.4032138-6.758259.663396-.077752.009006-.154743.0179703-.231725.02698l-3.327506.418409c-.013993.0018813-.027985.0037641-.041976.0056484l-3.31591.4753731c-.101368.0154136-.20272.0309057-.304056.0464763-2.227306.3422399-4.446229.7222263-6.656857 1.1393603-.064163.0121124-.128218.0242323-.192265.0363833l-3.28196.6512208c-.011679.0024194-.023358.0048397-.035037.0072612l-3.279343.7086627c-.113067.0254271-.226111.0509519-.33913.0765741l-2.993366.7027706c-.195215.0474112-.390355.0951139-.58542.1431078l-2.604271.6592121c-1.656621.4311041-3.307577.8832487-4.952549 1.356221-92.30928 26.4374771-165.882148 117.1213921-165.882148 215.7612121v443.894972c0 89.446887 53.849881 168.258191 130.623109 197.634424.176998.067444.353589.134665.5303.201619l2.43783.90382c.05042.018283.100849.036544.151288.054783l.050383.019783c2.078581.752351 4.17339 1.468662 6.283828 2.148182.047692.015356.095353.030681.143022.045987l3.022324.941992c.047025.014216.094057.028414.141096.042593l3.00451.878011c.067678.019157.135371.038276.203079.057357l3.045102.830144c.045661.012029.091327.024042.137001.036037l3.058312.775289c.069948.017097.139911.034153.20989.05117l3.035381.710984c.073296.016516.146608.032988.219935.049416l3.102396.667053c.038988.008032.07798.016052.116977.024059l3.116034.611912c.083629.015676.167277.031295.250944.046857 5.426509 1.009364 10.934302 1.7816 16.514583 2.305634.037073.003481.07441.006976.111751.01046l3.267949.275818c.049335.003726.098675.007432.148021.01112l3.222334.212713c.08099.004642.161994.009232.243012.01377l3.160729.150213c.112385.004389.224797.008678.337235.012866l3.190531.091679c.065014.001316.130037.002598.195068.003846l3.307717.034456c.042658.00007.085319.000126.127984.000168l3.407375-.027348c.007328-.000125.014656-.00025.021984-.000376l3.411013-.089025c.065341-.002291.13069-.004615.196047-.006974l3.310126-.148153c.075945-.004057.1519-.008159.227865-.012308l3.354577-.212569c.028643-.002066.057288-.004138.085935-.006217l3.487203-.284702c118.097849-10.712914 209.873939-128.708002 210.196364-240.913273.001384-.481706.004381-.963407.008969-1.445093l.120403-12.635159c-10.023212 31.038068-26.204043 60.749178-47.40483 86.547721-18.654325 22.699837-40.709037 41.757234-64.995587 55.881762-25.659977 14.923283-53.404791 24.119829-82.081166 26.784424-6.68526.621191-13.338552.882182-19.943219.789266-24.28762.33047-47.993477-3.903957-70.337914-12.415332-25.873693-9.855729-49.475118-25.288552-69.446119-45.201023-40.167475-40.049754-63.417653-95.838446-63.417653-154.64182v-355.065736c0-29.599473 6.520922-59.049036 18.868043-86.742946 11.887517-26.663044 28.984294-51.238838 50.021946-72.088624 21.093145-20.9047835 45.761462-37.6819882 72.390936-49.0708529 19.921895-8.5201745 40.684934-13.9229959 61.708395-15.9584985zm91.78861 807.4485254.004844.009369c8.140673 15.746306 2.236071 35.110769-13.304699 43.637861-16.128281 8.849454-32.208079 14.721291-48.225973 17.57566-15.970302 2.845888-35.465185 3.653217-58.542677 2.468527-21.094064-1.08287-37.640966-18.500969-37.640966-39.622801 0-20.388936 16.743394-36.795244 37.121494-36.382087 19.025034.385724 34.065014.085352 45.051021-.885818 10.552643-.93286 22.272193-2.826512 35.147004-5.687305 16.189782-3.597382 32.774281 4.155787 40.389952 18.886594zm-36.405447-.954593c-12.247397 2.721381-23.590423 4.628969-34.037549 5.718147-5.503887 12.161281-16.316987 21.853954-30.465651 25.335139-10.454834 2.572343-22.130888 4.413399-35.028164 5.523168 3.595753 5.565683 9.725231 9.360663 16.810062 9.724365 21.784572 1.118318 39.930012.366873 54.378293-2.207793 13.979821-2.491187 28.179429-7.676438 42.612248-15.595606 6.801866-3.732127 9.385887-12.206564 5.823396-19.097403l-.004844-.009369c-3.786438-7.324014-12.034723-11.180046-20.087791-9.390648zm-297.577915-372.097029.001171 227.161482c0 53.534172 19.1034 100.844211 50.775583 135.886334-24.730323-37.946012-38.48235-83.247901-38.48235-130.336078l.000053-228.888238c-2.380755-.146659-4.814245-.66153-7.226535-1.521705-1.741727-.621065-3.440482-1.395823-5.067922-2.301795zm108.031008-10.063708-2.51612.008283c-11.798456.036355-24.005489.046448-36.62127.030297l-.000216 154.554882c0 103.119634 76.258351 190.811421 173.668688 192.258308 4.328398-.07363 8.69423-.304884 13.093843-.703613l1.698492-.170574c-1.019883-3.516563-.063698-7.465741 2.803793-10.125379-.195772.181581-.052958-.028864.23168-.614084.521291-1.071779 1.093609-2.60481 1.679222-4.564113 1.307418-4.374261 2.574275-10.498069 3.761227-18.296353 2.446262-16.071966 4.505478-38.896326 6.157446-68.392214.515037-9.195992.990244-19.03412 1.425599-29.514165-.449873-1.51088-.667097-3.116865-.612409-4.776984 1.008684-30.620166 1.75066-55.422932 2.225832-74.40142.473346-18.905571.831192-48.83204 1.072002-89.735043.009365-1.590722.266006-3.122151.733267-4.558063.064922-11.87461.107947-24.098759.129146-36.67285-35.41754 1.886321-87.378804 2.897243-155.983416 3.040236-5.508271.011456-10.329272-2.947558-12.946806-7.367151zm332.173842-21.484896-2.091935.321941c-1.754027 5.281248-6.390606 9.374694-12.278159 10.152237-52.193688 6.892985-95.13395 11.581111-128.872297 14.063103-.014431 9.79395-.042891 19.376302-.084517 28.748575 5.44532 2.274249 9.257316 7.666325 9.22062 13.933485-.242115 41.079635-.601896 71.167951-1.081146 90.309312-.477424 19.068444-1.221624 43.945569-2.232698 74.638253-.206641 6.272928-4.2363 11.519105-9.778163 13.575109-.328856 7.275589-.679169 14.224507-1.050056 20.846703-1.684383 30.074668-3.795607 53.475482-6.353872 70.283307-1.315312 8.641611-2.75924 15.621353-4.37113 21.014297-.671344 2.246134-1.381288 4.251671-2.146929 6.032463 96.736801-21.930427 169.003382-121.671537 169.338995-216.897031.001919-.5444.005829-1.088791.01182-1.633161l1.616409-146.92745c-3.301042.522843-6.583355 1.035796-9.846942 1.538857zm-265.574552 57.13818 7.346657.269302c36.234596 3.184212 64.536242 33.486105 64.536242 70.754735v55.487384c0 39.597401-31.958224 72.467448-71.481423 73.501066-39.747127 1.039474-72.004287-30.721383-72.004287-70.789472v-55.95164c0-39.911832 32.012038-72.716876 71.602811-73.271375zm.280088 19.998039-5.297205.345473c-26.129681 3.056778-46.585694 25.72002-46.585694 52.927863v55.95164c0 28.865442 23.029275 51.540393 51.481422 50.796308 28.676077-.749942 52.004288-24.743747 52.004288-53.507902v-55.487384c0-28.608351-23.085452-51.425406-51.602811-51.025998zm203.054917-36.584669 5.708552.211579c28.158358 2.470537 50.196971 25.787177 50.196971 54.4908v74.799856c0 30.470281-24.8469 55.666818-55.530778 56.416026-30.887284.754174-56.018973-23.660145-56.018973-54.465277v-75.269809c0-30.657618 24.901297-55.781492 55.644228-56.183175zm.261295 19.998293-3.66924.232668c-18.097385 2.068651-32.236283 17.487944-32.236283 35.952214v75.269809c0 19.547707 15.856531 34.951622 35.530779 34.471236 19.877652-.485352 36.018972-16.853808 36.018972-36.421985v-74.799856c0-19.42126-15.913176-34.96189-35.644228-34.704086zm-367.215262-186.155447c-.698245-.007525-1.413509.10979-2.078403.346878l-.782084.309391c-1.812462.787688-3.520765 2.022557-4.760542 3.426588-.593871.67255-1.021231 1.319254-1.260269 1.851982-.063016.14044-.104237.253465-.126876.333598l2.447084 128.077996c.029552.106296.087322.257924.177531.445629.279343.581255.755933 1.272126 1.401529 1.982339 1.509508 1.660595 3.618084 3.081091 5.75594 3.843408.072897.025994.144596.050606.213701.07237v-139.69123c0-.546794-.440595-.992387-.987611-.998949zm245.947422-257.9171439-1.659026.0904241c-99.426562 6.2738507-186.40633 100.5421238-186.40633 204.4449458l-.00022 180.510845c.004344.000001.00869.000003.013036.000009 15.116431.019373 29.641803.000958 43.575821-.055215 2.399381-1.644993 5.303374-2.60966 8.43326-2.616182 69.213352-.14423 121.267024-1.176396 156.056633-3.086637-.016055-14.611383-.059772-28.807458-.132236-42.590769-1.55798-2.382796-2.45482-5.236749-2.432856-8.298361.278518-38.822863.278518-68.73388.000928-89.703439-.277658-20.974674-1.085379-52.069613-2.423186-93.251024-.059784-1.84031.214534-3.613946.768302-5.262587-.245138-5.514561-.501063-10.87566-.767659-16.083018-1.657268-32.371116-3.725317-58.763165-6.196038-79.141224-2.410826-19.884054-5.196531-33.8781445-8.166534-41.6159627-.422098-1.0997007-.637013-2.2279729-.663895-3.3418052zm35.000309 123.0764129c.132412 2.586384.262201 5.21011.389368 7.871179 5.462321 2.097596 9.418402 7.307061 9.62033 13.522948 1.343525 41.35746 2.155657 72.62219 2.436375 93.827983.280785 21.210909.280785 51.30629.000928 90.315754-.039681 5.531133-3.068153 10.341547-7.54238 12.910305.056406 11.849864.09153 24.000122.105742 36.449298 32.735754-2.470858 74.398139-7.044207 124.937466-13.718708 2.457495-.32455 4.854487-.034606 7.036213.751179 7.019106-1.055023 14.130203-2.158609 21.33191-3.309518l1.809309-164.336554c.01042-.946802.014208-1.893561.011367-2.840207-.000188-.203558-.001076-.407579-.002265-.611595-.050306-8.276161-.606617-16.542068-1.66609-24.751947-11.351364-87.961933-79.241816-160.477459-172.633584-168.6471667 6.407086 20.4701162 11.011966 60.9733767 14.165311 122.5670497zm-117.066645 15.409803 7.326665.425074c36.131924 3.934257 64.29411 34.687985 64.29411 71.861326v55.487384c0 39.654018-32.046118 71.985404-71.627036 72.247697h-.110389c-39.647491.197979-71.748285-32.08544-71.748285-72.053805v-55.951641c0-39.968631 32.101276-72.235054 71.748866-72.016035zm203.312597 1.298423 5.690425.326955c28.06514 3.024222 49.975382 26.652615 49.975382 55.268445v80.067452c0 30.527582-24.935263 55.356674-55.676191 55.547273h-.12107c-30.783647.121392-55.75249-24.64284-55.75249-55.343954v-80.5705c0-30.716526 24.992923-55.46579 55.793141-55.295671zm-203.539712 18.701585c-28.510466-.157498-51.63782 23.088836-51.63782 52.016027v55.951641c0 28.93113 23.133448 52.196186 51.647956 52.053799h.078972c28.576703-.189363 51.758782-23.577804 51.758782-52.247691v-55.487384c0-28.672269-23.185815-52.0789-51.765044-52.286392zm203.337873 1.298421c-19.730305-.108974-35.682105 15.68731-35.682105 35.295665v80.5705c0 19.605302 15.947118 35.421738 35.673332 35.34395h.076917c19.7899-.122694 35.799502-16.064129 35.799502-35.547269v-80.067452c0-19.487285-16.015994-35.451862-35.809886-35.595394zm-378.002009 45.889908-.000908 34.634628c.728255-.321631 1.467439-.616665 2.215346-.883353l1.098999-.36432c2.579596-.791495 5.260368-1.17283 7.922956-1.144364.354519.004061.706906.01689 1.056954.038278l-.000114-34.067304c0-32.041105 7.054063-63.927886 20.414417-93.922141 11.668213-26.195365 27.975527-50.535866 47.897367-71.6943679-49.13071 38.3516829-80.605017 98.6875819-80.605017 167.4029439z"/></svg>