<svg height="960" viewBox="0 0 960 960" width="960" xmlns="http://www.w3.org/2000/svg"><path d="m284.391484 8.07386571 438.401547 18.20249129c.401318.0166627.802362.0393693 1.202996.0681121 26.778888 1.9212034 46.660957 24.3087473 46.660957 50.6206225v811.8864134c0 27.252091-21.28299 50.025862-48.986454 50.665786l.000881.030952-438.401547 12.457481c-.356693.016155-.713506.016155-1.070343.016155-20.384833.033476-38.344406-11.973062-46.644596-29.518149l-8.436026-2.521562c-21.800641-6.48939-37.448902-26.111421-38.415131-48.990963-.011868-.281028-.020771-.562174-.026709-.84339l-.011162-.528681c-.008913-.281411-.008913-.562876-.008913-.84435v-764.485982c0-21.091675 12.597085-40.0517448 31.581607-48.620832l11.191025-5.0738874c3.974873-23.1026789 23.610255-41.01368728 47.576581-42.47736731.179391-.01095583.358854-.0207025.538376-.02923934 1.623811-.07721717 3.234074-.07993127 4.846911-.01361024zm-13.757825 892.64318329c0 .225896.007333.452172.021987.678484.380605 5.878074 5.519503 10.636136 11.478049 10.626345l438.401547-12.457495c5.691524-.054384 10.121742-4.743563 10.121742-10.712878v-811.8864134c0-3.160339-1.244873-5.9788698-3.27353-7.9362247l-.19247-.1809632c-1.622808-1.4867377-3.715205-2.4379492-6.057329-2.6059807l-438.401547-18.2024912-.42808-.0084498-.429357.0007505c-.143275.0018551-.286678.0053507-.430123.0105942-5.970689.364644-10.810889 5.4163322-10.810889 11.2832614zm-20.000675-814.9113792-13.877149 6.2927911c-4.895642 2.209773-8.098851 7.0303377-8.098851 12.1903411v764.485982l.011163.528681c.23743 5.622159 4.240215 10.667513 9.862679 12.34115l12.102158 3.617055z"/></svg>