<svg height="960" viewBox="0 0 960 960" width="960" xmlns="http://www.w3.org/2000/svg"><path d="m289.235256 5.87203928 491.466095 30.92876582c21.07421 1.3262345 37.487705 18.8051269 37.487705 39.9210267v810.5598802c0 21.205054-16.547845 38.725324-37.718374 39.934874l-484.074542 27.656956c-16.235103.927571-32.489351-1.454296-47.775732-7.000965l-80.264026-29.123835c-15.821124-5.740701-26.356382-20.770783-26.356382-37.601219v-816.8661833c0-19.0171503 13.389386-35.4051865 32.024706-39.1968708l83.74778-17.03996204c10.346347-2.10514659 20.925276-2.83560931 31.46277-2.17246758zm-4.450834 48.03774182c-.023217.2774021-.034841.5556526-.034841.8340246v849.4134283c0 5.522848 4.477153 10 10 10 .137548 0 .275082-.002838.412513-.008512l46.057906-1.901603 436.969056-24.965407v-810.5598802l-488.281066-30.7290266c-2.820787 1.5640141-4.834366 4.4615065-5.123568 7.9169759zm-19.089053-6.6586688-83.695369 17.0302274v816.8661833l80.264026 29.123835c1.115518.404766 2.238767.784251 3.368884 1.13833-.577343-2.322382-.883329-4.751684-.883329-7.252454v-849.4134283c0-.8351158.034871-1.6698674.104522-2.5020736.143345-1.7127316.427904-3.379769.841266-4.9906198zm171.369496 662.7488877v142.821377c0 5.22455-4.021851 9.568576-9.230927 9.970382l-93.064866 7.178624c-5.808684.448056-10.769072-4.144444-10.769072-9.970383v-146.508055c0-5.376948 4.251881-9.791358 9.625048-9.992968l93.064865-3.491945c5.665898-.212594 10.374952 4.323083 10.374952 9.992968zm-20.000865 10.381-73.064 2.742v126.075l73.064-5.636zm141.936-525.381c74.114614 0 134 62.783066 134 140l-.000374.160387c.000282.032688.000407.065414.000374.098177l-.003.181555-.01492 1.872011c-1.181211 76.154187-60.608612 137.68787-133.98208 137.68787-2.62478 0-5.231713-.078745-7.818771-.234086-.701341.151614-1.431654.234086-2.181229.234086-74.114614 0-134-62.783066-134-140s59.885386-140 134-140c.749575 0 1.479888.082472 2.18236.238837 2.585927-.160092 5.19286-.238837 7.81764-.238837zm0 260c59.585702 0 108.652259-48.194353 113.591132-109.760588l-57.690518-.058198c-4.748668 22.710405-24.328119 39.818786-47.900614 39.818786-23.605738 0-43.207161-17.156668-47.920616-39.9149l-73.688625-.074011c4.83572 61.675361 53.949899 109.988911 113.609241 109.988911zm8-151c-15.930054 0-29 13.572637-29 30.5s13.069946 30.5 29 30.5c14.625027 0 26.839365-11.439923 28.742466-26.412976-.389592-1.06913-.60101-2.223113-.599805-3.426531.001315-1.311273.254956-2.563345.714947-3.710336-1.45828-15.478544-13.896579-27.450157-28.857608-27.450157zm-8-89c-59.666124 0-108.784689 48.324536-113.610888 110.009947l73.462175.074094c4.274177-23.337227 24.140419-41.084041 48.148713-41.084041 24.041201 0 43.928987 17.795497 48.1662 41.180033l57.462326.057984c-4.722814-61.794325-53.888887-110.238017-113.628526-110.238017z"/></svg>