<svg width="960" height="960" viewBox="0 0 960 960" fill="none" xmlns="http://www.w3.org/2000/svg">
<path d="M504.495 16.5723C728.575 17.9766 903.789 229.321 901.996 482.078C900.203 734.836 722.007 943.965 497.928 942.561C476.089 942.424 454.665 940.267 433.79 936.252L433.813 938.246L312.996 903.085L312.595 902.95C151.737 848.643 37.5912 676.827 39.0078 477.055C40.4099 279.35 154.577 110.485 313.562 56.3027L314.051 56.1357L423.2 25.1133L423.205 25.5723C449.482 19.5037 476.674 16.3979 504.495 16.5723ZM504.211 56.5713C501.379 56.5536 498.555 56.5763 495.739 56.6348C494.899 56.6525 494.059 56.6737 493.22 56.6982C492.251 56.7261 491.284 56.7581 490.317 56.7949C299.945 64.1402 142.065 246.341 140.427 477.306C138.782 709.211 295.34 893.931 486.649 902.272C489.713 902.405 492.787 902.495 495.871 902.537L498.212 902.562L500.514 902.567C501.28 902.567 502.046 902.563 502.812 902.557C504.343 902.544 505.873 902.519 507.4 902.483C511.983 902.376 516.547 902.167 521.092 901.859C524.879 901.603 528.652 901.277 532.411 900.883C533.915 900.725 535.416 900.556 536.915 900.377C544.408 899.48 551.84 898.313 559.204 896.882C559.94 896.739 560.676 896.593 561.411 896.444C562.881 896.148 564.349 895.841 565.813 895.523C570.207 894.571 574.575 893.524 578.915 892.386C581.809 891.627 584.69 890.827 587.559 889.986C591.862 888.726 596.137 887.374 600.382 885.934C603.212 884.973 606.028 883.973 608.83 882.934C609.531 882.674 610.231 882.411 610.93 882.146C611.629 881.882 612.327 881.615 613.024 881.346C613.721 881.076 614.417 880.805 615.112 880.53C616.503 879.981 617.891 879.423 619.274 878.854C620.658 878.286 622.038 877.709 623.414 877.122C624.102 876.828 624.789 876.532 625.476 876.233C626.848 875.637 628.216 875.031 629.581 874.415C630.264 874.107 630.945 873.797 631.626 873.484C632.987 872.859 634.345 872.225 635.698 871.581C638.405 870.293 641.096 868.968 643.771 867.605C644.441 867.265 645.108 866.921 645.775 866.576C648.442 865.196 651.093 863.779 653.728 862.325C656.362 860.872 658.979 859.381 661.58 857.855C663.53 856.711 665.471 855.547 667.402 854.363C669.333 853.179 671.254 851.975 673.165 850.751C684.63 843.408 695.732 835.357 706.424 826.645C708.206 825.193 709.976 823.722 711.735 822.233C712.908 821.241 714.076 820.241 715.238 819.232C716.4 818.224 717.557 817.208 718.709 816.184C719.861 815.159 721.007 814.127 722.148 813.087C723.29 812.047 724.425 810.998 725.556 809.942C726.686 808.887 727.811 807.823 728.931 806.752C730.05 805.68 731.165 804.602 732.273 803.515C735.599 800.254 738.874 796.924 742.099 793.527C743.173 792.395 744.242 791.255 745.306 790.108C745.837 789.535 746.368 788.959 746.896 788.382C747.954 787.227 749.006 786.066 750.052 784.896C756.326 777.881 762.388 770.601 768.226 763.072C771.144 759.308 774.007 755.481 776.812 751.594C777.746 750.298 778.674 748.995 779.596 747.686C780.517 746.376 781.433 745.061 782.342 743.738C787.794 735.803 793.008 727.63 797.973 719.232C798.8 717.833 799.621 716.427 800.435 715.015C800.841 714.309 801.246 713.602 801.649 712.893C802.456 711.475 803.255 710.05 804.047 708.62C804.443 707.905 804.838 707.188 805.23 706.47C806.015 705.034 806.793 703.592 807.563 702.144C809.49 698.523 811.372 694.864 813.208 691.17C813.942 689.692 814.669 688.209 815.389 686.72C815.748 685.975 816.106 685.229 816.462 684.481C817.174 682.987 817.878 681.486 818.575 679.979C822.06 672.448 825.357 664.775 828.457 656.97C829.077 655.409 829.69 653.842 830.294 652.271C833.014 645.198 835.572 638.018 837.966 630.738C838.764 628.312 839.543 625.874 840.304 623.426C843.346 613.631 846.091 603.661 848.522 593.53C848.928 591.842 849.324 590.149 849.712 588.451C850.1 586.754 850.479 585.052 850.85 583.346C851.035 582.493 851.218 581.638 851.398 580.783C854.11 567.955 856.325 554.884 858.017 541.597C858.129 540.711 858.24 539.824 858.348 538.936C858.456 538.048 858.562 537.159 858.665 536.27C858.975 533.601 859.265 530.924 859.533 528.238C859.712 526.448 859.88 524.654 860.04 522.856C860.2 521.059 860.35 519.257 860.49 517.452C861.193 508.428 861.655 499.316 861.87 490.123C861.913 488.284 861.947 486.443 861.97 484.598C861.981 483.675 861.99 482.751 861.996 481.827C862.003 480.903 862.007 479.98 862.009 479.058C862.015 475.367 861.981 471.689 861.907 468.023C861.889 467.107 861.868 466.192 861.845 465.277C861.798 463.448 861.742 461.621 861.676 459.798C861.444 453.417 861.091 447.076 860.622 440.777C860.488 438.978 860.345 437.182 860.191 435.39C859.502 427.324 858.62 419.329 857.551 411.413C857.194 408.774 856.818 406.145 856.42 403.523C856.022 400.902 855.604 398.29 855.165 395.687C854.726 393.083 854.267 390.489 853.788 387.904C853.149 384.458 852.475 381.028 851.765 377.615C851.41 375.909 851.046 374.207 850.674 372.509C849.929 369.113 849.148 365.735 848.333 362.375C847.926 360.695 847.51 359.019 847.085 357.348C844.962 348.992 842.624 340.749 840.08 332.628C839.571 331.004 839.055 329.385 838.529 327.771C837.741 325.349 836.935 322.938 836.11 320.539C835.56 318.939 835.003 317.345 834.437 315.755C832.456 310.192 830.376 304.692 828.201 299.257C827.58 297.704 826.95 296.156 826.312 294.613C825.357 292.3 824.384 289.999 823.394 287.71C822.733 286.184 822.065 284.663 821.39 283.148C820.714 281.634 820.032 280.124 819.341 278.62C818.65 277.116 817.952 275.618 817.246 274.126C816.187 271.887 815.112 269.661 814.02 267.448C813.292 265.973 812.556 264.504 811.813 263.04C810.328 260.112 808.812 257.208 807.269 254.328C806.497 252.888 805.718 251.454 804.932 250.026C803.359 247.17 801.758 244.339 800.129 241.531C799.314 240.128 798.493 238.73 797.665 237.339C793.937 231.078 790.068 224.944 786.063 218.941C785.174 217.608 784.277 216.281 783.374 214.96C782.471 213.639 781.561 212.325 780.645 211.018C779.728 209.71 778.805 208.409 777.876 207.115C776.017 204.527 774.134 201.965 772.224 199.432C771.269 198.165 770.307 196.905 769.339 195.652C767.887 193.773 766.422 191.908 764.942 190.06C759.024 182.666 752.882 175.526 746.53 168.652C741.766 163.497 736.885 158.491 731.891 153.642C730.226 152.025 728.549 150.426 726.859 148.845C718.975 141.464 710.823 134.466 702.426 127.873C700.026 125.989 697.608 124.138 695.169 122.32C694.559 121.866 693.948 121.414 693.336 120.964C692.112 120.064 690.882 119.172 689.648 118.289C683.478 113.873 677.188 109.668 670.786 105.685C668.865 104.489 666.935 103.314 664.994 102.158C663.053 101.003 661.103 99.8679 659.143 98.7529C657.182 97.6381 655.213 96.5438 653.233 95.4697C652.574 95.1117 651.913 94.7558 651.251 94.4023C646.618 91.928 641.934 89.5659 637.201 87.3184C631.116 84.4287 624.952 81.7278 618.713 79.2236C617.326 78.6671 615.936 78.1211 614.542 77.584C608.27 75.167 601.925 72.9465 595.512 70.9297C592.662 70.0333 589.798 69.1779 586.922 68.3623C586.203 68.1584 585.483 67.9566 584.763 67.7578C583.322 67.3602 581.877 66.9729 580.43 66.5957C578.982 66.2185 577.531 65.8518 576.077 65.4951C574.623 65.1385 573.167 64.792 571.707 64.4561C570.247 64.1201 568.784 63.7946 567.318 63.4795C565.12 63.007 562.915 62.5581 560.704 62.1328C558.492 61.7074 556.274 61.3055 554.05 60.9277C552.567 60.676 551.082 60.4345 549.594 60.2041C548.106 59.9737 546.615 59.7538 545.122 59.5449C543.629 59.336 542.132 59.1385 540.634 58.9512C531.643 57.8274 522.56 57.0936 513.398 56.7646C511.872 56.7098 510.343 56.6661 508.812 56.6338C507.28 56.6015 505.746 56.5809 504.211 56.5713ZM298.18 105.4C172.113 162.89 80.2193 306.354 79.0068 477.305C77.7857 649.5 168.942 794.925 295.589 853.18C189.942 774.532 120.156 636.718 120.414 480.045L120.427 477.18C121.537 320.662 192.286 183.541 298.18 105.4ZM539.685 230.893C659.988 231.647 754.239 345.153 753.274 481.146C752.31 617.138 656.458 729.454 536.154 728.7C415.851 727.946 321.601 614.439 322.565 478.446C323.53 342.454 419.381 230.139 539.685 230.893ZM539.543 250.892C433.018 250.224 343.471 350.678 342.564 478.572C341.658 606.466 429.771 708.032 536.296 708.7C642.821 709.368 732.368 608.914 733.275 481.021C734.182 353.127 646.068 251.559 539.543 250.892ZM557.403 386.332C603.971 386.624 638.94 430.217 638.584 480.427C638.228 530.637 602.643 573.788 556.075 573.496C509.508 573.204 474.539 529.61 474.896 479.4C475.252 429.19 510.836 386.04 557.403 386.332ZM557.261 406.332C524.472 406.127 495.193 437.415 494.895 479.526C494.596 521.638 523.428 553.291 556.218 553.497C589.007 553.702 618.286 522.413 618.585 480.302C618.883 438.19 590.05 406.538 557.261 406.332Z" fill="black"/>
</svg>
