<?xml version="1.0" encoding="UTF-8"?>
<svg width="960px" height="960px" viewBox="0 0 960 960" version="1.1" xmlns="http://www.w3.org/2000/svg" xmlns:xlink="http://www.w3.org/1999/xlink">
    <title>com.amazon.alexa/driver/dot4/assets/icon</title>
    <g id="com.amazon.alexa/driver/dot4/assets/icon" stroke="none" stroke-width="1" fill="none" fill-rule="evenodd">
        <path d="M480,30 C749.514958,30 968,248.485042 968,518 C968,667.739215 900.107387,806.370276 785.663207,898.434135 L785.663207,898.434135 L781.927799,901.439059 L777.23602,902.423968 C692.447969,920.222878 588.899881,930 480,930 C371.092951,930 267.541855,920.221615 182.757544,902.4199 L182.757544,902.4199 L178.066103,901.434863 L174.330967,898.430085 C59.8908817,806.367301 -8,667.737223 -8,518 C-8,248.485042 210.485042,30 480,30 Z M804.21478,827.20254 L802.525882,827.580298 C711.644943,847.814659 598.347718,859.15021 478.601356,859.15021 C359.605771,859.15021 247.035488,847.953098 156.545183,827.995545 C168.050416,839.988994 180.264287,851.390597 193.149004,862.139411 L193.149004,862.139411 L195.705,864.253 L198.328133,864.786182 C278.088505,880.869473 374.880304,889.814478 476.813911,890 L476.813911,890 L480,890 C584.126074,890 683.030222,880.857998 764.078518,864.300211 L764.078518,864.300211 L764.288,864.257 L766.845768,862.1431 C780.016493,851.155955 792.486274,839.486772 804.21478,827.20254 Z M919.469712,605.363463 L917.619497,607.009508 C803.386125,708.203886 666.887023,769.025302 508.490902,789.329205 C348.119638,809.886292 203.739192,783.970491 75.8511659,711.570038 C86.5922015,733.985087 99.1937803,755.468212 113.524119,775.80389 C206.947794,803.157746 337.983086,819.15021 478.601356,819.15021 C619.57325,819.15021 751.001256,803.085433 844.669348,775.513088 L847.20618,774.763697 C882.597663,724.23707 907.343952,666.676703 919.469712,605.363463 Z M480,70 C232.576432,70 32,270.576432 32,518 C32,568.884255 40.5332952,618.36159 56.6111023,664.789721 C187.017695,749.576089 336.153682,781.174676 504.676581,759.572677 C670.557734,738.30931 810.919546,671.165278 926.236757,557.954463 C927.286192,546.104069 927.87229,534.153601 927.981328,522.121738 L927.981328,522.121738 L928,518 C928,270.576432 727.423568,70 480,70 Z" id="Combined-Shape" fill="#000000" fill-rule="nonzero"></path>
        <path d="M475.184716,48.0005347 C486.336557,48.0179621 496.415626,48.4600128 503.751413,49.1671934 C507.445274,49.523287 510.436304,49.9449013 512.505664,50.4155482 C513.445611,50.6293259 514.183482,50.8479968 514.691593,51.0803575 L514.691593,51.0803575 L514.999458,60 L434,60 L434,51.1429509 C434.812267,50.886824 435.543516,50.6647962 436.474644,50.4480102 C438.531961,49.9690246 441.50628,49.5420441 445.180577,49.1820477 C452.523924,48.4625691 462.633258,48.0178345 473.820563,48.0005252 L473.820563,48.0005252 Z" id="Combined-Shape" stroke="#000000" stroke-width="2"></path>
    </g>
</svg>