<svg height="960" viewBox="0 0 960 960" width="960" xmlns="http://www.w3.org/2000/svg"><path d="m484.99901 4.92190057c154.099903 0 279.000544 125.22643843 279.000544 279.67504243 0 40.570118-7.460544 78.429446-22.526488 112.653946l-.015881.107666c-.085.629852-.178623 1.518445-.294852 2.81099l-.029536.331636c-.048694.551797-.265188 3.097734-.328458 3.818034-.151839 1.728591-.293798 3.213645-.456543 4.727508-.429876 3.998736-.964361 7.774297-1.689249 11.655947-1.861822 9.969733-4.840954 19.790899-9.355463 29.845364-2.644965 5.890719-5.950614 11.819651-10.423919 18.952013-1.725875 2.751782-3.58312 5.620602-6.064427 9.388372-.408218.619864-1.866514 2.825544-3.333004 5.044883l-.399372.604432c-1.127695 1.706823-2.203727 3.336462-2.74737 4.163521-12.042358 18.320347-20.203076 32.174971-28.628763 49.728621-11.83039 24.646835-21.857014 52.591502-30.141124 85.921341l-.279551 1.128684-10.154 53.014-.008814.277485c-.226535 5.905351-1.297085 13.091079-3.542645 20.521041l-.236505.769445c-3.711473 11.875454-9.894741 22.516645-19.108815 30.930057l-.274221.246972-.077122.201261-.465269 1.209326c-1.807272 4.704855-3.634195 9.544454-5.357441 14.224467l-.430724 1.172357-.140058.382368-.334285.915095c-.166405.4564-.330858.908786-.488646 1.344159l-.331471.916573c-.615742 1.706356-1.198218 3.341885-1.73732 4.879221l-.309426.88513c-.252931.725873-.496856 1.431908-.731413 2.117189-.314172.917883-.601269 1.764847-.864086 2.550159l-.254826.765103c-1.646262 4.968255-2.254726 7.333627-2.65279 9.841414l-.059444.385652c-.058019.387496-.112092.781624-.165193 1.192254-.006266.048429-.006266.048429-.015245.117571l-.038434.293546-.024238.181893-.046863.34378-.035204.25058-.01681.117143-.046701.317953-.099225.636152-.083766.490654.012643-.068033c-.984848 5.984505-1.771409 12.558378-2.854145 23.314918l-.044498.439115.015-.148-.008307.148119c-.028135.485765-.058153 1.002417-.093534 1.610138l-.021901.376043c-.074757 1.282499-.115112 1.97489-.149579 2.567454-.258789 4.4491-.420244 7.318676-.573814 10.267275-.296959 5.701738-.495906 10.508073-.607943 15.014222-.322214 11.293327-.322214 21.969848-.00216 31.941088.161023 5.016624-1.570091 9.910405-4.849721 13.709941l-36.015305 41.724665c-.540925.626675-1.120237 1.219161-1.734593 1.774038l-23.48152 21.208155c-.566175.511361-1.160796.989591-1.780853 1.432477l-.15177.104385-.113934.099118-.143528.123397-.339873.289013c-8.892249 7.496013-19.544918 10.867653-38.973069 11.903345l-.086596.003127-.068444.008942c-.770312.079705-1.553143.106518-2.34586.106518h-.165214c-.799271 0-1.588759-.027751-2.365707-.109153l-.049775-.006307-.026419-.000216c-19.22693-1.020977-29.866278-4.318934-38.777456-11.69675l-.32526-.271743-.3354-.285781c-.036613-.031454-.073217-.062976-.11029-.094984l-.076175-.066526-.153769-.106385c-.465043-.332164-.915778-.68421-1.350936-1.055203l-.429917-.377274-23.481521-21.208155c-.614356-.554877-1.193668-1.147363-1.734593-1.774038l-36.015304-41.724665c-3.27963-3.799536-5.010744-8.693317-4.849722-13.709941.320055-9.97124.320055-20.647761-.004131-32.014979-.110065-4.432258-.309012-9.238593-.605972-14.940331-.15357-2.948599-.315025-5.818175-.573813-10.267275-.034468-.592564-.074823-1.284955-.14958-2.567454-.045199-.775868-.081673-1.403263-.115434-1.986181l-.009308-.148119-.028497-.291115c-1.059199-10.522702-1.834959-17.042615-2.790192-22.923752l-.053311-.323133-.029469-.174856c-.035991-.213397-.071089-.430378-.106873-.660776l-.054389-.356888-.03696-.252239-.016811-.117143-.048166-.344464-.041318-.305146-.022031-.166171-.035794-.273745c-.006408-.049415-.006408-.049415-.012674-.097844-.053101-.41063-.107174-.804758-.165193-1.192254l-.059445-.385652c-.398064-2.507787-1.006527-4.873159-2.652789-9.841414l-.254827-.765103c-.262816-.785312-.549914-1.632276-.864086-2.550159-.234556-.685281-.478481-1.391316-.724831-2.098331l-.30956-.885572c-.54555-1.555752-1.128025-3.191281-1.739054-4.884587l-.331542-.916799c-.16243-.448197-.326884-.900583-.489088-1.345473l-.332594-.910498-.139135-.379901-.432542-1.177348c-1.728243-4.693596-3.555165-9.533195-5.362438-14.23805l-.465269-1.209326-.078122-.201261-.273221-.246972c-9.033405-8.248443-15.153695-18.638158-18.887638-30.232932l-.221177-.697125c-2.40723-7.702317-3.544803-15.181503-3.77915-21.290486l-.009814-.277485-10.154-53.014-.27855-1.128684c-8.150496-32.792261-17.987748-60.371665-29.570094-84.72617l-.57103-1.195171c-8.425688-17.55365-16.586406-31.408274-28.628763-49.728621-.543644-.827059-1.619676-2.456698-2.74737-4.163521l-.399373-.604432c-1.46649-2.219339-2.924785-4.425019-3.333003-5.044883-2.481308-3.76777-4.338552-6.63659-6.064427-9.388372-4.473306-7.132362-7.778955-13.061294-10.42392-18.952013-4.514509-10.054465-7.493641-19.875631-9.355463-29.845364-.724888-3.88165-1.259372-7.657211-1.689248-11.655947-.162745-1.513863-.304705-2.998917-.456543-4.727508-.063271-.7203-.279764-3.266237-.328459-3.818034-.130101-1.474286-.232305-2.460286-.324388-3.142626l-.014369-.104654c-14.896252-33.838598-22.35746-71.226871-22.528-111.274938v-1.38202c0-154.448604 124.900642-279.67504243 279.000545-279.67504243zm-39.562118 886.42073443 20.721662 18.713266.435243.318473c.295009.22208.583895.452352.866317.690563l.418739.363241.319163.284961.332887.294537c.08572.075252.161934.141508.162183.141994l.192932.164538c.467668.394236.486981.405207 1.458062.706587 2.60177.807473 7.075469 1.476536 13.887996 1.83808l.486478.024026.374121-.02436c6.575272-.349919 10.966794-.983653 13.612475-1.756266l.216442-.064702c1.015271-.310759 1.038822-.324064 1.439028-.661128l.197405-.16777c.069246-.059491.14546-.125747.177097-.153348l.322025-.284507.384108-.342642c.413805-.369133.842543-.720684 1.285056-1.053804l.434243-.318473 20.231545-18.268963c-10.827006 1.423308-23.254604 2.134963-37.282793 2.134963-15.418941 0-28.976412-.859756-40.672414-2.579266zm-49.643718-166.332888.81322 2.155183c.742381 1.978472 1.47777 3.95546 2.199244 5.914859l.444352 1.209506.15184.414582.342687.938115c.175178.480465.34846.957136.524422 1.442686l.3409.942672c.655231 1.815788 1.277916 3.564221 1.871433 5.256793l.203228.58401c26.80623 4.021358 63.390449 6.053748 109.636054 6.053748 5.522848 0 10 4.477152 10 10 0 5.522847-4.477152 10-10 10-42.197641 0-76.680033-1.666601-103.530237-5.030733.246839 1.38086.451333 2.752673.638433 4.199507.005229.040422.005229.040422.007753.05997l.028014.214489.009404.071393.020938.156012.034695.250362.010917.0696c.010792.071986.02097.136654.030863.196293l.014668.085972.036027.211813c.050232.305242.099916.610875.1491.917236l.146098.921603c.189365 1.209867.371758 2.436134.55009 3.699145 25.954771 3.307515 59.935079 4.977338 101.853237 4.977338 5.522848 0 10 4.477152 10 10 0 5.522847-4.477152 10-10 10-40.11479 0-73.257174-1.506136-99.498512-4.544982l.056878.560579c.028004.279566.050113.559692.066313.84019.043042.745237.087448 1.509787.14736 2.538207.074635 1.28042.11516 1.975707.149787 2.571028.122033 2.097986.223014 3.854711.31206 5.439564 25.54243 3.05387 58.490248 4.595414 98.766114 4.595414 5.522848 0 10 4.477152 10 10 0 5.522847-4.477152 10-10 10-39.287387 0-71.887026-1.444646-97.865951-4.358901l.020759.787363c.13858 4.857117.221435 9.617731.248424 14.276562 23.881047 3.258242 47.719378 4.887937 71.514608 4.887937 23.641004 0 46.427066-1.608638 68.358186-4.825913.021834-4.020337.086294-8.11236.192259-12.268725l.053936-1.995971c.120217-4.841031.333434-9.99212.647785-16.027794.006904-.132549.01382-.264888.020755-.397155l.04191-.793866c.140891-2.650813.295692-5.384792.524503-9.318515.034628-.595321.075152-1.290608.149788-2.571028.059912-1.02842.104317-1.79297.147359-2.538207.0162-.280498.03831-.560624.066314-.84019 1.096814-10.949749 1.924723-18.0668 2.961692-24.69208l.146098-.921603c.049184-.306361.098868-.611994.149101-.917236l.036026-.211813c.014537-.082771.029343-.174286.035791-.216551l.023657-.162314.045217-.324124.011611-.087114.030653-.23429c.005094-.039276.005094-.039276.010324-.079698.840954-6.503056 2.033312-11.490532 5.821468-22.558002.258864-.756297.52676-1.531715.810001-2.344542l.322456-.922405c.58707-1.674155 1.209755-3.422588 1.8697-5.251425l.340828-.942446c.171319-.472727.344601-.949398.52398-1.441373l.344378-.942712.152763-.41705.442533-1.204514c.965286-2.621544 1.957059-5.278659 2.957827-7.930356-5.982493.549063-12.457512 1.040067-19.410616 1.485396-14.269964.913955-29.529196 1.540406-44.784206 1.932839-5.335961.137267-10.291783.235536-14.741969.30129-1.560102.023051-2.946481.040395-4.143422.052838-.420553.004372-.787832.007821-1.099873.010448-.063388.00051-.114098.000917-.155769.001249l-.10153.000793c-.013614.000103-.025878.000193-.037246.000274l-7.37242-.000027-.033242-.000261-.097855-.000781c-.041145-.00033-.091856-.000737-.155243-.001247-.312041-.002627-.679321-.006076-1.099873-.010448-1.196941-.012443-2.58332-.029787-4.143423-.052838-4.450186-.065754-9.406007-.164023-14.741969-.30129-15.255009-.392433-30.514241-1.018884-44.784206-1.932839-7.487138-.479532-14.419933-1.012025-20.781257-1.611499zm304.669228-319.120474.801727-.158065c-43.326826 8.584596-113.470347 14.189757-216.969401 14.190693-102.26764-.000926-171.970747-5.474104-215.422593-13.887975.114596 1.060526.221804 1.941883.338578 2.775106l.050646.354311c.034216.234751.069396.467097.105912.700075l.059708.374298.062332.378157c.138138.825525.297137 1.697775.492487 2.743844 1.300032 6.961443 3.361028 13.755833 6.525656 20.803917.445669.992571.839751 1.863411 1.232321 2.694646l.168297.354058c.084249.176056.168756.350833.254016.525137l.171667.34822c.08648.174034.174041.348136.263175.523112l.180511.35136c2.255773 4.353728 5.66849 9.567651 17.633155 27.769803 12.940535 19.686768 21.940688 34.96652 31.264258 54.390771 13.221896 27.545829 24.310672 58.599696 33.325402 95.3077.082005.333924.155385.669907.220066 1.007614l10.573561 55.205286c.2375 1.240002.35705 2.499706.35705 3.762247 0 .257514.014496.707519.050141 1.273435.051649.819982.138398 1.73137.265131 2.706375.330289 2.541054.885044 5.173449 1.689152 7.746321 1.979066 6.332341 5.148274 11.371233 9.604229 14.737737.287268.217033.568623.441783.843758.674005l.109205.093285c9.145771 1.17995 20.381396 2.210225 33.140213 3.027395 13.985984.895767 29.000982 1.512192 44.020202 1.898559 5.260019.135313 10.143323.232144 14.523121.296858 1.530392.022612 2.887614.039591 4.055848.051736.407259.004234.761357.007559 1.06032.010076.099335.000798.165558.00133.209276.00169l.080147.000797 6.993583.000138c.005749-.000038.011343-.000076.017468-.00012l.088031-.000677.039543-.000314.112308-.000901c.02299-.000185.048309-.000389.076247-.000613.298962-.002517.653061-.005842 1.060319-.010076 1.168234-.012145 2.525457-.029124 4.055849-.051736 4.379798-.064714 9.263101-.161545 14.52312-.296858 15.019221-.386367 30.034219-1.002792 44.020203-1.898559 12.045157-.771462 22.732755-1.732856 31.586155-2.830895l.342262-.289785c.275135-.232222.55649-.456972.843758-.674005 4.455955-3.366504 7.625163-8.405396 9.60423-14.737737.804108-2.572872 1.358863-5.205267 1.689152-7.746321.126732-.975005.213481-1.886393.26513-2.706375.035646-.565916.050141-1.015921.050141-1.273435 0-1.262541.11955-2.522245.35705-3.762247l10.573561-55.205286c.064682-.337707.138061-.67369.220066-1.007614 9.01473-36.708004 20.103506-67.761871 33.325403-95.3077 9.323569-19.424251 18.323723-34.704003 31.264257-54.390771 11.964665-18.202152 15.377382-23.416075 17.633155-27.769803l.180511-.35136c.089134-.174976.176695-.349078.263176-.523112l.171667-.34822c.085259-.174304.169767-.349081.254015-.525137l.168298-.354058c.392569-.831235.786651-1.702075 1.232321-2.694646 3.164627-7.048084 5.225624-13.842474 6.525655-20.803917.195351-1.046069.354349-1.918319.492488-2.743844l.062331-.378157.059708-.374298c.036516-.232978.071697-.465324.105912-.700075l.050646-.354311c.122065-.87098.233679-1.794554.353007-2.919759zm-215.463392-360.9673724h-.677911c-131.985153 0-239.000545 107.2945354-239.000545 239.6750424 0 35.579061 6.524146 68.28791 19.569776 97.515968.657452 1.472986 1.155965 2.82806 1.55146 4.240191 1.514811-.456637 3.160334-.559501 4.820546-.230869 41.925474 8.298972 110.795359 13.798742 213.032393 13.799668 102.287588-.000925 171.172712-5.505527 213.08225-13.809308 1.891545-.374783 3.764122-.189399 5.446073.441267.403854-1.484677.918108-2.898135 1.606726-4.440949 13.04563-29.228058 19.569776-61.936907 19.569776-97.515968 0-132.380507-107.015391-239.6750424-239.000544-239.6750424z"/></svg>