<svg width="960" height="960" viewBox="0 0 960 960" fill="none" xmlns="http://www.w3.org/2000/svg">
<path d="M329.44 11.5103C447.156 7.76588 564.905 17.8676 680.267 41.6069L727.824 51.3931C802.896 66.8415 861.509 125.618 876.808 200.759C914.271 384.767 914.202 574.766 876.741 758.764C861.497 833.639 803.261 892.479 728.503 908.275L683.308 917.825C565.97 942.618 446.055 953.037 326.204 948.85C295.037 947.761 265.515 939.579 239.33 925.788L163.575 890.856C163.342 890.748 163.11 890.636 162.881 890.519C110.288 863.76 71.7852 812.661 62.8242 751.029L58.1768 719.062C35.1031 560.361 35.103 399.151 58.1768 240.45L62.4072 211.348C71.3708 149.698 109.432 98.4389 161.583 70.938L162.049 70.6997C162.205 70.6225 162.362 70.5472 162.521 70.4741L255.432 27.5269C256.803 26.8931 258.225 26.4245 259.67 26.1177C281.409 17.3919 304.932 12.2899 329.44 11.5103ZM378.646 50.7524C362.672 50.7371 346.692 50.9824 330.712 51.4907C309.843 52.1546 289.91 56.6967 271.631 64.4478C270.751 64.8208 269.852 65.123 268.942 65.3638C268.635 65.4992 268.327 65.6357 268.021 65.7729L264.38 67.4556C215.862 90.599 180.135 136.777 171.984 192.79L167.357 224.583C142.709 393.965 142.709 566.024 167.357 735.407L172.439 770.33C179.88 821.457 210.754 864.241 253.38 888.218L256.559 889.684L257.061 889.924C257.226 890.006 257.391 890.091 257.555 890.178C278.629 901.356 302.418 907.995 327.601 908.875C343.946 909.445 360.292 909.736 376.633 909.75C378.835 909.751 381.037 909.745 383.239 909.736L398.933 851.774C404.484 831.269 422.387 816.511 443.574 814.972L595.881 803.915C619.758 802.181 641.514 817.617 647.766 840.726L658.92 881.956C664.235 880.896 669.545 879.808 674.85 878.688L720.088 869.138C779.27 856.645 825.437 810.078 837.521 750.781C873.945 572.041 874.009 387.473 837.586 208.743C825.47 149.289 779.054 102.793 719.615 90.5728L672.014 80.7866C575.443 60.9326 477.155 50.8789 378.646 50.7524ZM628.46 845.95C624.709 832.084 611.655 822.823 597.329 823.863L445.022 834.919C432.31 835.842 421.568 844.698 418.237 857.001L404.022 909.502C482.919 908.04 561.584 900.093 639.224 885.738L628.46 845.95ZM179.811 106.547C138.851 128.318 109.036 168.65 101.991 217.104L97.7598 246.206C75.241 401.09 75.241 558.423 97.7598 713.307L102.408 745.273C109.428 793.552 139.511 833.62 180.7 854.705L188.883 858.478C170.143 834.323 157.307 805.222 152.648 773.209L147.566 738.287C122.64 566.994 122.64 392.995 147.566 221.703L152.192 189.91C157.022 156.724 170.485 126.617 190.136 101.774L179.811 106.547Z" fill="black"/>
</svg>
