<svg height="960" viewBox="0 0 960 960" width="960" xmlns="http://www.w3.org/2000/svg"><path d="m307.624095 3.35168814 387.897695 35.46243326c41.188877 3.7655748 72.716603 38.3071137 72.716603 79.6677606v725.937026c0 41.383018-31.560809 75.935492-72.774701 79.673051l-383.718105 34.798188c-11.764393 1.066875-23.616514.640533-35.273845-1.268865l-19.079362-3.125079c-37.572157-6.154084-65.153987-38.621183-65.153987-76.694004v-790.7090635c0-31.2381424 18.34895-59.5625524 46.857838-72.332238 21.484306-9.62323888 45.084557-13.55244645 68.527864-11.40920936zm-33.336454 77.69681176c-.108505 1.1988211-.162841 2.4019292-.162841 3.6056507v791.9411404c0 22.09139 17.90861 40 40 40 1.149625 0 2.298715-.049562 3.44407-.148546l374.113593-32.331904c20.679359-1.787166 36.55593-19.095014 36.55593-39.851454v-725.748315c0-20.6942044-15.784391-37.9717578-36.394349-39.8371596l-374.113593-33.8609214c-22.001456-1.9913459-41.451465 14.2300532-43.44281 36.2315089zm-6.699919-34.2761375-.680765.2055286c-3.894279 1.1834809-7.722005 2.614216-11.459324 4.2882342-14.120788 6.3249758-23.20924 20.3543901-23.20924 35.8270103v790.7090635c0 18.476944 13.38561 34.233401 31.619579 37.220011l4.862237.797312c-9.094272-10.517883-14.595409-24.228627-14.595409-39.224231v-791.9411404c0-1.8055823.081503-3.6102443.244261-5.408476 1.11959-12.3698269 5.918301-23.5216033 13.218661-32.4733122zm358.364802 443.0464346c5.522847 0 10 4.477152 10 10l.000051.333795c.513164-.028972 1.029275-.043603 1.547425-.043603 11.273219 0 21.581047 6.925789 21.581047 17.78126v185.018221c0 10.855471-10.307828 17.78126-21.581047 17.78126-.518824 0-1.035604-.014669-1.549428-.043716-.074297 5.232173-4.179273 9.533351-9.419979 9.836808l-179.953373 10.419976c-5.740485.332396-10.578069-4.233177-10.578069-9.983278v-231.100723c0-5.522848 4.477152-10 10-10zm-10.000373 20.000723h-159.953v210.504l159.953-9.261-.00087-7.108422c-.021445-.344325-.032328-.692902-.032328-1.045628v-185.018221c0-.352726.010883-.701303.032328-1.045628zm-194.864956 5.455604c5.522847 0 10 4.477152 10 10v179.877457c0 5.522847-4.477153 10-10 10-5.522848 0-10-4.477153-10-10v-179.877457c0-5.522848 4.477152-10 10-10zm216.412805 4.833865c-.509252 0-.978915.050774-1.384892.132657l-.162715.035612v180.243l.162715.036816c.338314.068235.720855.114868 1.133677.128516l.251215.00414c.509252 0 .978915-.050773 1.384892-.132656l.196061-.044085v-180.228l-.196061-.043343c-.338314-.068236-.720855-.114868-1.133677-.128517zm-190.92278-301.172747 179.953373 10.419977c5.289441.306278 9.421931 4.684977 9.421931 9.983277l.000051.0525c.513164-.028972 1.029275-.043603 1.547425-.043603 11.273219 0 21.581047 6.925789 21.581047 17.78126v185.018221c0 10.855471-10.307828 17.78126-21.581047 17.78126-.51815 0-1.034261-.014632-1.547425-.043603l-.000051.134712c0 5.522848-4.477153 10-10 10h-179.953373c-5.522848 0-10-4.477152-10-10v-231.100723c0-5.7501 4.837584-10.315673 10.578069-9.983278zm9.421931 20.579278v210.504h159.953l-.000864-6.825931c-.021449-.344354-.032334-.69296-.032334-1.045715v-185.018221c0-.352756.010885-.701362.032334-1.045716l.000864-7.307417zm-35.411956 4.860327c5.522847 0 10 4.477153 10 10v179.877457c0 5.522847-4.477153 10-10 10-5.522848 0-10-4.477153-10-10v-179.877457c0-5.522847 4.477152-10 10-10zm216.912805 14.972546c-.509252 0-.978915.050773-1.384892.132656l-.162715.035209v180.244l.162715.036219c.338314.068236.720855.114868 1.133677.128517l.251215.00414c.509252 0 .978915-.050774 1.384892-.132657l.196061-.044084v-180.228l-.196061-.043344c-.338314-.068236-.720855-.114868-1.133677-.128516z"/></svg>