<svg height="960" viewBox="0 0 960 960" width="960" xmlns="http://www.w3.org/2000/svg"><path d="m875.61785 8c31.691286 0 57.38215 25.6908638 57.38215 57.3821504v775.6089436c0 29.82764-22.852093 54.681573-52.574876 57.180428l-694.355961 58.375912c-8.074485.678839-16.201192-.360114-23.8452-3.048472l-94.8797379-33.368707c-22.9730477-8.079501-38.3442251-29.779558-38.3442251-54.131955v-800.6161496c0-31.6912866 25.6908638-57.3821504 57.3821504-57.3821504zm0 40-682.55496-.0003987c-2.993319 1.4894213-5.053613 4.5757448-5.062859 8.14672l-.000031 849.1852927c0 5.037039 4.083326 9.120365 9.120365 9.120365.236468 0 .472847-.009197.708601-.027569l157.39409-12.265713c.223036-.017382.444932-.027306.665443-.029982l521.185566-43.816576c9.003599-.756951 15.925935-8.285683 15.925935-17.321045v-775.6089436c0-9.5998966-7.782254-17.3821504-17.38215-17.3821504zm-706.456183-.000085-82.7795166.000085c-9.5998966 0-17.3821504 7.7822538-17.3821504 17.3821504v800.6161496c0 7.376806 4.6562235 13.950169 11.6151988 16.397604l88.5581482 31.145597c-.763679-2.603841-1.173347-5.359022-1.173347-8.209887v-849.2370768c.007293-2.8099104.412325-5.5258361 1.161667-8.0946222z"/></svg>