<svg height="960" viewBox="0 0 960 960" width="960" xmlns="http://www.w3.org/2000/svg"><path d="m207.833666-.0328943c2.048189.12183185 25.934911 1.87138736 75.073103 5.48730617l.061759.00454463.084512.00621896c.016252.00119596.035754.0026311.061758.00454463 4.333328.31887761 12.367128.91025993 20.650212 1.52002858l1.243901.09157143.622544.04582958 1.866122.13737831c11.178294.82291529 21.867437 1.60987004 23.576211 1.73563773 15.558474 1.14512108 23.563452 1.73309908 25.769074 1.89219058 5.41114.3903052 10.326362 1.1952102 15.260917 2.7512811 7.607831 2.3990662 14.595965 6.4201265 20.467706 12.5823809 6.065128 6.3652106 9.789141 13.8271265 11.633839 21.7490152.064799.2782748.126955.5547213.186554.8295569l.025287.1224123.571693.0073952c3.590891.0476716 7.923456.1423068 12.48425.2717488 37.593008-28.7690082 82.27827-39.47262571 133.453855-31.5827856 21.117558 3.2557352 37.455617 8.9410355 49.08646 17.5354601 13.200645 9.7544049 20.147716 23.2263753 19.913157 39.1032178-.359713 24.348231-17.564644 53.241765-51.004159 88.347443 2.009194 1.762279 3.893059 3.710727 5.633456 5.846436 5.523806 6.778483 8.807515 14.37381 10.53759 22.552244 1.142168 5.399275 1.576124 10.852091 1.576124 17.004513l-.000248.330491c-.000054.05874-.000118.124707-.00019.197786l-.000882.846663-.000223.206436-.000768.699971-.000142.12825-.00077.689916c-.000109.09734-.000221.196803-.000336.298365l-.000717.634398c-.000373.329621-.00077.677741-.001188 1.043762l-.000865.75573c-.000654.570873-.001355 1.179317-.002098 1.823443l-.000913.78996c-.012759 11.026898-.036909 31.448315-.061816 52.943631l-.001824 1.574624-.002076 1.794873-.002078 1.79783c-.000346.299825-.000692.599729-.001038.89969l-.005364 4.656028-.002651 2.30764c-.018084 15.755875-.035433 31.192562-.047912 43.076505-.038682 36.836897-.070216 71.776987-.093217 104.746713-.020316 29.122165-.033161 55.918099-.038201 80.046777l-.000667 3.428772c-.000103.568426-.000201 1.13533-.000294 1.700709l-.000864 6.295894-.000157 1.553687-.000174 16.546965c.000077.972313.000169 1.93902.000277 2.900088l.000838 5.698522.000247 1.289995.000861 3.826496c.000317 1.264591.000665 2.518247.001043 3.76089l.000797 2.470576c.007816 22.921216.026257 41.986264.055823 56.678145 2.159929.663052 4.312914 1.432316 6.455631 2.306131 27.324811 11.143246 46.49935 19.975632 58.32016 27.069331l-.35336.116058c8.905489-2.936092 16.311607-4.902042 22.860834-5.895149 21.960648-3.330055 44.005599-2.557862 65.89395 2.270373l1.014981.228194.834548-.06614c12.07523-.925975 24.5667-1.424521 37.267924-1.477057l2.243528-.004637c39.655947 0 77.166838 4.348396 106.032462 12.259715 15.940805 4.368962 29.399106 9.828766 40.110504 16.769579 7.150514 4.633418 13.270684 10.026363 18.166215 16.583274 6.724581 9.006679 10.690819 19.710605 10.690819 31.387432v162c0 1.067007-.041881 2.124619-.124119 3.171237l-.017881.198597-.013796.199259c-.755911 9.886671-4.218613 19.059193-9.726657 27.10717l-.37871.546978c-4.704638 6.71729-10.660064 12.414105-17.648262 17.374167-10.827584 7.68517-24.461617 13.79626-40.532295 18.681863-29.157633 8.864133-66.809261 13.720729-106.55828 13.720729-39.637531 0-77.190578-4.829447-106.314254-13.646696-16.028374-4.852622-29.642062-10.920652-40.471676-18.540606-6.967231-4.902297-12.918152-10.527313-17.645369-17.154365-5.880389-8.243677-9.598989-17.716754-10.404958-27.990709l-.012743-.17579-.016111-.182208c-.071469-.873034-.114917-1.754067-.129437-2.642204l-.005452-.667422v-162c0-.394015.005822-.788008.017463-1.18185l.018087-.611863c.011636-.393673.029086-.787153.052345-1.180311.52756-8.917936 3.180338-16.854668 7.434772-23.847159l.040333-.065983.06674-.508871c.823173-5.933252 2.595778-11.598563 5.179125-16.81672-8.165636-4.006877-18.976945-8.842063-32.279325-14.39451-.351176 5.340284-1.256247 10.429633-2.832427 15.354285-3.098687 9.681611-8.684057 18.151489-16.629108 24.517626-6.878798 5.51178-14.374223 8.647997-22.283108 10.241329-4.230119.852204-7.126897 1.101794-12.001877 1.326874-3.439554.158806-15.477459.792927-35.966147 1.894779l-.539708.028377.000922 159.384871c.000133.3308.000146.651277.000013.962159l-.000861.904589c-.00487 3.158133-.029858 5.282024-.108492 7.288952l-.028244.665903-.03019.620352c-.032116.621913-.070121 1.251577-.115026 1.916614-.444466 6.582543-1.476401 12.501678-3.719326 18.62387-7.072271 19.304169-23.568763 31.382839-44.158017 33.649974-5.972254.657619-31.644162 2.671358-73.437204 5.823532-.93623.070613-1.878584.141646-2.826917.213086-16.608147 1.251137-34.398853 2.578681-52.189037 3.897735-6.226152.461639-12.007701.889255-17.196597 1.272225-1.816425.134063-3.429137.252977-4.819626.355414-.769669.056693-.769669.056693-1.270799.093585-.362232.026659-.362232.026659-.437413.032189-1.516828.11777-3.038784.136526-4.558454.074764-.255887-.0104-.870514-.031116-1.750239-.053221-2.703523-.067934-5.530027-.084889-7.998235-.023328-.656113.016365-1.264476.037906-1.829386.064844-6.798972.321695-11.790434-.801155-16.930636-2.68629-2.282444-.837072-4.380929-1.789192-6.537511-2.894472-2.887214-1.47974-6.019465-3.318203-9.657298-5.617724-1.720267-1.087402-3.5915-2.303105-5.617867-3.649465l-1.02613-.684078c-5.022299-3.359113-10.954671-7.483592-17.855912-12.406701-19.762204-14.097678-47.935823-35.085561-84.636001-63.041684-9.931846-7.56552-15.761517-19.334605-15.761517-31.819742v-258.226802c0-11.031533 4.443412-20.948826 11.580967-28.149383l.297033-.294768-.848-211.047-.169536-.176564c-6.594022-7.009341-10.68741-16.398034-10.855105-26.741024l-.005359-.661473v-234.0032725c0-13.417406 6.727085-25.9410858 17.913714-33.3496024 19.499381-12.9137641 31.089276-20.6565442 32.992343-22.0171491.467036-.3339093.880324-.6280738 1.261295-.8966869l.549895-.38553036c.796523-.55487285 1.483683-1.01631921 2.305585-1.5460113 2.488578-1.6038165 4.992491-2.99576922 7.861754-4.24632472 7.446302-3.24543655 15.172092-4.49087239 23.167915-4.01525902zm708.165499 749.3901463.267833-.170864c-8.746812 5.667793-20.397869 10.39443-34.521059 14.26523-27.009821 7.402692-62.772099 11.548382-100.745939 11.548382s-73.736118-4.14569-100.745939-11.548382c-13.980677-3.831741-25.53886-8.502134-34.255388-14.093942l.001327 130.642324.013-.000166.005086.186444c1.192157 22.603285 61.169057 40.813722 134.981914 40.813722 74.015012 0 134.118178-18.310322 134.990385-40.999535zm-613.87916-79.114042.000411 230.507823c.000293 2.5121-.369942 4.937703-1.059044 7.225158 11.541708-.852444 34.063759-2.5201 57.911572-4.310032l1.685451-.126543c1.124934-.084485 2.252302-.169204 3.381096-.254086l1.694135-.127436 4.338312-.32673c.679719-.051237 1.359308-.102487 2.038547-.153733l2.036451-.153714c32.55945-2.458751 63.810407-4.873586 69.592969-5.510318 12.175163-1.340638 12.533012-10.1826 12.538358-23.605656l-.000024-.853836-.000077-.215344-.000997-181.404511-89.236854.033604c-1.611731.0006-3.134547-.380128-4.483133-1.056932-2.072155-.173752-4.268529-.647986-6.723361-1.387653-4.102087-1.236003-16.153422-5.297773-28.487957-9.526007l-1.542737-.529204c-8.744251-3.001556-17.470331-6.031038-23.453752-8.14334zm-104.555631-627.7180137-.112755.01048c-.468835.3240934-.965144.677557-1.500479 1.0602968-1.328517.9498284-5.152369 3.5336811-11.471555 7.751558l-.72604.484476c-.473593.3159364-.960401.6405272-1.460427.9737724l-1.539724 1.0256988c-5.08909 3.3886892-11.413167 7.5860863-18.972229 12.5921912v234.0032725h10.919021l1.077225 268.122876-11.996246-1.052664v258.226802c14.090683 10.733487 26.904305 20.424007 38.440865 29.071569 13.277294 9.07664 38.045176 25.823879 74.105225 50.105498.825589.556055 1.798358.853039 2.793744.852923 2.761424-.000322 4.999739-2.239159 4.999418-5.001748v-235.906106c0-6.415191 1.169877-10.95392 5.545911-14.355237 2.693979-2.093923 5.848515-2.867431 9.084947-2.65179 2.034196.135537 4.008155.640919 6.222105 1.463434 3.663607 1.361085 14.869317 5.276414 26.616988 9.318749l1.440724.49545 1.443284.495729 1.189981.408267c10.902345 3.73854 21.57763 7.346168 26.476077 8.898545l.073571.022971.001181-.040613c.003253-.240205.005431-.489928.006521-.749424l.000819-.396608-.000521-477.468355-.177592.053035c-5.975878 1.773489-16.445616 4.95297-26.782619 8.128815l-1.63038.501214c-13.29475 4.089641-25.963906 8.049877-28.087754 8.858379-5.071461 1.930593-9.141933 2.54696-13.411994.884756-5.93885-2.311813-8.312519-7.522856-8.312519-13.54958l.000767-1.120999.000134-.13969.000832-.807163.000199-.183325.000906-.806989c.000083-.072185.000167-.14561.000254-.220277l.000829-.705643.000928-.773313.000332-.272908.000698-.568653.000742-.599242.000388-.311145.00081-.645448c.00347-2.753867.008122-6.315494.014008-10.740667.000095-.07152.000195-.146542.000299-.224974l.000681-.510755.000328-.245087.000711-.532127c.000375-.279686.000776-.579445.001203-.897651l.000885-.66053c.004435-3.306792.011067-8.236206.01791-13.320295l.00164-1.218443.001642-1.219878c.00718-5.333595.014243-10.580175.018912-14.056838l.000963-.717296c.000309-.229659.000604-.449675.000885-.659434l.000852-.635475c.000134-.09983.000263-.196555.000389-.290085l.000698-.522071.000253-.188989.000843-.630914.000788-.590103.000226-.169487.000905-.678171c.000083-.062208.000169-.126976.00026-.195155l.000609-.456822c.000227-.170462.000482-.361384.000773-.57958.027415-20.582235.046433-35.622074.056567-45.129906l.000911-.8619341.000872-.8428533c.000423-.4133315.000827-.8145205.001211-1.203568l.000741-.7619066c.00012-.1242864.000237-.2472239.000352-.3688124l.000663-.7133443c.000106-.1161929.00021-.231037.000311-.3445323l.000857-.9850405.000738-.9122109.00022-.2878871.000899-1.3180715.000034-.2679301-.097225-.0755141c-.406806-.306101-.921914-.637687-1.515501-.9612651l-.259112-.1380885c-1.264782-.6589157-2.672494-1.1765233-3.942959-1.4569501-.958241-.2115105-1.632983-.2435508-1.736722-.222287-2.094386.4292988-11.745972 3.7081977-25.055311 8.4935525-5.137669 1.8472419-10.616921 3.842861-16.204079 5.8958844-3.729953 1.370586-6.705912 2.4710239-9.735601 3.5955775-1.717239.6374009-3.068305 1.0641215-4.394411 1.3403445-2.506566.522109-4.867273.531918-7.440354-.479936-3.482901-1.3696381-5.738282-4.1373176-6.731095-7.3886434-.504071-1.6507603-.645405-3.1500439-.645405-5.0143462v-44.4633079c0-.1107435-.000369-.2193488-.001095-.325818l-.00313-.2042026c-.953841-.0804317-1.967423-.1465182-2.926976-.1832932l-.357066-.0123872c-1.351515-.041814-2.512902-.0213693-3.347589.0556668zm583.435626 648.4748037c17.515634 0 34.01784 1.912994 46.502993 5.334851 6.56272 1.798672 11.989175 4.000093 16.087627 6.655823 5.75729 3.730632 9.436407 8.658317 9.436407 15.009326s-3.679117 11.278694-9.436407 15.009326c-4.098452 2.65573-9.524907 4.857151-16.087627 6.655823-12.485153 3.421857-28.987359 5.334851-46.502993 5.334851s-34.01784-1.912994-46.502993-5.334851c-6.56272-1.798672-11.989175-4.000093-16.087627-6.655823-5.75729-3.730632-9.436407-8.658317-9.436407-15.009326s3.679117-11.278694 9.436407-15.009326c4.098452-2.65573 9.524907-4.857151 16.087627-6.655823 12.485153-3.421857 28.987359-5.334851 46.502993-5.334851zm0 20c-15.833527 0-30.58712 1.710289-41.21647 4.623518-2.711489.743149-5.055338 1.541071-6.96448 2.346505l-.069077.029977.069077.029977c1.78982.755095 3.961708 1.503586 6.460401 2.206534l.504079.139971c10.62935 2.913229 25.382943 4.623518 41.21647 4.623518s30.58712-1.710289 41.21647-4.623518c2.711489-.743149 5.055338-1.541071 6.96448-2.346505l.068023-.029977-.068023-.029977c-1.78982-.755095-3.961708-1.503586-6.460401-2.206534l-.504079-.139971c-10.62935-2.913229-25.382943-4.623518-41.21647-4.623518zm-279.538353-522.399936-121.240258.016461.000854.196909.000283 478.942131c0 1.135515-.013732 2.202041-.04642 3.207809l150.095005-.056445c.248344-.011944.470696-.022449.667056-.031515l.242121-.011254.726527-.035498.483945-.02613c.303056-.017204.605621-.036128.907213-.057673l.451599-.034394c7.061727-.573158 13.453135-2.841918 12.920019-18.490392-.183417-5.383812-.255316-47.25181-.26655-103.317534l-.00063-3.559663c-.000091-.596354-.000176-1.194229-.000255-1.7936l-.000224-20.995644c.002748-27.591042.016753-57.482583.037033-87.491359l.005682-8.185478c.073857-103.677984.217196-206.386406.224642-218.117617l.000302-.746503c0-14.005443-3.411951-18.005419-14.738329-18.272953-4.315937-.101944-14.472475-.48183-30.469615-1.139658zm-19.461647 359.399936c2.209139 0 4 1.790861 4 4v23c0 2.209139-1.790861 4-4 4h-42c-2.209139 0-4-1.790861-4-4v-23c0-2.209139 1.790861-4 4-4zm-180.042835-464.5947476.000806.9368144-.000899 1.3194559-.000219.2881388-.000738.9129207-.000857.9856884-.000154.1713571-.000821.8871132-.000173.1834887-.000919.9477775c-.000384.389223-.000788.7905809-.001211 1.2040763l-.000872.8431744-.00091.8622391c-.010134 9.5110831-.029155 24.5525831-.056587 45.1473501l-.000367.275372c-.000058.043401-.000114.085604-.000169.126685l-.000846.634376c-.000091.06818-.000177.13295-.00026.19516l-.000905.67819-.000226.169491-.000788.590119-.000843.630931-.000124.092727-.000827.618353c-.000125.093532-.000255.19026-.000389.290092l-.000852.635487c-.000281.209763-.000576.429783-.000885.659446l-.000963.717305c-.004669 3.476707-.011732 8.723299-.018912 14.056877l-.001642 1.219874-.00164 1.218438c-.006843 5.084066-.013475 10.013433-.01791 13.32016l-.000885.660516c-.000427.3182-.000828.617952-.001202.897631l-.000712.532111-.000166.124325-.000843.631492-.000299.224964c-.005167 3.884539-.009385 7.105575-.012686 9.698033l-.001265.337208.038875-.011131c6.020692-1.936898 15.883453-5.00571 25.779549-8.047896l2.070469-.635954c12.410216-3.808673 24.453935-7.447884 28.587943-8.623143l.264811-.07496c2.423243-.682693 3.516966-.946708 5.186687-1.124692.416431-.04439.831022-.074774 1.243557-.090037.472002-.068228.955318-.10377 1.446932-.103838l89.199337-.012307.000996-9.781794c.005827-3.78351.148733-14.41222.297135-25.434969l.027858-2.069808c.003095-.230142.006189-.46028.009281-.690355l.018513-1.379239c.141565-10.561274.273073-20.743838.278714-24.869794l.000188-.265547c0-8.5494492-1.192689-12.6859121-12.133626-13.6546882-4.395451-.3891996-11.668013-.7277431-19.113625-.9891044l-1.277581-.0440438-1.277945-.0425019c-1.668602-.0545102-3.330382-.1049964-4.954957-.1511606-12.355466 12.7594489-23.76496 28.3168809-34.273107 46.7109329-4.109342 7.193224-13.271881 9.693204-20.465104 5.583862-7.193223-4.109341-9.693203-13.271881-5.583862-20.465104 6.903155-12.083671 14.234688-23.1480011 21.986314-33.1856689zm165.25282-28.5206547-.578152.239204c7.6972 3.2848831 14.480781 8.3769305 19.696775 15.340487 4.928553 6.5798111 7.675415 13.6705298 8.985387 21.1069138.74717 4.2414998.963855 7.9874488.963855 12.5435435l-.000602.575802c-.007971 3.955981-.095833 11.265631-.310345 27.214144-.001435.106698-.002392.177831-.003189.237104l-.002233.165953c-.000797.059264-.001754.130377-.00319.237046-.090566 6.729764-.157199 11.754548-.205086 15.552864l-.00404.230344.231306.010482c19.568614.816598 31.861217 1.287872 36.675168 1.407062l.220176.005329c2.149506.050772 4.240902.174166 6.297231.388519 33.853578-33.911379 50.516431-60.0499212 50.756807-76.3205179.088882-6.0162238-2.183465-10.4228278-7.745096-14.5325056-7.131433-5.2696581-19.09851-9.4339488-35.828946-12.0133128-29.09636-4.4858428-55.416936-2.0028963-79.145826 7.611539zm-243.039626-13.6360139.010735.3359547c.012955.5218156.019136 1.0584182.019136 1.610692l-.000225 34.3899794.586094-.2145079c.237713-.0874692.478316-.1759708.722049-.2655924l.740829-.2723125c5.627767-2.0679452 11.149269-4.0789525 16.335329-5.9435935 14.896002-5.3558373 24.27356-8.5416415 27.806161-9.2657397 3.543424-.7263165 7.599048-.4603311 11.596132.592151l83.657566 4.8446375.000336-5.4111375c0-7.1310568-1.524651-10.1279502-11.679361-10.860409-4.728032-.3410328-36.398868-2.6752848-69.293336-5.0962312l-2.036045-.1498432c-.339525-.0249867-.679125-.0499784-1.01877-.0749731l-4.245893-.3124361-3.180173-.2339831c-.721458-.0530784-1.442191-.1061011-2.161927-.159048l-2.155943-.1585927c-17.219249-1.2665983-33.707253-2.4778768-45.702694-3.3550147zm549.80261 639.8006772.61862-.008308-.995752.013752-.278672.003547-.381791.006677c-.345517.00558-.690685.011515-1.035499.017805l.702118-.012309-.888828.015827-1.182.023-.515.011-.64787.015171-.01213-.000171-.207.005-1.092785.027614c-.586304.015285-1.171514.031599-1.755607.048933l-1.748903.05506-.740635.025225-.57707.020168-.746269.027744-.293731.010256-.483.019-.312.012.293-.011.019-.001h.003l.408174-.015376.071826-.003624.877682-.031848-1.357682.050848-.022.001-.392273.015872.105273-.004872-.135.005-.049.002-.19.008-1.662383.071178-.764617.033822-.142.007.037-.002.105-.005.260599-.011306-.365599.016306-.098.005-.041.002-.732.034-.38.018-.429478.021642.142478-.007642.287-.014.171589-.007764-.458589.021764-.344.017-1.079.056-.759743.040231c-1.077518.058132-2.150434.119777-3.218584.18489l-.780673.047879-.037.002.034-.002-.034804.002752-.589196.036248-.25991.017839-.24509.015161-.526015.035343-.225985.014657-.043.003.032-.002-.564767.038257.442767-.030257-.904863.061984-.484137.033016-.169566.012685-.403434.028315.139623-.009599c-.618216.044042-1.23471.089255-1.849447.13563l.920824-.069031-.922711.069173-.493289.036827-.442807.034797-.029193.002203-.016.001h.001l.015-.001.031-.003-.046.004h-.003l-.128.01-.385.03-.397176.03213c-.297415.023731-.594406.047735-.890969.072011l.887145-.072141-.929164.075583c-.317888.026053-.635284.052418-.952183.079094l.957347-.079677-1.295017.108236c-.442985.03764-.884994.07589-1.326014.114744-40.82186 3.596449-73.167737 12.374268-86.728506 23.507934-.024709.020286-.049684.040852-.074595.061425l-.548868.463661-.065.056-.101.089-.50193.449483-.11507.106517-.014.013-.1749.163603.1889-.176603-.014.013-.470836.447658c-.423846.413117-.822177.829161-1.194498 1.247998l-.363632.419762-.107034.128582-.335.414-.058.074-.063.082.028645-.037509-.100645.131509.043-.056-.273.366-.066.091-.055.077-.068.098-.198.289-.064.096.011-.018-.072.111-.02.031-.275.441-.049061.082552c-.115103.194533-.224673.389574-.328662.585112l-.011277.021336-.252732.501188-.034268.072812.008493-.018668-.067493.145668.054-.116-.214.48-.023.052-.026.065-.177.459.027-.074-.042559.114011.013559-.035011-.037977.103421-.008023.023579-.157.477.033-.103-.036.113-.010093.035098-.004907.013902-.027.094-.005.018-.095.356.027663-.110958-.051725.204751.015062-.059793-.03.123.014938-.063207-.019938.082207-.018.08-.085.415-.022365.120355c-.035374.203147-.06477.406723-.088142.610715-.045005.392919-.067658.787073-.067658 1.182678 0 20.434536 60.441559 37 135 37s135-16.565464 135-37c0-20.23019-59.238772-36.668304-132.767528-36.995043l-2.232472-.004957-2.009523.004016c-.333836.001335-.66738.003002-1.000626.005l-.946894.006574-.681792.005662-.477.004-.16394.002525c-.376609.00397-.752823.008362-1.128636.013176l1.506101-.017011c-.70965.006942-1.417903.015386-2.124721.025319z"/></svg>