<svg height="960" viewBox="0 0 960 960" width="960" xmlns="http://www.w3.org/2000/svg"><path d="m480 2.18081181h3.641371c.603982 0 1.206511 0 1.807592.01206067l3.589164.02150297 3.554685.03234216c1.768766.01889075 3.5247.04186844 5.26795.06896641l3.469628.05969954c.575467.01086883 1.149535.02219795 1.72221.03398858l3.419377.07629184c.567124.01364163 1.132866.02774725 1.697231.04231809l3.369712.09301756c.558879.01643667 1.116393.03334102 1.672545.0507143l3.320633.1098767c1.652197.05776179 3.292246.11976616 4.920294.18604645l3.240139.13827171 3.208398.14973349c2.660511.12957011 5.288231.27114133 7.883836.42486807l3.099356.19031662 3.068788.20204521 3.03848.2138331 3.008434.22568028c.498916.03860394.996591.07770398 1.49303.11730136l1.485617.12028539 3.249937.27582656 1.509556.13417972 2.995877.27801259c29.804576 2.84464352 54.997795 7.62807892 76.871205 14.64404842 42.305416 13.5696038 73.123736 35.9656281 94.891136 69.4600199 20.39753 31.3865165 32.880617 72.4091135 40.037732 128.1065735l.215254 1.692299.36597 2.956985.179542 1.488849.352244 2.998982.343185 3.028117.168219 1.525269.329733 3.073526.161534 1.548484.316447 3.120982.307681 3.153755.150577 1.589453.148412 1.597987.290368 3.222032.141975 1.624274.139847 1.633262.273349 3.293949.329881 4.170027.3169 4.23012.123157 1.709272.240188 3.448696.232081 3.489657.224046 3.531528.216086 3.574308.208199 3.617999.249267 4.585323.237201 4.656786.091534 1.883123.177381 3.801855.169859 3.850094.162411 3.899241.155036 3.9493.147734 4.000266.140506 4.052144.133351 4.104931.126268 4.158626.11926 4.213233.112324 4.268749.105461 4.325173.098672 4.382509.091957 4.440754.085313 4.499908.078744 4.559971.072248 4.620946.065824 4.682829.059475 4.745622.077466 7.238159.043921 4.906584.054478 7.483867.028823 5.073232.022913 5.141483.023448 7.842184.01056 8.000866v11.678139l-.006878 16.931227-.0191 19.981818-.040781 22.339762-.039357 13.958067-.050097 13.253195-.061698 12.585363-.074161 11.954571-.042022 5.752314-.094469 11.077833-.080395 7.953161-.088979 7.666055-.097927 7.394575-.107237 7.138722-.076844 4.624723-.08125 4.522585-.130375 6.602498-.092739 4.287498-.097523 4.201564-.102415 4.120262-.107414 4.04359-.11252 3.971547-.178591 5.832368-.125758 3.811697-.131242 3.755859-.136832 3.704652-.142531 3.658074-.148338 3.616127-.154251 3.578809-.160273 3.546122-.251936 5.268021-.175797 3.48466-.182196 3.468177-.188702 3.456325-.195316 3.449102-.202036 3.44651-.315893 5.175033-.25234 3.963521c-4.786612 73.518838-14.43046 124.375715-32.196813 162.911206-19.654906 42.631791-49.817536 70.700898-93.966523 87.462326-39.934809 15.161491-91.841483 21.528339-166.278111 21.656065h-4.52524c-74.440988-.127737-126.408505-6.495086-166.426513-21.650181-44.244201-16.755583-74.5288-44.811624-94.318934-87.41639-17.913594-38.564898-27.68773-89.475736-32.576751-162.936405l-.146661-2.232994-.226124-3.543219-.325522-5.311897-.208071-3.546009-.201046-3.555163-.194136-3.568912-.187337-3.587255-.180652-3.61019-.17408-3.637721-.167621-3.669844-.161274-3.706561-.155041-3.747873-.14892-3.793777-.142912-3.844276-.137018-3.899369-.131235-3.959055-.125567-4.023335-.177968-6.165576-.111888-4.204133-.106615-4.28449-.101453-4.369443-.142751-6.723498-.089045-4.60192-.08428-4.70295-.079627-4.808575-.075087-4.918792-.104366-7.594894-.064232-5.214434-.088611-8.059891-.054082-5.538787-.073916-8.567953-.065606-8.893463-.057679-9.234476-.050131-9.590994-.05576-13.369371-.043925-14.067493-.032991-14.802364-.022962-15.573986-.018953-20.608563v-25.419343l.024958-7.794079.02012-5.11206.026018-5.04586.031985-4.980511.038023-4.916011.044132-4.852364.050309-4.789567.087203-7.068467.066063-4.636298.111162-6.842553.125853-6.710833.09218-4.40213.048601-2.179856.102264-4.317827.109075-4.262688.146027-5.25212.156916-5.168957.133463-4.076407.14059-4.025098.147786-3.97464.155053-3.925033.16239-3.876277.169796-3.828372.087698-1.896488.181039-3.75811.093359-1.861835.192439-3.689764.200127-3.645262.207885-3.601612.215713-3.558813.280757-4.389626.293235-4.325745.243666-3.415717.124882-1.693192.255908-3.357582.264157-3.319888.135194-1.646075.276663-3.264944.285089-3.229379.145725-1.601617.297858-3.177625.306458-3.144187.315128-3.111599.32387-3.079862.332681-3.048977.169667-1.513172.346029-3.004244.176381-1.491284.178635-1.484201.364073-2.947579.185455-1.46359c7.223527-56.528324 19.888265-98.094293 40.643199-129.8142228 21.897163-33.4656065 52.832637-55.8478033 95.23234-69.4124637 20.36579-6.5154946 43.590565-11.10555138 70.704994-14.00485933l2.973417-.30959232 3.004575-.29624582 3.199567-.29775256c14.477135-1.30684114 30.025381-2.16837142 46.787338-2.61706127l1.867441-.04815714 3.765026-.0861603c7.570413-.15882151 15.383702-.23680695 23.452385-.23680695zm0 39.99999999c-124.565323 0-184.849455 19.2863095-217.515541 69.2101462-10.163091 15.532332-18.187796 34.75103-24.389769 58.683213l-.558804 2.188666c-1.015299 4.036466-1.980232 8.204726-2.896261 12.509535l-.494811 2.361649-.485164 2.388905c-.080059.400431-.159719.802006-.23898 1.204726l-.470791 2.43011-.461276 2.457794c-.836982 4.531439-1.626255 9.203317-2.369281 14.020392l-.201498 1.317351-.434826 2.920683c-.400705 2.742319-.787069 5.530513-1.159347 8.365415l-.276572 2.134948-.268233 2.126659-.436077 3.581385-.339055 2.899308-.330408 2.930613-.161981 1.477308-.31756 2.979142-.385026 3.770991-.371895 3.824812-.14511 1.545361-.284011 3.117757-.275786 3.154504-.267625 3.192088-.259531 3.230508-.12675 1.629923-.247509 3.289708-.239577 3.330221-.116834 1.680564-.227798 3.392559-.220029 3.435166-.212322 3.478607-.103292 1.755856-.249925 4.438758-.238164 4.510233-.182148 3.660747-.174767 3.708374-.084636 1.872309-.163816 3.781385-.156598 3.831105-.149443 3.881661-.142354 3.933056-.13533 3.985286-.12837 4.038354-.121476 4.092259-.114646 4.147001-.159305 6.324972-.097856 4.287518-.091253 4.345188-.084716 4.403697-.078242 4.463042-.071835 4.523224-.09588 6.89951-.056099 4.677342-.049919 4.740453-.063431 7.230846-.03475 4.901895-.028797 4.967937-.032175 7.577562-.014197 5.136701-.010579 7.834634v24.007365l.028411 23.886689.035286 18.575231.028797 10.595368.034957 10.201157.041474 9.821767.066058 12.531148.03788 6.033509.085992 11.624847.073866 8.349029.082299 8.048692.059728 5.206261.097151 7.58107.106541 7.320261.11629 7.074272.083121 4.586842.087719 4.488493.140434 6.557945.15138 6.361364.107178 4.139019.170421 6.066671.120205 3.95628.125601 3.890871.131105 3.829853.136714 3.773227.142429 3.720993.148253 3.673151.15418 3.6297.160216 3.590642.166357 3.555975.172605 3.525699.178959 3.499817.185419 3.478325.191987 3.461226.098489 1.725573.202036 3.443811.315899 5.155614.219318 3.436746c4.546422 70.148733 13.518753 117.395084 29.084476 150.905417 29.691832 63.921425 87.77408 85.917572 226.730806 85.917572 138.879934 0 196.718282-21.958677 226.181917-85.865752 15.284944-33.153276 24.11699-79.760291 28.610908-148.828945l.241424-3.793752.208034-3.383011.201312-3.380489.194692-3.382532.188179-3.389139.18177-3.400309.260867-5.131393.247034-5.182198.157179-3.490632.224766-5.301105.14266-3.584165.137036-3.629565.131515-3.67953.126101-3.734058.12079-3.79315.115583-3.856807.110483-3.925028.105485-3.997811.100593-4.07516.141945-6.267752.08882-4.288498.084294-4.38182.079873-4.479707.111747-6.91308.069276-4.74439.096344-7.331499.087572-7.603088.079154-7.89008.093053-10.993163.060883-8.619631.069975-12.021806.057938-12.659807.036058-9.935507.038887-13.864164.035017-18.37287.024242-23.670818.006834-28.395091-.010146-7.784316-.013591-5.103337-.019128-5.035357-.024728-4.968219-.030393-4.901925-.03612-4.836473-.065062-7.133833-.05072-4.676534-.087262-6.897876-.06572-4.521864-.071832-4.461472-.078008-4.401923-.084247-4.343217-.13821-6.406597-.152609-6.279252-.109844-4.116825-.116404-4.062336-.123026-4.00869-.129714-3.955885-.136464-3.903926-.14328-3.852808-.150157-3.802535-.157101-3.753104-.164107-3.704516-.215084-4.563604-.226256-4.490651-.093658-1.776202-.192772-3.518598-.200098-3.474227-.207488-3.430699-.26985-4.228446-.281621-4.163397-.233856-3.28499-.241534-3.245255-.123666-1.607991-.25317-3.187236-.261007-3.14961-.268909-3.112827-.137437-1.542883-.28088-3.059234-.288942-3.024559-.297066-2.990728-.1516-1.48294-.309374-2.941561-.157789-1.458832-.159869-1.451006-.326007-2.878957-.33442-2.84892-.342896-2.819726-.368945-2.927328c-6.45598-50.28054-17.285117-85.886819-33.911546-111.470587-32.430215-49.9017022-92.464806-69.1579982-216.956627-69.1579982zm22.843173 824.0516602c8.836556 0 16 7.163444 16 16v1.594096c0 8.836556-7.163444 16-16 16h-46.736162c-8.836556 0-16-7.163444-16-16v-1.594096c0-8.836556 7.163444-16 16-16zm-22.843173-729.123616c118.58328 0 214.714022 96.130742 214.714022 214.714022s-96.130742 214.714022-214.714022 214.714022-214.714022-96.130742-214.714022-214.714022 96.130742-214.714022 214.714022-214.714022zm0 20c-107.537585 0-194.714022 87.176437-194.714022 194.714022s87.176437 194.714022 194.714022 194.714022 194.714022-87.176437 194.714022-194.714022-87.176437-194.714022-194.714022-194.714022z"/></svg>