<?xml version="1.0" encoding="utf-8"?>
<!-- Generator: Adobe Illustrator 21.0.0, SVG Export Plug-In . SVG Version: 6.00 Build 0)  -->
<svg version="1.1" id="Layer_1" xmlns="http://www.w3.org/2000/svg" xmlns:xlink="http://www.w3.org/1999/xlink" x="0px" y="0px"
	 viewBox="0 0 297.4 1417.3" style="enable-background:new 0 0 297.4 1417.3;" xml:space="preserve">
<g>
	<path d="M151.5,0h-5.6C65.4,0,0,65.4,0,145.9v473.9c0,18.3,14.9,33.2,33.2,33.2h8.9v670.5c0,41.4,25,77,60.7,92.5
		c10.5,4.6,22.3-3.2,22.3-14.7V812.6c0-13,10.5-23.6,23.6-23.6c13,0,23.6,10.5,23.6,23.6v588.7c0,11.5,11.8,19.3,22.3,14.7
		c35.7-15.5,60.7-51.1,60.7-92.5V652.9h8.9c18.3,0,33.2-14.9,33.2-33.2V145.9C297.4,65.4,231.9,0,151.5,0z M83.6,1358.7
		c-17.3,0-31.4-14.1-31.4-31.4s14.1-31.4,31.4-31.4s31.4,14.1,31.4,31.4S100.9,1358.7,83.6,1358.7z M212.9,1358.7
		c-17.3,0-31.4-14.1-31.4-31.4s14.1-31.4,31.4-31.4s31.4,14.1,31.4,31.4S230.2,1358.7,212.9,1358.7z M277.4,619.7
		c0,7.3-5.9,13.3-13.3,13.3h-231c-7.3,0-13.3-5.9-13.3-13.3V145.9c0-69.4,56.5-125.9,125.9-125.9h5.6c69.4,0,125.9,56.5,125.9,125.9
		V619.7z"/>
	<path d="M83.6,1299c-15.4,0-27.9,12.5-27.9,27.9c0,1,0.8,1.8,1.8,1.8c1,0,1.8-0.8,1.8-1.8c0-13.4,10.9-24.3,24.3-24.3
		c1,0,1.8-0.8,1.8-1.8S84.6,1299,83.6,1299z"/>
	<path d="M213.4,1299c-15.4,0-27.9,12.5-27.9,27.9c0,1,0.8,1.8,1.8,1.8s1.8-0.8,1.8-1.8c0-13.4,10.9-24.3,24.3-24.3
		c1,0,1.8-0.8,1.8-1.8S214.4,1299,213.4,1299z"/>
	<path d="M140.8,39.5C83.7,39.5,37.3,85.9,37.3,143c0,2,1.6,3.6,3.6,3.6c2,0,3.6-1.6,3.6-3.6c0-53.1,43.2-96.3,96.3-96.3
		c2,0,3.6-1.6,3.6-3.6C144.4,41.1,142.8,39.5,140.8,39.5z"/>
</g>
</svg>
