<?xml version="1.0" encoding="UTF-8"?>
<svg width="960px" height="960px" viewBox="0 0 960 960" version="1.1" xmlns="http://www.w3.org/2000/svg" xmlns:xlink="http://www.w3.org/1999/xlink">
    <!-- Generator: Sketch 60.1 (88133) - https://sketch.com -->
    <title>de.mueller-licht/remote</title>
    <desc>Created with Sketch.</desc>
    <g id="de.mueller-licht/remote" stroke="none" stroke-width="1" fill="none" fill-rule="evenodd">
        <path d="M577,0 C625.048773,0 664,38.9512268 664,87 L664,87 L664,872 C664,920.048773 625.048773,959 577,959 L577,959 L400,959 C351.951227,959 313,920.048773 313,872 L313,872 L313,87 C313,38.9512268 351.951227,0 400,0 L400,0 Z M577,30 L400,30 C368.519769,30 343,55.5197693 343,87 L343,87 L343,872 C343,903.480231 368.519769,929 400,929 L400,929 L577,929 C608.480231,929 634,903.480231 634,872 L634,872 L634,87 C634,55.5197693 608.480231,30 577,30 L577,30 Z M519,811 C530.045695,811 539,819.954305 539,831 L539,847 C539,858.045695 530.045695,867 519,867 L453,867 C441.954305,867 433,858.045695 433,847 L433,831 C433,819.954305 441.954305,811 453,811 L519,811 Z M519,821 L453,821 C447.57076,821 443.152068,825.326671 443.003842,830.720095 L443,831 L443,847 C443,852.42924 447.326671,856.847932 452.720095,856.996158 L453,857 L519,857 C524.42924,857 528.847932,852.673329 528.996158,847.279905 L529,847 L529,831 C529,825.57076 524.673329,821.152068 519.279905,821.003842 L519,821 Z M450,796 C452.209139,796 454,797.790861 454,800 C454,802.209139 452.209139,804 450,804 C447.790861,804 446,802.209139 446,800 C446,797.790861 447.790861,796 450,796 Z M486,796 C488.209139,796 490,797.790861 490,800 C490,802.209139 488.209139,804 486,804 C483.790861,804 482,802.209139 482,800 C482,797.790861 483.790861,796 486,796 Z M522,796 C524.209139,796 526,797.790861 526,800 C526,802.209139 524.209139,804 522,804 C519.790861,804 518,802.209139 518,800 C518,797.790861 519.790861,796 522,796 Z M498.083333,704 C510.187574,704 520,713.812426 520,725.916667 L520,725.916667 L520,750.083333 C520,762.187574 510.187574,772 498.083333,772 L498.083333,772 L473.916667,772 C461.812426,772 452,762.187574 452,750.083333 L452,750.083333 L452,725.916667 C452,713.812426 461.812426,704 473.916667,704 L473.916667,704 Z M578.083333,704 C590.187574,704 600,713.812426 600,725.916667 L600,725.916667 L600,750.083333 C600,762.187574 590.187574,772 578.083333,772 L578.083333,772 L553.916667,772 C541.812426,772 532,762.187574 532,750.083333 L532,750.083333 L532,725.916667 C532,713.812426 541.812426,704 553.916667,704 L553.916667,704 Z M418.083333,704 C430.187574,704 440,713.812426 440,725.916667 L440,725.916667 L440,750.083333 C440,762.187574 430.187574,772 418.083333,772 L418.083333,772 L393.916667,772 C381.812426,772 372,762.187574 372,750.083333 L372,750.083333 L372,725.916667 C372,713.812426 381.812426,704 393.916667,704 L393.916667,704 Z M498.083333,714 L473.916667,714 C467.335273,714 462,719.335273 462,725.916667 L462,725.916667 L462,750.083333 C462,756.664727 467.335273,762 473.916667,762 L473.916667,762 L498.083333,762 C504.664727,762 510,756.664727 510,750.083333 L510,750.083333 L510,725.916667 C510,719.335273 504.664727,714 498.083333,714 L498.083333,714 Z M578.083333,714 L553.916667,714 C547.335273,714 542,719.335273 542,725.916667 L542,725.916667 L542,750.083333 C542,756.664727 547.335273,762 553.916667,762 L553.916667,762 L578.083333,762 C584.664727,762 590,756.664727 590,750.083333 L590,750.083333 L590,725.916667 C590,719.335273 584.664727,714 578.083333,714 L578.083333,714 Z M418.083333,714 L393.916667,714 C387.335273,714 382,719.335273 382,725.916667 L382,725.916667 L382,750.083333 C382,756.664727 387.335273,762 393.916667,762 L393.916667,762 L418.083333,762 C424.664727,762 430,756.664727 430,750.083333 L430,750.083333 L430,725.916667 C430,719.335273 424.664727,714 418.083333,714 L418.083333,714 Z M498.083333,617 C510.187574,617 520,626.812426 520,638.916667 L520,638.916667 L520,663.083333 C520,675.187574 510.187574,685 498.083333,685 L498.083333,685 L473.916667,685 C461.812426,685 452,675.187574 452,663.083333 L452,663.083333 L452,638.916667 C452,626.812426 461.812426,617 473.916667,617 L473.916667,617 Z M578.083333,617 C590.187574,617 600,626.812426 600,638.916667 L600,638.916667 L600,663.083333 C600,675.187574 590.187574,685 578.083333,685 L578.083333,685 L553.916667,685 C541.812426,685 532,675.187574 532,663.083333 L532,663.083333 L532,638.916667 C532,626.812426 541.812426,617 553.916667,617 L553.916667,617 Z M418.083333,617 C430.187574,617 440,626.812426 440,638.916667 L440,638.916667 L440,663.083333 C440,675.187574 430.187574,685 418.083333,685 L418.083333,685 L393.916667,685 C381.812426,685 372,675.187574 372,663.083333 L372,663.083333 L372,638.916667 C372,626.812426 381.812426,617 393.916667,617 L393.916667,617 Z M498.083333,627 L473.916667,627 C467.335273,627 462,632.335273 462,638.916667 L462,638.916667 L462,663.083333 C462,669.664727 467.335273,675 473.916667,675 L473.916667,675 L498.083333,675 C504.664727,675 510,669.664727 510,663.083333 L510,663.083333 L510,638.916667 C510,632.335273 504.664727,627 498.083333,627 L498.083333,627 Z M578.083333,627 L553.916667,627 C547.335273,627 542,632.335273 542,638.916667 L542,638.916667 L542,663.083333 C542,669.664727 547.335273,675 553.916667,675 L553.916667,675 L578.083333,675 C584.664727,675 590,669.664727 590,663.083333 L590,663.083333 L590,638.916667 C590,632.335273 584.664727,627 578.083333,627 L578.083333,627 Z M418.083333,627 L393.916667,627 C387.335273,627 382,632.335273 382,638.916667 L382,638.916667 L382,663.083333 C382,669.664727 387.335273,675 393.916667,675 L393.916667,675 L418.083333,675 C424.664727,675 430,669.664727 430,663.083333 L430,663.083333 L430,638.916667 C430,632.335273 424.664727,627 418.083333,627 L418.083333,627 Z M498.083333,516 C510.187574,516 520,525.812426 520,537.916667 L520,537.916667 L520,562.083333 C520,574.187574 510.187574,584 498.083333,584 L498.083333,584 L473.916667,584 C461.812426,584 452,574.187574 452,562.083333 L452,562.083333 L452,537.916667 C452,525.812426 461.812426,516 473.916667,516 L473.916667,516 Z M578.083333,516 C590.187574,516 600,525.812426 600,537.916667 L600,537.916667 L600,562.083333 C600,574.187574 590.187574,584 578.083333,584 L578.083333,584 L553.916667,584 C541.812426,584 532,574.187574 532,562.083333 L532,562.083333 L532,537.916667 C532,525.812426 541.812426,516 553.916667,516 L553.916667,516 Z M498.083333,526 L473.916667,526 C467.335273,526 462,531.335273 462,537.916667 L462,537.916667 L462,562.083333 C462,568.664727 467.335273,574 473.916667,574 L473.916667,574 L498.083333,574 C504.664727,574 510,568.664727 510,562.083333 L510,562.083333 L510,537.916667 C510,531.335273 504.664727,526 498.083333,526 L498.083333,526 Z M578.083333,526 L553.916667,526 C547.335273,526 542,531.335273 542,537.916667 L542,537.916667 L542,562.083333 C542,568.664727 547.335273,574 553.916667,574 L553.916667,574 L578.083333,574 C584.664727,574 590,568.664727 590,562.083333 L590,562.083333 L590,537.916667 C590,531.335273 584.664727,526 578.083333,526 L578.083333,526 Z M436.974835,540.24951 C436.991598,540.398249 437,540.547812 437,540.697492 L437,548 C437,550.209139 435.209139,552 433,552 L370.944663,552 C368.766086,552 367,550.233914 367,548.055337 L367,547.685181 C367,545.649388 368.529033,543.938346 370.552018,543.710346 L432.552018,536.722658 C434.747258,536.475244 436.727421,538.054269 436.974835,540.24951 Z M498.083333,430 C510.187574,430 520,439.812426 520,451.916667 L520,451.916667 L520,476.083333 C520,488.187574 510.187574,498 498.083333,498 L498.083333,498 L473.916667,498 C461.812426,498 452,488.187574 452,476.083333 L452,476.083333 L452,451.916667 C452,439.812426 461.812426,430 473.916667,430 L473.916667,430 Z M578.083333,430 C590.187574,430 600,439.812426 600,451.916667 L600,451.916667 L600,476.083333 C600,488.187574 590.187574,498 578.083333,498 L578.083333,498 L553.916667,498 C541.812426,498 532,488.187574 532,476.083333 L532,476.083333 L532,451.916667 C532,439.812426 541.812426,430 553.916667,430 L553.916667,430 Z M498.083333,440 L473.916667,440 C467.335273,440 462,445.335273 462,451.916667 L462,451.916667 L462,476.083333 C462,482.664727 467.335273,488 473.916667,488 L473.916667,488 L498.083333,488 C504.664727,488 510,482.664727 510,476.083333 L510,476.083333 L510,451.916667 C510,445.335273 504.664727,440 498.083333,440 L498.083333,440 Z M578.083333,440 L553.916667,440 C547.335273,440 542,445.335273 542,451.916667 L542,451.916667 L542,476.083333 C542,482.664727 547.335273,488 553.916667,488 L553.916667,488 L578.083333,488 C584.664727,488 590,482.664727 590,476.083333 L590,476.083333 L590,451.916667 C590,445.335273 584.664727,440 578.083333,440 L578.083333,440 Z M434,456 C435.656854,456 437,457.343146 437,459 L437,464 C437,465.656854 435.656854,467 434,467 L370,467 C368.343146,467 367,465.656854 367,464 L367,459 C367,457.343146 368.343146,456 370,456 L434,456 Z M489,174 C547.542183,174 595,221.457817 595,280 C595,338.542183 547.542183,386 489,386 C430.457817,386 383,338.542183 383,280 C383,221.457817 430.457817,174 489,174 Z M489,227 C459.728908,227 436,250.728908 436,280 C436,309.271092 459.728908,333 489,333 C518.271092,333 542,309.271092 542,280 C542,250.728908 518.271092,227 489,227 Z M425,55 C439.359403,55 451,66.6405965 451,81 L451,81 L451,111 C451,125.359403 439.359403,137 425,137 L425,137 L395,137 C380.640597,137 369,125.359403 369,111 L369,111 L369,81 C369,66.6405965 380.640597,55 395,55 L395,55 Z M425,65 L395,65 C386.163444,65 379,72.163444 379,81 L379,81 L379,111 C379,119.836556 386.163444,127 395,127 L395,127 L425,127 C433.836556,127 441,119.836556 441,111 L441,111 L441,81 C441,72.163444 433.836556,65 425,65 L425,65 Z M572,84 C578.075132,84 583,88.9248678 583,95 C583,101.075132 578.075132,106 572,106 C565.924868,106 561,101.075132 561,95 C561,88.9248678 565.924868,84 572,84 Z" id="Combined-Shape" fill="#000000"></path>
    </g>
</svg>