<svg height="960" viewBox="0 0 960 960" width="960" xmlns="http://www.w3.org/2000/svg"><path d="m315.911167 109.754739c47.031816 5.774781 90.495424 25.419422 127.180899 56.469214l.364629.310351.589224-.037661c35.722634-2.220004 71.285838 2.967425 104.628953 15.582668l.381823.144993.333963.090879c1.829364.506869 3.643628 1.150138 5.430017 1.934397l.594413.266648c.072888.033399.137446.062981.199386.091363l.183678.084164c.421307.193051.983586.450698 3.443555 1.577904 1.60718.736441 2.635775 1.207763 3.621389 1.65939l.327681.15015c1.637793.750468 3.321505 1.521978 7.530785 3.450752 6.42872 2.945763 10.5431 4.831052 14.485558 6.637562l.655852.300524.982629.45026.657536.301295c5.385374 2.467683 11.224008 5.143058 22.918277 10.501598l.595281.272114.932477.133449c9.098085 1.320851 17.540646 3.22271 24.761708 5.655024l.860628.294421c6.405206 2.22547 12.095458 4.924795 17.318539 8.672996 3.806627 2.731722 7.271663 5.945907 10.300682 9.960786l.120966.163324 1.768017.809813c22.049019 10.103287 37.779408 17.311255 52.857815 24.220473l1.505878.690022 1.50279.688607 4.11631 1.886173c28.369103 12.999271 57.608963 26.39754 125.947747 57.711692l3.038443 1.39222.634915.26526c2.447859 1.038541 4.868265 2.141598 7.260895 3.30925l1.432242.708343.236201.119352.292747.148795.102544.051426.846666.431808.187474.096236c.553858.286159 1.10615.575833 1.656886.869026 51.667547 27.506134 82.757283 81.885586 89.7789 148.899367 6.570752 62.710762-8.209496 133.409644-42.061402 198.844495l-.09944.190954-1.912672 3.648887-.100354.190204c-34.150553 64.307283-83.105844 116.314945-137.695569 147.061343-56.23709 31.674239-115.72285 39.19734-166.661846 17.779551l-.535187-.229297-.419434-.139094c-1.846356-.631739-3.668866-1.406679-5.453491-2.329196l-.593453-.312977-3.911622-2.104733-1.175022-.606297-.11041-.057245-.330151-.173791c-1.018059-.541981-2.029273-1.095181-3.03356-1.659532l-206.315857-110.989135-1.031203.589705c-46.093829 26.131878-97.361128 37.404288-148.917877 31.478157l-1.819762-.216303c-152.751335-18.755505-255.0800975-180.21921-233.28544219-357.722433 21.79465529-177.503223 160.14542119-309.4151967 312.89675619-290.659691zm270.779885 396.137328c-64.561983 121.42343-51.538642 254.60972 29.088447 297.479903 3.472032 1.846112 7.012811 3.494637 10.615132 4.949472l-.609336-.359614c-80.930918-47.934528-92.846876-178.332216-31.001329-294.646773 63.107701-118.688324 181.319895-181.904061 266.774873-136.466843 8.389981 4.461031 16.088245 9.769505 23.090019 15.828341-9.72373-11.927176-21.429263-21.764953-35.069736-29.017722-80.627089-42.870183-198.326087 20.809805-262.88807 142.233236zm25.751866 16.812419c-58.529353 110.077702-46.094977 231.153024 27.772954 270.4293 42.045062 22.355756 94.930905 13.391668 143.48801-18.780137 36.196499-26.908985 69.660929-65.627347 94.963687-113.214914 17.426378-32.77425 29.200262-66.405485 35.517938-98.886337 10.691362-74.543987-11.025829-140.633227-62.016099-167.745235-73.867932-39.276276-181.197138 18.119621-239.72649 128.197323zm-154.071267-316.697736-3.354817.051098c-.010335.00024-.02067.000482-.031005.000723l.031412.000482c-77.475195 1.804414-154.601 44.887498-199.744125 120.111211-67.838592 113.042188-37.763314 255.859055 67.17503 318.990449 2.77616 1.670149 5.576902 3.267796 8.402675 4.786174-.017041.035172-.034083.070347-.051126.105523l222.064463 119.470435c-40.719045-67.61756-36.094446-174.728954 16.167942-273.02021 50.621264-95.204751 133.094716-157.984629 209.856529-165.517166-50.956065-23.288639-93.806735-42.877324-128.551628-58.76147-.989562 1.57379-2.164462 3.015026-3.483813 4.31386-2.416917 2.379334-5.135312 4.123489-8.151569 5.511751-4.020395 1.850425-8.701983 3.098771-14.104342 3.958832-9.288313 1.478709-21.053888 1.806804-33.365336.945904-12.311447-.8609-23.916858-2.823254-32.908982-5.580256-5.230086-1.603554-9.692377-3.491302-13.416117-5.88325-2.793694-1.794533-5.242894-3.900041-7.305151-6.59259-3.279932-4.282384-5.177355-9.591176-4.763841-15.504701s3.031312-10.906581 6.875317-14.690812c2.416917-2.379334 5.135312-4.123489 8.151569-5.51175 2.9845-1.373645 6.333362-2.415502 10.070958-3.213032l-.654279-.299471c-.173507-.079355-.345804-.158157-.51689-.236406-7.214968-3.750955-14.571435-7.038578-22.03677-9.872298-.049666-.018853-.099364-.037695-.149066-.056518l.149066.056518c-1.055209-.40054-2.112593-.792012-3.172061-1.174442l3.022995 1.117924c-1.079648-.408864-2.161568-.808239-3.24566-1.198155l.222665.080231c-1.102501-.397963-2.207258-.786135-3.314166-1.164545l3.091501 1.084314c-1.065318-.383163-2.132734-.757191-3.202154-1.122112l.110653.037798c-2.160141-.738471-4.328476-1.439766-6.504235-2.104108-.027098-.008293-.053763-.016428-.080429-.024559l.080429.024559c-1.082874-.330644-2.167588-.652134-3.254045-.964498l3.173616.939939c-1.090709-.332554-2.18328-.655825-3.277616-.96984l.104.029901c-1.092802-.314188-2.187368-.619143-3.283601-.914894l3.179601.884993c-1.08931-.312573-2.180369-.615975-3.273081-.910235l.09348.025242c-2.197075-.592745-4.400846-1.148516-6.610535-1.667537-.015145-.003647-.030479-.007248-.045814-.010846l.045814.010846c-1.103802-.259266-2.20908-.509362-3.315738-.750317l3.269924.739471c-1.099135-.257917-2.199732-.506742-3.301694-.746505l.03177.007034c-2.203304-.479728-4.412075-.923219-6.625547-1.330695-.021377-.00413-.042377-.007993-.063377-.011853-1.073753-.19713-2.148994-.386047-3.225252-.566509l3.225252.566509c-1.126937-.207112-2.255089-.404891-3.384354-.593366-2.184046-.364245-4.37238-.693942-6.564154-.989041-.020384-.003095-.04072-.00583-.061056-.008562l.061056.008562c-10.039369-1.351694-20.150917-1.977498-30.264291-1.897734zm-415.6553941 199.282454c-19.2917943 157.119056 69.5610441 297.319212 198.4583701 313.145813 44.21601 5.429044 87.400475-4.482366 125.836855-26.190654l-45.687042-24.578903c-.636213-.342262-1.246618-.714229-1.830372-1.113295l-.119077-.083174-1.076119-.595528c-1.541764-.861666-3.082213-1.74745-4.62169-2.657243l-1.539164-.917792c-114.689331-68.997633-147.369486-224.184135-74.013866-346.41957 40.050744-66.738084 103.823179-110.343198 172.264365-124.704693-28.758601-22.430304-62.410802-37.181756-99.352123-41.71758-128.897326-15.826602-249.0283429 98.713564-268.3201371 255.832619zm510.0728741-150.500525c-.362358 5.181959 17.473695 10.650526 39.83794 12.214386 17.832378 1.246962 33.159325-.365143 38.82245-3.696691.055626-.032727.110038-.065446.16352-.098328l-.16352.098328c.078044-.045912.154252-.09215.228606-.138712l-.065086.040384c.072101-.04433.142513-.088956.211219-.133876l-.146133.093492c.179952-.112691.349045-.227276.507012-.343715.03233-.023835.063679-.047354.094574-.070948l-.094574.070948c.064478-.047526.127102-.095362.187854-.143503l-.09328.072555c.062899-.048035.123921-.09638.183046-.145031l-.089766.072476c.0566-.044851.111576-.089968.164913-.135347l-.075147.062871c.058116-.047822.1144-.095941.168834-.144353l-.093687.081482c.062265-.052977.122297-.106312.180072-.160002l-.086385.07852c.051787-.046059.101901-.092384.150325-.138972l-.06394.060452c.050316-.046759.098919-.093786.145796-.141081l-.081856.080629c.055867-.05375.109486-.10785.160834-.162298l-.078978.081669c.045197-.0456.088789-.091449.130761-.137543l-.051783.055874c.111205-.117919.211755-.237466.301417-.358605l.106544-.152482c.018099-.02752.035642-.05512.052628-.082799.014916-.02431.029251-.048419.043163-.072589l-.043163.072589c.031795-.051808.061636-.103894.089507-.156254l-.046344.083665c.029479-.05121.05706-.102688.082728-.15443l-.036384.070765c.027369-.051417.052837-.103098.07639-.155041l-.040006.084276c.027295-.055023.052426-.110345.075373-.165962l-.035367.081686c.02183-.048146.042014-.096518.060539-.145112l-.025172.063426c.023524-.057016.044753-.114343.063666-.171978l-.038494.108552c.02084-.054668.039579-.109618.0562-.164847l-.017706.056295c.016598-.05058.031411-.101397.044426-.152449l-.02672.096154c.016668-.055387.031206-.111055.043593-.167002l-.016873.070848c.015539-.06095.028514-.122234.038901-.183849l-.022028.113001c.011858-.053553.021745-.107361.029647-.161421l-.007619.04842c.012023-.071321.020578-.143084.025626-.215284l-.000915-.006431.00634-.14911c-.000007-.150298-.015177-.300801-.045178-.451408-.003067-.015406-.00636-.031137-.009814-.046869l.009814.046869c-.009757-.04898-.021082-.097972-.033965-.146971l.024151.100102c-.012443-.056667-.026979-.113347-.043593-.170035l.019442.069933c-.013583-.051665-.028898-.103339-.045931-.155017l.026489.085084c-.014396-.049123-.030351-.098251-.047854-.147382l.021365.062298c-.015165-.04601-.031691-.092023-.04957-.138037l.028205.075739c-.019465-.054637-.040843-.109277-.06412-.163915l.035915.088176c-.019045-.049015-.039624-.09803-.061726-.147042l.025811.058866c-.01927-.045233-.039841-.090464-.061704-.135691l-.045504-.089954c-2.801334-4.231616-16.305106-8.347514-33.486659-10.155842l-.479098-.220632c-1.815512-.185194-3.671535-.345074-5.55984-.477118-22.364245-1.56386-40.787796 1.369189-41.150154 6.551148z"/></svg>