<svg height="960" viewBox="0 0 960 960" width="960" xmlns="http://www.w3.org/2000/svg"><path d="m789.369871 193.889291c14.58665-7.227722 29.957465-9.182483 44.728818-5.406857 11.467728 2.931204 20.491115 8.50368 28.804819 16.07917l.54121.496887.57259.534408.815448.774935.666041.64592.785493.782137.424038.432627 1.088482 1.137382 1.063345 1.139917.993895 1.084124.874304.96486 1.457848 1.626106 2.557222 2.887695 3.820776 4.36339 8.756869 10.097967 11.655812 13.523031 70.533861-39.46351c9.639489-5.393295 21.825969-1.951074 27.219263 7.688416 5.334025 9.53356 2.02566 21.558441-7.372879 27.039013l-.315537.180249-63.379708 35.459832 5.091709 5.858355 3.460241 3.932111 1.372043 1.525394.584114.622793.540046.535787c13.227037 13.221888 22.42595 33.840887 22.628738 51.524235l.003421.594941-.009639 1.187429-.042532 1.5872-.053021 1.226863-.050968.955932-.154757 2.401567-.197232 2.627129-.546039 6.510242-1.623069 18.120147-.796186 9.178354-.310819 3.920765-.11338 1.563386-.117621 1.822379-.055258 1.105568-.004463.447649c-.139041 10.975496-3.812652 21.099442-10.041049 29.715801l-.376762.515167-.375427.501716c-4.960472 6.554948-11.156158 11.918844-18.465362 16.581401-.40964.261311-.82399.515124-1.242843.761317l-.63163.363557-57.32456 32.301994-182.53431 102.831306-123.736613 69.67654-79.155213 44.552641-78.181196 43.981454-38.475146 21.632493-54.213049 30.460869-34.739645 19.500727-20.347021 11.411228-26.309913 14.737711-11.263284 6.299983-10.004082 5.588472-11.382494 6.345887-7.071517 3.931398-5.817093 3.22256-3.181869 1.754971-3.729573 2.042946-1.906314 1.030863-1.121319.593895c-20.621263 10.726408-41.299402 12.870982-60.344413 4.064438-8.151297-3.769216-14.8542709-9.042821-20.7016983-15.503836-3.5264614-3.896503-6.281986-7.627988-9.6073036-12.648915l-.4571101-.692801-68.0704458-104.178062c-2.9351436-4.491596-4.93536834-9.525842-5.88413036-14.802247l-.11311045-.66079-8.42099504-51.801792-.12398175-.796451c-1.89729427-12.638771-.47932008-24.992324 5.82454582-36.404681 6.23712398-11.291529 16.33467568-19.91435 26.57372018-25.763028l1.1860469-.664133 4.3144972-2.36094 7.8768815-4.292082 25.5112081-13.873124 75.1943147-40.837962 122.860509-66.676949 152.888445-82.932779 120.103797-65.121105 89.471224-48.490087 67.421006-36.518059 40.314779-21.817753 20.962093-11.331894 12.224814-6.599422 6.355629-3.425026 4.839885-2.601761 4.192479-2.237934.664592-.346317zm123.847828 153.560836c-1.666078 1.404024-3.164668 2.576933-4.764004 3.73207l-.883968.629594c-.598123.420265-1.216017.843309-1.86658 1.27939l-1.001957.665183-1.060634.692433-1.722129 1.106575c-.153615.097991-.309879.191766-.468618.281218l-164.416371 92.63771-98.300297 55.368777-110.162874 62.029248-68.716222 38.676239-86.179343 48.479973-44.943537 25.266644-46.026986 25.858029-33.963144 19.063241-28.899811 16.202673-20.217421 11.318227-13.644818 7.625724-8.758852 4.886104-9.712803 5.404268-5.810817 3.220558-4.54797 2.507087-2.330576 1.275118-2.234786 1.207134-.743472.392311c-13.271378 6.903273-24.665101 7.970418-34.465419 3.185018-5.259612-2.568217-9.038701-5.92725-13.167458-11.325526l-.638199-.846761-.645197-.879949c-.324595-.44844-.65237-.909703-.984157-1.38436l-.669173-.967337-.681354-1.00406-1.7898177-2.668521-18.9360117-28.572354-21.6040189-32.72169-10.1780311-15.455995-6.2509917-9.51513 6.1135552 37.602688 68.0478249 104.143486.470688.712643.473813.709474.717897 1.055976.728323 1.042949.492346.686315.498488.677907.251735.335473.508833.663328.516483.652299.392746.481356.397643.474121.53825.620142.207062.231857.418486.457119.424522.447939.430823.438301.43739.428202.44422.417644c.223863.206105.450386.408078.679719.605661l.462457.389234c.155431.127742.312155.253456.470216.377066l.478238.364436c6.350789 4.713261 14.856815 6.022918 28.2391-.795943l.671382-.346877 1.293325-.689536 2.599784-1.413897 2.606351-1.431311 4.964637-2.743036 4.013164-2.226069 7.074856-3.935174 8.340989-4.650457 13.090856-7.313271 19.5289-10.929797 28.077165-15.73846 33.141692-18.599592 38.20622-21.460724 58.819781-33.064948 67.823386-38.151404 97.440553-54.842086 160.051236-90.130869 202.081657-113.854793c7.042242-4.492261 10.632405-9.142049 10.770488-13.949362l.011065-.87119.020315-.683704.033034-.779671.062662-1.179902.130636-2.045675.139012-1.931217.128693-1.675977.297203-3.649174.339624-3.963715 1.663707-18.577703.609949-7.062203.201332-2.488316.169354-2.237712.132305-1.948251.065116-1.118836.048255-1.023012c-1.817138 2.009814-3.85999 3.95025-6.101724 5.839385zm-84.307856-118.39523c-5.619442-2.914234-12.62271-3.822652-21.650498.611525l-.648546.32639-1.53828.810173-3.37899 1.804787-4.962716 2.665511-6.477216 3.488645-7.92249 4.274191-19.903898 10.754666-24.854283 13.445786-53.74111 29.101157-74.098148 40.155128-105.152359 57.01497-133.137404 72.220055-96.382003 52.298827-135.334142 73.461078-64.7070892 35.14588-18.2696813 9.936098-2.9808598 1.62544-1.3109661.719497c-.5062039.283862-1.074393.626021-1.6823396 1.017279-.9075547 1.246069-1.6933538 2.930362-2.2407207 4.899466-.2637056.948658-.4491506 1.890813-.5522552 2.722755l-.0438481.389799 7.9359351 12.11248 13.79696 20.985247 20.4016978 30.928436 15.5223781 23.468188 10.541007 15.875054.12187.172843-.328758-.508453.548491.834934.530609.796674.513622.759362.497527.722999.482325.687587.468016.653123.454601.619607.442078.587042.430449.555426.523067.651268.508036.605204.396779.452243.389167.424899.192009.202491.379426.385661c1.19253 1.181218 2.304164 1.986815 3.462517 2.552428 3.176087 1.550852 7.522027 1.308837 14.372314-1.919498l.817551-.393654.417592-.207295.853118-.435797.52462-.276045 1.472685-.791292 3.267438-1.784834 4.537215-2.502128 3.730064-2.066484 6.652711-3.697176 10.84394-6.044493 16.725681-9.346793 20.247193-11.336125 18.73213-10.500593 32.32016-18.135934 37.383971-20.996558 65.564328-36.855002 67.831138-38.155998 76.813927-43.230623 120.273875-67.721031 150.541583-84.799831 111.313957-62.721559 1.223388-.785976.897182-.584768 1.241551-.825928.770128-.52571.733598-.513175.705236-.506978.685039-.507118.673011-.513594.669149-.526407.673453-.545557.670824-.558315c4.105339-3.459617 6.88799-6.873056 7.96892-9.836776.795812-2.181973.695859-4.128215-.749889-6.498251l-.303748-.319211-.679662-.732451-.787409-.862615-1.372456-1.525067-1.587422-1.784733-1.78591-2.024478-2.661491-3.03781-2.184965-2.506413-4.784135-5.512934-6.1314-7.095487-24.55499-28.497952-6.150655-7.113341-2.466361-2.843149-3.823393-4.390897-2.756286-3.146682-1.865165-2.115502-1.138074-1.282835-1.536853-1.718246-.903942-.999552-.801745-.875909-.694666-.746365-.582704-.610917-.46586-.469568-.408946-.396688-.415303-.395774-.421787-.394196-.638248-.580739-.433795-.383346-.440577-.379544-.447482-.375101-.454511-.370014-.461662-.364286-.468937-.357914-.476336-.3509-.483857-.343244-.491503-.334945-.499271-.326002-.252588-.159448-.511155-.311385-.519233-.300838-.262684-.146262zm-665.361475 477.284031 9.639876 12.587994-32.897382 18.714737-9.310165-13.195577zm-16.906988-23.86869 9.639875 12.587994-32.897381 18.714737-9.310166-13.195576zm-16.906989-22.874161 9.639875 12.587994-32.897381 18.714737-9.3101657-13.195577zm-16.906989-23.86869 9.639876 12.587994-32.8973819 18.714737-9.3101655-13.195577zm571.374579-310.47511c34.539032 0 62.952512 24.4603 62.952512 55.23738 0 5.358876-.861424 10.526243-2.466617 15.406325-.117508 1.379747-.615372 2.698136-1.424737 3.806014-8.913667 21.147633-32.124551 36.025041-59.061158 36.025041-18.881877 0-35.933063-7.310244-47.512104-18.9664 4.174488 7.492161 6.521294 15.932146 6.521294 24.892538 0 31.600974-29.189322 56.729173-64.685403 56.729173-16.948163 0-32.458552-5.728565-44.04041-15.155059 1.507052 4.801848 2.311237 9.868772 2.311237 15.114024 0 5.4714-.875024 10.748761-2.506304 15.735257-.147949.965755-.482769 1.892223-.980037 2.725398-8.748848 22.388523-32.981148 38.268518-61.199062 38.268518-17.420115 0-33.321266-6.05205-44.998769-15.95111 2.120607 5.614538 3.269596 11.629441 3.269596 17.899134 0 31.600974-29.189322 56.729173-64.685403 56.729173s-64.685403-25.128199-64.685403-56.729173 29.189322-56.729173 64.685403-56.729173c17.309762 0 33.119744 5.975617 44.776338 15.763449-.299392-.673168-.499597-1.391073-.590228-2.130147-1.599741-4.940661-2.456937-10.165951-2.456937-15.581326 0-31.600974 29.189322-56.729173 64.685403-56.729173 16.936007 0 32.436301 5.72035 44.015482 15.134782l-.002796-.058116-.1355-.440685c-1.400767-4.648337-2.148013-9.53879-2.148013-14.594946 0-31.600974 29.189322-56.729173 64.685403-56.729173 19.489296 0 37.077349 7.575178 48.976665 19.637712-.828027-1.496499-1.579429-3.03263-2.251777-4.603731-.928198-1.194323-1.484472-2.654318-1.573037-4.181266-1.580686-4.844915-2.42815-9.971785-2.42815-15.28706 0-30.77708 28.413481-55.23738 62.952512-55.23738zm-318.505365 218.878393c-21.162872 0-39.550402 11.222604-46.623083 27.295685 6.968713 15.834882 25.082928 27.321328 46.623083 27.321328 9.8375 0 18.96042-2.395839 26.633336-6.507517-3.570792-.499799-6.295726-3.166114-6.295726-6.380323 0-3.57021 3.361981-6.464437 7.509195-6.464437 4.147213 0 7.509194 2.894227 7.509194 6.464437 0 .155583-.006385.309882-.01894.462713 4.93613-4.204775 8.812969-9.276965 11.285825-14.896813-7.073113-16.072892-25.460418-27.295073-46.622884-27.295073zm-24.863219 26.313978c4.147214 0 7.509194 2.894227 7.509194 6.464437 0 3.570209-3.36198 6.464436-7.509194 6.464436-4.147213 0-7.509194-2.894227-7.509194-6.464436 0-3.57021 3.361981-6.464437 7.509194-6.464437zm24.863219-55.155311c-24.086697 0-43.889521 14.362913-48.613689 33.10746 12.00214-11.964514 29.543121-19.266127 48.613689-19.266127 19.070315 0 36.611124 7.301421 48.613554 19.265221-4.724033-18.743641-24.526858-33.106554-48.613554-33.106554zm106.414576-29.835863c-21.169169 0-39.55301 11.2284-46.622806 27.294791 6.967672 15.835291 25.082197 27.322221 46.622806 27.322221 9.124613 0 17.634459-2.061185 24.942689-5.640932-3.222881-.726604-5.599607-3.250551-5.599607-6.252378 0-3.57021 3.36198-6.464437 7.509194-6.464437 4.147213 0 7.509194 2.894227 7.509194 6.464437 0 .094665-.002363.188854-.007043.282527 5.404658-4.356878 9.633184-9.72267 12.268016-15.710154-7.069575-16.068754-25.454492-27.296075-46.622443-27.296075zm-25.857748 27.308506c4.147214 0 7.509195 2.894227 7.509195 6.464437s-3.361981 6.464437-7.509195 6.464437c-4.147213 0-7.509194-2.894227-7.509194-6.464437s3.361981-6.464437 7.509194-6.464437zm25.857748-56.14984c-24.08627 0-43.888819 14.362404-48.613438 33.106464 12.00101-11.961492 29.539975-19.26513 48.613438-19.26513 19.072663 0 36.612011 7.303073 48.612841 19.264509-4.724724-18.743948-24.526999-33.105843-48.612841-33.105843zm106.414576-27.846804c-21.177696 0-39.556556 11.236185-46.62254 27.293823 6.966755 15.835846 25.081544 27.323189 46.62254 27.323189 9.776013 0 18.84635-2.365983 26.489293-6.430621-3.979398-.163894-7.146211-2.992186-7.146211-6.457218 0-3.57021 3.36198-6.464437 7.509194-6.464437 4.147213 0 7.509194 2.894227 7.509194 6.464437 0 .487558-.062699.96251-.181535 1.419206 5.487722-4.38334 9.779192-9.800165 12.442441-15.852153-7.083276-16.094514-25.48164-27.296226-46.622376-27.296226zm-25.857748 26.313977c4.147214 0 7.509195 2.894227 7.509195 6.464437s-3.361981 6.464437-7.509195 6.464437c-4.147213 0-7.509194-2.894227-7.509194-6.464437s3.361981-6.464437 7.509194-6.464437zm25.857748-55.155311c-24.087124 0-43.890223 14.363422-48.61394 33.108457 11.997266-11.959503 29.534899-19.267123 48.61394-19.267123 19.059443 0 36.605586 7.293582 48.614889 19.266611-4.724666-18.744523-24.527766-33.107945-48.614889-33.107945zm105.676213-30.830391c-20.200722 0-37.775368 10.585831-44.76414 25.803268 6.8871 14.998517 24.20497 25.830158 44.76414 25.830158 6.010987 0 11.744897-.925923 17.022047-2.611193-1.190253-1.143585-1.913246-2.653844-1.913246-4.309474 0-3.57021 3.361981-6.464437 7.509194-6.464437 3.410045 0 6.289198 1.956771 7.204998 4.637149 6.650566-4.449981 11.847995-10.345802 14.941324-17.082175-6.990316-15.219456-24.565725-25.803296-44.764317-25.803296zm-29.0975 28.303035c4.147214 0 7.509195 2.894227 7.509195 6.464436 0 3.57021-3.361981 6.464437-7.509195 6.464437-4.147213 0-7.509194-2.894227-7.509194-6.464437 0-3.570209 3.361981-6.464436 7.509194-6.464436zm29.0975-57.144369c-23.414202 0-42.624365 14.048883-47.010901 32.301826 11.673644-11.473511 28.612008-18.460492 47.010901-18.460492 18.39784 0 35.336577 6.986231 47.010132 18.459902-4.385766-18.252353-23.595929-32.301236-47.010132-32.301236zm101.902679-64.176918c5.181428-2.877426 11.655294-1.715781 15.515858 2.742495l.207961.246444 9.339738 11.358578c4.384617 5.332379 3.616304 13.209561-1.716075 17.594178-.479863.394574-.988307.752687-1.521052 1.071443l-.404047.231642-39.488421 21.671554c-5.209124 2.858808-11.694697 1.650603-15.52816-2.850738l-.206444-.248789-9.087669-11.240822c-4.340231-5.368568-3.506599-13.239105 1.861969-17.579336.44858-.362656.92159-.693716 1.4156-.990868l.374391-.21647zm5.46034 14.124641-34.814 19.333 5.903 7.302 35.013-19.215z"/></svg>