<svg id="Layer_2" data-name="Layer 2" xmlns="http://www.w3.org/2000/svg" viewBox="0 0 1417.3 757.3"><title>PM10</title><path d="M1124,471.09a22.41,22.41,0,0,0,16.68-26.94c-19.12-81.23-78.28-148.48-155.89-178.25-38.6-153.73-179.06-264-338.75-264C485.44,1.9,344.73,113,306.84,267.9A253.45,253.45,0,0,0,149.27,502.32c0,136.57,106.2,247.13,242.26,252.84a22.83,22.83,0,0,0,3.31.24h38.8a22.4,22.4,0,0,0,0-44.81H397.3c-.58-.06-1.16-.1-1.75-.12-113-3.62-201.47-95.05-201.47-208.15a208.55,208.55,0,0,1,139.36-196.6A22.39,22.39,0,0,0,348,289.12C377,148.66,502.41,46.71,646.08,46.71,789,46.71,914.22,148,943.87,287.58a22.4,22.4,0,0,0,15,16.65c68.74,22.37,121.72,79.92,138.25,150.19A22.41,22.41,0,0,0,1124,471.09Z"/><path d="M599.91,531.18c-8.62-2.16-24.06-3.2-47.18-3.2H514.14a9.87,9.87,0,0,0-9.87,9.87V731.61a9.87,9.87,0,0,0,9.87,9.87H533.5a9.87,9.87,0,0,0,9.87-9.87V651.38h4c25,0,41.92-1.12,51.58-3.43,14.12-3.4,25.44-10.23,33.65-20.29s12.5-23,12.5-38.18-4.31-28-12.82-38.25A59.5,59.5,0,0,0,599.91,531.18Zm-33.49,81.9-23.05-.28V566.68h24.38c14.64,0,21.48,1.48,24.63,2.73a19.26,19.26,0,0,1,9.26,7.72,22.07,22.07,0,0,1,3.66,12.42,22.51,22.51,0,0,1-3.66,12.68,20.07,20.07,0,0,1-9.85,7.91C588.4,611.48,581.21,613.07,566.42,613.08Z"/><path d="M855.86,528h-3.1a9.87,9.87,0,0,0-8.86,5.52l-69.2,141L704.82,533.46A9.87,9.87,0,0,0,696,528h-3.14a9.86,9.86,0,0,0-9.77,8.47L655.33,730.21a9.87,9.87,0,0,0,9.77,11.27h18.7a9.87,9.87,0,0,0,9.78-8.54l14.7-107.81L763.32,736a9.87,9.87,0,0,0,8.84,5.48h4.95a9.87,9.87,0,0,0,8.84-5.5l54.29-109.8L855,733a9.87,9.87,0,0,0,9.77,8.52h19a9.86,9.86,0,0,0,9.77-11.27L865.63,536.44A9.87,9.87,0,0,0,855.86,528Z"/><path d="M986.24,528H948.17a9.87,9.87,0,0,0-8.42,4.72l-11.6,19a9.87,9.87,0,0,0,8.42,15h20.56V731.61a9.87,9.87,0,0,0,9.87,9.87h19.23a9.87,9.87,0,0,0,9.87-9.87V537.84A9.87,9.87,0,0,0,986.24,528Z"/><path d="M1188.8,572.71c-6.62-16.18-15.9-28.6-27.59-36.9a67.42,67.42,0,0,0-39.83-12.7A66.14,66.14,0,0,0,1082,535.76c-11.53,8.3-20.5,20.46-26.67,36.15-6,15.27-8.92,35.83-8.92,62.89,0,26.89,3,47.44,9.05,62.83,6.26,15.83,15.24,28,26.68,36.2a66,66,0,0,0,39.21,12.52,67.47,67.47,0,0,0,40-12.84c11.77-8.39,21.06-20.81,27.59-36.93,6.38-15.73,9.48-35.94,9.48-61.79C1198.43,609.2,1195.19,588.31,1188.8,572.71Zm-48.61,129.9c-11.46,8.7-24.49,8.86-36.42-.19-6-4.58-10.74-11.62-14-20.91-3.53-10.11-5.32-25.71-5.32-46.38s1.81-36.39,5.37-46.48c3.28-9.3,8-16.33,13.93-20.88s11.81-6.62,18.26-6.62c6.28,0,12.19,2.17,18.07,6.63s10.85,12.15,14.49,22.66c3.92,11.32,5.91,26.35,5.91,44.68s-2.25,33.88-6.72,46.65C1150.59,691.17,1146,698.18,1140.19,702.61Z"/><path d="M647.2,348.71a22.63,22.63,0,1,0-22.63-22.63A22.66,22.66,0,0,0,647.2,348.71Z"/><path d="M669.83,452.68a22.63,22.63,0,1,0-22.63,22.63A22.65,22.65,0,0,0,669.83,452.68Z"/><path d="M647.2,222.11a22.63,22.63,0,1,0-22.63-22.63A22.66,22.66,0,0,0,647.2,222.11Z"/><path d="M549,412a22.63,22.63,0,1,0-22.63-22.63A22.65,22.65,0,0,0,549,412Z"/><path d="M549,285.41a22.63,22.63,0,1,0-22.63-22.63A22.65,22.65,0,0,0,549,285.41Z"/><path d="M450.74,303.45a22.63,22.63,0,1,0,22.63,22.63A22.66,22.66,0,0,0,450.74,303.45Z"/><path d="M745.43,412a22.63,22.63,0,1,0-22.63-22.63A22.65,22.65,0,0,0,745.43,412Z"/><path d="M745.43,285.41a22.63,22.63,0,1,0-22.63-22.63A22.66,22.66,0,0,0,745.43,285.41Z"/><path d="M866.29,326.08a22.63,22.63,0,1,0-22.63,22.63A22.66,22.66,0,0,0,866.29,326.08Z"/></svg>
