<svg id="Layer_4" data-name="Layer 4" xmlns="http://www.w3.org/2000/svg" viewBox="0 0 1417.3 757.3"><title>VOC</title><path d="M435.4,710.59H399.07c-.58-.06-1.16-.1-1.75-.12-113-3.62-201.47-95.05-201.47-208.15A208.55,208.55,0,0,1,335.21,305.72a22.4,22.4,0,0,0,14.53-16.6C378.8,148.66,504.18,46.71,647.85,46.71,790.75,46.71,916,148,945.63,287.58a22.4,22.4,0,0,0,15,16.65c68.74,22.36,121.72,79.91,138.26,150.19a22.4,22.4,0,1,0,43.61-10.26c-19.12-81.24-78.28-148.48-155.89-178.24C948,112.19,807.53,1.9,647.85,1.9,487.2,1.9,346.49,113,308.6,267.9A253.45,253.45,0,0,0,151,502.31c0,136.57,106.2,247.14,242.26,252.84a22.83,22.83,0,0,0,3.31.24h38.8a22.4,22.4,0,0,0,0-44.81Z"/><path d="M681.8,529.35H660.72a9.86,9.86,0,0,0-9,5.92L595.54,664.06,540.31,535.33a9.86,9.86,0,0,0-9.07-6H510.17a9.87,9.87,0,0,0-9.07,13.76l83.12,193.77a9.86,9.86,0,0,0,9.07,6h4.21a9.87,9.87,0,0,0,9-5.93l84.3-193.77a9.87,9.87,0,0,0-9-13.8Z"/><path d="M806.61,524.48a109.68,109.68,0,0,0-95.9,55.85A113.41,113.41,0,0,0,695.91,637c0,30.52,11,56.89,32.57,78.39s48.41,32.38,79.72,32.38c31,0,57.59-10.95,79.15-32.54S919.81,667,919.81,636c0-31.23-11-57.92-32.58-79.33S838.52,524.48,806.61,524.48Zm37.73,175a72.54,72.54,0,0,1-36.87,9.64c-20,0-36.6-6.85-50.77-20.93s-21-30.85-21-51.33a74.58,74.58,0,0,1,9.53-37.43,72.83,72.83,0,0,1,62.27-36.41,74.06,74.06,0,0,1,63.16,36.13A72.56,72.56,0,0,1,880.06,636a74.63,74.63,0,0,1-9.48,37.32A68,68,0,0,1,844.34,699.51Z"/><path d="M1119.95,679.81a9.86,9.86,0,0,0-13.45,1.43c-16.45,19.14-36.28,28.44-60.62,28.44-22.21,0-40-6.84-54.43-20.9s-21.33-31-21.33-52.08c0-13.79,3.21-26.33,9.54-37.27a70.54,70.54,0,0,1,26.94-26.25,76.65,76.65,0,0,1,38.09-9.86,79.58,79.58,0,0,1,34.66,7.52,74.29,74.29,0,0,1,26.8,22.08,9.87,9.87,0,0,0,13.84,1.82L1135.27,583a9.88,9.88,0,0,0,2-13.6,105.31,105.31,0,0,0-39.48-33.19c-15.88-7.79-33.83-11.75-53.35-11.75-32.46,0-59.94,10.72-81.64,31.85S930,604,930,635c0,29.27,9.09,54.66,27,75.49,21.45,24.72,50.95,37.26,87.68,37.26,19.2,0,36.89-3.7,52.57-11A107.9,107.9,0,0,0,1137,705.37a9.88,9.88,0,0,0-1.8-14Z"/><path d="M649,303.45a22.63,22.63,0,1,0,22.63,22.63A22.65,22.65,0,0,0,649,303.45Z"/><path d="M649,430.05a22.63,22.63,0,1,0,22.63,22.63A22.66,22.66,0,0,0,649,430.05Z"/><path d="M649,176.85a22.63,22.63,0,1,0,22.63,22.63A22.66,22.66,0,0,0,649,176.85Z"/><path d="M550.74,366.75a22.63,22.63,0,1,0,22.63,22.63A22.66,22.66,0,0,0,550.74,366.75Z"/><path d="M550.74,240.15a22.63,22.63,0,1,0,22.63,22.63A22.66,22.66,0,0,0,550.74,240.15Z"/><path d="M452.51,303.45a22.63,22.63,0,1,0,22.63,22.63A22.65,22.65,0,0,0,452.51,303.45Z"/><path d="M747.19,366.75a22.63,22.63,0,1,0,22.63,22.63A22.66,22.66,0,0,0,747.19,366.75Z"/><path d="M747.19,240.15a22.63,22.63,0,1,0,22.63,22.63A22.66,22.66,0,0,0,747.19,240.15Z"/><path d="M845.42,303.45a22.63,22.63,0,1,0,22.63,22.63A22.65,22.65,0,0,0,845.42,303.45Z"/></svg>
