<svg id="Layer_3" data-name="Layer 3" xmlns="http://www.w3.org/2000/svg" viewBox="0 0 1417.3 757.3"><title>PM1</title><path d="M1142.72,445.43C1123.61,364.2,1064.44,297,986.83,267.19c-38.6-153.73-179.05-264-338.74-264-160.65,0-301.36,111.13-339.25,266A253.44,253.44,0,0,0,151.27,503.59c0,136.57,106.2,247.14,242.26,252.84a22.83,22.83,0,0,0,3.31.24h38.81a22.4,22.4,0,1,0,0-44.81H399.3c-.58-.06-1.16-.1-1.75-.12-113-3.62-201.47-95.05-201.47-208.15A208.55,208.55,0,0,1,335.44,307,22.39,22.39,0,0,0,350,290.4C379,149.94,504.42,48,648.09,48,791,48,916.23,149.29,945.87,288.85a22.4,22.4,0,0,0,15,16.65c68.74,22.36,121.72,79.91,138.26,150.19a22.4,22.4,0,0,0,43.62-10.26Z"/><path d="M660.19,533.83c-8.62-2.16-24.06-3.2-47.18-3.2H574.42a9.87,9.87,0,0,0-9.87,9.87V734.27a9.87,9.87,0,0,0,9.87,9.87h19.36a9.87,9.87,0,0,0,9.87-9.87V654h4c25,0,41.92-1.12,51.58-3.43,14.12-3.4,25.44-10.23,33.65-20.29s12.5-23,12.5-38.18-4.31-28-12.82-38.25A59.5,59.5,0,0,0,660.19,533.83Zm-33.49,81.9-23.05-.28V569.34H628c14.64,0,21.48,1.48,24.63,2.73a19.26,19.26,0,0,1,9.26,7.72,22.07,22.07,0,0,1,3.66,12.42,22.51,22.51,0,0,1-3.66,12.68,20.07,20.07,0,0,1-9.85,7.91C648.68,614.13,641.49,615.72,626.7,615.73Z"/><path d="M916.14,530.63H913a9.87,9.87,0,0,0-8.86,5.52l-69.2,141L765.1,536.11a9.87,9.87,0,0,0-8.84-5.49h-3.14a9.86,9.86,0,0,0-9.77,8.47L715.61,732.87a9.87,9.87,0,0,0,9.77,11.27h18.7a9.87,9.87,0,0,0,9.78-8.54l14.7-107.81L823.6,738.65a9.87,9.87,0,0,0,8.84,5.48h4.95a9.87,9.87,0,0,0,8.84-5.5l54.29-109.8,14.76,106.78a9.87,9.87,0,0,0,9.77,8.52h19a9.86,9.86,0,0,0,9.77-11.27L925.91,539.09A9.87,9.87,0,0,0,916.14,530.63Z"/><path d="M1046.52,530.63h-38.07a9.87,9.87,0,0,0-8.42,4.72l-11.6,19a9.87,9.87,0,0,0,8.42,15h20.56V734.27a9.87,9.87,0,0,0,9.87,9.87h19.23a9.87,9.87,0,0,0,9.87-9.87V540.5A9.87,9.87,0,0,0,1046.52,530.63Z"/><path d="M649.2,350a22.63,22.63,0,1,0-22.63-22.63A22.66,22.66,0,0,0,649.2,350Z"/><path d="M649.2,476.59A22.63,22.63,0,1,0,626.57,454,22.66,22.66,0,0,0,649.2,476.59Z"/><path d="M649.2,223.39a22.63,22.63,0,1,0-22.63-22.63A22.66,22.66,0,0,0,649.2,223.39Z"/><path d="M573.6,390.66A22.63,22.63,0,1,0,551,413.29,22.66,22.66,0,0,0,573.6,390.66Z"/><path d="M551,286.68a22.63,22.63,0,1,0-22.63-22.63A22.65,22.65,0,0,0,551,286.68Z"/><path d="M452.74,304.73a22.63,22.63,0,1,0,22.63,22.63A22.65,22.65,0,0,0,452.74,304.73Z"/><path d="M747.43,413.29a22.63,22.63,0,1,0-22.63-22.63A22.66,22.66,0,0,0,747.43,413.29Z"/><path d="M747.43,286.68a22.63,22.63,0,1,0-22.63-22.63A22.65,22.65,0,0,0,747.43,286.68Z"/><path d="M868.29,327.36A22.63,22.63,0,1,0,845.66,350,22.65,22.65,0,0,0,868.29,327.36Z"/></svg>
