<?xml version="1.0" encoding="UTF-8"?>
<svg width="960px" height="960px" viewBox="0 0 960 960" version="1.1" xmlns="http://www.w3.org/2000/svg" xmlns:xlink="http://www.w3.org/1999/xlink">
    <title>com.aeotec/drivers/smokeshield/ assets/icon</title>
    <g id="com.aeotec/drivers/smokeshield" stroke="none" fill="none">
        <path d="M481.205341,12.0551917 C482.893302,12.0551917 484.581208,12.0745302 486.268726,12.1132035 L814.684697,19.6395963 C825.727492,19.8926669 834.474293,29.0497757 834.226578,40.0925712 C833.968151,51.1353667 824.811043,59.882167 813.768247,59.6290965 L485.352276,52.1027036 C483.970191,52.07103 482.587789,52.0551917 481.205341,52.0551917 C381.241802,52.0551917 300.205341,133.091652 300.205341,233.055192 L300.205734,236.805894 C306.1959,235.827886 312.201156,235.128647 316.309822,235.094233 L629.140744,232.449537 L629.959067,232.449537 C656.826868,232.655909 679.276111,254.185271 679.276111,281.724156 L679.276111,724.337306 C679.276111,751.052664 658.052239,772.622525 631.919085,774.219773 L524.254111,780.799421 L524.25446,881.885695 C524.25446,908.027007 503.959359,929.594951 478.335877,931.984337 L477.557792,932.050857 L245.191111,950.116421 L245.179971,950.118002 L245.159111,950.118421 L244.599374,950.158895 L244.564111,950.160421 L244.523521,950.16433 L244.458111,950.167421 L244.267024,950.180597 L243.976111,950.195421 L243.900844,950.200038 L243.860111,950.200421 L243.353442,950.226467 C242.744223,950.251467 242.134724,950.267952 241.525227,950.267952 L240.61102,950.267952 L240.320111,950.256421 C234.708681,950.163263 228.148383,949.225605 220.909323,947.792041 L220.037394,947.617655 C217.015796,947.007496 214.083438,946.342944 211.579564,945.693989 C209.999796,945.284545 208.540958,944.87028 207.128583,944.41376 C206.029632,944.058547 204.953537,943.677359 203.811716,943.219359 C201.365966,942.238335 199.099422,941.146811 196.347272,939.344374 C182.598159,930.339809 174.282111,915.0134 174.282111,898.379776 L174.282111,429.706734 C174.282111,423.696487 175.374112,417.74296 177.521815,412.056391 L178.663428,409.051917 C190.581053,377.764953 201.183837,353.18972 210.702925,334.982473 L211.164788,334.103632 C220.765456,315.923212 236.157624,291.255702 257.389707,259.898893 C258.271546,258.595457 259.211089,257.339872 260.204103,256.134991 L260.205341,233.055192 C260.205341,111.000262 359.150412,12.0551917 481.205341,12.0551917 Z M530.808857,487.65098 C525.286009,487.65098 520.808857,483.173827 520.808857,477.65098 L520.808857,381.649427 C520.808857,376.126579 525.286009,371.649427 530.808857,371.649427 L551.298895,371.649427 C551.528844,371.649427 551.75698,371.657188 551.983056,371.672463 L639.275111,371.649192 L639.275901,281.724155 C639.275901,278.961749 638.022837,276.489487 636.030022,274.792906 L635.835085,274.63151 C634.124111,273.251252 631.90442,272.427885 629.478855,272.448053 L624.120111,272.492192 L329.647933,275.092804 C326.38327,275.120397 323.33392,276.760966 321.519795,279.467098 C313.521443,291.388329 306.416499,302.262241 300.204964,312.084169 L300.205341,391.121258 C300.205341,402.166953 291.251036,411.121258 280.205341,411.121258 C269.159646,411.121258 260.205341,402.166953 260.205341,391.121258 L260.205641,388.396264 C256.046294,398.399533 251.658888,409.514299 247.043421,421.742725 L245.913577,424.743646 C245.496056,425.859361 245.282111,427.036502 245.282111,428.218086 L245.282111,901.207013 C245.282111,905.058497 247.506475,908.217737 250.741165,909.565613 L474.222111,892.189192 L474.457078,892.17113 C479.867951,891.75044 484.25433,887.145459 484.25433,881.885617 L484.25433,755.415139 C484.25433,748.652485 489.89396,742.825579 496.850796,742.40038 L629.47865,734.294217 C634.889523,733.963507 639.275901,729.50562 639.275901,724.337248 L639.275111,484.584192 L551.560946,487.190632 C550.611554,487.489711 549.601037,487.65098 548.552854,487.65098 L530.808857,487.65098 Z M246.535803,352.782264 L246.112644,353.587628 C237.485542,370.08893 227.462468,393.312397 216.043422,423.290458 L214.913578,426.263997 C214.496056,427.369532 214.282111,428.535931 214.282111,429.706734 L214.282111,898.379776 C214.282111,901.581669 215.847872,904.300728 218.262406,905.882054 C218.921028,906.313398 222.140358,907.1719 226.066766,908.016121 C225.553888,905.838295 225.282111,903.559355 225.282111,901.207013 L225.282111,428.218086 C225.282111,424.637831 225.927491,421.086853 227.182185,417.734014 L227.196234,417.696586 L228.331875,414.680285 C239.99002,383.792668 250.3005,359.674862 259.372872,342.162162 L259.815144,341.312762 C259.944117,341.066281 260.074245,340.818464 260.205526,340.569314 L260.205311,329.025011 C254.664348,338.097157 250.107845,346.018024 246.535803,352.782264 Z M466.561756,475.533768 L466.561756,677.993709 C466.561756,683.308901 462.403747,687.69538 457.09615,687.97942 L270.948373,697.941267 C270.266937,697.977735 269.598464,697.945259 268.949524,697.850066 C263.593066,698.591798 257.634322,695.425648 257.41994,688.351768 L257.41398,687.955768 L257.41398,481.290818 C257.41398,473.936833 263.498102,470.63893 268.954965,471.397109 C269.331332,471.341867 269.715206,471.307642 270.104855,471.295591 L456.252631,465.538547 C461.893912,465.364077 466.561756,469.88979 466.561756,475.533768 Z M446.56098,485.847768 L280.41398,490.985768 L280.41398,677.405768 L446.56098,668.514768 L446.56098,485.847768 Z M419.776285,566.567314 L419.776285,644.992265 C419.776285,650.322752 415.595109,654.716224 410.271153,654.980013 L329.093927,659.002145 C328.236114,659.044648 327.399188,658.978004 326.596231,658.814666 C325.951446,658.94568 325.283277,659.014397 324.599059,659.014397 C319.076211,659.014397 314.599059,654.537245 314.599059,649.014397 L314.599059,569.883234 C314.599059,564.360386 319.076211,559.883234 324.599059,559.883234 C325.284337,559.883234 325.953516,559.952164 326.60004,560.083469 C327.116019,559.97899 327.647679,559.913756 328.19092,559.891566 L409.368146,556.575646 C415.046373,556.343702 419.776285,560.884351 419.776285,566.567314 Z M399.776059,576.983314 L338.599059,579.482314 L338.599059,638.506314 L399.776059,635.475314 L399.776059,576.983314 Z M629.904428,391.651427 L545.904428,391.674427 L545.904428,467.348427 L629.904428,464.853427 L629.905079,447.356249 C623.463459,457.399241 612.105856,464.218407 599.209006,464.593651 C597.887234,464.632109 596.580765,464.601689 595.293241,464.505687 C594.937921,464.553112 594.576044,464.583444 594.20897,464.594125 C573.973918,465.182886 557.325632,449.628888 557.325632,429.753776 C557.325632,410.08989 573.647754,393.985463 593.685232,393.518665 C594.412078,393.501732 595.122613,393.562789 595.80883,393.69419 C596.758006,393.600257 597.717305,393.541215 598.685274,393.518665 C611.778781,393.213638 623.369826,399.631476 629.905267,409.571643 L629.904428,391.651427 Z M599.481729,413.508278 L599.151068,413.51324 C589.815239,413.730728 582.325632,421.120363 582.325632,429.753532 C582.325632,438.175475 589.489077,444.867996 598.627337,444.602111 C607.998556,444.329448 615.510711,436.917566 615.510711,428.360301 C615.510711,420.215372 608.665719,413.624106 599.810606,413.509788 L599.481729,413.508278 Z" id="Combined-Shape" fill="#000000" fill-rule="nonzero"></path>
        <path d="M305.205341,749.32519 C309.843232,749.044428 313.602986,745.0818 313.602986,740.474412 C313.602986,735.867025 309.843232,732.352716 305.205341,732.624983 C300.567451,732.897251 296.807697,736.859879 296.807697,741.475761 C296.807697,746.091643 300.567451,749.605952 305.205341,749.32519 Z" id="Oval-2" fill="#000000" fill-rule="evenodd"></path>
        <path d="M277.213195,751.019738 C281.851085,750.738976 285.610839,746.764871 285.610839,742.143326 C285.610839,737.521782 281.851085,733.995996 277.213195,734.268264 C272.575304,734.540531 268.815551,738.514636 268.815551,743.144675 C268.815551,747.774714 272.575304,751.3005 277.213195,751.019738 Z" id="Oval-2" fill="#000000" fill-rule="evenodd"></path>
        <path d="M361.189635,745.936094 C365.827526,745.655332 369.587279,741.715657 369.587279,737.136584 C369.587279,732.557511 365.827526,729.066155 361.189635,729.338422 C356.551744,729.61069 352.791991,733.550365 352.791991,738.137932 C352.791991,742.7255 356.551744,746.216855 361.189635,745.936094 Z" id="Oval-2" fill="#000000" fill-rule="evenodd"></path>
        <path d="M333.197488,747.630642 C337.835379,747.34988 341.595132,743.398728 341.595132,738.805498 C341.595132,734.212268 337.835379,730.709435 333.197488,730.981703 C328.559598,731.25397 324.799844,735.205122 324.799844,739.806847 C324.799844,744.408571 328.559598,747.911404 333.197488,747.630642 Z" id="Oval-2" fill="#000000" fill-rule="evenodd"></path>
    </g>
</svg>