<svg id="e060703c-a96b-4b6f-88b5-33cee6d5aa7b" data-name="Layer 1" xmlns="http://www.w3.org/2000/svg" width="156.92mm" height="205.74mm" viewBox="0 0 444.82 583.21"><path d="M5,526.15c.34-20.4.59-40.81,1.06-61.21.4-17.24.75-34.47,1-51.71.27-22.74.53-45.48,1.09-68.21.23-9.24.23-18.49.38-27.73q.57-34.11,1-68.21.48-30.62,1-61.22.52-33.36,1-66.71c.33-20.91.56-41.81,1-62.71q.25-11,.37-22C13,28.16,17.26,22.8,25.35,20.88A185.66,185.66,0,0,1,49.49,17c20.8-2.09,41.65-3.22,62.53-4.12,13.65-.59,27.29-1,40.94-1.52,31.14-1.15,62.28-1.79,93.44-1.25,17.65.3,35.3.86,52.94,1.48,15.06.52,30.12,1.14,45.17,2,14.62.81,29.19,2.42,43.73,4.18,13,1.57,25.93,3.36,38.87,5.2,5.66.8,10,3.53,12.57,8.73a7.93,7.93,0,0,1,.94,3.34c.1,3.08.3,6.16.34,9.24.24,17.57.42,35.15.67,52.73.32,21.57.53,43.14,1.1,64.71.23,9.08.19,18.15.4,27.23.52,21.57.74,43.14,1.08,64.71.3,19.32.75,38.64,1,58q.31,30,1,60c.36,14.9.66,29.81,1,44.71q.51,22.86,1,45.71.51,22.24,1,44.47c.17,7.24.16,14.49.48,21.73a8.36,8.36,0,0,1-4.3,8.1A4.54,4.54,0,0,0,443.1,539c-2,7.67-6.07,14.24-11.16,20.17a94.78,94.78,0,0,1-17.54,15.92,6.39,6.39,0,0,1-4.66,1.18c-5.05-.53-10.12-.88-15.19-1.13a3.82,3.82,0,0,1-3.49-2.27c-3-5.31-6.06-10.55-9-15.86a2.57,2.57,0,0,0-3-1.53c-11.22,1.47-22.46,2.87-33.68,4.3-7.11.91-14.2,1.89-21.31,2.72a5.19,5.19,0,0,0-3.61,1.89c-9,10.5-19.89,18.92-31,27a6.9,6.9,0,0,1-4.26,1.1c-12,0-24-.06-36,.19q-11.88.24-23.74.38a6.39,6.39,0,0,1-4.32-1.52,221.77,221.77,0,0,1-21.58-19.29c-.93-1-2-1.77-2.93-2.73-4.49-4.68-10.31-5.13-16.3-5.46-16-.87-32.07-1.93-48.11-2.89-9.39-.56-18.78-1.06-28.17-1.62-7.07-.43-14.13-.81-21.18-1.42-2.87-.25-4.77.31-6.26,3.09-2.91,5.43-6.27,10.61-9.37,15.94a5.54,5.54,0,0,1-3.85,2.9c-11.86,2.29-22.8,1.15-32-7.77a74.52,74.52,0,0,1-17.59-26.7A5.57,5.57,0,0,0,10.07,542c-4.49-1.56-5.21-2.8-5.19-7.56,0-2.75,0-5.5,0-8.25ZM436.49,540c-5.6.87-11.2,1.66-16.82,2.31-17.53,2-35,4.2-52.56,6.3-14.55,1.75-29.11,3.32-43.63,5.25A451.74,451.74,0,0,1,273,558c-21.08.42-42.14-.2-63.2-1-6.24-.23-12.47-.64-18.7-1-11.8-.76-23.59-1.58-35.38-2.36-8.55-.56-17.11-1.08-25.67-1.64q-21.42-1.41-42.85-2.85c-8.72-.58-17.45-1.07-26.16-1.67q-19.56-1.35-39.1-2.83c-2.05-.15-2.3.51-1.47,2.26a76.39,76.39,0,0,0,14,20.53c7,7.2,15.42,8.56,24.74,7.71a4.93,4.93,0,0,0,4.13-2.74q4.43-7.68,9.11-15.22c.81-1.28,1-3.67,3.63-2.78.13,0,.59-.39.62-.63.22-1.74,1.4-1.48,2.61-1.41q13.71.83,27.42,1.6,14.2.81,28.42,1.63c15.87,1,31.73,2.09,47.61,2.83,6.24.3,11.81,1.71,16.49,6,1.16,1.06,2.46,2,3.57,3.11a210.08,210.08,0,0,0,19.81,17.91,7,7,0,0,0,4.54,1.69c19.07-.2,38.15,0,57.22-.56a5.54,5.54,0,0,0,3.29-.94c10.58-7.74,20.85-15.83,29.27-26a7.26,7.26,0,0,1,5.31-2.7c4.72-.5,9.42-1.17,14.12-1.77,15-1.92,30.07-3.78,45.08-5.81,2.18-.3,3.16.53,4.1,2.23,2.9,5.24,5.94,10.42,8.86,15.66a3.87,3.87,0,0,0,3.46,2.37c3.57.18,7.14.51,10.7.84A6.1,6.1,0,0,0,413,569a86,86,0,0,0,14.11-13c4.11-4.72,7.85-9.73,9.45-16l.06-.09ZM258.86,552.41v-.48c5.91,0,11.82,0,17.73,0,3.08,0,6.17,0,9.25-.16,11.3-.66,22.55-1.91,33.78-3.31,17.35-2.18,34.72-4.14,52.08-6.21q26.52-3.16,53.05-6.38c5.47-.65,10.9-1.45,16-3.64,2.1-.89,3.39-2.12,3.19-4.71-.31-4-.34-8-.44-12q-.51-22.6-1-45.21t-1-45.47c-.33-15-.69-30-1-45q-.56-28.48-1-57-.5-28.74-1-57.47-.56-33.48-1.07-67-.45-27.74-.94-55.47-.52-32-1-64-.33-20.74-.59-41.48c0-1.46.08-2.84-2.05-3-10.05-.62-20.1-1.34-30.15-2-11-.72-22-1.17-32.89-2.2-18.82-1.77-37.67-3.05-56.55-3.73-15.15-.54-30.31-.93-45.47-1-35.4-.18-70.8-.32-106.19,1.26-14.39.64-28.8.94-43.19,1.54-18.72.76-37.45,1.37-56.17,2.05q-19.6.72-39.19,1.47c-4.05.16-4.06.22-4.37,4.29,0,.41,0,.83,0,1.25q-.22,33.24-1,66.46c-.23,9.83-.22,19.66-.4,29.49-.41,22.24-.57,44.48-1.1,66.72-.23,9.74-.17,19.48-.41,29.23-.57,22.4-.75,44.81-1.11,67.22-.14,9.41-.21,18.82-.38,28.23-.4,22.49-.64,45-1.09,67.47-.34,17.41-.21,34.83-.76,52.23-.32,10-.3,20-.64,30-.65,19.56-.76,39.14-1.19,58.71,0,2.25.77,3.32,2.88,3.9A74.73,74.73,0,0,0,28,539.37c11.3.78,22.6,1.4,33.9,2.16,16.28,1.08,32.55,2.26,48.83,3.33,14.2.93,28.42,1.76,42.62,2.65,20.11,1.27,40.2,2.79,60.32,3.77C228.7,552,243.78,552.06,258.86,552.41Zm171-519.95a14.08,14.08,0,0,0,1.44,0c.54,0,1.32.31,1.47-.47.06-.31-.48-.84-.86-1.11a12.34,12.34,0,0,0-5.49-2.24c-7.76-1-15.52-2-23.26-3.17a798.87,798.87,0,0,0-84-7.32c-13.23-.53-26.45-1.1-39.69-1.46-16.56-.46-33.13-.75-49.7-1-18.92-.34-37.81.41-56.71.9-14.48.38-29,.89-43.44,1.4-19.89.7-39.75,1.69-59.6,3.09C58.48,21.84,47,22.72,35.7,24.72,31.39,25.48,26.91,25.81,23,28c-.66.36-1.85.69-1.53,1.62.21.62,1.36.27,2.08.25,10.73-.44,21.46-.94,32.19-1.35q28-1.05,55.91-2c13.57-.49,27.13-1,40.69-1.47,17.15-.55,34.29-1.28,51.44-1.46,21.82-.23,43.65-.12,65.48.19,27.81.4,55.61.88,83.35,3.13,11.95,1,23.89,1.95,35.86,2.69C402.12,30.43,415.81,31.48,429.82,32.46Z" transform="translate(-4.88 -9.86)"/><path d="M113.8,475.74a9.17,9.17,0,0,1-7.53-4.23,15.28,15.28,0,0,1,.46-18.37,8.91,8.91,0,0,1,12.06-2c7.52,5,7.35,18.37-.26,23.25A8.4,8.4,0,0,1,113.8,475.74Zm6.69-13.22a9.68,9.68,0,0,0-.91-4.66c-1.17-2.43-3-4.13-5.75-4a6,6,0,0,0-5.55,4.32c-1.32,3.61-1.29,7.18.93,10.48a5.64,5.64,0,0,0,9.6-.05A9.58,9.58,0,0,0,120.49,462.52Z" transform="translate(-4.88 -9.86)"/><path d="M86.53,372.09c0,3.54.66,6.08,2.56,8.17,2.66,2.92,6.28,2.91,8.91,0a10.38,10.38,0,0,0,2.52-6.63c.06-1.07.17-2.47,1.65-2.31s1.42,1.52,1.31,2.59c-.41,3.91-1.59,7.51-4.67,10.2A7.73,7.73,0,0,1,88.15,384c-5.71-5.15-6.06-16.3-.68-21.8C91.7,357.87,98,358.7,101,364a2.33,2.33,0,0,1,0,2.79q-2.36,3.22-4.75,6.42c-.52.69-1.18,1.38-2.08.68a1.71,1.71,0,0,1-.32-2.46c1-1.53,2-3.05,3.16-4.49s.57-2.25-.71-3a5.6,5.6,0,0,0-7.21,1.38A10.15,10.15,0,0,0,86.53,372.09Z" transform="translate(-4.88 -9.86)"/><path d="M151.19,361.92c-.2.82-.43,1.88-.73,2.92q-3.26,11.64-6.55,23.29a17,17,0,0,1-2.23,5,4,4,0,0,1-2.56,1.86c-1.12.19-2.51.59-3-.87s.67-1.92,1.87-2.33c2.87-1,4.56-4.87,3.58-8.33-1.79-6.32-3.69-12.61-5.54-18.92a14.71,14.71,0,0,1-.51-1.92c-.16-1-.25-2.17,1-2.46s1.47.86,1.71,1.72c1.5,5.28,2.95,10.57,4.45,15.85.14.53.14,1.41.72,1.43s.57-.89.71-1.4c1.49-5.37,2.93-10.75,4.42-16.12.23-.84.41-2,1.69-1.74C151.16,360.05,151.19,360.91,151.19,361.92Z" transform="translate(-4.88 -9.86)"/><path d="M105.92,370c0-3,0-5.37,0-7.7,0-1,.08-2.22,1.45-2.16,1.18.05,1.22,1.19,1.23,2.11q0,6.24,0,12.47a10.57,10.57,0,0,0,.93,4.61,3.87,3.87,0,0,0,3.74,2.44,3.82,3.82,0,0,0,3.64-2.57,12.69,12.69,0,0,0,.91-4.87c0-3.91,0-7.82,0-11.73,0-1.05-.13-2.47,1.39-2.46,1.29,0,1.33,1.29,1.33,2.29,0,4.74.14,9.48,0,14.22-.21,5.38-3.2,8.64-7.48,8.56-3,0-4.9-1.66-6.09-4.34C105.31,377.11,106.12,373.16,105.92,370Z" transform="translate(-4.88 -9.86)"/><path d="M131.77,350.17c.28,0,.7.08,1.1.16,1.07.21,1.95.68,1.84,1.94s-1,1.27-2,1.37c-3.38.35-4.2,1.2-4.87,4.56-.3,1.49,0,2.27,1.66,2.22a10.38,10.38,0,0,1,1.25,0c1.12.09,1.94.55,1.92,1.82a1.56,1.56,0,0,1-1.78,1.66c-3.21-.34-3.38,1.52-3.31,4,.12,4.66,0,9.31,0,14a11.17,11.17,0,0,1-.31,2.44,1.06,1.06,0,0,1-1.15.77,1.09,1.09,0,0,1-1.08-.88,9.27,9.27,0,0,1-.19-2c0-7.4,0-14.79,0-22.19a14.21,14.21,0,0,1,1.5-6.25A6.12,6.12,0,0,1,131.77,350.17Z" transform="translate(-4.88 -9.86)"/><path d="M120,406.69c0-.74,0-1.49,0-2.24,0-2.69.54-3.17,3-2.94,2.18.19,3.63,1.7,3,3.65a7,7,0,0,0,.2,5.27c.21.49.49,1.2-.34,1.45s-1-.42-1.26-.94c-.12-.22-.15-.48-.28-.69-.51-.85-.28-2.54-1.75-2.33-1.3.19-.7,1.64-.89,2.55-.11.55,0,1.33-.8,1.31s-.8-.77-.82-1.34c0-1.25,0-2.5,0-3.75Zm4.28-2a1.2,1.2,0,0,0-1.41-1,1,1,0,0,0-1.07,1.3c.08.72.57.94,1.21.91A1.16,1.16,0,0,0,124.25,404.65Z" transform="translate(-4.88 -9.86)"/><path d="M119,405.16a9.45,9.45,0,0,1-.87,5.1c-1.27,2.3-3.58,2.38-4.88.12-1.43-2.46-.78-5.18-.73-7.81a.68.68,0,0,1,.85-.67c.5.09.64.51.66.93.06,1.57,0,3.16.14,4.73.06.91.27,2,1.41,2s1.34-1.1,1.4-2c.09-1.32,0-2.66.11-4,0-.7-.07-1.74,1-1.69s.85,1.07.91,1.78S119,404.84,119,405.16Z" transform="translate(-4.88 -9.86)"/><path d="M93.52,412.11a3.16,3.16,0,0,1-2.14-.53c-.54-.44-1-1.06-.63-1.74.46-.92,1-.38,1.61,0,.84.62,1.82.82,2.28-.3s-.56-1.42-1.37-1.65c-1.47-.42-2.61-1.13-2.76-2.81A3.08,3.08,0,0,1,91.63,402a3.62,3.62,0,0,1,3.37-.22c.93.35,1.67,1.12,1.25,2.1-.49,1.14-1.2.09-1.82-.11-.85-.28-1.76-.36-2.09.67s.44,1.29,1.22,1.53a8.13,8.13,0,0,1,1.62.63c1.48.86,1.57,2.25,1.22,3.71S94.88,412.15,93.52,412.11Z" transform="translate(-4.88 -9.86)"/><path d="M97.92,406.82v-1.74c0-3.33,1.41-4.35,4.73-3.54.6.15,1.19.3,1.12,1.06,0,.59-.56.76-1.07.84-.33.05-.67,0-1,.08-.79.08-1.82-.11-2,1-.16,1.41,1,1.25,1.86,1.38.57.08,1.28.11,1.22.91s-.8.73-1.36.76c-1,.07-1.87.21-1.79,1.51s1.1,1.19,2,1.29c.75.08,2-.27,1.95.9s-1.28.77-2,.8C97.93,412.26,97.92,412.22,97.92,406.82Z" transform="translate(-4.88 -9.86)"/><path d="M104.88,406.76a17.86,17.86,0,0,1,.18-2.9,3.29,3.29,0,0,1,5-1.95c.49.33,1,.72.72,1.4a.86.86,0,0,1-1.25.44c-1-.45-2.14-.66-2.55.52a7.75,7.75,0,0,0,0,5.35c.45,1.18,1.62.81,2.59.37a.84.84,0,0,1,1.24.41c.31.69-.17,1.09-.65,1.43a3.34,3.34,0,0,1-5.09-2A22.88,22.88,0,0,1,104.88,406.76Z" transform="translate(-4.88 -9.86)"/><path d="M144.05,402.67c-.12.24-.29.62-.5,1-1.2,2.1-2.26,4.23-2,6.79.06.53,0,1.3-.75,1.34s-.9-.7-.85-1.26a11.75,11.75,0,0,0-1.88-6.82c-.31-.55-1.09-1.39,0-1.88.78-.35,1.19.46,1.44,1.05.88,2.06,1.66,2,2.53,0,.29-.67.69-1.41,1.66-1.14C144.07,401.82,144.17,402.16,144.05,402.67Z" transform="translate(-4.88 -9.86)"/><path d="M133.61,401.41a19.91,19.91,0,0,1,2,.25c.67.16,1.12,1,.58,1.26-2.63,1.5-1.36,3.95-1.68,6-.15,1,.44,2.72-.83,2.74S133,410,132.87,409c-.11-1.15,0-2.31,0-3.47a2.37,2.37,0,0,0-.4-1.65c-.51-.61-2.13-.49-1.5-1.8C131.45,401,132.74,401.69,133.61,401.41Z" transform="translate(-4.88 -9.86)"/><path d="M127.92,406.85c0-1.23,0-2.47,0-3.7,0-.58.06-1.26.85-1.25.62,0,.76.58.77,1.08q0,3.84,0,7.66c0,.49-.11,1.09-.72,1.13-.82.06-.85-.66-.87-1.21,0-1.23,0-2.47,0-3.71Z" transform="translate(-4.88 -9.86)"/></svg>