<svg height="960" viewBox="0 0 960 960" width="960" xmlns="http://www.w3.org/2000/svg"><path d="m481 45c124.395467 0 241.58762 19.7460998 330.293784 55.866671 90.801723 36.877359 144.706216 89.09041 144.706216 146.633329 0 2.103884-.073951 4.207701-.221515 6.310141l-.099485 1.286859 2.237 119.133.028762.673019c.024542.688178.040912 1.376408.055351 2.064639v2.062294c0 .311855 0 .621989-.022145.930249l-.047756 1.530741c-2.180954 54.880195-54.992508 104.305735-142.806563 139.664904l-2.699102 1.07802c-89.149641 35.410395-206.914713 54.766134-331.924547 54.766134s-242.774906-19.355739-331.907894-54.759528c-90.6300561-35.904462-144.73976187-86.635346-145.58238518-142.941506l.01727918.749034-.01047714-.222212c-.01652286-.225956-.01652286-.452897-.01652286-.680761v-1.145027c0-1.526504.04028532-3.053104.12074266-4.579259l-.01874266.386259 2.70815125-126.235852c.01736837-.809807.0826941-1.607526.19323012-2.390465l.03561863-.243683.0255492-.883099c2.08488896-55.605947 54.568155-106.008603 141.9123078-142.069652l2.712464-1.110707c88.723059-36.1274422 205.915212-55.873542 330.310679-55.873542zm.051759 164.213152c-118.601154 0-229.988684 18.737576-313.335524 52.620729-79.2569978 32.136411-123.6644757 75.080585-123.6644757 116.379271 0 7.415519 1.4317486 14.88409 4.239962 22.33364 13.4485292 29.197812 52.2382067 59.258228 112.7428107 83.591458l2.306829.920787c84.080953 33.397103 196.906356 51.940963 317.158639 51.940963s233.077686-18.54386 317.175291-51.947569c77.011959-30.509448 119.568669-70.287826 120.314537-106.076641l.009172-1.02379v-.69474l-.02258-.743228-.041054-1.030736-.007457-.287128-.017547-1.028922c-2.792541-40.042684-46.851461-81.245251-123.531518-112.336791-83.3384-33.879727-194.72593-52.617303-313.327085-52.617303zm0 18.906515c110.666299 0 214.817035 15.031917 293.37713 42.433268 79.196498 27.551225 125.559145 66.018511 125.559145 108.066732 0 42.048222-46.362647 80.515508-125.551479 108.064062-78.567761 27.404022-182.718497 42.435938-293.384796 42.435938-110.666298 0-214.817035-15.031916-293.377129-42.433267-79.196498-27.551225-125.5591456-66.018511-125.5591456-108.066733 0-42.048221 46.3626476-80.515507 125.5514786-108.064062 78.567761-27.404021 182.718498-42.435938 293.384796-42.435938zm0 20c-108.56119 0-210.5237 14.716093-286.805734 41.322862-71.961902 25.034422-112.1305406 58.362513-112.1305406 89.177138 0 30.814626 40.1686386 64.142717 112.1382066 89.179809 76.274368 26.604098 178.236878 41.320191 286.798068 41.320191 108.561191 0 210.523701-14.716093 286.805735-41.322861 71.961901-25.034422 112.13054-58.362513 112.13054-89.177139 0-30.814625-40.168639-64.142716-112.138207-89.179809-76.274367-26.604098-178.236877-41.320191-286.798068-41.320191zm-.051759-163.119667c-119.52642 0-231.664685 18.894553-315.2425 52.926877-77.3835804 31.427841-119.7575 72.47213-119.7575 109.573123l.0012777.356713c.0074535 1.040614-.0646731 2.063133-.2106703 3.061807l-.0506074.32748-1.5279467 71.161978c22.207683-29.992775 62.0524507-57.238738 115.9805957-79.105032 85.91641-34.927771 199.827115-54.089794 320.85911-54.089794 121.031996 0 234.942701 19.162023 320.850671 54.086367 53.15174 21.551487 92.622161 48.326521 115.011842 77.805882l-1.248844-66.352711c-.014617-.778095.016195-1.55638.092277-2.330885.161574-1.644794.242295-3.285067.242295-4.921805 0-37.100993-42.37392-78.145282-119.774396-109.579994-83.560919-34.025453-195.699184-52.920006-315.225604-52.920006z"/></svg>