<svg height="960" viewBox="0 0 960 960" width="960" xmlns="http://www.w3.org/2000/svg"><path d="m297.624095 3.35168814 387.897695 35.46243326c41.188877 3.7655748 72.716603 38.3071137 72.716603 79.6677606v725.937026c0 41.383018-31.560809 75.935492-72.774701 79.673051l-383.718105 34.798188c-11.764393 1.066875-23.616514.640533-35.273845-1.268865l-19.079362-3.125079c-37.572157-6.154084-65.153987-38.621183-65.153987-76.694004v-790.7090635c0-31.2381424 18.34895-59.5625524 46.857838-72.332238 21.484306-9.62323888 45.084557-13.55244645 68.527864-11.40920936zm-33.336454 77.69681176c-.108505 1.1988211-.162841 2.4019292-.162841 3.6056507v791.9411404c0 22.09139 17.90861 40 40 40 1.149625 0 2.298715-.049562 3.44407-.148546l374.113593-32.331904c20.679359-1.787166 36.55593-19.095014 36.55593-39.851454v-725.748315c0-20.6942044-15.784391-37.9717578-36.394349-39.8371596l-374.113593-33.8609214c-22.001456-1.9913459-41.451465 14.2300532-43.44281 36.2315089zm-6.699919-34.2761375-.680765.2055286c-3.894279 1.1834809-7.722005 2.614216-11.459324 4.2882342-14.120788 6.3249758-23.20924 20.3543901-23.20924 35.8270103v790.7090635c0 18.476944 13.38561 34.233401 31.619579 37.220011l4.862237.797312c-9.094272-10.517883-14.595409-24.228627-14.595409-39.224231v-791.9411404c0-1.8055823.081503-3.6102443.244261-5.408476 1.11959-12.3698269 5.918301-23.5216033 13.218661-32.4733122zm165.192313 172.9463166 209.240949 10.525763c13.834183.695921 24.693735 12.115489 24.693735 25.967165v452.410526c0 13.923361-10.968437 25.375423-24.878847 25.975816l-209.240949 9.031137c-.3735.01612-.747305.024184-1.121153.024184-14.359404 0-26-11.640597-26-26v-471.967426c0-.435628.010948-.871187.032835-1.306265.72143-14.341269 12.932161-25.38233 27.27343-24.6609zm-7.298688 25.665719c-.00505.100403-.007577.200917-.007577.301446v471.967426c0 3.313708 2.686291 6 6 6 .086273 0 .172535 0 .258728-.005581l209.240948-9.031137c3.210095-.138552 5.741273-2.781336 5.741273-5.994419l.000395-25.378786c-3.003371 1.143892-6.332882 1.756666-9.753573 1.756666-.502439 0-1.000093-.01-1.493648-.031459-1.933631 11.667141-11.681175 20.845226-23.904963 21.664045l-.42725.025155-151.042407 7.670971c-.439232.022307-.87896.033466-1.318759.033466-14.359403 0-26-11.640597-26-26v-419.195697c0-.512436.01515-1.024761.045429-1.536301.848476-14.334314 13.156559-25.266746 27.490873-24.41827l.182084.009986c.958818-.081113 1.927887-.024529 2.875006.170727l147.986202 8.759832c8.962278.530495 16.606474 5.544906 20.861629 12.745708 3.465958-1.856825 7.51401-2.898176 11.745804-2.898176.927984 0 1.847131.050076 2.75325.147847l-.000072-5.93624c0-3.196541-2.50605-5.831825-5.698554-5.992423l-209.240949-10.525762c-3.309524-.166484-6.127385 2.381453-6.293869 5.690976zm27.293046 360.63386.000121 82.343933c0 2.479847 1.504438 4.608313 3.650411 5.522497.004358-.134118.002752-.269921-.002942-.406485zm23.63087-339.816729-8.923418 212.469598 8.92277 213.973775c.011544.276831.018794.553256.021785.82919l133.69485-6.790595c3.294133-.167298 5.835541-2.962211 5.689812-6.257369l-.930168-21.020372c-.262572-3.388512-.397637-6.639361-.416933-9.43186l-7.555056-170.838665c-.013067-.295456-.01302-.591348.00014-.8868l8.902818-199.874404c.145932-3.276277-2.36573-6.062722-5.639526-6.256504l-133.757716-7.917724c.021719.663726.018797 1.331368-.009358 2.00173zm160.556278 341.798471c-.943509 0-1.785231.151636-2.423538.376483l-.076462.028517v40.877535l.000852.205723.384418 8.691482c.164001 2.051396.381686 4.156514.655577 6.19983l.071153.52443.070414.011885c.293201.042885.666768.074061 1.09754.082094l.220046.002034c.943506 0 1.785225-.151636 2.423531-.376483l.076469-.02953v-56.189l-.076461-.028517c-.574477-.202362-1.313719-.345424-2.143641-.372012zm-5.16065-239.125545-4.892377 109.821963 4.855165 109.783277c1.68665-.31604 3.43008-.479695 5.197862-.479695 3.420691 0 6.750203.612773 9.753574 1.756663l-.000324-217.90451c-.906119.097771-1.825266.147847-2.75325.147847-4.401471 0-8.60417-1.126533-12.16065-3.125545zm-175.514189-105.167522-.103074.046568c-1.902251.912615-3.265129 2.803063-3.39863 5.058462-.006988.118048-.010484.236276-.010484.354531l-.000121 83.054764 3.648487-86.858987c.023855-.567983-.023726-1.123382-.136178-1.655338zm187.674839 18.293067c-1.051938 0-1.942172.272071-2.487635.643557l-.012513.008701.000148 68.694742.012365.009443c.500008.340529 1.289719.597521 2.228126.637989l.259509.005568c1.1396 0 2.089422-.319306 2.616713-.7384l-.116713.0844v-68.693l-.012364-.009443c-.500008-.340529-1.289719-.597521-2.228126-.637989z"/></svg>