<svg height="960" viewBox="0 0 960 960" width="960" xmlns="http://www.w3.org/2000/svg"><path d="m792 388.8-.000761 248.200794c.166858-.000529.333779-.000794.500761-.000794 85.327994 0 154.5 69.172006 154.5 154.5s-69.172006 154.5-154.5 154.5c-85.160946 0-154.2291-68.901433-154.499205-153.999043l-354.726807-.000957c-63.664065 0-115.273988-51.609923-115.273988-115.273988v-287.926012zm.5 284.223121c-65.432973 0-118.476879 53.043906-118.476879 118.476879s53.043906 118.476879 118.476879 118.476879 118.476879-53.043906 118.476879-118.476879-53.043906-118.476879-118.476879-118.476879zm43.886586 54.363465 21.226828 21.226828-43.887414 43.885586 43.887414 43.887586-21.226828 21.226828-43.887586-43.887414-43.885586 43.887414-21.226828-21.226828 43.885414-43.887586-43.885414-43.885586 21.226828-21.226828 43.885586 43.885414zm-514.786586-127.386586c-26.509668 0-48 21.490332-48 48s21.490332 48 48 48 48-21.490332 48-48-21.490332-48-48-48zm163.2 0c-26.509668 0-48 21.490332-48 48s21.490332 48 48 48 48-21.490332 48-48-21.490332-48-48-48zm-163.2-153.6c-26.509668 0-48 21.490332-48 48s21.490332 48 48 48 48-21.490332 48-48-21.490332-48-48-48zm163.2 0c-26.509668 0-48 21.490332-48 48s21.490332 48 48 48 48-21.490332 48-48-21.490332-48-48-48zm163.2 0c-26.509668 0-48 21.490332-48 48s21.490332 48 48 48 48-21.490332 48-48-21.490332-48-48-48zm28.726012-278.4c63.664065 0 115.273988 51.609923 115.273988 115.273988v38.326012h-624v-38.326012c0-63.664065 51.609923-115.273988 115.273988-115.273988z" fill-rule="evenodd"/></svg>