<svg height="960" viewBox="0 0 960 960" width="960" xmlns="http://www.w3.org/2000/svg"><path d="m475 3c16.085936 0 31.488619 1.68584361 43.961928 4.91358572 7.883079 2.03991952 14.874438 4.71784028 21.141244 8.55190668 4.960818 3.0350563 9.435104 6.7575621 13.297126 11.6414251 5.815352 7.3540175 9.454987 16.4817566 9.595482 26.6987261l.00322.6133564.290164.2292845c3.233271 2.5843319 6.183944 5.5277062 8.803702 8.9458662l.458865.6081569c5.734591 7.7206468 9.188855 17.0915455 9.188855 27.4040885v673.1857319c0 1.965349-.141862 3.898009-.415967 5.788205l-.003619.018667-.018715.151873c-.866579 6.483387-2.944823 12.323725-5.960629 17.539743l-.122656.208384 1.256543.398947 1.528882.497599.137743.045717 1.089503.363801.138851.046647c1.951934.659735 3.866491 1.341237 5.742334 2.044512.641706.240584 1.278658.483629 1.911014.729217 3.840945 1.491696 7.517262 3.079025 11.01891 4.76454.280798.135163.56019.270819.838547.407152l.184491.090949.868777.431062.186331.093057c.976129.490677 1.938466.989604 2.887022 1.497028 1.348245.721243 2.668322 1.459469 3.959923 2.215297.275988.161502.551018.324013.82494.487453 2.976629 1.776083 5.802914 3.650349 8.472851 5.632738.646279.479843 1.283843.966379 1.912678 1.459856.667201.523602 1.323656 1.054293 1.969832 1.592782.089314.07443.178304.149249.266965.224455l.581383.493147c.090069.0764.179799.153197.269188.230392 4.847115 4.185866 9.07626 8.818497 12.57425 13.983278.099864.147449.198742.295564.296628.444334l.348012.528918c.099329.150964.197634.302599.294908.454895 5.895992 9.230979 9.220494 19.732551 9.220494 30.863522l-.009.902705.009 14.090172c0 .233664 0 .467319-.005723.70094l-.017997.700733c-.653862 18.978013-10.333771 34.554611-25.141642 46.403313-10.331146 8.266594-23.370153 14.855843-38.674156 20.101564-27.532126 9.437128-62.895119 14.580278-100.160482 14.580278-37.160569 0-72.430354-5.114329-99.92795-14.50108-15.26331-5.210379-28.281831-11.753232-38.616052-19.952041-14.445931-11.460895-24.074639-26.425371-25.322937-44.683053l-.013061-.213826-.022144-.285198c-.048646-.700015-.079367-1.405324-.091687-2.115502l-.006169-.711785v-15.01722c0-8.382472 1.899184-16.490667 5.417745-23.977034l.334601-.700014c5.006942-10.301899 12.689864-18.767821 22.32996-25.855627l.24404-.178012.65571-.474519c.080356-.058152.160929-.116005.241716-.173557 3.771823-2.687037 7.843443-5.173553 12.199326-7.481803 2.789478-1.47818 5.699994-2.885403 8.726948-4.22457.539844-.238833 1.083243-.475437 1.630568-.709996 4.146561-1.777007 8.516542-3.435718 13.090892-4.975176l.515494-.171987-.297242-.48765c-3.209309-5.320525-5.441619-11.229461-6.422747-17.582079l-.085011-.575271-.057247-.372667c-.243649-1.680174-.382809-3.3939-.410725-5.134313l-.005241-.653892v-673.1857319c0-.3914175.005745-.7828138.017234-1.1740626l.008549-.2911539c.011484-.3910898.028706-.78199.051659-1.1725745.696418-11.850459 5.506302-21.4852557 12.655464-29.059987l.158307-.1666181v-5.3225822c0-.2083776.001645-.4167488.00491-.6250944l.014678-.6249414.006431-.2054048c.01305-.4168282.032617-.8334269.058695-1.2496431.631439-10.0779566 4.584553-18.830214 10.512329-25.8255654 3.840035-4.5316137 8.205326-8.0050202 13.011904-10.8519594 6.186462-3.6642456 13.082445-6.25168964 20.833142-8.22697799 12.39632-3.15923959 27.643327-4.80983131 43.557911-4.80983131zm-118.997651 856.726214.009651.311761-.011.000025.015612.666929c1.095018 23.423679 56.184912 42.295071 123.983388 42.295071 68.128852 0 123.424965-19.055757 123.995544-42.637819l-.004368-.32379.004824-.232391-.006483-.377272c-.590062-15.894071-26.040242-29.70921-63.482957-36.98262l-2.22056 31.570892-.014525.298683c-.360804 6.012332-3.081524 10.900244-6.950475 14.542854l-.292305.270859c-2.311519 2.108176-4.809298 3.607341-7.581767 4.831543-3.515737 1.552398-7.625623 2.690251-12.428813 3.591162-8.282085 1.553429-18.933957 2.413087-30.271633 2.446954h-1.323231c-11.277776-.033867-21.929648-.893525-30.211733-2.446954-4.80319-.900911-8.913076-2.038764-12.428812-3.591162-2.77247-1.224202-5.270249-2.723367-7.581768-4.831543-4.023745-3.669777-6.872956-8.651073-7.242779-14.813713l-.013159-.256683-2.312767-31.639812c-37.7522 7.311448-63.348183 21.268304-63.629884 37.307026zm121.497651-53.726214c-14.04848 0-27.561076-1.385605-39.306311-3.984622l3.723624 50.928607c0 3.85796 16.761283 6.99276 37.565838 7.05507h1.263331c20.804555-.06231 37.565839-3.19711 37.565839-7.05507l2.361968-33.589423c-.133866-.016114-.267837-.032151-.401911-.04811l.031099-.445207c-.010366-.001234-.020732-.002467-.031099-.003701l1.26909-17.980991c-12.77959 3.331193-28.063952 5.123447-44.041468 5.123447zm-63.392148-687.837753.000935 647.629881.018631.000304c.017229.239324.046362.477667.087209.714967.00304.02092.008163.041556.013375.062184.00747.029574.015156.059257.023023.088922l-.023023-.088922c.031754.125694.066779.251076.105048.376136l-.082025-.287214c.032437.122303.067971.244308.106578.366007l-.024553-.078793c.029626.096819.061196.193445.094696.289874l-.070143-.211081c.035021.110398.072571.220544.112628.330431l-.042485-.11935c.081165.233628.17366.466101.277298.697354.01482.033073.029976.066352.045362.099606l-.045362-.099606c.098174.219064.206348.437034.324359.653856.022097.040599.044623.081308.067495.121977l-.067495-.121977c.122188.224494.254922.447758.398025.669732.020138.031235.040319.062198.060702.093137l-.060702-.093137c.141406.219341.292935.437422.454418.654186.024287.032604.049132.065617.074208.098599l-.074208-.098599c.062451.08383.12639.167463.191808.250896l-.1176-.152297c.074205.097601.150431.194932.22866.291988l-.11106-.139691c.107716.137379.219441.274215.335131.410493l-.224071-.270802c.088229.109462.179008.218575.272313.32733l-.048242-.056528c.075949.089466.153607.178691.232961.267671l-.184719-.211143c.089574.104406.181477.208483.275688.312224l-.090969-.101081c.108529.121695.220231.242933.335073.363701l-.244104-.26262c.097631.107505.197741.21465.300308.321426l-.056204-.058806c.399687.420314.837412.834953 1.311821 1.243467.00228.001962.004974.004281.007669.0066l-.007669-.0066c.110375.095043.222735.189754.337064.284128.022506.018579.04517.03721.06791.055829l-.06791-.055829c.120724.099654.243644.198932.368738.297826l-.300828-.241997c.11907.097487.240242.194611.363499.291368l-.062671-.049371c.128793.101819.259891.203231.393273.304231l-.330602-.25486c.136233.106942.275013.213435.416312.319468l-.08571-.064608c.119172.090239.240166.180148.362968.269722l-.277258-.205114c.12767.095806.257398.191237.389165.286288l-.111907-.081174c.141261.103039.284914.205634.430934.307779l-.319027-.226605c.160964.116112.324971.231656.491986.34662l-.172959-.120015c.124272.08693.250259.173534.377946.259807l-.204987-.139792c.121183.083416.243949.166527.368287.249328.173462.115515.349981.230428.529523.344726.064704.041193.130129.082512.195948.123749l-.195948-.123749c.110222.070169.221583.140107.334074.20981l-.138126-.086061c.474489.297278.969491.590339 1.484375.878971.052789.029592.105739.059111.158897.088584.114916.063713.230998.127314.348049.190694l-.348049-.190694c.152034.084292.305768.168202.461187.251724l-.113138-.06103c.173597.093998.349324.18751.527158.280527.327732.171423.662619.341168 1.004521.509187.049542.024345.098666.048379.147933.072377l-.147933-.072377c.206522.10149.415604.20235.627214.302571l-.479281-.230194c.205022.099866.41253.199117.622494.297742l-.143213-.067548c.359976.170487.727267.339123 1.101723.505855.059136.026331.118742.052744.178527.079108l-.178527-.079108c.179072.079734.359782.159033.542114.237892l-.363587-.158784c.182404.080437.366482.160426.552215.239961l-.188628-.081177c.40891.176853.825976.351489 1.251009.523845.047311.019185.09503.038467.142848.05772l-.142848-.05772c.383688.15559.773869.309321 1.170404.461148.088049.033712.176091.067209.264442.100612l-.264442-.100612c.87877.336467 1.788745.663579 2.728414.98083.027214.009188.054833.018496.082479.027796l-.082479-.027796c.444623.150114.895895.29802 1.353655.443665.073258.023309.14653.046511.219967.069656l-.219967-.069656c.217776.06929.437021.138068.657717.206329l-.43775-.136673c.194688.061358.390533.12231.587526.18285l-.149776-.046177c.213428.066012.428214.131541.644342.19658l-.494566-.150403c.273963.084195.550144.167596.828509.250191 9.870709 2.928763 22.487979 4.844442 36.395981 5.259997l.000842-74.507144c0-29.594606-2.319949-45.117312-10.256677-64.347382-4.219709-10.224025-6.776596-19.87269-8.065025-29.426766-.937334-6.950599-1.122825-11.999674-1.07934-21.093924.003754-.785215.005903-1.274333.007022-1.67891l.000599-.259516.000359-466.93026c-9.27258-1.018215-17.84533-2.604725-25.2413-4.70122-4.822057-1.366882-9.17835-2.952476-13.036478-4.807547zm113.747818 4.807547c-13.742305 3.895457-31.547403 6.030206-50.35567 6.030206-1.714102 0-3.419872-.017731-5.114994-.052909l.00025 465.684478-.000618.272051c-.001154.422511-.003366.926296-.007217 1.731711-.082353 17.222959 1.29593 27.443328 7.631901 42.794889 9.082017 22.005016 11.76937 39.986013 11.76937 71.977552l.000535 74.052983c12.836378-.986778 24.18708-3.275218 32.744116-6.427742.032362-.011923.064087-.023638.095774-.035364l-.095774.035364c.61967-.228295 1.224689-.461121 1.814562-.698312.091208-.036675.182389-.07359.273204-.110611l-.273204.110611c.436432-.175492.864573-.353374 1.284221-.533577.095315-.040929.190948-.082307.286135-.123806l-.286135.123806c.169363-.072728.337344-.145834.503927-.219314l-.217792.095508c.143451-.062541.285886-.125357.427296-.188445l-.209504.092937c.59826-.26389 1.178506-.532603 1.740128-.805932.031433-.015298.062719-.030567.093947-.04585l-.093947.04585c.36008-.175243.712504-.352384 1.05711-.531368.047444-.024642.09487-.049387.142146-.074167l-.142146.074167c.525578-.27298 1.032972-.550248 1.521608-.831613.0312-.017966.06188-.035692.092486-.053434l-.092486.053434c.472238-.271923.926957-.547672 1.363639-.827075.050623-.03239.101234-.064978.1516-.097615l-.1516.097615c.160182-.10249.317937-.205471.473239-.308935l-.321639.21132c.133875-.086752.266016-.173853.396408-.261296l-.074769.049976c.159243-.106089.315907-.212686.469965-.319781l-.395196.269805c.175836-.117919.348491-.236462.517928-.355617l-.122732.085812c.097732-.06794.194416-.136081.290044-.20442l-.167312.118608c.13604-.095669.270006-.191733.401877-.288184l-.234565.169576c.435026-.310884.848204-.625874 1.238871-.944747.040843-.033336.081797-.06701.122501-.100727l-.122501.100727c.113513-.092652.225125-.185632.33482-.278934l-.212319.178207c.125675-.104106.248957-.20862.36982-.313537.083527-.072509.165493-.144847.246309-.217371l-.246309.217371c.114187-.09912.226216-.198599.336069-.29843l-.08976.081059c.329995-.296142.640807-.595409.931931-.897633.044335-.046023.088422-.092338.132047-.138721l-.132047.138721c.100746-.104587.199134-.209529.295144-.314818l-.163097.176097c.082562-.087783.163466-.175811.242701-.264081l-.079604.087984c.103174-.113146.203602-.226693.301256-.340632l-.221652.252648c.111533-.124253.219758-.248984.324639-.374183l-.102987.121535c.081989-.095661.162023-.191599.240086-.287807l-.137099.166272c.080304-.095859.158648-.191993.235016-.288396l-.097917.122124c.077062-.094975.152204-.190213.225412-.285711l-.127495.163587c.090682-.114471.178578-.22932.263664-.34454.055178-.074719.10924-.149687.16211-.224809l-.16211.224809c.070467-.095424.139006-.191102.205602-.287029l-.043492.06222c.069585-.098872.137105-.198011.202544-.297411l-.159052.235191c.069478-.100078.136842-.200427.202075-.301041l-.043023.06585c.146352-.222303.282295-.445911.40765-.670766.013483-.024185.026749-.048212.039893-.072253l-.039893.072253c.05876-.105398.115193-.211071.169281-.317011l-.129388.244758c.056478-.103295.110722-.206851.162716-.310662l-.033328.065904c.060216-.117944.117527-.236219.171905-.354817l-.138577.288913c.059957-.119712.116922-.239763.170867-.360144l-.03229.071231c.050218-.109524.097935-.219324.143132-.329392l-.110842.258161c.048001-.107117.093612-.214495.136813-.322129l-.025971.063968c.040296-.098132.078588-.196477.114862-.295032l-.088891.231064c.042983-.107091.083582-.214434.121776-.322025l-.032885.090961c.045985-.124937.088727-.250209.128198-.375808l-.095313.284847c.044022-.124003.08485-.248334.122458-.372983l-.027145.088136c.033363-.106161.064388-.212555.093058-.319177l-.065913.231041c.03191-.105766.061501-.211761.088756-.31798l-.022843.086939c.061222-.227675.111706-.456385.151282-.686074.006145-.035668.012018-.071295.017627-.106944l-.017627.106944c.019302-.112026.03601-.224284.050103-.336768l-.032476.229824c.015427-.098046.028867-.196267.040307-.294661l-.007831.064837c.016132-.128757.028838-.25781.038088-.387149l.018502.00022.00071-647.164843c-3.884913 1.877606-8.277699 3.480162-13.14504 4.859881zm-100.436126-42.5398967.001397.4417181-.420941.1493846v8.979c0 5.0109785 12.285692 9.3045877 29.737491 11.100932 1.607748-1.1028884 3.55271-1.7474326 5.648214-1.7474326 2.565721 0 4.905759.9662616 6.676068 2.5547366 1.945214.060849 3.927279.091764 5.938227.091764 26.509668 0 48-5.372583 48-12l.001568-9.5053186c-2.818282 1.1837111-5.905571 2.1986464-9.257414 3.0826491-10.584163 2.7914276-24.154671 4.3052318-38.456809 4.3052318-14.302139 0-27.872647-1.5138042-38.456809-4.3052318-3.412834-.900088-6.551397-1.9359167-9.410992-3.1474332zm47.660672-37.4298809-.417216.0009836-.365065.0016822c-25.596246.1388959-46.183781 5.6546626-46.183781 12.4385989 0 6.8711299 21.120157 12.4412812 47.173191 12.4412812 25.360404 0 46.04673-5.2779192 47.128713-11.8961054l-.001424-.5513105c0-6.8198597-20.969173-12.3574512-46.94801-12.434336-.12855-.0005613-.257419-.0007413-.386408-.000794z"/></svg>