<svg height="960" viewBox="0 0 960 960" width="960" xmlns="http://www.w3.org/2000/svg"><path d="m633.291219 139.940185 16.39686 28.400756.646507-.338801c28.09384-14.447051 62.806321-4.678321 79.158608 22.613131l.505004.858554 206.367552 357.439084c45.895405 79.493173 18.659032 181.1407-60.834141 227.036105s-181.1407 18.659032-227.036102-60.834136l-181.333428-314.077937-111.867416 417.497449c-25.275901 94.330945-121.519561 150.694628-215.895667 127.039558l-2.859235-.741357c-95.2837834-25.531213-151.8294143-123.471118-126.2982015-218.754902l117.3287185-437.876738c8.893933-33.192611 43.011819-52.890581 76.20443-43.996648.331926.088939.662503.180401.991715.274359l.418656.123279 10.333524-38.564799c20.979517-78.296623 101.458729-124.7613174 179.755351-103.781801 7.85993 2.106062 15.46554 4.833865 22.760909 8.142451l.349216.160149.430546-.421517c7.83266-7.604204 16.621003-14.311145 26.240657-19.9510731l.803559-.4675204c65.626542-37.8895017 149.542876-15.4041879 187.432378 50.2223545zm-218.158068 131.791077-140.843177 525.638855c-13.461018 50.237206-65.098631 80.050195-115.335836 66.589177-50.237206-13.461019-80.0501953-65.098632-66.5891768-115.335837l117.3287188-437.876738c.047733-.178143.09316-.35636.136299-.53462l-.695656-.156128c1.873642-6.992528.194193-14.10004-3.931642-19.405664-2.825722-3.348929-6.668007-5.898151-11.221378-7.118223-11.853967-3.176261-24.038375 3.85841-27.214636 15.712377l-117.3287179 437.876738c-11.8700043 44.299459-.8793432 89.338721 25.7404098 122.592334 17.7712369 21.914856 42.3766311 38.621057 71.7141641 46.482025 73.945139 19.813541 149.951567-24.068791 169.765107-98.01393l129.391521-482.903366zm-284.687716 412.045274-18.761957 70.023302c-10.602183 39.567883 12.879157 80.238757 52.447041 90.840939 39.567883 10.602183 80.238757-12.879157 90.840939-52.44704l18.669977-69.677201-1.156229.83083c-21.873455 15.458089-50.087514 21.608642-77.994773 14.613776l-1.52187-.394598c-28.908229-7.745936-51.117361-28.01371-62.355428-53.404055zm468.204767-523.027106c-26.843806-46.494837-86.296524-62.4251448-132.791361-35.581338-46.494837 26.843807-62.425145 86.296524-35.581338 132.791361l23.092648 39.997809.148928-.551321 229.617441 397.708932c34.84971 60.361468 112.033621 81.042835 172.395089 46.193125 40.333843-23.286755 62.950595-65.47565 63.121084-108.917163-.052544-21.308193-5.509544-42.891405-16.927959-62.668681l-206.367552-357.439084c-5.586673-9.676401-17.959839-12.991781-27.636241-7.405108-6.369956 3.677696-9.983324 10.296362-10.115203 17.150636.069213 3.295275.945685 6.620312 2.710095 9.67636l-.348019.181476c.111908.21044.227906.419728.348019.627769l206.367551 357.439084c23.676364 41.008665 9.625758 93.446242-31.382908 117.122606-41.008665 23.676364-93.446242 9.625758-117.122606-31.382907l-252.859017-437.964665c-15.670461-27.142034-6.370913-61.848419 20.771121-77.518879 27.142034-15.670461 61.848418-6.370913 77.518879 20.771121l192.865067 334.052095c7.7004 13.337484 3.13064 30.392058-10.206843 38.092458-13.337484 7.700399-30.392058 3.13064-38.092458-10.206844l-146.373601-253.526514c-5.586673-9.676402-17.95984-12.991782-27.636242-7.405109-9.676401 5.586673-12.991781 17.95984-7.405108 27.636242l146.373601 253.526514c18.873746 32.690287 60.674654 43.890806 93.36494 25.01706 32.690287-18.873746 43.890806-60.674653 25.017061-93.36494zm-343.93521 56.331221-109.651982 409.22677c-10.730526 40.046869 13.035065 81.210081 53.081934 91.940607s81.21008-13.035065 91.940607-53.081934l83.219609-310.579811c3.176261-11.853967-3.85841-24.038374-15.712377-27.214635s-24.038374 3.85841-27.214635 15.712377l-83.21961 310.579811c-4.378004 16.338934-21.172401 26.035184-37.511336 21.65718-16.338935-4.378005-26.035184-21.172402-21.65718-37.511337l109.651982-409.226769c8.909323-33.250045 43.086242-52.982098 76.336286-44.072776 9.088849 2.43535 17.167641 6.758679 23.927491 12.434979 1.664214-15.524795 6.411794-30.626323 13.983564-44.34244-8.079501-4.735635-16.923019-8.477844-26.408796-11.019551-56.957979-15.261844-115.503712 18.539551-130.765557 75.497529zm564.091585 329.947043-.181739.859734c-5.137994 23.41437-19.730875 44.669351-42.126629 57.599545l-1.271176.720247c-22.093515 12.282509-47.259436 14.083328-69.674808 6.962711l-.465876-.152125 30.412029 52.67518c18.153517 31.442812 58.359285 42.215916 89.802098 24.062399 31.442813-18.153516 42.216146-58.359418 24.06263-89.802231zm-501.846056-313.268403-109.651983 409.226769c-1.519168 5.669613 1.845432 11.497271 7.515045 13.016439s11.497271-1.845432 13.016439-7.515044l83.219609-310.579811c6.035098-22.523289 29.186244-35.88961 51.709533-29.854513 7.214077 1.933006 13.488756 5.621919 18.48742 10.483702l.498851.492703 16.977114-63.359497c5.989982-22.354914-7.083854-45.326761-29.255982-51.654743l-.674657-.186645c-22.580723-6.050486-45.790903 7.349917-51.841389 29.93064zm229.327824-42.778728c-10.147613-17.576182-32.62219-23.598226-50.198371-13.450613l-.523815.308109c-17.171191 10.288506-22.972935 32.489842-12.926798 49.890262l28.372488 49.142591.07549-.112617c3.293486-4.812779 7.689606-8.981488 13.077437-12.092154 19.242254-11.10952 43.847229-4.516637 54.95675 14.725617l146.373601 253.526514c2.177552 3.771631 7.000318 5.063888 10.77195 2.886335 3.771631-2.177552 5.063887-7.000318 2.886335-10.771949z"/></svg>