<svg height="960" viewBox="0 0 960 960" width="960" xmlns="http://www.w3.org/2000/svg"><path d="m321.117944 4.25295156.764332.09440435.059724.00764409 361.78522 6.432608c26.745672.4754872 48.274528 21.8859328 49.087429 48.4337036l.018276.8060341.005489.8172692-1.089824 839.5328431c-.035066 27.012396-21.503211 49.059095-48.40423 49.909753l-.816828.019273-364.443888 5.685274c-1.068218.011183-2.136627-.002075-3.204083-.04282l-1.067097-.05002-39.443238-2.196772c-26.228024-1.460757-46.804474-22.952404-47.21338-49.128015l-.006203-.794618v-847.2427915c0-26.1193446 20.091337-47.78901502 46.041211-49.84314206l.788139-.0562265 40.098256-2.54787879c2.388591-.15177316 4.741626-.09690531 7.040695.16347741zm-4.370301 485.78086144.00051 415.809605.003842.279905c.14567 5.300434 4.415819 9.570582 9.716253 9.716253l.279905.003842 355.156259-5.53208.2765-.008063c5.235288-.223945 9.414436-4.463203 9.563598-9.701155l.004113-.276587.53002-409.32372-69.203713.001099c-.645543 12.993639-12.131344 22.895663-25.753748 23.126623l-.425631.004061-163.541451.348641c-14.114022.029949-26.010459-10.438165-26.246976-24.039575l-.000481-.003849zm-18.53942-444.8556075-21.69271 1.3786422c-5.173629.328737-9.221657 4.5511948-9.3621 9.7030114l-.00377.2768624v847.2427915c0 5.2137 4.001152 9.535364 9.166124 9.965238l.277792.019289 21.566728 1.201765c-.856003-2.684868-1.34426-5.533876-1.405556-8.487823l-.006578-.634574-.00051-416.341595-12.376632-.510378c-5.518144-.22788-9.806751-4.885952-9.578871-10.404097.224017-5.424616 4.729324-9.661021 10.124271-9.586582l.279825.007711 11.551407.476346.00051-415.2579182.00474-.3110534c.054183-3.0477802.561039-5.9813112 1.45533-8.7376359zm302.496431 673.4556615c0 3.933131-1.705786 7.63682-4.608593 10.235549l-75.234887 65.872604c-3.601421 3.153235-8.918207 3.304325-12.687749.400116l-.238477-.189525-75.262799-61.683392-.126313-.105271c-5.899644-4.999591-6.524529-13.810716-1.581928-19.684747 2.588905-3.074059 6.372399-4.906373 10.397682-5.0029l54.873001-1.31587c5.52126-.132402 10.104459 4.236131 10.23686 9.757392.132401 5.52126-4.236132 10.104458-9.757392 10.236859l-38.816059.930318 56.161 46.029 55.633-48.71-36.960569.886976c-5.52126.132401-10.104459-4.236132-10.23686-9.757392-.132401-5.521261 4.236132-10.104459 9.757392-10.23686l54.25802-1.301123c7.671361-.183961 14.194671 5.821769 14.194671 13.638266zm-167.393084-255.345002c-3.580308-.007594-6.083546 2.143658-6.203525 4.291633l-.004509.161058v22.28799c0 2.146461 2.415913 4.35025 5.941505 4.449247l.26648.003445 163.541404-.348597c3.623327-.007722 6.123153-2.128628 6.24588-4.131881l.004731-.153826v-21.924765c0-1.995753-2.409243-4.166359-5.974133-4.280983l-.276481-.004724zm-106.472927-418.8400522-.192666.000733c-5.302186.0514311-9.647563 4.2450015-9.888927 9.5420091l-.008897.2797923-.00051 415.7624658 90.355.405.000893-2.697257c0-13.663958 11.755296-24.269011 25.823603-24.450392l.42701-.002298 163.541399.348641c14.068054.029981 25.96781 10.381094 26.204398 23.875777l.00359.409885-.000893 3.078644h69.202l.533804-410.2091233-.003381-.2766754c-.135654-5.2397906-4.306047-9.490499-9.542297-9.7260522l-.27656-.0086738zm193.614607 122.3159822.236633.191963 75.22976 62.929082c2.92417 2.498704 4.673381 6.105893 4.779851 9.965579l.00516.374278c0 7.656301-6.277505 13.680963-13.804102 13.794503l-54.25802.818494c-5.522219.083304-10.066394-4.325808-10.149697-9.848027-.083304-5.522219 4.325808-10.066394 9.848027-10.149697l37.652138-.56797-55.635-46.538-56.164 48.224 38.12949-.574701c5.522219-.083304 10.066394 4.325808 10.149697 9.848028.083304 5.522219-4.325808 10.066393-9.848027 10.149697l-54.873001.827771c-4.088565.061677-7.994063-1.677152-10.683727-4.765781-4.972706-5.715548-4.445265-14.325202 1.051642-19.442643l.25723-.233686 75.382012-64.727581c3.632763-3.119231 8.952615-3.218018 12.693934-.275309z"/></svg>