<svg height="960" viewBox="0 0 960 960" width="960" xmlns="http://www.w3.org/2000/svg"><path d="m288.183196 11.1068658c83.353375 7.7927668 589.103724 55.8160493 603.724116 57.4896484 7.59234.8690966 14.212698 2.1909387 20.711022 4.4348089 9.076821 3.134225 17.229747 7.9034388 24.168993 14.7466139 13.973954 13.78049 19.631759 32.001302 19.631759 54.214615v638.964564c0 6.198568-.196449 10.813242-.813115 15.397415-1.106168 8.223034-3.488537 15.691288-8.434602 22.951973-5.925566 8.698565-13.99597 14.517787-23.180458 17.906241-4.934087 1.820344-9.063043 2.676693-14.919156 3.524794-2.055396.297669-36.005301 5.944116-104.495193 17.376248-5.274521.880408-10.715187 1.788638-16.630375 2.776169l-1.554059.259449c-1.043486.174211-2.102136.350955-3.177571.530504l-1.625944.271462c-5.5892.933156-11.638851 1.943245-18.366078 3.066513l-2.147164.35852c-1.446796.241578-2.924636.488342-4.435546.740629l-1.139415.190256c-2.289756.382337-7.153551 1.194492-12.129781 2.025423l-1.400501.233855c-3.265287.545238-6.479609 1.081967-8.94726 1.494016l-.684124.114235c-1.766947.295046-3.061989.511293-3.577425.597361l-.030815.004765-.021.003687-.022949.004032-.027051.003968-.136.023-.760442.127237c-2.386756.39854-4.650529.776542-6.818338 1.138518l-1.835251.306445c-6.043367 1.009104-11.366376 1.897906-16.59922 2.771626l-1.567779.261769c-43.280906 7.226508-77.569457 12.949579-110.537144 18.448695l-2.600108.433699c-.865881.144426-1.730987.288721-2.595458.432908l-2.591647.432257c-.882172.147133-.882172.147133-1.764353.294265-218.729305 36.479986-323.96266 53.882573-331.708465 54.630384-21.633337 2.088567-30.211685.981156-45.309683-7.979343-.934733-.554753-4.618748-2.703858-8.361334-4.884333l-.72438-.422c-2.774055-1.615949-5.484794-3.193659-7.033296-4.09479l-.348067-.20255c-.595338-.346436-.949716-.552623-.970125-.564532-.19922-.116259-.19922-.116259-.398505-.232583-7.88533-4.602997-13.327682-7.828052-16.937819-10.069842-3.492959-2.169026-6.295819-4.100037-9.072621-6.405076-4.546285-3.773896-8.431771-8.115259-11.568786-13.522726-3.30959-5.704942-5.193634-11.606955-6.054527-17.713638-.486153-3.448488-.599146-6.190439-.599146-10.010327l-.000506-5.236063-16.218-9.07-.147672.02755c-3.616458.661292-9.291011 1.573988-17.529249 2.834856l-.592812.090656c-7.4631839 1.140376-12.0837719 1.744041-16.2058063 2.038453-8.6240639.615965-15.7192236.077931-24.1093818-3.464862-2.3887909-1.008681-1.7032625-.626121-4.7614606-2.387013-.3164216-.182194-.6902751-.400086-1.1451243-.666913-.7750887-.454689-1.8263585-1.075675-3.1176588-1.841316-2.4234448-1.436913-5.6409299-3.352955-8.9521291-5.330826-10.0536745-6.005336-13.9528597-8.352714-15.5777002-9.461167-.6007112-.4098-1.1930631-.827763-1.7783791-1.255781-10.7849938-7.886625-17.9632155-18.461795-20.8864645-31.651423-.4528038-2.04304-.78620128-3.78799-1.03025582-5.54354l-.07808375-.585999c-.38676238-3.034066-.51843685-6.201301-.54859291-11.078548l-.00222932-.428127-.25083027-1.209472c-.43599202-2.29727-.70169854-4.71994-.77815649-7.267514l-.02301324-1.543529v-642.803104c0-26.58271 5.4691648-47.2220178 17.964475-62.7924371 6.3011782-7.8519048 13.904577-13.7414635 22.4645463-17.9322569 5.7828753-2.8311825 10.7522831-4.4371987 17.3062925-6.0722921 4.6417941-1.1580342 63.6104257-14.2425101 70.5377307-15.7990948 1.408288-.3164463 2.794654-.6284118 4.160456-.9362149 30.613937-6.8992928 51.43322-11.8402652 59.374553-14.1693118 31.419718-9.2148241 56.451462-12.32697398 88.341638-9.3455386zm628.235308 721.6530782 4.951466-.666324c-417.688033 56.311979-631.255036 84.999446-642.381383 86.286416-.584967.067662-1.192676.138589-1.856754.216629-.244947.028785-1.596027.188664-2.996273.35405l-.525332.062032c-1.047016.123599-2.047371.241465-2.555154.300615-2.324665.270789-4.230405.483592-6.071184.674947-8.77374.912059-16.401016 1.322871-24.215536 1.143825l-.001302 89.562859c1.338978-.115603 2.839533-.256812 4.534363-.420438 14.301219-1.380696 646.746329-107.488844 658.037225-109.124027 11.177986-1.618831 13.043705-3.237805 13.080446-19.690296zm-868.3849995 7.545v40.652172c.6962771-13.239587 1.0513785-13.504378 1.065304-.794375l.0004263.794375c0 2.636789-.0168225 4.985102-.0197713 7.089652l-.0003668.828925c.0071744 11.289888.5644445 15.298832 6.8723165 19.602012.3769095.257125 3.2595494 1.999683 6.9975009 4.243037l1.0203476.612073c1.0860833.651206 2.227711 1.334806 3.3886149 2.029163l.7763936.46426 1.1700757.69925c.2168756.129561.4337212.259078.6503066.388415l.5877789.350938-.000264-7.99379c0-4.040165.5424998-7.308137 2.0012151-10.155457 2.2215566-4.336337 6.369901-6.970623 11.1721188-7.035778 2.9121358-.039511 5.3992212.76292 8.1373721 2.154735.2896396.147225.5415287.277263.7845302.406762l.2411078.129935c.8409914.458459 1.6909642.978278 3.7874042 2.27318.4325702.267184.7555027.464798 1.0611326.648684 3.5791838 2.153461 10.8286238 6.629125 21.7867478 13.450229l.000359-.667636 62.252855 34.816359v28.69563c0 7.055043.542546 8.79337 8.396494 13.670444 6.724591 4.175775 22.317952 13.169253 30.605996 18.009231l-.001116-86.249218c-13.844458-2.262012-29.419478-7.698135-46.809017-16.247072-2.773734-1.363606-4.723265-3.909657-5.361647-6.856154l-.058216-.285645-88.5989995-42.085-2.2603958.000916c-1.4227538 0-2.827605-.30358-4.1212181-.888711l-.3499755-.166546zm42.5086629 76.425638-.0009423 7.833219c2.6091274-.278779 5.9784547-.751311 10.3857539-1.422882-4.3323727-2.68827-7.7850822-4.819227-10.3533592-6.391095zm825.8763366-250.805638 3.291901-.23598c-407.040183 29.234762-617.282088 44.187584-632.022597 44.948818-.257597.013303-.513872.026644-.769602.040068l-.766326.040558-.767704.041308c-3.336419.180999-6.842668.390391-12.222208.722875-15.146084.936106-24.750762 1.446611-32.394159 1.561799l.000481 188.080163c7.091803.185649 14.006443-.182741 22.147678-1.029049 1.747403-.181649 3.575741-.385808 5.825044-.647819.515907-.060096 1.560343-.183186 2.641312-.310812l.541252-.063921c1.199423-.141683 2.342715-.276939 2.754987-.325579l.119017-.014023c.675479-.079379 1.29505-.151691 1.892954-.220849 10.893434-1.26003 224.690251-29.977994 639.719297-85.931105zm-868.3849995-1.759.0003524 154.957666c1.5049546-.001119 3.0330668.338747 4.4708412 1.057445l27.5328064 13.763225 2.1580163.000916c1.3605702 0 2.7055008.277631 3.9528841.814429l.3377154.152811 96.1756727 45.683854c2.844794 1.351289 4.847759 3.939995 5.48916 6.943852l.052551.268138.853655.391589c11.791729 5.386891 22.3754 9.00743 31.711323 10.89059l.000254-186.888477c-11.95079-1.433998-28.164594-5.312014-48.863851-11.62015-2.104438-.641331-3.87565-1.93275-5.120752-3.613835l-.109629-.152505-81.9919995-23.525-.0940633.03182c-1.7623859.547197-3.6814511.609548-5.5486373.109444l-.2796628-.079244zm868.3849995-165.787 2.637303-.015767c-409.558946 2.530717-621.376823 3.794949-635.860984 3.794949h-.56279c-1.309373-.000821-2.59312-.003875-3.872096-.009466l-1.095583-.005418-.547827-.003181-1.097549-.007323c-6.597257-.047806-13.462317-.165699-23.431989-.375233-4.915757-.103315-8.70928-.181113-11.819654-.239134l.000171 191.517582c7.222491-.116611 16.486089-.608305 31.160712-1.515273 5.431246-.335679 8.981937-.547716 12.379336-.731976l.782081-.042073c.52062-.027777 1.040758-.055072 1.566701-.082233 14.492108-.748405 224.840678-15.708381 629.754785-44.78999zm-868.3849995-9.948.0003154 155.294919c.9471691.000409 1.9102418.136467 2.8641941.421679l28.7144905 8.58495.0862899-.027459c1.7023094-.511414 3.5472971-.572011 5.3492346-.111502l.2841316.077053 92.2457694 26.466818c2.189459.628191 4.031265 1.958086 5.309563 3.703187l.140011.196903.749736.221359c15.452649 4.5365 27.825747 7.458112 36.991456 8.772826l-.000032-190.744505c-10.234302-.271136-23.87974-1.285808-41.00213-3.039695l-.59503-.061891-.167606.080937c-1.398098.645583-2.966733.976695-4.611455.905303l-.274808-.015641-92.4063255-6.506713c-1.7770773-.125131-3.4558753-.718674-4.8866324-1.682972l-.2461726-.171914zm192.7336175-196.737732-.000103 189.821649c3.203259.05921 7.120246.139453 12.240221.24706 10.421947.21904 17.395809.336629 24.219501.378385l1.076658.005966c1.614557.008016 3.230427.011854 4.891424.011854l.491726-.00038c18.145705-.025006 229.184317-1.285264 632.723037-3.7786l.008918-148.604202-10.617276-.624044c-401.094251-23.581009-609.314906-35.66812-623.230129-36.180378-1.532729-.056424-3.138305-.117123-5.008385-.189074-.993499-.038224-1.947017-.075173-3.457926-.133906-15.562335-.604948-25.720784-.927458-33.337666-.95433zm-57.787277 3.228961-.676341.038424-.14783.16522c-1.541 1.66348-3.646457 2.806714-6.035935 3.118954l-.276953.032322-93.1954408 9.581101c-1.8425714.189429-3.6099688-.132139-5.1692373-.844717l-.0446034-.02188-28.3800699 2.910732c-.3423409.035099-.6824158.052491-1.0193143.052918l-.0005018 158.441796c.2729488.000306.5480704.011717.8248938.034633l33.5911459 2.780776c1.7014055.140847 3.3080799.710879 4.6885408 1.623201l.2373055.163933 82.7789995 5.827.083163-.04377c1.598595-.826612 3.441377-1.232521 5.372885-1.078056l.276517.025893c19.198281 2.06028 34.188223 3.241433 44.881681 3.549247l-.000695-188.698338c-8.680605.616028-21.269484 1.395634-37.78821 2.340611zm57.817185-128.1872531c-.019088.328436-.028638.6573569-.028638.9863472l-.000481 103.9670139c7.933665.027672 18.310925.360058 34.113742.974355 1.508454.058637 2.459782.095501 3.449984.133599 1.859841.071557 3.454797.131854 4.975219.187825 14.270668.525343 224.815901 12.749699 633.101373 36.755937l.010857-67.747445c0-25.829063-10.894886-31.576094-29.060874-33.655559-15.788425-1.807304-437.467566-41.7702321-566.762828-53.9937743l-61.840645-3.5933134c-9.373024-.5447445-17.412964 6.6119903-17.957709 15.9850146zm-18.010771-11.0946165-.492394.1236712c-3.699625.9343905-7.416016 1.9633624-11.195194 3.0717257-9.61888 2.8210402-32.410973 8.1507204-56.691987 13.6453767l-1.657694.3748638c-.829863.1875322-1.661148.3751943-2.493392.5628933l-1.665629.3754198c-1.388861.312845-2.779529.6256209-4.169859.9378975l-3.547726.7959526-1.806223.4045883c-.60155.1346763-1.202518.2691546-1.802728.4033996l-1.798183.402c-28.130428 6.2859356-54.2001375 11.9789358-60.0140071 13.4293792-12.1273877 3.025539-27.4177384 8.2575928-27.4177384 47.9865409v51.746932l32.5712353-3.338342c1.8422812-.188885 3.6093017.133022 5.1681891.845776l.0405756.018219 81.2359995-8.35.072612-.090923c1.661697-2.002639 4.09328-3.350179 6.859088-3.581782l.277679-.019423c21.2265-1.193171 36.742414-2.145653 46.509753-2.854288l-.000244-104.8089139c0-.7160376.020785-1.4319243.06233-2.1467556.201706-3.4706107.875565-6.8016083 1.955537-9.9342081z"/></svg>