<svg height="960" viewBox="0 0 960 960" width="960" xmlns="http://www.w3.org/2000/svg"><path d="m462.258777 45.157841 111.397022 3.1874519c211.538155 6.0528341 383.344201 175.7471421 383.344201 380.2376601v106.840344c0 202.218139-168.151871 370.783119-377.026699 380.007806-.103468.004569-.206952.008737-.310452.012503l-5.696744.207267-.256023.008494c-4.789917.143565-9.481571.291442-14.09699.443939-6.577603.21733-12.886433.439807-19.157745.674352l-5.371617.204155c-4.477679.172862-8.969927.352888-13.56102.542603-6.506455.268861-25.618689 1.091705-28.444059 1.209357-15.474395.644376-25.570391.945882-34.802457.956276l-1.041692-.000064c-.519243-.000651-1.036264-.002228-1.551881-.004723l-1.047644-.01341c-.34874-.002773-.697089-.005973-1.045303-.009598l-1.061905-.012369c-.708017-.00912-1.416551-.019984-2.12775-.03257-6.112136-.108166-12.161166-.355415-18.558366-.760627-.022469-.001423-7.163862-.383514-14.61622-.801648l-.74602-.04192-.771459-.043489c-.257067-.014516-.513955-.029048-.770387-.04358l-.767647-.043585c-3.445742-.19602-6.757542-.389648-9.250896-.546236-16.020824-1.006139-31.009589-2.211625-45.283974-3.749653-2.163908-.233155-4.297994-.472785-6.401643-.719142-10.710809-1.254334-21.786056-2.886435-33.12592-4.820373-7.218267-1.231027-14.256501-2.534653-21.260342-3.913228-2.670943-.525725-5.234442-1.042079-7.873544-1.583143l-1.190187-.244609c-.598155-.123227-1.209399-.249577-1.871969-.386865-.368373-.076328-1.992571-.41335-2.374485-.492393-141.164372-29.215909-238.8017233-136.817516-265.9373214-282.118791l-.2416386-1.338163-.3230796-.28999c-10.2757703-9.421102-16.76613165-23.04952-17.0349204-38.30514v-81.610702c0-10.297096 2.84269155-20.146404 7.90899918-28.58567l.15600082-.256498-.08231999-.162861c-3.80055513-7.613869-5.88216084-16.140771-5.97913042-24.882997l-.00354959-.64005v-80.655131c0-13.905127 5.00830922-27.368489 14.7408986-37.447046 1.9153018-1.983386 3.9722994-3.788812 6.1476742-5.406061l.4164272-.306854.2806752-1.116421c33.1445826-128.962947 124.5844068-222.8056049 252.9909558-251.7032729l4.154943-.9096188c.525793-.1119051 1.115926-.23388 1.766039-.3651198l1.019612-.2037076c8.86257-1.7537922 26.756723-4.8923259 45.170243-7.8432822l1.474028-.2356465c.491605-.0783956.983417-.156628 1.475276-.2346673l1.475555-.2335092c2.458952-.3881175 4.915031-.7706641 7.34806-1.1439128 35.85894-5.5010865 67.093628-9.2256477 90.131903-10.2507007 1.566741-.0697098 3.104698-.0521325 4.612291.0464246l.269419.0204337.721169-.0270116c7.994745-.2715097 16.018529-.2932143 24.063608-.0630169zm-26.998183 40.2126735c-.141011-.0734387-.278283-.1294327-.411767-.167813-177.564383 8.9340594-317.352231 155.8928755-317.352231 340.0545735v113.247322c0 193.415754 154.18939 345.795827 344.391641 340.350417l105.385554-3.017805c1.718016-.053399 3.463755-.106711 5.237939-.159887l5.696743-.207268c187.628105-8.286352 338.791527-159.398248 338.791527-340.046757v-106.840344c0-182.473241-154.232652-334.8101571-344.48827-340.2540246l-111.397023-3.1874519c-8.697157-.2488556-17.319038-.1679999-25.854113.229038zm-334.874371 499.8981355-.089781.312245c-3.0922187 9.70755-10.1728097 17.94907-19.411281 22.250504l-.277161.125601-.2470268.153759c-2.9288428 1.777456-6.3514927 2.824513-10.0166608 2.886339l-.3443124.002902-11.2549761.000361c23.3638254 126.615109 106.4975471 224.682186 234.8986851 251.256569.594362.123011 1.268179.26302 2.016545.418196-104.671129-51.775007-179.922444-154.31479-195.274031-277.406476zm447.025743 53.078549c7.621001 0 13.799043 7.030186 13.799043 15.702359 0 8.672174-6.178042 15.70236-13.799043 15.70236s-13.799043-7.030186-13.799043-15.70236c0-8.672173 6.178042-15.702359 13.799043-15.702359zm-490.9930103-155.048168-.3061568.001571c-7.4694784.123898-13.524687 6.698826-13.524687 14.685514v80.236208c0 7.986688 6.0552086 13.521354 13.524687 12.362024 7.4694785-1.15933 13.5246871-8.351241 13.5246871-16.063583v-77.480069c0-7.501045-5.7279615-13.525744-12.9140375-13.736243zm41.0784368-34.797654c-.9522881 8.155386-4.5789742 15.672215-10.2232327 21.084233l-.0619931.058608c4.423672 3.365797 7.9670703 7.829006 10.285234 12.963828zm-40.881796-98.159265c-6.7243319-1.15933-12.1754799 4.375337-12.1754799 12.362025v80.236208c0 7.986688 5.451148 14.561616 12.1754799 14.685514 6.7243318.123898 12.1754798-6.027752 12.1754798-13.740094v-77.480069c0-7.712342-5.451148-14.904253-12.1754798-16.063584zm229.7728535-244.502248-2.845539.668089c-114.701847 27.271757-191.56888 112.114375-219.6542884 223.490315l5.1113774.001732c3.2233931 0 6.2685767.762526 8.9650857 2.116984l.1119143.058016.3693412.149224c12.9236729 5.361347 21.3624476 19.080097 21.5504514 33.486124l.0032074.491369c0 .192704-.0027851.385397-.0083544.57802l-.6004548 20.447966c12.4052862-123.31692 84.7183612-227.036754 186.9972592-281.487839z"/></svg>