<svg height="960" viewBox="0 0 960 960" width="960" xmlns="http://www.w3.org/2000/svg"><g fill="#000" fill-rule="evenodd"><path d="m352.285596 183.95791 366.786925 331.719742c20.071084 18.15216 21.62668 49.13822 3.47452 69.209304-9.28973 10.271778-22.492417 16.132608-36.341912 16.132608h-48.214144l-.000985 358.980436h-637.99v-558.232l237.91862-217.503436c32.343575-29.568175 81.865303-29.700959 114.366976-.306654zm-130.24528 540.241883c-27.896912 4.274325-59.555542 21.636211-84.520857 46.354259-15.613371 15.459494-30.477017 34.254229-29.47115 37.265262.355232 1.06206 6.783057-2.668192 14.282187-8.29152 17.699891-13.268297 36.643092-22.236182 57.48211-27.207368l16.751983-3.9967 19.631229.931632c22.155245 1.049017 32.07369 3.88304 64.259559 18.355005 32.053124 14.41234 44.383406 17.315304 73.159049 17.220277 28.254013-.0913 40.986268-2.876878 62.539489-13.676351 23.194765-11.621172 42.69325-28.638354 59.402231-51.837843 4.647927-6.45248 7.96654-12.211826 7.375733-12.800617-.588937-.588791-6.364257 2.895511-12.833215 7.741858-22.306686 16.711607-46.501709 25.873271-74.45845 28.19676-22.654439 1.88376-40.472116-2.619747-74.744504-18.889761-1.630093-.773678-3.282676-1.546887-4.942697-2.313371l-1.107618-.509924c-.738927-.339193-1.478662-.676783-2.217885-1.01222l-1.108284-.501472c-13.106244-5.913355-25.842877-11.061866-30.820796-12.372756-14.156921-3.726527-43.11018-5.038264-58.658114-2.65515zm7.550451-129.088061c-22.907944 2.648388-44.974371 11.105599-65.095961 24.945865-17.714853 12.185961-58.543355 55.65929-55.313802 58.900377.49369.49329 6.618058-3.413645 13.611994-8.684163 27.523193-20.736953 55.186639-30.244517 88.015125-30.244517 24.658298 0 35.409136 2.75905 69.6682 17.880371 36.239432 15.993488 46.698545 18.304263 78.502251 17.347693l25.24549-.75963 16.205734-5.703788c20.276802-7.133017 44.069273-22.800146 59.095015-38.911798.964938-1.034597 1.927926-2.088749 2.882348-3.15346l.714107-.800372.710275-.803489c10.386225-11.803232 19.335764-24.339912 18.043943-25.637247-.48808-.487663-7.21834 3.66873-14.95842 9.237473-30.43484 21.901719-69.415745 30.420826-104.794961 22.903305-7.549336-1.605538-24.712529-8.42345-42.075815-16.71373-39.549396-18.885708-59.887911-23.338451-90.455523-19.80289zm-7.158254-129.366633c-35.799636 5.970576-70.795751 28.126424-99.802836 63.186721-8.046416 9.724632-14.629677 18.901212-14.629677 20.393856 0 1.889186.710088 2.164146 2.335815.903442l.170639-.132388c1.391618-1.080087 5.82719-4.530799 10.53715-8.199658l.96635-.752809c.215204-.167663.430586-.335474.645884-.503231 13.955093-10.865625 41.753161-24.168486 57.287265-27.413771 16.726304-3.492188 45.324155-3.510893 60.037921-.037409 4.641535 1.095708 14.926047 4.818649 25.658674 9.200791l1.151402.471948c.192107.079048.384298.158284.576543.237697l1.153885.478507c2.885152 1.201116 5.769176 2.436921 8.552239 3.669593 36.13973 16.003836 49.302515 19.359479 75.719648 19.303364 43.562016-.091653 76.10646-14.350331 106.559882-46.685337 2.096515-2.226172 4.248005-4.637912 6.358273-7.104785l.701763-.824154c9.332975-11.011178 17.640554-22.825137 16.477505-23.990821-.386811-.385319-6.921487 3.763408-14.521295 9.221472-26.413396 18.968549-49.186659 26.411193-81.006065 26.469178-25.236146.048632-30.414181-1.356099-64.468495-17.477775-1.027759-.486454-2.061401-.973033-3.09681-1.457929l-1.553923-.725857-1.035897-.481833c-.172582-.08014-.345118-.160191-.517589-.240145l-1.033888-.478495c-12.565735-5.805906-24.580355-11.006148-28.6288-12.346487-19.260197-6.37647-43.77878-8.153427-64.595563-4.683685z"/><path d="m839.777109 695.657571c24.478631 6.382312 57.000829 25.073101 70.530856 40.538946 6.610689 7.553654 7.261657 11.356761 2.996696 17.466887-5.168459 7.407236-12.248668 5.503806-26.384769-7.088121-14.023865-12.492438-36.068849-24.275313-54.879571-29.332357-18.651722-5.015746-49.537147-4.589633-67.341488.92919-19.820844 6.142037-40.174809 17.277295-53.611306 29.328602-12.12708 10.876211-18.455309 12.834079-23.885652 7.386588-6.038287-6.06132-3.685076-12.847219 8.329768-24.010634 20.411953-18.964853 52.015687-34.286157 79.812757-38.693707 16.004827-2.537908 47.978939-.814683 64.432709 3.474606"/><path d="m823.215908 744.476711c17.013057 3.606293 38.304109 14.343044 49.755025 25.094727 9.786007 9.187463 11.128013 13.45267 6.374063 20.23967-4.628895 6.611539-12.231109 5.392642-22.644257-3.628693-17.446082-15.112088-43.310034-23.636903-64.474164-21.249507-19.990108 2.254867-42.524242 12.470833-53.661588 24.325683-8.100567 8.623746-20.564987 4.709462-20.564987-6.458476 0-11.432997 32.139092-32.647038 57.86119-38.192742 15.924893-3.432699 31.562346-3.475631 47.354718-.130662"/><path d="m817.018775 801.572953c11.520437 3.427409 24.878409 13.207742 27.242817 19.946881 1.290184 3.675555.934592 6.106645-1.422368 9.713167-4.127474 6.311879-12.103161 6.360389-19.505432.117543-14.482463-12.21329-29.599777-12.804737-44.084101-1.723966-9.090868 6.953702-15.724242 8.089952-20.322736 3.483381-4.847966-4.860315-3.583846-12.502483 3.125859-18.883395 14.765446-14.043605 34.801474-18.655773 54.965961-12.653611"/><path d="m811.237897 856.272629c11.903385 7.23818 13.155085 23.974009 2.463873 32.944323-9.623973 8.073283-25.581737 5.575482-30.989458-4.8511-10.120888-19.513249 10.015483-39.345525 28.525585-28.093223"/></g></svg>