<?xml version="1.0" encoding="utf-8"?>
<!-- Generator: Adobe Illustrator 20.0.0, SVG Export Plug-In . SVG Version: 6.00 Build 0)  -->
<svg version="1.1" id="Layer_1" xmlns="http://www.w3.org/2000/svg" xmlns:xlink="http://www.w3.org/1999/xlink" x="0px" y="0px"
	 viewBox="0 0 224.62 191.66" style="enable-background:new 0 0 224.62 191.66;" xml:space="preserve">
<style type="text/css">
.fillpulse {
	animation: fillpulse 4s infinite;
}

@keyframes fillpulse {
	0%, 20%, 40%, 60%, 100% {
		fill: rgba(255,255,255,0);
	}
	10%, 30%, 50% {
		fill: #0078CC;
	}
}
</style>
<g>
	<path class="fillpulse" d="M204.24,104.03h-46.59l0.84,26.45h9.66c13.47-6.19,25.5-14.24,36.09-24.16V104.03z"/>
</g>
<path d="M223.87,102.05L223.87,102.05l-3.09-94l-0.33-0.3c-2.74-2.48-5.48-4.97-8.22-7.47L211.92,0H13l-0.42,0l-0.3,0.29
	c-1.5,1.4-3,2.8-4.49,4.19L3.92,8.09l-2.76,93.06l0,0L0,141.99l0.19,0.28c0.89,1.32,1.65,2.43,1.73,2.55
	c2.1,2.88,4.37,5.69,6.74,8.35c6.28,7.03,13.58,13.33,21.69,18.71c12.81,8.5,28.12,15.05,45.49,19.45l1.29,0.33l0.48-19.6h73.85
	l0.27-0.04c16.38-4.34,30.89-10.62,43.13-18.68c11.36-7.47,21.07-16.68,28.86-27.36c0.05-0.08,0.32-0.5,0.7-1.09l0.17-0.28
	L223.87,102.05z M6.02,9.04l3.22-3.01c1.4-1.3,2.79-2.6,4.19-3.91L211.1,2.13c2.53,2.31,5.05,4.6,7.59,6.89l3.15,95.81
	c-0.52,0.71-1.07,1.4-1.61,2.09c-0.52,0.68-1.03,1.36-1.57,2.03c-0.6,0.73-1.22,1.44-1.84,2.16c-0.55,0.64-1.09,1.3-1.65,1.93
	c-0.64,0.71-1.31,1.39-1.96,2.08c-0.58,0.61-1.14,1.23-1.74,1.83c-0.69,0.69-1.4,1.35-2.11,2.02c-0.6,0.57-1.18,1.15-1.8,1.71
	c-0.73,0.67-1.5,1.3-2.26,1.95c-0.62,0.53-1.22,1.08-1.86,1.6c-0.78,0.64-1.6,1.26-2.4,1.88c-0.64,0.5-1.26,1.01-1.92,1.49
	c-0.84,0.62-1.71,1.22-2.58,1.82c-0.65,0.46-1.29,0.93-1.95,1.37c-0.9,0.6-1.83,1.17-2.75,1.75c-0.66,0.42-1.31,0.85-1.99,1.26
	c-0.96,0.58-1.95,1.13-2.93,1.69c-0.67,0.38-1.32,0.78-2.01,1.15c-1.03,0.56-2.09,1.09-3.15,1.63c-0.66,0.34-1.31,0.69-1.99,1.03
	c-1.12,0.55-2.28,1.07-3.43,1.59c-0.64,0.29-1.26,0.6-1.91,0.88c-1.25,0.55-2.53,1.06-3.81,1.58c-0.58,0.23-1.14,0.48-1.72,0.71
	c-1.42,0.55-2.87,1.07-4.33,1.59c-0.47,0.17-0.93,0.35-1.41,0.52c-1.73,0.6-3.5,1.16-5.28,1.72c-0.22,0.07-0.43,0.14-0.65,0.21
	c-4.03,1.22-8.18,2.33-12.47,3.3H80.85c-4.34-0.99-8.54-2.1-12.61-3.34c-0.42-0.13-0.82-0.27-1.23-0.4c-1.6-0.5-3.2-1.01-4.76-1.55
	c-0.66-0.23-1.29-0.48-1.95-0.72c-1.29-0.47-2.58-0.93-3.84-1.42c-0.77-0.3-1.51-0.63-2.27-0.94c-1.11-0.46-2.23-0.9-3.32-1.38
	c-0.8-0.35-1.58-0.74-2.37-1.1c-1.01-0.47-2.03-0.92-3.02-1.41c-0.81-0.4-1.59-0.83-2.38-1.24c-0.93-0.48-1.88-0.96-2.8-1.46
	c-0.8-0.44-1.56-0.9-2.34-1.35c-0.88-0.51-1.77-1-2.63-1.53c-0.78-0.48-1.53-0.98-2.29-1.47c-0.83-0.53-1.67-1.05-2.48-1.6
	c-0.75-0.51-1.47-1.05-2.2-1.57c-0.79-0.56-1.59-1.11-2.36-1.69c-0.72-0.54-1.4-1.11-2.1-1.66c-0.75-0.59-1.51-1.17-2.24-1.78
	c-0.68-0.57-1.33-1.16-2-1.75c-0.71-0.62-1.44-1.23-2.14-1.87c-0.65-0.6-1.26-1.22-1.9-1.83c-0.68-0.66-1.37-1.3-2.03-1.97
	c-0.62-0.63-1.2-1.29-1.8-1.93c-0.64-0.68-1.29-1.35-1.91-2.05c-0.58-0.66-1.13-1.34-1.7-2.02c-0.6-0.71-1.22-1.42-1.8-2.15
	c-0.55-0.69-1.07-1.4-1.6-2.11c-0.53-0.7-1.07-1.39-1.58-2.1L6.02,9.04z M222.02,124.75c-7.64,10.47-17.16,19.49-28.3,26.83
	c-12.01,7.91-26.27,14.08-42.38,18.36H75.55l-0.47,19c-16.61-4.33-31.25-10.67-43.55-18.83c-7.96-5.29-15.12-11.46-21.28-18.36
	c-2.33-2.61-4.55-5.36-6.61-8.18c-0.09-0.12-0.72-1.05-1.5-2.2l0.96-33.9c0.26,0.34,0.53,0.66,0.79,0.99
	c0.53,0.68,1.07,1.35,1.62,2.02c0.61,0.74,1.22,1.48,1.85,2.2c0.56,0.65,1.13,1.3,1.71,1.94c0.64,0.71,1.3,1.41,1.96,2.11
	c0.6,0.63,1.2,1.25,1.81,1.86c0.68,0.68,1.37,1.35,2.07,2.01c0.63,0.6,1.26,1.19,1.91,1.77c0.72,0.65,1.45,1.28,2.18,1.92
	c0.66,0.57,1.33,1.13,2,1.69c0.75,0.62,1.52,1.22,2.3,1.82c0.69,0.54,1.39,1.08,2.1,1.6c0.79,0.59,1.6,1.16,2.41,1.73
	c0.72,0.51,1.45,1.02,2.19,1.51c0.83,0.56,1.68,1.1,2.53,1.63c0.75,0.48,1.5,0.96,2.27,1.42c0.87,0.53,1.77,1.04,2.66,1.55
	c0.78,0.45,1.55,0.9,2.35,1.33c0.92,0.5,1.86,0.98,2.79,1.46c0.8,0.41,1.6,0.83,2.42,1.23c0.96,0.47,1.95,0.92,2.93,1.37
	c0.83,0.38,1.64,0.77,2.48,1.14c1.02,0.44,2.06,0.86,3.09,1.29c0.84,0.34,1.67,0.7,2.52,1.03c1.08,0.42,2.19,0.81,3.28,1.21
	c0.84,0.31,1.67,0.63,2.53,0.92c1.17,0.4,2.37,0.78,3.56,1.16c0.82,0.26,1.62,0.54,2.45,0.79c1.34,0.41,2.72,0.78,4.09,1.16
	c0.71,0.2,1.4,0.41,2.12,0.6c2.1,0.56,4.24,1.08,6.4,1.57l64.42,0.03l0,0l0.12,0l0.12-0.03c2.14-0.49,4.25-1.01,6.33-1.56
	c0.68-0.18,1.34-0.38,2.02-0.57c1.38-0.38,2.77-0.76,4.12-1.17c0.8-0.24,1.57-0.51,2.36-0.76c1.2-0.38,2.41-0.76,3.59-1.17
	c0.83-0.28,1.63-0.59,2.45-0.89c1.11-0.4,2.22-0.8,3.31-1.22c0.83-0.32,1.64-0.67,2.46-1c1.04-0.42,2.08-0.84,3.1-1.28
	c0.82-0.36,1.62-0.74,2.43-1.11c0.98-0.45,1.97-0.89,2.93-1.36c0.81-0.39,1.59-0.8,2.39-1.21c0.93-0.47,1.87-0.95,2.78-1.44
	c0.79-0.42,1.55-0.86,2.32-1.3c0.89-0.5,1.78-1,2.65-1.52c0.76-0.45,1.5-0.93,2.25-1.39c0.85-0.53,1.69-1.06,2.52-1.61
	c0.73-0.49,1.45-0.98,2.17-1.48c0.81-0.56,1.61-1.12,2.4-1.7c0.7-0.52,1.39-1.04,2.08-1.57c0.77-0.59,1.54-1.18,2.29-1.79
	c0.67-0.54,1.33-1.1,1.99-1.66c0.73-0.62,1.46-1.25,2.17-1.88c0.64-0.57,1.27-1.15,1.9-1.74c0.7-0.65,1.39-1.31,2.07-1.98
	c0.61-0.6,1.21-1.21,1.8-1.82c0.66-0.68,1.32-1.37,1.96-2.07c0.58-0.63,1.14-1.26,1.7-1.9c0.63-0.72,1.24-1.44,1.85-2.17
	c0.54-0.65,1.08-1.31,1.6-1.97c0.26-0.33,0.54-0.65,0.8-0.99l0.52,15.81C222.23,124.43,222.06,124.69,222.02,124.75z"/>
<g>
	<path d="M169.74,140.02h-15.38l-0.81-36.49h4.59l0.84,26.45h9.07c13.26-6.1,25.27-14.13,35.7-23.88v-2.57h10.41v4.44l-0.11,0.14
		c-10.24,12.43-25.11,23.15-44.2,31.86L169.74,140.02z M155.33,139.02h14.2c18.83-8.6,33.51-19.17,43.63-31.41v-3.09h-8.42v2.01
		l-0.16,0.15c-10.57,9.9-22.76,18.06-36.22,24.25l-0.21,0.05h-10.14l-0.84-26.45h-2.61L155.33,139.02z"/>
</g>
</svg>
