<svg height="960" viewBox="0 0 960 960" width="960" xmlns="http://www.w3.org/2000/svg"><path d="m789.41481 483.487826c11.825357-7.159469 24.415321-7.673193 37.842959-2.775487l18.713197 7.084907-25.365966 75.067754 1.944749.266316c.234541.032175.468997.064414.703338.096712l1.404457.194484c.233773.032525.467377.065102.700783.09773l1.397836.196329c13.717639 1.935867 26.551859 4.019728 32.762448 5.532136 12.674271 3.08645 20.017976 9.885814 24.675447 18.330313 4.262484 7.728347 5.823783 17.760234 5.959696 28.738302l.0093.896866c.003965.471503.00657.944502.00823 1.418714l.002139.899018.000532 252.211537c0 11.899731-2.134122 21.606429-5.749599 29.291413-4.624498 9.829739-11.647863 16.892874-20.86923 21.391164-18.874546 9.207312-44.111781 7.58485-65.48633 3.772368-1.65747-.295636-3.329703-.592074-5.015344-.890894-16.324746-2.893943-33.857522-6.023473-51.461633-10.673622-11.31981-2.990143-19.12602-8.31407-24.304453-14.757217-5.734292-7.13476-8.814287-16.038891-8.130061-27.100235l.000001-272.7143c-.000236-6.573865 1.841623-12.870529 5.147046-18.271482 3.308929-5.406682 8.084527-9.915751 13.947057-12.906728l.575536-.292804c1.975131-1.004765 4.205808-2.117488 6.692237-3.337761 7.805161-3.830567 17.604345-5.641659 26.097283-6.48349l.052535-.005869-.002526-.015838c-1.877388-11.957595-2.005552-22.519438-.592896-31.681673l.101055-.636955c3.167155-19.412379 12.783425-33.583671 28.240177-42.941708zm137.269164-359.516205v121.667698c0 39.549363 5.506156 73.477802 16.911326 101.698532.099544.246312.199714.492623.298399.744169.075954.23943.151879.479139.227776.719127 16.149322 51.064468 23.980197 92.537635 23.980197 124.363712 0 38.639954-11.550521 64.231419-30.731446 79.22628-16.37271 12.799515-32.677973 14.798823-48.64556 11.046577-16.965201-3.986677-33.893412-16.100178-49.753019-28.320213-8.673255-6.682857-16.85946-13.41958-24.759784-16.573614l-18.487652-6.996672zm-840.7642888-85.0059428c.4780044.0157175.9390888.0323416 1.3832535.0498604 3.4885877.1375967 8.0133549.4124183 13.5739923.8302816 37.342627 2.8061738 286.514036 22.3731573 747.498198 58.6933576 11.674751-7.5352211 24.469241-7.6423539 35.823374-2.1313746l.285497.1401968.158174-.0779839c7.30201-3.5499058 14.970958-4.8800099 22.52066-4.0620413l.552198.0636839c13.448195 1.6449427 25.734678 10.0482183 33.906317 24.9628463 5.078214 9.268602 8.505588 21.208333 9.313492 34.559449l7.440206 8.913995-15.216194 41.551013-1.793853-.071962-.255824.53331c-3.784182 7.761578-8.416951 14.389136-13.47951 19.574739l-.447801.453803c-11.20474 11.233455-24.441265 15.880038-37.27525 14.310224-4.712425-.576409-9.240374-1.968812-13.489435-4.157435l-.52018-.273641-.423945.184106c-14.001988 5.938951-30.459828 3.122223-42.292915-10.913614l-.376073-.451764-751.8221297-81.557149c-3.1403445-.244242-6.2802943-.815314-9.381691-1.76334-12.4841637-3.816122-22.270799-13.024493-27.5205605-25.386234-4.5456235-10.70369-5.5870357-23.8335631-1.5967983-36.8827519 3.0253199-9.8936398 8.5055021-18.2436068 15.2547354-24.4507581 7.6581331-7.0430503 16.9435147-11.3314106 26.3972071-12.4643942.5925867-.0710189 1.1874606-.1298347 1.7848552-.1764226zm-84.83577414 17.0706249c5.60311665-4.5066657 12.39300914-6.5473964 19.01547454-6.0856893l26.8810319 2.3968596 44.8088256 60.8336046-74.4250123-5.843346c-1.0650611-.099713-2.5795106-.251429-4.9872102-.496449-.7016726-.071406-1.3274398-.135291-1.8891722-.193164-1.22240045-.302561-2.42623824-.693147-3.60355874-1.170696-6.82562604-2.768635-12.25443728-8.2552382-15.03011019-15.5284846-2.17143767-5.689936-2.65488277-12.5233762-.5752638-19.3255034 1.87033771-6.117599 5.47701618-11.1060773 9.80499539-14.5871319z" fill="none" stroke="#000" stroke-linejoin="round" stroke-width="40"/></svg>