<svg height="960" viewBox="0 0 960 960" width="960" xmlns="http://www.w3.org/2000/svg"><path d="m376 72c49.153343 0 89 39.846657 89 89v218c0 49.153343-39.846657 89-89 89h-218c-49.153343 0-89-39.846657-89-89v-218c0-49.153343 39.846657-89 89-89zm0 40h-218c-27.061953 0-49 21.938047-49 49v218c0 27.061953 21.938047 49 49 49h218c27.061953 0 49-21.938047 49-49v-218c0-27.061953-21.938047-49-49-49zm0 379c49.153343 0 89 39.846657 89 89v218c0 49.153343-39.846657 89-89 89h-218c-49.153343 0-89-39.846657-89-89v-218c0-49.153343 39.846657-89 89-89zm0 40h-218c-27.061953 0-49 21.938047-49 49v218c0 27.061953 21.938047 49 49 49h218c27.061953 0 49-21.938047 49-49v-218c0-27.061953-21.938047-49-49-49zm425-40c49.153343 0 89 39.846657 89 89v218c0 49.153343-39.846657 89-89 89h-218c-49.153343 0-89-39.846657-89-89v-218c0-49.153343 39.846657-89 89-89zm0 40h-218c-27.061953 0-49 21.938047-49 49v218c0 27.061953 21.938047 49 49 49h218c27.061953 0 49-21.938047 49-49v-218c0-27.061953-21.938047-49-49-49zm-116.027393-103.358713c-10.404451-1.302216-20.1029-6.172242-27.623613-13.870923-8.261597-8.457412-12.677271-18.471617-13.285282-30.132525-1.173731-22.475535 13.977312-42.258613 36.561204-47.742884 3.017363-.732076 4.620096-.875717 10.019053-.894955 8.646245-.034037 14.420192 1.200168 20.94712 4.456604 16.015049 7.991277 25.686399 22.69737 26.371583 40.0997.678058 17.330073-7.913425 32.931318-23.173243 42.060312-8.510746 5.091833-19.510268 7.313898-29.816822 6.023965zm-48.079371-104.410094c-2.064226-1.021749-20.242785-19.141108-21.228525-21.160122-.650146-1.338141-.731158-2.1405-.626773-6.174583.116862-3.826257.266409-4.901952.917113-6.1555.917206-1.763156 8.118158-8.794629 13.257678-12.950328 11.301283-9.137613 26.156483-16.334085 40.340493-19.54381 7.826794-1.771148 12.476144-2.24685 21.961917-2.24685 9.487077 0 14.135403.475591 21.962197 2.24685 14.18401 3.209382 29.028595 10.400879 40.342914 19.54381 5.804378 4.690766 12.615634 11.454705 13.331893 13.240082.801089 1.984179 1.149347 9.588309.533842 11.498217-.592041 1.838932-19.292988 20.632796-21.607886 21.717521-2.097748.982432-5.730163 1.006741-7.838527.05801-.89374-.406183-2.51333-1.804014-3.94231-3.408881-3.314419-3.724773-8.501429-7.957779-13.217172-10.787144-20.990331-12.593691-47.591542-10.506986-66.493437 5.216005-1.884043 1.568066-4.515913 4.074931-5.847584 5.571139-1.427955 1.604867-3.043727 3.002485-3.941286 3.408881-2.09663.94887-5.914722.916459-7.904547-.069334zm-54.719882-54.911626c-1.97684-1.005022-21.381787-20.651638-21.874125-22.146065-.221365-.686791-.350066-3.195249-.280146-5.739632.117562-3.681726.267791-4.800939.91017-6.038323 1.522784-2.936094 15.408305-15.850699 24.482299-22.76968 14.475858-11.036996 34.051065-21.264835 51.570339-26.943382 39.414179-12.775958 82.399305-11.411751 120.479865 3.823649 14.131596 5.6541 29.620211 14.366914 41.099547 23.119733 9.073994 6.918981 22.960544 19.833586 24.483235 22.76968.641911 1.237384.805244 2.356597.91017 6.038323.117562 2.550464 0 5.052371-.280052 5.74255-.525192 1.615413-20.330374 21.527501-22.171681 22.299109-1.715414.71838-5.351414.694975-7.199834-.046829-.991883-.397793-2.731914-1.943122-5.301431-4.708398-13.516548-14.54615-33.114125-26.995448-53.339292-33.881902-14.708175-5.008151-27.685678-7.125254-43.677301-7.125254-15.990499 0-28.969033 2.117103-43.676926 7.125254-20.224419 6.886454-39.823025 19.335752-53.338263 33.881902-2.569798 2.765276-4.309455 4.310605-5.301338 4.708398-1.993313.799106-5.821943.742949-7.498793-.105304zm-55.59347-55.046877c-2.18772-.992061-20.669613-19.645157-21.252512-21.44842-.256532-.801548-.384518-3.130589-.302902-5.822998.117327-3.652416.26747-4.766924.90908-5.990049 1.165612-2.221811 13.086682-13.658938 21.971531-21.069594 36.545425-30.481003 80.328716-50.011271 127.0237-56.660575 14.302217-2.036526 18.219565-2.281054 36.561692-2.281054 18.341941 0 22.259289.245106 36.561505 2.281054 46.694985 6.649304 90.478276 26.179572 127.022579 56.660575 8.884849 7.410656 20.811715 18.847783 21.971531 21.069594.641143 1.223125.80428 2.337633.90908 5.990049.117422 2.692409 0 5.021561-.303182 5.822998-.617584 1.923035-19.092372 20.478656-21.376946 21.473867-2.187626.953728-5.755421.932818-7.917432-.046496-1.049032-.472806-3.834704-2.882111-7.727464-6.675785-16.55192-16.129937-32.864696-27.821125-53.01816-37.996794-24.931839-12.588812-49.624908-19.528991-79.153755-22.24707-11.023675-1.014145-30.81805-.547144-43.53377 1.028084-24.291163 3.010007-47.514316 10.095861-69.542969 21.218288-20.153463 10.175556-36.46624 21.866745-53.018067 37.996793-3.89276 3.793563-6.680862 6.202867-7.726155 6.675664-2.124896.960707-5.948942.969996-8.044576.023108z"/></svg>