<svg height="960" viewBox="0 0 960 960" width="960" xmlns="http://www.w3.org/2000/svg"><path d="m235.700124 2.81441713c3.354323.05365063 6.426704.10703006 11.758066.2026442 12.625638.22643175 18.996912.3308969 24.745812.3845061l.613829.00555249c.61196.00536435 1.219085.01017406 1.828301.01451658l.61017.00419003c.61138.00404078 1.227161.00764352 1.85427.01089569 139.002146.72086267 259.894514 2.04854168 361.720894 3.76241056 66.830997 1.12485158 120.417952 2.35438936 140.694502 3.02067212 22.793652.748994 40.331967 1.9586828 53.070783 3.7309384 19.771241 2.7506239 34.488186 19.6567681 34.488186 39.6184289v836.1070388c0 10.131132-3.512036 19.314424-9.291727 26.675628-3.8423 4.893678-8.286812 8.555235-13.186382 11.479466-5.921161 3.533952-12.318473 5.871973-19.634272 7.666022-10.732829 2.632005-24.432044 4.210087-40.689011 4.851178-4.198789.165578-56.643053 2.217727-109.983116 4.305002l-5.616007.219763-1.150984.04504-3.450471.135023c-.383108.014991-.766106.029979-1.148976.044961l-2.295549.089829c-1.911445.074799-3.818816.149438-5.71991.223832l-2.278159.08915c-32.60639 1.275964-63.095211 2.469166-80.258172 3.141344-.406634.015926-.406634.015926-.813265.031852-114.147357 4.47058-186.841813 7.329664-207.232251 8.157735-43.001042 1.746302-128.327933-3.255024-181.103827-8.947385-11.766206-1.269092-20.974962-2.238717-27.603369-2.906735-5.93292-.597926-9.840844-.952557-10.489283-.984385-21.288233-1.044927-38.017969-18.598669-38.038952-39.912521l-.843711-856.9753547c-.019935-20.2689197 15.123982-37.34907349 35.24946-39.75628272 25.753078-3.08032673 47.069876-4.68265153 64.198591-4.76576022 1.277931-.00620054 2.568703-.00974397 3.879134-.01066624l1.582388.00014915c7.167136.00631218 14.98701.08863863 24.533008.24132186zm-29.800452 39.76872437c-15.398566.074714-35.279276 1.569092-59.642129 4.4831338l.843691 856.9753547c3.245204.15929 16.718907 1.517184 40.421109 4.073682 35.553303 3.834748 126.929712 10.709602 175.191252 8.749667 3.273441-.132936 7.905594-.318577 13.705861-.549508l.017711-872.2369602c-31.3662-.2436485-64.545934-.4608788-99.534032-.6423265-21.61037-.112071-47.905614-.9651138-71.003463-.8530428zm190.54293 1.6563076-.025034 871.2831009c87.303219-3.451527 295.092414-11.571439 364.837762-14.301879l-.019021.000581c-.090745-.541474-.137977-1.097698-.137977-1.664953v-849.736176l.007698-.1032284c-7.241469-.1878774-16.557987-.4165334-27.943402-.6748273l-5.962895-.1337345c-59.828708-1.3267297-170.329823-3.3334941-330.757131-4.6688837zm384.656273 6.0572416-.000543 849.2596083c0 .299271-.013146.595472-.038893.888056l.020911-.000728c.624617-.024562 1.167845-.045949 1.627025-.064056 28.13201-1.109382 44.377562-5.272592 44.377562-10.70336v-836.1070388c-10.572333-1.4708492-25.901021-2.5616764-45.986062-3.2724815zm-63.001995 29.9791714c21.768712 0 38.965517 19.1075612 38.965517 42.1839079 0 23.076347-17.196805 42.183908-38.965517 42.183908s-38.965517-19.107561-38.965517-42.183908c0-23.0763467 17.196805-42.1839079 38.965517-42.1839079zm0 19.9999999c-10.225715 0-18.965517 9.710892-18.965517 22.183908s8.739802 22.183908 18.965517 22.183908 18.965517-9.710892 18.965517-22.183908-8.739802-22.183908-18.965517-22.183908z"/></svg>