<svg height="960" viewBox="0 0 960 960" width="960" xmlns="http://www.w3.org/2000/svg"><g fill="#000" fill-rule="evenodd"><path d="m827.534097 663.004668c-138.43053 166.749944-388.207356 190.785972-555.2268 51.07656-167.019444-138.207161-191.0943187-387.58095-51.159109-554.330893 33.102953-40.560797 75.233984-73.6103357 121.879054-97.6463635 46.64507-24.0360279 97.804179-39.0585453 150.467967-43.5653006v-1.5022517c-231.72067-3.0045035-419.8056291 180.2702088-422.8149885 408.6124738 0 67.601328 15.0467968 135.202657 46.6450695 195.292727 105.327578 202.803985 356.609084 282.423327 559.74084 177.265705 60.187187-31.547286 112.850975-78.11709 151.972647-133.700405h-1.50468z"/><path d="m570.233873 769.664542c-46.64507 0-93.29014-9.01351-135.421171-27.040531-177.552202-73.610336-261.814264-276.414321-188.084959-453.680026 73.729304-177.265706 276.86106-261.3918036 454.413262-187.781468 43.63571 18.027021 82.757382 43.5653 114.355655 78.11709h1.50468c-126.393093-159.2386843-356.609083-181.77246044-514.600449-54.081062-156.486687 127.691398-180.561561 357.535914-52.663789 515.272347 76.738663 94.64186 197.113037 144.216167 318.992091 132.198154v-3.004504z"/><path d="m938.880393 347.531802c10.532758 58.587818 9.028078 118.677888-3.009359 177.265706-58.682507 244.867034-302.440615 398.096712-547.703402 345.517901-243.758107-55.583315-397.23543426-295.943593-341.5622863-539.308376 13.5421171-58.587818 37.6169919-112.66888 73.7293043-162.243188h-3.00936c-51.1591085 57.085566-87.2714207 127.691398-105.3275768 202.803985-55.673148 253.880545 105.3275768 504.756586 359.6184428 558.837648h4.514039c255.795545 57.085567 510.08641-102.153118 571.778276-356.033662 18.056157-75.112588 15.046797-154.73193-6.018718-228.342265h-3.00936z"/><path d="m654.495935 110.176027c52.663788 34.55179 81.252702 94.64186 73.729304 157.736433-12.037438 105.157622-66.205906 136.704909-151.972647 166.749944-67.710586 24.036027-136.925851 48.072055-144.449249 153.229677-7.523399 105.157622 100.813538 168.252195 216.673873 147.220671 135.421171-24.036028 237.739389-156.234181 237.739389-300.450348 0-102.153119-42.131031-253.880545-231.72067-325.988629h-1.50468z" fill-rule="nonzero"/></g></svg>