<svg width="960" height="960" viewBox="0 0 960 960" fill="none" xmlns="http://www.w3.org/2000/svg">
<path d="M255.512 34.2559C289.16 13.6459 329.435 2.96423 371.997 6.14551C486.48 14.7027 575 110.085 575 224.888V735.523C575 850.099 486.832 945.381 372.601 954.254C330.072 957.557 289.794 947.01 256.102 926.531L171.034 884.184L170.105 883.585C120.975 851.939 88 796.81 88 733.475V227.681C88.0001 169.635 115.719 118.441 158.197 85.9531L159.527 84.9355L255.512 34.2559ZM358.404 45.5977C356.36 45.5823 354.324 45.607 352.297 45.6709C352.289 45.6712 352.281 45.6716 352.272 45.6719C269.548 48.2926 202 116.28 202 201.032V759.378C202 846.412 273.206 915.731 358.887 914.841C362.402 914.804 365.942 914.651 369.503 914.374C376.071 913.864 382.533 913.005 388.872 911.815C390.281 911.551 391.683 911.269 393.079 910.973C395.174 910.527 397.254 910.046 399.32 909.529C400.697 909.185 402.068 908.824 403.432 908.448C404.113 908.26 404.793 908.069 405.472 907.873C408.186 907.09 410.872 906.245 413.53 905.34C414.859 904.887 416.181 904.42 417.495 903.938C420.78 902.731 424.02 901.433 427.209 900.045C427.847 899.767 428.482 899.486 429.116 899.201C430.384 898.632 431.644 898.047 432.896 897.449C449.792 889.379 465.194 878.757 478.623 866.097C480.115 864.69 481.583 863.258 483.025 861.802C486.392 858.404 489.622 854.873 492.708 851.218C493.59 850.173 494.46 849.119 495.317 848.055C496.604 846.458 497.864 844.839 499.097 843.198C499.918 842.105 500.728 841.001 501.524 839.889C502.72 838.22 503.887 836.53 505.025 834.819C505.784 833.679 506.53 832.529 507.264 831.37C507.63 830.791 507.993 830.21 508.354 829.626C509.074 828.459 509.782 827.283 510.476 826.099C512.558 822.545 514.52 818.914 516.358 815.212C517.584 812.744 518.754 810.244 519.867 807.715C522.929 800.758 525.562 793.573 527.731 786.196C528.126 784.855 528.505 783.507 528.869 782.153C531.234 773.354 532.944 764.294 533.948 755.032C534.103 753.607 534.241 752.177 534.361 750.743C534.784 745.723 535 740.647 535 735.523V224.888C535 221.954 534.929 219.036 534.789 216.136C534.719 214.685 534.633 213.239 534.528 211.798C534.476 211.077 534.42 210.358 534.359 209.64C534.238 208.203 534.099 206.77 533.944 205.343C533.324 199.633 532.435 193.999 531.29 188.457C530.717 185.686 530.081 182.937 529.382 180.213C528.857 178.17 528.297 176.14 527.703 174.125C527.363 172.971 527.009 171.823 526.646 170.679C505.056 102.548 443.815 51.6251 369.016 46.0342C365.456 45.7681 361.917 45.6244 358.404 45.5977ZM181.228 118.71C148.861 144.056 128 183.296 128 227.681V733.475C128 782.13 153.071 824.619 190.868 849.374L214.49 861.134C194.073 832.518 182 797.45 182 759.378V201.032C182 164.265 193.264 130.294 212.434 102.232L181.228 118.71ZM739.372 272.023C751.199 267.596 764.073 265.37 777.456 265.832C830.748 267.67 873 311.405 873 364.729V603.968C873 657.482 830.403 701.274 776.909 702.754C765.943 703.057 755.326 701.556 745.355 698.519C742.632 699.126 739.777 699.166 736.976 698.591L660.433 682.868C660.238 682.828 660.043 682.785 659.85 682.739C623.244 674.074 597.278 639.69 597.237 600.13L597 366.84C596.958 325.604 625.086 289.875 664.043 283L664.536 282.92L735.467 272.224L736.005 272.15C737.129 272.012 738.255 271.972 739.372 272.023ZM776.077 305.809C774.943 305.769 773.816 305.764 772.697 305.788C772.382 305.795 772.066 305.804 771.752 305.815C771.37 305.83 770.99 305.848 770.61 305.869C739.747 307.63 715.055 333.253 715.09 364.793L715.353 604.032C715.387 635.54 740.152 661.115 771.073 662.712C772.633 662.792 774.211 662.813 775.803 662.769C807.644 661.888 833 635.822 833 603.968V364.729C833 364.333 832.995 363.938 832.987 363.544C832.982 363.271 832.975 362.999 832.966 362.727C832.944 362.069 832.911 361.415 832.867 360.763C832.842 360.378 832.813 359.993 832.78 359.61C832.743 359.172 832.7 358.736 832.652 358.301C832.616 357.965 832.576 357.63 832.534 357.296C832.515 357.146 832.497 356.996 832.477 356.847C832.439 356.569 832.4 356.292 832.359 356.016C832.302 355.626 832.239 355.237 832.174 354.85C832.068 354.225 831.953 353.603 831.828 352.985C831.586 351.787 831.306 350.601 830.992 349.43C830.889 349.044 830.783 348.659 830.672 348.276C830.578 347.951 830.48 347.628 830.38 347.305C830.334 347.155 830.287 347.005 830.239 346.855C830.01 346.136 829.768 345.422 829.513 344.715C829.379 344.346 829.243 343.978 829.103 343.612C828.983 343.302 828.862 342.992 828.737 342.684C828.602 342.347 828.463 342.013 828.321 341.68C821.349 325.281 807.157 312.659 789.662 307.867C789.297 307.767 788.93 307.671 788.562 307.578C788.47 307.555 788.378 307.531 788.286 307.508C787.706 307.364 787.123 307.23 786.536 307.104C785.483 306.876 784.419 306.676 783.345 306.506C783.009 306.453 782.672 306.403 782.334 306.355C781.038 306.173 779.728 306.032 778.406 305.935C778.283 305.926 778.16 305.917 778.036 305.909C777.632 305.882 777.227 305.858 776.82 305.839L776.077 305.809ZM670.819 322.424C652.688 325.719 636.976 343.369 637 366.8L637.237 600.089C637.26 622.456 651.721 639.6 668.862 643.765L712.188 652.664C701.867 639.547 695.612 623.062 695.36 605.092L695.353 604.054L695.09 364.815C695.07 346.481 701.289 329.639 711.715 316.256L670.819 322.424ZM509 429C514.523 429 519 433.477 519 439V519C519 524.523 514.523 529 509 529C503.477 529 499 524.523 499 519V439C499 433.477 503.477 429 509 429ZM741 436C746.523 436 751 440.477 751 446V519C751 524.523 746.523 529 741 529C735.477 529 731 524.523 731 519V446C731 440.477 735.477 436 741 436Z" fill="black"/>
</svg>
