<svg height="960" viewBox="0 0 960 960" width="960" xmlns="http://www.w3.org/2000/svg"><path d="m480 82c259.894457 0 474 166.499126 474 377.5v141.649893c-.302911 80.75849-55.797187 152.561035-148.17864 203.230195-87.033539 47.735949-202.855945 74.619912-325.82136 74.619912-123.122689 0-239.082113-26.953083-326.148689-74.799577-92.4447014-50.801985-147.851311-122.789384-147.851311-203.700423v-141c0-208.690412 209.62906-374.2151582 466.31872-377.4516056.084097-.0010603.168197-.0018554.252299-.0023853l7.176984-.0460091zm0 40-7.176984.045215c-236.381335 2.980392-426.823016 152.922643-426.823016 337.454785v141.5l.0581436 3.444034c3.8325631 129.900803 196.6471904 234.555966 433.9418564 234.555966 239.387713 0 433.507259-106.509518 434-238v-141.5c0-186.396103-194.308419-337.5-434-337.5zm.977477 14.454297c153.256473 0 278.806307 65.10386 278.806307 149.389496s-125.549834 149.389495-278.806307 149.389495c-153.256472 0-278.806306-65.103859-278.806306-149.389495s125.549834-149.389496 278.806306-149.389496zm0 20c-143.658774 0-258.806306 59.709747-258.806306 129.389496s115.147532 129.389495 258.806306 129.389495c143.658775 0 258.806307-59.709746 258.806307-129.389495s-115.147532-129.389496-258.806307-129.389496zm.022523 100.545703c48.601058 0 88 31.787783 88 71v32c0 21.539105-39.398942 39-88 39l-1.455241-.005225c-47.929856-.344401-86.544759-17.671061-86.544759-38.994775v-32l.011789-1.174115c.77711-38.670679 39.873164-69.825885 87.988211-69.825885z"/></svg>