<svg height="960" viewBox="0 0 960 960" width="960" xmlns="http://www.w3.org/2000/svg"><path d="m480.550771 1 5.923876.06031054c.903448.00857162 1.84013.01727972 2.816976.02619576 2.233638.02038726 7.494214.0655199 12.999386.11243272l1.379779.011752c.153517.00130695.307044.00261379.460521.00392004l1.11447.00948247c5.930092.05044239 11.56774.09819389 13.43285.11453012 10.560921.09250156 19.950685.18264678 29.2696.28378453l2.941744.03231921c1.470977.01635787 2.943076.03302483 4.420627.05005342 31.182798.35937773 61.119253.84329629 91.975718 1.52868684 80.62182 1.7907895 159.629124 4.79422684 238.127589 9.43116025 9.699685.5729639 18.002586 4.146764 24.439035 10.0946572 4.496739 4.1554163 7.260096 8.4262663 9.811094 13.7858937l.765268 1.6078219.469186 1.7177285.013472.0493223.19923.7293992.143589.7423598c.331152 1.7120684.300308 1.0492813.39086 3.9572052.016327.5243007.033968 1.2226593.05356 2.1068937.035753 1.6136563.078574 3.8758034.127968 6.7371588.087257 5.0547996.193593 11.8964432.310721 19.8992641.018084 1.2355873.036452 2.5020275.054879 3.7825657l.012291.8555969c.004098.2857726.008197.5720575.012293.8586709l.012282.8606417.018369 1.2922447.018258 1.2904736c.006062.429449.012098.8579823.018099 1.2849793l.011952.8517618c.124767 8.9044306.238063 16.9515661.245243 18.4209801l.00036 1.510149-.050558.709699-.027639.387962-.02774.392154c-.821757 10.723049-5.853621 19.797041-14.137109 26.651373-3.338219 2.762274-7.098932 5.116175-11.410149 7.219268l-.418423.201148-.115254.790706c-14.509733 97.805665-46.621557 181.224918-91.335311 250.702441l-1.416196 2.189393c-18.240197 28.056311-37.839143 52.651499-57.964766 73.760303-15.312699 16.060759-30.009703 29.12716-42.439909 38.473403l-.399677.300517-.414196.280168c-12.455818 8.425276-18.335786 21.868583-18.46514 44.113821l-.009153 8.581892c-.060013 34.251709-.456699 61.271843-1.253964 87.304363l-.078408 2.516402c-.026554.837913-.053527 1.675008-.080921 2.511494l-.087485 2.627195-.090273 2.624633c-.030557.874611-.061582 1.749037-.093076 2.623518l-.095893 2.623848c-.470317 12.685064-1.039883 25.432379-1.716218 38.976611-.089709 1.796485-.283723 5.624574-.48201 9.531925l-.071394 1.406697c-.213701 4.210121-.418381 8.239429-.488026 9.628536l-.183183 3.679889-.329408 6.803856c-.572016 12.08884-.980208 22.428485-1.283773 33.07722l-.099847 3.662265c-.244364 9.598781-2.534232 15.929699-9.024597 22.569885l-.144452.146274-1.40847 1.410745-.857771.878436c-2.31487 2.391894-4.990539 5.318411-8.835219 9.637192l-.41644.468094c-.774412.871007-1.579165 1.778691-2.664233 3.004391-.075928.085814-.70013.791102-1.353586 1.529343l-.258096.291579c-.300118.339045-.591914.668663-.824579.931436l-.18376.207525c-.055636.062825-.10526.118855-.147687.166749-2.313712 2.611865-4.054401 4.56645-5.791618 6.498007-.384509.427524-.763017.847368-1.159411 1.285883l-1.375877 1.517014c-8.582512 9.429488-15.55252 16.437539-22.2151 22.013068-8.499087 7.112396-16.213354 11.765704-24.456985 13.376492l-.000663 33.060791 7.839871.000925c5.522848 0 10 4.477152 10 10v45.27691c0 4.690296-3.259819 8.750362-7.839323 9.763784-17.268608 3.821456-34.565084 5.2172-51.865958 4.181416-6.038727-.361417-12.071482-1.018199-18.101194-1.970798-3.88858-.61486-7.774982-1.351851-11.656271-2.210457-4.579853-1.013141-7.840052-5.073369-7.840052-9.763945v-45.27691c0-5.522848 4.477153-10 10-10l7.838927-.000925v-32.436h-108.838v32.436l7.839291.000925c5.522848 0 10 4.477152 10 10v45.27691c0 4.69031-3.259837 8.750384-7.839359 9.763792-17.268785 3.821429-34.565547 5.2172-51.865419 4.181408-6.039985-.361486-12.074301-1.018387-18.100919-1.970706-3.887284-.614418-7.772582-1.351255-11.657013-2.210541-4.57987-1.013127-7.840087-5.073364-7.840087-9.763953v-45.27691c0-5.522848 4.477152-10 10-10l7.838506-.000925.0007-33.004051c-7.206186-1.348974-13.987323-5.037526-21.193579-10.558564-5.938339-4.549629-12.184547-10.421577-19.322862-17.918585-2.808728-2.949863-5.724148-6.117696-9.010822-9.772048-1.018381-1.132306-2.885883-3.229948-4.839954-5.429458l-.470249-.529396-.471231-.530655-.199486-.224685-.397524-.44781-.394405-.444383c-2.681188-3.021232-5.043882-5.689242-5.038236-5.682903-4.055013-4.552958-6.898854-7.650896-9.277732-10.074864l-.168827-.172168-1.483815-1.487175-.144452-.146274c-6.340964-6.487337-8.723678-12.793094-9.013401-22.169186l-.109579-4.011674-.116017-3.890846c-.323718-10.397939-.743165-20.494243-1.338296-32.766181l-.530079-10.655885c-.062102-1.226161-.126225-2.487862-.210688-4.146612-.005847-.11482-.16635-3.265591-.213205-4.18638-.175344-3.44583-.304018-5.991139-.430972-8.533509-.698759-13.993266-1.283493-27.134091-1.762547-40.234419l-.094405-2.619767-.091601-2.62013c-.992248-28.82872-1.478393-57.985414-1.54729-96.115673l-.007133-7.982354c0-22.768255-5.885621-36.420851-18.467555-44.931434l-.414197-.280168-.399677-.300517c-12.430205-9.346243-27.12721-22.412644-42.439909-38.473403-20.125623-21.108804-39.724569-45.703992-57.964766-73.760303-45.451961-69.912315-78.0890398-154.056636-92.7515071-252.891834l-.1166765-.792706-.332088-.159096c-4.2303288-2.056748-7.935539-4.354051-11.2260547-7.038205l-.516125-.42705c-8.086412-6.786754-13.0233684-15.725649-13.8772443-26.284233l-.0146153-.192256-.053407-.750373-.0604909-.849901.0120131-.851966c.2775944-19.6870566.4945034-34.472701.6507987-44.3611478.0783648-4.9579615.141567-8.6898177.1897839-11.2038117.024621-1.2837215.0455052-2.2595711.0631325-2.9433182.0101183-.3924781.0195438-.7058645.0296569-.9690402.2555696-6.6507593.1953803-6.6447096.5619898-6.5939012l.0425285.0054936c.0147868.0016687.0301968.0030628.0462676.0038465l.0502331.0001837c.2440257-.0108243.624984-.2071398 1.2463945-1.51073l.043639-.0909541.2778188-.5753172.0550544-.1130988c2.5706152-5.2389202 5.5642554-9.6200693 10.1524022-13.6469175 6.3462983-5.5699133 14.3982066-8.8931663 23.7161255-9.4435792 78.4986273-4.63694297 157.5060363-7.64037892 238.1281643-9.43116034 30.856808-.68539245 60.793714-1.16931125 91.977076-1.52868681 1.477595-.01702869 2.94974-.03369575 4.420764-.05005373l2.941839-.03231939c9.319219-.10113833 18.709316-.19128382 29.270503-.28378404 1.924471-.01685549 7.860324-.06711315 13.991222-.11927499l1.116009-.00949794.469954-.00400153.93796-.00799045c5.459426-.04652521 10.656881-.09112307 12.873374-.11135249 3.278816-.02992498 6.134831-.05778099 8.728979-.08650619zm-56.816004 907.446925-36.579494-.000925.000431 29.363013c11.794199.567982 23.589693-.130688 35.398665-2.09903l1.180398-.202058zm170.462579 0-36.580073-.000925.000595 29.363011c11.794871.567983 23.590329-.130672 35.399162-2.099015l1.180316-.202071zm-224.881073-.000925-2.883506.000925v27.06l.876825.152021 1.742302.284562.264379.040492zm170.462 0-2.882927.000925v27.059l.875764.152795 1.742837.284736.264326.040544zm-153.739-51.535-1.767399.000726v31.535l1.767399-.000726zm19.856601.000726-7.964601-.000726v31.535l7.964601.000726zm150.605399-.000726-1.76682.000726v31.535l1.76682-.000726zm19.85718.000726-7.96418-.000726v31.535l7.96418.000726zm-238.649691-74.077167.087627.09617c.197017.22202.395731.445923.595305.670762l.477976.538416.536089.603709c2.052234 2.310722 4.046395 4.551632 5.079789 5.700631 3.051951 3.39337 5.720792 6.293275 8.238768 8.937777 5.825715 6.118451 10.691261 10.692463 14.680907 13.749111 1.715946 1.314664 3.154923 2.256853 4.221702 2.811262l.133348.067603h216.791025l.119489-.060497c.048112-.025095.098331-.051671.150596-.079746l.162876-.088747c1.575077-.869945 3.674068-2.367126 6.160814-4.448139 4.972521-4.161217 10.839689-10.060408 18.280471-18.235446l1.329289-1.465649c.35125-.388613.707762-.784058 1.070638-1.187529 1.657639-1.843078 3.338097-3.73003 5.590895-6.273132.2149-.242592.618719-.698724 1.052606-1.188881-31.539731 3.748983-77.78998 5.45272-140.334204 5.546237-63.960387-.095667-112.0407-1.86288-144.426006-5.693912zm-30.565947-277.709074.142164.293238c6.042446 12.946698 8.991819 28.182448 9.105197 45.605331l.003402 1.048417.0071 7.946214c.062066 34.346472.464932 61.256568 1.27694 87.274882l.078573 2.475448c.026605.82439.053624 1.648091.081061 2.471311l.087539 2.58409.090294 2.582376c.030559.860666.06158 1.721286.093065 2.582102l.09585 2.58327c.016208.430722.032532.861553.048974 1.292523l.100056 2.587725c.422771 10.791126.919056 21.706514 1.493754 33.21537.126207 2.527408.254306 5.061344.429063 8.49563.046788.919483.207239 4.06923.213135 4.185017.084633 1.662062.148923 2.927067.212142 4.17544l.532203 10.698744c.600778 12.388059 1.026954 22.62606 1.358117 33.196812 28.96995 5.372825 82.749417 7.994168 159.543324 8.109068 75.53608-.112979 127.044778-2.662122 155.582449-8.004712.281559-9.054659.642564-18.043338 1.116817-28.188596l.072152-1.534.331785-6.852823.184875-3.714213c.070383-1.403847.275374-5.439369.489048-9.648984l.047575-.937337.042644-.840324c.19153-3.774507.37582-7.411436.462122-9.139722.713543-14.289351 1.30627-27.665774 1.7875-41.025526l.091752-2.58579c1.009068-28.877715 1.500123-57.947651 1.567251-96.258185l.009459-8.662943c.101847-17.545187 3.078962-32.876841 9.188963-45.888202-35.718401 4.598668-91.858423 6.67193-170.711982 6.775176-80.348985-.105232-138.731805-2.241147-175.254363-6.896827zm179.465954-389.762854c-86.614597 0-214.738487 3.83634-384.319612 11.510687 13.150892 96.847974 44.260371 178.460782 87.954107 245.668668 16.865144 25.941263 34.924296 48.604125 53.379429 67.960833 13.5404 14.201879 26.366054 25.644622 36.932593 33.654835l.260987.197346.258528.176286c3.409424 2.358069 6.558988 4.901847 9.45427 7.629121 30.49493 6.579506 95.244248 9.735344 191.868107 9.861922 95.056513-.124492 156.847416-3.195646 187.274657-9.75411 2.926231-2.770959 6.115388-5.351943 9.57127-7.741691l.478168-.328528-.220975.151.255435-.191346c10.367171-7.859077 22.909011-19.022377 36.166929-32.853906l.765664-.800929c18.455133-19.356708 36.514285-42.01957 53.37943-67.960833 43.780419-67.341221 74.926602-149.144575 88.035685-246.244743-163.230675-7.290464-287.077556-10.934612-371.494672-10.934612zm-6.260471-74.362631h-.829444c-2.217158.029063-4.623808.0525517-7.314123.0773579l-.815698.0074824c-5.055869.0461438-25.509047.2181418-29.403248.2522492-10.534216.0922639-19.896601.1821424-29.184949.2829436l-4.398528.0486172c-.97814.0110086-1.957381.0221616-2.939003.0334744-31.048866.3578255-60.845842.8394824-91.549767 1.521479-77.731579 1.7265765-153.927154 4.5858986-229.5679899 8.9571721l-5.8002749.3382242-.0019994.1747474c-.0340175 1.9654169-.0731238 4.3400427-.1172848 7.1222947l-.0088996.5618849c-.1481962 9.3760385-.3513187 23.1862249-.6093061 41.426936l-.0123066.843394c1.681185 1.277683 4.9023947 2.840274 9.7239388 4.502803l.9649665.328079 1.3879654.472276c.9966206-.391584 2.0736183-.62851 3.2029349-.680038 173.9853697-7.9385807 305.1449857-11.9087458 393.5334867-11.9087458 87.231141 0 216.120642 3.8668751 386.721022 11.5989438 4.502334-1.587894 7.514437-3.056399 9.150041-4.286698l.048466-.038877v-.077629c-.034089-2.7178964-.125782-9.5160264-.22799-16.8132324l-.011613-.8280384-.017554-1.247527c-.00979-.6942924-.019633-1.3900197-.029491-2.0841751l-.011834-.8320397-.011831-.829376c-.025623-1.7932619-.051126-3.5596372-.075811-5.2462783-.11666-7.9708026-.222509-14.781153-.309047-19.7942448-.014224-.8240191-.027875-1.5963633-.040924-2.3152158l-.001905-.0472435-5.824813-.3402234c-73.276912-4.2346629-147.074479-7.0504045-222.284598-8.7919755l-7.282839-.1651975c-30.703582-.6819946-60.500108-1.1636513-91.548412-1.521479-11.779106-.1357527-23.215304-.2484895-36.521348-.3650352-1.888771-.0165435-7.677963-.0655687-13.714924-.1169276l-1.099546-.0093569-.465651-.0039645-.930135-.0079226c-5.571716-.0474744-10.926515-.0934043-13.191489-.1140776-.981514-.0089586-1.922983-.0177112-2.841857-.0264319z"/></svg>