<svg height="960" viewBox="0 0 960 960" width="960" xmlns="http://www.w3.org/2000/svg"><path d="m477.187269 4.00067508 4.763422.01614465 4.740722.02612872 4.716083.03804286 4.689505.04986415 4.660987.06159255 4.630531.0732281 4.598135.08477077 4.5638.09622057 4.527526.10757751 2.997241.07798188 4.46276.12629935 4.421315.13740863 4.377932.14842504 4.332608.15934859 4.285346.17017925 4.236144.18091707 2.795805.12653095 4.149833.19860703 4.095461.20909717 4.039149.21949446 2.660525.15206004 3.940987.23661689 2.593288.163389 2.565388.16787244 3.794512.26015489 2.493124.17896062 2.463213.18334774 2.432727.18770735 2.401668.19203944 3.543006.29612162 2.321503.20274926 2.214312.20016197 2.108309.19699313 3.103255.30200596 3.03165.30985658 1.981012.21094978 1.948724.21446484 1.916251.21799027 2.813085.3336182 1.834258.2268492 1.801138.2304109 1.767831.2339829 1.734339.2375653 1.700663.2411581 1.6668.2447612 1.632752.2483747 1.59852.2519986c.263557.0423023.52568.084756.786364.1273614l1.546823.2574538 1.512127.2611036 1.477246.2647636 1.442179.2684342 1.406927.272115 1.37149.2758061c6.532515 1.3398641 12.115319 2.8524339 17.101789 4.7921463 3.817575 1.485018 7.375029 3.2398451 10.873532 5.585564 4.189237 2.8088507 7.979974 6.1894664 11.148779 10.5019147l.25733.355642.511715.6676226c.980306 1.3061028 1.890825 2.6740137 2.721573 4.1031541l-.406518-.6851704c1.411486.1124333 2.74039.5179538 3.925836 1.1556861l100.491647 9.7485181c6.229892.6043086 12.233612 2.2161587 17.810071 4.7154272l.550676.2507623c26.342283 3.2252668 37.792279 28.1259437 33.122757 49.250984l-.036757.152016.012113.281886.020145.657269.016968 1.176565.000774 728.719774c0 27.627997-19.810108 51.262916-46.980072 56.112444l-.74143.126689-12.265498 1.935373-.29652.516142c-6.437007 11.001136-17.348381 19.172165-30.511867 21.85749l-.649191.12763c-.259389.049084-.519258.095598-.779568.139537l-.62673.103808-.390586.05999-251.805815 37.402408c-15.713379 2.334013-31.708521 1.976522-47.300288-1.056284l-1.213863-.242073-240.686828-49.397976c-12.647972-2.595867-23.211407-10.248431-29.719601-20.614519l-.273143-.442153-14.221735-2.918261c-25.826088-5.301958-44.596661-27.602855-45.503061-53.856617l-.025728-1.00355-.008476-.768748v-721.525866c0-29.7107503 22.817367-54.4218348 52.400078-56.8141429l.705608-.0521319 105.393314-6.5156832.229921-.3855733c2.624017-4.3413291 5.958725-8.0017781 9.724799-11.0951212l.405146-.3292647c3.866959-3.1096165 7.822665-5.3258506 12.09931-7.1589136 5.148245-2.2066493 10.842814-3.8523834 17.558593-5.2971411l1.332723-.2810054 1.367817-.2771854 1.40275-.2733827 1.437527-.2695975 1.472144-.2658296 1.506604-.262079 1.540905-.2583459 1.575047-.2546301 1.609032-.2509315c.270995-.0415147.5434-.0828761.81721-.1240844l1.659712-.2454164 1.693299-.2417615c.285007-.0399899.571407-.0798283.859196-.1195155l1.743385-.2363114 2.677265-.3477007 1.82607-.2273149c.307082-.037588.615531-.0750273.925343-.1123183l2.825028-.3316241 2.898107-.32367384 1.972408-.21139459 2.004491-.2079045 3.066549-.3053508 2.084009-.19925523 2.181894-.20185795 2.280781-.20392213 2.313205-.19974925 2.345067-.19554923 3.576114-.28538952 2.422267-.18493056 3.68928-.26933439 2.495956-.17414241 2.524448-.16977967 2.55238-.16538983 2.579749-.16097287 2.606557-.15652878 2.632804-.15205758 3.99719-.21964353 4.053085-.20943078 4.107085-.19912648 4.15919-.18873067 2.800805-.1199998 4.241819-.17120091 2.854137-.10822854 4.319184-.15341691 4.363076-.14262447 4.405072-.13174049 4.445173-.120765 2.984791-.07436729 3.001209-.0694215 4.531371-.09479955 4.565153-.08351896 4.597041-.07214682 4.627034-.06068318 4.65513-.04912799 4.681331-.03748128 4.705637-.02574304 4.728049-.0158964zm-273.183269 854.44199992.000877.012444c.110231 2.744364 2.077989 5.077934 4.788829 5.634306l240.484647 49.357023 1.011473.202164c11.135134 2.165932 22.560226 2.421912 33.785907.754486l251.805815-37.402408.236756-.039963c2.820325-.533683 4.881696-3.002045 4.881696-5.894923v-2.440129l-254.929148 39.523593c-6.533421 1.012923-13.131181 1.457343-19.71751 1.334967-.214299.012839-.430749.019814-.648828.019814-.397919 0-.7904-.023262-1.176161-.068499-5.931037-.204291-11.847626-.868819-17.693841-1.992059l-1.047964-.206414zm590.996-745.484-300.530173 31.350611c-6.143976.640908-12.306389 1.043952-18.473467 1.20916l-.283626 743.709818c2.101442-.160642 4.199117-.391494 6.289374-.69264l1.004606-.150239 305.935856-47.431444c2.988145-.463274 5.298594-2.566356 6.056557-5.227152l.000873-.139295zm-643.734936-.832037.000037 709.404852c0 3.306854 2.347228 6.217057 5.720077 7.014622l.254866.05583 292.502963 59.03038c1.98064.399715 3.971624.735486 5.969757 1.007238l.284822-743.419087c-3.573258-.202388-7.143076-.484767-10.706768-.847132l-1.5819-.166149-289.752741-31.404244c-.947581-.102702-1.84983-.334617-2.691113-.67631zm107.851756-32.6477627-92.16545 5.6964555-.32708.0233282c-5.453229.4409942-10.143709 3.4308562-12.925187 7.750306.695459-.0936581 1.408994-.1143467 2.133422-.0559145l.278689.0263409 289.752741 31.4042446c14.947915 1.620098 30.021173 1.703416 44.983421.249477l1.547413-.155891 295.8574-30.8629503c-2.429861-1.8393697-5.378156-3.0447514-8.610868-3.3583291l-92.732828-8.9964175c.693136 1.4345578 1.091507 3.0442743 1.091507 4.8004749 0 4.5047333-2.30008 7.595996-5.490057 9.7359288-1.569601 1.0529358-3.370328 1.8558143-5.526173 2.5735513-1.022747.3404989-2.155697.6692952-3.401151.9882436l-.95522.2373938c-.162731.0392676-.327229.0783885-.493498.1173664l-1.018907.2321804c-.346745.0768408-.700612.1531387-1.061635.2289217l-1.104577.225838c-.375374.074785-.75794.149084-1.147736.222927l-1.191109.220191-1.234699.217627c-.209428.036068-.420681.072036-.633763.107908l-1.300487.214109-1.724222.270091-1.799631.267024-1.874313.263901-1.290673.174172-1.323326.172744-1.355765.1713-1.387987.169839-2.141928.251984-1.467603.166116-3.029397.327665-2.353619.241688-2.422728.238147-2.491112.23455-2.558768.2309-2.625697.227194-2.691901.223434-2.757377.21962-2.822126.215751-2.886149.211826-1.959308.139011-1.987225.137226-3.504303.233226-3.575377.227079-3.64483.220873-4.96501.28474-3.800584.206159-3.864636.199751-3.927067.193286-3.987877.186758-4.047066.180171-5.485362.229878-5.583866.217917-5.67853.205816-2.873563.098324-4.351868.141709-5.877479.178063-2.969797.084329-4.492167.120563-4.535692.113395-6.112495.139938-6.183152.126945-3.116872.058555-6.281935.107187-4.751728.071637-6.386258.08373-4.82556.053881-6.478819.059838-6.526429.045988-6.570198.031997-8.268446.020103h-6.646334l-8.268446-.020103-6.570198-.031997-8.150747-.059655-6.466317-.063277-6.413904-.076949-4.773723-.066597-6.312942-.10053-6.249968-.113808-6.183152-.126945-6.112495-.139938-4.535692-.113395-2.999715-.079583-4.462249-.125309-5.877479-.178063-2.906721-.0937-4.31871-.146333-5.67853-.205816-5.583866-.217917-5.485362-.229878-4.047066-.180171-3.987877-.186758-3.927067-.193286-3.864636-.199751-3.800584-.206159-2.497339-.140968-3.690231-.216703-3.621859-.222949-3.551866-.229134-4.31545-.29339-1.959308-.139011-1.931177-.140779-1.90283-.142531-3.719759-.290253-2.713806-.222169-2.647846-.225947-2.581159-.229671-2.513745-.23334-2.445603-.236953-3.153552-.321467-3.029397-.327665-2.189536-.249738-2.118003-.253098-2.045744-.256403-1.323326-.172744-1.290673-.174172-1.874313-.263901-1.799631-.267024-1.157905-.179723-1.222063-.197146-1.278504-.215239-1.234699-.217627-1.191109-.220191c-.389796-.073843-.772362-.148142-1.147736-.222927l-1.104577-.225838c-.361023-.075783-.71489-.1520809-1.061635-.2289217l-1.018907-.2321804c-.166269-.0389779-.330767-.0780988-.493498-.1173664l-.95522-.2373938c-1.245454-.3189484-2.378404-.6477447-3.401151-.9882436-2.155845-.717737-3.956572-1.5206155-5.526173-2.5735513-3.189977-2.1399328-5.490057-5.2311955-5.490057-9.7359288 0-2.5115232.806159-4.7056746 2.11682-6.5211247zm44.87918-11.0892002-.000443 10.670697c-.000257 1.6575721-.406079 3.2294239-1.12827 4.6151215l-.091287.1685064 1.717998.1727655 2.018394.1946425 3.12281.2877753 2.144553.1889748 3.309477.2790062 2.267283.1829502 2.315416.1804405 3.562174.26583 2.43335.1739163 3.347159.2297415 3.484141.2282614 2.36219.1488138 3.601223.2181345 3.669306.2119763 4.995503.2729496 3.821843.1973685 3.884505.1910055 3.945544.1845811 5.352864.2360085 4.081644.1693519 4.137263.1627227 4.191257.1560321 2.823365.100274 4.277635.1447444 4.327293.1378899 4.375327.1309739 4.421735.1239964 4.466517.1169576 3.001754.074031 4.537541.1050896 4.577989.0978869 6.164094.1192053 4.666044.0808416 6.275601.0962552 6.334021.0829406 7.99381.0847301 6.451378.0524501 6.497276.038662 4.900758.0198605 6.568324.0141826h6.595282l6.568324-.0141826 4.900758-.0198605 6.497276-.038662 6.451378-.0524501 7.99381-.0847301 4.755842-.0609515 6.290567-.0929402 4.677901-.0783792 6.180746-.1159541 6.112693-.1289046 4.537541-.1050896 3.001754-.074031 4.466517-.1169576 4.421735-.1239964 4.375327-.1309739 4.327293-.1378899 2.857374-.0957385 4.243626-.1492799 4.191257-.1560321 4.137263-.1627227 5.429552-.2272651 5.326819-.2389047 3.925378-.1867294 3.863799-.1931333 5.053131-.2673666 2.483224-.137866 3.669306-.2119763 3.601223-.2181345 2.36219-.1488138 3.484141-.2282614 2.291572-.1561329 3.379791-.2395944 3.290435-.2446707 3.199628-.249596 3.107371-.2543703 2.019612-.1721582 1.977536-.1741682 1.935029-.1761337 1.892094-.1780543 1.84873-.1799302 1.804935-.1817614 2.166881-.2284725-.081371-.183347c-.488925-1.1350284-.773001-2.375507-.808895-3.6722127l-.003877-.2787082-.002857-10.975057-.01036.0018406-1.637571.1865505-2.514923.2762092-2.584532.2718134-2.653392.2673544-2.721501.2628323-2.788859.258247-2.855467.2535987-2.921324.2488871-2.986431.2441126-3.323472.2601926-2.345244.176756-3.576049.259206-2.422127.1688221-3.689139.2472091-2.496031.1607602-3.797762.2350204-3.860792.227615-2.608083.1475951-3.962267.2151191-5.374118.2750073-4.096826.1973024-4.151815.1895515-4.205194.1817314-5.687181.2300248-4.323493.163216-4.371511.1551658-4.417923.1470463-4.462725.1388577-2.999245.0879885-4.533822.1250566-4.574335.1166838-4.613241.1082419-4.650538.0997309-4.686227.0911507-6.301039.1080681-4.763247.0708618-4.793575.0620513-6.435831.0689104-6.483076.0529609-4.891018.0291551-4.913842.0200222-4.935056.0108201h-6.602058l-4.935056-.0108201-4.913842-.0200222-4.891018-.0291551-6.483076-.0529609-6.435831-.0689104-4.793575-.0620513-4.763247-.0708618-6.301039-.1080681-4.686227-.0911507-6.192509-.1348693-4.600451-.1110635-4.561009-.1194824-3.017967-.084298-2.999246-.0879885-4.462724-.1388577-4.417923-.1470463-4.371511-.1551658-4.323493-.163216-5.687181-.2300248-4.205194-.1817314-4.151815-.1895515-2.737426-.130678-4.059275-.2024312-4.001605-.210067-2.634905-.1442526-3.901918-.2226397-2.566957-.1525704-3.797762-.2350204-2.496031-.1607602-3.689139-.2472091-2.422127-.1688221-3.576049-.259206-2.345244-.176756-3.323473-.2601926-2.98643-.2441126-2.921324-.2488871-2.855467-.2535987-2.788859-.258247-2.721501-.2628323-2.653392-.2673544-2.584533-.2718134-2.514922-.2762092zm170.004-24.3896751c-58.673674 0-110.414381 2.7899056-141.024145 7.0352736l1.273693.0989176 4.684959.3421274 3.594055.2484044 3.661121.2413046 3.726574.2341341 3.790412.2268926 5.150397.2911367 5.257191.2779694 2.667448.1339944 5.410209.2579034 5.50744.2443162 4.192084.1742196 4.243011.1664115 4.292322.1585327 4.340019.150583 2.919048.0959371 4.415928.1371761 4.459321.1290374 4.5011.120828 3.023147.0759562 4.567145.1069882 6.147542.1295747 6.210338.1144764 6.269308.0992103 6.324452.0837762 6.37577.0681743 4.813203.040791 6.45637.040467 4.86926.0198176 4.890594.010711h6.542902l4.890594-.010711 4.869259-.0198176 6.456371-.040467 4.813203-.040791 6.37577-.0681743 6.324452-.0837762 6.269308-.0992103 6.210338-.1144764 6.147542-.1295747 4.567145-.1069882 3.023147-.0759562 4.5011-.120828 4.459321-.1290374 4.415928-.1371761 2.919048-.0959371 4.340019-.150583 4.292322-.1585327 5.64611-.2236206 4.174751-.1768066 4.121673-.1845201 5.41021-.2579034 2.667448-.1339944 5.257191-.2779694 3.873019-.2171272 2.547842-.1488314 2.519948-.1520707 3.726573-.2341341 3.661122-.2413046 3.594055-.2484044 4.684958-.3421274.917163-.0704193c-17.713329-2.4681067-42.557467-4.4467979-71.755397-5.6750666l-4.751745-.1917564-4.824816-.17847c-18.631862-.6583574-38.817072-1.0184789-59.89719-1.0184789z"/></svg>