<svg height="960" viewBox="0 0 960 960" width="960" xmlns="http://www.w3.org/2000/svg"><path d="m245.023195 5.62065595c.638059 0 1.260607.00643542 1.908133.02460371l.657352.02227545 467.424725 18.57936899c29.500455 1.1725949 53.918543 24.8701167 54.403955 54.7704484l.007365.9079525v789.500136c0 29.692791-23.628466 53.693694-52.679705 55.916082l-.881982.060662-467.424725 28.546286c-.47606.029074-.952267.0521-1.428519.06907l-.714399.020913-.648405.014736h-1.085551c-8.788869-.072051-17.326041-2.209415-24.969281-6.169271l-.65293-.343874-.205228-.112045-14.184254-4.734087c-26.870486-8.969243-45.297939-33.621888-46.415877-61.790035l-.028569-.854644-.018045-.865384-.007203-.700896v-802.5662239c0-33.9127611 24.970918-62.5700803 58.415427-67.32139683l1.016047-.13664265.722616-.08734161 18.247858-2.03934901.335253-.05399173c1.533703-.23714327 3.078362-.41023507 4.63027-.51870273l.931985-.05732111.928492-.04198443.488962-.01872132.408621-.01102446zm-2.532711 908.23048305.153568.023517.342228.048913.072772.008087.235.028.14269.01552.129054.012431.035256.002049-.16431-.01448.24231.02148-.027-.002.107955.00952.216086.015581.049959.002899.032007.002143c.076221.004567.152607.008589.229154.01206l-.094136-.00446.179975.007257.184.007.139965.003486.373842.002931.462917-.008405.466224-.021811 467.424725-28.546285c8.726099-.532915 15.820652-7.547377 15.996652-15.739483l.003348-.311648-.000673-473.884785-499.425.457.000948 503.002344c0 4.953061 2.250625 9.243011 5.784999 11.962024.19212.147781.387324.290429.58614.428324.014117.009791.028083.019442.042066.029069l-.020153-.014761.395878.26503c.281918.181612.570549.353932.865484.51658l.348262.186034.353882.177054c.030878.014933.061923.029817.09303.044598l-.045536-.022296.09.043.119.055.049.022.114874.052988.296507.128315c.044403.018645.08892.037084.133549.055317l-.06593-.02762.101.041-.03507-.01338.044145.01796-.044145-.01796c.103375.042232.207354.083353.311923.12335l.000633.000252c.12966.049585.26087.097677.392967.143997l.263547.088781.082262.027765-.037308-.012107c.09958.032505.199643.064013.300177.094513l-.062957-.01927.138826.041099.104.031.053157.015815.091176.025728.143492.039302.098175.025155.076102.020516.07253.018327.037368.008157.123.03.340371.078291c.133415.028648.267529.055569.402317.08074l.175499.031716.164222.027726c.051177.008369.102448.016487.153809.024354l-.141786-.022344-.012023-.00201c-.000333-.000055-.000665-.000109-.000997-.000163l-.165412-.02831.139499.024047zm-31.422383-861.5744085-.298432.1926391c-7.563861 4.9456804-12.527571 13.4264268-12.685723 22.9768176l-.003894.4705429v802.6858519c.135375 9.156827 4.717857 17.492827 11.985271 22.560148-.029221-.47671-.048513-.95604-.058128-1.437945l-.007195-.724785v-838c0-3.0163139.370517-5.9379597 1.068101-8.7232695zm187.958708 757.6445755c.202153 4.055882-2.856693 7.519546-6.875113 7.848119l-.242238.015932-80.282333 4.001415c-4.137.206196-7.657856-2.980351-7.864052-7.117351-.202152-4.055883 2.856694-7.519547 6.875114-7.84812l.242238-.015932 80.282333-4.001415c4.137-.206195 7.657856 2.980352 7.864051 7.117352zm273.242-145.059888.004141.225186v131.514677c0 3.121477-2.389682 5.707552-5.474394 5.977005l-.226926.015556-240.660955 11.994972c-3.352261.167083-6.173551-2.444126-6.294632-5.769813l-.004048-.222748v-135.375435c0-3.159588 2.446464-5.763617 5.572872-5.984851l.224447-.011725 240.660955-8.134214c3.315858-.112074 6.077441 2.484018 6.19854 5.77139zm-273.241166 125.659573c.192879 4.056335-2.873878 7.512996-6.893038 7.832381l-.242275.015378-80.282332 3.817427c-4.137461.196736-7.651022-2.997852-7.847759-7.135313-.192878-4.056334 2.873878-7.512995 6.893039-7.83238l.242274-.015378 80.282333-3.817427c4.137461-.196737 7.651022 2.997852 7.847758 7.135312zm.000795-19.400308c.183602 4.056764-2.891051 7.506403-6.910932 7.816596l-.242308.014824-80.282333 3.63344c-4.1379.187274-7.644146-3.015341-7.831421-7.153241-.183602-4.056765 2.891052-7.506404 6.910932-7.816597l.242309-.014824 80.282333-3.633439c4.1379-.187274 7.644146 3.015341 7.83142 7.153241zm.000756-19.400304c.174323 4.057174-2.908213 7.499772-6.928793 7.800769l-.242342.01427-80.282332 3.449451c-4.138318.177809-7.63723-3.032817-7.815039-7.171135-.174322-4.057174 2.908214-7.499771 6.928793-7.800768l.242342-.01427 80.282333-3.449452c4.138317-.177809 7.637229 3.032818 7.815038 7.171135zm.000717-19.400298c.165041 4.057562-2.925363 7.493098-6.946621 7.784897l-.242374.013715-80.282332 3.265464c-4.138714.168341-7.630271-3.050282-7.798613-7.188995-.16504-4.057562 2.925364-7.493098 6.946622-7.784897l.242373-.013715 80.282333-3.265464c4.138714-.168341 7.630271 3.050281 7.798612 7.188995zm.000678-19.400294c.155756 4.057929-2.942501 7.486385-6.964416 7.768982l-.242405.01316-80.282332 3.081476c-4.139088.158871-7.623272-3.067733-7.782142-7.20682-.155756-4.05793 2.942501-7.486385 6.964416-7.768982l.242404-.01316 80.282333-3.081477c4.139088-.15887 7.623272 3.067733 7.782142 7.206821zm.000639-19.400289c.146468 4.058275-2.959627 7.479631-6.982178 7.753023l-.242434.012605-80.282333 2.897489c-4.13944.149397-7.616231-3.085172-7.765628-7.224612-.146468-4.058275 2.959627-7.479632 6.982178-7.753023l.242434-.012605 80.282333-2.897489c4.13944-.149397 7.61623 3.085172 7.765628 7.224612zm.000599-19.400285c.137179 4.0586-2.976739 7.472837-6.999906 7.73702l-.242462.012051-80.282333 2.713501c-4.139771.139922-7.609149-3.102597-7.749071-7.242368-.137178-4.0586 2.97674-7.472838 6.999906-7.737021l.242463-.01205 80.282332-2.713501c4.139772-.139922 7.609149 3.102597 7.749071 7.242368zm-28.438553-78.910469 4.848993.012194 7.599115.041792 11.064023.097115.338321.007194c7.42482.237499 13.62483 5.687221 14.647671 13.05252l.243629 1.792234.219569 1.69483.1955 1.598022.116957 1.011859.155367 1.437999.090195.90573.079485.863587.099142 1.216748c.019353.259941.03692.512932.052701.759002l.027944.459291.049389.95837.040761 1.011655c.006077.173065.011797.348362.01716.525896l.027914 1.092103c.003942.186508.00753.375265.010765.566277l.015178 1.173178c.001826.200055.003301.402376.004426.60697l.002554 1.254879c0 .213707 0 .429697-.001858.647978l-.009957 1.337205c-.083326 8.020986-6.375754 14.67674-14.390437 15.367196l-4.363324.374112-7.377137.613594-5.314967.424108-4.946024.377649-4.578007.331217-3.631796.246964-3.362679.212889-2.092563.123004-2.915444.156134-2.64788.122105-2.002598.075771-1.81915.052598-1.711722.035756-1.839924.026645-1.968175.017538-2.096471.008437-2.223882-.000658-3.117923-.014681-3.339625-.030362-3.561434-.046033-4.566659-.07591-4.886403-.098443-5.20633-.120956-4.583131-.117982-3.826633-.105626c-8.194822-.235494-14.704694-6.802931-14.815037-14.994064-.006252-.466233-.010677-.923291-.013263-1.371229l-.002224-1.316511c0-.214877.00157-.427488.003052-.63784l.014483-1.235057.025722-1.181169c.015683-.577168.035611-1.134252.059828-1.671439l.054166-1.047899c.029955-.51074.06423-1.001707.102869-1.473088l.071431-.804346.086015-.848364c.015551-.145075.03171-.291994.048476-.440762l.107888-.914831.122464-.959438.137038-1.004281.151608-1.049359.166176-1.094672.18074-1.140222.29841-1.796254.331162-1.900066c1.265803-7.104605 7.279736-12.452734 14.490487-12.906014l6.204846-.381825 6.619136-.392059 6.115577-.344779 4.938082-.262885 3.291189-.165601 4.277263-.200788 2.819199-.121234 3.616513-.138662 2.793116-.089998 2.882995-.071237 1.717708-.031606 3.307409-.044199 3.691679-.030073 4.0767-.015966zm77.822224-2.244898.971474.00473 1.013211.012012 1.055074.01928 1.097061.026535 1.724589.053378 1.202574.044615 1.883444.080435 1.308867.062612 2.043468.107369.334851.021919c7.123484.542465 12.947674 5.859282 13.94763 12.936094l.172384 1.238915.161144 1.193712.220632 1.706211.195326 1.605527.170009 1.505454.099269.948343.127794 1.340027.071118.838626.059852.795055.025701.381246.053335.91699.044832.968853.036376 1.020987.027967 1.073387.019604 1.126056.011288 1.178993.003019 1.232197-.005204 1.285669-.013381 1.33941c-.097871 7.590246-5.809434 13.988607-13.350298 15.145654l-1.447766.218589-1.40597.204926-1.364333.191249-1.322855.177557-1.281537.163852-1.240379.150131-1.19938.136395-1.158539.122647-1.11786.108882-1.077339.095105c-.176188.014701-.350695.028828-.523524.04238l-1.016856.07441c-.332256.022501-.657826.042701-.976734.060595l-.936772.046766-.896968.032923c-.146767.00435-.295197.008215-.445292.011597l-.92058.014488c-.470308.004344-.955662.004343-1.456145.000008l-1.021166-.014444-1.061662-.025975-1.102309-.037484-1.143107-.048969-1.184054-.060432c-.200763-.011026-.403238-.022529-.607429-.034507l-1.245757-.077582-1.28708-.088987-1.328554-.100368-1.370177-.111726-1.41195-.123061-1.453875-.134373c-7.717432-.737229-13.640533-7.036078-13.770836-14.769259l-.017791-1.364592-.00695-1.311478.003965-1.25868.014957-1.206198.026025-1.154033c.005264-.18801.010992-.373859.017186-.557554l.042769-1.076377.054025-1.025003.065359-.973943.036952-.467924c.010518-.126486.021623-.254705.033313-.384662l.077177-.800619.091244-.842531c.016379-.143927.033345-.28961.050896-.437052l.112339-.905818.126399-.948286.140458-.990977.154514-1.033893.258119-1.631791.189643-1.142153.20369-1.185848.33187-1.861186c1.236088-6.786336 6.871801-11.958805 13.75342-12.710974l1.427472-.153221 1.382438-.142394 1.337535-.131556 1.922386-.17699 1.225835-.104415 1.181379-.093542 1.688996-.119899c.182142-.01196.362444-.023466.540911-.034518l1.048784-.060856 1.004842-.04994.96103-.039013.917344-.028077c.275457-.006953.557786-.012684.84701-.017194l.888373-.009873zm66.479163-1.664876 1.503612.014869 1.054721.018917 1.096716.026104 1.724086.052604 1.202245.044016 1.882959.079412 1.308548.061846 2.042994.106096.339578.022054c7.111108.538663 12.941624 5.820097 13.946464 12.875375.029684.20872.058899.415563.087646.620534l.166859 1.207392.229203 1.727239.138741 1.095861.187012 1.560802.161684 1.461762.136347 1.36334.111001 1.265536c.010925.135205.02138.268609.031366.400218l.054279.768132.053403.9109.044889.96232.036421 1.014011.028001 1.065972.019628 1.118203.011303 1.170703.003025 1.223474-.005207 1.276515-.013389 1.329826c-.098422 7.572974-5.823526 13.937411-13.357338 15.086037-.244714.03732-.48768.074075-.728901.110266l-1.426414.210365-1.384694.196794-1.343132.183212-1.301728.169613-1.260483.156001-1.219395.142375-1.178466.128734-1.137696.11508c-.186227.018041-.370762.035513-.553608.052414l-1.076837.094571-1.036461.080881-.996245.067177c-.162698.010053-.323727.019535-.48309.028445l-.936217.046593-.896395.032854c-.14667.004347-.295003.008214-.445002.011602l-.920014.014575c-.313352.002944-.633394.003592-.960151.003592l-1.000437-.008871c-.170105-.002349-.341895-.005174-.515373-.008476l-1.061146-.02552-1.101804-.036925-1.142612-.048307-1.183569-.059666-1.224673-.071002-1.265929-.082315c-.214434-.014661-.430593-.029792-.64848-.045393l-1.328089-.099243-1.369716-.110499-1.411491-.121733-1.453415-.132943c-7.709258-.72891-13.647006-6.992596-13.778055-14.709273l-.017806-1.35512-.006953-1.302436.003975-1.250072.014981-1.198025c.003418-.195351.007298-.388547.011642-.579594l.031634-1.120552c.006204-.182479.012874-.362822.020012-.541037l.048461-1.043795.059774-.993022c.021819-.322581.045537-.636752.071165-.942568.021067-.251363.044479-.509595.070237-.774733l.08431-.81617.09838-.857831.112448-.899717.126514-.941828.140577-.984163.154638-1.026723.168696-1.069507.182752-1.112517.196806-1.15575.210858-1.199209.224906-1.242892c1.241834-6.764813 6.884804-11.904557 13.756406-12.651117l1.427116-.152266 1.382081-.141517 1.98896-.192097 1.888348-.167851 1.203215-.098415 1.158817-.087614 1.655258-.111146 1.556077-.086787c.167404-.008288.332978-.016125.496727-.023509l.9606-.038883.916902-.028026.846605-.017217.887981-.009965zm65.219289-1.671331 1.440477.003726 1.012488.011419 1.054367.018552 1.660345.041174 1.159605.036328 1.818778.067778 1.26561.054023 1.978363.094261 1.372386.071639.339085.021789c7.101054.532654 12.940424 5.779272 13.950499 12.814769l.172581 1.220737.237781 1.747765.144457 1.109887.195582 1.582355.170249 1.483939.099422.934926.088155.891646.076887.848553.065616.805643.05434.762918c.009626.146567.018894.295248.027806.446046l.049205.930257.040701.981369.032245 1.032751.023839 1.084408.015479 1.136335.007168 1.188535-.001094 1.241006-.009309 1.29375-.00772.666739c-.098986 7.55585-5.837676 13.886053-13.364399 15.026248-.244642.03707-.487536.07358-.728685.10953l-1.425979.208966-1.384254.195498-1.342688.182015-1.301279.168518-1.260025.155007c-.206576.024708-.411439.048852-.614593.072433l-1.198441.134715c-.196331.021324-.390959.042084-.583888.062279l-1.13721.114392-1.096586.100825-1.056119.087245-1.015809.07365-.975655.060043-.93566.04642-.89582.032785-.899425.020362c-.30648.004888-.619639.007877-.939503.008972l-.979731-.002396c-.166649-.001346-.334981-.003164-.504997-.005454l-1.040349-.019406-1.080945-.030718-1.121688-.042006-1.16258-.053274-1.20362-.064517-1.244806-.07574-1.286141-.086938-1.327623-.098116-1.369253-.109269-1.41103-.120401-1.452955-.131511c-7.701038-.720584-13.65348-6.948775-13.785294-14.649109l-.01782-1.345633c-.004134-.439818-.006957-.870928-.006957-1.293382l.003986-1.24145c.003161-.405198.008158-.801793.015006-1.189841l.026104-1.13855c.01584-.556506.035871-1.093899.060137-1.612359l.054193-1.011728c.029933-.493296.06413-.967779.102636-1.42363l.070333-.769715c.012896-.131702.026378-.265115.040446-.400245l.09145-.831406.105523-.872818.119596-.914456.205773-1.450249.154766-1.019541.168829-1.061971.279607-1.673011.203977-1.169039.218033-1.212263.114286-.622411c1.247691-6.743264 6.897832-11.850003 13.759358-12.590948l1.426758-.15131 2.055734-.206951 1.954828-.182905 1.24737-.108561 1.202839-.097849 1.158434-.087126 1.114154-.076394 1.070001-.065652 1.025974-.054899.982073-.044137.938298-.033364.870707-.022159 1.315852-.017779c.151387-.001078.304504-.002339.459353-.002339zm66.63912-1.671076.97036.004044 1.012126.011122 1.054014.018188 1.659829.040501 1.754765.056326 1.850113.072109 1.945873.087848 2.042045.103545.338591.021526c7.090977.52665 12.939102 5.738237 13.954508 12.754028.029718.205627.058967.409408.087748.611348l.246366 1.767824.221046 1.668981.195715 1.570767.170374 1.473181.0995.928217.128119 1.311935.071321.821302.060044.778861.053636.816633.04927.923946.040754.974614c.006085.166673.011818.335469.017199.506392l.028071 1.051128.019678 1.10248c.002583.188042.004819.378234.006707.570583l.007737 1.180022v.609509l-.005282 1.258181-.013408 1.31063c-.099561 7.53892-5.851847 13.834665-13.371462 14.966439-.24457.036821-.487392.073086-.728468.108794l-1.425544.20757-1.383815.194201-1.342244.180819-1.300829.167424-1.259568.154014-1.218465.140591-1.177516.127154-1.136725.113704-1.096088.10024-1.055608.086763-1.015284.073271-.975115.059766-.935103.046247-.895246.032716-.898847.020397c-.306291.004918-.619264.007954-.938944.009113l-.979186-.00215c-.16656-.001295-.334802-.00306-.50473-.005291l-1.039825-.019003-1.080433-.03021-1.121187-.041395-1.162089-.052558-1.203136-.063699-1.24433-.074818-1.28567-.085914-1.327157-.096989-1.36879-.10804-1.410569-.119071-1.452494-.130079c-7.692798-.712272-13.659941-6.904723-13.792535-14.588922l-.018547-1.413137c-.004154-.461346-.006348-.913012-.006348-1.355063l.005944-1.297371c.022224-2.325865.106901-4.362804.256644-6.121448.010565-.124071.021717-.249829.033456-.377278l.077474-.785029c.014085-.134234.028758-.270168.044017-.407808l.098596-.846344.112675-.887506.126751-.928898.140824-.970517.23762-1.534312.175998-1.075566.290368-1.692956.211157-1.182042.225215-1.225033c1.253648-6.721743 6.910851-11.795278 13.762267-12.530619.241494-.025941.481105-.051442.718838-.076501l1.403866-.145057 1.35889-.134458 1.954282-.181792 1.85379-.157888 1.18024-.091962 1.13589-.081314 1.091665-.070655 1.047565-.059987 1.003589-.049309.95974-.038621.916014-.027923.845794-.017265.887194-.01015zm-279.281609 22.251969-4.131342.011416-4.246186.029965-3.29946.041013-2.911217.054809-2.453639.065216-2.77882.092639-3.065268.119152-4.531787.200094-3.731797.180974-6.131669.321102-5.211172.290909-4.77398.278002-9.487288.578325c-.316698.019908-.610687.28135-.661296.565402l-.196701 1.119349-.183946 1.076353-.25201 1.53345-.152072.967939-.20421 1.369842-.120213.858208-.156435 1.204258-.127781 1.103958-.069273.679899-.056545.634794-.054387.738318-.046387.790714-.03832.842825-.030186.894652-.021985.946194-.013716.99745-.005465 1.048421v.543235l.007791 1.124344.006809.581036c.001776.131833.066006.19663.244592.201763l4.334962.119149 6.545247.163464 6.063218.130056 3.544134.064339 5.277053.07586 3.639215.035044 2.823631.01491 3.137009.000757 2.862274-.017918 2.174953-.029185 1.213067-.023726 1.510056-.03888 1.46738-.049285 2.428103-.102085 2.23146-.110887 2.927301-.16405 2.647299-.162535 2.836209-.186018 4.930706-.346484 4.710729-.352512 5.836431-.459271 5.50282-.451227 7.617759-.647869c.38306-.033.6795-.346557.681907-.578242l.009143-1.215674v-1.717777c-.001052-.183787-.002287-.365209-.003827-.54426l-.01287-1.04582-.02011-.988655-.027297-.931219-.034437-.873511-.041526-.815529-.044762-.704665-.050408-.67164-.094855-1.092589-.117954-1.194223-.141063-1.295271-.106885-.919362-.117162-.963839-.127443-1.008141-.210445-1.5949-.153156-1.118138c-.008328-.059964-.079654-.121546-.283552-.1237l-5.228349-.050403-8.844756-.065951-7.886329-.031747zm80.932448-2.244778-.799593.002131-.758417.00832-.717141.014496-.771448.023663-.814946.033151-.858323.042649-1.368551.0818-.966234.066431-1.529846.117518-1.626076.138989-1.137309.104604-1.179774.11417-1.849015.189212-1.285403.138126c-.327221.035766-.588012.275121-.62649.486367l-.291201 1.630807-.263436 1.538342-.160201.97386-.147866.932265-.198675 1.319974-.117036.827408-.104708.785115-.092382.742623-.080058.699932c-.012316.113086-.024118.224386-.035408.333894l-.061575.63552-.054159.656449-.050062.748183-.042113.799197-.034102.849933-.026025.900385-.017884.950557-.009678 1.000447.001009 1.5936.011118 1.123942.008716.580329c.000719.042651.028547.072245.194993.088147.218613.020754.435589.041098.650924.061031l1.89362.168329 1.212944.099943 1.173203.090148 1.133322.080373 1.624896.102284 1.033001.056035.992625.046339.952109.036664.911451.027011.870653.01738.829713.007771c.134866.000461.26802.000461.39946.000461l.768039-.006775.726746-.016156c.117371-.003479.236462-.007453.357272-.011924l.745458-.032779.786567-.044699.827542-.056633c.141331-.010434.284363-.021366.429095-.032796l.888758-.074558.929404-.086526.969917-.098508 1.010297-.110502 1.050547-.12251 1.650998-.206311 1.150592-.152591 1.800444-.251494 1.24981-.182756 1.289265-.194845c.373684-.057337.624524-.33834.626759-.511705l.012278-1.220201.004772-1.727222-.005847-1.082385-.013015-1.026807-.020137-.970969-.027211-.914873-.03424-.858518-.041221-.801904-.044169-.690153-.077734-.996987-.064214-.718986-.074128-.762247-.084044-.805337-.14466-1.288421-.166979-1.384405-.257364-1.994176-.297059-2.162405c-.002766-.019573-.055635-.066974-.256304-.07797-.211002-.011644-.420337-.023024-.628005-.034141l-1.823906-.092946-1.165726-.054082-1.673023-.069328-1.064827-.038372-1.52121-.045818-1.429678-.031766-1.33781-.017751zm66.416512-1.665057-1.215344.001113-.758792.00841-.717527.014533-.771878.023643-.815363.033067-.858729.042502-.901973.051943-1.433779.095641-1.530399.116937-1.626611.138264-1.722417.159623-1.817814.18101-1.912803.20243c-.337248.03664-.590783.267565-.62351.445843l-.197077 1.088113-.272485 1.55583-.166238.986033-.153907.944849-.141577.903464-.189251 1.277159-.110761.799121-.098438.757032-.086118.714741-.073799.67225-.061483.629558-.055554.67002c-.028336.378415-.053385.77811-.075103 1.198896l-.038985.869641-.030027.925553-.020992.981132-.011881 1.036379-.002693 1.091292.006573 1.145872.015914 1.200119.028398.007576.084847.013217 1.998415.181926 1.233196.103778 1.193531.094055 1.153725.084352 1.11378.074673 1.073693.065013 1.033467.055376.993102.045761.952595.036167.911949.026595.871163.017044c.141787.002046.281869.003695.420242.004948l.809721.002758.768584-.006737c.249323-.003827.491767-.009232.727308-.016213l.357549-.011922c.120902-.004467.243521-.009426.367855-.014879l.766561-.038634.807588-.05048c.13801-.009401.277723-.019297.419138-.029687l.868883-.068275c.148209-.012368.298114-.025232.449712-.038591l.929882-.0861.970386-.097999 1.531234-.169341 1.07107-.127807 1.681647-.214116 1.771304-.241039 1.860521-.26801 1.289692-.193678c.38073-.058047.618028-.321845.619713-.451455l.012269-1.209672.004991-1.155161-.002239-1.100388-.009422-1.045355-.016558-.990061-.023646-.934506-.030686-.878692-.03768-.822616c-.01372-.26483-.028598-.520271-.044626-.766278l-.021893-.321261-.051877-.677916-.062667-.724946-.073457-.771778-.130424-1.245049-.154712-1.349315-.179007-1.452915-.203306-1.555853-.149039-1.094093-.16197-1.135192-.061069-.014067-.107043-.016863-.082508-.006444c-.211053-.011514-.42044-.022766-.628159-.033757l-1.824374-.091877-2.291793-.100641-1.612888-.059136-1.5217-.045167-1.430179-.031239-.902444-.013106zm66.171909-1.670618-1.215925.00135-.759175.008502-.717915.014569-.772309.023623-.815782.032983-.859135.042353-1.369728.081118-.966994.065817-1.009927.075218-1.05274.084628-1.659124.144604-1.75478.165827-1.85003.187078-1.286072.136541c-.347336.037507-.593699.260176-.620564.405371l-.196931 1.078752-.272274 1.542378-.166104.977457-.226043 1.389485-.135289.874893-.122967.833514-.110648.791931-.098329.750145-.086014.708157-.0737.665966-.061388.623571-.055448.663475c-.018852.2498-.036247.508991-.052172.777517l-.043349.833526-.03445.889199-.02547.944536-.016414.999539-.00728 1.054205.001934 1.108536c.001094.189265.002576.380779.004446.574537l.016056 1.172236c.001589-.019445.011578-.025511.064509-.023048l.789558.071316 1.957621.169964 1.862266.14673 1.18828.084951 1.145515.074683 1.102596.064439 1.059524.054219 1.016298.044023.972917.033849.929383.023699.885695.013573.841852.003471c.136647-.000262.27146-.000944.404437-.002045l.775801-.011638.371325-.009587.725954-.026777.767095-.03853.808108-.050296.848988-.062074.889741-.073867.930363-.085672.970856-.09749 1.011218-.109321 1.051451-.121166 1.091554-.133023 1.131527-.144894 1.771957-.239627 1.230892-.174628 1.920396-.284289c.387813-.058749.611524-.305518.612645-.391069.002651-.204344.004998-.406446.007041-.606299l.008619-1.172097-.000643-1.656397-.009408-1.03605-.016533-.981171-.02361-.92603c-.004523-.149728-.009338-.297149-.014445-.442255l-.034137-.842825-.041095-.787028-.045004-.690756-.081764-1.024973-.106034-1.129791-.13031-1.23394-.100361-.880156-.170781-1.406031-.195069-1.508394-.143543-1.062132-.235564-1.677508c.003324.023152-.001148.030762-.024618.030974l-.221746-.019298-2.454209-.124232-1.73502-.076905-1.644132-.063004-1.045443-.034299-1.49197-.039922-.943717-.018948-.902866-.012827zm65.756075-1.671601-.800689.002569-.759544.008594-.718301.014607-.77274.023601-.8162.032899-.859542.042206-1.370317.080776-1.467165.101764-1.563612.122782-1.09579.093545-1.723462.157875-1.818837.178971-1.91381.200097c-.357458.038364-.596758.252975-.617663.365059-.035233.189122-.06991.376443-.104029.561957l-.292021 1.620726-.26193 1.522405-.157906.959929-.144538.915652-.191747 1.289955-.161682 1.189033-.091089.736236-.077733.690804-.064379.645141-.027183.305374c-.030395.356974-.057534.73499-.081373 1.133857l-.043263.825481c-.006473.142196-.012575.286694-.018306.433487l-.029911.908256-.020911.963015-.011831 1.017439-.002673 1.071523.006567 1.12527.013205 1.049637.042332.015178c.017493.005048.037277.009697.05951.013716l.074204.009934c.226375.020829.450997.041229.673863.061201l1.958295.168204 1.252592.099335 1.210064.08912 1.167383.07893 1.124548.068762 1.081561.058618 1.038422.048497.995129.038399.951684.028325.908085.018273c.147706.002209.293589.004001.437646.005375l.842402.00324.798421-.006753c.258794-.003914.510232-.00949.754289-.016724l.358103-.011918.747084-.032588c.127939-.006404.257589-.013295.388947-.020673l.808626-.050111.849494-.061808.890233-.07352.930844-.085243.971326-.09698 1.011679-.10873 1.051904-.120492 1.092-.132267 1.131968-.144055 1.772609-.238213 1.861812-.264809 1.290552-.191336c.394914-.059439.605028-.289404.605573-.330701l.012251-1.188538.004774-1.682095-.005815-1.053869-.012956-.999537-.020047-.944942-.027091-.890082-.034084-.834956-.041029-.779566-.044935-.684163-.081664-1.015413-.105926-1.119455-.084098-.803771-.146374-1.291357-.111069-.917748-.186836-1.461384-.211121-1.562501-.219164-1.545809-.037736-.018063c-.035947-.014235-.080543-.026295-.134155-.034229l-.087225-.008561-1.249761-.064582-1.795209-.085126-1.704691-.071333-1.613848-.057579-1.522679-.043862-1.431185-.030182-1.339366-.016539zm-133.213194-67.784176.929473.003522.971094.011028 1.534949.030591 1.629293.047411 1.138814.040933 1.181056.048377 1.851057.0865 1.946797.103183 2.042955.119825.338693.024266c7.09237.584604 12.895691 5.880552 13.897333 12.920106l.254483 1.82948.229183 1.728624.138728 1.09669.186993 1.561904.110594.986115.099334.942206.088073.89848.110988 1.266133.059907.789964.025727.378814.0534.911195.044885.962569.036419 1.01421.027999 1.066123.019627 1.118304.011302 1.170755.003024 1.223474-.005206 1.276463-.013389 1.329722c-.098658 7.590504-5.849623 13.945035-13.406111 15.046329l-1.447456.207433-2.092859.286241-1.343253.174199-1.301848.160879-1.2606.147542-1.219511.134192c-.199837.021251-.397968.041946-.594396.062084l-1.158173.114136-1.117479.100746c-.182864.015675-.364039.03079-.543528.045348l-1.056733.080633-1.016432.067206-.976291.053763-.936307.040305-.896481.026832-.899991.014277c-.153333.001399-.308334.002726-.465007.002726l-.960131-.003361c-.163374-.001539-.328427-.003566-.495161-.006082l-1.020606-.020951-1.061109-.03265c-.180235-.006416-.362164-.013318-.54579-.020706l-1.122145-.050159-1.163023-.061803-1.204049-.073426-1.883325-.131884c-.214425-.016102-.430574-.032685-.648451-.04975l-1.328026-.108164-1.36965-.119699-1.411425-.131214-1.453348-.142705c-7.68744-.778517-13.597636-7.052863-13.728362-14.751371l-.017805-1.355262-.006954-1.302511.003977-1.250079.014982-1.197965c.003419-.195336.007299-.388514.011643-.57954l.031638-1.120396c.006204-.182447.012875-.362757.020014-.540935l.048466-1.043543.059781-.992709c.021822-.322466.045542-.636513.071174-.942194l.070251-.774415.084325-.815759.098397-.857327.112467-.89912.126534-.941136.140599-.983379.154662-1.025844.168721-1.068535.182778-1.111451.30052-1.748133.217911-1.219722.114224-.626235c1.245937-6.778787 6.914852-11.90406 13.820073-12.607847l1.344476-.13453c.235407-.023084.468922-.04573.700549-.067938l2.033724-.188016 1.299386-.112162 1.254402-.101601 1.209555-.091028c.197863-.01429.393863-.028138.588002-.041545l1.142541-.075144 1.098036-.064539 1.053669-.053921 1.009438-.043291.965344-.032647.921388-.02199.846606-.011528zm66.629107-1.224873 1.440464.013408 1.53441.030116 1.628772.046785 1.138477.040431 1.786966.074476 1.882438.091036 1.308204.069871 2.042482.118547.338205.023999c7.082425.578549 12.894529 5.839874 13.901361 12.859549l.254631 1.815967.229323 1.715928.266378 2.133365.170232 1.484928.099411.93549.088146.892137.076878.848968.065608.805984.054334.763184c.009624.14662.018892.295352.027803.4462l.049201.930528.040698.981592.032243 1.032927.023837 1.084533.015479 1.136411.007167 1.18856-.001094 1.24098-.00931 1.293672-.00772.66668c-.099225 7.573487-5.863918 13.893626-13.413192 14.986496l-2.154845.30404-1.384375.186209-1.342808.173006-1.301396.159786-1.260142.146551-1.219044.133302-1.178103.120038c-.192948.0189-.384196.037247-.573748.05504l-1.116986.100113-1.076436.08681c-.176036.013359-.350389.026164-.523062.038413l-1.015906.066829c-.165967.010027-.330261.019499-.492885.028414l-.95573.046815c-.155957.006689-.31025.012821-.462884.018397l-.895905.026766c-.293143.006718-.59294.011489-.899415.014317l-.939488.002658c-.319857-.001055-.646418-.00405-.979707-.00898l-1.020076-.020597-1.060593-.032191-1.101257-.043765c-.18694-.008257-.37558-.016996-.565924-.026215l-1.162532-.061084-1.203567-.072604-1.244751-.084102-1.286081-.095579-1.327562-.107033-1.369189-.118467-1.410964-.12988-1.452889-.141269c-7.679355-.770171-13.604101-7.009206-13.735587-14.691255l-.017821-1.345776c-.004134-.439855-.006956-.870989-.006956-1.293457l.003986-1.241457c.003162-.405189.00816-.801765.015008-1.189782l.026107-1.138426c.015841-.556428.035875-1.093719.060144-1.612053l.054198-1.011447c.029937-.49314.064138-.967444.102649-1.423093l.070347-.769399c.012898-.131642.026383-.264991.040454-.400052l.091466-.830951c.016418-.141928.033422-.285579.051012-.430955l.112579-.893012.126652-.93467.140722-.976554.154789-1.018664.168855-1.061001.182916-1.103564.196977-1.146354.211035-1.189371.225089-1.232613c1.251848-6.757315 6.927993-11.849406 13.808646-12.546169.241565-.024485.481248-.048538.719052-.072159l2.089568-.200926 1.336881-.120976 1.92139-.161977 1.225155-.094977 1.75439-.122927 1.114216-.068909 1.07006-.058463 1.026031-.048006.982127-.037538.93835-.027059.870732-.016307.866877-.008187zm66.21537-1.225557c.338984.001293.686374.004059 1.042191.008295l1.092753.017118 1.143444.025928 1.194263.034729 1.245213.043518 1.296291.052298 1.347497.061066 2.117541.108018 2.233482.127686.337715.023733c7.072455.572499 12.893246 5.798989 13.905363 12.798858l.172668 1.212697.237905 1.736244.144536 1.102567.195696 1.571923.170357 1.474168.099489.928781.128104 1.312641.071313.821678.060036.779164.05363.816909.049266.924217.040751.974837c.006085.166706.011817.335533.017198.506486l.02807 1.051278.019677 1.10258c.002582.188054.004817.378257.006706.570614l.007736 1.180048v.609501l-.005283 1.258129-.013407 1.310526c-.099804 7.556663-5.878235 13.842185-13.420277 14.926642-.24459.03518-.487431.069816-.728528.103906l-1.425662.198005-1.383935.184916-1.342361.171812-1.300945.158694-1.259683.145561-1.218577.132414-1.177627.119251-1.136832.106073-1.096193.092882-1.055708.079675-1.015381.066453c-.165878.009973-.330082.019395-.492616.028264l-.95518.046594c-.155864.006661-.310064.01277-.462603.018326l-.895329.0267-.898839.014357c-.45943.004288-.933893.004243-1.423472-.000123l-.999336-.014489-1.039793-.025989-1.080395-.03747-1.121145-.048928-1.162041-.060366c-.19709-.011013-.39589-.022501-.596403-.034465l-1.223662-.077483-1.264925-.088866-1.306336-.10023c-.221182-.017651-.444095-.035775-.668743-.05437l-1.368727-.117236-1.410505-.128546-1.45243-.139835c-7.671248-.761837-13.610552-6.965319-13.742813-14.631115-.003875-.227059-.007299-.451942-.010273-.674656l-.012407-1.310316-.001492-1.258589.009505-1.207186.020581-1.156109.031736-1.105354c.012447-.360029.026766-.711652.042971-1.054925l.054286-1.004819c.029984-.489937.064242-.961206.102817-1.413989.010567-.124026.021722-.249736.033463-.377133l.077489-.784667c.014088-.134166.028764-.270028.044026-.407592l.098614-.845843.112695-.886913.126772-.928209.140847-.969736.15492-1.01149.168991-1.053473.183058-1.095684.197124-1.138124.211186-1.180791.225247-1.223688c1.257859-6.735872 6.941123-11.79458 13.811557-12.485783.241505-.02432.481129-.04821.718873-.071673l2.089029-.199581 1.336518-.120179 1.29173-.109864 1.247065-.099541 1.202527-.089205 1.158112-.07886 1.113823-.068503 1.069658-.058137 1.025618-.047758.981702-.03737.937912-.026971.773362-.014914 1.026677-.009624zm-189.941822-108.141185c5.452004-.030052 9.904749 4.307226 10.051659 9.723673l.003743.276327v132.804953c0 5.345934-4.199561 9.728223-9.506378 9.987883l-.280312.009842-149.082008 3.180788c-5.511648.117596-10.059424-4.242303-10.209486-9.718336l-.003823-.279388v-135.159777c0-5.407983 4.294109-9.817609 9.665806-9.994489l.278791-.005358zm57.312975 125.591726-.196136-.00018-1.122722.007367-.750185.014128-.82871.024381-.875922.034301-.922929.044226-.969727.054158-1.016321.064096-1.062708.074043-1.108888.083995-1.154862.093955-1.20063.103921-1.246192.113893-1.291547.123874-1.315953.131678c-.318011.032412-.545599.238175-.574223.393908l-.197049 1.086632-.272445 1.553765-.166212.98476-.153882.94366-.207708 1.337985-.179975 1.244378-.15225 1.150092-.0861.714012-.073784.671604-.061469.628995-.054048.649635c-.017967.238373-.034623.485248-.049957.740575l-.042028.791297-.034034.841733-.025973.891886-.017848.941754-.009657.991338.001017 1.579356.011109 1.114055.008708.575267c.000295.017402.041029.060646.237499.080544.218696.022019.435754.04362.651171.064803l1.272786.122083 1.233259.112073 1.193592.102082 1.153784.092112 1.113836.082162 1.073747.072235 1.033517.062326.993148.052439.952637.042572.911986.032727.871194.022901.830262.013097.789189.003312c.128101-.000262.254485-.000931.379149-.002006l.727317-.011324.725321-.021922c.12432-.004617.250354-.009714.378101-.015294l.787002-.039261.827958-.050837.868785-.062428.909481-.074033 1.44024-.13284 1.010649-.103109 1.050887-.114763 1.090995-.126433 1.130972-.138116 1.170819-.149814 1.210535-.161526 1.250119-.173252 1.289575-.184993c.358052-.052183.56949-.285812.570938-.397218l.012269-1.209604.004991-1.155144-.002239-1.100423-.009423-1.045443-.016559-.990204-.023648-.934703-.030689-.878942-.037683-.822923c-.013721-.264942-.028601-.520504-.04463-.766642l-.021896-.321456-.081873-1.035221-.106153-1.140981-.08426-.819082-.095056-.865595-.162827-1.385171-.187125-1.488715-.211427-1.591595-.235735-1.693809-.020041-.016676c-.034471-.021621-.117477-.05725-.282722-.067312-.211057-.012933-.420449-.025592-.628172-.03798l-1.82441-.104141-1.733993-.089475-1.1056-.051521-2.089806-.083578-.984009-.03208-1.399622-.036012-.882008-.015953-1.246158-.011873c-.133328-.000516-.264942-.000748-.394842-.000748zm65.590447-1.224896-.738553.006573-.734483.013747-.794012.022963-.837421.032036-1.337265.065088-.945424.054761-1.498708.099222-1.595034.119744-1.116672.091249-1.754681.154023-1.84993.174635-1.286004.127889c-.328208.033236-.548567.230921-.571274.353493l-.204839 1.121283-.282171 1.59988-.252073 1.50074-.221983 1.400825-.191902 1.300137-.111227.810438-.141784 1.130606-.077823.696702-.064465.650807-.05659.675518c-.01885.249638-.036242.50868-.052164.777069l-.043344.833152-.034444.888898-.025468.944308-.016412.999382-.007278 1.054118.001934 1.108519c.001095.189267.002576.380788.004447.574554l.015899 1.189487c-.000199-.011614.004497-.013186.026033-.009575l.127069.021522 1.370124.134946 1.253474.115962 1.21388.106044 1.174148.096148 1.134276.08627 1.094263.076414 1.566069.096185.993624.051863.953124.042077.912484.032312.871705.022568.830787.012844.789728.00314c.384576-.000853.753703-.005336 1.107302-.01344l.357786-.009514c.12098-.003649.243677-.007776.368087-.012381l.767009-.03337.808017-.044859.848895-.056362c.144881-.010353.291461-.021186.439735-.032499l.909969-.073643.950522-.085181.990948-.096733c.168519-.017085.338717-.034653.510592-.052702l1.051341-.114087 1.091443-.125675 1.131413-.137275 1.171256-.14889 1.831304-.245144 1.920221-.271358c.36526-.052877.562969-.269635.56385-.336876.002652-.204328.004999-.406417.007042-.606259l.008618-1.172054-.000644-1.656431-.009408-1.036138-.016534-.981314-.023613-.926226c-.004522-.149766-.009338-.297226-.014445-.442374l-.034141-.843105-.041098-.787364-.045009-.691141-.081776-1.025673-.106048-1.130656-.130325-1.23497-.100373-.880935-.170798-1.407337-.127361-.995225-.211286-1.577842-.235587-1.679252c.001275.008888-.002939.010682-.015162.008376l-.063216-.016227c-.046142-.01127-.115976-.025031-.220848-.031351l-2.453204-.140667-1.734464-.088532-2.171405-.095489-1.024963-.038102-1.927959-.056973-1.338865-.025944-.841392-.009322zm67.011312-1.2257h-.828615c-.128306.000671-.254756.001509-.379344.002613l-.725143.009825-.772693.018407-.816151.027411-.859489.036426-.902709.04545-.94581.054483-.988792.063526-1.56352.112266-1.659561.132665-1.755201.153098-1.223069.113433-1.913711.187223c-.338438.034049-.551677.223854-.568369.313237l-.204683 1.111532-.281945 1.585893-.25186 1.487515-.151196.936637-.13783.892335-.181691 1.254933-.104427.780571-.09107.735461-.077716.69012-.064364.644549-.027176.305112c-.03039.356711-.057525.734493-.08136 1.133155l-.043257.825106c-.006471.142139-.012573.286584-.018303.433327l-.029907.907991-.020909.962823-.011829 1.017316-.002671 1.071471.006566 1.125285.013205 1.075988.027309.015807c.030823.014375.070071.027266.118601.036824l.079865.011607 1.925253.183357 1.23413.109928 1.776792.146479 1.687092.124442 1.074665.070752 1.536555.087866.973873.04643.933314.036737.892616.027064.851781.01741.810806.007776c.131712.000458.261711.000458.389995.000458l.749084-.006812.359056-.006912.726424-.021868.767545-.033263.808537-.044671.849401-.056093c.144965-.010301.291627-.021079.439984-.032334l.910456-.073252.950999-.084709c.161871-.015073.325427-.030625.490663-.046655l1.011574-.101919 1.051795-.11341 1.09189-.124915 1.712731-.208975 1.802221-.234937 1.250983-.171072 1.290436-.182646c.372487-.053559.556456-.253673.556759-.276552l.012251-1.188471.004773-1.68209-.005816-1.053931-.012957-.999654-.020049-.945111-.027092-.890306-.034088-.835237-.041032-.779902-.044941-.684549-.081676-1.016115-.10594-1.120321-.084108-.804441-.146391-1.292499-.111081-.918601-.186856-1.462801-.211143-1.564082-.235434-1.664687c.004914.033984-.006104.039098-.049452.033862l-.091322-.013302-.152118-.014939-2.019332-.115811-1.91155-.098674-1.802976-.08157-1.141271-.044893-1.092427-.037317-1.043348-.029748-.994032-.02219-.944481-.014642zm-199.8596-103.085817-129.082.715v114.999l129.082-2.754zm66.204619 34.406623.887968.001972.929461.009769.971077.017555 1.53492.040906 1.075664.03697 1.117717.044717 1.159893.052451 1.202195.060175 1.882879.104719 1.978758.122032 1.372644.090955.337798.026464c7.073473.630289 12.849806 5.940576 13.848272 12.964516l.254462 1.831034.229162 1.730008.138715 1.097519.186976 1.563007.110582.986756.099324.942773.088064.898971.110975 1.26673.0599.790269.025724.378938.053396.911491.044882.962816.036416 1.014411.027998 1.066273.019625 1.118406.011301 1.170805.003024 1.223474-.005206 1.276412-.013389 1.329617c-.098896 7.608138-5.875954 13.952671-13.455025 15.006314-.244754.034036-.48776.067531-.729021.100485l-1.426652.191221-1.38493.178211-1.343367.165184-1.301959.152141-1.260711.139082-1.219619.126006-1.178685.112913-1.137908.099804-1.097289.08668-1.056828.073538-1.016523.060379c-.166071.008966-.330469.017383-.493197.025251l-.956363.040612c-.156063.00567-.310464.010789-.463205.015358l-.896556.020807c-.146667.002376-.294996.004249-.44499.00562l-.919978.00221-.9601-.009814c-.163369-.002636-.328416-.005773-.495143-.009409l-1.020567-.027809c-.173465-.005633-.348617-.011765-.52546-.018395l-1.081369-.045757c-.183618-.008622-.368932-.017742-.555947-.027358l-1.142509-.063659-1.183458-.075568-1.224555-.087456c-.207525-.015565-.416769-.031625-.627736-.048179l-1.286482-.105248-1.327955-.117083-1.369578-.128899-1.41135-.140693-1.453273-.152466c-7.665485-.827816-13.548364-7.112703-13.678769-14.793145l-.017806-1.355405-.006953-1.302585.003977-1.250086.014985-1.197906c.003419-.19532.0073-.38848.011644-.579486l.031641-1.120239c.006204-.182416.012876-.362691.020016-.540832l.048471-1.043293.059788-.992396c.021824-.322351.045547-.636273.071182-.941819l.070265-.774098c.012884-.132448.026354-.266614.040411-.402504l.091378-.836058.105451-.877644.11952-.919456.133589-.961492.147653-1.003752.247846-1.585357.182805-1.110385.196861-1.153431.210914-1.196702.224966-1.240196c1.250068-6.792867 6.945138-11.903509 13.855074-12.561345l1.427253-.133095 1.382217-.12295 1.98916-.165376 1.270182-.097534 1.821703-.127197 1.15894-.072044 1.114664-.061826 1.070517-.051598 1.026494-.041356.982599-.031104c.160116-.004329.318408-.00823.474879-.011703l.916995-.015702zm66.170152-.780775.887575.001874.929078.009603.970707.017321 1.012457.025028 1.054332.032724 1.09633.040408 1.138452.048081 1.180697.055744 1.850525.097956 1.946273.115134 2.042436.132271.337316.026196c7.063633.624189 12.84868 5.900043 13.852292 12.904007l.333855 2.40106.150055 1.133771.203985 1.617726.121921 1.023467.110662.979669.099401.936056.088136.892627.076869.849384.0656.806324.054327.76345c.009624.146674.018891.295457.027801.446354l.049197.930799.040695.981816.032242 1.033102.023835 1.084659.015477 1.136487.007167 1.188585-.001095 1.240954-.009309 1.293594-.00772.666622c-.099466 7.591226-5.890395 13.901206-13.462126 14.946435l-1.447135.196277-1.405331.183376-1.363684.170458-1.322194.157525-1.280859.144574c-.210041.023016-.418366.045491-.624978.067426l-1.219151.125119-1.178207.11213-1.13742.099122-1.096789.0861-1.056314.073062-1.015996.060007-.975835.046936-.935829.033849c-.305293.0091-.603944.016016-.89598.020746l-.444699.005628c-.149899.001379-.301463.002644-.454697.002644l-.939462-.003656c-.159924-.001602-.321523-.003701-.484801-.006295l-.999838-.02151-1.040274-.033386-1.080859-.045243-1.121593-.057079-1.162476-.068894c-.197161-.012466-.396032-.025423-.596615-.038871l-1.224078-.086579-1.265332-.098342-1.306734-.110087-2.038058-.187104-1.410892-.139355-1.452814-.151028c-7.657533-.81945-13.55482-7.069207-13.685979-14.733076l-.017821-1.345919c-.004134-.439891-.006956-.87105-.006956-1.293531l.003987-1.241466c.003162-.40518.00816-.801736.015009-1.189722l.02611-1.138302c.015843-.556351.035878-1.093539.06015-1.611748l.054205-1.011166.065581-.960876.03708-.46168c.010554-.124786.021694-.251266.033421-.379445l.077402-.789497.091483-.830495.105561-.87172.119636-.91317.133709-.954847.226945-1.510912.168879-1.06003.182944-1.102501.197005-1.145196.211064-1.188118.225119-1.231267c1.256035-6.771473 6.958393-11.848751 13.858033-12.501063l1.426893-.132143 2.055934-.179334 1.314536-.106952 1.269813-.096855 1.225215-.086747 1.754477-.11114 1.11427-.061423 1.070113-.051273 1.026081-.041112c.167351-.006005.332873-.011585.496568-.016742l.960268-.025847.916549-.015657zm66.170151-.780775.887182.001776c.15132.000935.30437.002189.459152.003762l.9495.013263.9912.020909 1.565255.045672 1.095986.039972 1.723007.074215 1.818211.091291 1.265237.070329 1.977804.119669 1.372014.089213.336833.025927c7.05377.618095 12.847434 5.859306 13.856285 12.843365l.172652 1.21375.237884 1.737683.144522 1.103431.195677 1.573079.170339 1.475155.099479.929345.128089 1.313347.071304.822055.060029.779466.053624.817185.049263.924489.040748.975059c.006084.16674.011816.335598.017196.50658l.028068 1.051428.019676 1.102681c.002582.188066.004817.37828.006706.570646l.007735 1.180072v.609495l-.005283 1.258077-.013407 1.310421c-.100049 7.574513-5.904858 13.849711-13.46923 14.886537l-1.446698.194835-1.404891.182035-1.36324.169217-1.321743.156385-1.280403.143536-1.239217.130671c-.203112.020706-.404515.040875-.604212.060507l-1.177729.111345-1.136931.098442-1.096289.085521-1.055801.072586-1.015469.059634c-.165893.008859-.330111.017177-.492658.024955l-.955262.040177c-.155877.005614-.31009.010687-.462642.015218l-.895403.020685-.898821.008558c-.153139 0-.307949 0-.464432-.00052l-.958999-.009412c-.163187-.002552-.328054-.005595-.494603-.009129l-1.019509-.027093-1.060032-.038855-1.100703-.050597c-.186848-.00941-.375397-.019309-.565649-.029695l-1.161986-.068173c-.19708-.012337-.395871-.025161-.596374-.038472l-1.2236-.085702-1.264861-.097363-1.306269-.109005-1.347824-.120626c-.228109-.021071-.457955-.042626-.689542-.064664l-2.131362-.21137-.731428-.07624c-7.649559-.811098-13.56126-7.025484-13.69319-14.672984-.003875-.227088-.0073-.451998-.010273-.674737l-.012408-1.310424-.00149-1.25863.009506-1.207162.020583-1.156017.031739-1.105199c.012448-.359966.026769-.711517.042976-1.054706l.054292-1.004538c.029988-.489781.06425-.960872.10283-1.413454.01057-.123982.021726-.249643.033469-.376987l.077505-.784307.09159-.824941.105674-.865801.119754-.906892.133833-.94821.147908-.989756.161981-1.031532.176051-1.073534.19012-1.115766.204184-1.158225.332644-1.81745c1.262102-6.750108 6.971634-11.793822 13.860947-12.44062l2.122903-.193041 1.359022-.116202 1.31417-.106196 1.88743-.140504 1.202585-.081126 1.158169-.07108 1.113877-.06102 1.06971-.050949 1.025667-.040867c.167281-.005971.332733-.01152.496357-.016649l.959836-.025723.916105-.015611zm-132.292397 16.561456-.717533.004887-.771788.013266-.815269.022104-1.304164.049752-.923441.044249-.966501.053125-1.009438.062011-1.052257.07091-1.658406.123071-1.158776.093201-1.81762.156558-1.912607.176698c-.298912.028457-.500346.20922-.524836.342301l-.290906 1.612547-.263154 1.521161-.235409 1.429099-.207673 1.336357-.123043.839047-.110721.797326-.098401.755404-.086083.713281-.073768.670958-.061455.628433-.054038.649146-.049949.740147-.042022.790936-.034029.841438-.02597.891656-.017846.941588-.009655.991236.001018 1.579318c.001153.181615.002655.365268.004506.550955l.01531 1.138466c.000617.036349.068668.10905.287101.13264l1.292567.135792 1.253111.125505 1.213512.115237 1.173773.104989 1.133893.094761 1.625756.123007 1.033576.069277.993201.059118.952688.048979.912031.038859.871234.028759c.141799.003952.281891.007485.420275.010598l.809775.013646c.263074.002872.519291.004069.768625.003595l.727335-.006436.725248-.017045.766396-.028323.807414-.039616.848301-.050923.889058-.062246c.151566-.011319.304824-.02311.459773-.035374l.949949-.079259.990381-.09062 1.030682-.101996 1.621302-.174357 1.130864-.130503 1.770966-.217188 1.860177-.242954 1.289462-.176311c.335469-.046636.520814-.250188.522024-.343288l.012269-1.209536.004991-1.155127-.002239-1.100459-.009424-1.045531-.01656-.990345-.02365-.9349-.030691-.879194-.037687-.823229c-.013722-.265054-.028603-.520737-.044634-.767006l-.020933-.308013-.049298-.648639-.092531-1.054164-.074078-.75666-.083992-.799566-.14458-1.279416-.108783-.906069-.181772-1.438359-.204093-1.532943-.226418-1.626942c-.004034-.028378-.103589-.118252-.352718-.135097l-2.452642-.158609-1.734037-.101132-1.643285-.085893-1.5522-.070688-.984032-.038694-1.399653-.045421-.882026-.021882-1.246179-.020249zm66.545381-.780754-.738561.001609-.752027.009113-.832124.018843-.879558.028442-.926856.038052-.974018.047673-1.021042.057308-1.619436.104053-1.724474.125796-1.207776.095965-1.898513.162127-1.913113.175525c-.309219.029235-.503366.202099-.521885.301942l-.204809 1.119741-.282128 1.597735-.252032 1.498798-.221946 1.399087-.131253.876948-.117888.832059-.104524.786942-.091164.741595-.077806.69602-.06445.650215-.056579.675005c-.018846.249476-.036236.508368-.052156.77662l-.043337.832778-.03444.888598-.025464.94408-.01641.999225-.007277 1.054031.001935 1.108501c.001094.18927.002576.380796.004446.574571l.015899 1.18957.038824.017744.086562.028814c.039256.009975.089841.01956.15453.026483.218779.023284.435921.046143.651421.068576l1.895119.190415 1.806031.167502 1.154294.09897 1.114351.088835 1.074266.078718 1.034041.068622.993678.058544.953173.048486.912528.038448.871745.028429.83082.018429c.135052.00224.268393.004063.40002.005471l.769171.003467c.249519-.000504.492159-.002667.727897-.006485l.357751-.007109.746382-.022611c.127823-.004702.257357-.009871.3886-.015507l.807935-.039424.848808-.050651.889553-.061893.930168-.07315.970654-.084422 1.531611-.147801 1.071304-.112667 1.111339-.123991 1.151244-.13533 1.19102-.146684 1.860828-.241347 1.289895-.175135c.342802-.047321.514275-.234164.514915-.282991.002652-.204314.004999-.406388.007042-.606219l.008619-1.172012-.000645-1.656465-.009409-1.036227-.016535-.981456-.023615-.926423-.030646-.87113-.037628-.815574-.044564-.759758-.046434-.649041-.057222-.695972-.106061-1.131522-.084196-.812432-.094988-.85867-.16272-1.374262-.187012-1.477178-.211307-1.579421-.235609-1.680996-.05493-.026545c-.052111-.022975-.144621-.053695-.294253-.063717-.211114-.014221-.420563-.028161-.628342-.041819l-2.413153-.15042-1.704294-.095151-1.613439-.080049-1.522253-.06498-1.430737-.049946-1.338892-.034943-1.246716-.019976zm66.171136-.780814-.738946.001668-.734878.008813-.794395.017568-.837791.026284-.881066.035013-.924225.04375-.967264.052499-1.010185.061258-1.052987.070027-1.659475.121505-1.755112.141294-1.22301.105206-1.913619.174352c-.319558.030002-.506529.195169-.518977.261744l-.204652 1.109988-.281902 1.583746-.251818 1.485571-.221743 1.386616-.131125.869051-.117764.824493-.104407.779706-.091051.734686-.077698.689437-.064349.643955-.027168.304851c-.030386.356448-.057517.733996-.081348 1.132451l-.043251.824732c-.00647.142083-.012571.286474-.0183.433168l-.029904.907726-.020905.96263-.011828 1.017194-.00267 1.071418.006567 1.125301.014204 1.098338.009766.008769c.040941.029099.100107.055136.179049.071841l.085592.013362 1.925355.196307 1.234198.11823 1.77689.15843 1.134787.093038 1.09478.082994 1.054633.072971 1.014347.062965.973924.05298.93336.043013.892658.033065.851816.023137.810836.013227c.263434.00276.520014.003871.769718.003337l.728459-.006533.726353-.016984.767468-.028101c.131331-.005611.264369-.011685.399113-.018224l.828902-.044804.869698-.055957 1.380758-.104882 1.47183-.13006 1.031601-.100719 1.622654-.172134 1.131751-.128815 1.772279-.214346 1.231101-.157001 1.920705-.256695c.262616-.035996.416915-.140824.477676-.192826l.030128-.029888.012251-1.188403.004773-1.682085-.005817-1.053994-.012957-.999769-.020051-.945281-.027095-.890531-.03409-.835516-.041037-.780238-.044946-.684936-.081687-1.016815-.105954-1.121189-.084119-.80511-.146408-1.293641-.232979-1.884294-.203068-1.531923-.148873-1.077431-.160128-1.121541-.001433.01114c-.002137.002291-.005845.003079-.011313.002702l-.162302-.038878c-.045192-.008607-.100468-.016478-.16735-.020915l-1.856266-.119343-2.334226-.135728-1.644677-.084294-1.045809-.047882-1.969665-.075854-.923676-.027993-.882783-.021383-1.247303-.019706zm-133.142488-69.572612.867254.003897.90868.011979.950233.02005.991909.02811 1.03371.036159 1.075635.044199 1.117687.052228 1.159861.060245 1.819143.105379 1.914739.123361 2.702417.192391.336897.028651c7.054418.675712 12.803975 6.000169 13.799286 13.008603l.172437 1.233.237576 1.765057.212271 1.664273.186958 1.56411.110572.987398.099313.943339.088055.899462.110963 1.267327.059892.790575.025721.379062.053391.911786.04488.963065.036413 1.01461.027996 1.066425.019624 1.118506.011301 1.170857.003023 1.223474-.005206 1.27636-.013389 1.329513c-.099136 7.625873-5.902519 13.960311-13.504073 14.965988-.244772.032394-.487796.064257-.729075.095592l-2.124485.267696-2.030786.239032-1.302065.143402-1.260813.130618c-.206707.020704-.411701.040874-.614986.06051l-1.199231.111411c-.196463.0175-.391223.034466-.584284.050897l-1.138003.092164c-.186277.01429-.370862.028044-.553757.041263l-1.077128.072878-1.03674.059998c-.169433.008926-.33719.017314-.503274.025164l-.976454.040647-.936459.027723-.896622.014783c-.146663.001389-.294987.002629-.444976.002629l-.919945-.003974c-.156663-.001687-.314998-.003886-.475007-.006597l-.980176-.022404-1.020517-.034666-1.06101-.046909-1.101653-.059131-1.142446-.071334c-.193815-.012905-.389336-.026317-.586567-.040237l-1.203918-.089601c-.204079-.015947-.409874-.0324-.617387-.049359l-1.265728-.107824-1.307123-.119947-1.348668-.132052c-.228248-.023016-.458234-.046535-.689961-.070558l-1.411268-.15017-1.453189-.162225c-7.6434-.876805-13.499199-7.172119-13.629283-14.834598l-.017806-1.355548-.006953-1.302659.003978-1.250093.014986-1.197846c.003419-.195306.007301-.388447.011645-.579432l.031644-1.120083c.006206-.182384.012878-.362625.020018-.54073l.048477-1.043041c.036082-.678339.079709-1.322706.130986-1.933529l.070278-.773781c.012886-.132387.026359-.266489.040419-.40231l.091394-.835601c.016406-.142718.033398-.287165.050976-.433346l.112505-.897925.126575-.939755.140644-.98181.154708-1.024089.168771-1.066592.182831-1.10932.196888-1.152272.210944-1.195448.224995-1.238849c1.25423-6.807052 6.975664-11.902896 13.904552-12.515966.241646-.021404.481409-.042398.719294-.062983l2.090294-.174188 1.337366-.103809 1.292583-.09394 1.247925-.084058 1.203396-.074164 1.158991-.064257 1.114713-.054338 1.070563-.044404 1.026538-.034459.98264-.0245.938868-.014529zm66.170353-.336001.866855.003832.908294.011844.949856.019848.991543.02784 1.033354.035821 1.075287.043794 1.691829.080615 1.786878.098492 1.882343.116335 1.978227.134144 1.372294.099305.336419.02838c7.044687.66957 12.802885 5.959781 13.803298 12.948143.029693.207719.058917.413568.087673.617549l.246153 1.785544.150042 1.134675.13879 1.090338.187084 1.552784.110651.98031.09939.936621.088127.893118.07686.849799.065592.806666.05432.763716c.009623.146727.018889.295561.027799.446507l.049194.931071.040692.982039.032239 1.033277.023834 1.084785.015476 1.136562.007166 1.188611-.001095 1.240928-.009309 1.293516-.00772.666563c-.099709 7.609071-5.917106 13.908791-13.511193 14.906064l-1.447242.186564-1.405438.173944-1.363789.161304-1.322298.148649-1.280961.135976-1.239781.123286-1.198757.110579c-.196383.01737-.391063.034209-.584043.050519l-1.137513.091485c-.186195.014185-.370697.02784-.553508.040962l-1.07662.072353c-.176065.010995-.350448.021457-.52315.031387l-1.016077.053183-.97591.04038c-.159313.005663-.316959.010791-.472942.015385l-.915952.021145-.443051.005757c-.146565.001388-.294792.002639-.444686.002639l-.919379-.003874-.959511-.01606-.999792-.028228c-.169998-.005718-.341679-.011942-.515049-.018671l-1.060495-.046443-1.101149-.058561-1.141953-.07066-1.182906-.08274c-.200572-.014796-.402856-.030094-.606857-.045894l-1.244614-.100823-1.28594-.112854-1.327414-.124866-1.369038-.136857-1.410811-.14883-1.452734-.160784c-7.635579-.868422-13.505641-7.128782-13.636477-14.774576l-.017821-1.346063c-.004133-.439926-.006955-.87111-.006955-1.293605l.003988-1.241473c.003162-.405171.008161-.801708.015011-1.189663l.026112-1.138179c.021126-.741696.049706-1.449285.085845-2.123199l.05989-.985668c.021862-.320173.045626-.631981.071306-.935479.010556-.124741.021698-.251173.033428-.379299l.077417-.789135c.014077-.134925.02874-.271554.04399-.409892l.09854-.850577.112619-.891822.126694-.933291.140767-.974989.154837-1.016911.168906-1.059061.18297-1.101437.197033-1.144038.211093-1.186867.225151-1.229921c1.260252-6.785738 6.98903-11.848036 13.907512-12.455627.241586-.02124.481289-.042072.719114-.062499l1.404417-.117676 2.022337-.158189 1.921565-.136161 1.225269-.078515 1.180795-.068693 1.136446-.058858 1.621791-.06982 1.026123-.034217.982214-.024338.93843-.014447zm66.598407-.335111.887166.007739c.151317.001952.304364.004235.459142.006848l.949481.019645 1.502441.044323 1.596673.06212 1.69132.07988 1.180334.063105 1.222707.070973 1.265202.078831 1.977751.132958 1.37198.098432.335941.02811c7.034929.663433 12.801676 5.919189 13.807283 12.887551l.172637 1.214803.237862 1.739121.144508 1.104296.195657 1.574235.170322 1.476142.099468.929909.088201.886779.076931.843835.065659.801077.054383.758507c.010203.154323.020005.310986.029407.469998l.051625.982297.042085 1.038966.032603 1.095959.023179 1.153274.013812 1.210911c.001525.20664.002662.415695.003412.627171v1.297974l-.009481 1.356419-.008117.700227c-.100294 7.592469-5.931714 13.85724-13.518316 14.846121l-1.446803.185125-1.404996.172604-1.363343.160067-1.321846.147512-1.280503.134941-1.239316.122352-1.198282.109747c-.196303.017239-.390903.033953-.583802.050141l-1.137023.090807-1.096377.078159c-.17935.011972-.357014.023416-.532994.034331l-1.035697.059157-.995439.046466c-.16256.006686-.323449.012842-.48267.018469l-.93534.027399-.895467.014668c-.146468.001387-.294599.002649-.444396.002649l-.918813-.003774c-.156477-.001636-.314626-.003776-.474452-.006419l-.979091-.021889-1.019461-.033943-1.05998-.045977-1.100646-.057992-1.14146-.069987-1.182422-.081963c-.200492-.014658-.402697-.029814-.606618-.045467l-1.244141-.099893-1.285473-.11182-2.006029-.190055-2.099856-.216787-1.452277-.159342c-7.627737-.860054-13.512071-7.085222-13.643673-14.714532-.003874-.227118-.007299-.452055-.010272-.674817l-.012408-1.310534-.00149-1.258671.009507-1.207136.020585-1.155927.031743-1.105044c.01245-.359903.026772-.711381.042981-1.054487l.054298-1.004257.065696-.954353.037147-.458565c.010572-.123938.021731-.24955.033476-.376842l.07752-.783947c.028189-.26806.058725-.542876.091608-.824487l.105693-.865255.119775-.906251.133855-.947476.147932-.988929.162007-1.030609.176078-1.072519.190147-1.114657.204214-1.157022.332691-1.815469c1.266375-6.764453 7.002383-11.793002 13.910428-12.395127l1.426591-.121608 1.381552-.11192 1.336637-.102221 1.291846-.092509 1.854058-.120525 1.753978-.098603 1.113924-.053536 1.069755-.043761 1.02571-.033975.981788-.024176.937991-.014365.45261-.00371zm-133.110726 15.672003-.771755.008078-.815231.016623-1.304103.040985-.923398.03804-.966453.046626-1.00939.055224-1.594328.098984-1.116205.076769-1.753987.131356-1.849243.150831-1.285548.111392c-.279959.024771-.455029.180699-.475357.291023-.03386.18397-.067206.366263-.100038.546876l-.281613 1.580032-.172326 1.002606-.159997.961771-.147669.920737-.135344.879502-.123021.838065-.110701.796428-.098382.75459-.086066.712551-.073752.670311-.061441.62787-.054027.648657c-.017961.238066-.034612.484655-.049942.73972l-.042016.790574-.034025.841143-.025967.891426-.017843.941423-.009654.991133.001019 1.579281.011109 1.114157.008707.575363c.000937.055191.096069.157464.336597.185057.218721.024962.435804.049483.651246.073564l1.272935.13921 1.835242.189051 1.173848.112885 1.133966.102389 1.093943.091911 1.053777.081452 1.013471.071011.973022.06059.932433.050187.891702.039802.85083.029437.809815.019091c.131544.00232.261373.00421.389484.005671l.748029.003605.35851-.002061.725185-.01217c.124296-.002944.250307-.006347.378029-.010209l.786849-.028675c.134558-.005697.270821-.011854.408788-.018471l.848223-.045217.888975-.056265 1.40959-.105148.990289-.083955 1.030588-.09506c.175115-.01677.351904-.034003.530364-.051699l1.651184-.171798 1.150702-.128469 1.800597-.21365 1.249905-.156421 1.289358-.167629c.312984-.041408.472003-.214979.472974-.289671l.01227-1.209467.004991-1.15511-.002241-1.100494-.009424-1.04562-.016562-.990487-.023651-.935096-.030694-.879445-.037689-.823536c-.013724-.265166-.028606-.52097-.044638-.767369l-.020937-.308201-.049305-.649063-.092543-1.054929-.074087-.757254-.084002-.800227-.093917-.843026-.159472-1.344408-.181791-1.439729-.204112-1.534465-.22644-1.628615c-.007238-.05097-.134376-.166599-.399754-.186325l-2.453768-.175178-1.73468-.112835-1.643779-.096974-1.552566-.081147-1.461038-.065353-1.3692-.049591-1.277047-.033865-1.184582-.018172zm66.170557-.335992-.772188.008048-.815652.016531-1.304711.040727-.923789.037788-.966837.046311-1.009763.054845-1.052572.063391-1.09526.071947-1.722672.123989-1.818052.143305-1.913029.16266c-.290375.025501-.458101.173714-.472403.250719l-.204778 1.118199-.282085 1.595591-.251992 1.496855-.221908 1.397349-.131229.875902-.117866.831104-.104504.786077-.091145.740822-.077789.695337-.064435.649624-.056567.674491c-.009422.124657-.01848.251671-.027172.381035l-.047749.80433c-.007223.138736-.014076.279809-.020559.42321l-.034435.888297-.025461.943852-.016408.999068-.007275 1.053945.001935 1.108483c.001095.189273.002576.380805.004447.574587l.015899 1.189655c.000186.010916.081055.097161.329426.12541l1.293075.143297c.212228.02301.422812.045584.63175.067721l1.835893.187483 1.174288.111944 1.134412.101531 1.094395.091135 1.054238.080758 1.01394.0704.973502.06006.932923.049738.892205.039436.851345.029151.810346.018884c.131633.002293.261552.004159.389753.005599l.748583.00352.358793-.002074c.117522-.001113.236763-.002681.35772-.004704l.746317-.017593.787379-.02852.828313-.039465.869117-.050423.909793-.061399.95034-.072389.990758-.083396 1.031048-.094419 1.071209-.105457 1.111241-.116511 1.741639-.195529 1.830988-.220489 1.919901-.245504c.320445-.042082.46545-.199108.465847-.229418.002652-.204298.004999-.406359.007042-.606178l.008619-1.17197-.000645-1.656499-.00941-1.036316-.016537-.981598-.023616-.92662c-.004524-.14984-.00934-.297379-.014448-.442611l-.034146-.843664-.041106-.788035-.04502-.691912-.081799-1.027071-.106075-1.132386-.084205-.813101-.094999-.859411-.162738-1.375513-.187031-1.478592-.211329-1.581001-.23563-1.682739c-.002059-.014381-.120361-.121115-.39624-.141448l-.628653-.046065-1.82573-.127665-1.735145-.111898-1.644251-.096164-2.050409-.103798-1.887534-.075962-.88246-.027567-1.246796-.02836-.779802-.010261zm66.170556-.335993-.77262.008019-.816072.016438-.859405.02487-.902619.033311-.945715.041765-.988692.050229-1.031553.058705-1.074293.067191-1.116916.075689-1.755032.129491-1.222955.096982-1.913536.161483c-.300825.026221-.461321.166922-.469494.210579l-.301916 1.646482-.184562 1.043561-.251776 1.483627-.221705 1.384875-.131101.868003-.117742.823537-.104385.778839-.091033.733912-.077681.688752-.064333.643362-.027161.304588-.056409.740485c-.008674.128091-.016984.258514-.024926.391264l-.043244.824357c-.00647.142027-.01257.286365-.018299.433008l-.029899.907461-.020902.962438-.011827 1.017071-.002669 1.071366.006567 1.125317.015884 1.178928c-.000145-.00839.003909-.010279.014075-.007942l.149646.046542c.042268.010144.094474.019965.158533.027188l1.925469.20926 1.836544.185914 1.174728.111002 1.687292.147139 1.07479.085209 1.034572.074924.994213.064657.953715.054407.913078.044177.872302.033963.831386.02377.79033.013593c.128293.001418.254869.002413.379726.002986l.728486-.001638.726291-.012101.767401-.02294.808385-.033795.849239-.044666.889967-.055553.930567-.066454.97104-.077372 1.011384-.088305 1.592444-.152991 1.682502-.177678 1.77213-.202417 1.231001-.148715 1.920552-.243766c.204953-.026715.332975-.091699.400123-.133196l.058594-.03599.012251-1.188335.004988-1.13482-.002228-1.081043-.009394-1.027003-.016512-.972701-.02358-.918136-.030602-.863308-.037572-.808218-.044496-.752866-.046379-.643339-.057162-.690002-.105968-1.122054-.084129-.80578-.094919-.85174-.222212-1.840562-.194992-1.499579-.143489-1.056086-.239686-1.665077-.083563-.035249c-.06279-.024344-.161782-.05409-.304984-.064554l-.628806-.045682-1.82619-.126601-1.735611-.11096-1.644724-.095352-1.55353-.079776-1.462028-.064232-1.370221-.048721-.862325-.02388-.821294-.017009-.780171-.01015zm17.394042-73.001068v11.406606l67.711309.101863v-11.312zm-431.713691-1.231531v11.998l81.427977.106424v-11.899302zm13.923687-317.3176372c-.084794.006488-.168905.0148949-.252805.0239388-.164303.0177108-.327796.0378643-.490439.06045l.103557-.0137517-.174.024-.271858.041078c-.227339.0366248-.452937.0780592-.676683.1242743l.041999-.0086144c-6.895684 1.4044266-12.042111 7.3467018-12.198831 14.7151762l-.003679.34643-.000948 281.009656 499.425 2.626.000673-264.710351c0-8.2210697-6.985478-15.1826819-15.669425-15.6936689l-.330575-.0162932-467.424725-18.579369-.338297-.0099413c-.587998-.0111758-1.1682.0096785-1.738964.0609862zm233.269651 81.5824472 4.071252.008165 2.793168.012314 2.34919.013055.192194-.002052.27822.003164.154586.005888.162113.003581.277913.013436.209974.014983 3.468413.18797 4.797818.272182 2.785963.16572 3.606554.223796 3.483177.22706 4.180679.288454 3.206077.234498 3.08314.237845 2.960342.241218 2.139751.183143 2.07081.185065 2.001926.186999 1.9331.188943 1.864331.190897 1.79562.192864 2.287373.260228 2.165458.263767 1.544167.200164.507254.068221c9.961415 1.34984 20.166661 3.226585 30.614844 5.627786 5.773032 1.325106 10.357457 5.797734 11.701391 11.584907l.452382 1.980195.282593 1.267184.395426 1.821932.24466 1.162391.229507 1.120876.214367 1.079587.199237 1.03853.18412.9977.169015.957101.153921.916729.138839.876587.123769.836674.160282 1.194832.338975 2.687959.389768 3.204775.349951 2.953221.224604.005427c10.217494.268937 20.059751.925232 29.525132 1.969639l1.666449.188337c11.803105 1.362591 23.839294 3.425824 36.107382 6.186947 4.958177 1.114984 9.104653 4.562349 11.016668 9.276592 3.996418 9.852981 6.529245 18.650903 7.561906 26.469078.042274.319974.082922.645164.121949.975586l.112225 1.006972c.017895.170449.035386.342209.052473.515282l.097685 1.054212.088022 1.085813.078385 1.1175c.012262.188896.024124.379115.035586.57066l.063974 1.165193.054399 1.197095c.00827.20218.016142.405692.023616.610538l.040082 1.245112c.011773.420385.021961.846124.030567 1.277229l.021079 1.309435c.002723.220927.005052.4432.006988.66682l.006891 1.357903v1.390323l-.014476 1.422829c-.002772.239852-.005935.481061-.009488.723631l-.025996 1.47175-.035338 1.504472-.044653 1.53728-.053945 1.570174-.063211 1.603155-.072453 1.636221-.081671 1.669375-.139733 2.566411c-.377765 6.530215-4.944973 11.977488-11.221961 13.674955l-3.782645 1.020304-2.757438.73514-3.570781.940107-2.59891.675046-3.359901.860054-2.441118.615062-2.37372.589387-2.306457.563732-1.500336.36158-2.194654.52102-2.822159.654874-2.038762.461316-1.972176.435762-1.905728.410228-1.839414.384715-1.773236.35922-1.707194.333746-1.641287.308293-.532473.097111c-2.055111.372907-4.195353.727057-6.420961 1.062562l-1.928576.283013c-2.92424.417677-5.989709.804585-9.196909 1.160964l-2.159136.233065c-.726715.076182-1.460434.150859-2.201164.224034l-2.243224.21502c-.754755.070173-1.516526.138846-2.285318.206021l-2.327444.197038-2.369605.18807-.677411.05057-.182444 1.789501-.200389 1.858856-.198633 1.744469-.131493 1.099664-.195914 1.55487-.129767.973699-.129125.923557-.128512.873556-.1196.77149-.175414 1.0633c-.030788.180512-.062353.362674-.094694.54649l-.203364 1.122768-.222003 1.162627-.240644 1.20266-.259289 1.242863c-.044768.210503-.090314.422689-.136637.636561l-.287263 1.30349c-.049431.22063-.09964.442953-.150626.666972l-.315245 1.364504-.333903 1.405394-.352565 1.446457-.371232 1.487691c-1.248446 4.944565-5.181354 8.700069-10.097883 9.830925l-.360361.076636-2.141364.436284-2.181062.433932-2.144701.416484c-.354423.067959-.707333.135192-1.058731.201696l-2.09026.390299c-.345356.063595-.689203.126462-1.031541.188601l-2.03594.364102-1.999794.34663-1.963702.329152c-.324279.053402-.647056.106075-.968333.15802l-1.909666.302925c-.31528.04903-.629061.097331-.941346.144903l-1.85575.276685c-.306301.044656-.611106.088583-.914418.131781l-1.801957.250432c-3.568101.483359-6.921431.861664-10.061933 1.134714l-1.244336.103678-1.50034.113377-1.570088.106433-1.085509.067103-1.686494.094884-1.756433.087967-1.826446.081061-1.896532.074166-2.637855.088179-2.762751.075963-2.887819.063772-2.248044.039843-2.318564.033009-3.201241.033401-4.178295.02473-4.374988.005863-3.635767-.009069-.045247.007902-.590411.00652-12.012299-.112506-.125043-.019916-3.129251-.049-3.548933-.066995-3.42261-.076813-2.484182-.064073-3.202041-.094072-3.076285-.103976-2.950737-.113912-2.130785-.091973-2.060367-.097591-1.990036-.103224-1.919793-.10887-2.450606-.153963-1.75623-.122093-1.686276-.127782-1.61641-.133483-1.038835-.092164-1.007848-.094707-.976887-.097255c-1.262943-.129702-2.560623-.277782-3.893122-.444228l-1.615715-.208548c-.544146-.072453-1.093868-.147844-1.64917-.226172l-1.682656-.24379-1.716172-.261402c-.288823-.045035-.579044-.090803-.870664-.137304l-1.766502-.28781c-.297215-.049435-.59583-.099603-.895846-.150504l-1.816901-.314204-1.850537-.331792-1.884206-.349375c-.316841-.059694-.635087-.120121-.954737-.18128l-1.934764-.375738c-.325271-.064088-.651949-.128907-.980033-.194458l-1.98539-.402089-2.019178-.419648c-.339347-.071404-.680103-.14354-1.022269-.216407l-2.069919-.445976-2.103782-.463521c-.353455-.078715-.708321-.158161-1.064601-.238338l-2.154636-.489827c-5.006898-1.149605-8.971192-5.010212-10.204364-10.01808l-.370212-1.521787-.351604-1.479547-.332995-1.437452-.314386-1.395505-.295775-1.353707-.277165-1.312056c-.044643-.215213-.088511-.428697-.131603-.640455l-.249247-1.249856-.230635-1.208573c-.036888-.197998-.073001-.394281-.108338-.588853l-.202715-1.146928c-.06447-.375482-.125837-.744145-.184102-1.106015l-.145291-.930675-.120844-.820108-.182314-1.315827-.18364-1.418971-.18504-1.522502-.249029-2.19172-.251832-2.377383-.127023-1.258602-.096934-.983041-.945517-.10126c-1.99824-.21668-3.952275-.441838-5.862208-.675523l-2.270759-.284518c-.374934-.048103-.748106-.096548-1.119516-.145335l-2.20733-.296834c-.728735-.100316-1.450431-.202004-2.165095-.305068l-2.122899-.313322c-2.452118-.370364-4.81817-.757619-7.098444-1.161901l-1.933521-.350701c-1.912528-.354877-3.762097-.722294-5.548887-1.102336l-.831179-.178682-1.080023-.238411-1.674621-.381561-1.152816-.270338-1.181945-.283108-1.82755-.448605-1.893128-.477336-1.95873-.506066-2.024355-.534795-2.090001-.563521-1.429816-.39164-2.94722-.821579-2.28708-.649694-2.352818-.678416-2.41858-.707137-2.484364-.735856-3.414855-1.025812-3.531899-1.076864-1.809858-.557574-4.652765-1.449768c-.316287-.099309-.633795-.199151-.952523-.299524-6.142636-1.937804-10.477799-7.473153-10.834486-13.912129l-.091497-1.718618-.083068-1.686357-.108752-2.469204-.061906-1.606022-.053405-1.574015-.044883-1.542081-.036341-1.510219-.027779-1.47843c-.003915-.24376-.007472-.486199-.010672-.727317l-.021083-2.134467v-1.383498l.006677-1.352.015343-1.320574.024028-1.28922.032735-1.25794.041463-1.226731.050209-1.195596c.009099-.196676.018562-.392057.028392-.586145l.06337-1.149029.072168-1.118074c.012763-.18377.025893-.366254.039391-.547452l.085406-1.07178.094256-1.041007c.032896-.341882.067271-.678647.103127-1.010307l.112019-.97968c.019412-.160732.039195-.320191.05935-.478378 1.026843-8.057469 3.552902-17.081597 7.541023-27.128997 1.940252-4.884755 6.254151-8.405459 11.423976-9.361327 12.281442-2.264764 24.343002-3.807549 36.185626-4.627444 9.424261-.649992 19.229276-.880209 29.416563-.692436l1.576052.031559.535731-4.540064.355268-2.908988.201864-1.597465.108644-.806955.123724-.846679c.021878-.144436.044385-.290535.067521-.438304l.225212-1.375089.169028-.967145.281897-1.526884.206849-1.069015.221995-1.110141.237151-1.151482.252317-1.193039.267492-1.234812.429715-1.931012.305475-1.340186c1.374855-5.966686 6.191984-10.478442 12.216455-11.534591 10.458431-1.83027 20.681556-3.134276 30.671684-3.91106l1.55223-.114314 1.623254-.107868 1.694343-.101429 1.7655-.094999 1.836723-.088578 1.908013-.082164 1.979369-.075761 2.750273-.091065 2.877405-.079715 2.24158-.052349 3.100266-.059899 4.054742-.058993 4.254372-.041382 4.454313-.023811 2.768686-.006296zm.088042 20.000136-3.579713.003172-2.603457.009196-4.997514.035891-3.176361.036862-3.051936.047187-2.927361.057494-3.483788.086332-2.646519.080614-1.902825.067185-1.832416.072939-2.333584.106189-1.667879.086335-1.07269.060739-1.550143.095877-.994141.067093-1.432232.105396c-8.17406.635576-16.538678 1.651638-25.091779 3.048942l-.562094.092955-.291186 1.353452-.328122 1.571556-.200117.992156-.185196.94744-.249795 1.336795-.147845.834608-.132885.789058-.117912.74327-.102926.697245-.086098.636701-.558632 4.524673-.636378 5.423039-.904479 7.975362c-.585774 5.236969-5.135007 9.120699-10.399031 8.877765-13.401815-.618489-26.084149-.513783-38.045275.311177-9.845884.681656-19.878122 1.900681-30.093442 3.658223l-1.259429.220892c-2.848626 7.559124-4.618925 14.18036-5.336915 19.814316-.033041.259324-.064872.524333-.095487.795014l-.088201.829045-.080895.863001-.073566.89688-.066219.930682-.058849.96441-.05146.99806-.04405 1.031633-.036619 1.065132-.029167 1.098553-.021695 1.131898-.014203 1.165167-.007209 1.809962.00462 1.248005.012185 1.281007.019771 1.313933.027378 1.346781.035005 1.379555.066853 2.130613.054163 1.461153.061862 1.493659.066446 1.457129 3.31051 1.026842 3.389441 1.037741 3.27592.988988 2.382261.709717 2.31811.68224 1.509704.439552 2.210908.636398 2.847536.805694 2.060232.572113 2.646175.719897 1.908865.507705 1.236428.323115 1.800322.461624 1.735027.433944 1.120347.273908 1.625919.387764 1.560286.360024 1.503716.334264c.493708.107273.993476.213574 1.499302.318902l1.535642.313061 1.571958.307206c.530036.101425 1.06612.201872 1.608249.301339l1.644514.295457c.554213.097504 1.114466.194026 1.680755.289563l1.71697.283656c.289178.046783.579865.093319.872058.139608l1.771247.274769c.298221.0453.597949.090352.899182.135157l1.825467.265852 1.861582.259892c.313271.042818.628047.085386.944326.127706l1.915708.250925 1.951761.244931 1.987788.238923 2.023791.232902 2.059768.226868 2.095721.22082c.352282.036299.70606.072345 1.061335.108139l2.149603.211724c.361259.034781.724013.069308 1.088262.103582l2.203428.202599c4.838917.434691 8.665271 4.284451 9.070444 9.125929l.281158 3.273329.221006 2.44835.271146 2.846458.21267 2.105175.260319 2.415392.203682 1.758646.15001 1.217242.196239 1.486803.191809 1.330554.124992.798353.171177 1.019807.192082 1.072145.212982 1.124262.233875 1.176155.254761 1.227829c.0442.208931.089271.420007.135211.633221l.286079 1.304921.313234 1.387318 2.15938.471681 2.002324.426869c.661258.139257 1.316329.275484 1.965205.408679l1.928028.390496c.636474.127135 1.266742.25124 1.890796.372316l1.853507.354142 1.816162.335973c.299578.054482.597598.108207.894058.161175l1.760038.308728 1.722551.29057c.56793.093832 1.129602.184638 1.685008.272419l1.647409.254271 1.609753.236129c.530302.075686 1.054319.148349 1.572041.217991l1.534272.199858 1.496447.18173c.246252.028778.490927.056801.734021.084069l1.398999.150384.892839.088823 1.397811.129186 1.972932.164673 1.033214.079082 1.064351.076909 1.654863.111279 2.315271.140732 1.204212.067083 3.14621.15811 1.980661.088267 2.749161.109965 2.142989.076667 2.965343.094458 3.088648.08556 4.033956.094395 3.365478.065439 4.379469.069159 5.354593.062733 4.603566.034143 2.713858.012101 3.508012.006019 2.54805-.003058 3.286629-.014154 3.929982-.033848 3.001099-.039972 3.572439-.06604 2.047883-.048176 1.976094-.054579 1.904222-.060968 1.832265-.067348 1.760226-.073717 1.688101-.080074 1.615893-.08642 1.543602-.092756 1.471225-.09908 1.398765-.105394.443056-.035947c.946943-.078042 1.919274-.167415 2.91695-.268129l1.515519-.159579 1.553505-.176597 1.591462-.193622 1.629387-.210654 1.667279-.227694c.281036-.039369.56365-.079449.84784-.120239l1.724062-.253265 1.761876-.270322c.296795-.046476.595165-.093662.895108-.14156l1.81854-.29592 1.856277-.312993 1.893982-.330075 1.931656-.347162 1.969299-.364258c.331352-.062134.664271-.124981.998756-.188541l2.025705-.389912.94783-.18621.125132-.534604c.100884-.4356.19833-.862988.292337-1.282133l.271704-1.232675.251071-1.183022c.040126-.193022.079392-.383967.117798-.572831l.220121-1.108182.199488-1.058047.178855-1.007719c.028089-.163748.055319-.325392.081689-.484926l.166024-1.049973.143802-.985144.146333-1.071239.148807-1.157045.202159-1.675708.206319-1.827063.157388-1.469214.26719-2.636255.273057-2.869557.33504-3.749557c.018828-.217545.037693-.436626.056592-.657242.423983-4.949316 4.416728-8.837127 9.37558-9.129177l2.204476-.134319 2.168668-.141177 2.132835-.148023 2.096977-.154857 2.061094-.161679 2.025188-.168489 1.989255-.175288c.328547-.02978.655596-.059843.981146-.090189l1.935312-.185463 1.899318-.19223c.313552-.032602.625603-.065486.936154-.09865l1.845281-.202361c.304543-.034289.607584-.068858.909122-.103708l1.79119-.212464c.295524-.035971.589545-.072223.882062-.108753l1.737042-.222541 1.700913-.229243c.560947-.07753 1.115868-.156175 1.66476-.235934l1.628581-.242612 1.592377-.249279c.262378-.042102.523247-.08448.782605-.127136l1.538027-.259257 1.501762-.265894 1.516991-.281055 1.585435-.306511 1.094981-.218485 1.699502-.348948 2.372456-.504889 2.494107-.550185 2.61575-.595497 2.041634-.476367 2.828601-.674828 2.950217-.720179 2.292468-.569905 1.566312-.394117 4.04877-1.034936 3.375798-.879026 2.611631-.689074 3.033716-.810139.078254-1.717979.058979-1.46459.072885-2.133722.038239-1.380251.029986-1.346368.021759-1.312403.013557-1.278354.005379-1.244222v-1.210006l-.013674-1.175706-.019003-1.141324-.02708-1.106858-.035133-1.072309-.04316-1.037675c-.007861-.170055-.016055-.338664-.024583-.505824l-.055154-.98557-.063119-.950728-.071059-.915803-.078974-.880795-.086864-.845703-.094729-.810527-.049113-.38303c-.68991-5.22324-2.365672-11.397445-5.053675-18.480228l-.334718-.870025-1.605382-.347042c-9.609888-2.050235-19.04589-3.639045-28.310092-4.767297l-1.85055-.21951c-11.992665-1.387623-24.689359-2.10986-38.086978-2.162669-5.071121-.019989-9.324437-3.832676-9.896707-8.871442l-.928151-8.058109-.648514-5.435944-.392533-3.155141-.171964-1.323522-.095143-.662505-.110017-.708317-.124876-.753892-.139723-.799227-.154555-.844324-.169374-.889182-.184178-.933802-.19897-.978183-.326159-1.549967-.235888-1.088092-.135246-.608833-1.014466-.223665c-7.964875-1.740879-15.758075-3.151099-23.381469-4.231345l-1.756232-.24343-1.434105-.189202-1.504789-.187796-2.116231-.248184-1.669482-.184468-1.739964-.183023-2.429488-.241764-2.55454-.239149-3.368815-.29522-2.835389-.233169-3.719424-.287661-3.115516-.227056-4.069131-.279935-5.138872-.330156-5.417596-.323781-3.76634-.21227-3.556151-.191726-2.113071-.013282-2.87036-.013245zm-24.49041 118.536981.238793.065444 15.542185 4.530973 18.263749.240779.210303.005877.232875-.000065 18.262073.239409 15.539192-4.085895c4.005969-1.053327 8.107339 1.340263 9.160666 5.346232 1.03226 3.92585-1.245898 7.943322-5.107823 9.093834l-.238409.066832-16.525598 4.34523c-.545305.143382-1.10469.224723-1.667526.24272l-.338031.003186-19.281225-.252838-.208194-.006645-.234984.000834-19.281224-.252838c-.564509-.007403-1.126014-.078515-1.673886-.211748l-.327002-.087382-16.525598-4.818045c-3.976574-1.159371-6.260368-5.322878-5.100996-9.299453 1.136184-3.897043 5.15754-6.16834 9.06066-5.166441zm.013351-16.784454.238673.065883 15.544954 4.562988 18.26271.276553.216342.006103.226836.000593 18.260112.275751 15.539739-4.054548c4.007929-1.045845 8.104823 1.355399 9.150667 5.363328 1.024928 3.92777-1.260728 7.940982-5.124795 9.08428l-.238533.066387-16.525598 4.312255c-.54583.142431-1.105636.222736-1.668774.23963l-.338196.002516-19.281225-.291311-.208233-.006881-.234944.000185-19.281225-.291311c-.564165-.008524-1.125204-.080677-1.672508-.214854l-.32665-.087936-16.525598-4.851019c-3.974436-1.166679-6.250574-5.334377-5.083895-9.308814 1.143346-3.894948 5.16887-6.158849 9.070141-5.149778zm.013331-16.784434.238552.066322 15.544744 4.593983 18.26467.313357.218382.006299.224796.001281 18.262152.312063 15.536306-4.023179c4.009877-1.038352 8.102275 1.370545 9.140627 5.380422 1.017585 3.929679-1.275568 7.938612-5.141765 9.074686l-.238657.065941-16.525598 4.279279c-.546351.141477-1.106573.220743-1.670004.236533l-.338359.001846-19.281224-.329785-.24263-.008004-.200548.000424-19.281224-.329785c-.563815-.009644-1.124382-.082835-1.671114-.217952l-.326294-.088488-16.525598-4.883994c-3.972288-1.173975-6.240769-5.345845-5.066795-9.318133 1.150495-3.892842 5.180169-6.149348 9.079581-5.133116zm166.955296-27.918695.441592.00496c11.010639.235295 20.027263 9.029007 20.027263 19.872123 0 10.963964-9.202392 19.572607-20.325695 19.367613-11.024011-.203163-20.049305-9.005331-20.049305-19.872562 0-10.647035 8.648484-19.067965 19.316586-19.363936l.344825-.006722zm-266.333817-5.69309.345409.004505c11.060719.236365 20.027263 9.258079 20.027263 20.263852 0 11.123616-9.149539 19.965309-20.325695 19.759341-11.074327-.20409-20.049305-9.234289-20.049305-20.26429 0-10.686904 8.416618-19.262217 18.970679-19.742426l.344903-.012782.333563-.00711zm99.391832 16.827373.238429.066759 15.545556 4.624958 18.265628.35019.219424.007466.223754.000998 18.261194.348346 15.535893-3.991789c4.011813-1.030847 8.099697 1.385702 9.130545 5.397514 1.010231 3.931577-1.290418 7.936212-5.158734 9.065051l-.23878.065494-16.525598 4.246305c-.546866.140519-1.107498.218743-1.671217.233427l-.338517.001176-19.281224-.368259-.218316-.008263-.224862-.000201-19.281224-.368259c-.563459-.010761-1.123547-.084989-1.669702-.221042l-.325937-.089037-16.525597-4.91697c-3.970129-1.181258-6.230954-5.357282-5.049696-9.32741 1.157633-3.890725 5.191439-6.139837 9.088981-5.116454zm166.831385 3.866775c-2.760791.047964-4.795545 2.015108-4.795545 4.371076 0 2.54226 2.335481 4.820001 5.325696 4.875109 2.890922.053277 5.049304-1.965843 5.049304-4.37016 0-2.458712-2.222397-4.690869-5.031964-4.864651l-.229058-.009544zm-266.41997-5.693315c-2.71751.052293-4.805575 2.139141-4.805575 4.762575 0 2.812181 2.385797 5.212657 5.325696 5.266837 2.838069.052303 5.049304-2.084532 5.049304-4.761888 0-2.723527-2.273023-5.08037-5.040092-5.256564l-.219446-.009346zm133.802018-62.297164c19.023225.520398 34.482407 15.90261 34.482407 34.54933 0 18.79186-15.683223 33.637763-34.845375 33.23431-19.052203-.401138-34.529625-15.801499-34.529625-34.550474 0-18.894114 15.702361-33.758133 34.892593-33.233166zm-19.892593 33.233166c0 10.499707 8.867096 19.322653 19.845376 19.553798 10.868331.228829 19.529624-7.970041 19.529624-18.237634 0-10.412731-8.885334-19.253826-19.892593-19.55494-10.840251-.296545-19.482407 7.88421-19.482407 18.238776zm19.41222-9.022996.27903.003354c5.505589.139625 9.96875 4.580562 9.96875 9.919112 0 5.338549-4.463161 9.563423-9.96875 9.436518-5.505588-.126904-9.96875-4.567842-9.96875-9.919112 0-5.169871 4.165703-9.288416 9.412587-9.435798z"/></svg>