<svg height="960" viewBox="0 0 960 960" width="960" xmlns="http://www.w3.org/2000/svg"><g fill="#000" fill-rule="evenodd"><path d="m481.275639 1.56237204c28.164496 1.32817661 45.833867 11.26664886 67.014457 35.60550666.361169.4150236 1.215384 1.3917279 2.309219 2.6412472l.482719.5513691c.826519.9439795 1.756823 2.006096 2.698555 3.0810778l.565672.6456907c2.07374 2.3670174 4.113395 4.6943995 5.135558 5.8612128l.252806.2886053c.037684.0430244.07308.0834403.106098.1211427l.168812.1928074c6.825815 7.7984528 13.167736 15.0786461 19.887699 22.8453614 18.759848 21.6820256 36.838887 42.9739929 54.195598 63.9750449 53.434252 64.653701 96.742272 122.089068 120.352547 161.753503 53.109987 89.222916 75.522453 163.049496 75.522453 260.572392 0 53.27752-12.370039 119.828628-36.556138 179.997986-31.515243 78.402553-80.656419 142.142246-148.613767 182.363594-15.57732 9.219618-30.320993 16.659762-45.48004 22.4594-19.622059 7.507124-38.912648 11.81376-58.143366 12.174201-69.631579 1.305103-109.125935-.250493-146.761171-7.610645-82.202364-16.075945-141.763299-50.218014-184.188732-102.005431-17.921822-21.876614-32.486514-46.447712-45.177199-74.828328-9.779457-21.870137-17.631833-43.683504-27.93901-75.873498-1.344073-4.197631-2.939662-9.84776-4.726239-17.347785-2.702839-11.346485-5.123985-24.077566-7.055966-38.072204-1.538702-11.145846-2.974314-29.326772-4.423405-55.288018-.062166-1.210524-.080065-2.423493-.037451-3.635152 2.979341-84.713019 15.018731-150.237382 37.165504-197.324248 26.585641-56.524467 69.756105-124.326396 107.761148-173.949735 10.220614-13.345098 23.697317-33.023483 43.775966-63.519852.59382-.901921 1.197355-1.819222 1.813098-2.755671l1.239512-1.885893c-.035161.052575 5.518562-8.424461 11.805877-18.009822l.461286-.703239.463482-.706548.770217-1.174058.632448-.963971.633368-.965291c5.384564-8.20605 10.755256-16.381711 13.217938-20.1033115 10.151335-15.3406823 17.619237-26.3131223 23.680672-34.6703593.098505-.136292 1.597052-2.2062141 3.276835-4.5246123l.338012-.4664933c.056618-.0781346.113347-.1564205.170142-.2347952l.360698-.4977208c1.442915-1.9909256 2.866792-3.9540226 3.53375-4.8690619 2.835991-3.8908587 5.101224-6.9454315 7.256823-9.7667963 5.657309-7.4045927 10.506518-13.1146555 15.672496-18.1904123 16.046745-15.7664974 34.162646-23.792066 57.351981-25.16197807 7.887005-.46592549 20.661788-.41979335 29.029038-.02521199zm25.888773 50.56656126.332619-.0347004c-11.217613 1.1292828-12.418917 6.7207678-21.432928 19.567698-23.148487 32.9916371-38.545547 80.6698951-81.472194 157.8993621s-70.041285 114.625068-98.746297 177.712236c-13.766741 30.256206-23.295936 70.623409-28.587585 121.101609l40.831555.000301v12l-41.992711-.000992c-.458645 5.156136-.875716 10.411469-1.251212 15.766001l41.227768-.315043.091921 11.999648-42.082494.321659c-.281522 4.928902-.529664 9.937448-.744428 15.025636l42.109903.001515v12l-42.278095.000766c.310681 5.615705.620258 10.833276.928732 15.652711l42.80055-.000945v12l-41.973739.000591c.417375 5.591017.832703 10.443736 1.245984 14.558156l44.093504-.000461v12l-42.611691.000136c3.838798 26.618716 8.803125 42.948947 9.476315 45.122212 29.103418 93.954838 64.133424 186.007052 202.211321 221.413981l2.550866.63823-.589076-.147826 1.995384.074599c1.751099.063044 3.512684.120322 5.284829.171821 4.287722-3.342555 7.275922-6.303513 8.945511-8.805577 4.981963-7.466021 7.457171-14.029412 7.052225-19.942331l11.971957-.819899c.621823 9.079701-2.726066 17.95714-9.042427 27.422904-.541002.81075-1.150247 1.630109-1.827989 2.458996 1.216918.010427 2.440408.017764 3.668657.022547 4.519458-3.480538 7.653236-6.556436 9.378688-9.142217 4.459082-6.682426 7.587915-15.634671 7.154451-20.866441l11.959024-.990832c.692026 8.352531-3.302876 19.782782-9.13172 28.517947-.495212.742131-1.047606 1.491475-1.657374 2.248736.154459-.003276.310713-.006067.467047-.008869 5.066212-3.796697 8.539107-7.135554 10.39053-9.910117 4.380067-6.564013 7.569355-15.929221 6.982938-20.617111l11.9072-1.489494c1.005695 8.039653-3.076996 20.028301-8.908383 28.767278-.357017.53503-.743755 1.07381-1.160285 1.616602.34196-.058442.684751-.118456 1.027352-.179927 4.494847-3.465811 7.613454-6.529791 9.333136-9.106925 4.652678-6.972552 7.492313-15.328957 6.917796-21.430079l11.947148-1.125012c.771506 8.193068-2.049169 17.68655-6.90916 26.049046.973288-.333978 1.944205-.676286 2.911466-1.026706 1.325423-1.488087 2.437244-2.907252 3.335995-4.254129 3.508089-5.257258 6.637721-17.487639 6.043364-21.502057l11.870601-1.757508c.687782 4.645434-.742534 12.765319-3.242844 19.960801 8.700657-4.120153 16.924768-8.65359 24.456339-13.111238 109.426194-64.765168 151.572645-194.124767 162.46755-281.841954l-14.086979.00403v-12l15.412025-.004429c.43904-4.556037.790252-8.97366 1.059469-13.235672l-13.442763.000683v-12l14.001771-.006811c.089109-3.057974.132303-6.012227.132303-8.854736 0-1.466551-.005584-2.92646-.01675-4.379871l-13.107748.002v-12l12.884475-.000395c-.143056-4.800746-.350049-9.531631-.620951-14.198227l-13.451787-.399978.357373-11.994677 12.242741.36288c-.37581-4.484798-.813443-8.91207-1.312871-13.287119l-11.362936-.481081.508759-11.98921 9.300108.392722c-8.883456-61.922655-30.68175-113.958139-65.314394-172.139767-24.835955-41.723535-72.40309-102.995518-116.813711-156.730921-38.794029-46.939508-75.78998-88.6780499-85.144216-99.4271102-4.05599-4.6607837-7.60101-8.3637016-10.951512-11.2976455zm-52.55892-10.6109644c-25.898731 1.5299699-34.410051 14.8247436-57.9397 47.266379-10.561097 14.5611721-25.943265 38.1246051-42.234438 62.9965101l-1.193603 1.822119-1.196506 1.82612c-.399282.609299-.798991 1.219153-1.19907 1.82945l-1.201293 1.832112c-1.001909 1.527682-2.005778 3.057438-3.010721 4.587524l-2.204519 3.354267c-.4697.714158-.939493 1.428109-1.409288 2.141677l-1.409303 2.139376-1.408776 2.13601c-15.491657 23.473696-30.789477 46.143197-42.649814 61.629288-28.127281 36.725907-74.143714 104.617443-103.321381 166.652889-19.451779 41.356964-30.580594 101.925526-33.386447 181.705686 1.391649 24.932144 2.761572 42.281166 4.109769 52.047066 3.96551 28.724853 9.531606 46.440015 10.252782 48.692294 30.981519 96.757334 69.293186 194.828807 226.887353 225.648785 6.581811 1.287175 13.351925 2.365039 20.325772 3.262467-36.598639-17.624444-65.729587-41.333897-88.934236-71.164716l-1.080282-1.398759c-15.252307-19.891011-27.803636-42.247875-38.914078-68.218598-.934563-2.184545-1.851672-4.372941-2.755915-6.576625l-.675841-1.655809c-7.297031-17.972859-13.820386-37.143837-22.030513-63.648666-.421898-1.362018-.914538-3.043577-1.515299-5.242615-.876478-3.20828-1.789342-6.826633-2.7159-10.847389-2.400653-10.417528-4.57166-22.104196-6.337997-34.949021l-6.192369-.001109v-12l4.812774-.000152c-.403233-4.223165-.804611-9.072567-1.205442-14.556854l-6.564793-.00128v-12l5.751895.000416c-.305746-4.843078-.611689-10.059221-.918409-15.652269l-5.564163-.000679v-12l5.745135-.001217c.217243-5.245752.469274-10.412096.756224-15.499136l-6.680326-.197894.357933-11.99466 7.073085.209695c.37618-5.447946.794596-10.800351 1.25542-16.057352l-6.425569-.273582.512639-11.989045 7.051729.300379c5.472769-53.153047 15.547797-95.996015 30.419428-128.680521 2.650843-5.825957 5.327198-11.523465 8.049241-17.140947 8.179104-16.879222 16.675797-32.871592 26.847365-50.766629 4.233394-7.447894 8.720618-15.169168 14.318302-24.670192 1.251782-2.124666 3.773892-6.389099 6.415232-10.852148l.512407-.865774.891556-1.506244c3.63421-6.139478 7.110106-12.007377 7.450498-12.583121 9.875477-16.703532 17.840332-30.373729 25.668819-44.169923l1.235203-2.179854c2.674937-4.727282 5.344843-9.488771 8.080757-14.410963 14.217185-25.578183 25.710155-48.292826 39.183879-76.648114 1.050587-2.210948 3.816023-8.071788 6.690162-14.16047l.523411-1.108782c2.968732-6.288691 5.949524-12.599084 7.18575-15.188513 5.187479-10.86582 9.244561-19.0254098 13.218448-26.4676247 5.34625-10.0123491 10.428068-18.4694338 15.779674-26.0966386.405357-.5777222 2.289163-3.4228957 4.332923-6.4482317l.384758-.5688522.438152-.6459432c1.753529-2.5808312 3.495612-5.0907542 4.416527-6.2479128 1.301581-1.6354748 2.658735-3.1232587 4.083959-4.4674006-1.265512-.1224055-2.581649-.2134227-3.957043-.2782833-6.025193-.2841351-17.744669-.4159629-24.785927 0zm131.369228 698.2862711c18.165383 5.553714 25.991936 28.689487 19.120211 51.165888-6.871725 22.476402-26.297592 37.280273-44.462975 31.726558s-25.991936-28.689487-19.120211-51.165889c6.871725-22.476401 26.297592-37.280272 44.462975-31.726557zm-30.118404 36.112133c-4.70261 15.381545.132862 29.675497 9.161215 32.435742 9.028354 2.760244 21.030218-6.386017 25.732829-21.767562 4.70261-15.381545-.132862-29.675498-9.161215-32.435742-9.028354-2.760245-21.030218 6.386017-25.732829 21.767562zm25.722275-400.733885c.836735.705097 1.026078.933223 1.743385 1.863434.194477.252198.425409.561193.709311.947559.481841.655744 1.13905 1.56561 2.043909 2.8281.511643.713862 1.967982 2.754039 3.404439 4.767167l.373643.52366c1.487692 2.085068 2.862408 4.012544 3.028207 4.244752 7.832765 10.970144 14.290752 19.912577 20.958684 28.951003 1.194326 1.618917 2.433259 3.292738 3.730943 5.040935.623787.840346 1.261088 1.697795 1.915088 2.576681 1.173309 1.576766 4.987025 6.677543 9.129181 12.220504l.639534.855836c.320751.429247.642744.860175.964927 1.291382l.966063 1.293053.321183.429934.639704.856374c3.718532 4.978283 7.176398 9.612625 8.70254 11.675521 7.262483 9.816752 11.42077 15.70021 13.412781 19.151058l.59339 1.017321c20.50697 35.305874 30.883527 67.351794 30.883527 96.217426 0 21.260624-6.047349 50.100922-17.829698 73.653169-16.699794 33.381941-43.296333 54.605792-80.226232 57.616576-31.955318 2.605221-59.86594-10.097652-79.6438-34.583466-18.279849-22.631215-28.404691-53.997267-28.404691-87.200873 0-32.530389 10.247143-65.730515 27.713506-99.807574 4.555362-8.887559 9.326541-17.305129 14.721918-26.204731.93222-1.537684 2.674134-4.356946 4.453465-7.232764l.445165-.719424c2.076905-3.356194 4.117142-6.65042 4.894365-7.937392l.146769-.244347.058048-.097802c.469464-.795484 3.436023-6.475926 6.67923-12.713969l.375318-.722003c.062715-.120664.125501-.241472.188342-.362395l.37758-.726657c.062998-.121255.126019-.242562.189047-.363891l.447549-.861638.446547-.859912c3.11938-6.007634 6.072652-11.70841 6.919492-13.320897.455133-.866629.901679-1.714678 1.340551-2.54579 4.444335-8.416443 8.092546-15.080207 11.027219-20.062163 1.759753-2.98739 3.254365-5.355097 4.526272-7.133444.818295-1.144117 1.577599-2.095594 2.364012-2.915063 1.986965-2.070488 3.843397-3.383783 7.219518-3.711504 2.679772-.260126 5.351224.571317 7.410069 2.306254zm-6.251982 25.005964-.167242.296931c-2.36391 4.176999-5.176114 9.366903-8.442188 15.552017-.431711.817553-.871271 1.652334-1.319556 2.505924-1.511479 2.878041-14.756247 28.510847-16.105614 30.797281-.601867 1.019835-2.766815 4.519454-4.995816 8.121824l-.393712.636295-.456463.737762c-1.744816 2.820288-3.411549 5.517487-4.273458 6.939196-5.165904 8.521091-9.710028 16.538077-14.026176 24.958928-16.146608 31.502203-25.511775 61.844777-25.511775 90.684984 0 28.807584 8.688004 55.722412 23.963249 74.633801 15.720293 19.462378 37.270223 29.270329 62.460094 27.216675 29.285198-2.387535 50.167978-19.051845 63.964728-46.630767 10.307753-20.604616 15.71635-46.39865 15.71635-64.705115 0-25.197213-9.504448-54.285402-28.767023-87.182465l-.031135-.053551c-1.452312-2.515905-5.442282-8.161215-12.169877-17.254954-1.536297-2.076625-5.07551-6.819583-8.859848-11.885741l-.583903-.781643-.975258-1.305379c-.108495-.145211-.216994-.290425-.325458-.435589l-.650023-.869935-.26581-.35572-.529671-.70881c-4.136836-5.535822-7.952858-10.639737-9.139967-12.235049-.658579-.88504-1.300548-1.74877-1.92912-2.595561-1.309005-1.763449-2.559575-3.452991-3.766047-5.088372-.23245-.315088-.464628-.630033-.696601-.944924l-1.389885-1.8894c-6.016677-8.190681-11.982901-16.463751-19.05473-26.368169-.095313-.133491-.557939-.782066-1.203258-1.686696zm12.103454 51.304525.62768.84233c1.288986 1.730381 2.635858 3.53503 4.122812 5.524533l1.015395 1.358197c.140058.187295.27645.369673.411957.550854l.27066.361866c.587445.785358 1.193104 1.594774 2.043327 2.730801l.4106.548613c.214807.287004.444493.593881.691839.924348.124734.166651.338755.45189.62524.833409l.228188.303843c1.166036 1.552462 3.229017 4.296829 5.387539 7.170518l.545831.726725c2.825673 3.76239 5.699178 7.59269 6.84842 9.141284 4.532045 6.106889 7.166789 9.846242 8.628319 12.378115l.052508.090981c.016405.028312.024035.041181.049881.085058l.526899.903071c16.866888 29.011421 25.438803 53.657634 25.438803 75.966665 0 21.428434-6.93878 48.754088-21.191201 68.208211-9.695631 13.234243-22.906213 21.437715-39.763083 22.812005-17.174206 1.400162-32.37286-5.18231-43.416417-17.881958-13.751899-15.814133-20.967581-38.739385-20.967581-63.652852 0-27.336686 8.823374-54.8456 24.003208-83.444173 3.137053-5.910161 6.433771-11.656055 10.103428-17.708018 1.394023-2.29901 2.780957-4.543693 4.431562-7.183209.4998-.79924 3.053917-4.868307 3.689693-5.888452 2.413456-3.872552 3.609433-5.81607 4.600507-7.495396.123078-.20855.292352-.505556.490138-.86063l.207243-.374007c.689565-1.250525 1.664659-3.075368 2.877278-5.382259l.112666-.217351c3.398041-6.555355 12.484744-7.293793 16.896661-1.373122zm-6.903384 24.177193-.156184.253976c-.352386.567068-.734475 1.180865-1.151402 1.849853-.070326.112844-.162569.260517-.27182.435213l-.239724.383109c-.994722 1.588964-2.796788 4.460332-3.194327 5.096045-1.605768 2.567816-2.946856 4.738298-4.287206 6.948791-3.484627 5.746814-6.596366 11.170307-9.539448 16.715029-13.783175 25.967288-21.668889 50.552831-21.668889 74.067408 0 20.404252 5.750356 38.673955 16.059465 50.529017 6.972409 8.017991 16.031901 11.941618 26.699385 11.07193 10.708751-.873052 18.813439-5.90588 25.254621-14.697899 11.412663-15.577939 17.324811-38.860606 17.324811-56.388454 0-18.180901-7.478373-39.682931-22.721182-65.900925l-.469763-.806056c-.074071-.124166-.143386-.243986-.198387-.340063-.928997-1.609342-3.335297-5.024478-7.36762-10.457996-.374903-.505178-.940865-1.263207-1.632896-2.187914l-.389583-.520398c-1.2708-1.696992-2.882469-3.844521-4.500099-5.998523l-.544637-.725175c-2.175658-2.896649-4.29387-5.714533-5.535444-7.367462l-.291656-.388334c-.317852-.423275-.555321-.739747-.692082-.922467-.165047-.220512-.322241-.430533-.472408-.631168z" fill-rule="nonzero"/><path d="m555.542212 790.847793c3.81356 2.572279 10.696413-.963388 15.373283-7.897133s5.376721-14.6399 1.563162-17.212178c-3.81356-2.572279-10.696413.963389-15.373283 7.897133-4.67687 6.933745-5.376721 14.6399-1.563162 17.212178z"/></g></svg>