<svg height="960" viewBox="0 0 960 960" width="960" xmlns="http://www.w3.org/2000/svg"><path d="m341.039437 15.0362457 361.752359 4.7795038c32.825423.4332216 59.208204 27.1664938 59.208204 59.9947753v24.7366842l.017483.004076c47.72004 12.525669 83.267947 55.209581 84.922385 106.543335l.045001 1.859167c.001748.107994.00306.215994.003934.323999l.011197 1.22207v495.163837c0 42.037197-22.865896 79.166639-57.316187 98.930754l-.683813.384762v47.725497c0 30.745389-23.226656 56.460443-53.703793 59.668851l-.925753.090317-456.898217 41.060663c-6.954837.625019-13.965395.031193-20.716014-1.754739l-44.101782-11.667498c-26.321427-6.963555-44.654441-30.777446-44.654441-58.004429v-57.463662l-.766909-.533684c-29.105827-20.569872-47.703863-54.22393-48.221978-91.527881l-.011113-1.600948v-521.324762c0-62.206407 50.209115-112.750126 112.41415-113.163301l27.58585-.183424v-19.3280244c0-26.6503503 17.572338-50.0712562 43.080517-57.5650715l.775394-.222197 21.247642-5.9359754c4.960033-1.3856896 10.075514-2.1263841 15.220113-2.212695zm399.566819 787.7714873-443.959937 37.621845c-5.468155.46338-10.958489.451443-16.409684-.031754l-.000635 76.716422 450.554151-40.489817c10.310432-.926581 18.209849-9.56774 18.209849-19.919723l.000851-54.986169c-2.756425.483733-5.556352.848679-8.394595 1.089196zm-532.606242 22.386515-.000014 60.903623c0 9.075661 6.111005 17.013625 14.884814 19.33481l37.351186 9.880565v-78.519l-47.957137-10.553715c-1.440361-.316985-2.866871-.666029-4.278849-1.046283zm107.836986-685.366002.148.193963-8.411029-.017827c-33.079274 2.956036-59.050073 30.704795-59.138402 64.569962l-.000221 548.314502c0 35.898509 29.101492 65 65 65 1.697632 0 3.394612-.066506 5.087037-.199367l59.15126-4.643544c1.003017-.07874 1.983066-.006639 2.917842.197243l358.325991-30.364018c38.309518-3.246407 67.751522-35.288896 67.751522-73.735721v-494.513675c0-27.146447-14.618879-50.883885-36.419252-63.760639-10.901413-6.363655-23.577604-10.019505-37.107605-10.045495l-11.142143-.021421v-.193963zm-57.836823.478201-26.320347.176303c-40.217814.267133-72.67983 32.945483-72.67983 73.164184v521.324762c0 19.660367 7.739792 37.823012 20.608862 51.239638 9.802058 10.016408 22.497382 17.31188 36.9686 20.496607l39.189265 8.626089c-16.806938-15.528984-27.331379-37.758027-27.331379-62.445184v-548.366667c.067148-25.683534 11.518428-48.676809 29.564829-64.215732zm281.015875 38.097636c145.092468.233209 262.390728 126.924366 262.390728 282.619142 0 155.425015-116.878646 290.450187-261.641169 301.565993-145.587718 11.17917-263.172391-115.821242-263.172391-282.589218 0-166.49813 117.142515-301.828231 262.422832-301.595917zm-.032063 20.000002c-133.520631-.213513-242.390769 125.559839-242.390769 281.595915 0 155.766318 108.428057 272.876888 241.641169 262.64792 134.038307-10.292331 243.172391-136.370524 243.172391-281.624695 0-144.98432-108.714388-262.404233-242.422791-262.61914zm186.354994 265.478654c0 111.288757-82.861227 207.014982-185.690607 213.696254-103.502982 6.725038-186.987359-83.444455-186.987359-200.438507 0-116.724087 83.045591-212.663299 186.236899-213.716774 103.156742-1.053122 186.441067 88.9003 186.441067 200.459027zm-183.493401-180.463734-2.743498.003665c-91.587354.935011-166.441067 87.410478-166.441067 193.717816 0 106.037372 74.414927 186.411168 165.690607 180.48059 91.949283-5.974345 166.987359-92.662799 166.987359-193.738337 0-98.789455-71.660225-178.163752-160.760453-180.418851zm112.612045 183.128281c0 69.268757-51.163324 128.375676-114.918735 131.816401-64.287277 3.469428-115.996519-52.380496-115.996519-123.887748 0-71.237184 51.273574-130.471471 115.245517-131.828682 64.08013-1.359506 115.669737 54.361203 115.669737 123.900029zm-113.676266-103.923703-1.569251.019175c-52.513336 1.114108-95.669737 50.970953-95.669737 111.833181 0 60.592159 42.720734 106.733809 94.918735 103.916809 52.729867-2.845703 95.996519-52.829915 95.996519-111.845462 0-58.158022-41.987845-104.089677-93.676266-103.923703zm51.139446 106.276717c0 31.448167-23.192977 58.242075-52.466166 59.574332-29.695896 1.351495-53.375448-24.224227-53.375448-56.347404 0-31.853064 23.246293-58.708567 52.624216-59.580273 29.595701-.878168 53.217398 24.635066 53.217398 56.353345zm-52.624216-36.362143c-18.031092.535021-33.217398 18.079146-33.217398 39.589071 0 21.239813 14.753047 37.174229 32.466166 36.368085 18.135825-.825383 33.375448-18.431103 33.375448-39.595013 0-20.893798-14.810903-36.890703-32.624216-36.362143zm-191.717591-377.4099113v64.7040003l15.014014.03956c.321818.00084.640045.016872.954005.047416l358.452981.689024v-40.7977212c0-10.9427605-8.79426-19.8538513-19.736068-19.9982585zm-20 2.681-13.960363 3.900516c-8.642261 2.4143974-14.618637 10.289241-14.618637 19.2624229v36.8873034l1.507 1.966758 2.92324-.019123h.812826l5.663778.008231c1.243397-.050737 2.493653-.07475 3.750205-.07148l13.921951.035372z"/></svg>