<?xml version="1.0" encoding="utf-8"?>
<!-- Generator: Adobe Illustrator 21.0.0, SVG Export Plug-In . SVG Version: 6.00 Build 0)  -->
<svg version="1.1" id="Layer_1" xmlns="http://www.w3.org/2000/svg" xmlns:xlink="http://www.w3.org/1999/xlink" x="0px" y="0px"
	 viewBox="0 0 1417.3 1366.2" style="enable-background:new 0 0 1417.3 1366.2;" xml:space="preserve">
<g>
	<g>
		<path d="M693.5,317.2c8.3,35.5,44,178.9,54.8,219.9c7.1,27.1-1.7,54.4-22.1,68.5c-20.8,14.3-45.2,14.1-66-0.6
			c-20-14.1-28.5-40.9-21.5-67.7C648.2,501.4,683.9,358,693.5,317.2z M675.8,510.9c0,29.3,0,58.5,0,87.8c0,5.3,0,11.5,7.5,11.5
			c7.5,0.1,7.6-5.6,7.6-11.1c0-14-0.3-27.8-0.2-41.8c0-2.8-0.6-7.3,2.4-7.8c1.9-0.3,4.9,2.8,6.9,4.9c7.8,8.1,15.4,16.5,23.1,24.7
			c4,4.3,9.2,9.6,14.7,4.3c5.6-5.4-0.3-10.5-4-14.6c-12.9-14.3-25.9-28.5-39.1-42.5c-4.2-4.5-7.3-9.2-3.6-12.7
			c3.4-3.3,7.9,1.8,10.8,4.3c7.3,6.3,14,13.3,21.1,19.7c3.9,3.5,7.9,10.4,13.8,3.6c5.4-6.2,0.2-10.9-4.2-15.1
			c-12.7-12.2-25.4-24.4-38.1-36.5c-4.2-4-7.2-8.1-3.8-11.6c3.1-3.3,7.8,1.3,10.4,3.6c5.7,5.1,10.8,10.8,16.4,16
			c3.6,3.4,7.9,7.5,12.7,2.2c4.6-5,2.2-9.1-2.5-13.4c-11.5-10.6-22.3-21.8-33.5-32.8c-3.5-3.4-5.5-7.9-2.2-11.4
			c3.2-3.4,5.4,1.9,7.8,3.5c4.4,2.9,9.3,5.6,13.4,0.8c4.1-4.8,0.7-9.2-3.3-12.8c-6.2-5.6-12.3-11.2-18.4-16.8
			c-3.2-2.9-6.1-6.7-11.1-4.6c-5.4,2.3-4.9,7.3-4.9,12C675.8,453,675.8,482,675.8,510.9z"/>
	</g>
	<g>
		<g>
			<path d="M481.8,665c0.2,0,0.6,0,1.3,0.1v15.2c-0.9-0.1-1.8-0.2-2.5-0.2c-0.7,0-1.3-0.1-1.8-0.1c-6,0-10.1,1.9-12.2,5.8
				c-1.2,2.2-1.7,5.5-1.7,10.1v27.1h-15.1v-56.6h14.3v9.9c2.3-3.8,4.3-6.4,6.1-7.7c2.8-2.3,6.5-3.5,10.9-3.5
				C481.3,664.9,481.6,665,481.8,665z"/>
		</g>
		<g>
			<path d="M514.6,688.5c2.8-0.3,4.8-0.8,6-1.3c2.2-0.9,3.2-2.3,3.2-4.2c0-2.3-0.8-3.9-2.5-4.8s-4.1-1.3-7.3-1.3
				c-3.6,0-6.1,0.9-7.6,2.6c-1.1,1.3-1.8,3-2.1,5.2h-14.5c0.3-5,1.7-9,4.2-12.2c4-5,10.8-7.5,20.5-7.5c6.3,0,11.9,1.2,16.8,3.7
				c4.9,2.5,7.3,7.1,7.3,13.9v26c0,1.8,0,4,0.1,6.5c0.1,1.9,0.4,3.3,0.9,3.9c0.5,0.7,1.2,1.3,2.2,1.7v2.2h-16.3
				c-0.5-1.1-0.8-2.2-0.9-3.2c-0.2-1-0.3-2.1-0.4-3.4c-2.1,2.2-4.5,4.1-7.2,5.7c-3.2,1.8-6.9,2.8-11,2.8c-5.2,0-9.5-1.5-12.9-4.4
				c-3.4-2.9-5.1-7.1-5.1-12.4c0-7,2.7-12,8.2-15.1c3-1.7,7.4-2.9,13.3-3.6L514.6,688.5z M523.7,695.4c-1,0.6-1.9,1.1-2.9,1.4
				c-1,0.4-2.3,0.7-4,1l-3.4,0.6c-3.2,0.6-5.5,1.2-6.9,2c-2.4,1.4-3.5,3.4-3.5,6.3c0,2.5,0.7,4.4,2.2,5.5c1.4,1.1,3.2,1.7,5.3,1.7
				c3.3,0,6.3-0.9,9.1-2.8s4.2-5.3,4.3-10.2V695.4z"/>
		</g>
		<g>
			<path d="M567.2,659.5H552v-13.7h15.2V659.5z M552,666.3h15.2v56.6H552V666.3z"/>
		</g>
		<g>
			<path d="M628,669.5c3.8,3.1,5.6,8.2,5.6,15.3v38.1h-15.4v-34.5c0-3-0.4-5.3-1.2-6.9c-1.5-2.9-4.2-4.4-8.4-4.4
				c-5,0-8.5,2.1-10.4,6.4c-1,2.3-1.5,5.1-1.5,8.6v30.7h-15v-56.5h14.5v8.3c1.9-2.9,3.7-5,5.4-6.3c3.1-2.3,7-3.4,11.7-3.4
				C619.4,664.9,624.2,666.5,628,669.5z"/>
		</g>
		<g>
			<path d="M671.3,645.6c0.8,0.1,1.8,0.1,3.2,0.2v12.1c-0.8-0.1-2.3-0.2-4.2-0.2c-2-0.1-3.3,0.4-4.1,1.3c-0.8,0.9-1.1,1.9-1.1,3
				c0,1.1,0,2.7,0,4.8h9.8v10.4H665v45.7h-14.9v-45.7h-8.4v-10.4h8.2v-3.6c0-6.1,1-10.2,3.1-12.5c2.2-3.4,7.4-5.1,15.7-5.1
				C669.6,645.6,670.5,645.6,671.3,645.6z"/>
		</g>
		<g>
			<path d="M731.3,716c-4.8,5.9-12.2,8.9-22,8.9c-9.9,0-17.2-3-22-8.9c-4.8-5.9-7.3-13-7.3-21.3c0-8.2,2.4-15.2,7.3-21.2
				c4.8-6,12.2-9,22-9c9.9,0,17.2,3,22,9c4.8,6,7.3,13.1,7.3,21.2C738.5,703,736.1,710.1,731.3,716z M719.3,707.8
				c2.4-3.1,3.5-7.5,3.5-13.1c0-5.7-1.2-10-3.5-13.1c-2.4-3.1-5.7-4.6-10.1-4.6c-4.4,0-7.8,1.5-10.1,4.6c-2.4,3.1-3.6,7.4-3.6,13.1
				c0,5.7,1.2,10,3.6,13.1c2.4,3.1,5.7,4.6,10.1,4.6C713.5,712.4,716.9,710.9,719.3,707.8z"/>
		</g>
		<g>
			<path d="M781.1,665c0.2,0,0.6,0,1.3,0.1v15.2c-0.9-0.1-1.8-0.2-2.5-0.2c-0.7,0-1.3-0.1-1.8-0.1c-6,0-10.1,1.9-12.2,5.8
				c-1.2,2.2-1.7,5.5-1.7,10.1v27.1h-15.1v-56.6h14.3v9.9c2.3-3.8,4.3-6.4,6.1-7.7c2.8-2.3,6.5-3.5,10.9-3.5
				C780.7,664.9,780.9,665,781.1,665z"/>
		</g>
		<g>
			<path d="M828.6,667.4c4,1.8,7.3,4.6,9.9,8.4c2.3,3.4,3.9,7.3,4.6,11.7c0.4,2.6,0.6,6.3,0.5,11.2h-41.8c0.2,5.7,2.2,9.7,6,12
				c2.3,1.4,5,2.1,8.3,2.1c3.4,0,6.2-0.9,8.3-2.6c1.2-0.9,2.2-2.2,3.1-3.9h15.3c-0.4,3.4-2.3,6.8-5.6,10.2
				c-5.1,5.5-12.3,8.3-21.6,8.3c-7.6,0-14.4-2.3-20.2-7s-8.8-12.2-8.8-22.7c0-9.8,2.6-17.3,7.9-22.6c5.3-5.2,12.1-7.9,20.5-7.9
				C820.1,664.8,824.6,665.7,828.6,667.4z M806.1,680.2c-2.1,2.2-3.5,5.1-4,8.8H828c-0.3-3.9-1.6-6.9-4-9c-2.4-2-5.4-3.1-8.9-3.1
				C811.2,677,808.3,678.1,806.1,680.2z"/>
		</g>
		<g>
			<path d="M862.8,704.9c0.3,2.6,1,4.5,2.1,5.6c1.9,2,5.3,3,10.4,3c3,0,5.3-0.4,7.1-1.3c1.7-0.9,2.6-2.2,2.6-3.9
				c0-1.7-0.7-2.9-2.1-3.8c-1.4-0.9-6.6-2.4-15.7-4.5c-6.5-1.6-11.1-3.6-13.8-6c-2.7-2.4-4-5.7-4-10.2c0-5.2,2.1-9.7,6.2-13.5
				c4.2-3.8,10-5.6,17.6-5.6c7.2,0,13,1.4,17.5,4.2c4.5,2.8,7.1,7.7,7.8,14.6h-15c-0.2-1.9-0.8-3.4-1.6-4.5c-1.7-2-4.5-3-8.4-3
				c-3.3,0-5.6,0.5-7,1.5c-1.4,1-2.1,2.2-2.1,3.5c0,1.7,0.7,2.9,2.2,3.7c1.5,0.8,6.7,2.2,15.7,4.1c6,1.4,10.5,3.5,13.4,6.3
				c2.9,2.8,4.4,6.4,4.4,10.7c0,5.6-2.1,10.2-6.4,13.7c-4.2,3.6-10.8,5.3-19.6,5.3c-9,0-15.7-1.9-20-5.6c-4.3-3.8-6.5-8.5-6.5-14.4
				H862.8z"/>
		</g>
		<g>
			<path d="M905.2,677.4v-10.5h8V651H928v15.8h9.3v10.5H928v29.9c0,2.3,0.3,3.8,0.9,4.3c0.6,0.6,2.4,0.9,5.5,0.9c0.5,0,0.9,0,1.4,0
				c0.5,0,1,0,1.5-0.1v11.1l-7.1,0.3c-7.1,0.2-11.9-1-14.5-3.6c-1.7-1.7-2.5-4.3-2.5-7.8v-34.9H905.2z"/>
		</g>
	</g>
	<g>
		<g>
			<path d="M459.7,753.1c0.7-0.1,1.1-0.4,1.3-0.8c0.1-0.3,0.2-0.6,0.2-1.1c0-1-0.3-1.7-1-2.1c-0.7-0.4-1.7-0.7-3-0.7
				c-1.5,0-2.6,0.4-3.2,1.2c-0.4,0.4-0.6,1.1-0.7,2h-2.7c0.1-2.1,0.7-3.5,2.1-4.3c1.3-0.8,2.8-1.2,4.6-1.2c2,0,3.7,0.4,4.9,1.1
				c1.2,0.8,1.9,1.9,1.9,3.5v9.7c0,0.3,0.1,0.5,0.2,0.7c0.1,0.2,0.4,0.3,0.8,0.3c0.1,0,0.3,0,0.4,0s0.3,0,0.5-0.1v2.1
				c-0.4,0.1-0.8,0.2-1,0.2c-0.2,0-0.6,0-1,0c-1,0-1.7-0.3-2.2-1c-0.2-0.4-0.4-0.9-0.5-1.5c-0.6,0.8-1.4,1.4-2.5,2
				c-1.1,0.6-2.3,0.8-3.6,0.8c-1.6,0-2.9-0.5-3.9-1.4c-1-0.9-1.5-2.1-1.5-3.5c0-1.6,0.5-2.8,1.5-3.6c1-0.9,2.3-1.4,3.9-1.6
				L459.7,753.1z M453.7,760.8c0.6,0.5,1.3,0.7,2.2,0.7c1,0,2-0.2,3-0.7c1.6-0.8,2.4-2,2.4-3.7v-2.3c-0.4,0.2-0.8,0.4-1.4,0.6
				c-0.6,0.1-1.1,0.3-1.6,0.3l-1.7,0.2c-1,0.1-1.8,0.3-2.4,0.6c-0.9,0.5-1.3,1.3-1.3,2.3C452.7,759.6,453,760.3,453.7,760.8z"/>
		</g>
		<g>
			<path d="M508.2,746.5v11.1c0,0.9,0.1,1.6,0.4,2.1c0.5,1,1.4,1.5,2.8,1.5c2,0,3.3-0.9,4-2.6c0.4-0.9,0.6-2.2,0.6-3.9v-8.2h2.9
				v16.8h-2.7l0-2.5c-0.4,0.6-0.8,1.2-1.4,1.6c-1.1,0.9-2.4,1.3-3.9,1.3c-2.4,0-4-0.8-4.9-2.4c-0.5-0.9-0.7-2-0.7-3.4v-11.4H508.2z"
				/>
		</g>
		<g>
			<path d="M560.7,741.8h2.9v4.7h2.7v2.3h-2.7v10.9c0,0.6,0.2,1,0.6,1.2c0.2,0.1,0.6,0.2,1.1,0.2c0.1,0,0.3,0,0.4,0
				c0.2,0,0.3,0,0.6-0.1v2.2c-0.3,0.1-0.7,0.2-1,0.2c-0.4,0-0.7,0.1-1.2,0.1c-1.3,0-2.3-0.3-2.7-1c-0.5-0.7-0.7-1.5-0.7-2.6v-11.1
				h-2.3v-2.3h2.3V741.8z"/>
		</g>
		<g>
			<path d="M618.2,748.2c1.5,1.4,2.3,3.6,2.3,6.4c0,2.7-0.7,4.9-2,6.7s-3.4,2.6-6.2,2.6c-2.3,0-4.2-0.8-5.6-2.3
				c-1.4-1.6-2.1-3.7-2.1-6.3c0-2.8,0.7-5.1,2.2-6.7c1.5-1.7,3.4-2.5,5.9-2.5C614.8,746,616.6,746.8,618.2,748.2z M616.4,759.3
				c0.7-1.4,1.1-3,1.1-4.7c0-1.6-0.3-2.8-0.8-3.8c-0.8-1.5-2.2-2.3-4.2-2.3c-1.7,0-3,0.7-3.8,2c-0.8,1.3-1.2,2.9-1.2,4.8
				c0,1.8,0.4,3.3,1.2,4.5c0.8,1.2,2.1,1.8,3.8,1.8C614.4,761.5,615.7,760.8,616.4,759.3z"/>
		</g>
		<g>
			<path d="M660.5,746.5h2.9v2.4c0.7-0.8,1.3-1.4,1.9-1.8c1-0.6,2-1,3.2-1c1.4,0,2.5,0.3,3.3,1c0.5,0.4,0.9,0.9,1.3,1.7
				c0.6-0.9,1.4-1.6,2.3-2c0.9-0.4,1.8-0.7,2.9-0.7c2.3,0,3.9,0.8,4.7,2.4c0.4,0.9,0.7,2.1,0.7,3.5v11.2h-3v-11.7
				c0-1.1-0.3-1.9-0.9-2.3c-0.6-0.4-1.3-0.6-2.1-0.6c-1.1,0-2.1,0.4-2.9,1.1c-0.8,0.7-1.2,2-1.2,3.7v9.8h-2.9v-10.9
				c0-1.1-0.1-2-0.4-2.5c-0.4-0.8-1.3-1.2-2.5-1.2c-1.1,0-2.1,0.4-3,1.2c-0.9,0.8-1.3,2.3-1.3,4.5v8.9h-2.9V746.5z"/>
		</g>
		<g>
			<path d="M733.6,753.1c0.7-0.1,1.1-0.4,1.3-0.8c0.1-0.3,0.2-0.6,0.2-1.1c0-1-0.4-1.7-1-2.1c-0.7-0.4-1.7-0.7-3-0.7
				c-1.5,0-2.6,0.4-3.2,1.2c-0.4,0.4-0.6,1.1-0.7,2h-2.7c0.1-2.1,0.7-3.5,2.1-4.3c1.3-0.8,2.8-1.2,4.6-1.2c2,0,3.7,0.4,4.9,1.1
				c1.2,0.8,1.9,1.9,1.9,3.5v9.7c0,0.3,0.1,0.5,0.2,0.7c0.1,0.2,0.4,0.3,0.8,0.3c0.1,0,0.3,0,0.4,0c0.2,0,0.3,0,0.5-0.1v2.1
				c-0.4,0.1-0.8,0.2-1,0.2c-0.2,0-0.6,0-1,0c-1,0-1.7-0.3-2.2-1c-0.2-0.4-0.4-0.9-0.5-1.5c-0.6,0.8-1.4,1.4-2.5,2
				c-1.1,0.6-2.3,0.8-3.6,0.8c-1.6,0-2.9-0.5-3.9-1.4c-1-0.9-1.5-2.1-1.5-3.5c0-1.6,0.5-2.8,1.5-3.6c1-0.9,2.3-1.4,3.9-1.6
				L733.6,753.1z M727.5,760.8c0.6,0.5,1.3,0.7,2.2,0.7c1,0,2-0.2,3-0.7c1.6-0.8,2.4-2,2.4-3.7v-2.3c-0.4,0.2-0.8,0.4-1.4,0.6
				c-0.6,0.1-1.1,0.3-1.6,0.3l-1.7,0.2c-1,0.1-1.8,0.3-2.4,0.6c-0.9,0.5-1.3,1.3-1.3,2.3C726.6,759.6,726.9,760.3,727.5,760.8z"/>
		</g>
		<g>
			<path d="M779.7,741.8h2.9v4.7h2.7v2.3h-2.7v10.9c0,0.6,0.2,1,0.6,1.2c0.2,0.1,0.6,0.2,1.1,0.2c0.1,0,0.3,0,0.4,0
				c0.2,0,0.3,0,0.6-0.1v2.2c-0.3,0.1-0.7,0.2-1,0.2c-0.4,0-0.7,0.1-1.2,0.1c-1.3,0-2.3-0.3-2.7-1c-0.5-0.7-0.7-1.5-0.7-2.6v-11.1
				h-2.3v-2.3h2.3V741.8z"/>
		</g>
		<g>
			<path d="M824.8,740.3h2.9v3.2h-2.9V740.3z M824.8,746.6h2.9v16.7h-2.9V746.6z"/>
		</g>
		<g>
			<path d="M881,748.2c1.5,1.4,2.3,3.6,2.3,6.4c0,2.7-0.7,4.9-2,6.7s-3.4,2.6-6.2,2.6c-2.3,0-4.2-0.8-5.6-2.3
				c-1.4-1.6-2.1-3.7-2.1-6.3c0-2.8,0.7-5.1,2.2-6.7c1.5-1.7,3.4-2.5,5.9-2.5C877.6,746,879.5,746.8,881,748.2z M879.2,759.3
				c0.7-1.4,1.1-3,1.1-4.7c0-1.6-0.3-2.8-0.8-3.8c-0.8-1.5-2.2-2.3-4.2-2.3c-1.7,0-3,0.7-3.8,2c-0.8,1.3-1.2,2.9-1.2,4.8
				c0,1.8,0.4,3.3,1.2,4.5c0.8,1.2,2.1,1.8,3.8,1.8C877.2,761.5,878.5,760.8,879.2,759.3z"/>
		</g>
		<g>
			<path d="M923.3,746.5h2.7v2.4c0.8-1,1.7-1.7,2.6-2.1c0.9-0.4,1.9-0.6,3-0.6c2.4,0,4.1,0.8,4.9,2.5c0.5,0.9,0.7,2.2,0.7,3.9v10.8
				h-2.9v-10.6c0-1-0.2-1.8-0.5-2.5c-0.5-1-1.4-1.6-2.8-1.6c-0.7,0-1.2,0.1-1.7,0.2c-0.8,0.2-1.5,0.7-2.1,1.4
				c-0.5,0.6-0.8,1.1-0.9,1.7c-0.1,0.6-0.2,1.4-0.2,2.5v8.8h-2.9V746.5z"/>
		</g>
	</g>
</g>
<g>
	<path d="M1250.9,12.4H164.6C80.5,12.4,12,80.9,12,165.1v1036.8c0,84.2,68.5,152.7,152.7,152.7h1086.3
		c84.2,0,152.7-68.5,152.7-152.7V165.1C1403.6,80.9,1335.1,12.4,1250.9,12.4z M1383.6,1201.9c0,73.1-59.5,132.7-132.7,132.7H164.6
		C91.5,1334.5,32,1275,32,1201.9V165.1C32,91.9,91.5,32.4,164.6,32.4h1086.3c73.1,0,132.7,59.5,132.7,132.7V1201.9z"/>
	<circle cx="266.5" cy="1279.7" r="15.8"/>
	<circle cx="1144.7" cy="1279.7" r="15.8"/>
	<circle cx="925.1" cy="1279.7" r="15.8"/>
	<circle cx="705.6" cy="1279.7" r="15.8"/>
	<circle cx="486.1" cy="1279.7" r="15.8"/>
	<path d="M279,1211.2c-1.4-0.9-3.3-0.6-4.3,0.8c-0.9,1.4-0.6,3.3,0.8,4.3c4.5,3,7.2,8,7.2,13.5c0,8.9-7.3,16.2-16.2,16.2
		s-16.2-7.3-16.2-16.2c0-5.4,2.7-10.4,7.1-13.4c1.4-0.9,1.8-2.9,0.8-4.3c-0.9-1.4-2.9-1.8-4.3-0.8c-6.2,4.2-9.8,11.1-9.8,18.5
		c0,12.3,10,22.3,22.3,22.3s22.3-10,22.3-22.3C288.8,1222.3,285.1,1215.3,279,1211.2z"/>
	<path d="M266.5,1233.2c1.7,0,3.1-1.4,3.1-3.1v-26.3c0-1.7-1.4-3.1-3.1-3.1s-3.1,1.4-3.1,3.1v26.3
		C263.5,1231.9,264.8,1233.2,266.5,1233.2z"/>
	<path d="M517.2,1227.3h-29.6v-3.7h1.5c2.4,0,4.3-1.9,4.3-4.3v-3.4c0-2.4-1.9-4.3-4.3-4.3H483c-2.4,0-4.3,1.9-4.3,4.3v3.4
		c0,2.4,1.9,4.3,4.3,4.3h1.5v3.7h-29.6c-1.7,0-3.1,1.4-3.1,3.1s1.4,3.1,3.1,3.1h12.5v5.8H466c-2.4,0-4.3,1.9-4.3,4.3v3.4
		c0,2.4,1.9,4.3,4.3,4.3h6.1c2.4,0,4.3-1.9,4.3-4.3v-3.4c0-2.4-1.9-4.3-4.3-4.3h-1.5v-5.8h31v5.8H500c-2.4,0-4.3,1.9-4.3,4.3v3.4
		c0,2.4,1.9,4.3,4.3,4.3h6.1c2.4,0,4.3-1.9,4.3-4.3v-3.4c0-2.4-1.9-4.3-4.3-4.3h-1.5v-5.8h12.5c1.7,0,3.1-1.4,3.1-3.1
		S518.9,1227.3,517.2,1227.3z M481.8,1219.3v-3.4c0-0.7,0.5-1.2,1.2-1.2h6.1c0.7,0,1.2,0.5,1.2,1.2v3.4c0,0.7-0.5,1.2-1.2,1.2H483
		C482.3,1220.5,481.8,1220,481.8,1219.3z M473.3,1243.5v3.4c0,0.7-0.5,1.2-1.2,1.2H466c-0.7,0-1.2-0.5-1.2-1.2v-3.4
		c0-0.7,0.5-1.2,1.2-1.2h6.1C472.8,1242.3,473.3,1242.9,473.3,1243.5z M507.4,1243.5v3.4c0,0.7-0.5,1.2-1.2,1.2H500
		c-0.7,0-1.2-0.5-1.2-1.2v-3.4c0-0.7,0.5-1.2,1.2-1.2h6.1C506.8,1242.3,507.4,1242.9,507.4,1243.5z"/>
	<path d="M729.6,1213.3c-6.9-5.3-15.2-8.2-24-8.2s-17.1,2.8-24,8.2c-1,0.8-1.2,2.2-0.4,3.2s2.2,1.2,3.2,0.4
		c6.1-4.7,13.5-7.2,21.2-7.2c7.7,0,15.1,2.5,21.2,7.2c0.4,0.3,0.9,0.5,1.4,0.5c0.7,0,1.4-0.3,1.8-0.9
		C730.8,1215.5,730.6,1214,729.6,1213.3z"/>
	<path d="M723.6,1221.1c-5.2-4-11.5-6.2-18-6.2c-6.6,0-12.8,2.1-18,6.2c-1,0.8-1.2,2.2-0.4,3.2c0.8,1,2.2,1.2,3.2,0.4
		c4.4-3.4,9.7-5.2,15.2-5.2s10.8,1.8,15.2,5.2c0.4,0.3,0.9,0.5,1.4,0.5c0.7,0,1.4-0.3,1.8-0.9
		C724.8,1223.3,724.6,1221.8,723.6,1221.1z"/>
	<path d="M716.2,1232.9c0.7,0,1.4-0.3,1.8-0.9c0.8-1,0.6-2.4-0.4-3.2c-3.5-2.7-7.7-4.1-12-4.1c-4.4,0-8.5,1.4-12,4.1
		c-1,0.8-1.2,2.2-0.4,3.2c0.8,1,2.2,1.2,3.2,0.4c2.7-2.1,5.9-3.2,9.2-3.2c3.4,0,6.6,1.1,9.2,3.2
		C715.2,1232.8,715.7,1232.9,716.2,1232.9z"/>
	<path d="M710.4,1238.2c-2.8-2.2-6.9-2.2-9.7,0c-2,1.5-3.1,3.8-3.1,6.3c0,4.4,3.6,8,8,8s8-3.6,8-8
		C713.6,1242,712.4,1239.7,710.4,1238.2L710.4,1238.2z"/>
	<path d="M956.1,1225.8c0-0.2,0-0.4,0-0.6c0-7.1-5.8-12.9-12.9-12.9c-2.2,0-4.3,0.6-6.2,1.6c-2.3-1.3-5.1-1.8-7.7-1.5
		c-2.8-4.8-8.1-7.9-13.8-7.9c-8.8,0-16,7.1-16,15.9c-8.1,0.8-14.3,7.7-14.3,16c0,8.8,7.2,16,16,16h50.1c7.6,0,13.7-6.2,13.7-13.7
		C965,1232.8,961.4,1227.8,956.1,1225.8z M951.3,1246.2h-50.1c-5.5,0-9.9-4.4-9.9-9.9c0-5.5,4.4-9.9,9.9-9.9c0.4,0,0.8,0,1.3,0.1
		c1,0.1,2-0.2,2.7-1c0.7-0.7,0.9-1.8,0.7-2.8c-0.2-0.8-0.3-1.5-0.3-2.3c0-5.5,4.4-9.9,9.9-9.9c4.1,0,7.8,2.6,9.3,6.4
		c0.6,1.5,2.3,2.4,3.9,1.8c2.3-0.8,4.7-0.3,6.5,1.2c1.1,0.9,2.8,0.9,3.9,0c1.2-1,2.7-1.5,4.3-1.5c3.7,0,6.7,3,6.7,6.7
		c0,0.7-0.1,1.3-0.3,2c-0.3,0.9-0.1,1.8,0.4,2.6s1.3,1.3,2.2,1.4c3.8,0.5,6.6,3.7,6.6,7.5C958.9,1242.8,955.5,1246.2,951.3,1246.2z"
		/>
	<path d="M1137.9,1252.2h13.7c0.7,0,1.4-0.3,1.8-0.9c0.4-0.6,0.6-1.3,0.4-2l-6.9-26.9c-0.3-1-1.2-1.7-2.2-1.7c-1,0-2,0.7-2.2,1.7
		l-6.9,26.9c-0.2,0.7,0,1.4,0.4,2C1136.5,1251.8,1137.1,1252.2,1137.9,1252.2z M1144.7,1232.3l3.9,15.3h-7.8L1144.7,1232.3z"/>
	<path d="M1164.8,1211.3c-0.8,0.3-1.1,1.3-0.8,2c1.2,2.7,1.9,5.6,1.9,8.6c0,2.3-0.4,4.7-1.2,7c-0.3,0.8,0.1,1.7,0.9,2
		c0.2,0.1,0.3,0.1,0.5,0.1c0.6,0,1.2-0.4,1.4-1c0.9-2.6,1.4-5.3,1.4-8c0-3.4-0.7-6.7-2.1-9.9
		C1166.5,1211.3,1165.6,1211,1164.8,1211.3z"/>
	<path d="M1157.5,1214.3c-0.8,0.4-1.1,1.3-0.7,2c0.9,1.8,1.3,3.7,1.3,5.7c0,1.4-0.2,2.8-0.7,4.2c-0.3,0.8,0.2,1.7,1,1.9
		c0.2,0.1,0.3,0.1,0.5,0.1c0.6,0,1.2-0.4,1.5-1.1c0.5-1.7,0.8-3.4,0.8-5.1c0-2.4-0.5-4.8-1.6-7
		C1159.2,1214.2,1158.3,1213.9,1157.5,1214.3z"/>
	<path d="M1150.7,1222c0,0.5-0.1,0.9-0.2,1.5c-0.2,0.8,0.3,1.7,1.1,1.9c0.1,0,0.3,0.1,0.4,0.1c0.7,0,1.3-0.5,1.5-1.1
		c0.2-0.8,0.3-1.6,0.3-2.3c0-1.5-0.4-2.9-1.1-4.3c-0.4-0.7-1.3-1-2.1-0.6c-0.7,0.4-1,1.3-0.6,2.1
		C1150.4,1220.1,1150.7,1221,1150.7,1222z"/>
	<path d="M1124.6,1211.3c-0.8-0.3-1.7,0-2,0.8c-1.4,3.1-2.1,6.5-2.1,9.9c0,2.7,0.5,5.4,1.4,8c0.2,0.6,0.8,1,1.4,1
		c0.2,0,0.3,0,0.5-0.1c0.8-0.3,1.2-1.2,0.9-2c-0.8-2.3-1.2-4.6-1.2-7c0-3,0.6-5.9,1.9-8.6
		C1125.7,1212.6,1125.4,1211.7,1124.6,1211.3z"/>
	<path d="M1130.6,1228.1c0.2,0,0.3,0,0.5-0.1c0.8-0.3,1.2-1.1,1-1.9c-0.4-1.4-0.7-2.8-0.7-4.2c0-2,0.4-3.9,1.3-5.7
		c0.4-0.8,0-1.7-0.7-2c-0.8-0.4-1.7,0-2,0.7c-1,2.2-1.6,4.6-1.6,7c0,1.7,0.3,3.4,0.8,5.1C1129.3,1227.7,1129.9,1228.1,1130.6,1228.1
		z"/>
	<path d="M1137.5,1225.4c0.1,0,0.3,0,0.4-0.1c0.8-0.2,1.3-1.1,1.1-1.9c-0.2-0.6-0.2-1.1-0.2-1.5c0-1,0.3-1.9,0.8-2.8
		c0.4-0.7,0.1-1.7-0.6-2.1c-0.7-0.4-1.7-0.1-2.1,0.6c-0.7,1.4-1.1,2.8-1.1,4.3c0,0.7,0.1,1.5,0.3,2.3
		C1136.2,1225,1136.8,1225.4,1137.5,1225.4z"/>
</g>
</svg>
