<?xml version="1.0" encoding="utf-8"?>
<!-- Generator: Adobe Illustrator 21.0.0, SVG Export Plug-In . SVG Version: 6.00 Build 0)  -->
<svg version="1.1" id="Layer_1" xmlns="http://www.w3.org/2000/svg" xmlns:xlink="http://www.w3.org/1999/xlink" x="0px" y="0px"
	 viewBox="0 0 1417.3 376.6" style="enable-background:new 0 0 1417.3 376.6;" xml:space="preserve">
<g>
	<path d="M82.3,9.8c9.9,42.6,52.9,214.9,65.9,264.2c8.5,32.6-2,65.3-26.6,82.2c-25,17.2-54.3,16.9-79.3-0.7
		c-24-17-34.3-49.1-25.8-81.3C27.8,231.1,70.7,58.8,82.3,9.8z M60.9,242.5c0,35.1,0,70.3,0,105.4c0,6.4,0,13.8,9,13.8
		c9,0.1,9.2-6.7,9.2-13.3c0-16.8-0.4-33.4-0.2-50.2c0-3.3-0.7-8.8,2.9-9.4c2.3-0.4,5.9,3.4,8.2,5.8c9.4,9.8,18.5,19.9,27.8,29.7
		c4.9,5.2,11.1,11.6,17.7,5.2c6.8-6.5-0.4-12.7-4.8-17.6c-15.5-17.2-31.2-34.2-47-51.1c-5-5.4-8.8-11-4.3-15.3
		c4.1-3.9,9.5,2.1,13,5.1c8.7,7.6,16.8,15.9,25.4,23.6c4.7,4.2,9.5,12.4,16.6,4.3c6.5-7.5,0.2-13.1-5.1-18.2
		c-15.3-14.6-30.5-29.3-45.8-43.9c-5-4.8-8.6-9.7-4.5-13.9c3.8-3.9,9.3,1.5,12.5,4.3c6.9,6.1,13,13,19.7,19.2
		c4.4,4.1,9.5,9.1,15.3,2.7c5.5-6,2.6-10.9-3-16.1c-13.8-12.7-26.8-26.2-40.2-39.4c-4.2-4.1-6.6-9.5-2.7-13.7
		c3.9-4.1,6.5,2.3,9.4,4.2c5.3,3.5,11.2,6.7,16.1,1c4.9-5.8,0.8-11.1-4-15.4c-7.4-6.7-14.8-13.4-22.1-20.2c-3.8-3.5-7.3-8-13.4-5.5
		c-6.5,2.8-5.8,8.8-5.8,14.4C60.9,173,60.9,207.8,60.9,242.5z"/>
</g>
<g>
	<path d="M310.1,115.3c0.5,0,1.5,0.1,3.1,0.2v36.4c-2.3-0.2-4.3-0.4-6.1-0.5c-1.8-0.1-3.2-0.1-4.3-0.1c-14.5,0-24.2,4.7-29.1,14
		c-2.8,5.2-4.2,13.3-4.2,24.2v64.9h-36.2V118.5h34.3v23.7c5.6-9.1,10.4-15.2,14.5-18.6c6.7-5.6,15.5-8.3,26.2-8.3
		C309.1,115.2,309.6,115.3,310.1,115.3z"/>
	<path d="M388.7,171.7c6.7-0.8,11.5-1.9,14.4-3.1c5.2-2.2,7.8-5.5,7.8-10.1c0-5.6-2-9.4-5.9-11.5c-4-2.1-9.8-3.2-17.5-3.2
		c-8.6,0-14.7,2.1-18.3,6.2c-2.6,3.1-4.3,7.2-5.1,12.5h-34.7c0.8-11.9,4.1-21.6,10.1-29.3c9.5-12,25.9-17.9,49.2-17.9
		c15.1,0,28.5,2.9,40.3,8.8c11.7,5.9,17.6,17,17.6,33.4v62.3c0,4.3,0.1,9.6,0.3,15.7c0.3,4.7,1,7.8,2.1,9.5c1.2,1.7,2.9,3,5.3,4.1
		v5.2h-39.1c-1.1-2.7-1.9-5.3-2.3-7.7c-0.4-2.4-0.8-5.1-1-8.2c-5,5.3-10.7,9.8-17.3,13.6c-7.8,4.4-16.6,6.6-26.4,6.6
		c-12.5,0-22.9-3.5-31-10.5c-8.2-7-12.2-17-12.2-29.8c0-16.7,6.6-28.8,19.7-36.3c7.2-4.1,17.8-7,31.8-8.7L388.7,171.7z M410.7,188.2
		c-2.3,1.4-4.6,2.6-7,3.4c-2.3,0.9-5.6,1.7-9.7,2.4l-8.2,1.5c-7.7,1.3-13.2,2.9-16.5,4.9c-5.7,3.2-8.5,8.3-8.5,15.1
		c0,6.1,1.7,10.4,5.2,13.1c3.5,2.7,7.7,4,12.6,4c7.9,0,15.1-2.2,21.7-6.7c6.6-4.5,10.1-12.7,10.3-24.5V188.2z"/>
	<path d="M514.9,102.3h-36.5V69.5h36.5V102.3z M478.4,118.5h36.5v135.8h-36.5V118.5z"/>
	<path d="M660.6,126.3c9,7.4,13.5,19.5,13.5,36.6v91.4h-36.8v-82.6c0-7.1-1-12.6-2.9-16.4c-3.5-7-10.2-10.5-20-10.5
		c-12.1,0-20.4,5.1-24.9,15.3c-2.3,5.4-3.5,12.3-3.5,20.7v73.5h-35.9V118.7h34.8v19.8c4.6-7,9-12,13.1-15.1c7.4-5.5,16.7-8.2,28-8.2
		C640,115.2,651.6,118.9,660.6,126.3z"/>
	<path d="M764.4,69c1.8,0.1,4.4,0.3,7.6,0.6v28.9c-2-0.2-5.4-0.4-10.2-0.6c-4.8-0.1-8,0.9-9.8,3.1c-1.8,2.2-2.7,4.6-2.7,7.3
		c0,2.7,0,6.5,0,11.5h23.6v25h-23.6v109.5h-35.7V144.8h-20.2v-25H713V111c0-14.5,2.5-24.5,7.4-30c5.2-8.1,17.8-12.2,37.7-12.2
		C760.5,68.8,762.5,68.8,764.4,69z"/>
	<path d="M908.2,237.7c-11.6,14.1-29.2,21.2-52.9,21.2c-23.6,0-41.2-7.1-52.9-21.2c-11.6-14.1-17.4-31.2-17.4-51.1
		c0-19.6,5.8-36.6,17.4-50.9c11.6-14.4,29.2-21.5,52.9-21.5c23.6,0,41.2,7.2,52.9,21.5s17.4,31.3,17.4,50.9
		C925.6,206.5,919.8,223.5,908.2,237.7z M879.4,218c5.6-7.4,8.5-17.9,8.5-31.5c0-13.6-2.8-24.1-8.5-31.4c-5.6-7.3-13.7-11-24.2-11
		c-10.5,0-18.6,3.7-24.3,11c-5.7,7.3-8.5,17.8-8.5,31.4c0,13.6,2.8,24.1,8.5,31.5c5.7,7.4,13.8,11.1,24.3,11.1
		C865.7,229.1,873.8,225.4,879.4,218z"/>
	<path d="M1027.7,115.3c0.5,0,1.5,0.1,3.1,0.2v36.4c-2.3-0.2-4.3-0.4-6.1-0.5c-1.8-0.1-3.2-0.1-4.3-0.1c-14.5,0-24.2,4.7-29.1,14
		c-2.8,5.2-4.2,13.3-4.2,24.2v64.9h-36.2V118.5h34.3v23.7c5.5-9.1,10.4-15.2,14.5-18.6c6.7-5.6,15.5-8.3,26.2-8.3
		C1026.6,115.2,1027.2,115.3,1027.7,115.3z"/>
	<path d="M1141.4,121.2c9.6,4.2,17.5,10.9,23.8,20.1c5.6,8.1,9.3,17.4,11,28.1c1,6.2,1.4,15.2,1.2,26.9h-100.1
		c0.6,13.6,5.4,23.2,14.4,28.7c5.5,3.4,12.1,5.1,19.8,5.1c8.2,0,14.8-2.1,20-6.2c2.8-2.2,5.3-5.4,7.4-9.3h36.7
		c-1,8.1-5.4,16.2-13.3,24.5c-12.3,13.2-29.6,19.8-51.7,19.8c-18.3,0-34.4-5.6-48.4-16.7c-14-11.1-21-29.3-21-54.4
		c0-23.5,6.3-41.6,18.9-54.1c12.6-12.6,29-18.8,49.2-18.8C1121.1,114.9,1131.8,117,1141.4,121.2z M1087.6,151.9
		c-5.1,5.2-8.3,12.2-9.6,21h61.9c-0.7-9.4-3.8-16.6-9.6-21.5c-5.7-4.9-12.8-7.3-21.3-7.3C1099.9,144.1,1092.7,146.7,1087.6,151.9z"
		/>
	<path d="M1223.4,210.9c0.8,6.3,2.4,10.8,4.9,13.5c4.5,4.7,12.8,7.1,24.8,7.1c7.1,0,12.7-1,16.9-3.1c4.2-2.1,6.3-5.2,6.3-9.3
		c0-4-1.7-7-5.1-9.1c-3.4-2.1-15.9-5.6-37.6-10.7c-15.6-3.8-26.6-8.6-33-14.3c-6.4-5.6-9.6-13.8-9.6-24.4c0-12.5,5-23.3,15-32.3
		c10-9,24-13.5,42.2-13.5c17.2,0,31.2,3.4,42,10.2c10.8,6.8,17,18.5,18.6,35.1H1273c-0.5-4.6-1.8-8.2-3.9-10.8
		c-4-4.8-10.7-7.2-20.2-7.2c-7.8,0-13.4,1.2-16.8,3.6c-3.3,2.4-5,5.2-5,8.5c0,4.1,1.8,7,5.3,8.8c3.5,1.9,16.1,5.2,37.5,9.8
		c14.3,3.3,25.1,8.3,32.2,15.1c7.1,6.8,10.6,15.3,10.6,25.5c0,13.5-5.1,24.4-15.2,32.9c-10.2,8.5-25.8,12.8-47.1,12.8
		c-21.7,0-37.6-4.5-48-13.5c-10.3-9-15.5-20.5-15.5-34.4H1223.4z"/>
	<path d="M1325,145v-25.3h19.2V81.9h35.6v37.9h22.3V145h-22.3v71.8c0,5.6,0.7,9,2.1,10.4c1.4,1.4,5.8,2.1,13.1,2.1
		c1.1,0,2.2,0,3.5-0.1c1.2,0,2.4-0.1,3.6-0.2v26.5l-17,0.6c-17,0.6-28.6-2.3-34.8-8.7c-4-4.1-6.1-10.3-6.1-18.8V145H1325z"/>
</g>
<g>
	<path d="M257.6,326.6c1.6-0.2,2.7-0.8,3.2-1.9c0.3-0.6,0.5-1.5,0.5-2.6c0-2.3-0.8-4-2.5-5c-1.7-1-4.1-1.6-7.2-1.6
		c-3.6,0-6.2,1-7.7,2.9c-0.8,1.1-1.4,2.6-1.6,4.7h-6.5c0.1-5,1.8-8.4,4.9-10.4c3.2-1.9,6.8-2.9,11-2.9c4.8,0,8.8,0.9,11.8,2.7
		c3,1.8,4.5,4.6,4.5,8.4v23.2c0,0.7,0.1,1.3,0.4,1.7c0.3,0.4,0.9,0.6,1.9,0.6c0.3,0,0.7,0,1-0.1c0.4,0,0.8-0.1,1.2-0.2v5
		c-1.1,0.3-1.9,0.5-2.5,0.6c-0.6,0.1-1.3,0.1-2.3,0.1c-2.4,0-4.1-0.8-5.2-2.5c-0.6-0.9-1-2.1-1.2-3.7c-1.4,1.8-3.4,3.4-6.1,4.7
		c-2.6,1.3-5.5,2-8.7,2c-3.8,0-6.9-1.1-9.4-3.4c-2.4-2.3-3.6-5.1-3.6-8.5c0-3.7,1.2-6.6,3.6-8.7c2.4-2.1,5.5-3.3,9.4-3.8
		L257.6,326.6z M243,344.9c1.5,1.1,3.2,1.7,5.2,1.7c2.4,0,4.8-0.6,7.1-1.6c3.8-1.8,5.8-4.8,5.8-9v-5.4c-0.8,0.5-1.9,1-3.3,1.3
		c-1.3,0.4-2.6,0.6-3.9,0.8l-4.2,0.5c-2.5,0.3-4.4,0.8-5.7,1.5c-2.1,1.2-3.2,3-3.2,5.6C240.8,342.2,241.6,343.8,243,344.9z"/>
	<path d="M373.8,310.8v26.7c0,2.1,0.3,3.7,1,5c1.2,2.4,3.4,3.6,6.7,3.6c4.7,0,7.9-2.1,9.6-6.3c0.9-2.3,1.4-5.3,1.4-9.3v-19.7h6.9
		V351h-6.5l0.1-5.9c-0.9,1.5-2,2.8-3.3,3.9c-2.6,2.1-5.7,3.2-9.4,3.2c-5.8,0-9.7-1.9-11.8-5.7c-1.1-2.1-1.7-4.8-1.7-8.2v-27.3H373.8
		z"/>
	<path d="M499.5,299.5h7v11.2h6.6v5.5h-6.6v26.2c0,1.4,0.5,2.3,1.5,2.8c0.5,0.3,1.4,0.4,2.7,0.4c0.3,0,0.7,0,1.1,0
		c0.4,0,0.8-0.1,1.3-0.1v5.4c-0.8,0.2-1.6,0.4-2.5,0.5c-0.9,0.1-1.8,0.1-2.8,0.1c-3.2,0-5.4-0.8-6.6-2.4c-1.2-1.6-1.7-3.7-1.7-6.3
		v-26.6h-5.6v-5.5h5.6V299.5z"/>
	<path d="M637.4,314.8c3.6,3.5,5.5,8.5,5.5,15.2c0,6.5-1.6,11.8-4.8,16.1c-3.2,4.2-8.2,6.3-14.9,6.3c-5.6,0-10.1-1.9-13.4-5.6
		c-3.3-3.7-5-8.8-5-15.1c0-6.8,1.7-12.1,5.2-16.1c3.5-4,8.2-6,14-6C629.3,309.6,633.7,311.3,637.4,314.8z M633.1,341.5
		c1.7-3.4,2.5-7.2,2.5-11.3c0-3.7-0.6-6.8-1.8-9.1c-1.9-3.7-5.2-5.5-10-5.5c-4.2,0-7.2,1.6-9.1,4.7s-2.9,6.9-2.9,11.4
		c0,4.3,1,7.8,2.9,10.7c1.9,2.8,4.9,4.3,9,4.3C628.3,346.6,631.4,344.9,633.1,341.5z"/>
	<path d="M738.8,310.8h6.8v5.7c1.6-2,3.1-3.4,4.5-4.3c2.3-1.5,4.9-2.3,7.8-2.3c3.3,0,5.9,0.8,7.9,2.4c1.1,0.9,2.2,2.2,3.1,4
		c1.5-2.2,3.3-3.7,5.4-4.8c2.1-1,4.4-1.6,7-1.6c5.5,0,9.3,2,11.3,5.9c1.1,2.1,1.6,4.9,1.6,8.5V351H787V323c0-2.7-0.7-4.5-2.1-5.5
		c-1.4-1-3-1.5-5-1.5c-2.7,0-5.1,0.9-7,2.7c-2,1.8-2.9,4.7-2.9,8.9V351h-7v-26.2c0-2.7-0.3-4.7-1-6c-1.1-1.9-3-2.8-5.9-2.8
		c-2.6,0-5,1-7.1,3c-2.1,2-3.2,5.6-3.2,10.7V351h-6.9V310.8z"/>
	<path d="M914,326.6c1.6-0.2,2.7-0.8,3.2-1.9c0.3-0.6,0.5-1.5,0.5-2.6c0-2.3-0.8-4-2.5-5c-1.7-1-4.1-1.6-7.2-1.6
		c-3.6,0-6.2,1-7.7,2.9c-0.8,1.1-1.4,2.6-1.7,4.7h-6.5c0.1-5,1.8-8.4,4.9-10.4c3.2-1.9,6.8-2.9,11-2.9c4.8,0,8.8,0.9,11.8,2.7
		c3,1.8,4.5,4.6,4.5,8.4v23.2c0,0.7,0.1,1.3,0.4,1.7c0.3,0.4,0.9,0.6,1.9,0.6c0.3,0,0.7,0,1-0.1c0.4,0,0.8-0.1,1.2-0.2v5
		c-1.1,0.3-1.9,0.5-2.5,0.6c-0.6,0.1-1.3,0.1-2.3,0.1c-2.4,0-4.1-0.8-5.2-2.5c-0.6-0.9-1-2.1-1.2-3.7c-1.4,1.8-3.4,3.4-6.1,4.7
		c-2.6,1.3-5.5,2-8.7,2c-3.8,0-6.9-1.1-9.4-3.4c-2.4-2.3-3.6-5.1-3.6-8.5c0-3.7,1.2-6.6,3.6-8.7c2.4-2.1,5.5-3.3,9.4-3.8L914,326.6z
		 M899.4,344.9c1.5,1.1,3.2,1.7,5.2,1.7c2.4,0,4.8-0.6,7.1-1.6c3.8-1.8,5.8-4.8,5.8-9v-5.4c-0.8,0.5-1.9,1-3.3,1.3
		c-1.3,0.4-2.6,0.6-3.9,0.8l-4.2,0.5c-2.5,0.3-4.4,0.8-5.7,1.5c-2.1,1.2-3.2,3-3.2,5.6C897.2,342.2,898,343.8,899.4,344.9z"/>
	<path d="M1024.6,299.5h7v11.2h6.6v5.5h-6.6v26.2c0,1.4,0.5,2.3,1.5,2.8c0.5,0.3,1.4,0.4,2.7,0.4c0.3,0,0.7,0,1.1,0
		c0.4,0,0.8-0.1,1.3-0.1v5.4c-0.8,0.2-1.6,0.4-2.5,0.5c-0.9,0.1-1.8,0.1-2.8,0.1c-3.2,0-5.4-0.8-6.6-2.4c-1.2-1.6-1.7-3.7-1.7-6.3
		v-26.6h-5.6v-5.5h5.6V299.5z"/>
	<path d="M1132.6,295.8h7v7.7h-7V295.8z M1132.6,311h7v40h-7V311z"/>
	<path d="M1267.4,314.8c3.6,3.5,5.5,8.5,5.5,15.2c0,6.5-1.6,11.8-4.8,16.1c-3.2,4.2-8.2,6.3-14.9,6.3c-5.6,0-10.1-1.9-13.4-5.6
		c-3.3-3.7-5-8.8-5-15.1c0-6.8,1.7-12.1,5.2-16.1c3.5-4,8.2-6,14-6C1259.3,309.6,1263.8,311.3,1267.4,314.8z M1263.1,341.5
		c1.7-3.4,2.5-7.2,2.5-11.3c0-3.7-0.6-6.8-1.8-9.1c-1.9-3.7-5.2-5.5-10-5.5c-4.2,0-7.2,1.6-9.1,4.7c-1.9,3.2-2.9,6.9-2.9,11.4
		c0,4.3,1,7.8,2.9,10.7c1.9,2.8,4.9,4.3,9.1,4.3C1258.3,346.6,1261.5,344.9,1263.1,341.5z"/>
	<path d="M1368.9,310.8h6.6v5.7c1.9-2.4,4-4,6.2-5.1c2.2-1,4.6-1.5,7.3-1.5c5.8,0,9.8,2,11.8,6c1.1,2.2,1.7,5.3,1.7,9.3V351h-7
		v-25.3c0-2.5-0.4-4.4-1.1-5.9c-1.2-2.5-3.5-3.8-6.7-3.8c-1.6,0-3,0.2-4,0.5c-1.9,0.6-3.6,1.7-5,3.3c-1.2,1.3-1.9,2.7-2.2,4.1
		c-0.3,1.4-0.5,3.4-0.5,6.1V351h-6.9V310.8z"/>
</g>
</svg>
