<svg height="960" viewBox="0 0 960 960" width="960" xmlns="http://www.w3.org/2000/svg"><g><path d="m277.377274 3c-54.789709 0-121.418409 25.6332581-175.422542 66.2186288-58.4698922 43.9414922-94.954732 99.4439342-94.954732 154.5589442v512.446886c0 54.848651 38.7715109 109.982104 100.412012 154.75113 54.875614 39.85574 121.332729 66.024411 169.965262 66.024411h1.418139 1.431451l2.913352-.02676 1.203784-.01224 1.217848.023516c4.346883.059848 8.713955-.053735 13.095676-.341661l1.425476-.101855 2.035343-.085106c10.963103-.490044 21.529898-1.302299 31.998242-2.422279l1.864415-.204615 430.733062-32.562866c103.165684-7.799276 186.285938-98.786589 186.285938-203.617864v-475.294655c0-104.832838-83.119937-195.8204491-186.285969-203.619751l-466.412686-35.26057247-1.550104-.10995821c-4.647763-.30799799-9.27226-.41910946-13.865108-.33342169l-1.051133.02408837.437984.00690742c-2.297401-.04048564-4.595556-.06090742-6.89571-.06090742zm0 40c2.064195 0 4.12743.0183342 6.190925.0546979.305536.0053843.611155.0037653.916616-.0048555 4.217424-.1190259 8.487814-.0164554 12.801154.309631l466.412686 35.2605725c82.173566 6.2122817 149.301345 79.6940051 149.301345 163.7335691v475.294655c0 84.03794-67.128034 157.519422-149.301345 163.731684l-431.060566 32.588638c-.235329.017791-.470325.039746-.704877.065855-10.29655 1.14614-20.663572 1.96931-31.459971 2.455019l-2.612749.11284-.574523.03822c-3.701177.279808-7.38058.395787-11.034012.349621l-1.368812-.024909c-.231507-.005502-.463093-.006983-.694651-.004443l-2.781669.024972c-1.369279.014233-2.70872.014233-4.029551.014233-39.196182 0-97.884582-23.109602-146.459151-58.388941-52.3259968-38.003972-83.918123-82.928272-83.918123-122.3866v-512.446886c0-40.435932 29.6037027-85.470467 78.985897-122.582342 47.501296-35.6983363 105.977626-58.195231 151.391377-58.195231z"/><path d="m121.119631 206.593322v545.81552c0 113.92058 79.709403 201.121578 178.648334 193.646355l466.694226-35.260572c97.972517-7.402207 177.141551-94.01205 177.141551-193.646355v-475.294655c0-99.635884-79.168733-186.2460104-177.141551-193.6482396l-466.694226-35.2605725c-98.939239-7.47524615-178.648334 79.7261254-178.648334 193.6485191zm177.141551-173.7053598 466.694226 35.2605725c87.478656 6.6093543 158.648334 84.4685623 158.648334 173.7050803v475.294655c0 89.234909-71.169948 167.093861-158.648334 173.703195l-466.694226 35.260573c-86.511971 6.536317-157.141551-70.731479-157.141551-173.703196v-545.81552c0-102.973561 70.629316-180.2416972 157.141551-173.7053598z"/><path d="m290 479.5c0 157.069395 116.826393 277.07214 261.176166 267.289314 146.199453-9.908181 239.819131-112.291073 239.819131-267.289314s-93.619678-257.381133-239.819131-267.289314c-144.349773-9.782826-261.176166 110.219919-261.176166 267.289314zm259.823834-247.335087c135.606948 9.19031 221.171463 102.76404 221.171463 247.335087s-85.564515 238.144777-221.171463 247.335087c-132.344593 8.969214-239.823834-101.432243-239.823834-247.335087s107.479241-256.304301 239.823834-247.335087z"/><path d="m291.305905 599.339382c24.555935 62.425299 68.631538 112.568947 124.341122 141.80595 4.890298 2.566483 6.774123 8.611397 4.207641 13.501695-2.566483 4.890298-8.611397 6.774123-13.501695 4.207641-60.026828-31.502741-107.370355-85.364219-133.658878-152.19405-2.021704-5.139509.505777-10.94482 5.645287-12.966523 5.139509-2.021704 10.94482.505777 12.966523 5.645287zm400.909927-379.871386c59.658415 36.470713 101.347258 93.948063 120.458591 167.001087 1.397787 5.343037-1.80047 10.807553-7.143506 12.20534-5.343037 1.397787-10.807553-1.80047-12.20534-7.143506-17.822665-68.127097-56.36745-121.269662-111.541409-154.998913-4.712096-2.880624-6.196797-9.03574-3.316172-13.747836 2.880624-4.712096 9.03574-6.196797 13.747836-3.316172z"/><path d="m270.98641 638.613152c23.892896 48.944337 58.913884 89.925623 101.655233 119.130223 4.560008 3.115793 5.730776 9.33826 2.614982 13.898268-3.115793 4.560008-9.33826 5.730776-13.898268 2.614982-45.637079-31.183213-82.947299-74.84334-108.344767-126.869777-2.422789-4.963057-.363495-10.950469 4.599562-13.373258s10.950469-.363495 13.373258 4.599562zm462.011851-434.614456c43.739981 32.790134 77.126469 76.932849 98.297384 130.314709 2.03605 5.133843-.475207 10.94619-5.60905 12.98224s-10.94619-.475207-12.98224-5.60905c-19.823241-49.983739-50.942954-91.129384-91.702616-121.685291-4.418998-3.312748-5.315791-9.580567-2.003043-13.999565s9.580567-5.315791 13.999565-2.003043z"/></g></svg>