<svg height="960" viewBox="0 0 960 960" width="960" xmlns="http://www.w3.org/2000/svg"><path d="m507.258275 163.654626c5.843659.166569 11.603369 1.273183 16.591319 3.484357 3.687851 1.634835 7.005878 3.869152 9.783117 6.995977 4.00244 4.506249 6.301281 10.3413 6.079339 16.696873-.013074.374411-.023412.670457-.033154.949408l-.006429.184108-.003192.091415-.006428.184074c-.031379.898576-.068902 1.973085-.18415 5.273365-.080391 2.302089-.132071 3.782004-.180486 5.168442l-.014452.413855c-.081629 2.337549-.161179 4.615543-.363668 10.414071-.299831 8.586043-.491304 14.06913-.67321 19.278217l-.02943.842762c-.004896.140209-.009789.28033-.014681.420418l-.029354.840583c-.004895.140181-.009793.280441-.014696.420836l-.030192.864603-.009873.282713-.019828.567816-.019964.571668c-.270534 7.74708-.585412 16.764012-1.251739 35.845117-1.03271 29.572969-1.729745 49.533418-2.36916 67.843867l-.048457 1.387623c-.048355 1.38471-.096418 2.761065-.144311 4.132553l-.047842 1.369995c-.023897.684315-.047761 1.367705-.071608 2.050605l-.164461 4.709539-.062584 1.79217c-.91507 26.204165-1.875941 53.719906-3.738096 107.045045l35.758976-.990066c1.600967-.044465 3.203167-.003429 4.799758.122934l310.565382 24.579694c18.620318 1.473705 34.694743 13.615379 41.203954 31.123041l19.189351 51.613112c2.6423 7.106928 3.445993 14.766286 2.336457 22.266892l-7.403137 50.046141c-3.020168 20.416718-19.54188 36.161647-40.080277 38.195866l-618.084324 61.217981c-17.67845 1.750957-35.515855-.886041-51.931463-7.677305l-183.1636185-75.776204c-16.8248904-6.960587-27.7972007-23.374136-27.7972007-41.582011v-95.076916l.2237489-4.513177c2.2198642-22.270312 20.6923647-39.835276 43.5269152-40.469477l16.8475886-.469838c-1.9896531-56.976205-2.9823998-85.404749-3.9343901-112.666183l-.06468-1.852191-.1114168-3.190562-.0239708-.686434-.0479785-1.373923-.0480503-1.37598c-.0160318-.45909-.03208-.918653-.0481494-1.378818l-.0482757-1.382436c-.016116-.461501-.0322576-.923735-.0484293-1.386833l-.04861-1.39201c-.6494609-18.598126-1.3544009-38.784967-2.4053839-68.88118-.6984909-20.002162-1.0125709-28.996237-1.2927241-37.018774l-.0199579-.571522c-.0033183-.095023-.006633-.189943-.0099446-.284776l-.0302596-.86652-.0150977-.432341-.0301943-.864652c-.1913859-5.480575-.3877456-11.103582-.7044549-20.172948-.2034056-5.824775-.2833149-8.113079-.3653073-10.461033l-.0145164-.415696c-.0486305-1.392596-.1005379-2.879029-.1812827-5.191257-.1237243-3.543002-.1582521-4.531747-.1913744-5.480248l-.0064169-.183754c-.010744-.307668-.0219312-.628027-.0365084-1.045464-.2219415-6.355573 2.0768997-12.190624 6.0793396-16.696873 2.7772385-3.126825 6.0952662-5.361142 9.7831165-6.995977 4.98795-2.211174 10.7476603-3.317788 16.5913189-3.484357 5.7771245-.164672 11.5515695.59515 16.6100735 2.448132 3.707739 1.358184 7.095833 3.299069 10.038821 6.12463 4.35908 4.185152 7.140573 9.846217 7.365362 16.28333.167953 4.809533 3.932399 98.003616 11.269422 278.982509l67.00525-1.860819c1.012301-180.389836 1.519935-273.285827 1.519935-278.088256 0-6.441037 2.582231-12.195726 6.792596-16.530458 2.842584-2.926549 6.160878-4.984494 9.818959-6.471249 4.990754-2.028392 10.735164-2.989277 16.514516-3.026324 5.845912-.037473 11.640734.867456 16.702814 2.903205 3.742659 1.505135 7.136642 3.622295 10.021313 6.65029 4.157268 4.363821 6.658349 10.11509 6.658349 16.47454l-.000064 276.205589 58.99138-1.645299c.989073-176.281207 1.489322-267.806623 1.49997-274.391091l.000167-.169203c0-6.441037 2.582231-12.195726 6.792596-16.530458 2.842584-2.926549 6.160878-4.984494 9.818959-6.471249 4.990754-2.028392 10.735164-2.989277 16.514516-3.026324 5.845912-.037473 11.640734.867456 16.702814 2.903205 3.742659 1.505135 7.136642 3.622295 10.021313 6.65029 4.157268 4.363821 6.658349 10.11509 6.658349 16.47454l-.000064 272.677589 55.83224-1.556425c7.215346-177.979682 10.947523-270.370286 11.189243-276.985508l.006738-.187881-.000665.018787c.224789-6.437113 3.006282-12.098178 7.365362-16.28333 2.942988-2.825561 6.331081-4.766446 10.038821-6.12463 5.058504-1.852982 10.832949-2.612804 16.610073-2.448132zm395.895188 431.848119-626.197 45.415-9.08 61.559.572454-.001456c2.02443-.018667 4.051534-.127781 6.07533-.328227l618.084324-61.217981c2.282044-.226025 4.11779-1.975461 4.453364-4.243985zm-847.5790002-68.34v89.754031c0 2.023097 1.2191456 3.846825 3.0885778 4.620223l183.1636184 75.776204c2.055568.850404 4.146543 1.597351 6.265097 2.239684l9.999573-67.791523-13.27509-67.905198zm333.5935552 121.742876c.082538 1.089363.045819 2.184484-.109504 3.265872l-3.916326 27.266237c-.918483 6.39466-6.093276 11.330517-12.524185 11.945905l-63.144942 6.042478c-7.696827.736526-14.53341-4.905912-15.269937-12.602739-.071173-.743772-.08269-1.492049-.034441-2.237659l1.578372-24.391182c.643533-9.944767 8.51015-17.898416 18.447235-18.651325l58.883333-4.46145c8.260594-.625886 15.464509 5.563269 16.090395 13.823863zm-20.792166 6.589704-19.086389 1.44542-1.034565 12.099423c-.160065 1.870446-1.596383 3.368189-3.438666 3.621453l-.198901.022333-29.686368 2.591536c-.101936.008899-.204405.009962-.306503.003179l.058003.001076-.100519 1.566126 51.434209-4.921852zm515.298474-117.73758-618.294863 27.046 10.969 56.106 624.675-45.304-14.300394-38.462769c-.953534.354275-1.977773.56792-3.048743.614769zm-316.624224-34.986529-21.242639.587529-65.344189 1.8156-94.246811 2.618692-.001-.001292-284.687 7.908 152.549 29.579 547.711-23.958-234.205054-18.535869c-.1774-.014041-.355422-.0186-.533307-.01366zm-480.6169439-305.637373c.177326 5.077953 3.4214119 97.976418 9.7322576 278.695395l28.0234003-.781202c-7.33878-181.023017-11.0932-273.96946-11.26326-278.839328-.274589-7.863203-26.7788477-7.277714-26.4923979.925135zm146.2748219-2.589691c0 4.8591-.505486 97.369923-1.516459 277.532471l28.023942-.771878.001064-276.760593c0-8.207849-26.508547-7.867996-26.508547 0zm127 0-.000176.188002c-.010724 6.634423-.509559 97.907614-1.496505 273.819572l28.004164-.773981.001064-273.233593c0-8.207849-26.508547-7.867996-26.508547 0zm133.523855-5.335444-.006737.187881c-.243225 6.656527-3.955701 98.561122-11.137429 275.713785l28.061396-.779576c6.207597-177.762322 9.39932-269.161306 9.575169-274.196955.28645-8.202849-26.21781-8.788338-26.492399-.925135z"/></svg>