<svg height="960" viewBox="0 0 960 960" width="960" xmlns="http://www.w3.org/2000/svg"><path d="m541.513652 8c1.514744 0 3.010262.08432263 4.48204.24858185l.605902.07241815.633437.02078052c74.901817 2.62766578 133.485874 20.26547798 177.370525 49.92751938l1.352572.9212133c18.275508 12.5422697 33.312749 26.7695215 45.471879 42.1873548 9.330733 11.831414 16.294473 23.423565 21.832153 35.136018 14.044862 29.705542 27.713845 99.689869 33.514873 174.465941 1.636163 21.090365 2.208246 69.563813 2.222681 156.655264v22.604958c0 .7557-.007978 1.513391-.009195 2.296312-.078007 93.355315-.981463 145.420495-3.430952 172.586261-6.287798 69.734086-19.219255 133.479987-32.414311 161.388149-5.734631 12.129015-12.99414 24.121613-22.786886 36.335245-12.793377 15.956055-28.676974 30.58626-48.030388 43.345457-47.583054 31.370258-111.897143 48.808527-194.928638 48.808527-12.678602 0-24.871716-.333276-36.594753-.994398l-15.781997-.000602-.910464.056968c-9.737206.578732-19.746908.891489-30.033257.938032h-2.378685c-83.810223 0-146.322293-14.488258-192.469826-42.244134-19.948471-11.998199-36.423992-26.20377-50.388475-42.639398-10.605528-12.482273-18.621904-24.595178-27.91418-40.867779-27.858442-48.785604-40.243113-138.223892-40.243113-256.36903v-182.679423c0-118.171163 12.387396-207.629132 40.251282-256.424268 8.578583-15.022785 15.95086-26.313495 25.4905-37.9635074 12.543551-15.3184531 27.141448-28.7541398 44.655936-40.3927328 39.073668-25.9649343 90.733671-41.6006272 158.467355-46.08155495l.416927-.02617285.041214-.01153216c3.040446-.79567742 6.22146-1.24244899 9.497422-1.30046784zm-14.326975 40c-168.382411 0-211.315843 62.187847-236.100322 105.573126-24.78448 43.38528-34.988076 133.112813-34.988076 236.503415v182.613389c0 103.366462 10.201214 193.073046 34.979907 236.448197 24.778692 43.37515 67.702101 105.548478 236.045199 105.548478s216.240632-77.320625 229.592134-105.548478c9.597716-20.29157 22.335154-76.838965 28.738777-147.829433 2.504536-27.765252 3.201167-87.269473 3.269459-168.966431.005179-3.039608.007251-6.060195.00808-9.060318l.000552-18.228854c-.020665-71.939342-.432599-129.560455-2.102377-151.075592-5.963582-76.840927-19.638904-138.926811-29.797583-160.404373-13.354619-28.234445-61.263339-105.573126-229.64575-105.573126zm-150.014046 3.5507733-3.001835.3659641c-113.240696 14.3019365-147.42886 64.7959896-168.499355 101.6945646-24.783609 43.400968-34.986847 133.160946-34.986847 236.588934v182.679423c0 103.40384 10.200856 193.142862 34.978679 236.533697 21.321038 37.337325 56.076695 88.598623 172.613863 102.174967-12.070778-4.727872-23.153904-10.158607-33.318303-16.269658-18.042549-10.84756-32.866722-23.624233-45.457227-38.436869-9.66206-11.367341-17.057205-22.537121-25.789509-37.823036-25.585887-44.788146-37.613818-131.615719-37.613818-246.36883v-182.613389c0-114.779126 12.030656-201.626373 37.621987-246.424048 8.734212-15.289255 16.130939-26.461425 25.795034-37.831161 12.593125-14.8157167 27.420374-27.5950407 45.466691-38.4448665 9.847041-5.9202484 20.556164-11.2021409 32.19064-15.8256922zm199.603707 459.5269217c66.439185 23.001499 103.3909 99.254349 82.994222 170.38602-20.475015 71.404863-91.57609 112.624856-158.92613 91.62765-67.234864-20.961299-104.257177-97.359834-83.289416-170.483109 21.046098-73.396466 92.293434-114.701252 159.221324-91.530561zm-139.99609 97.043308c-18.073383 63.029379 13.541856 128.26998 70.016849 145.876757 56.359817 17.570868 116.293516-17.174973 133.748229-78.046792 17.533049-61.14501-14.152788-126.531296-70.312043-145.973844-55.67055-19.273357-115.457988 15.387692-133.453035 78.143879zm139.99609-417.043308c66.439185 23.001499 103.3909 99.254349 82.994222 170.38602-20.475015 71.404863-91.57609 112.624856-158.92613 91.62765-67.234864-20.961299-104.257177-97.359834-83.289416-170.483109 21.046098-73.396466 92.293434-114.701252 159.221324-91.530561zm-139.99609 97.043308c-18.073383 63.029379 13.541856 128.26998 70.016849 145.876757 56.359817 17.570868 116.293516-17.174973 133.748229-78.046792 17.533049-61.14501-14.152788-126.531296-70.312043-145.973844-55.67055-19.273357-115.457988 15.387692-133.453035 78.143879zm102.219752-192.121003c7.179702 0 13 5.820298 13 13v34c0 7.179702-5.820298 13-13 13s-13-5.820298-13-13v-34c0-7.179702 5.820298-13 13-13z"/></svg>