<svg height="960" viewBox="0 0 960 960" width="960" xmlns="http://www.w3.org/2000/svg"><g fill-rule="evenodd"><g fill-rule="nonzero"><path d="m479.5 2.5c-263.439218 0-477 213.560782-477 477s213.560782 477 477 477 477-213.560782 477-477-213.560782-477-477-477zm0 40c241.347828 0 437 195.652172 437 437s-195.652172 437-437 437-437-195.652172-437-437 195.652172-437 437-437z"/><path d="m505.351 10.355-85.593 10.147.67794-.0453937c-187.820635 11.2919664-350.0810268 178.4351307-384.9133758 398.3579267-39.76131914 251.043089 99.3145398 482.982533 312.7843128 516.792824l2.126113.329776c11.341397 1.721999 22.71641 2.85512 34.102076 3.402669l1.254934.055198 64.814 8.251-.767875-.152764c4.61089.937296 9.248391 1.775525 13.911071 2.514021 213.639416 33.837159 418.456851-150.397319 459.468886-409.33712 41.012036-258.939801-96.849336-497.4492708-310.488751-531.2864301-35.420154-5.61000115-71.142892-5.28230409-106.416907.8041634zm101.118952 38.5362405c189.777037 30.0577298 315.050163 246.7886845 277.238597 485.5215175-37.811566 238.732832-223.926937 406.144695-413.703974 376.086965-4.090153-.647816-8.157251-1.382945-12.200266-2.204804-.483133-.098211-.969733-.178524-1.458801-.240774l-66.317765-8.441139c-.562002-.071534-1.12679-.119155-1.692835-.142736-11.273274-.469632-22.538495-1.591448-33.770652-3.370447-189.946679-30.084598-316.0608332-240.407562-279.5341582-471.027911 31.7256002-200.307558 176.9127152-351.5399459 342.7740152-364.3419266l5.032333-.3454744c.385674-.0231872.770596-.0575455 1.15428-.1030316l86.612079-10.2679554c.381281-.0452012.76118-.1013725 1.139227-.1684441 31.432698-5.5766635 63.209945-5.9457962 94.72792-.9538394z"/><path d="m177.161833 426.247015c-39.444156 249.040598 92.707156 477.671279 296.451596 509.941228s400.078572-144.333749 439.522727-393.374347c39.444156-249.040598-92.707155-477.6712787-296.451595-509.9412278-203.74444-32.26994913-400.078572 144.3337488-439.522728 393.3743468zm436.394038-373.62058c191.813251 30.3802344 317.67044 248.121658 279.826519 487.058772s-224.827021 407.129504-416.640272 376.749269c-191.813251-30.380234-317.670439-248.121658-279.826518-487.058772s224.827021-407.1295034 416.640271-376.749269z"/></g><path d="m559.554786 338.064523c17.82691 1.12342 32.665957 16.232962 33.331187 33.803008l.015811.53316 3.093469 144.608924c18.619382 10.719258 30.42227 29.615984 30.983864 50.19832.899854 32.979445-27.394636 61.543024-63.077465 63.67243-35.68283 2.129406-64.795527-24.423526-64.901652-59.189803-.065094-21.478275 10.932088-41.638281 28.895654-53.401882l.545334-.35132-1.261194-148.732215c-.155228-18.305883 14.368011-32.27539 32.374992-31.140622zm-.310972 10.972102c-11.839733-.688645-21.39282 8.416153-21.463849 20.364468l.000833.370437 1.622926 155.117537-2.904474 1.65227c-16.422673 9.390602-26.592162 26.909893-26.49925 45.624564.143148 28.507888 24.024907 50.37684 53.236236 48.748781s52.42634-25.163727 51.749325-52.464113c-.439954-17.740947-10.897604-33.94786-27.293939-42.524534l-.502954-.262025-2.951081-1.521577-1.68862-88.939892-10.013252-.210378c-3.09635-.065055-5.644671-2.591151-5.693299-5.643646-.047412-2.976184 2.294098-5.340693 5.275081-5.3832l.230537.00134 9.992492.257277-.284855-15.003364-9.964122-.321369c-3.081158-.099375-5.617203-2.655491-5.665796-5.705776-.047412-2.976184 2.282395-5.314257 5.248712-5.323631l.229404.003902 9.943362.368267-.284897-15.00556-9.914988-.432368c-3.065964-.133699-5.589664-2.715417-5.638291-5.767912-.047378-2.974029 2.270693-5.287711 5.222341-5.264053l.228269.006459 9.894228.479266-.007004-.368881c-.226033-11.905201-10.141284-22.156543-22.103075-22.852289zm2.21527 108.963375c5.299853.061095 9.682489 4.228785 9.917091 9.366789l.008582.276159 1.112672 67.457913c16.58302 3.701863 29.120753 17.614115 29.494125 34.549376.442411 20.066736-16.550166 37.213499-37.953126 38.297501-21.407613 1.084238-38.880977-14.832788-39.037359-35.550343-.128657-17.044434 11.372444-31.663821 27.198141-36.546835l.480495-.1441-.868924-68.207187c-.067621-5.307995 4.251547-9.560154 9.648303-9.499273z"/></g></svg>