<svg height="960" viewBox="0 0 960 960" width="960" xmlns="http://www.w3.org/2000/svg"><path d="m544.114771 4.08277107c11.024729.23846635 20.57324 1.2186496 29.676807 3.17440299 10.791017 2.31827433 27.870918 6.12189464 42.814317 9.59949014 23.112738 5.3787464 39.005763 9.4239999 47.364696 12.3617154 3.230774 1.1354432 5.648527 2.0460816 8.492045 3.2636961 4.027487 1.7245986 7.920475 3.6826828 11.789522 6.0081092 9.691963 5.8251943 18.388736 13.4708992 25.836673 23.2621946 16.487121 21.6744954 25.269425 51.7648345 26.275721 91.5521665.817751 32.332585 2.646431 162.926173 4.714255 331.097926 1.863568 151.559967 3.364117 288.871181 3.364117 309.422452 0 13.076478-1.196574 24.515632-3.687749 34.597569-2.714049 10.983927-7.021544 20.57029-13.107824 28.674099-6.137221 8.171638-13.719668 14.347632-22.299744 18.59153-3.291943 1.628269-6.585777 2.905861-9.955696 3.931839-.013818.056554-.029994.11145-.046239.166302-1.338749 4.520411-3.13135 8.778946-5.856407 13.03353-2.103745 3.284538-4.661104 6.375149-7.844402 9.195021-4.270911 3.783316-9.363771 6.785918-15.19594 8.632311-.181432.059441-2.92223.940144-4.34874 1.389898-2.775086.874938-5.488392 1.701091-8.223952 2.492353-1.681489.486371-3.325953.946025-4.933114 1.376691-3.617476.969365-6.980599 1.776073-10.144952 2.402929-4.826709.956166-9.124612 1.514957-13.711462 1.514957-8.587958 0-16.991178-2.355802-24.361742-6.932814-4.161517-2.584241-7.746675-5.703616-10.789719-9.231968-21.893155 4.968011-47.492304 10.781403-76.793154 17.439328-4.297803 16.934762-17.970382 30.189732-35.475932 33.710479l-26.340844 5.297717c-20.449568 4.112853-41.106938-6.049119-50.329532-24.758586l-3.190825-6.473088c-1.693373-1.253348-3.42003-2.613749-5.205189-4.089869-4.021106-3.324988-25.29018-21.197635-44.714966-37.581504-25.038117-21.118441-42.766731-36.168243-48.007262-40.807599-5.250054-4.647787-9.39988-8.806957-12.770465-13.056608-1.527348-1.925687-2.920564-3.888346-4.17623-5.990482-.922488-.836985-1.952007-1.768101-3.085994-2.790969-3.734538-3.368593-5.193832-4.706596-7.1052-6.56603-3.195207-3.108391-5.845202-6.016953-8.321426-9.352266-7.272243-9.79524-10.975299-20.924103-10.975299-33.26343 0-3.316936 1.733632-54.416206 5.659172-167.483556 3.752783-108.091404 9.379699-268.903529 16.881176-482.448391l-.000001-6.362212c0-2.416855.162684-4.854669.590176-7.500807.587992-3.639625 1.628778-7.26764 3.214691-10.842486 3.235672-7.2936077 8.13033-13.0885999 14.044519-17.5441753 3.628394-2.733525 7.263721-4.724268 11.3646-6.527768 1.666091-.7327198 3.417982-1.4351642 5.362292-2.1579059-.932382-3.6854963-1.462646-7.5310902-1.462646-11.6070376 0-11.2359432 4.127319-21.8767614 11.551175-30.1953837 3.015365-3.378794 6.401512-6.195485 10.065264-8.5433841 2.925552-1.874827 5.972916-3.4157249 9.153338-4.7046756 4.88386-1.9793146 10.062233-3.3623821 15.762406-4.3734944 4.682781-.8306445 9.825144-1.4232173 15.557387-1.8255249 8.228203-.5774823 32.241426-2.0218358 69.13324-4.18147331.668821-.0391526 1.341567-.07852191 2.018278-.11811051 18.895269-1.1054004 68.434986-3.98014153 67.91136-3.94956776l5.076936-.28199174c11.496348-.60320454 20.612431-.82239721 28.788484-.64554811zm-69.392847 904.73463793-36.381837 8.718764c-.46532.111491-.926594.207223-1.383592.287699l-.082843-.161303c1.202947 2.440366 3.897387 3.76584 6.564722 3.229381l26.340843-5.297717c2.572292-.517344 4.510084-2.646063 4.78414-5.255511zm183.262256-839.0060475-218.040323 15.2093228c-1.053319.4414993-2.200744.7086973-3.408004.7640306-5.158972.236455-9.584301.4198183-13.287455.5500315.936122.3105546 1.675908.5467108 2.220124.7083333 17.239698 5.119885 28.37159 28.9246913 33.395676 71.4144193l-7.536129 699.095642c-1.377598 13.164773-3.075531 22.064904-5.093798 26.700392-2.018268 4.635488-6.203032 9.246532-12.554292 13.833131l42.494491-10.181692c129.334442-29.01298 197.184058-44.191455 203.548847-45.535425 9.547184-2.015956 24.719607-6.587101 24.719607-48.544623s-6.274387-568.687876-8.065585-639.509027l-.006415-.208488-.055156-1.885222c-.1895-5.644653-.558383-10.903077-1.083803-15.80342-.120581-1.124536-.249278-2.229205-.385927-3.315391-.154801-1.230418-.319687-2.436298-.494364-3.618985-.158638-1.074181-.325682-2.131182-.500533-3.169349-.371715-2.207084-.778846-4.32966-1.21839-6.370631l-.306689-1.387844c-.9166-4.043639-1.962492-7.758291-3.113897-11.173255-.245623-.728456-.495518-1.441822-.749964-2.141889-.614093-1.689621-1.255005-3.302481-1.919226-4.84179-.267635-.6202122-.538594-1.2274852-.813114-1.8231165-.358823-.7785527-.723871-1.537495-1.094538-2.2771112l-.436631-.8573673c-1.540682-2.9772091-3.173127-5.6319844-4.864745-8.0044839l-.477352-.6599259c-.77864-1.0610619-1.569018-2.0638629-2.368017-3.0122452-.348058-.413135-.697833-.8160326-1.048987-1.2089166-.612108-.6848667-1.22884-1.3397432-1.848399-1.9658369-.358646-.3624313-.718356-.7153288-1.078748-1.0589025-.623171-.5940985-1.248673-1.1605704-1.87484-1.7008344-.357935-.3088338-.716298-.6092761-1.074622-.9014618-.630213-.5139004-1.260666-1.0025279-1.889592-1.4673148-.536618-.3965596-1.071669-.7754561-1.60474-1.1380977-.240174-.1633873-.479954-.3234808-.719254-.4803725l-.493785-.3196809c-.029294-.0187268-.05858-.0374063-.087858-.0560387-.356939-.2271535-.712505-.4472219-1.066583-.6606291-1.582709-.9539177-3.135633-1.7747236-4.635024-2.4917559l-.038513-.0184006c-.118932-.0567688-.237525-.1128855-.355767-.1683647-.181818-.084062-.397198-.1837822-.645241-.2979041zm-38.682714 806.5099115.121253.186876c1.505192 2.210536 3.393187 3.315804 5.663984 3.315804 7.153012 0 26.184929-6.328751 29.289178-7.311348 1.113996-.352617 2.039518-1.903815 2.776566-4.653596-9.911672 2.212554-22.533022 5.034047-37.850981 8.462264zm-303.318195-753.674067v3.499329c-15.026898 427.768864-22.540347 644.178774-22.540347 649.229729 0 7.576432 3.84664 11.048713 13.193494 19.479675 6.231235 5.620641 9.516559 8.656993 9.855969 9.109054 31.579798 25.983107 52.168364 43.086477 61.765698 51.310111 7.965521 6.825387 14.243883 10.499807 18.98621 6.825387 6.391336-4.952096 10.677592-13.362862 10.677592-35.249362 0-14.590999-.385825-45.534384-1.157474-92.830153-2.150404-317.111982-3.56431-492.564966-4.241717-526.35895-.664656-33.157865-8.103725-53.362109-22.317207-60.612733-42.814812-16.858351-64.222218-24.99238-64.222218-24.402087zm41.214801-46.2168202 45.966786 13.467659c-.27444-1.6039787-.3578-3.2384375-.255451-4.86119l-1.534327-.2579981c-.388894-.0654638-.773575-.1538753-1.152028-.2647711l-48.207607-14.1258408c1.702606 2.6067055 3.783723 4.9262246 5.182627 6.042141zm155.382838-31.488085c-24.36404 1.4225736-120.857666 6.9742166-138.593995 8.2190103-2.657563.1865165-5.077533.4179613-7.271445.6943438l38.56342 11.2989615 8.396789 1.4134594c1.56839-.0100576 3.622044-.0539222 6.152579-.1314541.540408-.0792091 1.093195-.137961 1.657998-.1773551l177.620815-12.3893499c-14.804058-3.3885097-28.247169-6.3299067-33.717146-7.5050423-12.99244-2.7912144-28.444974-2.8451472-52.809015-1.4225736z"/></svg>