<svg height="960" viewBox="0 0 960 960" width="960" xmlns="http://www.w3.org/2000/svg"><g fill="none"><g fill="#000"><path d="m484.813799 3.00122326h-6.765562-5.025731l-5.002472.02256226-6.630465.03067777-6.581152.04303262-6.527293.05525533-8.076445.08605605-7.976295.10468947-6.302958.09699422-4.678687.08038383-4.634958.08686887-6.108601.12581667-6.022897.13711441-5.932645.14828001-7.281959.20085032-5.712944.17291947-6.992939.23123155-5.470214.19688998-4.027261.15452519-3.960502.16034129-3.891823.16610165-3.821225.17180624-4.981831.23785248-4.453967.22624128-4.064649.2171884-4.892571.27712944-3.764927.22684805-3.633664.23198036-3.5036.23762904-2.543066.18223937-2.471083.18592507-2.399607.18982862-2.328636.19395003-2.258171.19828927-2.18821.20284638-1.42019.13787022-2.072733.21092565-1.343673.14345811-1.313328.14580623-1.283134.1482189-1.868412.22699329-1.801317.23278488-1.734726.2387943-1.66864.24502157-1.075963.1669149c-.176907.0280615-.352605.0562449-.527098.0845518l-1.032524.1713327-1.003752.1743585c-.164902.0293156-.328612.0587598-.491133.0883342l-.960874.1790184-.932476.1822056-.904229.1854574-.87613.1887738-.848182.1921546c-.139043.0323111-.276928.0647658-.413657.0973653l-.80654.197347-.778966.2008893c-.255076.0675606-.505582.1357224-.751541.204496l-.724267.2081674-.697143.2119033-.670167.2157038c-.21891.0725418-.433349.1457278-.643342.2195687l-.616666.2234983c-.100563.0375808-.200021.075328-.298377.1132429l-.209609.0812747-.423332.1549803c-1.224885.4699049-2.443595 1.0838664-3.644298 1.854187l-.37637.2498327-.055165.0338751c-3.448485 2.0932723-6.213852 5.1997958-7.88284 8.9065937l-.207995.4795312-.019533.0425465c-1.240343 2.7890283-1.704407 5.6528896-1.538683 8.4341795l.011216.158274.001 419.088.002945.346659c.03921 2.306382.468942 4.518088 1.22607 6.571619l.066985.177722.140398.418517c.031806.092423.063915.184229.096579.276378l.230211.620888.177707.448324.343621.808622.13125.292934.222138.473287.115805.237485.321288.627872c.082709.160859.167596.320588.254638.479144l.278118.494701.293087.496245-.021302-.045025c.144654.248771.294661.494392.449915.73669.175809.274376.356761.546874.544941.819246l.475426.671585.295008.397616.304021.395454.534883.668058.384984.457475c9.768631 11.371817 31.470679 19.247799 63.772698 24.905811l2.505656.430878c1.684345.284365 3.396477.562983 5.136215.836026l2.630289.405406c.441825.066878.88537.133413 1.330632.199608l2.692151.393106 2.733225.385067 2.774162.377159c.465764.062207.933228.124091 1.40239.185653l2.835316.365537c.951879.120574 1.910526.239883 2.875916.35795l2.916382.350494 1.415252.164809.151129.062978c2.720531 1.108098 5.883366 2.132934 9.461445 3.077332l1.208035.311824 1.238572.305889c.20896.050488.419184.10073.630667.150726l1.283957.297029c.216498.049015.434244.097784.653235.14631l1.328844.288223c.22395.047549.449136.094855.675552.141919l1.373227.279468c.23132.046093.463861.091945.697619.137555l1.417111.270766 1.446087.264993 1.474842.259244 1.503373.253518c.252927.041777.507034.083317.762316.124619l1.545753.244972 1.573727.239305c.264607.039413.53037.078591.797285.117534l1.615272.230846 1.64269.225237 1.669885.219649 1.696857.214087 1.723608.208546 1.750134.203029 1.776438.197536 1.80252.192065 2.21082.223801v5.56902l.003277.512443c.148514 11.599442 5.340575 22.103252 14.769472 29.063556l.226251.164981.001 54.195-.353436.059001c-7.170122 1.198555-13.580578 2.671136-19.00979 4.394246-5.849273 1.856428-10.766719 4.045069-14.833625 6.849583l-.360078.251356c-6.327626 4.471397-10.853492 10.576268-11.586789 18.693621l-.024282.285193-2.400716 10.846353-2.71222 12.156674-2.628934 11.684092-2.231949 9.835755-1.555159 6.803848-2.420456 10.501751-1.760553 7.565728-1.994585 8.490089-2.201156 9.258934-1.595975 6.633267-1.548897 6.366658-1.501793 6.099963-1.215494 4.879517-1.182751 4.694203-1.376061 5.388361-1.121966 4.329628-1.103993 4.198659-.857271 3.21436-.627757 2.32625-1.017171 3.715731-.592771 2.132431-.769807 2.729811-.746212 2.599915-.544105 1.864519-.704645 2.371902-.343363 1.136961-.668738 2.175762-.325346 1.038728-.476699 1.496552-.489168 1.501709c-.054806.166191-.109237.330529-.163288.493009l-.319712.952495-.461983 1.34419-.440194 1.241526-.280975.769982-.270719.723354-.260232.676326c-.042486.10878-.084525.215584-.126113.320403l-.361979.889566-.258703.604104-.124391.276934-.171853.175946-.378236.371211-.409896.385522-.441432.399608c-.076193.067762-.153694.136102-.232502.205015l-.488499.420313-.51972.433834-.550815.44713c-.094387.075617-.190064.151779-.287029.22848l-.597222.46665-.628002.47938-.658657.491886-.689187.504166-.719589.516219-.749867.528047-.780018.53965-.810044.551026-.839944.562176-.869718.573102-.899367.583801-.928889.594274-.958286.604522-.987557.614544-1.535943.940113-1.060184.638611-1.089015.647843-.718529.421931-.0206.008732c-12.937525 4.734038-23.501497 10.155444-31.453871 16.406249l-.466008.369634c-10.65737 8.530654-17.107521 19.066854-17.107521 31.489855v31.66453l.002907.344489c.007742.458391.030905.913027.068994 1.363411l.013099.1481.01096.154021c1.008864 13.963358 9.873672 25.352731 23.850315 34.476494 9.493069 6.196947 21.809094 11.625816 36.55937 16.282811l1.937722.603056c1.300975.399119 2.620229.7924 3.957506 1.179841l2.019401.576781c.338809.0954.678737.190435 1.019779.285105 10.951748 3.040095 22.983163 5.681363 35.85269 7.889492l2.585009.43584c6.057428 1.003438 12.293871 1.91205 18.684781 2.722349l2.748347.341241c2.29805.279335 4.615356.546066 6.950799.800035l2.811165.298627c1.409863.14624 2.826095.287863 4.248454.424834l2.852814.26773c1.907227.174339 3.825059.340367 5.752925.498004l2.899251.23015c6.297704.484981 12.698356.880895 19.182303 1.184952l2.998434.133801c.500701.02121 1.001876.041873 1.503518.06199l3.015372.114119c8.055521.28675 16.225765.432727 24.474085.432727 5.646566 0 11.25658-.068409 16.818284-.203561l3.028794-.080328c7.055679-.20283 14.02964-.513281 20.897644-.927918l2.936873-.184071c1.465122-.095214 2.92522-.19519 4.380055-.299894l2.902582-.215701 2.888124-.228248c2.400627-.195418 4.785753-.403843 7.154271-.625119l2.834181-.27169c.942023-.092613 1.881318-.187271 2.817814-.283966l2.801024-.296183c.465415-.050379.930112-.101264 1.394083-.152654l2.775044-.314395c.461031-.053407.921319-.107316 1.380854-.161726l2.748109-.332473c.912979-.112823 1.822876-.227642 2.729622-.344448l2.710712-.356364 2.691378-.368221 2.671619-.380016 2.651437-.391752c6.603011-.994 13.012836-2.09746 19.199663-3.306154l2.462767-.48908c8.169107-1.648909 15.934707-3.4839 23.226129-5.494956.693004-.191138 1.381442-.383778 2.065281-.577919l2.037685-.586924c16.865168-4.928547 30.834813-10.794726 41.383421-17.587418l.502329-.325831c13.837166-9.041032 22.633799-20.272847 23.784341-34.104826l.03288-.437164.018891-.189638c.049077-.570907.074109-1.148381.074109-1.731362v-31.66453c0-13.106271-7.135241-24.057678-18.838286-32.829752l-.572422-.424648c-8.264756-6.068415-19.109254-11.354734-32.2818-15.963395l-.716492-.248675-1.468897-.88961-1.035551-.636924-1.005101-.626738-.974514-.616296-1.404117-.904297-.89744-.589057-.866369-.577711-.835159-.566106-.80381-.554242-.772325-.542122-.7407-.529742c-.120806-.087245-.24029-.173963-.358447-.260149l-.693003-.51069-.661033-.497665-.628924-.484383-.596677-.470842-.564291-.457043-.531768-.442987-.499106-.428672-.466305-.414098c-.074976-.067788-.14858-.134958-.220809-.201504l-.416846-.391755c-.066716-.064032-.13205-.127429-.196001-.190187l-.349807-.35118-.126213-.283366-.30402-.71334-.239686-.588271-.266152-.675821-.277459-.726973-.288544-.777725-.299403-.828078-.310039-.878029-.484513-1.409828-.507185-1.519969-.529105-1.628758-.485467-1.529457-.499321-1.604976-.513128-1.680376-.526888-1.755657-.358881-1.212204-1.113077-3.836697-.772275-2.724187-.999152-3.591929-1.036515-3.798859-1.073664-4.00524-1.110597-4.211076-.914925-3.516695-.898908-3.493743-1.146963-4.509275-1.179131-4.691333-1.704804-6.873635-1.511395-6.175527-1.557648-6.437448-1.875682-7.841286-1.378276-5.819046-1.983462-8.451944-2.343734-10.095326-2.11803-9.214733-2.180768-9.570497-2.569082-11.373177-2.65092-11.837488-3.080038-13.871932-.85695-3.880099-.043443-.322257c-1.103864-7.560409-5.588571-13.300141-11.698203-17.540547-4.041945-2.805323-8.925279-4.993807-14.732025-6.85086l-.6649-.20984c-5.134716-1.599202-11.121252-2.977982-17.779706-4.117506l-.612723-.10399-.001-54.984.075512-.055501c9.26165-6.982232 14.924488-17.342657 14.924488-28.980085l-.001-5.566414 1.585933-.159254 1.840086-.193036 1.813167-.198681 1.786028-.204354 1.758672-.210059c.290821-.035487.580492-.071213.86901-.107178l1.717229-.218673c.567772-.073853 1.130894-.148669 1.689329-.224453l1.661209-.230264 1.632872-.236105c.269772-.039839.538354-.079923.805741-.120252l1.589957-.244923c.262593-.041313.523981-.082872.784162-.124679l1.546552-.25381c.25533-.042797.509444-.085844.762336-.129139l1.502656-.262765 1.47312-.268772 1.443365-.274811c.238069-.046307.474889-.092866.710456-.139679l1.398325-.283925 1.368024-.290039 1.337508-.296183c.220362-.049878.439444-.100013.657241-.150405l1.291322-.305457c1.91374-.462842 3.722643-.946678 5.423397-1.451967l1.117778-.340042c1.836139-.572052 3.537853-1.170716 5.100598-1.796625l.512927-.20947 1.657016-.195283 2.4371-.295742c.404048-.049818.807023-.099899 1.20892-.150241l2.398387-.305196 2.372185-.311445 2.345668-.317653c.388717-.053457.776317-.107171 1.162792-.161141l2.305303-.326885 2.278-.332988 2.250383-.33905 2.22245-.345068 2.194203-.351046 2.165642-.356981 2.136767-.362874 2.107575-.368726c.697626-.123879 1.390333-.248726 2.078071-.374535l2.048251-.380303c.338873-.063862.67649-.127963 1.012845-.192302l2.002932-.388876c.66256-.130571 1.32002-.262087 1.972326-.394539l1.941405-.40016 1.910169-.40574c.315742-.068086.630168-.136402.943274-.204948l1.862727-.41403c.61559-.138925 1.225842-.278762 1.830706-.419504l1.798369-.424937c4.158225-.997825 8.049802-2.039673 11.656748-3.12315 9.125784-2.741261 16.610722-5.788153 22.497645-9.337647l.453577-.276253c7.363137-4.530206 12.809384-10.138607 15.242143-17.66436l.174421-.565397.036091-.09893c.72423-2.06919 1.117909-4.29338 1.117909-6.60907v-83.551318-.392817c-.134431-6.668501-3.583818-12.844448-9.215333-16.450311l-9.278667-5.941554v-211.133l10.453744-7.798275c5.059777-3.774998 8.040256-9.717273 8.040256-16.030113v-78.702612-.3446552c-.118809-6.8593133-3.687759-12.8773777-9.04596-16.3915293l-.37704-.2408155-.278809-.1857994c-1.639294-1.0683325-3.376916-1.873517-5.28159-2.589085-1.898016-.7130669-3.945997-1.2854527-6.271194-1.8012796-.481045-.1067163-.978615-.2118502-1.492895-.3154991l-1.050899-.2053466c-.357764-.067808-.723011-.1349848-1.095796-.2015593l-1.141025-.197945c-.387917-.0653985-.783429-.1302234-1.186589-.1945036l-1.232485-.1912351-1.278715-.18813945-1.325278-.18521673-1.372173-.18246692-1.419404-.17988999-1.466966-.17748596-1.23739-.14367654-1.92072-.21311839-1.997558-.21020424-2.781531-.27566445-2.173682-.20323637-2.247807-.20017808-2.321117-.19707653-2.393612-.19393173-2.465294-.1907437-3.397157-.24929102-1.74522-.12245929-1.775993-.12098472-3.643339-.2374945-2.811489-.17415484-3.852416-.22683619-3.969235-.22060478-5.603819-.29092465-6.122168-.29303857-5.038805-.22353658-5.159495-.21371566-3.946212-.15376563-5.360253-.19622451-5.469001-.18605554-5.573405-.17576-4.245958-.12498742-4.300409-.1190716-4.353031-.11310237-4.403818-.10707976-4.452774-.10100376-7.525106-.15469232-6.108632-.11132893-6.182637-.10014744-6.252298-.08883939-7.906718-.09495447-6.393157-.06293351-6.448705-.05121413-4.870368-.0306436-4.897339-.02392686-6.568571-.02972292zm-8.3769 40.00025904h8.298026l6.441887.0118112 6.401081.0235008 6.356052.0350635 7.875307.0598964 6.239291.060616 7.715992.0914357 4.582095.0631212 7.551938.1187968 2.989525.0522306 5.922574.1124516 4.390435.0912678 4.344316.0971476 4.296415.1029738 4.246733.1087467 5.581945.1538829 6.842334.2064586 6.684526.2218995 6.518469.2370928 6.34416.2520382 6.161603.266736 3.605902.1669935 3.535429.172142 4.398879.2266664 4.664473.256916 3.604179.2113894 2.627285.1618305 1.714859.1094071 4.156692.2786612 3.188766.2280182 2.310366.1738544 2.97034.2354373 3.532618.2998588 2.679006.2440994 2.545733.2476324 1.820434.1879258 1.17076.1262864 1.691115.1908726.560561.0653586v52.719l-10.451924 7.798887c-5.059777 3.774997-8.040256 9.717273-8.040256 16.030113v232.107486l.003845.392817c.130586 6.668501 3.579973 12.844447 9.211488 16.45031l9.276847 5.939387v64.799l-.328736.154596c-.600756.278974-1.251408.563543-1.950448.852435l-.861979.348665c-.442506.175289-.902215.351951-1.378801.529711l-.975579.356904-1.020007.359346c-.173671.060067-.349169.120216-.526483.180435l-1.085563.362092-1.128543.363311c-.383281.121253-.773628.242628-1.170946.364043l-.601193.182143c-.419466.126002-.844759.25156-1.27582.376663l-1.310432.373925c-.44254.124177-.890791.247885-1.344694.371112l-1.37861.368224c-.232575.061125-.466549.122128-.701914.183005l-1.42883.363748c-.722705.181111-1.457801.361068-2.205094.539828l-1.510789.355911-1.542963.352644-1.57479.3493-1.606268.345881-1.637397.342386-1.66818.338815-1.698614.335169-1.728699.331446c-.290604.054927-.582448.109695-.875523.164304l-1.773175.325721c-.297973.053963-.597164.107763-.897565.161398l-1.816867.319825c-.305212.052971-.61162.105774-.919216.158407l-1.859777.313759-2.842376.462852-1.929552.303269-1.956852.29894c-.328397.049458-.657918.098733-.988555.147822l-1.99715.292305-2.023581.287787-2.049662.283193c-.343765.046812-.688602.093429-1.034504.13985l-2.088133.27616-2.113345.271377-2.138209.266517-2.162725.261583-2.186892.256572-2.210711.251486c-2.436549.27289-4.800646.991285-6.974925 2.117858l-.462969.247643c-.054875.030286-.115838.061639-.182799.094009l-.21878.100114-.254209.105921-.446542.16912-.523161.180513-.390424.126176-.646732.197271-.718397.205986-.788204.213698-.856151.220405-1.24402.302572-1.00747.232151-1.069224.235511-.746205.158378-1.168017.238881-1.224814.239562-.847179.159592-1.315348.238469-1.367191.236474-1.22937.203347-1.558084.246648-1.601611.241712-1.644247.236661-1.685993.231495-1.726849.226212-1.766813.220814-1.805888.215301-1.844071.209671-1.881364.203927-1.917767.198067-1.953279.19209-1.987901.185999-2.021632.179792-2.054472.173469-2.086422.167031-2.117482.160476-2.14765.153807c-.360407.025072-.722033.049862-1.084861.074366l-2.191234.143586-.346339.024974c-10.364375.836413-18.384692 9.496571-18.385442 19.933339l-.001726 21.585047-.13114.049355-.303981.100293-.163545.049204c-8.533635 2.48874-14.400562 10.311165-14.400491 19.200302l.000671 84.66695c.000082 10.334108 7.873133 18.966467 18.163584 19.915353l.783178.073453 1.549386.152713 1.526104.160289 1.502032.167665 1.477172.174844 1.451523.181821c.479478.061749.954549.124627 1.425083.188602l1.397856.195182 1.36984.201564c.225928.034114.450655.068487.674166.103113l1.326335.210763 1.296346.216647c.213514.036587.425746.073411.63668.110468l1.249882.225101 1.21792.230487 1.185169.235674 1.151629.240664c.567298.121546 1.121722.244887 1.66283.369913l1.064327.252265c.348769.084814.691488.170344 1.028025.256556l.990934.26065c.324042.087543.641771.175735.953055.264544l.914386.268238c.298263.090007.589949.180596.874928.271735l.701116.229592 2.163691 9.749597 2.965149 13.262835 2.552688 11.316503 1.863284 8.195539 2.416113 10.538415 1.760914 7.612181 1.998998 8.565058 1.665966 7.070863 1.622178 6.821146 2.094831 8.706543 1.520096 6.238768 1.476383 5.989304 1.432694 5.739918 1.160554 4.592817 1.130242 4.419728 1.20721 4.660369.746931 2.853711.970925 3.671208.94356 3.520794.917488 3.373036.892711 3.227932.654051 2.327321.428965 1.507584.633248 2.196263.621494 2.119122.610287 2.043099.4009 1.320385.396324 1.287428.391908 1.254801.579938 1.821753.570914 1.750212.375865 1.127615.372258 1.096648.368814 1.066012.365531 1.03571.362409 1.005738.35945.976098.356652.94679c.059218.155375.118326.309542.177328.462508l.352758.903451.350366.874972.348134.846826.346063.81901.344156.791528.342409.764377.340824.737557.339402.71107.33814.684915c.056261.111991.112476.222906.168648.332752l.336552.646303.335695.620977c.055886.101404.111744.201767.167576.301095l.334713.58361c.055743.095217.111468.189414.167177.282597l.334094.54699.333885.52299.333837.499324c.166933.2438.333909.47885.501019.705335l.310221.410261.334178.422584c.106803.134349.215332.267317.325559.398872 4.530438 5.407046 11.124525 10.839897 19.976276 16.660606l1.311517.854622c.44256.285825.890514.572614 1.343886.860411l1.376389.866454c.232114.144926.465589.290115.700426.435571l1.425397.875989 1.458239.882661 1.491215.889586c.251292.148855.503963.298009.758016.447468 1.201789.707007 2.474217 1.286401 3.796527 1.728727l.699993.235776 1.377774.473793 1.347926.47658 1.317799.47913c.651321.240163 1.29124.481192 1.9196.722953l1.241262.48446c.612878.242678 1.214094.485999 1.803488.729828l1.162984.488297 1.131184.489415c5.204226 2.286171 9.360575 4.601049 12.341588 6.835482.992517.743946 1.796128 1.437605 2.41021 2.059997l.231068.240225.186888.205221v28.108c-1.029896 1.335086-3.053865 3.091576-6.067663 5.032288-3.558554 2.291502-8.074398 4.57311-13.445196 6.782832l-1.254546.508631c-.211604.08455-.424462.168986-.638567.253306l-1.299552.504486-1.329205.50151-1.358582.498366c-.457725.165579-.920299.330606-1.387677.495052l-1.416493.491569c-.238468.081628-.478125.163104-.718965.244425l-1.459194.486026c-.24555.080683-.492271.161204-.740158.241559l-1.501265.480103-1.528964.475942c-.25712.078968-.515382.157755-.774781.236358l-1.569987.469385c-1.05569.311414-2.129378.619772-3.220694.924848l-1.807321.497878-1.992562.532528-2.020865.523337c-8.478637 2.161325-17.683172 4.08148-27.474451 5.73772l-2.361102.392419-2.383205.382215c-.798038.125696-1.599688.24968-2.404881.37194l-2.426129.361597c-.406102.0594-.813071.118366-1.220899.176897l-2.457201.34595c-.411227.056784-.823295.113129-1.236195.169035l-2.48731.330145c-.416192.054141-.833198.107839-1.251009.161093l-2.516458.314185-2.535356.303455-2.553825.292658-2.571868.28179c-.860249.092111-1.723434.182399-2.589484.270852l-2.60667.259844-2.623431.248767c-.438611.040534-.877903.080604-1.317867.120207l-2.647769.23202c-.442614.037734-.885882.074999-1.329795.111794l-2.671146.215115c-.446457.034908-.893542.069342-1.341244.103302l-2.693561.198053c-2.700836.192334-5.423287.367475-8.165426.525108l-2.748632.151786-2.761331.140045c-.461256.022358-.923024.044225-1.385294.065597l-2.779578.122302c-.464244.019393-.928973.038289-1.394177.056687l-2.796863.104401c-.467072.016401-.934601.0323-1.402579.047698l-2.813187.086343c-.469739.013383-.939908.02626-1.4105.03863l-2.828549.068129-2.838254.055899c-3.790621.066347-7.605987.099893-11.441537.099893-2.888684 0-5.765906-.019029-8.629716-.056768l-2.859268-.043964c-.475776-.008363-.951161-.017242-1.426146-.026637l-2.845046-.06254c-2.366755-.05725-4.723068-.127308-7.067814-.209989l-2.808069-.105264c-5.137683-.204049-10.21719-.468836-15.226516-.792392l-2.725327-.182302-2.710974-.193887-2.696187-.205402-2.680967-.216845c-.445536-.03709-.890419-.074655-1.334641-.112692l-2.657327-.233877c-1.324624-.119761-2.643134-.243747-3.955288-.371918l-2.61576-.26191c-.869046-.089155-1.735195-.180159-2.598374-.272998l-2.580558-.284016c-.428584-.048251-.856407-.096957-1.283461-.146118l-2.553019-.300409-2.534119-.311249c-.420754-.052775-.840703-.105998-1.259837-.159668l-2.504956-.327376c-.41584-.055453-.830847-.111351-1.245012-.167691l-2.47482-.343344c-.821526-.116211-1.639613-.234181-2.454188-.353899l-2.433123-.364385c-1.211223-.184802-2.414384-.373509-3.609239-.566082l-2.378565-.390286c-2.367347-.395417-4.700823-.806189-6.998478-1.231996l-2.285644-.430808c-8.71531-1.670548-16.894723-3.560468-24.428476-5.651762l-1.636299-.460395c-.270484-.07714-.539848-.15448-.808086-.232018l-1.595868-.467566c-.791131-.234939-1.572022-.471589-2.342513-.709852l-1.527071-.478648c-1.00874-.320495-1.998806-.643742-2.969819-.969509l-1.442183-.490513c-.237967-.082057-.474731-.164265-.710286-.246619l-1.398787-.495858c-.692095-.24878-1.373209-.498814-2.043183-.750005l-1.325045-.503896c-.873398-.336921-1.726803-.675782-2.559837-1.016352l-1.234226-.512108c-5.07856-2.138882-9.354045-4.339988-12.734504-6.546705l-.378947-.249917c-2.613167-1.741334-4.397738-3.309986-5.3589-4.521624l-.074531-.095941v-28.114l.100409-.110642c.087262-.095515.182616-.195918.286177-.300944l.335413-.328681c.420302-.399021.942522-.851423 1.571531-1.345843 1.875415-1.474132 4.293182-2.997958 7.214428-4.534156l.93919-.485483c.318611-.161936.642756-.323965.97239-.486045l1.005318-.486344c1.021691-.486408 2.092367-.972874 3.210803-1.458223l1.134311-.484934c.57507-.242237 1.161978-.484097 1.760571-.725433l1.212721-.481929c.204702-.080191.41069-.160313.61796-.24036l1.258951-.479343c.212373-.079727.426016-.159369.640923-.23892l1.304568-.47617c.219942-.079165.441136-.158229.663578-.237185 1.148034-.407499 2.256436-.919035 3.311384-1.528232l1.545813-.898509 1.512847-.891291 1.480013-.884308c.24394-.146816.486517-.293351.727734-.439609l1.431008-.874276 1.398502-.867881 1.366128-.861723 1.333884-.855799 1.301773-.850111c.214293-.141224.427254-.282221.638885-.422996l1.253851-.842021c7.840273-5.316399 13.768244-10.325981 17.934067-15.297861.301105-.359368.600317-.741352.898173-1.147032l.356809-.49826c.237484-.339848.474238-.695139.710536-1.066425l.354138-.568995c.176933-.290565.353686-.590283.530377-.899387l.35333-.630793c.058886-.107241.117773-.215542.176666-.324912l.353464-.669115c.058934-.11368.117882-.228446.176849-.344307l.354061-.708371.354717-.735061.355579-.762164c.059347-.129309.118738-.259765.178178-.391376l.357258-.803599.358636-.831739.360219-.860295.36201-.889266.364004-.918651.366207-.948451c.06123-.160581.122559-.322422.183994-.48553l.369896-.993929.560004-1.548843.377076-1.071799.57174-1.667593.385544-1.152262.585409-1.790232.395301-1.235318.601009-1.916758.611298-1.994542.413592-1.373599.629991-2.12729.642135-2.208807.654975-2.291723.66851-2.376039.68274-2.461754.93366-3.418094.961846-3.576285 1.244455-4.697867.511556-1.951259 1.456472-5.612435 1.127855-4.408987 1.158071-4.581539 1.429587-5.72568 1.47314-5.974299 1.260901-5.168556 1.553044-6.430301 1.867013-7.816527 1.369948-5.790668 1.683963-7.177049 2.313242-9.956858 2.390959-10.399836 2.155883-9.463381 2.215463-9.8028 1.946416-8.672644 2.663393-11.951709 1.253577-5.661757.648073-.209872c.289215-.091791.585196-.18301.887808-.273624l.927595-.269993c.157871-.044685.317365-.089211.478467-.133573l.985771-.264174 1.023551-.260045c.173695-.042985.348931-.08579.525691-.128411l1.078714-.253475c.365578-.083731.737118-.166691 1.114486-.248846l1.149454-.244015 1.18362-.238987 1.216982-.233757 1.24954-.228327c.210926-.037591.423174-.074948.636729-.112066l1.296874-.219808c.218713-.036146.4387-.072045.659943-.107693l1.342399-.210839 1.371744-.20461 1.400288-.198181 1.428028-.191551c.240272-.031362.481666-.062439.724166-.093227l1.468131-.181233 1.493864-.174103 1.518793-.166774 1.542918-.159245c.259119-.025902.519209-.051482.780255-.076736l1.577601-.147576c10.306108-.931465 18.199774-9.570762 18.199741-19.918878l-.000276-84.345119-.003438-.3727c-.164764-8.928596-6.236749-16.670799-14.868798-18.95875l-.128714-.033812.000272-21.894153c-.00032-10.553066-8.199986-19.289984-18.731815-19.959146l-2.167864-.142004c-.358988-.024228-.716801-.048736-1.073422-.073521l-2.125285-.152012-2.09582-.158546-2.065495-.164967-2.034307-.171278-2.002258-.177478-1.969347-.183565c-.325434-.031095-.649461-.06244-.972063-.094031l-1.918364-.192488-1.883299-.198298c-.310913-.033528-.620329-.067293-.92823-.101293l-1.829084-.206804-1.791864-.212335-1.753782-.217755-1.714839-.223064-1.675032-.228261-1.634366-.233347c-.268957-.039309-.536184-.078825-.801663-.118546l-1.571748-.240768c-.258413-.040532-.515042-.081264-.769869-.122194l-.759057-.123381c-.476176-.078332-.944628-.157183-1.405201-.236505l-1.357925-.239334c-.666988-.120326-1.315899-.241605-1.946209-.363678l-1.235664-.245154-1.185133-.246982c-1.352816-.289101-2.600563-.581353-3.736594-.874712l-.7867-.208182-.614061-.170131-.842462-.245821-.507294-.156043-.462274-.148507-.606107-.206252-.343942-.124911-.294294-.113572-.243327-.101144-.191036-.087631-.135275-.071513c-2.257751-1.219069-4.728988-1.992308-7.278931-2.277546l-2.278287-.258984-2.253265-.264431-2.227859-.269798c-.369172-.04541-.737269-.09104-1.104283-.136889l-2.189037-.277705-2.162678-.28288-2.135937-.287977-2.108815-.292996c-.349188-.049246-.69723-.098699-1.044118-.148355l-2.067418-.300379-2.039341-.305204c-.33753-.051265-.673874-.102728-1.009024-.154387l-1.996513-.312296-1.967483-.316927-1.938073-.32148c-.32054-.053955-.639838-.108096-.957888-.162423l-1.89324-.328165c-.313021-.055059-.624776-.1103-.935258-.165722l-1.84755-.334674-1.816614-.338917-1.785295-.343083-1.753595-.347171-1.721513-.35118-1.68905-.355113-1.656206-.358968c-.273276-.060145-.545167-.120447-.815667-.180905l-1.606223-.364604-1.572424-.368266-1.538245-.371848c-1.014018-.249076-2.004996-.500489-2.972424-.754136l-.721147-.190652c-.456066-.121582-.905736-.243416-1.348936-.365458l-1.310112-.366708-1.270832-.367695-1.231098-.368416-1.190908-.368873-1.150264-.369067-1.109164-.368997c-.18141-.061479-.361089-.122944-.539028-.184389l-1.046662-.368395c-.170936-.061345-.340113-.122661-.50752-.18394l-.983137-.367199c-1.122045-.427792-2.156463-.853283-3.100003-1.274583l-.739089-.337866-.227747-.108046v-396.252l1.003842-.1165572 1.50142-.1677576 2.014011-.2131816 1.923948-.1925887 2.003069-.1904416 2.081118-.1882119 2.894383-.2473385 3.028692-.2430329 3.16046-.238532 3.289688-.2338358 3.416376-.2289443 3.540523-.2238575 4.596366-.2723708 3.810566-.211698 3.926456-.2059763 4.581574-.2260552 4.888716-.2256716 3.748508-.1629572 3.816698-.1574983 3.883024-.1519837 5.277317-.1939705 5.387498-.1839359 5.493261-.1737693 5.594606-.1634708 4.259803-.1157652 4.312461-.1098424 4.363254-.1038639 2.936134-.0658937 5.935297-.1236758 6.015656-.1127503 6.091595-.101693 4.615874-.068934 6.213858-.082025 4.702498-.0540314 6.322591-.0619529 7.981552-.0610411 6.442507-.035552 6.488625-.0236038z"/><path d="m524.738063 478.622783h-88.725785c-5.522847 0-10 4.477153-10 10v18.681028c0 6.682703 3.313567 12.930149 9.493735 17.151357 6.042468 4.127154 14.498738 6.167615 25.38625 6.167615h38.707797c9.492806 0 17.670807-1.903158 23.845254-5.554824 6.944217-4.106919 11.292749-10.462067 11.292749-17.764148v-18.681028c0-5.522847-4.477153-10-10-10zm-10.000063 19.999217v8.101l-.083711.091968c-.280722.292051-.737645.652454-1.390025 1.038282-2.834892 1.6766-7.531301 2.769533-13.664204 2.769533h-38.707797c-.342326 0-.678832-.002529-1.009542-.007515l-.974774-.022259c-3.031898-.093379-5.543162-.402074-7.556019-.864715l-.619098-.151143c-1.606885-.416312-2.861988-.937213-3.778584-1.526055l-.420546-.286032-.273293-.198531-.115143-.091522-.072745-.066-.039987-.046599c-.00447-.00649-.007977-.012426-.010721-.017937l-.008921-.028975-.00089-8.6935z"/><path d="m510 522h-59c-5.522847 0-10 4.477153-10 10v90l.003839.279806c.120033 4.368996 3.042399 8.038258 7.034542 9.274354l.198619.05784.041578.023307c4.039941 2.194498 9.847397 3.679766 16.78563 4.521096l1.236003.141799c.207913.022524.416772.044493.626561.065911l1.269759.121895c.213443.019216.427782.037884.643003.056004l1.301766.102171c.437359.031877.878113.061579 1.322131.08912l1.34172.07615c2.477301.127768 5.049438.190547 7.694849.190547l1.368751-.005669 1.423381-.018224c.707728-.012269 1.409415-.029281 2.104623-.051083l1.381643-.050002c.457581-.018804.912151-.039751 1.363581-.062852l1.344737-.075785c9.567889-.589648 17.623781-2.181717 22.873048-4.908961l.402236-.215424.199619-.05784c4.077083-1.262396 7.038381-5.062598 7.038381-9.55416v-90c0-5.522847-4.477153-10-10-10zm-10.001 20v73.147l-.021901.005901c-.826961.20027-1.759884.393964-2.782699.574554-4.588072.810078-10.455215 1.272545-16.6944 1.272545s-12.106328-.462467-16.6944-1.272545l-.432799-.078179c-.683523-.126309-1.323698-.258341-1.915345-.393992l-.458456-.109284v-73.146z"/></g><path d="m584.588318 478.243186 1.150455 1.635987c-4.262857 2.997719-14.511078 5.637006-28.79967 7.690147l-2.068503.289294c-.349262.047543-.700761.094747-1.054472.14161l-2.148597.277056c-.362453.045484-.727065.090621-1.09381.135407l-2.225855.264485c-.750344.086742-1.509009.172057-2.275786.255919l-2.324457.247207c-1.174186.121401-2.366151.239479-3.575185.354152l-2.44062.22478c-.410493.036699-.822831.073013-1.236986.108939l-2.506537.210882-2.548908.201432-2.590016.191834-2.629867.182089-2.668456.172196-2.705786.162156c-.454005.026181-.909513.051938-1.366497.077267l-2.759417.146819c-.925572.047213-1.856841.092691-2.793596.13641l-2.826515.125853c-.947518.040176-1.900313.078567-2.858174.11515l-2.888573.104297c-.483892.016471-.968998.032483-1.455292.048034l-2.931808.087743c-.490941.013693-.983017.026919-1.476201.039674l-2.972209.070857c-.995032.021721-1.994291.041534-2.997567.059416l-3.021664.047826-3.044503.03609-3.066081.024205-3.086399.012173c-.516023.001018-1.03284.001529-1.550425.001529l-3.035416-.005875-3.016811-.017532c-1.002369-.007771-2.001436-.017462-2.997001-.02905l-2.975987-.040428-2.95377-.051668c-.490377-.00954-.979777-.019543-1.468177-.030005l-2.918187-.068266c-.968592-.024579-1.932979-.050972-2.892961-.079157l-2.86653-.08991c-.475486-.015873-.94982-.032188-1.422977-.048943l-2.824628-.105776-2.795188-.11618c-.463344-.020223-.925412-.040873-1.386177-.061948l-2.748771-.131525c-.910916-.045526-1.816424-.092727-2.716322-.141582l-2.682669-.151497c-.44424-.026068-.887028-.052544-1.328339-.079424l-2.629932-.166112-2.59327-.17568c-.42909-.03007-.856602-.060532-1.282511-.091385l-2.53602-.189772c-.419397-.032401-.837141-.065186-1.253208-.098352l-2.47606-.203551c-.409254-.03468-.81678-.069735-1.222552-.105163l-2.413393-.217016c-1.993294-.184534-3.941501-.378237-5.841487-.580747l-2.256636-.247217c-.744363-.083799-1.48081-.168984-2.209141-.255532l-2.16044-.263708c-16.017669-2.008124-27.824717-4.694371-33.135887-7.794416l-.34443-.207279 1.05512-1.699036c4.604344 2.859348 15.235271 5.394093 29.859406 7.3547l2.066288.269822 2.116892.262218c.713929.086123 1.436086.170953 2.166269.254466l2.214418.246561c2.984111.323411 6.093346.625343 9.314611.904188l2.436749.20478c.819115.0668 1.645028.132133 2.477533.195972l2.517088.187013c.422743.030414.847083.060448 1.272994.0901l2.574121.173292 2.610608.163957 2.645867.154471c.443848.024946.889113.049491 1.335772.073631l2.696454.139959 2.728644.130097 2.759608.120083 2.789342.10992 2.81785.099604c.943898.031466 1.892343.061188 2.84513.08914l2.871182.078523c.480634.012194.962301.02394 1.444978.035234l2.907959.062317c.486609.009474.974176.018491 1.462675.027046l2.941974.045771 2.963116.034554c.495546.004815.991922.009157 1.489102.013022l2.992528.017443 3.0106.005848 3.067294-.006075c.50967-.002021 1.01855-.004543 1.526612-.007564l3.03835-.024078 3.017442-.035876c.501093-.006954 1.001261-.014393 1.500477-.022313l2.98366-.053272c.990603-.019665 1.977184-.041229 2.959527-.064666l2.934104-.075897c.973654-.027153 1.942856-.056152 2.90739-.086968l2.879387-.097875c.477493-.017213.953765-.034873 1.42879-.052977l2.834963-.113933 2.803734-.124436c.464615-.021605.927875-.043642 1.389754-.066106l2.754473-.139885 2.720019-.149983 2.684276-.159919 2.647243-.169691c.438049-.029087.874502-.058575 1.30933-.08846l2.589274-.184048 2.549014-.193415c2.107046-.165038 4.170812-.339666 6.187939-.523461l2.397951-.224928c2.770989-.267486 5.447931-.55261 8.021608-.854213l2.180505-.262525c.718262-.088836 1.427878-.17899 2.128636-.270435l2.075476-.278183 2.021028-.285767c13.289156-1.930042 22.862382-4.354964 26.999645-7.058669z" fill="#004dff"/><g fill="#000"><path d="m587.22101 466.126194c5.522847 0 10 4.477152 10 10 0 4.866038-2.545232 8.47085-6.305187 11.114918-2.844917 2.000598-6.930037 3.712019-12.250232 5.208097l-1.045136.286894c-.353519.094748-.712177.18862-1.075973.281635l-1.106801.276496-1.137621.271474-1.168432.266572-1.199236.261789-1.230032.257125c-.207571.042472-.416425.084754-.626561.12685l-1.276209.250352-1.306983.245985-1.337749.241737-1.368508.237608c-.230647.039264-.462576.078361-.695786.117293l-1.414629.231638c-.238333.038284-.477947.076408-.718841.114375l-1.460732.225935-1.491458.222283-.757248.109808-2.443634.340256-.754228.10081-2.19546.283163-2.213902.270702-1.53374.179216-.791776.089992-3.11306.337997-2.802371.283762c-.812522.079584-1.632426.157606-2.46112.234179l-2.51386.225489-1.279347.1097-2.974816.24234-.890827.069176-3.49754.257341-3.149506.212843-2.727147.170502-3.678783.21052-3.300234.170495-3.796898.175523-3.377418.138161-1.48436.055474-2.950143.101024-2.980205.089742-3.009124.078299-3.036898.066694-3.55758.062649-1.047329.015272-3.081352.036783-3.144997.024957-3.137679.012425-1.591484.001538-3.102308-.006127-3.061588-.017951-1.55184-.013682-4.562107-.058094-3.011076-.053169-2.985541-.064539-2.958922-.075756-2.931219-.086818-4.342525-.150639-2.836395-.112918-2.846625-.125243-2.771769-.133631-1.385994-.07128-1.395125-.074802-4.074168-.236354-3.536824-.227664-3.046849-.213696-1.316666-.09761-2.556187-.198792-3.327273-.27799-2.857983-.257113c-2.268565-.2111-4.482114-.434078-6.651674-.670243l-1.619095-.179617-2.222073-.258044c-1.394358-.166285-2.760311-.337515-4.111524-.515601l-1.346806-.180443-2.048595-.286404-.764648-.110758-1.506095-.224399c-.248436-.037724-.495581-.075611-.741434-.113664l-1.459603-.230316c-.24068-.038723-.480066-.077614-.718156-.116676l-1.412983-.236447-1.381831-.24065c-.455412-.080928-.905623-.162572-1.350622-.244949l-1.319357-.249341c-.217284-.041929-.433263-.084044-.647936-.126348l-1.27235-.256107c-.209443-.043068-.417576-.086328-.6244-.129784l-1.225216-.263085c-.20158-.044242-.401847-.088683-.600801-.133325l-1.177953-.270275c-.774782-.18181-1.52851-.366894-2.261108-.555377l-1.083041-.285291c-5.158011-1.39138-9.203396-2.964755-12.107129-4.768005-4.691757-2.913633-6.133212-9.07902-3.219579-13.770778 2.862517-4.609445 8.863692-6.081634 13.522508-3.368912l.24827.149334c.311236.193281.695248.392521 1.149045.596453l.40599.175918.439752.178038.473096.179982.506021.181748c.087058.030428.17547.060923.265227.09148l.554625.184065.586505.185387.617965.186532.649009.1875.679632.188291.709838.188904.739626.18934.768995.189599.797945.18968.826478.189585 1.292299.283809 1.354144.282595.936422.187427 1.454079.279243 1.512157.276434 1.039673.182433 1.605817.270422 1.100805.177871 1.124526.175736 1.73035.259212.58819.085145 1.977058.276402c1.232898.167845 2.496742.331596 3.77717.489529l1.285426.15593 2.160989.25095c2.017655.228042 4.097242.445803 6.220699.651505l1.600537.151988 2.769884.249228.771141.066422 2.416242.199898 2.896122.223953 3.776041.267791.829349.055313 3.885245.242797 2.658833.151237 2.651637.13928 2.729293.131584 2.72099.119715 3.72102.145597 3.273741.111318 2.850651.084433 2.879002.073711 2.906162.062824 2.95182.052065 1.455753.021406 3.48508.039765.976933.008302 3.00295.017665 3.033805.00596 1.53224-.001478 3.087958-.012252 3.025473-.024006 3.041407-.036306 1.481317-.022099 2.983114-.05348 2.956025-.064914 2.927678-.076176 2.898073-.087265 2.888088-.09896 1.400749-.052347 4.215107-.175267 2.766988-.129861 3.203814-.165557.878844-.048304 2.674677-.155022 2.635491-.164763 3.876907-.264997 3.781359-.285841 2.491387-.204023 1.213886-.104112 2.390414-.214421c.393748-.036374.785001-.073051 1.173507-.110005l1.157025-.111666 2.70556-.273902.72444-.076452 2.25346-.246986 1.443606-.165626.695606-.081985 2.115627-.258511 2.094931-.270352.973383-.130678 2.011069-.28129 1.53884-.225955 1.500001-.229954 1.460514-.233802c.240092-.039279.478512-.078713.715246-.118297l1.400065-.239292 1.358954-.242763 1.317195-.246084 1.274785-.249254c.208894-.041798.415994-.083722.621286-.125768l1.209954-.253726c.198008-.042524.394181-.085165.588505-.127919l1.143662-.257859 1.098656-.260424 1.053-.262841.509177-.132279c1.88888-.497421 3.49308-.996684 4.782617-1.481242l.583079-.226705.43974-.182531c.06893-.029517.135659-.058551.200155-.087056l.161952-.073451.10233-.185505c1.670871-2.970271 4.815162-5.00079 8.441775-5.100459z"/><path d="m667 836c5.522847 0 10 4.477153 10 10 0 19.940403-23.005834 34.561882-61.882128 45.012499-5.691046 1.529851-11.693194 2.953829-17.969389 4.266651l-2.366346.487087c-4.361588.883403-8.850517 1.713954-13.454746 2.489937l-2.522759.417841-2.545196.406955c-1.278133.200746-2.564518.397387-3.858908.589888l-2.599384.379471-2.620298.368368c-.438436.060466-.877724.120467-1.317857.180002l-2.650858.351599-2.670687.340341c-.893486.111565-1.790205.221242-2.690083.329023l-2.709045.317642-2.727571.306199c-2.280576.250381-4.579998.488777-6.897136.715028l-2.788997.265661-2.80557.253939-2.821709.242156-2.837414.230311c-.948374.074789-1.899292.147593-2.852684.218403l-2.86752.206433c-.479133.033405-.958865.066308-1.439188.098709l-2.888961.188363c-.482651.030386-.965875.060266-1.449663.089639l-2.909424.170154-2.922523.157937c-.488154.025301-.976837.050091-1.466038.074368l-2.941357.139495c-1.473718.066659-2.951942.12868-4.434426.186025l-2.970578.108449c-7.936304.272523-15.989174.411427-24.121557.411427s-16.185253-.138904-24.121557-.411427l-2.970578-.108449c-1.482484-.057345-2.960708-.119366-4.434426-.186025l-2.941357-.139495c-.489201-.024277-.977884-.049067-1.466038-.074368l-2.922523-.157937-2.909424-.170154c-.483788-.029373-.967012-.059253-1.449663-.089639l-2.888961-.188363c-.480323-.032401-.960055-.065304-1.439188-.098709l-2.86752-.206433c-.953392-.07081-1.90431-.143614-2.852684-.218403l-2.837414-.230311-2.821709-.242156-2.80557-.253939-2.788997-.265661c-2.317138-.226251-4.61656-.464647-6.897136-.715028l-2.727571-.306199-2.709045-.317642c-.899878-.107781-1.796597-.217458-2.690083-.329023l-2.670687-.340341-2.650858-.351599c-.440133-.059535-.879421-.119536-1.317857-.180002l-2.620298-.368368-2.599384-.379471c-1.29439-.192501-2.580775-.389142-3.858908-.589888l-2.545196-.406955-2.522759-.417841c-4.604229-.775983-9.093158-1.606534-13.454746-2.489937l-2.366346-.487087c-6.276195-1.312822-12.278343-2.7368-17.969389-4.266651-38.876294-10.450617-61.882128-25.072096-61.882128-45.012499 0-5.522847 4.477153-10 10-10s10 4.477153 10 10c0 1.284326.687766 2.853775 2.183896 4.633617l.359665.414433c.498833.557467 1.075075 1.134308 1.732241 1.728347l.508102.44872.538777.454965.569782.461006.601117.466842c1.028155.782822 2.188241 1.589113 3.48712 2.414623 4.564367 2.900907 10.408437 5.719336 17.383843 8.382631l1.410122.530569c.712559.264229 1.436333.526858 2.171173.787814l1.48439.519662c.749528.258694 1.510024.515668 2.281339.770847l1.55701.507947c.523782.168505 1.052329.33619 1.585596.503036l1.613919.497994c.271333.082571.543834.164928.817499.247066l1.655908.49019c.834892.243765 1.680158.485519 2.535649.725188l1.724572.476538c.289687.078953.580498.157668.872429.236145l1.015997.270977 2.053845.53501c.344717.088393.690633.176399 1.037739.264015l2.096839.521009c.351828.086052.704828.171712 1.058991.256978l2.138851.506859 2.166313.497342c6.903015 1.559777 14.212553 2.9754 21.866268 4.23733l2.428331.393384 2.450776.3831c1.641236.251957 3.297144.497012 4.967143.735079l2.515494.351845c.420987.057764.842835.115087 1.265537.17197l2.546381.335994c.42608.055113.852995.109782 1.280735.164006l2.576286.319991c.862018.104875 1.727268.207959 2.595678.309239l2.614632.29842 2.633151.287536 2.651233.276583c.443355.045181.887445.089903 1.332261.134164l2.677539.26003 2.69453.248911c.450481.040555.901651.080644 1.353501.120266l2.7192.232108c1.363612.113238 2.733186.222244 4.108478.32698l2.758134.203768 2.772944.192316c2.316837.155473 4.648647.298947 6.994293.430247l2.821344.151706 2.834191.139954 2.846602.128133c.475443.020367.951386.040239 1.427818.059614l2.8644.110279 2.875719.098292c.480206.01538.960865.030257 1.441968.044631l2.891882.080187 2.90211.068034 2.911903.055814c3.888872.066242 7.802694.099719 11.736814.099719s7.847942-.033477 11.736814-.099719l2.911903-.055814 2.90211-.068034 2.891882-.080187c.481103-.014374.961762-.029251 1.441968-.044631l2.875719-.098292 2.8644-.110279c.476432-.019375.952375-.039247 1.427818-.059614l2.846602-.128133 2.834191-.139954 2.821344-.151706c2.345646-.1313 4.677456-.274774 6.994293-.430247l2.772944-.192316 2.758134-.203768c1.375292-.104736 2.744866-.213742 4.108478-.32698l2.7192-.232108 2.702863-.243327c.449091-.041486.897484-.083436 1.345168-.12585l2.677539-.26003 2.660111-.271082c.441875-.046098.883006-.092653 1.323383-.139665l2.633151-.287536 2.614632-.29842c.86841-.10128 1.73366-.204364 2.595678-.309239l2.576286-.319991c.42774-.054224.854655-.108893 1.280735-.164006l2.546381-.335994c.422702-.056883.84455-.114206 1.265537-.17197l2.515494-.351845c1.669999-.238067 3.325907-.483122 4.967143-.735079l2.450776-.3831 2.428331-.393384c7.653715-1.26193 14.963253-2.677553 21.866268-4.23733l2.166313-.497342 2.138851-.506859c.354163-.085266.707163-.170926 1.058991-.256978l2.096839-.521009c.347106-.087616.693022-.175622 1.037739-.264015l2.053845-.53501c.339885-.089941.678554-.180267 1.015997-.270977l.872429-.236145 1.724572-.476538c.855491-.239669 1.700757-.481423 2.535649-.725188l1.655908-.49019c.273665-.082138.546166-.164495.817499-.247066l1.613919-.497994c.533267-.166846 1.061814-.334531 1.585596-.503036l1.55701-.507947c.771315-.255179 1.531811-.512153 2.281339-.770847l1.48439-.519662c.73484-.260956 1.458614-.523585 2.171173-.787814l1.410122-.530569c6.975406-2.663295 12.819476-5.481724 17.383843-8.382631 1.298879-.82551 2.458965-1.631801 3.48712-2.414623l.601117-.466842.569782-.461006.538777-.454965.508102-.44872c.657166-.594039 1.233408-1.17088 1.732241-1.728347l.359665-.414433c1.438586-1.711386 2.129795-3.228253 2.180837-4.484164l.003059-.149453c0-5.522847 4.477153-10 10-10z"/><path d="m555 624c5.522847 0 10 4.477153 10 10 0 6.647558-4.050984 11.192749-10.378293 14.609336l-.712311.375026c-.12025.061747-.241258.123119-.363013.184122-4.674113 2.341901-10.940714 4.307632-18.586658 5.927964-4.845154 1.026788-10.215043 1.906703-15.981666 2.625904l-1.936725.233762c-.325178.037962-.651537.075424-.979054.112382l-1.978832.215691c-2.324449.244552-4.703519.464217-7.129685.65818l-2.090927.159941c-1.051055.076805-2.110365.148846-3.177337.21606l-2.143986.127972c-.71795.040499-1.43913.078834-2.163364.114985l-2.18169.101884c-.365084.015883-.730887.031215-1.097388.045994l-2.207204.082019c-.369204.012557-.739062.024557-1.109552.035997l-2.230347.061897-2.244458.048341c-2.251163.041524-4.521913.062543-6.80751.062543s-4.556347-.021019-6.80751-.062543l-2.244458-.048341-2.230347-.061897c-.37049-.01144-.740348-.02344-1.109552-.035997l-2.207204-.082019c-.366501-.014779-.732304-.030111-1.097388-.045994l-2.18169-.101884c-.724234-.036151-1.445414-.074486-2.163364-.114985l-2.143986-.127972c-1.066972-.067214-2.126282-.139255-3.177337-.21606l-2.090927-.159941c-2.426166-.193963-4.805236-.413628-7.129685-.65818l-1.978832-.215691c-.327517-.036958-.653876-.07442-.979054-.112382l-1.936725-.233762c-5.766623-.719201-11.136512-1.599116-15.981666-2.625904-7.645944-1.620332-13.912545-3.586063-18.586658-5.927964l-.363013-.184122-.712311-.375026c-6.327309-3.416587-10.378293-7.961778-10.378293-14.609336 0-5.522847 4.477153-10 10-10 4.305949 0 7.97625 2.721533 9.38462 6.538315l.08438.239685.237848.136319.51245.274792.193414.098249c.657533.329448 1.408475.66038 2.247555.990255l.740674.282432.783105.281558c1.206114.421506 2.552946.838866 4.029296 1.24668l1.003298.270402c.170373.044812.342315.089491.515809.13403l1.059479.265494 1.096009.261777c.742687.1732 1.509236.343685 2.298664.510981 4.84749 1.027283 10.35753 1.898397 16.351727 2.591081l1.812606.20243 1.840585.19159 1.867493.180618 1.893332.169511 1.9181.158271c.965064.076303 1.939014.148341 2.921249.216039l1.975338.129586c.331004.020626.662885.040764.995619.060411l2.006468.111975c.33606.017674.672928.034852 1.010583.05153l2.035192.094063 2.053003.081955c.687184.025285 1.377157.04853 2.069743.069712l2.085413.057337c.348816.008518.698239.016514 1.048249.023986l2.106912.038523c1.761322.026826 3.53618.040413 5.321787.040413s3.560465-.013587 5.321787-.040413l2.106912-.038523c.35001-.007472.699433-.015468 1.048249-.023986l2.085413-.057337c.692586-.021182 1.382559-.044427 2.069743-.069712l2.053003-.081955 2.035192-.094063c.337655-.016678.674523-.033856 1.010583-.05153l2.006468-.111975c.332734-.019647.664615-.039785.995619-.060411l1.975338-.129586c.982235-.067698 1.956185-.139736 2.921249-.216039l1.9181-.158271 1.893332-.169511 1.867493-.180618 1.840585-.19159 1.812606-.20243c5.994197-.692684 11.504237-1.563798 16.351727-2.591081.592071-.125472 1.171273-.252738 1.73719-.381598l1.113999-.259785c.182673-.043632.36384-.087426.543484-.131375l1.059479-.265494c.173494-.044539.345436-.089218.515809-.13403l1.003298-.270402c1.47635-.407814 2.823182-.825174 4.029296-1.24668l.783105-.281558.740674-.282432c.83908-.329875 1.590022-.660807 2.247555-.990255l.240013-.122335.427064-.229079.275635-.157946.08538-.239685c1.377753-3.733809 4.920162-6.41947 9.104715-6.534473z"/><path d="m670.948158 438.757844c5.522848 0 10 4.477153 10 10 0 5.91952-3.424058 10.151718-8.655621 13.360877-3.394947 2.082537-7.879997 3.892585-13.524566 5.567742l-.561548.165065-1.148073.32803-1.181199.325211c-.39923.107932-.803947.21539-1.214116.32237l-1.246823.319504c-.210518.05301-.422391.105901-.635612.15867l-1.295494.315162-1.327678.312238-1.359654.30929-1.39142.30632-1.422977.303325c-.239781.050304-.480868.100482-.723257.150533l-1.469921.29879c-.247579.049545-.496451.098963-.746611.148252l-1.516394.294203-1.547114.291115-1.577625.288003-1.607927.284869-1.63802.281712-1.667903.278529-1.697577.275325-1.727043.272097-2.645353.402042-1.79979.263924-1.828522.260614-2.796201.384664-1.899439.252236-1.92744.248845-2.082341.261149-2.239575.272343c-.37582.044982-.752914.089758-1.13127.134329l-2.285208.264954-2.315037.259986-2.344394.254988-2.373275.249957-2.401683.244894-2.429616.239798-2.457076.234672-2.484061.229511-2.510572.22432-2.53661.219097-2.562173.21384-3.890153.310835-2.624006.20056-2.647911.195191-2.67134.18979-4.049905.27449-2.72784.176148-4.132433.253876-2.781379.162305-2.801963.156712-2.822075.151086-4.269785.216011-2.870279.136882-2.888731.131143-4.366658.185886-2.932788.116658-2.94958.110807-2.965899.104924-2.981744.099009-2.997114.093062-3.012011.087083-4.544911.119343-3.047178.071994-4.595439.096559-3.079382.056705-4.641524.073474c-.517172.007388-1.034816.014517-1.552924.021387l-3.114116.038091-3.124747.031824-3.134902.025523-3.144584.01919-3.153792.012825-3.162525.006427h-3.16878l-3.162525-.006427-3.153792-.012825-3.144584-.01919-3.134902-.025523-3.124747-.031824-3.114116-.038091-4.650207-.068822-4.623623-.082744-4.595439-.096559-3.047178-.071994-4.544911-.119343-3.012011-.087083-2.997114-.093062-2.981744-.099009-2.965899-.104924-4.418103-.168407-2.924213-.11957-2.906709-.125374-2.888732-.131143-2.870279-.136882-4.269784-.216011-2.822076-.151086-2.801963-.156712-2.781379-.162305-2.760319-.167867-4.099954-.262157-2.705597-.18163-2.682877-.187078-2.659685-.192495-2.636017-.197879-3.908615-.306845-3.852697-.318779-2.536609-.219097-2.510573-.22432-2.484061-.229511-2.457076-.234672-2.429616-.239798-2.401683-.244894-2.373275-.249957-2.344394-.254988-2.315037-.259986-2.285208-.264954-2.254905-.269888-2.224126-.27479-1.941362-.24714-2.859672-.377084-1.87123-.255606-2.753493-.389672-1.79979-.263924-2.645353-.402042-1.727043-.272097-1.697577-.275325-1.667903-.278529-1.63802-.281712-1.607927-.284869-1.577625-.288003-1.547114-.291115-1.516393-.294203-1.485465-.297267c-.244988-.049798-.488679-.099723-.731068-.149775l-1.438677-.30182-1.407225-.304825c-.231905-.051054-.46249-.102231-.691752-.153533l-1.359654-.30929-1.327678-.312238c-.218604-.052284-.435866-.10469-.651783-.157217l-1.279322-.316615c-.631554-.159032-1.250921-.319147-1.857984-.480332l-1.197683-.323794c-.196868-.054202-.39236-.108522-.586472-.162959l-1.148073-.32803c-.188573-.054906-.375757-.109928-.561548-.165065-5.644569-1.675157-10.129619-3.485205-13.524566-5.567742-5.231563-3.209159-8.655621-7.441357-8.655621-13.360877 0-5.522847 4.477152-10 10-10 4.212341 0 7.816371 2.604492 9.289579 6.290964l.062897.164192.166603.095409c.429207.240967.928422.4913 1.49515.748864l.58914.259896.633596.264243c.218547.088752.44441.17815.677498.268115l.720845.271514.763638.274438.805879.276889.847563.278864.888696.280366c.151513.046827.304716.093696.459599.140599l.469674.140795c.321163.095313.648012.190409.980501.285279l1.014346.283924 1.047926.282514 1.081239.281047 1.114286.279525 1.147067.277948 1.179582.276314 1.21183.274626 1.243813.272881 1.275529.27108 1.306979.269225 1.338162.267313 1.369081.265346 1.399731.263323 1.430117.261244 1.460236.25911 1.490089.25692 1.519676.254674 1.548997.252374 1.57805.250016 1.606839.247603 2.463654.366759 2.52693.361018 2.589308.355089 2.650787.34897 1.800903.229156 2.169333.267986 2.200317.263255 2.230824.258492 2.260855.253694 2.290408.248864 2.319486.243999 2.348086.239102 3.574712.349395 3.636381.338188 2.457721.219176 2.483938.21411 2.509677.209012 2.534942.20388 2.559728.198715 2.584039.193515 3.920597.280451 2.642728.180371 4.006398.260578 2.698439.167018 4.087729.240391 4.134382.228128 4.179428.215753 2.810515.136903 4.250928.194875 2.856692.122881 2.874329.117212 4.343519.165119 2.916335.102897 2.932302.097112 4.427352.134747 2.970138.082503 2.984437.076601 4.502425.103761 4.531918.090293 4.559802.076712 3.054564.04354 4.602701.053825 4.626294.039943 3.096509.01886 4.662042.016554c.519107.001054 1.038572.001845 1.558384.002372h3.120937l4.668655-.011839 4.648279-.025947 3.086738-.02508 4.610744-.049211 3.060225-.040484 4.568739-.07216 4.541392-.085778 4.512434-.099285 2.991409-.073637 2.977347-.079556 2.962809-.085441 2.947794-.091293 2.932303-.097112 2.916334-.102897 4.343519-.165119 2.874329-.117212 2.856692-.122881 4.250928-.194875 2.810515-.136903 4.179428-.215753 4.134382-.228128 4.087729-.240391 2.698439-.167018 4.006398-.260578 2.642728-.180371 2.61961-.185654 2.596015-.190903 2.571943-.196119 2.547395-.201301 2.522369-.20645 2.496868-.211566 2.470889-.216647 3.65658-.334426 3.595447-.345673 2.362208-.23664 2.333845-.241554 2.305007-.246436 2.275691-.251283c.376812-.042283.752383-.084766 1.126703-.127449l2.230824-.258492 2.200317-.263255 2.169333-.267986 1.800903-.229156 1.773979-.231958 2.6099-.35307 2.547823-.359062 2.484845-.364867 2.420971-.370482 1.578051-.250016 1.548996-.252374 1.519676-.254674 1.490089-.25692 1.460236-.25911 1.430117-.261244 1.399732-.263323 1.36908-.265346 1.338163-.267313 1.306978-.269225 1.275529-.27108 1.243813-.272881 1.21183-.274626 1.179582-.276314 1.147067-.277948 1.114286-.279525c.182968-.046716.364559-.093496.544767-.140337l1.064616-.281787 1.031169-.283226c.16906-.047321.336714-.0947.502959-.142135l.980501-.285279.469674-.140795.909054-.28094c.14812-.046731.294537-.093409.439241-.140025l.847564-.278864.805878-.276889.763638-.274438.720845-.271514c.233088-.089965.458951-.179363.677498-.268115l.633596-.264243.58914-.259896c.566729-.257564 1.065943-.507897 1.495151-.748864l.16592-.096409.063579-.163192c1.44047-3.604551 4.918111-6.174674 9.009674-6.287122z"/><path d="m670.948158 397.5191c5.522848 0 10 4.477152 10 10 0 5.616248-2.80177 10.394658-7.423853 14.306882-3.440552 2.912151-8.043495 5.475364-13.811872 7.837497-.944136.386621-1.923035.769011-2.936158 1.147098l-1.23214.451634c-1.248498.449558-2.545968.892878-3.891479 1.329831l-1.36149.434827c-.688717.216347-1.389367.431093-2.101833.644221l-1.440653.424094c-.242723.070321-.486751.140462-.732078.21042l-1.48753.417571-1.518523.413185-1.549309.408774-1.579889.404332-1.61026.399865-1.640426.395367-1.670384.390842c-.280883.064762-.563005.129334-.846362.193716l-1.714934.384002-1.744376.379408-1.77361.374784c-.298026.062077-.597262.123961-.897703.18565l-1.817074.367797c-.610489.121818-1.225764.242854-1.845791.363103l-1.874302.358382-1.902605.353632c-.319448.058542-.640066.116884-.961851.175026l-1.944673.346456-.982769.171422c-.724714.125522-1.454427.249962-2.189064.373313l-2.218608.366776-2.247707.3602-2.276359.35358c-.381757.058376-.764688.116475-1.148786.174295l-2.318502.343574-2.346041.336851-2.373132.330087c-.397755.054449-.79662.108614-1.196586.162494l-2.412934.319863c-.404333.052739-.809748.105193-1.216236.157359l-2.451731.309545c-.410744.051015-.822541.101741-1.235384.152177l-2.489526.299135-2.514165.292143-2.538357.285109-2.562105.278034-2.585404.270917-2.60826.26376-2.630669.256559-2.652631.249319-2.674148.242036-2.695218.234712-2.715844.227346-2.736022.21994-2.755755.212491-2.775041.205001-2.793883.19747-2.812277.189897-2.830226.182283-2.847728.174627c-.476055.028464-.952821.056608-1.430289.08443l-2.873146.163066-2.889534.155306-2.905476.147505-2.920972.139663-2.936021.13178-2.950625.123854-2.964783.115887-2.978494.107879-2.99176.099829-3.00458.091738-3.016954.083605c-.503831.013255-1.00816.026168-1.512977.03874l-3.034678.071329c-.50673.011203-1.01393.022063-1.521589.032578l-4.581097.085329-3.067116.046496-3.077036.038134-3.086512.029733c-.515183.004253-1.030743.008154-1.546669.011702l-3.099887.017052-4.665366.009615-3.112259-.004277c-.518045-.001424-1.03575-.003204-1.553107-.005338l-3.099887-.017052-3.091081-.025516-3.08183-.033938-3.072132-.042321c-.511189-.007749-1.021956-.015846-1.53229-.02429l-3.056749-.054814c-.50857-.009827-1.016689-.019999-1.524348-.030515l-4.556267-.103907-3.022973-.079523-3.010822-.087677c-.500767-.01529-1.001008-.030918-1.500716-.046883l-2.99176-.099829-2.978494-.107879-2.964783-.115887-2.950625-.123854-2.936021-.13178-2.920972-.139663-2.905476-.147505-2.889534-.155306-2.873146-.163066-2.856313-.170784c-.474624-.029105-.948529-.058529-1.421704-.088273l-2.830226-.182283-2.812277-.189897-2.793882-.19747-2.775042-.205001-2.755755-.212491-2.736022-.21994-2.715844-.227346-2.695218-.234712-2.674148-.242036-2.652631-.249319-2.630669-.256559-2.608259-.26376-2.585405-.270917-2.562104-.278034-2.538358-.285109-2.514165-.292143-2.489525-.299135-2.464442-.306086c-.408625-.051591-.816186-.10347-1.222674-.155636l-2.425978-.316435c-.402158-.05331-.803226-.106906-1.203192-.160787l-2.38651-.326689c-.395526-.055015-.789931-.110313-1.183208-.165892l-2.34604-.336851-2.318503-.343574-2.290519-.350255c-.379396-.058931-.757608-.118138-1.134626-.17762l-2.247707-.3602-2.218608-.366776c-.367319-.061676-.733406-.123623-1.098253-.185843l-2.07358-.358892-1.944672-.346456c-.321786-.058142-.642404-.116484-.961852-.175026l-1.902605-.353632-1.874302-.358382c-.310013-.060125-.618839-.120446-.926472-.180963l-1.831458-.365454c-.302848-.0613-.604494-.122794-.904935-.184483l-1.788149-.372462-1.759019-.3771c-.290731-.063234-.580239-.126661-.868521-.19028l-1.714934-.384002-1.685286-.38857-1.655431-.393108c-.273405-.065895-.545559-.131977-.816455-.198247l-1.61026-.399865-1.579888-.404332c-.260773-.06776-.520271-.135705-.77849-.203834l-1.533942-.410983c-.253089-.068864-.50489-.137912-.7554-.207142l-1.487531-.417571c-.245327-.069958-.489355-.140099-.732078-.21042l-1.440653-.424094c-.712466-.213128-1.413116-.427874-2.101833-.644221l-1.36149-.434827c-.224252-.072826-.447169-.145828-.668748-.219007l-1.313371-.441182c-.648619-.221643-1.285111-.444863-1.90936-.669642l-1.23214-.451634c-.202625-.075617-.40388-.151407-.603763-.227368l-1.18278-.457821c-.388744-.15329-.771961-.307261-1.149615-.461909-5.768377-2.362133-10.37132-4.925346-13.811872-7.837497-4.622083-3.912224-7.423853-8.690634-7.423853-14.306882 0-5.522848 4.477152-10 10-10 4.961202 0 9.078578 3.612847 9.864703 8.351115l.043773.297785.221849.205485.214741.186775c.991295.839052 2.458948 1.766733 4.371158 2.737l.737855.365756c.252857.122524.512598.245624.77916.369209l.820092.372123c.560289.248933 1.147617.499448 1.761488.750826 1.103196.451756 2.276171.900285 3.517008 1.345011l1.080148.380249c.18278.063215.366934.126349.552455.1894l1.129503.377303c.190972.062714.3833.125342.576981.187882l1.178252.374176 1.210418.371989c.204402.061812.410132.123529.617187.18515l1.258161.368559c.636976.183689 1.285762.366483 1.946208.548336l1.336392.362437 1.367215.359848c.230422.059754.462118.119397.695081.178927l1.412946.355811 1.443096.353019 1.472981.350147 1.502594.347193c.252886.057614.506994.115103.76232.172463l1.546513.342611 1.575458.339456 1.604133.33622 1.63254.332902 1.660679.329505c.27911.054629.559381.109114.840807.163453l1.702384.324256 1.729851.320656 1.75705.316976 1.783981.313215 2.115918.360778c.355148.059612.711537.118964 1.069158.178056l2.160435.35142 2.18955.345128 2.218218.33879c.372067.055935.74531.111604 1.119719.167006l2.260377.329203 2.287923.322758 2.315019.316267c.776139.104336 1.55672.207583 2.341667.309734l2.367865.303156 2.393616.296536 2.418916.28987 2.443769.283162 2.468172.276409 2.492126.269613 2.515632.262773 2.538689.25589c.425011.042072.850965.083855 1.277851.125349l2.572432.245482 2.594367.238489 2.615853.231451 2.63689.224372 2.657478.217246 2.677618.210079 2.697308.202867 2.716549.195611 2.735342.188311 2.753686.180969 2.771582.173582 2.789027.16615c.466267.027071.933242.053829 1.400916.080269l2.814355.154929 2.830679.147383 2.846554.139799 2.861981.132171 2.876958.1245c.480716.020108.962038.039895 1.443956.05936l2.898583.11291 2.912438.105131 2.925845.097305 2.938802.089437 2.951312.081526 2.963372.073569 2.974982.06557 2.986145.057526 2.996859.04944c.500344.007563 1.001116.014788 1.502306.021673l3.012087.037227c.502827.005523 1.006053.010704 1.509669.015543l3.026306.024915 3.035224.016654 3.043693.008348h3.049764l3.043693-.008348 3.035224-.016654 3.026306-.024915 4.521756-.05277 4.499165-.071113 2.986145-.057526 2.974983-.06557 2.963371-.073569 2.951312-.081526 2.938802-.089437 2.925845-.097305 2.912439-.105131 2.898583-.11291 2.884278-.120648 2.869526-.128341 2.854324-.135991 2.838672-.143596c.471783-.024564.942895-.049443 1.413327-.074637l2.814355-.154929 2.797583-.162412 2.78036-.169872c.461933-.028931.92313-.05817 1.383582-.087717l2.753686-.180969 2.735342-.188311 2.716549-.195611 2.697308-.202867 2.677618-.210079 2.657478-.217246 2.63689-.224372 2.615853-.231451 2.594367-.238489 2.572433-.245482 2.550048-.252431 2.527217-.259337 2.503935-.266198 2.480206-.273017 2.456026-.279791c.407298-.047194.81357-.094668 1.218806-.142422l2.418916-.28987 2.393616-.296536 2.367865-.303156c.392474-.051075.783856-.102425 1.174136-.154047l2.328399-.313007 2.301528-.319518c.381323-.053793.761508-.107855 1.140546-.162187l2.260377-.329203c.374409-.055402.747652-.111071 1.119719-.167006l2.218218-.33879 2.189551-.345128 2.160434-.35142c.357621-.059092.71401-.118444 1.069158-.178056l2.115918-.360778 1.783981-.313215 1.75705-.316976 1.729851-.320656 1.702384-.324256 1.674647-.327776 1.646643-.331213 1.61837-.334571c.267358-.056038.533526-.112211.798499-.16852l1.575458-.339456 1.546514-.342611 1.517301-.345686 1.487821-.348679c.245499-.058359.489758-.116838.732772-.175438l1.443097-.353019 1.412945-.355811c.232963-.05953.464659-.119173.695082-.178927l1.367214-.359848 1.336392-.362437c.440297-.121236.875412-.242889 1.305301-.364947l1.273942-.367375c.41939-.122854.83351-.246099 1.242313-.369723l1.210418-.371989 1.178252-.374176c.387361-.12508.769316-.250511 1.14582-.37628l1.113119-.378305 1.080148-.380249 1.046911-.382112c.858501-.31918 1.6821-.640216 2.470097-.962899l.900837-.37633c.293602-.125168.580507-.25003.860651-.374496l.820092-.372123c2.665626-1.235852 4.649054-2.42315 5.888173-3.471965l.253006-.22123.182902-.17203.003532-.027396c.659532-4.779851 4.697247-8.481214 9.625721-8.616663z"/><path d="m670.948158 356.5191c5.522848 0 10 4.477152 10 10 0 5.672835-2.991726 10.295119-7.799586 13.981682-3.438167 2.636312-8.011644 4.94348-13.747629 7.071338-1.503076.557591-3.095148 1.105523-4.77401 1.643517l-1.275385.401627-1.307724.397873-1.339856.394093-1.371781.390286c-.231279.064729-.46388.129299-.697798.193708l-1.419282.384527-1.45069.380654c-.733162.189355-1.478025.377247-2.234472.563663l-1.528305.370857-1.558989.366893-1.589467.362901-1.619737.358883-1.6498.354839-1.679657.350768c-.282419.058121-.566074.116071-.85096.173849l-1.724054.344613-1.753393.340476-1.782526.336313c-.299504.055704-.600213.111233-.902123.166587l-1.825836.330019-1.854452.325789c-.311449.053945-.624081.107712-.937893.161301l-1.896987.319396-1.925085.315102-1.952976.31078-2.208014.341058-2.238161.33503-2.267848.328962-2.297075.322854-2.325844.31671c-.390012.05227-.781204.104283-1.173565.156037l-2.368134.307418-2.395751.301176-2.422911.294894-2.44961.288574c-.410468.047567-.822029.094868-1.234673.141904l-2.488797.279021-2.514347.272604-2.539437.266147-2.564068.259653-2.588238.253119-2.61195.246547-2.635201.239936-2.657993.233285-2.680326.226597-2.702197.219869c-.452164.036082-.905219.071882-1.359157.107399l-4.109017.312001-2.765056.199453-2.785091.192571-4.214193.275866-2.833163.175194-2.851588.168175-2.869553.161118-2.887058.154021-2.904104.146887-2.920689.139712-2.936816.132501c-.490788.02148-.982228.042658-1.474312.063533l-2.960143.121608-2.975121.114299-2.989637.10695-3.003696.099564-4.530895.135408-3.036828.080926-3.049277.073402-3.061265.065841-3.072795.058239-3.083865.050601-3.094474.042922-3.104625.035205-3.114315.02745-3.123546.019654-3.132317.011822-3.140628.003949-1.604337-.00103-3.202338-.008223-3.193482-.016407c-.531482-.003414-1.062575-.007167-1.593268-.011259l-3.179281-.028607c-.529054-.005442-1.057688-.011221-1.585892-.017337l-3.16398-.040715c-.526443-.007456-1.052435-.015245-1.577966-.023368l-3.147579-.052733c-.523648-.009454-1.046815-.019239-1.56949-.029355l-3.130076-.064659c-.52067-.011436-1.040828-.023202-1.560464-.035295l-3.111474-.076495-3.098461-.084335-3.084959-.092133-3.070967-.099892-3.056487-.10761-3.041518-.115288-3.026059-.122925c-.503028-.021121-1.005391-.04256-1.50708-.064313l-3.001954-.134305-2.985273-.14184c-.496128-.024266-.991541-.048844-1.486228-.073733l-2.959335-.153068-2.94143-.160502-2.923038-.167897c-.485612-.028596-.970439-.057499-1.454468-.086708l-2.894531-.178911-4.304864-.282028-2.844574-.197067-2.823736-.204259-2.802409-.21141c-.465264-.035828-.929618-.071953-1.393054-.108373l-2.7695-.22206c-.459718-.037599-.918496-.075491-1.376324-.113676l-2.735492-.23262-2.712207-.239608-2.688435-.246556-2.664173-.253465-2.639421-.260331-2.614182-.267159-2.588452-.273945c-.429237-.046221-.857382-.092722-1.284424-.139504l-2.548942-.284049-2.521989-.290733-2.494548-.297379c-.413444-.050114-.825724-.100504-1.236831-.151168l-2.452469-.307269c-.40637-.051757-.811545-.103788-1.215516-.15609l-2.409291-.317069c-.399112-.053386-.796999-.107042-1.193651-.160968l-2.365011-.326777-2.33488-.333199c-.773217-.112132-1.54133-.225328-2.304259-.33958-5.461941-.817954-9.226637-5.908814-8.408683-11.370755.817953-5.46194 5.908813-9.226636 11.370754-8.408683l2.236936.329611c.750814.108853 1.50677.216684 2.267784.323489l2.298141.317323c.385525.052371.772296.104483 1.1603.156336l2.342752.307996 2.371879.301724c.397713.049762.796619.099262 1.196708.148497l2.414646.292238 2.442544.28586 2.469949.27944c.413914.046036.82895.091803 1.245097.1373l2.510135.269731 2.53631.263205 2.561994.256636 2.587187.250026 2.611886.243372 2.636095.236676 2.659812.229938c.445251.037759.89147.075236 1.338646.112429l2.694465.219751c.450965.036056.902867.071827 1.355696.107312l2.728012.209469 2.74976.20256 4.164346.290796 2.801983.185105 2.822011.178048 2.841548.170949 2.860592.163808 2.879146.156623 2.897206.149398 2.914775.142128 2.931853.134817 2.948438.127464 2.964532.120067 2.980134.112629 2.995245.105147c.500439.016899 1.001487.033484 1.503134.049755l3.016988.093846 3.030868.086259 4.571253.11507 3.063418.067105 3.075578.05937 3.087246.051591 3.098421.043771 3.109105.035908 3.119297.028002 3.128998.020053 3.138206.012064 3.146923.004031 3.081531-.003867 3.073119-.011571 3.064244-.019237 3.054908-.02686 3.045108-.034444 3.034846-.041986 4.532015-.077031 3.007167-.060663 2.995286-.068064 4.469639-.115879 2.96356-.086384 2.95006-.093641 2.936097-.100857 2.921672-.108032 2.906785-.115168 2.891434-.122261 2.875622-.129314 2.859346-.136326 2.842609-.143298 4.231518-.22793 2.798741-.160548 2.780384-.167378 2.761565-.174166 2.742283-.180912 2.722539-.18762 2.702332-.194285 2.681662-.200911 2.660531-.207494 2.638936-.214038 2.616879-.220541 2.594359-.227003 2.571377-.233424 2.547933-.239804 2.524025-.246144 2.499656-.252443c.414553-.042597.828071-.085454 1.240544-.128571l2.462234-.261815 2.436708-.268011 2.410718-.274168 2.384268-.280283 2.357354-.286358 2.329977-.292392c.386023-.049232.770885-.098715 1.154578-.148446l2.288046-.301366 2.259513-.307298c.374182-.051708.747156-.103662 1.118912-.15586l2.215847-.31612c.366847-.053173.732456-.10659 1.096819-.160248l2.17114-.324849c.359337-.054624.717409-.109488 1.074205-.164591l1.964649-.307905 2.653965-.430808 1.735368-.291429 1.707903-.294722 1.680167-.297943 1.652165-.301093 1.623894-.30417 2.382244-.461866 1.552041-.311546 1.52283-.31437 1.49335-.317122 1.463604-.319801 1.433587-.322408 1.403303-.324944 1.37275-.327406c.226231-.054769.451177-.109637.674834-.164604l1.326418-.330964 1.295194-.333246c.213249-.055727.425186-.111546.635805-.167456l1.247855-.336534 1.215961-.338635c.199987-.05661.398634-.113305.595936-.170082l1.167615-.341651 1.13505-.343572c.186446-.057418.371524-.114913.555228-.172483l1.085698-.346317 1.052462-.348057c.345251-.116301.684918-.232879 1.018956-.349724l.985182-.351319.479843-.176236c.464141-.17218.913312-.343959 1.347268-.515037l.847551-.341131c.275705-.11334.544575-.226279.806536-.33873l.765083-.335795c.124035-.055692.246325-.111239.36686-.166631l.702081-.330396c.11348-.054725.225187-.109273.335112-.163632l.638092-.323799c1.027603-.535594 1.875175-1.050093 2.533576-1.532408l.249096-.187907.117916-.094321.032548-.152251c.97547-4.386593 4.832202-7.688026 9.481705-7.815808z"/><path d="m670.948158 95.5190996c5.522848 0 10 4.4771525 10 10.0000004 0 5.91952-3.424058 10.151717-8.655621 13.360876-3.394947 2.082537-7.879997 3.892585-13.524566 5.567742l-1.131431.329431-1.164662.326624c-.196868.054202-.395111.108286-.594727.162252l-1.214116.322369-1.246823.319504c-.210518.053011-.422391.105901-.635612.15867l-1.295494.315162c-.218603.052284-.438548.104446-.659829.156486l-1.343692.310767c-.22661.051549-.454549.102974-.683811.154275l-1.39142.30632-1.422977.303326-1.454325.300307-1.485464.297267-1.516394.294203-1.547114.291115c-.260401.04826-.522073.096391-.785012.144392l-1.592802.286439-1.622999.283293-1.652988.280124-2.535251.414191-1.727043.272096-1.756298.268846-1.785345.26557-1.814183.262272-2.774886.387173-1.88536.253924-1.913466.250543-1.941362.24714-2.224126.274791c-.373266.04539-.747814.090577-1.123635.135558l-2.270115.267425-2.300182.262474-2.329775.257491-2.358894.252477-2.387538.247429-2.415709.24235-2.443405.237239-2.470628.232096-2.497376.226919-2.52365.221713-2.549451.216472-2.574776.2112-2.599629.205896-3.945003.298828-2.659685.192495-4.032865.278576-2.716778.178893-4.116283.258023-2.770908.16509-4.195255.237167-2.822075.151086-4.269785.216011-2.870279.136882-2.888731.131143-4.366658.185886-2.932788.116658-4.430519.164006-2.973881.101971-2.989488.096039-3.004622.090077-3.019282.084081-3.033467.078054-4.575761.105709-4.605011.091966-4.632662.078115-4.658713.064156-3.11949.034962-4.698575.040649-3.144584.01919-4.733993.01684-3.166714.003218-4.88128-.007646-4.86062-.022862-4.83822-.037961-4.814083-.052945-3.195119-.043565-4.769989-.077663-4.741213-.09234-3.143964-.069656-3.129887-.076094-4.66731-.126137-3.092441-.092038-4.608725-.149893-3.051774-.107769-3.034606-.114002-3.016923-.120199-4.491101-.191846-2.97046-.135546-2.950974-.141624-2.930972-.147669-2.910454-.153678-2.889423-.159655-2.867875-.165597-2.845812-.171504-2.823234-.177378-2.800141-.183216-2.776533-.189022-2.752409-.194793-2.72777-.20053-2.702616-.206232-2.676947-.2119-2.650763-.217535-2.624063-.223135-2.596848-.2287-2.569118-.234232-2.540873-.239729-2.512112-.245192-2.482836-.250622-2.453046-.256016-2.422739-.261377-2.391918-.266704c-.396056-.044892-.790806-.090005-1.18424-.135338l-2.34472-.274629c-5.484117-.652926-9.400571-5.627981-8.747646-11.112097.652925-5.484117 5.627981-9.400571 11.112097-8.747646l2.289667.268149 2.32146.263046 2.352736.257907 2.383494.252733 2.413734.247523 2.443456.242278 2.472662.236997 2.501348.23168 2.529518.226329 2.55717.220942 2.584303.215518 2.61092.210061 3.965151.304778 2.675195.196259 2.699999.190676 2.724285.185058 4.130832.266976 4.182564.254135 2.816253.16223 2.83795.156434 2.859131.150604 2.879793.144736 2.899937.138834 4.386544.197107 2.948033.123923 4.456261.174574 2.992894.10879 3.009931.102674 3.026452.096524 3.042454.090337 3.057939.084116 4.614811.114429 3.094386.068405 3.108059.062059 4.686592.081112 3.139976.046038 4.73204.056913 4.75698.042235 3.184312.019943 3.194102.013331 3.203374.006682 3.165471.000045 4.668655-.011839 4.648279-.025947 3.086738-.02508 3.076491-.031268 4.594478-.058427 3.048785-.046588 3.036869-.052657 4.531918-.090293 3.004993-.067685 2.991409-.073637 2.977347-.079556 2.962809-.085441 2.947794-.091293 2.932303-.097112 2.916334-.102897 4.343519-.165119 2.874329-.117212 2.856692-.122881 4.250928-.194875 4.208563-.207439 4.164592-.21989 2.75117-.153455 4.087729-.240391 2.698439-.167018 4.006398-.260578 2.642728-.180371 2.61961-.185654 2.596015-.190903 2.571943-.196119 2.547395-.201301 2.522369-.20645 2.496868-.211566 2.470889-.216647 2.444433-.221696 2.417502-.22671 2.390092-.231693 2.362208-.23664 2.333845-.241554 2.305007-.246436 2.275691-.251283c.376812-.042283.752383-.084766 1.126703-.127449l2.230824-.258491 2.200317-.263256c.364151-.044271.727011-.088739 1.08857-.133404l1.984564-.248806 2.671081-.34689 2.6099-.35307 2.547823-.359062 2.484845-.364866 1.621133-.246377 1.592478-.248816 1.563557-.251202 1.534369-.25353 1.504916-.255805 1.475196-.258021 1.44521-.260185 1.414958-.26229 1.384439-.264341 1.353655-.266337 1.322604-.268276 1.291287-.270159 1.259704-.271988 1.227854-.27376 1.19574-.275477 1.163357-.277138c.19118-.046325.380999-.092717.569453-.139175l1.114286-.279525 1.081239-.281047 1.047926-.282514 1.014346-.283924c.166245-.047435.331079-.094926.494498-.142473l.955677-.283601.909054-.28094c.14812-.046731.294537-.093409.439241-.140025l.847564-.278864.805878-.276889c.130808-.045957.259857-.091812.387134-.137555l.742311-.273035.69924-.269874.655616-.266238c.105603-.044044.209366-.087917.311276-.131608l.58914-.259896c.566729-.257564 1.065943-.507897 1.495151-.748864l.16592-.096664.063579-.162937c1.44047-3.6045506 4.918111-6.1746739 9.009674-6.2871216z"/><path d="m670.948158 35.122101c5.522848 0 10 4.4771525 10 10 0 5.0210893-2.646924 7.9220755-6.187854 9.8591275-1.461735.7996368-3.103744 1.3966564-5.076518 1.9322513-.48685.1321763-1.001528.2620886-1.544316.3899213l-.835302.1902126c-.142743.0314499-.287251.0627756-.43353.0939799l-.898949.1857935c-.306755.0614613-.620625.1224604-.941647.1830205l-.984556.180386c-.16768.0298525-.337157.059601-.508435.0892483l-1.049317.176694-1.092756.1744056-1.136408.1722559-1.180272.1702446-1.224348.1683719-1.172911.1543091-1.682954.2107215-1.758155.2082466-1.832596.2057239-1.906277.2031534-1.31141.133984-2.719146.2644204-2.846081.2595959-2.216778.1914627-2.286405.1886374-2.355273.1857644-3.246176.2431341-2.513007.1788749-4.335378.2913627-2.688209.1706826-4.622875.277426-3.981632.22407-4.574805.2420787-3.513648.1756266-4.791683.2261607-2.440484.1096138-3.71511.1600446-5.052344.2051436-6.468638.2429998-6.631505.2278546-5.417165.1712185-4.125533.1218788-4.177347.1162199-5.647451.146068-5.732496.1357935-7.279058.1551069-7.397736.1386226-4.492325.0751616-4.530504.0690895-4.566979.0629658-4.601749.0567904-6.186807.0660251-4.676251.0421803-4.705341.0358327-7.902248.0454753-4.774579.0186533-4.797419.0121165-6.429141.0058973-6.429141-.0058973-4.797418-.0121165-7.944102-.0346951-4.732725-.0294335-4.705341-.0358327-4.676252-.0421803-6.186807-.0660251-4.601749-.0567904-4.566979-.0629658-4.530504-.0690895-4.492325-.0751616-7.397736-.1386226-7.279058-.1551069-5.732495-.1357935-5.647451-.146068-5.558367-.15622-4.107883-.1237536-4.053796-.1293436-5.317981-.1810644-5.214756-.190788-6.367131-.251972-4.967729-.2122182-4.851375-.2215438-3.559743-.1722041-4.638033-.2375689-3.395096-.1840824-3.796701-.216923-3.684179-.2226536-2.688208-.1706826-2.623141-.1737945-1.712237-.1175682-2.513007-.1788749-3.246177-.2431341-2.355272-.1857644-3.033106-.2521468-2.193399-.1923938-2.12276-.1951554-2.719146-.2644204-1.31141-.133984-1.906277-.2031534-1.832596-.2057239-1.758155-.2082466-1.682954-.2107215-1.172911-.1543091-1.224348-.1683719-1.180272-.1702446-1.136408-.1722559-1.092756-.1744056-1.049317-.176694-1.00609-.1791207c-.492273-.0901901-.968416-.1813422-1.428547-.2735341l-.89895-.1857935c-.146278-.0312043-.290787-.06253-.43353-.0939799l-.835301-.1902126c-.542789-.1278327-1.057467-.257745-1.544317-.3899213-1.972774-.5355949-3.614782-1.1326145-5.076518-1.9322513-3.54093-1.937052-6.187854-4.8380382-6.187854-9.8591275 0-5.5228475 4.477152-10 10-10 2.412523 0 4.625509.8543161 6.352935 2.2769236l.290541.2499754.348168.0899009.533878.1283958.580105.1298941.625781.1312255.670903.1323904.715471.1333885.759488.13422.802951.1348848 1.284709.2032092.90919.1358178.950717.1358992.991692.135814 1.023363.1344481 1.589039.1987128 1.66644.1969108 1.742947.1950339 1.81856.193082 1.893278.1910553 1.967103.1889534 2.040032.1867768 2.831944.2455201 2.957887.2413395 2.29979.1781541 3.985335.2912722 3.322998.2277315 4.318683.2777651 3.584311.2164761 3.697005.2111851 4.492828.2416052 3.453098.1753846 4.712183.2259872 2.401261.1095903 3.656927.1600875 4.97598.2053453 5.086639.1959685 3.885162.1407478 5.270545.1792589 4.018438.1280723 4.072708.1225522 4.125269.1169795 5.579165.147213 4.241263.1037719 7.172068.1601534 7.294331.1439427 5.918177.1033187 5.987309.0926632 7.575181.1006545 7.668958.0835667 4.643096.0418365 6.235924.0459853 4.708574.0270733 7.902809.0308411 9.56468.0131453 7.97641-.0091368 6.337917-.0203613 7.861736-.0415616 6.235924-.0459853 4.643096-.0418365 4.612184-.0480758 7.613642-.0938486 6.020356-.0872887 5.953249-.0980065 5.882091-.1085997 7.246376-.1504562 5.707172-.1319783 4.225262-.1056762 4.17612-.1113541 4.125269-.1169795 5.418302-.1646322 5.32081-.1744145 6.507741-.2315845 5.086639-.1959685 4.97598-.2053453 3.656927-.1600875 4.772578-.2214547 4.650776-.2304884 3.405713-.1787196 3.165003-.1741951 4.56868-.2664824 4.390939-.2746108 4.209057-.2823924 3.233509-.2312834 1.571447-.1173705 3.050953-.2380874 2.206724-.1814062 2.831944-.2455201 2.040033-.1867768 1.967102-.1889534 1.893278-.1910553 1.81856-.193082 1.742948-.1950339 1.66644-.1969108 1.589038-.1987128 1.023364-.1344481.991691-.135814.950717-.1358992.90919-.1358178 1.28471-.2032092 1.188162-.2020884.737548-.133825.693256-.1329103.648411-.1318288.603012-.1305806.557061-.1291658.607612-.1539011.048782-.0429107c1.695353-1.4890985 3.898729-2.4137002 6.316471-2.4801465zm-9.99544 9.6472097-.001718.1316893.001-.0588039c.053668-1.9527916.667169-3.7657382 1.685769-5.2841078l.141231-.2040883c-1.039922 1.253061-1.762714 2.9797117-1.826282 5.4153107zm-364.089805-5.2112224c.970096 1.4460663 1.572754 3.1593226 1.674311 5.0061056l.010776.2678061-.000035-.0626893c-.063568-2.435599-.786361-4.1622497-1.82227-5.4098082z"/><path d="m347.17079 119.635061c5.429239.003471 9.845166 4.332963 9.989947 9.726481l.003663.279907-.164398 257.364939c-.003532 5.522846-4.483544 9.997138-10.00639 9.993612-5.429239-.00347-9.845166-4.332963-9.989947-9.726481l-.003663-.279907.164402-257.364939c.003528-5.522846 4.48354-9.997138 10.006386-9.993612z"/></g></g></svg>