<?xml version="1.0" encoding="UTF-8"?>
<svg width="960px" height="960px" viewBox="0 0 960 960" version="1.1" xmlns="http://www.w3.org/2000/svg" xmlns:xlink="http://www.w3.org/1999/xlink">
    <!-- Generator: Sketch 60.1 (88133) - https://sketch.com -->
    <title>com.hiome/driver/icon</title>
    <desc>Created with Sketch.</desc>
    <g id="com.hiome/driver/icon" stroke="none" stroke-width="1" fill="none" fill-rule="evenodd">
        <path d="M712.995833,50 C720.15277,50 726.753413,53.8230837 730.319556,60.0055375 L730.511048,60.3450934 L956.515216,470.345093 C959.760648,476.232717 959.826882,483.347637 956.713916,489.285354 L956.515216,489.654907 L730.511048,899.654907 C727.05607,905.922672 720.521534,909.85768 713.385644,910 L657,910 C646.069364,910 637.186775,901.231271 637.002907,890.344489 L637,890 L637,843 L322,843 L322,890 C322,900.930636 313.231271,909.813225 302.344489,910 L247.004167,910 C239.84723,910 233.246587,906.176916 229.680444,899.994462 L229.488952,899.654907 L3.48478439,489.654907 C0.239351718,483.767283 0.173118398,476.652363 3.28608443,470.714646 L3.48478439,470.345093 L229.488952,60.3450934 C232.94393,54.0773281 239.478466,50.14232 246.614356,50 L712.995833,50 Z M701.183,90 L258.816,90 L43.837,480 L258.817,870 L282,870 L282,843 L278.983988,843 C275.343567,843 271.99074,841.021668 270.230575,837.835057 L270.230575,837.835057 L75.246588,484.835057 C73.5844707,481.825952 73.5844707,478.174048 75.246588,475.164943 L75.246588,475.164943 L270.230575,122.164943 C271.99074,118.978332 275.343567,117 278.983988,117 L278.983988,117 L681.016012,117 C684.656433,117 688.00926,118.978332 689.769425,122.164943 L689.769425,122.164943 L884.753412,475.164943 C886.415529,478.174048 886.415529,481.825952 884.753412,484.835057 L884.753412,484.835057 L689.769425,837.835057 C688.00926,841.021668 684.656433,843 681.016012,843 L681.016012,843 L677,843 L677,870 L701.182,870 L916.162,480 L701.183,90 Z M675.115,137 L284.884,137 L98.185,475 L386,475 L386,485 L98.185,485 L284.885,823 L675.114,823 L864.575,480 L675.115,137 Z M432.662715,558.512439 L441.337285,563.487561 L285.337285,835.487561 L276.662715,830.512439 L432.662715,558.512439 Z M530.351025,558.536552 L684.351025,830.536552 L675.648975,835.463448 L521.648975,563.463448 L530.351025,558.536552 Z M481,409 C520.212217,409 552,440.787783 552,480 C552,519.212217 520.212217,551 481,551 C441.787783,551 410,519.212217 410,480 C410,440.787783 441.787783,409 481,409 Z M481.5,438 C458.027898,438 439,457.027898 439,480.5 C439,503.972102 458.027898,523 481.5,523 C504.972102,523 524,503.972102 524,480.5 C524,457.027898 504.972102,438 481.5,438 Z M878,475 L878,485 L576,485 L576,475 L878,475 Z M676.662715,124.512439 L685.337285,129.487561 L529.337285,401.487561 L520.662715,396.512439 L676.662715,124.512439 Z M286.351025,124.536552 L440.351025,396.536552 L431.648975,401.463448 L277.648975,129.463448 L286.351025,124.536552 Z" id="Combined-Shape" fill="#000000" fill-rule="nonzero"></path>
    </g>
</svg>