<svg height="960" viewBox="0 0 960 960" width="960" xmlns="http://www.w3.org/2000/svg"><g fill="#000" fill-rule="evenodd"><path d="m474.009224 453.873901c-20.027604 126.449312 54.93946 243.860572 168.162285 261.793306 113.222824 17.932734 220.802814-70.565914 240.830417-197.015225 20.027604-126.449312-54.93946-243.860573-168.162285-261.793306-113.222825-17.932734-220.802814 70.565913-240.830417 197.015225zm237.701728-177.261459c101.747903 16.115285 169.915178 122.876911 151.537207 238.91085-18.37797 116.033939-116.200058 196.505433-217.947961 180.390148-101.747903-16.115284-169.915178-122.87691-151.537208-238.910849 18.377971-116.033939 116.200058-196.505433 217.947962-180.390149z" fill-rule="nonzero"/><path d="m439.608209 448.897717c-23.127605 146.021951 63.392903 281.527884 193.967625 302.208888 130.574722 20.681005 254.734251-81.456488 277.861856-227.478439s-63.392903-281.527884-193.967625-302.208888c-130.574722-20.681005-254.734251 81.456488-277.861856 227.478439zm274.733167-207.724673c119.0998 18.863556 198.820519 143.719854 177.342547 279.326432s-135.879599 229.716918-254.9794 210.853362c-119.0998-18.863555-198.820519-143.719853-177.342547-279.326431 21.477972-135.606579 135.879599-229.716918 254.9794-210.853363z" fill-rule="nonzero"/><path d="m755.632774 567.114336c4.882797 2.580723 6.748998 8.631102 4.168275 13.5139-34.705532 65.663815-98.602368 109.30458-169.123719 114.793855-5.506192.428594-10.317287-3.687613-10.74588-9.193805-.428594-5.506192 3.687613-10.317287 9.193805-10.74588 63.543371-4.94612 121.431176-44.48279 152.993619-104.199794 2.580723-4.882798 8.631102-6.748999 13.5139-4.168276zm30.011991-119.605659c1.784305 17.551099 1.56331 35.396037-.708591 53.242596-.697441 5.478633-5.704138 9.354556-11.182771 8.657115-5.478633-.69744-9.354555-5.704137-8.657115-11.18277 2.079569-16.33572 2.281665-32.654628.651037-48.694099-.558593-5.494526 3.442772-10.401548 8.937299-10.960141 5.494526-.558592 10.401548 3.442773 10.960141 8.937299zm-144.770213-183.699154c52.745304 16.20513 96.34609 54.182239 121.905603 104.948417 2.483597 4.932908.498038 10.945174-4.434871 13.428772-4.932909 2.483597-10.945175.498038-13.428772-4.434871-23.156971-45.994259-62.489015-80.253214-109.915665-94.824274-5.279302-1.621979-8.244148-7.216573-6.622169-12.495875s7.216572-8.244148 12.495874-6.622169z" fill-rule="nonzero"/><path d="m682.774833 503.023366c13.228968 2.095263 25.869096-8.3029 28.232516-23.224946s-6.444847-28.717301-19.673815-30.812563c-13.228968-2.095263-25.869096 8.302899-28.232516 23.224946-2.36342 14.922046 6.444847 28.7173 19.673815 30.812563z"/><path d="m508.064248 511.072783c14.469184 2.291694 28.294323-9.081296 30.879314-25.402285 2.584991-16.320988-7.049051-31.409547-21.518235-33.701241-14.469184-2.291693-28.294323 9.081297-30.879314 25.402285s7.049051 31.409548 21.518235 33.701241z"/><g fill-rule="nonzero"><path d="m825.89574 360.615942-79.38017 2.65298c-5.389816.180134-9.665975 4.601595-9.665975 9.99442v74.239365c0 5.369917 4.24115 9.781188 9.606916 9.992271l104.096892 4.095054c6.084613.239361 10.968833-4.96899 10.339542-11.025706-1.44831-13.939503-4.504347-27.732473-9.161376-41.366212-2.727557-7.985092-5.799662-16.338491-9.216268-25.061325l-1.220165-3.093989c-1.851705-4.663999-3.799964-9.43158-5.844771-14.30291-1.605957-3.825859-5.407688-6.262544-9.554625-6.123948zm-69.04674 22.318058 62.796-2.099.592783 1.450731c.656533 1.611464 1.301436 3.210083 1.934708 4.795852l1.251038 3.154401c3.500674 8.888908 6.627898 17.365006 9.381725 25.427004l.441679 1.309604c2.616912 7.859909 4.636928 15.760948 6.061839 23.70649l.079228.455918-82.539-3.247z"/><path d="m769.194162 489.224131h-22.344567c-5.522847 0-10 4.477153-10 10v77.768258c0 4.93975 3.606855 9.139411 8.489962 9.885332l77.406497 11.824262c4.060661.620288 8.087615-1.305751 10.153441-4.856257 8.473793-14.563791 14.485338-27.777284 18.011794-39.704185.843553-2.852996 1.647037-5.873561 2.410969-9.062413l.412771-1.756068c.068143-.295461.135959-.592314.20345-.89056l.401039-1.806186c.06619-.303817.132054-.609028.197594-.915633l.38935-1.856362c.128487-.624366.255678-1.254313.381579-1.889845l.373827-1.923355c.06166-.323353.122998-.648103.184013-.974252l.362236-1.973667c.05973-.331742.119139-.664882.178227-.999422l.350686-2.024039.34301-2.057651.335351-2.09129c.276274-1.756766.54459-3.548599.804998-5.375568l.308696-2.209232.301122-2.242987.293567-2.27677c.0483-.382278.096285-.765965.143956-1.151061.676806-5.467299-3.195723-10.452224-8.660591-11.148376l-80.169321-10.21251c-.419102-.053388-.841167-.080163-1.263656-.080163zm-.628162 19.999869 69.53 8.858-.086333.578922c-.110237.730957-.221781 1.455074-.334626 2.172346l-.342436 2.131274c-1.616222 9.850058-3.486795 18.357314-5.600533 25.506232l-.210234.701187c-2.488461 8.187097-6.447158 17.345506-11.887498 27.443409l-.69334 1.27363-62.092-9.485v-59.18z"/><path d="m826.041562 495.999988c5.42894.057655 9.801891 4.43055 9.893396 9.825235l.000898.27993-.872818 83c-.058075 5.522542-4.582058 9.952369-10.1046 9.894859-5.42894-.057655-9.801891-4.43055-9.893396-9.825235l-.000898-.27993.872818-83c.058075-5.522542 4.582058-9.952369 10.1046-9.894859zm.989748-134.000001c5.428914.060087 9.799945 4.434902 9.889081 9.829626l.000776.27993-.843534 77c-.060499 5.522516-4.586427 9.950356-10.108943 9.89047-5.428914-.060087-9.799945-4.434902-9.889081-9.829626l-.000776-.27993.843534-77c.060499-5.522516 4.586427-9.950356 10.108943-9.89047z"/><path d="m350.085439 152.06587-.540872.111024-1.112383.24083c-.188738.042202-.379124.085428-.571126.129666l-1.171159.277489c-.198341.048242-.398235.097473-.599648.147683l-1.22647.312896c-.207367.054074-.416191.109103-.626438.165074l-1.278317.347054c-.647447.179093-1.307134.366464-1.978195.561801l-1.35703.401204c-.457227.137213-.919253.277874-1.385821.42189l-1.413071.442022c-.237698.075317-.476466.15145-.716274.228386l-1.451062.471177c-.243836.080107-.488647.160994-.734402.242651l-1.485586.499081-1.506679.516988-1.526231.534341c-.255916.090472-.512582.181643-.769966.273503l-1.552673.559327-1.568376.575289-1.582539.590695-1.595162.605546-1.606247.619841-1.615791.63358-1.623795.646764c-.271215.108861-.542698.218249-.814419.328151l-1.632915.665496-1.63707.67729-1.639686.688527c-.273414.11566-.546872.231765-.820343.348304l-1.640722.704342-1.639489.714189-1.636715.723482-1.632401.732219c-.271622.122733-.543001.245808-.814103.369211l-1.623045.744281-1.614882.751628-.741379.349111-1.489933.71019c-.249025.119637-.498369.239889-.747985.360729l-1.500579.731843-1.504825.744521-1.50679.755793-1.506475.76566-1.503877.774121-1.499.781176-1.491841.786826-1.482401.79107-1.470681.793908-1.45668.795341-1.440397.795368-1.421833.793989-1.40099.791205-1.377864.787015-1.352458.781419-1.324771.774418-1.294803.766012-1.262554.756198-1.228024.744981-1.191213.732356-1.152122.718327-1.110749.702891c-.18155.115785-.361282.230867-.539147.345219l-1.044413.677103-.997338.658154c-.324347.21607-.640468.428748-.947982.637799-27.167731 18.46884-47.093671 43.174732-62.101606 82.336135-18.227503 47.562477-27.826131 114.656709-27.826131 207.010445 0 75.868596 13.282397 142.370375 37.162115 196.700313 20.629793 46.935868 48.578926 82.906587 77.848006 102.661888 3.539503 2.389003 8.22554 5.21571 12.955455 7.635766l1.256689.63402c.212888.10597.427356.212035.643195.318112l1.309796.635957c.22048.105799.441911.211446.664084.316858l1.340246.62901c.224296.104148.448915.207897.673644.311165l1.34804.613179 1.340648.59769 1.323188.578252 1.295658.554866 1.258058.527533c.205984.085425.409981.169546.611782.252282l1.182779.479128 1.120004.441923c.180877.070334.358719.138954.533316.205776 34.303851 13.12891 100.538061 22.991989 175.727586 26.140388 82.618832 3.459486 167.139962-1.366933 237.344432-14.92244 164.708138-31.80285 212.70438-100.446967 214.035147-310.396922l.025668-6.602791-.054916-6.440655-.094523-7.128425-.005171-.191596c-3.704551-119.350183-16.934121-186.439063-48.079953-231.492927-30.947845-44.767467-78.84012-67.769958-166.96437-84.785525-120.448991-23.257025-283.68251-24.753521-376.356083-6.775808zm170.14019 7.281234 1.975484.013908c71.063098.554336 142.521444 6.844216 203.235298 18.567217 83.47356 16.117584 126.999064 37.022729 154.304475 76.521249 28.039123 40.559868 40.694534 103.720811 44.43067 217.283647l.116951 3.716261.114673 9.760803.024355 3.326794c-.20103 108.201859-12.407714 173.0754-41.433264 215.863712-28.39266 41.855328-74.859845 65.543716-156.419742 81.291798-68.550712 13.236189-151.551872 17.975812-232.716022 14.577239-73.209913-3.065508-137.573974-12.650099-169.415512-24.836622l-.9736-.37909-1.04605-.419646-1.107022-.455636-1.156519-.487066-1.19454-.513931c-.201621-.087641-.404348-.176211-.607942-.265615l-1.230054-.545674-1.239384-.561132-1.23724-.572028c-.20539-.095993-.410213-.192249-.614229-.288674l-1.212504-.579815c-.799333-.38688-1.578109-.773419-2.321026-1.153532-3.948912-2.020457-7.96185-4.441137-10.876329-6.408278-25.914285-17.490966-51.533606-50.4632-70.727484-94.13215-22.736443-51.728814-35.471577-115.490579-35.471577-188.652728 0-90.105772 9.266909-154.8813 26.50168-199.853362 13.523984-35.289211 30.829707-56.746332 54.670086-72.953212l.41943-.28357.876229-.583223.924155-.603497.969803-.622365 1.013174-.639827 1.054265-.655883 1.09308-.670534 1.129615-.683778 1.163874-.695618 1.195853-.706051c.201848-.118466.404933-.237309.609208-.356498l1.239552-.719066 1.265837-.725984 1.943056-1.098875 1.321583-.737132 1.339894-.739131 1.355928-.739724 1.369684-.738912 1.381162-.736693 2.088279-1.097806 1.39989-.724998 1.403394-.71786 1.40462-.709316 1.403569-.699366 1.400239-.68801 1.394632-.675249 1.386747-.661083 1.425443-.668527 1.477428-.682695 1.484097-.675881 1.489251-.668544 2.240224-.987908 1.495505-.647901 1.495355-.638726 1.493689-.629025 1.490507-.6188 1.48581-.608049 1.479597-.596774 1.47187-.584973 2.189998-.854185 1.445919-.553176 1.432886-.539537 1.418339-.525375 1.402275-.510686 1.384696-.495474 1.365601-.479736c.225925-.078615.450991-.156553.675167-.233802l1.334118-.455145 1.311235-.438095c.433096-.143131.862126-.283333 1.286836-.420519l1.260922-.402419 1.233492-.383794c.203212-.062384.405218-.123971.605986-.184748l1.189505-.354872c.195692-.057498.390083-.114166.583141-.169992l1.142109-.324768c.187603-.052416.37381-.103968.55859-.154645l1.091303-.293484c.178945-.047136.356401-.093375.532334-.138707l1.037087-.261018.999048-.238718c.653016-.151595 1.279663-.287973 1.877919-.408435 5.354066-1.078066 11.044434-2.092583 17.037958-3.040727l2.787647-.432881c3.745243-.570864 7.60336-1.116428 11.566626-1.636032l2.992045-.384826 3.030752-.375029 3.068736-.365172c3.087485-.360221 6.230859-.705563 9.426862-1.035747l3.213426-.325121 3.247789-.314954 3.281426-.304726c1.099335-.099863 2.204156-.198012 3.314341-.294435l3.346531-.284083 3.377997-.27367 3.408738-.263193 3.438756-.252657c.575587-.041227 1.152395-.082014 1.730409-.122357l3.482424-.236734c2.3311-.154266 4.681004-.301405 7.048748-.441333l3.564874-.204474 3.590909-.193597c1.801843-.094069 3.613177-.184036 5.433596-.269866l3.652828-.166135c1.221567-.053532 2.44705-.105216 3.676329-.155041l3.699106-.143887c.618375-.023048 1.237669-.045629 1.857867-.067741l3.731912-.127038c.623753-.020233 1.248379-.039994 1.873864-.059283l3.76309-.110051c3.144292-.086968 6.309292-.162059 9.493114-.225112l3.829501-.069875c.639716-.010679 1.280155-.020875 1.921301-.030585l3.855247-.052425c7.726996-.091654 15.551547-.116057 23.447585-.066468z"/><path d="m342.059984 133.794777c-1.324478.261737-2.709561.564243-4.148154.904838l-1.456168.353193c-2.455798.609485-5.053667 1.322293-7.76076 2.126025l-1.6371.49305c-.274947.083961-.550921.168806-.827888.254522l-1.673464.524667c-.561621.17831-1.126954.36001-1.695737.544999l-1.716432.564738-1.73555.58388c-.290765.098875-.58226.198524-.874453.298932l-1.761273.611478c-.294854.103401-.59034.207537-.886426.312397l-1.783447.637736-1.79626.654498-1.807495.670664c-.302098.113092-.604598.226832-.907468.341209l-1.821392.693797c-.608434.233745-1.218084.469937-1.828686.708476l-1.834403.722558c-.306123.121567-.612418.243696-.918853.366374l-1.840023.742566-1.841799.755161-1.841997.767161-1.84062.778564c-.613135.261356-1.225778.524513-1.837665.789373l-1.833135.799586c-.305057.134083-.60986.268566-.914375.403437l-1.823382.813791c-.606469.272751-1.211526.546956-1.814909.822516l-1.705766.784963-1.610752.753412c-.26912.126865-.53854.25436-.808213.382456l-1.620703.775569-1.624544.788655c-.270954.132458-.541974.265405-.813015.398813l-1.626119.805757-1.624377.815473-1.620401.823841-1.614192.830861-1.60575.836534-1.595073.840859-1.582163.843835-1.56702.845463-1.549643.845744-1.530033.844677-1.508189.842262c-.249421.140101-.497838.280045-.745205.419804l-1.471236.836112-1.443808.830326c-.238224.137831-.475213.275364-.71092.412573l-1.398478.819121-1.365467.809967-1.330222.799464c-.218643.132294-.435723.264094-.651196.395372l-1.273167.781182c-.208854.129078-.416007.257579-.621412.385473l-1.211085.759868-1.166907.743973c-.190679.122596-.379424.244473-.566188.365604l-1.09645.717604c-.178657.118033-.35524.235263-.529704.351662l-.961695.645642c-17.265394 11.663818-32.096018 25.617372-44.744287 43.060863l-.76329 1.059253-30.866345 4.470988c-5.389852.78057-10.563537 2.65356-15.203984 5.504183l-1.085364.666911c-18.172066 11.231203-33.320195 23.768285-45.308768 37.765951l-.386174.452696-.777409.922126-.784202.94448-.79105.966889-.797954.989348-.804913 1.011862-.811928 1.034428-.818998 1.057046-.826125 1.079718-.8333057 1.102442-.8405432 1.125219-1.274506 1.730651-.8588792 1.182392-.8663109 1.205355-1.3135221 1.8512-.8851331 1.262989-.8927591 1.286136-.9004409 1.309335-.9081781 1.332587-.9159709 1.355891-1.3886894 2.07765-.9356961 1.414384-1.4185375 2.165637-.9557685 1.473207-1.4489066 2.254117-1.4673782 2.307444-.9886066 1.568009-1.4985807 2.396716-1.009582 1.62769-1.0180693 1.651654-1.5431394 2.52253-1.5625485 2.576746-1.5821452 2.631142-1.6019294 2.685715-1.6219011 2.740465-1.6420604 2.795395-1.6624072 2.850503-.5299065.912832-.3173002.55682c-3.335173 5.963323-5.0889851 12.68512-5.0889931 19.524853l-.0000909 41.348668-.022339.011715c-13.5047881 6.404443-22.886661 20.163216-22.886661 36.165156v48.528333.642852c.2515667 15.614168 9.4619979 29.119567 22.7965738 35.478191l.1124262.052753.0000909 42.350973c.0000078 6.651362 1.6586492 13.197734 4.8258092 19.046641l1.8440899 3.395544 1.8421403 3.36496 1.8036927 3.266541 1.3279037 2.38574 1.7378713 3.095991 1.2792355 2.25863 1.6739109 2.927582 1.2319631 2.133125.8102749 1.392457.8015364 1.368858 1.1860863 2.009228 1.1668521 1.956621.7673423 1.275333.7589837 1.25217 1.1229692 1.835017 1.1045895 1.783393.7263086 1.160395.7183298 1.137668 1.0627004 1.664084 1.0451753 1.613443 1.0279064 1.563097 1.0108939 1.513046.9941378 1.46329.977638 1.413829.9613946 1.364663.6320322.882606.6250028.860974.6180494.839428.6111718.817969.6043704.796599.5976447.775315.5909951.754119.6495403.81375 1.1444346 1.402009c15.482716 18.779227 33.561102 33.594281 54.078427 44.145402l1.155189.587979.884701.442716.576819.282879c5.40229 2.595746 11.321578 3.945497 17.3206 3.945936h9.468196l.362601.804233c22.356923 49.323295 52.857181 87.752781 86.372393 109.953967 4.400159 2.914758 9.992101 6.225286 15.786111 9.134736 1.452405.729323 2.971517 1.461713 4.513627 2.180721l1.548156.71394c.258765.118043.517763.235562.776793.352482l1.552944.693704c.516696.228429 1.0319.453847 1.543994.675647l1.525331.653932c.252128.106977.503072.212896.752632.317682l1.479127.614509c.972848.399795 1.917067.779022 2.819706 1.132808l1.321154.510989c.214456.081782.425907.161821.634154.240042 29.743559 11.172191 78.888981 19.719696 136.481169 24.299613l4.335081.336034c13.051727.985657 26.517208 1.768755 40.271655 2.333998 82.893899 3.406549 167.742957-1.348624 238.799877-14.813953l2.885034-.552471 2.858738-.559046c.474276-.093728.947466-.187735 1.419574-.282023l2.819693-.569114c.935592-.19084 1.86689-.382822 2.793931-.575963l2.768382-.582924c.91856-.195479 1.832897-.392138 2.743048-.589993l2.717927-.597173c.450907-.100133.900775-.20057 1.349611-.301313l2.680647-.608149c.889439-.203953 1.774781-.409149 2.656061-.615605l2.631689-.62317 2.607531-.630845 2.583587-.63863c.857228-.214187 1.710502-.429689 2.559855-.646526l2.53634-.654532c.420775-.109762.840579-.219862 1.259417-.330302l2.501465-.666747c.82998-.223622 1.656129-.448625 2.478483-.675027l2.455715-.683418c1.222201-.343825 2.435944-.690838 3.641349-1.041101l2.39973-.704878c1.194342-.354623 2.380427-.712538 3.558374-1.073805l2.345082-.727025c3.890505-1.219219 7.691489-2.476153 11.407407-3.773095l2.219379-.782985c11.782624-4.201718 22.703298-8.817817 32.908016-13.923451 32.31164-16.166193 57.630241-37.443623 76.785675-65.157438 35.139443-50.839254 48.788304-120.705942 49.272023-231.761282v-4.260103l-.117639-11.326364-.045478-2.204893c-3.797189-120.063054-17.684612-189.180247-52.540447-238.664521-19.022215-27.005537-44.038093-47.196905-76.272645-62.391553-1.732005-.816429-3.485159-1.619148-5.260739-2.408725l-1.783103-.785216c-2.387563-1.04117-4.815752-2.059309-7.287593-3.055759l-1.862112-.743292c-.311732-.123211-.624158-.246089-.937284-.368635l-1.887198-.731327c-.315949-.121233-.632609-.24214-.949986-.362724l-1.912923-.719646c-.640543-.238603-1.284003-.475934-1.930427-.712015l-1.948216-.70451-1.966287-.697131c-.987709-.346742-1.982301-.690763-2.983936-1.032136l-2.012707-.679233c-.674065-.225248-1.351307-.449339-2.031773-.672294l-2.051121-.665481-2.070754-.658793c-.346777-.109249-.694384-.218224-1.042827-.326928l-2.100734-.648997c-.35181-.107632-.704467-.214998-1.057978-.322101l-2.131352-.639484c-.713897-.212124-1.431254-.423217-2.15212-.6333l-2.173171-.62724-2.194506-.621307c-.735089-.206128-1.473781-.411287-2.216123-.6155l-2.238026-.609817-2.260212-.604262-2.282682-.59883-2.305435-.593526c-.386151-.098486-.773262-.196756-1.161338-.294813l-2.340097-.585805-2.363559-.580814-2.387306-.57595c-.399879-.095593-.800759-.190989-1.202647-.286189l-2.423457-.568889-2.447913-.564337-2.472653-.559913-2.497675-.555614c-.418381-.092251-.837815-.184328-1.25831-.276234l-2.535743-.549401-2.561475-.545417c-.429072-.090578-.859229-.180994-1.290476-.271253l-2.600605-.539675c-.43563-.089637-.872362-.17912-1.310201-.268454l-2.640375-.534216-2.667242-.530735-2.694393-.527379c-.451344-.087624-.903831-.175113-1.357467-.26247l-2.735652-.522581c-122.57793-23.228592-288.016626-24.495151-381.980166-5.926494zm374.532684 45.227067c154.240891 29.228743 194.638396 77.712223 202.046014 287.841114l.222703 6.735025.070741 5.18682.067874 7.365094v.203531c-.385157 203.567362-44.998351 264.862778-201.294977 294.481083-145.165475 27.508946-334.602741 13.653309-398.375105-10.300683l-1.208917-.464655-1.184241-.470158-1.347489-.548633-1.48329-.618779-1.591641-.680598-.827876-.360878-1.272231-.564114-.86343-.389755-1.30948-.602549-.877539-.412125-.87718-.419251-1.307589-.639962-.431965-.215756c-.301552-.151423-.600922-.3037-.897735-.456478l-.882393-.459487-.864805-.460387-.844967-.45918-.82288-.455863-.798546-.450438-.771963-.442905-1.103181-.645622-1.030722-.616812-1.248462-.765303-.832135-.521918-.956137-.61295-.592232-.388282c-28.624043-18.961172-60.305718-58.097282-81.928906-117.40833l-36.361256-.00266-.884701-.442716c-15.891273-8.032521-29.981555-19.501718-42.270846-34.407591l-.680886-.83164-.450139-.559602-.459605-.583157-.469072-.60671-.478539-.630263-.488006-.653818-.497472-.677371-.50694-.700925-.778159-1.095551-.799459-1.148547-1.099079-1.613833-.849159-1.272204-.57794-.877578-.587407-.901132-.89886-1.395861-.92016-1.448856-.94146-1.501853-.639473-1.030677-1.307348-2.132016-1.005361-1.66084-1.026661-1.713836-1.402014-2.367553-1.076362-1.837493-1.097661-1.89049-1.118962-1.943485-1.525082-2.673751-1.56295-2.767966-1.197062-2.137804-1.629217-2.932842-1.246762-2.261461-1.268063-2.314456-1.723884-3.16838-.436888-.806816-.000091-77.604926-22.909-.919796v-48.528333l22.909.653129.000091-78.178622 1.037771-1.785691 2.047917-3.499542 2.011083-3.403754 1.97425-3.307965 1.456516-2.418113 1.909791-3.140335 1.408172-2.292391.927271-1.498326.918062-1.47438 1.359828-2.166668.895041-1.414512 1.325297-2.076867 1.304578-2.022986 1.283859-1.969105.844395-1.282803 1.249328-1.879303.821374-1.222935.812167-1.198988.802958-1.175041 1.187171-1.717661.779937-1.115173 1.15264-1.627859.756916-1.055305 1.118109-1.538058 1.09739-1.484176.720082-.959518.710875-.93557.701666-.911623.692457-.887676.68325-.863728.674041-.839782c.111573-.137968.222762-.274938.333567-.410911l.660229-.803861c.10927-.131981.218157-.262965.326661-.39295l.646416-.767941c.106968-.125994.213553-.250991.319755-.37499 9.142543-10.674688 21.128536-20.594683 35.957977-29.759984l.992842-.609902 35.533281-5.146005.518586 25.853131c15.101324-39.607267 35.00325-60.355001 54.651155-74.136896l1.240536-.861284 1.239577-.843426.895322-.598598.581779-.382052 1.279072-.822446 1.056169-.664639 1.135184-.702528 1.210588-.737635 1.282383-.769964 1.350568-.799513 1.415142-.826281 1.476106-.850272 1.016156-.578803 1.569691-.884077 1.075203-.598767 1.653246-.910162 1.698565-.922107 1.155772-.620002 1.766076-.935839 1.801768-.940371 1.219226-.628059 1.853233-.941749 1.879299-.938869 1.265564-.62294 1.914719-.927892 1.285834-.613049 1.29207-.607652 1.297237-.60143 1.528584-.698267 1.533627-.690268 1.537265-.681819c.256436-.112907.512965-.225443.769558-.337599l1.540089-.668295 1.540215-.658716 1.538937-.648684 1.536253-.638201 1.532166-.627264 1.526672-.615878 1.519775-.604038 2.263657-.882869 1.496385-.572463 1.484571-.559042 1.471352-.545168 1.456728-.530844 1.4407-.516068c.238702-.084755.476679-.168875.713899-.252351l1.414023-.493055 1.394482-.477149 1.373536-.460791c.227099-.07541.453267-.15012.678475-.22412l1.339484-.435406 1.315027-.417919 1.289165-.399978 1.261897-.381587 1.233227-.362743 1.203149-.343448 1.171669-.323701c.192576-.052279.383783-.103717.573589-.154304l1.121813-.293232c.184092-.047145.366725-.09342.547871-.138815l1.068796-.261747 1.031696-.240193c.168779-.038211.335954-.075504.501496-.111872l.973411-.207013c.158889-.032624.316087-.064303.471563-.095028 81.042844-16.015326 240.342007-17.973753 366.778029 5.98595z"/><path d="m561.598747 179.075331-.028297.008026c-59.470749 16.961831-96.178889 43.406668-119.556584 88.329612-22.658687 43.541288-33.312307 105.261807-36.885039 204.697035l-.24415 7.290019-.048317 3.098927-.102361 10.290605v.247577c.18862 97.881576 10.248152 161.837688 34.171252 207.665757 24.652493 47.225324 64.560845 76.04054 127.587108 93.937645 3.610721 1.013205 10.047035 1.971186 18.403424 2.804629l2.041936.1976 2.112884.192604 2.181051.187397c.369035.030787.740794.061348 1.11522.091678l2.278086.179186c.769719.058783 1.54964.11661 2.3393.173444l2.397731.167491c.404337.027408.810992.054558 1.219908.081447l2.480162.158162 2.531639.151676c.426074.024727.854178.049175 1.284253.07334l2.603638.141548 2.648161.134531 2.689901.127299 2.72886.119856 2.765037.112198 2.798433.10433c.469033.01672.939343.033104 1.41087.049146l2.84331.092126c.476165.01466.953433.028969 1.431744.042925l2.881928.079442c.482254.01252.965436.024676 1.449488.036464l2.914288.06628c.487299.0103.975353.020222 1.464103.029763l2.940388.05264 2.954311.043278c.493391.006422.987246.012444 1.481507.018063l2.96998.02884c.495654.003988.991599.007564 1.487776.010723l2.97939.017629h2.982185 1.491272l2.981164-.01405c.993183-.005782 1.985673-.013355 2.977006-.022753l2.970065-.03371c.494278-.006544.988151-.013552 1.481561-.021031l2.954439-.050545 2.940545-.062035 2.923868-.073737c.485767-.013277.970724-.02705 1.454812-.041324l2.893638-.09169 2.870008-.103925 2.843595-.116372c.471577-.020445.941937-.041417 1.411023-.062921l1.301766-.061116 2.620002-.132866 2.640044-.146706c.44155-.025582.883838-.051724 1.326818-.078418l2.665787-.166708c.445553-.028865.8917-.058264 1.338394-.08819l2.686348-.185797 2.697175-.198017 2.705699-.209831 2.711919-.22124 2.715836-.232242 2.717448-.24284 2.716758-.253032 2.713763-.262818 2.708465-.2722 2.700863-.281175c.449382-.047588.898352-.095533 1.346861-.143827l2.685141-.293879 2.671781-.30184 2.656116-.309398 2.638148-.316548 2.617877-.323294 2.595301-.329634c.430541-.055445.860045-.111137 1.288465-.167068l2.557118-.338385 2.528785-.343711 2.498146-.348632 2.465205-.353148 2.429959-.357258 2.392411-.360963 2.352558-.364262 2.310401-.367156c.381426-.061411.761-.122926 1.138673-.184536l2.242848-.370737 2.194932-.372616c.361702-.062237.72131-.124536 1.078779-.186887l2.11874-.374677 2.065066-.375543c.339577-.06264.676822-.1253 1.011686-.18797l1.980235-.376083c.32515-.062679.647825-.125353.967974-.188011l1.890221-.375711 1.827333-.374955c.299186-.062407.595657-.124765.889363-.187067l1.72868-.373062c1.694739-.372245 3.286507-.741837 4.764936-1.10695l1.440266-.363554c2.803438-.723851 5.1397-1.427358 6.925857-2.095924 55.756841-20.673662 91.714927-50.249775 114.13011-95.225264 21.737287-43.615309 31.225215-102.491197 31.815167-189.583006l.025084-6.606511-.054816-5.819287-.07521-5.846207-.031597-1.441484c-3.292399-97.772152-13.662017-158.51123-36.087249-202.092968-23.136632-44.964291-59.64597-72.476705-119.220399-91.984225-1.980235-.65478-4.820206-1.345385-8.364274-2.050982l-1.454811-.282988c-.248604-.047282-.500245-.094618-.754877-.142002l-1.563316-.284831-1.632885-.28569-1.700242-.286252-1.765384-.286517-1.828314-.286487-1.88903-.286159c-.319775-.047649-.641987-.095273-.966591-.142864l-1.975953-.285113-2.031135-.284045-2.084103-.282681-2.134859-.281021-2.183399-.279063-2.229727-.27681-2.273842-.274261-2.315743-.271414-2.355429-.268273-2.392904-.264834-2.428163-.261099-2.46121-.257068-2.492044-.25274-2.520663-.248117-2.547068-.243196-2.571262-.23798-2.59324-.232467-2.613006-.226658-2.630558-.220553-2.645897-.21415-2.659021-.207453-2.669932-.200458-2.678631-.193167-2.685114-.18558c-.447937-.030281-.896051-.060234-1.344298-.089852l-2.69069-.173644-2.691641-.165316-2.690379-.156692-2.686901-.147771-2.681212-.138554-2.673307-.129041-2.663191-.119231-2.65086-.109125c-.440659-.017329-.880713-.034225-1.320114-.050681l-2.628213-.093411c-.436609-.014673-.872473-.028894-1.307546-.042656l-1.431496-.043939-2.880938-.080067-2.902649-.06979c-.485437-.010785-.971667-.021148-1.458635-.031093l-2.930228-.054682c-.4897-.008286-.980028-.016162-1.470928-.02363l-2.951822-.039944-2.962893-.030324c-.49459-.004261-.989531-.008128-1.484767-.011605l-2.974513-.016201c-.496194-.007085-.992573-.007085-1.48908-.007085h-2.980147l-2.980578.006515-2.97835.015314-2.973462.023948-2.965913.03242c-.493542.0061-.986658.012546-1.479294.019334l-2.949603.044817-2.935405.052877-2.918546.060772-2.899029.068504-4.306128.116892-2.838595.087114-4.203011.144037-2.761539.104697-2.726061.111442-2.687923.118025-2.647126.124441-2.603668.130695c-.430176.022294-.858429.044842-1.284706.06764l-2.533495.139767-2.483387.145608-2.43062.151287-2.375192.156801c-.391099.026584-.779777.053391-1.16598.080417l-2.287064.164764c-.376079.02789-.74957.055994-1.12042.084306l-2.192951.172357-2.126884.177214c-.348827.029932-.694791.060059-1.037836.090378l-2.022796.184191c-8.609818.807917-15.171445 1.741072-18.7109 2.739322zm2.348397 20.142986 3.080517-.893911c1.873775-.52847 5.071611-1.048117 9.313321-1.539567l1.539963-.172251 1.623913-.169719 1.705128-.167 1.783603-.16409 1.859343-.160991 1.932343-.157703 2.002608-.154226 2.070135-.15056 2.134924-.146703 2.196975-.142658 2.25629-.138424c.380839-.022707.764036-.04523 1.149533-.067564l2.340129-.131717 2.392599-.12701 3.681294-.181273 2.511801-.114412 2.55469-.109042 3.906466-.153079 2.649938-.094789 2.683248-.088755 2.713819-.082534 2.741653-.076122 2.76675-.069522 2.789109-.062732 2.80873-.055753 2.825615-.048584 2.839762-.041227 2.851171-.03368 2.859844-.025943 2.865778-.018018 2.868975-.011502h2.869436 1.434034l2.864993.013585 2.858608.01999 2.849488.028955 2.837629.038112 2.823033.047457c.469137.008699.937551.017795 1.405187.027292l2.796006.06183 2.774567.071648c.460489.01277.919971.025957 1.378388.039565l2.625561.083 2.52072.089692 2.536969.099923 2.550953.109834c.426199.019114.852886.038628 1.280014.058535l2.567686.124106 3.866429.203151 2.584252.146298 2.586916.154617 2.587317.162618 2.585452.1703 2.581325.177664c.429751.030206.859235.060706 1.288407.091493l3.852801.284651 2.555356.197844 2.542171.203933 3.783584.316621 2.499304.217763 2.478196.222737 2.454823.227394 3.633458.349123 3.568132.357808 2.33869.242832 2.303997.245895 2.267039.24864 2.227817.251066 2.186332.253173 2.142582.254962 2.096567.256433 2.04829.257584 1.997747.258418 1.944941.258933 1.889871.259129 1.832536.259006 1.772937.258565 1.711075.257806 1.646947.256728 1.580557.255332 1.511902.253616c.246136.042108.489318.084132.729497.126065l1.404674.250446c.227982.041541.452868.082977.67461.124301l1.292352.24656c.626937.122558 1.224731.243996 1.792111.364134l1.093828.238488c1.578779.354973 2.876178.69717 3.857811 1.021751 103.917453 34.027593 134.819083 92.403288 141.378865 270.324149l.188068 5.308554.026761 1.23367.073301 5.723526.053988 5.733443-.025222 6.362432c-1.10994 163.849272-33.786351 229.413651-132.927654 266.173604-1.630783.610403-3.915945 1.271979-6.748719 1.965261l-1.345929.322157c-.230673.054044-.464488.108258-.701399.162633l-1.458206.328113-1.530143.331552-1.599746.334567-1.667016.337154-1.731955.339318c-.293941.056709-.59049.113491-.8896.170337l-1.824988.341765c-.309154.057064-.620772.114174-.934804.171322l-1.912773.343255-1.96838.343717c-.332568.057301-.667356.114604-1.004314.171899l-2.047418.343612c-.34545.05723-.692973.114436-1.042521.171607l-2.121208.342551-2.167484.341311-2.211429.339646-2.25304.337556-2.29232.33504-2.329266.3321-2.36388.328733-2.396162.324941-2.42611.320725-2.453727.316082c-.411126.05227-.823305.104329-1.23649.156168l-2.490777.308321-2.512561.302616-2.532013.296485-2.549133.289929-2.563919.282947c-.428422.046552-.857364.092796-1.286776.138722l-2.581725.271677-2.590681.263632c-.432396.043245-.865069.086137-1.297969.128666l-2.59974.250767-2.602863.241659-2.603654.232125c-.433879.037869-.867693.075324-1.301395.112355l-2.600466.217026-2.595427.20643c-.432021.033499-.863735.066538-1.295093.099108l-2.583492.189737-2.572619.178077-2.559415.16599-2.543877.15348-2.526007.140543-2.505805.127182c-.415821.02006-.830703.039545-1.244597.058447-24.194563 1.109139-50.349817.879753-74.450978-.4007l-3.092083-.1713-3.030702-.181655-3.544314-.23013-3.989613-.282869-1.656665-.125279-3.728526-.300051-3.029599-.264005-2.861207-.268326-2.245522-.225558-2.110609-.226179-1.967525-.225719-1.816273-.224178-1.656849-.221555-.914187-.131225-1.384779-.21511-.978135-.168228-.655206-.123555-.586048-.121053-.351407-.079198-.319363-.077913-.286796-.076559c-110.804695-31.464444-146.131701-97.330327-147.170694-276.898528l-.021013-5.605819.100657-10.134708.046344-2.990679.235701-6.956989c6.591536-183.453015 36.963368-243.523869 138.830443-273.587694z"/><path d="m259.718895 407.702685c-30.156826 0-52.955993 32.464031-52.955993 71.165598s22.799167 71.165598 52.955993 71.165598c30.156825 0 52.955992-32.464031 52.955992-71.165598s-22.799167-71.165598-52.955992-71.165598zm0 20c17.291053 0 32.955992 22.305511 32.955992 51.165598s-15.664939 51.165598-32.955992 51.165598c-17.291054 0-32.955993-22.305511-32.955993-51.165598s15.664939-51.165598 32.955993-51.165598z"/><path d="m269.057154 407.702685c27.905833 0 48.286863 32.559937 48.286863 71.165598s-20.38103 71.165598-48.286863 71.165598c-5.522848 0-10-4.477152-10-10 0-5.42924 4.326671-9.847931 9.720095-9.996158l.279905-.003842c14.384667 0 28.286863-22.209605 28.286863-51.165598 0-28.666434-13.625542-50.720732-27.855481-51.158951l-.431382-.006647c-5.522848 0-10-4.477153-10-10 0-5.522848 4.477152-10 10-10z"/></g><path d="m23.7951034 418.151978h36.8752778v47.891725h-36.8752778c-13.2249346 0-23.94586241-10.720928-23.94586241-23.945863s10.72092781-23.945862 23.94586241-23.945862z"/><path d="m178.991591 533.951087c5.516044-.274046 10.20984 3.975433 10.483887 9.491477.269401 5.422552-3.832682 10.050492-9.212107 10.46616l-.27937.017726-75.595432 3.755711c-5.516044.274046-10.2098399-3.975433-10.4838864-9.491477-.2694016-5.422552 3.8326816-10.050492 9.2121074-10.46616l.279369-.017726z" fill-rule="nonzero" transform="matrix(1 0 0 -1 0 1091.633248)"/><path d="m179.487796 350.706161c5.522848 0 10 4.477152 10 10 0 5.42924-4.32667 9.847931-9.720095 9.996158l-.279905.003842h-75.595432c-5.5228474 0-9.9999999-4.477153-9.9999999-10 0-5.42924 4.3266708-9.847932 9.7200949-9.996158l.279905-.003842z" fill-rule="nonzero" transform="matrix(1 0 0 -1 0 721.412322)"/><path d="m172.066296 417.987484-106.91354 4.469079c-5.3557198.223874-9.582356 4.630878-9.582356 9.991275v56.352061c0 5.639107 4.660113 10.162929 10.2967366 9.995596l106.9135404-3.173913c5.404919-.160454 9.703263-4.588296 9.703263-9.995596v-57.647227c0-5.68671-4.735896-10.228777-10.417644-9.991275zm-9.583296 20.417516v37.513l-86.913 2.58v-36.46z" fill-rule="nonzero" transform="matrix(1 0 0 -1 0 916.778568)"/><ellipse cx="848.5" cy="267.5" rx="14.5" ry="10.5" transform="matrix(.79863551 .60181502 -.60181502 .79863551 331.843288 -456.775046)"/></g></svg>