<?xml version="1.0" encoding="utf-8"?>
<!-- Generator: Adobe Illustrator 21.0.0, SVG Export Plug-In . SVG Version: 6.00 Build 0)  -->
<svg version="1.1" id="Layer_1" xmlns="http://www.w3.org/2000/svg" xmlns:xlink="http://www.w3.org/1999/xlink" x="0px" y="0px"
	 viewBox="0 0 258.2 258.2" style="enable-background:new 0 0 258.2 258.2;" xml:space="preserve">
<g>
	<path d="M249.7,6.4H8.5c-1.2,0-2.1,0.9-2.1,2.1v30v59.5v1.4v58.1v1.4v59.5v31.2c0,1.2,0.9,2.1,2.1,2.1h241.1c1.2,0,2.1-0.9,2.1-2.1
		v-31.2v-90.7V38.6v-30C251.8,7.4,250.8,6.4,249.7,6.4z M7.9,40h48.3v58.1H7.9V40z M56.2,99.5v58.1H7.9V99.5H56.2z M56.2,159v58.1
		H7.9V159H56.2z M202,129.3h48.3v87.8H202V129.3z M202,127.8V40h48.3v87.8H202z M200.6,38.6v89.2v90.7h49.8v31.2
		c0,0.4-0.3,0.7-0.7,0.7H8.5c-0.4,0-0.7-0.3-0.7-0.7v-31.2h49.8V159v-1.4V99.5v-1.4V38.6H7.9v-30c0-0.4,0.3-0.7,0.7-0.7h241.1
		c0.4,0,0.7,0.3,0.7,0.7v30H200.6z"/>
	<path d="M254,0H4.3C1.9,0,0,1.9,0,4.3V254c0,2.3,1.9,4.3,4.3,4.3H254c2.3,0,4.3-1.9,4.3-4.3V4.3C258.2,1.9,256.3,0,254,0z
		 M255.4,254c0,0.8-0.6,1.4-1.4,1.4H4.3c-0.8,0-1.4-0.6-1.4-1.4V4.3c0-0.8,0.6-1.4,1.4-1.4H254c0.8,0,1.4,0.6,1.4,1.4V254z"/>
	<path d="M177.4,113.1c0.4,0,0.8-0.2,1-0.4c0.3-0.3,0.4-0.6,0.4-1c0-0.4-0.2-0.8-0.4-1c-0.3-0.3-0.6-0.4-1-0.4c-0.4,0-0.8,0.2-1,0.4
		c-0.3,0.3-0.4,0.6-0.4,1c0,0.4,0.2,0.8,0.4,1C176.7,112.9,177,113.1,177.4,113.1z"/>
	<path d="M66.3,38.6v179.9h125.5V38.6H67H66.3z M118.9,143.8c-0.4,0.5-0.8,1-1.1,1.2c-0.3,0.3-0.5,0.5-0.7,0.5
		c-0.9,0.1-9.7,0.1-10.6,0c-0.1,0-0.3-0.2-0.6-0.5c-0.3-0.3-0.6-0.7-1.1-1.2l-0.2-0.2l0.2-0.2c0.5-0.5,0.8-1,1.1-1.2
		c0.3-0.3,0.5-0.5,0.6-0.5l0,0c2.7,0,8.3-0.3,10.6,0c0.1,0,0.3,0.2,0.7,0.5c0.3,0.3,0.6,0.7,1.1,1.2l0.1,0.2L118.9,143.8z
		 M106.4,130.5L106.4,130.5c-0.3-0.3-0.6-0.6-0.8-0.9c-0.2-0.3-0.5-0.6-0.7-0.9l-0.1-0.2l0.1-0.2c0.3-0.3,0.5-0.6,0.7-0.9
		c0.2-0.3,0.5-0.5,0.7-0.8l0.1-0.1h0.1h10.9l0.1,0.1c0.2,0.2,0.5,0.5,0.7,0.8c0.2,0.3,0.5,0.6,0.7,0.9l0.1,0.2l-0.1,0.2
		c-0.3,0.3-0.5,0.6-0.7,0.9c-0.2,0.3-0.5,0.5-0.7,0.8l-0.1,0.1H106.4z M167.5,143.8c-0.4,0.5-0.8,1-1.1,1.2
		c-0.3,0.3-0.5,0.5-0.7,0.5c-0.9,0.1-9.7,0.1-10.6,0c-0.1,0-0.3-0.2-0.6-0.5c-0.3-0.3-0.6-0.7-1.1-1.2l-0.2-0.2l0.2-0.2
		c0.5-0.5,0.8-1,1.1-1.2c0.3-0.3,0.5-0.5,0.6-0.5l0,0c2.7,0,8.3-0.3,10.6,0c0.1,0,0.3,0.2,0.7,0.5c0.3,0.3,0.6,0.7,1.1,1.2l0.1,0.2
		L167.5,143.8z M153.3,128.5l0.1-0.2c0.3-0.3,0.5-0.6,0.7-0.9c0.2-0.3,0.5-0.5,0.7-0.8l0.1-0.1h0.1H166l0.1,0.1
		c0.2,0.2,0.5,0.5,0.7,0.8c0.2,0.3,0.5,0.6,0.7,0.9l0.1,0.2l-0.1,0.2c-0.3,0.3-0.5,0.6-0.7,0.9c-0.2,0.3-0.5,0.5-0.7,0.8l-0.1,0.1
		h-11l-0.1-0.1c-0.2-0.2-0.5-0.5-0.7-0.8c-0.2-0.3-0.5-0.6-0.7-0.9L153.3,128.5z M184.1,111.3c1.3,0,2.3,0.4,3.2,1.1
		c0.5,0.5,0.8,1.1,1.1,2l-2.1,0.5c-0.1-0.5-0.4-1-0.8-1.3c-0.4-0.3-0.9-0.5-1.4-0.5c-0.8,0-1.4,0.3-1.9,0.8
		c-0.5,0.6-0.7,1.5-0.7,2.7c0,1.3,0.2,2.3,0.7,2.9c0.5,0.6,1.1,0.9,1.9,0.9c0.6,0,1.1-0.2,1.5-0.5c0.4-0.4,0.7-0.9,0.9-1.7l2.1,0.6
		c-0.3,1.2-0.8,2-1.6,2.6c-0.7,0.6-1.7,0.8-2.8,0.8c-1.4,0-2.6-0.5-3.5-1.4c-0.9-1-1.4-2.3-1.4-3.9c0-1.8,0.5-3.1,1.4-4.1
		C181.4,111.8,182.6,111.3,184.1,111.3z M175.9,110.2c0.4-0.4,0.9-0.6,1.5-0.6c0.6,0,1.1,0.2,1.5,0.6c0.4,0.4,0.6,0.9,0.6,1.5
		c0,0.6-0.2,1.1-0.6,1.5c-0.4,0.4-0.9,0.6-1.5,0.6c-0.6,0-1.1-0.2-1.5-0.6c-0.4-0.4-0.6-0.9-0.6-1.5
		C175.3,111.1,175.5,110.6,175.9,110.2z M167.9,129l0.2,0.1c0.5,0.4,0.9,0.8,1.2,1.1c0.3,0.3,0.5,0.5,0.5,0.7c0.1,1,0.1,9.7,0,10.6
		c0,0.1-0.2,0.3-0.5,0.6c-0.3,0.3-0.7,0.6-1.2,1.1l-0.2,0.2l-0.2-0.2c-0.5-0.5-1-0.8-1.2-1.1c-0.3-0.3-0.5-0.5-0.5-0.6
		c-0.1-0.9-0.1-9.7,0-10.6c0-0.1,0.2-0.4,0.5-0.7c0.3-0.3,0.7-0.6,1.2-1.1L167.9,129z M153.4,113.3c0.5-0.5,0.8-1,1.1-1.2
		c0.3-0.3,0.5-0.5,0.6-0.5l0,0c2.7,0,8.3-0.3,10.6,0c0.1,0,0.3,0.2,0.7,0.5c0.3,0.3,0.6,0.7,1.1,1.2l0.1,0.2l-0.1,0.2
		c-0.4,0.5-0.8,0.9-1.1,1.2c-0.3,0.3-0.5,0.5-0.7,0.5c-0.9,0.1-9.7,0.1-10.6,0c-0.1,0-0.3-0.2-0.6-0.5c-0.3-0.3-0.6-0.7-1.1-1.2
		l-0.2-0.2L153.4,113.3z M151,115.6c0-0.1,0.2-0.3,0.5-0.7c0.3-0.3,0.7-0.6,1.2-1.1l0.2-0.1l0.2,0.1c0.5,0.4,1,0.8,1.2,1.1
		c0.3,0.3,0.5,0.5,0.5,0.7c0.1,0.9,0.1,9.8,0,10.6c0,0.1-0.2,0.3-0.5,0.6c-0.3,0.3-0.7,0.6-1.2,1.1l-0.2,0.2l-0.2-0.2
		c-0.5-0.5-1-0.8-1.2-1.1c-0.3-0.3-0.5-0.5-0.5-0.6C150.9,125.5,150.9,116.5,151,115.6z M144.2,143.1L144.2,143.1
		c0.5-0.6,0.9-1.1,1.3-1.4c0.4-0.3,0.7-0.5,1-0.5h0.7c0.3,0,0.6,0.2,1,0.5c0.3,0.3,0.7,0.7,1.2,1.3l0.1,0.1v0.3l-0.1,0.1
		c-0.5,0.6-0.9,1-1.2,1.3c-0.4,0.3-0.7,0.5-1,0.5h-0.7c-0.3,0-0.6-0.2-1-0.5c-0.3-0.3-0.7-0.7-1.2-1.3l-0.1-0.1V143.1z M137.9,116.1
		l3.9-3.7v0.7v13.8c0,0.1-0.2,0.4-0.5,0.7c-0.3,0.3-0.7,0.7-1.2,1.2l-0.1,0.1h-0.1c-0.1,0-0.4-0.2-0.7-0.5c-0.3-0.3-0.7-0.7-1.2-1.2
		l-0.1-0.1V116.1z M137.9,131.5c0-0.1,0.2-0.4,0.5-0.7c0.3-0.3,0.7-0.7,1.2-1.2l0.1-0.1h0.1c0.1,0,0.4,0.2,0.7,0.5
		c0.3,0.3,0.7,0.7,1.2,1.2l0.1,0.1v14.1h-0.3c-0.1,0-0.5-0.3-1.1-0.9c-0.5-0.5-1.3-1.4-2.4-2.5l-0.1-0.1V131.5z M119.4,113.8
		l0.2,0.1c0.5,0.4,0.9,0.8,1.2,1.1c0.3,0.3,0.5,0.5,0.5,0.7c0.1,0.9,0.1,9.8,0,10.6c0,0.1-0.2,0.3-0.5,0.7c-0.3,0.3-0.7,0.6-1.2,1.1
		l-0.2,0.2l-0.2-0.2c-0.5-0.4-0.9-0.8-1.2-1.1c-0.3-0.3-0.5-0.5-0.5-0.7c-0.1-0.8-0.1-9.8,0-10.6c0-0.1,0.2-0.4,0.5-0.7
		c0.3-0.3,0.7-0.6,1.2-1.1L119.4,113.8z M104.8,113.3c0.5-0.5,0.8-1,1.1-1.2c0.3-0.3,0.5-0.5,0.6-0.5l0,0c2.7,0,8.3-0.3,10.6,0
		c0.1,0,0.3,0.2,0.7,0.5c0.3,0.3,0.6,0.7,1.1,1.2l0.1,0.2l-0.1,0.2c-0.4,0.5-0.8,0.9-1.1,1.2c-0.3,0.3-0.5,0.5-0.7,0.5
		c-0.9,0.1-9.7,0.1-10.6,0c-0.1,0-0.3-0.2-0.6-0.5c-0.3-0.3-0.6-0.7-1.1-1.2l-0.2-0.2L104.8,113.3z M102.5,130.7
		c0-0.1,0.2-0.3,0.5-0.6c0.3-0.3,0.7-0.6,1.2-1.1l0.2-0.2l0.2,0.2c0.5,0.5,1,0.8,1.2,1.1c0.3,0.3,0.5,0.5,0.5,0.6
		c0.1,0.9,0.1,9.7,0,10.6c0,0.1-0.2,0.3-0.5,0.6c-0.3,0.3-0.7,0.6-1.2,1.1l-0.2,0.2l-0.2-0.2c-0.5-0.5-1-0.8-1.2-1.1
		c-0.3-0.3-0.5-0.5-0.5-0.6C102.3,140.4,102.3,131.6,102.5,130.7z"/>
	<path d="M234.5,168.8c-0.3-0.2-0.8-0.1-1,0.2l-5.8,9.3L222,169c-0.2-0.3-0.6-0.4-1-0.2s-0.4,0.6-0.2,1l7,11.2l7-11.2
		C234.9,169.5,234.8,169,234.5,168.8z"/>
	<polygon points="26.3,129.7 32.6,129.7 32.6,128.2 26.3,128.2 26.3,124 33.6,124 33.6,122.4 24.6,122.4 24.6,135.8 26.3,135.8 	"/>
	<path d="M26.1,184.5l3.9,11.4h1.6l3.9-11.2v11.2h1.7v-13.3h-2.4l-3.2,9.3c-0.3,0.9-0.6,1.7-0.7,2.1c-0.1-0.4-0.3-1.1-0.6-2
		l-3.2-9.4h-2.6v13.3h1.7V184.5z"/>
	<path d="M29.6,60.5c-4.7,0-8.5,3.8-8.5,8.5c0,4.7,3.8,8.5,8.5,8.5s8.5-3.8,8.5-8.5C38.2,64.3,34.3,60.5,29.6,60.5z M29.6,76.2
		c-3.9,0-7.1-3.2-7.1-7.1s3.2-7.1,7.1-7.1s7.1,3.2,7.1,7.1S33.6,76.2,29.6,76.2z"/>
	<polygon points="30.3,63.7 28.9,63.7 28.9,69.8 32.6,69.8 32.6,68.3 30.3,68.3 	"/>
	<path d="M234.7,87.3l-7-11.2l-7,11.2c-0.2,0.3-0.1,0.8,0.2,1c0.1,0.1,0.2,0.1,0.4,0.1c0.2,0,0.5-0.1,0.6-0.3l5.8-9.3l5.8,9.3
		c0.2,0.3,0.6,0.4,1,0.2C234.8,88.1,234.9,87.6,234.7,87.3z"/>
</g>
</svg>
