<?xml version="1.0" encoding="utf-8"?>
<!-- Generator: Adobe Illustrator 21.0.0, SVG Export Plug-In . SVG Version: 6.00 Build 0)  -->
<svg version="1.1" id="Layer_1" xmlns="http://www.w3.org/2000/svg" xmlns:xlink="http://www.w3.org/1999/xlink" x="0px" y="0px"
	 viewBox="0 0 183.2 258.2" style="enable-background:new 0 0 183.2 258.2;" xml:space="preserve">
<g>
	<path d="M176.1,5.1H7.1c-0.9,0-1.7,0.8-1.7,1.7v244.6c0,0.9,0.8,1.7,1.7,1.7h168.9c0.9,0,1.7-0.8,1.7-1.7V6.8
		C177.8,5.9,177,5.1,176.1,5.1z M176.4,251.4c0,0.2-0.1,0.3-0.3,0.3H7.1c-0.2,0-0.3-0.1-0.3-0.3V6.8c0-0.2,0.1-0.3,0.3-0.3h168.9
		c0.2,0,0.3,0.1,0.3,0.3V251.4z"/>
	<path d="M179.8,0H3.4C1.5,0,0,1.5,0,3.4v251.4c0,1.9,1.5,3.4,3.4,3.4h176.4c1.9,0,3.4-1.5,3.4-3.4V3.4C183.2,1.5,181.7,0,179.8,0z
		 M180.4,254.8c0,0.3-0.3,0.6-0.6,0.6H3.4c-0.3,0-0.6-0.3-0.6-0.6V3.4c0-0.3,0.3-0.6,0.6-0.6h176.4c0.3,0,0.6,0.3,0.6,0.6V254.8z"/>
	<path d="M124.4,93.1c0,0.3,0,0.6,0.1,0.7c0.1,0.2,0.2,0.3,0.3,0.4c0.2,0.1,0.4,0.2,0.6,0.2c0.4,0,0.8-0.2,1.1-0.7
		c0.3-0.5,0.4-1,0.4-1.5c0-0.4-0.1-0.7-0.3-0.9c-0.2-0.2-0.4-0.3-0.7-0.3c-0.2,0-0.4,0.1-0.5,0.2c-0.2,0.1-0.3,0.3-0.5,0.5
		c-0.1,0.2-0.3,0.5-0.4,0.8C124.5,92.6,124.4,92.9,124.4,93.1z"/>
	<path d="M58.6,80.5c0.3,0.1,0.5,0.2,0.8,0.2c0.3,0,0.5-0.1,0.8-0.2c0.2-0.1,0.5-0.3,0.7-0.5c0.2-0.2,0.4-0.5,0.5-0.9
		c0.1-0.3,0.2-0.7,0.2-1c0-0.5-0.1-1-0.4-1.3c-0.3-0.3-0.7-0.5-1.1-0.5c-0.6,0-1.1,0.2-1.5,0.7c-0.4,0.5-0.6,1.1-0.6,1.9
		c0,0.3,0.1,0.6,0.2,0.9C58.1,80.2,58.3,80.4,58.6,80.5z"/>
	<path d="M129.3,93.1c0,0.3,0,0.6,0.1,0.7c0.1,0.2,0.2,0.3,0.3,0.4c0.2,0.1,0.4,0.2,0.6,0.2c0.4,0,0.8-0.2,1.1-0.7
		c0.3-0.5,0.4-1,0.4-1.5c0-0.4-0.1-0.7-0.3-0.9c-0.2-0.2-0.4-0.3-0.7-0.3c-0.2,0-0.4,0.1-0.5,0.2c-0.2,0.1-0.3,0.3-0.5,0.5
		c-0.1,0.2-0.3,0.5-0.4,0.8C129.3,92.6,129.3,92.9,129.3,93.1z"/>
	<path d="M153.8,29.6h-124h-0.3v147.6h124.3V29.6z M146.5,154.4H36.7V153h109.9V154.4z M52.8,80.3c0.3,0.3,0.6,0.4,1.1,0.4
		c0.4,0,0.7-0.1,1-0.4c0.3-0.2,0.5-0.6,0.7-1l0.7,0.1c-0.2,0.6-0.6,1.1-1,1.4c-0.4,0.3-0.9,0.5-1.4,0.5c-0.7,0-1.2-0.2-1.5-0.6
		c-0.4-0.4-0.6-1-0.6-1.7c0-1,0.3-1.8,0.9-2.4c0.5-0.6,1.2-0.8,1.9-0.8c0.6,0,1,0.2,1.4,0.5c0.4,0.3,0.6,0.7,0.6,1.2l-0.7,0.1
		c-0.1-0.4-0.2-0.7-0.4-0.9c-0.2-0.2-0.5-0.3-0.9-0.3c-0.7,0-1.2,0.3-1.6,0.9c-0.4,0.5-0.5,1.1-0.5,1.8C52.4,79.6,52.5,80,52.8,80.3
		z M57.1,79c0-1,0.3-1.7,0.8-2.3c0.6-0.6,1.2-0.9,2-0.9c0.7,0,1.2,0.2,1.6,0.7c0.4,0.4,0.6,1,0.6,1.7c0,0.5-0.1,1-0.3,1.4
		c-0.2,0.3-0.4,0.6-0.6,0.9c-0.2,0.2-0.5,0.4-0.8,0.6c-0.4,0.2-0.8,0.3-1.2,0.3c-0.4,0-0.8-0.1-1.2-0.3c-0.4-0.2-0.6-0.5-0.8-0.9
		C57.2,79.8,57.1,79.4,57.1,79z M65.5,76.7c-0.2-0.2-0.4-0.3-0.6-0.3c-0.3,0-0.5,0.1-0.7,0.3c-0.2,0.2-0.3,0.5-0.4,0.8l-0.6-0.1
		c0.1-0.5,0.2-0.8,0.6-1.1c0.3-0.3,0.7-0.4,1.1-0.4c0.3,0,0.6,0.1,0.8,0.2c0.2,0.1,0.4,0.3,0.6,0.5c0.1,0.2,0.2,0.5,0.2,0.7
		c0,0.4-0.1,0.7-0.4,1c-0.2,0.2-0.6,0.6-1.4,1.2c-0.3,0.3-0.6,0.5-0.7,0.6c-0.2,0.2-0.3,0.3-0.4,0.5H66l-0.1,0.6h-3.2
		c0.1-0.3,0.2-0.6,0.3-0.8c0.1-0.2,0.3-0.4,0.5-0.6c0.2-0.2,0.6-0.5,1.2-1c0.3-0.3,0.6-0.5,0.7-0.6c0.2-0.2,0.3-0.4,0.4-0.6
		c0.1-0.1,0.1-0.3,0.1-0.4C65.8,77.1,65.7,76.9,65.5,76.7z M88.2,82.2v9.4c0,0.1-0.1,0.2-0.3,0.4c-0.2,0.2-0.5,0.5-0.8,0.8l0,0H87
		c-0.1,0-0.2-0.1-0.4-0.3c-0.2-0.2-0.5-0.5-0.8-0.9l0,0v-7.2c0-0.1,0.2-0.3,0.6-0.7c0.4-0.4,0.9-0.9,1.7-1.7l0.2-0.2V82.2z
		 M88.2,104.5h-0.1c-0.1,0-0.3-0.2-0.8-0.6c-0.4-0.4-0.9-0.9-1.6-1.7l0,0c0-1.8-0.2-5.8,0-7.3c0-0.1,0.1-0.2,0.3-0.4
		c0.2-0.2,0.5-0.4,0.8-0.7l0.1-0.1l0.1,0.1c0.4,0.3,0.6,0.5,0.8,0.7c0.2,0.2,0.3,0.3,0.3,0.4C88.5,96.8,88.2,102.1,88.2,104.5z
		 M85.9,92.3c0.2,0.2,0.4,0.5,0.7,0.8l0.1,0.1l-0.1,0.1c-0.3,0.4-0.5,0.6-0.7,0.8c-0.2,0.2-0.3,0.3-0.4,0.3c-0.6,0.1-6.7,0.1-7.3,0
		c-0.1,0-0.2-0.1-0.4-0.3c-0.2-0.2-0.4-0.5-0.7-0.8L77,93.2l0.1-0.1c0.3-0.4,0.6-0.7,0.7-0.8c0.2-0.2,0.3-0.3,0.4-0.3l0,0l7.3,0
		C85.6,92,85.7,92.1,85.9,92.3z M78,91.6c0,0.1-0.1,0.2-0.3,0.4c-0.2,0.2-0.5,0.5-0.9,0.8l0,0h-0.1c-0.1,0-0.2-0.1-0.4-0.3
		c-0.2-0.2-0.5-0.5-0.8-0.9l0,0V82h0.1c0.1,0,0.3,0.2,0.7,0.6c0.4,0.4,0.9,0.9,1.7,1.7l0,0V91.6z M92.9,101.9L92.9,101.9
		c1.8,0,5.8-0.2,7.3,0c0.1,0,0.2,0.1,0.4,0.3c0.2,0.2,0.4,0.5,0.7,0.8l0.1,0.1l-0.1,0.1c-0.3,0.4-0.6,0.7-0.7,0.8
		c-0.2,0.2-0.3,0.3-0.4,0.3c-0.6,0.1-6.7,0.1-7.3,0c-0.1,0-0.2-0.1-0.4-0.3c-0.2-0.2-0.4-0.5-0.7-0.8l-0.1-0.1l0.1-0.1
		c0.3-0.4,0.6-0.7,0.7-0.8C92.7,102,92.8,101.9,92.9,101.9z M92.8,94.1L92.8,94.1c-0.2-0.2-0.4-0.4-0.5-0.6
		c-0.2-0.2-0.3-0.4-0.5-0.6l-0.1-0.1l0.1-0.1c0.2-0.2,0.3-0.4,0.5-0.6c0.2-0.2,0.3-0.4,0.5-0.5l0,0h0.1h7.5l0,0
		c0.2,0.2,0.3,0.3,0.5,0.5c0.2,0.2,0.3,0.4,0.5,0.6l0.1,0.1l-0.1,0.1c-0.2,0.2-0.3,0.4-0.5,0.6c-0.2,0.2-0.3,0.4-0.5,0.5l0,0H92.8z
		 M100.8,91.7c-0.2-0.2-0.3-0.3-0.3-0.4c-0.1-0.6-0.1-6.7,0-7.3c0-0.1,0.1-0.2,0.3-0.4c0.2-0.2,0.5-0.4,0.8-0.7l0.1-0.1l0.1,0.1
		c0.4,0.3,0.6,0.5,0.8,0.7c0.2,0.2,0.3,0.3,0.3,0.4c0.1,0.6,0.1,6.8,0,7.3c0,0.1-0.1,0.2-0.3,0.4c-0.2,0.2-0.5,0.4-0.8,0.7l-0.1,0.1
		l-0.1-0.1C101.3,92.1,101,91.9,100.8,91.7z M101.4,82.6c-0.3,0.4-0.5,0.6-0.7,0.8c-0.2,0.2-0.3,0.3-0.4,0.3c-0.6,0.1-6.7,0.1-7.3,0
		c-0.1,0-0.2-0.1-0.4-0.3c-0.2-0.2-0.4-0.5-0.7-0.8l-0.1-0.1l0.1-0.1c0.3-0.4,0.6-0.7,0.7-0.8c0.2-0.2,0.3-0.3,0.4-0.3l0,0
		c1.8,0,5.7-0.2,7.3,0c0.1,0,0.2,0.1,0.4,0.3c0.2,0.2,0.4,0.5,0.7,0.8L101.4,82.6L101.4,82.6z M92.4,93.9c0.2,0.2,0.3,0.3,0.3,0.4
		c0.1,0.6,0.1,6.7,0,7.3c0,0.1-0.1,0.2-0.3,0.4c-0.2,0.2-0.5,0.4-0.8,0.7l-0.1,0.1l-0.1-0.1c-0.4-0.3-0.7-0.6-0.8-0.7
		c-0.2-0.2-0.3-0.3-0.3-0.4c-0.1-0.7-0.1-6.6,0-7.3c0-0.1,0.1-0.2,0.3-0.4c0.2-0.2,0.5-0.4,0.8-0.7l0.1-0.1l0.1,0.1
		C91.9,93.5,92.2,93.7,92.4,93.9z M115.2,94.8c0-0.1,0.1-0.2,0.3-0.4c0.2-0.2,0.5-0.4,0.8-0.7l0.1-0.1l0.1,0.1
		c0.4,0.3,0.6,0.5,0.8,0.7c0.2,0.2,0.3,0.3,0.3,0.4c0.3,2,0,7.3,0,9.7h-0.1c-0.1,0-0.3-0.2-0.8-0.6c-0.4-0.4-0.9-0.9-1.6-1.7l0,0
		C115.2,100.3,114.9,96.3,115.2,94.8z M114.9,94.5c-0.6,0.1-6.7,0.1-7.3,0c-0.1,0-0.2-0.1-0.4-0.3c-0.2-0.2-0.4-0.5-0.7-0.8
		l-0.1-0.1l0.1-0.1c0.3-0.4,0.6-0.7,0.7-0.8c0.2-0.2,0.3-0.3,0.4-0.3l0,0l7.3,0c0.1,0,0.2,0.1,0.4,0.3c0.2,0.2,0.4,0.5,0.7,0.8
		l0.1,0.1l-0.1,0.1c-0.3,0.4-0.5,0.6-0.7,0.8C115.2,94.4,115,94.5,114.9,94.5z M117.7,91.7c0,0.1-0.1,0.2-0.3,0.4
		c-0.2,0.2-0.5,0.4-0.8,0.7l-0.1,0.1l-0.1-0.1c-0.4-0.3-0.6-0.5-0.8-0.7c-0.2-0.2-0.3-0.3-0.3-0.4c-0.1-0.6-0.1-6.7,0-7.3
		c0-0.1,0.1-0.2,0.3-0.4c0.2-0.2,0.5-0.4,0.8-0.7l0.1-0.1l0.1,0.1c0.4,0.3,0.6,0.5,0.8,0.7c0.2,0.2,0.3,0.3,0.3,0.4
		C117.8,84.9,117.8,91.1,117.7,91.7z M116.1,83c-0.3,0.4-0.6,0.7-0.7,0.8c-0.2,0.2-0.3,0.3-0.4,0.3c-1.5,0.2-5.5,0-7.3,0
		c-0.1,0-0.3-0.2-0.7-0.6c-0.4-0.4-0.9-0.9-1.7-1.7l-0.2-0.2h0.3c2.3,0,7.5-0.3,9.5,0c0.1,0,0.2,0.1,0.4,0.3
		c0.2,0.2,0.4,0.5,0.7,0.8V83L116.1,83z M105.7,82.7c0.4,0.4,0.9,0.9,1.7,1.7l0,0v7.2c0,0.1-0.1,0.2-0.3,0.4
		c-0.2,0.2-0.5,0.5-0.9,0.8l0,0h-0.1c-0.1,0-0.2-0.1-0.4-0.3c-0.2-0.2-0.5-0.5-0.8-0.9l0,0V82h0.1C105.1,82,105.3,82.2,105.7,82.7z
		 M125.5,90.5c0.2-0.1,0.4-0.2,0.7-0.2c0.4,0,0.8,0.2,1.1,0.5c0.3,0.3,0.4,0.8,0.4,1.3c0,0.5-0.1,0.9-0.2,1.3
		c-0.2,0.4-0.3,0.7-0.6,0.9c-0.2,0.2-0.5,0.4-0.7,0.5c-0.2,0.1-0.5,0.2-0.7,0.2c-0.5,0-1-0.3-1.3-0.8l-0.5,2.5h-0.8l1.3-6.2h0.7
		l-0.1,0.6C125.1,90.8,125.3,90.6,125.5,90.5z M130.3,90.5c0.2-0.1,0.4-0.2,0.7-0.2c0.4,0,0.8,0.2,1.1,0.5c0.3,0.3,0.4,0.8,0.4,1.3
		c0,0.5-0.1,0.9-0.2,1.3c-0.2,0.4-0.3,0.7-0.6,0.9c-0.2,0.2-0.5,0.4-0.7,0.5c-0.2,0.1-0.5,0.2-0.7,0.2c-0.5,0-1-0.3-1.3-0.8
		l-0.5,2.5h-0.8l1.3-6.2h0.7l-0.1,0.6C129.9,90.8,130.1,90.6,130.3,90.5z M135.3,90.5c0.2-0.1,0.5-0.2,0.7-0.2
		c0.3,0,0.5,0.1,0.7,0.2c0.2,0.1,0.3,0.4,0.4,0.6c0.2-0.3,0.5-0.5,0.7-0.6c0.3-0.1,0.5-0.2,0.8-0.2c0.4,0,0.7,0.1,0.8,0.3
		c0.2,0.2,0.3,0.4,0.3,0.7c0,0.1,0,0.4-0.1,0.7L139,95h-0.8l0.6-3c0.1-0.2,0.1-0.4,0.1-0.5c0-0.1,0-0.3-0.1-0.3
		c-0.1-0.1-0.2-0.1-0.4-0.1c-0.2,0-0.5,0.1-0.7,0.2c-0.2,0.1-0.4,0.3-0.6,0.5c-0.1,0.2-0.2,0.6-0.3,1l-0.5,2.2h-0.8l0.6-3
		c0-0.2,0.1-0.4,0.1-0.4c0-0.1,0-0.3-0.1-0.4c-0.1-0.1-0.2-0.1-0.4-0.1c-0.2,0-0.4,0.1-0.7,0.2c-0.2,0.1-0.4,0.3-0.6,0.6
		c-0.2,0.2-0.3,0.6-0.4,1.1l-0.4,2.1h-0.8l0.9-4.5h0.8l-0.2,0.7C134.8,90.9,135,90.7,135.3,90.5z M146.5,53.7H36.7v-1.4h109.9V53.7z
		"/>
	<path d="M145.1,189.3c-6.1,0-11.1,5-11.1,11.1s5,11.1,11.1,11.1s11.1-5,11.1-11.1S151.2,189.3,145.1,189.3z M145.1,210.1
		c-5.3,0-9.7-4.3-9.7-9.7s4.3-9.7,9.7-9.7s9.7,4.4,9.7,9.7S150.4,210.1,145.1,210.1z"/>
	<path d="M145.1,217.3c-6.1,0-11.1,5-11.1,11.1s5,11.1,11.1,11.1s11.1-5,11.1-11.1S151.2,217.3,145.1,217.3z M145.1,238.1
		c-5.3,0-9.7-4.3-9.7-9.7s4.3-9.7,9.7-9.7s9.7,4.3,9.7,9.7S150.4,238.1,145.1,238.1z"/>
	<path d="M149.6,195.9c-1.1-1.1-2.6-1.8-4.3-1.9v-1l-3.4,1.7l3.4,1.7v-1c1.3,0.1,2.5,0.6,3.3,1.5l0,0c0.9,0.9,1.5,2.1,1.5,3.5
		c0,1.4-0.6,2.6-1.5,3.5c-0.9,0.9-2.2,1.5-3.5,1.5c-1.4,0-2.6-0.6-3.5-1.5c-0.9-0.9-1.5-2.2-1.5-3.5h-1.4c0,1.8,0.7,3.4,1.9,4.6
		c1.2,1.2,2.8,1.9,4.6,1.9c1.8,0,3.4-0.7,4.5-1.9l0,0c1.2-1.2,1.9-2.8,1.9-4.5C151.5,198.6,150.8,197,149.6,195.9L149.6,195.9z"/>
	<path d="M145.6,230.2c-0.2,0.6-0.4,1.1-0.5,1.4c-0.1-0.3-0.2-0.7-0.4-1.3l-2.1-6.4h-1.8v9h1.1v-7.7l2.6,7.7h1.1l2.6-7.5v7.5h1.1v-9
		h-1.6L145.6,230.2z"/>
	<path d="M69.8,225v-8.9c0-0.4-0.3-0.7-0.7-0.7c-1.3,0-2.7,0-4,0c-0.4,0-0.6,0.1-0.9,0.3l-5.5,4.9l-5.7-5.2
		c-0.1-0.1-0.1-0.1-0.3-0.1h-0.3h-2.6h-1.4c-0.4,0-0.7,0.3-0.7,0.7v8.9c0,0.4,0.3,0.7,0.7,0.7h2.5l2.7-2.4h-2.6
		c-0.1,0-0.1-0.1-0.1-0.1v-5.3c0,0,0-0.1,0-0.1l5.5,5l-3.3,3h0.2h1.2h1.4h1h0.9l8.9-7.9c0,0,0,0,0,0.1v5.3c0,0.1-0.1,0.1-0.1,0.1
		h-3.9l-2.7,2.4h9.1C69.5,225.8,69.8,225.4,69.8,225z"/>
	<path d="M61.4,229L61.4,229c-0.3,0-0.6,0.3-0.6,0.6v0.7v0.9h-3v-0.9v-0.7c0-0.3-0.3-0.6-0.6-0.6h0c-0.7,0-0.9,0.3-0.9,1
		c0,0.8,0,1.6,0,2.4c0,0.7,0.2,0.9,0.9,0.9h0.1c0.3,0,0.6-0.3,0.6-0.6v-0.3h3v0.3c0,0.3,0.3,0.6,0.6,0.6h0.1c0.7,0,0.9-0.2,0.9-0.9
		c0-0.8,0-1.6,0-2.4C62.3,229.3,62.1,229,61.4,229z"/>
	<path d="M75.2,229.1H74c-0.1,0-0.1,0-0.2,0.1l-1.2,1c0,0-0.1,0-0.1,0c0,0-0.1,0-0.1,0l-1.2-1c-0.1,0-0.1-0.1-0.2-0.1h-1.2
		c-0.2,0-0.4,0.2-0.4,0.3c0,1.2,0,2.3,0,3.5c0,0.2,0.2,0.4,0.4,0.4h1.1c0.1,0,0.2-0.1,0.2-0.2v-1.9c0-0.1,0.1-0.2,0.2-0.1
		c0.3,0.3,0.6,0.6,1.1,0.8c0.1,0,0.1,0,0.1,0c0,0,0,0,0.1,0c0.4-0.2,0.7-0.5,1.1-0.8c0.1-0.1,0.2,0,0.2,0.1v1.9
		c0,0.1,0.1,0.2,0.2,0.2h1.1c0.2,0,0.4-0.2,0.4-0.4c0-1.1,0-2.3,0-3.5C75.5,229.3,75.3,229.1,75.2,229.1z"/>
	<path d="M68.2,229.1c-0.8,0-3.7,0-4.4,0c-0.7,0-0.9,0.3-0.9,1c0,0.8,0,1.6,0,2.4c0,0.7,0.2,0.9,0.9,0.9c1.4,0,2.8,0,4.3,0
		c0.6,0,0.9-0.2,0.9-0.8c0-1,0-1.8,0-2.7C69,229.3,68.7,229.1,68.2,229.1z M67.4,232c0,0.1-0.1,0.1-0.1,0.1h-2.7
		c-0.1,0-0.2-0.1-0.2-0.2v-1.6c0-0.1,0.1-0.1,0.1-0.1h2.7c0.1,0,0.1,0.1,0.1,0.1C67.4,231.1,67.4,231.4,67.4,232z"/>
	<path d="M77.7,230.2h3.8c0.2,0,0.4-0.2,0.4-0.4c0-0.2,0-0.3,0-0.5c0-0.2-0.2-0.3-0.4-0.3h-4.8c-0.6,0-0.7,0.4-0.7,1.1
		c0,0.4,0,0.7,0,1c0,0.3,0,0.7,0,1c0,0.7,0.1,1.1,0.7,1.1h4.8c0.2,0,0.3-0.1,0.4-0.3c0-0.2,0-0.3,0-0.5c0-0.2-0.2-0.4-0.4-0.4h-3.8
		c-0.1,0-0.2-0.1-0.2-0.1c0-0.1,0-0.2,0-0.3h4c0.2,0,0.3-0.1,0.4-0.3c0-0.1,0-0.2,0-0.3c0-0.1,0-0.2,0-0.3c0-0.2-0.2-0.3-0.4-0.3h-4
		c0-0.1,0-0.2,0-0.3C77.6,230.2,77.7,230.2,77.7,230.2z"/>
	<path d="M54,229.1c-0.8,0-3.7,0-4.4,0c-0.7,0-0.9,0.3-0.9,1c0,0.8,0,1.6,0,2.4c0,0.7,0.2,0.9,0.9,0.9c1.4,0,2.8,0,4.3,0
		c0.6,0,0.9-0.2,0.9-0.8c0-1,0-1.8,0-2.7C54.7,229.3,54.5,229.1,54,229.1z M53.1,232c0,0.1-0.1,0.1-0.1,0.1h-2.7
		c-0.1,0-0.2-0.1-0.2-0.2v-1.6c0-0.1,0.1-0.1,0.1-0.1H53c0.1,0,0.1,0.1,0.1,0.1C53.1,231.1,53.1,231.4,53.1,232z"/>
	<path d="M43.8,230.2h3.8c0.2,0,0.4-0.2,0.4-0.4c0-0.2,0-0.3,0-0.5c0-0.2-0.2-0.3-0.4-0.3c-1.6,0-3.2,0-4.8,0
		c-0.6,0-0.7,0.4-0.7,1.1c0,0.7,0,1.3,0,2c0,0.7,0.1,1.2,0.7,1.2c1.7,0,3.3,0,5,0c0.1,0,0.2-0.1,0.2-0.1c0.1-0.3,0.1-0.6-0.1-0.9
		c0-0.1-0.1-0.1-0.2-0.1h-4c-0.1,0-0.2-0.1-0.2-0.2c0-0.7,0-1.1,0-1.7C43.7,230.2,43.7,230.2,43.8,230.2z"/>
	<path d="M41.2,229.1h-1.2c-0.1,0-0.1,0-0.2,0.1l-1.2,1c0,0-0.1,0-0.1,0c0,0-0.1,0-0.1,0l-1.2-1c-0.1,0-0.1-0.1-0.2-0.1h-1.2
		c-0.2,0-0.4,0.2-0.4,0.3c0,1.2,0,2.3,0,3.5c0,0.2,0.2,0.4,0.4,0.4H37c0.1,0,0.2-0.1,0.2-0.2v-1.9c0-0.1,0.1-0.2,0.2-0.1
		c0.3,0.3,0.6,0.6,1.1,0.8c0.1,0,0.1,0,0.1,0c0,0,0,0,0.1,0c0.4-0.2,0.7-0.5,1.1-0.8c0.1-0.1,0.2,0,0.2,0.1v1.9
		c0,0.1,0.1,0.2,0.2,0.2h1.1c0.2,0,0.4-0.2,0.4-0.4c0-1.1,0-2.3,0-3.5C41.6,229.3,41.4,229.1,41.2,229.1z"/>
</g>
</svg>
