<svg height="960" viewBox="0 0 960 960" width="960" xmlns="http://www.w3.org/2000/svg"><path d="m623.705971 8.99743192c18.923603 2.50119728 34.747838 5.71996328 47.74423 9.84598608 7.38846 2.3456477 14.021522 5.030575 19.970952 8.1814937 7.292368 3.8621623 13.663039 8.4669916 19.025009 14.1598294 6.522234 6.9246965 10.363106 15.9471563 10.83333 25.4482009l8.565471 173.068686c15.855458 6.689848 27.320038 21.863525 28.567423 40.036975l2.478776 36.113871c1.314365 19.14929-9.04291 36.445353-25.056726 44.850053l21.122105 426.730196c2.03542 24.139261 2.810367 44.147548 2.278197 60.284584-.293444 8.898108-.986703 16.794936-2.148047 23.820418-1.426135 8.62733-3.581312 16.234386-6.934899 23.152364-5.897922 12.166582-14.145614 22.332849-24.266441 30.347865-8.585362 6.799029-18.13787 11.781207-28.444994 15.306709-7.782615 2.662006-15.629076 4.386153-23.909722 5.516785-2.989726.408215-5.898074.721558-9.059415.999149-1.678339.147372-6.184466.500061-6.102008.493246-.607194.050183-1.023524.088387-1.270303.114659-41.386024 7.903102-107.738761 12.138363-179.272345 12.062001-72.419043-.079405-140.584022-4.567981-184.419692-12.784513-.033866-.006348-3.500731-.606853-5.152545-.917723-3.399134-.639714-6.649368-1.353372-10.055294-2.250654-9.574724-2.522437-18.793907-6.09283-27.740014-11.202332-8.545095-4.880468-16.404101-10.950679-23.363246-18.335298-7.789841-8.266104-14.218861-17.945209-19.06733-28.962747-2.724305-6.190643-4.613478-12.979028-5.978147-20.62581-1.142081-6.399535-1.93449-13.556794-2.42912-21.570485-.912857-14.789557-.833055-32.970891.189282-54.750878.001444-.030758.002923-.061514.004438-.092268l35.531597-721.3953772c.510972-10.3742222 5.037322-20.1428774 12.621611-27.2396464 5.45285-5.1023388 11.785236-9.2951609 18.967327-12.8595221 6.021188-2.9882226 12.715308-5.5655636 20.145006-7.8330134 13.283363-4.0539151 29.356822-7.241159 48.455952-9.72394059 36.097494-4.69247526 84.131254-6.98629531 144.464137-6.98629531 60.358046 0 108.128974 2.29516824 143.705445 6.99743192zm-143.705549 212.22994508c-91.59763 0-161.436295 5.420259-209.322652 16.172859-1.252871.281324-2.503612.314124-3.700695.131031l-27.21061 552.474302c-1.919575 40.89484-.295022 67.21485 4.873658 78.960029 14.585943 33.144728 47.170126 36.784517 56.135989 38.465073 43.630334 8.178044 113.007997 12.185285 181.100452 12.098427 65.422163-.083453 129.657943-3.946195 168.732016-11.5202 1.657662-.321316 4.217072-.501091 7.393762-.750379 4.639602-.364087 10.595046-.876404 16.980936-2.194252 14.1616-2.922372 30.44131-9.806787 39.174757-27.822658 5.838953-12.044938 6.797915-41.123618 2.876886-87.23604l-23.663218-478.055569-3.69009-74.549-1.448731-.319574c-48.075623-10.541416-117.547715-15.854049-208.23246-15.854049zm231.615538 54.73024 2.480653 50.131383.516279-.044875c3.799781-.333162 6.633356-3.647179 6.372161-7.452584l-2.478776-36.113871c-.249859-3.640262-3.252185-6.472399-6.890317-6.520053zm-231.615434-233.957617c-117.509503 0-185.743658 8.8700639-204.702464 26.6101918l-7.335537 148.9056342c49.513004-10.887303 120.129987-16.288449 212.037897-16.288449 89.6424 0 159.138817 5.138274 208.659231 15.492359l-7.331263-148.1095442c-16.709073-17.7401279-83.818362-26.6101918-201.327864-26.6101918zm137.999896 115.119088c2.761424 0 5 2.238577 5 5v18.427077c0 2.761424-2.238576 5-5 5-2.761423 0-5-2.238576-5-5v-18.427077c0-2.761423 2.238577-5 5-5z"/></svg>