<svg height="960" viewBox="0 0 960 960" width="960" xmlns="http://www.w3.org/2000/svg"><path d="m541.354122 14.2212415c102.311812 11.7724194 160.922289 34.5061604 188.95617 74.8932318 14.167113 20.4098827 21.593512 34.6557407 26.912938 56.0717077 6.087558 24.508461 7.321604 54.438888 3.906711 95.248266-3.798321 45.391507-7.450432 88.880628-11.115173 132.252974l-.91654 10.841687c-2.292468 27.103302-4.59504 54.219115-6.946495 81.783379l-1.008767 11.815956c-10.0902 118.096942-17.351124 200.34182-20.631611 232.405822-.03644.356178-.072439.71012-.10826 1.064517l-.071485.710197c-.309423 3.087056-.618792 6.343004-1.100545 11.519518-.905414 9.728818-1.42303 15.153029-1.944005 20.03855l-.068005.634497c-.011348.105343-.022706.210509-.034077.315537l-.102818.942554-.110645.999077c-.136506 1.223311-.278257 2.460349-.431646 3.77266-2.287809 19.573187-5.218927 35.710036-9.767712 51.245974-5.742172 19.611838-13.86262 37.177391-25.136651 52.994738-25.854652 36.273805-66.340777 60.472455-123.346035 72.52831-24.234384 5.125251-84.296116 19.158755-90.378604 20.462788-28.503331 6.110867-47.694445 8.315155-67.9784 6.786491-24.79529-1.868652-48.429771-9.368891-81.106614-24.805885-16.137946-7.62379-30.669121-14.659532-43.620711-21.125853l-2.143977-1.07245c-22.003394-11.027577-39.326138-20.369291-52.107105-28.120288l-.16006-.098197-.274784-.13033c-21.212761-10.280237-35.218843-31.77015-35.519216-55.916834v-708.779836c0-29.6420473 20.594194-54.9769374 49.001418-61.430732l.269582-.059268.413851-.1176575c30.289452-8.6130448 63.926575-17.5281431 100.920269-26.7497334l2.22365-.5536632c39.884175-9.9193321 59.512031-13.7360397 86.24191-15.64123394 30.910157-2.20314697 66.148993-.61021113 117.283442 5.27352954zm-145.716362 38.4724329-.55055.0970404c-39.225332 16.1760287-58.369876 52.9328702-58.369876 111.9476822l-.000512 645.976824c-.000345.406252-.000866.809654-.001572 1.213177l-.001663.808086c-.007978 3.375025-.029231 6.895883-.068815 12.281077-.029847 4.060543-.047806 7.792709-.050268 11.236161l.000077 1.69785c.018452 22.037381.734257 31.854594 3.176408 40.759333l.165379.592422c.167959.591318.343693 1.179697.527505 1.768488 2.518521 8.067366 6.653072 14.312632 13.499698 19.558151 61.735976 25.620215 81.879167 10.681539 196.049494-13.46397 22.504722-4.75945 40.905854-11.400375 55.994596-19.508155-8.763637 1.587373-22.705658 4.115316-37.278218 6.750979l-1.491902.26981c-.995826.18008-1.993861.360529-2.992665.541083l-2.497777.451451-.862705.155892-1.72394.311462c-14.928754 2.696832-29.482029 5.317099-38.827937 6.977179-2.99036.531166-5.932479 1.052242-8.828444 1.56354-30.993585 5.472083-56.226364 9.74205-75.1065 12.653095-30.520107 4.705761-48.622832 2.669759-59.898663-9.07261-10.722542-11.166187-12.840209-28.247342-9.882623-58.532844 3.229322-33.06806 28.911495-261.046572 77.085913-684.294436.01145-.099976.01145-.099976.023158-.199921 3.359739-28.521607 29.204677-48.91933 57.725635-45.5596669l203.761709 23.9891579c-2.435514-3.978104-5.04058-7.817987-7.762048-11.738676-17.600515-25.35622-60.817821-46.4750083-160.668928-57.9642888-69.895775-8.0424964-105.651444-7.4192323-141.143966-1.2653728zm-48.919459 10.8994983.764518-.1867136c-38.194486 9.4991004-72.741581 18.6554193-103.640054 27.4682804-10.718111 1.9566733-18.842765 11.3421595-18.842765 22.6252605v708c0 9.700336 6.005117 17.998102 14.499205 21.377298 11.873509 7.353297 29.022091 16.649224 51.445744 27.887781l2.151535 1.076212c8.524897 4.255934 17.789938 8.784438 27.795123 13.585512-2.164644-7.5212-3.356175-16.027703-3.906639-26.557607l-.031606-.61562-.030176-.610879c-.03438-.710388-.065883-1.413519-.094655-2.11787l-.023995-.604226-.022678-.60601c-.139495-3.846214-.200917-7.871124-.207402-13.430833v-2.277427c.005022-3.781315.030504-8.246025.070856-13.735775.039579-5.384513.060673-8.885607.068461-12.240329l.001563-.772359c.000666-.385671.00116-.771172.00149-1.159172l.000508-645.960299c0-43.611459 10.087546-77.4827832 30.000967-101.1452243zm116.869725 83.9790963c-.007205.061505-.007205.061505-.014192.122507-48.136921 422.918426-73.839748 651.080289-77.052239 683.975991-2.411835 24.697048-.854131 37.261527 4.403124 42.736301 5.30836 5.527994 17.885367 6.942522 42.425156 3.15884 18.705469-2.884114 43.814588-7.133155 74.676872-12.582057 2.889029-.510073 5.824339-1.029942 8.807994-1.559918 25.959883-4.611159 92.321134-16.671558 94.882376-17.125556 15.489291-2.74558 31.297291-14.128946 47.245458-34.733529.611523-.790072 1.317964-1.463402 2.090824-2.016362 14.602819-32.392383 16.148964-69.712483 19.665676-104.085392 3.648922-35.66515 12.15801-133.295458 20.569096-231.739843l1.008542-11.813321c8.059501-94.475203 15.845904-187.446387 18.972541-224.81099 3.683672-44.021409 1.2124-70.176265-4.813618-89.179639-3.23822-2.181946-7.005876-3.620597-11.051424-4.096886l-206.29232-24.286817c-17.551757-2.067532-33.456334 10.484914-35.523866 28.036671z"/></svg>