<svg width="960" height="960" viewBox="0 0 960 960" fill="none" xmlns="http://www.w3.org/2000/svg">
<path d="M413.871 81.3C415.901 80.8137 417.996 80.649 420.079 80.8108L823.036 112.111L823.532 112.156C828.651 112.682 833.377 115.162 836.72 119.091L947.233 248.99C950.31 252.606 952 257.201 952 261.949V699.116C952 703.906 950.281 708.538 947.155 712.167L836.642 840.5C833.194 844.503 828.303 846.981 823.036 847.39L420.079 878.691C417.825 878.866 415.558 878.657 413.374 878.074L280.445 842.6C277.756 841.882 275.244 840.61 273.074 838.866L133.369 726.612C128.645 722.816 125.897 717.081 125.896 711.021V554.012L26.2598 555.308C20.9111 555.377 15.7572 553.301 11.9502 549.543C8.14331 545.785 6.00012 540.658 6 535.309V424.713C6.00006 419.364 8.14339 414.238 11.9502 410.48C15.7572 406.722 20.9109 404.646 26.2598 404.715L125.896 406.009V250.432C125.897 244.495 128.534 238.865 133.096 235.066L270.194 120.858C272.45 118.979 275.092 117.62 277.932 116.876L413.467 81.4016L413.871 81.3ZM285 237.927V723.065L319.597 751.552L319.999 751.63L319.956 751.848L424.811 838.186L811.672 808.148L912 691.69V269.308L811.602 151.347L424.881 121.32L285 237.927ZM294.837 805.04L381.027 828.042L363.448 813.568L284.198 796.492L294.837 805.04ZM448.853 166.285C454.862 161.272 462.593 158.804 470.396 159.41L783.978 183.78C791.942 184.399 799.331 188.169 804.506 194.254L884.854 288.734C889.467 294.158 892 301.047 892 308.168V651.546C892 658.729 889.422 665.674 884.736 671.117L804.459 764.377C799.288 770.384 791.949 774.102 784.047 774.716L470.325 799.095C462.585 799.696 454.913 797.274 448.922 792.337L336.921 700.038C330.006 694.34 326 685.848 326 676.887V282.822C326 273.924 329.95 265.486 336.781 259.786L448.853 166.285ZM249.407 768.536L329.797 785.858L310.81 770.224L232.728 755.134L249.407 768.536ZM468.846 179.351C466.245 179.149 463.668 179.971 461.665 181.642L349.594 275.143C347.317 277.043 346 279.856 346 282.822V676.887C346 679.874 347.336 682.705 349.641 684.605L461.642 776.903C463.638 778.548 466.196 779.356 468.775 779.156L782.497 754.776C785.131 754.571 787.578 753.332 789.302 751.33L869.579 658.07C871.141 656.255 872 653.94 872 651.546V308.168C872 305.795 871.155 303.499 869.618 301.691L789.271 207.21C787.545 205.182 785.082 203.925 782.428 203.719L468.846 179.351ZM476.16 684.401C485.981 684.265 494.246 689.389 499.758 696.404C505.263 703.409 508.449 712.713 508.586 722.626C508.723 732.539 505.796 741.929 500.487 749.084C495.172 756.248 487.052 761.599 477.231 761.736C467.411 761.872 459.145 756.747 453.633 749.733C448.128 742.727 444.941 733.423 444.804 723.51C444.666 713.597 447.594 704.208 452.903 697.052C458.219 689.888 466.339 684.537 476.16 684.401ZM549.091 680.263C558.674 680.13 566.682 685.192 571.982 692.016C577.278 698.835 580.328 707.863 580.461 717.46C580.594 727.058 577.796 736.168 572.69 743.131C567.581 750.099 559.716 755.38 550.133 755.513C540.55 755.646 532.541 750.584 527.241 743.76C521.945 736.941 518.897 727.912 518.764 718.315C518.631 708.718 521.429 699.608 526.534 692.645C531.643 685.677 539.508 680.396 549.091 680.263ZM619.413 676.161C628.879 676.03 636.759 681.062 641.952 687.79C647.143 694.515 650.123 703.406 650.254 712.845C650.384 722.284 647.652 731.254 642.649 738.12C637.644 744.99 629.907 750.237 620.44 750.368C610.974 750.499 603.096 745.468 597.902 738.74C592.712 732.014 589.73 723.123 589.6 713.685C589.469 704.246 592.203 695.276 597.206 688.409C602.211 681.54 609.947 676.293 619.413 676.161ZM689.218 672.067C698.684 671.936 706.563 676.967 711.757 683.696C716.948 690.421 719.928 699.312 720.059 708.75C720.189 718.189 717.457 727.159 712.454 734.026C707.449 740.895 699.711 746.143 690.245 746.274C680.779 746.405 672.9 741.373 667.707 734.645C662.516 727.92 659.535 719.029 659.404 709.59C659.274 700.151 662.008 691.181 667.011 684.315C672.016 677.445 679.752 672.198 689.218 672.067ZM199.349 728.313L278.484 743.607L272.287 738.504C269.67 736.349 267.678 733.593 266.443 730.521L184.399 716.3L199.349 728.313ZM476.438 704.4C474.168 704.431 471.43 705.649 468.966 708.97C466.495 712.3 464.721 717.313 464.803 723.233C464.885 729.152 466.797 734.115 469.358 737.375C471.913 740.626 474.685 741.769 476.954 741.738C479.224 741.706 481.961 740.487 484.425 737.166C486.895 733.836 488.67 728.823 488.588 722.904C488.506 716.984 486.593 712.021 484.031 708.761C481.477 705.51 478.707 704.368 476.438 704.4ZM758.497 667.98C767.848 667.85 775.6 672.853 780.686 679.485C785.771 686.116 788.682 694.869 788.811 704.149C788.939 713.428 786.271 722.258 781.371 729.028C776.471 735.798 768.861 741.014 759.511 741.144C750.16 741.273 742.409 736.27 737.323 729.638C732.238 723.007 729.327 714.254 729.198 704.975C729.07 695.695 731.738 686.865 736.638 680.095C741.538 673.325 749.147 668.109 758.497 667.98ZM549.368 700.261C547.437 700.288 544.961 701.336 542.663 704.471C540.361 707.611 538.684 712.378 538.762 718.037C538.84 723.697 540.649 728.417 543.037 731.492C545.421 734.562 547.925 735.542 549.856 735.515C551.788 735.488 554.263 734.439 556.562 731.305C558.864 728.165 560.541 723.397 560.463 717.738C560.384 712.078 558.575 707.358 556.187 704.283C553.802 701.214 551.3 700.234 549.368 700.261ZM619.69 696.159C617.93 696.184 615.586 697.145 613.37 700.187C611.152 703.232 609.521 707.878 609.598 713.408C609.674 718.938 611.433 723.536 613.735 726.519C616.035 729.498 618.404 730.395 620.164 730.37C621.925 730.346 624.268 729.385 626.484 726.343C628.703 723.298 630.332 718.652 630.256 713.122C630.179 707.592 628.422 702.993 626.12 700.01C623.82 697.031 621.451 696.135 619.69 696.159ZM689.495 692.065C687.735 692.089 685.391 693.05 683.175 696.092C680.956 699.137 679.326 703.784 679.402 709.314C679.479 714.844 681.238 719.442 683.54 722.424C685.84 725.403 688.208 726.3 689.969 726.276C691.729 726.251 694.073 725.29 696.289 722.248C698.508 719.203 700.137 714.557 700.061 709.028C699.984 703.497 698.227 698.898 695.925 695.915C693.625 692.936 691.256 692.04 689.495 692.065ZM758.774 687.978C757.186 688 754.974 688.872 752.839 691.822C750.703 694.772 749.122 699.296 749.196 704.698C749.271 710.099 750.977 714.578 753.193 717.468C755.409 720.357 757.645 721.168 759.233 721.146C760.822 721.124 763.034 720.251 765.169 717.302C767.304 714.351 768.887 709.827 768.812 704.426C768.738 699.025 767.031 694.546 764.814 691.656C762.599 688.766 760.363 687.956 758.774 687.978ZM166 265.659V692.812L265 709.972V248.921L166 265.659ZM765.823 531.752C768.506 531.705 771.095 532.737 773.009 534.617C774.922 536.497 776 539.068 776 541.75V627.74C776 633.118 771.745 637.533 766.37 637.733L678 641.008V659.308C678 664.699 673.725 669.12 668.337 669.302L566.338 672.744C563.629 672.836 560.999 671.823 559.05 669.94C557.101 668.056 556 665.461 556 662.75V645.531L469.37 648.743C466.656 648.844 464.017 647.836 462.062 645.951C460.106 644.067 459 641.466 459 638.75V546.993C459 541.54 463.37 537.092 468.823 536.995L765.823 531.752ZM576 644.79V652.406L658 649.639V641.75L576 644.79ZM479 556.818V628.372L756 618.103V551.927L479 556.818ZM46 515.047L145.637 513.753C145.758 513.752 145.879 513.753 146 513.753V446.269C145.879 446.269 145.758 446.27 145.637 446.269L46 444.974V515.047ZM87 450C95.0246 450 101.267 454.66 105.092 460.123C108.938 465.618 111 472.677 111 480C111 487.323 108.938 494.382 105.092 499.877C101.267 505.341 95.0245 510 87 510C78.9755 510 72.7327 505.341 68.9082 499.877C65.0618 494.382 63.0001 487.323 63 480C63 472.677 65.0618 465.618 68.9082 460.123C72.7327 454.66 78.9754 450 87 450ZM86.9844 470.005C86.9559 470.013 86.8672 470.043 86.7217 470.131C86.4173 470.315 85.8887 470.742 85.293 471.593C84.0727 473.337 83 476.278 83 480C83.0001 483.723 84.0727 486.664 85.293 488.407C85.8887 489.258 86.4174 489.685 86.7217 489.869C86.8672 489.957 86.956 489.987 86.9844 489.995C86.9914 489.997 86.9967 489.999 87 489.999C87.0033 489.999 87.0086 489.997 87.0156 489.995C87.044 489.987 87.1328 489.957 87.2783 489.869C87.5826 489.685 88.1113 489.258 88.707 488.407C89.9273 486.664 90.9999 483.723 91 480C91 476.278 89.9273 473.337 88.707 471.593C88.1113 470.742 87.5827 470.315 87.2783 470.131C87.1328 470.043 87.0441 470.013 87.0156 470.005C87.0086 470.003 87.0033 470.002 87 470.001C86.9967 470.002 86.9914 470.003 86.9844 470.005ZM637 404.112C643.075 404.112 648 410.603 648 418.612C648 426.619 643.075 433.112 637 433.112C630.925 433.112 626 426.619 626 418.612C626 410.603 630.925 404.112 637 404.112ZM637 302.112C646.268 302.112 653.984 307.021 659.068 313.63C664.144 320.229 667 328.918 667 338.112C667 347.306 664.144 355.995 659.068 362.593C653.984 369.202 646.268 374.112 637 374.112C627.732 374.112 620.016 369.202 614.932 362.593C609.856 355.995 607 347.306 607 338.112C607 328.918 609.856 320.229 614.932 313.63C620.016 307.021 627.732 302.112 637 302.112ZM637 322.112C635.222 322.112 632.938 323.023 630.784 325.823C628.622 328.635 627 332.947 627 338.112C627 343.276 628.622 347.588 630.784 350.4C632.938 353.2 635.222 354.112 637 354.112C638.778 354.112 641.062 353.2 643.216 350.4C645.378 347.588 647 343.276 647 338.112C647 332.947 645.378 328.635 643.216 325.823C641.062 323.023 638.778 322.112 637 322.112ZM200.073 231.329L187.595 241.724L267.521 228.21C268.704 226.081 270.278 224.161 272.193 222.565L281.056 215.176L200.073 231.329ZM246.267 192.849L232.262 204.515L313.215 188.367L330.097 174.294L246.267 192.849ZM292.37 154.444L279.753 164.953L363.552 146.406L382.075 130.965L292.37 154.444Z" fill="black"/>
</svg>
