<svg width="960" height="960" viewBox="0 0 960 960" fill="none" xmlns="http://www.w3.org/2000/svg">
<path d="M352.849 6.96094C358.026 4.66854 363.902 4.69494 369.022 6.95703L781.169 41.0566L781.633 41.0996C786.42 41.6081 790.869 43.8279 794.156 47.3584L851.387 108.818C854.833 112.52 856.75 117.39 856.75 122.448V837.518C856.75 841.627 855.484 845.638 853.124 849.003L809.265 911.531C805.85 916.4 800.445 919.497 794.518 919.98L375.187 954.184C369.595 954.64 364.098 952.726 360.01 948.959L145.598 850.967C143.53 850.022 141.638 848.731 140.004 847.15L81.8428 790.873C77.9488 787.105 75.75 781.918 75.75 776.5V188.5C75.75 183.486 77.6331 178.655 81.0264 174.964L139.722 111.118L140.047 110.773C141.693 109.066 143.631 107.664 145.771 106.634L352.27 7.22949L352.849 6.96094ZM319.75 845.783L381.702 913.519L385.989 913.169L487.742 813.435L319.75 194.944V845.783ZM504.533 824.982L417.156 910.627L545.788 900.135L565.529 854.867L565.673 854.552C567.214 851.326 570.369 849.159 573.952 848.892L616.945 845.686L617.437 845.661C622.496 845.53 626.894 849.222 627.595 854.287L632.955 893.024L760.375 882.631L700.667 815.773L504.533 824.982ZM581.451 868.388L568.411 898.289L612.989 894.653L609.069 866.328L581.451 868.388ZM229.337 845.259L337.294 894.599L312.038 866.986L216.773 828.983L229.337 845.259ZM714.736 801.502L783.541 878.545L816.75 831.202V284.074L714.736 801.502ZM200.75 161.555V801.06L299.75 840.552V121.312L299.685 121.071L200.75 161.555ZM165.349 816.015L190.299 827.417L182.834 817.747C182.149 816.86 181.624 815.87 181.271 814.821L152.081 803.177L165.349 816.015ZM319.75 115.06V118.645L506.144 804.884L695.437 795.997L816.75 180.675V130.317L770.157 80.2812L629.992 68.6846L619.275 108.006C618.026 112.589 613.724 115.662 608.983 115.355L567.603 112.684C563.597 112.425 560.133 109.796 558.808 106.007L543.241 61.5068L369.208 47.1084L319.75 115.06ZM115.75 196.336V767.151L180.75 793.081V169.738L115.75 196.336ZM166.573 141.012L147.535 161.72L180.872 148.079C181.136 146.395 181.826 144.797 182.891 143.444L195.913 126.888L166.573 141.012ZM236.866 107.173L215.995 133.707L309.2 95.5684L335.211 59.832L236.866 107.173ZM575.498 93.1514L602.126 94.8711L609.719 67.0068L565.061 63.3115L575.498 93.1514Z" fill="black"/>
</svg>
