<svg height="960" viewBox="0 0 960 960" width="960" xmlns="http://www.w3.org/2000/svg"><path d="m335.297576 1.40931122 426.62984 46.49948108c27.980042 3.0496165 49.142802 26.7308711 49.040707 54.8764287l-2.74322 753.414603c-.101978 28.011651-21.24047 51.471636-49.090145 54.481376l-423.044795 45.718831c-8.050544.87003-16.161392 1.039972-24.241313.507915l-70.355332-4.632847c-17.882446-1.177545-35.372502-5.777508-51.520421-13.5501l-23.239369-11.185969c-1.076944-.518373-2.130113-1.084754-3.156337-1.697439-9.368502-5.593261-16.089632-13.703139-20.494974-23.200302-3.117357-6.720488-5.000503-13.948028-6.034733-21.845577-1.472189-11.241878-1.581244-27.307675-.588258-49.590557.022692-.509235.055117-1.017989.097257-1.525985l7.469638-90.037723-.275973-.442626c-4.834326-7.916636-7.268842-17.344756-6.500538-27.153952l.057357-.669387 9.655154-103.753035-.364131-.556385c-5.160179-8.025454-7.830171-17.712448-7.084988-27.86638l.057542-.709156 8.939577-100.557079-.215255-.289425c-6.214157-8.524401-9.535323-19.195509-8.719955-30.457948l.059054-.73533 9.157156-103.789297-.006068-.008761c-4.996635-8.000224-7.530781-17.576406-6.768577-27.543969l.055706-.665071 9.237939-101.447199-.125792-.193481c-4.835764-7.605696-7.481697-16.628084-7.259877-26.084853l.018539-.617352 1.720564-47.005498c.061578-1.682279.229292-3.358994.502143-5.020141l.713099-4.341429c1.400989-8.529386 5.527173-16.375479 11.760728-22.363466l83.380529-80.0957852c15.846781-15.2225029 36.574692-24.33774559 58.504421-25.72772498l10.748079-.68124917c8.009126-.50764511 16.047071-.32569379 24.025022.54384357zm-26.935853 39.72077918-5.306992.3365188c-4.080475.258634-8.087899.9868329-11.949217 2.1524698-2.062216 1.0047174-2.415349 1.3175861-2.840891 2.0863946-1.228571 2.2196061-2.247475 7.1092276-2.845994 15.9326186-8.225354 121.2585118-53.266925 819.5252168-53.266925 835.9013278 0 4.118576.125434 7.294666.36575 9.666836.11115 1.097167.240035 1.961978.371509 2.60808l.026741.130205.06986.029725c.248786.105767.512464.218395.692752.296785l.082741.036151c.777227.341665 1.482763.679603 2.20814 1.069592.090523.048668.179992.09853.2684.149557 2.612049.382663 5.242029.661218 7.883999.83519l69.868401 4.601034c-.98614-2.830034-1.531164-5.867868-1.552231-9.031764l-5.708086-857.1746571c-.005656-.9425668.035668-1.8848493.124433-2.8232481.224727-2.3757419.740089-4.6539557 1.50761-6.8028154zm18.403509 8.6862549c-.025361.2681139-.037168.5373375-.035375.8066423l5.707466 857.1746574c.028503 4.280818 3.414175 7.753918 7.643444 7.938979l414.75618-44.823864c7.595366-.820838 13.360409-7.219016 13.388221-14.858557l2.74295-753.414604c.027845-7.6760607-5.743817-14.1345846-13.374738-14.9662982l-409.561083-44.6390271c-1.216976.3733988-2.52595.5191265-3.872051.3917957l-8.67719-.8207959c-4.398643-.4160779-8.301746 2.8124288-8.717824 7.2110718zm-61.295903 10.3977455-79.119444 76.0029032-.713099 4.341428-1.577457 43.074669 59.538387-7.359628c5.481131-.677531 10.473713 3.216556 11.151245 8.697686.677531 5.481131-3.216556 10.473714-8.697687 11.151245l-53.644945 6.630697-10.239 112.459 50.776771-2.194566c5.517695-.23851 10.184021 4.041114 10.422532 9.558809.23851 5.517695-4.041115 10.184022-9.558809 10.422532l-44.178494 1.909225-10.079 114.237 46.553997.000176c5.522847 0 10 4.477152 10 10 0 5.522847-4.477153 10-10 10l-36.655997-.000176-10.004 112.533 38.371546 2.271924c5.513197.32635 9.717966 5.060239 9.391615 10.573436-.32635 5.513197-5.060239 9.717966-10.573436 9.391616l-28.995725-1.716976-10.503411 112.883375c-.15244 1.638261.454671 3.192718 1.553524 4.286375l31.919417 5.538911c5.441532.94423 9.087316 6.120914 8.143086 11.562446-.944231 5.441532-6.120914 9.087316-11.562446 8.143086l-23.10617-4.009193-6.385 76.98 22.286672 4.538281c5.411776 1.102051 8.905499 6.382553 7.803447 11.794329-1.102052 5.411777-6.382553 8.905499-11.794329 7.803448l-19.76939-4.024531c-.678044 17.624195-.516339 30.259932.485116 37.907209 1.088501 8.311975 3.546195 13.610342 7.373082 15.895102l23.239368 11.185969c1.64565.792112 3.310815 1.538094 4.993524 2.237427-.112553-2.240374-.163115-4.692044-.163115-7.380905 0-17.12817 44.943624-713.876433 53.312781-837.2548816zm274.95044 70.8385782c4.557319 0 9.111355.244579 13.642461.73268 78.995307 8.50956 138.877741 75.18911 138.877741 154.641431v355.310564c0 78.923178-60.465207 144.68647-139.110801 151.299974-71.490247 6.011793-134.318063-47.068981-140.329856-118.559227-.304453-3.620452-.456881-7.252084-.456881-10.885315v-405.162771c0-70.34856 57.028776-127.377336 127.377336-127.377336zm0 20c-59.302865 0-107.377336 48.074471-107.377336 107.377336v405.162771c0 3.073849.128959 6.146343.386538 9.20938 5.0862 60.483401 58.240864 105.391705 118.724264 100.305505 68.286176-5.742355 120.786736-62.843122 120.786736-131.370317v-355.310564c0-69.235743-52.1823-127.341135-121.019796-134.756472-3.819659-.411463-7.658649-.617639-11.500406-.617639zm16.138654 323.124522c54.136076 0 96.632513 57.495179 96.632513 127.208694 0 51.019739-22.761193 95.495308-56.188337 115.679096l-.002599 30.029193c-.000038.8238-.101871 1.64444-.303185 2.443264l-.204791.81262c-.715468 2.839015-2.639162 5.221879-5.263502 6.519856-10.806568 5.34484-22.347983 8.130086-34.184172 8.130086-10.741403 0-21.246497-2.293934-31.185993-6.721343-.656813-.292568-1.280157-.655123-1.859216-1.081374l-.927305-.682597c-2.560208-1.884592-4.072203-4.874227-4.072203-8.053276l-.000997-29.729956c-34.995355-19.319898-59.072725-64.871439-59.072725-117.345569 0-69.713515 42.496436-127.208694 96.632512-127.208694zm0 254.417387c-6.010837 0-11.878179-.708806-17.55979-2.064444l.001121 15.444902.065048.023024c5.601781 1.906351 11.362712 2.915853 17.21561 2.996668l.763938.005272c6.660776 0 13.20746-1.20167 19.538149-3.556921l.417255-.159043.000862-15.501359c-6.572506 1.841508-13.409124 2.811901-20.442193 2.811901zm0-234.417387c-41.555555 0-76.632512 47.45706-76.632512 107.208694 0 46.565583 21.303572 85.664203 50.374825 100.6531.94412.126203 1.894355.393274 2.826964.815957 7.507434 3.402564 15.356297 5.145058 23.3723 5.145058 8.943155 0 17.680178-2.169667 25.959901-6.390586.956119-.487419 1.937738-.804986 2.917785-.969289 27.752968-15.91271 47.81325-54.067882 47.81325-99.25424 0-59.751634-35.076958-107.208694-76.632513-107.208694zm0-301.377689c54.136076 0 96.632513 57.495179 96.632513 127.208694 0 69.713514-42.496437 127.208693-96.632513 127.208693s-96.632512-57.495179-96.632512-127.208693c0-69.713515 42.496436-127.208694 96.632512-127.208694zm0 20c-41.555555 0-76.632512 47.45706-76.632512 107.208694 0 59.751633 35.076957 107.208693 76.632512 107.208693s76.632513-47.45706 76.632513-107.208693c0-59.751634-35.076958-107.208694-76.632513-107.208694z"/></svg>