<svg width="960" height="960" viewBox="0 0 960 960" fill="none" xmlns="http://www.w3.org/2000/svg">
<path d="M745.071 35.499C773.059 35.499 801.227 39.9609 827.432 53.7344C853.823 67.6063 876.691 90.1176 895.279 123.68C931.846 189.704 952.754 300.187 952.754 479.906C952.754 626.858 931.597 736.384 895.765 809.959C859.793 883.82 807.198 924.313 745.071 924.313C727.926 924.313 710.842 922.258 694.223 917.285H694.222C692.591 916.797 691.019 916.291 689.537 915.801V915.8L538.715 865.869L538.561 865.817L538.406 865.764C496.482 851.122 462.753 816.327 439.849 754.987C417.17 694.25 404.368 605.818 404.368 479.906C404.368 367.243 418.5 279.387 442.994 215.527C467.395 151.911 503.197 109.505 548.095 93.165L548.396 93.0557L548.7 92.9561L696.339 44.5215C712.027 38.484 728.37 35.499 745.071 35.499ZM240.292 72.7402C263.903 72.7403 284.436 78.6039 301.418 90.9111C318.244 103.105 329.952 120.442 338.14 140.636C354.168 180.169 358.355 235.004 358.355 297.96V651.674C358.355 699.036 354.272 753.127 339.724 797.122C325.336 840.631 298.226 880.692 248.565 886.258C228.454 888.512 210.039 886.113 193.792 878.685C192.434 878.305 191.106 877.782 189.831 877.108L66.2891 811.854C42.4965 800.38 27.9023 778.173 19.3047 752.296C10.6614 726.281 7.2461 694.276 7.24609 659.191V328.338C7.24609 274.998 13.6847 234.621 25.1396 205.014C36.5897 175.419 53.6059 155.347 75.2002 145.364L192.901 86.2422C207.908 76.8207 224.14 72.7402 240.292 72.7402ZM745.071 75.499C743.763 75.499 742.46 75.5249 741.161 75.5762C700.988 77.1918 661.31 103.906 630.344 167.544C598.244 233.512 577.389 336.195 577.389 479.906C577.389 649.843 598.429 751.834 629.989 810.753C645.549 839.8 663.377 857.834 682.098 868.759C688.559 872.529 695.291 875.548 702.288 877.886C703.308 878.222 704.275 878.532 705.21 878.817C705.476 878.898 705.743 878.979 706.01 879.058C706.076 879.077 706.143 879.097 706.209 879.116C707.345 879.45 708.488 879.767 709.638 880.067C716.854 881.951 724.354 883.177 732.134 883.806C732.789 883.859 733.447 883.906 734.106 883.95C737.703 884.193 741.358 884.313 745.071 884.313C786.599 884.313 827.847 858.059 859.803 792.444C891.898 726.544 912.754 623.866 912.754 479.906C912.754 301.404 891.648 199.684 860.287 143.06C844.912 115.298 827.337 98.8739 808.821 89.1416C790.118 79.3109 768.911 75.499 745.071 75.499ZM561.528 130.845C531.888 141.74 502.507 172.062 480.342 229.852C458.208 287.557 444.368 370.097 444.368 479.906C444.368 603.895 457.084 686.796 477.321 740.995C497.304 794.512 523.842 818.263 551.472 827.956L636.634 856.15C588.683 800.44 557.389 688.35 557.389 479.906C557.389 287.354 594.325 163.571 649.429 102.008L561.528 130.845ZM240.292 112.74C238.096 112.74 235.926 112.87 233.784 113.135C227.406 113.925 220.972 115.966 214.688 119.798C214.341 120.01 213.993 120.225 213.648 120.447C205.476 125.704 197.577 134.06 190.408 146.717C174.864 174.161 163.226 221.433 163.226 297.96V697.356C163.226 749.96 170.099 790.19 183.955 815.616C190.676 827.948 198.662 836.108 207.741 840.977C207.975 841.102 208.211 841.225 208.448 841.347C216.789 845.639 227.393 847.916 241.237 846.785C242.18 846.708 243.137 846.616 244.11 846.507C270.152 843.588 289.05 822.957 301.746 784.563C314.281 746.656 318.355 697.635 318.355 651.674V297.96C318.355 235.049 313.886 187.275 301.07 155.665C294.836 140.287 287.076 129.918 277.944 123.3C268.969 116.795 257.056 112.74 240.292 112.74ZM92.8936 181.24C92.6627 181.356 92.4295 181.467 92.1943 181.574C82.5597 185.955 71.3926 196.319 62.4443 219.447C53.4235 242.763 47.2461 277.726 47.2461 328.338V659.191C47.2461 692.242 50.5357 719.431 57.2646 739.685C63.9824 759.904 73.2926 770.913 83.8896 775.935C84.1515 776.059 84.4108 776.189 84.667 776.324L162.533 817.453C148.991 787.834 143.226 746.438 143.226 697.356V297.96C143.226 224.441 153.682 174.635 169.974 142.521L92.8936 181.24ZM759.628 138.657C764.441 138.657 768.343 143.707 768.343 149.936C768.343 156.164 764.441 161.214 759.628 161.214C754.815 161.214 750.913 156.164 750.913 149.936C750.913 143.707 754.815 138.657 759.628 138.657Z" fill="black"/>
</svg>
