<svg height="960" viewBox="0 0 960 960" width="960" xmlns="http://www.w3.org/2000/svg"><path d="m339.427394 214.438794 14.322775 1.262602c4.219888.371998 8.353894 1.411976 12.247478 3.081059l8.598564 3.685991c.633282.271472 1.258513.558858 1.869796.871649 18.186598 2.03782 34.33419 4.241124 48.505397 6.618192 12.075362 2.025512 26.107596 4.746421 42.171573 8.179201 2.914239-1.608021 6.012087-2.961765 9.265703-4.054556 6.74309-2.2648 13.769468-3.291891 21.007571-3.286053 6.068736.004895 12.264503.736272 18.658583 2.102922 7.682516 1.642038 14.875614 4.284848 21.468335 8.06629 7.360311 4.221715 13.755352 9.751417 18.895584 16.468878 3.561225 4.653953 6.417505 9.741802 8.559047 15.171291l46.049842 19.60911c6.148127 2.618017 11.47654 6.703956 15.560656 11.827266l16.251735 8.15224c13.816183 6.930513 22.34362 21.160324 22.035614 36.489793 7.570179-4.845816 15.203218-8.877872 22.9175-12.104445 12.153131-5.083166 25.56017-7.697004 40.080862-8.107033 13.110846-.370217 27.207825 1.053475 42.38127 4.150361 15.451542 3.153646 26.756413 14.689794 30.549207 28.653902 17.873883 7.648782 32.780425 16.829059 44.73374 27.801154 10.090995 9.262648 19.17408 21.232241 27.659265 35.90676 2.119182 3.664972 4.210661 7.516758 6.27436 11.575353 6.695508-2.45155 13.915314-3.07036 20.9218-1.795498 14.316447 2.604944 26.671905 10.285658 35.517027 21.791611 2.734785 3.557476 5.894743 8.145024 9.045434 13.005275 1.306174 2.014902 2.546222 3.981189 3.573807 5.666582 1.627605 2.669513 2.596138 4.349394 3.643583 6.604967l.089014.185482c.229023.47725.399107.83628.611004 1.296047.699758 1.518311 1.349583 3.059059 1.981644 4.760828 2.659125 7.159473 4.172779 15.022215 4.172779 23.717138 0 4.24185-.176071 9.370223-.462888 14.296924-.332067 5.703968-.699004 9.91273-1.341861 13.361551-3.175427 17.035644-15.384781 31.338612-32.879859 37.762071-3.680652 1.351381-321.304556 128.935669-324.7294 130.405895-2.015574.86525-3.799049 1.475519-5.782646 2.067844-1.210457.361456-2.491808.709951-3.879152 1.061806-2.308856.585567-5.008481 1.203576-7.965982 1.829681-5.876069 1.243967-12.539867 2.471798-18.52171 3.396388-.967643.149565-2.231713.317046-3.858965.510857-10.225502 9.742315-22.295046 17.050548-35.801366 21.439018-5.815195 1.889471-11.758349 3.189965-17.777718 3.896021-7.195138 4.86343-15.019092 8.700741-23.356405 11.409698-17.430671 5.663569-35.842437 5.996224-53.879869 1.420777-16.27704-4.128898-31.885503-12.152099-46.138068-23.346431-18.949594-14.883501-35.174017-35.104347-47.230385-58.734629-4.815063 1.301087-9.665154 2.123287-14.538474 2.457392-3.069157.210416-5.943236.14422-9.604451-.079582-2.509707-.153413-5.435631-.395653-8.728704-.716451-6.161601-.600238-13.601029-1.47638-21.169476-2.491315-18.151366-2.434113-33.362761-5.076813-42.179145-7.726466-6.468595-1.944055-12.759078-4.345986-19.10626-7.210047-5.047068-2.277405-9.918236-4.741966-15.405662-7.721094-1.681975-.913146-3.342276-1.830321-5.452961-3.007774.003782.00211-3.777576-2.111458-4.782255-2.669467-16.148298-8.968925-42.361124-23.735331-78.707025-44.337584-13.46861 2.043167-27.0062723-.269303-39.5961938-6.148388-11.6971629-5.462195-22.3161626-13.855188-31.7340196-24.480389-16.7721298-18.922271-29.7692172-45.053852-36.98241611-73.984413-6.98713682-28.023875-7.95000927-56.280228-2.61605639-80.367967 2.95789715-13.357645 7.8435574-25.461016 14.8368911-35.72411 7.7779283-11.414529 18.0393475-20.348547 30.4868871-25.601008 2.1849016-1.093358 4.5212161-1.951784 6.9819632-2.557051.8960108-.267949 1.798889-.514083 2.7074566-.740614 3.3412861-.833076 6.7307363-1.393919 10.1458692-1.682037l27.1625704-4.730183c2.7682688-2.714896 5.9429943-4.994792 9.4280213-6.747914l34.755453-35.352301-1.558318-15.187184c-.43572-4.246473-.188888-8.535318.731128-12.703766l1.105081-5.006946c1.163819-5.273082 3.383277-10.255922 6.524597-14.648186l6.868676-9.603934c5.888057-8.232812 14.678278-13.927323 24.598718-15.935626l44.124381-8.93258c2.257421-.456995 4.550095-.718161 6.852463-.780588l93.222143-2.527658 6.334304-.923059c3.072797-.447779 6.187284-.536221 9.280539-.26354zm75.379121 277.053912-1.166944.019978c-.063022.001738-.126036.003583-.189042.005535l-1.105418.045294c-.070651.003603-.141292.007342-.21192.011217l-1.131382.073793c-.015024.001137-.030048.002279-.045072.003428l-1.111648.096442c-.058309.005662-.116609.011418-.174899.017269l-1.094855.121151c-.088439.0107-.176855.021619-.265247.032758-.762377.096071-1.523041.208495-2.281719.337443-.041061.006979-.081713.013938-.122359.020943l-1.100746.201625c-.067306.01306-.134595.026251-.201867.039574l-1.131048.236788c-.027712.006117-.055421.012256-.083127.018417l-1.11891.261562c-.030285.007426-.060565.014879-.090842.022359l-1.097996.283734c-.075367.020336-.150709.040843-.226026.061521l-1.044681.298322c-.076055.02256-.152083.045297-.228083.068211l-1.08611.340143c-4.92939 1.601656-9.513429 3.883913-13.729237 6.766193-.103443.479744-.245448.958781-.425855 1.432628-.714189 1.875857-1.229546 3.455789-1.547416 4.709466-.134264.52954-.226837.975952-.280611 1.329724-.020137.132484-.03323.24162-.040312.325527-.001067.012649-.001924.023857-.002588.03355.003775.039506.01085.09323.021988.160458.036302.219126.102252.50136.202175.841219.257977.877433.694415 1.978529 1.316767 3.275364 2.389505 4.979168.290169 10.952657-4.688999 13.342162s-10.952657.290169-13.342162-4.688999l-.074725-.156976c-6.606239 11.095765-10.991282 24.672873-12.865431 39.711163l7.07159 3.912061c4.832778 2.673219 6.583447 8.758032 3.910228 13.59081-2.373668 4.291234-7.437185 6.152398-11.925576 4.644122.133591 3.928909.425311 7.917547.877257 11.949358.080888.721603.166908 1.444589.258085 2.168874.08673.688962.178125 1.3791.274207 2.070341.211554 1.521986.445825 3.049323.703033 4.581241.130889.779564.267717 1.560315.410513 2.34215.401836 2.200125.850934 4.408842 1.347937 6.623891 1.054905 1.599253 1.918244 3.330439 2.568839 5.169779 1.043547 2.950285 1.512623 6.073937 1.323458 9.219514l.353583 1.117607.051916.16004c1.86852 5.750712 3.99828 11.303147 6.357714 16.632511.546415-.27026 1.12505-.56667 1.735391-.889761 4.881125-2.583885 10.932711-.721603 13.516596 4.159522s.721603 10.932712-4.159522 13.516596c-.65227.345287-1.287514.673007-1.906888.983091 10.094764 16.880421 22.60027 30.607443 36.119598 40.083521l-.093874.202492c.478061-.998952.999342-2.473954 1.515383-4.381248 1.442412-5.331162 6.933478-8.483618 12.264641-7.041207 5.331162 1.442411 8.483618 6.933478 7.041207 12.26464-.898131 3.319498-1.923969 6.14395-3.139391 8.522217l-.03899.075025c7.704919 3.105497 15.536122 4.808634 23.266961 4.931396l1.275307.00588 1.273257-.023013c5.088624-.150069 10.122606-.997815 15.036684-2.594495l1.063732-.358033c.085439-.029761.17077-.059729.255996-.089904 4.741535-1.678787 9.153227-3.996523 13.214086-6.878774.128166-.092013.255859-.183487.383203-.27552.907723-.65467 1.797974-1.339081 2.670217-2.051062.090012-.075501.180389-.149764.270572-.224324.203868-.166362.406351-.336011.607841-.507158.242604-.208425.485086-.417931.726104-.629616.103697-.088408.205868-.17872.307774-.269423.492036-.441095.979256-.889717 1.460222-1.347368l.127189-.117468c8.895134-8.506651 15.643812-20.103752 19.941626-33.719336l-.00059-21.026867c-1.781997-.267468-3.215165-.439161-4.278055-.515262-1.895319-.135702-4.968843-.135702-9.103451.018579-5.519007.20594-10.159993-4.101152-10.365932-9.620159-.20594-5.519006 4.101152-10.159992 9.620159-10.365932 4.797585-.17902 8.517724-.17902 11.27754.018579.856005.061289 1.804218.154825 2.848317.280577l.000983-6.738886c0-5.294363 1.191427-10.385016 3.360792-14.96756-1.363391-8.318061-3.404405-16.774766-6.156989-25.24635-2.568951-7.906416-5.631708-15.438042-9.106233-22.530441-.442488-.162048-.988835-.253835-1.696843-.253835-1.091958 0-2.446176.224653-4.056969.719367-3.405321 1.045859-6.205884 2.766105-8.553222 5.233845-3.806402 4.001643-10.136073 4.159917-14.137716.353515-4.001643-3.806403-4.159917-10.136074-.353515-14.137717 4.730866-4.973525 10.505591-8.52065 17.172645-10.568269.247716-.07608.494875-.149529.741464-.220332-11.903358-17.674018-26.519248-31.289727-41.95106-39.359213-.374322.057689-.861167.179984-1.456846.387664-1.180667.411633-2.588593 1.095264-4.195288 2.066022-.70048.423227-1.193507.930414-1.596264 1.641876-.533682.942736-.931247 2.281241-1.121374 4.081844-.579936 5.492314-5.502468 9.474584-10.994782 8.894648-5.492315-.579936-9.474584-5.502468-8.894648-10.994782.56083-5.311368 2.180043-9.983055 4.848541-13.81817-1.904507-.265442-3.806639-.437054-5.70358-.514452-.095782-.003908-.191856-.007587-.287916-.011025l-1.071079-.028285c-.065634-.001116-.13126-.002119-.196879-.003007zm107.635044 202.410503-.349754.652667c-.141292.260464-.283557.520025-.426795.778675.522779-.298915 1.040759-.609684 1.553619-.929049-.263512-.164345-.521932-.331023-.77707-.502293zm-102.758715-148.910588c6.286176 2.022241 12.408191 5.720568 18.103127 10.802326 11.007783 9.822569 20.125236 24.540343 25.585435 41.477538 5.458324 16.931378 6.664591 34.228037 3.491391 48.678256-1.640009 7.468331-4.42858 14.069567-8.323074 19.41347-4.30346 5.905075-9.888219 10.173072-16.473236 12.329535l-2.491698.702096c-5.856587 1.38819-11.995208 1.032978-18.07262-.922105-6.286176-2.022241-12.408192-5.720568-18.103127-10.802326-11.007784-9.822569-20.125236-24.540343-25.585435-41.477538-5.458324-16.931378-6.664591-34.228037-3.491392-48.678256 1.64001-7.468331 4.428581-14.069567 8.323075-19.41347 4.30346-5.905075 9.888218-10.173072 16.473235-12.329535 6.593145-2.159124 13.618705-2.014371 20.564319.220009zm473.570191-70.873546-35.165181 12.875676-12.422085 4.496693-3.932954 1.457459c-2.440934.904552-3.779454 3.53064-3.077204 6.037276l2.348503 8.382839c.700825 2.501552-.630827 5.123069-3.06432 6.032481l-187.024398 69.892252c-3.024111.447066-5.837405.661657-8.439881.643775-2.402287-.016507-4.624942-.231099-6.667966-.643775-3.195862-.645541-7.484292-1.585813-12.86529-2.820815-1.405583-.322598-2.834857-.490611-4.263069-.505544l-.475998.000691c-2.22082.02966-4.432415.429336-6.541606 1.19337l-35.111689 12.71869-35.301808 12.787934c-.124306.045028-.247742.091586-.370292.139647l.370292-.139647c-.17213.062352-.342594.127637-.511344.195785-.102088.041225-.203744.083583-.304759.126977-.025968.011156-.051586.022246-.077163.033404-.125799.054872-.250895.111498-.37496.169714-.03155.014804-.06334.029857-.095061.045014-.091814.043871-.183014.088594-.273634.134179-.037934.019083-.075554.038207-.113073.05748-.251768.129329-.499009.265351-.741507.407784-.014508.008521-.029219.017196-.043913.025893-.097079.057468-.193294.115903-.288734.175349-.033396.020802-.066577.041651-.099663.062623-.093358.059176-.185827.119235-.277531.180246-.076058.0506-.151859.102041-.227125.154134-.034743.024046-.069247.048144-.103638.072379-.066004.046515-.131311.093332-.196198.140642-.075063.054727-.149874.11035-.224109.166628-.025165.019078-.05038.03832-.075528.057637-.107596.082655-.213666.166451-.318494.251592-.020162.016375-.040585.033051-.06096.049778-.197336.162015-.389894.328527-.577866.499607-.051635.046995-.103025.094428-.154065.142204-.05631.052711-.111902.105556-.167067.158807-.046208.044603-.092424.089793-.138334.135269-.045494.045075-.089201.088921-.132626.133025l-.110072.112976c-2.638911 2.737164-4.20382 6.441842-4.20382 10.414087v52.362627c0 2.899169 2.461188 5.189703 5.353064 4.984181.877762-.062381 1.728069-.123168 2.550918-.182361 10.558728-.759549 16.596769-1.256565 18.113532-1.491005 2.605576-.402734 5.323416-.866115 7.987758-1.353722.645465-.117846 1.287805-.237418 1.924654-.357895.064322-.012411.128636-.024595.192891-.036788.683821-.129545 1.361117-.260335 2.028845-.391465.13043-.025796.260058-.051334.389301-.07688.372599-.07348.742599-.147323 1.108874-.22112.099633-.02022.199078-.040306.298237-.060387.231701-.046783.462116-.093735.690827-.140626.44028-.090384.874531-.180476 1.301495-.270129.346213-.072602.687148-.144914 1.022794-.216825.15463-.03321.308285-.066284.460765-.099261.860885-.186126 1.684282-.369257 2.461209-.547343.348999-.080034.688975-.159092 1.018733-.236951.334061-.078848.65741-.15644.969437-.232614.210263-.051351.414946-.101928.614251-.151808.072179-.018049.143816-.036064.214732-.053983.123174-.031138.244241-.061994.363065-.092549.235819-.060632.462866-.120108.680568-.178291.242704-.064873.473358-.128008.691739-.189388.179679-.050493.352134-.10012.515778-.148456.092436-.027304.182438-.054309.269532-.080882.172206-.052543.332763-.103309.481432-.152271.033102-.010903.06487-.021467.096069-.031944.024527-.008234.04942-.016661.073937-.025029.141701-.048377.270252-.094604.385802-.138804.086526-.033093.166061-.065176.238004-.09606 3.320497-1.425431 321.743681-129.370892 326.721798-131.198647 4.978116-1.827756 6.894396-5.132788 7.343601-7.5427.449205-2.409913 1.127456-13.098037 1.127456-20.328761 0-7.230725-2.339158-11.385133-3.102314-13.046041-.763155-1.660908-7.418304-12.206208-11.727384-17.811566-2.87272-3.736906-6.52779-6.009063-10.96521-6.816471zm-487.910166 89.660314c-2.426533.794641-4.613045 2.465622-6.534402 5.102049-2.161948 2.966557-3.875474 7.022897-4.951705 11.923872-2.37911 10.834071-1.421863 24.560028 2.992137 38.251981 4.412125 13.686134 11.636416 25.347887 19.866076 32.691455 3.716198 3.316072 7.451841 5.572785 10.912002 6.685907 3.071682.98815 5.796762 1.044297 8.215167.252317l.898649-.339243c2.070369-.888229 3.954565-2.455934 5.635753-4.762807 2.161947-2.966557 3.875474-7.022897 4.951704-11.923872 2.37911-10.834071 1.421864-24.560028-2.992137-38.25198-4.412125-13.686135-11.636415-25.347888-19.866075-32.691455-3.716198-3.316073-7.451842-5.572786-10.912002-6.685908-3.071682-.988149-5.796762-1.044296-8.215167-.252316zm-285.606576-45.541601c-.064361-.002094-.128666-.003141-.192891-.003149-.023893-.000004-.047937.000138-.071968.000425-.066832.0008-.133449.002716-.199944.005741-.020251.000923-.039924.001917-.059585.003008-.073203.004053-.147013.009519-.220624.01634-.040193.003724-.080535.007874-.120811.012431-.056146.006354-.112056.013481-.167822.021387l-.034063.004929c-2.124085.313937-4.031237 1.757731-4.799635 3.967799l-10.504117 30.211574-1.033558 2.973103c1.248367.554509 2.487786 1.10566 3.718258 1.653451.452836.201597.905475.403191 1.356897.604329l1.452344.647408 2.139658.954886c49.160277 21.954457 83.459502 38.329763 102.897676 49.125918 10.621156 5.899096 22.658782 13.008034 36.838111 17.269453.422009.126829.87807.255615 1.365822.386089.270116.072257.550147.14508.839508.218377.051982.013167.104279.026353.156876.039554.109942.027594.221194.055255.333732.082979.023372.005757.046112.011349.068904.016943.148361.036417.300469.07331.454778.110308.250787.060127.506129.120239.767017.1806.091628.021199.184135.042474.277321.063779.063091.014424.126029.028757.189271.043103.133378.030256.268784.060722.405528.091245.221376.049411.445168.098732.67232.148186.152374.033177.308167.066821.465475.100523.255784.054799.515381.10971.778828.164755.131799.02754.265884.055386.400933.083264.710149.146594 1.446263.293944 2.206205.441866.597043.116214 1.209057.232831 1.834442.349648.331258.061877.66633.123821 1.004953.185798.352049.064434.708222.128956 1.068014.193488.35249.063222.708404.126445 1.067578.189654.72586.127739 1.465037.25542 2.215779.382843 1.225682.208036 2.482741.415474 3.763016.621354.336126.054052.673202.107893 1.011735.161612.147603.023422.295851.046879.444366.070311.910949.143725 1.831609.28647 2.759655.427984.425368.064864.852797.129545 1.281527.193938.416445.062548.833759.124771 1.252064.186696.172443.025528.3451.051013.517908.076444 1.216143.178975 2.439335.355279 3.664346.528333.323229.045662.646178.09104.969149.136181.658734.09207 1.317834.18319 1.976139.273219.412751.056448.825154.112462 1.237027.168023.240492.032443.480884.064741.721051.09688.416089.05568.831637.1109 1.246282.165613.070088.009249.140087.018474.210059.027685.729975.096094 1.457383.19065 2.180628.283483.378677.048604.755625.096662 1.131257.144228.706668.089485 1.408931.177262 2.105356.263163.647396.079855 1.290178.158141 1.926957.234696.396265.04764.790204.09461 1.181588.140883 1.23514.14603 2.444641.285102 3.621509.416421.082084.00916.163616.018237.244988.027277.058286.006476.117034.012992.175697.019489.206313.022847.410753.045359.614119.067624.381075.041721.758423.082579 1.131741.12254 1.423916.152423 2.789663.291841 4.082446.416576.328195.031665.651882.062403.970626.092167.098974.009242.196984.018344.294514.027353.097137.008973.194225.017892.290828.026716.059629.005447.118898.010841.177982.0162.364358.033046.720718.06464 1.069677.094828.080677.006979.161459.013926.241836.020797.119382.010204.237159.020179.354038.029986.058233.004886.116865.009783.175267.014636.357269.029685.704781.057671 1.04331.084008.259898.020222.515856.039571.76626.057915.044798.003282.090504.00661.136022.009905.312997.022652.616087.043633.909959.062975.029955.001972.061923.004065.09378.006138.08638.005619.170785.011022.25439.016283.222843.014021.439017.026984.649381.038932.260621.014797.510691.027959.75161.039544.032607.001568.064935.003102.097096.004607.254127.011888.496782.021944.728662.03017.189987.006741.373119.012265.548757.016529.167632.004071.328626.006997.482578.00875l.319532.001956c.204351.000092.394186-.002217.56893-.006993l.009987-.000277c.083001-.00232.162571-.005202.23865-.008651.082165-.00372.16095-.008148.235507-.013259l-.225687.01281c.079056-.003649.154309-.007917.225687-.01281 2.764803-.18955 5.633631-.735295 8.606485-1.637236 2.207211-.669651 10.555614-3.894438 11.610084-4.716251l.032982-.025884c.052459-.04146.103525-.083213.153196-.125258l-.186178.151142c.095564-.074478.186601-.149907.273114-.226287.043646-.038526.086525-.077657.128231-.117034.009826-.009278.019509-.018495.029128-.027725.047614-.045688.093699-.091749.138211-.13814.020102-.020955.039564-.041631.058714-.062372.031389-.033994.061972-.068196.091719-.102574l.045992-.054087c.767262-.919007.944337-1.960793.532062-3.126362-.334274-.945052-.999159-1.713237-1.994652-2.304557-.099413-.058646-.201616-.11569-.307088-.170986-.036172-.019286-.073128-.038237-.110476-.056979-.040792-.02018-.0819-.040335-.123473-.060242-.034273-.016674-.069116-.033027-.104279-.049208-.036476-.016544-.073031-.033033-.109927-.04934-.050447-.022511-.101497-.044445-.153181-.066038-.016431-.006668-.032434-.013298-.048497-.019895-.222541-.091579-.457407-.177001-.703933-.256185-.129598-.04153-.262243-.081392-.398104-.119533-.169865-.047762-.345353-.0929-.525899-.135331-.051285-.012011-.103846-.024044-.156829-.035852-.059719-.013348-.11971-.026311-.180233-.038991-.022125-.004598-.043439-.009014-.064819-.013395-.074686-.01534-.151126-.030399-.228386-.04502-.05232-.009875-.104879-.019551-.157813-.029028-.045841-.008228-.091411-.016188-.137253-.024001-.048779-.008296-.098283-.016514-.148103-.024563-.068625-.011103-.137813-.021864-.207599-.032305-.048018-.007171-.096506-.014232-.145278-.02114-.33466-.047403-.682367-.087581-1.043465-.120594-.01792-.001635-.035879-.003257-.053871-.00486-.232557-.020733-.470846-.038526-.714658-.053364-.029316-.001782-.057946-.003479-.086652-.005135-.240935-.013906-.488002-.024981-.74044-.033184-.026767-.000869-.053114-.001691-.07952-.002483-.093226-.002795-.187447-.005208-.282398-.007229-.041824-.000891-.084047-.001711-.126414-.002454-.139584-.002446-.280403-.004058-.422771-.00484l-.395946-.00006-.403779.004131-8.671813-14.478936c-.239368-.399663-.431376-.825843-.572142-1.269929l-.779503-2.459152c-.694018-2.189469-2.577055-3.790613-4.849617-4.123622l-38.713719-5.67291c-.326179-.047796-.65198-.068262-.974608-.062698-2.016419.034779-3.908846 1.086384-4.994612 2.837477l-5.018211 8.093233c-1.135877 1.831912-3.108773 2.849308-5.134338 2.838925-.934876-.004792-1.880972-.22852-2.761172-.69215l-6.905728-3.637927-108.442314-57.119593c-1.650571-.869409-2.798428-2.45431-3.115508-4.283046l-.038058-.25084-1.482195-11.383233c-.032785-.251789-.081237-.499458-.144528-.741819-.057481-.223794-.128351-.44184-.211042-.654468-.01277-.031193-.025214-.062471-.037915-.093628-.015855-.040286-.032609-.080081-.04978-.11967-.018487-.041499-.03722-.083437-.056424-.125135-.018613-.041316-.037764-.081646-.057353-.121742-.017359-.034807-.035047-.07017-.053077-.105344-.021315-.042175-.043278-.083769-.065718-.125085-.024318-.044309-.048978-.088411-.074184-.132185-.018216-.031997-.037066-.064024-.056208-.095869-.023767-.039256-.047948-.078479-.072575-.117415-.023004-.03659-.046549-.072924-.070481-.108996-.083738-.126102-.172317-.249289-.265476-.369001-.028954-.037261-.058559-.074385-.088606-.11116-.092622-.113339-.189403-.223351-.290216-.329803-.015438-.016308-.031529-.033107-.04772-.049814-.045458-.046899-.091254-.092644-.137814-.137668-.026357-.025481-.052809-.050596-.079501-.075479-.035332-.032941-.070985-.065384-.10705-.097413-.025177-.022353-.050477-.044445-.075973-.066332-.046789-.040175-.094435-.079815-.142737-.118748-.021685-.017473-.043349-.034688-.065142-.05176-.039879-.031244-.080187-.062004-.120921-.092278-.035074-.026065-.07053-.051819-.106298-.077205-.034271-.024324-.068785-.048278-.103581-.071889-.038744-.02629-.077889-.052188-.11738-.077652-.05134-.033106-.103245-.065465-.155722-.097075-.021436-.012911-.042926-.025673-.064511-.038309-.076647-.04487-.154304-.088058-.233108-.129614l-11.385797-6.004185c-.082133-.043312-.164753-.084518-.247803-.123641l.247803.123641c-.105708-.055744-.212224-.108-.319424-.156816-.065203-.029688-.130417-.058004-.195855-.085067-.018698-.007733-.037388-.015353-.056096-.022871-.068067-.027359-.136571-.053444-.205279-.078186-.033221-.011964-.066571-.023642-.099965-.035006-.255334-.086876-.513019-.155352-.771723-.206125-.033497-.006575-.067168-.012881-.100852-.018889-.059012-.010525-.118021-.020128-.177053-.028824-.031199-.004595-.062257-.008918-.093318-.012991-.068477-.008982-.137223-.016774-.205959-.023355-.011823-.001131-.023168-.002183-.034513-.003202-.081599-.007339-.163655-.012996-.24564-.016948l-.029807-.001362zm410.290936 64.260345.250345.911003c.505754 1.857439.982193 3.716404 1.429317 5.575788.886679-.409167 1.797635-.783563 2.729524-1.121131l1.464597-.530408c-2.065424-.634179-3.941338-1.939383-5.269957-3.851219-.222465-.32012-.42364-.64869-.603826-.984033zm-378.84232-137.333314.255057.791943c1.228187 3.847848 2.343712 7.77495 3.338852 11.766238l.220859.895212c.222515.185637.404605.337505.442837.370049 38.648295 32.897699 61.878376 52.558656 69.721525 59.00897 7.618297 6.265393 10.291224 11.675473 10.780898 19.217541.09672 1.489704.115823 2.705383.115823 5.495225v.284353 19.041113c0 1.82906-.208699 3.220802-.56539 4.198131-.23472.643132-.48684 1.000888-.714859 1.170876-.090576.067525-.159246.089755-.230244.09077-.004337.000062.026872.008263.182022.106737-1.475778-.936687-67.360104-35.077549-74.671831-38.692063-.860466-.425367-1.686371-.922783-2.468819-1.473619-.161059.786866-.331625 1.567979-.509814 2.343112l.167626 1.291217 97.603449 51.410873c5.72776-6.931078 14.722877-10.471722 23.785333-9.143756l38.713718 5.672909c5.764222.84466 10.950131 3.57207 14.86295 7.591463-.291782-5.862344-.280235-11.660015.034348-17.355734-.673323-2.285681-.53307-4.810201.555243-7.101878.844539-8.32819 2.358658-16.396941 4.542083-24.085851 3.431349-12.08346 8.470983-23.048396 15.008166-32.457826-25.031505 4.917876-43.334117 8.543375-54.9052 10.876064-11.737356 2.366208-25.877494 2.862776-38.800443 1.468141-6.544929-.706324-12.613407-1.881577-17.837993-3.49599-6.007169-1.856233-10.938946-4.28646-14.598628-7.480466-.620529-.54157-1.370083-1.221871-2.510685-2.273198-.497248-.458329-2.800962-2.59-3.449729-3.188714-3.527525-3.255373-6.631629-6.073341-10.194906-9.228797-10.25169-9.07837-21.475291-18.40896-34.32807-28.32743-5.633178-4.347114-13.815069-10.609385-24.544178-18.785615zm366.71859 68.908405c-1.853872 0-4.311235.284903-7.315892.8823-3.114947.619326-5.675973 1.34715-7.66012 2.150401-1.728009.699558-3.537004.881555-5.255129.6188 12.702804 16.054525 23.001759 35.392721 29.90942 56.652315.444437 1.367837.872842 2.73749 1.285213 4.108513-.239276-3.39983 1.267023-6.835603 4.269115-8.92189 4.865565-3.381295 9.266958-5.664464 13.407343-6.797278.683257-.18694 1.399167-.353033 2.149017-.499038-1.868358-5.428481-3.972507-10.670011-6.282484-15.705084-1.092477-1.300465-1.823079-2.85283-2.145787-4.493413-4.906677-9.911341-10.620268-18.952636-16.912524-26.948264-1.140736-.081876-2.283878-.36394-3.383531-.861465l-.001307-.001848.016047.00553-.041047-.01653.025.011-.042741-.010351c-.065105-.016442-.149327-.034426-.254167-.052635-.433598-.075311-1.026046-.121063-1.766426-.121063zm51.721936 47.87237c.631301 2.049742 1.226722 4.102848 1.786261 6.157822l.108781.404545c.073281.236177.13802.476021.193866.719159.416378 1.567438.811994 3.134963 1.186769 4.70275l19.588721-7.096597-11.223038.000942c-1.646094 0-3.266732-.406352-4.718094-1.182994zm-500.096791-173.669469-.6466678.170656c-.0819669.022835-.1637722.046087-.2454157.069754-.5893045.17082-1.1705052.3634-1.7431617.57717.0039149-.001461.0079291-.002958.0119436-.004455l-.073622.027574c.0205484-.007734.0411079-.01544.0616784-.023119-.2492831.093058-.4968475.19009-.7427823.291095-.055468.022782-.1106074.045662-.1656645.068742-.140321.058821-.2803682.119056-.4198773.180585-6.1947068 2.732075-11.3285899 8.018788-15.2456013 15.21356-.3674496.674943-.7240315 1.366352-1.069786 2.074004-.4063579.831679-.7978585 1.686022-1.1741872 2.561947-.1689808.393315-.3348391.790824-.4976219 1.192603-3.3006873 8.146782-5.3368659 18.048843-5.9512419 29.053574-.0225265.403512-.0431284.808225-.0618137 1.214387-.0115053.250066-.0223054.501216-.0323741.752911-.0218015.545036-.0401612 1.092187-.0550779 1.641807-.3065437 11.295743.8411052 23.634303 3.6028103 36.352721.1681236.774256.3422253 1.549904.5223445 2.32681.1524286.657469.3091723 1.315862.4702476 1.975065l.1936824.784654c7.263593 29.13268 21.2890399 52.960297 36.7507042 65.474482.1249681-.459266.265501-.915297.4233281-1.36924l6.6227635-19.047479c-1.214028-.405308-2.4183278-.902683-3.6078217-1.488226-4.6661892-2.296992-9.0597395-5.921816-13.0637013-10.609265-7.5570022-8.847004-13.6260571-21.375854-17.0832247-35.350723-3.4562511-13.971164-3.9334468-27.898131-1.3845634-39.274035 1.3490908-6.021118 3.534443-11.287401 6.5751711-15.510452 3.5578622-4.941262 8.2535903-8.394581 13.838918-9.798099 5.5936321-1.405605 11.3665511-.575712 16.8274113 2.112466 4.6661892 2.296991 9.0597394 5.921815 13.0637014 10.609264 7.557002 8.847004 13.626057 21.375855 17.083225 35.350723 2.832623 11.450281 3.664253 22.870874 2.469003 32.881773 2.33572.48446 4.650744 1.30259 6.882663 2.479569l8.440983 4.450691c.534432-13.235958-.954733-27.977939-4.732113-43.128181-3.765664-15.103256-9.34871-28.780672-16.007073-40.195051-1.299594-1.230311-2.214184-2.761675-2.70285-4.413872-13.790217-21.494966-31.4520537-33.586422-47.134336-29.67639zm478.177189 126.528851c3.782254 5.801641 7.276469 11.924093 10.447197 18.318538l25.621121 13.710701 75.305682-.000942-36.719317-29.481296c-1.101443.357196-2.284078.52773-3.508822.475705zm78.071681-108.586656c-42.142597 11.54317-69.547684 19.061651-81.902595 22.470166l128.513011 103.181089 14.579683 6.253536 45.30422-17.810838.348-.138-.373206-2.61632c-24.181301-31.100695-43.186442-53.665997-56.949866-67.667912-11.433679-11.631801-27.953376-26.206156-49.519247-43.671721zm141.168253-14.97724-13.302995 33.61385c.00084 1.221816-.223783 2.46433-.698865 3.670041l-5.151074 13.070302 35.349061 37.601016c3.401112 3.61775 3.632483 9.183166.543389 13.070734l-22.67245 28.53025 57.523713-21.495592c-.745141-10.83855 5.687971-21.193724 16.246588-25.106496l3.932954-1.457459c.047315-.017534.094696-.034889.142143-.052064l11.571346-4.189059c-10.390607-23.304404-21.030698-39.954444-31.920274-49.950119-11.792306-10.824302-28.980152-19.926103-51.563536-27.305404zm-686.7335397 45.961016c-.7259229.182415-1.5441987.784189-2.4826685 2.087563-1.3339819 1.852673-2.4948238 4.650081-3.2895019 8.196803-1.833228 8.181867-1.4625825 18.999164 1.2831854 30.098349 2.7448515 11.095482 7.453379 20.815684 12.8758013 27.163729 2.3456912 2.746107 4.6628208 4.657815 6.6894178 5.655434.7089967.349012 1.3096375.558903 1.8227314.659 1.645911-2.811741 3.7674662-5.219477 6.2154582-7.164636.317876-.961934.604142-2.003629.854162-3.119494 1.833228-8.181867 1.462583-18.999164-1.283185-30.09835-2.744852-11.095482-7.4533791-20.815683-12.8758013-27.163728-2.3456912-2.746108-4.6628208-4.657816-6.6894179-5.655434-1.4179934-.698026-2.4025631-.839564-3.1201815-.659236zm365.1294417 40.091299.594814.233094c9.6387 3.773765 19.009754 9.241554 27.863723 16.195689 5.371209 4.218687 10.510072 8.948998 15.372355 14.130017-.005274-3.957609 2.355839-7.708281 6.249912-9.284737 2.70665-1.095746 5.763629-2.018612 9.184271-2.787804-18.584301-15.330446-39.655119-22.524767-59.265075-18.486259zm294.344164-15.123122-8.552013 21.702056c5.30211 6.59507 10.898013 13.678349 16.789123 21.251061l14.724118-18.528409zm-618.683-83.353-.579996 1.042554-3.507891.354081-6.050279 1.051578c3.946121 3.158822 7.744729 6.809991 11.370756 10.900865 4.272675 4.82042 8.288566 10.233929 11.993645 16.135102l8.115459 5.061078c.260926.162694.51421.337336.759043.523369 21.094808 16.028651 36.038929 27.435893 44.844264 34.230956 13.223635 10.204657 24.791572 19.821507 35.368638 29.188014 3.677867 3.25693 6.87892 6.162911 10.499385 9.504054.66364.61244 2.961329 2.738536 3.440837 3.180512 1.014379.934983 1.660921 1.52179 2.106707 1.910852 1.241902 1.083876 3.789806 2.339405 7.352296 3.440225 3.911832 1.208768 8.739327 2.143685 14.079326 2.719974 10.953779 1.182124 23.045947.757476 32.702106-1.189171 14.577982-2.938868 39.756836-7.913388 75.548082-14.925898.083032-.016268.166267-.031482.249685-.045638l9.827049-1.667608c.473273-.080312.944416-.125955 1.410831-.138774 3.468256-1.84576 7.086666-3.414917 10.841827-4.691322l.941631-.312993.850681-.270706c-.28391.088451-.567473.178686-.850681.270706.357642-.116205.715913-.229578 1.074794-.340119.205092-.063196.410476-.12548.616037-.186835.098632-.029384.196951-.058498.295314-.0874.521895-.153461 1.045304-.300982 1.569792-.442533.069211-.018396.138241-.036905.207291-.05531.553172-.147866 1.107787-.288852 1.663534-.423217.081679-.018951.163039-.038444.244425-.057794.229453-.0555.459524-.109114.689782-.161598.051953-.01067.103636-.022367.155329-.034006 4.046458-.914301 8.150823-1.478799 12.290185-1.701125l-.029097.022419c6.754423-5.210732 14.252475-9.204968 22.356737-11.838202l5.188902-1.477484c12.190227-2.990477 24.930123-2.79054 37.593092.421599 13.444262 3.410325 26.559392 10.15188 38.701977 19.68898 5.906292 4.638955 11.531639 9.896548 16.817226 15.691783l65.105279 2.766032-70.911964-56.934544c-22.189762-15.071886-39.1159-25.726239-50.668364-31.91722-8.041339-4.309364-19.205917-9.524943-33.532823-15.645329 4.324331 12.428891 7.169348 21.08391 8.568369 26.072368.541693 1.931501.90162 3.611931 1.083855 5.281669.247018 2.263314.152346 4.434566-.392176 6.584365-1.220395 4.818182-4.387023 8.437071-9.049362 11.05412-3.413008 1.915779-7.831872 3.443201-14.023726 4.986987-5.296737 1.32061-12.091492 2.703421-21.893499 4.489921-4.279708.780013-8.679941 1.592364-13.255201 2.446338-7.002129 1.306949-14.219132 2.674399-22.659968 4.289415-4.942035.945577-21.53918 4.135169-21.079743 4.047006-16.818052 3.227281-26.320886 5.003914-34.31899 6.381581-1.431836.246633-3.010914.559848-5.043391.994159-1.114437.23814-5.177245 1.129451-5.811296 1.266664-6.891721 1.491413-11.793635 2.358773-17.180725 2.892254-7.083915.701516-13.887995.629525-20.739059-.37782-16.439405-2.417167-32.30013-10.144721-48.040881-24.35477-24.421218-22.046389-56.277915-44.949268-95.553396-68.660382-.298225-.180043-.586838-.375545-.86466-.585709zm582.245006-5.334878c-14.690833 6.144584-29.867981 16.837824-45.531444 32.079719l-2.008212-.550554c13.903938 11.759618 25.182825 22.039287 33.851662 30.858337 7.610888 7.742769 16.62512 17.834783 27.057794 30.289132l8.994463-22.826057c-.012255-1.269442.217156-2.550959.701556-3.774842l27.424588-69.293443c-20.706309-3.272982-37.536444-2.200412-50.490407 3.217708zm-367.33296-119.198121-8.66436 1.262601-95.575935 2.59148-44.124381 8.932581-.87037 1.215337 18.169872 8.945351c6.183944 3.044296 7.506265 11.285089 2.585226 16.111295l-46.578021 45.680416c-.816954.80121-1.73643 1.433774-2.715269 1.898113l-22.890545 23.283896c39.136033 23.779828 71.1468 46.891238 96.058672 69.380567 6.79596 6.13509 13.463985 10.711731 20.063602 13.927151 5.85571 2.852979 11.633591 4.62556 17.484816 5.485894 5.139962.755754 10.323251.810596 15.858695.262424 4.468051-.442469 8.713351-1.193646 14.921464-2.537122.58467-.126526 4.683196-1.025674 5.862141-1.277597 2.270859-.485251 4.091688-.846417 5.827765-1.145455 7.711171-1.328244 16.961703-3.055962 33.179536-6.166642l.765334-.14683c.329788-.063507 16.258593-3.124561 21.090359-4.04904 8.468179-1.620247 15.713471-2.993058 22.748831-4.30621 4.60215-.858992 9.030075-1.676455 13.338736-2.461746 9.4149-1.715946 15.853395-3.026254 20.641208-4.219977 3.781383-.942794 6.439274-1.796243 8.112502-2.54541-.043858-.170901-.094112-.356838-.149726-.55514-1.919873-6.845646-7.164739-22.266229-15.650578-45.972673-2.910978-8.132244 5.16298-15.881241 13.16885-12.638832 6.121873 2.479383 11.861666 4.851372 17.220933 7.11696l-26.327112-22.55661c-.300195-.257205-.584875-.531984-.852541-.82289-.9542-1.037051-1.762224-2.024528-2.438321-3.008829-.976786-1.422062-1.712728-2.862584-2.153022-4.537139-.471216-1.79216-.51547-3.546003-.280184-5.329901.166555-1.26279.477621-2.540374.916099-3.882037.02648-.081024.053995-.161706.082538-.242026l8.828875-24.844556c1.95188-5.492613 8.168957-8.158313 13.49329-5.785526 51.264387 22.845955 78.925311 35.274392 83.718349 37.621783 2.587195 1.267079 5.990315 2.175646 9.930744 2.501117 4.75023.392359 10.036808-.07544 15.713918-1.53708 4.239399-1.091484 9.39046-2.446772 15.719422-4.131142.22791-.060655.457484-.121773.688818-.18338-.010836.002758-.004466.000985.024026-.006702.892744-.240863 23.503842-6.28799 26.158567-6.965915 1.022156-.261023 2.08227-.607161 3.105719-1.011556l-41.674022-17.747107c-.876186 3.890928-4.028843 6.978369-8.102914 7.661238-19.972323 3.347627-38.979204 3.766152-56.99564 1.227672-9.896982-1.394465-17.273812-3.645432-22.415393-7.211808-6.900978-4.786753-9.774265-12.170088-7.440544-19.990059 1.021603-5.326823 2.269851-10.062048 3.763663-14.223719-15.687295-3.351881-29.321746-5.999486-40.904291-7.942333-16.186683-2.715143-35.328541-5.221776-57.425573-7.519902l-2.09249-2.654393 8.725799 11.663303v5.15989c-16.510633 3.221981-25.989913 5.073804-28.43784 5.55547-3.671889.722499-11.810393.654312-19.060325.327156-4.833289-.218104-18.453215-.779599-40.859779-1.684484l-2.041057-6.337648 2.96705-7.00131 11.173274-4.577071zm102.881029 69.731376-4.36067 12.270974 38.99896 33.413926c1.928005 1.651896 3.094603 3.909366 3.400846 6.290344 15.854375 10.639503 28.078994 18.85967 36.699727 24.677769 9.345644 6.307337 13.994967 9.471767 15.578737 10.632424.159875.060308.372188.122635.604298.171411.306656.064441.607299.096742.860832.095646.099705-.000431.18339-.005971.24779-.01458.019338-.002585.034064-.005065.043957-.007095 2.496869-.72759 27.826045-7.687611 76.582932-21.044531-1.269316-2.447132-1.481434-5.342404-.549774-7.963205l-11.577536 3.116644c-1.525816.410707-3.150414-.115307-4.145948-1.342379l-.26291-.324056c-1.014592-1.250561-2.680173-1.770749-4.226144-1.319894l-16.763869 4.888883c-1.149789.335315-2.088824 1.168204-2.559004 2.26974l-1.259455 2.950647c-.488658 1.144826-1.482424 1.996915-2.688414 2.305137l-27.27244 6.970181c-2.671323.682727-5.216153-1.47842-4.975158-4.225055l2.105904-24.001175c.139506-1.589955 1.211033-2.945668 2.726266-3.447155 15.10489-4.999177 27.961643-8.848471 38.57026-11.547884 10.308147-2.622956 25.365513-5.90881 45.172097-9.85756 2.599885-.518327 4.973448 1.592761 4.767115 4.235769l-1.607262 20.5881c-.043269.554249-.201597 1.093393-.464882 1.583031l-1.021585 1.898419c.112549.066765.224175.13597.334811.207623.607308-1.284014 1.044777-2.619199 1.314765-4.005354l1.854933-25.53367-15.178117-7.613023c-.722874.602124-1.485854 1.176151-2.285722 1.724269-3.960586 2.714027-8.842809 4.774983-13.495041 5.963002-2.518786.643211-24.636837 6.558365-25.908187 6.900268l-.014187.003032h-.001l-.018891.006189c-.035274.009527-.03005.008045.013805-.003766l.074114-.019437c-.276397.073616-.550302.146541-.821879.218817-6.376785 1.697097-11.574903 3.064767-15.876495 4.172263-7.818848 2.013056-15.345856 2.679107-22.346888 2.100836-6.374093-.526487-12.203311-2.082774-17.081077-4.471661-4.147297-2.031138-28.737-13.090882-73.189614-32.913864zm102.145736 57.496538c-1.118134 4.843168 1.247243 9.524686 5.283216 10.456464 4.035972.931777 8.214201-2.23903 9.332334-7.082198 1.118134-4.843168-1.247243-9.524686-5.283216-10.456463-4.035972-.931778-8.214201 2.23903-9.332334 7.082197zm60.224951-15.97437c-.993897 4.305038 1.035953 8.449602 4.533797 9.257143 3.497843.80754 7.139117-2.027741 8.133013-6.332779.993897-4.305038-1.035953-8.449602-4.533797-9.257143-3.497843-.80754-7.139117 2.027741-8.133013 6.332779zm-78.801446-86.369036c-.078261.02936-.15678.055989-.235531.082337-3.705444 1.239774-7.942978 1.875499-12.745819 1.973955-1.507341 3.350584-2.546416 6.156123-3.118856 8.370794-.622281 2.407499-1.191121 6.015231-1.676831 10.747547 8.224363.2359 16.705619-.176015 25.446975-1.242206-.065992-2.638966-.352398-5.09094-.858174-7.358727-.703019-1.845881-1.627873-4.013998-2.772246-6.486533-.306385-.661974-.53423-1.340199-.687391-2.024178-.957611-1.48804-2.075335-2.842293-3.352127-4.062989zm-37.585697-4.947359-.148299.146218c-2.99324 2.962305-4.92354 5.645996-5.867031 7.957281-1.422076 3.483682-2.660483 7.91087-3.676213 13.259508 1.867178 1.014501 5.100592 2.015122 9.590942 2.831102.586978-5.739258 1.316483-10.319567 2.222476-13.824698.554091-2.143682 1.323229-4.46732 2.307107-6.983246-1.701533-.933163-3.189805-2.072842-4.428982-3.386165zm-85.949279-3.093445c10.391289 1.460401 18.565853 4.417722 18.258401 6.605361-.263963 1.878188-6.694204 2.57842-15.084058 1.814749-.654902.608824-.997481 1.078053-1.028756 1.408598-.042051.444431.436694 1.081761 1.436234 1.91199 1.176518.8007 1.560607 1.539024 1.152267 2.21497s-1.542048 1.178507-3.401126 1.507684c-3.779935.315254-8.58362 1.217724-14.411055 2.707409-8.741153 2.234528-10.526055 2.998695-16.792964 3.666667-4.17794.445315-9.354686.371505-15.530239-.22143-4.164719-.690528-7.519878-.92929-10.065475-.716283-2.300905.192531-6.541839 1.09683-12.722802 2.712898-3.191593 1.045032-7.213768 1.851286-11.617666 2.236577-10.728571.938629-19.659922-.976532-19.948731-4.277631-.288808-3.301099 8.174291-6.738077 18.902863-7.676705 6.002787-.525176 11.442944-.156956 15.121448.847553 1.559779-.010478 2.909836-.039756 4.050002-.087533 2.944775-.123396 6.199941-.441863 9.765498-.955402l31.987681-6.481484c1.435353-.17717 2.674932-.565682 3.718738-1.165535.51285-.294724 1.094145-.70696 1.743885-1.236707-3.176656-1.174245-5.056345-2.428712-4.905931-3.498963.307453-2.187639 8.980497-2.777183 19.371786-1.316783zm-218.67134 16.240295.439 4.28 2.759613-2.704931z"/></svg>