<svg height="960" viewBox="0 0 960 960" width="960" xmlns="http://www.w3.org/2000/svg"><path d="m274.555121 59.0509624 534.811476 15.2762398c81.141748 2.3177154 145.717179 68.7640028 145.717179 149.9388458v500.116731c0 80.587199-63.675907 146.773456-144.2029 149.887937l-534.811475 20.684491c-1.931465.074702-3.864192.112063-5.797101.112063-11.171666 0-22.209389-1.228348-32.941677-3.706398-19.915368-2.031466-35.986707-4.130747-48.443506-6.34878-12.000681-2.136819-27.740893-5.647991-47.469842-10.569642-75.7359892-7.929773-133.95974638-71.984482-133.95974638-148.992706v-499.979683c0-1.359677.01848723-2.719291.05545655-4.078466 2.04481387-75.177446 59.33716453-136.7400014 133.15326483-144.8486739 16.041774-4.0207844 31.096013-7.1339336 45.216742-9.3572871 15.995844-2.5185963 35.843935-4.5447907 59.729008-6.1252608 9.499365-1.6264752 19.184876-2.2881432 28.943121-2.0094108zm640.528408 631.5471176-754.812 13.737.000771 40.73219c0 52.768997 37.157012 96.859509 86.734401 107.534901.139725.030087.279848.059972.420069.08959l-.420069-.08959c.643994.13867 1.290083.271701 1.938214.399041l-1.518145-.309451c.523361.110545 1.048093.217369 1.574169.320442l-.056024-.010991c.54987.108033 1.101209.21197 1.653984.311776l-1.59796-.300785c.574208.112505 1.150016.220542 1.727386.324073l1.550204.265804.412006-.016766c1.394674-.056314 2.734146.175808 3.960833.643253l.881309.108919c.117222.013518.2345.026853.351834.040003l-.352258-.040052c.626427.072246 1.254457.139231 1.884044.200907l-1.531786-.160855c.579446.064941 1.160254.12538 1.742387.181282l-.210601-.020427c.529551.051877 1.060205.099998 1.591933.144337l-1.381332-.12391c.58057.055753 1.162459.106992 1.74563.153683l-.364298-.029773c.620947.05178 1.24336.098401 1.867195.139822l-1.502897-.110049c.621267.049741 1.24399.09432 1.868126.133694l-.365229-.023645c.631958.04196 1.265375.078582 1.900207.109823l-1.534978-.086178c.588877.03715 1.179012.069666 1.770369.097513l-.235391-.011335c.564334.027772 1.129786.051291 1.696325.070526l-1.460934-.059191c.574576.027056 1.150305.049705 1.727155.067912l-.266221-.008721c.614086.020849 1.229449.036665 1.846049.047407l-1.579828-.038686c.640543.020217 1.282467.034958 1.925728.044177l-.3459-.005491c.650072.011325 1.301519.017011 1.954294.017011 1.417466 0 2.8348-.027398 4.251207-.08218l534.811476-20.684491c59.053128-2.283952 105.748793-50.820541 105.748793-109.91782zm-725.570869-583.483934-.317348.054236c-12.678557 2.095842-26.295809 4.98657-40.853001 8.670418-55.2050931 4.521584-99.3034181 49.996796-100.8441142 106.640386-.0271109.996728-.0406682 1.993779-.0406682 2.990875v499.979683c0 57.934485 44.7875599 105.408275 101.6293774 109.683174 2.155396.540376 4.260724 1.063336 6.315982 1.568879-25.309143-24.851663-41.088023-60.084983-41.088023-99.109981v-41.916723c0-5.253306 4.064836-9.610986 9.305455-9.975852l16.479912-1.147373.171297-.009788.000771-475.552272.013251-1.856077c.008834-.618647.022084-1.237229.03975-1.855701 1.140501-39.928213 20.169019-75.136014 49.187359-98.163884zm99.764311 616.047107c22.069842 1.204858 37.808464 21.852107 35.787529 45.432042-2.00236 23.362318-20.735645 41.71713-42.541764 40.509391-22.064536-1.221468-37.800891-21.862931-35.779725-45.428048 2.002504-23.348417 20.732554-41.702825 42.53396-40.513385zm86.00838-2.962269c22.071722 1.207023 37.806904 21.871989 35.786674 45.468358-2.001797 23.380197-20.73342 41.751979-42.542769 40.542024-22.066413-1.223635-37.799331-21.882816-35.778871-45.464364 2.001941-23.366296 20.730331-41.737672 42.534966-40.546018zm-235.013822-15.610904-5.956664.414994v32.588742c0 25.214844 7.652919 48.530443 20.644396 67.556589-9.382405-17.970162-14.686961-38.406176-14.686961-60.081135zm321.022202 12.648634c22.0736 1.209189 37.805346 21.891868 35.78582 45.504677-2.001237 23.39808-20.731196 41.786826-42.543776 40.574654-22.068289-1.225801-37.797772-21.902695-35.778017-45.50068 2.00138-23.384179 20.728109-41.772518 42.535973-40.578651zm86.008379-2.962269c22.075478 1.211355 37.803791 21.91174 35.784966 45.540997-2.000678 23.415966-20.728973 41.821672-42.544782 40.607282-22.070163-1.227968-37.796215-21.922569-35.777162-45.536999 2.000821-23.402064 20.725886-41.807362 42.536978-40.61128zm86.00838-2.962269c22.077354 1.213521 37.802236 21.931607 35.78411 45.577319-2.00012 23.433855-20.726747 41.856517-42.545786 40.639907-22.072036-1.230133-37.794661-21.942436-35.776308-45.573318 2.000262-23.419953 20.723664-41.842206 42.537984-40.643908zm86.00838-2.962269c22.079228 1.215687 37.800684 21.951469 35.783255 45.613643-1.999564 23.451747-20.724524 41.891359-42.546792 40.672531-22.073908-1.232301-37.793108-21.9623-35.775452-45.60964 1.999705-23.437846 20.721441-41.877048 42.538989-40.676534zm86.008379-2.962269c22.081102 1.217853 37.799134 21.971326 35.7824 45.649969-1.999009 23.469642-20.7223 41.926201-42.547797 40.705153-22.075778-1.234468-37.791556-21.982158-35.774597-45.645964 1.99915-23.455742 20.719219-41.911888 42.539994-40.709158zm-518.702715 37.734891c5.17804 6.333689 8.006129 15.102383 7.190689 24.616807-.717094 8.366616-4.127187 15.853132-9.166827 21.41772 10.063679-.083888 19.404258-9.613681 20.489159-22.271646 1.102952-12.869066-6.770498-23.19812-16.950471-23.753875-.522453-.028504-1.043649-.031215-1.56255-.009006zm86.006968-2.962399-.013808.001188c5.189321 6.34124 8.020852 15.123508 7.204978 24.652952-.717531 8.380476-4.131346 15.87876-9.176046 21.450058 10.064513-.078019 19.412498-9.621337 20.498303-22.303099 1.103657-12.890767-6.773232-23.235462-16.951326-23.792065-.522291-.028544-1.043338-.031264-1.562101-.009034zm86.006967-2.962399-.023217.000323c5.195613 6.349001 8.031262 15.145686 7.21487 24.691149-.717936 8.393975-4.135203 15.903739-9.184596 21.481668 10.065294-.072039 19.420106-9.628676 20.506777-22.333824 1.10436-12.912463-6.775965-23.272803-16.952181-23.830254-.522129-.028584-1.043028-.031313-1.561653-.009062zm86.006968-2.962399-.030561.001971c5.200591 6.356565 8.039497 15.166608 7.222696 24.726834-.718365 8.407746-4.139278 15.929206-9.193625 21.513819 10.065931-.065956 19.428157-9.63613 20.51573-22.365093 1.105061-12.93415-6.778697-23.310142-16.953035-23.868442-.521969-.028623-1.042718-.031361-1.561205-.009089zm86.006967-2.962399-.039897.001169c5.206836 6.364313 8.04983 15.18875 7.232514 24.764968-.718753 8.421072-4.142981 15.953874-9.201834 21.545077 10.066986-.060234 19.435464-9.643525 20.523864-22.39547 1.105761-12.955831-6.781427-23.34748-16.95389-23.906627-.521807-.028664-1.042407-.031411-1.560757-.009117zm86.006968-2.962399-.048042.001812c5.212322 6.371947 8.058908 15.210169 7.241141 24.801658-.719223 8.435348-4.147453 15.980242-9.211742 21.578224 10.068495-.05512 19.444397-9.65196 20.533697-22.427739 1.106457-12.977505-6.784157-23.384816-16.954746-23.94481-.521645-.028704-1.042096-.03146-1.560308-.009145zm86.006967-2.962399-.055724.003007c5.217514 6.379536 8.067499 15.231311 7.249305 24.837795-.719629 8.448911-4.151336 16.005332-9.220346 21.609944 10.069319-.049201 19.452064-9.659383 20.542226-22.458582 1.107153-12.999171-6.786885-23.42215-16.955601-23.982991-.521483-.028744-1.041785-.031509-1.55986-.009173zm-533.000669-626.3578705-1.46799.0168632c-.137091.002478-.274124.0052083-.411098.0081904l.41099-.0081885c-.642952.0116226-1.284623.0287936-1.924964.0514683l1.513974-.0432798c-.619757.013493-1.238311.0321412-1.855619.0559044-.454997.0175177-.908685.037782-1.361682.0608014l1.361682-.0608014c-.565887.0217838-1.130727.0478659-1.694487.0782153l.332805-.0174139c-.628957.0319609-1.25658.0692328-1.882824.1117727l1.550019-.0943588c-.621374.033451-1.241437.072086-1.860145.1158636l.310126-.0215048c-.580738.0394487-1.160291.0834278-1.738622.1319027l1.428496-.1103979c-.548617.0388183-1.096169.08168-1.642625.1285561l.214129-.0181582c-.621634.0521046-1.241855.1094036-1.860619.1718545l1.64649-.1536963c-.594619.0510077-1.187939.1067686-1.779922.1672455l.133432-.0135492c-.523485.0528345-1.045926.1093563-1.567298.1695398l1.433866-.1559906c-.61479.0628068-1.228137.1307-1.839997.2036377l.406131-.0476471c-.638428.0736958-1.275252.152882-1.91042.2375113l1.504289-.1898642c-.580291.0691745-1.159245.1428864-1.736824.2211l.232535-.0312358c-.549144.0731671-1.09705.1504031-1.643687.2316771l1.411152-.2004413c-.571766.0774263-1.142183.1592643-1.711217.2454793l.300065-.045038c-.61445.091356-1.227298.187815-1.838495.289332l1.53843-.244294c-.605924.091805-1.210278.188572-1.813019.290261l.274589-.045967c-.531287.088244-1.061328.180311-1.590092.276171l1.315503-.230204c-.548067.092464-1.094799.188997-1.640164.289568l.324661-.059364c-50.081098 9.079268-88.708873 52.190991-90.220077 105.097288-.029896 1.046645-.044847 2.093663-.044847 3.140735l-.000771 475.343272 754.812-13.737.000247-446.330032c0-59.528218-47.355316-108.255496-106.859265-109.955154l-534.811475-15.2762394-1.658252-.0351109c-.105441-.0014527-.210849-.0027561-.316226-.0039104-.591675-.0064834-1.182803-.0082633-1.772888-.0053688zm215.976687 16.3259795 137.293448 2.528936c41.893508.771676 75.801831 35.315217 75.801831 77.220447 0 42.049067-34.132813 75.563856-76.170167 74.789531l-137.293448-2.528936c-41.893508-.771676-75.801831-35.315218-75.801831-77.220447 0-42.049067 34.132813-75.563856 76.170167-74.789531zm-56.170167 74.789531c0 31.003742 25.177553 56.652957 56.170167 57.223839l137.293448 2.528936c30.848768.568232 55.801831-23.933019 55.801831-54.792923 0-31.003742-25.177553-56.652957-56.170167-57.223839l-137.293448-2.528936c-30.848768-.568233-55.801831 23.933019-55.801831 54.792923zm190.853474-45.701328c27.501006.506567 49.744928 23.15015 49.744928 50.644814 0 27.638588-22.468499 49.683047-50.113264 49.173832l-5.090685-.35018c-25.103921-3.005784-44.654244-24.518387-44.654244-50.294634 0-27.638588 22.468499-49.683046 50.113265-49.173832zm-130.02552-2.395061c27.501006.506567 49.744929 23.15015 49.744929 50.644814 0 27.638588-22.468499 49.683046-50.113265 49.173831l-5.090685-.350179c-25.103921-3.005785-44.654243-24.518387-44.654243-50.294635 0-27.638588 22.468499-49.683046 50.113264-49.173831zm99.912255 51.568893c0 16.58983 13.509809 30.342371 30.113265 30.648206l3.046524-.09703c15.021931-1.242422 26.698404-13.662157 26.698404-29.080194 0-16.58983-13.509808-30.342371-30.113264-30.648206-16.459697-.303186-29.744929 12.731318-29.744929 29.177224zm-130.025519-2.395062c0 16.58983 13.509808 30.342372 30.113264 30.648206l3.046524-.09703c15.021931-1.242422 26.698405-13.662156 26.698405-29.080193 0-16.58983-13.509809-30.342372-30.113265-30.648206-16.459696-.303187-29.744928 12.731317-29.744928 29.177223z"/></svg>