<svg height="960" viewBox="0 0 960 960" width="960" xmlns="http://www.w3.org/2000/svg"><path d="m883 147c35.898509 0 65 29.101491 65 65v311.641654c0 35.898509-29.101491 65-65 65l-16-.000654v126.401478c0 35.898509-29.101491 65-65.000052 65l-162.770948-.000599.001474 69.958016c.000057 10.930676-8.768687 19.813329-19.65551 20.000105h-360.805438c-11.045649 0-19.999935-8.954234-20-19.999883l-.000526-69.958238-162.769.000599c-35.5395237 0-64.4172905-28.522372-64.9912919-63.925106l-.0087081-1.074894v-411.042478c0-35.898509 29.1014913-65 65.0000993-65h157.4219007l.000584-27c0-35.898509 29.101492-65 65-65zm0 40h-584.577416c-13.807118 0-25 11.192881-25 25v311.641654c0 13.807119 11.192882 25 25 25h584.577416c13.807119 0 25-11.192881 25-25v-311.641654c0-13.807119-11.192881-25-25-25zm-78 247v47h-332v-47zm-442.5-137c35.622366 0 64.5 29.101491 64.5 65s-28.877634 65-64.5 65-64.5-29.101491-64.5-65 28.877634-65 64.5-65zm442.5 47v47h-332v-47z"/></svg>