<svg height="960" viewBox="0 0 960 960" width="960" xmlns="http://www.w3.org/2000/svg"><path d="m270.598483 42.9079975.190412.0107153 545.78844 33.3249537c66.496027 3.8949118 117.410532 61.0814305 117.410532 130.6752185v544.965084c0 69.60055-50.921122 126.795694-117.411929 130.685631l.032062-.002579-545.771925 34.894223-.245636.014188c-22.101067 1.140204-43.781378-3.503657-63.360077-13.258731l-.299362-.15068-122.7073334-40.987404c-1.0735969-.358606-2.1144887-.807597-3.1115367-1.341981l-.4948187-.274284c-33.6737646-19.293419-54.6173112-55.142036-54.6173112-93.640442v-574.67c0-38.356083 20.7892527-74.089347 54.2750516-93.4351409 1.1395329-.6583438 2.3412636-1.202606 3.587716-1.6248715l122.5472324-41.5158762.379178-.1928856c19.688888-9.9029246 41.529342-14.6223838 63.809305-13.4751383zm-9.371423 40.0217836c-9.810591.2768276-19.252859 2.1960788-28.067605 5.4894677-3.007159 1.1439862-5.961764 2.4546941-8.852319 3.9291117l-.593136.3057333-.286073.1540921c-.40285.2077815-.812663.4018151-1.228728.5817612-28.515538 15.3162909-48.163199 45.7524599-48.163199 80.1461099v613.311705c0 34.533875 19.80941 65.079011 48.512904 80.33714.254521.106044.50523.219705.753545.338521l.554843.276131c3.296604 1.704866 6.677124 3.196224 10.125893 4.46785 8.578314 3.109038 17.738717 4.91944 27.244876 5.187678 2.298121.064846 4.664235.03346 7.028904-.086767l-.018965.000046 545.78668-35.274371c21.522308-1.270273 41.443618-10.916425 56.245863-27.252705l.480863-.535074c14.964987-16.827284 23.235461-39.06025 23.235461-62.601295v-544.601689c0-23.538816-8.269731-45.769201-23.226309-62.588499-14.854219-16.666601-34.973489-26.507413-56.758135-27.791951l-545.813423-33.7104157-1.108497-.0492923c-1.970048-.0759289-3.934466-.0874361-5.853443-.0332879zm-86.740945 26.6926599-75.791115 25.67658-.2926883.180982c-19.8470716 12.323762-32.1468845 33.924993-32.4023117 56.951862v575.390045c0 23.383805 12.4421329 45.38225 32.6094645 57.808281l.2955355.17983 75.857925 25.339524c-13.027047-18.211761-20.726925-40.468733-20.726925-64.301783v-613.311705c0-23.664291 7.590836-45.774399 20.450115-63.913616zm150.549885 65.660544c.760824 0 1.521467.023467 2.280845.070368l465.950867 28.778014c19.511654 1.205077 34.719155 17.380799 34.719155 36.929632v476.807971c0 19.508062-15.146179 35.664758-34.613624 36.922963l-465.950867 30.114972c-20.391989 1.317959-37.99138-14.144598-39.309339-34.536587-.051345-.794423-.077037-1.590296-.077037-2.386376v-535.700957c0-20.434535 16.565464-37 37-37zm0 20c-9.388841 0-17 7.61116-17 17v535.700957c0 .365766.011805.731438.035395 1.096443.605549 9.369292 8.691756 16.47371 18.061048 15.868161l465.950867-30.114972c8.944502-.578094 15.903557-8.001441 15.903557-16.964604v-476.807971c0-8.981896-6.98723-16.413985-15.952044-16.967669l-465.950867-28.778014c-.348903-.021549-.698388-.032331-1.047956-.032331zm114.184737 118.184717.735305.006444c24.247131.419662 43.46019 21.114795 43.46019 45.642119l-.000679 147.562547.378885.291337c18.190964 14.16811 29.107287 36.34058 29.347626 60.252758l.004053.806679c0 41.898697-32.469612 76.74796-73.189724 77.45795-41.065508.711472-73.88584-33.814754-73.88584-76.319987 0-24.372535 10.885038-47.137832 29.19965-61.732887l.52935-.41885.000885-148.579477c0-24.592801 19.205382-44.974743 43.420299-44.968633zm224.793197 19.844687.003294.727664c.215154 23.775926 10.96593 48.106746 30.896375 76.32252l.612982.864965c2.254855 3.171448 7.031696 9.493786 12.050852 16.114132l.685718.904354c.343396.452832.687437.906447 1.0314 1.359941l.732414.96563c5.994798 7.903713 11.809597 15.574755 13.603196 18.206078l.0801.118142c1.927027 2.851904 5.137763 8.045897 8.433693 13.51756l.599932.997448c.100056.166598.200124.333336.30017.500157l.599747 1.001457.597622 1.000683c.695364 1.16594 1.383122 2.324669 2.051836 3.456485 8.96036 15.129103 13.209019 33.188585 13.209019 53.56707 0 55.570301-42.489438 101.643526-95.292584 102.687211-53.027029 1.03829-95.707416-44.639447-95.707416-101.512579 0-20.325764 3.975599-38.934357 12.227723-53.831927 1.185396-2.135966 4.05449-6.835995 7.049937-11.605454l.600312-.954078c2.504477-3.973023 5.024599-7.87877 6.659125-10.273585 1.57372-2.298573 6.74614-9.112977 12.281719-16.391697l.723826-.951699c.241784-.317888.483989-.636321.726349-.954966l.727277-.956238.726609-.95551c5.080205-6.68136 9.994061-13.162398 12.278813-16.359274 20.567075-28.777918 31.50996-53.350318 31.50996-77.56449l.00596-.396c.39204-12.936 19.99404-12.804 19.99404.396zm-248.213496 25.123946v154.910693c0 2.624796-1.30048 5.061013-3.421449 6.41001-16.179957 10.312723-26.308436 28.948939-26.308436 49.410511 0 31.618991 23.971134 56.835267 53.539386 56.322988 29.565483-.5155 53.536178-26.241786 53.536178-57.460951 0-20.203133-10.128479-38.482722-26.308436-48.534717-2.120969-1.320619-3.421449-3.73103-3.421449-6.341032v-154.037572c0-13.862842-10.730644-25.418805-23.806293-25.645114-13.078472-.225719-23.809501 11.023353-23.809501 24.965184zm13.32836 76.313645 21.288546.111865v92.683116c17.360284 4.839164 30.135985 21.455157 30.135985 41.305304 0 23.727976-18.257896 43.259066-40.781867 43.616608-22.520753.355763-40.781866-18.784232-40.781866-42.743076 0-20.043284 12.778918-36.984014 30.139202-42.056179zm224.859486-55.518591-.15635.369652c-5.925031 13.806187-14.351474 27.926379-25.056345 42.904877-2.451616 3.430357-7.462186 10.045743-12.54915 16.735529l-1.387382 1.823995-.599557.788012c-.299279.39333-.597695.785505-.894736 1.175883l-.592097.778168c-5.211317 6.849295-9.886899 13.004084-11.20235 14.925421-1.309088 1.91801-3.306179 5.002948-5.375969 8.267951l-.565828.894178c-.377804.598107-.756162 1.199201-1.131376 1.797349l-.560001.894274c-2.50523 4.007618-4.782951 7.745938-5.695763 9.390733-6.443779 11.632968-9.719096 26.963749-9.719096 44.133896 0 46.048926 33.897892 82.327392 75.314033 81.516448 41.630973-.822861 75.685967-37.750235 75.685967-82.69108 0-17.004854-3.427247-31.572816-10.422742-43.384357-1.152373-1.950421-2.378656-4.008626-3.60243-6.044417l-.564362-.93753c-3.099951-5.142446-6.107979-10.011389-7.774089-12.477148l-.009066-.013442c-1.402288-2.082587-6.811768-9.210708-12.622763-16.868491l-.602422-.793889-1.06737-1.406797-.712594-.939466-.71172-.938635c-.118467-.15627-.236837-.312429-.355081-.468441l-.707701-.933999c-4.587044-6.055554-8.889855-11.771889-11.123427-14.913401-10.678825-15.019734-19.098014-29.2083-25.022673-43.07667z"/></svg>