<?xml version="1.0" encoding="UTF-8"?>
<svg width="1000px" height="1000px" viewBox="0 0 1000 1000" version="1.1" xmlns="http://www.w3.org/2000/svg" xmlns:xlink="http://www.w3.org/1999/xlink">
    <title>Lilly</title>
    <g id="Lilly" stroke="none" stroke-width="1" fill="none" fill-rule="evenodd">
        <path d="M435.014003,945.683592 C435.016165,940.65655 435.018761,934.629481 435.021733,927.734539 L435.021777,927.631938 C435.027455,914.462448 435.027455,914.462448 435.032186,903.497099 C435.034197,898.837784 435.034197,898.837784 435.035617,895.54967 C435.035976,894.717718 435.036214,894.166461 435.036381,893.780154 C434.885945,893.766937 434.735804,893.753629 434.585948,893.74022 C414.894178,891.978306 402.798886,888.515054 397.323232,882.043724 C393.681418,877.739167 391.925113,873.538734 392.008463,869.577431 C392.096786,865.370331 394.95713,862.493567 399.560815,860.781623 C402.872656,859.55007 407.205563,858.842128 412.709624,858.478056 C423.321461,857.775988 443.34409,855.139398 475.971137,849.896752 C511.205239,844.235069 533.477078,810.329827 545.670022,756.095689 C549.226311,740.27734 551.747013,723.469332 553.520636,705.528344 C554.20099,698.64625 554.747884,691.853422 555.234667,684.593455 C555.417637,681.864614 555.583016,679.216352 555.775455,675.988298 C555.753499,676.356599 556.109793,670.322416 556.196926,668.908116 C557.225322,652.203876 557.903762,629.685777 558.281484,602.805526 C558.662678,575.67822 558.711008,546.877921 558.55775,520.093492 L472.185217,590.822415 C442.339577,615.246411 404.443822,616.379001 363.819726,598.775571 C337.615607,587.420675 311.202018,568.381072 290.328916,547.2689 C287.190453,552.33843 283.755176,557.899472 280.090289,563.847022 C268.146853,583.22939 256.203951,602.755447 245.060966,621.175988 C244.315876,622.4077 243.576337,623.631228 242.842505,624.846324 C221.275711,660.557111 205.698077,687.217549 198.707882,700.712702 C198.012199,702.055869 192.97318,711.920421 191.19259,715.352657 C187.615589,722.247623 184.27311,728.476534 180.717961,734.798513 C171.31814,751.513837 161.452965,767.014507 150.490742,781.702559 C131.747716,806.815942 111.036253,827.82563 87.8127675,843.811267 C60.0303253,862.935013 29.5419427,874.191453 -3.73091492,876.200017 L-5.25150958,851.010621 C23.2308442,849.291242 49.3594335,839.644456 73.5044261,823.024509 C94.2484881,808.745557 113.063161,789.659971 130.26703,766.608871 C140.523853,752.865971 149.82027,738.258963 158.7221,722.429195 C162.124456,716.378921 165.336972,710.392205 168.792315,703.731745 C170.525352,700.391171 175.559283,690.536579 176.300063,689.106343 C183.638901,674.938105 199.369946,648.015112 221.240992,611.800536 C221.978008,610.580169 222.720709,609.351411 223.468941,608.114503 C234.651722,589.628175 246.629283,570.045453 258.60631,550.608571 C262.797873,543.806307 266.6902,537.507777 270.183709,531.86855 C271.183032,530.255441 272.090845,528.791344 272.900358,527.486868 C251.940208,500.553642 234.41765,464.963688 227.249569,431.516269 C217.918541,387.97619 226.014648,350.402 254.780668,324.814889 L599.638158,17.5548475 C623.005657,-3.19613967 657.511444,-4.79731479 692.971561,8.45497845 C731.082093,22.6962216 766.348073,51.0097948 796.183248,88.4569817 C825.96388,125.835529 846.042786,167.143843 852.436805,208.280846 C858.400062,246.656184 850.809508,280.719595 826.638294,300.567128 L688.073139,414.035656 C688.09739,419.366988 688.170388,425.667522 688.383344,443.478098 C689.42016,530.192495 688.032684,599.876101 680.760776,716.709271 C677.365848,771.243127 665.026486,811.900585 644.783745,840.554394 C627.558373,864.937085 605.130702,880.046578 578.023756,887.976654 C566.515666,891.34332 554.423776,893.352507 541.23101,894.357461 C534.052677,894.904268 528.029471,895.124077 519.33578,895.185648 L519.33578,945.710278 C556.760449,946.534067 590.052482,948.426815 614.282548,951.080316 C643.130257,954.239508 656.585771,957.545762 656.585771,964.403595 L656.585771,964.646483 C656.585906,964.661868 656.585973,964.67727 656.585973,964.69269 C656.585973,964.709758 656.585906,964.726795 656.585771,964.743803 L656.585771,978.301152 C656.585771,986.41477 638.190854,990.874606 601.711637,994.615481 C568.691154,998.001668 524.098714,999.935838 476.532251,999.935838 C428.965788,999.935838 384.373348,998.001668 351.352866,994.615481 C314.873649,990.874606 296.478731,986.41477 296.478731,978.301152 L296.478731,964.403595 C296.478731,957.521829 310.069521,954.201845 339.185629,951.036857 C363.668268,948.375538 397.284627,946.487363 435.014003,945.683592 Z M649.5199,971.750587 C647.003798,972.684357 643.807506,973.514904 639.917865,974.34417 C630.886952,976.269549 617.887915,978.004559 601.668707,979.467029 C568.664609,982.442976 524.086502,984.143012 476.532453,984.143012 C428.978404,984.143012 384.400297,982.442976 351.396199,979.467029 C335.176991,978.004559 322.177954,976.269549 313.147041,974.34417 C309.257192,973.51486 306.060766,972.684268 303.544602,971.750437 L303.544602,977.770551 C303.863635,978.052072 304.413204,978.406078 305.180772,978.790733 C307.231216,979.818281 310.448471,980.879009 314.715941,981.913655 C323.401596,984.019487 336.128752,985.951351 352.073677,987.586472 C384.834104,990.945992 429.191519,992.869968 476.532251,992.869968 C523.872983,992.869968 568.230398,990.945992 600.990825,987.586472 C616.935751,985.951351 629.662906,984.019487 638.348561,981.913655 C642.616032,980.879009 645.833287,979.818281 647.88373,978.790733 C648.651298,978.406078 649.200867,978.052072 649.5199,977.770551 L649.5199,971.750587 Z M435.010966,952.752902 C397.536209,953.56925 364.177244,955.479893 339.956545,958.162541 C327.624656,959.528402 317.928145,961.066942 311.369451,962.699531 C308.679442,963.369128 306.564251,964.044416 305.079386,964.692764 C307.151832,965.59732 310.3704,966.527524 314.620363,967.43361 C323.325623,969.28956 336.069178,970.99047 352.030747,972.429709 C384.805668,975.384991 429.176998,977.077142 476.532453,977.077142 C523.887908,977.077142 568.259238,975.384991 601.034159,972.429709 C616.995728,970.99047 629.739283,969.28956 638.444543,967.43361 C642.694481,966.527529 645.913036,965.597331 647.985483,964.69278 C646.520824,964.053275 644.441321,963.386963 641.80084,962.725871 C635.312528,961.101405 625.716413,959.569055 613.506001,958.206639 C589.538696,955.532409 556.504802,953.617355 519.33578,952.780691 L519.33578,962.660242 C519.33578,962.680806 519.335679,962.701261 519.335477,962.721608 L519.335477,964.69269 C519.335477,966.82469 518.141384,967.884804 516.429318,968.639224 C515.649063,968.983043 514.671236,969.266547 513.453238,969.526254 C511.317497,969.981646 508.326243,970.381022 504.617996,970.715556 C497.185509,971.386066 487.187667,971.767645 476.532453,971.767645 C465.707164,971.767645 456.077995,971.452792 449.110746,970.875631 C445.547218,970.580432 442.71594,970.220353 440.695884,969.793886 C439.523999,969.546481 438.581731,969.270445 437.819868,968.924034 C436.180062,968.178431 435.006332,967.079449 435.006332,965.007626 C435.006332,965.005262 435.006674,964.244411 435.007225,963.017177 C435.006832,962.989576 435.006635,962.961782 435.006635,962.933793 C435.006635,962.871365 435.008165,959.277813 435.010966,952.752902 Z M512.26991,945.564941 L512.26991,895.204804 C511.284776,895.204143 510.266251,895.202412 509.210953,895.199761 C504.852274,895.18881 503.113539,895.188451 500.954667,895.2047 C473.716908,895.409704 456.229076,895.21465 442.102022,894.313211 C442.101881,894.638789 442.101707,895.04309 442.101487,895.552721 C442.100067,898.840834 442.100067,898.840834 442.098056,903.500149 C442.093324,914.465496 442.093324,914.465496 442.087647,927.634984 L442.087602,927.737585 C442.084662,934.559638 442.082087,940.539549 442.079935,945.542261 L442.079268,949.147304 C442.07776,952.588175 442.075683,957.240979 442.074172,960.616669 C443.772244,960.927534 446.351917,961.212452 449.656312,961.450376 C456.419288,961.937325 465.874343,962.206008 476.531746,962.206008 C487.002129,962.206008 496.806761,961.880823 504.024591,961.314909 C507.491428,961.043092 510.243254,960.723754 512.072947,960.384637 C512.140099,960.372191 512.205668,960.359772 512.269614,960.347401 L512.269607,945.564935 L512.26991,945.564941 Z M678.026519,422.262654 C678.073873,426.890634 678.14992,433.310198 678.271675,443.486353 C679.309165,530.198474 677.921683,599.881833 670.648809,716.709369 C667.740346,763.429498 659.357131,798.494352 645.00869,823.545335 C629.650005,850.361893 601.359217,864.917409 562.533329,870.864565 C544.092336,873.689265 528.722214,874.295254 500.57715,874.237282 C495.356858,874.22653 493.33318,874.22669 490.843764,874.24541 C454.598094,874.518769 434.615025,874.071274 418.50769,872.164859 C418.074798,872.113628 417.550058,872.051674 416.601047,871.939632 C415.842302,871.849987 415.275416,871.782752 414.726947,871.717241 C413.327151,871.550044 412.184901,871.410269 411.128835,871.27598 C404.662777,870.453764 401.358718,869.861739 399.452079,868.859899 C399.205452,869.144017 399.078898,869.434164 399.072773,869.725904 C399.02896,871.80818 400.113526,874.402061 402.717394,877.479784 C406.551303,882.01084 417.355613,885.104444 435.215649,886.702465 C450.436713,888.064364 468.864212,888.380158 500.901487,888.13903 C503.092636,888.122538 504.845253,888.1229 509.228706,888.133912 C523.845485,888.170635 531.27517,888.029502 540.694325,887.312002 C553.427279,886.342074 565.043876,884.411861 576.039806,881.195027 C601.67496,873.69552 622.750222,859.497143 639.012724,836.477404 C658.428874,808.993644 670.3896,769.58377 673.708555,716.270286 C680.968761,599.62513 682.35283,530.112644 681.317978,443.562576 C681.172406,431.387627 681.092132,424.582798 681.048111,419.788326 L678.026519,422.262654 Z M671.022698,427.997957 L565.587479,514.336973 C565.59293,515.12315 565.598311,515.931438 565.603599,516.76119 C565.780422,544.510189 565.744276,574.6086 565.346657,602.904806 C564.967498,629.887334 564.286083,652.504169 563.249435,669.342456 C563.162944,670.746332 562.807389,676.767988 562.828803,676.408781 C562.63541,679.652823 562.46901,682.317452 562.284708,685.066162 C561.793258,692.395724 561.240535,699.260955 560.55223,706.223478 C558.752183,724.431758 556.190014,741.516264 552.56382,757.645555 C546.825597,783.169134 538.75465,804.709277 527.824697,821.348347 C514.781828,841.203986 497.986287,853.515702 477.092142,856.873132 C449.176334,861.358757 430.391288,863.953549 418.700421,865.072568 C418.947551,865.101762 419.151355,865.125854 419.338146,865.14796 C435.049161,867.007468 454.84718,867.450819 490.790553,867.17974 C493.311077,867.160786 495.347353,867.160625 500.591704,867.171427 C528.38597,867.228676 543.490599,866.633154 561.463492,863.880156 C598.370674,858.226897 624.786761,844.635909 638.877291,820.033573 C652.606096,796.064414 660.749667,762.001927 663.596591,716.270348 C670.85776,599.630832 672.241833,530.118637 671.206311,443.570889 C671.127533,436.986753 671.06786,431.972809 671.022698,427.997957 Z M670.884622,409.845691 C670.883981,409.117326 670.883762,408.357864 670.883762,407.543759 L673.695689,407.543759 L754.99981,340.96527 C751.996173,341.334331 748.940418,341.517592 745.830386,341.521121 C732.179747,341.536612 718.075044,338.233281 700.798572,331.75931 C663.461975,317.768045 628.836488,290.584311 600.079298,254.891105 C571.215096,219.064306 551.747287,178.854596 545.509632,138.737161 C542.399045,118.73037 541.719433,105.638047 544.044927,92.4750209 C544.534772,89.7023421 545.163554,86.9880895 545.937716,84.3279361 L321.023722,284.721105 C316.553004,291.838926 313.41907,299.429246 311.457882,307.58239 C308.354568,320.483639 308.150352,334.481137 310.205606,352.207989 C314.615558,390.242422 332.182911,428.158795 359.199901,461.253276 C386.116647,494.224704 419.345786,518.744464 455.250188,530.23841 C474.228762,536.314193 485.835617,538.7873 497.996004,538.430885 C505.287091,538.217187 512.269042,536.844572 519.088262,534.149013 L670.884622,409.845691 Z M593.835939,41.6517263 C583.920641,59.5574541 581.370651,83.461363 585.464433,109.806535 C591.508046,148.692257 610.437742,187.853132 638.582055,222.865205 C666.609993,257.732668 700.225121,284.207115 736.295831,297.782721 C760.381156,306.846963 783.655055,308.723369 802.417107,302.136095 L817.677635,289.639521 C837.244686,273.572564 843.746989,244.392886 838.472717,210.451179 C832.488863,171.953235 813.478466,132.84319 785.130597,97.2629457 C756.774913,61.6727213 723.479991,34.9416274 688.024628,21.6925747 C656.974781,10.0885045 627.804273,11.4421061 609.030383,28.1138276 L593.835939,41.6517263 Z M789.940833,312.352692 C772.755545,314.690331 753.449784,311.788099 733.807014,304.395763 C696.448765,290.335577 661.844191,263.081867 633.074879,227.292116 C604.199562,191.370658 584.730676,151.094334 578.48237,110.891583 C575.17076,89.5800054 575.991374,69.6224742 581.414779,52.718693 L557.835764,73.7270499 C554.47474,80.0351951 552.248295,86.6557879 551.003044,93.7043019 C548.845604,105.91609 549.491224,118.353572 552.491615,137.651597 C558.524102,176.449506 577.450888,215.541762 605.58157,250.458099 C633.595608,285.228911 667.229511,311.634175 703.278001,325.142743 C719.828901,331.344822 733.17126,334.469612 745.822368,334.455255 C753.366044,334.446695 760.523698,333.280227 767.371864,330.834017 L789.940833,312.352692 Z M506.030269,544.841971 C503.453531,545.200765 500.845825,545.416263 498.203012,545.493723 C485.027487,545.879891 472.787168,543.271809 453.095872,536.967856 C415.79147,525.025733 381.4575,499.690719 353.726342,465.721684 C325.901377,431.637475 307.762722,392.488034 303.186755,353.021777 C301.044143,334.541453 301.259704,319.766294 304.587968,305.929875 C305.321112,302.882016 306.205802,299.904544 307.248158,296.994813 L264.177211,335.370032 C239.694892,357.146834 232.710708,389.560565 241.067554,428.554952 C248.125412,461.488052 266.142528,497.076232 287.215764,522.767191 C308.025648,548.135899 339.089934,572.658077 369.438518,585.808872 C405.63374,601.493161 438.014364,600.525402 463.233641,579.887362 L506.030263,544.841975 Z M766.699,109.2687 C787.827,135.6827 805.031,167.3147 810.851,200.3987 C815.035,224.1857 812.846,251.2627 794.391,266.3747 C776.269,281.2137 749.697,278.3607 727.468,269.5247 C696.969,257.3997 670.428,234.5287 649.825,208.9867 C628.872,183.0137 612.166,151.8647 606.428,119.2467 C602.202,95.2227 604.212,67.8127 622.137,51.8797 C639.721,36.2507 665.983,38.5237 688.305,47.3397 C719.218,59.5457 745.985,83.3717 766.699,109.2687 Z" id="Combined-Shape" fill="#000000" fill-rule="nonzero"></path>
    </g>
</svg>
