<svg height="960" viewBox="0 0 960 960" width="960" xmlns="http://www.w3.org/2000/svg"><path d="m643.727254 75.2445132 177.559354 28.3399838c62.00029 9.895773 107.254652 63.927143 106.120121 126.70194l-6.54523 362.154464c-.963482 53.310477-34.872852 100.439945-85.113248 118.295979l-392.490391 139.495743c-53.080229 18.865344-111.403639-8.871301-130.268982-61.95153-4.031937-11.344406-6.022696-23.310478-5.882854-35.344102l.006665-.439843v-29.141l-.292524-.151316c-.370793-.189646-.74551-.376849-1.13157-.565308l-.588523-.284093-1.05663-.50766c-21.841398-10.554573-37.140632-19.694633-50.708981-30.752982-3.213129-2.618734-6.283112-5.321544-9.210376-8.11284l-.665396-.638801-52.331367 24.51488c-1.388678.650491-2.813422 1.220498-4.26715 1.707266l-.729247.236434c-59.406347 18.633367-122.7470809-13.847154-142.318199-72.874686-.0340344-.102649-.0676524-.205437-.100853-.308359l-.3756994-1.164668-.0982336-.3088c-3.4633103-11.041623-5.2252512-22.546202-5.2252512-34.118236v-370.802392c0-51.893577 38.9624399-95.515493 90.5266782-101.352666l473.322839-53.5810787c13.933907-1.5773457 28.01742-1.2565283 41.865048.9536709zm-37.365706 38.7924728-141.967832 16.070226c.934631-.009639 1.876774-.014505 2.824575-.014505 8.577597 0 16.691881.398497 22.967161 1.127122 3.585704.416337 6.632258.939936 9.249456 1.658397 2.205089.605331 4.204009 1.351541 6.278191 2.528467 1.543957.876067 3.012965 1.924829 4.41131 3.282806 7.7572.55366 14.916155 1.426907 21.060408 2.5862 6.229357 1.175351 11.487166 2.643762 15.798007 4.566776 2.629195 1.172852 5.005887 2.541995 7.173443 4.294707l-37.739667 4.272477 93.319454-10.563066c7.641175-.864996 15.364392-.689063 22.958252.522981l65.745383 10.493574-414.316 51.254-55.187-13.564 26.794876 6.586774c-1.90431 2.310882-3.512668 4.863171-4.776305 7.594331-14.713006 1.554319-26.529531 2.872833-34.130913 3.840647-7.81058.99445-14.939274 2.584025-21.411168 4.631771l-31.356431-7.706104c14.020269-8.511263 30.958196-14.310329 50.241574-16.765505 1.471462-.187348 3.077369-.385788 4.817943-.595388l-5.778576-1.420408 203.787-23.069118c.24889-2.339141.828847-4.4875 1.676383-6.45225-.517454-1.783857-.801072-3.69428-.801072-5.712646 0-5.37728 2.013068-9.988396 5.096684-13.51395 1.756276-2.007984 3.62878-3.430899 5.6268-4.564609 1.200614-.681249 2.376012-1.218185 3.580774-1.66702l-299.265549 33.878391c-31.342969 3.548086-55.0260202 30.063368-55.0260202 61.606523v370.802392c0 7.511671 1.143716 14.979556 3.3918297 22.146926 12.231409 38.995815 53.7592795 60.692654 92.7550955 48.461245l63.605262-29.794376c-3.233514-6.377409-5.455675-12.95984-6.70773-19.493038l-65.876015 20.66248c-23.186701 7.27273-47.878949-5.628093-55.151679-28.814795-1.336716-4.261679-2.016763-8.702043-2.016763-13.168442v-370.802392l.003659-.487623c.214406-14.28021 9.830655-26.479126 23.212972-30.286995l.336369-.093703.193894.140489c1.490801 1.054515 3.20059 1.852647 5.081207 2.314851l140.130021 34.44088c1.400816.584882 2.90202.961635 4.460155 1.096368l15.654264 3.846405c35.477218 8.719319 60.149521 40.894542 59.365811 77.419128l-9.337639 435.177948c-.161351 7.519717 1.046919 15.006039 3.565772 22.093179 11.46717 32.264453 46.918655 49.123982 79.183108 37.656813l392.49039-139.495744c34.540273-12.276023 57.852965-44.677532 58.515359-81.328486l6.545229-362.154463c.774363-42.846291-30.113535-79.724844-72.431194-86.479102l-5.180879-.82702c-1.094638-.307823-2.235153-.493385-3.403735-.542798l-168.974739-26.970166c-10.274047-1.639825-20.723105-1.877851-31.061165-.707562zm234.361082 44.074093c10.815463 7.030857 19.234311 16.893405 25.178519 29.40002 8.301934 17.467267 11.704386 39.521206 11.704386 68.570441 0 33.059728-.878771 100.442385-2.636381 202.270065-.063489 3.678228-1.12857 7.156646-2.963355 10.136558l-.192507.306423c-.628216.9802-1.340803 1.904043-2.129213 2.760516-.269469.292731-.547737.577534-.834517.854031-1.19554 1.15268-2.539105 2.161053-4.005915 2.993217-.671955.38123-1.36999.725572-2.091527 1.029848l-.34518.141783c-.694116.277563-1.409199.518356-2.143197.719734l-7.369054 2.021433.288-15.972-2.30976 127.832847c-.436578 24.15631-15.801761 45.51185-38.566941 53.602865l-392.490391 139.495744c-16.65262 5.918539-34.950161-2.783153-40.8687-19.435774-1.300053-3.657879-1.923677-7.521787-1.840399-11.402931l.704191-32.833751-.908564.03759c-.912161.032034-1.823722.053041-2.735001.062943l-.820085.005912-.819985-.000098c-8.152027-.030892-16.296963-.954708-24.664253-2.828063l.439272-20.474267c8.786349 2.311304 16.955558 3.329305 24.955097 3.302627l1.020185-.00906c1.324781-.019098 2.645417-.066654 3.96395-.141532l2.008981-93.638672c-9.074471-1.697489-16.334507-9.640032-16.334604-19.674955l-.000701-57.848672-.150621-.054574c-3.33782-1.225521-7.255487-2.669362-11.762181-4.334813l.453046-21.15704c15.572056 5.765429 25.496193 9.406523 29.772411 10.923282l4.216501-196.514806.022001-1.515342c.267628-35.323413-16.644851-67.564782-43.774075-87.643163l462.443626-57.207297 5.117971.81741c16.808968 2.682854 30.848531 12.664755 39.128294 26.375325-.053808-.089102-.107859-.178046-.162312-.267017-.06575-.107517-.131855-.214802-.198077-.321547-.039607-.0638-.07934-.127516-.119278-.191196-.066484-.106138-.133318-.212044-.2005-.317721-3.620827-8.261001-8.511684-15.055296-14.96789-20.268941 4.17237-5.554755 6.705432-12.351536 6.988733-19.607382zm-35.944941 33.977069-420.372 52.002.059694.086891c14.069752 20.780257 21.951227 45.572173 22.003611 71.482439l-.00343 1.234656-.001534.138812-.022 1.515342-.002495.138705-5.663846 263.931155 404.969-111.106 27.423-7.524-.377 20.842-7.047 1.934.001467 23.871674c-.028532 13.207781-1.469712 25.514082-5.931362 38.160935l-.323848.903943c-7.49697 20.61047-21.772571 36.066315-43.601184 42.571864-33.597511 10.013017-297.084353 98.541902-337.866464 113.500756-16.689022 6.121523-28.998946 10.049098-40.15241 12.33759l-.767992 35.754031c-.031229 1.455429.202629 2.904395.690149 4.276099 2.219453 6.244733 9.08103 9.507868 15.325763 7.288416l392.490391-139.495744c14.915118-5.30101 24.981962-19.292571 25.267995-35.119119l6.54523-362.154464c.324152-17.935656-12.605666-33.37319-30.322058-36.200877zm-331.200312 391.295827-73.248688 20.096173-2.283 106.378.266376-12.376855c10.181121-2.428142 20.82962-6.08555 32.822944-10.484694 3.10105-1.137464 7.493379-2.701652 12.97771-4.62557l.013448-.004538c.244544-.125213.496183-.241419.754677-.348038 12.032367-4.962912 21.342508-19.949976 27.065039-46.051256 4.309022-19.654067 4.820396-37.163072 1.631494-52.583222zm-193.012951-84.395456.00049 17.59684c-22.01394 4.026701-33.02091 26.268606-33.02091 66.725714 0 30.761913 7.524974 51.496804 20.697146 67.244963 3.182209 3.323186 6.634757 6.493055 10.363877 9.532328 11.139195 9.078563 24.229025 16.749442 42.842349 25.74409l.971781.466781c2.306711 1.101271 4.281611 2.144476 6.049303 3.127869l1.678081-78.202391c-2.200667 15.691758-11.999431 28.126161-25.438755 30.254741-17.455527 2.764684-34.44257-12.903324-37.941623-34.995475s7.814904-42.242597 25.270431-45.00728c9.106393-1.442311 18.085284 2.132049 25.088105 9.018056 6.420488 6.313387 11.17989 15.410547 12.853518 25.977419.174526 1.101917.3122 2.199004.414098 3.289344l1.761372-82.09737-.847532-.306971c-.571225-.206831-1.153485-.416707-1.747905-.630062-2.159611-.775149-7.740132-2.729108-13.541577-4.759787l-1.12476-.393697c-.450319-.157625-.900726-.315284-1.349734-.472465l-.895713-.313573c-5.208983-1.823697-10.092921-3.535963-12.293849-4.324705-7.19682-2.57911-13.755085-5.04536-19.788193-7.474369zm525.180263-6.737371-312.84742 85.832468c4.082826 18.655275 3.576627 39.39737-1.4154 62.166715-2.423096 11.052086-5.534822 20.731283-9.371332 28.992056 90.470301-30.977641 260.942529-88.053165 288.065943-96.136717 33.984783-10.128435 35.540997-49.678271 35.568723-62.513053zm-549.777565 171.84389-.043714.038787c-2.002359 1.774991-4.411148 3.182163-7.171867 4.065778l4.636997-1.454614c1.365928-.428436 2.686981-.932869 3.959054-1.506914-.463586-.373896-.923801-.754931-1.38047-1.143037zm-127.954159-336.568727-.000276 272.500668c0 2.2332.311688 4.454467.925243 6.599667l.17481.58312c3.966943 12.647292 17.435442 19.684104 30.082775 15.717147l65.876015-20.662479c1.728025-.542007 3.469156-.837534 5.187572-.907994.028799-.249677.059831-.499074.09239-.747935l-1.960979.615296c-.56545-5.708684-.846509-11.674027-.846509-17.912728 0-23.042882 3.258786-41.605904 10.330091-55.894968 5.391662-10.894991 13.028424-19.245491 22.557004-24.603093l.13288-.074111-.000331-12.640787c-5.570846-2.776828-10.645833-5.624647-15.389835-8.653404-5.954325-3.777815-11.253806-7.77031-15.956556-12.079715-14.856705-13.587382-23.234514-29.917212-23.435322-49.358157l-.00053-.06054c-.002109-.21835-.003166-.437046-.003166-.656089l.000665-.948151c.001828-1.512364.007199-3.69373.013192-5.90805l.002136-.781858c.007174-2.603848.014734-5.149738.017924-6.601972l.000821-.401825.000186-1.656581c-.005367-4.191377-.048979-7.118092-.149492-9.566907-.109521-2.668281-.285348-4.62733-.523465-6.054882-.091234-.546963-.185225-.977052-.277283-1.305393-.032841-.117133-.060966-.20644-.084144-.272724l-.0188-.050965-.019113-.020193c-.316562-.364017-.938669-.923647-1.993662-1.715856-.167217-.125565-.331686-.247986-.496216-.369032l-.296826-.216779-.199754-.144001c-.068015-.048764-.136502-.097593-.205651-.146606l-.20962-.147705c-2.050847-1.436619-4.817357-3.127444-12.899742-7.969254l-.840442-.503363c-.143188-.085741-.287947-.172417-.434301-.260039-2.916537-1.746144-5.888075-3.483921-9.567321-5.604326-.592595-.341522-2.370754-1.362488-4.239446-2.435802l-.661515-.37997c-1.764553-1.013602-3.495185-2.008222-4.278962-2.461047-7.530471-4.350705-12.466644-7.361264-17.061404-10.514325-7.931863-5.443081-13.916154-10.772094-18.482218-17.03762-1.92813-2.64577-3.552578-5.410457-4.860823-8.288672zm684.837775-43.147301v146.782336c0 4.560034-3.084885 8.542546-7.500136 9.682493l-312.248 80.617426c-6.443464 1.663599-12.683964-3.313043-12.495869-9.965141l4.794185-169.549192c.132944-4.701648 3.52444-8.675142 8.146852-9.544896l307.453815-57.85057c6.155949-1.158305 11.849153 3.56357 11.849153 9.827544zm-20 12.057-287.686 54.131-4.19 148.206 266.545893-68.816893c-.589297.04927-1.180304.079411-1.77209.090323-8.684861.160142-16.575452-3.770148-21.717161-10.101542l-.150246-.187745-.436849-.242767c-4.393995-2.493564-8.151175-5.808788-11.205014-9.711256-2.044372 4.658591-4.746034 8.938243-7.995702 12.673812l-.302435.341211-.062073.228304c-3.020829 10.608594-11.692023 19.022064-22.92493 21.401688l-.433292.088541c-1.572726.309626-3.169656.480202-4.772298.509754-10.708089.197449-20.090322-5.794886-24.730993-14.684536l-.049414-.098751-.236123-.169271c-13.98945-10.307267-19.96752-29.691856-15.258135-48.287497l.181617-.696947c.521806-1.947409 1.151407-3.850907 1.882863-5.700784l.047778-.117501-.076881-.170388c-1.483572-3.382809-2.318155-7.088448-2.373948-10.940027l-.002992-.413219v-7.376696c0-14.10372 10.100395-26.183067 23.981336-28.679952l1.940656-.349082c7.136887-1.283774 14.48658-.651759 21.299525 1.83159l1.423312.518803c11.417038 4.161561 19.235157 14.680989 19.996694 26.727448l.018298.340523.284394.278292c1.138084 1.133814 2.20343 2.336044 3.194115 3.598792l.125503-.288529.113988-.249555-.157346-.362059c-1.385726-3.284013-2.163682-6.862333-2.217483-10.576356l-.002992-.413219v-7.376696c0-14.10372 10.100395-26.183067 23.981336-28.679952l1.940656-.349082c7.136887-1.283774 14.48658-.651759 21.299525 1.83159l1.423312.518803c9.552543 3.481944 16.585651 11.414735 19.074065 20.968526zm-660.783344-76.202388-.202645.177823c-2.274177 2.108376-3.711163 5.075927-3.842212 8.320771l-.00785.251932-.002.24.000233 18.91001c3.425892-8.71953 8.981029-17.262483 16.285395-24.893421l23.568367 5.791754c-16.330245 12.202349-23.808703 27.636798-23.808703 38.80555v41.196373c0 20.63627 22.825682 29.760852 53.380237 48.054s28.340023 15.887115 28.340023 62.201795l.016625 1.246547.006602.225822.046221 1.06057.009.161.016.253.062.836.026145.311658.12226 1.176443.002595.025899.05.391.113.827.029.193.123581.774216c.097856.573717.206944 1.142473.327058 1.706342l.009361.045442.05.225.224.965.022425.094158c.19981.808618.422573 1.607026.667647 2.395451l.094928.297391.263.799.09.26.233515.65588c.096394.262776.195313.524416.296731.784928l.311727.778165.021027.051027.029.07.099.234.333.766.081.183-.023-.05.088525.196155-.034525-.077155.068.15.015.033.027.057.263.563.142774.296571.486219.96962c.046729.090449.093771.180754.141125.270917l.487298.903053.104584.188839-.104-.189.337992.600621c.114469.199545.230485.398378.348034.596504l.593657.973902c.036325.058033.072783.116005.109373.173915l.01585.025069.596347.919671.136385.204221c.420264.625957.855824 1.244237 1.306488 1.855438l.008874.011659.071553.097126c.026886.03627.053844.072539.080855.108783l.260301.346339c.141957.187298.285338.373926.43013.55989.343733.441473.695414.8792 1.054857 1.313248l.54496.648322.234344.272292.577.657.197.221.336971.373345c.150995.165353.303134.330157.456405.494417l.098066.104858c.021632.023078.043287.046145.064964.069201l.70794.741051.062654.064128.025.026.147.149.705.709.096.095.604973.589816c.217254.209048.43637.417187.657322.624426l.668339.619028.270366.24473.735.658.009.008.186254.164117.845371.730335c.021079.017953.042172.035899.063279.053839l.092594.078579c.294693.249705.592081.498066.892114.7451l.287277.235467.877587.706529.299269.23669.770649.60002.081606.062324.239.182.870963.657929.170037.126071.064.047.809.592.28675.207923.87625.622077-.059-.041.092.065.033.023.188489.132291.952362.657702.380472.258562.971777.650017.209851.138467c.75125.494521 1.513118.98339 2.285065 1.466796.073703.046155.147705.092388.221799.138572l1.058314.652501c.095733.058388.191613.116696.287637.174924l.920087.552868c.049371.029399.098778.058777.148222.088135l.091874.054503c.388374.23019.779007.459128 1.171837.686835.914032.529826 1.839954 1.052986 2.776977 1.569757l1.02753.561748.198532.107419.426725.229692.91645.487211.301108.159431 1.143971.596246c.50599.261382 1.014716.521121 1.526067.779254l1.241202.620913c.167616.083099.3355.166032.503649.248801.248801.122469.498391.244679.748547.366533l-.373544-.183178.219185.107907c.198423.096862.397205.193497.596339.289909l1.112886.534767.439483.209001.571617.270042.18347.086251-.18298-.086877.363.171.43.2 1.148212.532326c.457692.210209.916948.419364 1.377698.62749l.577196.259841.52777.236064.53147.236276c.146809.065069.29376.130039.440849.19491 17.119361 7.550152 36.115589 13.756136 53.401163 19.871776l3.849597-179.396487c.582758-27.159307-17.763314-51.084473-44.142662-57.567787l-14.479293-3.557409-.144957-.019669c-2.231598-.324757-4.420339-.864243-6.537934-1.607937l-.131109-.047394zm447.300834 140.017603-1.649364 99.130719c-.075662 4.547456-3.210424 8.47109-7.628972 9.548824l-52.414173 12.784415c-6.297426 1.536014-12.369644-3.233138-12.369644-9.715183v-101.023322c0-4.761524 3.357309-8.862661 8.025049-9.803039l54.063537-10.891812c6.258494-1.260856 12.079775 3.586043 11.973567 9.969398zm-20.205153 12.090641-33.857 6.82v80.105l32.543-7.938.054612-3.317718-18.292127 4.1131-9.398926-4.794881v-56.072698l22.847124-5.132421c-1.094543 15.185932-1.094543 26.202267 0 33.049005.815839 5.103347 2.481995 11.617095 4.998468 19.541244zm298.047146-131.818097-3.939534 217.949379 1.701444-.466705c1.755601-101.711292 2.633402-169.019593 2.633402-201.924903 0-5.400873-.125-10.589425-.395312-15.557771zm-80.299531 187.006318 15.940048-4.116077.001087-12.367036c-2.931988 7.293251-8.627635 13.262309-15.941135 16.483113zm-92.315639-80.484216-1.940656.349083c-4.353951.783183-7.522082 4.572039-7.522082 8.995869v7.376696c0 3.602368 2.325429 6.780671 5.733501 7.883275l.257616.078778c.62741.180856 1.221138.430042 1.773308.738923-3.590725 3.500058-6.431316 8.251296-7.922729 13.817323-3.647547 13.612831 2.130574 27.040001 12.937047 30.371271l.022502 1.216125c.074458 4.037999 3.408262 7.251083 7.44626 7.176625.429091-.007912.856652-.053582 1.277733-.136481 4.950734-.974662 8.48458-5.366696 8.37698-10.411312l-.027762-1.299493c4.813143-3.567878 8.698628-9.188701 10.536125-16.046335 3.484089-13.002797-1.631632-25.836202-11.514923-29.863485l-.195457-9.144724c-.092385-4.331276-2.834343-8.161562-6.904637-9.645203l-1.423313-.518803c-3.489557-1.271959-7.254034-1.595674-10.909513-.938132zm-46.854193-10.334709 7.489393 2.585299c4.031736 1.391733 6.736993 5.187473 6.736993 9.45266v52.971897c0 4.469966-2.966494 8.397046-7.266179 9.619055l-39.834822 11.321415c-2.082579.591887-4.301003.4919-6.321892-.284938l-8.39781-3.228149c-3.862823-1.484884-6.41193-5.195727-6.41193-9.334118v-55.721327c0-4.786315 3.391544-8.901524 8.089716-9.815846l40.74324-7.929133c1.726364-.335971 3.510802-.210697 5.173291.363185zm116.854193-4.665291-1.940656.349083c-4.353951.783183-7.522082 4.572039-7.522082 8.995869v7.376696c0 3.602368 2.325429 6.780671 5.733501 7.883275l.257616.078778c.913931.263448 1.756395.671886 2.504152 1.195612-4.403596 3.582516-7.929775 8.927333-9.653573 15.360634-3.716487 13.870119 2.352359 27.547494 13.555147 30.549272.168208.045071.336618.087479.505185.126549.59118 3.511349 3.677861 6.155828 7.345477 6.0882.429091-.007912.856652-.053582 1.277733-.136481 4.950734-.974662 8.48458-5.366696 8.37698-10.411312l-.001367-.1031c4.336495-3.581386 7.804742-8.879627 9.50973-15.242728 3.35812-12.532675-1.272951-24.907986-10.461796-29.392534l-.248584-11.615675c-.092385-4.331276-2.834343-8.161562-6.904637-9.645203l-1.423313-.518803c-3.489557-1.271959-7.254034-1.595674-10.909513-.938132zm-122.62844 24.792951-28.232 5.495v39.856l28.232-8.023.00074-27.586392c-.045264.384637-.13625.770103-.276148 1.149481l-8.183426 22.191973c-.955403 2.590882-3.830235 3.916698-6.421116 2.961295s-3.916698-3.830235-2.961295-6.421116l8.183427-22.191974c.955403-2.590881 3.830234-3.916698 6.421116-2.961294 1.823969.672599 3.02096 2.296488 3.236428 4.102889zm-187.12631-170.602593c1.233368.377679 2.596312.738731 4.077256 1.080959-1.080958.102825-2.166904.206142-3.257602.30993-1.14334.108798-2.291018.21803-3.44364.327755-1.765179.168038-3.542264.337263-5.329974.507561-6.869859.654425-13.897151 1.324744-21.026154 2.006083l-.038008.003633-1.224297.117023-2.530707.241977c-6.336586.606025-12.745116 1.220004-19.187367 1.838598l-.213121.0204zm181.895241-22.502066c.937604.108006 1.873325.236487 2.806492.385429l19.228746 3.070404c-53.288541 5.659468-88.293308 9.342002-105.014299 11.047602l-.758404.077281.00061-4.221731zm166.072432-20.545743c7.114151 1.327524 14.515107 2.823593 22.20448 4.487861 1.100811.238256 2.187291.494605 3.259403.768956 1.234102 1.868823 2.066738 4.043288 2.360272 6.416089.657583 5.315626-1.551399 10.32519-5.417141 13.477305-1.432776-.414077-2.910318-.785326-4.433319-1.11496-23.780381-5.146963-44.603242-8.618629-62.468583-10.414998l-1.068372-.105772c-7.653896.816755-15.103395 1.61141-22.348496 2.383965l-26.456531-4.223718zm-152.232993-48.1938894 168.072706 26.8256174.068119.005943c1.714361.145251 3.411323.416656 5.078331.810603l.05855.013454 4.281648.684366 1.356445.225403c-.451073-.077925-.903227-.153066-1.356445-.225403l-4.217784-.674231c-1.728269-.415097-3.501143-.700639-5.306259-.846983z"/></svg>