<svg height="960" viewBox="0 0 960 960" width="960" xmlns="http://www.w3.org/2000/svg"><path d="m531.57901 2.99865498c32.737841 1.67645246 62.92061 5.32200344 89.517628 10.16663772 26.831976 4.8874318 55.281379 11.736181 78.194147 19.5375845 15.421442 5.2507358 28.286914 10.8736416 38.633762 17.3761367 7.237567 4.548462 13.418954 9.6123157 18.52335 15.7386951 7.764665 9.319278 12.582961 20.6054769 12.582961 33.4906396v719.2758124c0 14.923515-5.59209 28.277756-14.89252 40.023027-6.6005 8.3356-15.065866 15.847125-25.321041 23.016624-16.06231 11.229327-36.98237 21.893355-62.041723 32.253187-38.042573 15.727249-86.128572 30.635085-119.034561 38.161566-55.195337 12.624652-130.179401 7.857373-184.222074-12.209365-33.037421-12.267218-69.340883-29.32799-98.562155-47.873654-19.297736-12.247561-35.311241-24.961052-47.522012-38.509507-16.64838-18.472202-26.507069-38.706823-26.507069-61.171792v-640.54587c-.386301-12.223144-.586806-23.244492-.597296-33.096011l.000437-1.954715c.015361-10.018874.233917-18.790905.660327-26.3513658.796248-14.1178708 7.311488-25.7576273 16.993163-34.7005539 6.074631-5.6111138 13.204093-10.0027148 21.557328-13.8345377 12.1723-5.5837169 27.696413-10.2496945 47.246328-14.6055111 30.128569-6.7127923 67.626236-12.3727031 125.314492-19.58120563 43.878634-5.48290539 87.28778-6.76624021 129.476528-4.60582189zm-300.65192 494.17969502.000613 295.095897c0 46.634175 99.063593 92.437253 146.514883 110.056526s114.534407 21.429536 161.379678 10.714768 190.208594-54.155954 190.208594-94.46138l.000239-312.45544c-5.219562 3.398493-11.487536 6.696931-18.893801 9.877147-29.502655 12.6683-82.966257 27.512399-128.954206 38.057297-109.702577 25.154471-240.962818 5.538583-333.915223-44.943478-6.067184-3.295062-11.530796-7.344805-16.340777-11.941337zm-.580153-374.086432.006696.755071c.063785 8.242264.255142 17.347032.57407 27.314305l-.001585 310.979822c.151207.457306.333584.959102.545627 1.494612 1.049173 2.649663 2.641183 5.687822 4.656673 8.743475 5.112525 7.751017 12.130977 14.519778 20.684526 19.165175 88.744627 48.196834 215.034893 67.069995 319.900209 43.024694 44.822611-10.277689 97.500676-24.903685 125.532968-36.940619 12.849787-5.517637 20.834886-10.967708 24.98369-15.887173.833962-.988876 1.416778-1.845596 1.802107-2.565942l-.00138-352.893989c-6.767813 3.707845-15.473886 7.087404-26.453772 10.22297-28.698753 8.195608-80.178845 17.701566-124.5979 24.475307-109.52259 16.701788-236.718984 6.469036-323.556441-24.895904-8.965054-3.2381-17.220663-7.756937-24.075488-12.991804zm263.322125-81.0815715-2.358223.0015398c-26.011727.0600205-54.366928 1.5500108-84.248681 5.2839198-90.550767 11.3148756-174.938475 24.0775856-176.134455 45.2829001-.193988 3.4075856 8.78122 16.9260148 30.288947 24.6944198 81.254662 29.348482 204.611956 40.577783 313.747147 23.935072 12.22425-1.864153 37.848738-5.994696 64.130261-10.983627l1.678313-.319595c.279827-.053456.559697-.107005.839596-.160646l1.67961-.32294c.27995-.054002.559899-.108094.839829-.162272l2.845545-.5539c18.484305-3.618979 36.664042-7.592882 50.107893-11.432092 30.812915-8.799357 31.946014-16.920715 31.946014-17.9647774 0-21.49938-75.319429-39.5441327-115.102259-46.7905564-26.256668-4.7826397-68.521642-10.4556519-120.259537-10.5074457zm-8.869415 22.9761665.089601.0001408c.14325.0002525.286418.0006364.429504.0011514.154615.0005564.309199.0012661.463686.0021285.293089.0016363.585525.0038191.877612.0065463.119647.0011169.239616.0023294.359525.0036336.196887.0021417.393202.0045251.589356.0071536.641352.0085944 1.280997.0198093 1.91888.0336068.209776.0045372.419594.0093595.629219.0144602.143151.0034832.286379.0071007.429517.0108479.668218.0174946 1.334028.0378024 1.99782.0608909.145283.0050531.290942.0102567.436504.0155939.250562.0091875.500603.0187616.750353.0287285.124909.0049848.249835.0100716.374688.0152565.296229.0123018.592024.025155.887401.0385564.09625.0043667.19286.0088105.289425.0133129.239371.0111612.477997.0226589.716346.0345129.164598.0081863.328873.0165326.493014.0250477.207312.010754.4151.0218149.622672.0331455.195609.0106781.390473.021564.585147.032687.264677.0151225.52917.0306934.793305.0467.081845.0049595.164384.0100058.246887.0150946.281354.0173548.561355.0351421.840948.0534167.130278.0085151.260585.0171439.390803.0258784.314635.0211039.629016.0428437.942871.0651963.042049.0029947.083996.0059939.125935.0090039.24971.0179227.499154.0362383.748262.0549395.183122.0137477.365703.0276761.548102.0418109.119721.0092774.239795.018678.35979.0281679.243755.019278.486863.0388983.72964.0588839.215296.017723.430527.0357499.645495.0540629.129431.0110262.258637.0221448.387748.0333666l.206031.0180018c.105549.0092708.211034.0186105.316455.0280189.245424.0219031.490571.0441851.735369.0668372.151789.0140458.303248.0282155.454572.0425264.230634.0218114.460916.0439475.690883.0664096.073731.0072016.147804.0144737.221844.0217795.644687.063615 1.286544.1297556 1.925854.1984081.192272.0206472.384364.0415271.576224.0626331.206906.0227615.413123.0457386.61907.068976.170741.0192645.342018.038791.513106.0584969.173566.0199916.34669.0401387.519619.060469.584817.0687543 1.167152.1395719 1.747222.2124464.178117.022377.356.0449453.533669.0677064.616522.0789818 1.230726.1603222 1.842292.243942.506213.0692145 1.010771.1400127 1.513492.2123482.475062.0683561.94827.1380531 1.419814.2091003.474414.0714786.947515.1443825 1.418906.2186336.138614.0218338.277285.0438166.415807.0659157.514645.0821047 1.026917.1657616 1.537103.2509931.182609.0305068.364792.0611882.546706.0920697.632038.107294 1.260811.2169983 1.886283.3290629l1.03676.1884659c.466787.086079.935125.1740453 1.404637.2638431.424127.081147.849793.1638875 1.276217.2481041.502348.0991288 1.005057.2002248 1.508249.303272.921988.1889907 1.846111.3845111 2.76928.586226.112092.0242091.223426.0486238.334737.0731272.19338.0428726.387547.085909.581631.1292134.158206.0349708.315814.0703196.473346.105842.098516.0225618.197212.0448962.295877.0672986 1.300086.2947859 2.594074.6016082 3.874326.9190111.095471.0241149.190896.0478507.286242.071645 1.640926.4090609 3.258246.8358659 4.835159 1.2774961.080822.0229428.161947.0457275.242962.0685511.595193.1674122 1.18399.3370861 1.765977.508728.033348.0100281.067093.0199916.100816.0299616.595312.1758564 1.18294.3538078 1.762406.5336693.095071.0295852.190246.0592416.285193.0889486.218409.0682822.43507.1367241.650491.2054273.090596.0289228.182491.0583453.274152.0878146.193077.0620609.383795.1239179.573466.1859758.187911.0614817.374933.123204.560877.1851158.09226.0307236.185373.0618642.278213.0930526.077283.0259579.153075.0515142.228678.0771017l.330979.1126277c.07496.0256462.149731.0513234.224311.0770313.277642.0957042.552532.1917606.824664.2881931.105368.0372366.210598.0747268.315414.1122769.124672.0447703.24871.0895011.372159.1343163.128113.0464057.255664.093035.382582.1397602.09014.0332759.179876.0664739.269292.09972.133995.0497487.267148.0996411.399584.1496462.111144.0420099.221644.0839921.331639.1260542.093549.0357581.18709.0717359.280262.1077737.113442.043862.225841.0876217.337698.1314706.113604.0445902.226416.0891375.338671.1337791.365917.145389.725761.2917948 1.079675.4392714.028632.0121616.058039.0244437.087405.0367331.181531.0757087.36057.1515463.538055.2276759.032612.0143015.066687.0289563.100705.0436218.146137.0626659.289819.1252416.432458.1880194.111646.0495231.222875.098895.33346.1483919.111443.0494601.222495.0995768.332891.1498257.035029.016387.070345.0325086.105593.0486435.349502.1595161.691689.3204914 1.027259.4828922.075168.0368761.150195.073419.224885.1100329.126074.0613062.250791.1231155.374562.1851357.050029.0255565.101099.051261.152007.0770009.119079.0597347.236015.1195054.352082.1794756.073866.0386213.147848.0771052.22147.1156695.104013.0540535.206574.1083208.308433.1627542.082509.0444894.165142.0889956.2473.1336101.072451.0389817.143552.0778817.214298.1168676.120217.0665696.239223.1329384.357194.1995504.05967.0334267.119244.0672894.178555.1012177.10595.0608298.210565.1213358.314336.1820448.08134.0474304.162398.0953005.242942.1433027.037826.0226518.075753.045344.113564.0680647l.114406.0689882c.059785.0362575.119279.0725906.178482.1090001l-.292888-.1779883c2.136756 1.2839984 3.979969 2.6761417 5.453052 4.2654701 1.897364 2.0258777 3.194697 4.3519629 3.686255 7.1064004.144084.6731616.219386 1.3718262.219386 2.0880849v11.806292c0 .024284 0 .048547-.003657.071903.003657.088506.003657.177131.003657.265804 0 7.30385-6.114599 12.185588-17.569892 15.497471-9.49287 2.744519-26.266481 5.880213-40.806486 8.124996-36.054592 5.566349-77.865835 2.161003-106.582464-8.339773-9.137353-3.341245-16.419265-10.381606-16.355823-17.524733l-.017989.000007-.004424-11.6492729c0-.1877213.005144-.3754074.015638-.5628351.207461-3.7052323 1.920441-6.802023 4.515181-9.2279443 1.705739-1.5947608 3.763863-2.8780658 6.211605-4.014719 3.722835-1.728766 8.578144-3.2061176 14.73062-4.5938799 5.970164-1.3466399 12.874131-2.567101 21.680071-3.8597106l.681106-.0995687c5.251133-.7645683 11.172426-1.5559996 17.962466-2.4149746 3.180439-.402342 6.338976-.7350783 9.471326-1.0019877l.021514-.0018321.158573-.0134432c.693697-.0585706 1.386106-.1139142 2.077178-.1660718.27611-.0208396.552506-.0412065.828684-.0610655.041443-.0029801.082775-.0059411.124103-.0088907.366337-.0261466.732339-.0514032 1.09795-.0757725.084519-.0056336.168879-.0112105.253219-.0167403.245745-.0161129.491643-.0318458.737361-.0471789.279714-.0174536.558402-.0343424.836855-.0507189.119386-.0070216.239404-.0139878.359378-.0208589.270442-.0154882.540091-.0304626.809514-.0449587.215496-.0115948.431187-.022901.646732-.0339014.104672-.0053421.209307-.0106118.313907-.0158096.327845-.0162911.655223-.0318698.982257-.0467468.102133-.0046464.204837-.009251.307506-.0137865.291937-.0128958.582927-.0252058.87364-.0369628.127321-.0051495.255024-.0102097.382672-.0151634.259887-.0100853.519402-.0197239.77869-.0289238.203459-.0072187.406458-.0141568.609317-.0208268.206767-.0067987.413756-.0133299.620597-.0195828.165197-.0049939.330204-.0098075.495115-.0144443.251663-.0070758.502986-.0137369.754086-.0199889.165058-.0041098.330071-.0080439.494987-.0118017.246176-.0056093.492129-.0108257.737863-.0156512.198685-.0039018.397407-.0075512.595984-.0109456.162522-.002778.324828-.0053836.487038-.0078192.252591-.0037928.505016-.0071745.757202-.0101461.181027-.0021329.361689-.0040523.542229-.0057618.229736-.0021755.459454-.0040124.688971-.0055104.167651-.0010943.335254-.0020082.502749-.0027418.158415-.0006939.316735-.0012266.474957-.0015986.29151-.0006851.582468-.0008252.873091-.0004242zm.257194 20.0035235-1.156399-.0000908c-8.494497.0222302-17.300273.5497506-26.285943 1.6864842l-6.45272.8311444-.450052.0592398c-.302741.0399068-.603461.0796751-.902182.1193095-1.487792.1973767-2.926169.3914631-4.317804.5827882-1.14393.1573525-2.256162.3127672-3.338329.4666308l-.098852.0139157c-.536935.0764068-1.066468.1524324-1.58879.228115-.740777.1075748-1.466841.2142272-2.178922.3203007-.105673.0154163-.210691.0310863-.315404.0467441l-.431093.0650159c-.400435.0602554-.796388.1203351-1.187957.1802595-.111846.0166526-.222655.0336429-.333114.0506211-6.462411.9943498-11.723356 1.9468908-16.244211 2.9511536 25.020781 7.5094478 59.545444 9.6917178 89.441766 5.0761238 9.780944-1.5100476 20.85459-3.4892666 29.427538-5.3808482-.649889-.188583-1.311519-.3750251-1.982905-.5589784-.146934-.0403727-.29404-.0804169-.441587-.1203385l.441587.1203385c-.718228-.1967875-1.447619-.3907269-2.185744-.5813923-.109461-.0282131-.219-.05638-.32872-.0844734-.310216-.0795227-.622151-.1584477-.935378-.2367549l.935378.2367549c-.42149-.1079202-.845657-.2147557-1.272048-.320427l.33667.0836721c-.339991-.0849984-.681504-.169269-1.024311-.2527717l.687641.1690996c-.364416-.0903121-.730456-.1797739-1.097837-.2683356l.410196.099236c-.384805-.0937328-.77124-.186498-1.158981-.2782388l.748785.1790028c-.326878-.0787982-.654818-.1568839-.983619-.2342222l.234834.0552194c-.314196-.0743399-.629249-.1480072-.944987-.2209718l.710153.1657524c-.588619-.138451-1.179999-.2745066-1.772991-.407966-.105997-.0240293-.212744-.047957-.319541-.0718002l.319541.0718002c-.258779-.0582412-.517866-.115988-.777164-.1732237l.457623.1014235c-.355989-.0794775-.712525-.1580155-1.069365-.2355714l.611742.1341479c-.346675-.0765225-.693727-.1521314-1.040931-.226787l.429189.0926391c-.837903-.1821111-1.67748-.3588069-2.515579-.5295359-.14318-.0290981-.286959-.0582253-.430669-.0871721l.430669.0871721c-.326363-.0664833-.652502-.1320618-.978232-.196703l.547563.1095309c-.390996-.0787565-.781483-.1561772-1.171135-.2322049l.623572.122674c-.355333-.0705161-.710179-.1399167-1.064296-.2081595l.440724.0854855c-.32292-.0630073-.645265-.1250579-.966851-.1861192l.526127.1006337c-.509653-.0982166-1.017795-.194035-1.523708-.2873292-11.083269-2.043838-23.409242-3.2757095-36.492947-3.3120132z"/></svg>