<svg height="960" viewBox="0 0 960 960" width="960" xmlns="http://www.w3.org/2000/svg"><path d="m286.624095 3.35168814 387.897695 35.46243326c41.188877 3.7655748 72.716603 38.3071137 72.716603 79.6677606v725.937026c0 41.383018-31.560809 75.935492-72.774701 79.673051l-383.718105 34.798188c-11.764393 1.066875-23.616514.640533-35.273845-1.268865l-19.079362-3.125079c-37.572157-6.154084-65.153987-38.621183-65.153987-76.694004v-790.7090635c0-31.2381424 18.34895-59.5625524 46.857838-72.332238 21.484306-9.62323888 45.084557-13.55244645 68.527864-11.40920936zm-33.336454 77.69681176c-.108505 1.1988211-.162841 2.4019292-.162841 3.6056507v791.9411404c0 22.09139 17.90861 40 40 40 1.149625 0 2.298715-.049562 3.44407-.148546l374.113593-32.331904c20.679359-1.787166 36.55593-19.095014 36.55593-39.851454v-725.748315c0-20.6942044-15.784391-37.9717578-36.394349-39.8371596l-374.113593-33.8609214c-22.001456-1.9913459-41.451465 14.2300532-43.44281 36.2315089zm-6.699919-34.2761375-.680765.2055286c-3.894279 1.1834809-7.722005 2.614216-11.459324 4.2882342-14.120788 6.3249758-23.20924 20.3543901-23.20924 35.8270103v790.7090635c0 18.476944 13.38561 34.233401 31.619579 37.220011l4.862237.797312c-9.094272-10.517883-14.595409-24.228627-14.595409-39.224231v-791.9411404c0-1.8055823.081503-3.6102443.244261-5.408476 1.11959-12.3698269 5.918301-23.5216033 13.218661-32.4733122zm173.434859 173.8993426 189.240949 10.380243c13.785396.756157 24.575989 12.154856 24.575989 25.960975v452.53908c0 13.884186-10.908875 25.318542-24.77771 25.971253l-189.240949 8.906281c-.407148.019161-.814691.028746-1.22229.028746-.570997 0-1.137696-.018406-1.699534-.054658-1.117891.107539-2.272953.026726-3.42373-.266631-12.421578-3.166519-21.878685-6.359424-28.533686-9.707004-8.959555-4.506811-14.34305-9.886053-14.34305-17.763221v-468.242579c0-.474114.01309-.948138.039256-1.421535.773736-13.998767 12.576396-24.759865 26.524065-24.451144l.066679.002888 15.932639-1.353461c2.203144-.469647 4.504187-.658529 6.861372-.529233zm193.816812 266.561553h-201.241l.000177 231.225025c0 3.313709 2.686292 6 6 6 .094061 0 .18811 0 .282067-.006634l189.240949-8.90628c3.2005-.150626 5.717933-2.789323 5.717933-5.993366zm-221.099873-243.309726-.151536.128547c-1.142606 1.00705-1.891426 2.440266-1.980638 4.054326-.00585.105833-.008776.2118-.008776.317785v466.173209l.084073.062262c.489923.355144 1.129761.759996 1.9156 1.199169l.000327-469.22615c0-.474938.013014-.949787.039026-1.424012.023668-.431491.057728-.859946.101924-1.285136zm27.209873-3.226274-3.379995.287317c-2.200144.791536-3.825704 2.837936-3.961822 5.319487-.006003.109436-.009006.219017-.009006.328618l-.000177 220.600578h201.241l.000126-210.220335c0-3.186028-2.490137-5.816497-5.671382-5.990994z"/></svg>