<svg height="960" viewBox="0 0 960 960" width="960" xmlns="http://www.w3.org/2000/svg"><g fill="#000" fill-rule="evenodd"><path d="m478.436928 85.0000421 6.878709.0100313c104.327119.3271764 199.270912 8.6288611 271.181819 23.5055856 1.39906.289434 2.789051.581264 4.169923.875493l2.749572.591655 2.725166.598052c.452156.100208.903291.200683 1.353403.301425l2.688392.607652 2.663764.614055 2.639048.620459 2.614243.626866 2.589349.633276c.429478.10608.857916.212427 1.285311.319042l2.551841.642893 2.526725.649308c.419023.108753.836996.217773 1.253917.32706l2.488884.658934c.82541.220715 1.646597.442499 2.463546.665354l2.43812.671777c3.638064 1.012482 7.190012 2.046647 10.654494 3.102528l2.296683.707138c.380616.118392.760148.237053 1.138595.355982l2.257642.716794c3.366882 1.080019 6.64555 2.181773 9.834652 3.305294l2.112785.752239c8.397946 3.021859 16.156858 6.19856 23.251147 9.530732 13.207993 6.203766 24.393079 13.060775 33.513724 20.855874 8.187543 6.997609 14.819567 14.830191 19.514017 23.632l.211601.402459.113246.162737c1.334198 1.93609 2.508587 4.006482 3.500494 6.196383l.195941.439569 7.647319 17.435311.424308.573344c8.040342 10.945335 12.902254 23.287206 13.612088 36.689152l.029604.635504 29.975493 271.707721c.026521.24039.05086.481011.073015.721833l.059912.723038c6.639883 90.049981-24.309971 178.837507-85.604056 245.691961-8.44836 9.214886-16.636961 17.328526-24.609817 24.350407l-.035547.03004-.821311.952101c-24.545126 28.01535-70.97211 48.693308-134.372481 63.624259l-2.028092.474319c-63.226064 14.684732-141.385775 22.926181-223.959985 23.299326l-4.959333.012861h-3.873776c-82.608082-.21143-161.00463-8.302586-224.600563-22.875093-66.026197-15.129383-114.164585-36.356922-139.004839-65.355003l-.11262-.13377-1.034017-.914007c-7.337768-6.531619-14.8589829-13.984128-22.5976257-22.364763l-1.0125404-1.10048c-60.6625439-66.165622-91.62372538-153.840564-85.79216598-242.990975l.17609064-2.535959c.03740379-.537619.08566873-1.074427.14476525-1.610095l29.97449319-271.702721.0331659-.687398c.7233445-13.457137 5.6402772-25.862827 13.7638077-36.850765l.2670264-.358837 7.6503185-17.441311c1.0319738-2.352821 2.2732907-4.570789 3.6964359-6.635952l.1122456-.162737.2126011-.402459c4.5770885-8.581764 10.9960836-16.242156 18.902874-23.105612l.6111431-.526388c9.1206444-7.795099 20.3057309-14.652108 33.5137238-20.855874 7.094289-3.332172 14.853201-6.508873 23.251147-9.530732l2.112785-.752239c3.189102-1.123521 6.46777-2.225275 9.834652-3.305294l2.257642-.716794c.378447-.118929.757979-.23759 1.138595-.355982l2.296683-.707138c3.849425-1.173201 7.806832-2.319592 11.87037-3.43922l2.450844-.668565c.410592-.110892.822241-.221517 1.234946-.331874l2.488884-.658934c.416921-.109287.834894-.218307 1.253917-.32706l2.526725-.649308 2.551841-.642893c.427395-.106615.855833-.212962 1.285311-.319042l2.589349-.633276 2.614243-.626866 2.639048-.620459 2.663764-.614055c.446015-.101809.893057-.203351 1.341123-.304626l2.700672-.604451 2.725166-.598052c.456231-.099143.913478-.198018 1.371741-.296627l2.761741-.588457c.92463-.195087 1.853306-.389108 2.786013-.582064 71.910907-14.8767245 166.8547-23.1784092 271.236322-23.5057194zm-420.369272 553.0004209.0902936.250763c12.8452554 35.465685 32.690468 68.47987 58.8146524 96.973942 8.413902 9.177303 16.397871 16.989073 23.951906 23.435311 33.642244 43.576732 171.899851 76.242875 337.454418 76.339521h1.242148l4.959332-.01286c163.350398-.738313 299.189323-33.185771 332.495086-76.326661 7.554035-6.446238 15.538004-14.258008 23.951906-23.435311 25.775168-28.113394 45.438016-60.626931 58.296072-95.553806-23.559304 14.819808-56.075263 27.99938-96.202169 39.264955-85.379194 23.970094-200.443931 37.633649-323.121301 37.633649s-237.742107-13.663555-323.121301-37.633649c-41.628294-11.687088-75.0654429-25.434079-98.811043-40.935854zm17.1885179-404.138352-.0386479.075934c-2.0875949 3.85498-3.2007496 7.780435-3.2803419 11.76263l-.0045935.459735-30.1563073 273.345618-.1649349 2.370671c-1.8180339 27.793333.4393673 55.429727 6.4972854 82.1204 18.0331293 20.020845 57.2608042 39.704812 114.1760302 55.683685 83.484361 23.438123 196.759614 36.889182 317.715336 36.889182s234.230975-13.451059 317.715336-36.889182c54.275866-15.237877 92.466612-33.845178 111.530183-52.901019 6.721455-28.307101 9.157772-57.714387 6.978198-87.273737l-30.156308-273.345618-.004593-.459735c-.068868-3.445616-.91153-6.848753-2.489687-10.200513-15.938692 21.368266-57.000775 38.712658-117.841308 52.315858-75.490801 16.878822-177.241876 26.501386-285.731821 26.501386s-210.24102-9.622564-285.731821-26.501386c-62.388931-13.949403-103.979874-31.832849-119.0120051-53.953909zm783.5991861-36.489936c.096292.920542.14464 1.849358.14464 2.786528 0 27.669804-42.145497 48.057493-116.073056 63.183593-69.467861 14.213614-163.096872 22.316407-262.926944 22.316407s-193.459083-8.102793-262.926944-22.316407c-73.927559-15.1261-116.073056-35.513789-116.073056-63.183593 0-.93717.048348-1.865986.14464-2.786528-.812041.620004-1.5826026 1.235669-2.3117322 1.847726l-.6735087.574536c-6.1722445 5.352129-9.1593991 10.414766-9.1593991 14.864266 0 3.734402 2.1041532 7.900698 6.4294777 12.307551l.5642442.563869c.0960547.094191.1931172.188487.2911886.282887l.600544.567624c.1021115.094805.2052341.189711.3093689.284714l.6369656.571179c.1081884.095387.2173914.190869.3276101.286443l.6735087.574535c.3428574.287807.6948759.576411 1.056086.865764l.7346842.579687c.37348.290327.756171.581369 1.148104.873076l.796199.584286c.404269.292572.817802.585775 1.240628.879561l.85805.588331.882887.589796.907776.591171c.153373.098638.307786.19733.463239.296073l.945211.593068c.15962.098943.320282.197934.481987.296972l.98277.594765c.165886.099215.332817.198473.500796.297771l1.020449.596264 1.045636.597153c.705499.398378 1.427825.79729 2.167051 1.196617l1.121522.599288c.63429.335299 1.278587.669776 1.932824 1.003409l1.321707.666131 1.348091.663835 1.374355.661497 1.400498.659116 1.42652.656694c.719745.327734 1.449203.654543 2.188306.980404l1.491045.650452 1.516644.64788c.2549.107763.510862.215418.767883.322962l1.554815.643945c.261248.107102.523549.214093.786902.320971l1.592714.639913c.267548.106425.536143.212736.805782.318932l1.630341.635787 1.655275.632983 1.680087.630137 1.704778.627249 1.72935.624319 1.753799.621345 1.778128.61833c.298375.102801.597759.205475.89815.308021l1.814394.613728 1.838421.610606 1.862327.607443 1.886111.604238 1.909775.600989 1.933318.597699 1.95674.594367 1.98004.590991 2.003221.587574 2.02628.584115c.339628.097061.680212.193977 1.021749.290746l2.060641.578846 2.083399.57528c.349123.095581.699188.191011 1.050195.28629l2.117307.569853c.354759.094671.710453.189188 1.067081.283552l2.150943.56433c.36035.093745.721628.187335 1.083832.280768l2.184307.558712 2.206399.554914 2.22837.551073 2.250219.547191 2.271949.543266c.380462.090215.761824.180264 1.144084.270148l2.304315.537298 2.325742.533268 2.347047.529195c73.942697 16.532684 174.257981 26.019466 281.367817 26.019466s207.42512-9.486782 281.367817-26.019466c.392943-.087858.785004-.175886 1.176179-.264086l2.33641-.531236 2.315043-.535289 2.293556-.539298c.380462-.090215.760024-.180595 1.138683-.27114l2.261099-.545233 2.23931-.549138 2.217399-.552999 2.195369-.556818 2.173216-.560596c.36035-.093745.719772-.187645 1.078263-.281701l2.139761-.566181c.354759-.094671.708583-.189495 1.061468-.28447l2.106034-.571673c.349123-.09558.697303-.191311 1.044536-.287192l2.072036-.577068 2.049217-.580612 2.02628-.584115 2.003221-.587574 1.98004-.590991 1.95674-.594367 1.933318-.597699 1.909775-.600989 1.886111-.604238 1.862327-.607443 1.838421-.610606 1.814394-.613728.89815-.308021 1.778128-.61833 1.753799-.621345 1.72935-.624319 1.704778-.627249 1.680087-.630137 1.655275-.632983 1.630341-.635787c.269639-.106196.538234-.212507.805782-.318932l1.592714-.639913c.263353-.106878.525654-.213869.786902-.320971l1.554815-.643945c.257021-.107544.512983-.215199.767883-.322962l1.516644-.64788 1.491045-.650452c.739103-.325861 1.468561-.65267 2.188306-.980404l1.42652-.656694 1.400498-.659116 1.374355-.661497 1.348091-.663835 1.321707-.666131c.654237-.333633 1.298534-.66811 1.932824-1.003409l.563933-.299716 1.108841-.598988c.548085-.299334 1.086675-.598417 1.615799-.897201l1.045636-.597153c.172172-.099454.343295-.198871.513369-.298248l1.007876-.595787.98277-.594765c.161705-.099038.322367-.198029.481987-.296972l.945211-.593068c.155453-.098743.309866-.197435.463239-.296073l.907776-.591171.882887-.589796c.145076-.098179.289118-.196298.432126-.294354l.845653-.587567c.277756-.195595.551386-.390923.820899-.585971l.796199-.584286c.391933-.291707.774624-.582749 1.148104-.873076l.734684-.579687c.36121-.289353.713229-.577957 1.056086-.865764l.673509-.574535c.110219-.095574.219422-.191056.32761-.286443l.636966-.571179c.104134-.095003.207257-.189909.309369-.284714l.600544-.567624c.098071-.0944.195133-.188696.291188-.282887l.564244-.563869c4.325325-4.406853 6.429478-8.573149 6.429478-12.307551 0-4.4495-2.987155-9.512137-9.159399-14.864266l-.673509-.574536c-.8-.671549-1.649878-1.347441-2.55002-2.027044zm-378.85536-62.372175c-88.315238 0-172.011205 6.449581-240.113321 17.980494-6.452231 1.148314-12.725265 2.344816-18.80454 3.588678l-1.131506.232533-1.126158.233474-2.236207.469753c-.370907.078602-.740913.157359-1.110018.236269l-2.203781.475294-2.182004.478936-2.160097.482538c-.358183.080721-.715448.16159-1.071793.242606l-2.126995.487861-2.104767.491358-2.08241.494813-2.059924.498228c-.34144.08332-.681938.166781-1.02149.250381l-2.025955.503271-2.003147.506582-1.980212.50985-1.957147.513078c-.324262.08578-.647558.171692-.969884.257736l-1.922309.517842-1.898923.520965-1.875409.524047-1.851765.527088-1.827993.530088-1.804092.533045-1.780063.535961-1.755905.538837-1.731619.54167-1.707203.544461-1.68266.547212-1.657987.549921c-.274268.091877-.547502.183865-.819701.275964l-1.620737.553906c-.536087.185072-1.068009.370578-1.595743.556512l-1.570621.559075-1.545369.561598c-.25545.093807-.509843.187718-.763175.281732l-1.507251.565303-1.481678.567722-1.455977.570098c-.240513.095213-.479951.190522-.71831.285928l-1.417182.573587c-.234033.095788-.46698.191671-.698841.287648l-1.3781.576981c-.227503.096349-.453912.19279-.679227.289323l-1.338728.580282c-1.325545.581363-2.611475 1.16595-3.857214 1.753574l-1.23232.588629-1.061779.519399-1.036011.518361c-.170525.0863-.33998.172552-.508366.258752l-.9975.51657-.971922.515217-.94642.51374-.920993.512137c-.151385.085216-.301713.170359-.450986.255428l-.882998.509497c-.290122.16952-.576038.33872-.857761.507579l-.832603.505537c-.273349.168158-.542518.335954-.807519.503368l-.782512.501074-.757581.498653-.732726.496109-.707947.493437-.683245.49064-.658619.487718c-.323165.243107-.637124.485071-.94192.725822l-.597386.479861-.573026.4765-.548743.473011c-.268313.235613-.527548.46987-.777749.702702l-.488366.463742c-.238173.230899-.46734.460326-.687543.688208l-.428467.453687c-.20827.225793-.407606.449996-.598049.672537l-.369043.442846c-1.845598 2.276376-2.744762 4.370319-2.744762 6.203839 0 1.715228.786885 3.658361 2.399355 5.765549l.345407.43829c.714425.881178 1.570667 1.789693 2.571468 2.72102l.51246.467544c.087422.078233.175851.15662.265289.235158l.548743.473011c.280436.237389.569978.476085.868669.716018l.609595.481496c.207273.161034.418625.322598.634068.484669l.658619.487718c.11182.081533.224666.163188.338539.244963l.695587.492054c.117991.08224.237012.164595.357066.24706l.732726.496109.757581.498654.782512.501073.807519.503368c.136675.084079.274395.168248.413161.252505l.845173.506574.87037.508554c.147166.084917.295384.169911.444658.25498l.908309.511288.933697.512955c.157736.085624.316533.171312.476393.257062l.971922.515218.9975.516569c.168386.0862.337841.172452.508366.258752l1.036011.518362 1.061779.519399c.406293.196542.817074.392754 1.23232.588628l1.259115.586605c.636234.292789 1.282469.584803 1.938631.87602l1.325539.581362c.223122.096714.447342.193337.672657.289869l1.365008.578092 1.39116.57586c.234032.095789.469148.191482.705346.28708l1.430146.572435 1.455977.570099 1.481678.567721c.249081.09442.499228.188739.750437.282957l1.519989.564078 1.545369.561598 1.570621.559075 1.595743.556512c.268043.092536.537129.184964.807252.277282l1.633186.552588c.274268.091877.54957.183643.825902.275296l1.670339.548572 1.694948.545842 1.719427.543071 1.743778.540258 1.768.537404 1.792094.534509 1.816058.531571 1.839895.528593 1.863603.525573 1.887182.522512 1.910632.519408.96407.258528 1.945566.514676 1.968696.511469 1.991695.508221 3.030388.756151 2.048633.499919 2.071183.496526 2.093605.493091 2.115897.489614c.3545.081311.709924.162475 1.066268.243491l2.149095.484322 2.171066.480743 2.192909.47712 2.214623.473458 2.236207.469753 2.257664.466007c68.040771 13.921621 160.353122 21.910469 258.917861 21.910469s190.87709-7.988848 258.917861-21.910469l2.257664-.466007 2.236207-.469753 2.214623-.473458 2.192909-.47712 2.171066-.480743c.360017-.080423.719118-.160995 1.077302-.241716l2.138061-.486097 2.115897-.489614 2.093605-.493091 2.071183-.496526 2.048633-.499919 3.030388-.756151c.333858-.08443.666764-.168998.998714-.253702l1.980212-.50985 1.957147-.513078 1.933954-.516264 1.910632-.519408 1.887182-.522512 1.863603-.525573 1.839895-.528593 1.816058-.531571 1.792094-.534509 1.768-.537404 1.743778-.540258 1.719427-.543071 1.694948-.545842c.280444-.091202.559863-.182518.838254-.273947l1.657987-.549921c.274268-.091877.547502-.183865.819701-.275963l1.620737-.553907 1.595743-.556512 1.570621-.559075 1.545369-.561598 1.519989-.564078c.251209-.094218.501356-.188537.750437-.282957l1.481678-.567721 1.455977-.570099 1.430146-.572435c.236198-.095598.471314-.191291.705346-.28708l1.39116-.57586 1.365008-.578092c.225315-.096532.449535-.193155.672657-.289869l1.325539-.581362c.656162-.291217 1.302397-.583231 1.938631-.87602l1.259115-.586605c.415246-.195874.826027-.392086 1.23232-.588628l1.061779-.519399c.174814-.086484.348554-.172924.521222-.259319l1.023155-.517795.9975-.516569.971922-.515218c.15986-.08575.318657-.171438.476393-.257062l.933697-.512955.908309-.511288c.149274-.085069.297492-.170063.444658-.25498l.87037-.508554c.14296-.084597.28487-.169112.425731-.253542l.832603-.505537.807519-.503368.782512-.501073.757581-.498654.732726-.496109c.120054-.082465.239075-.16482.357066-.24706l.695587-.492054c.113873-.081775.226719-.16343.338539-.244963l.658619-.487718c.215443-.162071.426795-.323635.634068-.484669l.609595-.481496c.298691-.239933.588233-.478629.868669-.716018l.548743-.473011c.089438-.078538.177867-.156925.265289-.235158l.51246-.467544c1.000801-.931327 1.857043-1.839842 2.571468-2.72102l.345407-.43829c1.61247-2.107188 2.399355-4.050321 2.399355-5.765549 0-1.83352-.899164-3.927463-2.744762-6.203839l-.369043-.442846c-.190443-.222541-.389779-.446744-.598049-.672537l-.428467-.453687c-.220203-.227882-.44937-.457309-.687543-.688208l-.488366-.463742c-.250201-.232832-.509436-.467089-.777749-.702702l-.548743-.473011-.573026-.4765-.597386-.479861c-.304796-.240751-.618755-.482715-.94192-.725822l-.658619-.487718-.683245-.49064-.707947-.493437-.732726-.496109-.757581-.498653-.782512-.501074c-.397502-.251121-.804381-.503102-1.22068-.755873l-.845173-.506574c-.285919-.169195-.576038-.33872-.87037-.508554l-.895644-.510408-.920993-.512137-.94642-.51374-.971922-.515217c-.164117-.085986-.329299-.172028-.495548-.258124l-1.010318-.517198-1.036011-.518361-1.061779-.519399-1.23232-.588629c-1.245739-.587624-2.531669-1.172211-3.857214-1.753574l-1.338728-.580282c-.225315-.096533-.451724-.192974-.679227-.289323l-1.3781-.576981c-.231861-.095977-.464808-.19186-.698841-.287648l-1.417182-.573587c-.238359-.095406-.477797-.190715-.71831-.285928l-1.455977-.570098-1.481678-.567722-1.507251-.565303c-.506665-.188027-1.01757-.375644-1.532695-.562844l-1.558011-.560341-1.583198-.557799c-.531916-.185505-1.068009-.370578-1.608256-.555214l-1.633186-.552589-1.657987-.549921-1.68266-.547212c-.282492-.090974-.566007-.181833-.850542-.272577l-1.719427-.543071-1.743778-.540258-1.768-.537404-1.792094-.534509-1.816058-.531571-1.839895-.528593-1.863603-.525573-1.887182-.522512-1.910632-.519408-1.933954-.516264-1.957147-.513078c-.328117-.085245-.657195-.170356-.987231-.255331l-1.991695-.508221-2.014568-.504932-2.03731-.5016c-.341439-.08332-.683821-.1665-1.027143-.249538l-2.071183-.496526-2.093605-.493091-2.115897-.489614-2.138061-.486097c-.358184-.080721-.717285-.161293-1.077302-.241716l-2.171066-.480743-2.192909-.47712-2.214623-.473458c-.370906-.078602-.742711-.15705-1.115413-.235342l-2.246952-.467885-3.179993-.6484c-5.442894-1.096353-11.037784-2.155146-16.77564-3.175349-68.097282-11.529512-151.786279-17.977956-240.093734-17.977956z" fill-rule="nonzero"/><ellipse cx="419.253441" cy="169.70859" rx="26.565451" ry="8.85515"/><ellipse cx="311.68799" cy="211.56374" rx="33" ry="11"/><ellipse cx="627.253441" cy="178.70859" rx="26.565451" ry="8.85515"/><ellipse cx="519.68799" cy="220.56374" rx="33" ry="11"/></g></svg>