<svg height="960" viewBox="0 0 960 960" width="960" xmlns="http://www.w3.org/2000/svg"><path d="m137.875974 139.627482c6.865518.075889 12.308264.420022 17.167622 1.264744 20.298756 3.508954 34.800407 21.123377 34.824107 41.404476v726.115243c-.023152 18.5268-12.209716 35.050105-30.218784 40.29548-6.482461 1.894457-13.114266 2.550708-21.564134 2.688234-7.9311.129082-14.25954-.248424-20.417783-1.69391l-.560002-.135552-.055538-.012781-.642221-.160806c-18.6806132-4.838732-31.3856016-21.668119-31.409241-40.628486v-726.78676c.024039-20.517489 14.9365881-38.321812 35.650128-41.457692l.055872-.007475.495822-.073217c4.770544-.679992 10.063411-.884571 16.674152-.811498zm-.442122 39.997556c-4.890629-.054059-8.489355.094053-10.796177.444386-.942145.142209-1.636524.971242-1.637675 1.954752v726.739948c.00113.904948.591361 1.686789 1.4392 1.9064 2.193085.570075 5.857838.814035 10.994652.730431s8.801567-.446655 10.994653-1.087571c.847838-.246944 1.43807-1.047213 1.439198-1.951358v-726.065324c-.00115-.982623-.695528-1.826192-1.637674-1.989057-2.306822-.400995-5.905548-.628547-10.796177-.682607zm114.686806-150.1133109c6.855535.1044174 12.289097.4694598 17.13393 1.3285333 20.201345 3.5625704 34.666971 21.1194512 34.690747 41.3796303v723.0207013c-.023358 18.612204-12.32099 35.164511-30.408567 40.33599-6.477775 1.858409-13.100109 2.483725-21.541396 2.585848-8.197717.099177-14.678469-.334519-21.021109-1.924456l-.181629-.047015-.414691-.104383c-18.40871-4.823623-31.022386-21.317407-31.295808-40.030178l-.004501-.567723v-723.6921472c.02422-20.6093669 15.064774-38.4265222 35.827347-41.468729 4.909222-.720741 10.351042-.9206277 17.215677-.8160717zm-.609174 39.9953611c-4.890629-.0744898-8.489354.057789-10.79624.3964714-.942082.1380374-1.636461.9606062-1.63761 1.939923v723.6451924c.001128.901099.591359 1.682036 1.439198 1.904194 2.193085.576657 5.857839.834634 10.994652.772488 5.136814-.062146 8.801568-.408595 10.994653-1.037769.847838-.242409 1.43807-1.036843 1.439198-1.937129v-722.9705683c-.001149-.9784386-.695528-1.8213461-1.637673-1.9874964-2.306823-.4090315-5.905549-.6508164-10.796178-.7253061zm114.530196 65.7110748c6.848931.077495 12.275944.419636 17.114363 1.255267 20.258601 3.479355 34.842943 21.048383 34.866924 41.395479v719.926161c-.023445 18.601235-12.302754 35.106854-30.311332 40.305165-6.451547 1.868561-13.058399 2.515961-21.482025 2.65086-7.905601.126604-14.209969-.24701-20.337859-1.673695l-.583485-.140229-.027398-.005788-.025602-.007212-.019464-.003685-.041536-.011315-.554104-.1369c-18.480374-4.748364-31.204528-21.265912-31.480355-40.061688l-.004541-.570256v-720.597593c.024304-20.591844 15.032768-38.352752 35.702562-41.448017 4.895313-.734477 10.328556-.95412 17.183852-.876554zm-.452563 39.99744c-4.890629-.055336-8.489355.090236-10.796241.436354-.942082.141075-1.63646.9628-1.63761 1.937934v720.550436c.001128.897241.59136 1.672496 1.439198 1.89034 2.193085.565489 5.857839.80782 10.994653.725557s8.801567-.441772 10.994652-1.076955c.847839-.244736 1.43807-1.03811 1.439198-1.934547v-719.875813c-.001149-.974246-.695528-1.810871-1.637673-1.972682-2.306823-.398396-5.905548-.625287-10.796177-.680624zm114.606763-89.3175758c6.833691.0904059 12.246369.439895 17.100395 1.2815871 20.22774 3.5071354 34.822569 21.0815867 34.804346 41.3840157v714.401674c.009969 18.691672-12.355807 35.246645-30.437766 40.405798-6.436459 1.841321-13.025049 2.470139-21.435734 2.587978-8.444771.118317-15.053528-.327867-21.513159-1.997843-18.666711-4.798411-31.491225-21.621359-31.481074-40.628773v-715.059591c-.018529-20.686971 15.083931-38.4907064 35.816833-41.5406701 4.881012-.7179334 10.301591-.9247256 17.146159-.8341757zm-.529131 39.9964998c-4.890629-.0647-8.489355.072577-10.796177.411881-.943651.138818-1.63855.958013-1.637679 1.930594v715.095462c-.000477.894866.590229 1.669919 1.439596 1.888255 2.192693.566853 5.857446.814257 10.99426.742286 5.136814-.07197 8.801567-.421866 10.994375-1.049177.849252-.24231 1.439958-1.033128 1.43948-1.92714v-714.423058c.000872-.971643-.694027-1.808408-1.637678-1.972021-2.306822-.400005-5.905548-.632381-10.796177-.697082zm114.648526-65.9740642c6.812945.0972466 12.206007.4481445 17.083328 1.2906585 20.169091 3.5099867 34.77963 21.0282119 34.77963 41.3714367v706.792353c-.009754 18.728219-12.438434 35.261186-30.571682 40.389558-6.405557 1.808418-12.965579 2.421155-21.350521 2.528418-8.410265.107586-14.986945-.338722-21.496661-2.01062-18.603169-4.798581-31.438938-21.564299-31.44884-40.612696v-707.439617c0-20.724489 15.166123-38.4913328 35.918652-41.5076313 4.857494-.7017178 10.259383-.8993029 17.086094-.8018599zm-.570894 39.9959258c-4.890629-.0698078-8.489355.0617372-10.796131.3949764-.942978.137059-1.637721.950909-1.637721 1.918589v707.439617c.000463.890286.591075 1.661605 1.439592 1.880476 2.192693.563144 5.857446.811824 10.99426.746112 5.136814-.065711 8.801567-.407954 10.994176-1.026972.848602-.239998 1.439213-1.025642 1.439676-1.915099v-706.77153c0-.966767-.694743-1.799635-1.637675-1.963731-2.306822-.398469-5.905548-.6326305-10.796177-.7024384zm114.728565-90.82207133c6.791912.11054152 12.165155.46797458 16.96528 1.29856193l.098686.0172035c20.09145 3.5283601 34.697548 20.9796214 34.718953 41.353982v699.1893953c-.013919 18.853335-12.607894 35.43136-30.804822 40.434161-6.353326 1.753632-12.873349 2.341474-21.204392 2.429921-8.359025.088743-14.894894-.362452-21.229215-1.979924-18.664993-4.726127-31.615176-21.509694-31.629274-40.652282v-699.8656853c.021847-20.7722422 15.269244-38.5067504 36.057704-41.47175381 4.834652-.68110099 10.218041-.86439988 17.02708-.75357962zm-.650933 39.99470323c-4.890629-.0795972-8.489354.0427806-10.796088.3677509-.942257.1343944-1.636752.9421758-1.637763 1.9049074v699.8236572c.000655.889336.595237 1.66017 1.447734 1.876029 2.193618.560112 5.855657.812898 10.986117.758431 5.130461-.054468 8.7925-.384815 10.986281-.990338.852334-.234329 1.446916-1.017001 1.447571-1.905507v-699.1598863c-.001011-.9618513-.695506-1.7914256-1.637674-1.9568845-2.306823-.39916-5.905548-.6385624-10.796178-.7181597zm114.634606 23.1709035c6.761486.0941583 12.11001.4340254 16.802199 1.2251194 20.232491 3.3698146 35.048249 20.8690613 35.074682 41.4007236v691.552605c.014259 18.889013-12.596994 35.46927-30.816935 40.495079-6.313912 1.740654-12.803349 2.334614-21.105271 2.440815-8.327716.10653-14.833524-.322841-21.224764-1.922511-18.706231-4.68966-31.735214-21.503825-31.72075-40.66767v-692.293788c.026889-20.84422 15.373193-38.5666406 36.080294-41.4604505 4.790264-.6731056 10.144992-.8641374 16.910545-.7699225zm-.556973 39.996122c-4.884512-.06802-8.480351.060453-10.787637.384662-.945938.132195-1.644979.939475-1.646218 1.901102v692.242275c-.000668.886647.594288 1.654412 1.447738 1.868372 2.193617.549042 5.855656.790711 10.986117.725081 5.13046-.06563 8.792499-.400797 10.986088-1.005537.853479-.235425 1.448435-1.017622 1.447766-1.903408v-691.582826c-.001239-.960745-.70028-1.786679-1.646339-1.94425-2.307165-.388945-5.903003-.617451-10.787515-.685471z"/></svg>