<svg height="960" viewBox="0 0 960 960" width="960" xmlns="http://www.w3.org/2000/svg"><path d="m517.645561 17.5660873c51.293888 9.8712917 88.694099 25.1793678 119.136426 49.419475 27.63013 22.0008576 48.167563 49.6332587 71.661025 92.7571627 45.720854 83.923848 64.561429 279.124282 46.720594 507.522896-9.24436 118.346417-40.877674 195.637754-95.335488 240.002072-23.754017 19.351324-50.813404 31.642759-81.571308 38.620255-22.678673 5.144706-44.169572 7.103773-75.917617 8.072024-44.994346 1.372238-78.446326-1.42623-105.58091-8.509489-22.452847-5.861131-36.795762-12.782847-59.358374-26.5808-10.990226-6.72097-20.344635-14.556367-31.489427-25.449299l-.062361-.062063c-.062299-.062105-.16964-.169196-.316784-.315984l-.306713-.305947c-.038604-.038503-.078674-.078468-.120169-.119851l-.265727-.264984c-1.551819-1.547313-4.56354-4.547302-7.528762-7.479264l-.538283-.531996c-2.775019-2.741275-5.428439-5.341188-6.711486-6.53911l-.059698-.055507-.0433-.026129c-.422433-.259784-1.032932-.594247-2.73853-1.489608l-.239454-.125617c-.479656-.251466-.854759-.448511-1.187133-.624053l-.057583-.030593-.071444-.028389c-.139184-.05568-.298797-.118877-.477952-.189112l-.185637-.072563c-.390128-.152071-1.381379-.529637-2.418633-.923571l-.479978-.182216c-1.27787-.484946-2.496056-.945949-2.619616-.993115-.986228-.37647-1.869445-.718009-2.72316-1.054295-2.797902-1.10212-5.161439-2.099631-7.430745-3.179262-4.985008-2.371636-8.825488-4.635861-13.212917-8.73407-9.514862-8.887643-15.687259-19.432569-22.091293-34.049058-.593224-1.353967-1.518572-3.560011-2.485815-5.893332l-.242516-.585563c-.202544-.489479-.405856-.981861-.607313-1.470592l-.240689-.584305c-1.297089-3.150949-2.471424-6.036875-2.802299-6.857936l-.048325-.12019c-.01658-.041371-.028647-.071683-.035938-.090279l-.007729-.019173.005999.009021-.122272-.296144c-4.451725-11.063633-9.776248-44.277382-14.568263-90.612993-6.447397-62.342049-11.218404-141.986402-13.392571-238.320321-1.961329-86.90335.600901-178.405451 7.677152-274.512791.955633-12.958667 6.815864-25.044 16.358933-33.810744l.328021-.297007.101583-.093723.494415-.439581c10.844779-9.485834 20.263802-19.714717 28.306021-30.70913 1.94396-2.657563 4.37368-7.715448 8.080407-17.202659.795353-2.035671 4.486611-11.688288 5.566012-14.449638 2.510203-6.421658 4.732343-11.7744374 7.142341-17.0693597 8.500095-18.6752594 18.347289-34.1869808 31.693868-47.8682281 21.786551-22.3328536 51.82-34.258439 89.649323-37.50675032 32.841394-2.82001005 72.873936.72078928 122.772092 10.32347842zm-134.242312 31.4489774-.400345.0719594c-9.460349 1.8012195-18.755723 4.6645052-27.983022 9.1148507-4.143052 1.9982025-14.654025 7.7980621-22.262019 15.9156745-6.060206 6.4661467-9.636405 15.0116302-11.331952 19.8720732-36.966926 105.9691475-43.262394 551.5369775 5.108617 726.1981595 1.2852 4.640684 2.373658 9.438807 3.971825 13.336863 23.260832 56.735039 81.94233 83.15821 170.613487 80.453917s195.792009-14.613583 214.165242-249.827961-3.885447-415.369124-41.967704-485.27179c-38.082258-69.902665-71.378973-104.3569491-163.230942-122.033472l-2.615845-.4996542c-.11058-.0209616-.221069-.0418852-.331465-.0627709-52.756397-9.9680026-93.402679-12.6244688-123.735877-7.2678492zm-96.597101 113.3546983-.374551.570595c-.4585.688247-.926641 1.360043-1.405405 2.014555-9.79958 13.396878-21.218172 25.797257-34.255775 37.201134-2.17445 1.904557-3.513199 4.587809-3.725769 7.470582-6.984612 94.86153-9.511062 185.085884-7.579439 270.673057 4.84158 214.522742 21.994796 307.516188 25.015214 314.747313 4.583926 10.97429 10.631956 28.055894 18.938388 35.814766 2.719638 2.54036 16.457005 6.782454 20.188283 8.787481 3.43895 1.847942 6.879705 3.464713 10.381483 6.076882-.686521-1.516419-1.348177-3.055638-1.987323-4.614566-1.413999-3.448857-2.283805-6.349528-3.757083-11.913028-.121318-.458419-.121318-.458419-.239989-.906974-.092177-.348247-.163718-.617908-.232624-.876615-.19595-.735694-.357546-1.333202-.511537-1.889243-23.124625-83.499896-35.445644-232.176746-35.283136-394.21677.107105-104.657634 5.466309-200.982883 14.829263-268.939169zm254.525462 145.509982c3.554092 48.186873 5.333348 87.333876 5.333348 117.483266l.000534 1.807086c.01745 29.81731.462418 74.411894 1.335071 133.765693.081191 5.522251-4.329659 10.064738-9.85191 10.147032-5.52225.080089-10.064738-4.330762-10.145929-9.853012-.873949-59.44192-1.319748-104.120107-1.337231-134.05262l-.000535-1.814179c0-29.590208-1.758249-68.275005-5.279169-116.012133-.406242-5.507887 3.729458-10.302235 9.237344-10.708477 5.507887-.406242 10.302235 3.729458 10.708477 9.237344z"/></svg>