<svg height="960" viewBox="0 0 960 960" width="960" xmlns="http://www.w3.org/2000/svg"><path d="m352.751934-.0673589c.431742.0256812 1.763016.11837645 4.015511.27958974l.741961.05318883c10.173021.73035421 36.311642 2.64799138 79.974808 5.86102094.117496.00864622.117496.00864622.234993.01729245 5.262143.38722656 15.355007 1.1301899 25.435415 1.8722766l1.406.10350541c12.878662.94808959 25.368409 1.86760887 27.334491 2.01231463 17.580793 1.2939662 26.621608 1.9580279 29.117121 2.1380292 5.742182.4141834 10.915805 1.2614033 16.052824 2.8813195 7.809313 2.4626023 14.946538 6.5694507 20.926442 12.84522 6.168825 6.4740382 9.960594 14.0717193 11.845756 22.167378.200823.8624162.377189 1.70934.531474 2.5468278l.093745.5363656.639026-.103675c2.800978-.4413101 5.649101-.6975704 8.544639-.7939735l.669043-.0194207c5.987861-.1484338 9.330911.1469755 18.798388 1.2637392 2.392976.2822704 3.724134.4276584 5.020674.5424619 6.648176.5886693 12.706932 1.8373477 18.633953 4.1990311 8.389843 3.3430206 15.751989 8.7046849 21.340702 16.1658359 5.032289 6.7183024 7.845328 13.9798486 9.193659 21.633993.780627 4.4314293 1.010174 8.3997153 1.010174 13.2700123l-.000258 24.700996.223529.171802c9.667465 7.548193 16.324849 18.810551 18.029664 32.907731l.012807.114467.459567.02004c25.235861 1.06101 40.929472 1.668739 46.826891 1.814716l.250236.006056c6.927281.163625 13.233634 1.033205 19.594731 3.133307 9.151699 3.021414 17.291508 8.357683 23.5912 16.088285 5.669894 6.957752 9.055304 14.788316 10.850219 23.273268 1.204951 5.696058 1.668175 11.516642 1.668175 18.135686 0 .016185-.000011.040918-.000032.074071l-.000737.793749c-.000101.098453-.000212.204811-.000333.318946l-.000835.777101-.00027.246521-.00059.533766c-.000104.093442-.00021.189111-.000319.286985l-.000687.613525c-.00012.106606-.000243.215374-.000368.326281l-.000782.69095c-.012056 10.624848-.044376 37.856921-.077475 66.44995l-.002233 1.929508-.003722 3.222192-.003719 3.225957c-.022291 19.357422-.044074 38.658624-.059378 53.232204-.043697 41.612682-.079319 81.082695-.105302 118.326995-.021847 31.31605-.036079 60.234129-.042341 86.433815l-.000787 3.477154-.000182.864235-.000822 4.290719-.000147.852034-.00086 5.906899-.000099.835619-.000133 24.57145.000273 2.174511.000693 4.297088c.012768 68.907927.102062 110.512321.277994 115.676422.309966 9.098374-.583077 17.402559-3.087834 25.228479-3.199654 9.997073-8.938284 18.699361-17.088622 25.229989-7.059513 5.656582-14.774011 8.884462-22.953412 10.532293-4.437538.893991-7.524142 1.159936-12.772796 1.402269-4.195232.193696-19.615699 1.008028-46.077686 2.433555l-.106476.00541.000946 68.573232c.000146.366537.000162.721609.000017 1.066012l-.000942 1.001999c-.008135 5.343708-.067607 7.999423-.306755 11.541216-.471812 6.98753-1.55866 13.221642-3.896788 19.603699-7.287913 19.892774-24.218702 32.289435-45.581017 34.641693-6.65207.732476-35.718738 3.012269-82.778506 6.561256-1.057855.079778-2.122634.160029-3.194174.240741-18.758815 1.412984-38.853807 2.91229-58.948275 4.402008-5.274489.391028-10.266485.760442-14.905428 1.103179l-1.147078.084965-.153994.089541c-6.805587 3.912724-14.031323 6.76654-22.298565 7.99557l-.803328.113847c-1.538306.207372-3.093275.351017-4.665343.425695-3.535259.167935-20.381603 1.342501-38.011441 2.617641l-1.126252.081519-2.123236.154007c-16.63889 1.208534-33.291262 2.456937-39.512784 2.989823-22.574471 1.933549-37.984203-1.750428-54.520956-14.397157-10.95891-8.380989-18.839964-18.291598-22.62203-29.517618l-.124071-.377868-.411726-.313059c-9.637804-7.446974-15.374804-18.901435-15.540274-31.118441v-246.739218c0-11.735674 5.02876-22.210323 12.980208-29.49459l.445792-.402692-.975-242.796-.297657-.282335c-7.348347-7.127433-11.969585-17.050604-12.147984-28.053785l-.005359-.661473v-264.337424c0-13.417406 6.727085-25.9410858 17.913714-33.3496024 8.797334-5.8261696 16.162421-10.7157854 21.983565-14.592732l1.810601-1.2064111.426455-.2843145.833808-.5560952c6.978926-4.6556466 11.189046-7.4943024 12.367413-8.3367806 1.91161-1.3667124 2.988808-2.11681508 4.443645-3.05441558 2.593798-1.67162758 5.187292-3.11337943 8.143688-4.4019112 7.635088-3.32771838 15.548364-4.60337771 23.79157-4.11304932zm5.250463 879.4875689.000814 31.429245c0 2.606845-.421549 5.003566-1.206474 7.133935 1.975211-.155948 4.232312-.330201 6.702491-.518513l-.000364-34.834677c-1.994244-1.164127-3.856165-2.25135-5.490966-3.206138zm-14.348836-837.9718271-.153384.0002178c-1.150218.6622225-2.372834 1.5269088-3.863228 2.5924716-2.831575 2.0244452-15.698066 10.6200721-38.599474 25.7868807v264.337424h12.334468l1.216867 302.879997-13.551335-1.189122v246.207573l11.131806 7.914512c.546128.256887 1.076629.567063 1.584557.93167 4.792768 3.440401 10.824175 7.784926 18.095209 13.034277 2.145882 1.549228 4.246048 2.763858 6.108638 3.559071l.044712.018855.000814-32.175334c0-3.396872.128132-5.978506.453374-8.151645l.056044-.358477c.615409-3.771946 1.866048-6.799946 4.713314-9.231083 3.591342-3.066465 7.841234-3.460671 11.924816-2.253466 1.985429.586941 3.795284 1.474609 6.320893 2.932601.005146.002971 8.251052 4.822499 17.413172 10.167746l.706462.412137 1.064849.621146c.118584.069166.23724.138375.355955.207615l.981852.572626.626843.36554 1.252539.730306c5.419995 3.159874 10.702531 6.235445 14.376392 8.364848.461629.267542.461629.267542.923314.535022 15.328189 8.879703 26.672886 15.334756 32.843912 18.642126 2.448763 1.312418 4.514004 2.169837 6.170769 2.632605l.084686.022687.000378-155.734549c0-6.728137 1.18504-11.468841 5.479547-14.966282l.284505-.226339c2.768982-2.15222 6.020494-2.949507 9.380929-2.725604 2.152092.143392 4.269652.68554 6.663416 1.574858 4.018393 1.492893 16.027123 5.691706 28.844816 10.106294l1.116446.384361c.745424.256522 1.492866.513527 2.240929.770529l1.717953.589834 1.121776.38473 1.12005.383805c.932365.319352 1.861839.637361 2.785691.953081l1.105748.377704c11.762128 4.015829 22.423932 7.594429 26.254812 8.748714l.054004.015864.006487-.141653c.028809-.740031.045085-1.57979.048704-2.529489l.000776-541.21823-.001967-.292628-.354385.104486c-5.929791 1.746498-17.347282 5.20672-29.02803 8.789037l-1.845754.566412-.505313.155187-1.514914.465564-1.008152.310091-1.005846.309597c-14.56441 4.484472-28.164934 8.741087-30.519366 9.637367-5.450751 2.074981-9.780804 2.730655-14.219174 1.002933-6.109885-2.378392-8.564011-7.766069-8.564011-14.098015l-.000713-52.415326c-.367794-.420412-.701013-.871987-.995154-1.35033-7.467941 1.450749-14.797996-3.343294-14.97785-12.632257l-.00338-.350446v-60.9153023c0-1.1697846-.051426-2.0283295-.143733-2.6341681l-.023225-.1438297-.108245-.049117c-.246847-.1095645-.572067-.2327238-.98335-.3635257l-.21285-.0660104c-3.07435-.9301871-8.008632.3352861-12.488827 2.5444417-.261929.1291553-5.590995 2.7560915-7.430316 3.6632627-3.335876 1.6452866-6.251791 3.0851263-9.026717 4.4578524l-.071837.0355375-.098299.0486305c-.018904.0093521-.041588.0205747-.071833.0355381-3.959164 1.9587832-7.421402 3.6774702-10.316961 5.1220963l-.742462.370619c-.243172.121453-.482013.240811-.716478.358052l-.690218.34535c-3.723479 1.86425-6.242931 3.146077-7.352326 3.745159-2.017717 1.089583-3.798482 1.855887-5.575856 2.314944-3.014703.778633-6.056979.70778-9.043732-.828683-3.246752-1.670213-5.141929-4.439544-6.007837-7.5877577-.45415-1.6511677-.59856-3.2434014-.59856-5.1460735v-50.2271449c0-.6490638-.010995-1.2380165-.031504-1.7674872l-.001792-.0156838-.034298-.0030066c-1.397105-.1397961-3.021332-.259655-4.5289-.3164344l-.374262-.0128558c-.572992-.0177275-1.11781-.0258367-1.627376-.0245302zm29.957101 847.0811551-.151531.382045c-.605448 1.598603-.917162 3.229207-.957677 4.81391l-.001456.061324v.587l.008486.271999c.162815 3.960432 2.036778 7.529151 5.255881 9.440877l.25027.143766c4.912416 2.728127 11.435081.920906 15.347648-4.223717-1.369249-.791791-2.774447-1.604813-4.214619-2.439112-.463676-.268634-.463676-.268634-.927249-.537302-3.73677-2.165866-9.115649-5.297619-14.609753-8.50079zm84.661735-138.441328-.007808 154.00072c2.101425-.155146 4.528429-.334459 7.234776-.53462l1.821316-76.738054 157.810641-10.795048.000374 74.333501c8.286776-3.464926 8.573841-12.560281 8.578924-25.320264l-.000028-.96452c-.000052-.16189-.000118-.324345-.000184-.487363l-.000933-89.041273-103.71836.596038c-2.949566.016846-5.608199-1.244995-7.450194-3.265822-.623348-.162636-1.263574-.343313-1.921508-.541555-4.523233-1.362899-17.657219-5.786413-31.271655-10.450263l-1.739997-.596474-1.741457-.597781c-10.445611-3.587998-20.767143-7.17618-27.310997-9.497168zm21.783252 111.906638c-5.164906 9.317737-2.573091 20.628804 5.788981 25.263976 8.362071 4.635172 19.327853.839203 24.492759-8.478534s2.573091-20.628804-5.78898-25.263976c-8.362072-4.635172-19.327854-.839203-24.49276 8.478534zm52.428737-2.967665c-5.164906 9.317737-2.573091 20.628805 5.78898 25.263977 8.362072 4.635172 19.327854.839203 24.49276-8.478534s2.573091-20.628804-5.788981-25.263976c-8.362071-4.635172-19.327853-.839204-24.492759 8.478533zm51.439515-3.956885c-5.164906 9.317737-2.573091 20.628804 5.788981 25.263976 8.362071 4.635172 19.327853.839203 24.492759-8.478534s2.573091-20.628804-5.78898-25.263976c-8.362072-4.635172-19.327854-.839203-24.49276 8.478534zm-37.424537-646.76346v541.31674c-.007144 1.993511-.056153 3.78741-.17056 5.419863l141.20851-.811698c16.660865-.891952 26.768385-1.421081 30.322559-1.587389l.188911-.008783c1.093805-.050501 2.190809-.104261 3.273316-.194341l.539963-.048219c7.719814-.738913 14.543571-3.626224 13.957431-20.831096-.207194-6.081723-.288414-53.377124-.301104-116.710722l-.000711-4.021107c-.000103-.67366-.000199-1.349039-.000288-2.026106l-.000253-23.717338c.013966-140.225756.285325-333.053845.301594-353.88293l.000676-1.067065c.000057-.140628.000086-.262483.000086-.365319 0-15.820988-3.854247-20.339486-16.648878-20.6417-1.327683-.031361-3.144649-.086005-5.450897-.163933l-167.229533-1.818472c.006169.380943.009178.767462.009178 1.159615zm46.26765 412.555771c3.465866-32.97552 31.293861-57.077925 62.155564-53.834229 30.861704 3.243696 53.070418 32.605171 49.604551 65.58069-3.465866 32.975519-31.293861 57.077924-62.155564 53.834228-30.861704-3.243696-53.070418-32.60517-49.604551-65.580689zm91.135247-186.077165c.828055-7.878417 7.445582-13.640158 14.780659-12.869211 7.335077.770948 12.610061 7.782643 11.782006 15.661059-.828055 7.878417-7.445581 13.640158-14.780658 12.869211-7.335078-.770948-12.610061-7.782643-11.782007-15.661059zm0-45.504187c.828055-7.878416 7.445582-13.640158 14.780659-12.86921 7.335077.770947 12.610061 7.782642 11.782006 15.661059-.828055 7.878416-7.445581 13.640158-14.780658 12.86921-7.335078-.770948-12.610061-7.782643-11.782007-15.661059zm0-45.504187c.828055-7.878416 7.445582-13.640158 14.780659-12.86921s12.610061 7.782643 11.782006 15.661059-7.445581 13.640158-14.780658 12.86921c-7.335078-.770947-12.610061-7.782642-11.782007-15.661059zm0-45.504186c.828055-7.878416 7.445582-13.640158 14.780659-12.869211 7.335077.770948 12.610061 7.782643 11.782006 15.661059-.828055 7.878417-7.445581 13.640158-14.780658 12.869211-7.335078-.770948-12.610061-7.782643-11.782007-15.661059zm0-45.504187c.828055-7.878416 7.445582-13.640158 14.780659-12.86921s12.610061 7.782642 11.782006 15.661059c-.828055 7.878416-7.445581 13.640158-14.780658 12.86921-7.335078-.770948-12.610061-7.782642-11.782007-15.661059zm-57.75581-88.74576-168.214976 2.083352.000922 42.085921.172268-.055055c6.097064-1.98128 17.009904-5.385328 28.280319-8.855921l1.353881-.416704c.451675-.13895.903638-.27792 1.355601-.416822l1.876639-.576363c.567475-.174169 1.134327-.348043 1.699991-.521447l1.129574-.346135c13.343897-4.087321 25.810291-7.847891 29.885635-8.996026 2.66292-.750217 3.85832-1.038776 5.644924-1.229219 1.779995-.189739 3.5204-.136159 5.207888.237945l98.456358 1.069826.000893-13.620032c0-6.412001-2.650313-9.394447-6.849917-10.44332zm-23.412484-69.8040341.0669.0608122c1.357351 1.2459949 2.007898 2.907537 2.028056 4.9978305l-.000364.4005334c-.000364.0324163-.001091.063167-.002547.1246683-.000258.0203325-.000429.0338875-.000562.0443609l-.000714.0554304-.001509.2223604-.000752 44.16039 9.49-.117.000258-34.763315c0-9.072462-1.188953-13.745763-11.578766-15.1860711zm-160.779492-3.7566142-.000078 48.2199213.265299-.016539c.303203-.015423.609369-.023193.918681-.023004l.466352.006292c1.487374.039147 2.874838.267754 4.154728.667133l-.00089-46.8791438c-.001471-.5465382-.005394-1.0653196-.012015-1.5580816zm118.473015 25.0308043c-2.720765 9.488435 2.172972 19.101795 10.752306 21.561879 8.579335 2.460085 17.823764-3.099221 20.544529-12.587656 2.720765-9.488436-2.172972-19.101796-10.752307-21.56188-8.579334-2.460085-17.823763 3.099221-20.544528 12.587657zm-49.461072-2.967665c-2.720765 9.488436 2.172971 19.101795 10.752306 21.56188s17.823763-3.099221 20.544528-12.587657c2.720766-9.488436-2.172971-19.101795-10.752306-21.5618796s-17.823763 3.0992206-20.544528 12.5876566zm-51.439516-2.967664c-2.720765 9.488436 2.172972 19.101795 10.752307 21.56188 8.579334 2.460084 17.823763-3.099221 20.544528-12.587657s-2.172971-19.1017952-10.752306-21.5618799-17.823763 3.0992209-20.544529 12.5876569zm-89.316231-68.2636779.008229.1029421c.022255.7039993.032793 1.4338264.032793 2.1913527l-.000296 39.657829.307292-.1538455c.826479-.413317 1.704709-.8516008 2.633857-1.3144724l-.00407-40.2660502c-1.019309-.0745717-2.012462-.1471978-2.977805-.2177557zm153.235965 11.583975-.001161 23.3942276 7.882.567.000408-12.404822c0-6.5994304-1.155949-10.0644491-7.881247-11.5564056zm-41.789315 11.6891596c-.824224 2.9211946-.862143 5.9175823-.176777 8.6870056l25.860931 1.8600624.118318-.2517098c.280102-.6220044.525269-1.2658021.733587-1.9288981l.149299-.5009015c2.36421-8.3791757-1.856826-16.8060258-9.154837-18.9327568-7.263711-2.1167358-15.174822 2.718187-17.530521 11.0671982zm-93.978425-6.6266739c-1.599216 5.6572684-.280898 11.3409832 2.943254 15.2081298.359055-.1779448.724919-.3584133 1.095956-.5414122 1.841651-.9083205 7.171884-3.5358312 7.431993-3.6640896 2.953042-1.4561259 6.094007-2.7166973 9.797205-3.6664399 2.290148-.5873443 4.562569-.9841372 6.808919-1.153831 1.3379-7.9700687-2.922566-15.5701054-9.918942-17.6051112-7.531041-2.1905212-15.722704 2.8064707-18.158385 11.4227541zm47.978425 3.6266739c-.738082 2.6158918-.846597 5.2931982-.366082 7.8185882l.017473.087401.022384.0020539c5.889858.6191292 14.38765 1.3706958 25.481881 2.2530679l.679735.0538782.139509-.3157879c.206795-.4919243.392101-.9967346.555026-1.5132581l.155432-.5203846c2.36421-8.3791757-1.856826-16.8060258-9.154837-18.9327568-7.263711-2.1167358-15.174822 2.718187-17.530521 11.0671982z"/></svg>