<?xml version="1.0" encoding="utf-8"?>
<!-- Generator: Adobe Illustrator 21.0.0, SVG Export Plug-In . SVG Version: 6.00 Build 0)  -->
<svg version="1.1" id="Layer_1" xmlns="http://www.w3.org/2000/svg" xmlns:xlink="http://www.w3.org/1999/xlink" x="0px" y="0px"
	 viewBox="0 0 529.3 1486.2" style="enable-background:new 0 0 529.3 1486.2;" xml:space="preserve">
<style type="text/css">
	.st0{fill:#010101;}
</style>
<g>
	<path class="st0" d="M520,598.8c-5.4-80-19.3-159.3-41.3-235.7c-18.9-65.9-43-126.5-69.8-175.3c-43.9-80.1-77.1-132.3-101.5-159.6
		C286.7,4.9,275.4,3,264.7,3v14c6.3,0,14,0,32.4,20.5c23.4,26.2,56.9,79,99.7,157c26.3,47.9,50,107.5,68.6,172.4
		c21.7,75.5,35.4,153.9,40.7,232.8c3.6,53.7,3.3,106.7-1,158.6c-31.4,4.8-121.3,16.7-240.4,16.7c-102.3,0-205.8-12.4-240.4-17
		c-4.3-51.7-4.6-104.7-1-158.2c5.4-79,19.1-157.3,40.7-232.8c18.6-64.9,42.3-124.5,68.6-172.4c42.8-78,76.3-130.9,99.7-157
		C250.6,17,258.4,17,264.6,17V3c-10.7,0-22,1.9-42.8,25.2c-24.4,27.3-57.6,79.5-101.5,159.6c-26.7,48.8-50.9,109.4-69.8,175.3
		C28.6,439.5,14.7,518.9,9.3,598.8c-6.3,92.5-0.9,183,16,269.1c19.3,98.4,53.8,190.9,102.4,275.1c2.9,5,9.2,15,16.1,19.7l-0.1,36h0
		h0c2.2,5.1,4.1,10.2,7,14.6v0.1c0.6,0.9,1.1,1.7,1.5,2.4c1.9,3.2,3.7,6.7,5.1,10.2c1.2,3.1,2.1,6.2,2.6,9.2l0.1,0.4l0.1,0.3
		c1.6,6.2,3.1,14.3,4.2,23.8c1.3,10.4,2.4,22.4,3.1,35.1c0.8,14,1.3,28.5,1.6,42.9c0.3,16,0.4,31.7,0.1,45.8l-0.1,4.9l0.5,0.1
		l28.1,41.6h-0.2l9.5,11.4l24.6,29.4l0.1,0.1l0.6,0.6c4.5,5.3,9,10.6,32.2,11.7h0.4c23.2-1.1,27.8-6.4,32.2-11.7l0.6-0.6l0.1-0.1
		l24.6-29.4l9.5-11.4h-0.1l28.8-41.6h-0.4l-0.1-4.9c-0.2-14.1-0.2-29.8,0.1-45.8c0.2-14.3,0.8-28.9,1.6-42.9
		c0.8-12.7,1.8-24.7,3.1-35.1c1.1-9.4,2.5-17.5,4.2-23.7l0.1-0.3l0.1-0.4c0.5-3,1.4-6.2,2.5-9.2c1.4-3.5,3.2-7,5.1-10.2
		c0.4-0.6,0.9-1.5,1.6-2.4c2.7-4.3,4.7-8.5,7-13.1v-37.4c2.2-1.5,4.5-3.8,7.1-6.9c3.7-4.5,7.1-9.6,9-12.8
		c48.6-84.2,83-176.8,102.4-275.1C520.9,781.8,526.3,691.3,520,598.8z M291.3,1463.2l-0.6,0.7c-3.3,3.8-6.5,7.7-26.1,8.7
		c-19.6-1-22.8-4.9-26.1-8.7l-0.6-0.7l-15.9-18.9c2.5,0.1,5.1,0.3,8,0.4c5,0.2,10.6,0.4,16.5,0.4c5.8,0.1,11.9,0.1,18.1,0.1
		c6.2,0,12.3-0.1,18.1-0.1c5.9-0.1,11.5-0.2,16.5-0.4c2.8-0.1,5.5-0.3,7.9-0.4L291.3,1463.2z M361.8,1223c-1.4,3.6-2.5,7.4-3.1,11.2
		c-1.7,6.7-3.2,15-4.4,24.7c-1.3,10.5-2.3,22.5-3.1,35.3c-0.8,13.4-1.3,28-1.6,42.5c-0.3,14-0.4,27.8-0.2,40.5l-3.7,0.4
		c-3,0.3-5.8,0.6-8.5,0.8c-3.7,0.3-7.2,0.6-10.7,0.8c-3.9,0.3-7.6,0.5-11.2,0.7c-4.2,0.2-8.3,0.4-12.2,0.6
		c-4.3,0.1-8.5,0.3-12.6,0.4c-4.5,0.1-8.8,0.2-13,0.3c-4.4,0.1-8.7,0.1-12.9,0.1c-4.2,0-8.5-0.1-12.9-0.1c-4.2-0.1-8.5-0.1-13-0.3
		c-4.1-0.1-8.3-0.3-12.6-0.4c-3.9-0.2-8-0.4-12.2-0.6c-3.6-0.2-7.4-0.4-11.2-0.7c-3.4-0.2-7-0.5-10.7-0.8c-2.6-0.2-5.4-0.5-8.4-0.8
		l-3.7-0.4c0.1-8.8,0.1-18.2,0-27.7c10.1,1.2,21.1,2.1,32.5,2.8c20.8,1.3,42.4,1.8,61.2,1.8v-8.3c-18.9,0-40.5-0.5-60.9-1.8
		c-11.5-0.7-22.7-1.7-32.9-2.9c0-1.5-0.1-3-0.1-4.5c-0.1-6.8-0.3-13.6-0.6-20.3c10.3,1.2,21.6,2.2,33.3,2.9
		c20.8,1.3,42.4,1.8,61.2,1.8v-8.3c-18.9,0-40.5-0.5-60.9-1.8c-11.9-0.7-23.4-1.7-33.9-3c-0.2-4.7-0.4-9.3-0.7-13.8
		c-0.2-3.8-0.5-7.5-0.8-11.1c10.8,1.3,22.7,2.4,35.1,3.1c20.8,1.3,42.4,1.8,61.2,1.8v-8.3c-18.9,0-40.5-0.5-60.9-1.8
		c-12.7-0.8-25-1.9-36-3.3c-0.5-5.6-1.1-10.9-1.7-15.8c-0.4-3.3-0.8-6.4-1.3-9.3c11.7,1.6,25,2.8,38.8,3.6
		c20.8,1.3,42.4,1.8,61.2,1.8v-8.3c-18.9,0-40.5-0.5-60.9-1.8c-14.4-0.9-28.4-2.2-40.5-3.9c-0.5-2.5-1-4.7-1.6-6.9
		c-0.6-3.8-1.7-7.5-3.1-11.2c-0.9-2.3-2-4.6-3.1-6.8l3.4,0.5c5.4,0.7,11,1.4,16.8,1.9c11.3,1.1,24,1.9,36.9,2.4
		c14.4,0.6,29.1,1,42.7,1.1h0.1c13.6-0.1,28.4-0.4,42.8-1.1c12.9-0.6,25.6-1.4,36.9-2.4c6-0.5,11.8-1.1,17.1-1.9l3.7-0.5
		C363.8,1218.4,362.7,1220.7,361.8,1223z M362.2,1204.4c-5.3,0.7-11.1,1.4-17.2,1.9c-11.8,1.1-24.6,1.9-37.3,2.5
		c-14.7,0.6-29.6,0.9-43.3,1.1c-13.7-0.1-28.6-0.4-43.3-1.1c-12.7-0.6-25.5-1.4-37.2-2.5c-6-0.6-11.7-1.1-16.8-1.9
		c-4.1-0.6-7.8-1.2-11.3-1.8V1162c24.5,1.9,115.9,7.5,217.9-2.4v42.9C370.1,1203.3,366.3,1203.9,362.2,1204.4z M490.3,865.3
		c-19,96.9-52.9,188-100.8,270.8c-2.2,3.8-5,7.7-7.5,10.7l-3.3,0.3c-120.3,12.4-227.3,2.6-228.4,2.5l-0.8-0.1
		c-2.8-2.9-6.9-8.2-9.9-13.4c-47.8-82.9-81.7-174-100.8-270.8c-6.5-33.1-11.3-66.9-14.3-101.1c36.1,4.7,138.5,16.9,239.9,16.9
		c117.7,0,207.1-11.6,239.9-16.6C501.5,798.6,496.7,832.3,490.3,865.3z"/>
	<path class="st0" d="M351.9,1002.4c-2.3,0.2-4.4,1.1-6.3,2.3c-2,1.3-3.4,3.3-5,5.4c0-2,0-3.8,0-5.5c0-0.9-0.2-1.2-1.2-1.2
		c-3.2,0.1-6.4,0.1-9.6,0c-1.2,0-1.4,0.4-1.4,1.4c0,10.5,0,20.9,0,31.4c0,0.7,0,1.4-0.1,2.1c-0.4,3.5-4,6.1-7.4,5.3
		c-3.3-0.8-5.2-3.1-5.2-6.7c0-5.7,0-11.4,0-17.1c0-2,0-4-0.4-5.9c-0.7-3.3-2-6.2-4.9-8.2c-2.9-2.1-6.1-3.1-9.6-3.3
		c-5.3-0.3-10.2,0.7-13.7,5c-0.7,0.8-1.3,1.7-2.2,2.8c0-2-0.1-3.7,0-5.3c0.1-1.1-0.2-1.5-1.4-1.4c-3,0.1-6.1,0-9.1,0
		c-1.5,0-1.5,0-1.5,1.6c0,10.8,0,21.6,0,32.3c0,1.3-0.2,2.6-0.9,3.7c-1.6,2.6-4.4,3.8-7.3,2.9c-2.3-0.7-4.5-2.8-4.4-6.1
		c0-4.5,0-9,0-13.5c0-3.1,0.1-6.2-0.3-9.3c-0.4-2.8-1.2-5.6-3.2-7.7c-4.8-5-10.9-5.6-17.3-4.6c-3.9,0.6-6.8,3-9.1,6.2
		c-0.2,0.3-0.3,0.8-0.7,0.7c-0.5-0.1-0.3-0.7-0.3-1.1c0-1.3-0.1-2.7,0-4c0-0.9-0.3-1.1-1.1-1.1c-3.2,0-6.5,0.1-9.7,0
		c-1,0-1.2,0.3-1.2,1.2c0,9.3,0,18.6,0,28c0,1.9,0,3.7,0,5.6c-0.1,2.8-2.5,5.3-5.1,5.9c-4.6,1.1-8.4-2.7-8.3-7
		c0.2-10.1,0.1-20.3,0.1-30.4c0-0.9,0-1.7,0-2.6c0-0.6-0.2-0.8-0.8-0.8c-3.5,0-7,0-10.5,0c-0.6,0-0.8,0.2-0.8,0.8c0,0,0,0.1,0,0.1
		c0,11.5,0,22.9,0.1,34.4c0.1,6.8,4.6,11.7,10.6,13.8c5.4,1.9,11,1.9,16.4,0c3.8-1.3,6.8-3.6,8.8-7.1c1.5-2.7,1.9-5.6,2-8.5
		c0.1-4.1,0-8.3,0.1-12.4c0.1-2.5,0.2-5,1.4-7.2c2.3-4.6,7.5-5.4,11.6-4.1c1.7,0.5,2.9,1.7,3.6,3.3c0.7,1.5,0.8,3,0.8,4.6
		c0,5.5,0,10.9,0,16.4c0.1,7.2,4.4,12.9,11.3,15.1c4.2,1.3,8.5,1.5,12.8,0.7c4-0.8,7.5-2.5,10.2-5.6c2.4-2.8,3.5-6,3.5-9.7
		c0.1-5.7-0.2-11.4,0.6-17.1c0.8-6.4,5.5-9.2,11.8-8.1c2.3,0.4,4,1.9,4.7,4.2c0.4,1.3,0.6,2.6,0.6,3.9c0,5.6,0,11.2,0,16.8
		c0.1,7.5,4.5,12.6,11.2,14.8c5.1,1.7,10.3,1.6,15.4,0c6.7-2.2,11.2-7.4,11.2-14.8c0-3.4,0-6.9,0-10.3c0-2.7,0.2-5.3,0.8-8
		c0.4-2.2,1.5-3.9,3.4-5.3c2.1-1.5,4.4-1.7,6.8-1.5c0.8,0.1,1-0.1,1-0.9c0-2.8,0-5.6,0-8.4C353,1002.5,352.7,1002.4,351.9,1002.4z"
		/>
	<path class="st0" d="M198,997.5c4.3,0,7.5-3.3,7.5-7.5c0-4.1-3.4-7.6-7.6-7.5c-4.1,0-7.5,3.5-7.5,7.7
		C190.5,994.2,193.9,997.5,198,997.5z"/>
</g>
</svg>
