<svg height="960" viewBox="0 0 960 960" width="960" xmlns="http://www.w3.org/2000/svg"><path d="m203.547262-.03169129 609.986916 49.71878389c36.853524 3.0038552 65.232064 33.7895829 65.232064 70.7653224v704.428975c0 36.514501-27.696036 67.075148-64.034385 70.657485l-604.542504 59.597512c-3.221745.317608-6.470134.242925-9.673878-.222413l-37.62406-5.46482c-40.803003-5.926556-71.0696045-40.906922-71.0696045-82.138089v-773.8749827c0-35.8798227 23.0550825-67.6976255 57.1504465-78.872052l38.867847-12.73856157c5.05992-1.65833973 10.400016-2.28973428 15.707158-1.85716002zm-39.136334 81.22896239c-.080376 1.0583041-.120607 2.1192745-.120607 3.1806264v789.5255015c0 17.926894 11.23147 33.230537 27.041585 39.258107l14.933157 2.167847 208.503748-20.55526 394.356246-40.381666c16.835748-1.723989 29.638362-15.904546 29.638362-32.828332v-700.683761c0-4.782269-1.021078-9.340763-2.863523-13.46003-4.565258-9.8393877-14.151118-16.9310053-25.615259-17.8654239l-256.437826-20.9017868-344.375863-26.1545895c-23.129351-1.7566114-43.303409 15.5694169-45.06002 38.6987673zm-14.390345-22.8923726-.234286.1672569c-11.065517 7.9251602-17.964486 20.8367871-17.964486 34.9639269v773.8749827c0 15.180603 7.919543 28.725626 20.089686 36.394717-4.858634-8.843201-7.621176-19.000179-7.621176-29.802383v-789.5255015c0-1.5667575.059389-3.132952.178038-4.6952103.579183-7.6261199 2.514703-14.8248593 5.552224-21.3777887zm169.267749 97.1163975 445.605412 26.021735c18.505894 1.080677 32.959604 16.403054 32.959604 34.940475v519.972702c0 18.458529-14.334917 33.744209-32.75545 34.927954l-457.051109 29.371154c-2.837991.182376-5.687632.018185-8.485896-.488942l-9.783944-1.773133c-12.164834-2.20462-21.010018-12.796889-21.010018-25.159879l-.000108-300.119803c-.003333-.151328-.003212-.303141.000421-.455338l-.000313-282.099202c0-15.722944 11.288117-29.176634 26.771986-31.90807l15.628716-2.756988c2.679328-.472647 5.404629-.631273 8.120699-.472665zm-30.521521 330.570797.00012 287.241269c0 2.692964 1.926699 5.000222 4.576501 5.480443l4.533289.822351c-2.256871-4.62768-3.523271-9.827073-3.523271-15.322249l-.000639-276.693814zm173.857 1.728-148.271 2.033.000639 274.460814c0 8.284271 6.715728 15 15 15 .320897 0 .641713-.010298.96195-.030877l132.308411-8.502937zm20-302.307v583.982l172.131-11.062.736-563.063zm192.487 300.672-.354 270.963 89.058487-5.722762c7.894514-.507319 14.03805-7.058325 14.03805-14.969123l-.000537-249.892115zm-360.73304-295.239176c-.016211.284327-.024321.569058-.024321.853847l-.000639 278.052329 148.271-2.034v-283.445l-132.416514-7.549007c-8.270838-.471567-15.357959 5.850992-15.829526 14.121831zm-17.639271-11.871208-.078545.030442c-4.682336 1.824066-7.893024 6.366244-7.893024 11.553868l-.00012 274.698074 5.586 1.529.000639-275.086329c0-.664507.018924-1.328881.05675-1.992311.215539-3.780348 1.023394-7.38626 2.3283-10.732744zm378.751311 17.435384-.353 269.674 102.716.379.000537-250.047058c0-7.952576-6.206471-14.522992-14.146152-14.975678zm-96.489811 52.589907v21h-18v-21z"/></svg>