<svg height="960" viewBox="0 0 960 960" width="960" xmlns="http://www.w3.org/2000/svg"><path d="m410.461911 280.966563c34.976521 2.240259 62.617296 4.871486 94.55914 10.036492 48.40956 7.827841 89.232821 19.360116 120.586012 36.432743 26.078991 14.200689 47.053639 26.928661 70.134818 41.958956l-.016351-.010622.058969.038987c.516708.339651 4.14271 2.715647 8.113465 5.310079l.597854.390576c.099958.065293.200045.130666.300218.196091l.601722.392934.690071.450473c3.674773 2.398405 7.215344 4.701601 8.485473 5.504836 1.214768.768225 2.232825 1.396683 3.057918 1.889726 1.14491.15668 2.605785.329827 4.43215.523983l.420488.043855.035413.002839c.579413.050209 7.906079.751385 15.541671 1.515109l1.555256.156012.827948.083447c4.68544.473052 9.235086.946632 12.158189 1.284495 15.209401 1.757957 29.756143 3.972729 44.935755 7.019327 23.810825 4.778912 47.285135 13.443554 70.252295 24.952857 16.179584 8.107913 30.352203 16.687368 43.485135 25.650561 12.95748 8.843448 22.544379 20.697278 29.738106 34.151692 5.784552 10.818837 9.873237 21.686025 9.873237 31.340995 0 1.243573-.030766 1.840167-.098631 2.847214l-.03773.523879c-.006743.088436-.013761.178314-.021124.270956-.029539.371666-.066745.812535-.114418 1.360683-.074928.861549-.175194 1.98289-.332051 3.719357-.041678.461379-.35244 3.894364-.452519 5.003219-.192908 2.137377-.356944 3.967788-.513278 5.731894-.020867.235559-.020867.235559-.04099.463033l-.083918.951276c-.230921 2.624098-.430961 4.952912-.59855 6.97739.402477.833978.782157 1.664071 1.155122 2.529472 2.576367 5.978008 4.183888 11.728045 4.183888 19.254243 0 4.5477-.506369 7.801614-1.565945 13.010238l-.140106.682519c-.377183 1.820836-.790613 3.68416-1.425148 6.459198.369685 1.187827.696266 2.418507.976206 3.697694 3.081414 14.080527-1.060444 27.942881-10.152278 38.218682-13.784211 15.579236-46.647119 27.456227-90.162085 33.678168-40.092235 5.732545-113.810218 11.9453-164.807978 14.339313-11.736141.550935-21.935329 1.024167-30.552259 1.417379-13.838994 15.761967-31.881301 26.812004-52.60111 31.216136-2.495343.530401-5.005098.958382-7.525941 1.275267-1.592115.332196-3.218288.534329-4.861309.635845l-34.628697 2.139586c-2.0529.126841-4.095498.094583-6.10891-.107099-33.917282-.805508-65.037625-19.63237-85.711389-48.929567-138.481396-13.142549-216.076169-20.515426-235.251729-22.353218-16.594261-1.590399-32.406122-1.878116-47.426411-.849638-8.151969 6.441904-17.495285 11.137797-27.753925 13.665492-3.688745.908894-7.426859 1.516961-11.189759 1.805182-.535983.078745-1.082205.125732-1.643986.116007-.271109.030931-.543401.045039-.815787.057566l-.001102-.023967-1.586659.065261.000322.013772c-.166557.003898-.333107.007204-.499601.006764-.075567.011265-.154249.010538-.232985.009583l-.25051-.003036c-1.173007.013907-2.34546-.004307-3.516517-.054115l-28.180889-.441121c-3.152742-.04935-6.218017-.463188-9.1389394-1.241868-16.0997628-3.038367-30.4194787-11.89694-41.8805633-24.63673-6.6366153-7.377059-12.2638407-16.008249-16.7424444-25.540279-14.8239313-9.170093-23.6656279-23.545455-27.4642346-42.845393-1.57356888-7.99498-4.92053483-24.999703-10.04087495-51.014053-1.90645931-9.685938-.16386302-19.734749 4.892547-28.213234.53358538-.894705.74655676-1.852202.58370211-4.024918-1.09581804-14.619791-1.45723544-25.971465-.56705094-37.658564.73564715-9.658203 2.30479454-18.171608 5.43693738-26.153324 2.5290862-6.444931 6.0160558-12.367783 11.023989-17.64643 7.1331001-7.518694 16.5436082-12.68485 27.3564872-14.229427 4.9974015-.713859 12.5317628-4.086755 19.2866136-9.089549.3714267-.275087 1.6104201-1.307131 4.6080622-3.872557 3.1620145-2.706099 5.2828858-4.510241 7.3157643-6.203917l.6081769-.505581c1.0124058-.839749 2.026642-1.67167 3.1618527-2.594698 11.3536988-9.231575 22.9294762-17.568609 36.0464412-25.530106 23.583936-14.314548 49.51723-25.702819 78.398402-33.396819 34.129768-9.092237 74.890823-13.945654 119.974251-15.526567 32.380668-1.135472 64.727352-.474066 91.286615 1.227064zm127.485058 219.089551-.372383.022479c-.793324.243922-1.630182.392319-2.49784.431263-1.252591.05622-2.48469.143799-3.696521.262387-.707743.121699-1.416004.257538-2.123896.408005-36.194472 7.693372-57.71673 50.716337-48.071307 96.094481 1.802863 8.481806 4.567018 16.445548 8.106477 23.738326.067999.140108.136399.280201.205084.420044l-.205084-.420044c.216813.446726.436535.890934.659124 1.33259l-.45404-.912546c.203793.414922.410102.827647.618892 1.238147l-.164852-.325601c.206934.410594.416345.818983.6282 1.225136l-.463348-.899535c.188217.37005.37845.738292.570674 1.104704l-.107326-.205169c.396223.759614.800992 1.511411 1.214082 2.255207.042902.077248.086224.155002.129637.232668l-.129637-.232668c.194055.349409.389947.697052.587651 1.042911l-.458014-.810243c.203455.363982.408906.726035.616326 1.086137l-.158312-.275894c.238045.416431.478719.830274.721981 1.241496l-.563669-.965602c.222723.386668.447717.771087.674948 1.153229l-.111279-.187627c.196879.332816.395454.663915.595701.99328l-.484422-.805653c.218596.367619.439263.733131.661971 1.096513l-.177549-.29086c.192008.31581.385554.630026.580619.942632l-.40307-.651772c.197472.322204.396549.642732.597211.961569l-.194141-.309797c.270817.434003.544563.864903.821187 1.292656l-.627046-.982859c.249419.396307.501286.79.755563 1.181046l-.128517-.198187c.177774.2749.356738.548501.536876.820791l-.408359-.622604c.234176.360133.470395.718022.708627 1.073641l-.300268-.451037c.491856.74347.992472 1.47717 1.501574 2.200877.083056.118065.16606.235474.249287.352618l-.249287-.352618c.234192.332912.47018.66371.707937.992371l-.45865-.639753c.197725.278301.396711.555106.596939.8304l-.138289-.190647c.275369.380653.55311.758439.833183 1.133324l-.694894-.942677c.259154.356311.520391.710092.783678 1.061316l-.088784-.118639c.21397.286405.4293.571117.645973.854121l-.557189-.735482c.245164.327049.492105.65188.740796.974471l-.183607-.238989c.266261.347773.53455.692966.80483 1.035551l-.621223-.796562c.238321.309141.478249.616225.719758.92123l-.098535-.124668c.26011.329694.522065.656972.785835.98181l-.6873-.857142c.250799.316737.503303.631234.757486.943467l-.070186-.086325c.238573.293808.47863.585619.72015.875415l-.649964-.78909c.274517.337213.550993.671786.829391 1.003691l-.179427-.214601c.273763.328485.549405.654381.826892.977661l-.647465-.76306c.238485.28432.478381.566682.719666.847069l-.072201-.084009c.262885.306268.527426.610188.793596.911737.062137.070396.124312.140605.186574.210685l-.186574-.210685c.227768.258043.456728.514349.686863.768905l-.500289-.55822c.271926.306067.545535.609668.820797.910778l-.320508-.352558c.281354.311211.564464.619804.849297.925755l-.528789-.573197c.230755.252423.462671.503095.695732.752003.241421.257837.484093.513804.727974.767861.051665.053821.103362.107533.155114.16116l-.155114-.16116c.268606.279814.538677.55731.810189.832469l-.655075-.671309c.27508.285048.551687.567672.829792.847848l-.174717-.176539c.298649.30266.599041.60249.90114.899463l-.726423-.722924c.311092.313411.624059.623759.938862.931013l-.212439-.208089c.261917.257473.525118.512798.78958.765956l-.577141-.557867c.281876.275116.565223.547752.850015.817884l-.272874-.260017c.594425.569017 1.195221 1.127089 1.802132 1.674006.076401.068848.1526.137251.228894.205478l-.228894-.205478c.271317.244496.543856.486763.817595.726781l-.588701-.521303c.259226.231818.519557.461606.780972.689348l-.192271-.168045c.606989.532219 1.219875 1.053383 1.838409 1.563288.058749.048431.11738.096622.17606.144711l-.17606-.144711c.304383.250926.610133.499125.917221.744573l-.741161-.599862c.280333.229734.561816.457159.844427.682257l-.103266-.082395c.589951.471534 1.184841.932915 1.784458 1.38397.076282.057381.152214.114277.228222.171008l-.228222-.171008c.643497.484063 1.292439.956233 1.946566 1.416296.030567.021498.060861.042771.091166.064017l-.091166-.064017c.275764.193952.552449.385751.830037.575384l-.738871-.511367c.318755.223476.638736.444079.959914.661784l-.221043-.150417c.656965.448801 1.318981.885461 1.985792 1.309767.054218.0345.108561.068977.162936.103373l-.162936-.103373c.290948.185136.58281.367921.875562.548336l-.712626-.444963c.320106.202488.641311.402131.963583.598907l-.250957-.153944c.35881.221124.718958.438688 1.080405.65266l-.829448-.498716c.319418.195032.639885.387247.961375.576622l-.131927-.077906c.293194.173567.587243.34477.882125.513592l-.750198-.435686c.345766.203675.692715.404065 1.040811.601141l-.290613-.165455c.680701.389706 1.365844.766724 2.05517 1.130841.06679.03528.133344.070294.199937.105188l-.199937-.105188c.303853.160502.608518.318497.913975.473967l-.714038-.368779c.308866.161842.618565.321097.929073.477744l-.215035-.108965c.669583.340802 1.342966.669471 2.019912.985815.104031.048614.207995.096868.312042.14483l-.312042-.14483c.307659.143772.616054.284998.925163.42366l-.613121-.27883c.306638.141352.613999.280176.922059.416456l-.308938-.137626c.698404.313294 1.400455.6135 2.105898.900408.098438.040036.197177.079907.295981.119517l-.295981-.119517c.359854.146355.72059.28925 1.082176.428657l-.786195-.30914c.290586.116495.581739.230734.873444.342704l-.087249-.033564c.648124.24988 1.298977.488554 1.952365.715864.109609.038132.218971.075835.328403.113219l-.328403-.113219c.339027.117945.678738.232831 1.019103.344635l-.6907-.231416c.311634.10646.623835.210336.936582.31161l-.245882-.080194c.363353.119354.727453.235197 1.092267.347499l-.846385-.267305c.409292.132537.819521.260617 1.230639.384203l-.384254-.116898c.344395.106017.689426.208879 1.035065.308564l-.650811-.191666c.29521.088742.590879.175167.886989.25926l-.236178-.067594c.705884.203583 1.414306.393914 2.12503.570799.103021.02564.206031.050983.309089.076043l-.309089-.076043c.327736.081567.655962.160275.984653.236105l-.675564-.160062c.316275.076907.632998.151151.950148.222714l-.274584-.062652c.393282.090731.787231.177341 1.181809.259798l-.907225-.197146c.400547.090382.801776.176489 1.203645.258285l-.29642-.061139c.331505.069277.663453.135622.995821.199017l-.699401-.137878c.327259.066611.654943.130364.983028.19124l-.283627-.053362c.350431.066839.701329.130399 1.052665.190656l-.769038-.137294c.324382.060189.649156.117566.974301.172113l-.205263-.034819c.360961.061907.722384.120328 1.084241.175238l-.878978-.140419c.425911.071452.852459.138049 1.279594.199749l-.400616-.05933c.346898.05264.694194.102053 1.041862.148218l-.641246-.088888c.30147.043548.603232.084657.90527.123313l-.264024-.034425c.747522.09926 1.496764.183503 2.247464.252515.066051.006072.132353.012048.198667.017904l-.198667-.017904c.307874.028303.615993.054043.92434.077208l-.725673-.059304c.34861.030789.69753.058291 1.046732.082485l-.321059-.023181c.416949.031322.834313.057934 1.252048.079797l-.930989-.056616c.380177.02634.76069.04876 1.141504.06723l-.210515-.010614c.325639.017043.651503.031201.977572.042456l-.767057-.031842c.354403.017189.709067.030959 1.063965.041286l-.296908-.009444c.340261.011744.680745.020328 1.021427.025732l-.724519-.016288c.336264.009784.672738.016479 1.009398.020064l-.284879-.003776c4.034258.063984 8.096322-.318046 12.146289-1.178893 36.194472-7.693373 57.71673-50.716338 48.071307-96.094482-8.873788-41.747893-41.036403-70.944858-74.309831-69.358449zm83.517978 144.004073-.332217.604344c-2.16265 3.863635-4.568535 7.534661-7.20426 10.981024 4.513238-2.969665 8.627312-6.595994 12.285832-10.766529l-3.246065-.450334c-.522718-.0726-1.025328-.197436-1.50329-.368505zm-23.391287-71.630905c7.336203 34.514123-9.15001 67.885863-37.942445 74.005884s-57.42685-17.661033-64.763053-52.175156 9.15001-67.885863 37.942445-74.005884 57.42685 17.661034 64.763053 52.175156zm-61.644378-37.502942c-19.827005 4.21436-32.142919 29.144493-26.388906 56.214995 5.754013 27.070501 27.145159 44.835977 46.972164 40.621617s32.142919-29.144493 26.388906-56.214994c-5.754013-27.070502-27.145158-44.835978-46.972164-40.621618zm-326.931284-201.008331c-68.165883 18.159524-105.201584 57.132437-116.6290062 65.595842-5.0797534 3.762179-10.59098 7.098649-16.2353718 9.800041 10.4986187-.10343 20.7983425.893953 30.891468 2.994686 4.055231.844035 6.658419 4.815674 5.814383 8.870905-.844035 4.05523-4.815674 6.658418-8.870904 5.814383-12.0971111-2.517832-24.5536016-3.268546-37.3881035-2.244497-1.8809716 1.929916-5.1031032 5.598993-8.3448987 9.4336l-.6700851.794644c-3.1243352 3.714533-6.1822202 7.482143-7.9870824 9.888625-2.1948732 2.926498-3.5900399 4.15063-4.5911781 4.370209.0517315 7.575818.5478158 14.871834.9262582 19.920801.7655402 10.213409-1.2735827 19.381093-6.1173685 27.503055 2.5924187 13.171017 4.730256 24.032533 6.4135119 32.584549 3.1925117-30.700415 18.8357281-56.539404 43.7730315-63.317516 18.0949967-4.918332 36.1808327 1.685463 49.9906187 16.203034 12.00021 12.615251 20.397927 30.742413 23.784961 51.118923 3.250858 19.557268 1.573518 39.053227-4.335382 55.353241l32.638767 4.531745c.845075.117372 1.637594.371274 2.358374.736338 12.409873-.186608 25.180332.349235 38.310121 1.607598 18.76545 1.798486 93.517124 8.901441 224.260633 21.310095-3.036904-11.260955-4.299058-25.071199-3.706867-39.429941.815904-19.783074 6.414101-41.386821 16.832427-58.646668 12.960754-21.47184 32.430642-35.063394 58.137467-37.775898 46.793411-7.576286 91.602684 30.389955 103.06598 84.320526 4.834586 22.744939 3.095796 45.308254-3.969499 64.706234l14.62683 2.031394c10.651684-.475155 24.752542-1.124662 42.302572-1.948522 19.952223-.936627 46.015449-2.64043 72.491967-4.780702l3.532152-.287927c31.213467-2.56569 62.648964-5.716443 84.99776-8.911962 42.167539-6.029281 62.258124-16.508406 65.866459-20.586629 2.053018-2.320369.877746-4.139705-.516851-5.912826l-.511435-.643545c-.893174-1.125473-1.727467-2.254557-1.727467-3.504458 0-1.267516.676828-4.517595 1.533459-8.316117-12.966389 3.68341-30.91169 7.223165-53.925577 10.661069-57.634821 8.609713-124.435327 2.248473-200.41572-18.981722-3.989331-1.114686-6.319691-5.252309-5.205005-9.241641 1.114686-3.989331 5.252309-6.319691 9.24164-5.205005 74.079076 20.698935 138.804783 26.862597 194.162918 18.592984 26.047911-3.891137 45.252548-7.883781 57.470827-11.911262.702439-.231543 1.414646-.35358 2.118119-.375438.026035-.278621.039763-.521131.039763-.724632 0-1.89327-1.389959-4.542068-2.817485-7.250675l-.475378-.904131c-1.340334-2.56257-2.580143-5.109539-2.580143-7.054818 0-1.839725.533819-8.427906 1.137537-15.356673l.111567-1.275449.037427-.425803.084669-.9598.069761-.78751.069702-.784165c.67301-7.559463 1.316542-14.448784 1.316542-14.833592 0-.533472-2.77377-9.835612-9.229488-19.197649 1.015494 1.617652 1.656877 2.961164 1.924525 4.030687.480144 1.918655-.5462 4.735381-3.07903 8.450177-9.17775-7.775385-13.766625-12.798181-13.766625-15.068388 0-2.270206-1.818533-7.345463-5.455597-15.225769l7.714607 5.25455 8.867939 7.612501c-2.604764-3.044635-5.638947-5.923104-9.136465-8.310152-15.819653-10.796873-54.778872-35.536818-99.059804-44.424148-43.654892-8.761682-74.415486-8.424885-84.86173-11.672204l1.659246 1.488499-16.359966.123826c-91.795054 4.129331-143.843911 6.193996-156.146571 6.193996-4.244417 0-8.866968-.022938-13.561255-.129856l-1.226023-.029837c-.204541-.005304-.409167-.010776-.613854-.016423l-1.228638-.036003c-14.74747-.458033-29.545207-1.869077-34.993895-6.105703-7.567624-5.884202-32.355605-30.159986-53.983596-47.838492-14.418661-11.785671-34.198034-23.755561-59.338118-35.909668 39.351276-1.634362 67.395859-2.564426 84.133747-2.790191 8.034186-.108368 18.690445-.164719 31.968777-.169054h3.374209c12.150016.00384 26.357747.048501 42.623191.133982-49.025389-10.820484-99.774118-14.262017-123.207313-15.762921-36.497821-2.337699-130.241256-5.12628-198.407138 13.033243zm696.88292 247.566391-2.506174 10.138495c-24.720649 8.426715-46.775532 13.449381-66.16465 15.067998-15.250572 1.273128-36.333647 3.786104-67.450454 5.201998-5.629442.256154-15.358017.256154-29.185725 0 5.759317-5.013141 14.016768-8.886883 24.772354-11.621225 8.066689-2.050756 23.397436-3.232574 39.192706-4.111411l1.897227-.104042c15.18869-.821284 30.554826-1.384205 40.082614-2.189486 13.233039-1.118446 33.020406-5.245888 59.362102-12.382327zm-810.6524664-96.257282c-21.2806951 5.784223-33.9347986 38.130824-28.2637312 72.248155.6772668 4.074459 1.5852643 7.989911 2.69547 11.71637.0045553.01529.0090268.030285.0135016.045277l-.0135016-.045277c.05472.183671.1099313.366882.1656304.549631.0549847.180412.1107414.361324.1669751.541778l-.1669751-.541778c.1230014.403567.2483817.804878.3761042 1.203894l-.2091291-.662116c.1007887.323429.2031102.645383.3069452.965842.1384522.42729.279506.85166.423202 1.273327.0523841.153719.1051795.307253.1583246.460423.1102118.317644.2219276.63373.3351276.948236.068281.18971.1372375.379213.2067317.568134l-.2067317-.568134c.1184402.329065.2385052.656402.3601725.981985l-.1534408-.413851c.107542.292355.2163719.583318.3264735.872872l-.1730327-.459021c.0847696.226845.170317.45284.2566346.677975l-.0836019-.218954c.1180876.310555.2376381.619489.3586316.926782.0482992.122667.0968091.245024.1455475.367119.0614001.153813.1231546.307189.1852692.460146l-.1852692-.460146c.0904128.226493.181612.452082.2735894.676758l-.0883202-.216612c.2329139.573548.47089 1.141196.713795 1.702804.0555771.128496.1113445.256522.1673678.38423.0714026.16277.1434147.325458.2158412.487625l-.2158412-.487625c.1080975.246415.2171475.49165.3271384.735692l-.1112972-.248067c.081191.181791.1629029.362927.2451309.543403l-.1338337-.295336c.1601189.355263.3222318.707999.4863037 1.05817.0666635.142276.1335066.283826.2006693.424952l-.2006693-.424952c.0983279.209857.1973594.418793.2970868.6268l-.0964175-.201848c.1091456.229342.2191353.457565.329959.684657l-.2335415-.482809c.1248725.260454.2508361.51945.377876.776975l-.1443345-.294166c.2766461.566884.5584895 1.126724.8453736 1.679355.0454589.08757.091299.175445.1372664.263136l-.1372664-.263136c.1354996.261016.2721236.520423.4098555.778205l-.2725891-.515069c.1325169.252799.266092.504072.4007103.753803l-.1281212-.238734c.0742193.138911.1487602.277349.2236204.415313l-.0954992-.176579c.1230911.228346.2470543.455402.371878.681156.1117167.202049.2240928.403002.3371496.602905l-.3371496-.602905c.1770874.320278.3559069.637936.5364252.952938l-.1992756-.350033c.4269895.754984.8636874 1.494976 1.3096452 2.219505.0483291.07852.0972367.157615.1462546.236525l-.1462546-.236525c.2803171.455419.5642928.904728.8518158 1.34781.0718951.110795.1443941.221782.2171155.332374.1185911.180346.2375403.359293.3570709.537185l-.3570709-.537185c.1438028.218689.2884752.435833.4340035.651416l-.0769326-.114231c.1364946.203139.2737475.404902.4117472.605277l-.3348146-.491046c.1510087.223702.302939.445724.4557756.66605l-.120961-.175004c.3139414.455842.6317481.9045.9532863 1.345835.0554543.076116.1111827.152236.1670221.228136l-.1670221-.228136c.1545001.212063.3098618.422435.4660702.6311l-.2990481-.402964c.1499508.203821.3007017.406057.4522394.606693l-.1531913-.203729c.167354.223554.33568.445149.5049595.664767l-.3517682-.461038c.1712475.226732.3434998.451422.5167374.674049.272871.350667.5482935.696347.826087 1.036826.0373497.045779.0751967.092017.1130873.138159l-.1130873-.138159c.6656329.815835 1.3448787 1.601805 2.0366968 2.356816.0806817.088054.1620169.176206.2435234.26393.1055813.113636.2114803.226586.3176633.338813l-.3176633-.338813c.1594321.171595.3195199.341552.4802508.509859l-.1625875-.171046c.1481391.156572.2968311.311738.4460661.465488l-.2834786-.294442c.1592934.166802.3192186.331982.4797631.49553l-.1962845-.201088c.19609.202023.3931175.401601.5910598.59871l-.3947753-.397622c.2185808.222668.4383097.442308.6591559.658888.0936722.091861.1873976.18303.2813211.273646l-.2813211-.273646c.1549335.15194.3104168.302373.4664393.451289l-.1851182-.177643c.5581203.538472 1.1232328 1.057472 1.6948452 1.556484.0478803.041798.0955491.083234.1432628.12453l-.1432628-.12453c.1492043.130253.2988515.259145.4489327.386666l-.3056699-.262136c.1745164.151045.3496325.30023.5253345.447541l-.2196646-.185405c.4017533.341361.8066173.672896 1.214424.99443.0599981.047306.1202992.094582.1806641.141639l-.1806641-.141639c.3881632.306046.7789924.60303 1.1723428.890801.0552837.040446.1108668.08089.1664996.12115l-.1664996-.12115c.1921555.140579.3849126.278959.5782545.415122l-.4117549-.293972c.17133.123987.3431327.246228.5153963.366712l-.1036414-.07274c.3901376.27476.7826561.540494 1.1774171.797057.0469399.030508.0942743.061119.1416406.091599l-.1416406-.091599c.1918616.124694.3842528.247223.5771578.367568l-.4355172-.275969c.1776429.114312.3557352.226768.5342645.337355l-.0987473-.061386c.4024473.25107.8071307.492638 1.2139054.724552.0489282.027896.0978254.055617.1467526.083198l-.1467526-.083198c.1484227.084621.2971238.167955.4460963.249998l-.2993437-.1668c.1930459.108825.3865578.215477.5805203.31994l-.2811766-.15314c.2269356.124978.4545011.246956.6826715.365909l-.4014949-.212769c.2029827.109321.406459.216244.610411.320752.1361311.069755.2724942.138443.4090641.20605l-.4090641-.20605c.2089145.10705.4183282.211565.6282222.313524l-.2191581-.107474c.1835493.090863.3674722.179771.5517559.26671l-.3325978-.159236c.1780355.086484.3564165.17113.5351315.253925l-.2025337-.094689c.4268495.201375.8556346.39219 1.2861969.572279.0599055.025055.1195624.049787.179253.074312l-.179253-.074312c.1760429.073632.3523829.145471.5290092.215506l-.3497562-.141194c.1947733.080029.3899049.157862.5853803.233485l-.2356241-.092291c.1864532.073931.3732257.145851.5603037.215747l-.3246796-.123456c.2445866.094623.4897116.185785.7353466.273457.10624.037918.212206.075056.318264.111543l-.318264-.111543c.173697.061997.34765.122248.521847.180743l-.203583-.0692c.205551.070715.41145.138985.617678.204794l-.414095-.135594c.182757.061369.365783.120806.549067.178297l-.134972-.042703c.224825.071742.450043.140559.675631.206427l-.540659-.163724c.247922.077768.496315.151976.745151.222594l-.204492-.05887c.185945.054292.372143.106581.55858.156854l-.354088-.097984c.190488.05406.381234.106016.572227.155856l-.218139-.057872c.189789.051176.379827.100263.5701.147248l-.351961-.089376c.196163.051188.392586.100143.589255.14685l-.237294-.057474c.139217.034376.27856.067628.418025.099748l-.180731-.042274c.24194.057459.484252.111516.726909.162143.121218.025292.242817.049785.364499.073415l-.364499-.073415c.177754.037086.355693.072332.533808.105726l-.169309-.032311c.440077.08546.881246.159627 1.32335.222336.030072.004265.060393.008512.090718.012705l-.090718-.012705c.193373.027428.386926.052665.580644.075696l-.489926-.062991c.208278.028795.41676.055047.625432.078738l-.135506-.015747c3.184485.378601 6.413808.161179 9.630156-.713044 21.280696-5.784224 33.934799-38.130824 28.263732-72.248155-5.671068-34.117331-27.519788-57.085852-48.8004834-51.301628zm57.5203044 117.481821-.297093.492186c-.877451 1.428809-1.797091 2.813392-2.758167 4.150363 2.349582-1.069856 4.580976-2.423136 6.678712-4.029781l-2.374116-.330044c-.430962-.059856-.848255-.155219-1.249336-.282724zm-12.973668-63.971006c4.404503 26.497637-5.570506 52.317622-24.343259 57.420171l-3.653338.714355c-18.1520187 2.172081-34.3603477-16.341585-38.5599236-41.606373-4.4045029-26.497637 5.570506-52.317622 24.3432589-57.420171 19.5908737-5.32492 37.7337137 13.942911 42.2132617 40.892018zm-38.278912-26.417182c-9.8132557 2.667303-16.772581 20.68129-13.4806353 40.485745 3.2169011 19.352984 14.4868043 31.321704 23.4819383 28.876771l1.804735-.676653c8.838392-4.249392 14.762099-21.242414 11.6759-39.809091-3.216901-19.352984-14.486803-31.321705-23.481938-28.876772zm504.719921-33.995061c37.864469.782873 68.046488 3.091031 90.546058 6.924474 22.499571 3.833443 48.356756 12.974357 77.571557 27.422741-57.043464-1.689383-95.080907-3.591546-114.11233-5.706488-19.031422-2.114943-37.033184-11.661852-54.005285-28.640727zm-145.706607-5.583331.148637.003114 23.444879 1.353233c.522428.030154 1.011966.264666 1.36268.652788.73684.815433.672681 2.073397-.143303 2.80974l-10.97609 9.90482c-.757976.683996-1.910953.683838-2.66874-.000367l-12.468789-11.258052c-.447521-.404066-.6876-.989098-.652822-1.590818.063397-1.096869 1.004577-1.934698 2.102185-1.871344zm-175.396904-28.921433.252947.462265 21.233619 2.039719c2.748771.26405 4.763035 2.706422 4.498986 5.455193-.264049 2.74877-2.706422 4.763035-5.455192 4.498986l-23.870293-2.293c-1.649218-.158425-3.112861-1.12352-3.908171-2.576963l-1.524443-2.785948c-1.325553-2.422472-.436324-5.460846 1.986148-6.786399s5.460846-.436325 6.786399 1.986147zm-143.083008-13.938218.115726.247576 19.228677 1.974826c2.746975.28212 4.745134 2.737686 4.463014 5.484661s-2.737687 4.745134-5.484661 4.463014l-22.047499-2.264326c-1.748572-.179582-3.274411-1.264154-4.018754-2.856545l-1.315659-2.814622c-1.169348-2.501616-.089331-5.477521 2.412286-6.64687 2.501616-1.169348 5.477521-.089331 6.64687 2.412286zm215.410605-81.986795c19.166497 10.374181 54.612066 35.944614 71.314819 56.07438 11.135169 13.419844 18.709713 23.090834 22.723632 29.012969-11.240405-.751538-22.037687-1.483039-32.391848-2.194501l-.057445-1.249829c-3.518758-10.646958-6.873691-18.544167-10.0648-23.691625-4.786665-7.721188-12.45849-6.253926-25.913159-5.610792-13.454668.643134-23.075212 3.695697-27.41762 9.620186-2.894938 3.94966-4.683765 8.533327-5.366481 13.751002l1.819398 2.396754c-40.433015-3.024404-70.153278-5.564382-89.160792-7.619935-81.40992-8.804013-113.744308-15.13967-123.35156-20.294025-3.608678-1.936081-7.613146-6.249276-12.013405-12.939585 25.464083-19.100283 55.572828-33.776348 90.326235-44.028195 52.130109-15.377771 120.386529-3.600986 139.553026 6.773196z"/></svg>