<?xml version="1.0" encoding="utf-8"?>
<!-- Generator: Adobe Illustrator 21.0.0, SVG Export Plug-In . SVG Version: 6.00 Build 0)  -->
<svg version="1.1" id="Layer_1" xmlns="http://www.w3.org/2000/svg" xmlns:xlink="http://www.w3.org/1999/xlink" x="0px" y="0px"
	 viewBox="0 0 866.4 978.9" style="enable-background:new 0 0 866.4 978.9;" xml:space="preserve">
<style type="text/css">
	.st0{fill:#010101;}
	.st1{fill:#231F20;}
</style>
<g>
	<path class="st0" d="M91.4,935.9c0,10-3.8,18.5-11.4,25.4c-7.6,6.9-16.6,10.4-27.1,10.4c-8.6,0-16.4-2.2-23.4-6.6
		c-6.9-4.4-11.8-9.5-14.7-15.2l9.9-9c1.6,4.9,4.9,9.1,9.8,12.6c5.3,3.9,11.6,5.8,18.8,5.8c6.8,0,12.7-2.1,17.4-6.4
		c4.8-4.3,7.2-9.5,7.2-15.6c0-6.9-1.8-12.3-5.4-16.1c-2.8-2.9-7.2-5.5-13.3-7.6c-5.5-1.7-11.1-3.4-16.6-5.1
		c-7.6-2.6-13.4-6.4-17.5-11.4c-4.6-5.6-7-12.5-7-20.5c0-10.5,3.6-19,10.7-25.5c7.1-6.5,15.8-9.7,26-9.7c7.1,0,13.7,1.6,19.9,4.9
		c7.2,3.8,11.7,7.5,13.5,11.1l-8.8,9.2c-2.2-2.9-4.2-5-5.9-6.4c-5.5-4.3-11.6-6.5-18.5-6.5c-6.3,0-11.8,1.9-16.4,5.8
		c-4.7,3.9-7,8.8-7,14.8c0,7.4,2.1,13,6.2,16.6c3.8,3.3,10.8,6.2,20.9,8.5c10.1,2.3,18,6.6,23.9,12.8
		C88.5,918.5,91.4,926.4,91.4,935.9z"/>
	<path class="st0" d="M185,888.6l-6.7,8.9c-2.5-2-4.7-3.4-6.6-4.3c-5.8-2.9-11.8-4.4-18-4.4c-1.6,0-2.9,0-3.7,0.1
		c-9.5,0.8-17.2,4.8-23.1,12c-5.5,6.8-8.3,15-8.3,24.7c0,9.5,3.1,17.7,9.4,24.6c6.6,7.2,14.8,10.8,24.6,10.8
		c5.6,0,10.6-0.9,14.9-2.6c4.3-1.8,7.8-4,10.5-6.7l6.4,8.6c-3,2.6-5.6,4.6-7.8,5.9c-6.8,4-14.1,6-21.8,6c-13.5,0-24.9-4.5-34.1-13.6
		c-9.2-9.1-13.8-20.2-13.8-33.4c0-13,4.3-24.1,12.9-33.3c8.6-9.3,19.4-13.9,32.5-13.9c7.8,0,15.7,1.8,23.5,5.4
		C178.2,884.3,181.3,886.1,185,888.6z"/>
	<path class="st0" d="M255.5,877.9l-5.4,12.5c-0.3-0.1-0.6-0.1-0.9-0.1c-1.5-0.3-2.8-0.5-3.9-0.5c-1.6,0-3.3,0.2-4.9,0.6
		c-1.6,0.4-3.4,1.1-5.4,2.1c-4.2,2.3-7.9,6.2-11.1,11.7c-3.6,6.3-5.4,12.9-5.4,20v43.8l-11.7,2.3v-88.8l10.9-2.6v19.7
		c1.2-3.7,3.5-7.3,6.8-10.8c3.7-3.8,7.9-6.6,12.8-8.4c1.6-0.6,3.9-1,6.8-1.2s5.4-0.4,7.3-0.4C254,877.9,255.3,877.9,255.5,877.9z"/>
	<path class="st0" d="M349.1,899L280.6,941c0.9,1.7,1.8,3.4,2.7,5.1c2.6,3.9,5.9,7.1,9.8,9.5c5.5,3.4,11.8,5.1,19.1,5.1
		c7.3,0,15.4-2.8,24.2-8.3c2.9-1.8,6.6-4.6,11-8.3V959c-3.9,2.9-7.2,5.1-9.9,6.5c-8.3,4.4-16.5,6.6-24.5,6.6
		c-13.3,0-24.5-4.4-33.8-13.2c-9.5-9.1-14.3-20.6-14.3-34.4c0-11.8,3.7-22.2,11-31.1c7.7-9.3,17.7-14.6,29.8-15.8
		c1.1-0.2,2.3-0.2,3.5-0.2c1.2,0,2.1,0,2.8,0c8.2,0,15.4,1.8,21.8,5.5c4.6,2.6,8.5,6.1,11.7,10.5C346.7,895.2,347.9,897.1,349.1,899
		z M332.9,896.1c-2.4-1.8-4.4-3.2-6.1-4.1c-5.3-2.8-10.6-4.2-15.8-4.2c-3.2,0-6.3,0.5-9.4,1.4c-3.1,0.9-6.3,2.5-9.7,4.7
		c-6,4-10.2,9.4-12.7,16.1c-1.7,4.6-2.6,9.6-2.6,15.1c0,1.6,0,2.8,0.1,3.5c0,0.7,0.2,1.3,0.3,1.9L332.9,896.1z"/>
	<path class="st0" d="M448,899L379.5,941c0.9,1.7,1.8,3.4,2.7,5.1c2.6,3.9,5.9,7.1,9.8,9.5c5.5,3.4,11.8,5.1,19.1,5.1
		c7.3,0,15.4-2.8,24.2-8.3c2.9-1.8,6.6-4.6,11-8.3V959c-3.9,2.9-7.2,5.1-9.9,6.5c-8.3,4.4-16.5,6.6-24.5,6.6
		c-13.3,0-24.5-4.4-33.8-13.2c-9.5-9.1-14.3-20.6-14.3-34.4c0-11.8,3.7-22.2,11-31.1c7.7-9.3,17.7-14.6,29.8-15.8
		c1.1-0.2,2.3-0.2,3.5-0.2c1.2,0,2.1,0,2.8,0c8.2,0,15.4,1.8,21.8,5.5c4.6,2.6,8.5,6.1,11.7,10.5C445.6,895.2,446.8,897.1,448,899z
		 M431.9,896.1c-2.4-1.8-4.4-3.2-6.1-4.1c-5.3-2.8-10.6-4.2-15.8-4.2c-3.2,0-6.3,0.5-9.4,1.4c-3.1,0.9-6.3,2.5-9.7,4.7
		c-6,4-10.2,9.4-12.7,16.1c-1.7,4.6-2.6,9.6-2.6,15.1c0,1.6,0,2.8,0.1,3.5c0,0.7,0.2,1.3,0.3,1.9L431.9,896.1z"/>
	<path class="st0" d="M534.3,968.3l-11.7,2.1v-61.7c0-5.1-1.8-9.6-5.3-13.7c-4.2-5-10-7.5-17.4-7.5c-9.4,0-16.3,4.1-20.8,12.4
		c-2.9,5.4-4.4,11-4.4,16.8v51.7l-11.7,2.1v-88.8l11.1-2v12.7c3-4.5,6.5-8,10.5-10.5c5.1-3.2,10.6-4.8,16.8-4.8
		c8.7,0,15.9,2.2,21.6,6.7c7.5,5.9,11.3,15.1,11.3,27.6V968.3z"/>
	<path class="st0" d="M620.2,956.3l-3.7,11.9h-61.4V844.5l12.8-2.2v114H620.2z"/>
	<path class="st0" d="M651.5,852l-8.2,10.5l-9.7-10.3l8.9-10.3L651.5,852z M648.8,968.3l-11.7,3.1v-89.9l11.7-2.2V968.3z"/>
	<path class="st0" d="M740.1,968.3l-11.7,2.1v-61.7c0-5.1-1.8-9.6-5.3-13.7c-4.2-5-10-7.5-17.4-7.5c-9.4,0-16.3,4.1-20.8,12.4
		c-2.9,5.4-4.4,11-4.4,16.8v51.7l-11.7,2.1v-88.8l11.1-2v12.7c3-4.5,6.5-8,10.5-10.5c5.1-3.2,10.6-4.8,16.8-4.8
		c8.7,0,15.9,2.2,21.6,6.7c7.5,5.9,11.3,15.1,11.3,27.6V968.3z"/>
	<path class="st0" d="M839.3,899L770.8,941c0.9,1.7,1.8,3.4,2.7,5.1c2.6,3.9,5.9,7.1,9.8,9.5c5.5,3.4,11.8,5.1,19.1,5.1
		c7.3,0,15.4-2.8,24.2-8.3c2.9-1.8,6.6-4.6,11-8.3V959c-3.9,2.9-7.2,5.1-9.9,6.5c-8.3,4.4-16.5,6.6-24.5,6.6
		c-13.3,0-24.5-4.4-33.8-13.2c-9.5-9.1-14.3-20.6-14.3-34.4c0-11.8,3.7-22.2,11-31.1c7.7-9.3,17.7-14.6,29.8-15.8
		c1.1-0.2,2.3-0.2,3.5-0.2c1.2,0,2.1,0,2.8,0c8.2,0,15.4,1.8,21.8,5.5c4.6,2.6,8.5,6.1,11.7,10.5C836.8,895.2,838,897.1,839.3,899z
		 M823.1,896.1c-2.4-1.8-4.4-3.2-6.1-4.1c-5.3-2.8-10.6-4.2-15.8-4.2c-3.2,0-6.3,0.5-9.4,1.4c-3.1,0.9-6.3,2.5-9.7,4.7
		c-6,4-10.2,9.4-12.7,16.1c-1.7,4.6-2.6,9.6-2.6,15.1c0,1.6,0,2.8,0.1,3.5c0,0.7,0.2,1.3,0.3,1.9L823.1,896.1z"/>
</g>
<g>
	<path class="st0" d="M851.6,838c0,5.7-2,10.6-6.1,14.7c-4.1,4.1-9,6.2-14.7,6.2c-5.7,0-10.7-2.1-14.7-6.2c-4.1-4.1-6.1-9-6.1-14.8
		c0-5.7,2-10.7,6.1-14.7c4.1-4.1,9-6.1,14.8-6.1c5.7,0,10.6,2,14.6,6.1C849.5,827.3,851.6,832.3,851.6,838z M847.8,838
		c0-4.8-1.7-8.9-5-12.4c-3.3-3.4-7.3-5.2-12-5.2c-4.8,0-8.8,1.7-12.2,5.2s-5,7.6-5,12.4c0,4.9,1.7,9,5,12.4
		c3.4,3.4,7.4,5.1,12.1,5.1c4.7,0,8.7-1.7,12-5.1C846.1,847,847.8,842.8,847.8,838z M839.7,848.2h-4.6l-3.3-8.2h-4.9v8.2h-4.3v-20.3
		h9.4c2.6,0,4.5,0.6,5.8,1.7c1.3,1.1,1.9,2.6,1.9,4.3c0,2.5-1.3,4.3-3.8,5.4L839.7,848.2z M826.9,836.7h4.5c2.5,0,3.8-1,3.8-2.9
		c0-1.9-1.2-2.8-3.5-2.8h-4.8V836.7z"/>
</g>
<g>
	<rect x="6.1" y="777.5" class="st1" width="854.3" height="16.1"/>
</g>
<g>
	<rect x="6.1" y="745.4" class="st1" width="854.3" height="16.1"/>
</g>
<g>
	<rect x="6.1" y="713.3" class="st1" width="854.3" height="16.1"/>
</g>
<g>
	<rect x="6.1" y="681.2" class="st1" width="854.3" height="16.1"/>
</g>
<g>
	<rect x="6.1" y="649.1" class="st1" width="854.3" height="16.1"/>
</g>
<g>
	<rect x="6.1" y="617" class="st1" width="854.3" height="16.1"/>
</g>
<g>
	<rect x="6.1" y="584.9" class="st1" width="854.3" height="16.1"/>
</g>
<g>
	<rect x="6.1" y="552.8" class="st1" width="854.3" height="16.1"/>
</g>
<g>
	<rect x="6.1" y="520.6" class="st1" width="854.3" height="16.1"/>
</g>
<g>
	<rect x="6.1" y="488.5" class="st1" width="854.3" height="16.1"/>
</g>
<g>
	<rect x="6.1" y="456.4" class="st1" width="854.3" height="16.1"/>
</g>
<g>
	<rect x="6.1" y="424.3" class="st1" width="854.3" height="16.1"/>
</g>
<g>
	<rect x="6.1" y="392.2" class="st1" width="854.3" height="16.1"/>
</g>
<g>
	<rect x="6.1" y="360.1" class="st1" width="854.3" height="16.1"/>
</g>
<g>
	<rect x="6.1" y="328" class="st1" width="854.3" height="16.1"/>
</g>
<g>
	<rect x="6.1" y="295.9" class="st1" width="854.3" height="16.1"/>
</g>
<g>
	<rect x="6.1" y="263.7" class="st1" width="854.3" height="16.1"/>
</g>
<g>
	<rect x="6.1" y="231.6" class="st1" width="854.3" height="16.1"/>
</g>
<g>
	<rect x="6.1" y="199.5" class="st1" width="854.3" height="16.1"/>
</g>
<g>
	<rect x="6.1" y="167.4" class="st1" width="854.3" height="16.1"/>
</g>
<g>
	<rect x="6.1" y="135.3" class="st1" width="854.3" height="16.1"/>
</g>
<g>
	<rect x="6.1" y="103.2" class="st1" width="854.3" height="16.1"/>
</g>
<g>
	<rect x="6.1" y="71.1" class="st1" width="854.3" height="16.1"/>
</g>
<g>
	<rect x="6.1" y="39" class="st1" width="854.3" height="16.1"/>
</g>
<g>
	<rect x="6.1" y="6.8" class="st1" width="854.3" height="16.1"/>
</g>
</svg>
