<?xml version="1.0" encoding="utf-8"?>
<!-- Generator: Adobe Illustrator 21.0.0, SVG Export Plug-In . SVG Version: 6.00 Build 0)  -->
<svg version="1.1" id="Layer_1" xmlns="http://www.w3.org/2000/svg" xmlns:xlink="http://www.w3.org/1999/xlink" x="0px" y="0px"
	 viewBox="0 0 144.1 449.8" style="enable-background:new 0 0 144.1 449.8;" xml:space="preserve">
<style type="text/css">
	.st0{fill:#010101;}
</style>
<g>
	<path class="st0" d="M127.9,449.1H16.1c-8.5,0-15.4-6.9-15.4-15.4V16.1c0-8.5,6.9-15.4,15.4-15.4h111.8c8.5,0,15.4,6.9,15.4,15.4
		v417.7C143.3,442.2,136.4,449.1,127.9,449.1z M16.1,4.7C9.9,4.7,4.8,9.8,4.8,16.1v417.7c0,6.3,5.1,11.4,11.4,11.4h111.8
		c6.3,0,11.4-5.1,11.4-11.4V16.1c0-6.3-5.1-11.4-11.4-11.4H16.1z"/>
</g>
<g>
	<path class="st0" d="M126.1,441.3H18c-5.8,0-10.5-4.7-10.5-10.5V19c0-5.8,4.7-10.5,10.5-10.5h108c5.8,0,10.5,4.7,10.5,10.5v411.9
		C136.5,436.6,131.8,441.3,126.1,441.3z M18,10.5c-4.7,0-8.5,3.8-8.5,8.5v411.9c0,4.7,3.8,8.5,8.5,8.5h108c4.7,0,8.5-3.8,8.5-8.5V19
		c0-4.7-3.8-8.5-8.5-8.5H18z"/>
</g>
<g>
	<g>
		<g>
			<path class="st0" d="M31.4,425.6c0,1.2-0.5,2.3-1.4,3.1c-0.9,0.9-2.1,1.3-3.4,1.3c-1.1,0-2-0.3-2.9-0.8c-0.9-0.5-1.5-1.2-1.8-1.9
				l1.2-1.1c0.2,0.6,0.6,1.1,1.2,1.6c0.7,0.5,1.4,0.7,2.3,0.7c0.8,0,1.6-0.3,2.2-0.8c0.6-0.5,0.9-1.2,0.9-1.9c0-0.9-0.2-1.5-0.7-2
				c-0.3-0.4-0.9-0.7-1.6-0.9c-0.7-0.2-1.4-0.4-2.1-0.6c-0.9-0.3-1.7-0.8-2.2-1.4c-0.6-0.7-0.9-1.5-0.9-2.5c0-1.3,0.4-2.3,1.3-3.1
				c0.9-0.8,2-1.2,3.2-1.2c0.9,0,1.7,0.2,2.5,0.6c0.9,0.5,1.4,0.9,1.7,1.4L30,417c-0.3-0.4-0.5-0.6-0.7-0.8
				c-0.7-0.5-1.4-0.8-2.3-0.8c-0.8,0-1.5,0.2-2,0.7c-0.6,0.5-0.9,1.1-0.9,1.8c0,0.9,0.3,1.6,0.8,2.1c0.5,0.4,1.3,0.8,2.6,1
				c1.2,0.3,2.2,0.8,3,1.6C31.1,423.4,31.4,424.4,31.4,425.6z"/>
		</g>
		<g>
			<path class="st0" d="M43,419.7l-0.8,1.1c-0.3-0.2-0.6-0.4-0.8-0.5c-0.7-0.4-1.5-0.5-2.2-0.5c-0.2,0-0.4,0-0.5,0
				c-1.2,0.1-2.1,0.6-2.9,1.5c-0.7,0.8-1,1.9-1,3c0,1.2,0.4,2.2,1.2,3c0.8,0.9,1.8,1.3,3,1.3c0.7,0,1.3-0.1,1.8-0.3
				c0.5-0.2,1-0.5,1.3-0.8l0.8,1.1c-0.4,0.3-0.7,0.6-1,0.7c-0.8,0.5-1.7,0.7-2.7,0.7c-1.7,0-3.1-0.6-4.2-1.7
				c-1.1-1.1-1.7-2.5-1.7-4.1c0-1.6,0.5-3,1.6-4.1c1.1-1.1,2.4-1.7,4-1.7c1,0,1.9,0.2,2.9,0.7C42.2,419.2,42.5,419.4,43,419.7z"/>
		</g>
		<g>
			<path class="st0" d="M51.7,418.4L51,420c0,0-0.1,0-0.1,0c-0.2,0-0.3-0.1-0.5-0.1c-0.2,0-0.4,0-0.6,0.1c-0.2,0-0.4,0.1-0.7,0.3
				c-0.5,0.3-1,0.8-1.4,1.4c-0.4,0.8-0.7,1.6-0.7,2.5v5.4l-1.4,0.3v-11l1.3-0.3v2.4c0.2-0.5,0.4-0.9,0.8-1.3c0.5-0.5,1-0.8,1.6-1
				c0.2-0.1,0.5-0.1,0.8-0.2c0.4,0,0.7,0,0.9,0C51.5,418.4,51.7,418.4,51.7,418.4z"/>
		</g>
		<g>
			<path class="st0" d="M63.3,421l-8.5,5.2c0.1,0.2,0.2,0.4,0.3,0.6c0.3,0.5,0.7,0.9,1.2,1.2c0.7,0.4,1.5,0.6,2.4,0.6
				c0.9,0,1.9-0.3,3-1c0.4-0.2,0.8-0.6,1.4-1v1.8c-0.5,0.4-0.9,0.6-1.2,0.8c-1,0.5-2,0.8-3,0.8c-1.6,0-3-0.5-4.2-1.6
				c-1.2-1.1-1.8-2.5-1.8-4.2c0-1.5,0.5-2.7,1.4-3.8c1-1.1,2.2-1.8,3.7-2c0.1,0,0.3,0,0.4,0c0.1,0,0.3,0,0.3,0c1,0,1.9,0.2,2.7,0.7
				c0.6,0.3,1,0.8,1.4,1.3C63,420.5,63.1,420.8,63.3,421z M61.3,420.7c-0.3-0.2-0.5-0.4-0.8-0.5c-0.7-0.3-1.3-0.5-1.9-0.5
				c-0.4,0-0.8,0.1-1.2,0.2c-0.4,0.1-0.8,0.3-1.2,0.6c-0.7,0.5-1.3,1.2-1.6,2c-0.2,0.6-0.3,1.2-0.3,1.9c0,0.2,0,0.3,0,0.4
				c0,0.1,0,0.2,0,0.2L61.3,420.7z"/>
		</g>
		<g>
			<path class="st0" d="M75.5,421l-8.5,5.2c0.1,0.2,0.2,0.4,0.3,0.6c0.3,0.5,0.7,0.9,1.2,1.2c0.7,0.4,1.5,0.6,2.4,0.6
				c0.9,0,1.9-0.3,3-1c0.4-0.2,0.8-0.6,1.4-1v1.8c-0.5,0.4-0.9,0.6-1.2,0.8c-1,0.5-2,0.8-3,0.8c-1.6,0-3-0.5-4.2-1.6
				c-1.2-1.1-1.8-2.5-1.8-4.2c0-1.5,0.5-2.7,1.4-3.8c1-1.1,2.2-1.8,3.7-2c0.1,0,0.3,0,0.4,0c0.1,0,0.3,0,0.3,0c1,0,1.9,0.2,2.7,0.7
				c0.6,0.3,1,0.8,1.4,1.3C75.2,420.5,75.3,420.8,75.5,421z M73.5,420.7c-0.3-0.2-0.5-0.4-0.8-0.5c-0.7-0.3-1.3-0.5-1.9-0.5
				c-0.4,0-0.8,0.1-1.2,0.2c-0.4,0.1-0.8,0.3-1.2,0.6c-0.7,0.5-1.3,1.2-1.6,2c-0.2,0.6-0.3,1.2-0.3,1.9c0,0.2,0,0.3,0,0.4
				c0,0.1,0,0.2,0,0.2L73.5,420.7z"/>
		</g>
		<g>
			<path class="st0" d="M86.1,429.6l-1.4,0.3v-7.6c0-0.6-0.2-1.2-0.6-1.7c-0.5-0.6-1.2-0.9-2.1-0.9c-1.2,0-2,0.5-2.6,1.5
				c-0.4,0.7-0.5,1.4-0.5,2.1v6.4l-1.4,0.3v-11l1.4-0.2v1.6c0.4-0.6,0.8-1,1.3-1.3c0.6-0.4,1.3-0.6,2.1-0.6c1.1,0,2,0.3,2.7,0.8
				c0.9,0.7,1.4,1.9,1.4,3.4V429.6z"/>
		</g>
		<g>
			<path class="st0" d="M96.7,428.1l-0.5,1.5h-7.6v-15.3l1.6-0.3v14.1H96.7z"/>
		</g>
		<g>
			<path class="st0" d="M100.6,415.2l-1,1.3l-1.2-1.3l1.1-1.3L100.6,415.2z M100.3,429.6l-1.4,0.4v-11.1l1.4-0.3V429.6z"/>
		</g>
		<g>
			<path class="st0" d="M111.5,429.6l-1.4,0.3v-7.6c0-0.6-0.2-1.2-0.6-1.7c-0.5-0.6-1.2-0.9-2.1-0.9c-1.2,0-2,0.5-2.6,1.5
				c-0.4,0.7-0.5,1.4-0.5,2.1v6.4l-1.4,0.3v-11l1.4-0.2v1.6c0.4-0.6,0.8-1,1.3-1.3c0.6-0.4,1.3-0.6,2.1-0.6c1.1,0,2,0.3,2.7,0.8
				c0.9,0.7,1.4,1.9,1.4,3.4V429.6z"/>
		</g>
		<g>
			<path class="st0" d="M123.8,421l-8.5,5.2c0.1,0.2,0.2,0.4,0.3,0.6c0.3,0.5,0.7,0.9,1.2,1.2c0.7,0.4,1.5,0.6,2.4,0.6
				c0.9,0,1.9-0.3,3-1c0.4-0.2,0.8-0.6,1.4-1v1.8c-0.5,0.4-0.9,0.6-1.2,0.8c-1,0.5-2,0.8-3,0.8c-1.6,0-3-0.5-4.2-1.6
				c-1.2-1.1-1.8-2.5-1.8-4.2c0-1.5,0.5-2.7,1.4-3.8c1-1.1,2.2-1.8,3.7-2c0.1,0,0.3,0,0.4,0c0.1,0,0.3,0,0.3,0c1,0,1.9,0.2,2.7,0.7
				c0.6,0.3,1,0.8,1.4,1.3C123.5,420.5,123.6,420.8,123.8,421z M121.8,420.7c-0.3-0.2-0.5-0.4-0.8-0.5c-0.7-0.3-1.3-0.5-1.9-0.5
				c-0.4,0-0.8,0.1-1.2,0.2c-0.4,0.1-0.8,0.3-1.2,0.6c-0.7,0.5-1.3,1.2-1.6,2c-0.2,0.6-0.3,1.2-0.3,1.9c0,0.2,0,0.3,0,0.4
				c0,0.1,0,0.2,0,0.2L121.8,420.7z"/>
		</g>
	</g>
	<g>
		<g>
			<path class="st0" d="M125.3,413.5c0,0.7-0.3,1.3-0.8,1.8c-0.5,0.5-1.1,0.8-1.8,0.8c-0.7,0-1.3-0.3-1.8-0.8
				c-0.5-0.5-0.8-1.1-0.8-1.8c0-0.7,0.3-1.3,0.8-1.8c0.5-0.5,1.1-0.8,1.8-0.8c0.7,0,1.3,0.3,1.8,0.8
				C125,412.2,125.3,412.8,125.3,413.5z M124.8,413.5c0-0.6-0.2-1.1-0.6-1.5c-0.4-0.4-0.9-0.6-1.5-0.6c-0.6,0-1.1,0.2-1.5,0.6
				c-0.4,0.4-0.6,0.9-0.6,1.5c0,0.6,0.2,1.1,0.6,1.5c0.4,0.4,0.9,0.6,1.5,0.6c0.6,0,1.1-0.2,1.5-0.6
				C124.6,414.6,124.8,414.1,124.8,413.5z M123.8,414.7h-0.6l-0.4-1h-0.6v1h-0.5v-2.5h1.2c0.3,0,0.6,0.1,0.7,0.2
				c0.2,0.1,0.2,0.3,0.2,0.5c0,0.3-0.2,0.5-0.5,0.7L123.8,414.7z M122.3,413.3h0.6c0.3,0,0.5-0.1,0.5-0.4c0-0.2-0.1-0.3-0.4-0.3
				h-0.6V413.3z"/>
		</g>
	</g>
</g>
<g>
	<path class="st0" d="M120,131.1H26.5V55.6H120V131.1z M28.5,129.1H118V57.6H28.5V129.1z"/>
</g>
<g>
	<path class="st0" d="M93.6,219.3H50.9c-5.2,0-9.5-4.3-9.5-9.5s4.3-9.5,9.5-9.5h42.7c5.2,0,9.5,4.3,9.5,9.5S98.8,219.3,93.6,219.3z
		 M50.9,201.8c-4.4,0-8,3.6-8,8s3.6,8,8,8h42.7c4.4,0,8-3.6,8-8s-3.6-8-8-8H50.9z"/>
</g>
<g>
	<path class="st0" d="M93.6,274.4H50.9c-5.2,0-9.5-4.3-9.5-9.5s4.3-9.5,9.5-9.5h42.7c5.2,0,9.5,4.3,9.5,9.5S98.8,274.4,93.6,274.4z
		 M50.9,256.9c-4.4,0-8,3.6-8,8s3.6,8,8,8h42.7c4.4,0,8-3.6,8-8s-3.6-8-8-8H50.9z"/>
</g>
<g>
	<path class="st0" d="M93.6,329.6H50.9c-5.2,0-9.5-4.3-9.5-9.5s4.3-9.5,9.5-9.5h42.7c5.2,0,9.5,4.3,9.5,9.5S98.8,329.6,93.6,329.6z
		 M50.9,312.1c-4.4,0-8,3.6-8,8s3.6,8,8,8h42.7c4.4,0,8-3.6,8-8s-3.6-8-8-8H50.9z"/>
</g>
<g>
	<path class="st0" d="M72.5,290.2l-8.1-12.9h16.2L72.5,290.2z M68,279.2l4.5,7.2l4.5-7.2H68z"/>
</g>
<g>
	<g>
		<path class="st0" d="M59,335.4h1.4v1.3h0c0-0.2,0.1-0.3,0.2-0.5c0.1-0.2,0.3-0.3,0.4-0.5s0.4-0.3,0.6-0.3c0.2-0.1,0.4-0.1,0.6-0.1
			c0.2,0,0.3,0,0.3,0c0.1,0,0.1,0,0.2,0v1.4c-0.1,0-0.2,0-0.3,0c-0.1,0-0.2,0-0.3,0c-0.2,0-0.5,0-0.7,0.1c-0.2,0.1-0.4,0.2-0.6,0.4
			c-0.2,0.2-0.3,0.4-0.4,0.7c-0.1,0.3-0.1,0.6-0.1,1v3.1H59V335.4z"/>
	</g>
	<g>
		<path class="st0" d="M64.3,339c0,0.3,0,0.5,0.1,0.7s0.2,0.4,0.3,0.6c0.1,0.2,0.3,0.3,0.5,0.4c0.2,0.1,0.5,0.2,0.8,0.2
			c0.4,0,0.8-0.1,1-0.3c0.3-0.2,0.4-0.5,0.6-0.8H69c-0.1,0.4-0.2,0.7-0.4,0.9c-0.2,0.3-0.4,0.5-0.7,0.7c-0.3,0.2-0.6,0.3-0.9,0.4
			c-0.3,0.1-0.7,0.1-1,0.1c-0.5,0-1-0.1-1.4-0.3c-0.4-0.2-0.7-0.4-1-0.7c-0.3-0.3-0.5-0.7-0.6-1.1c-0.1-0.4-0.2-0.9-0.2-1.4
			c0-0.5,0.1-0.9,0.2-1.3c0.1-0.4,0.4-0.8,0.6-1.1c0.3-0.3,0.6-0.6,1-0.8c0.4-0.2,0.8-0.3,1.3-0.3c0.5,0,1,0.1,1.4,0.3
			c0.4,0.2,0.7,0.5,1,0.9c0.3,0.4,0.5,0.8,0.6,1.2c0.1,0.5,0.2,0.9,0.1,1.4H64.3z M67.7,338.1c0-0.2-0.1-0.4-0.1-0.7
			c-0.1-0.2-0.2-0.4-0.3-0.5c-0.1-0.2-0.3-0.3-0.5-0.4c-0.2-0.1-0.4-0.1-0.7-0.1c-0.3,0-0.5,0-0.7,0.1c-0.2,0.1-0.4,0.2-0.5,0.4
			c-0.1,0.2-0.3,0.3-0.4,0.5c-0.1,0.2-0.1,0.4-0.1,0.7H67.7z"/>
	</g>
	<g>
		<path class="st0" d="M71.3,339.8c0,0.4,0.2,0.7,0.5,0.9c0.3,0.2,0.6,0.3,1,0.3c0.1,0,0.3,0,0.5,0s0.3-0.1,0.5-0.1
			c0.2-0.1,0.3-0.1,0.4-0.3c0.1-0.1,0.1-0.3,0.1-0.4c0-0.2-0.1-0.3-0.2-0.5c-0.1-0.1-0.3-0.2-0.5-0.3c-0.2-0.1-0.4-0.1-0.7-0.2
			c-0.3-0.1-0.5-0.1-0.8-0.2c-0.3-0.1-0.5-0.1-0.8-0.2c-0.2-0.1-0.5-0.2-0.7-0.3c-0.2-0.1-0.4-0.3-0.5-0.5c-0.1-0.2-0.2-0.5-0.2-0.8
			c0-0.4,0.1-0.7,0.3-0.9c0.2-0.2,0.4-0.4,0.7-0.6s0.6-0.3,0.9-0.3c0.3-0.1,0.6-0.1,0.9-0.1c0.3,0,0.7,0,1,0.1
			c0.3,0.1,0.6,0.2,0.8,0.3c0.2,0.2,0.5,0.4,0.6,0.6c0.2,0.3,0.3,0.6,0.3,0.9h-1.5c-0.1-0.3-0.2-0.6-0.5-0.7
			c-0.2-0.1-0.5-0.2-0.9-0.2c-0.1,0-0.2,0-0.4,0c-0.1,0-0.3,0-0.4,0.1c-0.1,0-0.2,0.1-0.3,0.2c-0.1,0.1-0.1,0.2-0.1,0.3
			c0,0.2,0.1,0.3,0.2,0.4c0.1,0.1,0.3,0.2,0.5,0.3c0.2,0.1,0.4,0.1,0.7,0.2c0.3,0.1,0.5,0.1,0.8,0.2c0.3,0.1,0.5,0.1,0.8,0.2
			c0.3,0.1,0.5,0.2,0.7,0.3c0.2,0.1,0.4,0.3,0.5,0.5c0.1,0.2,0.2,0.5,0.2,0.8c0,0.4-0.1,0.7-0.3,1s-0.4,0.5-0.7,0.7
			c-0.3,0.2-0.6,0.3-0.9,0.4c-0.3,0.1-0.7,0.1-1,0.1c-0.4,0-0.8,0-1.1-0.1c-0.3-0.1-0.7-0.2-0.9-0.4c-0.3-0.2-0.5-0.4-0.6-0.7
			c-0.1-0.3-0.2-0.6-0.2-1H71.3z"/>
	</g>
	<g>
		<path class="st0" d="M77.9,339c0,0.3,0,0.5,0.1,0.7s0.2,0.4,0.3,0.6c0.1,0.2,0.3,0.3,0.5,0.4c0.2,0.1,0.5,0.2,0.8,0.2
			c0.4,0,0.8-0.1,1-0.3c0.3-0.2,0.4-0.5,0.6-0.8h1.4c-0.1,0.4-0.2,0.7-0.4,0.9c-0.2,0.3-0.4,0.5-0.7,0.7c-0.3,0.2-0.6,0.3-0.9,0.4
			s-0.7,0.1-1,0.1c-0.5,0-1-0.1-1.4-0.3c-0.4-0.2-0.7-0.4-1-0.7c-0.3-0.3-0.5-0.7-0.6-1.1c-0.1-0.4-0.2-0.9-0.2-1.4
			c0-0.5,0.1-0.9,0.2-1.3c0.1-0.4,0.4-0.8,0.6-1.1c0.3-0.3,0.6-0.6,1-0.8c0.4-0.2,0.8-0.3,1.3-0.3c0.5,0,1,0.1,1.4,0.3
			c0.4,0.2,0.7,0.5,1,0.9c0.3,0.4,0.5,0.8,0.6,1.2c0.1,0.5,0.2,0.9,0.1,1.4H77.9z M81.2,338.1c0-0.2-0.1-0.4-0.1-0.7
			c-0.1-0.2-0.2-0.4-0.3-0.5c-0.1-0.2-0.3-0.3-0.5-0.4c-0.2-0.1-0.4-0.1-0.7-0.1c-0.3,0-0.5,0-0.7,0.1c-0.2,0.1-0.4,0.2-0.5,0.4
			c-0.1,0.2-0.3,0.3-0.4,0.5s-0.1,0.4-0.1,0.7H81.2z"/>
	</g>
	<g>
		<path class="st0" d="M83.1,335.4h1.1v-2h1.4v2h1.3v1.1h-1.3v3.5c0,0.2,0,0.3,0,0.4c0,0.1,0,0.2,0.1,0.3c0,0.1,0.1,0.1,0.2,0.2
			c0.1,0,0.2,0.1,0.4,0.1c0.1,0,0.2,0,0.3,0c0.1,0,0.2,0,0.3,0v1.1c-0.2,0-0.3,0-0.5,0.1c-0.2,0-0.3,0-0.5,0c-0.4,0-0.7,0-0.9-0.1
			c-0.2-0.1-0.4-0.2-0.5-0.3c-0.1-0.1-0.2-0.3-0.3-0.5c0-0.2-0.1-0.5-0.1-0.7v-3.9h-1.1V335.4z"/>
	</g>
</g>
<g>
	<path class="st0" d="M80.6,197.4H64.4l8.1-12.9L80.6,197.4z M68,195.4h9l-4.5-7.2L68,195.4z"/>
</g>
<g>
	<rect x="28.8" y="186.8" class="st0" width="4.6" height="2"/>
</g>
<g>
	<path class="st0" d="M30.6,182.4c-5.1,0-9.2-4.1-9.2-9.2s4.1-9.2,9.2-9.2s9.2,4.1,9.2,9.2S35.7,182.4,30.6,182.4z M30.6,165.4
		c-4.3,0-7.8,3.5-7.8,7.8s3.5,7.8,7.8,7.8s7.7-3.5,7.7-7.8S34.9,165.4,30.6,165.4z"/>
</g>
<g>
	<rect x="28.6" y="186.8" class="st0" width="4.6" height="2"/>
</g>
<g>
	<path class="st0" d="M113.9,182.4c-5.1,0-9.2-4.1-9.2-9.2s4.1-9.2,9.2-9.2s9.2,4.1,9.2,9.2S119,182.4,113.9,182.4z M113.9,165.4
		c-4.3,0-7.8,3.5-7.8,7.8s3.5,7.8,7.8,7.8s7.8-3.5,7.8-7.8S118.1,165.4,113.9,165.4z"/>
</g>
<g>
	<rect x="111.8" y="186.8" class="st0" width="4.6" height="2"/>
</g>
<g>
	<rect x="113.1" y="185.5" class="st0" width="2" height="4.6"/>
</g>
<g>
	<g>
		<g>
			<path class="st0" d="M67.9,70.5c-1.7,1.4-2.1,1.9-2.3,2l0,17.5c0.1,0.2,0.6,0.7,2.2,2c1.7-1.4,2.1-1.9,2.3-2l0-17.5
				C70.1,72.4,69.6,71.9,67.9,70.5z"/>
		</g>
		<g>
			<path class="st0" d="M64.1,66.5l-17.5,0c-0.2,0.1-0.7,0.6-2,2.2c1.4,1.7,1.9,2.1,2,2.3l17.5,0c0.2-0.1,0.7-0.6,2-2.2
				C64.7,67.1,64.3,66.6,64.1,66.5z"/>
		</g>
		<g>
			<path class="st0" d="M66.1,119.4c-1.4-1.7-1.9-2.1-2-2.3l-17.5,0c-0.2,0.1-0.7,0.6-2,2.2c1.4,1.7,1.9,2.1,2,2.3l17.5,0
				C64.3,121.5,64.8,121.1,66.1,119.4z"/>
		</g>
		<g>
			<path class="st0" d="M42.8,70.5c-1.7,1.4-2.1,1.9-2.3,2l0,17.5c0.1,0.2,0.6,0.7,2.2,2c1.7-1.4,2.1-1.9,2.3-2l0-17.5
				C44.9,72.4,44.4,71.9,42.8,70.5z"/>
		</g>
		<g>
			<path class="st0" d="M42.8,117.4c1.7-1.4,2.1-1.9,2.3-2l0-17.5c-0.1-0.2-0.6-0.7-2.2-2c-1.7,1.4-2.1,1.9-2.3,2l0,17.5
				C40.7,115.6,41.1,116,42.8,117.4z"/>
		</g>
		<g>
			<path class="st0" d="M67.9,117.6c1.7-1.4,2.1-1.9,2.3-2l0-17.5c-0.1-0.2-0.6-0.7-2.2-2c-1.7,1.4-2.1,1.9-2.3,2l0,17.5
				C65.8,115.7,66.3,116.2,67.9,117.6z"/>
		</g>
	</g>
	<g>
		<g>
			<path class="st0" d="M103.8,70.5c-1.7,1.4-2.1,1.9-2.3,2l0,17.5c0.1,0.2,0.6,0.7,2.2,2c1.7-1.4,2.1-1.9,2.3-2l0-17.5
				C105.9,72.4,105.4,71.9,103.8,70.5z"/>
		</g>
		<g>
			<path class="st0" d="M99.9,66.5l-17.5,0c-0.2,0.1-0.7,0.6-2,2.2c1.4,1.7,1.9,2.1,2,2.3l17.5,0c0.2-0.1,0.7-0.6,2-2.2
				C100.6,67.1,100.1,66.6,99.9,66.5z"/>
		</g>
		<g>
			<path class="st0" d="M102,119.4c-1.4-1.7-1.9-2.1-2-2.3l-17.5,0c-0.2,0.1-0.7,0.6-2,2.2c1.4,1.7,1.9,2.1,2,2.3l17.5,0
				C100.1,121.5,100.6,121.1,102,119.4z"/>
		</g>
		<g>
			<path class="st0" d="M103.8,117.6c1.7-1.4,2.1-1.9,2.3-2l0-17.5c-0.1-0.2-0.6-0.7-2.2-2c-1.7,1.4-2.1,1.9-2.3,2l0,17.5
				C101.7,115.7,102.1,116.2,103.8,117.6z"/>
		</g>
		<g>
			<path class="st0" d="M78.6,117.4c1.7-1.4,2.1-1.9,2.3-2l0-17.5c-0.1-0.2-0.6-0.7-2.2-2c-1.7,1.4-2.1,1.9-2.3,2l0,17.5
				C76.5,115.6,77,116,78.6,117.4z"/>
		</g>
		<g>
			<path class="st0" d="M78.6,70.5c-1.7,1.4-2.1,1.9-2.3,2l0,17.5c0.1,0.2,0.6,0.7,2.2,2c1.7-1.4,2.1-1.9,2.3-2l0-17.5
				C80.7,72.4,80.3,71.9,78.6,70.5z"/>
		</g>
	</g>
</g>
</svg>
