<?xml version="1.0" encoding="UTF-8"?>
<svg width="960px" height="960px" viewBox="0 0 960 960" version="1.1" xmlns="http://www.w3.org/2000/svg" xmlns:xlink="http://www.w3.org/1999/xlink">
    <!-- Generator: Sketch 60.1 (88133) - https://sketch.com -->
    <title>beam</title>
    <desc>Created with Sketch.</desc>
    <g id="beam" stroke="none" stroke-width="1" fill="none" fill-rule="evenodd">
        <path d="M819.5,412.477304 C892.125445,412.477304 951,471.128002 951,543.477304 C951,615.826607 892.125445,674.477304 819.5,674.477304 C746.874555,674.477304 688,615.826607 688,543.477304 C688,471.128002 746.874555,412.477304 819.5,412.477304 Z M825.015448,456.464458 C773.250437,453.121538 732.014758,494.608067 731.965361,543.249558 C731.916612,591.56763 770.352639,625.057534 805.314746,629.316072 C805.346352,628.99762 805.405683,628.67972 805.405683,628.362371 C805.408456,622.790287 805.529336,617.21434 805.361323,611.647223 C805.23268,607.389236 803.417259,603.749941 800.00877,601.125057 C798.364133,599.858975 796.453893,598.884854 794.561397,597.995175 C786.593284,594.248257 779.662079,589.181723 773.927477,582.484846 C769.045691,576.784167 765.218557,570.476938 762.781545,563.399243 C760.204246,555.915895 758.777527,548.224476 759.541068,540.267036 C759.846041,537.085827 760.097783,533.871502 760.77205,530.757074 C763.277265,519.185175 768.830546,509.2381 777.288834,500.896531 C781.243503,496.997286 785.650085,493.711765 790.506919,491.017892 C798.153979,486.776463 806.385478,484.385037 815.077764,483.73875 C819.727216,483.393254 824.390531,483.618986 829.038319,484.373999 C841.447949,486.390678 852.095389,491.845757 861.173049,500.401467 C865.159324,504.158871 868.491292,508.464874 871.26821,513.18536 C876.000283,521.228346 878.790509,529.907132 879.430397,539.193019 C879.767531,544.08515 879.491392,548.985008 878.821006,553.879346 C877.7536,561.670109 875.575538,569.11372 872.311218,576.235016 C865.555789,590.977086 855.409059,603.019212 842.423862,612.699715 C832.641437,619.992655 821.846501,625.344527 810.132765,628.843637 C809.268859,629.101379 808.416044,629.397755 807.313705,629.754841 C854.453107,636.822049 903.080778,602.733323 906.829728,549.002117 C910.021964,503.255394 875.609917,459.732317 825.015448,456.464458 Z" id="Oval-2" fill="#000000"></path>
        <path d="M795.973581,248.201815 C828.488194,243.916216 861.548044,243.903283 887.584906,248.339205 C903.259495,251.009698 916.656251,255.256644 927.634532,261.839939 C935.526104,266.572242 942.257238,272.550028 947.365589,280.239244 C953.947993,290.147241 957.001411,301.87665 955.783775,313.947587 C955.053622,321.185895 953.967077,329.504137 952.53297,339.182886 L952.53297,339.182886 L952.173555,341.588786 C951.929377,343.210469 951.675814,344.869549 951.411365,346.577432 L951.411365,346.577432 L951.00634,349.177283 C950.7452,350.843831 947.097655,373.399668 946.261927,379.063732 L946.261927,379.063732 L946.038037,380.663739 C942.957232,402.351838 929.253101,419.515548 908.605558,427.121524 C907.637687,427.478061 906.656387,427.797027 905.66386,428.077708 L905.66386,428.077708 L258.976,610.957 L256.461997,611.710803 C224.473958,621.252575 197.461091,627.680349 175.147169,630.969568 L175.147169,630.969568 L174.165567,631.112675 C136.34063,636.565565 90.2071297,629.79553 62.6252972,614.969942 C47.267225,606.714781 35.1248819,596.65825 26.3655353,584.406126 C21.051991,576.973813 17.951394,568.51335 16.8560435,559.647274 L16.8560435,559.647274 L0.40553137,427.093469 C0.324286882,426.438823 0.259249178,425.782267 0.21047794,425.124404 C-0.919001677,409.889137 3.76474061,395.397465 13.2367301,383.44399 C20.7167784,374.004308 30.6301065,366.687692 42.679874,360.785592 C60.5381757,352.038413 81.7021628,345.64246 106.241932,341.327122 C106.766759,341.234831 107.293378,341.153037 107.821474,341.081788 C254.342931,321.313675 377.627637,304.67899 477.673178,291.178059 L477.673178,291.178059 Z M911.428591,343.367339 L268.439517,462.140427 C191.594633,477.015357 134.095531,483.599883 95.7070221,481.847429 C75.4826934,480.924179 58.9891077,477.836476 46.3383932,472.427086 L56.5515186,554.72089 L56.6154941,555.189395 C56.9630778,557.509538 57.7262587,559.494018 58.9050369,561.142832 C63.6895527,567.835167 70.9918056,574.054802 81.5633721,579.737154 C99.9788365,589.635703 137.074209,596.0463 168.45812,591.521956 C188.799543,588.589511 214.356694,582.53203 245.129573,573.349513 L245.129573,573.349513 L247.780022,572.554787 L894.778966,389.587202 L895.155206,389.445007 C901.748859,386.888935 905.520458,382.002825 906.470005,374.786676 C907.256521,368.809486 909.336437,356.697058 911.428591,343.367339 Z M914.607881,321.627233 L271.960196,439.544135 L267.362044,440.428732 C192.638133,454.714339 136.495361,461.022277 98.6385862,459.294097 C75.3264589,458.229887 56.7785347,454.309027 43.2103546,447.229267 L44.084288,454.266331 C54.7485494,461.420288 72.0882905,465.753601 96.391067,466.863034 C132.965018,468.532653 188.684516,462.210498 263.382448,447.839821 L265.65183,447.401882 L913.781962,327.678251 C914.069651,325.640237 914.346415,323.617637 914.607881,321.627233 Z M913.42692,301.510264 C901.475247,286.092803 850.511229,281.171162 799.973953,288.022813 L799.973953,288.022813 L113.169665,380.722636 C92.0988031,384.427964 74.4672438,389.756385 60.2749872,396.707897 C47.697568,402.868446 40.985054,410.234463 40.1374452,418.805947 C47.4941872,430.528142 66.9683125,437.827505 99.550646,439.314904 C135.886151,440.973638 191.436413,434.670481 265.990022,420.327669 L268.255039,419.890578 Z" id="Combined-Shape" fill="#000000" fill-rule="nonzero"></path>
    </g>
</svg>