<?xml version="1.0" encoding="UTF-8"?>
<svg width="960px" height="960px" viewBox="0 0 960 960" version="1.1" xmlns="http://www.w3.org/2000/svg" xmlns:xlink="http://www.w3.org/1999/xlink">
    <!-- Generator: Sketch 60.1 (88133) - https://sketch.com -->
    <title>dot-dot-clock</title>
    <desc>Created with Sketch.</desc>
    <g id="dot-dot-clock" stroke="none" stroke-width="1" fill="none" fill-rule="evenodd">
        <path d="M481.559599,189.5 C682.854475,189.5 808.748212,213.692957 879.386987,261.601312 C879.99869,262.016178 880.60634,262.432835 881.209952,262.851284 L881.287441,262.732457 C885.770113,265.646972 889.869089,268.734295 893.430121,272.01182 C917.526829,291.56376 933.995603,314.6329 944.107859,341.471871 C953.392644,366.114647 957.003849,391.713414 957.79191,426.408428 L957.79191,426.408428 L957.841818,428.815708 C957.932994,433.668718 957.97369,437.829549 957.999024,444.03644 L957.999024,444.03644 L957.999024,456.841973 C957.981712,479.586828 957.726875,491.475685 956.652179,506.143577 L956.652179,506.143577 L956.445571,508.858435 C954.776097,529.891753 951.555795,549.147855 946.207766,567.646834 C929.062295,626.953493 890.934799,674.336723 825.080255,708.669663 C748.614793,748.534552 636.395935,769.5 481.559599,769.5 C269.554479,769.5 136.636617,729.56973 65.4762929,655.582817 C36.3050875,625.25289 18.4257488,590.227273 9.2146357,550.473863 C5.50643142,534.46996 3.26153442,518.016724 2.0933095,500.29335 C1.27043858,487.809411 1.02911985,477.062079 1.00058045,459.808572 L1.00058045,459.808572 L1.00107834,450.572988 C1.015523,429.739848 1.18144182,419.580509 1.87774421,407.467336 L1.87774421,407.467336 L2.02266043,405.052959 C3.1079338,387.820289 5.21941678,372.675838 8.795596,358.398648 C17.7408025,322.686675 35.8316091,293.405022 66.1589453,269.405488 C133.793223,215.88311 263.218629,189.5 481.559599,189.5 Z M50.4917099,358.073627 L50.3539845,358.497632 C49.3377892,361.623615 48.4206882,364.828828 47.5968915,368.117674 C44.5874409,380.132312 42.784928,393.335678 41.8644739,408.861182 C41.2796244,418.725966 41.074124,427.185506 41.0179023,442.319425 L41.0179023,442.319425 L41,453.839561 L41,460.311161 C41.0979799,496.383208 42.6000081,517.352849 48.1822681,541.44482 L48.1822681,541.44482 L48.4211078,542.464652 C56.1346802,575.053521 70.6437787,603.252591 94.3059042,627.854609 C123.029212,657.718847 164.888145,681.753565 222.532345,699.070639 C288.75399,718.96449 374.393737,729.5 481.559599,729.5 C630.496605,729.5 736.634877,709.670567 806.588603,673.200539 C862.640581,643.978118 893.639895,605.453489 907.781348,556.537812 C912.433776,540.444933 915.242933,523.348401 916.681052,504.270813 C917.692134,490.858142 917.962468,479.983981 917.997028,459.210997 L917.997028,459.210997 L917.996909,447.159596 C917.994931,441.706494 917.968329,437.857414 917.922188,434.202335 L917.922188,434.202335 L917.827342,428.47578 C917.216983,398.970338 914.472909,377.794894 907.840326,358.783142 C888.560312,379.037059 844.88675,395.277392 781.553605,408.171699 C701.54253,424.461548 594.634402,433.811814 483.398219,433.99719 L478.972906,434 C366.527589,434 258.265401,424.626089 177.446271,408.171699 C113.374347,395.12696 69.4233472,378.657673 50.4917099,358.073627 Z M63.6594422,330.287625 L63.6007048,330.378767 C62.4203241,332.200964 61.2953811,334.053684 60.2240094,335.938347 C61.7699984,343.268887 71.336566,352.034261 89.5953483,360.851887 C110.914808,371.14759 142.228993,380.591327 181.43632,388.573752 C260.044654,404.578035 365.652555,413.814103 475.638677,413.997224 L480.026124,414 C591.210687,414 698.161064,404.739697 777.563562,388.573751 L781.216065,387.821137 C818.31507,380.084358 848.104658,371.022993 868.735154,361.173348 L869.404639,360.851886 C886.217298,352.732635 895.660093,344.657686 898.257667,337.706496 C897.011156,335.542619 895.692746,333.416637 894.300616,331.326735 C888.291662,337.183467 880.448917,342.405982 870.840437,347.244208 L869.512363,347.904821 C848.061445,358.446325 816.938653,367.628798 777.666057,375.332756 C700.147911,390.539199 593.952855,399.323201 483.191823,399.49736 L479.165944,399.5 C367.195426,399.5 259.635101,390.6928 181.333943,375.332756 L178.890032,374.849334 C139.957671,367.083824 109.206824,357.842287 88.1595625,347.244208 C77.9863319,342.121609 69.7925031,336.56822 63.6594422,330.287625 Z M481.559599,229.5 C280.346202,229.5 160.049096,252.298891 98.7131981,295.034168 L99.5171836,296.266893 C96.8292984,298.014712 94.3629633,299.918184 92.5182488,301.658305 L92.051,302.108 L92.152289,302.216071 C94.591922,304.778302 99.1184752,307.931916 105.630871,311.25511 L106.149131,311.517812 C123.778629,320.394919 152.206465,328.856569 189.033841,336.080857 C263.817078,350.750803 367.516805,359.327358 475.880785,359.497422 L479.834056,359.5 C589.3853,359.5 694.427536,350.898985 769.966159,336.080857 L773.257879,335.427352 C808.489486,328.348496 835.750256,320.128606 852.850869,311.517812 C859.64184,308.098305 864.343877,304.845729 866.847711,302.216071 L866.948,302.108 L866.843013,302.004056 L866.579738,301.751689 C863.531912,299.348646 860.319316,297.001115 856.934985,294.705807 C794.498952,252.360684 675.538012,229.5 481.559599,229.5 Z M479.499519,304.5 C512.360346,304.5 539,308.753466 539,314 C539,319.246534 512.360346,323.5 479.499519,323.5 C446.638693,323.5 420,319.246534 420,314 C420,308.753466 446.638693,304.5 479.499519,304.5 Z M294.5,276.5 C325.704303,276.5 351,280.529599 351,285.5 C351,290.470401 325.704303,294.5 294.5,294.5 C263.295697,294.5 238,290.470401 238,285.5 C238,280.529599 263.295697,276.5 294.5,276.5 Z M664.499518,276.5 C695.704155,276.5 721,280.529599 721,285.5 C721,290.470401 695.704155,294.5 664.499518,294.5 C633.295845,294.5 608,290.470401 608,285.5 C608,280.529599 633.295845,276.5 664.499518,276.5 Z M479.500487,247.5 C508.495065,247.5 532,251.30571 532,256 C532,260.69429 508.495065,264.5 479.500487,264.5 C450.504935,264.5 427,260.69429 427,256 C427,251.30571 450.504935,247.5 479.500487,247.5 Z" id="Combined-Shape" fill="#000000"></path>
    </g>
</svg>