<?xml version="1.0" encoding="UTF-8"?>
<svg width="960px" height="960px" viewBox="0 0 960 960" version="1.1" xmlns="http://www.w3.org/2000/svg" xmlns:xlink="http://www.w3.org/1999/xlink">
    <!-- Generator: Sketch 60.1 (88133) - https://sketch.com -->
    <title>echo-show-org</title>
    <desc>Created with Sketch.</desc>
    <g id="echo-show-org" stroke="none" stroke-width="1" fill="none" fill-rule="evenodd">
        <path d="M11.4927037,42.6063886 C10.8982541,26.7037038 23.9887732,13.2531358 40.3039283,13.851991 L40.3039283,13.851991 L763.579505,43.1989299 C775.133515,43.6703563 784.916871,51.87981 787.382221,63.1701732 L787.382221,63.1701732 L957.925748,842.320309 C961.195243,857.235052 950.675008,871.647672 935.470932,873.08071 L935.470932,873.08071 L168.670104,945.216047 C167.895075,945.28911 167.124116,945.326447 166.358968,945.329325 L166.358968,945.329325 L166.216,945.328 L166.136476,945.348562 C158.404012,947.161066 149.6602,944.650105 144.601228,936.210758 L144.601228,936.210758 L144.269474,935.639335 L96.9901181,851.53723 C94.2250039,846.617864 92.3699226,841.239929 91.5132201,835.662611 L91.5132201,835.662611 L91.3948176,834.838354 L3.41879563,161.219646 C2.46126386,153.890533 2.26583085,146.482194 2.83528125,139.112266 L2.83528125,139.112266 L2.93976257,137.860176 L11.507,42.92 Z M62.4791736,54.7837326 L187.410174,903.275733 L915.332,834.798 L750.712,82.709 L62.4791736,54.7837326 Z M69.7766799,62.9725538 L746.498152,90.8165968 L907.653844,826.766697 L192.415771,894.981122 L69.7766799,62.9725538 Z M47.4311736,89.8757326 L42.8001113,141.199727 L42.712,142.253 L42.6514691,143.117176 C42.3977297,147.119851 42.5037008,151.136504 42.9682745,155.120034 L42.9682745,155.120034 L43.0818491,156.038701 L131.008,829.292 L131.057,829.632 L131.103975,829.897796 C131.226611,830.510965 131.431288,831.104428 131.712022,831.661337 L131.712022,831.661337 L131.858699,831.936667 L165.506174,891.797733 L47.4311736,89.8757326 Z M87.258,78.704 L205.177,878.696 L889.38,813.441 L734.32,105.328 L87.258,78.704 Z M136.039,127.335 L136.42269,127.342781 L721.910233,147.060216 L807.74248,547.008527 L184.794106,564.522043 L121.186856,144.475462 C119.822369,135.467001 126.779604,127.412971 135.796935,127.335 L135.796935,127.335 L136.039,127.335 Z M136.033,142.338 L197.638,549.155 L789.292,532.52 L709.701,161.657 L136.033,142.338 Z" id="Combined-Shape" fill="#000000" fill-rule="nonzero"></path>
    </g>
</svg>