<?xml version="1.0" encoding="UTF-8"?>
<svg width="960px" height="960px" viewBox="0 0 960 960" version="1.1" xmlns="http://www.w3.org/2000/svg" xmlns:xlink="http://www.w3.org/1999/xlink">
    <!-- Generator: Sketch 60.1 (88133) - https://sketch.com -->
    <title>echo-fire-hd-org</title>
    <desc>Created with Sketch.</desc>
    <g id="echo-fire-hd-org" stroke="none" stroke-width="1" fill="none" fill-rule="evenodd">
        <path d="M898.054219,177 C931.155597,177 958,203.825184 958,236.931791 L958,236.931791 L958,719.069149 C958,752.175254 931.15516,779 898.054219,779 L898.054219,779 L63.9457808,779 C30.84484,779 4,752.175254 4,719.069149 L4,719.069149 L4,236.931791 C4,203.825184 30.8444028,177 63.9457808,177 L63.9457808,177 Z M898.054219,217 L63.9457808,217 C52.9295277,217 44,225.922844 44,236.931791 L44,236.931791 L44,719.069149 C44,730.077156 52.9295277,739 63.9457808,739 L63.9457808,739 L898.054219,739 C909.070472,739 918,730.077156 918,719.069149 L918,719.069149 L918,236.931791 C918,225.922844 909.070472,217 898.054219,217 L898.054219,217 Z M858.853884,234 C866.669526,234 873,240.33982 873,248.152237 L873,248.152237 L873,714.847763 C873,722.661163 866.669499,729 858.853884,729 L858.853884,729 L102.145161,729 C94.3290141,729 88,722.660634 88,714.847763 L88,714.847763 L88,248.152237 C88,240.340349 94.328987,234 102.145161,234 L102.145161,234 Z M853,254 L108,254 L108,691 L853,691 L853,254 Z M490.045825,334.327207 C577.61187,339.985883 637.170293,415.351118 631.645352,494.566851 C625.156881,587.60864 540.99486,646.637206 459.40865,634.399518 C461.316516,633.781183 462.792521,633.267974 464.287719,632.821664 C484.561191,626.762551 503.244456,617.495166 520.175324,604.866599 C542.649368,588.10369 560.210753,567.251358 571.902669,541.723761 C577.552369,529.392415 581.322036,516.502943 583.169441,503.012337 C584.329707,494.537225 584.807633,486.052555 584.224141,477.581266 C583.116658,461.50168 578.287493,446.473359 570.09749,432.546001 C565.291357,424.371933 559.524574,416.915592 552.625356,410.409213 C536.914254,395.594013 518.486268,386.147914 497.008384,382.6558 C488.964254,381.348408 480.893253,380.957528 472.846244,381.555794 C457.802128,382.674914 443.555515,386.815945 430.320416,394.160469 C421.914483,398.825222 414.287819,404.51448 407.443303,411.266473 C392.804176,425.710863 383.192871,442.935373 378.856987,462.973452 C377.690003,468.366444 377.254303,473.932418 376.726473,479.44105 C375.404978,493.220276 377.874263,506.538856 382.334907,519.497138 C386.552749,531.752984 393.176536,542.674679 401.625656,552.546063 C411.55078,564.142479 423.546917,572.915769 437.337677,579.403989 C440.613102,580.944571 443.919238,582.631375 446.765681,584.823741 C452.664902,589.369032 455.80693,595.670892 456.029578,603.044087 C456.320365,612.684193 456.111152,622.33959 456.106354,631.988297 C456.106354,632.537822 456.003667,633.088303 455.948964,633.63974 C395.438528,626.265589 328.915628,568.273953 329,484.605631 C329.085493,400.377272 400.453873,328.538556 490.045825,334.327207 Z" id="Combined-Shape" fill="#000000" fill-rule="nonzero"></path>
    </g>
</svg>