<?xml version="1.0" encoding="UTF-8"?>
<svg width="960px" height="960px" viewBox="0 0 960 960" version="1.1" xmlns="http://www.w3.org/2000/svg" xmlns:xlink="http://www.w3.org/1999/xlink">
    <!-- Generator: Sketch 60.1 (88133) - https://sketch.com -->
    <title>echo-spot-org</title>
    <desc>Created with Sketch.</desc>
    <g id="echo-spot-org" stroke="none" stroke-width="1" fill="none" fill-rule="evenodd">
        <path d="M479.885456,15 C489.847107,15 499.860806,15.3581804 509.868122,16.0651785 C619.596202,23.7719813 725.602291,73.6525939 808.74367,153.280151 C890.193705,231.287845 943.592451,332.216019 955.625576,434.391739 C959.527628,467.523737 961.733751,513.264612 958.427568,547.835128 C957.11416,561.488166 955.097671,575.42659 952.290736,589.635307 C952.288298,589.973699 952.270102,590.200986 952.237145,590.612655 L951.957097,592.763186 C951.934716,592.922353 951.919136,593.021355 951.906037,593.090527 L951.875102,593.221755 L951.857974,593.275915 L951.653059,594.20094 L949.658269,602.617476 L945.579009,619.509466 L945.131199,621.278525 L944.879269,622.1333 L944.68667,622.707772 C944.539911,623.121436 944.539911,623.121436 944.226411,623.894623 C944.067481,624.305179 943.971392,624.553402 943.764068,624.930236 C931.857089,666.753834 913.439989,708.283227 887.539416,748.636378 C853.827949,801.158918 808.53457,849.91597 750.480604,893.75391 L748.717486,895.080825 L747.011,896.356 L746.843707,896.53858 C744.637403,898.91655 741.695681,901.490164 737.919867,904.175339 L737.347227,904.578941 L736.813392,904.948856 C727.794476,911.148334 715.524093,917.037449 699.470743,922.34128 C656.260772,936.617325 591.356842,945 500.051978,945 C410.614851,945 341.06659,936.956453 288.91434,923.352742 C269.975201,918.412541 254.468655,913.011672 242.092679,907.460452 L240.878193,906.910795 C233.505356,903.54362 228.283484,900.594918 224.979463,898.316135 L224.686,898.112 L223.11787,897.035296 C167.915588,858.997281 123.537207,814.818434 89.0704206,765.710971 L88.0290054,764.221358 L86.9725857,762.698243 C47.8542758,706.071624 23.3427032,645.5055 10.6473566,584.203616 C2.29926497,543.893275 0.0590607056,508.986614 1.2550018,482.421324 L1.29433355,481.576331 C1.3441647,480.539941 1.39727207,479.595186 1.45184007,478.744087 L1.549,477.332 L1.60663669,470.562886 C5.7489891,223.156627 210.062349,23.1440399 464.261207,15.2424989 L471.979317,15.062011 L479.885456,15 Z M275.709922,103.623921 L272.36936,105.330651 C134.905141,176.795363 41.5425106,317.044474 41.5425106,478.227995 C41.5425106,478.632031 41.5302672,479.035928 41.5058057,479.43913 L41.408659,480.724971 L41.3279937,481.988902 C41.307803,482.335606 41.2876919,482.705234 41.2678805,483.097529 L41.2481771,483.49737 C40.118953,506.983021 42.1099537,538.880721 49.8162264,576.091918 C61.4742507,632.384895 83.975791,687.984391 119.883304,739.963147 C151.901679,786.312091 193.510033,828.058313 245.822477,864.103535 L247.721757,865.408369 L248.006521,865.589789 C248.413828,865.846327 248.918835,866.149539 249.524784,866.4963 L249.836186,866.673294 C252.084991,867.943049 254.947014,869.386616 258.463188,870.963788 L259.740944,871.530173 C269.87176,875.968324 282.867017,880.4369 299.010366,884.647829 C347.690073,897.345741 413.872369,905 500.051978,905 C587.412644,905 648.224411,897.145849 686.922364,884.360519 C699.536787,880.192868 708.410507,875.933966 714.154784,871.985429 L714.732634,871.581544 C715.930866,870.729391 716.781933,870.027485 717.332256,869.49915 L717.425,869.408 L717.510643,869.297453 C718.372907,868.206891 719.346813,867.208858 720.416708,866.319771 L720.881066,865.945451 L721.303474,865.624154 C749.714683,844.602839 774.854213,822.436352 796.906355,799.263125 C771.638864,813.972083 743.168433,825.761712 711.346218,834.350197 C649.638267,851.009673 587.694935,849.391434 526.455012,832.325925 C476.375315,818.370396 428.590398,794.640177 383.825558,763.904828 C357.789145,746.028337 334.374894,726.883034 313.927445,707.725279 L312.152937,706.055461 C305.713528,699.969398 300.013456,694.289615 295.086633,689.136771 L293.275904,687.229335 C292.267899,686.159472 291.344545,685.165265 290.506945,684.250598 L288.914669,682.492361 L288.501,682.026 L287.271172,680.695257 C243.781294,633.346863 204.431181,559.113606 184.544494,480.189522 L183.941814,477.772037 C159.727966,379.592141 166.139684,280.914912 209.222551,191.75854 C226.229433,156.58226 248.692382,127.333371 275.709922,103.623921 Z M385.174145,64.9148162 L381.31987,65.7386316 C376.545097,67.414304 371.80471,69.2027527 367.110581,71.1062901 C305.72089,96.0007033 257.349334,138.163448 227.229398,200.462185 C186.307618,285.146372 180.203457,379.090245 203.359976,472.982987 C222.252215,549.585353 260.365686,621.828899 301.979151,667.142568 L303.349902,668.626067 L304.130751,669.503343 L304.933091,670.389222 C306.221453,671.802421 307.759772,673.450974 309.542252,675.315226 L310.84298,676.668866 C315.681487,681.679532 321.279749,687.207052 327.601811,693.130359 C347.348491,711.631544 369.990228,730.14518 395.146008,747.417032 C438.205534,776.98152 484.045132,799.745684 531.823781,813.059988 C589.738376,829.19884 648.050755,830.722222 706.134138,815.041281 C768.854695,798.113655 817.323863,768.29117 853.321107,727.893917 C853.506926,727.60572 853.692069,727.31798 853.876827,727.030126 C858.023449,720.569679 861.959241,714.079771 865.689215,707.564446 C863.08469,711.014163 860.392261,714.411853 857.611121,717.756016 C821.014061,761.7619 770.933861,794.078137 705.937445,811.904615 C648.105383,827.770856 590.050142,826.22965 532.667882,809.97999 C485.764266,796.697699 441.022912,774.118829 399.115349,744.878947 C374.74708,727.876639 352.834436,709.668789 333.697961,691.448757 C326.986074,685.0583 321.093828,679.114856 316.062279,673.7672 L316.062279,673.7672 L315.584469,673.25838 C314.01088,671.579351 312.628533,670.071172 311.441314,668.747812 L311.441314,668.747812 L310.56897,667.769112 L309.887,666.991 L308.749173,665.740378 C268.03567,620.696444 231.214625,550.108297 212.607483,475.06522 L212.607483,475.06522 L212.043581,472.766613 C189.388744,379.418778 195.387832,285.594165 235.704599,200.808969 C266.049995,137.026304 314.965493,93.6984284 376.596089,68.3014181 C379.440372,67.1293331 382.300569,66.00065 385.174145,64.9148162 Z M513.799375,63.087364 C473.298965,62.0438455 426.720227,69.2776244 384.21614,86.7928977 C326.971146,110.38267 281.866242,150.335236 253.765671,209.399528 C215.551518,289.762975 209.850329,378.928506 231.479388,468.049685 C249.303032,541.490893 285.441087,610.705559 324.742913,653.600189 L324.742913,653.600189 L324.850442,653.719457 L325.752776,654.747332 L326.661937,655.762976 C327.566627,656.766467 328.594608,657.88731 329.74379,659.118324 L329.74379,659.118324 L331.25748,660.729023 C335.483575,665.197388 340.349807,670.112068 345.827413,675.374857 L345.827413,675.374857 L347.489008,676.964039 C365.928016,694.520007 387.070801,712.088158 410.55952,728.476784 C450.754586,756.521816 493.538083,778.112648 538.11725,790.736695 C592.126492,806.031175 646.492107,807.474432 700.646699,792.617106 C761.690839,775.874614 808.251687,745.829378 842.233898,704.967701 C869.811854,671.806776 888.110692,632.774833 898.683764,590.444844 L898.683764,590.444844 L898.82762,589.886387 L899.245078,588.163653 C903.34282,570.622222 906.083743,553.49518 907.658778,536.863346 C910.516795,506.50164 908.535974,464.773118 905.102075,435.165681 C894.64904,344.975174 847.869055,255.131953 776.301334,185.484112 C703.214564,114.357972 610.292277,69.9290293 514.612604,63.100639 L514.789638,63.113 Z M439.847452,182.266109 C470.917541,169.398219 504.73531,164.200147 534.237541,165.089293 C534.375741,165.093458 534.513841,165.100489 534.65175,165.110381 C602.753257,169.995256 668.569122,201.621756 720.190883,252.110727 C770.725451,301.536362 803.832282,365.438561 811.281736,430.035267 C813.701248,450.99198 815.074373,480.066492 813.029049,501.902483 C811.905307,513.822491 809.954137,526.077447 807.032962,538.647036 L807.032962,538.647036 L806.965472,538.933048 C806.879221,539.297365 806.806905,539.597528 806.736433,539.881242 L806.736433,539.881242 L806.575878,540.511968 L806.321723,541.526028 C798.635198,571.848457 785.418542,599.954035 765.490521,624.036797 C740.57605,654.145621 706.488358,676.252501 662.346179,688.419833 C623.038872,699.257732 583.57938,698.204904 544.624223,687.118251 C512.856779,678.077224 482.598269,662.73076 454.277013,642.871516 C437.828898,631.337877 423.042018,618.989578 410.12451,606.629182 C405.589393,602.289657 401.605107,598.250654 398.198668,594.612102 C397.262115,593.611732 396.419301,592.694777 395.671834,591.867112 L395.671834,591.867112 L394.558,590.620515 L393.89876,589.864316 L393.265153,589.170626 C365.376853,558.162477 340.265414,509.549728 327.817029,457.999757 C312.495662,394.552496 316.556967,330.716155 343.868653,272.992872 C364.536486,229.334427 397.889317,199.643357 439.847452,182.266109 Z M532.559223,185.050839 C505.967742,184.399769 475.377329,189.198577 447.500226,200.74407 C409.928828,216.304521 380.380145,242.609095 361.946281,281.548532 C336.71935,334.865686 332.953005,394.065791 347.258218,453.305062 C359.056108,502.161266 382.97606,548.204648 408.890957,576.630606 L408.890957,576.630606 L408.998088,576.750027 L410.24275,578.160323 C410.790296,578.77004 411.40693,579.445937 412.091564,580.184291 L412.091564,580.184291 L413.362669,581.543471 C416.401086,584.766245 419.938989,588.339314 423.951603,592.17887 C436.172721,603.872911 450.190624,615.579049 465.759592,626.496218 C492.366214,645.153138 520.663068,659.504692 550.098833,667.882123 C585.666074,678.004573 621.417538,678.958466 657.030845,669.139085 C697.211507,658.063704 727.777796,638.240559 750.081837,611.286407 C768.194104,589.397961 780.230916,563.594357 787.194427,535.577755 L787.194427,535.577755 L787.333163,535.031777 L787.558385,534.092908 C790.265272,522.445228 792.075737,511.07401 793.116774,500.031316 C795.00323,479.891381 793.686819,452.017707 791.413564,432.327809 C784.508863,372.454832 753.565611,312.728736 706.206497,266.408872 C657.851357,219.114838 596.412989,189.591858 533.22084,185.059128 L533.399638,185.073 Z" id="Combined-Shape" fill="#000000" fill-rule="nonzero"></path>
        <path d="M505.971362,116.799088 C505.997691,117.28001 506.059125,119.156605 505.843618,120.588348 C505.758781,121.149423 505.627136,121.790652 505.425281,122.487988 C505.41748,122.517043 505.408704,122.546099 505.398952,122.575155 C504.584707,125.236253 502.58176,128.697885 497.668008,129.761924 C489.950716,131.434128 484.254897,123.749404 484.254897,123.749404 C481.84239,120.701565 479.219252,113.362504 482.637133,106.995305 C485.217365,102.192102 490.320295,101.836421 492.573854,102.043818 C499.77237,103.01568 505.593006,109.878829 505.971362,116.799088 Z" id="Stroke-7" fill="#000000"></path>
    </g>
</svg>