<?xml version="1.0" encoding="UTF-8"?>
<svg width="960px" height="960px" viewBox="0 0 960 960" version="1.1" xmlns="http://www.w3.org/2000/svg" xmlns:xlink="http://www.w3.org/1999/xlink">
    <!-- Generator: Sketch 60.1 (88133) - https://sketch.com -->
    <title>echo-plus-v2-org</title>
    <desc>Created with Sketch.</desc>
    <g id="echo-plus-v2-org" stroke="none" stroke-width="1" fill="none" fill-rule="evenodd">
        <path d="M478.999526,-2 C544.900566,-2 607.006292,4.92291412 654.515347,17.2583 C678.481644,23.4809776 698.379169,30.9883708 713.311533,39.6391679 C731.222673,50.0156655 742.888222,62.4478259 746.146971,77.8699093 C746.46644,79.381803 746.697313,80.9074164 746.837677,82.4429196 L746.837677,82.4429196 L746.849197,82.5759492 C747.041572,84.9081646 747.435825,94.9566358 747.412488,98.8615459 L747.412488,98.8615459 L742.070798,836.326087 L742.061856,837.290248 C741.437512,873.820792 709.963361,904.131609 658.578364,925.261226 C610.776611,944.917406 547.055287,956 479.32372,956 C411.592152,956 347.870828,944.917406 300.069075,925.261226 C248.165038,903.918178 216.576118,873.207515 216.576118,836.181361 L216.576118,836.181361 L214.641945,573.261062 C213.847769,464.434317 213.151027,367.726032 212.55172,283.136116 L212.55172,283.136116 L211.205783,89.4321201 L211.166956,87.3688972 L211.1375,84.7791357 C211.1375,83.1174655 211.179082,82.0856113 211.349132,80.7917751 L211.349132,80.7917751 L211.418876,80.2925644 C213.7794,64.2690431 225.191057,51.2991585 243.120554,40.5625915 C257.90903,31.7069352 277.811082,24.031803 301.918108,17.6683814 C349.607481,5.08003517 412.357978,-2 478.999526,-2 Z M251.536579,137.665281 L252.085744,216.865063 C252.629162,294.445366 253.268897,384.005209 254.004949,485.544505 L254.004949,485.544505 L256.57557,836.033301 L256.582161,836.681509 C256.980934,853.21513 277.110457,872.570861 315.281269,888.266778 C357.939688,905.808009 416.540335,916 479.32372,916 C542.107105,916 600.707751,905.808009 643.36617,888.266778 C681.922546,872.412317 702.071322,852.823732 702.071322,836.181361 L702.071322,836.181361 L707.124964,137.913149 C693.936297,147.522677 674.712381,155.791721 650.538543,162.698518 C605.231079,175.643483 544.356231,183 479.499545,183 C414.643283,183 353.768672,175.643479 308.461336,162.698516 C284.079954,155.732402 264.733858,147.380547 251.536579,137.665281 Z M251.264527,98.58511 L251.3105,105 L251.5,105 C251.5,116.982677 273.667933,131.957222 313.955762,143.468038 C357.339488,155.863398 416.394289,163 479.499545,163 C542.605231,163 601.660273,155.863401 645.044131,143.468036 C683.427997,132.501238 705.364168,118.39037 707.351884,106.718307 L707.408223,99.0731045 C698.029211,112.781955 674.631185,123.914163 640.44059,132.575658 C597.867698,143.360637 540.570351,149.5 479.499544,149.5 C418.428753,149.5 361.131622,143.360641 318.558945,132.575655 C283.963779,123.811622 260.418181,112.518013 251.264527,98.58511 Z M478.999526,38 C415.61256,38 356.243057,44.6985633 312.127046,56.3436652 C300.442382,59.4280128 290.091766,62.798069 281.287952,66.3449563 C268.693028,72.7153854 262,79.2671152 262,85.0004741 C262,95.3035134 283.61414,108.249207 322.242549,118.034986 C363.51623,128.490895 419.597727,134.5 479.499544,134.5 C539.401384,134.5 595.483101,128.490891 636.757005,118.034984 C675.385669,108.249195 697,95.3034835 697,85.0004741 C697,79.8619912 691.623736,74.0661348 681.441875,68.3327559 C671.831452,64.1152978 660.067629,60.1175568 646.489486,56.5070516 L646.489486,56.5070516 L644.462946,55.9745657 C600.46815,44.551632 541.69321,38 478.999526,38 Z" id="Combined-Shape" fill="#000000" fill-rule="nonzero"></path>
        <path d="M643.5,80 C643.5,85.5231498 626.03945,90 604.5,90 C582.961445,90 565.5,85.5231498 565.5,80 C565.5,74.4768502 582.961445,70 604.5,70 C626.03945,70 643.5,74.4768502 643.5,80 Z" id="Stroke-5" fill="#000000"></path>
        <path d="M396.5,80 C396.5,85.5231498 379.038555,90 357.5,90 C335.96055,90 318.5,85.5231498 318.5,80 C318.5,74.4768502 335.96055,70 357.5,70 C379.038555,70 396.5,74.4768502 396.5,80 Z" id="Stroke-9" fill="#000000"></path>
        <path d="M517.5,55 C517.5,59.9710448 500.487073,64 479.5,64 C458.512927,64 441.5,59.9710448 441.5,55 C441.5,50.0289552 458.512927,46 479.5,46 C500.487073,46 517.5,50.0289552 517.5,55 Z" id="Stroke-11" fill="#000000"></path>
        <path d="M519.5,107 C519.5,113.074751 501.590781,118 479.5,118 C457.408324,118 439.5,113.074751 439.5,107 C439.5,100.924322 457.408324,96 479.5,96 C501.590781,96 519.5,100.924322 519.5,107 Z" id="Stroke-13" fill="#000000"></path>
    </g>
</svg>