<?xml version="1.0" encoding="UTF-8"?>
<svg width="960px" height="960px" viewBox="0 0 960 960" version="1.1" xmlns="http://www.w3.org/2000/svg" xmlns:xlink="http://www.w3.org/1999/xlink">
    <!-- Generator: Sketch 60.1 (88133) - https://sketch.com -->
    <title>echo-show-5</title>
    <desc>Created with Sketch.</desc>
    <g id="echo-show-5" stroke="none" stroke-width="1" fill="none" fill-rule="evenodd">
        <path d="M148.742276,208.489436 C159.094257,208.489436 211.390417,208.666956 296.939079,208.985938 L296.939079,208.985938 L796.182964,210.928294 C799.092594,210.943343 802.694358,211.278918 806.815259,212.129325 L806.815259,212.129325 L807.438834,212.261111 C814.878971,213.8704 822.281012,216.83725 829.24087,221.523373 C842.025169,230.131135 851.591333,243.431301 856.591543,261.329395 C860.217732,274.306736 873.320758,327.178001 893.55204,410.079777 L893.55204,410.079777 L906.860241,464.714097 L918.783087,513.796216 C924.84803,538.790204 931.050294,564.388007 937.275507,590.111547 L937.275507,590.111547 L958.05118,676.059065 C958.216151,676.760379 958.383557,677.562568 958.545464,678.46098 L958.545464,678.46098 L958.705245,679.391292 L958.776183,679.835088 C959.697794,685.736267 959.891396,692.399094 958.946926,699.596127 C957.657213,709.423971 954.354903,719.147504 948.645251,728.333079 C933.386683,752.880764 922.75146,758.871617 886.713792,764.735605 L886.713792,764.735605 L882.304,765.462 L882.045415,765.601414 C881.155815,766.034546 880.894167,766.161938 880.531165,766.312213 L880.531165,766.312213 L879.971866,766.535749 C879.030466,766.869825 878.80896,766.948431 878.458971,767.050074 L878.458971,767.050074 L878.074697,767.158554 C877.506222,767.303116 877.278832,767.36094 877.086402,767.404701 L877.086402,767.404701 L876.282724,767.567667 C876.038854,767.612966 875.802702,767.652963 875.549178,767.693583 L875.549178,767.693583 L235.932,870.294 L234.096116,870.647574 C215.6034,874.162602 206.122204,874.668189 194.855398,871.28555 L194.855398,871.28555 L193.973662,871.014083 L193.540452,870.875879 C182.014323,867.157452 172.38842,860.333597 155.538641,845.104426 L155.538641,845.104426 L153.195311,842.975124 C152.68645,842.510429 152.201947,842.019746 151.743739,841.505036 L151.743739,841.505036 L62.8286279,741.625777 C62.6575482,741.433602 62.4901929,741.238143 62.3266553,741.03951 C57.1729336,734.779782 53.5025092,727.435521 51.58858,719.554873 C46.1251618,697.0523 26.1348365,575.863628 7.63686312,446.127527 L7.63686312,446.127527 L6.50633496,438.174587 C2.65829476,411.022271 10.6833797,368.813796 30.0306715,309.58932 C30.0904416,309.406357 30.1528498,309.224265 30.2178767,309.043103 C30.3091268,308.788884 30.4287716,308.460072 30.5759158,308.060828 L30.5759158,308.060828 L31.7036585,305.058093 C32.5646785,302.800041 33.5336764,300.329765 34.6008597,297.694047 C37.9971979,289.305809 41.7069085,280.9062 45.6436154,272.981954 C48.6967056,266.836351 51.7765363,261.205438 54.8893315,256.180078 C60.6364126,246.901874 67.2484388,238.892639 74.2188239,232.114574 C76.7142785,229.687972 79.1080449,227.56691 81.3411985,225.748334 L81.3411985,225.748334 L81.6529129,225.495575 C82.7798602,224.585751 83.7301044,223.862287 84.4823944,223.31962 L84.4823944,223.31962 L84.8729749,223.041517 C88.7692746,220.311166 93.8190311,217.655565 102.106417,214.945486 C114.59909,210.860226 130.075516,208.489436 148.742276,208.489436 Z M118.336813,251.846578 L118.237121,251.87256 C116.947264,252.215215 115.714897,252.579776 114.539043,252.964295 C111.949983,253.81095 109.956795,254.654042 108.513411,255.413098 L108.513411,255.413098 L108.365218,255.491794 C108.271407,255.542122 108.187541,255.588141 108.113495,255.629625 L108.113495,255.629625 L107.861,255.775 L107.389123,256.135901 C107.272433,256.226459 107.148105,256.324161 107.016413,256.428977 L107.016413,256.428977 L106.599518,256.764737 C105.253139,257.861166 103.735396,259.206003 102.104711,260.791696 C97.3659383,265.399721 92.8184145,270.908197 88.8943084,277.243353 C86.49656,281.114327 84.0003304,285.678231 81.4665442,290.778521 C81.1109728,291.494255 80.7567202,292.216251 80.4039505,292.943874 C81.1312779,296.770584 82.0839017,300.923333 83.2789026,305.413944 L83.4942584,306.217147 C88.3979584,324.371128 105.249563,406.925229 130.544057,535.123653 L136.73065,566.533959 C145.300857,610.119074 154.239731,655.867802 163.172568,701.796663 L180.272,789.993 L180.602891,791.09033 L180.829104,791.821184 C181.408108,793.674328 182.094856,795.749383 182.884325,797.988692 C185.135823,804.375015 187.742775,810.753685 190.647878,816.647332 L191.223993,817.80138 C193.052476,821.41763 194.918701,824.668579 196.784055,827.494653 L196.920231,827.70017 C200.482395,830.338054 203.117694,831.842414 205.331788,832.640508 L205.331788,832.640508 L205.661018,832.75505 L206.115629,832.89909 C209.621222,833.943243 214.086667,833.716696 225.994245,831.471249 L225.994245,831.471249 L228.622919,830.966561 C228.842737,830.923681 229.063259,830.884498 229.284393,830.849026 L229.284393,830.849026 L244.246793,828.448941 C235.983033,820.436914 229.578063,809.93479 227.005292,799.996632 L226.344545,797.431374 C216.018193,757.140722 201.748381,692.250754 183.396857,603.552538 L180.401518,589.040043 C179.123536,582.833637 177.826378,576.516005 176.507863,570.077105 L170.905874,542.62507 C168.379226,530.203167 165.781235,517.3787 163.032837,503.766014 L135.464211,366.587208 C125.359826,316.508011 120.209304,291.968867 118.274201,285.0428 L118.211569,284.820839 C114.580388,272.086475 114.74906,260.949246 118.336813,251.846578 Z M139.906674,254.41305 C135.468808,259.300719 134.042588,267.015239 137.291714,278.790403 L137.586078,279.840559 C139.548127,286.965216 143.851985,307.246674 152.113108,348.00912 L179.950831,486.489052 C185.196843,512.522115 189.847806,535.467981 194.395847,557.72719 L197.224974,571.548207 L199.990539,585.006403 C220.128249,682.803424 235.557548,753.231021 246.366995,794.984204 C250.078104,809.319555 265.458937,823.641371 276.004914,822.415523 L276.322992,822.373601 L418.713625,800.462436 L859.083,729.823 L859.429048,729.663934 C860.233096,729.303225 860.958528,729.039164 861.713218,728.801757 L861.713218,728.801757 L862.0935,728.684951 C864.222208,728.045687 867.941033,727.314213 874.873325,726.14881 L874.873325,726.14881 L883.195514,724.773625 C895.477126,722.701113 901.201918,721.200665 904.495429,719.442661 L904.495429,719.442661 L904.788257,719.28211 C907.289472,717.873168 909.48846,715.437893 913.902109,708.447913 L913.902109,708.447913 L914.67334,707.216516 C919.246539,699.859243 920.238299,692.301849 919.255244,686.00723 C919.222864,685.799902 919.191699,685.620776 919.163331,685.471581 L919.163331,685.471581 L919.110793,685.213613 L901.347095,611.709489 C895.11939,585.966033 888.896621,560.273006 882.793233,535.108782 L882.793233,535.108782 L868.617371,476.733449 L856.996038,429.006919 C835.648777,341.472606 821.657672,284.943437 818.066965,272.09308 L818.066965,272.09308 L817.912116,271.549731 C815.457806,263.106679 811.674147,257.917436 806.900554,254.703341 C804.419129,253.032579 801.711398,251.94728 798.982453,251.357013 C798.025353,251.149994 797.153642,251.023848 796.40927,250.96201 L796.40927,250.96201 L796.248981,250.949582 L795.874446,250.929524 L795.509012,250.931996 L428.322075,249.485945 C282.936322,248.925 186.041897,248.571086 156.440672,248.501906 L156.440672,248.501906 L152.928142,248.497009 C148.462573,248.639909 143.188532,250.798556 139.906674,254.41305 Z M67.2846304,324.370249 L67.0229909,325.182573 C50.3955571,376.682114 43.5660661,412.876757 46.0313988,431.976703 L46.0313988,431.976703 L46.1105923,432.561851 C64.7264368,563.917884 85.3026745,688.878371 90.4589912,710.116063 C90.9490292,712.133806 91.8884385,714.013498 93.2071289,715.615184 L93.026,715.389 L160.032625,790.658436 L149.181096,734.644784 L141.105109,693.098815 C131.906222,645.842075 122.737219,598.968563 114.008154,554.648809 L107.189138,520.096512 C87.9544429,422.841982 73.9784373,354.063135 67.2846304,324.370249 Z M758.168266,298.000848 C770.116407,297.641597 780.664876,305.758984 783.646848,317.487466 L783.646848,317.487466 L862.265409,648.210486 L862.347586,648.545963 C865.849597,663.374382 856.103505,678.200519 841.132172,680.385224 L841.132172,680.385224 L311.639239,757.775609 C301.132099,759.310885 291.256012,752.471621 288.747701,742.058689 L288.747701,742.058689 L288.705907,741.875093 L200.629,331.214 L200.567118,330.943288 C197.754313,318.254264 206.939484,305.964404 219.826233,305.469443 L219.826233,305.469443 L220.221873,305.457987 C237.231147,305.125215 265.192677,304.721954 306.764911,304.19798 L306.764911,304.19798 L586.64566,300.833125 C668.940811,299.77938 723.968459,298.913896 752.239118,298.167415 L752.239118,298.167415 Z M758.898827,312.989428 L758.619061,312.994073 C733.996829,313.734355 682.15906,314.588065 602.443341,315.630046 L602.443341,315.630046 L564.0384,316.120105 L350.538277,318.663939 L287.745748,319.442996 C264.398009,319.747923 246.244708,320.008461 232.634689,320.236912 L232.634689,320.236912 L220.51498,320.455123 C216.988615,320.523973 214.337266,324.072377 215.23979,327.818769 L215.23979,327.818769 L215.281619,328.002508 L303.344,738.599 L303.392315,738.782095 C304.161808,741.509123 306.639784,743.228513 309.246492,742.961074 L309.246492,742.961074 L309.470203,742.933262 L838.964526,665.542673 C845.187879,664.634525 849.337578,658.232803 847.700072,651.793391 L847.700072,651.793391 L769.1,321.148 L769.032957,320.898369 C767.702765,316.174399 763.551864,312.978026 758.898827,312.989428 L758.898827,312.989428 Z" id="Combined-Shape" fill="#000000" fill-rule="nonzero"></path>
    </g>
</svg>