<?xml version="1.0" encoding="UTF-8"?>
<svg width="960px" height="960px" viewBox="0 0 960 960" version="1.1" xmlns="http://www.w3.org/2000/svg" xmlns:xlink="http://www.w3.org/1999/xlink">
    <!-- Generator: Sketch 60.1 (88133) - https://sketch.com -->
    <title>echo-v2-org</title>
    <desc>Created with Sketch.</desc>
    <g id="echo-v2-org" stroke="none" stroke-width="1" fill="none" fill-rule="evenodd">
        <path d="M511,62 C511,65.3144186 497.120602,68 480,68 C462.878485,68 449,65.3144186 449,62 C449,58.6865116 462.878485,56 480,56 C497.120602,56 511,58.6865116 511,62 Z" id="Stroke-1" fill="#000000"></path>
        <path d="M481.258002,2 C605.609619,2 683.838986,17.0243268 728.572646,47.3455663 C749.373613,61.4448171 763.139131,78.9016884 771.015361,99.7942106 C777.192751,116.180382 779.474683,132.967943 779.902055,155.706997 C779.957261,158.644306 779.982565,161.163649 779.993181,164.838208 L779.993181,164.838208 L780.000001,727.875059 C780.000001,746.457281 779.749312,756.501978 778.581225,769.10575 L778.581225,769.10575 L778.461334,770.375069 C776.679796,788.895659 773.154506,806.105195 767.255948,822.591542 C753.194398,861.893283 726.590015,894.068788 684.680593,917.318456 C636.601813,943.990636 569.738837,958 481.258002,958 C350.032521,958 265.929454,926.877132 220.357407,870.010461 C202.110181,847.240823 190.901246,821.409538 185.100114,792.792614 C181.007166,772.602146 180.006157,756.006532 180.000079,729.565451 L180.000079,169.343723 C180.032082,141.461795 180.825408,128.237772 184.621956,112.494374 L184.621956,112.494374 L184.994705,110.97877 C190.863287,87.5638496 202.836709,68.1955364 222.75089,52.446039 C265.798247,18.4012433 346.305477,2 481.258002,2 Z M736.136501,121.984907 L735.995819,122.107064 C731.80287,125.732308 726.486665,129.080035 720.177641,132.199712 C705.920212,139.249704 685.834734,145.452009 660.984029,150.632543 C612.441388,160.752046 547.699803,166.549978 480.358657,166.664924 L477.682766,166.666667 C409.60976,166.666667 344.048941,160.854263 295.015971,150.632543 L292.735625,150.151443 C268.934754,145.069526 249.641098,139.032781 235.822359,132.199712 L234.750562,131.662667 C230.267861,129.386342 226.308878,126.989137 222.923027,124.452309 C220.619771,135.230204 220.038,146.357898 220.000908,168.764412 L220.000908,168.764412 L220.000908,730.626999 C220.032132,753.944007 220.927002,768.193179 224.302725,784.845585 C228.90517,807.549399 237.577083,827.534048 251.571074,844.996325 C268.441266,866.047643 292.850142,883.117908 326.500568,895.570459 C365.967885,910.175587 417.140769,918 481.258002,918 C563.450929,918 623.783223,905.358968 665.276145,882.340357 C698.522685,863.896509 718.744798,839.43976 729.593931,809.11666 C734.288441,795.995601 737.161217,781.971466 738.645119,766.545057 C739.704002,755.537065 739.974595,746.742267 740,730.424074 L740,730.424074 L739.999143,168.471398 C739.995523,163.531115 739.97933,160.667339 739.930012,157.646294 L739.930012,157.646294 L739.870295,154.650815 C739.54566,141.253598 738.451708,130.946232 736.136501,121.984907 Z M725.950743,99.383891 L725.561764,99.7429566 C722.429297,102.581616 718.408166,105.213894 713.530863,107.702785 C700.929266,114.133387 682.108027,119.810848 658.141623,124.575402 C611.391392,133.869411 547.20388,139.249939 480.233285,139.35662 L477.797795,139.358238 C410.095465,139.358238 345.08168,133.963293 297.859095,124.575402 L295.757788,124.152636 C272.79089,119.476232 254.700683,113.944259 242.469604,107.7028 C238.327787,105.589251 234.80338,103.372303 231.916281,101.013382 C231.315122,101.981034 230.741645,102.965489 230.195035,103.966785 C232.224735,106.798742 236.899454,110.4208 244.687352,114.271747 C257.188017,120.453057 275.763586,126.189109 299.09755,131.053454 C346.206631,140.874109 409.61785,146.552377 475.680083,146.66496 L478.317234,146.666667 C545.099452,146.666667 609.31752,140.973307 656.90245,131.053454 L659.010574,130.608851 C681.356627,125.841061 699.190791,120.265745 711.312648,114.271747 L712.268953,113.792121 C722.297673,108.689663 726.838177,104.034725 726.996086,101.154364 L727.000282,101.020652 L727.063052,101.020325 C726.701724,100.470426 726.331019,99.9249829 725.950743,99.383891 Z M481.258002,42 C354.604356,42 281.649427,56.8626596 247.56361,83.820056 C245.292204,85.6164396 243.196224,87.4633599 241.263835,89.3711309 C243.129817,90.8785335 245.758498,92.5409681 249.287624,94.3418637 C260.432944,100.029265 278.053313,105.344455 300.783872,109.863309 C346.495851,118.950889 409.735296,124.25154 475.795134,124.356644 L478.203036,124.358238 C544.986197,124.358238 609.04326,119.04268 655.216839,109.86331 L657.18049,109.468369 C678.638243,105.102171 695.384281,100.018629 706.224135,94.5889207 L706.712784,94.3418787 C711.166169,92.0693134 714.185647,90.0172586 716.04866,88.2196035 L715.747477,87.9453819 C712.871527,85.3507733 709.675772,82.8597897 706.129695,80.4561978 C669.596825,55.6935947 598.296376,42 481.258002,42 Z" id="Combined-Shape" fill="#000000" fill-rule="nonzero"></path>
        <path d="M516,104 C516,107.865982 499.882899,111 480,111 C460.118024,111 444,107.865982 444,104 C444,100.134018 460.118024,97 480,97 C499.882899,97 516,100.134018 516,104 Z" id="Stroke-9" fill="#000000"></path>
        <path d="M401,82 C401,85.8659822 385.777929,89 366.999534,89 C348.222071,89 333,85.8659822 333,82 C333,78.1340178 348.222071,75 366.999534,75 C385.777929,75 401,78.1340178 401,82 Z" id="Stroke-11" fill="#000000"></path>
        <path d="M627,82 C627,85.8659822 611.777963,89 593.000461,89 C574.222037,89 559,85.8659822 559,82 C559,78.1340178 574.222037,75 593.000461,75 C611.777963,75 627,78.1340178 627,82 Z" id="Stroke-13" fill="#000000"></path>
    </g>
</svg>