<?xml version="1.0" encoding="UTF-8"?>
<svg width="960px" height="960px" viewBox="0 0 960 960" version="1.1" xmlns="http://www.w3.org/2000/svg" xmlns:xlink="http://www.w3.org/1999/xlink">
    <!-- Generator: Sketch 60.1 (88133) - https://sketch.com -->
    <title>echo-show-8</title>
    <desc>Created with Sketch.</desc>
    <g id="echo-show-8" stroke="none" stroke-width="1" fill="none" fill-rule="evenodd">
        <path d="M119.190662,96.4894356 C126.508304,96.4894356 155.135309,96.5796121 201.898255,96.7468015 L201.898255,96.7468015 L755.914528,98.8876093 C758.796869,98.9024344 762.360667,99.2343886 766.436219,100.075307 L766.436219,100.075307 L767.05292,100.205621 C774.408679,101.796453 781.726866,104.729311 788.608494,109.362159 C801.246855,117.870554 810.702399,131.015213 815.641186,148.691144 C819.562963,162.724505 841.354031,243.668968 875.843233,372.179785 L875.843233,372.179785 L957.90415,678.277739 C958.172958,679.325671 958.455275,680.653721 958.714914,682.240777 L958.714914,682.240777 L958.785135,682.680017 C959.696178,688.512772 959.887498,695.096202 958.95422,702.207028 C957.679853,711.916672 954.416753,721.523503 948.775424,730.597982 C933.713229,754.826594 923.16939,760.765198 887.641353,766.545508 L887.641353,766.545508 L883.361,767.25 L883.149451,767.363917 C882.33406,767.760865 882.046276,767.900965 881.72441,768.037277 L881.72441,768.037277 L881.076148,768.298021 C880.134947,768.631983 879.913488,768.710562 879.563637,768.812151 L879.563637,768.812151 L879.179525,768.920572 C878.61143,769.065017 878.384192,769.122796 878.192006,769.166497 L878.192006,769.166497 L877.390436,769.329025 C877.147624,769.374126 876.912778,769.413898 876.660823,769.454261 L876.660823,769.454261 L247.636,870.342 L245.0915,870.829857 C226.876493,874.255652 217.601998,874.629799 206.222387,871.041885 L206.222387,871.041885 L205.788802,870.903596 C194.140165,867.146136 184.47648,860.195709 167.168655,844.471186 L167.168655,844.471186 L165.990146,843.397751 C165.291652,842.759965 164.639282,842.073432 164.037949,841.343321 L164.037949,841.343321 L101.45365,765.356294 C96.3532268,759.162109 92.7207084,751.894641 90.8265236,744.096304 C85.4994024,722.157961 80.5919914,702.951858 78.2134313,695.467606 L78.2134313,695.467606 L77.7904623,694.168141 C73.2875313,680.113021 54.8441711,598.578485 26.4868132,467.84778 L26.4868132,467.84778 L21.8781588,446.571672 C16.7756134,422.983746 10.5434425,338.890377 2.74948391,190.774116 L2.74948391,190.774116 L2.083,178.043 L2.04846864,177.807002 L1.93468356,176.968977 C0.627068153,166.597527 2.25962429,154.958237 9.19715712,143.708576 C14.1046038,135.750832 21.2487051,129.019851 30.561872,123.916964 C44.1410984,116.477179 52.4069258,112.203062 57.1915852,109.98949 L57.1915852,109.98949 L58.124,109.563 L58.7937128,109.155096 C62.1733475,107.135742 66.7492668,105.015008 72.5972012,103.061259 L72.5972012,103.061259 L73.2294491,102.852314 C85.5481428,98.8253281 100.801316,96.4894356 119.190662,96.4894356 Z M73.1059724,146.718514 L72.9115859,146.81274 L71.4458233,147.529861 C67.4510212,149.507272 61.7516479,152.487595 54.0953032,156.64395 L54.0953032,156.64395 L49.7820614,158.996649 C48.492001,159.703501 47.3974681,160.426015 46.4688115,161.164674 C45.9189174,163.135629 45.5602225,165.9255 45.5602225,169.668077 C45.5602225,176.976377 46.980842,186.545948 50.1650843,198.591155 L50.8786257,201.283532 C56.0567317,221.096719 75.8633722,302.68826 106.379526,429.555989 L129.903062,527.477821 C142.448548,579.758435 155.547254,634.425057 168.661084,689.213991 L192.937481,790.710012 L193.314675,791.976404 C193.383831,792.203511 193.457489,792.4431 193.535614,792.69472 L193.928237,793.940908 C194.40437,795.431065 194.943535,797.04563 195.543416,798.757906 C197.742912,805.036058 200.289587,811.306526 203.127016,817.099173 C205.045748,821.016289 207.011958,824.521339 208.976626,827.539741 C212.847926,830.444902 215.613809,832.012779 217.910803,832.783234 L217.910803,832.783234 L218.068426,832.835094 C221.590323,833.97114 225.990857,833.76058 238.736729,831.322313 L238.736729,831.322313 L240.328548,831.014724 C240.54834,830.971856 240.768837,830.932681 240.989945,830.897218 L240.989945,830.897218 L255.665682,828.544056 C242.6716,823.652315 232.315656,812.998087 228.71296,799.083795 L227.209287,793.252078 C215.523269,747.753026 194.614711,662.50565 162.325736,529.28155 L102.52044,282.111541 C86.5312201,216.172877 77.7399333,180.394279 75.3752868,171.81394 L75.1743056,171.095787 C72.613179,162.115519 71.9691801,153.936442 73.1059724,146.718514 Z M119.190662,136.489436 C112.837841,136.489436 107.118516,136.826267 102.001515,137.437994 C100.039037,138.396265 98.2205814,139.687053 96.7916914,141.260512 C92.4686295,146.02096 91.0765646,153.54553 94.2551497,165.067835 L94.7791093,166.950812 C97.0268005,175.225679 103.540823,201.611405 114.991249,248.706255 L128.564252,304.68135 L175.153852,497.287916 C212.695348,652.331714 236.034506,747.571996 248.074464,794.070596 C251.006854,805.396041 262.786986,812.929396 275.470293,811.244438 L275.858831,811.189973 L865.493195,729.878127 C867.918185,729.326365 871.556119,728.663801 877.163916,727.73088 L877.163916,727.73088 L881.814335,726.967262 C895.816982,724.673191 901.867854,723.10773 905.202338,721.22965 L905.202338,721.22965 L905.338108,721.151927 C907.686985,719.785304 909.81765,717.387359 914.050668,710.683369 L914.050668,710.683369 L914.804744,709.479438 C919.25476,702.32127 920.219674,694.969403 919.264318,688.852942 C919.233132,688.653278 919.203211,688.481282 919.176109,688.338659 L919.176109,688.338659 L919.134,688.13 L845.398335,413.061857 C807.091312,270.285199 782.307809,178.172499 777.397906,160.465705 L777.397906,160.465705 L776.962805,158.915433 C774.571025,150.694245 770.898336,145.659241 766.270177,142.543473 C763.86681,140.925479 761.242576,139.873783 758.597589,139.301751 C757.670757,139.101305 756.827544,138.979298 756.109272,138.919636 C756.001559,138.910689 755.904887,138.903846 755.819923,138.898791 L755.819923,138.898791 L755.600829,138.888677 L755.249795,138.891248 L208.255579,136.769864 C176.30436,136.65489 152.19723,136.573218 136.863706,136.528687 L136.863706,136.528687 Z M47.1814944,269.67179 L47.2153785,270.242743 C52.8005768,365.321302 57.4588038,421.86504 60.9738853,438.114476 C91.4062047,578.796279 112.141254,670.738387 115.87653,681.943957 L115.87653,681.943957 L116.236152,683.046577 C118.681905,690.696063 122.65887,705.992687 127.335059,724.993082 L127.335059,724.993082 L129.696653,734.656335 C130.166647,736.591294 131.067653,738.393909 132.331007,739.928184 L132.331007,739.928184 L171.643554,787.660436 L136.475081,640.680845 C127.307252,602.406205 118.233092,564.554596 109.439341,527.911599 L85.889209,429.88972 C69.722158,362.686712 56.6088613,308.395033 47.1814944,269.67179 Z M727.196591,173.500703 C739.001592,173.146004 749.424537,181.161182 752.37132,192.743147 L752.37132,192.743147 L868.74707,650.097474 C872.510894,664.888163 862.835227,679.804322 847.907625,681.981103 L847.907625,681.981103 L312.314356,761.278089 C301.920808,762.795703 292.150529,756.034448 289.670192,745.744842 L289.670192,745.744842 L159.150713,206.280495 C156.062508,193.470285 165.422261,180.952531 178.505907,180.697261 C196.632688,180.342874 228.292951,179.912451 276.587065,179.346813 L276.587065,179.346813 L547.183077,176.312036 L597.397483,175.692056 C659.049633,174.898912 700.983174,174.218555 723.290027,173.612161 L723.290027,173.612161 Z M727.924069,188.485316 L727.64707,188.489489 C704.45157,189.190835 654.915274,189.981178 578.754123,190.929062 L578.754123,190.929062 L546.1587,191.325297 L264.68235,194.488611 C232.448612,194.873532 208.452878,195.192937 191.601788,195.467703 L191.601788,195.467703 L178.798809,195.694401 C175.41275,195.760465 172.865571,199.167067 173.731516,202.759112 L173.731516,202.759112 L304.25103,742.223602 C304.932146,745.049187 307.494985,746.82273 310.132299,746.437657 L310.132299,746.437657 L845.726957,667.140468 C851.770642,666.259156 855.800724,660.046319 854.210327,653.796543 L854.210327,653.796543 L737.834456,196.44174 C736.605818,191.61273 732.365765,188.352156 727.64707,188.489489 Z" id="Combined-Shape" fill="#000000" fill-rule="nonzero"></path>
    </g>
</svg>