<?xml version="1.0" encoding="UTF-8"?>
<svg width="960px" height="960px" viewBox="0 0 960 960" version="1.1" xmlns="http://www.w3.org/2000/svg" xmlns:xlink="http://www.w3.org/1999/xlink">
    <!-- Generator: Sketch 60.1 (88133) - https://sketch.com -->
    <title>eco-dot1</title>
    <desc>Created with Sketch.</desc>
    <g id="eco-dot1" stroke="none" stroke-width="1" fill="none" fill-rule="evenodd">
        <path d="M481.499503,157 C606.744386,157 724.328673,173.217222 811.908417,201.77505 C855.700692,216.054748 891.109131,233.144907 916.179828,252.472685 C944.322585,274.16881 960,299.15062 960,326.506601 L960,326.506601 L960,327.431437 L959.965997,331.469932 C959.772227,345.581207 958.750739,359.398609 956.912475,372.908811 L956.912475,372.908811 L956.892,373.045 L951.174582,455.978456 C951.093727,457.157587 951.01237,458.36282 950.93051,459.593981 L950.93051,459.593981 L950.566978,465.17929 C949.711315,478.595056 948.816967,494.467554 947.857748,513.010815 L947.857748,513.010815 L947.125762,527.422373 C946.743128,535.08515 942.274524,630.390438 941.727511,636.908967 C936.618008,697.78334 880.324605,751.264519 789.545167,789.840191 C703.153392,826.551377 590.373995,847.523528 474.707396,847.523528 C353.441424,847.523528 237.259234,825.571964 150.359816,786.742647 C57.6938948,745.33668 3,686.982096 3,619.634425 L3,619.634425 L3,326.506601 C3,299.15064 18.6773433,274.168832 46.8199863,252.472709 C71.8905982,233.144919 107.298923,216.054754 151.09107,201.775056 C238.670581,173.217218 356.254636,157 481.499503,157 Z M42.9989358,533.259211 L43,619.634425 C43,720.902947 236.855536,807.523528 474.707396,807.523528 C585.209115,807.523528 692.687222,787.53719 773.901462,753.026139 C852.479771,719.635195 898.296755,676.107069 901.867642,633.56369 C902.252732,628.974733 905.199807,566.806058 906.546796,538.52697 C884.393856,563.151817 845.342922,585.035025 792.646368,602.818643 C709.27525,630.954072 596.86083,647 477.000505,647 C357.139707,647 244.725023,630.954077 161.353762,602.818644 C104.925148,583.77559 64.1434024,560.03171 42.9989358,533.259211 Z M42.9975111,372.962763 L42.9973069,501.384306 C51.3934401,533.363253 94.8187675,564.533846 166.150079,588.606138 C247.864019,616.182271 358.680015,632 477.000505,632 C595.320519,632 706.136249,616.182267 787.850044,588.606139 C852.8967,566.654706 894.738062,538.800655 907.972643,509.813601 C908.892823,492.024028 909.757779,476.675387 910.58946,463.555316 L910.58946,463.555316 L911.01884,456.937164 C911.074569,456.099013 911.130079,455.272487 911.185361,454.457788 L911.185361,454.457788 L916.532151,376.947102 C893.781724,401.87829 854.071662,423.86175 800.748265,441.695881 C716.363364,469.918602 602.683389,486 481.499515,486 C360.31566,486 246.635914,469.918607 162.251242,441.695878 C106.10498,422.917577 65.0516061,399.53896 42.9975111,372.962763 Z M908.709739,300.034914 L908.927604,300.486534 C912.278911,307.623268 914,314.971118 914,322.5 C914,362.125696 866.324391,396.736633 784.221784,421.946989 C704.266433,446.49801 596.455495,460.5 481.500484,460.5 C366.54502,460.5 258.733829,446.498015 178.77834,421.94699 C96.6756395,396.736645 49,362.12571 49,322.5 C49,314.811908 50.7946492,307.312586 54.2871882,300.034067 C52.2800598,302.460291 50.5335977,304.880341 49.0546323,307.288841 C46.037782,313.679359 44.5,320.103171 44.5,326.5 C44.5,360.91522 89.0109007,396.111461 168.594912,422.728594 C250.785803,450.217606 362.351918,466 481.499515,466 C600.647136,466 712.213486,450.2176 794.404612,422.728591 C873.988905,396.111444 918.5,360.915191 918.5,326.5 C918.5,320.103176 916.962211,313.679368 913.94724,307.288683 C912.466368,304.880362 910.719898,302.460313 908.709739,300.034914 Z M481.500484,199.5 C367.952456,199.5 261.603288,213.312105 183.181327,237.392247 C106.906652,260.813046 64,291.961854 64,322.5 C64,353.038146 106.906652,384.186954 183.181327,407.607753 C261.603288,431.687895 367.952456,445.5 481.500484,445.5 C595.048057,445.5 701.396969,431.687891 779.818791,407.607754 C856.093375,384.186946 899,353.038136 899,322.5 C899,291.961864 856.093375,260.813054 779.818791,237.392246 C701.396969,213.312109 595.048057,199.5 481.500484,199.5 Z M734.499503,276.5 C755.667701,276.5 775.568735,278.700438 790.49036,282.601283 C798.125629,284.597312 804.362639,287.010803 808.931448,289.834763 C814.862923,293.500981 818.5,298.147777 818.5,303.999494 C818.5,309.85116 814.862976,314.497988 808.931561,318.164313 C804.36275,320.988387 798.125728,323.402016 790.490484,325.398179 C775.568666,329.299346 755.667551,331.5 734.499503,331.5 C713.331467,331.5 693.430579,329.299349 678.508987,325.39817 C670.873863,323.402004 664.636948,320.988364 660.068215,318.164271 C654.136934,314.497939 650.5,309.851103 650.5,303.999494 C650.5,298.147833 654.136986,293.501029 660.068328,289.834805 C664.637059,287.010825 670.873963,284.597325 678.509111,282.601291 C693.43051,278.700436 713.331317,276.5 734.499503,276.5 Z M229.500497,276.5 C250.668235,276.5 270.569014,278.700444 285.4905,282.601287 C293.125713,284.597319 299.362687,287.010812 303.931475,289.83477 C309.862933,293.500992 313.5,298.147784 313.5,303.999494 C313.5,309.851152 309.862985,314.497976 303.931588,318.164306 C299.362798,320.988378 293.125812,323.402009 285.490624,325.398174 C270.568945,329.299341 250.668085,331.5 229.500497,331.5 C208.332001,331.5 188.430859,329.299355 173.509127,325.398174 C165.873947,323.402011 159.636997,320.988373 155.068242,318.164278 C149.136943,314.49795 145.5,309.851111 145.5,303.999494 C145.5,298.147826 149.136996,293.501018 155.068355,289.834798 C159.637108,287.010816 165.874047,284.597317 173.509251,282.601287 C188.430789,278.70043 208.331851,276.5 229.500497,276.5 Z M734.499503,291.5 L733.431336,291.501969 C713.872125,291.574114 695.646213,293.625301 682.303012,297.113573 C675.99192,298.763462 671.072663,300.667072 667.954999,302.594132 C667.149806,303.09183 666.517901,303.559015 666.06058,303.968071 L666.06058,303.968071 L666.026,303.999 L666.060652,304.031064 C666.467172,304.394693 667.011635,304.804251 667.69313,305.240343 L667.69313,305.240343 L667.955112,305.405084 C671.072799,307.332235 675.992068,309.235955 682.303136,310.885954 C695.889068,314.43793 714.53674,316.5 734.499503,316.5 C754.462296,316.5 773.110215,314.437924 786.696398,310.885945 C793.007615,309.235938 797.927017,307.332206 801.044801,305.405042 C801.850039,304.907308 802.481984,304.440089 802.939339,304.030999 L802.939339,304.030999 L802.973,303.999 L802.756742,303.809547 C802.374525,303.486971 801.891054,303.132687 801.306902,302.758908 L801.306902,302.758908 L801.044914,302.594174 C797.927153,300.667101 793.007763,298.76348 786.696522,297.113581 C773.110466,293.561884 754.462536,291.5 734.499503,291.5 L734.499503,291.5 Z M229.500497,291.5 L228.432305,291.501969 C208.872637,291.574113 190.646464,293.625299 177.303121,297.113577 C170.991974,298.763466 166.072684,300.667076 162.955003,302.594139 C162.149807,303.091837 161.517901,303.559022 161.060579,303.968077 L161.060579,303.968077 L161.026,303.999 L161.060651,304.031058 C161.467172,304.394686 162.011636,304.804244 162.693133,305.240336 L162.693133,305.240336 L162.955117,305.405077 C166.07282,307.33223 170.992122,309.235952 177.303245,310.88595 C190.889321,314.437932 209.537261,316.5 229.500497,316.5 C249.462817,316.5 268.110469,314.437922 281.696507,310.88595 C288.007669,309.235941 292.927038,307.33221 296.044805,305.405049 C296.85004,304.907315 297.481983,304.440095 297.939337,304.031005 L297.939337,304.031005 L297.973,303.999 L297.756741,303.809541 C297.374525,303.486965 296.891055,303.13268 296.306905,302.758901 L296.306905,302.758901 L296.044918,302.594167 C292.927174,300.667097 288.007817,298.763476 281.696631,297.113577 C268.11072,293.561886 249.463058,291.5 229.500497,291.5 L229.500497,291.5 Z" id="Combined-Shape" fill="#000000" fill-rule="nonzero"></path>
    </g>
</svg>