<?xml version="1.0" encoding="UTF-8"?>
<svg width="960px" height="960px" viewBox="0 0 960 960" version="1.1" xmlns="http://www.w3.org/2000/svg" xmlns:xlink="http://www.w3.org/1999/xlink">
    <!-- Generator: Sketch 60.1 (88133) - https://sketch.com -->
    <title>eco-dot-v1-org</title>
    <desc>Created with Sketch.</desc>
    <g id="eco-dot-v1-org" stroke="none" stroke-width="1" fill="none" fill-rule="evenodd">
        <path d="M481.499503,157 C606.744386,157 724.328673,173.217222 811.908417,201.77505 C855.700692,216.054748 891.109131,233.144907 916.179828,252.472685 C944.322585,274.16881 960,299.15062 960,326.506601 L960,326.506601 L960,327.431437 L959.965997,331.469932 C959.772227,345.581207 958.750739,359.398609 956.912475,372.908811 L956.912475,372.908811 L956.892,373.045 L951.25527,454.808031 C946.488486,523.580919 943.155848,570.613304 941.906071,586.202934 L941.906071,586.202934 L941.727511,588.385439 C936.618008,649.259813 880.324605,702.740992 789.545167,741.316663 C703.153392,778.027849 590.373995,799 474.707396,799 C353.441424,799 237.259234,777.048436 150.359816,738.219119 C57.6938948,696.813152 3,638.458568 3,571.110897 L3,571.110897 L3,326.506601 C3,299.15064 18.6773433,274.168832 46.8199863,252.472709 C71.8905982,233.144919 107.298923,216.054754 151.09107,201.775056 C238.670581,173.217218 356.254636,157 481.499503,157 Z M42.9975111,372.962763 L43,571.110897 C43,672.37942 236.855536,759 474.707396,759 C585.209115,759 692.687222,739.013663 773.901462,704.502611 C852.479771,671.111667 898.296755,627.583542 901.867642,585.040162 C902.905667,572.67046 906.224683,525.955201 911.053019,456.340044 L911.053019,456.340044 L916.532151,376.947102 C893.781724,401.87829 854.071662,423.86175 800.748265,441.695881 C716.363364,469.918602 602.683389,486 481.499515,486 C360.31566,486 246.635914,469.918607 162.251242,441.695878 C106.10498,422.917577 65.0516061,399.53896 42.9975111,372.962763 Z M908.709739,300.034914 L908.927604,300.486534 C912.278911,307.623268 914,314.971118 914,322.5 C914,362.125696 866.324391,396.736633 784.221784,421.946989 C704.266433,446.49801 596.455495,460.5 481.500484,460.5 C366.54502,460.5 258.733829,446.498015 178.77834,421.94699 C96.6756395,396.736645 49,362.12571 49,322.5 C49,314.811908 50.7946492,307.312586 54.2871882,300.034067 C52.2800598,302.460291 50.5335977,304.880341 49.0546323,307.288841 C46.037782,313.679359 44.5,320.103171 44.5,326.5 C44.5,360.91522 89.0109007,396.111461 168.594912,422.728594 C250.785803,450.217606 362.351918,466 481.499515,466 C600.647136,466 712.213486,450.2176 794.404612,422.728591 C873.988905,396.111444 918.5,360.915191 918.5,326.5 C918.5,320.103176 916.962211,313.679368 913.94724,307.288683 C912.466368,304.880362 910.719898,302.460313 908.709739,300.034914 Z M481.500484,199.5 C367.952456,199.5 261.603288,213.312105 183.181327,237.392247 C106.906652,260.813046 64,291.961854 64,322.5 C64,353.038146 106.906652,384.186954 183.181327,407.607753 C261.603288,431.687895 367.952456,445.5 481.500484,445.5 C595.048057,445.5 701.396969,431.687891 779.818791,407.607754 C856.093375,384.186946 899,353.038136 899,322.5 C899,291.961864 856.093375,260.813054 779.818791,237.392246 C701.396969,213.312109 595.048057,199.5 481.500484,199.5 Z M482.999505,359.5 C505.633938,359.5 526.908443,361.804472 542.843119,365.885283 C550.971017,367.966807 557.600662,370.479907 562.440434,373.410256 C568.684613,377.190933 572.5,381.965845 572.5,388 C572.5,394.034155 568.684613,398.809067 562.440434,402.589744 C557.600662,405.520093 550.971017,408.033193 542.843119,410.114717 C526.908443,414.195528 505.633938,416.5 482.999505,416.5 C460.365085,416.5 439.090808,414.195531 423.156357,410.11471 C415.02858,408.033182 408.399042,405.520073 403.559347,402.589706 C397.3153,398.809023 393.5,394.034102 393.5,388 C393.5,381.965898 397.3153,377.190977 403.559347,373.410294 C408.399042,370.479927 415.02858,367.966818 423.156357,365.88529 C439.090808,361.804469 460.365085,359.5 482.999505,359.5 Z M482.999505,374.5 L481.891141,374.501933 C460.856841,374.575344 441.248545,376.735966 426.877764,380.41633 C420.056664,382.163217 414.727878,384.183241 411.328479,386.241529 C410.308137,386.859332 409.531814,387.439254 409.0033,387.938689 L409.0033,387.938689 L408.94,388 L409.0033,388.061311 C409.483767,388.515342 410.169035,389.035893 411.056257,389.59095 L411.056257,389.59095 L411.328479,389.758471 C414.727878,391.816759 420.056664,393.836783 426.877764,395.58367 C441.500664,399.328602 461.546463,401.5 482.999505,401.5 C504.452576,401.5 524.49862,399.328596 539.12177,395.583662 C545.943016,393.836767 551.271934,391.816733 554.67143,389.758432 C555.691808,389.140622 556.46816,388.560691 556.996695,388.061248 L556.996695,388.061248 L557.059,388 L556.996695,387.938752 C556.516209,387.484713 555.830915,386.964155 554.943662,386.40909 L554.943662,386.40909 L554.67143,386.241568 C551.271934,384.183267 545.943016,382.163233 539.12177,380.416338 C524.49862,376.671404 504.452576,374.5 482.999505,374.5 L482.999505,374.5 Z M734.499503,276.5 C755.667701,276.5 775.568735,278.700438 790.49036,282.601283 C798.125629,284.597312 804.362639,287.010803 808.931448,289.834763 C814.862923,293.500981 818.5,298.147777 818.5,303.999494 C818.5,309.85116 814.862976,314.497988 808.931561,318.164313 C804.36275,320.988387 798.125728,323.402016 790.490484,325.398179 C775.568666,329.299346 755.667551,331.5 734.499503,331.5 C713.331467,331.5 693.430579,329.299349 678.508987,325.39817 C670.873863,323.402004 664.636948,320.988364 660.068215,318.164271 C654.136934,314.497939 650.5,309.851103 650.5,303.999494 C650.5,298.147833 654.136986,293.501029 660.068328,289.834805 C664.637059,287.010825 670.873963,284.597325 678.509111,282.601291 C693.43051,278.700436 713.331317,276.5 734.499503,276.5 Z M229.500497,276.5 C250.668235,276.5 270.569014,278.700444 285.4905,282.601287 C293.125713,284.597319 299.362687,287.010812 303.931475,289.83477 C309.862933,293.500992 313.5,298.147784 313.5,303.999494 C313.5,309.851152 309.862985,314.497976 303.931588,318.164306 C299.362798,320.988378 293.125812,323.402009 285.490624,325.398174 C270.568945,329.299341 250.668085,331.5 229.500497,331.5 C208.332001,331.5 188.430859,329.299355 173.509127,325.398174 C165.873947,323.402011 159.636997,320.988373 155.068242,318.164278 C149.136943,314.49795 145.5,309.851111 145.5,303.999494 C145.5,298.147826 149.136996,293.501018 155.068355,289.834798 C159.637108,287.010816 165.874047,284.597317 173.509251,282.601287 C188.430789,278.70043 208.331851,276.5 229.500497,276.5 Z M734.499503,291.5 L733.431336,291.501969 C713.872125,291.574114 695.646213,293.625301 682.303012,297.113573 C675.99192,298.763462 671.072663,300.667072 667.954999,302.594132 C667.149806,303.09183 666.517901,303.559015 666.06058,303.968071 L666.06058,303.968071 L666.026,303.999 L666.060652,304.031064 C666.467172,304.394693 667.011635,304.804251 667.69313,305.240343 L667.69313,305.240343 L667.955112,305.405084 C671.072799,307.332235 675.992068,309.235955 682.303136,310.885954 C695.889068,314.43793 714.53674,316.5 734.499503,316.5 C754.462296,316.5 773.110215,314.437924 786.696398,310.885945 C793.007615,309.235938 797.927017,307.332206 801.044801,305.405042 C801.850039,304.907308 802.481984,304.440089 802.939339,304.030999 L802.939339,304.030999 L802.973,303.999 L802.756742,303.809547 C802.374525,303.486971 801.891054,303.132687 801.306902,302.758908 L801.306902,302.758908 L801.044914,302.594174 C797.927153,300.667101 793.007763,298.76348 786.696522,297.113581 C773.110466,293.561884 754.462536,291.5 734.499503,291.5 L734.499503,291.5 Z M229.500497,291.5 L228.432305,291.501969 C208.872637,291.574113 190.646464,293.625299 177.303121,297.113577 C170.991974,298.763466 166.072684,300.667076 162.955003,302.594139 C162.149807,303.091837 161.517901,303.559022 161.060579,303.968077 L161.060579,303.968077 L161.026,303.999 L161.060651,304.031058 C161.467172,304.394686 162.011636,304.804244 162.693133,305.240336 L162.693133,305.240336 L162.955117,305.405077 C166.07282,307.33223 170.992122,309.235952 177.303245,310.88595 C190.889321,314.437932 209.537261,316.5 229.500497,316.5 C249.462817,316.5 268.110469,314.437922 281.696507,310.88595 C288.007669,309.235941 292.927038,307.33221 296.044805,305.405049 C296.85004,304.907315 297.481983,304.440095 297.939337,304.031005 L297.939337,304.031005 L297.973,303.999 L297.756741,303.809541 C297.374525,303.486965 296.891055,303.13268 296.306905,302.758901 L296.306905,302.758901 L296.044918,302.594167 C292.927174,300.667097 288.007817,298.763476 281.696631,297.113577 C268.11072,293.561886 249.463058,291.5 229.500497,291.5 L229.500497,291.5 Z M483,214.5 L484.076263,214.501981 C503.068447,214.571938 520.88484,216.491848 534.31637,219.849796 C541.340186,221.605785 547.084855,223.731591 551.315153,226.231922 C556.973317,229.576197 560.5,233.88461 560.5,239.5 C560.5,245.1155 556.973355,249.424118 551.315215,252.768451 C547.084893,255.26885 541.340206,257.394642 534.316304,259.150584 C520.631647,262.571684 502.394894,264.5 483,264.5 C463.604656,264.5 445.367875,262.571692 431.683305,259.15058 C424.659466,257.394636 418.914849,255.268836 414.684583,252.768415 C409.026562,249.424078 405.5,245.115444 405.5,239.5 C405.5,233.884666 409.0266,229.576236 414.684644,226.231959 C418.914888,223.731606 424.659486,221.605791 431.683239,219.849801 C445.368107,216.428483 463.604981,214.5 483,214.5 L483,214.5 Z M483,229.5 L481.987875,229.50185 C464.129666,229.56717 447.492752,231.358979 435.321374,234.401913 C429.583937,235.836314 425.120212,237.488136 422.317086,239.144969 C422.150346,239.243523 421.992689,239.340233 421.844147,239.434702 L421.844147,239.434702 L421.743,239.499 L421.844224,239.565747 L422.073861,239.70908 L422.317147,239.855477 C425.120204,241.512305 429.58387,243.164088 435.321309,244.598435 C447.722052,247.698593 464.758679,249.5 483,249.5 C501.240876,249.5 518.277483,247.698585 530.678334,244.598431 C536.415868,243.164074 540.879635,241.51228 543.682775,239.85544 C543.849516,239.756885 544.007175,239.660174 544.155719,239.565704 L544.155719,239.565704 L544.256,239.499 L543.92614,239.291407 L543.682836,239.145006 C541.072953,237.602426 537.023603,236.064191 531.847043,234.701725 L531.847043,234.701725 L530.678268,234.401917 C518.277134,231.301573 501.240492,229.5 483,229.5 L483,229.5 Z" id="Combined-Shape" fill="#000000" fill-rule="nonzero"></path>
    </g>
</svg>