<?xml version="1.0" encoding="UTF-8"?>
<svg width="960px" height="960px" viewBox="0 0 960 960" version="1.1" xmlns="http://www.w3.org/2000/svg" xmlns:xlink="http://www.w3.org/1999/xlink">
    <!-- Generator: Sketch 60.1 (88133) - https://sketch.com -->
    <title>Studio</title>
    <desc>Created with Sketch.</desc>
    <g id="Studio" stroke="none" stroke-width="1" fill="none" fill-rule="evenodd">
        <path d="M462.979261,1.00103709 C561.414913,1.20529158 633.353446,4.57768955 683.357576,10.6728374 L684.912426,10.8641165 C727.598658,16.1639856 753.395351,23.2980091 769.235805,33.1099691 C802.64317,53.8032971 822.722234,77.1811738 833.135756,106.981019 C841.392107,130.6078 843.423438,154.43229 842.91708,198.826771 L835.254063,815.343625 L835.252798,816.209666 C835.136518,839.205579 831.404192,859.760576 822.646982,878.22711 C811.63196,901.454743 793.249808,919.681708 767.030246,931.686911 C734.750691,946.466816 642.504351,954.858996 484.410855,958.461452 L479.04092,958.580379 C469.452338,958.756871 433.530324,958.691872 423.876464,958.472434 C265.476892,954.87192 173.101107,946.489565 140.771866,931.686911 C114.552304,919.681708 96.1701526,901.454743 85.1551308,878.22711 C76.3979204,859.760576 72.6655948,839.205579 72.5493147,816.209666 L72.546,815.206 L64.8855909,198.87312 C64.3830255,154.8953 66.3671546,131.100981 74.4155517,107.704371 L74.6663565,106.981019 C85.079878,77.1811738 105.158943,53.8032971 138.566307,33.1099691 C154.248357,23.3961287 179.688516,16.3069339 221.61416,11.0236636 L222.889687,10.8641165 C273.964625,4.52271601 348.296376,1.06946791 450.882671,1.00103709 L462.979261,1.00103709 Z M779.000059,873.504988 L778.109438,873.791351 C729.646788,889.262419 668.668936,894.454888 522.233645,899.31084 L516.645835,899.494637 C497.316323,900.125367 413.331546,900.15982 393.044652,899.555279 L392.449527,899.536764 C240.043152,894.58053 178.124268,889.432486 128.803239,873.507354 C135.759272,882.460342 145.163843,889.704298 157.424188,895.317966 C182.202129,906.663091 271.749598,914.879767 420.266885,918.378197 L425.692389,918.501331 C436.121779,918.695046 470.20864,918.749218 478.470834,918.584054 L478.720565,918.578821 C632.523097,915.196592 725.095673,906.894001 750.377924,895.317966 C762.639177,889.703882 772.044233,882.459269 779.000059,873.504988 Z M770.688193,83.7334276 L770.66932,83.7587057 C770.544212,83.9224833 770.428942,84.0720823 770.323717,84.2071934 C761.688007,95.2956621 733.172804,99.9188657 678.430417,102.519216 L674.592858,102.695565 C634.566195,104.474103 582.921118,104.900912 511.300118,104.351471 L499.048597,104.254849 C482.475305,104.156807 432.011479,104.080524 406.875494,104.08896 L402.106042,104.091887 C266.512234,104.220355 164.167769,97.9593692 141.110765,87.1112896 C140.852917,86.989975 140.597278,86.8626699 140.343692,86.7295541 C139.031712,86.0408507 137.777293,85.2070802 136.563176,84.2380521 C124.875725,94.9628837 117.360758,106.370487 112.645931,119.557629 L112.427176,120.176494 C106.088753,138.314835 104.389356,158.967768 104.899938,199.829108 L104.916084,201.073534 L112.546118,814.970767 L112.546504,815.095054 C112.546504,827.17353 113.733199,838.025332 116.328146,847.693544 C166.891271,868.062371 220.826918,873.857904 387.556039,879.365649 L393.099581,879.547331 C411.842463,880.156847 496.900948,880.128276 515.993574,879.505276 C685.974261,873.958737 740.450571,868.24495 791.473428,847.693742 C793.984927,838.337926 795.177259,827.874957 795.251866,816.264857 L795.255994,814.970767 L802.917215,198.577898 C803.37325,158.959233 801.684385,138.550379 795.565593,120.726928 L795.374937,120.176494 C790.602568,106.519647 782.875068,94.7735443 770.688193,83.7334276 Z M747.499535,691.556533 C758.546617,691.556533 766.076694,698.815636 769.360017,709.474084 C771.680383,717.006544 771.851153,726.26624 770.129786,734.060404 C768.216497,742.723567 765.505836,749.703088 760.818559,755.893161 C754.545948,764.176846 745.508469,769.563907 733.676907,771.371154 C733.379035,771.416653 727.82802,772.349035 723.335281,773.079047 L723.335281,773.079047 L718.817371,773.796445 C711.560039,774.916804 703.933755,775.968102 695.549104,776.966766 L695.549104,776.966766 L692.725599,777.297727 C670.237172,779.891783 645.119197,781.790453 616.909591,782.752694 C595.478814,783.483707 552.375479,784.426009 487.55459,785.581044 L487.55459,785.581044 L454.035133,786.165426 L453.631434,786.165426 C369.926067,784.736549 315.779932,783.601614 290.892521,782.752694 L290.892521,782.752694 L289.057143,782.688614 C262.812742,781.751175 239.261088,780.000046 218.024737,777.632118 L218.024737,777.632118 L215.076514,777.297727 C205.092198,776.146029 196.198998,774.925173 187.778535,773.609077 L187.778535,773.609077 L187.036896,773.492286 L173.505072,771.272734 C161.97739,769.373996 153.146118,764.031518 146.983553,755.893161 C142.296277,749.703088 139.585616,742.723567 137.672327,734.060404 C135.950959,726.26624 136.121729,717.006544 138.442095,709.474084 C141.725418,698.815636 149.255495,691.556533 160.302578,691.556533 C164.304029,691.556533 167.829301,691.976707 174.902225,693.197649 L174.902225,693.197649 L182.561602,694.54803 C191.167323,696.059563 195.425277,696.737118 202.436865,697.678305 L202.436865,697.678305 L205.806527,698.121809 C219.712397,699.906591 235.458467,701.323011 254.182116,702.335029 L254.182116,702.335029 L256.814157,702.473613 C297.879475,704.579102 359.293771,706.002969 441.008445,706.741399 L441.008445,706.741399 L453.825,706.85 L456.365681,706.831013 C539.850254,706.149811 603.007007,704.781989 645.786736,702.731431 L645.786736,702.731431 L649.697514,702.539214 L653.619997,702.335029 C672.343646,701.323011 688.089716,699.906591 701.995585,698.121809 L701.995585,698.121809 L703.924111,697.870383 C713.145819,696.649314 717.369965,695.949836 730.282361,693.656638 L730.282361,693.656638 L733.387642,693.113761 C739.654935,692.039989 743.080884,691.617653 746.667609,691.562797 L746.667609,691.562797 Z M747.499535,711.556533 C744.99108,711.556533 742.267985,711.881331 736.510855,712.87049 L736.510855,712.87049 L730.444968,713.939211 C720.800717,715.642048 716.229725,716.388258 709.008167,717.368028 L709.008167,717.368028 L705.553639,717.82817 C690.90567,719.738033 674.36451,721.242679 654.711415,722.305227 L654.711415,722.305227 L650.711204,722.513509 C609.74473,724.578578 549.337462,725.978864 469.440233,726.718035 L469.440233,726.718035 L453.920544,726.851665 C368.046987,726.16933 303.348236,724.768925 259.772559,722.646386 L259.772559,722.646386 L255.790068,722.447377 C234.492108,721.355394 216.808112,719.75706 201.252667,717.697325 L201.252667,717.697325 L200.242822,717.563032 C193.468788,716.658095 189.200599,716.000366 181.969222,714.747107 L181.969222,714.747107 L172.604854,713.098427 C166.388624,712.010226 163.412727,711.611232 160.857766,711.561882 L160.857766,711.561882 L160.302578,711.556533 C159.270279,711.556533 158.498993,712.300063 157.555759,715.362027 C156.302905,719.429089 156.19655,725.196005 157.201713,729.747274 C160.141072,743.056373 165.233069,749.780925 177.145137,751.600468 C177.598599,751.669734 183.407253,752.645022 187.873578,753.370126 L187.873578,753.370126 L193.212918,754.211116 C200.685075,755.350145 208.585293,756.416341 217.368332,757.429471 C238.373458,759.852428 261.776916,761.65781 287.98332,762.636067 L287.98332,762.636067 L291.574332,762.764319 C312.596774,763.481403 354.823051,764.407957 418.350194,765.546047 L418.350194,765.546047 L453.799,766.165 L461.190747,766.039044 C534.826112,764.773689 584.662177,763.741579 610.647217,762.944373 L610.647217,762.944373 L616.22778,762.764319 C643.892654,761.820659 668.473876,759.962562 690.433781,757.429471 L690.433781,757.429471 L691.813306,757.26906 C700.962116,756.196669 709.159253,755.064328 716.935125,753.848979 L716.935125,753.848979 L717.925769,753.692547 L731.06504,751.535779 C742.685816,749.625467 747.694826,742.903395 750.6004,729.747274 C751.605563,725.196005 751.499208,719.429089 750.246354,715.362027 C749.303119,712.300063 748.531834,711.556533 747.499535,711.556533 Z M179.210055,59.376101 L178.93042,59.4548388 C170.181972,61.8963153 163.90295,64.4679184 159.629747,67.1148435 C157.731198,68.2908509 155.896652,69.4679238 154.124076,70.6476921 C180.882163,78.5352624 275.076044,83.9748564 394.336166,84.091787 L433.10894,84.100844 C459.207031,84.1268532 490.088415,84.1905835 500.78807,84.2656296 L513.723722,84.3691865 C583.831788,84.8896438 634.516276,84.4559213 673.686084,82.7161187 L677.481455,82.541742 C701.056066,81.4219105 719.657026,79.8086971 733.179513,77.6601258 L733.829863,77.5557447 C740.683757,76.4445149 746.105516,75.2046859 749.988256,73.8802917 L750.761215,73.6080389 C752.003531,73.1558216 753.015131,72.7125975 753.781431,72.2979511 L754.003947,72.1744341 C754.504462,71.8891466 754.672176,71.754385 754.5445,71.9183238 L754.891433,71.4622672 C752.746055,70.0094917 750.507628,68.5613617 748.172365,67.1148435 L747.56304,66.7459995 C743.886717,64.5704321 738.833379,62.4477554 732.143515,60.408647 C718.410177,65.8437788 694.837946,68.6826061 659.407233,70.5171017 L655.882921,70.6936357 C619.124269,72.4740345 571.719256,72.9010998 505.984383,72.3514323 L494.742175,72.2547909 C479.543469,72.1568026 433.250156,72.0805273 410.194381,72.0889602 L405.819725,72.0918865 C298.895102,72.2023099 214.604761,67.615288 179.210055,59.376101 Z M453.802112,41 L450.927939,41 C365.151135,41.057745 299.734621,43.5013741 251.823646,47.9725051 C290.816931,50.5153219 341.651433,52.0305446 398.70762,52.0917718 L434.264089,52.1008445 C458.210412,52.126858 486.545017,52.1906045 496.365856,52.2656935 L508.229506,52.3692177 C573.918678,52.9007718 621.008261,52.4367136 657.221035,50.6028496 L660.549194,50.4286793 C664.757618,50.2010193 668.787138,49.954074 672.636889,49.6875547 C623.10929,44.0699265 551.548849,41 453.802112,41 Z" id="Combined-Shape" fill="#000000" fill-rule="nonzero"></path>
    </g>
</svg>