<?xml version="1.0" encoding="UTF-8"?>
<svg width="960px" height="960px" viewBox="0 0 960 960" version="1.1" xmlns="http://www.w3.org/2000/svg" xmlns:xlink="http://www.w3.org/1999/xlink">
    <!-- Generator: Sketch 60.1 (88133) - https://sketch.com -->
    <title>x-gigaset-l800hx</title>
    <desc>Created with Sketch.</desc>
    <g id="x-gigaset-l800hx" stroke="none" stroke-width="1" fill="none" fill-rule="evenodd">
        <path d="M426.485361,2 C490.732467,2 529.978253,6.20847781 567.373873,18.7299113 L568.506531,19.1118975 C571.824902,20.2390053 573.612133,20.669517 576.746096,21.0527765 L577.281387,21.116327 C601.169505,23.8734588 619.092609,35.0569109 630.311192,51.9803869 C638.220545,63.9118183 642.137579,77.9246494 642.274951,89.4855633 L642.278697,90.1136998 L642.27914,90.1924442 C642.286807,91.0295206 642.393551,95.8709174 642.568983,103.475583 L647.239093,298.467743 C649.663863,401.403566 651,466.660452 651,488.199751 L650.991523,493.02021 C650.909209,518.412886 650.230295,571.93152 649.080069,649.308926 L647.915149,725.650613 L607.919999,725.027763 L608.938055,658.519455 C610.2542,570.686497 611,511.818001 611,488.199751 L610.993332,485.399476 C610.890123,461.990751 609.59193,398.991189 607.323039,302.505303 L603.056978,124.624891 C602.611804,105.722688 602.302304,92.2154206 602.279989,90.2847431 L602.278697,90.1136998 C602.278697,88.71181 602.071197,87.0261747 601.660986,85.2048895 C565.484266,98.6329444 501.853887,105 409.68319,105 C326.755057,105 274.127066,99.4986552 243.619344,89.9881555 C238.478943,88.3856829 234.056718,86.6960746 230.212784,84.9036399 C229.223911,88.375099 228.853476,92.2045418 229.081648,96.5032919 C229.110103,97.039386 229.116962,97.5764084 229.102207,98.1130543 L228.409684,123.667876 C224.226161,280.37836 222.090892,404.921117 222.00284,497.259925 L222.002379,516.414356 C222.053849,659.172774 222.935242,770.455497 224.129484,783.805961 L224.662981,789.662144 C224.824127,791.391923 224.968514,792.898759 225.095915,794.18067 L225.383855,796.960198 L225.423211,797.320132 C257.522854,814.193564 315.044458,823 397.429037,823 C484.245312,823 543.092385,816.279754 582.355554,803.917013 L583.539361,803.540658 L589.652089,822.583625 C582.666633,824.825932 575.128704,826.891392 566.995701,828.77608 C568.682114,831.212932 570.188046,833.740345 571.513088,836.356983 C574.504363,842.264031 576,845.955073 576,847.430109 C569.285952,849.674934 564.153489,851.305871 560.60261,852.322919 C548.873188,855.682478 529.163823,859.574838 501.474516,864 C500.737362,857.072205 499.498534,850.481782 497.758032,844.228733 C497.259649,842.438207 496.69194,840.795012 496.054905,839.29915 C467.782362,841.746202 435.129399,843 397.429037,843 C322.24396,843 266.42443,835.889055 229.597277,821.17353 L239.112,874.748 L239.127397,874.762396 C239.468814,875.074365 239.868093,875.407719 240.327233,875.759233 L240.609917,875.972295 C243.126554,877.840369 246.788056,879.824295 251.567726,881.803484 L252.335947,882.116187 C262.148109,886.044131 279.776202,890.675052 301.112215,894.313865 C329.760321,899.199739 362.694953,902 398.669999,902 C433.856544,902 470.027391,899.486936 504.933716,895.239088 L509.794433,894.634135 L511.186294,894.456044 C532.016863,891.774788 550.646536,888.662686 557.582072,887.064038 C564.786736,885.403355 573.632346,882.604362 581.131113,879.084803 C585.662837,876.957831 589.27976,874.746918 591.660674,872.679371 C592.523797,871.92985 593.133438,871.278368 593.498867,870.776117 L593.592482,870.642878 C593.637239,870.576713 593.665981,870.530857 593.681393,870.50571 L593.692266,870.487 L593.656818,870.57866 C593.630993,870.648777 593.605063,870.731487 593.580937,870.825092 L593.546338,870.973455 L632.693153,879.19093 C630.739383,888.498394 625.45608,896.308823 617.887493,902.881258 C613.7811,906.447182 609.038938,909.613805 603.732109,912.476537 C599.256917,922.453103 592.115571,929.712868 582.48068,933.801822 L581.954932,934.020783 C577.809956,935.714553 573.682172,934.466423 571.03383,931.7669 L570.95,931.68 L570.055841,931.939166 C569.456368,932.107252 568.856766,932.265761 568.253137,932.415136 L567.344187,932.6324 L566.197773,932.892417 C564.641152,933.239804 562.968188,933.590992 561.130161,933.958045 L558.26026,934.514162 C554.325516,935.240239 536.466975,938.501409 530.669678,939.699993 C527.642505,940.325857 524.824125,940.948304 522.153768,941.585087 C513.061529,943.753256 504.104912,946.734166 495.278712,950.531524 C494.429313,950.896967 493.533334,951.142834 492.616381,951.262097 C459.59044,955.557611 427.328697,958 398.227028,958 C376.707741,958 356.111814,956.765822 336.613586,954.463514 C336.320182,954.428869 336.028459,954.381239 335.739273,954.320764 C329.502148,953.016441 323.174664,950.835022 316.925005,947.595309 L316.110287,947.166722 C313.144769,945.583826 309.920912,944.175697 306.383697,942.892711 C302.866528,941.616995 299.145988,940.496381 294.731135,939.343459 L293.514501,939.029864 C290.675025,938.311227 283.118871,936.490252 281.788824,936.153892 L280.147377,935.731208 C279.623771,935.59366 279.121654,935.458856 278.634865,935.324987 C274.464463,934.178108 270.519657,934.609075 266.314384,936.73556 C263.816032,937.998904 260.902501,938.157107 258.282044,937.171712 C255.691343,936.197506 253.418995,935.255791 251.542528,934.382091 C242.169161,930.017768 235.608748,924.30872 232.560073,917.158819 C218.166926,910.65207 207.964626,902.568375 202.436328,891.856864 C201.598839,890.234163 200.987925,888.505184 200.61995,886.718321 L200.516863,886.180574 L186.121666,805.088457 C185.801893,803.186518 185.481762,800.298676 185.00096,795.18711 L184.288568,787.36986 C182.915597,772.021394 182.035534,659.921654 182.001052,512.213345 L182.000266,500.214618 L182.011219,491.298063 C182.186548,397.142953 184.416776,270.819158 188.700863,112.290387 L189.096,97.761 L189.074816,97.2191649 C188.346899,77.3795311 194.648407,59.8636383 207.7699,45.8792671 L208.235843,45.3871694 C215.295115,37.9988091 223.726092,32.4136424 233.837497,27.8767658 L234.763923,27.4652977 C241.391751,24.5519521 247.83561,22.3765665 258.254487,19.2949985 L259.154,19.029 L260.112092,18.4329584 C260.811966,18.0037345 261.480035,17.6142345 262.207733,17.2199715 C264.068415,16.2118634 266.030016,15.3371889 268.231253,14.558121 C271.444832,13.4207622 275.128264,12.5047428 279.586645,11.7272305 C308.437774,6.69578273 369.843378,2.09294293 424.821369,2 L426.485361,2 Z M260.105478,60.6263965 C252.229819,63.2638452 246.864927,65.6225081 242.754741,68.3489898 L242.590624,68.4585729 C244.671346,69.2772324 246.987128,70.0887369 249.571635,70.8944332 C277.778712,79.6877282 328.597958,85 409.68319,85 C497.116655,85 557.97825,79.0300423 591.225644,67.7552578 C586.823149,64.2396644 581.01832,61.8967897 573.28444,60.9236045 L572.695092,60.8525309 L572.249492,60.8000564 C537.979545,71.1072131 484.637188,76 411.53139,76 C336.401325,76 288.65538,70.4777325 260.872424,60.8947455 L260.105478,60.6263965 Z M426.485361,42 C380.24982,42 328.829294,45.3777419 298.619895,49.3164348 C325.167964,53.5802447 362.094811,56 411.53139,56 C459.435873,56 498.467056,53.800986 528.402235,49.5710538 C502.136081,44.0822527 471.117884,42 426.485361,42 Z" id="Combined-Shape" fill="#000000" fill-rule="nonzero"></path>
        <path d="M725,960 C642.709573,960 576,893.290427 576,811 C576,728.709573 642.709573,662 725,662 C807.290426,662 874,728.709573 874,811 C874,893.290427 807.290426,960 725,960 Z M711.191955,909.132465 C764.604664,917.17074 819.703694,878.398067 823.951558,817.283947 C827.56861,765.251415 788.577013,715.748069 731.249443,712.03119 C672.595553,708.228937 625.872235,755.415906 625.816213,810.740961 C625.761028,865.698156 669.312116,903.789727 708.926974,908.633407 C708.962787,908.271199 709.030014,907.909617 709.030014,907.548664 C709.033155,901.21095 709.170122,894.868841 708.97975,888.536778 C708.833988,883.693724 706.77697,879.554374 702.914879,876.568818 C701.051375,875.128771 698.886921,874.020801 696.742572,873.008876 C687.714063,868.747114 679.860455,862.984415 673.362693,855.367357 C667.831239,848.883378 663.49479,841.709508 660.733461,833.659305 C657.813175,825.14771 656.196589,816.399454 657.061742,807.348626 C657.407301,803.730304 657.692544,800.074317 658.456544,796.531951 C661.295152,783.370021 667.587463,772.056172 677.171378,762.568433 C681.652334,758.133414 686.645344,754.396448 692.148525,751.332425 C700.813254,746.508203 710.1402,743.788184 719.989253,743.053095 C725.257454,742.660126 730.541361,742.916874 735.807677,743.775629 C749.868778,746.06941 761.933181,752.274042 772.218893,762.005346 C776.735664,766.279034 780.511043,771.176701 783.657517,776.545804 C789.01933,785.693933 792.180878,795.565224 792.905928,806.127034 C793.287929,811.691367 792.975038,817.264487 792.215438,822.83133 C791.005984,831.692579 788.53806,840.158977 784.839329,848.258772 C777.184889,865.026469 765.687827,878.723239 750.97457,889.733887 C739.890298,898.028911 727.658773,904.116154 714.386175,908.096058 C713.407301,908.389215 712.440993,908.726314 711.191955,909.132465 Z" id="Oval-2" fill="#000000" fill-rule="nonzero"></path>
    </g>
</svg>