<?xml version="1.0" encoding="UTF-8"?>
<svg width="960px" height="960px" viewBox="0 0 960 960" version="1.1" xmlns="http://www.w3.org/2000/svg" xmlns:xlink="http://www.w3.org/1999/xlink">
    <!-- Generator: Sketch 60.1 (88133) - https://sketch.com -->
    <title>x-netgear-orbi-voice</title>
    <desc>Created with Sketch.</desc>
    <g id="x-netgear-orbi-voice" stroke="none" stroke-width="1" fill="none" fill-rule="evenodd">
        <path d="M565.979091,25.0163591 L568.213225,25.2581804 C591.372897,27.7931429 611.768522,30.9329704 627.414931,34.3510845 L628.248577,34.5344621 C648.098854,38.9312717 659.420909,43.033369 666.006213,51.0827677 C671.324067,57.5829279 674.576804,64.6960229 676.515565,73.606513 L676.670329,74.333156 C677.963314,80.5373254 678.689854,87.4992888 679.425508,99.1462653 L679.643085,102.735822 C679.9495,108.0149 680.649532,120.643777 680.786429,123.022515 L681.137671,128.995033 C681.53023,135.520266 681.934571,141.729416 682.392128,148.158233 L683.159988,158.628807 L698.174463,360.19006 C702.407793,417.385026 705.231916,456.341138 706.6254,477.068068 L706.881846,480.922211 C709.853797,526.120867 711.537697,562.122298 712.581007,600.564307 L712.892214,612.879004 C713.204115,626.124854 713.454284,639.732037 713.748082,658.645936 L714.546143,711.498089 L674.551205,712.134442 L673.55543,646.976886 C673.307598,632.13605 673.075408,620.614334 672.784507,608.91322 L672.692049,605.275977 C671.717792,567.782789 670.15252,533.011438 667.379174,489.869289 L666.713188,479.716818 C665.053967,455.040106 661.336501,404.117116 655.6124,327.144552 L642.780968,154.977962 L642.473087,150.717134 C641.923085,142.971535 641.448356,135.534807 640.980103,127.521226 L639.811858,106.839427 C600.925377,131.10095 513.254744,150.026257 400.600866,155.930196 L396.562072,156.136184 C330.675242,159.403888 268.792443,157.93353 222.352396,152.214043 C198.8079,149.314338 179.758838,145.38405 166.186427,140.531294 C163.469442,139.559848 160.95448,138.546617 158.642282,137.484661 C149.619654,256.694791 136.342582,455.191521 132.937766,538.043447 L132.446315,550.017795 C132.260137,554.37645 132.053293,559.026634 131.81839,564.157866 L130.02087,602.553138 C128.852022,627.917143 128.16617,645.194342 127.661997,663.259848 L127.499838,669.410346 C126.328485,716.667579 127.150839,754.461528 130.563771,786.207175 L130.811626,788.459315 C131.511867,794.676701 132.312927,800.599675 133.213618,806.222484 C133.767128,806.502461 134.359405,806.785265 134.991601,807.075512 C142.135545,810.355354 153.355142,813.229438 169.884506,815.851899 L170.567574,815.605876 L170.703354,815.980928 C187.603643,818.625862 209.959884,821.01582 239.050182,823.310429 C294.796351,827.707621 356.021975,827.257552 416.904612,821.220441 C486.277412,814.341446 553.06511,800.481384 614.23361,779.216334 L616.248114,778.512605 L622.872257,797.383767 C559.56726,819.605045 490.525703,834.018273 418.87813,841.122833 C356.798232,847.278665 294.386942,847.73745 237.47749,843.248499 L233.864209,842.960323 C186.394255,839.131887 156.590236,835.016117 137.915859,829.406304 C141.96878,845.374087 147.14405,857.796415 153.39643,866.450437 C160.428929,876.184236 168.44899,884.512302 177.908344,891.504571 C173.428726,880.546181 168.301396,867.302902 162.485771,851.696505 L162.244598,851.05377 C168.940194,852.213314 176.446684,853.307934 184.861288,854.355577 C194.112816,878.777588 201.366132,896.417807 206.388655,906.853835 C210.722024,908.507581 215.282127,910.004058 220.088582,911.346098 C214.075764,898.061338 206.905504,879.925147 198.443893,856.713725 L198.143157,855.890473 C204.987066,856.626694 212.34408,857.342519 220.25239,858.045 C230.928531,886.790078 239.264993,906.496949 244.89954,916.576235 C250.133076,917.37717 255.611755,918.047027 261.345836,918.590091 C253.932578,904.691735 246.359795,885.176972 238.424239,859.837376 L238.335941,859.554422 C245.415619,860.109845 252.573771,860.588707 259.800159,860.989717 C269.425245,890.532596 278.242653,910.393116 285.773921,920.09518 C288.676556,920.188614 291.637149,920.257316 294.655318,920.301158 C285.926706,902.372741 278.335226,882.857029 271.876401,861.757494 L271.82321,861.582214 C278.827755,861.884237 285.889945,862.113899 293.000731,862.270061 C299.811234,883.37775 307.817588,902.68554 317.013473,920.197652 C322.978923,920.068235 329.149159,919.85767 335.52778,919.568686 C328.022429,908.238557 320.809714,892.873661 313.219602,872.187759 L312.06573,869.020614 C311.631604,867.881425 310.701116,865.689036 309.296562,862.498749 C316.47336,862.542012 323.692379,862.511439 330.944048,862.405402 C330.963238,862.458085 330.981639,862.508671 330.999348,862.557838 C339.533099,886.250699 347.414366,902.304666 355.020778,912.46977 C356.653894,914.652244 358.240101,916.533873 359.817571,918.163349 C363.594795,917.90153 367.439168,917.616528 371.350575,917.308708 C366.74202,910.539444 362.54822,903.241374 360.539763,898.66659 L360.35673,898.238222 C359.719312,896.602685 351.599864,874.365917 346.647292,862.058551 C353.681318,861.85124 360.740043,861.572711 367.814974,861.222209 C372.825249,874.139979 378.742573,890.37167 378.778968,890.456816 C381.797498,897.518663 388.63888,907.987021 394.885977,915.260146 C399.147875,914.857164 403.485792,914.429897 407.897947,913.979505 C410.364185,913.727752 412.813143,913.471626 415.244779,913.211157 C415.126555,913.033404 415.008086,912.853314 414.888221,912.671242 L411.970118,908.261134 C406.726167,900.369319 402.669173,893.451488 399.097576,886.349604 C397.11901,882.415356 395.264402,878.379168 393.335048,873.841864 L392.53079,871.932224 C391.216998,868.784247 389.865173,865.409142 388.155063,861.028612 L387.774308,860.044094 C394.716353,859.568277 401.666616,859.022703 408.617509,858.406414 C409.599488,860.869776 410.467668,862.995715 411.323771,865.030918 C413.248964,869.607653 415.050993,873.557341 416.965286,877.363784 C420.029255,883.456285 423.510939,889.429282 428.032238,896.292087 L431.208287,901.090216 C433.742839,904.935757 435.758844,908.053182 437.387722,910.660539 C440.548188,910.270247 443.674065,909.872116 446.767593,909.466202 C446.148375,907.826741 445.519736,906.090267 444.879654,904.255352 L444.359598,902.750262 C440.45784,891.352683 436.072173,876.209957 430.827457,856.195099 C437.195567,855.490226 443.557906,854.725434 449.908122,853.899561 L450.871577,853.773784 L450.871577,853.773784 C455.689872,872.027559 459.733067,885.907015 463.281562,896.272664 L463.727567,897.564235 C464.934871,901.029549 466.074852,904.047813 467.141649,906.611187 C471.008211,906.033243 474.818647,905.442248 478.572761,904.838312 C478.135468,902.424209 477.695394,899.758956 477.235156,896.804652 L473.664409,872.810889 C473.422482,871.222089 473.205995,869.82122 473.033221,868.736278 L472.631726,866.277953 C471.693865,860.637292 470.751095,855.619269 469.763438,851.112319 C476.389681,850.113477 482.981587,849.049225 489.53694,847.919579 C490.510756,852.466869 491.433318,857.424517 492.344185,862.897026 L492.775333,865.53463 C493.876518,872.444512 496.660986,891.543191 496.705154,891.832927 L497.200085,895.014598 C497.583727,897.426298 497.943835,899.553337 498.29283,901.453905 C502.022265,900.770115 505.687799,900.073697 509.290477,899.363532 C509.25036,898.474454 509.212464,897.538687 509.1741,896.552322 L508.821232,887.467036 C508.048645,868.275529 507.372908,857.227362 505.924868,844.943858 C512.52167,843.685013 519.078151,842.358023 525.592816,840.962809 C527.337772,855.221958 528.051318,867.300348 528.938591,890.033261 L529.139249,895.168899 C534.389458,893.979708 539.485164,892.757899 544.425301,891.504201 C545.034334,877.993063 544.337377,859.50865 542.54695,837.155023 C549.151018,835.601844 555.708017,833.976845 562.216588,832.279325 C563.989377,853.507194 564.848864,871.569296 564.599301,885.950119 C568.708502,884.722779 572.684911,883.469476 576.529294,882.190964 C578.818048,860.550428 579.564002,843.737043 578.232083,827.926693 C584.80267,826.069509 591.31973,824.13545 597.781524,822.124777 C599.48285,838.079771 599.17734,854.429062 597.380077,874.478549 C608.127374,870.045418 617.481724,865.359575 625.417267,860.441159 L626.592146,859.704703 L648.010369,893.487239 C602.731735,922.194022 523.480621,942.38872 411.960028,953.772714 C328.192251,962.323708 270.651561,962.665319 226.625636,953.970973 C179.325129,944.629953 145.835589,924.287957 120.973267,889.875605 C104.907332,867.638478 95.5298746,834.543758 90.7929484,790.482883 L90.5600484,788.272139 C87.0871026,754.621678 86.310559,715.445208 87.5485799,666.96879 L87.6775655,662.143962 C88.2317432,642.286673 88.9983735,623.455873 90.3619551,594.277597 L91.9062363,561.322104 C92.2424848,553.95148 92.5194713,547.590692 92.7602976,541.649039 L92.8568589,539.240247 C96.4976729,447.378505 113.111179,203.395078 121.944728,93.4862333 C122.074198,91.8753364 122.398441,90.28607 122.910362,88.7532007 C127.793517,74.1313368 141.12676,64.0027987 161.45906,55.5812268 C177.14434,49.0844356 197.796894,43.4303851 222.933102,38.5278147 L224.172921,38.2873101 C270.407273,29.36715 331.343988,23.0723186 396.701039,20.0217504 C453.336738,17.378255 513.732077,19.4244377 565.979091,25.0163591 Z M588.293013,747.835499 C590.639116,748.96827 592.303708,751.830873 593.28679,756.423305 C594.761414,763.311954 591.290151,772.851515 591.283139,772.851515 C591.276126,772.851515 558.951063,782.606071 532.320244,787.858419 C505.689426,793.110767 465.509286,796.168374 463.967331,794.76035 C462.425377,793.352326 460.347134,790.713715 460.347134,782.606071 C460.347134,777.200975 461.553866,772.505714 463.967331,768.520286 C488.897687,766.492687 510.765441,763.82438 529.570593,760.515366 C548.375745,757.206352 567.949885,752.979729 588.293013,747.835499 Z M630.749041,76.4064358 L630.653821,76.6480245 C629.357343,79.8387468 627.006663,82.6770477 623.892637,85.2004592 C620.199834,88.1928755 615.172647,90.9384593 608.791094,93.5816869 C597.14827,98.4041231 580.574278,103.025648 559.920146,107.28155 L559.920146,107.28155 L558.668248,107.538047 C517.211263,115.983927 461.497826,122.590967 401.961208,125.931533 L401.961208,125.931533 L400.158121,126.031638 C340.692138,129.298002 284.815222,128.890421 243.042137,125.060942 L243.042137,125.060942 L241.97977,124.962526 C221.507842,123.046161 204.936762,120.337872 193.082926,116.901647 C186.464752,114.98315 181.183153,112.809489 177.200525,110.235164 C171.919139,106.821337 168.431351,102.406604 167.866654,96.7568752 C165.930852,97.830006 164.295373,98.8773276 162.972409,99.8823106 C162.470272,100.263757 162.039198,100.619373 161.67763,100.943371 L161.46,101.142 L161.279389,103.413785 C160.974188,107.260714 160.660685,111.252195 160.339663,115.377408 C160.47044,115.495282 160.61182,115.609168 160.762659,115.726222 C163.242085,117.650299 167.348496,119.706835 172.919881,121.698859 C184.692242,125.908015 202.03803,129.514693 223.75944,132.235145 L224.797095,132.364019 C270.930641,138.045758 333.254809,139.432207 399.554147,135.957606 L403.426177,135.749024 C466.500427,132.258759 521.271724,124.687862 563.865874,114.118666 L566.173772,113.539879 C601.983439,104.463558 627.062012,93.6031611 637.748024,83.5261572 C637.322529,81.170815 636.843451,79.5666003 636.266533,78.348226 L636.218,78.25 C635.917809,78.1301728 635.592489,78.0051883 635.237951,77.8743221 L634.966595,77.7750946 C633.748005,77.3335869 632.337973,76.8757207 630.749041,76.4064358 Z M403.754549,59.7501405 L402.434137,59.8248931 L399.043967,60.0204712 C343.601049,63.2780586 291.744987,69.2221314 253.193689,76.5477292 L253.193689,76.5477292 L250.850112,76.9979502 C232.798335,80.5040935 218.371181,84.2133807 208.520954,87.8563844 L208.520954,87.8563844 L207.501033,88.239602 C205.873142,88.8611788 204.404758,89.4719118 203.104434,90.0630584 L203.104434,90.0630584 L203.016,90.103 L203.326284,90.2021293 C204.425841,90.5483566 205.633155,90.8943128 206.943293,91.2359138 L206.943293,91.2359138 L207.439405,91.3638021 C217.586777,93.9500733 232.658941,96.0402185 251.573135,97.4592727 L251.573135,97.4592727 L252.755265,97.5467367 C291.902005,100.402839 344.524167,100.267551 400.531729,96.9767879 L400.531729,96.9767879 L402.22783,96.876228 C457.031548,93.5977491 508.224089,87.7003767 546.382007,80.4495299 L546.382007,80.4495299 L548.725583,79.9993088 C567.410757,76.370143 582.212483,72.5233275 592.074662,68.757657 L592.074662,68.757657 L592.30581,68.6680317 C583.573648,67.3615703 574.021202,66.1327961 563.860983,65.0207003 C514.705965,59.6403942 457.572067,57.5288615 403.754549,59.7501405 Z" id="Combined-Shape" fill="#000000" fill-rule="nonzero"></path>
        <path d="M748.161197,960 C665.87077,960 599.161197,893.290427 599.161197,811 C599.161197,728.709573 665.87077,662 748.161197,662 C830.451624,662 897.161197,728.709573 897.161197,811 C897.161197,893.290427 830.451624,960 748.161197,960 Z M734.353153,909.132465 C787.765862,917.17074 842.864891,878.398067 847.112755,817.283947 C850.729808,765.251415 811.738211,715.748069 754.410641,712.03119 C695.75675,708.228937 649.033433,755.415906 648.97741,810.740961 C648.922225,865.698156 692.473313,903.789727 732.088172,908.633407 C732.123984,908.271199 732.191211,907.909617 732.191211,907.548664 C732.194353,901.21095 732.331319,894.868841 732.140948,888.536778 C731.995185,883.693724 729.938168,879.554374 726.076077,876.568818 C724.212573,875.128771 722.048118,874.020801 719.903769,873.008876 C710.87526,868.747114 703.021652,862.984415 696.52389,855.367357 C690.992436,848.883378 686.655988,841.709508 683.894659,833.659305 C680.974373,825.14771 679.357787,816.399454 680.22294,807.348626 C680.568499,803.730304 680.853742,800.074317 681.617741,796.531951 C684.456349,783.370021 690.748661,772.056172 700.332576,762.568433 C704.813531,758.133414 709.806541,754.396448 715.309722,751.332425 C723.974451,746.508203 733.301397,743.788184 743.15045,743.053095 C748.418651,742.660126 753.702559,742.916874 758.968875,743.775629 C773.029976,746.06941 785.094379,752.274042 795.380091,762.005346 C799.896861,766.279034 803.672241,771.176701 806.818714,776.545804 C812.180528,785.693933 815.342076,795.565224 816.067125,806.127034 C816.449126,811.691367 816.136236,817.264487 815.376636,822.83133 C814.167182,831.692579 811.699258,840.158977 808.000526,848.258772 C800.346087,865.026469 788.849024,878.723239 774.135768,889.733887 C763.051495,898.028911 750.819971,904.116154 737.547372,908.096058 C736.568498,908.389215 735.602191,908.726314 734.353153,909.132465 Z" id="Oval-2" fill="#000000" fill-rule="nonzero"></path>
    </g>
</svg>