<svg height="960" viewBox="0 0 960 960" width="960" xmlns="http://www.w3.org/2000/svg"><path d="m515.074412 153.937598 1.375303.260089 280.969839 51.317931c2.382556.37602 4.755967.820303 7.120731 1.322024 59.480475 12.619707 105.451668 59.346252 130.573645 126.199326 23.476669 62.474679 27.675838 139.514959 11.249446 216.652931-16.425475 77.133516-51.650451 145.800653-98.545818 193.333514-50.17508 50.857158-111.185641 74.869731-170.652568 62.252909-.853744-.181135-1.705491-.369572-2.554961-.566139l-1.272555-.300644-271.909042-62.344389-2.672059-.548768c-.142788-.029325-.285414-.05943-.427872-.090314-53.866206-11.677817-99.209204-46.538308-130.177877-97.127103l-63.399871-14.397871c-3.885929-.88248-7.618178-2.340673-11.073115-4.326277-17.922431-10.300287-32.157115-21.151315-42.734245-33.109689-9.934601-11.231938-20.31456-27.661473-32.080442-50.049269-3.016151-5.739049-4.592086-12.125239-4.592086-18.608591l.000001-35.373313c-4.533722-4.072717-8.083881-9.156208-10.326972-14.859107l-40.4169116-7.600974c-.9515721-.178957-1.8963326-.392406-2.8324144-.639925-15.9820517-4.225978-21.450977-5.928749-28.1301342-10.172184-22.57057865-14.339654-32.22548074-38.649806-28.46619606-65.303876 2.57321911-18.244632 11.52938516-33.98369 26.94218796-44.001256 13.6090642-8.845224 29.4437246-11.553228 46.7447956-9.888986 1.3309011.128024 2.6545462.322697 3.9659503.583286l36.6125854 7.275303c.372654-4.37544 1.475444-8.664624 3.259656-12.694176 17.003122-38.400706 31.954787-65.519817 46.180256-82.553115 14.948344-17.898854 37.115425-34.458647 66.639974-50.647677 3.866858-2.120292 8.057728-3.586537 12.403005-4.339393l33.223044-5.756178c3.919343-.679059 7.918054-.76971 11.864143-.26896l62.844013 7.974774c48.593299-36.305855 104.940799-51.81982 160.296564-41.603913zm59.390289 318.419427c-28.347759 133.120316 12.257691 256.456363 91.4997 289.331315l16.312464 3.732902c1.057567.257176 2.120904.499252 3.189953.726067 7.351481 1.55973 14.75031 2.350577 22.157522 2.412035l2.778021-.011066c84.273949-1.368097 169.002451-96.473563 196.838234-227.189521 6.05786-28.447581 8.96684-56.448344 9.022797-83.214968-.233228-107.655263-46.693635-195.016945-120.024937-210.575313-91.893519-19.49663-191.185011 81.144632-221.773754 224.788549zm-93.652794-281.492936-2.821384.039356c-.08165.001924-.163296.003916-.244938.005975l.244536-.005965c-2.130145.05019-4.257902.146644-6.382568.28872-.025018.001673-.050032.003353-.075045.005038l.075045-.005038c-1.026062.068613-2.051405.147865-3.075947.237685l3.000902-.232647c-1.059037.071355-2.117304.154044-3.174714.247987l.173812-.01534c-1.017831.089232-2.034872.188893-3.051047.298914l2.877235-.283574c-1.06159.094315-2.122316.199973-3.182091.316894l.304856-.03332c-1.038789.112468-2.076671.235762-3.113565.369805l2.808709-.336485c-1.024051.11298-2.047214.236476-3.069409.370416l.2607-.033931c-1.007892.130294-2.014849.270744-3.020796.421281l2.760096-.38735c-1.052727.137941-2.104427.286959-3.155013.446975l.394917-.059625c-1.060881.158758-2.120638.328734-3.179183.509848l2.784266-.450223c-.988373.15054-1.975761.310814-2.962091.480756l.177825-.030533c-.994281.170119-1.987492.350063-2.979559.539766l2.801734-.509233c-1.055815.181914-2.110419.374906-3.163722.578896l.361988-.069663c-1.036931.198282-2.072613.407225-3.10696.626751l2.744972-.557088c-1.006083.194844-2.01098.399722-3.014613.614563l.269641-.057475c-1.025054.217555-2.048798.445503-3.07115.683772l2.801509-.626297c-1.018526.218029-2.035752.446318-3.051595.684795l.250086-.058498c-1.064082.247994-2.126655.507167-3.187627.777435l2.937541-.718937c-.993245.233171-1.985169.476082-2.975697.728662l.038156-.009725c-1.00246.255362-2.003491.520629-3.003013.795729l2.964857-.786004c-1.023681.261034-2.045871.532397-3.066485.814011l.101628-.028007c-3.048352.839001-6.082679 1.769463-9.100765 2.78936-.060319.020384-.120331.040702-.180337.061055l.180337-.061055c-.987342.33365-1.972945.676872-2.956732 1.029594l2.776395-.968539c-1.023426.347127-2.044979.704537-3.064572 1.072153l.288177-.103614c-.990312.355062-1.978785.719751-2.965338 1.093994l2.677161-.99038c-1.002289.361376-2.002684.732613-3.001103 1.113637l.323942-.123257c-.988489.374978-1.97505.759547-2.959606 1.153636l2.635664-1.030379c-1.007809.384607-2.013605.779185-3.017303 1.183657l.381639-.153278c-.976756.390967-1.951538.791304-2.924268 1.200938l2.542629-1.04766c-.988349.398286-1.974664.806166-2.958864 1.223566l.416235-.175906c-1.017033.428291-2.031821.866747-3.044278 1.315285l2.628043-1.139379c-.963295.408535-1.924564.826188-2.883732 1.252893l.255689-.113514c-.966914.428363-1.9317.865922-2.894282 1.312606l2.638593-1.199092c-.993364.441917-1.984474.893542-2.973245 1.354798l.334652-.155706c-1.004191.465993-2.005982.941918-3.005286 1.427694l2.670634-1.271988c-.958169.446979-1.914141.903002-2.867842 1.367999l.197208-.096011c-.99415.48327-1.985839.976291-2.974979 1.478983l2.777771-1.382972c-.958547.46736-1.914798.943785-2.868677 1.429204l.090906-.046232c-2.918226 1.483074-5.814271 3.050324-8.685912 4.69972-.061059.035074-.122148.070205-.183226.105374l.183226-.105374c-.939738.539762-1.876864 1.08832-2.811298 1.645605l2.628072-1.540231c-.961921.553873-1.921095 1.116964-2.877441 1.689199l.249369-.148968c-.964346.575123-1.925826 1.15954-2.884354 1.753173l2.634985-1.604205c-.929697.556289-1.85672 1.121219-2.780993 1.694718l.146008-.090513c-.905544.560818-1.808453 1.129861-2.708655 1.707063l2.562647-1.61655c-.990152.614377-1.977148 1.238589-2.960892 1.872551l.398245-.256001c-.935793.600023-1.868661 1.208862-2.798523 1.826443l2.400278-1.570442c-.91916.59234-1.835482 1.193192-2.748889 1.802484l.348611-.232042c-.946591.628693-1.890067 1.266445-2.830343 1.913179l2.481732-1.681137c-.91832.612569-1.833694 1.233671-2.746043 1.863232l.264311-.182095c-.94576.650507-1.888282 1.310101-2.827478 1.978702l2.563167-1.796607c-.907874.626474-1.812753 1.261325-2.714559 1.904483l.151392-.107876c-.879265.625937-1.755616 1.259768-2.62898 1.901428l2.477588-1.793552c-.935516.667199-1.867725 1.343338-2.796542 2.028337l.318954-.234785c-3.705253 2.722247-7.356763 5.58541-10.949074 8.584505-.060779.050746-.12222.102095-.183644.153484l.183644-.153484c-46.988637 39.22917-83.848834 101.715747-98.374622 176.306885-14.628536 75.118872-3.6476 147.32503 25.658825 201.395117.055768.102884.111437.205406.167172.307863l-.167172-.307863c.559655 1.032558 1.125992 2.058502 1.698962 3.077725l-1.53179-2.769862c.5325.97888 1.071017 1.951792 1.615507 2.918644l-.083717-.148782c.556606.990115 1.11947 1.973888 1.688547 2.951222l-1.60483-2.80244c.569704 1.011623 1.145947 2.016613 1.72868 3.014865.528737.905753 1.062419 1.805292 1.601399 2.699215l-1.601399-2.699215c.590681 1.011867 1.18803 2.016811 1.791996 3.014725l-.190597-.31551c.581655.964703 1.169481 1.922866 1.76343 2.87439l-1.572833-2.55888c.567655.937919 1.141155 1.869627 1.720457 2.795035l-.147624-.236155c.579299.928055 1.164423 1.849795 1.755329 2.76513l-1.607705-2.528975c.608065.971356 1.222523 1.935771 1.843323 2.89314l-.235618-.364165c.611513.947257 1.229219 1.887655 1.85307 2.821094l-1.617452-2.456929c.592077.913072 1.189922 1.819735 1.793494 2.719899l-.176042-.26297c.594408.889385 1.194394 1.772452 1.799916 2.649115l-1.623874-2.386145c.628345.937112 1.262896 1.86718 1.903604 2.790103l-.27973-.403958c.636812.921962 1.279747 1.83684 1.928759 2.744535l-1.649029-2.340577c.621618.895426 1.249033 1.784126 1.882199 2.666007l-.23317-.32543c.660837.924235 1.327973 1.841021 2.001357 2.750253l-1.768187-2.424823c.623504.868425 1.252586 1.730238 1.887202 2.585351l-.119015-.160528c1.976237 2.668398 4.00629 5.271729 6.088872 7.807309.029352.035732.058747.071495.088153.107245l-.088153-.107245c.679117.826835 1.363819 1.646467 2.054063 2.4588l-1.96591-2.351555c.702732.854336 1.411435 1.700964 2.126059 2.539781l-.160149-.188226c.690765.812948 1.387081 1.618587 2.088901 2.416823l-1.928752-2.228597c.703551.825819 1.412841 1.644068 2.127824 2.454649l-.199072-.226052c.684875.778964 1.374992 1.550878 2.070311 2.315657l-1.871239-2.089605c.723831.820612 1.453496 1.633364 2.188946 2.438154l-.317707-.348549c.724933.797352 1.455519 1.586947 2.191712 2.368688l-1.874005-2.020139c.719245.787058 1.444023 1.566501 2.174288 2.338234l-.300283-.318095c.743287.789274 1.492289 1.57054 2.246957 2.343699l-1.946674-2.025604c.718158.758937 1.441622 1.510418 2.170351 2.254351l-.223677-.228747c.772542.791469 1.551021 1.574442 2.335387 2.34881l-2.11171-2.120063c.722775.737857 1.450729 1.468289 2.183818 2.191209l-.072108-.071146c.74315.733677 1.491583 1.459629 2.245256 2.177764l-2.173148-2.106618c.760562.750012 1.526653 1.491937 2.298224 2.225677l-.125076-.119059c.788511.751331 1.582757 1.494105 2.382687 2.228217l-2.257611-2.109158c.769154.731442 1.543755 1.45475 2.323756 2.169826l-.066145-.060668c.775139.71136 1.555615 1.414586 2.341383 2.109583l-2.275238-2.048915c.778099.713334 1.561571 1.418475 2.35037 2.115326l-.075132-.066411c.761651.673665 1.528273 1.339598 2.299826 1.997711l-2.224694-1.9313c.828521.731944 1.662919 1.454743 2.503139 2.168284l-.278445-.236984c.796093.679046 1.597436 1.349767 2.403981 2.012067l-2.125536-1.775083c.791921.672523 1.589015 1.336823 2.391236 1.992805l-.2657-.217722c.813551.668053 1.632396 1.327538 2.456487 1.978356l-2.190787-1.760634c.793597.64893 1.592212 1.289719 2.395801 1.922277l-.205014-.161643c.814669.643377 1.634465 1.278285 2.459343 1.904626l-2.254329-1.742983c.817325.64337 1.639796 1.278225 2.467367 1.904469l-.213038-.161486c.825005.626439 1.655093 1.244309 2.490218 1.853516l-2.27718-1.69203c.825403.624603 1.655878 1.24064 2.491382 1.848015l-.214202-.155985c.821661.599386 1.648198 1.190384 2.479567 1.772905l-2.265365-1.61692c.84711.615813 1.699389 1.222722 2.556788 1.820628l-.291423-.203708c1.752001 1.227587 3.525463 2.417525 5.319979 3.568964.0343.022008.069227.044399.104162.066776l-.104162-.066776c.84944.545038 1.703598 1.081449 2.56243 1.609144l-2.458268-1.542368c.905892.580244 1.817143 1.150683 2.7337 1.711205l-.275432-.168837c.864588.531232 1.733914 1.05363 2.607933 1.567103l-2.332501-1.398266c.884186.540726 1.773309 1.072225 2.667324 1.594398l-.334823-.196132c.886299.520687 1.777425 1.032196 2.67333 1.53443l-2.338507-1.338298c.8852.517024 1.775195 1.024906 2.669939 1.52355l-.331432-.185252c.908196.509125 1.821305 1.008719 2.739277 1.498682l-2.407845-1.31343c.877074.488796 1.758711.968715 2.644869 1.439668l-.237024-.126238c.881978.470751 1.768446.932612 2.659362 1.385494l-2.422338-1.259256c.924438.491297 1.853797.972837 2.788027 1.444517l-.365689-.185261c.954472.485191 1.91405.960075 2.87868 1.424545l-2.512991-1.239284c.888343.448513 1.781091.888111 2.678201 1.318706l-.16521-.079422c.949253.457065 1.903399.904046 2.862388 1.340836l-2.697178-1.261414c.911903.437696 1.828314.866091 2.749188 1.285091l-.05201-.023677c1.880925.856705 3.780481 1.674212 5.698293 2.451737.0173.007013.034268.013889.051238.020762l-.051238-.020762c.935087.379105 1.874513.748706 2.818237 1.10871l-2.766999-1.087948c.987708.400004 1.980256.789406 2.977592 1.168097l-.210593-.080149c.965349.368254 1.935195.726467 2.909489 1.074542l-2.698896-.994393c.958898.364096 1.922224.718292 2.88993 1.062492l-.191034-.068099c.967957.345811 1.940305.681615 2.916999 1.007317l-2.725965-.939218c.971868.34568 1.948155.681278 2.928814 1.006697l-.202849-.067479c.955886.318763 1.915934.62785 2.880103.927171l-2.677254-.859692c1.001163.332223 2.006883.653838 3.017112.964742l-.339858-.10505c1.00512.312034 2.014717.613456 3.028744.904163l-2.688886-.799113c.967153.297647 1.938439.585477 2.913813.8634l-.224927-.064287c.979899.280923 1.963935.551842 2.952062.812663l-2.727135-.748376c1.004998.286364 2.014337.562209 3.027969.827438l-.300834-.079062c1.02862.27151 2.061674.532079 3.099113.781604l-2.798279-.702542c.993099.259856 1.990319.509521 2.991616.748903l-.193337-.046361c1.060306.255024 2.125192.498512 3.194605.730354l3.119375.640636 202.600526 46.455248c-57.849704-57.043184-82.051923-166.506674-57.619944-281.238591 24.876068-116.81735 93.582034-208.167933 171.387324-235.01322l-217.157908-39.65547-3.062296-.56031c-.074997-.012896-.149994-.025731-.224991-.038506-.975118-.166095-1.950032-.321932-2.925017-.46763l2.925017.46763c-1.029304-.175327-2.058761-.339281-3.088293-.491935l.163276.024305c-1.034652-.154615-2.069383-.297811-3.104115-.429663l2.940839.405358c-1.056538-.156657-2.113155-.301413-3.169767-.434344l.228928.028986c-1.027399-.130917-2.054798-.250649-3.082119-.359267l2.853191.330281c-1.057454-.133037-2.114903-.254231-3.172262-.363659l.319071.033378c-1.038656-.109817-2.077232-.208273-3.115648-.295442l2.796577.262064c-1.03867-.107494-2.077253-.203635-3.115668-.288495l.319091.026431c-1.012704-.085011-2.025255-.159287-3.037581-.222897l2.71849.196466c-1.069923-.087436-2.139667-.162896-3.209145-.226462l.490655.029996c-1.069007-.067171-2.137763-.122448-3.206178-.165911l2.715523.135915c-1.009311-.05999-2.018385-.109386-3.027148-.148257l.311625.012342c-1.02576-.041727-2.051206-.072565-3.076261-.092584l2.764636.080242c-1.049984-.040458-2.099632-.069513-3.148859-.08724l.384223.006998c-1.162746-.022709-2.324988-.031497-3.486612-.026469zm302.363573 102.154996c76.38659 16.206595 115.951429 123.739422 91.358753 239.225972-24.591731 115.482108-104.54557 197.646528-180.923938 181.441678l-13.884307-4.088611c-27.949619-10.64402-50.040654-34.382032-64.652347-66.270824-.020799-.053181-.043871-.103496-.066923-.15383-.204188-.439101-.404641-.882331-.603657-1.327107-.238833-.537896-.477235-1.076633-.713473-1.617475-.035639-.079531-.070373-.15935-.105061-.239217-.320163-.737589-.636824-1.478465-.949464-2.223174-.017975-.045044-.036377-.088998-.054765-.132967-7.298499-17.419647-12.398494-36.933869-15.164524-57.776204-.010627-.085909-.021929-.171169-.033193-.256454-.105199-.793188-.206382-1.588908-.304174-2.386505-.021213-.171676-.042126-.343129-.062884-.514677-.097028-.806492-.190896-1.615065-.281295-2.425503-.046276-.403726-.090661-.808623-.134184-1.214024-.042252-.408936-.085002-.817032-.126876-1.225586-2.561719-24.893853-1.883566-51.656928 2.411296-79.132955.051827-.316258.101661-.632543.151971-.948886.134332-.857681.274433-1.715987.41807-2.57494.07942-.465242.158122-.930417.237851-1.395702.060811-.36289.123738-.726148.187299-1.089516.109961-.622193.220518-1.244558.332915-1.867095.067232-.377118.136089-.75449.205629-1.131972.160227-.866444.323168-1.732618.489677-2.599067.05643-.295492.113596-.590671.171181-.88591.135987-.696082.273947-1.39215.414214-2.088366.046713-.232326.093929-.465351.141407-.698411.201087-.987056.406643-1.973917.616841-2.961.221548-1.040383.447709-2.078469.678443-3.114198l-.678421 3.114205c.26332-1.23654.532986-2.46926.808928-3.698079.227639-1.012944.459525-2.023521.695748-3.031774.049441-.21276.099446-.425374.149639-.637867.183351-.773882.368917-1.546867.557026-2.318447.070941-.29434.142767-.587428.21495-.88028.213815-.863206.430168-1.725686.649688-2.58635.098944-.393539.199536-.785256.300767-1.176538.184565-.706739.369962-1.413291.557489-2.11858.150139-.572689.303364-1.14333.457946-1.713014.134874-.487893.268777-.976578.403701-1.464638.512967-1.866835 1.042882-3.722092 1.587088-5.566651.024831-.070538.046333-.143269.067857-.215986 6.843365-23.150467 15.941289-44.61069 26.742794-63.778418.155824-.269412.309583-.541341.463698-.81283.241584-.432111.486397-.860465.732062-1.287649.206489-.353242.411704-.708445.617531-1.062874.417804-.724448.839935-1.443355 1.264477-2.158835.153462-.254607.306345-.511433.459551-.767836.223892-.378235.449524-.75357.67582-1.127942.3789-.62405.758837-1.247171 1.140694-1.867713.161394-.264266.323831-.527078.486597-.789399.347596-.558767.696683-1.116999 1.047329-1.673083.13024-.207339.260676-.41346.391315-.619269.479806-.755646.962597-1.50803 1.448243-2.256353.062908-.096475.125957-.193444.189053-.290341.500932-.770161 1.00515-1.535859 1.512358-2.297184.019087-.027189.037803-.05526.056523-.083325.526916-.79171 1.057708-1.578175 1.59169-2.35985.05649-.080388.111993-.161509.167529-.242575 5.021678-7.33493 10.325811-14.245786 15.877151-20.681543.099972-.114797.19936-.229831.298822-.344707.565042-.653281 1.133296-1.301406 1.704066-1.944549.070339-.079374.140637-.158514.21097-.237576.47074-.528635.943534-1.05448 1.418017-1.576904.178228-.197579.356998-.393799.535985-.589513.491811-.535781.985017-1.069078 1.479994-1.59868.233648-.252975.468918-.503645.70455-.753445.302377-.316923.604127-.634506.906518-.950717 33.093633-34.640259 73.191606-52.188375 112.349775-43.880365zm-61.710091 29.475074-.189287.103382c3.700791 6.132012 7.078757 12.685603 10.1156 19.61722l90.54777 17.359867c3.157898.605421 5.832042 2.6924 7.186549 5.60859 6.979868 15.027331 11.553876 27.063353 13.72954 36.299879 2.161285 9.175487 3.650388 22.80789 4.549659 41.124947.231754 4.720557-2.873013 8.958812-7.443727 10.161284l-19.577146 5.150387c-1.398006.36779-2.857554.427713-4.278125.17761-1.270821.228372-2.614093.212436-3.971757-.094148l-61.934022-13.986334c-.127737 11.00435-.850776 22.172871-2.172434 33.420846l75.247819 12.419914 15.144196-4.539075c6.874691-2.060509 13.617437 3.577135 12.807104 10.708084-1.862429 16.389419-4.323845 29.937155-7.424045 40.703027-3.162167 10.981058-9.730674 25.678873-19.732822 44.330549-2.020234 3.767265-6.211702 5.833781-10.430186 5.142385l-90.87855-14.894431c-17.526723 39.962334-42.205895 72.913082-70.449265 94.200636 12.587101 14.849849 27.950224 24.900826 45.448947 28.61345l11.931814 1.509827c60.00243 2.594455 124.109879-68.139089 145.27982-167.552565 22.580325-106.0366-12.760743-202.089688-75.948273-215.495898-18.958726-4.022386-38.658948-.231188-57.559179 9.910567zm-3.551709 114.197622-.056467-.01753c-.021599-.006919-.043163-.013908-.064693-.020967l-.04526-.01529c-.026445-.008812-.052835-.01773-.079171-.026751-.010146-.003546-.020166-.006997-.030177-.010462-.076986-.026233-.1533-.053694-.229141-.082032-.007626-.003273-.01529-.006148-.02295-.009031-.051444-.018942-.102703-.038725-.15374-.058908-.028245-.011516-.056629-.022891-.084944-.034389-.036542-.014498-.072511-.029355-.108366-.044412l-.052474-.022548c-.049014-.020909-.097809-.042191-.146383-.06384-.014983-.006353-.030174-.01317-.045343-.020023l-.022598-.010562c-.036819-.016742-.073508-.033695-.110068-.050859-.013993-.006639-.028385-.013437-.042756-.020267-.042196-.019689-.083889-.039871-.12541-.060327-.022344-.011293-.044683-.022402-.066971-.033589-.03669-.018143-.073164-.036739-.109501-.055549l-.047113-.024803c-.024689-.012945-.049314-.025987-.073872-.039127-.017209-.009267-.033866-.018241-.050492-.02726-.050152-.026919-.100177-.054626-.149923-.082739-.036862-.021089-.073809-.042275-.110598-.063685-.021892-.012504-.043571-.025236-.065195-.038045-.057694-.034394-.115007-.069121-.171918-.104394-.054063-.033326-.107813-.067369-.161196-.101899-.005732-.003864-.012126-.008008-.018515-.012159-.044072-.028495-.087491-.057206-.13066-.086241-.022792-.015423-.045833-.031055-.068802-.046779-.025775-.017563-.051028-.035029-.076192-.052605l-.06195-.043687c-.023067-.01637-.046058-.032833-.068973-.04939-.009865-.007143-.019541-.014161-.029203-.021195-.017362-.012578-.034845-.025396-.052283-.038269l-.074319-.055426c-.01467-.011039-.029306-.022116-.043909-.033231-.016071-.012242-.03173-.024235-.047351-.036272-.039866-.030702-.079665-.061861-.119212-.093309l-.025444-.020299c-.005046-.004038-.010087-.008082-.015125-.01213-.022507-.01809-.04453-.035944-.066472-.053887-.019687-.016114-.039365-.032334-.058977-.048626l-.063953-.053555c-.005079-.004291-.010154-.008587-.015225-.012888-.019139-.016232-.037811-.032191-.056422-.048216-.033299-.028712-.06675-.057906-.099997-.087314l-.028126-.02493c-.005061-.00451-.010117-.009024-.015168-.013544-.016229-.014512-.032911-.029539-.049541-.04462-.008697-.007945-.017292-.015768-.025873-.023606l-.034933-.032006c-.029376-.027085-.058584-.05434-.087622-.081763-.016263-.015345-.032991-.03125-.049662-.047211-.031373-.030107-.062813-.060605-.094048-.091303-.020445-.02002-.040609-.040008-.060687-.060079l-.047676-.048061c-.025885-.026229-.051622-.052597-.07721-.079103-.028221-.029161-.055925-.05821-.08345-.08742-.090344-.095929-.179248-.194079-.266163-.293933-.018215-.020885-.036382-.041934-.05446-.063058-.035402-.041397-.070414-.082982-.105086-.124847-.083632-.100963-.165386-.203728-.245093-.308059-.026116-.034164-.051678-.068062-.077024-.102123-.035824-.048182-.071609-.097196-.106949-.146533-.083706-.116843-.164991-.235628-.243709-.356149-.032942-.050302-.065134-.100557-.09688-.151106l-.036906-.059396c-.010432-.016874-.020815-.033781-.031149-.050719-.029197-.047904-.05782-.095721-.086049-.143783l.086049.143783c-.035458-.058122-.070332-.116619-.104615-.175481l-.015932-.027501-.021415-.036929c-.086182-.150502-.168528-.303364-.24692-.458443l-.046166-.092894c-.015918-.032324-.031665-.064741-.04724-.09725-.040796-.085234-.080535-.171292-.119067-.25796-.020876-.046367-.041346-.093366-.061461-.140542-.046883-.110468-.092062-.221964-.135256-.334371-.088206-.228931-.168025-.461903-.239278-.698297-.097958-.325885-.179827-.65785-.244619-.995154-.030484-.157776-.056986-.316396-.079684-.476093-.004682-.033952-.009335-.067916-.013815-.101926-.014098-.106869-.02644-.213922-.037065-.321402l-.001741-.016955c-.004714-.048582-.009077-.097252-.013087-.146008-.006141-.075562-.011511-.151259-.016024-.227145-.019453-.326683-.023004-.656865-.010031-.9898l2.911504-74.722526c-2.793898-6.618761-5.922391-12.815714-9.359488-18.542042-5.626469 4.267474-11.099904 9.066135-16.385986 14.347788-.18954.185388-.377998.374735-.566249.564725l.566249-.564725c-.567066.566592-1.131976 1.138741-1.694687 1.716389-.307086.312998-.613122.629742-.918582.948189l.918582-.948189c-.495167.508311-.988632 1.020879-1.480366 1.537665l.561784-.589476c-.610795.636764-1.219287 1.280342-1.825408 1.930668l1.263624-1.341192c-.54328.570959-1.084447 1.147066-1.623462 1.728266-.450216.485886-.899392.975709-1.347219 1.469237l1.347219-1.469237c-.532797.574495-1.063491 1.153967-1.592045 1.738363l.244826-.269126c-5.114863 5.636846-10.053557 11.756971-14.773422 18.319888-.032433.043842-.064452.08842-.09646.133018l.09646-.133018c-.955929 1.329208-1.902882 2.676579-2.840505 4.041777-.161154.235811-.321669.470603-.481886.70589l.481886-.70589c-.466154.678732-.930003 1.361869-1.391501 2.049372l.909615-1.343482c-.594702.873345-1.185305 1.753498-1.771735 2.640354-.175817.262351-.350381.527304-.524597.792887l.524597-.792887c-15.312547 23.157114-27.779733 50.884348-36.066505 81.306854-.062837.217844-.122472.437993-.181894.658305l.181894-.658305c-.510845 1.875421-1.005803 3.761086-1.484563 5.656553-.093037.361681-.183999.724902-.274385 1.088547l.274385-1.088547c-.219779.870132-.436144 1.74233-.649065 2.616552-.182326.744728-.361329 1.492083-.537891 2.241171l.537891-2.241171c-.246131 1.010574-.48766 2.023853-.72454 3.03977l.186649-.798599c-.272949 1.158026-.540062 2.320193-.801262 3.486428l.614613-2.687829c-.235982 1.012068-.467351 2.026755-.69406 3.043994l.079447-.356165c-.246513 1.100661-.48776 2.204946-.723674 3.312792l-.597269 2.869183c-.039184.192669-.078179.385321-.116986.577955-.176484.87476-.348841 1.748669-.517279 2.621802l.517279-2.621802c-.230325 1.143334-.454002 2.286064-.671054 3.428081l.153775-.806279c-.181455.940603-.358362 1.880305-.530743 2.819053l.376968-2.012774c-.182371.959545-.360066 1.918586-.533097 2.87706l.156129-.864286c-.18073.984216-.356485 1.967383-.527289 2.949444l.37116-2.085158c-.22297 1.235096-.438197 2.469249-.645712 3.70232l.274552-1.617162c-.110882.637531-.219678 1.274595-.326394 1.911176l.051842-.294014c-5.437068 32.307562-5.579567 63.872762-.967612 92.204556.04229.278871.087877.555035.13391.83086l-.13391-.83086c.1077.661616.217993 1.321468.330872 1.979526.16872.983594.343216 1.963179.523467 2.938647.084076.459461.170153.916425.257476 1.372386l-.257476-1.372386c.132289.71591.267677 1.429603.406155 2.141036l-.148679-.76865c.197225 1.029814.400807 2.054518.610698 3.073996l-.462019-2.305346c.165978.852714.336396 1.702182.511237 2.548332l-.049218-.242986c2.868359 13.932094 6.915075 26.888242 12.017688 38.572577.066379.151722.132822.30302.19945.454118l-.19945-.454118c.328949.753251.662285 1.501216.999978 2.243815l-.800528-1.789697c.356883.809332.71907 1.612929 1.086538 2.410689.170924.376074.344244.749142.518673 1.120819l-.518673-1.120819c2.253697 4.892695 4.706046 9.565794 7.351867 13.995406 25.867083-19.47715 48.849805-50.63758 64.988442-88.840294-.008078-.303654-.001203-.609978.019936-.918387l5.271332-76.90882.002746-.032643.019916-.243329c.022642-.236465.053348-.470155.091814-.700831.020628-.123871.043594-.247277.068765-.369768.006086-.029318.012427-.059473.018902-.089572l.005402-.025117c.100955-.463581.233575-.913811.395255-1.348643.03805-.102098.077855-.203944.119247-.304907l.005551-.013761c.042642-.103576.086955-.206216.132903-.307892.057725-.128015.118274-.254732.181347-.379853.043158-.085353.08716-.169586.132304-.253066l.009239-.017284c.033536-.061725.067697-.123035.102473-.183925.004555-.007526.009347-.015889.01415-.024245.031827-.055802.064022-.110571.096714-.164987.038547-.063952.078008-.127984.118157-.191511.048668-.077203.098163-.153184.148641-.228411.027074-.040159.05436-.08019.081923-.120003.066877-.096787.135758-.192599.206246-.287077.071047-.095079.143832-.189094.218209-.281715l.017071-.021333c.044076-.054578.088706-.108668.133879-.162262.09047-.107219.182912-.212342.277449-.315426.01787-.019402.035839-.038842.053882-.058209l.020562-.022084.020909-.02232c.033162-.035161.066571-.070076.100224-.104742.057666-.059341.116488-.118456.17602-.176817.022348-.021858.04508-.043936.067913-.065905.04317-.041575.086368-.082399.129918-.122832l-.129918.122832c.055276-.053182.111148-.105721.167604-.157608.006917-.006392.01426-.013121.021612-.019838.100777-.092105.203519-.182202.308034-.270163.027072-.02277.054211-.045369.081467-.067824.040437-.033324.081292-.066449.122403-.099251.015588-.012433.030975-.024637.046396-.036796.034189-.026955.068818-.053891.103622-.080601.066319-.050902.133321-.101012.200942-.150285.043499-.031709.087181-.063007.131114-.093957.006635-.004641.01335-.009359.020071-.014069l.05966-.041524c.028334-.019555.05677-.038965.085307-.05823l.033034-.022184c.005282-.003536.010568-.007067.015857-.010592.006251-.004145.011979-.007954.017711-.011757l.070189-.046199c.04415-.028769.088531-.057195.13314-.085275.003876-.002389.007893-.004914.011913-.007436l.119158-.073674c.013016-.007917.02605-.015805.039103-.023663.009195-.005511.018586-.011144.027987-.016763.010989-.00654.021768-.012954.03256-.019349l.089428-.052423c.097342-.056333.195674-.111058.294954-.164141.011187-.005958.02256-.012012.033946-.018043.010038-.005294.019793-.010441.029556-.015572l.073182-.038121c.024715-.01273.049487-.025359.074315-.037886l.040366-.020235c.009911-.004945.019831-.009875.02976-.014788.015773-.007784.031394-.015464.047036-.023103.054913-.026854.110629-.053431.16661-.0795.010139-.004694.019861-.009203.029592-.013696l.053341-.024465c.0383-.017412.076722-.034589.115263-.051527.01524-.006691.03024-.013239.045257-.019751.04083-.017701.081747-.035122.122793-.052276.023811-.00995.047834-.019877.0719-.029713.048276-.019739.096571-.039042.145035-.057974.03731-.014555.075017-.02902.112825-.04326.015863-.006005.031587-.011883.047327-.017722l.075875-.027757c.029064-.010512.058185-.020892.087364-.031138.010348-.003661.021065-.007405.031789-.011131l.195425-.0656c.009936-.003223.019878-.00643.029826-.009622.007629-.002488.015976-.005155.024327-.007811.015457-.004956.03019-.009604.044936-.014219l.070412-.021653c.050489-.015383.101132-.030374.151924-.044968.008845-.002654.017534-.005139.026228-.007612l.098876-.02745c.021356-.005835.042738-.0116.064145-.017295.01725-.004658.034625-.009232.052017-.013759.011812-.003146.023857-.006258.03591-.009348l.06312-.015808c.035014-.008728.070095-.01727.105239-.025623.067227-.01607.135179-.031476.203358-.046178.010953-.002265.021627-.004547.032306-.006812.030719-.006615.061727-.013039.092782-.019317.032399-.006656.065048-.013088.097747-.019359.029051-.00535.058078-.010779.087142-.01608.028106-.005357.05623-.010364.084388-.015251l.102056-.016917c.028308-.004606.056651-.009091.085027-.013455.007478-.001279.01515-.00245.022825-.003612.04149-.006416.082767-.012403.124112-.018132.038691-.005087.077686-.010251.116742-.015187.070008-.009138.140268-.017262.210709-.024641.027607-.002739.055287-.005519.082994-.008185.051082-.005071.102146-.009587.153299-.013709.041104-.003151.082497-.006225.123947-.009041.009185-.000789.017896-.001369.026609-.001938l.074391-.004245c.032621-.001882.065277-.003604.097966-.005166.016287-.000943.032632-.001684.048985-.002385.051459-.002376.103139-.004189.154896-.005599.003852.000067.007526-.000031.011201-.000127.007011-.000017.014025-.000192.02104-.000361.030346-.000894.060708-.001483.091096-.001934.011401-.000341.022784-.00049.034171-.00062l.202591-.000076c.01363.000122.027266.000271.040906.000449.0087-.000055.017048.000065.025397.000195l.058918.001419c.033631.000722.067289.001613.100974.002676.029276.000768.058938.001836.088621.003037.007551.000147.014568.000439.021585.000738l.068636.003467c.03663.001811.07329.003824.109979.006042.012186.000597.024528.001366.036872.002159.018952.001071.037326.002304.055707.003588l.06634.00512c.033312.002542.066647.005254.100003.008134.031593.002611.063252.005498.09493.008538.013573.001183.027224.002522.040877.003889.075049.007627.150107.015984.225256.025204.025187.003004.050569.006218.075962.009532.007239.001023.014259.001946.02128.002876.028144.003789.056174.007617.084215.011566.028067.003907.056074.007975.084091.012163.020358.002997.040696.006104.061039.009274.031151.004907.06278.009975.094422.015197l5.67176.935087.213601-1.834997c1.249029-11.095143 1.824823-22.079137 1.72031-32.843922l-11.436766-2.581737-.043145-.011344-.042694-.008282c-.022017-.005163-.044003-.010397-.065958-.015702l.227739.052167c-.10807-.023523-.2154-.048736-.321966-.075608l.246024.058769c-.105722-.023874-.210722-.049367-.314977-.076449-.116924-.03009-.232612-.062342-.347353-.096554l-.058348-.017893c-.010029-.003058-.02005-.006131-.030063-.009219-.016076-.005019-.032267-.010058-.048439-.015135zm-537.008646 129.272403c7.357348 8.318127 18.258686 16.628163 32.704016 24.930108l55.675746 12.647743c-6.970229-15.851708-12.588485-32.808092-16.738016-50.597879l-92.11348-17.76443c7.788427 13.898411 14.612339 24.159897 20.471734 30.784458zm549.223747-71.043612-3.881868 56.63652 74.965997 11.827823 3.499045-55.023363zm99.182154 14.007193-2.50946.752144c-.705008.211308-1.428842.343448-2.158245.395572l-1.656309 26.061254c.622869-1.759563 1.15529-3.407077 1.597154-4.941509 1.783434-6.19322 3.36383-13.614468 4.72686-22.267461zm-675.04022-26.809078.00042 31.686734c.624209.000708 1.25735.060147 1.892952.182697l92.205168 17.77979c-1.726483-10.636899-2.946835-21.516999-3.638496-32.587879zm526.407934-56.79591c16.83924 3.572705 24.867939 23.720977 20.535919 44.064029-4.331061 20.338546-19.866851 35.476641-36.698213 31.905607l-3.053242-.860128c-14.741302-5.231871-21.543946-24.132289-17.482677-43.2039 4.331061-20.338547 19.866851-35.476641 36.698213-31.905608zm-8.174152 20.649121-.064429.043021c2.380387 5.851526 3.016591 13.422383 1.341387 21.289104-1.150064 5.400662-3.238512 10.231657-5.91 14.146733.261919.127564.527708.220268.795812.277151l.775554.07239c4.020522-.0629 10.051628-6.441734 12.210355-16.579058 2.301683-10.808642-1.158599-19.492329-5.125439-20.333955-1.165917-.247367-2.567065.140283-4.02324 1.084614zm-531.439782-16.514211.000534 29.298342 7.908466 2.009658 95.086546 17.936417c-.03357-10.044309.362659-20.214417 1.204595-30.473355zm683.272848-18.688028-.000848 25.429028 2.626946-.69041c-.66029-10.276641-1.544146-18.53645-2.626098-24.738618zm-780.6313309-15.325467c-1.6746351 11.873493 1.7614507 20.52524 10.3082573 25.95524 1.4261187.906049 7.0612719 2.660575 16.9054595 5.263578l50.1447661 9.430677.000534-16.79642c0-7.090589 3.754293-13.651133 9.867577-17.243376l7.265586-4.269348-.000697-9.234856-64.2425349-12.765827c-18.0721864-1.738418-28.1551691 4.815026-30.248948 19.660332zm689.7124829-32.337505-.752 19.291-1.421 36.48 10.610689 1.943887c1.330698.243714 2.560851.744693 3.641909 1.44666l58.838402 12.806453.000452-57.511671zm-575.404 46.23-3.715 2.183 93.151437 16.781791c.182519-1.328754.372542-2.658577.570101-3.989393zm128.883586-182.088173-33.223044 5.756177c-25.519283 13.992846-43.909377 27.731062-55.170282 41.214649-11.260906 13.483587-24.696427 37.852738-40.306563 73.107453l-.000589 41.901263c.541469.000623 1.090081.045359 1.641735.137138l91.653157 15.247493.274974-1.364231c14.242691-68.656158 46.583726-127.774489 88.696748-169.204683z"/></svg>