<svg height="960" viewBox="0 0 960 960" width="960" xmlns="http://www.w3.org/2000/svg"><path d="m761.114575 58.2915023c.237115.0555304.439247.1028678.637363.1492651l.131823.0308718c.043969.0102972.08808.0206276.132672.0310708l.135562.0317473c1.055587.2472098 2.545656.5961716 8.60527 2.0152828 3.963.9281015 6.529942 1.5292581 8.965438 2.099631l.470085.1100899.468839.1097983.469632.1099838c4.00101.9370034 8.308718 1.9458327 18.554076 4.3452103 16.510058 3.8665184 26.962633 6.3144246 37.072647 8.6821057l1.082165.2534341 1.650212.3864658c16.508285 3.8661031 33.479419 7.8406016 75.907254 17.7768479 18.088269 4.2361221 30.879115 20.3685581 30.879115 38.9462381v585.555616c0 13.299899-6.610537 25.729965-17.637916 33.165301-26.071667 17.579119-49.267129 29.98733-70.108415 37.163213-19.990684 6.883012-50.267483 13.170362-91.926924 19.350516-3.658477.542733-7.37455.575445-11.042014.097202-33.834398-4.412062-61.449434-8.750192-83.0127-13.067572l-.216087-.044081.000242 6.56519c0 8.178178-2.506646 16.154974-7.174888 22.858527l-.337118.476645c-18.627574 25.933922-42.302402 44.851412-70.496175 55.974186-25.01592 9.869074-60.66565 16.820875-108.030581 21.573588-2.148411.215577-4.31075.256844-6.465822.123395-36.219773-2.242831-69.10245-8.220834-98.62394-18.054483-30.954263-10.310908-57.497708-25.002392-79.312893-44.187953-8.635024-7.594151-13.584042-18.53726-13.584042-30.036598l-.000783-15.175497-.258695.058392c-20.586994 4.593084-47.178087 8.836881-80.024386 12.826677l-1.299814.15736c-2.387145.288035-4.795399.360242-7.195513.215743-31.957995-1.924022-64.441419-8.49775-97.397275-19.638976-35.9108121-12.140194-62.3630533-27.253953-79.3624394-47.227525-6.1574678-7.234769-9.5388772-16.424946-9.5388772-25.925277v-582.803589c0-18.757893 13.0347993-34.9962358 31.3487098-39.0532353l163.1044428-36.1318046c5.976148-1.3238695 12.176408-1.2585561 18.123341.1909109l148.243071 36.1318046c17.918282 4.367286 30.527949 20.4194924 30.527949 38.8623244l-.000514 2.502195 70.279766-16.759086c5.892638-1.405239 12.024661-1.453068 17.933531-.143535l.632219.145501 70.158484 16.74612.000424-2.491195c0-18.262287 12.363884-34.1799774 30.002065-38.7304093l.536098-.1344031c41.493688-10.1018504 57.676226-14.041572 73.812744-17.9700898l1.58794-.3865923c9.802368-2.3864364 19.892569-4.8429475 35.908761-8.7421714 9.223137-2.2454196 13.444027-3.2730169 17.102143-4.1636039l.419845-.1022135.458716-.1116769c.076214-.0185545.152335-.0370867.228408-.0556069l.45618-.1110595c.076044-.0185134.152124-.0370353.228281-.0555761l.458209-.1115533.462097-.1124999.468013-.1139402c2.043805-.4975747 4.311383-1.0496282 7.54547-1.8369831 7.729822-1.8818649 7.729822-1.8818649 9.275787-2.2582378 6.10196-1.4855534 12.467978-1.513448 18.582722-.0814257zm-128.776903 142.4432377-142.585 43.734.000987 617.990869c40.241558-4.369817 70.205445-10.437947 89.891661-18.20439 20.882997-8.238587 38.445529-22.272017 52.687594-42.100289l.000009-56.920538c-.039327-.360545-.059488-.726845-.059444-1.097859zm-304.996-.13.338392 540.854254c.211934-.107845.421064-.215673.627391-.323485v69.746728c17.624278 15.499831 39.470319 27.591358 65.538123 36.274579 22.708984 7.564394 48.011272 12.607018 75.906865 15.127871l.000229-617.823947zm-274.1119996-56.921v572.489394c11.4686342 13.475168 32.0391963 25.22837 61.7116866 35.259604 26.189968 8.853916 51.853633 14.464611 76.990994 16.832084l-.000681-589.536082zm311.3469996-.051-152.645 35.262.001147 588.902668c30.741035-3.917259 55.083039-8.042736 73.026011-12.376431 8.585495-2.073621 16.160998-4.141317 22.726508-6.203086l-.352308-562.271798c-.00344-5.522847 4.47092-10.006234 9.993767-10.006234.160951 0 .321016.003797.480111.011307l46.769764-10.853426zm541.7.083-136.271838 36.217805.000314 587.69588c34.601836-5.380556 59.769532-10.779452 75.503086-16.196687 17.106152-5.889835 37.362316-16.725694 60.768494-32.507577zm-302.696-.043v23.452l41.081353 10.433059c5.700165 1.447582 8.199094 6.721416 7.39019 11.464215.187655.765363.287023 1.565333.286925 2.388508l-.065661 552.728386c-.000225 1.89197-.525852 3.661082-1.438912 5.16948 19.456425 5.884805 52.513725 11.98581 99.169246 18.303337l.000859-587.548985zm-123.528203 16.160944-123.837 28.736 123.542 38.045 125.386-38.458-8.65-2.197zm271.941221-62.5959437s-42.488638 10.3440757-127.465915 31.0322287l135.392897 33.649771 125.659672-33.397116c-89.057769-20.856589-133.586654-31.2848837-133.586654-31.2848837zm-535.659575 0-141.3544426 31.3129997 127.0579996 32.103805 140.921-32.554805z"/></svg>