<svg height="960" viewBox="0 0 960 960" width="960" xmlns="http://www.w3.org/2000/svg"><path d="m422.061123 5.01294602c102.657596.15686978 179.785827 1.65955091 231.651186 4.53250317 26.797166 1.48436221 47.165377 3.34402301 61.602431 5.69901471 8.784843 1.4329953 15.899087 3.10442 22.06626 5.4391821 5.237307 1.982735 9.982506 4.4607604 14.591064 8.1913623 9.368195 7.5835014 16.027936 18.7140934 16.027936 33.0879981v70.0369936h29.5c86.115 0 156.08805 69.1119 157.478899 154.89545l.021101 2.60455v249c0 86.984848-70.515152 157.5-157.49742 157.5l-43.59458.002-.103168.662974c-13.343283 83.998271-38.60974 142.8926-82.921979 185.099996l-1.535568 1.448827c-54.082305 50.546051-132.821448 72.786203-247.347285 72.786203-81.336592 0-143.937586-11.14953-192.972903-35.430761-50.724533-25.117694-86.525179-64.123563-109.970804-118.116478-20.505872-47.22296-31.8913473-105.908987-37.6090396-184.725415-4.4011272-60.668029-5.4268756-120.138173-5.4469505-250.648483l-.0003029-306.0510461c0-14.3977573 6.6847647-25.5497425 16.0854675-33.1308283 4.6247774-3.7295972 9.3833315-6.2000543 14.6336815-8.1716806 6.175133-2.3189038 13.294043-3.9696679 22.083721-5.3765892 14.439104-2.3111976 34.808296-4.1086962 61.606538-5.51121791 48.235083-2.52444734 118.319827-3.79695695 210.468787-3.83655907h8.986527c4.024632 0 8.090093 0 12.196401.0120042zm258.737821 797.16588898-.819742.368672c-47.382392 21.333914-126.748855 30.313833-258.721793 30.313833-131.081337 0-210.158676-8.871722-257.587219-29.804374 40.92946 77.688098 116.996079 112.943034 258.32981 112.943034 141.870082 0 217.976745-35.523023 258.798944-113.821165zm45.033115-728.2985203c-3.77581 1.0631825-9.002056 1.9732457-15.840979 2.7972862-13.060201 1.5736596-32.414997 2.8686222-58.160817 3.9018993-51.165933 2.0534823-127.809061 3.0785492-229.979328 3.0785492-102.170266 0-178.813394-1.0250669-229.979327-3.0785492-25.74582-1.0332771-45.100616-2.3282397-58.160817-3.9018993-6.838923-.8240405-12.065169-1.7341037-15.840979-2.7972862-.654112-.184183-1.276611-.3754003-1.870679-.5771712l.000867 289.7990425c0 186.300491.901701 320.417335 34.287382 409.865151l.011057-.01591c.668635.272771 1.317884.622648 1.93568 1.051807 38.715426 26.894094 118.168638 38.858106 269.02329 38.858106 154.654526 0 234.320203-12.565923 271.936823-40.967749.385036-.290715.784291-.549355 1.194561-.776366 11.874441-32.442455 19.554945-70.698532 24.523552-115.112157l78.587655-.005068c64.893458 0 117.5-52.606542 117.5-117.5v-249c0-64.893458-52.606542-117.5-117.5-117.5h-69.5l.001095-98.7999296c-.683216.2401028-1.404534.464978-2.169036.6802443zm68.967969 123.8564653c25.378936 0 49.188444 10.070573 66.778383 27.660512 17.58994 17.58994 27.660512 41.399448 27.660512 66.778384v243.593419c0 25.378936-10.070572 49.188444-27.660512 66.778384-17.589939 17.589939-41.399447 27.660512-66.778383 27.660512h-73.551228c-5.585711 0-10.088469-4.575708-10.000028-10.160698l6.630482-412.47121c.087744-5.459488 4.538516-9.839303 9.998708-9.839303zm0 20h-57.082228l-6.308 392.471211h63.390228c20.020085 0 38.759854-7.926254 52.636247-21.802648 13.876394-13.876394 21.802648-32.616163 21.802648-52.636248v-243.593419c0-20.020085-7.926254-38.759854-21.802648-52.636248-13.876393-13.876394-32.616162-21.802648-52.636247-21.802648zm-667.753428-162.3604189-.239233.0561941c2.310938.4445507 5.232685.8893557 8.729691 1.3197132l.566282.0689556c12.422704 1.4968457 31.311613 2.7606375 56.570298 3.774364 50.843075 2.0405247 127.252156 3.0624614 229.177297 3.0624614 101.925142 0 178.334223-1.0219367 229.177298-3.0624614 25.258685-1.0137265 44.147594-2.2775183 56.570297-3.774364 2.747197-.3310173 5.152667-.6711143 7.200052-1.0135262-33.562556-6.9495078-131.163558-10.547806-292.798582-10.7947985-165.24-.2525011-263.5578 3.2019861-294.9534 10.3634618z"/></svg>