<?xml version="1.0" encoding="UTF-8"?>
<svg width="480px" height="960px" viewBox="0 0 480 960" version="1.1" xmlns="http://www.w3.org/2000/svg" xmlns:xlink="http://www.w3.org/1999/xlink">
    <!-- Generator: Sketch 55.2 (78181) - https://sketchapp.com -->
    <title>light_filament_bulb</title>
    <desc>Created with Sketch.</desc>
    <g id="light_filament_bulb" stroke="none" stroke-width="1" fill="none" fill-rule="evenodd">
        <path d="M370.226605,594.943157 C372.730333,597.06974 374.507897,599.614279 375.106127,602.346415 C378.214536,603.83978 380.868342,607.042562 381.901983,612.725907 C381.975658,613.13435 382.008402,613.549958 381.998169,613.96659 C381.174445,649.986311 380.429512,673.573613 379.786904,684.071303 C378.771003,700.646972 362.438312,731.57456 346.29404,742.338306 L345.802308,742.946895 L345.638519,743.098127 C345.539548,743.165815 345.441703,743.257037 345.326215,743.390662 C345.221193,743.512176 344.41669,744.606247 344.038199,745.058417 C343.923965,745.195518 343.818715,745.33386 343.688972,745.514164 C343.671738,745.538114 343.425015,745.885738 343.350871,745.986705 C343.086683,746.346464 342.86129,746.601779 342.594981,746.810344 C341.015982,749.516641 339.536873,752.208223 338.089557,754.99875 C337.297149,757.238513 337.161231,757.633803 336.870372,758.593204 C336.473478,759.902364 336.210675,761.04349 336.068941,762.146109 C336.050277,762.291304 335.990603,762.428141 335.896939,762.540523 L335.680631,762.800059 C334.485755,766.892567 333.574838,771.663221 331.996598,781.359927 C330.955224,788.671074 330.156722,796.4374 329.049908,809.184955 C328.323564,823.715006 327.889972,833.724398 327.613832,843.367915 C327.294868,856.251965 327.294868,868.465986 327.614068,879.93766 L327.614068,883.132539 C327.946708,883.372682 328.059622,883.868558 327.767908,884.236795 L301.982494,916.786265 C302.020559,917.01029 301.961466,917.253312 301.775643,917.445385 L292.997721,926.518554 L270.566879,949.924532 L270.445252,950.027538 L269.950862,950.36481 C266.863485,953.547468 265.071814,954.93401 261.481909,956.396851 C256.779775,958.312913 250.012262,959.50729 240.000912,960 L239.642521,960 C222.014764,959.116631 216.278209,956.77495 210.049513,950.364912 L209.554976,950.027538 L209.433339,949.924522 L187.005826,926.521172 L178.225382,917.445385 C178.036203,917.249842 177.978373,917.001494 178.020689,916.774143 L153.094677,884.525375 C152.698746,884.49488 152.386957,884.163432 152.386957,883.759044 L152.387254,879.91628 C152.705359,868.466004 152.705359,856.25195 152.387135,843.365405 C152.277295,838.25503 152.080644,832.765854 151.78893,826.294343 C151.639817,822.986364 151.483802,819.78254 151.234627,814.833027 C151.201589,814.176787 151.163002,813.411855 151.091649,811.99754 C151.034227,810.858723 150.991652,810.011785 150.952237,809.21302 C149.845872,796.453082 149.046243,788.674174 148.005478,781.367058 C146.785969,773.34417 145.660497,767.498767 144.421885,763.149603 C144.131543,763.040042 143.925004,762.759229 143.925004,762.430098 L143.928557,762.121836 C143.71895,759.947658 142.996808,757.742617 141.663604,754.97158 C140.761971,752.660846 139.720646,750.833575 137.150852,746.776955 C136.751044,746.381917 136.226188,745.634739 135.902241,744.986765 C135.693681,744.736837 135.494581,744.498479 135.084383,744.007537 C134.988374,743.892629 134.903921,743.791548 134.828124,743.70082 L133.25255,742.694584 C116.932576,732.273668 100.242181,700.833827 99.2148277,684.071303 C98.5722204,673.582826 97.827287,649.995524 97.0015162,613.96659 C96.9923068,613.549958 97.0250512,613.13435 97.0997491,612.725907 C98.1936756,606.711089 101.099462,603.473823 104.440493,602.101512 C105.063826,599.564435 106.700881,597.196485 108.984185,595.184459 C105.003656,590.679384 102.254979,584.670438 100.263069,577.534452 C98.596782,571.565002 97.5723214,564.911977 97.3981892,559.867534 C97.2671679,556.071972 97.4202038,549.957846 97.7912666,541.36882 C97.8666096,539.624848 97.9502501,537.797672 98.0448641,535.81389 C98.1594583,533.411181 98.5069881,526.422997 98.533792,525.869141 C99.2117483,511.860397 96.8303881,487.779973 90.9450977,468.046273 C86.1952566,452.119796 83.1765235,442.936532 80.2798888,435.746647 C78.2417563,430.687695 76.2170946,426.522447 73.75053,422.274351 C71.4210827,418.262409 68.6547905,414.074869 64.2240662,407.785688 C62.8295186,405.806201 52.5439433,391.41275 48.7217667,385.984039 C47.4823398,384.223657 46.3173188,382.46847 45.2267289,380.71832 C15.9910781,340.137601 0,291.405814 0,240.294307 C0,107.78476 107.144004,0.292052544 239.527152,0 C371.856009,0.292062224 479,107.78477 479,240.294307 C479,291.405814 463.008922,340.137601 433.773271,380.71832 C432.682681,382.46847 431.51766,384.223657 430.278233,385.984039 C426.456057,391.41275 416.170481,405.806201 414.775934,407.785688 C410.345209,414.074869 407.578917,418.262409 405.24947,422.274351 C402.782905,426.522447 400.758244,430.687695 398.720111,435.746647 C395.823476,442.936532 392.804743,452.119796 388.054902,468.046273 C382.169612,487.779973 379.788252,511.860397 380.466208,525.869141 C380.493012,526.422997 380.840542,533.411181 380.955136,535.81389 C381.04975,537.797672 381.13339,539.624848 381.208733,541.36882 C381.579796,549.957846 381.732832,556.071972 381.601811,559.867534 C381.427679,564.911977 380.403218,571.565002 378.736931,577.534452 C376.780376,584.543781 374.093678,590.465722 370.226605,594.943157 Z M357.692633,602.358769 C349.303452,604.768504 336.599929,606.224824 318.277749,607.528645 C296.050749,609.110336 267.601693,609.989272 239.504693,610 C211.398321,609.989272 182.949261,609.110336 160.722258,607.528645 C142.668403,606.243919 130.069841,604.811127 121.678726,602.46403 L115.849765,607.647382 L115.717252,608.486305 C117.062467,608.916324 118.746988,609.35312 120.745845,609.785298 C127.18423,611.177358 136.62768,612.473027 148.428144,613.578386 C172.556353,615.838495 204.898065,617.169885 239.744859,617.236123 C274.591658,617.169885 306.933371,615.838495 331.061581,613.578386 C342.862045,612.473027 352.305495,611.177358 358.743879,609.785298 C360.538585,609.39726 362.079884,609.0055 363.349704,608.618264 L363.111605,607.177547 L357.692628,602.35877 Z M198.170288,597.032758 C211.603512,597.453545 225.6829,597.67191 239.500017,597.677185 C253.317121,597.67191 267.396498,597.453545 280.829712,597.032758 L280.829712,533.474745 C280.829712,522.036074 276.720648,510.97301 269.242062,502.276665 C259.898558,491.411731 251.319671,486.13086 243.613526,486.13086 L235.386474,486.13086 C227.680329,486.13086 219.101442,491.411731 209.757938,502.276665 C202.279352,510.97301 198.170288,522.036074 198.170288,533.474745 L198.170288,597.032758 Z M192,596.8235 L192,533.474745 C192,520.575818 196.633625,508.100449 205.066924,498.293931 C215.468152,486.199041 225.538626,480 235.386474,480 L243.613526,480 C253.461374,480 263.531848,486.199041 273.933076,498.293931 C282.366375,508.100449 287,520.575818 287,533.474745 L287,596.823501 C323.911697,595.474063 354.68563,592.557536 359.512513,588.30653 C366.355159,582.280255 369.061156,566.384272 369.300804,559.441909 C369.540451,552.499546 368.591332,535.124475 368.172279,526.465508 C367.753226,517.80654 368.479574,490.612407 376.26106,464.520658 C390.379033,417.182325 392.337505,418.483562 420.218026,378.884321 C421.412164,377.188263 422.520309,375.510412 423.544403,373.85081 C450.689532,336.317072 466.691649,290.176633 466.691649,240.294307 C466.691649,114.559994 365.021919,12.5998242 239.500018,12.3227856 C113.97809,12.5998151 12.3083512,114.559988 12.3083512,240.294307 C12.3083512,290.176633 28.3104675,336.317072 55.455597,373.85081 C56.4796914,375.510412 57.5878358,377.188263 58.7819744,378.884321 C86.6624945,418.483562 88.6209674,417.182325 102.73894,464.520658 C110.520426,490.612407 111.246774,517.80654 110.827721,526.465508 C110.408668,535.124475 109.459549,552.499546 109.699196,559.441909 C109.938844,566.384272 112.644841,582.280255 119.487487,588.30653 C124.31437,592.557535 155.0883,595.474062 192,596.8235 Z M144.898456,735.860217 C146.030171,736.028928 147.366683,736.235581 149.008168,736.4926 C149.933047,736.637414 150.559587,736.734651 151.140116,736.82499 C153.016311,736.977202 152.905654,736.966299 158.599179,737.54289 C162.031025,737.890437 164.26277,738.093985 166.61307,738.257043 C166.955025,738.278778 179.369342,739.07239 183.115483,739.308374 C189.668593,739.72118 195.178746,740.056438 200.424609,740.358391 C202.702552,740.40691 204.68229,740.451262 208.529284,740.539017 C224.726643,740.9085 231.450183,741.026004 239.761445,741.026004 C251.067326,741.026004 263.559026,740.800052 279.070142,740.359462 C284.41065,740.054658 289.988718,739.716434 296.466476,739.308374 C299.001076,739.14871 301.586331,738.983955 304.859119,738.773974 C305.598638,738.726527 311.287812,738.360873 312.920113,738.256419 C317.059091,738.053549 320.896397,737.634147 326.175714,736.888242 C326.844078,736.79381 327.273886,736.732097 328.635102,736.538307 C330.480513,736.423684 332.22592,736.243811 334.173529,735.971916 L333.965319,735.645623 L339.140968,732.340207 C351.895905,724.194899 366.716804,696.599946 367.531319,683.319933 C368.1596,673.043354 368.892254,649.848116 369.707793,614.371961 C369.646397,614.106832 369.585001,613.88572 369.526676,613.706579 L365.655993,614.318423 C359.091752,616.572896 347.845819,618.175052 331.633947,619.693631 C312.900775,621.448383 289.307822,622.645877 263.456779,623.134286 C263.45678,623.215309 263.45678,623.297446 263.45678,623.380712 L242.477069,623.380712 C233.476441,623.380712 224.629855,623.296709 216.032995,623.134287 C216.032967,622.660888 216.032961,621.278058 216.032944,617.238718 L263.456703,617.238718 L263.456777,623.134286 C254.859903,623.296709 246.0133,623.380712 237.012656,623.380712 L216.033061,623.380712 C216.033045,623.380712 216.033033,623.380712 216.033022,623.350333 L216.032944,617.238718 L237.012656,617.238718 C237.925028,617.238718 238.835796,617.237851 239.744862,617.236123 C240.653927,617.237851 241.564696,617.238718 242.477069,617.238718 L263.456664,617.238718 C263.456753,617.238718 263.456754,617.238718 263.456777,623.134286 L263.45678,623.380712 L216.033022,623.380712 L216.033022,623.350333 C216.033011,623.319673 216.033002,623.258068 216.032995,623.134287 C190.181933,622.645878 166.588961,621.448384 147.855778,619.693631 C131.979645,618.206501 120.865898,616.63922 114.247584,614.457655 L109.475056,613.703508 C109.416731,613.883673 109.355335,614.104785 109.292916,614.371961 C110.109478,649.857329 110.842132,673.052567 111.471437,683.319933 C112.284928,696.599946 127.104804,724.194899 139.859741,732.340207 L145.03539,735.645623 L144.898456,735.860217 Z M181.324755,112.988361 C181.720005,108.751764 185.470422,105.638152 189.701545,106.033914 C193.932668,106.429676 197.042257,110.184944 196.647006,114.421541 L165.356121,449.821258 C164.960871,454.057855 161.210455,457.171467 156.979332,456.775705 C152.748209,456.379943 149.63862,452.624675 150.03387,448.388078 L181.324755,112.988361 Z M210.022227,120.624559 C210.171812,116.372154 213.735876,113.046318 217.982786,113.196097 C222.229697,113.345875 225.551235,116.91455 225.40165,121.166954 L213.603448,456.566671 C213.453863,460.819076 209.889799,464.144912 205.642889,463.995133 C201.395979,463.845355 198.07444,460.27668 198.224025,456.024276 L210.022227,120.624559 Z M296.675245,112.988361 L327.96613,448.388078 C328.36138,452.624675 325.251791,456.379943 321.020668,456.775705 C316.789545,457.171467 313.039129,454.057855 312.643879,449.821258 L281.352994,114.421541 C280.957743,110.184944 284.067332,106.429676 288.298455,106.033914 C292.529578,105.638152 296.279995,108.751764 296.675245,112.988361 Z M267.977773,120.624559 L279.775975,456.024276 C279.92556,460.27668 276.604021,463.845355 272.357111,463.995133 C268.110201,464.144912 264.546137,460.819076 264.396552,456.566671 L252.59835,121.166954 C252.448765,116.91455 255.770303,113.345875 260.017214,113.196097 C264.264124,113.046318 267.828188,116.372154 267.977773,120.624559 Z M216.481949,942.592328 L217.012962,943.22884 L217.060586,943.27968 C221.304311,947.810223 225.535522,949.413222 240.051173,949.960722 C254.625784,949.413168 258.857409,947.809932 263.101816,943.278683 C263.125146,943.253777 263.125146,943.253777 263.119273,943.261899 L263.67723,942.593157 L263.709403,942.556977 L276.434429,929.124664 C275.242487,929.214989 273.788032,929.236854 271.512195,929.235335 C267.531788,929.559174 264.28792,929.620951 256.283846,929.620951 C254.14071,929.620951 252.444939,929.666192 248.288503,929.811078 C245.628655,929.903796 244.33678,929.943577 242.79663,929.973314 C241.812384,929.992318 240.889332,930.002135 240.000912,930.002135 C237.549851,930.002135 235.522624,929.951051 231.463169,929.811088 C227.210157,929.664452 225.569015,929.620951 223.397891,929.620951 C215.632509,929.620951 212.389877,929.558202 208.55016,929.237858 C206.148193,929.237858 204.641437,929.213534 203.358959,929.114113 L216.481949,942.592328 Z M327.752623,748.001105 C321.86618,748.83697 317.05791,749.39031 312.207931,749.726799 C298.480857,750.598108 288.728852,751.117515 278.673101,751.447921 C265.234238,752.133503 251.855483,752.498841 239.601801,752.498841 C227.403294,752.498841 214.280598,752.137203 200.78901,751.448695 C192.270118,751.2441 184.416099,750.84214 172.229929,750.067047 C171.028607,749.990638 166.887832,749.725058 166.908163,749.726331 C164.674591,749.564341 162.748316,749.380449 159.180817,749.00768 C155.103441,748.581633 153.786558,748.451778 151.775001,748.295878 C151.756689,748.29446 151.756689,748.29446 151.640506,748.279091 L150.199064,747.977616 C150.421527,748.376471 150.647848,748.808085 150.886429,749.28409 C151.088723,749.687698 151.988688,751.554281 152.228132,752.023578 C152.234519,752.03609 152.234519,752.03609 152.26213,752.093631 C153.391081,754.705907 154.313157,757.816951 154.921737,760.854744 C155.676287,763.176942 156.031291,764.423325 156.293784,765.944089 C166.890446,767.292924 179.386064,768.33825 192.709337,769.019806 C209.952569,769.989101 229.040949,770.451617 248.062158,770.451617 C248.485971,770.451617 248.829539,770.79574 248.829539,771.220236 L248.829539,777.811169 C248.829539,778.235665 248.485971,778.579788 248.062158,778.579788 C229.008138,778.579788 209.876256,778.118185 192.385244,777.14568 C179.759797,776.471913 167.9611,775.443978 158.048804,774.123167 C158.127251,774.622001 158.2444,775.300166 158.50178,776.784748 C158.79735,778.489605 158.966502,779.58048 159.102088,780.757053 C159.779121,785.393969 160.215642,788.994424 160.497427,792.684011 C169.615699,793.608415 179.806481,794.354808 192.788396,795.099799 C210.02498,796.069519 229.106179,796.531609 248.142778,796.531609 C248.566591,796.531609 248.91016,796.875731 248.91016,797.300228 L248.91016,803.892116 C248.91016,804.316612 248.566591,804.660735 248.142778,804.660735 C229.104395,804.660735 209.965245,804.198713 192.455153,803.22598 C191.003477,803.128104 186.117203,802.801839 185.718126,802.775075 C174.302949,802.009541 167.80579,801.505472 161.511848,800.832201 C161.546799,802.956596 161.714413,805.182079 162.061017,808.616638 C162.148487,809.903497 162.197863,811.009068 162.283362,813.336644 C162.388957,816.211299 162.452506,817.620006 162.566586,819.126123 C163.970419,819.226134 165.470742,819.339199 167.229185,819.476448 C168.031292,819.539054 168.859279,819.604463 169.951153,819.691292 C170.024444,819.69712 172.102019,819.862564 172.709649,819.910773 C181.688271,820.623134 186.971329,820.974296 192.788396,821.180746 C212.388416,822.283431 231.711746,822.899159 248.142778,822.899159 C248.566591,822.899159 248.91016,823.243282 248.91016,823.667778 L248.91016,829.974018 C248.91016,830.398514 248.566591,830.742637 248.142778,830.742637 C229.120014,830.742637 209.973647,830.280198 192.478857,829.309112 C186.763887,829.101339 181.479327,828.744164 172.679125,828.034281 C172.275194,828.001697 171.997888,827.979266 171.3199,827.924358 C170.643586,827.869551 170.643586,827.869551 169.970716,827.815046 C168.877847,827.726566 168.082847,827.662566 167.304819,827.600611 C165.672375,827.47062 164.278383,827.362951 162.980691,827.267503 C163.007362,827.836439 163.038869,828.49067 163.092619,829.599927 C163.395846,835.857703 163.500387,838.78446 163.500387,842.488095 L163.500387,845.335123 C171.695988,846.24174 180.87185,846.977182 192.788435,847.739368 C210.016838,848.709509 229.090606,849.171175 248.142778,849.171175 C248.566591,849.171175 248.91016,849.515298 248.91016,849.939794 L248.91016,856.531682 C248.91016,856.956179 248.566591,857.300301 248.142778,857.300301 C231.71863,857.300301 212.402041,856.686988 192.477986,855.581096 C181.908328,855.184788 172.187372,854.51705 163.818878,853.571965 L163.818878,874.001022 L166.32753,874.301301 L166.346732,874.303392 C167.26078,874.402681 167.938095,874.452965 169.665947,874.562935 C171.774456,874.697132 172.77393,874.784461 173.889887,874.965546 C177.047097,874.968407 180.047008,875.188481 183.726249,875.63426 L183.752934,875.634267 C185.233898,875.635071 186.477559,875.686411 188.996597,875.826997 C191.623285,875.973592 192.638454,876.017354 193.999655,876.019474 C195.345031,876.119777 196.355432,876.171498 198.836726,876.280117 C201.968908,876.417228 203.414611,876.503946 205.038781,876.685141 C207.868517,876.685141 209.137809,876.693158 210.725057,876.733151 C212.83223,876.786245 214.689447,876.891819 216.372737,877.067279 L228.34607,877.067279 C229.925925,877.067279 231.233961,877.115445 234.210288,877.259725 C237.160105,877.402719 238.455201,877.450373 240.000912,877.450373 C241.540348,877.450373 242.715508,877.405963 245.670238,877.259762 C248.531204,877.118201 249.935122,877.067279 251.654158,877.067279 L263.542714,877.071984 C266.453161,876.747952 268.946119,876.685141 274.899946,876.687678 C276.17766,876.583436 277.273233,876.524801 279.596174,876.42245 C281.742471,876.327882 282.599069,876.285325 283.744642,876.207723 C284.538452,876.15395 285.275539,876.092945 286.058332,876.017354 C287.362537,876.017354 288.377187,875.973611 291.004229,875.826997 C293.536157,875.685692 294.786458,875.63426 296.207078,875.637328 C296.737214,875.589742 297.161927,875.549712 298.118285,875.458143 C299.558483,875.320248 300.199322,875.261046 301.002079,875.194993 C302.85251,875.042734 304.381797,874.965518 305.763194,874.970947 C306.652176,874.86455 307.447865,874.802002 308.99123,874.703855 C311.394864,874.551001 312.296425,874.479268 313.664795,874.302205 L316.181386,874.001009 C316.183,858.93567 316.239637,851.70971 316.500807,842.567552 C316.815245,827.514233 317.182862,818.01899 317.938608,808.721967 C318.259131,802.912926 318.753617,797.508821 319.627116,789.503191 C319.737184,788.494419 320.120787,785.013602 320.114979,785.066469 C320.305973,783.327707 320.445698,782.033387 320.579671,780.756897 C321.624491,773.611269 323.088353,766.580206 324.662923,760.824386 C325.276889,758.157327 326.360438,755.004851 327.656153,752.006851 C328.317611,750.422809 328.977774,749.056433 329.698864,747.790158 L327.752623,748.001105 Z M239.452145,486.13086 L239.547911,486.13086 C239.547728,480 239.547728,480 239.547181,480 L239.452089,480 C239.452272,486.13086 239.452272,486.13086 239.452819,486.13086 L239.547911,486.13086 L239.547855,480 L239.452089,480 L239.452145,486.13086 Z" id="Combined-Shape" fill="#000000" fill-rule="nonzero"></path>
    </g>
</svg>