<?xml version="1.0" encoding="UTF-8"?>
<svg width="960px" height="960px" viewBox="0 0 960 960" version="1.1" xmlns="http://www.w3.org/2000/svg" xmlns:xlink="http://www.w3.org/1999/xlink">
    <!-- Generator: Sketch 55.2 (78181) - https://sketchapp.com -->
    <title>socket_SP222</title>
    <desc>Created with Sketch.</desc>
    <g id="socket_SP222" stroke="none" stroke-width="1" fill="none" fill-rule="evenodd">
        <path d="M933.598608,789.438388 C932.649171,807.517527 927.953909,825.110748 920.249006,841.426115 C908.70185,865.900091 890.358433,887.456702 868.072627,903.167452 C845.783113,918.893039 819.630948,928.752365 792.444045,930.206411 L790.146482,930.330673 L792.44219,930.206411 C688.881249,935.779638 585.540977,938.574597 482.308258,938.58387 C379.077394,938.574597 275.737122,935.779638 172.174326,930.206411 L174.471889,930.330673 L172.172472,930.206411 C144.987423,928.752365 118.835258,918.893039 96.5457437,903.167452 C74.2599379,887.456702 55.914666,865.900091 44.3675107,841.426115 C36.6644621,825.110748 31.9692,807.517527 31.0197631,789.438388 C25.9480641,690.592899 23.4131417,591.649115 23.4131417,492.707184 C23.4131417,488.298678 23.4483748,483.890173 23.4576466,479.481667 L23.459501,479.481667 L23.459501,479.392644 L23.459501,479.301766 L23.4576466,479.301766 C23.4483748,474.89326 23.4131417,470.484754 23.4131417,466.076248 C23.4131417,367.134318 25.9480641,268.192388 31.0197631,169.346899 C31.9692,151.265905 36.6644621,133.672684 44.3675107,117.357318 C55.914666,92.8851959 74.2599379,71.3285855 96.5457437,55.6159808 C118.835258,39.8922483 144.987423,30.0329227 172.172472,28.5770215 L174.471889,28.4546145 L172.174326,28.5770215 C275.737122,23.0037948 379.077394,20.2106901 482.308258,20.2014169 C585.540977,20.2106901 688.881249,23.0037948 792.44219,28.5770215 L790.146482,28.4546145 L792.444045,28.5770215 C819.630948,30.0329227 845.783113,39.8922483 868.072627,55.6159808 C890.358433,71.3285855 908.70185,92.8851959 920.249006,117.357318 C927.953909,133.672684 932.649171,151.265905 933.598608,169.346899 C938.668452,268.192388 941.205229,367.134318 941.205229,466.076248 C941.205229,470.484754 941.169996,474.89326 941.15887,479.301766 L941.15887,479.301766 L941.15887,479.392644 L941.15887,479.481667 L941.15887,479.481667 C941.169996,483.890173 941.205229,488.298678 941.205229,492.707184 C941.205229,591.649115 938.668452,690.592899 933.598608,789.438388 M959.617258,466.076248 C959.617258,366.817173 957.074918,267.558097 951.98653,168.395463 L951.98653,168.393609 L951.98653,168.384335 C950.903579,147.745777 945.550016,127.815696 936.899384,109.493597 C928.245045,91.1696436 916.295491,74.4406901 901.935258,60.1246378 C873.227773,31.5184983 834.78485,12.4267192 793.430569,10.1900099 L793.432423,10.1900099 C689.778763,4.60936453 586.342064,1.81069593 483.014773,1.78473081 L483.014773,1.78473081 C482.948016,1.78473081 482.881258,1.78473081 482.816355,1.78473081 C482.645753,1.78473081 482.47886,1.78473081 482.308258,1.78473081 C482.139511,1.78473081 481.970763,1.78473081 481.802016,1.78473081 C481.735258,1.78473081 481.670355,1.78473081 481.601744,1.78473081 L481.601744,1.78473081 C378.274452,1.81069593 274.837753,4.60936453 171.185948,10.1900099 L171.185948,10.1900099 C129.83352,12.4267192 91.3905981,31.5184983 62.6812583,60.1246378 C48.3228796,74.4406901 36.3733262,91.1696436 27.7189864,109.493597 C19.0683553,127.815696 13.7147922,147.745777 12.6318408,168.384335 L12.6318408,168.393609 L12.6318408,168.395463 C7.54345243,267.558097 4.99925825,366.817173 4.99925825,466.076248 C4.99925825,470.516283 5.03634563,474.954463 5.04747184,479.392644 C5.03634563,483.830824 4.99925825,488.269004 4.99925825,492.707184 C4.99925825,591.96626 7.54345243,691.22719 12.6318408,790.389824 L12.6318408,790.391678 L12.6318408,790.400952 C13.7147922,811.037655 19.0683553,830.969591 27.7189864,849.289835 C36.3733262,867.613789 48.3228796,884.344597 62.6812583,898.660649 C91.3905981,927.264934 129.83352,946.356713 171.185948,948.593423 L171.185948,948.593423 C274.837753,954.174068 378.274452,956.974591 481.601744,957.000556 L481.601744,957.000556 L481.802016,957.000556 C481.970763,957.000556 482.139511,957.000556 482.308258,957.000556 C482.47886,957.000556 482.645753,957.000556 482.816355,957.000556 L483.014773,957.000556 L483.014773,957.000556 C586.342064,956.974591 689.778763,954.174068 793.432423,948.593423 L793.430569,948.593423 C834.78485,946.356713 873.227773,927.264934 901.935258,898.660649 C916.295491,884.344597 928.245045,867.613789 936.899384,849.289835 C945.550016,830.969591 950.903579,811.037655 951.98653,790.400952 L951.98653,790.391678 L951.98653,790.389824 C957.074918,691.22719 959.617258,591.96626 959.617258,492.707184 C959.617258,488.269004 959.582025,483.830824 959.570899,479.392644 C959.582025,474.954463 959.617258,470.516283 959.617258,466.076248" id="Fill-11" fill="#000000"></path>
        <path d="M482.503326,920.5 C584.503094,920.488857 688.093988,917.700454 790.398679,912.210532 L791.610064,912.143403 C814.474384,910.920358 837.210279,902.744821 857.365464,888.519666 C877.022749,874.652896 893.34086,855.355136 903.350679,834.124934 C910.225434,819.557471 914.121506,804.434938 914.920591,789.181559 C919.949987,691.116311 922.5,591.565368 922.5,493.319115 C922.5,492.31153 922.5,490.089168 922.481673,487.010707 C922.47925,486.372531 922.47925,486.372531 922.476795,485.740902 C922.471723,484.442932 922.46629,483.113551 922.460856,481.825003 C922.457777,481.098233 922.457777,481.098233 922.455603,480.592997 L922.45361,480.133993 C922.453974,480.079343 922.453974,480.079343 922.455605,479.69232 C922.457778,479.172924 922.457778,479.172924 922.460857,478.426098 C922.466291,477.102162 922.471725,475.737424 922.476796,474.406497 C922.479172,473.780026 922.479172,473.780026 922.481518,473.147431 C922.5,469.972147 922.5,467.690485 922.5,466.67903 C922.5,368.435128 919.950202,268.886044 914.920793,170.792643 C914.121224,155.560613 910.223484,140.438403 903.352009,125.877667 C893.34029,104.64366 877.021595,85.3425374 857.370185,71.4815961 C837.211755,57.2524662 814.475907,49.075965 791.608665,47.8543625 L789.348956,47.7320382 C687.351607,42.2789786 584.113328,39.5092824 482.498465,39.5 C380.727878,39.5092833 277.34297,42.2869616 175.219167,47.75605 L173.395054,47.8544615 C150.526228,49.0758419 127.79196,57.2511469 107.63621,71.4786062 C87.9841269,85.3398036 71.6636751,104.641238 61.6495343,125.872759 C54.7764154,140.440797 50.8804135,155.563059 50.0794319,170.816148 C45.0504456,268.911446 42.5,368.460556 42.5,466.67903 C42.5,467.662748 42.5,469.897134 42.5185313,473.011308 C42.5208537,473.623942 42.5208537,473.623942 42.5232047,474.230752 C42.5282764,475.533577 42.5337101,476.869988 42.5391438,478.166785 C42.5422229,478.898331 42.5422229,478.898331 42.5443965,479.407169 L42.5463895,479.869597 L42.525982,485.53423 C42.5,489.41754 42.5,491.152544 42.5,493.319115 C42.5,591.541807 45.0507566,691.092769 50.0810613,789.20735 C50.880612,804.439043 54.778212,819.563058 61.6479062,834.122154 C71.6604943,855.353966 87.9779273,874.652011 107.631299,888.518143 C127.79099,902.744352 150.526683,910.920307 173.392898,912.143766 L174.536659,912.204979 C276.885417,917.698126 380.500371,920.48886 482.503326,920.5 Z M174.911018,905.214996 L173.766945,905.153767 C152.244827,904.002224 130.771604,896.280264 111.667023,882.798621 C92.9955014,869.625218 77.4721398,851.266293 67.9788822,831.135728 C61.491367,817.386592 57.8226149,803.150585 57.0716582,788.844669 C52.0476944,690.853716 49.5,591.422265 49.5,493.319115 C49.5,491.168129 49.5,489.440932 49.5259156,485.56431 L49.5463338,479.866891 C49.5459614,479.756088 49.5459614,479.756088 49.5443323,479.377184 C49.54216,478.868645 49.54216,478.868645 49.5390824,478.137455 C49.5336514,476.841306 49.5282204,475.505568 49.5231516,474.203503 C49.5208022,473.597098 49.5208022,473.597098 49.5184816,472.984936 C49.5,469.881173 49.5,467.650222 49.5,466.67903 C49.5,368.580088 52.0473839,269.150482 57.0700257,171.178887 C57.8224063,156.851357 61.4896588,142.616982 67.9804797,128.85925 C77.4750835,108.729228 93.0013372,90.3670543 111.671925,77.1981343 C130.772947,63.7151824 152.244189,55.9940652 173.770269,54.8443979 L175.594888,54.7459593 C277.593002,49.2836023 380.8533,46.5092719 482.498465,46.5 C583.988102,46.5092709 687.101983,49.2756298 788.972917,54.7219301 L791.232769,54.8442621 C812.757848,55.994165 834.230736,63.7164677 853.33447,77.2011241 C872.004147,90.3696094 887.528477,108.731188 897.021008,128.86404 C903.510404,142.615147 907.179229,156.849227 907.930196,171.155331 C912.953263,269.125083 915.5,368.554651 915.5,466.67903 C915.5,467.678252 915.5,469.956475 915.481566,473.121633 C915.479221,473.753757 915.479221,473.753757 915.476847,474.379823 C915.471778,475.71 915.466347,477.074073 915.460916,478.397369 C915.457839,479.143843 915.457839,479.143843 915.455666,479.662944 L915.453676,480.134421 C915.454039,480.247085 915.454039,480.247085 915.455668,480.6232 C915.45784,481.128123 915.45784,481.128123 915.460918,481.854522 C915.466349,483.142395 915.47178,484.471074 915.476849,485.768254 C915.479302,486.399442 915.479302,486.399442 915.481723,487.037104 C915.5,490.105383 915.5,492.323982 915.5,493.319115 C915.5,591.445825 912.953049,690.877218 907.929978,788.819188 C907.179382,803.146939 903.512199,817.381043 897.01968,831.138555 C887.529081,851.267524 872.005306,869.625904 853.329744,882.800141 C834.229459,896.280767 812.756257,904.002256 791.229439,905.153762 L790.017459,905.220923 C687.843438,910.703828 584.377366,913.488871 482.503326,913.5 C380.626147,913.488874 277.136034,910.701502 174.91155,905.215025 L174.911018,905.214996 Z" id="Stroke-9" fill="#000000" fill-rule="nonzero"></path>
        <path d="M456,194 L504,194 C509.522847,194 514,198.477153 514,204 L514,334 C514,339.522847 509.522847,344 504,344 L456,344 C450.477153,344 446,339.522847 446,334 L446,204 C446,198.477153 450.477153,194 456,194 Z M469,265 C463.477153,265 459,269.477153 459,275 L459,324 C459,329.522847 463.477153,334 469,334 L491,334 C496.522847,334 501,329.522847 501,324 L501,275 C501,269.477153 496.522847,265 491,265 L469,265 Z" id="Combined-Shape" fill="#000000"></path>
        <rect id="Rectangle" fill="#000000" x="243" y="596" width="121" height="85" rx="10"></rect>
        <rect id="Rectangle" fill="#000000" x="602" y="596" width="121" height="85" rx="10"></rect>
    </g>
</svg>