<svg height="960" viewBox="0 0 960 960" width="960" xmlns="http://www.w3.org/2000/svg"><path d="m639.626795 91.8405788 2.536365.1583486c78.38166 4.9005529 148.336858 47.0059176 189.735064 111.8589536l1.265776 2.004119.648437.688695c20.485197 21.834728 42.878676 53.494314 67.77752 95.34807l.750043 1.264235.075178.105232c36.345704 51.347182 56.181724 110.782819 56.584822 172.831508v1.90026c0 58.458099-17.250847 114.663381-49.336218 164.049964l-.778782 1.189036-.012713.047321c-1.439064 4.978756-3.840337 9.659395-7.099127 13.764203l-.365611.453705c-22.66242 27.707701-47.439336 53.933458-74.3183 78.670696l-.292249.266075-.841668 1.213579c-40.60719 57.860663-104.576378 95.689676-176.269701 102.40535l-2.242913.199724c-92.621896 7.819173-161.615502 11.740347-207.442718 11.740347-50.28296 0-117.590648-5.878117-202.367678-17.571954l-2.536952-.351122c-99.210848-13.765103-179.8116962-86.993229-203.0018969-184.43298-14.7241558-61.86812-22.0934731-124.244008-22.0934731-187.065468 0-59.452861 6.5999402-120.108095 19.7667085-181.930752 23.327602-109.546928 118.5096845-188.9586835 230.4643995-192.2798591 97.194619-2.8820784 164.581904-4.3383247 202.457194-4.3678649h1.138604c33.495926 0 91.897613 2.6159877 175.799889 7.8405788zm-174.819427 32.1594212h-2.103573c-37.362978.029146-104.45868 1.479071-201.287102 4.350291-93.525254 2.774459-173.0395207 69.113996-192.5271833 160.628485-12.5930065 59.128641-18.8895097 116.995208-18.8895097 173.5997 0 59.691513 7.0020112 118.959701 21.0066212 177.804426 19.3728643 81.400204 86.7060838 142.574318 169.5859278 154.07356l2.523583.349269c83.102441 11.462846 148.730398 17.194269 196.883868 17.194269 44.457613 0 112.483574-3.866145 204.077873-11.598569 49.052815-4.141369 92.810655-25.493269 125.53368-57.811562-53.745135 28.714336-116.880216 45.225209-184.304103 45.225209-194.978561 0-354.091155-138.075361-354.091155-309.918953 0-171.843593 159.112594-309.918954 354.091155-309.918954 83.444973 0 160.320797 25.289651 220.966627 67.692706-1.674832-1.815884-3.322694-3.550978-4.947921-5.201577-33.284427-55.663425-92.538027-94.225765-161.658989-98.547323l-2.526355-.157724c-81.451667-5.071992-138.564259-7.658708-171.337775-7.760148zm120.500082 63.977171c-184.51345 0-334.091155 129.801137-334.091155 289.918954 0 160.117816 149.577705 289.918953 334.091155 289.918953 120.770113 0 226.57329-55.608526 285.262717-138.929089l.00632-.411583c30.727054-43.868603 48.423513-95.377138 48.423513-150.474406 0-56.158089-18.384461-108.587923-50.214615-152.999397-.633567-1.071577-1.265193-2.1359-1.894879-3.192967-59.363128-80.483211-163.293933-133.830465-281.583056-133.830465z"/></svg>