<svg height="960" viewBox="0 0 960 960" width="960" xmlns="http://www.w3.org/2000/svg"><g><path d="m449.365687 72.0201379c5.511725-.3503215 10.263854 3.8338232 10.614175 9.3455488.344384 5.4183066-3.69329 10.1025465-9.066451 10.5925866l-.279098.0215888-471.9999997 29.9999999c-5.5117257.350322-10.2638538-3.833823-10.6141754-9.345549-.3443838-5.418306 3.6932904-10.102546 9.0664514-10.592586l.2790974-.021589z"/><path d="m450.365687 8.02013794c5.511725-.35032154 10.263854 3.83382316 10.614175 9.34554876.344384 5.4183066-3.69329 10.1025465-9.066451 10.5925866l-.279098.0215888-471.9999997 30c-5.5117257.3503215-10.2638538-3.8338232-10.6141754-9.3455488-.3443838-5.4183066 3.6932904-10.1025465 9.0664514-10.5925866l.2790974-.0215888z"/><path d="m450.38675 34.0188215c5.512452-.3386888 10.25574 3.8554755 10.594428 9.3679281.332949 5.4190213-3.714602 10.0947297-9.088785 10.5734291l-.279143.0209998-471.9999996 29c-5.5124527.3386888-10.2557401-3.8554755-10.5944289-9.3679281-.3329483-5.4190213 3.7146026-10.0947297 9.0887857-10.5734291l.2791424-.0209998z"/><path d="m450.368352 89.0199689c5.511819-.3488493 10.26283 3.8365646 10.611679 9.3483836.342937 5.4183985-3.695989 10.1015595-9.06928 10.5901645l-.279103.021514-474.0000005 30c-5.511819.348849-10.2628293-3.836564-10.6116786-9.348383-.3429366-5.418399 3.6959887-10.10156 9.0692803-10.590165l.2791033-.021514z"/><path d="m490.498269 4.48529724-2.585034.24038161-2.543982.24331624-2.502186.24598088-3.673284.37337101-2.394442.25144946-2.350043.25315967-2.3049.25459719-3.371081.38399462-2.188789.25699795-2.883191.34818837-3.478287.43619032-4.193611.55481117-1.710461.23998928c-19.658894 2.86125679-34.238894 19.71692279-34.238894 39.58294649v856.8837255c0 17.952075 11.95562 33.680852 29.198934 38.514153l5.851335 1.562226 2.030856.533343 1.966592.509136 1.942353.49466c.323929.081778.648516.163358.974595.244943 5.907407 1.478038 11.789629 2.82568 18.054768 4.102798 8.057831 1.642549 16.389559 3.094886 25.044525 4.338655l2.743949.385814c21.57934 2.967571 45.168392 4.647063 71.514027 4.760617l1.442656.003953c19.683424.154254 50.826291-9.182677 69.90292-23.330599 10.173468-7.545014 16.172322-19.462553 16.172322-32.128519v-846.7851896c0-12.8460279-6.16966-24.9104097-16.584661-32.4302621l-.545497-.3907313c-6.293213-4.4722486-14.174567-8.8652662-22.607379-12.68649l-1.493656-.6682978-1.50384-.6558251c-1.25709-.5411569-2.52347-1.0686947-3.79584-1.58104709l-1.52951-.60743354c-.255327-.09999066-.510841-.19934884-.766516-.298062l-1.535763-.58443851c-12.29814-4.61198234-24.844592-7.68009807-34.722379-7.81839428l-.322666-.0032983c-30.571392-.27062542-61.427655 1.25712762-91.01394 3.96918986zm90.659864 36.02924296c3.25062.0056215 7.619333.8614856 12.446518 2.2714305l1.215966.3638582c1.224754.3750588 2.474727.7832051 3.739613 1.2198114l1.269474.4459216c.636841.2275327 1.276551.4617949 1.917842.7022079l1.284308.488856c.642826.2483572 1.286374.5024797 1.929356.7617891l1.284827.5253632 1.281026.5381665 1.274935.5499415c.423709.1851621.846021.3721152 1.266554.5606881l1.255882.5704064c.208297.0958205.416055.192003.623224.2885262l1.23558.5830557c.613882.2934004 1.221614.5894811 1.82191.8876636l1.190292.5989961c4.128642 2.1050954 7.850766 4.2942856 10.724476 6.3691652v846.7851896c-5.052835 3.747366-11.413161 6.834151-17.860647 9.237695l-1.172959.429474-1.17325.414386-1.17191.399268c-.390233.130566-.779971.258608-1.168942.38412l-1.164343.36894c-.58075.180671-1.159165.355638-1.734326.524885l-1.145715.330861-1.13541.315577-1.123477.300262c-.186161.048766-.371757.096892-.556754.144378l-1.10252.277233c-.36493.089847-.727191.17713-1.086512.261842l-1.068873.246421c-.176585.039784-.352367.078923-.527312.117418l-1.039359.223233-1.017646.207737-.994301.19221-.969329.176652-.942725.161065-.914491.145448-.884629.1298-.853135.114121-.820012.098414c-.133818.015091-.266187.029527-.397075.043306l-.767271.074794-.730073.059009-.691244.043196-.650787.02735c-.210005.011476-.412995.011476-.608699.011476h-.288057c-36.968258-.065593-65.201237-3.494116-85.857711-7.28773l-2.184255-.407719c-.718456-.136282-1.427301-.272892-2.126588-.409694l-2.069238-.410849-2.012204-.411185c-.661265-.137026-1.313077-.273972-1.955489-.410701l-1.899088-.409398-1.843005-.407275c-.302511-.067657-.602699-.135191-.90057-.202586l-1.759475-.402555-1.704182-.398384-2.453296-.587962-2.330673-.573967-2.918661-.738741-2.705098-.70239-3.084908-.816881-3.273608-.873734v-856.8837255l2.753736-.3788533 2.447661-.3199453 2.475429-.3121933 3.710598-.4498342 1.668569-.1958572 2.693133-.3082981 2.914538-.3232664 2.062178-.2224675 3.266223-.3420972 2.289417-.2324729 2.376271-.2350479 2.460814-.2368074 2.543048-.2377513 2.622972-.2378798 2.700586-.2371928 4.191353-.3527169 2.884516-.2319072 2.954047-.2283658 3.021266-.224009 3.086177-.2188366c.519643-.0359964 1.041895-.0717433 1.566708-.1072237l3.179211-.2095489c1.069721-.0686931 2.149299-.1361843 3.238347-.2023377l3.295174-.194311 3.34969-.1854688c.562696-.0301293 1.127567-.0598562 1.694566-.0891637l3.427134-.1706763c.575314-.027562 1.15266-.0546706 1.731989-.0813088l3.49938-.154049 3.544657-.1419448c11.888419-.4520692 24.492961-.6888084 37.428661-.5742985z"/><path d="m500.754239 11.9635564-4.625798.3660471-3.397242.2811962-4.430323.3827603-3.246066.2922292-3.178479.296038-4.129933.3996886-4.002813.4041711-2.916294.3052834-3.770778.4088688-3.632715.4097549-3.490671.4093331-2.522395.3059363-3.232521.4054482-2.282737.2974827-1.284075.174157c-4.938022.6924022-8.611399 4.9167901-8.611399 9.9031201v898.7940726c0 4.533352 3.049592 8.499595 7.430767 9.664318l3.750587.991545 3.463293.902016 2.448136.626306 2.350681.589934 1.526557.376044 1.503609.364318 2.230206.52838 1.481878.342779 1.487441.33727 2.259412.499465 1.536987.331273 1.571061.331983 1.613281.334468 2.516903.510248.868902.17325c29.296683 5.818479 62.326611 9.232973 100.943656 9.297259 5.52934 0 10.016643-4.470652 10.016643-10v-922.9698676c0-5.4883099-4.423386-9.9510263-9.911481-9.99960825-26.345959-.23322085-53.478718.86364189-80.33428 2.93303225zm70.245761 17.0424436v902.897975h-.017419c-32.438086-.571651-60.577254-3.646757-85.747593-8.562206l-2.106711-.416862c-2.035519-.407404-3.932928-.79945-5.760472-1.191095l-2.163887-.47074c-.356514-.078744-.711326-.157711-1.064982-.237021l-2.11242-.480934-2.110867-.494909-2.13552-.51463c-.359431-.087734-.72098-.176529-1.085195-.266504l-2.221639-.55498-2.473295-.631094v-882.269l2.208587-.2613897 2.895501-.3332753 2.992757-.3334253 2.048042-.2219934 3.149625-.331995 3.240612-.3301288 4.458285-.435962 3.443768-.3228342 3.526917-.3184477 3.607714-.3133053 3.68616-.3074069 2.499859-.2012876 2.532983-.198106c22.421148-1.7276908 45.026316-2.7631961 67.134589-2.8984428z"/><path d="m487.787359 58.0396093c30.688127-2.7395358 62.405606-4.2823915 93.30109-4.009114 5.522631.048849 9.960009 4.5654262 9.911559 10.0880577-.049248 5.5226314-4.565825 9.9600089-10.088457 9.91116-29.171714-.2580304-59.191766 1.1463544-88.334314 3.6660622l-4.329828.3831296-3.892717.3597596-2.54228.2430031-2.498973.2452056-3.665353.3713234-2.386896.2494822-2.34054.2507009-3.421993.3777213-3.312797.3788819-3.717285.4417514-2.415495.2978997-3.787373.4892067-.877983.1194024c-5.46941.7664189-10.524548-3.0461087-11.290967-8.5155187-.753429-5.3767082 2.918186-10.3530687 8.238855-11.2483196l.440763-.0654225 3.063018-.4050486 3.567987-.4470796 3.359863-.4032247 3.350068-.3876706 3.460856-.3866131 2.367353-.256684 3.639054-.3827331 3.742104-.3791344 2.550554-.2502865 2.594204-.2479812 3.971272-.3670317c.446494-.0404226.894717-.0807197 1.344651-.1208854z"/><path d="m579.012921 53.9998908c3.525379.0046727 7.982075.7203268 12.88482 1.948082l1.288776.3317698 1.307099.354218 1.323506.3758813c2.440298.7084937 4.953667 1.522248 7.487022 2.4194936l1.383492.497556c.230806.0842624.461698.1691821.692635.2547427l1.385848.5209244c.461919.176118.923701.3546689 1.385027.535522l1.38229.5493345 1.377639.5623619c.458226.189538.915357.3811164 1.371074.5746044l1.362594.5860617c.226286.0985881.452139.1976209.677519.297082l1.346285.6017757c6.476525 2.9321605 12.48819 6.19703 17.062265 9.3957135 4.525966 3.1650402 5.629214 9.3998323 2.464174 13.925798-3.108522 4.4451448-9.17814 5.5887205-13.681728 2.6296508l-.24407-.1654774c-2.02475-1.4159221-4.494286-2.879608-7.226262-4.3215689l-1.036436-.5395813-1.058904-.5367302c-.356475-.1783444-.716338-.3560779-1.079234-.5330648l-1.097427-.5285852c-.184302-.087679-.369272-.1751374-.554868-.2623582l-1.12071-.5203388c-.187915-.0862028-.376366-.1721341-.565308-.2577769l-1.139185-.5102602-1.148832-.5025232-1.15634-.4939719c-.19323-.0815708-.386684-.1627514-.580318-.2435247l-1.163597-.4796181c-.194173-.0790767-.388436-.1577123-.582745-.2358898l-1.166045-.4634321c-.194314-.0762772-.388585-.1520625-.582768-.2273387l-1.163686-.4454138-1.159443-.4323838-1.153063-.4185393-1.144545-.4038807-1.13389-.3884076c-.187976-.0634-.375418-.1261213-.562282-.188147l-1.113903-.3636712-1.097906-.3461624-1.079773-.3278392-1.059502-.3087018c-4.019844-1.145636-7.545799-1.851501-10.036217-1.9111814l-.31892-.0041028c-5.522843-.0071362-9.994207-4.4900699-9.987188-10.0129128.007253-5.5228429 4.490187-9.9942067 10.01303-9.9871881z"/><path d="m446.313916 833.514086c1.372932-5.349477 6.822521-8.573103 12.171998-7.20017 1.718265.440989 3.590142.872805 5.610557 1.294142l1.543083.314018 1.598308.309965c.270961.051317.544203.102459.819716.153425l1.680255.303658c1.138236.200999 2.312496.399093 3.522146.594118l1.840939.290216 1.893548.285489c.319949.047181.64207.09416.966354.140935l1.971571.278172 2.02299.27314 2.073936.267985c.349875.044228.701853.088237 1.055923.132022l2.149461.260025c.362402.042886.726878.085544 1.093418.127972l2.223915.251789 2.272956.246144c.382887.040547.767797.080853 1.154721.120917l2.345627.237449 2.39348.231498c.805749.076161 1.619394.151309 2.440856.225425l2.487758.219231 2.534183.212913 2.580133.206472 2.625606.199911 2.670605.193225 2.715127.186418 2.759175.179488 2.802745.172436c.470728.028144.943253.05599 1.417563.083535l2.86721.161627 2.909591.154269c.488438.025092.978621.049872 1.470541.074337l2.972272.143002 3.013465.135337 3.054182.12755 3.094423.119641 3.134189.111608c.525652.017926 1.052941.035511 1.581857.052755l3.192945.09933c.535385.015864 1.072378.031381 1.610968.046547l3.25063.086778c1.089881.027512 2.186071.053604 3.288493.078256l3.32588.069612c.557403.010874 1.116343.021384 1.676812.031526l3.381068.056415 3.417266.047466 3.452987.038392c.578449.005636 1.158366.010889 1.739741.015756l3.505679.024553c.587171.003314 1.17578.006238 1.765819.008768l3.557299.010439c5.522841.008773 9.992875 4.493033 9.984589 10.015873-.009261 5.522841-4.493521 9.992875-10.016361 9.984291l-3.64859-.010935c-.605252-.002608-1.209075-.005623-1.811459-.009043l-3.596961-.025359c-.59659-.005029-1.191722-.010459-1.785387-.016287l-3.544306-.039719c-.587757-.00741-1.174028-.015212-1.758803-.023405l-3.490625-.053829c-.578753-.009747-1.155992-.01988-1.731706-.030397l-3.435918-.067688c-.569579-.012042-1.137615-.024464-1.704097-.037263l-3.380186-.081294-3.34246-.090225c-.553908-.015776-1.106225-.031919-1.656942-.048427l-3.285019-.103413-3.246154-.112065-3.206834-.120604-3.167059-.129033-3.126826-.137349c-.51776-.023579-1.033824-.047499-1.548184-.071758l-3.065623-.149614-3.024252-.157651c-.500569-.026939-.999395-.054208-1.496469-.081805l-2.96134-.169496-2.918828-.177254-2.875861-.184899c-.475705-.031447-.9496-.063209-1.421676-.095282l-2.810556-.196158c-.929526-.066619-1.851701-.134467-2.766448-.203523l-2.721887-.210778c-.449908-.035728-.897941-.071754-1.344089-.108075l-2.654188-.221449-2.608485-.228424-2.562326-.235287c-.846366-.079561-1.684962-.160246-2.515713-.242038l-2.468643-.248678-2.421117-.255204c-.399533-.043072-.797068-.086411-1.192593-.130015l-2.348974-.264786-2.300308-.271034-2.251186-.27717-2.20161-.283194-2.151576-.289107-2.101087-.294907-2.050142-.300596c-1.012259-.151702-2.005243-.305495-2.978695-.461317l-1.920786-.314328-1.868246-.319627c-4.911529-.859301-9.257765-1.773916-12.999808-2.734304-5.349477-1.372932-8.573103-6.822521-7.20017-12.171998z"/><path d="m626.348709 827.147571c4.889062-2.568837 10.934883-.687923 13.50372 4.201138 2.568837 4.889062.687923 10.934883-4.201138 13.50372-14.853018 7.804152-36.1144 11.283453-52.734681 11.144851-5.522656-.046055-9.962317-4.560387-9.916617-10.083043.04641-5.522655 4.560742-9.962317 10.083397-9.916264 13.619078.113576 31.897831-2.877635 43.265319-8.850402z"/></g></svg>