<?xml version="1.0" encoding="utf-8"?>
<!-- Generator: Adobe Illustrator 21.0.0, SVG Export Plug-In . SVG Version: 6.00 Build 0)  -->
<svg version="1.1" id="Layer_1" xmlns="http://www.w3.org/2000/svg" xmlns:xlink="http://www.w3.org/1999/xlink" x="0px" y="0px"
	 viewBox="0 0 898.5 1002.2" style="enable-background:new 0 0 898.5 1002.2;" xml:space="preserve">
<style type="text/css">
	.st0{fill:#191A17;}
</style>
<g>
	<path class="st0" d="M889.6,31.3C765.3,12.4,608.9,2,449.2,2C289.6,2,133.2,12.4,8.9,31.3l-6,0.9v48.6l4.3,1.8
		c10.7,4.6,21.8,7.4,33.1,8.4c0.1,51.6,8.1,103.2,23.6,153.3c13.5,43.5,32.7,86.1,57.1,126.6c43.3,71.8,92.7,119.3,112.8,134.4
		l0.3,0.2c16.7,11.3,24.4,28.9,23.5,53.8l0,0.2l0,0.2c2.7,124.5,4.9,214.6,6.3,268.2c0.2,6.7,1.5,9.9,5.8,14.2
		c4.4,4.3,9.8,10.7,15.6,17.4c20.5,23.8,36.1,40.7,50,40.7h8.4V944h-17v46.8l1.7,0.4c0.2,0,0.3,0.1,0.5,0.1c1.5,0.3,3,0.6,4.6,0.9
		c0.7,0.1,1.4,0.3,2.2,0.4c0.9,0.2,1.9,0.3,2.8,0.5c0.3,0,0.5,0.1,0.8,0.1c1,0.2,2.1,0.3,3.1,0.4c0.1,0,0.2,0,0.3,0
		c4.5,0.6,9,1,13.4,1.3c3.4,0.2,6.8,0.3,10.2,0.3c12.7,0,25.5-1.4,38.1-4.1l1.7-0.4V944h-17v-43.8h120.6V944h-17v46.8l1.7,0.4
		c0.1,0,0.3,0.1,0.4,0.1c1.6,0.3,3.1,0.6,4.7,0.9c0.7,0.1,1.4,0.3,2.1,0.4c0.9,0.2,1.9,0.3,2.8,0.5c0.3,0,0.5,0.1,0.8,0.1
		c1,0.2,2.1,0.3,3.1,0.4c0.1,0,0.2,0,0.3,0c4.5,0.6,9,1,13.4,1.3c3.4,0.2,6.8,0.3,10.2,0.3c11.1,0,22.3-1.1,33.4-3.1
		c1.6-0.3,3.2-0.6,4.7-1l1.7-0.4V944h-17v-43.8h8.4c14,0,30.5-17.4,52.3-41.9c5.5-6.2,10.7-12.1,14.8-16.1c4.3-4.3,5.6-7.5,5.8-14.2
		c0.4-16.3,1.1-34.3,1.8-55.2c2-56.6,4.5-127,4.5-213.2c0-26.1,7.5-43.2,23.5-54.1l0.3-0.2c19.9-14.9,68.9-62.3,112-134.4
		c24.2-40.5,43.2-83,56.5-126.6c15.3-50.1,23.2-101.6,23.3-153.2c11.3-1,22.4-3.8,33.1-8.4l4.3-1.8V32.3L889.6,31.3z M881.4,71.4
		c-0.1,0-0.2,0.1-0.3,0.1C758.3,53.4,605.3,43.4,449.2,43.4c-156.1,0-309,10-431.8,28.1c-0.1,0-0.2-0.1-0.3-0.1V44.5
		c122.7-18.3,275.8-28.3,432.2-28.3s309.5,10,432.2,28.3V71.4z M347.8,900.2h1.1V944h-1.1V900.2z M337.3,948.3v40.3c0,0,0,0-0.1,0
		c-0.9-0.2-1.9-0.3-2.8-0.5c-0.6-0.1-1.3-0.2-1.9-0.4c-0.6-0.1-1.1-0.2-1.7-0.3v-39.1H337.3z M401.7,948.3v39.1
		c-0.4,0.1-0.7,0.2-1.1,0.2c-1.2,0.2-2.3,0.5-3.5,0.7c-0.6,0.1-1.3,0.2-1.9,0.3c-1.2,0.2-2.3,0.4-3.5,0.5c-0.6,0.1-1.2,0.2-1.8,0.3
		c-1.5,0.2-3,0.4-4.5,0.6c-0.9,0.1-1.8,0.2-2.7,0.3c-0.9,0.1-1.9,0.2-2.8,0.3c-1,0.1-2,0.1-3,0.2c-0.6,0-1.3,0.1-1.9,0.1
		c-1.1,0.1-2.3,0.1-3.4,0.1c-0.4,0-0.9,0-1.3,0c-4,0.1-7.9,0-11.9-0.1v-42.5H389H401.7z M384.7,944h-21.2v-43.8h21.2V944z
		 M513.8,900.2h1.1V944h-1.1V900.2z M503.3,948.3v40.3c0,0,0,0-0.1,0c-0.9-0.2-1.9-0.3-2.8-0.5c-0.7-0.1-1.3-0.2-2-0.4
		c-0.5-0.1-1.1-0.2-1.6-0.3v-39.1H503.3z M567.7,948.3v39.1c-0.4,0.1-0.7,0.2-1.1,0.2c-1.2,0.2-2.3,0.4-3.5,0.7
		c-0.6,0.1-1.3,0.2-1.9,0.3c-1.2,0.2-2.3,0.4-3.5,0.5c-0.6,0.1-1.2,0.2-1.8,0.3c-1.4,0.2-2.9,0.4-4.4,0.5c-1,0.1-2,0.2-3,0.3
		c-0.9,0.1-1.8,0.2-2.7,0.2c-1,0.1-2.1,0.1-3.1,0.2c-0.6,0-1.2,0.1-1.8,0.1c-1.2,0.1-2.3,0.1-3.5,0.1c-0.4,0-0.8,0-1.3,0
		c-4,0.1-8,0-12-0.1v-42.5h30.7H567.7z M550.7,944h-21.2v-43.8h21.2V944z M605,848.9c-11.5,13-32.9,37.2-41.7,37.2H380.5h-45.3
		c-8.4,0-27.7-22.4-39.2-35.8c-3.7-4.3-7.3-8.5-10.7-12.2c30,4.9,84,7.3,163.9,7.4c84.8-0.1,138.3-2.8,166.4-8.5
		C612.4,840.5,608.8,844.6,605,848.9z M628.3,559.6c0,85.9-2.5,156.2-4.5,212.7c-0.7,20.9-1.4,39-1.8,55.4c-0.1,2.5-0.1,2.9-1,3.8
		c-25.6,6.6-80.4,9.8-171.9,9.9c-85.2-0.1-140.7-2.9-168.9-8.4c-0.3-0.3-0.6-0.6-0.8-0.8c-1.5-1.5-1.5-1.5-1.6-4.5
		c-1.4-53.6-3.6-143.6-6.3-268c0.6-16.1-2.1-29.9-8-41.5c54,13.1,122.1,27.2,186.5,27.2c0.1,0,0.1,0,0.2,0
		c60.9,0,123.1-12.8,186.7-27.8C631.2,528.9,628.3,542.9,628.3,559.6z M850.9,77.3l-7,0.2l0.1,7c0.5,52.5-7.1,104.8-22.7,155.7
		c-13,42.4-31.6,84-55.2,123.4c-41.9,70.1-89,115.8-108.3,130.2c-6.2,4.2-11.5,9.2-15.7,15.1c-65.5,15.6-129.6,29.3-191.9,29.3
		c0,0-0.1,0-0.2,0c-35.1,0-88.6-3.3-191.7-28.7c-4.4-6-9.8-11.2-16.3-15.7c-19.4-14.6-66.9-60.5-109-130.3
		c-23.8-39.5-42.5-81-55.7-123.4C61.7,189.3,54,136.9,54.5,84.5l0.1-7l-7-0.2c-4.2-0.1-8.4-0.5-12.6-1.2
		c119.6-16.6,265.5-25.7,414.3-25.7c148.8,0,294.7,9.1,414.3,25.7C859.3,76.8,855.1,77.2,850.9,77.3z"/>
	<path class="st0" d="M541.6,702.4c-2.7,0.3-5,1.2-7.3,2.6c-2.3,1.5-3.9,3.8-5.7,6.2c0-2.4,0-4.4,0-6.3c0-1-0.3-1.4-1.3-1.4
		c-3.7,0.1-7.4,0.1-11.1,0c-1.3,0-1.6,0.4-1.6,1.7c0,12,0,24.1,0,36.1c0,0.8,0,1.6-0.1,2.4c-0.4,4-4.6,7-8.5,6.1
		c-3.8-0.9-6-3.6-6-7.7c0-6.6,0-13.2,0-19.7c0-2.3,0-4.6-0.4-6.8c-0.8-3.8-2.3-7.1-5.6-9.5c-3.3-2.4-7-3.5-11.1-3.8
		c-6.1-0.4-11.7,0.8-15.8,5.8c-0.8,1-1.5,2-2.5,3.2c0-2.3-0.1-4.2,0-6.2c0.1-1.2-0.2-1.7-1.6-1.7c-3.5,0.1-7,0-10.5,0
		c-1.8,0-1.8,0-1.8,1.8c0,12.4,0,24.8,0,37.3c0,1.5-0.2,3-1,4.3c-1.8,3-5.1,4.3-8.4,3.3c-2.6-0.8-5.2-3.3-5.1-7
		c0.1-5.2,0-10.4,0-15.5c0-3.6,0.1-7.2-0.4-10.8c-0.5-3.3-1.4-6.4-3.7-8.9c-5.5-5.7-12.5-6.5-19.9-5.3c-4.5,0.7-7.8,3.4-10.4,7.1
		c-0.2,0.3-0.4,0.9-0.9,0.8c-0.6-0.2-0.3-0.8-0.3-1.2c0-1.5-0.1-3.1,0-4.6c0-1-0.3-1.3-1.3-1.2c-3.7,0-7.5,0.1-11.2,0
		c-1.1,0-1.4,0.3-1.4,1.4c0,10.7,0,21.5,0,32.2c0,2.1,0,4.3,0,6.4c-0.1,3.2-2.9,6.1-5.9,6.8c-5.3,1.2-9.7-3.1-9.6-8
		c0.2-11.7,0.1-23.3,0.1-35c0-1,0-2,0-2.9c0-0.7-0.3-0.9-0.9-0.9c-4,0-8,0-12,0c-0.7,0-0.9,0.2-0.9,0.9c0,0,0,0.1,0,0.1
		c0,13.2,0,26.4,0.1,39.6c0.1,7.8,5.3,13.5,12.2,15.9c6.3,2.2,12.6,2.2,18.9,0c4.3-1.5,7.8-4.1,10.2-8.2c1.8-3.1,2.2-6.4,2.3-9.8
		c0.1-4.8,0-9.5,0.2-14.3c0.1-2.8,0.2-5.7,1.6-8.3c2.7-5.3,8.6-6.2,13.4-4.7c2,0.6,3.3,2,4.2,3.9c0.8,1.7,0.9,3.5,0.9,5.3
		c0,6.3,0,12.6,0,18.9c0.1,8.3,5.1,14.9,13,17.3c4.9,1.5,9.8,1.7,14.8,0.8c4.6-0.9,8.6-2.9,11.8-6.4c2.8-3.2,4-6.9,4.1-11.1
		c0.1-6.6-0.2-13.1,0.6-19.7c1-7.4,6.4-10.6,13.6-9.3c2.6,0.5,4.6,2.2,5.5,4.9c0.5,1.5,0.7,3,0.7,4.5c0,6.4,0,12.9,0,19.3
		c0.1,8.6,5.2,14.6,13,17.1c5.9,1.9,11.9,1.9,17.7,0c7.7-2.5,12.8-8.5,12.9-17.1c0-4,0-7.9,0-11.9c0-3.1,0.3-6.2,0.9-9.2
		c0.5-2.5,1.8-4.5,3.9-6.1c2.4-1.7,5.1-2,7.9-1.7c0.9,0.1,1.2-0.2,1.2-1.1c-0.1-3.2-0.1-6.4,0-9.7
		C542.8,702.4,542.5,702.3,541.6,702.4z"/>
	<path class="st0" d="M364.3,696.6c4.9,0,8.7-3.8,8.7-8.7c0-4.8-4-8.7-8.7-8.7c-4.7,0-8.6,4-8.6,8.8
		C355.7,692.9,359.5,696.7,364.3,696.6z"/>
</g>
</svg>
