<svg height="960" viewBox="0 0 960 960" width="960" xmlns="http://www.w3.org/2000/svg"><path d="m751.325334 4.42252031c23.240715-4.08830569 39.691733-3.48747918 56.417897 1.45929363l1.28729.38908709c.214678.06627456.429432.13326201.644275.20096161l1.290258.41473766c.645787.21163597 1.292652.42966831 1.940995.6540775l1.298777.45731505 1.303436.47428526c.870668.32183919 1.744919.65496872 2.623705.99934229l.816492.32200644 1.300913.51919606 4.180888 1.687679 1.491902.6163473c.488894.2040553.969504.4068055 1.442206.6085169l1.39475.6022839c.228628.0999499.455372.1997067.680279.2993037l1.327768.5959294c5.008126 2.2790832 9.093728 4.5088036 12.824799 7.0940722 4.878096 3.3800451 9.142628 7.3604654 12.744899 12.6115663 5.006213 7.2976564 7.73814 15.8790619 7.73814 24.8233599v7.1810533l-.008561.712611c-.254615 13.2518045-5.735983 26.1455001-18.230733 35.5769742-8.470167 6.393578-18.196036 9.759512-30.863659 12.01052l-1.268031.214139-236.082238 38.947724-28.353395 4.697015-41.377084 6.876798-37.840798 6.316008-31.680874 5.314962-21.651509 3.651808-21.879897 3.712363-17.685948 3.023115-8.988108 1.546755-9.983381 1.728918-9.096243 1.588293-5.565111.979757-8.765594 1.560295-5.044839.91101-.289.345-3.01 582.978.067219.078323c7.717853 9.180136 12.276053 20.777438 12.442229 34.133814l.004707.757896-.007155.933967.053315.115598.511685 1.074402.629386.060113 25.229498 2.330987 62.119172 5.660952 133.784848 12.102543c20.614342 1.860483 36.404537 19.139952 36.404537 39.83808v8.175208c0 6.634058-1.376115 11.977792-3.527524 17.193711-1.3152 3.188598-2.954835 6.266342-4.855441 9.22969-3.593231 5.602417-8.248686 10.986711-13.734402 15.787283-13.0619 11.43052-30.054304 19.017385-49.743607 20.976251l-30.345583 3.023225-13.021069 1.267207-29.518584 2.790863-6.55341.599101-5.062912.447014-3.813168.324093-3.620478.294817-3.444512.266021-2.477968.180906-2.395451.165179-1.55461.101482-2.273604.139415-2.209903.124228-2.153258.10924-2.10367.094456-1.378382.054857-2.036702.070264-1.34027.038915-1.328684.032644-1.975876.037336-1.308865.017226-1.304597.016672h-3.909085l-1.964832-.028692-1.31849-.021111-1.32781-.026784-1.339221-.032398-2.034802-.058991-1.376897-.046171-2.101114-.07937-2.15031-.091327-2.206561-.103084-2.269868-.114637-2.340232-.12599-3.241959-.185295-120.754126-6.785819-35.500353-2.035043-14.045486-.83715-7.449192-.470949-3.445615-.240896-3.312185-.272212-1.858532-.162606-1.750302-.161778-1.653673-.163014-1.568639-.166313-1.495206-.171676-.961734-.118449-1.398589-.185198-1.356083-.196062-.886169-.137762-.875869-.14412c-.145311-.024583-.290336-.049457-.435146-.074634l-.866862-.154801-.865154-.162685-.866881-.171182-.872046-.180289-.880646-.190009-.892684-.200338-1.369112-.321215c-9.579483-2.302646-18.561002-5.999195-28.110605-11.552254-15.372797-8.939224-27.717009-22.267469-37.090646-39.166334-3.293011-5.936665-5.020868-12.613777-5.020868-19.402585v-7.400978c0-5.189114 1.00967-10.328653 2.972728-15.132121 3.59323-8.79239 9.940855-16.039879 18.035251-20.780923 6.216981-3.641406 12.66909-5.432892 19.159456-5.964691l40.218238-3.363043.053848-.144344c.711704-1.913396 1.56015-3.748764 2.53192-5.496524l.145232-.259132-.011494-.49009c-.017664-.794517-.028584-1.598637-.03294-2.412639l-.00161-1.30709 3.56943-634.925463.070989-16.391406c.001485-.25256.003358-.503583.005634-.753105l.018632-1.479436c.011867-.731022.02766-1.449226.047815-2.155638l.046256-1.397403c.392489-10.367149 1.832167-18.234604 5.795815-27.059995 7.808657-17.386619 23.045979-28.4307351 42.103177-31.7876503l363.600098-63.2800148 85.087276-14.8637547 39.026642-6.8521452 17.110034-3.03106831 5.839299-1.05101851 2.729022-.50382326zm-600.488809 882.05798369c3.879474 4.325592 8.141388 7.838726 12.785742 10.5394 9.208486 5.354701 16.074775 7.364086 23.903544 8.456178l1.1253.150035 1.140536.139129 1.157913.129794 1.17743.122033c.197984.019779.396871.039301.596704.058598l1.825276.168478 2.525745.214908 1.742325.141036 1.753446.125909 3.328288.219297 6.924169.429059 12.345869.732945 17.283296.998904 29.214404 1.65803 95.727098 5.36254 16.987852.971335 3.617385.190086 2.080361.099175 2.021164.087831 1.968803.076337 1.923275.064692 1.884585.052893 1.852729.040946 1.220831.020583 1.814826.027659h4.193412l1.795982-.028049 1.201986-.021181 1.208082-.02694 1.827981-.051306 1.853087-.064518 1.885029-.07788 1.277807-.059418 1.953455-.100486 2.683829-.155423 2.081149-.132843 2.878899-.199114 2.246059-.166024 3.123589-.243905 2.448184-.20003 3.417899-.289795 4.5421-.399857 6.919139-.631266 12.304165-1.152207 23.493298-2.242646 37.727911-3.745105c10.048314-.999696 17.778211-4.343675 23.441121-8.233185l-14.526217 1.65451-15.434345 1.726528-7.631731.838012-7.076934.764852-8.573894.906081-6.694995.686291-2.638906.263708-4.091272.398979-4.403547.411929-2.629309.234129-2.942251.247134-1.581806.124011-1.444236.105816-1.306737.087627-9.994946.634815-2.597655.159123c-.428667.025622-.855255.050793-1.279851.075507l-3.769982.210013-2.460629.126003-2.423405.114567-2.390408.102936-2.361637.091105-2.337091.079078c-1.938523.060833-3.855879.10893-5.763075.14378l-2.284462.035427-2.278933.022511-2.277631.009397-2.280555-.003914c-3.425138-.015953-6.874406-.077497-10.411986-.187632l-2.372175-.080656c-.397778-.014653-.796822-.029914-1.19722-.045788l-2.419349-.102621c-.406168-.018339-.813867-.037299-1.223184-.056883l-2.476031-.125032c-1.248431-.066296-2.513013-.138288-3.796124-.216086l-2.591631-.16337c-.436291-.02853-.874817-.057713-1.315665-.087554l-2.67367-.186966c-.450492-.032487-.903483-.06564-1.359061-.099462l-2.765217-.211007-3.633899-.293479-4.532984-.382095-7.805491-.678012-5.224765-.462391-17.235341-1.552687-17.23004-1.577097-22.447349-2.076143-46.141427-4.311877-38.622901-3.637035-43.633223-4.128211zm155.450802-47.211466-62.161974 3.808885c-.50411.045713-1.012771.076146-1.525588.090838l.159505-.008464c-.263433.016134-.525107.021917-.784625.0177l-.09064.001003-25.875678-.000962-.046539.117474-.292184.701271-.284052.66332-.275921.625371-.267789.58742-.259657.549471-.251526.51152-.243393.473571-.235262.435621c-.077065.138881-.152775.271438-.22713.39767l-.23323.391498c-1.400606 2.324546-2.821541 4.209929-4.167195 5.698305l-.445633.481479c-.516345.544706-1.0197 1.030079-1.504439 1.458598l-.410802.353437-.400897.325937c-.263789.208202-.52045.398302-.768935.570763l-.366463.24552c-1.140218.735953-2.084117 1.07914-2.719253 1.07914l-.183311.00217-.628613.024249-1.076395.064025-1.701484.12176-3.267212.259258-32.182684 2.742525-18.731043 1.558031c-1.801646.147621-2.946299.818067-3.433958 2.011336l.058-.12974 65.120049 6.178101 40.68181 3.839001 38.42274 3.605139 37.031447 3.443954 23.990307 2.202825 16.164844 1.460558 9.244888.819445 7.539495.65229 3.542504.297679 2.191592.179027 2.734316.214093c2.250811.171684 4.433687.326618 6.560127.465317l2.525373.158679 2.475609.143291c.817399.045221 1.62724.08791 2.430258.1281l2.389322.113107c.395054.017612.788587.034608 1.18069.050992l2.336196.090986 2.306296.076486 2.280812.062184c2.647798.064281 5.252578.099764 7.845885.107859l2.220762.000264c2.959231-.008503 5.915251-.052252 8.915148-.12914l2.258886-.063847 2.279755-.076077 2.305038-.08811 2.334736-.099945 2.368848-.111583 2.407376-.123024 2.450317-.134267 2.497674-.145312 12.973465-.818737 1.772665-.125196 2.021204-.157737 2.269572-.190263 2.517768-.222775 3.495977-.324166 4.706257-.455988 5.263259-.529017 5.819685-.602 6.375536-.674934 9.364373-1.013281 11.713176-1.294679 11.457539-1.288244 9.238247-1.050986 11.475957-1.317949 6.69022-.77712.000114-1.762363-26.002302-2.347519-115.458207-10.451741-51.066244-4.655371-26.366394-2.432934-9.870057-.933952-2.622767-.260575-1.115791-.122537-1.104195-.131822-1.042188-.13515-.662137-.0938-.63727-.098056c-.104199-.016759-.207407-.033742-.309645-.050972l-.601986-.106524-.57981-.113558c-.284539-.058723-.561166-.1205-.830486-.185957l-.529077-.136004c-3.551229-.965417-5.813032-2.695886-8.330968-6.786746l-.370486-.615697c-.248449-.421945-.500053-.867098-.756248-1.336939l-.387916-.723463-.920342-1.751238-1.421983-2.738101zm472.890009-797.5091688c-1.005427 0-2.044548.0120415-3.12061.0482984l-1.088496.0432529-1.113843.0574532-1.139912.0719658-1.166702.0867912c-.393446.0314359-.791477.0653948-1.194214.1019288l-1.222446.117379c-.206133.020868-.413474.0423928-.622035.0645809l-1.266146.1411403c-.213508.0248673-.428266.0504109-.644292.0766373l-1.311469.1656045c-.221151.0289838-.443599.0586634-.667358.0890453l-1.358415.1907719-1.390613.2079408c-.234492.0361048-.470356.0729381-.707606.1105063l-1.440262.23428-1.474264.2522301c-.248584.0435515-.498615.087864-.750107.1329439l-5.129411.938531c-.258719.0467149-.527.0950814-.804745.1450822l-11.071967 1.973145-25.951074 4.5727932-40.697244 7.1298529-49.877611 8.712156-130.340841 22.7121334-250.317751 43.5436085-.639276.115358c-8.636666 1.64425-12.208172 6.381645-13.642658 13.550203l-.126429.668599c-.080354.450311-.152956.90975-.218489 1.378166l-.093083.709335-.08299.722682-.07341.735915-.064342.74903-.055785.76203-.04774.774915-.040206.787683-.033186.800337-.026675.812874-.020678.825296-.015192.837602-.015973 1.711659-.002889 1.49412-.03662 8.295999-.306252 56.707629-2.507134 440.105453-.640971 114.922315-.140227 27.972369-.004306 1.648472.004403.985762.013014.951855c.002871.155853.006087.310321.009645.463416l.025379.902216.033255.869938.040838.838313c.007422.13712.015148.272949.023171.407501l.051661.792097c.009189.129499.018663.257748.028416.38476l.061823.74735c.010845.122122.021958.243035.033332.362752l.071323.704069.077289.67603.082962.648643.088341.621909.093425.595826.098217.570396.102714.545618.069728.341624h16.364l.599475-.03613c2.598377-.343261 4.870876-3.03411 4.870876-6.613951 0-2.523882-1.129574-4.605881-2.706544-5.734841l-1.92228.103996c-5.064915.273854-9.415354-3.261609-10.355834-8.050137-.291049-.93851-.448015-1.935954-.448015-2.97006 0-.786732.090851-1.552245.262634-2.28662l.001316-630.502436c0-3.505242 1.834398-6.746158 4.819743-8.553674l.274547-.160338c2.630831-1.481074 4.924563-3.791877 6.918802-7.103303l.385955-.653195c.061321-.105893.121141-.210285.179463-.313151l.33196-.598701c.523345-.966696.897229-1.776118 1.123747-2.404656l.059828-.174841-.024168-.244735c-.428162-4.992522 2.962219-9.644835 8.015556-10.64684l.272293-.050168 509.402303-86.7832719 1.643329-.2772698c.270665-.0447407.539739-.0887447.807253-.1320099l1.586628-.2507115 1.550706-.2328891c.255541-.0373245.509649-.0739025.762353-.1097321l1.499647-.2059809c15.080377-2.0025143 25.174656-1.2056696 37.396402 2.8317747l10.123967 3.4095333 1.912299.6632182.166474.0596279.162285.0584925-.212657-.1629877-.325538-.2368128-.347001-.2404328c-.059649-.0403858-.120214-.0809314-.181704-.1216414l-.380124-.246268-.612901-.3772701-.437799-.2570741-.461733-.2617748-.738559-.4019489-.523732-.2744721-.549396-.2799294-.873295-.4305992-.933819-.4440937-.656993-.3039197-1.038398-.4682056-1.103368-.4836456-.772497-.3313683-1.215359-.5109997-1.284776-.5283849-3.543487-1.4284121-1.866213-.7411795-.983493-.3816823-1.314652-.4962123-.99164-.3612693-.999187-.350763-1.009169-.3392023-1.021583-.3265868-.689155-.2101951-.696475-.2038071-.704516-.1971065-.71328-.1900934-.722763-.1827679-.732968-.1751298-.743893-.1671794-.755541-.1589163-.767909-.1503409-.780999-.1414528-.794808-.1322524-.80934-.1227395c-.136141-.0196465-.272918-.0388836-.410345-.0577047l-.832489-.1078842-.848824-.0975899c-.285743-.0307796-.57433-.0597914-.865878-.0869833l-.883656-.0760642c-.743986-.0587504-1.507241-.1058011-2.291641-.1403385l-.951551-.0353864c-.320647-.0097586-.644798-.0174629-.972573-.023061zm-481.522126 766.1485748-.026835.002777c-.091931.010056-.184262.018879-.276978.026451l-.27929.018949-30.622483 1.655722c.566012 2.210832.867054 4.530168.867054 6.915614 0 1.747573-.161569 3.459665-.470525 5.119607l31.343996-1.919555c.489338-1.758811.734006-3.636469.734006-5.632976 0-2.267018-.422982-4.329215-1.268945-6.186589zm123.233117-679.773406-156.101327 26.585962-.043447.114108c-.792639 1.995569-1.864664 4.082514-3.182655 6.306736l-.266868.446688c-2.428593 4.032671-5.301207 7.476808-8.607364 10.284801l-.539666.448667v618.034l34.214327-1.849962 3.154461-610.948805.449611-.251951c8.168617-4.628409 12.252926-9.768503 12.252926-15.420282 0-.227352.334366-.536882.990194-.891415l.279445-.144125c.098843-.048783.20337-.098278.31355-.148397l.347473-.15214c.060729-.025639.122863-.051412.1864-.077308l.398011-.156763.431475-.159185.464754-.161077.49785-.162441.530763-.163276.563491-.163582.596037-.163361.628399-.162609.660577-.16133.692572-.159522.724383-.157184.756011-.15432 2.586023-.49339c6.125669-1.155524 14.388387-2.646675 24.410807-4.413094l7.840864-1.375484 8.465376-1.47305 9.054511-1.564958 9.608272-1.651206 10.126655-1.731797 10.609663-1.806728 11.057294-1.876001 17.347864-2.931508 6.804288-1.146711zm363.642756-60.9873185-1.039098.0308672c-2.099949.0787736-4.333992.2596875-6.766521.5410059l-1.233103.1490182c-.208374.0262282-.4182.0531517-.629516.0807694l-1.286079.174029c-.217426.0303906-.436417.0614735-.65701.0932476l-1.343079.1989313-1.383315.2154725c-.234005.0372879-.469761.075263-.707305.1139242l-1.447023.2401941-18.667707 3.1808595 23.231 9.046 16.911498-2.7838887 9.665307-1.5997852 6.361661-1.0620093 1.853522-.3151917.579456-.1011669.907123-.1655001.872445-.1678049.838442-.1700108.805113-.172118.772461-.1741263.740481-.1760357.709178-.1778463c.115625-.0297865.229974-.0596443.343061-.0895713l.483252-.1319448-.01028-.0036069-.946942-.3304592-3.37496-1.1463597-6.249285-2.0984679-.489468-.1666222-.967749-.3197238c-.160123-.051787-.319687-.1028245-.478729-.1531135l-.948282-.2927606c-.942613-.2837949-1.869113-.540717-2.787548-.7709832l-.916046-.2213889c-4.112791-.9563388-8.116615-1.3743602-12.744955-1.273833z"/></svg>