<?xml version="1.0" encoding="UTF-8"?>
<svg width="960px" height="960px" viewBox="0 0 960 960" version="1.1" xmlns="http://www.w3.org/2000/svg" xmlns:xlink="http://www.w3.org/1999/xlink">
    <title>com.sonoff/drivers/snzb-06p/assets/pair</title>
    <style type="text/css">
        #light {
            animation: flash 10s infinite;
        }
        #pair {
            animation: press 10s infinite;
        }

        @keyframes press {
            0%,  55%, 60%, 100% {
                fill: rgba(0,0,0,0);
            }
            5%, 50% {
                fill: #0074CC;
            }
        }

        @keyframes flash {
            0%, 60%, 70%, 80%, 90%, 100% {
                fill: rgba(0,0,0,0);
            }
            65%, 75%, 85%, 95% {
                fill: #0074CC;
            }
        }
    </style>
    <g id="com.sonoff/drivers/snzb-06p" stroke="none" stroke-width="1" fill="none" fill-rule="evenodd">
        <path d="M479,11 C589.324035,11 662.408338,26.8616405 698.765739,59.9094943 L699.337,60.437 L700.313899,60.5250404 C719.560512,62.265382 735.234354,64.3550924 747.413947,66.8198855 L748.803782,67.1059507 L750.074791,67.3761346 C761.116926,69.765005 768.997938,79.5315022 769,90.8309127 L769,485.724318 C769,546.201873 753.275418,621.221211 727.809705,685.204226 C709.066379,732.297137 686.852133,769.376195 663.222104,791.416633 L662.589,792 L717,792 C777.143809,792 826.013876,840.268629 826.985263,900.180949 L827,902 L827,914.943812 C827,924.434922 820.327871,932.618402 811.030609,934.53182 C747.799328,947.53847 637.265143,953.985505 479,953.985505 C322.478179,953.985505 213.541058,947.680258 151.723395,934.950374 L149.865568,934.562879 C140.616994,932.60879 134,924.446398 134,914.994263 L134,902 C134,841.926046 182.197601,792.987303 242.265306,792.013725 L244.000787,792 L306.4,792.005 L306.022524,791.727839 C282.768743,774.501242 260.388023,747.977133 241.825307,714.525266 L240.944265,712.927093 C207.90853,652.606785 189,574.552145 189,485.724318 L189,91.206751 C189.002072,79.7237901 197.137754,69.8511292 208.406996,67.6546742 L210.023924,67.344365 L211.674464,67.0377377 C223.90171,64.802624 238.841558,62.8640504 256.520602,61.2116253 L258.846,60.997 L259.323974,60.5410078 C294.597021,27.3923169 366.513944,11.3327206 475.579605,11 L479,11 Z M717.000106,811.999672 L658.638725,812.000956 C657.895215,812.497926 657.00916,812.80163 656.049898,812.837364 L645.452546,813.227068 L637.571682,813.510017 C575.122813,815.727916 527.026743,816.849232 493.267528,816.873532 L488.770105,816.870303 L483.103303,816.849058 C446.427491,816.654369 394.816132,815.316985 328.252274,812.837364 C327.296926,812.801776 326.414188,812.500399 325.672555,812.007029 L244.081011,811.999672 L242.508431,812.012083 C193.435438,812.807727 153.996,852.849571 153.996,902 L153.996,914.994883 L155.781958,915.366518 C215.273396,927.617339 321.607574,933.860004 474.357022,933.985505 L479,933.985505 C635.987718,933.985505 745.463545,927.6002 807,914.942175 L807,902 C807,852.294373 766.705627,811.999672 717.000106,811.999672 Z M358.595767,802.7106 L358.574255,802.956922 C358.543032,803.277179 358.497566,803.596063 358.438019,803.912257 L371.574576,804.353514 C421.037942,805.976793 460.226511,806.815726 489.130757,806.871011 L494.898024,806.871511 L499.473542,806.857332 C528.978623,806.727386 568.492802,805.834725 618.006808,804.179098 C617.911304,803.73985 617.843103,803.294148 617.802996,802.845976 C616.833973,802.909597 615.864964,802.940217 614.896586,802.940217 L364.002454,802.940217 C362.214951,802.940217 360.412071,802.86326 358.595767,802.7106 Z M209.023022,490.930063 L209.04876,493.394792 C210.098398,575.747151 228.048919,647.745055 258.485801,703.320088 C278.569883,739.991831 303.189483,767.31285 327.231889,781.963868 C339.959387,789.144095 352.467525,792.940217 364.002454,792.940217 L614.896586,792.940217 C622.709405,792.940217 630.782439,790.35083 638.946154,785.411962 C662.966478,769.068538 688.298673,730.392187 709.227431,677.808344 C733.062074,617.923418 748.083884,547.863702 748.959507,490.940962 C661.295112,492.79692 572.641882,493.724318 483,493.724318 C393.163785,493.724318 301.838133,492.792894 209.023022,490.930063 Z M484.5,75 L476.380268,75.0053529 C344.641302,75.1802064 256.187265,79.6384068 211.290215,88.3247059 C210.799841,88.4195934 210.32524,88.5532206 209.869339,88.7220403 C209.321945,89.4091949 209,90.2772529 209,91.2085553 L209,480.92759 C301.825883,482.792081 393.159145,483.724318 483,483.724318 C572.657381,483.724318 661.323843,482.795885 749,480.93903 L749,90.8327379 C749,89.9032969 748.679703,89.036032 748.138485,88.3490596 C747.735854,88.1999344 747.31789,88.0776334 746.887154,87.9852616 C706.641684,79.3546901 619.046686,75 484.5,75 Z M495.5,343 C522.838095,343 545,365.161905 545,392.5 C545,419.838095 522.838095,442 495.5,442 L473.5,442 C446.161905,442 424,419.838095 424,392.5 C424,365.161905 446.161905,343 473.5,343 L495.5,343 Z M495.5,353 L473.5,353 C451.684752,353 434,370.684752 434,392.5 C434,414.315248 451.684752,432 473.5,432 L495.5,432 C517.315248,432 535,414.315248 535,392.5 C535,370.684752 517.315248,353 495.5,353 Z M479,31 C378.513663,31 311.526568,44.5418191 278.480479,70.4349397 L281.500402,70.221573 L284.408917,70.0228421 C332.22969,66.8084702 395.487206,65.1407942 474.237693,65.0085442 L484.5,65 L494.325846,65.0078306 L505.893763,65.037907 C578.386651,65.2998518 636.239606,66.9198036 679.521304,69.9113661 C645.748228,44.3433613 578.762758,31 479,31 Z" id="Shape" fill="#000000" fill-rule="nonzero"></path>
        <path id="pair" d="M495.5,356 C505.316635,356 514.505253,359.886457 521.309398,366.690602 C528.113543,373.494747 532,382.683365 532,392.5 C532,402.316635 528.113543,411.505253 521.309398,418.309398 C514.505253,425.113543 505.316635,429 495.5,429 L473.5,429 C463.683365,429 454.494747,425.113543 447.690602,418.309398 C440.886457,411.505253 437,402.316635 437,392.5 C437,382.683365 440.886457,373.494747 447.690602,366.690602 C454.494747,359.886457 463.683365,356 473.5,356 Z M484,369 C471.297451,369 461,379.297451 461,392 C461,404.702549 471.297451,415 484,415 C496.702549,415 507,404.702549 507,392 C507,379.297451 496.702549,369 484,369 Z" fill="#0074CC"></path>
        <circle id="Oval" fill="#000000" cx="484" cy="392" r="20"></circle>
        <circle id="light" fill="#0074CC" cx="484" cy="392" r="20"></circle>
    </g>
</svg>