<svg height="960" viewBox="0 0 960 960" width="960" xmlns="http://www.w3.org/2000/svg"><path d="m405.632104 28.9811786 428.044641 36.4293435c2.334571.198687 4.663573.4581188 6.98464.7780318 73.858165 10.1798833 125.479611 78.3061821 115.299728 152.1643461l-38.408864 278.668046c-3.593649 26.073023-22.353015 46.686777-46.5539 53.540868l-.293349.080101.000295 248.618628c0 72.92998-57.8827 132.528961-130.508811 134.922069l-2.20526.054963-598.712645 10.123311c-.760683.019293-1.521462.019293-2.282254.019293-74.5564115 0-134.996325-60.439913-134.996325-134.996325v-590.360801c0-59.092625 38.4330734-111.317045 94.8524876-128.8894105l135.8539194-42.3130004c55.88097-17.4046616 114.607849-23.8026864 172.925697-18.8394635zm-111.768314 44.9508348-1.227871.2260034c-16.201957 2.9803869-32.242995 6.934637-48.034718 11.8531198l-135.853919 42.3130004c-39.7020959 12.365597-66.747282 49.115694-66.747282 90.698916v590.360801c0 52.465022 42.5313035 94.996325 94.996325 94.996325.535366 0 1.070723 0 1.606013-.013576l129.555557-2.187546c-39.022287-23.110477-65.485907-65.341093-66.287253-114.012736-.018293-.740704-.018293-1.481497-.018293-2.222302v-291.958104c0-5.701623 4.759741-10.249302 10.455448-9.989623l20.002751.912921c-9.344862-11.12876-14.696698-25.662772-13.977395-41.323842.061512-1.33928.167897-2.676123.318976-4.008275l32.634627-287.758815c3.599407-31.7381 19.554653-59.1467498 42.577034-77.8862676zm-72.011441 430.5199016v281.492104c0 .315526.001299.631049.003896.946562l.011687.946499c1.045509 63.501469 53.371173 114.132029 116.872643 113.086521l131.737425-2.169295 266.836982-4.511014c51.831489-.876391 93.390313-43.143851 93.390313-94.982749l-.000295-267.050237zm572.598251 95.650501c2.690731 26.084089-13.832137 49.752416-37.74462 52.313186-23.946367 2.564398-44.986535-17.132091-47.68007-43.24337-2.690731-26.084089 13.832137-49.752416 37.74462-52.313186 23.946367-2.564398 44.986535 17.132091 47.68007 43.24337zm-45.550462-23.357074c-12.278881 1.314937-21.600115 14.66722-19.979798 30.37466 1.617512 15.680252 13.411036 26.720611 25.656032 25.409304 12.278881-1.314937 21.600115-14.66722 19.979798-30.37466-1.617512-15.680252-13.411036-26.720611-25.656032-25.409304zm-64.865381 21.470394c3.273437-.343938 6.205992 2.030007 6.550045 5.302355.344052 3.272348-2.030684 6.203926-5.304122 6.547863-3.273438.343938-6.205993-2.030007-6.550045-5.302355-.344053-3.272347 2.030684-6.203926 5.304122-6.547863zm-412.875391-444.143709-32.634627 287.758814c-.100718.888091-.171641 1.779308-.212648 2.67215-1.013535 22.067272 16.053891 40.777963 38.121163 41.791498l574.533585 26.387946c13.08067.600787 24.522326-8.514841 26.975399-21.232434l38.393489-278.558674c4.51303-32.743411-8.234854-63.88593-31.281982-84.240043l-1.042144-.906513c-14.34198-12.098935-32.444939-20.021549-52.566603-21.707007l-455.272293-38.1351379c-52.547199-4.40153-99.071201 33.7740529-105.013339 86.1694009zm104.341841-77.9779529 456.288683 38.2452819c22.618896 1.895875 43.11286 12.654526 57.477018 29.632648 14.366234 16.980576 21.573501 38.968426 19.674779 61.575489-.125187 1.490534-.289988 2.977479-.49423 4.459262l-34.270107 248.631354c-.020927.151827-.043599.303408-.06801.454714l-3.608036 22.363006c-1.034943 6.414687-4.389746 12.144413-9.343066 16.176502-4.953319 4.032089-11.244591 6.154438-17.735827 5.866198l-17.940209-.796643-548.265238-25.200472c-8.340013-.383302-16.052924-4.067726-21.570296-10.111125-5.518999-6.04518-8.4876-14.063809-8.103354-22.407466.031881-.692278.08689-1.383296.164933-2.071899l32.740717-288.883174c2.615341-23.076094 14.084321-43.789995 31.708591-58.2377832 17.621871-14.4458219 40.188713-21.6366973 63.343652-19.6958927zm-50.664218 35.1630179-.356989.294214 391.894711 32.483064c63.511616 5.264331 112.376967 58.347592 112.376967 122.077009v204.985293c0 4.122959-.831711 8.051662-2.336508 11.627482l17.894449.794063c1.584788.070372 3.070205-.458575 4.222594-1.396639 1.152388-.938065 1.971748-2.285246 2.224421-3.851344l3.608036-22.363006 34.270107-248.631354c.155829-1.130546.281566-2.265029.377079-3.402247 1.489287-17.732145-4.357397-34.388472-15.013537-46.983798-10.65779-12.597276-26.126323-21.132368-43.878934-22.620359l-456.288684-38.2452827c-18.393463-1.5417064-35.733239 4.3624117-48.993712 15.2329047zm-24.51525 45.022949-32.740717 288.883174c-.027862.245837-.047501.492536-.058882.739683-.141239 3.066904.975619 5.900464 2.894863 8.002688 1.920982 2.104129 4.645627 3.475705 7.71818 3.616918l484.494115 22.268127c.681451-.115337 1.385268-.161361 2.103568-.130831l33.594165 1.427852c.141469.006013.28305.00902.424647.00902 5.522847 0 10-4.477152 10-10v-204.985293c0-53.324245-40.887051-97.740543-94.029056-102.145361l-405.966838-33.650716c-4.417092 7.771798-7.365804 16.53926-8.434045 25.964739zm329.673106 140.438036c7.41582 70.665958-37.344692 133.777072-100.715263 140.44789-63.373335 6.67111-120.261054-45.743985-127.677112-116.412213-7.41582-70.665958 37.344693-133.777072 100.715263-140.44789 63.373335-6.67111 120.261054 45.743985 127.677112 116.412213zm-125.583344-96.522112c-51.781685 5.450894-89.2367 58.261453-82.918258 118.470414 6.318205 60.20669 53.913652 104.060089 105.692572 98.609487 51.781684-5.450894 89.236699-58.261453 82.918257-118.470414-6.318204-60.20669-53.913651-104.060089-105.692571-98.609487z"/></svg>