<svg height="960" viewBox="0 0 960 960" width="960" xmlns="http://www.w3.org/2000/svg"><path d="m691.315408 6.94846861c16.190213 0 30.443869 12.01379599 30.443869 28.82883729v878.1463071c0 4.54143-1.545615 8.94764-4.382624 12.493901l-1.001017 1.254297c-7.584052 9.493673-20.017789 15.392197-37.834471 19.777842-14.551443 3.578223-32.245023 5.793663-51.315551 6.487137-.242164.01321-.484468.01321-.726792.01321h-36.284368c-6.328263 0-11.970061-2.939103-15.634821-7.526735l-.008633-.010265h-186.097l-.256192.314895c-3.600395 4.330643-8.994433 7.117059-15.042066 7.222105h-43.950333c-.401435 0-.80278-.012086-1.203489-.036242-17.693089-1.066605-34.763928-3.562275-48.494338-7.385754-8.275869-2.304564-15.411166-5.095164-21.334469-8.549295-8.171383-4.765082-14.301081-10.883534-17.426807-19.088564-.203374-.533857-.383781-1.076183-.540724-1.625484l-.215338-.753682c-.510522-1.786829-.769521-3.636092-.769521-5.494422v-875.2392511c0-16.8150413 14.253656-28.82883729 30.443869-28.82883729zm-50.053685 381.18100039-10.254723.000531.000716 2.738836c0 5.42924-4.326671 9.847932-9.720095 9.996158l-.279905.003842h-270.248557c-5.522848 0-10-4.477152-10-10l-.000159-2.738836-10.040277-.000531v525.82l26.468277.000531.031723-.039531.000561-11.305268c0-5.522848 4.477152-10 10-10h229.791495c5.522847 0 10 4.477152 10 10l-.000056 11.344268 19.101277.000531.75777-.028683c4.952303-.197934 9.767172-.511685 14.393442-.933329zm-330.543 0-31.479.001.000277 515.789531.306797.158595c2.477309 1.260262 5.92226 2.553404 10.154715 3.758836l.556511.156723c5.945119 1.655525 13.026386 3.040271 20.733491 4.100094l-.272791-.038779zm371.04.001h-20.497l.001653 522.14163c2.129948-.401135 4.18063-.830533 6.14382-1.286921l.793801-.187149.784024-.190108c.642378-.158124 1.268894-.317388 1.87945-.477651l1.199804-.321818c2.160523-.592288 4.105607-1.196746 5.830464-1.806419l.918961-.333024c1.046573-.389034 2.00361-.779667 2.869877-1.170107l.075423-.035902zm-70.751723-179.246469h-250.248v171.984h250.248zm-270.248277-1.819531h-10.04v161.066h10.04zm300.503 0h-10.255v161.066h10.255zm-330.543 0h-31.479v161.065l31.479.001zm371.04 0h-20.497v161.065h20.497zm-196.413629 24.144808c35.254751 0 63.834374 28.579622 63.834374 63.834374 0 35.254751-28.579623 63.834374-63.834374 63.834374-35.254752 0-63.834374-28.579623-63.834374-63.834374 0-35.254752 28.579622-63.834374 63.834374-63.834374zm0 20c-24.209057 0-43.834374 19.625317-43.834374 43.834374 0 24.209056 19.625317 43.834374 43.834374 43.834374 24.209056 0 43.834374-19.625318 43.834374-43.834374 0-24.209057-19.625318-43.834374-43.834374-43.834374zm0 8.303687c19.623056 0 35.530686 15.90763 35.530686 35.530687 0 19.623056-15.90763 35.530686-35.530686 35.530686-19.623057 0-35.530687-15.90763-35.530687-35.530686 0-19.623057 15.90763-35.530687 35.530687-35.530687zm-174.626371-212.5654954-31.478723.0005314-.000277 140.116469h31.479zm371.040277.0005314-20.497277-.0005314v140.1170004h20.497zm-40.497277-.0005314h-310.543v140.1170004h310.543z"/></svg>