<svg height="960" viewBox="0 0 960 960" width="960" xmlns="http://www.w3.org/2000/svg"><g fill-rule="evenodd"><g fill-rule="nonzero"><path d="m347.487906 61.557317c-81.185858 0-147 65.814142-147 147v539.151767c0 4.205356.180459 8.408775.54088 12.598658 6.958047 80.887139 78.17064 140.818508 159.057778 133.860461l434.052876-37.337954c76.021627-6.539508 134.401342-70.156742 134.401342-146.45912v-478.496072c0-78.121702-61.105171-142.5976109-139.114389-146.7883415l-434.052876-23.3177398c-2.62617-.1410804-5.255654-.2116587-7.885611-.2116587zm0 20c2.27214 0 4.543871.0609758 6.812739.1828616l434.052876 23.3177394c67.395719 3.620564 120.187261 59.32424 120.187261 126.817139v478.496072c0 65.921102-50.436897 120.88293-116.115445 126.532709l-434.052876 37.337955c-69.882085 6.011374-131.40589-45.766068-137.417264-115.648154-.311384-3.619831-.467291-7.251356-.467291-10.884555v-539.151767c0-70.140163 56.859837-127 127-127z"/><path d="m345.823827 31.5469583c-22.729751.1525-44.897213 4.6090825-65.548331 13.0192869l-.967496.3967548-150.973159 30.3478769-2.09013.4362054c-73.6260391 15.8813668-126.24374303 81.0159707-126.24374303 156.4003037v455.282196l.01383533 1.38971.02766598 1.604592c1.21398258 52.900495 32.18446392 100.67903 80.13024452 123.344118l162.0292862 76.598998.501005.36956c34.185291 24.954015 76.314629 37.045416 119.446692 33.34008l435-37.36944c91.544864-7.864323 161.850303-84.468424 161.850303-176.350466v-478.472373c0-94.069799-73.583014-171.7063018-167.517727-176.7458243l-435-23.337403c-3.15792-.1694198-6.319812-.2541754-9.482273-.2541754zm1.176173 40c2.44778 0 4.895121.0656018 7.339386.1967346l435 23.3374031c72.70653 3.9006473 129.660614 63.992178 129.660614 136.803265v478.472373c0 71.117739-54.417204 130.410178-125.273963 136.497253l-435 37.369441c-35.743102 3.070574-69.457648-7.872913-95.722247-28.266849l-165.7360088-78.351523c-34.6133626-16.362543-56.8147051-51.031406-57.2556402-89.247254l-.011173-1.159127v-455.051682c0-56.587727 39.5133612-105.400044 94.677887-117.299205l1.676418-.349252 154.904714-31.1370423c17.028324-7.5934595 35.891226-11.8145354 55.740013-11.8145354z"/><path d="m332.294154 438.385463c-24.145977 152.451698 66.169917 293.901856 202.444858 315.485687 136.274941 21.58383 265.880963-85.034118 290.02694-237.485817s-66.169917-293.901857-202.444858-315.485687-265.880963 85.034118-290.02694 237.485817zm286.898251-217.73205c124.800019 19.766381 208.316125 150.566905 185.819781 292.603231-22.496344 142.036325-142.344465 240.62712-267.144485 220.860739-124.800019-19.766381-208.316124-150.566905-185.81978-292.603231 22.496343-142.036326 142.344465-240.62712 267.144484-220.860739z"/><path d="m351.743008 368.656868c-9.066055 22.130117-15.612673 45.5079-19.448854 69.728595-.275155 1.737256-.535748 3.47495-.78179 5.212934-.85229 6.020392 3.820902 11.401696 9.901323 11.401696h19.586361c5.523012 0 9.999952-4.47755 9.999952-10.000562l-.003403-72.55221c-.000514-10.963806-15.097296-13.935909-19.253589-3.790453z"/><path d="m329.718562 516.354922c2.872294 30.725666 10.359316 60.428187 22.077438 87.967481 4.263331 10.01945 19.201307 6.973726 19.201633-3.915046l.002367-79.04005c0-4.489075-2.991183-8.428127-7.315478-9.633229l-21.324847-5.942847c-6.751267-1.881455-13.293439 3.585586-12.641113 10.563691z"/><path d="m671.196362 577.472914c4.882798 2.580723 6.748998 8.631101 4.168276 13.513899-41.811696 79.10887-118.767955 131.669063-203.665568 138.277365-5.506192.428593-10.317286-3.687613-10.74588-9.193806-.428594-5.506192 3.687613-10.317286 9.193805-10.74588 77.919634-6.065146 148.866862-54.521243 187.535468-127.683302 2.580722-4.882798 8.631101-6.748999 13.513899-4.168276zm35.317077-146.936393c2.150501 21.153141 1.884136 42.661596-.854389 64.173649-.697441 5.478633-5.704138 9.354556-11.182771 8.657115-5.478633-.69744-9.354555-5.704137-8.657115-11.18277 2.546193-20.001214 2.793659-39.983639.796835-59.625152-.558593-5.494526 3.442772-10.401549 8.937299-10.960141 5.494526-.558593 10.401548 3.442772 10.960141 8.937299zm-174.314899-221.263467c63.487117 19.505375 115.981101 65.228628 146.764665 126.370789 2.483597 4.932909.498038 10.945175-4.434871 13.428773-4.932909 2.483597-10.945175.498038-13.428772-4.434871-28.381021-56.370243-76.606263-98.375341-134.774728-116.246648-5.279301-1.621979-8.244148-7.216572-6.622169-12.495874s7.216573-8.244148 12.495875-6.622169z"/></g><path d="m583.714928 497.740389c16.066152 2.544628 31.417176-10.083602 34.287472-28.205942 2.870297-18.12234-7.827057-34.876228-23.893208-37.420857-16.066151-2.544628-31.417176 10.083602-34.287472 28.205942-2.870297 18.12234 7.827057 34.876228 23.893208 37.420857z"/><path d="m371.534603 507.516144c17.572353 2.783187 34.362536-11.02894 37.501923-30.850249s-8.560844-38.145874-26.133197-40.929062c-17.572353-2.783187-34.362536 11.02894-37.501923 30.850249-3.139387 19.82131 8.560844 38.145875 26.133197 40.929062z"/><g fill-rule="nonzero"><path d="m757.602254 326.93468-96.404635 3.221958c-5.389816.180134-9.665975 4.601595-9.665975 9.99442v90.161296c0 5.369916 4.241149 9.781188 9.606915 9.992271l126.422292 4.973309c6.084613.239361 10.968833-4.96899 10.339542-11.025706-1.742111-16.767232-5.418537-33.360233-11.022542-49.766305-1.087885-3.184849-2.221142-6.418359-3.399769-9.700569l-1.193751-3.298445c-.402958-1.104894-.810957-2.215201-1.223997-3.330921l-1.254243-3.363406c-.634683-1.689826-1.280709-3.391837-1.938076-5.106038l-1.329858-3.444658-1.360102-3.477173c-.229204-.582239-.459669-1.165834-.691393-1.750783l-1.405469-3.525965c-1.894122-4.722977-3.868895-9.532724-5.924314-14.429337-1.605956-3.825858-5.407688-6.262543-9.554625-6.123948zm-86.071254 22.88732 79.826-2.668.220533.535444c6.312558 15.362796 11.770514 29.784358 16.374003 43.261353l.474896 1.40585c3.444521 10.312293 6.051988 20.684693 7.824589 31.121325l.223979 1.348028-104.944-4.128z"/><path d="m688.668393 483.126341h-27.136749c-5.522848 0-10 4.477153-10 10v94.447021c0 4.93975 3.606855 9.139411 8.489962 9.885332l94.007674 14.360181c4.060661.620288 8.087615-1.305751 10.15344-4.856256 10.210692-17.548976 17.442242-33.444063 21.671809-47.748966.895962-3.030253 1.754764-6.219585 2.576763-9.568491l.444714-1.842504.437428-1.874174c.144596-.630005.28798-1.26529.430154-1.90586l.422892-1.937565c.209633-.976712.416547-1.965319.620751-2.965833l.404794-2.016904.397579-2.048671c.065662-.344094.131024-.689512.196087-1.036254l.386777-2.096356c.191592-1.056129.380489-2.124187.5667-3.204185l.36884-2.175918.361688-2.207774.354549-2.239648.347422-2.27154c.057311-.381249.114325-.763827.171043-1.147735l.336756-2.319412c.166604-1.167688.330547-2.347352.491837-3.539003l.319044-2.399286c.157755-1.207636.312862-2.427266.465328-3.658899.676805-5.467298-3.195723-10.452223-8.660592-11.148375l-97.363034-12.402762c-.419102-.053388-.841166-.080163-1.263656-.080163zm-.636393 19.999659 86.754 11.051-.049067.347203c-.114409.789442-.230035 1.572629-.346876 2.349557l-.354163 2.312001c-.059633.382202-.11957.762839-.179809 1.141909l-.365064 2.255625-.372311 2.218012-.379541 2.180378-.386757 2.142721c-.13012.707961-.261439 1.409643-.393956 2.105042l-.401138 2.067341c-1.48399 7.511103-3.112512 14.26145-4.882007 20.246097l-.232143.775389c-3.221321 10.628531-8.439772 22.550061-15.668733 35.72727l-.532435.962455-78.711-12.023v-75.859z"/><path d="m756.023688 491.999992c5.429033.047775 9.809794 4.412846 9.910942 9.807359l.001398.279928-.872818 100c-.048203 5.522637-4.564261 9.960543-10.086898 9.912729-5.429033-.047775-9.809794-4.412846-9.910942-9.807359l-.001398-.279928.872818-100c.048203-5.522637 4.564261-9.960543 10.086898-9.912729zm1.985943-165c5.429031.048098 9.809536 4.413426 9.910367 9.807945l.001383.279928-.843534 96c-.048526 5.522634-4.564844 9.960275-10.087478 9.912143-5.429031-.048098-9.809536-4.413426-9.910367-9.807945l-.001383-.279928.843534-96c.048526-5.522634 4.564844-9.960275 10.087478-9.912143z"/></g></g></svg>