<?xml version="1.0" encoding="utf-8"?>
<!-- Generator: Adobe Illustrator 21.0.0, SVG Export Plug-In . SVG Version: 6.00 Build 0)  -->
<svg version="1.1" id="Layer_1" xmlns="http://www.w3.org/2000/svg" xmlns:xlink="http://www.w3.org/1999/xlink" x="0px" y="0px"
	 viewBox="0 0 1417.3 333.1" style="enable-background:new 0 0 1417.3 333.1;" xml:space="preserve">
<g>
	<path d="M21.2,0h69.9v116.6h76.4V0h70.2v333.1h-70.2V198.4H91.1v134.7H21.2V0z"/>
	<path d="M284,0h187.3v71.1H354v52.9h108.8V192H354v65.7h120.7v75.4H284V0z"/>
	<path d="M515.1,0h70.1v333.1h-70.1V0z"/>
	<path d="M634.5,0h91.9l35.4,202.7L797.1,0H889v333.1h-57.2v-254l-44.1,254h-51.8l-44-254v254h-57.2V0z"/>
	<path d="M1072.6,278.1h-79.4l-11,55h-71.4L995.9,0h76.2l85,333.1h-73.2L1072.6,278.1z M1058.1,206.1l-25-119.7l-24.7,119.7H1058.1z
		"/>
	<path d="M1179.8,0h65.3l85.2,184.3V0h65.9v333.1h-65.9l-84.7-182.9v182.9h-65.7V0z"/>
</g>
</svg>
