<?xml version="1.0" encoding="utf-8"?>
<!-- Generator: Adobe Illustrator 21.0.0, SVG Export Plug-In . SVG Version: 6.00 Build 0)  -->
<svg version="1.1" id="Layer_1" xmlns="http://www.w3.org/2000/svg" xmlns:xlink="http://www.w3.org/1999/xlink" x="0px" y="0px"
	 viewBox="0 0 1417.3 1417.3" style="enable-background:new 0 0 1417.3 1417.3;" xml:space="preserve">
<g>
	<path d="M1134.2,263.7c-66.2-61.5-192-87.8-420.6-87.8S359.3,202.2,293,263.7c-72,66.9-104.1,202.3-104.1,439.1
		c0,236.8,32.1,372.2,104.1,439.1c66.2,61.5,192,87.8,420.6,87.8s354.4-26.2,420.6-87.8c72-66.9,104.1-202.3,104.1-439.1
		S1206.2,330.6,1134.2,263.7z M1129.1,1136.5c-64.7,60.1-189,85.8-415.5,85.8c-226.5,0-350.8-25.6-415.5-85.8
		c-70.3-65.3-101.7-199.1-101.7-433.6s31.4-368.3,101.7-433.6c64.7-60.1,189-85.8,415.5-85.8c226.5,0,350.8,25.6,415.5,85.8
		c70.3,65.3,101.7,199.1,101.7,433.6S1199.4,1071.1,1129.1,1136.5z"/>
	<path d="M1120.8,278.2c-62.2-57.8-184-82.5-407.2-82.5s-345,24.7-407.2,82.5C238.8,341,208.6,472,208.6,702.8
		c0,230.9,30.2,361.8,97.8,424.7c62.2,57.8,184,82.5,407.2,82.5s345-24.7,407.2-82.5c67.7-62.9,97.8-193.8,97.8-424.7
		C1218.7,472,1188.5,341,1120.8,278.2z M1113.7,1119.9c-60.1,55.9-179.8,79.7-400.1,79.7s-339.9-23.8-400.1-79.7
		c-65.3-60.7-94.5-189.3-94.5-417c0-227.7,29.1-356.3,94.5-417c60.1-55.9,179.8-79.7,400.1-79.7s339.9,23.8,400.1,79.7
		c65.3,60.7,94.5,189.3,94.5,417C1208.2,930.6,1179.1,1059.2,1113.7,1119.9z"/>
	<path d="M1231.6,151.6c-103.9-90.4-260.1-129-522.1-129c-262,0-418.2,38.6-522.1,129C69.8,253.8,15,431.1,15,709.5
		c0,278.4,54.8,455.7,172.4,558c103.9,90.4,260.1,129,522.1,129s418.2-38.6,522.1-129c117.6-102.3,172.4-279.6,172.4-558
		C1404,431.1,1349.2,253.8,1231.6,151.6z M1217.9,1251.7c-99.8,86.8-251.9,123.9-508.4,123.9s-408.6-37-508.4-123.9
		c-112.7-98-165.2-270.3-165.2-542.2s52.5-444.2,165.2-542.2C300.9,80.5,453,43.5,709.5,43.5s408.6,37,508.4,123.9
		c112.7,98,165.2,270.3,165.2,542.2S1330.6,1153.7,1217.9,1251.7z"/>
	<polygon points="590.6,291.8 605.9,291.8 605.9,318.6 619.8,318.6 619.8,252.3 605.9,252.3 605.9,275.5 590.6,275.5 590.6,252.3 
		576.7,252.3 576.7,318.6 590.6,318.6 	"/>
	<polygon points="667,303.6 643,303.6 643,290.5 664.7,290.5 664.7,277 643,277 643,266.5 666.4,266.5 666.4,252.3 629.1,252.3 
		629.1,318.6 667,318.6 	"/>
	<rect x="675.1" y="252.3" width="14" height="66.3"/>
	<polygon points="710.3,268 719.1,318.6 729.4,318.6 738.2,268 738.2,318.6 749.6,318.6 749.6,252.3 731.3,252.3 724.3,292.7 
		717.2,252.3 698.9,252.3 698.9,318.6 710.3,318.6 	"/>
	<path d="M770.3,307.7h15.8l2.3,11H803L786,252.3h-15.2l-16.9,66.3h14.2L770.3,307.7z M778.3,269.5l5,23.9h-9.9L778.3,269.5z"/>
	<polygon points="820.6,282.2 837.5,318.6 850.6,318.6 850.6,252.3 837.5,252.3 837.5,289 820.5,252.3 807.5,252.3 807.5,318.6 
		820.6,318.6 	"/>
	<path d="M713.6,560.9c-78.3,0-142,63.7-142,142c0,78.3,63.7,142,142,142s142-63.7,142-142C855.6,624.6,791.9,560.9,713.6,560.9z
		 M713.6,834.4c-72.5,0-131.5-59-131.5-131.5c0-72.5,59-131.5,131.5-131.5s131.5,59,131.5,131.5
		C845.2,775.4,786.2,834.4,713.6,834.4z"/>
	<circle cx="709.5" cy="1125.1" r="15.7"/>
	<path d="M713.6,635.7c-37,0-67.1,30.1-67.1,67.1c0,37,30.1,67.1,67.1,67.1c37,0,67.1-30.1,67.1-67.1
		C780.8,665.8,750.6,635.7,713.6,635.7z M713.6,759.5c-31.2,0-56.7-25.4-56.7-56.7c0-31.2,25.4-56.7,56.7-56.7s56.7,25.4,56.7,56.7
		C770.3,734.1,744.9,759.5,713.6,759.5z"/>
	<circle cx="709.5" cy="548.9" r="6.8"/>
	<circle cx="709.5" cy="509.4" r="6.8"/>
	<circle cx="709.5" cy="470" r="6.8"/>
	<circle cx="709.5" cy="430.6" r="6.8"/>
	<circle cx="709.5" cy="391.2" r="6.8"/>
	<circle cx="709.5" cy="351.8" r="6.8"/>
	<ellipse transform="matrix(0.9945 -0.1045 0.1045 0.9945 -51.6699 75.176)" cx="691.4" cy="530.5" rx="6.8" ry="6.8"/>
	<ellipse transform="matrix(0.9945 -0.1045 0.1045 0.9945 -47.5898 74.5193)" cx="687.2" cy="491.3" rx="6.8" ry="6.8"/>
	<ellipse transform="matrix(0.9945 -0.1045 0.1045 0.9945 -43.522 73.8844)" cx="683.1" cy="452.2" rx="6.8" ry="6.8"/>
	<ellipse transform="matrix(0.9945 -0.1045 0.1045 0.9945 -39.449 73.2404)" cx="679" cy="413" rx="6.8" ry="6.8"/>
	<ellipse transform="matrix(0.9945 -0.1045 0.1045 0.9945 -35.3707 72.584)" cx="674.9" cy="373.8" rx="6.8" ry="6.8"/>
	<ellipse transform="matrix(0.9781 -0.2079 0.2079 0.9781 -100.186 152.9643)" cx="677.6" cy="553.1" rx="6.8" ry="6.8"/>
	<ellipse transform="matrix(0.9781 -0.2079 0.2079 0.9781 -92.3506 150.4163)" cx="669.4" cy="514.5" rx="6.8" ry="6.8"/>
	<ellipse transform="matrix(0.9782 -0.2079 0.2079 0.9782 -84.5114 147.8593)" cx="661.2" cy="476" rx="6.8" ry="6.8"/>
	<ellipse transform="matrix(0.9781 -0.2079 0.2079 0.9781 -76.6823 145.3253)" cx="653" cy="437.5" rx="6.8" ry="6.8"/>
	<ellipse transform="matrix(0.9781 -0.2079 0.2079 0.9781 -68.849 142.7822)" cx="644.8" cy="398.9" rx="6.8" ry="6.8"/>
	<ellipse transform="matrix(0.9781 -0.2079 0.2079 0.9781 -61.0147 140.2366)" cx="636.6" cy="360.4" rx="6.8" ry="6.8"/>
	<ellipse transform="matrix(0.9511 -0.309 0.309 0.9511 -134.4355 229.114)" cx="656" cy="538.9" rx="6.8" ry="6.8"/>
	<ellipse transform="matrix(0.9511 -0.309 0.309 0.9511 -123.4454 223.5017)" cx="643.8" cy="501.5" rx="6.8" ry="6.8"/>
	<ellipse transform="matrix(0.9511 -0.309 0.309 0.9511 -112.4614 217.9052)" cx="631.7" cy="464" rx="6.8" ry="6.8"/>
	<ellipse transform="matrix(0.9511 -0.309 0.309 0.9511 -101.4775 212.3085)" cx="619.5" cy="426.5" rx="6.8" ry="6.8"/>
	<ellipse transform="matrix(0.9511 -0.309 0.309 0.9511 -90.4935 206.712)" cx="607.3" cy="389" rx="6.8" ry="6.8"/>
	<ellipse transform="matrix(0.9135 -0.4067 0.4067 0.9135 -173.3812 311.9928)" cx="647.2" cy="563.8" rx="6.8" ry="6.8"/>
	<ellipse transform="matrix(0.9135 -0.4067 0.4067 0.9135 -160.1261 302.3625)" cx="631.2" cy="527.9" rx="6.8" ry="6.8"/>
	<ellipse transform="matrix(0.9135 -0.4067 0.4067 0.9135 -146.871 292.7321)" cx="615.2" cy="491.9" rx="6.8" ry="6.8"/>
	<ellipse transform="matrix(0.9135 -0.4067 0.4067 0.9135 -133.616 283.1018)" cx="599.1" cy="455.9" rx="6.8" ry="6.8"/>
	<ellipse transform="matrix(0.9135 -0.4067 0.4067 0.9135 -120.363 273.4815)" cx="583.1" cy="419.9" rx="6.8" ry="6.8"/>
	<ellipse transform="matrix(0.9135 -0.4067 0.4067 0.9135 -107.1057 263.841)" cx="567.1" cy="383.9" rx="6.8" ry="6.8"/>
	<ellipse transform="matrix(0.866 -0.5 0.5 0.866 -193.7507 385.8886)" cx="623.2" cy="554.5" rx="6.8" ry="6.8"/>
	<ellipse transform="matrix(0.866 -0.5 0.5 0.866 -179.3286 371.4665)" cx="603.5" cy="520.4" rx="6.8" ry="6.8"/>
	<ellipse transform="matrix(0.866 -0.5 0.5 0.866 -164.9064 357.0444)" cx="583.8" cy="486.2" rx="6.8" ry="6.8"/>
	<ellipse transform="matrix(0.866 -0.5 0.5 0.866 -150.4843 342.6223)" cx="564.1" cy="452.1" rx="6.8" ry="6.8"/>
	<ellipse transform="matrix(0.866 -0.5 0.5 0.866 -136.0622 328.2001)" cx="544.4" cy="418" rx="6.8" ry="6.8"/>
	<ellipse transform="matrix(0.809 -0.5878 0.5878 0.809 -222.957 475.1976)" cx="619.8" cy="580.7" rx="6.8" ry="6.8"/>
	<ellipse transform="matrix(0.809 -0.5878 0.5878 0.809 -208.6433 455.4965)" cx="596.6" cy="548.8" rx="6.8" ry="6.8"/>
	<ellipse transform="matrix(0.809 -0.5878 0.5878 0.809 -194.3296 435.7953)" cx="573.5" cy="516.9" rx="6.8" ry="6.8"/>
	<ellipse transform="matrix(0.809 -0.5878 0.5878 0.809 -180.016 416.0942)" cx="550.3" cy="485.1" rx="6.8" ry="6.8"/>
	<ellipse transform="matrix(0.809 -0.5878 0.5878 0.809 -165.7023 396.393)" cx="527.1" cy="453.2" rx="6.8" ry="6.8"/>
	<ellipse transform="matrix(0.809 -0.5878 0.5878 0.809 -151.3886 376.6919)" cx="504" cy="421.3" rx="6.8" ry="6.8"/>
	<ellipse transform="matrix(0.7431 -0.6691 0.6691 0.7431 -233.1174 545.7687)" cx="594.3" cy="576.5" rx="6.8" ry="6.8"/>
	<ellipse transform="matrix(0.7431 -0.6691 0.6691 0.7431 -220.2966 520.6154)" cx="568" cy="547.3" rx="6.8" ry="6.8"/>
	<ellipse transform="matrix(0.7431 -0.6691 0.6691 0.7431 -207.4755 495.4522)" cx="541.6" cy="518" rx="6.8" ry="6.8"/>
	<ellipse transform="matrix(0.7431 -0.6691 0.6691 0.7431 -194.6543 470.2892)" cx="515.2" cy="488.7" rx="6.8" ry="6.8"/>
	<ellipse transform="matrix(0.7431 -0.6691 0.6691 0.7431 -181.8331 445.1183)" cx="488.9" cy="459.4" rx="6.8" ry="6.8"/>
	<ellipse transform="matrix(0.6691 -0.7431 0.7431 0.6691 -250.6864 642.6973)" cx="596.4" cy="602.9" rx="6.8" ry="6.8"/>
	<ellipse transform="matrix(0.6691 -0.7431 0.7431 0.6691 -240.7812 612.2233)" cx="567.1" cy="576.5" rx="6.8" ry="6.8"/>
	<ellipse transform="matrix(0.6691 -0.7431 0.7431 0.6691 -230.8765 581.7385)" cx="537.9" cy="550.1" rx="6.8" ry="6.8"/>
	<ellipse transform="matrix(0.6691 -0.7431 0.7431 0.6691 -220.972 551.2469)" cx="508.6" cy="523.8" rx="6.8" ry="6.8"/>
	<ellipse transform="matrix(0.6691 -0.7431 0.7431 0.6691 -211.0669 520.7716)" cx="479.3" cy="497.4" rx="6.8" ry="6.8"/>
	<ellipse transform="matrix(0.6691 -0.7431 0.7431 0.6691 -201.1624 490.28)" cx="450" cy="471.1" rx="6.8" ry="6.8"/>
	<ellipse transform="matrix(0.5878 -0.809 0.809 0.5878 -253.4824 710.7032)" cx="570.7" cy="604.1" rx="6.8" ry="6.8"/>
	<ellipse transform="matrix(0.5878 -0.809 0.809 0.5878 -247.8857 675.3675)" cx="538.8" cy="580.9" rx="6.8" ry="6.8"/>
	<ellipse transform="matrix(0.5878 -0.809 0.809 0.5878 -242.289 640.0318)" cx="506.9" cy="557.8" rx="6.8" ry="6.8"/>
	<ellipse transform="matrix(0.5878 -0.809 0.809 0.5878 -236.6914 604.7051)" cx="475" cy="534.6" rx="6.8" ry="6.8"/>
	<ellipse transform="matrix(0.5878 -0.809 0.809 0.5878 -231.0951 569.3666)" cx="443.2" cy="511.5" rx="6.8" ry="6.8"/>
	<ellipse transform="matrix(0.5 -0.866 0.866 0.5 -256.0023 815.4525)" cx="578.2" cy="629.4" rx="6.8" ry="6.8"/>
	<ellipse transform="matrix(0.5 -0.866 0.866 0.5 -256.0023 776.0505)" cx="544.1" cy="609.7" rx="6.8" ry="6.8"/>
	<ellipse transform="matrix(0.5 -0.866 0.866 0.5 -256.0023 736.6484)" cx="510" cy="590" rx="6.8" ry="6.8"/>
	<ellipse transform="matrix(0.5 -0.866 0.866 0.5 -256.0014 697.2521)" cx="475.8" cy="570.3" rx="6.8" ry="6.8"/>
	<ellipse transform="matrix(0.5 -0.866 0.866 0.5 -256.0024 657.8443)" cx="441.7" cy="550.6" rx="6.8" ry="6.8"/>
	<ellipse transform="matrix(0.5 -0.866 0.866 0.5 -256.0024 618.4423)" cx="407.6" cy="530.9" rx="6.8" ry="6.8"/>
	<ellipse transform="matrix(0.4067 -0.9135 0.9135 0.4067 -252.7573 882.7417)" cx="553.3" cy="636" rx="6.8" ry="6.8"/>
	<ellipse transform="matrix(0.4067 -0.9135 0.9135 0.4067 -259.4715 840.3503)" cx="517.3" cy="620" rx="6.8" ry="6.8"/>
	<ellipse transform="matrix(0.4067 -0.9135 0.9135 0.4067 -266.1857 797.9589)" cx="481.3" cy="603.9" rx="6.8" ry="6.8"/>
	<ellipse transform="matrix(0.4067 -0.9135 0.9135 0.4067 -272.9022 755.5571)" cx="445.3" cy="587.9" rx="6.8" ry="6.8"/>
	<ellipse transform="matrix(0.4067 -0.9135 0.9135 0.4067 -279.614 713.176)" cx="409.3" cy="571.9" rx="6.8" ry="6.8"/>
	<ellipse transform="matrix(0.309 -0.9511 0.9511 0.309 -235.9045 993.6923)" cx="565.9" cy="659.2" rx="6.8" ry="6.8"/>
	<ellipse transform="matrix(0.309 -0.9511 0.9511 0.309 -250.2228 949.6277)" cx="528.4" cy="647" rx="6.8" ry="6.8"/>
	<ellipse transform="matrix(0.309 -0.9511 0.9511 0.309 -264.532 905.5864)" cx="490.9" cy="634.8" rx="6.8" ry="6.8"/>
	<ellipse transform="matrix(0.309 -0.9511 0.9511 0.309 -278.8457 861.5337)" cx="453.5" cy="622.7" rx="6.8" ry="6.8"/>
	<ellipse transform="matrix(0.309 -0.9511 0.9511 0.309 -293.1593 817.4807)" cx="416" cy="610.5" rx="6.8" ry="6.8"/>
	<ellipse transform="matrix(0.309 -0.9511 0.9511 0.309 -307.4731 773.428)" cx="378.5" cy="598.3" rx="6.8" ry="6.8"/>
	<ellipse transform="matrix(0.2079 -0.9782 0.9782 0.2079 -226.1128 1062.3361)" cx="542.9" cy="670.8" rx="6.8" ry="6.8"/>
	<ellipse transform="matrix(0.2079 -0.9781 0.9781 0.2079 -248.6335 1018.1365)" cx="504.3" cy="662.6" rx="6.8" ry="6.8"/>
	<ellipse transform="matrix(0.2079 -0.9781 0.9781 0.2079 -271.1493 973.9464)" cx="465.8" cy="654.4" rx="6.8" ry="6.8"/>
	<ellipse transform="matrix(0.2079 -0.9781 0.9781 0.2079 -293.664 929.7588)" cx="427.2" cy="646.2" rx="6.8" ry="6.8"/>
	<ellipse transform="matrix(0.2079 -0.9781 0.9781 0.2079 -316.1778 885.5735)" cx="388.7" cy="638" rx="6.8" ry="6.8"/>
	<ellipse transform="matrix(0.1045 -0.9945 0.9945 0.1045 -185.5648 1175.6394)" cx="560" cy="690.9" rx="6.8" ry="6.8"/>
	<ellipse transform="matrix(0.1045 -0.9945 0.9945 0.1045 -216.5671 1132.9668)" cx="520.9" cy="686.7" rx="6.8" ry="6.8"/>
	<ellipse transform="matrix(0.1045 -0.9945 0.9945 0.1045 -247.561 1090.3073)" cx="481.7" cy="682.6" rx="6.8" ry="6.8"/>
	<ellipse transform="matrix(0.1045 -0.9945 0.9945 0.1045 -278.555 1047.6476)" cx="442.5" cy="678.5" rx="6.8" ry="6.8"/>
	<ellipse transform="matrix(0.1045 -0.9945 0.9945 0.1045 -309.5489 1004.9879)" cx="403.3" cy="674.4" rx="6.8" ry="6.8"/>
	<ellipse transform="matrix(0.1045 -0.9945 0.9945 0.1045 -340.5428 962.3284)" cx="364.1" cy="670.3" rx="6.8" ry="6.8"/>
	<circle cx="539.9" cy="707" r="6.8"/>
	<circle cx="500.5" cy="707" r="6.8"/>
	<circle cx="461.1" cy="707" r="6.8"/>
	<circle cx="421.7" cy="707" r="6.8"/>
	<circle cx="382.3" cy="707" r="6.8"/>
	<ellipse transform="matrix(0.9945 -0.1045 0.1045 0.9945 -72.5095 62.5943)" cx="560.9" cy="723.1" rx="6.8" ry="6.8"/>
	<ellipse transform="matrix(0.9945 -0.1045 0.1045 0.9945 -73.1536 58.5197)" cx="521.7" cy="727.2" rx="6.8" ry="6.8"/>
	<ellipse transform="matrix(0.9945 -0.1045 0.1045 0.9945 -73.7999 54.4471)" cx="482.5" cy="731.3" rx="6.8" ry="6.8"/>
	<ellipse transform="matrix(0.9945 -0.1045 0.1045 0.9945 -74.4451 50.3734)" cx="443.4" cy="735.4" rx="6.8" ry="6.8"/>
	<ellipse transform="matrix(0.9945 -0.1045 0.1045 0.9945 -75.0891 46.299)" cx="404.2" cy="739.5" rx="6.8" ry="6.8"/>
	<ellipse transform="matrix(0.9945 -0.1045 0.1045 0.9945 -75.7355 42.2262)" cx="365" cy="743.7" rx="6.8" ry="6.8"/>
	<ellipse transform="matrix(0.9781 -0.2079 0.2079 0.9781 -142.5817 129.4662)" cx="544.6" cy="743" rx="6.8" ry="6.8"/>
	<ellipse transform="matrix(0.9781 -0.2079 0.2079 0.9781 -145.1252 121.6299)" cx="506.1" cy="751.2" rx="6.8" ry="6.8"/>
	<ellipse transform="matrix(0.9782 -0.2079 0.2079 0.9782 -147.6607 113.7863)" cx="467.5" cy="759.4" rx="6.8" ry="6.8"/>
	<ellipse transform="matrix(0.9781 -0.2079 0.2079 0.9781 -150.2161 105.9616)" cx="429" cy="767.6" rx="6.8" ry="6.8"/>
	<ellipse transform="matrix(0.9781 -0.2079 0.2079 0.9781 -152.7638 98.1292)" cx="390.4" cy="775.8" rx="6.8" ry="6.8"/>
	<ellipse transform="matrix(0.9511 -0.309 0.309 0.9511 -205.2895 212.581)" cx="568.5" cy="754.4" rx="6.8" ry="6.8"/>
	<ellipse transform="matrix(0.9511 -0.309 0.309 0.9511 -210.8861 201.597)" cx="531" cy="766.5" rx="6.8" ry="6.8"/>
	<ellipse transform="matrix(0.9511 -0.309 0.309 0.9511 -216.4915 190.6237)" cx="493.5" cy="778.7" rx="6.8" ry="6.8"/>
	<ellipse transform="matrix(0.9511 -0.309 0.309 0.9511 -222.0793 179.6291)" cx="456" cy="790.9" rx="6.8" ry="6.8"/>
	<ellipse transform="matrix(0.9511 -0.309 0.309 0.9511 -227.679 168.6483)" cx="418.6" cy="803.1" rx="6.8" ry="6.8"/>
	<ellipse transform="matrix(0.9511 -0.309 0.309 0.9511 -233.2725 157.6612)" cx="381.1" cy="815.2" rx="6.8" ry="6.8"/>
	<ellipse transform="matrix(0.9135 -0.4067 0.4067 0.9135 -268.0213 293.6004)" cx="556.6" cy="777.3" rx="6.8" ry="6.8"/>
	<ellipse transform="matrix(0.9135 -0.4067 0.4067 0.9135 -277.659 280.3568)" cx="520.6" cy="793.3" rx="6.8" ry="6.8"/>
	<ellipse transform="matrix(0.9135 -0.4067 0.4067 0.9135 -287.282 267.0902)" cx="484.6" cy="809.3" rx="6.8" ry="6.8"/>
	<ellipse transform="matrix(0.9135 -0.4067 0.4067 0.9135 -296.9124 253.8352)" cx="448.6" cy="825.4" rx="6.8" ry="6.8"/>
	<ellipse transform="matrix(0.9135 -0.4067 0.4067 0.9135 -306.5514 240.5904)" cx="412.7" cy="841.4" rx="6.8" ry="6.8"/>
	<ellipse transform="matrix(0.866 -0.5 0.5 0.866 -313.6923 396.1199)" cx="582.3" cy="783.4" rx="6.8" ry="6.8"/>
	<ellipse transform="matrix(0.866 -0.5 0.5 0.866 -328.1175 381.7048)" cx="548.2" cy="803.1" rx="6.8" ry="6.8"/>
	<ellipse transform="matrix(0.866 -0.5 0.5 0.866 -342.5396 367.2827)" cx="514.1" cy="822.8" rx="6.8" ry="6.8"/>
	<ellipse transform="matrix(0.866 -0.5 0.5 0.866 -356.9617 352.8605)" cx="480" cy="842.5" rx="6.8" ry="6.8"/>
	<ellipse transform="matrix(0.866 -0.5 0.5 0.866 -371.3839 338.4384)" cx="445.8" cy="862.2" rx="6.8" ry="6.8"/>
	<ellipse transform="matrix(0.866 -0.5 0.5 0.866 -385.806 324.0163)" cx="411.7" cy="881.9" rx="6.8" ry="6.8"/>
	<ellipse transform="matrix(0.809 -0.5878 0.5878 0.809 -365.1841 492.6669)" cx="575.5" cy="808.3" rx="6.8" ry="6.8"/>
	<ellipse transform="matrix(0.809 -0.5878 0.5878 0.809 -384.8852 478.3532)" cx="543.7" cy="831.5" rx="6.8" ry="6.8"/>
	<ellipse transform="matrix(0.809 -0.5878 0.5878 0.809 -404.5864 464.0395)" cx="511.8" cy="854.6" rx="6.8" ry="6.8"/>
	<ellipse transform="matrix(0.809 -0.5878 0.5878 0.809 -424.2875 449.7259)" cx="479.9" cy="877.8" rx="6.8" ry="6.8"/>
	<ellipse transform="matrix(0.809 -0.5878 0.5878 0.809 -443.9887 435.4122)" cx="448" cy="900.9" rx="6.8" ry="6.8"/>
	<ellipse transform="matrix(0.7431 -0.6691 0.6691 0.7431 -386.6886 610.5832)" cx="602" cy="809" rx="6.8" ry="6.8"/>
	<ellipse transform="matrix(0.7431 -0.6691 0.6691 0.7431 -411.8489 597.7505)" cx="572.7" cy="835.3" rx="6.8" ry="6.8"/>
	<ellipse transform="matrix(0.7431 -0.6691 0.6691 0.7431 -437.0147 584.941)" cx="543.4" cy="861.7" rx="6.8" ry="6.8"/>
	<ellipse transform="matrix(0.7431 -0.6691 0.6691 0.7431 -462.1742 572.1084)" cx="514.1" cy="888.1" rx="6.8" ry="6.8"/>
	<ellipse transform="matrix(0.7431 -0.6691 0.6691 0.7431 -487.3367 559.2874)" cx="484.8" cy="914.4" rx="6.8" ry="6.8"/>
	<ellipse transform="matrix(0.7431 -0.6691 0.6691 0.7431 -512.504 546.4776)" cx="455.6" cy="940.8" rx="6.8" ry="6.8"/>
	<ellipse transform="matrix(0.6691 -0.7431 0.7431 0.6691 -421.6214 722.4245)" cx="600.5" cy="834.7" rx="6.8" ry="6.8"/>
	<ellipse transform="matrix(0.6691 -0.7431 0.7431 0.6691 -452.1053 712.5197)" cx="574.1" cy="864" rx="6.8" ry="6.8"/>
	<ellipse transform="matrix(0.6691 -0.7431 0.7431 0.6691 -482.587 702.6029)" cx="547.8" cy="893.3" rx="6.8" ry="6.8"/>
	<ellipse transform="matrix(0.6691 -0.7431 0.7431 0.6691 -513.0704 692.6981)" cx="521.4" cy="922.5" rx="6.8" ry="6.8"/>
	<ellipse transform="matrix(0.6691 -0.7431 0.7431 0.6691 -543.5539 682.7933)" cx="495" cy="951.8" rx="6.8" ry="6.8"/>
	<ellipse transform="matrix(0.5878 -0.809 0.809 0.5878 -413.1377 848.9072)" cx="626.5" cy="829.9" rx="6.8" ry="6.8"/>
	<ellipse transform="matrix(0.5878 -0.809 0.809 0.5878 -448.4736 843.301)" cx="603.3" cy="861.7" rx="6.8" ry="6.8"/>
	<ellipse transform="matrix(0.5878 -0.809 0.809 0.5878 -483.8093 837.7043)" cx="580.1" cy="893.6" rx="6.8" ry="6.8"/>
	<ellipse transform="matrix(0.5878 -0.809 0.809 0.5878 -519.145 832.1076)" cx="557" cy="925.5" rx="6.8" ry="6.8"/>
	<ellipse transform="matrix(0.5878 -0.809 0.809 0.5878 -554.4819 826.5209)" cx="533.8" cy="957.4" rx="6.8" ry="6.8"/>
	<ellipse transform="matrix(0.5878 -0.809 0.809 0.5878 -589.8165 820.9142)" cx="510.7" cy="989.2" rx="6.8" ry="6.8"/>
	<ellipse transform="matrix(0.5 -0.866 0.866 0.5 -425.5652 973.5852)" cx="630.4" cy="855.3" rx="6.8" ry="6.8"/>
	<ellipse transform="matrix(0.5 -0.866 0.866 0.5 -464.9673 973.5852)" cx="610.7" cy="889.5" rx="6.8" ry="6.8"/>
	<ellipse transform="matrix(0.5 -0.866 0.866 0.5 -504.3694 973.5852)" cx="591" cy="923.6" rx="6.8" ry="6.8"/>
	<ellipse transform="matrix(0.5 -0.866 0.866 0.5 -543.7715 973.5852)" cx="571.3" cy="957.7" rx="6.8" ry="6.8"/>
	<ellipse transform="matrix(0.5 -0.866 0.866 0.5 -583.1735 973.5853)" cx="551.6" cy="991.8" rx="6.8" ry="6.8"/>
	<ellipse transform="matrix(0.4067 -0.9135 0.9135 0.4067 -383.6858 1099.6042)" cx="654.8" cy="845.2" rx="6.8" ry="6.8"/>
	<ellipse transform="matrix(0.4067 -0.9135 0.9135 0.4067 -426.0772 1106.3185)" cx="638.7" cy="881.2" rx="6.8" ry="6.8"/>
	<ellipse transform="matrix(0.4067 -0.9135 0.9135 0.4067 -468.4686 1113.0327)" cx="622.7" cy="917.2" rx="6.8" ry="6.8"/>
	<ellipse transform="matrix(0.4067 -0.9135 0.9135 0.4067 -510.8624 1119.7308)" cx="606.7" cy="953.2" rx="6.8" ry="6.8"/>
	<ellipse transform="matrix(0.4067 -0.9135 0.9135 0.4067 -553.2516 1126.4611)" cx="590.7" cy="989.2" rx="6.8" ry="6.8"/>
	<ellipse transform="matrix(0.4067 -0.9135 0.9135 0.4067 -595.6431 1133.1753)" cx="574.6" cy="1025.2" rx="6.8" ry="6.8"/>
	<ellipse transform="matrix(0.309 -0.9511 0.9511 0.309 -368.0365 1232.0875)" cx="663.9" cy="869.3" rx="6.8" ry="6.8"/>
	<ellipse transform="matrix(0.309 -0.9511 0.9511 0.309 -412.0895 1246.4012)" cx="651.7" cy="906.8" rx="6.8" ry="6.8"/>
	<ellipse transform="matrix(0.309 -0.9511 0.9511 0.309 -456.1422 1260.7148)" cx="639.5" cy="944.3" rx="6.8" ry="6.8"/>
	<ellipse transform="matrix(0.309 -0.9511 0.9511 0.309 -500.1953 1275.0286)" cx="627.4" cy="981.7" rx="6.8" ry="6.8"/>
	<ellipse transform="matrix(0.309 -0.9511 0.9511 0.309 -544.2493 1289.3367)" cx="615.2" cy="1019.2" rx="6.8" ry="6.8"/>
	<ellipse transform="matrix(0.2079 -0.9781 0.9781 0.2079 -292.5682 1347.3861)" cx="685.7" cy="854.3" rx="6.8" ry="6.8"/>
	<ellipse transform="matrix(0.2079 -0.9781 0.9781 0.2079 -336.7558 1369.9009)" cx="677.5" cy="892.9" rx="6.8" ry="6.8"/>
	<ellipse transform="matrix(0.2079 -0.9781 0.9781 0.2079 -380.942 1392.4188)" cx="669.3" cy="931.4" rx="6.8" ry="6.8"/>
	<ellipse transform="matrix(0.2079 -0.9782 0.9782 0.2079 -425.1227 1414.9502)" cx="661.1" cy="970" rx="6.8" ry="6.8"/>
	<ellipse transform="matrix(0.2079 -0.9781 0.9781 0.2079 -469.3187 1437.4446)" cx="652.9" cy="1008.5" rx="6.8" ry="6.8"/>
	<ellipse transform="matrix(0.2079 -0.9781 0.9781 0.2079 -513.5064 1459.9592)" cx="644.7" cy="1047" rx="6.8" ry="6.8"/>
	<ellipse transform="matrix(0.1045 -0.9945 0.9945 0.1045 -244.7666 1480.2119)" cx="699.6" cy="876" rx="6.8" ry="6.8"/>
	<ellipse transform="matrix(0.1045 -0.9945 0.9945 0.1045 -287.4262 1511.2058)" cx="695.5" cy="915.2" rx="6.8" ry="6.8"/>
	<ellipse transform="matrix(0.1045 -0.9945 0.9945 0.1045 -330.0848 1542.2015)" cx="691.4" cy="954.4" rx="6.8" ry="6.8"/>
	<ellipse transform="matrix(0.1045 -0.9945 0.9945 0.1045 -372.7455 1573.1937)" cx="687.2" cy="993.6" rx="6.8" ry="6.8"/>
	<ellipse transform="matrix(0.1045 -0.9945 0.9945 0.1045 -415.4051 1604.1876)" cx="683.1" cy="1032.8" rx="6.8" ry="6.8"/>
	<circle cx="717.8" cy="856.8" r="6.8"/>
	<circle cx="717.8" cy="896.2" r="6.8"/>
	<circle cx="717.8" cy="935.6" r="6.8"/>
	<circle cx="717.8" cy="975.1" r="6.8"/>
	<circle cx="717.8" cy="1014.5" r="6.8"/>
	<circle cx="717.8" cy="1053.9" r="6.8"/>
	<ellipse transform="matrix(0.9945 -0.1045 0.1045 0.9945 -87.4505 81.7197)" cx="735.9" cy="875.2" rx="6.8" ry="6.8"/>
	<ellipse transform="matrix(0.9945 -0.1045 0.1045 0.9945 -91.5242 82.3649)" cx="740" cy="914.3" rx="6.8" ry="6.8"/>
	<ellipse transform="matrix(0.9945 -0.1045 0.1045 0.9945 -95.5842 82.9969)" cx="744.1" cy="953.5" rx="6.8" ry="6.8"/>
	<ellipse transform="matrix(0.9945 -0.1045 0.1045 0.9945 -99.6714 83.6553)" cx="748.3" cy="992.7" rx="6.8" ry="6.8"/>
	<ellipse transform="matrix(0.9945 -0.1045 0.1045 0.9945 -103.7451 84.3005)" cx="752.4" cy="1031.9" rx="6.8" ry="6.8"/>
	<ellipse transform="matrix(0.9782 -0.2079 0.2079 0.9782 -160.8772 174.4893)" cx="749.7" cy="852.6" rx="6.8" ry="6.8"/>
	<ellipse transform="matrix(0.9781 -0.2079 0.2079 0.9781 -168.7218 177.0488)" cx="757.9" cy="891.2" rx="6.8" ry="6.8"/>
	<ellipse transform="matrix(0.9781 -0.2079 0.2079 0.9781 -176.5584 179.5974)" cx="766.1" cy="929.7" rx="6.8" ry="6.8"/>
	<ellipse transform="matrix(0.9781 -0.2079 0.2079 0.9781 -184.3926 182.1429)" cx="774.3" cy="968.2" rx="6.8" ry="6.8"/>
	<ellipse transform="matrix(0.9781 -0.2079 0.2079 0.9781 -192.2142 184.6734)" cx="782.5" cy="1006.8" rx="6.8" ry="6.8"/>
	<ellipse transform="matrix(0.9781 -0.2079 0.2079 0.9781 -200.0583 187.2307)" cx="790.7" cy="1045.3" rx="6.8" ry="6.8"/>
	<ellipse transform="matrix(0.9511 -0.309 0.309 0.9511 -230.0971 280.7475)" cx="771.2" cy="866.8" rx="6.8" ry="6.8"/>
	<ellipse transform="matrix(0.9511 -0.309 0.309 0.9511 -241.0841 286.349)" cx="783.4" cy="904.2" rx="6.8" ry="6.8"/>
	<ellipse transform="matrix(0.9511 -0.309 0.309 0.9511 -252.065 291.9407)" cx="795.6" cy="941.7" rx="6.8" ry="6.8"/>
	<ellipse transform="matrix(0.9511 -0.309 0.309 0.9511 -263.049 297.5373)" cx="807.8" cy="979.2" rx="6.8" ry="6.8"/>
	<ellipse transform="matrix(0.9511 -0.309 0.309 0.9511 -274.0329 303.1339)" cx="819.9" cy="1016.7" rx="6.8" ry="6.8"/>
	<ellipse transform="matrix(0.9135 -0.4067 0.4067 0.9135 -274.971 390.0529)" cx="780" cy="841.8" rx="6.8" ry="6.8"/>
	<ellipse transform="matrix(0.9135 -0.4067 0.4067 0.9135 -288.2261 399.6832)" cx="796.1" cy="877.8" rx="6.8" ry="6.8"/>
	<ellipse transform="matrix(0.9135 -0.4067 0.4067 0.9135 -301.4884 409.3296)" cx="812.1" cy="913.8" rx="6.8" ry="6.8"/>
	<ellipse transform="matrix(0.9135 -0.4067 0.4067 0.9135 -314.7363 418.944)" cx="828.1" cy="949.8" rx="6.8" ry="6.8"/>
	<ellipse transform="matrix(0.9135 -0.4067 0.4067 0.9135 -327.9914 428.5743)" cx="844.2" cy="985.8" rx="6.8" ry="6.8"/>
	<ellipse transform="matrix(0.9135 -0.4067 0.4067 0.9135 -341.2465 438.2047)" cx="860.2" cy="1021.8" rx="6.8" ry="6.8"/>
	<ellipse transform="matrix(0.866 -0.5 0.5 0.866 -317.8792 516.0716)" cx="804.1" cy="851.2" rx="6.8" ry="6.8"/>
	<ellipse transform="matrix(0.866 -0.5 0.5 0.866 -332.3014 530.4937)" cx="823.8" cy="885.3" rx="6.8" ry="6.8"/>
	<ellipse transform="matrix(0.866 -0.5 0.5 0.866 -346.7235 544.9158)" cx="843.5" cy="919.5" rx="6.8" ry="6.8"/>
	<ellipse transform="matrix(0.866 -0.5 0.5 0.866 -361.1456 559.338)" cx="863.2" cy="953.6" rx="6.8" ry="6.8"/>
	<ellipse transform="matrix(0.866 -0.5 0.5 0.866 -375.5678 573.7601)" cx="882.9" cy="987.7" rx="6.8" ry="6.8"/>
	<ellipse transform="matrix(0.809 -0.5878 0.5878 0.809 -330.7057 632.1898)" cx="807.5" cy="825" rx="6.8" ry="6.8"/>
	<ellipse transform="matrix(0.809 -0.5878 0.5878 0.809 -345.0211 651.9014)" cx="830.7" cy="856.9" rx="6.8" ry="6.8"/>
	<ellipse transform="matrix(0.809 -0.5878 0.5878 0.809 -359.3347 671.6026)" cx="853.8" cy="888.8" rx="6.8" ry="6.8"/>
	<ellipse transform="matrix(0.809 -0.5878 0.5878 0.809 -373.6484 691.3037)" cx="877" cy="920.6" rx="6.8" ry="6.8"/>
	<ellipse transform="matrix(0.809 -0.5878 0.5878 0.809 -387.9621 711.0049)" cx="900.1" cy="952.5" rx="6.8" ry="6.8"/>
	<ellipse transform="matrix(0.809 -0.5878 0.5878 0.809 -402.2758 730.7061)" cx="923.3" cy="984.4" rx="6.8" ry="6.8"/>
	<ellipse transform="matrix(0.7431 -0.6691 0.6691 0.7431 -340.8752 770.3113)" cx="832.9" cy="829.2" rx="6.8" ry="6.8"/>
	<ellipse transform="matrix(0.7431 -0.6691 0.6691 0.7431 -353.6963 795.474)" cx="859.3" cy="858.4" rx="6.8" ry="6.8"/>
	<ellipse transform="matrix(0.7432 -0.6691 0.6691 0.7432 -366.5166 820.6234)" cx="885.7" cy="887.7" rx="6.8" ry="6.8"/>
	<ellipse transform="matrix(0.7431 -0.6691 0.6691 0.7431 -379.3384 845.7991)" cx="912" cy="917" rx="6.8" ry="6.8"/>
	<ellipse transform="matrix(0.7431 -0.6691 0.6691 0.7431 -392.1603 870.9774)" cx="938.4" cy="946.3" rx="6.8" ry="6.8"/>
	<ellipse transform="matrix(0.6691 -0.7431 0.7431 0.6691 -321.7098 883.0703)" cx="830.8" cy="802.8" rx="6.8" ry="6.8"/>
	<ellipse transform="matrix(0.6691 -0.7431 0.7431 0.6691 -331.6156 913.5402)" cx="860.1" cy="829.2" rx="6.8" ry="6.8"/>
	<ellipse transform="matrix(0.6691 -0.7431 0.7431 0.6691 -341.5204 944.0237)" cx="889.4" cy="855.5" rx="6.8" ry="6.8"/>
	<ellipse transform="matrix(0.6691 -0.7431 0.7431 0.6691 -351.4241 974.522)" cx="918.7" cy="881.9" rx="6.8" ry="6.8"/>
	<ellipse transform="matrix(0.6691 -0.7431 0.7431 0.6691 -361.3299 1004.9907)" cx="948" cy="908.3" rx="6.8" ry="6.8"/>
	<ellipse transform="matrix(0.6691 -0.7431 0.7431 0.6691 -371.2336 1035.4899)" cx="977.3" cy="934.6" rx="6.8" ry="6.8"/>
	<ellipse transform="matrix(0.5878 -0.809 0.809 0.5878 -295.4097 1023.4227)" cx="856.6" cy="801.6" rx="6.8" ry="6.8"/>
	<ellipse transform="matrix(0.5878 -0.809 0.809 0.5878 -301.0042 1058.7694)" cx="888.5" cy="824.8" rx="6.8" ry="6.8"/>
	<ellipse transform="matrix(0.5878 -0.809 0.809 0.5878 -306.6031 1094.0941)" cx="920.3" cy="847.9" rx="6.8" ry="6.8"/>
	<ellipse transform="matrix(0.5878 -0.809 0.809 0.5878 -312.1973 1129.4415)" cx="952.2" cy="871.1" rx="6.8" ry="6.8"/>
	<ellipse transform="matrix(0.5878 -0.809 0.809 0.5878 -317.7964 1164.7655)" cx="984.1" cy="894.2" rx="6.8" ry="6.8"/>
	<ellipse transform="matrix(0.5 -0.866 0.866 0.5 -247.7364 1123.4321)" cx="849.1" cy="776.3" rx="6.8" ry="6.8"/>
	<ellipse transform="matrix(0.5 -0.866 0.866 0.5 -247.7316 1162.8491)" cx="883.2" cy="796" rx="6.8" ry="6.8"/>
	<ellipse transform="matrix(0.5 -0.866 0.866 0.5 -247.7316 1202.2512)" cx="917.3" cy="815.7" rx="6.8" ry="6.8"/>
	<ellipse transform="matrix(0.5 -0.866 0.866 0.5 -247.7316 1241.6532)" cx="951.4" cy="835.4" rx="6.8" ry="6.8"/>
	<ellipse transform="matrix(0.5 -0.866 0.866 0.5 -247.7316 1281.0553)" cx="985.6" cy="855.1" rx="6.8" ry="6.8"/>
	<ellipse transform="matrix(0.5 -0.866 0.866 0.5 -247.7315 1320.4574)" cx="1019.7" cy="874.8" rx="6.8" ry="6.8"/>
	<ellipse transform="matrix(0.4067 -0.9135 0.9135 0.4067 -184.6618 1255.0856)" cx="874" cy="769.7" rx="6.8" ry="6.8"/>
	<ellipse transform="matrix(0.4067 -0.9135 0.9135 0.4067 -177.9478 1297.4771)" cx="910" cy="785.7" rx="6.8" ry="6.8"/>
	<ellipse transform="matrix(0.4067 -0.9135 0.9135 0.4067 -171.2336 1339.8684)" cx="946" cy="801.8" rx="6.8" ry="6.8"/>
	<ellipse transform="matrix(0.4067 -0.9135 0.9135 0.4067 -164.5157 1382.2672)" cx="982" cy="817.8" rx="6.8" ry="6.8"/>
	<ellipse transform="matrix(0.4067 -0.9135 0.9135 0.4067 -157.805 1424.6514)" cx="1018" cy="833.8" rx="6.8" ry="6.8"/>
	<ellipse transform="matrix(0.309 -0.9511 0.9511 0.309 -114.7715 1335.0363)" cx="861.4" cy="746.5" rx="6.8" ry="6.8"/>
	<ellipse transform="matrix(0.309 -0.9511 0.9511 0.309 -100.458 1379.089)" cx="898.8" cy="758.7" rx="6.8" ry="6.8"/>
	<ellipse transform="matrix(0.309 -0.9511 0.9511 0.309 -86.1442 1423.142)" cx="936.3" cy="770.9" rx="6.8" ry="6.8"/>
	<ellipse transform="matrix(0.309 -0.9511 0.9511 0.309 -71.834 1467.1898)" cx="973.8" cy="783" rx="6.8" ry="6.8"/>
	<ellipse transform="matrix(0.309 -0.9511 0.9511 0.309 -57.5169 1511.2477)" cx="1011.3" cy="795.2" rx="6.8" ry="6.8"/>
	<ellipse transform="matrix(0.309 -0.9511 0.9511 0.309 -43.2032 1555.3007)" cx="1048.7" cy="807.4" rx="6.8" ry="6.8"/>
	<ellipse transform="matrix(0.2079 -0.9781 0.9781 0.2079 -18.3402 1447.1854)" cx="884.4" cy="734.9" rx="6.8" ry="6.8"/>
	<ellipse transform="matrix(0.2079 -0.9781 0.9781 0.2079 4.1769 1491.376)" cx="922.9" cy="743.1" rx="6.8" ry="6.8"/>
	<ellipse transform="matrix(0.2079 -0.9782 0.9782 0.2079 26.7036 1535.5781)" cx="961.5" cy="751.3" rx="6.8" ry="6.8"/>
	<ellipse transform="matrix(0.2079 -0.9781 0.9781 0.2079 49.2063 1579.7513)" cx="1000" cy="759.5" rx="6.8" ry="6.8"/>
	<ellipse transform="matrix(0.2079 -0.9781 0.9781 0.2079 71.7182 1623.9359)" cx="1038.6" cy="767.7" rx="6.8" ry="6.8"/>
	<ellipse transform="matrix(0.1045 -0.9945 0.9945 0.1045 65.653 1502.58)" cx="867.2" cy="714.8" rx="6.8" ry="6.8"/>
	<ellipse transform="matrix(0.1045 -0.9945 0.9945 0.1045 96.6457 1545.2383)" cx="906.4" cy="719" rx="6.8" ry="6.8"/>
	<ellipse transform="matrix(0.1045 -0.9945 0.9945 0.1045 127.6396 1587.8978)" cx="945.6" cy="723.1" rx="6.8" ry="6.8"/>
	<ellipse transform="matrix(0.1045 -0.9945 0.9945 0.1045 158.6335 1630.5575)" cx="984.8" cy="727.2" rx="6.8" ry="6.8"/>
	<ellipse transform="matrix(0.1045 -0.9945 0.9945 0.1045 189.6275 1673.217)" cx="1024" cy="731.3" rx="6.8" ry="6.8"/>
	<ellipse transform="matrix(0.1045 -0.9945 0.9945 0.1045 220.6214 1715.8767)" cx="1063.2" cy="735.4" rx="6.8" ry="6.8"/>
	<circle cx="887.3" cy="698.7" r="6.8"/>
	<circle cx="926.7" cy="698.7" r="6.8"/>
	<circle cx="966.1" cy="698.7" r="6.8"/>
	<circle cx="1005.5" cy="698.7" r="6.8"/>
	<circle cx="1044.9" cy="698.7" r="6.8"/>
	<ellipse transform="matrix(0.9945 -0.1045 0.1045 0.9945 -66.611 94.3013)" cx="866.4" cy="682.6" rx="6.8" ry="6.8"/>
	<ellipse transform="matrix(0.9945 -0.1045 0.1045 0.9945 -65.9658 98.3749)" cx="905.5" cy="678.5" rx="6.8" ry="6.8"/>
	<ellipse transform="matrix(0.9945 -0.1045 0.1045 0.9945 -65.3206 102.4486)" cx="944.7" cy="674.4" rx="6.8" ry="6.8"/>
	<ellipse transform="matrix(0.9945 -0.1045 0.1045 0.9945 -64.6744 106.5205)" cx="983.9" cy="670.3" rx="6.8" ry="6.8"/>
	<ellipse transform="matrix(0.9945 -0.1045 0.1045 0.9945 -64.0302 110.5958)" cx="1023.1" cy="666.2" rx="6.8" ry="6.8"/>
	<ellipse transform="matrix(0.9945 -0.1045 0.1045 0.9945 -63.385 114.6695)" cx="1062.3" cy="662" rx="6.8" ry="6.8"/>
	<ellipse transform="matrix(0.9781 -0.2079 0.2079 0.9781 -118.4926 198.0011)" cx="882.7" cy="662.7" rx="6.8" ry="6.8"/>
	<ellipse transform="matrix(0.9781 -0.2079 0.2079 0.9781 -115.9486 205.8386)" cx="921.2" cy="654.5" rx="6.8" ry="6.8"/>
	<ellipse transform="matrix(0.9781 -0.2079 0.2079 0.9781 -113.4031 213.6729)" cx="959.8" cy="646.3" rx="6.8" ry="6.8"/>
	<ellipse transform="matrix(0.9782 -0.2079 0.2079 0.9782 -110.8498 221.4864)" cx="998.3" cy="638.1" rx="6.8" ry="6.8"/>
	<ellipse transform="matrix(0.9781 -0.2079 0.2079 0.9781 -108.3108 229.3376)" cx="1036.8" cy="629.9" rx="6.8" ry="6.8"/>
	<ellipse transform="matrix(0.9511 -0.309 0.309 0.9511 -159.237 297.2648)" cx="858.8" cy="651.3" rx="6.8" ry="6.8"/>
	<ellipse transform="matrix(0.9511 -0.309 0.309 0.9511 -153.6404 308.2487)" cx="896.3" cy="639.2" rx="6.8" ry="6.8"/>
	<ellipse transform="matrix(0.9511 -0.309 0.309 0.9511 -148.0438 319.2327)" cx="933.8" cy="627" rx="6.8" ry="6.8"/>
	<ellipse transform="matrix(0.9511 -0.309 0.309 0.9511 -142.4472 330.2166)" cx="971.2" cy="614.8" rx="6.8" ry="6.8"/>
	<ellipse transform="matrix(0.9511 -0.309 0.309 0.9511 -136.8506 341.2007)" cx="1008.7" cy="602.6" rx="6.8" ry="6.8"/>
	<ellipse transform="matrix(0.9511 -0.309 0.309 0.9511 -131.2551 352.1904)" cx="1046.2" cy="590.4" rx="6.8" ry="6.8"/>
	<ellipse transform="matrix(0.9135 -0.4067 0.4067 0.9135 -180.3309 408.4453)" cx="870.6" cy="628.4" rx="6.8" ry="6.8"/>
	<ellipse transform="matrix(0.9135 -0.4067 0.4067 0.9135 -170.7006 421.7003)" cx="906.6" cy="612.4" rx="6.8" ry="6.8"/>
	<ellipse transform="matrix(0.9135 -0.4067 0.4067 0.9135 -161.0692 434.9484)" cx="942.6" cy="596.4" rx="6.8" ry="6.8"/>
	<ellipse transform="matrix(0.9135 -0.4067 0.4067 0.9135 -151.4417 448.2268)" cx="978.6" cy="580.3" rx="6.8" ry="6.8"/>
	<ellipse transform="matrix(0.9135 -0.4067 0.4067 0.9135 -141.8094 461.4657)" cx="1014.6" cy="564.3" rx="6.8" ry="6.8"/>
	<ellipse transform="matrix(0.866 -0.5 0.5 0.866 -197.9336 505.8251)" cx="844.9" cy="622.3" rx="6.8" ry="6.8"/>
	<ellipse transform="matrix(0.866 -0.5 0.5 0.866 -183.5118 520.2471)" cx="879.1" cy="602.6" rx="6.8" ry="6.8"/>
	<ellipse transform="matrix(0.866 -0.5 0.5 0.866 -169.0903 534.6776)" cx="913.2" cy="582.9" rx="6.8" ry="6.8"/>
	<ellipse transform="matrix(0.866 -0.5 0.5 0.866 -154.6682 549.0997)" cx="947.3" cy="563.2" rx="6.8" ry="6.8"/>
	<ellipse transform="matrix(0.866 -0.5 0.5 0.866 -140.2462 563.513)" cx="981.4" cy="543.5" rx="6.8" ry="6.8"/>
	<ellipse transform="matrix(0.866 -0.5 0.5 0.866 -125.8244 577.935)" cx="1015.5" cy="523.8" rx="6.8" ry="6.8"/>
	<ellipse transform="matrix(0.809 -0.5878 0.5878 0.809 -188.4803 614.731)" cx="851.7" cy="597.4" rx="6.8" ry="6.8"/>
	<ellipse transform="matrix(0.809 -0.5878 0.5878 0.809 -168.7791 629.0447)" cx="883.6" cy="574.2" rx="6.8" ry="6.8"/>
	<ellipse transform="matrix(0.809 -0.5878 0.5878 0.809 -149.078 643.3584)" cx="915.5" cy="551.1" rx="6.8" ry="6.8"/>
	<ellipse transform="matrix(0.809 -0.5878 0.5878 0.809 -129.3797 657.6484)" cx="947.4" cy="527.9" rx="6.8" ry="6.8"/>
	<ellipse transform="matrix(0.809 -0.5878 0.5878 0.809 -109.6773 671.9756)" cx="979.2" cy="504.8" rx="6.8" ry="6.8"/>
	<ellipse transform="matrix(0.7431 -0.6691 0.6691 0.7431 -187.3063 705.5084)" cx="825.3" cy="596.7" rx="6.8" ry="6.8"/>
	<ellipse transform="matrix(0.7431 -0.6691 0.6691 0.7431 -162.1419 718.3414)" cx="854.6" cy="570.4" rx="6.8" ry="6.8"/>
	<ellipse transform="matrix(0.7431 -0.6691 0.6691 0.7431 -136.981 731.1506)" cx="883.9" cy="544" rx="6.8" ry="6.8"/>
	<ellipse transform="matrix(0.7431 -0.6691 0.6691 0.7431 -111.8185 743.9716)" cx="913.2" cy="517.6" rx="6.8" ry="6.8"/>
	<ellipse transform="matrix(0.7431 -0.6691 0.6691 0.7431 -86.6527 756.8047)" cx="942.4" cy="491.3" rx="6.8" ry="6.8"/>
	<ellipse transform="matrix(0.7431 -0.6691 0.6691 0.7431 -61.4932 769.6137)" cx="971.7" cy="464.9" rx="6.8" ry="6.8"/>
	<ellipse transform="matrix(0.6691 -0.7431 0.7431 0.6691 -150.7771 803.3417)" cx="826.8" cy="571" rx="6.8" ry="6.8"/>
	<ellipse transform="matrix(0.6691 -0.7431 0.7431 0.6691 -120.2905 813.2578)" cx="853.2" cy="541.7" rx="6.8" ry="6.8"/>
	<ellipse transform="matrix(0.6691 -0.7431 0.7431 0.6691 -89.8066 823.1626)" cx="879.5" cy="512.4" rx="6.8" ry="6.8"/>
	<ellipse transform="matrix(0.6691 -0.7431 0.7431 0.6691 -59.3267 833.056)" cx="905.9" cy="483.2" rx="6.8" ry="6.8"/>
	<ellipse transform="matrix(0.6691 -0.7431 0.7431 0.6691 -28.8387 842.9721)" cx="932.2" cy="453.9" rx="6.8" ry="6.8"/>
	<ellipse transform="matrix(0.5878 -0.809 0.809 0.5878 -135.7541 885.2282)" cx="800.8" cy="575.8" rx="6.8" ry="6.8"/>
	<ellipse transform="matrix(0.5878 -0.809 0.809 0.5878 -100.4185 890.825)" cx="824" cy="544" rx="6.8" ry="6.8"/>
	<ellipse transform="matrix(0.5878 -0.809 0.809 0.5878 -65.0827 896.4216)" cx="847.1" cy="512.1" rx="6.8" ry="6.8"/>
	<ellipse transform="matrix(0.5878 -0.809 0.809 0.5878 -29.747 902.0183)" cx="870.3" cy="480.2" rx="6.8" ry="6.8"/>
	<ellipse transform="matrix(0.5878 -0.809 0.809 0.5878 5.5887 907.615)" cx="893.4" cy="448.3" rx="6.8" ry="6.8"/>
	<ellipse transform="matrix(0.5878 -0.809 0.809 0.5878 40.9244 913.2117)" cx="916.6" cy="416.4" rx="6.8" ry="6.8"/>
	<ellipse transform="matrix(0.5 -0.866 0.866 0.5 -78.1743 965.3025)" cx="796.9" cy="550.4" rx="6.8" ry="6.8"/>
	<ellipse transform="matrix(0.5 -0.866 0.866 0.5 -38.7666 965.3145)" cx="816.6" cy="516.2" rx="6.8" ry="6.8"/>
	<ellipse transform="matrix(0.5 -0.866 0.866 0.5 0.6355 965.3144)" cx="836.3" cy="482.1" rx="6.8" ry="6.8"/>
	<ellipse transform="matrix(0.5 -0.866 0.866 0.5 40.0375 965.3144)" cx="856" cy="448" rx="6.8" ry="6.8"/>
	<ellipse transform="matrix(0.5 -0.866 0.866 0.5 79.4395 965.3144)" cx="875.7" cy="413.9" rx="6.8" ry="6.8"/>
	<ellipse transform="matrix(0.4067 -0.9135 0.9135 0.4067 -53.7403 1038.2112)" cx="772.5" cy="560.5" rx="6.8" ry="6.8"/>
	<ellipse transform="matrix(0.4067 -0.9135 0.9135 0.4067 -11.3492 1031.4973)" cx="788.5" cy="524.5" rx="6.8" ry="6.8"/>
	<ellipse transform="matrix(0.4067 -0.9135 0.9135 0.4067 31.0495 1024.7948)" cx="804.5" cy="488.5" rx="6.8" ry="6.8"/>
	<ellipse transform="matrix(0.4067 -0.9135 0.9135 0.4067 73.4409 1018.0805)" cx="820.6" cy="452.5" rx="6.8" ry="6.8"/>
	<ellipse transform="matrix(0.4067 -0.9135 0.9135 0.4067 115.8323 1011.3663)" cx="836.6" cy="416.5" rx="6.8" ry="6.8"/>
	<ellipse transform="matrix(0.4067 -0.9135 0.9135 0.4067 158.2237 1004.6521)" cx="852.6" cy="380.5" rx="6.8" ry="6.8"/>
	<ellipse transform="matrix(0.309 -0.9511 0.9511 0.309 17.3605 1096.641)" cx="763.4" cy="536.4" rx="6.8" ry="6.8"/>
	<ellipse transform="matrix(0.309 -0.9511 0.9511 0.309 61.4131 1082.3273)" cx="775.6" cy="498.9" rx="6.8" ry="6.8"/>
	<ellipse transform="matrix(0.309 -0.9511 0.9511 0.309 105.457 1068.0033)" cx="787.7" cy="461.4" rx="6.8" ry="6.8"/>
	<ellipse transform="matrix(0.309 -0.9511 0.9511 0.309 149.5095 1053.6901)" cx="799.9" cy="424" rx="6.8" ry="6.8"/>
	<ellipse transform="matrix(0.309 -0.9511 0.9511 0.309 193.5717 1039.386)" cx="812.1" cy="386.5" rx="6.8" ry="6.8"/>
	<ellipse transform="matrix(0.2079 -0.9781 0.9781 0.2079 48.1099 1162.1232)" cx="741.6" cy="551.4" rx="6.8" ry="6.8"/>
	<ellipse transform="matrix(0.2079 -0.9781 0.9781 0.2079 92.2975 1139.6085)" cx="749.8" cy="512.8" rx="6.8" ry="6.8"/>
	<ellipse transform="matrix(0.2079 -0.9781 0.9781 0.2079 136.4831 1117.0917)" cx="758" cy="474.3" rx="6.8" ry="6.8"/>
	<ellipse transform="matrix(0.2079 -0.9781 0.9781 0.2079 180.6708 1094.5771)" cx="766.2" cy="435.7" rx="6.8" ry="6.8"/>
	<ellipse transform="matrix(0.2079 -0.9781 0.9781 0.2079 224.8584 1072.0625)" cx="774.4" cy="397.2" rx="6.8" ry="6.8"/>
	<ellipse transform="matrix(0.2079 -0.9781 0.9781 0.2079 269.0482 1049.5496)" cx="782.6" cy="358.7" rx="6.8" ry="6.8"/>
	<ellipse transform="matrix(0.1045 -0.9945 0.9945 0.1045 124.8451 1197.993)" cx="727.7" cy="529.7" rx="6.8" ry="6.8"/>
	<ellipse transform="matrix(0.1045 -0.9945 0.9945 0.1045 167.5048 1166.9991)" cx="731.8" cy="490.5" rx="6.8" ry="6.8"/>
	<ellipse transform="matrix(0.1045 -0.9945 0.9945 0.1045 210.1644 1136.0052)" cx="735.9" cy="451.3" rx="6.8" ry="6.8"/>
	<ellipse transform="matrix(0.1045 -0.9945 0.9945 0.1045 252.824 1105.0114)" cx="740" cy="412.1" rx="6.8" ry="6.8"/>
	<ellipse transform="matrix(0.1045 -0.9945 0.9945 0.1045 295.4848 1074.0182)" cx="744.2" cy="372.9" rx="6.8" ry="6.8"/>
</g>
</svg>
