<?xml version="1.0" encoding="utf-8"?>
<!-- Generator: Adobe Illustrator 21.0.0, SVG Export Plug-In . SVG Version: 6.00 Build 0)  -->
<svg version="1.1" id="Layer_1" xmlns="http://www.w3.org/2000/svg" xmlns:xlink="http://www.w3.org/1999/xlink" x="0px" y="0px"
	 viewBox="0 0 1242.2 1417.3" style="enable-background:new 0 0 1242.2 1417.3;" xml:space="preserve">
<g>
	<path d="M1086.7,162.1C997.1,60.5,853.6,15.2,621.4,15.2S245.8,60.5,156.2,162.1C64.3,266.3,23.3,435.2,23.3,709.7
		s41,443.4,132.9,547.6c89.6,101.6,233.1,146.9,465.3,146.9s375.7-45.3,465.3-146.9c91.9-104.2,132.9-273.1,132.9-547.6
		S1178.6,266.3,1086.7,162.1z M833.4,53.4c-59.4-10.7-129.8-14-211.9-14c-82.1,0-152.6,3.3-212,14C469.9,41.7,540,36,621.4,36
		C702.9,36,773,41.7,833.4,53.4z M1020.7,173.4c58.8,93.2,61,246.1,64.6,499.4l0.5,32.4l-0.5,32.5c-3.6,253.4-5.8,406.3-64.6,499.4
		c-65.3,103.4-195.9,123.7-399.3,123.7s-334-20.2-399.3-123.7c-58.8-93.2-61-246.1-64.6-499.4l-0.5-32.4l0.5-32.5
		c3.6-253.3,5.8-406.3,64.6-499.4C287.4,70,418,49.8,621.4,49.8S955.5,70,1020.7,173.4z M1071.1,1243.5
		c-85.3,96.7-224,139.9-449.7,139.9c-225.7,0-364.4-43.1-449.7-139.9C83.5,1143.4,44.1,978.8,44.1,709.7
		c0-269.1,39.4-433.7,127.7-533.8c43.8-49.7,101.9-85.3,178.5-108.1C290.1,87,244.7,118.2,213.4,167.9
		c-60.4,95.6-62.6,249.6-66.2,504.8l-0.5,32.7l0.5,32.5c3.7,255.2,5.9,409.2,66.2,504.8c67.9,107.5,201,128.5,408.1,128.5
		c207.1,0,340.2-21,408.1-128.5c60.4-95.6,62.6-249.7,66.2-504.8l0.5-32.7l-0.5-32.5c-3.7-255.2-5.9-409.2-66.2-504.8
		C998.2,118.2,952.8,87,892.6,67.8c76.6,22.8,134.6,58.3,178.5,108.1c88.3,100.1,127.7,264.8,127.7,533.8
		C1198.8,978.8,1159.4,1143.4,1071.1,1243.5z"/>
	<path d="M281.7,1104.6c47.9,74,136.8,100.2,339.7,100.2s291.8-26.2,339.8-100.2c49.8-76.9,51.7-206.3,54.9-420.7l0.4-27.4
		l-0.4-27.7c-3.2-214.4-5.1-343.8-54.9-420.7c-47.9-74-136.8-100.2-339.8-100.2s-291.8,26.2-339.7,100.2
		c-49.8,76.9-51.7,206.3-54.9,420.7l-0.4,27.7l0.4,27.4C230,898.3,231.9,1027.7,281.7,1104.6z M247.6,629.2
		c3.1-210.7,5-337.8,51.5-409.7c43.4-67,127.7-90.7,322.3-90.7s278.9,23.7,322.3,90.7c46.6,71.9,48.4,199,51.5,409.7l0.4,27.2
		l-0.4,27.2c-3.1,210.7-5,337.8-51.5,409.7c-43.4,67-127.7,90.7-322.3,90.7s-278.9-23.7-322.3-90.7c-46.6-71.9-48.4-199-51.5-409.7
		l-0.4-27.1L247.6,629.2z"/>
	<path d="M621.4,811.9c56.3,0,102.1-45.8,102.1-102.1s-45.8-102.1-102.1-102.1c-56.3,0-102.1,45.8-102.1,102.1
		S565.1,811.9,621.4,811.9z M621.4,612.8c53.5,0,96.9,43.5,96.9,96.9s-43.5,96.9-96.9,96.9c-53.5,0-96.9-43.5-96.9-96.9
		S568,612.8,621.4,612.8z"/>
	<path d="M621.4,840.7c72.2,0,131-58.8,131-131s-58.8-131-131-131s-131,58.8-131,131S549.2,840.7,621.4,840.7z M621.4,589.1
		c66.5,0,120.6,54.1,120.6,120.6s-54.1,120.6-120.6,120.6s-120.6-54.1-120.6-120.6S555,589.1,621.4,589.1z"/>
	<path d="M177.2,705.4l0.5,32.1c7.2,499.3,8.7,603.2,443.7,603.2c435.1,0,436.6-103.9,443.7-603.2l0.5-32.1l-0.5-32.2
		C1058,173.9,1056.5,70,621.4,70c-435.1,0-436.6,103.9-443.7,603.2L177.2,705.4z M188.1,673.3c3.6-248,5.7-397.7,59.9-483.5
		C299,109,396.7,80.4,621.4,80.4c224.7,0,322.4,28.6,373.4,109.4c54.2,85.9,56.4,235.6,59.9,483.5l0.5,32l-0.5,32
		c-3.6,248-5.7,397.7-59.9,483.5c-51,80.8-148.7,109.4-373.4,109.4c-224.7,0-322.4-28.6-373.4-109.4
		c-54.2-85.9-56.4-235.6-59.9-483.5l-0.5-31.9L188.1,673.3z"/>
	<path d="M486.6,797.3l5,6.7c2.8,3.7,5.5,5.7,8.1,5.9c2.6,0.3,5-0.5,7.2-2.1c1.3-1,2.3-2.1,3-3.5c0.7-1.3,1-2.7,1-4
		c-0.1-1.3-0.5-2.7-1.2-4.1c-0.5-1-1.4-2.4-2.7-4.2l-7.4-9.8l-26.1,19.6l2.6,3.5L486.6,797.3z M499,787.9l5,6.7
		c1.2,1.6,1.9,2.7,2.2,3.4c0.4,1.1,0.5,2.2,0.1,3.3c-0.4,1.1-1.1,2.1-2.2,2.9c-1.5,1.1-3,1.5-4.6,1.2c-1.5-0.3-3.1-1.6-4.8-3.8
		l-5.1-6.7L499,787.9z"/>
	<path d="M532.5,818.5l-12.5,14.1c-2.7,3.1-5.1,4.7-7,4.9s-4.1-0.8-6.5-2.9c-1.4-1.2-2.3-2.5-2.8-3.9c-0.5-1.4-0.5-2.8,0-4.1
		c0.5-1.4,1.7-3.1,3.6-5.2l12.5-14.1l-3.2-2.9L504,818.4c-2.3,2.6-3.8,4.9-4.5,6.9c-0.7,2-0.7,4.1,0.1,6.2c0.8,2.1,2.3,4.1,4.6,6.2
		c2.4,2.1,4.7,3.3,6.9,3.7c2.3,0.4,4.3,0.1,6.1-0.8c1.8-0.9,3.8-2.7,6-5.1l12.5-14.1L532.5,818.5z"/>
	<path d="M539.7,861c2,0.2,3.9-0.1,5.5-1c1.6-0.8,2.9-2,3.7-3.5c0.9-1.5,1.3-3.1,1.1-4.7c-0.1-1.6-0.8-3.3-2-5
		c-0.8-1.2-2.6-3-5.2-5.4c-2.6-2.4-4.1-4.2-4.5-5.3c-0.4-1.1-0.2-2.1,0.3-3.1c0.7-1.2,1.8-1.9,3.3-2.1c1.5-0.2,3.4,0.3,5.7,1.6
		c2.2,1.3,3.6,2.7,4.1,4.2c0.6,1.6,0.5,3.3-0.4,5.2l3.7,1.8c0.9-1.7,1.3-3.4,1.2-5.3c-0.1-1.8-0.8-3.5-2-5.1c-1.2-1.6-2.9-3-5-4.2
		c-1.9-1.1-3.8-1.8-5.7-2c-1.9-0.3-3.7,0-5.2,0.8c-1.5,0.8-2.7,1.9-3.5,3.3c-0.7,1.3-1.1,2.7-1,4.1c0.1,1.4,0.6,2.9,1.5,4.4
		c0.7,1.2,2.2,2.8,4.4,4.9c2.2,2.1,3.6,3.6,4.2,4.3c0.9,1.1,1.4,2.2,1.6,3.1c0.1,1-0.1,1.9-0.6,2.8c-0.5,0.9-1.2,1.5-2.2,2
		c-1,0.4-2.1,0.5-3.4,0.3c-1.3-0.2-2.7-0.7-4.1-1.5c-1.6-0.9-2.9-2-3.9-3.3c-1-1.3-1.5-2.6-1.6-3.8c-0.1-1.3,0.2-2.6,0.8-4.2
		l-3.7-1.7c-1,1.9-1.5,3.9-1.4,6c0.1,2.1,0.8,4,2.1,5.7c1.3,1.7,3.2,3.4,5.8,4.8C535.7,860.1,537.7,860.8,539.7,861z"/>
	<polygon points="584,844.3 579.8,857 563.7,851.7 567.9,839 563.8,837.6 553.5,868.6 557.6,869.9 562.5,855.4 578.6,860.7 
		573.7,875.3 577.8,876.7 588.1,845.7 	"/>
	<polygon points="626.7,853.3 626.9,849.5 601.1,848.1 600.9,852 611.6,852.5 610.1,881.3 614.4,881.5 615.9,852.8 	"/>
	<path d="M638.3,879.4c2.6,1.1,5.4,1.5,8.5,1c2.8-0.4,5.3-1.4,7.6-3.1c2.2-1.7,3.8-3.9,4.8-6.7c0.9-2.8,1.2-5.8,0.7-9.1
		c-0.5-3.2-1.5-6-3.1-8.4c-1.6-2.4-3.7-4.1-6.3-5.2c-2.6-1.1-5.4-1.4-8.4-1c-4.6,0.7-8,2.7-10.5,6.1c-2.4,3.4-3.3,7.8-2.5,13.2
		c0.4,2.8,1.4,5.4,3,7.8C633.6,876.5,635.7,878.2,638.3,879.4z M635.2,854.9c1.9-2.4,4.3-3.8,7.4-4.2c2.1-0.3,4.1,0,6,0.8
		c1.9,0.8,3.4,2.2,4.5,4c1.2,1.8,1.9,4.1,2.3,6.7c0.6,4.2,0,7.5-1.7,10.1c-1.8,2.6-4.2,4.1-7.5,4.5c-3.2,0.5-5.9-0.3-8.4-2.2
		c-2.4-1.9-3.9-4.9-4.5-8.7C632.7,860.9,633.3,857.3,635.2,854.9z"/>
	<polygon points="692,831.2 668.4,841.8 670,845.3 679.8,840.9 691.5,867.2 695.5,865.4 683.7,839.1 693.6,834.7 	"/>
	<polygon points="713.2,816.6 693.8,830 712.5,856.8 732.5,842.9 730.3,839.7 713.8,851.2 707.5,842.1 722.3,831.8 720.1,828.6 
		705.3,838.9 699.6,830.7 715.4,819.7 	"/>
	<path d="M748.9,828c1.6-1.7,2.8-3.5,3.5-5.4c0.7-1.9,0.8-3.8,0.4-5.6c-0.4-1.8-1.2-3.3-2.5-4.5c-1.3-1.2-2.7-2-4.3-2.3
		c-1.6-0.3-3.4-0.1-5.3,0.7c-1.3,0.5-3.5,1.8-6.5,3.7c-3,2-5.1,3-6.2,3c-1.1,0.1-2.1-0.3-3-1.1c-1-0.9-1.4-2.2-1.2-3.7
		c0.1-1.5,1.1-3.2,3-5.1c1.8-1.8,3.5-2.8,5.1-3c1.7-0.2,3.3,0.4,4.9,1.6l2.7-3.2c-1.4-1.3-3-2.1-4.8-2.4c-1.8-0.3-3.6-0.1-5.4,0.7
		s-3.6,2-5.3,3.8c-1.5,1.6-2.7,3.3-3.4,5.1c-0.7,1.8-0.9,3.5-0.5,5.2c0.4,1.7,1.2,3.1,2.3,4.2c1.1,1,2.3,1.7,3.7,2
		c1.4,0.3,2.9,0.2,4.6-0.4c1.3-0.4,3.2-1.5,5.8-3.1c2.6-1.6,4.3-2.7,5.2-3c1.3-0.6,2.5-0.9,3.4-0.8c1,0.1,1.8,0.5,2.5,1.2
		c0.7,0.7,1.2,1.6,1.4,2.6c0.2,1,0,2.2-0.5,3.4c-0.5,1.2-1.4,2.5-2.5,3.6c-1.3,1.3-2.7,2.3-4.2,2.9c-1.5,0.6-2.9,0.8-4.1,0.6
		c-1.2-0.2-2.5-0.8-3.8-1.8l-2.6,3.2c1.6,1.5,3.4,2.4,5.4,2.8c2,0.4,4,0.2,6.1-0.7C744.8,831.6,746.8,830.1,748.9,828z"/>
	<polygon points="751.7,776 748.5,773.8 734.2,795.4 737.4,797.5 743.3,788.6 767.3,804.5 769.7,800.9 745.7,785 	"/>
	<polygon points="486.8,1022.8 504.8,1022.8 504.8,1054.4 521.3,1054.4 521.3,976.2 504.8,976.2 504.8,1003.6 486.8,1003.6 
		486.8,976.2 470.4,976.2 470.4,1054.4 486.8,1054.4 	"/>
	<polygon points="548.6,1021.3 574.1,1021.3 574.1,1005.3 548.6,1005.3 548.6,992.9 576.1,992.9 576.1,976.2 532.1,976.2 
		532.1,1054.4 576.9,1054.4 576.9,1036.7 548.6,1036.7 	"/>
	<rect x="586.4" y="976.2" width="16.5" height="78.2"/>
	<polygon points="644.4,1023.8 636,976.2 614.4,976.2 614.4,1054.4 627.9,1054.4 627.9,994.8 638.2,1054.4 650.4,1054.4 
		660.8,994.8 660.8,1054.4 674.2,1054.4 674.2,976.2 652.6,976.2 	"/>
	<path d="M699.3,976.2l-20,78.2h16.8l2.6-12.9h18.6l2.7,12.9h17.2l-20-78.2H699.3z M702.3,1024.6l5.8-28.1l5.9,28.1H702.3z"/>
	<polygon points="742.5,976.2 742.5,1054.4 757.9,1054.4 757.9,1011.5 777.8,1054.4 793.3,1054.4 793.3,976.2 777.8,976.2 
		777.8,1019.5 757.8,976.2 	"/>
</g>
</svg>
