<?xml version="1.0" encoding="UTF-8"?>
<svg width="1324px" height="1500px" viewBox="0 0 1324 1500" version="1.1" xmlns="http://www.w3.org/2000/svg" xmlns:xlink="http://www.w3.org/1999/xlink">
    <!-- Generator: Sketch 52.5 (67469) - http://www.bohemiancoding.com/sketch -->
    <title>expanded-sensor_HS3WL-Z</title>
    <desc>Created with Sketch.</desc>
    <g id="expanded-sensor_HS3WL-Z" stroke="none" stroke-width="1" fill="none" fill-rule="evenodd">
        <g id="logo" transform="translate(205.000000, 712.000000)" fill="#000000">
            <polygon id="Path" points="0 0 9.9702693 0 9.9702693 16.8021615 20.8676738 16.8021615 20.8676738 0 30.8807339 0 30.8807339 48 20.8676738 48 20.8676738 28.5896127 9.9702693 28.5896127 9.9702693 48 0 48"></polygon>
            <polygon id="Path" points="38.146789 0 64.9086947 0 64.9086947 10.2455719 48.148569 10.2455719 48.148569 17.868508 63.6941928 17.868508 63.6941928 27.6673672 48.148569 27.6673672 48.148569 37.1347944 65.3944954 37.1347944 65.3944954 48 38.146789 48"></polygon>
            <polygon id="Path" points="70.8440367 0 80.8348624 0 80.8348624 48 70.8440367 48"></polygon>
            <polygon id="Path" points="88.1009174 0 101.547759 0 106.7275 29.2092465 111.892608 0 125.33945 0 125.33945 48 116.969925 48 116.969925 11.3983789 110.517197 48 102.937802 48 96.4997062 11.3983789 96.4997062 48 88.1301815 48 88.1301815 0"></polygon>
            <path d="M151.333739,40.0744521 L139.914705,40.0744521 L138.332722,48 L128.06422,48 L140.303009,0 L151.261831,0 L163.486239,48 L152.958866,48 L151.333739,40.0744521 Z M149.248399,29.6991894 L145.652985,12.4503152 L142.100716,29.6991894 L149.248399,29.6991894 Z" id="Shape" fill-rule="nonzero"></path>
            <polygon id="Path" points="167.119266 0 176.437713 0 188.595932 26.5577905 188.595932 0 198 0 198 48 188.595932 48 176.509064 21.6439508 176.509064 48 167.133536 48 167.133536 0"></polygon>
        </g>
        <path d="M327.965736,1425.11055 L327.965736,1518 L291.96964,1518 L291.96964,1425.71677 C136.199318,1418.91495 12,1290.4632 12,1133 L12,367 C12,205.180568 143.166344,74 304.96823,74 C466.770116,74 597.93646,205.180568 597.93646,367 L597.93646,1133 C597.93646,1287.07899 479.018368,1413.38017 327.965736,1425.11055 Z M317.966945,1425.71676 C313.65755,1425.90493 309.323991,1426 304.96823,1426 C303.967158,1426 302.967258,1425.99498 301.968555,1425.98496 L301.968555,1508 L317.966821,1508 L317.966821,1425.71677 Z M1014.89125,1042.52569 L1014.89125,1511 L978.895149,1511 L978.895149,1042.52569 L959.631342,1042.52569 C868.903851,1042.52569 799.801445,1018.6675 752.324122,970.951115 C708.245333,926.650378 685.511322,860.151925 684.122088,771.455754 L684.163252,771.455754 L684.16327,751.455754 L684.054274,751.453666 L684.054274,749.981587 C682.005424,650.759961 704.719661,577.290957 752.196984,529.574574 C799.674306,481.858191 868.776713,458 959.504203,458 L998.655238,458 L1035.42293,458 C1126.15042,458 1195.25283,481.858191 1242.73015,529.574574 C1290.20747,577.290957 1312.92171,650.759961 1310.87286,749.981587 L1310.87286,750.544102 C1312.92171,849.765728 1290.20747,923.234732 1242.73015,970.951115 C1195.25283,1018.6675 1126.15042,1042.52569 1035.42293,1042.52569 L1014.89125,1042.52569 Z M1004.89233,1042.52569 L988.894064,1042.52569 L988.894064,1501 L1004.89233,1501 L1004.89233,1042.52569 Z M304.96823,94 C154.210842,94 31.9978314,216.226263 31.9978314,367 L31.9978314,1133 C31.9978314,1283.77374 154.210842,1406 304.96823,1406 C455.725619,1406 577.938629,1283.77374 577.938629,1133 L577.938629,367 C577.938629,216.226263 455.725619,94 304.96823,94 Z M551.941448,365.70979 C551.941448,298.842299 525.516593,236.184857 479.306857,189.840455 C433.099798,143.498737 370.631794,117 303.968339,117 C237.304883,117 174.83688,143.498737 128.62982,189.840455 C82.4200839,236.184857 55.9952291,298.842299 55.9952291,365.70979 L55.9952291,1131.29021 C55.9952291,1198.1577 82.4200839,1260.81514 128.62982,1307.15954 C174.83688,1353.50126 237.304883,1380 303.968339,1380 C370.631794,1380 433.099798,1353.50126 479.306857,1307.15954 C525.516593,1260.81514 551.941448,1198.1577 551.941448,1131.29021 L551.941448,365.70979 Z M561.940364,365.70979 L561.940364,1131.29021 C561.940364,1200.83114 534.448082,1266.01961 486.387055,1314.2207 C438.323352,1362.42447 373.316929,1390 303.968339,1390 C234.619749,1390 169.613325,1362.42447 121.549622,1314.2207 C73.4885948,1266.01961 45.9963134,1200.83114 45.9963134,1131.29021 L45.9963134,365.70979 C45.9963134,296.168864 73.4885948,230.980387 121.549622,182.779299 C169.613325,134.575527 234.619749,107 303.968339,107 C373.316929,107 438.323352,134.575527 486.387055,182.779299 C534.448082,230.980387 561.940364,296.168864 561.940364,365.70979 Z M704.547763,731.455773 L704.157435,751.83872 C702.361441,845.625571 723.468715,913.596389 766.499426,956.84377 C809.87044,1000.43317 873.858793,1022.52569 959.631342,1022.52569 L1035.42293,1022.52569 C1121.19548,1022.52569 1185.18383,1000.43317 1228.55485,956.84377 C1271.72041,913.460857 1292.82528,845.197334 1290.87929,750.957043 L1290.87503,750.750595 L1290.87503,749.775094 L1290.87929,749.568646 C1292.82528,655.328355 1271.72041,587.064832 1228.55485,543.681919 C1185.18383,500.092521 1121.19548,478 1035.42293,478 L959.504203,478 C873.731655,478 809.743302,500.092521 766.372288,543.681919 C726.022774,584.234602 704.949439,646.527449 703.961024,731.455772 L704.547763,731.455773 Z" id="Combined-Shape" fill="#000000" fill-rule="nonzero"></path>
        <ellipse id="Oval" fill="#000000" cx="310" cy="1274.5" rx="14" ry="13.5"></ellipse>
    </g>
</svg>