<?xml version="1.0" encoding="utf-8"?>
<!-- Generator: Adobe Illustrator 21.0.0, SVG Export Plug-In . SVG Version: 6.00 Build 0)  -->
<svg version="1.1" id="Layer_1" xmlns="http://www.w3.org/2000/svg" xmlns:xlink="http://www.w3.org/1999/xlink" x="0px" y="0px"
	 viewBox="0 0 1417.3 1417.3" style="enable-background:new 0 0 1417.3 1417.3;" xml:space="preserve">
<g>
	<path d="M1371.9,390.1c-25.1-102.8-67.9-181.2-130.7-239.6C1120.4,38.3,941.3,15.3,709.5,15.3c-231.8,0-410.9,23-531.7,135.2
		C115,208.9,72.2,287.2,47.1,390.1c-20.5,83.8-30,185.4-30,319.8c0,134.3,9.5,235.9,30,319.8c25.1,102.8,67.9,181.2,130.7,239.6
		c120.7,112.2,299.9,135.2,531.7,135.2c231.8,0,410.9-23,531.7-135.2c62.8-58.4,105.6-136.7,130.7-239.6
		c20.5-83.8,30-185.4,30-319.8C1401.9,575.5,1392.3,473.9,1371.9,390.1z M1351.2,1024.5c-24.1,98.6-64.8,173.6-124.5,229
		C1111,1361,936.3,1383,709.5,1383c-226.8,0-401.5-22-517.2-129.5c-59.7-55.5-100.4-130.4-124.5-229
		c-20.1-82.1-29.4-182.1-29.4-314.7s9.3-232.6,29.4-314.7c24.1-98.6,64.8-173.6,124.5-229C307.9,58.7,482.7,36.6,709.5,36.6
		c226.8,0,401.5,22,517.2,129.5c59.7,55.5,100.4,130.4,124.5,229c20.1,82.1,29.4,182.1,29.4,314.7
		C1380.6,842.4,1371.2,942.4,1351.2,1024.5z"/>
	<path d="M1337.4,398.5c-23.4-95.9-62.8-168.5-120.4-222C1104.7,72.2,932.9,50.8,709.5,50.8C486,50.8,314.2,72.2,202,176.5
		c-57.6,53.5-97,126.1-120.4,222c-19.8,81-29,179.9-29,311.3c0,131.4,9.2,230.3,29,311.3c23.4,95.9,62.8,168.5,120.4,222
		c112.3,104.3,284.1,125.7,507.5,125.7c223.4,0,395.2-21.4,507.5-125.7c57.6-53.5,97-126.1,120.4-222c19.8-81,29-179.9,29-311.3
		C1366.4,578.4,1357.2,479.5,1337.4,398.5z M1327,1018.6c-22.9,93.8-61.3,164.7-117.3,216.7c-109.7,101.9-279.3,122.8-500.3,122.8
		c-220.9,0-390.6-20.9-500.3-122.8c-56-52-94.4-122.9-117.3-216.7c-19.6-80.2-28.7-178.3-28.7-308.8S72.3,481.2,91.9,401
		c22.9-93.8,61.3-164.7,117.3-216.7C318.9,82.4,488.5,61.5,709.5,61.5c220.9,0,390.5,20.9,500.3,122.8c56,52,94.4,122.9,117.3,216.7
		c19.6,80.2,28.7,178.3,28.7,308.8S1346.6,938.5,1327,1018.6z"/>
	<path d="M1131.6,268.4c-70.4-65.4-192.7-92.1-422.1-92.1c-229.4,0-351.7,26.7-422.1,92.1C210.7,339.6,178,471.6,178,709.8
		c0,238.2,32.7,370.2,109.3,441.4c70.4,65.4,192.7,92.1,422.1,92.1c229.4,0,351.7-26.7,422.1-92.1
		c76.6-71.2,109.3-203.2,109.3-441.4C1240.9,471.6,1208.2,339.6,1131.6,268.4z M1117.1,1135.6c-66.1,61.4-184.2,86.4-407.6,86.4
		c-223.5,0-341.6-25-407.6-86.4c-71.9-66.8-102.5-194.1-102.5-425.8S230,350.8,301.8,284c66.1-61.4,184.2-86.4,407.6-86.4
		c223.5,0,341.5,25,407.6,86.4c71.9,66.8,102.5,194.1,102.5,425.8C1219.6,941.5,1189,1068.9,1117.1,1135.6z"/>
	<circle cx="709.5" cy="1271.4" r="14.1"/>
	<polygon points="616.8,146.4 628.3,146.4 628.3,166.7 638.8,166.7 638.8,116.7 628.3,116.7 628.3,134.2 616.8,134.2 616.8,116.7 
		606.3,116.7 606.3,166.7 616.8,166.7 	"/>
	<polygon points="674.4,155.3 656.3,155.3 656.3,145.5 672.6,145.5 672.6,135.3 656.3,135.3 656.3,127.4 673.9,127.4 673.9,116.7 
		645.7,116.7 645.7,166.7 674.4,166.7 	"/>
	<rect x="680.4" y="116.7" width="10.5" height="50"/>
	<polygon points="706.9,128.5 713.5,166.7 721.3,166.7 727.9,128.5 727.9,166.7 736.5,166.7 736.5,116.7 722.8,116.7 717.5,147.1 
		712.1,116.7 698.4,116.7 698.4,166.7 706.9,166.7 	"/>
	<path d="M752.2,158.4h11.9l1.7,8.3h11l-12.8-50h-11.4l-12.8,50h10.7L752.2,158.4z M758.2,129.6l3.7,18h-7.5L758.2,129.6z"/>
	<polygon points="790,139.2 802.8,166.7 812.6,166.7 812.6,116.7 802.8,116.7 802.8,144.3 790,116.7 780.2,116.7 780.2,166.7 
		790,166.7 	"/>
</g>
</svg>
