<?xml version="1.0" encoding="utf-8"?>
<!-- Generator: Adobe Illustrator 21.0.0, SVG Export Plug-In . SVG Version: 6.00 Build 0)  -->
<svg version="1.1" id="Layer_1" xmlns="http://www.w3.org/2000/svg" xmlns:xlink="http://www.w3.org/1999/xlink" x="0px" y="0px"
	 viewBox="0 0 1417.3 1417.3" style="enable-background:new 0 0 1417.3 1417.3;" xml:space="preserve">
<g>
	<path d="M709.3,839.3c-76.5,0-118,17.7-118,111.2c0,93.5,41.5,111.2,118,111.2c76.5,0,118-17.7,118-111.2
		C827.3,857.1,785.9,839.3,709.3,839.3z M709.3,1052.1c-73.3,0-108.2-15.2-108.2-101.5c0-86.3,34.9-101.5,108.2-101.5
		s108.2,15.2,108.2,101.5C817.6,1036.9,782.7,1052.1,709.3,1052.1z"/>
	<path d="M709.3,863.1c-60.1,0-92.7,13.9-92.7,87.5s32.6,87.5,92.7,87.5c60.1,0,92.7-13.9,92.7-87.5S769.5,863.1,709.3,863.1z
		 M709.3,1028.3c-56.2,0-83-11.6-83-77.7c0-52.7,12.4-77.7,83-77.7c56.2,0,83,11.6,83,77.7C792.3,1003.2,779.9,1028.3,709.3,1028.3z
		"/>
	<path d="M247,200.8c77.8,14.8,229,22,462.3,22s384.5-7.2,462.3-22c68.6-13.1,74.4-31.1,74.5-50l0-1.4c0-16.7-17.3-27.6-24.7-31.6
		c-42.4-22.5-139-48-512.1-45.9C336.2,70,239.6,95.5,197.2,117.9c-7.4,3.9-24.7,14.9-24.7,31.6l0,1.4
		C172.7,169.8,178.4,187.8,247,200.8z M201.6,126.2C239.8,106,334,79.3,709.3,81.4l0-4.7l0,4.7c375.3-2.1,469.5,24.6,507.7,44.8
		c4.6,2.4,19.7,11.3,19.7,23.2l0,1.4c-0.2,24.9-0.4,62.6-527.4,62.6c-527,0-527.3-37.7-527.4-62.6l0-1.4
		C181.9,137.6,197,128.7,201.6,126.2z"/>
	<path d="M552.7,194.4c41.9,5.8,97.5,9,156.6,9c59.1,0,114.7-3.2,156.6-9c61-8.4,68.8-18.5,68.8-26.4c0-7.9-7.8-18-68.8-26.4
		c-41.9-5.8-97.5-9-156.6-9s-114.7,3.2-156.6,9c-61,8.4-68.8,18.5-68.8,26.4C483.9,175.8,491.8,185.9,552.7,194.4z M622.5,187.3
		c12.7-3.1,43.6-6.3,86.8-6.3c43.3,0,74.2,3.2,86.8,6.3c-12.7,3.1-43.6,6.3-86.8,6.3C666.1,193.6,635.2,190.4,622.5,187.3z
		 M709.3,142.4c137.8,0,212.2,16.4,215.7,25.6c-2.5,6.7-41.6,17-114.6,22.3c0.5-0.9,0.6-1.9,0.6-2.9c0-5.7-5.3-9.6-32.7-12.7
		c-18.5-2.1-43-3.3-69-3.3s-50.5,1.2-69,3.3c-27.3,3.1-32.7,7.1-32.7,12.7c0,1,0.2,2,0.6,2.9c-73.4-5.3-112.6-15.7-114.6-22.1
		C496.5,158.9,571,142.4,709.3,142.4z"/>
	<path d="M1369.4,1097.6l-100.7-133.7l6-334.9c0-16.3-14.4-28.4-21.1-33.2l0.1-5.1l-1.5,0l0,0h1.5V448.1c1.5-0.9,2.9-1.8,4.2-2.8
		c17.4-12.6,20.1-25.9,20.6-34.8l0.2,0l4.3-237.2l0.4-12.6c0.4-14-3.3-27.3-10.9-38.5c-28.8-42.7-91-77.8-563.2-74.8
		c-472.2-3-534.4,32.1-563.2,74.8c-7.5,11.2-11.3,24.5-10.9,38.5l0.4,12.5l4.3,237.3l0.2,0c0.5,9,3.3,22.3,20.6,34.8
		c1.3,0.9,2.7,1.9,4.2,2.8v142.6h1.5l0,0l-1.5,0l0.1,5.1c-6.7,4.8-21.1,16.9-21.1,33.3l6,334.7L49.1,1097.8
		c-8,11.4-34.3,49.8-34.3,66.2v42.8c0,25.8,0,73.7,97.4,108.8c102.9,37.1,293.1,55.2,581.4,55.2h31.5c288.3,0,478.5-18,581.4-55.2
		c97.4-35.1,97.4-83.1,97.4-108.8v-42.8C1403.8,1147.6,1377.6,1109.2,1369.4,1097.6z M1248,1036.6c0,8.2,0.1,16-8.7,24.8
		c-39.6,39.7-212.6,59.9-514.1,59.9h-31.5c-301.6,0-474.5-20.2-514.1-59.9c-8.8-8.8-8.7-16.6-8.7-24.8l0-1.6l-6.3-348.7
		c34.9,28.6,152.1,59.3,545.5,59.3h0.7c390.7,0,508.3-30.4,543.7-58.9l-6.3,348.5L1248,1036.6z M162.3,133.2
		c23.7-35.1,85.4-69.1,547-66.2l0.1-9.7l0.1,9.7c461.5-2.9,523.3,31.1,547,66.2c5.2,7.8,7.9,17.1,7.5,27l-0.2,8.1
		c-6.1,12.7-22.1,25-64.3,35.9c-80.7,20.9-240.9,31-490,31s-409.4-10.1-490-31c-42.2-10.9-58.2-23.2-64.3-35.9l-0.2-8.1
		C154.5,150.3,157.1,140.9,162.3,133.2z M159.6,405.6l-1-48.3l-0.1,0l-3.1-172.2c10.5,10.3,29,20.1,61.5,28.6
		c81.5,21.1,242.6,31.3,492.5,31.3s411-10.2,492.5-31.3c32.5-8.4,51-18.3,61.5-28.6l-3.1,172.2l-0.1,0l-1,48.5
		c0,7.2,0,14.6-12.6,23.7c-49.3,35.7-230,53.7-537.2,53.7c-307.1,0-487.9-18.1-537.2-53.7C159.6,420.4,159.6,413,159.6,405.6z
		 M165.6,622.7l0.3,16.3c0,13.7,0,36.6,70.1,55.5c82.1,22.1,241.3,33.3,473.3,33.3c232,0,391.3-11.2,473.3-33.3
		c70.1-18.9,70.1-41.8,70.1-55.4l0.3-16.4c1.3,2.1,2.2,4.2,2.2,6.2l-0.8,43.1c-19.4,26.8-111.1,63.9-543.9,64h-0.7
		c-437.3-0.1-527.2-37.8-545.7-64.6l-0.8-42.3C163.4,627,164.3,624.8,165.6,622.7z M151.3,1035.2l0,1.3c0,9.6-0.1,24.1,14.4,38.6
		c19.9,19.9,63.4,34.8,133.2,45.4c88.3,13.4,221.1,20.2,394.7,20.2h31.5c173.6,0,306.4-6.8,394.7-20.2
		c69.8-10.6,113.4-25.5,133.2-45.4c14.5-14.5,14.4-29,14.4-38.6l0-1.1l0.7-39.9l5.4,7.1l-0.9,50.4c0,13.4,0,35.9-66.8,55.6
		c-83.1,24.5-244.8,37-480.6,37h-31.8c-235.8,0-397.5-12.4-480.6-37c-66.8-19.7-66.8-42.2-66.8-55.7l-0.9-50.3l5.4-7.1L151.3,1035.2
		z M64.9,1109.3l70.8-94l0.7,37.7c0,20.9,5.7,44.9,73.8,65c84,24.8,246.6,37.4,483.3,37.4h31.8c236.8,0,399.4-12.6,483.3-37.4
		c68.1-20.1,73.8-44.1,73.8-64.9l0.7-37.8l70.6,93.7c9.8,13.9,20,30.4,25.9,42.1c0,2.4,0,4.5,0,4.8c-0.3,30.1-7.5,64.7-89.9,93.9
		c-99.3,35.2-289.3,53.1-564.6,53.1h-31.3c-275.3,0-465.3-17.8-564.6-53.1c-82.4-29.2-89.6-63.8-89.9-93.9c0-0.3,0-2.4,0-4.8
		C45,1139.5,55.2,1123,64.9,1109.3z M1383,1191.3c-4.1,22.7-20.4,51-85.7,74.7c-99.2,36-291.7,54.3-572.3,54.3h-31.3
		c-280.6,0-473.1-18.3-572.3-54.3c-65.4-23.8-81.7-52.1-85.7-74.7c9.7,24.1,33.6,47.6,90.1,67.6c101.8,36.1,287.5,53.6,567.9,53.6
		H725c280.3,0,466.1-17.5,567.9-53.6C1349.4,1238.9,1373.3,1215.4,1383,1191.3z M725.1,1351.3h-31.5c-615.1,0-656.3-85-659-134.4
		c11.2,20.3,34.7,40.5,83.6,58.3c101.6,36.9,289.9,54.9,575.6,54.9H725c285.7,0,474-18,575.6-54.9c48.9-17.8,72.4-37.9,83.6-58.3
		C1381.4,1266.4,1340.2,1351.3,725.1,1351.3z"/>
</g>
</svg>
