<?xml version="1.0" encoding="UTF-8"?>
<svg width="1276px" height="1500px" viewBox="0 0 1276 1500" version="1.1" xmlns="http://www.w3.org/2000/svg" xmlns:xlink="http://www.w3.org/1999/xlink">
    <!-- Generator: Sketch 52.5 (67469) - http://www.bohemiancoding.com/sketch -->
    <title>Expanded</title>
    <desc>Created with Sketch.</desc>
    <g id="Expanded" stroke="none" stroke-width="1" fill="none" fill-rule="evenodd">
        <path d="M1247.52263,743.949234 C1247.30342,566.692139 1240.31005,443.78832 1224.02305,350.252721 C1206.93701,252.128319 1179.11843,184.807215 1136.40175,138.093535 C1094.83219,92.6342972 1037.50229,64.719375 954.669726,48.4122125 C881.462341,33.9999496 791.47561,28.3430222 641.404395,26.6395868 L638.499811,26.6066173 L635.595181,26.6395873 C485.523983,28.3430225 395.537247,33.9999498 322.329789,48.412215 C239.497136,64.7193808 182.167056,92.6343131 140.597152,138.093578 C97.8801391,184.807279 70.0610557,252.128405 52.9742532,350.252848 C36.6865254,443.788443 29.6921774,566.692247 29.4715309,743.936328 C29.471582,745.593845 29.471582,745.593845 29.4715923,747.253841 C29.4715923,748.169612 29.4717657,749.083696 29.4721127,750.00389 C29.4717657,750.9163 29.4715923,751.830387 29.4715923,752.746159 L29.4715923,752.758575 C29.4715922,754.395388 29.4724801,755.118354 29.4769962,756.050766 C29.6962022,933.307862 36.6895702,1056.21168 52.9765761,1149.74728 C70.0626133,1247.87168 97.8811919,1315.19279 140.597868,1361.90647 C182.167436,1407.3657 239.49733,1435.28063 322.329896,1451.58779 C395.537281,1466.00005 485.524011,1471.65698 635.595227,1473.36041 L638.499811,1473.39338 L641.40444,1473.36041 C791.475639,1471.65698 881.462374,1466.00005 954.669832,1451.58779 C1037.50249,1435.28062 1094.83257,1407.36569 1136.40247,1361.90642 C1179.11948,1315.19272 1206.93857,1247.8716 1224.02537,1149.74715 C1240.3131,1056.21156 1247.30744,933.307753 1247.52809,756.063672 C1247.52804,754.406155 1247.52804,754.406155 1247.52803,752.746159 C1247.52803,751.83039 1247.52786,750.916303 1247.52751,749.996102 C1247.52773,749.418818 1247.52788,748.840863 1247.52796,748.262235 L1247.52263,743.949234 Z M1268,733.931133 L1267.99963,743.937086 C1267.99958,745.594224 1267.99958,745.594224 1267.99957,747.253841 C1267.99957,748.172201 1267.99939,749.088878 1267.99905,749.996102 C1267.99939,750.911119 1267.99957,751.827799 1267.99957,752.746159 C1267.99958,754.405776 1267.99958,754.405776 1267.99962,756.076026 C1267.77763,934.40613 1260.72603,1058.31603 1244.19362,1153.25677 C1226.49377,1254.90174 1197.23008,1325.71877 1151.51218,1375.71412 C1106.6602,1424.76254 1045.42594,1454.57848 958.625416,1471.66679 C885.52117,1486.05874 796.978269,1491.84518 651.749481,1493.70182 L651.749276,1493.99992 L641.411916,1493.89018 C640.43711,1493.87983 639.466445,1493.86936 638.499811,1493.85876 C637.533176,1493.86936 636.562511,1493.87983 635.587705,1493.89018 L625.243241,1494 L625.243241,1493.70173 C480.018558,1491.845 391.477319,1486.05851 318.374308,1471.6668 C231.573848,1454.57848 170.339758,1424.76253 125.488106,1375.71411 C79.770537,1325.71874 50.5073603,1254.9017 32.8083027,1153.25675 C16.276622,1058.31599 9.22600583,934.406076 9.00558886,756.113719 C9.00096866,755.174233 9.00005334,754.42894 9.00005346,752.758574 L9.00005346,752.746159 C9.00005346,751.827796 9.00022735,750.911116 9.00057535,750.00389 C9.00022735,749.088879 9.00005346,748.172202 9.00005346,747.253841 C9.00004323,745.594224 9.00004323,745.594224 9,743.923974 C9.22198997,565.59387 16.273594,441.683971 32.8060061,346.743227 C50.5058514,245.09826 79.7695453,174.281232 125.487441,124.28588 C170.339421,75.2374615 231.573678,45.4215232 318.374205,28.3332067 C391.478451,13.9412608 480.021353,8.15482036 625.25014,6.2981802 L625.250345,6.00007542 L635.587705,6.10981864 C636.562511,6.12016734 637.533176,6.13063975 638.499811,6.14123798 C639.466445,6.13063975 640.43711,6.12016734 641.411916,6.10981864 L651.75638,6 L651.75638,6.29826847 C796.981064,8.15500449 885.522302,13.9414899 958.625313,28.3332049 C1045.42577,45.4215228 1106.65986,75.2374658 1151.51152,124.285893 C1197.22908,174.281259 1226.49226,245.098298 1244.19132,346.743251 C1260.41242,439.90036 1267.50535,560.948372 1267.97447,733.930561 L1268,733.931133 Z" id="Path" fill="#060104" fill-rule="nonzero"></path>
        <path d="M1228.99992,746.174655 L1228.99992,746.201325 L1228.99992,746.241012 L1229,755.028707 C1228.78741,925.879553 1223.07237,1041.26363 1209.11185,1130.55271 C1193.96003,1227.46115 1168.53815,1294.68029 1128.40572,1342.08033 C1087.67386,1390.18835 1030.61218,1418.6253 947.403901,1434.40982 C877.220017,1447.72363 795.953385,1452.24263 641.173387,1454 C483.458775,1452.24454 401.043598,1447.72397 330.207427,1434.39268 C246.487028,1418.63659 189.377734,1390.24885 148.59506,1342.08039 C108.462983,1294.68036 83.0416255,1227.46124 67.890579,1130.55285 C53.9307699,1041.2638 48.2166657,925.879776 48.005483,755.032652 C48.0009791,754.08276 48.0000798,753.375476 48.0000836,751.825345 L48.0000837,751.798675 L48.0000837,751.758988 L48,742.971293 C48.2125889,572.120447 53.9276264,456.736374 67.8881477,367.447287 C83.0399685,270.538854 108.46185,203.319714 148.594282,155.919667 C189.326139,107.811645 246.387817,79.3747028 329.596099,63.5901773 C399.779983,50.2763666 481.046615,45.7573749 635.826613,44 C793.541225,45.7554613 875.956402,50.276034 946.792573,63.6073241 C1030.51297,79.3634119 1087.62227,107.751149 1128.40494,155.919606 C1168.53702,203.319644 1193.95837,270.538762 1209.10942,367.447148 C1223.06918,456.735887 1228.78329,572.119417 1228.99453,742.969141 C1228.99902,743.918131 1228.99992,744.6255 1228.99992,746.174655 Z M1221.0331,743.00532 L1221.03303,742.980834 C1220.60512,396.814735 1195.70583,247.744968 1122.33623,161.088059 C1083.17161,114.830683 1028.02956,87.0203271 945.324244,71.4552763 C877.160821,58.6269945 798.234214,53.7931639 635.893736,51.9844167 C476.410839,53.795455 398.588635,58.6288654 331.075729,71.4359942 C248.843295,87.0354025 193.762551,114.907986 154.662966,161.088146 C81.2928694,247.744894 56.3922341,396.814137 55.9615053,742.972499 L55.9615899,751.75898 L55.9615898,751.798692 L55.9615898,751.825365 C55.9615858,753.436843 55.9626531,754.099501 55.9669723,755.019167 C56.394878,1101.18526 81.2941672,1250.25503 154.663766,1336.91194 C193.828389,1383.16932 248.970437,1410.97967 331.675756,1426.54472 C399.839179,1439.37301 478.765786,1444.20684 641.106264,1446.01558 C800.589161,1444.20454 878.411365,1439.37113 945.924271,1426.56401 C1028.1567,1410.9646 1083.23745,1383.09201 1122.33703,1336.91185 C1195.70713,1250.25511 1220.60777,1101.18586 1221.03849,755.027501 L1221.03841,746.24102 L1221.03841,746.201308 L1221.03841,746.174635 C1221.03841,744.564448 1221.03735,743.9019 1221.0331,743.00532 Z" id="Shape" fill="#000000" fill-rule="nonzero"></path>
        <path d="M1194.99992,746.674696 L1195,755.515296 C1194.78359,929.279022 1189.23992,1043.63743 1175.98947,1128.82787 C1162.11426,1218.03511 1139.16716,1277.87257 1102.19302,1321.58262 C1066.63477,1363.61883 1016.11623,1388.54397 940.086981,1402.97993 C873.83309,1415.5598 798.015179,1420.20063 640.170615,1421.99999 L640.055255,1422 C479.313885,1420.20249 402.394073,1415.55925 335.477602,1402.95404 C259.000234,1388.54782 208.423343,1363.68704 172.807848,1321.58279 C135.833247,1277.87182 112.886491,1218.03279 99.0121121,1128.82188 C85.7624836,1043.62804 80.22005,929.264323 80.0054877,755.506019 C80.0010826,754.531011 80.0000763,753.900754 80.0000802,752.325304 L80,743.484704 C80.2164096,569.720978 85.7600849,455.362575 99.0105288,370.172131 C112.885742,280.964888 135.832836,221.127428 172.806982,177.417377 C208.365229,135.381172 258.883773,110.456026 334.913019,96.0200707 C401.16691,83.4401983 476.984821,78.7993741 634.829385,77.0000125 L634.944745,77 C795.686115,78.7975134 872.605927,83.4407528 939.522398,96.0459602 C1015.99977,110.452176 1066.57666,135.312965 1102.19215,177.417211 C1139.16675,221.128177 1162.11351,280.967206 1175.98789,370.178125 C1189.2373,455.370586 1194.77977,569.73199 1194.99455,743.502387 C1194.99892,744.472626 1194.99992,745.103782 1194.99992,746.674696 Z M938.18094,1392.92639 C1012.0951,1378.89203 1060.53454,1354.99269 1094.38867,1314.97105 C1129.9807,1272.89492 1152.27561,1214.7581 1165.88592,1127.25401 C1179.03631,1042.70679 1184.55898,928.781763 1184.77478,755.508968 L1184.7747,746.674732 C1184.7747,745.113328 1184.77372,744.497058 1184.7694,743.540249 L1184.76935,743.523439 C1184.55534,570.232816 1179.0339,456.302456 1165.88431,371.751826 C1152.27482,284.244096 1129.98023,226.105749 1094.38778,184.028749 C1060.482,143.945709 1011.98903,120.109259 937.630911,106.102251 C871.47688,93.6406665 795.022914,89.0245312 634.888173,87.2328987 C477.653068,89.0262305 402.306749,93.6392185 336.81906,106.073609 C262.904901,120.107965 214.465458,144.007311 180.611326,184.028948 C145.019304,226.105081 122.72439,284.241899 109.114084,371.745988 C95.9636856,456.293214 90.4410189,570.218237 90.2252167,743.491032 L90.2253009,752.325268 C90.225297,753.886672 90.226281,754.502942 90.2306523,755.476562 C90.4446646,928.767185 95.9660962,1042.69754 109.115691,1127.24817 C122.725185,1214.7559 145.019773,1272.89425 180.61222,1314.97125 C214.518,1355.05429 263.010971,1378.89074 337.369089,1392.89775 C403.52312,1405.35933 479.977086,1409.97547 640.111827,1411.7671 C797.346932,1409.97377 872.693251,1405.36078 938.18094,1392.92639 Z" id="Shape" fill="#060104" fill-rule="nonzero"></path>
        <path d="M643.068252,382 C542.737883,382 448.277183,421.304371 377.022146,492.791765 C306.040116,564.00526 267,658.773989 267,759.705424 C267,860.636858 306.040116,955.405587 377.022146,1026.61908 C448.004175,1097.83258 542.464876,1137 643.068252,1137 C743.671628,1137 838.132329,1097.83258 909.114358,1026.61908 C928.224905,1007.44622 944.741877,986.903864 959.484298,963.896427 L959.484298,964.581172 L966.582501,952.666606 C966.992013,951.981861 967.265021,951.297116 967.811036,950.74932 L968.766564,948.558135 C969.039572,948.010339 969.449083,947.325594 969.585587,947.051696 L970.814122,944.723562 L972.315665,942.806276 L973.134689,940.752041 C973.271193,940.341194 973.5442,939.930346 973.817208,939.519499 C974.090216,938.971703 974.363224,938.560856 974.636232,938.150009 L976.410782,934.589334 L976.68379,934.315436 L977.093302,933.630691 L977.502814,933.630691 L977.775821,932.808997 C978.185333,931.713405 978.458341,931.02866 978.867853,930.343914 L979.686876,928.700526 C980.096388,927.604934 980.369396,926.920189 980.642403,926.372393 L981.734435,924.455106 L984.601017,917.881553 L985.283536,916.78596 L985.42004,916.375113 C985.829552,915.279521 986.102559,914.320878 986.375567,913.773082 L987.058087,912.67749 L987.194591,912.403592 C987.331095,911.855795 987.604102,911.444948 987.740606,911.034101 C987.87711,910.486305 988.150118,910.075458 988.286622,909.527662 L988.969141,907.747325 L990.061173,905.419191 L991.972227,900.899873 L992.381739,899.804281 L992.381739,899.393434 C992.518243,899.256485 992.518243,898.982587 992.654747,898.845638 C992.927755,898.160892 993.200762,897.476147 993.746778,896.791402 L994.292794,895.421912 C994.429298,894.874116 994.702305,894.463269 994.838809,894.052422 C994.975313,893.504625 995.248321,893.093778 995.384825,892.545982 L995.794337,891.45039 L995.794337,890.902594 C995.93084,890.491747 996.067344,890.0809 996.203848,889.670053 C996.340352,889.259206 996.476856,888.848358 996.749864,888.437511 L999.07043,882.548703 C999.206934,882.000907 999.343438,881.453111 999.479942,880.905315 C999.616446,880.494468 999.616446,880.22057 999.75295,879.946672 L1000.16246,879.535824 L1002.07352,873.09922 C1002.34652,872.551424 1002.48303,872.140577 1002.48303,871.72973 C1002.61953,871.455832 1002.61953,871.181934 1002.89254,870.771087 L1004.39408,865.840921 L1004.66709,864.60838 C1004.9401,864.060584 1005.48611,862.828043 1005.48611,861.321603 L1005.75912,860.36296 C1006.16863,859.267368 1006.44164,858.034827 1006.57814,856.939235 L1006.85115,855.980591 C1012.44781,835.301288 1016.13342,814.758933 1017.90797,792.984038 L1017.90797,792.71014 C1018.72699,781.754217 1019,770.798295 1019,759.979322 C1019,744.504081 1018.45398,733.137312 1017.08895,722.181389 L1017.08895,718.757664 L1016.67943,718.346817 C1016.67943,717.388173 1016.67943,716.42953 1016.26992,715.333938 L1016.26992,713.964448 L1016.26992,713.279703 C1015.99691,712.321059 1015.99691,711.362416 1015.99691,710.266824 L1015.5874,708.897334 L1015.5874,708.623436 C1015.5874,707.93869 1015.4509,707.390894 1015.4509,706.706149 C1015.31439,706.158353 1015.31439,705.747506 1015.31439,705.19971 L1014.90488,703.556321 L1014.49537,701.091239 L1014.49537,699.995647 L1014.49537,699.310902 C1014.35887,698.763105 1014.22236,698.352258 1014.22236,697.804462 C1014.08586,697.256666 1014.08586,696.70887 1013.81285,696.161074 L1013.81285,695.065482 C1007.26066,657.1306 994.975313,620.291311 977.093302,585.780156 L976.820294,585.095411 L976.547286,585.095411 C976.410782,584.821513 976.274278,584.410666 976.001271,584.136768 C975.728263,583.588972 975.455255,583.178124 975.318751,582.630328 L974.499728,580.98694 C974.363224,580.713042 974.090216,580.302195 973.953712,580.028297 C973.680704,579.61745 973.271193,579.069654 973.134689,578.384908 L972.315665,576.878469 L970.268107,573.728641 L970.131603,573.591692 C969.858595,573.043896 969.585587,572.633049 969.449083,572.222202 C969.176076,571.811355 968.903068,571.400508 968.766564,570.989661 L968.084044,569.894069 L968.084044,569.346272 L967.674533,568.935425 C967.128517,568.387629 966.719005,567.702884 966.445997,566.88119 L959.484298,554.966624 L959.484298,555.651369 C944.741877,532.643933 928.224905,512.101578 909.114358,492.928714 C837.859321,421.304371 743.39862,382 643.068252,382 Z M293.618261,642.614003 C300.57996,621.797751 309.179706,602.21404 319.007987,584.136768 L319.007987,715.196989 L277.237793,715.196989 C280.240879,690.135317 285.701035,665.62144 293.618261,642.614003 Z M319.007987,935.13713 C308.497186,915.41647 299.624433,894.874116 292.935742,874.194812 C284.882011,849.407038 279.421855,824.071467 276.828281,798.598948 L319.007987,798.598948 L319.007987,935.13713 Z M967.538029,935.13713 L967.538029,798.735897 L1009.30822,798.735897 C1004.39408,846.668057 990.33418,892.545982 967.538029,935.13713 Z M967.538029,584.273717 C989.788165,625.358426 1003.71156,669.319064 1009.03522,715.196989 L967.538029,715.196989 L967.538029,584.273717 Z M959.620802,570.304916 L959.620802,723.140033 L1009.99074,723.140033 C1011.21928,737.108834 1011.76529,748.475603 1011.76529,759.705424 C1011.76529,770.387448 1010.94627,781.754217 1010.40025,791.066751 L959.757306,791.066751 L959.757306,949.105931 C943.649846,975.674043 924.812307,999.914021 903.92721,1020.86722 C834.446724,1090.84818 741.897078,1129.4678 643.204756,1129.4678 C544.921946,1129.4678 452.3723,1090.84818 382.482302,1020.86722 C361.051189,999.366225 342.21365,975.126247 326.652205,949.105931 L326.652205,791.066751 L276.009258,791.066751 C275.326738,781.754217 274.644219,770.250499 274.644219,759.705424 C274.644219,748.338654 275.190234,737.108834 276.418769,723.140033 L326.788709,723.140033 L326.788709,569.894069 C342.350154,544.147651 361.051189,520.044622 382.618806,498.132777 C452.508804,428.288772 545.194954,389.943044 643.34126,389.943044 C741.897078,389.943044 834.446724,428.425721 904.063714,498.132777 C924.948811,519.770724 943.649846,544.010702 959.620802,570.304916 Z" id="Shape" fill="#000000" fill-rule="nonzero"></path>
        <circle id="Oval" fill="#000000" cx="831.5" cy="759.5" r="53.5"></circle>
        <circle id="Oval" fill="#000000" cx="452.5" cy="759.5" r="53.5"></circle>
        <path d="M643,339 C530.849715,339 425.321369,382.780611 345.998994,462.291848 C266.676619,541.803086 223,647.441463 223,760 C223,872.558537 266.676619,978.196914 345.998994,1057.70815 C425.321369,1137.21939 530.708823,1181 643,1181 C755.150285,1181 860.678631,1137.21939 940.001006,1057.70815 C1019.32338,978.196914 1063,872.558537 1063,760 C1063,647.441463 1019.32338,541.803086 940.001006,462.291848 C860.678631,382.780611 755.150285,339 643,339 Z M929.398708,1047.10767 C853.038184,1123.6576 751.458963,1165.88718 643.539846,1165.88718 C535.620729,1165.88718 434.041507,1123.6576 357.680983,1047.10767 C281.320459,970.557736 239.195373,868.726551 239.195373,760.539744 C239.195373,652.352937 281.179572,550.521752 357.680983,473.971818 C434.041507,397.421884 535.620729,355.192308 643.539846,355.192308 C751.458963,355.192308 853.038184,397.421884 929.398708,473.971818 C1005.75923,550.521752 1047.88432,652.352937 1047.88432,760.539744 C1047.88432,868.726551 1005.75923,970.557736 929.398708,1047.10767 Z" id="Shape" fill="#000000" fill-rule="nonzero"></path>
        <g id="logo" transform="translate(495.000000, 167.000000)" fill="#000000">
            <polygon id="Path" points="0 0 14.8807787 0 14.8807787 25.2032423 31.1453207 25.2032423 31.1453207 0 46.0899654 0 46.0899654 72 31.1453207 72 31.1453207 42.8844191 14.8807787 42.8844191 14.8807787 72 0 72"></polygon>
            <polygon id="Path" points="57.3564014 0 97.5948237 0 97.5948237 15.3683579 72.3947866 15.3683579 72.3947866 26.8027619 95.768734 26.8027619 95.768734 41.5010507 72.3947866 41.5010507 72.3947866 55.7021915 98.3252595 55.7021915 98.3252595 72 57.3564014 72"></polygon>
            <polygon id="Path" points="105.49481 0 120.858131 0 120.858131 72 105.49481 72"></polygon>
            <polygon id="Path" points="132.124567 0 152.096282 0 159.789413 43.8138697 167.460811 0 187.432526 0 187.432526 72 175.001818 72 175.001818 17.0975683 165.418003 72 154.160823 72 144.59874 17.0975683 144.59874 72 132.168031 72 132.168031 0"></polygon>
            <path d="M226.516783,60.1116782 L209.347455,60.1116782 L206.968833,72 L191.529412,72 L209.931299,0 L226.408664,0 L244.788927,72 L228.960277,72 L226.516783,60.1116782 Z M223.381327,44.5487841 L217.975367,18.6754728 L212.634279,44.5487841 L223.381327,44.5487841 Z" id="Shape" fill-rule="nonzero"></path>
            <polygon id="Path" points="249.910035 0 263.817959 0 281.964285 39.8366857 281.964285 0 296 0 296 72 281.964285 72 263.924451 32.4659261 263.924451 72 249.931333 72 249.931333 0"></polygon>
        </g>
    </g>
</svg>