<svg height="960" viewBox="0 0 960 960" width="960" xmlns="http://www.w3.org/2000/svg"><path d="m325.020047 7.51345738 466.419182 22.33444352c4.066473.1947227 7.976683 1.6258008 11.208163 4.1020196l39.288554 30.1060363c4.939081 3.7847193 7.835235 9.6526613 7.835235 15.8750901v793.7009001c0 8.038388-4.812552 15.295656-12.217373 18.423645l-32.156459 13.583724c-1.43941.608044-2.942652 1.044275-4.478588 1.30155l-.000341 16.99067c0 5.228989-4.028474 9.575135-9.242437 9.971263l-34.703451 2.63658c-.882221.067027-1.769435.016676-2.638407-.149735l-106.760403-20.444852c-.921645-.176497-1.793371-.476155-2.599446-.879942l-186.751148 9.571717.00062 19.739821c0 5.141632-3.899002 9.445327-9.015664 9.951437l-31.483697 3.114178c-.938291.09281-1.884994.052454-2.811984-.119869l-109.980156-20.444853c-4.73684-.880559-8.172352-5.013575-8.172352-9.831567l-.000767-.849147-106.040153-22.232929c-9.262495-1.942065-15.895847-10.110468-15.895847-19.57437v-834.5642574c0-9.7316242 7.004731-18.0506921 16.594216-19.7078826l129.240317-22.3344435c1.439927-.2488385 2.902788-.33911983 4.362386-.26922712zm113.202081 918.14810962-65.994 3.383 44.940767 8.354098 21.054-2.082zm342.695-17.565-53.631 2.749 29.502439 5.650245 24.129-1.834zm-446.854-860.104v842.955l446.419-22.881v-798.698zm-20 1.522-99.24 17.1500001v801.4829999l99.24 20.808zm486.419 33.169v781.609l9.289-3.924v-770.5669999z"/></svg>