<?xml version="1.0" encoding="UTF-8"?>
<svg width="960px" height="960px" viewBox="0 0 960 960" version="1.1" xmlns="http://www.w3.org/2000/svg" xmlns:xlink="http://www.w3.org/1999/xlink">
    <!-- Generator: Sketch 60.1 (88133) - https://sketch.com -->
    <title>no.tjweb.opengarage/icon</title>
    <desc>Created with Sketch.</desc>
    <g id="no.tjweb.opengarage/icon" stroke="none" stroke-width="1" fill="none" fill-rule="evenodd">
        <path d="M488.562385,284.639844 L489.453102,284.894449 L961.594456,425.026189 C962.65337,425.340475 963.25701,426.453674 962.942724,427.512587 C962.83865,427.863239 962.640409,428.178635 962.369566,428.424465 L935.420656,452.8846 C934.903007,453.354444 934.177601,453.519901 933.507416,453.32099 L886,439.22046 L886,674 C886,675.656854 884.656854,677 883,677 L805.598361,677 C803.941506,677 802.598361,675.656854 802.598361,674 L802.598361,453.044534 C802.598361,447.632171 798.318898,443.221293 792.965368,443.023594 L792.590164,443.016678 L167.077869,443.016678 C161.676117,443.016678 157.273886,447.304547 157.076575,452.668593 L157.069672,453.044534 L157.069672,674 C157.069672,675.656854 155.726526,677 154.069672,677 L75,677 C73.3431458,677 72,675.656854 72,674 L72,440.05146 L27.0455599,453.659723 C26.3515423,453.869801 25.5981801,453.68778 25.0766362,453.18401 L-0.550463447,428.430217 C-1.34493146,427.662823 -1.36687885,426.396683 -0.599484328,425.602215 C-0.362547488,425.356919 -0.0668205637,425.176286 0.259594308,425.077481 L463.135426,284.965684 C471.417271,282.458782 480.231344,282.349253 488.562385,284.639844 Z M777,647.92546 C778.656854,647.92546 780,649.268605 780,650.92546 L780,673.92546 C780,675.582314 778.656854,676.92546 777,676.92546 L184,676.92546 C182.343146,676.92546 181,675.582314 181,673.92546 L181,650.92546 C181,649.268605 182.343146,647.92546 184,647.92546 L777,647.92546 Z M777,586.92546 C778.656854,586.92546 780,588.268605 780,589.92546 L780,639.92546 C780,641.582314 778.656854,642.92546 777,642.92546 L184,642.92546 C182.343146,642.92546 181,641.582314 181,639.92546 L181,589.92546 C181,588.268605 182.343146,586.92546 184,586.92546 L777,586.92546 Z M777,522.92546 C778.656854,522.92546 780,524.268605 780,525.92546 L780,577.92546 C780,579.582314 778.656854,580.92546 777,580.92546 L184,580.92546 C182.343146,580.92546 181,579.582314 181,577.92546 L181,525.92546 C181,524.268605 182.343146,522.92546 184,522.92546 L777,522.92546 Z M777,457.92546 C778.656854,457.92546 780,459.268605 780,460.92546 L780,510.92546 C780,512.582314 778.656854,513.92546 777,513.92546 L184,513.92546 C182.343146,513.92546 181,512.582314 181,510.92546 L181,460.92546 C181,459.268605 182.343146,457.92546 184,457.92546 L777,457.92546 Z" id="Shape" fill="#000000" fill-rule="nonzero"></path>
    </g>
</svg>