<?xml version="1.0" encoding="UTF-8"?>
<svg width="960px" height="960px" viewBox="0 0 960 960" version="1.1" xmlns="http://www.w3.org/2000/svg" xmlns:xlink="http://www.w3.org/1999/xlink">
    <!-- Generator: Sketch 60.1 (88133) - https://sketch.com -->
    <title>no.tjweb.opengarage/capability/presence2</title>
    <desc>Created with Sketch.</desc>
    <g id="no.tjweb.opengarage/capability/presence2" stroke="none" stroke-width="1" fill="none" fill-rule="evenodd">
        <path d="M467.061019,248.559261 C510.764278,262.288466 570.915349,304.730389 648.758509,376.076605 L652.105,379.152 L653.53155,379.258742 C694.637063,382.338844 739.240251,387.487721 787.34861,394.702705 L802.145314,396.952967 L805.585316,397.493554 L808.340598,397.936706 C833.680306,402.058639 848.606607,405.824147 863.345117,412.559836 C882.58042,421.350616 898.443819,434.660275 913.455963,454.985335 C916.64069,459.297162 919.7985,463.940981 922.951455,468.947448 C929.680036,479.631532 932.45644,492.794345 932.818106,508.994904 L932.848131,510.698778 L932.862548,512.391709 C932.880023,518.21974 932.605323,524.095885 932.038166,532.52963 L931.580921,539.443709 L931.419744,542.134404 C931.328197,543.810809 931.297044,544.828476 931.288386,545.929217 L931.285515,546.75205 C931.285515,597.366454 897.871634,626.393562 837.037453,631.795507 L834.58685,632 L830.308081,632.000997 C815.018771,662.817374 783.233119,684 746.5,684 C709.766881,684 677.981229,662.817374 662.691919,632.000997 L270.308081,632.000997 C255.018771,662.817374 223.233119,684 186.5,684 C149.766881,684 117.981229,662.817374 102.691919,632.000997 L85.6170678,632 L83.2872572,631.215229 C54.160828,621.404316 35.5463894,610.156234 27.3494117,595.550781 C18.9502306,580.585039 13.8519654,563.048336 11.2298115,542.901387 L11.0892357,541.799874 C8.99893176,525.090003 8.69326375,510.61038 9.23270829,486.601594 L9.50827492,474.338568 L9.53424717,472.623434 C9.54236353,471.963998 9.54735833,471.357794 9.55020735,470.745683 L9.55342556,469.205637 C9.55342556,405.956547 76.7314738,309.742525 149.581362,264.621487 L151.383,263.519 L151.297543,263.173477 C150.558859,260.167597 150.248177,258.596225 150.039054,256.483031 L150.01342,256.215917 C149.786624,253.77944 149.855855,251.449453 150.416047,249.014405 C151.333947,245.02447 153.487096,241.356286 157.088948,238.694853 C165.090096,232.782749 179.011477,231.15034 202.978425,231.536693 L204.166,231.557 L207.838443,231.491776 C337.177426,229.220726 423.12197,234.755983 467.061019,248.559261 Z M186.5,527 C151.429918,527 123,555.429918 123,590.5 C123,625.570082 151.429918,654 186.5,654 C221.570082,654 250,625.570082 250,590.5 C250,555.429918 221.570082,527 186.5,527 Z M746.5,527 C711.429918,527 683,555.429918 683,590.5 C683,625.570082 711.429918,654 746.5,654 C781.570082,654 810,625.570082 810,590.5 C810,555.429918 781.570082,527 746.5,527 Z M208.302005,261.488292 L204.181254,261.563065 L202.204732,261.528828 L200.553888,261.508327 C193.490766,261.437373 187.605827,261.598507 182.947919,261.977692 L181.875,262.071 L181.907994,262.226221 C182.262327,263.97785 182.462359,265.446933 182.556814,267.092812 L182.575456,267.448374 C182.706988,270.212916 182.439947,272.873651 181.507709,275.5892 C180.097587,279.696794 177.312584,283.236735 173.293451,285.471888 C105.803047,323.00521 39.5534256,415.394519 39.5534256,469.205637 L39.5360838,472.688322 L39.4992742,475.130424 C39.4921285,475.522535 39.4840981,475.937884 39.4750855,476.382526 L39.2054759,488.166212 L39.1269089,492.08536 C38.7729011,511.533227 39.1239368,523.924246 40.7784407,537.439497 L40.8571824,538.075717 C42.9907568,555.129813 47.084904,569.418355 53.510894,580.868245 C56.9243699,586.950409 69.1521533,594.505002 90.1109334,601.839712 L90.572,602.001148 L93.7003353,602.001148 C93.2380307,598.232198 93,594.393897 93,590.5 C93,538.861376 134.861376,497 186.5,497 C238.138624,497 280,538.861376 280,590.5 C280,594.393897 279.761969,598.232198 279.299665,602.001148 L653.700335,602.001148 C653.238031,598.232198 653,594.393897 653,590.5 C653,538.861376 694.861376,497 746.5,497 C798.138624,497 840,538.861376 840,590.5 C840,594.189063 839.786353,597.828227 839.370758,601.405792 C860.243168,598.987069 875.58621,593.399849 885.585989,585.054126 L885.972352,584.72803 C896.04633,576.129222 901.148526,564.090373 901.282794,547.430006 L901.300852,544.555426 L901.317785,543.787828 C901.35038,542.575834 901.414085,541.240258 901.535797,539.223861 L902.249106,528.338845 L902.426322,525.463219 C902.777104,519.485603 902.912742,515.071525 902.844297,510.653766 L902.825578,509.664464 C902.574133,498.401114 900.825184,490.109423 897.566147,484.93451 C894.798663,480.540118 892.056826,476.508022 889.324593,472.80883 C877.24062,456.448244 865.320525,446.447083 850.875258,439.845411 L850.042988,439.469479 C837.944465,434.068944 824.441067,430.842548 799.899937,426.966949 L789.250051,425.329603 L785.493044,424.761433 C735.372542,417.186477 689.178947,411.885211 646.921052,408.854505 L644.738809,408.699769 L639.469007,408.3304 L635.593668,404.740278 C557.303137,332.211762 497.674371,289.621816 458.06986,277.180216 C418.205281,264.656917 334.486348,259.272371 208.302005,261.488292 Z M360.833567,287.030911 C377.423329,286.779876 396.866036,288.057871 419.161687,290.864896 C459.769862,295.977471 504.011988,323.178164 522.610203,336.095396 L523.165906,336.482418 C533.089224,343.412793 551.942441,360.75672 579.725558,388.514199 L581.437723,390.226648 C583.497674,392.289155 584.654728,395.084981 584.654728,398 C584.654728,403.978702 579.884965,408.843366 573.943135,408.996293 L573.654728,409 L361,409 C355.021298,409 350.156635,404.230236 350.003707,398.288407 L350,398 L350,298.029652 C350,292.019417 354.82402,287.121848 360.833567,287.030911 Z M310.251783,287.181619 C316.227245,287.318428 321,292.201708 321,298.178737 L321,398 C321,404.075132 316.075132,409 310,409 L158.1802,409 C152.201501,409 147.336839,404.230234 147.183912,398.288407 L147.180919,397.874627 L147.180919,397.874627 L147.237534,395.502087 C148.172699,359.123519 151.335233,338.69119 156.725137,334.205099 C197.566338,300.212408 214.599314,294.974249 220.842384,293.561981 L222.541639,293.198729 C244.831677,288.358883 274.068391,286.35318 310.251783,287.181619 Z" id="Shape" fill="#000000" fill-rule="nonzero"></path>
    </g>
</svg>