<?xml version="1.0" encoding="UTF-8"?>
<svg width="960px" height="960px" viewBox="0 0 960 960" version="1.1" xmlns="http://www.w3.org/2000/svg" xmlns:xlink="http://www.w3.org/1999/xlink">
    <!-- Generator: Sketch 60.1 (88133) - https://sketch.com -->
    <title>no.tjweb.opengarage/capability/presence</title>
    <desc>Created with Sketch.</desc>
    <g id="no.tjweb.opengarage/capability/presence" stroke="none" stroke-width="1" fill="none" fill-rule="evenodd">
        <path d="M439.577598,334.204981 C494.152898,338.864626 540.725941,349.79746 582.749024,369.507865 L584.021061,370.10784 C646.155375,399.577219 692.713889,413.973271 749.807012,418.637584 L751.540358,418.775953 C786.335199,421.488849 825.270401,427.463816 860.713156,434.757182 L865.48107,435.750826 L868.519785,436.397929 C884.09178,439.743328 895.990761,442.761639 899.741913,444.408545 C930.535227,457.929241 945.822555,488.043684 939.116236,520.955188 L938.868175,522.15336 L938.509076,523.81873 C937.262348,529.46136 935.780785,534.744969 933.085302,543.565402 L930.116859,553.24561 L929.607988,554.942141 C929.395641,555.656081 929.199101,556.325436 929.00791,556.985596 L928.43992,558.973872 C925.464785,569.52671 912.333562,578.044896 893.661794,585.107403 C875.153953,592.107905 853.314323,596.342279 830.875166,596.486211 L829.693619,596.490002 L795.137411,596.490894 C780.720412,615.627445 757.805089,628 732,628 C706.194911,628 683.279588,615.627445 668.862589,596.490894 L276.923354,596.490002 L273.784961,596.48591 C266.918887,596.468194 259.627429,596.393028 252.009326,596.262083 L246.387063,596.157699 C231.985765,615.483707 208.954551,628 183,628 C154.117941,628 128.855878,612.500953 115.077381,589.366428 L110.468788,588.955154 C74.0884361,585.6421 49.4564661,581.774416 38.5141453,576.933932 C23.225433,570.170667 13.5165372,556.62842 11.5122651,539.965758 C7.26007853,504.615444 12.022098,469.134703 25.0199176,433.23781 C31.0654411,416.545947 44.6370688,406.596311 63.3536401,401.582785 L86.8736194,395.32257 L163.29547,375.164284 C170.578309,373.228148 176.998001,370.832245 192.268675,364.615183 L196.461974,362.909761 L199.367741,361.738365 C212.285786,356.556778 219.853051,353.903881 228.255012,351.846956 C299.622217,334.37482 370.003173,328.265675 439.577598,334.204981 Z M183,500 C155.938047,500 134,521.938047 134,549 C134,576.061953 155.938047,598 183,598 C210.061953,598 232,576.061953 232,549 C232,521.938047 210.061953,500 183,500 Z M732,500 C704.938047,500 683,521.938047 683,549 C683,576.061953 704.938047,598 732,598 C759.061953,598 781,576.061953 781,549 C781,521.938047 759.061953,500 732,500 Z M237.437079,380.488154 L235.388864,380.986416 C228.54107,382.662858 221.744426,385.07022 209.499865,389.998764 L199.663378,393.990254 L195.723873,395.573335 C184.706314,399.971233 178.602564,402.119485 171.370171,404.059241 L139.945366,412.366112 L98.4365805,423.295983 L84.3557791,427.027948 C80.7013744,427.999719 77.1406966,428.949342 73.5306398,429.914912 L71.1150495,430.561406 C60.9997512,433.270947 55.4382439,437.348201 53.2272902,443.452707 C41.7651626,475.108384 37.6316249,505.906448 41.2975608,536.383 C42.0578353,542.703597 45.2009202,547.087662 50.6506793,549.498471 C56.8771857,552.25285 76.4597977,555.434106 104.536759,558.244159 C104.181728,555.212406 104,552.127426 104,549 C104,505.369505 139.369505,470 183,470 C226.630495,470 262,505.369505 262,549 C262,554.971368 261.337484,560.787998 260.081947,566.380393 L263.630941,566.420102 C267.735788,566.461335 271.714039,566.484657 275.546375,566.489185 L654.943027,566.491259 C653.671303,560.864886 653,555.010839 653,549 C653,505.369505 688.369505,470 732,470 C775.630495,470 811,505.369505 811,549 C811,555.010839 810.328697,560.864886 809.056973,566.491259 L829.693619,566.491259 C848.835526,566.491259 867.53412,562.915743 883.0483,557.047579 C889.291951,554.685948 894.578038,552.094472 898.247092,549.714367 C898.992434,549.230867 899.626432,548.783988 900.134098,548.395693 L900.3,548.266 L901.03186,545.788983 L902.089949,542.297145 L902.089949,542.297145 L904.320223,535.042355 C907.234175,525.513896 908.55926,520.665032 909.720115,514.966191 C913.587162,495.988519 905.605152,479.998837 888.211364,472.11396 L887.896251,471.974575 L887.696257,471.908617 C887.264191,471.768742 886.660164,471.587356 885.913002,471.375084 L884.83413,471.074471 L883.482455,470.71086 C882.529627,470.458626 881.475423,470.187326 880.332135,469.900484 L879.279456,469.638225 C873.441665,468.193707 866.033874,466.516173 857.818486,464.795718 L856.90238,464.604389 C822.748385,457.49067 784.990624,451.602367 751.393522,448.859579 L749.208385,448.685181 C687.846546,443.9009 637.984028,428.735096 573.134783,398.145298 L571.16504,397.213609 C532.38583,378.820752 488.831636,368.519444 437.025686,364.096246 C371.458584,358.49903 305.016674,364.153376 237.437079,380.488154 Z M595.303881,432.245519 C599.428729,434.340054 601.153263,440.625417 593.975802,441.760015 L592.428421,441.999454 C586.561205,442.887825 580.541209,443.577602 577.479534,443.551 L572.358555,443.511315 C535.999143,443.259186 506.7391,443.671703 469.692344,442.846126 L466.810772,442.77423 C452.303897,442.378821 426.680483,441.237423 413.881761,440.295691 C411.231286,440.100213 406.972298,438.778353 406.335345,436.746657 C404.195239,429.920335 404.912534,420.973163 403.830122,410.00287 L403.745494,409.176307 C403.358385,405.529745 402.46097,399.285192 401.053248,390.442648 L400.127445,384.703193 C399.771652,382.522893 401.250707,380.466983 403.431007,380.11119 C403.644927,380.076282 403.861331,380.058818 404.078081,380.058973 L408.45136,380.052448 L408.45136,380.052448 C478.468373,379.397651 536.005901,402.134915 595.303881,432.245519 Z M375.824187,380.052448 L376.532991,380.056838 C383.288503,380.143561 383.790949,381.52693 384.392161,385.237651 L384.585327,386.443026 C387.196096,402.378964 387.246736,419.553355 387.246736,434.979612 C387.246736,441.030335 366.098449,440.291998 332.24597,440.24262 L319.324038,440.2321 C286.373578,440.157126 228.858662,439.391307 219.557062,431.568842 C217.938401,430.20758 210.713292,414.136818 211.278122,412.310112 C212.330808,408.901675 215.980249,404.518137 231.56525,400.717561 L247.159119,396.951619 C259.945534,393.894656 275.408655,390.40061 296.93566,386.615286 L297.918348,386.443026 C323.493881,381.973672 367.662965,380.052448 375.824187,380.052448 Z" id="Shape" fill="#000000" fill-rule="nonzero"></path>
    </g>
</svg>