<?xml version="1.0" encoding="utf-8"?>
<!-- Generator: Adobe Illustrator 21.0.0, SVG Export Plug-In . SVG Version: 6.00 Build 0)  -->
<svg version="1.1" id="Layer_1" xmlns:bx="https://boxy-svg.com"
	 xmlns="http://www.w3.org/2000/svg" xmlns:xlink="http://www.w3.org/1999/xlink" x="0px" y="0px" viewBox="0 0 500 500"
	 style="enable-background:new 0 0 500 500;" xml:space="preserve">
<style type="text/css">
.fillpulse {
	animation: fillpulse 3s infinite;
}

@keyframes fillpulse {
	0%, 20%, 40%, 60%, 100% {
		fill: #FFFFFF;
	}
	10%, 30%, 50% {
		fill: #0078CC;
	}
}
</style>
<g transform="matrix(2.259877, 0, 0, 2.008269, -510.845215, -26.820541)">
	<g>
		<g>
			<path class="fillpulse" d="M371,214.5h0.2c-0.1,1-0.2,2.1-0.3,3.2l0.1,0.1c-1.6,1.6-4.8,0.9-6.4-1.2c0-1,0.1-1.9,0.1-2.9h0.1
				c0,1.5,2.3,2.9,4.3,2.4C370.4,215.9,370.9,215.2,371,214.5z"/>
		</g>
		<g>
			<path class="fillpulse" d="M366.5,211.7c2.3-1,4.6,1.1,4.4,2.8c-0.1,0.7-0.6,1.4-1.9,1.6c-2,0.5-4.3-0.9-4.3-2.4
				C364.8,213,365.3,212.3,366.5,211.7z"/>
		</g>
	</g>
	<g>
		<path d="M364.8,200.1c-0.9-0.9-3.2-1.4-4.2-0.6c-0.3,0.3-0.8,0.9-0.4,2c0.3,0.9,1.2,1.4,2.1,1.4c0.3,0,0.6,0,0.9-0.1
			c1.2-0.4,1.9-1.4,1.8-2.5C364.9,200.3,364.9,200.2,364.8,200.1z M360.7,200.7c0-0.3,0.2-0.4,0.3-0.5c0.1-0.1,0.3-0.2,0.5-0.2
			C361.1,200.1,360.9,200.4,360.7,200.7z M362.8,202c-0.6,0.1-1.2-0.2-1.7-0.7c0,0,0-0.1,0-0.2c0.3-0.6,0.8-0.8,1.1-0.8
			c0.5-0.1,1.1,0.1,1.6,0.6c0,0.1,0,0.2,0.1,0.2C363.6,201.8,363.1,202,362.8,202z"/>
		<path d="M369.4,190.6C369.4,190.6,369.4,190.6,369.4,190.6C369.4,190.6,369.4,190.6,369.4,190.6c0-0.1,0-0.1,0-0.1c0,0,0,0,0,0
			l-1.2-2.2c0,0,0,0,0,0c0,0,0,0,0,0c0,0,0,0,0,0c0,0,0,0,0,0c-0.2-0.3-0.6-0.6-1-0.8c0,0,0,0,0,0c0,0,0,0,0,0c0,0,0,0,0,0l-4-1.4
			c0,0,0,0,0,0c-0.5-0.2-1-0.2-1.4,0c0,0,0,0,0,0l-12.1,3c0,0,0,0,0,0c-0.5,0.1-0.8,0.3-1,0.7c0,0,0,0,0,0c0,0,0,0,0,0c0,0,0,0,0,0
			c0,0,0,0,0,0l-1.8,2.8c-0.2,0.1-0.3,0.3-0.3,0.5c0,0.3,0,0.5,0.2,0.8c0,0,0,0,0,0l1.2,2.3c0,0,0,0,0,0c0,0,0,0,0,0c0,0,0,0,0,0
			c0,0,0,0,0,0c0,0,0,0,0,0c0.6,0.6,1.2,1,1.9,1c0.2,0,0.4,0,0.6-0.1c0,0,0,0,0,0c0,0,0,0,0,0l17.9-4.5c0,0,0,0,0,0
			c0.5-0.1,0.9-0.4,1.1-0.8C369.5,191.5,369.5,191.1,369.4,190.6C369.4,190.6,369.4,190.6,369.4,190.6z M362.6,186.6
			C362.6,186.6,362.5,186.6,362.6,186.6l-0.5,0c0,0,0,0,0,0C362.2,186.6,362.4,186.6,362.6,186.6z M367,191.6l-0.5-0.1c0,0,0,0,0,0
			c0,0,0,0-0.1,0c0,0,0,0-0.1,0c0,0,0,0,0,0c0,0,0,0-0.1,0.1c0,0,0,0,0,0l-0.4,0.6c-2.6,0.6-5.3,1.3-7.9,2c-0.9,0.2-1.8,0.5-2.7,0.7
			h-0.2H355c-0.1,0-0.2,0.1-0.3,0.2c-1.5,0.4-3.1,0.8-4.6,1.2c0,0,0,0,0,0c0,0,0,0,0,0c-0.1,0-0.3,0.1-0.4,0.1l-0.2-0.2c0,0,0,0,0,0
			c0,0,0,0,0,0l0,0c-0.2-0.2-0.2-0.2-0.3-0.5c0,0,0,0,0,0c0,0,0,0,0,0c0,0,0,0,0,0c0,0,0,0,0,0l0,0c0.1-0.1,0.1-0.3,0-0.5l-0.3-0.3
			c0-0.1-0.1-0.1-0.1-0.1c-0.1-0.1-0.1-0.1-0.2-0.1c-0.1,0-0.2,0-0.3,0l-0.2,0.1c-0.1-0.3-0.3-0.6-0.4-0.9l0.1-0.3l1.8-2.7
			c0,0,0,0,0,0c0.1-0.2,0.3-0.3,0.5-0.4l11.9-3h0.9l4,1.4c0,0,0,0,0,0c0,0,0,0,0,0c0.2,0.1,0.3,0.1,0.4,0.2L367,191.6z M368.3,191.6
			c-0.1,0.1-0.2,0.2-0.4,0.2c0,0,0,0,0,0c0,0,0,0,0,0c-0.1,0-0.2,0-0.2,0l0.1-1.8l0.6,1.1V191.6z"/>
		<path d="M365.2,218.7c1.1,0.6,2.3,1,3.5,1c1.2,0,2.3-0.3,3.2-1c0.9-0.7,1.9-2,1.7-4.3c-0.2-2.4-1.7-4.1-3.6-4.9
			c0-0.1,0-0.1-0.1-0.2c-0.1-0.1-0.3-0.2-0.4,0c-0.7-0.2-1.4-0.3-2.1-0.3c0,0-0.1,0-0.1,0c-2.8,0.1-4.7,2-4.8,4.9c0,0,0,0,0,0
			C362.5,216,363.5,217.7,365.2,218.7z M368.4,218.3c-1.3-0.1-2.6-0.8-3.5-1.8c0-0.4,0-0.9,0-1.3c0-0.1,0-0.1,0-0.2
			c0.1,0.2,0.2,0.3,0.4,0.4c0.7,0.7,1.8,1.1,2.9,1.1c0.3,0,0.6,0,0.9-0.1c0.8-0.1,1.2-0.4,1.6-0.7c0,0.3,0,0.6-0.1,0.9
			c0,0.3,0,0.7-0.1,1c0,0,0,0,0,0C370,218.2,369.3,218.4,368.4,218.3z M364.2,214c0.3-1.9,1.5-2.9,3.1-2.8c-0.3,0-0.6,0.1-0.8,0.2
			c-1.1,0.6-1.7,1.2-1.9,2c-0.1,0-0.2,0.2-0.2,0.3c0,0,0,0,0,0.1C364.3,213.8,364.3,213.9,364.2,214z M364.3,215c0,0.1,0,0.1,0,0.2
			c0,0.1,0,0.2,0,0.2c0,0,0,0,0-0.1c0,0,0-0.1-0.1-0.1c0,0,0,0,0,0C364.3,215.1,364.3,215,364.3,215z M367.8,211.8
			c0.6,0,1.3,0.2,1.8,0.7c0.7,0.6,1.1,1.3,1.1,2c-0.1,0.7-0.7,1.2-1.6,1.3c0,0,0,0,0,0c-1.3,0.3-2.6-0.2-3.3-0.9
			c-0.4-0.4-0.6-0.8-0.5-1.2c0-0.8,0.8-1.3,1.5-1.7C367.1,211.9,367.4,211.8,367.8,211.8z M367.3,209.7c0.6,0,1.2,0.1,1.7,0.2
			c0.1,0.1,0.1,0.1,0.2,0.1c0,0,0.1,0,0.2,0c1.8,0.7,3.3,2.2,3.5,4.4c0.1,1.6-0.4,2.9-1.4,3.7c-0.5,0.4-1,0.6-1.6,0.7
			c0.5-0.2,0.9-0.4,1.3-0.8c0.3-0.3,0.5-0.8,0.6-1.2c0.1-0.1,0.2-0.2,0.1-0.4c0,0,0,0,0-0.1c0.1-0.2,0.1-0.5,0.1-0.7c0,0,0,0,0,0
			c0,0,0,0,0,0c0-2.9-2.3-4.9-4.5-5.2c-1.7-0.2-3.6,0.7-4,3.5c0,0,0,0,0,0c0,0,0,0,0,0v0.5c0,0.2,0,0.3,0,0.5c0,0.1,0,0.2,0,0.2
			c0,0.1,0,0.2,0.1,0.4c0,0,0,0.1,0.1,0.1c0.1,0.4,0.3,0.7,0.6,1.1c0,0,0,0,0,0c0,0,0,0,0,0c0.7,0.9,1.7,1.6,2.9,2
			c-0.6-0.1-1.2-0.4-1.7-0.7c-0.9-0.5-2.4-1.8-2.4-4.2C363.3,210.9,365.4,209.7,367.3,209.7z M371.3,216.5c0-0.1,0-0.2,0-0.2
			c0,0,0,0.1,0,0.1C371.3,216.4,371.3,216.5,371.3,216.5z M371.4,215C371.4,215,371.4,215,371.4,215C371.4,215,371.4,215,371.4,215
			C371.4,215,371.4,215,371.4,215z"/>
		<path d="M289.6,104.7C289.6,104.7,289.6,104.7,289.6,104.7C289.6,104.8,289.6,104.8,289.6,104.7
			C289.6,104.8,289.6,104.8,289.6,104.7C289.6,104.8,289.6,104.8,289.6,104.7l0.9,0.6c0,0,0,0,0,0c0,0,0,0,0,0c0,0,0,0,0,0
			c0.5,0.2,1.1,0.3,1.6,0.3c0,0,0.1,0,0.1,0c0,0,0,0,0,0c0,0,0,0,0,0c0.2,0,0.3,0,0.5,0c0,0,0.1,0,0.1,0c0.2,0,0.3-0.1,0.5-0.1
			c0.3,0,0.6-0.1,0.8-0.3c0,0,0.1,0,0.1-0.1c0.3-0.1,0.6-0.2,0.9-0.3c0,0,0.1,0,0.1,0c0.1,0,0.2,0,0.2-0.1c0,0,0,0,0,0
			c0.4-0.1,0.7-0.3,1.1-0.4c0.5-0.2,1-0.3,1.5-0.5c0,0,0,0,0,0c0.2-0.1,0.4-0.1,0.6-0.2c0,0,0,0,0,0c0,0,0,0,0,0
			c0.1,0,0.2-0.1,0.3-0.1c0.5-0.1,1.1-0.3,1.4-0.7c0,0,0,0,0,0c0.1-0.1,0.2-0.2,0.2-0.4c0.1-0.3,0.1-0.6,0-1c0,0,0,0,0,0
			c0,0,0,0,0,0c0,0,0,0,0,0c0,0,0,0,0,0c0,0,0,0,0,0c0,0,0,0,0,0l-0.8-0.7c0,0,0,0,0,0c0,0,0,0,0,0c0,0,0,0,0,0
			c-1.2-0.7-2.5-0.7-4-0.1c0,0,0,0,0,0c0,0,0,0,0,0c-1.3,0.5-2.6,1-3.9,1.5l-1,0.4c-0.9,0.2-1.4,0.6-1.6,1.1
			C289.1,103.9,289.2,104.3,289.6,104.7C289.6,104.7,289.6,104.7,289.6,104.7z M299.5,102.1l0.2,0.1l0,0.2c-0.1,0-0.1,0.1-0.2,0.1
			L299.5,102.1z M298.9,101C298.9,101,298.9,101,298.9,101c-0.9-0.3-1.8-0.3-2.7,0.1c0,0,0,0,0,0C297.2,100.7,298.1,100.7,298.9,101
			z M296.1,101.8C296.1,101.8,296.1,101.8,296.1,101.8C296.1,101.8,296.1,101.8,296.1,101.8c1-0.4,1.9-0.5,2.8-0.1l-0.1,1.1
			c-0.1,0-0.2,0.1-0.3,0.1c-0.2,0.1-0.4,0.1-0.6,0.2c-0.8,0-1.5,0.1-2.1,0.4c0,0,0,0,0,0c-0.6,0.2-1.2,0.4-1.8,0.7
			c-0.6,0.2-1.2,0.4-1.8,0.6c0,0,0,0,0,0c-0.2,0-0.5,0-0.7-0.1l-0.1-1.2C292.8,103.1,294.2,102.5,296.1,101.8z M295.5,101.2
			C295.5,101.3,295.6,101.3,295.5,101.2c-0.4,0.2-0.8,0.3-1.1,0.5C294.8,101.6,295.2,101.4,295.5,101.2z M291.9,102.7
			c0.2-0.1,0.4-0.1,0.6-0.2c-0.4,0.2-0.8,0.3-1.2,0.5c0,0,0,0,0,0L291.9,102.7z M290.8,103.9l0,0.6c-0.1,0-0.1-0.1-0.2-0.1
			c-0.1-0.1-0.2-0.1-0.3-0.2C290.5,104.2,290.6,104,290.8,103.9z M289.8,103.7c0-0.2,0.3-0.4,0.9-0.6c0,0,0,0.1,0,0.1
			c-0.3,0.2-0.7,0.5-0.9,0.7C289.8,103.8,289.7,103.7,289.8,103.7z"/>
		<path d="M279.9,109.9C279.9,109.9,279.9,109.9,279.9,109.9C279.9,109.9,279.9,109.9,279.9,109.9c0.1,0,0.1,0,0.1,0c0,0,0,0,0,0
			c0,0,0,0,0,0c0,0,0,0,0,0h0.1c0.4,0.1,0.8,0.2,1.2,0.2c0.8,0,1.7-0.2,2.6-0.7c0.1,0,0.1-0.1,0.2-0.1c0,0,0,0,0,0c0,0,0.1,0,0.1,0
			l0.2-0.1l0.8-0.3c0.1,0,0.1-0.1,0.1-0.1c0.3-0.1,0.5-0.2,0.8-0.4c0.5-0.2,1-0.4,1.5-0.6c0.6-0.2,1.3-0.6,1.5-1.2
			c0.1-0.4-0.1-0.8-0.4-1.2c0,0,0,0,0,0c0,0,0,0,0,0c0,0,0,0,0,0c0,0,0,0,0,0c0,0,0,0,0,0c0,0,0,0,0,0c0,0,0,0,0,0l0,0c0,0,0,0,0,0
			l-0.4-0.2c0,0,0,0,0,0c0,0,0,0,0,0c0,0,0,0,0,0c-1.4-0.5-2.9-0.4-4.3,0.4c0,0,0,0,0,0c0,0,0,0,0,0c0,0,0,0,0,0c0,0,0,0,0,0
			l-3.5,1.9c0,0,0,0,0,0c-0.7,0.4-1.1,0.8-1.2,1.3C279.1,109.2,279.3,109.6,279.9,109.9z M286.8,105.6c-0.8-0.1-1.6,0.1-2.3,0.4
			c0,0,0,0,0,0C285.3,105.7,286,105.5,286.8,105.6z M284.4,106.8C284.4,106.8,284.4,106.8,284.4,106.8c0.9-0.5,1.9-0.6,2.9-0.4v0.8
			c-0.5,0.2-1,0.4-1.5,0.6c-0.7,0.3-1.4,0.6-2.2,0.9c-0.1,0-0.1,0-0.2,0c-0.1,0-0.1,0.1-0.2,0.1c-0.1,0.1-0.3,0.2-0.4,0.2
			c0,0,0,0-0.1,0c0,0,0,0-0.1,0c-0.6,0.2-1.1,0.3-1.7,0.3l-0.1-0.8L284.4,106.8C284.4,106.8,284.4,106.8,284.4,106.8z M283.9,106.3
			C283.9,106.3,283.9,106.3,283.9,106.3l-2.9,1.6c0,0,0,0,0,0L283.9,106.3z M280.6,109.3c0,0-0.1,0-0.2,0h0c0,0,0,0,0,0
			c0.1-0.1,0.1-0.2,0.2-0.2L280.6,109.3z M280.4,108.2C280.4,108.2,280.4,108.2,280.4,108.2c-0.2,0.2-0.5,0.4-0.7,0.7
			c0,0,0-0.1,0-0.1C279.7,108.7,280,108.4,280.4,108.2z"/>
		<path d="M271.2,115.2C271.2,115.3,271.2,115.3,271.2,115.2C271.2,115.3,271.2,115.3,271.2,115.2l0.1,0c0.2,0,0.4,0,0.5,0
			c0.5,0,0.9-0.1,1.3-0.3c0,0,0,0,0,0c0,0,0.1,0,0.1,0c0.1,0,0.2-0.1,0.3-0.1c0,0,0.1-0.1,0.1-0.1l4.5-2.4c0.7-0.3,1.1-0.7,1.1-1.1
			c0-0.4-0.2-0.7-0.7-0.9c0,0,0,0,0,0c0,0,0,0,0,0c0,0,0,0-0.1,0c0,0,0,0-0.1,0c0,0,0,0,0,0h0c0,0,0,0,0,0h-0.2
			c-1.1-0.4-2.4-0.1-3.4,0.7c0,0,0,0,0,0c-1.3,0.9-2.6,1.8-3.9,2.8c0,0,0,0,0,0c0,0,0,0,0,0c-0.5,0.4-0.5,0.7-0.5,1
			C270.5,114.9,270.6,115.2,271.2,115.2z M277.6,111.5l0,0.3c0,0,0,0,0,0l-1.8,1V112C276.4,111.6,276.9,111.4,277.6,111.5z
			 M277.1,110.8c-0.5,0-1,0.2-1.5,0.5c0,0,0,0,0-0.1C276.1,110.9,276.6,110.8,277.1,110.8z M275.2,113.1l-1.8,1c0,0,0,0,0,0
			c0,0,0,0,0,0c-0.1,0.1-0.3,0.2-0.4,0.2c-0.2,0.1-0.5,0.2-0.7,0.2c0.8-0.6,1.7-1.2,2.6-1.8c0.1-0.1,0.3-0.2,0.4-0.3V113.1z
			 M275.1,111.6C275.1,111.6,275.1,111.6,275.1,111.6c-0.2,0.2-0.4,0.4-0.6,0.5c-0.9,0.6-1.9,1.3-2.7,2c0,0,0-0.1-0.1-0.1
			C272.8,113.1,273.9,112.3,275.1,111.6z M271.1,114.4C271.2,114.4,271.2,114.4,271.1,114.4C271.2,114.5,271.1,114.5,271.1,114.4
			C271.1,114.5,271.1,114.4,271.1,114.4z"/>
		<path d="M388.7,182.6c0.2,1,0.5,2,0.7,3.1c0.6,2.6,1.2,5.3,2.1,8c0,0,0,0,0,0c0.2,0.9,0.8,1.4,1.6,1.4c0,0,0.1,0,0.1,0
			c0,0,0,0,0,0c0,0,0,0,0,0c0.8-0.3,1.5-0.6,2.2-1c2.6-1.1,5-2.1,7.5-3.1c0,0,0,0,0,0c0,0,0,0,0,0c0,0,0,0,0.1,0c0,0,0,0,0,0
			c0.5-0.6,0.6-1.3,0.4-2.1c0,0,0,0,0,0c0,0,0,0,0,0c-0.2-0.6-0.4-1.2-0.6-1.7c-0.8-2.1-1.5-4.1-2.3-6.3c0,0,0,0,0,0c0,0,0,0,0,0
			c-0.3-0.7-0.7-1-1.2-1c0,0,0,0,0,0c0,0,0,0,0,0l-0.4,0c-3.2,0.4-6.5,0.8-9.6,1.5c0,0,0,0,0,0c0,0,0,0,0,0c0,0,0,0,0,0
			C388.8,181.5,388.6,182,388.7,182.6C388.7,182.6,388.7,182.6,388.7,182.6z M389.7,182.3l9.5-1.4c0,0.1,0.1,0.2,0.1,0.2
			c0,0.2,0.1,0.4,0.3,0.4s0.3-0.2,0.3-0.4c0-0.1,0-0.2-0.1-0.4c0.1,0.1,0.1,0.2,0.2,0.3c0.7,2.1,1.5,4.1,2.3,6.3
			c0.2,0.6,0.4,1.1,0.6,1.7c0,0.1,0.1,0.2,0.1,0.4c-0.1-0.1-0.1-0.3-0.2-0.4c-0.1-0.1-0.3-0.2-0.4,0c-0.1,0.1-0.1,0.3,0,0.5
			c0.1,0.1,0.3,0.4,0.2,0.6c-0.7,0.3-1.4,0.6-2.1,0.9c-2.5,1.1-4.9,2.1-7.3,3l-0.9-1.5c-1-3.5-1.8-7-2.4-9.5V182.3z"/>
		<path d="M316.7,201.7c0.2,0.7,0.3,1.5,0.5,2.2c0.4,2.1,0.9,4.2,1.4,6.2c0.1,0.9,0.8,1.5,1.6,1.5c0,0,0,0,0,0c0,0,0,0,0,0
			c0,0,0,0,0,0s0,0,0,0c0,0,0,0,0,0c1-0.1,2-0.2,3-0.3c3-0.3,6.2-0.5,9.2-1.1c0,0,0,0,0,0c0,0,0,0,0,0c0,0,0,0,0,0c0,0,0,0,0,0
			c0.4-0.1,0.6-0.3,0.7-0.6c0.2-0.4,0.1-0.9-0.1-1.4c0,0,0,0,0,0l-0.5-1.3c-1.1-3.2-2.3-6.4-3.6-9.5c0,0,0,0,0,0c0,0,0,0,0,0
			c0,0,0,0,0,0c0,0,0,0,0,0c-0.3-0.8-0.9-0.9-1.2-0.8c0,0,0,0,0,0c0,0,0,0,0,0c0,0,0,0,0,0c0,0,0,0,0,0c-1.1,0.4-2.2,0.7-3.3,1.1
			c-2.3,0.8-4.7,1.5-7.1,2.5c-0.1,0-0.1,0-0.1,0.1C316.8,200.6,316.7,201.2,316.7,201.7C316.7,201.6,316.7,201.6,316.7,201.7
			C316.7,201.7,316.7,201.7,316.7,201.7z M328,197.7C328,197.7,328,197.7,328,197.7C328,197.7,328,197.7,328,197.7
			c0,0.1,0,0.1,0,0.1c0,0,0,0,0,0.1c0,0,0,0,0,0c0,0,0,0,0,0c0,0,0.1,0.1,0.1,0.1c0,0,0,0,0,0c0,0,0.1,0,0.1,0c0,0,0.1,0,0.1,0
			c0,0,0,0,0,0c0,0,0,0,0,0c0,0,0.1,0,0.1,0c1.3,3,2.4,6.2,3.5,9.2l0.4,1.1c-0.1-0.1-0.2-0.1-0.3,0c-0.1,0.1-0.2,0.3-0.1,0.5
			c0.2,0.3,0.2,0.5,0.2,0.5c0,0,0,0,0,0.1l-11.9,1.3c-0.4-0.9-0.7-1.7-1.1-2.4c-0.4-1.6-0.8-3.4-1.1-5.1l-0.1-0.7c0,0,0-0.1,0-0.1
			l-0.1-1.1L328,197.7z"/>
		<path d="M412.6,180.9c0.9,3.8,3.6,8,7.7,8.7c0.4,0.1,0.7,0.1,1.1,0.1c0.1,0,0.3,0,0.4,0c0.1,0,0.1,0,0.2,0c0.8,0,1.6-0.2,2.4-1
			c0.4-0.3,0.7-0.6,1-1c1.1-1.5,1.2-3.7,0.4-6c-1.7-4.7-7.4-9-10.7-8C413.6,174.1,412,175.7,412.6,180.9
			C412.6,180.9,412.6,180.9,412.6,180.9z M416.6,186.1c-0.5-0.5-1-1.1-1.4-1.6h0c0.1,0,0.2,0,0.3,0c0,0,0.1,0.1,0.2,0.1
			c0,0,0.1,0,0.1,0c0.6,0.1,1.1,0.3,1.7,0.5C417.2,185.4,416.9,185.7,416.6,186.1z M416,183.9L416,183.9L416,183.9L416,183.9
			C416,183.9,416,183.9,416,183.9z M418.9,183.9c-0.6-0.3-1.3-0.6-1.9-0.7c0.2,0,0.3-0.1,0.5-0.1c0,0,0.1,0,0.1,0
			c0.8-0.1,1.5,0.1,2.1,0.2C419.4,183.5,419.1,183.7,418.9,183.9z M419.6,184.9C419.6,184.9,419.6,184.9,419.6,184.9
			C419.6,184.9,419.6,184.9,419.6,184.9l-0.3,0.4c0,0,0,0-0.1,0c0,0,0,0,0,0L419.6,184.9C419.6,184.9,419.6,184.9,419.6,184.9z
			 M418.1,184.3c0.1,0.1,0.3,0.1,0.4,0.2l0,0L418.1,184.3z M418.5,185.3l0,0.2l-0.1,0c0,0,0,0,0-0.1
			C418.4,185.4,418.4,185.3,418.5,185.3L418.5,185.3z M417.7,186.6l-0.2,0.2c0,0,0,0,0,0l0.4-0.3l0,0.1
			C417.7,186.6,417.7,186.6,417.7,186.6z M421.5,188.9C421.5,188.9,421.4,188.9,421.5,188.9c-0.1,0.1-0.1,0.1-0.1,0.1
			c-1.1-0.2-2.3-0.8-3.4-1.6c0,0,0.1-0.1,0.1-0.1l0.1-0.1c0.1,0,0.1-0.1,0.1-0.2c0.3-0.3,0.6-0.6,0.9-0.9c0.8,0.5,1.6,1.3,2.2,1.9
			c0,0.1,0.1,0.2,0.2,0.3l0.1,0.1c0.1,0.2,0.2,0.3,0.3,0.4l0,0c0,0,0,0,0,0c0,0,0,0,0,0C421.8,188.7,421.6,188.8,421.5,188.9z
			 M420.2,185.5C420.2,185.5,420.2,185.5,420.2,185.5c0.1,0,0.2,0.1,0.3,0.2L420.2,185.5z M422.2,187.8l-0.2-0.1
			c-0.2-0.2-0.3-0.4-0.5-0.5l0.8,0.5C422.3,187.7,422.2,187.8,422.2,187.8z M423,187.6c-0.1-0.1-0.2-0.3-0.3-0.4
			c-0.8-0.9-1.4-1.7-2.2-2.3c0.2-0.2,0.5-0.3,0.8-0.5c0,0,0,0,0,0c0.1,0,0.2-0.1,0.3-0.1c1,0.7,1.6,1.7,1.6,2.6
			C423.2,187.1,423.1,187.4,423,187.6z M420.6,184l0.2-0.2l0,0l0,0C420.7,183.9,420.7,183.9,420.6,184
			C420.6,184,420.6,184,420.6,184z M423.4,185.3C423.4,185.3,423.4,185.3,423.4,185.3c-0.2-0.3-0.4-0.6-0.6-0.8
			c0.3,0.2,0.6,0.5,0.9,0.8C423.6,185.2,423.5,185.2,423.4,185.3z M423.9,188.1c0,0,0-0.1,0-0.1c0-0.2,0-0.4,0-0.6
			c0-0.2,0-0.3,0-0.5c0.1,0.3,0.2,0.6,0.2,0.9c0,0,0,0,0,0C424.1,187.9,424,188,423.9,188.1z M424.3,186
			C424.3,186,424.3,186,424.3,186C424.3,186,424.3,186,424.3,186l-0.3-0.4c0.1,0.1,0.2,0.2,0.3,0.3c0,0.1,0.1,0.2,0.1,0.3
			C424.3,186.1,424.3,186.1,424.3,186z M414.4,175.1c0.4-0.3,0.9-0.4,1.5-0.4c1.3,0,2.9,0.7,4.6,2c2.7,2.1,5.2,5.9,4.5,9.2
			c0,0.1,0,0.1,0,0.2c-0.1-0.1-0.1-0.3-0.2-0.4c0,0,0,0,0,0c0,0,0,0,0,0c-0.9-1.2-2.1-2-3.5-2.6c-0.1,0-0.2,0-0.3,0.1c0,0,0,0,0,0
			c0,0,0,0,0,0c-0.1,0-0.1,0-0.2,0c0,0-0.1,0-0.1,0c-1.1-0.5-2.5-0.7-3.8-0.4c-0.8,0.1-1.6,0.4-2.3,0.8c-0.5-0.9-0.9-1.8-1-2.6
			c0,0,0,0,0,0C413,177.8,413.3,175.9,414.4,175.1z"/>
		<path d="M293.6,220.1c0.9,0.5,1.9,0.7,3,0.7c0.5,0,1,0,1.5-0.1c0.3,0,0.6,0,0.8-0.1c0.1,0,0.2-0.1,0.2-0.2c1-0.4,2-0.9,2.9-1.7
			c2.4-2.1,3.5-5.2,3-8.5c-0.6-4.2-2.5-6.9-5.2-7.3c-0.6-0.2-1.2-0.3-1.8-0.3c-1.4,0.1-2.7,1-3.7,2.2c-0.5,0.4-0.9,0.8-1.3,1.3
			c-1.7,2.1-2.7,4.8-2.8,7.5c0,0,0,0,0,0C290.2,216.7,291.5,219,293.6,220.1z M292.4,217.6c-0.1-0.1-0.1-0.2-0.2-0.3
			c0.1-0.1,0.1-0.3,0.2-0.4V217.6z M293.1,218.5c0-0.1,0-0.1-0.1-0.2c0,0,0-0.1,0-0.1c0,0,0,0,0,0c0,0,0,0,0-0.1c0,0,0,0,0,0
			c0.2,0.3,0.5,0.6,0.8,0.9C293.5,218.9,293.3,218.7,293.1,218.5z M296.2,215.2c-0.9,0.6-1.7,1.4-2.5,2.2l0,0c0,0,0,0,0,0.1
			c0,0,0,0-0.1,0c-0.1,0.1-0.1,0.1-0.1,0.2c-0.1-0.2-0.2-0.4-0.3-0.7c-0.3-1.1,0.4-2.1,1.2-2.7c0,0,0.1,0,0.1,0h0.2
			c0.1,0,0.3,0.1,0.4,0.2c0,0,0,0,0,0c0.1,0.1,0.1,0.1,0.2,0.1c0,0,0,0,0,0c0.1,0.1,0.2,0.1,0.3,0.2
			C295.8,214.9,296,215.1,296.2,215.2z M295.7,214.1L295.7,214.1l0.3,0.2c0,0-0.1,0-0.1-0.1L295.7,214.1z M294.1,218
			C294.1,218,294.2,218,294.1,218l1.5-0.9c-0.2,0.2-0.4,0.4-0.6,0.6c0,0-0.1,0-0.1,0l-0.6,0.4C294.2,218.1,294.1,218.1,294.1,218z
			 M297.1,219.8c-0.8-0.1-1.7-0.5-2.3-0.9c0,0,0,0,0,0c0.1,0,0.1-0.1,0.2-0.1c0,0,0,0,0,0c0,0,0,0,0,0c0.7-0.8,1.5-1.5,2.6-2.2
			c0,0.1,0.1,0.1,0.1,0.2c0,0,0.1,0.1,0.1,0.1c0.7,0.8,1.2,1.6,1.7,2.4c0,0,0,0,0,0c0,0,0,0.1,0.1,0.1
			C298.7,219.6,297.9,219.8,297.1,219.8z M298.1,215L298.1,215c0.2-0.2,0.4-0.2,0.5-0.3L298.1,215z M298.3,215.7v0.2l-0.2,0.1v-0.2
			L298.3,215.7z M297.9,214.3c-0.4-0.4-0.8-0.7-1.2-0.9c1-0.1,2.2,0,3.2,0.3C299.3,213.8,298.6,214,297.9,214.3z M297.5,215.8
			L297.5,215.8C297.5,215.8,297.5,215.8,297.5,215.8l-0.2-0.2L297.5,215.8z M300.5,218.7l-1.6-1.6l0-0.1L300.5,218.7
			C300.5,218.7,300.5,218.7,300.5,218.7C300.5,218.7,300.5,218.7,300.5,218.7z M302.4,216.6v0.3c0,0.1-0.1,0.3-0.1,0.4
			c-0.4,0.4-0.8,0.8-1.2,1.1c0,0-0.1-0.1-0.1-0.2c0,0,0,0,0,0c0,0,0,0,0,0c-0.5-1-1.1-1.9-1.8-2.6c0.6-0.2,1.2-0.4,1.8-0.5
			c0,0,0,0,0.1,0c0.1,0,0.1,0,0.1,0c0.1,0,0.3,0,0.4-0.1h0.3c0.1,0,0.1,0,0.2,0c0.1,0.1,0.1,0.1,0.1,0.2c0,0.1,0,0.2,0.1,0.3
			l0.2,0.2c0.1,0.2,0.1,0.5,0.1,0.7C302.4,216.5,302.4,216.5,302.4,216.6z M300.5,214.5l0.2-0.1v0.1
			C300.6,214.5,300.5,214.5,300.5,214.5z M303.2,215.9l-0.3-0.5c0,0,0,0,0,0C303,215.5,303.1,215.7,303.2,215.9
			C303.2,215.8,303.2,215.9,303.2,215.9z M290.8,214.7c-0.1-0.3-0.1-0.7-0.1-1.1c0-1.1,0.2-2.1,0.5-3.1c-0.3,1.1-0.5,2.2-0.5,3.2
			C290.8,214,290.8,214.4,290.8,214.7z M291.4,213.7C291.4,213.7,291.4,213.7,291.4,213.7c0-2.6,1.3-6.2,3.2-8.4
			c1.3-1.1,2.7-1.7,4-1.8c0.3,0,0.7,0,1,0c1,0.4,1.7,1.2,2.3,1.9c1.7,2.3,2.6,6,2,8.6c-0.1,0.4-0.2,0.8-0.3,1.1
			c-1-1.2-2.4-2.1-4.4-2.5c-0.1,0-0.2,0-0.3,0.1c-0.7-0.1-1.5-0.1-2.2,0c-0.1,0-0.1-0.1-0.2-0.1c-2.2,0.3-4,1.4-4.9,3
			C291.5,215,291.4,214.4,291.4,213.7z M291.8,216.5c0.2-0.6,0.6-1.1,1-1.5c0,0,0,0,0,0.1c0,0,0,0,0,0
			C292.4,215.6,292.1,216,291.8,216.5C291.8,216.6,291.8,216.5,291.8,216.5z"/>
		<path d="M344.5,53.8C344.5,53.9,344.5,53.9,344.5,53.8C344.6,53.9,344.6,53.9,344.5,53.8l10.6,13.8c0,0,0,0,0,0c0,0,0,0,0,0
			c0,0,0,0,0,0c0,0,0,0,0,0c0,0,0.1,0,0.1,0c0,0,0,0,0,0c0,0,0,0,0,0c0,0,0.1,0,0.1,0c0,0,0,0,0,0c0,0,0,0,0,0c0,0,0,0,0,0
			c0,0,0,0,0,0l12-18.6c0,0,0,0,0,0c0,0,0-0.1,0-0.1c0,0,0,0,0,0c0,0,0,0,0,0c0,0,0-0.1,0-0.1c0,0,0,0,0,0c0,0,0,0,0,0
			c0,0,0-0.1,0-0.1c0,0,0,0-0.1-0.1c0,0,0,0,0,0c0,0,0,0,0,0c0,0-0.1,0-0.1,0c0,0,0,0,0,0c0,0,0,0,0,0c0,0-0.1,0-0.1,0c0,0,0,0,0,0
			l-6.1,1.3l1.5-33.1c0,0,0,0,0,0c0,0,0,0,0,0c0,0,0,0,0,0c0,0,0,0,0-0.1c0,0,0,0,0-0.1c0,0,0,0,0-0.1c0,0,0,0,0,0c0,0,0,0-0.1,0
			c0,0,0,0-0.1,0c0,0,0,0,0,0c0,0,0,0,0,0c0,0,0,0,0,0l-9.9,2c0,0,0,0,0,0c0,0,0,0-0.1,0c0,0,0,0-0.1,0c0,0,0,0,0,0c0,0,0,0,0,0.1
			c0,0,0,0,0,0.1c0,0,0,0,0,0.1c0,0,0,0,0,0L350.9,52l-6.2,1.3c0,0,0,0,0,0c0,0,0,0-0.1,0c0,0,0,0-0.1,0c0,0,0,0,0,0c0,0,0,0,0,0
			c0,0,0,0,0,0.1c0,0,0,0,0,0.1c0,0,0,0,0,0.1c0,0,0,0,0,0.1C344.5,53.7,344.5,53.8,344.5,53.8C344.5,53.8,344.5,53.8,344.5,53.8
			C344.5,53.8,344.5,53.8,344.5,53.8z M351.3,52.6C351.3,52.6,351.3,52.6,351.3,52.6C351.3,52.6,351.3,52.6,351.3,52.6
			c0.1-0.1,0.1-0.1,0.1-0.1c0,0,0,0,0,0c0,0,0,0,0-0.1c0,0,0,0,0-0.1c0,0,0,0,0-0.1c0,0,0,0,0,0l1.3-33.3l9.3-1.9l-1.5,33.1
			c0,0,0,0,0,0c0,0,0,0,0,0c0,0,0,0,0,0c0,0,0,0,0,0.1c0,0,0,0,0,0.1c0,0,0,0,0,0c0,0,0,0,0.1,0c0,0,0,0,0,0c0,0,0.1,0,0.1,0
			c0,0,0,0,0,0c0,0,0,0,0,0c0,0,0,0,0,0c0,0,0,0,0.1,0l5.7-1.2l-11.3,17.5l-10-12.9L351.3,52.6z"/>
		<path d="M438.8,162.6c0-0.2-0.2-0.3-0.3-0.3c0,0,0,0,0,0c-1-13.4-6.1-25.7-15.5-36.5c-11.2-13-25.7-20.7-35.9-24.8
			c-7.6-3.1-15.4-5.5-23.7-7.2c1.5-1,2.9-2,4.4-3c0,0,0.1-0.1,0.1-0.1c0,0,0,0,0,0c0,0,0,0,0,0c0,0,0,0,0-0.1c0,0,0,0,0-0.1
			c0,0,0,0,0-0.1c0,0,0,0,0-0.1c0,0,0,0,0,0c0-0.1,0-0.1,0-0.2c-0.3-2-1.7-4-2.9-5.7c-0.3-0.5-0.6-1-0.9-1.4l0.3-0.4c0,0,0,0,0,0
			c0,0,0,0,0-0.1c0,0,0,0,0-0.1c0,0,0,0,0-0.1c0.2-0.6,0.2-1.1,0.1-1.6c0-0.1,0-0.1,0-0.2c0,0,0-0.1-0.1-0.1c-0.2-0.6-0.6-1.2-1-1.7
			c-0.1-0.1-0.2-0.3-0.3-0.4c0,0-0.1-0.1-0.1-0.1l0,0l-0.2-0.3c-0.8-1.3-1.7-2.7-3.3-2.7c0,0,0,0,0,0c0,0,0,0,0,0
			c-0.2,0.1-0.4,0.1-0.6,0.2c0,0,0,0,0,0c-1.7-2.8-3.5-5-5.2-6.3c0,0,0,0,0,0c0,0,0,0-0.1,0c0,0,0,0-0.1,0c0,0,0,0,0,0
			c0,0-0.1,0-0.1,0c0,0,0,0,0,0c0,0,0,0,0,0c0,0,0,0-0.1,0c0,0,0,0,0,0c0,0,0,0,0,0c0,0,0,0,0,0c0,0,0,0-0.1,0c0,0,0,0-0.1,0
			c0,0,0,0-0.1,0c0,0,0,0,0,0c0,0,0,0,0,0c0,0,0,0,0,0c-7.2,4.9-14.4,9.9-21.4,14.8c-3.7,2.5-7.4,5.1-11.1,7.7c0,0-0.1,0-0.1,0
			c-28,3.4-64.7,14-80.8,45.5c-3.2,6.1-5.1,12.7-5.8,20.2c0,0,0,0,0,0c-0.2,0-0.3,0.1-0.3,0.3c-0.3,3.7-0.2,7.3,0.1,10.9
			c-0.2,0-0.3,0.2-0.3,0.4c0.1,4.6,0.6,9.3,1.1,13.8c0.2,1.9,0.4,4,0.6,5.9c0,0,0,0,0,0c0,0,0,0,0,0c0.9,5.9,2.1,10.9,3.9,15.8
			c0,0,0,0,0,0c0,0,0,0,0,0c2.3,5,5.1,9.7,8.4,14c0,0.1,0,0.2,0,0.3c6.9,9.8,17.5,18.3,31.6,25.3c17.5,8.7,37.2,13.2,57.8,13.2
			c4.4,0,8.7-0.2,13.2-0.6c16.6-1.5,47.2-7,65.9-27c1.1-1,2.1-2,3.1-3c0,0,0.1,0,0.1-0.1c0.1-0.1,0.2-0.3,0.3-0.4
			c1.9-2,3.7-4.2,5.4-6.3c6.2-8.2,9.9-17,11.1-26c0,0,0,0,0,0c0.3-2.4,0.7-4.9,1.1-7.3c0.6-4,1.3-8.1,1.7-12.2c0-0.1,0-0.2-0.1-0.3
			C438.8,170.3,439,166.7,438.8,162.6z M365.3,87.4C365.3,87.4,365.3,87.3,365.3,87.4c0.2,0.1,0.3,0.1,0.4,0.2c0,0,0.1,0,0.1,0
			c0.1,0,0.2,0,0.2-0.1c0.1-0.1,0.1-0.2,0.1-0.2c0.4,0.7,0.7,1.3,0.9,2C366.4,88.6,365.8,88,365.3,87.4
			C365.3,87.3,365.3,87.4,365.3,87.4z M364.4,85.8c-0.4-0.3-0.8-0.7-1.1-1.2c0,0,0,0,0,0c0.1,0.1,0.1,0.1,0.2,0.1
			c0.1,0,0.2,0,0.2-0.1c0,0,0,0,0,0C364,85,364.2,85.4,364.4,85.8z M360.7,76.2c0,0.2,0.1,0.3,0.2,0.4c0.1,0.1,0.2,0.2,0.2,0.3
			c0,0,0,0,0,0c0,0,0,0,0,0c0.8,1.5,1.7,2.7,2.7,3.8c0.1,0.3,0.1,0.6,0.1,0.9c-1.1-1.2-2-2.7-2.9-4.1c-0.3-0.4-0.5-0.8-0.8-1.2
			c0,0,0,0,0,0c0,0,0,0,0,0c-0.1-0.1-0.2-0.3-0.3-0.4C360.2,75.9,360.5,76,360.7,76.2z M359,75.9c0.1,0,0.1,0,0.2-0.1
			c0.1,0.3,0.3,0.6,0.5,0.9c0.3,0.4,0.5,0.8,0.8,1.2c1,1.5,2,3.1,3.2,4.4l-0.2,0.4c-1.6-1.6-2.9-3.7-4.1-5.8l-0.1-0.1v0
			c-0.1-0.1-0.1-0.3-0.2-0.4c-0.1-0.1-0.1-0.2-0.2-0.4C358.9,75.9,359,75.9,359,75.9z M358.2,76c0.1,0.2,0.2,0.4,0.3,0.6
			c0.1,0.1,0.1,0.3,0.2,0.4c0,0,0,0,0,0c0,0,0,0,0,0l0.1,0.1c1.2,2,2.6,4.3,4.3,6c-0.2,0.3-0.2,0.7-0.1,1c0,0.1,0,0.1,0.1,0.2
			c-1.8-2.1-3.5-5.1-4.8-7.6c-0.2-0.3-0.3-0.6-0.5-0.9C357.9,76,358,76,358.2,76z M355.8,72c-0.1-0.1-0.1-0.1-0.2-0.2
			c-0.1-0.1-0.3-0.1-0.4,0c-0.1,0-0.1,0.1-0.1,0.2c-0.3-0.6-0.7-1.2-0.9-1.8C354.7,70.7,355.2,71.3,355.8,72z M331.9,84.3
			c6.9-4.8,14-9.7,21.1-14.6c0.3,1,0.8,1.9,1.5,3c0.4,0.6,0.7,1.3,1.1,2c3,5.3,7,12.5,11.4,15.7c-1.6,1.1-3.1,2.1-4.7,3.2
			c0,0,0,0,0,0c-0.1,0.1-0.2,0.2-0.4,0.2c-0.1,0-0.2,0.1-0.2,0.2c-2.6,1.8-5.2,3.6-7.8,5.4l-0.1,0c-0.1,0-0.1,0-0.1,0.1l0,0
			c-0.1,0-0.2,0.1-0.2,0.2c-1.3,0.9-2.5,1.8-3.8,2.6l-0.2,0c-0.1,0-0.2,0.1-0.2,0.3c-0.3,0.2-0.6,0.4-0.9,0.6l-0.2,0
			c-0.1,0-0.2,0.1-0.2,0.3c-1.2,0.8-2.4,1.7-3.6,2.5c-12.4,8.6-25.1,17.5-37.8,25.9l-0.5,0.1c-0.2,0-0.3,0.2-0.2,0.4
			c-1.5,1-3,2-4.5,2.9l-0.3,0.1c-0.1,0-0.2,0.1-0.2,0.2c0,0-0.1,0-0.1,0c-0.1,0-0.2,0.1-0.2,0.3c-1.4,0.9-2.8,1.8-4.2,2.7
			c0,0,0,0,0,0c-5,1.2-10.1,2.4-15.2,3.6c0,0,0,0,0,0c0,0,0,0,0,0c0,0,0,0,0,0c0,0,0,0,0,0c-0.3,0.1-0.6,0.3-0.8,0.7
			c0,0.1,0,0.2,0,0.2c-0.2,0.4-0.4,0.8-0.5,1.3c-1.2-1.3-2.8-3.1-4.1-5.1c0,0,0,0,0,0c-0.1-0.2-0.2-0.5-0.3-0.7
			c-0.3-0.6-0.6-1.2-0.9-1.8c0-0.1-0.1-0.2-0.1-0.2c-0.1-0.2-0.3-0.3-0.6-0.4c-0.1,0-0.2-0.1-0.3-0.1c-1.2-1.8-2.2-3.7-3.1-5.6
			c0,0,0,0,0,0c0,0,0,0,0,0c-0.5-0.9-0.8-1.8-1-2.9c0-0.2,0.1-0.4,0.1-0.5c0.2-0.1,0.3-0.2,0.5-0.3c0,0,0,0,0,0
			c3.2-2.2,6.5-4.4,9.7-6.6c0.4-0.3,0.8-0.6,1.2-0.8l0,0c0.1,0,0.2-0.1,0.2-0.2c1.9-1.3,3.7-2.6,5.6-3.8c0,0,0,0,0,0
			c0.1,0,0.1-0.1,0.2-0.1c0.1-0.1,0.2-0.1,0.3-0.2C302.1,104.9,317.2,94.4,331.9,84.3z M408.8,155.4c2.1,3.6,4.5,7.7,1.1,10.9
			c-2.1,1.9-5.4,2.6-8.3,3.3c-0.7,0.2-1.4,0.3-2.1,0.5c0,0,0,0,0,0l-12.7,3.2c0,0,0,0,0,0c0,0,0,0,0,0c-5.1,1.4-5.1,6.3-5.1,11
			c0,0.1,0,0.1,0,0.2l0.7,6.4c0,0.4,0,0.8,0.1,1.2c0.1,2.5,0.3,5.3-1.4,6.8c-11.1,4.6-22.1,7.3-34.5,8.7c-3.1,0-5.7-4.3-6.7-6.1
			c0,0,0,0,0,0l-5.2-10.2c0.5,0.3,1.1,0.4,1.8,0.4c0.5,0,1-0.1,1.6-0.2c0,0,0,0,0,0l34.2-8.5c0,0,0,0,0,0c1.8-0.3,3.4-1.4,4.6-3.1
			c0,0,0,0,0,0c0,0,0,0,0,0l1.5-2.5c2-2.8,4.3-4.4,7.6-5.3l20.9-5.1c0,0,0,0,0,0c0.8-0.1,1.4-0.5,1.7-1.1c0.3-0.5,0.4-1.2,0.1-2
			c0,0,0,0,0,0c0,0,0,0,0,0c0,0,0,0,0,0l-0.2-0.5c0.1,0,0.1,0,0.2-0.1c0.1-0.1,0.1-0.3,0-0.4c0-0.1-0.1-0.2-0.1-0.3
			c-0.1-0.1-0.2-0.1-0.3-0.1c-0.8-4.8-3.1-8.3-6.1-9.4c0,0,0,0,0,0c0,0,0,0,0,0c0,0,0,0,0,0c0,0,0,0,0,0h-0.2l0.2-2.4c0,0,0,0,0,0
			c0,0,0,0,0,0c0,0,0,0,0,0c0,0,0,0,0,0c0,0,0,0,0,0c0-0.1,0-0.2,0-0.3c1.3-0.2,2.4,0.3,3.2,1.2c0.1,0.1,0.1,0.1,0.2,0.1
			c0.1,0,0.2,0,0.2-0.1c0.1-0.1,0.1-0.4,0-0.5c-1-1.2-2.5-1.7-4.2-1.3c0,0,0,0,0,0l-0.6,0.1c0,0,0,0,0,0l0,0c0,0,0,0,0,0
			c0,0,0,0,0,0c-0.2,0.1-0.4,0-0.5-0.1l-2.1-3.8c0,0,0,0,0.1,0l0.7-0.1c0,0,0,0,0,0c0,0,0,0,0,0c0.8-0.2,1.4-0.6,1.6-1.2
			c0.3-0.5,0.3-1.1,0.1-1.8c0,0,0,0,0,0c0,0,0,0,0-0.1c0,0,0,0,0-0.1c0,0,0,0,0,0c0,0,0,0,0,0c0,0,0,0-0.1,0c0,0,0,0-0.1,0
			c0,0,0,0,0,0c-0.1,0-0.3,0.1-0.4,0.1l-4.9-8.3c0,0,0,0,0,0c0,0,0,0,0,0c-0.8-1-2.1-1.4-3.5-1.1c0,0,0,0,0,0l-0.4,0.1
			c0-0.1-0.1-0.2-0.1-0.4c0,0,0,0,0,0c0,0,0,0,0-0.1c0,0,0,0,0,0c0,0,0,0-0.1,0c0,0,0,0-0.1,0c0,0,0,0-0.1,0c0,0,0,0-0.1,0
			c0,0,0,0,0,0c-0.2,0.1-0.3,0-0.3,0c0,0,0,0,0,0c0,0,0,0,0,0l-2.1-3.7c0.1,0,0.3,0,0.5-0.1c0,0,0.1,0,0.1,0
			c0.5-0.1,0.9-0.4,1.1-0.7c0.1,0,0.2-0.1,0.2-0.2c0,0,0,0,0,0c0.2-0.4,0.3-0.9,0.2-1.5c0,0,0,0,0,0c0,0,0,0,0,0c0,0,0,0,0,0
			c0,0,0,0,0,0c0,0,0-0.1,0-0.1c0,0,0,0,0,0l0,0c0,0,0,0,0,0l-4.9-8.4c0,0,0,0,0,0c0,0,0,0,0,0c-1-1-2.2-1.4-3.5-1.1c0,0,0,0,0,0
			l-0.3,0.1c-0.1-0.1-0.1-0.3-0.2-0.3c0,0,0,0,0,0c0,0,0,0,0,0c0,0,0,0,0,0c0,0,0,0-0.1,0c0,0,0,0-0.1,0c0,0,0,0,0,0
			c-0.2,0-0.2,0-0.3,0l-0.1-0.1l-2-3.4c0,0,0,0,0,0c0,0,0,0,0,0c0,0,0,0,0.1,0c0,0,0,0,0,0c0,0,0,0,0-0.1c0,0,0,0,0,0
			c0,0,0-0.1,0-0.1c0-0.2-0.1-0.4-0.4-0.4c-0.9-3.7-2.2-7.2-5.5-8.4c0,0,0,0,0,0c0,0,0,0,0,0l-0.2,0l0.2-2.4c0,0,0,0,0,0
			c0,0,0,0,0,0c0,0,0-0.1,0-0.1c0,0,0,0,0,0c0,0,0,0,0,0c0-0.3-0.2-0.5-0.3-0.7c0,0,0,0,0,0c0,0,0,0,0,0c0,0,0,0-0.1,0
			c0,0,0,0-0.1,0c0,0,0,0-0.1,0c0,0,0,0,0,0l-0.6,0.1c0,0,0,0,0,0l0,0c0,0,0,0,0,0c0,0,0,0,0,0c-0.2,0.1-0.3,0-0.3,0c0,0,0,0,0,0
			c0,0,0,0,0,0l-0.3-0.5c0,0,0,0,0,0c0,0,0,0,0,0c0,0,0,0,0,0c0,0,0,0,0,0c-0.9-1.1-2.3-1.5-3.8-1.2c0,0,0,0,0,0c0,0,0,0,0,0
			c0,0,0,0,0,0l0,0c0,0,0,0,0,0c0,0,0,0,0,0l-15.7,3.6c0.9-0.6,1.7-1.2,2.6-1.8l4.5-0.9c0,0,0,0,0,0c0.5-0.1,1.1-0.2,1.7-0.4
			c0.5-0.1,1-0.2,1.5-0.3c6.8-1.1,11.8-0.8,16.2,4.6c0.5,0.8,1.1,1.6,1.5,2.6c0,0,0,0,0,0c0,0,0,0,0,0c2.4,4,4.8,8,7.2,12
			c2.4,4,4.8,8.1,7.2,12.1c0,0,0,0,0,0c2.5,4.2,5,8.5,7.4,12.7c2.5,4.2,4.9,8.4,7.4,12.7v0L408.8,155.4z M269.1,120.6
			C269.1,120.6,269.1,120.6,269.1,120.6C269.1,120.6,269.1,120.6,269.1,120.6c-1.5,0.4-2.2,1.4-2,2.9c0,0,0,0,0,0c0,0,0,0,0,0
			c0,0,0,0,0,0c0,0,0,0,0,0.1c0,0,0,0,0,0c0,0,0,0,0,0l0,0c0,0,0,0,0,0l0.2,0.3c0,0,0,0,0,0c0,0,0,0-0.1,0.1l-0.7,0.2
			c-0.8,0.1-1.4,0.4-1.8,0.9c-0.3,0.5-0.5,1.1-0.4,1.8c0,0,0,0,0,0c0,0,0,0,0,0c0,0,0,0,0,0c0,0,0,0,0,0c0,0,0,0,0,0c0,0,0,0,0,0
			c0,0,0,0,0,0c0,0,0,0,0,0l4,8.6c0,0,0,0,0,0c0,0,0,0,0,0c0,0,0,0,0,0c0,0,0,0,0,0c0,0,0,0,0,0c0.3,0.5,0.8,0.8,1.3,1
			c0.4,0.2,0.8,0.4,1.2,0.4c0,0,0,0,0,0c0,0,0.1,0,0.1,0c0,0,0,0,0,0c0,0,0,0,0,0c0.1,0,0.1,0,0.2,0c0.3,0,0.7,0,1-0.1c0,0,0,0,0,0
			c0,0,0,0,0,0l0.7-0.2c0.2,0,0.4,0.1,0.4,0.1l1.8,3.7c0,0,0,0,0,0c0,0,0,0-0.1,0l-0.6,0.1c0,0,0,0,0,0l0,0c0,0,0,0,0,0s0,0,0,0
			c-0.8,0.1-1.5,0.5-1.9,1.2c-0.3,0.5-0.4,1.1-0.3,1.8c0,0,0,0,0,0c0,0,0,0,0,0c0,0,0,0,0,0c0,0,0,0,0,0l4.1,8.8c0,0,0,0,0,0
			c0,0,0,0,0,0c0.6,0.9,1.4,1.4,2.3,1.5c0,0,0.1,0,0.1,0c0,0,0.1,0,0.1,0c0.1,0,0.2,0,0.3,0c0.4,0,0.7,0,1.2-0.1c0,0,0,0,0,0
			c0,0,0,0,0,0l0.7-0.2c0,0,0,0,0,0c0,0,0,0,0,0c0,0,0.1,0,0.1,0c0,0,0.1,0,0.1,0c0,0,0,0,0,0c0,0,0.1,0,0.1,0.1c0,0,0,0,0,0
			c0,0,0,0,0,0l1.9,3.8c0,0,0,0.1,0,0.1c0,0,0,0-0.1,0c0,0,0,0,0,0c0,0,0,0,0,0c0,0,0,0,0,0l-0.7,0.2c0,0,0,0,0,0
			c-0.8,0.1-1.4,0.5-1.8,1.1c-0.3,0.5-0.5,1.2-0.4,1.9c0,0,0,0,0,0c0,0,0,0,0,0c0,0,0,0,0,0c0,0,0,0,0,0c0,0,0,0,0,0c0,0,0,0,0,0
			c0,0,0,0,0,0c0,0,0,0,0,0l4.3,9.1c0,0,0,0,0,0c0,0,0,0,0,0c0.6,1,1.7,1.6,2.9,1.6c0.2,0,0.4,0,0.5,0c0,0,0,0,0,0h0.4
			c0.1,0,0.2,0,0.3-0.1l0.7-0.1c0,0,0,0,0,0c0,0,0,0,0,0c0.1,0,0.2,0,0.4,0.1l1.9,4c0,0-0.1,0-0.1,0l-0.7,0.2
			c-0.8,0.1-1.5,0.5-1.9,1.1c-0.4,0.6-0.5,1.3-0.4,2c0,0,0,0,0,0c0,0,0,0,0,0c0,0,0,0,0,0l4.5,9.4c0,0,0,0,0,0c0,0,0,0,0,0
			c0,0.1,0.1,0.1,0.1,0.2c-1.2-1.3-2.2-3-3.2-5.1c0,0,0,0,0,0c0,0,0,0,0,0c-3.3-7-6.6-14.1-10-21.2c-3.5-7.9-7.2-15.9-11.1-23.6
			c-1.2-2.5-2.3-4.9-3.4-7.4c-0.1-0.2-0.2-0.4-0.2-0.6c0-0.1,0-0.2,0-0.3c0-0.1-0.1-0.2-0.2-0.2c-1.4-3.4-2.3-6.5,0.6-9.1
			c2.4-2,6-2.7,9.2-3.4c0.5-0.1,0.9-0.2,1.4-0.3c0,0,0,0,0,0c0,0,0,0,0,0l8.1-1.9c-0.9,0.6-1.8,1.2-2.6,1.8c0,0,0,0,0,0L269.1,120.6
			z M279,119.7c-2.9,2-6,4.1-9,6.2l-0.2-4.1L279,119.7z M268.9,126.6C268.9,126.6,268.9,126.6,268.9,126.6
			C268.9,126.6,268.9,126.6,268.9,126.6c-0.1,0.1-0.1,0.1-0.1,0.1c0,0,0,0,0,0c-0.1,0.1-0.1,0.3-0.2,0.6l-0.2-3.2c0,0,0,0,0,0
			c0,0,0,0,0,0c0-0.1-0.1-0.2-0.1-0.2c0,0,0,0,0,0c0-0.1,0-0.1,0-0.1c0-0.2-0.2-0.4-0.3-0.5c0-0.1,0-0.1,0-0.2
			c0.2-0.6,0.6-1,1.1-1.1l0.3,4.4C269.2,126.4,269.1,126.5,268.9,126.6z M269,133.2c0.4,0.7,0.7,1.4,1.1,2.1
			c-0.2,0.1-0.4,0.2-0.5,0.4c0-0.1-0.1-0.1-0.1-0.2c0,0,0,0,0,0c0,0,0,0,0,0c0-0.1,0-0.2-0.1-0.3c-0.2-0.3-0.3-0.7-0.5-1l0-0.2
			C268.9,133.8,268.9,133.5,269,133.2z M268.4,132.4c0,0.3,0,0.6-0.1,0.9l-0.1-1.6c0,0.1,0.1,0.1,0.1,0.2L268.4,132.4z M268,127.6
			c0-0.1-0.1-0.1-0.1-0.2l-0.2-2.3c0,0,0.1,0,0.1-0.1L268,127.6z M267.6,131.7c0-0.1-0.1-0.1-0.1-0.2c0-0.6-0.1-1.2-0.1-1.8
			c0,0.1,0.1,0.2,0.1,0.2L267.6,131.7z M267.3,127.4C267.3,127.4,267.2,127.4,267.3,127.4c-0.1-0.7-0.2-1.4-0.2-2.1l0.1,0
			L267.3,127.4z M266.8,130c-0.5-1.1-1-2.1-1.4-3.1c0,0,0,0,0,0c0,0,0,0,0,0c0,0,0,0,0-0.1c0.2-0.6,0.5-1,1.1-1.3
			C266.6,126.9,266.7,128.5,266.8,130z M270.1,136.2c0.1-0.1,0.1-0.2,0.2-0.2c0.1,0,0.1,0.1,0.2,0.2c0,0,0,0,0,0
			c0,0.1,0.1,0.1,0.1,0.2C270.4,136.3,270.2,136.3,270.1,136.2z M271.3,136.3c0,0,0,0.1,0.1,0.1c0,0,0,0,0,0
			C271.4,136.4,271.3,136.4,271.3,136.3z M272.3,136c0,0.1,0.1,0.1,0.1,0.2c0,0,0,0,0,0C272.3,136.2,272.3,136.1,272.3,136z
			 M275.2,144.2C275.1,144.2,275.1,144.2,275.2,144.2l-0.2-2.1l0.1,0L275.2,144.2z M274.7,146.6c-0.4-0.9-0.9-1.9-1.4-2.9
			c0,0,0,0,0,0c0,0,0-0.1,0-0.1c0,0,0-0.1,0-0.1c0.2-0.6,0.5-1.1,1.1-1.3L274.7,146.6z M276,145.7C276,145.7,276,145.7,276,145.7
			C276.1,145.7,276.1,145.7,276,145.7l1,1.4c0,0,0,0,0,0c0,0,0,0,0,0l0.1,0.1c0.4,0.9,0.8,1.8,1.2,2.7c0,0,0,0,0,0.1
			c0,0.1,0.1,0.1,0.1,0.2c0.1,0.2,0.1,0.3,0.2,0.5c0,0,0,0,0,0c0,0,0,0,0,0l0.3,0.6c0.3,0.7,0.7,1.5,1.1,2.2c0,0,0,0.1-0.1,0.1
			c-0.2,0-0.3,0-0.5,0c-0.2-0.3-0.4-0.6-0.5-0.9c0-0.1,0-0.1-0.1-0.2c0,0,0,0,0,0c-0.8-1.4-1.5-2.8-2.1-4.2c0,0,0,0,0,0c0,0,0,0,0,0
			c-0.3-0.6-0.5-1.2-0.8-1.8l0,0c0-0.1,0-0.2-0.1-0.2c-0.2-0.5-0.4-1-0.5-1.5c0,0,0.1,0,0.1-0.1L276,145.7z M275.6,141.9
			C275.7,141.9,275.7,141.9,275.6,141.9c0.1,0.2,0.1,0.4,0.1,0.6c0,0.6,0.1,1.1,0.1,1.7l0,0c0,0,0,0,0,0c0,0,0,0,0,0L275.6,141.9z
			 M278.9,149.5c-0.4-0.9-0.8-1.8-1.2-2.6c0,0,0,0,0,0c0,0,0,0,0-0.1l-0.1-0.1l-0.9-1.3c-0.1-0.5-0.1-1.1-0.1-1.6
			c0.3,0.4,0.6,0.7,1,1.1c0.3,0.3,0.5,0.6,0.8,0.8c0,0,0,0,0,0c0,0.1,0.1,0.2,0.2,0.2c0.4,0.2,0.8,0.5,1.1,0.8
			c0,0.8,0.1,1.7,0.1,2.5L278.9,149.5z M279.8,150.6c0.1,0.4,0.1,0.8,0.2,1.1l-0.4-0.8c0-0.1-0.1-0.2-0.1-0.2L279.8,150.6z
			 M280.2,146.5c0.1-0.1,0-0.3-0.1-0.4c0,0,0-0.1,0-0.1c0,0,0.1,0,0.1-0.1c0.1-0.1,0.1-0.3,0-0.4c0.1-0.1,0.1-0.3,0-0.4
			c0.1-0.7,0.4-1.3,0.7-1.8c0.4,0,0.7,0.2,1,0.6c0.5,0.7,1,1.7,1.4,2.3c2.1,4.9,3.3,9.6,3.8,13.9c-0.1,0-0.2,0.1-0.3,0.2
			c-0.2-4.3-1.3-8.6-3-11.9c-0.3-1-0.9-2.3-1.6-2.4c0-0.1-0.1-0.1-0.1-0.2c-0.1-0.1-0.3-0.1-0.4,0.1c-0.4,0.6-0.7,1.4-0.7,2.1
			c-0.3,1.2-0.3,2.7-0.2,3.6c-0.1,0.1-0.1,0.1-0.2,0.2c-0.1-0.5-0.2-1-0.2-1.5c0-0.1,0-0.1,0-0.2c0-0.1,0-0.1-0.1-0.2
			c0-0.1,0-0.2,0-0.3c0-0.1,0-0.1,0-0.2c0,0,0-0.1-0.1-0.1c-0.1-0.8-0.2-1.5-0.2-2.3c0,0,0,0,0,0
			C280.2,146.8,280.2,146.7,280.2,146.5z M370.3,107.2C370.3,107.2,370.3,107.2,370.3,107.2c0.1,0.9,0.1,1.7,0.2,2.6
			c0.1,1.1,0.1,2.2,0.2,3.3c0,0,0,0.1,0,0.1v0.1c-0.1,2.3-1.3,4.1-3.1,4.6c0,0,0,0,0,0l-59.2,13.7c12.3-8.1,24.4-16.6,36.3-24.9
			c1.3-0.9,2.6-1.8,3.9-2.7l18.9-4.2c0,0,0,0,0,0c0,0,0,0,0,0c1-0.3,2,0,2.7,0.8l0.3,0.5c0,0,0,0,0,0c0,0,0,0,0,0c0,0,0,0,0,0
			c0.3,0.3,0.7,0.5,1.1,0.5l-0.3,3.5l-1,1.8c0,0,0,0,0,0c0,0,0,0,0,0.1c0,0,0,0,0,0.1c0,0,0,0,0,0L370.3,107.2
			C370.3,107.2,370.3,107.2,370.3,107.2z M367.8,118.5C367.8,118.5,367.8,118.5,367.8,118.5C367.8,118.5,367.8,118.5,367.8,118.5
			c1.5-0.4,2.7-1.7,3.2-3.4c0.1,0.1,0.1,0.1,0.2,0.1c0,0,0,0,0,0c0.2,0,0.3-0.2,0.3-0.4c-0.2-1.7-0.3-3.4-0.4-5.1
			c-0.1-0.8-0.1-1.7-0.2-2.5v-0.1l1.6-3c3.1,1.2,4.3,4.9,5,8.5c0,0,0,0.1-0.1,0.2c0,0.2,0,0.4-0.1,0.6l-1.6,2.8c0,0,0,0,0,0
			c0,0,0,0,0,0.1c0,0,0,0,0,0.1c0,0,0,0,0,0v0.3c0,0,0,0,0,0c0,0,0,0,0,0l0.2,3.5c-0.6,0.1-1.2,0.3-1.8,0.4c-0.2-0.3-0.4-0.7-0.6-1
			c0,0,0,0,0,0c0,0,0,0,0,0c0,0,0,0,0,0c0,0,0,0,0,0c0-0.1-0.1-0.2-0.4-0.2c-0.1,0-0.2,0-0.2,0.1c-0.2,0.2-0.2,0.4-0.2,0.6l-1-1.6
			c0-0.2,0-0.5,0-0.7c0,0,0,0,0,0c0-0.1,0-0.1,0-0.2c0-0.2,0-0.5-0.1-0.7c0-0.2-0.2-0.3-0.4-0.3c-0.2,0-0.3,0.2-0.3,0.4
			c0,0.3,0.1,0.5,0.1,0.8c0,0.2-0.1,0.5-0.1,0.7c0,0.2,0,0.5-0.1,0.7c-0.1,0.2-0.2,0.4-0.4,0.5L303.1,135c1.2-0.8,2.4-1.6,3.6-2.3
			L367.8,118.5z M372,103.7l0.2-2.2l0.1,0l-0.2,2.1L372,103.7z M377.8,116.7c0.1-0.9,0.2-1.8,0.3-2.7l1.6,2.7l-0.3,4
			c-0.5-0.6-1.2-0.9-2-0.9C377.6,118.8,377.7,117.8,377.8,116.7z M377.2,116.1c-0.1,0.5-0.1,1-0.2,1.5l-0.1-1L377.2,116.1z
			 M372.6,121c-0.6,0.1-1.3,0.3-1.9,0.4l-0.5-0.9c0.2-0.1,0.3-0.1,0.4-0.2c0,0,0,0,0,0c0.1,0,0.2-0.1,0.2-0.2c0.1,0,0.1-0.1,0.2-0.1
			c0.2-0.2,0.3-0.4,0.5-0.7c0,0,0.1-0.1,0.1-0.1L372.6,121z M370,121.6c-5.6,1.3-11.5,2.7-17.7,4.1l-0.2-0.3c0,0,0,0,0,0
			c0,0,0,0,0,0l-0.3-0.5l17.7-4.1L370,121.6z M335.6,128.4c5-1.2,10.1-2.3,15.3-3.5l0,0c0,0,0,0,0,0c0,0,0,0,0,0.1c0,0,0,0,0,0.1
			c0,0,0,0,0,0.1c0,0,0,0,0,0.1c0,0,0,0,0,0l0.2,0.3l-0.3,0.3l-7.8,1.9c0,0,0,0,0,0c-0.2,0-0.5,0.2-0.6,0.3
			c-2.4,0.6-4.8,1.1-7.2,1.7c-0.7-0.3-1.5-0.4-2.3-0.3c-0.2,0-0.3,0.2-0.3,0.4c0,0.2,0.2,0.3,0.3,0.3c0.2,0,0.4,0,0.6,0
			c-8.2,1.9-16.7,3.9-25.4,5.9c0.2-0.1,0.3-0.1,0.5-0.2c0.2,0,0.3-0.2,0.2-0.4c0-0.2-0.2-0.3-0.4-0.3c-0.8,0.2-1.3,0.6-1.7,1.2
			c-2.4,0.6-4.9,1.1-7.3,1.7c0,0,0,0,0,0h-0.7c0,0,0,0,0,0c0,0,0,0,0,0c0.8-0.5,1.6-1.1,2.5-1.6C312.6,133.7,324.3,131,335.6,128.4z
			 M306.8,136.9C306.9,136.9,306.9,137,306.8,136.9c0.1,0,0.2,0,0.2-0.1c9.6-2.2,19.1-4.4,28.1-6.5c0,0,0,0,0,0c0.1,0,0.1,0,0.2,0
			c2.4-0.6,4.8-1.1,7.1-1.7c0,0,0,0,0,0c0,0,0.1,0,0.1,0c2.9-0.7,5.7-1.3,8.5-2c0,0,0,0,0,0c0,0,0,0,0,0c0.2,0,0.3-0.1,0.5-0.1
			c0,0,0,0,0,0c0,0,0.1,0,0.1,0c0,0,0,0,0,0c0.1,0,0.2,0,0.3-0.1c0,0,0,0,0.1,0c0.1,0,0.1,0,0.2,0c0,0,0,0,0,0
			c7.4-1.7,14.4-3.3,20.9-4.8c0.2,0,0.3-0.1,0.5-0.1c0,0,0,0,0,0c0,0,0,0,0.1,0c0,0,0.1,0,0.1,0c1.1-0.2,2.2-0.5,3.2-0.8
			c0,0,0,0,0,0c0.1,0,0.1,0,0.1,0c0.1,0,0.1,0,0.2-0.1c0.7,0,1.3,0.3,1.7,1c0,0,0,0,0,0c0,0,0,0,0,0c0.5,0.6,1,1.2,1.4,1.8
			c2.3,4.5,3.6,9.1,3.9,13.7c-18.5,3.3-37.2,8.1-55.2,12.8c-13.5,3.5-27.4,7.1-41.2,10c-0.7-5.1-2-10-3.7-13.7c0,0,0,0,0,0
			c0,0,0,0,0,0l-0.3-0.5c-0.5-1.1-1-2.2-2-2.9C290.4,140.8,298.7,138.8,306.8,136.9z M390.6,138.1
			C390.6,138.1,390.6,138.1,390.6,138.1c0.2,0,0.3-0.1,0.3-0.3l0.3-3.8l0.4-0.1c0,0,0,0,0,0c0,0,0,0,0,0c1.2-0.3,2.2,0,2.9,0.9
			l5,8.6l-0.2,1.2c-0.2,0.1-0.4,0.3-0.6,0.4c0,0-0.1,0-0.1,0h-0.1c0,0,0,0,0,0c0,0,0,0,0,0l-0.7,0.1c0,0,0,0,0,0c0,0,0,0,0,0
			c0,0,0,0,0,0c0,0,0,0,0,0c0,0,0,0,0,0c0,0,0,0,0,0c-0.3,0.1-0.6,0.5-0.7,0.8c0,0,0,0,0,0c0,0,0,0,0,0c0,0,0,0,0,0c0,0,0,0,0,0
			c0,0.1,0,0.2,0,0.2c0,0,0,0,0,0l-1.5,2.7l-5.5-9.6c0,0,0,0,0,0c0,0,0,0,0,0c0,0,0,0,0,0c0,0,0,0-0.1,0c0,0,0,0-0.1,0
			c0,0,0,0-0.1,0c0,0,0,0-0.1,0c0,0,0,0-0.1,0c0,0,0,0-0.1,0c0,0,0,0,0,0c0,0,0,0,0,0c0,0,0,0,0,0l-0.1,0.1
			c-0.1,0.1-0.1,0.2-0.1,0.3v0.2c0,0,0,0,0,0c0,0,0,0,0,0l0,0.8c-0.1-0.1-0.1-0.2-0.2-0.3c-0.1-0.1-0.1-0.1-0.2-0.2
			c-0.5-0.9-1.1-1.9-2-2.6l0.9-7.1l1.7,2.9c0,0,0,0,0,0c0,0,0,0,0,0c0,0,0,0,0,0c0,0,0,0,0,0c0.3,0.3,0.6,0.5,1,0.5l-0.3,3.7
			C390.3,137.9,390.4,138,390.6,138.1z M399.3,150.3l-0.4,4.6c0,0,0,0,0,0c0,0,0,0,0,0c0,0,0,0,0,0c-0.5-0.7-1.3-1.1-2.1-1.3
			l0.8-6.3L399.3,150.3z M396.5,149.2c-0.1,0.6-0.2,1.2-0.2,1.8l-0.1-1.3L396.5,149.2z M298.3,188.3
			C298.3,188.3,298.3,188.3,298.3,188.3C298.3,188.4,298.3,188.4,298.3,188.3c0.1,0.3,0.3,0.7,0.4,1h-0.6c0,0-0.1,0-0.1,0l0-0.1
			c0,0,0,0,0,0c-0.1-0.4-0.4-0.7-0.7-0.9c0-0.1-0.1-0.1-0.1-0.2c0.1-0.3,0.2-0.5,0.5-0.7C297.9,187.6,298.2,188,298.3,188.3z
			 M297.9,182.8c0.1-0.4,0.3-0.7,0.5-0.7c0.3-0.1,0.8,0.4,1.5,2.1c0,0,0,0,0,0c0,0,0,0,0,0c0.2,0.5,0.4,1,0.6,1.5
			c-0.4-0.6-0.8-0.9-1.2-0.9c-0.4,0-0.7,0.5-0.9,1.3l0,0l-0.5,0.3C297.7,185.2,297.6,183.9,297.9,182.8z M298.2,187l0.4-0.2
			c0.5,0.1,0.8,0.6,0.9,0.9c0,0,0,0,0,0c0,0,0,0,0,0c0.4,1.1,0.8,2.3,1,3.5c-0.2-0.1-0.4-0.3-0.5-0.5c0,0,0,0,0,0c0,0,0,0,0-0.1
			c0,0,0,0,0,0c0,0,0,0,0,0c0-0.1-0.1-0.1-0.1-0.1c0,0,0,0,0,0c-0.3-0.8-0.6-1.6-0.9-2.3c0,0,0,0,0,0c0,0,0,0,0,0c0,0,0,0,0,0
			c0,0,0,0,0,0C298.7,187.7,298.5,187.3,298.2,187z M300,187.5C300,187.5,300,187.5,300,187.5c-0.2-0.6-0.6-1-1-1.3c0,0,0-0.1,0-0.1
			c0,0,0,0,0-0.1c0.1-0.4,0.3-0.5,0.3-0.5c0.1,0,0.5,0.2,0.9,1.2c0.5,1.3,1,2.9,1.5,5c-0.2,0-0.4-0.1-0.5-0.1
			C300.9,190.2,300.5,188.8,300,187.5z M300.4,183.9C300.4,183.9,300.4,183.9,300.4,183.9c-0.7-1.6-1.3-2.5-1.9-2.5
			c0-0.1,0-0.1-0.1-0.2c-0.1-0.1-0.3-0.1-0.4,0c-0.3,0.4-0.6,0.9-0.7,1.4c-0.4,1.2-0.5,3.1-0.3,4.5c-0.1,0.1-0.1,0.2-0.2,0.2
			c0-0.3-0.1-0.6-0.1-0.9c-0.1-0.3-0.1-0.7-0.2-1.1c0-0.1,0-0.2,0-0.2c0-0.1,0-0.1-0.1-0.2c0-0.1,0-0.2,0-0.3c0-0.1,0-0.2,0-0.3
			c0-0.1,0-0.1-0.1-0.1c-0.3-2.2-0.3-4.7,0.8-5.9c0.5,0.1,0.8,0.3,1.2,0.7c0.6,0.8,1.1,1.7,1.6,2.5c1.4,3.5,2.4,6.6,3.1,9.7
			c0,0,0,0-0.1,0c0,0,0,0,0,0c0,0,0,0,0,0C302.1,188.6,301.4,186.2,300.4,183.9z M295.3,189.2c-0.1,0.1-0.1,0.1-0.1,0.2
			c-0.3-0.1-0.5-0.3-0.7-0.5c0.1-0.3,0.2-0.4,0.3-0.4c0.1,0,0.2,0,0.4,0.1c0.1,0.1,0.2,0.3,0.2,0.4
			C295.3,189.1,295.3,189.1,295.3,189.2z M293.4,183.8L293.4,183.8c0-0.1,0-0.1,0-0.1c0.5,1.1,1.1,2.2,1.7,3.3
			c0.5,0.9,1,1.8,1.4,2.7c-0.1-0.1-0.2-0.3-0.3-0.5c0-0.1-0.1-0.1-0.1-0.2c-0.1-0.2-0.2-0.4-0.4-0.6c0-0.1,0-0.2-0.1-0.3
			c0,0,0,0,0,0C294.8,186.7,294.1,185.2,293.4,183.8z M292.5,181.7l-0.5-1.5l0,0c0.4,1.1,0.8,2.2,1.3,3.3c0,0,0,0-0.1-0.1
			C293,182.8,292.7,182.2,292.5,181.7z M292.8,183.9v0.9l-0.1,0.5c0,0,0,0,0,0l-0.1-1.7C292.7,183.7,292.7,183.8,292.8,183.9z
			 M289.3,165c-0.5-1.2-1.1-2.4-2.3-2.9c0,0,0,0,0-0.1c0,0,0,0,0,0c0,0,0.1,0,0.1,0c1,0.6,1.6,1.7,2.2,2.9c1.3,3,2.4,6.4,3.1,9.9
			c-0.1-0.1-0.1-0.3-0.2-0.4C291.6,171.5,290.8,168,289.3,165z M292,183.7c0-0.1-0.1-0.1-0.1-0.2l-0.1-2l0.1,0.3L292,183.7z
			 M287.3,165.2C287.2,165.2,287.2,165.2,287.3,165.2c0-0.1,0-0.2-0.1-0.3c-0.1-0.2-0.3-0.2-0.4-0.1c-0.2,0.1-0.3,0.2-0.4,0.4
			c0,0,0,0-0.1,0c-0.1-0.3-0.2-0.6-0.3-0.9c0.3-0.3,0.5-0.2,0.6-0.2c0.4,0.1,0.9,0.7,1.4,1.7C287.7,165.5,287.5,165.3,287.3,165.2z
			 M287.7,171.3C287.7,171.2,287.7,171.2,287.7,171.3C287.7,171.2,287.7,171.2,287.7,171.3C287.7,171.2,287.7,171.2,287.7,171.3z
			 M284.4,166.8l-0.1,0.5c0,0,0,0,0-0.1l-0.1-1.5c0.1,0.1,0.1,0.2,0.2,0.4L284.4,166.8C284.4,166.8,284.4,166.8,284.4,166.8z
			 M284.1,163.9C284.1,163.8,284.1,163.8,284.1,163.9c0.2,0.5,0.5,1.1,0.7,1.6c0,0,0,0,0,0C284.5,164.9,284.3,164.4,284.1,163.9z
			 M284,161.6l-0.2-2.4c0,0,0.1,0,0.1-0.1c0,0.2,0,0.4,0,0.6C284,160.4,284,161.1,284,161.6C284.1,161.7,284,161.7,284,161.6z
			 M284,163.7C284,163.7,284,163.7,284,163.7C284,163.7,284,163.7,284,163.7C284,163.7,284,163.7,284,163.7z M283.8,156.6
			c-0.3-1.6-0.6-2.9-1.2-4.2c0,0,0,0,0,0c0,0,0,0,0,0c0,0,0,0,0,0c0,0,0,0,0,0c-0.1-0.3-0.4-0.6-0.6-0.9l0.3-0.2
			c0.3,0.1,0.6,0.4,0.8,0.8c0,0,0,0,0,0c0,0,0,0,0,0c0.8,1.9,1.5,4.1,1.4,5.8c0-0.1-0.1-0.1-0.1-0.2
			C284.2,157.4,284,157,283.8,156.6z M283.6,165.7c0-0.1-0.1-0.1-0.1-0.2l-0.1-1.8c0,0.1,0.1,0.2,0.1,0.3L283.6,165.7z M287.4,169.1
			c-0.2-0.4-0.4-0.7-0.5-1.1c-0.7-1.4-1.5-2.9-2.1-4.4c0.1,0.2,0.2,0.3,0.3,0.5c0,0.1,0.1,0.1,0.1,0.2c0,0.1,0.1,0.1,0.1,0.2
			l0.3,0.5c0.1,0.2,0.2,0.4,0.3,0.6C286.3,166.8,286.8,168,287.4,169.1z M286.6,166c0,0,0-0.1,0.1-0.1c0.1,0,0.2,0,0.3,0.1
			c0.1,0.1,0.3,0.2,0.4,0.3c-0.1,0-0.2-0.1-0.3-0.1c0,0,0,0,0,0c0,0,0,0-0.1,0c0,0,0,0-0.1,0c0,0,0,0,0,0c0,0,0,0-0.1,0c0,0,0,0,0,0
			l-0.1,0.1C286.8,166.2,286.7,166.1,286.6,166z M285.4,163.1c-0.2-0.4-0.5-0.7-0.7-1.1c-0.1-0.5-0.1-1.1-0.1-1.6
			c0.2,0.1,0.4,0.2,0.5,0.2c0.2,0,0.3-0.1,0.4-0.2c1.1-1-0.3-7.1-1-9.1c1.1,2.9,1.7,6.3,1.8,9.7c-0.1,0.2-0.2,0.4-0.2,0.6
			c-0.1,0.2-0.1,0.4-0.2,0.7C285.7,162.6,285.5,162.8,285.4,163.1z M285.1,159.9c0,0,0,0-0.1-0.1c0,0,0,0,0,0c0,0,0,0,0,0
			c0,0,0,0,0-0.1c0,0,0,0,0,0c0,0,0,0,0,0c0,0,0,0,0-0.1c0,0,0,0,0,0c0,0,0,0,0,0c0,0-0.1-0.1-0.1-0.1c1-2.4-0.6-6.4-1.2-7.7
			c0,0,0,0,0,0c-0.2-0.5-0.5-0.9-0.8-1.1c0-0.1,0-0.2,0-0.3c0.1-0.3,0.2-0.4,0.2-0.4c0,0,0,0,0,0c0,0,0.2,0,0.7,1c0,0,0,0,0,0
			c0,0,0,0,0,0C284.7,153.1,285.7,159.6,285.1,159.9z M284.3,150.8C284.3,150.8,284.3,150.8,284.3,150.8c-0.5-1-0.9-1.5-1.3-1.4
			c-0.5,0.1-0.7,0.7-0.8,1.1l-0.1,0.1l-0.3,0.2c-0.1-0.9-0.2-1.8-0.1-2.7c0.2-0.8,0.4-1.4,0.6-1.4c0,0,0.4-0.1,1.1,1.9c0,0,0,0,0,0
			c0,0,0,0,0,0C283.7,149.4,284,150.1,284.3,150.8C284.3,150.9,284.3,150.8,284.3,150.8z M282,152.6C282,152.6,282,152.7,282,152.6
			C282,152.7,282,152.7,282,152.6c0.2,0.5,0.4,1,0.5,1.5c0,0,0-0.1-0.1-0.1c0-0.1-0.1-0.2-0.2-0.3c-0.1-0.2-0.3-0.3-0.5-0.4
			c0,0,0,0,0,0c0,0,0,0-0.1,0c0,0,0,0-0.1,0c0,0,0,0,0,0h-0.2c-0.2-0.3-0.4-0.5-0.6-0.5c0.1-0.3,0.3-0.6,0.5-0.8
			C281.6,152,281.9,152.3,282,152.6z M285,167.3c0.3,0.6,0.7,1.3,1,1.9c0.1,0.2,0.2,0.3,0.2,0.5c0,0-0.1,0-0.1,0
			c-0.2,0.1-0.3,0.2-0.4,0.4c0,0,0,0,0,0c0,0,0,0,0,0c-0.2-0.6-0.5-1.1-0.8-1.7L285,167.3z M286.3,170.4c0.1,0,0.2,0,0.4,0.2
			c0.1,0.2,0.2,0.3,0.2,0.5c0,0,0,0,0,0c0,0-0.1,0.1-0.1,0.2c-0.3-0.1-0.5-0.2-0.7-0.4C286.1,170.6,286.2,170.4,286.3,170.4z
			 M286.5,168.9c-0.5-0.9-1-1.8-1.4-2.7l0,0c0,0,0-0.1,0-0.1c0.4,0.8,0.8,1.6,1.2,2.4c0.4,0.8,0.9,1.6,1.3,2.5c0,0,0,0,0,0
			c-0.1-0.3-0.2-0.5-0.4-0.8c0,0,0,0,0-0.1C286.9,169.7,286.7,169.3,286.5,168.9z M286.6,163.4c-0.2,0-0.5,0-0.7,0.1
			c0.1-0.3,0.2-0.5,0.4-0.7c0.1,0,0.1-0.1,0.2-0.1c1,0.2,1.6,1.2,2.3,2.7c0,0,0,0,0,0c0,0,0,0,0,0c1.1,2.1,1.8,4.4,2.3,6.6
			c-0.1-0.1-0.1-0.2-0.2-0.4c0,0,0,0,0,0c0,0,0,0,0,0c0,0,0,0,0,0c0,0,0,0,0,0c-0.1-0.1-0.2-0.3-0.3-0.4c-0.5-1.6-1-3.3-1.7-4.9
			c0,0,0,0,0,0C288.4,165.1,287.6,163.5,286.6,163.4z M292.5,179.6C292.5,179.5,292.5,179.5,292.5,179.6
			C292.4,179.5,292.4,179.5,292.5,179.6c-0.1-0.1-0.1-0.1-0.1-0.1c0,0,0,0,0,0l-0.2-2.2c0,0,0.1,0,0.1-0.1L292.5,179.6z
			 M293.2,180.3c0,0.1,0,0.2,0,0.3c0,0,0,0,0,0L293.2,180.3z M293.3,181.8c0.1,0.1,0.1,0.2,0.2,0.3c0,0.1,0.1,0.2,0.2,0.3
			c0,0,0,0,0,0c0,0,0,0,0,0.1c0,0.1,0.1,0.2,0.2,0.3c0.4,0.7,0.7,1.4,1,2.2c0,0,0,0.1,0,0.1c0,0.1,0.1,0.2,0.1,0.2
			c0,0.1,0.1,0.2,0.1,0.3c0,0,0,0,0,0c0,0,0,0,0,0c0,0,0,0,0,0.1c0,0,0,0,0,0c0.1,0.3,0.3,0.6,0.4,0.9c0.2,0.3,0.3,0.7,0.5,1
			c-0.2-0.3-0.4-0.7-0.5-1C294.8,185,294,183.4,293.3,181.8z M297.1,177.5C297.1,177.5,297.1,177.5,297.1,177.5
			C297.1,177.5,297.1,177.5,297.1,177.5C297.1,177.5,297,177.5,297.1,177.5C297,177.5,297,177.5,297.1,177.5
			C297,177.5,297,177.5,297.1,177.5c-0.3,0.2-0.6,0.4-0.7,0.7c0,0.1,0,0.1,0,0.2c-1,1.5-1,3.8-0.7,6.1l-0.3,0.1
			c-0.2-0.4-0.4-0.8-0.6-1.3c0,0,0,0,0,0c-0.1-7.3-1.7-14.3-4.3-19.6c0,0,0,0,0,0c0,0,0,0,0,0c-0.1-0.2-0.2-0.4-0.3-0.6
			c-0.4-0.7-0.8-1.5-1.3-2.2c-0.1-0.1-0.2-0.3-0.4-0.4c13.7-2.9,27.5-6.5,40.9-10c18.1-4.7,36.9-9.6,55.5-12.9
			c0.1,0,0.1,0.1,0.2,0.1c0,0,0,0,0.1,0c0.1,0,0.1,0,0.1-0.1c1.4,0.2,2.4,1.6,3,2.9c0,0,0,0,0,0c0,0,0,0,0,0
			c2.5,3.9,3.4,8.9,4.1,13.7c-16,3.4-32,7.5-47.5,11.5C329.3,169.9,313.1,174.1,297.1,177.5C297.1,177.5,297.1,177.5,297.1,177.5z
			 M386.4,132.9l0.3-0.5c0,0.3-0.1,0.6-0.1,1c0,0.2-0.1,0.5-0.1,0.7L386.4,132.9z M391.5,144.5c-0.1-0.1-0.3,0-0.4,0.1
			c0,0,0,0.1,0,0.1c-0.4-1-0.8-1.9-1.2-2.8l0-0.8l2.1,3.7C391.9,144.7,391.7,144.6,391.5,144.5z M392.2,146c0.2,0.4,0.4,0.9,0.6,1.5
			c-0.2-0.4-0.4-0.8-0.5-1.1c-0.2-0.5-0.5-0.8-0.8-0.9c0-0.1,0-0.2,0.1-0.2C391.8,145.5,392.1,145.7,392.2,146z M391.9,147.2
			c0.9,1.8,1.3,3.4,1,4.4c0,0,0,0,0,0C392.6,150,392.3,148.6,391.9,147.2z M393.7,152.7c0.1,0,0.3-0.1,0.4-0.2
			c0.7-0.7-0.2-3.8-0.9-5.6l1.7,3l0.3,3.8c-0.6,0.1-1.2,0.3-1.8,0.4l-0.4-0.6c0-0.4-0.1-0.8-0.1-1.2
			C393.3,152.6,393.5,152.7,393.7,152.7z M393.6,150.5c0.1,0.7,0.2,1.3,0.1,1.4c0,0-0.1,0-0.2-0.1
			C393.6,151.5,393.7,151,393.6,150.5z M387.1,129.1C387.1,129.1,387.1,129.1,387.1,129.1C387.1,129.1,387.1,129.1,387.1,129.1
			C387.1,129.1,387.1,129.1,387.1,129.1C387.1,129.1,387.1,129.1,387.1,129.1c-0.1,0.6-0.1,1.2-0.2,1.7l-1.1,1.8l-0.4-0.7
			c-0.8-3.9-2.4-7.9-5.1-10.3c0,0,0,0,0,0c-0.1-0.1-0.2-0.2-0.4-0.4l0.2-3.9c0.2,0.1,0.4,0.2,0.6,0.2c0.1,0,0.3,0,0.4-0.1l0.6-0.1
			c0,0,0,0,0,0c0,0,0,0,0,0c1-0.3,2,0.1,2.9,0.9l4.8,8.2c0,0.2-0.1,0.4-0.1,0.6c0,0.2,0,0.3-0.1,0.5c-0.1,0.2-0.3,0.3-0.6,0.5
			c0,0-0.1,0-0.1,0c0,0,0,0,0,0c0,0,0,0,0,0c0,0,0,0-0.1,0c0,0,0,0,0,0c0,0,0,0-0.1,0c0,0,0,0,0,0l-0.6,0.2
			C387.8,128.2,387.3,128.3,387.1,129.1z M278.2,152.9c0.1,0,0.2,0,0.3,0.1c0.1,0.2,0.2,0.4,0.3,0.5c-0.3-0.1-0.5-0.2-0.8-0.3
			C278,153,278.1,152.9,278.2,152.9z M277.5,152.6C277.5,152.6,277.5,152.6,277.5,152.6C277.5,152.6,277.5,152.6,277.5,152.6
			c-0.1-0.1-0.1-0.1-0.1-0.1c0,0,0,0-0.1,0c0,0,0,0,0,0c0,0,0,0,0-0.1c0,0,0,0,0,0c-0.2-0.4-0.4-0.8-0.6-1.3c0-0.4,0.1-0.7,0.1-1.1
			c0.3,0.7,0.7,1.5,1.1,2.2C277.8,152.3,277.6,152.4,277.5,152.6z M276.3,149.4c0,0.2,0,0.4-0.1,0.6c0,0,0,0,0,0l-0.1-1.6
			c0,0.1,0,0.1,0.1,0.1c0,0.1,0,0.2,0,0.3c0,0,0,0.1,0,0.1C276.2,149.1,276.2,149.2,276.3,149.4z M275.4,146.8l0.1,1.7
			c0-0.1-0.1-0.1-0.1-0.2l-0.1-1.8C275.3,146.5,275.4,146.7,275.4,146.8z M283.4,161.6C283.3,161.6,283.3,161.6,283.4,161.6
			c-0.1,0.1-0.1,0.1-0.1,0.1l-0.1-2.2l0.1,0L283.4,161.6z M281.7,160.2c0.2-0.3,0.5-0.5,0.8-0.6l0.3,4.5c-0.4-0.9-0.9-1.8-1.3-2.7
			c0,0,0,0,0-0.1C281.4,160.9,281.5,160.5,281.7,160.2z M291.8,179.5L291.8,179.5l-0.2-2.2l0.1,0L291.8,179.5z M291.2,182
			c-0.4-0.9-0.9-1.9-1.3-2.8c-0.1-0.8,0.3-1.3,1-1.6L291.2,182z M293.2,186.4l0.1-1.2c0.4,0.8,0.8,1.7,1.3,2.5c0,0-0.1,0-0.1,0
			c-0.2,0.1-0.3,0.2-0.4,0.4C293.8,187.6,293.5,187,293.2,186.4z M303.1,193.6c0.5,0,1,0,1.6-0.1c-1.9,0.2-3.9,0.2-5.8-0.3
			c-2.3-0.6-3.9-1.7-5.3-3.2C296.3,192.7,299.5,193.6,303.1,193.6z M294.2,189.8c0.5,0.4,1.1,0.6,1.8,0.7c0,0,0.1,0,0.1,0
			c0,0,0,0,0.1,0c0.1,0,0.2,0,0.3,0c0.3,0,0.7,0,1-0.1c0,0,0,0,0,0c0,0,0,0,0,0l0.8-0.2c0,0,0,0,0,0c0,0,0,0,0,0
			c0.1,0,0.3-0.1,0.3,0.1c0,0,0,0,0,0c0,0,0,0,0,0c0,0,0,0,0,0c0,0,0,0,0,0l0.3,0.5c0,0,0,0,0,0c0.7,1.2,1.9,1.7,3.1,1.7
			c0.4,0,0.7,0,1-0.1c0,0,0,0,0,0c0,0,0,0,0,0l3.7-0.9c3.6-0.8,7.2-1.7,10.7-2.7l7.3-1.8l0.5-0.1c1.6-0.3,3.2-0.5,4.8,0
			c0.7,0.4,1.4,0.9,2,1.6c0,0,0.1,0.1,0.1,0.1l1.5,3.1c-2-2.5-4.3-4.1-7.9-3.4c0,0-0.1,0-0.1,0l-13.2,3.3c0,0,0,0,0,0
			C304.9,193.2,298.8,194,294.2,189.8z M333.7,189.6c-0.3-0.6-0.7-1-1-1.5l0,0c0-0.1-0.1-0.1-0.1-0.1c0,0,0,0,0,0c0,0,0,0,0,0
			c0,0,0,0,0,0c-0.7-0.8-1.4-1.4-2.2-1.8c0-0.1-0.1-0.1-0.1-0.1c-1.7-0.6-3.6-0.6-5.4,0.1c0,0,0,0,0,0h-0.1c-0.1,0-0.2,0-0.2,0.1
			c-2.2,0.5-4.4,1.1-6.5,1.7c-0.2,0-0.3,0.1-0.5,0.1l-10.8,2.7c-0.9,0.2-1.9,0.4-2.8,0.5c-0.7-3.3-1.7-6.6-2.9-9.5c0,0,0,0,0,0
			c0,0,0,0,0,0l-0.3-0.5c-0.5-1.2-1.2-2.5-2.4-3.3c15.7-3.3,31.5-7.4,46.8-11.4c15.6-4,31.6-8.2,47.6-11.5c0,0,0.1,0,0.1,0
			c0,0,0,0,0.1,0c0,0,0,0,0,0c0,0,0,0,0,0c0,0,0,0,0,0c0.1,0,0.2-0.1,0.2-0.1c0,0,0.1,0,0.1,0c0.1,0,0.1,0.1,0.2,0.1
			c0.1,0,0.1,0,0.2-0.1c0,0,0.1-0.1,0.1-0.1c0.9-0.2,1.7-0.4,2.6-0.5c0.9,0,1.6,0.4,2.1,1.1c0,0,0,0,0,0c0,0,0,0,0,0
			c0.5,0.6,1,1.3,1.4,1.9c1.5,2.6,2.6,5.8,3.5,9.5c-2.4,0.6-4.8,1.2-7.2,1.8c-3.4,0.9-7,1.8-10.5,2.5c-0.1,0-0.1,0.1-0.2,0.1
			l-0.3,0.1c-2.9,0.6-5.3,2.2-7.4,5.2c0,0,0,0,0,0c0,0,0,0,0,0c-0.3,0.4-0.5,0.8-0.8,1.3c-0.2,0.4-0.5,0.8-0.7,1.2
			c-1.1,1.5-2.6,2.6-4.3,3c0,0,0,0,0,0c0,0,0,0,0,0c-5.7,1.4-11.5,2.8-17.1,4.3c-5.6,1.4-11.4,2.8-17.1,4.2l0,0
			c-0.5,0.1-1,0.2-1.4,0.2c0,0,0,0,0,0c0,0,0,0,0,0c-0.8,0.1-1.8-0.3-2.3-1C333.9,189.7,333.8,189.7,333.7,189.6z M401.5,153.7
			c2.8,1.2,4.7,4.3,5.6,9.6c0,0.1,0,0.1,0.1,0.1c0,0,0,0,0,0l-1.5,2.7c-0.1,0-0.1,0-0.2,0l-1.1-1.9c-0.6-2.6-1.8-6.1-4.1-8.4
			c0.2-0.4,0.4-0.7,0.5-1c0,0,0.1-0.1,0.1-0.1C401,154.5,401.3,154.1,401.5,153.7z M400.9,153.4l0.2-2.5l0.1,0L400.9,153.4
			C401,153.4,401,153.4,400.9,153.4z M400.2,154.7c-0.2,0.3-0.3,0.6-0.5,0.9c-0.1-0.1-0.1-0.1-0.2-0.2c0,0-0.1-0.1-0.1-0.1l0.4-4.5
			c0.2,0.1,0.4,0.2,0.7,0.2c0,0,0,0,0,0L400.2,154.7z M292.9,109.9c-1.1,0.3-2.3,0.6-3.4,1c-0.4-0.1-0.9-0.2-1.3-0.3
			c-0.3-0.1-0.5-0.1-0.8-0.2c0.6-0.2,1.2-0.5,1.9-0.7c2.9-1.1,6-2.2,9-3.1c-1.5,1-3,2-4.5,3.1c0,0-0.1,0-0.1,0L292.9,109.9z
			 M303.4,99.6C303.4,99.6,303.4,99.5,303.4,99.6C303.4,99.5,303.5,99.5,303.4,99.6c1.1-0.3,2.2-0.5,3.2-0.7
			c0.9-0.2,1.9-0.4,2.8-0.6v0.7c-0.7,0.5-1.4,1-2.1,1.4c0,0-0.1,0-0.1,0c-1.1,0.2-2.2,0.4-3.3,0.7c0,0,0,0,0,0c-0.1,0-0.2,0-0.3,0
			c0,0,0,0,0,0c0,0,0,0,0,0c0,0-0.1,0-0.1,0c0,0,0,0,0,0c-0.2-0.1-0.3-0.2-0.4-0.3c0,0,0,0,0,0c0,0,0,0-0.1,0c0,0,0,0,0,0
			c-0.2-0.2-0.4-0.4-0.6-0.6C302.5,99.8,302.9,99.6,303.4,99.6z M301.9,99.6C301.9,99.6,301.9,99.5,301.9,99.6
			c0.2-0.3,0.6-0.5,1.1-0.7c0,0,0,0,0,0C302.5,99,302.2,99.3,301.9,99.6z M303.6,98.8c0.9-0.2,1.9-0.4,2.8-0.6c1-0.2,2-0.4,3-0.6
			c0,0,0,0,0,0c-1,0.2-1.9,0.4-2.9,0.6C305.6,98.4,304.6,98.6,303.6,98.8C303.7,98.8,303.7,98.8,303.6,98.8z M310.1,97.4
			C310.1,97.4,310.1,97.4,310.1,97.4c0.3-0.1,0.6-0.1,0.9-0.1C310.7,97.4,310.4,97.4,310.1,97.4z M310.7,98.1
			c-0.2,0.1-0.4,0.3-0.6,0.4v-0.4C310.3,98.1,310.5,98.1,310.7,98.1z M270.4,107.5c17.7-10,37.6-13.7,48.5-15
			c-2.1,1.5-4.2,2.9-6.4,4.4c0,0,0,0,0,0c-1.1-0.2-2.1-0.3-2.9-0.1c0,0,0,0,0,0c0,0,0,0,0,0c0,0,0,0,0,0c0,0,0,0,0,0
			c-1,0.2-2.1,0.5-3.2,0.7c-1.1,0.2-2.2,0.5-3.2,0.7c-0.9,0.2-1.5,0.5-1.8,1c-0.1,0.2-0.2,0.6-0.1,1.2c0,0,0,0,0,0c0,0,0,0,0,0
			c0,0,0,0,0,0c0,0,0,0,0,0.1c0,0,0,0,0,0c0,0,0,0,0,0l0.8,0.8c0,0,0,0,0,0c0,0,0,0,0,0c0,0,0,0,0,0c0,0,0,0,0,0c0,0,0,0,0,0
			c0,0,0,0,0,0c0.3,0.2,0.7,0.3,1.1,0.4c0,0,0.1,0,0.1,0c0.3,0.1,0.6,0.1,0.9,0.1c0.3,0,0.7,0,1.1-0.1c-1.5,1.1-3.1,2.1-4.6,3.2
			c-0.1,0-0.1,0-0.2,0c-3.6,1-7.1,2.3-10.5,3.6c-1.2,0.5-2.4,0.9-3.7,1.4c0,0,0,0,0,0c-0.4,0.1-0.6,0.3-0.7,0.6c0,0.1,0,0.4,0.3,0.5
			c0,0,0,0,0,0c0,0,0,0,0,0c0,0,0,0,0,0c0,0,0,0,0,0c0,0,0,0,0,0c0.9,0.3,1.8,0.4,2.7,0.6l0.4,0.1c0,0,0,0,0.1,0c0,0,0,0,0,0
			c0,0,0,0,0,0c0,0,0,0,0,0c0,0,0,0,0,0c0,0,0.1,0,0.1,0c0,0,0,0,0.1,0c0,0,0,0,0.1,0c0.1,0,0.2-0.1,0.2-0.1
			c0.7-0.2,1.4-0.5,2.2-0.7c-1.8,1.2-3.5,2.4-5.3,3.6c-0.1,0.1-0.3,0.2-0.4,0.3c-1,0.2-1.9,0.4-2.9,0.7h-0.1c-0.1,0-0.1,0-0.2,0.1
			c-0.6,0.1-1.2,0.3-1.7,0.4c-1.7,0.4-3.4,0.8-5.1,1.2c0,0,0,0,0,0c-0.5,0.1-1,0.2-1.6,0.3c-3.2,0.6-7.7,1.6-10.2,4.1c0,0,0,0,0,0
			c0,0-0.1,0.1-0.1,0.1c-0.3,0.3-0.6,0.6-0.8,1c-0.8,1.3-1,2.8-0.7,4.4c0,0,0,0,0,0c0,0,0,0,0,0c0.5,1.8,1.3,3.6,1.9,5c0,0,0,0,0,0
			c0,0,0,0,0,0c0,0,0,0.1,0.1,0.1c0,0,0,0,0,0c0,0.1,0.1,0.2,0.2,0.3c1.2,2.2,2.4,4.5,3.5,6.8c3.7,7.9,7.4,15.8,11.1,23.6
			c0.9,1.9,1.7,3.9,2.6,5.8c2.3,5.1,4.6,10.5,7,15.6c0,0,0,0,0,0c0,0,0,0,0,0c2.3,4.7,4.5,8.3,9.4,9.6c1.2,0.3,2.4,0.4,3.7,0.4
			c3.1,0,6.2-0.8,9.2-1.5l1.1-0.3c0,0,0,0,0,0c0,0,0,0,0,0l13.2-3.3c4.8-1,7.1,2.8,9.5,6.8c0,0,0,0,0,0c0,0,0,0,0,0
			c0.9,1.5,2.3,3.7,3.4,5.9c0,0,0,0,0,0c0,0,0,0,0,0c2.3,4.2,4.9,6.4,7.6,6.6c0,0,0,0,0,0c0,0,0,0,0,0s0,0,0,0s0,0,0,0c0,0,0,0,0,0
			s0,0,0,0c0,0,0,0,0,0c0,0,0,0,0,0c0,0,0,0,0,0c12.3-1.3,23.4-4.1,34.9-8.8c0,0,0,0,0,0c0,0,0,0,0,0c0,0,0,0,0,0
			c2.4-1.5,2.2-5.3,2.1-8.1c0-0.3,0-0.6,0-0.9c0,0,0,0,0,0c0,0,0,0,0,0c-0.2-2.2-0.4-4.3-0.7-6.5l0-0.2c-0.1-4.3-0.2-8.7,4.2-9.7
			c0,0,0.1,0,0.1,0c2.1-0.5,4.3-1,6.3-1.5c2.1-0.5,4.3-1.1,6.4-1.6c0,0,0,0,0,0c0,0,0,0,0,0c0.7-0.2,1.5-0.4,2.3-0.5
			c3-0.7,6.4-1.4,8.6-3.6c3.8-3.9,0.8-8.8-1.2-12.1c0,0,0,0,0,0c-5-8.5-10.1-17.1-15-25.4c0,0,0,0,0,0c0,0,0,0,0,0
			c-2.4-4-4.8-8.1-7.1-12c-2.3-4-4.8-8.1-7.2-12.1c0,0,0,0,0,0c0,0,0,0,0,0c-0.6-1-1.3-1.9-1.9-2.7c-0.7-1-1.4-1.8-2.1-2.5
			c0,0,0-0.1,0-0.1c0-0.2-0.1-0.4-0.3-0.4h-0.2c-1.1-1-2.4-1.7-3.7-2.1c0,0,0,0,0,0c-3.4-1.1-6.9-0.5-10.4,0.2
			c-1,0.2-2.1,0.4-3.2,0.6c0,0,0,0,0,0c0,0,0,0,0,0l-2.7,0.6c2.1-1.5,4.3-3,6.5-4.5c30.9,6.6,53,19.9,65.6,39.6
			c13.5,21,10.4,47.7-7.6,66.5c-14,14.7-35,24.8-59.3,28.6c-23.4,3.6-47.5,1.7-68-5.2c-24.3-8.3-42.7-23.6-53.2-44.4
			c-4-12.1-4.8-21.4-2.5-31.2C241.3,131.4,252.4,117.6,270.4,107.5z M390.1,246c4.4-2,8.6-4.2,12.7-6.7
			C398.7,241.9,394.5,244.1,390.1,246z M436.2,186.2c-0.4,2.4-0.8,4.9-1.1,7.3c0,0,0,0,0,0c0,0,0,0,0,0c-0.6,5.2-3.1,15.7-11.9,27
			c-0.1,0-0.1,0-0.2,0.1c-1,1.3-2.2,2.6-3.3,3.9c-0.4,0.4-0.8,0.9-1.2,1.3c0,0-0.1,0.1-0.1,0.1c-0.9,0.9-1.8,1.8-2.7,2.7
			c-0.1,0-0.1,0-0.2,0.1c-0.2,0.2-0.5,0.5-0.7,0.7c-3,2.7-6.5,5.4-10.5,8c-24.4,16-57,22.1-89.4,16.8c-16.1-2.6-31.1-7.9-43.4-15.3
			c-14.7-8.9-25.5-20.7-32.1-35.1c-1.8-4.8-3-9.8-3.9-15.6c-0.2-2-0.4-4-0.6-5.9c-0.4-3.5-0.8-7.1-1-10.6
			c3,18.9,15.4,35.1,37.6,49.1c0,0,0,0,0,0c0,0,0,0,0,0c26.3,13.9,49.8,21.1,71.3,21.9c0,0.1,0,0.2,0,0.3c0,0.2,0.1,0.4,0.3,0.4
			c0.2,0,0.3-0.2,0.3-0.4c0-0.1,0-0.2,0-0.3c1.1,0,2.2,0.1,3.3,0.1c3.3,0,6.5-0.2,9.6-0.5c0,0.2,0,0.4,0,0.6c0,0.3,0,0.5,0,0.8
			c0,0,0,0,0,0.1c0,0.1,0,0.1,0,0.2v0.2c0,0,0,0,0,0c0,0,0,0,0,0.1c0,0,0,0,0,0.1c0,0,0,0,0,0c0.2,0.5,0.7,0.8,1.2,0.8
			c0.1,0,0.2,0,0.2,0c0,0,0,0,0,0c0,0,0,0,0,0c0,0,0,0,0,0s0,0,0,0c0,0,0,0,0,0c10.5-1.7,20-4.2,29.1-7.6c0,0,0,0,0,0
			c0.7-0.2,1.1-0.7,1.4-1.5c0,0,0,0,0,0c0,0,0,0,0-0.1c0,0,0,0,0,0c0,0,0,0,0,0c0,0,0,0,0,0l0.3-2c23.5-10.9,41-30.3,48.3-53.3
			C436.8,182.6,436.5,184.4,436.2,186.2z M312.3,233.1c0.5-0.4,1.1-0.4,1.7-0.2c0.1,0.1,0.1,0.1,0.2,0.1c0,0,0,0,0,0
			c2.6,0.4,5.5,0.8,8.2,1.1c0,0,0,0,0,0c0,0,0,0,0,0c0,0,0.1,0,0.1,0l1.3,1.4c0,0,0,0,0,0l0,0c0,0,0,0,0,0c0,0,0,0,0,0
			c0.1,0.1,0.2,0.1,0.3,0.2c-0.1,0.5-0.3,0.8-0.6,1.1c-0.6,0.5-1.5,0.6-2.5,0.2c0,0,0,0,0,0c0,0,0,0,0,0l-8.3-2.2c0,0,0,0,0,0
			c0,0,0,0,0,0c-0.3-0.1-0.6-0.2-0.8-0.5c0.1,0,0.1-0.1,0.2-0.1c0.2-0.1,0.3-0.4,0.3-0.6v-0.2C312.4,233.3,312.4,233.2,312.3,233.1z
			 M314.1,233L314.1,233C314.1,233,314.1,233,314.1,233C314.1,233,314.1,233,314.1,233C314.1,233,314.1,233,314.1,233z M311.2,233.8
			C311.2,233.8,311.2,233.8,311.2,233.8C311.2,233.8,311.2,233.8,311.2,233.8C311.2,233.8,311.2,233.8,311.2,233.8
			C311.2,233.8,311.2,233.8,311.2,233.8C311.2,233.8,311.2,233.8,311.2,233.8c0,0.1,0,0.1,0,0.1v0.1c0,0,0,0,0,0c0,0,0,0,0,0.1
			c0,0,0,0,0,0c0,0,0,0,0,0c0,0,0,0,0,0c0.2,0.8,0.7,1.3,1.4,1.4c0,0,0,0,0,0l8.3,2.2c0,0,0,0,0,0c0.4,0.1,0.8,0.2,1.2,0.2
			c0.7,0,1.3-0.2,1.8-0.6c0.5-0.4,0.8-1,0.9-1.8c0,0,0,0,0-0.1c0,0,0,0,0,0v-0.2c0,0,0,0,0,0c0,0,0,0,0,0c-0.1-0.5-0.3-1-0.7-1.3
			c1.7,0.1,3.3,0.3,5,0.4c-0.4,0.1-0.8,0.3-1.1,0.6c-0.5,0.5-0.8,1.1-0.9,2c0,0,0,0,0,0c0,0,0,0,0,0v0.1c0,0,0,0,0,0c0,0,0,0,0,0
			c0.2,1.3,1.1,2.2,2.4,2.3c0,0,0,0,0,0c0,0,0,0,0,0c2.9,0.4,6,0.8,9,1.1c0,0,0,0,0,0c0,0,0,0,0,0c0,0,0,0,0,0c0,0,0,0,0,0
			c0,0,0,0,0,0c0,0,0,0,0,0c0,0,0,0,0,0c0,0,0,0,0,0c0.1,0,0.2,0,0.4,0c0.9,0,1.8-0.2,2.4-0.5c1-0.5,1.5-1.4,1.5-2.6c0,0,0,0,0,0
			c0,0,0,0,0,0v-0.5v-0.3c0,0,0,0,0,0c0,0,0,0,0,0c-0.1-1-0.6-1.7-1.3-2c1.8-0.1,3.7-0.1,5.5-0.3c-1.2,0.5-1.9,1.4-2.1,2.7
			c0,0,0,0,0,0c0,0,0,0,0,0c0,0,0,0,0,0v1.5c0,0,0,0,0,0c0,0,0,0,0,0c0.2,1.4,1,2.1,2.3,2.1c0.1,0,0.3,0,0.5,0c0,0,0,0,0,0
			c0,0,0,0,0,0l3.8-0.1c0,0,0,0,0,0c0,0,0,0,0,0c0,0,0,0,0,0s0,0,0,0c0,0,0,0,0,0c0.6-0.1,1.2-0.1,1.8-0.2c1.2-0.1,2.5-0.2,3.7-0.4
			l1.9-0.2c0,0,0,0,0,0c0,0,0,0,0,0c1.9-0.3,3.2-1.5,3.4-3.2c0,0,0,0,0,0c0,0,0,0,0,0l0.1-1.7c0,0,0,0,0,0c0,0,0,0,0,0c0,0,0,0,0,0
			c0,0,0,0,0,0c-0.1-0.8-0.4-1.3-0.9-1.7c-0.2-0.2-0.5-0.3-0.8-0.3c3.2-0.5,6.5-1.1,9.7-1.8c5.1-1.1,10.1-2.6,14.8-4.3
			c-0.1,0.1-0.2,0.3-0.3,0.4c-0.1,0-0.2,0.2-0.2,0.3c-0.3,0.5-0.5,1-0.6,1.7c0,0,0,0,0,0c0,0,0,0,0,0l0,0c0,0,0,0,0,0l-0.1,1.7
			c0,0,0,0,0,0c0,0,0,0,0,0c0,0,0,0,0,0c0.1,1,0.5,1.5,0.8,1.7c0.3,0.2,0.6,0.3,1,0.3c0.4,0,0.8-0.1,1.3-0.3c0,0,0,0,0,0l0,0
			c0,0,0,0,0,0l1.6-0.7c0,0,0,0,0,0c0,0,0,0,0,0l0,0c0,0,0,0,0,0c0,0,0,0,0,0l4.7-2.1c0,0,0,0,0,0c0,0,0,0,0,0l3.1-1.6c0,0,0,0,0,0
			c0,0,0,0,0,0c1.2-0.7,2.1-1.9,2.3-3.3c0,0,0,0,0,0c0,0,0,0,0,0c0,0,0,0,0,0l0.1-1.5c0,0,0,0,0,0c0,0,0,0,0,0
			c-0.1-1-0.5-1.5-0.8-1.7c-0.2-0.1-0.3-0.2-0.5-0.2c1.2-0.6,2.5-1.3,3.7-1.9c-0.1,0.1-0.1,0.2-0.2,0.3c0,0,0,0,0,0
			c-0.3,0.3-0.4,0.7-0.5,1c-0.1,0.2-0.2,0.5-0.2,0.8c0,0,0,0,0,0c0,0,0,0,0,0c0,0,0,0,0,0v0.3v0.6c0,1.1,0.4,1.6,0.8,1.8
			c0.2,0.1,0.4,0.2,0.7,0.2c0.5,0,1.1-0.2,1.7-0.7c0,0,0,0,0,0h0c2.2-1.7,4.4-3.4,6.5-5.1c0,0,0,0,0,0c0.9-0.7,1.5-1.8,1.7-3.1
			c0,0,0,0,0,0c0,0,0,0,0,0c0,0,0,0,0,0c0,0,0,0,0,0v-0.1c0,0,0,0,0,0s0,0,0,0c0,0,0,0,0,0c0,0,0,0,0,0c-0.1-1.1-0.6-1.5-0.9-1.7
			c-0.1,0-0.2-0.1-0.3-0.1c1-0.7,2-1.4,3-2.2c0,0.1-0.1,0.2-0.1,0.2c0,0,0,0,0,0c0,0,0,0,0,0c0,0,0,0,0,0.1c0,0,0,0,0,0c0,0,0,0,0,0
			c0,0,0,0,0,0.1c0,0,0,0,0,0.1c0,0,0,0,0,0c0,0,0,0.1,0,0.1c0,0,0,0,0,0c0,0,0,0,0,0.1c0,0,0,0,0,0c0,0,0,0,0,0.1c0,0,0,0,0,0.1
			c0,0,0,0,0,0c0,0,0,0,0,0c0,0,0,0.1,0,0.1c0,0,0,0,0,0c0,0,0,0,0,0c0,0,0,0,0,0.1l0,0c0,0,0,0,0,0c0,0,0,0,0,0c0,0,0,0,0,0
			c0,0,0,0,0,0c0,0,0,0,0,0c0,0,0,0,0,0c0,0,0,0,0,0c0,0,0,0,0,0c0,0,0,0,0,0c0,0,0,0,0,0c0,0,0,0,0,0c0,0,0,0,0,0
			c0.1,0.9,0.4,1.5,0.8,1.6c0.1,0,0.2,0.1,0.3,0.1c0.4,0,0.9-0.3,1.5-1c0,0,0,0,0,0c0,0,0,0,0,0c0,0,0,0,0,0c1.7-1.8,3.4-3.6,5-5.5
			c0,0,0,0,0,0c0,0,0,0,0,0c0.5-0.6,0.8-1.2,0.9-1.8c0,0,0,0,0,0c0,0,0,0,0,0c0,0,0,0,0,0c0,0,0,0,0,0v-0.1c0,0,0,0,0,0c0,0,0,0,0,0
			c0,0,0,0,0,0c-0.1-0.6-0.3-0.9-0.6-1.1c0,0,0,0-0.1,0c3.7-3.7,7.9-8.6,11.3-14.4c0,0,0,0.1-0.1,0.1c-3.2,6.4-7.4,12.3-11.6,17.8
			c0,0,0,0,0,0c0,0,0,0-0.1,0l-3.7,4.1c-0.1,0.1-0.1,0.1-0.1,0.2c-0.7,0.7-1.3,1.4-2,2c-8.5,7.9-16.9,13.7-26.4,18.1
			c-8.9,3.5-18.8,6.1-31.1,8.2c-0.1,0-0.1-0.1-0.2-0.1c-0.1,0-0.2,0-0.2,0.1c-14,1-26.5,0-38.2-3.2c0,0,0,0,0,0
			c-15.4-4.3-30.5-10.4-46.4-18.7c0,0,0,0,0,0c-0.1-0.1-0.3-0.1-0.4-0.2c-15.9-10-26.6-21.2-32.4-33.8c7.7,14.5,19.9,26.2,36.2,34.8
			c11.4,6,23.9,10.2,36.9,12.5C311.8,232.6,311.4,233.1,311.2,233.8z M341.7,236.5v0.6c-0.3,1.6-1.7,2.1-3,1.8c0,0,0,0,0,0
			c0,0,0,0,0,0c-3-0.3-6-0.7-8.9-1.1l-1.2-1.1c0,0,0,0,0,0c0,0-0.1,0-0.1,0c-0.1,0-0.1,0-0.2,0c0,0,0,0,0-0.1
			c0.4-1.6,1.9-1.8,3.1-1.6c0,0,0,0,0,0c0,0,0,0,0,0c0,0,0,0,0,0c0,0,0,0,0,0c0,0,0,0,0,0c0,0,0,0,0,0c0,0,0,0,0,0s0,0,0,0
			c2.8,0.1,5.6,0.1,8.4,0.1c0,0,0,0,0,0c0,0,0,0,0,0c0.2,0,0.4,0,0.7,0l1.2,1.4V236.5z M342.1,237.9c-0.2,0.6-0.5,1.1-1.1,1.4
			c-0.5,0.3-1.3,0.5-2.1,0.5c0,0,0-0.1,0-0.1c0.1,0,0.3,0,0.4,0C340.5,239.6,341.6,239.1,342.1,237.9z M338.3,239.5
			c0,0.1,0,0.1,0,0.2c-2.8-0.3-5.6-0.7-8.4-1c0-0.1,0-0.1,0-0.2C332.6,238.9,335.5,239.2,338.3,239.5z M329.3,238.4
			c0,0.1,0,0.1,0,0.2c-0.7-0.1-1.2-0.6-1.5-1.3c0,0,0,0,0,0C328.1,237.9,328.6,238.2,329.3,238.4z M361,236c-0.3,1.3-1.1,2-2.4,2
			c0,0,0,0,0,0c0,0,0,0,0,0l-1.8,0.3c0,0,0,0,0,0l0,0c-0.9,0.1-1.8,0.2-2.7,0.2c-0.9,0.1-1.8,0.1-2.7,0.2l-3.6,0.2l-1.3-1.1
			c0,0,0,0,0,0c0,0,0,0-0.1,0c0,0,0,0-0.1,0c0,0,0,0,0,0h-0.3c0-0.2,0-0.4,0-0.6c0-0.3,0.1-0.5,0.1-0.8c0,0,0,0,0,0c0,0,0,0,0-0.1
			c0,0,0,0,0-0.1c0,0,0,0,0,0c0.3-1.1,1.2-1.7,2.6-1.8c0.1,0,0.1,0.1,0.2,0.1c0.1,0,0.2,0,0.2-0.1c1.1-0.1,2.2-0.2,3.3-0.3l0,0.1
			c0,0,0,0,0,0c0,0,0,0.1,0.1,0.1c0,0,0,0,0,0c0,0,0.1,0,0.1,0c0,0,0,0,0,0s0,0,0,0c0,0,0,0,0,0c0.1,0,0.1,0,0.1,0c0,0,0,0,0,0
			c0,0,0,0,0,0c0,0,0,0,0,0c0,0,0,0,0-0.1c0,0,0,0,0-0.1c0,0,0,0,0-0.1c2.1-0.2,4.3-0.5,6.4-0.7l0,0c0,0,0,0,0,0c0.1,0,0.1,0,0.1,0
			c0.2-0.1,0.4-0.1,0.6-0.1l1.1,1.2L361,236z M361.5,236.6C361.5,236.7,361.5,236.7,361.5,236.6c-0.3,1.6-1.7,2.1-2.4,2.2
			c0-0.1,0-0.1,0-0.2C360.2,238.6,361.1,237.8,361.5,236.6z M358.4,239l-1.2,0.1c0,0,0-0.1,0-0.1l1.2-0.2
			C358.4,238.9,358.4,238.9,358.4,239z M356.6,239.2c-1.1,0.2-2.2,0.3-3.4,0.4c-0.5,0-1,0.1-1.5,0.1c0-0.1,0-0.1,0-0.2
			c0.8-0.1,1.6-0.2,2.4-0.2c0.8-0.1,1.7-0.1,2.5-0.2C356.6,239.1,356.6,239.2,356.6,239.2z M351.1,239.8l-3.2,0.1v-0.1l3.1-0.2
			C351.1,239.6,351.1,239.7,351.1,239.8z M347.3,239.8v0.1c-0.6,0-1.3-0.1-1.6-1C346,239.5,346.6,239.7,347.3,239.8z M397.9,222.7
			c0-0.2-0.1-0.4-0.1-0.5c0.1,0.1,0.2,0.3,0.3,0.6C398,222.8,397.9,222.7,397.9,222.7z M398.1,223.5l-0.1,0.8c-0.1,0-0.1,0-0.2-0.1
			l0.1-0.8C397.9,223.5,398,223.5,398.1,223.5z M397.9,225c-0.2,0.9-0.8,1.6-1.5,2.1c0-0.1-0.1-0.2-0.1-0.2c0.7-0.5,1.2-1.2,1.5-1.9
			C397.8,224.9,397.8,225,397.9,225z M397.2,224.3c-0.2,1.1-1,1.8-1.6,2.1l-3,1.6l-4.7,2.1h0l-1.6,0.7c0,0,0,0,0,0c0,0,0,0,0,0
			c-0.5,0.2-0.8,0.3-1.1,0.2c-0.2-0.1-0.4-0.3-0.5-0.7v0c0-0.3,0-0.5,0-0.8c0-0.3,0.1-0.6,0.1-0.9v-0.2c0-0.1,0.1-0.3,0.1-0.4
			c0.2,0,0.3-0.2,0.3-0.4v-0.3c0.4-0.5,0.9-0.9,1.3-1.1c0.1,0,0.1-0.1,0.2-0.1c0,0,0,0,0,0c0,0,0.1,0,0.1,0c0,0,0,0,0,0
			c0,0,0.1,0,0.1,0c2.9-1.2,5.8-2.5,8.7-3.8c0.2,0,0.3-0.1,0.4-0.2c0.1-0.1,0.2-0.1,0.3-0.1l0.9,0.9L397.2,224.3z M395.8,227.4
			l-2.5,1.3c0-0.1-0.1-0.1-0.1-0.2l2.5-1.3C395.7,227.3,395.8,227.3,395.8,227.4z M392.7,229l-4.1,1.8c0-0.1,0-0.1-0.1-0.2l4.1-1.8
			C392.6,228.9,392.7,228.9,392.7,229z M388,231.1l-1,0.4c0-0.1-0.1-0.1-0.1-0.2l1-0.4C387.9,231,388,231,388,231.1z M386.4,231.8
			c-0.6,0.2-1.1,0.2-1.4,0c0,0,0,0-0.1-0.1c0.2,0.1,0.3,0.1,0.5,0.1c0.3,0,0.5-0.1,0.8-0.2C386.4,231.7,386.4,231.7,386.4,231.8z
			 M410.9,215.8c-0.2,0.8-0.6,1.4-1.1,1.9c-0.1-0.1-0.1-0.2-0.2-0.2c0.4-0.5,0.8-1.1,1-1.8C410.7,215.7,410.8,215.7,410.9,215.8z
			 M410.7,214.3c0.1,0.2,0.2,0.4,0.3,0.7c-0.1,0-0.1,0-0.2-0.1C410.7,214.7,410.7,214.5,410.7,214.3z M408.9,217.2
			c-1.8,1.6-3.8,3.1-6.4,5c0,0,0,0,0,0c0,0,0,0,0,0c-0.5,0.5-0.9,0.7-1.2,0.6c-0.2-0.1-0.3-0.4-0.3-0.6c0-0.1,0.1-0.1,0.1-0.2v-0.5
			v-0.4c0,0,0,0,0-0.1c0,0,0,0,0-0.1c0-0.1,0-0.2,0-0.3c0.2-0.6,0.6-1.1,1-1.6l0.6-0.4c0.2,0,0.3-0.1,0.3-0.2c1.5-0.9,3.1-1.9,4.7-3
			c0.4-0.2,0.7-0.5,1.1-0.7c0.2,0,0.3-0.1,0.3-0.2c0,0,0,0,0,0l0.1,0l0.9,0.7C409.8,216.1,409.5,216.8,408.9,217.2z M409.3,218.1
			c-1.9,1.6-4,3.1-5.9,4.7c0-0.1-0.1-0.2-0.1-0.2c2.3-1.7,4.2-3.2,5.9-4.6C409.2,218,409.2,218,409.3,218.1z M402.8,223.1
			c-0.5,0.3-1,0.5-1.4,0.4c0.4,0,0.8-0.2,1.2-0.7C402.8,223,402.8,223,402.8,223.1z M413.7,212.4
			C413.7,212.4,413.7,212.4,413.7,212.4C413.7,212.3,413.7,212.3,413.7,212.4C413.7,212.3,413.7,212.3,413.7,212.4
			c0-0.1,0-0.1,0-0.1l0.5,0.3c-0.2,0.2-0.4,0.3-0.6,0.4c0,0,0-0.1,0-0.1C413.6,212.7,413.7,212.6,413.7,212.4
			C413.7,212.4,413.7,212.4,413.7,212.4z M419.4,207.3C419.4,207.3,419.5,207.3,419.4,207.3C419.5,207.3,419.5,207.3,419.4,207.3
			c0.1,0,0.1,0,0.2,0c0,0,0,0,0,0c0,0,0,0,0,0c0,0,0,0,0,0c0.2,0,0.3,0,0.3,0.2c-1.5,1.7-3,3.4-4.6,5c-0.1-0.2-0.3-0.4-0.5-0.4
			c0,0,0,0,0,0l-1-0.5c0.2-0.5,0.6-0.9,1-1.3c0,0,0,0,0,0c0,0,0,0,0,0c0.9-0.8,1.7-1.5,2.5-2.3c0.5-0.4,0.9-0.9,1.4-1.3
			c0.1,0.1,0.1,0.1,0.2,0.2C419.1,207,419.3,207.2,419.4,207.3z M419.3,206.3c0.1-0.1,0.2-0.2,0.3-0.3c0.1,0,0.2-0.1,0.2-0.1
			c-0.1,0.2-0.2,0.4-0.3,0.6C419.5,206.5,419.5,206.4,419.3,206.3C419.4,206.4,419.3,206.3,419.3,206.3z M414.9,213
			c-0.6,0.6-0.9,0.6-1,0.6c0,0-0.1,0-0.1-0.1c0.4-0.1,0.7-0.4,1-0.7C414.8,212.9,414.9,212.9,414.9,213z M420.6,206.4
			c-0.1,0.2-0.2,0.4-0.3,0.6c-0.1-0.1-0.1-0.1-0.2-0.2c0.1-0.2,0.2-0.3,0.3-0.5C420.5,206.3,420.6,206.3,420.6,206.4z M420.5,205.5
			v-0.2c0,0,0.1,0,0.1,0c0,0,0.1,0,0.1,0.2C420.6,205.5,420.6,205.5,420.5,205.5z M417.7,212.3c-0.7,0.8-1.4,1.5-2.1,2.2
			c0,0,0,0,0-0.1C416.3,213.7,417,213,417.7,212.3z M415.2,214.8c-7.3,7.2-16,13.4-25.7,18c9.6-4.7,18.1-10.7,25.3-17.7
			C415,215.1,415.1,215,415.2,214.8z M387.7,233.8c-0.1,0.6-0.1,1.1-0.1,1.7c0,0,0,0.1,0,0.1c0,0.1,0,0.1,0,0.2
			c-0.1,0.3-0.4,0.6-0.8,0.9c0,0-0.1,0-0.1,0c0,0-0.1,0.1-0.1,0.1c-10.2,3.6-19.6,6-28.6,7.5c0,0,0,0,0,0c0,0,0,0,0,0c0,0,0,0-0.1,0
			c-0.1,0-0.1,0-0.2,0c-0.2,0-0.5-0.1-0.6-0.4l0.1-2.2c4.9-0.7,10-1.7,15.3-3.1C377.7,237.3,382.8,235.7,387.7,233.8z M322.4,239.6
			c-15.6-3.3-32.3-9.7-50.3-19.1c0,0,0-0.1,0.1-0.1c14.5,7.8,29.1,13.7,43.4,17.5c0,0,0,0,0.1,0c0.1,0,0.2,0,0.2-0.1
			c0.8,0.2,1.6,0.5,2.4,0.7c0,0,0,0,0,0c0,0,0,0,0,0c0.5,0.1,1,0.3,1.4,0.4c0,0.1,0.1,0.1,0.2,0.1
			C320.7,239.2,321.5,239.4,322.4,239.6z M271.6,220C271.6,220,271.5,220,271.6,220c-1.2-0.6-2.3-1.4-3.4-2.1
			C269.3,218.6,270.4,219.3,271.6,220z M438,166.6l-0.1,1.7c0,0,0,0,0,0c0,0,0,0,0,0c0,0,0,0,0,0c0,0,0,0,0,0c0,0.4,0,0.9,0,1.3
			c0,0.1,0,0.3-0.1,0.4l0,0c0,0,0,0,0,0c0,0,0,0,0,0c-0.3,2.4-0.7,4.8-1.2,7.5c-0.1,0.6-0.3,1.3-0.5,1.9c-1.3,4.3-3.4,8.6-6.2,12.9
			c-4.2,6.5-10.2,12.9-16.7,18c-11.9,9.3-26.4,15.9-43,19.6c-33.5,7.5-67.1,3.6-94.6-10.9c-17.4-9.1-30.1-21.8-37.5-37.6
			c-2.3-6-3.6-11.9-4-18c0.1-1,0.1-1.9,0-2.8c0,0,0,0,0-0.1c0.4-9,2.4-16.5,6-23.5c1.9-3.8,4.2-7.2,6.6-10.4
			c-4.8,6.5-8.2,13.7-10.1,21.7c-2.3,9.9-1.6,19.3,2.5,31.6c0,0,0,0,0,0c0,0,0,0,0,0c10.6,20.9,29.1,36.4,53.6,44.7
			c13.7,4.7,29,7.1,44.7,7.1c7.8,0,15.7-0.6,23.5-1.8c24.4-3.8,45.6-14,59.7-28.8c4.6-4.8,8.2-10.2,10.9-15.8c0,0,0,0,0,0
			c0,0,0.1,0,0.2,0c0.1,0,0.2-0.1,0.3-0.2c0.1-0.3,0.1-0.6,0.1-0.9c0-0.1,0-0.2-0.1-0.2c6.8-15.5,6.3-32.9-2.2-47.9
			C435.2,145.6,437.9,155.7,438,166.6C438,166.5,438,166.6,438,166.6z"/>
	</g>
</g>
<g id="g-1" transform="matrix(0, -1.715649, 1.658676, 0, -11.636439, 632.936462)" bx:origin="-0.13 2.064">
	<g>
		<g>
			<path class="fillpulse" d="M114.4,174.2c-8.5-14.3-17-28.6-25.5-42.9c4.2-0.8,9.4-3.2,12.5-0.6c4.4,3.7,7.6,13,10.6,17.9
				c3.9,6.7,7.9,13.4,11.8,20.1c2.9,4.9,4.2,3.3,9.9,2.4c-0.4,7.7-0.8,15.3-1.2,23c-8.6-6.2-17.1-12.5-25.7-18.7
				C109.3,175,111.9,174.6,114.4,174.2z"/>
		</g>
	</g>
	<g>
		<g>
			<path d="M88.5,131.3c0-0.1,0.1-0.3,0.2-0.4c0.2-0.1,0.4-0.1,0.6,0.1l25.5,42.9c0.1,0.2,0.1,0.5-0.1,0.6c-0.2,0.1-0.4,0.1-0.6-0.1
				l-25.5-42.9C88.5,131.5,88.5,131.4,88.5,131.3z"/>
		</g>
		<g>
			<path d="M88.5,131.3c0-0.2,0.1-0.4,0.3-0.4l11.6-2.1c0.2,0,0.4,0.1,0.5,0.3c0,0.2-0.1,0.5-0.3,0.5L89,131.7
				C88.7,131.8,88.5,131.6,88.5,131.3C88.5,131.3,88.5,131.3,88.5,131.3z"/>
		</g>
		<g>
			<path d="M100.1,129.2c0-0.1,0.1-0.3,0.2-0.4c0.2-0.1,0.4-0.1,0.6,0.1l25.4,43.1c0.1,0.2,0.1,0.5-0.1,0.6
				c-0.2,0.1-0.4,0.1-0.6-0.1l-25.4-43.1C100.1,129.4,100.1,129.3,100.1,129.2z"/>
		</g>
		<g>
			<path d="M125.5,172.3c0-0.2,0.1-0.4,0.4-0.4l7.8-1.2c0.2,0,0.4,0.1,0.5,0.4c0,0.2-0.1,0.5-0.3,0.5l-7.8,1.2
				C125.7,172.8,125.5,172.6,125.5,172.3C125.5,172.3,125.5,172.3,125.5,172.3z"/>
		</g>
		<g>
			<path d="M132.1,194.1C132.1,194.1,132.1,194.1,132.1,194.1l1.2-23c0-0.2,0.2-0.4,0.4-0.4c0.2,0,0.4,0.2,0.4,0.4l-1.2,23
				c0,0.2-0.2,0.4-0.4,0.4C132.3,194.5,132.1,194.3,132.1,194.1z"/>
		</g>
		<g>
			<path d="M106.4,175.4c0-0.1,0-0.2,0.1-0.2c0.1-0.2,0.4-0.2,0.6-0.1l25.7,18.7c0.2,0.1,0.2,0.4,0.1,0.6c-0.1,0.2-0.4,0.2-0.6,0.1
				l-25.7-18.7C106.4,175.7,106.4,175.5,106.4,175.4z"/>
		</g>
		<g>
			<path d="M106.4,175.4c0-0.2,0.1-0.4,0.4-0.4l7.6-1.2c0.2,0,0.4,0.1,0.5,0.4c0,0.2-0.1,0.5-0.3,0.5l-7.6,1.2
				C106.6,175.9,106.4,175.7,106.4,175.4C106.4,175.4,106.4,175.4,106.4,175.4z"/>
		</g>
	</g>
</g>
</svg>
