<?xml version="1.0" encoding="utf-8"?>
<!-- Generator: Adobe Illustrator 21.0.0, SVG Export Plug-In . SVG Version: 6.00 Build 0)  -->
<svg version="1.1" id="Layer_1" xmlns="http://www.w3.org/2000/svg" xmlns:xlink="http://www.w3.org/1999/xlink" x="0px" y="0px"
	 viewBox="0 0 1417.3 1198.6" style="enable-background:new 0 0 1417.3 1198.6;" xml:space="preserve">
<g>
	<path d="M1405.9,693.9c-28.8-111.8-66.6-162.3-201.9-269.9C1007.6,267.7,704.7,52.1,670.2,33.4c-1.2-0.6-2.4-1.3-3.8-2.1
		C630.7,11.7,547-34.1,419.1,43.8c-19.3,11.8-36.7,23.6-52.4,35.1c-12.6-7.9-42.9-26.8-60.3-34.6c-11-4.9-28.8-5.8-48.6-3.2
		c-2.4-0.8-7.7,1-10.5,1.6c-0.6,0.1-1.1,0.2-1.7,0.3c-1,0.1-2.3,0.2-3.1,0.6c-18.4,3.8-37.5,10.2-53.9,18.7l-0.7,0.4
		c-38.6,20-118.9,61.6-169.3,223.5c-1.3,4.1-2.5,8.4-3.8,12.8C8,323,3.3,347.5,1.3,372.8c-0.3,3.4-0.5,6.8-0.6,10.2
		c-0.9,2.2-1,5.4-0.2,7.6c-0.2,19.6,2.1,39.7,8,58.1c2.2,7,4.9,13.8,8.2,20.3c12.7,29.1,28.9,41.8,29.7,42.4l0.2,0.2l53.1,32.9
		l0.4-0.6c-2.4,21.1-3.5,42.1-3.4,62.8c0.3,56.8,11.2,104.8,32.2,142.7c17.1,30.9,40.8,54.9,70.5,71.4
		c52.5,29.2,408.8,201.8,476.5,229.6c5.4,2.2,11.8,4.8,19,7.8c72.6,29.8,225.4,92.7,303.8,121.3c0.1,0,0.1,0,0.2,0.1l0,0
		c16.5,6,29.8,10.5,38.2,12.9c15.1,4.2,31,6.2,47.5,6.2c21.5,0,43.9-3.4,66.3-9.9l0.1,0l0.1-0.1c73.6-21.2,147.4-75,192.4-146.9
		C1409.7,935.1,1433.8,801.8,1405.9,693.9z M1332.2,567.6c23.5,31.6,38.9,63.6,52.4,110c-26.5,97-63.6,150.9-130.5,190.7
		c-46.8,27.8-94,49-144.6,64.9c-67.9,21.3-143.7,33.3-225.1,35.6c-10.2-40.6-14-86.4-11.3-136.6c4.1-79.4,26.7-158,63.5-221.4
		c18.4-31.7,39.9-58.9,63.8-80.8c24.7-22.6,51.4-39.1,79.5-49c89.5-31.5,162.3,2.8,205.6,34.5
		C1304.8,534.2,1319.8,551.1,1332.2,567.6z M1077.2,473.3c-29.1,10.2-56.8,27.3-82.3,50.7c-24.5,22.5-46.5,50.3-65.3,82.7
		c-37.5,64.5-60.4,144.4-64.6,225c-2.6,50.6,1.2,96.8,11.3,137.9l-16.3-1.4c-8.4-41.3-11.4-87.3-8.8-136.3
		c4.4-82.4,28-163.9,66.7-229.7c19.3-32.8,41.7-60.9,66.7-83.6c25.7-23.3,53.6-40.3,82.8-50.5c92.4-32.1,154.5-3.2,182.5,16
		C1205.4,462.3,1146.1,449,1077.2,473.3z M263.7,51.5c0,0,0.1,0,0.1,0.1c17.6,10.2,35.3,20.4,52.9,30.6c8.2,4.8,16.4,9.5,24.7,14.3
		c0.4,0.3,0.9,0.6,1.5,0.9c-0.8,0.7-1.7,1.3-2.5,2c-1.7-1.2-3-2-3.1-2c-9.4-5.5-18.9-10.9-28.3-16.4c-16.6-9.6-33.2-19.3-49.9-28.9
		C260.6,51.9,262.2,51.7,263.7,51.5z M232.6,57.3c1.3,0.6,2.4,1.1,3.1,1.6c19.2,11.1,38.4,22.2,57.6,33.3c8.7,5,17.4,10.1,26.1,15.1
		c1.3,0.7,2.9,1.9,4.6,3.1c-1,0.5-2,0.9-2.6,1.2s-2.1,0.6-3.3,1c-0.2-0.2-0.3-0.3-0.4-0.4c-2.1-1.8-5.1-3-7.5-4.4
		c-9.8-5.7-19.7-11.4-29.5-17c-18.3-10.5-36.5-21-54.7-31.6C228.1,58.6,230.3,57.9,232.6,57.3z M209.9,64.8c2.7,1.6,5.7,2.8,7,3.6
		c20.8,12,41.5,23.9,62.2,35.9c9.7,5.6,19.3,11.2,29,16.7c1.1,0.7,2.6,1.7,4.2,2.8c-1.5,1.4-2.9,2.7-4.3,4.1
		c-0.9-2.2-2.2-4.3-3.3-5.7c-0.1-0.8-0.6-1.4-1.9-1.9c-0.3-0.1-0.7-0.1-1.2-0.1c-3.1-2.5-6.8-4.7-7.1-4.9
		c-9.8-5.7-19.7-11.4-29.5-17.1c-18.9-10.9-37.7-21.9-56.6-32.8C208.9,65.2,209.4,65,209.9,64.8z M302.5,132.5
		c-1.4,0.8-2.8,1.7-4.2,2.5c-1.4-0.5-3-0.1-4.4,0.8c-0.4-1-0.9-2-1.4-2.9c2.5-1.2,5.4-3.1,7.7-4.9
		C300.9,129.6,301.6,131.2,302.5,132.5z M193,72.5l0.7-0.4c2.3-1.2,4.6-2.3,6.9-3.4c2,1.1,4.2,2.1,5.3,2.7
		c19.1,11.1,38.3,22.2,57.4,33.3c8.7,5,17.4,10.1,26.1,15.1c1.4,0.8,3.3,2.3,5.4,3.6c-1.2,0.8-2.3,1.6-3.1,2c-0.6,0.3-2,1.3-3.5,2.6
		c-0.2-0.2-0.4-0.4-0.6-0.5c-2.1-1.7-5.2-3-7.5-4.3c-9.8-5.7-19.7-11.4-29.5-17c-18.9-10.9-37.9-21.9-56.8-32.8
		c-0.3-0.2-0.7-0.4-1.1-0.7C192.8,72.6,192.9,72.5,193,72.5z M267.6,163.7c6.4-5,12.9-10.1,19.5-14.8
		c-26.1,27.7-38.5,47.3-40.7,50.9c-56.8,72.3-99.2,153.8-124.1,236.5c4.1-51,20.7-100.5,44.1-145.9
		C190.9,242.8,225.5,196.9,267.6,163.7z M230.6,182c3.1-2.4,6.9-6.2,9.5-9.7c0.8,1.9,1.9,3.7,3,5.1c-3.5,3.2-6.9,6.5-10.2,9.9
		C232.3,185.4,231.5,183.6,230.6,182z M261.8,153.9c2.9-2.1,5.9-5.2,7.6-6.5c0.3-0.2,0.6-0.5,0.9-0.8c0.7,2,1.8,4,3,5.5
		c-3.1,2.3-6.2,4.8-9.3,7.2C263.6,157.4,262.7,155.5,261.8,153.9z M179.3,79.8c2.7,1.7,6.1,3,7.5,3.9c21.1,12.2,42.3,24.5,63.4,36.7
		c9.6,5.6,19.2,11.1,28.8,16.7c2,1.2,5.1,3.6,8,5.3c-2.8,1.9-5.6,3.8-8.3,5.8c-0.9-2.7-2.5-5.7-4.1-7.5c0.3-1.1-0.1-1.9-1.7-2
		c-0.3-0.3-0.6-0.6-0.8-0.8c-2.1-1.8-5.1-3-7.5-4.4c-9.8-5.7-19.7-11.4-29.5-17c-18.9-10.9-37.9-21.8-56.8-32.8
		c-0.6-0.3-1.5-1-2.7-1.8C176.8,81.2,178,80.5,179.3,79.8z M165.7,87.9c0.2-0.1,0.3-0.3,0.5-0.4c0.6-0.4,1.3-0.8,1.9-1.2
		c0.1-0.1,0.3-0.2,0.4-0.3c2.5,1.7,5.8,3.1,7.3,3.9c19.1,11.1,38.3,22.2,57.4,33.3c8.7,5,17.4,10.1,26.1,15.1
		c1.5,0.9,3.5,2.4,5.6,3.8c-2.3,1.9-4.7,4.3-6.3,5.6c-0.5,0.4-1.2,1.1-2,1.9c-3-2.4-6.7-4.6-7-4.8c-9.8-5.7-19.7-11.4-29.5-17
		c-18.9-10.9-37.9-21.9-56.8-32.8c-0.6-0.4-1.9-1.2-3.3-2.1C162.3,91,164.4,88.9,165.7,87.9z M144.3,104c0.6-0.5,2.1-1.6,3.5-2.9
		c2.9,1.9,6.8,3.5,8.3,4.4c21.1,12.2,42.3,24.4,63.4,36.5c9.6,5.5,19.2,11.1,28.8,16.6c2.3,1.3,5.9,4.3,9.3,6
		c-3.2,2.6-6.3,5.4-9.4,8.1c-1.2-3.7-3.6-7.7-5.6-8.9c-0.4-0.5-0.9-1-1.3-1.3c-2.1-1.7-5.1-3-7.5-4.3c-9.8-5.7-19.7-11.4-29.5-17
		c-18.9-10.9-37.9-21.9-56.8-32.8c-0.8-0.5-2.7-1.8-4.7-3C143.4,104.8,143.9,104.3,144.3,104z M133.4,115.1c0.6-0.6,2.8-2.5,4.7-4.5
		c2.5,1.7,5.8,3.1,7.3,3.9c19.1,11.1,38.3,22.2,57.4,33.3c8.7,5,17.4,10.1,26.1,15.1c1.7,1,4.1,2.9,6.6,4.4
		c-2.2,2.1-4.1,4.5-5.2,5.5c-0.5,0.4-2.4,2.2-4.2,4.2c-2.1-1.7-5.1-2.9-7.4-4.3c-9.8-5.7-19.7-11.4-29.5-17
		c-18.9-10.9-37.9-21.8-56.8-32.8c-0.7-0.4-2.2-1.4-3.9-2.4C130.4,118.6,132.2,116.2,133.4,115.1z M122.6,125.2
		c2.5,1.8,5.9,3.1,7.4,4c19.1,11.1,38.3,22.2,57.4,33.3c8.7,5,17.4,10.1,26.1,15.1c1,0.6,2.3,1.5,3.7,2.5c-9.5-5.5-19-11-28.5-16.4
		c-20.4-11.8-40.8-23.5-61.3-35.3c-0.7-0.4-2.7-1.8-4.9-3C122.5,125.3,122.6,125.3,122.6,125.2z M111.5,135.5c0.6-0.6,3-3,5.1-5.6
		c2.9,2,7.1,3.7,8.7,4.6c21.1,12.2,42.3,24.4,63.4,36.5c9.6,5.5,19.2,11.1,28.8,16.6c2.4,1.4,6,4.3,9.4,6c-3.2,3.5-6.4,7-9.5,10.6
		c-1.4-4.4-4.4-9.1-6.4-9.2c-0.2,0-0.4,0-0.5,0c-3.1-2.5-7-4.8-7.3-5c-9.8-5.7-19.7-11.4-29.5-17c-18.9-10.9-37.9-21.9-56.8-32.8
		c-1-0.6-3.5-2.4-6-3.6C110.9,136.2,111.2,135.8,111.5,135.5z M101.5,531.5c-5-2.9-9.9-5.7-14.9-8.6c-5.7-3.3-11.4-6.6-17.1-9.9
		l-3.8-2.4c-1.5-1.1-3.4-2.4-5.2-3.2l-7.8-4.8c-1.9-1.5-18.3-15.6-29.6-46.7c-20.4-55.9-8-121.3,6-166.4
		c11.3-36.3,24.1-66.4,37.6-91.4c1-1.7,2-3.4,3-5c6.6-10.9,13.7-21.6,21.3-31.8c4.4-5.8,10.5-11.4,14.4-17.6c0.5-0.4,1-0.9,1.5-1.4
		c2.5,1.8,5.9,3.2,7.5,4c19.1,11,38.3,22.1,57.4,33.1c8.7,5,17.4,10,26.1,15c1.9,1.1,4.6,3.3,7.4,4.8
		c-14.9,16.7-27.7,35.4-39.5,54.4c-22.1,35.4-40.9,74.7-50.8,115.5c-5.5,22.9-9.7,45.8-10.9,69.4c-0.3,5.9-0.7,41.4,3.7,55.9
		C105.2,506.9,103.2,519.2,101.5,531.5z M124.7,361c12.9-41.8,31-81.7,55.5-118c6-8.9,12.2-17.8,19-26.2c3-3.7,7.2-7.7,10.3-11.8
		c0.8,1.9,1.9,3.6,2.9,4.9C187,240.4,166,275.4,149.7,311c-11.3,24.8-20.7,50.9-26.7,77.5c-1.2,5.5-7.1,38.5-8.5,61.9
		c-0.2,1.1-0.3,2.3-0.2,3.5c-0.2,4-0.2,7.7,0.1,10.8c-0.9,3.4-1.7,6.8-2.5,10.2C107.8,436.8,113.4,397.3,124.7,361z M259.6,209.4
		l0.3-0.4l0.3-0.5c0.1-0.2,11.7-19.4,38-47.5c24.3-25.9,66.5-64.8,129.4-103.3c45.1-27.5,88.7-41.4,130-41.4c6,0,11.9,0.3,17.8,0.9
		c38.3,3.8,66.3,19.2,83.1,28.4c1.3,0.7,2.6,1.4,3.8,2.1c29.8,16.1,326,225.6,531.5,389c3.7,3,7.4,5.9,11,8.8
		c-35.6-10.3-83.6-13.3-142.9,7.3c-31.3,10.9-61,29-88.4,53.8c-26.2,23.8-49.7,53.2-69.8,87.4c-39.9,67.9-64.4,152.1-68.9,237.1
		c-2.4,46.4,0,90.2,7.2,130.1c-58.8-24.8-287.6-128.9-360.5-163.5c-80.7-38.2-289.5-148.3-368.6-191.2
		C112.1,473.6,165.6,328.8,259.6,209.4z M700.9,1043.2c-7.3-3-13.7-5.6-19-7.8c-67.5-27.7-422.5-199.7-474.8-228.8
		c-26.9-15-48.5-36.9-64.1-65.1c-18.5-33.4-28.6-75.7-30-125.7c82,44.4,285.5,151.6,364.9,189.2c75.2,35.6,315.6,144.9,365.9,165.7
		c6.1,30.1,14.8,57.8,26.3,82.7c14.9,32.4,34.4,59.9,57.8,81.8C849.8,1104.4,753.9,1065,700.9,1043.2z M1075.5,1176.6
		c-1,2.2-2.1,4-3.2,5.4c-10.8-0.7-21.2-2.5-31.2-5.2c-8.1-2.2-20.8-6.6-36.7-12.4l0,0c-26.2-10-49.6-25.2-69.8-45.2
		c-19.9-19.7-36.7-44.2-49.8-72.7c-9.8-21.2-17.5-44.7-23.2-70l16.7,1.4c4.4,16.2,9.9,31.7,16.3,46.2c18.5,41.6,44.7,75.6,78.1,101
		c18.4,14,56,38.8,103.3,49.9C1075.9,1175.6,1075.7,1176.1,1075.5,1176.6z M1108,1163.6c-0.2,1-0.4,2.1-0.6,3.2
		c-0.7,3.7-1.8,9.8-3,14.6c-3.4,0.3-6.8,0.6-10.1,0.8c-6.7-3.8-9.1-5.2-9.9-5.6c0.6-1.7,1.2-3.5,1.7-5.4c3.3-12.1,8.6-12.6,9.5-12.6
		c0,0,0,0,0,0l0.1,0l10.9,0l0.5-0.1c0,0,0.6,0,0.7,0.1C1108.1,1158.7,1108.6,1160.1,1108,1163.6z M1153.5,1160.9
		c-0.8,4.7-1.5,8-2.3,10.7c-3.6,1.1-7.2,2.2-10.7,3.1l-7.8-3.8c0.3-0.9,0.5-1.8,0.8-2.8c2.5-9.7,6.6-12.2,8.6-12.2l0.1,0l10.3,0
		l0.5-0.1c0,0,0.3,0,0.4,0C1153.4,1155.9,1154.2,1156.9,1153.5,1160.9z M1294,1079.5l-1.8-0.5c1.4-5.7,3.6-10.1,6.4-13.4
		c2.3-2.7,4.3-4.6,5.8-5.7c0.1,2.2,0.2,4.8,0.3,7.3C1301.3,1071.3,1297.7,1075.4,1294,1079.5z M1329.3,1033.2
		c-1.7,2.7-3.5,5.4-5.2,8.1l-1.8-0.7c1.2-7,3.1-12.4,5.8-16.4c1.3-1.9,2.4-3.4,3.4-4.5c0.1,2.9,0.2,6.4,0.4,9.4
		C1331,1030.4,1330.1,1031.8,1329.3,1033.2z M1392.9,870.7c-9.9,50.9-28.2,100.7-53.4,145.3c0-0.3,0-0.6,0-0.9
		c-0.2-4.5-2.6-5.9-4.1-6.4c-2.7-0.8-6.5-0.1-14,10.9c-5.5,8.1-8.3,20.1-8.6,37.5c-0.1,0.1-0.1,0.2-0.2,0.3c0-0.3,0-0.7,0-1
		c-0.2-4.3-2.8-5.7-3.9-6c-1.6-0.5-5.7-2-16,9.8c-6.1,7.1-9.5,17.2-10.3,31.5c-25.5,25.2-55.4,46.6-87.7,62.5
		c-11.4,5.6-22.8,10.4-34.2,14.4c0.4-1.9,0.8-3.9,1.2-6.3c1-5.7,0.1-9.8-2.5-12.4c-2.2-2.1-5.2-2.5-7.3-2.1l-8.8,0
		c-2.4-0.2-12.6,0.3-17.3,18.2c-0.7,2.5-1.4,4.7-2.2,6.6c-2.9,0-5.8-0.1-8.8-0.2c0.3-1.4,0.5-2.7,0.8-4.2c0.2-1.1,0.4-2.1,0.6-3.1
		c1-5.7,0.2-10-2.5-12.6c-2.7-2.6-6.2-2.4-7.6-2.2l-9.5,0c-2.4-0.2-12.5,0.2-17.7,17c-46.2-10.6-83-35-101-48.6
		c-32.3-24.6-57.7-57.5-75.6-97.8c-6.2-13.9-11.4-28.6-15.6-44.1c81.5-2.5,157.3-14.6,225.4-35.9c51.2-16,99-37.5,146.3-65.7
		c65.8-39.2,103.6-91.4,130.5-182.6c0.5,1.7,0.9,3.5,1.4,5.3C1403.7,750.4,1404.6,810.1,1392.9,870.7z"/>
	<path d="M1057.2,766.7c-1.3-2.7-2.6-5.3-3.6-7.8c-4.8-11.7-30-70.5-51-77.2c-3.9-1.2-7.7-0.8-10.9,1.2
		c-17.5,10.9-8.5,25.3-2.6,34.7c1.4,2.3,2.7,4.4,3.8,6.5l1.2,2.4c7.6,14.6,15.4,29.7,22.7,44.7c1.2,2.4,2.4,5.1,3.6,7.9
		c4.1,9.3,8.7,19.9,16.7,26.6c4.2,3.5,8.7,5.3,13,5.3c2.9,0,5.7-0.8,8.2-2.4c6.5-4.2,9.3-12.7,7-21.2
		C1063.2,778.9,1060,772.4,1057.2,766.7z M1053.9,801.5c-3.2,2-7.4,1.2-11.5-2.2c-6.5-5.5-10.6-14.7-14.5-23.6
		c-1.3-2.9-2.5-5.6-3.7-8.2c-7.4-15.1-15.2-30.2-22.8-44.9l-1.2-2.4c-1.2-2.4-2.7-4.7-4.1-7c-7.5-12-9.6-17.5,0-23.5
		c0.5-0.3,1.2-0.7,2.2-0.7c0.5,0,1.1,0.1,1.9,0.3c12.8,4.1,32.8,40.5,46,72.6c1.1,2.8,2.5,5.5,3.9,8.3c2.8,5.7,5.7,11.5,7.5,18.9
		l0,0.1C1059,795.1,1056.8,799.6,1053.9,801.5z"/>
	<path d="M1103.1,748c-1.3-2.7-2.6-5.3-3.6-7.8c-4.8-11.7-30-70.5-51-77.2c-3.9-1.2-7.7-0.8-10.9,1.2c-17.5,10.9-8.5,25.3-2.6,34.7
		c1.4,2.3,2.7,4.4,3.8,6.5l1.3,2.6c7.5,14.5,15.3,29.6,22.6,44.5c1.2,2.4,2.4,5.1,3.6,7.9c4.1,9.3,8.7,19.9,16.7,26.6
		c4.2,3.5,8.7,5.3,13,5.3c2.9,0,5.7-0.8,8.2-2.4c6.5-4.2,9.3-12.7,7-21.2C1109.1,760.3,1105.9,753.8,1103.1,748z M1099.8,782.9
		c-3.2,2.1-7.4,1.2-11.5-2.2c-6.5-5.5-10.6-14.7-14.5-23.6c-1.3-2.9-2.5-5.6-3.7-8.2c-7.4-15-15.2-30.1-22.7-44.7l-1.3-2.6
		c-1.2-2.4-2.7-4.7-4.1-7c-7.5-12-9.6-17.5,0-23.5c0.5-0.3,1.2-0.7,2.2-0.7c0.5,0,1.1,0.1,1.9,0.3c12.8,4.1,32.8,40.5,46,72.6
		c1.1,2.8,2.5,5.5,3.9,8.3c2.8,5.7,5.6,11.5,7.5,18.9l0,0.1C1104.9,776.5,1102.7,781,1099.8,782.9z"/>
	<path d="M1206.5,617.5l0.3,0.5c7,13.6,14.2,27.7,20.2,42c1.2,2.8,2.3,5.8,3.4,8.9c3.2,8.8,6.5,18,12.9,25c3.4,3.7,7.3,5.2,11,5.2
		c3.1,0,6-1.1,8.2-3c6.9-6.2,5.3-17,4.7-21.1l-0.1-0.3c-1.8-8.1-4.7-15.7-7.4-23c-0.9-2.5-1.9-5-2.8-7.6
		c-0.2-0.6-24.8-64.2-43.6-68.2c-3.4-0.7-6.7,0.3-9.2,2.9c-11.9,12.4-5.9,23.2-0.2,33.6C1204.7,614.1,1205.6,615.8,1206.5,617.5z
		 M1209.9,584.5c0.5-0.5,0.8-0.6,1.1-0.6c0.1,0,0.3,0,0.4,0.1c1.8,0.4,8.6,3.6,22.1,29.1c7.6,14.4,14.1,29.9,15.6,33.9
		c0.9,2.6,1.9,5.2,2.8,7.7c2.8,7.4,5.4,14.4,7.1,21.9c0.7,4.5,1.2,10.7-2,13.6c-2.5,2.2-6.1,0.2-7.7-1.6
		c-5.3-5.8-8.3-14.2-11.2-22.3c-1.1-3.1-2.3-6.3-3.6-9.3c-6.1-14.5-13.4-28.8-20.4-42.5l-0.3-0.5c-0.9-1.8-1.9-3.6-2.8-5.3
		C1205,597.8,1202.5,592.2,1209.9,584.5z"/>
	<path d="M1233.7,589.2c2.3,4.4,4.6,8.9,6.9,13.2c4.8,9,9.7,18.3,14,27.4c1.7,3.7,3.2,7.6,4.7,11.7c3.4,9,6.9,18.4,13.4,25.8
		c3.3,3.8,7.6,6,11.7,6.1c0.1,0,0.2,0,0.3,0c3.3,0,6.3-1.3,8.8-3.9c5.1-5.2,6.4-13.1,4.2-24.1l-0.1-0.3
		c-3.2-11.5-8.2-21.5-13.5-32.1c-2.3-4.6-10.2-19.5-18.8-33.4c-16.4-26.4-23.7-30.5-28.3-31.1c-2.6-0.4-5,0.5-6.8,2.4
		c-10.9,11.9-4.6,23.6,1,33.8C1232.1,586.3,1232.9,587.7,1233.7,589.2z M1236.2,556.7c1.1,0.3,7,2.8,21.9,26.7
		c8.6,13.8,16.5,28.8,18.9,33.5c5.1,10.1,9.9,19.7,12.8,30.3c1.6,8.1,0.9,13.5-2.1,16.7c-0.9,1-1.9,1.4-3,1.4c-1.8,0-4-1.3-5.8-3.3
		c-5.6-6.4-8.8-15-11.9-23.3c-1.5-4.1-3.1-8.3-5-12.3c-4.4-9.4-9.4-18.7-14.2-27.8c-2.3-4.3-4.6-8.7-6.9-13.1
		c-0.8-1.5-1.6-3-2.4-4.5C1232.7,570.3,1229.7,563.9,1236.2,556.7z"/>
</g>
</svg>
