<?xml version="1.0" encoding="utf-8"?>
<!-- Generator: Adobe Illustrator 21.0.0, SVG Export Plug-In . SVG Version: 6.00 Build 0)  -->
<svg version="1.1" xmlns="http://www.w3.org/2000/svg" xmlns:xlink="http://www.w3.org/1999/xlink" x="0px" y="0px"
	 viewBox="0 0 245 245" style="enable-background:new 0 0 245 245;" xml:space="preserve">
<g id="Layer_1">
	<g>
		<path d="M122.5,0C55,0,0,55,0,122.5C0,190.1,55,245,122.5,245S245,190.1,245,122.5C245,55,190.1,0,122.5,0z M122.5,242
			C56.6,242,3,188.4,3,122.5C3,56.6,56.6,3,122.5,3S242,56.6,242,122.5C242,188.4,188.4,242,122.5,242z"/>
		<path d="M122.6,6.3C58.5,6.3,6.4,58.4,6.4,122.5c0,64.1,52.1,116.2,116.2,116.2s116.2-52.1,116.2-116.2
			C238.9,58.4,186.7,6.3,122.6,6.3z M122.6,237.3c-63.3,0-114.8-51.5-114.8-114.8C7.9,59.2,59.3,7.8,122.6,7.8
			s114.8,51.5,114.8,114.7C237.4,185.8,185.9,237.3,122.6,237.3z"/>
		<path d="M17.4,124.6h17.8v-5.2H17.4V124.6z M18.8,120.8h15v2.4h-15V120.8z"/>
		<path d="M122.4,30.8c1.9,0,3.5-1.6,3.5-3.5c0-1.9-1.6-3.5-3.5-3.5s-3.5,1.6-3.5,3.5C118.9,29.2,120.5,30.8,122.4,30.8z
			 M122.4,25.2c1.2,0,2.1,0.9,2.1,2.1c0,1.2-0.9,2.1-2.1,2.1s-2.1-0.9-2.1-2.1C120.3,26.2,121.3,25.2,122.4,25.2z"/>
		<path d="M220.5,118.9v-5.8h-6.4v5.8h-5.7v6.3h5.7v5.7h6.4v-5.7h5.7v-6.3H220.5z M224.8,123.8h-5.7v5.7h-3.6v-5.7h-5.7v-3.5h5.7
			v-5.8h3.6v5.8h5.7V123.8z"/>
		<circle cx="169.3" cy="103.4" r="2.1"/>
		<circle cx="136" cy="154" r="1"/>
		<path d="M174.3,127.4v3.8h1.2v-3.8c0-0.3-0.2-0.6-0.6-0.6C174.6,126.8,174.3,127,174.3,127.4z"/>
		<path d="M114,157.5C114.1,157.4,114,157.4,114,157.5L114,157.5z"/>
		<path d="M122.6,47.4c-41.5,0-75.1,33.6-75.1,75.1s33.6,75.1,75.1,75.1c41.5,0,75.1-33.6,75.1-75.1S164.1,47.4,122.6,47.4z
			 M169.3,100.1c1.8,0,3.3,1.5,3.3,3.3s-1.5,3.3-3.3,3.3s-3.3-1.5-3.3-3.3S167.5,100.1,169.3,100.1z M165.8,117.9v7.1
			c0,0.1-0.1,0.2-0.1,0.2c-0.1,0-0.1,0-0.2,0c0,0,0,0-0.1,0L165,125l-1.6-1v-6.1c0-0.4-0.1-0.9-0.3-1.2l1.7-1.7
			C165.5,115.8,165.8,116.8,165.8,117.9z M163,134.4c0.3-0.4,0.5-0.8,0.5-1.3v-6l1.6-1l0.4-0.3c0.1,0,0.1,0,0.2,0
			c0.1,0.1,0.1,0.1,0.1,0.2v7.1c0,1.1-0.4,2.2-1.2,3L163,134.4z M164.3,136.4c-0.8,0.7-1.9,1.2-3,1.2H155c-1.1,0-2.2-0.4-3-1.2
			l1.7-1.6c0.4,0.3,0.8,0.5,1.3,0.5h6.3c0.5,0,1-0.2,1.3-0.5L164.3,136.4z M154.8,113.4h6.5c1.2,0,2.3,0.5,3.1,1.3l-1.7,1.7
			c-0.4-0.3-0.9-0.6-1.5-0.6h-6.3c-0.5,0-1,0.2-1.4,0.5l-1.7-1.7C152.6,113.9,153.7,113.4,154.8,113.4z M151.5,125.3l1-0.6l0.3-0.1
			l0.3-0.2h10l0.3,0.2l0.3,0.1l1,0.6c0.1,0.1,0.1,0.2,0.1,0.2c0,0.1,0,0.1-0.1,0.2l-1,0.6l-0.3,0.2l-0.3,0.2h-10l-0.3-0.2l-0.3-0.1
			v-0.1l-1-0.6c-0.1,0-0.1-0.1-0.1-0.2C151.4,125.4,151.4,125.4,151.5,125.3z M142.2,133.7h1.9v2h-1.9V133.7z M142.2,136.4v-0.2h1.9
			v0.3l-1.7,4.4H141L142.2,136.4z M137.1,104.2v12c0,0.2-0.1,0.4-0.3,0.5c-0.2-0.1-0.3-0.1-0.5-0.1l-0.6-0.3l-2.6-1.6v-10.6
			c0-0.8-0.3-1.6-0.7-2.2l2.8-2.8C136.4,100.4,137.1,102.2,137.1,104.2z M116.1,132.8c0.6,0.6,1.5,0.9,2.4,0.9h10.9
			c1,0,1.8-0.4,2.5-0.9l2.8,2.8c-1.4,1.3-3.2,2.1-5.3,2.1h-10.8c-2,0-3.9-0.8-5.3-2.1L116.1,132.8z M112.6,117.6
			c-0.1-0.2-0.2-0.4-0.2-0.5c0-0.2,0.1-0.3,0.2-0.4l1.8-1.1v3.2L112.6,117.6z M114.5,118.7v-3.2l0.5-0.3l0.1-0.1h17.8l0.2,0.1
			l0.5,0.3v3.2l-0.5,0.3l-0.1,0.1h-17.9L115,119L114.5,118.7z M132.2,132.4c0.6-0.6,0.9-1.5,0.9-2.4v-10.4l2.6-1.7l0.6-0.4
			c0.2-0.1,0.3-0.1,0.5,0c0.2,0.1,0.3,0.3,0.3,0.5v11.9c0,2-0.8,3.9-2.1,5.3L132.2,132.4z M133.7,118.7v-3.2l1.8,1.2
			c0.1,0.1,0.2,0.2,0.2,0.4s-0.1,0.3-0.2,0.4L133.7,118.7z M118.7,96.4h10.7c2.1-0.1,4.1,0.8,5.5,2.2l-2.8,2.8
			c-0.7-0.7-1.6-1.1-2.6-1.1h-10.8c-1,0-1.8,0.4-2.5,1l-2.8-2.8C114.8,97.2,116.7,96.4,118.7,96.4z M111,104c0-2,0.8-3.8,2-5.2
			l2.8,2.8c-0.5,0.6-0.9,1.5-0.9,2.4v10.6l-2.6,1.6l-0.5,0.3c0,0,0,0-0.1,0c-0.1,0.1-0.2,0.1-0.4,0c-0.2-0.1-0.3-0.3-0.3-0.5V104z
			 M104.7,99.1c1.2,1.3,1.9,3.1,1.9,5.1v12c0,0.2-0.1,0.4-0.3,0.5c-0.1-0.1-0.3-0.1-0.5-0.1l-0.6-0.3l-2.6-1.6v-10.6
			c0-0.8-0.3-1.6-0.7-2.2L104.7,99.1z M102.7,130v-10.4l2.6-1.7l0.6-0.4c0.2-0.1,0.3-0.1,0.5,0c0.2,0.1,0.3,0.3,0.3,0.5v11.9
			c0,2-0.8,3.9-2.1,5.3l-2.8-2.8C102.4,131.8,102.7,130.9,102.7,130z M104.3,161.5v-3.2c0.1,0,0.1,0,0.2,0c0.1,0,0.2,0,0.2,0.1
			l0.2,0.2l1,0.8v2.2c0,0.1,0,0.3,0.1,0.4l-1.2,1C104.5,162.6,104.3,162.1,104.3,161.5z M109.6,163.9h-2.8c-0.6,0-1.1-0.2-1.5-0.5
			l1.2-1.2c0,0,0.1,0.1,0.2,0.1h2.8c0.1,0,0.3,0,0.4-0.1l1.2,1.2C110.7,163.7,110.1,163.9,109.6,163.9z M111,158.1l-0.3,0.2
			l-0.4,0.3l-0.1,0.2H106l-0.2-0.2l-0.4-0.3l-0.2-0.2l-0.1-0.1c0,0,0-0.1,0.1-0.2l0.2-0.2l0.4-0.3l0.2-0.1h4.2l0.1,0.1l0.4,0.3
			l0.3,0.2c0.1,0,0.1,0.1,0.1,0.2S111,158.1,111,158.1z M106.3,153.7l-1.2-1.2c0.4-0.3,1-0.5,1.5-0.5h2.8c0.6,0,1.2,0.2,1.6,0.6
			l-1.1,1.2c-0.1-0.1-0.3-0.1-0.5-0.1h-2.7v-0.1C106.6,153.6,106.4,153.6,106.3,153.7z M111.9,157.7L111.9,157.7c-0.1,0-0.1,0-0.2,0
			c-0.1,0-0.2,0-0.2-0.1l-0.2-0.1c0-0.1,0-0.1-0.1-0.1l-0.9-0.7v-2.2c0-0.1,0-0.2-0.1-0.3l1.2-1.2c0.3,0.4,0.5,0.9,0.5,1.5V157.7z
			 M113.4,161.5v-3.2c0.1,0,0.1,0,0.2,0s0.1,0,0.2,0.1l0.2,0.2l1,0.8v2.2c0,0.1,0,0.3,0.1,0.4l-1.2,1
			C113.6,162.6,113.4,162.1,113.4,161.5z M115.4,153.7l-1.1-1.2c0.4-0.3,1-0.5,1.5-0.5h2.8c0.6,0,1.2,0.2,1.6,0.6l-1.1,1.2
			c-0.1-0.1-0.3-0.1-0.5-0.1h-2.8v-0.1C115.7,153.6,115.5,153.6,115.4,153.7z M115,154.2c0,0.1-0.1,0.2-0.1,0.4v2.2l-0.9,0.7
			l-0.2,0.1c-0.1,0-0.1,0.1-0.2,0.1s-0.1,0-0.2,0v-3.2c0-0.6,0.2-1.1,0.5-1.5L115,154.2z M118.7,163.9h-2.8c-0.6,0-1.1-0.2-1.5-0.5
			l1.2-1.2c0,0,0.1,0.1,0.2,0.1h2.8c0.1,0,0.3,0,0.4-0.1l1.2,1.2C119.8,163.7,119.2,163.9,118.7,163.9z M121.1,161.4
			c0,0.6-0.2,1.1-0.5,1.5l-1.2-1.2c0.1-0.1,0.1-0.2,0.1-0.4v-2l1-0.8l0.2-0.2c0.1,0,0.1-0.1,0.2-0.1c0.1,0,0.1,0,0.2,0V161.4z
			 M121.1,157.7H121c0,0,0,0-0.1,0c-0.1,0-0.1,0-0.2-0.1l-0.2-0.1c0-0.1-0.1-0.1-0.1-0.1l-0.9-0.7v-2.2c0-0.1,0-0.2-0.1-0.3l1.2-1.2
			c0.3,0.4,0.5,0.9,0.5,1.5V157.7z M122.7,165.9h-0.9l0.5-2.3h1.5L122.7,165.9z M123.8,163.3h-1.5v-1.1h1.5V163.3z M125.1,157.6
			l-0.2,0.1c-0.1,0-0.1,0.1-0.2,0.1c0-0.1-0.1-0.1-0.1-0.1v-3.2c0-0.6,0.2-1.1,0.5-1.5l1.1,1.2c-0.1,0.1-0.1,0.2-0.1,0.4v2.2
			L125.1,157.6L125.1,157.6z M125.5,152.6c0.4-0.3,1-0.5,1.6-0.5h2.8c0.6,0,1.2,0.2,1.6,0.6l-1.1,1.2c-0.1-0.1-0.3-0.1-0.4-0.1h-2.8
			c-0.1,0-0.3,0-0.4,0.1L125.5,152.6z M125.6,157.8l0.2-0.2l0.4-0.3l0.2-0.1h4.1l0.2,0.1l0.4,0.3v0.1l0.2,0.1c0.1,0,0.1,0.1,0.1,0.2
			s0,0.1-0.1,0.1l-0.2,0.1v0.1l-0.4,0.3l-0.2,0.2h-4.1l-0.2-0.2l-0.4-0.3l-0.2-0.2c-0.1,0-0.1-0.1-0.1-0.1S125.5,157.8,125.6,157.8z
			 M130,163.9h-3c-0.6,0-1.1-0.2-1.5-0.5l1.2-1.2c0.1,0.1,0.2,0.1,0.4,0.1h2.8c0.1,0,0.3,0,0.4-0.1l1.2,1.2
			C131.1,163.7,130.5,163.9,130,163.9z M132.3,161.4c0,0.6-0.2,1.1-0.5,1.5l-1.2-1.2c0.1-0.1,0.1-0.2,0.1-0.4v-2l1-0.8l0.2-0.2
			c0.1,0,0.1-0.1,0.2-0.1s0.1,0,0.2,0V161.4z M136,156c-1.1,0-2-0.9-2-2s0.9-2,2-2s2,0.9,2,2S137.1,156,136,156z M177.4,145.8h-109
			v-0.4v-1V144h108.9v0.4h0.1V145.8z M176.3,127.4v5.8c0.6,0.5,1,1.2,1,2c0,1.3-1.1,2.4-2.4,2.4s-2.4-1.1-2.4-2.4c0-0.8,0.4-1.5,1-2
			v-5.8c0-0.9,0.7-1.4,1.4-1.4C175.8,126,176.3,126.7,176.3,127.4z"/>
	</g>
</g>
<g id="Layer_2">
</g>
</svg>
