<svg height="960" viewBox="0 0 960 960" width="960" xmlns="http://www.w3.org/2000/svg"><path d="m593.416918 37.2833048c105.207557 46.3346068 200.620538 134.6297582 266.581686 248.8778182 65.961149 114.24806 94.720502 241.025701 82.24367 355.305421-12.835682 117.566563-68.505378 213.973721-158.761018 266.082839-22.219899 12.828665-45.85899 22.576241-70.601372 29.196556l-.694505.182809-.396697.127799-.77191.229254c-48.283514 13.833223-100.062006 20.714199-155.24733 20.714199-53.272671 0-109.671595-3.744367-169.207626-11.214399-.20964-.026304-.418954-.054253-.627925-.083841l-.267512-.040012-2.751017-.347797c-123.659842-16.277-237.544564-92.829902-305.6953638-208.452333l-2.0719248-3.551644c-54.9860222-95.238584-72.3497784-204.553702-50.5260031-305.692267l.4193087-1.902959.0829524-.524856c10.1868605-63.180141 35.6718145-126.629934 76.0959566-190.280305l1.242139-1.948544c8.399037-13.126673 15.525424-23.748461 25.850276-37.938884 15.120646-20.781739 32.072023-41.923601 51.110938-63.164801 13.74613-15.336183 30.174099-32.204969 49.310131-50.6538945 1.515596-1.461176 3.109089-2.7754382 4.764829-3.9451459l.142778-.0995696.229369-.2078245c14.854098-13.4299212 31.005949-25.2759027 48.358715-35.4206023l1.372448-.7973607c90.25564-52.1091183 201.581537-52.1169097 309.815007-4.4496557zm-424.179488 170.6998592-.79663 1.073065c-16.529681 21.89021-27.282816 38.645223-32.285145 46.463257-38.7038965 60.489488-62.6433123 120.083378-71.8182476 178.781669-20.0578875 89.507931-6.4651359 190.086252 45.4516826 280.008819 63.987876 110.830254 171.102583 179.336433 281.738118 192.775272l.014394.011544c57.239553 7.181891 111.365273 10.815775 162.377159 10.901651l-.000616.010553c-123.755718-28.864234-248.131902-123.931448-329.513075-264.887773-87.613966-151.751841-104.249835-320.066628-55.16764-445.138057zm447.902555-114.0708072-3.714162 12.9626282c78.589084 45.133794 149.165033 116.804734 200.572212 205.844579 60.293943 104.432174 86.711353 219.754051 75.441127 322.982042-11.001412 100.76583-57.144147 182.331048-132.516348 225.847208-75.3722 43.51616-169.081118 42.694332-261.847593 1.838919-95.033175-41.853694-181.696145-122.392779-241.990089-226.824953s-86.711353-219.754051-75.441127-322.982042c8.983442-82.282528 41.398745-151.762291 94.027013-198.176663l-8.743372-9.768757-3.562348 3.198961c-.055346.050756-.110669.101536-.165968.15234l.16615-.152507c-120.917383 110.889734-131.960635 336.27779-17.639901 534.287109 113.009522 195.738235 310.441309 298.761406 466.124212 253.502302.033972-.009876.067959-.019764.101944-.029659l-.101944.029659c1.734639-.504283 3.464094-1.026974 5.188193-1.568151l-5.086249 1.538492c1.7707-.515563 3.535995-1.050315 5.295698-1.604336l-.209449.065844c5.214458-1.636767 10.379909-3.442627 15.491524-5.419709.061656-.023847.122967-.047589.18427-.071356l-.18427.071356c1.714658-.663199 3.423257-1.345664 5.125617-2.047475l-4.941347 1.976119c1.702856-.660172 3.399727-1.339359 5.090436-2.037639l-.149089.06152c1.710195-.705042 3.414091-1.429608 5.111506-2.173781l-4.962417 2.112261c1.674707-.69167 3.343367-1.402074 5.005806-2.131288l-.043389.019027c5.011975-2.197326 9.967434-4.56559 14.86162-7.106886.064027-.033246.127698-.066342.191359-.099468l-.191359.099468c1.655307-.859515 3.303605-1.738824 4.94471-2.638007l-4.753351 2.538539c1.632375-.849389 3.257923-1.718044 4.876467-2.60604l-.123116.067501c1.643373-.900425 3.279533-1.820781 4.908295-2.761147 161.165529-93.048961 188.868507-346.790346 61.876332-566.747244-54.492164-94.383196-128.613185-167.209392-208.217603-212.2487662zm-296.979633 11.1416812c-8.914458 5.146765-17.349787 10.854527-25.306785 17.078449-.484717.784193-1.090483 1.510966-1.811957 2.156638-.991799.887596-2.111748 1.540929-3.292027 1.963758-53.125243 44.181587-83.780358 112.16276-92.223721 189.498516-10.523423 96.387754 13.259802 207.546553 72.879778 310.811381 59.619976 103.264827 143.994707 179.441104 232.730662 218.521429 83.833307 36.921144 171.832421 40.686811 243.786512-.855903 71.954092-41.542714 112.692486-119.635016 122.634491-210.697362 10.523423-96.387753-13.259803-207.546553-72.879778-310.81138-59.619976-103.264827-143.994708-179.441104-232.730662-218.521429-83.833307-36.9211443-171.832421-40.6868108-243.786513.855903zm115.099317-62.9622893-5.577275.0533345c-44.54892.8508545-87.400756 11.8971426-126.080483 34.2288934l-4.709284 2.7875127c-.045663.0277033-.091315.0554199-.136956.0831496-1.552144.9430262-3.091372 1.9012226-4.617758 2.8744627l4.617758-2.8744627c-1.593798.9683327-3.174073 1.9527217-4.740805 2.9529692l.123047-.0785065c-1.546073.9857936-3.07897 1.9870214-4.59867 3.0034936l4.475623-2.9249871c-1.554657.992539-3.095978 2.000693-4.623942 3.0242688l.148319-.0992817c-1.544504 1.0330627-3.075376 2.0818715-4.592594 3.1462269l4.444275-3.0469452c-1.529239 1.0244302-3.045099 2.064308-4.547559 3.1194394l.103284-.0724942c-1.497813 1.0507426-2.98232 2.1166367-4.4535 3.1974905l4.350216-3.1249963c-1.498144 1.0521013-2.982965 2.1193689-4.454441 3.2016105l-1.932278 1.4533913 8.772621 9.8020429c7.31195-5.4325078 14.957978-10.4615552 22.931085-15.0648309 75.3722-43.51616 169.081119-42.694332 261.847593-1.8389193 7.86769 3.4650202 15.67801 7.1951899 23.420748 11.1821155l3.679069-12.8443139c-52.178527-26.5138847-106.221257-41.1120222-158.254215-42.0882688z"/></svg>