<?xml version="1.0" encoding="utf-8"?>
<!-- Generator: Adobe Illustrator 21.0.0, SVG Export Plug-In . SVG Version: 6.00 Build 0)  -->
<svg version="1.1" id="Layer_1" xmlns="http://www.w3.org/2000/svg" xmlns:xlink="http://www.w3.org/1999/xlink" x="0px" y="0px"
	 viewBox="0 0 257.3 392.7" style="enable-background:new 0 0 257.3 392.7;" xml:space="preserve">
<style type="text/css">
.pair {
	animation: pair 3s infinite;
}

@keyframes pair {
	0%, 20%, 40%, 60%, 100% {
		fill: #FFFFFF;
	}
	10%, 30%, 50% {
		fill: #0078CC;
	}
}
</style>
<path d="M185.5,84.1c0-10.4-8.5-18.9-18.9-18.9c-10.4,0-18.9,8.5-18.9,18.9s8.5,18.9,18.9,18.9C177.1,103,185.5,94.5,185.5,84.1z
	 M166.7,63.2c11.5,0,20.9,9.4,20.9,20.9s-9.4,20.9-20.9,20.9c-11.5,0-20.9-9.4-20.9-20.9S155.2,63.2,166.7,63.2z"/>
<g>
	<path d="M250.9,76.1c0-24.2-9-42-27.5-54.4C203.2,8.2,172.2,1.6,128.7,1.6S54.1,8.2,33.9,21.7
		C15.4,34.1,6.4,51.9,6.4,76.1L2.7,264.4c0,69.6,56.5,126.5,126,126.7c69.5-0.3,126-57.1,126-126.8L250.9,76.1z M184.8,372
		c-16.8,8.9-35.9,14-56.2,14.1c-20.3-0.1-39.4-5.2-56.2-14.1c-34.1-19.9-57-57.2-57-99.8l4.5-176.4c0-34.9,13.2-67.2,108.8-67.2
		c95.6,0,108.8,32.3,108.8,67.2l4.5,176.4C241.9,314.7,218.9,352.1,184.8,372z M221.7,341.9c14.3-19.5,22.7-43.7,22.7-69.8L240,95.7
		c0-23.1-6.7-39-21-49.9c-17.5-13.3-47-19.8-90.3-19.8s-72.8,6.5-90.3,19.8c-14.3,11-21,26.8-21,49.9l-4.5,176.4
		c0,26.1,8.4,50.2,22.7,69.7c-17.5-21.1-28-48.1-28-77.5l3.8-188.3c0-22.4,8.3-38.9,25.2-50.3c19.1-12.8,50-19.2,92-19.2
		s72.9,6.5,92,19.2c17,11.4,25.2,27.8,25.2,50.3l3.8,188.2C249.7,293.8,239.1,320.8,221.7,341.9z"/>
	<path d="M128.7,174.7c-56.7,0-102.9,46.1-102.9,102.9s46.1,102.9,102.9,102.9s102.9-46.1,102.9-102.9
		S185.4,174.7,128.7,174.7z M128.7,378c-55.3,0-100.4-45-100.4-100.4s45-100.4,100.4-100.4S229,222.3,229,277.6S184,378,128.7,378z"
		/>
	<path d="M128.7,183c-26.1,0-49.8,10.5-66.9,27.7c-5,5-9.4,10.5-13.2,16.6v-0.1l-1.2,2c-0.1,0.2-0.2,0.4-0.4,0.6
		l-0.2,0.5c-0.1,0.2-0.2,0.4-0.3,0.5l-0.3,0.6l-0.4,0.5l-0.2,0.5c-0.1,0.2-0.3,0.5-0.4,0.7l-0.2,0.4l-0.3,0.6l-0.1,0.1l-0.1,0.3
		h-0.1c-0.1,0.3-0.2,0.5-0.3,0.7l-0.2,0.4c-0.1,0.3-0.2,0.5-0.3,0.7l-0.3,0.5c-0.1,0.2-0.2,0.4-0.3,0.6l-0.2,0.5l-0.3,0.7l-0.2,0.3
		c-0.1,0.3-0.2,0.6-0.3,0.8l-0.2,0.3c-0.1,0.3-0.2,0.5-0.3,0.8l-0.2,0.5l-0.3,0.5l-0.2,0.5l-0.3,0.7l-0.1,0.3v0.1
		c-0.1,0.2-0.2,0.5-0.4,0.8l-0.1,0.3c-0.1,0.3-0.2,0.5-0.3,0.8l-0.1,0.3v0.1c-0.1,0.3-0.2,0.5-0.3,0.8l-0.1,0.1l-0.1,0.3l-0.2,0.7
		l-0.1,0.3l-0.1,0.1c-0.1,0.3-0.1,0.6-0.2,0.8l-0.1,0.1l-0.1,0.3v0.1l-0.1,0.3l-0.1,0.3l-0.1,0.3l-0.1,0.4c-0.1,0.2-0.1,0.4-0.2,0.6
		l-0.1,0.3v0.1c-0.1,0.3-0.2,0.6-0.3,0.8l-0.1,0.4c-0.1,0.2-0.2,0.5-0.2,0.8l-0.1,0.3c-0.1,0.3-0.2,0.6-0.2,0.8l-0.1,0.3
		c-1.4,5.1-2.3,10.3-2.8,15.8v0.1c-0.2,2.7-0.3,5.5-0.3,8.2c0,3.3,0.1,6.3,0.5,9.5v0.2v0.6l0.1,0.1c0,0.3,0,0.6,0.1,0.8v0.4v0.1
		c0.1,0.3,0.1,0.6,0.1,0.8l0.1,0.3v0.1c0,0.3,0.1,0.6,0.1,0.8v0.1l0.1,0.3l0.1,0.7v0.3v0.1c0.1,0.3,0.1,0.6,0.2,0.8v0.3
		c1.7,9.7,4.8,18.9,9.2,27.4h0.1c0.1,0.3,0.3,0.6,0.4,0.8l0.2,0.3v0.1c0.1,0.2,0.3,0.4,0.4,0.7l0.2,0.4l0.3,0.5l0.2,0.3l0.1,0.1
		c0.1,0.3,0.3,0.5,0.4,0.8l0.2,0.3v0.1c0.2,0.2,0.3,0.4,0.4,0.6l1.2,2V328c3.8,6.1,8.2,11.6,13.2,16.6
		c17.1,17.1,40.8,27.8,66.9,27.8s49.8-10.6,66.9-27.8c17.1-17.1,27.7-40.7,27.7-66.9c0.1-26.2-10.5-49.9-27.6-67
		C178.4,193.5,154.8,183,128.7,183z M47.1,232.3V268H36C37.3,255.1,41.2,243.1,47.1,232.3z M47.1,322.8c-5.8-10.3-9.7-22-11.1-34.4
		h11.1V322.8z M217.1,307.1c-1.9,5.5-4.2,10.8-7,15.8v-34.4h11.2C220.5,294.9,219.1,301.1,217.1,307.1z M221.4,268h-11.3v-35.8
		c2.9,5.2,5.3,10.7,7.2,16.4C219.3,254.9,220.7,261.3,221.4,268z M209.4,269.3h12.1c0.2,2.7,0.4,5.5,0.4,8.2c0,3.3-0.2,6.3-0.5,9.5
		h-12h-0.7v0.7v37.6c-4,6.6-8.8,12.7-14.2,18.2c-17,16.9-40.2,27.3-66,27.3c-25.7,0-49.1-10.4-66-27.3c-5.4-5.5-10.2-11.6-14.2-18.3
		v-37.5v-0.7h-0.7h-12c-0.3-3.2-0.5-6.2-0.5-9.5c0-2.7,0.2-5.5,0.4-8.2h12.1h0.7v-0.7v-38.9c4-6.6,8.8-12.8,14.2-18.2
		c16.9-17,40.2-27.4,66-27.4c25.7,0,49,10.4,66,27.4c5.4,5.4,10.2,11.5,14.2,18.2v38.9v0.7H209.4z"/>
	<circle cx="80.9" cy="277.5" r="13.5"/>
	<circle cx="176.5" cy="277.5" r="13.5"/>
</g>
<path class="pair" d="M166.7,65.2c10.4,0,18.9,8.5,18.9,18.9s-8.5,18.9-18.9,18.9c-10.4,0-18.9-8.5-18.9-18.9S156.3,65.2,166.7,65.2z
	"/>
<g>
	<g>
		<path d="M167.7,80.9h-2c-0.7,0-1.2-0.5-1.2-1.2v-9.1c0-0.7,0.5-1.2,1.2-1.2h2c0.7,0,1.2,0.5,1.2,1.2v9.1
			C168.9,80.3,168.3,80.9,167.7,80.9z M165.6,70.3c-0.1,0-0.2,0.1-0.2,0.2v9.1c0,0.1,0.1,0.2,0.2,0.2h2c0.1,0,0.2-0.1,0.2-0.2v-9.1
			c0-0.1-0.1-0.2-0.2-0.2H165.6z"/>
	</g>
</g>
<g>
	<path d="M166.6,98.2c-0.5,0-1.1,0-1.6-0.1c-6.4-0.7-11.6-5.9-12.4-12.3c-0.7-6.4,2.9-12.5,8.9-14.8c0.4-0.2,0.9-0.1,1.3,0.1
		c0.4,0.3,0.6,0.7,0.6,1.1v2.4c0,0.5-0.3,1-0.8,1.2c-3.1,1.5-5.1,4.7-5.1,8.2c0,2.5,1,4.8,2.8,6.5c1.8,1.7,4.1,2.6,6.6,2.6
		c4.6-0.1,8.6-4,8.8-8.6c0.2-3.7-1.9-7-5.2-8.6c-0.5-0.2-0.8-0.7-0.8-1.2v-2.4c0-0.5,0.2-0.9,0.6-1.1s0.9-0.3,1.3-0.2
		c5.4,2.1,9.1,7.3,9.1,13.2c0,4-1.7,7.8-4.7,10.5C173.4,96.9,170.1,98.2,166.6,98.2z M162.1,71.9c0,0-0.1,0-0.1,0
		c-5.6,2.2-9,7.8-8.3,13.7c0.7,6,5.5,10.8,11.5,11.4c3.8,0.4,7.4-0.7,10.2-3.2c2.8-2.5,4.4-6,4.4-9.7c0-5.4-3.4-10.3-8.5-12.2
		c-0.2-0.1-0.3,0-0.4,0c-0.1,0-0.2,0.1-0.2,0.3v2.4c0,0.1,0.1,0.3,0.2,0.3c3.7,1.8,5.9,5.5,5.7,9.6c-0.2,5.2-4.5,9.4-9.7,9.6
		c-2.7,0.1-5.3-0.9-7.3-2.8c-2-1.9-3.1-4.5-3.1-7.2c0-3.8,2.2-7.4,5.7-9.1c0.1-0.1,0.2-0.2,0.2-0.3v-2.4c0-0.2-0.1-0.3-0.2-0.3
		C162.3,71.9,162.2,71.9,162.1,71.9z"/>
</g>
</svg>
