<?xml version="1.0" encoding="utf-8"?>
<!-- Generator: Adobe Illustrator 20.0.0, SVG Export Plug-In . SVG Version: 6.00 Build 0)  -->
<svg version="1.1" id="Layer_1" xmlns="http://www.w3.org/2000/svg" xmlns:xlink="http://www.w3.org/1999/xlink" x="0px" y="0px"
	 viewBox="0 0 168.9 343.11" style="enable-background:new 0 0 168.9 343.11;" xml:space="preserve">
<style type="text/css">
	.st0{fill:#1A1A18;}
	.st1{fill-rule:evenodd;clip-rule:evenodd;}
</style>
<g>
	<path class="st0" d="M121.53,343.11h-14.17c-26.12,0-47.37-21.25-47.37-47.37V47.37C59.99,21.25,81.24,0,107.36,0h14.17
		c26.12,0,47.37,21.25,47.37,47.37v248.38C168.9,321.87,147.65,343.11,121.53,343.11z M107.36,2.83
		c-24.55,0-44.53,19.98-44.53,44.53v248.38c0,24.55,19.98,44.53,44.53,44.53h14.17c24.55,0,44.53-19.98,44.53-44.53V47.37
		c0-24.55-19.98-44.53-44.53-44.53H107.36z"/>
</g>
<g>
	<path class="st0" d="M121.53,333.9h-14.17c-21.04,0-38.15-17.12-38.15-38.15V47.37c0-21.04,17.11-38.15,38.15-38.15h14.17
		c21.04,0,38.15,17.12,38.15,38.15v248.38C159.69,316.79,142.57,333.9,121.53,333.9z M107.36,10.63
		c-20.26,0-36.74,16.48-36.74,36.74v248.38c0,20.26,16.48,36.74,36.74,36.74h14.17c20.26,0,36.74-16.48,36.74-36.74V47.37
		c0-20.26-16.48-36.74-36.74-36.74H107.36z"/>
</g>
<g>
	<path class="st1" d="M128.47,90.13v-7.64c0.11-0.22-0.03-0.04,0.17-0.2l0.22-0.13l0.41-0.23l5.96-3.41
		c0.21-0.01,5.92,3.44,6.78,3.85l0,7.87c-0.94,0.4-6.44,3.85-6.79,3.83c-0.16-0.01-4.39-2.5-5.12-2.92
		C129.77,90.97,128.62,90.38,128.47,90.13 M114.4,89.92v-7.43c0.15-0.3,2.99-1.83,3.35-2.04c0.36-0.21,3.32-1.93,3.4-1.94
		c0.25-0.02,5.9,3.44,6.78,3.84l0.01,7.78c-0.05,0.19-4.39,2.64-5.11,3.04l-0.85,0.49c-1.2,0.7-0.57,0.57-4.34-1.59l-2.56-1.47
		C114.76,90.41,114.4,90.36,114.4,89.92z M121.15,69.72c-0.12-0.01-2.99-1.71-3.37-1.92l-3.37-1.93l0-7.86
		c0.76-0.29,6.45-3.87,6.78-3.85c0.29,0.02,5.81,3.45,6.73,3.84l0,7.87c-0.55,0.24-1.14,0.65-1.71,0.97l-3.41,1.97
		C122.53,68.98,121.35,69.74,121.15,69.72z M107.13,69.72l-5.1-2.91l-0.34-0.18l-0.85-0.49c-0.26-0.17-0.47-0.32-0.49-0.42
		l-0.01-7.04l0-0.66c0.87-0.4,6.51-3.87,6.77-3.86c0.33,0.01,5.76,3.42,6.76,3.83l0,7.89C113.2,66.12,107.8,69.51,107.13,69.72z
		 M99.85,65.73c-0.17,0.29-6.73,3.98-6.77,3.98c-0.06,0-6.5-3.67-6.76-3.92v-7.75c0.26-0.24,1.26-0.78,1.67-1.01
		c0.77-0.43,4.92-2.9,5.14-2.88c0.15,0.02,3.03,1.72,3.42,1.94c0.58,0.34,1.09,0.64,1.7,0.99c0.32,0.18,1.52,0.78,1.6,1.04V65.73z
		 M93.35,78.03l0-7.87c0.85-0.4,6.27-3.72,6.76-3.84l6.74,3.87l0.02,7.7c-0.01,0.12-0.05,0.11-0.16,0.2l-6.58,3.78
		c-0.17,0.02-2.97-1.67-3.4-1.91c-0.58-0.32-1.13-0.67-1.7-0.98C94.53,78.7,93.83,78.22,93.35,78.03z M92.8,78.03
		c-0.83,0.33-6.49,3.87-6.77,3.84c-0.27-0.03-5.77-3.41-6.74-3.85l0-7.86l3.41-1.95c0.58-0.34,1.13-0.64,1.71-0.98
		c0.27-0.16,1.48-0.92,1.66-0.91c0.23,0.01,5.88,3.43,6.74,3.84C92.83,72.05,92.87,76.29,92.8,78.03z M135.49,78.04l0.01-7.85
		c0.93-0.41,6.5-3.86,6.77-3.85c0.26,0.01,6.09,3.59,6.73,3.84c0.07,1.95,0.04,5.82,0.01,7.88c-0.79,0.3-6.44,3.87-6.79,3.84
		c-0.08-0.01-3.06-1.74-3.36-1.92L135.49,78.04z M135.22,69.72c-0.27-0.01-5.82-3.42-6.75-3.84l0.01-7.88
		c0.89-0.38,6.51-3.87,6.78-3.84l5.07,2.9c0.39,0.23,1.31,0.81,1.67,0.94l0,7.86C141.21,66.18,135.57,69.74,135.22,69.72z
		 M121.44,78.01l0.01-7.79c0.53-0.38,6.73-3.88,6.75-3.88c0.07,0,6.31,3.54,6.76,3.88l0,7.78c-0.57,0.38-6.61,3.89-6.76,3.89
		C128.02,81.89,122.09,78.41,121.44,78.01z M114.15,81.9l-6.77-3.9v-7.69c0.04-0.18,0.21-0.22,0.85-0.59l3.45-1.99
		c2.83-1.69,2.22-1.56,3.48-0.84l5.76,3.3v7.85c-0.51,0.21-1.17,0.66-1.71,0.97C118.47,79.43,114.45,81.82,114.15,81.9z
		 M100.36,90.19v-7.71c0.07-0.19,0.01-0.11,0.24-0.26l4.35-2.51c0.38-0.22,0.77-0.43,1.17-0.67c0.22-0.13,0.36-0.21,0.58-0.34
		c0.18-0.11,0.3-0.22,0.47-0.2c1.44,0.92,5.59,3.1,6.67,3.85c0.03,0.05,0.05,0.11,0.06,0.19l0.02,7.53l-0.01,0.09
		c-0.22,0.24-6.67,3.9-6.75,3.9l-5.12-2.91C101.6,90.88,100.77,90.34,100.36,90.19z M74.88,67.34V56.49l4.07-2.34
		c0.34-0.06,6.04,3.51,6.84,3.83l-0.01,7.87c-0.55,0.24-1.19,0.68-1.71,0.97c-0.59,0.33-1.15,0.66-1.71,0.98
		c-0.38,0.22-3.2,1.93-3.38,1.89L74.88,67.34z M74.88,80.24v-12.3c1.77,1.01,3.72,2.14,3.87,2.27l-0.01,7.78l-3.39,1.98L74.88,80.24
		z M74.88,91.68V80.85c1.85-1.09,4-2.38,4.16-2.36l5.07,2.9c0.39,0.23,1.31,0.81,1.67,0.94l0,7.86c-0.79,0.31-6.43,3.86-6.78,3.85
		C78.85,94.03,76.73,92.77,74.88,91.68z M78.76,94.87h-3.87v-2.59c1.73,0.98,3.63,2.09,3.87,2.27V94.87z M92.81,94.87H79.29l0-0.36
		c0.93-0.41,6.5-3.86,6.78-3.85c0.26,0.01,6.09,3.59,6.73,3.84L92.81,94.87z M106.88,94.87H93.36l0-0.37
		c0.43-0.17,1.25-0.7,1.71-0.97c0.68-0.4,4.93-2.88,5.06-2.87l5.06,2.9c0.52,0.31,1.14,0.71,1.69,0.94L106.88,94.87z M154.01,91.98
		v2.89h-46.63v-0.33l6.79-3.91c1.11,0.74,5.29,3.08,5.92,3.45c1.4,0.82,0.8,0.75,2.7-0.31c0.62-0.35,1.18-0.69,1.79-1.04
		c0.64-0.36,1.15-0.67,1.79-1.04c2.36-1.33,1.31-1.32,3.62-0.02c0.62,0.35,5.04,3.03,5.33,2.96c0.12-0.03,1.56-0.89,1.76-1
		c0.62-0.36,1.18-0.69,1.79-1.04c0.62-0.35,1.14-0.67,1.75-1.01c1.95-1.09,1.16-1.26,3.52,0.15l3.5,2.02
		c1.91,1.08,1.38,1.12,2.7,0.34L154.01,91.98z M154.01,81.2v10.19l-1.29,0.75c-0.41,0.23-3.23,1.92-3.43,1.92
		c-0.21,0-4.39-2.49-5.18-2.93l-0.86-0.49c-0.22-0.12-0.73-0.34-0.73-0.58v-7.5c0-0.32,0.5-0.46,0.76-0.62
		c0.91-0.54,5.86-3.41,6-3.41C149.42,78.54,152.68,80.42,154.01,81.2z M154.01,67.63v12.99c-1.75-1.02-3.95-2.32-4.45-2.56
		l0.01-7.87c0.43-0.17,1.25-0.7,1.71-0.97C151.62,69.01,152.85,68.29,154.01,67.63z M154.01,56.84v10.19l-1.36,0.79
		c-0.43,0.24-3.19,1.9-3.36,1.9c-0.04,0-6.43-3.62-6.76-3.88l0.01-7.78c0.41-0.32,1.22-0.74,1.69-1c0.72-0.4,4.91-2.89,5.06-2.88
		C149.35,54.17,152.03,55.7,154.01,56.84z M149.56,53.62h4.45v2.65l-1.07-0.63c-0.58-0.32-1.13-0.67-1.7-0.98
		c-0.5-0.28-1.2-0.75-1.67-0.94V53.62z M135.49,53.62h13.52l0,0.1c-0.83,0.34-6.49,3.87-6.77,3.84c-0.27-0.03-5.77-3.41-6.74-3.85
		V53.62z M121.45,53.62h13.51v0.05l-3.39,1.98c-0.39,0.22-3.21,1.9-3.36,1.9c-0.02,0-6.25-3.51-6.76-3.88L121.45,53.62z
		 M106.85,53.62h14.07l0,0.08c-0.91,0.41-6.52,3.86-6.78,3.85c-0.15-0.01-5.28-3.05-6.36-3.64l-0.4-0.29L106.85,53.62z M93.31,53.62
		h13.54l0,0.08l-6.75,3.87L93.31,53.62z M79.24,53.62h13.64c-0.33,0.25-1.33,0.79-1.66,0.97c-0.58,0.32-1.14,0.67-1.7,0.99
		c-0.47,0.26-3.25,1.96-3.5,1.94C85.91,57.5,80.05,54.16,79.24,53.62z M74.88,53.62h3.93c-0.44,0.3-2.27,1.36-3.93,2.31V53.62z
		 M93.08,94.04c-0.04,0-6.43-3.62-6.76-3.88l0.01-7.78c0.41-0.32,1.22-0.74,1.69-1c0.72-0.4,4.91-2.89,5.06-2.88
		c0.1,0,6.23,3.51,6.77,3.88v7.79l-3.4,1.98C96.01,92.38,93.24,94.04,93.08,94.04z"/>
</g>
<g>
	<path class="st0" d="M28.86,265.02H9.92c-5.47,0-9.92-4.45-9.92-9.92V88.02c0-5.47,4.45-9.92,9.92-9.92h18.94
		c5.47,0,9.92,4.45,9.92,9.92V255.1C38.78,260.57,34.33,265.02,28.86,265.02z M9.92,80.93c-3.91,0-7.09,3.18-7.09,7.09V255.1
		c0,3.91,3.18,7.09,7.09,7.09h18.94c3.91,0,7.09-3.18,7.09-7.09V88.02c0-3.91-3.18-7.09-7.09-7.09H9.92z"/>
</g>
</svg>
