<?xml version="1.0" encoding="utf-8"?>
<!-- Generator: Adobe Illustrator 20.0.0, SVG Export Plug-In . SVG Version: 6.00 Build 0)  -->
<svg version="1.1" id="Layer_1" xmlns="http://www.w3.org/2000/svg" xmlns:xlink="http://www.w3.org/1999/xlink" x="0px" y="0px"
	 viewBox="0 0 245.12 417.62" style="enable-background:new 0 0 245.12 417.62;" xml:space="preserve">
<style type="text/css">
	.st0{fill:#1A1A18;}
	.st1{fill-rule:evenodd;clip-rule:evenodd;fill:#0078CC;}
</style>
<g>
	<path class="st0" d="M182.89,50.64c-16.17-16.09-37.59-24.96-60.3-24.96c-22.71,0-44.12,8.86-60.3,24.96
		c-16.1,16.1-24.96,37.48-24.96,60.22c0,22.79,8.86,44.2,24.96,60.3c16.17,16.09,37.59,24.96,60.3,24.96
		c22.71,0,44.12-8.86,60.3-24.96c16.1-16.1,24.96-37.51,24.96-60.3C207.85,88.12,198.99,66.73,182.89,50.64z M180.24,168.51
		c-15.37,15.37-35.85,23.84-57.65,23.84c-21.8,0-42.28-8.47-57.65-23.84c-15.37-15.45-23.84-35.93-23.84-57.65
		c0-21.73,8.47-42.2,23.84-57.65c15.45-15.37,35.93-23.84,57.65-23.84c21.73,0,42.2,8.47,57.65,23.84
		c15.37,15.45,23.84,35.93,23.84,57.65C204.08,132.59,195.61,153.06,180.24,168.51z"/>
	<path class="st0" d="M176.92,56.54C163,42.61,143.78,34.07,122.6,34.07s-40.4,8.55-54.32,22.47c-4.09,4.09-7.64,8.55-10.74,13.47
		v-0.08l-0.98,1.66c-0.08,0.15-0.15,0.3-0.3,0.45l-0.15,0.38c-0.08,0.15-0.15,0.3-0.23,0.38l-0.23,0.45l-0.3,0.38l-0.15,0.38
		c-0.08,0.15-0.23,0.38-0.3,0.53l-0.15,0.3l-0.23,0.45l-0.08,0.08l-0.08,0.23l-0.08,0c-0.08,0.23-0.15,0.38-0.23,0.53l-0.15,0.3
		c-0.08,0.23-0.15,0.38-0.23,0.53l-0.23,0.38c-0.08,0.15-0.15,0.3-0.23,0.45l-0.15,0.38l-0.23,0.53l-0.15,0.23
		c-0.08,0.23-0.15,0.45-0.23,0.61l-0.15,0.23c-0.08,0.23-0.15,0.38-0.23,0.61l-0.15,0.38L51.7,81.2l-0.15,0.38l-0.23,0.53
		l-0.08,0.23v0.08c-0.08,0.15-0.15,0.38-0.3,0.61l-0.08,0.23c-0.08,0.23-0.15,0.38-0.23,0.61l-0.08,0.23v0.08
		c-0.08,0.23-0.15,0.38-0.23,0.61l-0.08,0.08l-0.08,0.23l-0.15,0.53l-0.08,0.23l-0.08,0.08c-0.08,0.23-0.08,0.45-0.15,0.61
		l-0.08,0.08l-0.08,0.23v0.08l-0.08,0.23l-0.08,0.23l-0.08,0.23l-0.08,0.3c-0.08,0.15-0.08,0.3-0.15,0.45l-0.08,0.23v0.08
		c-0.08,0.23-0.15,0.45-0.23,0.68l-0.08,0.3c-0.08,0.15-0.15,0.38-0.15,0.61l-0.08,0.23c-0.08,0.23-0.15,0.45-0.15,0.68l-0.08,0.23
		c-1.13,4.16-1.89,8.4-2.27,12.79v0.08c-0.15,2.19-0.23,4.46-0.22,6.65c0,2.65,0.08,5.14,0.38,7.72v0.15v0.45l0.08,0.08
		c0,0.23,0,0.45,0.08,0.68v0.3v0.08c0.08,0.23,0.08,0.45,0.08,0.68l0.08,0.23v0.08c0,0.23,0.08,0.45,0.08,0.68v0.08l0.08,0.23
		l0.08,0.53v0.23v0.08c0.08,0.23,0.08,0.45,0.15,0.68v0.23c1.36,7.87,3.93,15.36,7.49,22.24l0.08,0c0.08,0.23,0.23,0.45,0.3,0.68
		l0.15,0.23v0.08c0.08,0.15,0.23,0.3,0.3,0.53l0.15,0.3l0.23,0.38l0.15,0.23l0.08,0.08c0.08,0.23,0.23,0.38,0.3,0.61l0.15,0.23v0.08
		c0.15,0.15,0.23,0.3,0.3,0.45l0.98,1.66v-0.08c3.1,4.92,6.66,9.38,10.74,13.47c13.92,13.92,33.14,22.55,54.32,22.55
		s40.4-8.62,54.32-22.55c13.92-13.92,22.47-33.06,22.47-54.32C199.39,89.67,190.84,70.46,176.92,56.54z M188.72,74.09
		c2.35,4.24,4.31,8.7,5.83,13.32c1.67,5.07,2.8,10.29,3.33,15.74h-9.15V74.09z M56.39,74.09v29.05h-9.08
		C48.37,92.63,51.55,82.87,56.39,74.09z M47.39,119.71h9l0,27.92C51.7,139.23,48.52,129.78,47.39,119.71z M194.39,134.84
		c-1.51,4.46-3.4,8.78-5.67,12.79v-27.92h9.08C197.19,124.93,196.05,130,194.39,134.84z M188.19,118.58L188.19,118.58l-0.53,0v0.53
		v30.57c-3.25,5.37-7.11,10.29-11.5,14.75c-13.77,13.69-32.68,22.17-53.56,22.17s-39.87-8.47-53.56-22.17
		c-4.39-4.46-8.25-9.46-11.5-14.83v-30.49v-0.53H57h-9.76c-0.23-2.57-0.38-5.07-0.38-7.72c0-2.19,0.15-4.46,0.3-6.66H57h0.53v-0.53
		V72.12c3.25-5.37,7.11-10.36,11.5-14.75c13.69-13.77,32.68-22.24,53.56-22.24c20.88,0,39.8,8.47,53.56,22.24
		c4.39,4.39,8.25,9.31,11.5,14.75v31.55v0.53h0.53h9.84c0.15,2.19,0.3,4.46,0.3,6.66c0,2.65-0.15,5.14-0.38,7.72H188.19z"/>
	<circle class="st0" cx="83.78" cy="110.86" r="10.97"/>
	<circle class="st0" cx="161.4" cy="110.86" r="10.97"/>
	<path class="st0" d="M234.16,39.04C201.75,12.25,168.39,0.58,122.57,0c-58,0.78-90.11,21.27-111.61,39.04
		C3.87,44.9,0.21,54.63,0.06,67.96L0,349.65c0.15,13.3,3.83,23.04,10.96,28.93c21.5,17.77,53.61,38.26,111.66,39.04
		c45.77-0.58,79.12-12.25,111.54-39.04c7.13-5.89,10.82-15.62,10.96-28.95V67.96C244.98,54.66,241.29,44.93,234.16,39.04z
		 M4.25,349.63L4.31,68c0.13-12.02,3.28-20.66,9.36-25.68c4.72-3.9,9.46-7.46,14.26-10.71v354.41c-4.8-3.25-9.54-6.82-14.26-10.71
		C7.55,370.24,4.38,361.6,4.25,349.63z M30.05,387.43V30.19C56.76,12.66,85.49,4.75,122.57,4.25c27.19,0.34,58.88,4,92.55,26.02
		v357.22c-20.81,13.77-48.87,25.32-92.5,25.87C85.5,412.86,56.77,404.95,30.05,387.43z M240.87,349.6
		c-0.13,11.99-3.3,20.64-9.42,25.7c-4.37,3.62-9.07,7.25-14.2,10.76V31.68c4.7,3.17,9.43,6.7,14.2,10.64
		c6.12,5.06,9.29,13.7,9.42,25.67V349.6z"/>
</g>
<g>
	<path class="st0" d="M135.23,345.44h-25.28c-4.2,0-7.63-3.42-7.63-7.62c0-4.21,3.42-7.63,7.63-7.63h25.28
		c4.21,0,7.63,3.42,7.63,7.63C142.86,342.02,139.44,345.44,135.23,345.44z M109.95,332.31c-3.03,0-5.5,2.47-5.5,5.5
		s2.47,5.5,5.5,5.5h25.28c3.03,0,5.5-2.47,5.5-5.5s-2.47-5.5-5.5-5.5H109.95z"/>
</g>
<g>
	<path class="st1" d="M110,332.2h25.18c1.54,0,2.95,0.63,3.96,1.65c1.02,1.02,1.65,2.42,1.65,3.96c0,1.54-0.63,2.95-1.65,3.96
		c-1.02,1.02-2.42,1.65-3.96,1.65H110c-1.54,0-2.95-0.63-3.96-1.65s-1.65-2.42-1.65-3.96c0-1.54,0.63-2.95,1.65-3.96
		C107.05,332.83,108.46,332.2,110,332.2"/>
</g>
</svg>
