<svg height="960" viewBox="0 0 960 960" width="960" xmlns="http://www.w3.org/2000/svg"><path d="m877.484615 303c48.392308 0 83.515385 38.622353 83.515385 91.826144v169.370784c-.046154 50.665882-41.123077 91.756928-91.823077 91.803072h-776.3307692c-50.7-.046144-91.79999995-41.13719-91.8461538-91.826144v-169.347712c.06923077-50.688954 41.1461538-91.78 91.8461538-91.826144zm-.023077 21.341503h-784.6153842c-38.9076923.046144-70.4538461 31.562353-70.5 70.484641v169.370784c.0461539 38.899216 31.5923077 70.438497 70.5 70.484641h776.3076922c38.907692-.046144 70.430769-31.585425 70.476923-70.484641v-169.370784c0-41.50634-25.546154-70.484641-62.169231-70.484641zm-571.430769 69.953987c2.538462.023072 4.846154 1.499673 5.861539 3.829935l6.9 15.619673v.046144c.992307 2.237974.623077 4.845098-.946154 6.713921l-90.646154 107.814968h84.669231c3.530769 0 6.392307 2.860915 6.392307 6.390915v23.994771c0 3.53-2.861538 6.390915-6.392307 6.390915h-129.253846c-2.538462 0-4.823077-1.499673-5.861539-3.829935l-6.9-15.619673c-1.015384-2.237974-.646154-4.86817.923077-6.736993l90.646154-107.838039h-84.646154c-3.530769 0-6.392308-2.860916-6.392308-6.390916v-23.994771c0-3.53 2.861539-6.390915 6.392308-6.390915zm459.323077.021808c47.030769.047408 85.153846 38.162179 85.2 85.182702v3.668431c0 1.684249-.669231 3.322353-1.869231 4.522092l-8.353846 8.352026c-1.2 1.199739-2.838461 1.868824-4.523077 1.868824h-115.915384c7.523077 18.50366 25.476923 30.639477 45.461538 30.731764 13.407692.023072 26.192308-5.514183 35.353846-15.273595 1.2-1.292026 2.907693-2.030326 4.684616-2.030326h29.446154c1.223076 0 2.423076.346078 3.461538.992091 2.976923 1.891896 3.853846 5.83719 1.961538 8.813464l-2.676923 4.245229c-7.476923 11.512876-17.584615 21.110784-29.492307 27.940065-13.246154 7.775229-28.338462 11.835883-43.684616 11.745134-47.16923-.25533-85.176923-38.693107-84.924341-85.852062.255111-47.158954 38.701264-85.158366 85.870495-84.905839zm-178.213846-.368298 1.17597.0082c40.556702.588715 73.308492 33.580739 73.445568 74.283715v90.418758c0 3.53-2.861538 6.390915-6.392307 6.390915h-24c-3.507693-.023072-6.369231-2.883987-6.346154-6.413987v-90.395686c0-20.81085-16.892308-37.699477-37.707692-37.699477-20.815385 0-37.707693 16.888627-37.707693 37.699477v90.44183c0 3.53-2.861538 6.390915-6.392307 6.390915h-23.976923c-3.507693-.023072-6.369231-2.883987-6.346293-6.413987v-158.296274l.004035-.229247c.120702-3.423789 2.934398-6.161668 6.388411-6.161668h23.953847l.229296.004033c3.424535.12067 6.163011 2.933621 6.163011 6.386882v4.314444c11.376923-6.713921 24.3-10.405425 37.523077-10.728539zm-178.163077.36952c47.146154-.046102 85.430769 38.045598 85.569492 85.18148.115123 47.135882-38.03103 85.458301-85.200261 85.550849-47.146154.115099-85.476923-38.022744-85.569492-85.181699-.115124-47.135882 38.03103-85.4583 85.200261-85.55063zm-267.069231 48.704813-.046154.023072c3.53077 0 6.392308 2.860915 6.392308 6.390915v109.222353c0 3.53-2.861538 6.390915-6.392308 6.390915h-23.976923c-3.507692-.023072-6.36923-2.883987-6.346292-6.413987v-109.222353c0-3.53 2.861677-6.390915 6.392446-6.390915zm267.438462-11.905556c-26.838462-.114901-48.692308 21.572681-48.785074 48.405295-.114926 26.832614 21.577382 48.681699 48.415843 48.773987 26.930769-.023072 48.761539-21.849085 48.784615-48.773987-.092307-26.694183-21.715384-48.312549-48.415384-48.405295zm356.608703-.391534-.601011-.00023c-19.984615.092288-37.938461 12.228105-45.461538 30.731765h90.946154c-7.214308-18.26925-24.712284-30.356348-44.283836-30.723949zm-624.047165-36.776831-.023077.023072c3.53077 0 6.392308 2.860915 6.392308 6.390915v24.294706c0 3.53-2.861538 6.390915-6.392308 6.390915h-23.953846c-3.530769 0-6.392307-2.860915-6.392307-6.390915v-24.317778c0-3.53 2.861538-6.390915 6.392307-6.390915zm722.123077-18.24987c4.015385 0 7.938462 1.038236 11.446154 2.976275 3.623077 1.961111 6.623077 4.937386 8.607692 8.536601 4.153847 7.17536 4.2 16.011896.069231 23.210327-1.984615 3.599216-4.961538 6.57549-8.561538 8.559673-7.153846 4.106798-15.946154 4.106798-23.1 0-3.6-1.984183-6.576923-4.960457-8.561539-8.559673-4.130769-7.198431-4.107692-16.034967.069231-23.210327 1.984615-3.622287 4.984615-6.57549 8.607692-8.536601 3.461539-1.938039 7.407693-2.953203 11.423077-2.976275zm.023077 4.545164c-3.207692 0-6.369231.830588-9.161538 2.399477-2.907693 1.568889-5.307693 3.968366-6.923077 6.875425-3.346154 5.767974-3.369231 12.874117-.069231 18.665163 1.592308 2.907059 3.992308 5.283464 6.876923 6.898497 5.746154 3.322353 12.830769 3.322353 18.553846 0 2.884616-1.615033 5.284616-4.01451 6.876923-6.898497 3.323077-5.791046 3.323077-12.897189-.046154-18.665163-1.592307-2.907059-4.015384-5.283464-6.923076-6.875425-2.815385-1.568889-5.976924-2.376405-9.184616-2.399477zm-3.55889 6.437279.178667.000073.853279.000608c2.842276.002931 4.480338.015385 4.903867.068314 1.338462.069216 2.653846.392223 3.853846.96902.969231.576797 1.776923 1.384314 2.33077 2.376405.623077 1.061307.946153 2.284118.923077 3.53.046153 1.684249-.576924 3.322353-1.73077 4.568236-1.315384 1.315098-3.023077 2.145686-4.892307 2.330261.623077.207647 1.2.530654 1.730769.922876.623077.576797 1.176923 1.199738 1.661538 1.891895.184616.230719.784616 1.245883 1.823077 2.999347l2.907693 4.960457h-6.184616l-2.053846-3.991438c-.830769-1.891895-2.007692-3.599215-3.484615-5.075817-.992308-.715229-2.215385-1.084379-3.461539-1.038235h-1.292308v10.10549h-4.984615v-24.617712zm.120429 3.922002h-2.007693l-.023077 6.713921h2.007693c1.8.092288 3.6-.023071 5.376923-.346078 1.338461-.415294 2.261538-1.661176 2.261538-3.04549 0-.669085-.184615-1.292026-.576923-1.82268-.415384-.553725-1.015384-.969019-1.684615-1.153595-1.776923-.323006-3.576923-.438366-5.353846-.346078z" fill-rule="evenodd"/></svg>