<svg height="960" viewBox="0 0 960 960" width="960" xmlns="http://www.w3.org/2000/svg"><path d="m451.043767 1.13322256 145.356436 8.08698346c31.110475 1.73084798 58.470012 19.47308188 77.302627 46.91762068 16.935835 24.6803838 26.29717 56.2235293 26.29717 88.9418923v669.840562c0 32.718363-9.361335 64.261508-26.29717 88.941892-18.832615 27.444539-46.192152 45.186773-77.302627 46.917621l-145.356436 8.086983c-7.729472.430034-15.370974-.183878-22.802088-1.785265l-.504679-.111512-.127171.007827c-3.406226.15428-6.900008-.129253-10.417754-.900801l-.754146-.17282-17.415929-4.163206-.704739-.053567c-28.552701-2.354037-53.952483-17.860337-71.917793-42.076204l-.576942-.784172c-17.358788-23.791188-26.822526-54.679896-26.822526-87.357178v-682.939758c0-58.3874166 30.414617-110.1228709 77.91523-125.8315503l.94577-.3035707.058479-.0245199c1.794549-.7258234 3.660562-1.3285528 5.589396-1.7964124l.580526-.1362999 32.790614-7.4449894c4.75538-1.07969182 9.372454-1.29530814 13.749241-.78468981l.743744.09691141.154648-.0284888c6.382789-1.11639539 12.912668-1.51067523 19.516119-1.14328864zm-28.462776 46.37636634.237553-.4193906c-23.175007 13.4754584-39.366012 46.2387529-39.366012 85.4068457v694.005912c0 52.791582 29.412931 93.948068 65.695621 91.925584l145.07783-8.086983c36.28269-2.022484 65.695621-44.967901 65.695621-95.921276v-669.840562c0-6.560116-.487546-12.987492-1.414528-19.211885-6.419031-41.8809921-32.782244-74.4542781-64.328858-76.2093909l-145.356436-8.0869835c-9.327221-.5189249-18.201322 1.8047221-26.240791 6.4381293zm-33.518631 3.3130705-.675593.2353382c-28.582304 10.2323723-49.386767 45.03143-49.386767 87.4721234v682.939758c0 43.307071 21.662531 78.657332 51.146804 88.067913-1.278362-1.574176-2.520707-3.203885-3.724252-4.887963-14.765036-20.660199-22.97002-48.428175-22.97002-78.146873v-694.005912c0-29.718698 8.204984-57.4866738 22.97002-78.1468726.860351-1.2038585 1.740528-2.379934 2.639808-3.527512zm58.39908 658.9143976c18.193732.464186 32.896902 15.448788 32.896902 33.59185 0 18.309809-14.962532 32.920963-33.323041 32.606794-18.245939-.312209-32.980867-15.329176-32.980867-33.593639 0-18.43121 14.995689-33.074743 33.407006-32.605005zm153.432177-.92429c18.193731.464186 32.896901 15.448788 32.896901 33.591849 0 18.309809-14.962531 32.920964-33.32304 32.606795-18.245939-.312209-32.980867-15.329177-32.980867-33.593639 0-18.43121 14.995688-33.074743 33.407006-32.605005zm-76.716088 0c18.193731.464186 32.896901 15.448788 32.896901 33.591849 0 18.309809-14.962532 32.920964-33.32304 32.606795-18.24594-.312209-32.980868-15.329177-32.980868-33.593639 0-18.43121 14.995689-33.074743 33.407007-32.605005zm-90.123095 33.529295c0 7.360386 5.996037 13.471193 13.32304 13.596566 7.212434.123413 12.980868-5.509556 12.980868-12.609721 0-7.266913-6.027796-13.410086-13.407007-13.598356-7.161624-.182719-12.896901 5.417872-12.896901 12.611511zm153.432177-.92429c0 7.360386 5.996037 13.471193 13.32304 13.596566 7.212433.123413 12.980867-5.509556 12.980867-12.609722 0-7.266913-6.027795-13.410086-13.407006-13.598355-7.161624-.182719-12.896901 5.417872-12.896901 12.611511zm-76.716089 0c0 7.360386 5.996038 13.471193 13.32304 13.596566 7.212434.123413 12.980868-5.509556 12.980868-12.609722 0-7.266913-6.027796-13.410086-13.407006-13.598355-7.161625-.182719-12.896902 5.417872-12.896902 12.611511zm-63.309082-110.245384c18.193732.464187 32.896902 15.448788 32.896902 33.59185 0 18.309809-14.962532 32.920963-33.323041 32.606794-18.245939-.312209-32.980867-15.329176-32.980867-33.593639 0-18.43121 14.995689-33.074743 33.407006-32.605005zm153.432177-.92429c18.193731.464186 32.896901 15.448788 32.896901 33.59185 0 18.309809-14.962531 32.920963-33.32304 32.606794-18.245939-.312209-32.980867-15.329176-32.980867-33.593639 0-18.43121 14.995688-33.074743 33.407006-32.605005zm-76.716088 0c18.193731.464186 32.896901 15.448788 32.896901 33.59185 0 18.309809-14.962532 32.920963-33.32304 32.606794-18.24594-.312209-32.980868-15.329176-32.980868-33.593639 0-18.43121 14.995689-33.074743 33.407007-32.605005zm-90.123095 33.529295c0 7.360386 5.996037 13.471193 13.32304 13.596566 7.212434.123413 12.980868-5.509556 12.980868-12.609721 0-7.266913-6.027796-13.410086-13.407007-13.598356-7.161624-.182718-12.896901 5.417873-12.896901 12.611511zm153.432177-.92429c0 7.360386 5.996037 13.471193 13.32304 13.596566 7.212433.123413 12.980867-5.509556 12.980867-12.609721 0-7.266913-6.027795-13.410086-13.407006-13.598356-7.161624-.182719-12.896901 5.417872-12.896901 12.611511zm-76.716089 0c0 7.360386 5.996038 13.471193 13.32304 13.596566 7.212434.123413 12.980868-5.509556 12.980868-12.609721 0-7.266913-6.027796-13.410086-13.407006-13.598356-7.161625-.182719-12.896902 5.417872-12.896902 12.611511zm-63.309082-110.245384c18.193732.464187 32.896902 15.448788 32.896902 33.59185 0 18.309809-14.962532 32.920964-33.323041 32.606794-18.245939-.312208-32.980867-15.329176-32.980867-33.593639 0-18.43121 14.995689-33.074742 33.407006-32.605005zm76.716089-.92429c18.193731.464187 32.896901 15.448788 32.896901 33.59185 0 18.309809-14.962532 32.920963-33.32304 32.606794-18.24594-.312209-32.980868-15.329176-32.980868-33.593639 0-18.43121 14.995689-33.074743 33.407007-32.605005zm76.716088 0c18.193731.464187 32.896901 15.448788 32.896901 33.59185 0 18.309809-14.962531 32.920963-33.32304 32.606794-18.245939-.312209-32.980867-15.329176-32.980867-33.593639 0-18.43121 14.995688-33.074743 33.407006-32.605005zm-166.839183 33.529295c0 7.360386 5.996037 13.471193 13.32304 13.596567 7.212434.123413 12.980868-5.509556 12.980868-12.609722 0-7.266913-6.027796-13.410086-13.407007-13.598356-7.161624-.182718-12.896901 5.417873-12.896901 12.611511zm153.432177-.92429c0 7.360386 5.996037 13.471193 13.32304 13.596567 7.212433.123412 12.980867-5.509557 12.980867-12.609722 0-7.266913-6.027795-13.410086-13.407006-13.598356-7.161624-.182718-12.896901 5.417873-12.896901 12.611511zm-76.716089 0c0 7.360386 5.996038 13.471193 13.32304 13.596567 7.212434.123412 12.980868-5.509557 12.980868-12.609722 0-7.266913-6.027796-13.410086-13.407006-13.598356-7.161625-.182718-12.896902 5.417873-12.896902 12.611511zm-26.337473-120.412576c18.193732.464187 32.896901 15.448788 32.896901 33.59185 0 18.309809-14.962531 32.920963-33.32304 32.606794-18.245939-.312209-32.980867-15.329176-32.980867-33.593639 0-18.43121 14.995688-33.074743 33.407006-32.605005zm81.337539-.92429c18.193732.464187 32.896902 15.448788 32.896902 33.59185 0 18.309809-14.962532 32.920963-33.32304 32.606794-18.24594-.312209-32.980868-15.329176-32.980868-33.593639 0-18.43121 14.995689-33.074743 33.407006-32.605005zm-94.744545 33.529295c0 7.360386 5.996037 13.471193 13.32304 13.596567 7.212434.123412 12.980867-5.509557 12.980867-12.609722 0-7.266913-6.027795-13.410086-13.407006-13.598356-7.161624-.182718-12.896901 5.417873-12.896901 12.611511zm81.337539-.92429c0 7.360386 5.996038 13.471193 13.32304 13.596566 7.212434.123413 12.980868-5.509556 12.980868-12.609721 0-7.266913-6.027796-13.410086-13.407006-13.598356-7.161625-.182719-12.896902 5.417872-12.896902 12.611511zm-29.920703-291.576125c62.907047 2.067481 113.866797 54.002646 113.866797 116.18427 0 62.348359-51.217882 112.36345-114.292862 111.747899-63.050603-.615313-114.09769-52.639486-114.09769-116.189189 0-63.716438 51.309064-113.820571 114.523755-111.74298zm-94.523755 111.74298c0 52.620986 42.252541 95.682278 94.292862 96.190142 52.015943.507625 94.09769-40.585882 94.09769-91.748852 0-51.329705-42.339878-94.480006-94.523755-96.195062-51.876233-1.704946-93.866797 39.29952-93.866797 91.753772zm94.450328-66.759947c38.055093.97092 68.859077 32.364519 68.859077 70.242372 0 38.0446-31.063346 68.37846-69.285215 67.724441-38.107301-.65206-68.943043-32.078025-68.943043-70.244162 0-38.332884 31.096503-68.699123 69.369181-67.722651zm-49.369181 67.722651c0 27.26206 22.096852 49.781865 49.285215 50.247089 27.073795.463263 48.943043-20.892412 48.943043-47.727368 0-27.001704-22.12861-49.553875-49.369181-50.248879-27.022986-.689452-48.859077 20.633845-48.859077 47.729158zm49.369181-39.731944c22.561206.575616 40.804914 19.168524 40.804914 41.651228 0 22.649451-18.50307 40.717998-41.231052 40.329096-22.613414-.386941-40.88888-19.012216-40.88888-41.653017 0-22.80755 18.536226-40.908475 41.315018-40.327307zm-21.315018 40.327307c0 11.736725 9.536575 21.455838 21.231052 21.655944 11.579908.198146 20.88888-8.892216 20.88888-20.332023 0-11.606555-9.568334-21.358035-21.315018-21.657735-11.529099-.294148-20.804914 8.763836-20.804914 20.333814zm21.964782-209.770837c25.367616.66003 50.211921 5.204827 73.446092 13.407695 6.976666 2.463125 13.784418 5.248197 20.390406 8.341663 15.004831 7.026495 21.47255 24.886414 14.446055 39.891246-7.026495 15.004831-24.886414 21.47255-39.891246 14.446055-4.81726-2.255837-9.799325-4.29365-14.919992-6.101511-17.297905-6.107058-35.928581-9.508405-55.031904-10.005447-24.000106-.62445-47.15965 3.506208-67.699606 11.975292-15.317558 6.315773-32.854839-.981616-39.170612-16.299175s.981616-32.854839 16.299175-39.170612c28.327736-11.680161 59.807168-17.326245 92.131632-16.485206zm-84.507819 34.975135c-5.105853 2.105258-7.538317 7.951018-5.433059 13.056871s7.951018 7.538316 13.056871 5.433058c23.159073-9.549005 49.09358-14.174596 75.843614-13.478597 21.181957.551126 41.884311 4.330693 61.169967 11.13953 5.737857 2.025761 11.328545 4.312519 16.743463 6.848228 5.001611 2.342166 10.954917.186259 13.297082-4.815351 2.342165-5.001611.186259-10.954917-4.815352-13.297082-6.008714-2.813774-12.207848-5.349859-18.566934-7.594946-21.248716-7.5019-44.021364-11.667725-67.308029-12.273613-29.568289-.769326-58.272586 4.379015-83.987623 14.981902z"/></svg>