<svg height="960" viewBox="0 0 960 960" width="960" xmlns="http://www.w3.org/2000/svg"><g fill="none"><path d="m411.82402 17.1994324 1.033104.0222124.054811.000242.162009.0022051.161999.0028614 183.48408 3.6125836c76.230957 1.500897 137.244101 63.7271416 137.244101 139.9728721v583.11838c0 73.654317-57.069677 134.712731-130.556231 139.681119l-95.750813 6.473524-2.203 33.913-.030567.469972c-.01042.159845-.022414.319333-.035967.478444l.035967-.478176c-.015311.234868-.03402.468976-.056086.702265-.009494.100128-.019553.199817-.030224.299349-.007866.073592-.016139.147531-.024749.221383-.007955.068053-.016136.135715-.024599.203302-.016723.1337-.034563.267058-.0535.400113-.016803.117958-.034462.235746-.052977.353284-.010363.065868-.020989.131539-.031883.197133-.016728.100671-.034109.201355-.052119.301847-.013224.073828-.026758.147357-.040628.220783-.023079.122141-.047014.243666-.071866.364892-.013974.068168-.028203.136065-.042719.203868-.028268.132047-.05763.263747-.088073.395074-.012861.055452-.025812.110425-.038952.165332-.019416.081164-.039263.162225-.059522.243139-.023948.095605-.048403.190777-.073428.285741-.040734.154615-.08294.308502-.126637.461816-.00973.034096-.019593.068409-.02953.102693-.090309.311586-.186641.6203-.289006.926472-.012074.036082-.024261.072246-.036532.108375l-.005492.016179c-.051268.150587-.103999.300552-.158177.449875-.01765.048634-.03562.097665-.053746.146627-.046111.12455-.093048.248167-.14098.371323-.013858.035615-.027947.071561-.042121.107468-.126099.319415-.258727.635321-.397895.947908-.017612.039616-.03526.07897-.053011.118271-.096527.213634-.196106.425734-.298702.636201l-.051235.10226.000876 29.478402c-.000026 10.930617-8.768747 19.813179-19.655511 19.999953h-28.344489c-11.045642 0-19.999925-8.954222-20-19.999864l-.000876-28.543491-.028237-.050779-.17922-.326313c-.099554-.184482-.196748-.370371-.291546-.557626-.034039-.066964-.067703-.134244-.101057-.201697-.059635-.120872-.118309-.242085-.175985-.363841-.005309-.010936-.010502-.02192-.015687-.032909-.148876-.315796-.291153-.635203-.426555-.958054-.021986-.052152-.043687-.104416-.065208-.156768-.032983-.080509-.065622-.161153-.097834-.242005-.054186-.135745-.106953-.271798-.158507-.408419-.024475-.065133-.048718-.130235-.072686-.195464-.017697-.04789-.035138-.09583-.05243-.143837-.040366-.112334-.080117-.225335-.119041-.3387-.015864-.045931-.031511-.091959-.047021-.138046-.049417-.147113-.09741-.294427-.144008-.442326-.016667-.052626-.033255-.105922-.049662-.159294-.029636-.09668-.058681-.193335-.087132-.29023-.018513-.062785-.036663-.12555-.054562-.188415-.037585-.132274-.074125-.264924-.109549-.398002l-.02038-.076805c-.012644-.048142-.025141-.09634-.037493-.144593-.077061-.301331-.148418-.604485-.213971-.909646-.007446-.034383-.014873-.069338-.022225-.10432-.069847-.332653-.13277-.667115-.188686-1.003759-.007684-.045984-.015285-.092594-.022752-.139246-.020471-.128181-.039904-.256207-.058322-.384533-.00596-.041254-.011831-.082931-.017594-.124639-.047129-.341391-.087059-.684298-.119688-1.029123-.004145-.04354-.008125-.086852-.011989-.130193-.025783-.289421-.046446-.580134-.061886-.872077l-1.500131-28.639554-14.141438.956297c-3.424507.23153-6.85637.337045-10.288633.318881-6.493777-.041738-12.940753-.525514-19.306146-1.445446l-.137739-.021519-.191635-.01756c-.409179-.042337-.818943-.091055-1.229184-.146225l-.615705-.087605-32.746476-4.91561-.933835-.097376c-70.016785-7.866332-123.581725-66.938137-124.229209-137.809704v-2.173182l3.642958-589.433108c.003622-.586042.010924-1.172056.021905-1.758007 1.306693-69.7244188 53.575928-127.2029608 121.483722-136.1657734l1.018459-.1268498.81996-.192294c1.37742-.3053146 2.794838-.545838 4.251045-.7171014l1.099408-.1153916 37.73057-3.4867076 1.084673-.1029497c4.187882-.377711 8.401917-.5687681 12.632461-.5687681zm43.175953 929.8941626.000027 15.906405h28l-.000386-15.670119c-4.27375.939444-8.588958 1.414488-12.923412 1.414488-4.724094 0-9.737412-.562872-15.076229-1.650774zm32.527107-55.647163-37.123 2.51 1.516733 28.94206c.092582 1.750537 1.314186 3.236832 3.01366 3.666646 5.731062 1.45249 10.778221 2.179231 15.141729 2.179231 3.962199 0 7.922531-.599212 11.880996-1.797638l.74218-.231756.192885-.067506.165817-.069037.056803-.023036c.048308-.021704.096063-.044314.143248-.067807.015909-.007645.03188-.01573.047784-.023916l-.047784.023916c.054034-.026902.10732-.05496.159829-.08414l-.112045.060224c.07251-.037324.143636-.076745.213308-.118177l-.101263.057953c.054511-.030291.108185-.06179.160991-.094458l-.059728.036505c.055594-.03306.110263-.0674.163971-.102975l-.104243.06647c.064033-.039612.126791-.080942.188218-.123919l-.083975.057449c.058866-.038991.116578-.079467.17309-.121366l-.089115.063917c.049888-.034904.098899-.070894.147002-.107932l-.057887.044015c.054721-.040572.108317-.08248.160746-.125669l-.102859.081654c.057339-.044149.113389-.089788.168099-.136851l-.06524.055197c.050376-.041499.099676-.084182.147861-.128001l-.082621.072804c.05127-.044104.101363-.089459.150239-.136012l-.067618.063208c.05387-.04899.106347-.099399.15738-.151163l-.089762.087955c.043381-.04132.085804-.083584.127238-.126755l-.037476.0388c.044106-.044737.087133-.090485.129047-.137202l-.091571.098402c.058249-.060691.114544-.123173.168807-.187346l-.077236.088944c.043191-.04814.085202-.097308.125994-.147458l-.048758.058514c.093699-.11081.181336-.226658.262498-.347014.007562-.010939.014971-.022046.022325-.033192l-.022325.033192c.031847-.047225.062696-.095144.092524-.143725l-.070199.110533c.041314-.062611.080889-.126413.118669-.191332l-.04847.080799c.038593-.062858.075475-.126823.110592-.191828l-.062122.111029c.031038-.053336.060865-.107426.089448-.16223l-.027326.051201c.033872-.062699.066102-.126365.096642-.190934l-.069316.139733c.031233-.059884.060981-.120619.089202-.182154l-.019886.042421c.030944-.065426.060153-.13178.087576-.198998l-.06769.156577c.029734-.064832.057774-.130552.084072-.197097l-.016382.04052c.02385-.058459.046348-.11757.067463-.177292l-.051081.136772c.025173-.063699.04875-.128154.070688-.193312l-.019607.05654c.042278-.119581.079007-.24161.109921-.365746.00776-.030889.015124-.062053.02212-.093344l.037873-.191463c.00554-.032047.010698-.064212.015469-.096489.015911-.107428.027494-.216038.034642-.325684zm206.436-346.656-385.892 11.002-1.208247 200.184207c-.300548 50.081605 36.265571 91.786483 84.265948 99.373354l-.639709-.104084c.569692.093824 1.141017.182838 1.713934.266997.227922.03438.456634.067177.685597.099198l-.685597-.099198c.455149.066861.911301.130657 1.368436.191369l-.682839-.092171c.504272.070525 1.009757.137293 1.516427.200274l-.833588-.108103c.479018.063618.959114.123848 1.440264.180666.404702.048775.810269.094176 1.216567.137146l-1.216567-.137146c.598482.070673 1.198595.136066 1.800292.196132l-.583725-.058986c.441746.04672.884356.090566 1.327812.131521l-.744087-.072535c.490777.048993.982608.094441 1.475467.136318l-.73138-.063783c.630399.058218 1.262508.110593 1.896271.157068l-1.164891-.093285c.622246.052872 1.246129.100051 1.871599.141487l-.706708-.048202c.481308.035295.963571.067187 1.446764.095653l-.740056-.047451c.476467.031565.953855.059796 1.43214.084671l-.692084-.03722c.48206.028399.965045.053388 1.448933.074941l-.756849-.037721c.661025.034379 1.323765.062347 1.988158.083842.191278.007431.382978.013097.574815.018224l-.574815-.018224c.472531.015287.945898.027301 1.420081.036018l-.845266-.017794c.506935.013547 1.01482.023327 1.523628.029312l.581594.004114c2.451616.014045 4.902948-.061322 7.349025-.226701l187.100907-12.649801c52.490394-3.54885 93.254448-47.162002 93.254448-99.772228zm-367.214931-473.5497495-.845814.4152469c-32.367933 16.053142-54.892641 49.1486756-55.616414 87.7688396-.007844.418536-.013059.837118-.015647 1.255719l-3.644908 589.433108c-.033668 5.480538.37417 10.860824 1.190189 16.10712.115685.744012.239605 1.485255.371637 2.223707l.064808.358424c.062569.342703.126887.6848.192943 1.026281.375951 1.943496.808221 3.867055 1.295052 5.768898.09903.387116.200243.772802.303695 1.157577 2.451074 9.115611 6.158482 17.718264 10.926412 25.610421.589436.975918 1.195046 1.940675 1.816492 2.894199l.148048.226239c.436761.66621.881268 1.326902 1.333392 1.981947.076253.110726.152449.220648.22886.330409 1.339346 1.923704 2.744955 3.798902 4.213258 5.621597.320896.398601.645005.794707.972078 1.188266l.932887 1.105979c8.11652 9.485341 17.97906 17.435749 29.093578 23.351002-20.52511-21.678731-33.039162-51.000563-32.84587-83.209718l1.217255-201.736512-8.838812-.760451v-64.316433l9.230812.196884 2.010144-332.763774c.003296-.546052.010318-1.092076.021067-1.638032.646729-32.847515 14.433053-62.3520367 36.244858-83.5969435zm84.046764-14.0406376-1.548635.0052264c-.071043.0008635-.142069.0018006-.213078.0028115l.21291-.0016276c-.522852.006149-1.044772.0163272-1.565729.0305057l1.352819-.0288781c-.550727.0078399-1.100414.020111-1.649026.0367866l.296207-.0079085c-.600229.0163359-1.19918.037982-1.796807.0648936l1.5006-.0569851c-.506449.0153939-1.01198.0345414-1.516568.0574212l.015968-.0004361c-.525594.023668-1.050164.0514087-1.573679.0831918l1.557711-.0827557c-.650706.0295054-1.299842.0652179-1.947348.1070924l.389637-.0243367c-.50929.0309195-1.01758.0656648-1.524843.1042078l1.135206-.0798711c-.557161.0360319-1.113115.0766262-1.667823.1217542l.532617-.0418831c-.471629.0358355-.942369.0749539-1.412197.1173329l.87958-.0754498c-.531139.0432106-1.061137.0905777-1.589959.1420763l.710379-.0666265c-50.119914 4.5208665-89.859891 46.146388-90.873439 97.624739-.008958.454964-.01481.909983-.017556 1.365027l-2.01178 333.071079.023798.000325 385.469202-7.459325.000699-321.396028c0-54.461236-43.580816-98.9085534-98.031499-99.980623l-183.48374-3.6125779z" fill="#000"/><path d="m463.004769 49.1715592 116.337358 1.4191565c2.655669.0324046 5.288381.1588941 7.894993.3761677 2.502723.208614 5.015319.5037485 7.534883.8884861 1.597513 3.3090398 2.165243 7.1121223 1.468704 10.8900847-.772706 4.1910851-3.010022 7.8561993-6.160108 10.4473286-3.105863 2.554754-7.092804 4.0699362-11.4221 4.0230819l-100.970374-1.0927647c-4.538722-.0491209-8.652818-1.8300818-11.722776-4.7067128-5.474803-5.1300314-7.611733-13.7521818-2.96058-22.244828z" stroke="#000" stroke-linecap="round" stroke-linejoin="round" stroke-width="20"/></g></svg>