<svg height="960" viewBox="0 0 960 960" width="960" xmlns="http://www.w3.org/2000/svg"><path d="m511.192086 80.6368606c33.308069 12.5774254 82.819494 31.0556714 132.98578 49.6113824l6.545865 2.420271c56.74086 20.971191 113.454681 41.717827 147.680679 53.827702 47.648302 16.858967 81.915653 48.022807 103.536889 88.200511 15.108487 28.075373 22.777378 58.324659 24.228101 83.584987 2.074898 36.128614 9.443648 181.169588 9.443648 189.016053 0 7.665669-1.56661 14.033285-4.365814 21.851485-1.585472 4.42824-3.590405 9.279548-6.531249 15.978777-.622157 1.417269-1.992824 4.497612-3.441133 7.746007l-.348741.782076-.349662.783937-.286142.641394c-1.141516 2.558516-2.237284 5.011998-2.959428 6.629781l-.172562.386612c-.301399.67532-.518571 1.162295-.619948 1.390574-3.580951 8.063537-6.542512 14.901537-9.484445 21.96788-.965243 2.318455-2.581344 6.3258-4.363192 10.773739 20.427471 27.082163 37.733677 65.387672 52.821591 115.232461 5.923298 19.568344-3.86346 40.453795-22.691121 48.424036l-203.820507 86.282545c-21.746463 9.205846-46.693-2.332204-53.760145-24.864664-8.95763-28.559969-18.119009-55.051405-27.484792-79.371228-4.16834 1.493692-8.348065 2.991204-12.530564 4.489463l-7.529636 2.697009c-27.606014 9.887121-55.107864 19.726437-80.030284 28.634187-45.270956 16.180707-82.138721 20.261639-116.379278 13.014919-15.26015-3.22968-29.589473-8.584153-44.550199-16.198638-1.832624-.932741-3.605651-1.857342-5.370894-2.802859l-.882213-.474636c-.294015-.158883-.588053-.318481-.882355-.47893l-.883936-.48403c-7.819322-4.300501-15.992168-9.292438-28.982563-17.479301-19.417634-12.237465-67.093587-43.37799-130.718795-85.280789l-7.281637-4.796762c-3.658489-2.410597-7.334047-4.833335-11.013256-7.259318l-3.679928-2.426734-1.692762-1.116479-3.384016-2.232307c-54.682596-36.0757-107.8172912-71.307369-115.2473543-76.418447-.8643186-.594557-2.7231625-1.836128-4.6695732-3.131081l-.616509-.410014c-2.4692164-1.641616-4.9258237-3.268701-5.5418883-3.684816-16.9452579-11.445511-27.7161445-22.048816-36.2653043-39.392048-5.5221494-11.202495-12.1090564-29.505521-17.2165913-48.035555-6.3545522-23.054187-10.14328477-44.928875-10.14328477-63.655449v-191.678009c0-16.457784 6.05982923-32.33941 17.02507687-44.621407 20.0445769-22.443872 34.9990308-39.113008 45.0800526-50.247209 24.9196654-27.523059 56.9731067-40.353278 169.0123917-70.5776073l20.014634-5.0710567c47.196972-11.2106681 97.578747-18.0620729 145.090393-20.4138326 49.756263-2.4628651 91.328146.162722 112.706601 8.2354182zm292.830523 517.6464204-2.522303.908177c-73.759244 26.566389-134.885738 48.313731-183.383418 65.243338-2.222497.839925-4.459229 1.68563-6.708267 2.536888 31.959556 24.237865 54.068174 51.505225 66.325856 81.802078 12.257681 30.296853 24.148626 63.816825 35.672833 100.559913l203.820507-86.282544c-14.143443-46.724611-30.003113-81.49064-47.579009-104.298086-4.376228-5.678834-8.514174-11.10676-12.55225-16.253667l.290859-.703975c-15.629242-22.755713-22.457932-35.412974-53.364808-43.512122zm98.346569 141.526856c2.00933 5.14436-.532114 10.943571-5.676474 12.952901l-162.836393 63.602087c-5.14436 2.00933-10.943571-.532114-12.952901-5.676474s.532114-10.943571 5.676474-12.952901l162.836393-63.602087c5.14436-2.00933 10.943571.532114 12.952901 5.676474zm-858.4248451-264.263253.1504812 1.025149c4.3252005 28.407433 15.2677923 59.991998 21.4058423 72.443938 7.7696836 15.76195 19.8377984 21.684716 33.8853449 31.347904 7.4451997 5.12149 70.1017167 46.670534 134.3556127 89.007759l7.277968 4.794346c54.592732 35.954117 108.878514 71.506911 130.041194 84.844146 29.372095 18.511009 53.759483 33.534915 87.875776 35.078221.005565-.261518.019307-.522229.043396-.784374 3.847681-41.87155 6.209105-70.295468 7.062387-84.812543-17.975531-2.999978-49.190168-12.504565-94.841974-28.651767-.827376-.292646-1.612629-.692933-2.335522-1.190545-2.146038-1.477253-20.981314-12.988118-55.0333-33.615498-34.143547-20.682844-124.070759-77.156786-269.8872061-169.486736zm548.4806731 197.81415 1.820452-.629401c-56.760405 19.633263-91.605661 31.026754-108.139121 35.090517-.785864 14.455083-3.131391 42.85136-7.059243 85.66675 15.882488-1.581726 33.91652-5.810225 55.155495-13.401441 28.129383-10.05398 71.252971-25.480858 116.259616-41.615964-11.542292-19.897859-28.525476-38.41432-51.138998-55.56423-3.42084-2.594337-5.696619-5.939878-6.898201-9.546231zm299.944172 42.449103c2.00933 5.14436-.532114 10.943571-5.676474 12.952901l-162.836393 63.602087c-5.14436 2.00933-10.943571-.532114-12.952901-5.676474s.532114-10.943571 5.676474-12.952901l162.836393-63.602087c5.14436-2.00933 10.943571.532114 12.952901 5.676474zm-808.4500502-509.303544-.4739941.526738c-9.0745915 10.087466-20.5153711 22.861866-34.3231832 38.322446-4.4169929 4.947403-6.8590137 11.347461-6.8590137 17.979702l-.0002905 189.309019c1.8326749-.001787 3.6876508.499817 5.350575 1.552937 149.8240047 94.882664 242.0544447 152.815341 276.5806097 173.72996 31.830684 19.281802 49.744365 30.213244 54.787524 33.447216 41.454236 14.639504 70.804646 23.620093 87.010417 26.825439-1.157838-24.169041-4.595882-79.888609-8.406515-136.606133l-.381578-5.664235c-1.530703-22.661193-3.110688-45.319415-4.618438-66.029482-2.780382-38.190633-14.880671-67.024875-35.086177-89.372588-15.65297-17.312513-34.31669-29.496386-61.83432-42.614684-34.425811-16.41159-181.954195-86.311929-236.895899-112.292142-15.417506-7.290456-26.531542-15.84395-32.5747371-25.098311-.8652082-1.324953-1.6240222-2.666021-2.2749801-4.015882zm159.8795222-70.00082c-89.240556 24.07402-121.732839 35.81852-139.803154 49.601184.009678 2.183756-.693854 4.384421-2.152439 6.230283-1.289756 1.632206-1.245327 3.663316 1.09685 7.250052 3.750838 5.743917 12.023605 12.110736 24.378621 17.953037 24.18279 11.435285 66.289017 31.372873 108.798962 51.515903l5.797667 2.747271c52.171914 24.722874 103.752443 49.187152 122.356101 58.055951 29.670061 14.144412 50.307196 27.616552 68.063096 47.254949 23.226159 25.688619 37.097374 58.742868 40.198095 101.333586 5.422406 74.480804 11.719465 173.117253 13.425979 208.806917 5.197933-1.459327 12.312613-3.584779 20.95719-6.319927 18.995528-6.010192 45.934421-15.047442 80.791961-27.104567 7.497295-2.593293 15.360102-5.326002 23.588402-8.198122 75.877369-28.655967 137.514939-50.883071 184.95885-66.693941 1.69489-.564829 3.448885-.897137 5.214871-.995149 28.405475-10.236417 58.650014-21.175131 90.732787-32.815044 1.100572-.399297 2.225589-.593436 3.333173-.601996-.815291-22.273166-7.867716-159.003745-9.300459-183.95099-1.52124-26.488202-16.800986-106.517146-101.173094-136.369764-84.372109-29.852618-259.876919-95.527851-288.000518-106.147574-28.123598-10.619723-145.051644-10.74373-253.262941 18.447941zm644.891836 431.170704-1.575279.571416c-18.675008 6.770416-36.709813 13.296615-54.10446 19.578614 11.644347 6.103697 20.489208 14.264632 29.103141 25.781314.508888.680374 2.055689 2.896146 4.157572 5.914786 1.218284-3.033737 2.49868-6.182601 3.85498-9.440351 7.265939-17.452338 13.890773-31.686434 18.564046-42.405779zm-394.876927-399.979689c75.590894 30.378852 125.313434 50.110853 149.110651 59.174775 42.178006 16.064826 63.638916 28.364236 81.000696 47.350735 7.779297 8.507285 19.531152 21.827674 35.31263 40.023306 2.899716 3.3448 5.096834 7.238822 6.460568 11.450267 5.61465 17.338997-3.889812 35.946603-21.228284 41.561083l-89.661415 29.039285c-26.576944 8.606409-55.622001-1.624479-70.937064-24.977882-.024796-.027872-.045897-.059776-.066846-.091839-21.447226-32.826158-46.690841-55.988414-75.756837-69.702409-27.432923-12.943473-87.175612-38.388509-179.052352-76.253038-.016509-.004023-.032638-.010614-.048759-.017249-4.894706-2.014652-8.571718-6.194254-9.94627-11.305768-2.438161-9.066736 2.935361-18.393298 12.007629-20.832945l107.192734-28.759665c18.410286-4.938611 37.926382-3.766042 55.612919 3.341344zm-50.430654 15.975595-98.63473 26.463563c87.636445 36.162797 144.828985 60.558966 171.833698 73.3004 32.574978 15.369612 60.563655 41.04528 83.939496 76.813071.009983.01114.018409.023971.02681.036828 10.365766 15.863472 30.070451 22.820846 48.098238 16.98291l89.661532-29.039323c6.830514-2.211831 10.574696-9.542101 8.362864-16.372614-.537228-1.659054-1.40276-3.193063-2.543613-4.509029-15.674422-18.072199-27.327267-31.280362-34.961827-39.629366-14.813991-16.200288-33.842187-27.10549-73.359914-42.157065-23.951223-9.12258-73.746468-28.883445-149.449705-59.307048-13.669489-5.492519-28.748535-6.39804-42.972849-2.582327zm-55.559344 126.237682c9.433483-3.739811 20.063044-2.931467 28.822514 2.191862l11.664205 6.82228c.566395.331279 1.008558.839117 1.258746 1.44571.631743 1.531688-.097807 3.285494-1.629495 3.917237l-18.820597 7.762527c-8.975819 3.702063-19.12648 3.263491-27.749541-1.198953l-14.264669-7.381983c-.642604-.332548-1.14337-.886138-1.410026-1.558762-.61061-1.540234.142998-3.283838 1.683232-3.894448z"/></svg>