<?xml version="1.0" encoding="UTF-8"?>
<svg width="600px" height="600px" viewBox="0 0 600 600" version="1.1" xmlns="http://www.w3.org/2000/svg" xmlns:xlink="http://www.w3.org/1999/xlink">
    <title>moodstate</title>
    <defs>
        <path d="M0,0 L600,0 L600,600 L0,600 Z" id="path-1"></path>
    </defs>
    <g id="moodstate" stroke="none" fill="none" xlink:href="#path-1" fill-rule="evenodd">
        <use fill="#FFFFFF" xlink:href="#path-1"></use>
        <path d="M300,0 C465.685425,0 600,134.314575 600,300 C600,465.685425 465.685425,600 300,600 C134.314575,600 0,465.685425 0,300 C0,134.314575 134.314575,0 300,0 Z M310.813592,98.7663937 C308.342374,87.0778688 291.657626,87.0778688 289.186408,98.7663937 L269.34757,192.60138 C261.204801,231.115562 231.115562,261.204801 192.60138,269.34757 L98.7663937,289.186408 C87.0778688,291.657626 87.0778688,308.342374 98.7663937,310.813592 L192.60138,330.65243 C231.115562,338.795199 261.204801,368.884438 269.34757,407.39862 L289.186408,501.233606 C291.657626,512.922131 308.342374,512.922131 310.813592,501.233606 L330.65243,407.39862 C338.795199,368.884438 368.884438,338.795199 407.39862,330.65243 L501.233606,310.813592 C512.922131,308.342374 512.922131,291.657626 501.233606,289.186408 L407.39862,269.34757 C368.884438,261.204801 338.795199,231.115562 330.65243,192.60138 L310.813592,98.7663937 Z" id="Shape" fill="#000000"></path>
    </g>
</svg>