<svg height="960" viewBox="0 0 960 960" width="960" xmlns="http://www.w3.org/2000/svg"><g fill="#000"><path d="m224.211204 215.343119c19.47356 0 35.776197 13.576338 39.959253 31.779678l.012347.057322.387187.067053c.187628.033692.374381.069141.560269.106352.172845.03459.344564.070633.515548.108197.170994.037578.341314.076679.510907.117308l.085405.020594.255594.063403c.094373.023878.188599.048266.282601.073135.019126.005071.037797.010032.056459.015012.252058.067251.502857.138083.752066.212403.082274.024543.164967.049641.247486.075124.072732.022454.144662.045006.21646.067852.038341.012207.077392.024732.116405.037345.105939.034244.210876.068902.315531.104197.061062.020601.122109.041439.18306.062495.05433.018761.108583.037703.16276.056818.113797.040158.227204.081052.34028.122712.024523.009028.049191.018158.073844.027325.088052.03275.175716.065886.263182.099487.06656.025563.13286.051345.199046.077395.055019.02166.110351.043656.165603.065839.096361.038684.192245.077849.28789.117583.03102.012893.061689.025703.092333.038572.098222.04124.196591.083263.294707.125894.045027.01957.09003.039276.134981.05911.097885.043187.195205.086846.292277.131112l.084061.038518.28959.135447c.059996.028517.119632.057136.179175.085989.043308.020981.086652.042132.129946.063406.088867.043675.177462.087836.26585.132519.063153.031921.126199.064113.18914.096573l.18778.0978c.047573.025016.094891.050085.142149.075307.095304.050868.190325.10233.285107.154413l.101538.05608c.083805.046534.166786.093189.249586.140326.05719.032552.114944.065714.172608.099111.076104.04408.151666.088337.227077.133l.174222.104065c.060903.036692.121828.073722.182654.111019.051975.031868.103721.063836.155395.095998.077726.04838.155351.097235.232816.146533.048778.031039.09718.062054.145519.093242.207255.133717.413799.270908.619218.411305.180477.123348.359941.24907.538556.377271.060704.043572.121257.087391.181712.131495l.37345.277014c.492217.371178.977984.761619 1.457659 1.171498.142014.12135.283553.244455.424567.36927.091328.08084.181785.161809.272028.243487.058577.053019.116967.106246.175267.159771l.153818.142101c.181932.169124.36293.341104.54308.516009.184393.179026.367741.360961.550224.545967.030491.030914.060531.061477.090548.092124.072659.074182.145545.149232.218294.224775.065982.068517.131843.137432.197593.206754l.124818.13223c.059513.06335.11893.127028.178255.191042.068593.074014.137002.148407.205291.223248.02212.024242.044364.048681.066595.073168.084121.092655.168369.186336.252436.280706l.149814.16912c.044659.050695.089433.101776.134156.153053.183104.209935.365645.423515.547357.640421.042629.050887.084879.101554.127083.152401l.187801.227807c.048856.059668.097468.119352.146022.179278.067135.082856.134775.166947.202302.251509.043542.054529.086358.108396.129129.162452.062403.078867.125167.158724.187835.238992.04728.060558.094608.121483.141881.182643l.171731.22353c.052131.068265.104207.136833.156217.205689.058737.077761.117659.156249.176497.235109.049745.066674.099347.133499.148889.200589.055899.075698.111653.151638.167333.227915l.096235.132272c.175335.241792.349809.486754.523574.735076l.044552.063764c.153157.21953.305764.441674.457838.666441.260527.385057.519698.778134.777386 1.178961l.305244.47952c1.288835 2.044676 2.644819 4.204023 3.990884 6.355634l.631005 1.009233.309782.495914.613077.982334.113743.182321c.152541.244608.304004.487601.454351.728917.418058.671134.827191 1.328717 1.226567 1.971524.10263.165042.204744.329458.306218.492907l.103235.166451c1.157595 1.865071 2.228074 3.598035 3.19196 5.167895.154413.251494.306417.499337.455623.742897.329811.53834.645788 1.055505.947072 1.55011.086876.14268.172929.284081.257734.423566.887124 1.459055 1.636249 2.706045 2.224195 3.70408 5.567824 9.451346 6.441971 22.264149 1.97046 33.172081l1.474265 7.67008c8.740948 45.473853 12.099836 78.635547 10.350158 95.902988-2.70617 26.706993-18.459751 46.723409-41.003681 47.588112-13.349438.512036-24.851581-5.793186-33.261362-16.674681 1.605225-6.347526 2.898313-14.645434 3.858888-24.898588 5.521865 17.096324 16.421726 27.060133 28.827552 26.584291 13.853764-.53138 24.61296-13.958372 26.655021-34.111313 1.298017-12.810033-.59577-40.522894-9.19309-86.477862-2.357607 1.773382-4.844937 3.250059-7.451742 4.406563l-.444294.192106-.644011 1.217.082311.427077c9.01708 47.116161 10.913981 67.364848 9.691582 79.42862-1.678681 16.566772-9.69162 26.56656-19.002403 26.923687-9.542447.366014-18.741618-9.37649-22.58586-27.356752l-5.307586 1.13573c.344909-4.811196.62736-9.984592.845726-15.520557l1.325687-.283657 14.668484-3.136172 3.136173 14.668484c1.372432 6.419132 3.528232 11.191686 5.878642 13.935067.489395.571219.927225.984205 1.292399 1.260492l.113283.083111.100283-.09391c.192956-.188611.410565-.433478.646533-.740559l.143734-.191762c1.806379-2.468885 3.261855-6.674044 3.821322-12.195381 1.044432-10.307421-.969851-29.156402-7.675428-65.405191-.855457.535434-1.715419 1.038158-2.580305 1.507701l-.100868.054916c-.212692.115528-.425613.229082-.638757.340647-.33225.1739-.664859.342878-.997991.50696-.203218.100095-.406177.198149-.609327.294374-.243985.115568-.488669.228693-.73362.339146-1.156715.521572-2.319003.983416-3.486495 1.383025-.308211.105493-.616751.20664-.925641.303401-.254443.079705-.509188.156454-.764161.230197l-.112706.031306-.071011.104-.040619.061851c-.123851.180623-.249101.36018-.375733.538657-.067995.095491-.135973.190439-.204344.285078l-.297809.40725c-.230645.311117-.465561.618784-.704655.922921-.448535.570296-.911553 1.128182-1.38866 1.673114-1.509611 1.724388-3.16049 3.319074-4.933339 4.76702-.190283.15533-.382056.309121-.575211.461198-.026819.021192-.054262.042743-.081734.06426l-.396491.306602c-.797594.609198-1.617902 1.189568-2.459314 1.739677l-.422848.272815-.010243.005557.000104-.02244c-.000236-.052175-.195856.084271-.516239.345715l-.419779.255503c-1.451477.869444-2.959709 1.651066-4.517465 2.33827-.252428.111373-.506534.220412-.761912.326936-2.507978 1.046151-5.138959 1.849752-7.861704 2.383109l-.509493.09645c-2.211598.404136-4.481981.630322-6.794783.663973l-.605318.004402h-37.079845l-.671566-.005918h-.015l-.288916-.00557c-.1763-.004005-.352309-.009234-.528035-.015568l-.263926-.010694c-.167532-.006766-.334792-.014876-.501786-.023985-.072316-.004513-.144294-.008661-.216249-.012996-1.469367-.087218-2.918214-.25251-4.342181-.4912l-12.684816-1.223941c-.044748 11.606648-.069658 22.635412-.074444 33.228115l-.000343 6.636426c.006705 18.835396.080374 36.641781.228029 53.736979-10.973484-22.236209-20.361446-63.138572-20.686506-122.676968.152249.203014.308028.40539.467366.604798-.173241-.639449-.331373-1.285129-.473996-1.93663-.010273-3.5141.010056-7.093468.063391-10.737183l-.142588-.002583.000207-27.107119-.869207-.000881.000566-51.656c0-1.977778.140038-3.922848.41074-5.825836l-.158008.239534c-2.160236 3.300518-3.416287 7.246268-3.416287 11.485385l-.000011 46.855917-.748 25.939-.076877-.000597c-.021523 1.470438-.037913 2.930501-.049253 4.380201l-.01922.681288.01423.0039c-.070859 10.51301.124354 20.478552.553514 29.899998l-.008515 2.411181c-.056752 13.384277-.089879 26.319972-.089879 38.895428v4.832855c.017472 48.153661.467148 91.116809 1.587261 133.958879l.114255 4.283991c.310686 11.423901.669612 22.851209 1.08129 34.378055 3.731065 104.468684 11.243301 183.779565 23.573852 229.717074 13.549727 50.479555 31.406161 77.499599 58.922651 90.552491 12.509767 5.93421 27.167115 9.135756 46.139992 10.499259 1.022243.073464 2.029241.141865 3.029837.205356l.856293.053222c6.841097.416217 13.499977.603648 22.827896.612054h2.211046c7.987129-.011859 17.910296-.150077 31.33342-.373391 12.818133-.213249 21.139617-.322309 29.464956-.354918l1.110463-.003897c1.111276-.003449 2.226177-.005561 3.35537-.006402l1.134352-.000419c3.619576 0 7.191204-.024115 10.715102-.072362v-5.000544c-3.52263.048599-7.094333.072906-10.715102.072906l-1.138128.00042c-1.888197.001404-3.736286.006349-5.593754.015137l-1.116003.005737-1.093876.006504c-7.312113.046368-15.065484.153181-26.206551.33853-13.938329.231885-24.082345.366007-32.192595.372243l-1.172552-.000004c-7.529875-.006004-13.297268-.129051-18.817449-.395067l-.847512-.042057c-.704976-.035993-1.407166-.074358-2.109762-.11515l-.843516-.050118c-1.266179-.076934-2.537816-.161801-3.83353-.254918-18.404796-1.322677-32.482975-4.397718-44.35545-10.029618-25.972149-12.320308-43.030788-38.133144-56.236538-87.331211-12.201142-45.455396-19.688266-124.50115-23.406098-228.599317-1.97707-55.357357-2.736164-108.430238-2.777985-169.888193 4.774472 28.776283 12.200067 49.252907 20.326901 61.636379.303443 28.548684.823828 55.237711 1.59602 81.620837l.11021 3.706856c.130522 4.322688.26786 8.63911.412165 12.956125l.1254 3.700605c.063557 1.850535.128402 3.701539.194546 5.553553 3.791093 106.149457 11.396454 181.88619 22.735081 224.128288 11.714459 43.642254 25.537267 64.9802 45.492088 74.446091 9.203943 4.366039 20.830007 6.973366 37.21728 8.151052 1.24543.089504 2.441842.169134 3.586129.23868l.816508.048532c.660696.038359 1.316329.074152 1.941812.106107l.818929.040659c5.207007.250924 10.674706.366154 17.854836.371885l1.541794-.000378c7.341301-.009169 16.545511-.12046 31.490603-.369094 11.932958-.198523 19.397495-.296411 26.420319-.340943l1.109983-.006594 1.124184-.005777c1.873848-.008866 3.748093-.013923 5.681003-.015359l1.145508-.000422c3.529115 0 7.008874-.023678 10.439203-.071003 11.152866-.153868 20.275899 8.84501 20.275899 19.998939v5.000544c0 10.938582-8.788836 19.847525-19.726393 19.997283-3.615299.049502-7.278177.074237-10.981322.074236l-1.126855.000415c-1.118487.000832-2.217502.002925-3.300064.006283l-1.102318.003867-1.303567.005722-.872463.004526c-6.993301.038525-14.440139.133728-26.273276.329428l-.761301.012629c-15.32325.254925-24.218085.36507-31.659523.376149h-2.235648c-9.574347-.008627-16.655293-.200615-24.050566-.650565l-.882121-.054844c-1.044611-.066284-2.106254-.138279-3.196939-.216662-21.594088-1.551879-38.476287-5.356317-53.278161-12.377825-33.896546-16.079374-54.81771-48.116148-69.667102-103.43761-12.460132-46.420266-20.334537-124.70001-24.244868-234.188103-.412149-11.540048-.773222-23.023787-1.086924-34.558679l-.114532-4.29448c-1.084768-41.490219-1.575829-84.142231-1.594093-134.481604l.000536-7.632557c.005536-14.53223.053932-30.126135.143811-47.781693.000226-.044327.000466-.091365.000722-.141323l.000816-.158837c.005913-1.148078.018874-3.610423.048236-9.180959l.000535-.101655c.025979-4.938081.041606-7.944682.048209-9.301152.00656-1.347625.104681-2.68617.300214-4.005944-.062444-.827347-.100899-1.661927-.114001-2.502443l-.005067-.650406v-72.442202c0-19.188807 13.24675-35.527231 31.427897-39.873393l.573103-.13269.288359-.092495c.23569-.073162.473454-.142206.71322-.207043l.361143-.094085 18.776384-4.708167c2.251669-.689637 4.585786-1.190637 6.983921-1.484571.0052.001412.009868.000838.014535.000265.22812-.029925.457366-.05599.687178-.080156.011515.000407.02185-.000681.032185-.001766.437046-.047229.877331-.086073 1.31956-.117903.056224-.003204.112233-.007148.168259-.010979.140906-.010352.282156-.019213.423598-.027357.099773-.0052.199734-.010635.299744-.015707.44353-.022777.88853-.038035 1.335274-.046148l.035274-.000563c.244691-.004265.484065-.006325.723921-.006325zm15.775017 193.020413c-.44242 18.238614-1.517488 31.324211-3.500215 41.19225-3.974189-6.630605-6.991367-14.485099-8.857259-23.212233l-3.136172-14.668484 14.668484-3.136172zm-15.775017-173.020413h-37.079845l-.538157.006762-.014513.000369-.01451.00038c-.181231.004806-.36189.011907-.541948.021277l.011283-.000584-.087721.004796-.375493.024144-.199507.015856-.412397.038061-.536574.062126-.532378.075524c-.336913.052209-.671179.112426-1.002597.180451-.044321.009096-.088982.018415-.13359.027875l.071536-.015037-.084.018-.029.006-.013.003-.089.019.067-.015-.070153.015682c-.093172.02046-.186112.041539-.278816.063232l.085969-.019914-.157.036-.025016.006629-.052984.012371.026-.007-.056.014-.041775.010852-.038225.009148.041-.01-.222671.056109-.182329.047891-.294.081-.155.044-.460571.139771c-.173722.05491-.346467.112018-.518204.171292l-.16099.056302c-8.148337 2.887179-13.984669 10.661833-13.984669 19.799635l.000644 76.194173c1.14718 3.035232 1.670035 6.255899 1.654121 9.524955-.003182.653803-.008428 1.684743-.01589 3.125111 2.672246 6.348267 8.374452 11.105621 15.295205 12.463363l.542885.099083.01752.002952.017525.002937.298222.047647.133202.018779.09326.014467-.04226-.007467.088.013.059.008.496723.062579.129277.013421.355.034.16805.015339.228565.017168.032385.001493.02572.002475.03028.001525.140385.009202.11706.00656.018555.000238.441.018.073.003.030383.001273-.013383-.000273.278988.005725.153158.001644 37.233265.000549c2.926571 0 5.71332-.598653 8.244453-1.680164-3.300273-2.097575-6.286924-4.82679-8.88498-8.093612l-2.133954-2.683641-.061779.001447c-.19734-.000031-.395226-.001778-.593741-.00516l-.15948-.004287-18.806574.000116c-.180657 0-.361298-.002448-.541872-.007342l-.541474-.022021c-2.330503-.126422-4.078976-.330555-6.26991-.954801-1.92555-.548632-3.691965-1.308262-5.311697-2.22999-.905649-.515372-1.719305-1.054206-2.478274-1.61853-.260043-.193353-.489848-.371761-.714679-.55169l-.05652-.046742-.528623-.426484c-2.663783-2.190758-4.923525-4.633679-6.679838-7.371814-2.633818-4.106189-3.950912-8.576859-4.541541-13.597029-.091254-.775627-.136998-1.555932-.136998-2.336908v-40.298172c0-.731703.040154-1.462855.120282-2.190157l.075781-.687853c.133228-1.209295.376522-2.403911.726854-3.568991.109162-.363033.208618-.682558.312079-.9964.088349-.268002.178828-.530164.28604-.82017.29051-.785824.57055-1.461093 1.076973-2.427586 2.328649-4.444155 4.829518-7.934535 8.472429-10.809085 3.735334-2.94748 7.821751-4.582878 12.876823-5.828915l.101898-.024834.404242-.097397c1.534143-.369631 3.106641-.556396 4.684684-.556396l3.319915.000191.617111-.018587c15.709598-.454451 27.651807-.789707 35.974922-1.008882-3.422747-6.954361-10.578889-11.739032-18.852552-11.739032zm34.38368 31.414834c-.46379.001888-.941883.011165-1.441167.011165l-.086599.000134c-.130261.000385-.28655.001596-.468869.003635-.059307.000664-.121192.001412-.185817.002248-.050123.000648-.101117.001338-.15371.002079-.072989.001027-.149727.002163-.229599.003399-.03997.000618-.081825.001278-.124508.001965-.136558.002198-.282012.004672-.435984.007417-.291591.005199-.614181.011377-.967403.018529-.322666.006533-.671198.013885-1.045334.022051-.148433.00324-.301371.006618-.458365.010125-.091284.00204-.184012.004124-.278112.006252-.171616.003881-.347916.00791-.528788.012084-.132898.003067-.268381.006216-.406338.009443-.354024.00828-.724436.017081-1.111142.0264-.103894.002503-.209817.005065-.316937.007665-.201197.004882-.406544.009898-.616106.015047-.130687.003211-.263404.006484-.397771.009809-.194981.004825-.392949.009749-.594372.014782-.400131.009999-.813667.020425-1.240822.031285l-.249057.006341-.251953.006434-.248018.006352-.16532.003525-.222501.006442.136922-.003523c-.272592.00701-.550228.01418-.832907.021511l-.196342.005096c-8.463661.219894-21.375478.581155-38.735453 1.083784h-3.590704l-.404243.097397c-2.520098.621186-4.278205 1.324786-5.27432 2.110801-.960847.758186-2.009556 2.221833-3.146125 4.390941-.032662.062335-.111868.302599-.237616.720792l-.075781.687853v40.298172c.266732 2.267135.771083 3.979079 1.513055 5.135831.553852.86347 1.47116 1.870739 2.819454 2.941215.193244.153426.72087.6183 1.595997.867643.338316.096394.962622.169281 1.87292.218662h19.025656c1.039226.034163 1.863268-.038724 2.472126-.218662.608858-.179937 1.37095-.575805 2.286275-1.187603l2.854421-1.921934c3.563325 4.499305 7.153445 9.022929 10.770359 13.570872 1.65272 2.078147 3.452214 3.557385 5.398482 4.437714l.336325.144996.160324.065389c.058241.02302.11661.045517.175107.067492.136722.051357.27401.099814.411997.145421.038427.012701.07707.025233.115768.037541.144847.046066.290041.088894.435996.128616l.0238.006448.023603.006337.14631.037999.081585.020237.02451.00552.081.019.058.013.043993.01091.023007.00409.08.017.054.012.012.002.073.015.012006.003328.052994.009672-.031-.006.085329.016982.176362.0315.048309.007518-.081076-.013143.125076.020143-.037-.006.04186.007551.02114.002449.011.002.031.005.067179.010683.399255.051686.402808.037192.051758.003439.026.001.012.001.010177.001508.024823.001492.037.002-.029-.002.053.003.041.002.362238.014714c.130175.002852.260887.00351.392137.001973l.24907-.005529.036563-.001249.291559-.013919c.109735-.006554.219838-.014606.330308-.024157l.278705-.027187c.05823-.006324.116562-.013059.174995-.020205l.066034-.008246.038391-.005195.029869-.003685.127131-.018315-.129292.018602.142202-.019632.12209-.01897.034339-.004416.129842-.020826.077819-.013758.097905-.01645.132095-.02455.016-.003.13492-.025942.02308-.005058.307011-.064762c.108687-.024291.217705-.049935.327055-.076931.1505-.03716.301137-.076745.452398-.118875.191538-.053348.384082-.110779.577627-.17229.138771-.044108.277748-.090206.417237-.138393l.088054-.030672.084618-.031077.102-.037.108668-.038458.090332-.034542-.015.005.094-.035-.071.027.10962-.04085c.265324-.101778.532463-.210959.801416-.327544.256305-.111103.514235-.228919.773806-.353453l.390587-.191842.159353-.080801.068218-.03651.344967-.179731c.266783-.142729.535254-.292344.805412-.448844.258796-.149916.519196-.306186.781144-.468775l.070477-.04465.07256-.044664.02044-.013336.028-.018.093-.059.021183-.012493.02319-.014773.030627-.020734.126-.08.009-.006.477906-.314164c.168525-.112951.337672-.228445.507443-.346479l.032296-.02248c.451135-.314367.906664-.646665 1.366587-.996894.167077-.127232.334309-.256496.502118-.388115l.12065-.095868.07807-.060882.11593-.093118-.071425.05777c.100781-.080144.201768-.161132.302963-.242963.300196-.242756.602212-.492935.906047-.750538l5.728546-10.832397c3.92339-.038506 7.585655-1.605014 10.986795-4.699526l3.710032-4.723048c2.837655-5.639848 2.077-12.739077-.184262-16.577555-1.835032-3.114955-5.36294-8.837266-9.018298-14.697863l-.610138-.977623-.305451-.488979-.626713-1.002364c-1.356557-2.16838-2.700441-4.308157-3.951965-6.29364-4.329278-6.868196-6.912292-7.454281-10.111772-7.474211zm-7.586466 15.104859c7.188474 6.980232 16.866158 21.363322 17.944219 24.907116l.036783.129327c.85334 3.24655-.102517 7.950892-4.170069 8.124014l-.23357.00492c-4.264408 0-13.680774-9.279487-18.422061-15.211461-.165154-.206628-.324914-.424592-.47915-.65255-.084807-.125331-.1676-.253143-.248721-.38373-.076897-.1239-.1519-.249554-.225392-.377492l.000335-14.553251c.059943.001237.121041.005221.183301.012018.291443-3.552837 2.039076-5.470589 5.614325-1.998911z" fill-rule="evenodd"/><path d="m470.699932 187.9946c.161632 0 .32324.003919.484682.011753l22.1561 1.075131.177908.010223c160.614327 10.665602 247.386256 16.343679 249.436067 16.343679 1.954066 0 3.519011.119688 5.030465.48999 1.771876.434104 3.37631 1.136884 4.980023 2.616527 3.170832 2.925524 4.211058 7.501407 2.535619 11.537985-2.117205 5.10091-7.968644 7.519681-13.069555 5.402476l-.165273-.071764-.01978-.000374c-8.551616-.398709-87.122115-5.544551-245.039497-16.029588l-4.937723-.328038-21.807-1.058h-16.989l-61.415038 3.797289c-5.418897.334963-10.09611-3.710849-10.576808-9.084854l-.021103-.279134c-.340739-5.512327 3.851661-10.257173 9.363988-10.597912l61.739137-3.816339c.205408-.012697.41116-.01905.616961-.01905z"/><path d="m497.879556 4.43587957c.579057.03102411 1.15737.07463657 1.73453.13080646l242.53228 23.60352237c9.455848.920254 18.275433 5.1761081 24.879786 12.0056362l7.992956 8.2654761c7.213322 7.4592608 11.245673 17.4297302 11.245673 27.8062706v828.3709487c0 19.435923-12.062017 34.136349-27.975022 40.127613-3.693038 1.390432-7.036285 2.157078-10.550767 2.670896-1.732968.25336-3.006525.383917-5.0749.563244-.886833.076887-1.143065.099226-1.337899.11811l-.087636.008656c-.029141.002928-.058901.00596-.091353.009282-2.738476.280361-11.260971.555984-45.657859 1.586941-11.117407.333216-24.102492.717255-41.962254 1.242039-2.942428.086459-11.675145.34269-21.053837.617895l-1.044473.030649c-.174435.005118-.349026.010242-.523741.015368l-1.049509.030797c-.525234.015413-1.050991.030841-1.57639.046258l-1.228164.036041c-8.791152.257976-17.28812.507361-21.332765.626266-1.946279.057224-1.946279.057224-3.892022.114458-78.755513 2.316923-122.81899 3.693426-126.237045 3.970151-.218384.017867-.355734.029206-.722118.059592-4.757638.395172-7.332437.589693-9.783573.653804l-.524101.011767c-1.047419.013034-2.099139.013034-3.317254-.004628-9.143865-.156797-17.49635-1.777936-26.08756-6.578612-2.632544-1.471039-4.912769-3.074884-6.937327-4.8l-.251478-.217986-.318865-.07279c-.470287-.108119-.951892-.218823-1.444785-.332106l-.02435-.006104-.113694.011234c-.171864.015851-.346348.032131-.523748.048861l-.531558.049905-.030314.005014c-.153549.023905-.391255.060945-.645055.100364l-.307931.047755c-.255788.0396-.500446.077276-.665915.10227-3.59688.54331-6.645856.867708-10.274677.934556-5.734613.105639-11.397951-.518482-17.324376-2.3775-9.206358-2.887876-17.589007-8.428034-23.808502-16.878344-6.004964-8.158831-8.266873-16.045152-9.461671-25.699741-.64152-5.183812-.891378-11.032547-.836396-17.815491l.006837-.620883-.000344-780.563429c0-19.6656652 2.656901-36.1896141 8.991957-50.109336l.33096-.7176659c8.887684-19.0210032 24.726758-32.2792598 45.217263-36.0457694l.341164-.0607997.309939-.0625334c25.80224-5.183004 42.433141-8.33210954 50.747904-9.58163175l.262542-.03923358c10.023012-1.48920479 20.041819-1.97232651 30.017437-1.4378627zm-2.140011 39.94271343c-7.280654-.3900757-14.613592-.0364705-21.998815 1.0608154-6.923647 1.0287056-21.955634 3.8576693-45.09596 8.4868909l-1.5547.3112819c-1.044476.2092992-2.104968.4221545-3.181476.6385659-14.832136 2.4225125-22.248204 18.2940341-22.248204 47.6145649v780.734062c-.132781 11.052408.702765 17.804055 2.506638 20.254943 3.592867 4.88156 12.80247 2.372048 16.378377 2.022351 1.991116-.194716 4.459627-.42318 7.134444-.597668.20209-.013184.734985-.042289 1.598685-.087318 12.401573 2.847785 19.572688 4.500745 21.513344 4.958882.328714.077601 1.912186 4.784335 3.874608 5.880916 3.953463 2.209153 10.372365 1.508257 17.660945.90953 11.137589-.901743 259.950134-7.75109 264.745939-8.242076 4.795806-.490986 9.191411-.363233 9.191411-3.705794v-828.3709487l-7.992956-8.265476z"/><path d="m467.238506 55.9325429c5.661406-9.8098969 15.387935-14.1370581 28.267041-13.2016597 7.640227.5549032 64.213967 5.8466909 121.848183 11.3032749l6.652085.6300771c50.99363 4.8322091 101.376253 9.6557685 118.007721 11.3056466.114812.0113896.255341.0250954.48324.0473554.23684.0233527.38005.0384028.556191.060437 2.271239.2841181 4.151189.694534 5.850367 1.3822745 1.461068.5913652 2.796564 1.3808913 4.023638 2.5638619 2.035974 1.9627986 3.337809 4.6741011 3.337809 7.7789056 0 5.5228475-4.477153 10-10 10-2.152975 0-4.147037-.6803832-5.778902-1.8378641l-.077652-.0559803-.015744-.0019941c-.090249-.0088133-.172133-.0168221-.246732-.0241617l-.106567-.0105245c-35.911121-3.5624619-231.54931-22.1455872-245.982404-23.1938504-5.69875-.4138954-7.961927.5929522-9.495977 3.2511026-2.20574 3.8220329-3.357576 11.2078187-3.357576 23.1549566l.00045 1.3274274c.014691 26.9089813.389313 309.9729943 1.123744 849.0933623.007524 5.522842-4.463525 10.013623-9.986368 10.013623-5.522842 0-10.006089-4.463535-10.013613-9.986377-.749519-550.195458-1.124213-833.64319-1.124213-850.4480357 0-15.209525 1.599472-25.4656394 6.035279-33.1518574z"/><path d="m749.805669 752.076911c5.522848 0 10 4.477153 10 10 0 3.987963-2.014429 7.08444-4.843673 9.039617-1.446217.999423-2.966655 1.621329-4.682863 2.081301-2.204157.59075-4.924562.936247-8.370747 1.130937-.148319.008379-.296805.013452-.44535.015216l-269.035686 3.193578-.118697.000705h-19.359117c-.181174 0-.362314-.004924-.543221-.014765l-58.702899-3.193579c-5.514693-.300013-9.742027-5.013763-9.442014-10.528456.300012-5.514692 5.013763-9.742026 10.528455-9.442013l58.42678 3.179459h19.057l268.714-3.19.116703-.0074c1.062867-.065267 1.952004-.146308 2.641219-.231316l.019078-.002284.051349-.039471c1.599986-1.198583 3.571007-1.928907 5.709779-1.987687z"/><path d="m471.346408 27.4549804c5.417194-1.0751077 10.680244 2.4448485 11.755352 7.8620423 1.075107 5.4171937-2.444849 10.6802439-7.862042 11.7553516-2.735731.5429389-6.371984 4.3227908-9.450791 11.2183343-3.607006 8.0785408-5.710355 18.8578057-5.710355 30.090034v826.8829344c0 5.522848-4.477152 10-10 10-5.522847 0-10-4.477152-10-10v-826.8829344c0-30.267784 11.979365-57.0977315 31.267836-60.9257622z"/><path d="m693.310206 169.806565c12.371681-.426492 21.933939-13.973161 21.3579-30.257332-.576038-16.284171-11.072238-29.13936-23.443919-28.712868s-21.933939 13.973161-21.357901 30.257332 11.072239 29.13936 23.44392 28.712868z" fill-rule="evenodd"/><path d="m388.50999 616.284202 64.511851.000261 308.072963 2.227586c5.522703.039933 9.967366 4.54934 9.9277 10.072043-.0402 5.522704-4.549607 9.967367-10.07231 9.927434l-308.000658-2.227324h-64.439546c-5.522848 0-10-4.477152-10-10 0-5.522847 4.477152-10 10-10z"/><path d="m455.768398 473.763585.301268.001917 309.32519 6.628858c5.52158.118328 9.901781 4.690377 9.785795 10.211956-.12067 5.52158-4.692718 9.901781-10.214298 9.783454l-309.020461-6.622564-72.071795 2.800005c-5.425147.210766-10.008472-3.941107-10.365962-9.324712l-.014705-.279544c-.2144-5.518685 4.085572-10.166268 9.604256-10.380668l72.369523-2.811543c.200721-.007538.401631-.009546.602457-.005242z"/><path d="m456.337934 333.284895.337402.008468 308.924835 12.972865c5.517984.23172 9.803348 4.892776 9.571628 10.41076-.23172 5.517985-4.892776 9.803348-10.410761 9.571628l-308.421293-12.952059-75.597511 4.487562c-5.419702.321676-10.086982-3.735591-10.554502-9.110758l-.020419-.279186c-.327223-5.513145 3.876798-10.247698 9.389944-10.574921l76.106025-4.517129c.336987-.020002.674771-.022926 1.012054-.008762z"/><path d="m142.091139 315.036529.344495.002136.360479.004335-.576 19.994-.077197-.000478c-.021271 1.453186-.037528 2.896241-.048852 4.329173l-.019621.732316.014219.005579c-.625256 92.801706 19.482434 142.943447 38.224932 152.742947 27.547151 14.403006 48.550344 1.227234 59.239985-34.822121 4.496034-15.162261 6.836233-43.932093 6.644318-86.394737-.001305-.288789-5.98844 5.201052-5.986107 5.680951.010147 2.0865.016478 4.126065.018807 6.119996l.000863 2.370897c-.016761 36.411975-1.443414 57.217028-5.471569 70.801431-9.885703 33.338182-27.762762 44.552861-52.129601 31.812678-16.464561-8.608482-36.857432-59.743163-35.487909-153.30593l-.143268-.002702v-20.002l.435986.006844c11.044512.161664 17.866803 9.246064 17.70514 20.290576-.611323 41.764204 5.226429 76.880922 12.350612 102.944843 2.968416 10.859992 6.385621 19.618065 9.881468 25.824137 1.417032 2.515613 2.759427 4.45045 3.919473 5.759765.346469.39105.637848.682243.858873.875813l.047899.040622.066357.034968c5.950088 3.053168 9.06529 3.212069 11.255187 1.946377l.132935-.079259c3.844938-2.363168 8.266212-9.469889 11.932096-21.832582 3.211799-10.831353 4.62447-29.515393 4.645595-65.166663l-.000564-2.323714c-.002072-1.956196-.008141-3.962004-.018143-6.018838-.016982-3.491955.725836-6.080089 1.850187-8.521815.48121-1.045031.975334-1.903591 1.50498-2.709145.530528-.806894 1.026505-1.453799 1.559568-2.091155.531449-.635427 1.066278-1.216215 1.671669-1.839585.793239-.816796 1.747976-1.742429 2.761447-2.687977.938849-.875927 1.888721-1.731508 2.680919-2.410993.580737-.49811 1.099436-.924133 1.665814-1.350779.758502-.571372 1.461428-1.05445 2.492394-1.628643 1.858647-1.035167 3.618934-1.787829 6.429337-2.265649 2.031876-.295309 2.031876-.295309 5.085274-.208816 3.73929.505881 13.066225-5.054165 16.091692 0 1.737536 4.846528 2.01198 16.232805 2.192385 19.845955.197678 43.737728-2.192519 74.375546-7.469362 92.170979-6.632809 22.368241-17.202733 38.83404-32.206552 47.808656-16.598853 9.928695-36.07744 9.193218-55.474966-.948763-31.701225-16.57496-49.262141-82.887766-47.901754-175.826355.158295-10.814418 7.87142-19.498243 18.602909-19.703607z"/></g></svg>