<?xml version="1.0" encoding="UTF-8"?>
<svg width="960px" height="960px" viewBox="0 0 960 960" version="1.1" xmlns="http://www.w3.org/2000/svg" xmlns:xlink="http://www.w3.org/1999/xlink">
    <title>com.blueriiot/drivers/blue-connect/assets/icon</title>
    <g id="com.blueriiot/drivers/blue-connect/assets/icon" stroke="none" stroke-width="1" fill="none" fill-rule="evenodd">
        <path d="M577.194186,3.9200182 C602.481573,4.05108617 627.669809,10.3759927 652.527592,23.6617372 C666.715456,31.2447277 678.129531,38.4199147 688.665519,46.8714704 C701.871104,57.4644715 712.877539,69.5430672 721.713228,83.7780791 C740.975037,114.810414 748.663094,154.131696 745.188573,204.652362 C744.097481,220.51719 742.221339,237.745097 739.593275,256.078474 L739.593275,256.078474 L739.464,256.969 L740.143097,257.986241 C740.734401,258.881034 741.307078,259.77042 741.861351,260.654114 L741.861351,260.654114 L742.173,261.155 L746.188019,262.615683 L751.200043,264.451963 L754.627971,265.71993 L758.818511,267.290968 L762.186879,268.582781 L763.792909,269.21619 C774.052335,273.325262 783.116475,278.311233 791.740185,286.247709 C808.467836,301.642311 816.589252,323.702166 809.496481,347.848252 L809.496481,347.848252 L809.37397,348.270995 L808.845547,350.16979 L807.903794,353.680703 L804.940383,364.983015 L804.652774,366.008549 C802.579039,373.271687 800.410247,378.84253 796.671266,384.747733 C789.932553,395.3906 779.735866,403.243877 766.849765,406.418496 C765.527099,406.744348 764.289476,407.007234 763.030918,407.231589 L763.030918,407.231589 L762.081418,407.393013 C761.60305,407.470494 761.118011,407.543416 760.620714,407.613066 L760.620714,407.613066 L759.608119,407.748389 L758.552899,407.877279 L757.445118,408.002029 L755.663162,408.1864 L750.531258,408.687835 L747.324242,409.011475 L744.774933,409.286843 L743.159409,409.479935 L742.547617,409.559544 L741.61666,409.690664 L740.776275,409.822688 L739.854391,409.986944 L738.98873,410.16293 L738.317181,410.314185 C738.188934,410.344211 738.060133,410.374985 737.930156,410.406592 L737.930156,410.406592 L737.131192,410.606939 C736.856843,410.677523 736.572806,410.752143 736.274098,410.831499 L736.274098,410.831499 L735.870928,410.941013 C734.417638,411.344672 733.239823,411.770613 732.354184,412.188238 L732.354184,412.188238 L732.211972,412.256239 L731.870385,412.428738 L731.661,412.543 L731.597562,412.668782 L731.411765,413.054943 L731.188739,413.553524 L730.839617,414.377297 L729.025722,418.849427 L728.470347,420.197493 C728.37887,420.417261 728.287884,420.634654 728.197311,420.849789 L728.197311,420.849789 L727.658201,422.114457 C725.24889,427.692093 723.026917,431.796785 719.458269,436.759949 C713.09085,445.615559 704.759446,452.767066 694.347178,458.156799 L694.347178,458.156799 L691.73,459.512 L691.392086,460.593124 C677.069119,506.189665 660.46703,551.956096 641.921365,596.57074 L641.921365,596.57074 L640.526801,599.914658 C640.037057,601.085155 639.550577,602.24764 639.067338,603.402167 L639.067338,603.402167 L632.059042,620.129931 L626.791073,632.679812 L620.615179,647.360707 L615.99112,658.32548 L611.639114,668.619393 L607.550463,678.263142 L603.716473,687.277423 L600.128447,695.682934 L595.976056,705.365269 L593.655507,710.75043 L590.753202,717.453808 L588.062077,723.631202 L585.573439,729.303308 L583.834611,733.238242 L582.201121,736.909326 L580.669302,740.325289 L579.70276,742.465177 L578.332238,745.475344 L577.053604,748.253674 L576.250418,749.981409 L575.485353,751.612573 L574.757322,753.149753 L573.732339,755.284964 L573.092139,756.598503 L572.485169,757.827115 L571.910342,758.973384 L571.366571,760.039899 L570.85277,761.029246 L570.36785,761.944013 L569.910726,762.786786 L569.48031,763.560153 L569.075515,764.266701 L568.882386,764.595726 C566.810271,768.095661 564.314044,771.79559 561.605415,775.162411 C560.702083,776.28525 559.77879,777.370105 558.815567,778.423987 L558.815567,778.423987 L558.4,778.871 L556.460316,783.031546 L549.57203,797.73032 L544.369045,808.779127 L532.156262,834.586776 L526.510037,846.466067 L519.565294,861.032086 L509.269459,882.515707 L502.086085,897.39268 L496.909225,908.017562 L494.252175,913.416032 L491.977812,917.983509 L491.31527,919.299692 L490.122385,921.643966 L489.247274,923.331037 L488.614051,924.525155 L488.173006,925.338829 L487.757326,926.088588 L487.363714,926.780099 C481.288311,937.298623 472.073584,944.899337 461.044628,949.77858 C452.700599,953.470003 443.386122,955.586597 432.999686,956.488819 C431.98601,956.576872 430.984872,956.627035 429.996471,956.641353 L429.257561,956.645402 C428.766551,956.643664 428.278738,956.633092 427.794145,956.613942 L427.794145,956.613942 L427.596,956.604 L427.058484,956.673781 C425.676543,956.843229 424.251366,956.947884 422.780415,956.982217 L422.780415,956.982217 L422.147197,956.992609 L422.147197,956.992609 L421.132318,956.999098 L421.132318,956.999098 L420.109329,956.999321 C411.208239,956.974119 401.391699,956.243532 390.612783,954.820188 C388.095221,954.487746 385.737013,953.969416 383.520311,953.289507 L383.520311,953.289507 L383.358,953.238 L382.838877,953.23574 C380.921515,953.209554 378.966495,953.047205 376.978198,952.734658 L376.978198,952.734658 L376.314206,952.624893 C366.920538,950.995774 356.841175,948.906176 346.069189,946.349871 C343.024827,945.627413 340.174571,944.591901 337.531696,943.293289 L337.531696,943.293289 L337.071,943.063 L336.686744,943.034219 C333.686321,942.785057 330.668778,942.206177 327.676974,941.269708 L327.676974,941.269708 L327.036283,941.063553 C315.127759,937.127025 304.427403,932.270851 294.921614,926.519123 C292.508539,925.059028 290.281811,923.384232 288.258396,921.528139 L288.258396,921.528139 L288.105,921.385 L287.501587,921.074303 C285.374374,919.948502 283.218693,918.540225 280.987069,916.758406 L280.987069,916.758406 L280.502345,916.366466 C265.756412,904.293735 255.468035,889.860513 249.391136,874.116619 C244.82587,862.289031 243,850.879481 243,840.108669 L243,840.108669 L243,839.883304 L243.007674,839.192567 L243.030912,838.234981 L243.058749,837.48706 L243.095658,836.7117 L243.141776,835.907143 L243.217828,834.785942 L243.336748,833.300699 L243.451362,832.040429 L243.58364,830.711576 L243.815883,828.580582 L244.089686,826.271824 L244.29585,824.626946 L244.580704,822.4446 L245.100702,818.641876 L245.543924,815.521337 L246.478914,809.151868 L247.581625,801.847659 L257.044163,741.141665 L258.185393,733.675736 L259.215173,726.856417 L259.990658,721.658051 L260.732217,716.626899 L261.612148,710.566053 L262.279031,705.894211 L263.067049,700.267859 L263.805244,694.870237 L264.365,690.675 L264.307943,690.379085 C263.418446,685.659604 263.035338,680.715338 263.002348,675.433532 L263.002348,675.433532 L263.000762,674.437008 L263.006868,673.942698 C263.008395,673.858635 263.010179,673.773727 263.012218,673.687967 L263.012218,673.687967 L263.037503,672.892908 L263.092887,671.759072 L263.1508,670.851745 L263.222851,669.894206 L263.278786,669.22733 L263.409742,667.82346 L263.524768,666.707737 L263.700724,665.133952 L263.902699,663.458972 L264.130912,661.679814 L264.385585,659.793496 L264.666939,657.797035 L264.895595,656.225615 L265.310569,653.461757 L265.864968,649.898993 L266.481633,646.058211 L267.280765,641.212486 L268.034893,636.734801 L269.435749,628.578373 L271.447479,617.085157 L272.99468,608.375832 L274.547659,599.733224 C274.759211,598.561754 274.971825,597.386672 275.185358,596.208686 L275.185358,596.208686 L276.476451,589.111601 L277.782802,581.978854 C278.00142,580.788981 278.220391,579.599039 278.439572,578.409738 L278.439572,578.409738 L279.756052,571.287284 L282.627406,555.903546 L282.841978,554.686623 L283.854987,549.036119 L285.334666,540.967825 L286.264901,535.97905 L287.056928,531.775024 L287.873907,527.477924 L289.001632,521.608164 L290.17277,515.583712 L291.696921,507.844989 L292.963765,501.494985 L293.612844,498.269091 C302.345385,454.991336 312.052323,411.692467 322.507341,371.136598 C324.091289,364.992335 325.682736,358.951163 327.281357,353.018581 L327.281357,353.018581 L327.437,352.441 L326.995335,351.501559 C321.131271,338.829231 318.111178,324.967085 318.003013,310.305467 L318.003013,310.305467 L318,309.487902 C318,281.377735 336.366818,219.771029 350.753859,197.608696 C360.527679,182.552741 377.707875,168.148619 398.783146,157.652779 L398.783146,157.652779 L399.046,157.522 L400.002345,155.487714 L401.397691,152.539711 C402.095019,151.072842 402.791822,149.616693 403.488071,148.171367 L403.488071,148.171367 L404.879818,145.295176 C405.111649,144.818226 405.343417,144.342486 405.575119,143.86796 L405.575119,143.86796 L406.964544,141.0354 C407.195981,140.565744 407.427351,140.09731 407.658653,139.630101 L407.658653,139.630101 L409.045632,136.841581 L410.430912,134.082647 C410.661647,133.625301 410.89231,133.169195 411.122898,132.714332 L411.122898,132.714332 L412.505528,130.000119 L413.886323,127.315947 L415.265229,124.661996 C415.494886,124.222199 415.724462,123.78367 415.953956,123.346411 L415.953956,123.346411 L417.329925,120.738133 L418.703868,118.160532 L420.075731,115.613788 C420.304199,115.191912 420.532577,114.771329 420.760866,114.352044 L420.760866,114.352044 L422.129506,111.851926 C423.0412,110.195597 423.951416,108.560143 424.860082,106.945805 L424.860082,106.945805 L426.221909,104.540165 C427.582555,102.150423 428.93963,99.8084637 430.29289,97.515105 L430.29289,97.515105 L431.644868,95.2379767 C431.869983,94.8611654 432.09499,94.4857117 432.319887,94.1116194 L432.319887,94.1116194 L433.667947,91.8834317 C433.892402,91.5147999 434.116745,91.147537 434.340976,90.7816468 L434.340976,90.7816468 L435.684996,88.6028082 C435.90877,88.2424239 436.13243,87.8834199 436.355973,87.5257999 L436.355973,87.5257999 L437.69583,85.3967187 C438.365051,84.3405126 439.033207,83.296831 439.700265,82.2657759 L439.700265,82.2657759 L440.34511,81.2724668 L441.490787,79.5239982 L442.635008,77.7984331 L443.777925,76.0958009 C443.96831,75.8139416 444.158648,75.533039 444.348941,75.2530938 L444.348941,75.2530938 L445.490182,73.5849162 C446.060559,72.7565766 446.630587,71.9368644 447.200352,71.1257962 L447.200352,71.1257962 L448.339556,69.5151899 C448.529373,69.2486781 448.719168,68.9831279 448.908942,68.71854 L448.908942,68.71854 L450.047376,67.1425649 C450.6165,66.3603559 451.185501,65.5868185 451.754465,64.8219692 L451.754465,64.8219692 L452.892369,63.3038597 C454.978529,60.5419146 457.06495,57.8969247 459.155814,55.369706 L459.155814,55.369706 L460.29675,54.0029078 C472.471978,39.5484157 484.823322,29.0856458 498.174178,22.7752924 C523.932558,10.6004564 549.838369,4.0436265 575.645856,3.91972618 Z M350.964437,667.415769 C349.449676,667.400192 347.968133,667.403301 346.519725,667.424938 L346.519725,667.424938 L345.082358,667.452746 L343.667064,667.492869 C343.198976,667.508293 342.734563,667.525763 342.273823,667.545274 L342.273823,667.545274 L340.902616,667.609925 C339.76912,667.668894 338.658558,667.740582 337.570882,667.824898 L337.570882,667.824898 L336.276652,667.932133 C321.104461,669.271521 311.776128,672.97133 307.315365,677.927021 L307.315365,677.927021 L307.219,678.035 L307.035016,679.504603 L306.59556,682.911234 L306.248709,685.533161 L305.763055,689.120405 L305.51023,690.9539 L304.984448,694.702244 L304.289193,699.543543 L303.551287,704.562732 L302.770305,709.76485 L302.11422,714.061638 L301.430076,718.481306 L300.898424,721.878248 L299.787037,728.888197 L299.010201,733.725038 L297.422006,743.482452 L296.115022,751.40683 L293.488,767.095726 L289.251811,794.115204 L287.771958,803.651222 L287.084887,808.13616 L286.231975,813.786727 L285.644507,817.756988 L285.279795,820.26752 L284.937918,822.663497 L284.619979,824.940199 L284.327082,827.092907 L284.060331,829.1169 L283.820829,831.007457 L283.60968,832.759858 L283.427987,834.369384 C283.150327,836.930242 283,838.876116 283,840.108669 L283,840.108669 L283,840.644268 L283.011939,841.205724 L283.038917,842.094922 L283.066928,842.718086 L283.103855,843.364759 L283.150469,844.034271 L283.207538,844.72595 L283.275831,845.439126 C283.288192,845.559743 283.301052,845.681228 283.314427,845.803566 L283.314427,845.803566 L283.400999,846.54773 L283.500717,847.311714 C283.518475,847.440659 283.536812,847.570402 283.555746,847.700929 L283.555746,847.700929 L283.676626,848.493385 C283.891241,849.834476 284.169117,851.251732 284.526457,852.731021 C284.827609,853.615164 285.163484,854.506282 285.53485,855.403821 C288.513446,862.602669 293.482499,869.399036 300.941071,875.59021 L300.941071,875.59021 L300.988,875.629 L302.556041,875.574759 L303.532766,875.547924 L303.94815,875.540992 L304.519904,875.538634 L305.072627,875.545854 L305.764709,875.568475 C306.426337,875.59897 307.051222,875.656157 307.683219,875.755127 C309.36337,876.018235 310.860285,876.483389 312.511775,877.618769 C315.403166,879.606566 317.115528,882.607274 317.489377,885.882442 L317.489377,885.882442 L317.516,886.156 L318.252701,886.51713 C322.66846,888.657788 327.504556,890.628448 332.778065,892.415234 L332.778065,892.415234 L333.705,892.726 L333.964977,892.578965 C338.369292,890.103162 342.612527,889.07184 347.893015,890.304711 L347.893015,890.304711 L348.335483,890.412709 C353.459163,891.717172 357.158965,894.874793 359.069449,899.123215 L359.069449,899.123215 L359.111,899.219 L360.766173,899.566945 C367.120557,900.891502 373.175593,902.045726 378.929729,903.031929 L378.929729,903.031929 L379.284,903.091 L379.617439,902.821455 C379.970423,902.541296 380.297267,902.302664 380.689539,902.037503 L380.689539,902.037503 L381.154357,901.73149 C383.5505,900.201212 386.107284,899.343337 389.407748,899.828244 C392.272783,900.249176 394.549527,901.5147 396.538344,903.297038 C397.39117,904.061323 397.982394,904.698014 398.821064,905.701498 L398.821064,905.701498 L399.016,905.936 L400.631421,906.117277 C407.787071,906.8926 414.25202,907.313812 420.014255,907.394769 L420.014255,907.394769 L420.312,907.398 L420.480595,907.270388 C420.698295,907.109445 420.923405,906.953106 421.161847,906.798604 L421.161847,906.798604 L421.530249,906.567882 C423.151721,905.586002 424.978862,904.939538 427.106487,904.846721 C429.283315,904.751756 431.165103,905.258816 432.879811,906.117193 C433.269234,906.312137 433.62513,906.511505 433.966855,906.722465 L433.966855,906.722465 L434.04,906.769 L434.594383,906.701645 C437.40717,906.341372 439.849468,905.852107 441.913288,905.254449 L432.86164,905.254246 C427.338792,905.254246 422.86164,900.777093 422.86164,895.254246 C422.86164,889.825006 427.188311,885.406314 432.581735,885.258088 L432.86164,885.254246 L438.859,885.254 L470.715494,818.36747 C473.090261,813.381256 479.057514,811.26426 484.043728,813.639026 C487.610809,815.337907 489.709479,818.875353 489.745689,822.576897 L492.641054,816.905059 L500.539186,801.393417 L507.064254,788.536313 L513.196032,776.41304 L517.891034,767.095728 L521.309459,760.285828 L523.64553,755.614642 L525.764367,751.360661 L528.217311,746.405008 L529.752198,743.27601 L531.00379,740.694078 L531.671011,739.295953 L532.037,738.516 L532.003283,738.41515 C531.620086,737.317639 530.927107,735.885418 529.934171,734.241398 L529.934171,734.241398 L529.716811,733.885911 C526.434082,728.581342 520.955294,722.446777 513.640387,716.316642 C503.936944,708.184834 491.915905,700.709174 477.659015,694.228666 L477.659015,694.228666 L475.937462,693.455803 C462.079259,687.311463 446.16351,682.096752 428.262536,678.111597 C427.861894,678.022405 427.462205,677.93379 427.063469,677.845752 L427.063469,677.845752 L424.682479,677.324432 L422.324334,676.816909 C421.933213,676.73347 421.543042,676.650604 421.153823,676.568311 L421.153823,676.568311 L418.82991,676.081417 L416.528795,675.608233 L414.25046,675.148723 L411.994887,674.70285 L409.762058,674.270582 L407.551953,673.851881 L405.364554,673.446713 L403.199844,673.055042 L401.057803,672.676833 C400.702684,672.614918 400.34851,672.553563 399.995278,672.492766 L399.995278,672.492766 L397.887207,672.134685 L395.80176,671.789978 C395.45607,671.733639 395.111321,671.677856 394.767514,671.622629 L394.767514,671.622629 L392.715968,671.297917 C392.375926,671.244906 392.036824,671.192449 391.698663,671.140545 L391.698663,671.140545 L389.680976,670.835749 L387.685839,670.544185 L385.713234,670.26582 C385.386343,670.220523 385.06039,670.175775 384.735375,670.131575 L384.735375,670.131575 L382.796533,669.87294 L380.880176,669.627415 L378.986287,669.394965 C378.67251,669.35731 378.359668,669.320199 378.047762,669.283631 L378.047762,669.283631 L376.187539,669.070726 L374.349737,668.870807 L372.534338,668.68384 L370.741323,668.509788 C370.444352,668.481854 370.148312,668.454456 369.853205,668.427594 L369.853205,668.427594 L368.093732,668.27285 L366.356598,668.130934 L364.641784,668.00181 L362.949272,667.885443 L361.279043,667.781798 L359.631079,667.69084 L358.005361,667.612533 L356.401871,667.546842 C356.136474,667.536943 355.872002,667.527568 355.608456,667.518717 L355.608456,667.518717 L354.038273,667.471885 L352.490273,667.43758 Z M456.516979,792.370793 C461.545257,794.414207 464.009943,800.083337 462.119879,805.134601 L462.016371,805.399864 L432.913357,877.014357 C431.908313,879.487492 429.958151,881.451837 427.502863,882.477131 L427.205832,882.595631 L416.527847,886.659188 C411.366131,888.623503 405.589342,886.031498 403.625027,880.869782 C401.694579,875.797061 404.164692,870.130294 409.149749,868.071941 L409.414433,867.966962 L416.023,865.451 L443.487908,797.870185 C445.567172,792.753691 451.400485,790.29153 456.516979,792.370793 Z M412.061129,772.783177 C417.227226,774.44768 420.105958,779.918203 418.596087,785.095838 L418.512557,785.368052 L395.630706,856.386166 C395.538399,856.672659 395.433228,856.954764 395.315532,857.231629 L395.129639,857.642889 L390.47206,867.356848 C388.084286,872.336846 382.111527,874.43826 377.131529,872.050486 C372.237393,869.703881 370.123436,863.894844 372.318381,858.968403 L372.437891,858.709955 L376.802,849.605 L399.476254,779.234605 C401.169959,773.977875 406.804399,771.089472 412.061129,772.783177 Z M362.389449,759.360997 C367.752408,760.680284 371.030451,766.097314 369.711164,771.460273 L365.62279,788.150873 L363.282832,797.784779 L360.138845,810.870636 L358.121773,819.399493 L356.742916,825.329767 L355.828935,829.332266 L355.149919,832.363338 L354.479836,835.431675 L354.232993,836.59198 L353.852336,838.433429 L353.597077,839.726997 L353.400495,840.788245 L353.278761,841.512553 L353.248,841.715 L353.250412,841.815376 C353.257354,842.062352 353.269734,842.32658 353.287598,842.607782 L353.330651,843.192733 C353.339049,843.293969 353.34806,843.39707 353.357686,843.502026 L353.422824,844.153936 C353.434914,844.26627 353.447621,844.380438 353.460948,844.496429 L353.548354,845.214178 L353.650706,845.975197 L353.768086,846.778988 L353.900573,847.625053 L354.04825,848.512895 C354.074133,848.664322 354.100652,848.817469 354.127809,848.972326 L354.29842,849.921899 L354.484422,850.912003 L354.579193,851.401504 C355.638441,856.821821 352.103097,862.074546 346.68278,863.133795 C341.262462,864.193043 336.009737,860.657698 334.950489,855.237381 L334.822889,854.577357 L334.582303,853.28922 L334.361275,852.043174 L334.159894,850.838667 C334.127972,850.641347 334.096873,850.445734 334.066599,850.251819 L333.894856,849.10859 L333.742983,848.005525 C333.411866,845.478138 333.243754,843.274267 333.243754,841.362458 L333.249877,841.09393 L333.268304,840.782151 L333.299119,840.426698 L333.342408,840.02715 L333.430916,839.344227 L333.547969,838.559716 L333.693854,837.672193 L333.868858,836.680233 L334.147991,835.192703 L334.57146,833.063497 L334.865815,831.639552 L335.305868,829.56718 L335.800925,827.293109 L336.351665,824.813963 L337.283671,820.703346 L338.344796,816.112323 L339.964454,809.223969 L341.577587,802.458222 L343.649987,793.85775 L347.227716,779.163696 L350.290173,766.682713 C351.60946,761.319754 357.02649,758.04171 362.389449,759.360997 Z M318.783056,756.360848 C324.218727,757.338255 327.832865,762.537082 326.855458,767.972753 L320.288635,804.69935 L317.844899,818.555228 L315.975744,829.337859 L315.298755,833.336681 L314.759643,836.613524 L314.569845,837.811577 L314.531,838.062 L314.600041,838.208256 C314.899312,838.823629 315.277977,839.527488 315.705033,840.254281 L315.92245,840.619286 L316.255873,841.160128 L316.591991,841.683912 L316.927652,842.187338 L317.259706,842.66711 C317.314573,842.744917 317.369158,842.821602 317.423396,842.897095 L317.744132,843.335204 L318.053384,843.741416 C318.103794,843.806276 318.153594,843.869671 318.202719,843.93153 L318.488838,844.283714 L318.755597,844.595759 C319.011625,844.886634 319.233886,845.112355 319.408202,845.258083 L319.491299,845.324212 C323.906943,848.64143 324.797393,854.910153 321.480175,859.325797 C318.162957,863.74144 311.894234,864.631891 307.47859,861.314673 C301.451035,856.786519 294.33362,844.998039 294.33362,838.926043 L294.337898,838.755611 L294.350802,838.541618 L294.386563,838.137542 L294.465414,837.440306 L294.580658,836.557244 L294.823599,834.872972 L295.21669,832.341741 L295.495971,830.61151 L296.274809,825.932442 L297.26976,820.117237 L299.107824,809.592905 L301.646902,795.268611 L305.820852,771.947494 L307.171152,764.433251 C308.148558,758.997579 313.347385,755.383442 318.783056,756.360848 Z M458.060476,299.709992 L455.12619,299.719118 L453.200869,299.735314 L451.300184,299.759571 L449.424082,299.791864 L447.572511,299.832166 L445.745418,299.880454 L443.942751,299.9367 L442.164458,300.00088 L440.410487,300.072969 L438.680785,300.152941 L436.9753,300.240771 L435.29398,300.336433 L433.636772,300.439902 C433.362577,300.457796 433.089385,300.476014 432.817194,300.494556 L432.817194,300.494556 L431.196056,300.609688 C430.927867,300.629523 430.660676,300.64968 430.394484,300.670159 L430.394484,300.670159 L428.809299,300.796897 C428.547095,300.818663 428.285887,300.84075 428.025674,300.863157 L428.025674,300.863157 L426.476325,301.001444 L424.950801,301.147398 L423.449049,301.300995 C423.200735,301.327229 422.953409,301.353782 422.707071,301.380651 L422.707071,301.380651 L421.24088,301.545663 L421.24088,301.545663 L420.516653,301.631012 L419.085905,301.807383 L417.67872,301.991294 L416.295046,302.18272 L414.934832,302.381636 C414.710081,302.415412 414.486306,302.449498 414.263505,302.483895 L414.263505,302.483895 L412.93838,302.693999 C412.500563,302.765273 412.066633,302.837784 411.636583,302.911529 L411.636583,302.911529 L410.358062,303.13646 C409.513462,303.288876 408.684343,303.446209 407.870638,303.608425 L407.870638,303.608425 L406.66163,303.855407 C406.062898,303.980725 405.472815,304.108781 404.891353,304.239559 L404.891353,304.239559 L403.739913,304.504743 L402.61141,304.777163 L401.50579,305.056794 L400.423002,305.34361 C400.065872,305.440411 399.712538,305.538404 399.362992,305.637587 L399.362992,305.637587 L398.32571,305.938698 C397.812741,306.091033 397.308276,306.246034 396.812284,306.403687 L396.812284,306.403687 L395.831589,306.722524 C395.67002,306.776252 395.50939,306.830273 395.349699,306.884587 L395.349699,306.884587 L394.4028,307.213983 C393.934971,307.380435 393.475567,307.549516 393.024557,307.72121 C382.315335,311.798086 377.36396,316.761829 375.997168,322.913237 C375.93495,323.193256 375.873132,323.471888 375.811715,323.749131 L375.811715,323.749131 L375.09391,327.009368 L374.250706,330.896941 L373.467599,334.575607 L372.74463,338.045017 L372.081842,341.304822 L371.594971,343.761517 L371.146665,346.083664 L370.835756,347.73687 L370.454991,349.823128 L370.194763,351.299212 C369.855059,353.258299 369.018196,354.913483 367.865519,356.21787 C358.984259,388.543383 350.989376,421.938436 344.256061,452.215167 L344.256061,452.215167 L342.999848,457.893534 C342.793008,458.833405 342.587442,459.769927 342.38316,460.70297 L342.38316,460.70297 L341.172973,466.25843 C340.973875,467.177034 340.776085,468.091897 340.579614,469.00289 L340.579614,469.00289 L339.416718,474.421351 C339.225573,475.316338 339.03577,476.207193 338.847322,477.093787 L338.847322,477.093787 L337.732983,482.361155 L336.651717,487.519965 L335.604088,492.563954 L334.590656,497.486858 L333.611984,502.282413 L332.668635,506.944356 L331.76117,511.466424 L330.890152,515.842352 L330.056142,520.065877 L328.875749,526.101708 L328.136721,529.916823 L327.436669,533.557612 L326.460902,538.678235 L325.575994,543.371393 L324.783842,547.615947 L323.674866,553.635889 L322.982895,557.446589 L322.013335,562.887974 L319.782802,574.824871 L315.836896,596.237186 L313.227749,610.633209 L311.357724,621.103209 L310.099716,628.239726 L308.244768,638.948487 L306.857893,647.163329 L305.891982,653.047953 L305.573206,655.016047 C328.843148,643.927989 370.64086,644.794116 432.608587,658.589511 C472.940702,667.568337 504.543629,682.598813 526.486544,700.987707 C527.225644,701.607096 527.952311,702.229394 528.666073,702.854067 L528.666073,702.854067 L529.726979,703.792792 C530.953273,704.889894 532.139323,705.993458 533.282596,707.10063 L533.282596,707.10063 L534.252009,708.050453 C538.699159,712.459359 542.458785,716.912436 545.371761,721.230522 L545.836798,720.187284 L547.507252,716.41444 L548.710343,713.683188 L550.655219,709.246971 L552.775644,704.385182 L555.890083,697.205086 L559.350516,689.182713 L563.176315,680.269088 L566.297091,672.969524 L569.642456,665.120422 L574.466432,653.764406 L578.367624,644.552699 L582.520651,634.722585 L586.933684,624.253401 L593.23631,609.264671 L600.035075,593.054112 L603.626563,584.475343 C625.222908,532.859694 643.494218,481.189115 658.363068,431.943237 L658.363068,431.943237 L658.44,431.941 L658.49466,431.901253 L658.64,431.805531 L658.741,431.743726 L659.043164,430.617498 L659.515092,428.823591 L659.962331,427.094253 L660.520207,424.889418 L661.034096,422.800585 L661.390615,421.310503 L661.827397,419.42634 L662.220042,417.660081 L662.485529,416.413178 L662.726135,415.233278 L663.008199,413.764808 L663.19066,412.742381 L663.348163,411.787929 L663.439288,411.189536 L663.519304,410.621571 L663.588203,410.084119 L663.630156,409.708309 C663.633739,409.666086 663.637006,409.621188 663.639936,409.573708 L663.639936,409.573708 L663.653291,409.258602 L663.657508,408.886022 C663.657392,408.819385 663.656851,408.750539 663.655864,408.679579 L663.655864,408.679579 L663.64442,408.229184 L663.621235,407.732511 L663.585268,407.194037 C663.461215,405.573483 663.181922,403.709008 662.73407,401.686973 C661.596985,396.553083 659.518827,390.974751 656.390972,385.251624 C647.941533,369.791436 633.149457,355.340274 610.676342,343.234018 L610.676342,343.234018 L609.151427,342.406305 L605.662373,340.483785 C604.940422,340.085775 604.221265,339.693572 603.497236,339.30376 L603.497236,339.30376 L602.132101,338.574828 L600.202896,337.565842 L598.492198,336.69184 L597.012037,335.950661 L595.784373,335.345828 L594.18626,334.57086 L592.161022,333.606752 L589.247496,332.249604 L586.466381,330.980684 L583.886696,329.82199 L581.106416,328.58889 L575.975935,326.345668 L570.149383,323.833832 L564.928646,321.604951 L562.680878,320.656952 C527.582209,305.983988 497.843467,299.709992 458.060476,299.709992 L458.060476,299.709992 Z M481.750442,182.742443 C456.28417,181.33409 433.535391,186.065724 414.446301,195.378417 C407.463581,198.784966 401.199245,202.736029 396.009926,206.77306 C395.28048,207.384983 394.579047,207.994073 393.904619,208.599518 L393.904619,208.599518 L393.130247,209.303943 C392.749193,209.655237 392.377347,210.005085 392.014741,210.353176 L392.014741,210.353176 L391.30186,211.046926 C390.951591,211.392538 390.610584,211.736187 390.278876,212.077563 L390.278876,212.077563 L389.627865,212.757191 C388.563542,213.884547 387.602776,214.984346 386.74683,216.045101 L386.74683,216.045101 L386.245851,216.676776 C386.164454,216.781243 386.084108,216.885298 386.004813,216.988927 L386.004813,216.988927 L385.541682,217.605512 C385.39152,217.80928 385.245575,218.011255 385.103859,218.211348 L385.103859,218.211348 L384.691404,218.805882 C384.558154,219.002116 384.429142,219.196374 384.304378,219.388565 C382.078756,222.816996 379.485418,228.30848 376.811249,234.991658 L376.811249,234.991658 L376.111995,236.761555 C375.411285,238.557339 374.706771,240.429065 374.003548,242.361264 L374.003548,242.361264 L373.300943,244.313047 C373.06701,244.969978 372.833409,245.633056 372.600329,246.301707 L372.600329,246.301707 L371.90284,248.323808 C371.439139,249.682258 370.978276,251.060709 370.521758,252.454578 L370.521758,252.454578 L369.84043,254.556373 C369.614532,255.260443 369.38991,255.967796 369.166752,256.677857 L369.166752,256.677857 L368.501857,258.815593 L367.846876,260.966143 L367.202941,263.12607 C366.990263,263.847226 366.779614,264.569372 366.571184,265.291935 L366.571184,265.291935 L365.952736,267.460303 C361.367121,283.723844 358,299.9084 358,309.487902 C358,310.739803 358.032859,311.977323 358.098576,313.200461 C366.928464,290.502479 398.177055,279.938169 456.160634,279.713651 L456.160634,279.713651 L458.060476,279.709992 C494.091308,279.709992 522.811832,284.613592 553.542264,295.642711 L553.542264,295.642711 L555.767372,296.450684 C561.339548,298.497376 566.984704,300.745095 572.757854,303.201052 L572.757854,303.201052 L576.824097,304.935613 L582.389882,307.328891 L587.892162,309.725467 L591.833669,311.468988 L595.414375,313.079732 L598.286625,314.395929 L600.206607,315.290619 L602.383062,316.321982 L604.770242,317.477624 L607.022199,318.594743 L608.259829,319.220954 L609.767013,319.995985 L611.240087,320.76698 L612.706719,321.547817 C613.58183,322.017589 614.450209,322.490556 615.322827,322.971629 L615.322827,322.971629 L618.43047,324.685231 L621.029121,326.096606 C646.38562,339.927411 663.722019,356.962172 673.940951,375.660053 C681.402462,389.312597 684.494878,403.274727 683.489797,412.091995 C683.473456,412.23535 683.456274,412.380693 683.43825,412.52803 L683.43825,412.52803 L683.320008,413.435996 C683.191664,414.367946 683.033002,415.371945 682.84395,416.448921 L682.84395,416.448921 L682.644765,417.550257 L682.505598,418.28676 C685.987741,415.298103 688.175509,411.979049 689.904023,408.470107 L689.904023,408.470107 L690.299354,407.648073 C690.493246,407.2354 690.681773,406.820291 690.866259,406.402971 L690.866259,406.402971 L691.230238,405.565446 L691.5858,404.722418 L691.935303,403.874284 L693.144864,400.871328 L693.674401,399.570899 L694.037034,398.700455 L694.410105,397.82768 L694.79597,396.952971 L695.196986,396.076725 C695.843378,394.692155 696.555242,393.303318 697.374327,391.917239 C697.437406,390.866949 697.668644,389.810031 698.082494,388.783745 L698.192667,388.521181 C699.508216,385.50472 699.974869,383.046303 699.823373,380.527162 L699.794717,380.101293 L699.772219,379.821794 C699.732239,379.358293 699.679402,378.905226 699.60709,378.444247 L699.535499,378.020808 L699.449473,377.577768 L699.313066,376.96892 L699.149214,376.332042 L699.056097,376.000599 L698.901421,375.484376 L698.665297,374.755268 L698.464214,374.173467 L698.241219,373.557953 L697.995098,372.905361 L697.530208,371.726173 L696.992088,370.419065 L696.50509,369.270809 L695.673677,367.358779 L694.882145,365.574444 L693.805475,363.180765 L691.678375,358.509442 C690.607806,356.169093 689.048891,353.731401 686.999059,351.208162 L686.400032,350.484919 C684.766994,348.550118 682.848836,346.566309 680.644422,344.538709 L679.804347,343.776316 C679.519847,343.521508 679.230873,343.266026 678.937421,343.00988 L678.043632,342.23946 C677.892428,342.110728 677.740104,341.981833 677.58666,341.852775 L676.652552,341.076495 C676.494626,340.946795 676.33558,340.816934 676.175413,340.686915 L675.200954,339.904913 C675.036302,339.774266 674.870528,339.643463 674.703633,339.512506 L673.688795,338.724919 C673.003259,338.198638 672.299766,337.669927 671.578297,337.138865 L670.48261,336.340521 L669.359947,335.538713 C668.41315,334.869114 667.438239,334.195971 666.435179,333.519443 L665.217993,332.705994 L663.973771,331.889358 C663.554522,331.616621 663.130766,331.343363 662.702499,331.069594 L661.404164,330.246764 L660.078752,329.42093 C659.68009,329.174603 659.277825,328.927885 658.871956,328.680782 C658.273746,328.332143 657.718857,327.923734 657.212915,327.465483 C656.20941,326.561225 655.421918,325.480568 654.868778,324.300928 C654.804854,324.165031 654.743605,324.027065 654.685455,323.887636 C654.673512,323.856988 654.661089,323.826631 654.648816,323.796219 C654.16791,322.612649 653.9103,321.326068 653.918616,319.996471 C653.923121,318.870053 654.118039,317.735485 654.515305,316.641813 C654.906298,315.558141 655.475358,314.570671 656.182562,313.70894 C656.195718,313.693419 656.208337,313.678069 656.220996,313.662764 C656.27292,313.599886 656.326248,313.537277 656.380309,313.475368 C657.308965,312.406933 658.433257,311.573348 659.665568,310.99551 C659.82083,310.922461 659.978635,310.853008 660.138331,310.787608 C660.142691,310.786727 660.147014,310.784969 660.151337,310.783214 C661.339999,310.297453 662.633026,310.037053 663.969526,310.045345 C664.461541,310.047203 664.955366,310.085527 665.446689,310.161212 L665.722851,310.207747 L665.722851,310.207747 L669.025746,310.735572 L671.356988,311.113976 L674.808193,311.683196 L677.078571,312.063761 L680.438524,312.636246 L683.74377,313.210712 L685.916889,313.594798 L689.131026,314.172604 L691.243436,314.558932 L694.366553,315.140124 L696.418313,315.528726 L699.4505,316.113351 L701.44167,316.504257 L704.383016,317.092363 L706.313655,317.485605 L708.220098,317.87979 L710.102355,318.274924 L712.880412,318.869413 L714.702246,319.266938 L716.499926,319.66543 L718.273463,320.064892 L720.888521,320.665916 L722.601742,321.067826 L724.290852,321.470725 L726.779333,322.076937 L728.40821,322.482329 L730.01301,322.888726 L732.375088,323.500218 L733.919738,323.909152 L735.440345,324.319109 L737.676196,324.935973 L739.136736,325.34851 L740.573266,325.762088 L741.985796,326.176712 L743.374335,326.592386 L745.412181,327.217879 L747.3961,327.845765 L748.68877,328.265693 L749.957497,328.686697 L751.202289,329.108782 L752.423158,329.531953 L753.620111,329.956214 C760.429303,332.397233 766.15128,334.921426 770.823266,337.593971 L771.117982,336.574793 C772.875444,330.591827 771.852183,325.580371 769.411239,321.439867 C768.804782,321.027608 768.164633,320.621566 767.493262,320.221892 L767.493262,320.221892 L766.817085,319.827517 C766.702694,319.762135 766.58746,319.696927 766.471386,319.631892 L766.471386,319.631892 L765.764909,319.243761 L765.038514,318.859778 L764.292425,318.47993 C764.166448,318.416966 764.03966,318.354174 763.912066,318.291553 L763.912066,318.291553 L763.136858,317.917886 C762.875255,317.794015 762.610462,317.670828 762.342519,317.548324 L762.342519,317.548324 L761.529273,317.182855 L760.697345,316.821467 C760.416947,316.701683 760.133473,316.582577 759.84696,316.464148 L759.84696,316.464148 L758.978343,316.110886 L758.537268,315.935772 L757.570503,315.557883 L755.294872,314.684691 L750.626077,312.932627 L745.739099,311.12892 L738.86017,308.618978 L724.505927,303.441778 C723.166266,302.961175 721.944628,302.200142 720.922672,301.209549 C720.807552,301.097961 720.694406,300.987947 720.583193,300.879429 L720.583193,300.879429 L719.938755,300.245672 L719.338639,299.644176 L718.780795,299.071281 L718.263172,298.523328 C716.685555,296.823773 715.682113,295.444345 714.959962,293.862129 L714.959962,293.862129 L714.565257,293.017366 C714.475413,292.829372 714.383615,292.640054 714.289848,292.449422 L714.130937,292.282733 L713.794443,291.916508 L713.494827,291.578066 C713.447964,291.523974 713.402637,291.47104 713.358848,291.419263 L713.358848,291.419263 L713.114547,291.122495 C712.813399,290.745325 712.610591,290.442243 712.506123,290.213246 L712.506123,290.213246 L712.183172,289.518703 L711.823326,288.772863 L711.425096,287.976713 L711.13755,287.418485 L710.672041,286.540683 L710.338264,285.928935 L709.985223,285.296292 L709.612478,284.643046 L709.219586,283.969491 L708.806108,283.275918 C708.735455,283.158671 708.663926,283.040602 708.591511,282.921718 L708.591511,282.921718 L708.359501,282.543527 C708.005211,282.03403 707.640025,281.518935 707.263778,280.998368 L707.263778,280.998368 L706.480177,279.927967 L705.665532,278.842603 C703.866613,276.474943 701.846914,274.003614 699.59231,271.439663 C688.780349,259.144232 674.083429,246.523994 654.909282,233.965285 C610.51145,204.885531 544.787366,186.228555 481.750442,182.742443 Z M709.647221,349.719173 L712.688273,356.346447 L713.307574,357.716681 L713.8192,358.863063 L714.297438,359.950596 L714.745135,360.986698 L715.165139,361.978788 L715.560298,362.934285 L715.933459,363.860608 L716.287469,364.765174 C717.53533,368.002969 718.452213,370.950997 719.043692,373.805605 C724.084101,370.999274 729.698181,368.842048 735.852311,367.207902 C740.831726,365.885685 745.998218,364.944607 751.711901,364.222806 C751.952229,364.192446 752.192485,364.162586 752.433183,364.133158 L752.433183,364.133158 L753.886814,363.96121 C754.131349,363.93323 754.377359,363.905542 754.625361,363.878077 L754.625361,363.878077 L756.14141,363.71541 L757.730058,363.554766 L758.559352,363.47416 L763.059356,363.052193 C763.706993,361.973645 764.278438,360.720122 764.811569,359.296193 L764.811569,359.296193 L765.04707,358.649442 L765.278231,357.980156 L765.29386,357.93519 C765.224716,357.876968 765.153624,357.818003 765.080566,357.758318 L764.852215,357.574544 C764.43052,357.240105 763.970461,356.90173 763.472277,356.559836 L762.856171,356.147901 C761.904606,355.527545 760.829822,354.896326 759.633206,354.256673 L758.817427,353.829015 C758.678461,353.757539 758.537995,353.685966 758.39603,353.614298 L757.526275,353.183191 C756.934471,352.895068 756.318754,352.605546 755.679245,352.314837 L754.702152,351.87791 C754.536335,351.804949 754.369034,351.731921 754.200252,351.658829 L753.169799,351.219532 C752.820399,351.072861 752.46509,350.92596 752.103886,350.778855 L751.002605,350.336958 L749.866048,349.894 L748.694304,349.450141 C748.297869,349.302055 747.895585,349.153847 747.487466,349.005541 L746.323742,348.587998 L745.211225,348.198299 L744.074487,347.809044 C743.883013,347.744205 743.69053,347.679385 743.497039,347.614584 L741.728389,347.031886 L740.519047,346.643993 L739.285522,346.256564 L738.027823,345.869603 L736.745959,345.483116 L735.43994,345.097108 L734.109775,344.711582 L732.755472,344.326545 L730.678783,343.749915 L728.547837,343.174411 L727.09708,342.791374 L725.622231,342.408851 L724.123302,342.026844 L721.829775,341.454815 L719.482117,340.883977 L717.080358,340.314346 L714.624531,339.74594 L712.114665,339.178774 L709.550793,338.612865 L706.932946,338.048229 L704.261154,337.484883 L701.535449,336.922843 L701.022882,336.819197 C704.721473,341.081059 707.597891,345.373532 709.647221,349.719173 Z M576.789633,44.0012516 L575.594053,44.0018395 C554.489123,44.1202829 534.286272,49.9497393 515.267236,58.939188 C492.819112,69.5494142 465.985664,110.539998 439.337012,165.922972 C452.936639,163.05825 467.50512,161.924078 482.854808,162.772957 C549.172591,166.44051 618.259196,186.051998 665.867571,217.234597 C679.469874,226.143853 691.083091,235.170182 700.862326,244.201542 L700.996228,243.212679 C701.13769,242.158903 701.276347,241.10989 701.412195,240.065695 L701.412195,240.065695 L701.811315,236.947621 C702.006661,235.395867 702.195685,233.855079 702.378382,232.325448 L702.378382,232.325448 L702.735337,229.281115 C703.838968,219.688183 704.688634,210.54777 705.282836,201.907874 C711.528089,111.099878 676.094144,81.6121082 633.672846,58.939188 C614.159049,48.5096448 595.136578,44.0862863 576.789633,44.0012516 Z" id="Combined-Shape" fill="#000000" fill-rule="nonzero"></path>
    </g>
</svg>