<svg width="960" height="960" viewBox="0 0 960 960" fill="none" xmlns="http://www.w3.org/2000/svg">
<path d="M275.49 31.4658C307.033 14.0893 343.937 5.44611 382.707 8.66211L739.231 38.2363C837.737 46.4077 913.524 128.742 913.524 227.586V731.419C913.524 830.043 838.065 912.27 739.804 920.72L383.279 951.38C339.755 955.123 298.567 943.907 264.643 922.17C264.235 921.982 263.831 921.78 263.434 921.563L126.934 847.215C126.796 847.14 126.66 847.063 126.524 846.985C79.2878 819.802 47 768.75 47 709.597V250.402C47.0001 190.075 80.5846 138.16 129.386 111.406L273.386 32.4629C274.072 32.0867 274.775 31.7557 275.49 31.4658ZM379.4 48.5254C374.597 48.127 369.834 47.9595 365.119 48.0107C283.96 48.9079 217 115.096 217 198.012V762.079C217 845.181 284.25 911.442 365.593 912.084C366.963 912.095 368.338 912.087 369.717 912.061C370.983 912.036 372.253 911.995 373.525 911.938C374.973 911.874 376.424 911.789 377.879 911.683C378.536 911.635 379.194 911.584 379.853 911.527L736.377 880.867C736.983 880.815 737.588 880.759 738.191 880.7C739.399 880.582 740.602 880.449 741.801 880.303C743.599 880.083 745.386 879.832 747.163 879.55C752.492 878.704 757.723 877.58 762.841 876.195C763.978 875.888 765.109 875.566 766.235 875.232C766.798 875.066 767.36 874.896 767.92 874.723C769.04 874.376 770.154 874.018 771.263 873.646C773.479 872.904 775.672 872.111 777.84 871.27C778.924 870.849 780.001 870.416 781.072 869.972C782.679 869.305 784.271 868.61 785.848 867.89C787.95 866.929 790.026 865.922 792.074 864.869C794.634 863.553 797.15 862.165 799.619 860.71C800.607 860.128 801.588 859.535 802.561 858.931C803.533 858.327 804.499 857.712 805.456 857.087C806.414 856.462 807.364 855.826 808.306 855.18C808.777 854.856 809.246 854.531 809.713 854.202C813.449 851.576 817.058 848.784 820.529 845.838C820.963 845.47 821.395 845.099 821.824 844.726C822.683 843.98 823.533 843.224 824.375 842.459C826.058 840.929 827.707 839.362 829.318 837.758C830.124 836.956 830.921 836.144 831.708 835.324C832.102 834.914 832.493 834.502 832.882 834.088C833.66 833.259 834.428 832.422 835.187 831.576C835.566 831.153 835.943 830.728 836.317 830.301C837.816 828.591 839.277 826.848 840.697 825.072C841.407 824.184 842.108 823.289 842.798 822.385C845.213 819.22 847.505 815.958 849.666 812.604C850.592 811.167 851.494 809.714 852.372 808.244C852.957 807.264 853.532 806.278 854.095 805.284C855.784 802.302 857.374 799.258 858.86 796.155C859.604 794.604 860.321 793.039 861.012 791.459C861.702 789.88 862.367 788.286 863.004 786.68C864.278 783.466 865.445 780.199 866.499 776.883C866.675 776.33 866.847 775.777 867.017 775.222C867.694 773 868.322 770.758 868.897 768.495C869.329 766.798 869.732 765.091 870.105 763.372C870.603 761.081 871.049 758.771 871.44 756.443C871.538 755.861 871.633 755.278 871.725 754.694C872.363 750.606 872.835 746.465 873.136 742.278C873.307 739.886 873.423 737.479 873.48 735.059C873.509 733.849 873.524 732.635 873.524 731.419V227.586C873.524 226.367 873.51 225.15 873.48 223.938C873.437 222.118 873.361 220.307 873.253 218.503C873.181 217.301 873.094 216.102 872.994 214.907C872.894 213.712 872.78 212.521 872.651 211.334C872.587 210.741 872.52 210.148 872.449 209.557C872.307 208.373 872.151 207.194 871.981 206.02C862.148 137.878 806.402 83.9459 735.925 78.0996L379.4 48.5254ZM148.614 146.481C112.015 166.546 87.0001 205.361 87 250.402V709.597C87 753.7 110.977 791.816 146.321 812.227L224.467 854.791C207.325 828.51 197.231 797.132 197.004 763.245L197 762.079V198.012C197 163.41 207.292 131.38 224.885 104.667L148.614 146.481Z" fill="black"/>
</svg>
