<svg height="960" viewBox="0 0 960 960" width="960" xmlns="http://www.w3.org/2000/svg"><path d="m208.38014 39.0521196 631.825581 20.5913128c5.189593.1691298 10.109994 2.3498964 13.720805 6.0811859l97.445737 100.6971137c3.609671 3.730111 5.627737 8.717492 5.627737 13.908201v632.315778c0 55.963566-45.152308 102.622427-101.077224 104.44503l-641.255814 20.898646c-.282118.009195-.563773.020781-.844797.009703l-.089165-.00209-.046782.002847c-1.621293.052404-3.281763-.093791-4.954696-.460504l-.38627-.088551-98.511229-23.574615c-4.186572-1.001884-7.806716-3.282416-10.4777518-6.373778l-.0562712-.066399-.1280109-.105196c-.3361576-.281651-.6638983-.575073-.9825744-.879999l-.3156307-.30875-88.01599996-88.017c-3.75067842-3.750721-5.85778404-8.837765-5.85778404-14.142055v-641.254318c0-50.520651 37.0453253-93.1751288 86.5352098-100.5989906l-.7352098.1153086 85.674021-18.7810963c.487532-.1068752.974175-.1950454 1.459248-.2650382l.223731-.0298655.504109-.1543475c9.867301-2.9542352 20.201916-4.3052876 30.719031-3.9625329zm-21.911934 43.1541686c-2.03751.7242468-4.093718 1.0984897-6.112473 1.1608675l-.118733.0028443-21.589121 4.7318485c-13.926164 13.5299225-22.647879 33.1746215-22.647879 55.3953015v679.50285l70.533 72.887006 4.517 1.081994.308445-.030593c2.466013-.21817 4.987739.01705 7.43186.762598l.377695.119995 635.45186-20.709033c34.006593-1.108281 61.818907-29.508252 62.38014-63.436459v-625.252508l-86.189-89.065-623.733776-20.3271059c-7.146319-.2328999-14.077472.8537122-20.609018 3.1753941zm-57.850557 12.4762259-30.8328496 6.7619789c-.2904867.063679-.5823395.120868-.8753403.171525l-.4403348.071083c-29.9792649 4.497119-52.4691243 30.392241-52.4691243 61.041581v632.969318l77.658 77.659.282516.112819c2.024724.82447 3.8854 1.971407 5.517168 3.378204l.182316.158977 42.672 10.212006-51.498174-53.218298c-1.804809-1.865051-2.813826-4.358723-2.813826-6.954056v-683.549502c0-17.927281 4.59569-34.610054 12.617649-48.8146359zm402.867409 102.3174859c142.081519 0 258.445871 116.876509 270.649884 265.613874.859303 8.512931 1.301231 17.1482 1.301231 25.886126s-.441928 17.373195-1.30478 25.884959c-12.200464 148.738532-128.564816 265.615041-270.646335 265.615041-150.229123 0-271.707031-130.665313-271.707031-291.5s121.477908-291.5 271.707031-291.5zm0 20c-138.844481 0-251.707031 121.398373-251.707031 271.5s112.86255 271.5 251.707031 271.5c58.084858 0 111.622558-21.246211 154.252094-56.951915-40.102273 25.730781-87.879216 40.664806-139.163284 40.664806-141.846182 0-256.862304-114.247641-256.862304-255.212891s115.016122-255.212891 256.862304-255.212891c51.284068 0 99.061011 14.934025 139.163148 40.665399-42.6294-35.706297-96.1671-56.952508-154.251958-56.952508zm15.08881 36.287109c-130.83039 0-236.862304 105.323461-236.862304 235.212891s106.031914 235.212891 236.862304 235.212891c122.69854 0 223.58553-92.637459 235.652903-211.296908.639913-7.87919.965318-15.856208.965318-23.915983s-.325405-16.036793-.962766-23.916703c-12.069925-118.658729-112.956915-211.296188-235.655455-211.296188z"/></svg>