<svg height="960" viewBox="0 0 960 960" width="960" xmlns="http://www.w3.org/2000/svg"><path d="m695.20511 63.7763676c-8.655946 20.1675111-11.58404 26.9722142-14.245381 32.7946442l-.162652.3553532-.17447.3800836-.436484.9461376-.222484.4798112-.224409.4824277c-.639216 1.3720889-1.31007 2.7948569-2.084445 4.4312619-6.522695 13.783736-12.778969 25.124545-20.204672 36.258243-9.083349 13.619081-19.861346 26.783667-34.017463 41.598149-16.456931 17.222301-38.232178 34.211286-65.400261 51.231295 31.582638.614785 60.443412 1.601546 84.631431 2.903886 21.578041 1.161814 39.007699 2.550909 51.548541 4.147329 7.374197.938719 13.341085 1.971639 18.35421 3.290698 4.233998 1.114055 8.023897 2.449535 11.998077 4.556554 12.57418 6.666538 22.435352 17.140949 22.435352 36.589981v602.777778c0 11.680822-4.450513 22.322172-11.748351 30.320859l-.330649.355141-.113474.649884c-3.926284 21.429184-22.497862 37.336292-44.537346 37.674116h-419.904473c-22.382025 0-41.326888-16.065406-45.258128-37.762489l-.112579-.651511-.246649-.265141c-7.142564-7.828502-11.557678-18.188409-11.742322-29.576702l-.006029-.744157v-602.777778c0-1.992189.14883-3.981594.445249-5.951608l.030411-.202116c.284106-1.888188.70305-3.75361 1.253616-5.581955 4.372045-14.518866 12.637398-21.21799 23.08064-26.028856 3.566697-1.643063 7.053236-2.762081 10.919648-3.711446 4.977749-1.222243 10.948082-2.210678 18.264307-3.112325 12.678285-1.562464 30.132458-2.925104 51.611845-4.064091 23.557422-1.249179 51.447559-2.201884 81.907454-2.807592-27.056341-16.823428-48.625292-34.183189-64.735619-52.3747-18.646743-21.055589-31.047358-37.602155-41.6697-55.793098-.365046-.625147-.726129-1.248004-1.083831-1.869736l-.534093-.9319c-.974791-1.707471-1.926234-3.410848-2.866482-5.134393l-.511825-.942261-.469527-.871597-.468359-.87641c-6.550439-12.306608-12.85794-26.2287512-23.142929-50.1917704-12.877803-30.0040243 13.676116-61.96439359 45.531749-54.80213785 60.756807 13.66024595 142.478251 26.82799945 169.555404 26.82799945 27.75826 0 107.799999-12.79879 169.46852-26.80836335 31.879424-7.24222225 58.512541 24.74095395 45.618632 54.78250175zm.018603 848.2230044-430.516038.000191c.82913 2.349837 3.06701 4.000437 5.658032 4.000437h419.199921c2.590663 0 4.828884-1.650292 5.658085-4.000628zm-215.223713-639.999372c-124.114952 0-224.964999 5.363181-226.969588 12.020105l-.030412.202117v602.777778c0 2.761424 2.238576 5 5 5h444c2.761424 0 5-2.238576 5-5v-602.777778c0-6.682645-99.608898-12.112653-223.24614-12.220585zm178.447713-224c-59.104019 13.4269816-144.545964 27.8022292-178.329755 27.8022292s-122.139853-15.1687822-178.329756-27.8022292c20.554665 47.8903644 29.765108 67.284453 63.934636 105.86811 18.717744 21.135763 47.855344 42.089703 87.411932 62.863475 16.925803 8.886875 37.179498 8.697122 53.935826-.505314 39.085301-21.469604 68.232996-42.25529 87.442481-62.358161 35.035981-36.665415 43.379971-57.9777456 63.934636-105.86811z"/></svg>