<svg height="960" viewBox="0 0 960 960" width="960" xmlns="http://www.w3.org/2000/svg"><path d="m605.13668 2.4568657c16.815566 1.1210377 30.475097 2.46895564 40.535238 4.05461184 6.312818.99501192 11.538592 2.11510434 16.214175 3.63837126 4.239759 1.3812792 8.120897 3.0746557 12.174365 5.7355759 10.331042 6.7818674 18.37461 17.1286148 18.911029 32.9219077l.014981.5556676 32.454276 807.569723c.691665 17.214305-6.250884 33.293815-18.163142 44.531862l-.051134.046415-.277207.488841c-1.861301 3.218855-4.05279 6.265398-6.527674 9.122356l-.415097.474401c-5.971875 6.757276-13.342546 12.252889-22.025839 17.017532-13.413968 7.360432-30.774463 13.328744-51.668339 18.183148-39.254084 9.120144-90.960588 14.202722-145.812312 14.202722-54.886404 0-106.622965-5.089005-145.885702-14.219874-20.904436-4.861497-38.268497-10.838751-51.680262-18.212931-8.690665-4.778381-16.064476-10.291763-22.032724-17.074578-2.226664-2.530565-4.229871-5.21224-5.976665-8.03244l-.228179-.374177-.365565-.317443c-12.593057-11.108046-20.117282-27.466829-19.625916-45.12257l.026888-.779758 33.302055-808.0134198c.043786-1.0623938.129916-2.1226192.258186-3.1781498l.02311-.1901736c.189276-1.5575604.470032-3.102635.840813-4.6272141 3.285907-13.5110097 10.887998-21.1401236 20.200545-26.4519131 3.652052-2.0830963 7.183037-3.4863064 11.011395-4.65022317 4.571162-1.38974728 9.744913-2.45031766 15.950179-3.39719618 10.139628-1.54723325 23.802626-2.86795816 40.525339-3.96592209 32.635859-2.14277415 75.940074-3.36437251 122.082382-3.39155365l1.574121-.00046351c47.204745 0 91.53294 1.24994968 124.63668 3.4568657zm42.819704 896.1061713-.09096.005629c-55.787825 3.28754-111.576469 4.931334-167.365424 4.931334-55.602765 0-111.387713-1.632841-167.355078-4.898419 33.513982 13.394467 95.913111 22.398419 167.355078 22.398419 71.510985 0 133.961652-9.021357 167.456384-22.436963zm36.640263-33.695038c.113816-.347126.217303-.698661.310132-1.054271l.131209-.53643c.053601-.234807.102589-.471281.146867-.709313.024489-.131674.047448-.263281.068962-.395344l.008493-.059641.046147-.298556c.017031-.11976.032876-.239877.047523-.360338.042979-.353382.07568-.710205.09775-1.069666l.00058-.01344.016691-.317433c.004755-.110532.008504-.221301.011241-.332299l.001803-.08039.001265-.102878.001-.071.001-.156v-.003l-.002443-.359882c-.002425-.136202-.006378-.272709-.011874-.409504l-.067683-1.672614-6.936801-172.611654c-.518821.142593-1.056046.245082-1.608571.303625-65.217614 6.910165-130.842285 10.36519-196.872547 10.36519-66.030263 0-131.654934-3.455025-196.872548-10.36519-.42255-.044771-.836152-.115245-1.239417-.209702l-7.110116 172.517731-.067365 1.64742c-.00671.163126-.011225.325845-.01357.488127l-.001848.3096.003384.308113.001744.080439.000655.021301.000329.018093.003515.119655.00092.027512.002236.07174.004.092v.003l.020781.380557c.007756.1201.016699.239903.026817.359397.025091.296351.057432.590912.096847.883419l.064408.437186.03246.195965.025687.150476.004.02.016.087.009399.048063-.020509-.110252c.039789.217689.083516.434084.131107.649103l.11785.498485.131673.493412.019701.069269.006779.02392.01.033.003235.012387c.088185.303083.184159.602997.287702.899497.063231.181062.129258.36078.198054.539171.117495.304677.243167.605696.376682.902558l.007327.016387.015967.035188.008033.018812.015425.032693.083575.179307-.057282-.122084.057081.122443.017488.037038.019713.040603.022.047.019508.040367.010492.021633.066.135.007199.014229.064712.12906.01388.02735.066209.130361.006.011c.185223.355293.379912.701162.585514 1.039848l.316532.502577.047105.071758.047178.071134.005671.008683.081.12.049.071.039193.057786.024313.035055.084494.120159.093318.130981c.129444.179565.262136.356685.397998.53127.412492.53006.854122 1.03669 1.322698 1.517459.279865.287147.569343.56507.867953.833232l.454704.394857.042399.035487.062405.05183.047525.038884.057958.047658c.40516.329852.825168.642549 1.258969.936918.115421.078317.231332.155023.348192.23042l.304044.191886.308191.185978.073177.042931.038485.022392.035032.020272.155544.088743.060408.033802-.138801-.078271.234925.131713.109876.059558.013.007.119304.064426c.054184.02877.108538.057273.163059.085507l-.158362-.083014c.347148.184192.701223.357418 1.061789.519194.009727.004365.02004.008981.030359.013587l-.017149-.0077.142.062.075539.033695.029461.012305.051431.022391-.043431-.019391.104.044-.060569-.024609.068569.028609.210337.08743.183373.073303.126934.049373.05746.021984.146896.05491-.050972-.018714.079566.029548.07553.027653.100853.036324c.128082.045697.256859.089994.386315.132872l.026034.008601c1.411697.465172 2.903801.761628 4.453923.864435 63.239688 4.190875 126.242503 6.286281 189.008441 6.286281 60.936041 0 121.872046-1.975007 182.808014-5.92502l5.376709-.353574c2.038813-.135907 3.977219-.606816 5.764244-1.355999.265047-.111119.526677-.228318.784813-.351449l.14253-.069958-.057.028.058964-.027763.027782-.013589c.203584-.099796.404944-.203302.603998-.310424l.045256-.025224.013-.007.072487-.038838c.043469-.023861.086826-.047896.13007-.072102l-.131557.07194.315565-.176371c.108127-.062212.21553-.125509.322195-.189875.067177-.040539.13387-.081383.200269-.122645.190368-.118299.378314-.240032.563756-.365108.150053-.101214.298032-.204304.444337-.309521.023097-.016609.046721-.033684.0703-.050814l-.033422.023334.227295-.16617c.087436-.065324.174249-.13142.260427-.198276.404433-.313758.794776-.644138 1.170183-.990153.333992-.307842.656161-.628058.965813-.959875.151315-.162138.299926-.327375.445455-.495302l.059827-.070224.044936-.051754.096615-.114462.007066-.008448c.522686-.625235 1.003389-1.28605 1.43808-1.977959.150818-.240053.296225-.484076.435914-.73166l.013389-.025717.032-.057.035816-.062778.010177-.01846.071007-.131762.067812-.1253.066188-.1287-.062986.122651c.110435-.208726.216869-.41983.319204-.633204l.021782-.047447.135697-.289824c.051358-.113037.101577-.226681.150644-.340919l.143726-.344474.066141-.165651.041792-.110132.005-.012.017744-.044298.041002-.108373.007254-.022329.035-.094-.003.006.087583-.239233c.041102-.117061.081025-.234655.119754-.352768zm-377.49926-792.4903562-24.412711 592.3442342c.821916-.122713 1.672655-.144209 2.537481-.052576 64.516418 6.835869 129.437674 10.25386 194.765234 10.25386 65.327559 0 130.248815-3.417991 194.765233-10.25386 1.004839-.106469 1.990659-.060212 2.934349.120085l-23.807499-592.4051745c-3.130534.8879822-6.858429 1.6447552-11.321468 2.3482092-9.36316 1.4757998-22.482028 2.7703652-38.751706 3.8550104-32.622493 2.1748329-76.517542 3.4125689-123.3063 3.4125689s-90.683807-1.237736-123.3063-3.4125689c-16.269678-1.0846452-29.388546-2.3792106-38.751706-3.8550104-4.47404-.7051879-8.209307-1.4639581-11.344607-2.3547779zm7.183923-24.9636428-.29.07-.214436.0537493c-.103073.0258499-.204829.0517356-.305263.0776567l-.22865.0596765c-.103276.027261-.205091.0545607-.305441.0818988l-.314422.0871373-.135223.0384287-.062565.0184527-.070729.0200254-.029045.0084656-.112226.032509-.171953.0519392-.136047.0410608.132231-.0399062-.298138.0920411.163907-.0511349-.117631.0366044c-.08265.0258692-.163996.0517705-.244033.0777037l.172664-.0553081-.229.074-.149.049.126362-.0419531-.169113.0561605-.040249.0137926-.006.002-.19312.0663158-.378106.1367903c-.209245.0783675-.406584.1570096-.591887.2359178-.17995.0766415-.34795.1532418-.504566.2300835-.048551.0238234-.095696.0475101-.141759.0712195l-.126959.0668856c-.072352.0390352-.141771.0781309-.20824.1172863l-.167097.1025351c-.042144.0269838-.082888.0539953-.122228.0810343l-.053827.0376367c-.06654.0473458-.128774.0947751-.186677.142286-.078429.0643534-.148911.1288565-.211379.1935052l-.15454.1822426c-.137417.1882671-.206925.3777231-.206925.5682613 0 6.3512746 77.230881 11.5 172.5 11.5s172.5-5.1487254 172.5-11.5c0-6.2877619-75.693986-11.3969052-169.647397-11.4984593l-2.852603-.0015407c-3.180729 0-6.34135.0057392-9.479662.0170706-1.56136.0056374-3.117588.0126611-4.66802.0210516l-1.367063.0077608c-.576034.0034232-1.151253.0070352-1.725643.0108349l-.240518.0016024c-1.669167.011199-3.331313.0239843-4.986094.0383331l-.05809.0005043-.0506-.0001577-2.601424.0246118c-.901128.0087853-1.799994.018035-2.696541.0277454-2.363329.0255969-4.710668.0543968-7.04086.0863294l-.941627.0130875-2.559616.0374396-1.716065.0266384c-2.217156.035219-4.417688.0732909-6.600699.1141548l-1.359703.0258568c-1.625922.0314041-3.241952.0643603-4.847705.098843-.952267.0204495-1.900709.041431-2.845458.0629438-.752249.0171293-1.502385.0346009-2.250138.0524068l-1.418845.0342572c-4.539263.1111087-8.989032.2345749-13.340134.3697872-.564619.0175456-1.127934.0353005-1.689565.0532521l-1.871668.0607573c-1.407975.0464108-2.805083.0940651-4.191001.1429414l-.713003.025288c-.344158.0122754-.687619.0246263-1.030377.0370525l-1.281893.0469445c-.343101.0126916-.685485.0254588-1.027146.0383015l-.666848.0251966-.024684.0001644-.212.008-.633099.0250946c-.289872.0111591-.579211.0223727-.868015.0336408l-1.025375.0403237-2.043429.0822764c-1.368806.055979-2.724994.1131955-4.068216.1716262l-.636553.0278239c-.991171.0435326-1.975206.0877285-2.951966.1325781l-.602788.0278038-.045559.0018325-.935123.0439434.489123-.0229434-.919285.0432361c-.937499.0443691-1.868061.0893469-2.791557.1349248l-1.114993.0554928c-.230756.0115812-.461062.0232001-.690915.0348566-2.702605.1370518-5.344633.2794089-7.920712.4267451l-1.773173.102813c-.061782.0036315-.123524.007266-.185227.0109033l-.167395.0098806-.816015.0485356-.247856.0148647 1.061266-.0632463-1.424138.0849937-.690492.042072.489861-.0298097c-.603924.03661-1.203935.0735018-1.799988.1106723l-.682184.0427725c-.62539.0394239-1.246358.0791565-1.862847.119194l-.430754.0280723-.432064.0283545-.514132.0339999-.487363.0324931-1.452144.0983679c-.315054.0215978-.628845.0432778-.941366.0650395l-.270471.0188762c-.463895.0324485-.924974.0650775-1.383211.0978853l-.518125.0372593c-.205133.0148166-.40969.0296693-.613667.0445579l-.327869.0239991-.898844.0664936c-.464848.0346567-.926592.0695025-1.385202.1045352l-.09666.0073902c-1.080349.0826682-2.143261.1663757-3.188354.251097l-.264298.0214781c-.096716.0078788-.193277.0157664-.289685.0236626l-.853176.0704411c-.370979.0308759-.739618.061882-1.1059.0930173l-.147263.0125356c-.113837.0097041-.227446.0194207-.340825.0291497l-1.172095.1017383c-.079357.006968-.158598.0139423-.237722.0209227l.12584-.0112675-.649919.0577454c-.253489.0225989-.50576.045262-.756807.067989l-.442689.0402581c-2.617368.2391059-5.099712.4851991-7.439554.7377812l-.637764.0693935c-.221227.0242635-.441144.0485858-.659746.0729666-.954488.1064544-1.883894.2140236-2.787677.3226712l-.714324.0867518c-.156261.0191728-.311728.0383785-.466398.057617l-.689481.0866482c-.116801.0148314-.23313.0296819-.348987.0445514l-.236004.0304007-.713536.0932945c-.513195.0678644-1.016601.1361141-1.510096.2047409l-.03967.0055204-.475378.0667505-.798043.1146356-.592741.0873572-.187829.028095c-.330609.0496312-.656102.0994474-.976435.1494457l-.4291.0675746c-.125729.0199783-.250637.0399852-.37472.0600207l-.28806.046806c-.092312.0150946-.184157.0302052-.275533.0453317l-.59475.0998068c-.137206.0233444-.273301.046726-.408281.0701445l-.287325.0502027c-.539339.0949052-1.06038.1904103-1.562836.2864962l-.698256.1362901c-.032024.0063819-.063966.0127663-.095826.0191533l-.549328.1120525c-.065747.0136497-.131123.0273105-.196125.0409824l-.138475.0292617-.266307.0572629.177-.039-.288345.0629743-.098655.0210257-.051.011-.104843.0239631.055843-.0129631.049-.011h.002l-.051.011-.169715.0383549.113872-.0253918c-.218567.0485319-.432454.0971987-.641628.1459982-.180102.0420175-.35671.0841332-.529801.1263459z"/></svg>