<svg height="960" viewBox="0 0 960 960" width="960" xmlns="http://www.w3.org/2000/svg"><path d="m421.550111 1.52552335c10.273616.0142063 19.516822.2062278 27.850859.58598315 29.549004 1.41909055 63.215178 6.03503041 100.963196 13.8049064 18.593375 3.8271735 31.935863 20.1959206 31.93565 39.1790931l-.001206 107.822614c18.635168-2.560934 40.002071-3.91812 62.20139-3.91812 29.148425 0 56.835306 2.339747 78.848683 6.634562 11.916831 2.324976 22.252212 5.224217 30.881362 8.861377 5.588709 2.355624 10.635243 5.079168 15.219267 8.437746 6.181949 4.529331 11.411307 10.069154 15.171241 17.182858.189308.330205.379297.671375.574841 1.033455 4.124418 7.637022 7.180918 15.452781 9.458599 23.393642l.0348.122057.151208.533552.034333.12188c2.376913 8.489501 4.167908 20.017802 5.778433 35.754568.23728 1.807589.347233 3.618737.347233 5.424263l.000178 176.27098 1.439145 10.505866c5.066279 37.254423 7.237927 55.21646 7.237927 62.238567 0 10.959148-3.105118 20.867898-8.676339 30.373824l-.000911 121.610803c0 1.544986-.080556 3.085138-.25003 4.613738l-.168926 1.88276c-.99983 10.873157-2.125262 19.210192-3.586526 25.689762l-.029263.128768-.073025.3189-.030467.132021c-2.003553 8.61528-6.327214 19.08855-13.436136 33.747596-.651712 1.343872-1.372605 2.639841-2.177047 3.868597-4.40237 7.365945-10.325907 13.508879-17.384236 18.747151-9.72429 7.216791-20.63386 9.220372-30.644127 7.37967-5.67302 7.277409-13.778869 12.451161-23.018267 14.452714-19.19142 4.157483-41.052464 6.411078-63.750713 6.537701l-1.951237.000622c-22.045647 0-43.34831-2.008416-62.201195-5.843602l.001011 97.634981c.00017 16.387726-9.995634 31.117863-25.224316 37.171359-47.846037 19.0191-177.348196 43.565507-231.544732 43.565507-11.187483 0-21.302252-4.592832-28.549365-12.007407l-113.02437-18.151888c-19.394434-3.114776-33.657217-19.850952-33.657217-39.493912v-819.1367388c0-20.7669022 15.892091-38.079823 36.583085-39.8537915l107.514887-9.2179235c6.855816-8.5363557 17.167795-14.19802312 28.893347-14.85557786 38.512378-2.15972741 70.521565-3.25777639 96.110832-3.28548299zm120.748705 261.41399965c-39.259751.034429-72.227779.447989-98.585431 1.229686-26.211657.789473-65.481945 2.517216-117.673182 5.178947-.170831.008712-.340878.013084-.510036.013213l.000601 648.166876c5.363077 0 11.788021-.289567 19.018255-.827364l1.953356-.152796c57.285385-4.619993 156.835949-24.614041 194.807933-39.367468.334795-.13008.664575-.259662.989504-.388824l-.001646-159.062145zm-236.769-204.0809996-115.23 9.8797758v819.1367388l115.23 18.505485zm453.960647 623.0127146-.341855.24979c-23.719837 17.163984-61.924434 25.370519-114.648608 25.370519-33.222422 0-60.595976-3.265403-82.199665-9.91071l-.001847 34.223254c19.132714 8.035171 48.841612 13.195909 82.201512 13.195909h1.728099c20.472914-.114209 39.514649-2.167498 55.504997-5.631526 1.180656-2.902306 2.118294-5.262383 2.812914-7.080231l.249091-.656276c.654014-1.735755 1.234467-3.385662 1.742578-4.949325.619291-1.908303 2.027624-3.459155 3.867581-4.258968l29.395585-12.790241c.506948-.21914 1.095558.014174 1.314698.521122.042995.099462.069538.20525.078592.313228.38426 4.758472-.005634 9.438864-1.167917 14.040742 3.377312-2.50644 5.876135-5.170408 7.36738-7.949286l.040916.000372c5.854675-12.072707 9.34365-20.524108 10.466928-25.354202l.073025-.3189c.525201-2.328859 1.0305-5.333954 1.515996-9.015271zm-110.651838-408.73055c-34.940413 0-63.803711 1.341678-86.538208 4.007032l-.000019 399.352358c20.068337 7.275531 47.504163 10.991469 82.199602 10.991469 55.126671 0 91.628958-9.397082 109.455767-27.089348 1.950424-1.935704 4.497868-2.902349 7.044587-2.902199l.000015-102.10904c-9.61379 1.266243-16.768577 2.111744-21.578702 2.544304-5.121008.460516-12.830038.844307-23.31015 1.173075-11.538583.361972-20.98674-9.092683-20.616834-20.631015l3.576327-111.555038c.322068-10.046147 8.050177-18.292611 18.054311-19.265285 10.093796-.981392 17.644357-1.479561 22.937875-1.479561 5.416423 0 12.287809.516179 20.799439 1.524598l.137181.017485.00073-124.683485c-1.048158-.00009-2.11416-.166283-3.163167-.515994-18.45666-6.152963-55.037068-9.379356-108.998754-9.379356zm117.658803 252.524265-19.707684.782311c-2.820714 4.770115-5.630002 8.420214-8.583633 11.012854-.213113.187066-.43381.37469-.662158.562945l.086404-.007418c3.131177-.281577 7.456831-.766221 12.976963-1.453931l1.15914-.145183c2.352367-.29616 4.909259-.62709 7.670674-.99279 1.139974-1.321188 2.184767-2.606801 3.13438-3.856837.056851-.074838.113029-.149109.168871-.223253l-.168871.223253c.169421-.22302.335811-.444906.499173-.665661l.369999-.505199c.173695-.239683.343762-.47801.510201-.714981.19742-.281089.389321-.559657.57614-.836326.221443-.327945.435724-.653189.642866-.975763.135358-.210795.267371-.419972.396348-.628014.022243-.035878.044257-.071498.066182-.107084l-.066182.107084c.105248-.169765.208475-.338776.309681-.507031l-.243499.399947c.110757-.17977.219239-.35869.325447-.536759l-.081948.136812c.20929-.347943.409938-.692657.601943-1.03414zm-47.970229-81.448376-2.681457 83.652249c4.594934-2.283178 7.70554-4.157002 9.166623-5.439512 1.372053-1.204362 3.221006-3.740476 5.346802-7.528333-2.377312-14.322608-4.374223-28.454305-6.028463-42.414106-1.130046-9.536232-3.063728-18.957919-5.803505-28.270298zm21.535997-18.039137c-1.746334 0-3.869225.069555-6.368672.208667 5.236705 14.313612 8.737922 28.900877 10.497219 43.747231 1.414083 11.933164 3.084699 23.999842 5.011948 36.200017l19.618032-.774741c-.031431-.284037-.063728-.573647-.096891-.868831-.025513-.227097-.051556-.457639-.078111-.691484-.082141-.723308-.16914-1.477774-.261044-2.263803-.052607-.449934-.106886-.910766-.162777-1.381966l-.021803-.183653c-.080714-.679289-.164738-1.37988-.252072-2.101773-.111717-.92344-.228958-1.882615-.351625-2.87671-.083579-.677321-.16977-1.371608-.258486-2.082141l-.054193-.433546c-.011302-.090318-.022644-.180893-.034026-.271726-.030294-.241747-.060874-.48535-.091739-.730778-.053239-.423353-.107308-.852014-.16222-1.286105-.190779-1.508153-.391748-3.081898-.602902-4.721185-.059638-.462996-.120071-.931094-.181317-1.404417l-.022906-.17697c-.210631-1.626922-.430804-3.315245-.660517-5.064967l-.033442-.254652c-.274791-2.091776-.563124-4.270712-.865001-6.536807-.091907-.689915-.185039-1.387687-.279426-2.093532-.103458-.773683-.208424-1.557066-.314896-2.35015l-.050699-.37752c-.068243-.508015-.1371-1.019979-.20657-1.535893-.298035-2.213309-.607328-4.49904-.927912-6.857443-.015604-.114787-.031291-.230164-.047005-.345715l-1.803962-13.16892-.055598-.403144c-.761821-5.523098-1.573488-11.36698-2.435-17.531649-7.797367-.923796-13.946163-1.385694-18.446387-1.385694zm-95.563196-227.17744c-33.225588 0-62.863842 3.275659-82.201446 8.395312l.001031 49.622276c23.221331-2.590015 52.052129-3.8769 86.53904-3.8769 52.983725 0 90.020937 3.013317 111.739771 9.293603-1.315288-12.194847-2.722634-20.97053-4.222796-26.328582l-.151208-.533551c-1.286276-4.484448-3.232616-9.911962-6.204392-15.41468-.142199-.263304-.308307-.533862-.473959-.804216-5.068071-11.419427-50.155117-20.353262-105.026041-20.353262zm-223.004033-157.474477h-2.099021c-24.677469.0267476-55.966195 1.0973496-93.866178 3.2227347l-.000952 204.5992653 1.057393-.053174c51.539268-2.623018 90.408773-4.329504 116.528678-5.116213 26.575054-.788146 59.728029-1.204025 99.175411-1.23763l.008518-187.8454476c-36.053647-7.4211147-67.659525-11.7253324-94.817634-13.0296002-7.604271-.3463911-16.266342-.5265147-25.986215-.5399352z"/></svg>