<svg height="960" viewBox="0 0 960 960" width="960" xmlns="http://www.w3.org/2000/svg"><path d="m340.389917 4c17.004404.01795516 32.968065.4713386 45.066874 1.26993657 6.539239.4316312 11.969024.96065216 16.348426 1.64116303 3.412828.53031598 6.411883 1.16376772 9.570217 2.17744791 3.460121 1.11053999 6.746017 2.52278709 10.402094 4.88682939 2.606246 1.6852154 5.071215 3.6101495 7.302655 5.8101696l.137817.1384535 3.791897-.0944916c13.996029-.3419766 28.225631-.64382 42.607387-.9029767l3.926008-.0696189c137.445265-2.3978639 245.741733-1.1719134 283.080856 3.7488406l1.081852.1472466 3.260514-.0418072c22.060017-.2794796 40.134989 17.3418072 40.501061 39.3170175l.005658.6672342-.000233.7665555.021969.4966433.018623.7108922c.011941.6841172.006611 1.365726-.015647 2.0443269l-.021945.5271376-.003213 733.447232-.000283.150334-.003139.833882-.000555.108415c-.003514.542754-.009468 1.057585-.018776 1.570101l-.003165.157216-.012089.547141-.004059.167776c-.11225 4.269176-.474098 8.285768-1.24064 12.198023l-.006081.02688.057729.115874c3.064914 6.297686 4.788063 13.281484 4.759226 20.879924l-.001955.081202.001406.16186c.0024 2.137201-.14194 4.257395-.427177 6.349626l-.064229.440514v.272l.019771.124998c1.991947 13.441142-2.045176 26.642598-10.517686 37.070954l-.332339.404891c-6.315753 7.616385-14.125167 12.980131-23.555285 17.476319-12.097867 5.768143-27.737379 10.341813-47.513692 14.478686-25.633357 5.362068-118.145305 17.566941-281.633678 37.266223-.28877.034795-.577912.066439-.867372.094927l-4.956407.48775c-53.744446 5.208158-98.952321 6.955255-135.853201 5.165732-29.634152-1.43712-58.357382-5.574084-86.134941-12.421525l-.41417-.103955-.182431-.032245c-13.851772-2.517471-26.358214-6.509317-36.764363-12.070669l-.776511-.420046c-6.751886-3.696837-12.733144-8.124763-17.784708-13.565586-5.371032-5.784907-9.520726-12.540473-11.929116-20.177599l-.078871-.258855-.189883-.55171c-1.259681-3.77906-1.970784-7.809084-2.044117-11.995682v-16.304381c0-7.33748 1.5394-14.133717 4.292001-20.304084l.195999-.433143-.018697-.079981c-.585671-2.640357-.908668-5.367358-.944641-8.147701l-.003375-.521932v-769.9631313c0-22.09139 17.90861-40 40-40l1.678713.0007453 34.486-.438.208315-.019955c4.366095-.4011733 9.031008-.797634 13.981129-1.1885754l.368556-.0284696.081196-.153371c3.801457-7.0739813 9.227862-11.7503644 15.416779-15.2898536l.404698-.2292374c3.195071-1.79259 6.081406-2.92138293 9.085079-3.82034804 2.971044-.88919974 5.854231-1.47132618 9.113766-1.9614951 4.364695-.65636275 9.770985-1.1722197 16.24826-1.59322178 12.056744-.7836497 27.87202-1.2278882 44.745827-1.24547308zm430.50294 848.811319-.269425.145636c-10.617877 5.694804-25.901018 10.333499-46.091111 14.575859-24.776756 5.206114-117.403825 17.480952-279.938223 37.153075-.135162.016359-.270488.031338-.405956.044933-55.053861 5.525236-100.987362 7.408399-137.924594 5.609084-28.26989-1.377105-55.673231-5.338252-82.192402-11.88801l-1.116146-.278896-.260926-.045261c-9.546757-1.706543-18.240211-4.186122-25.636033-7.368933l-.787424-.343703-.024267-.010118c-2.308618-1.023139-4.497369-2.119504-6.55827-3.29569 3.169918 8.061943 17.009896 14.83999 36.032065 18.297148l1.339812.236528c25.765622 6.473022 52.491186 10.380843 80.176693 11.723462 34.741379 1.684797 78.093878.009403 130.057497-5.026182l4.896817-.48193c161.572623-19.468447 254.315539-31.703791 278.228747-36.706033 27.989926-5.855023 48.811345-13.177712 50.473146-22.340969zm-10.995064-28.526471-.420054.156523c-9.611034 3.535062-22.313359 6.913213-38.300258 10.249779-.477701.099699-.958891.181881-1.442604.246382l-119.159051 15.889127c-.148379.019785-.296975.037904-.44576.054353l-218.224066 24.125513-.574698.129438c-2.513414.537119-5.130829.815551-7.858102.864037h-80.190598c-1.490692 0-2.974942-.166656-4.42529-.495723l-.316312-.076752-.968618-.053229c-35.678964-2.03726-66.488333-8.691689-87.208921-19.701664-4.004089 2.18577-7.080122 4.627143-9.015716 7.244725 2.535749 3.428686 7.028121 6.55528 13.002102 9.202844l.017112.006949c6.174817 2.73368 13.930181 4.955117 22.74107 6.469497 25.79938 6.499199 52.50892 10.421514 80.128621 11.766946 35.827047 1.745235 80.811818-.099033 134.954314-5.532803 161.572623-19.555715 254.315539-31.845905 278.228747-36.87057 22.54825-4.737858 40.444379-10.432452 47.41947-17.279607-.11824-.127373-.240342-.255148-.365946-.383227-2.334322-2.380325-4.85947-4.384504-7.575442-6.012538zm7.056207-268.555848.136942-.049699c-9.494381 3.515838-22.697319 6.950122-39.723317 10.368029-.230595.046291-.462752.084432-.696036.114353l-123.313694 15.815991-.214774.025189c-79.822336 8.487899-111.751271 11.883059-142.809416 15.185623l-3.104654.330133c-.883887.093988-1.768338.188036-2.654438.282259l-1.330523.141481-1.333809.141831-1.337909.142266c-17.646365 1.876425-36.570411 3.888711-65.126532 6.925223-2.530737.269105-7.309977.66956-12.152309 1.023529l-1.117586.080779c-5.211346.372361-10.300896.674943-12.539121.685632-7.117889.033994-15.758795.053139-25.923447.057452h-9.210262c-11.046882-.004286-23.617721-.023411-37.713246-.057367-.982022-.002365-1.95834-.14937-2.897519-.436279l-.18435-.056425-.39174-.018978c-38.421403-1.949222-71.122398-9.143358-90.795991-20.281538l.000731 237.800516 1.442481.46c8.103813 16.074512 47.833797 28.737639 97.986137 31.168631l1.332984.422369h79.444069c2.206147 0 4.042568-.257476 5.582238-.717308l219.623438-24.280564 119.159051-15.889127c16.000269-3.339357 28.31068-6.668451 36.931233-9.987283 11.384753-4.383022 12.745973-10.969979 12.908728-18.352118l.009996-.548258c.00269-.183224.004783-.366911.00641-.55104l.00362-.553694.001628-.556221zm-184.051575 73.343862c43.963256 11.779919 68.528277 60.716995 55.607316 108.938677-12.920961 48.221683-58.663431 78.319924-102.626687 66.540005s-68.528276-60.716995-55.607315-108.938678c12.920961-48.221682 58.663431-78.319923 102.626686-66.540004zm-124.576671 124.666507c11.95212 3.202561 18.383481 16.014764 15.104654 28.251515-3.278828 12.236751-15.254651 20.116763-27.206771 16.914202s-18.383481-16.014763-15.104654-28.251514c3.278828-12.236751 15.254651-20.116763 27.206771-16.914203zm215.227923-6.273273c11.952119 3.202561 18.383481 16.014763 15.104653 28.251514-3.278827 12.236751-15.254651 20.116763-27.206771 16.914202s-18.383481-16.014763-15.104653-28.251514c3.278827-12.236751 15.254651-20.116763 27.206771-16.914202zm-173.959422-46.676849c-10.188284 38.023196 8.707532 75.666395 41.46518 84.443781 32.757648 8.777385 67.943505-14.374674 78.131789-52.397869 10.188285-38.023196-8.707531-75.666395-41.465179-84.443781-32.757649-8.777385-67.943505 14.374674-78.13179 52.397869zm-49.156755 75.040706c-.546151 2.038263.216005 3.556589.962518 3.756616.746512.200028 2.165722-.733803 2.711873-2.772066.546151-2.038264-.216005-3.55659-.962518-3.756617-.746512-.200027-2.165722.733803-2.711873 2.772067zm215.227922-6.273274c-.546151 2.038263.216006 3.556589.962518 3.756617.746513.200027 2.165723-.733804 2.711874-2.772067s-.216006-3.556589-.962518-3.756617c-.746513-.200027-2.165723.733803-2.711874 2.772067zm-207.339668-65.408997c11.95212 3.202561 18.383481 16.014763 15.104654 28.251514-3.278828 12.236751-15.254651 20.116764-27.206771 16.914203s-18.383481-16.014764-15.104654-28.251515c3.278828-12.236751 15.254651-20.116763 27.206771-16.914202zm215.227923-5.550891c11.952119 3.202561 18.383481 16.014763 15.104653 28.251514-3.278827 12.236751-15.254651 20.116763-27.206771 16.914202-11.95212-3.20256-18.383481-16.014763-15.104653-28.251514 3.278827-12.236751 15.254651-20.116763 27.206771-16.914202zm-223.116177 27.641474c-.546151 2.038264.216005 3.55659.962518 3.756617.746512.200028 2.165722-.733803 2.711873-2.772066.546151-2.038264-.216005-3.55659-.962518-3.756617-.746512-.200028-2.165722.733803-2.711873 2.772066zm215.227922-5.550891c-.546151 2.038264.216006 3.55659.962518 3.756617.746513.200027 2.165723-.733803 2.711874-2.772067.546151-2.038263-.216006-3.556589-.962518-3.756616-.746513-.200028-2.165723.733803-2.711874 2.772066zm-207.339668-66.131379c11.95212 3.202561 18.383481 16.014763 15.104654 28.251514-3.278828 12.236751-15.254651 20.116763-27.206771 16.914202-11.95212-3.20256-18.383481-16.014763-15.104654-28.251514 3.278828-12.236751 15.254651-20.116763 27.206771-16.914202zm215.227923-4.828509c11.952119 3.202561 18.383481 16.014764 15.104653 28.251515-3.278827 12.236751-15.254651 20.116763-27.206771 16.914202s-18.383481-16.014763-15.104653-28.251514c3.278827-12.236751 15.254651-20.116764 27.206771-16.914203zm-223.116177 26.919092c-.546151 2.038263.216005 3.556589.962518 3.756617.746512.200027 2.165722-.733803 2.711873-2.772067.546151-2.038263-.216005-3.556589-.962518-3.756616-.746512-.200028-2.165722.733803-2.711873 2.772066zm215.227922-4.828509c-.546151 2.038264.216006 3.55659.962518 3.756617.746513.200028 2.165723-.733803 2.711874-2.772066.546151-2.038264-.216006-3.55659-.962518-3.756617-.746513-.200028-2.165723.733803-2.711874 2.772066zm100.539024-584.2950031c-4.63736 1.1497196-10.882117 2.2223453-18.844844 3.2800036-14.965727 1.9878394-36.318388 3.9494958-62.647636 5.7671978-54.901933 3.7902847-127.656449 6.7153087-203.875702 8.0457207-34.750124.606566-68.608193.908505-100.278726.916693l-4.209661-.000649c-37.068819-.021085-71.023307-.44898-99.746947-1.26592-26.596185-.756431-47.997698-1.828444-62.985975-3.173046-8.029982-.720371-14.320322-1.5236353-19.001669-2.4697775-.723338-.1461932-1.419713-.2972543-2.093117-.4558455l.000831 461.754557.004.014.091513.183025c.127651.266235.243981.538075.348893.814479l.062594.172496.07429.127822c2.819021 4.717239 12.572148 10.435542 27.627463 15.116662l.613251.189202c17.309023 5.298874 39.871521 8.841789 64.56093 9.992646.694334.032365 1.38302.137017 2.054934.312027l.379132.106641-.023-.006.732964.001993c13.183482.030649 24.998825.048004 35.445409.052073l9.192639.000008c10.143954-.004276 18.76263-.023354 25.855297-.057227 3.636842-.017368 18.960803-1.164561 23.789755-1.678047 29.279062-3.113386 48.432174-5.15003 66.464442-7.067489l1.333809-.14183 1.330523-.141481c.8861-.094224 1.770551-.188272 2.654438-.28226l3.104653-.330133c31.058146-3.302564 62.98708-6.697724 142.809417-15.185623l-.073346.007016 122.815-15.752.551211-.110874c15.358282-3.109099 27.177922-6.182947 35.356674-9.163344l.467811-.171842c5.609151-2.077109 6.611007-3.216779 6.808769-8.271452l.003068-441.3201815c-.247738.0641484-.49871.1276927-.753087.1907594zm-285.963422-28.6722389c-21.011822.3665713-41.503534.8212647-61.244002 1.3508495l.002978-.2016765c0 10.2099594-5.10474 15.1626571-11.597894 18.3070983-1.736754.8410588-3.28433 1.339173-4.967731 1.7437586-1.737516.4175918-3.633649.7174077-5.918113.9830346-3.585234.4168743-8.434516.769885-14.400329 1.0632856-11.466764.5639392-26.730169.8885155-43.027915.902361l-1.088018.0004619c-16.705516 0-32.394352-.3263517-44.115933-.9028229-5.965813-.2934006-10.815095-.6464113-14.400329-1.0632856-2.284464-.2656269-4.180597-.5654428-5.918113-.9830346-1.683401-.4045856-3.230977-.9026998-4.967731-1.7437586-4.708863-2.2803622-8.68753-5.511725-10.518592-11.00954-10.146593.7173065-19.286406 1.4561358-27.29303 2.2090239l-.282448.0039144c-24.099188 2.2731625-37.868424 4.674052-37.827828 7.0031612.12437 7.1199859 129.254611 10.8729922 287.81122 8.1053763 154.79823-2.7020131 280.711075-11.7059115 286.477735-18.7568272l-.001498-.9896007c-.649812-.7555592-2.81417-1.4516009-6.363762-2.0881556l-.222764.0030915c-16.619292-2.9652555-63.364245-4.6372039-127.115196-5.018951-44.297956-.2603901-96.765578.1008114-153.020707 1.0822359zm-140.232277-14.8503018h-2.007425l-.95351.0016969c-32.309697.0775058-58.20307 1.7877806-58.729612 3.8989142l-.008177.065606-.001084 12.6543612c5.749806 1.3432241 29.771425 2.3554415 58.682314 2.3784946l1.008747.0004019c33.68937 0 61-1.3431458 61-3l.002006-12.695324c-1.295041-.5015468-4.038291-.971174-7.940718-1.3900966-.120557-.0131971-.241268-.0259625-.363041-.0386799-.226-.0234473-.456623-.0470221-.690942-.0704262-.331396-.0331354-.670319-.065871-1.016375-.0982549l-.972908-.0885343c-.064306-.0056842-.12884-.0113569-.193601-.0170179l.076705.0067953c-.331687-.0291157-.669278-.0579252-1.012659-.0864209-.026946-.0023111-.054359-.0045805-.081809-.0068479l.081809.0068479c-.335539-.027845-.676605-.0553903-1.02309-.082629-.301162-.0237054-.606623-.0471485-.916161-.0703556-.285981-.0214652-.575685-.0427425-.868779-.0638136-.478842-.0343223-.966334-.0681289-1.462706-.1013724-.220613-.0149815-.44268-.0296459-.666457-.0441974-.462952-.0298138-.933776-.0594237-1.411816-.0885392-.185476-.0116983-.371854-.0229278-.559295-.034082-9.692176-.57536-22.252707-.9506162-36.126662-1.0242711-.092682-.000791-.185585-.0012567-.278546-.0017087-.65081-.0029899-1.30423-.005587-1.960347-.0075108-.533326-.0014377-1.06875-.0024642-1.605861-.0030356z"/></svg>