<?xml version="1.0" encoding="UTF-8"?>
<svg width="960px" height="960px" viewBox="0 0 960 960" version="1.1" xmlns="http://www.w3.org/2000/svg" xmlns:xlink="http://www.w3.org/1999/xlink">
    <!-- Generator: Sketch 60.1 (88133) - https://sketch.com -->
    <title>com.neo/drivers/NEO_NAS-PD07Z1(5in1sensor)/assets/icon</title>
    <desc>Created with Sketch.</desc>
    <defs>
        <path d="M480,249 C491.167813,249 502.150528,249.792502 512.894974,251.324334 L525.269,272.25 L560.73,272.25 L564.948152,265.120203 C568.865455,266.67011 572.730259,268.324038 576.539156,270.078581 L571.41,278.75 L588.86,308.25 L623.434,308.25 L627.167328,301.939129 C630.435214,304.643092 633.627425,307.435287 636.740313,310.312066 L634.262,314.5 L651.269,343.25 L666.191197,343.248671 C669.18342,347.315834 672.045578,351.484601 674.771539,355.748837 L651.86,355.75 L634.262,385.5 L651.269,414.25 L685.434,414.25 L695.640129,396.999442 C697.600018,402.088042 699.384976,407.263513 700.987634,412.518487 L696.262,420.5 L707.442633,439.393492 C709.080822,448.631552 710.169948,458.059342 710.675081,467.641932 L696.41,491.749 L708.723549,512.557332 C705.535864,535.155007 699.078369,556.702154 689.845039,576.704796 L685.139,568.75 L651.86,568.75 L634.262,598.5 L651.269,627.25 L657.989999,627.252938 C647.680526,639.700364 636.09034,651.04851 623.421414,661.095403 L639.738,633.5 L622.731,604.75 L588.564,604.75 L571.41,633.75 L588.86,663.25 L620.654299,663.255924 C614.878407,667.695723 608.886649,671.868588 602.697478,675.756065 L588.268,675.75 L581.200401,687.710518 C574.854169,690.808305 568.344903,693.623813 561.688948,696.140695 L577.589,669.249 L560.139,639.75 L525.86,639.75 L508.41,669.249 L525.565,698.25 L555.863798,698.253897 C543.322558,702.612626 530.289796,705.92091 516.87084,708.073422 C516.830507,708.013406 516.792087,707.956188 516.754548,707.898228 L516.620718,707.68211 L497.731,675.75 L462.268,675.75 L443.379282,707.68211 C443.300573,707.815166 443.217358,707.944622 443.129896,708.070331 C429.709663,705.920773 416.677182,702.612535 404.136202,698.253897 L434.434,698.25 L451.589,669.249 L434.139,639.75 L399.86,639.75 L382.41,669.249 L398.310052,696.140317 C391.654445,693.623531 385.145513,690.80815 378.799599,687.710518 L371.731,675.75 L357.302522,675.756065 C351.113351,671.868588 345.121593,667.695723 339.345701,663.255924 L371.139,663.25 L388.589,633.75 L371.435,604.75 L337.268,604.75 L320.262,633.499 L336.576586,661.093816 C323.90844,651.047315 312.318932,639.699709 302.010001,627.252938 L308.73,627.25 L325.737,598.5 L308.139,568.75 L274.564,568.75 L270.025233,576.423261 C260.860996,556.499726 254.448996,535.04839 251.27631,512.556332 L263.737,491.499 L249.349367,467.1866 C249.8647,457.760662 250.945132,448.485194 252.557367,439.393492 L263.589,420.75 L258.911598,412.849793 C260.539998,407.481355 262.358575,402.195623 264.359487,397.000439 L274.565,414.25 L308.73,414.25 L326.385,384.404 L309.435,355.75 L285.228461,355.748837 C287.954422,351.484601 290.81658,347.315834 293.808803,343.248671 L309.434,343.25 L326.237,314.845 L323.449614,310.13674 C326.565046,307.264028 329.759693,304.475937 333.029908,301.776113 L336.565,307.75 L371.434,307.75 L388.737,278.499 L383.692305,269.972115 C387.504124,268.221346 391.3718,266.571296 395.291924,265.025372 L399.565,272.25 L434.73,272.25 L447.105026,251.324334 C457.849472,249.792502 468.832187,249 480,249 Z M497.435,604.75 L462.564,604.75 L445.41,633.75 L462.86,663.25 L497.139,663.25 L514.589,633.751 L497.435,604.75 Z M560.139,568.75 L525.86,568.75 L508.41,598.25 L525.565,627.25 L560.434,627.25 L577.589,598.249 L560.139,568.75 Z M434.139,568.75 L399.86,568.75 L382.41,598.25 L399.565,627.25 L434.434,627.25 L451.589,598.25 L434.139,568.75 Z M371.435,533.75 L337.268,533.75 L320.262,562.5 L337.86,592.25 L371.139,592.25 L388.589,562.75 L371.435,533.75 Z M497.435,533.75 L462.564,533.75 L445.41,562.75 L462.86,592.25 L497.139,592.25 L514.589,562.751 L497.435,533.75 Z M622.731,533.75 L588.564,533.75 L571.41,562.75 L588.86,592.25 L622.139,592.25 L639.737,562.499 L622.731,533.75 Z M434.139,497.75 L399.86,497.75 L382.41,527.249 L399.565,556.25 L434.434,556.25 L451.589,527.249 L434.139,497.75 Z M560.139,497.75 L525.86,497.75 L508.41,527.25 L525.565,556.25 L560.434,556.25 L577.589,527.249 L560.139,497.75 Z M308.139,497.75 L274.564,497.75 L257.262,527 L274.565,556.25 L308.73,556.25 L325.737,527.5 L308.139,497.75 Z M685.139,497.75 L651.86,497.75 L634.262,527.5 L651.269,556.25 L685.434,556.25 L702.589,527.249 L685.139,497.75 Z M371.435,462.75 L337.268,462.75 L320.262,491.499 L337.861,521.25 L371.138,521.25 L388.589,491.749 L371.435,462.75 Z M497.435,462.75 L462.564,462.75 L445.41,491.749 L462.861,521.25 L497.139,521.25 L514.589,491.75 L497.435,462.75 Z M622.731,462.75 L588.564,462.75 L571.41,491.749 L588.861,521.25 L622.138,521.25 L639.737,491.499 L622.731,462.75 Z M560.139,426.75 L525.86,426.75 L508.41,456.249 L525.565,485.25 L560.434,485.25 L577.589,456.248 L560.139,426.75 Z M308.139,426.75 L274.86,426.75 L257.41,456.249 L274.565,485.25 L308.73,485.25 L325.737,456.5 L308.139,426.75 Z M685.435,426.75 L651.86,426.75 L634.262,456.5 L651.269,485.25 L685.434,485.25 L702.737,455.999 L685.435,426.75 Z M434.139,426.75 L399.86,426.75 L382.41,456.249 L399.565,485.25 L434.434,485.25 L451.589,456.249 L434.139,426.75 Z M622.731,391.75 L588.564,391.75 L571.41,420.75 L588.86,450.25 L622.139,450.25 L639.737,420.499 L622.731,391.75 Z M371.435,391.75 L337.268,391.75 L320.262,420.499 L337.86,450.25 L371.139,450.25 L388.589,420.75 L371.435,391.75 Z M497.435,391.75 L462.564,391.75 L445.41,420.75 L462.86,450.25 L497.139,450.25 L514.589,420.75 L497.435,391.75 Z M560.139,355.75 L525.86,355.75 L508.41,385.249 L525.565,414.25 L560.434,414.25 L577.588,385.249 L560.139,355.75 Z M434.139,355.75 L400.564,355.75 L382.762,385.844 L399.565,414.25 L434.434,414.25 L451.589,385.249 L434.139,355.75 Z M623.435,320.75 L588.564,320.75 L571.41,349.75 L588.86,379.25 L622.139,379.25 L640.089,348.905 L623.435,320.75 Z M497.435,320.75 L462.564,320.75 L445.41,349.75 L462.86,379.25 L497.139,379.25 L514.589,349.75 L497.435,320.75 Z M371.435,320.25 L337.564,320.25 L320.262,349.499 L337.565,378.75 L371.435,378.75 L388.737,349.5 L371.435,320.25 Z M560.139,284.75 L525.86,284.75 L508.41,314.249 L525.565,343.25 L560.434,343.25 L577.589,314.248 L560.139,284.75 Z M434.139,284.75 L399.564,284.75 L382.762,313.154 L400.565,343.25 L434.434,343.25 L451.589,314.249 L434.139,284.75 Z M497.435,249.75 L462.564,249.75 L445.41,278.75 L462.86,308.25 L497.139,308.25 L514.589,278.75 L497.435,249.75 Z" id="path-1"></path>
    </defs>
    <g id="com.neo/drivers/NEO_NAS-PD07Z1(5in1sensor)/assets/icon" stroke="none" stroke-width="1" fill="none" fill-rule="evenodd">
        <path d="M480,7 C741.230687,7 953,218.769313 953,480 C953,741.230687 741.230687,953 480,953 C218.769313,953 7,741.230687 7,480 C7,218.769313 218.769313,7 480,7 Z M480,47 C240.860703,47 47,240.860703 47,480 C47,719.139297 240.860703,913 480,913 C719.139297,913 913,719.139297 913,480 C913,240.860703 719.139297,47 480,47 Z M480,79 C701.466185,79 881,258.533815 881,480 C881,701.466185 701.466185,881 480,881 C258.533815,881 79,701.466185 79,480 C79,258.533815 258.533815,79 480,79 Z M480,99 C269.57951,99 99,269.57951 99,480 C99,690.42049 269.57951,861 480,861 C690.42049,861 861,690.42049 861,480 C861,269.57951 690.42049,99 480,99 Z M480,239 C613.100625,239 721,346.899375 721,480 C721,613.100625 613.100625,721 480,721 C346.899375,721 239,613.100625 239,480 C239,346.899375 346.899375,239 480,239 Z M480,259 C357.94507,259 259,357.94507 259,480 C259,602.05493 357.94507,701 480,701 C602.05493,701 701,602.05493 701,480 C701,357.94507 602.05493,259 480,259 Z" id="Combined-Shape" fill="#000000" fill-rule="nonzero"></path>
        <mask id="mask-2" fill="white">
            <use xlink:href="#path-1"></use>
        </mask>
        <use id="Combined-Shape" fill="#000000" xlink:href="#path-1"></use>
    </g>
</svg>