<svg height="93.77mm" viewBox="0 0 422.01 265.81" width="148.88mm" xmlns="http://www.w3.org/2000/svg"><g stroke="#1d1d1b" stroke-miterlimit="10" transform="translate(-8.38 -8.84)"><path d="m289.94 10.52a340.56 340.56 0 0 1 72.4 5.48 162.91 162.91 0 0 1 38.3 12c12.68 5.71 19.88 15.71 23.93 28.52 2.43 7.78 3.07 15.83 3.43 23.9.39 8.32 1 16.64.85 25-.26 20.15-.72 40.31-5.9 60-.76 2.88-2.63 5-4.2 7.3a94.7 94.7 0 0 1 -21.28 22.28c-9.31 7.11-19.92 11.65-31.11 15-36.22 10.88-72.38 22-108.6 32.85-26.64 8-53.13 16.55-79.95 23.93-10.84 3-21.85 5.48-33.12 6.08a178.76 178.76 0 0 1 -34.91-1.35 370.08 370.08 0 0 1 -45.73-9.39c-15.51-4.3-28.13-12.64-37.79-25.51-4.71-6.28-6.74-13.7-8.76-21.08-2.68-9.79-5.17-19.64-6.22-29.77-.41-4-.7-8-.78-12-.35-17.74-.91-35.49-.44-53.23.36-13.47.12-27 2.07-40.37 1.87-12.52 5.7-24.82 14.87-34.29 8.66-8.87 19.47-14.08 31.66-16.48 9.19-1.81 18.52-2.1 27.8-2.89 10.7-.92 21.37-2.16 32-3.29 11.59-1.23 23.16-2.57 34.75-3.77 13.25-1.36 26.5-2.68 39.76-3.87q17.53-1.59 35.1-2.76c13.62-.9 27.25-1.68 40.89-2.23 7.7-.32 15.37-.06 20.98-.06zm-266.94 196.98a3.59 3.59 0 0 0 .5 2c.54 4.08 2 7.9 3.25 11.78 4.54 14.22 14.74 23.45 27.68 29.58 11.65 5.51 24.37 7.87 37 10.33 17.38 3.39 34.82 5.86 52.58 3.69 4.93-.61 10-1 14.45-3.56 12.31-7 19.27-18 23.47-31.15 2.32-7.27 2.86-14.81 3.81-22.34 1.86-14.7 2-29.41 1.55-44.14-.48-17.8-1.35-35.6-2.81-53.36-1-12.84-4-25.15-10.15-36.55-4.56-8.44-10.65-15.42-19.34-20a102.82 102.82 0 0 0 -24.16-8.66 269.93 269.93 0 0 0 -40.74-6.12c-11.38-.9-22.74-1.63-34.12 0-13.61 2-24 8.57-30.2 21.1a65.78 65.78 0 0 0 -6.11 21.54c-1.84 15.39-2.21 30.88-2.5 46.36-.19 10.24.15 20.49.3 30.73.15 9.91.22 19.82 1.66 29.65.94 6.49 1.82 12.93 3.88 19.12zm269.76-189.83c-7.42 0-14.84-.25-22.24 0-16.47.67-32.93 1.51-49.35 2.83-11 .88-22.08 1.64-33.1 2.67-14.16 1.33-28.31 2.84-42.46 4.32q-21.6 2.27-43.19 4.63a6.78 6.78 0 0 0 -1.36.45c.34.51.87.26 1.31.32 15.36 2.11 30.63 4.48 45.31 9.84 10.87 4 20.48 9.69 27.49 19.12 10.11 13.59 14.7 29.26 16.29 45.81 1.74 18.15 2.36 36.38 3 54.59a331.32 331.32 0 0 1 -2.46 55.08c-1.76 13.41-6 26-14.51 36.73-1.5 1.88-3.16 3.64-4.74 5.46-.26.3-.79.57-.54 1 .09.16.76.07 1.14 0 2.43-.58 4.88-1.09 7.27-1.81q30.27-9.1 60.51-18.28 40.05-12.14 80.11-24.26a9.38 9.38 0 0 0 4.48-3 94.75 94.75 0 0 0 12.9-19.56c9.65-18.9 15.66-39.08 20.74-59.57a581 581 0 0 0 11.45-61.34c.85-6.21 1.74-12.41.88-18.65-1.69-12.68-8.94-21.65-19.69-27.92-4.81-2.79-9.69-5.79-15.34-6.46a265.65 265.65 0 0 0 -43.9-2zm128.74 86.57c.19-6.46-.17-14.95-.65-23.43-.4-7.23-.75-14.48-2.94-21.47-3-9.55-7.41-18-16.77-22.94-15.92-8.4-33.14-12.4-50.74-15.22-.31-.05-.89 0-.92.08-.18.55.39.61.71.78a52.42 52.42 0 0 1 10.56 7.08c8.72 7.63 13.53 17.11 13.9 28.8.3 9.33-1.7 18.38-3 27.51-4.17 28.31-10.21 56.21-19.59 83.29-5.33 15.4-11.77 30.29-21.84 43.33-.35.45-.64.94-.95 1.42.7.31 1.28-.15 1.88-.33 10.45-3.14 20.83-6.53 31.35-9.41 17.77-4.88 32.94-13.81 44.9-27.93 4.7-5.55 8.81-11.26 10.25-18.8 3.16-16.8 3.87-33.72 3.85-52.76z" stroke-width="3"/><path d="m23.5 209.5a3.59 3.59 0 0 0 -.5-2c-1.29-9.73-2.51-19.48-3.32-29.27a146.32 146.32 0 0 1 -.7-15c0-1.86.79-2.5 2.64-2.24q29.55 4.14 59.11 8.21 28.2 3.87 56.41 7.69l29.69 4.11c2.12.29 3.3 1.35 3.21 3.64-.57 15-1 30-4.92 44.58a46.54 46.54 0 0 1 -5.75 13.5c-4.13 6.36-10.66 9.12-17.66 10.88-7.27 1.82-14.65 1.59-22.09 1.11a310.22 310.22 0 0 1 -35.2-4.12 162 162 0 0 1 -36.83-10.83c-11.3-5-18.15-14-22.27-25.34-.59-1.65-1.21-3.28-1.82-4.92zm105.7 43c1.58.21 4.22-.28 6.85-.63 7.39-1 14.42-2.94 19.63-8.78 3.41-3.83 5.14-8.57 6.52-13.37 4.16-14.47 4.46-29.41 5.15-44.3.05-1.29-.58-1.7-1.78-1.85-4.14-.5-8.26-1.09-12.38-1.66l-52.94-7.3-56.91-7.84c-6.26-.87-12.54-1.71-18.8-2.62-2.16-.32-3.13.35-2.89 2.65s.25 4.49.41 6.73c.77 10.8 1.57 21.62 3.65 32.24 2.39 12.27 7.95 22.79 19.08 29.53a70 70 0 0 0 14.24 6c22.39 7.55 45.6 10.13 70.17 11.19z" stroke-width="3"/><path d="m92.44 75.31c8.31 0 14.56 4.13 19.3 10.41 11.91 15.76 11.74 39.63-.59 55-8.92 11.15-22.52 13.29-33.72 4.06a32.52 32.52 0 0 1 -9.88-14.19c-5.71-15.71-4.67-30.85 5.21-44.69 4.7-6.57 11.24-10.58 19.68-10.59zm-25.44 38.13a39.81 39.81 0 0 0 7.4 24.2c4.23 5.86 9.78 9.85 17.25 10.14 7.85.3 13.76-3.67 18.21-9.69 10.81-14.63 10.6-36.82-.54-51.17-4.56-5.84-10.54-9.36-18.32-8.92-6.56.41-11.52 3.76-15.45 8.61-6.17 7.58-8.62 16.46-8.55 26.83z" stroke-width="2"/><path d="m149.07 118.65c0 4.25-2.82 7.52-6.42 7.47s-6.19-3.31-6.21-7.42c0-4.38 2.83-7.84 6.42-7.77s6.21 3.45 6.21 7.72z" stroke-width=".75"/><g stroke-width="2"><path d="m49.65 107.07c0 .26 0 .76-.06 1.26-.36 3.32-2.94 6-5.85 6.18-2.71.15-5.36-2.08-6.19-5.21a11 11 0 0 1 -.29-1.72c-.42-4.24 2.4-8.23 6-8.45s6.38 3.2 6.39 7.94zm-2.65.13c0-3.19-1.36-5.09-3.39-5.15s-3.61 1.95-3.61 4.81a6.46 6.46 0 0 0 .26 2c.53 1.56 1.34 3 3.25 3s2.69-1.46 3.21-3a7 7 0 0 0 .28-1.66z"/><path d="m70.38 113.06a37 37 0 0 1 6.68-21.82c8.27-11.93 24.12-12.22 32.76-.53 9.38 12.69 9.48 31.74.23 44.49-8.81 12.12-24.72 11.88-33.18-.51a36.19 36.19 0 0 1 -6.49-21.63zm22.62 28.43c7 0 11.58-3.34 15-8.2 8.54-12 8.32-29.54-.62-41.2-4.22-5.5-9.86-8.4-17.05-7-5.14 1-8.83 4.25-11.65 8.42-8 11.79-7.68 28.73.75 40.23 3.5 4.73 8.14 7.67 13.57 7.75z"/></g></g></svg>