<svg height="960" viewBox="0 0 960 960" width="960" xmlns="http://www.w3.org/2000/svg"><g fill="#000" fill-rule="nonzero"><path d="m467.000846 106.457154c11.289843 1.619226 21.915143 4.021727 31.470261 7.1568 10.718015 3.516623 20.217848 7.976872 28.246561 13.587594.754061.526962 1.496123 1.06421 2.225644 1.611969l.409688.311483.738784-.023031c1.875075-.050899 3.757737-.082807 5.64662-.09558l1.890906-.006389c27.149336 0 53.04549 3.946717 73.590727 11.31806 11.864345 4.25676 22.149526 9.689668 30.530954 16.678522 8.541965 7.122716 15.127362 15.8545 18.651721 26.068701l.167288.496717.04455.097964c2.093059 4.744287 3.291043 9.971991 3.3801 15.469006l.00535.660921v295.609958c0 4.863992-.868111 9.525036-2.457782 13.836746l-.029218.076405-.121693.452512c-2.992265 10.852761-9.411569 20.22566-18.024067 27.849341l-.439808.386136c-8.295102 7.223483-18.541722 12.818166-30.408736 17.207834-16.584373 6.134643-36.783067 9.994735-58.379001 11.29776l-1.139695.065417v321.715908c0 16.839864-7.78478 30.909605-19.851504 41.48312l-.438005.380651c-8.184043 7.054071-18.251447 12.486724-29.880729 16.72636-19.88387 7.248974-45.000808 11.121961-71.329762 11.121961s-51.445892-3.872987-71.329762-11.121961c-11.629282-4.239636-21.696686-9.672289-29.880729-16.72636-12.316014-10.615538-20.289509-24.821017-20.289509-41.863771v-714.575816c0-.296248 0-.592488.009873-.888663l.010918-.491344c.006584-.296273.01646-.592463.029627-.888517.737108-16.574119 8.899642-30.144786 21.10277-40.327695 8.170492-6.817873 18.154549-12.095519 29.644824-16.221039 10.49583-3.768469 22.424193-6.605204 35.201999-8.437961l-.00074 40.502503c-26.846381 4.7436-45.474172 14.699852-45.988352 26.261372l-.010919.491344v714.575816c0 16.409535 36.488793 29.712092 81.5 29.712092s81.5-13.302557 81.5-29.712092l.000055-362.597551c7.800081.851926 16.067942 1.309643 24.629255 1.309643l1.416038-.004179c46.638642-.275477 84.213273-14.134593 84.213273-31.190842l-.009621-.405979.751.000849v-295.609958l-.751-.000891-.001851-.109846c-.756175-16.990601-38.798994-30.679154-85.617839-30.679154-8.74905 0-17.191637.478011-25.140034 1.367136-3.174653-10.330343-20.878226-19.05921-45.488223-23.407703z"/><path d="m336 164c5.42924 0 9.847932 4.326671 9.996158 9.720095l.003842.279905c0 3.889988 7.279156 10.107132 21.774459 15.34363 16.885855 6.100097 40.160212 9.65637 65.110059 9.65637 3.92485 0 7.818384-.087501 11.665273-.260867 5.517248-.248644 10.191426 4.022404 10.440069 9.539651.248644 5.517248-4.022403 10.191426-9.539651 10.44007-4.147162.186898-8.340909.281146-12.565691.281146-58.789257 0-106.884518-17.374645-106.884518-45 0-5.522847 4.477153-10 10-10z"/><path d="m537.5 149c-24.680316 0-48.058171 3.508808-66.183713 9.887645-9.730488 3.424405-17.96284 7.668678-24.3603 12.819987l-.441452.359277c-7.458337 6.13533-12.545147 13.679452-14.055221 22.547194l-.079314.490897-.037735.190373c-.224716 1.200259-.342265 2.438543-.342265 3.704627v295l.002908.344389.003092.121611-.006.534c0 10.736696 5.213469 19.974183 13.702519 27.251159 6.340528 5.435222 14.633546 9.885909 24.52265 13.471432 18.270026 6.62422 42.091729 10.277409 67.274831 10.277409s49.004805-3.653189 67.274831-10.277409c9.889104-3.585523 18.182122-8.03621 24.52265-13.471432l.414845-.359463c6.182803-5.415588 10.565718-11.893988 12.370751-19.250003l.041923-.178693.042417-.088191c1.176346-2.547601 1.832583-5.384609 1.832583-8.374809v-295l-.00291-.344643c-.065862-3.898056-1.246888-7.524441-3.237729-10.574l-.143361-.215357-.102555-.253755c-2.520632-6.061097-6.84329-11.374378-12.469432-15.904613-6.39746-5.151309-14.629812-9.395582-24.3603-12.819987-18.125542-6.378837-41.503397-9.887645-66.183713-9.887645zm0 20c46.298117 0 84.001361 13.342337 85.456415 30.000662l1.043585-.000662v295l-1.043585.000662c.028984.331824.043585.664963.043585.999338 0 17.120827-38.279654 31-85.5 31s-85.5-13.879173-85.5-31c0-.334375.014601-.667514.043585-.999338l-.043585-.000662v-295l.043585.000662c1.455054-16.658325 39.158298-30.000662 85.456415-30.000662z"/><path d="m432 4c-13.05954 0-25.419646 2.13867976-34.899027 6.0166084l-.447723.185297c-8.022431 3.3589136-14.061614 7.9906151-16.885744 13.9139786l-.047506.102116-.11852.0966912c-2.200843 1.8343446-3.60148 4.5962585-3.60148 7.6853088v122c0 18.433836 25.581239 29 56 29s56-10.566164 56-29l-.006768-.494621c-.049571-1.810304-.370779-3.583398-.941551-5.292244l-.051681-.146135v-116.0670653c-.000015-2.2465717-.740855-4.3201101-1.991552-5.9896486l-.075143-.2157866c-2.464654-6.8474689-9.039321-12.0981358-18.034278-15.7778911-9.479381-3.87792864-21.839487-6.0166084-34.899027-6.0166084zm0 20c10.597294 0 20.409058 1.697738 27.32637 4.5275475 2.917536 1.1935375 5.062966 2.492669 6.263691 3.6540096l.109578.1081718c.137866.1390416.243067.2570647.321361.3542711l.013275.1899063c.098367 1.1915125.405625 2.3237864.885067 3.3601143l.080658.1679794.000771 113.680628.006695.365819c.04012 1.09589.260173 2.176083.649794 3.197659l.10274.254894-.016702.020028c-.095776.108207-.21026.228701-.34487.360153-1.303054 1.272491-3.592362 2.672139-6.689118 3.951234-7.281004 3.007371-17.585449 4.807585-28.70931 4.807585s-21.428306-1.800214-28.70931-4.807585c-3.096756-1.279095-5.386064-2.678743-6.689118-3.951234l-.127954-.12775c-.1618-.165332-.288662-.310396-.383946-.432037l-.089672-.122394v-115.56l.008471-.0093168c1.094359-1.4608562 1.798354-3.2310259 1.957254-5.1557769l.012275-.1899063c.098293-.1206521.238921-.2757561.431939-.4624429 1.200725-1.1613406 3.346155-2.4604721 6.263691-3.6540096 6.917312-2.8298095 16.729076-4.5275475 27.32637-4.5275475z"/><path d="m538.430202 148.042614c-25.287351 0-49.207277 3.679009-67.550678 10.349337-9.924854 3.609037-18.246494 8.088183-24.605203 13.554974-8.497026 7.305173-13.709251 16.56754-13.709251 27.319373 0 10.751834 5.212225 20.0142 13.709251 27.319373 6.358709 5.466791 14.680349 9.945937 24.605203 13.554974 18.343401 6.670328 42.263327 10.349337 67.550678 10.349337s49.207277-3.679009 67.550678-10.349337c9.924853-3.609037 18.246494-8.088183 24.605202-13.554974 8.497026-7.305173 13.709251-16.567539 13.709251-27.319373 0-10.751833-5.212225-20.0142-13.709251-27.319373-6.358708-5.466791-14.680349-9.945937-24.605202-13.554974-18.343401-6.670328-42.263327-10.349337-67.550678-10.349337zm0 20c47.422002 0 85.865131 13.97932 85.865131 31.223684 0 17.244365-38.443129 31.223684-85.865131 31.223684-47.422003 0-85.865132-13.979319-85.865132-31.223684 0-17.244364 38.443129-31.223684 85.865132-31.223684z"/><path d="m431.442714 4.49237473c-13.355015 0-25.988817 2.10679326-35.667618 5.92276917-11.837553 4.6670887-19.586906 11.8905569-19.586906 21.9193361 0 10.0287791 7.749353 17.2522473 19.586906 21.9193361 9.678801 3.8159759 22.312603 5.9227692 35.667618 5.9227692s25.988817-2.1067933 35.667617-5.9227692l.891135-.3593818c11.333825-4.6752502 18.695771-11.7850683 18.695771-21.5599543 0-10.0287792-7.749352-17.2522474-19.586906-21.9193361-9.6788-3.81597591-22.312602-5.92276917-35.667617-5.92276917zm0 19.99999997c10.97632 0 21.146549 1.6959717 28.331943 4.5288941l.41019.1643405c2.431207.9898573 4.321774 2.045857 5.56839 3.0321318l.142953.1166336-.142953.1168442c-1.315872 1.0410678-3.349234 2.159823-5.97858 3.1964723-7.185394 2.8329223-17.355623 4.5288941-28.331943 4.5288941s-21.14655-1.6959718-28.331943-4.5288941l-.41019-.1643405c-2.431207-.9898573-4.321774-2.045857-5.56839-3.0321318l-.144001-.1168442.144001-.1166336c1.315872-1.0410679 3.349234-2.159823 5.97858-3.1964723 7.185393-2.8329224 17.355623-4.5288941 28.331943-4.5288941z"/></g></svg>