<svg width="960" height="960" viewBox="0 0 960 960" fill="none" xmlns="http://www.w3.org/2000/svg">
<path d="M141.144 24.0791C144.536 22.262 148.38 21.462 152.216 21.7754L153.048 21.8438L930.124 85.3477C940.503 86.1961 948.495 94.8673 948.495 105.281V855.021C948.495 865.437 940.499 874.11 930.116 874.954L151.008 938.316C145.558 938.76 140.365 936.96 136.433 933.618L81.4883 904.239C74.9816 900.76 70.9181 893.981 70.918 886.603V776.17L24.0078 759.095C16.1074 756.219 10.8488 748.708 10.8486 740.301V219.729C10.8488 211.356 16.0646 203.869 23.9189 200.968L70.918 183.608V73.6709C70.918 66.2977 74.9752 59.5226 81.4746 56.041L139.943 24.7217L141.144 24.0791ZM169.387 896.688L908.494 836.579V123.712L169.387 63.3115V896.688ZM110.918 85.6465V191.475C111.107 192.243 111.209 193.046 111.209 193.872V761.85C111.209 762.676 111.107 763.478 110.918 764.246V874.616L149.387 895.185V65.0391L110.918 85.6465ZM223.893 121.582L506.359 141.131C511.602 141.494 515.669 145.852 515.669 151.106V807.86C515.669 813.11 511.609 817.466 506.373 817.836L223.906 837.787C221.139 837.982 218.414 837.019 216.385 835.128C214.355 833.236 213.202 830.586 213.202 827.812V131.559C213.202 128.787 214.353 126.138 216.38 124.247C218.407 122.356 221.127 121.391 223.893 121.582ZM233.201 610.697L233.202 817.08L495.669 798.542V604.663L233.201 610.697ZM572.838 145.713L855.305 163.401C860.574 163.732 864.68 168.102 864.68 173.382V784.584C864.679 789.823 860.636 794.174 855.411 794.558L572.944 815.263C570.173 815.466 567.441 814.507 565.405 812.615C563.37 810.723 562.213 808.069 562.213 805.29V155.693C562.213 152.933 563.354 150.294 565.366 148.404C567.378 146.514 570.083 145.54 572.838 145.713ZM582.213 602.834V794.529L844.68 775.29V596.724L582.213 602.834ZM50.8486 233.662V726.297L91.209 740.988V218.754L50.8486 233.662ZM312.443 622.863C317.964 622.708 322.566 627.058 322.721 632.579C322.875 638.1 318.525 642.7 313.005 642.855L272.118 644.004C266.598 644.159 261.997 639.809 261.842 634.288C261.687 628.768 266.037 624.167 271.558 624.012L312.443 622.863ZM657.98 612.705C663.501 612.559 668.095 616.916 668.241 622.437C668.387 627.957 664.03 632.551 658.51 632.697L617.287 633.788C611.766 633.934 607.172 629.577 607.026 624.056C606.88 618.535 611.237 613.941 616.758 613.795L657.98 612.705ZM233.202 590.691L495.669 584.657V375.497L233.201 369.362L233.202 590.691ZM582.213 582.828L844.679 576.719L844.68 383.516L582.213 377.603V582.828ZM658.302 398.407C663.824 398.475 668.247 403.007 668.179 408.529C668.111 414.051 663.579 418.473 658.057 418.405L616.899 417.899C611.377 417.831 606.956 413.3 607.023 407.777C607.091 402.255 611.623 397.833 617.146 397.901L658.302 398.407ZM312.94 393.688C318.462 393.808 322.841 398.381 322.722 403.902C322.602 409.424 318.029 413.803 312.508 413.684L271.518 412.797C265.996 412.677 261.617 408.103 261.736 402.582C261.856 397.061 266.43 392.681 271.951 392.801L312.94 393.688ZM582.213 357.598L844.68 363.51V182.774L582.213 166.339V357.598ZM233.202 349.357L495.669 355.491V160.438L233.202 142.274V349.357ZM617.869 189.222L658.673 191.621C664.186 191.946 668.393 196.678 668.068 202.191C667.744 207.704 663.012 211.911 657.499 211.587L616.695 209.187C611.182 208.862 606.976 204.13 607.3 198.617C607.624 193.104 612.356 188.898 617.869 189.222ZM272.271 169.676L313.172 172.087C318.685 172.412 322.891 177.145 322.566 182.658C322.241 188.171 317.508 192.378 311.995 192.053L271.093 189.641C265.58 189.315 261.374 184.582 261.699 179.069C262.024 173.556 266.757 169.351 272.271 169.676Z" fill="black"/>
</svg>
