<svg height="960" viewBox="0 0 960 960" width="960" xmlns="http://www.w3.org/2000/svg"><path d="m121.802099 156.375339 98.091901 7.670487 16.551675 1.135869c32.6949 2.245468 58.448032 28.131539 61.026644 60.272364 37.587243 3.102574 76.03418 5.941261 115.337292 8.516292 14.022273.9187 27.822512 1.780664 41.400701 2.585894 5.705932-27.902094 30.912921-48.387638 60.305836-47.267991l79.005132 3.009497c.409989.015618.819714.037542 1.229029.065766l13.370006.921914c28.232485 1.946739 50.86426 22.951221 55.678565 49.925282.754511.005925 1.569668.011752 2.449383.018052 38.776099.277667 66.673337-.163172 93.970701-2.224741l.000143-.949485.007054-.911648c.464997-30.031745 23.865172-54.79397 53.930672-56.860273l11.445167-.78572 68.10772-5.329812c23.761944-1.859095 45.215146 11.417449 54.881024 31.726607l35.740388-8.582516c5.370176-1.289593 10.768986 2.018373 12.058579 7.388549 1.289593 5.370177-2.018374 10.768987-7.38855 12.05858l-35.200049 8.453561c.009851.116671.01935.233456.028496.350353.113551 1.451354.170392 2.906588.170392 4.362377v3.38437l-.006073.828143c-.198163 13.505221-5.235423 25.963953-13.553205 35.58304l-.173722.196748.001 6.915.139642.194333c4.61632 6.514739 7.33626 14.477834 7.33626 23.096044v16.6944l-.005235.65356c-.149904 9.349973-3.510559 17.930166-9.03485 24.675491l-.091817.109172-.78 6.095 14.943793 70.272749c.279866 1.316048.493152 2.645379.639046 3.982922.389328 3.569354.585161 7.167133.585161 10.780885 0 55.148281-45.126464 99.613546-100.5 99.613546s-100.5-44.465265-100.5-99.613546c0-3.613752.195833-7.211531.585161-10.780885.069289-.635235.15379-1.26872.253429-1.899907l.87796-5.561604c.099875-.632675.214931-1.26286.34507-1.890009l.186347-.877905c.063438-.2923.128196-.584261.194271-.875877l.095762-.413369 14.142-63.953-.388-4.687-.125382-.147836c-5.732697-6.930785-9.166618-15.81859-9.166618-25.482387v-16.6944l.005575-.675183c.144756-8.759621 3.101059-16.819448 7.995572-23.3314l.128853-.168794v-2.703l-.338102-.517951c-2.69271-4.19118-4.750066-8.829408-6.036049-13.778665-27.938022 2.113718-56.32039 2.562607-95.650798 2.28097-.471223-.003375-.923825-.006613-1.358869-.00972l.000115.996254c0 10.58847-3.347624 20.39506-9.042231 28.41913l-.117066.16184-.001 11.483.248701.294921c5.586937 6.751108 9.00382 15.373228 9.159724 24.807043l.005575.67521v19.394259c0 10.306871-3.906176 19.731148-10.341424 26.839839l-.217576.235728-.734 8.894 16.513 74.923.115801.498502c.072074.319139.142711.638656.211908.958542l.203264.960758c.12933.625306.243668 1.253619.342916 1.884399l1.015821 6.456129c.099006.629236.182967 1.260747.251811 1.893993.424786 3.90726.638479 7.846109.638479 11.803182 0 60.413801-49.350721 109.201739-110 109.201739s-110-48.787938-110-109.201739c0-3.957073.213693-7.895922.638479-11.803182.144966-1.333425.356909-2.658714.635025-3.970846l17.530496-82.705477-1.289-10.108-.043906-.047282c-6.227005-6.936452-10.061601-16.057656-10.221956-26.05974l-.005236-.653545v-19.394259c0-9.299394 3.16688-17.835948 8.46592-24.61316l.190178-.239014.001-12.76-.056158-.057861c-8.999312-9.545941-14.757784-22.099651-15.706093-35.858539-13.654228-.809014-27.534002-1.675824-41.636679-2.599792-38.781778-2.540875-76.735702-5.337983-113.861839-8.391359-.457576 11.383131-4.620189 21.811812-11.313703 30.114659l-.021528.025962-.001 16.06c7.075419 7.086377 11.512273 16.807213 11.690425 27.588008l.005575.675166v24c0 11.380887-4.762658 21.685618-12.433926 28.984989l-.370074.345837-1.298 15.66 20.868 94.677.161252.697988c.083106.367952.164554.73634.244342 1.105155l.234378 1.107719c.129352.625357.24371 1.253723.342976 1.884556l1.26252 8.02331c.099023.62929.182999 1.260856.251856 1.894158.490086 4.507496.736676 9.052284.736676 13.619288 0 69.692054-56.962689 126-127 126s-127-56.307946-127-126c0-4.567004.2465899-9.111792.736676-13.619288.1449916-1.33354.3569718-2.658942.6351368-3.971182l22.1221872-104.358704-2.202-17.204-.3862395-.373753c-7.2105925-7.115944-11.7262136-16.947301-11.9005246-27.819505l-.0052359-.653568v-24c0-10.432384 3.985593-19.904831 10.4959759-27.010284l.2590241-.27889.001-23.162-.1623599-.1503c-11.9183381-11.266668-19.3303619-27.121621-19.5867646-44.529307l-.0068755-.934022.0013949-3.928083c-31.6532762-4.282182-66.9763812-9.450711-105.9724959-15.505709-5.4574516-.847388-9.1946461-5.958471-8.3472576-11.415922.8473885-5.457452 5.9584712-9.194646 11.4159227-8.347258 38.95931314 6.049284 74.222081 11.208155 105.7850962 15.47649 8.5711943-27.348443 35.1317529-46.168315 64.9194387-43.839376zm121.733799 235.329266h-125.504167l-23.52941 110.999702c-.3320034 3.053554-.502321 6.154962-.502321 9.295693 0 47.496488 38.951227 86 87 86s87-38.503512 87-86c0-3.140731-.170318-6.242139-.502321-9.295693l-1.26252-8.02331c-.15598-.754086-.321943-1.504578-.497748-2.251335zm-30.937103 22.034816c5.494636.557511 9.496966 5.463746 8.939455 10.958382l-13.722589 135.245016c-.557511 5.494636-5.463746 9.496966-10.958382 8.939455-5.494636-.557512-9.496967-5.463747-8.939455-10.958383l13.722589-135.245015c.557511-5.494636 5.463746-9.496966 10.958382-8.939455zm-61.172517 10.812716 16.180023 133.175143c.666097 5.482533-3.238396 10.466981-8.720928 11.133078-5.482532.666096-10.466981-3.238396-11.133077-8.720929l-16.180024-133.175143c-.666096-5.482533 3.238396-10.466981 8.720929-11.133078 5.482532-.666096 10.46698 3.238397 11.133077 8.720929zm461.952529-36.804308h-101.069l.032806.252171-18.938447 89.318283c-.267129 2.457107-.404166 4.952722-.404166 7.479978 0 38.219065 31.340068 69.201739 70 69.201739s70-30.982674 70-69.201739c0-2.527256-.137037-5.022871-.404166-7.479978l-1.015821-6.456128c-.125501-.606791-.259035-1.21069-.400487-1.811585l-17.863286-81.05057h.041922zm-17.704038 6.840748c5.494636.557511 9.496967 5.463746 8.939455 10.958382l-11.065029 109.053041c-.557512 5.494637-5.463747 9.496967-10.958383 8.939456-5.494636-.557512-9.496966-5.463747-8.939455-10.958383l11.06503-109.053041c.557511-5.494636 5.463746-9.496967 10.958382-8.939455zm-47.598657 10.411858 13.04655 107.384027c.666096 5.482533-3.238397 10.466981-8.720929 11.133078-5.482532.666096-10.466981-3.238396-11.133077-8.720929l-13.046549-107.384027c-.666097-5.482533 3.238396-10.466981 8.720928-11.133078 5.482532-.666096 10.466981 3.238396 11.133077 8.720929zm348.574736-53.197126-86.613041-.00048.016508.197171h-.041922l-12.655586 57.228829-3.51 16.561-.497492 3.15303c-.197893 1.814283-.313181 3.652939-.342081 5.512241l-.007234.931354c0 32.923652 27.086773 59.613546 60.5 59.613546.311411 0 .622273-.002318.932568-.006938 32.803675-.626436 59.200333-27.10864 59.200333-59.685247 0-2.180177-.118228-4.333057-.348692-6.452718l-.876394-5.569478c-.108275-.523458-.22348-1.044421-.345518-1.562792zm-60.902955 22.432649 11.231559 92.445139c.666097 5.482532-3.238396 10.466981-8.720928 11.133077-5.482532.666097-10.466981-3.238396-11.133077-8.720928l-11.23156-92.44514c-.666096-5.482532 3.238396-10.46698 8.720929-11.133077 5.482532-.666096 10.46698 3.238396 11.133077 8.720929zm39.736323-10.179671c5.494636.557511 9.496966 5.463746 8.939455 10.958382l-9.525702 93.881966c-.557511 5.494636-5.463746 9.496967-10.958382 8.939455-5.494636-.557511-9.496967-5.463746-8.939455-10.958382l9.525701-93.881966c.557512-5.494636 5.463746-9.496967 10.958383-8.939455zm-760.974409.142542.981018 7.666687c.83386-.106277 1.682059-.160911 2.540906-.160911h125.504167c.555544 0 1.106664.022866 1.652357.067792l.602552-7.271568-21.076988.837264c-.302381.012012-.604996.01716-.90761.015763l-62.230595-.354179c-.075673-.000431-.151342-.00129-.227006-.00258zm510.490193-34.142899-9.413.276826-.000193-.124927-17.978885.528273h-50.178822c-13.762228 0-26.605704-.171846-38.530428-.515536l.000502.123269c-2.941141-.085443-5.826231-.181411-8.655272-.287905l-.000095 19.227899 47.185293.804357 50.178822.285327 27.391885-1.088684zm-367-10.05593-34.080069 1h-62.230595c-16.675971 0-32.264216-.203451-46.764734-.610352l-1.170041-.033342-.028965-.000838c-1.345884-.038972-2.68232-.079711-4.009306-.122217-1.016157-.032551-2.02599-.06611-3.030291-.100705-.435112-.014988-.869197-.03017-1.302242-.045547-.15124-.00537-.303182-.010794-.454996-.016242-.645436-.02316-1.288255-.046742-1.928761-.070757v24l10.755.182826 47.934336.817174 62.230595.353856 22.384876-.889027 11.695193-.464829zm542-17.877725-.000193 16.580554 39.836259.679912 43.198121.245633 23.657093-.939795-.000473-16.52875-.788573.029504c-1.850746.065358-3.728725.12562-5.633938.180784l-.000489-.153288-17.23362.506021h-43.198121c-11.28681 0-21.855795-.134263-31.706953-.40279l.000887.040838zm-304.374047-63.33273-.045575.080598c8.146348.427215 16.207073.832556 24.182172 1.216023 5.516474.26525 9.773433 4.952262 9.508184 10.468737-.265249 5.516474-4.952262 9.773433-10.468736 9.508183-8.13274-.391047-16.353744-.804735-24.663015-1.241063 2.262168 6.076924 7.697319 10.664635 14.422135 11.63189l.339564.045618-.00305 39.712542c11.886148.349106 24.731059.524029 38.531468.524029l49.864625.000663 18.293082-.537936.000207-36.82476c5.058532 0 9.159283-4.100751 9.159283-9.159283v-10.264333c0-10.936974-8.466538-20.007417-19.377604-20.759777l-13.370006-.921914-79.005132-3.009497c-7.350202-.279987-13.895017 3.596934-17.367602 9.53028zm-397.1956559-33.249451-.0260334.037987c6.8482633.838022 13.4771773 1.623265 19.8866973 2.355726 5.487134.627053 9.427009 5.583582 8.799955 11.070717-.627053 5.487135-5.583582 9.427009-11.070717 8.799956-7.065819-.807461-14.393758-1.678263-21.9838789-2.612408.5888851 10.693358 8.6695849 19.556548 19.3560459 21.059988l.363027.04811-.001305 54.047625c14.223875.417857 29.545457.635157 45.961843.651241l63.924069.000964 22.664807-.666171.000271-45.526559c6.284843 0 11.379715-5.094872 11.379715-11.379715v-12.656614c0-13.533285-10.47836-24.755976-23.97984-25.683251l-16.706584-1.147399-98.314139-7.686651c-8.195498-.640762-15.720005 3.115782-20.2539329 9.286454zm798.3994239 10.505127-68.328587 5.345917-11.601703.797347c-8.252436.567162-14.881055 6.66354-16.367815 14.521007 6.288304-.891034 12.394846-1.880549 18.31696-2.972414 5.431307-1.001374 10.646025 2.589797 11.647399 8.021103 1.001374 5.431307-2.589797 10.646025-8.021103 11.647399-5.594477 1.031458-11.334295 1.973783-17.217136 2.83092.889044.34708 1.858091.53771 2.871661.53771l-.000207 25.538263c9.816059.27337 20.385965.410377 31.706876.410377l42.884086.000838 17.547655-.515859-.000214-31.351158.334968-.045316c7.676206-1.121801 13.397439-7.710639 13.397439-15.502388v-3.38437c0-.414599-.016188-.82904-.048527-1.242376-.686145-8.769938-8.351815-15.323146-17.121752-14.637z"/></svg>