<svg height="960" viewBox="0 0 960 960" width="960" xmlns="http://www.w3.org/2000/svg"><path d="m273.5 141c148.992618 0 270.057102 119.545897 272.463493 267.929478l.036507 4.505206v405.565316h-130.67584v-405.565316c0-78.308546-63.496839-141.790166-141.82416-141.790166-77.544047 0-140.55274 62.218335-141.805159 139.445406l-.019001 2.34476v405.565316h-130.67584v-405.565316c0-150.461521 122.002406-272.434684 272.5-272.434684zm414.084308 0c148.946522 0 269.97355 119.545897 272.379196 267.929478l.036496 4.505206v405.565316h-130.635411v-405.565316c0-78.308546-63.477194-141.790166-141.780281-141.790166-40.401108 0-77.931964 16.901353-104.676906 46.155243l-3.053532 3.358849-4.347178 4.852123-1.333485 1.512233c-12.779196-44.867923-35.316568-85.624268-65.17313-119.826503 48.918077-42.517353 111.865928-66.696463 178.584231-66.696463z" fill-rule="evenodd"/></svg>