<svg height="960" viewBox="0 0 960 960" width="960" xmlns="http://www.w3.org/2000/svg"><path d="m109.666921 284.93363c39.022369-68.578874 97.94125-110.244677 162.668677-106.705413l.671108.04207.354203.005518c.220072.005476.440502.012747.661278.021825l372.185519 15.303657 1.205551-.029354c4.428123-.086661 8.861971.024427 13.295201.334429l1.554552.116869c1.035646.083303 2.069834.177384 3.102486.282221l1.33721.143835 118.147887 4.863123.674347.033339c2.242514.129458 4.431463.441699 6.55317.921425l.447596.105113 1.250697.179377c52.444252 7.869132 96.379602 46.019637 125.224605 103.33354 27.805378 55.248207 40.513182 126.081165 35.366397 199.683616-5.205957 74.44865-28.108319 143.539746-64.012347 194.535778-38.913219 55.270117-91.428121 86.806579-147.853963 82.8609l-1.563511-.11854c-2.603853-.212767-5.197611-.501516-7.782878-.867671l-494.96747-39.813078c-.9963-.04792-1.99252-.106701-2.988576-.176352l-1.950095-.149996c-57.747626-4.846416-106.100345-44.929957-136.5597439-106.191013l-.8781152-1.787561-.7387182-.266504c-26.6511643-9.803337-48.8158009-31.239053-64.1995476-60.187776-17.9387476-33.756655-26.12358767-76.673891-23.02232586-121.024001 2.92637006-41.849041 15.62395736-81.053246 35.96073136-111.36878l.6787206-1.004291c17.032923-25.017503 38.9254666-43.288189 63.7635738-51.787208l.848566-.28644zm670.711939-45.669771c-83.74279-5.855866-159.484341 101.723113-169.173488 240.284375-9.689148 138.561262 50.343191 255.634476 134.085982 261.490342 83.742791 5.855867 159.484342-101.723112 169.173489-240.284374.482327-6.897596.79188-13.741942.934334-20.521971.010096-.457416.018926-.914923.026997-1.372134l-.026997 1.372134c.028502-1.356542.050315-2.710509.065485-4.061812l-.038488 2.689678c.027801-1.574999.046583-3.146477.056416-4.714295l-.017928 2.024617c.015206-1.354593.023736-2.70651.025636-4.055662l-.007708 2.031045c.007532-1.200896.009814-2.399645.006878-3.596184l.00083 1.565139c.001854-1.31672-.002608-2.630807-.013342-3.942176l.012512 2.377037c-.004005-1.632169-.017719-3.260225-.041061-4.88401l.028549 2.506973c-.010951-1.337807-.02843-2.672786-.052392-4.004849l.023843 1.497876c-.021089-1.467088-.050037-2.93069-.086784-4.390687l.062941 2.892811c-.023293-1.294881-.052713-2.587007-.088217-3.876295l.025276.983484c-.030682-1.219024-.066801-2.435536-.108321-3.649468l.083045 2.665984c-.037186-1.350355-.081046-2.697597-.131534-4.041635l.048489 1.375651c-.052418-1.532514-.113445-3.060915-.183011-4.585067l.134522 3.209416c-.048134-1.281375-.102291-2.559837-.162431-3.835305l.027909.625889c-.060318-1.321525-.127055-2.639854-.200166-3.954899l.172257 3.32901c-.061946-1.313776-.130238-2.624376-.204833-3.931712l.032576.602702c-.068973-1.240619-.143618-2.478314-.223898-3.713011l.191322 3.110309c-.075293-1.319586-.157007-2.635847-.245095-3.948692l.053773.838383c-.086456-1.329684-.179447-2.655892-.278923-3.978527l.22515 3.140144c-.086114-1.283419-.178318-2.563573-.276571-3.840377l.051421.700233c-.099349-1.320944-.205168-2.638325-.317409-3.952051l.265988 3.251818c-.097975-1.273188-.201963-2.543046-.311923-3.80949l.045935.557672c-.109956-1.286985-.226075-2.570461-.348312-3.850341l.302377 3.292669c-.111355-1.282526-.228834-2.561551-.352392-3.836987l.050015.544318c-.119336-1.249503-.244502-2.495577-.375458-3.738143l.325443 3.193825c-.124187-1.281932-.254515-2.56024-.390938-3.834833l.065495.641008c-.144532-1.37138-.296115-2.738485-.454693-4.101205l.389198 3.460197c-.133186-1.244344-.272181-2.485148-.416944-3.722331l.027746.262134c-.140815-1.210079-.287147-2.4167-.438954-3.619787l.411208 3.357653c-.150038-1.282276-.306273-2.560661-.468655-3.835064l.057447.477411c-12.653192-100.277466-63.352037-176.00092-129.244637-182.605297l.001003-.024259c-.933633-.093588-1.870316-.173299-2.809984-.239007zm-117.947321-5.044948-.237973.103066c-1.378489.566541-2.905266.832388-4.492719.721383-83.085574-5.809909-160.324296 99.399438-169.926905 236.723144s52.24212 252.258716 135.327694 258.068625c1.723508.120519 3.314367.670981 4.675107 1.539259l50.615002 4.079286c-59.609075-45.461762-94.947207-145.618763-87.137654-257.30057 7.749739-110.826442 55.995793-204.50102 120.600182-241.815427l-48.267199-1.983246c-.384695-.047204-.769875-.09238-1.155535-.13552zm-390.750243-15.955052c-43.458917-3.038943-84.678858 23.269153-115.579831 67.878838-.280921 1.252741-.810733 2.469548-1.599573 3.580485-5.499159 7.744554-10.63844 16.03773-15.38741 24.809326-1.10941 2.146263-2.19739 4.322493-3.263969 6.526097-.053082.003872-.106155.007822-.15922.011847-18.554285 36.664049-30.510663 80.978141-33.812716 128.199706-3.7859908 54.142189 4.245775 106.002933 21.845438 148.046229l.65668.053434-.129129-.005669c2.917126 7.294443 6.096148 14.297142 9.51978 20.975839 1.560404 2.869283 3.171246 5.677474 4.832428 8.420323.439244.725254.775457 1.484094 1.012827 2.259464 24.252944 41.540907 58.685031 68.292312 98.372318 71.067517.90596.063351 1.810947.113949 2.714887.151893l317.225074 25.518334c-60.702195-44.229826-97.918463-143.665847-90.106219-255.386148 7.717088-110.3595 57.276586-202.733785 122.357693-239.042889l-317.801494-13.064626-.002086.051127c-.231646-.017861-.463472-.034904-.695478-.051127zm410.845969 108.570046c27.901906-37.637202 62.646491-58.454907 99.145741-55.902631 36.499249 2.552276 68.008438 28.002897 90.400719 69.157011 23.537253 43.258426 34.558355 100.174745 30.387097 159.826514s-23.006324 114.480341-52.334924 154.042026c-27.901906 37.637202-62.646491 58.454908-99.145741 55.902631-36.49925-2.552276-68.008438-28.002896-90.400719-69.15701-23.537254-43.258426-34.558355-100.174745-30.387097-159.826514s23.006323-114.480341 52.334924-154.042027zm97.750611-35.95135c-28.733278-2.009226-57.482416 15.216223-81.684062 47.862101-26.95581 36.361002-44.534754 87.533022-48.450192 143.526405-3.915439 55.993384 6.370658 109.113917 28.003663 148.87258 19.42269 35.696389 45.494723 56.755308 74.228002 58.764534 28.733278 2.009227 57.482415-15.216222 81.684062-47.862101 26.95581-36.361002 44.534753-87.533021 48.450192-143.526405 3.915439-55.993383-6.370659-109.113916-28.003663-148.872579-19.42269-35.69639-45.494723-56.755308-74.228002-58.764535zm-670.485797 38.422403-.90944.525473c-32.20748 18.994025-57.1475721 66.391994-61.1299627 123.342834-4.3415336 62.086822 17.5628342 116.397116 51.5485244 136.276356-14.6334266-41.873052-20.9195612-90.869344-17.3739049-141.574593 2.9842673-42.67701 12.6927238-83.22561 27.8647832-118.57007z"/></svg>