<svg height="960" viewBox="0 0 960 960" width="960" xmlns="http://www.w3.org/2000/svg"><path d="m505-57c11.045695 0 20 8.954305 20 20l.000692 135.3126705c13.206172 7.2800885 22.692577 20.6255685 24.533455 36.5368265 6.089267 52.631365 10.171189 91.627776 12.257838 117.181797 1.575495 19.294207 3.098935 44.208275 4.577181 74.843568 1.453208.61777 2.873227 1.292823 4.272999 2.032561 3.194182 1.68803 6.231299 3.68417 9.161773 6.215975 1.859077 1.606164 3.622959 3.388574 5.26963 5.395854 6.03339 6.978576 9.666589 16.079835 9.666589 26.030432v518.756923c0 9.914819-3.607949 18.989238-9.605687 25.960144l-.301708.355724c-3.87888 5.861315-7.026205 10.38134-9.613351 13.769467-4.047586 5.30072-8.421271 10.070568-13.153527 14.27453-3.248969 2.886263-6.917634 5.199041-10.865098 6.841498-1.281719.649545-2.589087 1.249468-3.92502 1.812611-2.840098 1.197204-5.814906 2.224063-8.961131 3.131457-5.243813 1.512353-11.115814 2.731998-17.552972 3.702022-11.972127 1.804097-26.079005 2.760125-40.761663 2.760125-14.682874 0-28.789949-.956056-40.762188-2.760204-6.437254-.970057-12.309327-2.189744-17.553193-3.702158-3.1463-.907443-6.121177-1.934362-8.961342-3.131645-1.311109-.552703-2.594705-1.140833-3.853181-1.777218-3.640941-1.507774-7.047332-3.587997-10.109665-6.162364-7.19671-6.049955-12.878049-11.662745-17.303928-17.458878-3.359816-4.400016-6.449991-9.500578-9.539965-15.535436-4.210682-6.322174-6.656695-13.915857-6.656695-22.079675v-518.756923c0-9.937525 3.623659-19.027942 9.642206-26.003632 1.54753-1.88729 3.200348-3.578963 4.939743-5.113371 2.872496-2.533974 5.855943-4.542833 8.991966-6.244582 1.04601-.567612 2.102448-1.097472 3.174303-1.593748 1.347785-30.032432 2.779261-55.108084 4.2997-75.309679 2.017904-26.811258 5.74615-65.760547 11.192007-116.987307 1.749729-16.458926 11.683365-30.246184 25.4999-37.4773947l.000332-134.8199703c0-11.045695 8.954305-20 20-20zm-88.984503 958.882084.167075.176867c2.173732 2.30159 4.946169 4.86937 8.317311 7.70334l.567204-.000823c6.648132 4.700635 28.724094 8.152717 54.932913 8.152717 26.208442 0 48.284146-3.451983 54.932626-8.152514l.567491.00062c2.48171-2.20466 4.877436-4.768747 7.187178-7.692263-.649765.090765-1.308939.180827-1.978404.269422-16.123275 2.133689-37.715802 3.342295-60.708891 3.342295s-44.585616-1.208606-60.708891-3.342295c-1.120935-.14834-2.213017-.300795-3.275612-.457366zm119.776041-506.948571c-14.982246 2.228333-34.775227 3.473472-55.791538 3.473472s-40.809292-1.245139-55.791538-3.473472c-7.575503-1.126716-13.91183-2.495419-18.94927-4.187013l.000933 488.497914c.10619.034517.215224.069287.327042.104272 3.58042 1.120232 9.189768 2.219008 16.327785 3.163624 15.179502 2.008794 35.915091 3.169435 58.085048 3.169435s42.905546-1.160641 58.085048-3.169435c7.138017-.944616 12.747365-2.043392 16.327785-3.163624.112176-.035097.221551-.069978.328063-.104604l.000909-488.497916c-5.037601 1.691748-11.374264 3.060556-18.950267 4.187347zm8.412084-33.336997-.164559.223504c-.851097 1.123995-1.807455 2.149838-2.840871 3.076267-1.943053 1.741893-3.886449 2.899837-5.960477 3.822593-2.134497.949659-4.289664 1.580494-6.767164 2.113768-3.383338.728253-7.674329 1.306505-12.862049 1.778804-9.755037.888115-22.651384 1.38472-36.348504 1.38472-13.697119 0-26.593466-.496605-36.348503-1.38472-5.18772-.472299-9.478711-1.050551-12.862049-1.778804-2.4775-.533274-4.632667-1.164109-6.767164-2.113768-1.419458-.631531-2.777728-1.373224-4.116094-2.342428-1.84164-1.15294-3.49399-2.618244-4.851171-4.393354l-.145194.039453c-.437727.120742-.860876.242826-1.269097.366199-.280715.084839-.554302.170265-.820718.256284-.336039.1085-.660447.217864-.973236.328136-.341127.120257-.668802.241736-.982329.364253-.040273.015737-.080488.031561-.120467.047402-.201917.080007-.39767.160393-.587327.241205-.094124.040104-.186894.080379-.278149.120758-.071769.031756-.142794.063665-.212871.095637-.077265.035252-.153215.070505-.22801.105834-.479074.226296-.910604.455601-1.293099.687769-.003357.002038-.006039.003667-.008718.005297-.106622.064842-.21024.130449-.309932.196277-.241412.159405-.45985.32015-.654704.482111-.143255.119086-.273561.238625-.390942.358787-.060071.06148-.117091.123507-.170656.185695-.052311.060762-.100803.120983-.146045.18135-.069865.093224-.13197.18678-.186227.28067l-.059204.108651-.054761.114741c-.108422.24497-.163488.492108-.163488.741158 0 6.139319 33.462308 11.11622 74.740157 11.11622s74.740157-4.976901 74.740157-11.11622c0-.362759-.116829-.72146-.345198-1.075317-.0638-.098836-.136123-.19708-.216995-.29493-.040541-.049057-.083312-.098102-.128226-.147046-.038046-.041461-.077697-.082918-.11888-.124301-.081184-.08157-.168153-.1627-.26099-.243533-.147319-.128282-.30969-.256013-.486616-.382951-.215111-.154352-.45209-.307737-.710154-.459874-.102905-.060669-.209256-.12119-.318935-.181507-.084938-.046711-.172349-.093554-.261763-.140271-.094635-.049451-.191484-.098741-.290558-.147888-.039505-.019589-.079403-.039183-.119655-.058753-.100128-.04869-.202146-.097093-.306321-.145351-.112738-.052213-.228158-.104339-.346088-.156292-.121945-.053742-.247004-.107465-.374743-.160998-.268296-.11241-.547974-.223842-.839214-.334411-.15617-.059323-.315463-.118293-.478038-.177011-.191759-.069217-.388355-.138214-.589475-.206852-.14959-.051103-.301167-.101787-.455207-.15227-.060462-.019753-.120814-.039377-.181538-.05897-.241113-.077868-.488449-.155297-.741582-.232228-.315875-.09591-.640472-.191037-.973915-.285364-.138137-.039185-.277756-.078119-.418881-.116914-.039008-.010608-.078069-.021303-.117245-.031987-.162889-.044546-.327962-.088846-.495001-.13296-.114256-.030039-.229616-.06017-.345892-.090213-.170391-.044171-.342542-.087958-.516639-.131553l-.075893-.018802c-.007627-.001901-.015258-.003802-.022893-.005702zm-94.62658-226.888291-.042943.043664c-1.232487 1.250181-2.060223 2.909235-2.258464 4.774002-5.406138 50.853141-9.0997 89.440082-11.080686 115.760823-1.820313 24.185927-3.522169 55.732903-5.107378 94.64184l-.014991.349841c3.819152 2.109059 23.939747 3.717777 48.187418 3.717777 24.166763 0 44.233946-1.598 48.148644-3.696682-.015044-.327632-.029366-.652726-.043692-.977259-1.004067-22.745247-2.026896-42.732962-3.068494-59.963246-.461656-7.636815-.927038-14.732514-1.396108-21.286443-.323509-4.520079-.648713-8.781757-.975671-12.785828-2.041904-25.006056-6.083729-63.619397-12.125474-115.840022-.207823-1.796272-1.000593-3.396427-2.174709-4.618945-.859793.114234-1.735368.172253-2.624494.172253h-52c-1.16703 0-2.310715-.099956-3.422958-.291775zm23.422958-151.708225-.000157 109.367h12l.000157-109.367z"/></svg>