<?xml version="1.0" encoding="utf-8"?>
<!-- Generator: Adobe Illustrator 21.0.0, SVG Export Plug-In . SVG Version: 6.00 Build 0)  -->
<svg version="1.1" id="Layer_1" xmlns="http://www.w3.org/2000/svg" xmlns:xlink="http://www.w3.org/1999/xlink" x="0px" y="0px"
	 viewBox="0 0 351.5 351.5" style="enable-background:new 0 0 351.5 351.5;" xml:space="preserve">
<g>
	<path d="M324.8,55.5h-4.3c0-12.6-10.3-22.9-22.9-22.9v-4.3C312.7,28.4,324.8,40.5,324.8,55.5z"/>
</g>
<g>
	<path d="M72.4,166.8L72.4,166.8v-0.1c0.5-5.9,1.5-11.6,3.1-17.2l0.1-0.3c0-0.3,0.1-0.6,0.2-0.9l0.1-0.3c0-0.3,0.1-0.6,0.2-0.8
		l0.1-0.4c0.1-0.3,0.2-0.6,0.3-0.9v-0.1l0.1-0.3c0.1-0.2,0.1-0.4,0.2-0.6l0.1-0.4l0.1-0.3l0.1-0.3l0.1-0.3v-0.1l0.1-0.3l0.1-0.1
		c0.1-0.2,0.1-0.5,0.2-0.8l0.1-0.1l0.1-0.3l0.2-0.7l0.1-0.3l0.1-0.1c0.1-0.3,0.2-0.5,0.3-0.8v-0.1l0.1-0.3c0.1-0.3,0.2-0.5,0.3-0.8
		l0.1-0.3c0.2-0.3,0.3-0.6,0.4-0.8v-0.1l0.1-0.3l0.3-0.7l0.2-0.5l0.3-0.6l0.2-0.5c0.1-0.3,0.2-0.5,0.3-0.8l0.2-0.3
		c0.1-0.2,0.2-0.5,0.3-0.8l0.2-0.3l0.3-0.7l0.2-0.5c0.1-0.2,0.2-0.4,0.3-0.6l0.3-0.5c0.1-0.2,0.2-0.4,0.3-0.7l0.2-0.4
		c0.1-0.2,0.2-0.4,0.3-0.7h0.1l0.1-0.3l0.1-0.1l0.3-0.6l0.2-0.4c0.1-0.2,0.3-0.5,0.4-0.7l0.2-0.5l0.4-0.5l0.3-0.6
		c0.1-0.1,0.2-0.3,0.3-0.5L86,124c0.2-0.2,0.3-0.4,0.4-0.6l1.3-2.2v0.1c4.2-6.6,9-12.6,14.5-18.1c18.8-18.8,44.6-30.3,73.2-30.3
		c28.5,0,54.4,11.5,73.2,30.3s30.3,44.6,30.3,73.2s-11.5,54.4-30.3,73.2S204,280,175.4,280c-28.5,0-54.4-11.6-73.2-30.4
		c-5.5-5.5-10.3-11.5-14.5-18.1v0.1l-1.3-2.2c-0.1-0.2-0.2-0.4-0.4-0.6v-0.1l-0.2-0.3c-0.1-0.3-0.3-0.5-0.4-0.8l-0.1-0.1l-0.2-0.3
		l-0.3-0.5l-0.2-0.4c-0.1-0.3-0.3-0.5-0.4-0.7v-0.1l-0.2-0.3c-0.1-0.3-0.3-0.6-0.4-0.9h-0.1c-4.8-9.3-8.3-19.4-10.1-30V194
		c-0.1-0.3-0.1-0.6-0.2-0.9V193v-0.3l-0.1-0.7l-0.1-0.3v-0.1c0-0.3-0.1-0.6-0.1-0.9v-0.1l-0.1-0.3c0-0.3,0-0.6-0.1-0.9v-0.1v-0.4
		c-0.1-0.3-0.1-0.6-0.1-0.9l-0.1-0.1v-0.6v-0.2c-0.4-3.5-0.5-6.8-0.5-10.4C72.1,172.8,72.2,169.7,72.4,166.8 M86.4,165.3v-39.1
		c-6.5,11.8-10.8,25-12.2,39.1H86.4z M264.7,126.2v39.1H277c-0.7-7.3-2.2-14.4-4.5-21.2C270.5,137.9,267.8,131.9,264.7,126.2z
		 M276.9,187.6h-12.2v37.6c3.1-5.4,5.6-11.2,7.6-17.2C274.5,201.5,276.1,194.7,276.9,187.6z M263.9,186.1H277
		c0.3-3.5,0.5-6.8,0.5-10.4c0-3-0.2-6-0.4-9h-13.2h-0.7V166v-42.5c-4.4-7.3-9.6-14-15.5-19.9c-18.5-18.5-44-30-72.2-30
		c-28.1,0-53.7,11.4-72.2,30c-5.9,5.9-11.1,12.6-15.5,19.9V166v0.7h-0.7H74c-0.2,3-0.4,6-0.4,9c0,3.6,0.2,6.9,0.5,10.4h13.1h0.7v0.7
		v41.1c4.4,7.2,9.6,14,15.5,20c18.4,18.4,44,29.9,72.2,29.9c28.1,0,53.6-11.4,72.2-29.9c5.9-6,11.1-12.6,15.5-19.9v-41.2v-0.7H263.9
		L263.9,186.1z M86.4,187.6H74.3c1.5,13.6,5.8,26.3,12.1,37.6V187.6L86.4,187.6z"/>
</g>
<g>
	<path d="M138.1,175.7c0-8.2-6.6-14.8-14.8-14.8s-14.8,6.6-14.8,14.8s6.6,14.8,14.8,14.8S138.1,183.9,138.1,175.7"/>
</g>
<g>
	<path d="M242.6,175.7c0-8.2-6.6-14.8-14.8-14.8s-14.8,6.6-14.8,14.8s6.6,14.8,14.8,14.8S242.6,183.9,242.6,175.7"/>
</g>
<g>
	<path d="M175.6,289.1c-62.5,0-113.4-50.9-113.4-113.4S113.1,62.3,175.6,62.3S289,113.2,289,175.7S238.1,289.1,175.6,289.1z
		 M175.6,66.6c-60.2,0-109.1,48.9-109.1,109.1s49,109.1,109.1,109.1c60.2,0,109.1-49,109.1-109.1C284.7,115.5,235.8,66.6,175.6,66.6
		z"/>
</g>
<g>
	<path d="M175.6,320.5c-82.4,0-149.5-65-149.5-144.8S93.2,30.9,175.6,30.9s149.5,65,149.5,144.8S258,320.5,175.6,320.5z M175.6,33
		C94.3,33,28.2,97,28.2,175.7s66.1,142.7,147.4,142.7S323,254.4,323,175.7S256.9,33,175.6,33z"/>
</g>
<g>
	<path d="M279.7,298.3c0.7,0,1.3,0,2,0c0.3,0,0.4,0,0.5-0.4c0.3-1.2,0.6-2.3,0.9-3.5c0.1-0.3,0-0.4-0.3-0.4c-1.3,0-2.7,0-4,0
		c-0.4,0-0.4,0-0.5,0.4c-0.3,1.1-0.6,2.3-0.9,3.4c-0.1,0.3,0,0.4,0.3,0.4C278.4,298.3,279,298.3,279.7,298.3 M286.3,290
		c-0.7,2.6-1.4,5.2-2.1,7.8c-0.1,0.4-0.2,0.9-0.3,1.3c0,0.2-0.1,0.2-0.2,0.2c-2.4,0-4.8,0-7.2,0c-0.1,0-0.3,0-0.4,0
		c-0.4-0.1-0.6-0.2-0.7-0.5c-0.1-0.2,0.1-0.6,0.1-0.6c0.4-1.4,0.7-2.8,1.1-4.2c0.2-0.6,0.5-0.9,1.1-1c0.2,0,0.5-0.1,0.7-0.1
		c1.7,0,3.4,0,5,0c0.2,0,0.3-0.1,0.3-0.2c0.2-0.9,0.5-1.8,0.7-2.7C285,290,285.6,290,286.3,290z"/>
</g>
<g>
	<path d="M288.3,296c0.1,0,0.1,0,0.1,0c1.5,0,3.1,0,4.6,0c0.1,0,0.2-0.1,0.2-0.2c0.1-0.5,0.3-1,0.4-1.5c0.1-0.2,0-0.3-0.2-0.3
		c-1.4,0-2.8,0-4.2,0c-0.2,0-0.3,0.1-0.4,0.3C288.6,294.9,288.4,295.4,288.3,296 M294.5,298.3c-0.1,0.3-0.2,0.6-0.2,0.9
		c0,0.2-0.1,0.2-0.2,0.2c-0.7,0-1.5,0-2.2,0c-1.6,0-3.2,0-4.8,0c-0.2,0-0.5,0-0.7-0.1c-0.4-0.1-0.5-0.3-0.5-0.7c0-0.2,0-0.4,0.1-0.6
		c0.3-1.3,0.7-2.5,1-3.8c0.2-0.7,0.6-1,1.3-1.1c0.2,0,0.4,0,0.6,0c1.9,0,3.8,0,5.8,0c0.1,0,0.2,0,0.3,0c0.7,0.1,1.1,0.5,0.9,1.2
		c-0.2,0.9-0.5,1.8-0.7,2.6c0,0.2-0.1,0.2-0.2,0.2c-0.9,0-1.7,0-2.6,0c-1.3,0-2.5,0-3.8,0c-0.2,0-0.3,0-0.3,0.2s-0.1,0.4-0.2,0.7
		c-0.1,0.4,0,0.4,0.3,0.4c0.6,0,1.2,0,1.8,0c1.4,0,2.9,0,4.3,0C294.3,298.3,294.4,298.3,294.5,298.3z"/>
</g>
<g>
	<path d="M327.1,294.1c-0.7,0-1.4,0-2.1,0c-0.3,0-0.4,0.1-0.5,0.4c-0.3,1.2-0.6,2.3-0.9,3.5c-0.1,0.3,0,0.3,0.2,0.3
		c1.4,0,2.8,0,4.2,0c0.2,0,0.4-0.1,0.4-0.3c0.3-1.2,0.6-2.3,0.9-3.5c0.1-0.3,0-0.3-0.3-0.3C328.5,294.1,327.8,294.1,327.1,294.1
		 M325.9,299.4c-1,0-2,0-3,0c-0.2,0-0.5,0-0.7-0.1c-0.3-0.1-0.5-0.4-0.5-0.7c0-0.2,0-0.4,0.1-0.6c0.3-1.3,0.6-2.5,1-3.8
		c0.2-0.9,0.6-1.2,1.5-1.2c2.1,0,4.2,0,6.3,0c0.2,0,0.3,0,0.4,0.1c0.3,0.1,0.5,0.3,0.5,0.7c0,0.2,0,0.4-0.1,0.7
		c-0.3,1.3-0.7,2.5-1,3.8c0,0.1,0,0.1-0.1,0.2c-0.2,0.6-0.5,1-1.2,1C328.1,299.4,327,299.4,325.9,299.4
		C325.9,299.4,325.9,299.3,325.9,299.4z"/>
</g>
<g>
	<path d="M308,298.3c0.7,0,1.4,0,2.1,0c0.3,0,0.4-0.1,0.5-0.4c0.3-1.1,0.6-2.3,0.9-3.4c0.1-0.3,0-0.4-0.3-0.4c-1.3,0-2.7,0-4,0
		c-0.4,0-0.5,0-0.6,0.5c-0.3,1.1-0.6,2.2-0.9,3.3c-0.1,0.3,0,0.4,0.3,0.4C306.7,298.3,307.3,298.3,308,298.3 M307.9,299.4
		c-1,0-1.9,0-2.9,0c-0.1,0-0.2,0-0.3,0c-0.8-0.1-1.1-0.5-0.9-1.3c0.2-1,0.5-2,0.8-3c0.1-0.3,0.2-0.6,0.2-0.8
		c0.2-0.9,0.7-1.3,1.6-1.3c2.1,0,4.1,0,6.2,0c0.8,0,1.2,0.5,1,1.3v0.1c-0.3,1.3-0.7,2.6-1,3.9c0,0.1-0.1,0.2-0.1,0.3
		c-0.2,0.5-0.5,0.7-1,0.8c-0.3,0-0.5,0-0.8,0C309.7,299.4,308.8,299.4,307.9,299.4z"/>
</g>
<g>
	<path d="M296.4,292.9c0.5,0,0.9,0,1.4,0c0.6,0,0.6,0,0.7,0.6c0.3,1.3,0.6,2.6,0.8,3.9c0,0,0,0.1,0,0.2c0.1-0.1,0.1-0.2,0.2-0.2
		c0.9-1.4,1.8-2.8,2.7-4.2c0.1-0.2,0.2-0.2,0.4-0.2c0.5,0,1,0,1.5,0c-0.1,0.1-0.1,0.2-0.1,0.2c-1.4,2-2.7,4-4.1,6
		c-0.1,0.1-0.2,0.2-0.3,0.2c-0.5,0-0.9,0-1.4,0c-0.2,0-0.3,0-0.3-0.2c-0.4-1.8-0.8-3.6-1.3-5.4C296.6,293.5,296.5,293.2,296.4,292.9
		"/>
</g>
<g>
	<path d="M317.7,292.9c-0.2,0.9-0.5,1.7-0.7,2.6c-0.2,0.8-0.4,1.6-0.6,2.4c-0.1,0.3,0,0.3,0.2,0.3c1.4,0,2.7,0,4.1,0
		c0.1,0,0.2,0,0.3,0c-0.1,0.4-0.2,0.7-0.3,1l-0.2,0.1c-1.6,0-3.2,0-4.8,0c-0.3,0-0.6,0-0.8,0c-0.6,0-0.8-0.3-0.7-0.9
		c0.5-1.8,0.9-3.6,1.4-5.3c0-0.1,0.1-0.2,0.2-0.2C316.5,292.9,317.1,292.9,317.7,292.9"/>
</g>
<path d="M289.2,3.5H62.3C29.9,3.5,3.5,29.9,3.5,62.3v226.9c0,32.4,26.4,58.8,58.8,58.8h226.9c32.4,0,58.8-26.4,58.8-58.8V62.3
	C348,29.9,321.6,3.5,289.2,3.5z M343.8,61.2h-40.4c-7.2,0-13.1-5.9-13.1-13.1V7.8C319.5,8.3,343.1,32,343.8,61.2z M289.2,343.8H62.3
	c-30.1,0-54.6-24.5-54.6-54.6V62.3c0-30.1,24.5-54.6,54.6-54.6h225.8V48c0,8.4,6.8,15.2,15.2,15.2h40.4v225.9
	C343.8,319.3,319.3,343.8,289.2,343.8z"/>
</svg>
