<svg height="960" viewBox="0 0 960 960" width="960" xmlns="http://www.w3.org/2000/svg"><g fill="#000" fill-rule="evenodd"><path d="m464.272883 6.12993506 47.556162.5959971 71.439955.95106784.610973.00346704c9.570222.10933007 19.173037 2.79416596 27.566338 8.64193306l.534088.3775629c11.835082 8.4884997 19.019601 22.0764777 19.019601 37.1057343v779.4853027l.759917.343538c2.29301 1.047739 4.560796 2.160863 6.719822 3.312874l.918394.496022c5.007121 2.737774 9.46011 5.683316 13.558431 9.319434 3.372369 2.992038 6.392668 6.349612 9.019238 10.445886 4.307528 6.717816 7.024198 14.600204 7.024198 23.644776v6.56419c0 11.846553-4.493216 23.10008-13.517378 32.068668-5.16436 5.132555-11.08416 8.975799-19.342864 13.27244-.432644.225086-.86652.446039-1.301832.662932-9.206089 4.586906-17.61303 6.880776-29.779853 8.824424l-2.5134.378214-14.068888 2.016562-7.781156 1.13503c-2.555655.377932-4.881688.728797-6.696456 1.014922l-.38095.060308c-30.030752 4.774503-69.485672 7.14878-110.045845 7.14878-34.856414 0-59.493855-4.436007-88.101041-14.269973l-3.423245-1.185273-10.454062-3.518863-6.511763-2.171062-1.426753-.481535-1.63567-.556257c-11.295708-3.856731-19.394177-6.953026-26.586098-10.413337-5.985795-2.879997-11.100596-5.905901-15.766513-9.722124-3.827058-3.130127-7.238554-6.699984-10.172918-11.117397-4.604936-6.932307-7.451505-15.147144-7.451505-24.379028l.007987-.969299.049203-2.866852-.019491-.237284c-.795178-11.05776 2.651136-20.818341 8.406189-28.898688l.310504-.431266c3.784585-5.200233 8.328733-9.370108 13.42981-12.88827 2.956958-2.039385 6.153937-3.878694 9.505817-5.486151l.269171-.127341-.001-766.5199661c0-9.3322897 1.367827-17.5091035 6.191827-26.1884724l.334289-.5925734c8.160105-14.2544019 22.641459-22.15652922 38.230619-22.49336349l1.285366-.0211426 3.089856-.09444205 42.435065-1.51547077c15.892359-.54155531 26.595779-.83521568 32.518917-.85399159l4.934902.02037527c2.808301.02094251 6.565922.05746684 11.252042.10898219zm-114.534268 851.43658994-.553018.117237c-8.963947 1.914865-17.636033 7.577365-17.167428 11.920341l.023641.173003c.054173.326809.065961 1.23856.060235 2.282363l-.060235 4.125682c0 5.23225 13.379205 10.929296 28.432219 16.229283l1.706022.596652 1.716503.593003 2.592706.884256 1.462598.493911c5.80594 1.95471 11.576844 3.831793 16.67149 5.584036l3.235848 1.124786c20.195425 7.000075 41.180306 12.308922 75.712182 12.308922l3.262373-.005498c33.808261-.113883 70.507853-2.005175 99.124544-6.430997l4.001111-.628642c27.422528-4.266326 37.306538-4.348671 47.403471-9.498398l.315619-.162589c9.458517-4.920851 11.06029-7.186426 11.287704-9.186695l.016092-.168459c.010924-.139945.017708-.278908.017708-.417724v-6.647468c0-5.136821-14.756-11.564072-21.839513-14.069238-1.103178 1.718506-2.412369 3.306747-3.886632 4.75454-2.904538 2.852388-6.29687 5.033175-10.230953 6.896073-5.429179 2.570867-12.11974 4.610515-20.250607 6.410719-10.800627 2.391298-22.847849 4.145331-38.326438 5.883614l-3.142116.347631c-19.699895 2.14834-31.619826 3.207506-45.710033 3.712563l-2.074958.068584c-19.924275.601837-35.974634-.579441-48.321444-4.426726l-4.450002-1.420668c-5.261859-1.668222-11.301626-3.530675-19.024165-5.877925l-27.339686-8.323324c-4.139143-1.277368-6.89734-2.151393-9.083811-2.87809l-1.228667-.413207-1.605548-.556674-1.07556-.38438-1.130068-.412753-.85513-.316938c-7.85838-2.926246-12.201877-5.028583-16.385942-8.786651-1.244827-1.118086-2.340877-2.282973-3.300112-3.494155zm14.260631-537.03923v519.066135l.006949.406973.020443.432978c.289403 4.957311 2.417378 6.670221 12.377307 10.283928l1.30972.464049c5.572607 1.933594 15.07493 4.779675 25.806511 7.95189l12.537295 3.701462 5.994499 1.778267c6.482906 1.930075 12.876827 3.860446 18.666985 5.679338 21.156345 6.645955 61.734931 2.810428 84.924874.37172l6.275288-.669023c22.707118-2.475589 59.080883-7.313569 59.080883-16.717106v-530.033954c-1.334901.168326-2.752144.290298-4.257749.371914l-52.386154 2.864339c-.147569.008068-.295299.012865-.44308.014385l-16.72253.157952c-16.45471.140369-30.766715.214152-42.942356.221151l-5.694624-.001677c-14.362984-.018148-25.389487-.140588-33.091893-.367808l-3.170586-.100775c-14.798991-.497356-27.637109-1.303082-38.954407-2.354457l-1.024668-.096255c-5.677438-.539245-10.593985-1.101953-15.426074-1.734882l-8.185163-1.104851c-.227424-.02883-.395529-.049091-.485571-.058133-1.493291-.149953-2.896003-.324154-4.215899-.52756zm33.647758 19.296381 29.773846 2.666684c11.063844.990929 20.559403 9.261493 20.559403 19.934287v9.843361c0 11.806865-11.081918 18.895131-22.855471 17.225596l-29.773846-4.222044c-10.751673-1.524628-20.047487-9.386246-20.047487-19.585648v-8.866918c0-11.364296 10.842567-18.0254 22.343555-16.995318zm-2.343555 19.893264v4.657l.154537.109637c.621086.41755 1.478838.768024 2.417173.939968l.283761.046116 29.773846 4.222044.046683.005235v-6.424l-.061121-.049033c-.490816-.371623-1.219741-.672071-2.034709-.785112l-.24692-.028174-29.773846-2.666684c-.097188-.008704-.192655-.015169-.286235-.019492zm54.857203-304.7141591h-2.414591c-5.217233.0296258-14.690009.2927766-25.286418.6362143l-8.772494.292909-41.11234 1.4485989c-1.023556.0309547-1.812327.0517379-2.329181.0605327l-.448032.0047529c-4.340562 0-5.74562 3.0888203-5.797596 8.8493906v6.0966717l.325.608149h-.325v7.8303222l.093.1696778h-.093v218.822962l.059093.224138.026359.114227.080206.021092c1.266257.33253 2.959454.62814 5.101992.871476l.847442.093787c-.04588.015628 3.817035.537285 8.806833 1.15942l4.685402.571977 4.159145.484092 1.514321.169156c1.498563.165146 2.942794.317238 4.269179.447015l.653078.062986c11.488557 1.091188 24.675192 1.921638 40.08524 2.415919l3.168138.093909c7.625318.201592 18.34677.308674 32.153402.320905l12.300314-.011983c12.942064-.034016 28.024488-.133967 45.24093-.300048l6.325378-.063703 52.178555-2.851886.797685-.049531c1.15705-.081323 2.135141-.192974 2.916595-.317605l.335165-.056978.118377-.191698c.343526-.54214.737769-1.048964 1.177171-1.513802v-220.515827h-1.82l1.82-.1696778v-7.8303222h-6.382l6.382-.608149v-9.6763796c0-3.967906-3.492837-5.9734222-7.475958-6.0552632l-113.424232-1.4634376c-9.031243-.1044692-16.138564-.1760091-19.939158-.1939897z" fill-rule="nonzero"/><path d="m539.693392 388.693835c3.666993-.126359 6.637924 2.616774 6.635769 6.12696l-.241024 390.8788c-.002164 3.510185-2.865189 7.440863-6.394745 8.779414-3.529555 1.338551-6.39258-.452856-6.394744-4.001221l-.241024-395.130276c-.002155-3.548365 2.968775-6.527317 6.635768-6.653677z"/><path d="m572.999557 70.1346976.000443 152.2308914c0 9.244298-7.604271 16.868917-16.984615 17.030062l-35.03077.601795c-9.380344.161145-16.984615-7.32216-16.984615-16.71443l-.000443-152.3413184z"/></g></svg>