<svg height="960" viewBox="0 0 960 960" width="960" xmlns="http://www.w3.org/2000/svg"><path d="m598.884687 2.76748542c9.543565 0 18.377474 3.03839544 25.561669 8.23327088l127.863085 3.6878991c43.435261 1.2523908 81.079669 29.0031943 95.573825 69.0469713 7.083612 13.8784887 10.847076 29.2956323 10.911619 45.1705513l2.59274 637.489233c.053262 13.31818-2.373742 26.351416-7.103234 38.520332l-.00121 19.759383c0 62.370613-47.68112 113.971785-109.188463 119.366457-1.818493 1.0044-3.731819 1.874823-5.725475 2.604546-.491839.180025-.987166.350371-1.485695.510942l-.14972.048224c-.497117.160116-.997322.310481-1.500328.451008-4.466827 1.247917-8.962771 1.903221-14.124381 2.287737-3.850081.286813-8.201411.418224-13.159978.418224-4.748457 0-8.879377-.120284-12.513838-.385859-5.187987-.379094-9.622212-1.031252-14.207613-2.397439-.633484-.188742-1.259859-.391488-1.862037-.638811l-123.295996 4.962763c-2.449282 1.399807-5.083239 2.537122-7.85757 3.405159-5.139777 1.608144-10.380789 2.436505-16.532656 2.925186-4.603355.365674-9.891382.534222-15.987284.534222-5.889448 0-10.942792-.156991-15.306203-.502031-2.622521-.207379-5.067576-.487211-7.408679-.869003-3.260306-.531698-6.35041-1.25526-9.525217-2.359625-7.080735-2.463051-13.18953-6.696452-17.874757-12.121529l-208.450718-22.391263c-1.402428.800668-2.876941 1.500495-4.401827 2.117149-.501649.202863-1.007362.395526-1.516827.57787l-.153375.054894c-.508095.181853-1.019818.353406-1.534855.514551-5.139777 1.608144-10.380789 2.436505-16.532657 2.925187-4.603354.365673-9.891381.534222-15.987284.534222-5.889448 0-10.942792-.156992-15.306202-.502032-2.622521-.207379-5.067576-.487211-7.40868-.869003-3.260306-.531698-6.350409-1.25526-9.525217-2.359624-10.035172-3.49076-18.118107-10.537441-22.989912-19.462474-4.638153-2.342002-9.103329-5.086938-13.385261-8.206736-11.290293-8.226059-21.063668-18.86471-29.41271-31.663614-3.353168-5.140335-5.846447-9.350066-8.308964-14.339273-3.132868-6.347377-5.69332-13.049003-7.742243-20.464922-4.2554884-15.402411-6.2752414-33.865286-6.2752414-57.684976v-604.684482c0-22.3969 3.9391974-42.666947 11.6256924-60.566064 7.200687-16.7678436 17.510909-31.0373387 30.271344-42.5933918 11.073114-10.0279884 23.6675-17.7250241 37.04116-23.137245 11.453163-4.6350099 23.274809-7.4896578 34.287604-8.4804042 16.643544-1.4973068 116.869237-8.2506187 303.12178-20.4323627 7.368034-5.68201537 16.60887-9.03381788 26.63256-9.03381788zm-72.949745 52.88429978-.685484.3199869c-24.316002 11.5247958-41.210689 36.2942688-41.210689 65.1042589v722.941934c0 32.829003 23.212663 60.054728 53.875114 66.535808.023864.005044.047473.010021.071086.014986l.976466.19778c.764055.148896 1.532575.284944 2.305322.407915l1.004286.152096c.754001.10841 1.511891.204391 2.273449.287731.757297.082875 1.518378.153263 2.282872.210939.757793.057171 1.51899.101854 2.283329.133842.745877.031206 1.493866.050315 2.244647.057177.784432.007168 1.57178.000969 2.36195-.01881l1.055442-.034447.123586-.005497 137.327-5.527 34.707-1.396 10.56929-.424044c41.232571-1.659111 74.140654-34.317013 76.632012-74.974646-14.511833 13.582373-33.759318 22.208533-55.101024 23.113385l-182.201329 7.725027c-48.313602 2.048414-88.600621-36.566698-88.600621-84.923705v-647.678671c0-29.9914227 14.964899-56.3519518 37.706296-72.2200458zm-32.008598-2.4520818c-7.804269.5111803-15.446427 1.0121372-22.926474 1.5028707l-.099724.0065425c-2.543474.1668676-5.068197.3325526-7.574169.4970551-5.01.3288773-9.949009.6532882-14.812951.972965-3.006342.1975884-5.978245.3929892-8.92158.5865884l-.38583.0253786c-6.58542.4331743-13.027592.8573147-19.326518 1.2724214l-.038897.0025633-.393268.0259175c-7.904357.5209299-15.582672 1.0276045-23.034944 1.520024-4.544854.3003077-9.006147.5953471-13.383347.8850835l-1.591665.1053673c-1.700553.1125882-3.388294.2243684-5.063223.3353407l-1.987391.1316937-.945376.0626586c-2.334092.1547124-4.642851.3078272-6.926279.4593445l-.54638.0362568c-4.152956.2755944-8.221821.5458858-12.206594.8108739l-.900345.059878c-2.065862.1374029-4.108978.2733713-6.129346.4079052l-.827733.0551222-.513128.0341758c-9.827545.654578-19.11147 1.274873-27.851775 1.8608849l-.822351.0551427c-2.282775.1530891-4.528176.3038212-6.736203.4521963l-.209645.0140882c-2.88777.1940654-5.711475.3840906-8.471116.5700756l-1.003085.0676148c-3.143857.2119564-6.203623.4186095-9.179297.6199595l-.315314.0213373c-2.806475.189927-5.537851.3751179-8.194125.5555725l-.165308.0112307-.026251.0017836c-2.538506.1724708-5.008236.3406044-7.409191.5044007l-.734755.0501371c-.879769.0600457-1.750195.1195023-2.611277.1783695l-.990064.0677071c-.982811.0672331-1.953244.1336855-2.911299.1993573-1.639984.1124161-3.243698.2225448-4.811142.3303862l-1.171992.0806732-.859.0591794c-1.243066.0856709-2.462371.1698433-3.657915.2525172l-.088967.0061525-.553618.0382974c-.839117.0580631-1.666359.1153774-2.481726.1719428-.764628.0530454-1.518814.1054322-2.262557.1571605-1.811714.1260082-3.554456.247618-5.235736.3653517l-.915924.0641817c-.880169.0617179-1.743033.1223446-2.588594.1818799l-.316509.0222913-.392265.0276432c-.694117.0489317-1.376301.0971108-2.04655.1445373l-.869558.0615817c-2.430124.1722481-4.70079.3344617-6.809243.4864453l-.22858.0164826c-.847596.06114-1.668682.1206084-2.463259.1784049l-.232211.0168981-.666188.0485624c-1.050686.0766913-2.052565.1503046-3.005638.22084l-.293792.0217601c-.412593.0305837-.815843.0605781-1.20975.0899832l-.527644.0394549c-1.688391.1264666-3.197527.2416286-4.527409.3454861l-.152782.0119435-.183108.0143465c-.28293.0221955-.557361.0438549-.823293.0649784l-.684306.0546808-.494367.039952c-.286011.0232348-.559901.0457054-.821671.0674115l-.150424.0125003-.164688.0137498c-.173383.0145126-.341022.0286629-.502917.042451-.406813.034647-.777357.0670067-1.111631.097079-24.169853 2.1743977-70.627532 20.6819523-76.248642 82.2719657l252.851952-13.199271c11.43979-.59731 21.042847 8.517421 21.042847 19.972793v496.406928c0 11.516845-9.701999 20.654028-21.198159 19.964078l-253.257852-15.200783v109.406768l.002 1.148232.000274.158268c.149903 42.822697 7.685744 56.849137 15.826286 69.328415 11.613627 17.803444 25.95391 28.251713 43.020848 31.344807l1.061592.11351 42.421 4.556 248.673123 26.714458c-15.218927-15.79573-24.611672-37.284702-24.611672-61.040978v-722.941934c0-26.4429721 11.138562-50.2220565 28.929313-66.9783723zm14.302302 74.6721276v647.678671c0 36.978888 30.807721 66.508091 67.753416 64.941657l182.201329-7.725027c25.086895-1.063642 46.403171-16.029401 56.66302-37.264814.065683-.136356.13132-.273418.196496-.410738.652643-1.37462 1.258879-2.775031 1.81699-4.199262.040611-.104242.081231-.208687.121592-.313258 1.892539-4.90264 3.215721-10.084725 3.890551-15.463073.015133-.12228.030224-.245337.044976-.368496.321786-2.685274.481833-5.418356.47061-8.189453l-2.59241-637.489232-.009571-.866699c-.001986-.110165-.004264-.22026-.006835-.330285-.034204-1.463821-.12002-2.914902-.255735-4.351815-.023069-.244251-.047578-.488064-.073519-.731459-.513712-4.819956-1.589421-9.476008-3.161559-13.899701-.069441-.19535-.139795-.390136-.211111-.584464-8.23088-22.4285039-29.267569-38.7495065-54.444481-39.9215772l-181.241553-8.4374092c-38.754791-1.8041669-71.162206 29.1296713-71.162206 67.9264344zm-116.127317 33.246431-254.456011 13.285999v467.849572l254.456011 15.271357zm336.260555 11.223084c15.925103 19.413038 25.216359 45.636958 25.704853 73.654725.488492 28.017686-7.882898 54.550103-23.121433 74.507552-15.61841 20.454959-37.36928 32.570524-61.009912 32.983644l-4.414231-.059584c-21.973769-.979231-42.406919-12.119222-57.708926-30.772693-15.925103-19.413037-25.21636-45.636957-25.704853-73.654724-.488492-28.017686 7.882897-54.550103 23.121432-74.507552 15.618411-20.454959 37.369281-32.570525 61.009912-32.983645 23.640775-.413123 45.801017 10.935242 62.123158 30.832277zm-61.773711-10.83533c-17.211063.300764-33.39088 9.313168-45.46335 25.124116-12.452344 16.308458-19.431813 38.4293-19.02048 62.021484.411331 23.592103 8.157618 45.455454 21.170743 61.318729 12.616087 15.379277 29.09994 23.820737 46.310859 23.519976l3.214239-.158016c16.003257-1.295855 30.931171-10.143336 42.249111-24.9661 12.452345-16.308459 19.431814-38.429301 19.020481-62.021484-.411332-23.592103-8.157618-45.455454-21.170744-61.318729-12.616087-15.379278-29.09994-23.820737-46.310859-23.519976z"/></svg>