<?xml version="1.0" encoding="UTF-8"?>
<svg width="960px" height="960px" viewBox="0 0 960 960" version="1.1" xmlns="http://www.w3.org/2000/svg" xmlns:xlink="http://www.w3.org/1999/xlink">
    <title>com.smappee/drivers/ev-wall/ assets/icon</title>
    <g id="com.smappee/drivers/ev-wall" stroke="none" stroke-width="1" fill="none" fill-rule="evenodd">
        <path d="M264.340574,3.23007256 L892.284025,70.8722755 C912.599684,73.0606826 928,90.2090158 928,110.642203 L928,876.726493 C928,897.897324 911.503783,915.40176 890.370151,916.656211 L262.4267,953.929718 L261.738308,953.964769 C249.138149,954.499925 237.673427,949.140562 229.971482,940.362694 L229.571,939.898 L154.449,929.794 L107.18903,932.384674 C84.271807,933.640719 65,915.396235 65,892.444617 L65,80.2227529 C65,61.7280889 77.6791695,45.6449447 95.6629043,41.3277835 L250.719453,4.1050306 C255.176167,3.03515535 259.783605,2.73919482 264.340574,3.23007256 Z M270,126.979999 L270.001653,328.650204 C270.002605,328.706533 270.003082,328.762914 270.003082,328.819341 L270.003082,429.934419 L270,430.102999 L270,913.409999 L888,876.726493 L888,185.307999 L270,126.979999 Z M164.029997,428.610734 L163.997,890.717999 L250,902.284999 L250.00111,450.696141 C240.514931,456.080811 229.924032,459 218.905084,459 C196.664789,459 176.818052,447.159649 164.029997,428.610734 Z M250,45.4139992 L105,80.2227529 L105,892.444617 L143.997,890.306999 L144.031826,401.947844 C130.058617,400.25892 119.344611,394.359135 114.665792,383.850335 C106.81324,366.213215 119.98352,344.629864 143.996717,327.593274 L143.997877,99.1239937 C143.997877,94.429316 147.263656,90.3666964 151.848621,89.3576896 L250,67.7569992 L250,45.4139992 Z M204.187072,390.273076 C193.402753,395.074564 182.581142,398.506709 172.340007,400.480905 C179.56797,423.34107 198.073626,439 218.905084,439 L219.485286,438.995997 C230.49989,438.843952 240.979534,434.365433 249.532718,426.335735 L250,425.890999 L250.002696,357.472118 C239.819618,369.910975 223.613973,381.623662 204.187072,390.273076 Z M177.928926,331.296315 C162.212319,338.2938 148.886086,347.682482 140.574363,357.249721 C133.520143,365.369507 131.316542,372.076666 132.936701,375.715602 C134.55686,379.354538 141.015747,382.204909 151.770118,382.395799 C152.984881,382.417361 154.229261,382.403577 155.500263,382.354862 C156.566574,381.815929 157.749213,381.461443 159.012164,381.335951 C170.221772,380.222121 182.858231,376.759813 195.339672,371.236771 C211.27403,364.185422 224.785261,354.724345 233.213321,345.082318 C238.90491,338.57092 241.482497,332.962648 241.471022,329.093703 C241.390711,328.543563 241.24769,328.039107 241.044564,327.58288 C239.424405,323.943944 232.965518,321.093573 222.211148,320.902683 C209.539675,320.677764 193.645533,324.298831 177.928926,331.296315 Z M250,88.2359992 L163.998181,107.162 L163.997038,315.743567 C165.894484,314.807746 167.827838,313.900884 169.794193,313.025406 C201.387264,298.959265 233.300381,296.645091 250.00173,308.310574 L250,88.2359992 Z M270.000917,44.155 L270.000917,106.891 L888,165.218999 L888,111.881999 L270.000917,44.155 Z" id="Combined-Shape" fill="#000000" fill-rule="nonzero"></path>
    </g>
</svg>