<svg height="110.19mm" viewBox="0 0 124.88 312.36" width="44.05mm" xmlns="http://www.w3.org/2000/svg"><g transform="translate(-6.31 -2.37)"><path d="m6.41 157.35c0-45.9.12-91.8-.1-137.71 0-9.07 6.33-13.6 13.55-13.8 16.55-.45 33.14-1.49 49.63-2.28 8.4-.4 16.8-.76 25.2-1.16a19 19 0 0 1 9.85 2.23c5.69 3 11.41 5.88 17.27 8.47 6.22 2.74 8.73 7.29 8.72 14-.05 40.49-.22 81 .18 121.47.46 46 .11 92 .48 138 .05 6.28-2.79 10.06-8.08 12.81-8.34 4.34-16.85 8.38-24.86 13.34-3.94 2.45-8.34 2.29-12.63 1.8-6.13-.7-12.28-.92-18.42-1.31-15.7-1-31.42-1.71-47.12-2.68-8.78-.54-13.67-6-13.67-14.89zm96.09-147.84a27.12 27.12 0 0 1 1.57 10q-.06 139.5 0 279c0 .75.06 1.51 0 2.25-.2 2.18.57 2.44 2.39 1.44 4.6-2.53 9.17-5.15 13.93-7.34 4-1.83 5.7-4.45 5.66-8.93-.37-36.24.06-72.48-.45-108.73-.4-28.07-.12-56.16-.17-84.24 0-22.58.12-45.16-.38-67.73-.06-2.75-.73-5-3.24-6.26-6.43-3.2-12.88-6.31-19.31-9.46zm-3.5 149.8q0-71.24 0-142.48c0-6.23-3.23-9.46-9.39-9.32-6 .14-12 .37-18 .64-17.16.79-34.37 1.68-51.61 2.4-6.51.28-9 2.66-9 9.22q0 137.85 0 275.7c0 6.61 2.9 9.94 9.51 10.35 15.62 1 31.24 1.76 46.87 2.64 7.06.4 14.14.68 21.18 1.33 7.25.67 10.42-2 10.42-9.26q.02-70.6.02-141.22z"/><path d="m17.38 239.83c.4-10 5.43-21.18 18.61-27 10.54-4.66 20.89-2.91 30.62 2.78a44.25 44.25 0 0 1 21 44.5c-3.21 20.4-23.53 31.83-42.77 24.06-16.39-6.63-27.4-22.91-27.46-44.34zm16.62 35.17-.49-.5-.51-.5-.5-.5-.5-.5-.5-.5-.5-.5-.5-.5.5.5.5.5.5.5.5.5.5.5.5.5zm42-48.5-.5-.5-.5-.5-.5-.5.5.5.5.5c.17.16.34.33.5.5zm-50-3 .5-.5.49-1 .51-.51.5-.5.5-.5.5-.5.5-.5a2.71 2.71 0 0 0 1.49-1l.51-.51.5-.5 1-.5a2.49 2.49 0 0 0 1.49-1l1-.5 1-.5 1.48-.5a1.17 1.17 0 0 0 .2-.05s.07-.07.11-.11l-.29.18-1.48.5-1 .5-1 .5a2.51 2.51 0 0 0 -1.51 1l-1 .49-.5.5-.51.51a2.63 2.63 0 0 0 -1.49 1l-.5.5-.5.5-.5.5-.5.5-.5.5-.49 1-.5.5-.51.51-.5.99-.51.51-.49 1 .49-1 .51-.51.49-1zm46-1-.51-.5-.5-.5-.5-.5.5.5.5.5zm-13-8-.2-.09.21.07.2.09zm6.5 3-1-.49zm15.5 16.5.5 1 .5 1 .11.17-.11-.17-.5-1zm2 33.52-.5 1-.5 1-.5 1-.5.5c-.17.33-.33.67-.5 1l-.5.5a2.43 2.43 0 0 0 -1 1.5l-.5.5a14.22 14.22 0 0 0 -3 3l-.5.5a3.33 3.33 0 0 0 -2 1.5 2.12 2.12 0 0 0 -1.49 1l-1 .5-1 .5-1 .5-1.48.5-1.5.5c-.19.12-.58-.18-.6.28l.58-.3 1.5-.5 1.49-.5 1-.5 1-.5 1-.5a2.38 2.38 0 0 0 1.49-1 3.23 3.23 0 0 0 2-1.5l.5-.5a5.11 5.11 0 0 0 3-3l.5-.5a2.15 2.15 0 0 0 1-1.5l.5-.5c.17-.33.33-.67.5-1l.5-.5c.17-.33.34-.66.5-1s.33-.67.5-1 .33-.67.5-1a.93.93 0 0 0 .13-.15.58.58 0 0 0 0-.14zm-21.51-52-.2-.09.21.07.18.09zm22.51 49.48c0-.21.49-.32.14-.61l-.14.61a.92.92 0 0 0 -.14.14.37.37 0 0 0 0 .15zm-43-51.5.94-.11-.08-.24-.85.36c-.18.12-.54-.16-.59.26zm43.46 39.81a40.33 40.33 0 0 0 -23.46-36.57c-17.37-7.9-35.82 1.53-39.47 20.19-3.21 16.44 5.92 34.78 21.22 42.35 7.7 3.8 15.71 4.9 23.93 1.81 11.06-4.16 17.77-14.72 17.78-27.78zm1.5-.08c-.2-1.17.24-2.38-.26-3.53 0 1.15-.07 2.3-.07 3.45s.05 2.46.08 3.7c.48-1.18.07-2.42.29-3.62zm-38.06-40.23 3.47-.22c-1.21-.06-2.43-.18-3.64-.16a7.37 7.37 0 0 0 -3.1.2zm9.36 71-2.08.3c.74.05 1.48.14 2.21.14s1.31-.1 2-.15zm5.43-.2a1.15 1.15 0 0 0 -.39-.16 1.36 1.36 0 0 0 -.42.13c.13.06.25.17.38.17a1.19 1.19 0 0 0 .43-.17zm-10.62-.13h-.23a1.5 1.5 0 0 0 .24.2s.12-.08.18-.12zm33.31-23.55v-.23a1.11 1.11 0 0 0 -.22.21s.06.13.1.2zm-30.64-46.87c-.06 0-.15-.13-.19-.11a1 1 0 0 0 -.22.2.83.83 0 0 0 .22 0 .76.76 0 0 0 .19-.09zm-35 26.1.08-.14h-.11zm65.54 6.79-.09.16h.14zm-.44 16.19v-.19l-.11.14zm-37.15 20.35v.15l.15-.09z"/><path d="m61.12 105.09c-19.4 0-34.24-11.54-39.14-27.55-3.69-12.08-2.67-23.65 4.52-34.19 9.61-14.08 27-18.38 42.26-10.79 21.4 10.61 29.08 39 15.65 58.35-6.48 9.34-15.56 14.02-23.29 14.18zm-27.12-66.58-.5.5-1 .49-.5.5-.5.5.5-.5.51-.51 1-.49.5-.5.49-.5.5-.5-.49.49zm40 0-.51-.51-1-.49-.49-.51-1-.49-.51-.51-1-.49-1-.5-1-.5-1-.5-.22-.08.23.06 1 .5 1 .5 1 .5 1 .5.51.51.99.5.51.51 1 .49.51.51.5.5.5.5-.5-.5zm2.5 2 .5.5.5.5.5.5.5.5.49 1 .51.51.5.5.5.5-.5-.5-.5-.5-.5-.52-.49-1-.51-.5-.5-.5-.5-.5zm-46 48.49.5.5zm51 2-.5.5-4.49 4.5-.5.5-.51.5-1 .5-.5.5-1 .5-1 .5-.51.5a4.29 4.29 0 0 0 -2.48 1l-1 .5-1.5.5-2 .49-1.47.18v.18l1.4-.37a3.77 3.77 0 0 0 2-.5l1.56-.48 1-.5a4.34 4.34 0 0 0 2.49-1l.51-.5 1-.5 1-.5.5-.5 1-.5.5-.5.5-.5a9.84 9.84 0 0 0 4.5-4.5l.5-.51.51-.5c.16-.33.32-.66.49-1l.5-.49c.16-.33.32-.66.49-1l.51-.51.49-1 .5-1 .5-1 .08-.22-.06.23c-.17.33-.34.67-.5 1s-.34.67-.5 1-.34.67-.5 1l-.5.51-.51.99-.51.51-.49 1zm-45-54.52.5-.48 1-.5 1-.5-1 .5-1 .5-.5.5zm-3.5 55.52.5.5.5.5.5.5-.5-.5-.5-.5zm-2.5-50-.5.5-.5.5-.5.5-.49 1-.51.5-.49 1 .49-1 .51-.51.49-1 .5-.5.5-.5.5-.5zm6 53 .51.5.49.5-.5-.49zm45-48.51.5.51.49 1-.49-1-.51-.51zm-39.5-13 .19-.15-.18.17-.2.14zm-.5 65-1-.5c.34.17.67.34 1 .51zm-15.5-49.99-.08.18zm59.51 5 .11.19-.13-.18-.5-1-.5-1-.5-1-.49-1c.16.33.33.66.5 1s.33.67.5 1 .33.67.5 1zm1 28.5c.17-.5.34-1 .5-1.49 0-.21.5-.32.15-.62l-.13.63c-.17.5-.34 1-.5 1.49l-.08.22zm-62.97-17a37.37 37.37 0 0 0 16.36 31 29.67 29.67 0 0 0 42.93-9.53c7-11.91 5.94-28.33-3.06-40-8.24-10.66-19-15.85-32.62-13-14.15 2.9-23.62 15.87-23.61 31.53zm33.56 38c1.18-.21 2.24.19 3.21-.34-1 0-2-.08-3-.08s-1.8.08-2.7.13zm-3.69-71.56c.72-.18 1.59.29 2.38-.24l-2.48-.13a8.34 8.34 0 0 0 -1 0c-.4 0-.8.12-1.2.19.4.05.8.13 1.2.16s.69.02 1.1.02zm35.5 38c-.24-.55.33-1.43-.23-2.2 0 .82-.07 1.63-.1 2.44a8 8 0 0 0 0 1c0 .39.08.78.12 1.18.07-.39.16-.78.2-1.17s.01-.69.01-1.28zm-66.49-4.44-.14-2.28c-.05.64-.14 1.28-.15 1.92s.07 1.49.1 2.23zm65.75 10.6h.18a1.3 1.3 0 0 0 0-.48c-.07-.24-.2-.22-.24 0a2 2 0 0 0 .06.44zm0-12.41h.17a.34.34 0 0 0 0-.22c-.07-.24-.17-.24-.22 0a.56.56 0 0 0 .05.18zm-29-31.48a.68.68 0 0 0 -.23-.05c-.27 0-.28.14 0 .24a.3.3 0 0 0 .23 0s.03-.17.04-.23zm-11.05.16c0-.06 0-.17 0-.18a.37.37 0 0 0 -.23 0c-.25.09-.25.19 0 .25.11-.05.19-.1.27-.11zm-2.3.43-.17-.09v.15zm15.4.07.1-.13h-.2zm-9.45 70v-.16l-.16.1zm35.91-24.68v.2l.11-.15zm.13-17.36v-.19l-.09.14z"/><path d="m33.91 150.71a5.5 5.5 0 0 1 3.23-5.26c2.2-1.07 4.23-.4 6 1 .69.55 1.68 1.21 1 2.24-.84 1.31-1.75 2.9-3.37 3.08-1.14.12-.67-1-.28-1.63.48-.83 2.06-1.54.77-2.65a3.16 3.16 0 0 0 -3.76 0 3.77 3.77 0 0 0 -1.7 4.51c.62 2.16 2 3.73 4.34 3.86a3.54 3.54 0 0 0 3.79-2.94c.2-.72 0-2 1.25-1.66s.73 1.51.5 2.4a5.64 5.64 0 0 1 -5.5 4.21 7.18 7.18 0 0 1 -6.19-6c-.06-.38-.06-.8-.08-1.16z"/><path d="m74.43 148.58c-1.4 4.29-2.79 8.64-4.24 13a2.73 2.73 0 0 1 -2 1.76c-.67.19-1.41.28-1.78-.41-.48-.92.38-1.1 1-1.34 2.13-.85 2.29-2.43 1.53-4.28-1.16-2.84-2.38-5.66-3.55-8.5-.26-.65-.82-1.57.14-1.95s1.17.68 1.44 1.32c.93 2.22 1.8 4.47 2.71 6.7a4.08 4.08 0 0 0 .57.76 3.8 3.8 0 0 0 .49-.81c.67-2.23 1.3-4.47 2-6.69.16-.53.35-1.25 1.12-1.06s.53.86.57 1.5z"/><path d="m54.3 150.4c0-1.08 0-2.15 0-3.23a.81.81 0 0 1 .67-.91.77.77 0 0 1 .86.72c.08 3 1.15 5.92 0 8.85a3.31 3.31 0 0 1 -3.34 2.17 4.31 4.31 0 0 1 -4.28-2.46c-1.21-2.72-1-5.67-1.14-8.55 0-.5.19-1 .82-1.05s.86.52.9 1c.14 1.57.21 3.15.28 4.72a6.15 6.15 0 0 0 .54 2.9 2.74 2.74 0 0 0 3.12 1.51c1.28-.25 1.68-1.24 1.71-2.41s0-2.16 0-3.24z"/><path d="m58.46 148.36a12.79 12.79 0 0 1 .35-4.18 3.39 3.39 0 0 1 3.1-2.48c.81-.08 1.9-.12 2 .9s-1 .84-1.65.93a2 2 0 0 0 -1.87 1.7c-.22 1.35.89 1.11 1.63 1.3.49.12 1 .28 1.06.87.05.83-.61.92-1.19.91-1.34 0-1.45.83-1.42 1.82.06 2 .14 4 .18 6 0 .75.53 1.9-.76 2-1 0-.91-1-1-1.74-.11-2.81-.27-5.54-.43-8.03z"/><path d="m58.55 110.85a3.23 3.23 0 0 1 -3.35 3.24 3.75 3.75 0 0 1 -3.62-3.66 3.58 3.58 0 0 1 3.54-3.43 3.8 3.8 0 0 1 3.43 3.85zm-2.25-.23c-.13-.75-.54-1.35-1.41-1.31a1.07 1.07 0 0 0 -1 1.15 1.27 1.27 0 0 0 1.41 1.34c.62-.01.97-.46 1-1.18z"/><path d="m60.91 170.43a4.35 4.35 0 0 0 .15 1c.08.46.61 1 .15 1.36-.74.5-.89-.43-1.23-.8s-.71-.87-.95-.54c-1.11 1.49-1.9 1.69-1.93-.46 0-1.28-1-3.27 1.44-3.51 1.88-.16 2.8.78 2.37 2.95zm-1.67-.78c.1-.13.35-.31.36-.49 0-.41-.35-.55-.69-.47-.18.05-.44.3-.44.46-.01.39.3.53.77.5z"/><path d="m42 169.65c-.06-2.81.72-3.49 2.8-2.78.3.11.71.11.69.54s-.39.46-.72.5-1 0-1.17.18c-.91 1.33 2.51.9 1 1.76-2.09 1.25-1.18 1.27.23 1.62.39.1 1 .1.93.59-.07.69-.75.45-1.2.48-2.37.19-2.69-1.33-2.56-2.89z"/><path d="m38.69 166.5c.75 0 1.65.1 1.72.8.1 1.11-.78.34-1.22.39s-.74 0-.72.45c0 .24.32.53.57.69a15.44 15.44 0 0 1 1.49.84 1.42 1.42 0 0 1 .29 1.81 1.62 1.62 0 0 1 -1.69.81c-.66 0-1.42-.11-1.67-.83s.34-.7.85-.61.95.23 1.07-.26-.51-.55-.86-.7c-1-.43-1.7-1.07-1.45-2.27.19-.89.93-1.09 1.62-1.12z"/><path d="m56.38 169.86c-.05 1.22-.33 2.35-1.56 2.87-1 .44-1.75-.2-2.29-1a4.72 4.72 0 0 1 -.53-3.73c.08-.39.54-.34.74 0a3.23 3.23 0 0 1 .24.95c.17.92-.19 2.42 1.08 2.41s.7-1.52.92-2.38c.09-.39.1-1 .56-.92.93.19.64 1.15.84 1.8z"/><path d="m48.79 167c.62.06 1.57 0 1.6.74 0 .94-.89.32-1.37.45-1 .25-1 1-1 1.76 0 1 .2 1.86 1.5 1.78.39 0 .95-.21 1 .37s-.6.75-1.07.76c-2.12.05-2.54-1.34-2.66-3.1-.09-1.59.21-2.76 2-2.76z"/><path d="m56.26 23.92c-.08 1-.6 1.77-1.67 1.8a1.73 1.73 0 0 1 -1.89-1.84 1.63 1.63 0 0 1 1.65-1.8c1.2-.08 1.75.73 1.91 1.84zm-1.5 0-.17-.39c-.12.06-.31.11-.34.2s.09.25.14.38z"/><path d="m71.26 173.43a2.9 2.9 0 0 1 -.34-.81 7.07 7.07 0 0 0 -1-2.74c-.26-.45-1-1-.38-1.48s.81.31 1.12.65.58.55 1 .25.73-1.45 1.44-.66c.43.49-.41 1.15-.6 1.75s-.32 1.43-.47 2.14c-.09.39-.03.84-.77.9z"/><path d="m65.17 167.74c1.75.2 3.53-.18 2 2-.61.89.4 3-.65 3s-.42-1.91-.87-2.92c-.24-.54-2.15-1.46-.48-2.08z"/><path d="m63.64 170.71c-.23.79.48 2.17-.45 2.18-1.18 0-.67-1.43-.7-2.22s-.43-2.41.4-2.38c1.19.06.44 1.61.75 2.42z"/><path d="m79.14 68.55c0 12.87-8.14 22.62-20.57 24.22-6.71.86-12.57-1.64-17.75-5.85-9.45-7.68-12.59-22-7.19-32.89 6.8-13.67 23.58-17.2 35.28-7.32 6.73 5.68 10.3 12.93 10.23 21.84zm-2.14-.12a25.26 25.26 0 0 0 -9.69-20.23c-10.82-8.92-26.26-5.3-32.09 7.45-4.87 10.64-1 24.41 8.89 31.05 7.28 4.89 15 5.59 22.6 1.08 7.16-4.26 10.29-11.09 10.29-19.35z"/><path d="m71.61 67.61c-.01 13.39-12.15 21.17-23.14 15.39a19.4 19.4 0 0 1 -9.47-21.28c1.88-7.65 8.61-13.1 15.59-12.62a18.31 18.31 0 0 1 16 12.41 15.73 15.73 0 0 1 1.02 6.1zm-8.69-.07c0-4.92-3.91-9.05-8.5-9-4.1.05-6.94 3.25-7 7.84 0 5.22 3.5 9.09 8.25 9.08 4.24.01 7.26-3.32 7.25-7.92z"/></g></svg>