<svg height="960" viewBox="0 0 960 960" width="960" xmlns="http://www.w3.org/2000/svg"><path d="m307.658186 7.78661014 344.350575 2.94062376c166.366374 1.4196781 301.408021 135.3089561 301.408021 299.5142671v338.473583c0 164.205311-135.041647 298.094589-301.408021 299.514267l-344.350575 2.938496c-166.783839 1.423241-302.09067224-132.728959-302.09067224-299.514267v-344.350575c0-163.449602 129.94868224-295.5583666 292.12224524-299.43779477l4.974459-.07860009zm42.261986 40.36196326c-125.111375 13.081536-222.920172 135.1685566-222.920172 265.6242336v330.401768c0 130.392881 97.714659 253.348487 222.739523 266.632546l301.927913-2.576314c144.560172-1.233596 261.749346-117.422743 261.749346-259.515723l-.000268-92.594474-225.373282.000206c-43.480293 0-78.728034-35.247742-78.728034-78.728034 0-43.480293 35.247741-78.728035 78.728034-78.728035l225.373282-.000137.000268-88.423109c0-142.09298-117.189174-258.2821273-261.749346-259.5157234zm-80.750401 2.0712739-.153564.0228171c-126.404338 17.4548726-223.4486932 125.5105836-223.4486932 257.0603406v344.350575c0 129.559826 94.1306132 236.331011 217.7327902 256.206268-104.184452-34.5895-180.300304-144.748815-180.300304-260.702361v-335.367319c0-118.120202 78.986962-229.4811354 186.169771-261.5703207zm419.361832 386.9639477c-3.63735-2.875077-8.773915-2.872892-12.408817.005279l-21.775538 17.242201c-3.48024 2.755708-4.727221 7.475876-3.062098 11.590892l6.70596 16.572433c1.534245 3.791579.604771 8.135285-2.346736 10.966995l-1.140553 1.094259c-.199207.191121-.387674.39313-.564536.605098-2.645142 3.170185-2.21951 7.884439.950676 10.52958l18.847472 15.725968c3.387803 2.826718 8.227822 3.099065 11.911354.670251l22.355411-14.740512c3.793575-2.501373 5.423755-7.245994 3.968659-11.550733l-6.141126-18.167825c-1.191646-3.52535-.327171-7.420812 2.243852-10.111156l1.98773-2.079979c.175726-.183883.342726-.37591.500449-.57545 2.784145-3.522309 2.185745-8.6347-1.336564-11.418845z"/></svg>