<svg height="960" viewBox="0 0 960 960" width="960" xmlns="http://www.w3.org/2000/svg"><path d="m486.85456 115.590977c169.030008 0 319.618351 47.178305 384.79948 122.807509l1.010977 1.193491.765129.492597c22.501775 14.555142 40.827015 30.667092 54.400706 48.323873l.663725.869611c16.2548 21.45149 25.418855 45.088686 26.17709 69.902963l.00835.316956.10629.782925c4.98262 36.989302 6.931904 68.920461 5.749145 96.002704l-.053399 1.174434c-1.270646 26.88002-6.01507 56.509941-14.151513 88.990481l-.238523.945456-.185736 1.277336c-.06474.430739-.131388.861228-.199939 1.29146l-.002325.010204.002215.014652c.662696 4.275855.631774 8.844881-.234776 13.636131l-.234129 1.202401c-8.418653 40.36873-16.425977 68.014025-25.366705 85.183268-8.676116 16.661098-23.679485 27.563756-42.184904 32.813486-9.706311 2.753545-20.400185 3.993458-32.241915 3.931831l-.924786-.008769-1.074993.710243c-53.903473 35.330217-125.648866 61.886375-207.053259 76.884146l-1.422748.258611-.017918.039786-.035261.075745c-.367474.789034-.640782 1.36948-.940322 1.991738-9.508326 19.752424-24.034922 30.226604-50.052924 36.621012-6.669065 1.639047-14.58729 3.181427-24.342807 4.768858-23.195135 3.774343-50.567259 4.943458-82.036222 4.125973-23.383786-.607452-46.864966-2.201168-74.785542-4.745593-25.071544-2.284791-42.780185-6.95276-56.350655-15.976482-8.191721-5.447107-14.586894-12.355672-19.113496-20.485843-1.05997-1.903799-1.980765-3.801805-2.795817-5.722017l-.302036-.726177-2.824549-.519715c-80.54072-15.00913-151.566662-41.354547-205.094731-76.335519l-1.45072-.954766-.101127.000819c-11.575944.018592-22.0561131-1.216966-31.5892565-3.91393l-.7922396-.228135c-18.1768864-5.326756-32.9080114-16.177835-41.4624667-32.605302-8.9407287-17.169243-16.948052-44.814538-25.3667056-85.183268-.6719506-3.222106-.9665372-6.34768-.9259651-9.355694l.0047609-.15149-.0514257-.255555c-1.4300339-7.323874-2.3049726-14.721419-2.6126198-22.16954l-.0009545-.034905-.1129125-1.121666c-3.69047926-37.066692-5.2392523-65.69535-4.56762718-86.496796l.02294598-.682927.02396076-.65904c.81304737-21.58511 4.61984544-51.545435 11.38171694-90.496654.2750279-1.584276.6416119-3.134848 1.0939957-4.646325l.1339203-.433592.134572-1.024939c5.7392669-41.545424 34.6612986-77.826535 80.6251826-107.461858l.377245-.242203 1.013265-1.19548c64.511649-74.848833 212.676187-121.830754 379.579522-122.791498zm-125.391624 634.411438.073761.155865c3.411075 7.490789 11.961717 14.486102 44.850514 17.483285 41.110996 3.746478 102.484201 8.179617 146.767218.973826 35.149297-5.71954 40.216374-10.097238 44.400605-18.486553-35.331755 4.847179-72.347916 7.54416-110.439345 7.843245l-7.115689.027917c-40.962614 0-80.720703-2.769801-118.537064-7.997585zm547.411927-218.754212-.896926 1.027246c-68.809986 77.017389-235.432132 129.795985-429.332189 129.795985-191.070833 0-355.653978-51.249632-426.2578852-126.440238l-.2284019-3.301224c6.249578 114.112796 195.4079511 205.670028 427.8405391 205.670028 139.840841 0 264.017663-33.141081 342.121149-84.396334.078881-.050591.156519-.101779.234111-.152984l-.234111.152984c.976136-.640588 1.945075-1.284005 2.906759-1.930221l-2.672648 1.777237c3.643492-2.404441 7.185748-4.848512 10.623644-7.33067l.033295.003833c34.824487-25.047242 59.015607-53.986259 69.355375-85.226868l-.552576.615444c2.368-7.092988 4.021504-14.305022 4.922767-21.617452l-.010002-.00177c.571552-2.231318 1.125731-4.446338 1.662537-6.645058.031701-.129848.063336-.259614.09491-.389322l-.09491.389322c.163125-.668151.324646-1.334797.484563-1.999938zm-20.897952 92.388539-.893758 1.024739c-5.933264 6.678801-12.457575 13.169871-19.536904 19.458164 8.143658-2.468296 13.762234-6.662238 16.846467-12.585015 1.180175-2.266337 2.374907-4.898967 3.584195-7.897888zm-814.5373706 1.622697.0542334.123953c.9640266 2.285439 1.918713 4.335852 2.8640591 6.151238 2.930191 5.626965 8.1478929 9.693474 15.6530058 12.199607-6.7026898-5.980724-12.9032204-12.143169-18.5712983-18.474798zm-22.673782-217.651586-.0172922.142613c-1.9409665 14.979062-3.102109 27.530294-3.4834277 37.653696l-.0219433.604491c-.089969 2.576373-.1397546 5.316255-.1493569 8.219646-.0077661 2.347501.0107429 4.80223.0555283 7.363879.0113641.650023.0244236 1.30709.0391759 1.971045.0181268.815838.0388127 1.642195.0620551 2.478956.0240524.865904.0508328 1.742654.080349 2.630538.0165137.496754.0338872.997087.0521174 1.500906.0107788.297888.0218569.596989.0332344.89731.0232963.614934.0478639 1.235359.0736886 1.860899.0464008 1.123951.0968679 2.264579.1513947 3.421727.0066647.141431.0133563.282404.0201079.423622.0398595.833717.0818392 1.676476.1259143 2.527763.0626032 1.209159.1294582 2.435942.2005437 3.67994.0353873.619281.0718346 1.243022.109331 1.871032.0465652.779905.0947597 1.566573.1445729 2.359827.0199853.318257.0402274.637517.0607299.957836l.0543523.842269c.0484648.745021.0983225 1.495709.149573 2.252065.0291897.430783.0588336.863438.0889293 1.297932.0275384.39757.0554177.796148.0836743 1.196262l.0072572.102678c.0548888.775966.111195 1.557698.1689185 2.345198.0372285.507898.0750865 1.018728.1135353 1.531963.0225503.301012.0452904.602673.0682334.905161l-.0119568.001903c48.3691199 81.125362 221.9644021 143.422424 429.6207501 143.422424 229.494776 0 417.38763-76.089154 440.620125-169.591522l-.014034-.001682c.007395-.072486.014763-.144948.022105-.217386.022197-.218996.044192-.438132.06595-.657045l-.06595.657045c.159334-1.572013.306434-3.132548.441298-4.681604.087637-1.006614.170066-2.007855.247334-3.004254.090661-1.169086.174251-2.332015.25073-3.488272.033087-.50023.064831-.999024.095245-1.49657.038969-.637512.075732-1.272568.110315-1.905578.038651-.707467.07459-1.412642.107804-2.115259.068692-1.453155.127112-2.924747.175261-4.414775.041885-1.296164.076-2.606397.102341-3.930583.003866-.194367.007574-.389509.011113-.584952.008412-.464496.015868-.930374.022375-1.397955.013215-.94965.022516-1.906476.0279-2.870334.00085-.152165.001602-.304616.002257-.457243l-.002257.457243c.004651-.832789.006378-1.670826.005181-2.514113-.000851-.600992-.003194-1.205561-.007026-1.812803-.00331-.524532-.007738-1.051737-.01328-1.580941-.002418-.230924-.005054-.462667-.007903-.694793l.007903.694793c-.015865-1.514873-.040862-3.046136-.074991-4.593789-.015575-.706229-.03303-1.415095-.052383-2.127366-.003233-.119029-.006539-.238813-.009898-.358693l.009898.358693c-.02294-.844312-.048546-1.693409-.076818-2.547291-.005747-.173599-.011639-.34838-.017642-.523361-.034441-1.00393-.072546-2.014338-.114318-3.03133-.042617-1.037564-.08908-2.082609-.139366-3.134514-.001521-.031808-.003084-.064434-.004651-.097066l.004651.097066c-.078059-1.632867-.165328-3.282265-.261806-4.948193-.051569-.890458-.105776-1.785757-.162615-2.68578-6.748342 11.115377-15.723904 21.779568-26.751344 31.900856l-.761977.693917.889855 33.305474c.150478 5.636254-2.084825 11.0672-6.143198 14.962452l-.307788.289244c-7.61212 7.003876-13.874461 12.205876-19.037868 15.733319-5.416512 3.700354-11.840521 7.081858-19.302348 10.226277-8.561977 3.608022-18.481152.844529-23.944133-6.670863-5.508667-7.578241-9.607343-13.5543-12.393527-18.11805l-.015993-.024853-.033572-.007475c-.096491-.021167-.199577-.043398-.31066-.066999l-.046768-.010526-.557541.246025c-82.329636 35.927842-197.261791 56.799298-320.524529 57.225819l-3.854645.006667c-151.471832 0-289.690084-30.899564-371.170215-81.491267l-1.19807-.753244-.097508.109368c-8.033497 8.780963-22.327045 8.682817-30.1546453-.833314l-.2556934-.317131-22.0970139-27.961297c-2.5635575-3.243895-4.0587555-7.202567-4.2798252-11.331224-.2189165-4.088445-.305294-7.759922-.2428853-11.063779l.0105714-.469623-.3019834-.442c-2.3160032-3.422733-4.4181887-6.891156-6.3015335-10.401147zm831.9437906-109.503388.525 1.85005c2.234668 8.353907 3.38807 16.917842 3.38807 25.665166 0 35.501789-18.998996 67.982783-52.17449 95.66195l-.009496-.004627c.8245 1.850492.795768 5.04694.068824 8.77996-.602193 3.092394-1.418235 7.010537-2.440714 10.329946-3.06167 9.9395-7.938235 14.328989-13.021233 18.253357l-.57623.442555c-.288469.220557-.577405.440238-.866516.659966l-.57837.439792-.578318.441556-.288978.221952c-6.066587 4.671359-6.593737 3.450094-9.660266.763218-1.704739-1.493684-5.514048-5.951007-11.427926-13.371968-73.525069 41.84873-184.639678 67.411047-308.214346 67.411047-146.045449 0-274.687371-35.70404-344.454582-91.796085l.011655-.004013c-.205427 1.418945-1.158425 2.993535-3.396062 4.765312-6.247782 4.947041-10.462132 13.305874-17.211267 6.234579-2.317905-2.428545-4.40227-4.727899-6.06793-7.047507-1.567654-2.183122-4.214297-9.832347-4.363119-11.556865-.275239-3.189425-.353347-6.488348-.234322-9.896767.139377-3.991225.632498-8.869408 2.380035-11.038173-17.0675246-21.327924-26.4324672-44.764053-26.4324672-69.689185 0-9.259895 1.2925349-18.31428 3.7920314-27.131551l.0124737.001969c-19.696994 19.060677-30.9271558 39.857289-31.8317275 61.651544l-.0316207.002902c-.0275582.795114-.0413824 1.591547-.0413824 2.389263 0 17.426217 6.5970175 34.240136 18.8527513 50.068889l.0120388-.003072c-.5703177 3.688103-.6630129 9.126572-.2780856 16.315405l22.0970139 27.961297c3.7779973-5.714671 7.2637453-10.271166 10.4523653-13.667483 72.301862 53.205118 213.893917 89.353667 376.732201 89.353667 129.301247 0 245.206522-22.792043 323.654387-58.819614 1.165095.687215 2.412439 1.164173 3.742032 1.430874.208271.041776.416613.083589.624912.125736l.624655.127737c4.890334 1.013104 9.693986 2.374538 12.930357 7.941557 2.341205 4.027205 6.454017 10.088389 12.338438 18.183552 6.30355-2.65632 11.565902-5.426346 15.787056-8.310077s9.813773-7.529407 16.777857-13.937028l-1.142113-42.778661c27.251358-22.369926 42.530703-47.472281 42.530703-73.992779 0-1.120077-.027254-2.237624-.081514-3.352542-.041176-.846103-.097913-1.690781-.170097-2.533901-.187012-2.184265-.47767-4.357905-.870097-6.520339-.171088-.942817-.361584-1.883765-.571279-2.82252-.186048-.832863-.387283-1.664321-.603532-2.494007-.132525-.508513-.270658-1.0162-.414402-1.523212-.078569-.27706-.158806-.553953-.240714-.830643l.240714.830643c-.340258-1.200153-.711956-2.396523-1.114759-3.588977-.105255-.311494-.212615-.622766-.322093-.933769-.274573-.780112-.562397-1.558248-.863438-2.334652l-.377622-.955657c-.250061-.62135-.508593-1.241575-.775549-1.860657-.298019-.691299-.606616-1.381178-.925647-2.069606l-.443468-.94176c-.250601-.524079-.507255-1.047306-.769932-1.569669-.224089-.445857-.452419-.890584-.685108-1.334676-.599201-1.143283-1.22678-2.281689-1.882904-3.415761-5.292197-9.022728-12.392563-17.76996-21.141854-26.177638zm-395.709549-142.104465c-2.073652 0-4.143425.007431-6.209192.022236-2.876484.020616-5.74502.055527-8.605451.104583-1.245813.021366-2.489902.045411-3.732426.072126-.416536.008956-.832425.018201-1.248138.027745l1.248138-.027745c-1.906826.040997-3.809966.088282-5.70932.141809l4.461182-.114064c-1.630447.037432-3.258179.079461-4.883133.12606l.421951-.011996c-.980091.027621-1.959174.056904-2.937235.087842l2.515284-.075846c-1.665928.047774-3.328936.10035-4.988955.157698l2.473671-.081852c-3.859731.122094-7.703543.269976-11.53058.443263-.192299.008707-.383676.017438-.57501.026233l.57501-.026233c-2.875761.130213-5.74205.274771-8.598504.433512-.570523.031706-1.140231.063953-1.709544.096764l1.709544-.096764c-1.279122.071084-2.556272.145012-3.831417.22177l2.121873-.125006c-1.61899.093306-3.234787.19117-4.847327.293563l2.725454-.168557c-1.409146.084823-2.815843.173103-4.220048.264817l1.494594-.09626c-1.604255.101867-3.205284.208215-4.803024.319017l3.30843-.222757c-1.636362.106878-3.26934.218421-4.898863.334599l1.590433-.111842c-1.583054.109783-3.162878.223938-4.739408.342435l3.148975-.230593c-1.87237.133491-3.740179.273101-5.603323.418783l2.454348-.18819c-1.562388.117434-3.121542.239134-4.6774.365072l2.223052-.176882c-1.606844.125641-3.210217.255798-4.810052.390441l2.587-.213559c-1.598059.129353-3.192641.263177-4.783678.401442l2.196678-.187883c-1.422202.119692-2.841608.24293-4.25817.369691l2.061492-.181808c-1.579796.137288-3.156098.278954-4.728839.424969l2.667347-.243161c-1.513531.135439-3.023816.274899-4.530796.418357l1.863449-.175196c-1.558742.144715-3.113987.293702-4.665671.446932l2.802222-.271736c-1.805107.171837-3.605472.349408-5.400996.532669l2.598774-.260933c-1.538527.151931-3.073553.308033-4.605016.468279l2.006242-.207346c-1.446637.147652-2.890131.298996-4.330431.454011l2.324189-.246665c-1.577398.165052-3.151015.3345-4.720784.508314l2.396595-.261649c-1.408035.151542-2.813017.306591-4.214898.465126l1.818303-.203477c-1.553258.171985-3.102747.348245-4.648403.528749l2.8301-.325272c-1.754879.198455-3.504898.402371-5.24996.611706l2.41986-.286434c-1.48185.173053-2.960175.350007-4.434919.530836l2.015059-.244402c-1.874228.22483-3.742739.455911-5.605414.693189l3.590355-.448787c-1.513656.185601-3.023539.375285-4.529586.569023l.939231-.120236c-1.341096.170837-2.679166.344886-4.014168.522129l3.074937-.401893c-1.552588.199725-3.101099.403759-4.645464.612071l1.570527-.210178c-1.346378.178753-2.689634.360754-4.029722.545982l2.459195-.335804c-1.531666.2066-3.059253.417407-4.582696.632392l2.123501-.296588c-1.380096.190758-2.756833.384939-4.130161.58252l2.00666-.285932c-1.514873.213776-3.025647.431684-4.532257.653693l2.525597-.367761c-1.501682.216049-2.999288.436163-4.492754.660315l1.967157-.292554c-1.494996.220297-2.985892.444634-4.472623.67298l2.505466-.380426c-1.520669.228234-3.037045.460654-4.54906.697229l2.043594-.316803c-1.473595.226329-2.943099.456597-4.408448.690776l2.364854-.373973c-1.463084.22892-2.922083.461729-4.376937.698402l2.012083-.324429c-1.511311.241524-3.018203.487209-4.520607.737023l2.508524-.412594c-1.339824.217959-2.676133.439195-4.008876.663685l1.500352-.251091c-1.480303.24614-2.956248.496289-4.427771.750417l2.927419-.499326c-1.482167.249659-2.959925.503343-4.433209.761022l1.50579-.261696c-1.423078.245761-2.842019.495245-4.256764.748423l2.750974-.486727c-1.70058.297434-3.395199.600192-5.083753.908226l2.332779-.421499c-1.444354.258478-2.884334.520807-4.319877.786958l1.987098-.365459c-1.541083.281132-3.077115.56666-4.608018.856549l2.62092-.49109c-1.425322.264257-2.846269.532283-4.262779.804049l1.641859-.312959c-1.364213.258325-2.724352.520113-4.080364.78534l2.438505-.472381c-1.465372.281141-2.925997.566285-4.381804.855402l1.943299-.383021c-1.3303.260197-2.656627.523704-3.978928.790496l2.035629-.407475c-1.447778.287523-2.890793.578974-4.328977.874324l2.293348-.466849c-1.473692.297338-2.942384.598757-4.406004.904225l2.112656-.437376c-1.364471.280213-2.724594.563935-4.080311.85114l1.967655-.413764c-1.397082.291581-2.789542.586852-4.177319.885784l2.209664-.47202c-1.468732.311148-2.932292.626384-4.390606.945676l2.180942-.473656c-1.271233.273828-2.538537.550728-3.801863.83068l1.620921-.357024c-1.390833.304517-2.776895.612722-4.158121.924589l2.5372-.567565c-1.49116.330439-2.976777.665128-4.456773 1.004032l1.919573-.436467c-1.372014.309786-2.739257.623184-4.101667.940166l2.182094-.503699c-1.491511.341541-2.977314.687363-4.457326 1.03743l2.275232-.533731c-1.338727.311472-2.672788.626404-4.002123.94477l1.726891-.411039c-1.427718.337698-2.850048.679345-4.266916 1.02491l2.540025-.613871c-1.39058.333034-2.775989.669825-4.156159 1.010344l1.616134-.396473c-1.258987.307058-2.513661.61721-3.763973.930431l2.147839-.533958c-1.369762.33795-2.734363.679572-4.093738 1.024836l1.945899-.490878c-1.40862.35288-2.811701.709657-4.209173 1.070298l2.263274-.57942c-1.328649.337459-2.652305.678398-3.970907 1.022787l1.707633-.443367c-1.277818.329763-2.550946.662756-3.819327.998956l2.111694-.555589c-1.385866.361958-2.766148.727727-4.140774 1.097277l2.02908-.541688c-1.244999.330001-2.485425.663092-3.721225.999248l1.692145-.45756c-1.314377.353353-2.623582.710161-3.927555 1.070397l2.23541-.612837c-1.321929.359584-2.638566.722675-3.949844 1.089245l1.714434-.476408c-1.346252.371917-2.686926.747487-4.021952 1.12668l2.307518-.650272c-1.305966.365085-2.606617.73362-3.90189 1.105577l1.594372-.455305c-1.261436.358291-2.517829.719816-3.769123 1.08455l2.174751-.629245c-1.423047.408649-2.839602.821428-4.249581 1.2383l2.07483-.609055c-1.300718.37914-2.595925.761747-3.885555 1.147792l1.810725-.538737c-1.177095.348017-2.349606.698887-3.517485 1.052587l1.70676-.51385c-1.328839.397781-2.651757.799213-3.968682 1.204261l2.261922-.690411c-1.212161.36711-2.41933.73727-3.621455 1.110454l1.359533-.420043c-1.269739.390536-2.533906.784435-3.792439 1.181668l2.432906-.761625c-1.281035.39768-2.556341.798795-3.82585 1.203314l1.392944-.441689c-1.25574.396351-2.50587.796022-3.750326 1.198984l2.357382-.757295c-1.324955.422186-2.643596.848081-3.955848 1.27765l1.598466-.520355c-1.215807.393686-2.4262.790512-3.631117 1.190454l2.032651-.670099c-1.304619.427071-2.602923.857773-3.894837 1.292074l1.862186-.621975c-1.254137.416279-2.502342.835932-3.744549 1.258929l1.882363-.636954c-1.158499.389451-2.311859.781795-3.460028 1.177009l1.577665-.540055c-1.244747.423862-2.48347.851082-3.716102 1.28163l2.138437-.741575c-1.281867.441235-2.557264.886047-3.826114 1.334402l1.687677-.592827c-1.167903.407938-2.330338.818864-3.487248 1.232751l1.799571-.639924c-1.209339.427326-2.412731.857871-3.610113 1.291607l1.810542-.651683c-1.251775.447826-2.497082.899119-3.735848 1.353848l1.925306-.702165c-1.173754.425176-2.341733.853418-3.503875 1.284698l1.578569-.582533c-1.15016.422202-2.29468.847365-3.433504 1.275464l1.854935-.692931c-1.235254.458413-2.463915.920258-3.685909 1.385503l1.830974-.692572c-1.193241.448554-2.380227.900331-3.560891 1.3553l1.729917-.662728c-1.2103.460794-2.414061.924922-3.611211 1.392354l1.881294-.729626c-1.144312.44096-2.282685.884919-3.415059 1.33185l1.533765-.602224c-1.109997.433403-2.21431.869645-3.312883 1.308702l1.779118-.706478c-1.188168.468951-2.369732.941174-3.54462 1.416638l1.765502-.71016c-1.111294.444141-2.216713.891162-3.316201 1.341037l1.550699-.630877c-1.163433.470827-2.32032.944831-3.470593 1.421982l1.919894-.791105c-1.076422.440437-2.147157.883609-3.212152 1.329493l1.292258-.538388c-1.139014.47248-2.271542.948045-3.397518 1.426666l2.10526-.888278c-1.115292.466941-2.224287.936855-3.326924 1.409714l1.221664-.521436c-1.107898.470936-2.209453.944831-3.304602 1.421655l2.082938-.900219c-1.116304.47872-2.226091.960459-3.329294 1.445186l1.246356-.544967c-1.097316.477768-2.1882.958477-3.272589 1.442099l2.026233-.897132c-1.182605.519615-2.357645 1.042665-3.525039 1.569113l1.498806-.671981c-1.055831.470886-2.105505.944534-3.148962 1.420917l1.650156-.748936c-1.136793.512648-2.266334 1.028519-3.388551 1.547578l1.738395-.798642c-1.067849.487518-2.129187.977902-3.183952 1.471122l1.445557-.67248c-1.049375.485368-2.092346.973525-3.12885 1.464443l1.683293-.791963c-1.094011.511572-2.180951 1.026195-3.260749 1.543839l1.577456-.751876c-.988401.468135-1.970922.938781-2.947511 1.411914l1.370055-.660038c-1.075114.515398-2.143148 1.03379-3.204033 1.555146l1.833978-.895108c-1.013443.490989-2.020498.984656-3.021105 1.480975l1.187127-.585867c-1.040659.511415-2.074438 1.025682-3.101273 1.54277l1.914146-.956903c-1.060649.526101-2.114053 1.055182-3.160141 1.587212l1.245995-.630309c-.994805.500959-1.983091 1.004566-2.9648 1.510796l1.718805-.880487c-1.066988.542659-2.126366 1.088385-3.178059 1.637145l1.459254-.756658c-1.0072.519374-2.007476 1.041508-3.000764 1.566373l1.54151-.809715c-.972173.507269-1.93778 1.01713-2.896761 1.529557l1.355251-.719842c-1.018957.538428-2.03056 1.079731-3.034741 1.623877l1.67949-.904035c-.957926.511864-1.909241 1.026288-2.853886 1.543247l1.174396-.639212c-.982579.532441-1.958051 1.067604-2.92635 1.60546l1.751954-.966248c-.995477.544777-1.983548 1.092368-2.964143 1.642743l1.212189-.676495c-.963896.53541-1.920685 1.073488-2.870303 1.614206l1.658114-.937711c-.947138.531597-1.887302 1.065792-2.82043 1.602555l1.162316-.664844c-.939023.534686-1.871034 1.071953-2.795971 1.611774l1.633655-.94693c-.995633.572719-1.983256 1.148362-2.962793 1.726897l1.329138-.779967c-.920355.537146-1.833706 1.076821-2.739991 1.618996l1.410853-.839029c-.965812.570429-1.923764 1.143669-2.873782 1.719687l1.462929-.880658c-.915017.547399-1.822832 1.097348-2.723381 1.649818l1.260452-.76916c-.894796.542536-1.782555 1.087536-2.663215 1.634975l1.402763-.865815c-.942339.578106-1.876722 1.158973-2.803079 1.742568l1.400316-.876753c-.858751.533819-1.710752 1.069956-2.555949 1.608386l1.155633-.731633c-.886309.558366-1.76527 1.11923-2.63682 1.682563l1.481187-.95093c-.916309.583732-1.824621 1.17016-2.724863 1.759252l1.243676-.808322c-.876837.56675-1.746173 1.135999-2.607943 1.70772l1.364267-.899398c-.846972.554233-1.686802 1.110824-2.51943 1.669746l1.155163-.770348c-.863305.572738-1.719017 1.147956-2.567073 1.725624l1.41191-.955276c-.888572.596476-1.768941 1.195606-2.641037 1.797359l1.229127-.842083c-.83311.567488-1.658831 1.137341-2.477101 1.709532l1.247974-.867449c-.82638.57021-1.645332 1.142775-2.456792 1.717667l1.208818-.850218c-.847949.592944-1.687898 1.188399-2.519778 1.786333l1.31096-.936115c-.819106.580309-1.630579 1.162989-2.434356 1.748012l1.123396-.811897c-.846146.608189-1.683945 1.218944-2.513323 1.832233l1.389927-1.020336c-.787887.573457-1.568379 1.149167-2.341417 1.727101l.95149-.706765c-.767372.567437-1.527536 1.137043-2.280435 1.708792l1.328945-1.002027c-.830427.620838-1.652253 1.244245-2.465403 1.870186l1.136458-.868159c-.792242.601626-1.576441 1.205626-2.352529 1.811969l1.216071-.94381c-.782675.602482-1.557312 1.207312-2.323847 1.814461l1.107776-.870651c-.777201.607212-1.546268 1.216775-2.307137 1.828658l1.199361-.958007c-.749477.593639-1.491209 1.189495-2.225132 1.78754l1.025771-.829533c-.747947.601493-1.487972 1.205229-2.22001 1.811179l1.194239-.981646c-.768283.626043-1.52801 1.254485-2.279111 1.885295l1.084872-.903649c-.736629.609751-1.465172 1.221743-2.185563 1.83595l1.100691-.932301c-.707771.594419-1.407882 1.190941-2.100274 1.789538l.999583-.857237c-.750799.640132-1.492745 1.282669-2.225763 1.927577l1.22618-1.07034c-.68523.592406-1.3629 1.186844-2.032952 1.78329l.806772-.71295c-.702103.617709-1.396017 1.237594-2.081677 1.859626l1.274905-1.146676c-.706404.628804-1.404342 1.259839-2.093747 1.893076l.818842-.7464c-.700244.635263-1.39188 1.272766-2.074839 1.912477l1.255997-1.166077c-.655488.602083-1.303263 1.206157-1.943266 1.812195l.687269-.646118c-.657093.615483-1.306153 1.233011-1.947121 1.852556l1.259852-1.206438c-.708202.670617-1.406888 1.34364-2.095981 2.019034l.836129-.812596c-.648178.626514-1.28808 1.255091-1.919644 1.885704l1.083515-1.073108c-.64386.631061-1.279344 1.264191-1.90639 1.899362l.822875-.826254c-.64129.640324-1.273983 1.282747-1.898013 1.927239l1.075138-1.100985c-.627909.636046-1.247355 1.274139-1.858275 1.91425l.783137-.813265c-.618675.63896-1.228835 1.279955-1.830416 1.922954l1.047279-1.109689c-.618949.648524-1.229147 1.29912-1.830526 1.951757l.783247-.842068c-.601257.642653-1.193944 1.287308-1.777998 1.933938l.994751-1.09187c-.590714.641064-1.17292 1.284098-1.746555 1.929074l.751804-.837204c-.597292.661286-1.185554 1.324636-1.764719 1.990021l1.012915-1.152817c-.576136.647789-1.143626 1.297537-1.702407 1.949215l.689492-.796398c-.565764.649989-1.122846 1.301919-1.671184 1.955761l.981692-1.159363c-.569889.664634-1.130719 1.331277-1.682421 1.999897l.700729-.840534c-.54861.654168-1.088467 1.310251-1.619506 1.96822l.918777-1.127686c-.536453.650138-1.064275 1.302145-1.583405 1.955995l.664628-.828309c-.641522.794859-1.270175 1.592471-1.885848 2.392785l-.413052.245867c-13.029912 17.172153-20.097006 35.577716-20.097006 54.722284 0 93.90426 170.027951 170.028704 379.768059 170.028704 209.740107 0 379.768059-76.124444 379.768059-170.028704 0-20.485512-8.091768-40.124868-22.922352-58.31233-.227823-.279387-.456869-.557989-.687495-.836248l.687495.836248c-.68597-.841238-1.386357-1.67937-2.101027-2.514335l1.413532 1.678087c-.621218-.749521-1.253902-1.496548-1.897957-2.241039l-1.993369-2.262803c-.055517-.061039-.11111-.122061-.166781-.183065-.055452-.055893-.106954-.11269-.158521-.169472l-1.22976-1.331141c-.2282-.243348-.457629-.486407-.688283-.729177-.312624-.329046-.627512-.657572-.944643-.985564l.944643.985564c-.612952-.645149-1.234559-1.288254-1.864756-1.929288l.920113.943724c-.618276-.63945-1.245079-1.276866-1.880342-1.912219l.960229.968495c-.645736-.65684-1.300491-1.311505-1.964195-1.963963l1.003966.995468c-.629266-.629354-1.266835-1.256683-1.912643-1.88196l.908677.886492c-.64892-.637925-1.306395-1.27374-1.972359-1.907416l1.063682 1.020924c-.661038-.640021-1.330709-1.277893-2.008946-1.913584l.945264.89266c-.670685-.638169-1.349981-1.274169-2.037819-1.907969l1.092555 1.015309c-.6765-.634062-1.361522-1.265955-2.055001-1.895649l.962446.88034c-.64343-.592881-1.294336-1.183838-1.952662-1.772845l.990216.892505c-.697416-.63327-1.403385-1.264316-2.11784-1.893108l1.127624 1.000603c-.686384-.614112-1.380835-1.226104-2.083291-1.83595l.955667.835347c-.703832-.619443-1.4159-1.236699-2.136137-1.851739l1.18047 1.016392c-.717665-.623052-1.443686-1.243862-2.177995-1.862403l.997525.846011c-.712983-.608844-1.433972-1.215516-2.162905-1.819989l1.16538.973978c-.753609-.634798-1.515948-1.267204-2.286945-1.897188l1.121565.92321c-.736835-.611025-1.481787-1.219802-2.234791-1.826302l1.113226.903092c-.733866-.599644-1.475577-1.197092-2.225071-1.792318l1.111845.889226c-.758878-.611231-1.525934-1.220149-2.301102-1.826725l1.189257.937499c-.761962-.605127-1.531968-1.207958-2.309954-1.808462l1.120697.870963c-.764387-.598139-1.536662-1.194002-2.316762-1.787558l1.196065.916595c-.812168-.626889-1.633032-1.251243-2.462518-1.873028l1.266453.956433c-.770701-.586404-1.549039-1.170558-2.334953-1.752434l1.0685.796001c-.778768-.583767-1.565136-1.16527-2.359042-1.744481l1.290542.94848c-.827992-.61303-1.664393-1.223531-2.509133-1.831472l1.218591.882992c-.783631-.571716-1.574608-1.141199-2.37287-1.708423l1.154279.825431c-.818882-.589333-1.6456-1.176259-2.480088-1.760751l1.325809.93532c-.846182-.601276-1.700552-1.200013-2.563038-1.796181l1.237229.860861c-.806379-.564803-1.620013-1.127333-2.440844-1.687562l1.203615.826701c-.865569-.5983-1.739314-1.194011-2.621163-1.787104l1.417548.960403c-.860369-.587215-1.728645-1.171903-2.60476-1.754034l1.187212.793631c-.843904-.567572-1.69523-1.132745-2.553916-1.695492l1.366704.901861c-.853421-.567052-1.71428-1.131677-2.582515-1.693848l1.215811.791987c-.918949-.602241-1.846328-1.201703-2.782059-1.798352l1.566248 1.006365c-.87655-.567555-1.760618-1.132608-2.652139-1.695131l1.085891.688766c-.823459-.52506-1.653386-1.047942-2.48973-1.568621l1.403839.879855c-.918223-.579371-1.844353-1.156058-2.778318-1.730029l1.374479.850174c-.855715-.53274-1.718149-1.063175-2.587244-1.59128l1.212765.741106c-.918889-.564705-1.845363-1.126782-2.779355-1.6862l1.56659.945094c-.933032-.566956-1.873742-1.131227-2.822063-1.692782l1.255473.747688c-.900942-.539622-1.808879-1.07677-2.723752-1.611418l1.468279.86373c-1.014047-.600475-2.036796-1.197846-3.068162-1.792073l1.599883.928343c-.923152-.539485-1.853364-1.076424-2.790576-1.610789l1.190693.682446c-.921098-.530696-1.849068-1.058885-2.783853-1.58454l1.59316.902094c-.97127-.553784-1.950058-1.104803-2.936294-1.653027l1.343134.750933c-.940527-.528885-1.887952-1.055205-2.842214-1.578933l1.49908.828c-.965158-.536506-1.937449-1.070336-2.916809-1.601459l1.417729.773459c-.948973-.520826-1.904707-1.039088-2.867143-1.554761l1.449414.781302c-1.000824-.542764-2.009031-1.082702-3.024551-1.619783l1.575137.838481c-.965858-.517506-1.938464-1.032403-2.917759-1.544665l1.342622.706184c-.974929-.515614-1.956599-1.028595-2.944948-1.538915l1.602326.832731c-1.114075-.582764-2.236807-1.162117-3.368105-1.73802l1.765779.905289c-.993524-.512993-1.993798-1.023297-3.00076-1.530887l1.234981.625598c-.996649-.507357-1.999946-1.012036-3.009832-1.51401l1.774851.888412c-1.036778-.522618-2.080647-1.042358-3.131538-1.559189l1.356687.670777c-1.002576-.49834-2.011645-.994013-3.027147-1.486993l1.67046.816216c-1.040831-.511884-2.088552-1.020914-3.143095-1.527062l1.472635.710846c-1.026184-.498166-2.058938-.993582-3.0982-1.48622l1.625565.775374c-1.074264-.515612-2.155608-1.028232-3.243964-1.53783l1.618399.762456c-.976833-.463045-1.959416-.923636-2.947698-1.381751l1.329299.619295c-1.063592-.498003-2.133881-.993119-3.210802-1.48532l1.881503.866025c-1.166398-.54068-2.340734-1.077909-3.522923-1.611651l1.64142.745626c-1.039781-.475227-2.085745-.947736-3.137833-1.4175l1.496413.671874c-1.124357-.507632-2.255817-1.012108-3.39431-1.513398l1.897897.841524c-1.105624-.49367-2.218012-.984309-3.337095-1.471887l1.439198.630363c-1.085444-.477932-2.17728-.952966-3.275445-1.425076l1.836247.794713c-1.092177-.475856-2.190733-.948797-3.295603-1.418795l1.459356.624082c-1.159348-.498413-2.325751-.993566-3.499134-1.485426l2.039778.861344c-1.115333-.474449-2.237102-.945899-3.365241-1.41432l1.325463.552976c-1.059815-.444255-2.125324-.885823-3.196474-1.324681l1.871011.771705c-1.15333-.478882-2.313319-.954598-3.479896-1.427119l1.608885.655414c-1.137336-.465974-2.281031-.928893-3.431021-1.388726l1.822136.733312c-1.12323-.454963-2.252567-.906963-3.387952-1.355973l1.565816.622661c-1.141762-.456544-2.289729-.910048-3.443836-1.360481l1.87802.73782c-1.178524-.466071-2.363563-.928919-3.555048-1.388515l1.677028.650695c-1.089132-.425075-2.183733-.847416-3.283749-1.267l1.606721.616305c-1.184601-.456941-2.375574-.910666-3.572851-1.361147l1.96613.744842c-1.154893-.440515-2.315755-.877991-3.482524-1.3124l1.516394.567558c-1.15717-.435389-2.320229-.867748-3.489116-1.297047l1.972722.729489c-1.354947-.504471-2.717861-1.004806-4.088644-1.500961l2.115922.771472c-1.168912-.429308-2.343651-.855557-3.524157-1.27872l1.408235.507248c-1.283483-.464557-2.573866-.92545-3.871068-1.382643l2.462833.875395c-1.187594-.425703-2.381024-.848283-3.580229-1.267711l1.117396.392316c-1.192266-.42021-2.390294-.837293-3.59402-1.251224l2.476624.858908c-1.22766-.429381-2.461371-.855459-3.701067-1.278205l1.224443.419297c-1.072897-.368942-2.150322-.735379-3.232231-1.099292l2.007788.679995c-1.273203-.434171-2.552719-.864828-3.838475-1.291937l1.830687.611942c-1.159902-.390147-2.324959-.777393-3.495115-1.161713l1.664428.549771c-1.22087-.405555-2.447367-.807911-3.679428-1.207041l2.015.65727c-1.276124-.419123-2.558314-.834768-3.8465-1.246901l1.8315.589631c-1.267499-.41061-2.540887-.817806-3.820097-1.221557l1.988597.631926c-1.325319-.424014-2.656984-.844312-3.994919-1.26086l2.006322.628934c-1.220481-.385215-2.446261-.767293-3.677282-1.146211l1.67096.517277c-1.294154-.402917-2.594175-.802326-3.899993-1.198195l2.229033.680918c-1.309057-.402937-2.624041-.802299-3.94488-1.198053l1.715847.517135c-1.075447-.32603-2.154826-.64966-3.238099-.970872l1.522252.453737c-1.312492-.393254-2.630765-.782946-3.954752-1.169046l2.4325.715309c-1.41874-.420684-2.844158-.837221-4.27617-1.249571l1.84367.534262c-1.229931-.358671-2.464793-.714242-3.704528-1.066688l1.860858.532426c-1.370366-.3946-2.74677-.785367-4.129135-1.172266l2.268277.63984c-1.347297-.383025-2.70035-.762359-4.059089-1.13797l1.790812.49813c-1.406208-.393572-2.818585-.783143-4.237052-1.168676l2.44624.670546c-1.2681-.350555-2.541153-.697867-3.819101-1.041911l1.372861.371365c-1.251848-.340248-2.50844-.67735-3.76972-1.011284l2.396859.639919c-1.377877-.370947-2.761444-.738094-4.150629-1.101409l1.75377.46149c-1.190404-.315168-2.384984-.627514-3.583694-.937016l1.829924.475526c-1.337929-.34991-2.681069-.696266-4.029355-1.039039l2.199431.563513c-1.469006-.379291-2.944215-.754312-4.425541-1.125024l2.22611.561511c-1.320057-.335595-2.645046-.667756-3.974908-.996455l1.748798.434944c-1.39627-.349427-2.797975-.695025-4.205044-1.036764l2.456246.60182c-1.371431-.338974-2.748044-.674266-4.129772-1.005846l1.673526.404026c-1.47438-.358087-2.95465-.711936-4.440728-1.061511l2.767202.657485c-1.343959-.322517-2.692758-.641522-4.046334-.956988l1.279132.299503c-1.284853-.302239-2.574048-.601284-3.867531-.89711l2.588399.597607c-1.411393-.328941-2.827981-.654035-4.249693-.97525l1.661294.377643c-1.392023-.318362-2.789012-.632997-4.190904-.943874l2.52961.566231c-1.369366-.309387-2.743486-.615177-4.122299-.91734l1.592689.351109c-1.263966-.280292-2.531917-.557529-3.803804-.831691l2.211115.480582c-1.448496-.317433-2.90217-.630865-4.360952-.940263l2.149837.459681c-1.418791-.305827-2.842481-.607827-4.271003-.90597l2.121166.446289c-1.356084-.287616-2.716581-.571747-4.081434-.852365l1.960268.406076c-1.40999-.294275-2.824687-.584792-4.244026-.871523l2.283758.465447c-1.470794-.3024-2.946646-.600722-4.427484-.894933l2.143726.429486c-1.179211-.23822-2.361626-.473827-3.547208-.706803l1.403482.277317c-1.430947-.284298-2.866549-.564759-4.306741-.841351l2.903259.564034c-1.564087-.307355-3.133687-.610133-4.708715-.908294l1.805456.34426c-1.396613-.268223-2.797542-.53281-4.202728-.793732l2.397272.449472c-1.532635-.290137-3.070409-.575902-4.613246-.857262l2.215974.40779c-1.473089-.273531-2.950855-.543035-4.433231-.808482l2.217257.400692c-1.431352-.26103-2.867061-.518267-4.307064-.771684l2.089807.370992c-1.431846-.256399-2.867992-.509013-4.308377-.757813l2.21857.386821c-1.396043-.245681-2.796122-.487772-4.20018-.726248l1.98161.339427c-1.502741-.259572-3.010096-.514994-4.521994-.766233l2.540384.426806c-1.242147-.210975-2.487409-.41912-3.735746-.624418l1.195362.197612c-1.461914-.242934-2.928076-.481958-4.398423-.717044l3.203061.519432c-2.079794-.342038-4.168124-.676171-6.264808-1.00232l3.061747.482888c-1.419249-.226917-2.842398-.450164-4.269388-.669717l1.207641.186829c-1.270802-.197679-2.544673-.392425-3.821573-.584219l2.613932.39739c-1.554254-.239133-3.113066-.473883-4.676361-.704217l2.062429.306827c-1.390868-.208913-2.78533-.414324-4.183333-.61621l2.120904.309383c-1.454182-.214258-2.912243-.424694-4.374124-.631283l2.25322.3219c-1.666744-.240695-3.338521-.476379-5.015241-.707012l2.762021.385112c-1.523498-.215296-3.051145-.426413-4.582873-.633321l1.820852.248209c-1.344373-.184919-2.691923-.366591-4.042607-.544995l2.221755.296786c-1.535813-.207461-3.07573-.410689-4.619683-.609656l2.397928.31287c-1.374152-.181505-2.751547-.359628-4.132137-.534347l1.734209.221477c-1.501489-.193495-3.006795-.38296-4.515856-.568366l2.781647.346889c-1.918968-.242854-3.844109-.479132-5.775291-.708778l2.993644.361889c-1.512561-.185836-3.028894-.367594-4.548936-.545248l1.555292.183359c-1.580755-.187974-3.165558-.371505-4.754339-.550559l3.199047.3672c-1.53814-.179769-3.080079-.355334-4.625751-.526666l1.426704.159466c-1.578821-.177932-3.16157-.351444-4.748177-.520505l3.321473.361039c-1.545627-.171328-3.094986-.338423-4.648014-.501256l1.326541.140217c-1.421788-.151498-2.846673-.299422-4.274606-.44375l2.948065.303533c-1.562971-.163877-3.129657-.323436-4.699992-.47865l1.751927.175117c-3.422568-.345933-6.862647-.671203-10.319547-.975501-.26469-.0233-.529445-.046473-.794298-.069524l.794298.069524c-1.052503-.092648-2.106564-.183352-3.162166-.272103l2.367868.202579c-1.612885-.140373-3.229415-.276182-4.84952-.407396l2.481652.204817c-1.203913-.10122-2.409828-.1999-3.617718-.296028l1.136066.091211c-1.567529-.126955-3.138405-.24961-4.712564-.367934l3.576498.276723c-1.831219-.145733-3.666975-.2856-5.507168-.419553l1.93067.14283c-1.582888-.118981-3.169096-.233583-4.75856-.343779l2.82789.200949c-1.606722-.116958-3.216827-.229409-4.830246-.337322l2.002356.136373c-1.600129-.110935-3.203557-.217404-4.81022-.319378l2.807864.183005c-1.304081-.087223-2.610327-.171482-3.918704-.25276l1.11084.069755c-3.181627-.201935-6.375935-.386241-9.582414-.55269-.654284-.033964-1.309346-.067198-1.964912-.099686l1.964912.099686c-3.245136-.168456-6.502739-.318621-9.772281-.45026-.408748-.016457-.817532-.032618-1.226503-.04849l1.226503.04849c-1.618496-.065164-3.239918-.125788-4.864201-.181844l3.637698.133354c-1.721959-.066828-3.447205-.128518-5.175661-.185036l1.537963.051682c-1.634959-.056424-3.272817-.108219-4.913508-.155356l3.375545.103674c-7.404775-.242126-14.868465-.389326-22.385016-.438893-.246742-.001627-.493432-.003148-.740178-.004564zm.791494 75.735295c37.322963 0 72.542101 6.035626 99.263683 16.862474 14.007817 5.675581 25.591156 12.622505 34.133088 20.805122 10.362446 9.926551 16.361977 21.805792 16.361977 34.907069s-5.999531 24.980518-16.361977 34.907069c-8.541932 8.182617-20.125271 15.129541-34.133088 20.805122-26.721582 10.826848-61.94072 16.862474-99.263683 16.862474s-72.542101-6.035626-99.263683-16.862474c-14.007817-5.675581-25.591156-12.622505-34.133089-20.805122-10.362445-9.926551-16.361976-21.805792-16.361976-34.907069s5.999531-24.980518 16.361976-34.907069c8.541933-8.182617 20.125272-15.129541 34.133089-20.805122 26.721582-10.826848 61.94072-16.862474 99.263683-16.862474zm0 20c-71.663778 0-129.758748 23.538479-129.758748 52.574665s58.09497 52.574665 129.758748 52.574665c71.663777 0 129.758748-23.538479 129.758748-52.574665s-58.094971-52.574665-129.758748-52.574665z"/></svg>