<svg height="960" viewBox="0 0 960 960" width="960" xmlns="http://www.w3.org/2000/svg"><path d="m621.247604 99.0893682c38.500069 2.2617818 67.446472 6.2623428 97.583752 15.2517038 40.447284 12.064633 76.156987 32.002109 106.820098 61.940026 3.675122 3.588205 7.177211 7.042043 10.509828 10.36731l1.652202 1.651946c12.558864 12.583186 22.63615 23.291272 30.432428 32.450612l.118318.140034 1.501311.874683c57.85887 34.406409 91.601696 121.489395 88.994122 217.921846l-.094442 3.048292c-.641503 18.370252-2.582287 36.421557-5.760304 53.863518l-.304687 1.644661.005606.225216c.074749 4.486681-.358966 8.977116-1.29755 13.413863l-.170873.782387c-11.723565 52.043871-40.936268 103.689368-81.038334 149.911298-25.577549 29.480868-54.608631 55.313662-80.717981 72.491081l-.805868.526155.002413 17.768343c0 22.81666-10.869227 41.852875-28.667521 54.552988l-.541459.38291c-12.251271 8.586368-26.787515 13.78112-43.399083 16.858259-14.540338 2.693463-84.264773 13.399253-211.601367 32.50916-.670064.100559-1.342574.184076-2.016879.250471-81.207796 7.996034-142.20052 10.108739-183.971928 6.115938-55.896772-5.343001-89.318222-15.345269-111.188463-31.395899-6.456833-4.738688-11.866165-10.289878-16.10854-16.599704-5.028443-7.478971-8.088744-15.484219-9.54917-23.789471-.540053-3.071207-.837604-6.02558-.970529-9.025529-.083562-1.885882-.093849-3.179597-.081368-5.461369.000907-.165788.001566-.29143.002037-.392378l.000705-.173545c.000081-.024963.000145-.048325.000195-.070661l-.000043-22.251513-1.091857-.61574c-7.439602-4.222002-14.740898-8.759218-21.905913-13.619425l-1.533275-1.04642c-55.084729-37.823092-96.3248076-92.368238-122.314288-156.520068l-.1526669-.381347-.4172267-.845486c-19.3497978-39.615908-29.64417756-89.681341-29.17145223-142.45867l.01267888-1.107844-.00949717-.722918c-.00863198-.839097-.01950283-1.670281-.01950283-2.494699v-1.231697c0-1.614011.07341503-3.225935.2202732-4.831968l.0327268-.319718.015-.207.03459974-.949278c2.17670132-55.448758 16.00551881-107.583328 38.99529031-147.728233l.7066275-1.225172c22.7711638-39.201562 53.8569369-65.913163 89.8735314-73.285151l.114951-.023166.513599-.57518c18.077404-20.219987 36.108858-36.258277 54.306869-48.064334l.941426-.606883c25.279385-16.192222 41.637231-25.371437 65.118828-34.909583 32.231563-13.092352 67.89967-21.4588037 108.897108-24.3765548 68.276707-4.8591922 168.537515-2.8621563 257.495544 2.363903zm116.397018 638.4379128c-65.198564 11.76032-148.419752 24.127043-239.294967 33.914355-32.077906 3.454809-53.880367 5.512221-75.058083 6.859506l-1.567722.098511-1.566309.095975-2.376684.14097-2.378484.135489-.793755.043982c-30.760886 1.692589-58.210073 1.623078-84.236912-.526915-39.751331-3.283729-75.934552-11.474313-109.365133-25.563695l.000778 24.10711c0 6.021956-.653843 15.350212 10.37104 23.47013 11.024883 8.119917 33.352632 18.34516 91.310711 23.904863 12.364391 1.186071 26.786901 1.783517 43.26753 1.792339l1.156059-.000894c34.782267-.05836 78.588614-2.688484 131.419042-7.890372 19.446143-2.91836 37.559531-5.64247 54.340164-8.172331 92.44503-13.985581 144.525881-22.067643 156.241955-24.245642 7.45365-1.385621 14.70041-3.42816 20.926662-6.393814 10.932004-5.275605 18.637129-13.43373 18.637129-25.934505l-.002773-18.959658c-3.924255 1.455701-7.616649 2.508861-11.030248 3.124596zm-583.128656-493.524722-1.741575.018562c-14.112612.364097-27.88558 5.910393-40.672743 15.624142 3.060182-.580909 6.175746-.913119 9.343597-.98283l1.634896-.012639 1.643998.034082c54.95017 1.918902 89.510227 81.09331 86.261887 174.113598-3.248341 93.020287-43.247138 169.591042-98.197308 167.67214-11.567798-.403956-22.2319821-4.231589-31.8300533-10.891338 12.6106207 26.247672 28.7039873 51.425087 48.6365913 73.846992 14.343488 15.943267 30.666969 30.533599 49.099705 43.190157 13.667981 9.384911 27.64664 17.244531 41.889364 23.788551l.000018.26113c85.699207 39.333689 180.958805 31.086986 275.623685 20.891525 110.39765-11.889889 198.908162-26.680954 237.886348-33.711722 4.090012-.737744 9.012118-2.470316 14.575071-5.10681l.00393-.282176c47.453763-22.516612 141.531152-110.869683 163.541846-208.580718.310452-1.378173.474694-2.746854.496368-4.105883-.012122-1.081241-.114757-2.156089-.306286-3.224661l-.029357.002743.067293-.324603c-.011406-.067992-.023169-.13596-.03529-.203902l-.029476.002881c3.531457-17.26786 5.745507-35.62147 6.411113-54.681939.147511-4.224148.216729-8.418972.209875-12.580181-.00233-.255274-.003479-.510835-.004915-.766268-.003441-.61201-.008533-1.223391-.015268-1.834017l.015268 1.834017c-.005326-.947138-.014602-1.892502-.027803-2.836042l.012535 1.002025c-.009437-.855669-.022101-1.709857-.037972-2.562525l.025437 1.5605c-.017459-1.247945-.041784-2.492697-.072912-3.734139l.047475 2.173639c-.015234-.818496-.033424-1.635592-.05455-2.451253l.007075.277614c-.018377-.732908-.039126-1.464663-.062233-2.195239l.055158 1.917625c-.02329-.899148-.050148-1.796554-.080554-2.692172l.025396.774547c-.02146-.678511-.044955-1.356005-.070475-2.032464l.045079 1.257917c-.029345-.864408-.061994-1.727151-.097926-2.588188l.052847 1.330271c-.035326-.936415-.074532-1.870846-.117591-2.803241l.064744 1.47297c-.033173-.794921-.069143-1.588389-.107895-2.380372l.043151.907402c-.036442-.789108-.075643-1.576759-.117587-2.36292l.074436 1.455518c-.044777-.915125-.093268-1.828267-.145447-2.739378l.071011 1.28386c-.040626-.761447-.083826-1.521496-.129584-2.28012l.058573.99626c-.047533-.829992-.098127-1.658297-.151762-2.48488l.093189 1.48862c-.055882-.926451-.115579-1.850775-.179067-2.772922l.085878 1.284302c-.054148-.834483-.111396-1.667211-.171724-2.498145l.085846 1.213843c-.053123-.771615-.1089-1.541705-.167314-2.310239l.081468 1.096396c-.061602-.848482-.126416-1.695093-.194421-2.539793l.112953 1.443397c-.071508-.940805-.146969-1.87928-.226354-2.815368l.113401 1.371971c-.064213-.797602-.13127-1.5935-.201155-2.387659l.087754 1.015688c-.068195-.804148-.139286-1.606534-.213254-2.407125l.1255 1.391437c-.073604-.836431-.150345-1.670934-.2302-2.503468l.1047 1.112031c-.076619-.829283-.156326-1.65664-.239099-2.48203l.134399 1.369999c-.078391-.817257-.159784-1.632618-.244159-2.446044l.10976 1.076045c-.076903-.766854-.156454-1.532012-.238636-2.29544l.128876 1.219395c-.094342-.909519-.192414-1.816619-.294186-2.721248l.16531 1.501853c-.091726-.852091-.18673-1.702028-.284989-2.549768l.119679 1.047915c-.084027-.746889-.170577-1.492094-.259635-2.235584l.139956 1.187669c-.09682-.83533-.196802-1.668527-.299922-2.499549l.159966 1.31188c-.098698-.823972-.200476-1.645839-.305313-2.465561l.145347 1.153681c-.094012-.757623-.190633-1.513439-.289846-2.267415l.144499 1.113734c-.106303-.831181-.215752-1.660156-.328323-2.486883l.183824 1.373149c-.112465-.854682-.228261-1.707001-.347365-2.55691l.163541 1.183761c-.103609-.760899-.209863-1.519894-.318746-2.276952l.155205 1.093191c-.113502-.809932-.230006-1.617675-.349494-2.42319l.194289 1.329999c-.115142-.800577-.233224-1.598987-.354226-2.395192l.159937 1.065193c-.120267-.810764-.243555-1.61927-.369844-2.425478l.209907 1.360285c-.130106-.856111-.263587-1.709672-.400418-2.560635l.190511 1.20035c-.11357-.725013-.229567-1.448168-.347975-2.169434l.157464.969084c-.117433-.730321-.237334-1.458728-.359687-2.185191l.202223 1.216107c-.143532-.874303-.290608-1.745831-.441199-2.614532l.238976 1.398425c-.126952-.753773-.256544-1.505453-.388758-2.255006l.149782.856581c-.12838-.740575-.259316-1.479095-.39279-2.215527l.243008 1.358946c-.143984-.816279-.291078-1.630036-.44126-2.441227l.198252 1.082281c-.135228-.746113-.273062-1.490082-.413484-2.231875l.215232 1.149594c-.165017-.891326-.333761-1.779554-.506202-2.664625l.29097 1.515031c-.142048-.750383-.286744-1.498539-.43407-2.244432l.1431.729401c-.144569-.742014-.291736-1.481808-.441483-2.219349l.298383 1.489948c-.158224-.80107-.319482-1.59953-.483751-2.395337l.185368.905389c-.156718-.771871-.316262-1.541274-.478612-2.308169l.293244 1.40278c-.162121-.785398-.327173-1.568212-.495137-2.348399l.201893.945619c-.140499-.663679-.2831-1.32548-.427788-1.985378l.225895 1.039759c-.160795-.746887-.324257-1.491367-.490368-2.233403l.264473 1.193644c-.175152-.798835-.353364-1.59488-.534613-2.38809l.27014 1.194446c-.171083-.764242-.344974-1.525892-.521655-2.28491l.251515 1.090464c-.182904-.800456-.3689-1.598025-.557965-2.39266l.30645 1.302196c-.175184-.752592-.35311-1.502595-.533758-2.249972l.227308.947776c-.159508-.670413-.321201-1.338738-.485062-2.004947l.257754 1.057171c-.181805-.752163-.366366-1.501665-.553663-2.248466l.295909 1.191295c-.213452-.867824-.430584-1.732058-.651365-2.59264l.355456 1.401345c-.181479-.723604-.365526-1.444673-.552123-2.16317l.196667.761825c-.188828-.736031-.380325-1.469391-.574471-2.20004l.377804 1.438215c-.191086-.735779-.384845-1.468862-.581258-2.199209l.203454.760994c-.202463-.761947-.407806-1.520946-.616008-2.276954l.412554 1.51596c-.195529-.727061-.393688-1.45141-.594457-2.17301l.181903.65705c-.209127-.75937-.421138-1.515721-.636009-2.26901l.454106 1.61196c-.19996-.718695-.40251-1.434662-.607628-2.147864l.153522.535904c-.168335-.590142-.338425-1.178404-.51026-1.764765l.356738 1.228861c-.210129-.730623-.422955-1.458344-.638455-2.183121l.281717.95426c-.235622-.804027-.474525-1.60448-.71668-2.401304l.434963 1.447044c-.213009-.716398-.428631-1.429921-.646847-2.140529l.211884.693485c-.175512-.577534-.352733-1.15316-.53165-1.726859l.319766 1.033374c-.213942-.696693-.430378-1.390584-.649286-2.081636l.32952 1.048262c-.226798-.727227-.456323-1.451357-.688554-2.172346l.359034 1.124084c-.255713-.807237-.514801-1.6106-.777234-2.41003-.108835-.331648-.21792-.661529-.327575-.990733l.327575.990733c-.205018-.624533-.412077-1.246666-.621162-1.86637-.081979-.243093-.164042-.485025-.246413-.726583l.246413.726583c-1.019956-3.023026-2.088134-5.988261-3.202835-8.892428-.179692-.468303-.360728-.935219-.542966-1.400533-.050052-.127651-.100034-.25492-.150106-.382069l.150106.382069c-.216481-.552745-.434661-1.103228-.654527-1.651426l.504421 1.269357c-.36509-.927072-.734968-1.847742-1.109577-2.761899l.605156 1.492542c-.263069-.655919-.528553-1.308566-.796431-1.957903l.191275.465361c-.217219-.530081-.43603-1.057972-.65642-1.583652l.465145 1.118291c-.27199-.659304-.546448-1.315195-.823352-1.967631l.358207.84934c-.231067-.551145-.46387-1.099861-.698397-1.646121l.34019.796781c-.271003-.638532-.54435-1.273755-.820019-1.90563l.479829 1.108849c-.287931-.67065-.57846-1.337599-.871564-2.000803l.391735.891954c-.278362-.638045-.559093-1.272677-.842172-1.903856l.450437 1.011902c-.304825-.689725-.612435-1.375398-.922803-2.056969l.472366 1.045067c-.275394-.614045-.553011-1.224821-.832831-1.832292l.360465.787225c-.263658-.578997-.529306-1.155033-.796929-1.728077l.436464.940852c-.296327-.643309-.595126-1.282911-.896374-1.918763l.45991.977911c-.258168-.552798-.518172-1.102811-.78-1.650013l.32009.672102c-.280755-.592598-.563637-1.18194-.848627-1.767988l.528537 1.095886c-.313546-.65529-.629705-1.306547-.948454-1.953723l.419917.857837c-.299431-.615744-.60119-1.227853-.905254-1.836286l.485337.978449c-.300968-.611077-.604245-1.218514-.909808-1.822272l.424471.843823c-.292983-.586258-.588106-1.169104-.885352-1.7485l.460881.904677c-.302302-.597313-.606841-1.191025-.913599-1.781096l.452718.876419c-.321692-.627047-.645869-1.250053-.972508-1.868973l.51979.992554c-.2809-.540332-.563659-1.077611-.848263-1.611806l.328473.619252c-.311964-.591112-.626172-1.178497-.942605-1.762114l.614132 1.142862c-.315249-.591718-.632761-1.179652-.952514-1.763762l.338382.6209c-.300435-.55411-.602874-1.104823-.9073-1.652104l.568918 1.031204c-.354706-.647962-.712171-1.291218-1.072364-1.929712l.503446.898508c-.29783-.535422-.597562-1.067559-.899178-1.59638l.395732.697872c-.316939-.561819-.635991-1.119952-.957135-1.674359l.561403.976487c-.320589-.562084-.643307-1.120421-.968134-1.674972l.406731.698485c-.299602-.517217-.601025-1.031191-.904253-1.541892l.497522.843407c-.341463-.58295-.685257-1.161717-1.031358-1.736254l.533836.892847c-.321311-.541155-.644649-1.078635-.969995-1.612402l.436159.719555c-.315346-.523483-.632608-1.043455-.951767-1.559881l.515608.840326c-.338426-.555228-.679025-1.106438-1.021774-1.653589l.506166.813263c-.337675-.546387-.677475-1.088805-1.019378-1.627214l.513212.813951c-.36022-.575041-.722816-1.145598-1.087763-1.711624l.574551.897673c-.330053-.519747-.662066-1.035758-.99602-1.547997l.421469.650324c-.322004-.499423-.645838-.995317-.971485-1.487651l.550016.837327c-.347146-.532474-.69639-1.060871-1.04771-1.585151l.497694.747824c-.3308-.500126-.663472-.996577-.997996-1.48932l.500302.741496c-.350095-.522452-.702252-1.040815-1.05645-1.555049l.556148.813553c-.355085-.523027-.712257-1.041875-1.071495-1.556503l.515347.74295c-.339773-.49329-.681423-.98278-1.024933-1.468435l.509586.725485c-.363093-.52015-.728297-1.035988-1.095589-1.547472l.586003.821987c-.341944-.483441-.68573-.963081-1.031341-1.438885l.445338.616898c-.350875-.488621-.703655-.973268-1.058322-1.453903l.612984.837005c-.368759-.507672-.739595-1.010978-1.112486-1.509874l.499502.672869c-.355848-.482236-.713595-.960434-1.073221-1.434555l.573719.761686c-.352791-.472005-.707422-.940062-1.063872-1.404137l.490153.642451c-.358716-.472922-.719302-.941788-1.081738-1.406562l.591585.764111c-.369706-.48133-.74137-.958375-1.114971-1.431095l.523386.666984c-.379132-.486182-.760288-.967886-1.143447-1.445068l.620061.778084c-.359464-.454832-.720722-.90566-1.083754-1.352447l.463693.574363c-.359477-.44769-.720718-.891399-1.083702-1.331094l.620009.756731c-.388968-.478706-.779973-.952773-1.172992-1.422158l.552983.665427c-.367692-.445395-.737173-.886671-1.108425-1.323789l.555442.658362c-.381328-.45542-.764551-.906432-1.14965-1.352994l.594208.694632c-.376272-.443029-.754363-.881787-1.134252-1.316237l.540044.621605c-.355649-.412413-.712898-.821031-1.071729-1.225822l.531685.604217c-.395095-.451838-.792136-.899016-1.191101-1.341491l.659416.737274c-.400761-.452091-.803496-.89941-1.208183-1.34191l.548767.604636c-.371056-.411522-.743776-.818976-1.118142-1.222326l.569375.61769c-.406016-.443955-.813997-.883061-1.223919-1.317273l.654544.699583c-.391812-.422147-.785427-.8398-1.180824-1.252918l.52628.553335c-.410905-.435253-.82376-.865589-1.238543-1.290962l.712263.737627c-.382142-.399269-.765949-.794303-1.151403-1.185065l.43914.447438c-.351681-.360661-.704748-.717754-1.059185-1.071252l.620045.623814c-.413358-.41905-.828608-.833189-1.245729-1.24237l.625684.618556c-.409578-.408491-.820986-.812182-1.234202-1.211029l.608518.592473c-.402042-.394389-.805821-.784173-1.211317-1.169313l.602799.57684c-.420033-.405426-.841934-.805847-1.26568-1.201219l.662881.624379c-.387808-.368341-.777188-.732433-1.168119-1.092243l.505238.467864c-.423173-.394837-.848187-.784638-1.275018-1.169359l.76978.701495c-.410349-.377681-.822408-.750643-1.236157-1.118845l.466377.41735c-.352412-.317644-.706064-.631825-1.060941-.942518l.594564.525168c-.420569-.374273-.842884-.743628-1.266922-1.108023l.672358.582855c-.323084-.282858-.647185-.562826-.972292-.839883l.299934.257028c-.407847-.350481-.817288-.696374-1.228305-1.037641l.928371.780613c-.478835-.408065-.959853-.809816-1.443022-1.205194l.514651.424581c-1.989986-1.652287-4.016894-3.196141-6.078517-4.627302-.50504-.350974-1.012735-.695191-1.522487-1.032568-.718397-.475097-1.441319-.937256-2.168237-1.385635-.156622-.09699-.313885-.193236-.471334-.288838l.471334.288838c-.445428-.27475-.892358-.544326-1.340766-.808688l.869432.51985c-.436122-.264809-.873668-.524667-1.312619-.779537l.443187.259687c-.375968-.221653-.752975-.439641-1.131011-.653938l.687824.394251c-.419107-.243347-.839494-.482148-1.261145-.716368 17.398981 27.587331 28.799386 48.621858 34.198219 63.102301 16.700856 44.79409 19.336451 87.754756 19.336451 106.105771 0 42.183271-11.509915 97.634616-52.294251 160.453867-5.033599 7.753145-10.332474 14.853812-15.956048 21.36513-39.972234 47.247315-96.41487 63.987389-191.200915 73.48058-107.128928 10.729379-180.945789 24.245534-253.848598-2.915306-72.902808-27.160841-106.167492-110.517279-113.106649-136.752116-4.626105-17.489891-12.361942-72.061817-23.207511-163.715778l.165817-.002143c-.179318-1.1816-.364954-2.358277-.556845-3.529904-.050002-.305294-.100305-.609504-.15103-.913369l.15103.913369c-.105941-.646847-.213789-1.292154-.323532-1.9359l.172502 1.022531c-.124452-.745534-.251441-1.489-.38095-2.230364l.208448 1.207833c-.133089-.780695-.268966-1.559094-.407612-2.335159l.199164 1.127326c-.133826-.766074-.270343-1.529904-.409531-2.291454l.210367 1.164128c-.169754-.950197-.343657-1.896895-.521675-2.840023l.311308 1.675895c-.149945-.820399-.30299-1.638152-.459114-2.453213-.272806-1.424199-.554903-2.839665-.846267-4.246675-.054592-.263623-.10939-.526383-.164511-.788845l.164511.788845c-.151313-.730696-.305125-1.45911-.461419-2.18521l.296908 1.396365c-.241334-1.149125-.488862-2.292553-.742516-3.430152l.445608 2.033787c-.159599-.741454-.321786-1.480494-.486543-2.217083l.040935.183296c-.116462-.522312-.234215-1.043395-.353253-1.563236l.312318 1.37994c-.158431-.708308-.319238-1.41435-.482404-2.118094l.170086.738154c-.183437-.801074-.369926-1.599198-.559441-2.394326l.389355 1.656172c-.167449-.722212-.337383-1.442005-.509784-2.159343l.120429.503171c-.165353-.693751-.33301-1.385221-.502955-2.074379l.382526 1.571208c-.178922-.744471-.360502-1.486298-.54472-2.225441l.162194.654233c-.167348-.678622-.336915-1.355003-.508685-2.02911l.346491 1.374877c-.191837-.769716-.386535-1.536522-.584071-2.300374l.23758.925497c-.14647-.574817-.294542-1.147982-.444207-1.719475l.206627.793978c-.17661-.682934-.355489-1.363506-.536621-2.041686l.329994 1.247708c-.208685-.796857-.420466-1.590465-.635319-2.380774l.305325 1.133066c-.196703-.736483-.396064-1.470145-.59806-2.200944l.292735 1.067878c-.177337-.652312-.356766-1.302376-.538273-1.950164l.245538.882286c-.188348-.68142-.378988-1.360351-.571903-2.036762l.326365 1.154476c-.200586-.715881-.40371-1.428981-.609353-2.139263l.282988.984787c-.196918-.690445-.396207-1.378264-.597849-2.063422l.314861 1.078635c-.203375-.702451-.409213-1.402145-.617495-2.099045l.302634 1.02041c-.221685-.753261-.446214-1.503305-.673563-2.250085l.370929 1.229675c-.186242-.623156-.374438-1.244079-.564576-1.862741l.193647.633066c-.214921-.705953-.432362-1.40899-.652303-2.109071l.458656 1.476005c-.226326-.736414-.455403-1.469625-.687207-2.19959l.228551.723585c-.192488-.612693-.38689-1.223123-.583195-1.831262l.354644 1.107677c-.213753-.673124-.429826-1.343487-.648201-2.011055l.293557.903378c-.222464-.689178-.447371-1.375415-.674701-2.058673l.381144 1.155295c-.218859-.669051-.440031-1.335294-.663496-1.998694l.282352.843399c-.228743-.687503-.459939-1.37199-.69357-2.053422l.411218 1.210023c-.227793-.676248-.457969-1.349542-.69051-2.019843l.279292.80982c-.245096-.714876-.492872-1.42639-.743304-2.134498l.464012 1.324678c-.229773-.662321-.461853-1.32172-.696224-1.978162l.232212.653484c-.237555-.6717-.477501-1.340334-.719817-2.005865l.487605 1.352381c-.238534-.668103-.479441-1.333143-.722701-1.995082l.235096.642701c-.25832-.709483-.519333-1.41544-.783017-2.117823l.547921 1.475122c-.235178-.63995-.472557-1.277001-.712117-1.91112l.164196.435998c-.230873-.614983-.463792-1.227225-.698744-1.836697l.534548 1.400699c-.243639-.644917-.489535-1.2868-.73767-1.925613l.203122.524914c-.200453-.519983-.402384-1.037949-.605785-1.553879l.402663 1.028965c-.278745-.71762-.560316-1.431366-.844685-2.141186-.985531-2.459985-2.004376-4.872145-3.055737-7.235061-.086681-.194814-.173326-.388718-.26019-.582289l.26019.582289c-.272578-.612614-.547341-1.221919-.824272-1.827876l.564082 1.245587c-.307392-.685003-.617528-1.365824-.930382-2.04241l.3663.796823c-.264317-.578357-.530607-1.153664-.798855-1.725891l.432555.929068c-.285505-.617443-.573273-1.231358-.863284-1.841708l.430729.91264c-.280587-.598545-.563315-1.193719-.848165-1.785485l.417436.872845c-.26256-.552576-.526958-1.102229-.793179-1.64893l.375743.776085c-.289325-.601059-.580839-1.198601-.874524-1.792589l.498781 1.016504c-.295055-.60591-.592349-1.208194-.891862-1.80681l.393081.790306c-.284368-.575144-.570771-1.146955-.859192-1.715398l.466111.925092c-.308952-.617481-.620265-1.231059-.933917-1.840692l.467806.9156c-.301865-.594942-.605941-1.186195-.912206-1.773719l.4444.858119c-.267044-.519042-.535783-1.035224-.806204-1.548517l.361804.690398c-.292879-.561845-.58776-1.120279-.884625-1.675267l.522821.984869c-.320692-.608716-.643749-1.213371-.969148-1.813919l.446327.82905c-.275243-.514565-.552191-1.026167-.830831-1.53478l.384504.70573c-.296313-.546867-.594567-1.090329-.894747-1.630351l.510243.924621c-.317672-.579859-.637543-1.155831-.959591-1.727875l.449348.803254c-.290742-.523045-.583289-1.042864-.877627-1.559425l.428279.756171c-.31219-.554534-.626425-1.105376-.942688-1.652488l.514409.896317c-.313416-.550045-.628862-1.096396-.946317-1.639015l.431908.742698c-.305176-.527932-.612239-1.052392-.921171-1.573345l.489263.830647c-.32796-.560573-.658064-1.117164-.990293-1.669731l.50103.839084c-.304994-.51431-.611809-1.025202-.920431-1.532643l.419401.693559c-.296077-.492439-.593841-.981682-.893277-1.467699l.473876.77414c-.335906-.552303-.673951-1.100518-1.014114-1.644603l.540238.870463c-.320329-.519928-.642571-1.036166-.966708-1.548676l.42647.678213c-.343867-.550008-.689897-1.095796-1.03807-1.63732l.6116.959107c-.317534-.502067-.636886-1.000558-.958039-1.495439l.346439.536332c-.322656-.501838-.647152-1.000014-.97347-1.494493l.627031.958161c-.330379-.509096-.662665-1.014371-.996839-1.515789l.369808.557628c-.370272-.561085-.74289-1.117409-1.117829-1.668924l.748021 1.111296c-.330397-.495751-.66264-.987731-.996711-1.475904l.24869.364608c-.317266-.466682-.636193-.92992-.956766-1.389683l.708076 1.025075c-.350611-.512344-.703235-1.020495-1.057851-1.524412l.349775.499337c-.32028-.459342-.642202-.915215-.965751-1.367589l.615976.868252c-.328601-.466948-.658912-.93026-.990916-1.389904l.37494.521652c-.315944-.441741-.63344-.880145-.952472-1.315184l.577532.793532c-.381398-.528026-.765031-1.05121-1.150875-1.569505-1.008687-1.354939-2.032278-2.676204-3.070518-3.963171-.172254-.21352-.344876-.426053-.517899-.637637l.517899.637637c-.356554-.441972-.714835-.879899-1.074827-1.313745l.556928.676108c-.356382-.435811-.714465-.8676-1.074232-1.295333l.517304.619225c-.361086-.435167-.723893-.866229-1.088402-1.293148l.571098.673923c-.344577-.409674-.690698-.815626-1.038347-1.217826l.467249.543903c-.371979-.43567-.745731-.867026-1.121235-1.294031l.653986.750128c-.348763-.40349-.699065-.803203-1.050889-1.199109l.396903.448981c-.352091-.400379-.705722-.796933-1.060878-1.189629l.663975.740648c-.42426-.477418-.850734-.9493-1.279394-1.415591l.615419.674943c-.366092-.404786-.733803-.805474-1.103116-1.202027l.487697.527084c-.354762-.385905-.711021-.767981-1.068762-1.146196l.581065.619112c-.381633-.409782-.764977-.815149-1.150012-1.216064l.568947.596952c-.35841-.378923-.718308-.753971-1.079676-1.125112l.510729.52816c-.38048-.396172-.762612-.787995-1.146377-1.175434l.635648.647274c-.397581-.408333-.796943-.811937-1.198064-1.21077l.562416.563496c-.364191-.367678-.729853-.731407-1.09697-1.091155l.534554.527659c-.381131-.378958-.76385-.753608-1.14814-1.123915l.613586.596256c-.395028-.3871-.791741-.769591-1.190117-1.147433l.576531.551177c-.389564-.37539-.780741-.746317-1.173514-1.112744l.596983.561567c-.389042-.368989-.779671-.733545-1.171869-1.093631l.574886.532064c-.38468-.358878-.77089-.713439-1.158612-1.063649l.583726.531585c-.376066-.345276-.753575-.686443-1.13251-1.023467l.548784.491882c-.395125-.356896-.791819-.709272-1.190065-1.057092l.641281.56521c-.387134-.344318-.775757-.684312-1.16585-1.019949l.524569.454739c-.395139-.345106-.791805-.685727-1.189979-1.021825l.66541.567086c-.388314-.334106-.778085-.663894-1.169296-.98933l.503886.422244c-.395328-.333696-.792144-.662934-1.190428-.98768l.686542.565436c-.417406-.347227-.836451-.689499-1.257115-1.026776l.570573.46134c-.389276-.3174-.779956-.630508-1.172023-.939291l.60145.477951c-.40946-.328294-.820454-.651856-1.232961-.970646l.631511.492695c-.405697-.319519-.81288-.634406-1.221529-.944627l.590018.451932c-.441676-.341332-.885088-.677194-1.330211-1.007539l.740193.555607c-.405428-.307775-.812299-.610955-1.220596-.909506l.480403.353899c-.403279-.299291-.807963-.594054-1.214034-.884253l.733631.530354c-.41323-.302158-.82792-.599573-1.244051-.892209l.51042.361855c-.367155-.262389-.735445-.521047-1.104856-.775949l.594436.414094c-.409614-.288052-.820624-.571473-1.233012-.850227l.638576.436133c-.469155-.323728-.940119-.641399-1.412865-.952958l.774289.516825c-.415951-.281163-.833305-.557579-1.252042-.82921l.477753.312385c-.564513-.372039-1.131567-.735364-1.701117-1.089885l-1.269178-.772958c-.399877-.238185-.800952-.472055-1.203208-.701578-.01857-.010595-.036956-.021076-.055344-.031547l.055344.031547c-.290448-.165726-.581512-.329185-.873186-.490367l.817842.45882c-.423825-.241344-.84896-.477863-1.275389-.709523l.457547.250703c-.415172-.229428-.83158-.45424-1.249209-.674405l.791662.423702c-.426843-.231885-.854982-.458901-1.284399-.681011l.492737.257309c-.405169-.213597-.811488-.422819-1.218939-.627636l.726202.370327c-.436581-.225817-.874482-.446563-1.313685-.662202l.587483.291875c-.429063-.215681-.859383-.426478-1.290941-.632354l.703458.340479c-.427875-.210077-.856986-.415307-1.287314-.615655l.583856.275176c-.40959-.195397-.820295-.386362-1.232101-.572865l.648245.297689c-.457152-.212835-.915677-.420161-1.375555-.621935l.72731.324246c-.415623-.188232-.832368-.371919-1.250218-.55103l.522908.226784c-.435079-.190893-.871369-.376818-1.308851-.557738l.785943.330954c-.44916-.192533-.899597-.379778-1.351292-.561698l.565349.230744c-.431301-.178364-.863762-.351864-1.297365-.520467l.732016.289723c-.474803-.191226-.950995-.376568-1.428555-.55598l.696539.266257c-.433541-.168579-.868224-.332261-1.304032-.491014l.607493.224757c-.431672-.162174-.864461-.319502-1.298351-.471953l.690858.247196c-.457272-.166572-.915784-.327717-1.375513-.483395l.684655.236199c-.443495-.155827-.888141-.306557-1.333917-.452157l.649262.215958c-.447602-.151571-.896358-.297961-1.346251-.439133l.696989.223175c-.445193-.145408-.891514-.285699-1.338946-.420837l.641957.197662c-.466753-.146462-.93473-.287309-1.40391-.422499l.761953.224837c-.439401-.132712-.879874-.260455-1.321402-.383196l.559449.158359c-.452014-.130244-.905144-.255237-1.359374-.374946l.799925.216587c-.457572-.1272-.916277-.249028-1.376095-.365445l.57617.148858c-.471428-.124241-.94404-.242788-1.417814-.355601l.841644.206743c-.449304-.113755-.899671-.222345-1.351084-.325735l.50944.118992c-.44963-.107065-.900308-.208965-1.352016-.305666l.842576.186674c-.470377-.107734-.94189-.209821-1.414518-.306223l.571942.119549c-.446642-.095617-.894292-.186152-1.342932-.271571l.77099.152022c-.466661-.095185-.934409-.184827-1.403226-.26889l.632236.116868c-.443757-.084489-.888483-.163973-1.334162-.238421l.701926.121553c-.463404-.083091-.927852-.160731-1.393325-.232882l.691399.111329c-.483234-.08072-.967589-.155519-1.453042-.224355l.761643.113026c-.460051-.071311-.921104-.137261-1.383141-.197814l.621498.084788c-.447384-.063438-.895701-.121812-1.344936-.17509l.723438.090302c-.476611-.062463-.954269-.119184-1.432954-.170125l.709516.079823c-.452611-.053678-.906153-.102183-1.360609-.145482l.651093.065659c-.461215-.049081-.923384-.092797-1.38649-.131111l.735397.065452c-.603446-.057495-1.208504-.105811-1.815135-.144871l1.079738.079419c-.462732-.038283-.926399-.071175-1.390983-.09864l.311245.019221c-.580155-.037356-1.161748-.066247-1.744747-.086606zm482.246611-98.484166h.143507c74.370899-.168975 142.82939 35.646079 192.623592 95.551482.545989-.623972 1.131718-1.216044 1.750652-1.771412-8.529189-9.406266-19.720928-20.872524-33.572676-34.396674-55.901256-54.579172-125.322714-62.739266-178.805902-65.881268-53.483189-3.142002-171.772315-8.127776-252.310108-2.395973-80.537793 5.731802-125.524126 34.0098-155.280692 53.069793-13.543967 8.675326-27.430829 20.61148-41.660586 35.808461.026194.002104.052232.00721.078267.012329.342875.067594.685372.137258 1.027291.20912.239457.050127.47829.101455.716837.153854.298603.065805.597123.133163.895193.2022.31227.072096.623851.146211.934935.222159.23652.057989.472788.116805.708768.176677.303092.076643.605573.155246.907574.235584.260895.069672.521772.140466.78229.212555.284088.078332.567491.158405.850463.240009.266004.077.531607.155061.79683.23447.287261.085708.574287.17336.86086.262589.259899.081229.519122.163356.777973.246774.278105.089312.55615.180545.833761.273267.270793.090756.54109.18259.810975.275835.275867.094999.55125.191767.826198.290003.25498.091415.509357.183695.763359.277233.285749.104917.571437.211893.856644.320457.264147.100854.527527.202624.790495.305749.269467.105375.538799.212594.807695.321232.242246.098161.483883.197077.725166.297141.300729.12444.600985.250976.900686.379287.243445.104489.486839.21002.729866.316722.271027.118749.541283.239067.811078.360832.257623.116499.515065.234194.772086.353206.273733.126544.546659.254643.819104.384226.252386.120225.504835.241764.75687.364579.258862.125987.516683.253184.774065.381716.258692.129314.517534.260139.775931.392315.269409.13771.538139.276896.806379.41754.235171.123372.469702.247647.703857.373038.269674.144379.539129.290435.808079.437966.288866.158447.576813.318402.86418.480051.219337.123433.438519.247916.657359.373384.290901.166686.58112.335144.870736.505334.215247.126634.429996.253995.64441.382307.297898.178079.595482.358372.892415.540499.208284.128001.415964.256495.623322.385886.345932.215558.691227.434053 1.035622.655036.142681.091918.285056.18381.427275.276127.353503.229049.706127.461162 1.057789.69589.151548.101643.303186.203478.454644.305798.369432.249036.737385.501192 1.104264.756218.12247.085755.244862.171247.367133.257058.286286.200245.571964.402924.85698.607346.207272.14941.41409.298939.620555.449386 1.468164 1.068885 2.918479 2.184923 4.350538 3.346322.026922.023108.054661.04563.082393.068169 1.893876 1.537738 3.754904 3.155329 5.582829 4.849746.009532.010855.019493.020094.029454.029335.441354.407381.880138.820653 1.31698 1.238358.091988.090182.18482.179243.277562.268503.368386.352253.734498.709044 1.099218 1.068958.07469.076131.150273.150921.225796.225846.388625.383047.773992.770397 1.157775 1.161242.045774.04925.092322.096736.138846.144273.393685.399555.784928.804634 1.174493 1.213355.073332.079777.147586.157889.221778.236133.366363.383455.730303.771994 1.092748 1.163721.05466.062118.110745.122856.166794.183671.389961.42.777337.845813 1.162971 1.275277.057525.067316.116372.132989.175178.198747.366214.406183.729957.817914 1.092121 1.232904.068359.081786.137834.161591.207251.241515.391424.44714.780444.900923 1.1676 1.35848.015622.022128.032364.041928.049102.061734.397132.4662.79158.939168 1.184058 1.416061.063558.081095.128418.160086.193224.239184.351149.42466.699397.854711 1.046062 1.287865.07393.096436.149007.190491.224008.284691.33605.417943.669385.841329 1.001225 1.267594.059663.080885.121026.159879.182338.238972.369641.472528.736408.951568 1.10131 1.43414.051019.071907.103694.141698.15633.211563 8.579392 11.382335 16.122125 24.722442 22.456302 39.646527.02798.070588.057451.140112.086897.20967.264505.620281.52543 1.244437.78425 1.871305.040505.102531.082234.203785.123907.30511.256572.619517.50996 1.243369.761273 1.869846.04331.112126.087693.222989.13201.333934.23101.574271.459189 1.152175.685608 1.732266.068616.179672.13835.358937.207916.538408.225177.577196.447571 1.157699.668212 1.740338.044917.122181.09076.243509.136527.364928.216502.57094.430458 1.145189.642719 1.72147.093408.256831.18756.513716.281374.770998.177165.482799.352183.967545.526008 1.453695.074007.209875.148697.419606.223165.629595.191977.538618.381865 1.080025.57028 1.623134.076114.221921.152724.443695.229087.665749.159649.461864.317769.926066.474818 1.391485.121919.363457.243905.727566.365234 1.092409.150969.452028.300417.905675.448854 1.360448.084371.260239.168951.520702.253199.781529.150251.463596.299117.928976.446928 1.395508.104572.331409.209037.663321.312967.995809.135997.433912.270931.869567.404951 1.306203.118289.386329.236189.773475.353369 1.161381.105262.347706.209673.695929.313506 1.044761.117245.39445.233975.789807.349961 1.185934.141663.483471.282351.968992.421926 1.455663.087332.304644.174206.609478.260642.914757.139286.491981.277412.985069.4144 1.47931.075473.272053.15044.544077.225061.816446.142684.5212.28445 1.044616.424944 1.569296.079425.296011.158175.591975.236519.888335.09789.371034.195476.743265.292426 1.116118.121894.467892.242633.937032.362359 1.407139.08614.339286.17198.678945.257293 1.019108.123216.490102.245103.981463.36589 1.473855.067139.275003.134263.55038.201044.826079.126272.519906.251069 1.041285.374636 1.563795.074759.317624.149245.634941.22328.952676.107408.459411.21368.920435.318997 1.38232.069556.306644.139149.614083.208321.921905.121893.540821.242288 1.083586.361368 1.627511.085197.390762.169963.78162.254052 1.173078.095469.442865.189861.887123.28338 1.332136.060307.288466.120514.576993.180354.865837.116071.558883.230514 1.119173.343576 1.680631.018053.090893.036446.18243.054802.273999.149914.746724.297088 1.495231.44181 2.24577.803524 4.167041 1.531808 8.396917 2.182605 12.685399l.015063.105046c.408808 2.70184.786748 5.426641 1.133282 8.173219l.113886.938546.03335.094797c.394745 1.17317.684932 2.39769.858882 3.663377l.04455.346201c9.838902 82.018416 16.995508 131.71296 21.036827 146.97732 4.422197 16.70296 14.997003 40.782291 29.159546 62.059071 19.362858 29.089359 43.360233 50.511613 71.687591 61.055209 29.435763 10.956152 60.319475 15.272085 99.034549 14.606741 16.826084-.289168 35.186033-1.487013 58.319522-3.673542 9.321874-.881083 19.138902-1.890007 32.439687-3.315667.028232-.003027.087133-.009368.174871-.018827l.153004-.016502c1.5966-.172235 8.471979-.914986 15.864057-1.711472l.930497-.10025 1.106052-.119134c6.643387-.715473 13.351539-1.436115 16.743304-1.795004 7.267585-.768998 13.889926-1.453323 20.334875-2.098191 94.861059-9.491603 143.192304-26.095418 176.872271-65.023727 4.729449-5.59445 9.170631-11.642309 13.415321-18.186584 28.773003-44.360942 43.851377-87.043091 47.898177-127.229366-18.130706 35.070978-53.70474 59.124351-103.510373 63.01411l-212.959076 14.847493c-101.031913 7.890808-210.194188-66.316495-253.506297-168.272527-21.130859-49.741716-20.309441-101.876701 1.752807-142.249742 22.767386-41.663415 65.538157-66.433582 119.920744-67.04708l1.520649-.010266h.021l.109853-.000923-.103853.000923zm-590.247929 281.535613c-2.9103863 83.34256 27.0740262 152.034522 66.97206 153.427792 39.898034 1.39327 74.601115-65.039755 77.511501-148.382314 2.910386-83.34256-27.074026-152.034522-66.97206-153.427792-39.8980336-1.39327-74.6011147 65.039755-77.511501 148.382314zm590.487582-261.537009-204.769019 3.407668-.143448.001357c-47.99432.109618-84.631803 21.08252-104.067437 56.64896-19.003382 34.775437-19.724067 80.516906-.89543 124.839227 40.101157 94.397502 141.519031 163.340247 233.624254 156.146981l212.959076-14.847493c43.893933-3.42821 75.095449-24.29447 89.661528-57.380748 14.402802-32.7154 11.492654-75.27217-9.098709-117.789844-44.388118-91.653941-124.996118-150.05436-214.603303-151.013677zm12.347755 255.371951c17.125298 18.364634 19.399592 45.208132 3.40305 60.125149s-42.616004 10.775755-59.741302-7.588879c-17.125299-18.364634-19.399593-45.208132-3.403051-60.125149s42.616004-10.775755 59.741303 7.588879zm-46.101335 7.038195c-7.039906 6.564818-5.825062 20.903627 4.390157 31.858108 10.215218 10.954481 24.434355 13.16659 31.474261 6.601772s5.825061-20.903627-4.390157-31.858108c-10.215219-10.954481-24.434356-13.16659-31.474261-6.601772zm200.262485-176.144514c58.41432 62.641689 70.408163 147.896161 24.36492 190.83218s-130.253392 25.02434-188.667711-37.617348c-58.41432-62.641688-70.408163-147.896161-24.36492-190.83218 46.043243-42.936018 130.253392-25.02434 188.667711 37.617348zm-175.027744-22.990274c-36.620373 34.149051-26.355181 107.115947 25.352027 162.565139s123.780296 70.779292 160.40067 36.630241c36.620373-34.149051 26.355181-107.115946-25.352027-162.565138-51.707208-55.449193-123.780296-70.779292-160.40067-36.630242zm-78.994271 35.409127c40.668521 43.61165 45.94735 105.91769 10.113867 139.332953-35.833483 33.415264-97.619516 23.803044-138.288037-19.808606-40.668522-43.61165-45.947351-105.91769-10.113868-139.332954 35.833483-33.415263 97.619516-23.803044 138.288038 19.808607zm-124.648071-5.181533c-26.876847 25.063065-22.657467 74.864416 11.100975 111.065913 33.758441 36.201496 83.14415 43.884564 110.020996 18.821499 26.876847-25.063065 22.657467-74.864416-11.100974-111.065912-33.758442-36.201497-83.14415-43.884565-110.020997-18.8215zm78.708724 50.649297c16.503923 17.69829 18.698918 43.605827 3.225932 58.03462s-41.164298 10.431927-57.668221-7.266364c-16.503924-17.698291-18.698919-43.605827-3.225932-58.03462 15.472986-14.428794 41.164298-10.431927 57.668221 7.266364zm-44.028254 7.36071c-6.51635 6.076594-5.380805 19.479441 4.213039 29.767579 9.593843 10.288137 22.88483 12.355852 29.40118 6.279257 6.51635-6.076594 5.380804-19.479442-4.213039-29.767579s-22.88483-12.355852-29.40118-6.279257z"/></svg>