<svg height="960" viewBox="0 0 960 960" width="960" xmlns="http://www.w3.org/2000/svg"><path d="m320.945336 1.77368437 320.432602 12.72646313c19.773326.7826419 38.660016 7.6452816 53.3164 19.4448579 16.788707 13.5162693 27.265222 32.8919258 27.265222 54.4690878v782.1718138c0 21.577162-10.476515 40.952818-27.265222 54.469088-14.656384 11.799576-33.543074 18.662216-53.31098 19.444643l-320.438022 12.726678c-20.362463.811491-40.089721-5.032124-55.503264-16.664976-17.479904-13.192366-28.253175-33.001496-28.253175-55.124979v-811.8727219c0-22.1234834 10.773271-41.9326129 28.253175-55.1249796 15.413543-11.6328513 35.140801-17.47646645 55.503264-16.66497513zm-15.426702 41.26224843-.119202.0278943c-16.429217 3.9214929-28.210535 15.8825869-28.210535 30.499812v811.8727219c0 14.653285 11.839517 26.637317 28.332209 30.528687-6.508546-7.841751-10.384959-17.605971-10.384959-28.587299v-815.7554984c0-10.9809345 3.876135-20.7448497 10.382487-28.5863178zm9.617513 28.5863178v815.7554984c0 16.595214 16.989562 29.371433 37.947249 28.536799l257.556501-10.226273 29.156052-1.157127c23.28632-.921688 42.163611-16.119317 42.163611-33.945241v-782.1718138c0-17.8259243-18.877291-33.0235529-42.163611-33.9452416l-23.039052-.9155766-263.673501-10.4678228c-20.957687-.8346345-37.947249 11.9415847-37.947249 28.5367984zm344.860398 586.1917914-.195691 90.364514c-.020914 9.659408-8.034241 17.700385-17.898268 17.960024l-280.805172 7.391302c-9.864027.259639-17.877354-7.588757-17.898268-17.529882l-.195691-93c-.020873-9.941125 7.972259-18.118126 17.8532-18.263842l281.28669-4.14818c9.880941-.145715 17.874073 7.566656 17.8532 17.226064zm-254.442196 3.241327c-26.234908.42702-47.461671 22.190225-47.41139 48.609477.050459 26.419251 21.331844 47.307974 47.533393 46.656268 26.201548-.651706 47.428311-22.41491 47.411311-48.609477-.017021-26.194566-21.298406-47.083289-47.533314-46.656268zm236.874548-169.376254c9.901002-.010587 17.910397 7.81132 17.889524 17.470728l-.195691 90.364513c-.020914 9.659409-8.050504 17.59085-17.934592 17.715371l-281.376276 3.544808c-9.884088.124521-17.913678-7.83341-17.934592-17.774535l-.195691-93c-.020873-9.941125 7.988522-18.008591 17.889524-18.019188zm-237.069393 17.23167c-26.288186.068351-47.558138 21.540663-47.507857 47.959915.050459 26.419251 21.375034 47.598867 47.62986 47.305995s47.524778-21.765184 47.507778-47.95975c-.01702-26.194567-21.341595-47.374182-47.629781-47.30616zm-45.073952-169.68532 282.428896 3.544808c9.921064.124521 17.946722 8.055962 17.925849 17.715371l-.195691 90.364513c-.020914 9.659408-8.066767 17.481315-17.970917 17.470728l-281.947378-.301697c-9.90415-.010597-17.950003-8.078063-17.970917-18.019188l-.195691-93c-.020873-9.941125 8.004785-17.899056 17.925849-17.774535zm-2.725217 64.851089c.050459 26.419252 21.418224 47.88976 47.726327 47.955876 26.308103.065808 47.621245-21.115611 47.604245-47.310178-.01702-26.194566-21.384785-47.665074-47.726248-47.955722-26.341463-.290647-47.654605 20.890772-47.604324 47.310024zm2.439665-217.606436 283 7.391302c9.941125.259639 17.983046 8.300616 17.962173 17.960024l-.195691 90.364514c-.020914 9.659408-8.08303 17.371779-18.007241 17.226064l-282.518482-4.14818c-9.924211-.145716-17.986327-8.322717-18.007241-18.263842l-.195691-93c-.020873-9.941125 8.021048-17.789521 17.962173-17.529882zm-2.730977 64.81229c.050459 26.419252 21.461413 48.180652 47.822794 48.605449 26.361381.424796 47.717713-20.46573 47.700713-46.660297-.017021-26.194567-21.427975-47.955967-47.822716-48.605449-26.39474-.649482-47.751072 20.241045-47.700791 46.660297z"/></svg>