<?xml version="1.0" encoding="UTF-8"?>
<svg width="960px" height="960px" viewBox="0 0 960 960" version="1.1" xmlns="http://www.w3.org/2000/svg" xmlns:xlink="http://www.w3.org/1999/xlink">
    <!-- Generator: Sketch 60.1 (88133) - https://sketch.com -->
    <title>com.aqara/drivers/Opple4/assets/icon</title>
    <desc>Created with Sketch.</desc>
    <g id="com.aqara/drivers/Opple4/assets/icon" stroke="none" stroke-width="1" fill="none" fill-rule="evenodd">
        <path d="M901,4 C931.927946,4 957,29.072054 957,60 L957,60 L957,901 C957,931.927946 931.927946,957 901,957 L901,957 L60,957 C29.072054,957 4,931.927946 4,901 L4,901 L4,60 C4,29.072054 29.072054,4 60,4 L60,4 Z M901,44 L60,44 C51.163444,44 44,51.163444 44,60 L44,60 L44,901 C44,909.836556 51.163444,917 60,917 L60,917 L901,917 C909.836556,917 917,909.836556 917,901 L917,901 L917,60 C917,51.163444 909.836556,44 901,44 L901,44 Z M844,92 C857.807119,92 869,103.192881 869,117 L869,117 L869,844 C869,857.807119 857.807119,869 844,869 L844,869 L117,869 C103.192881,869 92,857.807119 92,844 L92,844 L92,117 C92,103.192881 103.192881,92 117,92 L117,92 Z M844,112 L117,112 C114.238576,112 112,114.238576 112,117 L112,117 L112,844 C112,846.761424 114.238576,849 117,849 L117,849 L844,849 C846.761424,849 849,846.761424 849,844 L849,844 L849,117 C849,114.238576 846.761424,112 844,112 L844,112 Z M830,121 C835.522847,121 840,125.477153 840,131 L840,131 L840,830 C840,835.522847 835.522847,840 830,840 L830,840 L131,840 C125.477153,840 121,835.522847 121,830 L121,830 L121,131 C121,125.477153 125.477153,121 131,121 L131,121 Z M820,486.75 L141,486.75 L141,820 L820,820 L820,486.75 Z M316,625.5 C332.844685,625.5 346.5,639.155315 346.5,656 C346.5,672.844685 332.844685,686.5 316,686.5 C299.155315,686.5 285.5,672.844685 285.5,656 C285.5,639.155315 299.155315,625.5 316,625.5 Z M645,625.5 C661.844685,625.5 675.5,639.155315 675.5,656 C675.5,672.844685 661.844685,686.5 645,686.5 C628.155315,686.5 614.5,672.844685 614.5,656 C614.5,639.155315 628.155315,625.5 645,625.5 Z M316,640.5 C307.439586,640.5 300.5,647.439586 300.5,656 C300.5,664.560414 307.439586,671.5 316,671.5 C324.560414,671.5 331.5,664.560414 331.5,656 C331.5,647.439586 324.560414,640.5 316,640.5 Z M645,640.5 C636.439586,640.5 629.5,647.439586 629.5,656 C629.5,664.560414 636.439586,671.5 645,671.5 C653.560414,671.5 660.5,664.560414 660.5,656 C660.5,647.439586 653.560414,640.5 645,640.5 Z M820,141 L141,141 L141,474.25 L820,474.25 L820,141 Z M316,275.5 C332.844685,275.5 346.5,289.155315 346.5,306 C346.5,322.844685 332.844685,336.5 316,336.5 C299.155315,336.5 285.5,322.844685 285.5,306 C285.5,289.155315 299.155315,275.5 316,275.5 Z M645,275.5 C661.844685,275.5 675.5,289.155315 675.5,306 C675.5,322.844685 661.844685,336.5 645,336.5 C628.155315,336.5 614.5,322.844685 614.5,306 C614.5,289.155315 628.155315,275.5 645,275.5 Z M316,290.5 C307.439586,290.5 300.5,297.439586 300.5,306 C300.5,314.560414 307.439586,321.5 316,321.5 C324.560414,321.5 331.5,314.560414 331.5,306 C331.5,297.439586 324.560414,290.5 316,290.5 Z M645,290.5 C636.439586,290.5 629.5,297.439586 629.5,306 C629.5,314.560414 636.439586,321.5 645,321.5 C653.560414,321.5 660.5,314.560414 660.5,306 C660.5,297.439586 653.560414,290.5 645,290.5 Z" id="Combined-Shape" fill="#000000" fill-rule="nonzero"></path>
    </g>
</svg>