<svg width="960" height="960" viewBox="0 0 960 960" fill="none" xmlns="http://www.w3.org/2000/svg">
<path d="M706.098 196.611C844.779 197.48 951.335 327.852 950.247 481.26C949.159 634.667 840.763 763.691 702.082 762.822C687.366 762.73 672.948 761.152 658.941 758.214L207.396 683.166L207.081 683.114L206.769 683.052C151.434 672.026 105.967 632.628 80.4775 580.147C35.4206 571.994 4.73674 527.498 5.08008 479.085C5.42059 431.073 36.09 387.495 80.5957 379.222C107.029 324.811 154.807 284.389 212.504 274.723L212.542 274.717L212.579 274.712L655.801 202.197C672.062 198.431 688.889 196.503 706.098 196.611ZM704.501 236.607C593.936 236.745 498.902 341.755 497.933 478.425C496.983 612.372 586.812 717.043 694.469 722.594C694.535 722.597 694.602 722.601 694.668 722.604C695.257 722.634 695.846 722.66 696.437 722.683C698.301 722.757 700.172 722.803 702.05 722.818C702.155 722.819 702.261 722.821 702.366 722.822C702.8 722.825 703.234 722.825 703.667 722.825C715.536 722.811 727.226 721.588 738.64 719.248C739.319 719.109 739.997 718.966 740.674 718.819C743.584 718.187 746.476 717.482 749.348 716.706C750.056 716.514 750.763 716.317 751.469 716.117C754.034 715.39 756.582 714.606 759.113 713.766C760.137 713.427 761.158 713.077 762.176 712.719C779.083 706.772 795.175 698.326 810.096 687.709C811.759 686.526 813.407 685.315 815.04 684.079C819.868 680.423 824.565 676.537 829.117 672.43C829.684 671.919 830.249 671.405 830.812 670.886C831.65 670.114 832.482 669.334 833.31 668.547C834.731 667.195 836.138 665.823 837.529 664.428C837.844 664.113 838.157 663.797 838.47 663.48C839.096 662.845 839.718 662.205 840.338 661.561C850.248 651.262 859.336 639.848 867.447 627.467C867.954 626.693 868.458 625.915 868.957 625.134C869.456 624.352 869.952 623.567 870.443 622.778C870.935 621.989 871.423 621.197 871.906 620.401C874.567 616.022 877.108 611.531 879.524 606.934C879.964 606.099 880.399 605.259 880.83 604.417C881.261 603.574 881.688 602.728 882.11 601.879C882.533 601.029 882.952 600.176 883.366 599.32C884.816 596.323 886.213 593.285 887.557 590.207C887.94 589.328 888.32 588.445 888.695 587.559C892.072 579.586 895.089 571.351 897.722 562.882C898.307 561 898.872 559.106 899.419 557.201C899.556 556.725 899.691 556.248 899.825 555.77C900.228 554.337 900.619 552.898 901 551.453C901.127 550.971 901.253 550.488 901.377 550.005C901.626 549.038 901.87 548.069 902.109 547.097C902.468 545.64 902.815 544.176 903.15 542.706C903.822 539.766 904.449 536.803 905.029 533.816C905.126 533.318 905.221 532.82 905.315 532.321C905.504 531.323 905.686 530.322 905.864 529.319C906.131 527.815 906.387 526.304 906.63 524.789C906.873 523.273 907.105 521.751 907.324 520.224C907.397 519.716 907.469 519.206 907.539 518.696C907.68 517.676 907.816 516.653 907.946 515.629C908.272 513.067 908.564 510.49 908.822 507.899C908.977 506.345 909.12 504.786 909.25 503.221C909.293 502.7 909.335 502.178 909.376 501.655C909.579 499.042 909.748 496.416 909.881 493.776C910.094 489.553 910.218 485.296 910.248 481.009C910.259 479.401 910.257 477.797 910.242 476.197C910.223 474.065 910.18 471.94 910.115 469.823C910.099 469.294 910.082 468.765 910.062 468.237C910.024 467.181 909.98 466.126 909.931 465.074C909.906 464.548 909.879 464.022 909.852 463.497C909.548 457.721 909.074 452.007 908.438 446.362C908.264 444.822 908.079 443.288 907.881 441.759C907.732 440.604 907.574 439.453 907.411 438.304C906.062 428.804 904.249 419.51 902 410.454C901.76 409.487 901.516 408.523 901.266 407.562C901.141 407.081 901.014 406.601 900.887 406.122C900.632 405.163 900.372 404.208 900.107 403.255C898.388 397.06 896.463 390.982 894.343 385.033C894.017 384.118 893.685 383.206 893.35 382.297C893.182 381.842 893.014 381.388 892.844 380.935C892.504 380.029 892.159 379.126 891.81 378.225C859.173 294.078 786.987 237.119 705.813 236.61C705.376 236.607 704.938 236.607 704.501 236.607ZM529.922 688.369C536.091 692.415 542.453 696.097 548.988 699.385L587.842 705.843C582.744 702.299 577.777 698.528 572.951 694.542L529.922 688.369ZM219.081 314.173C173.514 321.806 133.484 355.944 112.671 405.28L108.212 415.852L108.003 415.88C101.616 435.222 98.028 456.268 97.8711 478.385C97.7023 502.192 101.528 524.81 108.569 545.439L108.973 545.557L112.662 554.28C132.716 601.685 170.664 634.953 214.334 643.764L499.993 691.242C442.174 643.844 405.154 565.589 405.773 478.26C406.386 391.884 443.683 314.863 501.078 268.036L219.081 314.173ZM486.254 649.921C494.465 659.405 503.354 668.071 512.824 675.814L559.483 682.508C551.076 674.393 543.185 665.581 535.876 656.149L486.254 649.921ZM457.767 608.785C463.561 619.365 470.049 629.364 477.149 638.7L527.74 645.05C520.718 634.912 514.333 624.154 508.652 612.857L457.767 608.785ZM439.108 565.547C442.824 576.926 447.264 587.874 452.355 598.319L503.679 602.427C498.79 591.601 494.532 580.329 490.963 568.678L439.108 565.547ZM428.898 522.364C430.607 533.663 432.991 544.674 436.003 555.342L488.042 558.484C485.09 547.426 482.749 536.055 481.066 524.425C470.587 524.087 457.448 523.632 446.022 523.163C439.501 522.895 433.517 522.62 428.898 522.364ZM86.209 418.929C64.7498 424.077 45.3075 447.134 45.0791 479.336C44.8477 511.982 64.3766 535.317 86.1143 540.419C80.6133 520.803 77.7177 499.889 77.8711 478.26C78.0174 457.632 80.9262 437.687 86.209 418.929ZM425.812 485.373C425.97 494.482 426.559 503.457 427.561 512.272C427.825 512.288 428.096 512.305 428.374 512.321C433.037 512.591 439.394 512.883 446.432 513.172C457.245 513.615 469.611 514.048 479.785 514.38C478.732 504.86 478.117 495.182 477.964 485.373H425.812ZM427.743 446.951C426.635 456.254 425.981 465.738 425.812 475.373H477.968C478.132 465.367 478.777 455.498 479.874 445.796L427.743 446.951ZM436.317 404.235C433.291 414.808 430.874 425.72 429.123 436.918L481.178 435.764C482.932 423.832 485.375 412.173 488.458 400.845L436.317 404.235ZM452.684 361.551C447.618 371.9 443.192 382.743 439.469 394.01L491.438 390.63C494.999 379.205 499.22 368.148 504.045 357.521L452.684 361.551ZM477.876 320.72C470.634 330.189 464.019 340.343 458.113 351.094L509.04 347.098C514.713 335.867 521.079 325.167 528.069 315.078L477.876 320.72ZM513.174 284.036C503.826 291.709 495.035 300.277 486.902 309.642L536.098 304.113C543.53 294.504 551.559 285.533 560.115 277.279L513.174 284.036ZM549.876 260.052C543.117 263.456 536.54 267.278 530.166 271.489L572.475 265.399L572.572 266.083C577.828 261.688 583.252 257.549 588.829 253.679L549.876 260.052Z" fill="black"/>
</svg>
