<svg height="960" viewBox="0 0 960 960" width="960" xmlns="http://www.w3.org/2000/svg"><path d="m491.125571 9.47359159c18.486151 0 38.288232.75306131 57.567984 2.00846731 14.776123.962151 28.48869 2.1969801 34.475322 3.0503514l11.399237 1.8584153c22.632309 4.1658657 43.506986 10.9214213 62.523217 20.3286496 8.49228.3669873 14.772289.9295414 19.682928 1.8471529 23.121833 4.3205906 42.050831 12.5623054 57.35216 25.0791756 7.19587 5.8864022 13.413191 12.5738376 18.844338 20.0659589 4.587385 6.3281727 8.512364 13.0688955 12.169474 20.5885464 4.680298 9.623501 7.39605 20.390101 8.923058 33.104268 1.209715 10.072332 1.700826 21.671416 1.650038 35.979282-.042148 11.874163-.445817 25.544985-1.249888 44.464898-.429583 10.108156-2.279564 49.722379-2.561012 55.996782-1.379101 30.744695-5.030039 56.931088-11.178394 78.783168-5.402397 19.200846-12.839905 35.48961-22.789555 48.645535 1.639846 1.374334 3.102547 2.654814 4.640909 4.06693 3.836799 3.52193 7.321361 7.169565 10.607651 11.21722 7.544636 9.292573 13.491516 20.067469 18.14529 33.072952 9.086479 25.393169 13.793141 61.127732 15.035553 114.521052 1.233771 53.022025 1.171727 104.470661.017752 148.935125-1.021771 39.37042-2.842462 70.566075-5.00426 85.905442-.131476.932905-.272074 2.048442-.455359 3.603473-.077869.660661-.446955 3.856881-.557051 4.790395-.253826 2.152205-.481538 3.977315-.731379 5.819827-.672092 4.95649-1.438773 9.512137-2.427424 14.115888-2.629243 12.243328-6.612125 23.684502-12.604143 34.767236-8.264055 15.285058-19.87899 28.85455-35.136103 40.406598-16.066088 12.16457-35.889714 21.874101-59.760594 29.160483-34.567832 10.551534-68.682994 17.05956-102.810655 20.413461-13.676064 1.344018-27.028681 2.150279-40.517443 2.539057-10.148169.288351-19.022867.337519-30.890565.245551-1.007433-.007807-2.513052-.014506-4.499221-.019846-1.98782.005339-3.493756.012036-4.501558.019846-11.867698.091968-20.742395.0428-30.890564-.245551-13.488762-.388778-26.84138-1.195039-40.517443-2.539057-34.127662-3.353901-68.242823-9.861927-102.810655-20.413461-23.870881-7.286382-43.694506-16.995913-59.760594-29.160483-15.257113-11.552048-26.872048-25.12154-35.136104-40.406598-5.992017-11.082734-9.974899-22.523908-12.604142-34.767236-.988651-4.603751-1.755332-9.159398-2.427424-14.115888-.249842-1.842512-.477553-3.667622-.731379-5.819827-.110096-.933514-.479182-4.129734-.557052-4.790395-.183284-1.555031-.323883-2.670568-.455358-3.603473-2.161798-15.339367-3.98249-46.535022-5.00426-85.905442-1.153975-44.464464-1.21602-95.9131.017752-148.935125 1.242411-53.39332 5.949074-89.127883 15.035553-114.521052 4.653773-13.005483 10.600653-23.780379 18.145289-33.072952 3.286291-4.047655 6.770852-7.69529 10.607651-11.21722 1.538363-1.412116 3.001063-2.692596 4.640909-4.06693-9.949577-13.155765-17.387131-29.444595-22.789555-48.645535-6.148354-21.85208-9.799293-48.038473-11.178394-78.783168-.281448-6.274403-2.131429-45.888626-2.561012-55.996782-.804071-18.919913-1.207739-32.590735-1.249888-44.464898-.050787-14.307866.440324-25.90695 1.650039-35.979282 1.527007-12.714167 4.24276-23.480767 8.923057-33.104268 3.65711-7.5196509 7.58209-14.2603737 12.169474-20.5885464 5.431148-7.4921213 11.648468-14.1795567 18.844339-20.0659589 15.301329-12.5168702 34.230327-20.758585 57.352159-25.0791756 4.910649-.9176133 11.190673-1.4801678 19.682929-1.8471529 22.169384-10.965509 46.862399-18.3297608 73.922453-22.1870652 6.15469-.8773269 19.77273-2.1150954 34.490395-3.0745637 19.221518-1.2530818 39.080018-1.98425471 57.831518-1.98425471zm-.139303 599.55402541c-115.432963 0-200.567827-7.848315-255.798205-23.766982-1.77353 103.286401 1.660661 184.344129 5.015688 208.150236 3.570621 25.335883 2.193284 75.096765 83.741215 99.988572 70.223604 21.435154 129.15292 21.713025 162.230946 21.45669 1.106774-.008577 2.709793-.015645 4.811655-.021205 2.099263.00556 3.702282.012628 4.809057.021205 33.078026.256335 92.007342-.021536 162.230946-21.45669 81.547931-24.891807 80.170594-74.652689 83.741215-99.988572 3.372551-23.930455 6.825096-105.712181 4.985825-209.770683-51.507353 17.028134-136.576903 25.387429-255.768342 25.387429zm-221.604013-176.802944-.546619.467614c-16.962697 14.549046-30.925328 35.292104-33.224357 131.819379 52.493596 16.263387 137.765567 24.515951 255.374989 24.515951 122.205721 0 207.527872-8.919319 255.32728-26.403786l.061157 2.459075c-2.281218-98.03663-16.537001-118.241716-33.774788-132.848366l-16.233188 2.513688c-.074556.011546-.14924.022247-.224038.032103-86.412009 11.38549-153.955614 17.085687-202.745172 17.085687-48.748248 0-121.502111-5.693212-218.409728-17.068186-2.155061-.252961-4.095684-1.1834-5.605536-2.573159zm24.450502-33.456952.020322.142612c.362981 3.019316-3.503485 10.470231-8.040784 16.990103l-.582955-.067675c92.347529 10.707799 161.716223 16.033257 208.168179 16.033257 47.745492 0 114.462507-5.628937 200.039503-16.902491l1.883145-.292207c-3.798323-5.659334-6.943225-11.75536-7.206531-14.930278-73.45234 10.932141-138.047507 16.373099-193.908651 16.373099-57.492436 0-124.236459-5.763379-200.372228-17.34642zm197.153511-206.740104c-108.287027 0-189.761362-4.24437-244.676778-12.811465.322905 23.747565 1.991503 54.293305 3.720437 92.836927 2.183827 48.684688 10.423671 83.193774 24.719531 103.527259l-1.301764-.211922c84.937946 13.836235 158.536455 20.745725 220.757291 20.745725 60.116171 0 130.853316-6.449959 212.176949-19.365438 14.815189-20.168931 23.334504-55.06695 25.560675-104.695624 1.747831-38.964905 3.434-69.756139 3.728858-93.614236-51.800541 9.096953-133.242002 13.588774-244.685199 13.588774zm-.79237-104.9999995c-88.232901 0-152.761924-1.6566575-193.746331-4.9906678-23.949616 8.178944-35.3222 22.6471063-43.643793 39.7577393-3.962931 8.148473-5.810177 20.290472-6.362507 37.191759 53.4815 8.666967 135.087708 13.041169 244.545001 13.041169 112.975627 0 194.612551-4.663669 244.519283-13.872268-.588023-16.468989-2.439116-28.346368-6.33679-36.36066-8.459187-17.393551-20.071094-32.056525-44.842496-40.1587347-37.845556 3.6049736-102.477925 5.3916632-194.132367 5.3916632zm-62.172775 5.2701473c4.595595 3.0630624 5.837958 9.2716312 2.774896 13.8672262-4.296251 6.445781-7.451475 11.588513-9.437013 15.354471-1.969549 3.735633-4.208456 8.813265-6.682205 15.189817-1.997511 5.148961-7.790871 7.703715-12.939832 5.706203-5.14896-1.997511-7.703714-7.790871-5.706203-12.939832 2.72973-7.036391 5.263748-12.783305 7.636568-17.283821 2.356833-4.470192 5.8428-10.152006 10.486563-17.1191685 3.063063-4.595595 9.271631-5.8379581 13.867226-2.7748957zm130.498601 0c4.595595-3.0630624 10.804164-1.8206993 13.867226 2.7748957 4.643763 6.9671625 8.129731 12.6489765 10.486563 17.1191685 2.372821 4.500516 4.906838 10.24743 7.636568 17.283821 1.997512 5.148961-.557243 10.942321-5.706203 12.939832-5.14896 1.997512-10.94232-.557242-12.939832-5.706203-2.473749-6.376552-4.712656-11.454184-6.682205-15.189817-1.985537-3.765958-5.140761-8.90869-9.437012-15.354471-3.063063-4.595595-1.8207-10.8041638 2.774895-13.8672262zm-65.522938-2.2977648c5.522847-.0017746 10.001438 4.4739386 10.003214 9.9967859l.010636 33.0924651c.001775 5.522847-4.473938 10.001438-9.996785 10.003214-5.522848.001774-10.001439-4.473939-10.003214-9.996786l-.010637-33.092465c-.001775-5.5228471 4.473939-10.0014384 9.996786-10.003214zm-32.884629.1564489c5.225926 1.7864877 8.014142 7.4711725 6.227654 12.6970991-1.442073 4.218428-2.565815 8.123079-3.37422 11.706541-.840224 3.724508-2.035182 10.166321-3.560311 19.225991-.916831 5.446216-6.075099 9.118008-11.521315 8.201177-5.446216-.91683-9.118008-6.075099-8.201177-11.521314 1.581953-9.39722 2.831462-16.133109 3.773089-20.307113.973446-4.31505 2.294171-8.904155 3.959181-13.7747266 1.786487-5.2259264 7.471172-8.0141422 12.697099-6.2276545zm66.316534 0c5.225926-1.7864877 10.910611 1.0017281 12.697099 6.2276545 1.665009 4.8705716 2.985734 9.4596766 3.95918 13.7747266.941627 4.174004 2.191136 10.909893 3.773089 20.307113.916831 5.446215-2.754961 10.604484-8.201177 11.521314-5.446215.916831-10.604484-2.754961-11.521315-8.201177-1.525129-9.05967-2.720087-15.501483-3.560311-19.225991-.808404-3.583462-1.932146-7.488113-3.37422-11.706541-1.786487-5.2259266 1.001728-10.9106114 6.227655-12.6970991zm-134.804905 3.4699339c3.86182 3.9481887 3.791804 10.2794512-.156385 14.1412712-4.930679 4.822817-8.332754 8.632487-10.118321 11.24074-1.687153 2.464496-4.374288 8.164831-7.755656 16.703981-2.033345 5.134915-7.844368 7.649234-12.979283 5.615889s-7.649234-7.844368-5.615889-12.979283c3.900592-9.850375 7.081193-16.597519 9.847552-20.638457 2.667945-3.89718 6.850881-8.5812653 12.636711-14.2405265 3.948189-3.8618196 10.279452-3.7918035 14.141271.1563853zm203.293275 0c3.86182-3.9481888 10.193082-4.0182049 14.141271-.1563853 5.78583 5.6592612 9.968767 10.3433465 12.636712 14.2405265 2.766359 4.040938 5.946959 10.788082 9.847552 20.638457 2.033345 5.134915-.480975 10.945938-5.61589 12.979283s-10.945938-.480974-12.979283-5.615889c-3.381368-8.53915-6.068503-14.239485-7.755656-16.703981-1.785567-2.608253-5.187641-6.417923-10.11832-11.24074-3.948189-3.86182-4.018205-10.1930825-.156386-14.1412712zm-241.475974-.0574203c3.160054 4.5294479 2.049942 10.7630215-2.479506 13.9230765-5.732902 3.999667-9.723539 7.363982-11.877013 9.890742-2.56169 3.005739-5.726534 8.574549-9.252545 16.539862-2.235558 5.050161-8.1418 7.331847-13.191961 5.096289s-7.331847-8.1418-5.096289-13.191961c4.239482-9.577055 8.265168-16.660591 12.319047-21.417177 3.456431-4.055574 8.643195-8.4282862 15.65519-13.3203371 4.529448-3.1600548 10.763022-2.0499423 13.923077 2.4795056zm279.658674 0c3.160054-4.5294479 9.393628-5.6395604 13.923076-2.4795056 7.011995 4.8920509 12.198759 9.2647631 15.65519 13.3203371 4.053879 4.756586 8.079566 11.840122 12.319047 21.417177 2.235558 5.050161-.046128 10.956403-5.096289 13.191961s-10.956403-.046128-13.191961-5.096289c-3.52601-7.965313-6.690854-13.534123-9.252545-16.539862-2.153473-2.52676-6.144111-5.891075-11.877013-9.890742-4.529448-3.160055-5.63956-9.3936286-2.479505-13.9230765zm-316.574112-1.9263454c2.832948 4.7409119 1.286239 10.8807389-3.454673 13.7136879-5.916981 3.535713-10.204913 6.580315-12.775517 8.994836-3.293492 3.093517-7.746792 8.87207-13.129328 17.190555-3.000288 4.636821-9.191389 5.963493-13.828211 2.963205-4.636821-3.000289-5.963493-9.19139-2.963204-13.828211 6.186131-9.560409 11.518642-16.479816 16.228103-20.9033267 3.789945-3.5598265 9.163566-7.3753098 16.209142-11.5854188 4.740912-2.8329489 10.880739-1.2862392 13.713688 3.4546726zm353.48955 0c2.832949-4.7409118 8.972776-6.2876215 13.713688-3.4546726 7.045575 4.210109 12.419196 8.0255923 16.209142 11.5854188 4.709461 4.4235107 10.041971 11.3429177 16.228102 20.9033267 3.000289 4.636821 1.673617 10.827922-2.963204 13.828211-4.636821 3.000288-10.827922 1.673616-13.828211-2.963205-5.382536-8.318485-9.835836-14.097038-13.129327-17.190555-2.570605-2.414521-6.858537-5.459123-12.775518-8.994836-4.740912-2.832949-6.287621-8.972776-3.454672-13.7136879zm-265.566759-37.5105047c-16.167566 2.3046232-31.162935 6.0292215-44.986106 11.1737949 35.289359 1.146489 78.878016 1.7217102 130.731564 1.7217102 53.241071 0 97.279146-.6067399 132.067018-1.8141946-13.754805-5.0969641-28.666762-8.7905867-44.73682-11.0813105-7.679316-1.0946563-47.32888-4.6447416-86.412589-4.6585208-39.637217-.0131381-78.715929 3.5256875-86.663067 4.6585208z"/></svg>