<svg height="960" viewBox="0 0 960 960" width="960" xmlns="http://www.w3.org/2000/svg"><path d="m130.196548 2.04510407 749.103578 32.40649383c34.773394 1.5043097 62.190703 30.1333454 62.190703 64.9392628v765.3638753c0 34.944804-27.629049 63.636086-62.549001 64.953773l-749.103578 28.267055c-.816636.030815-1.633781.046227-2.450998.046227-35.8985091 0-65.0000003-29.101491-65.0000003-65v-826.0374241c0-.9367603.0202504-1.8734112.0607372-2.8092962 1.5515314-35.8649645 31.8835944-63.68149807 67.7485591-62.12996663zm-9.251498 40.77608123-.048208.0134486c-10.25685 2.7535933-18.002868 11.8959186-18.48623 23.0692345-.015573.2399705-.020765.4800719-.022495.7202294l-.000865 826.3976932c0 11.609126 7.912884 21.370099 18.639383 24.183648-4.769295-7.141719-7.549567-15.724696-7.549567-24.95704v-824.5885815c0-.6620381.01461-1.3239955.043819-1.985389.373684-8.4615225 3.060927-16.2738147 7.424163-22.8532432zm12.556362 23.7356383c-.016227.3674408-.024344.735195-.024344 1.1029939v824.5885815c0 12.606695 9.331217 23.033968 21.46365 24.751818l722.492803-27.26326c13.430751-.506803 24.057308-11.541912 24.057308-24.982221v-765.3638753c0-13.3868913-10.545119-24.3980589-23.919501-24.9766395l-723.804661-31.3124188c-11.120155 2.1232008-19.744012 11.6522341-20.265255 23.4550212zm137.907808 83.8350424 547.600918 16.092618c16.758994.492505 30.089381 14.220393 30.089381 30.986623v563.710032c0 16.716249-13.253783 30.42211-29.960633 30.982572l-547.600917 18.370281c-.346334.017429-.692839.017429-1.039368.017429-17.120827 0-31-13.879173-31-31v-598.172933c0-.303589 0-.607161.013378-.910619.502921-17.113439 14.783802-30.578924 31.897241-30.076003zm-11.910619 30.663499v598.496056c0 6.075132 4.924868 11 11 11h.368808l547.600917-18.376466c5.928238-.198874 10.631193-5.062244 10.631193-10.993816v-563.710032c0-5.949307-4.730137-10.820494-10.676877-10.995253l-547.600918-16.097459c-6.07251-.173616-11.13992 4.60446-11.323123 10.67697zm304.501399 32.944635c72.44954 0 139.744035 33.693087 186.439321 91.075638 44.788791 43.215142 72.902618 106.049963 72.902618 175.793628 0 65.350905-24.683892 124.635856-64.638725 167.400036-.494351.525124-.988405 1.051516-1.48497 1.575611-.040244.041044-.080122.082893-.120016.124726-.552682.584288-1.109095 1.164532-1.668605 1.741897l-.417371.425693-.629105.821407c-46.258693 59.714825-114.405541 95.317294-188.124714 96.030443l-2.258433.010921c-137.349813 0-248-120.11369-248-267.5s110.650187-267.5 248-267.5zm0 20c-125.920923 0-228 110.809524-228 247.5s102.079077 247.5 228 247.5c28.471518 0 55.724144-5.665034 80.853483-16.013311-13.070406 2.636847-26.558496 4.013311-40.353483 4.013311-1.202015 0-2.402995-.010499-3.602861-.031479l-1.336139-.029521-.18274.014242c-.341564.023252-.685474.037928-1.031516.046758h-42.534737c-1.161725 0-2.300869-.099208-3.409274-.289714l-.122733-.022286-.816895-.040264c-114.58608-6.714955-204.628069-108.26324-206.435408-231.857431l-.027697-3.790305c0-120.561074 84.150966-221.655327 194.641643-234.608369l3.217357-.349631-.718.078.146836-.021358c.453755-.061738.912339-.108314 1.375221-.139209l.067943-.003433 1.186698-.113751c5.597652-.509524 11.228759-.788714 16.884763-.835265l1.697539-.007045c4.131619 0 8.250745.124108 12.354087.371363l21.806399-.371363c.573882-.006801 1.142478.007712 1.704817.045532l.199697.015529 1.332139-.029521c.599933-.01049 1.200145-.01836 1.800625-.023607l1.802236-.007933c12.105526 0 23.974722 1.059961 35.533822 3.09785-23.780301-9.130269-49.372654-14.097789-76.033822-14.097789zm40.929095 31.178899c-109.580388 0-198.412844 96.567867-198.412844 215.690367s88.832456 215.690367 198.412844 215.690367c50.396965 0 96.405411-20.425643 131.402213-54.077068 34.804542-33.664382 58.650023-80.452039 64.986063-133.23053.007128-.051047.01327-.102387.019396-.153731l-.019396.153731c.137505-1.145402.266764-2.293625.387709-3.444597l-.368313 3.290866c.139288-1.167467.270014-2.337861.392108-3.511104l-.023795.220238c.121614-1.157341.234822-2.317462.339557-3.480287l-.315762 3.260049c.120395-1.156912.232396-2.316595.335935-3.478975l-.020173.218926c.102488-1.137885.196862-2.278359.283057-3.421355l-.262884 3.202429c.106784-1.19881.204568-2.400487.293276-3.604953l-.030392.402524c.089399-1.185471.170001-2.373653.241734-3.56447l-.211342 3.161946c.085336-1.158657.162273-2.319895.230746-3.483639l-.019404.321693c.07084-1.17599.133031-2.354549.186505-3.535602l-.167101 3.213909c.070372-1.196004.131803-2.394657.184223-3.595879l-.017122.38197c.0537-1.186045.098608-2.374606.134656-3.565607l-.117534 3.183637c.050955-1.16765.093394-2.337728.127253-3.510162l-.009719.326525c.035924-1.186925.063049-2.376273.081304-3.56797l-.071585 3.241445c.034372-1.190249.059901-2.382926.076517-3.577956l-.004932.336511c.018713-1.221608.028107-2.445684.028107-3.672147l-.023648-3.369486c-.001699-.12094-.003489-.241856-.00537-.362748-.016156-1.036551-.039005-2.071301-.068517-3.104224l.068517 3.104224c-.018638-1.197768-.04623-2.393161-.082706-3.586104l.014189.48188c-.034868-1.220346-.079039-2.438143-.132437-3.653307l.118248 3.171427c-.035884-1.173534-.080364-2.344696-.133376-3.513415l.015128.341988c-.052032-1.184076-.112826-2.365653-.182312-3.544656l.167184 3.202668c-.054022-1.190983-.116903-2.379428-.188574-3.565259l.02139.362591c-.07063-1.198396-.15024-2.394134-.238759-3.587133l.217369 3.224542c-.070539-1.167119-.149592-2.331706-.237092-3.493688l.019723.269146c-6.326118-85.259209-58.151988-156.534255-129.027617-185.04328-21.320386-8.510521-44.357239-13.156267-68.392245-13.156267zm-114.539291 14.939238-.169845.07762c-73.358577 31.726566-125.219959 109.675024-125.219959 200.804243 0 91.656971 52.463807 169.980074 126.496631 201.350796-63.037706-41.414938-104.98038-116.294625-104.98038-201.48153 0-84.688043 41.452872-159.189233 103.873553-200.751129z"/></svg>