<svg height="960" viewBox="0 0 960 960" width="960" xmlns="http://www.w3.org/2000/svg"><path d="m314.696753 6.64881347c2.303785-.60155216 4.696478-.7868936 7.06542-.54729773l523.439424 52.94089976c10.214276 1.0330764 17.987459 9.6320987 17.987459 19.8984842v808.2307543c0 10.355069-7.903985 18.997734-18.217862 19.920442l-523.439425 46.828345c-2.746038.245669-5.513213-.079066-8.127768-.953813l-202.749632-67.83358c-8.156058-2.728758-13.654369-10.366197-13.654369-18.966628v-787.2255203c0-9.0996298 6.14269-17.0522204 14.947122-19.3511865zm15.052247 40.46418593v865.9119996l493.44-44.143999v-771.861zm-20 2.168-172.749 45.1080006v757.379l172.749 57.796999z"/></svg>