<svg height="960" viewBox="0 0 960 960" width="960" xmlns="http://www.w3.org/2000/svg"><path d="m243.488557 138.803332c1.81474-.422785 3.679659-.589892 5.540654-.496471l685.237697 34.398326c10.642548.534247 18.997281 9.3189 18.997281 19.974848v580.014254c0 10.721426-8.454237 19.535719-19.166346 19.982618l-685.237697 28.58742c-2.215054.092409-4.430059-.184111-6.55441-.818252l-216.0264916-64.486073c-8.4728372-2.529227-14.2792444-10.322085-14.2792444-19.164367v-528.185597c0-9.29748 6.4070743-17.368808 15.4620651-19.478376zm14.163443 39.986376.365 602.057 655.247-27.335708v-541.811zm-19.998 2.444-185.655 43.252292v497.407l186.016 55.526708z"/></svg>