<svg height="960" viewBox="0 0 960 960" width="960" xmlns="http://www.w3.org/2000/svg"><path d="m298.681715 56.5216236c2.145455-.499833 4.358749-.6417802 6.550477-.4201079l624.743531 63.1868433c10.214275 1.033076 17.987458 9.632098 17.987458 19.898484v688.203573c0 10.355069-7.903985 18.997733-18.217862 19.920441l-624.743531 55.891293c-2.526281.226008-5.072496-.030577-7.502893-.756075l-271.2196506-80.961785c-8.4728372-2.529226-14.2792444-10.322084-14.2792444-19.164366v-663.133081c0-9.29748 6.4070743-17.368809 15.4620651-19.478377zm14.065285 40.5433761.464 765.2430003 594.752-53.209v-651.833zm-19.999 1.91-240.748 56.0880003v632.355l241.209 72.003z"/></svg>