<svg height="960" viewBox="0 0 960 960" width="960" xmlns="http://www.w3.org/2000/svg"><path d="m555.31679 63.7072611 3.948962.4174754c2.138256.2447073 4.259428.5180587 6.358861.8275178 2.514108.0470544 5.048965.3630146 7.571833.9310291l232.986745 52.4561256 1.137197.196545.380006.067568c61.469697 11.235923 106.011485 49.62222 129.520559 106.288252 19.846817 47.838562 23.792839 106.811696 13.082016 166.231307-10.532703 58.431464-16.870985 92.830543-23.35558 125.774666l-.405517 2.057318-.406133 2.054753-.484623 2.44449c-1.132504 5.703204-2.278114 11.407787-3.459544 17.23189-10.971833 54.087891-22.094376 102.503185-34.736873 150.123256-31.846321 119.954475-139.929478 215.396786-246.274096 206.167792-13.576598-1.17823-26.558978-3.584016-38.851622-7.289847-5.638747-.326898-11.286567-1.905082-16.564248-4.797141-53.3021-29.208434-114.231661-65.041868-182.830235-107.515392-19.394476-12.008293-36.84314-24.853259-52.348671-38.453455-33.757553 31.632816-75.654185 50.123839-120.580607 51.04276l-.417692.006362-2.208234.0221c-.130564.001306-.261133.001974-.391704.002002l-24.98759.005365h-.5c-112.9116566 0-200.77939305-109.169806-202.4749265-241.095907-.00110171-.085722-.00192784-.171447-.00247837-.257175l-.02259513-3.39005v-.256868c0-133.536297 88.3553741-245 202.5-245l25.652663.000291c23.15597.088378 45.639289 4.854266 66.698583 13.827182.3856-2.639223.764943-5.296403 1.14258-7.993975l.400113-2.875266.011047-.079857.014607-.105624c.00463-.033494.009972-.072144.018875-.13656.261989-1.895903.532193-3.871422.824405-6.025314.210651-1.5527.706492-5.239033 1.217984-9.043481l.13361-.993818c.534443-3.97539 1.060406-7.888555 1.271636-9.449484 1.117854-8.260602 2.110724-15.426172 3.200908-23.040566 6.314921-44.106579 38.648062-93.930189 83.453391-131.482512 49.898893-41.8213492 110.029078-64.6938446 169.776388-58.8937549zm141.566064 167.2407279c-31.347881 31.757139-55.676344 76.200056-64.906573 115.951821-8.653004 37.265826-10.341015 44.528037-11.959772 51.64315l-.131235.577168c-.525422 2.312099-1.063163 4.693603-1.848467 8.163051-.455552 2.012618-.903833 4.000225-1.347215 5.97352-9.56607 42.574296-19.217925 89.131096-42.390329 204.646286-16.05004 80.009973-12.873086 138.700231 6.521882 176.567332 16.441242 32.100191 44.806253 49.286508 84.460531 52.727859 33.881951 2.940406 69.761923-10.792275 101.195252-35.499321 38.174311-32.670239 68.670492-79.751313 82.31704-131.153312 26.622714-100.278888 43.852205-195.045543 62.143435-296.518396.345792-1.918321.674828-3.839104.986921-5.761685.022466-.138395.044836-.276754.067119-.415122.128884-.80032.254836-1.600982.377837-2.401898l-.377837 2.401898c.183417-1.138953.360885-2.27852.532365-3.418563.064538-.429071.128192-.857958.190996-1.286904l-.190996 1.286904c.139646-.928405.275321-1.857126.407004-2.786087.233364-1.646267.45422-3.293527.662417-4.941126.036723-.290606.073102-.581629.109085-.87266l-.109085.87266c.106394-.841965.209483-1.684018.30925-2.526105l-.200165 1.653445c.128601-1.040113.252149-2.080331.370615-3.120552l-.17045 1.467107c.108128-.912663.212356-1.825366.312662-2.738037l-.142212 1.27093c.135478-1.189585.264309-2.379173.38645-3.568606.031407-.305858.062327-.611249.092805-.916627l-.092805.916627c.085957-.837071.168601-1.674065.247917-2.510928l-.155112 1.594301c.100118-1.003148.195468-2.006158.286025-3.008936l-.130913 1.414635c.095706-1.009807.186566-2.019424.272552-3.028754l-.141639 1.614119c.091176-1.009636.177493-2.019037.258923-3.028106l-.117284 1.413987c.088714-1.041346.172239-2.082387.250548-3.123018l-.133264 1.709031c.078738-.975702.152906-1.951094.222482-2.926089l-.089218 1.217058c.074646-.991965.144552-1.983557.209691-2.974686l-.120473 1.757628c.093611-1.31182.178908-2.622923.25583-3.933098l-.135357 2.17547c.063864-.971729.123146-1.943013.177823-2.913764l-.042466.738294c.051178-.871674.098649-1.742938.142395-2.613729l-.099929 1.875435c.061358-1.089375.116915-2.17808.166638-3.265994l-.066709 1.390559c.043664-.869139.083617-1.737808.119843-2.605943l-.053134 1.215384c.044243-.968019.083867-1.935411.118848-2.902092l-.065714 1.686708c.045654-1.094067.085388-2.187288.119167-3.279539l-.053453 1.592831c.035747-.987876.066646-1.975009.092669-2.961308l-.039216 1.368477c.029868-.965808.05508-1.930857.075613-2.895062l-.036397 1.526585c.027914-1.057956.050219-2.114952.066883-3.170876l.002331-.242965c-.484667-28.251707-5.427302-54.548288-14.810526-76.667975-16.539529-38.989714-45.759964-63.362929-87.867874-70.205263-41.086804-6.676408-81.322964 10.132504-116.504025 45.772866zm-102.414201 102.65441c-18.961282 81.660417-22.594484 96.071609-57.798269 271.563624-28.857675 143.856453 3.832778 216.112627 64.358205 241.637127-15.875194-10.499544-28.6356-24.915856-38.008383-43.215456-22.24488-43.431322-24.872066-107.157055-8.330289-189.618353 23.100684-115.157663 32.834109-162.140058 42.486191-205.09715.44443-1.977962.894973-3.975643 1.354153-6.004287 1.637587-7.234805 2.197226-9.707811 2.743463-12.091168l.076239-.332449c.28001-1.220296.569473-2.474008 1.010958-4.386855.097034-.420427.191871-.831224.287021-1.243217l.122706-.531217.082582-.357401c.048716-.210809.097965-.423876.148066-.640577l.075831-.327949c1.199271-5.185953 2.957235-12.758731 9.417441-40.580851 10.214871-43.992313 36.686079-91.572754 70.154733-125.478354 40.047292-40.570124 86.599916-59.157227 133.945407-51.463812l8.92007 1.715264c4.602822 1.026745 9.076463 2.251268 13.418389 3.670454l-.166017-.087386c-.396773-.204024-.795215-.406227-1.195329-.606598l1.194946.606401c-.822435-.422899-1.652041-.837976-2.488843-1.24513l1.293897.638729c-.768188-.384698-1.542539-.762644-2.323074-1.133756l1.029177.495027c-.828013-.402877-1.663073-.797996-2.505208-1.18526l1.476031.690233c-.828258-.393802-1.66348-.779909-2.505694-1.158227l1.029663.467994c-.839615-.386105-1.686263-.764401-2.539971-1.134791l1.510308.666797c-.828518-.372166-1.663802-.736792-2.505878-1.093789l.99557.426992c-.85091-.369177-1.708835-.7305-2.5738-1.083873l1.57823.656881c-.929452-.39404-1.867179-.778784-2.813216-1.15411l1.234986.497229c-.854697-.349177-1.716269-.690593-2.584741-1.024153l1.349755.526924c-.875946-.347518-1.759016-.686962-2.649236-1.018234l1.299481.49131c-.894183-.343435-1.795682-.678544-2.704524-1.005223l1.405043.513913c-.923283-.343575-1.854258-.678359-2.792956-1.004245l1.387913.490332c-.879228-.316035-1.765329-.624182-2.658329-.92435l1.270416.434018c-.936277-.325045-1.880237-.641236-2.83191-.948466l1.561494.514448c-.920813-.309516-1.848961-.610548-2.784472-.902995l1.222978.388547c-.890458-.287468-1.787668-.567091-2.691657-.838779l1.468679.450232c-.919842-.287548-1.846803-.566797-2.780909-.837651l1.31223.387419c-1.017875-.305916-2.044343-.601774-3.07944-.887446l1.76721.500027c-.937422-.271816-1.88204-.535176-2.833882-.789985l1.066672.289958c-.814591-.224816-1.634526-.443324-2.459822-.655462l1.39315.365504c-.966631-.258768-1.940712-.508717-2.922272-.749746l1.529122.384242c-2.19779-.564931-4.4336-1.084691-6.707757-1.558118-.230969-.048082-.462293-.095679-.694014-.142796l.694014.142796c-2.222237-.462619-4.48109-.880997-6.776864-1.254049-103.202632-16.769932-184.004382 94.520875-202.965664 176.181292zm-58.497782-230.77885-3.078541.050385c-96.35359 2.541957-182.377972 95.197726-191.209098 156.878748-.2723 1.901878-.53546 3.755179-.790516 5.564633-.245881 1.744369-.48415 3.44741-.715821 5.113962-.171374 1.232789-.339341 2.447101-.504066 3.643116-.216879 1.574704-.427854 3.115612-.634079 4.628798-.154418 1.133046-.306438 2.252507-.456147 3.358019-.154967 1.144349-.307186 2.271727-.457336 3.386033-.305702 2.268698-.60297 4.484269-.895024 6.660978-.098717.735742-.196837 1.467045-.294493 2.194502-.094084.700856-.18788 1.399212-.281359 2.094521-.014203.105637-.028376.211045-.042543.316384l.042543-.316384c-.123157.916048-.245764 1.826807-.368088 2.733496-.089696.664836-.179155 1.326855-.268567 1.98717-.151253 1.117007-.302384 2.229221-.453892 3.33888-.097091.711103-.194313 1.420984-.291824 2.130428l-.135168.981775c-.040054.290427-.080167.580828-.120348.871245l-.404413 2.906249-.100083.713816c-.086815.618211-.174108 1.237277-.261966 1.8576l-.087009.613424c-.103746.730348-.208313 1.462616-.313846 2.197456-.110001.765959-.220932 1.533895-.333071 2.305356l-.164856 1.130646c-.027491.187971-.055058.376171-.082703.56461l-.010504.071619c-.034694.236402-.069512.473183-.104456.710361-.063035.427863-.12648.856965-.190367 1.287485-.071638.482705-.143824.967191-.216604 1.453632-.142203.950532-.286816 1.909435-.433977 2.877096l-.097045.636708c-.096702.63354-.194514 1.270922-.293513 1.912502-.184275 1.194635-.372575 2.402898-.565485 3.627983-.063579.403496-.127559.808445-.192057 1.215297-.016099.101833-.032231.203513-.048395.305312-.120705.759409-.24333 1.526859-.367887 2.301532-.329115 2.047994-.671781 4.145933-1.030077 6.304105l-.256916 1.541782-.067945.405111c-.066048.394131-.13262.790299-.19973 1.188559l-.033704.200749c-1.118438 6.631621-2.385798 13.844046-3.858989 21.897184l-.031409.169185c-.125795.687244-.253087 1.380606-.381913 2.080248-.547323 2.975424-1.122705 6.063596-1.728501 9.277631-4.488687 23.798743-10.646906 54.511097-19.575771 97.153212-8.02259 38.313965-9.79523 70.273041-6.442527 96.610929-.283305 1.453973-.367436 2.605188-.252394 3.453644 2.517036 18.563491 13.196059 59.401584 51.860254 103.504289l1.619947 1.831263c.070162.078606.140413.157223.210754.235849 1.102792 1.232688 2.227977 2.468101 3.375614 3.705411.052748.056869.105055.113216.157408.169568l-.157408-.169568c1.791539 1.931524 3.637792 3.867672 5.540399 5.806873.101632.103586.202858.206606.304245.309634l-.304245-.309634c1.960984 1.998701 3.981831 4.000646 6.064336 6.004115.046617.044848.092878.089325.13917.133803l-.13917-.133803c.668449.64308 1.34325 1.286317 2.024463 1.929655l-1.885293-1.795852c.67246.646108 1.351336 1.292371 2.036689 1.938731l-.151396-.142879c.679086.641327 1.364543 1.282754 2.05643 1.924225l-1.905034-1.781346c.731738.690107 1.470859 1.380324 2.217435 2.070581l-.312401-.289235c4.284032 3.971858 8.8146 7.945373 13.605647 11.907174.041044.03394.082316.068052.123608.102164l-.123608-.102164c.780034.645024 1.566973 1.289738 2.360876 1.934083l-2.237268-1.831919c.797146.658524 1.601492 1.316722 2.413103 1.974531 1.564865 1.268317 3.156454 2.53497 4.775499 3.799739.05313.041504.106068.082833.159036.124161l-.159036-.124161c.809785.63259 1.626439 1.264708 2.450018 1.896301l-2.290982-1.77214c.820506.640191 1.648052 1.279896 2.482697 1.919058l2.347462 1.782057c.103579.077949.207264.15589.311056.233821l-.311497-.234153c2.599597 1.956369 5.266446 3.907133 8.002265 5.850646.099486.070675.198874.141206.298354.211727l-.298354-.211727c.952198.676438 1.912752 1.351997 2.881733 2.026609l-2.583379-1.814882c.90027.638204 1.807987 1.27562 2.723214 1.912189l-.139835-.097307c1.829393 1.273638 3.688824 2.543898 5.578778 3.810313.083212.055758.166835.111745.250518.167724l-.250518-.167724c.981392.657608 1.971015 1.31418 2.968936 1.969649l-2.718418-1.801925c.936895.626729 1.881275 1.25251 2.833198 1.877288l-.11478-.075363c.940887.618008 1.889151 1.235036 2.84485 1.85103l-2.73007-1.775667c.966644.634439 1.941066 1.267843 2.923329 1.900152l-.193259-.124485c2.022426 1.303551 4.078144 2.60247 6.167696 3.896238 37.282082 23.083591 72.251611 44.172807 104.908586 63.267646-.609682-1.114058-1.205936-2.24266-1.790729-3.384421-24.038051-46.932343-27.676134-114.141377-10.048276-202.016824 23.228581-115.795235 32.9266-162.57471 42.577259-205.525472.447926-1.993517.900715-4.001114 1.360745-6.033515.758227-3.349821 1.287522-5.693565 1.795707-7.931062l.132228-.581876c1.650281-7.258119 3.268266-14.218502 12.059964-52.081645 10.851849-46.735581 38.705055-97.617453 75.140485-134.528561 24.705632-25.028173 52.291773-42.884483 81.597682-51.974479l-167.314587-37.669319-.180685.300702c-4.131544-.696697-8.390232-1.261102-12.777956-1.687049-4.144672-.402352-8.278368-.627533-12.395937-.684873zm194.077008 531.549133c35.88493 8.284689 56.633134 48.092108 47.32462 88.41171-9.308513 40.319602-45.407299 67.002859-81.292229 58.71817-35.884929-8.284688-56.633133-48.092107-47.324619-88.411709 9.308513-40.319602 45.407299-67.002859 81.292228-58.718171zm-61.804827 63.217192c-6.966538 30.175392 7.950639 58.795428 32.336239 64.425287 24.385601 5.629859 50.339269-13.554398 57.305807-43.72979s-7.950639-58.795428-32.33624-64.425287c-24.3856-5.62986-50.339268 13.554398-57.305806 43.72979zm-441.743052-357.589874c-89.746272 0-162.5 91.781626-162.5 205 0 112.985785 72.455114 204.622809 161.947109 204.998839l1.031891-.004203 2.000712-.01802c.589086-.011117 1.177413-.026188 1.764963-.045194.199547-.006454.399411-.013377.599184-.020755l-.599184.020755c.484525-.015673.968521-.034021 1.451982-.055034l-.852798.034279c.436192-.016109.871953-.034386 1.307276-.054824l-.454478.020545c.495815-.02155.991067-.045902 1.485745-.073044l-1.031267.052499c.469743-.022054.938976-.046623 1.407691-.073697l-.376424.021198c.44532-.024434.890175-.051129 1.334558-.080076l-.958134.058878c.552407-.031909 1.104095-.067297 1.65505-.106147l-.696916.047269c.48535-.031616.970138-.065918 1.454354-.102895l-.757438.055626c.447593-.031562.894702-.065409 1.341321-.101533l-.583883.045907c.475121-.036283.949691-.075142 1.423702-.116564l-.839819.070657c.501642-.040573 1.002664-.084018 1.503057-.130322l-.663238.059665c.44908-.039245.897657-.080791 1.345724-.124629l-.682486.064964c.526246-.048696 1.051796-.100554 1.576637-.155558l-.894151.090594c.460189-.045025.919841-.092468 1.378947-.142319l-.484796.051725c.469272-.049181.937978-.100877 1.406109-.155078l-.921313.103353c.482733-.052416.964862-.107496 1.446379-.165225l-.525066.061872c.405785-.046982.811139-.095847 1.216055-.146586l-.690989.084714c.496643-.059544.992634-.121907 1.487963-.187077l-.796974.102363c.491706-.061615.982766-.125995 1.473172-.193128l-.676198.090765c.434023-.057105.867537-.116364 1.300537-.17777l-.624339.087005c.475951-.065154.951286-.132901 1.425995-.203229l-.801656.116224c.492105-.069789.983546-.14235 1.474311-.217671l-.672655.101447c.436039-.064599.87155-.131376 1.306526-.200322l-.633871.098875c.483988-.07428.96732-.151246 1.449985-.230883l-.816114.132008c.446295-.070741.892028-.143764 1.337189-.219062l-.521075.087054c.445283-.073469.89-.149213 1.334141-.227221l-.813066.140167c.505465-.085497 1.010194-.173926 1.514176-.265273l-.70111.125106c.447095-.078527.893607-.159349 1.339529-.242456l-.638419.11735c.483816-.087692.966944-.178072 1.449373-.271129l-.810954.153779c.457337-.085235.914054-.172873 1.370142-.262905l-.559188.109126c.420621-.081134.840711-.164303 1.260264-.249499l-.701076.140373c.497552-.098216.994356-.199281 1.4904-.30318l-.789324.162807c.464294-.09428.92793-.191042 1.3909-.290275l-.601576.127468c.445523-.093317.890434-.188921 1.334724-.286801l-.733148.159333c.455478-.097626.91031-.197644 1.364488-.300043l-.63134.14071c.452385-.099663.904127-.201687 1.355217-.306061l-.723877.165351c.489445-.110349.97813-.223463 1.466045-.339328l-.742168.173977c.433169-.100227.865737-.202621 1.297698-.307173l-.55553.133196c.434596-.103204.868582-.20859 1.301949-.31615l-.746419.182954c.49943-.120882.998047-.244649 1.495841-.371285l-.749422.188331c.443286-.110022.885926-.222318 1.32791-.336878l-.578488.148547c.433652-.11032.866679-.222817 1.299074-.337483l-.720586.188936c.470669-.121995.940596-.246557 1.40977-.373674l-.689184.184738c.455875-.120893.911046-.244197 1.365505-.3699l-.676321.185162c.438909-.118918.87716-.240072 1.314745-.363452l-.638424.17829c.471008-.13028.941251-.263138 1.410719-.398562l-.772295.220272c.454828-.128243.908938-.25889 1.362318-.391932l-.590023.17166c.421944-.121714.843261-.2455 1.263945-.371349l-.673922.199689c.460857-.135236.920961-.272946 1.380303-.413117l-.706381.213428c.439508-.131481.878324-.265213 1.316441-.401187l-.61006.187759c.460439-.140507.920113-.283487 1.379011-.428929l-.768951.24117c.436602-.135504.87251-.273234 1.307716-.41318l-.538765.17201c.43195-.136902.863213-.275985 1.293781-.417239l-.755016.245229c.443086-.14248.885444-.287258 1.327066-.434321l-.57205.189092c.465198-.152615.929586-.307765 1.393152-.465438l-.821102.276346c.434482-.144686.86825-.291585 1.301298-.440687l-.480196.164341c.419348-.142632.838024-.287329 1.256022-.43408l-.775826.269739c.490457-.168869.979991-.340564 1.468588-.51507l-.692762.245331c.437578-.153626.874412-.309505 1.310495-.467625l-.617733.222294c.433175-.154712.865615-.311633 1.297311-.470753l-.679578.248459c.440709-.159797.88065-.321884 1.319814-.48625l-.640236.237791c.45759-.168665.914345-.339802 1.370253-.513397l-.730017.275606c.441537-.165254.88229-.332811 1.322248-.50266l-.592231.227054c.421911-.160649.843097-.323405 1.263552-.488256l-.671321.261202c.439043-.169496.877296-.341275 1.314749-.515326l-.643428.254124c.457183-.179252.9135-.360982 1.368942-.545178l-.725514.291054c.447146-.177907.893458-.358188 1.338925-.54083l-.613411.249776c.396632-.160411.792599-.322692 1.187896-.486835l-.574485.237059c.427211-.175158.853645-.352488 1.279294-.531979l-.704809.29492c.466302-.193627.931671-.389845 1.396096-.588639l-.691287.293719c.418643-.176538.836527-.355166 1.253644-.535876l-.562357.242157c.447505-.191553.894134-.385498 1.339878-.581824l-.777521.339667c.431348-.186875.861876-.375977 1.291574-.567293l-.514053.227626c.519879-.228979 1.038554-.461197 1.556008-.696634l-1.041955.469008c.419104-.186599.837419-.375305 1.254938-.566109l-.212983.097101c.390537-.177691.780378-.357215 1.169518-.538565l-.956535.441464c.437487-.199928.874099-.402159 1.309827-.606681l-.353292.165217c.350174-.163191.699779-.32786 1.048812-.494001l-.69552.328784c.436172-.20473.871458-.411755 1.305849-.621064l-.610329.29228c1.369524-.651899 2.730232-1.326467 4.081835-2.023341.795656-.41021 1.588009-.828093 2.37715-1.253629.483846-.260932.96679-.524886 1.448511-.791703.667132-.369491 1.331519-.744269 1.993527-1.124487.45444-.261032.907369-.524371 1.359167-.790254.40742-.239739.813966-.481601 1.219584-.725522.593429-.356893 1.184879-.718168 1.774317-1.083816.276161-.171284.551155-.343102.825706-.515871l-.825706.515871c.399335-.247721.797745-.497449 1.195223-.749174l-.369517.233303c.834908-.525389 1.665727-1.059577 2.49238-1.602469.0951-.062487.190595-.125355.286034-.188338l-.286034.188338c.333262-.218865.665847-.439144.99775-.660831l-.711716.472493c.410814-.27111.820595-.544371 1.229333-.819772l-.517617.347279c.336402-.224693.672103-.450832 1.007098-.678411l-.489481.331132c.413207-.278413.825349-.559012 1.236415-.841786l-.746934.510654c.398361-.270627.795724-.54329 1.19208-.817978l-.445146.307324c.39316-.270456.785337-.542902 1.176522-.817327l-.731376.510003c.398267-.276013.795518-.55407 1.191742-.834162l-.460366.324159c.367679-.257935.734481-.517617 1.100399-.779039l-.640033.45488c.424107-.2998.847038-.601931 1.268783-.906378l-.62875.451498c.397429-.283934.793816-.569919 1.189151-.857944l-.560401.406446c.428396-.309248.855569-.620885 1.281507-.934899l-.721106.528453c.364933-.265876.72897-.53349 1.092104-.802833l-.370998.27438c.353599-.260683.706348-.523004 1.058238-.786953l-.68724.512573c.423732-.31429.846235-.630935 1.267497-.94992l-.580257.437347c.349819-.262396.698791-.526401 1.046908-.792008l-.466651.354661c.373753-.283012.74653-.567865 1.118322-.854551l-.651671.49989c.38696-.295242.772864-.592464 1.157704-.891654l-.506033.391764c.397441-.306464.793758-.615023 1.188939-.925663l-.682906.533899c.423325-.329109.845363-.660599 1.266102-.994456l-.583196.460557c.381926-.30022.762791-.602385 1.142588-.906483l-.559392.445926c.364864-.28952.728751-.58082 1.091653-.87389l-.532261.427964c.379397-.303778.757727-.609485 1.134983-.917111l-.602722.489147c.328434-.265234.656061-.531918.982877-.800044l-.380155.310897c.388607-.316882.776073-.6358 1.162388-.956742l-.782233.645845c.394644-.323774.788103-.649653 1.180369-.977622l-.398136.331777c.333941-.277429.667022-.556371.999237-.836817l-.601101.50504c.401365-.335576.80148-.673342 1.200334-1.013284l-.599233.508244c.380861-.321512.760585-.645002 1.139162-.970457l-.539929.462213c.38112-.324827.761089-.651641 1.139897-.980429l-.599968.518216c.371016-.318954.74093-.639797 1.109733-.962517l-.509765.444301c.346838-.30104.692703-.603736 1.037588-.908077l-.527823.463776c.372723-.326149.744312-.654215 1.114757-.984187l-.586934.520411c.388032-.342417.774823-.686917 1.160363-1.033489l-.573429.513078c.355737-.31687.71042-.635498 1.064042-.955874l-.490613.442796c.351932-.31636.702821-.634446 1.05266-.954248l-.562047.511452c.353792-.32053.706521-.642809 1.058179-.966828l-.496132.455376c.381993-.349195.762734-.700436 1.142213-1.053711l-.646081.598335c.402428-.370797.803453-.743872 1.203063-1.11921l-.556982.520875c.347768-.323754.694476-.649215 1.040117-.976375l-.483135.4555c.328862-.308886.656767-.619305.983706-.931248l-.500571.475748c.363278-.343854.725376-.689583 1.086286-1.037176l-.585715.561428c.375258-.358045.749246-.718097 1.121952-1.080144l-.536237.518716c.317378-.305669.633837-.612778.949371-.921322l-.413134.402606c.377692-.36689.754068-.735828 1.129119-1.106802l-.715985.704196c.339034-.331523.677-.664702 1.01389-.999526l-.297905.29533c.334132-.330501.667213-.662618.999234-.99634l-.701329.70101c.374032-.371739.746738-.745507 1.118108-1.121291l-.416779.420281c.345371-.347142.689596-.696022 1.032666-1.046629l-.615887.626348c.345086-.349187.689018-.700116 1.031788-1.052773l-.415901.426425c.333986-.341324.666878-.684285.998667-1.028874l-.582766.602449c.35299-.363173.704747-.728181 1.055261-1.095011l-.472495.492562c.380909-.395603.760365-.793351 1.138356-1.19323l-.665861.700668c.319625-.334502.638216-.670519.955768-1.008044l-.289907.307376c.319375-.337867.637704-.677256.954981-1.018157l-.665074.710781c.381521-.405517.761541-.813209 1.140048-1.223062l-.474974.512281c.276879-.297494.552956-.59614.828227-.895932l-.353253.383651c.344291-.372803.68733-.747393 1.029109-1.123759l-.675856.740108c.362665-.394971.723931-.79193 1.083787-1.190865l-.407931.450757c.331957-.36555.662724-.732775.992293-1.101664l-.584362.650907c.346512-.384143.691718-.770116 1.035606-1.15791l-.451244.507003c.331126-.370633.661044-.742946.989744-1.116929l-.5385.609926c.355185-.400532.708966-.803005 1.061331-1.207406l.077719-.092784c-8.952685-9.990573-16.92653-20.262472-23.958273-30.767639-12.3186 5.373103-25.456373 8.173119-38.927275 8.173119-61.711287 0-111-58.316843-111-129.5s49.288713-129.5 111-129.5c7.616759 0 15.134149.895005 22.465791 2.650162 4.07493-20.218352 7.328278-37.026987 10.033876-51.838318-.326241-.22802-.652008-.45523-.978457-.681067-.263357-.182317-.527686-.363976-.792458-.544735l.792458.544735c-.308627-.213507-.617863-.425787-.927704-.636835l.135246.0921c-.200423-.136829-.4011-.273142-.60203-.408937l.466784.316837c-.598822-.407886-1.199905-.811168-1.803218-1.209808-.212839-.140775-.426128-.280945-.639693-.420535l.639693.420535c-.626762-.414135-1.255932-.82326-1.887476-1.227334-.056069-.036025-.111661-.071542-.16727-.107021l.16727.107021c-.261946-.167598-.5243-.334327-.78706-.500184l.61979.393163c-.719438-.458993-1.441948-.911436-2.167481-1.357264-.09786-.059968-.195576-.119859-.293346-.179629l.293346.179629c-.279557-.171783-.559562-.342584-.840013-.5124l.546667.332771c-.31637-.193408-.633313-.38556-.950824-.57645l.404157.243679c-.243704-.147564-.487745-.294385-.732121-.44046l.327964.196781c-.90979-.546975-1.824247-1.083592-2.743273-1.609732-.136029-.078067-.272216-.155748-.408502-.233198l.408502.233198c-.303277-.173625-.607052-.346109-.91132-.517447l.502818.284249c-.281607-.160034-.56364-.319085-.846096-.47715l.343278.192901c-1.543997-.86945-3.100721-1.709406-4.66972-2.519301-.154325-.079892-.308843-.1593-.463479-.238417l.463479.238417c-.653575-.337366-1.309281-.669516-1.967084-.996409-.090409-.045174-.180968-.090059-.271567-.134844l.271567.134844c-.327652-.162826-.655825-.324347-.984514-.484559l.712947.349715c-.302845-.149702-.606132-.298291-.909859-.445762l.196912.096047c-.292329-.142489-.585066-.283942-.878208-.424356l.681296.328309c-.360491-.175033-.721602-.348492-1.083327-.520369l.402031.19206c-.636885-.305064-1.275685-.605223-1.916371-.90044-.145863-.067487-.291779-.134423-.437792-.201102l.437792.201102c-.335492-.154588-.671501-.307822-1.008023-.459695l.570231.258593c-.296202-.135265-.592804-.269475-.889804-.402625l.319573.144032c-.299503-.135167-.599412-.269255-.899724-.402263l.580151.258231c-.338191-.151618-.676898-.301862-1.016116-.450728l.435965.192497c-.345021-.152809-.690575-.30419-1.036656-.454139l.600691.261642c-.657573-.288577-1.317069-.571975-1.978456-.850154l.446517.189027c-.33158-.140818-.663637-.280324-.99617-.418512l.549653.229485c-.317359-.133482-.635154-.265761-.95338-.396836l.403727.167351c-.304209-.126418-.608816-.251734-.913817-.375943l.51009.208592c-.354774-.146127-.710085-.290756-1.065928-.43388l.555838.225288c-.344681-.140368-.689865-.279323-1.035548-.41686l.47971.191572c-.323171-.129984-.646781-.258726-.970826-.386224l.491116.194652c-.336993-.134079-.67446-.26681-1.012397-.398188l.521281.203536c-.259159-.101967-.518597-.203138-.778312-.30351l.257031.099974c-.335507-.130433-.671477-.259532-1.007907-.387293l.750876.287319c-.312316-.120701-.625032-.240246-.938146-.358633l.18727.071314c-.651531-.247421-1.304785-.489822-1.959736-.727167-.100934-.03695-.202614-.073662-.304335-.110253l.304335.110253c-.326853-.118447-.654129-.235635-.981824-.35156l.677489.241307c-.308731-.111056-.617838-.220988-.927316-.329794l.249827.088487c-.661409-.233978-1.324525-.462809-1.989318-.686455-.147262-.049942-.294249-.099111-.441318-.148027l.441318.148027c-.305086-.102635-.610525-.204179-.916315-.304627l.474997.1566c-.326217-.1085-.652834-.215753-.97985-.321754l.504853.165154c-.379536-.124673-.759612-.247659-1.140222-.368951l.635369.203797c-.279682-.090658-.559655-.1804-.839917-.269225l.204548.065428c-.312802-.099682-.625965-.19822-.939486-.295611l.734938.230183c-.351504-.111403-.703462-.221361-1.055871-.32987l.320933.099687c-.66847-.207649-1.338567-.41008-2.010264-.607256-.145311-.043109-.291001-.08561-.436767-.127862l.436767.127862c-.340234-.099875-.680878-.198402-1.021928-.295576l.585161.167714c-.312348-.09054-.62504-.179945-.938073-.26821l.352912.100496c-1.033939-.294595-2.071615-.576755-3.112923-.846349-.067295-.017921-.134662-.035306-.202044-.052639l.202044.052639c-.359032-.092953-.718497-.184413-1.078388-.274373l.876344.221734c-.320384-.082414-.641111-.163638-.962178-.243669l.085834.021935c-.330524-.082619-.661408-.163973-.992649-.244059l.906815.222124c-.360469-.089853-.721366-.178202-1.082687-.265042l.175872.042918c-.331279-.080095-.662916-.158921-.994907-.236474l.819035.193556c-.384221-.092343-.768921-.182979-1.154096-.271903l.335061.078347c-.332036-.077564-.664427-.153854-.997168-.228866l.662107.150519c-.348565-.080471-.697519-.15954-1.046858-.237201l.384751.086682c-.370419-.083506-.741274-.165429-1.112558-.245763l.727807.159081c-.280105-.062269-.560458-.123634-.841056-.184091l.113249.02501c-.351204-.075988-.702792-.150555-1.054762-.223695l.941513.198685c-.343052-.073913-.686471-.14647-1.030254-.217666l.088741.018981c-.687888-.142945-1.377232-.28044-2.068004-.412449-.055766-.011255-.111792-.021924-.167827-.032558l.167827.032558c-.310094-.05926-.620475-.117415-.931142-.17446l.763315.141902c-.378331-.071795-.75709-.141944-1.136272-.210442l.372957.06854c-.38775-.0712-.775943-.140673-1.164575-.208411l.791618.139871c-.298039-.053839-.59634-.106659-.894899-.158456l.103281.018585c-.335155-.058418-.670635-.115546-1.006439-.17138l.903158.152795c-.361945-.062793-.724271-.124082-1.086972-.183863l.183814.031068c-.712698-.118502-1.426852-.231176-2.14243-.337985-.03817-.006363-.076132-.012012-.114097-.017645l.114097.017645c-.317579-.047402-.635438-.093649-.953576-.138738l.839479.121093c-.390451-.057933-.781326-.114119-1.17262-.168552l.333141.047459c-.366282-.051911-.732933-.102287-1.099948-.151121l.766807.103662c-.346391-.048187-.693111-.095001-1.040154-.140437l.273347.036775c-.322973-.042975-.646228-.084755-.969762-.125339l.696415.088564c-.380337-.049794-.761064-.097934-1.142175-.144413l.44576.055849c-.375903-.047153-.752182-.092689-1.128834-.136604l.683074.080755c-.300453-.036642-.601146-.072252-.902075-.106827l.219001.026072c-.721125-.084078-1.443615-.162212-2.16744-.234362-.046295-.00537-.092951-.009996-.139613-.014597l.139613.014597c-.699476-.069724-1.400198-.13386-2.102138-.192373-.067844-.006442-.136482-.01211-.205132-.017725l.205132.017725c-.377493-.031467-.755338-.061309-1.133531-.089518l.928399.071793c-.340756-.027868-.681798-.054412-1.023123-.079627l.094724.007834c-.352442-.026289-.705185-.05116-1.058227-.074611l.963503.066777c-.354854-.026215-.710013-.050992-1.065475-.074329l.101972.007552c-1.081819-.071857-2.166443-.130367-3.25377-.175401-.018559-.001638-.037237-.002408-.055915-.003174l.055915.003174c-.331538-.013731-.663328-.02621-.995366-.037432l.939451.034258c-.387359-.015883-.77506-.030056-1.1631-.042514l.223649.008256c-.736208-.024882-1.473638-.043586-2.212257-.056074-.043641-.00166-.086968-.002371-.130298-.003062l.130298.003062c-.353925-.005984-.708124-.01054-1.062592-.013665l.932294.010603c-.365131-.005816-.730552-.010114-1.096259-.012888l.163965.002285c-.386159-.003404-.772637-.005109-1.159432-.005109zm-138.5621655 58.36851-1.3426864 1.6746c-29.4067161 37.097703-47.5951481 88.347703-47.5951481 144.95689l.0217704 3.39005c.7212248 56.117074 19.3163624 106.752801 48.9164577 143.241731-27.4692299-39.507751-43.9382281-90.845946-43.9382281-146.631781s16.4689982-107.12403 43.9378345-146.63149zm185.0621655 36.63149c-49.850232 0-91 48.687101-91 109.5s41.149768 109.5 91 109.5c9.746786 0 19.275073-1.846812 28.333913-5.425691-13.784241-24.603064-21.528135-48.297181-24.26417-68.475826-.304253-2.243906-.303243-4.40217-.06732-6.601868-3.295725-28.726785-.978157-62.121182 7.005424-100.248849 2.728856-13.032363 5.207174-24.972473 7.46733-35.987181-6.027431-1.497244-12.206662-2.260585-18.475177-2.260585zm534.962014-108.322931c45.027871 19.113197 59.212697 83.163135 33.97765 142.613181-25.235048 59.450046-81.162325 93.739162-126.190196 74.625965-45.02787-19.113197-59.212696-83.163136-33.977649-142.613181 25.235047-59.450046 81.162325-93.739162 126.190195-74.625965zm-107.780098 82.440587c-21.376639 50.360206-9.880597 102.269253 23.382175 116.388462 33.262771 14.119208 78.588837-13.670285 99.965476-64.03049 21.376638-50.360206 9.880596-102.269253-23.382175-116.388462-33.262772-14.119209-78.588837 13.670285-99.965476 64.03049zm15.740699 6.019977c7.984409-18.81009 25.172277-29.510337 38.390178-23.899671s17.460484 25.4076 9.476075 44.217689c-7.98441 18.81009-25.172278 29.510336-38.390178 23.899671-13.217901-5.610666-17.460484-25.4076-9.476075-44.217689zm72.918845-192.538397c21.436471.676564 38.439878 4.86516 51.010221 12.565788l-.009053.039691c10.989545 5.425458 17.67482 19.281213 15.561275 34.319869-2.453739 17.459262-15.867884 30.117082-30.356073 29.010806l-.024671.101168c.091864.125109-.440313.030788-1.596532-.282964-2.452597-.360609-4.772259-1.100239-6.926517-2.163821-7.522332-2.758006-20.628587-8.815749-31.729996-9.795605-10.948713-.966378-22.413531 1.327841-34.447481 5.022511-4.423168 2.213419-9.30942 3.144868-14.277876 2.446597-15.313479-2.152169-25.608969-18.971023-22.99562-37.565961 2.254261-16.039902 13.377257-28.161947 26.220075-29.80904 14.093595-3.190739 30.617857-4.487265 49.572248-3.889039z"/></svg>