<?xml version="1.0" encoding="UTF-8"?>
<svg width="1782px" height="1420px" viewBox="0 0 1782 1420" version="1.1" xmlns="http://www.w3.org/2000/svg" xmlns:xlink="http://www.w3.org/1999/xlink">
    <!-- Generator: Sketch 52.5 (67469) - http://www.bohemiancoding.com/sketch -->
    <title>air</title>
    <desc>Created with Sketch.</desc>
    <g id="air" stroke="none" stroke-width="1" fill="none" fill-rule="evenodd">
        <path d="M544.1284,92.4419 C592.2134,99.1129 721.9044,97.3969 891.8464,97.3969" id="Stroke-1" stroke="#000000" stroke-width="9"></path>
        <path d="M537,112.8584 C585.085,119.5294 721.904,117.8144 891.847,117.8144" id="Stroke-3" stroke="#000000" stroke-width="9"></path>
        <path d="M539.5576,153.6582 C539.5576,153.6582 706.3746,401.9542 706.3746,678.7812 C706.3746,955.6082 667.1306,1061.6272 586.6476,1203.9042" id="Stroke-5" stroke="#000000" stroke-width="9"></path>
        <path d="M589.9302,1245.4521 C589.9302,1245.4521 682.0432,1254.2831 891.8472,1254.2831" id="Stroke-7" stroke="#000000" stroke-width="9"></path>
        <path d="M889.2891,1394.1299 C1039.8431,1394.1299 1121.4961,1383.9229 1159.0221,1377.1759 C1174.3681,1374.4169 1185.7791,1361.4509 1186.5081,1345.8759 L1244.0991,114.5309 C1244.7351,100.9299 1237.0131,88.3909 1224.6761,82.6289 C1106.7261,27.5309 889.2891,25.0029 889.2891,25.0029 L891.8471,25.0029 C891.8471,25.0029 674.4101,27.5309 556.4591,82.6289 C544.1231,88.3909 536.4001,100.9299 537.0371,114.5309 L594.6271,1345.8759 C595.3561,1361.4509 606.7671,1374.4169 622.1131,1377.1759 C659.6391,1383.9229 741.2921,1394.1299 891.8471,1394.1299" id="Stroke-9" stroke="#000000" stroke-width="18"></path>
        <path d="M1237.0068,92.4419 C1188.9218,99.1129 1059.2318,97.3969 889.2888,97.3969" id="Stroke-11" stroke="#000000" stroke-width="9"></path>
        <path d="M1244.1357,112.8584 C1196.0497,119.5294 1059.2317,117.8144 889.2887,117.8144" id="Stroke-13" stroke="#000000" stroke-width="9"></path>
        <path d="M1241.5781,153.6582 C1241.5781,153.6582 1074.7611,401.9542 1074.7611,678.7812 C1074.7611,955.6082 1114.0051,1061.6272 1194.4881,1203.9042" id="Stroke-15" stroke="#000000" stroke-width="9"></path>
        <path d="M1191.2051,1245.4521 C1191.2051,1245.4521 1099.0921,1254.2831 889.2891,1254.2831" id="Stroke-17" stroke="#000000" stroke-width="9"></path>
        <path d="M948.4736,1050.3593 C946.1386,1043.1193 941.2616,1038.3593 935.0066,1035.8283 C939.1806,1027.9403 939.7756,1020.0043 937.3366,1012.4603 C933.8696,1001.7333 924.6366,996.6083 913.6686,996.2243 C903.6396,995.8733 897.7946,1001.1903 896.4466,1006.3463 C895.0996,1011.5053 899.2386,1009.5963 899.2386,1009.5963 C913.5736,1003.8643 915.2066,1017.3313 915.2066,1017.3313 C918.6716,1047.4133 845.6476,1080.6463 845.6476,1080.6463 L845.6476,1081.0263 C866.8136,1079.4993 903.4706,1066.1303 920.8856,1052.0893 C921.8196,1051.3383 922.7096,1050.5813 923.5666,1049.8223 C925.3966,1052.4223 925.7556,1055.3723 925.7556,1055.3723 C929.3116,1086.3383 854.3396,1120.5483 854.3396,1120.5483 L854.3396,1120.9403 C876.0706,1119.3683 913.7036,1105.6063 931.5816,1091.1543 C948.0156,1077.8693 952.7206,1063.5333 948.4736,1050.3593" id="Fill-19" fill="#000000"></path>
    </g>
</svg>