<?xml version="1.0" encoding="UTF-8"?>
<svg width="1782px" height="1420px" viewBox="0 0 1782 1420" version="1.1" xmlns="http://www.w3.org/2000/svg" xmlns:xlink="http://www.w3.org/1999/xlink">
    <!-- Generator: Sketch 52.5 (67469) - http://www.bohemiancoding.com/sketch -->
    <title>hub</title>
    <desc>Created with Sketch.</desc>
    <g id="hub" stroke="none" stroke-width="1" fill="none" fill-rule="evenodd">
        <path d="M762.457982,1036.43798 C760.019557,1028.89091 754.921548,1023.93116 748.383167,1021.29294 C752.746813,1013.07005 753.367761,1004.80193 750.821592,996.938156 C747.195143,985.757521 737.546353,980.416039 726.085756,980.017336 C715.603364,979.649738 709.495961,985.191985 708.086778,990.5674 C706.677595,995.942814 711.004382,993.954957 711.004382,993.954957 C725.986518,987.977247 727.69058,1002.01384 727.69058,1002.01384 C731.314193,1033.36712 655,1068.00334 655,1068.00334 L655,1068.39921 C677.115947,1066.80723 715.427571,1052.87244 733.627861,1038.24204 C734.603231,1037.45594 735.533235,1036.66985 736.426379,1035.8781 C738.340259,1038.58701 738.717364,1041.66353 738.717364,1041.66353 C742.434544,1073.93581 664.081715,1109.58999 664.081715,1109.58999 L664.081715,1110 C686.790256,1108.36277 726.122616,1094.01797 744.80492,1078.95493 C761.978803,1065.11062 766.895348,1050.16635 762.457982,1036.43798" id="Fill-1" fill="#000000"></path>
        <path d="M1152.99578,234.829714 L1152.99578,84.3825265 C1131.24659,97.3690264 1086.24225,110.991673 1024.69864,124.160914 C952.531509,139.603399 866.437052,152.208044 799.153676,157.113538 C734.301493,161.841679 694.107822,154.40691 673.104803,138.703225 C671.764838,137.701351 670.523498,136.678441 669.377253,135.638123 L623.388369,1305.53445 C630.699604,1309.39967 642.03359,1315.42284 647.699584,1317.94728 C666.915066,1326.50862 688.928111,1332.26071 717.850345,1334.93308 C754.39337,1338.3096 799.660143,1336.35966 855.734646,1328.01929 L855.922266,1327.9954 C856.029923,1327.98399 856.255969,1327.95891 856.59657,1327.91939 C857.173437,1327.85245 857.857217,1327.76952 858.644078,1327.6698 C860.903385,1327.38349 863.529162,1327.02075 866.490729,1326.57536 C874.970251,1325.30014 884.426225,1323.61986 894.612916,1321.48522 C923.709751,1315.38793 952.800611,1306.88234 979.911417,1295.58737 C985.872482,1293.10386 991.681316,1290.50552 997.324653,1287.79005 C1012.7113,1280.38594 1030.50677,1271.25043 1050.23582,1260.69061 C1055.1847,1258.04177 1060.23606,1255.31344 1065.37993,1252.51213 C1088.02567,1240.17941 1111.50594,1226.96253 1134.46085,1213.74528 C1142.49545,1209.11903 1149.89005,1204.82343 1156.4749,1200.96883 C1156.97534,1200.67589 1157.46323,1200.3901 1157.93835,1200.1116 C1157.98201,1193.68065 1158,1186.40234 1158,1177.99814 C1158,1173.18212 1157.92508,1168.11793 1157.78018,1162.83472 C1157.4141,1149.48678 1156.61906,1135.19461 1155.52336,1120.66116 C1155.14812,1115.68396 1154.75436,1110.90218 1154.35497,1106.38504 C1153.59014,1107.77387 1152.79216,1109.14718 1151.96189,1110.50675 C1150.13144,1113.50408 1148.23186,1116.3038 1145.97282,1119.41175 C1145.16758,1120.51958 1141.88915,1124.92347 1141.1787,1125.91834 C1137.07272,1131.66806 1107.79295,1147.06999 1065.69155,1166.67219 C1026.72075,1184.8168 989.513087,1200.45948 976.18731,1204.03987 C966.875028,1206.54191 949.892557,1198.48519 930.95684,1182.78476 C909.136399,1164.69248 886.586394,1138.16523 866.314789,1105.10758 C842.133566,1065.67438 822.111936,1018.60664 807.811716,964.54817 C791.341354,902.286013 782.84329,832.251976 783.53949,754.606626 C784.239343,676.553882 798.019056,603.766535 823.262507,536.445966 C845.349577,477.542998 875.815506,423.886877 912.800009,375.928153 C943.910385,335.586556 978.725271,300.491335 1014.36018,271.916958 C1043.10173,248.870126 1071.03516,231.307936 1090.62299,222.9696 C1109.55402,214.912814 1125.19325,214.530483 1137.58304,220.955098 C1143.74336,224.149475 1148.84233,228.87247 1152.99578,234.829714 Z M1152.99578,255.146899 C1152.54804,253.817839 1152.06656,252.506436 1151.5501,251.217522 C1147.37818,240.805816 1141.40899,233.07704 1133.44004,228.944815 C1123.63935,223.862752 1110.76775,224.177424 1094.14773,231.250675 C1075.38628,239.237229 1048.13325,256.37164 1019.99042,278.938386 C984.900931,307.075406 950.590222,341.662391 919.926928,381.424245 C883.474768,428.692667 853.452342,481.567697 831.689542,539.605883 C806.812056,605.950478 793.229459,677.69662 792.539128,754.68732 C791.850029,831.540713 800.25091,900.77384 816.512436,962.246547 C830.590283,1015.46439 850.267282,1061.72195 873.987118,1100.40276 C893.757022,1132.64226 915.665308,1158.41462 936.70135,1175.85651 C953.507212,1189.79099 968.341665,1196.82866 973.851999,1195.34813 C986.482075,1191.95466 1023.43184,1176.4204 1061.89277,1158.51319 C1100.76764,1140.41325 1131.20021,1124.40491 1133.85451,1120.68801 C1134.62822,1119.60456 1137.93789,1115.15871 1138.69276,1114.12017 C1140.8206,1111.19274 1142.59012,1108.58471 1144.28091,1105.81605 C1147.88594,1099.91283 1150.81763,1093.74245 1152.99578,1087.10446 L1152.99578,255.146899 Z M623.110335,1315.57222 C623.031831,1319.57396 622.990985,1323.54031 623.001636,1327.28233 C623.016186,1332.39358 623.127526,1336.74186 623.347087,1340.04006 C623.427807,1341.24818 623.438606,1342.15689 623.431803,1344.47771 C623.40361,1354.09477 624.429188,1359.12559 628.940429,1365.10494 C638.275948,1377.47855 660.530413,1387.11291 700.703971,1392.08789 C725.941249,1395.2134 758.283587,1394.43301 795.969341,1390.35088 C822.612746,1387.46485 851.012651,1383.03163 880.138191,1377.46893 C899.129936,1373.84169 917.285857,1369.95465 933.972981,1366.06871 C939.80849,1364.70979 945.041066,1363.44874 949.591827,1362.31817 C951.180363,1361.92352 952.568971,1361.5737 953.7478,1361.2728 C954.158059,1361.16807 954.512189,1361.0771 954.808959,1361.0004 C954.983813,1360.95521 955.102908,1360.92424 955.212449,1360.8958 C958.49538,1360.06111 961.656256,1359.0373 964.669618,1357.8672 C967.700615,1356.69024 970.410649,1355.43476 972.748362,1354.19179 C973.544182,1353.76865 974.229313,1353.38241 974.797484,1353.04468 C975.101833,1352.86377 975.277496,1352.75418 975.318295,1352.72757 L975.488459,1352.6193 C975.575948,1352.56501 975.7395,1352.46366 975.982231,1352.31351 C976.384421,1352.06473 976.85939,1351.77142 977.404845,1351.4352 C978.960411,1350.47632 980.770345,1349.36482 982.816289,1348.11339 C988.657151,1344.54074 995.221467,1340.56098 1002.36251,1336.27564 C1022.76763,1324.03052 1043.71418,1311.78459 1064.03297,1300.348 C1064.36407,1300.16166 1064.36407,1300.16166 1064.69651,1299.97469 C1084.51038,1288.83597 1103.42304,1279.01436 1127.2356,1267.18417 C1129.10495,1266.25546 1130.96836,1265.33189 1133.30237,1264.17671 C1133.51959,1264.0692 1137.68213,1262.00969 1138.81779,1261.44727 C1142.97545,1259.38827 1145.65702,1258.05154 1147.98166,1256.87484 C1150.70314,1255.49726 1152.73603,1254.43746 1154.22321,1253.61805 C1154.55879,1253.43315 1154.86296,1253.26243 1155.13495,1253.10653 C1155.37349,1252.17172 1155.61833,1250.89244 1155.84954,1249.3122 C1156.45805,1245.15322 1156.92751,1239.26938 1157.26422,1231.73039 C1157.53831,1225.59348 1157.71957,1218.85855 1157.8336,1210.59957 C1152.06152,1213.96935 1145.73384,1217.63969 1138.95173,1221.54477 C1115.93942,1234.79507 1092.39913,1248.04573 1069.68435,1260.41605 C1064.52181,1263.22753 1059.45137,1265.96616 1054.4829,1268.62549 C1034.6488,1279.24154 1016.74351,1288.43342 1001.22709,1295.89998 C995.435622,1298.68673 989.479828,1301.3508 983.372643,1303.89519 C955.688609,1315.42899 926.070711,1324.08867 896.458789,1330.2939 C886.097414,1332.46514 876.473043,1334.17534 867.829176,1335.47528 C864.797558,1335.9312 862.102854,1336.30347 859.77554,1336.5984 C858.957082,1336.70211 858.241943,1336.78885 857.633933,1336.85941 C857.338645,1336.89367 857.116331,1336.91864 856.968926,1336.93471 C800.262371,1345.36397 754.314006,1347.3406 717.022285,1343.8949 C687.121169,1341.13208 664.150515,1335.12977 644.036794,1326.16823 C639.008447,1323.92788 630.101171,1319.26811 623.110335,1315.57222 Z M669.897468,122.402287 C671.724542,125.445889 674.514252,128.51953 678.494127,131.495231 C686.725082,137.649409 699.025513,142.596034 716.124434,145.758883 C737.151935,149.648417 764.3866,150.624394 798.499248,148.137363 C865.358209,143.262812 951.043412,130.718084 1022.81543,115.360146 C1088.94624,101.209325 1136.53018,86.0325822 1152.99578,73.7872355 L1152.99578,71.8650538 C1152.69293,71.2915937 1152.17549,70.5606249 1151.42926,69.7382501 C1148.9256,66.9791191 1144.80273,64.1770952 1138.84952,61.6882866 C1114.75512,51.6104955 1073.33374,39.6914869 1031.11919,32.5235457 C972.698149,22.6037745 917.124872,21.9984737 869.164354,33.4231412 C803.00918,49.1817457 750.32739,68.0800387 713.678679,87.7101604 C698.397332,95.8952972 686.583614,103.885852 678.798902,111.029114 C672.9126,116.430392 670.073151,120.72554 669.897468,122.402287 Z M651.89036,122.311737 L651.896562,122.073945 L651.892783,122.170079 C651.891775,122.21733 651.890967,122.26455 651.89036,122.311737 Z M705.179742,71.8429594 C743.304501,51.4222229 797.4211,32.0092277 864.993312,15.9130753 C915.614914,3.85451138 973.517012,4.4851776 1034.13243,14.7775482 C1077.68523,22.1727224 1120.42631,34.4714754 1145.79376,45.0817328 C1161.57413,51.6789023 1170.99578,62.0619541 1170.99578,70.8948268 L1170.99578,1091.28687 C1170.99817,1091.30964 1171.00062,1091.33309 1171.00314,1091.35719 C1171.04994,1091.80456 1171.10406,1092.32985 1171.16489,1092.92983 C1171.33806,1094.63763 1171.53074,1096.60511 1171.73804,1098.80633 C1172.3295,1105.08664 1172.92067,1111.98945 1173.47242,1119.30795 C1174.5882,1134.10769 1175.39867,1148.67717 1175.77342,1162.34123 C1175.92266,1167.78297 1176,1173.01063 1176,1177.99814 C1176,1204.1375 1175.82753,1219.5193 1175.24629,1232.53351 C1174.32579,1253.14406 1173.04114,1261.92422 1167.72717,1266.3192 C1165.87034,1267.85286 1162.70886,1269.59478 1156.1109,1272.93458 C1153.72719,1274.14119 1151.00772,1275.49682 1146.80603,1277.57762 C1145.66685,1278.14178 1141.50138,1280.20274 1141.28678,1280.30895 C1138.96016,1281.46048 1137.10427,1282.38032 1135.24421,1283.30441 C1111.68244,1295.01001 1093.01498,1304.70428 1073.51839,1315.66464 C1073.19007,1315.84929 1073.19007,1315.84929 1072.86193,1316.03396 C1052.70348,1327.3803 1031.89645,1339.54466 1011.62457,1351.70983 C1004.52867,1355.96808 998.00754,1359.92166 992.208571,1363.46868 C990.180574,1364.70914 988.388264,1365.80982 986.85005,1366.758 C986.312681,1367.08924 985.845729,1367.37759 985.451496,1367.62145 C985.270895,1367.73317 985.134845,1367.81743 985.04684,1367.87198 C984.800854,1368.02979 984.449044,1368.24752 983.99491,1368.51747 C983.185226,1368.99877 982.251445,1369.52517 981.198801,1370.08487 C978.255188,1371.65001 974.90374,1373.20264 971.185138,1374.64659 C967.511213,1376.07319 963.658865,1377.32097 959.707468,1378.3254 C959.632759,1378.34493 959.505029,1378.37815 959.313328,1378.4277 C958.999176,1378.50889 958.627567,1378.60435 958.199727,1378.71356 C956.983986,1379.02389 955.558058,1379.38311 953.931738,1379.78715 C949.2972,1380.93853 943.97899,1382.22022 938.05542,1383.59965 C921.145171,1387.53755 902.75684,1391.47434 883.514981,1395.14935 C853.944215,1400.79709 825.077819,1405.30313 797.907767,1408.2462 C758.960773,1412.46495 725.33821,1413.27623 698.491733,1409.95143 C653.947979,1404.43526 627.391694,1392.93856 614.57132,1375.946 C610.372302,1370.38049 607.801426,1364.4348 606.5071,1358.08568 C605.599884,1353.63547 605.414653,1350.30158 605.43188,1344.42494 C605.437336,1342.56401 605.429059,1341.86758 605.386985,1341.23785 C605.137506,1337.49024 605.017252,1332.79386 605.001709,1327.33356 C604.987697,1322.41111 605.058935,1317.15568 605.186223,1311.92954 C605.22692,1310.25861 605.270544,1308.71215 605.31422,1307.32714 C605.329555,1306.84083 605.343824,1306.40888 605.356666,1306.03595 C605.364461,1305.80955 605.369988,1305.65496 605.374054,1305.54555 L651.892783,122.170079 C652.203861,107.591381 671.614739,89.8213574 705.179742,71.8429594 Z" id="Combined-Shape" fill="#000000" fill-rule="nonzero"></path>
    </g>
</svg>