<?xml version="1.0" encoding="UTF-8"?>
<svg width="359px" height="430px" viewBox="0 0 359 430" version="1.1" xmlns="http://www.w3.org/2000/svg" xmlns:xlink="http://www.w3.org/1999/xlink">
    <!-- Generator: Sketch 52.5 (67469) - http://www.bohemiancoding.com/sketch -->
    <title>Combined Shape</title>
    <desc>Created with Sketch.</desc>
    <g id="Page-1" stroke="none" stroke-width="1" fill="none" fill-rule="evenodd">
        <g id="Artboard" transform="translate(-71.000000, -35.000000)" fill="#000000">
            <path d="M378.27726,171.459918 C399.948459,180.157312 416.849947,196.602923 424.921658,221.680907 C439.534368,267.094172 423.345448,316.514611 366.796612,362.31574 C305.277818,412.138027 175.77955,459.579372 101,465 L101,463.648011 C101,463.648011 358.982439,345.712003 346.747202,238.959136 C346.747202,238.959136 345.514333,228.772831 339.203157,219.807247 C336.12491,222.564125 332.901326,225.309401 329.530272,228.041354 C269.69044,276.542047 143.729619,322.723303 71,328 L71,326.686575 C71,326.686575 321.922845,211.884738 310.018609,107.968619 C310.018609,107.968619 304.403837,61.4469077 255.145345,81.2508963 C255.145345,81.2508963 240.924615,87.8403708 245.553838,70.0242049 C250.187606,52.2096592 270.270082,33.8429988 304.734431,35.0570723 C342.419151,36.3823859 374.145386,54.0877328 386.059623,91.141133 C394.396602,117.071254 392.427469,144.345463 378.27726,171.459918 Z" id="Combined-Shape"></path>
        </g>
    </g>
</svg>