<?xml version="1.0" encoding="UTF-8"?>
<svg width="479px" height="388px" viewBox="0 0 479 388" version="1.1" xmlns="http://www.w3.org/2000/svg" xmlns:xlink="http://www.w3.org/1999/xlink">
    <!-- Generator: Sketch 52.5 (67469) - http://www.bohemiancoding.com/sketch -->
    <title>logo@2x</title>
    <desc>Created with Sketch.</desc>
    <g id="Icons" stroke="none" stroke-width="1" fill="none" fill-rule="evenodd">
        <g id="logo" transform="translate(-11.000000, -57.000000)" fill="#000000">
            <g transform="translate(9.615385, 57.692308)" id="Group">
                <g transform="translate(0.000000, 317.307692)">
                    <path d="M1.63187555,7.97017234 C1.82721347,6.73056288 2.76086317,5.65466985 4.44275696,4.73582325 C6.11802885,3.82031695 7.7833687,3.36255837 9.43215462,3.36255837 C11.4782383,3.36255837 12.5774273,4.13104888 12.7330358,5.6680408 L18.6726373,53.6754595 L30.7537992,22.8488674 C31.6013683,20.7238227 33.5845455,19.6612898 36.7099552,19.6612898 C39.779078,19.6612898 41.4046881,20.7238227 41.5834729,22.8488674 L43.990436,53.6754595 L64.9975528,5.6680408 C65.6332303,4.13104888 66.9774177,3.36255837 69.0235013,3.36255837 C70.6722892,3.36255837 72.1886398,3.82031695 73.5824925,4.73582325 C74.9697262,5.65466985 75.5689821,6.73056288 75.3736464,7.97017234 C75.3206714,8.32434655 75.2081026,8.67852048 75.0392543,9.03270529 L49.4135469,64.7484419 C48.155441,67.3479453 45.5332739,68.6477184 41.5569855,68.6477184 C39.8519159,68.6477184 38.3686718,68.3069045 37.113873,67.6252768 C35.8557643,66.9503506 35.1803584,65.9913914 35.0909646,64.7484419 L33.3858974,40.8316063 L24.0957521,64.7484419 C23.6156816,65.9913914 22.6389929,66.9503506 21.1689901,67.6252768 C19.6989898,68.3069045 18.1097989,68.6477184 16.4047292,68.6477184 C14.6433764,68.6477184 13.133645,68.3069045 11.8788462,67.6252768 C10.6207364,66.9503506 9.91884422,65.9913914 9.77316838,64.7484419 L1.63518595,9.03270529 C1.57890224,8.67852076 1.57559157,8.32434655 1.63187555,7.97017234 Z" id="Path"></path>
                    <path d="M68.5765404,50.7518423 L69.7585041,43.2239621 C70.5199889,38.3857881 72.9898558,34.2192217 77.1746922,30.7342725 C81.3562873,27.2493233 86.0377816,25.5085238 91.2092725,25.5085238 C96.0397466,25.5085238 99.926644,27.0989672 102.866645,30.2698339 C105.806656,33.4440512 106.902527,37.4335304 106.147662,42.2382825 C105.872869,43.9924526 105.429223,45.4392308 104.823342,46.5785959 C104.220772,47.7213011 103.439418,48.5265535 102.485902,48.9909922 C101.532386,49.4587708 100.674891,49.7528027 99.9167156,49.8697474 C99.1618499,49.9866921 98.1851558,50.0434945 96.9932632,50.0434945 L79.6876368,50.0434945 L79.479052,51.373328 C79.0817562,53.916029 79.6644587,55.967571 81.2404087,57.5279539 C82.8130438,59.0950169 85.1041283,59.8768677 88.1169665,59.8768677 C90.278934,59.8768677 92.4938658,59.3155248 94.7783308,58.1962001 C97.0561663,57.0735353 98.5063036,56.5121924 99.1320524,56.5121924 C100.323945,56.5121924 101.227796,57.0868957 101.846915,58.236302 C102.459415,59.3890484 102.681243,60.4983531 102.515699,61.5608751 C102.257454,63.2148009 100.565631,64.8520266 97.4402186,66.4758916 C94.3148165,68.1030758 90.6232601,68.9150083 86.3589299,68.9150083 C80.2736489,68.9150083 75.5822256,67.2443821 72.2681021,63.9064487 C68.9539733,60.5718555 67.7256642,56.1880998 68.5765404,50.7518423 Z M80.7437879,43.3141649 L93.1891377,43.3141649 C94.0996079,43.3141649 94.7617728,43.1638197 95.1789315,42.8597678 C95.5961008,42.5556948 95.8742031,41.9609722 96.0132596,41.0788558 C96.3145502,39.1509386 95.8377868,37.5805462 94.5763713,36.3643174 C93.3215749,35.1514393 91.6396806,34.5433246 89.5373071,34.5433246 C87.5475133,34.5433246 85.7166335,35.1380683 84.0546021,36.3208858 C82.3925707,37.5103729 81.4092573,39.0674158 81.1079772,40.995333 L80.7437879,43.3141649 Z" id="Shape" fill-rule="nonzero"></path>
                    <path d="M113.666521,56.7661431 C114.3949,52.1184378 116.616461,48.8439867 120.321256,46.9528103 C124.029371,45.058315 129.094923,44.1093974 135.5179,44.1093974 L139.014116,44.1093974 L139.199528,42.9265902 C139.553783,40.6779422 139.249182,38.7199219 138.289047,37.0492852 C137.328912,35.3819885 135.570875,34.5433246 133.014927,34.5433246 C130.455669,34.5433246 128.187751,35.0445146 126.211196,36.0502452 C124.23795,37.0526252 123.105652,37.5571552 122.82093,37.5571552 C121.685311,37.5571552 120.867542,36.9657518 120.370921,35.7829447 C119.8743,34.603467 119.738553,33.3003751 119.960381,31.8870189 C120.228555,30.1729401 121.923698,28.6860705 125.05573,27.4130497 C128.181132,26.1433692 131.362829,25.5085235 134.6008,25.5085235 C140.79534,25.5085235 145.142432,27.1457489 147.642096,30.42354 C150.141771,33.7013205 150.999266,37.8211154 150.221222,42.7795633 L146.814398,64.484492 C146.658794,65.486872 146.009867,66.3422253 144.877569,67.0539138 C143.741961,67.7622619 142.407702,68.1164573 140.871483,68.1164573 C139.451143,68.1164573 138.332094,67.7388815 137.514324,66.980411 C136.696544,66.2219406 136.372086,65.3064449 136.53763,64.233881 L136.968038,61.4873509 C132.26999,66.4391294 127.565324,68.915008 122.844098,68.915008 C119.606127,68.915008 117.113082,67.8758661 115.361665,65.8076237 C113.613546,63.7393819 113.047402,60.7255407 113.666521,56.7661431 Z M124.890187,55.3394053 C124.65181,56.8530059 124.886877,57.9857122 125.595387,58.7441827 C126.297278,59.4992916 127.333566,59.8768675 128.697622,59.8768675 C130.515263,59.8768675 132.409046,59.0348742 134.375673,57.357568 C136.345598,55.6768792 137.491146,53.8291659 137.805675,51.8076847 L138.083777,50.0434942 L136.805803,50.0434942 C133.336075,50.0434942 130.568227,50.3976684 128.498971,51.0959962 C126.426406,51.7943243 125.224573,53.2110206 124.890187,55.3394053 Z" id="Shape" fill-rule="nonzero"></path>
                    <path d="M157.422244,53.9327291 L164.083608,11.4718325 C164.239213,10.4828129 164.937794,9.65083973 166.182661,8.97590293 C167.420909,8.30764617 168.725371,7.97017234 170.089427,7.97017234 C171.566051,7.97017234 172.810908,8.29761524 173.81409,8.9491719 C174.820581,9.60405799 175.247669,10.4126505 175.095384,11.3782791 L172.79436,26.0431249 L182.855919,26.0431249 C183.706806,26.0431249 184.315985,26.4908525 184.690119,27.3896587 C185.060922,28.281774 185.150324,29.3409669 184.961592,30.5571854 C184.769571,31.7734144 184.345793,32.8325965 183.693567,33.7313921 C183.041321,34.6268583 182.286455,35.0745859 181.438899,35.0745859 L171.37402,35.0745859 L168.477055,53.5451547 C168.22212,55.1790401 168.394283,56.3317652 169.000164,57.0067129 C169.606044,57.6816391 170.788008,58.0157729 172.549354,58.0157729 L175.876727,58.0157729 C177.353341,58.0157729 178.426056,58.5102935 179.098139,59.4992919 C179.763624,60.4883115 179.992072,61.6610986 179.780172,63.0210137 C179.558344,64.4410503 178.955784,65.6438975 177.97909,66.6329171 C176.995776,67.6185967 175.767467,68.1164573 174.290853,68.1164573 L170.963481,68.1164573 C160.448336,68.1164573 155.93569,63.388548 157.422244,53.9327291 Z" id="Path"></path>
                    <path d="M185.855525,64.487832 L195.172147,5.13342887 C195.337691,4.07090651 195.970059,3.21554259 197.065941,2.56399652 C198.161823,1.91913077 199.535797,1.59168787 201.184595,1.59168787 C202.720804,1.59168787 203.972301,1.91913077 204.952305,2.56733654 C205.932308,3.21554231 206.336229,4.07424653 206.170685,5.13342887 L201.906344,32.2979952 C203.055201,30.393469 204.674192,28.7863146 206.756697,27.4731921 C208.835892,26.1634096 211.156774,25.5085235 213.712722,25.5085235 C217.636026,25.5085235 220.781296,27.279394 223.151843,30.8244856 C225.522389,34.3662372 226.323611,38.589606 225.555507,43.4879117 L222.257931,64.4844917 C222.082458,65.6071565 221.390496,66.4925917 220.182045,67.1407975 C218.970284,67.7923433 217.626097,68.116457 216.149483,68.116457 C214.725822,68.116457 213.517371,67.7923436 212.507581,67.1441378 C211.501101,66.495932 211.08723,65.6138368 211.262703,64.4911721 L214.54704,43.5547344 C214.861559,41.5566548 214.407994,39.7289819 213.189614,38.0817362 C211.971234,36.4311505 210.365482,35.605847 208.375688,35.605847 C206.501751,35.605847 204.753644,36.340937 203.131343,37.8177757 C201.505733,39.2879449 200.509182,41.2024806 200.138379,43.5547344 L196.854042,64.4911721 C196.714996,65.3766073 196.032963,66.2019002 194.804654,66.9670507 C193.576344,67.7322012 192.218898,68.116457 190.742283,68.116457 C189.209385,68.116457 187.974436,67.7455613 187.040787,67.0104927 C186.10383,66.2720629 185.709839,65.4334097 185.855525,64.487832 Z" id="Path"></path>
                    <path d="M231.40239,50.7518423 L232.584365,43.2239621 C233.34585,38.3857881 235.815706,34.2192217 240.000574,30.7342725 C244.182132,27.2493233 248.863632,25.5085238 254.035123,25.5085238 C258.865597,25.5085238 262.752494,27.0989672 265.692505,30.2698339 C268.632495,33.4440512 269.728377,37.4335304 268.973512,42.2382825 C268.69873,43.9924526 268.255073,45.4392308 267.649182,46.5785959 C267.046622,47.7213011 266.265279,48.5265535 265.311752,48.9909922 C264.358247,49.4587708 263.500741,49.7528027 262.742565,49.8697474 C261.9877,49.9866921 261.011006,50.0434945 259.819124,50.0434945 L242.513497,50.0434945 L242.304907,51.373328 C241.907606,53.916029 242.490309,55.967571 244.066253,57.5279539 C245.638888,59.0950169 247.929983,59.8768677 250.942827,59.8768677 C253.104784,59.8768677 255.319716,59.3155248 257.60417,58.1962001 C259.882027,57.0735353 261.332164,56.5121924 261.957892,56.5121924 C263.149795,56.5121924 264.053656,57.0868957 264.672765,58.236302 C265.285275,59.3890484 265.507103,60.4983531 265.341559,61.5608751 C265.083304,63.2148009 263.391481,64.8520266 260.266068,66.4758916 C257.140656,68.1030758 253.44911,68.9150083 249.184769,68.9150083 C243.099509,68.9150083 238.408081,67.2443821 235.093957,63.9064487 C231.779834,60.5718555 230.551525,56.1880998 231.40239,50.7518423 Z M243.569643,43.3141649 L256.014988,43.3141649 C256.925468,43.3141649 257.587623,43.1638197 258.004781,42.8597678 C258.421961,42.5556948 258.700053,41.9609722 258.83912,41.0788558 C259.1404,39.1509386 258.663647,37.5805462 257.402221,36.3643174 C256.147414,35.1514393 254.46552,34.5433246 252.363157,34.5433246 C250.373363,34.5433246 248.542473,35.1380683 246.880457,36.3208858 C245.21842,37.5103729 244.235107,39.0674158 243.933827,40.995333 L243.569643,43.3141649 Z" id="Shape" fill-rule="nonzero"></path>
                    <path d="M275.538855,64.484492 L281.018266,29.5815364 C281.18381,28.5190141 281.819488,27.6636396 282.915349,27.0154335 C284.007922,26.3638877 285.355419,26.0431249 286.94789,26.0431249 C288.368262,26.0431249 289.493952,26.3672278 290.32827,27.0254645 C291.165897,27.6770102 291.496984,28.5423945 291.328131,29.6149478 L290.755357,33.2836642 C291.990306,31.1987108 293.695368,29.3810583 295.873894,27.8340464 C298.04578,26.2836944 300.244163,25.5085235 302.459095,25.5085235 L305.104445,25.5085235 C306.127474,25.5085235 306.968432,26.0163936 307.637205,27.0288045 C308.299381,28.0412045 308.531138,29.2039712 308.325858,30.5137537 C308.110648,31.883668 307.508088,33.0731657 306.528085,34.0889167 C305.541462,35.1013167 304.5416,35.6058467 303.518551,35.6058467 L300.873222,35.6058467 C298.260989,35.6058467 295.784492,36.8120554 293.447063,39.2278023 C291.102993,41.6435385 289.629688,44.7943648 289.020509,48.6802597 L286.537393,64.4911718 C286.398326,65.376607 285.699745,66.2018999 284.444959,66.9670504 C283.186842,67.7322009 281.819487,68.1164568 280.342852,68.1164568 C278.806644,68.1164568 277.588264,67.745561 276.681093,67.0071524 C275.773922,66.2687229 275.39319,65.4300696 275.538855,64.484492 Z" id="Path"></path>
                    <path d="M310.070656,64.484492 L319.092617,6.99786368 C319.2714,5.87519895 319.890529,4.9897637 320.963244,4.33820732 C322.026009,3.69000155 323.217891,3.36255864 324.525673,3.36255864 L354.276644,3.36255864 C355.415572,3.36255864 356.190316,3.85038828 356.604166,4.82603723 C357.018015,5.79834588 357.120634,6.96779291 356.905446,8.32434683 C356.683596,9.74105399 356.196936,10.9539321 355.442049,11.9563121 C354.690493,12.9587027 353.770083,13.4598927 352.69077,13.4598927 L329.160817,13.4598927 L326.37973,31.1753204 L339.424347,31.1753204 C340.50366,31.1753204 341.275073,31.619708 341.731969,32.5051539 C342.188864,33.3905891 342.314671,34.4865225 342.112722,35.782945 C341.92732,36.9657521 341.467115,37.9982031 340.732107,38.8836383 C339.997099,39.7690842 339.08664,40.2134612 338.007305,40.2134612 L324.962689,40.2134612 L321.151955,64.4844923 C320.976482,65.607157 320.28452,66.4925923 319.076069,67.140798 C317.867618,67.7923438 316.520121,68.1164576 315.043507,68.1164576 C313.507278,68.1164576 312.252492,67.7923441 311.275798,67.140798 C310.295794,66.492592 309.895183,65.6071567 310.070656,64.484492 Z" id="Path"></path>
                    <path d="M354.144217,64.484492 L363.474078,5.04655546 C363.639643,3.98403311 364.27201,3.12866918 365.371181,2.47712312 C366.463775,1.82891735 367.837749,1.50481446 369.486526,1.50481446 C371.022735,1.50481446 372.274232,1.82891735 373.257545,2.47712312 C374.234239,3.1286689 374.638138,3.98403311 374.472615,5.04655546 L365.142755,64.484492 C365.003709,65.3699273 364.321676,66.1985602 363.093367,66.9637107 C361.865058,67.7322012 360.507611,68.116457 359.030976,68.116457 C357.498056,68.116457 356.263128,67.7455613 355.32948,67.0071527 C354.392543,66.2687229 353.998552,65.4300696 354.144217,64.484492 Z" id="Path"></path>
                    <path d="M377.955593,50.7518423 L379.097809,43.487912 C379.855985,38.6497486 382.332502,34.4397508 386.533897,30.8679279 C390.728715,27.296105 395.360528,25.5085235 400.419471,25.5085235 C405.362514,25.5085235 409.405006,27.279394 412.543657,30.8244856 C415.679019,34.3662372 416.864282,38.589606 416.096157,43.4879117 L414.95394,50.7518421 C414.202384,55.5398937 411.692812,59.7599224 407.428471,63.4186082 C403.157511,67.0806551 398.548844,68.915008 393.609132,68.915008 C388.662758,68.915008 384.626885,67.0806551 381.511423,63.4186082 C378.3893,59.7599227 377.207367,55.539894 377.955593,50.7518423 Z M388.96075,50.7251219 C388.629662,52.8368063 389.073319,54.7146012 390.291678,56.3518268 C391.510079,57.9923925 393.145618,58.8143451 395.191675,58.8143451 C397.178202,58.8143451 399.055405,57.9923922 400.820082,56.3518268 C402.584759,54.7146014 403.634265,52.8368063 403.965353,50.7251219 L405.094331,43.5179939 C405.40885,41.5265943 404.938716,39.7122818 403.69055,38.0683761 C402.439052,36.4278104 400.820083,35.605847 398.833598,35.605847 C396.787499,35.605847 394.897015,36.4144395 393.168807,38.0249338 C391.437226,39.6354176 390.410866,41.4664517 390.089729,43.5179937 L388.96075,50.7251219 Z" id="Shape" fill-rule="nonzero"></path>
                    <path d="M422.171509,30.2932249 C422.376789,28.993473 423.343534,27.8875087 425.081734,26.9686624 C426.816603,26.0564961 428.478618,25.5953975 430.071111,25.5953975 C431.719931,25.5953975 432.670106,26.2168722 432.934959,27.4564814 L437.51053,52.6129371 L447.337001,30.7342725 C448.032273,29.2006315 449.402958,28.432141 451.449058,28.432141 C453.495073,28.432141 454.627424,29.2006315 454.839324,30.7342725 L457.703171,52.70314 L470.274344,27.4564811 C470.923281,26.2168717 472.072117,25.5953972 473.720895,25.5953972 C475.257103,25.5953972 476.740358,26.0698562 478.187185,27.0154338 C479.630724,27.9576714 480.249811,29.0803467 480.044573,30.3800983 C479.941912,31.0316441 479.746582,31.5629054 479.451921,31.9738923 L460.821965,67.0539135 C460.093597,68.4104889 458.54082,69.0887551 456.153725,69.0887551 C453.65073,69.0887551 452.250279,68.4104886 451.955618,67.0539135 L448.419645,47.7447024 L438.924262,66.9637107 C438.192563,68.3837473 436.513979,69.0887554 433.901746,69.0887554 C431.570935,69.0887554 430.263153,68.3837473 429.971781,66.9637107 L422.333744,31.9738923 C422.141744,31.3858183 422.088748,30.8244859 422.171509,30.2932249 Z" id="Path"></path>
                </g>
                <g transform="translate(122.596154, 0.000000)">
                    <path d="M175.55102,83.6912594 C152.534983,82.8891774 139.115736,95.1229357 136.024831,106.990968 C132.930924,118.86039 142.429058,114.460083 142.429058,114.460083 C175.328602,101.27487 179.086091,132.263304 179.086091,132.263304 C187.034978,201.490342 19.4310897,277.969417 19.4310897,277.969417 L19.4310897,278.846154 C68.0132467,275.330988 152.144606,244.566252 192.111625,212.257524 C228.849803,182.556434 239.367286,150.508296 229.873822,121.058728 C221.912175,96.3680962 200.727514,84.5811314 175.55102,83.6912594" id="Path"></path>
                    <path d="M204.976065,36.3318176 C197.224728,12.3526546 176.583813,0.894613087 152.066341,0.0369344043 C129.644024,-0.748755032 116.578475,11.1372565 113.563771,22.6659662 C110.552024,34.1957244 119.803953,29.9313362 119.803953,29.9313362 C151.851258,17.1151556 155.504198,47.2217498 155.504198,47.2217498 C163.249029,114.471221 0,188.7654 0,188.7654 L0,189.615385 C47.3174916,186.200563 129.266912,156.314294 168.198379,124.926999 C203.980061,96.0824476 214.22394,64.942836 204.976065,36.3318176" id="Path"></path>
                </g>
            </g>
        </g>
    </g>
</svg>