<svg height="960" viewBox="0 0 960 960" width="960" xmlns="http://www.w3.org/2000/svg"><path d="m600.948104 344.994096c11.789942 1.554357 24.028257 5.569474 36.899278 11.83697 21.376641 10.409277 31.587842 35.14994 23.801417 57.594113l-.080108.228122-.076776.216019c-.025256.071062-.050764.142036-.076522.212918l-.782144 2.152313c-1.021916 2.816343-2.030352 5.612265-3.014669 8.358034l-1.492591 4.176597c-22.902622 64.288985-38.417208 117.328018-46.553073 158.865139-6.065357 30.966278-9.732564 65.984374-11.155369 101.385902l-.003547.066777.233171-.461673c13.32079-26.616108 25.296643-57.520505 35.227273-91.246828l.644743-2.203529c4.269044-14.682902 8.489476-29.717943 13.444184-47.777245l1.810552-6.613132 1.78596-6.545791 6.087279-22.368147 1.697413-6.218882 1.675279-6.11383c12.480106-45.433407 20.457605-71.273681 29.252672-92.485183 5.74027-13.844095 11.623435-24.927868 18.312746-33.750946 9.406255-12.406675 20.807017-20.9192 35.151672-23.679011 13.933214-2.680653 30.896317-1.722883 50.253992 1.449448 16.329003 2.675993 29.971666 5.913571 36.593657 9.985558 12.120457 7.453096 20.583919 19.283877 23.934745 32.655495 11.905243 2.544165 23.207768 6.683321 33.678992 12.177736 4.800526-4.534699 9.495663-8.848123 14.054537-12.905484l1.204268-1.068633c.859312-.760262 1.741566-1.482269 2.786445-2.302315 21.142494-16.593123 52.084194-1.308081 51.759205 25.566214l-.805924 65.171476c-.044401 3.613824-.699995 7.169258-1.91709 10.523082 2.468607 9.772233 3.853251 19.970721 4.01977 30.457836l.01703 2.146383v302.727272c0 69.28745-51.425392 127.809769-120.134025 136.707845l-4.526816.586243c-16.636731 2.154531-33.303537.803265-49.100471-3.849318l-.04083-.012641-.325507-.084579c-.237737-.064471-.475429-.131236-.713053-.200309l-.712648-.214155-5.683785-1.764119c-6.921028-2.159044-12.577263-3.967085-17.026639-5.44491l-.968907-.322979c-.316363-.105853-.626128-.209903-.929318-.312158l-.318551-.107608c-3.442-1.164505-6.815727-2.38092-10.121108-3.649801l-.382484-.148382-1.260255-.417642c-38.341776-12.946769-67.730931-44.234429-78.178715-83.331335l-.874557-.384721-.150329-.066357-.901759-.400819-.144647-.064723-.916099-.412637-.13927-.063132-.998146-.455439c-.178484-.081925-.357506-.164345-.602328-.277487l-1.016035-.472039c-.18089-.08451-.36232-.169515-.606122-.284144l-.973457-.459912-.120423-.057201-1.07541-.513734-.527954-.254118c-5.52848-2.667594-10.459628-6.124091-14.707822-10.179145l-.247101-.239415-.277523.249978c-7.776569 6.935386-16.061231 12.745602-24.877725 17.313836l-.703752.360186-.030226.019899c-23.200737 13.807166-58.18785 9.672804-97.295185-11.248315l-1.223437-.659248c-21.554551-11.698224-35.486653-33.252776-43.859265-62.081388-.295245-1.016592-.583811-2.043372-.86574-3.08028l-.015147-.054668c-24.987718 23.916387-46.747371 41.754779-66.579052 55.056143l-.813918.544081c-.665423.443322-1.585198 1.048786-2.785081 1.833779-21.272178 13.91678-49.496676-1.330096-49.519064-26.750202l-.046897-53.219472c-.006961-7.93099 2.931482-15.582 8.245547-21.469391 1.134436-1.256828 1.978176-2.193602 2.522508-2.800565 31.97535-35.654459 55.261155-67.593678 69.875423-95.526326 10.962018-20.952003 20.804013-42.442069 29.734764-65.286781 3.699285-9.462708 9.580995-27.52867 16.918459-51.690456.814262-2.681312 1.643753-5.42867 2.487912-8.239623 4.228593-14.08072 8.581943-28.932595 13.295234-45.25587.647233-2.241527 2.092255-7.267386 3.537027-12.289647l.247524-.860404.206458-.717607c1.613432-5.607733 3.120801-10.841497 3.390031-11.746402 3.085205-10.369613 5.028884-16.90247 6.917118-23.24897l.458785-1.542014.367788-1.236163c.17702-.594979.35494-1.192981.534644-1.796979l.180331-.606108.177835-.597719c2.737932-9.202402 6.009174-20.197299 12.805077-43.03886.057527-.193352.116881-.386155.178054-.578385 6.215524-19.531639 23.555183-33.418232 43.973108-35.215036 10.241048-.901226 19.865706-.79326 28.894489.397073zm139.963896 168.368761v330.838857c0 44.899804 35.748509 80.608765 79.846531 79.758199l17.397653-.334228c46.694771-8.053033 81.160387-48.6277 81.160387-96.418814v-302.727272l-.011207-1.455417c-.001172-.076042-.002435-.152062-.00379-.228061-.01546-.866882-.042819-1.730612-.081928-2.591348-.006362-.140019-.013051-.280301-.020052-.420502l.020052.420502c-.046191-1.016596-.108773-2.029014-.187492-3.036992-.009594-.12286-.019421-.245548-.029485-.368171l.029485.368171c-.076653-.981532-.168607-1.958854-.275626-2.931723-.011702-.106378-.023591-.21276-.035659-.319089l.035659.319089c-.052276-.475214-.108146-.949366-.167583-1.422427l.131924 1.103338c-.052056-.458631-.107461-.916264-.166191-1.372874l.034267.269536c-.06262-.498394-.1292-.995577-.199707-1.491516l.16544 1.22198c-.066937-.520426-.138194-1.039524-.213732-1.557255l.048292.335275c-.069283-.487323-.142357-.973444-.219193-1.458333l.170901 1.123058c-.065328-.447755-.13386-.894488-.20557-1.340174l.034669.217116c-.077643-.489982-.159128-.978705-.244422-1.466138l.209753 1.249022c-.081179-.504536-.166433-1.00773-.255726-1.509548l.045973.260526c-.073497-.420016-.149823-.839073-.228957-1.257151l.182984.996625c-.082958-.466216-.169403-.931244-.259307-1.395055l.076323.39843c-.099719-.526823-.203897-1.052091-.312494-1.575763l.236171 1.177333c-.103702-.53499-.212006-1.068361-.32487-1.600069l.088699.422736c-.104002-.501512-.212058-1.001559-.324132-1.500107l.235433 1.077371c-.079963-.376706-.162214-.752577-.246739-1.127598l.011306.050227c-.104181-.463435-.211834-.925573-.322931-1.386386l.311625 1.336159c-.117028-.519227-.238415-1.036825-.36412-1.552752l.052495.216593c-.095844-.397545-.194251-.794104-.295203-1.189657l.242708.973064c-.108314-.444546-.219835-.887853-.334537-1.329892l.091829.356828c-.129956-.509201-.264131-1.016736-.402483-1.522564l.310654 1.165736c-.127202-.490215-.258317-.978871-.393309-1.465934l.082655.300198c-.12239-.447468-.248051-.893601-.376954-1.33837l.294299 1.038172c-.115957-.41838-.234774-.835584-.356431-1.251589l.062132.213417c-.136909-.472394-.277477-.94325-.421671-1.412535l.359539 1.199118c-.146796-.501971-.297726-1.002197-.452751-1.500637l.093212.301519c-.141362-.460068-.28621-.918626-.434512-1.375643l.3413 1.074124c-.125336-.402985-.253349-.804803-.384018-1.205432l.042718.131308c-5.536334-17.061111-15.887486-31.974341-29.474612-43.110344-.303347-.247089-.607654-.493365-.913551-.737747-.108659-.088198-.21816-.175255-.327863-.262069l.327863.262069c-.301801-.24111-.60515-.480376-.910031-.71778l.582168.455711c-.321655-.254546-.645047-.507007-.970155-.757364l.387987.301653c-.331579-.258195-.664968-.514188-1.000147-.767957-.253358-.192863-.508647-.384054-.764955-.573956l.764955.573956c-.376326-.284922-.754908-.567042-1.135714-.846326l.370759.27237c-.334362-.247733-.670458-.493274-1.008268-.736601l.637509.464231c-.339313-.248854-.680392-.495456-1.023216-.739786l.385707.275555c-.405093-.291791-.812651-.580398-1.222638-.865784l.836931.590229c-.428201-.305178-.859123-.606809-1.292725-.904852-.226675-.156419-.45417-.311283-.68239-.46516l.68239.46516c-.353772-.24317-.709327-.483951-1.066644-.722319l.384254.257159c-.368001-.248123-.73789-.493678-1.109643-.736641l.725389.479482c-.432123-.288272-.866822-.573016-1.304055-.854189-.233915-.150829-.468467-.300159-.703737-.448461l.703737.448461c-.334595-.215169-.670674-.428247-1.008219-.639216l.304482.190755c-.416631-.262623-.835514-.522025-1.256615-.778171l.952133.587416c-.396437-.247776-.794896-.492642-1.195349-.734568-.305774-.184993-.613229-.368299-.921836-.549872l.921836.549872c-.411827-.248799-.825763-.494488-1.241775-.737035l.319939.187163c-.401434-.236189-.804817-.469446-1.210121-.699741l.890182.512578c-.359486-.209591-.720523-.416836-1.08309-.621713l.192908.109135c-.418277-.237666-.8386-.472178-1.260938-.703503l1.06803.594368c-.45634-.257866-.915103-.511982-1.376248-.762305l.308218.167937c-.396249-.217037-.794272-.431267-1.194041-.642665l.885823.474728c-.377729-.205042-.757056-.40754-1.137958-.607469l.252135.132741c-.833562-.440787-1.674717-.869259-2.523229-1.28517-.103977-.050922-.208318-.101824-.312768-.152536l.312768.152536c-.858948-.421027-1.725435-.829181-2.599212-1.224209-.076873-.034738-.154537-.069721-.232258-.1046l.232258.1046c-.395087-.178616-.791664-.354548-1.18971-.527772l.957452.423172c-.418625-.187869-.838914-.372728-1.260841-.554549l-1.13374-.479605c-.072911-.030271-.145869-.060451-.218875-.090542l.219158.090655c-.421551-.175017-.844689-.347018-1.269389-.515977l1.050231.425322c-.416592-.171702-.834727-.340463-1.254378-.506255l.204147.080933c-.452541-.180036-.906856-.356617-1.362912-.529711l1.158765.448778c-.486739-.192298-.975519-.380602-1.466299-.564874l.307534.116096c-.439581-.166841-.880779-.330443-1.323567-.490775l1.016033.374679c-.409671-.153817-.820736-.304824-1.233172-.452997l.217139.078318c-1.978726-.716492-3.989181-1.367694-6.02881-1.950973-1.49719-.424424-3.009566-.816637-4.536703-1.171078l-.181521-.042684c-.023047-.000465-.046096-.000919-.069147-.001364l-26.61551-.513362c-44.098022-.850567-79.846531 34.858395-79.846531 79.758198zm4.450184-66.033468-.587844.38732c-.131997.087661-.263748.175665-.395251.264008-.17132.116554-.343233.232875-.514717.349778l.514717-.349778c-.470206.315883-.937246.636116-1.401064.960641l.886347-.610863c-.428265.291954-.853856.587538-1.27673.886706l.390383-.275843c-.287071.200859-.572908.403362-.857497.607496l.467114-.331653c-.346423.245082-.691023.492569-1.033774.742437l.56666-.410784c-.32168.230739-.641765.463562-.960236.698448l.393576-.287664c-.283608.206753-.565951.415135-.847015.625134l.453439-.33747c-.771788.569228-1.534093 1.150575-2.286634 1.74376-.084281.066997-.169022.13403-.253638.201214l.253638-.201214c-.330516.260527-.65915.523338-.985876.788409l.732238-.587195c-.308943.245294-.616223.49259-.921822.74187l.189584-.154675c-.327515.265711-.653114.533693-.976772.803921l.787188-.649246c-.403068.328787-.803211.661023-1.200384.996663-.191787.161772-.382776.324566-.573068.488147l.573068-.488147c-.328391.277515-.654751.557357-.979056.8395l.405988-.351353c-.302537.26007-.603314.52213-.90231.786161l.496322-.434808c-.283791.246898-.566009.495559-.846636.745964l.350314-.311156c-.32554.28747-.648969.577275-.970261.869389l.619947-.558233c-.331071.295418-.659927.593265-.986541.893514-.243117.223379-.484966.448189-.725563.674317l.725563-.674317c-.338699.311358-.674987.625299-1.008833.94179l.28327-.267473c-.252574.237386-.503768.476224-.753567.716501l.470297-.449028c-.306405.290477-.610753.583103-.913019.877854l.442722-.428826c-.690471.664152-1.370291 1.3393-2.039178 2.025163-.071944.073786-.143427.147335-.214784.221005l.214784-.221005c-.266483.273247-.53123.548194-.794225.824824l.579441-.603819c-.29403.303563-.585926.609206-.875663.916904l.296222-.313085c-.281923.29654-.561832.595014-.839704.8954l.543482-.582315c-.264938.28136-.528071.564439-.789382.849217l.2459-.266902c-.328214.354806-.653586.712279-.97608 1.072383l.73018-.805481c-.334042.364044-.665107.730865-.993154 1.100425l.262974-.294944c-14.16417 15.81601-22.777835 36.707773-22.777835 59.611668l-.000517 63.172373.001226 71.147645-.001163.003715.000454 176.777102c0 3.423869.217141 6.844291.650115 10.240665.076304.598547.158959 1.19473.247889 1.78849.008607.057468.017371.115564.026195.173636l-.026195-.173636c.047622.317958.097043.635221.148252.951781l-.122057-.778145c.067267.442676.138023.884001.212237 1.323948l-.09018-.545803c.045096.278771.091578.556996.139439.834669l-.049259-.288866c.047901.283964.097243.567354.148017.850163l-.098758-.561297c.054927.318667.111669.636607.170214.95381l-.071456-.392513c.053182.296229.107936.591822.164251.88677l-.092795-.494257c.056134.304142.113927.607607.173366.910386l-.080571-.416129c.055172.288959.111842.577301.170001.865016l-.08943-.448887c.064628.329206.131202.657601.19971.985175l-.11028-.536288c.05622.278121.113831.555658.172826.832604l-.062546-.296316c.05692.272167.115175.543767.174757.814794l-.112211-.518478c.147398.691953.303432 1.380218.467971 2.064694.122608.510041.249925 1.017929.38191 1.523672.037755.144668.075857.289034.11434.433225l-.11434-.433225c.07577.290336.153078.579965.231914.868879l-.117574-.435654c.081316.304677.164328.608569.249026.911665l-.131452-.476011c.074726.273851.150825.547059.228288.819619l-.096836-.343608c.077017.275613.155428.550568.235223.824858l-.138387-.48125c.093403.328645.18879.656348.286146.983095l-.147759-.501845c.084081.289022.169699.577307.256844.864845l-.109085-.363c.091019.305483.18376.61013.278208.913933l-.169123-.550933c.08322.274588.167833.548496.253828.821716l-.084705-.270783c.255716.822539.523955 1.638889.804469 2.44886.064672.186736.130066.373332.196111.559585.085697.241675.172491.482777.260374.723297l-.260374-.723297c.110772.312389.223375.623815.337795.934268l-.077421-.210971c.208194.569787.4225 1.136311.642831 1.699506.019305.049345.038562.098426.057865.147482l-.057865-.147482c.086237.220431.173396.440352.261473.659759l-.203608-.512277c.132401.336478.266954.671762.403641 1.005838l-.200033-.493561c.124008.308913.249834.616806.377466.923669l-.177433-.430108c.110503.270083.222401.539376.335684.807872l-.158251-.377764c.121887.293052.245419.585164.370585.876326l-.212334-.498562c.118445.280733.238404.560594.359865.839576l-.147531-.341014c.099845.232262.20073.46392.302647.694969l-.155116-.353955c.118358.271854.238143.542874.359343.813049l-.204227-.459094c.305149.691779.619555 1.378096.943043 2.058814.172286.362552.347504.724234.525281 1.084302.091058.18443.182966.368791.275545.552724l-.275545-.552724c.117149.237272.235409.473842.354774.709706l-.079229-.156982c.138882.275927.279274.55089.421162.824881l-.341933-.667899c.141536.279674.284625.558354.429253.83603l-.08732-.168131c.114658.221407.230294.442179.346901.662312l-.259581-.494181c.149364.286767.300369.572463.453003.857078l-.193422-.362897c.152243.287406.306142.573721.461682.858935l-.26826-.496038c.135073.25187.271422.502892.409036.753061l-.140776-.257023c.130984.240183.263131.479584.396434.718197l-.255658-.461174c.15059.273758.302696.546494.456305.818196l-.200647-.357022c.109624.196228.22003.391923.331212.587081l-.130565-.230059c.198224.350617.39895.699513.602151 1.046668 5.153491 8.804258 11.898709 16.488278 19.792589 22.709358-9.334942-15.269969-14.714788-33.324642-14.714788-52.723532v-330.838857c0-25.390017 9.215992-48.477313 24.450184-66.033468zm97.749394 318.197129c27.33879 4.330039 44.47358 33.778507 39.517346 65.070937s-30.352465 54.004646-57.691255 49.674607-44.47358-33.778507-39.517346-65.070937 30.352464-54.004646 57.691255-49.674607zm-37.937488 52.803296c-3.353011 21.170081 7.453935 39.743289 22.892268 42.188481s31.455787-11.879449 34.808799-33.049529c3.353011-21.170081-7.453936-39.743289-22.892269-42.188481s-31.455787 11.879449-34.808798 33.049529zm-222.246966-440.590983c-8.20581.251172-15.344008 5.691813-17.761378 13.53749l-.021076.063987-.820765 2.672637c-27.385609 89.258457-44.607647 163.105145-51.677883 221.46547l-.213265 1.781703c-13.143205 111.15858-4.529381 193.310162 27.67065 211.226491 17.271802 9.610155 32.008108 14.505701 43.69578 15.374563l.139483.009136-.240028-.14995c-12.475017-7.911153-20.407223-22.137494-22.459549-44.12857l-.063502-.704481c-5.722908-65.799004-3.067076-150.428788 9.823609-217.900298 9.03991-47.316059 26.365097-107.255841 51.973461-179.887737l.016009-.046964.089969-.262178c2.128995-6.53173-.957078-13.634606-7.183203-16.535073l-.298847-.134922c-7.049942-3.081198-13.430144-4.989583-19.117901-5.758345-4.158677-.562091-8.676175-.772138-13.551564-.622959zm81.851851 228.966945.467778-1.596788c-20.638424 70.983573-51.603971 135.775358-89.418492 174.953491.363602 5.94127.793499 11.762677 1.287153 17.438452 1.534889 17.647343 6.98478 27.528031 15.15203 32.707372 2.27762 1.444375 4.729755 2.499251 7.531482 3.333775 1.693208.50434 6.952742 1.720376 6.944393 1.718182 1.284586.3376 2.341394.669019 3.271083 1.113074 17.694793-10.869752 32.551029-29.199022 44.561898-50.632444 3.511916-12.696876 6.913116-25.177587 10.203597-37.442117zm-163.019345-27.418277-.322371.959357c-1.939153 5.735765-3.718471 10.729882-5.255505 14.66159-9.869568 25.24619-20.38702 47.832594-31.184539 68.470187-15.982397 30.54759-40.784408 64.566463-74.406033 102.056619-.408564.455573-.965974 1.075005-1.672229 1.858294l-.441615.489637c-.153159.169767-.312272.346088-.477338.528963l.046872 53.219471c1.13158-.740307 1.98554-1.302447 2.561879-1.686419 16.940726-11.28635 37.964786-27.946931 64.984671-53.982447 2.64529-2.548919 5.321818-5.305206 8.029581-8.268858l1.016875-1.12109c3.564188-3.957836 7.182182-8.272893 10.853979-12.945167l1.050549-1.344655.526372-.679618 1.006926-1.310948c3.528908-4.619318 7.106837-9.564116 10.733783-14.834393.688105-1.039196 1.338627-2.021724 1.951566-2.947584-.87037-31.752318 1.187092-68.181276 5.780388-107.029046 1.354615-11.456647 3.093373-23.487764 5.216189-36.093893zm341.351948 42.447794c27.33879 4.330039 44.47358 33.778507 39.517346 65.070937s-30.352465 54.004646-57.691255 49.674607-44.47358-33.778507-39.517346-65.070937 30.352464-54.004646 57.691255-49.674607zm-37.937488 52.803296c-3.353011 21.17008 7.453935 39.743289 22.892268 42.188481s31.455787-11.879449 34.808799-33.049529c3.353011-21.170081-7.453936-39.74329-22.892269-42.188481-15.438333-2.445192-31.455787 11.879449-34.808798 33.049529zm-551.225986-590.5444934c11.789942 1.5543571 24.028257 5.5694746 36.899278 11.8369707 21.376641 10.4092767 31.587842 35.1499397 23.801417 57.5941127l-.080108.228122-.076776.216019c-.025256.071062-.050764.142036-.076522.212918l-.782144 2.152313c-1.021916 2.816343-2.030352 5.612265-3.014669 8.358034l-1.492591 4.176597c-22.902622 64.288985-38.417208 117.328018-46.553073 158.865139-6.065357 30.966278-9.732564 65.984374-11.155369 101.385902l-.003547.066777.233171-.461673c13.32079-26.616108 25.296643-57.520505 35.227273-91.246828l.644743-2.203529c4.269044-14.682902 8.489476-29.717943 13.444184-47.777245l1.810552-6.613132 1.78596-6.545791 6.087279-22.368147 1.697413-6.218882 1.675279-6.11383c12.480106-45.433407 20.457605-71.273681 29.252672-92.485183 5.74027-13.844095 11.623435-24.927868 18.312746-33.750946 9.406255-12.406675 20.807017-20.9192001 35.151672-23.6790114 13.933214-2.6806529 30.896317-1.7228828 50.253992 1.4494483 16.329003 2.6759933 29.971666 5.9135714 36.593657 9.9855581 18.521814 11.389411 28.503714 33.001704 24.751157 54.713417-1.727667 10.135814-3.313492 19.391627-4.757792 27.76914l-.032958.185634.971466-1.027867c17.726575-18.736072 35.03923-35.742221 50.736401-49.712577l1.204268-1.068633c.859312-.760262 1.741566-1.482269 2.786445-2.302315 21.142494-16.593123 52.084194-1.308081 51.759205 25.566214l-.805924 65.171476c-.085045 6.921849-2.412364 13.629485-6.63277 19.116507-.881723 1.146343-1.57419 2.035363-2.12124 2.720556-1.361064 1.704764-2.939979 3.682419-4.736743 5.932961l-.643198.80564c-5.914735 7.408531-14.061045 17.612433-24.438887 30.611651l-.069339.096256c-1.295485 1.774652-7.287818 10.03954-14.127168 19.481692l-.588215.812086c-.68846.950509-1.384291 1.911272-2.083643 2.876977l-1.054529 1.456216-.285687.394531-.571669.789497c-.381168.52642-.762343 1.052873-1.142909 1.578511l-.570317.787741c-.284853.393459-.569192.786221-.852756 1.177928l-.56602.781902c-7.342832 10.143688-14.045355 19.413042-15.549042 21.517054l-.150172.210614c-.042193.059366-.076437.107775-.102471.144868l-.040235.057811c-25.080863 36.554735-60.102961 114.117745-103.866175 231.079332-3.397021 9.078879-8.781529 18.779248-16.136142 29.504018-.695071 1.013579-1.447957 1.986273-2.254916 2.913249-11.501588 13.212176-28.631905 20.371417-46.469614 19.000786l-1.104285-.088178-.19616-.016271-1.085756-.093422-.202644-.018085-1.067226-.098668-.209429-.020057-1.048696-.103912-.107358-.01082c-4.742738-.486099-9.141311-1.121273-13.221189-1.923129l-.162311-.032336-.826338-.166851-.334169-.069331-.807808-.172096-.172017-.037142c-2.161991-.473036-4.242781-.999483-6.330842-1.609768l-.323616-.095519c-.081181-.023961-.162266-.048245-.243253-.072849l-.657988-.199902c-.103382-.031409-.206605-.063341-.309664-.095795l-.672327-.211721c-.098142-.030905-.196134-.062284-.293974-.094135l-.686666-.223539-.141445-.046411c-.322768-.106738-.647237-.215676-.973446-.326812l-.131233-.045027-.715345-.247177-.128058-.044552c-.162232-.056827-.32491-.114192-.48804-.172093l-.122024-.04359-.736855-.264904c-.078625-.028267-.157139-.056841-.23554-.085722l-.751195-.276723-.1137-.04213c-.163555-.060955-.32758-.122433-.492079-.184435l-.108591-.041155-.772703-.294451c-.070081-.026705-.140068-.053657-.209959-.080855l-.787043-.306269-.200824-.07893-.801383-.318088-.097162-.03875c-.166554-.06674-.333604-.133992-.501152-.201754l-.093068-.03781-.914004-.373162c-.168175-.069236-.336854-.138978-.593415-.245659l-.929989-.389525c-.169964-.071743-.34044-.143989-.5936-.251835l-.946442-.405932c-.171905-.074265-.344329-.149031-.594671-.258103l-.88742-.389-.150329-.066357-.901759-.400819-.144647-.064723-.916099-.412637-.13927-.063132-.998146-.455439c-.178484-.081925-.357506-.164345-.602328-.277487l-1.016035-.472039c-.18089-.08451-.36232-.169515-.606122-.284144l-.973457-.459912-.120423-.057201-1.07541-.513734-.527954-.254118c-5.52848-2.667594-10.459628-6.124091-14.707822-10.179145l-.247101-.239415-.277523.249978c-7.776569 6.935386-16.061231 12.745602-24.877725 17.313836l-.703752.360186-.030226.019899c-23.200737 13.807166-58.18785 9.672804-97.295185-11.248315l-1.223437-.659248c-21.554551-11.698224-35.486653-33.252776-43.859265-62.081388-.295245-1.016592-.583811-2.043372-.86574-3.08028l-.015147-.054668c-24.987718 23.916387-46.7473714 41.754779-66.5790518 55.056143l-.8139185.544081c-.6654228.443322-1.5851981 1.048786-2.785081 1.833779-21.2721776 13.91678-49.49667533-1.330096-49.51906382-26.750202l-.04689727-53.219472c-.00696033-7.93099 2.93148199-15.582 8.24554729-21.469391 1.1344357-1.256828 1.9781765-2.193602 2.5225079-2.800565 31.9753498-35.654459 55.2611553-67.593678 69.8754233-95.526326 10.9620179-20.952003 20.8040129-42.442069 29.7347639-65.286781 3.699285-9.462708 9.580995-27.52867 16.918459-51.690456.814262-2.681312 1.643753-5.42867 2.487912-8.239623 4.228593-14.08072 8.581943-28.932595 13.295234-45.25587.647233-2.241527 2.092255-7.267386 3.537027-12.289647l.247524-.860404.206458-.717607c1.613432-5.607733 3.120801-10.841497 3.390031-11.746402 3.085205-10.369613 5.028884-16.90247 6.917118-23.24897l.458785-1.542014.367788-1.236163c.17702-.594979.35494-1.192981.534644-1.796979l.180331-.606108.177835-.597719c2.737932-9.202402 6.009174-20.197299 12.805077-43.03886.057527-.193352.116881-.386155.178054-.578385 6.215524-19.5316386 23.555183-33.4182323 43.973108-35.2150363 10.241048-.9012253 19.865706-.7932596 28.894489.3970729zm589.163474 393.9499724c27.33879 4.330039 44.47358 33.778507 39.517346 65.070937s-30.352465 54.004646-57.691255 49.674607-44.47358-33.778507-39.517346-65.070937 30.352464-54.004646 57.691255-49.674607zm-607.492146-361.897544c-8.20581.251171-15.344009 5.691812-17.761379 13.537489l-.021075.063987-.820765 2.672637c-27.385609 89.258457-44.607647 163.105146-51.677883 221.465471l-.213265 1.781703c-13.143206 111.15858-4.529381 193.310161 27.67065 211.22649 17.271802 9.610155 32.008108 14.505701 43.69578 15.374564l.139483.009135-.240028-.149949c-12.475017-7.911154-20.407224-22.137494-22.459549-44.128571l-.063502-.704481c-5.722908-65.799003-3.067076-150.428787 9.823609-217.900297 9.03991-47.316059 26.365097-107.255842 51.973461-179.887738l.016009-.046964.089969-.262178c2.128995-6.53173-.957079-13.634605-7.183203-16.535073l-.298847-.134922c-7.049942-3.081198-13.430145-4.989583-19.117901-5.758345-4.158677-.56209-8.676175-.772137-13.551564-.622958zm168.5383 24.899786c-.501114 3.672547-1.06073 7.760877-1.678856 12.265053-.093967.684722-1.77236 13.562177-2.610939 19.786703-1.643432 12.198718-3.403342 24.566299-5.401795 37.715055-5.561363 36.590812-11.996333 72.814327-19.46348 107.628089-13.84935 64.569236-32.228802 137.948174-55.138984 220.147697-3.841334 13.778271 3.012667 28.263133 16.044997 34.052099l.397093.172512c3.727552 1.590179 6.979925 2.805662 9.736552 3.646612l.511053.153289c2.289202.674663 4.987509 1.267573 8.085772 1.769156 13.757534 2.228411 26.877538-6.621071 29.965159-20.211588l.704521-3.100778c23.167501-102.073988 39.44521-177.278982 48.826683-225.578646 10.626267-54.708375 21.383016-113.665678 32.269816-176.87052.006461-.037624.006461-.037624.012839-.075261 2.133867-12.634071-6.378229-24.60585-19.0123-26.739717l-.057149-.011213-2.996497-.500072c-1.017676-.168604-2.034796-.335536-3.051361-.500798l-3.048029-.490772c-4.239699-.676042-8.498052-1.086947-12.776948-1.232974-10.665161-.363865-19.875516 7.40251-21.318147 17.976074zm-12.239489-13.792559-.012455.012835c-16.96332 16.145874-30.716271 61.461828-47.028917 120.847473l-1.669954 6.094419-1.688998 6.188112-6.080997 22.345094-1.79144 6.565902-1.817927 6.640117c-4.273784 15.577432-8.774929 31.732018-13.580802 48.261285-20.683763 71.13951-51.740072 136.059999-89.667805 175.21132.351277 5.611895.761458 11.115359 1.228774 16.488315 1.534888 17.647343 6.98478 27.528032 15.152029 32.707372 2.277621 1.444376 4.729756 2.499251 7.531483 3.333775 1.693208.50434 6.952742 1.720376 6.944393 1.718182 1.650257.433702 2.924598.857202 4.03644 1.522412 17.01755-10.604818 31.395085-28.115336 43.126439-48.621921 21.831064-78.782094 39.417747-149.277866 52.759967-211.482729 7.392784-34.46706 13.773094-70.382889 19.289331-106.67679 1.983986-13.053572 3.731372-25.333146 5.363385-37.447106.244504-1.814876.562586-4.212247.892436-6.711581l.099247-.752378.199127-1.511578c.033135-.251726.066202-.503031.09914-.753432l.098362-.748018c.619717-4.71421 1.170351-8.929143 1.227945-9.348824.617593-4.500286 1.176656-8.584583 1.677172-12.252744.567042-4.156061 1.812409-8.06699 3.613625-11.629512zm413.255847 403.593613c-3.353011 21.17008 7.453935 39.743289 22.892268 42.188481s31.455787-11.879449 34.808799-33.04953c3.353011-21.17008-7.453936-39.743289-22.892269-42.18848-15.438333-2.445192-31.455787 11.879449-34.808798 33.049529zm-651.246826-210.000644-.373349 1.093583c-1.597557 4.653824-3.071594 8.741313-4.372161 12.068143-9.869568 25.24619-20.38702 47.832594-31.184539 68.470187-15.982397 30.54759-40.7844081 64.566463-74.4060334 102.056619-.4085637.455573-.9659733 1.075005-1.6722289 1.858294l-.4416148.489637c-.1531588.169767-.3122714.346088-.4773379.528963l.0468725 53.219471c1.1315798-.740307 1.9855393-1.302447 2.5618783-1.686419 16.9407263-11.28635 37.9647866-27.946931 64.9846712-53.982447 2.64529-2.548919 5.321818-5.305206 8.029581-8.268858l1.016875-1.12109c3.564188-3.957836 7.182182-8.272893 10.853979-12.945167l1.050549-1.344655.526372-.679618 1.006926-1.310948c3.528908-4.619318 7.106837-9.564116 10.733783-14.834393.5854-.884087 1.143598-1.72716 1.674595-2.529219-.948773-32.01296 1.10276-68.838537 5.749666-108.139719 1.241298-10.498271 2.805159-21.47892 4.691516-32.942364zm425.072736-165.959033c-.592927.465343-1.039232.830584-1.338915 1.095723-34.956656 30.927319-79.800149 79.196471-118.575816 128.073069-3.091307 16.514848-6.172637 32.676803-9.243298 48.485825-8.69131 44.746419-23.244982 112.341634-43.666079 202.81418 41.793599-110.249339 75.562669-184.134735 101.307605-221.65734 1.5631-2.278179 38.193587-52.806297 38.794-53.600464 14.180406-17.762287 24.23304-30.353946 30.157904-37.774975.402033-.503557.989992-1.258405 1.763875-2.264543zm347 261c-.592927.465343-1.039232.830584-1.338915 1.095723-3.117307 2.757986-6.313239 5.653881-9.57648 8.675818 3.755085 3.360838 7.315724 6.931732 10.66489 10.693968zm-185.744513-28.837077-.117762.099827c-6.312056 5.430922-12.16888 14.875915-17.859593 27.578351 3.980025-2.666804 8.12016-5.117944 12.402479-7.337465.330356-2.413017.640908-4.684616.931699-6.815752.669449-4.906636 2.284354-9.471603 4.643177-13.524961zm11.782959 12.907549.084587-.030273c9.011554-3.090472 18.483613-5.2176 28.298073-6.255322l.560323-.054564.537099-.066057c.643623-.073152 1.289813-.130759 1.938029-.172643l.405872-.0223.584985-.047173c2.746379-.204476 5.504303-.322077 8.270623-.35219l.421392-.001637 12.414167-.532209c-3.02104-2.479297-6.710336-4.22792-10.840041-4.925418l-.057149-.011213-2.996496-.500073c-1.017676-.168603-2.034797-.335536-3.051362-.500797l-3.048029-.490772c-4.239699-.676042-8.498052-1.086948-12.776948-1.232974-9.706114-.331145-18.207302 6.071497-20.745125 15.195615z"/></svg>