<svg id="Laag_2" data-name="Laag 2" xmlns="http://www.w3.org/2000/svg" viewBox="0 0 245.83 297.57"><title>Box Homey 2</title><rect x="89.7" y="182.68" width="5.05" height="21.47"/><path d="M501.69,177.19l-48.59-7.92,40.59,6.92c12.34,1.86,14.34,5.65,2.47,12.71l-20.54,11.83a32.36,32.36,0,0,1-20.1,3.9L275,176.66c-12.42-2.4-10.94-8.3-2.38-12.27L285,157.84l-17.38,8.55c-5.52,3.11-5.25,12.29,3.38,14.27l185.54,30a32.36,32.36,0,0,0,20.1-3.9l27.54-16.83A6.82,6.82,0,0,0,501.69,177.19Z" transform="translate(-262.81 -145.79)" style="fill:none;stroke:#000;stroke-miterlimit:10;stroke-width:2px"/><path d="M302,149.44A24.76,24.76,0,0,1,316.49,147,25.38,25.38,0,0,0,302,149.44Z" transform="translate(-262.81 -145.79)" style="fill:#fff;stroke:#000;stroke-miterlimit:10;stroke-width:2px"/><path d="M316.49,147h.05L453.1,169.27" transform="translate(-262.81 -145.79)" style="fill:#fff;stroke:#000;stroke-miterlimit:10;stroke-width:2px"/><path d="M302,149.44a20.88,20.88,0,0,0-4.2,1.62L285,157.84l15.83-7.78C301.2,149.84,301.61,149.64,302,149.44Z" transform="translate(-262.81 -145.79)" style="fill:#fff;stroke:#000;stroke-miterlimit:10;stroke-width:2px"/><path d="M362.31,176.77l36.79,5.91c4,.64,7.42-.4,7.73-2.32s-2.66-4-6.62-4.63l-36.79-5.91c-4-.64-7.42.4-7.73,2.32S358.34,176.14,362.31,176.77Z" transform="translate(-262.81 -145.79)" style="fill:none;stroke:#000;stroke-miterlimit:10;stroke-width:2px"/><path d="M490.91,412.67a127.75,127.75,0,0,1-19.54,15.48c-4.84,3.23-11.66,10.42-27,6.63L278.55,396.16a19.62,19.62,0,0,1-14.22-18.91v-.73l-.53,4c-1.05,20.12,28,28.36,36.14,30.54l142.43,31.14c10.3,2.75,20.49.45,29.18-6.78,5.62-4.68,23.14-19.31,26.82-22.88A19.82,19.82,0,0,0,504.14,399a18,18,0,0,1-2,2.27C499.54,404,495.71,408,490.91,412.67Z" transform="translate(-262.81 -145.79)"/><path d="M263.81,173.89V377.26A19.63,19.63,0,0,0,278,396.17l165.82,38.62c15.34,3.79,22.15-3.4,27-6.63a128.74,128.74,0,0,0,19.54-15.48C495.19,408,499,404,501.61,401.3a19,19,0,0,0,6-13.86V185.55" transform="translate(-262.81 -145.79)" style="fill:none;stroke:#000;stroke-miterlimit:10;stroke-width:2px"/></svg>