<svg height="960" viewBox="0 0 960 960" width="960" xmlns="http://www.w3.org/2000/svg"><path d="m539.337607 3c23.883731 0 43.311734 19.0772327 43.836674 42.8356001 1.299669 4.0253263 1.994222 8.3210961 1.994222 12.7790872l-.000001 809.3018357 39.46306 8.705896c36.269561 8.001382 43.000926 56.811202 10.251001 74.331065-2.832184 1.515102-5.41145 2.5057-8.015065 3.274374-1.513517.446841-2.944871.785656-4.378927 1.065645-1.853664.361914-3.674589.61754-5.629872.824261-2.77123.292987-5.993774.500492-9.863069.657544-6.79865.275952-16.058762.407914-27.937302.407914h-198.087832c-11.87854 0-21.138652-.131962-27.937302-.407914-3.869295-.157052-7.091839-.364557-9.863069-.657544-1.955283-.206721-3.776208-.462347-5.629872-.824261-1.434056-.279989-2.86541-.618804-4.378927-1.065645-2.603616-.768674-5.182881-1.759272-8.015065-3.274374-32.749925-17.519863-26.01856-66.329683 10.251001-74.331065l39.725326-8.763754-.000001-809.2439777c0-6.7934349 1.612892-13.2101586 4.513674-18.8666469 3.367107-20.8515082 21.456238-36.7480404 43.258204-36.7480404zm-127.931322 898.032371c-.652033 0-1.302136.070857-1.938859.211324l-65.453014 14.439506c1.869329 1.000014 14.188023 1.500021 36.956084 1.500021h198.087832c22.76806 0 35.086755-.500007 36.956084-1.500021l-65.453014-14.439506c-.636723-.140467-1.286826-.211324-1.938859-.211324l-.262597.000679c-.079576.016183-.159335.031929-.239275.047234-12.14374 2.325025-34.384404 3.367942-67.975122 3.367942s-55.831383-1.042917-67.975123-3.367942l-.239422-.048284zm5.716302-844.4176837c-1.10457 0-2 .8954305-2 2v821.8399977c0 .057925.004958.114898.014508.170462.037829.220361.148034.418719.307636.5662.132327.122352.29897.209807.486556.245722 10.484964 2.007438 31.889717 3.011157 64.214258 3.011157s53.729293-1.003719 64.214257-3.011157c.225619-.043197.420942-.160951.563083-.32466.118184-.136117.199599-.303995.231099-.4872.00956-.055626.014519-.112599.014519-.170524l.001112-86.157296c-9.852545 8.351011-22.603423 13.387513-36.530639 13.387513-38.037928 0-68.873761-30.835833-68.873761-68.873761v-547.499893c0-13.195365 11.07697-23.68865 24.256805-22.96826 13.481939.736903 28.35703 1.106791 44.616956 1.106791 14.655729 0 25.22978-.303367 31.434224-.870948 1.736383-.158844 3.441883-.12109 5.09564.094168l-.000356-21.165208c-2.156714.915123-4.494399 1.497872-6.95181 1.681925-10.221939.76559-21.860686 1.144368-34.940454 1.144368-13.20042 0-26.795907-.385937-40.787136-1.156888-11.655093-.642225-20.789941-10.278762-20.789941-21.964745v-49.2570105c0-2.9682277-.761566-6.7086145-2.439953-11.1988217-1.166973-3.1220156-2.742163-6.5077052-4.732206-10.1419774zm96.756912 132.8216687-.001103 597.875615c1.915306-.275095 3.782623-.698773 5.589895-1.258978l-.000209-596.665177c-1.786173.022082-3.649034.038262-5.588583.04854zm-25.590422-.190497-.00023 594.013873c1.80676.828551 3.672756 1.55018 5.589888 2.156789l-.001459-596.071833c-1.882283-.027526-3.745016-.060467-5.588199-.098829zm53.606113-.750192c-.75966.069493-1.568643.13519-2.426949.197091l.000183 582.065879c3.609033-5.663991 5.700079-12.389431 5.700079-19.603261v-559.670308c0-1.765523-1.515132-3.15024-3.273313-2.989401zm-82.129975 2.815581v547.499893c0 10.234555 3.145849 19.734357 8.523341 27.5852l-.000047-577.81538c-1.808237-.084583-3.594248-.175363-5.358031-.27235-1.720235-.089457-3.165263 1.279834-3.165263 3.002637zm29.600003-38.421272c3.483921 0 6.308197 2.830055 6.308197 6.321105s-2.824276 6.321105-6.308197 6.321105-6.308198-2.830055-6.308198-6.321105 2.824277-6.321105 6.308198-6.321105zm39.790168 0c3.483921 0 6.308197 2.830055 6.308197 6.321105s-2.824276 6.321105-6.308197 6.321105-6.308197-2.830055-6.308197-6.321105 2.824276-6.321105 6.308197-6.321105zm-67.456243-74.9345355v49.2570105c0 1.061209.83072 1.936652 1.890321 1.995038 13.630301.751063 26.85922 1.126595 39.686756 1.126595 12.608843 0 23.757744-.362836 33.446702-1.088508 1.044816-.078253 1.851199-.949009 1.851199-1.996751v-45.4912194c0-5.8589088-2.100256-15.8883961-4.946593-25.142977l-76.883718-.0005772c3.303556 7.8392303 4.955333 14.9530266 4.955333 21.3413891z"/></svg>