<?xml version="1.0" encoding="utf-8"?>
<svg version="1.1" id="Layer_1" xmlns="http://www.w3.org/2000/svg" xmlns:xlink="http://www.w3.org/1999/xlink" x="0px" y="0px"
	 viewBox="0 0 1397.9 1370.1" style="enable-background:new 0 0 1397.9 1370.1;" xml:space="preserve">
<g>
	<path d="M698.3,107.9c-137.1,0-266,53.4-363,150.3c-97,97-150.3,225.9-150.3,363s53.4,266,150.3,363c97,97,225.9,150.3,363,150.3
		s266-53.4,363-150.3c97-97,150.3-225.9,150.3-363s-53.4-266-150.3-363C964.3,161.3,835.4,107.9,698.3,107.9z M1042.1,965
		c-91.8,91.8-213.9,142.4-343.8,142.4s-252-50.6-343.8-142.4c-91.8-91.8-142.4-213.9-142.4-343.8c0-129.9,50.6-252,142.4-343.8
		C446.3,185.5,568.4,135,698.3,135s252,50.6,343.8,142.4c91.8,91.8,142.4,213.9,142.4,343.8S1134,873.2,1042.1,965z"/>
	<circle cx="1228.2" cy="349.9" r="48.3"/>
	<path d="M1388,261.2c-1-28-16-53.6-40-68.1c-102.1-61.8-208.5-108.9-316.1-139.9c-108.1-31.2-220.4-47-333.6-47
		C585,6.1,472.9,21.9,365,53.1c-107.5,31.1-213.6,78.2-315.2,140c-23.9,14.5-38.9,40.1-39.8,68.1c-5.3,152.4,4,291,27.7,411.9
		c24.3,124,64.6,233.7,119.7,325.9c56.2,94.1,129.3,172.5,217.1,233.1c86.4,59.6,189.1,103.3,305.4,129.9c6.1,1.4,12.3,2.1,18.5,2.1
		c6.2,0,12.4-0.7,18.5-2.1c116.2-26.6,219-70.3,305.5-129.9c88-60.6,161.2-139,217.5-233c55.3-92.2,95.7-201.9,120.2-325.9
		C1383.9,552.2,1393.3,413.6,1388,261.2z M698.3,1281C273.4,1183.8,72.4,851.4,92.9,264C284.6,147.5,486.4,89.2,698.3,89.2
		c211.9,0,414.2,58.3,606.7,174.9C1325.5,851.4,1123.2,1183.8,698.3,1281z"/>
	<g>
		<path d="M1006.9,312.6c-82.4-82.4-192-127.8-308.6-127.8c-116.6,0-226.2,45.4-308.6,127.8c-82.4,82.4-127.8,192-127.8,308.6
			s45.4,226.2,127.8,308.6c82.4,82.4,192,127.8,308.6,127.8c116.6,0,226.2-45.4,308.6-127.8c82.4-82.4,127.8-192,127.8-308.6
			S1089.3,395,1006.9,312.6z M698.3,956.9c-185.1,0-335.7-150.6-335.7-335.7c0-185.1,150.6-335.7,335.7-335.7S1034,436.1,1034,621.2
			C1034,806.3,883.4,956.9,698.3,956.9z"/>
		<path d="M698.3,294.5c-180.2,0-326.7,146.6-326.7,326.7s146.6,326.7,326.7,326.7S1025,801.4,1025,621.2S878.4,294.5,698.3,294.5z
			 M533.9,394.7c46.2-33.6,103-53.5,164.4-53.5c63.8,0,122.6,21.4,169.8,57.5c0.4,3.9,0.6,7.7,0.6,11.6
			c0,57.9-38.1,108.1-93.4,132.2c-19.8-19.4-47-31.4-76.9-31.4c-29.2,0-55.7,11.4-75.3,29.9c-53.5-24.7-90.1-74-90.1-130.7
			C532.9,405.1,533.2,399.9,533.9,394.7z M698.3,901.2c-154.4,0-280-125.6-280-280c0-88.6,41.4-167.7,105.8-219.1
			c-0.2,2.7-0.3,5.5-0.3,8.2c0,59.3,37.4,111,92.4,137.5c-17.4,19.5-28.1,45.2-28.1,73.4c0,60.8,49.3,110.1,110.1,110.1
			c60.8,0,110.1-49.3,110.1-110.1c0-27.4-10-52.5-26.6-71.8c56.9-26,95.9-78.7,95.9-139.2c0-1.3-0.1-2.7-0.1-4
			c61.6,51.4,100.8,128.7,100.8,215C978.3,775.6,852.7,901.2,698.3,901.2z"/>
	</g>
</g>
</svg>
