<svg height="960" viewBox="0 0 960 960" width="960" xmlns="http://www.w3.org/2000/svg"><path d="m152.052763-1.55112897 639.059685 48.42109857c29.20303 2.2126929 51.769048 26.553204 51.769048 55.8399414v731.928113c0 28.559819-21.492222 52.544043-49.881035 55.664695l-617.520825 67.881237c-4.111832.451995-8.268895.26344-12.322924-.558941l-26.46803-5.369174c-26.104697-5.295471-44.8668715-28.24579-44.8668715-54.882178v-843.0848507c0-1.411831.0533911-2.823157.1600588-4.2309527 2.3366906-30.839548 29.2313457-53.94567922 60.0708937-51.60898857zm-20.185221 54.63109767c-.030477.4022273-.045731.8054633-.045731 1.2088436v843.0848507c0 7.610397 5.360621 14.167631 12.819106 15.680622l17.371043 3.524947c-.591038-2.141681-.915196-4.394935-.934184-6.722096l-7.057593-864.866658c0-.7308294.019757-1.4615852.075364-2.1903204.10536-1.3807688.316741-2.7280888.625557-4.0345901l-5.69045-.4310241c-8.811299-.6676259-16.495486 5.9341258-17.163112 14.7454253zm42.170033-8.7581303c-.017392.1681696-.017392.3368056-.017392.5054585l7.056927 864.8666581c.027037 3.313598 2.735157 5.977882 6.048755 5.95105.204477 0 .408736-.013993.611975-.036518l607.510589-67.329931c4.518161-2.774928 7.514384-7.715784 7.62962-13.305939l.003447-732.262706c0-8.3676394-6.447434-15.3220711-14.791157-15.9542691l-612.144336-46.3819977c-1.07301.9920363-1.788475 2.3761761-1.908428 3.9481942zm116.673848 124.2909916 458.530485 25.658569c5.2975.296439 9.441292 4.678593 9.441292 9.98438v541.976187c0 5.21183-4.002899 9.549761-9.197938 9.967783l-451.93585 36.365244c-5.777088.464857-10.738191-4.063191-10.801467-9.858606l-6.595245-604c-.062555-5.785286 4.782131-10.416805 10.558723-10.093557zm9.557292 20.56538 6.361 582.591 432.053-34.766v-523.292zm265.864706 123.472147c44.915956 7.113988 83.784757 33.62877 109.043768 73.188707 24.449453 38.29203 34.332295 86.103299 26.729473 134.105633-7.602823 48.002334-31.77646 90.419587-66.862159 119.282175-36.24744 29.818272-81.407385 43.024208-126.323341 35.910219-44.915955-7.113988-83.784757-33.62877-109.043768-73.188707-24.449452-38.292029-34.332295-86.103299-26.729472-134.105633s31.776459-90.419587 66.862158-119.282175c36.24744-29.818272 81.407385-43.024208 126.323341-35.910219zm-113.617465 51.35563c-31.300237 25.748549-52.97435 63.779911-59.814268 106.965453-6.839918 43.185543 2.021052 86.053187 23.832606 120.213817 22.250291 34.847766 56.192054 58.001513 95.315558 64.198067 39.123504 6.196555 78.55894-5.335386 110.488775-31.601863 31.300237-25.748549 52.97435-63.779911 59.814268-106.965453 6.839918-43.185543-2.021052-86.053187-23.832606-120.213817-22.250291-34.847765-56.192054-58.001513-95.315557-64.198067-39.123504-6.196555-78.55894 5.335387-110.488776 31.601863zm109.877058-27.739631c78.0793 12.366547 129.646689 93.129909 115.897648 179.937934-13.749041 86.808026-87.749793 147.683348-165.829093 135.316802-46.778611-7.409005-84.041016-39.368417-103.442403-82.469568-.049889-.105208-.099547-.21179-.147961-.319939-7.628956-17.041921-12.373182-35.604266-13.945836-54.831165-.010152-.12412-.018037-.247741-.023693-.370833-.95808-11.972458-.690538-24.283475.915372-36.7457l.259237-1.904137c.010481-.092289.022254-.184748.035334-.277358l.047908-.336796c.010636-.074308.02132-.14862.032051-.222938l-.079959.559734c.142177-1.006636.292943-2.013077.452302-3.019234.126913-.801293.259048-1.600969.396386-2.398984l.034105-.19743.015492-.089384c.13322-.766744.271245-1.531948.414056-2.29557.020781-.110795.04139-.220414.062095-.329988.139211-.737195.283202-1.474153.431652-2.209587.022903-.112779.04574-.225337.068678-.337847.152975-.751186.310793-1.500955.47325-2.249087.022864-.104131.045541-.20809.068305-.312008.169556-.775399.34441-1.549238.524233-2.321267.011629-.048217.022908-.096534.034205-.144841.180525-.773873.366426-1.545823.557299-2.315906.023148-.091088.045869-.18242.068658-.273718.18442-.741395.37393-1.480642.568027-2.218113.02684-.099049.053005-.198085.079251-.297079.196372-.743898.398187-1.485918.604653-2.226082.021432-.07327.041863-.146307.062337-.21932 2.116475-7.553659 4.718837-14.913762 7.7855-22.036792.054451-.126475.110603-.250855.168405-.373149 27.298844-62.987385 88.966371-102.677915 153.412506-92.47065zm-49.840727 294.551695-.796221.271824c1.269751.247776 2.5479.473721 3.834192.67745 46.796816 7.411887 92.427842-16.472855 119.626267-57.831325-.430686.047762-.866603.069677-1.308776.062786-2.273703-.035438-4.358323-.827034-6.018096-2.131559l-36.960524-5.645786c-18.356448 30.658382-46.293772 53.492337-78.376842 64.59661zm-4.948249-270.522428-.792936.260291c-33.680039 11.343209-62.651347 38.370725-78.816763 74.600388l.005568 35.528642c.337309.03164.675442.074156 1.0141.127794 9.738324 1.542399 16.22241 11.697588 14.482611 22.682249-1.540872 9.728681-9.015735 16.845174-17.470219 17.273862 1.249946 1.681383 1.973601 3.756304 1.973601 5.964338l-.004626 45.742612c10.964239 23.529398 28.014627 42.99382 49.245059 55.493823l-.223314.016426c39.182505-3.049907 75.132775-26.211411 96.507092-61.630047-.065574-.457409-.09873-.924214-.09873-1.397823v-52.341068c0-5.522848 4.477153-10 10-10l9.889993-.000467c.308602-4.81967.369503-9.626951.185422-14.406247l-10.468499-.411549c-5.365767-.211083-9.606916-4.622355-9.606916-9.992271v-49.965987c0-1.520376.339878-2.963546.948769-4.256237-15.451031-25.627003-38.981593-44.634396-66.770212-53.288729zm90.232443 152.321487h-4.411v33.752l30.83733 4.710051.546-35.027zm-70.777057-28.181023c1.590674-10.043119 10.097973-17.041487 19.001584-15.631294 8.903611 1.410194 14.831918 10.694938 13.241244 20.738056-1.590674 10.043119-10.097972 17.041488-19.001583 15.631294-8.903611-1.410193-14.831918-10.694937-13.241245-20.738056zm133.121826-6.442545-.043435.037117c-1.853748 1.653518-4.329479 2.631111-7.044153 2.524318l-39.555206-1.556701c.147195 5.121068.048536 10.266279-.298277 15.420605l40.4448 5.151809c2.460348.313416 4.597944 1.496126 6.142951 3.200783.782905-8.390369.883685-16.673715.35332-24.777931zm-33.426439-51.596381-33.32933 1.11387v30.681l8.56133.33613.120892-.010049c.813509-.060179 1.612633-.020778 2.385023.108135l21.735085.854914zm-83.326774-71.711189.491208.299565c20.601227 12.616471 37.82408 30.667135 50.038665 52.497342l41.601888-1.391108c.114816-.015638.230239-.029322.346235-.041018-18.029592-26.386337-44.847687-44.994951-76.641708-50.03063-5.302099-.83977-10.589233-1.277785-15.836288-1.334151zm153.164335-33.886661c-.36567 16.629468-10.808389 31.166669-25.229143 31.436224-14.81916.277003-24.99393-14.405491-24.622935-31.277141.365669-16.629468 10.808388-31.166669 25.229142-31.436224 14.81916-.277002 24.99393 14.405491 24.622936 31.277141zm-24.267847-12.280705c-.89849.01704-2.183414.800712-3.512175 2.650466-1.817596 2.530257-2.988626 6.204048-3.076648 10.207017-.086545 3.935776.888272 7.44099 2.489625 9.75179 1.079089 1.557157 2.04395 2.124786 2.782813 2.11122.89849-.01704 2.183414-.800711 3.512175-2.650466 1.817596-2.530256 2.988626-6.204047 3.076648-10.207016.086545-3.935776-.888272-7.440991-2.489625-9.751791-1.079089-1.557156-2.04395-2.124785-2.782813-2.11122zm-46.472386-18.713978c4.17347-.078011 7.451335 4.652044 7.321316 10.564875-.130019 5.91283-3.618685 10.769367-7.792155 10.847378-4.17347.078012-7.451334-4.652044-7.321316-10.564875.130019-5.91283 3.618685-10.769367 7.792155-10.847378z"/></svg>