<svg height="960" viewBox="0 0 960 960" width="960" xmlns="http://www.w3.org/2000/svg"><path d="m900.569029 1c22.09139 0 40 17.90861 40 40v855.202509c0 19.76725-14.338652 36.185528-33.182451 39.421332-1.477112 1.323845-3.473516 2.232737-6.001119 2.43979-324.497657 26.581724-514.307373 26.581724-841.8067961.000607-2.5315266-.205468-4.5307121-1.115089-6.0092024-2.441421-18.843168-3.23478-33.1818192-19.653058-33.1818192-39.420308v-855.202509c0-22.09139 17.90861-40 40-40zm0 40h-840.1813877v855.202509h840.1813877zm-111.184163 415.507981c12.593175-12.619818 34.157071-3.701105 34.157071 14.127184v298.341583c0 32.074255-26.496409 58.544131-58.582766 58.544131h-564.711391c-32.455495 0-58.582766-26.336253-58.582766-58.544131v-298.341583c0-17.83582 21.57946-26.751108 34.168096-14.116128l306.53089 307.657963zm-607.719866 62.538019v249.930748c0 10.18751 8.290325 18.544131 18.58278 18.544131h248.90722zm601.876937-.054-267.961937 268.528879h249.379171c9.894 0 18.394048-8.38292 18.579668-18.215839l.003098-.328292zm-24.051171-391.32167c34.218137 0 62.057765 27.634446 62.057765 62.092879v167.250521c-.028254 8.462704-1.02592 15.703101-3.879637 23.412199-3.580504 9.672457-9.74873 18.560979-18.785303 26.669486l.36505-.331415-288.081934 283.81928-16.136402 15.646059c-7.757479 7.521321-20.086289 7.521321-27.843768 0l-16.022006-15.534254-288.330531-284.061085-.793165-.749997c-15.389049-14.738146-21.244959-30.466626-21.372524-48.652404v-167.468452c0-34.092795 27.976705-62.092817 62.057764-62.092817zm0 40h-556.764691c-11.982206 0-22.057764 10.083955-22.057764 22.092817v166.867956c0 8.383142 2.06312 13.889382 9.637115 20.928238l.212054.199971.209117.20304 288.396099 284.126519 1.985304 1.924129 1.986146-1.924129 288.396099-284.126519c.221411-.218134.447878-.431076.679214-.638655.250802-.225044.495273-.448067.733556-.669277l.696436-.658393c5.877429-5.662493 7.670319-10.238369 7.917747-17.357894l.021835-.832979c.009498-.28156.009498-.567089.009498-.856794v-167.185213c0-12.300473-9.865051-22.092817-22.057765-22.092817z"/></svg>