<svg height="960" viewBox="0 0 960 960" width="960" xmlns="http://www.w3.org/2000/svg"><path d="m512.359271 1.86730436.602729.13369564 1.657299.00177893c6.733433.02910676 13.496403.28665381 20.281115.77376954l2.036058.15302291c81.670832 6.41243039 155.539283 38.93425762 209.286227 92.30232712 55.820434 55.4269425 86.777301 130.0379995 86.777301 213.7554405v343.025322c0 84.184103-30.929534 158.845677-86.817151 214.183826-53.677037 53.149303-127.490547 85.454838-209.246377 91.873942-23.270585 1.827102-46.271234.953582-68.67535-2.556546l-92.44655-9.727005c-2.649287-.27874-5.215489-.811895-7.675375-1.573627l-.325197-.103251-.907321-.123302c-137.782908-19.777946-238.827196-133.935536-240.874978-275.97784l-.031701-4.401879v-367.213958c0-144.098735 101.691313-260.2499419 240.58166-280.3339602l2.89434-.3960608.161492-.0616428c2.945264-1.0911222 6.060129-1.8482139 9.301209-2.2235745l.609171-.0658951 120.450332-12.11120453c4.256558-.42799425 8.410887-.17487809 12.361067.66662129zm-243.361293 289.58252664v377.100338c0 149.034934 118.157777 260.578252 263.912783 249.138975s259.299935-114.286926 259.299935-266.178055v-343.022178c0-100.788144-50.684145-180.610051-127.795649-225.9032993-38.104683-22.2073348-82.609815-36.0100405-130.609561-39.778767-10.079459-.7913943-20.026889-.9941777-29.812317-.6366571l.001544-.5275342c-132.151122 4.3537891-234.996735 110.7639606-234.996735 249.8071776zm118.078965-238.6991314-3.527275.360505-.006453 1.1645824c-123.636506 12.3317593-217.543215 112.710824-217.543215 242.117234v367.213958c0 128.167657 92.117456 227.861043 214.000886 241.738941l-.000886.660533 5.957463.635011c-82.089054-44.834849-136.959485-132.939099-136.959485-238.091295v-377.100338c0-105.62948 55.369673-194.0559011 138.078965-238.6991314zm142.50098 12.0259328c65.498466 0 127.56709 29.0059765 174.489418 77.1729536 42.294873 43.416775 65.546994 101.378717 65.546994 166.539325v343.022178c0 65.457515-23.126976 123.39159-65.313402 166.697043-47.388682 48.645701-107.911784 77.015236-174.72301 77.015236-71.682676 0-125.044092-18.022935-167.770173-58.357214-44.770618-42.264364-70.213411-102.343095-70.213411-168.315985v-377.100338c0-65.97289 25.442793-126.051621 70.213411-168.315985 42.3679-39.9961495 97.217231-58.3572136 167.770173-58.3572136zm0 20c-63.786035 0-114.613251 15.6800026-154.040964 52.9005566-39.751592 37.526303-63.94262 91.86594-63.94262 153.772642v377.100338c0 61.906702 24.191028 116.246339 63.94262 153.772642 39.427713 37.220554 88.436692 52.900557 154.040964 52.900557 65.604273 0 120.373137-29.88555 160.396991-70.971066 37.385966-38.377656 59.639421-90.781643 59.639421-152.741213v-343.022178c0-61.647132-22.376827-114.092696-59.873013-152.583495-40.004425-41.065572-96.377363-71.1287836-160.163399-71.1287836zm1.422077 70.2233676c9.941125 0 18 8.058875 18 18v68c0 9.941125-8.058875 18-18 18s-18-8.058875-18-18v-68c0-9.941125 8.058875-18 18-18z"/></svg>