<svg height="960" viewBox="0 0 960 960" width="960" xmlns="http://www.w3.org/2000/svg"><path d="m161.199626 136.547097 565.638746 35.75386c54.511417 3.44565 100.944344 40.84852 115.919269 93.375835l109.602218 384.45002c1.525329 5.350371 2.562182 10.828075 3.097817 16.365781 4.891784 50.574169-32.141107 95.538208-82.715252 100.429989l-527.059424 50.979473-.318965.046534c-.780599.103817-1.569939.185749-2.367538.245065l-.800334.05175-.123163.006651-22.236235 2.150298c-20.832717 2.015044-41.563681-1.047286-60.633761-8.740833l-.063004-.026465-.43951-.08902c-5.269916-1.089477-10.663018-2.259347-16.066904-3.488378l-2.316283-.530288-1.762361-.40827c-2.754961-.641495-5.492569-1.294197-8.250969-1.967964l-1.784211-.43821c-2.793863-.6899-5.550604-1.387978-8.26116-2.092478-32.190802-8.366704-62.462508-18.678558-77.411071-26.809638-34.955686-19.013697-60.0740266-39.380779-78.6107024-67.406524-10.3536827-15.653813-23.1731973-52.966315-35.8024438-99.345493-12.5398152-46.050755-20.71140659-86.069765-20.4260553-106.509563.56823842-40.703087 6.0952643-79.010604 16.2646662-125.189015.7510566-3.410486 2.1314841-9.475903 3.5682377-15.743727l.2398823-1.046091.3604894-1.570644.2399107-1.044423.0923153-.40171.1840397-.800572c2.019358-8.782206 3.8547317-16.699634 3.8840651-16.81018l.1373553-.601546c2.6617129-11.710545 4.1986375-19.323992 5.0552093-25.250976 4.9364293-34.157244 13.2135338-63.678931 25.1156148-88.563748l.3118847-.648542.0015458-.04115c.0145621-.379577.031477-.759111.0507455-1.138579l.0648666-1.138182c3.2053007-50.708995 46.9114731-89.218347 97.6204681-86.013047zm-56.525527 80.332839-.154572.699496c-.513689 2.438402-.858201 4.943721-1.02004 7.504065-.18987 3.003812-.118322 6.014122.21188 8.995801l-.047493.085287c.247913 2.277719.646443 4.539785 1.194254 6.771205l116.086932 472.861024c6.537853 26.630866 24.585872 47.780957 47.850759 58.987997.761143.154881 1.514502.307304 2.260729.457086 13.695491 6.139196 29.082472 8.879041 44.929191 7.346268l23.069715-2.231245c.31349-.016734.628339-.033794.944546-.051182l-.014-.038683 528.905375-51.158659c21.346361-2.064726 38.424624-16.75989 44.554142-35.974084 1.95341-6.364304 2.709264-13.212282 2.027713-20.252486-.30249-3.124628-.887307-6.215446-1.747289-9.234591l-109.604123-384.788124c-10.324853-36.247549-42.361872-62.061592-79.976029-64.441221l-565.504047-35.77616c-25.795357-1.631922-48.385675 15.834386-53.967643 40.238206zm-27.0508915 102.931798c-5.3325858 36.898418-28.5190143 104.519647-29.6232075 183.295864-.4532952 32.787142 34.6628724 160.647344 49.5994702 183.230103 15.9056418 24.047864 38.6790608 40.365512 64.3610408 54.334895 10.3512 5.630403 34.542232 14.080856 61.423848 21.389711-10.211214-12.326979-17.827146-27.059574-21.862544-43.497105l-111.3123893-453.411775c-5.4515724 16.101027-9.6469785 34.320462-12.5862182 54.658307zm120.8976505-76.855099 542.358963 28.373975c14.494656.7583 26.909623 10.634319 30.908101 24.587177l97.301891 339.53901c3.651469 12.741954-3.717825 26.03145-16.459779 29.682919-1.574052.451077-3.190134.739886-4.82299.861912l-538.390635 40.234996c-16.567726 1.238139-31.603942-9.67839-35.557244-25.815115l-99.902825-407.786824c-3.154002-12.874117 4.725708-25.867475 17.599825-29.021478 2.277036-.557846 4.623521-.779053 6.964693-.656572zm-2.205671 20.082115c-2.145686.525667-3.458971 2.691227-2.933304 4.836913l99.902825 407.786823c1.62783 6.644535 7.819213 11.139576 14.641218 10.629754l538.390634-40.234996c.272143-.020338.54149-.068473.803832-.143652 2.123659-.608578 3.351875-2.823494 2.743297-4.947153l-97.301891-339.539011c-1.646432-5.745294-6.758477-9.81189-12.726865-10.124131l-542.358964-28.373976c-.390195-.020413-.781276.016455-1.160782.109429z"/></svg>