<svg height="960" viewBox="0 0 960 960" width="960" xmlns="http://www.w3.org/2000/svg"><path d="m479.5 2c54.103341 0 105.058849 4.17849145 143.609486 11.6525449 20.387652 3.9526818 37.258072 8.7940645 50.271562 14.7591226 8.577355 3.9316449 15.896094 8.4936464 22.050236 14.3243866 4.318185 4.0912625 7.999014 8.7616827 10.836584 14.1787919 3.573836 6.8226905 5.559802 14.4184856 5.559802 22.3729238 0 .1486277-.000699.2972372-.003962.4457702.003936.0258639.003962.0526337.003962.0794096v30.4604314c0 2.031751-.151617 4.028592-.491864 5.96438-.029837.25758-.067363.51322-.11555.765983-.043688.512088-.137613 1.007576-.252158 1.495553-.880677 4.800542-2.441948 9.406035-4.590591 13.745538-.326486.659386-.665224 1.310236-1.01849 1.950811 4.020143 7.117756 6.335309 15.117304 6.439142 23.654013l.022653-.000421 12.505448 675.224965c.075358 1.347396.11306 2.697081.11306 4.048099 0 .481353 0 .96257-.014727 1.443598l.008364.468859c.006363.237791.006363.475614.006363.713442 0 8.875691-1.955653 17.483349-5.628081 25.501643-3.587715 8.83066-8.79924 17.011738-15.369155 24.536979-6.133206 7.025031-13.436226 13.462534-21.787656 19.366072-15.016561 10.615049-33.60445 19.621236-55.031018 26.951474-41.382324 14.157297-92.929264 21.895631-147.12341 21.895631-54.194152 0-105.741093-7.738336-147.123415-21.895638-21.42657-7.330242-40.014462-16.336434-55.031023-26.951491-8.351431-5.903543-15.654451-12.341051-21.787657-19.366088-6.569886-7.525216-11.781393-15.706263-15.369107-24.536897-3.672456-8.018282-5.628118-16.62598-5.628118-25.501685 0-.422473 0-.84485.014236-1.267048-.014236-.452769-.014236-.905773-.014236-1.358851 0-1.351011.037702-2.700689.11306-4.0481l12.505448-675.224964.022108.00041c.104405-8.529398 2.418727-16.53389 6.435579-23.661277-.351755-.638291-.689148-1.286678-1.014382-1.943536-2.148649-4.339514-3.709921-8.945019-4.590593-13.745548-.114509-.487789-.208447-.983336-.252151-1.495509-.04818-.252713-.085709-.508377-.115557-.766031-.340239-1.935692-.491862-3.932573-.491862-5.964366v-30.4604314c0-.030046.000033-.0600847.004366-.0890859-.003573-.1453396-.004366-.2907148-.004366-.4360939 0-7.8799064 1.949489-15.411582 5.463692-22.1885149 2.799156-5.3980081 6.436783-10.0607504 10.707867-14.1490951 6.095209-5.8344238 13.343869-10.4006061 21.832857-14.3346817 12.842343-5.9515624 29.465051-10.7816878 49.560891-14.7377052 37.881907-7.45733862 88.025088-11.70462419 141.456138-11.8777729h.062909 3.180489zm155.90499 881.774161c-41.323781 12.129295-96.805285 19.017206-155.90499 19.017206s-114.581209-6.887911-155.90499-19.017206c-9.256662-2.717002-17.720933-5.673727-25.312695-8.850357 34.383657 25.621985 102.635676 43.076197 181.217685 43.076197s146.834028-17.454212 181.22138-43.074841c-7.595018 3.17512-16.059488 6.131928-25.31639 8.849001zm-348.790712-695.123114-11.963905 646.055205-.008454.110734c.281293.495573.600732 1.000428.959838 1.515526 2.119528 3.040228 5.500468 6.230793 10.113135 9.43178 9.876408 6.85379 24.72419 13.304626 43.512862 18.819449 39.355403 11.55154 92.969576 18.207626 150.272246 18.207626s110.916843-6.656086 150.272246-18.207626c18.788672-5.514823 33.636454-11.965659 43.512862-18.819449 4.612667-3.200987 7.993607-6.391552 10.113135-9.43178.359106-.515098.678545-1.019953.959838-1.515526l-.008454-.110734-11.965718-646.054064c-2.074437 1.305197-4.299976 2.549744-6.675093 3.745774-11.429197 5.755365-26.981562 10.658527-46.046255 14.719131-37.316536 7.94808-87.143457 12.436864-140.162561 12.436864s-102.846025-4.488784-140.162561-12.436864c-19.064693-4.060604-34.617058-8.963766-46.046255-14.719131-2.375809-1.196379-4.601953-2.441303-6.676906-3.746915zm347.928708 564.780386-.349864 56.683453c-.069881 11.321838-8.547525 21.919797-18.935348 23.671206l-1.917404.323278c-10.387822 1.751408-18.865466-6.006957-18.935348-17.328794l-.349864-56.683454c-.069881-11.321837 8.551311-21.919797 19.255971-23.671205l1.975886-.323279c10.704661-1.751408 19.325852 6.006958 19.255971 17.328795zm28.741013-606.951529-4.178842 2.419579c-10.41414 6.034-20.688368 12.020004-30.822672 17.958002-13.718527 8.038102-27.523381 14.774669-41.414376 20.181793-8.296192 4.140304-19.092373 7.147618-32.630857 9.306448 69.095923-6.211958 117.590418-20.777658 117.590418-37.755798 0-4.215796-2.990002-8.282849-8.543671-12.110024zm-368.067726.349332c-.037963.027024-.075798.054061-.113506.081109l-.306593.222239c-4.963069 3.635848-7.623844 7.480414-7.623844 11.457344 0 16.950004 48.3339 31.495557 117.247248 37.725216-13.919824-2.220943-24.974074-5.330517-33.427073-9.61557l-.005004.01034c-24.200142-11.711676-42.152154-20.686902-53.946731-26.976907-8.537609-4.553077-15.616189-8.708718-21.320864-12.561697zm286.062276 20.932561-.659834.091526c-30.279991 4.239114-64.964528 6.535166-101.118715 6.535166-36.40461 0-71.31914-2.32797-101.747286-6.623533.64468.311785 1.29361.626046 1.947169.942336 15.673846 8.079312 48.940551 12.118967 99.800117 12.118967s83.983718-4.039655 99.372456-12.118967c.802157-.310364 1.604188-.625529 2.406093-.945495zm-294.107867-59.25294.001648 1.764524.051071.00088.088829.687532c.005106.031678.010351.063348.015734.095008l.122332.615418c.002502.010996.005021.02199.007557.032984l.010936.046967c.108215.460405.24579.918961.412295 1.375578.012502.034287.025197.068639.038054.102981.087543.233812.182659.467081.285301.699825l.296454.62927c.004504.008986.009019.01797.013546.026953l.006042.011978.023792.046903c.233134.457541.495311.912846.786151 1.365945.011408.017773.022813.035469.034261.053161l.441964.650923c.160887.226294.328939.452019.5041.677161.012618.016219.025386.032579.038192.048937l.035376.045059c.35003.444557.727666.886704 1.132574 1.326467.015623.016967.031023.033646.046462.050322.414969.448219.85865.894307 1.330249 1.3378.014039.013203.028395.026677.042777.040149.472534.44262.972482.882317 1.499741 1.319319.016967.014063.03397.02813.051002.042193l.72689.58507c.032028.025141.064146.050274.096356.075397l.012082.009421.824049.625662c.02747.020329.054999.040652.082588.060968l.812335.584329c.036048.025339.072189.050669.108423.075989l.898941.613421c.028781.019187.057616.038369.086505.057544l.846159.550215c.03683.023468.073741.046927.110732.070377l.064065.040553.89085.551917c.043394.026359.086889.052706.130487.079041 27.906433 16.857117 97.672636 28.805491 179.322416 28.805491 81.648822 0 151.414346-11.948093 179.321812-28.805126.043533-.026295.087364-.052844.131091-.079406l.889847-.551283c.04477-.028296.089423-.056606.133958-.084928l.887005-.57619c.029222-.019396.058389-.038797.087501-.058205l.874599-.596423c.047239-.032966.094321-.06595.141245-.09895l.802858-.577632c.027923-.020561.055784-.041128.083585-.061702l.823041-.624877c.01746-.013607.034894-.027217.0523-.040829l.783034-.629017c.017033-.014063.034037-.028129.051013-.042198.527602-.437254 1.027892-.877235 1.500374-1.319806.019435-.018206.038182-.035812.056886-.053423.459215-.432381.892222-.867577 1.298222-1.305143.029124-.031387.058376-.063078.087487-.094781.611014-.665441 1.159455-1.336144 1.643984-2.011943.014536-.020274.029051-.040605.043509-.06094.484131-.680956.903356-1.367013 1.256171-2.057865.012156-.023803.024136-.047421.036039-.071045l.31-.656223c.007653-.017352.015264-.034708.022833-.052067l.261344-.644758c.013242-.035341.026311-.070693.039206-.106058.166459-.456531.303934-.914727.412093-1.374757.003854-.016397.007499-.032053.01111-.047711l.134947-.678399c.002119-.012666.004215-.025334.006289-.038003l.093216-.71454.051071-.00088.00065-1.76395c-2.106296 1.213513-4.36642 2.366652-6.780992 3.473431-11.337893 5.197007-26.785094 9.629962-45.744485 13.305738-37.193147 7.210868-86.899674 11.28694-139.802843 11.28694s-102.609696-4.076072-139.802843-11.28694c-18.959391-3.675776-34.406592-8.108731-45.744485-13.305738-2.414953-1.106954-4.67541-2.260282-6.78199-3.474005zm192.329318-66.508857-3.18049.0049955c-5.747574.018067-11.433861.0850145-17.048281.1987918l-1.759076.0372302-1.029811.0232673c-4.36718.1009809-8.689429.2303338-12.961706.387081l-1.276843.0477181-2.709323.1070521c-31.718592 1.2996459-60.55327 4.1148437-84.3937 8.0364497-.899998.1471899-1.792902.2968333-2.678575.4480311-1.593604.2728379-3.163796.5498918-4.709915.8318514-1.614774.2937872-3.203289.593648-4.764792.8987125-1.936157.3788575-3.830785.7650832-5.682447 1.1590326-.424837.08986-.847411.1806596-1.267707.2718623-.563332.1227432-1.122569.2456991-1.677671.3693713-.763997.1697412-1.520253.3413442-2.268564.5142829-.515083.1194773-1.026402.2391407-1.533921.3594302-4.229165 1.0020147-8.194646 2.0479754-11.875657 3.1334214l-.447219.1327343c-.332512.0989574-.662666.1982398-.990447.2978443l-.322498.098105c-1.901352.5817952-3.721917 1.1744939-5.458638 1.7775034l-.213539.074509-.092105.0321889-.281587.0987152c-.284059.1001074-.565816.2004949-.845256.3011599-.898698.3238889-1.773438.6504948-2.623759.979882-.484726.1876453-.961517.3763209-1.430288.5658836-.145813.0590759-.29085.1181247-.435109.1772589-.181922.0744634-.363589.1495815-.543999.2248358-.416084.1736607-.825482.3479418-1.22813.522935-3.349449 1.4556266-6.231823 2.9606108-8.610197 4.5077034-.080478.0523793-.160379.1047769-.239702.1572223-2.692267 1.7800222-4.71812 3.615294-6.021624 5.4949467l-.069452.1012006-.006121.0090218c-.0517.0762732-.102211.152619-.15153.2290367-.054632.0846514-.107771.169344-.159444.2541238l-.111154.1863881-.020329.0350013c-.225107.3892434-.419306.7802987-.58211 1.1730716-.031955.0770932-.062708.1542715-.092247.2315153-.113343.2963862-.208816.593737-.286211.8920118l-.015786.0618509-.032878.1360527c-.070702.3043109-.122589.6095716-.155443.9157395l-.016622.1741251c-.017156.2051421-.025767.4106868-.025767.6166215 0 20.5934666 86.108031 37.2877702 192.32767 37.2877702s192.32767-16.6943036 192.32767-37.2877702c0-20.387532-84.394481-36.9534938-189.14718-37.2827743-1.058108-.0033261-2.118293-.0049955-3.18049-.0049955z"/></svg>