<svg height="960" viewBox="0 0 960 960" width="960" xmlns="http://www.w3.org/2000/svg"><path d="m213.51534 1.82117452c41.187678.50271002 64.656982.76282208 69.734952.77736878l.52633.0005304c.417129-.00074365.852307-.0049584 1.63155-.01488867 1.087072-.01385308 1.645844-.02008931 2.209641-.02142255l.642689.00036005c1.466956.0043084 2.836571.03952733 4.277911.12580949 4.387945.26267314 8.655352.96102419 13.102188 2.34015022 5.958244 1.84786879 11.370188 4.68018653 16.407356 8.40100286.204107.150768.428996.3184368.676088.5040731l.148102.1117207 284.994 16.148.333879-.2243884c6.437345-4.2687849 14.174573-6.7215963 22.470566-6.6368516l.673858.0124462 35.17545.9397842c1.430499.0382187 2.857917.1531745 4.276096.3443715l39.796508 5.3653129c5.816345.784152 11.388878 2.8386114 16.32229 6.0176373l60.698438 39.1132766c11.428022 7.3640677 18.333314 20.0285328 18.333314 33.6237224v63.94245c0 11.046186-4.477535 21.046533-11.716617 28.28516l-.395782.389079v538.266l.421012.546729c4.818841 6.366829 8.074795 14.041556 9.129346 22.510239l.089786.772053c.160914 1.488684.250596 2.984208.268738 4.481454l.946599 78.123697c.285955 23.600115-16.974906 43.75217-40.338555 47.095468l-35.663778 5.103606c-4.879587.69736-9.838502.622782-14.70718-.223133-4.419434-.769277-8.240514-1.580679-11.702115-2.547639l-.395853-.112474-327.191 41.495-.091524.093074c-7.121256 7.052882-16.47381 11.813088-27.460165 13.602199l-.734837.114865-.225782.033166-.242237.034879-.221599.031274c-1.413229.195418-12.631347 1.851049-15.236406 2.228534-.26552.038461-.26552.038461-.548579.079397l-1.309949.188815c-9.565256 1.374367-15.614604 2.159237-19.69272 2.44705-.669714.047265-1.372952.106781-2.733983.229618-3.5268.318304-5.539726.483087-7.577076.563178l-.584093.020639c-.685319.021528-1.389629.034374-2.169905.04409-6.169242.050081-12.001558-.593596-18.129948-2.50612l-.365197-.117362-.061991-.017774c-.047682-.01386-.101694-.029536-.163762-.047432l-.099043-.028476c-.45618-.130813-1.097499-.310283-1.899921-.531328-1.627242-.44826-3.830224-1.043749-6.590693-1.782-4.594986-1.228868-9.961296-2.648738-18.989251-5.02858-.065155-.017176-.065155-.017176-.130313-.034352-20.928532-5.516841-26.225921-6.919443-29.452189-7.840268l-.209864-.060055c-.241676-.069338-.472859-.136299-.699723-.202534-11.072655-3.232779-19.784054-9.170431-26.017113-16.815034l-.217137-.270463-15.388732-4.103661c-17.334437-4.623106-29.448081-20.211479-29.692268-38.106112v-830.8987343c0-22.0910854 17.908134-39.99956924 39.99922-40l3.60078.00050717.34248-.22005899c6.130067-3.8723147 13.382217-6.12402447 21.150601-6.15664536zm53.359716 807.90853648c-.084643.327199-.127476.663807-.127476 1.001777v39.100999c0 2.209139-1.790861 4-4 4-.32372 0-.646243-.039297-.960492-.11703l-35.973047-8.898588c-2.144657-.529847-4.312772.779216-4.842619 2.923874-.08364.338553-.122649.68659-.116753 1.035259.429541 21.796361.650558 34.65131.663819 38.564847l.000635.347379c0 5.561554 2.000272 10.33212 8.761675 12.306183.078168.022822.161841.047038.250886.072614.477728.137219 1.110916.313817 1.878845.52455.482452.132393 1.017162.278008 1.599873.435789.58944.159604 1.229053.331939 1.912741.51545.774724.207946 1.605134.430001 2.48447.664472.500226.133382 1.016617.270871 1.54747.412032.333257.088617.670962.178349 1.013983.269431.866627.230116 1.767814.469016 2.697482.715159 1.335067.353478 2.728266.721734 4.163873 1.100808.419342.110728.842914.22254 1.269707.335174.612748.16171 1.23221.325136 1.857108.489954.237439.062624.475383.125376.714045.188312.344684.090895.690787.182153 1.038187.273744.212313.055976.425453.112167.639033.168471 1.43079.377186 2.881389.759474 4.338061 1.143397.44604.117559.892803.235312 1.339743.353119.030373.008006.060662.01599.090951.023974l1.607154.42367c.782786.206378 1.564585.412537 2.343279.617942.668886.176439 1.335418.352306 1.99832.527278.29976.079122.599298.158198.897966.237059.496331.131052.989792.261387 1.480285.390985.25688.067873.513131.135593.768485.20309.357071.094384.71198.188223 1.064915.281571.425501.112541.848133.224368 1.267504.335382l.376543.099689c.192173.050885.38363.101592.574332.15211.239935.063559.478908.126883.716607.189888.358119.094924.712418.188879 1.063583.28205.37016.098212.737494.195727 1.101029.292292.631824.167829 1.251947.332727 1.858999.494351.689219.183501 1.363146.363197 2.017786.538058.189097.05051.375287.10027.559835.149617.849219.227079 1.664439.445647 2.439363.654102.239387.064396.474388.12768.705403.189964.562683.151705 1.102762.297757 1.616778.437263.407846.110692.797923.216892 1.17056.31871.188677.051554.372418.101857.551563.151006.330054.09055.644282.177119.942012.25954.064542.017868.129565.035889.193771.053704.075943.021073.150372.041754.223653.062148.163473.045492.322738.089969.476003.132938.153904.043149.301157.084607.442223.12451l.08463.023963c.16595.047036.322972.091827.470748.134294.239252.068755.453669.13124.64265.187328.005198.001543.012365.003671.019496.005791l-.019496-.005791c.078059.023168.151779.045244.221065.066205.175036.052943.323109.0992.440782.13781 1.669056.547637 3.556236.746312 5.591431.757574l.511841-.000996c3.26068-.02985 6.877777-.495788 10.573004-.756578.114371-.008072.234033-.017142.358791-.027177.089043-.007161.181143-.014853.275792-.023028.425679-.036771.902662-.083292 1.424596-.138433.089507-.009456.180423-.019175.272629-.029142.108326-.01171.218458-.023765.33032-.036153.129984-.014394.262796-.029295.397876-.044634.094781-.010763.189946-.021658.286181-.03276.115899-.013371.233478-.027057.352563-.041037.284664-.033417.577697-.068479.878628-.105091.018388-.002237.037845-.004607.057334-.006983l-.057334.006983c.165591-.020147.333575-.040762.503834-.061827.847286-.10483 1.749888-.220643 2.694634-.345085.152949-.020147.306885-.040504.461865-.061076.24701-.032789.496996-.066169.749397-.100055l.261296-.035144c.151956-.020476.304746-.041126.458319-.061944l.211949-.028769.251062-.034175c.160024-.021816.320825-.043799.482346-.065941.360859-.049466.725583-.099758 1.093269-.150727.287394-.039839.577292-.08019.868704-.120902.316619-.044234.635466-.088959.955708-.134043.413938-.058275.83-.117122 1.247539-.17642.636154-.090346 1.275668-.181731 1.915601-.273637.244542-.035121.488939-.070288.73323-.105502l1.290469-.186568.133077-.019299c.200366-.029065.400439-.058123.600124-.087158.645478-.093853 1.287207-.187506 1.921717-.280358.245426-.035915.48971-.071702.732731-.107336.336062-.049278.669271-.098201.999589-.14675.118736-.017451.237273-.03488.355412-.052257l.225118-.033118c.107924-.015881.215501-.031716.322714-.047501.313664-.046181.62497-.092053.932708-.137424.364766-.053779.724559-.106861 1.078608-.159113l.190276-.028082c.166985-.024647.332648-.049101.496909-.07335.321943-.047525.637599-.094126.947323-.139839.42776-.063134.843817-.124517 1.247049-.18394.129657-.019107.257569-.03795.384113-.056583.336367-.049529.663146-.097584.979309-.143989l.279526-.041002c.075079-.011006.149518-.021912.223303-.032716.30889-.045228.606003-.088618.890699-.130047.16967-.024691.334777-.048664.495274-.071905.753058-.109049 1.404175-.201934 1.932486-.274988l.242238-.034878.23953-.037325c.061971-.010037.123666-.02033.185083-.030887.023302-.004006.04619-.007984.06904-.011999l-.06904.011999c.155208-.026678.308641-.055037.460279-.08518.110104-.021886.21949-.044762.327918-.068624.038043-.008371.076362-.016953.114561-.02566l-.114561.02566c.319597-.070333.630865-.149223.933599-.237699.029557-.008639.058567-.01723.087499-.025911l-.087499.025911c.221094-.064615.437635-.134344.649545-.209584.033605-.011931.067277-.024068.100831-.036347l.191762-.072227c.144134-.055862.286017-.114472.425623-.175963l.176356-.079785c.050396-.023413.100485-.047219.150266-.071426.017646-.008581.035186-.017179.052689-.025828l-.052689.025828c.049347-.023996.098391-.048385.147131-.073174l-.094442.047346c.073543-.03634.146407-.073567.218588-.111702l-.124146.064356c.071642-.036437.142627-.073737.212952-.111921l-.088806.047565c.063307-.033447.126088-.067592.188341-.10245l-.099535.054885c.065551-.035593.130529-.071954.194929-.1091l-.095394.054215c.0541-.030293.107801-.061125.1611-.092504l-.065706.038289c.116176-.067009.230473-.136571.342872-.208784.038812-.024935.077456-.050224.115871-.075834l-.115871.075834c.061149-.039286.121736-.079356.181759-.120227l-.065888.044393c.062647-.041765.124689-.084383.186121-.127871l-.120233.083478c.1866-.127059.367741-.26185.543329-.404839l.142795-.119148c.166408-.142262.327629-.29227.483577-.450442.025632-.025994.051467-.052569.077155-.079373l-.077155.079373c.056601-.057408.112507-.115891.167715-.17547l-.09056.096097c.049966-.052134.099376-.105133.148229-.159011l-.057669.062914c.047177-.050912.093844-.102624.139998-.155149l-.082329.092235c.053851-.059391.107024-.11985.159516-.181396l-.077187.089161c.049574-.056416.098557-.11377.146945-.172077l-.069758.082916c.045957-.053884.091392-.108601.136301-.164165l-.066543.081249c.048228-.058113.095865-.117173.142909-.177194l-.076366.095945c.043922-.054341.087342-.109492.130257-.165464l-.053891.069519c.051766-.066048.102814-.13326.153139-.201657l-.099248.132138c.044578-.058141.088611-.117168.132097-.177094l-.032849.044956c.041873-.056911.083246-.114642.124117-.173206l-.091268.12825c.047913-.066027.095161-.133145.141742-.201374l-.050474.073124c.048087-.068905.095479-.138963.14217-.210192l-.091696.137068c.041878-.061341.083217-.123579.124013-.186727l-.032317.049659c.046126-.070365.091569-.141874.136325-.214544l-.104008.164885c.045611-.070601.090544-.14234.134795-.215235l-.030787.05035c.073934-.120047.145995-.243265.216166-.369736.023328-.042048.046323-.084224.069111-.126759l.10102-.193594c.116018-.228297.226333-.466546.330859-.715182.049139-.116899.096844-.235692.143269-.356811.018006-.046969.035967-.09469.053732-.142768l-.053732.142768c.102089-.266338.197988-.543919.287603-.833217.049745-.160564.097733-.325389.143753-.493934.00312-.011425.006305-.023141.009481-.034875l-.009481.034875c.01991-.072918.039452-.146532.058624-.220849l-.049143.185974c.028808-.106458.056837-.214393.084081-.323825l-.034938.137851c.026659-.103336.052602-.208031.077828-.314103l-.04289.176252c.056876-.228462.110333-.463451.160333-.705153.03606-.174298.070397-.352505.102914-.534289.027986-.15645.054639-.315649.079934-.477547.009078-.058096.018034-.116901.026814-.17606l.043918-.30987c.028918-.213896.055599-.432278.080024-.655238.003043-.027772.006116-.056224.009152-.08475l-.009152.08475c.01335-.121863.026027-.245094.038026-.369708l-.028874.284958c.014448-.135739.028068-.273162.040856-.41229l-.011982.127332c.008753-.090898.017146-.182531.025177-.274907l-.013195.147575c.010935-.118976.021262-.2392.030977-.360683l-.017782.213108c.087699-1.008683.13232-2.105826.13232-3.299175v-85.395868c0-2.209139-1.790861-4-4-4-.149801 0-.299484.008415-.448342.025206l-49.260467 5.556396c-.485563.054769-.977051.020107-1.45012-.102271l-22.88823-5.920923c-2.138736-.553266-4.321035.732011-4.874301 2.870747zm486.959091-129.727536-440.835 35.948v74.898l30.107318-3.396385c.669858-.075557 1.342503-.122848 2.016144-.141771l.673907-.009463c13.254834 0 24 10.745166 24 24v85.395868l-.003369.480751 316.526049-40.141677c-1.112327-9.888003 4.945919-20.489932 17.00234-22.24155l1.137513-.165426-1.525631-62.559382c-.338863-13.896276 9.922515-25.753599 23.672666-27.453448l.417732-.048393 26.810331-2.899124zm-560.805-631.8050005-5.274.0001972v830.3557753l13.705201 3.655396c-.09237-6.328909-.293381-17.398824-.601359-33.053109-.039696-2.092013.194355-4.180236.6962-6.211552 3.17908-12.867948 16.187766-20.722327 29.06146-17.541826l16.130717 3.989006.000214-18.659574c0-1.825039.208169-3.643457.620031-5.420061l.144825-.590604c1.853376-7.164508 6.753503-12.732807 12.95385-15.676268l-.464099-609.765816c-5.84412-3.380726-9.87505-9.649644-10.00355-16.967166l-.003164-.360687-.000762-29.395007-20.318-17.389-16.647.000644c-10.930635 0-19.813225-8.768728-19.997092-19.6555102l-.002908-.3444895zm563.680519 713.3141765-.237226.005534c-.158601.006373-.318073.018138-.478223.035449l-26.821084 2.89914c-3.61913.391199-6.334399 3.490978-6.245658 7.130107l1.806551 74.083983c.08635 3.54111-2.48613 6.588642-5.991491 7.097918l-12.545486 1.822672c1.379559.564208 3.200317 1.219319 5.462274 1.965333 2.076958.684999 5.137078 1.379264 9.180316 2.083057.413312.071811.831608.106214 1.249837.103134l.313579-.009341c.20894-.010914.417546-.031203.625188-.060878l35.656421-5.102554c3.479722-.497942 6.050489-3.499312 6.0079-7.014223l-.9466-78.123697c-.002701-.222994-.016058-.445732-.040024-.66745-.389496-3.60338-3.4484-6.271122-6.996274-6.248184zm-476.301519-47.942176.057 74.886 12.534 3.243v-75.714zm92.167-607.196.000305 55.577711c0 11.591907-9.823368 20.755926-21.387352 19.951824l-38.188953-2.655535v516.635l440.022882-35.879233c.272795-.022245.543924-.033322.812936-.033612l-.000818-467.278155-34.158755.000465c-11.308037 0-20.367221-9.367597-19.988797-20.669301l1.750554-52.295522-1.358002-.831642zm-79.576 72.804-12.996 1.658.39 512.366 12.606 2.418zm413.275585 240.991092c.006381.206165.009572.412417.009572.61868v77.840465c0 10.611794-8.287916 19.376203-18.883151 19.968792l-126.284303 7.06305c-11.02846.616819-20.468823-7.823483-21.085642-18.851942-.020801-.37192-.031208-.744348-.031208-1.116849v-80.995163c0-10.804814 8.581677-19.656193 19.381319-19.990429l126.284304-3.908352c11.040409-.341688 20.267421 8.331339 20.609109 19.371748zm-19.990428.61868-126.284304 3.908353v80.995163l126.284304-7.063051zm-18.00363 18.56581.002587 42.253318-90.283261 5.049521v-44.508757zm-38.004525-376.0219403v8.0601716l35.175451 2.8716264 56.364828 34.4865753-2.141036 63.94245 34.158755-.000465 12.112399.000465v-63.94245l-60.698438-39.1132761-39.796508-5.365313zm-417.246438-21.5099378v53.3466444h24.037111l32.928651 28.1803277v38.603035l29.127742-3.716805 53.452237 3.716805v-64.0199205c-.00856-7.2892549-.28974-10.4730865-9.721987-17.650851-3.734307-2.8417385-10.482551-8.1055951-17.647084-13.7095446l-1.002143-.7839441c-.50216-.3928662-1.005759-.7869164-1.509914-1.1814436l-1.126116-.8813061-.424253-.3320507-.847896-.6636579-.846308-.6624436-.843786-.6604814c-4.135582-3.2371656-8.146214-6.376321-11.534837-9.0190707-.151235-.1179466-.301281-.2349427-.450042-.350914-.704068-.5488771-1.379461-1.0748645-2.021394-1.5741291-.075158-.0584537-.148914-.1158081-.222215-.1727995l-.083495-.0649126c-.304089-.2363966-.600236-.4664493-.887915-.6897373l-.260794-.2023666c-.134796-.1045685-.267628-.2075672-.398437-.3089504-.333876-.2587682-.654512-.5069594-.961034-.7438716l-.037866-.0292643c-.175055-.1352834-.34546-.2668496-.511034-.3945555l-.177154-.1365841c-.080172-.0617874-.159147-.1226177-.236902-.1824733-.154017-.118561-.302359-.2326131-.445809-.3427549-.204933-.15735-.400479-.3071745-.585494-.4485803l-.108024-.0825186c-.259158-.1978617-.496497-.3782788-.710589-.5401062l-.035951-.0271656c-.252426-.1906662-.471613-.3547529-.655131-.4903126-4.765668-3.5202668-7.996496-3.0288031-14.224367-3.0057715l-.419681.0007923-.283228-.0003113-.155603-.0003799-.166667-.0005293-.17773-.0006789-.188793-.0008283c-6.218411-.0288991-29.430434-.287429-69.636068-.7755895zm141.935318 22.5435194c9.621677 7.3219174 14.388799 13.6170974 16.392392 21.9477739l293.831726 11.2350023-6.111998-3.7393578-30.428331-2.4831435c-10.26355-.8378878-18.192761-9.3250915-18.36965-19.5832959l-.003019-.350389-.000002-.9978138-267.058184-15.129943c5.689945 4.4413346 9.281418 7.2248543 11.747066 9.1011668z"/></svg>