<?xml version="1.0" encoding="UTF-8"?>
<svg width="64px" height="64px" viewBox="0 0 64 64" version="1.1" xmlns="http://www.w3.org/2000/svg">
 <title>knx_failure_temperature</title>
 <g fill="#000" fill-rule="evenodd">
  <path d="M20 4a8 8 0 0 1 8 8v24.6a12 12 0 1 1-16 0V12a8 8 0 0 1 8-8zm0 4a4 4 0 0 0-4 4v26.2a8 8 0 1 0 8 0V12a4 4 0 0 0-4-4zm0 14a2 2 0 0 1 2 2v14.6a4 4 0 1 1-4 0V24a2 2 0 0 1 2-2z"/>
  <path d="M44 32 26 60h36z M44 38l12 18H32z"/>
  <rect x="43" y="42" width="2" height="8"/>
  <rect x="43" y="52" width="2" height="2"/>
 </g>
</svg>
