<svg height="960" viewBox="0 0 960 960" width="960" xmlns="http://www.w3.org/2000/svg"><path d="m442 166c116.56209 0 225.476038 21.289739 302.183234 58.48503l.653766.32097.260938.097094c5.782308 2.139508 10.5873 3.749151 14.317468 4.8183l.841684.237127.764701.207643c.585216.155776 1.110751.288096 1.571566.397484l.658643.150352 1.026515-.053741c23.18992-1.174279 40.305131.349542 57.919538 4.178237l1.793272.39729 1.056569.241058 6.661149 1.582226 4.350839 1.019298c29.509623 6.938811 46.391443 16.407484 74.209452 41.123494l1.753078 1.564719c17.914235 16.060307 30.122458 36.699037 37.373659 61.210633 6.002341 20.290011 8.603929 43.017971 8.603929 69.324484 0 51.211874-25.517687 105.614199-59.574732 133.580835-11.811866 9.699555-65.548605 53.015241-161.537226 130.21155l-85.510807 68.748774c-.319252.256608-.642427.508298-.96941.754979-35.80652 27.013024-71.071594 45.07767-105.978705 53.785588-8.461571 2.110821-17.036605 3.84303-26.062242 5.32563-54.249974 8.911395-105.168024 3.315171-137.160931-10.9608l-26.157925-11.197091c-7.893926-3.411045-15.700165-6.824902-20.383945-8.980642l-1.099216-.507195c-20.438071-9.454384-36.365884-18.17445-48.680146-27.460642-1.689356-1.273944-4.807905-3.059346-9.683282-5.502465l-.66049-.32966c-5.814971-2.891051-13.995294-6.669039-25.046517-11.559646l-26.087968-11.480896c-2.270293-1.005915-4.419406-1.962399-6.526037-2.904844l-4.271-1.917755c-13.263804-5.978658-24.921517-11.459754-36.138812-17.056559l-1.673682-.837639c-20.020164-10.050558-37.740373-20.066792-53.67434-30.608645-18.623959-12.321543-28.7942866-19.445683-38.112666-27.126487l-.7152462-.592026c-.4758814-.395545-.950035-.792942-1.4234858-1.192967l-.8285688-.704082c-12.6417895-10.804399-22.398246-22.012896-30.5897169-35.563461-13.7019321-22.666128-21.7124625-47.365803-36.5322307-107.919036l-1.88884-7.758338c-18.09978004-74.706232-5.58389296-139.385652 38.1474907-189.641841l1.1756767-1.338337.2261804-.595477c9.0669085-23.607038 29.4910813-42.760327 59.1672926-59.258527l1.051234-.58119c29.457834-16.196378 73.51713-34.757876 109.638133-43.996615 16.487354-4.217002 36.796441-6.153184 61.408031-6.136299l.965129.002108 2.872024-.525445c48.276288-8.722549 100.309815-13.333468 153.808176-13.476555zm-111.123839 417.922446c-35.90145 25.138466-35.749938 87.298244.338412 138.837749.996868 1.423675 2.010729 2.824354 3.041612 4.201029 3.693338 1.900857 7.495644 3.768733 11.334361 5.5912-3.835609-4.221024-7.457368-8.750641-10.818499-13.550833-13.93075-19.895174-21.962542-42.40776-22.691337-63.393634-.807227-23.244331 7.400341-43.625795 24.43929-55.556595 17.038949-11.930801 38.998414-12.672521 60.564853-3.963947 19.471008 7.862435 37.878884 23.109609 51.809635 43.004783s21.962543 42.407759 22.691338 63.393634c.807226 23.244331-7.400342 43.625795-24.439291 55.556595-4.120516 2.885217-8.528791 5.11608-13.149678 6.717182 9.485498 1.348573 20.255004 2.206604 32.134442 2.241716 31.249532-27.073627 29.580395-86.023787-4.906074-135.275569-36.08835-51.539505-94.447614-72.941776-130.349064-47.80331zm-198.547133-319.965336-.473234.255704c-.615512.331928-1.21053.65589-1.784299.971357l-.77527.428346c-25.471797 14.142751-39.8428139 29.0111-43.1130503 44.605048l.2350843.326669c-40.4904978 41.065991-52.6608755 94.927745-36.5111332 161.585262 25.9814294 107.237474 32.2190219 116.345481 89.7022172 154.539379l3.584013 2.375826c53.772135 35.575445 124.114957 60.08981 155.545701 77.245437-24.612939-53.292625-18.764428-111.141547 20.665575-138.750733 46.478116-32.544327 116.480358-6.872191 158.203634 52.714823 34.419892 49.1567 40.713965 108.768245 15.249187 146.471628 6.13832-.59537 12.486133-1.413596 19.025702-2.487821 7.384962-1.213094 15.030368-2.710995 22.864277-4.66524 29.276364-7.303274 59.799775-22.938987 91.570233-46.90714 139.223031-111.904504 220.098825-177.021901 242.62738-195.352191l4.095412-3.343895c22.169516-18.20495 44.959543-59.975488 44.959543-102.667871 0-42.692382-7.669092-78.330335-32.678715-100.751736-24.50943-21.972972-35.704735-28.223867-58.58434-33.573156l-2.963035-.68534-.683628-.161885c-11.215435-2.668545-24.926091-6.494843-51.329834-5.734242 39.066722 17.747548 64.89847 29.912275 77.748896 36.621077l1.669306.879655c35.854091 19.086589 50.964998 61.67601 44.280977 112.504002-3.524865 26.804494-6.741618 42.722684-12.659638 58.058326l-.427351 1.094551c-7.74438 19.607875-19.581265 35.680411-37.348925 49.992069-2.270693 1.829018-4.558925 3.670908-6.866579 5.527106l-11.708828 9.406883c-12.66345 10.161595-31.278065 1.773659-32.458049-14.015418l-.020257-.32459-13.858816 10.945104c-5.59915 4.410452-11.969212 9.417893-18.928076 14.87792l-15.985287 12.526914c-13.038513 10.205855-15.788487 18.877647-10.946989 30.772454l.146842.37124c3.144087 8.184611.588894 17.487042-6.337695 22.913028-.849462.665431-1.701023 1.332199-2.554687 2.000309l-7.739881 6.049319-8.055955 6.279184-3.982015 3.094611c-14.51685 11.186325-27.201942 18.063222-38.914748 20.747158-13.986055 3.204841-26.865585.363964-36.869992-8.333403-7.710896-6.703496-12.776952-15.865522-16.561162-27.639298-2.459853-7.653319-4.200851-15.588252-6.330801-27.69274l-.681583-3.930776c-4.220874-24.612495-28.803465-43.699673-60.440096-50.592459-15.823532-3.447529-74.10814-14.285236-174.219737-32.388569l-34.417322-6.212996-1.899181-.241305c-23.684089-3.054192-46.491167-7.16-68.088503-12.242446l-1.684316-.400249-.671449-.129972c-.548833-.114979-1.084422-.248971-1.606606-.400966l-.298945-.091062-1.912324-.465111c-108.899264-26.846296-179.6899364-76.844496-181.1089399-138.479248l-.0217361-1.8904c0-32.180712 18.8369799-61.241416 52.329028-85.628131zm215.662501 352.477292c-22.465938 15.73082-21.049564 56.515736 3.163559 91.09566 24.213124 34.579925 62.05398 49.860143 84.519919 34.129324 22.465938-15.730819 21.049564-56.515735-3.16356-91.09566-24.213124-34.579924-62.05398-49.860143-84.519918-34.129324zm90.636642-407.434402c-187.019175 0-338.628171 62.942156-338.628171 140.585241 0 52.008638 68.025286 97.421131 169.152192 121.738533l-.045364.024447.6235.114258c22.082631 5.285942 45.736574 9.567183 70.607534 12.690253 118.298123 21.320286 187.662641 34.1393 208.093556 38.457044l1.755232.376221c31.778339 6.92366 69.286889 28.222241 75.894738 66.753514l.398291 2.309498c6.540974 37.672837 15.1101 72.451586 67.725002 31.547828l6.438571-5.011348 4.820485-3.759438c3.431266-2.678227 6.854128-5.35459 10.262781-8.024779-8.363634-20.548147-2.649037-38.568606 17.143789-54.061378 25.744606-20.151508 43.543935-34.187525 52.370803-41.206852l6.485499-5.182104c7.306677-5.745138 19.866672-14.23751 22.030031 2.345176.021599.165564.044068 1.38596.067429 3.661179l.10719 16.522884c.713519-.572553 1.420858-1.140273 2.121882-1.703046l16.424609-13.207696c30.833196-24.835804 37.346233-52.823875 42.818652-93.660622l.333944-2.516345c5.550653-42.209409-5.776886-77.297707-33.849814-92.242067-6.086859-3.240283-15.99823-8.095006-29.733938-14.564304l-2.260934-1.063228c-23.326975-10.95337-57.048635-26.295243-101.164199-46.026223l-11.651172-5.205266c-62.114664-30.398796-154.801552-49.69138-258.342118-49.69138zm-3.115568 6.879591c176.116954 0 318.887955 59.28811 318.887955 132.4237 0 73.135591-142.771001 132.423701-318.887955 132.423701-176.116955 0-318.887956-59.28811-318.887956-132.423701 0-73.13559 142.771001-132.4237 318.887956-132.4237zm-177.898995 46.858229c-46.262245 18.55351-75.717868 38.079738-82.682391 54.050161-2.771983 6.356463-1.673744 11.691318 4.232035 17.750503 7.654701 7.853537 22.477716 15.541192 44.521884 22.460705l27.629199 8.528347 3.539939 1.106641c9.67004 3.03328 18.021425 5.741362 26.071859 8.478052l2.734059.934676c44.349267 15.2482 73.659484 29.629234 88.783186 46.569828 5.80561 6.50307 7.158948 14.988048 4.506491 24.201301-1.024366 3.558113-2.650514 7.286122-4.870889 11.213542 20.596236 1.775244 41.83075 2.695416 63.433623 2.695416 83.229021 0 160.990421-13.658261 217.817559-37.256707 52.774724-21.91561 81.070396-49.696354 81.070396-75.166994 0-20.820689-18.907345-43.185006-54.637329-62.627488-52.820651 6.026128-97.383222 3.582274-133.720994-7.478677l-3.480295-1.069077c-11.399198-3.459003-26.313535-7.418455-50.252848-13.446515l-39.15242-9.80082-8.897108-2.244023c-9.823732-2.486779-18.543438-4.727072-26.948548-6.929944l-2.09518-.550059c-4.277356-1.124888-8.963047-1.556936-18.43934-1.864202l-6.588002-.201832-2.50749-.096888c-41.373863-1.783102-95.589548 6.916687-130.067396 20.744054zm-101.892026 48.23247-.741646.737271c-12.104775 12.143027-18.355289 24.62453-18.355289 36.59573 0 25.47064 28.295672 53.251384 81.070396 75.166994 36.669657 15.227705 82.056167 26.316399 132.003784 32.267069 4.276808-5.791398 6.940283-10.66156 8.031677-14.452495.869914-3.021626.652195-4.386651-.206679-5.348706-12.186571-13.65061-39.895023-27.141376-81.761761-41.454167l-1.273022-.433974c-7.886364-2.680916-16.097813-5.343566-25.63305-8.334503l-6.571926-2.047021c-2.612929-.808369-6.023113-1.859981-9.45322-2.916892l-.894751-.27568c-5.961207-1.836579-11.778228-3.626603-13.362188-4.118449-25.392165-7.884696-43.224146-17.075555-53.732934-27.857315-10.866778-11.149049-14.015715-24.283317-9.119391-37.527862zm310.388279-74.47111 30.254078 7.579146c25.04286 6.301026 40.467996 10.395175 52.460775 14.049872l2.034884.626101c25.398946 7.891664 55.711654 11.191485 90.924258 9.833615-48.228296-18.043145-109.528824-29.397873-175.673995-32.088734z"/></svg>