<svg height="960" viewBox="0 0 960 960" width="960" xmlns="http://www.w3.org/2000/svg"><path d="m308.332903 3.87255796c1.911185 0 3.843242.07895521 5.804133.23029848.367308.02834915.734207.06177132 1.100592.10025694l10.030082 1.05357513c.288443.03029853.576549.06373332.864265.10029843 1.029296.13081059 1.975291.2471044 2.834091.34846409l372.098958 27.53602007c.881154.065207 1.759905.159592 2.634808.2829996 25.379604 3.5798662 44.699944 24.8676547 45.574755 50.6053163.009703.2854674.016348.5710305.019934.8566403l10 796.5009427-.030926.000387c.513255 26.856107-19.184313 49.956886-46.029495 53.422312-.887746.114598-1.779088.199366-2.67252.254159l-368.922183 22.625621c-1.236369.114782-2.440476.179056-3.634129.199928l-32.07669 1.699188c-1.88069.123772-3.76481.183593-5.649454.183593-5.181751 0-10.354804-.45428-15.4603-1.35666l-.015107-.002673-15.281795-2.707055.00732-.041323c-27.013416-4.395895-46.969167-27.759891-46.969167-55.283829v-239.337519c-26.821664-19.267069-43.193957-50.503952-43.193957-84.299565v-187.255836c0-33.50414 16.13235-64.858656 43.193957-84.316875v-244.1119729c0-28.278522 21.459567-51.93718394 49.599588-54.69517784.435035-.0426376.870739-.07814126 1.306937-.10649667l.64519-.04194064 29.04033-2.23946152c1.715361-.13795973 3.440815-.20361547 5.180783-.20361547zm-6.691006 40.43829004-24.694892 1.9049071-.88565.0575724c-7.659901.7507442-13.50128 7.1896427-13.50128 14.8859226v839.3217679c0 8.052078 5.958852 14.864046 13.938922 15.938347l15.281795 2.707055c2.495844.441132 5.019897.68757 7.549511.736888l.948821.00925c.669874 0 1.340129-.01372 2.010327-.04138-2.98057-5.294468-4.660671-11.401991-4.660671-17.856731 0-.054201.000221-.108402.000661-.162601.14394-17.704059.14394-30.951598.001983-39.681704-2.898765-178.26917-2.898765-445.520543-.001983-801.8150348.03164-5.7596182 1.475321-11.2058571 4.012456-16.0042592zm27.976294 1.5517253c-6.822382 1.4741325-11.989411 7.5086013-11.989411 14.6151346-2.89557 356.1454511-2.89557 623.2545391 0 801.3272651.145152 8.92655.145152 22.316374 0 40.169474 0 8.052077 5.740031 14.864045 13.720102 15.938346l371.764139-22.673551c6.609557-.853224 13.409232-6.59089 13.184652-13.249715l-.000555-238.950969-6.999445-557.5499738c-.209512-6.1640094-4.815046-11.30593-10.875266-12.3087808l-.309386-.0474101zm83.249513 197.0321947c.078282-11.347333 9.57125-20.3564 20.907163-19.841424l177.419708 8.059948c10.681745.485258 19.092361 9.286632 19.092361 19.979395v474.963451c0 10.786477-8.553585 19.629765-19.334082 19.988911l-177.466024 5.912169c-11.208254.373396-20.532867-8.540388-20.664539-19.754086-1.8285-155.722422-1.821695-218.659821.045413-489.308364zm197.418414 247.10479-178.774629.006253c-.213092 89.718455.223816 149.507776 1.309423 241.962496l177.466024-5.912169zm-390.92-100.41146v29.54346l10.318378.000223c5.522847 0 10 4.477152 10 10 0 5.522847-4.477153 10-10 10l-10.318378-.000223v9.5l10.318378.000223c5.522847 0 10 4.477152 10 10 0 5.522847-4.477153 10-10 10l-10.318378-.000223v9.5l10.318378.000223c5.522847 0 10 4.477152 10 10 0 5.522847-4.477153 10-10 10l-10.318378-.000223v9.5l10.318378.000223c5.522847 0 10 4.477152 10 10 0 5.522847-4.477153 10-10 10l-10.318378-.000223v9.5l10.318378.000223c5.522847 0 10 4.477152 10 10 0 5.522847-4.477153 10-10 10l-10.318378-.000223v19.712376c0 19.342832 8.7153 37.323601 23.193214 49.306396l-.000423-285.865959c-14.596917 12.078574-23.192791 30.118453-23.192791 49.303727zm213.50111-146.55536c-.677758 98.245149-1.110717 169.090618-1.299175 226.973844l178.718065-.007024.000818-218.906871z"/></svg>