<svg height="960" viewBox="0 0 960 960" width="960" xmlns="http://www.w3.org/2000/svg"><path d="m357.397739 4.00056856 5.082813.03093987 236.17647 3.35869225c169.086473 2.40459782 306.342978 138.61848532 306.342978 304.88022532v335.459148c0 166.26174-137.256505 302.475627-306.342978 304.880225l-236.17647 3.358693c-169.750832 2.414045-307.480552-133.792444-307.480552-303.955792v-344.0254c0-166.760081 132.275623-300.90799501 297.334773-303.93512698zm-262.397739 303.98673144v344.0254c0 147.877345 119.500468 266.056188 266.911765 263.959836l236.17647-3.358692c147.411297-2.096353 266.911765-120.68908 266.911765-264.88427v-335.459148c0-144.19519-119.500468-262.7879168-266.911765-264.8842695l-236.17647-3.3586923c-147.411297-2.0963527-266.911765 116.0824908-266.911765 263.9598358zm278.871061-230.077172 236.13142 3.3580795c62.839885.8936606 121.749774 26.0916365 165.298768 69.3101865 43.333003 43.004198 68.172696 100.623687 68.172696 161.72263v335.397952c0 61.098943-24.839693 118.718432-68.172696 161.72263-43.548994 43.21855-102.458883 68.416526-165.298768 69.310186l-236.13142 3.35808c-23.141379.329099-45.749849-2.756908-67.245435-8.948803-36.690069-10.496083-70.151483-30.035749-97.504918-57.083372-43.343028-42.858451-68.120708-101.364153-68.120708-164.126283v-343.862828c0-62.76213 24.77768-121.267832 68.120708-164.126283 27.326379-27.020869 60.74866-46.5486268 97.395855-57.0528131 21.528127-6.2119991 44.173955-9.3090178 67.354498-8.9793619zm-60.422189 27.803546-1.279032.361817c-33.344401 9.603333-63.73754 27.393646-88.611061 51.992282-39.576227 39.138856-62.194015 92.551517-62.194015 149.950906v343.962642c0 57.399389 22.617788 110.81205 62.194015 149.950906 24.873521 24.598636 55.26666 42.388949 88.611061 51.992282 19.504175 5.576055 40.014137 8.352246 61.016071 8.053612l17.228853-.245907 36.017315-44.894775c7.915296-9.866816 19.822316-15.667704 32.451139-15.833773l.557612-.003666h97.8812c13.365654 0 25.945709 6.31428 33.932126 17.031493l29.884608 40.104721 1.353459-.094864c52.085962-3.841329 100.44824-25.934581 137.104152-61.773314l1.153655-1.136313c39.603914-39.298291 62.24997-91.822463 62.24997-147.481411v-335.300624c0-55.658948-22.646056-108.18312-62.24997-147.481411-39.897404-39.589515-93.864267-62.670168-151.470079-63.489287l-236.093624-3.357105c-20.543344-.2921136-40.61592 2.357741-59.737455 7.691789zm243.873158 715.286326h-97.8812c-6.769147 0-13.17246 3.072279-17.408284 8.352447l-25.778546 32.132122 180.526-2.567-21.562772-28.935471c-4.211886-5.652058-10.846387-8.982098-17.895198-8.982098z"/></svg>