<svg height="960" viewBox="0 0 960 960" width="960" xmlns="http://www.w3.org/2000/svg"><path d="m395.5 5c2.790773 0 5.578461.03980296 8.362679.11931384l178.276635 2.77748113.126139.00216414.378366.00887924c16.542608.46652427 31.155026 2.48786895 43.994987 6.30963725 5.381335 1.6017348 12.88672 4.5568889 23.938681 9.2867364l1.068322.4580883c5.33967 2.293837 11.507566 5.0048318 18.514815 8.1372455l.630376.2824542 3.001779 1.0934062c152.192822 56.8831172 257.071761 235.4198638 259.174999 439.7612858l.032222 6.263308c0 195.489867-94.131386 369.015171-235.304775 435.912701l-.560225.259299-.047787.037485c-1.998389 1.506919-4.155594 2.83871-6.454393 3.967479l-.43268.209258c-31.882621 15.18523-50.060409 23.253658-59.327741 25.957517-12.964245 3.78248-27.740108 5.786029-44.489399 6.249045-.164801.004555-.329628.008092-.494472.01061l-182.347528 2.784606-1.722834.043921c-1.402791.030248-2.806437.050423-4.210889.068079h-2.686419c-101.514818-.200931-195.547478-53.026657-263.806237-143.54191-66.4662662-88.138298-104.114621-206.124945-104.114621-331.45809 0-125.449035 37.7184016-243.536396 104.294848-331.696987 68.381197-90.550444 162.567117-143.303013 264.205152-143.303013zm0 40c-181.42554 0-328.5 194.756134-328.5 435 0 240.022769 146.803878 434.641493 328 435h.5c2.430184 0 4.854204-.034944 7.271789-.104473l18.365831-.270703c-132.27937-69.18276-224.742-238.266904-224.742-434.624824 0-196.350016 92.455187-365.428454 224.726028-434.61647l-18.148741-.2731925c-2.484263-.0734285-4.97533-.1103375-7.472907-.1103375zm-179.10438 435c0 208.743017 107.763546 384.141486 253.608816 433.881039l26.767852-.41173c-152.348985-44.965964-264.598446-222.705244-264.598446-433.469309 0-210.716642 112.198953-388.4233599 264.495615-433.4389365l-26.730969-.4196016c-145.811806 49.7699288-253.542868 225.1469851-253.542868 433.8585381zm356.16465-424.4474394c-176.944538 0-320.386428 190.0315914-320.386428 424.4474394s143.44189 424.447439 320.386428 424.447439c35.079042 0 68.841344-7.468733 100.430292-21.27136l-.011522-.455817c112.009376-48.937793 196.700359-177.466031 215.908493-335.036158 2.528161-22.072738 3.837387-44.675869 3.837387-67.684104 0-23.645749-1.382783-46.863633-4.047065-69.519471-25.046646-201.342463-157.043521-354.9279684-316.117585-354.9279684zm233.378791 353.4770894c24.268927 0 41.657682 28.015216 41.657682 61.004043 0 32.988826-17.388755 61.004043-41.657682 61.004043-.505659 0-1.008331-.012162-1.507922-.036278-.470677.024096-.945462.036278-1.423345.036278-22.930278 0-38.726415-28.046203-38.726415-61.004043s15.796137-61.004043 38.726415-61.004043c.477883 0 .952668.012181 1.424275.036335.498661-.024173 1.001333-.036335 1.506992-.036335zm-21.657682 61.004043c0 22.183431 9.891991 39.227627 20.055261 40.873609 8.440432-1.649075 17.397569-18.664674 17.397569-40.873609 0-22.210687-8.95855-39.227218-17.399343-40.873344-10.163442 1.64907-20.053487 18.692094-20.053487 40.873344z"/></svg>