<?xml version="1.0" encoding="UTF-8"?>
<svg width="960px" height="960px" viewBox="0 0 960 960" version="1.1" xmlns="http://www.w3.org/2000/svg" xmlns:xlink="http://www.w3.org/1999/xlink">
    <!-- Generator: Sketch 60.1 (88133) - https://sketch.com -->
    <title>com.sonoff/driver/snzb-03/assets/icon</title>
    <desc>Created with Sketch.</desc>
    <g id="com.sonoff/driver/snzb-03/assets/icon" stroke="none" stroke-width="1" fill="none" fill-rule="evenodd">
        <path d="M827,6 C832.30433,6 837.391408,8.10713681 841.142136,11.8578644 L841.142136,11.8578644 L950.142136,120.857864 C953.892863,124.608592 956,129.69567 956,135 L956,135 L956,844.294574 C956,905.987777 905.987777,956 844.294574,956 L844.294574,956 L124.76,956 C119.455635,956 114.368526,953.892835 110.617793,950.142064 L110.617793,950.142064 L11.8577928,851.381064 C8.10710901,847.630342 6,842.543295 6,837.239 L6,837.239 L6,117.705426 C6,56.0122229 56.0122229,6 117.705426,6 L117.705426,6 Z M818.715,46 L117.705426,46 C78.1036129,46 46,78.1036129 46,117.705426 L46,117.705426 L46,828.954 L133.045,916 L844.294574,916 C883.500369,916 915.357178,884.535249 915.990394,845.480354 L915.990394,845.480354 L916,844.294574 L916,143.285 L818.715,46 Z M481,176 C648.894564,176 785,312.105436 785,480 C785,647.894564 648.894564,784 481,784 C313.105436,784 177,647.894564 177,480 C177,312.105436 313.105436,176 481,176 Z M481,206 C329.673979,206 207,328.673979 207,480 C207,631.326021 329.673979,754 481,754 C632.326021,754 755,631.326021 755,480 C755,328.673979 632.326021,206 481,206 Z M481,229 C619.623472,229 732,341.376528 732,480 C732,618.623472 619.623472,731 481,731 C342.376528,731 230,618.623472 230,480 C230,341.376528 342.376528,229 481,229 Z M481,259 C358.94507,259 260,357.94507 260,480 C260,602.05493 358.94507,701 481,701 C603.05493,701 702,602.05493 702,480 C702,357.94507 603.05493,259 481,259 Z" id="Combined-Shape" fill="#000000" fill-rule="nonzero"></path>
    </g>
</svg>