<svg width="960" height="960" viewBox="0 0 960 960" fill="none" xmlns="http://www.w3.org/2000/svg">
<path d="M228.749 30.2756C255.375 19.1278 285.079 14.1174 315.941 16.9163L416.955 26.0774C511.362 34.6394 583.657 113.788 583.657 208.582V751.438C583.657 846.316 511.239 925.504 416.739 933.962L315.726 943.003C288.303 945.457 261.791 941.747 237.542 933.039C236.677 932.853 235.818 932.612 234.973 932.308L131.408 895.066V895.065C58.981 869.236 9.00021 803.433 9 725.392V235.185C9.00013 157.386 58.0178 91.1601 130.566 65.2249L226.479 30.9377L227.052 30.7424C227.613 30.5608 228.179 30.4061 228.749 30.2756ZM302.446 56.1926C222.847 54.3916 156.135 118.522 156.135 199.421V760.478C156.135 838.038 217.459 900.199 292.688 903.597C298.707 903.867 304.819 903.761 311.001 903.257C311.387 903.226 311.773 903.197 312.159 903.162L413.173 894.121C428.178 892.778 442.471 889.154 455.723 883.609C456.232 883.395 456.74 883.179 457.247 882.96C471.937 876.611 485.315 867.89 496.924 857.297C497.324 856.932 497.722 856.564 498.118 856.195C501.683 852.867 505.075 849.361 508.282 845.691C509.351 844.467 510.4 843.226 511.428 841.967C512.797 840.288 514.129 838.578 515.422 836.838C515.745 836.403 516.066 835.966 516.385 835.528C517.022 834.65 517.649 833.766 518.267 832.873C518.884 831.981 519.491 831.082 520.088 830.175C520.984 828.815 521.857 827.439 522.707 826.048C523.274 825.12 523.83 824.186 524.376 823.244C524.922 822.303 525.458 821.356 525.982 820.402C526.245 819.924 526.505 819.446 526.762 818.965C528.562 815.602 530.231 812.161 531.764 808.648C531.983 808.146 532.199 807.643 532.412 807.138C533.052 805.623 533.666 804.096 534.255 802.556C534.647 801.529 535.028 800.498 535.397 799.46C535.951 797.904 536.478 796.335 536.979 794.755C537.48 793.175 537.955 791.584 538.402 789.982C538.849 788.379 539.269 786.766 539.661 785.142C539.792 784.6 539.919 784.058 540.044 783.514C540.293 782.427 540.53 781.335 540.754 780.24C541.202 778.047 541.6 775.838 541.946 773.612C542.12 772.498 542.28 771.381 542.428 770.26C542.723 768.018 542.965 765.76 543.155 763.489C543.345 761.217 543.482 758.931 543.564 756.632C543.606 755.483 543.633 754.33 543.646 753.174C543.653 752.596 543.657 752.017 543.657 751.438V208.582C543.657 208.003 543.653 207.425 543.646 206.848C543.564 199.919 542.988 193.1 541.949 186.427C541.863 185.871 541.774 185.316 541.681 184.762C540.937 180.33 539.989 175.964 538.848 171.675C538.705 171.139 538.559 170.604 538.41 170.07C538.261 169.536 538.11 169.003 537.955 168.472C537.491 166.878 536.999 165.296 536.481 163.725C535.446 160.583 534.304 157.487 533.061 154.443C532.646 153.428 532.219 152.419 531.782 151.416C531.564 150.915 531.343 150.414 531.119 149.915C530.609 148.781 530.082 147.655 529.544 146.535C528.899 145.196 528.236 143.867 527.551 142.55C526.797 141.1 526.019 139.664 525.217 138.243C524.682 137.296 524.137 136.356 523.581 135.422C522.192 133.087 520.739 130.795 519.223 128.547C518.097 126.879 516.936 125.236 515.743 123.617C515.329 123.056 514.912 122.497 514.49 121.942C514.162 121.51 513.833 121.081 513.5 120.654C511.82 118.494 510.078 116.384 508.278 114.324C507.1 112.976 505.896 111.651 504.668 110.348C504.061 109.703 503.449 109.063 502.83 108.43C501.142 106.702 499.408 105.018 497.634 103.377C496.046 101.909 494.425 100.476 492.771 99.0793C491.544 98.0426 490.298 97.0264 489.035 96.0305C487.937 95.1649 486.828 94.3128 485.704 93.4788C484.701 92.734 483.686 92.0034 482.662 91.2844C478.191 88.1443 473.529 85.2521 468.695 82.6282C467.902 82.1976 467.105 81.7727 466.303 81.3567C464.968 80.6648 463.62 79.995 462.261 79.344C461.87 79.1568 461.478 78.9711 461.085 78.7874C459.06 77.8401 457.008 76.9388 454.931 76.0842C454.383 75.8589 453.833 75.637 453.282 75.4182C451.355 74.6536 449.408 73.9293 447.439 73.2463C446.358 72.8709 445.27 72.5077 444.176 72.1575C439.54 70.6732 434.798 69.4158 429.961 68.4006C428.514 68.0969 427.058 67.8141 425.594 67.554C423.736 67.2238 421.865 66.9298 419.982 66.6711C418.415 66.4559 416.84 66.2646 415.256 66.0999C414.619 66.0336 413.981 65.9713 413.342 65.9133L312.328 56.7522C311.761 56.7008 311.194 56.6534 310.628 56.6086C309.857 56.5477 309.087 56.4922 308.318 56.4436C307.08 56.3655 305.844 56.3034 304.611 56.2571C303.889 56.2298 303.167 56.209 302.446 56.1926ZM144.031 102.891C86.6807 123.393 49.0001 175.034 49 235.185V725.392C49.0002 784.94 86.6808 836.074 143.542 856.918L144.889 857.406L144.944 857.425L177.555 869.152C151.866 840.395 136.135 802.412 136.135 760.478V199.421C136.135 157.597 151.783 119.707 177.349 90.9797L144.031 102.891ZM771.335 199.759C778.555 198.594 786 198.196 793.575 198.641L856.326 202.323C910.061 205.477 951.999 250.018 951.999 303.819V655.867C951.999 709.668 910.061 754.21 856.326 757.364L793.575 761.046C787.489 761.403 781.484 761.215 775.612 760.523C774.929 760.496 774.243 760.435 773.56 760.337L686.984 747.929C636.939 740.756 599.775 697.887 599.775 647.33V312.389C599.775 261.814 636.964 218.936 687.03 211.783L770.508 199.858L771.045 199.788C771.142 199.777 771.238 199.769 771.335 199.759ZM791.231 238.572C789.554 238.473 787.892 238.444 786.248 238.478C753.081 239.174 725.994 266.315 725.994 300.093V659.593C725.994 693.659 753.545 720.974 787.099 721.22C788.464 721.229 789.842 721.196 791.231 721.115L853.982 717.432C886.546 715.521 911.999 688.514 911.999 655.867V303.819C911.999 299.483 911.55 295.247 910.695 291.156C910.394 289.712 910.041 288.286 909.64 286.88C909.105 285.006 908.484 283.167 907.78 281.368C907.604 280.919 907.424 280.471 907.238 280.027C907.145 279.805 907.051 279.583 906.955 279.363C906.764 278.921 906.568 278.482 906.367 278.045C905.865 276.954 905.331 275.88 904.768 274.823C904.655 274.612 904.541 274.402 904.426 274.192L904.077 273.565C903.725 272.94 903.362 272.322 902.988 271.71C902.864 271.507 902.739 271.304 902.612 271.102C901.979 270.091 901.317 269.099 900.627 268.128C900.489 267.934 900.35 267.741 900.21 267.548L899.786 266.973C897.51 263.92 894.956 261.084 892.162 258.501C891.463 257.856 890.75 257.226 890.021 256.613C888.019 254.926 885.907 253.364 883.697 251.94C883.296 251.681 882.89 251.427 882.482 251.177C880.85 250.178 879.166 249.252 877.437 248.405C876.788 248.087 876.132 247.78 875.471 247.485C875.25 247.386 875.029 247.289 874.808 247.193C874.364 247.001 873.917 246.814 873.468 246.632C873.019 246.45 872.567 246.273 872.112 246.102C871.203 245.759 870.284 245.438 869.354 245.137C868.89 244.987 868.423 244.841 867.953 244.701C867.484 244.562 867.012 244.428 866.538 244.299C865.115 243.913 863.672 243.577 862.209 243.292C861.721 243.197 861.231 243.107 860.739 243.024C860.002 242.898 859.259 242.787 858.513 242.688C857.517 242.556 856.514 242.448 855.504 242.364C854.999 242.321 854.491 242.285 853.982 242.255L791.231 238.572ZM692.688 251.381C662.327 255.718 639.775 281.72 639.775 312.389V647.33C639.775 677.988 662.311 703.985 692.659 708.334L725.982 713.11C713.554 698.815 705.994 680.13 705.994 659.593V300.093C705.994 279.582 713.535 260.919 725.936 246.631L692.688 251.381ZM71.3447 277.817C76.1346 277.817 80.0175 287.41 80.0176 299.243C80.0176 311.077 76.1346 320.671 71.3447 320.671C66.5548 320.671 62.6719 311.077 62.6719 299.243C62.6719 287.41 66.5549 277.817 71.3447 277.817Z" fill="black"/>
</svg>
