<svg height="951" viewBox="0 0 960 951" width="960" xmlns="http://www.w3.org/2000/svg"><path d="m307.868856 11.2532049 420 19.6444421c70.491973 3.2970845 128.131144 59.8572556 128.131144 128.271527v632.661652c0 68.414271-57.639171 124.974443-128.131144 128.271527l-420 19.644442c-16.343838.764442-32.39481-1.525215-47.469483-6.688941l-.226373-.078541-57.414-15.582-1.2757-.279701c-3.550406-.801106-7.056627-1.75337-10.510362-2.853633l-1.235938-.401666-1.606256-.436716c-2.958266-.805108-5.762751-1.929821-8.380313-3.330809l-.064431-.035475-1.011319-.435327c-44.646325-19.567264-74.057193-63.440426-74.665075-113.679825l-.009606-1.588603v-635.186384c0-58.043408 38.392151-107.422021 93.409738-121.7715751l-1.009738.2707141 68.73508-21.2564089c.547816-.1694094 1.095534-.3265309 1.642915-.4715602l.193005-.0480309.784329-.2203666c12.910304-3.5554737 26.414565-5.0594759 40.113527-4.4187415zm-91.268856 125.7467951v677c0 49.363095 40.008186 87.499998 89.371967 85.191132l420-19.644442c49.393832-2.310272 89.428033-41.595036 89.428033-87.715864v-632.661652c0-46.120828-40.034201-85.4055918-89.428033-87.7158639l-420-19.644442c-49.363781-2.3088666-89.371967 35.8280371-89.371967 85.1911319zm.377145-63.8290561-9.472415 2.9318373c-36.774362 9.5914003-63.50473 42.5821678-63.50473 83.0663928v635.186384c0 37.150898 22.509814 67.991508 54.634708 80.230213l.000188.243676 2.721807.740755c3.48563 1.194159 7.076705 2.172431 10.757541 2.919865l6.799399 1.84777c-14.361869-18.034082-22.913643-41.0173-22.913643-66.337837v-677c0-24.160854 7.786369-46.1935854 20.977145-63.8290561zm320.125611 534.9626761c52.055358 2.728106 91.576051 48.713174 88.76842 102.28596-2.80763 53.572786-46.918574 95.174905-98.973932 92.4468-52.055358-2.728106-91.576051-48.713174-88.76842-102.28596 2.80763-53.572786 46.918574-95.174905 98.973932-92.4468zm-79.001342 93.493519c-2.240087 42.74341 29.029488 79.127728 69.842549 81.26665 40.813062 2.138922 75.714535-30.777519 77.954623-73.520928 2.240087-42.74341-29.029488-79.127728-69.842549-81.26665-40.813062-2.138922-75.714535 30.777519-77.954623 73.520928zm79.398586-503.627139c19.606109 0 35.5 15.893891 35.5 35.5s-15.893891 35.5-35.5 35.5-35.5-15.893891-35.5-35.5 15.893891-35.5 35.5-35.5zm0 20c-8.560414 0-15.5 6.939586-15.5 15.5s6.939586 15.5 15.5 15.5 15.5-6.939586 15.5-15.5-6.939586-15.5-15.5-15.5z"/></svg>