<svg height="960" viewBox="0 0 960 960" width="960" xmlns="http://www.w3.org/2000/svg"><path d="m229.658111 69.0315252 657.929661 26.1366613c21.456795.8523844 38.412278 18.4948495 38.412228 39.9685685l-.001592 244.649245 18.235207 37.283238c17.98015 36.763805 18.963052 79.529139 2.747605 117.047119l-.496642 1.13529-.072653.163118-.365819.816415-.07349.163033-19.974208 44.046787.001592 249.605758c.000049 21.356453-16.765477 38.90433-38.020605 39.951184l-.645457.026659-657.929661 21.95315c-3.563695.11891-7.127291-.239216-10.596063-1.064861l-115.363686-27.459098c-17.9833965-4.280445-30.691152-20.326325-30.7377482-38.812065l-.5093718-202.070727-51.1774865-83.593957c-22.0554163-36.025801-22.36660082-81.259026-.8970544-117.555765l.6572592-1.097147 50.6972817-83.568131-.5238615-207.637577c-.0487581-19.333819 13.7310181-35.9044266 32.6848915-39.4263835l.575934-.1027213 117.11692-20.0175472c2.749181-.4698883 5.539969-.6509552 8.326819-.5402458zm8.492729 47.8738308v729.542809c0 1.663334-.406102 3.231819-1.124565 4.611713l648.973114-21.641878.000019-257.623.151981-.335v-182.104l-.151981-.311.000592-253.908339-651.404276-25.877734c2.17413 1.83437 3.555116 4.579126 3.555116 7.646429zm-17.47671-6.640855-109.652741 18.740499 1.753266 694.905024 105.72039 25.148794c-.224467-.832246-.344205-1.707467-.344205-2.610653v-729.542809c0-2.548745.953518-4.874784 2.52329-6.640855zm166.32587 599.735499c19.553869 0 35 16.990744 35 37.5s-15.446131 37.5-35 37.5c-9.218837 0-17.652359-3.818546-23.931908-10.120311l-.068092-.069689-.067948.06938c-6.171139 6.193279-14.422873 9.988203-23.455914 10.117221l-.476138.003399c-19.553869 0-35-16.990744-35-37.5s15.446131-37.5 35-37.5c9.218837 0 17.652359 3.818546 23.931908 10.120311l.067092.068689.068948-.06838c6.171139-6.193279 14.422873-9.988203 23.455914-10.117221zm0 20c-6.467961 0-12.369598 4.940415-14.33431 12.341756-.578863 2.180655-1.711232 3.88159-3.153571 5.102796l-.068119.055448.066728.054993c1.37686 1.1656 2.471318 2.768329 3.071563 4.808193l.082364.294383c1.965413 7.401891 7.86735 12.342431 14.335345 12.342431 8.060369 0 15-7.633594 15-17.5s-6.939631-17.5-15-17.5zm-48 0c-8.060369 0-15 7.633594-15 17.5s6.939631 17.5 15 17.5c6.467961 0 12.369598-4.940415 14.33431-12.341756.578863-2.180655 1.711232-3.88159 3.153571-5.102796l.067119-.056448-.065728-.053993c-1.37686-1.1656-2.471318-2.768329-3.071563-4.808193l-.082364-.294383c-1.965413-7.401891-7.86735-12.342431-14.335345-12.342431zm442.88582-26.694437c15.603386 0 28.142769 12.878285 28.142769 28.633114 0 15.754828-12.539383 28.633113-28.142769 28.633113-10.338369 0-19.331635-5.653591-24.22369-14.051563-4.89077 8.397972-13.884036 14.051563-24.222405 14.051563s-19.331636-5.653591-24.223691-14.051563c-4.890769 8.397972-13.884035 14.051563-24.222405 14.051563-10.338369 0-19.331635-5.653591-24.22369-14.051563-4.89077 8.397972-13.884036 14.051563-24.222405 14.051563-15.603386 0-28.142769-12.878285-28.142769-28.633113 0-15.754829 12.539383-28.633114 28.142769-28.633114 10.338369 0 19.331635 5.653592 24.223691 14.051564 4.890769-8.397972 13.884035-14.051564 24.222404-14.051564 10.33837 0 19.331636 5.653592 24.223691 14.051564 4.890769-8.397972 13.884036-14.051564 24.222405-14.051564s19.331635 5.653592 24.22369 14.051564c4.89077-8.397972 13.884036-14.051564 24.222405-14.051564zm-96.892191 20c-4.436563 0-8.142768 3.806373-8.142768 8.633114 0 4.82674 3.706205 8.633113 8.142768 8.633113s8.142769-3.806373 8.142769-8.633113c0-4.826741-3.706206-8.633114-8.142769-8.633114zm-48.446095 0c-4.436563 0-8.142769 3.806373-8.142769 8.633114 0 4.82674 3.706206 8.633113 8.142769 8.633113s8.142769-3.806373 8.142769-8.633113c0-4.826741-3.706206-8.633114-8.142769-8.633114zm96.892191 0c-4.436563 0-8.142769 3.806373-8.142769 8.633114 0 4.82674 3.706206 8.633113 8.142769 8.633113s8.142768-3.806373 8.142768-8.633113c0-4.826741-3.706205-8.633114-8.142768-8.633114zm48.446095 0c-4.436563 0-8.142768 3.806373-8.142768 8.633114 0 4.82674 3.706205 8.633113 8.142768 8.633113s8.142769-3.806373 8.142769-8.633113c0-4.826741-3.706206-8.633114-8.142769-8.633114zm-200.042411-139.950669c14.977138 0 27.008846 12.35689 27.008846 27.468544 0 15.111655-12.031708 27.468544-27.008846 27.468544-14.977137 0-27.008845-12.356889-27.008845-27.468544 0-15.111654 12.031708-27.468544 27.008845-27.468544zm0 20c-3.810314 0-7.008845 3.284978-7.008845 7.468544 0 4.183567 3.198531 7.468544 7.008845 7.468544 3.810315 0 7.008846-3.284977 7.008846-7.468544 0-4.183566-3.198531-7.468544-7.008846-7.468544zm-490.1880201-222.740894-36.6764696 60.457241c-14.3657524 23.679605-14.3057277 53.399089.155559 77.020472l37.0209106 60.471287-.2015942-80.008355c-3.6343436 4.8371-8.6512587 7.828074-14.1921084 7.828074-11.094752 0-20.0888256-11.992098-20.0888256-26.785101s8.9940736-26.785101 20.0888256-26.785101c5.4922875 0 10.4697841 2.938776 14.0962319 7.701318zm814.4960001 49.634v97.104l3.391677-7.477107.36582-.816416c11.945562-26.981571 11.369308-57.880872-1.608048-84.415521zm-567.376529-4.283174 456.984335 6.836492c5.52223.082612 9.931911 4.626235 9.85044 10.148464-.083754 5.52223-4.627377 9.931911-10.149606 9.849298l-456.984335-6.836491c-5.52223-.082613-9.931911-4.626235-9.85044-10.148465.080915-5.335035 4.324459-9.63167 9.591533-9.842344l.278142-.007299zm-.279931-36.102003.279931.000346 456.984335 6.836491c5.52223.082613 9.931911 4.626235 9.85044 10.148465-.083754 5.522229-4.627377 9.93191-10.149606 9.849297l-456.984335-6.836491c-5.52223-.082613-9.931911-4.626235-9.85044-10.148465.080915-5.335035 4.324459-9.63167 9.591533-9.842344zm.279931-36.101312 456.984335 6.836491c5.52223.082613 9.931911 4.626235 9.85044 10.148465-.083754 5.52223-4.627377 9.93191-10.149606 9.849298l-456.984335-6.836492c-5.52223-.082612-9.931911-4.626235-9.85044-10.148464.080915-5.335036 4.324459-9.631671 9.591533-9.842345l.278142-.007298zm0-36.101658 456.984335 6.836492c5.52223.082612 9.931911 4.626235 9.85044 10.148464-.083754 5.52223-4.627377 9.931911-10.149606 9.849298l-456.984335-6.836491c-5.52223-.082613-9.931911-4.626235-9.85044-10.148465.080915-5.335035 4.324459-9.63167 9.591533-9.842344l.278142-.007299zm-.279931-36.102003.279931.000346 456.984335 6.836491c5.52223.082613 9.931911 4.626235 9.85044 10.148465-.083754 5.522229-4.627377 9.93191-10.149606 9.849298l-456.984335-6.836492c-5.52223-.082612-9.931911-4.626235-9.85044-10.148464.080915-5.335036 4.324459-9.631671 9.591533-9.842345zm374.944845-73.988392c8.232536 0 15.475676 4.130218 19.883844 10.434249 4.452809-5.764394 11.372284-9.481419 19.182173-9.481419 8.232535 0 15.475676 4.130218 19.883843 10.434249 4.45281-5.764394 11.372284-9.48142 19.182173-9.48142 13.52538 0 24.380206 11.1482 24.380206 24.76886s-10.854826 24.76886-24.380206 24.76886c-8.232535 0-15.475675-4.130218-19.883843-10.434249-4.452809 5.764394-11.372284 9.48142-19.182173 9.48142-8.232098 0-15.474906-4.12978-19.88314-10.433244-4.45372 5.7635-11.373105 9.480414-19.182877 9.480414-13.525379 0-24.380205-11.1482-24.380205-24.76886s10.854826-24.76886 24.380205-24.76886zm-214.280806-2.329139c8.232535 0 15.475676 4.130218 19.883843 10.434249 4.45281-5.764394 11.372284-9.48142 19.182173-9.48142 8.232536 0 15.475676 4.130219 19.883844 10.43425 4.452809-5.764395 11.372284-9.48142 19.182173-9.48142 13.52538 0 24.380206 11.1482 24.380206 24.76886s-10.854826 24.76886-24.380206 24.76886c-8.232535 0-15.475676-4.130218-19.883844-10.43425-4.452809 5.764395-11.372284 9.48142-19.182173 9.48142-8.232097 0-15.474905-4.129779-19.88314-10.433244-4.45372 5.7635-11.373104 9.480415-19.182876 9.480415-13.52538 0-24.380206-11.1482-24.380206-24.76886 0-13.620661 10.854826-24.76886 24.380206-24.76886zm-153.723188-2.329139c8.232536 0 15.475676 4.130218 19.883844 10.434249 4.452809-5.764394 11.372284-9.48142 19.182173-9.48142 8.232098 0 15.474906 4.129779 19.88314 10.433244 4.45372-5.7635 11.373104-9.480414 19.182877-9.480414 13.525379 0 24.380205 11.1482 24.380205 24.76886s-10.854826 24.76886-24.380205 24.76886c-8.232536 0-15.475676-4.130219-19.883844-10.43425-4.452809 5.764395-11.372284 9.48142-19.182173 9.48142-8.232535 0-15.475676-4.130218-19.883844-10.434249-4.452809 5.764394-11.372284 9.481419-19.182173 9.481419-13.525379 0-24.380205-11.148199-24.380205-24.76886 0-13.62066 10.854826-24.768859 24.380205-24.768859zm446.136027 26.563937c-2.358556 0-4.380205 2.076288-4.380205 4.76886s2.021649 4.76886 4.380205 4.76886c2.358557 0 4.380206-2.076288 4.380206-4.76886s-2.021649-4.76886-4.380206-4.76886zm-39.066016-.952829c-2.358557 0-4.380206 2.076288-4.380206 4.76886s2.021649 4.76886 4.380206 4.76886 4.380206-2.076288 4.380206-4.76886-2.021649-4.76886-4.380206-4.76886zm-39.066017-.95283c-2.358557 0-4.380205 2.076288-4.380205 4.76886s2.021648 4.76886 4.380205 4.76886 4.380206-2.076288 4.380206-4.76886-2.021649-4.76886-4.380206-4.76886zm-136.148773-.42348c-2.358557 0-4.380206 2.076288-4.380206 4.76886s2.021649 4.76886 4.380206 4.76886 4.380206-2.076288 4.380206-4.76886-2.021649-4.76886-4.380206-4.76886zm-39.066017-.95283c-2.358557 0-4.380205 2.076288-4.380205 4.76886s2.021648 4.76886 4.380205 4.76886 4.380206-2.076288 4.380206-4.76886-2.021649-4.76886-4.380206-4.76886zm-39.066016-.952829c-2.358557 0-4.380206 2.076288-4.380206 4.76886s2.021649 4.76886 4.380206 4.76886 4.380205-2.076288 4.380205-4.76886-2.021648-4.76886-4.380205-4.76886zm-75.591154-.42348c-2.358557 0-4.380206 2.076288-4.380206 4.76886s2.021649 4.76886 4.380206 4.76886c2.358556 0 4.380205-2.076288 4.380205-4.76886s-2.021649-4.76886-4.380205-4.76886zm-39.066017-.95283c-2.358557 0-4.380206 2.076288-4.380206 4.76886s2.021649 4.76886 4.380206 4.76886 4.380206-2.076288 4.380206-4.76886-2.021649-4.76886-4.380206-4.76886zm-39.066017-.952829c-2.358557 0-4.380205 2.076287-4.380205 4.768859s2.021648 4.76886 4.380205 4.76886 4.380206-2.076288 4.380206-4.76886-2.021649-4.768859-4.380206-4.768859z"/></svg>