<svg height="960" viewBox="0 0 960 960" width="960" xmlns="http://www.w3.org/2000/svg"><path d="m352.466099 55.6972021 399.676284 35.3003611c92.912061 8.2062146 164.16362 86.0282508 164.16362 179.3020048l.000911 259.507083c3.875018-1.462573 6.70517-2.462906 9.108051-3.206187l.541035-.165411c.445247-.133918.876686-.259303 1.298622-.37737 9.916458-2.774844 16.01449-1.040568 19.610859 6.677677 3.662563 7.860303.943304 14.506641-7.942282 21.54901-.497116.393995-.986207.776848-1.477288 1.154455l-.492115.376076-.495666.373888c-4.163429 3.11917-8.93208 6.146378-20.151107 12.522487l-.00102 156.067744c0 97.824845-78.128802 177.74127-175.92862 179.953949l-399.676284 9.042503c-1.35691.030699-2.714123.046051-4.07138.046051-1.056198 0-2.111538-.009141-3.165935-.027405l-.951065-.020476-.794001.008656-77.791999-.001656-2.29466.051322c-.444633.009889-.8893.01813-1.333991.024723l-1.334135.019779h-1.334214c-2.177253 0-4.350857-.038841-6.520066-.116381l.786066.024557-4.587877-.002352c-2.769655-.001765-5.463365-.281589-8.05786-.811159l-.224263-.048489-.12508-.011465c-7.336704-.759197-14.53786-1.956762-21.5777-3.565559l-64.337941 28.869459c-12.149828 5.452195-25.931356 2.330912-34.854378-6.736237l-106.49792602 47.710209c-7.56025304 3.386993-16.43474968.003898-19.82174308-7.556355-3.3869933-7.560253-.0038979-16.43475 7.5563551-19.821743l105.0396879-47.057892c-4.2443195-14.941767 2.789659-31.083552 17.1405411-37.523463l10.277738-4.612067c-1.259333-1.231546-2.500573-2.481358-3.723301-3.748993l-43.1169739 19.346541c-12.4136723 5.570594-26.5306803 2.191307-35.4287513-7.335325l-45.34120627 21.738021c-7.47005763 3.581534-16.42914313.429263-20.01067763-7.040794-3.5815345-7.470058-.4292637-16.429144 7.040794-20.010678l44.9600427-21.557249c-3.8073104-14.730258 3.2293474-30.446299 17.3423358-36.779456l33.7190326-15.131663c-5.9600465-17.43628-9.3160281-36.058942-9.6149761-55.390948l-.0218729-2.830519v-484.331943c0-5.197216.225092-10.391993.6746434-15.56973 7.3586639-84.753879 72.8790866-152.179315 156.0527786-162.9494661l1.340578-.1636852 80.201859-13.4484235c1.19988-.2011949 2.390825-.3479996 3.570989-.4426058l.720152-.0499707.808655-.1191641c13.638549-1.9524013 27.532043-2.3350197 41.466725-1.1042755zm523.84293 535.2374979c-.631397.348129-1.270005.700208-1.915923 1.056294l-.215601.118858-.224614.100796-535.094312 240.12192-.002858.051909c-.899353 11.142098-7.562536 21.150836-17.868773 25.949514l-.393123.179716-22.278928 10.000208c11.343785 3.22063 23.274115 5.046863 35.593986 5.281697.225968.004307.45243.008085.679023.011324l2.041813.014587c1.055644 0 2.111255-.01194 3.166629-.035818l399.676284-9.042502c76.066525-1.720973 136.833371-63.878192 136.833371-139.964183zm-673.855343 230.080684-44.814218 20.111549c1.414941 1.188475 2.85374 2.349465 4.315575 3.482149l43.302762-19.431467c-.9558-1.371888-1.890661-2.759452-2.804119-4.162231zm673.853069-331.819505c-1.428101 1.68818-3.223651 3.376635-5.383556 5.088491-.497116.393995-.986207.776848-1.477288 1.154455l-.492115.376076-.495666.373888c-7.472759 5.598463-16.895244 10.90067-62.065024 35.802205l-.215601.118858-.224614.100796-535.094312 240.12192-.002858.051909c-.899353 11.142098-7.562536 21.150836-17.868773 25.949514l-.393123.179716-31.63677 14.197666c.948784 1.388477 1.921916 2.758996 2.918782 4.110943l65.280525-29.29409c10.91702-4.898976 23.427111-2.92681 32.432438 4.515125l.155891.131115 534.506628-239.858553.226682-.101723.234317-.082633 3.970659-1.400274c5.377284-1.892171 10.547037-3.752967 15.624231-5.619548zm-638.858551-379.748089-5.987858 1.005777c-64.720446 7.455308-117.451567 59.553462-123.305904 126.981166-.349651 4.027129-.524723 8.067511-.524723 12.10979v484.331943c0 14.542383 2.217272 28.566895 6.33219 41.75391l63.224054-28.371766c-.368371-4.430233-.556244-8.91172-.556244-13.437087v-498.822316c0-4.699095.207014-9.395909.62044-14.076782 4.032556-45.657235 26.867357-85.134834 60.198045-111.474635zm104.270424-14.3591746.128.005-1.781-.056-.363-.01-.25-.005-.035-.001-.236-.004.222.004-1.518-.023-.670774-.0059986-1.967456.0033283c-1.015953.0088226-2.029714.028639-3.041159.059344l-1.515415.0542107-1.063029.0478359-.130167.0062797-.024386.0013495-.186614.0096505-.720067.038559.141067-.007559-.242.013.100933-.005441-.267525.0153528.167592-.0099118-.378.023-1.578.104-.252.017-.592.046-1.412.115-.346.03-.35.033-1.746.173-.126.013-.1.011-1.872.213-.326864.0391985.125452-.0153816-.460588.0571831-.732877.0938353-.596123.0791647-.385157.0528701.134157-.0188701-.218633.0305693-2.028367.2964307-.078.012-.3.047-1.575.257-.361.061-1.692724.299959c-60.35798 11.1023606-108.384187 61.2861106-114.0463 125.3934486-.361748 4.095764-.542885 8.205476-.542885 12.317184v498.822316c0 1.565592.025698 3.125183.076696 4.678372l24.449947-10.971669c10.91702-4.898976 23.427111-2.92681 32.432438 4.515125l.155891.131115 534.506628-239.858553.226682-.101723.234317-.082633 3.970659-1.400274c9.110225-3.205727 17.624766-6.321396 26.102731-9.527721 4.492938-1.699207 8.76417-3.342584 13.741415-5.27944.539191-.209822 2.97201-1.159282 5.46278-2.130609l.649873-.253413c2.054453-.801059 4.039521-1.574447 4.920367-1.915529 6.475261-2.507358 10.565398-4.006592 13.854822-5.024107l.541035-.165411c.445247-.133918.876686-.259303 1.298622-.37737 7.868975-2.201913 13.333545-1.564502 17.05166 2.649174l-.000279-198.407289c0-72.546253-55.417879-133.074503-127.682816-139.457115l-399.676284-35.3003608-2.162076-.1744338c-.073619-.0053769-.147229-.0106956-.22083-.0159563l-1.815369-.1170867.401.024.323.019-.07943-.004751-.24357-.014249-.64882-.0393336.24782.0153336-.458-.027-.155-.008-1.801-.086-.332-.014-.06389-.002878.01489.000878.049.002.143226.0053034-.192226-.0073034-.032-.002-.053-.002.03.001.023.001.01711.001122-.04011-.002122-.041-.001zm-199.218628 312.9113846c20.193452 0 32.581301 27.703734 32.581301 60.5s-12.387849 60.5-32.581301 60.5-32.581301-27.703734-32.581301-60.5 12.387849-60.5 32.581301-60.5zm0 20c-.075118 0-.183106.024526-.389687.119063-.412378.188714-.930911.549396-1.528144 1.114321-1.63763 1.549038-3.362365 4.154866-4.92065 7.639757-3.597582 8.045502-5.74282 19.388142-5.74282 31.626859s2.145238 23.581357 5.74282 31.626859c1.558285 3.484891 3.28302 6.090719 4.92065 7.639757.597233.564925 1.115766.925607 1.528144 1.114321.206581.094537.314569.119063.389687.119063s.183106-.024526.389687-.119063c.412378-.188714.930911-.549396 1.528144-1.114321 1.63763-1.549038 3.362365-4.154866 4.92065-7.639757 3.597582-8.045502 5.74282-19.388142 5.74282-31.626859s-2.145238-23.581357-5.74282-31.626859c-1.558285-3.484891-3.28302-6.090719-4.92065-7.639757-.597233-.564925-1.115766-.925607-1.528144-1.114321-.206581-.094537-.314569-.119063-.389687-.119063zm429.5-68c7.731986 0 14 8.282732 14 18.5s-6.268014 18.5-14 18.5-14-8.282732-14-18.5 6.268014-18.5 14-18.5z"/></svg>