<svg height="960" viewBox="0 0 960 960" width="960" xmlns="http://www.w3.org/2000/svg"><path d="m602.9229 85c38.847173 0 72.815976 13.578361 95.897537 40.010227l.680563.787773-.042-.05 220.180917 235.791135c1.351996 1.447844 2.575854 2.969511 3.672016 4.550998l.288067.422867.302194.324236c.87568.949452 1.736268 1.916116 2.581948 2.900288l.840718.990019c28.140881 33.606469 33.427542 80.005161 18.718036 127.737918-13.337285 43.27986-42.580117 86.013358-82.496738 120.177479-39.948001 34.21197-86.561838 56.382464-131.164308 62.587186-49.315716 6.860389-94.100128-6.13756-122.380168-39.845017-.191813-.228626-.38105-.459376-.567675-.692207l-.316007-.402902-66.576-77.998-.781217 1.130574c-13.52261 19.443701-30.071938 37.813738-49.071703 54.237295l-1.142922.983071c-39.948001 34.21197-86.561838 56.382464-131.164308 62.587186-49.315716 6.860389-94.100128-6.13756-122.380168-39.845017-.191813-.228626-.38105-.459376-.567675-.692207l-.316007-.402902-194.83-228.256-.0831207-.075807c-3.3246909-3.022014-6.4610752-6.247542-9.3974943-9.668579l-.795875-.937851c-.5762637-.686859-1.1292713-1.392898-1.6580853-2.116922l-5.5014361-7.532269c-.5267167-.721152-1.0291355-1.459741-1.5064116-2.214524-20.9480041-33.128011-26.49402084-77.207532-16.57294825-121.350409 10.14724145-45.149195 35.73326735-87.823225 74.05577195-120.643275 40.6839543-34.801464 80.9305063-54.7863983 125.7691323-60.8267669 8.259375-1.105924 16.398847-1.6675971 24.325367-1.6675971 38.847173 0 72.815976 13.578361 95.897537 40.010227l.637563.737773 75.646 81.012.196533-.336356c12.46674-21.222767 28.705239-40.868782 48.34538-57.909944l1.182488-1.019336c40.683954-34.801464 80.930506-54.7863983 125.769132-60.8267669 8.259375-1.105924 16.398847-1.6675971 24.325367-1.6675971zm-145.015299 285.060656c-6.123792 0-12.508172.42937-19.066276 1.288111-37.481087 4.937758-77.0903 23.572427-111.531205 52.383172-67.057703 56.16163-94.462762 134.822263-64.755852 180.764881l5.515757 7.385168c38.089122 44.396885 126.645246 32.374518 197.394597-26.878578 70.792782-59.253097 97.372649-143.624353 59.283526-188.107113-15.07061-17.561243-38.39314-26.835641-66.840547-26.835641zm371.532675 0c-6.123793 0-12.508173.42937-19.066277 1.288111-37.481086 4.937758-77.090299 23.572427-111.531205 52.383172-56.314306 47.163907-84.663776 110.195126-74.708002 156.390995l23.854685 27.944584c.163708.191781.320104.389685.468853.593287l.079298.109151.843909.979002c33.885835 38.251773 113.75389 27.111279 179.49905-28.039903l2.008131-1.702043c66.88716-57.243791 91.594008-137.412501 57.915197-177.62964-1.801503-2.146461-3.744381-4.154968-5.824865-6.022978-1.221688-1.09692-2.107053-2.421151-2.654547-3.847427l-.037875-.102011-15.614207-16.720222c-10.497064-3.718732-22.338174-5.624078-35.232145-5.624078zm-19.049778 17.170285c24.330655 0 44.73773 7.980111 58.169702 23.262575 33.43459 38.125515 11.349472 106.556481-46.115029 153.518921-57.253782 46.818956-130.238768 56.51359-163.424244 18.745194-.149444-.170081-.293068-.345189-.430625-.52502l-4.179797-5.464363c-.137832-.180192-.269493-.365022-.394754-.55417-26.051612-39.338864-2.951527-102.829319 51.083088-147.016065 27.512247-22.471649 59.249407-37.032403 89.575172-40.933241 5.374459-.687144 10.636034-1.033831 15.716487-1.033831zm-371.532674 0c24.330655 0 44.73773 7.980111 58.169701 23.262575 33.434591 38.125515 11.349472 106.556481-46.115029 153.518921-57.253781 46.818956-130.238767 56.51359-163.424244 18.745194-.149443-.170081-.293067-.345189-.430624-.52502l-4.179797-5.464363c-.137833-.180192-.269494-.365022-.394754-.55417-26.051612-39.338864-2.951528-102.829319 51.083088-147.016065 27.512247-22.471649 59.249407-37.032403 89.575171-40.933241 5.37446-.687144 10.636034-1.033831 15.716488-1.033831zm371.532674 20c-4.217127 0-8.632662.290941-13.172474.871369-26.435814 3.400473-54.733784 16.383354-79.462909 36.581782-46.549675 38.065946-65.911364 90.382687-47.629855 119.608654l.412047.640195 3.699 4.835.556536.616109c24.779491 26.681679 84.330807 18.742362 133.492307-20.640563l1.501651-1.215418c49.822847-40.717355 68.033169-97.142225 43.743766-124.839477-9.350489-10.638678-24.23101-16.457651-43.140069-16.457651zm-371.532674 0c-4.217127 0-8.632662.290941-13.172475.871369-26.435813 3.400473-54.733784 16.383354-79.462909 36.581782-46.549675 38.065946-65.911364 90.382687-47.629855 119.608654l.412048.640195 3.699 4.835.556536.616109c24.77949 26.681679 84.330806 18.742362 133.492307-20.640563l1.50165-1.215418c49.822847-40.717355 68.03317-97.142225 43.743766-124.839477-9.350488-10.638678-24.231009-16.457651-43.140068-16.457651zm-10.758305-70.558641c-6.185072.107939-12.641966.656911-19.267873 1.642239-38.387638 5.739301-79.103001 25.741416-114.41961 56.341963-58.389516 50.651624-86.473003 117.496442-73.849427 163.341138l10.376375 12.151076c-4.094651-52.153272 27.594427-114.903204 83.538558-161.757082 37.26171-31.170423 80.351643-51.417516 121.767082-56.873579 7.39298-.968062 14.644261-1.457399 21.662977-1.457399 9.070024 0 17.773872.821107 26.024098 2.446712-14.121901-10.722064-33.164682-16.230652-55.83218-15.835068zm376.565911.000118c-6.474687.108533-13.231428.660322-20.163579 1.650498-40.10349 5.759159-82.59311 25.808944-119.424552 56.462312-51.032216 42.521853-79.799147 96.377566-79.965522 139.62804l17.176235 20.121414c2.533251-48.686009 33.260804-103.881023 83.722204-146.143048 37.26171-31.170423 80.351644-51.417516 121.767082-56.873579 7.392981-.968062 14.644261-1.457399 21.662978-1.457399 3.988829 0 7.906838.158809 11.746587.475013l-10.966501-11.742235c-7.911326-1.553074-16.45588-2.273541-25.554932-2.121016zm-573.74253-211.672418c-6.107894 0-12.475698.437923-19.016776 1.313768-9.233896 1.243933-18.221153 3.227315-27.037916 5.951779-26.628911 8.337407-51.714004 23.452707-77.362883 45.391457-66.819318 57.221157-79.2296534 143.213728-49.6283495 190.023084l5.4961485 7.524494c2.5181827 3.001251 5.2577394 5.74945 8.1987998 8.247331l126.0634302 147.686775c1.478632-49.178686 31.961968-106.733385 83.67545-151.593694 38.069087-32.985472 82.233176-54.681832 124.571273-61.011759 7.47785-1.112022 14.799635-1.734528 21.868464-1.85789 9.01215-.157276 17.633204.49887 25.784184 1.948388l-36.339782-38.911773c-.042166.204374-.08391.408693-.125231.612957l-119.479804-127.954753-.45341-.534795c-15.043823-17.564477-38.123786-26.835369-66.213598-26.835369zm372.08905 9.820956c-5.660925 0-11.58058.408464-17.663512 1.222902-34.456336 4.641414-66.030521 20.31886-99.805969 49.208662-26.226136 22.458922-44.702487 50.558803-54.156249 80.351588l73.779419 79.00335c1.0057 1.021265 1.986906 2.069666 2.943066 3.145064l.08201.095478 25.111084 26.889258c1.036104 1.109478 1.921712 2.305665 2.65762 3.563352l.050535.089346.416794.430881c1.056891 1.107097 2.086934 2.242964 3.09026 3.407937l.747488.879193c24.917935 29.755439 27.848015 71.581561 13.2223 114.24697l13.492626 15.813792c7.611504-44.867252 37.900031-94.257431 85.299499-133.752349 39.570239-32.932764 85.448267-54.581453 129.387404-60.891437 7.751817-1.107259 15.340001-1.726948 22.663898-1.849716 1.758513-.029477 3.502586-.030243 5.231681-.002424l-147.255631-157.684671c-.054548-.058411-.108392-.117472-.16152-.177169l-.157227-.180991-.420398-.496017c-12.966913-15.138495-33.184526-23.312999-58.555178-23.312999z"/></svg>