<svg height="969" viewBox="0 0 960 969" width="960" xmlns="http://www.w3.org/2000/svg"><g fill="#000" fill-rule="evenodd"><path d="m465.792858 2.87901393 1.440259.06193875c.72134.03202736 1.444277.0656435 2.16782.10085655l1.447603.07255773c.965218.04979452 1.93034.10243764 2.893022.15794865l1.4419.08541985c21.918084 1.33345806 41.461219 3.94380467 57.289349 8.40813204 20.032378 5.6501366 44.749035 15.2819771 74.567107 28.9288718.200909.0919505.400692.1853559.599343.2801978l.112992.0554477.312723.1491569c16.316976 7.937543 26.781586 24.421298 26.99727 42.5982941v812.9833642c0 24.690128-18.369862 45.523588-42.865689 48.614507l-146.910279 18.537583c-30.692002 3.872732-61.849853 1.514108-91.606955-6.934119-10.076072-2.860046-18.463129-5.394393-25.229895-7.631677-14.964816-4.94779-28.878971-10.712793-41.73211-17.319331-13.332415-6.852886-21.714065-20.58511-21.714065-35.575618v-829.1926429c0-3.3419069.418806-6.6706413 1.246629-9.9083951 4.901748-19.1715452 19.172742-32.0923941 37.331337-37.6394882 9.352261-2.8569321 19.750939-4.5154361 34.230163-6.0301957 2.637116-.2758848 5.284839-.5344608 8.760246-.860792.614648-.0577138 1.234453-.1156376 2.065678-.1931213 1.012389-.0943254 1.537898-.1432951 2.002437-.1866674 1.568321-.1464283 2.703947-.2536217 3.783085-.3576031 5.391911-.5195434 8.711781-.9084796 10.617737-1.2373359 22.908681-3.95269662 45.332316-6.73076828 71.276821-8.18113276 2.434118-.13607346 5.686096-.20901172 9.470867-.2164713l1.095615-.00034756c5.5481.00719115 12.128129.14846775 18.90899.43066215zm-160.789463 79.97473787-.000142 813.5987932c10.955308 5.631049 22.956237 10.603352 36.002786 14.91691 6.156181 2.035407 14.021336 4.412202 23.595624 7.129819 22.090022 6.271495 45.112889 8.48085 67.951183 6.543477l.000249-813.91563c-24.917673-.417684-48.140956-2.766563-66.156504-6.674698-10.574295-2.293895-19.33884-5.1081945-26.094113-8.5728589l-.05849-.0300894c-9.720419-3.0773608-19.75622-6.5629173-28.87826-10.021957-2.278936-.864163-4.402004-1.8571249-6.362333-2.9737659zm253.740293-19.5027313.064861.2431152c.492814 1.9539657.755045 4.0016617.755045 6.1338158 0 7.0525096-2.86902 13.1809787-7.461792 18.0498514-3.060695 3.2446935-6.7938 5.8483684-11.187381 8.1017612-6.755272 3.4646644-15.519818 6.2789639-26.094112 8.5728589-17.07463 3.70402-38.82722 6.007405-62.266661 6.593503l-.001395 811.632136 134.636691-16.987665c4.499245-.567721 7.873302-4.394275 7.873302-8.929197v-812.4206567c0-3.1288729-1.82425-5.9705232-4.668999-7.2733082-11.402005-5.2187686-21.951866-9.7908224-31.649559-13.7162146zm-145.553637 284.9377685c1.453311 11.836269-6.649762 22.881686-18.548785 24.342703-11.899024 1.461016-22.43353-7.295994-23.886841-19.132263s6.649762-22.881686 18.548786-24.342702c11.899024-1.461017 22.433529 7.295994 23.88684 19.132262zm-22.302539-6.229162c-4.592089.563837-7.829064 4.976206-7.229987 9.855301.599078 4.879094 4.80735 8.377302 9.399439 7.813464s7.829065-4.976206 7.229987-9.855301c-.599077-4.879095-4.807349-8.377302-9.399439-7.813464zm22.302539-41.770838c1.453311 11.836269-6.649762 22.881686-18.548785 24.342703-11.899024 1.461016-22.43353-7.295994-23.886841-19.132263s6.649762-22.881686 18.548786-24.342702c11.899024-1.461017 22.433529 7.295994 23.88684 19.132262zm-22.302539-6.229162c-4.592089.563837-7.829064 4.976206-7.229987 9.855301.599078 4.879094 4.80735 8.377302 9.399439 7.813464s7.829065-4.976206 7.229987-9.855301c-.599077-4.879095-4.807349-8.377302-9.399439-7.813464zm22.302539-42.770838c1.453311 11.836269-6.649762 22.881686-18.548785 24.342703-11.899024 1.461016-22.43353-7.295994-23.886841-19.132263s6.649762-22.881686 18.548786-24.342702c11.899024-1.461017 22.433529 7.295994 23.88684 19.132262zm-22.302539-6.229162c-4.592089.563837-7.829064 4.976206-7.229987 9.855301.599078 4.879094 4.80735 8.377302 9.399439 7.813464s7.829065-4.976206 7.229987-9.855301c-.599077-4.879095-4.807349-8.377302-9.399439-7.813464zm22.302539-41.939644c1.453311 11.836269-6.649762 22.881686-18.548785 24.342703-11.899024 1.461016-22.43353-7.295994-23.886841-19.132263s6.649762-22.881686 18.548786-24.342702c11.899024-1.461017 22.433529 7.295994 23.88684 19.132262zm-22.302539-6.229162c-4.592089.563837-7.829064 4.976206-7.229987 9.855301.599078 4.879094 4.80735 8.377302 9.399439 7.813464s7.829065-4.976206 7.229987-9.855301c-.599077-4.879095-4.807349-8.377302-9.399439-7.813464zm107.831868-144.5399057.102459.1440965c2.593502 3.6419519 4.178161 8.0312271 4.178161 13.0049882 0 .1675787-.001854.3346392-.005542.5011691l-.009458.2508309.00338.0597246c.003863.1142366.006768.2287163.008707.3434314l.002913.344844v15c0 1.5396885-.174065 3.0390155-.503655 4.479278 22.599086-3.9343617 37.067249-9.9763149 37.067249-16.7513265 0-7.1452299-16.092582-13.475097-40.844214-17.3770362zm-120.156789.6519176-.014863.0041452c-22.500141 3.9349063-36.894422 9.9632823-36.894422 16.7209734 0 2.6805378 2.264838 5.246323 6.402039 7.6122155 9.487723 2.9651416 18.515665 5.4757866 25.728996 7.0596271.469016.1029824.935148.2032273 1.398887.3007976-.106581-.7715832-.166768-1.5574618-.180295-2.354626l-.002933-.3459657-.000323-13.090456c-.163333-1.0923328-.248489-2.2165181-.248489-3.37017 0-4.7286761 1.430694-8.9622892 3.811403-12.5365411zm60.437409 2.9971671c-24.300529 0-44 4.2532949-44 9.5 0 .5106793.186628 1.0119472.545963 1.5007979l-.324042-.0007833c3.123542 4.8015925 21.413556 8.487231 43.509331 8.487231 24.289518 0 43.980064-4.4538138 43.980064-9.9478716 0-1.4093982-1.295802-2.7503396-3.632632-3.9651967-6.919676-3.2879558-22.262605-5.5741773-40.078684-5.5741773zm-112.982518-.4480899-.291035.0494438c-3.860752.6635641-7.422891 1.438024-10.459118 2.3655316-2.156004.6586169-3.985881 1.5108268-5.489631 2.5566299 1.413599 2.8001885 4.154562 4.8876017 8.679243 6.6033419 1.064906.4038079 2.143328.8081513 3.23299 1.2122379.257332-4.7412173 1.82193-9.0395332 4.327551-12.7871851z" fill-rule="nonzero"/><path d="m370.973349 115.278732c5.519509 1.786947 12.010722 3.106304 19.47364 3.958071 7.462917.851767 15.980773 1.277651 25.553568 1.277651 2.891609 0 5.235722 2.344112 5.235722 5.235722v49.215786c0 2.891609-2.344113 5.235721-5.235722 5.235721-11.580871-.073849-21.293627-.566858-29.138269-1.479026s-13.140955-2.164399-15.888939-3.756695c-2.89161 0-5.235722-2.344113-5.235722-5.235722v-49.215786c0-2.891609 2.344112-5.235722 5.235722-5.235722z"/><path d="m442.654417 114.08266h8.492032l9.804247 2.984501v739.591322h-6.961699l-11.33458-4.074058z"/></g></svg>