<svg height="960" viewBox="0 0 960 960" width="960" xmlns="http://www.w3.org/2000/svg"><g fill="#000" fill-rule="evenodd"><g fill-rule="nonzero"><path d="m285.507205 72.6903545.084795.0176455 586.682079 33.250799c9.427217.534312 18.355109 4.38577 25.2092 10.862677l.408745.39176 49.98939 48.594957c7.747468 7.531357 12.118586 17.87663 12.118586 28.681473v572.02067c0 10.804841-4.371118 21.150114-12.118586 28.681471l-49.98939 48.594957c-6.90592 6.713282-16.002184 10.709439-25.617945 11.254437l-586.705079 33.251799-.443751.08498c-3.150201.568012-6.417804.762424-9.751071.538183l-.333178-.026163-.786471.045813c-5.203478.295138-10.35396-.431189-15.183319-2.079226l-.46621-.163587-187.2262163-25.956834c-8.8228127-1.223202-16.9793499-5.355272-23.181879-11.732927l-.3932401-.410127-35.8718755-37.947893c-7.0202747-7.42656-10.9317891-17.258481-10.9317891-27.477975v-595.977375c0-9.708115 3.53064553-19.084907 9.9336554-26.382095l35.8718756-40.88137c6.0528938-6.898178 14.2937369-11.505202 23.3403409-13.048361l186.4801281-31.809043.395905-.1631363c5.239429-2.1140341 10.919475-3.1156199 16.676209-2.8693565l.557331.0277319.764555.0437609.616145-.0434673c3.37417-.2064116 6.682982.0177696 9.87106.6258218zm-7.507205 39.3096455-1.499.256-4.51161-.256-1.28639 1.245-2.701.460666-46.986447 45.461258v640.651149l49.802447 48.185593.166.023334.207.199666 598.52113-33.908681 50.042307-48.626937-.000437-571.441382-49.74339-48.354959-592.01061-33.553707zm-227.12 681.618666 25.9918755 27.496471 160.3731245 22.233529-30.136227-29.156955c-.671725-.649907-1.293005-1.342031-1.861256-2.070278zm150.135-626.497-160.015 27.669.0003002 577.567366c.3822903.001733.7684799.025362 1.1572095.071955l158.8574903 19.040679zm110.017808 16.115025 523.590808 23.754139c9.639172.437308 18.687175 4.367651 25.404737 10.873831 6.690145 6.479625 10.620309 15.088456 10.620309 24.224998v483.360736c0 9.137018-3.929878 17.749555-10.618815 24.23769-6.716252 6.51463-15.762787 10.457964-25.402206 10.909232l-523.590808 24.511847c-9.706093.454389-18.891609-3.042786-25.661649-9.599792-6.775632-6.562422-10.620309-15.685197-10.620309-25.498851v-531.626723c0-9.814207 3.844736-18.940823 10.618814-25.511543 6.768476-6.565286 15.952252-10.075943 25.659119-9.635564zm-11.734108 23.991541c-2.882386 2.795857-4.543825 6.739773-4.543825 11.155566v531.626723c0 4.411694 1.658392 8.346783 4.534604 11.132488 2.819033 2.730326 6.635974 4.183539 10.81208 3.988035l523.590808-24.511847c4.750415-.22239 9.182926-2.154496 12.41247-5.28709 2.939289-2.851051 4.543825-6.367477 4.543825-9.881712v-483.360736c0-3.51004-1.60132-7.017653-4.534604-9.858635-3.224015-3.122564-7.650595-5.045417-12.396864-5.260745l-523.590809-23.754139c-4.179537-.189616-8.0026 1.271816-10.827685 4.012092zm18.797989 119.15721.279922.002501 509.856947 11.29228c5.521493.12229 9.898413 4.69748 9.778625 10.218974-.124791 5.521493-4.699982 9.898413-10.221475 9.776123l-509.856947-11.29228c-5.521494-.12229-9.898413-4.69748-9.778625-10.218974.120561-5.334324 4.394913-9.600357 9.663366-9.77318zm-85.013689-206.723776-156.2111245 26.646833-22.7388755 25.914167 151.859881-26.258828c.354707-.403557.726838-.794135 1.115892-1.170553z"/><path d="m418.929079 443.925213 11.055631.190913v45.05796c9.015594 2.489533 15.650309 10.676069 15.650309 20.335426 0 11.546361-9.481745 20.883704-21.17896 20.852883-11.695544-.031122-21.178959-9.486078-21.178959-21.115555 0-9.728888 6.636386-17.851506 15.651979-20.179236"/><path d="m424.500836 383.089675c13.226174.364859 24.0093 11.308528 24.0093 24.354013l-.000014 70.610449.213468.164438c9.445905 7.333152 15.145871 18.487098 15.274196 30.465528l.002214.413371c0 21.468106-17.682149 38.881898-39.499164 38.88924-21.818221.007337-39.500836-17.628531-39.500836-39.386221 0-12.298563 5.721932-23.659119 15.27641-30.940268l.213198-.160843.000256-71.186954c0-13.021088 10.569151-23.379052 23.614897-23.232059zm-.499997 11.907484c-6.839977-.174882-12.452254 5.240009-12.452254 12.017639v75.307707c0 1.276008-.680144 2.450379-1.789401 3.089862-8.462039 4.886372-13.759184 13.859234-13.759184 23.797796 0 15.357925 12.536787 27.825469 28.000839 27.848913 15.462604.023375 27.999161-12.288958 27.999161-27.501723 0-9.84477-5.297145-18.83202-13.759184-23.853506-1.109257-.6593-1.789401-1.84277-1.789401-3.11341v-74.990838c0-6.748913-5.612075-12.427596-12.450576-12.60244z"/><path d="m654.001887 578.461309c7.452655-.042373 13.879326 5.385786 13.879326 13.195728 0 5.442428 3.033735 11.909475 10.060146 20.589572.686696.847144 1.889895 2.250864 5.127746 5.995591.003057.003534.003057.003534.006114.007067 3.838897 4.434238 5.152627 5.96739 5.929675 6.976769l.168299.220788c.706618.934385 1.644887 2.262183 2.876079 4.057484.726532 1.059044 1.43581 2.105931 2.238789 3.302401 4.518678 6.755706 6.711939 14.77483 6.711939 23.735743 0 24.706545-21.036335 45.320643-46.998113 46.036828-25.960264.716143-47.001887-19.073924-47.001887-44.19086 0-8.894845 2.055547-17.095931 6.253193-23.90319 1.071897-1.727075 4.484813-6.623996 6.068272-8.711762.02367-.03122.047273-.062265.070961-.093321l.071468-.09338.072885-.094542c.024632-.03183.049652-.064038.075211-.096807l.078446-.100177c.656323-.834769 1.727185-2.116733 5.440426-6.545647l.030438-.036281c2.751749-3.278477 4.179567-4.995772 4.899316-5.908345 7.027579-8.898304 10.061945-15.458672 10.061945-20.924097 0-7.84823 6.426671-13.376691 13.879326-13.419562zm3.680639 13.965839c0-4.654908-7.361256-4.600699-7.361256.060251 0 8.262838-4.25726 16.772487-12.243856 26.775813-1.010334 1.26744-3.245743 3.904534-5.428404 6.477732l-.483648.570417c-2.167836 2.557911-4.188272 4.94511-4.783485 5.721703-1.440002 1.878278-4.690219 6.496457-5.575872 7.907763-3.243152 5.200552-4.806005 11.649344-4.806005 18.657904 0 19.544124 16.567596 34.962363 37.001898 34.433032 20.436257-.529382 36.998102-16.5988 36.998102-35.891509 0-7.084829-1.664798-13.335672-5.170862-18.528389-.708533-1.045616-1.42013-2.087892-2.185656-3.193077-1.169948-1.689632-2.103517-2.999819-2.722384-3.800916-.687574-.890582-3.071291-3.618291-5.490078-6.384844l-.500395-.572619c-2.082521-2.384258-4.105972-4.70493-5.006174-5.804456-7.985359-9.768959-12.241925-18.173311-12.241925-26.428805z"/></g><path d="m635.894068 651.322459c6.917945-.127959 12.195821 1.291218 15.833628 4.254619 4.262651 3.910852 9.364813 5.803562 15.306485 5.68263 5.941673-.120932 11.17665-1.955175 15.704933-5.498578.38356-.362389.753763-.718378 1.11061-1.067971.099166.952183.150276 1.918562.150276 2.897271 0 15.997494-13.655315 29.305972-30.5 29.725317s-30.5-12.349353-30.5-28.519686c0-1.355054.095891-2.690458.281514-4.000117 2.58372-2.20839 6.787559-3.365742 12.612554-3.473485z"/></g></svg>