<svg height="960" viewBox="0 0 960 960" width="960" xmlns="http://www.w3.org/2000/svg"><g fill="#000" fill-rule="evenodd"><path d="m612.590265 2h.857573 4.205004c48.68642.01356204 69.262331.22663834 89.846948 1.23744481l1.357539.06780891c1.584506.08047386 3.172721.16574573 4.777443.25608761 30.362315 1.70932318 54.626121 5.25685361 78.671446 11.84552797 3.862409 1.0583412 7.718205 2.1961475 11.584426 3.418318.545496.1724395 1.08723.3565622 1.624828.5522409 62.79422 22.8562981 112.250654 72.3129454 135.106713 135.1072408.195439.536946.379351 1.078019.551607 1.622845 1.215872 3.845649 2.348257 7.681099 3.401975 11.523106 6.597232 24.05445 10.149386 48.327555 11.860914 78.70107.026645.472836.052848.944239.078618 1.414537l.076017 1.407903c.037365.702621.073771 1.40349.10924 2.103712l.069698 1.399908c1.004126 20.528925 1.216206 41.134413 1.229746 89.687756v3.35409 1.710139 265.18053.857574 4.205005c-.013562 48.686441-.226645 69.262363-1.237482 89.847004l-.067811 1.35754c-.080477 1.584509-.165751 3.172725-.256096 4.777449-1.709377 30.362389-5.257022 54.626269-11.84591 78.671669-1.058375 3.862421-2.196218 7.718227-3.418428 11.584459-.172395.54534-.356467 1.08692-.552088 1.624366-22.856934 62.7967-72.315738 112.253364-135.111073 135.10182-.534481.194473-1.073048.377525-1.615335.549031-3.866392 1.222797-7.722364 2.361188-11.584955 3.420074-24.046512 6.592086-48.311515 10.141452-78.675001 11.851642-1.654386.093182-3.291228.180972-4.924547.263669l-1.399452.069644c-.932829.045606-1.865817.089578-2.80158.131969l-1.406052.06241-1.412177.060083c-18.878586.785768-39.913832.961969-84.039136.974327h-3.353019-1.709593-265.18053-.857804-4.206134c-43.69548-.012251-64.754035-.185199-83.492882-.951711l-1.246042-.051985-1.240508-.053772c-.206364-.009112-.412553-.018301-.618596-.027565l-1.234712-.056506c-.616697-.028716-1.232572-.058128-1.848379-.088253l-1.399767-.0697c-1.633687-.082765-3.270895-.170628-4.925653-.263886-30.370508-1.711606-54.640774-5.263959-78.692564-11.861684-3.848955-1.055819-7.691334-2.190615-11.543993-3.409238-.541773-.171366-1.079832-.354258-1.613813-.548549-62.7954251-22.848488-112.2545-72.30521-135.1114015-135.10182-.1956501-.537525-.3797472-1.079185-.5521644-1.624607-1.2221803-3.866224-2.3599957-7.722022-3.4183454-11.584434-6.58872764-24.045344-10.13628677-48.309168-11.84562349-78.671502-.09034256-1.604722-.17561508-3.192937-.25608956-4.777444l-.06780943-1.357539c-1.01081419-20.584623-1.22389208-41.160538-1.23745422-89.846963v-3.352996-1.709581-265.18053-.857853-4.206375c.01302353-46.611194.20896728-67.465652 1.11298958-87.222094l.05742812-1.233571c.01945319-.410862.03921845-.821471.05930052-1.232049l.06969589-1.399907c.03546856-.700221.07187326-1.401089.1092376-2.103709l.07601516-1.407902c.02576953-.470298.05197252-.941701.07861594-1.414536 1.71148833-30.37346 5.263556-54.646509 11.86062789-78.700903 1.0536925-3.841998 2.1860498-7.67744 3.4018924-11.523082.1722786-.544907.3562153-1.08606.5516834-1.623085 22.8560264-62.7942054 72.312731-112.2509099 135.1070415-135.1072408.537098-.1954968 1.078324-.379459 1.623307-.55176 3.852488-1.2179983 7.694691-2.3522113 11.543466-3.4074868 24.050603-6.59431047 48.31967-10.14482628 78.689007-11.85556493 1.891113-.10652847 3.759306-.20601313 5.625518-.29889921l2.099758-.10173654 1.402181-.06480084c19.655118-.89052356 40.534697-1.08423233 86.878067-1.09717988h3.353873 1.71003zm-275.525607 40.0009578c-81.120446.0229861-123.458536.5976393-168.898758 14.9639692-51.684 18.812319-92.3887635 59.516973-111.2008635 111.200973-14.366435 45.440222-14.9410924 87.785376-14.9640787 168.899606v285.869806c.0229863 81.119972.5976437 123.452258 14.9640787 168.898788 18.8121 51.684 59.5168635 92.388435 111.2008635 111.193965 45.440222 14.373058 87.778312 14.94798 168.898758 14.971935h7.71994 2.625137 265.18053 2.625135 7.719912c81.119972-.023955 123.452258-.598877 168.898788-14.971935 51.684-18.80553 92.388435-59.509965 111.200535-111.193965 14.36675-45.44653 14.94142-87.778816 14.965365-168.898788v-7.719912c0-.870678 0-1.745708 0-2.625135v-265.18053-2.624911-7.719318c-.023945-81.11423-.598615-123.459384-14.965365-168.899606-18.8121-51.684-59.516535-92.388654-111.200535-111.200973-45.44653-14.3663299-87.778816-14.9409831-168.898788-14.9639692z" fill-rule="nonzero"/><path d="m591.350199 296.297373c.318465.002764.501801.017427.501801.017427 7.663809.383642 8.842825 7.612814 8.956288 8.474631l.007757.062404c.001628.014102.002355.021365.002355.021365 1.2216 6.9276-.816 20.376-.816 20.376-5.298 55.0152-28.1184 68.8704-28.1184 68.8704-19.1532 14.6712-36.6768 8.9652-36.6768 8.9652 19.968-13.8552 25.266-33.0084 25.266-33.0084l3.6672 2.8524c14.524488-18.155016 16.266904-54.283498 16.3003-55.004252l.000527-.022468c.000014-.003852.000035-.008674.000065-.014477l.000648-.078914c.006902-.658518.078228-4.470457.81526-12.935489.342307-7.887205 7.610298-8.560688 9.906179-8.575995zm-35.827901.01217c.041532.000709.063302.001657.063302.001657 8.732338 1.191039 8.959152 10.113441 8.965043 10.576139l.000157.018661c-.13872 3.325608-.465822 7.875975-.83717 12.433824l-.065962.804157-.098727 1.184809c-.640247 7.615796-1.346074 14.752339-1.434483 15.641483l-.006916.069459c-.001552.015566-.002342.023468-.002342.023468-4.89 37.8996-22.0056 52.9776-22.0056 52.9776-17.1156 18.7464-40.752 13.0404-40.752 13.0404 16.602132-11.068476 24.002262-31.721712 24.058957-32.579669l-.001279-.01381 4.060722 2.437479c16.945632-20.98008 17.913674-66.32231 17.93134-67.227056l.00026-.013744c.736265-8.838434 8.460627-9.357191 9.942821-9.375082zm-90.805498-35.449943c6.1128 17.1156 6.5196 48.4944 6.5196 48.4944 1.2228 45.642 17.5236 64.7964 17.5236 64.7964 18.3384-19.1544 18.7464-66.834 18.7464-66.834 0-10.664885 8.062408-11.406315 10.120895-11.421811l.139702.000028c.214298.001762.334203.010983.334203.010983 7.471 1.019 8.150333 9.113 8.16925 11.782694l.000147.215256c-.002368.402777-.018997.63565-.018997.63565 0 45.716737-14.733067 69.333874-16.185836 71.551537l-.110106.165371c-13.860058 24.050292-37.904458 23.235492-37.904458 23.235492-25.266.8148-38.7144-18.3384-39.1212-18.3384-16.7088-23.6364-17.5236-66.018-17.5236-66.018 5.949987-4.297267 6.537026-15.028807 6.546506-18.929623l-.000423-.30496c-.003816-.722584-.026483-1.141417-.026483-1.141417-1.6296-18.7464 5.298-37.8996 5.298-37.8996 1.79344 5.67776 2.052277 10.260389 2.06279 12.300706l.000016.262332c-.002993.574702-.025206.885362-.025206.885362-1.442196 15.146952-1.749864 24.052749-1.759719 28.809301l-.000009.469495c.006197 2.959802.130128 4.137604.130128 4.137604.4068 5.7048 3.6672 8.1504 3.6672 8.1504 4.203 4.966875 4.465688 12.440742 4.482105 13.355574l.000958.069284c.000137.015583.000137.023542.000137.023542 5.298 55.83 33.4164 54.2004 33.4164 54.2004-13.0404-22.8216-17.1156-62.3508-17.1156-62.3508-.408-4.8912 2.4456-6.1128 2.4456-6.1128 4.0752-3.2604 3.6672-8.1504 3.6672-8.1504 1.2228-26.8968 6.5208-46.05 6.5208-46.05zm166.6656 35.04c9.78 1.6296 8.5572 13.0404 8.5572 13.0404-4.34754 66.013932-27.101342 82.949015-28.462658 83.905707l-.056572.039089c-19.97517 16.305604-39.94437 8.562004-39.94437 8.562004 7.7436-4.89 11.4108-9.78 11.4108-9.78 2.8524-3.6672 6.1128-8.5584 10.188-11.0028 4.677391-1.949009 6.745025-4.643505 6.915978-4.874125l.011622-.015875c18.7464-22.0068 18.7464-64.7964 19.9692-73.3536 1.2228-8.5584 11.4108-6.5208 11.4108-6.5208zm-104.3184-68.8656c16.7088 23.6364 17.5236 66.018 17.5236 66.018-7.3356 5.298-6.5208 20.376-6.5208 20.376 1.6308 18.7464-5.298 37.8996-5.298 37.8996-1.79256-5.67776-2.051808-10.260389-2.062603-12.300706l-.000052-.262332c.002907-.574702.025055-.885362.025055-.885362 2.4456-25.6728 1.6308-33.4164 1.6308-33.4164-.408-5.7048-3.6684-8.1504-3.6684-8.1504-4.271906-5.049656-4.472152-12.690567-4.481538-13.395807l-.000462-.052593c-4.98012-52.4802-30.124345-54.189097-33.123724-54.205236l-.160968.000796c-.086719.001433-.131708.00404-.131708.00404 13.0404 22.8216 17.1156 62.3508 17.1156 62.3508.4068 4.89-2.4456 6.1128-2.4456 6.1128-3.320533 2.656622-3.664566 6.395174-3.678113 7.688717l-.000047.160906c.002005.193452.01096.300777.01096.300777-1.2228 26.8968-6.5208 46.05-6.5208 46.05-5.990544-16.773288-6.501046-47.244953-6.519069-48.457111l-.000531-.037289c-1.2228-45.6432-17.5236-64.7964-17.5236-64.7964-17.971632 18.770136-18.722908 64.938179-18.74577 66.777393l-.00063.056607c0 12.2256-10.5948 11.4108-10.5948 11.4108-8.9664-1.2228-8.1504-12.6336-8.1504-12.6336 0-48.0876 16.3008-71.724 16.3008-71.724 12.885336-22.360176 34.582273-23.220668 37.556706-23.231572l.165649.00027c.069562.000519.119026.00146.147467.00213l.028578.000772c25.2672-1.2228 38.7144 18.3384 39.1224 18.3384zm-138.5592-16.3092c-7.7436 4.482-11.4108 9.3732-11.4108 9.78-2.8524 3.6684-6.1128 8.5584-10.188 11.0028-4.89 2.0376-6.9276 4.8912-6.9276 4.8912-18.7464 22.0056-18.7464 64.7952-19.9692 73.3536-1.2216 8.5572-11.4096 6.5196-11.4096 6.5196-7.66935-1.277755-8.573457-8.568977-8.606346-11.657894l-.000808-.257761c.00312-.698903.048754-1.124745.048754-1.124745 4.4832-68.0556 28.5264-83.9496 28.5264-83.9496 19.968-16.3008 39.9372-8.5572 39.9372-8.5572zm35.868-1.6248c-19.5612 13.8552-24.8592 33.0084-25.266 33.0084l-3.6684-2.8524c-14.5233 18.155016-16.26688 54.283498-16.300299 55.004252l-.00072.057302c-.000055.007771-.000123.016531-.000208.026288l-.000746.070574c-.009213.757852-.090821 4.583449-.813627 12.898384-.408 9.372-10.596 8.5572-10.596 8.5572-8.1504-.4068-8.9652-8.5572-8.9652-8.5572-.444655-2.519564-.458182-5.901064-.295332-9.184474l.037504-.701736c.313468-5.479693 1.072628-10.48979 1.072628-10.48979 5.298-55.0164 28.1196-68.8716 28.1196-68.8716 19.1532-14.6712 36.6768-8.9652 36.6768-8.9652zm36.2568-.006c-16.603296 11.068476-24.002332 31.722841-24.060056 32.579771l-.000266.01195-4.059278-2.434521c-16.944444 20.978892-17.912474 66.322286-17.93014 67.227056l-.00026.013744c-.737349 8.837349-8.460836 9.356002-9.942851 9.373883l-.147036.000242c-.038461-.000386-.06609-.001074-.082039-.001563l-.016074-.000562c-8.9664-1.2216-8.9664-10.5948-8.9664-10.5948.15504-3.716856.545394-8.963601.969836-14.040806l.067271-.800007c.674957-7.981027 1.408493-15.316387 1.408493-15.316387 4.89-37.8984 22.0056-52.9776 22.0056-52.9776 17.1168-18.7452 40.7532-13.0404 40.7532-13.0404z"/><path d="m246.1884 692.004h36.864l74.592-204.48h-39.744l-45.216 133.344c-4.032 11.808-7.488 29.952-7.776 29.952h-.576c-.288 0-3.744-18.144-7.776-29.952l-44.928-133.344h-40.032z"/><path d="m444.067909 487.524627c21.67069.037629 31.627401 1.771681 40.457291 5.759373 20.448 9.216 33.408 28.8 33.408 55.872 0 24.48-12.96 47.232-34.56 55.872v.576s2.88 2.88 6.912 10.08l42.048 76.32h-41.472l-40.608-76.32h-35.712v76.32h-37.152v-204.48zm-1.302709 31.967373h-28.224v63.936h33.408c19.872 0 32.256-11.808 32.256-32.256 0-19.584-8.352-31.68-37.44-31.68z"/><path d="m554.8548 692.004h37.152l8.64-114.336c.864-13.536.288-31.968.288-31.968h.576s6.336 20.16 11.232 31.968l32.832 79.2h32.544l33.12-79.2c4.896-11.808 10.944-31.68 10.944-31.68h.576s-.576 18.144.288 31.68l8.64 114.336h36.864l-16.416-204.48h-39.744l-40.032 101.088c-4.608 12.096-10.08 29.952-10.08 29.952h-.576s-5.76-17.856-10.368-29.952l-40.032-101.088h-39.744z"/></g></svg>