<svg height="960" viewBox="0 0 960 960" width="960" xmlns="http://www.w3.org/2000/svg"><path d="m208.449222 147.292331 626.855099 50.134202c44.386902 3.549946 79.828305 38.437171 84.107705 82.76851l36.203299 375.038749c3.917667 40.584059-20.956276 81.909037-61.1372 91.978257-1.853554.464495-3.738011.795573-5.638892.990688-.518202.053191-1.030694.105811-1.537475.15786l-1.134758.116403-.022905.097418c-1.601847 6.574563-3.949055 12.815328-7.029291 18.436852l-.388846.699445c-3.59137 6.367387-8.167203 12.036124-14.099677 16.664635-8.184571 6.385594-18.290623 10.208919-29.393702 9.97212l-.080579-.00247-597.596 8.607-.624259.025585c-1.480123.048843-2.998799.024343-4.580101-.084699l-.795981-.062711c-10.179269-.891291-19.218018-5.101298-26.388727-11.463258-1.657786-1.470812-3.183709-3.023926-4.588311-4.649995l-.164621-.193922-88.637977 3.181735c-47.6134899 1.708745-87.74067-34.966602-90.517948-82.360898l-.0726967-1.439444-16.10265548-379.57134c-1.24056179-29.242488 11.51696648-57.329462 34.35577148-75.626786l104.2772037-83.541752c18.260273-14.62923 41.41264-21.737327 64.733524-19.872184zm50.268662 564.416191-.013925.137309.05196 27.405022c.000378.198195-.005136.396335-.016532.594158l-.021503.296464c-.675514 7.721163-2.767462 14.961391-5.963311 20.515514-.416584.723989-.852653 1.422108-1.307803 2.0916l7.143021-.102217c1.062921-3.579954 1.876088-9.105344 2.401085-16.488701l.029124-.429458.983011-40.006389c.005179-.210979.016856-.420271.034835-.627689l-5.111185-.022892c1.316646 1.86388 2.00569 4.185911 1.791223 6.637279zm23.279105-5.49592-.987342 40.223696c-.003535.144024-.010183.287954-.019937.431691-.407461 6.004112-.990242 11.127893-1.808655 15.48144l134.634977-1.94049c.214555-.072215.432095-.137289.652298-.19497l.04567-.011035.038183-.064615.101734-.176211c.404097-.712572.825238-1.60722 1.242251-2.65961 1.964615-4.957987 3.424652-12.267901 3.916647-20.277548l1.789106-31.213031-139.631835-.627639c.02617.338504.035414.681568.026903 1.028322zm159.631932-.310683-1.851308 32.308435c-.490945 7.993901-1.776778 15.55616-3.697756 21.879255l232.06351-3.343751c.491878-.206095 1.002425-.373688 1.527419-.499454l.060691-.098816c.329708-.552632.707333-1.292882 1.096124-2.197711l.12996-.307673c1.929552-4.646484 3.370793-11.531824 3.856861-19.082435l1.658499-27.60085zm254.874 1.147-1.727151 28.752934c-.482706 7.499794-1.727742 14.609502-3.588884 20.61351l116.488035-1.679444.046079-.009919.048785-.079465c.323902-.535439.696167-1.254489 1.080321-2.135108l.128442-.299493c1.917625-4.547798 3.352405-11.298413 3.836431-18.703327l1.581942-25.929688zm-509.936593-53.13196-19.845662-366.414188c-.124829-2.304726-.101763-4.615085.069054-6.916859 2.207151-29.741592 28.106724-52.062666 57.848315-49.855515l607.067551 45.051045c26.191387 1.943687 47.186263 22.44966 49.746423 48.587989l31.749177 324.147814c.179247 1.830055.264902 3.66807.257176 5.506864-.134717 29.823074-24.419862 53.890687-54.242937 53.757075l-24.787504-.112265-1.652789 27.100806c-.464895 7.113618-1.63496 13.873347-3.381196 19.654466l6.275536-.090636c5.94341.520402 11.688858-9.666096 12.832816-22.752181.131971-1.509655.414331-7.992006.84708-19.447053.74288-.135133 12.544724-1.375971 35.405531-3.722515 20.47518-5.131019 33.075234-28.308118 31.045503-49.334593l-36.203299-375.03875c-2.416941-25.037674-22.427656-44.735492-47.481693-46.739247l-467.230489-37.368297-147.443653-10.692517c-28.568083-2.071875-53.406677 19.407545-55.478553 47.975629-.15228 2.099713-.176571 4.206751-.072738 6.309417l20.699331 419.171558c1.275022 25.819821 21.278661 46.459733 46.47348 49.034302 2.485836-2.687782 5.188353-5.028446 7.950295-6.845199-27.117297-1.724896-48.958939-23.497319-50.446755-50.96715zm-72.317765-411.891183-49.80037 39.897714c-12.8965677 10.332094-20.1021725 26.195953-19.4014163 42.714157l16.1026554 379.571341c1.1083626 26.126289 23.0801013 46.458581 49.1920009 45.521481l106.453787-3.81979c-.106297-1.446575-.156409-2.922232-.149575-4.417381l-16.128729-.000298-.903137.007014c-33.659004-.016247-61.569516-26.11518-63.763851-59.645565l-.059119-1.028742-21.485973-433.989713-.007991-.203219-.063612-2.183143-.003856-.203341c-.006508-.740285-.00011-1.480569.019186-2.220515zm124.492925 490.272037-.05014.0986c-1.074111 2.092638-1.739174 4.106581-1.889747 5.827636-.263575 3.012673-.185517 5.891117.169763 8.386818l.063536.420272.135552-.402854c.737182-2.255146 1.291401-4.886822 1.573797-7.700312l.010214-.112227zm-92.645545-515.786203-5.474546 4.385752c-3.577592 5.851626-5.764695 12.537782-6.279522 19.621321-.064429.886481-.101789 1.774607-.112048 2.663146l-.001906.85909.056995 1.907081 21.481428 433.888757c1.109726 22.415074 18.959874 40.171728 41.062247 41.573953-19.580324-12.023961-33.003057-33.187997-34.214943-57.729275l-20.69933-419.171559c-.143874-2.913521-.110216-5.833099.100788-8.742528.488883-6.740968 1.892584-13.197097 4.080837-19.255738zm40.63893 65.55445c-.107551 1.449266-.122074 2.903936-.043478 4.355059l19.845662 366.414188c.97371 17.977787 15.793326 32.079852 33.79728 32.160849l618.971065 2.785024c18.777491.084126 34.068139-15.069556 34.15296-33.847048 0-1.157759-.049066-2.315028-.161926-3.467284l-31.749176-324.147815c-1.611953-16.457466-14.830949-29.368634-31.321822-30.592437l-607.067551-45.051045c-18.726187-1.389688-35.033326 12.664322-36.423014 31.390509zm193.485908 35.84098 371.82287 22.212682c18.691114 1.116606 33.783059 15.682333 35.562029 34.322071l21.892067 229.381226c.121781 1.276007.178922 2.55736.171892 3.839142-.127074 20.98644-17.2424 37.896856-38.22884 37.771174l-377.855578-2.276234c-19.961657-.120214-36.427272-15.665219-37.694512-35.586974l-15.859358-249.318377c-.099094-1.557807-.102106-3.120239-.009021-4.678416 1.25152-20.949471 19.24898-36.917815 40.198451-35.666294zm-20.234044 36.858967c-.044094.738084-.042667 1.478183.004272 2.216091l15.859359 249.318378c.600272 9.43662 8.399773 16.800044 17.855295 16.856987l377.855578 2.275865c9.940945.059533 18.048205-7.950664 18.108398-17.891609 0-.60716-.023737-1.214117-.081423-1.818541l-21.892066-229.381227c-.84267-8.829349-7.991486-15.728904-16.845172-16.257823l-371.82287-22.212682c-9.923434-.592825-18.448546 6.971127-19.041371 16.894561z"/></svg>