<svg width="960" height="960" viewBox="0 0 960 960" fill="none" xmlns="http://www.w3.org/2000/svg">
<path d="M500.164 4.17725C511.21 4.17725 520.164 13.1316 520.164 24.1772V211.432L613.207 216.224C623.839 216.772 632.178 225.552 632.178 236.198V920.458C632.178 930.891 624.159 939.571 613.76 940.396L420.419 955.736C416.608 956.038 412.79 955.242 409.418 953.442L338.404 915.534C331.891 912.057 327.822 905.274 327.822 897.89V250.822C327.822 242.304 333.218 234.72 341.265 231.927L412.12 207.337L412.578 207.185C414.732 206.495 416.987 206.174 419.247 206.239V24.1772C419.247 13.1316 428.201 4.17725 439.247 4.17725C450.293 4.17751 459.247 13.1317 459.247 24.1772V208.294L480.164 209.372V24.1772C480.164 13.1316 489.118 4.17725 500.164 4.17725ZM592.178 599.513C559.395 590.226 497.927 583.289 428.521 607.042V914.965L592.178 901.982V599.513ZM367.822 265.05V885.895L408.521 907.62V385.478L388.934 389.102C386.013 389.642 383.002 388.855 380.719 386.956C378.435 385.056 377.114 382.239 377.114 379.268V261.825L367.822 265.05ZM515.582 820.259C534.214 820.26 545.254 838.686 545.254 855.718C545.254 872.75 534.214 891.176 515.582 891.176C496.95 891.176 485.91 872.75 485.909 855.718C485.909 838.686 496.95 820.259 515.582 820.259ZM515.582 840.259C512.485 840.259 505.909 844.63 505.909 855.718C505.91 866.806 512.485 871.176 515.582 871.176C518.68 871.175 525.254 866.805 525.254 855.718C525.254 844.631 518.68 840.26 515.582 840.259ZM515.582 734.804C534.214 734.805 545.254 753.231 545.254 770.263C545.254 787.295 534.214 805.721 515.582 805.721C496.95 805.721 485.91 787.295 485.909 770.263C485.909 753.231 496.95 734.804 515.582 734.804ZM515.582 754.804C512.485 754.804 505.909 759.175 505.909 770.263C505.91 781.351 512.485 785.721 515.582 785.721C518.68 785.72 525.254 781.35 525.254 770.263C525.254 759.176 518.68 754.805 515.582 754.804ZM515.582 648.401C534.214 648.401 545.254 666.828 545.254 683.86C545.254 700.892 534.214 719.317 515.582 719.318C496.95 719.318 485.91 700.892 485.909 683.86C485.909 666.828 496.95 648.401 515.582 648.401ZM515.582 668.401C512.485 668.401 505.909 672.771 505.909 683.86C505.91 694.948 512.485 699.318 515.582 699.318C518.68 699.317 525.254 694.947 525.254 683.86C525.254 672.772 518.68 668.402 515.582 668.401ZM428.521 585.98C495.771 564.532 555.848 569.602 592.178 578.814V387.422L428.521 383.54V585.98ZM428.521 363.534L592.178 367.417V255.194L428.521 246.764V363.534ZM397.114 254.884V367.249L408.521 365.138V250.925L397.114 254.884Z" fill="black"/>
</svg>
