<svg height="960" viewBox="0 0 960 960" width="960" xmlns="http://www.w3.org/2000/svg"><path d="m368.855319 141.575279 367.609652 22.431981c10.553.643957 18.781842 9.390239 18.781842 19.962868v596.411749c0 10.647815-8.342408 19.428755-18.976264 19.973782l-367.609653 18.841452c-2.333315.119592-4.66954-.170581-6.9027-.857355l-122.390348-37.639283c-8.393221-2.581207-14.121035-10.335266-14.121035-19.116427v-572.865693c0-9.375002 6.512039-17.491871 15.664074-19.524337l122.390348-27.180206c1.821834-.404589 3.69133-.552198 5.554084-.438531zm8.781494 40.608868v596.5l337.61-17.304v-558.594zm-20 2.061-92.39 20.518v542.047l92.39 28.413z"/></svg>