<?xml version="1.0" encoding="UTF-8"?>
<svg width="960px" height="960px" viewBox="0 0 960 960" version="1.1" xmlns="http://www.w3.org/2000/svg" xmlns:xlink="http://www.w3.org/1999/xlink">
    <title>com.daikin/ assets/icon</title>
    <defs>
        <path d="M0,0 L960,0 L960,960 L0,960 L0,0 Z" id="path-1"></path>
    </defs>
    <g id="com.daikin" stroke="none" fill="none" xlink:href="#path-1">
        <path stroke="#979797" stroke-width="1" d="M959.5,959.5 L0.500000293,959.5 L0.500000293,0.500000293 L959.5,0.500000293 Z" stroke-linejoin="square"></path>
        <path d="M113.738,378.000188 L218.64896,378.001581 L0.0062499968,578.93235 L0.006,482.581188 L2.0306176,480.720376 L111.337498,380.208489 L113.738,378.000188 Z" id="Combined-Shape" fill="#000000" fill-rule="evenodd"></path>
        <polygon id="Path" fill="#000000" fill-rule="evenodd" points="109.30688 378.000188 0 378.000188 0 478.512075"></polygon>
        <polygon id="Path" fill="#000000" fill-rule="evenodd" points="523.95968 421.613096 495.41888 535.278262 545.84576 535.278262 574.36288 421.613096"></polygon>
        <path d="M408.78912,487.491263 L397.22432,487.491263 L415.87008,454.700812 L421.91808,487.491263 L408.78912,487.491263 Z M401.61472,421.601812 L336.76224,535.261687 L370.11392,535.261687 L380.87872,516.316462 L427.17824,516.316462 L430.62848,535.261687 L479.85216,535.261687 L458.92992,421.601812 L401.61472,421.601812 Z" id="Shape" fill="#000000" fill-rule="nonzero"></path>
        <polygon id="Path" fill="#000000" fill-rule="evenodd" points="754.2464 421.613096 725.7792 535.278262 776.1984 535.278262 804.6656 421.613096"></polygon>
        <polygon id="Path" fill="#000000" fill-rule="evenodd" points="731.7184 421.613096 680.0448 421.613096 636.7936 458.7942 646.2336 421.613096 597.90272 421.613096 569.43744 535.278262 617.61664 535.278262 627.4592 496.038862 653.2224 535.278262 711.5392 535.278262 668.3456 475.750425"></polygon>
        <path d="M297.19552,473.267362 C297.19552,473.267362 293.92064,510.1869 262.33856,510.1869 L244.46912,510.1869 L260.20736,448.8798 L276.42496,448.8798 C282.22784,448.914225 299.02336,450.4149 297.19552,473.267362 Z M294.63872,421.665499 L281.59744,421.624762 L218.5024,421.624762 L190.03776,535.243837 L252.68864,535.243837 L277.47584,535.278262 C312.37376,535.278262 346.71744,509.402137 346.71744,469.76685 C346.71744,423.130856 294.63872,421.665499 294.63872,421.665499 Z" id="Shape" fill="#000000" fill-rule="nonzero"></path>
        <polygon id="Path" fill="#000000" fill-rule="evenodd" points="925.0944 421.595692 908.2752 488.525925 885.8752 421.595692 829.792 421.595692 801.3056 535.278262 836.1728 535.278262 853.1584 467.760637 875.6352 535.278262 931.4688 535.278262 960 421.595692"></polygon>
    </g>
</svg>