<svg height="960" viewBox="0 0 960 960" width="960" xmlns="http://www.w3.org/2000/svg"><path d="m449.387865 18.3630805c41.187038 0 107.599834 4.3987478 126.915049 9.5798902 18.86421 5.0601642 33.497687 17.2904852 42.141534 34.1781188 6.532369 12.7624001 9.263565 27.1392905 9.263565 42.8756285v733.670189c0 27.059266-8.244692 49.306197-27.036838 65.384521-15.948777 13.645573-36.199323 20.295291-63.847378 23.648311-8.427555 1.022052-79.584003 10.369872-103.135519 13.347427-7.855405.993138-15.41688 1.936264-22.738579 2.834959-50.079375 6.146944-87.760993 10.081047-112.396357 11.418024-32.27339 1.751499-73.979804 1.340775-110.109196-1.230012-46.176435-3.285684-78.586207-9.075064-97.6923145-20.815005-3.3431403-2.054226-14.2474401-8.586848-16.2560588-9.817571-6.732696-4.125265-11.5212249-7.343264-16.0674055-11.026705-15.4810936-12.543209-24.4374362-28.644132-24.4374362-49.058481v-769.1166308c0-14.7514888 5.285308-28.3376395 14.8034024-39.1367919 7.4213589-8.4202134 16.7149861-14.4979797 27.4037298-18.8996201 14.8066582-6.0974038 32.3619778-8.9826376 51.8119778-9.6018949 67.026478-2.1340172 294.006069-8.2343568 321.377824-8.2343568zm112.470287 118.0896535c-14.950183 0-48.364079 1.008347-133.904582 3.866205-.384453.012845-.384453.012845-.768903.025689-88.677539 2.962762-119.572442 3.903048-134.273323 3.903048l-4.298346.000828-.216132.000071-2.747853.000942-.342197.000119-2.222963.000744-1.484323.000414-2.9326.000813h-7.131271l-2.776928-.000745c-22.050695-.006138-40.202853-.047582-58.41735-.155137l-3.416916-.020949c-4.559441-.028985-9.13825-.062222-13.798316-.100192-47.872894-.390074-82.324577-1.194525-99.0516475-2.560481-7.3543255-.600565-14.067093-1.332555-20.0837326-2.194461l.0001621 724.132733c0 15.279929 12.9310459 20.601643 37.70194 35.822369 24.770894 15.220726 125.905622 19.374603 184.692834 16.184182 23.021073-1.249369 58.089056-4.982749 94.609969-9.350669l2.464165-.295406c1.233063-.148163 2.467506-.297 3.702924-.44644l2.472015-.299662c1.648715-.200283 3.298683-.401554 4.948941-.603645l5.62559-.691876 3.035772-.375735c49.562202-6.147337 97.864907-12.770389 118.762998-15.304807 39.489966-4.789149 55.699934-16.990578 55.699934-49.323779l.000669-706.4333c-7.749635 2.704266-16.465148 4.219127-25.85053 4.219127zm25.118351-42.3110426-.242665.189256c-6.941787 5.3089093-16.900279 8.1004126-29.411147 8.1004126-14.058892 0-46.25217.916697-128.91153 3.515684-.357328.011236-.357328.011236-.714653.022471-84.802058 2.66644-114.825726 3.530757-128.830954 3.547777l-3.768416.000734-3.116182.000895-.321114.000095-2.534913.00122h-12.832765c-19.696827-.004193-36.076197-.033633-52.301057-.109344l-2.26325-.010867-.565723-.002812-2.829568-.014642c-4.529775-.024211-9.07616-.052216-13.707899-.084472-44.991841-.313326-77.37672-.959631-93.07648-2.055395-16.0464931-1.119963-28.8964069-2.873431-37.5578019-4.992824l.0004867 16.726554c6.2414849.984112 13.5260313 1.835591 21.71144 2.504023 16.0442882 1.3102 50.2617302 2.109181 97.5867942 2.49479 5.035739.041032 9.976966.076524 14.902169.107085l3.408161.020378 2.272121.012732 1.346173.007223 2.695885.013757c15.743914.077596 31.849834.109155 50.861447.114442l2.77274.000584 7.120705-.000058 2.928325-.000596c.984065-.00025 1.976182-.000552 2.976636-.000902l1.069173-.000374 2.749492-.000943.216266-.000071 4.302945-.000828c14.345405 0 45.481321-.947621 133.605485-3.891894.38446-.012845.38446-.012845.768925-.02569 86.047667-2.874802 119.269649-3.877358 134.572398-3.877358 10.084943 0 18.901462-2.265198 25.850417-5.974637l-.000556-5.481379c0-3.7801-.231463-7.4187386-.73151-10.8550266zm-186.229387-11.3581821c-2.83169 0-5.736077.012201-8.721098.0360958l-1.458214.0124608c-.729065.0066246-1.458341.0138436-2.189062.0216709l-1.463734.0164696c-10.020353.1181397-20.464365.3516035-34.483274.7356643-22.397746.6136067-28.204503.7736708-32.512806.8153088l-.276026.0025254-.408213.0032156c-.090124.0006424-.179931.0012384-.269571.0017913l-.344257.0019209c-.057344.0002871-.114698.0005582-.172101.0008143l-.345336.0013623c-.231043.000797-.464148.0013808-.701844.0018076l-.729393.0008657-.188432.0001088-2.524049.0005516c-22.084758.0202138-50.288874.7883447-84.584664 2.3054556l-1.31631.0589107-.000801 2.6275712.757042.0037685c14.675185.06029 29.731109.0846105 47.490383.0883879l11.343143-.0001469c.977346-.0002078 1.963136-.0004617 2.957687-.0007595l1.048233-.0003134.321288-.0000958 3.117905-.0008949 3.762054-.0007364c13.093382-.0164128 41.356364-.8144402 117.590138-3.2043725l.003928-1.8944082-.354487-.0858188c-4.152298-.9763086-9.015468-1.5022947-14.584361-1.5461871zm48.640749-24.4204288c-33.980327 0-292.884363 7.3474385-320.104932 8.2140985-20.959839.6673282-42.4241538 4.7758244-51.1889632 15.8164616l-.1717602.2225971c7.296692 1.8892796 19.4110492 3.5856832 35.0184884 4.6750028 15.115249 1.0549673 47.300158 1.697282 91.823247 2.007344 1.103117.0076821 2.20141.0151227 3.295812.0223278l-.001025-8.2572385c0-7.4761444 5.876309-13.632164 13.352315-13.9827179 38.25633-1.7629117 69.395037-2.6452226 93.440634-2.6452226l1.752373-.0003121.531244-.0006147.173214-.0003065.342018-.0007963c.16977-.0004644.337915-.0010334.505476-.0017302l.334655-.0015711.402143-.0023934.269917-.0019367c.045173-.000347.090454-.0007064.13586-.0010786l.274119-.002391c4.231306-.0391325 9.869047-.1944043 32.311322-.8092309 15.153612-.415147 26.183241-.6560827 37.026357-.7662807l2.216556-.020731.738991-.0061143c3.037129-.0243119 5.994749-.0367365 8.88119-.0367365 9.740177 0 18.249897 1.2012507 25.542219 3.6843144.090187.0307091.179651.0625791.268379.0955875l.020018.0080981.036097.012405c5.791717 2.1223438 9.695377 7.5797775 9.832819 13.7463787l.00375.3370475.003783 5.0173018c76.729566-2.4057142 106.988349-3.2532825 120.86851-3.2532825 9.072398 0 14.906569-1.6973922 17.816396-4.4486362 1.219446-1.1529878 2.0942-2.704568 2.563562-4.774818-3.077565-3.0645499-6.957652-5.3417238-11.763033-6.6307266-16.036907-4.3017639-82.571424-8.2140985-116.551751-8.2140985zm432.196482 144.4775915c4.257291.859024 5.959549 1.20897 8.398221 1.740573 11.885181 2.590835 20.72531 5.255066 29.306799 9.664716 7.227541 3.713916 13.597518 8.430204 18.924552 14.841346 7.414538 8.923476 11.677456 20.045137 11.677456 32.098848v386.564063c0 12.001722-4.162285 22.75797-11.025394 31.622637-4.587873 5.925881-10.021901 10.607671-16.145018 14.572018-7.190731 4.655562-14.002516 7.633131-21.68262 10.301874-8.114764 2.819781-21.741486 3.966075-56.665673 6.124509-.517258.031968-1.034247.063749-1.550844.095336l-1.548501.094173c-23.464139 1.419289-45.868447 2.424414-55.78287 2.424414-23.141079 0-42.146017-2.582744-60.461211-8.397609-.45294-.143804-1.530442-.48025-2.649527-.829052l-.560308-.174595c-1.209814-.376904-2.354398-.733042-2.692545-.839193-2.873822-.902147-5.233941-1.671933-7.614442-2.498739-10.418936-3.618748-18.816487-7.482383-26.616586-13.132208-14.321618-10.373539-23.933798-25.380751-23.933798-44.605478v-384.577105c0-24.741966 17.974106-47.495714 41.92223-54.34062 8.288917-2.369157 23.361389-3.28218 55.547662-4.438361 4.962967-.178278 10.060036-.344349 15.145125-.495l1.906061-.055765 1.836514-.052403c.30578-.008617.611386-.017175.916786-.025673l1.829671-.050268c15.532565-.421251 30.36187-.683551 40.233038-.6933l.56396-.000281c28.618262 0 40.732486 1.027863 60.721262 5.061143zm-180.622177 65.935423-.000132 373.73221c0 13.782789 22.172126 19.510011 36.171352 23.954605 13.999226 4.444595 28.924233 6.522269 48.357065 6.522269 8.143283 0 26.471671-.806577 45.427606-1.88569l1.422723-.081437c.474533-.02731.94931-.054782 1.42418-.082408l2.719693-.159842c24.46774-1.452657 48.426532-3.271216 51.424264-4.312892 5.551356-1.929028 21.982454-8.086781 21.982454-18.712692l-.000444-377.704138-.5499.052478c-41.330332 3.910187-75.403291 6.294286-102.249173 7.150243-37.62212 1.199549-69.264182-.822163-91.063561-5.193637-7.868788-1.577944-12.121323-2.470983-15.066127-3.279069zm120.72455-30.996566h-1.657879c-10.447568.016568-26.886524.326038-43.762279.815989l-1.842457.05416c-.307276.009144-.61463.018347-.922028.027607l-2.74323.08414-1.590072.050161c-1.589238.050651-3.175458.10276-4.754033.156233l-1.575855.053924c-23.594456.81558-45.12158 1.931039-48.961936 3.028698-3.341421.955052-6.311722 3.024341-8.558742 5.586497.350418.540273.650109 1.11694.892239 1.722834l.045421.121036.13245.035239c2.129213.577376 5.767573 1.35976 12.607975 2.735831l.964356.193682c20.151301 4.040981 50.301377 5.967365 86.49385 4.813399 25.307968-.806922 57.336565-3.008939 96.059034-6.607862-5.781443-3.392651-14.207723-5.537307-22.473219-7.293762l-.897533-.189405-1.005959-.209472-1.002216-.20627c-1.166628-.238916-2.323297-.472003-3.461899-.701747-3.778909-.762498-7.175433-1.401223-10.506397-1.93253l-.867668-.136175c-.577732-.089174-1.154314-.175142-1.731412-.25799l-.866245-.121943c-9.537534-1.315869-19.442642-1.794062-37.201606-1.821053z"/></svg>