<svg height="960" viewBox="0 0 960 960" width="960" xmlns="http://www.w3.org/2000/svg"><path d="m600.180921 502.68234c88.179276 24.429347 176.592256 48.013562 265.032363 71.488997 10.090986 2.679739 13.348229 6.394974 11.117612 17.270824-3.531329 17.219757-6.787764 34.496973-10.008945 51.781408l-2.757967 14.815826c-3.680684 19.753667-7.40475 39.498015-11.529912 59.158049-7.826983 37.31134-23.518508 70.530901-56.23492 92.964564-21.602974 14.81492-39.869411 19.785302-69.775121 19.745556-31.412263 1.161011-60.283-8.758835-88.091638-21.647104-61.969004-28.72195-123.5332-58.316228-185.389526-87.28084-8.098246-3.794728-10.850523-7.417919-6.470668-16.498909 14.977895-31.055129 29.682208-62.24321 44.364573-93.441519l11.01159-23.398732c3.671779-7.798938 7.346118-15.596598 11.02695-23.391061 1.481987-3.138819 2.935629-6.293954 4.384709-9.451898l1.73823-3.790017c4.347711-9.474092 8.74-18.924844 13.819069-27.987576 3.276023-5.85317 9.04558-10.790082 14.660726-14.750071 16.494881-11.624754 34.008042-10.877942 53.102875-5.587497zm-267.034713-74.40486c48.83227 13.231672 97.702084 26.321247 146.584414 39.369029 17.245962 4.603501 27.458374 27.359803 19.555018 43.659082-28.14671 58.040062-56.247532 116.1052-84.300378 174.191234-6.649749 13.772891-6.9522 13.814684-20.852428 7.255269-66.762396-31.497313-133.583195-62.873425-200.358106-94.343572-3.641926-1.713514-7.069009-3.878393-11.774728-6.488367 4.810013-7.271986 8.848254-13.605719 13.109684-19.786907 28.739097-41.682273 57.532427-83.329021 86.296555-124.996666 13.168088-19.076425 29.498353-24.883566 51.739969-18.859102zm-149.185591-44.196262c22.564859 6.921878 45.58792 12.346908 68.322251 18.744053 11.955086 3.363728 16.459689 15.779625 9.260275 26.092408-33.170448 47.527024-66.621256 94.859626-99.823088 142.367835-4.038032 5.778336-7.88567 7.277275-14.700111 4.026439-41.985075-20.044388-84.1668204-39.676934-126.2732454-59.468362-6.2097823-2.916346-12.36516626-5.949763-20.7466986-9.992926 11.6412496-13.592888 21.5752275-25.987879 32.3523801-37.598907 4.2216783-4.549316 8.3123849-9.223891 12.3636957-13.936389l1.734131-2.021709c1.4435442-1.686268 2.8837321-3.375782 4.3247353-5.064563l1.7298621-2.02593.8657253-1.012225 1.7340398-2.022011c13.0212496-15.150033 26.4464443-29.918456 43.3167145-41.404962 26.2765012-17.893191 53.7895192-26.420627 85.5393332-16.682751zm475.849862-87.912576c76.378498 10.062362 152.744459 20.21468 229.118777 30.293778 8.256175 1.089915 16.683701 1.315848 24.743449 3.17979 2.689369.623407 6.500876 5.261298 6.321167 7.813498-.618534 8.606354-19.776371 101.106871-28.076428 117.476515-17.022222 33.580259-48.001162 47.240806-84.089276 51.82849-30.164941 3.834576-58.936495-1.817948-87.517527-8.904406l-2.198185-.547805c-3.663084-.917269-7.323543-1.854713-10.983912-2.795362l-2.196231-.564638c-.732087-.188251-1.464191-.376493-2.196331-.564593l-2.196553-.563733c-1.46447-.375354-2.929168-.749592-4.394258-1.121627-34.671337-8.805091-69.252819-17.976275-103.880274-26.954999-10.450299-2.709098-25.779911-19.248191-27.200867-29.791706-.257026-1.91415.28837-4.173475 1.124227-5.966291 17.348206-37.132419 34.65253-74.289942 52.295376-111.2822 5.581433-11.700373 28.35435-23.241757 41.326846-21.534711zm-232.473423-30.168642c29.160208 3.797751 57.001309 7.422402 84.840323 11.04914 20.621491 2.688248 41.224198 5.539168 61.872823 8.02512 18.068851 2.177294 26.916473 17.353698 19.08949 33.537414-16.438752 33.979545-32.95473 67.925722-49.502016 101.855215-5.683433 11.653944-31.506216 24.229691-44.2068 21.026317-52.801872-13.314026-105.572436-26.774038-158.280383-40.453032-13.879851-3.601711-18.242089-17.24525-9.976795-29.157799 19.953589-28.761549 40.587604-57.087222 59.537252-86.495285 9.033405-14.016826 21.804069-17.07672 34.82838-19.111908l.898588-.138853c.299635-.045824.599362-.091227.899138-.136329zm-135.734059-22.523035c22.280105 3.505094 44.729664 5.933788 67.091358 8.935169 12.294852 1.651178 17.033297 10.64696 10.098222 20.673161-22.106466 31.95969-44.083227 64.046877-67.423991 95.099465-6.987375 9.300937-19.332436 14.977643-31.551975 12.034785-42.543494-10.251931-84.823393-21.590714-127.186972-32.58254-1.600402-.415929-3.025074-1.509051-6.629639-3.369238 7.253063-8.770052 13.144216-16.83365 19.987241-23.988056 18.405668-19.237264 35.842727-39.739036 56.237914-56.64584 22.455835-18.618594 49.86141-24.796924 79.377842-20.156906zm421.310428-104.43586c46.701683 2.317606 93.422164 4.204322 140.142645 6.088947 23.887618.964275 47.794034 1.508117 71.683741 2.426375 11.761055.451808 23.507489 1.319864 35.260189 1.999668v2.085427c-3.939149 18.614064-8.728369 37.09635-11.63156 55.871474-5.388655 34.849861-26.051435 55.741788-58.278938 66.440848-29.167666 9.682493-59.087237 10.904047-89.441242 6.90262-42.940068-5.658057-85.942794-10.835021-128.901659-16.371758-15.516404-1.999668-23.029193-16.867492-16.234892-31.065971 13.181321-27.545634 26.456629-55.053617 39.109527-82.839798 3.851427-8.454662 8.839066-12.008465 18.292189-11.537832zm-211.111272-7.037356c27.330176.623997 54.629067 2.456203 81.948814 3.507366 25.957827.998814 51.934425 1.474141 77.894338 2.334755 13.596262.450199 14.8685 2.682349 9.133001 14.502697-13.04774 26.890506-26.329071 53.670032-38.959683 80.75737-6.02812 12.93215-16.492146 17.840686-26.984664 21.150402l-.828336.258089c-1.242351.382502-2.483475.744954-3.716053 1.098025l-.820373.234109-.817358.232031c-.407845.115614-.814379.230712-1.219331.34569l-.807714.229912c-.402722.114994-.803682.23013-1.202607.345805-37.449682-4.728139-72.498797-9.163125-107.549998-13.575078-14.774646-1.861521-29.57432-3.551339-44.330195-5.544779-12.286483-1.660503-17.362921-12.479942-10.380211-22.71517l6.220184-9.116258c15.557581-22.786787 31.192815-45.526106 47.451576-67.800807 2.782238-3.810989 9.919285-6.359326 14.96861-6.244159zm-44.144999-1.242696c1.632626.035564 3.254827.543922 6.342846 1.09412-11.736975 17.043595-22.815062 33.229466-34.003658 49.337933-6.53676 9.407763-13.628153 18.445241-19.806277 28.076849-11.023874 17.185851-26.161632 22.907495-46.153481 20.014247-34.264295-4.960153-68.689142-8.792713-103.034755-13.200575-4.681028-.600407-9.289079-1.778207-17.001829-3.292822 6.778108-7.073604 13.001322-14.452119 19.079264-21.766239l1.456126-1.753963c.760747-.917 1.51972-1.832518 2.27773-2.745822l1.136393-1.368206c.567937-.683181 1.135561-1.364912 1.703213-2.044883l1.135445-1.357506 1.13613-1.352264c15.155676-17.992824 30.656433-34.4419 52.993897-43.494548 10.410858-4.219581 21.95392-7.688131 33.023666-7.830388 33.228005-.422586 66.47686.95814 99.71529 1.684067z" fill-rule="evenodd"/></svg>