<?xml version="1.0" encoding="UTF-8"?>
<svg width="960px" height="960px" viewBox="0 0 960 960" version="1.1" xmlns="http://www.w3.org/2000/svg" xmlns:xlink="http://www.w3.org/1999/xlink">
    <title>com.gwanhyun.krholiday/assets/icon</title>
    <g id="com.gwanhyun.krholiday" stroke="none" fill="none" fill-rule="nonzero">
        <path d="M689.935105,1 C734.974302,1 771.485785,37.511483 771.485785,82.5513378 L771.485657,90.2701592 L816,90.2703349 C886.692448,90.2703349 944,147.577887 944,218.270335 L944.00192,540.668817 C952.782093,552.123411 958,566.452352 958,582 L958,891 C958,928.555363 927.555363,959 890,959 L141,959 C70.307552,959 13,901.692448 13,831 L13,218.270335 C13,147.577887 70.307552,90.2703349 140.999839,90.2703349 L184.462251,90.270161 L184.462299,82.5506799 C184.462299,37.511483 220.973782,1 266.012979,1 C311.052176,1 347.563659,37.511483 347.563659,82.5512321 L347.563553,90.2700005 L608.384356,90.2700005 L608.384425,82.5506799 C608.384425,37.511483 644.895908,1 689.935105,1 Z M387,891 C387,891.237708 387.001728,891.475012 387.005172,891.711901 C387.006432,891.798598 387.007924,891.88531 387.009645,891.971965 C387.012812,892.131437 387.016757,892.290706 387.021476,892.449781 C387.024017,892.535431 387.026784,892.621098 387.029776,892.706707 C387.034999,892.856156 387.040905,893.00543 387.047491,893.154528 C387.052142,893.259787 387.057104,893.364412 387.0624,893.468948 C387.098692,894.185442 387.150763,894.89851 387.218239,895.607087 C387.225361,895.68187 387.232647,895.756535 387.240104,895.83115 C387.332929,896.759957 387.452251,897.681092 387.597292,898.593658 C387.614815,898.703905 387.63263,898.813518 387.650815,898.923007 C387.677223,899.082004 387.704407,899.240701 387.732367,899.399131 C387.74626,899.477856 387.760453,899.557112 387.774841,899.636302 C387.802749,899.789897 387.831271,899.942624 387.860513,900.095095 C387.875556,900.173533 387.890895,900.252435 387.906427,900.331269 C387.921271,900.406608 387.936174,900.481299 387.951249,900.555927 C387.995537,900.775173 388.041383,900.99417 388.088716,901.212613 C388.126058,901.384946 388.164273,901.5567 388.203405,901.728104 C388.214166,901.775244 388.225057,901.822612 388.236017,901.869955 C388.329261,902.272705 388.427532,902.67335 388.530797,903.071984 C388.55365,903.160202 388.576688,903.248094 388.599967,903.335887 C388.711898,903.75801 388.829511,904.178107 388.952654,904.595834 C388.980874,904.691562 389.00941,904.787254 389.038237,904.88282 C389.304598,905.76585 389.595658,906.638004 389.910655,907.498622 C389.938613,907.575007 389.966794,907.651396 389.995164,907.727694 C390.316711,908.592453 390.662477,909.445452 391.03163,910.285852 C391.055956,910.341231 391.080536,910.396902 391.105219,910.452517 C391.178935,910.618608 391.253422,910.783888 391.328814,910.948667 C391.361563,911.02024 391.39426,911.091241 391.427125,911.162148 C391.473438,911.262069 391.520241,911.362136 391.567378,911.462015 C391.62088,911.575379 391.674801,911.688476 391.72915,911.801327 C392.016206,912.39736 392.315037,912.986219 392.625497,913.567936 C392.661204,913.634842 392.697096,913.701711 392.733142,913.768485 C392.823701,913.936239 392.915012,914.103002 393.007281,914.26916 C393.034201,914.317638 393.061316,914.366267 393.088514,914.414845 C393.109944,914.453122 393.131286,914.491118 393.152678,914.529083 C393.289939,914.772681 393.429166,915.01479 393.570431,915.255558 C393.634882,915.36541 393.700131,915.475608 393.765807,915.585521 C393.810875,915.660943 393.855808,915.735674 393.900938,915.810273 C393.972147,915.927982 394.044012,916.045628 394.116368,916.162939 C394.162063,916.237025 394.207957,916.310982 394.254046,916.384804 C394.325319,916.498967 394.397142,916.612938 394.469429,916.726584 C394.529238,916.82061 394.589033,916.9139 394.649142,917.006968 C394.878656,917.36235 395.113208,917.715192 395.352261,918.064712 C395.397195,918.130408 395.441924,918.195461 395.48681,918.260398 C395.561011,918.367748 395.635795,918.475004 395.711005,918.581939 C395.78006,918.680119 395.849003,918.777371 395.918299,918.874355 L396.009433,919.001465 C404.723733,931.113619 418.940885,939 435,939 L884.731133,939.000695 L890,939 L890.793768,938.993569 C916.937326,938.569691 938,917.244571 938,891 L938,885.757 L938.002742,869.834698 L938,869.84 L938,582 C938,560.361208 923.6814,542.066705 904.002095,536.074385 L903.916912,536.048534 C903.752014,535.99866 903.58674,535.949648 903.421098,535.901506 L904.001093,536.07408 C903.716085,535.987303 903.429952,535.903105 903.142723,535.821515 C903.017038,535.785813 902.890773,535.750507 902.764298,535.715706 C902.646215,535.683215 902.528144,535.651215 902.409893,535.619655 C902.267753,535.581719 902.125174,535.544373 901.982337,535.507667 C901.86593,535.477755 901.749876,535.448399 901.633655,535.419467 C901.526053,535.392678 901.417777,535.366125 901.309358,535.33994 C901.172422,535.306869 901.035396,535.274416 900.898144,535.242552 C900.780517,535.215245 900.662842,535.188396 900.545003,535.161981 C900.405767,535.130769 900.266284,535.100159 900.126575,535.070156 C900.016588,535.046537 899.906665,535.023336 899.796605,535.000513 C899.664598,534.973137 899.53189,534.946204 899.398984,534.919819 C899.259373,534.892105 899.120113,534.865104 898.98064,534.838706 C898.861519,534.81616 898.742016,534.794013 898.622357,534.772309 C898.501283,534.750349 898.380138,534.728858 898.258837,534.707823 C898.126741,534.684916 897.994661,534.662582 897.862399,534.640789 C897.732559,534.619393 897.601986,534.598431 897.471239,534.577997 C897.343592,534.558048 897.215917,534.538623 897.088077,534.519701 C896.993622,534.505722 896.899352,534.492056 896.804994,534.478665 C896.630111,534.453845 896.454624,534.429928 896.278837,534.406962 C896.203071,534.397064 896.127516,534.387376 896.051906,534.377864 C895.885765,534.356962 895.719254,534.336898 895.552482,534.317688 C895.357594,534.295238 895.162097,534.27393 894.966251,534.253799 C894.907181,534.247728 894.848755,534.241831 894.790298,534.236039 C894.656001,534.22273 894.520737,534.209902 894.385312,534.197637 C893.982546,534.161163 893.578896,534.129701 893.173875,534.103262 C893.111569,534.099196 893.05004,534.095298 892.98848,534.091517 C892.526195,534.063114 892.061506,534.041233 891.595134,534.026005 C891.51231,534.0233 891.429113,534.020796 891.345862,534.018504 C890.898488,534.006192 890.449967,534 890,534 L435,534 C434.744287,534 434.489041,534.002 434.234276,534.005984 C434.159414,534.007155 434.084698,534.008495 434.010023,534.010006 C433.858191,534.013078 433.706533,534.016855 433.555052,534.021333 C433.441473,534.024691 433.327762,534.028451 433.214151,534.032606 C433.064169,534.038093 432.914575,534.044257 432.765159,534.051105 C432.658899,534.055975 432.552918,534.061181 432.447028,534.06673 C432.305948,534.074123 432.16464,534.082148 432.023497,534.090783 C431.936515,534.096104 431.849601,534.101657 431.76275,534.107441 C431.572152,534.120134 431.382039,534.133926 431.192236,534.148822 C431.133106,534.153463 431.074106,534.158203 431.015137,534.163049 C430.838988,534.177524 430.66296,534.192965 430.487206,534.209353 C430.409767,534.216575 430.332844,534.223935 430.255973,534.231477 C430.01831,534.25479 429.780556,534.279905 429.543325,534.306749 C429.49759,534.311924 429.451881,534.317163 429.406193,534.322466 C429.202626,534.346093 428.999578,534.370977 428.796927,534.397125 C428.742618,534.404132 428.687911,534.411286 428.633233,534.418532 C428.433974,534.444941 428.235427,534.472524 428.037272,534.501318 C427.993532,534.507674 427.949848,534.514083 427.906183,534.520551 C427.6961,534.551671 427.486345,534.584171 427.277043,534.618024 C427.240693,534.623903 427.204381,534.629819 427.168083,534.635776 C426.954107,534.670892 426.740731,534.707401 426.527841,534.745314 C426.493724,534.751389 426.458778,534.757652 426.423845,534.763953 C426.260727,534.793377 426.098746,534.823462 425.937054,534.854359 C425.811264,534.878394 425.685297,534.902991 425.559507,534.928079 C425.122243,535.015289 424.687187,535.108425 424.254361,535.207411 C424.191705,535.221741 424.129275,535.236151 424.066892,535.250683 C423.893458,535.291083 423.720141,535.332484 423.547191,535.374821 C423.475423,535.39239 423.404059,535.410036 423.332759,535.427841 C423.192942,535.462753 423.052949,535.498388 422.913203,535.534637 C422.803364,535.563129 422.694064,535.591897 422.584918,535.62104 C422.428957,535.662683 422.273209,535.705118 422.11778,535.748317 C422.059885,535.764407 422.001945,535.780628 421.94405,535.796956 C421.769927,535.846061 421.596321,535.89609 421.423121,535.94707 C421.360274,535.965569 421.297399,535.984216 421.234578,536.00299 C420.549636,536.207674 419.871122,536.427238 419.199405,536.661309 C419.117753,536.689762 419.036389,536.718363 418.955126,536.747177 C418.814551,536.797022 418.674454,536.847439 418.534662,536.898487 C418.453934,536.927964 418.372598,536.957916 418.291365,536.988082 C418.141751,537.043644 417.993182,537.099665 417.844966,537.1564 C417.772911,537.183981 417.700922,537.211738 417.629017,537.239663 C417.471676,537.300767 417.314306,537.362849 417.157346,537.425736 C417.095707,537.450433 417.034801,537.474983 416.973957,537.499653 C416.546421,537.673002 416.121334,537.852603 415.699424,538.038101 C415.603544,538.080255 415.507697,538.122773 415.412015,538.165595 C415.290171,538.220125 415.168608,538.275143 415.047317,538.330652 C414.960031,538.370599 414.873341,538.410589 414.786791,538.450829 C414.660918,538.50935 414.534952,538.568586 414.409286,538.628352 C414.325277,538.668306 414.241334,538.70853 414.157526,538.748991 C414.021222,538.814798 413.885801,538.880971 413.75074,538.94776 C413.670118,538.987627 413.589118,539.027969 413.508248,539.068531 C413.384832,539.130436 413.262123,539.192652 413.139718,539.255377 C413.050673,539.301007 412.961762,539.346922 412.873013,539.393106 C412.769478,539.446984 412.665976,539.501328 412.562697,539.556038 L412.283771,539.704975 L412.25809,539.718807 C411.865051,539.930657 411.475305,540.147827 411.088946,540.37022 C410.99819,540.422461 410.907784,540.474895 410.817565,540.527615 C410.689175,540.602639 410.560947,540.678373 410.433104,540.754684 C410.373107,540.790498 410.313451,540.826284 410.253879,540.862196 C410.105876,540.951416 409.958211,541.041526 409.811073,541.132408 C409.755474,541.16675 409.699854,541.201262 409.64431,541.235884 C409.522045,541.312095 409.400303,541.388744 409.278931,541.465922 C409.179672,541.529039 409.080703,541.592483 408.981983,541.65628 C408.938772,541.684204 408.895319,541.712384 408.851914,541.740633 C408.709792,541.833131 408.56854,541.926128 408.427811,542.019849 C408.261424,542.130655 408.095568,542.242609 407.930453,542.355568 C407.831702,542.423129 407.733883,542.490585 407.636329,542.558394 C407.537329,542.627205 407.438089,542.69674 407.339126,542.76664 C407.244361,542.833577 407.150328,542.900505 407.056547,542.967763 C406.952299,543.042527 406.848386,543.117683 406.744787,543.193243 C406.668707,543.24873 406.59234,543.304772 406.516146,543.361035 C406.409057,543.440111 406.302423,543.519535 406.196131,543.599391 C406.119503,543.656961 406.04319,543.714651 405.967055,543.772563 C405.859997,543.853998 405.753595,543.935637 405.647547,544.017711 C405.568584,544.078822 405.489693,544.140271 405.411,544.20196 C405.28703,544.299142 405.163564,544.39691 405.040593,544.49527 C404.980685,544.543188 404.920842,544.591288 404.861117,544.639529 C404.768559,544.714291 404.676397,544.789297 404.584519,544.864638 C404.462141,544.964988 404.340261,545.065939 404.21889,545.167478 C404.075743,545.287234 403.933297,545.407816 403.791566,545.529211 C403.747424,545.567021 403.70396,545.604384 403.660564,545.641823 C403.534424,545.750645 403.408176,545.860712 403.282511,545.971425 C403.208463,546.036667 403.135421,546.101417 403.062577,546.166386 C402.971499,546.247615 402.88013,546.329733 402.789079,546.412195 C402.70228,546.490806 402.615936,546.569578 402.529882,546.64866 C402.427924,546.742358 402.326487,546.836385 402.225458,546.930843 C402.175161,546.977869 402.12489,547.025072 402.074721,547.072382 C401.946274,547.193511 401.818533,547.315302 401.691467,547.437788 C401.641076,547.486362 401.590878,547.534961 401.540786,547.583668 C401.213642,547.901768 400.890873,548.22464 400.572735,548.552034 C400.522674,548.603551 400.472539,548.655376 400.42252,548.707313 C400.309656,548.824506 400.197667,548.941971 400.086271,549.06 C400.036414,549.112824 399.98633,549.16613 399.936367,549.21955 C399.830661,549.332573 399.725652,549.445936 399.621185,549.559805 C399.551483,549.635781 399.482245,549.711738 399.413248,549.787916 C399.330437,549.879345 399.24776,549.971334 399.165435,550.063643 C399.100823,550.136091 399.036371,550.208799 398.972136,550.281704 C398.362009,550.974201 397.771753,551.68415 397.202004,552.410944 C397.151427,552.475461 397.101056,552.540055 397.050847,552.604781 C396.957549,552.725052 396.864592,552.846064 396.772202,552.96753 C396.709613,553.049817 396.647684,553.13178 396.586012,553.213948 C396.521942,553.299308 396.457817,553.385339 396.393975,553.47159 C396.316182,553.576691 396.239111,553.681705 396.162459,553.787042 C396.099467,553.873605 396.036626,553.960571 395.97407,554.047755 C395.91806,554.125815 395.862126,554.204264 395.806422,554.282889 C395.539784,554.65925 395.278582,555.039392 395.022767,555.423429 C394.851317,555.680805 394.681872,555.940581 394.514891,556.202082 C394.424401,556.343794 394.334596,556.486074 394.245521,556.628856 C394.203166,556.696749 394.16122,556.764361 394.119437,556.832085 C394.03313,556.971974 393.947327,557.112662 393.862229,557.253824 C393.826084,557.313782 393.7901,557.37377 393.754243,557.433844 C393.67189,557.571815 393.590222,557.710212 393.509231,557.849053 C393.47136,557.913973 393.433399,557.979402 393.395588,558.044928 C393.201094,558.382002 393.010899,558.721074 392.824732,559.062657 C392.625602,559.428033 392.431236,559.795981 392.24155,560.166721 C392.182899,560.281355 392.124781,560.396085 392.067112,560.511078 C392.032455,560.580185 391.99805,560.649206 391.963807,560.71832 C391.895947,560.855284 391.82854,560.992991 391.761775,561.131067 C391.71448,561.228879 391.667687,561.326498 391.621215,561.424299 C391.561354,561.550274 391.501827,561.676979 391.442839,561.803986 C391.409201,561.87641 391.375656,561.949111 391.342289,562.021909 C391.280081,562.157634 391.218736,562.293143 391.158003,562.428987 C391.11876,562.516764 391.079806,562.604605 391.041108,562.692585 C390.862556,563.098509 390.689195,563.50803 390.521403,563.920409 L390.485834,564.008075 C390.46608,564.056903 390.446403,564.105771 390.426805,564.154678 C390.271186,564.543031 390.120628,564.933531 389.975067,565.326457 C389.954082,565.383102 389.933211,565.43977 389.912445,565.496489 C389.855721,565.651414 389.799759,565.806752 389.744578,565.962459 C389.718599,566.035764 389.69268,566.109474 389.666936,566.183267 C389.434323,566.850041 389.216077,567.523279 389.012484,568.202848 L388.992801,568.268718 C388.988547,568.282993 388.984299,568.297272 388.980058,568.311553 C388.918107,568.520142 388.857525,568.729361 388.798334,568.939163 C388.78953,568.970368 388.780723,569.001709 388.771946,569.033063 C388.71962,569.219997 388.668391,569.407413 388.618274,569.595283 C388.591376,569.696109 388.564708,569.797411 388.538364,569.898842 C388.440703,570.274886 388.34763,570.652106 388.259046,571.031054 C388.237519,571.123144 388.216203,571.215571 388.195154,571.308101 L388.181108,571.370036 C387.408069,574.789316 387,578.347003 387,582 L387,891 Z M904,349.721487 L53,349.721487 L53,831 C53,879.601058 92.398942,919 141,919 L373.014474,919.001236 C369.150882,910.461972 367,900.982169 367,891 L367,854.935 L361.913473,854.935407 C347.001785,854.935407 334.913473,842.847095 334.913473,827.935407 L334.913473,767.45933 C334.913473,752.547642 347.001785,740.45933 361.913473,740.45933 L367,740.459 L367,685.846 L361.913473,685.84689 C347.001785,685.84689 334.913473,673.758578 334.913473,658.84689 L334.913473,598.370813 C334.913473,583.459125 347.001785,571.370813 361.913473,571.370813 L367.826043,571.369693 C371.924984,545.260026 390.881446,524.08093 415.770898,516.756934 L361.913473,516.758373 C347.001785,516.758373 334.913473,504.670061 334.913473,489.758373 L334.913473,429.282297 C334.913473,414.370608 347.001785,402.282297 361.913473,402.282297 L422.572311,402.282297 C437.484,402.282297 449.572311,414.370608 449.572311,429.282297 L449.572311,489.758373 C449.572311,500.402629 443.412852,509.608266 434.463761,514.005455 L435,514 L525.683009,514.001042 C516.738777,509.602108 510.583436,500.399069 510.583436,489.758373 L510.583436,429.282297 C510.583436,414.370608 522.671748,402.282297 537.583436,402.282297 L598.242274,402.282297 C613.153963,402.282297 625.242274,414.370608 625.242274,429.282297 L625.242274,489.758373 C625.242274,500.399069 619.086934,509.602108 610.142702,514.001042 L701.352972,514.001042 C692.40874,509.602108 686.253399,500.399069 686.253399,489.758373 L686.253399,429.282297 C686.253399,414.370608 698.341711,402.282297 713.253399,402.282297 L773.912237,402.282297 C788.823926,402.282297 800.912237,414.370608 800.912237,429.282297 L800.912237,489.758373 C800.912237,500.399069 794.756897,509.602108 785.812665,514.001042 L890,514 C894.799448,514 899.482764,514.497221 904.001246,515.442962 L904,349.721487 Z M246.902349,740.45933 C261.814037,740.45933 273.902349,752.547642 273.902349,767.45933 L273.902349,827.935407 C273.902349,842.847095 261.814037,854.935407 246.902349,854.935407 L186.243511,854.935407 C171.331822,854.935407 159.243511,842.847095 159.243511,827.935407 L159.243511,767.45933 C159.243511,752.547642 171.331822,740.45933 186.243511,740.45933 L246.902349,740.45933 Z M246.902349,571.370813 C261.814037,571.370813 273.902349,583.459125 273.902349,598.370813 L273.902349,658.84689 C273.902349,673.758578 261.814037,685.84689 246.902349,685.84689 L186.243511,685.84689 C171.331822,685.84689 159.243511,673.758578 159.243511,658.84689 L159.243511,598.370813 C159.243511,583.459125 171.331822,571.370813 186.243511,571.370813 L246.902349,571.370813 Z M628.384,130.269 L327.563,130.269 L327.563659,179.040229 C327.563659,213.033731 300.006481,240.590909 266.012979,240.590909 C232.019477,240.590909 204.462299,213.033731 204.462299,179.040229 L204.462,130.269 L141,130.270335 C92.398942,130.270335 53,169.669277 53,218.270335 L53,329.721487 L904,329.721487 L904,218.270335 C904,169.669277 864.601058,130.270335 816,130.270335 L751.485,130.269 L751.485785,179.040229 C751.485785,213.033731 723.928607,240.590909 689.935105,240.590909 C655.941603,240.590909 628.384425,213.033731 628.384425,179.040229 L628.384,130.269 Z M689.935105,41 C666.987298,41 648.384425,59.602873 648.384425,82.5506799 L648.384425,179.040229 C648.384425,201.988036 666.987298,220.590909 689.935105,220.590909 C712.882912,220.590909 731.485785,201.988036 731.485785,179.040229 L731.485785,82.5506799 C731.485785,59.602873 712.882912,41 689.935105,41 Z M266.012979,41 C243.065172,41 224.462299,59.602873 224.462299,82.5506799 L224.462299,179.040229 C224.462299,201.988036 243.065172,220.590909 266.012979,220.590909 C288.960786,220.590909 307.563659,201.988036 307.563659,179.040229 L307.563659,82.5506799 C307.563659,59.602873 288.960786,41 266.012979,41 Z M821.957569,852.386953 L834.471655,860.736512 L810.127311,897.223136 L797.613225,888.873577 L821.957569,852.386953 Z M801.986354,839.083709 L814.50044,847.433268 L790.156096,883.919892 L777.64201,875.570333 L801.986354,839.083709 Z M782.01514,825.780465 L794.529226,834.130024 L770.184882,870.616648 L757.670796,862.267089 L782.01514,825.780465 Z M850.728157,809.266398 L863.242243,817.615956 L838.897899,854.10258 L826.383813,845.753022 L850.728157,809.266398 Z M830.756943,795.963153 L843.271029,804.312712 L818.926685,840.799336 L806.412599,832.449777 L830.756943,795.963153 Z M810.785728,782.659909 L823.299814,791.009468 L798.95547,827.496092 L786.441384,819.146533 L810.785728,782.659909 Z M557.817011,614.152149 L570.331097,622.501707 L517.216164,702.108887 L504.702078,693.759328 L557.817011,614.152149 Z M537.845796,600.848904 L550.359882,609.198463 L497.24495,688.805643 L484.730864,680.456084 L537.845796,600.848904 Z M517.874582,587.54566 L530.388668,595.895219 L477.273735,675.502399 L464.759649,667.15284 L517.874582,587.54566 Z M477.273735,809.266398 L530.388668,888.873577 L517.874582,897.223136 L464.759649,817.615956 L477.273735,809.266398 Z M526.015538,839.083709 L550.359882,875.570333 L537.845796,883.919892 L513.501452,847.433268 L526.015538,839.083709 Z M517.216164,782.659909 L570.331097,862.267089 L557.817011,870.616648 L504.702078,791.009468 L517.216164,782.659909 Z M497.24495,795.963153 L521.589294,832.449777 L509.075208,840.799336 L484.730864,804.312712 L497.24495,795.963153 Z M728.498949,732.146573 C748.914749,745.757107 754.499107,773.224473 740.986252,793.493755 C712.81812,835.745953 655.50099,847.019968 612.962037,818.660666 C581.164578,797.462359 566.632627,760.124806 573.102579,724.974822 C575.630389,738.123497 583.256736,750.30658 595.312473,758.343738 C617.653571,773.237803 647.286769,768.614619 663.920553,748.453186 L667.067971,744.214901 C680.580826,723.945619 708.083148,718.53604 728.498949,732.146573 Z M707.334841,661.186017 L715.474062,666.035227 C747.490859,687.362287 761.951275,725.120698 755.065598,760.568042 C752.873765,747.19761 745.408001,734.715543 733.369578,726.413306 L732.685923,725.949771 C708.830524,710.059045 676.692741,716.388882 660.882099,740.085431 C647.358174,760.354713 619.846874,765.773321 599.431073,752.173928 C582.509393,740.902043 575.476987,719.764584 581.960364,700.944819 C583.45647,697.680677 585.219253,694.524687 587.239439,691.496889 C613.757383,651.752534 665.874565,639.246948 707.334841,661.186017 Z M798.95547,657.272704 L823.299814,693.759328 L810.785728,702.108887 L786.441384,665.622263 L798.95547,657.272704 Z M790.156096,600.848904 L843.271029,680.456084 L830.756943,688.805643 L777.64201,609.198463 L790.156096,600.848904 Z M838.897899,630.666216 L863.242243,667.15284 L850.728157,675.502399 L826.383813,639.015775 L838.897899,630.666216 Z M770.184882,614.152149 L794.529226,650.638773 L782.01514,658.988331 L757.670796,622.501707 L770.184882,614.152149 Z M810.127311,587.54566 L834.471655,624.032284 L821.957569,632.381843 L797.613225,595.895219 L810.127311,587.54566 Z" id="Combined-Shape" fill="#000000"></path>
    </g>
</svg>