<svg height="960" viewBox="0 0 960 960" width="960" xmlns="http://www.w3.org/2000/svg"><path d="m482.32882 4.00067609c60.313667.04553056 116.889757 2.34149979 159.284444 6.36796151 21.812891 2.0716928 39.556039 4.5660675 52.665264 7.5097124 8.219532 1.8456761 15.04754 3.9306503 21.040995 6.7124181 5.018929 2.3294573 9.565829 5.1557244 13.853733 9.1658092 7.936257 7.4220566 13.472091 17.5615416 13.810331 30.1496583l.002413.1587644.789695.1858788c8.037132 1.9114586 14.911129 4.0252464 20.810818 6.5036754l.67642.2876001c5.960855 2.5651727 11.22241 5.6025458 16.060183 9.809163 9.252768 8.0456123 15.676884 19.2441767 15.676884 33.5526827v695.372c0 12.89812-4.385961 24.823498-11.963352 35.069944-5.750767 7.776414-13.156836 14.390143-22.026584 20.248511-9.473308 6.257013-20.930028 11.828439-34.279789 16.83093l-.954275.354615-.184461.31682c-.600609 1.013556-1.228996 2.015351-1.884433 3.004839l-.396502.592212c-5.740908 8.48386-13.307159 15.840113-22.427677 22.360856-14.858569 10.623181-34.394089 19.367485-57.893778 26.473784-44.211945 13.369679-102.379173 20.809517-164.040929 20.809517s-119.828984-7.439838-164.040929-20.809517c-23.499689-7.106299-43.035209-15.850603-57.893778-26.473784-9.120517-6.520743-16.686769-13.876996-22.427677-22.360856-.666227-.984544-1.305551-1.981503-1.917242-2.990333l-.302594-.503538-.287821-.104559c-13.603093-4.98256-25.292261-10.535525-34.972105-16.772864l-.740639-.481147c-8.957411-5.866867-16.435931-12.491134-22.2465-20.28594-7.671735-10.291536-12.118935-22.28835-12.118935-35.27949v-695.372c0-1.049476.041302-2.098545.123812-3.144773l.037043-.469712c.081605-1.034771.203458-2.065973.36528-3.091265 2.005679-12.7077762 8.645813-21.904227 17.371933-28.6706453 4.647222-3.6035549 9.66166-6.2942504 15.303234-8.5994343 5.719804-2.3371491 12.372858-4.360218 20.108603-6.1975636l.706095-.1666068.020199-.6332867c.012064-.2833679.027142-.5666075.045231-.8496706l.063302-.8486122.029808-.3494575c.095191-1.1159558.23721-2.2274211.425683-3.3314576 1.984342-11.6239213 7.949665-20.1525334 15.689753-26.4421134 4.068342-3.3059268 8.319193-5.7125397 12.975648-7.7293638 5.89539-2.5534376 12.659646-4.5288484 20.749313-6.2874516 13.208298-2.8713362 30.952017-5.3148477 52.64111-7.3435865 42.268872-3.95371533 98.32475-6.2037193 158.03349-6.24832401zm198.145999 871.39416991.13201-.032766c-10.057413 2.372459-20.760688 4.550278-32.018823 6.52216l.002664-.185558c0 5.522848-4.477152 10-10 10-4.364734 0-8.076346-2.796349-9.441033-6.695245-2.730758.400914-5.490465.790286-8.27585 1.168232l-.000539 1.881124c0 5.522847-4.477152 10-10 10-5.326814 0-9.680849-4.164961-9.983231-9.416006-2.904922.325401-5.833714.637933-8.784543.938525l-.001427 4.831591c0 5.522847-4.477153 10-10 10-5.522848 0-10-4.477153-10-10l.000761-3.004884c-2.934147.237951-5.886458.464517-8.855926.679571.056628.430682.085963.870876.085963 1.317921v5.258216c0 5.522848-4.477153 10-10 10-5.522848 0-10-4.477152-10-10v-5.258216l.000669-.062923c-2.961414.159355-5.936997.307526-8.92582.444398.102637.573185.155949 1.163398.155949 1.766063v5.258216c0 5.522847-4.477153 10-10 10-5.522848 0-10-4.477153-10-10v-5.258216c0-.348466.017823-.69277.052609-1.032048-2.988877.086092-5.990557.16036-9.002183.223353.118089.616343.180372 1.253193.180372 1.904589v5.258216c0 5.522848-4.477153 10-10 10-5.522848 0-10-4.477152-10-10v-5.258216c0-.564099.046708-1.11729.136466-1.655915-1.808166.008905-3.619217.012972-5.432907.012972-1.206749 0-2.412329-.001801-3.616687-.005395.095046.549863.143926 1.115518.143926 1.692589v5.258216c0 5.522848-4.477152 10-10 10-5.522847 0-10-4.477152-10-10v-5.258216c0-.654201.06282-1.29373.182757-1.912883-3.015695-.057607-6.020364-.12731-9.01439-.20819.041625.365551.062431.737186.062431 1.113681v5.258216c0 5.522848-4.477152 10-10 10-5.522847 0-10-4.477152-10-10v-5.258216c0-.620544.056523-1.227887.1647-1.817161-2.992283-.131396-5.972079-.274901-8.937909-.429602l.004007.187728v5.258216c0 5.522848-4.477152 10-10 10-5.522847 0-10-4.477152-10-10v-5.258216c0-.477781.033507-.947737.098299-1.407645-2.264351-.160178-4.519116-.326864-6.763627-.500173l-.000314 4.055356c0 5.522847-4.477152 10-10 10-5.522847 0-10-4.477153-10-10v-5.258216c0-.181828.004853-.362522.014436-.54196-2.240068-.218223-4.466731-.443618-6.680675-.675773l.000597 1.261984c0 5.522848-4.477152 10-10 10-5.522847 0-10-4.477152-10-10l-.000143-3.5873c-2.029752-.260038-4.046632-.526039-6.050223-.797953-1.253271 4.092165-5.060862 7.068002-9.563496 7.068002-5.516495 0-9.9897-4.46686-9.999982-9.980948-2.052588-.332919-4.086833-.673153-6.103651-1.019941-1.331452 1.193469-3.000755 2.044273-4.890457 2.384894-4.430806.798658-8.705512-1.454045-10.664891-5.258409-5.858394-1.161327-11.541395-2.38165-17.035318-3.659504 32.480322 23.568362 109.391901 40.134847 199.09883 40.134847 90.098304 0 167.289368-16.711354 199.526599-40.443182zm59.531753-730.370024c-14.928815 3.638072-35.91069 6.839273-61.940929 9.522318-52.258947 5.386546-122.592603 8.45286-197.565643 8.45286s-145.306696-3.066314-197.565643-8.45286c-26.030239-2.683045-47.012114-5.884246-61.940929-9.522318-6.69844-1.632374-12.326807-3.378361-16.993652-5.358792l.000224 670.10997.035406 1.054513c.001254.018658.002541.037314.003861.055969.02328.328914.05686.657078.100679.984632l-.100679-.984632c.025802.36459.064285.728452.11535 1.091563l-.014671-.106931c.048525.362738.109606.724729.183144 1.08595l-.168473-.979019c.048733.346524.108925.692364.180489 1.037499l.248243 1.031521c.003937.014367.007893.028732.011869.043096l-.011743-.042637c.094289.344055.199888.687384.316708 1.029965l-.304965-.987328c.09959.359766.211545.718736.335766 1.076887l-.030801-.089559c.1218.357183.255799.713554.401898 1.069089l-.371097-.97953c.119364.344147.250055.687537.391982 1.03015l-.020885-.05062c.144747.352244.301371.703667.469778 1.054248l-.448893-1.003628c.150348.362938.313306.725004.48877 1.086174l-.039877-.082546c.167598.348899.346865.696962.537708 1.044169l-.497831-.961623c.166178.342056.343574.683307.532098 1.023733l-.034267-.06211c.1857.337852.38236.674893.589892 1.011102l-.555625-.948992c.190459.343921.392277.687.60536 1.029214l-.049735-.080222c.222942.361171.45843.721383.706358 1.08061l-.656623-1.000388c.218652.351156.449166.701403.691444 1.050716l-.034821-.050328c.233282.338005.477577.675139.732795 1.011378l-.697974-.96105c.240171.346275.491902.691633.755096 1.036052l-.057122-.075002c.256422.337825.52387.674747.802253 1.010747l-.745131-.935745c.259518.339608.530183.678304.8119 1.016063l-.066769-.080318c.288588.348315.588928.695638.900919 1.041945l-.83415-.961627c.292821.351073.597584.701135.914185 1.050162l-.080035-.088535c.301225.334358.613311.667768.936166 1.00021l-.856131-.911675c.301614.332505.613972.664072.936984.994677l-.080853-.083002c.323624.333232.658068.665491 1.003241.996756l-.922388-.913754c.324601.332233.659962.663496 1.00599.993767l-.083602-.080013c.360951.346406.733633.691724 1.117943 1.035929l-1.034341-.955916c.352021.335992.715083.670957 1.089089 1.004873l-.054748-.048957c.358247.320862.726597.640757 1.104966.959665l-1.050218-.910708c.382401.341412.776244.681726 1.181424 1.02092l-.131206-.110212c.403799.340343.819009.679561 1.245526 1.01763l-1.11432-.907418c.376987.315591.763789.630212 1.160323.943843l-.046003-.036425c.822016.651554 1.686031 1.298842 2.591303 1.941687.036424.025866.07275.051607.109143.077342l-.109143-.077342c.462081.328131.934912.655104 1.418393.980896l-1.30925-.903554c.448084.316855.906195.632629 1.374244.9473l-.064994-.043746c.483941.326103.978553.651022 1.483738.974736l-1.418744-.93099c.486551.327109.983841.653027 1.491771.977729l-.073027-.046739c.488644.313115.987179.625101 1.495516.935938l-1.422489-.889199c.500369.319868 1.011063.638557 1.531987.956044l-.109498-.066845c.498996.305125 1.007436.609142 1.525237.912032l-1.415739-.845187c.527331.321393 1.065146.641553 1.613345.960459l-.197606-.115272c1.09469.640344 2.231217 1.275648 3.408781 1.905725.050465.027002.10101.053997.15163.080983l-.15163-.080983c.557983.298559 1.12518.595944 1.701506.892135l-1.549876-.811152c.57962.308993 1.169116.616725 1.768392.923174l-.218516-.112022c1.211469.62261 2.463275 1.239946 3.754631 1.85182.071841.034039.142671.067526.213619.100997l-.213619-.100997c.628341.297722 1.266045.594151 1.913021.889266l-1.699402-.788269c.618322.291704 1.245641.582162 1.88187.871354l-.182468-.083085c1.315903.600242 2.670165 1.195047 4.06202 1.784234.102886.043551.204634.086507.306583.129433l-.306583-.129433c.711199.301058 1.432213.600649 2.162941.898749l-1.856358-.769316c.649944.27366 1.308009.546103 1.974118.817309l-.11776-.047993c1.42802.582561 2.893137 1.159428 4.394587 1.730421.055446.021086.110659.042056.165921.063019l-.165921-.063019c.742087.282212 1.493049.562988 2.252795.842309l-2.086874-.77929c.752296.285369 1.513674.569268 2.28404.851673l-.197166-.072383c.758119.278722 1.524985.555994 2.300506.831795l-2.10334-.759412c.748871.274526 1.506235.54764 2.272004.819323l-.168664-.059911c.809229.287788 1.627882.573974 2.455854.858533l-2.28719-.798622c.792096.281023 1.593185.560514 2.40317.83845l-.11598-.039828c.777457.267197 1.56313.53296 2.356935.797268l-2.240955-.75744c.820911.281686 1.65096.561774 2.490045.840242l-.24909-.082802c.830817.276632 1.670541.55167 2.519074.825091l-2.269984-.742289c.802348.266275 1.612958.531068 2.431742.794359l-.161758-.05207c1.686719.543509 3.408243 1.080629 5.163799 1.611177.044353.013404.089335.026987.134339.040566l-.134339-.040566c.821025.248123 1.649494.494808 2.485327.740038l-2.350988-.699472c.891873.269097 1.792507.536501 2.7018.802187l-.350812-.102715c.145501.042689.291225.085335.437172.127936l.000571-.106603.001414.107182c50.688141 14.795208 128.242674 24.256668 215.165253 24.256668 88.506928 0 167.301192-9.809514 217.910067-25.070982.07341-.022137.146595-.044235.21972-.066346l-.21972.066346c.890334-.268486 1.771944-.53866 2.644731-.810497l-2.425011.744151c.864655-.261434 1.721047-.524463 2.569086-.789065l-.144075.044914c.851902-.265333 1.695397-.532251 2.530393-.800731l-2.386318.755817c.85167-.265735 1.694914-.533057 2.529639-.801942l-.143321.046125c.833483-.267995 1.658498-.537547 2.47495-.808634l-2.331629.762509c.828124-.26676 1.647863-.535059 2.459124-.804877l-.127495.042368c1.600462-.531402 3.168022-1.068704 4.70198-1.611741.146789-.051964.294252-.10433.441403-.15675l-.441403.15675c.818576-.289784 1.627582-.581201 2.426914-.874226l-1.985511.717476c.731153-.260458 1.454591-.522226 2.170238-.785286l-.184727.06781c2.320475-.850657 4.559409-1.714864 6.714198-2.592006.037363-.015209.074584-.030375.111779-.045544l-.111779.045544c.72553-.295339 1.44152-.592144 2.147871-.890393l-2.036092.844849c.724253-.295368 1.438968-.592201 2.144048-.890475l-.107956.045626c.693088-.292648 1.376896-.586686 2.051329-.882091l-1.943373.836465c.683765-.289256 1.358468-.579868 2.024018-.871813l-.080645.035348c.666869-.292091 1.324573-.58552 1.973021-.880264l-1.892376.844916c.678178-.297485 1.346851-.596354 2.005926-.896585l-.11355.051669c.649561-.295249 1.289834-.591819 1.920728-.889687l-1.807178.838018c.688737-.313743 1.366991-.628974 2.034652-.945666l-.227474.107648c.631427-.29812 1.253459-.59754 1.866005-.898239l-1.638531.790591c.627787-.297779 1.24621-.596849 1.855176-.897191l-.216645.1066c.629343-.308945 1.248672-.61924 1.857888-.930862l-1.641243.824262c.597388-.294631 1.185676-.590485 1.764778-.887541l-.123535.063279c.607456-.310722 1.204857-.622762 1.792105-.936099l-1.66857.87282c.615461-.315707 1.220546-.632772 1.815153-.951172l-.146583.078352c.552752-.29493 1.096509-.591009 1.631188-.888216l-1.484605.809864c.585956-.313766 1.161736-.628828 1.727242-.945162l-.242637.135298c.587882-.32678 1.164789-.654925 1.730614-.984408l-1.487977.84911c.526515-.294524 1.044124-.59015 1.552747-.886861l-.06477.037751c1.069485-.622769 2.099374-1.250319 3.088931-1.882479.049078-.031353.098042-.062707.146906-.094072l-.146906.094072c1.510463-.96493 2.926956-1.940598 4.246858-2.926387.023232-.017351.046202-.034531.069141-.051714l-.069141.051714c.877277-.655206 1.711884-1.314883 2.503051-1.97885.020026-.016806.039823-.033446.059592-.050088l-.059592.050088c.38077-.31955.751478-.640095 1.112039-.961612l-1.052447.911524c.397545-.334661.784057-.67041 1.159437-1.007224l-.10699.0957c.373193-.332782.735515-.666607 1.086872-1.001451l-.979882.905751c.364187-.326772.717897-.654545 1.061039-.9833l-.081157.077549c.355857-.339135.700466-.679316 1.033727-1.02052l-.95257.942971c.361054-.345915.710408-.692917 1.047958-1.040979l-.095388.098008c.316446-.323988.622662-.648899.918561-.974712l-.823173.876704c.331772-.342105.65214-.685235.961005-1.029367l-.137832.152663c.311233-.342697.611053-.686393.899362-1.031064l-.76153.878401c.292016-.325359.573749-.651614.845116-.978744.263072-.317149.515853-.634405.758858-.952462l-.758858.952462c.28661-.345505.561656-.691987.82504-1.039422l-.066182.08696c.258138-.337863.505245-.676631.741229-1.016282l-.675047.929322c.256733-.338662.502384-.678231.736863-1.018683l-.061816.089361c.483534-.695947.920372-1.3956 1.309729-2.098774.011618-.020982.023203-.041985.034747-.062991l-.034747.062991c.187284-.338232.363582-.677279.528808-1.01712l-.494061.954129c.192493-.350295.373204-.701462.542037-1.053478l-.047976.099349c.34217-.703785.636853-1.410975.883273-2.121389.011945-.03444.023611-.068399.035166-.102364l-.035166.102364c.121469-.350185.23121-.701154.329132-1.052883l-.293966.950519c.117762-.346164.224067-.693091.318825-1.040759l-.024859.09024c.197979-.711129.347644-1.425369.448226-2.142541.004942-.035239.009771-.070518.01448-.105804l-.01448.105804c.050313-.358742.088345-.718218.114-1.078405l-.09952.972601c.046395-.347624.081258-.695933.104503-1.044908l-.004983.072307c.026482-.371801.039776-.744359.039776-1.11765l.001218-670.110391c-4.66704 1.980604-10.29573 3.726723-16.994646 5.359213zm-73.411103 538.523754v65.201878c0 13.509647-10.642145 25.391482-24.092472 26.960041-14.346509 1.673071-26.409146-8.981269-26.409146-23.402983v-65.201878c0-13.509648 10.642146-25.391483 24.092473-26.960042 14.346508-1.673076 26.409145 8.981269 26.409145 23.402984zm-60.485437 68.233114c2.323528 0 4.20712 2.118765 4.20712 4.732395 0 2.613629-1.883592 4.732394-4.20712 4.732394s-4.207119-2.118765-4.207119-4.732394c0-2.61363 1.883591-4.732395 4.207119-4.732395zm36.392965-71.770725c-3.395252.395949-6.409146 3.760928-6.409146 7.094669v65.201878c0 2.421674 1.593403 3.829049 4.092473 3.537611 3.395251-.39595 6.409145-3.760929 6.409145-7.094669v-65.201878c0-2.421674-1.593402-3.829049-4.092472-3.537611zm34.291501 60.305936c2.033087 0 3.68123 2.118766 3.68123 4.732395s-1.648143 4.732394-3.68123 4.732394-3.681229-2.118765-3.681229-4.732394 1.648142-4.732395 3.681229-4.732395zm-70.684466-21.13615c2.323528 0 4.20712 2.118765 4.20712 4.732395 0 2.613629-1.883592 4.732394-4.20712 4.732394s-4.207119-2.118765-4.207119-4.732394c0-2.61363 1.883591-4.732395 4.207119-4.732395zm70.684466-10.413145c2.033087 0 3.68123 2.118765 3.68123 4.732394s-1.648143 4.732394-3.68123 4.732394-3.681229-2.118765-3.681229-4.732394 1.648142-4.732394 3.681229-4.732394zm-70.684466-20.084507c2.323528 0 4.20712 2.118765 4.20712 4.732394s-1.883592 4.732394-4.20712 4.732394-4.207119-2.118765-4.207119-4.732394 1.883591-4.732394 4.207119-4.732394zm70.684466-11.464789c2.033087 0 3.68123 2.118765 3.68123 4.732394s-1.648143 4.732395-3.68123 4.732395-3.681229-2.118766-3.681229-4.732395 1.648142-4.732394 3.681229-4.732394zm29.197139-579.2157441-.4589.2738527c-1.293525.759138-2.659618 1.4530754-4.106947 2.1045214-2.84266 1.279488-6.118469 2.437825-9.868223 3.515798 67.827204 4.956626 57.099198 13.055447-32.182201 24.29611-54.069234 6.807398-111.806405 10.176284-173.211513 10.106658l-3.252527.01235c-57.442623.15167-113.894768-3.221333-169.356434-10.119008-88.962201-11.064081-105.602699-18.819968-49.921493-23.26766-5.382663-1.364863-9.912199-2.848105-13.680548-4.544248-.866821-.3901577-1.704503-.7955572-2.514908-1.2210765-27.497849 4.4276185-43.437943 9.6920045-43.437943 15.3401365 0 15.740115 123.793267 28.5 276.5 28.5s276.5-12.759885 276.5-28.5c0-6.148176-18.887472-11.841651-51.008363-16.4974341zm-429.740942-11.6944574.095903.0224797c.141272.0331827.283297.0663243.426073.0994245.119979.0277879.240406.0555548.361362.0832923.805598.1847688 1.635062.3683001 2.487602.5504894.170197.0363422.341005.0725948.512728.1087938l.612806.1281774c.219831.0456053.441116.0911243.663849.1365564l.044866.0091167c.816777.1664142 1.652986.3316613 2.508324.4957102.813117.1559794 1.642713.3106988 2.489301.4643108.442819.0803168.889897.1602932 1.34158.2399633.437902.0772709.88018.1542311 1.326752.2308998.67375.11564 1.357311.2306542 2.050532.3449932.271393.0447945.544458.0894855.818999.1340722.638077.1035954 1.283862.2066168 1.937523.3090662.879583.1378876 1.773144.2746666 2.680744.4103884.526004.0786283 1.055793.1567951 1.590239.2346038.728212.1060476 1.466132.2115516 2.212619.3163782.235783.0330842.472454.0661316.709976.099111.318286.0442186.6383.088317.959837.1322923.32049.0438077.642134.0874693.96528.1310083 1.814121.2444469 3.675561.4850005 5.582941.7215446.106018.0131312.211934.0262366.317991.0393297l-.317991-.0393297c.260115.0322582.521084.0644419.782905.0965506l-.464914-.0572209c.322946.0398687.647199.0796229.972754.1192619l-.50784-.062041c.462057.0566651.926765.1130968 1.394103.1692932.030628.0036697.06575.0078903.100887.0121095-.683583.0547924-1.364604.1099084-2.043041.1653457 40.842881 4.667763 100.446277 7.6088308 166.823935 7.6088308 82.959553 0 155.337515-4.5940316 193.741893-11.4101023-8.606406.9237785-18.445198 1.7769569-29.402816 2.5521593-42.056915 2.9753382-98.696321 4.6701496-159.080177 4.6701496-60.383855 0-117.023262-1.6948114-159.080176-4.6701496-18.635861-1.3184036-34.035567-2.8623493-45.617349-4.5968593zm202.069325-42.2811399 2.6282-.001147c-8.026483 0-15.953914.030003-23.761105.0885102-101.327867 1.0022815-182.440201 8.4631545-196.892983 17.9718574 15.648635 7.6286677 108.477695 13.4889282 220.654088 13.4889282 106.550242 0 195.645194-5.2871649 217.724855-12.3553467l-.001896-2.256624c-17.064808-8.1002099-82.889186-14.5280579-167.168703-16.4053617-17.02465-.3316295-34.837327-.5148122-53.182456-.5308164z"/></svg>