<svg height="960" viewBox="0 0 960 960" width="960" xmlns="http://www.w3.org/2000/svg"><path d="m383.054301 59.9985705.794623.0080203c.528576.0105361 1.054774.0314191 1.578392.0624586l.544684.036718 2.076833-.0491194c3.024728-.0580789 6.055199-.072419 9.09064-.0367426l2.2775.0357551 266.737214 5.2395964c157.758117 3.0988884 285.845813 130.2873601 285.845813 284.8922331v259.62502c0 154.604873-128.087696 281.793345-285.845813 284.892233l-266.737214 5.239597-2.2775.035755-2.275637.017764-2.2737-.000212c-1.515139-.00613-3.028939-.024235-4.541303-.054295l-2.073833-.049585-.516117.035237c-.538252.032337-1.079238.053942-1.622738.064609l-.81711.007771c-.545961-.000323-1.094327-.011687-1.64488-.0343l-.689315-.03414-109-6.319403c-4.456987-.2584-8.708009-1.23947-12.642161-2.825176l-.195679-.081598-.038608-.002289c-140.354824-13.506537-248.5576551-130.792186-250.77372419-274.636481l-.03466781-4.503692v-265.12861c0-152.606225 119.131775-276.0565609 269.821614-280.3222135l102.828922-6.0444221c.805927-.0474193 1.607409-.0707014 2.403765-.0704889zm11.646362 40.0032395-1.959835.000261c-2.610616.010681-5.211196.062636-7.801136.155263l-1.94045.077088-.000983-.153964-1.265086.054922c-128.773273 5.922808-230.633132 112.165113-230.633132 244.449233v269.841462c0 136.417998 108.325573 245.141137 242.782187 244.708325l4.082356-.046611 266.98937-5.2345c136.339523-2.673024 246.864544-112.211805 246.864544-244.661714v-259.372463c0-93.997899-55.666456-176.456498-136.720698-217.367312-33.048594-16.656161-70.30885-26.389913-109.729193-27.164258l-266.737214-5.239596c-1.312664-.025786-2.622932-.041139-3.93073-.046136zm-116.009181 6.103885 1.023625-.028601c-128.936588 3.247145-231.715107 108.669451-231.715107 240.358601v265.12861c0 129.740431 99.759218 233.985653 226.008578 240.147572l-.008578 1.968719 7.187512.424231c-88.866888-42.134829-150.087471-133.145399-150.087471-239.678752v-269.841462c0-105.455169 59.987673-195.700167 147.397837-238.384477.064519-.031506.129054-.062987.193604-.094441zm252.856774 543.577313.850215.012543c27.718605.632037 49.98128 22.995198 49.98128 50.730875 0 28.211146-23.039844 51.311487-51.454739 51.699585-28.530399.389676-51.727879-22.334505-51.727879-50.741785 0-28.316716 23.05631-51.433568 51.497607-51.70008zm-130.291947 36.756402c0 28.408016-23.024334 51.688655-51.463036 52.053477-28.548512.366232-51.719582-22.567632-51.719582-51.164708 0-28.513653 23.040682-51.810822 51.505904-52.053936 28.522349-.243601 51.676714 22.673727 51.676714 51.165167zm362.246884-3.870449c0 28.021157-23.065345 50.912587-51.463036 51.276883-28.50602.365686-51.719582-22.176789-51.719582-50.388113 0-28.12666 23.08196-51.03458 51.505905-51.277341 28.480126-.243241 51.676713 22.28275 51.676713 50.388571zm-232.098989-12.886423-.52206.00073c-17.499195.163978-31.685011 14.387043-31.685011 31.700958 0 17.051116 13.765158 30.705934 30.933456 30.746596l.521283-.002946c17.525596-.239369 31.727879-14.478943 31.727879-31.70145 0-16.789304-13.504664-30.354217-30.455576-30.73632zm-181.132266-14.40927-.521534.000246c-17.475269.149252-31.676713 14.508786-31.676713 32.054665 0 17.287832 13.791042 31.110571 30.942283 31.168813l.520752-.002459c17.50179-.22452 31.719583-14.600584 31.719583-32.055123 0-17.023694-13.529887-30.755547-30.464899-31.157996zm362.248126-3.093955-.522776.000348c-17.516547.149604-31.676713 14.203-31.676713 31.27807 0 16.820501 13.749397 30.340618 30.941034 30.392325l.522002-.002566c17.5428-.225046 31.719582-14.294933 31.719582-31.278529 0-16.560952-13.489336-29.991541-30.462466-30.381786zm-170.327554-363.376997.243576.006322c3.962618.166572 7.135528 3.418783 7.135528 7.373275 0 4.035196-3.303738 7.276096-7.379104 7.238753s-7.379103-3.341301-7.379103-7.379597c0-4.038297 3.303737-7.279197 7.379103-7.238753zm-108.674065-1.078465.243576.006345c3.962618.167291 7.135527 3.437723 7.135527 7.414588 0 4.058024-3.303737 7.31743-7.379103 7.280087s-7.379103-3.359808-7.379103-7.420932c0-4.061125 3.303737-7.320531 7.379103-7.280088zm-108.674065-1.078465.243575.006367c3.962619.168011 7.135528 3.456665 7.135528 7.455901 0 4.080853-3.303737 7.358765-7.379103 7.321422s-7.379103-3.378314-7.379103-7.462267c0-4.083954 3.303737-7.361866 7.379103-7.321423z"/></svg>