<svg height="960" viewBox="0 0 960 960" width="960" xmlns="http://www.w3.org/2000/svg"><path d="m493 3c60.574279 0 117.624065 3.97499956 160.953823 11.0683178 22.451901 3.6754989 41.047225 8.1462933 55.291047 13.5236029 8.941191 3.3754673 16.570757 7.2239 23.10278 12.058846l.477404.3564704c9.510272 7.1636488 16.741766 16.3861792 19.737035 28.46781l.033911.1389529.20807.6279874c1.815163 5.4731949 3.403979 10.3449146 4.76843 14.6222043l.409446 1.3065033c1.6096 5.2295599 2.880847 10.5014596 3.808293 15.807737l.121761.724568.069711.289225c.666239 2.895031 1.018289 5.910216 1.018289 9.007775v1l-.007295.763913-.001705.038087-3.947 705.217.094975.597342c.571823 3.76346.861025 7.56387.861025 11.383658 0 24.337759-11.357106 46.097981-30.646156 63.978135-15.470147 14.340188-36.234108 26.39036-61.239892 36.19439-47.262158 18.530097-109.357462 28.827475-175.113952 28.827475h-.127052l-3.75386-.012125-.127216-.000607c-64.950615-.412879-126.072126-10.882554-172.527485-29.376405-24.639725-9.80906-45.087143-21.824361-60.321447-36.101752-18.983056-17.790672-30.14294-39.393399-30.14294-63.509111l.002146-.414348c.001431-.13811.003577-.276213.006438-.414303l.012416-.582349-4.021024-716.213202v-1.820978l.009024-.31982-.009024-.720959c-.044178-8.994278 1.238216-17.9343754 3.803367-26.7066527 2.878296-9.8431694 7.215865-19.1537097 12.933076-27.8251465l.283712-.4244145c1.240074-1.8297657 2.618179-3.5375418 4.115362-5.1131289l.215507-.2236984.330958-.3961582c4.364165-5.1596096 9.664963-9.3642711 15.710149-13.0079246 6.428358-3.8746048 13.852384-7.1271173 22.414035-10.0342283 14.446091-4.9051737 32.909139-9.0432642 54.826719-12.445914 42.76546-6.63923146 97.940582-10.3367749 156.367139-10.3367749zm195.570112 872.211708-1.143938.430641c-6.087348 2.292468-12.594683 4.47221-19.497426 6.53721-46.359955 13.868876-108.646936 21.750201-175.006245 21.750201s-128.64629-7.881325-175.006245-21.750201c-7.203969-2.155114-13.977267-4.435202-20.291953-6.837974 38.949974 25.742937 110.057132 43.127999 191.621835 43.646492l3.75386.011923c83.270539 0 156.068929-17.579108 195.570112-43.788292zm-422.651575-64.65207.104463 18.330362-.023 1.11c0 1.531883.098713 3.054727.29378 4.567607 9.607835 9.861652 29.155708 20.015103 57.354604 28.450983 44.359587 13.270453 104.745015 20.91117 169.274119 20.91117s124.914532-7.640717 169.274119-20.91117c28.379248-8.489833 47.99646-18.719279 57.533959-28.640016.178743-1.45047.269419-2.91037.269419-4.378574 0-2.802525-.330385-5.574796-.976718-8.311152l.060891-10.584581c-12.969348 8.303428-30.248792 15.61035-51.155425 21.864702-46.359955 13.868876-108.646936 21.750202-175.006245 21.750202s-128.64629-7.881326-175.006245-21.750202c-21.362536-6.390739-38.937963-13.880452-51.997721-22.409331zm-.749857-133.715914.605702 107.966131c9.406521 10.032337 29.153134 20.406114 57.874002 28.998145 44.359587 13.270453 104.745015 20.911171 169.274119 20.911171s124.914532-7.640718 169.274119-20.911171c27.888766-8.343102 47.31575-18.366205 57.03042-28.125365l.577598-103.36681c-11.775776 4.516107-26.091572 8.528396-42.690011 12.124994-47.196268 10.226626-110.694948 16.046225-178.372772 16.046225s-131.176504-5.819599-178.372772-16.046225c-23.019138-4.987854-41.648103-10.775201-55.200405-17.597095zm-2.793966-497.845367 2.662557 474.342312c2.252203 1.713505 5.12409 3.483325 8.589991 5.258892 11.631201 5.958617 29.03283 11.539893 50.977193 16.294861 45.691869 9.900648 107.798007 15.592622 174.137402 15.592622s128.445533-5.691974 174.137402-15.592622c19.596774-4.246286 35.570779-9.15154 47.047688-14.396023l2.661087-475.663707c-12.278189 4.966085-27.544118 9.336079-45.473405 13.221049-47.196268 10.226625-110.694948 16.046225-178.372772 16.046225s-131.176504-5.8196-178.372772-16.046225c-24.644135-5.339963-44.256385-11.596281-57.994371-19.057384zm28.851023-114.1130138-.694052.2601525c-9.639647 3.6775475-15.809482 7.66787-17.815907 11.854845l-.584475-.0003407c-3.539741 5.3688146-6.184974 11.0467761-7.935698 17.0338847-1.653359 5.6541395-2.372945 11.3097033-2.158758 16.9666903l-.036847-.000575.005.884-.005.116v.151359l.236874 42.392879c2.444568 2.435431 6.268971 5.046563 11.390388 7.670244 11.631201 5.958618 29.03283 11.539893 50.977193 16.294862 45.691869 9.900648 107.798007 15.592622 174.137402 15.592622s128.445533-5.691974 174.137402-15.592622c21.235582-4.601388 38.217141-9.976567 49.832145-15.718685l.282596-50.633659.006-.157v-1l-.058342.000127c-.051686-.442493-.137593-.883375-.257236-1.322553-.69565-4.551683-1.767567-9.104033-3.219947-13.6569666-1.535389-4.8131496-3.380539-10.4531638-5.535449-16.9200425-.705703-4.9563395-7.232422-9.6712506-18.47945-13.9604913 1.117414 2.6002272 1.70234 5.3549539 1.70234 8.2804461 0 10.5535502-7.612022 18.8848172-20.555869 25.7387387-10.64624 5.6373116-25.575323 10.5864726-44.042474 14.7224616-36.898679 8.264001-86.464444 12.959319-139.273838 12.959319-52.809395 0-102.37516-4.695318-139.273839-12.959319-18.467151-4.135989-33.396234-9.08515-44.042474-14.7224616-12.943846-6.8539215-20.555868-15.1851885-20.555868-25.7387387 0-3.0213748.623896-5.860607 1.818183-8.5351765zm202.053998 12.6357742c-29.852678 0-57.762398 2.5582849-78.165069 6.979857-9.572622 2.0745342-17.077493 4.4819538-21.889978 6.9477392-.436302.2235495-.840767.4427931-1.212832.6558428l-.038509.021561.038509.0221508c.279049.1597872.576323.3230585.891584.4890174l.321248.1668253c4.812485 2.4657854 12.317356 4.873205 21.889978 6.9477393 20.402671 4.4215718 48.312391 6.9798568 78.165069 6.9798568 29.852677 0 57.762397-2.558285 78.165068-6.9798568 9.572623-2.0745343 17.077493-4.4819539 21.889978-6.9477393.436303-.2235495.840767-.4427931 1.212832-.6558427l.037734-.0221508-.037734-.021561c-.279049-.1597873-.576322-.3230586-.891584-.4890175l-.321248-.1668253c-4.812485-2.4657854-12.317355-4.873205-21.889978-6.9477392-20.402671-4.4215721-48.312391-6.979857-78.165068-6.979857zm-.279735-34.5211174c-40.557011 0-78.562387 1.8290469-111.233836 5.0213271-8.283871 1.3353626-16.107705 2.8236944-23.389258 4.4545051-16.876682 3.7797805-30.220805 8.203509-39.054346 12.8809747-4.010891 2.1238142-6.899158 4.2035658-8.593658 6.058176-.621048.6797293-1.012301 1.2532158-1.21297 1.695758-.090523.1996355-.108378.278525-.108378.3097788 0 .0312537.017855.1101432.108378.3097787.200669.4425422.591922 1.0160287 1.21297 1.6957581 1.6945 1.8546101 4.582767 3.9343617 8.593658 6.0581759 8.833541 4.6774657 22.177664 9.1011942 39.054346 12.8809747 3.865316.8656943 7.88344 1.6912398 12.041978 2.4750656-.444742-1.4808357-.676537-3.0492655-.676537-4.7138604 0-8.1102828 5.502474-13.9377403 14.362321-18.4772837 6.595462-3.3793343 15.648232-6.2832905 26.774022-8.6944201 21.907277-4.7476431 51.209743-7.4335911 82.401045-7.4335911s60.493767 2.685948 82.401044 7.4335911c11.12579 2.4111296 20.17856 5.3150858 26.774022 8.6944201 8.859848 4.5395434 14.362321 10.3670009 14.362321 18.4772837 0 1.6645949-.231795 3.2330247-.676837 4.7138914 4.158838-.7838568 8.176962-1.6094023 12.042279-2.4750966 16.876682-3.7797805 30.220805-8.203509 39.054346-12.8809747 4.01089-2.1238142 6.899157-4.2035658 8.593657-6.0581759.621048-.6797294 1.012302-1.2532159 1.21297-1.6957581.090523-.1996355.108379-.278525.108379-.3097787 0-.0312538-.017856-.1101433-.108379-.3097788-.200668-.4425422-.591922-1.0160287-1.21297-1.695758-1.6945-1.8546102-4.582767-3.9343618-8.593657-6.058176-8.833541-4.6774657-22.177664-9.1011942-39.054346-12.8809747-7.023944-1.5731153-14.552478-3.0136546-22.511222-4.3121919-32.989969-3.2803176-71.516979-5.1636403-112.671342-5.1636403z"/></svg>