<?xml version="1.0" encoding="UTF-8"?>
<svg width="960px" height="960px" viewBox="0 0 960 960" version="1.1" xmlns="http://www.w3.org/2000/svg" xmlns:xlink="http://www.w3.org/1999/xlink">
    <!-- Generator: Sketch 60.1 (88133) - https://sketch.com -->
    <title>Smartmi fan 3</title>
    <desc>Created with Sketch.</desc>
    <g id="Smartmi-fan-3" stroke="none" stroke-width="1" fill="none" fill-rule="evenodd">
        <path d="M479.564041,1 C488.796729,1 497.813039,3.08199641 506.336999,7.0186074 C521.06518,13.8205017 530.574519,28.4806227 530.763233,44.6980194 L530.766095,45.1899258 L530.766,592.525 L531.01453,592.892284 C534.49175,598.125575 536.598369,604.348232 536.822043,611.047913 L536.837176,611.658275 L536.841865,612.237064 L536.841,648.071 L537.058853,648.311102 C539.882218,651.458996 542.159679,655.146728 543.716592,659.249676 L543.944702,659.868217 L544.093022,660.29072 L612.097108,858.012109 C614.648813,865.431173 614.565661,873.15725 612.310855,880.14038 L612.142,880.65 L612.328211,881.213197 C615.321376,890.559208 614.403772,901.119402 608.85374,910.172181 L608.562534,910.63907 L608.222868,911.164273 L588.455789,941.153439 C582.262586,950.549312 571.929314,956.394207 560.685649,956.861295 L554.494652,957.114108 C526.409388,958.240568 503.74977,958.863581 486.426533,958.981052 L482.744642,958.998625 L479.215843,958.998625 L476.015321,958.986587 C459.979335,958.896936 439.515665,958.35795 414.561364,957.37236 L412.008156,957.270591 L402.108981,956.859464 C391.828318,956.41959 382.271372,951.478979 375.96832,943.367181 L375.65589,942.958955 L353.050751,912.969789 C345.907051,903.492582 344.387154,891.795372 347.576946,881.512961 L347.729913,881.032023 L347.85,880.672 C345.497818,873.735229 345.298446,866.033012 347.716137,858.613227 L347.897719,858.070835 L348.084134,857.542117 L419.56557,659.776804 C420.191969,658.043766 420.945715,656.383015 421.813977,654.803558 L422.193063,654.131651 L422.286,653.972 L422.286217,612.237064 C422.286217,605.289322 424.310611,598.814403 427.801721,593.369985 L428.113552,592.892284 L428.361,592.525 L428.361987,45.1899388 C428.361982,29.1058463 437.535859,14.485362 451.904877,7.44041848 L452.346364,7.22712981 L452.79107,7.01861284 C461.31504,3.08199689 470.331352,1 479.564041,1 Z M394.896509,885.493 L381,891.902291 L403.60514,921.891457 L413.497621,922.30219 C439.676418,923.354418 460.871831,923.917818 477.08386,923.994321 L478.566201,924 L480.681066,924 L484.761231,923.989282 L487.8776,923.968002 C503.768576,923.833218 524.296536,923.272615 549.46148,922.286193 L553.270999,922.135037 L559.23292,921.891457 L579,891.902291 L566.818509,885.72 L394.896509,885.493 Z M513.75479,679.695259 C506.847881,692.058343 493.796527,700.531724 478.706423,700.960498 L478.191204,700.971993 L477.511628,700.9775 C465.373281,700.9775 454.423136,695.890202 446.677017,687.731431 L381,869.439418 L390.802509,873.487 L569.034509,873.723 L579,869.395493 L513.75479,679.695259 Z M479,820.9775 C486.179702,820.9775 492,826.797798 492,833.9775 C492,841.157202 486.179702,846.9775 479,846.9775 C471.820298,846.9775 466,841.157202 466,833.9775 C466,826.797798 471.820298,820.9775 479,820.9775 Z M499,617.977 L457.285509,617.977 L457.286217,661.084612 C457.286217,664.735522 458.1534,668.184935 459.69403,671.240112 L459.91868,671.673864 L459.280228,671.674283 C463.292789,677.20318 469.75892,680.835774 477.080002,680.973445 L477.511628,680.9775 L477.866977,680.974621 C489.452559,680.786779 498.809279,671.430059 498.997121,659.844477 L499,659.489128 L499,617.977 Z M479,52.9775 C473.813424,52.9775 468.606544,53.9166152 463.362033,55.8108225 L463.361509,597.977 L472.999509,597.977 L473,61.9775 L485,61.9775 L484.999509,597.977 L495.765803,597.977 L495.765803,56.2326754 C490.139668,54.0560042 484.558176,52.9775 479,52.9775 Z M479.564041,36 C475.531266,36 471.49849,36.9312261 467.465715,38.7936784 C465.043795,39.9121913 463.46622,42.285378 463.366962,44.9251028 L463.361987,45.1899271 L463.361987,45.2890944 C468.554493,43.7510218 473.770337,42.9775 479,42.9775 C484.608474,42.9775 490.201055,43.8671407 495.765742,45.635357 L495.766095,45.1899258 C495.766095,42.4449831 494.165016,39.9494736 491.662365,38.7936778 C487.62959,36.9312259 483.596815,36 479.564041,36 Z" id="Shape" fill="#000000" fill-rule="nonzero"></path>
    </g>
</svg>