<svg height="529.19" viewBox="0 0 355.59 529.19" width="355.59" xmlns="http://www.w3.org/2000/svg"><g transform="translate(-2.47 -2.31)"><path d="m181.82 4.31c41.92.8 78.27 15.06 108.82 44.19 14.3 13.63 26.11 28.92 34.48 46.77a169.86 169.86 0 0 1 14.51 51.49c1.42 11.42 1.4 22.93 2 34.4.84 17 1.6 33.93 2.37 50.89.4 8.9.74 17.81 1.12 26.71q1.29 30.57 2.6 61.14.69 16.1 1.45 32.18 1.35 28.44 2.83 56.92c.4 8.23.73 16.47 1.13 24.7 1 19.46 1.88 38.92 2.9 58.37.33 6.21-2.39 11-6.78 14.9a34.73 34.73 0 0 1 -14.65 7.81c-12.29 3.12-24.6 6.22-37.1 8.1-9.48 1.42-19 2.27-28.57 2.76-12.14.63-24.26 1.56-36.39 2.26-7.56.43-15.14.9-22.71 1-12 .13-24 1-36 .37-7.4-.39-14.82-.32-22.23-.53-18.73-.51-37.45-1.23-56.12-2.77-20.16-1.67-40.28-3.85-60.06-8.35-4.55-1-9-2.46-13.44-3.87-7.13-2.25-11.86-7.15-15.7-13.2a11.48 11.48 0 0 1 -1.79-6.89c.5-10.73.94-21.46 1.44-32.19q1.4-29.69 2.85-59.37.54-11.36 1-22.71 1.23-26 2.46-51.89c.55-12 1-24 1.6-35.93.76-16.3 1.59-32.6 2.38-48.9.37-7.81.7-15.63 1.07-23.45.81-17 1.9-34.09 2.36-51.14a234.52 234.52 0 0 1 5.35-43.29c5-22.79 16.49-42.19 30.32-60.53 12.37-16.38 28.52-28.07 46-38.23 11.34-6.6 23.09-12.28 35.77-15.86a158.46 158.46 0 0 1 32-5.32c4.21-.31 8.45-.47 12.73-.54zm-61.31 17.2 1-.5 1-.5 1.49-.51 1-.5 1-.5 1.49-.5 1-.5 1.48-.5 1.51-.5.19-.16-.18.18-1.5.5-1.49.5-1 .5-1.5.48-1 .5-1 .5-1.49.5-1 .5-1 .5-1 .5c-3.38.87-6.22 2.84-9.25 4.45a55.23 55.23 0 0 0 9.23-4.45zm-72.51 61.49.51-1c-.16.34-.33.67-.49 1l-.5 1a18.47 18.47 0 0 0 -1.52 2c-8 12.31-13.08 25.78-16.39 40a213.2 213.2 0 0 0 -5.2 41.8c-.6 19-1.82 37.92-2.74 56.87q-1 20.72-2 41.42-1.34 29.07-2.61 58.14c-.38 8.4-.7 16.8-1.18 25.2-.24 4.13-.38 4.15 3.65 5.18 15.25 3.91 30.88 4.93 46.51 5.73 13.64.7 27.29 1.11 40.94 1.48 16.41.45 32.81.91 49.22 1 29.49.18 59 .39 88.47-.45 5.25-.15 10.49-.29 15.73-.56 19-.95 37.91-1.86 56.86-3a177.6 177.6 0 0 0 24.55-2.81c2-.41 2.81-1.26 2.7-3.35-.3-5.74-.42-11.48-.65-17.23q-.5-12.23-1.05-24.45-1.21-27-2.43-53.9c-.37-8.4-.7-16.8-1.08-25.2-.79-17.8-1.52-35.6-2.46-53.4-.55-10.55-.48-21.14-1.88-31.65-4.17-31.09-15-59.31-36-83.11-23.18-26.3-51.34-44.28-86-51.47-4.46-.93-9-1.54-13.48-2.3 4.22 1.65 8.29 3.48 12.37 5.33 13.4 6.11 21.19 16.46 23.82 30.88a79.19 79.19 0 0 1 -1.27 34.45c-6.71 25.82-8.69 52.19-9.68 78.66-.5 13.22-.59 26.46-1.59 39.67-1.26 16.54-2.94 33-6.57 49.22-2.26 10.1-5 20-10.3 29.08a141.9 141.9 0 0 1 -28.61 34.47 124.31 124.31 0 0 1 -43.65 25.15c-14.45 4.72-29.32 6-44.41 5.18-9.64-.51-18.73-2.76-26.84-8.34-14.75-10.19-23.56-24.69-28.04-41.58a193 193 0 0 1 -6.71-54.37c.25-9.91.59-19.81.82-29.72.38-16.57.83-33.14 1-49.71a176.4 176.4 0 0 1 6.87-45.31c2.76-10 6.76-19.5 10.8-29zm292.5 316.5c-4-7.15-10.74-7.86-16-1.65a28.16 28.16 0 0 0 -5.1 8.81c-6.9 19.26-7 38.77-2 58.42a37.82 37.82 0 0 0 7.05 14.75c4.43 5.47 10.63 5.55 15 .08a29.34 29.34 0 0 0 3.55-5.41 4.39 4.39 0 0 1 -1.71-5.52c.22-.64.41-1.35 1.22-1.39s1.06.68 1.24 1.32.37 1.47.6 2.42c1.06-1.87 1.55-3.36.19-5.06a4 4 0 0 1 -.51-3.14c.2-1 .07-2.34 1.31-2.76s1.09 1.36 2 1.7c2.13-6.73 2.09-13.52 1.43-20.28-.4.48.11 1.66-1.28 1.83-.82-1.86-1.16-4.08-.14-5.68 1.74-2.72.75-5.42 1-8.15-1-.1-.86 1.23-2 .77a7.58 7.58 0 0 1 .08-6c.39-.84.94.35 1.45.27.14-6-.46-11.64-3.11-17.14-.89 1.11-.29 2.83-2.08 3.23a4.49 4.49 0 0 1 -.78-5.49c1.8-2.79.09-4.23-1.42-5.94zm6.5 8.5.1.17-.1-.17c-.22-13.19-1.19-26.35-1.75-39.67-1.2.13-2 .18-2.84.33-12.65 2.21-25.41 3.34-38.2 4.34-19.27 1.47-38.58 2-57.89 2.48-15.4.41-30.82.14-46.23.46-16.82.35-33.65.32-50.47-.22-12-.39-24-.61-36-1-20.19-.72-40.4-1.48-60.62-2.72-12-.71-24.06-2-35.78-5.17-.62-.17-1.25-.53-2.08 0-.17 2.44-.4 5-.52 7.56-.41 9.15-.75 18.3-1.18 27.45q-1.38 29.31-2.81 58.62c-.52 11-1 22-1.47 32.94a7.34 7.34 0 0 0 1 4.55c3.34 5.11 7.23 9.46 13.38 11.42a172 172 0 0 0 19.09 4.94c18.58 3.69 37.37 5.69 56.21 7.19 19.18 1.52 38.4 2.12 57.62 2.79 15.72.54 31.47.62 47.21.09 9.65-.33 19.3-.63 29-1.15 12.3-.66 24.58-1.66 36.88-2.27a276.88 276.88 0 0 0 28.31-2.83c11.62-1.79 23-4.64 34.38-7.55a34.14 34.14 0 0 0 12.36-5.76c4.91-3.71 7.83-8.32 6.56-14.85a40.27 40.27 0 0 1 -.23-5.49q-.57-11.69-1.15-23.37a15.81 15.81 0 0 0 -1.13 3.2c-1.72 5.94-3.79 11.71-7.81 16.6-5.25 6.39-12.34 6.39-17.58 0a39.78 39.78 0 0 1 -7.22-14.7 102 102 0 0 1 -1.45-49c1.56-7.52 3.86-14.84 9.08-20.85 5-5.79 11.73-5.82 16.74-.05a40.41 40.41 0 0 1 6.59 11.69zm-248.6-67.54a106.68 106.68 0 0 0 39.69-6.81c19.63-7.26 36.08-19.19 50.07-34.63 12.79-14.11 22.29-29.87 26.34-48.85 5.38-25.2 7.52-50.72 8.24-76.36.52-18.48 1.07-36.94 3.18-55.32 1.34-11.58 2.92-23.13 5.93-34.43 3.16-11.88 4.35-23.9 2.47-36.1-1.52-9.82-5.13-18.74-13.21-25-10.63-8.26-23-12.37-36.31-13.27-17.41-1.19-34.13 2.24-50.44 8.11-8 2.88-15.6 6.71-23.28 10.34-29.66 14-52.84 34.56-65.74 65.36a173 173 0 0 0 -13.82 64.83c-.15 10.9-.59 21.8-.84 32.71-.37 16.4-.81 32.8-1 49.21a199 199 0 0 0 6.43 50.65c3.44 13.74 10 25.93 20.45 35.75 6.61 6.22 14.24 10.76 23.25 12.49a88.37 88.37 0 0 0 18.59 1.32zm-82.65 14.91c-.18 2.15-.29 3.88-.47 5.61-.36 3.36-.25 3.56 3.11 4.44 13.61 3.58 27.61 4.58 41.53 5.39 15.12.86 30.26 1.48 45.41 2q28 1 55.93 1.53c24.65.5 49.3-.42 74-.45 4.58 0 9.16-.21 13.73-.28q29.61-.5 59.12-2.65c10.14-.76 20.24-1.75 30.27-3.37 7.88-1.27 6.53.34 6.57-8.11 0-2-.61-2.4-2.53-2a155 155 0 0 1 -24 3c-15.86 1-31.74 1.8-47.62 2.51-13.47.61-27 1.26-40.44 1.41-36.4.4-72.79.37-109.19-.68-20.47-.59-40.95-1-61.41-2.08-9.32-.49-18.58-1.44-27.81-2.79a149.18 149.18 0 0 1 -16.2-3.48z" stroke="#000" stroke-miterlimit="10" stroke-width="4"/><path d="m48.5 82-.5 1 .49-1z" fill="#fff"/><path d="m347 408 .12.16z" fill="#fff"/><path d="m47.51 84c.17-.33.33-.67.5-1-.17.33-.33.67-.5 1z" fill="#fff"/><path d="m76.62 396.17c-2.76-2.26-5.68-2.48-8.31-.82a6.9 6.9 0 0 0 -3 7.37 7.05 7.05 0 0 0 6 5.21 6.66 6.66 0 0 0 7-4.06 10.14 10.14 0 0 0 .47-1.41c.25-1 .47-2.19 1.83-1.77s1 1.58.82 2.56c-.74 4.17-4.84 7.51-9.32 7.63a9.91 9.91 0 0 1 -9.54-7.39 9.7 9.7 0 0 1 16.8-8.59c.72.9 1.06 1.68 0 2.57-1.63 1.42-3.24 2.86-4.87 4.28-.63.53-1.37.76-2 .11-.79-.8-.32-1.53.32-2.16 1.25-1.14 2.46-2.27 3.8-3.53z"/><path d="m76.46 463.2a19.62 19.62 0 0 1 4.54-12.43c4.33-5.29 11.47-5.68 16.87-1.08 7.6 6.47 7.17 21.55-.78 27.61a11.52 11.52 0 0 1 -16.19-1.73c-.24-.3-.46-.61-.67-.93a20 20 0 0 1 -3.77-11.44zm25-.09a15.46 15.46 0 0 0 -2.79-9.86c-4.52-6.82-13.14-6.8-17.52.09-4.15 6.54-4.1 13.21 0 19.73 4.26 6.75 13 6.8 17.4.18a15.7 15.7 0 0 0 2.94-10.14z" stroke="#000" stroke-miterlimit="10" stroke-width="4"/><path d="m120.34 409.85c2-4.48 3.71-8.27 5.43-12.05a10.24 10.24 0 0 1 1-1.73 1.11 1.11 0 0 1 1.33-.43 1.15 1.15 0 0 1 .75 1.41 7.86 7.86 0 0 1 -.52 1.4c-2.64 5.75-5.24 11.51-8 17.22-1.09 2.28-2.46 4.44-5.46 4.46-.9 0-2 .16-2.26-1s1-1.34 1.81-1.57c3.46-.91 4.73-3.09 3.67-6.47-1.39-4.45-2.87-8.87-4.28-13.31-.31-1-1-2.28.46-2.8 1.66-.6 1.86 1 2.19 2 1.26 4.02 2.45 8.13 3.88 12.87z"/><path d="m87.21 397.78c-.17 1.91-.39 3.81-.52 5.72-.2 3.05 1.37 5.13 4 5.35s4.5-1.39 4.77-4.54c.24-2.82.37-5.65.6-8.47.08-1 .28-2.22 1.58-2.16 1.51.07 1.42 1.39 1.34 2.48-.22 3.07-.33 6.15-.78 9.19-.62 4.15-3.58 6.47-7.46 6.16a6.9 6.9 0 0 1 -6.8-7c0-.15 0-.3 0-.45.06-3.07.33-6.15.57-9.22.08-1 .29-2.17 1.69-2 1.21.17 1.14 1.22 1.07 2.17l-.18 2.74z"/><path d="m108.14 397.2c-1.91-.43-2.55.46-2.6 2.41-.08 3.4-.37 6.81-.67 10.2-.09 1-.09 2.47-1.67 2.27s-1.27-1.57-1.2-2.62c.3-4.9.57-9.8 1-14.68s3.72-7.9 8-7.34c1 .13 2.22.22 2.14 1.57s-1.27 1.09-2.15 1.06c-1.74-.06-3.36.07-4.29 1.85-.7 1.34-.82 2.43 1.16 2.56a4.8 4.8 0 0 1 .75.09c.93.24 2.25.2 2.08 1.61s-1.52.97-2.55 1.02z"/><path d="m98.76 428.31c-1.32.47-.52 2.26-1.74 2.78-1-.09-1-.81-.94-1.47.06-1.07.17-2.14.3-3.21s-.33-2.4 1.09-2.73a4.87 4.87 0 0 1 4 .77 2.11 2.11 0 0 1 .37 2.91c-.69 1.27.29 2.41.22 3.95-2.27.26-1.55-2.93-3.3-3zm.49-1.53c.54-.06 1-.3.87-.9s-.6-.72-1.13-.66a.72.72 0 0 0 -.74.7v.08c.02.63.46.78 1 .78z"/><path d="m80.32 429.76c-2.14.35-4 .88-5.54-.64-.64-.62-.08-5.89.54-6.51s3.39-.45 5.11.55c-1 1.31-2.88-.35-3.69 1.2.23 1.78 2.42.35 2.85 1.79-.51 1.69-3-.54-3.28 1.63.89 1.31 2.78.31 4.01 1.98z"/><path d="m73.23 424c-2.65-.74-2.65-.74-4 0 1 1.64 4.8 1 3.66 4.26-.43 1.22-1.57 1.37-2.7 1.31s-2.45-.3-2.74-1.86c1.24-1 2.58 1.17 3.76-.39-1.15-1.45-4.51-1.09-3.52-4.18.41-1.28 1.46-1.45 2.62-1.31s2.74-.03 2.92 2.17z"/><path d="m94.91 423.41a8 8 0 0 1 -.35 5.68 2.88 2.88 0 0 1 -3.76 1.53 3.09 3.09 0 0 1 -1-.71c-1.32-1.42-1.34-4.78 0-6.61 1.27.56.68 1.69.78 2.59.13 1.17-.42 2.91 1.27 3s1.48-1.6 1.63-2.79c.1-.89-.13-1.99 1.43-2.69z"/><path d="m87.46 424.19c-1.62.62-3.85-1.18-4.34 1.77-.53 3.29 1.9 2.9 3.88 3.19a3.28 3.28 0 0 1 -4.57.78l-.23-.18c-1.13-1-1.08-5.12.09-6.3s3.36-1.09 5.17.74z"/><path d="m116.73 427c1.14-.41 1.31-2.21 3.24-1.54-1.27 2.28-3.19 4.19-3.42 7-1.49-2.32-1-5.25-3.41-7.18 2.4-.88 2.38 1.33 3.59 1.72z"/><path d="m112.69 425.22c-3.29 1.3-1.88 4.52-3.18 6.81-2.61-2 1.2-5.67-2.85-7.16 2.34-.65 4.03-.8 6.03.35z"/><path d="m103.93 432.12c0-3-.43-5.45.72-8a7 7 0 0 1 -.72 8z"/><path d="m34.88 172c.22-20.38 1.65-40.64 7.54-60.27 7.55-25.15 21.42-46 42.67-61.81 16.51-12.3 34.06-22.45 53.7-28.78 15.51-5 31.34-7 47.56-4.77 22.65 3.14 38.89 19.13 42.78 41.79a60.85 60.85 0 0 1 -2.43 30.28 141.48 141.48 0 0 0 -7.14 37.68c-.62 11.47-.8 23-1.53 34.43-1.23 19-2.41 38-6.84 56.69-4.55 19.2-15.53 33.49-32 43.7a93.11 93.11 0 0 1 -55.6 14.06c-20.51-1.23-38-9.63-53.22-23.25-14.83-13.35-23.59-30.17-28.47-49.26-1.46-5.73-3.3-11.36-4-17.26-.09-.69-.18-1.46-1-1.5-2.12-.1-2-1.56-2-3-.02-2.93-.02-5.84-.02-8.73zm1.7-.06v6.5c0 1.61-.44 3.44 2.07 3.76.74.1.8 1 .85 1.66.44 6.46 2.61 12.53 4.18 18.74 5.08 20.12 14.82 37.4 31 50.72 14.15 11.66 30.25 18.88 48.65 20a91.66 91.66 0 0 0 55.72-14.32c14.86-9.4 25.25-22.29 29.83-39.51 5.1-19.21 6.18-38.94 7.44-58.63.75-11.79.91-23.62 1.57-35.43a136.62 136.62 0 0 1 6.89-36.43 60.43 60.43 0 0 0 1.15-36.81 47 47 0 0 0 -38.86-34.08 106.17 106.17 0 0 0 -46.63 4.26c-19.71 6.16-37.27 16.27-53.84 28.5-21.69 16-35.6 37.13-43 62.69-5.51 19-6.82 38.64-7.05 58.35z" stroke="#000" stroke-miterlimit="10" stroke-width="3"/><path d="m317.35 421.6c.25-1.5.42-3.44 2.47-3.33s2.26 2 2.23 3.61-.43 3.5-2.44 3.4-2.17-1.96-2.26-3.68z"/><path d="m319.28 434.08c-.25 1.55-.11 3.62-2.25 3.56-1.86-.06-2-2-2-3.48s.27-3.4 2.11-3.44 1.86 1.92 2.14 3.36z"/><path d="m315.5 447.27c.4-1.41.36-3.44 2.31-3.31s2.06 2.18 2.05 3.71c0 1.38-.32 3.24-2.07 3.21-2.07-.04-1.94-2.11-2.29-3.61z"/><path d="m323.16 459.61c-.13 1.55-.15 3.43-2 3.52s-2.16-1.83-2.16-3.29.17-3.57 2.15-3.6 1.85 1.95 2.01 3.37z"/><path d="m328.15 468.92c-.26 1.57-.23 3.52-2.14 3.51s-2.12-2-2.1-3.56.2-3.36 2.14-3.28 1.81 2.01 2.1 3.33z"/><path d="m333.65 432.46c-.31 1.6-.19 3.6-2.08 3.63s-1.95-2-2-3.41.17-3.4 2-3.45c1.98-.06 1.6 2.07 2.08 3.23z"/><path d="m334.12 460.48c-.28 1.58-.15 3.55-2.05 3.65s-2-1.79-2.05-3.16c0-1.56 0-3.6 2.07-3.64 1.77-.04 1.64 1.96 2.03 3.15z"/><path d="m322.41 439.77c.33-1.41.16-3.42 2.15-3.4 1.76 0 1.91 1.9 1.93 3.28s-.09 3.45-1.94 3.53-1.81-1.98-2.14-3.41z"/><path d="m328.64 452.47c-.22 1.41-.05 3.38-2 3.46s-1.94-1.83-1.95-3.18c0-1.51 0-3.61 2-3.61 1.78 0 1.74 1.93 1.95 3.33z"/><path d="m331.14 403.15c-.22 1.36 0 3.34-1.74 3.38-2 0-1.88-2-1.87-3.43s0-3.3 1.8-3.27 1.56 1.99 1.81 3.32z"/><path d="m327.54 426.94c-.34 1.35-.06 3.37-1.85 3.42s-1.79-1.89-1.8-3.28-.1-3.32 1.7-3.38 1.54 1.99 1.95 3.24z"/><path d="m325.37 410.28c-.07.5-.11.91-.2 1.32-.21 1-.38 2.13-1.64 2.14s-1.45-1.15-1.63-2.14a5.16 5.16 0 0 1 -.06-1.24c.11-1.35-.22-3.32 1.58-3.41 2.08-.09 1.58 2.05 1.95 3.33z"/><path d="m331.14 417.06c-.31 1.35 0 3.47-2 3.4-1.7-.06-1.64-2.09-1.64-3.41s0-3.32 1.74-3.32 1.65 1.94 1.9 3.33z"/><path d="m334.91 449.91c.29-1.33 0-3.34 1.76-3.38s1.71 2 1.71 3.3.11 3.37-1.64 3.4-1.47-2.03-1.83-3.32z"/><path d="m330.14 444.72c.11-.58.18-1.25.36-1.88s.54-1.27 1.31-1.29 1.12.58 1.38 1.23a5.76 5.76 0 0 1 .27 3.41c-.22.95-.4 2.17-1.66 2.13-1.09 0-1.27-1.15-1.44-2.05-.09-.49-.14-.98-.22-1.55z"/><path d="m338.82 442.53c0-.43 0-.85.07-1.28.12-1 .26-2.16 1.52-2.18s1.39 1.19 1.61 2.14a3.63 3.63 0 0 1 .07 1.23c-.17 1.33.08 3.3-1.76 3.25-1.63-.05-1.33-1.94-1.51-3.16z"/><path d="m336.34 475.62c.24-1.42-.11-3.36 1.53-3.38s1.52 2 1.53 3.2.15 3.22-1.48 3.23-1.22-2-1.58-3.05z"/><path d="m337.08 425.39c-.41 1.17.08 3.2-1.58 3.2s-1.44-2-1.47-3.21-.16-3.19 1.46-3.2 1.25 1.98 1.59 3.21z"/><path d="m336.06 400.29c-.37 1.19.11 3.23-1.49 3.28s-1.48-2-1.47-3.18-.18-3.19 1.51-3.18c1.48 0 1.14 1.9 1.45 3.08z"/><path d="m335.85 462.66c.21-1.22-.2-3.16 1.46-3.18s1.46 2 1.46 3.17.3 3.37-1.54 3.31c-1.52-.04-1.18-2.03-1.38-3.3z"/><path d="m332.24 471.1c1.41 1.36 1.9 4.61.91 6.06-.53.77-1.11 1-1.78.16-1.07-1.32-.55-5.01.87-6.22z"/><path d="m340.36 458v-1.06c.15-1 0-2.49 1.48-2.42 1.21.06 1.15 1.43 1.27 2.4a2.36 2.36 0 0 1 0 .75c-.19 1.29.42 3.4-1.51 3.35-1.6-.1-1.08-2.14-1.24-3.02z"/><path d="m339.75 418a4.82 4.82 0 0 1 -.09-6.7 4.4 4.4 0 0 1 .09 6.7z"/><path d="m340.49 399.49c0 2.11.73 4.38-1.11 6.25-1.52-1.49-2-4.77-1.07-6.24.77-1.23 1.48-.6 2.2 0z"/><path d="m336.33 441c-1.44-1.53-1.86-4.49-.86-6 .5-.78 1.06-1 1.73-.18.98 1.23.45 4.99-.87 6.18z"/><path d="m335.19 409.1c1.87 2.37 1.87 4.53.12 6.73-1.99-1.36-2.11-4.7-.12-6.73z"/><path d="m346.77 456.23c-1.67-2.45-1.63-4.69 0-6.77a4.84 4.84 0 0 1 0 6.77z"/><path d="m343.75 451.26c-1.72-2.46-1.7-4.59-.06-6.76 1.84 1.73 1.91 4.36.06 6.76z"/><path d="m345.35 419.83a7 7 0 0 1 0-6.85 5.24 5.24 0 0 1 0 6.85z"/><path d="m343.78 420.23a7 7 0 0 1 -.2 6.66c-1.73-2.24-1.58-5.22.2-6.66z"/><path d="m345.15 431.6c.59 2.69.9 4.83-.23 7.16a5.3 5.3 0 0 1 .23-7.16z"/><path d="m340 427.21a6.88 6.88 0 0 1 .11 6.67 5.14 5.14 0 0 1 -.11-6.67z"/><g stroke="#000" stroke-miterlimit="10"><path d="m209.58 163.7a101.74 101.74 0 0 1 -27.58 67.86c-13.66 14.64-30.46 23.56-50.73 25.13-21.64 1.67-40.41-5.32-56.43-19.58-19.22-17.12-29.37-39-32.5-64.32-2.81-22.72.91-44.37 11.59-64.62 8.5-16.11 20.29-29.33 36.71-37.76 25.75-13.21 51.12-11.93 75.52 3.39 17.16 10.79 28.61 26.5 35.93 45.21 5.05 12.91 7.54 26.38 7.49 44.69zm-1.67-4.4a99.19 99.19 0 0 0 -1-14.2c-3.46-25.58-13.86-47.64-34-64.23-21.79-17.94-46.46-22.49-73.07-12.82-20.12 7.32-34.26 21.86-44.2 40.42-10.83 20.19-14.48 41.87-11.64 64.58 3.07 24.32 12.81 45.44 31.06 62.12 16.76 15.33 36.61 22.22 59.26 19.54 20.14-2.38 36.42-12.34 49.41-27.63 16.62-19.5 23.76-42.48 24.18-67.78z" stroke-width="4"/><path d="m144.69 159.25c-.27 12.13-5 24.22-16.15 33.12-14.35 11.42-34.28 9.16-46.08-5-15.58-18.57-14.46-46.43 2.54-62.84 14.52-14 36.75-12.54 49.41 3.23 6.94 8.66 10.25 18.52 10.28 31.49zm-1.69-.16c0-11.58-2.68-20.5-8.49-28.46-12.62-17.29-35.18-18.83-49.95-3.38-15.5 16.22-15 45.23 1 61.06 12.25 12.09 29.74 13 42.91 1.93 10.17-8.53 14.32-19.93 14.53-31.15z" stroke-width="4"/><path d="m109.15 215.69c0 3.39-1.62 5.85-3.83 5.78s-3.89-2.73-3.89-5.87 1.8-5.59 3.84-5.65c2.24-.06 3.88 2.36 3.88 5.74zm-1.67 0c-.14-1.64-.08-3.85-2.16-3.85s-2.14 2.24-2.14 3.86.16 3.88 2.15 3.88 2-2.2 2.15-3.87z" stroke-width="3"/><path d="m101.44 159.39c0-4.73 3.49-8.84 7.66-8.92s7.88 4.22 7.86 9-3.58 8.73-7.82 8.72-7.66-3.98-7.7-8.8zm1.7 0c0 4.06 2.65 7.11 6.1 7.09 3.28 0 6-3.12 6-6.94s-2.93-7.43-6.26-7.33c-3.12.07-5.86 3.41-5.84 7.16z" stroke-width="4"/></g></g></svg>