<svg height="960" viewBox="0 0 960 960" width="960" xmlns="http://www.w3.org/2000/svg"><path d="m487 6.33526829c52.355785 0 103.758301 5.90741261 154.202471 17.73517471l2.233615.5271972c63.060269 15.0188571 107.563914 71.3641854 107.563914 136.1877548v642.395501c0 67.650752-48.374548 125.623854-114.931922 137.737189-40.090481 7.296496-90.756918 10.936088-152.419029 11.081915h-3.649049c-55.408382 0-101.249246-2.791912-137.848502-8.503677l-1.074961-.169337c-68.006968-10.782659-118.076537-69.41682-118.076537-138.273391v-644.2682c0-64.1222125 43.564553-120.0275881 105.683438-135.7262312.09519-.0240565.190469-.0477625.285835-.0711174l1.347442-.3299881c.082359-.0201697.164781-.0400774.247267-.059723 51.119879-12.175182 103.286523-18.26306701 156.436018-18.26306701zm-221.569283 820.68606771.22194.969383c9.119787 38.773304 40.883461 69.36015 81.687726 75.829759l1.034754.162983c34.24528 5.344359 78.120235 8.016539 131.624863 8.016539h3.649049c59.377484-.140532 107.796366-3.617646 145.256657-10.435447 39.446038-7.179115 69.950725-36.90961 79.195342-74.428659-63.178318 15.467563-136.872423 23.180975-221.101048 23.180975-84.436395 0-158.286233-7.751513-221.569283-23.295533zm-1.489673-679.982731-.024342.19581c-.60514 4.442458-.916702 8.96704-.916702 13.55098v644.2682l.007685 1.050505c.810714.00122 1.634403.101769 2.455981.310616 62.627428 15.920015 136.479987 23.902153 221.536334 23.902153s158.908906-7.982138 221.536334-23.902153c.809755-.205841 1.62156-.30648 2.420974-.310502.028562-.971776.042692-1.946134.042692-2.923318v-642.395501c0-4.497312-.299897-8.937488-.882708-13.299029-39.502193 18.592133-125.751246 30.513634-222.617292 30.513634-97.654802 0-184.494224-12.114473-223.558956-30.961395zm8.399108-28.46199-.358277.772414c-1.207044 2.648355-2.301103 5.355516-3.276842 8.114729.870504.174028 1.730935.467185 2.560524.886936 34.666634 17.540402 120.040918 29.649306 216.234443 29.649306 95.87943 0 181.026383-12.027814 215.925476-29.493831.643446-.322027 1.305031-.568153 1.974573-.741767-1.032754-2.952501-2.201895-5.846628-3.499926-8.673319-.142434.105066-.288267.206136-.437575.303894-25.388833 16.623051-112.318007 27.605023-213.962548 27.605023-103.253836 0-190.862859-11.257578-215.159848-28.423385zm214.659848-72.2413467c-50.038187 0-99.094344 5.7248889-147.168473 17.1746668l-1.347442.3299882c-23.037708 5.8220742-42.517757 19.3963153-55.915569 37.5270697.368252.207914.72715.442211 1.074629.702528 8.240221 6.173221 33.367172 12.657537 69.232975 17.318937 37.607911 4.887819 84.777637 7.611542 134.62388 7.611542 97.482031 0 182.177796-10.69982 203.007101-24.337572.432123-.282928.878045-.528085 1.333879-.736281-13.665304-18.7643289-33.808729-32.7333655-57.672347-38.4168849l-2.15339-.5081776c-47.38548-11.1105442-95.723895-16.6658162-145.015243-16.6658162z"/></svg>