<svg height="960" viewBox="0 0 960 960" width="960" xmlns="http://www.w3.org/2000/svg"><path d="m485 3c25.405098 0 46 20.5949015 46 46.0000237l-.001 788.4059763.137967.026045c3.479497.66484 6.795373 1.401661 9.921811 2.208578l.847949.221804c8.470429 2.245552 15.83362 5.05557 22.334345 8.95826 5.116266 3.071535 9.711042 6.805761 13.692753 11.709843 6.202769 7.639653 10.066175 17.21184 10.066175 28.005184l-.003.257286.003.278429v13.928571c0 4.030913-.595622 7.920479-1.703019 11.586458l-.013981.041542-.092601.324924c-2.305296 7.837579-6.606682 14.379369-12.082063 19.695155l-.402721.386773c-4.262656 4.049887-8.953669 7.127293-14.119473 9.681072-6.973636 3.447504-15.031971 6.001927-24.270778 8.002395-15.872746 3.436906-35.838343 5.281681-56.815364 5.281681s-40.942618-1.844775-56.815364-5.281681c-9.238807-2.000468-17.297142-4.554891-24.270778-8.002395-5.165804-2.553779-9.856817-5.631185-14.119473-9.681072-5.667091-5.384218-10.123262-12.053189-12.484784-20.081928l-.092601-.324924-.013981-.041542c-1.045875-3.462313-1.635259-7.124061-1.697518-10.915962l-.005501-.670496v-13.928571l.003-.278429-.003-.257286c0-10.589696 3.718992-20.003882 9.717584-27.570692l.348591-.434492c3.981711-4.904082 8.576487-8.638308 13.692753-11.709843 6.500725-3.90269 13.863916-6.712708 22.334345-8.95826 3.372853-.894159 6.973945-1.705102 10.76976-2.430382l.136967-.026045v-788.406c0-25.1510475 20.185063-45.58762095 45.239306-46zm60.828746 903.332286-.516957.159951c-3.150117.962486-6.678975 1.837677-10.559494 2.629018-15.058457 3.070821-35.115031 4.800775-56.445364 4.800775-21.330334 0-41.386907-1.729954-56.445365-4.800775-3.843445-.78378-7.341917-1.649817-10.469103-2.601455 7.978425 6.613449 35.000452 11.4802 67.107537 11.4802 32.409865 0 59.638313-4.958974 67.328746-11.667714zm-99.009447-31.627991-.050527.005769c-17.784857 2.043708-31.11404 5.751775-35.870056 10.203796l-.090943-.050165c.19885.110268.429584.231897.691179.361599l.201967.09874c3.005656 1.449136 7.880499 2.920614 14.156932 4.200545 9.691414 1.976338 21.963331 3.364719 35.457377 4.002569-7.455835-3.516481-12.970012-10.473236-14.495929-18.822853zm64.043759.079295-.048535.252926c-1.600691 8.15484-7.013856 14.942879-14.306856 18.431475 13.017923-.662401 24.847242-2.026277 34.248344-3.943412 6.276433-1.279931 11.151276-2.751409 14.156931-4.200545.346203-.166918.644584-.322503.893146-.460339l.097843-.055017.01838-.050685c-4.840138-4.332655-17.803925-7.941144-35.059253-9.974403zm-25.863058-831.78359h-12.605198c-3.313709 0-6 2.6862915-6 6v821c0 3.313708 2.686291 6 6 6h12.907178c2.655743 0 4.908491-1.725427 5.698392-4.116429l-.000372-822.883571c0-3.3137085-2.686292-6-6-6z"/></svg>