<svg height="960" viewBox="0 0 960 960" width="960" xmlns="http://www.w3.org/2000/svg"><path d="m480 116c154.682484 0 287.932168 105.017915 326.13211 251.791479l.76689 3.035521 1.116132.449083c89.922811 36.884052 150.7084 124.339422 151.965009 223.585942l.019859 3.137975c0 133.800956-107.349331 242.801016-240.954987 244.967228l-3.88299.032772h-467.162023c-135.309764 0-245-109.690236-245-245 0-99.226855 59.5359902-187.221215 148.661543-225.329768l1.095457-.461232.802447-3.221843c37.381534-145.838945 168.559739-250.804803 321.649448-252.953548zm0 40c-140.946894 0-261.677829 98.951882-290.537886 235.073658l-.084109.378641c-1.519365 6.540476-6.224902 11.89257-12.538156 14.229491l-2.385685.899946c-78.4710702 30.158782-131.454164 105.791992-131.454164 191.418264 0 113.218374 91.781626 205 205 205h466.837l3.602-.029 3.304259-.079634c109.105926-3.521465 196.475943-92.237594 198.229861-201.539042l.02688-3.352324c0-87.632458-55.494214-164.716596-136.798948-193.387919l-.362114-.131616c-6.366651-2.383527-11.096507-7.844948-12.535626-14.507072l-.905996-4.056592c-30.173791-130.798218-145.478154-226.005844-280.989941-229.799235l-4.197458-.088113zm0 467c12.143603.016067 21.983933 9.856397 22 22 0 12.150264-9.849736 22-22 22s-22-9.849736-22-22 9.849736-22 22-22zm-94-61c12.143603.016067 21.983933 9.856397 22 22 0 12.150264-9.849736 22-22 22s-22-9.849736-22-22 9.849736-22 22-22zm189 0c12.143603.016067 21.983933 9.856397 22 22 0 12.150264-9.849736 22-22 22s-22-9.849736-22-22 9.849736-22 22-22zm-95-62c12.145821.01072 21.98928 9.854179 22 22 0 12.150264-9.849736 22-22 22s-22-9.849736-22-22 9.849736-22 22-22zm-188 0c12.145821.01072 21.98928 9.854179 22 22 0 12.150264-9.849736 22-22 22s-22-9.849736-22-22 9.849736-22 22-22zm378 0c12.145821.01072 21.98928 9.854179 22 22 0 12.150264-9.849736 22-22 22s-22-9.849736-22-22 9.849736-22 22-22zm-284-60c12.143603.016067 21.983933 9.856397 22 22 0 12.150264-9.849736 22-22 22s-22-9.849736-22-22 9.849736-22 22-22zm189 0c12.143603.016067 21.983933 9.856397 22 22 0 12.150264-9.849736 22-22 22s-22-9.849736-22-22 9.849736-22 22-22zm-95-61c12.143603.016067 21.983933 9.856397 22 22 0 12.150264-9.849736 22-22 22s-22-9.849736-22-22 9.849736-22 22-22z"/></svg>