<?xml version="1.0" encoding="UTF-8"?>
<svg width="960px" height="960px" viewBox="0 0 960 960" version="1.1" xmlns="http://www.w3.org/2000/svg" xmlns:xlink="http://www.w3.org/1999/xlink">
    <title>com.innr/drivers/p115/ assets/icon</title>
    <g id="com.innr/drivers/p115" stroke="none" stroke-width="1" fill="none" fill-rule="evenodd">
        <path d="M676.597699,169.079343 L677.262,169.128 L678.415204,169.092519 C693.647862,168.684208 708.923583,169.626173 724.129481,171.934953 L725.758412,172.187554 C881.605684,196.859714 983.700202,356.681924 956.655481,527.355171 C932.088955,682.38908 808.183179,797.845285 666.181517,796.995541 L665.683478,797.002572 C665.017594,797.002572 664.348238,797.002572 663.675834,796.976979 L663.318,796.961 L662.549727,796.948391 C651.363835,796.724471 640.175334,795.771654 629.027885,794.084879 L627.268109,793.812446 C625.208739,793.486428 623.15549,793.136065 621.108607,792.761457 L379.857396,768.31971 C374.591776,767.78624 369.668173,766.254125 365.255688,763.930067 L364.766,763.667 L364.451725,763.590405 C330.58532,755.189647 299.069169,740.463725 271.175668,720.252317 L270.334,719.64 L269.929855,719.624581 C262.817831,719.321682 255.70653,718.623967 248.617304,717.528892 L247.199759,717.304578 C150.651589,701.662344 81.7724104,616.974382 70.6021205,515.41906 L32.4929616,513.481934 C29.8067832,513.345559 27.446504,512.17051 25.7510462,510.383871 L25.6017709,510.22282 L25.5500457,510.203683 C5.13476306,502.174065 -5.69771389,477.765708 -0.245295315,453.075778 L-0.0617183934,452.270593 L0.0982620135,451.61016 L0.114225248,451.54521 C6.84906026,424.533263 31.1007513,406.615744 55.0936892,412.597855 C56.324434,412.904714 57.5348113,413.270895 58.7223524,413.695017 L59.1917709,413.86882 L78.3829587,415.342881 C105.623034,314.071693 188.577291,240.765015 283.922081,237.455585 L285.576,237.412 L286.608347,236.694904 C334.921563,203.310984 391.684252,185.15255 449.875886,185.456437 L450.003,185.458 L671.029146,169.108972 C672.911314,168.969756 674.770366,168.9626 676.597699,169.079343 Z M632.335551,212.071987 L451.30702,225.470173 C413.422807,225.00816 376.669569,233.700047 343.383274,249.773464 C342.497124,251.793628 340.939642,253.533705 338.82894,254.626456 C266.84947,291.891607 214.865122,362.353753 200.637126,445.366003 C184.991203,536.651046 218.147605,625.274056 283.232243,679.712242 L284.022403,679.684905 C312.298049,702.77835 346.194754,719.358911 384.039084,727.006585 L383.889236,728.523426 L602.651919,750.686635 C493.553825,705.618511 426.725709,579.06487 448.113939,444.0249 C465.922521,331.585933 540.078393,243.641489 632.335551,212.071987 Z M467.867705,447.15359 C444.936606,591.934852 530.073008,725.273038 657.306519,745.424846 C695.830959,751.526518 733.891484,746.566633 768.873691,732.665361 C843.777448,695.208638 901.861504,617.567156 917.148403,521.094916 C935.926312,402.591688 884.504515,291.165565 796.433121,239.337023 C778.88385,231.064284 760.057128,225.164752 740.205611,222.02058 C612.9721,201.868772 490.798805,302.372327 467.867705,447.15359 Z M852.650845,373.660047 C852.816676,374.371482 852.910442,375.10461 852.920814,375.857455 C858.143335,388.498319 862.652637,400.373833 866.44917,411.488418 C870.817313,424.276427 873.684094,437.215217 875.042777,450.29209 C875.672068,456.348806 870.787848,461.557157 864.703235,461.317795 L845.065369,460.546594 C844.087524,460.852439 843.045676,461.012033 841.965769,461.000013 C840.688069,460.985493 839.469034,460.731996 838.350683,460.282487 L805.580986,458.992325 C806.038957,468.555416 805.867176,478.188876 805.057437,487.839979 L864.88054,495.460422 C870.345409,496.156574 874.217937,501.141499 873.541132,506.608798 C871.532176,522.837329 868.927236,536.399905 865.690831,547.345819 C862.556762,557.945616 857.3386,569.614572 850.055697,582.406668 C849.838826,587.790795 845.376299,592.059318 839.953114,592.000013 C836.955982,591.966561 834.281395,590.618093 832.471771,588.509047 L776.219758,579.917412 C748.512539,627.500331 704.03338,661.603889 653.444282,674.601998 C659.797384,676.473428 666.324422,677.952088 673.006919,679.010492 C767.722524,694.01197 858.825329,619.067966 875.946945,510.966339 C883.891266,460.807873 874.481793,412.516689 852.650845,373.660047 Z M251.418805,677.450601 L249.91694,675.889049 C210.548391,634.727673 185.331392,580.66386 178.609503,521.944284 L110.915998,515.767798 C121.643743,597.505763 176.473237,664.20894 251.418805,677.450601 Z M662.515781,294.121915 L660.323551,294.837059 C612.153633,311.013325 570.815628,349.732572 547.99578,401.563906 L548,458.999305 C548.000384,464.522224 543.523431,468.999717 538.000513,469 L530.298061,469.000176 C529.097186,480.769554 528.842807,492.399312 529.469793,503.789527 L540.787108,507.072953 C545.060284,508.313073 548,512.227402 548,516.676889 L547.997521,579.593205 C563.717372,613.828932 588.511927,642.107145 619.506444,660.017356 C619.786223,659.966395 620.068307,659.932337 620.354137,659.910089 C676.520445,655.538188 727.950811,622.130593 758.165674,571.165162 C757.933532,570.31889 757.810034,569.430179 757.810034,568.516128 L757.810034,495.835909 C757.810034,490.313061 762.287186,485.835909 767.810034,485.835909 L785.155052,485.835701 C785.916033,476.58236 786.032031,467.352858 785.512473,458.202335 L767.416949,457.490664 C762.051183,457.27958 757.810034,452.868309 757.810034,447.498392 L757.810034,378.116185 C757.810034,375.902298 758.530697,373.852115 759.753222,372.191872 C737.737465,334.617944 703.579565,306.756794 663.086916,294.316092 C662.89339,294.256634 662.702974,294.191838 662.515781,294.121915 Z M788.065034,505.835909 L777.810034,505.835909 L777.810725,559.666804 C777.943667,559.770464 778.073444,559.877082 778.200011,559.986512 L830.217353,567.932677 L830.843353,511.285677 L788.065034,505.835909 Z M850.817353,513.829677 L850.707572,523.748625 C851.277039,520.693461 851.817226,517.480587 852.327637,514.110692 L852.340034,514.023909 L850.817353,513.829677 Z M109.18578,495.527065 L177.039217,501.719112 C176.532752,489.404208 176.835057,476.931002 177.984311,464.37198 L110.708003,458.233813 C109.175278,470.838189 108.692536,483.308789 109.18578,495.527065 Z M19.5201398,456.383648 L19.3916699,456.913997 C15.4289091,473.765504 22.9926141,489.292436 35.2119727,492.339064 L35.1737709,492.32882 L35.5518341,492.41906 C36.6397158,492.677235 37.6451589,493.104963 38.5458616,493.668177 L38.7067709,493.77082 L69.1603103,495.318915 C68.596095,478.646536 69.5791793,461.625148 72.2349972,444.472625 C72.7244311,441.311631 73.2668785,438.171952 73.8611949,435.054698 L56.1530219,433.6932 C55.204545,433.620228 54.272034,433.412348 53.3835265,433.076408 L53.0055135,432.924613 C52.1181097,432.547102 51.200996,432.23957 50.2552513,432.00377 C37.8897051,428.920693 23.7656736,439.355742 19.5201398,456.383648 Z M136.543716,438.994819 L134.136353,440.285677 L180.502305,444.518274 C180.57548,444.067397 180.64976,443.616458 180.725148,443.165462 L136.543716,438.994819 Z M852.263119,434.727032 L852.193353,440.809677 L853.506034,440.861778 L853.34976,440.004013 C853.019026,438.242715 852.656821,436.483737 852.263119,434.727032 Z M832.809353,385.948677 L777.810034,387.786778 L777.810034,437.883778 L793.683488,438.508326 L793.757764,438.5005 C794.746978,438.399933 795.717149,438.447168 796.64633,438.624309 L832.200353,440.023677 L832.809353,385.948677 Z M269.656456,278.804295 L269.441096,278.835315 C199.023321,288.723812 137.712561,346.839379 116.677957,426.953593 L129.749195,419.94403 C131.484469,419.012995 133.45601,418.615033 135.416564,418.800053 L184.727043,423.453399 C198.262354,366.92179 228.295203,316.692399 269.656456,278.804295 Z M698.266693,287.019832 L698.190024,287.025972 C732.550761,304.508258 761.071398,332.600152 780.184431,367.696718 L841.66268,365.642359 C843.21912,365.59034 844.726933,365.901095 846.088276,366.511913 C847.474999,366.973969 848.7254,367.731564 849.766007,368.708985 C824.311192,326.404571 783.748509,296.176846 734.86801,288.434935 C722.554982,286.484743 710.30301,286.054629 698.266693,287.019832 Z M512.802848,449.569932 C513.196368,447.310881 513.620373,445.061831 514.07461,442.823181 C514.089682,442.749614 514.104697,442.6758 514.119743,442.602 C514.332707,441.5566 514.552426,440.513423 514.778714,439.472575 C514.802019,439.36657 514.825138,439.260587 514.848323,439.154635 C515.334533,436.931168 515.850989,434.718407 516.397169,432.516867 C516.414903,432.447762 516.432059,432.378756 516.449243,432.309764 C519.601297,419.649358 523.737274,407.360897 528.806434,395.549561 C528.86643,395.409769 528.928504,395.272532 528.992586,395.137837 C566.151472,309.016065 650.254695,254.7842 737.9967,268.681168 C844.187225,285.500095 914.471961,395.578028 895.700712,514.095028 C876.929463,632.612028 776.068756,715.583185 669.87823,698.764258 C606.163915,688.672902 555.375684,645.008304 528.993979,586.091571 L528.866764,585.817086 C518.665003,562.955359 512.260259,538.084268 510.028661,512.313114 C510.018122,512.19141 510.009766,512.070182 510.003554,511.94946 C508.505104,494.381001 508.936633,476.266596 511.493459,457.922977 L511.53761,457.607531 L511.554353,457.489677 L511.556353,457.475677 L511.559353,457.453677 L511.563353,457.423677 L511.568353,457.387677 L511.584353,457.278677 L511.581353,457.293677 L511.590353,457.235677 L511.741482,456.188277 C511.880174,455.242171 512.024418,454.296198 512.174218,453.350399 L512.186353,453.271677 L512.679353,450.291677 L512.699353,450.173677 L512.802848,449.569932 Z" id="Combined-Shape" fill="#000000" fill-rule="nonzero"></path>
        <path d="M707.927404,499.386576 C720.290858,501.344755 732.103997,491.626899 734.312789,477.681137 C736.521581,463.735376 728.2896,450.842685 715.926146,448.884506 C703.562692,446.926327 691.749553,456.644183 689.540761,470.589945 C687.331969,484.535707 695.56395,497.428398 707.927404,499.386576 Z" id="Oval" fill="#000000"></path>
        <path d="M544.647372,506.909355 C558.1699,509.051113 571.090521,498.422208 573.506387,483.169031 C575.922253,467.915855 566.918524,453.814474 553.395996,451.672716 C539.873468,449.530958 526.952847,460.159863 524.536981,475.413039 C522.121115,490.666216 531.124844,504.767597 544.647372,506.909355 Z" id="Oval" fill="#000000"></path>
    </g>
</svg>