<?xml version="1.0" encoding="UTF-8"?>
<svg width="960px" height="960px" viewBox="0 0 960 960" version="1.1" xmlns="http://www.w3.org/2000/svg" xmlns:xlink="http://www.w3.org/1999/xlink">
    <title>no.ensy/drivers/airco/ assets/icon</title>
    <g id="no.ensy/drivers/airco" stroke="none" stroke-width="1" fill="none" fill-rule="evenodd">
        <path d="M255.69357,1.17603061 L735.748528,46.3623713 C756.296909,48.2965376 772.00002,65.5471704 772,86.1863797 L771.999,739.009 L875.207525,747.312062 C895.780185,748.967075 911.679283,765.990183 912,786.558885 L912,856.030975 C912,876.368005 896.74014,893.467859 876.53419,895.773158 L342.140619,956.742183 C336.4295,957.393765 330.645033,956.806788 325.181222,955.021234 L53.5747932,866.261199 C37.126766,860.886042 26,845.544009 26,828.239965 L26,86.1863406 C26,67.7332996 38.623343,51.6749892 56.5545289,47.3175476 L242.499571,2.13120692 C246.814076,1.08274287 251.273039,0.759937354 255.69357,1.17603061 Z M872,794.363999 L346.968,843.109999 L346.968,915.931999 L872,856.030975 L872,794.363999 Z M66,772.788999 L66,828.239965 L326.968,913.522999 L326.968,842.552999 L66,772.788999 Z M794.186408,807.223467 C807.49245,811.291532 813.420411,826.696581 809.034471,841.042345 C804.648531,855.388108 791.119635,864.844599 777.813592,860.776533 C764.50755,856.708468 758.579589,841.303419 762.965529,826.957655 C767.351469,812.611892 780.880365,803.155401 794.186408,807.223467 Z M785.924586,827.112145 C784.301914,828.246368 782.865457,830.273998 782.091624,832.80509 C781.317792,835.336182 781.374833,837.820419 782.08584,839.66812 C782.561345,840.903819 783.141066,841.49147 783.661026,841.650438 C784.180987,841.809406 784.990208,841.646397 786.075414,840.887855 C787.698086,839.753632 789.134543,837.726002 789.908376,835.19491 C790.682208,832.663818 790.625167,830.179581 789.91416,828.33188 C789.438655,827.096181 788.858934,826.50853 788.338974,826.349562 C787.819013,826.190594 787.009792,826.353603 785.924586,827.112145 Z M837.50846,817.524343 C842.468502,819.04078 844.918618,825.407921 842.980949,831.745752 C841.04328,838.083582 835.451581,841.992094 830.49154,840.475657 C825.531498,838.95922 823.081382,832.592079 825.019051,826.254248 C826.95672,819.916418 832.548419,816.007906 837.50846,817.524343 Z M731.999,775.640999 L306.765,815.329999 L337.86,823.869999 L797.535,781.191999 L731.999327,775.920592 L731.999,775.640999 Z M261.29,41.8799992 L261.29,799.486999 L731.999,755.553999 L732,86.1863406 L261.29,41.8799992 Z M241.29,43.5889992 L66,86.1863406 L66,752.085999 L241.29,798.946999 L241.29,43.5889992 Z" id="Combined-Shape" fill="#000000" fill-rule="nonzero"></path>
    </g>
</svg>