<svg height="960" viewBox="0 0 960 960" width="960" xmlns="http://www.w3.org/2000/svg"><path d="m274.555121 59.0509624 534.811476 15.2762398c81.141748 2.3177154 145.717179 68.7640028 145.717179 149.9388458v500.116731c0 80.587199-63.675907 146.773456-144.2029 149.887937l-534.811475 20.684491c-1.931465.074702-3.864192.112063-5.797101.112063-11.171666 0-22.209389-1.228348-32.941677-3.706398-19.915368-2.031466-35.986707-4.130747-48.443506-6.34878-12.000681-2.136819-27.740893-5.647991-47.469842-10.569642-75.7359892-7.929773-133.95974638-71.984482-133.95974638-148.992706v-499.979683c0-1.359677.01848723-2.719291.05545655-4.078466 2.04481387-75.177446 59.33716453-136.7400014 133.15326483-144.8486739 16.041774-4.0207844 31.096013-7.1339336 45.216742-9.3572871 15.995844-2.5185963 35.843935-4.5447907 59.729008-6.1252608 9.499365-1.6264752 19.184876-2.2881432 28.943121-2.0094108zm640.528408 631.5471176-754.812 13.737.000771 40.73219c0 52.768997 37.157012 96.859509 86.734401 107.534901l.564828.118909 1.311.267.091.018.059.012.07.013 1.49637.281908-.75037-.138908.014917.003525c.287899.054013.576194.106905.864879.158671l1.550204.265804.412006-.016766c1.394674-.056314 2.734146.175808 3.960833.643253l.881309.108919.034852.003594.518.057 1.132.119.392.039.027.003.026.002-.015-.001.085.008.478918.045259.274082.023741-.679-.063-.074-.006-.07-.007.144.013 1.031.093.327.027.391.031 1.211.089.232.016.445.027 1.153.065.337.017.179.008 1.238.05.22.008.329.01 1.175.029.472.009.747611.009931c.325717.002837.651773.004259.97816.004259 1.417466 0 2.8348-.027398 4.251207-.08218l534.811476-20.684491c59.053128-2.283952 105.748793-50.820541 105.748793-109.91782zm-725.570869-583.483934-.317348.054236c-12.678557 2.095842-26.295809 4.98657-40.853001 8.670418-55.2050931 4.521584-99.3034181 49.996796-100.8441142 106.640386-.0271109.996728-.0406682 1.993779-.0406682 2.990875v499.979683c0 57.934485 44.7875599 105.408275 101.6293774 109.683174 2.155396.540376 4.260724 1.063336 6.315982 1.568879-25.309143-24.851663-41.088023-60.084983-41.088023-99.109981v-41.916723c0-5.253306 4.064836-9.610986 9.305455-9.975852l16.479912-1.147373.171297-.009788.000771-475.552272.013251-1.856077c.008834-.618647.022084-1.237229.03975-1.855701 1.140501-39.928213 20.169019-75.136014 49.187359-98.163884zm147.145635 621.045375c22.982656 1.179191 39.668377 21.751722 37.503789 45.488013-2.138025 23.444115-21.894313 41.636452-44.554288 40.456935-22.977857-1.195478-39.661308-21.762404-37.496442-45.484105 2.138194-23.43033 21.891327-41.622509 44.546941-40.460843zm91.51514-2.962275c22.984474 1.181303 39.666801 21.771799 37.503 45.52428-2.137408 23.461876-21.892226 41.671294-44.555248 40.489628-22.979672-1.197591-39.659731-21.782482-37.495654-45.520371 2.137577-23.448091 21.889243-41.657349 44.547902-40.493537zm91.51514-2.962276c22.986292 1.183416 39.665226 21.791871 37.502211 45.56055-2.136793 23.47964-21.890139 41.706134-44.556208 40.522319-22.981486-1.199704-39.658156-21.802554-37.494865-45.556638 2.136961-23.465856 21.887158-41.692189 44.548862-40.526231zm91.51514-2.962275c22.988109 1.185528 39.663654 21.811937 37.501422 45.596821-2.13618 23.497408-21.888053 41.740973-44.557169 40.555008-22.983299-1.201817-39.656582-21.822621-37.494075-45.592907 2.136347-23.483624 21.885073-41.727027 44.549822-40.558922zm-470.932186-14.684615-5.956664.414994v32.588742c0 24.918199 7.473909 47.981578 20.188094 66.883301l.45357.669963-.434076-.840828c-9.110069-17.764937-14.250153-37.900694-14.250153-59.236982zm562.447326 11.72234c22.989925 1.18764 39.662084 21.831998 37.500632 45.633094-2.135567 23.515178-21.885965 41.77581-44.558128 40.587695-22.985112-1.20393-39.655011-21.842684-37.493285-45.629178 2.135734-23.501395 21.882986-41.761863 44.550781-40.591611zm91.515141-2.962275c22.991739 1.189753 39.660515 21.852054 37.499841 45.669368-2.134957 23.532952-21.883877 41.810647-44.559086 40.620381-22.986925-1.206044-39.653443-21.862741-37.492497-45.665451 2.135123-23.519168 21.880901-41.796699 44.551742-40.624298zm-459.994473 34.763338-.343139.010121c5.516524 6.333705 8.526045 15.102815 7.65835 24.617732-.762981 8.366325-4.391187 15.852611-9.753193 21.41714 11.203297-.077523 21.296657-9.753177 22.443193-22.325303 1.159312-12.712713-7.278853-23.116484-18.610921-23.697908-.466388-.023914-.931336-.031017-1.39429-.021782zm91.166982-2.952422c5.516711 6.340384 8.53076 15.124076 7.662494 24.655209-.763436 8.380078-4.39552 15.878048-9.762798 21.449264 11.204639-.071767 21.305229-9.760802 22.452712-22.356487 1.160101-12.734657-7.281459-23.153821-18.611709-23.736148-.582833-.029935-1.163428-.033572-1.740699-.011838zm91.513815-2.962404-.014262.00095c5.528521 6.349035 8.545891 15.145909 7.677207 24.691596-.763874 8.393647-4.399685 15.903151-9.77203 21.481014 11.205942-.06595 21.313447-9.768256 22.461858-22.387297 1.160886-12.756595-7.284066-23.191158-18.612498-23.774386-.582681-.029979-1.163135-.033628-1.740275-.011877zm91.513814-2.962403-.023671.00084c5.534793 6.356733 8.556267 15.167709 7.687067 24.729043-.764331 8.407444-4.404042 15.928666-9.781688 21.513218 11.2075-.060412 21.322085-9.776052 22.471431-22.418564 1.161669-12.778526-7.286671-23.228493-18.613288-23.812622-.582528-.030022-1.162841-.033685-1.739851-.011915zm91.513814-2.962404-.032482.001405c5.540685 6.364377 8.566015 15.189172 7.69633 24.765815-.764791 8.421265-4.408412 15.954218-9.791371 21.545461 11.208476-.054322 21.330713-9.783503 22.481029-22.44987 1.162449-12.80045-7.289277-23.265827-18.614078-23.850857-.582376-.030066-1.162548-.033741-1.739428-.011954zm91.513815-2.962404-.041567.001642c5.546749 6.372042 8.576049 15.210796 7.705865 24.802916-.765249 8.435094-4.412782 15.979788-9.801057 21.577718 11.210658-.049392 21.339415-9.791716 22.490631-22.481194 1.163227-12.822367-7.291882-23.303159-18.614868-23.889089-.582224-.03011-1.162255-.033797-1.739004-.011993zm-521.796093-634.3191815-1.46799.0168632-.555151.0119522-.986.027-.022.001.015-.001h.007l.338-.011-.136675.0043391-.208325.0066609-.128.004-.025.001-.019.001-.025.001-.521566.0181426c-.454997.0175177-.908685.037782-1.361682.0608014l.268248-.012944-.534.027-.096.005-.019.001-.023.001.015-.001h.008l.009-.001h.01l.028947-.0016421-.038947.0016421-.017.001-.081.005-1.199.073-.446.03-.128.009-.201.015.153-.012.048-.003.049802-.0037785-.097802.0067785-.158.012-.012.001-.016.001-.014.001-.081.006-.181286.0132832-.105714.0077168.287-.021.055-.004.026-.002h.006l.008-.001h.005l.011-.001h.003l.009-.001h.005l-.028.002-.013.001-.032.002-.995.078-.192.015-.282.025-1.345.126-.284745.0280231.133432-.0135492-.784441.082014-.212246.0235121-.057842.0060429-.185158.0209571-.327611.0370137.111611-.0120137-.238.027-.471.056-1.22.154-.152.02-.039.005-.314.0440001-1.087.154-.278.041-.337.052-1.223.194-.325.053-.186.032-.981.171-.423.077-1.319276.249268c-49.350971 9.659919-87.225014 52.437491-88.721106 104.814725-.029896 1.046645-.044847 2.093663-.044847 3.140735l-.000771 475.343272 754.812-13.737.000247-446.330032c0-59.528218-47.355316-108.255496-106.859265-109.955154l-534.811475-15.2762394-1.658252-.0351109-.316226-.0039104c-.591675-.0064834-1.182803-.0082633-1.772888-.0053688zm215.976687 16.3259795 137.293448 2.528936c41.893508.771676 75.801831 35.315217 75.801831 77.220447 0 42.049067-34.132813 75.563856-76.170167 74.789531l-137.293448-2.528936c-41.893508-.771676-75.801831-35.315218-75.801831-77.220447 0-42.049067 34.132813-75.563856 76.170167-74.789531zm-56.170167 74.789531c0 31.003742 25.177553 56.652957 56.170167 57.223839l137.293448 2.528936c30.848768.568232 55.801831-23.933019 55.801831-54.792923 0-31.003742-25.177553-56.652957-56.170167-57.223839l-137.293448-2.528936c-30.848768-.568233-55.801831 23.933019-55.801831 54.792923zm190.853474-45.701328c27.501006.506567 49.744928 23.15015 49.744928 50.644814 0 27.638588-22.468499 49.683047-50.113264 49.173832l-5.090685-.35018c-25.103921-3.005784-44.654244-24.518387-44.654244-50.294634 0-27.638588 22.468499-49.683046 50.113265-49.173832zm-130.02552-2.395061c27.501006.506567 49.744929 23.15015 49.744929 50.644814 0 27.638588-22.468499 49.683046-50.113265 49.173831l-5.090685-.350179c-25.103921-3.005785-44.654243-24.518387-44.654243-50.294635 0-27.638588 22.468499-49.683046 50.113264-49.173831zm99.912255 51.568893c0 16.58983 13.509809 30.342371 30.113265 30.648206l3.046524-.09703c15.021931-1.242422 26.698404-13.662157 26.698404-29.080194 0-16.58983-13.509808-30.342371-30.113264-30.648206-16.459697-.303186-29.744929 12.731318-29.744929 29.177224zm-130.025519-2.395062c0 16.58983 13.509808 30.342372 30.113264 30.648206l3.046524-.09703c15.021931-1.242422 26.698405-13.662156 26.698405-29.080193 0-16.58983-13.509809-30.342372-30.113265-30.648206-16.459696-.303187-29.744928 12.731317-29.744928 29.177223z"/></svg>