<svg height="960" viewBox="0 0 960 960" width="960" xmlns="http://www.w3.org/2000/svg"><g fill="#000" fill-rule="nonzero"><path d="m30.8368479 105.112903c0-9.53405 1.1572328-17.1272399 3.4716982-22.7795697 2.3144654-5.6523297 6.5519792-11.219534 12.7125416-16.7016129 6.1605623-5.4820788 10.2619312-9.9426523 12.3041065-13.3817204 2.0421754-3.4390681 3.0632631-7.0654122 3.0632631-10.8790323 0-11.5089605-5.309656-17.2634408-15.9289678-17.2634408-5.0373659 0-9.0706623 1.5492831-12.0998891 4.6478494-3.0292267 3.0985664-4.6119126 7.3718638-4.7480577 12.8198925h-29.6115427c.13614502-13.0071684 4.33962264-23.188172 12.6104329-30.5430107 8.2708102-7.35483875 19.553829-11.0322581 33.8490566-11.0322581 14.4313725 0 25.6293007 3.49014337 33.5937846 10.4704301 7.9644839 6.9802867 11.9467259 16.8378136 11.9467259 29.5725807 0 5.7885304-1.2933777 11.2535842-3.8801332 16.3951612-2.5867554 5.1415771-7.1135775 10.8449821-13.5804661 17.1102151l-8.2708102 7.8655914c-5.173511 4.9713262-8.1346652 10.7939068-8.8834629 17.4677419l-.408435 6.2311826zm-2.9611542 31.360215c0-4.562724 1.5486496-8.325269 4.6459489-11.287634 3.0972993-2.962366 7.0625231-4.443549 11.8956715-4.443549 4.8331483 0 8.7983722 1.481183 11.8956715 4.443549 3.0972993 2.962365 4.6459489 6.72491 4.6459489 11.287634 0 4.494624-1.5146134 8.206093-4.5438402 11.134409-3.0292267 2.928315-7.0284868 4.392473-11.9977802 4.392473s-8.9685535-1.464158-11.9977802-4.392473c-3.0292268-2.928316-4.5438402-6.639785-4.5438402-11.134409z" transform="translate(441 414)"/><path d="m684 54c58.542183 0 106 47.457817 106 106s-47.457817 106-106 106c-15.747614 0-30.693176-3.433993-44.128704-9.593998-2.357903 3.949923-4.466945 7.48394-6.551464 10.976863l-.776792 1.301631-.777106 1.302159c-7.910958 13.255996-16.272158 27.266441-37.327486 62.547799 47.089286 32.07989 78.846672 84.992871 82.016671 145.478204l74.153144.000699c1.061428-57.739998 48.199044-104.220087 106.192666-104.220087 58.658688 0 106.210951 47.552262 106.210951 106.210951 0 58.658688-47.552263 106.210951-106.210951 106.210951-52.519639 0-96.135935-38.119742-104.690194-88.20053l-75.655668-.000103c-3.185541 60.775747-35.233653 113.906158-82.694187 145.941083l42.407653 61.86964c14.513054-7.465272 30.972689-11.679101 48.416516-11.679101 58.539016 0 105.994264 47.455248 105.994264 105.994263s-47.455248 105.994263-105.994264 105.994263c-58.539015 0-105.994263-47.455248-105.994263-105.994263 0-33.921457 15.934646-64.121178 40.726953-83.522178l-42.738335-62.353116c-26.224162 13.889183-56.128557 21.755279-87.870177 21.755279-34.877377 0-67.536599-9.497049-95.532708-26.046189-14.947521 25.17462-22.219509 37.422178-28.814949 48.530287l-.484508.816014c-.080582.135718-.161089.271307-.241532.40679l-.789665 1.329963c-.28054.472487-.560826.944549-.841414 1.417118l-.561743.946093c-2.043059 3.440942-4.121535 6.941534-6.447979 10.859755 26.560001 19.260072 43.83294 50.542972 43.83294 85.860184 0 58.539015-47.455248 105.994263-105.994264 105.994263-58.539015 0-105.994263-47.455248-105.994263-105.994263s47.455248-105.994263 105.994263-105.994263c16.064049 0 31.293444 3.573579 44.936579 9.969133 2.570605-4.328701 4.839111-8.149342 7.090453-11.941076l.788333-1.327719c.248391-.418343.496981-.83702.746153-1.256679l.499237-.840819c.269791-.454386.54056-.910418.812788-1.368907l.409498-.689681.41205-.693979c6.339513-10.677074 13.706757-23.085064 27.977691-47.120322-43.387004-32.314884-72.356424-82.905865-75.516622-140.374124l-93.598586-.000942c-8.751984 49.721796-52.159818 87.498954-104.390979 87.498954-58.5421835 0-106-47.457817-106-106s47.4578165-106 106-106c58.542183 0 106 47.457817 106 106l-.013-1.5 91.9514.000437c3.209385-64.401282 38.824471-120.269823 90.873832-151.634198l-49.771994-72.868061c-14.664633 7.666449-31.346145 12.001822-49.040238 12.001822-58.542183 0-106-47.457817-106-106s47.457817-106 106-106 106 47.457817 106 106c0 33.674143-15.702291 63.680819-40.184302 83.097459l50.76377 74.322028c24.051728-11.17524 50.862209-17.4137 79.129759-17.4137 32.047274 0 62.22177 8.018317 88.626723 22.158188 20.325561-34.057429 28.802237-48.261372 36.489776-61.142996l.501787-.84082c.250446-.419659.500305-.838335.749965-1.256678l.792361-1.32772c2.134012-3.575858 4.283368-7.177425 6.689589-11.20941-26.971146-19.216111-44.559428-50.747249-44.559428-86.386351 0-58.542183 47.457817-106 106-106zm-391.166595 680.146161c-36.447625 0-65.994263 29.546638-65.994263 65.994263s29.546638 65.994263 65.994263 65.994263c36.447626 0 65.994264-29.546638 65.994264-65.994263s-29.546638-65.994263-65.994264-65.994263zm391.751644 0c-36.447625 0-65.994263 29.546638-65.994263 65.994263s29.546638 65.994263 65.994263 65.994263c36.447626 0 65.994264-29.546638 65.994264-65.994263s-29.546638-65.994263-65.994264-65.994263zm-195.875822-394.140374c-81.74218 0-148.00731 66.26513-148.00731 148.007311 0 81.74218 66.26513 148.007311 148.00731 148.007311 81.742181 0 148.007311-66.265131 148.007311-148.007311 0-81.742181-66.26513-148.007311-148.007311-148.007311zm368.091702 73.787483c-36.567299 0-66.210952 29.643652-66.210952 66.210951 0 36.567298 29.643653 66.210951 66.210952 66.210951 36.567298 0 66.210951-29.643653 66.210951-66.210951 0-36.567299-29.643653-66.210951-66.210951-66.210951zm-753.800929.20673c-36.4507935 0-66 29.549207-66 66s29.5492065 66 66 66c36.450793 0 66-29.549207 66-66s-29.549207-66-66-66zm581-320c-36.450793 0-66 29.549207-66 66s29.549207 66 66 66 66-29.549207 66-66-29.549207-66-66-66zm-391 0c-36.450793 0-66 29.549207-66 66s29.549207 66 66 66 66-29.549207 66-66-29.549207-66-66-66z"/></g></svg>