<svg height="960" viewBox="0 0 960 960" width="960" xmlns="http://www.w3.org/2000/svg"><path d="m188.4013.97277253 624.881279 21.51785857c21.54282.7418295 38.623411 18.4207164 38.623411 39.9763055v834.4033224c0 21.541682-17.05932 39.214401-38.587569 39.975055l-624.881278 22.078819c-3.269038.115505-6.539901-.170419-9.739316-.851367l-31.118722-6.623148c-18.468658-3.930775-31.673115-20.24136-31.673115-39.123689v-863.840193c0-18.4645844 12.638814-34.52979 30.584583-38.87608413l31.118721-7.53665794c3.530685-.85509824 7.1614-1.22524172 10.792006-1.1002214zm-1.376588 39.97630607-.000001 877.9999994 624.881279-22.078819v-834.4033224zm-20.000722 4.8429992-11.118 2.6936582v863.840193l11.118 2.365149zm63.900517 21.9869759 538.308894 16.5232024c10.801698.3315543 19.386396 9.1838004 19.386396 19.9905849v750.789017c0 10.799824-8.574029 19.649004-19.368468 19.990026l-538.308894 17.006447c-11.287547.356601-20.631532-8.696847-20.631532-19.990026v-784.3186663c0-11.2861285 9.332788-20.3368457 20.613604-19.990585zm-.613604 19.990585v784.3186663l538.308894-17.006447v-750.789017zm136.993624 121.9178433 271.528877 6.193662c5.432618.123867 9.772054 4.563372 9.772054 9.997402v505.067298c0 5.450446-4.364753 9.897038-9.814258 9.998275l-271.528878 5.046055c-5.594563.10217-10.185741-4.404509-10.185741-10.000037v-516.3026c0-5.612085 4.617319-10.125327 10.227946-10.000055zm9.772054 20.23066v495.884495l251.528877-4.672745v-485.476753z"/></svg>