<svg xmlns="http://www.w3.org/2000/svg" viewBox="0 0 566.21 1417.32"><title>1keywe_learn1</title><g id="Layer_1" data-name="Layer 1"><path d="M525.92,0H40.29A40.34,40.34,0,0,0,0,40.29V1377a40.34,40.34,0,0,0,40.29,40.29H525.92A40.34,40.34,0,0,0,566.21,1377V40.29A40.34,40.34,0,0,0,525.92,0Zm24,40.29v660a45.08,45.08,0,0,1-23.27,11v-695A24,24,0,0,1,549.9,40.29ZM522.55,1401H43.66V715.79a66.59,66.59,0,0,0,7.47.42H516.64c2.05,0,4-.09,5.91-.25Zm-5.91-688.88H51.14a62,62,0,0,1-7.47-.45V16.31H522.55V711.85C520.67,712,518.71,712.14,516.64,712.14ZM39.58,16.34V711a43.88,43.88,0,0,1-23.27-12.18V40.29A24,24,0,0,1,39.58,16.34ZM16.31,1377V704.44a48.67,48.67,0,0,0,23.27,10.77V1401A24,24,0,0,1,16.31,1377Zm510.32,24V715.46a49.54,49.54,0,0,0,23.27-9.74V1377A24,24,0,0,1,526.63,1401Z"/><path d="M237.91,883.6h91.87a27.34,27.34,0,0,0,27.31-27.31V777.73a27.34,27.34,0,0,0-27.31-27.31H237.91a27.34,27.34,0,0,0-27.31,27.31v78.57A27.34,27.34,0,0,0,237.91,883.6ZM218.75,777.73a19.18,19.18,0,0,1,19.16-19.16h91.87a19.18,19.18,0,0,1,19.16,19.16v78.57a19.18,19.18,0,0,1-19.16,19.16H237.91a19.18,19.18,0,0,1-19.16-19.16Z"/><path d="M283.11,927.53C161.71,927.53,63,1026.29,63,1147.68s98.76,220.15,220.15,220.15,220.15-98.76,220.15-220.15S404.5,927.53,283.11,927.53Zm0,432.15c-116.9,0-212-95.1-212-212s95.1-212,212-212,212,95.1,212,212S400,1359.68,283.11,1359.68Z"/><path d="M283.11,983.44c-90.56,0-164.24,73.68-164.24,164.24s73.68,164.24,164.24,164.24,164.24-73.68,164.24-164.24S373.67,983.44,283.11,983.44Zm0,320.33c-86.07,0-156.09-70-156.09-156.09S197,991.6,283.11,991.6s156.09,70,156.09,156.09S369.17,1303.77,283.11,1303.77Z"/><path d="M357.27,1015.57l-25.2-11.26a24.22,24.22,0,0,0-32,12.23L196.71,1247.8a24.25,24.25,0,0,0,12.23,32l25.2,11.26a24.23,24.23,0,0,0,32-12.23L369.5,1047.56a24.22,24.22,0,0,0-12.23-32Zm4.79,28.67L258.7,1275.5a16.09,16.09,0,0,1-21.23,8.11l-25.2-11.26a16.09,16.09,0,0,1-8.11-21.23l103.35-231.27a16.07,16.07,0,0,1,21.23-8.11l25.2,11.26a16.07,16.07,0,0,1,8.11,21.23Z"/><circle cx="264.13" cy="801.36" r="4.9"/><circle cx="283.84" cy="801.36" r="4.9"/><circle cx="303.55" cy="801.36" r="4.9"/><circle cx="264.13" cy="816.31" r="4.9"/><circle cx="283.84" cy="816.31" r="4.9"/><circle cx="303.55" cy="816.31" r="4.9"/><circle cx="264.13" cy="832.65" r="4.9"/><circle cx="283.84" cy="832.65" r="4.9"/><circle cx="303.55" cy="832.65" r="4.9"/></g></svg>