<?xml version="1.0" encoding="utf-8"?>
<!-- Generator: Adobe Illustrator 21.0.0, SVG Export Plug-In . SVG Version: 6.00 Build 0)  -->
<svg version="1.1" id="Layer_1" xmlns="http://www.w3.org/2000/svg" xmlns:xlink="http://www.w3.org/1999/xlink" x="0px" y="0px"
	 viewBox="0 0 158 162.2" style="enable-background:new 0 0 158 162.2;" xml:space="preserve">
<title>logo</title>
<polygon points="158,159.4 158,147.6 158,67.7 145.5,67.7 143.9,67.7 143.9,148.1 14.1,148.1 14.1,70.2 76.3,20 112.3,46.2 
	121.2,34 115.6,29.9 78.1,1.4 78,1.5 76.8,0 18.2,47.7 0,62.2 0,68.3 0,147.6 0,159.4 0,162.2 158,162.2 "/>
<circle cx="48.8" cy="75.8" r="7.4"/>
<circle cx="78.6" cy="75.8" r="7.4"/>
<circle cx="108.4" cy="75.8" r="7.4"/>
<circle cx="48.8" cy="98.4" r="7.4"/>
<circle cx="78.6" cy="98.4" r="7.4"/>
<circle cx="108.4" cy="98.4" r="7.4"/>
<circle cx="48.8" cy="123.1" r="7.4"/>
<circle cx="78.6" cy="123.1" r="7.4"/>
<circle cx="108.4" cy="123.1" r="7.4"/>
</svg>
