<svg height="960" viewBox="0 0 960 960" width="960" xmlns="http://www.w3.org/2000/svg"><path d="m291.16248 2.42405094.35552.07994906.49756-.01370655c1.358713-.02524732 2.721934.00359927 4.086996.08706257l.819238.05663615 412 31.77603403c26.566492 2.0489751 47.078206 24.2035975 47.078206 50.8489875v790.1302733c0 26.717591-20.61952 48.906605-47.26538 50.863077l-412 30.251087c-1.242783.091252-2.488492.136923-3.73462.136923-.604495 0-1.208002-.010606-1.810299-.031766l-.149701-.007608-.348224.06991c-2.892398.545949-5.966963.456948-9.044417-.400327l-.384683-.11117-42.319121-12.672545c-20.738069-6.210056-34.943555-25.292644-34.943555-46.940562v-834.4424217c0-21.7861653 14.384205-40.9558759 35.301741-47.0463357l42.107133-12.2601346c3.3263-.96850312 6.65237-1.03681265 9.753606-.37336306zm-18.36906 59.84975736c-.039619.525412-.05945 1.052129-.05945 1.5790326v831.2692581c0 11.59798 9.40202 21 21 21 .501701 0 1.00324-.017978 1.503652-.053901l267.149378-19.178707 143.418506-10.529737c5.747147-.421984 10.194494-5.20785 10.194494-10.970467v-790.1302733c0-5.7470449-4.424095-10.5254929-10.154123-10.9674287l-246.034877-18.9760939-164.497997-12.4032007c-11.565147-.8720756-21.647508 7.7963712-22.519583 19.3615179zm-18.415389-9.9448129-3.894038 1.1337252c-3.754678 1.0932319-6.363282 4.48082-6.483993 8.3690986v834.7144868c0 3.976148 2.609171 7.481114 6.418204 8.621736l3.865312 1.157818c-1.009356-3.56107-1.549546-7.319331-1.549546-11.203761v-831.2692581c0-1.0287166.038717-2.0570688.116068-3.0828731.219988-2.9173956.740166-5.7403792 1.527993-8.4409724zm159.5344 121.2242456 194 10.746198c15.369533.851361 27.396069 13.562516 27.396069 28.955611v530.074832c0 15.274971-11.848599 27.93124-27.090419 28.937061l-194 12.802229c-.635663.041947-1.272536.062939-1.909581.062939-16.016258 0-29-12.983743-29-29v-553.623259c0-.534951.014802-1.069799.044389-1.603931.885827-15.991742 14.5678-28.237506 30.559542-27.35168zm-10.590155 28.45784c-.009183.165765-.013776.331752-.013776.497771v553.623259c0 4.970562 4.029437 9 9 9 .197703 0 .395354-.006515.592628-.019533l194-12.802229c4.73022-.312151 8.407372-4.239959 8.407372-8.980467v-530.074832c0-4.777167-3.732373-8.722009-8.502229-8.986224l-194-10.746198c-4.962954-.274911-9.209084 3.525498-9.483995 8.488453zm203.65781 457.134241c.013274.257342.019914.514984.019914.772669v63.046985c0 7.874895-6.08967 14.409024-13.945065 14.962858l-161 11.351071c-8.263759.582625-15.435168-5.644165-16.017793-13.907923-.024754-.3511-.037142-.702963-.037142-1.054934v-66.093712c0-7.983977 6.253953-14.568821 14.22733-14.980086l161-8.304345c8.273274-.426734 15.326023 5.934144 15.752756 14.207417zm-19.980086 6.036549-151 7.788v55.981l151-10.646zm-155.988445-446.964893.312384.003575.093061.002938.22062.007323 161 6.849984c8.029009.341606 14.36238 6.950169 14.36238 14.986441l.001101 182.570751c.633683 1.305238.991942 2.769391.998897 4.317258.007042 1.579907-.35268 3.075879-.999196 4.407224l-.000802 183.413244c0 7.983978-6.253953 14.568821-14.22733 14.980086l-161 8.304345c-.257343.013274-.514985.019914-.77267.019914-8.284271 0-15-6.715729-15-15l.000318-195.21846c-.000143-.015695-.00025-.031399-.00032-.047112l.000002-.093998v-194.503235c0-.212612.00452-.4252.013558-.637621.32986-7.752936 6.48843-13.88036 14.069283-14.3355l.280159-.013964.06056-.003712c.128137-.005122.257567-.009481.388288-.009481zm155.988445 218.831513-151 .676v180.09068l151-7.788zm-151-198.61432v179.29032l151-.676v-172.19032z"/></svg>