<?xml version="1.0" encoding="UTF-8"?>
<svg width="960px" height="960px" viewBox="0 0 960 960" version="1.1" xmlns="http://www.w3.org/2000/svg" xmlns:xlink="http://www.w3.org/1999/xlink">
    <!-- Generator: Sketch 60.1 (88133) - https://sketch.com -->
    <title>no.tjweb.opengarage/driver/icon</title>
    <desc>Created with Sketch.</desc>
    <g id="no.tjweb.opengarage/driver/icon" stroke="none" stroke-width="1" fill="none" fill-rule="evenodd">
        <path d="M498.814561,57.5318909 L945.258365,336.805289 L945.607082,337.02738 C957.033857,344.435814 960.443879,359.669905 953.194711,371.258365 C945.945542,382.846825 930.754843,386.445224 919.093904,379.411122 L918.741635,379.194711 L894.999663,364.343663 L894.999663,845.999663 L932,846 C945.807119,846 957.003337,857.192881 957.003337,871 C957.003337,884.669048 946.029857,895.775881 932.413421,896 L932,896 L26,896 C12.1928813,896 0.99666303,884.807119 0.99666303,871 C0.99666303,857.330952 11.9701429,846.224119 25.5865793,846.003349 L26,846 L64.999663,845.999663 L64.999663,363.091663 L39.2583652,379.194711 C27.5528498,386.517103 12.1276824,382.963881 4.8052895,371.258365 C-2.44387946,359.669905 0.966142557,344.435814 12.3929178,337.02738 L12.7416348,336.805289 L459.186307,57.5308964 C464.245511,51.7371714 471.598983,48.7262989 479.000309,49.0157459 C486.401896,48.7264689 493.755488,51.7376955 498.814561,57.5318909 Z M478.999663,104.113663 L104.999663,338.069663 L104.999663,843 L148.999663,843 L149,434 C149,412.460895 166.460895,395 188,395 L770,395 C791.539105,395 809,412.460895 809,434 L808.999663,843 L855,843 L855,339.321663 L478.999663,104.113663 Z M788.999663,657.999663 L168.999663,657.999663 L168.999663,717.999663 L788.999663,717.999663 L788.999663,657.999663 Z M788.999663,577.999663 L168.999663,577.999663 L168.999663,637.999663 L788.999663,637.999663 L788.999663,577.999663 Z M788.999663,497.999663 L168.999663,497.999663 L168.999663,557.999663 L788.999663,557.999663 L788.999663,497.999663 Z M770.3378,415 L188,415 C177.619422,415 169.183167,423.324636 168.999663,433.6622 L168.999663,477.999663 L789,477.999663 L789,434 C789,423.619422 780.675364,415.183167 770.3378,415 Z" id="Shape" fill="#000000" fill-rule="nonzero"></path>
    </g>
</svg>