<svg height="960" viewBox="0 0 960 960" width="960" xmlns="http://www.w3.org/2000/svg"><path d="m408.628951 2.0176639 193.567746.90576285c22.018125.1029798 39.81292 17.98119665 39.81292 39.99956255v848.7877257c0 9.054607-3.018553 17.442502-8.130183 24.174372l-.139851.180577-.084826.268931c-5.528657 17.077921-20.831811 30.005543-39.742047 31.665835l-.758319.060385-136.910851 9.786843c-19.908776 1.423146-39.91746-.299615-59.289963-5.104904l-24.751542-6.139542c-20.517679-5.089346-34.925452-23.507542-34.925452-44.646998v-533.054403c0-17.827182 9.01648-33.727431 22.925734-43.119441l.298266-.198706-.000497-282.6607391c.000032-20.1350523 14.958258-37.09664378 34.864801-39.66900896l.604733-.07353448 7.941785-.90532537c1.566079-.17852549 3.141342-.25739219 4.717546-.25739219zm-28.129489 358.7010941c-2.006872 2.15292-3.222879 5.038048-3.222879 8.183053v533.054403c0 2.75732 1.879275 5.159694 4.555494 5.823522l.385064.09689c-1.112253-2.506582-1.717055-5.25969-1.717055-8.10853zm41.942121-318.6360941 2.468 861.4530001 160.038-10.686 17.062034-1.138949v-848.7877257zm-19.998.618-1.943497.2223254v856.8451067l4.404497 1.989568zm195.192781 547.5729701c0 16.021077-12.16804 29.73314-27.703236 30.477481l-.359711.01485-.216834.005699-111.877464 5.367481-.137862.00566-.137926.003757c-15.676858.318825-27.930604-12.891125-27.930604-29.148562 0-15.935492 11.747652-29.662173 27.031982-30.727719.089162-.006216.178403-.011236.267699-.015059l111.99983-4.795318.133551-.004825c.005223-.000153.033135-.001348.126865-.005771.082847-.003916.082847-.003916.194673-.008864 15.912009-.680411 28.609037 12.476472 28.609037 28.83119zm-27.7546-8.84945c-.038783.001712-.038783.001712-.106365.004893-.212456.010025-.317931.014539-.481188.019345l.044516-.0018-111.726 4.784-.148993.013452c-4.243891.444112-8.05265 4.910041-8.187324 10.452557l-.003683.303369c0 5.459738 3.501527 9.234502 7.523942 9.152697l-.087942-.000075 111.812325-5.362815c.0442-.00212.088414-.003947.132637-.00548l.132699-.003719c.062898-.001345.126089-.003534.189575-.006576 4.547886-.217904 8.660401-4.852263 8.660401-10.500398 0-5.314495-3.583528-9.027809-7.7546-8.84945zm27.7546-63.736374c0 16.055178-12.220968 29.710397-27.798287 30.308276-.239975.00921-.479791.015234-.719402.018074l.169052-.003459-111.903659 4.301524-.137987.00435-.138033.002444c-15.637811.168974-27.835321-13.096616-27.835321-29.319019 0-15.968681 11.798575-29.642402 27.126699-30.564895.089304-.005375.178677-.009551.268093-.012527l111.999829-3.727756.133671-.003554c.005143-.000103.033018-.00103.126417-.004547.082943-.00313.082943-.00313.195002-.007021 15.87518-.527517 28.513926 12.689444 28.513926 29.00811zm-27.620769-9.02287-.228943.003728c-.038826.001344-.038826.001344-.106589.003887-.159096.005991-.258343.009467-.366883.012201l-.049597.000908-111.731856 3.718037-.160399.013099c-4.201409.399233-7.961998 4.773279-8.094965 10.281636l-.003636.301564c0 5.394868 3.429566 9.222833 7.398208 9.318713l.145648.000951 111.799519-4.297424c.044244-.001701.088498-.003107.13276-.00422l.132804-.002456c.062839-.000745.125954-.00233.189348-.004763 4.505763-.172938 8.56535-4.708957 8.56535-10.322991 0-5.155982-3.381766-8.879952-7.393061-9.018849zm27.620769-63.562954c0 16.089507-12.274526 29.68757-27.893443 30.138168l-.359927.007999-.245411.001511-111.848669 3.234751c-.04602.001331-.092049.002343-.138082.003037l-.13811.001174c-15.598101.0198-27.739995-13.301045-27.739995-29.488626 0-16.002087 11.850122-29.622595 27.221579-30.401178.089423-.00453.178902-.007858.268414-.009984l111.999829-2.660193.133754-.002282c.005085-.000053.032933-.000713.126018-.003331.083035-.002343.083035-.002343.195319-.005171 15.837634-.375308 28.418724 12.901279 28.418724 29.184125zm-27.718019-9.191312-.226894.001573c-.03888.000976-.03888.000976-.106827.002879-.211786.005956-.317756.00847-.480927.010162l.02803-.000061-111.706 2.653-.151042.010797c-4.156346.357478-7.864763 4.636219-7.99824 10.105897l-.003718.305079c0 5.529589 3.613376 9.493816 7.714551 9.488603l-.085551-.002376 111.80953-3.230652c.044275-.001279.088558-.002265.132845-.002956l.132874-.001191c.062804-.000146.125868-.001129.189194-.002956 4.464165-.128789 8.470194-4.56678 8.470194-10.146486 0-5.193997-3.439937-9.009598-7.492276-9.185309zm27.718019-63.394512c0 16.124062-12.328714 29.664641-27.988677 29.967156l-.359981.004568-.249123-.000222-111.844904 2.16801-.06906.001195-.207198.000526c-15.557772-.128666-27.644694-13.504405-27.644694-29.657395 0-16.03571 11.902297-29.602736 27.316596-30.236563.089517-.003681.179079-.006159.268662-.007433l111.99983-1.59263.133801-.001008.02993-.000416c.019187-.000315.049342-.000845.095736-.001708.083126-.001553.083126-.001553.195624-.003315 15.799398-.223804 28.323458 13.111978 28.323458 29.359235zm-27.811219-9.360622-.252538-.000249-.0435.000758-.039998.000737c-.105716.001965-.185123.003325-.258488.004209l-.088436.000357-111.806458 1.588846-.153755.009806c-4.114731.3142-7.773877 4.501659-7.905577 9.936778l-.003668.303218c0 5.564185 3.668351 9.623689 7.809852 9.65789l-.073852-.002692 111.797765-2.165382c.044294-.000858.088593-.001422.132895-.001691l.132905.000075c.062794.000453.125831.000071.189112-.001151 4.423119-.085445 8.37496-4.425736 8.37496-9.970887 0-5.325136-3.623533-9.278612-7.811219-9.360622zm-.416751-92.759119c15.76042-.072442 28.22797 13.322093 28.22797 29.533917 0 16.158845-12.383533 29.641594-28.083964 29.795237l-.359998.001137-.231819-.003048-111.862191 1.102859h-.138136l-.138128-.001582c-15.51683-.276045-27.549401-13.706331-27.549401-29.824941 0-16.069549 11.955098-29.582809 27.411725-30.071047.089586-.00283.179207-.004455.268838-.004875l111.999829-.525068.203414-.000197.05975-.000553.080471-.000747.055781-.000528c.012213-.000141.026439-.000323.04351-.000564zm.092303 20.000009-.092003.000904c-.054436.000524-.102121.000951-.145657.001275l-.216156.000181-111.816154.523636-.141606.007701c-4.073575.271707-7.682875 4.368159-7.812776 9.768527l-.003618.301346c0 5.598565 3.722702 9.753699 7.905145 9.828105l-.082145-.003679 111.806051-1.099463c.044302-.000436.088606-.000577.132909-.000424l.132902.001342c.062807.001051.12584.00127.189102.000651 4.382651-.042888 8.279673-4.285827 8.279673-9.796194 0-5.457332-3.812953-9.553785-8.135667-9.533908zm-55.046152-106.39643c15.788291 0 28.181819 13.63288 28.181819 30s-12.393528 30-28.181819 30c-15.78829 0-28.181818-13.63288-28.181818-30s12.393528-30 28.181818-30zm0 20c-4.29479 0-8.181818 4.27573-8.181818 10s3.887028 10 8.181818 10c4.294791 0 8.181819-4.27573 8.181819-10s-3.887028-10-8.181819-10zm0-112c18.800754 0 33.636364 16.319172 33.636364 36s-14.83561 36-33.636364 36c-18.800753 0-33.636363-16.319172-33.636363-36s14.83561-36 33.636363-36zm0 20c-7.307253 0-13.636363 6.962022-13.636363 16s6.32911 16 13.636363 16c7.307254 0 13.636364-6.962022 13.636364-16s-6.32911-16-13.636364-16zm-70.954545-36c2.485281 0 4.5 2.2385763 4.5 5s-2.014719 5-4.5 5-4.5-2.2385763-4.5-5 2.014719-5 4.5-5z" fill-rule="evenodd"/></svg>