<svg height="960" viewBox="0 0 960 960" width="960" xmlns="http://www.w3.org/2000/svg"><path d="m708.507907 233.840007 151.964864 71.869451c13.981926 6.612538 22.898686 20.693257 22.898686 36.159993l-.000457 37.835549 49.8912 25.602522c13.200461 6.773934 21.554774 20.289836 21.7378 35.099128v230.936997c0 20.883559-16.065571 38.252662-36.885739 39.878583l-35.001 2.733353c-7.440225.581034-14.533999-.905914-20.741046-3.961032l-.051215-.025551-.278001.196167c-5.476061 3.790253-11.959344 6.255421-19.005308 6.914903l-.623152.053491-154.301 12.051c-7.440225.581086-14.534014-.905815-20.741085-3.960893l-.051454-.025668-.278109.196242c-5.476097 3.790252-11.959421 6.255404-19.005423 6.914849l-.623155.053488-166.477 13.001c-7.439424.580981-14.532535-.905591-20.739172-3.96009l-.052141-.026489-.28019.197297c-5.476096 3.790232-11.959411 6.255366-19.0054 6.914799l-.623153.053487-170.424 13.309c-6.975196.544717-13.645897-.72812-19.56693-3.406683l-.382327-.1769-1.618.132-.479578.317085c-5.428621 3.525955-11.7815 5.776942-18.652155 6.313497l-15.664043 1.222759c-8.382525 18.055829-12.757138 42.43516-12.757138 73.142382 0 33.717581 5.276201 72.255001 15.897187 115.554405.414988 1.691816.601294 3.386168.578647 5.050501l-40.511466-.000405c-10.622202-44.458929-15.964368-84.642959-15.964368-120.604501 0-29.22497 3.525917-54.462337 10.770162-75.709796-4.176193-2.112973-7.99765-4.968036-11.258676-8.483716l-9.610795-10.359693c-6.863719 31.849648-10.289218 63.360926-10.289218 94.553205 0 38.602135 5.246112 76.919782 15.752635 114.999594.516588 1.872318.749084 3.755939.723533 5.604968l-40.643107.000187c-10.551163-39.877706-15.833061-80.09303-15.833061-120.604749 0-42.169246 5.722759-84.758256 17.144077-127.730181.172963-.650761.37609-1.285463.607477-1.903004l-17.587828-18.960235c-13.0018157 57.299904-19.4730041 106.863317-19.4730041 148.59342 0 47.886829 5.1879013 85.779302 15.2674631 113.480244.8560914 2.352736 1.2431357 4.761804 1.208907 7.124777l-41.0581046.000329c-10.3594043-31.703551-15.4182655-71.851714-15.4182655-120.60535 0-51.433796 8.9533774-112.66855 26.7707109-183.849918l-51.0924257-55.08295c-6.86107644-7.396858-10.6735661-17.113212-10.6735661-27.20221v-271.60888c0-21.329753 16.7365421-38.907196 38.0406912-39.951985l645.4065938-31.651765c6.56866-.322138 13.115418.980299 19.060622 3.791992zm68.814093 166.783987-577.847 30.288v296.311l26.525-2.070994v-5.067032l40.699843-3.325711-.000843 5.213743 170.424-13.309.000193-6.45158 40.699842-3.325711-.000035 6.598291 166.477-13.001.000157-6.158289 40.699843-3.325711-.001 6.306 154.301-12.051.000157-5.929289 40.699843-3.325711-.001 6.077 35.001-2.733353v-220.584653l-37.861 3.196.000545 72.927225c0 7.193265-5.451218 13.215953-12.608884 13.930714l-36.969839 3.691793c-.462268.046162-.926547.069285-1.391115.069285-7.731986 0-14-6.268013-14-14l-.000707-71.136017-24.00512 2.025526c-5.833829.492304-10.840889-4.110018-10.840889-9.964582zm-731.322-86.182v258.818651l133.475 143.898349v-291.063zm799.308822 121.477008-14.221423 1.093064.014701.02789c.64763 1.28678 1.016355 2.71144 1.06264 4.1804l.004967.31542-.000308 82.40829 24.97-2.493v-78.823l-7.089144-5.326062c-1.359943-1.02178-3.045415-1.513406-4.741433-1.383002zm6.701224-27.347643c-1.571425 3.017443-4.643798 5.156788-8.286956 5.371416l-46.40109 2.733219.000991 23.943044 8.227415-.692742c-1.28681-1.897237-2.09844-4.09701-2.338902-6.412123l-.033749-.373495c-.59275-7.709233 5.176299-14.439319 12.885532-15.032068l27.712295-2.130751c6.541782-.502986 13.042888 1.393285 18.288384 5.334437l11.082435 8.32668c1.490141 1.119603 2.616687 2.616013 3.287136 4.304025l21.485463-1.813007zm-160.603453-138.571359-630.406593 30.914994 131.875914 110.315704 556.593-29.174-41.251435-20.975957c-8.901335-4.52618-6.378406-17.800696 3.428479-18.853262l.299404-.028133 112.858638-9.111352zm151.964407 81.654994-94.555086 7.632704 42.878749 21.802009c.211035.102742.417916.21269.620321.329526 3.606112 2.046886 5.163894 5.584881 5.008657 9.034261l-.001641 6.1885 45.224877-2.664602c.276963-.016316.551957-.021199.82452-.015056zm-631.523449-20.49806c37.619451 0 68.116043 5.082765 68.116043 11.352674 0 6.20721-29.889709 11.2509-66.98962 11.351153l-1.126423.001521c-37.619452 0-68.116043-5.082765-68.116043-11.352674s30.496591-11.352674 68.116043-11.352674zm232.97661-10.859079c37.619452 0 68.116043 4.419796 68.116043 9.87189 0 5.397574-29.889709 9.783391-66.989619 9.870568l-1.126424.001322c-37.619451 0-68.116043-4.419795-68.116043-9.87189 0-5.452094 30.496592-9.87189 68.116043-9.87189zm223.006002-10.859079c33.857506 0 61.304439 3.977816 61.304439 8.884701 0 4.857816-26.900739 8.805052-60.290658 8.883511l-1.013781.00119c-33.857507 0-61.304439-3.977816-61.304439-8.884701s27.446932-8.884701 61.304439-8.884701z"/></svg>