<svg height="960" viewBox="0 0 960 960" width="960" xmlns="http://www.w3.org/2000/svg"><path d="m410.315103 12.2568195c90.449444.5159508 202.739548 11.7404798 337.138859 33.5994929 10.776375 1.7526945 20.368007 7.8341923 26.549661 16.8336011 17.416061 25.3547433 31.325101 49.6351845 41.691609 72.9248035 17.814083 40.021503 33.00821 140.37801 33.00821 221.604747v368.05947c0 27.684074-1.466294 49.338726-5.6528 71.048704-5.410095 28.05515-15.165142 53.478425-30.49281 76.751832-22.163793 33.653322-48.074153 56.155053-78.466581 65.706588-2.856677.897778-5.805133 1.471941-8.789949 1.711697-130.389314 10.473545-222.132612 15.792948-275.911418 15.950665-85.664579.234326-171.041257-10.387312-256.055899-31.844024-24.371826-6.151163-41.449053-28.073994-41.449053-53.210078v-779.1793164c0-23.3559674 15.015966-44.0680164 37.218459-51.3273102l.051541-.0155958 1.75905-.5718392c59.946481-19.3129404 133.023062-28.5361632 219.401121-28.0434369zm-140.905322 73.5854157-.164384.0265302c4.198123 3.6519318 8.517347 7.7115712 12.923248 12.126788 15.476233 15.5089566 30.096853 33.7278576 37.505425 46.7693766 19.944476 35.108825 34.961892 81.466938 45.181497 139.112472.102161.576258.153538 1.160372.153538 1.745616v516.718593c0 1.906555-.545024 3.773377-1.570835 5.380443-19.162062 30.019868-35.881453 50.794917-50.519186 62.487944-12.31335 9.836246-30.465487 19.098354-54.558201 27.957067 63.486577 12.363162 127.125968 18.456671 190.917755 18.284999 52.460734-.157437 143.400724-5.430263 272.819973-15.825888 20.530402-6.452162 39.548145-22.968031 57.053229-49.547609 26.257627-39.869366 29.551602-84.397167 29.551602-125.799633v-368.05947c0-81.194026-15.580585-173.951229-29.551602-205.338815-8.882802-19.956294-20.851149-41.054966-35.90504-63.2960143-105.919315-13.9493227-191.739239-21.0622632-257.39099-21.3515139-64.568376-.2844774-136.722201 5.9143458-216.446029 18.6091144zm481.803878 735.8537258c-2.819472 14.739919-7.71107 27.280129-14.884703 37.495479-7.039989 10.025037-18.05079 19.867636-33.088733 30.035562-2.795312 1.890054-6.023389 3.042137-9.383732 3.349002-73.365154 6.699684-126.247659 10.419768-158.893889 11.159243-15.507796.351269-33.912169.534159-55.219877.549056l-5.483794.000744c-21.829864-.01419-46.571544-.196218-74.231825-.546273-21.552059-.272751-27.485469-29.752271-7.717117-38.341675 20.110686-8.73815 33.801925-16.37505 40.558852-22.247937 6.650325-5.780231 13.121504-14.356362 19.243226-25.821282 3.537212-6.624584 10.487357-10.709328 17.995977-10.576609 29.443895.520436 55.447347.785859 77.997469.797231l2.743979.000123c22.268195-.009365 41.082535-.272742 56.430133-.789165 31.267621-1.052109 72.091402-3.961444 122.40233-8.731706 13.271622-1.258357 24.036296 10.574451 21.531704 23.668207zm-539.954212-739.2606375c-2.65362.0832998-8.192847.8946499-16.229887 2.4332646-.386542.0739998-.772144.1246713-1.155352.1530007-1.272854 2.1238008-1.989276 4.5954603-1.989276 7.1934128v779.1793164c0 6.814874 4.629963 12.758573 11.237632 14.426271 2.434958.614555 4.870141 1.219862 7.305548 1.81592 1.660663.222686 3.148076.332891 4.457773.332891 4.458012 0 12.126074-1.237879 22.66556-3.756366l.556487-.133949-.306631.073009.590295-.194399c28.623143-9.508308 49.21878-19.279245 61.624994-29.041214l.419766-.332791c12.172071-9.723387 27.106029-28.112857 44.473331-55.020258l.098614-.154338v-512.904l-.142541-.800096c-9.742093-54.234553-23.790035-97.603443-42.022179-130.070781l-.559433-.990492c-14.76532-25.99181-55.111782-66.4235805-71.418143-69.8051028-.712787-.1478138-4.037575-.8986065-5.006879-1.1004268-4.849503-1.0097227-9.214619-1.4719142-14.599679-1.3028719zm520.310354 735.5031325c-50.682393 4.805483-91.888255 7.742046-123.617587 8.809691-15.547373.523146-34.536949.78995-56.96873.800413h-2.763953c-22.712777-.010463-48.867758-.277267-78.464943-.800413-7.200223 13.484764-15.122093 23.983469-23.76561 31.496114-8.643518 7.512646-23.879779 16.011351-45.708783 25.496115 27.519557.348273 52.128505.529602 73.826846.543988l4.126834.000711c21.800012-.00712 40.558619-.188687 56.275821-.544699 32.07592-.726557 84.585243-4.420389 157.527969-11.081497 13.195589-8.922216 22.503556-17.242644 27.9239-24.961286s9.289756-17.638354 11.608236-29.759137zm-152.495381-382.847578c49.575977 0 118.924336 2.29491 208.091139 6.88246 5.316124.27351 9.486189 4.663636 9.486189 9.986791v277.96616c0 4.947506-3.617894 9.151314-8.510186 9.8884-69.494687 10.470267-139.12213 16.359962-208.879586 17.66854-69.716252 1.307805-132.930125-1.037474-189.651722-7.044025-5.086754-.538663-8.946935-4.829203-8.946935-9.944398v-292.858848c0-5.436141 4.342689-9.876561 9.777485-9.997524 76.301254-1.698242 139.175571-2.547556 188.633616-2.547556zm1.481151 20.000254h-2.963915c-46.586267.015931-105.049848.780634-175.381886 2.294429l-1.546451.033317v274.042l1.218004.119218c52.545582 5.084541 110.720644 7.070659 174.517119 5.951813l2.488421-.045162c65.320856-1.225352 130.528077-6.51873 195.624003-15.880601l2.140453-.311268v-259.832l-1.080725-.053555c-82.905018-4.169081-147.92319-6.274353-195.015023-6.318191zm50.151183-176.335931 1.654991.014515c55.188408.734694 101.177584 25.123615 101.177584 58.422885 0 33.299271-45.989176 57.688192-101.177584 58.422886-55.258327.735625-101.44381-23.757401-101.44381-58.422886 0-33.972174 44.356538-58.17472 98.139494-58.436869zm-79.788819 58.4374c0 20.16462 35.576899 39.031716 81.177584 38.424658 45.670603-.607989 81.44381-19.57919 81.44381-38.424658 0-18.845467-35.773207-37.816668-81.44381-38.424657-45.600685-.607058-81.177584 18.260038-81.177584 38.424657zm-180.833836-284.4101186-.863666.0291597c-47.176725 1.6051203-89.409428 6.5792939-126.698107 14.9225205 1.23187.5305915 2.487942 1.1286084 3.767903 1.7912573.529522-.1859662 1.082138-.3295471 1.654382-.4263047 42.765005-7.2308951 83.477433-12.6703737 122.139488-16.3166328z"/></svg>