<svg width="960" height="960" viewBox="0 0 960 960" fill="none" xmlns="http://www.w3.org/2000/svg">
<path d="M419.518 19.7939C422.481 18.5371 425.704 18.0142 428.913 18.2695L739.885 43.0176L740.281 43.0527C742.258 43.2497 744.196 43.7402 746.029 44.5088C794.391 64.7792 920.076 126.752 948.287 306.617C948.448 307.642 948.528 308.678 948.528 309.716V414.765C948.528 424.602 941.374 432.978 931.658 434.518C927.989 435.099 920.526 437.474 914.2 443.772C908.395 449.552 901.894 460.242 901.894 480.812C901.894 501.509 908.48 512.713 914.275 518.546C920.875 525.187 927.005 525.718 926.949 525.725C932.511 525.284 938.003 527.187 942.101 530.973C946.198 534.758 948.528 540.083 948.528 545.662V652.488C948.528 679.396 934.535 709.206 917.329 736.519C899.626 764.62 876.326 793.422 853.477 819.082C830.553 844.825 807.688 867.844 790.585 884.402C782.023 892.692 774.877 899.388 769.857 904.026C767.347 906.346 765.366 908.153 764.003 909.388C763.322 910.005 762.794 910.48 762.433 910.805C762.252 910.967 762.112 911.092 762.016 911.179C761.967 911.222 761.929 911.256 761.902 911.28C761.889 911.292 761.878 911.302 761.87 911.309C761.866 911.312 761.862 911.316 761.86 911.317C761.859 911.319 761.857 911.321 760.193 909.455L748.552 896.389L761.854 911.323C758.611 914.213 754.514 915.968 750.185 916.322L430.928 942.469C426.996 942.791 423.056 941.943 419.605 940.032C417.332 938.773 415.061 937.5 412.79 936.222C412.322 936.047 411.857 935.857 411.398 935.646L238.935 856.132C238.488 855.926 238.049 855.703 237.619 855.465C159.635 812.276 81.8343 754.555 52.3711 643.023C51.9308 641.357 51.708 639.639 51.708 637.915V555.754C50.6668 555.182 49.6831 554.613 48.7715 554.059C42.0914 549.997 35.0334 544.367 28.5566 537.557C15.8848 524.232 3.22951 503.955 3.22949 479.399C3.22952 456.361 12.4014 436.778 24.9746 422.968C32.3656 414.849 41.6278 408.024 51.708 403.939V322.386C51.708 321.305 51.7954 320.226 51.9697 319.159C61.6473 259.948 109.398 159.034 237.497 104.535L403.93 26.0625L404.511 25.7998C405.906 25.1952 407.352 24.7597 408.817 24.4883C412.333 22.8938 415.9 21.3283 419.518 19.7939ZM430.689 58.5361C292.392 119.008 242.492 226.883 232.167 286.694V401.403C242.796 404.197 253.946 409.173 263.855 416.585C281.091 429.476 295.038 450.212 295.038 479.17C295.038 508.576 280.021 529.339 263.143 542.419C253.153 550.16 242.14 555.559 232.167 558.995V672.534C263.762 788.787 343.691 851.572 433.725 902.104L740.143 877.01C740.916 876.301 741.775 875.513 742.712 874.647C747.534 870.192 754.451 863.71 762.761 855.664C779.404 839.551 801.533 817.265 823.604 792.48C845.748 767.613 867.442 740.664 883.484 715.198C900.024 688.944 908.528 667.371 908.528 652.488V561.952C885.414 552.771 861.894 526.571 861.894 480.812C861.894 450.718 871.879 429.465 885.977 415.428C893.257 408.179 901.193 403.288 908.528 400.067V311.301C897.437 242.36 870.453 193.3 839.949 158.382C838.344 156.544 836.729 154.745 835.105 152.984C831.859 149.464 828.582 146.096 825.286 142.876C824.188 141.802 823.087 140.745 821.985 139.704C817.578 135.539 813.148 131.632 808.73 127.965C807.626 127.048 806.522 126.147 805.42 125.26C777.859 103.087 751.096 90.1696 733.479 82.6338L430.689 58.5361ZM322.846 850.771L323.155 850.914C323.068 850.839 322.981 850.763 322.894 850.688L322.846 850.771ZM91.708 635.272C117.371 729.033 182.529 779.151 256.376 820.126L302.359 841.326C232.868 799.006 169.271 743.12 143.763 643.747C143.658 643.341 143.606 642.923 143.606 642.504V550.529L91.708 543.78V635.272ZM153.606 641.862C177.009 732.303 233.039 785.479 296.961 826.186C259.199 787.078 228.928 738.62 212.167 675.173V559.446L153.606 551.83V641.862ZM591.734 528.595C635.717 526.746 676.951 534.886 710.662 550.363C716.462 546.445 723.441 544.137 730.963 544.137C751.501 544.137 767.722 561.142 767.722 581.582C767.722 584.61 767.366 587.564 766.693 590.398C783.557 609.297 794.013 631.862 795.056 656.672C796.705 695.905 774.542 731.237 739.807 756.825C705.012 782.456 656.724 799.111 603.202 801.361C564.754 802.978 528.428 796.961 497.395 785.1C491.248 789.852 483.557 792.709 475.186 792.709C454.647 792.709 438.426 775.704 438.426 755.264C438.426 753.53 438.544 751.82 438.77 750.143C415.802 729.327 401.129 702.945 399.882 673.284C398.233 634.052 420.395 598.719 455.13 573.131C489.924 547.5 538.213 530.845 591.734 528.595ZM707.632 571.079C676.193 555.428 636.102 546.747 592.575 548.577C542.491 550.683 498.171 566.266 466.992 589.233C435.755 612.245 418.579 641.873 419.864 672.444C420.903 697.156 433.851 720.141 456.228 738.827C459.371 741.452 460.597 745.73 459.319 749.621C458.743 751.376 458.426 753.271 458.426 755.264C458.426 765.138 466.167 772.709 475.186 772.709C480.083 772.709 484.534 770.528 487.649 766.925L487.919 766.625C490.759 763.595 495.195 762.627 499.055 764.232C528.485 776.477 564.109 782.987 602.362 781.379C652.446 779.273 696.766 763.69 727.944 740.723C759.182 717.712 776.358 688.083 775.073 657.512C774.19 636.503 764.72 616.802 748.195 599.885C745.34 596.961 744.551 592.595 746.202 588.856C747.173 586.66 747.722 584.203 747.722 581.582C747.722 571.707 739.981 564.137 730.963 564.137C726.431 564.137 722.293 566 719.23 569.126C716.196 572.222 711.513 573.011 707.632 571.079ZM594.108 585.056C624.489 583.779 652.789 590.882 674.018 603.923C695.184 616.925 710.261 636.553 711.255 660.194C712.249 683.836 698.872 704.659 678.872 719.393C658.813 734.169 631.209 743.623 600.828 744.9C570.447 746.178 542.147 739.074 520.919 726.033C499.753 713.031 484.677 693.403 483.683 669.762C482.689 646.12 496.064 625.297 516.064 610.563C536.123 595.787 563.728 586.333 594.108 585.056ZM556.713 611.998C545.704 615.724 535.958 620.75 527.927 626.666C511.425 638.822 503.034 653.942 503.664 668.922C504.294 683.902 513.924 698.263 531.388 708.991C548.79 719.681 573.045 726.051 599.988 724.918C605.313 724.694 610.508 724.186 615.545 723.423C604.7 712.054 593.717 693.264 589.279 665.527C583.67 630.467 564.689 615.61 556.713 611.998ZM663.549 620.964C646.147 610.274 621.891 603.905 594.948 605.038C590.609 605.221 586.356 605.591 582.205 606.135C593.567 617.421 604.752 635.637 609.028 662.368C615.05 700.009 634.163 714.839 640.015 717.288C640.034 717.296 640.053 717.305 640.072 717.313C650.325 713.66 659.432 708.872 667.01 703.29C683.512 691.134 691.902 676.014 691.272 661.034C690.643 646.054 681.013 631.692 663.549 620.964ZM224.008 420.013C223.226 420.329 222.391 420.552 221.515 420.663L186.231 425.139C202.946 437.133 213.613 458.013 213.613 480.813C213.613 503.304 203.234 523.926 186.909 535.994L223.603 540.767C244.904 533.999 275.038 515.398 275.038 479.17C275.038 442.665 246.292 424.809 224.008 420.013ZM153.641 434.569C132.643 434.569 113.668 454.13 113.668 480.813C113.668 507.497 132.643 527.057 153.641 527.057C174.638 527.057 193.613 507.497 193.613 480.813C193.613 454.13 174.638 434.569 153.641 434.569ZM77.832 438.89C75.9018 439.51 73.8443 439.847 71.708 439.847C68.6741 439.847 61.5531 442.207 54.5527 449.896C48.0237 457.068 43.2295 467.262 43.2295 479.399C43.2295 490.019 48.921 500.926 57.542 509.991C61.7116 514.376 66.0365 517.742 69.5508 519.879C70.4876 520.448 71.2517 520.86 71.8467 521.158C72.3732 521.142 72.9082 521.167 73.4473 521.237L109.738 525.957C99.6757 513.953 93.6681 497.924 93.668 480.813C93.668 463.519 99.8055 447.329 110.064 435.283C110.204 435.103 110.344 434.924 110.485 434.746L77.832 438.89ZM153.642 451.219C168.164 451.219 179.937 464.469 179.937 480.813C179.937 497.158 168.164 510.408 153.642 510.408C139.119 510.408 127.347 497.158 127.347 480.813C127.347 464.469 139.119 451.219 153.642 451.219ZM254.246 140.861C254.008 140.974 253.768 141.082 253.525 141.185C140.538 189.102 100.078 276.231 91.708 324.067V416.968L143.606 410.384V317.785C143.606 317.523 143.627 317.259 143.668 317C151.548 267.38 187.299 184.576 279.786 128.818L254.246 140.861ZM288.173 135.465C196.363 189.389 161.305 270.455 153.606 318.186V409.115L212.167 401.688V285.025C218.563 245.891 240.283 188.756 288.173 135.465Z" fill="black"/>
</svg>
