<svg width="960" height="960" viewBox="0 0 960 960" fill="none" xmlns="http://www.w3.org/2000/svg">
<path d="M608.577 138.205C630.583 132.952 653.757 130.907 677.536 132.558L732.691 136.389C852.235 144.692 945 243.978 945 363.717V595.526C945 715.651 851.655 815.119 731.69 822.921L676.535 826.508C664.421 827.296 652.462 827.127 640.733 826.063C631.612 825.235 622.634 823.866 613.834 821.987H613.833C607.334 820.599 600.934 818.93 594.646 816.999L296.887 742.974C267.693 735.716 242.73 719.219 224.811 697.089L162.379 683.452C162.332 683.441 162.284 683.431 162.236 683.42C110.416 671.704 73.5664 625.756 73.5664 572.674V521.904L45.4199 520.862C23.4179 520.047 6.00019 501.975 6 479.957C6.00003 457.9 23.4758 439.81 45.5176 439.046L73.5664 438.074V383.682C73.5665 330.062 111.15 283.804 163.64 272.629L227.841 258.96C245.372 238.794 268.972 223.759 296.316 216.833L604.435 138.8C605.804 138.454 607.192 138.258 608.577 138.205ZM674.765 172.462C653.803 171.007 633.495 173.022 614.357 177.984C612.983 178.34 611.588 178.544 610.196 178.604L557.017 192.072C501.356 226.936 464 288.798 464 359.887V599.114C464 669.621 500.757 731.082 555.703 766.1L604.802 778.306L605.354 778.452C605.537 778.503 605.72 778.557 605.902 778.614C611.236 780.268 616.668 781.691 622.188 782.87C629.431 784.417 636.827 785.545 644.348 786.227H644.349C654.017 787.104 663.9 787.246 673.939 786.593L729.095 783.005C828.062 776.568 905 694.526 905 595.526V363.717C905 265.035 828.54 183.142 729.92 176.292L674.765 172.462ZM486 387.418C486 274.847 581.807 186.068 694.101 194.561C795.011 202.193 873 286.259 873 387.418V572.582C873 674.097 794.479 758.331 693.179 765.506C581.211 773.437 486 684.787 486 572.582V387.418ZM306.137 255.609C285.104 260.936 267.244 273.07 254.647 289.321C253.148 291.255 251.318 292.879 249.262 294.135C238.905 310.12 233 329.073 233 349.123V607.54C233 643.155 251.631 675.298 280.729 693.5C288.603 698.222 297.265 701.851 306.537 704.156L509.214 754.542C469.058 715.123 444 660.204 444 599.114V359.887C444 298.586 469.226 243.518 509.601 204.08L306.137 255.609ZM745 569.567C745 645.249 699.743 710.951 634.087 740.003C652.345 744.947 671.756 746.974 691.766 745.556C782.604 739.122 853 663.591 853 572.582V532.762L745 530.176V569.567ZM603.839 231.323C546.201 259.312 506 318.377 506 387.418V572.582C506 642.122 546.796 701.575 605.152 729.307C674.806 709.121 725 644.864 725 569.567V391.436C725 315.695 674.202 251.085 603.839 231.323ZM113.566 572.674C113.566 606.979 137.384 636.779 171.034 644.399L223.005 655.752C216.543 640.877 213 624.543 213 607.54V510.939L113.566 507.679V572.674ZM653.89 419.758C667.301 419.848 678.332 427.771 685.57 438.358C692.834 448.983 696.957 463.081 696.856 478.142C696.756 493.204 692.446 507.246 685.041 517.774C677.662 528.264 666.527 536.039 653.115 535.95C639.704 535.86 628.674 527.936 621.436 517.349C614.171 506.724 610.047 492.625 610.147 477.564C610.248 462.503 614.56 448.461 621.965 437.934C629.344 427.444 640.478 419.669 653.89 419.758ZM653.756 439.757C648.746 439.724 643.132 442.604 638.323 449.441C633.54 456.24 630.224 466.197 630.147 477.698C630.071 489.199 633.254 499.2 637.945 506.062C642.663 512.962 648.239 515.917 653.248 515.951C658.258 515.984 663.873 513.104 668.683 506.267C673.465 499.468 676.781 489.51 676.857 478.009C676.934 466.509 673.751 456.508 669.06 449.646C664.342 442.745 658.765 439.791 653.756 439.757ZM745 448.346V510.171L853 512.756V444.374L745 448.346ZM114 466.519V487.682L213 490.927V464.002L114 466.519ZM171.969 311.752C137.87 319.012 113.567 349.022 113.566 383.682V446.524L212.746 444.002L213 454V349.123C213 332.111 216.547 315.768 223.017 300.884L171.969 311.752ZM692.593 214.504C671.779 212.93 651.597 215.085 632.676 220.382C699.118 249.121 745 315.242 745 391.436V428.333L853 424.36V387.418C853 296.728 783.081 221.349 692.593 214.504Z" fill="black"/>
</svg>
