<svg height="960" viewBox="0 0 960 960" width="960" xmlns="http://www.w3.org/2000/svg"><path d="m581.588729 9.54270183.036745.00316981 1.332186.11555981c22.009812 1.93020455 40.728103 16.84368025 47.526545 37.86582625 2.70165 8.3539132 4.326626 13.9626007 5.186156 18.4502625 4.807997 25.102858 7.329639 41.8832498 7.329639 52.8781518v696.932505c0 34.695767-3.54021 65.390495-10.824138 92.158926l-.003862.010897c-1.826267 9.16286-6.531824 16.690343-12.718237 22.512575l-.380598.354332c-4.176643 3.84654-8.557995 6.537286-13.343947 8.729643-5.608526 2.569164-11.837531 4.428177-19.167935 6.007069-11.496184 2.476156-26.596684 4.369891-44.218424 5.641676l.507141-.037295-1.138343.1092c-11.757396 1.101562-24.209239 1.671706-37.366839 1.7248h-1.88446c-3.123842 0-6.192368 0-9.20603-.012146l.206672.000146-1.388929.012h-3.072071c-4.813606 0-9.590606-.040473-14.311815-.120708l.170815.002708-1.367374-.012465c-49.487999-.468161-80.783625-2.153877-98.684597-4.927637l-.54381-.085251c-9.131512-1.448327-16.048552-3.31025-22.48327-6.668308-6.066627-3.165963-11.49934-7.568526-15.84254-13.918555-2.558952-3.741348-4.431542-7.785066-5.630761-11.97247-.262761-.917503-.482193-1.799543-.667644-2.658971l-.028004-.142343-.163032-.648932c-8.82679-35.60866-13.297664-72.902816-13.444242-111.820686l-.003726-1.980274.000505-1.627349c.016483-28.321344.43555-141.785442 1.135288-313.709836.033936-8.337974.068405-16.781492.103382-25.324675.271005-66.194127.561365-135.694519.851726-204.247195.101626-23.993408.195993-46.154562.280682-65.951699.029641-6.92904.055955-13.067661.07864-18.349392.012552-2.921605.012552-2.921605.020719-4.820138.002065-.479633.003407-.791394.004331-1.00608l.000697-.161894.000147-.034205.000803-.18657.00009-.020958.00067-40.173202c0-23.6230942 3.753239-48.0717992 11.142706-73.3158887 6.435202-21.956365 25.790909-37.6367744 48.608727-39.37403748 32.847445-2.49844062 68.324532-3.74298882 106.44658-3.74298882 37.010791 0 69.289705 1.17257248 96.913036 3.54270183zm10.440445 161.88157517c-12.031083 1.472154-25.244482 2.019671-55.632803 2.661443-.495797.010471-1.6714.035175-2.90304.061052l-.673612.014153c-1.231397.025871-2.405419.050541-2.898297.060946-2.552609.053891-4.612899.09818-6.61486.142479-29.905246.661744-63.6718 1.005894-91.830702 1.015476l-3.419358-.0005c-27.685359-.017758-49.376577-.370777-55.604691-1.076032-5.32657-.603166-9.986444-1.43789-14.015644-2.549361l.002056-.037024c-.317085 73.882072-2.438223 570.212924-2.438223 626.329199 0 37.049083 4.227972 72.322357 12.683916 105.819822.291554 1.154964-2.666007 8.046914 106.683959 9.019137 4.461277.075818 9.011511.114933 13.632125.114933 1.464037 0 2.921008 0 4.361622-.012002 2.961863.012002 5.994215.012002 9.098736.012002 13.214494 0 25.548673-.564078 37.003137-1.692937 31.85537-2.299044 53.434041-6.707309 53.534684-11.770358 6.667881-23.523593 10.001821-51.439769 10.001821-83.748528l.001506-646.220034c-3.188934.743358-6.827061 1.348907-10.972332 1.856134zm2.57719-104.6237928-.048826.0128208c-2.64205.7624591-6.045635 1.3147015-10.511851 1.8127653-9.545049 1.0644456-24.234537 1.8203474-43.250373 2.3115938-30.000891.7750292-70.293963.8409886-102.695373.4051431-32.91148-.4427068-55.471699-1.247974-67.98482-2.4477615-1.594077-.1669257-3.008442-.3818406-4.283315-.6678517-4.902507 18.8486709-7.354126 36.917528-7.354126 54.205721l-.000484 27.152007c.027441.268225.044125.53912.049656.812185l-.000925.016121.089887.054696c.053937.032836.110483.066365.169657.100533l.185431.104367c2.817495 1.547102 8.139543 2.89781 15.731273 3.757477 5.467571.619133 26.045181.934702 52.580714.949142l3.34731.000237c16.885086-.006656 35.948525-.130901 54.955913-.37214l3.800069-.049808c11.39399-.154102 22.714177-.350307 33.477929-.588487 2.009716-.044471 4.076347-.088896 6.635165-.142918.493675-.010422 1.668109-.0351 2.899547-.060973l.673598-.014152c1.231546-.025875 2.406686-.05057 2.901665-.061023 27.577959-.58242 40.672811-1.086364 51.299081-2.248339l.667962-.074269.662071-.076061c.109892-.012828.219566-.025733.329036-.038715l.667805-.080453c6.224667-.761666 10.679559-1.736657 13.223862-2.817258l.110025-.047856.062753-.191064.00332-.011164v-29.649328c0-8.137181-2.794966-25.4062018-6.615538-45.3536503-.270553-1.4125699-.863257-3.6464142-1.778098-6.7015375zm-108.166956-20.8004842h-1.763715c-37.144811 0-71.615768 1.209231-103.412865 3.6277801-.121868.0092786-.243375.020016-.3645.0321964 12.551793.7655917 31.420222 1.326395 56.502184 1.6714652l.968434.0131746c12.412926.1669717 26.000513.2597325 39.714696.2665752l3.742583-.0002729c20.592808-.0133134 41.256078-.2223374 58.45259-.6665841 15.151224-.3914098 27.443127-.9538998 36.249194-1.6865746-25.164867-2.099243-54.609136-3.1838406-88.332587-3.254109z"/></svg>