<svg height="960" viewBox="0 0 960 960" width="960" xmlns="http://www.w3.org/2000/svg"><path d="m47.1576119 417.250459c36.4135671-259.095993 258.8613271-443.4553292 498.5308291-409.77197738 239.669502 33.68335178 402.683693 272.21583238 366.270126 531.31182538s-258.861328 443.45533-498.530829 409.771978c-239.669502-33.683352-402.6836932-272.215833-366.2701261-531.311826zm465.5440041-372.9718549c-206.366736-13.332648-393.898745 150.6012069-425.9332813 378.5387789-33.4482575 237.996719 115.2945353 455.646404 332.2263273 486.134179 7.076004.994468 14.137158 1.777517 21.17806 2.353622-200.311476-37.41906-333.306213-250.82981-300.565617-483.791254 29.860559-212.468913 187.75798-371.3060706 369.203494-383.0101161zm61.484945 22.6101516c-196.975545-27.6831075-382.676232 135.0204813-414.774094 363.4086363s101.561908 435.974929 298.537453 463.658036c196.975545 27.683108 382.676233-135.020481 414.774094-363.408636l-.192373 1.355709c20.478562-148.660903-30.090974-289.257477-123.898321-381.095986-48.22429-44.499482-107.700464-74.5371793-174.446759-83.9177593zm-237.941108 382.9427513c19.424447-138.212124 132.346004-237.149521 252.910389-220.205301 120.564385 16.944219 201.840709 143.174348 182.416262 281.386471-16.67191 118.626802-102.220395 208.321065-202.361436 220.64572l7.796066 32.786257c.702684 2.955172-1.123319 5.92045-4.078491 6.623134-2.883095.685545-5.775809-1.03575-6.567714-3.864294l-.055421-.214197-8.153713-34.290443c-.582607.037975-1.165632.073324-1.749065.106037l8.225967 42.661075c.575108 2.982626-1.376572 5.866739-4.359198 6.441847-2.909879.561081-5.725992-1.282871-6.395677-4.142818l-.04617-.21638-8.57019-44.441698c-1.158627-.002134-2.318581-.014723-3.479784-.037837l7.78946 42.445545c.548234 2.987682-1.429329 5.854109-4.417012 6.402343-2.914812.534863-5.714212-1.334365-6.358124-4.200225l-.04422-.216787-8.255992-44.986458c-.674403-.053002-1.349137-.109587-2.024186-.169768l5.991761 34.975379c.512829 2.993963-1.498527 5.83678-4.49249 6.349609-2.920939.500322-5.698016-1.401913-6.307958-4.275195l-.041651-.217295-6.546114-38.188521c-119.687511-17.826266-200.164182-143.5529-180.825299-281.1562zm180.116803 286.661412.033256.218736 2.478117 18.787797c.397216 3.011482-1.722067 5.774778-4.733549 6.171994-2.938032.387527-5.639836-1.620184-6.138738-4.514813l-.033256-.218736-2.478117-18.787797c-.397216-3.011482 1.722067-5.774778 4.733549-6.171994 2.938032-.387527 5.639836 1.620184 6.138738 4.514813zm67.524166-1.267005.048202.215936 3.859041 19.048807c.603119 2.977089-1.321363 5.87942-4.298451 6.48254-2.904477.588409-5.737799-1.228989-6.434338-4.082515l-.048202-.215936-3.859041-19.048807c-.603119-2.977089 1.321363-5.879421 4.298451-6.48254 2.904476-.588409 5.737799 1.228989 6.434338 4.082515zm2.485958-485.794347c-108.921687-15.307945-212.350446 75.312238-230.321566 203.183402-17.97112 127.871163 56.472676 243.489703 165.394363 258.797648s212.350446-75.312238 230.321566-203.183402c17.97112-127.871163-56.472676-243.489703-165.394363-258.797648z"/></svg>