<svg height="960" viewBox="0 0 960 960" width="960" xmlns="http://www.w3.org/2000/svg"><path d="m675.859436 21.7936066 1.254564.2313934 1.257632.1237643c23.823147 2.3487256 44.46754 4.6474138 61.974197 6.9038877l1.09008.1409747c21.683757 2.8137055 46.209761 9.7248713 68.453621 19.6781584 27.094009 12.1235456 50.030557 28.2138292 66.148721 48.4508502 1.713447 2.1513034 3.341316 4.3324937 4.882032 6.5440647l.631717.9173.647747.705063 1.125313 1.25198c29.043722 32.663974 44.698243 77.501179 52.864644 143.643564 6.703582 54.294533 8.810293 121.686955 8.810293 243.836302-.044869 111.832492-1.948349 169.135463-8.766866 219.31063-8.573728 63.091174-25.468491 107.965884-56.258945 142.337309-29.97937 33.46601-71.677667 55.385042-129.977876 69.744228-52.395558 12.904887-120.492976 20.430239-217.609951 24.839834-112.903722 5.126392-187.480325 2.758918-242.923125-9.267873l-1.138234-.250037-.158701.009846c-4.261337.228075-8.598752-.224608-12.852834-1.408578l-.472324-.134564-105.035297-30.617952c-4.992251-1.455249-9.445833-3.770745-13.271867-6.723932l-.369977-.29082-.048414-.019543c-24.621318-10.195743-45.048729-23.834969-61.7682692-41.450895l-.694503-.7363c-30.8829992-32.945732-47.3099951-77.769352-55.1309339-142.113772-6.2499868-51.419886-7.4545735-112.267729-5.8991439-226.645995.010406-.765205.0204342-1.504116.0304216-2.241763l.0085585-.632543c.0471034-3.483707.0954415-7.098271.180332-13.466236 1.5277174-114.599889 4.1233767-172.913692 11.5258681-224.933089 9.3587263-65.766411 26.7236058-112.772048 57.6631678-148.626031 30.237482-35.0403853 71.94752-58.1171905 128.797387-72.1158657 52.742827-12.98736 120.637595-18.7869673 212.57795-18.7869673 120.139619 0 182.151788 2.6312389 232.453015 11.7936066zm-146.120978 53.9043309c-174.736624 0-263.141839 21.3485742-311.23754 77.1158515-52.078638 60.385518-57.06865 165.540311-59.503903 348.323055-.071767 5.386574-.144456 10.842412-.219559 16.368337-2.562211 188.520192.784016 288.425821 50.240379 341.215837 18.279211 19.511338 43.036367 33.160414 77.175034 42.079426l.994577-1.244957c54.049116 13.846146 131.406802 16.022942 243.384583 10.938592 143.0008-6.49295 229.488097-20.109406 283.121234-51.771358-19.18305 10.744602-42.108069 19.089945-69.516563 25.603237-47.614732 11.315058-109.908187 17.684889-205.973175 22.04923-97.631944 4.435529-158.809711 3.963344-205.941113-2.690964-54.166796-7.647608-90.910065-24.163941-115.865647-53.731116-23.899099-28.315463-36.145785-67.368145-41.518279-125.346025-2.325619-25.097188-3.452027-54.283865-3.709798-91.386133-.00601-.865054-.011636-1.727079-.016871-2.587134l-.009949-1.717796c-.009427-1.715797-.017281-3.426538-.023525-5.140697l-.005706-1.715611c-.011804-2.003609-.011804-4.015713-.011804-6.049771v-3.510971c.011609-22.404149.295031-48.302431.928569-94.916393.080211-5.901667.345609-25.806849.352145-26.293456 1.460943-108.78124 3.089304-153.519769 8.567553-198.66886 6.975385-57.487753 20.061196-97.973907 43.483664-128.757689 24.901266-32.727341 61.14336-53.676158 113.035192-66.141479 47.725251-11.4644357 110.343414-16.3280633 199.827882-16.3280633l11.909363.0008292c43.764188.0146817 67.065076.1156999 88.434014.4839171l1.376145.0241284c.686917.0122514 1.372238.0247849 2.056585.0376066l1.667543.0318469c.555427.0108083 1.110545.0218103 1.665688.0330093l1.665838.0341911c1.944345.0405865 3.893092.0836257 5.860571.1292568 36.248883.8407077 64.328596 2.5359725 88.215997 5.5364133 54.786065 6.88155 90.820864 21.3424506 116.037442 49.0113986-.74366-.894268-1.500419-1.772296-2.268449-2.636556-46.999148-52.8879417-137.070785-58.3811335-324.178117-58.3811335zm17.813626 25.6950925h-10.256246c-345.268283 0-340.594143 72.551347-345.268283 416.461345-4.67414 343.909999-4.67414 384.4397 345.268283 368.541421 349.942424-15.898279 349.942424-62.035257 350.07436-391.065581 0-386.058442-4.615756-393.77961-329.764132-393.934034zm-101.096543-51.39303h-3.04912c-174.654843 0-263.018682 21.326306-311.091873 77.035414-52.0542632 60.322531-57.0419404 165.367639-59.4760536 347.959727-.0717329 5.380955-.1443879 10.831102-.2194565 16.351263-2.5610113 188.323551.7836498 288.12497 50.2168661 340.859922 14.880249 15.874128 34.055328 27.863855 59.09306 36.580174l-.928964 1.595548 15.959331 4.652497c-.856585-.868816-1.702188-1.748701-2.536967-2.639749-27.488512-29.341401-42.527982-70.402564-49.885728-130.971049-6.107867-50.27957-7.301227-110.595017-5.757333-224.190364.00744-.547429.014687-1.081412.021864-1.611084l.012869-.950725c.048532-3.588943.097231-7.231945.184754-13.80117 1.516876-113.852125 4.089234-171.675732 11.333157-222.610123 8.87034-62.370267 24.972654-105.983311 53.023521-138.508472 52.828825-61.2553657 145.362322-84.0538715 326.38299-84.0538715 44.205134 0 80.136843.3523105 110.390952 1.2410605-48.338359-5.7100935-110.417307-6.8829302-190.641981-6.9369879zm210.297088 75.822762c2.443005 0 4.773623.009093 7.070456.022459l1.057963.006583.52772.003601 1.053987.007822c.526724.004116 1.053259.00854 1.580571.013269l1.055945.009866c1.938848.018832 3.896797.041753 5.921465.068657 24.490829.325444 43.804723 1.366753 60.605243 3.447725 40.221667 4.981998 68.012124 16.4296 87.696248 38.580061 20.261522 22.800205 30.608848 54.456748 35.330943 101.53071.168329 1.678055.329773 3.346619.484558 5.012973l.152573 1.665886c2.305672 25.540549 3.063283 51.131676 3.086618 103.015382l-.000483 6.64693c-.006088 14.331535-.069295 30.583193-.162179 49.242065-.099486 19.985225-.154892 33.582596-.176963 46.564138l-.002201 1.364453c-.000346.227113-.000682.454099-.001009.680988l-.002665 2.040255-.000768.679805-.001361 1.360313c-.000829.907436-.001502 1.816328-.002023 2.72867l-.000668 1.37135-.000132.343822-.000777 3.755652-.000062 3.160179.000805 1.877244c.0005.832306.001192 1.662471.00208 2.492732l.00233 1.869193.001855 1.205972.002137 1.209962c.020512 10.912157.075665 22.492777.175674 39.696451.092335 15.883506.149968 29.829096.157853 42.222441l.000349 5.107905c-.023148 43.84087-.742207 67.572114-2.896939 90.15701l-.136547 1.410235c-.046143.469695-.092916.939064-.140326 1.408278l-.162227 1.581279c-.082329.79059-.166487 1.581288-.252506 2.372915l-.17453 1.584737c-.11802 1.05764-.239388 2.117906-.364178 3.182742-5.217694 44.522497-16.580817 76.117584-38.047335 100.09448-22.974216 25.660911-56.397573 40.617472-106.05867 49.628044-39.584305 7.182227-83.879633 10.554101-177.989847 14.829634-47.142297 2.141728-66.791495 2.987606-85.554368 3.536639l-1.371698.039657-1.37085.038686c-.228533.006371-.457127.012705-.685831.019005l-1.373922.037389c-2.522682.067829-5.070286.131851-7.707042.194476-31.733702.753712-56.457728.442085-77.683526-1.177064-50.20522-3.82976-83.644013-15.462748-106.575967-39.940452-21.337151-22.775402-31.996527-54.12231-36.259244-99.550838-1.728139-18.417076-2.473077-39.472208-2.49124-66.008628v-2.717625c0-3.282798.011682-6.272338.025965-9.202093l.005691-1.096312.009858-1.639943.007513-1.09427.008313-1.098241.006784-.827932c.11477-13.559995.425777-29.091636 1.271518-69.227756.363701-17.260059.615986-30.354275.813574-43.003503l.026026-1.684254c.025712-1.68227.050496-3.359568.074487-5.040716l.024183-1.715156c.007973-.572394.015859-1.145577.023665-1.719897.00894-.657777.017603-1.296265.026201-1.931221l.008584-.634361c.048609-3.594656.097399-7.244503.184958-13.816428.031257-2.346044.059807-4.548903.086613-6.700129l.010631-.857954c.001757-.142606.003507-.285036.00525-.427318l.010378-.852134.010225-.849881c.005078-.424595.010103-.848833.015084-1.273447l.009906-.849947c.001641-.141814.003279-.283723.004913-.425756l.009754-.853892.008573-.76013c.10964-9.780327.205415-20.610288.377795-41.105259.722188-85.863867 1.862659-119.479928 6.548085-155.268309 6.112176-46.686233 18.166447-80.102769 40.022568-105.445083 22.805106-26.442669 55.827719-41.873036 103.284257-50.173127 39.521467-6.912256 88.18132-9.237116 169.302568-9.237116l1.517518-.000281c2.772946-.001032 5.498125-.004918 8.219531-.011832l2.226655-.006336c.486772-.001534.973806-.003166 1.461355-.004898l1.464442-.005494c13.687216-.054072 27.974836-.186798 48.382293-.420085 26.310629-.300769 41.372312-.449623 53.292878-.465622zm-119.456791 20.914548c-138.812441 0-217.658823 6.344097-257.441374 52.472223-45.264566 52.484557-40.199283 147.677078-42.267001 302.8737-.07185 5.392837-.144624 10.855017-.219815 16.387368-2.116708 155.741363-11.250048 246.530023 31.050226 291.681587 39.265557 41.912289 121.132342 37.564807 266.820045 30.94605 147.809612-6.715157 229.710553-12.755745 270.055549-57.818844 43.60695-48.706517 36.672816-137.117963 36.732442-287.939743.000007-175.713825 6.413668-268.983991-33.653603-314.07152-39.300504-44.224689-122.333867-34.530821-271.076469-34.530821z"/></svg>