<svg height="960" viewBox="0 0 960 960" width="960" xmlns="http://www.w3.org/2000/svg"><path d="m646.684588 1.34301075c110.45695 0 200 89.54305005 200 200.00000025v560c0 110.45695-89.54305 200-200 200h-329.244445c-110.45695 0-200-89.54305-200-200v-560c0-110.4569502 89.54305-200.00000025 200-200.00000025zm-26.998654 40.00000005h-302.245791c-88.36556 0-160 71.6344402-160 160.0000002v560c0 88.36556 71.63444 160 160 160h302.245791zm26.998654 0h-6.998654v880.0000002h6.998654c88.36556 0 160-71.63444 160-160v-560c0-88.36556-71.63444-160.0000002-160-160.0000002zm-343.555556 54.5333333c49.803812 0 90.177778 40.3739659 90.177778 90.1777779 0 49.803811-40.373966 90.177778-90.177778 90.177778-49.803811 0-90.177778-40.373967-90.177778-90.177778 0-49.803812 40.373967-90.1777779 90.177778-90.1777779zm0 19.9999999c-38.758116 0-70.177778 31.419661-70.177778 70.177778 0 38.758116 31.419662 70.177778 70.177778 70.177778 38.758117 0 70.177778-31.419662 70.177778-70.177778 0-38.758117-31.419661-70.177778-70.177778-70.177778z"/></svg>