<svg height="960" viewBox="0 0 960 960" width="960" xmlns="http://www.w3.org/2000/svg"><g fill-rule="evenodd"><path d="m262.329025 7.64034755-195.5054425 21.41790025c-20.2841612 2.2221588-35.6440043 19.3565904-35.6440043 39.7621089v812.3798593c0 19.586118 14.1824413 36.291454 33.5089531 39.469815l119.3002307 19.619635c.285861.047012.572225.090917.85904.131707l79.72596 11.33838c20.706129 2.944762 41.654424 3.816071 62.533575 2.600979l10.317734-.604626 103.882153-6.833505c.261957-.017232.523738-.037042.785305-.059428l414.701049-35.49169c40.895298-3.500182 72.30831-37.716645 72.30831-78.761257v-722.118219c0-42.1138738-33.016694-76.8333418-75.077375-78.9493495l-518.146168-26.06713166c-24.535011-1.23431841-49.129381-.5104174-73.54932 2.16482171zm71.539524 37.78465535 518.146168 26.0671316c20.777386 1.0452782 37.087171 18.1962088 37.087171 38.9998725v722.118219c0 20.275463-15.517588 37.177916-35.719193 38.906948l-414.701049 35.491691-103.882154 6.833505-10.016081.585927c-18.222768 1.0605-36.505884.300045-54.577643-2.270065l-79.725959-11.338381-119.3002308-19.619635v-812.3798593l195.5054428-21.4179003c22.30636-2.4436936 44.772055-3.10494 67.183528-1.9774535z" fill-rule="nonzero"/><path d="m311.979732 120.993614v712.383947c0 28.830258 21.196193 51.437854 47.801022 49.529283l467.019626-33.502934c25.78965-1.850091 46.369945-24.734327 46.369945-51.211528v-650.982352c0-26.537107-20.671934-49.180659-46.534666-50.6073886l-467.019626-25.7633531c-26.541264-1.4641611-47.636301 21.3851359-47.636301 50.1543257zm46.534667-30.1846887 467.019625 25.7633527c15.100762.833041 27.636301 14.564177 27.636301 30.637752v650.982352c0 16.13348-12.627178 30.174256-27.801022 31.262793l-467.019626 33.502935c-14.358664 1.030058-26.369945-11.781025-26.369945-29.580549v-712.383947c0-17.860593 12.112436-30.9802977 26.534667-30.1846887z" fill-rule="nonzero"/><path d="m356.412681 174.278869c2.480883-20.39673 15.456561-34.681744 28.99407-31.94236 13.542942 2.723249 22.597507 21.207297 20.211855 41.321166-2.393565 20.137374-15.399651 34.512709-29.037824 32.072322-13.632741-2.456524-22.656897-21.030894-20.168101-41.451128zm61.96175 2.674921c2.363129-19.570881 15.26013-33.267879 28.818349-30.628145 13.563655 2.623977 22.730526 20.364147 20.462688 39.658822-2.275755 19.317627-15.203184 33.10282-28.862131 30.755048-13.65351-2.363528-22.789953-20.191894-20.418906-39.785725zm60.963543 2.547205c2.245057-19.296296 15.062321-32.791291 28.640259-30.177087 13.583376 2.598388 22.861999 20.094285 20.712287 39.113353-2.157635 19.042103-15.005345 32.625621-28.684066 30.304461-13.673282-2.336975-22.92146-19.921394-20.66848-39.240727zm62.96535 2.547082c2.126693-19.021716 14.863176-32.314634 28.459832-29.725872 13.602098 2.572887 22.991892 19.824549 20.96059 38.567975-2.039229 18.766549-14.806171 32.148329-28.50366 29.853733-13.692047-2.310472-23.051382-19.650996-20.916762-38.695836zm60.967173 1.546951c2.008064-18.747139 14.662732-31.837903 28.277099-29.274489 13.619812 2.547477 23.12017 19.554945 21.207536 38.022692-1.920564 18.490963-14.605703 31.670941-28.320945 29.402856-13.709797-2.284022-23.179683-19.380704-21.16369-38.151059zm60.96901 3.111861c1.889194-18.196856 14.461032-30.893019 28.092096-28.392737 13.63651 2.484518 23.246795 18.997637 21.453062 36.918144-1.801665 17.943471-14.403984 30.727876-28.135956 28.519706-13.726526-2.223935-23.306329-18.825294-21.409202-37.045113zm62.970858 1.546946c1.770112-17.922269 14.258119-30.416262 27.904857-27.941316 13.652187 2.459117 23.371738 18.728037 21.697112 36.372852-1.682561 17.667869-14.201057 30.250457-27.948729 28.068794-13.742225-2.197492-23.431287-18.555006-21.65324-36.50033zm60.972717 2.546803c1.650844-17.647686 14.054036-29.939423 27.715422-27.489712 13.666835 2.433818 23.494964 18.458585 21.939624 35.827666-1.563276 17.392231-13.996964 29.77293-27.759302 27.617717-13.75689-2.171107-23.554523-18.284835-21.895744-35.955671z"/><path d="m386.227195 758.105249c-4.478501 31.202796 12.264616 60.437179 38.872177 64.508472 26.687472 4.055086 50.979156-18.733 55.309017-49.665928 4.252276-30.443837-12.104379-59.204746-37.985004-64.140136l-.776817-.14047c-26.633258-4.576443-50.938684 18.156498-55.419373 49.438062zm52.032374-29.726942.010349.001773c14.622646 2.496834 25.245855 20.930626 22.331163 41.798138-2.907312 20.770105-17.941918 34.874104-32.48696 32.664029-14.581012-2.231085-25.137295-20.662922-22.089396-41.898367 3.01835-21.072366 17.933905-35.022931 32.234844-32.565573z" fill-rule="nonzero"/></g></svg>