<svg width="960" height="960" viewBox="0 0 960 960" fill="none" xmlns="http://www.w3.org/2000/svg">
<path d="M340.121 8.30688C348.913 7.94397 356.909 13.3697 359.82 21.6731L364.898 36.1594C366.181 39.8194 366.372 43.7736 365.448 47.5403L344.553 132.725L533.303 145.042C543.82 145.729 552 154.46 552 165V205.5C552 214.342 546.193 222.135 537.721 224.664L518.5 230.402V246.615C596.043 244.254 663.749 272.039 698.134 290.996L747.43 56.9553L747.521 56.5413C749.537 47.8813 757.044 41.5702 765.957 41.1047C775.012 40.632 783.252 46.3102 786.035 54.9397L791.24 71.0833C792.303 74.3785 792.491 77.8933 791.788 81.2834L731.562 371.571L738.49 596.384C738.692 602.939 735.668 609.177 730.396 613.077L713.5 625.58V739C713.5 796.104 695.587 850.631 686.283 871.609C686.241 871.703 686.198 871.796 686.155 871.89C672.26 901.958 620.319 950.685 518.325 957.456C423.429 963.756 366.808 933.454 345.39 909.178C332.822 902.981 316.461 892.279 302.029 877.423C285.722 860.636 270.591 837.168 268.072 807.703C264.266 763.17 258.687 671.455 255.977 624.405L242.548 611.329C238.424 607.314 236.23 601.718 236.526 595.97L244.441 442.5H190.5C179.454 442.5 170.5 433.546 170.5 422.5V175.5C170.5 167.586 175.167 160.416 182.403 157.212L247.903 128.212L248.444 127.982C251.166 126.871 254.102 126.374 257.043 126.528L294.199 128.467L321.591 23.2512L321.699 22.8547C324.043 14.5486 331.467 8.66418 340.121 8.30688ZM442.905 891.385C431.426 897.174 420.643 901.464 410.824 904.58C433.798 913.595 468.022 920.708 515.675 917.544C527.032 916.79 537.547 915.466 547.265 913.698C517.419 913.789 487.682 908.962 457.525 899.328C452.01 897.566 447.108 894.835 442.905 891.385ZM480.188 671.5C476.002 671.5 472.018 672.388 468.418 673.989L468.356 674.365L467.801 674.272C458.283 678.774 451.588 688.311 451.204 699.508L445.926 853.655C445.503 865.994 452.747 876.806 463.611 880.277C518.078 897.676 570.797 898.331 626.157 881.237C639.772 870.815 647.167 860.81 649.784 855.235C654.034 845.611 660.785 826.51 666 802.955V700.5C666 684.484 653.016 671.5 637 671.5H480.188ZM424.412 667.04C423.649 689.593 421.568 723.656 416.446 773.032C410.181 833.427 394.285 867.288 378.306 885.662C379.931 887.153 381.933 888.799 384.331 890.534C396.112 888.561 411.952 884.16 430.451 875.231C427.26 868.38 425.672 860.732 425.938 852.97L431.216 698.823C431.59 687.896 435.524 677.907 441.877 669.95L424.412 667.04ZM628 808C639.046 808 648 816.955 648 828V830.577C648 852.679 633.309 873.129 610.551 877.473C574.049 884.441 530.13 887.215 494.071 878.771C473.06 873.85 462.127 853.892 462.487 834.751L462.622 827.623C462.827 816.727 471.719 808 482.618 808H628ZM673.5 620.176C560.886 604.543 452.435 608.955 373.746 618.087C377.97 648.684 380.73 693.105 376.684 737.471C372.751 780.588 362.24 825.465 338.768 857.08C347.319 864.372 356.032 869.786 362.658 873.096C375.221 859.099 390.421 830.09 396.554 770.969C406.512 674.97 404.817 638.044 404.511 631.465C404.383 628.722 405.39 626.048 407.293 624.069C409.197 622.09 411.83 620.98 414.576 621.001L673.5 622.97V620.176ZM482.484 835.128C482.254 847.383 489.068 857.058 498.631 859.297C530.872 866.847 571.682 864.532 606.801 857.828C619.101 855.48 628 844.166 628 830.577V828H482.618L482.484 835.128ZM534.417 838.058C539.534 838.09 543.649 842.864 543.607 848.72C543.566 854.576 539.384 859.297 534.267 859.265C529.149 859.233 525.034 854.46 525.075 848.604C525.117 842.748 529.299 838.026 534.417 838.058ZM572.417 838.058C577.534 838.09 581.649 842.864 581.607 848.72C581.566 854.576 577.384 859.297 572.267 859.265C567.149 859.233 563.034 854.46 563.075 848.604C563.117 842.748 567.299 838.026 572.417 838.058ZM500.417 832.058C505.534 832.09 509.649 836.864 509.607 842.72C509.566 848.576 505.384 853.297 500.267 853.265C495.149 853.233 491.034 848.46 491.075 842.604C491.117 836.748 495.299 832.026 500.417 832.058ZM607.417 832.058C612.534 832.09 616.649 836.864 616.607 842.72C616.566 848.576 612.384 853.297 607.267 853.265C602.149 853.233 598.034 848.46 598.075 842.604C598.117 836.748 602.299 832.026 607.417 832.058ZM353.9 620.571C331.494 623.577 312.075 626.899 296.374 630.1C299.216 678.887 304.377 762.753 307.928 804.297C309.148 818.57 315.491 831.45 324.546 842.61C343.369 815.68 353.029 776.638 356.767 735.655C360.666 692.897 357.966 649.884 353.9 620.571ZM560.395 684.778C590.233 684.965 612.015 712.31 611.798 742.948C611.58 773.588 589.413 800.658 559.574 800.471C529.735 800.284 507.955 772.938 508.172 742.299C508.389 711.66 530.556 684.591 560.395 684.778ZM560.253 704.777C543.907 704.674 528.33 720.214 528.172 742.424C528.014 764.635 543.37 780.368 559.716 780.471C576.062 780.573 591.64 765.034 591.798 742.823C591.955 720.612 576.599 704.879 560.253 704.777ZM633 719C638.523 719 643 723.477 643 729V759C643 764.523 638.523 769 633 769C627.477 769 623 764.523 623 759V729C623 723.477 627.477 719 633 719ZM483 714C488.523 714 493 718.477 493 724V758C493 763.523 488.523 768 483 768C477.477 768 473 763.523 473 758V724C473 718.477 477.477 714 483 714ZM560.1 726.472C567.895 726.521 574.164 733.792 574.101 742.713C574.037 751.634 567.666 758.825 559.87 758.777C552.074 758.728 545.806 751.456 545.869 742.535C545.933 733.615 552.304 726.423 560.1 726.472ZM424.781 641.078C424.8 642.791 424.809 644.704 424.805 646.829L465.773 653.657C470.334 652.255 475.175 651.5 480.188 651.5H637C651.501 651.5 664.528 657.801 673.5 667.812V642.97L424.781 641.078ZM685.461 596.568C616.834 583.169 537.25 580.382 463.002 582.808C394.896 585.033 331.743 591.626 286.41 598.209L289.452 601.171L289.784 601.501C292.135 603.899 293.827 606.835 294.735 610.026C369.661 595.043 520.857 578.222 679.862 600.872C680.412 600.36 680.992 599.875 681.604 599.423L685.461 596.568ZM558.618 288.194C539.676 287.098 520.052 287.084 500.312 287.915C499.678 287.973 499.046 288.001 498.416 287.998C498.016 288.016 497.615 288.033 497.215 288.052C420.738 291.61 344.409 307.56 302.428 320.638L285.033 432.057L277.438 579.316C323.873 572.332 390.399 565.169 462.349 562.819C540.266 560.273 625.141 563.35 697.926 578.692L693.869 447.051C693.055 445.662 692.566 444.061 692.506 442.352L688.647 332.624C687.071 331.459 685.58 330.362 684.312 329.447C682.257 327.965 681.77 327.678 682.183 327.914C658.398 314.259 612.73 294.145 558.618 288.194ZM595.196 461.502C600.718 461.611 605.106 466.175 604.998 471.697C604.89 477.218 600.325 481.607 594.804 481.498L569.304 480.998C563.782 480.89 559.394 476.326 559.502 470.804C559.61 465.282 564.175 460.894 569.696 461.002L595.196 461.502ZM632.533 428.016C633.907 428.025 635.007 429.947 634.99 432.31C634.973 434.672 633.846 436.58 632.473 436.572C631.099 436.563 629.999 434.641 630.016 432.279C630.032 429.916 631.16 428.007 632.533 428.016ZM616.533 427.016C617.907 427.025 619.007 428.947 618.99 431.31C618.973 433.672 617.846 435.58 616.473 435.572C615.099 435.563 613.999 433.641 614.016 431.279C614.032 428.916 615.16 427.007 616.533 427.016ZM563.533 426.016C564.907 426.025 566.007 427.947 565.99 430.31C565.973 432.672 564.846 434.58 563.473 434.572C562.099 434.563 560.999 432.641 561.016 430.279C561.032 427.916 562.16 426.007 563.533 426.016ZM582.533 426.016C583.907 426.025 585.007 427.947 584.99 430.31C584.973 432.672 583.846 434.58 582.473 434.572C581.099 434.563 579.999 432.641 580.016 430.279C580.032 427.916 581.16 426.007 582.533 426.016ZM599.533 426.016C600.907 426.025 602.007 427.947 601.99 430.31C601.973 432.672 600.846 434.58 599.473 434.572C598.099 434.563 596.999 432.641 597.016 430.279C597.032 427.916 598.16 426.007 599.533 426.016ZM522.548 425.016C523.921 425.025 525.022 426.947 525.005 429.31C524.988 431.672 523.861 433.58 522.487 433.572C521.114 433.563 520.014 431.641 520.03 429.279C520.047 426.916 521.174 425.007 522.548 425.016ZM543.533 425.016C544.907 425.025 546.007 426.947 545.99 429.31C545.973 431.672 544.846 433.58 543.473 433.572C542.099 433.563 540.999 431.641 541.016 429.279C541.032 426.916 542.16 425.007 543.533 425.016ZM639.548 414.016C640.921 414.025 642.022 415.947 642.005 418.31C641.988 420.672 640.861 422.58 639.487 422.572C638.114 422.563 637.014 420.641 637.03 418.279C637.047 415.916 638.174 414.007 639.548 414.016ZM621.533 413.016C622.907 413.025 624.007 414.947 623.99 417.31C623.973 419.672 622.846 421.58 621.473 421.572C620.099 421.563 618.999 419.641 619.016 417.279C619.032 414.916 620.16 413.007 621.533 413.016ZM605.533 412.016C606.907 412.025 608.007 413.947 607.99 416.31C607.973 418.672 606.846 420.58 605.473 420.572C604.099 420.563 602.999 418.641 603.016 416.279C603.032 413.916 604.16 412.007 605.533 412.016ZM588.533 411.016C589.907 411.025 591.007 412.947 590.99 415.31C590.973 417.672 589.846 419.58 588.473 419.572C587.099 419.563 585.999 417.641 586.016 415.279C586.032 412.916 587.16 411.007 588.533 411.016ZM552.533 410.016C553.907 410.025 555.007 411.947 554.99 414.31C554.973 416.672 553.846 418.58 552.473 418.572C551.099 418.563 549.999 416.641 550.016 414.279C550.032 411.916 551.16 410.007 552.533 410.016ZM571.533 410.016C572.907 410.025 574.007 411.947 573.99 414.31C573.973 416.672 572.846 418.58 571.473 418.572C570.099 418.563 568.999 416.641 569.016 414.279C569.032 411.916 570.16 410.007 571.533 410.016ZM532.533 409.016C533.907 409.025 535.007 410.947 534.99 413.31C534.973 415.672 533.846 417.58 532.473 417.572C531.099 417.563 529.999 415.641 530.016 413.279C530.032 410.916 531.16 409.007 532.533 409.016ZM511.548 408.016C512.921 408.025 514.022 409.947 514.005 412.31C513.988 414.672 512.861 416.58 511.487 416.572C510.114 416.563 509.014 414.641 509.03 412.279C509.047 409.916 510.174 408.007 511.548 408.016ZM631.533 400.016C632.907 400.025 634.007 401.947 633.99 404.31C633.973 406.672 632.846 408.58 631.473 408.572C630.099 408.563 628.999 406.641 629.016 404.279C629.032 401.916 630.16 400.007 631.533 400.016ZM615.533 399.016C616.907 399.025 618.007 400.947 617.99 403.31C617.973 405.672 616.846 407.58 615.473 407.572C614.099 407.563 612.999 405.641 613.016 403.279C613.032 400.916 614.16 399.007 615.533 399.016ZM598.533 398.016C599.907 398.025 601.007 399.947 600.99 402.31C600.973 404.672 599.846 406.58 598.473 406.572C597.099 406.563 595.999 404.641 596.016 402.279C596.032 399.916 597.16 398.007 598.533 398.016ZM562.533 397.016C563.907 397.025 565.007 398.947 564.99 401.31C564.973 403.672 563.846 405.58 562.473 405.572C561.099 405.563 559.999 403.641 560.016 401.279C560.032 398.916 561.16 397.007 562.533 397.016ZM581.533 397.016C582.907 397.025 584.007 398.947 583.99 401.31C583.973 403.672 582.846 405.58 581.473 405.572C580.099 405.563 578.999 403.641 579.016 401.279C579.032 398.916 580.16 397.007 581.533 397.016ZM542.533 396.016C543.907 396.025 545.007 397.947 544.99 400.31C544.973 402.672 543.846 404.58 542.473 404.572C541.099 404.563 539.999 402.641 540.016 400.279C540.032 397.916 541.16 396.007 542.533 396.016ZM521.548 395.016C522.921 395.025 524.022 396.947 524.005 399.31C523.988 401.672 522.861 403.58 521.487 403.572C520.114 403.563 519.014 401.641 519.03 399.279C519.047 396.916 520.174 395.007 521.548 395.016ZM210.5 214.495V402.5H265.5C266.802 402.5 268.089 402.629 269.348 402.875L270.594 394.888C270.205 395.008 269.81 395.121 269.408 395.22C261.624 397.131 254.122 394.319 248.636 390.15C237.593 381.757 230.303 364.812 236.548 346.735C238.353 341.51 241.524 330.297 245.5 315.471V200.552L210.5 214.495ZM639.548 392.016C640.921 392.025 642.022 393.947 642.005 396.31C641.988 398.672 640.861 400.58 639.487 400.572C638.114 400.563 637.014 398.641 637.03 396.279C637.047 393.916 638.174 392.007 639.548 392.016ZM621.533 391.016C622.907 391.025 624.007 392.947 623.99 395.31C623.973 397.672 622.846 399.58 621.473 399.572C620.099 399.563 618.999 397.641 619.016 395.279C619.032 392.916 620.16 391.007 621.533 391.016ZM605.533 390.016C606.907 390.025 608.007 391.947 607.99 394.31C607.973 396.672 606.846 398.58 605.473 398.572C604.099 398.563 602.999 396.641 603.016 394.279C603.032 391.916 604.16 390.007 605.533 390.016ZM588.533 389.016C589.907 389.025 591.007 390.947 590.99 393.31C590.973 395.672 589.846 397.58 588.473 397.572C587.099 397.563 585.999 395.641 586.016 393.279C586.032 390.916 587.16 389.007 588.533 389.016ZM552.533 388.016C553.907 388.025 555.007 389.947 554.99 392.31C554.973 394.672 553.846 396.58 552.473 396.572C551.099 396.563 549.999 394.641 550.016 392.279C550.032 389.916 551.16 388.007 552.533 388.016ZM571.533 388.016C572.907 388.025 574.007 389.947 573.99 392.31C573.973 394.672 572.846 396.58 571.473 396.572C570.099 396.563 568.999 394.641 569.016 392.279C569.032 389.916 570.16 388.007 571.533 388.016ZM532.533 387.016C533.907 387.025 535.007 388.947 534.99 391.31C534.973 393.672 533.846 395.58 532.473 395.572C531.099 395.563 529.999 393.641 530.016 391.279C530.032 388.916 531.16 387.007 532.533 387.016ZM511.548 386.016C512.921 386.025 514.022 387.947 514.005 390.31C513.988 392.672 512.861 394.58 511.487 394.572C510.114 394.563 509.014 392.641 509.03 390.279C509.047 387.916 510.174 386.007 511.548 386.016ZM631.533 381.016C632.907 381.025 634.007 382.947 633.99 385.31C633.973 387.672 632.846 389.58 631.473 389.572C630.099 389.563 628.999 387.641 629.016 385.279C629.032 382.916 630.16 381.007 631.533 381.016ZM615.533 380.016C616.907 380.025 618.007 381.947 617.99 384.31C617.973 386.672 616.846 388.58 615.473 388.572C614.099 388.563 612.999 386.641 613.016 384.279C613.032 381.916 614.16 380.007 615.533 380.016ZM598.533 379.016C599.907 379.025 601.007 380.947 600.99 383.31C600.973 385.672 599.846 387.58 598.473 387.572C597.099 387.563 595.999 385.641 596.016 383.279C596.032 380.916 597.16 379.007 598.533 379.016ZM562.533 378.016C563.907 378.025 565.007 379.947 564.99 382.31C564.973 384.672 563.846 386.58 562.473 386.572C561.099 386.563 559.999 384.641 560.016 382.279C560.032 379.916 561.16 378.007 562.533 378.016ZM581.533 378.016C582.907 378.025 584.007 379.947 583.99 382.31C583.973 384.672 582.846 386.58 581.473 386.572C580.099 386.563 578.999 384.641 579.016 382.279C579.032 379.916 580.16 378.007 581.533 378.016ZM542.533 377.016C543.907 377.025 545.007 378.947 544.99 381.31C544.973 383.672 543.846 385.58 542.473 385.572C541.099 385.563 539.999 383.641 540.016 381.279C540.032 378.916 541.16 377.007 542.533 377.016ZM521.548 376.016C522.921 376.025 524.022 377.947 524.005 380.31C523.988 382.672 522.861 384.58 521.487 384.572C520.114 384.563 519.014 382.641 519.03 380.279C519.047 377.916 520.174 376.007 521.548 376.016ZM640.548 371.016C641.921 371.025 643.022 372.947 643.005 375.31C642.988 377.672 641.861 379.58 640.487 379.572C639.114 379.563 638.014 377.641 638.03 375.279C638.047 372.916 639.174 371.007 640.548 371.016ZM622.533 370.016C623.907 370.025 625.007 371.947 624.99 374.31C624.973 376.672 623.846 378.58 622.473 378.572C621.099 378.563 619.999 376.641 620.016 374.279C620.032 371.916 621.16 370.007 622.533 370.016ZM606.533 369.016C607.907 369.025 609.007 370.947 608.99 373.31C608.973 375.672 607.846 377.58 606.473 377.572C605.099 377.563 603.999 375.641 604.016 373.279C604.032 370.916 605.16 369.007 606.533 369.016ZM589.533 368.016C590.907 368.025 592.007 369.947 591.99 372.31C591.973 374.672 590.846 376.58 589.473 376.572C588.099 376.563 586.999 374.641 587.016 372.279C587.032 369.916 588.16 368.007 589.533 368.016ZM303.151 169.505C292.192 214.03 276.304 277.62 265.5 318.064V319H265.249C260.926 335.158 257.442 347.503 255.451 353.266C252.197 362.688 256.157 370.744 260.738 374.226C263.061 375.991 264.466 375.838 264.638 375.796C264.681 375.785 264.87 375.75 265.22 375.378C265.617 374.956 266.33 373.97 266.976 371.952C272.486 354.733 299.196 243.633 316.449 170.903C315.857 170.813 315.271 170.697 314.693 170.555L303.151 169.505ZM553.533 367.016C554.907 367.025 556.007 368.947 555.99 371.31C555.973 373.672 554.846 375.58 553.473 375.572C552.099 375.563 550.999 373.641 551.016 371.279C551.032 368.916 552.16 367.007 553.533 367.016ZM572.533 367.016C573.907 367.025 575.007 368.947 574.99 371.31C574.973 373.672 573.846 375.58 572.473 375.572C571.099 375.563 569.999 373.641 570.016 371.279C570.032 368.916 571.16 367.007 572.533 367.016ZM533.533 366.016C534.907 366.025 536.007 367.947 535.99 370.31C535.973 372.672 534.846 374.58 533.473 374.572C532.099 374.563 530.999 372.641 531.016 370.279C531.032 367.916 532.16 366.007 533.533 366.016ZM512.548 365.016C513.921 365.025 515.022 366.947 515.005 369.31C514.988 371.672 513.861 373.58 512.487 373.572C511.114 373.563 510.014 371.641 510.03 369.279C510.047 366.916 511.174 365.007 512.548 365.016ZM630.548 361.016C631.921 361.025 633.022 362.947 633.005 365.31C632.988 367.672 631.861 369.58 630.487 369.572C629.114 369.563 628.014 367.641 628.03 365.279C628.047 362.916 629.174 361.007 630.548 361.016ZM614.548 360.016C615.921 360.025 617.022 361.947 617.005 364.31C616.988 366.672 615.861 368.58 614.487 368.572C613.114 368.563 612.014 366.641 612.03 364.279C612.047 361.916 613.174 360.007 614.548 360.016ZM597.548 359.016C598.921 359.025 600.022 360.947 600.005 363.31C599.988 365.672 598.861 367.58 597.487 367.572C596.114 367.563 595.014 365.641 595.03 363.279C595.047 360.916 596.174 359.007 597.548 359.016ZM561.548 358.016C562.921 358.025 564.022 359.947 564.005 362.31C563.988 364.672 562.861 366.58 561.487 366.572C560.114 366.563 559.014 364.641 559.03 362.279C559.047 359.916 560.174 358.007 561.548 358.016ZM580.548 358.016C581.921 358.025 583.022 359.947 583.005 362.31C582.988 364.672 581.861 366.58 580.487 366.572C579.114 366.563 578.014 364.641 578.03 362.279C578.047 359.916 579.174 358.007 580.548 358.016ZM541.548 357.016C542.921 357.025 544.022 358.947 544.005 361.31C543.988 363.672 542.861 365.58 541.487 365.572C540.114 365.563 539.014 363.641 539.03 361.279C539.047 358.916 540.174 357.007 541.548 357.016ZM520.562 356.016C521.936 356.025 523.036 357.947 523.02 360.31C523.003 362.672 521.875 364.58 520.502 364.572C519.128 364.563 518.028 362.641 518.045 360.279C518.062 357.916 519.189 356.007 520.562 356.016ZM329.646 201.858C322.206 233.069 313.826 267.975 306.344 298.597C347.613 286.744 412.074 273.768 478.531 269.113C478.511 268.743 478.5 268.372 478.5 268V215.5C478.5 214.039 478.659 212.607 478.962 211.223L329.646 201.858ZM265.5 237.938C268.845 224.669 272.194 211.287 275.386 198.454L265.5 197.834V237.938ZM210.5 188.518V192.967L248.799 177.71L249.058 177.612C250.357 177.135 251.743 176.933 253.126 177.02L280.277 178.723C281.189 175.036 282.08 171.433 282.942 167.933L259.729 166.722L210.5 188.518ZM336.674 172.295C335.917 175.489 335.139 178.765 334.344 182.114L504.643 192.794L512 190.598V183.737L336.674 172.295Z" fill="black"/>
</svg>
