<?xml version="1.0" encoding="utf-8"?>
<!-- Generator: Adobe Illustrator 21.0.0, SVG Export Plug-In . SVG Version: 6.00 Build 0)  -->
<svg version="1.1" id="Layer_1" xmlns="http://www.w3.org/2000/svg" xmlns:xlink="http://www.w3.org/1999/xlink" x="0px" y="0px"
	 viewBox="0 0 1218.1 885.2" style="enable-background:new 0 0 1218.1 885.2;" xml:space="preserve">
<style type="text/css">
	.st0{fill:#010101;}
</style>
<g>
	<path class="st0" d="M1208.6,497.6l0.2,0L1186,259.9c-0.2-1.7-0.7-3.3-1.5-4.8c-19.8-35.8-48.8-69.5-86.3-100
		c-36.8-30-81-56.4-131.3-78.4C862.6,31.2,738.8,7.1,609.1,7.1c-129.7,0-253.4,24.1-357.7,69.6c-50.3,22-94.5,48.3-131.3,78.3
		c-37.4,30.5-66.5,64.1-86.3,99.9c-0.9,1.6-1.4,3.3-1.6,5l-23,239.7c-2.4,12.4-3.6,24.9-3.6,37.5c0,46.5,16.2,91.5,48.1,133.8
		c30.6,40.5,74.3,76.9,129.9,108.1C297.3,842.9,448.4,878,609.1,878c160.7,0,311.8-35.1,425.5-98.9c55.6-31.2,99.3-67.5,129.9-108.1
		c31.9-42.3,48.1-87.3,48.1-133.8C1212.6,523.9,1211.2,510.7,1208.6,497.6z M43.1,261.1c0-0.3,0.1-0.6,0.2-0.8
		c19.1-34.6,47.3-67.1,83.6-96.7c36.1-29.4,79.4-55.2,128.8-76.8c102.9-44.9,225.1-68.7,353.3-68.7c128.3,0,250.5,23.8,353.4,68.7
		c49.4,21.6,92.7,47.4,128.8,76.8c36.4,29.6,64.5,62.2,83.6,96.8c0.1,0.2,0.1,0.3,0.2,0.5l16.5,172
		c-33.1-70.8-100.4-130.8-196.5-174.8c-105.9-48.5-239.4-74.1-386-74.1c-274.3,0-512.1,103.4-582.5,249.5L43.1,261.1z M1190.1,444.6
		c-7-14-15.5-27.7-25.7-41.2c-30.6-40.5-74.3-76.9-129.9-108.1c-113.8-63.8-264.9-98.9-425.5-98.9c-160.7,0-311.8,35.1-425.5,98.9
		c-55.6,31.2-99.3,67.5-129.9,108.1c-9.7,12.9-18,26.1-24.8,39.5c30.1-67.8,98.8-129.4,195.8-174.8c52.7-24.7,112-44,176.2-57.3
		c66.5-13.8,136.6-20.8,208.2-20.8c145.7,0,278.3,25.4,383.5,73.6C1091.3,308.9,1159.3,371.2,1190.1,444.6z M609.1,867
		C282.4,867,16.6,719.1,16.6,537.3s265.8-329.8,592.5-329.8s592.5,147.9,592.5,329.8S935.8,867,609.1,867z"/>
	<path class="st0" d="M896.2,390.1c-76.7-42.9-178.7-66.5-287.1-66.5s-210.4,23.6-287.1,66.5c-37.5,20.9-66.9,45.3-87.5,72.5
		c-21.5,28.4-32.4,58.5-32.4,89.6s10.9,61.3,32.4,89.6c20.6,27.2,50,51.6,87.5,72.5c76.7,42.9,178.7,66.5,287.1,66.5
		s210.4-23.6,287.1-66.5c37.5-20.9,66.9-45.3,87.5-72.5c21.5-28.4,32.4-58.5,32.4-89.6s-10.9-61.3-32.4-89.6
		C963.1,435.5,933.7,411.1,896.2,390.1z M609.1,775c-221.1,0-401-99.9-401-222.6s179.9-222.6,401-222.6c221.1,0,401,99.9,401,222.6
		S830.2,775,609.1,775z"/>
	<path class="st0" d="M869,410c-69.5-37.5-161.8-58.2-260-58.2c-98.2,0-190.5,20.7-260,58.2c-70.1,37.9-108.7,88.4-108.7,142.3
		S279,656.8,349.1,694.7c69.5,37.5,161.8,58.2,260,58.2c98.2,0,190.5-20.7,260-58.2c70.1-37.9,108.7-88.4,108.7-142.3
		S939.1,447.9,869,410z M609.1,746.9c-200,0-362.7-87.3-362.7-194.5s162.7-194.5,362.7-194.5c200,0,362.7,87.3,362.7,194.5
		S809,746.9,609.1,746.9z"/>
</g>
</svg>
