<svg height="960" viewBox="0 0 960 960" width="960" xmlns="http://www.w3.org/2000/svg"><path d="m477.799197 2.49451325c75.876216 0 132.65187 4.93181745 171.526729 15.36638365 17.479076 4.6916329 29.630477 20.5347617 29.630477 38.6325378v768.3591383c0 2.143729-.171282 4.260719-.519844 6.3303 2.715313 1.389459 5.299897 2.984805 7.814346 4.879556 4.016506 3.026619 7.633206 6.66806 10.690129 11.291511 4.45499 6.737962 7.106278 14.764415 7.106278 23.495643v27.782585c0 11.768627-4.626195 21.719997-11.659836 29.272216-4.013685 4.309608-8.386202 7.430242-13.191844 9.991473-5.665795 3.019662-11.929307 5.216518-19.335908 7.127663-11.243323 2.901146-26.134646 5.310374-44.351462 7.307073-35.193556 3.857476-82.179255 6.073392-132.383193 6.16392h-3.077757c-50.809066 0-98.568553-2.1806-134.400609-6.048582-18.497502-1.99676-33.627029-4.414207-45.031358-7.324781-7.478298-1.908586-13.794206-4.100598-19.493196-7.106966-4.827937-2.546865-9.219548-5.649439-13.258541-9.94265-7.119096-7.567178-11.816296-17.570138-11.816296-29.439366v-27.782585c0-.998904.037418-1.997456.112174-2.993558l.024651-.32846c.074024-.986331.184606-1.969577.33152-2.947711 1.204813-8.021513 4.530098-14.951451 9.160926-20.666363 3.082292-3.803861 6.51344-6.807786 10.238985-9.331424 2.77433-1.879297 5.638573-3.44571 8.673601-4.809627-.211964-1.618468-.314584-3.261822-.314584-4.919867v-768.3591383c0-17.4694492 11.336866-32.9181778 28.001923-38.1581727 34.580084-10.87301851 89.060628-15.84074875 165.522689-15.84074875zm176.734282 895.46522075c-10.324127 2.634889-24.597266 4.915499-42.232039 6.819129-35.058025 3.784428-82.117451 5.933065-132.254128 5.933065s-97.196103-2.148637-132.254129-5.933065c-17.634772-1.90363-31.907911-4.18424-42.232039-6.819129-3.537454-.902817-6.692793-1.861833-9.513249-2.92769l-.000583 3.600124c0 10.96967 82.379606 19.862345 184 19.862345h3.042776c100.216972-.178061 180.957224-9.002371 180.957224-19.862345l.000408-3.600499c-2.820708 1.066007-5.976372 2.025142-9.514241 2.928065zm-298.270518-41.806083-.870665.086087c-.874803.087021-1.741772.174945-2.600779.26376-.310281.03208-.619465.064271-.927603.096577l.927603-.096577c-.510841.052816-1.018867.105948-1.52405.159392l.596447-.062815c-.328126.034401-.655067.068934-.980817.103596l.38437-.040781c-.52193.055215-1.040827.110763-1.55666.166642l1.17229-.125861c-.487469.051871-.97227.104033-1.454379.156484l.282089-.030623c-.453689.049146-.905008.098547-1.353938.148201l1.071849-.117578c-.600089.065287-1.196008.131021-1.787708.197198l.715859-.07962c-.338698.037463-.676035.075069-1.012004.112818l.296145-.033198c-.853451.095451-1.698126.191823-2.533885.2891-.79759.092834-1.587188.186508-2.368541.280993-.029454.003562-.057108.006908-.084752.010256l.084752-.010256c-.39073.047249-.779397.094701-1.165988.142355l1.081236-.132099c-.987831.119619-1.962456.240537-2.923629.362727-.208499.026505-.416266.053058-.623398.07967l.623398-.07967c-.459194.058375-.915317.11704-1.368344.175993l.744946-.096323c-.393738.050587-.78518.101389-1.174312.152404l.429366-.056081c-.428562.055769-.854354.111796-1.27735.168077l.847984-.111996c-.409411.053674-.816263.107584-1.220537.161728l.372553-.049732c-.404769.053856-.806979.107945-1.206611.162265l.834058-.112533c-.404219.054136-.80586.108506-1.204903.163108l.370845-.050575c-.860156.116917-1.708364.234905-2.544426.353942-.093651.013334-.185412.026433-.277025.039544l.277025-.039544c-.407673.058043-.812457.116336-1.21433.174876l.937305-.135332c-.366726.052484-.731095.105171-1.093091.158059l.155786-.022727c-.364505.053096-.726615.106396-1.086314.159897l.930528-.13717c-1.325496.193655-2.619171.390002-3.880191.588952-.16608.026202-.330908.052341-.495171.078524l.495171-.078524c-.391342.061741-.779539.123734-1.164566.185974l.669395-.10745c-.307626.049034-.613275.098225-.916935.14757l.24754-.04012c-.665195.10753-1.320928.2158-1.967071.324796-.551775.093075-1.097333.186817-1.635799.28108-.549732.096237-1.092021.193008-1.626833.290315-.503163.09155-.999358.183507-1.488873.27593-.127382.02405-.254498.048168-.381159.072316l.381159-.072316c-.349268.065944-.695136.132124-1.037576.198539l.656417-.126223c-.747882.142589-1.479901.286274-2.195799.431029-.110352.022314-.22017.044622-.329605.066955l.329605-.066955c-.313476.063385-.623861.126975-.931133.190768l.601528-.123813c-.293692.059935-.584625.120053-.872782.18035l.271254-.056537c-.273896.056863-.545319.113888-.814253.171072l.542999-.114535c-.33475.070046-.665753.140336-.992981.210864l.449982-.096329c-.261746.055655-.521134.111461-.77815.167417l.328168-.071088c-.282505.06089-.562196.121958-.839056.183203l.510888-.112115c-.666176.145035-1.31642.291073-1.950485.438089-.122419.028386-.243376.056606-.363736.084862l.363736-.084862c-.498878.115672-.987741.231948-1.466468.348817-.987132.24098-1.931372.484533-2.83144.730491-.016633.004545-.033839.009252-.051029.01396l.051029-.01396c-.824812.225392-1.612531.452804-2.362343.682147-.300228.091832-.593918.183826-.881498.276124-.403708.129567-.7955.259774-1.175098.390563-.313229.107919-.618381.216318-.915138.325105-.299304.109729-.588966.219423-.870071.329499-.262449.102772-.517293.205817-.764622.309189-.058486.024445-.116131.04873-.173361.073033l.173361-.073033c-.165475.069161-.327586.138468-.486312.207919l.312951-.134886c-.218595.092827-.431134.185915-.637568.279258l.324617-.144372c-.161159.070515-.318829.141179-.472989.211989l.148372-.067617c-.132347.059844-.262185.119792-.389501.179844l.241129-.112227c-.329275.151245-.642535.303156-.939578.455712-.026092.013401-.051468.026501-.076725.039606l.076725-.039606c-.140137.071971-.276663.144086-.409559.216342l.332834-.176736c-.147969.076775-.291832.153713-.431564.23081l.09873-.054074c-.127096.069102-.250871.138334-.371306.207692l.272576-.153618c-.168042.092718-.330109.185667-.486154.278843l.213578-.125225c-.121484.069963-.23957.140055-.354239.210273l.140661-.085048c-.127261.075987-.250517.152125-.369744.22841l.229083-.143362c-.127.077771-.249809.155697-.3684.233777l.139317-.090415c-.104232.066691-.205384.133495-.303441.20041l.164124-.109995c-.111984.07373-.220208.147597-.324649.221598l.160525-.111603c-.120886.082494-.237067.165156-.348513.247984l.187988-.136381c-.10155.071953-.199524.144033-.293901.216237l.105913-.079856c-.097655.072578-.191675.145284-.282038.218114l.176125-.138258c-.099958.076474-.195881.153088-.287745.22984l.11162-.091582c-.093974.075741-.183993.151617-.270035.227626l.158415-.136044c-.088622.074041-.173466.148211-.254512.222505l.096097-.086461c-.082063.072492-.160507.145106-.235312.217837l.139215-.131376c-.083646.076679-.163245.153491-.238775.230435l.09956-.099059c-.0721.070101-.14082.140311-.206142.21063l.106582-.111571c-.075329.076738-.146609.153606-.213817.230602l.107235-.119031c-.077498.083426-.150215.167005-.218119.250733l.110884-.131702c-.062205.071265-.120923.142639-.176133.21412l.065249-.082418c-.058889.072613-.11416.145338-.165791.218173l.100542-.135755c-.061405.079501-.118472.159135-.171176.2389l.070634-.103145c-.051001.071945-.098451.143999-.142331.216157l.071697-.113012c-.051335.077692-.09853.155508-.141562.233445l.069865-.120433c-.046929.077172-.089776.154464-.128516.231875l.058651-.111442c-.041072.074387-.078352.148884-.111819.22349l.053168-.112048c-.037016.073965-.070283.148038-.099782.222216l.046614-.110168c-.036551.081483-.068554.163094-.095982.244832l.049368-.134664c-.030341.076299-.056695.152709-.07904.229228l.029672-.094564c-.023845.071061-.044232.142218-.061143.213469l.031471-.118905c-.023703.081169-.042894.162461-.057547.243872l.026076-.124967c-.017746.074766-.031664.149636-.041735.224606l-.019722.293818c0 9.295513 59.153351 17.099623 139.041951 19.265191-5.106679-.313618-9.896727-.680749-14.287202-1.09754-8.293758-.78733-15.075253-1.740237-20.189661-2.88812-3.377955-.758151-6.231541-1.629098-8.849266-2.843497-2.317399-1.075073-4.445647-2.397324-6.492408-4.310565-3.999489-3.738581-6.768869-8.924972-6.768869-15.412304 0-.098871.000688-.197546.011516-.293168-.011068-.074086-.011509-.150878-.011516-.227771l-.000069-3.35277c-7.989347-1.015601-15.399528-2.192352-22.238827-3.535388zm246.699856-.084756-.747128.137538c-5.834696 1.062859-12.010609 2.022548-18.530418 2.880743l-.001596 3.954573c-.000006.076914-.000447.153727-.011515.227804.010827.095632.011515.194315.011515.293195 0 6.487332-2.76938 11.673723-6.768868 15.412304-2.046762 1.913241-4.17501 3.235492-6.492408 4.310565-2.617725 1.214399-5.471311 2.085346-8.849266 2.843497-5.114409 1.147883-11.895903 2.10079-20.189662 2.88812-3.892083.369478-8.098172.699931-12.561671.988591 77.949279-2.306645 135.225512-10.009405 135.225512-19.156242 0-5.869591-23.585668-11.144528-61.084495-14.780688zm-125.16362 8.594697c-30.297532 0-56.685472-.928309-79.299299-2.86892l.001959 1.245383.180526.000141c-.11972.172717-.180526.34696-.180526.522552 0 4.330133 36.97721 7.8404 82.590909 7.8404 45.6137 0 82.590909-3.510267 82.590909-7.8404 0-.175592-.060805-.349835-.180525-.522552l.180525-.000141.000557-1.735393c-24.553433 2.261545-53.146259 3.35893-85.885035 3.35893zm5.457537-321.526914-6.3415-.000013c-50.924393-.024767-90.438302-.656352-118.580672-1.898049-14.183566-.625807-25.41814-1.372546-34.060819-2.346836l.000842 285.960793.597282.336028c.054944.030468.11004.0609.165287.091296.209005.114989.419932.229334.633027.343168l-.633027-.343168c.21564.118641.433592.236737.653856.354289l-.020829-.011121c.468411.250223.947293.497979 1.436646.74327.058085.029114.115771.057922.173602.086696l-.173602-.086696c.484344.242779.978947.483143 1.483807.721091.110676.052162.221463.104031.33274.155784.415846.193411.839475.385631 1.269972.576233.128163.056743.256477.113143.385395.169401.162029.070707.325541.141417.490014.2119l-.490014-.2119c.237278.103543.476603.206605.717976.309184l-.227962-.097284c.284797.122046.572475.243414.863034.364103l-.635072-.266819c.293861.124885.590757.249056.890687.372513l-.255615-.105694c.563501.234061 1.137839.46557 1.723013.694526.102413.04007.204843.07994.307604.119732l-.307604-.119732c.33391.130646.671347.260461 1.012314.389445l-.70471-.269713c.276147.106934.554676.213306.835588.319117l-.130878-.049404c.606562.229457 1.224291.456284 1.853186.68048.037156.013246.074458.026521.1118.039787l-.1118-.039787c.555414.198001 1.119536.393951 1.692368.587849.150762.05103.300884.101503.4516.151835l-.4516-.151835c.381862.129257.767595.257603 1.157198.385037l-.705598-.233202c.328442.109687.659702.218709.993781.327067l-.288183-.093865c.655228.214316 1.321404.426055 1.998525.635215.501985.155058 1.009312.308499 1.522639.460528.130651.038694.262296.077475.394333.116163l-.394333-.116163c.286335.084802.574538.169164.864607.253086.268798.077769.539742.155315.812295.232481l-.812295-.232481c.350757.10148.704244.202318 1.06046.302512l-.248165-.070031c.270462.076574.542508.152774.81614.228602l-.567975-.158571c.38623.108637.775669.216517 1.168317.323642.267213.072904.536581.145636.807442.218016l-.807442-.218016c.31834.086851.63879.173205.961349.259063l-.153907-.041047c.349062.093278.700606.185971 1.054629.27808l-.900722-.237033c.403039.10728.809371.213783 1.218997.319511l-.318275-.082478c.724965.18862 1.460333.374789 2.206103.558509.155665.038347.311116.076425.467016.114397l-.467016-.114397c.44056.108531.88475.216207 1.33257.323028l-.865554-.208631c.36805.089644.738604.178699 1.111663.267164l-.246109-.058533c.748874.178633 1.5079.354875 2.277079.528725.132432.029932.264016.059535.395896.089069l-.395896-.089069c.460959.104187.925565.207515 1.393817.309984l-.997921-.220915c.372726.083471.747815.166384 1.125266.248742l-.127345-.027827c.783105.171369 1.576408.340337 2.379909.506903.129409.026826.259055.053585.388966.080281l-.388966-.080281c.81169.168263 1.633787.334075 2.466291.497436.147927.029027.295434.057832.443267.086559l-.443267-.086559c.482798.094739.969097.188654 1.458896.281744l-1.015629-.195185c.488063.094843.979672.188851 1.474826.282024l-.459197-.086839c.890105.169171 1.791768.33562 2.704991.499347.057856.010372.115545.020696.17328.031009l-.17328-.031009c.423553.075936.849593.151287 1.278119.226052l-1.104839-.195043c.548672.098004 1.101503.195029 1.658493.291075l-.553654-.096032c1.780807.310698 3.604555.611282 5.471244.901753.258118.040164.516425.080039.775549.119721.22299.034149.447809.068341.673239.102388l-.673239-.102388c.396552.060727.795017.121004 1.195396.18083l-.522157-.078442c.520038.078543 1.043331.15632 1.56988.23333l-1.047723-.154888c.519305.077597 1.041829.154435 1.567573.230515.229598.033226.460429.066395.691878.099419l-.691878-.099419c.476701.068984.956049.137344 1.438044.205081l-.746166-.105662c.600561.08569 1.205277.170402 1.81415.254134l-1.067984-.148472c.453635.063751.909614.12695 1.367937.189597l-.299953-.041125c.409785.056354.821453.112265 1.235004.167732l-.935051-.126607c.6795.092879 1.364152.184544 2.053957.274996.135138.017721.271962.035588.408988.053408l-.408988-.053408c.328265.043044.657696.085813.988294.128308l-.579306-.0749c.619822.080607 1.243781.16024 1.871875.238899l-1.292569-.163999c.562174.072261 1.127722.143727 1.696644.214398l-.404075-.050399c1.041925.130485 2.095231.258289 3.159918.383413.032877.003863.066203.007776.099539.011686l-.099539-.011686c.454642.05343.91136.106371 1.370153.158824l-1.270614-.147138c.618432.072534 1.240698.144164 1.866799.214891 1.271363.14362 2.558979.283562 3.862417.419777.477091.049857.954698.099051 1.43441.14775.188523.019138.378809.038344.569425.057473l-.569425-.057473c.394593.040057.790612.079779 1.188054.119165l-.618629-.061692c1.181694.118584 2.376078.23418 3.583151.346787.059426.005544.118854.011078.178312.016604l-.178312-.016604c22.739494 2.121349 49.982398 3.182024 81.728713 3.182024 24.680515 0 46.886169-.641068 66.616963-1.923204l-.001046-284.425948c0-5.373554 4.246699-9.78645 9.616296-9.992636l67.898339-2.607208c5.669155-.217688 10.383705 4.319303 10.383705 9.992636l.002435 271.951931c.35488-.135805.70662-.272423 1.055219-.409855.158769-.062591.317969-.125784.476509-.189147l-.476509.189147c.693811-.273528 1.375182-.550278 2.044114-.830251.016763-.007016.033392-.013981.050014-.020948l-.050014.020948c.89784-.375779 1.77327-.757363 2.62629-1.144751.057756-.026229.115491-.052522.173122-.078842l-.173122.078842c.307883-.139822.612847-.280399.914891-.421733l.003167-286.213594c-26.661466 3.087791-77.698355 4.461267-155.702836 4.497699zm129.056719 125.082606-47.898339 3.483696v165.681732l45.356448-3.108251c.604518-.136693 1.203828-.274737 1.797929-.414129.11193-.026261.224029-.052655.335942-.079096l-.335942.079096c.249662-.058577.498403-.117393.746225-.176447zm-22.340106 86.782199c4.0095-.250303 7.259841 2.984797 7.259841 7.225799s-3.250341 7.934288-7.259841 8.249186c-4.0095.314899-7.259842-2.920202-7.259842-7.225798s3.250342-7.998883 7.259842-8.249187zm0-25.399053c4.0095-.153412 7.259841 3.160234 7.259841 7.401236s-3.250341 7.855743-7.259841 8.073749-7.259842-3.09564-7.259842-7.401236c0-4.305597 3.250342-7.920337 7.259842-8.073749zm0-25.38355c4.0095-.05652 7.259841 3.335673 7.259841 7.576675 0 4.241001-3.250341 7.777196-7.259841 7.89831-4.0095.121115-7.259842-3.271078-7.259842-7.576674 0-4.305597 3.250342-7.841791 7.259842-7.898311zm-7.259842-17.979864c0-4.305597 3.250342-7.619243 7.259842-7.401237 4.0095.218007 7.259841 3.832747 7.259841 8.073749s-3.250341 7.554648-7.259841 7.401236-7.259842-3.768152-7.259842-8.073748zm29.599949-120.140427-47.89834 1.839234-.000802 83.71169 47.899-3.484zm-134.514257-523.6040758c-72.668693 0-123.843564 4.6663072-153.524612 13.9989215l.000348 462.2533983c.556046.068645 1.130338.136693 1.722209.203795 8.067731.914648 19.157067 1.686987 33.219001 2.307427 27.802734 1.226711 67.054121 1.854014 117.715213 1.878615l3.115956.000753c81.873669 0 135.990191-1.655345 158.913096-4.465883l-.004005-462.1781053c-34.42175-9.2392881-87.416027-13.9051287-158.98283-13.9975216z"/></svg>