<svg height="960" viewBox="0 0 960 960" width="960" xmlns="http://www.w3.org/2000/svg"><path d="m598.787045 41.571784c31.27915 24.4024105 53.343106 57.3950067 62.454247 92.892172 9.116572 35.518326 4.739037 71.589804-13.791541 101.030086-1.260379 2.592215-2.824587 5.057225-4.667232 7.351889l-.74713.930408c-.559643.758339-1.132072 1.508222-1.713841 2.25177-1.294148 1.654022-2.629829 3.27069-4.008507 4.846728l-32.956468 40.887832c-.991569 1.230202-2.047046 2.391257-3.171233 3.465731-14.186077 15.813141-32.135661 27.201437-52.257063 33.869951.049968 1.157019.069645 2.34576.069645 3.594383 0 2.479119-.089097 5.270164-.258761 8.463194-.016483.310191-.036578.620179-.060281.929901l-.844121 11.029674-.000075 235.745028c1.691221 9.848553-.361681 20.473705-7.137066 29.776301l-.520048.714024v189.631826c13.555902 1.237198 25.960921 2.915505 36.681584 4.985067 12.174482 2.350213 22.380323 5.214059 30.760952 8.933605 2.7452 1.218392 5.353945 2.553761 7.849051 4.055317 3.146871 1.893789 6.100418 4.040241 8.868524 6.567506 3.785124 3.455797 7.09062 7.494942 9.714261 12.316452 3.444358 6.329757 5.391983 13.498759 5.391983 21.065672v15.328125c0 .62159-.014489 1.243096-.043455 1.864011l-.015767.337971c-.028879.61904-.072139 1.237324-.129747 1.854354-.520047 5.570131-2.085101 10.842276-4.493255 15.650492-.37352.745783-.764259 1.47487-1.176696 2.182451-.136387.837481-.321338 1.657907-.577778 2.449698-.04557.202702-.09766.402595-.155466.599932-.147543.706409-.355368 1.388077-.608039 2.048836-.800951 2.513107-1.82874 4.916336-3.048627 7.198345-1.752552 3.278451-3.842694 6.204089-6.190853 8.827391-3.433615 3.835946-7.228099 6.847492-11.363499 9.382669-5.332031 3.268762-11.170017 5.699027-17.840534 7.763905-5.04116 1.560505-10.753224 2.952454-17.091947 4.186736-2.975945 2.101995-6.285795 3.836896-9.803445 5.362805-3.105076 1.34694-5.737387 2.105872-8.554345 2.712317-2.609733.561834-5.239734.934337-8.329564 1.256155-4.431627.461572-10.225897.839403-17.296767 1.150899-13.603713.59929-31.709633.936658-50.967132.936658-19.257498 0-37.363418-.337368-50.967131-.936658-7.070871-.311496-12.86514-.689327-17.296768-1.150899-3.089829-.321818-5.719831-.694321-8.329563-1.256155-2.816959-.606445-5.44927-1.365377-8.554345-2.712317-3.517544-1.525864-6.827302-3.260706-9.80334-5.362785-6.338826-1.234301-12.05089-2.626251-17.092051-4.186756-6.670517-2.064877-12.508504-4.495142-17.840535-7.763905-4.135399-2.535176-7.929883-5.546723-11.363499-9.382669-2.348159-2.623302-4.438301-5.548939-6.190853-8.82739-1.219952-2.282131-2.247785-4.685494-3.04876-7.198753-.252629-.660638-.460452-1.342314-.608003-2.048769-.057763-.197201-.109826-.396992-.155381-.59964-.255622-.788608-.439988-1.605987-.57631-2.440044-.831581-1.445251-1.589078-2.957431-2.268709-4.53604-2.327343-5.40582-3.591668-11.28453-3.591668-17.362845v-15.328125c0-7.566873 1.947606-14.735842 5.391932-21.065577 2.623623-4.821504 5.9291-8.860649 9.714205-12.316448 2.768095-2.52727 5.721632-4.673727 8.868492-6.56752 2.495096-1.50156 5.103831-2.836931 7.849019-4.055326 8.380581-3.719547 18.586351-6.583393 30.760746-8.933608 10.720728-2.069592 23.12585-3.747921 36.681962-4.985147v-188.520375c-5.623709-6.879629-8.990829-15.67188-8.990829-25.251127v-208.696111c0-9.100714-.442282-16.65279-1.279871-22.904864-.705675-5.267426-1.667654-9.462054-2.859145-12.903731-1.850335-5.344783-4.40269-9.41079-9.779004-15.566702-1.772435-2.029448-3.751021-4.180969-6.939524-7.566625-.46862-.497597-3.428461-3.633178-4.333057-4.594851-1.806433-1.920412-3.329172-3.553642-4.837492-5.193778-16.643275-18.097769-25.785449-39.737761-26.775308-63.394225-14.251131-21.552872-23.162659-45.545518-25.803422-69.783659-3.36587-30.893505 3.584672-60.967934 20.834403-85.6959676l.026519-.0379689.103665-.1482405.026561-.0379353c1.188126-1.6948397 2.422065-3.3602605 3.701209-4.9951084 1.83393-2.3439055 3.751049-4.6125238 5.753237-6.79852l25.634665-31.5427957c1.096819-1.551083 2.232603-3.0771128 3.40649-4.5774343 12.030309-15.3756695 27.500085-27.338429 45.336192-35.3844622 16.807069-7.58182493 35.377533-11.53403365 54.614216-11.82573321 37.681274-.57138808 76.384004 12.86744001 108.611091 38.00932311zm-84.725509 805.726891-.000788 18.145043c0 9.785311-6.463173 18.394057-15.85894 21.125307-5.387125 1.56598-11.204692 2.308046-17.444799 2.308046-6.240106 0-12.057673-.742066-17.444798-2.308046-9.395767-2.73125-15.85894-11.339996-15.85894-21.124321l-.00179-18.092753c-48.250751 2.55133-83.358023 10.340857-83.358023 19.55435v15.328125c0 2.079647 1.78866 4.086746 5.113397 5.977432l-.002324.552233c15.687101 8.085268 59.704282 13.907835 111.552478 13.907835 53.977635 0 99.467796-6.310661 113.340535-14.91524.0317-.019661.063213-.039322.094561-.058994l.424429-.273778c.026221-.017397.052313-.034804.078277-.052219l.357791-.246343c.01717-.012141.034278-.024287.051323-.036437l.369808-.271725c.022085-.016741.044052-.03349.0659-.050247.243252-.186566.471761-.37406.685359-.562483.03207-.02829.063849-.056642.09529-.085014l.243589-.226733c.034382-.03304.068307-.066109.101774-.099204l.251893-.258885c.013367-.0143.02665-.028604.039847-.042913.183657-.199149.350567-.39902.500696-.599806.009382-.012548.018517-.024854.027588-.037163l.199691-.287052c.012463-.019044.024775-.038095.036937-.057155l.149493-.24807c.011118-.019599.022077-.039207.032875-.058822l.146699-.287828c.006887-.014687.013684-.029378.020392-.044073l.121317-.292145c.009362-.025021.018464-.050054.027307-.0751l.076158-.238234c.004581-.015998.009055-.032001.013424-.048009l.066923-.287422c.004752-.024644.009252-.049299.013501-.073964l.037773-.28447.015766-.337972v-15.328125c0-9.278569-35.604959-17.112986-84.382389-19.607626zm-37.080092-22.507999c-3.407145 0-6.580603-.074547-9.52986-.231301l.001687 40.884343c0 .889438.587557 1.671996 1.441641 1.92027 3.470104 1.008722 7.424137 1.513083 11.862097 1.513083 4.437961 0 8.391993-.504361 11.862098-1.513083.854084-.248274 1.441641-1.030832 1.441641-1.92027l.000157-18.845775.001489-22.565455c-5.271931.507795-10.96372.758188-17.08095.758188zm4.04291-209.750469c-4.858682.084809-11.085278.109822-18.687451.07534l-.001236 188.941317c3.928101.483703 8.821995.733812 14.645777.733812 8.507041 0 15.913525-.533507 22.197109-1.572481l-.001834-188.739008c-7.309875.290317-13.358351.47734-18.152365.56102zm-77.826417-337.62775.300781.551889c.045848.083079.091914.166085.138199.249019.130273.233424.262193.466132.395883.698348.028175.048937.056308.097644.084517.146326.469282.809886.959996 1.613354 1.471812 2.409836.08206.127703.164774.255396.248032.382909l.056308.086084c.206884.315722.417107.630338.630643.943812l.19664.286989c.107402.15584.215632.311405.324691.466696.13137.187059.263849.373591.397567.559778.533435.742727 1.085442 1.478432 1.656527 2.20782l.092577.117971c.079741.101385.159852.202647.240413.30389l.208026.260132-.033735-.042011c.065579.081732.131401.163383.197473.244965.385057.475444.778345.948177 1.179855 1.418187l-.033321-.039033c.319168.374165.643543.746605.973263 1.117475.275191.309534.553827.617663.836089.924592 24.560967 26.707408 40.585443 37.334847 40.585443 95.806931l.000305 208.537065c11.72725.107553 20.84369.104334 27.329381-.008874 6.347621-.110798 15.072917-.412466 26.158242-.905132l.001014-241.872518c-4.928947 2.353323-10.551596 3.565224-16.780219 3.565224-10.5274 0-20.237989-2.958618-28.164835-8.131053-7.255695-4.734496-12.69662-11.172346-14.758053-17.710329-.799144-2.534543-3.659446-7.377572-8.218957-13.552823-4.906183-6.644772-11.522778-14.524682-19.348048-23.016403-2.397957-2.602183-4.422951-5.211768-6.06408-7.844483-1.423629-1.040711-2.834779-2.106392-4.232648-3.196937-1.953329-1.523888-3.865798-3.084673-5.736285-4.68043zm54.715807 31.215858c4.153892 6.01372 6.957449 11.114233 8.292037 15.346974.1967.623848.788799 1.637861 1.754425 2.780417 1.233408 1.459402 2.890008 2.909879 4.858739 4.194519 4.714221 3.076129 10.636749 4.880602 17.235398 4.880602 8.028377 0 12.961082-3.285386 16.305517-11.067199-.633592-1.088283-1.260283-1.721161-1.491638-2.07325-1.099709-1.673595-1.975607-3.846897-2.627692-6.519906l-.789079-.008368c-14.523142-.198646-29.225926-2.764418-43.537707-7.533789zm-73.076327-187.481528c-.118725.166563-.236721.333486-.353989.500767l-.103665.148241c-.403754.578795-.798822 1.161852-1.185231 1.749047l-.034905.053089-.279855.429096c-.04134.063842-.082578.127733-.123714.191672l-.182491.285057-.333768.528371c-.160146.255811-.31869.51237-.475637.769667-.2004.328536-.398194.658274-.593386.989195-.107061.181506-.213339.363367-.318835.54558l-.435069.761357c-.074614.132284-.148821.264748-.222621.397392l-.405815.738687c-.046335.085439-.092504.170951-.138506.256536l-.108695.202941-.420677.7993c-.174157.335592-.345786.672265-.514894 1.009999-.061532.122891-.122502.24546-.18314.368168l-.125503.255202-.0637.130392-.387913.807513c-.094676.200016-.188487.400387-.281433.601108l-.022613.048879c-.443143.958706-.866574 1.925398-1.270396 2.899635-.38721.934266-.756226 1.874936-1.10732 2.822147l-.301006.825813c-.014054.039228-.028078.078468-.042072.117718l-.015286.042913-.077122.217695-.024952.070955c-.171283.487139-.337894.975942-.499844 1.466357l-.218019.669837c-.159987.498952-.315185.999537-.465605 1.501703l-.124111.418395-.330992 1.158019c-.001764.006346-.003527.012693-.00529.01904-.061142.220192-.121381.440674-.180717.66144l-.013161.049026c-.07836.292264-.155138.585025-.230337.878274l-.058789.230802-.003622.014252-.221678.896156c-.047037.194785-.093384.389778-.139042.584976-.175874.752088-.34162 1.507468-.497174 2.265711-.054897.267345-.108475.535043-.160787.803089l-.009049.046703-.004546.023284-.14791.780386c-.009034.048914-.018026.097838-.026977.146774l-.047251.26091c-.06458.359222-.126915.719189-.187002 1.079739l-.009012.053976c-.034737.209255-.068718.418707-.101943.62835l-.006023.038059c-.109507.693312-.210858 1.389102-.303965 2.086867-.035295.264041-.069305.528025-.102138.792285l-.029706.241797c-.029687.244426-.058371.489086-.086051.733974l-.002819.024973-.006514.057945-.038681.352015c-.054704.505877-.105123 1.012886-.151283 1.520805l-.061656.709017c-.012521.150941-.024667.301961-.036439.453058l-.004034.05295-.020914.275378-.091995 1.379997-.066262 1.269419c-.004733.104544-.00929.209121-.013672.31373l-.010614.2645c-.037747.965881-.060466 1.934109-.068298 2.904723l-.001098 1.380107.018698 1.376613c.01404.676601.035219 1.354206.063512 2.032709l.006035.143067.014933.332066c.015556.334115.032834.668442.051831 1.002968l.033503.560336.019075.299452c.020607.314553.042728.629271.066361.944145l.072937.915521c.012803.15193.025957.303893.039462.455889l.085401.914097c.022914.233817.046655.467705.071221.70166l.075416.694267c.002387.021323.00478.042648.00718.063973.024892.222479.050729.445449.077313.668473l.117027.944397c.018097.140771.036491.281561.055181.422369l.143378 1.039924c.026783.187283.054088.374593.081916.561929l.003639.02358.00484.033393.166099 1.075772c.098557.617174.202767 1.234579.312611 1.852138l.053432.297102c.087976.487501.179641.975223.274808 1.462996l.289528 1.431777.270628 1.258086.088281.395115c.020431.090694.040982.181387.061654.272078.067531.296426.136379.592827.206512.889206.040896.172682.082197.345368.123932.518044.07437.307683.149871.614337.226744.920952.051728.2055.103942.411275.156773.61703l.366929 1.392054.37904 1.3677c.335701 1.182631.691735 2.364161 1.067973 3.544043l.434329 1.334228.492027 1.449814c.014107.040699.028239.081395.042395.122088.157797.454479.318972.908882.483141 1.36294.063786.175558.127628.35084.191916.526069.304887.831909.620176 1.662715.945474 2.492125.251841.641232.509396 1.281808.772915 1.92146.372647.905458.757671 1.809205 1.154589 2.710844.272701.618551.550738 1.236402.834358 1.853178l.634444 1.358252c.768731 1.620473 1.576116 3.233062 2.4218 4.836256l.714153 1.334436.721248 1.311606c.857126 1.53724 1.749764 3.064949 2.677598 4.581768l.050166.081453.866714 1.395693c.955935 1.517893 1.94735 3.024328 2.973921 4.517925l.973346 1.396713.942767 1.319597c.735067 1.015624 1.486655 2.024785 2.254659 3.027032 7.218102 9.41856 15.885561 18.22664 25.915871 26.051781.837743.653562 1.679848 1.296255 2.526093 1.928081 1.685181.613742 3.207116 1.681818 4.368568 3.135576 24.659011 17.0641 52.413431 25.188167 77.996467 24.455467.110197-.003199.220938-.006538.331638-.010042l1.310161-.049313c.101109-.004413.202182-.008964.303219-.013655l1.26898-.066358c.11398-.006631.227911-.01344.341794-.020427l1.34978-.09134c.059035-.00437.118057-.008787.177064-.013253l1.444144-.119175c.039052-.003491.078098-.007003.117137-.010537l1.485866-.145104c.033021-.003461.066037-.006938.099049-.010431l1.319834-.148115c.126036-.014959.252-.030143.377891-.045553l1.314167-.169422c.049343-.006685.098674-.013404.147993-.020158.979183-.134055 1.953513-.28189 2.922904-.44349.09175-.015336.183402-.030745.275009-.046278l1.208377-.212501c.117697-.021444.235318-.043092.352863-.064946l1.345938-.25987c.026644-.005336.053284-.010683.079921-.016041l1.387173-.289444c.062253-.013461.124482-.02698.186688-.040558l1.415858-.320144c.480971-.112549.960485-.228651 1.438499-.348305.052884-.013198.105498-.026416.158095-.039678.499906-.126077.99848-.256091 1.495355-.39l1.354925-.376018c.043631-.012461.087248-.024952.130852-.037474l1.325759-.391373c.068-.020624.135965-.041324.203896-.062098.950135-.290529 1.893473-.595737 2.829689-.91559.032908-.011281.065273-.022359.09763-.033455l1.343635-.472561c.024709-.008911.049413-.017832.074112-.026763.930574-.336506 1.854115-.687848 2.769944-1.053907.038198-.015268.076264-.030514.114317-.045785l1.288573-.529053c.059116-.02482.118198-.049702.177246-.074646l1.242899-.536467c.018025-.007949.029039-.012809.040052-.017671l.080071-.0354 1.205494-.544757c.08523-.039306.170384-.078746.255463-.11832l1.147437-.544122c.051419-.024853.102809-.049756.154171-.074709l1.215549-.602599c.037019-.018723.074024-.037473.111012-.056249l1.239217-.64197c.03169-.016752.063367-.033525.095033-.050318l1.193397-.645357c.063832-.035192.127615-.070464.191347-.105819l1.142716-.645786c.05312-.030578.106203-.061215.159251-.091908l1.098208-.646835c.084722-.050789.169347-.101729.253877-.15282l1.022662-.628401c.099499-.062153.19886-.124517.298082-.187094l1.031462-.661448c.064013-.041736.127966-.083562.19186-.125478l1.132743-.756827 1.162404-.806043c.024691-.017446.049372-.034906.074043-.05238l.047549-.033742 1.131412-.81754c.030686-.022585.061357-.045192.092011-.067821l1.122849-.844322c.034342-.026303.068664-.052634.102966-.078995 1.165248-.895448 2.30658-1.824098 3.422882-2.785979.02041-.017626.04069-.035119.060961-.052623l1.028068-.903478c.045616-.040799.091188-.081656.136717-.12257l1.011725-.925342c.032957-.030677.065889-.061386.098798-.092125.705357-.658818 1.399884-1.332054 2.08302-2.019457.033398-.033648.066585-.067103.099745-.100592l.958938-.985673c.034847-.036457.069664-.072952.104449-.109485l.79401-.846392c-9.468545 2.526092-19.465024 3.892735-29.793574 4.049353-33.043742.501063-67.318478-11.400236-96.005755-33.780571-28.691916-22.383955-48.55498-52.723142-56.065737-84.875481-2.565652-10.98314-3.63053-21.931697-3.196032-32.579502zm107.603152-77.6016967-1.658145.0128168c-18.76038.2844739-36.415117 5.3020177-50.908062 15.0214535-6.820216 4.5738351-12.940238 10.188942-18.145792 16.8420498l-.763116.9914418c-.013601.017965-.027193.0359345-.040777.0539084l-.171585.2279084-.083172.1111451-.675649.917962c-.078602.108442-.156893.2170396-.234872.325792-.048473.0676027-.096826.1352652-.145059.2029873-.219045.3075565-.435608.6163424-.649694.9263387l-.017283.0250359-.079362.115233c-28.688163 41.734617-12.581502 105.303882 37.496237 144.371953 50.555333 39.440667 116.999152 39.295544 150.311987.307945.362035-.423678.720205-.85203 1.074398-1.284969l.036056-.044152c.011749-.014382.023493-.028769.035233-.04316l.011465-.014059.061396-.075351.923752-1.158015.876204-1.141188c.046717-.062016.09333-.124084.139839-.186205.917794-1.225917 1.794925-2.472317 2.631727-3.73803 1.989646-3.009443 3.751223-6.127943 5.288773-9.338739l.244541-.515529c.003448-.007338.006896-.014676.010342-.022014l.008926-.019015c.443853-.94575.868429-1.899484 1.27381-2.860663l.277852-.667268c.006699-.016298.013393-.032597.020082-.048899.09006-.219583.179158-.439538.267264-.659868l.014439-.036049c2.14854-5.380533 3.705974-10.984512 4.689423-16.738639.04062-.237869.08028-.475912.118961-.714205.411982-2.537788.712893-5.104069.904227-7.692598l.089882-1.352976c.002207-.037383.004391-.074769.006552-.11216l.003397-.059094.075038-1.536943c.018791-.4642.034121-.929029.045997-1.394452.041387-1.621754.040849-3.250601-.001259-4.885153-.002577-.098557-.005268-.197144-.008109-.295752-.028518-.99104-.072335-1.984132-.131334-2.978954-.002232-.037642-.004486-.075286-.006762-.112933-.381744-6.314712-1.374933-12.698577-2.959691-19.066499-.036381-.146003-.073032-.292017-.109994-.438021-.097131-.383867-.196453-.767649-.297918-1.151348-.042099-.159025-.084525-.318055-.12732-.47707-.778123-2.891523-1.677985-5.777833-2.697679-8.650966-.075411-.21234-.151435-.424633-.228114-.63685-.111568-.30892-.224563-.617656-.338942-.926223-.389167-1.049748-.794324-2.09762-1.215401-3.143141-.080153-.199019-.160883-.397952-.24219-.596798l-.076531-.186855c-.114485-.278673-.230102-.557172-.346849-.835488-.099183-.236321-.19916-.472586-.299952-.708715-.170709-.400051-.343797-.799687-.519216-1.198911-.054478-.123859-.109138-.247706-.164023-.371512-1.04131-2.34906-2.163432-4.683563-3.365274-6.999031-.393695-.758474-.796105-1.515223-1.207039-2.269769-.866669-1.591375-1.771188-3.172816-2.713267-4.742964-.118227-.196946-.237004-.393747-.356371-.590367-.165922-.273404-.332961-.546319-.501138-.818877-.099713-.161501-.199784-.322909-.300255-.484189-.522296-.838517-1.055433-1.673568-1.599316-2.504955-.130625-.199579-.261829-.398981-.393651-.598168-.53422-.807318-1.078644-1.611079-1.633179-2.411105-.102988-.148486-.206284-.296878-.309927-.44514-.8859-1.267372-1.797282-2.525201-2.733907-3.772671-.163665-.217891-.328059-.4355023-.493223-.6527928-.98029-1.2897585-1.987528-2.5679432-3.021636-3.8338842-.362288-.4434176-.727478-.884946-1.095949-1.3249342-.064818-.077399-.129738-.1547503-.194759-.2320537l-.239242-.2836745c-.662847-.7839583-1.336883-1.5636884-2.021347-2.3382087-.134416-.1520178-.269195-.3038739-.404375-.4555274-1.448121-1.6246736-2.94236-3.2260562-4.482175-4.8020253-.142832-.1461063-.286019-.2920349-.429597-.4377431-.443344-.4500021-.89046-.8978627-1.341299-1.3435718-.046581-.0459727-.093164-.0919638-.139787-.137932-.311413-.3071189-.624757-.6132897-.939867-.9184171-.381074-.3689232-.764695-.7363625-1.150892-1.1022467-.218362-.2068762-.437547-.4132553-.657556-.6191319l-.580334-.5402001c-.030936-.0286371-.061888-.0572643-.092856-.0858816-.226471-.2092022-.453763-.4179168-.68191-.6260958-.833464-.7605939-1.678412-1.5140203-2.534717-2.2600197-.077252-.0673011-.154597-.1345417-.232034-.2017217-.046597-.0404243-.093227-.0808266-.13989-.121207l-.815323-.7003226c-.363396-.3098938-.728783-.6184597-1.096156-.9256771-.690674-.5775789-1.388369-1.1503918-2.093052-1.7183025l-.321315-.2582481c-.509392-.4082163-1.022411-.8138758-1.539045-1.2169275-7.005941-5.4656738-14.317009-10.1711294-21.802747-14.1183451-.083123-.0437951-.166813-.0878193-.250526-.1317488-18.937362-9.937692-38.982128-15.0279366-58.025446-15.3027106zm69.905441 26.5726681c.218046.1453203.433215.2949116.645383.4486875l7.698755 5.5799458c.20987.1521108.416764.3082871.620563.4684403 22.915949 18.0082292 38.912757 41.915817 45.377769 67.10297 6.710711 26.144378 2.685783 52.045564-12.341679 71.391918-15.063027 19.39214-39.178006 29.629221-66.129006 29.406335-25.943232-.214552-52.939169-10.061829-75.882611-28.091663-22.915949-18.008229-38.912756-41.915817-45.377768-67.10297-6.710712-26.144378-2.685783-52.0455639 12.341679-71.3919183 14.140857-18.2049398 36.300392-28.3787739 61.364728-29.3356918 23.958776-.9147093 49.310408 6.6139171 71.682187 21.5239465zm-117.252079 20.0805326c-22.403396 28.842132-10.834876 78.726282 29.59889 110.500681 40.452836 31.789386 91.435102 31.010671 113.859143 2.141961 22.403397-28.842132 10.834876-78.726282-29.598889-110.5006813l-7.698756-5.5799458c-39.015308-26.0023745-85.137849-23.6264312-106.160388 3.4379851zm98.105994 24.262586c8.846948 6.901933 14.97827 16.481167 17.240079 26.932144 2.469916 11.412557.163714 23.161544-7.03745 32.365199l-1.391128 1.675747c-7.162306 8.135454-17.373043 12.611226-28.31003 12.955497-10.685968.33637-21.465397-3.282675-30.307498-10.180826-8.846947-6.901933-14.97827-16.481167-17.240079-26.932144-2.469916-11.412557-.163714-23.161544 7.037451-32.365199 7.195229-9.19607 18.035038-14.264021 29.701157-14.631244 10.685968-.33637 21.465397 3.282675 30.307498 10.180826zm-44.257147 16.774783c-6.959296 8.894529-3.935781 22.865066 6.753212 31.204067 10.688993 8.339002 24.995758 7.888657 31.955055-1.005872s3.935781-22.865066-6.753211-31.204067c-10.688993-8.339002-24.995759-7.888657-31.955056 1.005872z"/></svg>