<svg height="960" viewBox="0 0 960 960" width="960" xmlns="http://www.w3.org/2000/svg"><path d="m315.99969 446.574711-.283725-.508327c-3.695944-6.709784-5.822502-14.371622-5.934751-22.462121l-.004682-.675189-.000842-19.888363-.14084-.214987c-2.820072-4.368278-4.886133-9.12987-6.158816-14.084727l-.072344-.286286-3.705445-.254144c-47.456334-3.261614-83.399528-43.998101-80.916939-91.324457l.08702-1.436118c1.111244-16.168555 6.716654-31.705298 16.184399-44.85896l133.624365-185.6460761c31.714666-44.0615992 86.043363-65.81598043 139.403743-55.82026293l211.107376 39.54562713c41.798877 7.8299622 69.336122 48.0620849 61.50616 89.8609609-2.061359 11.004202-6.497568 21.426534-12.999461 30.540647l-125.431278 175.82491c-28.252204 39.602891-75.037491 61.700582-123.570564 58.364966l-76.549376-5.262093.000386 24.939363c0 9.808577-2.942026 18.930007-7.991774 26.529985l-.153612.225652.000398 512.31552h-117.999077zm78.00031 4.425289h-38v510.970191h38zm-39.750167-77.845257-1.647 3.481 2.062323 2.114611c3.177887 3.259693 4.998889 7.598262 5.106334 12.138913l.005042.426251-.000699 29.613225h34.497l7.870255-32.574414.000988-5.208463c0-1.324524.328868-2.628325.957088-3.794389l1.477924-2.743148-12.860255-.574586-.05862.21515c-.665825 2.463766-1.387662 5.698899-2.154648 9.678361l-.348155 1.840908c-.232865 1.254072-.703497 2.452015-1.386518 3.529234l-.254532.401432c-5.361876 8.45642-18.445416 4.658131-18.445416-5.354899l-.000111-12.447186zm128.187005-326.4369254-1.136522.004814c-31.426218.31209-61.356203 15.4575792-80.158469 41.579813l-133.624364 185.6460764c-5.11476 7.106001-8.142969 15.499414-8.743297 24.234151-1.779819 25.896292 17.770445 48.332215 43.666738 50.112034l218.994919 15.051244c2.426648.16678 4.84718.244544 7.257483.23598l1.032348-.010062c31.638747-.448814 61.409054-15.890427 79.974788-41.915184l125.431278-175.824911c3.124286-4.379508 5.255971-9.387642 6.246494-14.675375 3.762449-20.085175-9.469734-39.4174932-29.554908-43.1799426l-211.107377-39.5456272c-5.717183-1.0709697-11.449929-1.63167-17.141387-1.7048649zm29.630012 21.732651 183.535306 31.9268674c21.764543 3.786049 36.338992 24.498897 32.552943 46.26344-1.042805 5.994688-3.43949 11.672466-7.007628 16.601168l-107.93208 149.087571c-22.700591 31.356533-60.212427 48.472584-98.77359 45.068808l-200.309529-17.681227c-20.905535-1.845322-36.356892-20.288536-34.51157-41.194071.586962-6.649653 2.915286-13.027349 6.750605-18.491115l116.81088-166.407865c24.48172-34.8764679 66.903809-52.4763521 108.884663-45.1735764zm-92.515076 56.6642944-116.81088 166.407866c-1.81673 2.588099-2.91962 5.609113-3.197655 8.758949-.874099 9.902622 6.444964 18.638881 16.347586 19.512981l200.309529 17.681227c31.550043 2.784907 62.241545-11.219134 80.814755-36.87448l107.93208-149.08757c1.784069-2.464351 2.982412-5.30324 3.503814-8.300584 1.893025-10.882272-5.3942-21.238696-16.276471-23.13172l-183.535306-31.9268676c-34.347971-5.9749983-69.056953 8.424907-89.087452 36.9601986z"/></svg>