<svg height="960" viewBox="0 0 960 960" width="960" xmlns="http://www.w3.org/2000/svg"><path d="m498.286114 4.51096499c57.10113 1.47632768 111.105515 7.37855501 159.97134 18.47323711 58.427941 13.2657013 108.233404 33.6427653 147.592371 62.4393311 54.389668 39.7936168 88.636322 98.6132308 107.624483 176.3692008 15.148787 62.033846 20.695222 133.698609 20.695222 233.422587 0 103.863087-13.646139 189.855781-41.532999 258.137279-29.14264 71.356301-74.018802 123.599054-134.212707 155.018546-21.90425 11.43339-54.45033 22.569834-95.306244 31.177937-52.793115 11.123201-115.998479 17.380447-189.712665 17.380447-72.779269 0-132.153378-5.722131-180.020496-15.835679-34.077393-7.200002-57.604502-15.334409-77.75354-24.857389-64.635089-30.54829-113.042603-83.086017-144.5327564-155.850628-30.1717551-69.718174-44.928593-158.065473-44.928593-265.170513 0-105.972146 8.0246895-189.633996 25.4742552-249.214836 22.0245261-75.201859 61.1299092-131.004233 112.7474252-169.8951482 23.134836-17.4308064 47.607261-30.6017111 73.338214-40.6692467 9.666779-3.7822401 19.089273-6.9660996 28.895757-9.8881205 3.606057-1.0744906 7.051609-2.0526893 11.066844-3.1563917.509155-.139956 6.559282-1.7891505 7.892575-2.1627815 13.09682-3.6701469 42.793283-8.0597707 76.883746-11.19322325 42.950825-3.94785992 89.55696-5.72066351 135.817768-4.52460816zm-285.30757 132.30838301c-58.987277 65.283383-85.347216 171.117665-85.347216 343.180626s26.359939 277.897244 85.347216 343.180627c57.512595 63.480997 149.49588 91.435149 297.885748 90.274651 124.624099-.974636 209.301919-21.490935 267.305696-65.759688 59.937233-48.968156 96.646297-130.56215 110.129281-244.778941 3.90467-36.629382 5.797987-77.436592 5.797987-122.916649l-.007594-4.994777c-.188431-23.018885-.728481-45.534363-1.810582-67.412901-6.602753-122.935387-31.383998-205.124468-77.749427-260.466879-9.597181-10.821425-20.32223-20.657098-32.298797-29.419624-58.626297-42.8933011-142.803376-62.414349-224.836179-69.791179-14.801438-.7894116-30.241555-1.2425285-46.34605-1.3684754-148.574203-1.1619394-240.557488 26.5829168-298.070083 90.2732094zm71.408826-74.7743292-.812452.2318306c-45.572225 12.9221313-151.056897 49.8971516-193.5435952 194.9662746-16.9292429 57.804219-23.8617932 140.880171-23.8617932 237.972197 0 204.092565 55.5178574 332.378371 166.5535714 384.85685 8.221381 3.885647 24.450106 11.043813 52.202226 18.025451-34.729628-15.211517-63.281606-35.564573-86.786389-61.508587-63.06732-69.798917-90.50761-180.097127-90.50761-356.589061 0-176.491933 27.44029-286.790143 90.503526-356.584539 23.368447-25.8785613 51.735959-46.1811351 86.252516-61.3704162z"/></svg>