<svg height="960" viewBox="0 0 960 960" width="960" xmlns="http://www.w3.org/2000/svg"><path d="m548.5 4c224.619607 0 403.5 214.55805 403.5 476s-178.880393 476-403.5 476c-13.974811 0-27.870991-.837691-41.649536-2.50171l.438536.05171-91.805-9.237-5.754932-.365511c-224.158395-16.152552-399.1626703-215.390329-402.6752392-457.037043l-.0538288-7.410446c0-244.182201 175.181312-446.9366453 400.755348-464.3002188l6.097652-.4177812 92.219-8.183 1.264579-.15564914c12.938015-1.54395276 25.979582-2.35951943 39.09239-2.44335086zm.0521 40.0000044.052475-.0000044c-200.663459 0-363.333333 195.203849-363.333333 436 0 240.77531 162.641717 435.966209 363.281231 435.999996l-.052473.000004c86.555669 0 166.04547-36.28645 228.47246-96.868519 82.327088-79.931012 134.965448-202.154638 134.965448-339.131481 0-137.320954-52.903167-259.814471-135.586421-339.732857-62.320244-60.2086048-141.550669-96.2526289-227.799387-96.2671386zm-139.878693 11.2561436-3.993723.3521444c-200.423351 18.8696742-357.679684 201.4466756-357.679684 423.8917076 0 222.970117 157.999621 405.883763 359.09971 424.022596-141.488237-67.327747-240.828468-231.974559-240.828468-423.522596 0-192.709016 100.54809-358.189721 243.402165-424.743852zm165.578227 175.371303c116.135395 0 209.477124 112.010075 209.477124 249.372549s-93.341729 249.372549-209.477124 249.372549-209.477124-112.010075-209.477124-249.372549 93.341729-249.372549 209.477124-249.372549zm0 20c-104.200952 0-189.477124 102.331406-189.477124 229.372549s85.276172 229.372549 189.477124 229.372549 189.477124-102.331406 189.477124-229.372549-85.276172-229.372549-189.477124-229.372549z"/></svg>