<svg height="960" viewBox="0 0 960 960" width="960" xmlns="http://www.w3.org/2000/svg"><path d="m473.5 2c62.620655 0 121.765097 3.55558182 167.742571 9.9360988 23.352475 3.2407362 43.048074 7.1700998 58.42981 11.7798727 8.885419 2.6628833 16.577983 5.613991 23.216501 9.0699555l.63252.3322601c6.509452 3.4504409 12.193566 7.4362853 16.97706 12.4905006l.046538.0493123.232045.2163016c4.455145 4.1918474 7.9815 9.4349678 10.168406 15.4420088 2.740108 7.5265884 5.068471 14.0477656 6.989805 19.5788577l.417905 1.2228164c1.782486 5.3026685 3.195082 10.6544681 4.229178 16.0462793l.149661.8047362.150939.602612c.749361 3.101242 1.137146 6.3432 1.117078 9.678644v1.884165l-.015017.391579-4.275 698.833.122876.652636c.773881 4.280608 1.167124 8.619347 1.167124 12.988364 0 25.195589-12.522326 47.245638-33.470953 65.091802-16.499743 14.056153-38.618879 25.853385-65.314104 35.472312-50.67816 18.260552-117.443626 28.435886-188.214943 28.435886s-137.536783-10.175334-188.214943-28.435886c-26.695225-9.618927-48.814361-21.416159-65.314104-35.472312l-.625927-.536645c-17.662737-15.240615-29.207879-33.510892-32.119953-54.160872l-.022073-.168285-.108846-.414215c-.772343-3.063018-1.191602-6.266985-1.211854-9.566258l-4.38234-713.276594v-2.395099l.00904-.359834-.00904-.4842c-.070311-9.3956134 1.375491-18.7217032 4.276533-27.8323809 3.197781-10.0425842 7.989266-19.4874519 14.262974-28.2257797l.311444-.4278095c2.407368-3.2613997 5.264557-6.0970326 8.452859-8.4460094l.35423-.2578205.220866-.1978478c4.182571-3.7087907 8.939816-6.801021 14.232252-9.5562252 6.638518-3.4559645 14.331082-6.4070722 23.216501-9.0699555 15.381736-4.6097729 35.077335-8.5391365 58.42981-11.7798727 45.977474-6.38051698 105.121916-9.9360988 167.742571-9.9360988zm213.310949 867.205615-.777419.270865c-6.995866 2.452974-14.520017 4.778391-22.541042 6.97595-50.233635 13.76275-117.780029 21.590132-189.758573 21.590132s-139.524939-7.827382-189.758573-21.590132c-7.838851-2.147648-15.203141-4.417412-22.063551-6.80901 43.140455 25.970324 121.979433 43.35658 212.088209 43.35658 90.614171 0 169.831771-17.581832 212.810949-43.794385zm-462.232822-338.853839 1.803419 293.648224h.618454c0 1.87283.160542 3.73215.476939 5.576269 10.822906 9.524939 31.88861 19.396656 61.783145 27.587006 48.378415 13.254467 114.176804 20.879287 184.473831 20.879287 70.297026 0 136.095416-7.62482 184.47383-20.879287 30.477126-8.349965 51.777952-18.44747 62.399996-28.14406.262324-1.660408.392259-3.334344.392259-5.019215 0-3.122643-.446311-6.207725-1.317201-9.247416l1.70496-278.479311c-12.948081 4.701497-29.023329 8.955178-47.792633 12.679826-51.178263 10.155998-120.083325 15.939513-193.535579 15.939513-73.452255 0-142.357317-5.783515-193.535579-15.939513-25.424621-5.045353-45.905916-11.061429-60.367375-17.84636-.533212-.250169-1.059393-.501811-1.578466-.754963zm499.322553-405.095607c-14.360487 10.766921-36.839793 19.856952-65.951048 27.369534-49.596996 12.799225-116.297558 20.07973-187.378533 20.07973-71.080976 0-137.781537-7.280505-187.378534-20.07973-26.007396-6.711586-46.721655-14.682176-61.082596-23.982676l2.324133 378.516503c2.592697 1.897951 6.013326 3.868513 10.217452 5.840977 12.762694 5.987915 31.794886 11.57834 55.765373 16.335129 49.791048 9.880713 117.418295 15.556976 189.64262 15.556976s139.851572-5.676263 189.642619-15.556976c21.611844-4.288732 39.209415-9.255114 51.817073-14.579497zm-468.860872-62.0394659-.786623.2594603c-10.643493 3.5719827-17.60855 7.4504385-20.161946 11.5240879l-1.058887-.0002513c-3.854556 5.3688146-6.735048 11.0467761-8.641476 17.0338847-1.120517 3.5189666-1.847175 7.0384848-2.179973 10.5585543 2.548384 3.235848 6.712241 6.740303 12.655941 10.366751 12.172502 7.426845 30.366031 14.376514 53.323282 20.300966 47.836423 12.344884 112.886883 19.445277 182.380973 19.445277 69.494089 0 134.54455-7.100393 182.380973-19.445277 22.957251-5.924452 41.15078-12.874121 53.323281-20.300966 8.759869-5.344686 13.653725-10.424388 15.206862-14.7694558-.40529-1.3897516-.849435-2.7794121-1.332179-4.1691268-1.85053-5.3272623-4.114276-11.6674647-6.79124-19.0206074l-.450035.0002513c-2.49959-3.9878092-9.226875-7.7885644-19.494012-11.2978736.950336 2.3637855 1.446338 4.8652374 1.446338 7.522774 0 10.8112062-8.208686 19.0392587-22.197501 25.822997-11.452783 5.5539143-27.56228 10.4448593-47.51719 14.5378583-39.981315 8.200663-93.737538 12.864296-151.024171 12.864296s-111.042856-4.663633-151.024171-12.864296c-19.95491-4.092999-36.064406-8.983944-47.517189-14.5378583-13.988816-6.7837383-22.197502-15.0117908-22.197502-25.822997 0-2.8409699.566838-5.5035644 1.656445-8.0084486zm361.53836-13.665502.152357.1476786c3.534236 3.4820485 5.501331 7.5537915 5.501331 12.458468 0 8.7767894-6.299065 14.8863459-16.605338 19.7224977-7.787908 3.6544257-18.5831 6.8258279-31.899276 9.468733-26.427127 5.2450787-61.863273 8.2198411-99.605017 8.2198411s-73.17789-2.9747624-99.605017-8.2198411c-13.316176-2.6429051-24.111368-5.8143073-31.899276-9.468733-10.306273-4.8361518-16.605338-10.9457083-16.605338-19.7224977 0-4.9742464 2.023296-9.0917623 5.652669-12.6062851-1.536613.2968884-3.053067.5985916-4.548624.9053487-18.4638 3.7871542-33.087249 8.2269258-42.808969 12.9413779-4.450667 2.1583075-7.671503 4.28231-9.563448 6.1787183-.615174.616625-1.019311 1.1382162-1.243164 1.5376615l-.059544.111831.059544.1101345c.19898.3550625.540408.8066353 1.04588 1.3356768l.197284.2019846c1.891945 1.8964084 5.112781 4.0204109 9.563448 6.1787184 9.72172 4.7144521 24.345169 9.1542237 42.808969 12.9413778 38.550969 7.9072813 90.98735 12.4564109 147.005586 12.4564109s108.454618-4.5491296 147.005586-12.4564109c18.4638-3.7871541 33.087249-8.2269257 42.808969-12.9413778 4.450668-2.1583075 7.671503-4.28231 9.563448-6.1787184.615174-.6166249 1.019311-1.1382161 1.243164-1.5376614l.058971-.1111345-.058971-.110831c-.19898-.3550625-.540408-.8066353-1.04588-1.3356768l-.197284-.2019847c-1.891945-1.8964083-5.11278-4.0204108-9.563448-6.1787183-9.72172-4.7144521-24.345169-9.1542237-42.808969-12.9413779-1.495843-.3068158-3.012591-.6085758-4.549643-.9052102zm-142.455943-4.8049253c-36.513633 0-70.671777 2.8674778-95.711497 7.8371931-11.861875 2.3542653-21.207799 5.0999028-27.296793 7.9571241-1.11543.5234083-2.084378 1.034071-2.900367 1.5174263l-.165974.0992565.165974.0994003c.725323.4296491 1.571504.8808745 2.533991 1.3434488l.366376.1739774c6.088994 2.8572214 15.434918 5.6028588 27.296793 7.9571241 25.03972 4.9697153 59.197864 7.8371931 95.711497 7.8371931 36.513634 0 70.671777-2.8674778 95.711497-7.8371931 11.861875-2.3542653 21.207799-5.0999027 27.296793-7.9571241 1.11543-.5234082 2.084379-1.0340709 2.900367-1.5174262l.164712-.0994003-.164712-.0992565c-.725323-.4296492-1.571503-.8808746-2.533991-1.3434489l-.366376-.1739774c-6.088994-2.8572213-15.434918-5.6028588-27.296793-7.9571241-25.03972-4.9697153-59.197863-7.8371931-95.711497-7.8371931z"/></svg>