<svg width="960" height="960" viewBox="0 0 960 960" fill="none" xmlns="http://www.w3.org/2000/svg">
<path d="M501.767 11.9204C694.205 11.9204 848.988 173.434 848.988 371.14C848.988 508.254 774.664 627.762 664.956 688.292C674.755 695.452 684.954 704.303 694.254 714.721C712.897 735.605 729.225 764.313 729.225 799.375C729.225 846.781 690.615 884.082 641.126 908.341C590.325 933.244 521.547 948.08 446.666 948.08C371.785 948.08 303.007 933.244 252.206 908.341C202.717 884.082 164.107 846.781 164.107 799.375C164.107 717.349 215.55 684.931 242.081 676.939L242.734 676.739C249.369 674.661 252.597 672.371 255.224 667.792C258.358 662.33 261.563 651.816 262.23 631.196C195.83 565.715 154.545 473.338 154.545 371.14C154.545 173.434 309.329 11.9204 501.767 11.9204ZM206.166 812.655C212.336 832.787 232.604 854.185 269.812 872.424C314.039 894.104 376.54 908.08 446.666 908.08C516.792 908.08 579.293 894.104 623.52 872.424C660.718 854.19 680.984 832.798 687.16 812.67C672.354 827.792 652.498 840.931 629.533 851.686C581.53 874.167 517.111 887.727 446.666 887.727C374.062 887.727 307.838 873.322 259.394 849.575C238.337 839.253 220.044 826.827 206.166 812.655ZM301.87 639.724C300.616 659.872 296.866 675.591 289.918 687.701C280.352 704.371 266.449 711.374 253.618 715.239C241.944 718.755 212.574 734.076 205.607 778.989C216.062 798.195 237.219 816.432 268.196 831.617C313.353 853.752 376.439 867.727 446.666 867.727C514.781 867.727 576.198 854.579 621.051 833.574C653.206 818.514 675.483 800.137 686.758 780.713C682.883 766.14 674.735 752.92 664.415 741.36C650.699 725.996 634.296 714.916 623.099 709.221L615.002 707.66C607.964 706.301 602.331 701.328 599.979 694.812C568.977 704.912 535.985 710.359 501.767 710.359C426.493 710.359 357.157 684.01 301.87 639.724ZM501.767 51.9204C332.765 51.9204 194.545 194.155 194.545 371.14C194.545 371.86 194.546 372.58 194.551 373.298C194.558 374.373 194.572 375.446 194.589 376.518C195.959 462.763 230.22 540.558 284.78 597.119C340.461 654.8 417.266 690.359 501.767 690.359C551.24 690.359 598.075 678.169 639.578 656.487C582.718 657.854 530.05 628.145 490.188 579.937C448.563 529.596 420.253 458.465 414.501 378.525C408.749 298.585 426.582 224.134 460.571 168.352C494.547 112.591 545.218 74.7794 604.938 70.4819C605.006 70.4771 605.073 70.472 605.14 70.4673C604.626 70.2763 604.111 70.0861 603.596 69.8979C571.694 58.2493 537.415 51.9204 501.767 51.9204ZM659.076 96.9146C641.987 91.4244 624.29 89.141 606.374 90.4302C554.79 94.1421 509.25 126.899 477.651 178.758C446.066 230.596 428.961 300.817 434.449 377.089C439.938 453.362 466.92 520.412 505.603 567.193C544.301 613.993 594.063 639.892 645.646 636.18C659.218 635.203 672.371 632.214 684.962 627.397C693.381 620.892 701.47 613.95 709.197 606.601C709.353 606.453 709.509 606.304 709.665 606.156C710.058 605.781 710.45 605.406 710.841 605.029C771.134 546.815 808.988 463.672 808.988 371.14C808.988 254.302 748.751 152.609 659.187 96.9829C659.15 96.9601 659.113 96.9374 659.076 96.9146ZM604.804 127.853C651.13 124.52 693.9 149.462 725.705 190.049C757.556 230.695 779.238 287.884 783.848 351.948C788.458 416.012 775.187 475.715 749.484 520.501C723.818 565.225 685.06 596.034 638.733 599.368C592.407 602.701 549.637 577.759 517.832 537.171C485.982 496.526 464.3 439.338 459.689 375.274C455.079 311.21 468.35 251.506 494.053 206.719C519.719 161.996 558.478 131.187 604.804 127.853ZM709.964 202.386C680.838 165.218 643.918 145.09 606.239 147.801C568.561 150.513 534.903 175.719 511.398 216.674C487.931 257.566 475.275 313.206 479.638 373.838C484.001 434.471 504.493 487.724 533.574 524.834C562.7 562.003 599.619 582.131 637.298 579.419C674.977 576.708 708.635 551.502 732.139 510.546C755.606 469.654 768.263 414.015 763.899 353.382C759.536 292.75 739.044 239.497 709.964 202.386Z" fill="black"/>
</svg>
