<svg height="960" viewBox="0 0 960 960" width="960" xmlns="http://www.w3.org/2000/svg"><g fill="#000" fill-rule="evenodd"><path d="m437 8c92.769121 0 167.973352 75.2042313 167.973352 167.973352v613.053296c0 92.769121-75.204231 167.973352-167.973352 167.973352s-167.973352-75.204231-167.973352-167.973352v-613.053296c0-92.7691207 75.204231-167.973352 167.973352-167.973352zm94.37361 821.694613-1.141292.063998c-17.202846 1.0712-38.837178 7.23177-60.373765 17.522679-21.548728 10.296711-40.079721 23.33284-51.966432 36.17858-9.60349 10.378306-13.42673 19.05066-12.305948 23.843672l.033827.137458.19815.232239c.366092.425526.711451.808893 1.034661 1.149383l.238233.247317c.551199.563489.9743.933964 1.216294 1.10338l.17024.112336c.32849.206993.878746.510639 1.620435.878129l.228219.11213c1.222451.595696 2.78831 1.283087 4.681555 2.050899 1.347145.54634 2.510574 1.352906 3.455812 2.338188 6.051357.880396 12.24079 1.334999 18.536401 1.334999 52.311562 0 97.292267-31.387131 117.137055-76.356333.695015-2.012632 1.109908-3.429765 1.22772-4.104713.044111-.252713.064869-.712353.047765-1.353635l-.00454-.134319-.086922-.107729c-2.942957-3.562895-11.179314-5.88442-23.947468-5.248658zm-94.37361-781.694613c-70.677731 0-127.973352 57.295621-127.973352 127.973352v613.053296c0 52.321604 31.399182 97.309536 76.382231 117.14848-.42528-24.7806 31.351738-55.687816 75.826837-76.939521 40.497988-19.351307 80.307988-25.328136 101.037748-13.943788 1.770156-8.475756 2.699888-17.261888 2.699888-26.265171v-613.053296c0-70.677731-57.295621-127.973352-127.973352-127.973352z" fill-rule="nonzero"/><ellipse cx="505.861851" cy="681.772791" rx="6.703366" ry="8.531557"/><path d="m502.384528 731.679745c3.674572.451181 7.118906-2.974302 7.693136-7.651029s-1.939094-8.833718-5.613665-9.284899c-3.674572-.45118-7.118906 2.974302-7.693136 7.651029-.574229 4.676728 1.939094 8.833718 5.613665 9.284899z"/></g></svg>