<svg height="960" viewBox="0 0 960 960" width="960" xmlns="http://www.w3.org/2000/svg"><path d="m247.577382 5.6267819 482.153052 36.5323944c66.749783 5.0575837 118.329251 60.6930377 118.329251 127.6341517v600.658049c0 65.279585-49.125077 120.100669-114.013794 127.233589l-401.961772 44.185817-93.986594 10.33155c-4.615516.507363-9.25535.761615-13.898667.761615-70.24999 0-127.198858-56.948869-127.198858-127.198858v-680.538455c0-3.529577.1334777-7.057892.4001469-10.577382 5.8417261-77.0988697 73.0783651-134.86419773 150.1772351-129.0224711zm-37.176669 43.1753302-.777253.2166138c-39.147814 11.144272-69.082965 45.6975518-72.337641 88.6526361-.190478 2.513921-.285819 5.034146-.285819 7.555273v680.538455c0 46.781196 36.838983 84.958186 83.089725 87.103748-32.377743-19.144012-54.091288-54.41142-54.091288-94.750298v-681.014659c0-3.191246.138874-6.38098.416226-9.56015 2.844355-32.6035765 19.636947-60.6394425 43.98605-78.7416189zm-24.061727 80.4798279c-.226925 2.601139-.340549 5.210921-.340549 7.821941v681.014659c0 48.838879 38.901349 88.591862 87.408505 89.963407l54.306487-5.97166 401.961773-44.185817c44.610993-4.903883 78.384483-42.593378 78.384483-87.473093v-600.658049c0-46.022016-35.460884-84.2713906-81.35136-87.7484794l-457.712913-34.6820904c-43.126995 3.3129982-78.773863 37.4150701-82.656426 81.9191818zm131.731803 28.718216.304078.001448c.073689.000445.147377.000984.221061.001616.331517.001978.663504.006448.99542.012818.023296.001909.045959.002373.068621.002846.404896.006585.810278.01752 1.215515.031287.003206.002706.006539.002822.009872.002939l-.009872-.002939c22.763583.773343 45.071308 10.483573 60.598667 28.518944l137.412849 159.607885 51.030129-55.699271c4.009345-10.500186 10.470219-20.34321 19.38139-28.726025l48.068662-45.218602c32.001807-30.104373 83.586522-30.035471 115.498965.155341 16.166094 15.293957 24.208068 35.398534 24.133338 55.478791.072397 18.150183-6.524656 36.408644-20.079144 51.202687l-146.487995 159.884281c-2.664266 2.907913-5.54219 5.612898-8.607498 8.098053l-.184847.146745.184367.148412c2.829635 2.293999 5.499638 4.775406 7.989325 7.430895l.618653.667491 146.487995 159.884281c13.549508 14.788607 20.146692 33.039088 20.079697 51.182416.079518 20.087172-7.962427 40.200026-24.133891 55.499062-31.912443 30.190812-83.497158 30.259714-115.498965.155341l-48.068662-45.218602c-8.911737-8.383347-15.372866-18.22709-19.382154-28.728026l-51.029365-55.69827-132.056 153.386007-2.91983 3.685232c-16.937475 21.376073-43.279358 32.146318-69.512925 31.027608-.086867-.004835-.173508-.008499-.260147-.012293-.230136-.009694-.460433-.021122-.690713-.033468-.261411-.013069-.523037-.027803-.784627-.043725-.083108-.007106-.1661-.012428-.249087-.017869-15.362413-.977104-30.586794-6.056219-43.742438-15.434767l-1.059011-.767571-.994604-.745573c-19.58767-14.920991-30.030589-36.637145-30.594546-58.72515-.003926-.177072-.00798-.3544-.011396-.531754-.00373-.188512-.006471-.377158-.008491-.565824-.003647-.293931-.005302-.587598-.005203-.881311.001092-.065291.001256-.130318.001506-.195346.046867-16.144185 5.390788-32.419945 16.427725-46.349198l56.661617-71.510237c5.887775-7.430713 12.911965-13.579834 20.67298-18.393465l93.013261-108.034636c3.542965-4.115233 7.502838-7.854315 11.810408-11.172002l.008521-.006658-.008238-.006493c-4.080926-3.143047-7.849817-6.664383-11.247804-10.525507l-.562887-.64666-98.149831-114.000306c-3.355622-2.844006-6.508538-5.989403-9.415877-9.431698l-61.198819-72.45953c-11.801006-13.972414-17.689319-30.616143-17.998844-47.220081.00014-.076197-.001248-.152524-.002518-.228849-.005676-.275291-.008424-.550351-.009641-.825385-.000414-.169104-.000762-.338514-.000528-.507911.000413-.163783.00135-.327435.002828-.491072.001982-.312288.006455-.624276.012899-.936196.002518-.048814.003635-.098167.004801-.147518.440342-19.506424 8.586859-38.738612 23.932454-53.274532.091441-.084099.181679-.169265.272163-.254267.217422-.206378.437453-.410567.658927-.613795.110542-.099834.220483-.200256.330777-.300441.194275-.177694.390354-.353888.587537-.529333.147206-.130224.294143-.260131.441684-.38962.173339-.152494.348061-.304379.523625-.455682.153625-.132432.307533-.264193.462081-.395502.176888-.149883.354646-.299479.533243-.448482.166526-.139715.334151-.278553.502508-.416866.146541-.119278.293006-.23866.44002-.357648.256579-.209136.515772-.416506.776648-.622638.060697-.046145.119984-.092822.179358-.139436.283584-.224693.570519-.447099.859446-.668014.033738-.023431.06566-.047784.097606-.072119l.078497-.062157c.140611-.106918.281691-.213483.42324-.319693 14.602776-10.95711 31.935479-16.440411 49.234003-16.739586.120549-.000954.240929-.002878.361307-.004552.256055-.004305.512442-.006532.768808-.007621.196079-.000659.391704-.000986.587316-.000654zm24.688879 468.268868-73.139714 84.956448c-7.839944 9.106267-12.237468 19.757783-13.344158 30.579337-.009443.087388-.018098.175041-.026536.262703l.026536-.262703c-.025484.24919-.049223.49847-.071219.747824l.044683-.485121c-1.850957 19.229631 6.724735 38.878821 24.576519 51.342655 11.287803 7.880967 24.502556 11.646659 37.584034 11.589265 17.99734-.132085 35.781093-7.532222 47.907662-21.617499l5.088525-5.912926 53.491136-67.506712c20.180403-25.468836 14.569038-61.317651-12.722915-80.372462-20.891327-14.585996-48.383255-15.07547-69.414553-3.320809zm260.118992-1.051978c-16.338013 15.456601-21.475314 37.338943-15.424718 56.836547l60.437026 65.962213c22.362468 24.407509 61.811927 27.161509 87.826107 6.072859 14.002222-11.351038 21.209373-27.263044 21.281834-43.287244-.082838-14.648938-6.084922-29.272659-18.001107-40.482316l-48.068662-45.218601c-24.286405-22.846429-63.833881-22.793605-88.05048.116542zm-172.998015-255.969615c-18.386779 13.796416-41.1016 18.914621-62.626672 15.932893l70.677761 82.092049c5.453916 6.334843 12.261586 11.508733 19.980654 15.210718 7.567415 3.629253 7.567647 14.40358.000389 18.03316-7.719485 3.702595-14.527212 8.876631-19.981043 15.211376l-71.158102 82.650734c19.543417-1.825587 39.832244 2.931437 56.849843 14.812857 22.52092 15.723751 34.104224 40.283014 33.34333 64.902363l54.109861-62.853318c3.908578-4.539918 10.904593-4.647993 14.951539-.230974l39.390197 42.994994c1.839277-17.284465 9.742832-34.097022 23.715452-47.31584 20.904344-19.776584 50.249951-26.628021 77.002989-20.539875l-70.450916-76.891917c-4.768651-5.204742-10.473963-9.562103-16.853429-12.890289-7.165793-3.738414-7.166212-13.992581-.000725-17.731582 6.380238-3.329253 12.08567-7.686871 16.854154-12.891431l70.450916-76.891917c-26.753038 6.088146-56.098645-.763291-77.002989-20.539875-13.97262-13.218818-21.876175-30.031375-23.715452-47.31584l-39.390216 42.994242c-4.046945 4.416992-11.042931 4.308915-14.951505-.230978l-50.088777-58.181727c-.425576 22.494476-11.072065 44.636883-31.107259 59.670177zm218.01029-134.2632-60.436682 65.961176c-6.051082 19.497856-.913886 41.380682 15.424407 56.837547 24.216599 22.910147 63.764075 22.962971 88.05048.116542l48.068662-45.218601c12.097679-11.38039 18.099731-26.279633 18.000999-41.151644-.262436-15.789379-7.446961-31.40282-21.219303-42.567725l-.844957-.67424c-26.047316-20.432756-64.931358-17.437463-87.043606 6.696945zm-330.250156-56.983653-.813403.007341c-.009337.000145-.018673.000291-.02801.000439l.028121.000653c-13.422978.220894-26.872157 4.489561-38.090519 13.035196l-.717766.553201c-.045063.035409-.09006.070866-.134989.10637-.204113.162842-.407794.325719-.610066.489568l.610066-.489568c-.273553.216173-.544608.434115-.813163.653792l.203097-.164224c-.226366.183366-.450968.367949-.673804.55373l.470707-.389506c-.292587.239337-.582206.480734-.868851.724149l.398144-.334643c-.223919.186684-.446056.374578-.666407.563661l.268263-.229018c-.249196.211614-.496144.424753-.740841.63939l.472578-.410372c-.242406.20801-.482653.41746-.720736.628324l.248158-.217952c-.267983.235062-.533267.471921-.795846.710539l.547688-.492587c-.22594.200109-.449931.401492-.671972.604127l.124284-.11154c-12.157194 11.047815-18.518241 25.868096-18.661844 40.850635-.001715.111575-.002285.22325-.002508.334932l.002508-.334932c-.002277.237572-.002991.475184-.00214.712823l-.000368-.377891c-.025385 12.701732 4.434703 25.489789 13.618794 36.157313l69.050717 80.206443c22.144906 17.865681 55.505261 19.053157 79.206449 1.269105 26.493018-19.878887 30.833329-55.910339 9.832858-80.77494l-61.19882-72.45953c-12.092827-14.317932-29.975036-21.859216-48.088544-22.01323-.260386-.002505-.521097-.002915-.781835-.001798z"/></svg>