<svg height="960" viewBox="0 0 960 960" width="960" xmlns="http://www.w3.org/2000/svg"><path d="m390 355c9.388841 0 17 7.618648 17 17.016727v147.966546c0 9.398079-7.611159 17.016727-17 17.016727s-17-7.618648-17-17.016727l.001394-50.967644c-30.047222 2.35883-62.583742 8.087201-96.496567 16.483171-29.732333 7.360984-57.821023 16.067881-82.689905 24.943749-52.834755 18.857072-106.5898877 46.667155-165.4267091 91.102291-7.516239 5.676464-18.2263008 4.205174-23.92159255-3.286217-5.6952918-7.491391-4.21912244-18.166047 3.29711654-23.842511 61.78109321-46.658729 118.59741711-76.052511 174.53826011-96.018166 25.876357-9.235443 55.029886-18.272417 85.970259-25.932482 36.608108-9.063255 71.857612-15.199739 104.72855-17.585137l-.000806-62.8636c0-9.398079 7.611159-17.016727 17-17.016727zm183 40c9.388841 0 17 7.611159 17 17l.000317 22.954081c32.58514 2.43645 67.490694 8.540072 103.727427 17.511383 30.940373 7.660065 60.093902 16.697039 85.970259 25.932482 55.940843 19.965655 112.757167 49.359437 174.53826 96.018166 7.516239 5.676464 8.992408 16.35112 3.297117 23.842511-5.695292 7.491391-16.405354 8.962681-23.921593 3.286217-58.836821-44.435136-112.591954-72.245219-165.426709-91.102291-24.868882-8.875868-52.957572-17.582765-82.689905-24.943749-33.536463-8.302792-65.726999-13.996866-95.495262-16.403392l.000089 10.904592c0 9.388841-7.611159 17-17 17s-17-7.611159-17-17l-.000191-24.085219c-.522735-1.735612-.774063-3.584676-.706372-5.496267.052792-1.490838.296449-2.930104.706734-4.295291l-.000171-34.123223c0-9.388841 7.611159-17 17-17zm-59-40c9.388841 0 17 7.618648 17 17.016727v147.966546c0 9.398079-7.611159 17.016727-17 17.016727s-17-7.618648-17-17.016727v-147.966546c0-9.398079 7.611159-17.016727 17-17.016727zm-65 40c9.388841 0 17 7.611159 17 17v68c0 9.388841-7.611159 17-17 17s-17-7.611159-17-17v-68c0-9.388841 7.611159-17 17-17z" fill-rule="evenodd"/></svg>