<svg height="960" viewBox="0 0 960 960" width="960" xmlns="http://www.w3.org/2000/svg"><g fill="#000" fill-rule="evenodd"><path d="m408.5 250c7.455844 0 13.5 6.111663 13.5 13.650781v118.698438c0 7.539118-6.044156 13.650781-13.5 13.650781s-13.5-6.111663-13.5-13.650781l.000486-41.326926c-24.148744 1.870196-50.316045 6.473114-77.596624 13.236979-23.785867 5.897397-46.256819 12.873098-66.151925 19.984174-42.267803 15.107713-85.27191 37.388305-132.341367 72.988385-6.012991 4.54781-14.58104 3.369058-19.1372737-2.632817-4.5562335-6.001875-3.375298-14.554085 2.6376937-19.101895 49.424874-37.381555 94.877933-60.930959 139.630608-76.926835 20.701085-7.399156 44.023908-14.639305 68.776207-20.776316 29.434884-7.297997 57.771841-12.227332 84.182437-14.117496l-.000242-50.025691c0-7.539118 6.044156-13.650781 13.5-13.650781zm146 32c7.455844 0 13.5 6.118775 13.5 13.666667l.000028 18.082776c26.12533 1.941918 54.118546 6.838578 83.182167 14.044525 24.752299 6.137011 48.075122 13.37716 68.776207 20.776316 44.752675 15.995876 90.205734 39.54528 139.630608 76.926835 6.012992 4.54781 7.193927 13.10002 2.637694 19.101895-4.556234 6.001875-13.124283 7.180627-19.137274 2.632817-47.069457-35.60008-90.073564-57.880672-132.341367-72.988385-19.895106-7.111076-42.366058-14.086777-66.151925-19.984174-26.904194-6.670545-52.725617-11.239361-76.595947-13.158011l-.000191 9.232072c0 7.547892-6.044156 13.666667-13.5 13.666667s-13.5-6.118775-13.5-13.666667l.000161-19.774836c-.418402-1.390821-.619578-2.872592-.565411-4.404483.042225-1.194174.237081-2.347048.56519-3.440599l.00006-27.046748c0-7.547892 6.044156-13.666667 13.5-13.666667zm-47-32c7.455844 0 13.5 6.111663 13.5 13.650781v118.698438c0 7.539118-6.044156 13.650781-13.5 13.650781s-13.5-6.111663-13.5-13.650781v-118.698438c0-7.539118 6.044156-13.650781 13.5-13.650781zm-52 32c7.455844 0 13.5 6.118775 13.5 13.666667v54.666666c0 7.547892-6.044156 13.666667-13.5 13.666667s-13.5-6.118775-13.5-13.666667v-54.666666c0-7.547892 6.044156-13.666667 13.5-13.666667z"/><path d="m.79030904 505.676004c-.77649573 1.989245-1.03099935 6.88054-.56873768 10.866702l.8440171 7.246173 60.37968454.685242 60.379685.687798v-11.554501-11.551944h-59.8109473-59.81354387z"/><path d="m4.02705005 564.568041-4.03607468 5.794141v69.826952 69.824344h15.55327433 15.5532743v-58.267355-58.267356l4.7411565-4.315617 4.7385642-4.315618h40.6251525 40.6225608v-13.038119-13.03812h-56.8809168-56.88350867z"/><path d="m198.437993 553.850154c-19.948486 4.843624-35.471505 18.71672-40.282702 35.998292-1.480369 5.316807-2.697502 34.531945-2.705321 64.91704l-.015638 55.247992h18.095419 18.09542l.800129-53.09527.800128-53.09527 6.35933-6.746755c3.497631-3.710065 10.829103-8.080506 16.289265-9.713247l9.929937-2.969092v-16.486001-16.4886l-9.77356.26519c-5.374154.148195-13.292041 1.120559-17.592407 2.165721"/><path d="m289.837144 569.06801c-10.976384 2.686392-22.399195 9.068528-29.025515 16.222676-6.060501 6.538625-12.206653 20.322683-10.036812 22.503095.72155.727673 6.96114 1.864825 13.862584 2.532511l12.551855 1.212788 4.578468-7.023741c14.755437-22.628285 55.792942-15.792331 56.976492 9.48844l.407494 8.700779-24.657283 1.463171c-30.05593 1.783973-44.79839 6.19435-55.912336 16.728656-23.359531 22.137954-12.471394 62.253867 18.479985 68.088292 14.851471 2.798542 39.085687-.440777 49.506633-6.619478 10.000475-5.930927 16.476256-5.492758 16.476256 1.111071v3.993073h12.977518 12.977517l-.057101-51.510907-.057101-51.510908-4.830232-10.690796c-5.551782-12.279157-15.240796-20.074909-30.094863-24.208822-11.482507-3.194981-32.106378-3.419281-44.123559-.4799m50.162856 81.233423c0 8.888771-6.770286 22.207577-14.31766 28.16908-27.047355 21.357052-64.810215 3.561248-45.294639-21.346616 6.757291-8.622655 16.93481-11.591667 40.769854-11.889089l18.842445-.234808z"/><path d="m447.593089 573.783345-12.803665 6.508413-2.889219-3.904006c-1.915734-2.58878-7.400044-3.904005-16.268124-3.904005h-13.378906v67.714572 67.714573h14.31595 14.315949v-44.532749-44.532749l4.255742-8.972181c2.340007-4.935351 7.553615-10.678067 11.582904-12.764197 9.727037-5.031714 25.794739-4.812944 33.311914.455771 11.231513 7.870517 13.319038 18.207407 13.319038 65.987851v44.358254h14.31595 14.31595l-.057264-51.437031-.057264-51.437031-4.804953-10.417627c-11.952517-25.911242-41.849425-34.878214-69.474002-20.837858"/><path d="m555.717632 517.006203c-.018123.713306-.05437 43.610247-.077672 95.323653l-.044014 94.026732 14.317568.778152 14.317568.778152v-24.319852-24.317258l5.991113-5.641604c3.295888-3.102234 6.617668-5.63901 7.381444-5.63901s11.756976 13.384219 24.427894 29.743573l23.042741 29.74098 17.753266.08819 17.753267.085597-1.434346-3.745506c-.789667-2.05951-14.31239-19.456401-30.051358-38.656011-15.738969-19.19961-28.648082-35.898758-28.684329-37.107488-.038836-1.208729 12.487094-14.113088 27.832524-28.680098l27.89984-26.483116-19.133242-.103753-19.133242-.103754-25.036326 24.641488c-13.768685 13.552819-25.838939 24.641489-26.820197 24.641489-.983848 0-1.789049-23.928182-1.789049-53.173738v-53.173739h-14.239896c-7.831943 0-14.25543.583615-14.273554 1.296921"/><path d="m703.687252 612.86138v95.051512h14.178955 14.178955v-95.051512-95.051512h-14.178955-14.178955z"/><path d="m773.514593 532.536121c-.597144.59036-.680587 6.97089-.182533 14.178955l.902235 13.10651h14.091551 14.088943v-14.178954-14.178955h-13.90641c-7.650742 0-14.396642.482084-14.993786 1.072444"/><path d="m773.674159 637.438437c0 35.757334-.292632 65.889715-.653197 66.963735-.360564 1.07402 6.106078 2.301472 14.370316 2.73056l15.023511.78016v-67.743895-67.743895h-14.370315-14.370315z"/><path d="m886.974559 574.302695c-14.871133 7.556821-16.627383 7.831803-16.627383 2.604548v-3.891257h-15.586067-15.586067l.691621 66.799911.69162 66.79991h14.246862 14.246862l1.295169-46.695083c.818547-29.47238 2.45046-48.713348 4.426889-52.163596 8.133663-14.200494 32.708204-18.872596 45.646945-8.682691 9.889913 7.79289 12.063207 19.796121 12.078749 66.683172l.015542 42.155283h14.246862 14.246862l-.015542-48.640711c-.007771-27.301058-1.261495-53.139004-2.857144-58.89547-7.73216-27.897718-42.499684-40.635099-71.16178-26.074016"/></g></svg>