<?xml version="1.0" encoding="UTF-8"?>
<svg width="960px" height="960px" viewBox="0 0 960 960" version="1.1" xmlns="http://www.w3.org/2000/svg" xmlns:xlink="http://www.w3.org/1999/xlink">
    <!-- Generator: Sketch 60.1 (88133) - https://sketch.com -->
    <title>nl.homewizard/drivers/heatlink/assets/icon</title>
    <desc>Created with Sketch.</desc>
    <g id="nl.homewizard/drivers/heatlink/assets/icon" stroke="none" stroke-width="1" fill="none" fill-rule="evenodd">
        <path d="M875.012658,119 C922.034182,119 960.241689,156.737292 961.001137,203.577833 L961.012658,205 L961.012658,778 C961.012658,812.446 933.367898,840.43522 899.054478,840.99156 L898.012658,841 L64.0126582,841 C29.5666584,841 1.57743823,813.35524 1.01265823,779.04182 L1.01265823,778 L1.01265823,205 C1.01265823,157.978476 38.7499499,119.77097 85.590491,119.011522 L87.0126582,119 L875.012658,119 Z M875.012658,159 L87.0126582,159 C61.8616107,159 41.4250373,179.185063 41.0126582,204.239306 L41.0126582,205 L41.0126582,778 C41.0126582,790.575524 51.1051897,800.79381 63.6323112,801 L64.0126582,801 L898.012658,801 C910.588182,801 920.806469,790.907469 921.012658,778.380347 L921.012658,778 L921.012658,205 C921.012658,179.848952 900.827595,159.412379 875.773352,159 L875.012658,159 Z M722.512658,714 C726.102509,714 729.012658,716.910149 729.012658,720.5 L729.012658,735.5 C729.012658,739.089851 726.102509,742 722.512658,742 L241.512658,742 C237.922807,742 235.012658,739.089851 235.012658,735.5 L235.012658,720.5 C235.012658,716.910149 237.922807,714 241.512658,714 L722.512658,714 Z M718.012658,425 C724.08779,425 729.012658,429.924868 729.012658,436 L729.012658,688 C729.012658,694.075132 724.08779,699 718.012658,699 L246.012658,699 C239.937526,699 235.012658,694.075132 235.012658,688 L235.012658,436 C235.012658,429.924868 239.937526,425 246.012658,425 L718.012658,425 Z M468.950595,464.945785 C464.708196,466.00037 461.314277,469.079757 459.956709,473.21373 L458.7777,476.714952 C454.12454,490.430296 450.241615,500.623202 447.696175,505.568393 C443.029536,514.72219 437.641689,523.749436 432.423538,532.439215 L431.829602,533.451617 L430.465331,535.733907 C426.331028,542.667845 421.859964,550.367158 418.041804,558.339819 C411.678206,571.669772 408.411558,583.987323 408.029742,596.051774 C407.860046,602.505833 408.411558,608.453692 409.81155,614.14845 C412.908501,626.972202 419.90846,637.939884 430.599306,646.756214 C433.102322,648.8232 436.750785,651.143287 441.544696,653.67429 C444.5568,655.277259 448.077991,654.644508 450.284039,652.113505 C452.470053,649.652807 452.731275,646.195298 450.872774,643.369103 L450.708279,643.128442 C448.756775,640.344338 447.229511,637.560234 445.914367,634.354296 C442.308328,628.026787 440.399248,620.771243 440.399248,613.431332 C440.399248,597.317276 446.720423,588.036929 449.477983,584.029506 C451.354621,581.210663 453.644635,578.39182 456.560242,575.186122 L457.114301,574.580426 C458.811261,572.724357 461.483973,570.108986 463.774868,567.873266 L464.413826,570.036057 L464.413826,570.036057 L466.124841,575.720038 C473.951806,601.611066 474.81332,602.197033 478.028606,602.210246 L478.283874,602.210549 C483.155845,602.210549 484.493537,597.952123 488.965511,567.660242 L490.200284,559.181483 C490.662855,555.944005 491.022102,553.336869 491.095919,552.602878 L493.362186,554.778674 C496.44329,557.756569 500.45041,561.705452 503.017061,564.456412 C507.6837,569.518419 511.204892,573.863308 514.132147,578.208198 C523.974513,592.845836 526.053289,605.458671 526.053289,613.431332 C526.053289,626.534549 520.112752,638.694311 509.777546,646.836414 L509.338236,647.178047 C508.404908,647.852982 507.6837,649.287217 507.598852,650.426169 C507.47158,653.125906 508.786724,655.741276 511.07762,657.302062 C512.35034,658.14573 513.792755,658.567564 515.277595,658.567564 C516.423043,658.567564 517.610915,658.314464 518.798786,657.766079 C540.647142,647.557698 554.85918,625.83325 555.91978,601.113781 C556.174324,594.490988 555.834932,587.615095 554.731908,580.106451 C553.756156,573.146191 552.10162,566.228114 549.810725,559.520954 C546.077414,548.553272 540.604719,537.754323 533.053248,526.53354 C526.138137,516.282975 517.950307,506.074594 507.174612,494.431977 C500.386774,487.092067 489.059568,476.082201 480.786889,468.109539 C477.647514,465.072335 473.235419,463.8912 468.950595,464.945785 Z" id="Shape" fill="#000000" fill-rule="nonzero"></path>
    </g>
</svg>