<svg height="960" viewBox="0 0 960 960" width="960" xmlns="http://www.w3.org/2000/svg"><g><path d="m778.325506 27.5598579-506.708893 73.0247621c-14.542911 2.094603-25.440511 14.474722-25.930905 29.289779l-23.455806 708.900336c-.519485 15.730732 10.818078 29.354509 26.287866 31.394009l506.813294 66.823575c17.790406 2.346849 33.582749-11.433446 34.07883-29.513494l23.349625-848.7475815c.517175-18.9072336-15.855606-33.8490716-34.434011-31.1713856zm14.445781 30.6245242-23.35385 848.7451639c-.173542 6.324851-5.549284 11.015688-11.471349 10.234469l-506.814063-66.823676c-5.190354-.684284-9.09559-5.377009-8.913041-10.904853l23.45578-708.899562c.172069-5.198294 3.917605-9.453375 8.793852-10.155697l506.70986-73.0249009c6.18627-.8916206 11.769739 4.2038662 11.592811 10.829056z" transform="matrix(-1 0 0 1 1034.984198 0)"/><path d="m256.558579 32.221633c3.190503 4.4195123 4.750039 9.4476221 5.398611 16.5394083l.086534 1.027308c.053662.6944406.099372 1.4082278.137752 2.1426186l.052151 1.117196.041622 1.1490441c.006086.1942138.011752.3897938.017009.5867597l.026705 1.1985838.017343 1.2327887.008447 1.2679363c.001034.214304.001034.4301118.001034.6474431l-1.184565 841.1006274c-.260641 16.456818-7.324 27.706755-18.783838 33.340222-6.267381 3.08094-12.513803 3.976216-17.753779 3.75571l-.359295-.017971-.289506-.019728c-5.505675-.435185-9.61612-5.251204-9.180935-10.756879.427809-5.412358 5.089208-9.476381 10.477542-9.19916l.193079.011423c.67956.028597 1.714811-.011105 2.944198-.187309 1.817483-.260492 3.578396-.764296 5.145481-1.534648 4.609775-2.266089 7.371019-6.576455 7.599858-15.247944l.010217-.524984.009824-4.490281 1.170981-836.7354805-.005966-.9574663-.011878-.9214934-.017735-.886056-.037462-1.2638104-.050328-1.1870885-.040607-.7496616-.046186-.7169018-.051709-.6846775-.057177-.6529888-.06259-.6218355c-.010879-.1010729-.021982-.20087-.033307-.2994026l-.070604-.5761097c-.012208-.0935189-.024636-.1857955-.037282-.276841l-.078494-.5315888-.083683-.5025777-.088818-.474102-.093897-.4461618-.09892-.4187572c-.050707-.2026167-.103276-.3951575-.157678-.5779236l-.111236-.3525885c-.227319-.6794681-.483611-1.2057544-.766878-1.5981372-.067773-.0938809-.146068-.1851134-.236119-.2732779l-.144051-.1298934c-.153177-.1274876-.334201-.2476002-.547244-.3589218l-.223872-.1083388c-.195712-.087753-.414627-.1690733-.659161-.2431414l-.305892-.0853482c-.053083-.0136271-.107229-.0269509-.162458-.039965l-.344522-.0743151c-.119275-.0234977-.243035-.045704-.371435-.0665663l-.399276-.0585027c-.068918-.0090611-.139034-.017773-.210369-.0261293l-.442776-.0458174-.472937-.0369673c-.081388-.0054062-.164071-.0104305-.248069-.0150665l-.519916-.0231018c-.089333-.003056-.18002-.0057105-.27208-.0079568l-.568983-.0085285c-.195255-.0011754-.396155-.0006661-.602854.0015805l-.637653.0120042-.673379.0227425-.710033.0337956-.747615.0451632-.65792.0464046-15.515091 1.6648185c-5.398286.5789271-10.253144-3.2519048-10.975633-8.5987736l-.033667-.2778994c-.578927-5.3982858 3.251905-10.2531436 8.598774-10.975633l.277899-.0336665 15.676201-1.681159.289313-.0267816c13.089873-1.0201673 22.330858 1.7311269 28.056783 9.6627276z" transform="matrix(-1 0 0 1 465.947548 0)"/><path d="m729.377086-.4003595c-2.390546 0-4.834582.0998988-7.339326.29325792-.367384.028361-.734359.06179712-1.100819.10029878l-15.676201 1.64700007c-.288502.0303111-.576666.06375974-.86444.10033997l-2.785854.34764863-2.524039.30153762c-.199354.02320237-.395954.04592275-.589792.0681607-.394941.04530938-.789185.09650379-1.182599.15356618l-504.12712 73.12083373c-28.938202 4.0826793-50.759324 28.3607259-51.751756 57.5650499l-23.454272 694.277016c-1.04617 31.025651 21.666352 57.758662 52.453652 61.733813l506.812928 65.444339.88054.106125c1.749693.197462 3.434251.307333 5.111011.349927l.750001.013446 50.198 2.66-.564444-.036592c2.774769.200354 5.557111.300067 8.34193.300067h1.27193c6.358865-.07667 12.704582-.668898 18.973665-1.777174l23.294919-4.128301.893118-.139358c31.347837-5.168926 54.518171-32.305813 54.518171-64.268968v-821.2086324c0-32.6111811-24.745389-59.89814708-57.198893-63.07957614l-.653167-.05862866-.654041-.04791257-1.213188-.07992423-45.109509-3.47768589c-2.201066-.18888307-4.435981-.27967361-6.710405-.27967361zm0 40c.93312 0 1.821312.0288 2.665497.0854784l46.388105 3.5775217 1.3842.09c11.9718 1.1736001 21.101401 11.2392005 21.101401 23.270401v821.2086324c0 12.587401-9.313201 23.236201-21.785401 24.915601l-23.884201 4.2318c-4.3884.7758-8.832601 1.1664-13.282201 1.1664-1.8198 0-3.6414-.0648-5.4612-.1962l-51.366602-2.7216-.2214.0018c-.8406 0-1.6884-.0378-2.5452-.1476l-506.81342-65.444402c-10.330201-1.3338-17.949601-10.303201-17.598601-20.712601l23.454001-694.269028c.328988-9.681137 7.478215-17.749452 17.012914-19.263347l504.630709-73.1952764 2.679821-.3160356 3.704777-.4599444 15.676201-1.6470001c1.5156-.117 2.9358-.1746 4.2606-.1746z" transform="matrix(-1 0 0 1 958.862438 0)"/></g></svg>