<svg height="960" viewBox="0 0 960 960" width="960" xmlns="http://www.w3.org/2000/svg"><path d="m179.142594 6.99999987.558958.01376054 704.806673 26.15832059c10.749648.3989643 19.258227 9.2291908 19.258227 19.9862396v723.1142234c0 .645659-.031265 1.290938-.093687 1.933572l-12.976705 133.596461c-.971362 10.000266-9.211195 17.727642-19.253167 18.055761l-707.917288 23.130994c-1.622749.053023-3.245917-.091753-4.833667-.431131l-86.8861687-18.571719c-9.2262045-1.97208-15.8194792-10.123587-15.8194792-19.558202v-861.9953553c0-9.19853 6.2742175-17.2109223 15.2044012-19.4165453l102.9734887-25.43292473c1.448168-.35767597 2.930659-.55193435 4.419749-.57992296zm154.282696 791.66300013-145.727 3.28-12.464 110.642 144.985-4.737zm-165.807-748.2620001-71.6319999 17.6930001v830.157l59.3089999 12.677 13.443169-119.338zm558.184 739.4290001-372.176 8.378-13.181 108.979 360.374-11.775zm136.851-3.08-114.892 2.586-15.727 105.056 120.547-3.939zm-675.039-739.4150001 1.11 734.5800001 146.019-3.287.000975-321.455567.768025-53.954433-.768003-247.542167c-.016894-5.458497 4.335543-9.884653 9.725463-10.027557l.274942-.003561.276632.00392 394.441363 10.931647c5.412874.150014 9.722964 4.58121 9.722964 9.996162l-.000361 602.722556 114.581-2.579v-694.291zm541.571 415.2380001-374.442 4.618v310.987l374.441-8.429zm-309.740754 250.278433c0 14.732102-11.150252 27.391855-25.462619 28.119525-14.746748.749755-26.478147-11.43646-26.478147-26.57664 0-14.786027 11.167541-27.46541 25.51319-28.121969 14.715342-.673478 26.427576 11.492828 26.427576 26.579084zm85.175377-4.11436c0 14.636716-11.178408 27.177158-25.462619 27.903396-14.71437.748108-26.478147-11.312539-26.478147-26.360511 0-14.690526 11.195888-27.250577 25.51319-27.905838 14.683159-.672006 26.427576 11.368792 26.427576 26.362953zm85.175377-4.114359c0 14.542047-11.206605 26.962461-25.462618 27.687266-14.68195.74646-26.478148-11.187786-26.478148-26.144381 0-14.595744 11.22428-27.035747 25.513191-27.689709 14.650938-.670531 26.427575 11.243925 26.427575 26.146824zm-195.669465 1.62394-.19448.004782c-3.294748.150791-6.427575 3.707735-6.427575 8.142882 0 4.080993 2.568968 6.749558 5.462618 6.602439 3.328032-.169204 6.478148-3.745777 6.478148-8.145324 0-3.865599-2.36319-6.492213-5.125378-6.60125zm85.177428-3.898455-.196531.005007c-3.323095.152089-6.427575 3.634834-6.427575 7.926752 0 3.934472 2.53659 6.535075 5.462618 6.38631 3.356188-.170635 6.478148-3.67299 6.478148-7.929195 0-3.72548-2.333805-6.283757-5.121459-6.385712zm85.181927-3.898467-.203081.005244c-3.351487.153388-6.427575 3.562653-6.427575 7.710623 0 3.787118 2.50417 6.320593 5.462619 6.17018 3.384384-.172069 6.478147-3.600924 6.478147-7.713065 0-3.580778-2.299515-6.069966-5.108617-6.169861zm-145.040644-49.93143c0 14.765634-11.202232 27.378825-25.556566 27.973341-14.710644.609273-26.3842-11.626879-26.3842-26.731494 0-14.819569 11.219706-27.452435 25.6072-27.975308 14.678995-.533468 26.333566 11.682783 26.333566 26.733461zm85.175377-3.311592c0 14.670534-11.230777 27.163877-25.556566 27.757211-14.678661.607948-26.3842-11.503315-26.3842-26.515364 0-14.724356 11.248442-27.23735 25.6072-27.759179 14.647208-.532312 26.333566 11.559104 26.333566 26.517332zm85.175377-3.311592c0 14.576164-11.259362 26.948931-25.556566 27.541081-14.646635.606622-26.3842-11.37893-26.3842-26.299234 0-14.629872 11.277223-27.022266 25.607201-27.54305 14.615381-.531155 26.333565 11.434607 26.333565 26.301203zm-195.765291-.126498-.192664.003026c-3.252904.118218-6.333565 3.586899-6.333565 7.988503 0 4.11656 2.626811 6.869967 5.556566 6.748625 3.286064-.136099 6.3842-3.624456 6.3842-7.990472 0-3.903537-2.42073-6.610651-5.222912-6.744485zm85.181673-3.095602-.19896.003166c-3.281639.119262-6.333565 3.514286-6.333565 7.772373 0 3.970394 2.594829 6.655162 5.556566 6.532495 3.314609-.137281 6.3842-3.551957 6.3842-7.774342 0-3.759817-2.386817-6.396466-5.210552-6.528497zm85.177406-3.09561-.200988.003313c-3.310421.120308-6.333566 3.442403-6.333566 7.556244 0 3.82341 2.562803 6.440359 5.556566 6.316365 3.343194-.138465 6.3842-3.480187 6.3842-7.558212 0-3.619256-2.357757-6.187683-5.206677-6.312919zm-144.944542-51.392236c0 14.799384-11.254827 27.365719-25.650624 27.826273-14.673819.469449-26.290142-11.816193-26.290142-26.885464 0-14.853329 11.272486-27.439381 25.701307-27.827766 14.641941-.394123 26.239459 11.87163 26.239459 26.886957zm85.175377-2.508825c0 14.704579-11.283762 27.150515-25.650624 27.610144-14.642232.468438-26.290142-11.692978-26.290142-26.669335 0-14.758409 11.301612-27.224035 25.701307-27.611637 14.610549-.393277 26.239459 11.748302 26.239459 26.670828zm85.175377-2.508825c0 14.610514-11.312737 26.935313-25.650624 27.394014-14.610601.467427-26.290142-11.568954-26.290142-26.453205 0-14.66423 11.330784-27.00869 25.701307-27.395507 14.579118-.392431 26.239459 11.624163 26.239459 26.454698zm-195.856954-1.877663-.195107.001114c-3.211578.086447-6.239459 3.467163-6.239459 7.835008 0 4.151903 2.684044 6.990599 5.650624 6.895692 3.244601-.103803 6.290142-3.504236 6.290142-7.836501 0-3.937353-2.472929-6.723959-5.312078-6.888196zm85.177337-2.292847-.197067.001266c-3.240704.087231-6.239459 3.394844-6.239459 7.618878 0 4.006087 2.652458 6.77548 5.650624 6.679562 3.273536-.104728 6.290142-3.432031 6.290142-7.620371 0-3.797768-2.444207-6.51485-5.308332-6.672565zm85.181747-2.292789-.203437.00136c-3.269875.088016-6.239459 3.323265-6.239459 7.402748 0 3.859463 2.620827 6.560363 5.650624 6.463432 3.302511-.105654 6.290142-3.360566 6.290142-7.404241 0-3.653715-2.410572-6.300323-5.295827-6.456464zm-144.852884-52.852182c0 14.833354-11.308038 27.352524-25.744767 27.678323-14.636298.330303-26.195999-12.004403-26.195999-27.038551 0-14.887305 11.325882-27.42623 25.795485-27.679339 14.604204-.255464 26.145281 12.05937 26.145281 27.039567zm85.175377-1.706057c0 14.73885-11.337363 27.137055-25.744766 27.462193-14.605107.329599-26.196-11.881529-26.196-26.822422 0-14.792687 11.355399-27.210616 25.795485-27.463209 14.573207-.254921 26.145281 11.936381 26.145281 26.823438zm85.175377-1.706058c0 14.645097-11.366729 26.921589-25.744766 27.246064-14.573871.328894-26.196-11.757857-26.196-26.606292 0-14.69882 11.384963-26.995004 25.795485-27.24708 14.54217-.254378 26.145281 11.812596 26.145281 26.607308zm-196.146239-3.630511c-3.170795.055465-6.145281 3.348529-6.145281 7.682398 0 4.187025 2.740666 7.111437 5.744766 7.043642 3.20367-.072299 6.196-3.385118 6.196-7.683414 0-4.151453-2.759291-7.095737-5.795485-7.042626zm85.175377-1.489928c-3.200313.055981-6.145281 3.276512-6.145281 7.466268 0 4.041551 2.709475 6.896011 5.744766 6.827513 3.232995-.07296 6.196-3.313215 6.196-7.467284 0-4.005864-2.728294-6.88015-5.795485-6.826497zm85.175377-1.489928c-3.229876.056499-6.145281 3.205245-6.145281 7.250139 0 3.895278 2.678239 6.680586 5.744766 6.611383 3.262362-.073623 6.196-3.242063 6.196-7.251155 0-3.859477-2.697256-6.664562-5.795485-6.610367zm-161.492515-97.073559-47.136.427-.483002 34.004778 47.619002-.587778zm67.125-.609-47.125.427v33.779l47.125-.581zm64.869-.588-44.869.407v33.559l44.869-.553zm67.125-.608-47.125.427v33.347l47.125-.581zm61.485-.558-41.485.376v33.128l41.485-.511zm66.073-.599-46.073.418v32.927l46.073998-.567222zm-374.409002-243.867203.706 227.254 312.806002-2.835797 60.897998-.551203v-213.491zm21.658659 12.196592.276632.00392 331.163807 9.177957c5.412874.150014 9.722964 4.58121 9.722964 9.996162v171.099067c0 5.487485-4.422105 9.949853-9.909364 9.999589l-330.594993 2.99693c-5.545909.049848-10.073374-4.422862-10.090588-9.968973l-.568863-183.273534c-.016893-5.458497 4.335544-9.884653 9.725463-10.027557zm10.030596 20.282082.506 162.9 310.626-2.815v-151.462z"/></svg>