<svg height="960" viewBox="0 0 960 960" width="960" xmlns="http://www.w3.org/2000/svg"><path d="m496.109648-13.123765c5.522848 0 10 4.47715255 10 10.00000005l-.000039 127.15999495c5.429174-.482712 10.88069-.797404 16.350255-.942759l1.889025-.043452c.129577-.002518.259166-.004406.388761-.005665l4.373991-.044354h.388359c169.935047 0 304.5 161.274443 304.5 357s-134.564953 357-304.5 357c-7.703884 0-15.377427-.335265-23.008884-1.002594l-.133116-.012406-.347785.010433-.401215.003802.000648 124.169889c0 5.522847-4.477152 10-10 10-5.522847 0-10-4.477153-10-10l-.000648-125.923889-57.109-5.717v131.640889c0 5.522847-4.477153 10-10 10s-10-4.477153-10-10v-134.000889l-3.897429-.55261c-158.149353-23.740139-277.153541-168.505206-279.565242-340.779972l-.037329-5.335653c0-177.496161 123.283969-325.059916 283.998402-346.754212l.001598-135.86955295c0-5.5228475 4.477153-10.00000005 10-10.00000005s10 4.47715255 10 10.00000005l.000152 133.83903495c3.39486-.232029 6.804309-.408191 10.227581-.527631l4.181267-.108639 42.7-3.771765.000648-129.43099995c0-5.5228475 4.477153-10.00000005 10-10.00000005zm33.512607 176.123798.121209-.000033c-145.895221 0-264.166667 141.925734-264.166667 317 0 175.025779 118.205944 316.921384 264.045456 316.999967l-.122253.000033c76.204233 0 144.881647-38.622634 193.147511-100.425707 44.201415-56.670015 71.26262-132.829864 71.26262-216.574293 0-84.035648-27.249741-160.433873-71.724316-217.164789l-2.806169-3.519965c-48.046457-59.367869-115.305563-96.274852-189.757391-96.315213zm-116.638087 9.577913-.138169.028181c-139.846335 19.771863-247.845999 149.636313-247.845999 306.893873 0 156.354316 106.762587 285.629296 245.439451 306.542301-97.637232-53.545653-164.862654-170.803629-164.862654-306.042301 0-136.410726 68.395697-254.527744 167.407371-307.422054zm164.015832 68.459285v76.158731c0 18.785485-15.442917 35.581329-34.656063 38.187093-20.33718 2.758211-37.343937-11.942021-37.343937-32.383055v-80c0-19.828889 16.034678-36.083846 35.862637-36.356235 19.826182-.272365 36.137363 15.031544 36.137363 34.393466zm-35.530074-14.396822-.332563.001469c-8.890848.122139-16.137363 7.468204-16.137363 16.358122v80c0 8.277773 6.274436 13.701245 14.656063 12.564495 9.505661-1.289196 17.343937-9.814169 17.343937-18.368533v-76.158731c0-7.878203-6.796851-14.353802-15.530074-14.396822zm-.469926 12.359591c3.313708 0 6 2.686292 6 6s-2.686292 6-6 6-6-2.686292-6-6 2.686292-6 6-6z"/></svg>