<svg height="960" viewBox="0 0 960 960" width="960" xmlns="http://www.w3.org/2000/svg"><path d="m272.036455 2.51813495 424.23728 38.30121535c28.85935 2.6054951 50.964658 26.7964332 50.964658 55.7731596v769.6824811c0 29.06443-22.235231 53.298044-51.192356 55.793248l-424.172224 36.550461c-1.895549.163338-3.800337.191226-5.699856.083454l-24.221312-1.374238c-29.647948-1.682127-52.827845-26.214455-52.827845-55.910083v-841.7445449c0-29.7235524 23.222076-54.26875018 52.900052-55.91413344l24.200682-1.34171534c1.936853-.1073815 3.878951-.07372748 5.810921.10069563zm-3.323681 39.86906715-.280431.0092228c-.667335.0277954-1.324972.0969975-1.970264.2051858-.10826.0181527-.215869.0373455-.32312.057618-1.030768.194809-2.028838.4895057-2.982797.8739454-.151047.0608704-.301044.1240151-.44989.1893713-.381926.167705-.756064.3498566-1.121896.5458771-.366369.1963114-.724294.4064599-1.073154.6298316-.075222.0481658-.149834.0968206-.224019.1460802-.415194.2756973-.816967.5702998-1.204084.8826651-.491923.3969449-.960011.8224015-1.401801 1.2740992-.164522.1682241-.325025.3396718-.481762.5146174-.760802.8492783-1.432422 1.7802268-1.999919 2.7793093-.139026.2447682-.271668.4933558-.397847.7458164-.871404 1.7436555-1.434426 3.6715245-1.614459 5.7156795-.020652.2343928-.036298.4709509-.046767.7089424-.008112.1843647-.013121.3698239-.014962.5560971l-.000802.1622526v844.3750817c0 .4782.020876.951171.061737 1.418096.086646.990578.263413 1.954551.521728 2.883469.042419.152543.08706.304214.133864.454904.040661.130911.082934.261018.126812.390362.050815.149783.103712.298352.15872.445867.498845 1.337767 1.171292 2.588847 1.988787 3.727008.078389.109145.158422.217662.239775.325109.393124.519235.817133 1.013585 1.269073 1.48031.161095.166362.325616.329097.493551.488209.483921.458447.995484.886288 1.532222 1.281279.109722.080746.22051.160129.332325.238115.407683.284361.829449.550397 1.263596.796638.216117.122566.434678.23991.656131.352232.129625.065748.260448.129874.392234.192245.243759.115369.491002.224812.741342.328056.219174.090383.440215.175831.663485.256427.151037.054523.303232.10687.456408.156955.879415.287588 1.79182.500694 2.728706.631878.16788.023508.336673.0444.506207.062615.402323.043226.808753.071378 1.218752.083909l424.001751-36.536659c8.273464-.712916 14.626387-7.636805 14.626387-15.940928v-769.6824811c0-8.2790647-6.315802-15.1907613-14.56133-15.9351885l-423.894597-38.2716501c-.023242.00046-.046472.0009703-.069692.0015308zm-33.897022 5.0492901c-3.488966 2.9429894-5.690952 7.3443792-5.690952 12.2367959v841.7445449c0 4.881699 2.192484 9.275024 5.667967 12.217425-.156061-.493831-.301794-.992385-.436933-1.495419-.038031-.142976-.075495-.285894-.112101-.429167-.020887-.080461-.041071-.160659-.060986-.240967-.0196-.080252-.039317-.160922-.058762-.241703-.033418-.137721-.065681-.275399-.097153-.413388-.019482-.086438-.038836-.172733-.057879-.259149-.023868-.107367-.04707-.215057-.069791-.322931-.030963-.147841-.061199-.295982-.090525-.444464-.012531-.062695-.024667-.125037-.036642-.187438-.026148-.136939-.051725-.274508-.076519-.41236-.015276-.08432-.030026-.168073-.044488-.25193-.069261-.402053-.13204-.80697-.18803-1.214156-.015662-.113561-.030758-.227393-.045323-.3414-.015599-.12239-.030637-.24508-.045058-.367967-.007426-.06303-.014645-.125992-.021703-.189005-.016767-.149935-.032639-.300107-.047588-.450566-.009003-.09044-.017661-.181064-.025983-.27179-.014219-.155142-.027464-.31048-.039722-.46611-.004035-.051115-.007964-.102389-.011786-.153694-.013041-.175182-.02482-.350375-.035346-.525926-.003126-.052077-.006151-.104405-.009064-.156764-.008866-.159414-.016697-.319002-.02349-.478875-.002859-.067273-.005523-.134351-.008005-.201479-.005132-.138797-.00949-.278082-.013057-.417577-.004317-.168805-.007474-.337747-.009469-.506987l-.002564-.435151v-844.3750817c0-.218007.001928-.4355295.005767-.6525523l-.005767.6525523c0-.3267611.004331-.6524337.012937-.9769667.003326-.1254676.007301-.2510202.011914-.3763989.003145-.0854757.006574-.1705544.010295-.2555519.006676-.1525033.014322-.3051941.022912-.4576164.00393-.0697237.008038-.1390681.01234-.2083563.007858-.1265402.01637-.2529267.025529-.3791226.009103-.1254376.018879-.2510859.029296-.3765417.01233-.1484835.025535-.2964489.039628-.4441402.003775-.039563.007627-.0792389.011544-.1188948.01798-.1820811.03732-.3638054.058002-.5451003.005654-.049558.011382-.0988685.01721-.148147.017793-.1504616.036545-.3008815.056218-.4509966.018206-.1389042.037155-.2772292.056886-.41529.081868-.5729117.177272-1.1417291.285803-1.7056756.02423-.1259051.049126-.2516217.074673-.3770919.021691-.1065363.043847-.2128695.066469-.3190228.018442-.0865388.037261-.1732647.056392-.2598691.026891-.1217324.054347-.2430118.082413-.3640489.021678-.0934882.043722-.1868437.066127-.280053.030975-.1288639.062762-.2579294.095242-.3867095.019208-.0761523.038551-.1517965.058134-.2273411.163726-.6316491.344264-1.2567389.540988-1.8743858zm188.206829 173.2352128 189.240949 10.380243c13.785396.756157 24.575989 12.154856 24.575989 25.960975v452.53908c0 13.884186-10.908875 25.318542-24.77771 25.971253l-189.240949 8.906281c-14.822866.697611-27.22229-11.131981-27.22229-25.971254v-471.825603c0-14.919004 12.527401-26.778084 27.424011-25.960975zm-7.424011 25.960975v471.825603c0 3.424448 2.861406 6.154354 6.282067 5.993366l189.240949-8.90628c3.2005-.150626 5.717933-2.789323 5.717933-5.993366v-452.53908c0-3.186028-2.490137-5.816497-5.671382-5.990994l-189.240949-10.380244c-3.437679-.188563-6.328618 2.548148-6.328618 5.990995zm32.856365 9.695217 147 9.063795c.148578.009161.296233.021534.442899.037049.168495.017805.33591.039805.501917.065857.167239.026265.33318.056649.497585.091041.090648.018945.180265.038998.269404.060236.130151.03103.25959.064649.387951.100751.15925.044766.316828.093373.472648.145693.079775.026811.158724.05444.237203.08302.11291.0411.224829.084179.335736.129181.105222.042716.209173.086986.312185.13294.161615.072083.321019.148374.47798.228676.508472.260139.991289.56235 1.444028.901931.111811.083862.222085.170243.330447.258844.102397.083714.2033.169604.302431.257423.066967.059326.133381.119766.198963.181076.230174.215161.450354.44132.659481.677383.1919.216602.374649.441754.547477.674625.184477.248579.357684.505998.518852.771437.154224.253992.297306.515114.428745.782893.176093.358769.331369.729675.464187 1.110905.127597.366232.234393.741723.319134 1.125288.1542.698177.235331 1.422488.235331 2.164796l.000418 228.837433c.088789.491601.141797.996073.156167 1.510714.019753.707412-.034457 1.399712-.155615 2.069483l-.000338 56.421355c.085596.474373.137905.960791.154355 1.456848.024073.725939-.029849 1.436368-.154223 2.123228l-.000764 122.31168c0 1.399356-.288198 2.734308-.809684 3.946964-.120738.280816-.254116.555284-.399339.822462-.170656.313927-.357524.617606-.559619.910068-.053965.078111-.109106.155531-.165315.232126-.158722.216281-.325968.426005-.501255.628649-.223893.258818-.46063.505826-.709462.740265-.022937.021614-.046084.043217-.069334.064712-.161722.149511-.328467.293803-.499931.432559-.031615.025588-.063538.051102-.095621.076424-.183292.144662-.371885.283117-.565396.414977-.023042.015704-.046199.031341-.069424.046884-.462923.309798-.953482.582103-1.467416.812439-.080261.035957-.160837.070795-.241963.104599-.334857.139552-.679236.261517-1.031877.364669-.130371.038112-.261768.073648-.394236.106558-.014357.003587-.02831.007021-.042275.010426-.18651.045455-.375481.085797-.566408.120751-.178596.032711-.358664.060657-.540308.083765-.158689.020172-.318489.036661-.479407.049372-.09203.007279-.184944.013342-.278212.018137l-.140237.006622-146.844989 7.769372c-.719072.038041-1.423673-.000676-2.106085-.108831l-2.149637.109602c-5.717009.293966-10.513519-4.262245-10.513519-9.986807v-431.571299c0-5.758083 4.850451-10.326552 10.598222-9.982091l1.983656.11794c.735322-.122812 1.496751-.164849 2.274487-.116895zm62.763865 383.012009-53.38 1.965v45.828l53.38-2.745zm73.62-2.708-53.62 1.972v44.756l53.620718-2.755442zm0-60.291-127 4.212v40.739l127-4.673zm0-60.054-127 3.546v40.709l127-4.212zm0-59.17-127 2.072v40.636l127-3.547zm-127-58.478v40.548l127-2.072v-38.135zm0-60.463v40.462l127 .342v-37.181zm0-60.996v40.988l127 3.623.000718-36.999522z"/></svg>