<?xml version="1.0" encoding="utf-8"?>
<!-- Generator: Adobe Illustrator 21.0.0, SVG Export Plug-In . SVG Version: 6.00 Build 0)  -->
<svg version="1.1" id="Layer_1" xmlns="http://www.w3.org/2000/svg" xmlns:xlink="http://www.w3.org/1999/xlink" x="0px" y="0px"
	 viewBox="0 0 406.9 425.5" style="enable-background:new 0 0 406.9 425.5;" xml:space="preserve">
<style type="text/css">
	.st0{fill:#020202;}
	.st1{fill:#010101;}
</style>
<g>
	<path class="st0" d="M398.6,74L317.5,7.4L316.9,7c-9.1-5.4-19.9-7.4-26.5-7L38.6,14.7C17.5,15.9,1,33.4,1,54.5v251.7
		c0,5.4,1.7,10.5,4.8,14.9L69,409c7.5,10.4,19.6,16.5,32.3,16.5c1.1,0,2.1,0,3.2-0.1l276.6-22.6c13.2-1.1,23.3-11.9,23.4-25.1
		L407.9,94v0C408,86.2,404.6,78.9,398.6,74z M33.9,25.3c0.3-0.7,1.2-1.6,2.5-2.3c0.9-0.1,1.8-0.2,2.7-0.3L290.9,8c0.3,0,0.7,0,1.1,0
		c4.7,0,13.2,1.5,20.6,5.8l74.4,61.1c-0.1,0.3-0.5,1-1.4,1L106.8,92.5c-8.6,0.5-17.1-3.1-22.8-9.6l-50-57
		C33.8,25.8,33.7,25.7,33.9,25.3z M13.7,42.3l46.1,49.1c7.9,8.4,12.3,19.4,12.3,31v261.4c0,0.3-0.1,0.4-0.4,0.5
		c-0.2,0.1-0.4,0-0.6-0.2L9.3,298.1c-0.1-0.2-0.2-0.3-0.3-0.5V54.5c0-4.8,1.1-9.4,3-13.5C12.5,41.2,13,41.6,13.7,42.3z M396.6,377.5
		c-0.1,9.1-7,16.5-16.1,17.2l-276.6,22.6c-11,0.9-21.9-4.1-28.4-13.1l-63.2-87.8c-2.2-3-3.3-6.5-3.3-10.2v-1.8l58.8,82
		c0.9,1.2,2.2,1.9,3.6,1.9c0.5,0,1-0.1,1.4-0.2c1.9-0.6,3.1-2.3,3.1-4.3V122.4c0-12.6-4.7-24.6-13.3-33.7L16.6,39.6
		c-0.9-1-1.8-1.6-2.7-2c3.7-5.9,9.3-10.5,16-13c-0.4,1.5,0,2.9,1,4.1l50,57c6.1,6.9,15,11,24.2,11c0.6,0,1.2,0,1.9-0.1l278.9-16.7
		c1.8-0.1,3.4-1,4.3-2.5l3.3,2.7c4.1,3.4,6.5,8.4,6.4,13.7L396.6,377.5z"/>
	<path class="st0" d="M373.3,94.5l-259.9,14.8c-12.1,0.7-21.6,10.7-21.6,22.9V389c0,6.4,2.7,12.5,7.4,16.9c4.2,3.9,9.8,6,15.5,6
		c0.6,0,1.3,0,1.9-0.1l254.9-21.4c11.8-1,21-11,21-22.8V112.6c0-5-2-9.7-5.7-13.2C383.1,96,378.3,94.2,373.3,94.5z M388.5,367.6
		c0,9.8-7.6,18-17.3,18.8l-254.9,21.4c-5.3,0.4-10.4-1.3-14.4-4.9s-6.1-8.6-6.1-13.9V132.2c0-10,7.8-18.3,17.8-18.9l259.9-14.8
		c0.3,0,0.6,0,0.8,0c3.6,0,7,1.4,9.7,3.9c2.9,2.7,4.4,6.4,4.4,10.3V367.6z"/>
</g>
<g>
	<g>
		<g>
			<path class="st1" d="M221.5,272.8C221.5,272.8,221.5,272.8,221.5,272.8c-0.7,0-1.2-0.5-1.3-1.2c0-0.1,0-0.2,0-0.3L221,254
				l0.7-17.1c0-0.2,0-0.3,0-0.4c0.1-0.7,0.6-1.2,1.3-1.2c0.1,0,0.1,0,0.2,0c4.2-0.1,8.4-0.3,12.5-0.5c4.7-0.3,9.6-0.6,14.5-0.6
				c0.1,0,0.2,0,0.3,0c1.5,0,3,0.3,4.2,0.8c2.1,0.8,3.7,2,4.9,3.7c0.9,1.3,1.5,2.7,1.8,4.3c0.1,0.6,0.2,1.3,0.1,1.9l-0.6,23.7
				c0,0.1,0,0.2,0,0.3c-0.1,0.7-0.5,1.2-1.2,1.3c-0.1,0-0.2,0-0.3,0l-7.3,0.5c-0.1,0-0.2,0-0.3,0c-0.7,0-1.2-0.6-1.3-1.2
				c0-0.1,0-0.2,0-0.4l0.6-20.9c0-0.4,0-0.7,0-1c-0.1-0.9-0.6-1.7-1.3-2.4c-0.7-0.7-1.4-1.1-2.2-1.2c-0.3-0.1-0.6-0.1-1-0.1
				c-4.5,0.2-9.1,0.5-13.6,0.8l-1.7,0.1l-1.5,26.2c0,0.2,0,0.3,0,0.4c-0.1,0.7-0.6,1.3-1.3,1.3l-0.1,0c-2.3,0.2-4.6,0.3-6.7,0.5
				C221.7,272.8,221.6,272.8,221.5,272.8z M228.2,270.4l0.2,1l-0.1-1C228.3,270.3,228.3,270.3,228.2,270.4z M227.9,270.8
				C227.9,270.8,227.9,270.8,227.9,270.8C227.9,270.8,227.9,270.8,227.9,270.8z M223.7,237.3l-1.5,33.4c1.8-0.1,3.7-0.2,5.7-0.4
				l1.5-26.2c0-0.2,0-0.3,0-0.4c0.1-0.7,0.5-1.1,1.2-1.3c0.1,0,0.2,0,0.4,0l2-0.1c4.5-0.3,9.1-0.6,13.7-0.8c0.6,0,1,0,1.4,0.1
				c1.2,0.2,2.2,0.8,3.2,1.7c1,1,1.7,2.2,1.9,3.5c0.1,0.4,0.1,0.8,0.1,1.3l-0.6,20.4l6.4-0.5l0.5-23.3c0-0.5,0-1-0.1-1.5
				c-0.2-1.3-0.7-2.4-1.4-3.4c-1-1.4-2.3-2.4-4-3c-1-0.4-2.3-0.6-3.6-0.6c-4.9,0-9.8,0.3-14.6,0.6
				C231.9,237,227.8,237.3,223.7,237.3z M223.1,236.3l0,1c0.1,0,0.1,0,0.2,0L223.1,236.3z M223.7,236.8
				C223.7,236.8,223.7,236.8,223.7,236.8C223.7,236.8,223.7,236.8,223.7,236.8z"/>
		</g>
		<g>
			<path class="st1" d="M266.8,269.6C266.8,269.6,266.8,269.6,266.8,269.6c-0.7,0-1.3-0.5-1.3-1.3c0-0.1,0-0.2,0-0.3
				c0-1.6,0-3.1,0.1-4.5c0.1-6.1,0.2-12.1,0.3-18.2l0.2-9.7c0-0.2,0-0.3,0-0.4c0.1-0.7,0.6-1.3,1.3-1.3l0.2,0c2-0.1,4.4-0.2,7-0.2
				c0.1,0,0.2,0,0.3,0c0.7,0.1,1.2,0.6,1.3,1.3c0,0.1,0,0.2,0,0.3l-1.1,32.2c0,0.2,0,0.3,0,0.4c-0.1,0.6-0.5,1.1-1.1,1.2
				c-0.1,0-0.2,0-0.3,0c-2.1,0.1-4.2,0.3-6.5,0.4C267,269.6,266.9,269.6,266.8,269.6z M268,235.9l-0.2,9.4
				c-0.1,6.1-0.2,12.1-0.3,18.2c0,1.3,0,2.6-0.1,4c1.9-0.1,3.7-0.3,5.5-0.4l1.1-31.4C271.8,235.8,269.8,235.8,268,235.9z M268,235.4
				C268,235.4,268,235.4,268,235.4C268,235.4,268,235.4,268,235.4z"/>
		</g>
		<g>
			<path class="st1" d="M236,271.8c-0.7,0-1.3-0.5-1.4-1.3c0-0.1,0-0.3,0-0.4l1.1-20.1c0-0.2,0-0.3,0-0.4c0.1-0.7,0.6-1.2,1.3-1.3
				c0.1,0,0.1,0,0.2,0c2.3-0.2,4.8-0.3,7.2-0.4c0.1,0,0.2,0,0.3,0c0.7,0,1.3,0.6,1.3,1.3c0,0.1,0,0.2,0,0.2l-0.8,20.2
				c0,0.1,0,0.2,0,0.4c-0.1,0.7-0.6,1.1-1.3,1.2c-0.1,0-0.1,0-0.2,0l-7.5,0.5C236.2,271.8,236.1,271.8,236,271.8z M243.6,269.3
				l0.3,1l-0.1-1C243.7,269.2,243.6,269.2,243.6,269.3z M237.8,250.3l-1.1,19.4l6.6-0.5l0.8-19.3C241.9,250,239.8,250.2,237.8,250.3
				z"/>
		</g>
	</g>
</g>
</svg>
