<?xml version="1.0" encoding="utf-8"?>
<!-- Generator: Adobe Illustrator 21.0.0, SVG Export Plug-In . SVG Version: 6.00 Build 0)  -->
<svg version="1.1" id="Layer_1" xmlns="http://www.w3.org/2000/svg" xmlns:xlink="http://www.w3.org/1999/xlink" x="0px" y="0px"
	 viewBox="0 0 1257 1417.3" style="enable-background:new 0 0 1257 1417.3;" xml:space="preserve">
<path d="M1053.8,1414.5c-3.3-92.7-72.3-169.2-121.2-207.4V29.3l-2.2-1.6c-15.4-11.2-46.5-24.8-65.5-27.2V0.1l-5.4,0
	c-93.8-0.8-179.7,10.7-184.5,11.4L1,53.1l0.3,5.5l0.1,1.8h0l0.2,3.6l668.2-41.3v21.4L1.2,84.3l0.3,5.5l668.3-40.1v35.5L1.2,126.5
	l0.3,5.5l668.3-41.3V96L0.7,137.4l0.8,12.8l668.3-41.3v3.3L0,153.6l0.7,10.9l669.2-41.4v1180.2l4.9,1.3
	c25.8,6.9,86.1,22.9,184.5,23.1v0c0.1,0,0.2,0,0.3,0c0,0,0,0,0.1,0l5.2,0v-0.3c16.1-1.6,46.6-9.7,65.6-23.9l2.2-1.6v-62.4
	c38.9,35.7,91.4,101.5,96.1,175.3l0.2,2.6h25.1L1053.8,1414.5z M853.8,11v21.5c-79.5-0.3-152.3,8.1-173,10.7V21.7
	C699.8,19.3,773.3,10.6,853.8,11z M680.8,48.6c19.6-2.5,92.9-11,173-10.7v1145.4c-86.6-0.4-145-7-173-13.5V48.6z M864.8,38.4
	c15.8,2.3,41.8,13.3,56.8,22.9V1171c-18.4,8.7-42.5,11.7-56.8,12.2V38.4z M921.6,34.9v20c-16.1-9.6-41-19.8-56.8-22V11.5
	C880.1,13.9,906.4,24.6,921.6,34.9z M680.8,1294.9v-119.5c19.4,4.3,70.5,12.9,173,13.4v128C764,1316,707.3,1301.9,680.8,1294.9z
	 M921.6,1296.3c-17,11.7-42.9,18.6-56.8,20.1v-127.8c14.7-0.5,37.9-3.4,56.8-11.7v22c-3.2-2.3-6.3-4.4-9.3-6.2
	c-0.4-0.3-1-0.7-1.7-1.2c-2.3-1.7-3.7-2.7-4.9-3.1c-5.5-1.6-11.4,2.6-13.5,9.6c-0.9,3.2-0.9,6.5,0.1,9.3c1.1,3,3.2,5.2,5.9,6.1
	c0.3,0.1,1.2,0.6,2.5,1.3c5.4,3.1,12.7,8.3,21,15.3V1296.3z M1033.9,1411.8c-4.1-53-32-99.6-54.8-129.5
	c-15.2-19.9-31.8-37.2-46.6-50.3l-4.4-3.9c-9.5-8.1-18.1-14.4-24.7-18.2c-0.3-0.2-2.7-1.5-3.5-1.8c-1.4-0.4-2.1-1.9-2.4-2.7
	c-0.6-1.7-0.6-3.8,0-5.9c1.1-3.8,4.3-6.6,6.6-5.9c0.6,0.2,2.3,1.6,3.3,2.3c0.8,0.6,1.6,1.2,2,1.5c3.8,2.4,7.9,5.2,12.2,8.4l4.3,3.2
	c20.5,15.6,45.6,38.9,67.4,67.3c34.1,44.4,52.6,90,54.9,135.6H1033.9z"/>
</svg>
