<?xml version="1.0" encoding="utf-8"?>
<!-- Generator: Adobe Illustrator 21.0.0, SVG Export Plug-In . SVG Version: 6.00 Build 0)  -->
<svg version="1.1" id="Layer_1" xmlns="http://www.w3.org/2000/svg" xmlns:xlink="http://www.w3.org/1999/xlink" x="0px" y="0px"
	 viewBox="0 0 441.6 441.6" style="enable-background:new 0 0 441.6 441.6;" xml:space="preserve">
<style type="text/css">
	.st0{fill:#010101;}
</style>
<g>
	<path class="st0" d="M222.8,178c-0.4-0.6-1-0.9-1.7-0.9c-0.7,0-1.3,0.3-1.7,0.9c-5.2,8.4-16.8,29.7-19.2,35.3s-6.1,14.2-6.1,24.5
		c0,12.2,8.1,26.7,25.4,26.7h1.7h1.7c17.2,0,25.4-14.6,25.4-26.7c0-10.3-3.7-18.9-6.1-24.5S228,186.4,222.8,178z M222,232h-0.8h-0.8
		c-8.5,0-12.5-7.2-12.5-13.2c0-5.1,1.8-9.3,3-12.1s7-13.3,9.5-17.5c0.2-0.3,0.5-0.5,0.8-0.5c0.3,0,0.6,0.2,0.8,0.5
		c2.6,4.2,8.3,14.7,9.5,17.5c1.2,2.8,3,7,3,12.1C234.5,224.8,230.5,232,222,232z"/>
	<path class="st0" d="M376.9,64.7C335.2,23,279.8,0,220.8,0c-59,0-114.4,23-156.1,64.7S0,161.8,0,220.8s23,114.4,64.7,156.1
		s97.1,64.7,156.1,64.7c59,0,114.4-23,156.1-64.7c41.7-41.7,64.7-97.1,64.7-156.1C441.6,161.8,418.6,106.4,376.9,64.7z M220.8,433.6
		C103.5,433.6,8,338.1,8,220.8S103.5,8,220.8,8s212.8,95.5,212.8,212.8S338.1,433.6,220.8,433.6z"/>
	<path class="st0" d="M220.8,54.5c-91.7,0-166.3,74.6-166.3,166.3c0,91.7,74.6,166.3,166.3,166.3c91.7,0,166.3-74.6,166.3-166.3
		C387.1,129.1,312.5,54.5,220.8,54.5z M220.8,385.1c-90.6,0-164.3-73.7-164.3-164.3S130.2,56.5,220.8,56.5s164.3,73.7,164.3,164.3
		S311.4,385.1,220.8,385.1z"/>
</g>
</svg>
