<?xml version="1.0" encoding="utf-8"?>
<!-- Generator: Adobe Illustrator 21.0.0, SVG Export Plug-In . SVG Version: 6.00 Build 0)  -->
<svg version="1.1" id="Layer_1" xmlns="http://www.w3.org/2000/svg" xmlns:xlink="http://www.w3.org/1999/xlink" x="0px" y="0px"
	 viewBox="0 0 441.6 441.6" style="enable-background:new 0 0 441.6 441.6;" xml:space="preserve">
<style type="text/css">
	.st0{fill:#010101;}
</style>
<g>
	<g>
		<path class="st0" d="M235.6,228.1v-66.5c0-8.2-6.7-14.8-14.8-14.8s-14.8,6.7-14.8,14.8v66.5c-8.1,5.1-13,14-13,23.5
			c0,15.3,12.5,27.8,27.8,27.8s27.8-12.5,27.8-27.8C248.6,242.1,243.7,233.2,235.6,228.1z M220.8,274.5c-12.6,0-22.8-10.2-22.8-22.8
			c0-8.3,4.5-15.9,11.7-19.9l1.3-0.7v-69.3c0-5.4,4.4-9.8,9.8-9.8s9.8,4.4,9.8,9.8v0.2h-4.5c-1.4,0-2.5,1.1-2.5,2.5s1.1,2.5,2.5,2.5
			h4.5v6.8h-4.5c-1.4,0-2.5,1.1-2.5,2.5s1.1,2.5,2.5,2.5h4.5v6.8h-4.5c-1.4,0-2.5,1.1-2.5,2.5s1.1,2.5,2.5,2.5h4.5V231l1.3,0.7
			c7.2,4,11.7,11.7,11.7,19.9C243.6,264.2,233.4,274.5,220.8,274.5z"/>
	</g>
	<g>
		<path class="st0" d="M224.9,235.5V205c0-2.4-1.9-4.3-4.3-4.3s-4.3,1.9-4.3,4.3v30.6c-7,2-12.2,8.4-12.2,16
			c0,9.2,7.5,16.7,16.7,16.7c9.2,0,16.7-7.5,16.7-16.7C237.4,243.9,232.1,237.4,224.9,235.5z"/>
	</g>
</g>
<g>
	<path class="st0" d="M220.8,441.6c-59,0-114.4-23-156.1-64.7C23,335.2,0,279.8,0,220.8S23,106.4,64.7,64.7S161.8,0,220.8,0
		c59,0,114.4,23,156.1,64.7s64.7,97.1,64.7,156.1c0,59-23,114.4-64.7,156.1C335.2,418.6,279.8,441.6,220.8,441.6z M220.8,8
		C103.5,8,8,103.5,8,220.8c0,117.3,95.5,212.8,212.8,212.8s212.8-95.5,212.8-212.8C433.6,103.5,338.1,8,220.8,8z"/>
</g>
<g>
	<circle class="st0" cx="220.8" cy="345" r="3.5"/>
</g>
</svg>
