<svg height="960" viewBox="0 0 960 960" width="960" xmlns="http://www.w3.org/2000/svg"><path d="m850.509943 16.5972486c4.644405 5.8394404 7.172862 13.0804359 7.172862 20.5416395v894.5559479c0 18.225396-14.774603 33-33 33h-687.99061c-18.225397 0-33-14.774604-33-33v-347.361941c0-10.057743 4.586762-19.566454 12.45836-25.827137l687.990611-547.1940078c14.263934-11.34483416 35.023943-8.97843592 46.368777 5.2854984zm-32.828748 890.1363644h-673.99l.000805 17.960387h673.99zm0-59.376h-673.99v19.376h673.99zm0-59.376h-673.99v19.376h673.99zm0-59.376h-673.99v19.376h673.99zm0-59.376h-673.99v19.376h673.99zm0-58.06h-673.99v18h673.99zm.000805-559.518613-653.195805 519.518613h653.195z"/></svg>