<svg height="960" viewBox="0 0 960 960" width="960" xmlns="http://www.w3.org/2000/svg"><path d="m824.682805 0c18.225397 0 33 14.7746033 33 33v898.694836c0 18.225396-14.774603 33-33 33h-687.99061c-18.225397 0-33-14.774604-33-33v-898.694836c0-18.2253967 14.774603-33 33-33zm-606.68361 848.829h-74.308v40.531h74.308zm490 0h-454v40.531h454zm109.682 0h-73.682v40.531h73.682zm-599.682-111.17h-74.308v40.531h74.308zm490 0h-454v40.531h454zm109.682 0h-73.682v40.531h73.682zm-599.682-111.17h-74.308v40.531h74.308zm490 0h-454v40.531h454zm109.682 0h-73.682v40.531h73.682zm-599.682-111.17h-74.308v40.531h74.308zm490 0h-454v40.531h454zm109.682 0h-73.682v40.531h73.682zm-599.682-111.17h-74.308v40.531h74.308zm490 0h-454v40.531h454zm109.682 0h-73.682v40.531h73.682zm-599.682-111.17h-74.308v40.531h74.308zm490 0h-454v40.531h454zm109.682 0h-73.682v40.531h73.682zm-599.682-111.17h-74.308v40.531h74.308zm490 0h-454v40.531h454zm109.682 0h-73.682v40.531h73.682zm-599.682-111.17h-74.308v40.531h74.308zm490 0h-454v40.531h454zm109.682 0h-73.682v40.531h73.682z"/></svg>