<svg height="960" viewBox="0 0 960 960" width="960" xmlns="http://www.w3.org/2000/svg"><path d="m834 0 .000335 1.33373686c13.688331 4.02119983 23.68247 16.67660334 23.68247 31.66626314v898.694836c0 18.225396-14.774603 33-33 33h-687.99061c-18.225397 0-33-14.774604-33-33v-898.694836c0-14.8524149 9.811965-27.41312253 23.307414-31.5536425l.000391-1.4463575zm-16.318805 619.992h-673.99l.000805 304.702h673.99zm0-110h-673.99v38.401h673.99zm0-109.599h-673.99v38h673.99zm0-109.598h-673.99v38h673.99zm0-109.599h-673.99v38h673.99zm0-109.598h-673.99v38h673.99z"/></svg>