<svg height="960" viewBox="0 0 960 960" width="960" xmlns="http://www.w3.org/2000/svg"><path d="m569.717506 231.640309c63.904994 12.402557 102.906044 27.642994 135.984067 55.447842 19.146823 16.094508 46.595777 41.768435 82.585488 77.20605l.719939.708799 1.157755.136588c29.953335 3.560893 54.732634 10.242843 74.472519 20.428579l.776588.403889c37.515878 19.665563 61.401513 49.190731 74.205864 95.278428 12.856403 46.275051 17.380274 70.140091 17.380274 96.804277 0 34.054416-4.723532 55.412621-21.552748 84.912323l-.139252.241916-.312243.846571c-14.5765 38.419159-58.186466 63.419591-106.954042 63.936265l-1.541715.008164c-41.982738 0-80.30533-18.152625-99.906146-47.360913l-.718854-1.089087-135.271 4.441-.050558.090343c-18.950707 32.994689-50.648019 54.649945-86.807297 55.864948l-1.293286.034687-.301347.004527-.799529.007995c-.098565.000986-.197134.0065-.295704.0065h-35.610565c-40.280802 0-75.246915-25.320646-93.969146-63.370536l-.523568-1.079464-2.297658-.135698c-90.989865-5.413913-143.405749-8.546531-158.730832-9.486774l-.486587-.029884c-7.831149-.481442-17.700982.363149-29.486173 2.630978l-.71175.138378-.221294.437356c-3.881414 7.582605-8.432448 14.355016-13.629305 20.119503l-.559277.613758c-11.196982 12.156483-25.29752 19.630329-41.163684 20.135847-.159238.005073-.318513.008878-.477811.011414l-.711084.011321c-.159169.002534-.318356.003801-.477545.003801h-43c-13.2420322 0-25.5359834-4.943656-35.9136573-13.56931-8.4958425-7.061524-15.5697968-16.452951-21.2291534-27.574245-10.2754026-20.192361-15.8571893-46.125658-15.8571893-73.356445 0-2.462408.04554562-4.91559.13625383-7.35663l-.18894936-1.116576c-4.76613533-28.590826-3.78798787-55.198083 3.19303954-79.600811 5.00187999-17.484464 10.79069719-32.772553 17.96525999-48.177708l.549396-1.172275.0254002-.875588c.0459249-1.245244.1286388-2.479787.2493963-3.704148l.0977209-.91637c1.1751828-10.245445 4.8449464-20.116417 12.1874918-36.187622.341803-.748131.6704054-1.490864 1.0063843-2.269511l.2610393-.607794c.0340734-.079686.302861-.712859.591708-1.391556l.158252-.371661c.2102148-.493425.4103965-.962081.5179732-1.210566.6273508-1.449082 1.1710064-2.636 1.7976805-3.875432 4.9832529-9.85584 12.3480787-16.205225 22.6807209-20.030436l.1132326-.041316.0609953-.076139c3.3468899-4.198287 6.8520129-7.987 10.5922817-11.531918l.7040748-.661856c2.3822851-2.221228 4.6305201-4.151213 7.4734581-6.476693.6179486-.505473 2.5261722-2.054452 2.7953668-2.274093.8616647-.70305 1.4699375-1.20892 1.9804901-1.648177.6389597-.549734 1.0642179-.943676 1.3310155-1.218159 1.0438082-1.073875 2.1636174-2.486008 3.7439995-4.832102l.2468213-.368387c2.4638275-3.696503 6.0268699-9.600409 12.0206219-19.77421l.877172-1.48691c.310634-.525752.608355-1.028685.915923-1.547054l.893323-1.50174c1.527815-2.561231 2.910505-4.84045 4.258844-7.011524 4.644301-7.478179 9.431017-14.55437 14.313023-21.32888.622884-.864344 1.356621-1.868479 2.113446-2.896923l.312144-.424235.108283-.9337c.383271-3.157166.945776-6.252095 1.763965-9.385555l.253204-.941295c1.882665-6.798898 5.323013-12.416053 10.316174-18.571281 2.726668-3.36125 6.148351-6.092711 10.030182-8.006896 46.620637-22.989284 98.169668-36.541863 154.438349-40.708648 83.660686-6.195205 202.982494-2.574703 260.832349 8.652684zm-66.501874 478.305158.25473-.011245c26.373982-1.19176 49.424704-18.483093 62.915414-44.162106l-6.758334.222513c-.270837.005371-.541923.005371-.812587-.006391l-16.237681-.787142c-9.00275 19.646954-22.819319 35.237972-39.361542 44.744371zm-38.005472-183.897626c-34.632814 0-63.995938 33.299044-67.993367 76.92907.139858 11.638649.656321 22.03861 1.545055 31.190949 7.453724 38.192935 34.742758 66.100819 66.448312 66.100819 25.517031 0 48.910823-18.18623 60.717296-46.927147-3.525073-5.594331-6.330011-11.843445-8.41968-18.720123-3.395582-11.174174-5.678048-24.655489-6.890942-40.483653-.062055-.271028-.124058-.541241-.18556-.811139-3.386834-14.863086-7.329133-29.907129-10.903026-41.671704-2.232775-6.227499-4.531821-11.723064-6.88668-16.481452l.157242.249516c-.714669-1.138216-1.42424-2.184704-2.017018-2.988662l-.080073-.107474-.541722-.275465c-7.672294-3.845966-15.84127-5.888303-24.23025-5.998798zm442.940483 124.083399c-1.323773.157727-2.787005.317448-4.393992.480143-7.986958.808619-19.709173 1.70648-35.209496 2.699078-27.713348 1.774688-67.5908 3.857058-119.649045 6.248402 12.276228 22.522595 42.39438 38.441137 77.60189 38.441137 39.834691 0 73.154368-20.377719 81.49244-47.641627zm-778.110149-10.811866-.191921.780824c-2.134642 8.581645-4.914846 16.57154-8.288443 23.71824-2.84687 6.030868-6.114362 11.470696-9.774928 16.181715l10.214798-.000153.711084-.011321c12.113397-.385949 23.009167-10.615085 30.706541-26.79511-10.923496-.306192-18.053123-4.647981-23.377131-13.874195zm-54.2180554-125.457222c-21.5971754 0-39.1051454 37.089252-39.1051454 82.841163 0 16.455875 2.2649534 31.791087 6.1704818 44.682942 6.8301573 20.71972 18.153088 35.188016 31.2581226 38.081307.5557166.051818 1.1147454.076914 1.676541.076914 21.5971755 0 39.1051454-37.089252 39.1051454-82.841163s-17.5079699-82.841163-39.1051454-82.841163zm11.5841246-85.030124-.0312797.059291c-.1343738.264267-.2686407.530533-.4028103.798829-2.1778601 4.355004-4.4381721 8.671646-7.5421986 14.455992l-.8446032 1.57177c-.2617529.486533-.5358111.995489-.8486406 1.576085l-.8474702 1.572356-.7590155 1.408252c-8.4302517 15.645805-14.3829694 27.501204-19.2358214 39.224978l-.1115408.269419.3805203-.136593c4.7360328-1.66013 9.9203442-2.545778 15.5475022-2.626361l.8473944-.006046c20.4124784 0 39.0687212 19.087568 51.2671762 49.173356 4.239733 10.45671 8.660264 28.428358 13.447742 54.309373.09351.50551.147899 1.017478.162684 1.531351.260278 9.046471 2.007546 18.567342 5.271516 28.574593 2.264 6.941368 4.02721 10.203922 5.696493 11.475036 1.407274 1.071601 4.110003 1.518117 9.662015.869879l.305957-.037588.550985-.130942c19.478278-4.620592 36.241235-6.585648 50.371001-5.826838l.796986.045861c14.993636.920773 69.704561 4.186617 165.116321 9.85641l2.737707.162509-.009519-.083785c-1.428974-7.652684-2.181945-15.606878-2.181945-23.760955 0-3.679156.153294-7.317618.452812-10.906051-.013836-1.484924-.023135-2.989836-.026563-4.512703l-.001502-1.338767c-.005092-29.400442 5.575753-54.408407 16.882034-74.907913l.093599-.169736c.094424-.171264.198376-.359908.375362-.68113l.473583-.859116c.475548-.861955.850214-1.537793 1.228338-2.214196l.493637-.879186c5.129658-9.093459 9.425759-15.11217 15.36581-20.442076 7.753987-6.95752 17.229395-11.297151 28.944084-12.787309 12.79397-1.627448 24.475173.610067 35.006703 6.005996 7.981674 4.089485 14.666033 9.571612 21.065384 16.463537 4.615935 4.971236 8.919605 11.418635 12.94209 19.360086l-.312316-.50182c2.66555 4.24528 4.913135 8.642092 6.231871 12.577474.17106.510477.343407 1.030498.516939 1.559675 16.945361 17.906771 27.681016 44.525209 27.681016 74.233235 0 6.85906-.572282 13.553425-1.661139 20.013896.515959 1.75211.932922 3.187737 1.178984 4.081257.850214 3.087374 1.523521 5.739437 2.000943 8.07455l13.696795.664037 170.547-5.593 1.738127-.077546c59.39552-2.672665 104.294815-4.976896 134.67621-6.911019l.925508-.059092c15.275246-.978185 26.780553-1.859431 34.473072-2.638241 2.41973-.244979 4.440613-.477931 6.042417-.694235l.121666-.017867.090659-.200517c6.952984-15.650694 8.951425-28.385264 9.003158-49.883109v-.853178c0-22.154436-3.964902-43.047943-15.937977-86.09665-.446131-1.604045-.906228-3.177661-1.380691-4.721662-5.578165-1.172618-12.503755-9.205328-17.641479-20.570375-9.136814.938752-28.128101 1.177615-85.114064 1.193154l-6.336932.000832c-4.723423 0-9.462971-.01078-14.205342-.031712l-4.06527-.020412-4.064792-.025297-1.80819-.012805-3.614335-.028427c-35.919113-.30117-71.271486-1.151903-100.253048-2.277996.062283 1.037339.021639 2.077666-.124366 3.116542-2.192877 15.60313-27.322252 24.970099-56.128031 20.921711-27.065738-3.803842-47.747011-18.097829-48.327787-32.75376-5.893984-.694158-12.375361-1.461749-19.52403-2.310976l-.076877-.009132-.105201-.012498c-.020231-.002403-.044508-.005287-.076877-.009132-40.547795-4.816837-57.564803-6.757792-71.200328-7.998914-29.316901-2.66846-182.756601-11.948595-238.135796-14.767924-23.702088-1.206663-70.89338-2.480642-141.4720238-3.816735zm429.8159218 112.366266.209484.665942c.350068 1.106326.704027 2.245554 1.061086 3.414691 4.162108 11.656074 7.983759 25.299291 11.511961 40.95648.118216.524614.193923 1.057909.226382 1.594697.066698 1.103008.138488 2.19311.215353 3.270292 1.43296 6.041952 3.165848 12.407683 5.333427 19.754748.31072 1.053195 1.780632 5.881169 3.388349 11.198276l.219993.727784c.036775.121699.073598.243575.110457.365587l.411131 1.361873c.671999 2.227555 1.340928 4.453066 1.934688 6.444597.868637-5.766882 1.321804-11.715138 1.321804-17.795001 0-28.592819-10.022692-54.274878-25.944115-71.959966zm396.967238 32.711875c-2.81493 13.978201-10.61346 23.830283-23.39559 29.556246-12.782131 5.725964-39.914444 8.96137-81.396939 9.706221-51.882417 2.491436-86.674882 1.313069-104.377397-3.535102-17.702515-4.84817-34.40026-15.211027-50.093237-31.088571zm-57.794655-44.626604v37.319749l-106.437408 2.114584v-38.40525zm-259.09527-30.72364c9.960804 1.223033 19.185569 4.388769 26.075684 8.960495 8.353361 5.542618 13.343777 13.160401 12.276352 21.853875-1.067424 8.693474-7.752511 14.877685-17.198623 18.234803-7.791449 2.769057-17.50806 3.609084-27.468865 2.386051-9.960804-1.223033-19.185569-4.388769-26.075684-8.960495-8.353362-5.542618-13.343777-13.160401-12.276352-21.853875 1.067424-8.693474 7.752511-14.877685 17.198623-18.234803 7.791449-2.769056 17.50806-3.609084 27.468865-2.386051zm-20.771328 21.231289c-1.624864.577471-2.857784 1.232415-3.637119 1.846422l-.033085.02676.025672.033611c.564241.728285 1.499427 1.585435 2.780605 2.467521l.301787.203954c4.157257 2.758421 10.434741 4.912715 17.455403 5.774744 7.020663.862029 13.632849.290387 18.33394-1.380366 1.624864-.577471 2.857785-1.232415 3.63712-1.846422l.032473-.027042-.02506-.033329c-.564241-.728285-1.499427-1.585434-2.780605-2.467521l-.301787-.203953c-4.157257-2.758422-10.434741-4.912716-17.455403-5.774745-7.020663-.862029-13.632849-.290387-18.333941 1.380366zm-132.969808-16.491009c-13.343663 1.697371-20.274527 7.514584-28.405278 21.455833 14.000987-11.644462 30.962832-18.540612 49.381883-18.705184-6.308918-2.743252-13.169255-3.743777-20.976605-2.750649zm-132.409255-239.421661c-50.261102 3.717863-95.994227 15.532814-137.264535 35.428829l-.548689.265627-.086316.118337c-.329755.453049-.615045.869849-.85535 1.247966l-.138781.222208c-.207665.338691-.359331.61627-.455948.821908-.022883.048704-.029892.063315-.023835.038109l-.049257.17914c-.706787 2.613693-.897297 4.416619-1.186342 9.3564-.066028 1.128413-.122247 1.842118-.223531 2.59678-.280219 2.087885-.698971 3.623554-2.101989 5.555831l.024623-.035683c-.024699.028455-.348678.456498-.856899 1.132894l-.228753.304648c-.159576.212648-.33285.443805-.517139.689946l-.284361.380006c-.681221.910844-1.480949 1.983619-2.284147 3.067089l-.501797.677716c-.889181 1.202435-1.752997 2.379106-2.433282 3.322074-4.381936 6.07397-8.669605 12.405521-12.798611 19.046744-1.453061 2.337147-2.966118 4.8393-4.749183 7.841384l-.863898 1.457669-.817713 1.38452c-9.217996 15.627663-13.413923 22.520772-17.349996 27.511107l-.287611.36185c-.335166.418428-.669284.824203-1.005318 1.221577l-.324279.3802-.32605.37585c-.599742.685584-1.211382 1.353485-1.85122 2.027088l-.351897.368126-.358077.370101c-1.180294 1.212971-2.451321 2.389112-3.930317 3.66018-1.408777 1.21072-6.344287 5.216488-6.882724 5.664632-2.674906 2.226341-4.818952 4.173711-6.93869 6.362682-.567326.585857-1.128539 1.185456-1.684129 1.800216 63.712351 1.250818 106.777675 2.446646 129.282095 3.592335 55.651197 2.833177 209.257158 12.123367 238.931852 14.824394 13.902004 1.265378 30.960635 3.21108 71.74669 8.056221.129489.015382.129489.015382.258977.030765 11.940548 1.418479 22.015036 2.608516 30.597564 3.609331 10.476671-5.345832 26.030714-7.550011 42.836049-5.188175 13.151574 1.848333 24.795708 6.173503 33.358773 11.813509 30.542236 1.41698 71.414783 2.535919 113.237319 2.912279l3.506911.029792 4.034836.029874c7.399963.050433 14.81199.076875 22.184425.076875l6.131101-.000857c49.190965-.014191 69.736478-.207167 79.359243-.772928-.226845-1.444499-.394697-2.846623-.503863-4.195974-7.940424-8.578529-17.446941-15.541772-28.812919-21.493253-17.169577-8.990376-41.309837-14.940766-72.353128-17.659967-2.322843-.203467-4.501562-1.212261-6.159407-2.851939-3.207868-3.172716-6.350392-6.271043-9.42752-9.29494-54.094528-1.886604-100.914463-3.065835-140.459601-3.537602-19.918074-.23762-43.275251-.358806-70.071533-.363558h-3.298366c-27.077025.004752-57.593155.125938-91.548389.363558-17.261558-29.530469-30.374487-50.845507-39.338785-63.945115-8.964298-13.099607-22.077226-30.108645-39.338785-51.027111 24.543092-6.545945 63.522384-9.107021 116.937876-7.683227 19.875997.529797 38.114741 1.514417 54.716232 2.95386-58.444489-8.454096-161.710251-10.923302-235.271606-5.481898zm37.836564 26.379362c15.703951 11.543651 39.041961 45.457682 70.014029 101.742094l-286-10.915296c12.557001-23.19131 25.290367-42.859757 38.200096-59.005341 19.364595-24.218376 38.883482-35.762347 75.54879-41.039443 36.665309-5.277095 78.681159-8.097489 102.237085 9.217986zm-10.317344 41.742094c-9.064814 0-21.523703 3.797912-32.038702 8.442365-14.494424 6.402157-9.255052 26.122213 4.800413 33.018519 14.055466 6.896307 34.835964 10.539116 40.639712 10.539116 5.803747 0 12.769064-7.206696 17.398935-13.20246 4.62987-5.995764 8.351348-16.554316 2.610895-23.953018s-13.792325-14.844522-33.411253-14.844522z"/></svg>