<svg height="960" viewBox="0 0 960 960" width="960" xmlns="http://www.w3.org/2000/svg"><path d="m381.988743 4c153.469197 0 280.011257 55.2493889 280.011257 133.523228 0 3.265562-.226388 6.518114-.676079 9.749242l-.158163 1.076238-.136758.840292.001 120.678.113853.126036.96585 1.102452.821174.956925 196.017084 231.463837c.923105 1.090038 1.709892 2.251375 2.361607 3.462855l.27104.522214.058392.118681.334948.332768c1.870147 1.873379 3.686234 3.802815 5.448155 5.788584l1.050652 1.198224.890208 1.03782c71.991684 84.975118 24.160906 238.383866-100.859111 344.143592-124.919345 105.739434-284.213418 127.64161-356.211188 42.823367-.193655-.228139-.382154-.460581-.565355-.697149l-.270811-.357925-.351498-.475281-172.05-218.082-.397993-.343961c-4.353136-3.803275-8.452217-7.877114-12.284851-12.214398l-.879719-1.005585-.870225-1.014918c-.193933-.228467-.382694-.461248-.566143-.698168l-.271171-.35846-9.166414-12.404335c-.26649-.360625-.520777-.730109-.76243-1.107828-29.380919-45.924277-34.647616-110.242889-15.837265-175.220378l.577381-1.969199.20983-.69777-1.802665-.758711c-54.454943-23.155015-89.362943-56.452536-94.396421-95.623289l-.143375-1.188786-.087539-.838214-.217065-.578941c-.654241-1.832647-1.048687-3.788736-1.141217-5.823928l-.017718-.556981v-233.644467c0-2.34919.405042-4.603839 1.14912-6.697888l.177699-.480362.051181-.132433.243385-2.045046c9.682291-71.6773743 127.338665-121.85640658 270.434582-123.86535585l4.343942-.04610533zm355.591283 498.664497c-9.518002 0-19.451501.670341-29.649322 2.005675-58.821231 7.749108-121.394843 37.15119-175.96411 82.799848-94.374858 79.040076-139.096364 186.317588-114.069999 257.974258l24.821236 31.460601.192831.248416.188901.251417.055437.075288 1.295542 1.484743c54.554118 60.833352 183.831434 43.682336 291.641772-43.926692l3.26031-2.676378 3.312682-2.775412c93.719454-79.281254 137.065559-185.116466 114.424131-254.660604-4.250918-11.826019-10.417456-22.649055-18.577796-32.17919-22.367739-26.064326-57.368361-40.08197-100.931615-40.08197zm-30.928648 24.112862c37.81215 0 69.221369 12.282459 89.754302 35.644163 51.434337 58.650652 16.785703 166.0098-74.126333 240.306992-90.679386 74.152552-205.514239 89.406127-256.702733 31.148495l-.21977-.258854-.210854-.266167-6.786194-8.871775c-.137832-.180192-.269493-.365023-.394754-.55417-40.171424-60.660284-3.857907-160.467787 81.682594-230.418438 43.801718-35.776677 94.256933-58.925124 142.277742-65.102099 8.467947-1.082657 16.7467-1.628147 24.726-1.628147zm0 20c-7.115974 0-14.548687.489744-22.181988 1.465685-44.130857 5.676609-91.146883 27.247184-132.165478 60.750641-77.740501 63.572211-110.364585 151.738353-78.644765 202.36691l.980922 1.522645-.153069-.23824 6.306 8.244 1.102743 1.221295c42.457816 45.788495 141.138489 33.166341 222.750528-30.880707l2.467792-1.956553 2.506914-2.02889c83.270382-68.052107 114.04422-163.405157 71.75507-211.627548-16.45145-18.717917-42.334115-28.839238-74.724669-28.839238zm-21.105865-116.226217c-9.822044 0-20.070996.668544-30.591567 2.000161-60.637721 7.72179-125.107645 37.003842-181.310753 82.450058-94.040654 76.131462-140.125522 178.505104-119.59095 249.518088l37.217838 47.183194c-4.044289-75.850025 43.53778-168.948765 127.859493-239.569209 57.363016-47.985707 123.414693-79.022061 186.196665-87.292954 11.052008-1.447188 21.851719-2.175983 32.253787-2.175983 21.477095 0 41.331226 3.11414 59.08529 9.19838l-38.665036-45.655195c-20.084267-10.27811-44.574448-15.65654-72.454767-15.65654zm-91.255661-106.765229c-9.518002 0-19.451501.670341-29.649322 2.005675-58.821232 7.749108-121.394843 37.15119-175.96411 82.799848-92.342653 77.338079-137.147335 181.710596-115.589881 253.296324l56.178909 71.213353c-1.881193-74.637266 46.86271-164.887932 131.797924-233.648001 58.981281-47.692669 126.873641-78.529181 191.371633-86.742547 11.347108-1.436238 22.433736-2.159423 33.110508-2.159423 16.555947 0 32.170398 1.742685 46.63759 5.168755l-61.625511-72.769806c-20.514059-12.563847-46.375004-19.164178-76.26774-19.164178zm-56.90872-63.622298c-9.472711 0-19.359749.682217-29.510407 2.041283-58.571979 7.889892-120.899438 37.835272-175.26552 84.337259-50.121027 42.921467-84.397612 98.189763-98.798741 155.440924-2.588149 10.289094-4.485836 20.482435-5.704964 30.487992-3.952838 38.652628 2.744235 74.046108 19.448947 100.156654l-.323447-.513727.771656 1.054902c-4.207222-75.912544 43.3912-169.186548 127.840744-239.914052 57.363015-47.985707 123.414692-79.022061 186.196665-87.292954 11.052007-1.447188 21.851718-2.175983 32.253787-2.175983 17.140323 0 33.246943 1.983468 48.077038 5.876829l-9.796584-11.567369-.724306-.844373-.759485-.864815c-.799506-.899389-1.615424-1.782877-2.447649-2.650399l-.837657-.862198-.848506-.851541c-1.613278-1.598702-2.926163-3.443593-3.90208-5.446943-21.719982-17.271832-50.967084-26.411489-85.669491-26.411489zm-128.628559-.033974c-75.877998 0-146.871405 12.473256-199.033165 34.140829-33.331784 13.845754-56.760655 30.523924-68.721673 48.075057l.002265 22.033473.174291.560154c.421469 1.435862.686347 2.939123.774791 4.490172l.024857.583845.006802.345439.005259.50639.025057.763489c1.141479 25.790961 31.682281 53.378388 85.156561 72.804431l1.627446.58616 1.675089.592908c.617216.216548 1.217029.460235 1.798585.729244 19.359366-42.497102 49.008911-82.175712 87.331944-114.993889 36.255882-31.011442 75.99979-55.078592 116.192816-70.687495-8.941563-.352528-17.962536-.530207-27.040925-.530207zm-26.76383-216.129641c-67.197559 0-129.932877 11.5691521-175.685677 31.5063139-41.540814 18.1017546-63.77971 40.7162201-64.31564 61.2499201l-.009595.62159-.010565.566633c-.05519 1.694062-.320901 3.334649-.771786 4.896514l-.157118.517672-.038362.115357-.000742 168.979917c47.979558-43.600925 150.091114-72.324276 267.753315-72.324276 24.882004 0 49.359628 1.297434 73.028521 3.836976 1.676182.179846 3.210989.764064 4.517796 1.645209 6.327654-1.305381 12.635009-2.383734 18.909794-3.228974 11.023436-1.475924 21.795903-2.219237 32.172448-2.219237 32.02885 0 60.443488 7.098938 83.649513 20.810685l-.001377-113.572565c-.000013-1.300552.126832-2.598005.378732-3.873929.395056-2.00104.592-3.998599.592-6.004578 0-20.710419-22.196651-43.62312-64.158199-61.9439051-45.763399-19.9807072-108.570658-31.5793229-175.853058-31.5793229z"/></svg>