<svg height="960" viewBox="0 0 960 960" width="960" xmlns="http://www.w3.org/2000/svg"><path d="m481.806257 1.00046141c68.492101.46525614 132.843995 27.36333269 181.322895 75.80397349 48.914965 48.8763631 75.870848 113.8885211 75.870848 182.9864011 0 11.977632-.812187 23.929925-2.42684 35.640094l-.10016.70607-.010719.145209c-.033566.400498-.078235.783766-.13178 1.161153l-.056421.375849-.06408.380789-.208328 1.329227-.034273.230152-.143106.843484-.052293.286137-.074948.528922-.033052.203078-.047115.328844-.104764.640493-.330094 1.939395-.355588 1.977103-.252363 1.345893-.265404 1.372965-.279129 1.404164-.293538 1.439488-.308631 1.478937-.492742 2.301399-.530548 2.413368-.563083 2.50585-.066001.274101-.017664.092769-.126482.569426c-5.361324 22.57632-13.240507 46.128934-23.036383 67.401501l-.800179 1.719759-.563835 1.14364-.668438 1.321187-2.616756 5.073854-9.418288 18.061842-1.823261 3.536508-.557101 1.09656c-8.448756 16.747323-16.000567 33.516546-23.180117 52.2418-6.949427 18.125063-13.160469 37.157165-18.53741 57.314047l-1.166204 4.38633-1.127895 4.272975-1.090237 4.163927-1.053228 4.059183c-.172491.668041-.343466 1.331897-.51294 1.991658l-.998938 3.91014c-.163523.643739-.325572 1.283561-.48616 1.919558l-.94611 3.770784-.911704 3.68326c-.29824 1.213645-.590854 2.41342-.877951 3.600043l-.844847 3.52113c-.27617 1.161037-.546932 2.309639-.812393 3.446524l-.780592 3.376221c-7.266617 31.753796-10.316077 54.573254-11.658777 85.068554l-.135141 3.2391c-.043018 1.089628-.084044 2.189424-.123185 3.300105l-.111878 3.365416-.101222 3.435033c-.016019.578545-.03162 1.160171-.046819 1.744967l-.086459 3.547529-.07743 3.627908-.069052 3.712592-.061324 3.801581-.054247 3.894876c-.058172 3.487588-.860312 7.189991-2.377116 11.632448l-.335957.963474c-.057813.162531-.116534.326053-.176163.490592l-.368654.999609-.390371 1.025135-.412024 1.05181-.433613 1.079633-.455138 1.108604-.476599 1.138723-.497996 1.169992-.519329 1.202409-.848018 1.931725-.625064 1.396051-.636771 1.398173-.646167 1.395565-.653255 1.388225-.658032 1.376153-.660501 1.35935c-.110161.224895-.220328.448893-.330454.671895l-.659872 1.325272-.656567 1.29664-.650951 1.263275c-.107895.207503-.21546.413418-.322647.617648l-.638198 1.204357-.626807 1.159164-.613109 1.109239c-.100914.18045-.201162.358622-.300695.534419l-.588229 1.025479c-.192959.331797-.382673.653302-.568756.963725-1.345996 2.24539-3.005148 4.837785-4.796775 7.508566l-.989303 1.462949-1.009063 1.468809c-1.355695 1.958014-2.746707 3.905823-4.103533 5.740096l-.507072.682329c-.305787.409535-.608602.811645-.908327 1.206068l-.889784 1.159939c-1.539124 1.986854-2.989952 3.754925-4.335346 5.26617-4.321316 13.448224-6.590325 29.905866-6.673758 49.354989l-.002388 1.116312v53.389784c0 4.016952-1.209597 7.940822-3.471257 11.26058-32.540155 47.763778-61.595149 74.826381-90.08304 80.506265-3.242047.646396-7.783511 1.107985-12.241626 1.107985-.463161 0-.943819-.006693-1.435513-.019334l-.996186-.032993c-.839224-.033735-1.697132-.082615-2.543805-.143193l-1.008698-.078087-.986423-.087993c-.161909-.015417-.322411-.031192-.481267-.047298l-.931465-.10037-.880464-.106966c-.70928-.09152-1.353465-.188533-1.902637-.287592-28.845893-5.203176-58.222725-32.366368-91.158207-80.710424-2.174673-3.192075-3.376655-6.942686-3.465898-10.797528l-.005359-.463052v-53.389784c0-20.898784-2.497076-38.384039-7.328457-52.436978l-.261056-.749553.22863-.078505c-.636467-.780394-1.291163-1.605592-1.962666-2.472435l-.889784-1.159939c-.149863-.197211-.300498-.396345-.45189-.597367l-.456437-.608701c-1.515593-2.029809-3.085448-4.219659-4.610605-6.422425l-1.009063-1.468809-.989303-1.462949c-1.791627-2.670781-3.450779-5.263176-4.796775-7.508566-.186083-.310423-.375797-.631928-.568756-.963725l-.588229-1.025479-.605393-1.082502c-.102201-.184906-.20502-.371991-.308411-.561156l-.626807-1.159164-.638198-1.204357-.647277-1.244819-.654047-1.280549c-.109444-.21614-.219073-.433571-.328841-.652195l-.659872-1.325272-.660869-1.349174c-.110099-.226591-.220144-.453981-.330086-.682071l-.658032-1.376153-.653255-1.388225-.646167-1.395565-.636771-1.398173-.625064-1.396051-.848018-1.93173-.519329-1.202445-.497998-1.170089-.476602-1.138913-.455143-1.108917-.43362-1.080098-.412033-1.05246c-.06687-.173172-.132838-.345242-.197903-.516234l-.379534-1.013213c-.061446-.166779-.121985-.332529-.181617-.497274l-.346893-.97662-.325052-.953698c-1.413495-4.241835-2.161641-7.823242-2.21835-11.227766-.009482-.734292-.020578-1.466563-.033304-2.19702l-.043082-2.186131-.052957-2.176482-.062926-2.168069c-.022648-.721425-.046974-1.441654-.072993-2.160894l-.083153-2.154958-.093411-2.150258-.050582-1.073754-.108976-2.14553-.119473-2.143925-.130065-2.143559c-.022565-.357298-.045576-.714632-.069035-1.072028l-.146133-2.145329c-.050511-.715496-.102827-1.431446-.156965-2.148056l-.167892-2.152022-.178916-2.157224c-.030743-.360039-.06195-.720347-.093622-1.08095l-.19563-2.167349-.206893-2.175646-.218251-2.185181-.229705-2.195954-.241256-2.207965-.252901-2.221213-.264642-2.235699-.136755-1.123668-.282434-2.259748-.294415-2.277329-.306492-2.296147-.318664-2.316203-.330932-2.337497-.343296-2.360027-.355756-2.383797-.368311-2.408804-.380962-2.435048-.393709-2.462531-.406552-2.491251-.41949-2.521209-.432525-2.552404-.673435-3.889806-.465529-2.635808-.723391-4.020714-.753794-4.104829-.784523-4.193122-.815572-4.28559-.561125-2.910496-.868042-4.44899-.899954-4.552599-5.566255-27.635972-1.149042-5.800099-.708011-3.625437-.828685-4.310035-.775368-4.115169-.44376-2.398535-.430287-2.360188c-.433465-2.395832-.959436-4.901592-1.575309-7.512664l-.380291-1.579244-.401743-1.604298c-.137475-.538917-.278505-1.081972-.423069-1.62913l-.44427-1.653741-.465348-1.67813c-.158614-.563418-.320721-1.130863-.486299-1.702299l-.507125-1.726245-.527827-1.74997-.548404-1.773474-.568856-1.796757c-.096507-.301387-.19386-.603735-.292058-.90704l-.599299-1.831264c-.304695-.921333-.616942-1.851189-.93667-2.789444l-.649413-1.887672-.66924-1.909846-.688941-1.9318-.708518-1.953533-.727971-1.975043-.747297-1.996333-.766499-2.017401-.785576-2.038248c-.132512-.341433-.265814-.683725-.399903-1.026872-3.665381-9.380081-7.858171-19.24829-12.534834-29.594476l-1.291691-2.840344-.535186-1.162548-.850891-1.833017-.90412-1.931251-1.947665-4.117603-1.740976-3.644109-1.823156-3.788651-2.263239-4.672644-1.150663-2.364876-2.683294-5.491124-3.434957-6.988079-3.855961-7.796629-4.294726-8.62376-3.455847-6.849355-.132724-.244211.068077.158934c-10.105437-21.637418-18.227773-45.760999-23.713779-68.86235l-.065329-.284305-.079817-.37789-.065001-.274101-.370203-1.64183-.523972-2.363181-.488196-2.254709-.454474-2.158614-.285261-1.391804-.271793-1.358265-.258934-1.328392-.246682-1.302189-.235038-1.279653-.224002-1.260784-.213574-1.245584-.203755-1.23405-.12884-.862675-.027275-.198169-.157452-.899883-.246794-1.561799-.044754-.290318-.05208-.317789c-.078952-.499639-.143446-1.003005-.188201-1.537002l-.011719-.145209-.09916-.70607c-1.533921-11.124661-2.343615-22.467838-2.42075-33.843666l-.00609-1.796428c0-69.09788 26.955883-134.110038 75.870848-182.9864011 47.977798-47.9399344 111.502733-74.78087812 179.202366-75.78152895l2.05277-.02244454zm-40.841142 894.57872559.162086.173454c13.310059 14.165355 24.673666 22.067351 33.506619 23.856326l.29918.057033.631262.073626.780896.076082.702911.057053c.115175.008461.22911.016386.341432.023754l.651568.037381c.208735.010133.408015.017887.594841.023108l.520118.007908.283879-.001589.569631-.012054c.094751-.002922.189278-.006277.283383-.010026l.557982-.026953.538372-.034688.50929-.040669.470732-.044891.422701-.047359.365195-.048069.298215-.047022c.043594-.007652.084003-.015188.121029-.02257 8.896181-1.773711 20.329624-9.724645 33.714204-23.989696-11.187765.239807-22.835367.360674-34.940773.360674-.661808 0-1.305015-.03913-1.929619-.11519-.621813.076102-1.264688.11519-1.926145.11519-13.040965 0-25.550628-.140271-37.528989-.420813zm-33.571965-135.417979c1.326351 5.235112 2.428626 10.693452 3.309773 16.375363l-.159784-.019803c.308664.038781.618522.077319.929573.115615l1.880621.226854 1.909247.22102 1.937867.215181 1.966477.209341 1.995079.203497 2.023672.19765 2.052259.191799 2.080836.185947 2.109405.18009 2.137966.17423 2.166519.168369 2.195063.162502 2.223599.156635 2.252128.150762 2.280647.144888 2.309159.139011 2.337662.133129 2.366157.127245 3.602645.17983 2.437359.112522 2.465825.106628 2.494282.10073 2.522733.094829 3.837424.131173 2.593821.080064 2.622241.074153 2.650655.068238 2.679058.06232 2.707455.056399 2.735843.050476 2.764223.044549 2.792594.038619 4.24207.046803 4.305859.033444 2.905997.014869 2.934328.008923 2.96265.002975c5.522848 0 10 4.477153 10 10 0 5.522848-4.477152 10-10 10l-3.031097-.003064-4.49351-.016095-4.429769-.029902-4.366058-.043719-2.875324-.036827-2.847027-.042976-2.81874-.049127-2.790461-.055282-2.76219-.06144-2.733926-.0676-2.705673-.073765-2.677425-.079931-2.649188-.086102-3.920853-.140727-2.578628-.10154-2.550419-.107721-2.522218-.113905-2.494025-.120091-3.688194-.191744-2.423579-.135573-2.395415-.141769-2.367259-.147971-2.339112-.154174-2.310972-.160381-2.282841-.166592-2.254719-.172804-2.226604-.17902-3.287209-.280192-2.156353-.194573-2.128268-.200801-2.10019-.20703-2.072121-.213263-2.04406-.219499-1.76631-.198742c.202221 3.308389.342325 6.680664.420763 10.116879l.06817.008223 1.909247.22102 1.937867.215181 1.966477.209341 1.995079.203497 2.023672.19765 2.052259.191799 2.080836.185947 2.109405.18009 2.137966.17423 2.166519.168369 2.195063.162502 2.223599.156635 2.252128.150762 2.280647.144888 2.309159.139011 2.337662.133129 2.366157.127245 3.602645.17983 2.437359.112522 2.465825.106628 2.494282.10073 2.522733.094829 3.837424.131173 2.593821.080064 2.622241.074153 2.650655.068238 2.679058.06232 2.707455.056399 2.735843.050476 2.764223.044549 2.792594.038619 4.24207.046803 4.305859.033444 2.905997.014869 2.934328.008923 2.96265.002975c5.522848 0 10 4.477153 10 10 0 5.522848-4.477152 10-10 10l-3.031097-.003064-4.49351-.016095-4.429769-.029902-4.366058-.043719-2.875324-.036827-2.847027-.042976-2.81874-.049127-2.790461-.055282-2.76219-.06144-2.733926-.0676-2.705673-.073765-2.677425-.079931-2.649188-.086102-3.920853-.140727-2.578628-.10154-2.550419-.107721-2.522218-.113905-2.494025-.120091-3.688194-.191744-2.423579-.135573-2.395415-.141769-2.367259-.147971-2.339112-.154174-2.310972-.160381-2.282841-.166592-2.254719-.172804-2.226604-.17902-3.287209-.280192-2.156353-.194573-2.128268-.200801-2.10019-.20703-2.072121-.213263-2.04406-.219499-1.27071-.142416-.00149 17.921268c19.997391.90529 41.709255 1.357935 65.135594 1.357935.661808 0 1.305014.03913 1.929619.115191.621812-.076102 1.264687-.115191 1.926145-.115191 22.44018 0 43.307195-.415337 62.601042-1.246013l.001041-31.523353c0-19.761758 1.937101-37.50464 5.89094-53.237838l-1.654732.17082-1.92914.184878-1.98228.176884c-.334819.028818-.67186.057305-1.011127.085463l-2.062346.165007c-.348187.026846-.698607.053366-1.051266.07956l-2.142834.153267c-.361625.024897-.725496.049471-1.091616.073723l-2.223746.141664-2.277922.134004-2.332288.126405-2.38684.118867-2.441582.111389-2.49651.103972-2.551629.096616-2.606934.089321-2.662427.082085-2.718111.074912-2.77398.067798-2.830039.060745-2.886285.053753-2.942721.046822-2.999343.039952-3.056155.033141-3.113155.026393-3.170342.019703-3.227718.013076-3.285282.006509h-3.305586l-3.243856-.006543-3.192284-.013108-3.140816-.019711-3.089452-.026347-3.038191-.033016-2.987036-.039719-2.935982-.046454-2.885035-.053222-2.83419-.060023-2.783448-.066859-2.732813-.073726c-.451254-.012861-.900404-.026011-1.347449-.039448l-3.96668-.128739-2.581525-.094527-2.531304-.101528-2.481186-.108561-2.431174-.115626-2.381263-.122727-2.331458-.129858-2.281756-.137024c-.752314-.046873-1.496361-.094945-2.232159-.144223l-2.182664-.151454c-.719317-.051693-1.430403-.104598-2.133274-.158719l-2.083989-.166016c-.34323-.02828-.68441-.056865-1.023544-.085756l-2.010254-.177025-1.961228-.184406-1.912305-.19182c-.314646-.03259-.627258-.065489-.937839-.0987zm263.60085-385.160747-3.449818.234597-7.798375.520307-5.143926.336852-5.099938.328836-7.567432.478223-4.989976.308795-7.4025.448162-7.303551.430123-4.814067.276728-7.138654.400058-7.039728.382018-6.940808.363977-6.841896.345936-4.506317.2206-4.462363.212581-6.611134.303836-4.352487.192533-4.30854.184513-4.264595.176493-4.220655.168473-4.176714.160453-6.182691.22564-4.066877.140401-6.017945.195561-3.957054.120348-3.913128.112326-3.869206.104304-3.825285.096281-3.781367.08826-5.58971.117347-3.671582.068203-3.627672.060179-3.583766.052157-3.53986.044133-3.495957.036109-3.452057.028086-3.408159.020061-3.364264.012037-3.32037.004012-3.320928-.004012-3.366248-.012036-3.411571-.02006-3.456896-.028083-3.502223-.036107-3.547554-.044129-3.592886-.052153-3.638222-.060175-3.683559-.068198-3.728898-.07622-3.774242-.084242-3.819586-.092264-3.864933-.100286-5.882432-.165468-3.978313-.120339-6.052511-.195548-4.091707-.14039-6.222615-.225625-4.205117-.160441-6.392741-.255699-4.318542-.180491-6.56289-.285772-6.664991-.303814-6.7671-.321857-6.869217-.339899-4.636214-.236621-7.039431-.369966-7.14157-.388005-7.243717-.406044-4.885898-.280717-7.413982-.436107-7.516151-.454144-5.067533-.312783-7.686453-.484204-5.181074-.332822-7.856777-.514262-4.400854-.293556.453605.88415 2.359856 4.696194 5.157601 10.365652 4.693401 9.516319 3.801781 7.769407 3.21276 6.618245 2.690069 5.590294 2.176072 4.566588 1.360924 2.883494.964207 2.059895 1.199752 2.588964.828233 1.80951c5.276518 11.600107 10.012749 22.700428 14.165078 33.326659 1.405941 3.597944 2.738431 7.124105 3.995158 10.5777l.826568 2.291637.803967 2.270085.781215 2.248481c.128297.372944.255641.744985.382027 1.116123l.746799 2.215978c3.921372 11.760642 6.855697 22.594016 8.698993 32.464955l.86661 4.726324.739499 3.941312.791641 4.132237 1.032374 5.285832.554758 2.803641 5.329075 26.453395.632021 3.165616.921538 4.66168.596821 3.051735.582892 3.008316.569049 2.966117.827806 4.372717.797144 4.284626.766773 4.200648.494453 2.755809.48117 2.721535.467974 2.688478.454862 2.656641.441839 2.626022.4289 2.596624.416049 2.568444.403283 2.541483.390603 2.515741.37801 2.491219.365502 2.467916.353082 2.445831.340747 2.424966.328498 2.40532.316336 2.386893c.051714.396348.102924.791978.153634 1.186917l.298253 2.361539.286307 2.346159.274446 2.332.262671 2.319058.250982 2.307337.239381 2.296834.227864 2.28755c.037023.380553.073569.760769.109641 1.140675l.210751 2.275911.199451 2.269675.095515 1.13288.182662 2.262608.087168 1.130032.166067 2.258282c.053524.752467.105223 1.504707.15511 2.256924l.144241 2.256783c.023139.376186.045829.752418.068071 1.12872l.128098 2.258859.117443 2.261766.106875 2.265893.096394 2.271239.085997 2.277804.075689 2.285588.034004 1.146094.060386 2.29955.050291 2.310382c.007546.386034.014674.77257.021388 1.159634l.012845.825398.197363.611419.164454.484041.22401.634362.288509.786393.317431.835831.344976.881808.371145.92432.395939.96337.419356.998957.441398 1.03108.462063 1.059741.485095 1.093252.49497 1.097026.755907 1.642699.765114 1.625695.766513 1.593393.507931 1.036762.50277 1.011075.495296.980854.48551.946101.704854 1.344074.450923.839388.433041.788771.412846.733622.390337.673939c.063052.107098.125069.211521.186005.313173l.558669.918829c.097461.15823.197016.318885.298546.481786l.631916 1.002915c.108949.171165.219633.344215.331932.518971l.692215 1.067569c.11828.180861.237934.363067.358844.54644l.739566 1.112791.763941 1.132144.78256 1.142861.795425 1.14494.802537 1.138384.803892 1.123191c.133776.185452.267368.369912.400657.553199l.795137 1.084208.678649.910023.827746 1.088908.524848.677187.500689.635157.474326.590532.445758.54331.414985.493494.319406.370015.157451.107265c1.154685.800079 2.213774 1.715173 3.164426 2.725126l.763443.112704c.464817.066508.938079.132163 1.419771.196958l1.470342.191804 1.52081.186616 1.571173.181395 1.621433.176141c.274421.028917.550933.057614.829531.086089l1.696628.168198 1.746628.162861 1.796524.157492c.303572.025799.60922.051373.91694.076721l1.871173.149375c.316001.024442.634071.048657.954207.072644l1.945588.141184c.328391.023073.658844.045916.991356.06853l2.01977.132918 2.069095.127365 2.118315.121781 2.167433.116163 2.216445.110512 2.265354.104828 2.314159.09911 2.362861.09336 2.411458.087577 2.459951.08176 2.50834.07591 2.556627.070028 2.604808.064112 2.652885.058163 2.70086.052181 2.74873.046167 2.796495.040118 2.844158.034036 2.891717.027923 4.426519.030347 4.53294.016404 3.080911.003134 4.531108-.00708 2.960194-.012524 4.349002-.03034 2.838203-.027841 2.789076-.033861 2.739762-.039821 2.69026-.04572 2.640569-.051558 3.867272-.088152 2.515519-.065888 2.46517-.071515 2.414633-.077079 2.363906-.082584 2.312993-.088028 2.261891-.093411 2.210601-.098733 2.159122-.103995 2.107455-.109196 2.055601-.114336 2.003558-.119416 1.951325-.124434 1.898908-.129393 1.846299-.13429 1.793503-.139127c.294507-.023588.586807-.047374.876895-.071358l1.713956-.146268 1.660691-.150954 1.607235-.155577c.263408-.026312.524581-.052813.783514-.079504l1.526701-.1624 1.472776-.166872 1.418663-.171285c.231924-.028911.461585-.058004.68898-.087277l1.33714-.177789 1.282556-.182048 1.079833-.165149c.978733-1.056682 2.075005-2.011857 3.274424-2.842932l.156451-.107265.320406-.370015.414985-.493494.445758-.54331.474326-.590532.500689-.635157.524848-.677187.827746-1.088908.678649-.910023.795137-1.084208c.133289-.183287.266881-.367747.400657-.553199l.803892-1.123191.802537-1.138384.795425-1.14494.78256-1.142861.763941-1.132144.739566-1.112791.709437-1.084802c.230818-.355977.455656-.705849.673554-1.048178l.631916-1.002915.584524-.949017c.093151-.153198.184089-.303791.272691-.451598l.378216-.642399.40188-.704347.423232-.761763.442271-.814646c.07517-.13993.151037-.281874.227553-.425738l.704854-1.344074.48551-.946101.495296-.980854.756235-1.526528.765245-1.579226.511313-1.074541.509535-1.08663.505443-1.094188.745434-1.645537.485095-1.093252.462063-1.059741.441398-1.03108.419356-.998957.395939-.96337.371145-.92432.344976-.881808.317431-.835831.288509-.786393.22401-.634362.164454-.484041.140367-.430563.053996-.175856.03547-2.429416.063891-3.919897.072259-3.834321.081239-3.752792.090827-3.675308c.031942-1.212638.065584-2.413036.101028-3.601869l.111838-3.532478c.058724-1.749564.12173-3.474624.189363-5.177454l.141536-3.376696.154484-3.321463.168041-3.270276c1.546046-28.673272 4.750413-51.829032 11.506812-82.015283l.780151-3.44802c.530353-2.319602 1.081345-4.681946 1.65379-7.092427l.87486-3.652499c.148526-.614991.298418-1.23316.449688-1.85459l.924275-3.768392.957982-3.850712.992298-3.937076 1.027226-4.027487c.174149-.679007.349779-1.361949.526902-2.048912l1.080762-4.170689 1.117217-4.271213 1.154281-4.375784 1.204315-4.530733c5.746678-21.542936 12.393645-41.910815 19.83714-61.324477 7.44004-19.404649 15.253902-36.851892 23.916912-54.149301l1.218036-2.418657 1.765096-3.43986 2.948195-5.674028 8.674698-16.625746zm-189.369-334.000461h-3.308l-1.646608.0184496c-56.729553.8370617-109.822436 23.0373311-150.291542 62.8569514l-1.234898 1.224468c-41.408273 41.375594-64.143952 96.209473-64.143952 154.690967 0 10.104177.680778 20.176349 2.029812 30.015508l.231024 1.637668c.027579.190143.052411.380635.074491.571415l.046673.464573.040031.244643.144332.921691.152678.851442.052216.307727c.030231.181242.057955.362848.083169.544767l.037574.30473.057244.392974.174157 1.033445.184446 1.05359.297176 1.624998.212597 1.117638.342002 1.73574.244214 1.201245.392028 1.875819.424537 1.973948.45892 2.082638.335679 1.498965.07478.270482.088737.343497c.080554.321964.154866.647147.222209.976775l.097274.509246.15971.662094c3.259041 13.430133 7.517497 27.243209 12.566994 40.461589l1.293788.088478 5.336379.363118 5.290909.355132 7.851104.517727 5.177224.33517 7.680565.487784 5.063524.31521 7.510003.457844 7.407655.43988 4.881572.283274 7.237056.409944 7.134686.391981 7.032307.374022 6.92992.356061 6.827526.338101 6.725122.320143 4.42652.203452 6.554431.290214 6.452006.272257 4.24443.171529 6.281278.242331 6.178831.224375 4.062301.13961 6.008066.194452 3.94845.119661 3.902906.111683 5.768957.152563 3.789034.091736 3.743481.083758 3.697925.07578 3.652366.067802 3.606807.059825 3.561243.051847 3.515678.043871 3.47011.035893 3.42454.027917 3.378966.01994 3.333392.011964 3.287814.003988 3.286941-.003988 3.331087-.011963 3.37523-.019939 3.419371-.027914 3.463509-.035891 3.507644-.043867 3.551778-.051843 3.59591-.059821 5.476605-.104687 3.706226-.079763 3.75035-.08774 5.70825-.146569 3.860647-.107685 3.904761-.115664 3.948874-.123642 3.992983-.13162 6.072176-.212391 4.103248-.151568 6.237561-.242313 4.213497-.171517 4.257593-.179497 4.301687-.187477 4.345777-.195457 6.601331-.30815 4.455994-.215409 4.500077-.22339 6.832766-.350051 6.931938-.368009 7.031102-.385968 7.13026-.403929 4.808589-.279264 7.295503-.433864 7.394639-.451826 4.98483-.311197 7.559847-.481764 5.094961-.331156 5.13901-.33914 7.791101-.523682 5.249121-.359101 5.29316-.367087.423134-.029889c5.030243-13.18428 9.271395-26.950555 12.519646-40.336214l.161286-.673411c.060194-.33438.127718-.663701.201849-.989191l.116058-.485513.088737-.343497.07378-.270482.493588-2.205906.588741-2.703087.272003-1.282212.257832-1.240165.244214-1.201245.342002-1.73574.212597-1.117638.297176-1.624998.184446-1.05359.182401-1.088419.048-.338.038574-.30473.083169-.544767.106159-.613746.117098-.654757.164-1.052.048673-.469573.074491-.571415c1.502315-10.357795 2.260836-20.987655 2.260836-31.653176 0-58.481494-22.735679-113.315373-64.143952-154.690967-40.634635-40.602567-94.253901-63.2507534-151.583123-64.0818283z"/></svg>