<svg height="960" viewBox="0 0 960 960" width="960" xmlns="http://www.w3.org/2000/svg"><path d="m459.288 0v171.127h41.423v-171.127h40l-.001 176.841.079495.205956c1.444297 3.841542 2.315774 7.967216 2.509172 12.274743l.023911.64748 1.605422 55.415821 1.366349.607446c43.69451 19.788475 73.942045 64.045971 74.691406 114.486041l.014245 1.91838v268.206266c0 51.94474-31.307083 97.609002-76.541575 117.21808l-.536425.226787-3.509236 60.633655c-.25728 4.44409-1.233234 8.683976-2.810985 12.609384l-.014779.033961.001 138.675h-40v-133.631h-34.412v133.631h-40v-136.248l-.163408-.340408c-2.05403-4.358641-3.346935-9.155551-3.703427-14.224789l-.039672-.635061-3.468493-63.475742-.787647-.337988c-44.491999-19.500398-75.246634-63.622458-75.999226-114.444657l-.014127-1.908938v-265.268042c0-50.972099 30.188272-95.473656 74.31551-115.595756l1.63349-.731619 1.509209-56.724766c.126765-4.766502 1.083619-9.32003 2.729968-13.523647l.099823-.250587v-176.29zm-3.985953 734.853847 3.907892 71.515975 3.966061-.000822h34.412l2.891627.000822 3.979982-68.749269c-2.150355.184844-4.318956.303202-6.503849.353004-.719758.016406-1.437779.025204-2.153993.026465l-.64177-.000022-.305892-.002708-.585882-.006096-.388196-.004989c-3.681966-.052966-7.342717-.307644-10.971279-.76061l-.548748-.072597-.287647-.021403c-2.726419-.210825-5.204431-.416423-7.456615-.619206l-.668903-.060753c-2.827577-.259082-6.327725-.609233-10.511385-1.051197l-.65145-.069441-.807698-.023363c-1.702268-.06298-3.394247-.165666-5.075047-.307153zm-63.692032-416.874375-.080015.131528-.211.351.043949-.073686-.049949.082686-.014.024-.039.065-.182.306.157-.265-.196199.331534-.281801.480466-.035.059.191485-.326626c-.188753.321628-.3755.644577-.560222.968829l-.252101.445574-.04797.085483c-.544637.971834-1.071161 1.955189-1.579114 2.949609l-.20059.395185c-.069024.136849-.137696.273906-.206017.411168l-.364677.741513-.163547.338455c-.07575.157636-.151039.315535-.225866.473696l-.167009.355087-.180897.389401c-.116455.252319-.231738.50529-.34584.758907l-.217099.486544-.121536.276175.004-.011-.022049.051975-.080951.184025-.03.068-.012.028-.233298.545473-.252594.600036-.023052.055396-.27229.662711c-.051235.126182-.102181.252511-.15284.378987l-.051926.129397-.074.187-.029.072-.027219.070143-.084781.213857-.039.099-.018.047-.026.068-.044.114-.092.24-.063992.168135-.117008.308865-.076.202-.014.036-.073.198-.012.033-.112951.308681-.047143.129455-.015906.042864-.09.251-.013.036-.05756.160515-.01744.048485-.2016.573518-.2365.689222c-.030502.09013-.060861.180327-.091077.270589l-.128234.386099-.181724.557862-.178331.560369-.017044.054258-.03949.125083-.064.208-.044.141-.023.075-.021.066-.018.059.018553-.057492-.026553.086492-.008.026-.104.346.038-.128-.088235.295808-.048349.163213-.156416.535979-.012.042-.004.013-.031.108-.019.069-.018.062-.044.155-.026706.094949-.006294.020051-.105.379-.02.072-.028.101-.011573.044657-.007427.026343-.248972.934316c-.167366.64189-.327586 1.286666-.480569 1.934239-.071045.30074-.140393.60148-.208178.902812l-.099177.446394-.016427.075031-.035677.162208-.050186.235289-.034814.162711-.006.028-.008.038-.009.042-.003.014-.023235.113458.012235-.059458-.123926.60353-.136683.691329c-.036812.190261-.073005.380742-.108575.571443-.018888.101261-.037541.202261-.056019.303321l-.088847.493999-.068337.39162c-.036654.21293-.072533.426124-.107636.639581l-.035728.219007c-.036091.223033-.071335.446349-.105728.669946-.01852.120407-.036773.24076-.054779.361193l-.03468.234133-.089823.628135c-.021917.157363-.043413.314861-.064487.472492l-.027623.208533-.047466.36776-.043172.34574c-.022956.186881-.045319.373945-.067088.56119l-.085561.765413c-.00954.088892-.018945.177825-.028217.266798l-.024065.23399-.028237.282817-.052562.553343-.057028.647796-.050567.626794-.005166.067097-.021.279.002-.017-.008.107-.006.079-.013.176-.013.202-.005.077-.01.151-.009.137-.00393.068137-.00907.151863-.016.27-.009.154-.002872.058817-.003514.06483-.009614.182353-.005.102-.009.186-.006.107-.001.026-.001628.039301-.001372.016699-.009.222-.019.444-.001.014-.006.184.002-.083-.009.267-.023525.797502c-.018945.746989-.028475 1.496318-.028475 2.247873v265.268042l.011039 1.400181c.001818.115209.00386.230364.006125.345464l.024684.978799.020152.605139.003.086.001.015.020569.485619.008652.190643.015779.331738.01.192.001.016.007825.147032.008175.145968.001.01.017608.314.003392.064.003.044.016.255.02.302.002.034.01432.206192c.01609.229688.033072.45913.050942.688324l.038013.471144c.017982.215605.03675.430987.056302.646142l.008423.099198.036.372.033.339.061.592.003.025.002897.026125.005103.051875.001.013.003.028.02.174.005.047.025.219.017322.151032.023678.199968-.016-.126.066.544.008408.067441c.02697.217881.054745.435512.083323.65289l.105454.775151c.022641.161001.045723.321861.069244.482578l.12936.854227.001211.010713.039583.247362.023417.147638.04054.247212.02246.134788.042.25.022314.133403c.037193.218049.075197.435821.11401.653314l.126314.691585.005791.030967c.198624 1.060933.416505 2.115081.653265 3.16207.034605.153022.069456.305213.104705.45725l.126733.538776.063526.264395c.022634.093554.045419.187048.068356.280484l.063063.255225.018923.074531.053.208-.052-.202.07537.298954.03663.142046.045.178.183401.699224.155251.574502.091509.33146.052617.188292c.081311.289707.164084.578802.248311.867276l.116385.395109c.049923.167999.100339.335786.151248.503358l.080722.264188c.0643.209242.129368.418148.1952.626715l.157949.495204.058118.179663.000289.003009.077733.236097c.026119.079651.05235.159252.078693.238801l-.156678-.477793c.12797.394122.258676.78701.392098 1.178641l.181678.527689c.063121.181427.126825.36258.191111.543458l.070811.198471c.060842.169873.122197.339501.184063.508884l.216513.586192.032566.087055c.028864.077032.057834.154012.08691.23094l.142047.373216.122455.317349.005.011.003.01.084.216.01.026.006.015.235493.594029.111536.277235c.025102.062084.050274.124131.075515.186144l.177934.433775.104612.251943c.337133.808334.686111 1.610492 1.046717 2.406258l.549605 1.188827.24703.519421.074558.154368.13.27-.072-.151.134163.277686c.123041.251932.247263.503181.372659.753741l.202691.402389c.039012.07695.078135.153834.117369.230652l.174543.339896.009575.018636.046.089.121879.234197.043121.082803.053.101.277736.524484.398738.738435c.053462.097873.107107.195632.160933.293276l.111236.201157.165716.297369.052641.093279.056.099.044.079.104.183.218963.384297-.308761-.541924c.205665.364006.413877.726384.62461 1.087108l.374364.634627c.165142.277262.331782.553527.499909.828785l.113271.184929.054644.089178.024.039.03.048.081.13-.007-.01.065.104.086606.139578.100394.159422.064.102.139.22.071.113.067.104.184.287.067011.105528.186989.288472.162.249.194.294.08.121.049.074c.587998.88302 1.18979 1.75275 1.806821 2.610787l.052873.073443.053183.073714.627123.856056.025.035.15368.20645.229665.306341.324001.427467.041382.054206c.150119.196481.301055.392302.452804.58746l.386814.493797.066654.084279.088074.111215.089926.112785.06535.082254.02765.034746.058.072.301.373-.049-.06.048242.060078.071758.087922.024.03.017434.021519.023566.028481.052.064.035.043.233.283.049.06-.035-.042.050554.06147.126446.15153.176311.213087.064689.077913.042.049.164.195.168193.199595.043807.051405.020263.024041.185737.216959.181521.212197.095479.109803.191.22.147.17.015949.017838c.140412.160449.281403.320377.422972.479781l.39487.441599c.034091.037867.068216.075705.102374.113512l.434306.477167.323529.351103.074679.080263.279321.298737.078099.08355c.152529.162168.305675.32375.459431.484743l.093001.097227c.148185.154683.296936.308819.446249.462405.102701.105641.205583.210935.30873.315968l.116818.118728.356299.359354.445523.443557.166118.163763.226822.222206.458276.444072.461513.440731.379121.356696-.120889-.112879.130349.122324.05154.047555.017.016.322282.300222.727789.665724.16524.149065.138689.123989.515.458.057.05.148.13.19007.166614-.288291-.252286c.303441.26672.608755.531359.915919.793897l.534214.452912.111844.093897.312712.260849c.136746.113528.273846.226645.411297.339349l.56951.462993.014062.011331.217745.174859.042918.033585-.042-.034.293394.234951c.171213.135837.34295.271043.515207.405615l.464151.3601c.126202.097234.252679.194129.379429.290683l.231235.175542c.130445.098686.261177.197013.392195.29498l.641127.474841.398251.290425.61246.439968.078551.055895.047.033.09.063.215099.152699.046901.032301.086.06-.059-.041.101412.071581.143588.099419.182917.127734.148083.101266.067.047-.034-.024.246.169-.118-.08.195301.133325.055699.037675.145.098-.067-.045.081214.055427.085786.057573.161929.10967c.154562.103966.309476.207449.46474.310447-14.973772-18.295534-23.966669-42.010007-23.966669-68.005159v-272.855916c0-27.581469 10.123942-52.595416 26.774383-71.292414l-.380545.234137c-.195086.12032-.38966.24139-.58372.363204l-.458131.289568c-.183797.116973-.367125.234617-.549981.352929-.138421.089561-.276654.179559-.414615.269938l-.167399.10994-.367937.243586c-.218413.145394-.436133.291749-.653151.43906l-.333541.227534c-.936632.642133-1.860065 1.302115-2.769809 1.979456l-.13447.100319-.055084.040701-.117.087-.196009.148975-.217991.165025.219-.166-.384.292-.363.279-.042678.033109-.081322.062891-.574.449-.286.227-.125776.100155-.011224.008845-.07.056-.071317.057305-.288683.232695-.086942.070491-.349058.284509-.227.186-.019.016-.02.017-.159.132-.071.059-.172866.144578-.013134.010422-.214.18-.014.012-.152.128-.096943.082865-.06095.051831-.182107.155304-.08.069-.082.07-.098.084-.204.177-.117.102-.079.069-.05.043-.048729.043111-.012936.011334-.098335.086555-.051.045-.015.013-.275.243.132-.117-.132244.117272-.194756.173728-.254962.228513-.076551.069027-.115487.10446-.19.173-.051.046-.038428.035256-.042572.038744-.008.007-.415.382.371147-.341321c-.301333.276202-.600713.5545-.898119.83487l-.067986.06416-.35147.333893c-.033201.031717-.06631.063394-.099394.095098l-.347954.335285-.099224.096015-.366.357-.034.034-.42485.421704c-.146694.146408-.292868.293337-.43852.440784l-.369628.376447-.032111.032919-.445127.45991c-.20541.213791-.409737.428629-.612974.644505l-.295889.315853c-.85934.921875-1.698891 1.862439-2.517977 2.821015l-.025924.028863-.126168.149615c-.05056.059493-.100998.119003-.151358.178582l-.093711.111054-.095763.113749-.076.091-.095.113-.095.114-.206.249-.082.099-.064.078-.083267.102195c-.133791.163497-.266999.32749-.39962.491976l-.120696.150035c-.093163.11607-.186035.232384-.278614.34894-.097538.122801-.194727.24584-.29159.369147l-.153223.195627c-.07183.091977-.143479.184102-.214946.276375l-.549745.717422c-.085936.113358-.171601.226932-.256993.340723-.071177.094846-.1423.190026-.213234.285357l-.29512.398988c-.100132.136182-.199877.272666-.299233.40945l-.206605.285647-.168363.234584c-.06943.097076-.138664.194301-.207704.291674l-.171042.242108-.087005.123752-.113.161.045-.065-.045193.065861-.140807.201139-.336443.489698-.345105.50857-.084856.12624-.326277.489887-.396827.605654c-.107042.164862-.213541.33011-.319494.49574l-.026768.04187-.30873.48677-.261773.418397-.024207.038958-.214545.347305-.090975.147911zm108.889985 7.020528c30.006586 0 53.5 28.354121 53.5 62.5s-23.493414 62.5-53.5 62.5-53.5-28.354121-53.5-62.5 23.493414-62.5 53.5-62.5zm0 20c-18.042187 0-33.5 18.655981-33.5 42.5s15.457813 42.5 33.5 42.5 33.5-18.655981 33.5-42.5-15.457813-42.5-33.5-42.5zm25.212-64.275.054.022-.159-.062-.446-.173-.52776-.20058-.400531-.149252-.340803-.125165c-.182882-.066717-.366047-.132813-.54949-.198287l-.40253-.14251c-.074407-.026129-.148858-.052155-.223355-.078079-.196979-.068545-.393916-.136252-.591166-.203241l.105635.036114-.453408-.153372-.301381-.100241-.049211-.016387-.235417-.077114-.220583-.071886-.103941-.033342-.346059-.110658-.24778-.078107c-.211446-.066344-.423234-.131868-.63536-.196569l-.330533-.100069c-.088013-.026446-.176083-.052751-.26421-.078914-.177497-.052694-.354817-.104693-.532366-.156118l-.119831-.03461-.344731-.098483c-.105339-.029848-.210758-.059493-.316256-.088937l-.541276-.149094-.340561-.091795-.385153-.10195-.589538-.152231-.431405-.108123.433.108-.430056-.107627c-.155719-.038721-.311602-.077003-.467646-.114844l-.292472-.070365-.409444-.096625-.170985-.039703-.17111-.039351c-1.494709-.342078-3.003844-.643845-4.526251-.904096l-1.197245-.195662c-.066524-.010373-.133073-.020667-.199647-.030881l-.23203-.035265c-.286396-.043113-.573242-.084759-.860531-.124932-.062791-.00878-.126057-.017553-.189344-.026254l-.201128-.027401c-3.03933-.410289-6.127627-.655632-9.255997-.726744l-.335114-.00825-.816825-.011575c-45.478898-.268769-82.119175 37.527437-82.119175 85.070617v272.855916c0 46.948545 35.72947 84.392407 80.416927 85.062894l1.204073.007148.616922-.002745c.343903-.003352.688304-.008665 1.033192-.016505 2.68757-.061092 5.345566-.250775 7.968346-.56316l.98754-.12459.155731-.019632c.249856-.033283.499382-.06768.748573-.103186.788704-.112376 1.574394-.235924 2.356573-.370432.052095-.008958.104865-.018085.157619-.027262l.048635-.008475.523807-.093172.135062-.025841-.659428.119111.806428-.146111-.147.027.150552-.026425.063448-.012575-.045.008.063-.012.065-.012.407-.077.353-.068.481835-.095252.019165-.004748.051-.01.091-.019-.086.018.098-.02.406334-.083757.473192-.100786c.147204-.031802.294271-.063994.441201-.096576l.610273-.138881-.201579.04717.227579-.05317.440659-.101463.092341-.022537-.096.022.097-.023.572953-.136457-.522963.126068.626285-.1514.283725-.071211-.287.071.49-.122.378937-.095559.373016-.096895.134047-.036546.507-.135.596342-.163171.371658-.105829.274464-.077122c.200212-.057565.400133-.11586.599761-.174883l.040817-.012079c.193325-.057268.386374-.115217.579145-.173846l-.415187.12393.417616-.124669.452384-.140331.029-.009.370312-.114721.480295-.153328.307895-.099978.147774-.048454.810024-.271041.217807-.074456.156893-.055022.221125-.075797.316875-.112203.145998-.050749c.207425-.073709.414495-.148213.621205-.22351l.429508-.157785c.151319-.056059.302443-.112543.45337-.169452.0987-.037215.19711-.074534.295436-.112032l.901695-.349851.104863-.041465c.070885-.028084.141725-.056262.21252-.084535l.784024-.31769c.136238-.056004.272306-.112357.408202-.169058l.623601-.26314c.180677-.077098.361046-.154811.541103-.233139l-.272525.116406.352-.152.490617-.214911.084383-.038089.483605-.216514.651875-.298438.278917-.129746.096603-.046302.119002-.054839.213998-.102161-.151211.072567.559211-.267567.041-.02-.038.019.039772-.018374.170228-.083626.229328-.110054.013672-.007946.461-.227.171-.085-.076238.039427.094238-.048427-.017.009.053-.027.045317-.021129.186683-.094871.270056-.135305.086205-.043831.575533-.295814.205206-.10805.320173-.16685c.185518-.097897.370647-.196465.555385-.295703l-.318558.168553.398763-.211694c.195522-.1053.390603-.211351.585241-.318147.159972-.087782.317206-.17471.474147-.262125l.586814-.329888c.175367-.099498.350363-.199606.524983-.300321l.316725-.183581.27865-.163015c.393142-.230992.784268-.465024 1.173427-.702113l.282095-.172608c.033611-.020655.067208-.041333.10079-.062034l.756122-.471532.170243-.108942.227-.145.576-.371.337-.219.137-.09.497-.331-.013.009.014906-.008801.127626-.085573.477468-.324626.461-.316.075-.052.27-.188.243-.17.017-.012.101106-.070002.035894-.026998-.037.026.524-.373.344988-.246672.78229-.573478c.092788-.068822.185436-.137828.277946-.207018l.039776-.030832.039456-.028498.160808-.120849.724938-.5521c.193526-.148996.386421-.298805.578681-.449423l.364242-.286919c.015601-.012356.031197-.024718.046789-.037085.1921-.152364.383654-.30562.574558-.459682l.0494-.039895c.13061-.105561.260915-.2115.390914-.317815l.632821-.522516-.254607.209782.092427-.074915c.15643-.129766.312408-.260078.467931-.390936l.59058-.501405.113987-.097819c.088259-.075871.176367-.15192.264325-.228145.478326-.414522.952244-.83432 1.421607-1.259247l.159622-.144869.350469-.320602c.108553-.099842.217021-.200114.325238-.300661l.092602-.086164.100212-.094237.039-.037-.013.013.041-.039.089235-.082686.214765-.203314.040733-.037645.068267-.066355.121-.115.145-.138.09372-.08864.043728-.041996.011552-.012364.151-.146.171-.166.079631-.075339.009369-.010661.444387-.434378.243787-.241782.308495-.30868.366368-.370599c.294581-.299752.587054-.601653.877394-.905677l.527507-.557204.341606-.366075c.472527-.509266.939164-1.024253 1.399796-1.54484.536467-.606293 1.064803-1.220201 1.584813-1.841517.137387-.164153.274391-.329061.410809-.494485l.340531-.415503c.138325-.169827.276034-.340189.413126-.511081.157733-.196627.314086-.393244.469622-.590552l.38152-.487486.040225-.051809c.101545-.130889.202734-.262077.303563-.393561l.389444-.511686.257007-.343085.032-.043.108241-.143922.108759-.148078-.045.06.27-.365.006478-.007527.053104-.072456-.041582.054983.066-.09.222-.306-.08.111.185147-.253598.348385-.486114.37838-.535946c.124157-.177249.247684-.354981.370577-.533194.113838-.165082.227198-.330672.340011-.496671l.042775-.063.179049-.264979.159676-.239498.018443-.02617.174557-.26383-.131.196.179-.269.049-.074.011-.017.028-.042.047-.071.337921-.516853.137079-.215147.217-.338.0189-.027973.0741-.119027.243-.384.009-.014.202-.326.031-.049.105-.17.029226-.045508.146774-.241492.02-.033.045-.074.074-.121.013-.021.31487-.521134.233959-.393891c.056259-.095279.112346-.190674.168259-.286184l.255087-.438616.12066-.209511.336172-.590815.167557-.298481c.163356-.292321.325107-.585672.48524-.880038l.071196-.13333.072334-.13159-.14353.26492c.110816-.203708.220857-.407902.330119-.612578l.214007-.403398c.245384-.465447.486752-.933358.724056-1.403683.036539-.072435.069472-.137924.102326-.20346.249016-.496716.493705-.996527.733801-1.498961l.377169-.799556.038718-.084694.037709-.079892.060291-.133108.015809-.031661.109191-.242339-.038.085.039978-.084976.139022-.310024.104-.229.058-.13.015-.033.109-.244-.068.151.117-.262.057-.129.015-.034.09-.207-.077.175.191684-.437517.020316-.049483.186-.436.061684-.141813.023316-.057187.074-.177.154049-.366727.075951-.186273.081-.198.048-.117.055-.134.230389-.574544.149611-.383456.06-.153.029307-.072417.005693-.015583.022-.059.023-.058.178-.465.088-.235-.08284.223344.21584-.576344-.091.241.092-.244.022-.06.013-.035.034-.093.078-.212.058-.158.018219-.047549.034219-.094375c.17075-.471767.3376-.945383.50051-1.420807l.065416-.191626c.019631-.057722.039203-.11547.058717-.173245l.180109-.538982c.003752-.011348.007501-.022698.011248-.034048l.221315-.679694c.074292-.231358.147655-.463126.220087-.695299l.167855-.544254.225715-.752441.07159-.24868-.054.188.055392-.187981.087608-.306019.023507-.077898.017493-.065102.04-.141.025-.088.06617-.2301.030676-.109733.106717-.386117.044437-.16505.060572-.22176c.333796-1.240771.641198-2.492127.921546-3.75338l.046063-.208428.015819-.075432.055-.255.003-.016.039-.183.113338-.531083c.058834-.284503.116295-.569491.172375-.854959l.050867-.261029.065354-.341727c.024528-.129649.048772-.259395.07273-.389237l.110052-.608429c.047884-.270162.094534-.540735.139944-.811713l.008655-.051744c.018762-.112367.03731-.224804.055644-.33731.043428-.266492.085648-.533309.126663-.800506.104638-.681689.201417-1.365683.290257-2.051993l.127297-1.031206c.040814-.347493.079596-.695578.116334-1.044242.05381-.510681.103235-1.022604.148235-1.535727l.018255-.220095.004746-.046844c.007535-.089016.014936-.178067.022203-.267154l.004078-.050159-.003027.024157.065077-.836754c.041304-.575903.077036-1.153258.107141-1.73201l.025779-.520104.004003-.113132.001-.031.009-.206.002817-.033602.011183-.302398.00399-.081735.00101-.066265.004-.107.004-.108-.003.064.028384-.888301c.018374-.738112.027616-1.47834.027616-2.220566v-268.206266l-.011187-1.413696-.019174-.91137c-.003169-.12124-.006585-.242423-.010248-.363548-.008811-.29139-.019052-.582525-.030713-.873319l-.023108-.535737-.023589-.482424c-.039638-.767701-.089177-1.532948-.148487-2.295607-.09036-1.161914-.203402-2.317822-.338672-3.46725l-.009822-.074916-.012-.101-.090379-.736403c-.038956-.303646-.079464-.606828-.121515-.909538l-.013106-.090059-.023-.165-.013787-.098814-.030213-.205186-.015631-.111147-.016369-.108853-.012-.075-.025-.166-.015-.101-.003-.019-.03-.2-.005-.029-.034-.214-.012-.077-.004-.026-.007-.046-.007-.042-.027-.171-.003236-.02414-.037764-.22586v-.001l-.029-.175-.003-.015-.008-.05-.014-.083-.012531-.079058.102779.61957c-.069493-.428403-.142084-.855808-.217749-1.282188l-.121487-.669494-.121012-.63783-.023-.118-.055-.277-.1-.495.012.054-.036-.174-.005062-.029737-.034938-.163263-.14939-.710274c-.125762-.581325-.257266-1.160575-.394447-1.737683-.067704-.284827-.136852-.569375-.207377-.853392l-.151851-.602401c-.095673-.373945-.193738-.746956-.294176-1.119013l-.043849-.161815-.016927-.062142c-.069985-.256549-.1411-.512641-.213337-.768271l-.13094-.458594-.096395-.331709c-.027554-.094127-.055261-.188189-.083121-.282187l-.196534-.653767-.037656-.120752-.049849-.164539c-.029325-.095029-.058806-.189992-.088443-.284886l-.015708-.049575-.018-.056-.056-.177-.110749-.35084-.005251-.01416-.006-.021-.033-.102-.035-.106-.02-.063-.078-.239-.028-.086-.019555-.060102c-.072149-.218769-.14513-.437165-.218939-.655184l-.022742-.067088c-.04522-.133219-.090749-.266298-.136587-.399235l-.268177-.766391-.082933-.23232-.066067-.18268-.007-.02-.055823-.154566-.049177-.132434-.008-.022-.054-.147-.008-.021-.088-.24-.009055-.026312-.246958-.657011-.071843-.188191-.093815-.24382-.043888-.113327-.057441-.146339-.054379-.140317c-.037434-.095472-.075029-.190863-.112785-.286173l-.005836-.01351-.009-.023-.082-.205-.022-.054-.133774-.335049-.065226-.157951-.015-.037-.029-.071-.087-.211-.032-.079-.029069-.072219-.214863-.514249-.182156-.428941c-.040287-.094175-.080732-.188265-.121336-.282272l-.017985-.041608-.210727-.48322-.008864-.019491-.123704-.280517-.103296-.229483-.035731-.081936c-.091245-.203334-.183236-.40626-.275966-.608776l-.125378-.272588-.128206-.276238-.377732-.799709-.472177-.971496c-.477896-.968144-.972944-1.926263-1.48473-2.873926l-.10208-.187331-.061-.112-.08-.147-.05377-.09875-.02823-.05125-.172-.31-.015-.026-.065-.118-.017-.031-.037-.066-.151-.268-.125038-.222611-.032962-.056389-.175-.306-.098-.172-.021-.036-.005-.009-.068-.117-.067-.115-.077-.132-.085-.145-.005544-.010759-.006456-.010241-.108-.182-.068-.115-.140078-.237854-.020922-.034146-.251-.418-.042-.069-.028431-.047876c-.110307-.181793-.221249-.363153-.332821-.544076l-.100348-.16233c-.077975-.125834-.156256-.251456-.234841-.376865l-.360826-.570963-.351733-.54689-.316298-.48541-.037743-.057396-.085959-.129194-.112-.169-.056-.085-.081956-.123409-.053044-.078591-.192-.285-.108-.16-.056-.082-.076-.112-.024-.034-.056-.083-.043-.063-.095367-.139407-.066633-.095593.036344.051642-.234344-.336642-.072-.104-.054-.077-.017-.024-.144-.205-.151-.214-.029662-.042446-.087338-.121554-.015-.021-.102-.143-.102-.142-.06164-.086679-.01836-.025321-.043-.059-.148-.204-.181288-.249226-.394554-.53444-.264072-.353062-.132195-.175374c-.179938-.238098-.361047-.47524-.543317-.711418l-.173811-.22447-.231045-.2961c-.130617-.166664-.261816-.332839-.393594-.49852l-.019124-.02439-.01-.012-.056-.07-.505196-.627744c-.39608-.487237-.797214-.970088-1.203317-1.448463-.208648-.245789-.419534-.491463-.631732-.735934l-.201474-.231303c-.120798-.138198-.242017-.276007-.363654-.413426l-.023023-.026c-.166366-.187802-.333514-.374873-.501439-.56121l-.387365-.427024-.096043-.105012-.333208-.361709c-.157174-.169667-.315002-.3387-.473478-.507095l-.448773-.473338-.374606-.389794-.166991-.172227-.336338-.344055-.397363-.401666-.235807-.235957-.096193-.095043-.116-.115.05.049-.048848-.048613-.451292-.443612-.526368-.509433-.112275-.107571c-.099876-.09552-.199974-.190801-.300293-.285843l-.502843-.472655-.197925-.184013-.106156-.09826.011.011-.058-.054-.085-.078-.037-.034.036.032-.034898-.031663-.112102-.102337-.16-.146-.034-.031-.091366-.08368-.024634-.02232-.451519-.406723-.156371-.13953c-.12612-.112267-.252562-.224166-.379325-.335697l-.46865-.409389c-.137035-.11885-.274436-.237271-.412203-.355262l-.278097-.23717c-.085764-.072834-.171668-.145501-.257712-.218002l-.695607-.579975-.117516-.096252-.235-.192.119629.096793-.234629-.190793.094.077-.751-.606.548.44-.154364-.12512-.635449-.50792c-.649667-.514332-1.306689-1.019397-1.97087-1.514992l-.03611-.026931-.063207-.047037-.438077-.323808-.062923-.045192.359.265-.673-.494-.548208-.39574.433208.31174-.433628-.31204-.261372-.18596.26.185-.586024-.414841-.195976-.136159.144.1-.3715-.259089-.1065-.073911-.166-.114-.254113-.174035-.055887-.037965.032.021-.061466-.041161-.342534-.231839.341.231-.395-.267-.077-.052-.144-.096-.343194-.228198-.073386-.048432-.02442-.01637-.187-.122-.287-.188-.034-.022-.425643-.274124-.131357-.083876-.035-.022-.35033-.222392.407611.258538c-.36905-.235535-.739955-.468288-1.112689-.698229l.138408.086083-.404-.249-.239-.146-.273-.165-.233389-.140178-.164611-.097822-.370781-.219715c-.178866-.105207-.358133-.209774-.537798-.313697l-.381898-.219591-.200515-.11425-.604602-.340168c-.169991-.094734-.340325-.188898-.511-.282488l-.009324-.005112c-.205133-.112452-.410759-.224076-.616873-.334866l-.105319-.056516-.405065-.215595-.192483-.101468-.425843-.222257c-.10553-.0547-.211292-.109238-.317179-.163559l-.170269-.087108c-.307852-.157057-.616743-.312275-.926658-.465638l-.060327-.029824-.097253-.047953c-.225309-.110915-.451383-.22096-.677992-.330019l-.315572-.15107-.17081-.081103-1.120868-.520667c-.609042-.277513-1.221774-.547961-1.838095-.811237-.202694-.086586-.405722-.172373-.609134-.257381l-.079439-.033151c-.121365-.050573-.242865-.100869-.364502-.150888l-.363814-.14861-.391882-.15786-.426705-.169209-.096-.037.025.009zm-22.372643-89.59734h-46.895286l-1.744069 65.57898c1.150791-.120769 2.307122-.223343 3.468707-.307426l1.530291-.098214.282302-.037093c.464775-.0566.934196-.097241 1.407661-.12139l.355848-.015011 26.836189-.895506.841701-.055745c1.128251-.066681 2.259065-.11448 3.392116-.143966.022142.001585.043803.000992.065465.000407.166894-.00633.334296-.010182.501746-.013637l.808095-.01331c.109163-.001542.218368-.002909.327618-.0041l.118083-.001052 1.900712-.000597c.270436 0 .54084.005485.811045.016452l.608179.009991c2.437219.055554 4.854165.196412 7.248126.419702z"/></svg>