<svg height="960" viewBox="0 0 960 960" width="960" xmlns="http://www.w3.org/2000/svg"><path d="m300.989103 57.9955673.182897.0124327.399215-.0124327h1.029994l1.030795.0235882 120.757996 2.8858445.327365-.0482421c1.870774-.2617776 3.76336-.4090865 5.667859-.43859l.714726-.0055352c.159297 0 .318592.0009516.477877.0028547l.143353.0017127c.159286.0019031.318559.0047577.47781.0085637l240.754832 5.7538c2.540217.0607087 5.055591.3307056 7.523071.8011536l.255107.0512826 64.766366 1.5473202c34.797833.8316334 63.914008 28.2199571 64.492852 63.1565038l.008782 1.060974v566.891789c0 66.407617-41.339789 125.506782-102.743997 153.269142l-.471003.208271-.132894.15726c-8.04821 9.301934-19.770688 15.351052-32.950192 15.876571l-.747551.023832-98.220363 2.348337-.133546.694264c-3.546504 18.089863-9.952593 33.75421-19.613029 46.895146l-.494015.666008c-18.558987 24.79764-46.51724 37.172582-79.78544 37.172582-33.063196 0-60.848187-12.008741-79.371533-36.304522-10.334051-13.554455-16.997202-29.859557-20.456628-48.771826l-.109809-.604652-.40029-.07825c-.88922-.179084-1.776748-.364884-2.662521-.557383l-.028189-.006367-73.678-11.842-1.457742-.177464c-82.578023-10.678313-145.265983-77.400886-146.523981-159.02581l-.019277-2.503334v-565.005881c0-33.371075 26.011717-60.0186489 58.708435-62.7346373l.150565-.0108737 86.249338-11.052576c1.979442-.2536521 3.943459-.3580321 5.880765-.3288567zm236.017229 795.4904047-16.269367.390083c-1.609939 30.417456-16.237546 47.638434-43.115978 47.638434-26.450472 0-41.463522-16.389901-44.111564-45.544411l-.88614.020226c-2.823236.060181-5.597372-.330428-8.229187-1.1354l-.40012-.127035-9.352874.22494-1.78704.030576c4.309446 41.34441 24.927416 62.016615 61.853908 62.016615 36.907751 0 57.673872-21.171343 62.298362-63.514028zm-36.308396.870821-47.167936 1.130774c.836021 7.995278 2.818869 14.034057 5.779558 18.165436l.218379.298892c3.753234 5.038384 9.440995 7.562594 18.09305 7.562594 8.542144 0 14.018575-2.532645 17.567992-7.632703 3.01816-4.336709 4.922695-10.836655 5.508957-19.524993zm-63.780142-747.599349v722.701963c.074921 2.922859 2.226766 5.305027 5.007606 5.769471.318458-.038611.641684-.060684.968805-.067094l27.646795-.542217 67.45646-1.688434c-.000786-.163652-.001753-.327544-.002903-.491674l134.003578-3.204365c3.256928-.077837 5.856647-2.74043 5.856647-5.998287l.001729-1.612556.060489-.021684.000794-709.105405c0-.343969-.028982-.681308-.08466-1.009674-.623377-2.582532-2.918449-4.519787-5.689326-4.586218l-231.812944-5.559037c-2.018738.966122-3.41307 3.027834-3.41307 5.415211zm-19.599112-4.573203-.205318.025787c-2.893288.428546-5.113364 2.922482-5.113364 5.934944v719.853277c.073898 3.029481 2.379713 5.480786 5.307041 5.817376-.218705-1.256528-.348204-2.543242-.381084-3.85509-.006803-.271416-.007936-.316652-.008125-.512714l-.000038-722.690377c0-1.560319.137445-3.088535.400888-4.573203zm-139.318682 19.618388v585.68329c0 60.269883 42.477987 109.997024 100.257485 123.739321l.915216.142749c4.414267.994679 8.915496 1.780685 13.491703 2.346929-.358346-1.553652-.577138-3.161083-.64325-4.809512l-.013746-.429752c-.003704-.155142-.005556-.232713-.006482-.310291l-.000926-720.020391c0-2.781971.436926-5.461892 1.245899-7.974885l-90.527209-2.1700357c-13.714569.0267926-24.71869 10.5491117-24.71869 23.8025777zm-15.650572-18.953339-49.53199 6.347238c-12.772363.671146-22.817438 10.567799-22.817438 22.925983v565.005881c0 63.406274 49.360001 114.716954 113.641352 122.099713l8.665693 1.395251c-32.617687-26.422673-53.53251-65.897701-54.285981-110.633945l-.021064-2.503492v-585.68329c0-6.82548 1.563336-13.243897 4.349428-18.953339zm435.647201 9.62754.003371.422716.000987 700.089458c42.85539-22.356121 71.999013-65.01866 71.999013-113.300417v-566.891789l-.003411-.39069-.010175-.379443c-.122708-3.520129-1.072355-6.865753-2.674082-9.870139-3.945359-7.391513-11.845091-12.718502-21.090816-13.497957-.541854-.04508-1.088129-.074421-1.63849-.087598l-47.15723-1.129263c.347883 1.62776.543325 3.311424.570833 5.035122zm-83.696629 446.522924c6.90933-.041095 12.529973 5.138437 12.696215 11.62831.002518.104965.003785.203591.003785.302504v66.854755c0 19.078571-15.707912 34.904882-35.570836 36.405674-.835982.063117-1.679324.100908-2.529164.112497l-50.8.692711-.630053.003728.630053-.003728c-.297958.004063-.595117.004856-.89144.002415-.155129-.001279-.309868-.003442-.464374-.006484-.060871-.001197-.122262-.002545-.183615-.004031-.148693-.003605-.296623-.008005-.44433-.01321-.033495-.001179-.067424-.002417-.101341-.003697l-1.9149.025007c-21.042049.286913-38.1-15.732786-38.1-35.780998v-67.415211c0-6.682738 5.685984-12.134588 12.7-12.17705l101.6-.615812c.217269-.0011.433263.0028.647854.01171zm-7.3 20.044109-87.00087.527v59.642068c0 8.364293 7.186793 15.408777 16.766396 15.772334l.521708.013133.54007-.000334 50.8-.692711c10.345064-.141066 18.372696-7.835907 18.372696-16.522398zm-94.3-148.18966 101.6.246903c7.014016.017039 12.7 5.395553 12.7 12.013246v85.588523c0 6.617693-5.685984 12.009698-12.7 12.043381l-101.6.488217c-.238849 0-.476157-.004153-.711754-.015409l-3.288246.015409c-7.014016.03337-12.7-5.348998-12.7-12.022169v-86.306029c0-6.67317 5.685984-12.069031 12.7-12.052072l3.513996.007547c.16125-.005382.32327-.007547.486004-.007547zm7.29913 20.16366v69.947l87-.417v-69.32zm-11.29913-149.252971 2.928802.031499c.353157-.024166.710421-.034587 1.071198-.031499l101.6 1.105689c7.014016.076221 12.7 5.484605 12.7 12.079962v85.29965c0 6.595358-5.685984 11.921142-12.7 11.895655l-3.368538-.012293c-.209197.008869-.419724.012293-.631462.012293l-101.6-.372028c-7.014016-.02567-12.7-5.437896-12.7-12.088543v-86.014735c0-6.650648 5.685984-11.980273 12.7-11.90565zm11.29913 20.314971v69.575l87 .318v-68.95zm17.470817-154.079489.630053.007547 50.8.999016c20.831272.409661 37.757864 16.474516 38.094878 36.008308.003393.198009.005122.397027.005122.59639v66.588461c0 6.600783-5.685984 11.882885-12.7 11.798917l-2.973-.036446-.259212.015913c-.253991.01125-.509992.015602-.767788.013153l-101.6-1.23189c-7.014016-.084975-12.7-5.549367-12.7-12.205063v-67.142413c0-19.967086 17.057951-35.818152 38.1-35.404346l1.456792.029256c.246829-.010583.4943-.018922.742391-.024998l-.738323.024821c.335633-.014797.672453-.025093 1.010405-.031049.193499-.002963.387606-.005029.582074-.005705.050732-.000441.101113-.0005.151518-.000466zm-.162849 19.999626-.119501.000137c-.095261.000459-.190343.001576-.285243.003367l.284768-.003231c-.129472.000668-.258517.002542-.387125.005609l.102357-.002378c-.162828.003072-.325119.008126-.486858.015228l-.024168.000965c-9.41998.412527-16.392198 7.249421-16.392198 15.394823v59.439343l87.00087 1.054v-58.298621c0-.794062-.068381-1.580791-.200662-2.354978l-.0526-.287789c-1.42633-7.421829-8.720606-13.620864-17.886091-13.953443l-.353909-.009898-50.8-.999079zm24.120677-56.96221.290455.002839c6.021461.13315 10.90282 4.84431 10.90282 10.522671s-4.881359 10.180234-10.90282 10.055216c-6.021461-.125019-10.902819-4.836179-10.902819-10.522671s4.881358-10.188365 10.902819-10.055216z"/></svg>